//Event file generated from Sappy .s format.
	#include "MPlayDef.event"

	#define	GuiltyGearXAdvanceVenomsThemeMeatOfJustice_grp  voicegroup000
	#define	GuiltyGearXAdvanceVenomsThemeMeatOfJustice_pri  0
	#define	GuiltyGearXAdvanceVenomsThemeMeatOfJustice_rev  0
	#define	GuiltyGearXAdvanceVenomsThemeMeatOfJustice_mvl  127
	#define	GuiltyGearXAdvanceVenomsThemeMeatOfJustice_key  0
	#define	GuiltyGearXAdvanceVenomsThemeMeatOfJustice_tbs  1
	#define	GuiltyGearXAdvanceVenomsThemeMeatOfJustice_exg  0
	#define	GuiltyGearXAdvanceVenomsThemeMeatOfJustice_cmp  1

	// .rodata
	//	GuiltyGearXAdvanceVenomsThemeMeatOfJustice
	ALIGN 4


//**************** Track 1 (Midi-Chn.0) ****************//

GuiltyGearXAdvanceVenomsThemeMeatOfJustice_001:
//  #01 //000   ----------------------------------------
 BYTE   KEYSH   GuiltyGearXAdvanceVenomsThemeMeatOfJustice_key+0
 BYTE   TEMPO   142*GuiltyGearXAdvanceVenomsThemeMeatOfJustice_tbs/2
 BYTE   VOICE   41
 BYTE   MODT 0
 BYTE   LFOS 44
 BYTE   VOL   48*GuiltyGearXAdvanceVenomsThemeMeatOfJustice_mvl/mxv
 BYTE   PAN   c_v+0
 BYTE   BENDR  12
 BYTE   BEND   c_v+0
 BYTE   W96
//  #01 //001   ----------------------------------------
 BYTE   W96
//  #01 //002   ----------------------------------------
 BYTE   W96
//  #01 //003   ----------------------------------------
 BYTE   BEND   c_v+15
 BYTE   TIE  Dn4  v028
 BYTE   W05
 BYTE   BEND   c_v+15
 BYTE   W05
 BYTE   BEND   c_v+15
 BYTE   W05
 BYTE   BEND   c_v+14
 BYTE   W05
 BYTE   BEND   c_v+14
 BYTE   W05
 BYTE   BEND   c_v+13
 BYTE   W05
 BYTE   BEND   c_v+13
 BYTE   W05
 BYTE   BEND   c_v+12
 BYTE   W05
 BYTE   BEND   c_v+12
 BYTE   W05
 BYTE   BEND   c_v+11
 BYTE   W05
 BYTE   BEND   c_v+11
 BYTE   W05
 BYTE   BEND   c_v+10
 BYTE   W05
 BYTE   BEND   c_v+10
 BYTE   W05
 BYTE   BEND   c_v+9
 BYTE   W05
 BYTE   BEND   c_v+9
 BYTE   W05
 BYTE   BEND   c_v+8
 BYTE   W05
 BYTE   BEND   c_v+8
 BYTE   W05
 BYTE   BEND   c_v+7
 BYTE   W05
 BYTE   BEND   c_v+7
 BYTE   W05
 BYTE   BEND   c_v+6
 BYTE   W01
//  #01 //004   ----------------------------------------
 BYTE   W04
 BYTE   BEND   c_v+6
 BYTE   W05
 BYTE   BEND   c_v+5
 BYTE   W05
 BYTE   BEND   c_v+5
 BYTE   W05
 BYTE   BEND   c_v+4
 BYTE   W05
 BYTE   BEND   c_v+4
 BYTE   W05
 BYTE   BEND   c_v+3
 BYTE   W05
 BYTE   BEND   c_v+3
 BYTE   W05
 BYTE   BEND   c_v+2
 BYTE   W05
 BYTE   BEND   c_v+2
 BYTE   W05
 BYTE   BEND   c_v+1
 BYTE   W05
 BYTE   BEND   c_v+1
 BYTE   W05
 BYTE   BEND   c_v+1
 BYTE   W05
 BYTE   BEND   c_v+0
 BYTE   W05
 BYTE   BEND   c_v+0
 BYTE   W05
 BYTE   BEND   c_v-1
 BYTE   W05
 BYTE   BEND   c_v-1
 BYTE   W05
 BYTE   BEND   c_v-2
 BYTE   W05
 BYTE   BEND   c_v-2
 BYTE   W05
 BYTE   BEND   c_v-3
 BYTE   W02
//  #01 //005   ----------------------------------------
 BYTE   W03
 BYTE   BEND   c_v-3
 BYTE   W05
 BYTE   BEND   c_v-4
 BYTE   W05
 BYTE   BEND   c_v-4
 BYTE   W05
 BYTE   BEND   c_v-5
 BYTE   W05
 BYTE   BEND   c_v-5
 BYTE   W05
 BYTE   BEND   c_v-6
 BYTE   W05
 BYTE   BEND   c_v-6
 BYTE   W05
 BYTE   BEND   c_v-7
 BYTE   W05
 BYTE   BEND   c_v-7
 BYTE   W05
 BYTE   BEND   c_v-8
 BYTE   W05
 BYTE   BEND   c_v-8
 BYTE   W05
 BYTE   BEND   c_v-9
 BYTE   W05
 BYTE   BEND   c_v-9
 BYTE   W05
 BYTE   BEND   c_v-10
 BYTE   W05
 BYTE   BEND   c_v-10
 BYTE   W05
 BYTE   BEND   c_v-11
 BYTE   W05
 BYTE   BEND   c_v-11
 BYTE   W05
 BYTE   BEND   c_v-12
 BYTE   W05
 BYTE   BEND   c_v-12
 BYTE   W03
//  #01 //006   ----------------------------------------
 BYTE   W02
 BYTE   BEND   c_v-13
 BYTE   W05
 BYTE   BEND   c_v-13
 BYTE   W05
 BYTE   BEND   c_v-13
 BYTE   W05
 BYTE   BEND   c_v-14
 BYTE   W05
 BYTE   BEND   c_v-14
 BYTE   W05
 BYTE   BEND   c_v-15
 BYTE   W05
 BYTE   BEND   c_v-15
 BYTE   W05
 BYTE   BEND   c_v-16
 BYTE   W05
 BYTE   BEND   c_v-16
 BYTE   W05
 BYTE   BEND   c_v-17
 BYTE   W05
 BYTE   BEND   c_v-17
 BYTE   W05
 BYTE   BEND   c_v-18
 BYTE   W05
 BYTE   BEND   c_v-18
 BYTE   W05
 BYTE   BEND   c_v-19
 BYTE   W05
 BYTE   BEND   c_v-19
 BYTE   W05
 BYTE   BEND   c_v-20
 BYTE   W05
 BYTE   BEND   c_v-20
 BYTE   W05
 BYTE   BEND   c_v-21
 BYTE   W05
 BYTE   BEND   c_v-21
 BYTE   W04
//  #01 //007   ----------------------------------------
 BYTE   EOT
 BYTE   TIE
 BYTE   W05
 BYTE   BEND   c_v-21
 BYTE   W05
 BYTE   BEND   c_v-21
 BYTE   W05
 BYTE   BEND   c_v-20
 BYTE   W05
 BYTE   BEND   c_v-20
 BYTE   W05
 BYTE   BEND   c_v-19
 BYTE   W05
 BYTE   BEND   c_v-19
 BYTE   W05
 BYTE   BEND   c_v-18
 BYTE   W05
 BYTE   BEND   c_v-18
 BYTE   W05
 BYTE   BEND   c_v-17
 BYTE   W05
 BYTE   BEND   c_v-17
 BYTE   W05
 BYTE   BEND   c_v-16
 BYTE   W05
 BYTE   BEND   c_v-16
 BYTE   W05
 BYTE   BEND   c_v-15
 BYTE   W05
 BYTE   BEND   c_v-15
 BYTE   W05
 BYTE   BEND   c_v-14
 BYTE   W05
 BYTE   BEND   c_v-14
 BYTE   W05
 BYTE   BEND   c_v-13
 BYTE   W05
 BYTE   BEND   c_v-13
 BYTE   W05
 BYTE   BEND   c_v-12
 BYTE   W01
//  #01 //008   ----------------------------------------
 BYTE   W04
 BYTE   BEND   c_v-12
 BYTE   W05
 BYTE   BEND   c_v-11
 BYTE   W05
 BYTE   BEND   c_v-11
 BYTE   W05
 BYTE   BEND   c_v-10
 BYTE   W05
 BYTE   BEND   c_v-10
 BYTE   W05
 BYTE   BEND   c_v-10
 BYTE   W05
 BYTE   BEND   c_v-9
 BYTE   W05
 BYTE   BEND   c_v-9
 BYTE   W05
 BYTE   BEND   c_v-8
 BYTE   W05
 BYTE   BEND   c_v-8
 BYTE   W05
 BYTE   BEND   c_v-7
 BYTE   W05
 BYTE   BEND   c_v-7
 BYTE   W05
 BYTE   BEND   c_v-6
 BYTE   W05
 BYTE   BEND   c_v-6
 BYTE   W05
 BYTE   BEND   c_v-5
 BYTE   W05
 BYTE   BEND   c_v-5
 BYTE   W05
 BYTE   BEND   c_v-4
 BYTE   W05
 BYTE   BEND   c_v-4
 BYTE   W05
 BYTE   BEND   c_v-3
 BYTE   W02
//  #01 //009   ----------------------------------------
 BYTE   W03
 BYTE   BEND   c_v-3
 BYTE   W05
 BYTE   BEND   c_v-2
 BYTE   W05
 BYTE   BEND   c_v-2
 BYTE   W05
 BYTE   BEND   c_v-1
 BYTE   W05
 BYTE   BEND   c_v-1
 BYTE   W05
 BYTE   BEND   c_v+0
 BYTE   W05
 BYTE   BEND   c_v+0
 BYTE   W05
 BYTE   BEND   c_v+1
 BYTE   W05
 BYTE   BEND   c_v+1
 BYTE   W05
 BYTE   BEND   c_v+2
 BYTE   W05
 BYTE   BEND   c_v+2
 BYTE   W05
 BYTE   BEND   c_v+3
 BYTE   W05
 BYTE   BEND   c_v+3
 BYTE   W05
 BYTE   BEND   c_v+4
 BYTE   W05
 BYTE   BEND   c_v+4
 BYTE   W05
 BYTE   BEND   c_v+4
 BYTE   W05
 BYTE   BEND   c_v+5
 BYTE   W05
 BYTE   BEND   c_v+5
 BYTE   W05
 BYTE   BEND   c_v+6
 BYTE   W03
//  #01 //010   ----------------------------------------
 BYTE   W02
 BYTE   BEND   c_v+6
 BYTE   W05
 BYTE   BEND   c_v+7
 BYTE   W05
 BYTE   BEND   c_v+7
 BYTE   W05
 BYTE   BEND   c_v+8
 BYTE   W05
 BYTE   BEND   c_v+8
 BYTE   W05
 BYTE   BEND   c_v+9
 BYTE   W05
 BYTE   BEND   c_v+9
 BYTE   W05
 BYTE   BEND   c_v+10
 BYTE   W05
 BYTE   BEND   c_v+10
 BYTE   W05
 BYTE   BEND   c_v+11
 BYTE   W05
 BYTE   BEND   c_v+11
 BYTE   W05
 BYTE   BEND   c_v+12
 BYTE   W05
 BYTE   BEND   c_v+12
 BYTE   W05
 BYTE   BEND   c_v+13
 BYTE   W05
 BYTE   BEND   c_v+13
 BYTE   W05
 BYTE   BEND   c_v+14
 BYTE   W05
 BYTE   BEND   c_v+14
 BYTE   W05
 BYTE   BEND   c_v+15
 BYTE   W05
 BYTE   BEND   c_v+15
 BYTE   W04
//  #01 //011   ----------------------------------------
 BYTE   EOT
Label_0121DA8A:
 BYTE   BEND   c_v+0
 BYTE   N09  Fn2  v100
 BYTE   W12
 BYTE   Fs2
 BYTE   W12
 BYTE   N04  Gs1  v104
 BYTE   W06
 BYTE   N09  Gs1  v092
 BYTE   W12
 BYTE   N04
 BYTE   W06
 BYTE   N09  Gs1  v100
 BYTE   W12
 BYTE   N04
 BYTE   W06
 BYTE   N09
 BYTE   W12
 BYTE   N09
 BYTE   W12
 BYTE   N04  Gs1  v092
 BYTE   W06
//  #01 //012   ----------------------------------------
Label_0121DAAA:
 BYTE   N09  Fn2  v100
 BYTE   W12
 BYTE   Fs2
 BYTE   W12
 BYTE   N04  Gs1  v104
 BYTE   W06
 BYTE   N09  Gs1  v092
 BYTE   W12
 BYTE   N04
 BYTE   W06
 BYTE   N09  Gs1  v100
 BYTE   W12
 BYTE   N04
 BYTE   W06
 BYTE   N09
 BYTE   W12
 BYTE   N09
 BYTE   W12
 BYTE   N04  Gs1  v092
 BYTE   W06
 BYTE   PEND 
//  #01 //013   ----------------------------------------
 BYTE   PATT
  POIN2 Label_0121DAAA
//  #01 //014   ----------------------------------------
Label_0121DACE:
 BYTE   N09  Fn2  v100
 BYTE   W12
 BYTE   Fs2
 BYTE   W12
 BYTE   N04  Gs1
 BYTE   W06
 BYTE   N09  Fs2
 BYTE   W12
 BYTE   N04  Gs1
 BYTE   W06
 BYTE   BEND   c_v-6
 BYTE   N14  Fs2  v104
 BYTE   W01
 BYTE   BEND   c_v-6
 BYTE   W01
 BYTE   BEND   c_v-5
 BYTE   W01
 BYTE   BEND   c_v-4
 BYTE   W01
 BYTE   BEND   c_v-3
 BYTE   W01
 BYTE   BEND   c_v-2
 BYTE   W01
 BYTE   BEND   c_v+0
 BYTE   W12
 BYTE   BEND   c_v-6
 BYTE   N14
 BYTE   W01
 BYTE   BEND   c_v-6
 BYTE   W01
 BYTE   BEND   c_v-6
 BYTE   W01
 BYTE   BEND   c_v-5
 BYTE   W01
 BYTE   BEND   c_v-4
 BYTE   W01
 BYTE   BEND   c_v-2
 BYTE   W01
 BYTE   BEND   c_v+0
 BYTE   W12
 BYTE   N09  Fn2
 BYTE   W12
 BYTE   PEND 
//  #01 //015   ----------------------------------------
 BYTE   PATT
  POIN2 Label_0121DAAA
//  #01 //016   ----------------------------------------
 BYTE   PATT
  POIN2 Label_0121DAAA
//  #01 //017   ----------------------------------------
 BYTE   PATT
  POIN2 Label_0121DAAA
//  #01 //018   ----------------------------------------
 BYTE   PATT
  POIN2 Label_0121DACE
//  #01 //019   ----------------------------------------
Label_0121DB18:
 BYTE   N09  Fn2  v116
 BYTE   W12
 BYTE   Fs2
 BYTE   W12
 BYTE   N04  Gs1  v127
 BYTE   W06
 BYTE   N09  Gs1  v112
 BYTE   W12
 BYTE   N04
 BYTE   W06
 BYTE   N09  Gs1  v116
 BYTE   W12
 BYTE   N04
 BYTE   W06
 BYTE   N09
 BYTE   W12
 BYTE   N09
 BYTE   W12
 BYTE   N04  Gs1  v112
 BYTE   W06
 BYTE   PEND 
//  #01 //020   ----------------------------------------
 BYTE   PATT
  POIN2 Label_0121DB18
//  #01 //021   ----------------------------------------
 BYTE   PATT
  POIN2 Label_0121DB18
//  #01 //022   ----------------------------------------
Label_0121DB41:
 BYTE   N09  Fn2  v116
 BYTE   W12
 BYTE   Fs2
 BYTE   W12
 BYTE   N04  Gs1
 BYTE   W06
 BYTE   N09  Fs2
 BYTE   W12
 BYTE   N04  Gs1
 BYTE   W06
 BYTE   N14  Fs2  v127
 BYTE   W18
 BYTE   N14
 BYTE   W18
 BYTE   N09  Fn2
 BYTE   W12
 BYTE   PEND 
//  #01 //023   ----------------------------------------
 BYTE   PATT
  POIN2 Label_0121DB18
//  #01 //024   ----------------------------------------
 BYTE   PATT
  POIN2 Label_0121DB18
//  #01 //025   ----------------------------------------
 BYTE   PATT
  POIN2 Label_0121DB18
//  #01 //026   ----------------------------------------
 BYTE   PATT
  POIN2 Label_0121DB41
//  #01 //027   ----------------------------------------
 BYTE   N04  Fs1  v127
 BYTE   W06
 BYTE   Bn1
 BYTE   W06
 BYTE   Cn2
 BYTE   W06
 BYTE   BEND   c_v-8
 BYTE   N09  Cs2  v124
 BYTE   W01
 BYTE   BEND   c_v-8
 BYTE   W01
 BYTE   BEND   c_v-7
 BYTE   W01
 BYTE   BEND   c_v-6
 BYTE   W01
 BYTE   BEND   c_v-5
 BYTE   W01
 BYTE   BEND   c_v-3
 BYTE   W01
 BYTE   BEND   c_v+0
 BYTE   W06
 BYTE   N04  Cs1  v127
 BYTE   W06
 BYTE   Fs1
 BYTE   W06
 BYTE   Bn1
 BYTE   W06
 BYTE   Cn2
 BYTE   W06
 BYTE   N09  Cs2  v124
 BYTE   W12
 BYTE   N04  Cs1
 BYTE   W06
 BYTE   Gn1  v127
 BYTE   W06
 BYTE   Fs1
 BYTE   W06
 BYTE   En1  v124
 BYTE   W06
 BYTE   Cs1
 BYTE   W06
//  #01 //028   ----------------------------------------
 BYTE   Fs1
 BYTE   W06
 BYTE   Fn1  v127
 BYTE   W06
 BYTE   Fs1
 BYTE   W06
 BYTE   BEND   c_v-8
 BYTE   N09  En1  v124
 BYTE   W01
 BYTE   BEND   c_v-8
 BYTE   W01
 BYTE   BEND   c_v-7
 BYTE   W01
 BYTE   BEND   c_v-6
 BYTE   W01
 BYTE   BEND   c_v-5
 BYTE   W01
 BYTE   BEND   c_v-3
 BYTE   W01
 BYTE   BEND   c_v+0
 BYTE   W06
 BYTE   N04  Cs1
 BYTE   W06
 BYTE   Fs1
 BYTE   W06
 BYTE   Fn1  v127
 BYTE   W06
 BYTE   Fs1
 BYTE   W06
 BYTE   BEND   c_v-8
 BYTE   N09  En1
 BYTE   W01
 BYTE   BEND   c_v-8
 BYTE   W01
 BYTE   BEND   c_v-7
 BYTE   W01
 BYTE   BEND   c_v-6
 BYTE   W01
 BYTE   BEND   c_v-5
 BYTE   W01
 BYTE   BEND   c_v-3
 BYTE   W01
 BYTE   BEND   c_v+0
 BYTE   W06
 BYTE   N04  Cs1  v124
 BYTE   W06
 BYTE   En1
 BYTE   W06
 BYTE   Fs1
 BYTE   W06
 BYTE   Gn1  v127
 BYTE   W06
 BYTE   Cs2  v124
 BYTE   W06
//  #01 //029   ----------------------------------------
 BYTE   Fs1
 BYTE   W06
 BYTE   Bn1
 BYTE   W06
 BYTE   Cn2  v127
 BYTE   W06
 BYTE   BEND   c_v-8
 BYTE   N09  Cs2  v124
 BYTE   W01
 BYTE   BEND   c_v-8
 BYTE   W01
 BYTE   BEND   c_v-7
 BYTE   W01
 BYTE   BEND   c_v-6
 BYTE   W01
 BYTE   BEND   c_v-5
 BYTE   W01
 BYTE   BEND   c_v-3
 BYTE   W01
 BYTE   BEND   c_v+0
 BYTE   W06
 BYTE   N04  Cs1  v127
 BYTE   W06
 BYTE   Fs1
 BYTE   W06
 BYTE   Bn1  v124
 BYTE   W06
 BYTE   Cn2  v127
 BYTE   W06
 BYTE   N09  Cs2
 BYTE   W12
 BYTE   N04  Cs1
 BYTE   W06
 BYTE   Gn1  v124
 BYTE   W06
 BYTE   Fs1  v127
 BYTE   W06
 BYTE   En1
 BYTE   W06
 BYTE   Cs1
 BYTE   W06
//  #01 //030   ----------------------------------------
 BYTE   Fs1  v124
 BYTE   W06
 BYTE   Fn1  v127
 BYTE   W06
 BYTE   Fs1
 BYTE   W06
 BYTE   BEND   c_v-8
 BYTE   N09  En1
 BYTE   W01
 BYTE   BEND   c_v-8
 BYTE   W01
 BYTE   BEND   c_v-7
 BYTE   W01
 BYTE   BEND   c_v-6
 BYTE   W01
 BYTE   BEND   c_v-5
 BYTE   W01
 BYTE   BEND   c_v-3
 BYTE   W01
 BYTE   BEND   c_v+0
 BYTE   W06
 BYTE   N04  Cs1  v124
 BYTE   W06
 BYTE   Fs1  v127
 BYTE   W06
 BYTE   Fn1
 BYTE   W06
 BYTE   Fs1  v124
 BYTE   W06
 BYTE   BEND   c_v-8
 BYTE   N09  En1  v127
 BYTE   W01
 BYTE   BEND   c_v-8
 BYTE   W01
 BYTE   BEND   c_v-7
 BYTE   W01
 BYTE   BEND   c_v-6
 BYTE   W01
 BYTE   BEND   c_v-5
 BYTE   W01
 BYTE   BEND   c_v-3
 BYTE   W01
 BYTE   BEND   c_v+0
 BYTE   W06
 BYTE   N04  Cs1  v124
 BYTE   W06
 BYTE   En1
 BYTE   W06
 BYTE   Fs1
 BYTE   W06
 BYTE   Gn1  v127
 BYTE   W06
 BYTE   Gs1  v124
 BYTE   W06
//  #01 //031   ----------------------------------------
 BYTE   W24
 BYTE   BEND   c_v-8
 BYTE   TIE  Cs4  v116
 BYTE   W01
 BYTE   BEND   c_v-8
 BYTE   W01
 BYTE   BEND   c_v-8
 BYTE   W01
 BYTE   BEND   c_v-8
 BYTE   W01
 BYTE   BEND   c_v-7
 BYTE   W01
 BYTE   BEND   c_v-7
 BYTE   W01
 BYTE   BEND   c_v-6
 BYTE   W01
 BYTE   BEND   c_v-6
 BYTE   W01
 BYTE   BEND   c_v-5
 BYTE   W01
 BYTE   BEND   c_v-4
 BYTE   W01
 BYTE   BEND   c_v-3
 BYTE   W01
 BYTE   BEND   c_v-2
 BYTE   W01
 BYTE   BEND   c_v+0
 BYTE   W60
//  #01 //032   ----------------------------------------
 BYTE   W96
//  #01 //033   ----------------------------------------
 BYTE   BEND   c_v-1
 BYTE   W02
 BYTE   BEND   c_v-1
 BYTE   W02
 BYTE   BEND   c_v-2
 BYTE   W01
 BYTE   BEND   c_v-2
 BYTE   W02
 BYTE   BEND   c_v-2
 BYTE   W01
 BYTE   BEND   c_v-3
 BYTE   W02
 BYTE   BEND   c_v-3
 BYTE   W01
 BYTE   BEND   c_v-4
 BYTE   W01
 BYTE   BEND   c_v-4
 BYTE   W01
 BYTE   BEND   c_v-4
 BYTE   W01
 BYTE   BEND   c_v-5
 BYTE   W01
 BYTE   BEND   c_v-5
 BYTE   W01
 BYTE   BEND   c_v-6
 BYTE   W01
 BYTE   BEND   c_v-6
 BYTE   W01
 BYTE   BEND   c_v-7
 BYTE   W01
 BYTE   BEND   c_v-7
 BYTE   W01
 BYTE   BEND   c_v-8
 BYTE   W01
 BYTE   BEND   c_v-9
 BYTE   W01
 BYTE   BEND   c_v-10
 BYTE   W01
 BYTE   BEND   c_v-11
 BYTE   W01
 BYTE   EOT
 BYTE   BEND   c_v-11
 BYTE   W72
//  #01 //034   ----------------------------------------
 BYTE   W96
//  #01 //035   ----------------------------------------
 BYTE   W96
//  #01 //036   ----------------------------------------
Label_0121DCB4:
 BYTE   W24
 BYTE   BEND   c_v-8
 BYTE   N96  Fs4  v116
 BYTE   W01
 BYTE   BEND   c_v-8
 BYTE   W01
 BYTE   BEND   c_v-8
 BYTE   W01
 BYTE   BEND   c_v-8
 BYTE   W01
 BYTE   BEND   c_v-7
 BYTE   W01
 BYTE   BEND   c_v-7
 BYTE   W01
 BYTE   BEND   c_v-6
 BYTE   W01
 BYTE   BEND   c_v-6
 BYTE   W01
 BYTE   BEND   c_v-5
 BYTE   W01
 BYTE   BEND   c_v-4
 BYTE   W01
 BYTE   BEND   c_v-3
 BYTE   W01
 BYTE   BEND   c_v-2
 BYTE   W01
 BYTE   BEND   c_v+0
 BYTE   W60
 BYTE   PEND 
//  #01 //037   ----------------------------------------
Label_0121DCD5:
 BYTE   W24
 BYTE   BEND   c_v-8
 BYTE   N96  Fn4  v116
 BYTE   W01
 BYTE   BEND   c_v-8
 BYTE   W01
 BYTE   BEND   c_v-8
 BYTE   W01
 BYTE   BEND   c_v-8
 BYTE   W01
 BYTE   BEND   c_v-7
 BYTE   W01
 BYTE   BEND   c_v-7
 BYTE   W01
 BYTE   BEND   c_v-6
 BYTE   W01
 BYTE   BEND   c_v-6
 BYTE   W01
 BYTE   BEND   c_v-5
 BYTE   W01
 BYTE   BEND   c_v-4
 BYTE   W01
 BYTE   BEND   c_v-3
 BYTE   W01
 BYTE   BEND   c_v-2
 BYTE   W01
 BYTE   BEND   c_v+0
 BYTE   W60
 BYTE   PEND 
//  #01 //038   ----------------------------------------
Label_0121DCF6:
 BYTE   W24
 BYTE   BEND   c_v-8
 BYTE   TIE  En4  v116
 BYTE   W01
 BYTE   BEND   c_v-8
 BYTE   W01
 BYTE   BEND   c_v-8
 BYTE   W01
 BYTE   BEND   c_v-8
 BYTE   W01
 BYTE   BEND   c_v-7
 BYTE   W01
 BYTE   BEND   c_v-7
 BYTE   W01
 BYTE   BEND   c_v-6
 BYTE   W01
 BYTE   BEND   c_v-6
 BYTE   W01
 BYTE   BEND   c_v-5
 BYTE   W01
 BYTE   BEND   c_v-4
 BYTE   W01
 BYTE   BEND   c_v-3
 BYTE   W01
 BYTE   BEND   c_v-2
 BYTE   W01
 BYTE   BEND   c_v+0
 BYTE   W60
 BYTE   PEND 
//  #01 //039   ----------------------------------------
 BYTE   W96
//  #01 //040   ----------------------------------------
 BYTE   EOT
//  #01 //041   ----------------------------------------
 BYTE   PATT
  POIN2 Label_0121DCB4
//  #01 //042   ----------------------------------------
 BYTE   PATT
  POIN2 Label_0121DCD5
//  #01 //043   ----------------------------------------
 BYTE   PATT
  POIN2 Label_0121DCF6
//  #01 //044   ----------------------------------------
 BYTE   W96
//  #01 //045   ----------------------------------------
 BYTE   EOT
 BYTE   En4
 BYTE   W96
//  #01 //046   ----------------------------------------
Label_0121DD2C:
 BYTE   BEND   c_v+0
 BYTE   N96  Bn2  v124
 BYTE   W01
 BYTE   BEND   c_v+1
 BYTE   W01
 BYTE   BEND   c_v+2
 BYTE   W01
 BYTE   BEND   c_v+3
 BYTE   W01
 BYTE   BEND   c_v+4
 BYTE   W01
 BYTE   BEND   c_v+7
 BYTE   W01
 BYTE   BEND   c_v+10
 BYTE   W88
 BYTE   W01
 BYTE   BEND   c_v+0
 BYTE   W01
 BYTE   PEND 
//  #01 //047   ----------------------------------------
Label_0121DD43:
 BYTE   BEND   c_v+0
 BYTE   N96  Cn3  v127
 BYTE   W01
 BYTE   BEND   c_v+1
 BYTE   W01
 BYTE   BEND   c_v+2
 BYTE   W01
 BYTE   BEND   c_v+3
 BYTE   W01
 BYTE   BEND   c_v+4
 BYTE   W01
 BYTE   BEND   c_v+7
 BYTE   W01
 BYTE   BEND   c_v+10
 BYTE   W90
 BYTE   PEND 
//  #01 //048   ----------------------------------------
Label_0121DD57:
 BYTE   BEND   c_v+0
 BYTE   N96  Dn3  v116
 BYTE   W01
 BYTE   BEND   c_v+1
 BYTE   W01
 BYTE   BEND   c_v+2
 BYTE   W01
 BYTE   BEND   c_v+3
 BYTE   W01
 BYTE   BEND   c_v+4
 BYTE   W01
 BYTE   BEND   c_v+7
 BYTE   W01
 BYTE   BEND   c_v+10
 BYTE   W90
 BYTE   PEND 
//  #01 //049   ----------------------------------------
Label_0121DD6B:
 BYTE   BEND   c_v+0
 BYTE   N96  Cn3  v124
 BYTE   W01
 BYTE   BEND   c_v+1
 BYTE   W01
 BYTE   BEND   c_v+2
 BYTE   W01
 BYTE   BEND   c_v+3
 BYTE   W01
 BYTE   BEND   c_v+4
 BYTE   W01
 BYTE   BEND   c_v+7
 BYTE   W01
 BYTE   BEND   c_v+10
 BYTE   W78
 BYTE   BEND   c_v+10
 BYTE   W01
 BYTE   BEND   c_v+10
 BYTE   W01
 BYTE   BEND   c_v+9
 BYTE   W01
 BYTE   BEND   c_v+9
 BYTE   W01
 BYTE   BEND   c_v+8
 BYTE   W01
 BYTE   BEND   c_v+8
 BYTE   W01
 BYTE   BEND   c_v+7
 BYTE   W01
 BYTE   BEND   c_v+6
 BYTE   W01
 BYTE   BEND   c_v+5
 BYTE   W01
 BYTE   BEND   c_v+4
 BYTE   W01
 BYTE   BEND   c_v+3
 BYTE   W01
 BYTE   BEND   c_v+1
 BYTE   W01
 BYTE   PEND 
//  #01 //050   ----------------------------------------
 BYTE   PATT
  POIN2 Label_0121DD2C
//  #01 //051   ----------------------------------------
 BYTE   PATT
  POIN2 Label_0121DD43
//  #01 //052   ----------------------------------------
 BYTE   PATT
  POIN2 Label_0121DD57
//  #01 //053   ----------------------------------------
 BYTE   PATT
  POIN2 Label_0121DD6B
//  #01 //054   ----------------------------------------
 BYTE   BEND   c_v+0
 BYTE   N04  Cs4  v060
 BYTE   W04
 BYTE   N02  Cs4  v020
 BYTE   W02
 BYTE   N04  Cs4  v060
 BYTE   W04
 BYTE   N02  Cs4  v020
 BYTE   W02
 BYTE   N04  Dn4  v060
 BYTE   W04
 BYTE   N02  Cs4  v020
 BYTE   W02
 BYTE   N04  Cs4  v060
 BYTE   W04
 BYTE   N02  Dn4  v020
 BYTE   W02
 BYTE   N04  Cs5  v060
 BYTE   W04
 BYTE   N02  Cs4  v020
 BYTE   W02
 BYTE   N04  Cs4  v060
 BYTE   W04
 BYTE   N02  Cs5  v020
 BYTE   W02
 BYTE   N04  Dn4  v060
 BYTE   W04
 BYTE   N02  Cs4  v020
 BYTE   W02
 BYTE   N04  Fs4  v060
 BYTE   W04
 BYTE   N02  Dn4  v020
 BYTE   W02
 BYTE   N04  Dn4  v060
 BYTE   W04
 BYTE   N02  Fs4  v020
 BYTE   W02
 BYTE   N04  Cs4  v060
 BYTE   W04
 BYTE   N02  Dn4  v020
 BYTE   W02
 BYTE   N04  Dn4  v060
 BYTE   W04
 BYTE   N02  Cs4  v020
 BYTE   W02
 BYTE   N04  Cs4  v060
 BYTE   W04
 BYTE   N02  Dn4  v020
 BYTE   W02
 BYTE   N04  Bn4  v060
 BYTE   W04
 BYTE   N02  Cs4  v020
 BYTE   W02
 BYTE   N04  Cs4  v060
 BYTE   W04
 BYTE   N02  Bn4  v020
 BYTE   W02
 BYTE   N04  Dn4  v060
 BYTE   W04
 BYTE   N02  Cs4  v020
 BYTE   W02
 BYTE   N04  Cs4  v060
 BYTE   W04
 BYTE   N02  Dn4  v020
 BYTE   W02
//  #01 //055   ----------------------------------------
 BYTE   N04  Cs4  v060
 BYTE   W04
 BYTE   N02  Cs4  v020
 BYTE   W02
 BYTE   N04  Cs5  v060
 BYTE   W04
 BYTE   N02  Cs4  v020
 BYTE   W02
 BYTE   N04  Dn4  v060
 BYTE   W04
 BYTE   N02  Cs5  v020
 BYTE   W02
 BYTE   N04  Cs4  v060
 BYTE   W04
 BYTE   N02  Dn4  v020
 BYTE   W02
 BYTE   N04  Fs4  v060
 BYTE   W04
 BYTE   N02  Cs4  v020
 BYTE   W02
 BYTE   N04  Cs4  v060
 BYTE   W04
 BYTE   N02  Fs4  v020
 BYTE   W02
 BYTE   N04  Dn4  v060
 BYTE   W04
 BYTE   N02  Cs4  v020
 BYTE   W02
 BYTE   N04  Cs4  v060
 BYTE   W04
 BYTE   N02  Dn4  v020
 BYTE   W02
 BYTE   N04  Bn4  v060
 BYTE   W04
 BYTE   N02  Cs4  v020
 BYTE   W02
 BYTE   N04  Cs4  v060
 BYTE   W04
 BYTE   N02  Bn4  v020
 BYTE   W02
 BYTE   N04  Dn4  v060
 BYTE   W04
 BYTE   N02  Cs4  v020
 BYTE   W02
 BYTE   N04  Bn3  v060
 BYTE   N04  Bn4
 BYTE   W04
 BYTE   N02  Dn4  v020
 BYTE   W02
 BYTE   N04  Dn4  v060
 BYTE   W04
 BYTE   N02  Bn3  v020
 BYTE   N02  Bn4
 BYTE   W02
 BYTE   N04  Cs4  v060
 BYTE   W04
 BYTE   N02  Dn4  v020
 BYTE   W02
 BYTE   N04  Cs5  v060
 BYTE   W04
 BYTE   N02  Cs4  v020
 BYTE   W02
 BYTE   N04  Cs4  v060
 BYTE   W04
 BYTE   N02  Cs5  v020
 BYTE   W02
//  #01 //056   ----------------------------------------
 BYTE   N04  Cs4  v060
 BYTE   W04
 BYTE   N02  Cs4  v020
 BYTE   W02
 BYTE   N04  Cs4  v060
 BYTE   W04
 BYTE   N02  Cs4  v020
 BYTE   W02
 BYTE   N04  Dn4  v060
 BYTE   W04
 BYTE   N02  Cs4  v020
 BYTE   W02
 BYTE   N04  Cs4  v060
 BYTE   W04
 BYTE   N02  Dn4  v020
 BYTE   W02
 BYTE   N04  Cs5  v060
 BYTE   W04
 BYTE   N02  Cs4  v020
 BYTE   W02
 BYTE   N04  Cs4  v060
 BYTE   W04
 BYTE   N02  Cs5  v020
 BYTE   W02
 BYTE   N04  Dn4  v060
 BYTE   W04
 BYTE   N02  Cs4  v020
 BYTE   W02
 BYTE   N04  Fs4  v060
 BYTE   W04
 BYTE   N02  Dn4  v020
 BYTE   W02
 BYTE   N04  Dn4  v060
 BYTE   W04
 BYTE   N02  Fs4  v020
 BYTE   W02
 BYTE   N04  Cs4  v060
 BYTE   W04
 BYTE   N02  Dn4  v020
 BYTE   W02
 BYTE   N04  Dn4  v060
 BYTE   W04
 BYTE   N02  Cs4  v020
 BYTE   W02
 BYTE   N04  Cs4  v060
 BYTE   W04
 BYTE   N02  Dn4  v020
 BYTE   W02
 BYTE   N04  Bn4  v060
 BYTE   W04
 BYTE   N02  Cs4  v020
 BYTE   W02
 BYTE   N04  Cs4  v060
 BYTE   W04
 BYTE   N02  Bn4  v020
 BYTE   W02
 BYTE   N04  Dn4  v060
 BYTE   W04
 BYTE   N02  Cs4  v020
 BYTE   W02
 BYTE   N04  Cs4  v060
 BYTE   W04
 BYTE   N02  Dn4  v020
 BYTE   W02
//  #01 //057   ----------------------------------------
 BYTE   N04  Cs4  v060
 BYTE   W04
 BYTE   N02  Cs4  v020
 BYTE   W02
 BYTE   N04  Cs5  v060
 BYTE   W04
 BYTE   N02  Cs4  v020
 BYTE   W02
 BYTE   N04  Dn4  v060
 BYTE   W04
 BYTE   N02  Cs5  v020
 BYTE   W02
 BYTE   N04  Cs4  v060
 BYTE   W04
 BYTE   N02  Dn4  v020
 BYTE   W02
 BYTE   N04  Fs4  v060
 BYTE   W04
 BYTE   N02  Cs4  v020
 BYTE   W02
 BYTE   N04  Cs4  v060
 BYTE   W04
 BYTE   N02  Fs4  v020
 BYTE   W02
 BYTE   N04  Dn4  v060
 BYTE   W04
 BYTE   N02  Cs4  v020
 BYTE   W02
 BYTE   N04  Cs4  v060
 BYTE   W04
 BYTE   N02  Dn4  v020
 BYTE   W02
 BYTE   N04  Bn4  v060
 BYTE   W04
 BYTE   N02  Cs4  v020
 BYTE   W02
 BYTE   N04  Cs4  v060
 BYTE   W04
 BYTE   N02  Bn4  v020
 BYTE   W02
 BYTE   N04  Dn4  v060
 BYTE   W04
 BYTE   N02  Cs4  v020
 BYTE   W02
 BYTE   N04  Bn4  v060
 BYTE   W04
 BYTE   N02  Dn4  v020
 BYTE   W02
 BYTE   N04  Dn4  v060
 BYTE   W04
 BYTE   N02  Bn4  v020
 BYTE   W02
 BYTE   N04  Cs4  v060
 BYTE   W04
 BYTE   N02  Dn4  v020
 BYTE   W02
 BYTE   N04  Cs5  v060
 BYTE   W04
 BYTE   N02  Cs4  v020
 BYTE   W02
 BYTE   N04  Cs4  v060
 BYTE   W06
//  #01 //058   ----------------------------------------
 BYTE   GoTo
  POIN2 Label_0121DA8A
 BYTE   FINE

//**************** Track 2 (Midi-Chn.1) ****************//

GuiltyGearXAdvanceVenomsThemeMeatOfJustice_002:
//  #02 //000   ----------------------------------------
 BYTE   KEYSH   GuiltyGearXAdvanceVenomsThemeMeatOfJustice_key+0
 BYTE   VOICE   30
 BYTE   MODT 0
 BYTE   LFOS 44
 BYTE   PAN   c_v+0
 BYTE   BENDR  12
 BYTE   VOL   48*GuiltyGearXAdvanceVenomsThemeMeatOfJustice_mvl/mxv
 BYTE   BEND   c_v+0
 BYTE   W96
//  #02 //001   ----------------------------------------
 BYTE   W96
//  #02 //002   ----------------------------------------
 BYTE   W96
//  #02 //003   ----------------------------------------
 BYTE   VOL   84*GuiltyGearXAdvanceVenomsThemeMeatOfJustice_mvl/mxv
 BYTE   BEND   c_v+15
 BYTE   TIE  As4  v020
 BYTE   W04
 BYTE   BEND   c_v+15
 BYTE   W04
 BYTE   BEND   c_v+15
 BYTE   W04
 BYTE   BEND   c_v+14
 BYTE   W04
 BYTE   BEND   c_v+14
 BYTE   W04
 BYTE   BEND   c_v+14
 BYTE   W04
 BYTE   BEND   c_v+13
 BYTE   W04
 BYTE   BEND   c_v+13
 BYTE   W04
 BYTE   BEND   c_v+12
 BYTE   W04
 BYTE   BEND   c_v+12
 BYTE   W04
 BYTE   BEND   c_v+12
 BYTE   W04
 BYTE   BEND   c_v+11
 BYTE   W04
 BYTE   BEND   c_v+11
 BYTE   W04
 BYTE   BEND   c_v+10
 BYTE   W04
 BYTE   BEND   c_v+10
 BYTE   W04
 BYTE   BEND   c_v+10
 BYTE   W04
 BYTE   BEND   c_v+9
 BYTE   W04
 BYTE   BEND   c_v+9
 BYTE   W04
 BYTE   BEND   c_v+9
 BYTE   W04
 BYTE   BEND   c_v+8
 BYTE   W04
 BYTE   BEND   c_v+8
 BYTE   W04
 BYTE   BEND   c_v+7
 BYTE   W04
 BYTE   BEND   c_v+7
 BYTE   W04
 BYTE   BEND   c_v+7
 BYTE   W04
//  #02 //004   ----------------------------------------
 BYTE   BEND   c_v+6
 BYTE   W04
 BYTE   BEND   c_v+6
 BYTE   W04
 BYTE   BEND   c_v+5
 BYTE   W04
 BYTE   BEND   c_v+5
 BYTE   W04
 BYTE   BEND   c_v+5
 BYTE   W04
 BYTE   BEND   c_v+4
 BYTE   W04
 BYTE   BEND   c_v+4
 BYTE   W04
 BYTE   BEND   c_v+4
 BYTE   W04
 BYTE   BEND   c_v+3
 BYTE   W04
 BYTE   BEND   c_v+3
 BYTE   W04
 BYTE   BEND   c_v+2
 BYTE   W04
 BYTE   BEND   c_v+2
 BYTE   W04
 BYTE   BEND   c_v+2
 BYTE   W04
 BYTE   BEND   c_v+1
 BYTE   W04
 BYTE   BEND   c_v+1
 BYTE   W04
 BYTE   BEND   c_v+0
 BYTE   W04
 BYTE   BEND   c_v+0
 BYTE   W04
 BYTE   BEND   c_v+0
 BYTE   W04
 BYTE   BEND   c_v-1
 BYTE   W04
 BYTE   BEND   c_v-1
 BYTE   W04
 BYTE   BEND   c_v-1
 BYTE   W04
 BYTE   BEND   c_v-2
 BYTE   W04
 BYTE   BEND   c_v-2
 BYTE   W04
 BYTE   BEND   c_v-3
 BYTE   W04
//  #02 //005   ----------------------------------------
 BYTE   BEND   c_v-3
 BYTE   W04
 BYTE   BEND   c_v-3
 BYTE   W04
 BYTE   BEND   c_v-4
 BYTE   W04
 BYTE   BEND   c_v-4
 BYTE   W04
 BYTE   BEND   c_v-5
 BYTE   W04
 BYTE   BEND   c_v-5
 BYTE   W04
 BYTE   BEND   c_v-5
 BYTE   W04
 BYTE   BEND   c_v-6
 BYTE   W04
 BYTE   BEND   c_v-6
 BYTE   W04
 BYTE   BEND   c_v-7
 BYTE   W04
 BYTE   BEND   c_v-7
 BYTE   W04
 BYTE   BEND   c_v-7
 BYTE   W04
 BYTE   BEND   c_v-8
 BYTE   W04
 BYTE   BEND   c_v-8
 BYTE   W04
 BYTE   BEND   c_v-8
 BYTE   W04
 BYTE   BEND   c_v-9
 BYTE   W04
 BYTE   BEND   c_v-9
 BYTE   W04
 BYTE   BEND   c_v-10
 BYTE   W04
 BYTE   BEND   c_v-10
 BYTE   W04
 BYTE   BEND   c_v-10
 BYTE   W04
 BYTE   BEND   c_v-11
 BYTE   W04
 BYTE   BEND   c_v-11
 BYTE   W04
 BYTE   BEND   c_v-12
 BYTE   W04
 BYTE   BEND   c_v-12
 BYTE   W04
//  #02 //006   ----------------------------------------
 BYTE   BEND   c_v-12
 BYTE   W04
 BYTE   BEND   c_v-13
 BYTE   W04
 BYTE   BEND   c_v-13
 BYTE   W04
 BYTE   BEND   c_v-13
 BYTE   W04
 BYTE   BEND   c_v-14
 BYTE   W04
 BYTE   BEND   c_v-14
 BYTE   W04
 BYTE   BEND   c_v-15
 BYTE   W04
 BYTE   BEND   c_v-15
 BYTE   W04
 BYTE   BEND   c_v-15
 BYTE   W04
 BYTE   BEND   c_v-16
 BYTE   W04
 BYTE   BEND   c_v-16
 BYTE   W04
 BYTE   BEND   c_v-17
 BYTE   W04
 BYTE   BEND   c_v-17
 BYTE   W04
 BYTE   BEND   c_v-17
 BYTE   W04
 BYTE   BEND   c_v-18
 BYTE   W04
 BYTE   BEND   c_v-18
 BYTE   W04
 BYTE   BEND   c_v-18
 BYTE   W04
 BYTE   BEND   c_v-19
 BYTE   W04
 BYTE   BEND   c_v-19
 BYTE   W04
 BYTE   BEND   c_v-20
 BYTE   W04
 BYTE   BEND   c_v-20
 BYTE   W04
 BYTE   BEND   c_v-20
 BYTE   W04
 BYTE   BEND   c_v-21
 BYTE   W04
 BYTE   BEND   c_v-21
 BYTE   W04
//  #02 //007   ----------------------------------------
 BYTE   EOT
 BYTE   TIE
 BYTE   W04
 BYTE   BEND   c_v-21
 BYTE   W04
 BYTE   BEND   c_v-21
 BYTE   W04
 BYTE   BEND   c_v-20
 BYTE   W04
 BYTE   BEND   c_v-20
 BYTE   W04
 BYTE   BEND   c_v-20
 BYTE   W04
 BYTE   BEND   c_v-19
 BYTE   W04
 BYTE   BEND   c_v-19
 BYTE   W04
 BYTE   BEND   c_v-18
 BYTE   W04
 BYTE   BEND   c_v-18
 BYTE   W04
 BYTE   BEND   c_v-18
 BYTE   W04
 BYTE   BEND   c_v-17
 BYTE   W04
 BYTE   BEND   c_v-17
 BYTE   W04
 BYTE   BEND   c_v-17
 BYTE   W04
 BYTE   BEND   c_v-16
 BYTE   W04
 BYTE   BEND   c_v-16
 BYTE   W04
 BYTE   BEND   c_v-15
 BYTE   W04
 BYTE   BEND   c_v-15
 BYTE   W04
 BYTE   BEND   c_v-15
 BYTE   W04
 BYTE   BEND   c_v-14
 BYTE   W04
 BYTE   BEND   c_v-14
 BYTE   W04
 BYTE   BEND   c_v-13
 BYTE   W04
 BYTE   BEND   c_v-13
 BYTE   W04
 BYTE   BEND   c_v-13
 BYTE   W04
//  #02 //008   ----------------------------------------
 BYTE   BEND   c_v-12
 BYTE   W04
 BYTE   BEND   c_v-12
 BYTE   W04
 BYTE   BEND   c_v-12
 BYTE   W04
 BYTE   BEND   c_v-11
 BYTE   W04
 BYTE   BEND   c_v-11
 BYTE   W04
 BYTE   BEND   c_v-10
 BYTE   W04
 BYTE   BEND   c_v-10
 BYTE   W04
 BYTE   BEND   c_v-10
 BYTE   W04
 BYTE   BEND   c_v-9
 BYTE   W04
 BYTE   BEND   c_v-9
 BYTE   W04
 BYTE   BEND   c_v-8
 BYTE   W04
 BYTE   BEND   c_v-8
 BYTE   W04
 BYTE   BEND   c_v-8
 BYTE   W04
 BYTE   BEND   c_v-7
 BYTE   W04
 BYTE   BEND   c_v-7
 BYTE   W04
 BYTE   BEND   c_v-7
 BYTE   W04
 BYTE   BEND   c_v-6
 BYTE   W04
 BYTE   BEND   c_v-6
 BYTE   W04
 BYTE   BEND   c_v-5
 BYTE   W04
 BYTE   BEND   c_v-5
 BYTE   W04
 BYTE   BEND   c_v-5
 BYTE   W04
 BYTE   BEND   c_v-4
 BYTE   W04
 BYTE   BEND   c_v-4
 BYTE   W04
 BYTE   BEND   c_v-3
 BYTE   W04
//  #02 //009   ----------------------------------------
 BYTE   BEND   c_v-3
 BYTE   W04
 BYTE   BEND   c_v-3
 BYTE   W04
 BYTE   BEND   c_v-2
 BYTE   W04
 BYTE   BEND   c_v-2
 BYTE   W04
 BYTE   BEND   c_v-1
 BYTE   W04
 BYTE   BEND   c_v-1
 BYTE   W04
 BYTE   BEND   c_v-1
 BYTE   W04
 BYTE   BEND   c_v+0
 BYTE   W04
 BYTE   BEND   c_v+0
 BYTE   W04
 BYTE   BEND   c_v+0
 BYTE   W04
 BYTE   BEND   c_v+1
 BYTE   W04
 BYTE   BEND   c_v+1
 BYTE   W04
 BYTE   BEND   c_v+2
 BYTE   W04
 BYTE   BEND   c_v+2
 BYTE   W04
 BYTE   BEND   c_v+2
 BYTE   W04
 BYTE   BEND   c_v+3
 BYTE   W04
 BYTE   BEND   c_v+3
 BYTE   W04
 BYTE   BEND   c_v+4
 BYTE   W04
 BYTE   BEND   c_v+4
 BYTE   W04
 BYTE   BEND   c_v+4
 BYTE   W04
 BYTE   BEND   c_v+5
 BYTE   W04
 BYTE   BEND   c_v+5
 BYTE   W04
 BYTE   BEND   c_v+5
 BYTE   W04
 BYTE   BEND   c_v+6
 BYTE   W04
//  #02 //010   ----------------------------------------
 BYTE   BEND   c_v+6
 BYTE   W04
 BYTE   BEND   c_v+7
 BYTE   W04
 BYTE   BEND   c_v+7
 BYTE   W04
 BYTE   BEND   c_v+7
 BYTE   W04
 BYTE   BEND   c_v+8
 BYTE   W04
 BYTE   BEND   c_v+8
 BYTE   W04
 BYTE   BEND   c_v+9
 BYTE   W04
 BYTE   BEND   c_v+9
 BYTE   W04
 BYTE   BEND   c_v+9
 BYTE   W04
 BYTE   BEND   c_v+10
 BYTE   W04
 BYTE   BEND   c_v+10
 BYTE   W04
 BYTE   BEND   c_v+10
 BYTE   W04
 BYTE   BEND   c_v+11
 BYTE   W04
 BYTE   BEND   c_v+11
 BYTE   W04
 BYTE   BEND   c_v+12
 BYTE   W04
 BYTE   BEND   c_v+12
 BYTE   W04
 BYTE   BEND   c_v+12
 BYTE   W04
 BYTE   BEND   c_v+13
 BYTE   W04
 BYTE   BEND   c_v+13
 BYTE   W04
 BYTE   BEND   c_v+14
 BYTE   W04
 BYTE   BEND   c_v+14
 BYTE   W04
 BYTE   BEND   c_v+14
 BYTE   W04
 BYTE   BEND   c_v+15
 BYTE   W04
 BYTE   BEND   c_v+15
 BYTE   W04
//  #02 //011   ----------------------------------------
 BYTE   EOT
Label_0123803D:
 BYTE   VOL   84*GuiltyGearXAdvanceVenomsThemeMeatOfJustice_mvl/mxv
 BYTE   BEND   c_v+0
 BYTE   N09  As2  v116
 BYTE   W12
 BYTE   Bn2
 BYTE   W12
 BYTE   N04  Cs2  v127
 BYTE   W06
 BYTE   N09  Cs2  v112
 BYTE   W12
 BYTE   N04
 BYTE   W06
 BYTE   N09  Cs2  v116
 BYTE   W12
 BYTE   N04
 BYTE   W06
 BYTE   N09
 BYTE   W12
 BYTE   N09
 BYTE   W12
 BYTE   N04  Cs2  v112
 BYTE   W06
//  #02 //012   ----------------------------------------
Label_0123805F:
 BYTE   N09  As2  v116
 BYTE   W12
 BYTE   Bn2
 BYTE   W12
 BYTE   N04  Cs2  v127
 BYTE   W06
 BYTE   N09  Cs2  v112
 BYTE   W12
 BYTE   N04
 BYTE   W06
 BYTE   N09  Cs2  v116
 BYTE   W12
 BYTE   N04
 BYTE   W06
 BYTE   N09
 BYTE   W12
 BYTE   N09
 BYTE   W12
 BYTE   N04  Cs2  v112
 BYTE   W06
 BYTE   PEND 
//  #02 //013   ----------------------------------------
 BYTE   PATT
  POIN2 Label_0123805F
//  #02 //014   ----------------------------------------
Label_01238083:
 BYTE   N09  As2  v116
 BYTE   W12
 BYTE   Bn2
 BYTE   W12
 BYTE   N04  Cs2
 BYTE   W06
 BYTE   N09  Bn2  v124
 BYTE   W12
 BYTE   N04  Cs2  v116
 BYTE   W06
 BYTE   BEND   c_v-6
 BYTE   N14  Fs3  v127
 BYTE   W01
 BYTE   BEND   c_v-6
 BYTE   W01
 BYTE   BEND   c_v-5
 BYTE   W01
 BYTE   BEND   c_v-4
 BYTE   W01
 BYTE   BEND   c_v-3
 BYTE   W01
 BYTE   BEND   c_v-2
 BYTE   W01
 BYTE   BEND   c_v+0
 BYTE   W12
 BYTE   BEND   c_v-6
 BYTE   N14
 BYTE   W01
 BYTE   BEND   c_v-6
 BYTE   W01
 BYTE   BEND   c_v-6
 BYTE   W01
 BYTE   BEND   c_v-5
 BYTE   W01
 BYTE   BEND   c_v-4
 BYTE   W01
 BYTE   BEND   c_v-2
 BYTE   W01
 BYTE   BEND   c_v+0
 BYTE   W12
 BYTE   N09  Fn3
 BYTE   W12
 BYTE   PEND 
//  #02 //015   ----------------------------------------
 BYTE   PATT
  POIN2 Label_0123805F
//  #02 //016   ----------------------------------------
 BYTE   PATT
  POIN2 Label_0123805F
//  #02 //017   ----------------------------------------
 BYTE   PATT
  POIN2 Label_0123805F
//  #02 //018   ----------------------------------------
 BYTE   PATT
  POIN2 Label_01238083
//  #02 //019   ----------------------------------------
 BYTE   VOL   61*GuiltyGearXAdvanceVenomsThemeMeatOfJustice_mvl/mxv
 BYTE   N09  As2  v116
 BYTE   W12
 BYTE   Bn2
 BYTE   W12
 BYTE   N04  Cs2  v127
 BYTE   W06
 BYTE   N09  Cs2  v112
 BYTE   W12
 BYTE   N04
 BYTE   W06
 BYTE   N09  Cs2  v116
 BYTE   W12
 BYTE   N04
 BYTE   W06
 BYTE   N09
 BYTE   W12
 BYTE   N09
 BYTE   W12
 BYTE   N04  Cs2  v112
 BYTE   W06
//  #02 //020   ----------------------------------------
 BYTE   PATT
  POIN2 Label_0123805F
//  #02 //021   ----------------------------------------
 BYTE   PATT
  POIN2 Label_0123805F
//  #02 //022   ----------------------------------------
 BYTE   PATT
  POIN2 Label_01238083
//  #02 //023   ----------------------------------------
 BYTE   PATT
  POIN2 Label_0123805F
//  #02 //024   ----------------------------------------
 BYTE   PATT
  POIN2 Label_0123805F
//  #02 //025   ----------------------------------------
 BYTE   PATT
  POIN2 Label_0123805F
//  #02 //026   ----------------------------------------
 BYTE   PATT
  POIN2 Label_01238083
//  #02 //027   ----------------------------------------
 BYTE   N04  Fs2  v127
 BYTE   W06
 BYTE   Bn2
 BYTE   W06
 BYTE   Cn3
 BYTE   W06
 BYTE   BEND   c_v-8
 BYTE   N09  Cs3  v124
 BYTE   W01
 BYTE   BEND   c_v-8
 BYTE   W01
 BYTE   BEND   c_v-7
 BYTE   W01
 BYTE   BEND   c_v-6
 BYTE   W01
 BYTE   BEND   c_v-5
 BYTE   W01
 BYTE   BEND   c_v-3
 BYTE   W01
 BYTE   BEND   c_v+0
 BYTE   W06
 BYTE   N04  Cs2  v127
 BYTE   W06
 BYTE   Fs2
 BYTE   W06
 BYTE   Bn2
 BYTE   W06
 BYTE   Cn3
 BYTE   W06
 BYTE   N09  Cs3  v124
 BYTE   W12
 BYTE   N04  Cs2
 BYTE   W06
 BYTE   Gn2  v127
 BYTE   W06
 BYTE   Fs2
 BYTE   W06
 BYTE   En2  v124
 BYTE   W06
 BYTE   Cs2
 BYTE   W06
//  #02 //028   ----------------------------------------
 BYTE   Fs2
 BYTE   W06
 BYTE   Fn2  v127
 BYTE   W06
 BYTE   Fs2
 BYTE   W06
 BYTE   BEND   c_v-8
 BYTE   N09  En2  v124
 BYTE   W01
 BYTE   BEND   c_v-8
 BYTE   W01
 BYTE   BEND   c_v-7
 BYTE   W01
 BYTE   BEND   c_v-6
 BYTE   W01
 BYTE   BEND   c_v-5
 BYTE   W01
 BYTE   BEND   c_v-3
 BYTE   W01
 BYTE   BEND   c_v+0
 BYTE   W06
 BYTE   N04  Cs2
 BYTE   W06
 BYTE   Fs2
 BYTE   W06
 BYTE   Fn2  v127
 BYTE   W06
 BYTE   Fs2
 BYTE   W06
 BYTE   BEND   c_v-8
 BYTE   N09  En2
 BYTE   W01
 BYTE   BEND   c_v-8
 BYTE   W01
 BYTE   BEND   c_v-7
 BYTE   W01
 BYTE   BEND   c_v-6
 BYTE   W01
 BYTE   BEND   c_v-5
 BYTE   W01
 BYTE   BEND   c_v-3
 BYTE   W01
 BYTE   BEND   c_v+0
 BYTE   W06
 BYTE   N04  Cs2  v124
 BYTE   W06
 BYTE   En2
 BYTE   W06
 BYTE   Fs2
 BYTE   W06
 BYTE   Gn2  v127
 BYTE   W06
 BYTE   Cs3  v124
 BYTE   W06
//  #02 //029   ----------------------------------------
 BYTE   Fs2
 BYTE   W06
 BYTE   Bn2
 BYTE   W06
 BYTE   Cn3  v127
 BYTE   W06
 BYTE   BEND   c_v-8
 BYTE   N09  Cs3  v124
 BYTE   W01
 BYTE   BEND   c_v-8
 BYTE   W01
 BYTE   BEND   c_v-7
 BYTE   W01
 BYTE   BEND   c_v-6
 BYTE   W01
 BYTE   BEND   c_v-5
 BYTE   W01
 BYTE   BEND   c_v-3
 BYTE   W01
 BYTE   BEND   c_v+0
 BYTE   W06
 BYTE   N04  Cs2  v127
 BYTE   W06
 BYTE   Fs2
 BYTE   W06
 BYTE   Bn2  v124
 BYTE   W06
 BYTE   Cn3  v127
 BYTE   W06
 BYTE   N09  Cs3
 BYTE   W12
 BYTE   N04  Cs2
 BYTE   W06
 BYTE   Gn2  v124
 BYTE   W06
 BYTE   Fs2  v127
 BYTE   W06
 BYTE   En2
 BYTE   W06
 BYTE   Cs2
 BYTE   W06
//  #02 //030   ----------------------------------------
 BYTE   Fs2  v124
 BYTE   W06
 BYTE   Fn2  v127
 BYTE   W06
 BYTE   Fs2
 BYTE   W06
 BYTE   BEND   c_v-8
 BYTE   N09  En2
 BYTE   W01
 BYTE   BEND   c_v-8
 BYTE   W01
 BYTE   BEND   c_v-7
 BYTE   W01
 BYTE   BEND   c_v-6
 BYTE   W01
 BYTE   BEND   c_v-5
 BYTE   W01
 BYTE   BEND   c_v-3
 BYTE   W01
 BYTE   BEND   c_v+0
 BYTE   W06
 BYTE   N04  Cs2  v124
 BYTE   W06
 BYTE   Fs2  v127
 BYTE   W06
 BYTE   Fn2
 BYTE   W06
 BYTE   Fs2  v124
 BYTE   W06
 BYTE   BEND   c_v-8
 BYTE   N09  En2  v127
 BYTE   W01
 BYTE   BEND   c_v-8
 BYTE   W01
 BYTE   BEND   c_v-7
 BYTE   W01
 BYTE   BEND   c_v-6
 BYTE   W01
 BYTE   BEND   c_v-5
 BYTE   W01
 BYTE   BEND   c_v-3
 BYTE   W01
 BYTE   BEND   c_v+0
 BYTE   W06
 BYTE   N04  Cs2  v124
 BYTE   W06
 BYTE   En2
 BYTE   W06
 BYTE   Fs2
 BYTE   W06
 BYTE   Gn2  v127
 BYTE   W06
 BYTE   Gs2  v124
 BYTE   W06
//  #02 //031   ----------------------------------------
 BYTE   BEND   c_v-8
 BYTE   TIE  Fs3  v116
 BYTE   W01
 BYTE   BEND   c_v-8
 BYTE   W01
 BYTE   BEND   c_v-8
 BYTE   W01
 BYTE   BEND   c_v-8
 BYTE   W01
 BYTE   BEND   c_v-7
 BYTE   W01
 BYTE   BEND   c_v-7
 BYTE   W01
 BYTE   BEND   c_v-6
 BYTE   W01
 BYTE   BEND   c_v-6
 BYTE   W01
 BYTE   BEND   c_v-5
 BYTE   W01
 BYTE   BEND   c_v-4
 BYTE   W01
 BYTE   BEND   c_v-3
 BYTE   W01
 BYTE   BEND   c_v-2
 BYTE   W01
 BYTE   BEND   c_v+0
 BYTE   W84
//  #02 //032   ----------------------------------------
 BYTE   W72
 BYTE   BEND   c_v-1
 BYTE   W02
 BYTE   BEND   c_v-1
 BYTE   W02
 BYTE   BEND   c_v-2
 BYTE   W01
 BYTE   BEND   c_v-2
 BYTE   W02
 BYTE   BEND   c_v-2
 BYTE   W01
 BYTE   BEND   c_v-3
 BYTE   W02
 BYTE   BEND   c_v-3
 BYTE   W01
 BYTE   BEND   c_v-4
 BYTE   W01
 BYTE   BEND   c_v-4
 BYTE   W01
 BYTE   BEND   c_v-4
 BYTE   W01
 BYTE   BEND   c_v-5
 BYTE   W01
 BYTE   BEND   c_v-5
 BYTE   W01
 BYTE   BEND   c_v-6
 BYTE   W01
 BYTE   BEND   c_v-6
 BYTE   W01
 BYTE   BEND   c_v-7
 BYTE   W01
 BYTE   BEND   c_v-7
 BYTE   W01
 BYTE   BEND   c_v-8
 BYTE   W01
 BYTE   BEND   c_v-9
 BYTE   W01
 BYTE   BEND   c_v-10
 BYTE   W01
 BYTE   BEND   c_v-11
 BYTE   W01
//  #02 //033   ----------------------------------------
 BYTE   EOT
 BYTE   BEND   c_v-11
 BYTE   W96
//  #02 //034   ----------------------------------------
 BYTE   BEND   c_v+0
 BYTE   N12  Cs2
 BYTE   W12
 BYTE   N06
 BYTE   W06
 BYTE   Cs2  v112
 BYTE   W06
 BYTE   Cs3  v124
 BYTE   W06
 BYTE   N12  Cs2  v116
 BYTE   W12
 BYTE   N06  Cs2  v112
 BYTE   W06
 BYTE   N12  Cs2  v116
 BYTE   W12
 BYTE   N06
 BYTE   W06
 BYTE   Cs2  v112
 BYTE   W06
 BYTE   Cs3  v127
 BYTE   W06
 BYTE   N12  Cs2  v116
 BYTE   W12
 BYTE   N06
 BYTE   W06
//  #02 //035   ----------------------------------------
 BYTE   N12
 BYTE   W12
 BYTE   N06  Cs2  v112
 BYTE   W06
 BYTE   N06
 BYTE   W06
 BYTE   Cs3  v124
 BYTE   W06
 BYTE   N12  Cs2  v116
 BYTE   W12
 BYTE   N06
 BYTE   W06
 BYTE   Cs3  v127
 BYTE   W06
 BYTE   N12  Cs2  v116
 BYTE   W12
 BYTE   N06
 BYTE   W06
 BYTE   BEND   c_v-6
 BYTE   N24  En2  v124
 BYTE   W01
 BYTE   BEND   c_v-6
 BYTE   W01
 BYTE   BEND   c_v-5
 BYTE   W01
 BYTE   BEND   c_v-5
 BYTE   W01
 BYTE   BEND   c_v-4
 BYTE   W01
 BYTE   BEND   c_v-2
 BYTE   W01
 BYTE   BEND   c_v+0
 BYTE   W18
//  #02 //036   ----------------------------------------
 BYTE   BEND   c_v-8
 BYTE   N96  Fs3
 BYTE   W01
 BYTE   BEND   c_v-8
 BYTE   W01
 BYTE   BEND   c_v-8
 BYTE   W01
 BYTE   BEND   c_v-8
 BYTE   W01
 BYTE   BEND   c_v-7
 BYTE   W01
 BYTE   BEND   c_v-7
 BYTE   W01
 BYTE   BEND   c_v-6
 BYTE   W01
 BYTE   BEND   c_v-6
 BYTE   W01
 BYTE   BEND   c_v-5
 BYTE   W01
 BYTE   BEND   c_v-4
 BYTE   W01
 BYTE   BEND   c_v-3
 BYTE   W01
 BYTE   BEND   c_v-2
 BYTE   W01
 BYTE   BEND   c_v+0
 BYTE   W84
//  #02 //037   ----------------------------------------
 BYTE   BEND   c_v-8
 BYTE   N96  Fn3  v127
 BYTE   W01
 BYTE   BEND   c_v-8
 BYTE   W01
 BYTE   BEND   c_v-8
 BYTE   W01
 BYTE   BEND   c_v-8
 BYTE   W01
 BYTE   BEND   c_v-7
 BYTE   W01
 BYTE   BEND   c_v-7
 BYTE   W01
 BYTE   BEND   c_v-6
 BYTE   W01
 BYTE   BEND   c_v-6
 BYTE   W01
 BYTE   BEND   c_v-5
 BYTE   W01
 BYTE   BEND   c_v-4
 BYTE   W01
 BYTE   BEND   c_v-3
 BYTE   W01
 BYTE   BEND   c_v-2
 BYTE   W01
 BYTE   BEND   c_v+0
 BYTE   W84
//  #02 //038   ----------------------------------------
 BYTE   BEND   c_v-8
 BYTE   N48  En3  v116
 BYTE   W01
 BYTE   BEND   c_v-8
 BYTE   W01
 BYTE   BEND   c_v-8
 BYTE   W01
 BYTE   BEND   c_v-8
 BYTE   W01
 BYTE   BEND   c_v-7
 BYTE   W01
 BYTE   BEND   c_v-7
 BYTE   W01
 BYTE   BEND   c_v-6
 BYTE   W01
 BYTE   BEND   c_v-6
 BYTE   W01
 BYTE   BEND   c_v-5
 BYTE   W01
 BYTE   BEND   c_v-4
 BYTE   W01
 BYTE   BEND   c_v-3
 BYTE   W01
 BYTE   BEND   c_v-2
 BYTE   W01
 BYTE   BEND   c_v+0
 BYTE   W36
 BYTE   N06  Cs4
 BYTE   W06
 BYTE   En4
 BYTE   W06
 BYTE   Gs4
 BYTE   W06
 BYTE   Cs4
 BYTE   W06
 BYTE   En4
 BYTE   W06
 BYTE   An4
 BYTE   W06
 BYTE   Cs4
 BYTE   W06
 BYTE   En4
 BYTE   W06
//  #02 //039   ----------------------------------------
 BYTE   Gs4
 BYTE   W06
 BYTE   Cs4
 BYTE   W06
 BYTE   En4
 BYTE   W06
 BYTE   An4
 BYTE   W06
 BYTE   Cs4
 BYTE   W06
 BYTE   En4
 BYTE   W06
 BYTE   Gs4
 BYTE   W06
 BYTE   Cs4
 BYTE   W06
 BYTE   Cs5
 BYTE   W06
 BYTE   Cs4
 BYTE   W06
 BYTE   En4
 BYTE   W06
 BYTE   Bn4
 BYTE   W06
 BYTE   Cs4
 BYTE   W06
 BYTE   En4
 BYTE   W06
 BYTE   As4
 BYTE   W06
 BYTE   Cs4
 BYTE   W06
//  #02 //040   ----------------------------------------
 BYTE   BEND   c_v-8
 BYTE   N96  Fs3
 BYTE   W01
 BYTE   BEND   c_v-8
 BYTE   W01
 BYTE   BEND   c_v-8
 BYTE   W01
 BYTE   BEND   c_v-8
 BYTE   W01
 BYTE   BEND   c_v-7
 BYTE   W01
 BYTE   BEND   c_v-7
 BYTE   W01
 BYTE   BEND   c_v-6
 BYTE   W01
 BYTE   BEND   c_v-6
 BYTE   W01
 BYTE   BEND   c_v-5
 BYTE   W01
 BYTE   BEND   c_v-4
 BYTE   W01
 BYTE   BEND   c_v-3
 BYTE   W01
 BYTE   BEND   c_v-2
 BYTE   W01
 BYTE   BEND   c_v+0
 BYTE   W84
//  #02 //041   ----------------------------------------
 BYTE   BEND   c_v-8
 BYTE   N96  Fn3
 BYTE   W01
 BYTE   BEND   c_v-8
 BYTE   W01
 BYTE   BEND   c_v-8
 BYTE   W01
 BYTE   BEND   c_v-8
 BYTE   W01
 BYTE   BEND   c_v-7
 BYTE   W01
 BYTE   BEND   c_v-7
 BYTE   W01
 BYTE   BEND   c_v-6
 BYTE   W01
 BYTE   BEND   c_v-6
 BYTE   W01
 BYTE   BEND   c_v-5
 BYTE   W01
 BYTE   BEND   c_v-4
 BYTE   W01
 BYTE   BEND   c_v-3
 BYTE   W01
 BYTE   BEND   c_v-2
 BYTE   W01
 BYTE   BEND   c_v+0
 BYTE   W84
//  #02 //042   ----------------------------------------
 BYTE   BEND   c_v-8
 BYTE   N48  En3  v124
 BYTE   W01
 BYTE   BEND   c_v-8
 BYTE   W01
 BYTE   BEND   c_v-8
 BYTE   W01
 BYTE   BEND   c_v-8
 BYTE   W01
 BYTE   BEND   c_v-7
 BYTE   W01
 BYTE   BEND   c_v-7
 BYTE   W01
 BYTE   BEND   c_v-6
 BYTE   W01
 BYTE   BEND   c_v-6
 BYTE   W01
 BYTE   BEND   c_v-5
 BYTE   W01
 BYTE   BEND   c_v-4
 BYTE   W01
 BYTE   BEND   c_v-3
 BYTE   W01
 BYTE   BEND   c_v-2
 BYTE   W01
 BYTE   BEND   c_v+0
 BYTE   W36
 BYTE   N06  Cs4  v116
 BYTE   W06
 BYTE   En4
 BYTE   W06
 BYTE   Fs4
 BYTE   W06
 BYTE   Cs4
 BYTE   W06
 BYTE   En4
 BYTE   W06
 BYTE   Gs4
 BYTE   W06
 BYTE   Cs4
 BYTE   W06
 BYTE   En4
 BYTE   W06
//  #02 //043   ----------------------------------------
 BYTE   Fs4
 BYTE   W06
 BYTE   Cs4
 BYTE   W06
 BYTE   En4
 BYTE   W06
 BYTE   Gs4
 BYTE   W06
 BYTE   Cs4
 BYTE   W06
 BYTE   En4
 BYTE   W06
 BYTE   Fs4
 BYTE   W06
 BYTE   Cs4
 BYTE   W06
 BYTE   Gs4
 BYTE   W06
 BYTE   Cs4
 BYTE   W06
 BYTE   En4
 BYTE   W06
 BYTE   Bn4
 BYTE   W06
 BYTE   Cs4
 BYTE   W06
 BYTE   En4
 BYTE   W06
 BYTE   Cs5
 BYTE   W06
 BYTE   Gs4
 BYTE   W06
//  #02 //044   ----------------------------------------
 BYTE   N96  Cs5  v124
 BYTE   W84
 BYTE   BEND   c_v-1
 BYTE   W01
 BYTE   BEND   c_v-1
 BYTE   W01
 BYTE   BEND   c_v-2
 BYTE   W01
 BYTE   BEND   c_v-2
 BYTE   W01
 BYTE   BEND   c_v-3
 BYTE   W01
 BYTE   BEND   c_v-3
 BYTE   W01
 BYTE   BEND   c_v-4
 BYTE   W01
 BYTE   BEND   c_v-5
 BYTE   W01
 BYTE   BEND   c_v-6
 BYTE   W01
 BYTE   BEND   c_v-7
 BYTE   W01
 BYTE   BEND   c_v-9
 BYTE   W01
 BYTE   BEND   c_v+0
 BYTE   W01
//  #02 //045   ----------------------------------------
Label_012383DA:
 BYTE   BEND   c_v+0
 BYTE   N96  Fs3  v116
 BYTE   W01
 BYTE   BEND   c_v+1
 BYTE   W01
 BYTE   BEND   c_v+2
 BYTE   W01
 BYTE   BEND   c_v+3
 BYTE   W01
 BYTE   BEND   c_v+4
 BYTE   W01
 BYTE   BEND   c_v+7
 BYTE   W01
 BYTE   BEND   c_v+10
 BYTE   W88
 BYTE   W01
 BYTE   BEND   c_v+0
 BYTE   W01
 BYTE   PEND 
//  #02 //046   ----------------------------------------
Label_012383F1:
 BYTE   BEND   c_v+0
 BYTE   N96  Gn3  v116
 BYTE   W01
 BYTE   BEND   c_v+1
 BYTE   W01
 BYTE   BEND   c_v+2
 BYTE   W01
 BYTE   BEND   c_v+3
 BYTE   W01
 BYTE   BEND   c_v+4
 BYTE   W01
 BYTE   BEND   c_v+7
 BYTE   W01
 BYTE   BEND   c_v+10
 BYTE   W90
 BYTE   PEND 
//  #02 //047   ----------------------------------------
Label_01238405:
 BYTE   BEND   c_v+0
 BYTE   N96  An3  v116
 BYTE   W01
 BYTE   BEND   c_v+1
 BYTE   W01
 BYTE   BEND   c_v+2
 BYTE   W01
 BYTE   BEND   c_v+3
 BYTE   W01
 BYTE   BEND   c_v+4
 BYTE   W01
 BYTE   BEND   c_v+7
 BYTE   W01
 BYTE   BEND   c_v+10
 BYTE   W90
 BYTE   PEND 
//  #02 //048   ----------------------------------------
Label_01238419:
 BYTE   BEND   c_v+0
 BYTE   N96  Gn3  v116
 BYTE   W01
 BYTE   BEND   c_v+1
 BYTE   W01
 BYTE   BEND   c_v+2
 BYTE   W01
 BYTE   BEND   c_v+3
 BYTE   W01
 BYTE   BEND   c_v+4
 BYTE   W01
 BYTE   BEND   c_v+7
 BYTE   W01
 BYTE   BEND   c_v+10
 BYTE   W78
 BYTE   BEND   c_v+10
 BYTE   W01
 BYTE   BEND   c_v+10
 BYTE   W01
 BYTE   BEND   c_v+9
 BYTE   W01
 BYTE   BEND   c_v+9
 BYTE   W01
 BYTE   BEND   c_v+8
 BYTE   W01
 BYTE   BEND   c_v+8
 BYTE   W01
 BYTE   BEND   c_v+7
 BYTE   W01
 BYTE   BEND   c_v+6
 BYTE   W01
 BYTE   BEND   c_v+5
 BYTE   W01
 BYTE   BEND   c_v+4
 BYTE   W01
 BYTE   BEND   c_v+3
 BYTE   W01
 BYTE   BEND   c_v+1
 BYTE   W01
 BYTE   PEND 
//  #02 //049   ----------------------------------------
 BYTE   PATT
  POIN2 Label_012383DA
//  #02 //050   ----------------------------------------
 BYTE   PATT
  POIN2 Label_012383F1
//  #02 //051   ----------------------------------------
 BYTE   PATT
  POIN2 Label_01238405
//  #02 //052   ----------------------------------------
 BYTE   PATT
  POIN2 Label_01238419
//  #02 //053   ----------------------------------------
 BYTE   BEND   c_v+0
 BYTE   N04  Cs3  v124
 BYTE   W04
 BYTE   N02  Cs3  v020
 BYTE   W02
 BYTE   N04  Cs3  v127
 BYTE   W04
 BYTE   N02  Cs3  v020
 BYTE   W02
 BYTE   N04  Dn3  v124
 BYTE   W04
 BYTE   N02  Cs3  v020
 BYTE   W02
 BYTE   N04  Cs3  v127
 BYTE   W04
 BYTE   N02  Dn3  v020
 BYTE   W02
 BYTE   N04  Cs4  v127
 BYTE   W04
 BYTE   N02  Cs3  v020
 BYTE   W02
 BYTE   N04  Cs3  v124
 BYTE   W04
 BYTE   N02  Cs4  v020
 BYTE   W02
 BYTE   N04  Dn3  v124
 BYTE   W04
 BYTE   N02  Cs3  v020
 BYTE   W02
 BYTE   N04  Fs3  v116
 BYTE   W04
 BYTE   N02  Dn3  v020
 BYTE   W02
 BYTE   N04  Dn3  v124
 BYTE   W04
 BYTE   N02  Fs3  v020
 BYTE   W02
 BYTE   N04  Cs3  v127
 BYTE   W04
 BYTE   N02  Dn3  v020
 BYTE   W02
 BYTE   N04  Dn3  v127
 BYTE   W04
 BYTE   N02  Cs3  v020
 BYTE   W02
 BYTE   N04  Cs3  v124
 BYTE   W04
 BYTE   N02  Dn3  v020
 BYTE   W02
 BYTE   N04  Bn3  v127
 BYTE   W04
 BYTE   N02  Cs3  v020
 BYTE   W02
 BYTE   N04  Cs3  v116
 BYTE   W04
 BYTE   N02  Bn3  v020
 BYTE   W02
 BYTE   N04  Dn3  v116
 BYTE   W04
 BYTE   N02  Cs3  v020
 BYTE   W02
 BYTE   N04  Cs3  v124
 BYTE   W04
 BYTE   N02  Dn3  v020
 BYTE   W02
//  #02 //054   ----------------------------------------
 BYTE   N04  Cs3  v124
 BYTE   W04
 BYTE   N02  Cs3  v020
 BYTE   W02
 BYTE   N04  Cs4  v124
 BYTE   W04
 BYTE   N02  Cs3  v020
 BYTE   W02
 BYTE   N04  Dn3  v127
 BYTE   W04
 BYTE   N02  Cs4  v020
 BYTE   W02
 BYTE   N04  Cs3  v127
 BYTE   W04
 BYTE   N02  Dn3  v020
 BYTE   W02
 BYTE   N04  Fs3  v127
 BYTE   W04
 BYTE   N02  Cs3  v020
 BYTE   W02
 BYTE   N04  Cs3  v127
 BYTE   W04
 BYTE   N02  Fs3  v020
 BYTE   W02
 BYTE   N04  Dn3  v124
 BYTE   W04
 BYTE   N02  Cs3  v020
 BYTE   W02
 BYTE   N04  Cs3  v124
 BYTE   W04
 BYTE   N02  Dn3  v020
 BYTE   W02
 BYTE   N04  Bn3  v127
 BYTE   W04
 BYTE   N02  Cs3  v020
 BYTE   W02
 BYTE   N04  Cs3  v127
 BYTE   W04
 BYTE   N02  Bn3  v020
 BYTE   W02
 BYTE   N04  Dn3  v124
 BYTE   W04
 BYTE   N02  Cs3  v020
 BYTE   W02
 BYTE   N04  Bn2  v124
 BYTE   N04  Bn3  v127
 BYTE   W04
 BYTE   N02  Dn3  v020
 BYTE   W02
 BYTE   N04  Dn3  v124
 BYTE   W04
 BYTE   N02  Bn2  v020
 BYTE   N02  Bn3
 BYTE   W02
 BYTE   N04  Cs3  v127
 BYTE   W04
 BYTE   N02  Dn3  v020
 BYTE   W02
 BYTE   N04  Cs4  v124
 BYTE   W04
 BYTE   N02  Cs3  v020
 BYTE   W02
 BYTE   N04  Cs3  v124
 BYTE   W04
 BYTE   N02  Cs4  v020
 BYTE   W02
//  #02 //055   ----------------------------------------
 BYTE   N04  Cs3  v124
 BYTE   W04
 BYTE   N02  Cs3  v020
 BYTE   W02
 BYTE   N04  Cs3  v127
 BYTE   W04
 BYTE   N02  Cs3  v020
 BYTE   W02
 BYTE   N04  Dn3  v127
 BYTE   W04
 BYTE   N02  Cs3  v020
 BYTE   W02
 BYTE   N04  Cs3  v124
 BYTE   W04
 BYTE   N02  Dn3  v020
 BYTE   W02
 BYTE   N04  Cs4  v124
 BYTE   W04
 BYTE   N02  Cs3  v020
 BYTE   W02
 BYTE   N04  Cs3  v124
 BYTE   W04
 BYTE   N02  Cs4  v020
 BYTE   W02
 BYTE   N04  Dn3  v127
 BYTE   W04
 BYTE   N02  Cs3  v020
 BYTE   W02
 BYTE   N04  Fs3  v124
 BYTE   W04
 BYTE   N02  Dn3  v020
 BYTE   W02
 BYTE   N04  Dn3  v124
 BYTE   W04
 BYTE   N02  Fs3  v020
 BYTE   W02
 BYTE   N04  Cs3  v124
 BYTE   W04
 BYTE   N02  Dn3  v020
 BYTE   W02
 BYTE   N04  Dn3  v124
 BYTE   W04
 BYTE   N02  Cs3  v020
 BYTE   W02
 BYTE   N04  Cs3  v124
 BYTE   W04
 BYTE   N02  Dn3  v020
 BYTE   W02
 BYTE   N04  Bn3  v116
 BYTE   W04
 BYTE   N02  Cs3  v020
 BYTE   W02
 BYTE   N04  Cs3  v124
 BYTE   W04
 BYTE   N02  Bn3  v020
 BYTE   W02
 BYTE   N04  Dn3  v124
 BYTE   W04
 BYTE   N02  Cs3  v020
 BYTE   W02
 BYTE   N04  Cs3  v116
 BYTE   W04
 BYTE   N02  Dn3  v020
 BYTE   W02
//  #02 //056   ----------------------------------------
 BYTE   N04  Cs3  v124
 BYTE   W04
 BYTE   N02  Cs3  v020
 BYTE   W02
 BYTE   N04  Cs4  v127
 BYTE   W04
 BYTE   N02  Cs3  v020
 BYTE   W02
 BYTE   N04  Dn3  v124
 BYTE   W04
 BYTE   N02  Cs4  v020
 BYTE   W02
 BYTE   N04  Cs3  v124
 BYTE   W04
 BYTE   N02  Dn3  v020
 BYTE   W02
 BYTE   N04  Fs3  v124
 BYTE   W04
 BYTE   N02  Cs3  v020
 BYTE   W02
 BYTE   N04  Cs3  v127
 BYTE   W04
 BYTE   N02  Fs3  v020
 BYTE   W02
 BYTE   N04  Dn3  v127
 BYTE   W04
 BYTE   N02  Cs3  v020
 BYTE   W02
 BYTE   N04  Cs3  v124
 BYTE   W04
 BYTE   N02  Dn3  v020
 BYTE   W02
 BYTE   N04  Bn3  v127
 BYTE   W04
 BYTE   N02  Cs3  v020
 BYTE   W02
 BYTE   N04  Cs3  v116
 BYTE   W04
 BYTE   N02  Bn3  v020
 BYTE   W02
 BYTE   N04  Dn3  v127
 BYTE   W04
 BYTE   N02  Cs3  v020
 BYTE   W02
 BYTE   N04  Bn3  v124
 BYTE   W04
 BYTE   N02  Dn3  v020
 BYTE   W02
 BYTE   N04  Dn3  v124
 BYTE   W04
 BYTE   N02  Bn3  v020
 BYTE   W02
 BYTE   N04  Cs3  v124
 BYTE   W04
 BYTE   N02  Dn3  v020
 BYTE   W02
 BYTE   N04  Cs4  v124
 BYTE   W04
 BYTE   N02  Cs3  v020
 BYTE   W02
 BYTE   N04  Cs3  v127
 BYTE   W06
//  #02 //057   ----------------------------------------
 BYTE   GoTo
  POIN2 Label_0123803D
 BYTE   FINE

//**************** Track 3 (Midi-Chn.2) ****************//

GuiltyGearXAdvanceVenomsThemeMeatOfJustice_003:
//  #03 //000   ----------------------------------------
 BYTE   KEYSH   GuiltyGearXAdvanceVenomsThemeMeatOfJustice_key+0
 BYTE   VOICE   10
 BYTE   MODT 0
 BYTE   LFOS 44
 BYTE   PAN   c_v+0
 BYTE   BENDR  6
 BYTE   VOL   48*GuiltyGearXAdvanceVenomsThemeMeatOfJustice_mvl/mxv
 BYTE   BEND   c_v+0
 BYTE   N18  Cs2  v127
 BYTE   W01
 BYTE   BEND   c_v+63
 BYTE   W01
 BYTE   BEND   c_v+62
 BYTE   W01
 BYTE   BEND   c_v+61
 BYTE   W01
 BYTE   BEND   c_v+60
 BYTE   W01
 BYTE   BEND   c_v+58
 BYTE   W01
 BYTE   BEND   c_v+55
 BYTE   W01
 BYTE   BEND   c_v+53
 BYTE   W01
 BYTE   BEND   c_v+49
 BYTE   W01
 BYTE   BEND   c_v+46
 BYTE   W01
 BYTE   BEND   c_v+42
 BYTE   W01
 BYTE   BEND   c_v+38
 BYTE   W01
 BYTE   BEND   c_v+33
 BYTE   W01
 BYTE   BEND   c_v+28
 BYTE   W01
 BYTE   BEND   c_v+22
 BYTE   W01
 BYTE   BEND   c_v+16
 BYTE   W01
 BYTE   BEND   c_v+10
 BYTE   W01
 BYTE   BEND   c_v+4
 BYTE   W07
 BYTE   N09
 BYTE   W12
 BYTE   BEND   c_v-62
 BYTE   N14  Fs3
 BYTE   W01
 BYTE   BEND   c_v-62
 BYTE   W01
 BYTE   BEND   c_v-61
 BYTE   W01
 BYTE   BEND   c_v-59
 BYTE   W01
 BYTE   BEND   c_v-56
 BYTE   W01
 BYTE   BEND   c_v-52
 BYTE   W01
 BYTE   BEND   c_v-47
 BYTE   W01
 BYTE   BEND   c_v-41
 BYTE   W01
 BYTE   BEND   c_v-35
 BYTE   W01
 BYTE   BEND   c_v-27
 BYTE   W01
 BYTE   BEND   c_v-19
 BYTE   W01
 BYTE   BEND   c_v-10
 BYTE   W01
 BYTE   BEND   c_v+0
 BYTE   W06
 BYTE   N04
 BYTE   W06
 BYTE   N09  Bn2
 BYTE   W12
 BYTE   As2
 BYTE   W12
 BYTE   An2
 BYTE   W12
//  #03 //001   ----------------------------------------
Label_014DFE68:
 BYTE   N04  Cs2  v127
 BYTE   W06
 BYTE   N04
 BYTE   W06
 BYTE   Dn2
 BYTE   W06
 BYTE   Cs2
 BYTE   W06
 BYTE   Cs3
 BYTE   W06
 BYTE   Cs2
 BYTE   W06
 BYTE   Dn2
 BYTE   W06
 BYTE   Fs2
 BYTE   W06
 BYTE   Dn2
 BYTE   W06
 BYTE   Cs2
 BYTE   W06
 BYTE   Dn2
 BYTE   W06
 BYTE   Cs2
 BYTE   W06
 BYTE   Bn2
 BYTE   W06
 BYTE   Cs2
 BYTE   W06
 BYTE   Dn2
 BYTE   W06
 BYTE   Cs2
 BYTE   W06
 BYTE   PEND 
//  #03 //002   ----------------------------------------
Label_014DFE8B:
 BYTE   N04  Cs2  v127
 BYTE   W06
 BYTE   Cs3
 BYTE   W06
 BYTE   Dn2
 BYTE   W06
 BYTE   Cs2
 BYTE   W06
 BYTE   Fs2
 BYTE   W06
 BYTE   Cs2
 BYTE   W06
 BYTE   Dn2
 BYTE   W06
 BYTE   Cs2
 BYTE   W06
 BYTE   Bn2
 BYTE   W06
 BYTE   Cs2
 BYTE   W06
 BYTE   Dn2
 BYTE   W06
 BYTE   Bn2
 BYTE   W06
 BYTE   Dn2
 BYTE   W06
 BYTE   Cs2
 BYTE   W06
 BYTE   Cs3
 BYTE   W06
 BYTE   Cs2
 BYTE   W06
 BYTE   PEND 
//  #03 //003   ----------------------------------------
 BYTE   PATT
  POIN2 Label_014DFE68
//  #03 //004   ----------------------------------------
 BYTE   PATT
  POIN2 Label_014DFE8B
//  #03 //005   ----------------------------------------
 BYTE   PATT
  POIN2 Label_014DFE68
//  #03 //006   ----------------------------------------
 BYTE   PATT
  POIN2 Label_014DFE8B
//  #03 //007   ----------------------------------------
 BYTE   PATT
  POIN2 Label_014DFE68
//  #03 //008   ----------------------------------------
 BYTE   PATT
  POIN2 Label_014DFE8B
//  #03 //009   ----------------------------------------
 BYTE   PATT
  POIN2 Label_014DFE68
//  #03 //010   ----------------------------------------
 BYTE   PATT
  POIN2 Label_014DFE8B
//  #03 //011   ----------------------------------------
Label_014DFED6:
//  #03 //012   ----------------------------------------
 BYTE   PATT
  POIN2 Label_014DFE68
//  #03 //013   ----------------------------------------
 BYTE   PATT
  POIN2 Label_014DFE8B
//  #03 //014   ----------------------------------------
 BYTE   PATT
  POIN2 Label_014DFE68
//  #03 //015   ----------------------------------------
 BYTE   PATT
  POIN2 Label_014DFE8B
//  #03 //016   ----------------------------------------
 BYTE   PATT
  POIN2 Label_014DFE68
//  #03 //017   ----------------------------------------
 BYTE   PATT
  POIN2 Label_014DFE8B
//  #03 //018   ----------------------------------------
 BYTE   PATT
  POIN2 Label_014DFE68
//  #03 //019   ----------------------------------------
 BYTE   PATT
  POIN2 Label_014DFE8B
//  #03 //020   ----------------------------------------
Label_014DFEFE:
 BYTE   N09  As2  v127
 BYTE   W12
 BYTE   Bn2
 BYTE   W12
 BYTE   N04  Cs2
 BYTE   W06
 BYTE   N09
 BYTE   W12
 BYTE   N04
 BYTE   W06
 BYTE   N09
 BYTE   W12
 BYTE   N04
 BYTE   W06
 BYTE   N09
 BYTE   W12
 BYTE   N09
 BYTE   W12
 BYTE   N04
 BYTE   W06
 BYTE   PEND 
//  #03 //021   ----------------------------------------
 BYTE   PATT
  POIN2 Label_014DFEFE
//  #03 //022   ----------------------------------------
 BYTE   PATT
  POIN2 Label_014DFEFE
//  #03 //023   ----------------------------------------
Label_014DFF20:
 BYTE   N09  As2  v127
 BYTE   W12
 BYTE   Bn2
 BYTE   W12
 BYTE   N04  Cs2
 BYTE   W06
 BYTE   N09  Bn2
 BYTE   W12
 BYTE   N04  Cs2
 BYTE   W06
 BYTE   N14  Fs3
 BYTE   W18
 BYTE   N14
 BYTE   W18
 BYTE   N09  Fn3
 BYTE   W12
 BYTE   PEND 
//  #03 //024   ----------------------------------------
 BYTE   PATT
  POIN2 Label_014DFEFE
//  #03 //025   ----------------------------------------
 BYTE   PATT
  POIN2 Label_014DFEFE
//  #03 //026   ----------------------------------------
 BYTE   PATT
  POIN2 Label_014DFEFE
//  #03 //027   ----------------------------------------
 BYTE   PATT
  POIN2 Label_014DFF20
//  #03 //028   ----------------------------------------
Label_014DFF4C:
 BYTE   N04  Fs2  v127
 BYTE   W06
 BYTE   Bn2
 BYTE   W06
 BYTE   Cn3
 BYTE   W06
 BYTE   N09  Cs3
 BYTE   W12
 BYTE   N04  Cs2
 BYTE   W06
 BYTE   Fs2
 BYTE   W06
 BYTE   Bn2
 BYTE   W06
 BYTE   Cn3
 BYTE   W06
 BYTE   N09  Cs3
 BYTE   W12
 BYTE   N04  Cs2
 BYTE   W06
 BYTE   Gn2
 BYTE   W06
 BYTE   Fs2
 BYTE   W06
 BYTE   En2
 BYTE   W06
 BYTE   Cs2
 BYTE   W06
 BYTE   PEND 
//  #03 //029   ----------------------------------------
 BYTE   Fs2
 BYTE   W06
 BYTE   Fn2
 BYTE   W06
 BYTE   Fs2
 BYTE   W06
 BYTE   N09  En2
 BYTE   W12
 BYTE   N04  Cs2
 BYTE   W06
 BYTE   Fs2
 BYTE   W06
 BYTE   Fn2
 BYTE   W06
 BYTE   Fs2
 BYTE   W06
 BYTE   N09  En2
 BYTE   W12
 BYTE   N04  Cs2
 BYTE   W06
 BYTE   En2
 BYTE   W06
 BYTE   Fs2
 BYTE   W06
 BYTE   Gn2
 BYTE   W06
 BYTE   Cs3
 BYTE   W06
//  #03 //030   ----------------------------------------
 BYTE   PATT
  POIN2 Label_014DFF4C
//  #03 //031   ----------------------------------------
 BYTE   N04  Fs2  v127
 BYTE   W06
 BYTE   Fn2
 BYTE   W06
 BYTE   Fs2
 BYTE   W06
 BYTE   N09  En2
 BYTE   W12
 BYTE   N04  Cs2
 BYTE   W06
 BYTE   Fs2
 BYTE   W06
 BYTE   Fn2
 BYTE   W06
 BYTE   Fs2
 BYTE   W06
 BYTE   N09  En2
 BYTE   W12
 BYTE   N04  Cs2
 BYTE   W06
 BYTE   En2
 BYTE   W06
 BYTE   Fs2
 BYTE   W06
 BYTE   Gn2
 BYTE   W06
 BYTE   Fs2
 BYTE   W06
//  #03 //032   ----------------------------------------
 BYTE   W96
//  #03 //033   ----------------------------------------
Label_014DFFB7:
 BYTE   N09  Cs2  v127
 BYTE   W12
 BYTE   N04
 BYTE   W06
 BYTE   N04
 BYTE   W06
 BYTE   Cs3
 BYTE   W06
 BYTE   N09  Cs2
 BYTE   W12
 BYTE   N04
 BYTE   W06
 BYTE   N09
 BYTE   W12
 BYTE   N04
 BYTE   W06
 BYTE   N04
 BYTE   W06
 BYTE   Cs3
 BYTE   W06
 BYTE   N09  Cs2
 BYTE   W12
 BYTE   N04
 BYTE   W06
 BYTE   PEND 
//  #03 //034   ----------------------------------------
Label_014DFFD4:
 BYTE   N09  Cs2  v127
 BYTE   W12
 BYTE   N04
 BYTE   W06
 BYTE   N04
 BYTE   W06
 BYTE   Cs3
 BYTE   W06
 BYTE   N09  Cs2
 BYTE   W12
 BYTE   N04
 BYTE   W06
 BYTE   N09
 BYTE   W12
 BYTE   N04
 BYTE   W06
 BYTE   N04
 BYTE   W06
 BYTE   N04
 BYTE   W06
 BYTE   N09  Dn2
 BYTE   W12
 BYTE   N04  Cs2
 BYTE   W06
 BYTE   PEND 
//  #03 //035   ----------------------------------------
 BYTE   PATT
  POIN2 Label_014DFFB7
//  #03 //036   ----------------------------------------
Label_014DFFF7:
 BYTE   N09  Cs2  v127
 BYTE   W12
 BYTE   N04
 BYTE   W06
 BYTE   N04
 BYTE   W06
 BYTE   Cs3
 BYTE   W06
 BYTE   N09  Cs2
 BYTE   W12
 BYTE   N04
 BYTE   W06
 BYTE   Cs3
 BYTE   W06
 BYTE   N09  Cs2
 BYTE   W12
 BYTE   N04
 BYTE   W06
 BYTE   N18  En2
 BYTE   W24
 BYTE   PEND 
//  #03 //037   ----------------------------------------
 BYTE   PATT
  POIN2 Label_014DFFB7
//  #03 //038   ----------------------------------------
 BYTE   PATT
  POIN2 Label_014DFFD4
//  #03 //039   ----------------------------------------
 BYTE   PATT
  POIN2 Label_014DFFB7
//  #03 //040   ----------------------------------------
 BYTE   PATT
  POIN2 Label_014DFFF7
//  #03 //041   ----------------------------------------
 BYTE   PATT
  POIN2 Label_014DFFB7
//  #03 //042   ----------------------------------------
 BYTE   PATT
  POIN2 Label_014DFFD4
//  #03 //043   ----------------------------------------
 BYTE   PATT
  POIN2 Label_014DFFB7
//  #03 //044   ----------------------------------------
 BYTE   PATT
  POIN2 Label_014DFFF7
//  #03 //045   ----------------------------------------
 BYTE   N14  Fs2  v127
 BYTE   W18
 BYTE   N04  En2
 BYTE   W06
 BYTE   N09  Fs2
 BYTE   W12
 BYTE   N04  En2
 BYTE   W06
 BYTE   N09  Gs2
 BYTE   W12
 BYTE   N09
 BYTE   W12
 BYTE   N04
 BYTE   W06
 BYTE   N18  Cs3
 BYTE   W24
//  #03 //046   ----------------------------------------
Label_014E0050:
 BYTE   N09  Cs2  v127
 BYTE   W12
 BYTE   N04
 BYTE   W06
 BYTE   N04
 BYTE   W06
 BYTE   N09
 BYTE   W12
 BYTE   N04
 BYTE   W06
 BYTE   N09
 BYTE   W12
 BYTE   N04
 BYTE   W06
 BYTE   N09
 BYTE   W12
 BYTE   N09
 BYTE   W12
 BYTE   N04
 BYTE   W06
 BYTE   N04
 BYTE   W06
 BYTE   PEND 
//  #03 //047   ----------------------------------------
 BYTE   PATT
  POIN2 Label_014E0050
//  #03 //048   ----------------------------------------
 BYTE   PATT
  POIN2 Label_014E0050
//  #03 //049   ----------------------------------------
 BYTE   PATT
  POIN2 Label_014E0050
//  #03 //050   ----------------------------------------
 BYTE   PATT
  POIN2 Label_014E0050
//  #03 //051   ----------------------------------------
 BYTE   PATT
  POIN2 Label_014E0050
//  #03 //052   ----------------------------------------
 BYTE   PATT
  POIN2 Label_014E0050
//  #03 //053   ----------------------------------------
 BYTE   PATT
  POIN2 Label_014E0050
//  #03 //054   ----------------------------------------
 BYTE   PATT
  POIN2 Label_014DFE68
//  #03 //055   ----------------------------------------
 BYTE   PATT
  POIN2 Label_014DFE8B
//  #03 //056   ----------------------------------------
 BYTE   PATT
  POIN2 Label_014DFE68
//  #03 //057   ----------------------------------------
 BYTE   PATT
  POIN2 Label_014DFE8B
//  #03 //058   ----------------------------------------
 BYTE   GoTo
  POIN2 Label_014DFED6
 BYTE   FINE

//**************** Track 4 (Midi-Chn.3) ****************//

GuiltyGearXAdvanceVenomsThemeMeatOfJustice_004:
//  #04 //000   ----------------------------------------
 BYTE   KEYSH   GuiltyGearXAdvanceVenomsThemeMeatOfJustice_key+0
 BYTE   VOICE   4
 BYTE   MODT 0
 BYTE   LFOS 44
 BYTE   PAN   c_v+0
 BYTE   BENDR  12
 BYTE   VOL   48*GuiltyGearXAdvanceVenomsThemeMeatOfJustice_mvl/mxv
 BYTE   BEND   c_v+0
 BYTE   W96
//  #04 //001   ----------------------------------------
 BYTE   W96
//  #04 //002   ----------------------------------------
 BYTE   W96
//  #04 //003   ----------------------------------------
 BYTE   W96
//  #04 //004   ----------------------------------------
 BYTE   W96
//  #04 //005   ----------------------------------------
 BYTE   W96
//  #04 //006   ----------------------------------------
 BYTE   W96
//  #04 //007   ----------------------------------------
 BYTE   W96
//  #04 //008   ----------------------------------------
 BYTE   W96
//  #04 //009   ----------------------------------------
 BYTE   W96
//  #04 //010   ----------------------------------------
 BYTE   W96
//  #04 //011   ----------------------------------------
Label_014E06AB:
 BYTE   VOL   48*GuiltyGearXAdvanceVenomsThemeMeatOfJustice_mvl/mxv
 BYTE   N12  As1  v116
 BYTE   W12
 BYTE   Bn1
 BYTE   W12
 BYTE   N06  Cs1  v127
 BYTE   W06
 BYTE   N12  Cs1  v112
 BYTE   W12
 BYTE   N06
 BYTE   W06
 BYTE   N12  Cs1  v116
 BYTE   W12
 BYTE   N06
 BYTE   W06
 BYTE   N12
 BYTE   W12
 BYTE   N12
 BYTE   W12
 BYTE   N06  Cs1  v112
 BYTE   W06
//  #04 //012   ----------------------------------------
Label_014E06CB:
 BYTE   N12  As1  v116
 BYTE   W12
 BYTE   Bn1
 BYTE   W12
 BYTE   N06  Cs1  v127
 BYTE   W06
 BYTE   N12  Cs1  v112
 BYTE   W12
 BYTE   N06
 BYTE   W06
 BYTE   N12  Cs1  v116
 BYTE   W12
 BYTE   N06
 BYTE   W06
 BYTE   N12
 BYTE   W12
 BYTE   N12
 BYTE   W12
 BYTE   N06  Cs1  v112
 BYTE   W06
 BYTE   PEND 
//  #04 //013   ----------------------------------------
 BYTE   PATT
  POIN2 Label_014E06CB
//  #04 //014   ----------------------------------------
Label_014E06EF:
 BYTE   N12  As1  v116
 BYTE   W12
 BYTE   Bn1
 BYTE   W12
 BYTE   N06  Cs1
 BYTE   W06
 BYTE   N12  Bn1  v124
 BYTE   W12
 BYTE   N06  Cs1  v116
 BYTE   W06
 BYTE   BEND   c_v-6
 BYTE   N18  Fs2  v127
 BYTE   W01
 BYTE   BEND   c_v-6
 BYTE   W01
 BYTE   BEND   c_v-5
 BYTE   W01
 BYTE   BEND   c_v-4
 BYTE   W01
 BYTE   BEND   c_v-3
 BYTE   W01
 BYTE   BEND   c_v-2
 BYTE   W01
 BYTE   BEND   c_v+0
 BYTE   W12
 BYTE   BEND   c_v-6
 BYTE   N18
 BYTE   W01
 BYTE   BEND   c_v-6
 BYTE   W01
 BYTE   BEND   c_v-6
 BYTE   W01
 BYTE   BEND   c_v-5
 BYTE   W01
 BYTE   BEND   c_v-4
 BYTE   W01
 BYTE   BEND   c_v-2
 BYTE   W01
 BYTE   BEND   c_v+0
 BYTE   W12
 BYTE   N12  Fn2
 BYTE   W12
 BYTE   PEND 
//  #04 //015   ----------------------------------------
 BYTE   PATT
  POIN2 Label_014E06CB
//  #04 //016   ----------------------------------------
 BYTE   PATT
  POIN2 Label_014E06CB
//  #04 //017   ----------------------------------------
 BYTE   PATT
  POIN2 Label_014E06CB
//  #04 //018   ----------------------------------------
 BYTE   PATT
  POIN2 Label_014E06EF
//  #04 //019   ----------------------------------------
 BYTE   VOL   61*GuiltyGearXAdvanceVenomsThemeMeatOfJustice_mvl/mxv
 BYTE   N12  As1  v116
 BYTE   W12
 BYTE   Bn1
 BYTE   W12
 BYTE   N06  Cs1  v127
 BYTE   W06
 BYTE   N12  Cs1  v112
 BYTE   W12
 BYTE   N06
 BYTE   W06
 BYTE   N12  Cs1  v116
 BYTE   W12
 BYTE   N06
 BYTE   W06
 BYTE   N12
 BYTE   W12
 BYTE   N12
 BYTE   W12
 BYTE   N06  Cs1  v112
 BYTE   W06
//  #04 //020   ----------------------------------------
 BYTE   PATT
  POIN2 Label_014E06CB
//  #04 //021   ----------------------------------------
 BYTE   PATT
  POIN2 Label_014E06CB
//  #04 //022   ----------------------------------------
 BYTE   PATT
  POIN2 Label_014E06EF
//  #04 //023   ----------------------------------------
 BYTE   PATT
  POIN2 Label_014E06CB
//  #04 //024   ----------------------------------------
 BYTE   PATT
  POIN2 Label_014E06CB
//  #04 //025   ----------------------------------------
 BYTE   PATT
  POIN2 Label_014E06CB
//  #04 //026   ----------------------------------------
 BYTE   PATT
  POIN2 Label_014E06EF
//  #04 //027   ----------------------------------------
 BYTE   N06  Fs1  v127
 BYTE   W06
 BYTE   Bn1
 BYTE   W06
 BYTE   Cn2
 BYTE   W06
 BYTE   BEND   c_v-8
 BYTE   N12  Cs2  v124
 BYTE   W01
 BYTE   BEND   c_v-8
 BYTE   W01
 BYTE   BEND   c_v-7
 BYTE   W01
 BYTE   BEND   c_v-6
 BYTE   W01
 BYTE   BEND   c_v-5
 BYTE   W01
 BYTE   BEND   c_v-3
 BYTE   W01
 BYTE   BEND   c_v+0
 BYTE   W06
 BYTE   N06  Cs1  v127
 BYTE   W06
 BYTE   Fs1
 BYTE   W06
 BYTE   Bn1
 BYTE   W06
 BYTE   Cn2
 BYTE   W06
 BYTE   N12  Cs2  v124
 BYTE   W12
 BYTE   N06  Cs1
 BYTE   W06
 BYTE   Gn1  v127
 BYTE   W06
 BYTE   Fs1
 BYTE   W06
 BYTE   En1  v124
 BYTE   W06
 BYTE   Cs1
 BYTE   W06
//  #04 //028   ----------------------------------------
 BYTE   Fs1
 BYTE   W06
 BYTE   Fn1  v127
 BYTE   W06
 BYTE   Fs1
 BYTE   W06
 BYTE   BEND   c_v-8
 BYTE   N12  En1  v124
 BYTE   W01
 BYTE   BEND   c_v-8
 BYTE   W01
 BYTE   BEND   c_v-7
 BYTE   W01
 BYTE   BEND   c_v-6
 BYTE   W01
 BYTE   BEND   c_v-5
 BYTE   W01
 BYTE   BEND   c_v-3
 BYTE   W01
 BYTE   BEND   c_v+0
 BYTE   W06
 BYTE   N06  Cs1
 BYTE   W06
 BYTE   Fs1
 BYTE   W06
 BYTE   Fn1  v127
 BYTE   W06
 BYTE   Fs1
 BYTE   W06
 BYTE   BEND   c_v-8
 BYTE   N12  En1
 BYTE   W01
 BYTE   BEND   c_v-8
 BYTE   W01
 BYTE   BEND   c_v-7
 BYTE   W01
 BYTE   BEND   c_v-6
 BYTE   W01
 BYTE   BEND   c_v-5
 BYTE   W01
 BYTE   BEND   c_v-3
 BYTE   W01
 BYTE   BEND   c_v+0
 BYTE   W06
 BYTE   N06  Cs1  v124
 BYTE   W06
 BYTE   En1
 BYTE   W06
 BYTE   Fs1
 BYTE   W06
 BYTE   Gn1  v127
 BYTE   W06
 BYTE   Cs2  v124
 BYTE   W06
//  #04 //029   ----------------------------------------
 BYTE   Fs1
 BYTE   W06
 BYTE   Bn1
 BYTE   W06
 BYTE   Cn2  v127
 BYTE   W06
 BYTE   BEND   c_v-8
 BYTE   N12  Cs2  v124
 BYTE   W01
 BYTE   BEND   c_v-8
 BYTE   W01
 BYTE   BEND   c_v-7
 BYTE   W01
 BYTE   BEND   c_v-6
 BYTE   W01
 BYTE   BEND   c_v-5
 BYTE   W01
 BYTE   BEND   c_v-3
 BYTE   W01
 BYTE   BEND   c_v+0
 BYTE   W06
 BYTE   N06  Cs1  v127
 BYTE   W06
 BYTE   Fs1
 BYTE   W06
 BYTE   Bn1  v124
 BYTE   W06
 BYTE   Cn2  v127
 BYTE   W06
 BYTE   N12  Cs2
 BYTE   W12
 BYTE   N06  Cs1
 BYTE   W06
 BYTE   Gn1  v124
 BYTE   W06
 BYTE   Fs1  v127
 BYTE   W06
 BYTE   En1
 BYTE   W06
 BYTE   Cs1
 BYTE   W06
//  #04 //030   ----------------------------------------
 BYTE   Fs1  v124
 BYTE   W06
 BYTE   Fn1  v127
 BYTE   W06
 BYTE   Fs1
 BYTE   W06
 BYTE   BEND   c_v-8
 BYTE   N12  En1
 BYTE   W01
 BYTE   BEND   c_v-8
 BYTE   W01
 BYTE   BEND   c_v-7
 BYTE   W01
 BYTE   BEND   c_v-6
 BYTE   W01
 BYTE   BEND   c_v-5
 BYTE   W01
 BYTE   BEND   c_v-3
 BYTE   W01
 BYTE   BEND   c_v+0
 BYTE   W06
 BYTE   N06  Cs1  v124
 BYTE   W06
 BYTE   Fs1  v127
 BYTE   W06
 BYTE   Fn1
 BYTE   W06
 BYTE   Fs1  v124
 BYTE   W06
 BYTE   BEND   c_v-8
 BYTE   N12  En1  v127
 BYTE   W01
 BYTE   BEND   c_v-8
 BYTE   W01
 BYTE   BEND   c_v-7
 BYTE   W01
 BYTE   BEND   c_v-6
 BYTE   W01
 BYTE   BEND   c_v-5
 BYTE   W01
 BYTE   BEND   c_v-3
 BYTE   W01
 BYTE   BEND   c_v+0
 BYTE   W06
 BYTE   N06  Cs1  v124
 BYTE   W06
 BYTE   En1
 BYTE   W06
 BYTE   Fs1
 BYTE   W06
 BYTE   Gn1  v127
 BYTE   W06
 BYTE   Gs1  v124
 BYTE   W06
//  #04 //031   ----------------------------------------
 BYTE   W96
//  #04 //032   ----------------------------------------
Label_014E0876:
 BYTE   N12  Gs1  v112
 BYTE   W12
 BYTE   N06  Gs1  v104
 BYTE   W06
 BYTE   Gs1  v100
 BYTE   W06
 BYTE   Cs2  v116
 BYTE   W06
 BYTE   N12  Gs1  v112
 BYTE   W12
 BYTE   N06  Gs1  v104
 BYTE   W06
 BYTE   N12  Gs1  v112
 BYTE   W12
 BYTE   N06  Gs1  v104
 BYTE   W06
 BYTE   N06
 BYTE   W06
 BYTE   Cs2  v116
 BYTE   W06
 BYTE   N12  Gs1  v112
 BYTE   W12
 BYTE   N06  Gs1  v100
 BYTE   W06
 BYTE   PEND 
//  #04 //033   ----------------------------------------
Label_014E08A2:
 BYTE   N12  Gs1  v112
 BYTE   W12
 BYTE   N06  Gs1  v104
 BYTE   W06
 BYTE   N06
 BYTE   W06
 BYTE   Cs2  v116
 BYTE   W06
 BYTE   N12  Gs1  v112
 BYTE   W12
 BYTE   N06  Gs1  v104
 BYTE   W06
 BYTE   N12  Gs1  v112
 BYTE   W12
 BYTE   N06  Gs1  v104
 BYTE   W06
 BYTE   N06
 BYTE   W06
 BYTE   Gs1  v100
 BYTE   W06
 BYTE   N18  An1  v127
 BYTE   W18
 BYTE   PEND 
//  #04 //034   ----------------------------------------
Label_014E08C9:
 BYTE   N12  Gs1  v112
 BYTE   W12
 BYTE   N06  Gs1  v104
 BYTE   W06
 BYTE   N06
 BYTE   W06
 BYTE   Cs2  v124
 BYTE   W06
 BYTE   N12  Gs1  v112
 BYTE   W12
 BYTE   N06  Gs1  v104
 BYTE   W06
 BYTE   N12  Gs1  v112
 BYTE   W12
 BYTE   N06  Gs1  v104
 BYTE   W06
 BYTE   Gs1  v100
 BYTE   W06
 BYTE   Cs2  v127
 BYTE   W06
 BYTE   N12  Gs1  v112
 BYTE   W12
 BYTE   N06  Gs1  v104
 BYTE   W06
 BYTE   PEND 
//  #04 //035   ----------------------------------------
Label_014E08F5:
 BYTE   N12  Gs1  v112
 BYTE   W12
 BYTE   N06  Gs1  v100
 BYTE   W06
 BYTE   Gs1  v104
 BYTE   W06
 BYTE   Cs2  v124
 BYTE   W06
 BYTE   N12  Gs1  v112
 BYTE   W12
 BYTE   N06  Gs1  v104
 BYTE   W06
 BYTE   Cs2  v127
 BYTE   W06
 BYTE   N12  Gs1  v112
 BYTE   W12
 BYTE   N06  Gs1  v104
 BYTE   W06
 BYTE   BEND   c_v-6
 BYTE   N24  Bn1  v124
 BYTE   W01
 BYTE   BEND   c_v-6
 BYTE   W01
 BYTE   BEND   c_v-5
 BYTE   W01
 BYTE   BEND   c_v-5
 BYTE   W01
 BYTE   BEND   c_v-4
 BYTE   W01
 BYTE   BEND   c_v-2
 BYTE   W01
 BYTE   BEND   c_v+0
 BYTE   W18
 BYTE   PEND 
//  #04 //036   ----------------------------------------
 BYTE   PATT
  POIN2 Label_014E0876
//  #04 //037   ----------------------------------------
 BYTE   PATT
  POIN2 Label_014E08A2
//  #04 //038   ----------------------------------------
 BYTE   PATT
  POIN2 Label_014E08C9
//  #04 //039   ----------------------------------------
 BYTE   PATT
  POIN2 Label_014E08F5
//  #04 //040   ----------------------------------------
 BYTE   PATT
  POIN2 Label_014E0876
//  #04 //041   ----------------------------------------
 BYTE   PATT
  POIN2 Label_014E08A2
//  #04 //042   ----------------------------------------
 BYTE   PATT
  POIN2 Label_014E08C9
//  #04 //043   ----------------------------------------
 BYTE   PATT
  POIN2 Label_014E08F5
//  #04 //044   ----------------------------------------
 BYTE   N18  Cs2  v112
 BYTE   W24
 BYTE   N12  Cs2  v116
 BYTE   W18
 BYTE   BEND   c_v-7
 BYTE   N12  Ds2  v112
 BYTE   W01
 BYTE   BEND   c_v-7
 BYTE   W01
 BYTE   BEND   c_v-6
 BYTE   W01
 BYTE   BEND   c_v-6
 BYTE   W01
 BYTE   BEND   c_v-4
 BYTE   W01
 BYTE   BEND   c_v-3
 BYTE   W01
 BYTE   BEND   c_v+0
 BYTE   W06
 BYTE   N12  Ds2  v116
 BYTE   W12
 BYTE   N06
 BYTE   W06
 BYTE   BEND   c_v-9
 BYTE   N24  Gs2
 BYTE   W01
 BYTE   BEND   c_v-8
 BYTE   W01
 BYTE   BEND   c_v-8
 BYTE   W01
 BYTE   BEND   c_v-7
 BYTE   W01
 BYTE   BEND   c_v-5
 BYTE   W01
 BYTE   BEND   c_v-3
 BYTE   W01
 BYTE   BEND   c_v+0
 BYTE   W18
//  #04 //045   ----------------------------------------
Label_014E0985:
 BYTE   N06  Cs2  v116
 BYTE   W06
 BYTE   N06
 BYTE   W06
 BYTE   Dn2
 BYTE   W06
 BYTE   Cs2
 BYTE   W06
 BYTE   Cs3
 BYTE   W06
 BYTE   Cs2
 BYTE   W06
 BYTE   Dn2
 BYTE   W06
 BYTE   Fs2
 BYTE   W06
 BYTE   Dn2
 BYTE   W06
 BYTE   Cs2
 BYTE   W06
 BYTE   Dn2
 BYTE   W06
 BYTE   Cs2
 BYTE   W06
 BYTE   Bn2
 BYTE   W06
 BYTE   Cs2
 BYTE   W06
 BYTE   Dn2
 BYTE   W06
 BYTE   Cs2
 BYTE   W06
 BYTE   PEND 
//  #04 //046   ----------------------------------------
Label_014E09A8:
 BYTE   N06  Cs2  v116
 BYTE   W06
 BYTE   Cs3
 BYTE   W06
 BYTE   Dn2
 BYTE   W06
 BYTE   Cs2
 BYTE   W06
 BYTE   Fs2
 BYTE   W06
 BYTE   Cs2
 BYTE   W06
 BYTE   Dn2
 BYTE   W06
 BYTE   Cs2
 BYTE   W06
 BYTE   Bn2
 BYTE   W06
 BYTE   Cs2
 BYTE   W06
 BYTE   Dn2
 BYTE   W06
 BYTE   Bn2
 BYTE   W06
 BYTE   Dn2
 BYTE   W06
 BYTE   Cs2
 BYTE   W06
 BYTE   Cs3
 BYTE   W06
 BYTE   Cs2
 BYTE   W06
 BYTE   PEND 
//  #04 //047   ----------------------------------------
 BYTE   PATT
  POIN2 Label_014E0985
//  #04 //048   ----------------------------------------
 BYTE   PATT
  POIN2 Label_014E09A8
//  #04 //049   ----------------------------------------
 BYTE   PATT
  POIN2 Label_014E0985
//  #04 //050   ----------------------------------------
 BYTE   PATT
  POIN2 Label_014E09A8
//  #04 //051   ----------------------------------------
 BYTE   PATT
  POIN2 Label_014E0985
//  #04 //052   ----------------------------------------
 BYTE   PATT
  POIN2 Label_014E09A8
//  #04 //053   ----------------------------------------
 BYTE   W96
//  #04 //054   ----------------------------------------
 BYTE   W96
//  #04 //055   ----------------------------------------
 BYTE   W96
//  #04 //056   ----------------------------------------
 BYTE   W96
//  #04 //057   ----------------------------------------
 BYTE   GoTo
  POIN2 Label_014E06AB
 BYTE   FINE

//**************** Track 5 (Midi-Chn.4) ****************//

GuiltyGearXAdvanceVenomsThemeMeatOfJustice_005:
//  #05 //000   ----------------------------------------
 BYTE   KEYSH   GuiltyGearXAdvanceVenomsThemeMeatOfJustice_key+0
 BYTE   VOICE   122
 BYTE   MODT 0
 BYTE   LFOS 44
 BYTE   VOL   32*GuiltyGearXAdvanceVenomsThemeMeatOfJustice_mvl/mxv
 BYTE   PAN   c_v+0
 BYTE   BEND   c_v+0
 BYTE   W96
//  #05 //001   ----------------------------------------
 BYTE   W96
//  #05 //002   ----------------------------------------
 BYTE   W96
//  #05 //003   ----------------------------------------
Label_014E0D01:
 BYTE   W24
 BYTE   N06  An2  v116
 BYTE   W48
 BYTE   N06
 BYTE   W24
 BYTE   PEND 
//  #05 //004   ----------------------------------------
 BYTE   PATT
  POIN2 Label_014E0D01
//  #05 //005   ----------------------------------------
 BYTE   PATT
  POIN2 Label_014E0D01
//  #05 //006   ----------------------------------------
 BYTE   PATT
  POIN2 Label_014E0D01
//  #05 //007   ----------------------------------------
 BYTE   PATT
  POIN2 Label_014E0D01
//  #05 //008   ----------------------------------------
 BYTE   PATT
  POIN2 Label_014E0D01
//  #05 //009   ----------------------------------------
 BYTE   PATT
  POIN2 Label_014E0D01
//  #05 //010   ----------------------------------------
 BYTE   PATT
  POIN2 Label_014E0D01
//  #05 //011   ----------------------------------------
Label_014E0D2C:
//  #05 //012   ----------------------------------------
 BYTE   PATT
  POIN2 Label_014E0D01
//  #05 //013   ----------------------------------------
 BYTE   PATT
  POIN2 Label_014E0D01
//  #05 //014   ----------------------------------------
 BYTE   PATT
  POIN2 Label_014E0D01
//  #05 //015   ----------------------------------------
 BYTE   PATT
  POIN2 Label_014E0D01
//  #05 //016   ----------------------------------------
 BYTE   PATT
  POIN2 Label_014E0D01
//  #05 //017   ----------------------------------------
 BYTE   PATT
  POIN2 Label_014E0D01
//  #05 //018   ----------------------------------------
 BYTE   PATT
  POIN2 Label_014E0D01
//  #05 //019   ----------------------------------------
 BYTE   PATT
  POIN2 Label_014E0D01
//  #05 //020   ----------------------------------------
 BYTE   W96
//  #05 //021   ----------------------------------------
Label_014E0D55:
 BYTE   N06  An2  v052
 BYTE   W12
 BYTE   N06
 BYTE   W84
 BYTE   PEND 
//  #05 //022   ----------------------------------------
 BYTE   PATT
  POIN2 Label_014E0D55
//  #05 //023   ----------------------------------------
Label_014E0D61:
 BYTE   N06  An2  v052
 BYTE   W12
 BYTE   N06
 BYTE   W36
 BYTE   N06
 BYTE   W18
 BYTE   N06
 BYTE   W18
 BYTE   N06
 BYTE   W12
 BYTE   PEND 
//  #05 //024   ----------------------------------------
 BYTE   PATT
  POIN2 Label_014E0D55
//  #05 //025   ----------------------------------------
 BYTE   PATT
  POIN2 Label_014E0D55
//  #05 //026   ----------------------------------------
 BYTE   PATT
  POIN2 Label_014E0D55
//  #05 //027   ----------------------------------------
 BYTE   PATT
  POIN2 Label_014E0D61
//  #05 //028   ----------------------------------------
Label_014E0D82:
 BYTE   W18
 BYTE   N06  An2  v052
 BYTE   W36
 BYTE   N06
 BYTE   W42
 BYTE   PEND 
//  #05 //029   ----------------------------------------
 BYTE   PATT
  POIN2 Label_014E0D82
//  #05 //030   ----------------------------------------
 BYTE   PATT
  POIN2 Label_014E0D82
//  #05 //031   ----------------------------------------
 BYTE   PATT
  POIN2 Label_014E0D82
//  #05 //032   ----------------------------------------
 BYTE   W96
//  #05 //033   ----------------------------------------
 BYTE   N06  An2  v052
 BYTE   W96
//  #05 //034   ----------------------------------------
 BYTE   W96
//  #05 //035   ----------------------------------------
 BYTE   W96
//  #05 //036   ----------------------------------------
 BYTE   W72
 BYTE   N06
 BYTE   W24
//  #05 //037   ----------------------------------------
 BYTE   N06
 BYTE   W96
//  #05 //038   ----------------------------------------
 BYTE   W96
//  #05 //039   ----------------------------------------
 BYTE   W96
//  #05 //040   ----------------------------------------
 BYTE   W72
 BYTE   N06
 BYTE   W24
//  #05 //041   ----------------------------------------
 BYTE   N06
 BYTE   W96
//  #05 //042   ----------------------------------------
 BYTE   W96
//  #05 //043   ----------------------------------------
 BYTE   W96
//  #05 //044   ----------------------------------------
 BYTE   W72
 BYTE   N06
 BYTE   W24
//  #05 //045   ----------------------------------------
 BYTE   N06
 BYTE   W72
 BYTE   N06
 BYTE   W17
 BYTE   N06
 BYTE   W07
//  #05 //046   ----------------------------------------
 BYTE   N06
 BYTE   W96
//  #05 //047   ----------------------------------------
 BYTE   W96
//  #05 //048   ----------------------------------------
 BYTE   W96
//  #05 //049   ----------------------------------------
 BYTE   W96
//  #05 //050   ----------------------------------------
 BYTE   W96
//  #05 //051   ----------------------------------------
 BYTE   W96
//  #05 //052   ----------------------------------------
 BYTE   W96
//  #05 //053   ----------------------------------------
 BYTE   W96
//  #05 //054   ----------------------------------------
 BYTE   PATT
  POIN2 Label_014E0D01
//  #05 //055   ----------------------------------------
 BYTE   PATT
  POIN2 Label_014E0D01
//  #05 //056   ----------------------------------------
 BYTE   PATT
  POIN2 Label_014E0D01
//  #05 //057   ----------------------------------------
 BYTE   PATT
  POIN2 Label_014E0D01
//  #05 //058   ----------------------------------------
 BYTE   GoTo
  POIN2 Label_014E0D2C
 BYTE   FINE

//**************** Track 6 (Midi-Chn.5) ****************//

GuiltyGearXAdvanceVenomsThemeMeatOfJustice_006:
//  #06 //000   ----------------------------------------
 BYTE   KEYSH   GuiltyGearXAdvanceVenomsThemeMeatOfJustice_key+0
 BYTE   VOICE   116
 BYTE   MODT 0
 BYTE   LFOS 44
 BYTE   VOL   48*GuiltyGearXAdvanceVenomsThemeMeatOfJustice_mvl/mxv
 BYTE   PAN   c_v+0
 BYTE   BEND   c_v+0
 BYTE   W96
//  #06 //001   ----------------------------------------
 BYTE   W96
//  #06 //002   ----------------------------------------
 BYTE   W96
//  #06 //003   ----------------------------------------
Label_014E0491:
 BYTE   W12
 BYTE   N02  Gn3  v052
 BYTE   W24
 BYTE   N02
 BYTE   W12
 BYTE   N02
 BYTE   W12
 BYTE   N02
 BYTE   W24
 BYTE   N02
 BYTE   W12
 BYTE   PEND 
//  #06 //004   ----------------------------------------
Label_014E049F:
 BYTE   N02  Gn3  v052
 BYTE   W12
 BYTE   N02
 BYTE   W24
 BYTE   N02
 BYTE   W12
 BYTE   N02
 BYTE   W12
 BYTE   N02
 BYTE   W24
 BYTE   N02
 BYTE   W12
 BYTE   PEND 
//  #06 //005   ----------------------------------------
 BYTE   PATT
  POIN2 Label_014E0491
//  #06 //006   ----------------------------------------
 BYTE   PATT
  POIN2 Label_014E049F
//  #06 //007   ----------------------------------------
 BYTE   PATT
  POIN2 Label_014E0491
//  #06 //008   ----------------------------------------
 BYTE   PATT
  POIN2 Label_014E049F
//  #06 //009   ----------------------------------------
 BYTE   PATT
  POIN2 Label_014E0491
//  #06 //010   ----------------------------------------
 BYTE   PATT
  POIN2 Label_014E049F
//  #06 //011   ----------------------------------------
Label_014E04CC:
//  #06 //012   ----------------------------------------
 BYTE   PATT
  POIN2 Label_014E0491
//  #06 //013   ----------------------------------------
 BYTE   PATT
  POIN2 Label_014E049F
//  #06 //014   ----------------------------------------
 BYTE   PATT
  POIN2 Label_014E0491
//  #06 //015   ----------------------------------------
 BYTE   PATT
  POIN2 Label_014E049F
//  #06 //016   ----------------------------------------
 BYTE   PATT
  POIN2 Label_014E0491
//  #06 //017   ----------------------------------------
 BYTE   PATT
  POIN2 Label_014E049F
//  #06 //018   ----------------------------------------
 BYTE   PATT
  POIN2 Label_014E0491
//  #06 //019   ----------------------------------------
 BYTE   PATT
  POIN2 Label_014E049F
//  #06 //020   ----------------------------------------
Label_014E04F4:
 BYTE   W24
 BYTE   N02  Gn3  v052
 BYTE   W12
 BYTE   N02
 BYTE   W12
 BYTE   N02
 BYTE   W12
 BYTE   N02
 BYTE   W12
 BYTE   N02
 BYTE   W12
 BYTE   N02
 BYTE   W12
 BYTE   PEND 
//  #06 //021   ----------------------------------------
 BYTE   PATT
  POIN2 Label_014E04F4
//  #06 //022   ----------------------------------------
 BYTE   PATT
  POIN2 Label_014E04F4
//  #06 //023   ----------------------------------------
Label_014E050E:
 BYTE   W24
 BYTE   N02  Gn3  v052
 BYTE   W12
 BYTE   N02
 BYTE   W60
 BYTE   PEND 
//  #06 //024   ----------------------------------------
 BYTE   PATT
  POIN2 Label_014E04F4
//  #06 //025   ----------------------------------------
 BYTE   PATT
  POIN2 Label_014E04F4
//  #06 //026   ----------------------------------------
 BYTE   PATT
  POIN2 Label_014E04F4
//  #06 //027   ----------------------------------------
 BYTE   PATT
  POIN2 Label_014E050E
//  #06 //028   ----------------------------------------
 BYTE   W96
//  #06 //029   ----------------------------------------
 BYTE   W96
//  #06 //030   ----------------------------------------
 BYTE   W96
//  #06 //031   ----------------------------------------
 BYTE   W96
//  #06 //032   ----------------------------------------
 BYTE   W96
//  #06 //033   ----------------------------------------
 BYTE   PATT
  POIN2 Label_014E04F4
//  #06 //034   ----------------------------------------
Label_014E0534:
 BYTE   N02  Gn3  v052
 BYTE   W12
 BYTE   N02
 BYTE   W12
 BYTE   N02
 BYTE   W12
 BYTE   N02
 BYTE   W12
 BYTE   N02
 BYTE   W12
 BYTE   N02
 BYTE   W12
 BYTE   N02
 BYTE   W12
 BYTE   N02
 BYTE   W12
 BYTE   PEND 
//  #06 //035   ----------------------------------------
 BYTE   PATT
  POIN2 Label_014E0534
//  #06 //036   ----------------------------------------
Label_014E054C:
 BYTE   N02  Gn3  v052
 BYTE   W12
 BYTE   N02
 BYTE   W12
 BYTE   N02
 BYTE   W12
 BYTE   N02
 BYTE   W12
 BYTE   N02
 BYTE   W12
 BYTE   N02
 BYTE   W30
 BYTE   N02
 BYTE   W06
 BYTE   PEND 
//  #06 //037   ----------------------------------------
 BYTE   PATT
  POIN2 Label_014E04F4
//  #06 //038   ----------------------------------------
 BYTE   PATT
  POIN2 Label_014E0534
//  #06 //039   ----------------------------------------
 BYTE   PATT
  POIN2 Label_014E0534
//  #06 //040   ----------------------------------------
 BYTE   PATT
  POIN2 Label_014E054C
//  #06 //041   ----------------------------------------
 BYTE   PATT
  POIN2 Label_014E04F4
//  #06 //042   ----------------------------------------
 BYTE   PATT
  POIN2 Label_014E0534
//  #06 //043   ----------------------------------------
 BYTE   PATT
  POIN2 Label_014E0534
//  #06 //044   ----------------------------------------
 BYTE   PATT
  POIN2 Label_014E054C
//  #06 //045   ----------------------------------------
 BYTE   W42
 BYTE   N02  Gn3  v052
 BYTE   W12
 BYTE   N02
 BYTE   W36
 BYTE   N02
 BYTE   W06
//  #06 //046   ----------------------------------------
 BYTE   W12
 BYTE   N02
 BYTE   W12
 BYTE   N02
 BYTE   W12
 BYTE   N02
 BYTE   W12
 BYTE   N02
 BYTE   W12
 BYTE   N02
 BYTE   W12
 BYTE   N02
 BYTE   W12
 BYTE   N02
 BYTE   W12
//  #06 //047   ----------------------------------------
 BYTE   PATT
  POIN2 Label_014E0534
//  #06 //048   ----------------------------------------
 BYTE   PATT
  POIN2 Label_014E0534
//  #06 //049   ----------------------------------------
 BYTE   PATT
  POIN2 Label_014E0534
//  #06 //050   ----------------------------------------
 BYTE   PATT
  POIN2 Label_014E0534
//  #06 //051   ----------------------------------------
 BYTE   PATT
  POIN2 Label_014E0534
//  #06 //052   ----------------------------------------
 BYTE   PATT
  POIN2 Label_014E0534
//  #06 //053   ----------------------------------------
 BYTE   PATT
  POIN2 Label_014E0534
//  #06 //054   ----------------------------------------
 BYTE   PATT
  POIN2 Label_014E0491
//  #06 //055   ----------------------------------------
 BYTE   PATT
  POIN2 Label_014E0491
//  #06 //056   ----------------------------------------
 BYTE   PATT
  POIN2 Label_014E0491
//  #06 //057   ----------------------------------------
 BYTE   PATT
  POIN2 Label_014E0491
//  #06 //058   ----------------------------------------
 BYTE   GoTo
  POIN2 Label_014E04CC
 BYTE   FINE

//**************** Track 7 (Midi-Chn.6) ****************//

GuiltyGearXAdvanceVenomsThemeMeatOfJustice_007:
//  #07 //000   ----------------------------------------
 BYTE   KEYSH   GuiltyGearXAdvanceVenomsThemeMeatOfJustice_key+0
 BYTE   VOICE   127
 BYTE   MODT 0
 BYTE   LFOS 44
 BYTE   VOL   32*GuiltyGearXAdvanceVenomsThemeMeatOfJustice_mvl/mxv
 BYTE   W96
//  #07 //001   ----------------------------------------
 BYTE   W96
//  #07 //002   ----------------------------------------
 BYTE   W96
//  #07 //003   ----------------------------------------
Label_0103C421:
 BYTE   N06  Gn1  v060
 BYTE   W12
 BYTE   Gn1  v116
 BYTE   W12
 BYTE   Gs1  v127
 BYTE   W12
 BYTE   Gn1  v124
 BYTE   W12
 BYTE   Gn1  v127
 BYTE   W12
 BYTE   Gn1  v116
 BYTE   W12
 BYTE   Gs1  v127
 BYTE   W12
 BYTE   Gn1
 BYTE   W12
 BYTE   PEND 
//  #07 //004   ----------------------------------------
Label_0103C43A:
 BYTE   N06  Gn1  v124
 BYTE   W12
 BYTE   Gn1  v116
 BYTE   W12
 BYTE   Gs1  v127
 BYTE   W12
 BYTE   Gn1  v124
 BYTE   W12
 BYTE   Gn1  v127
 BYTE   W12
 BYTE   Gn1  v116
 BYTE   W12
 BYTE   Gs1  v127
 BYTE   W12
 BYTE   Gn1
 BYTE   W12
 BYTE   PEND 
//  #07 //005   ----------------------------------------
 BYTE   PATT
  POIN2 Label_0103C421
//  #07 //006   ----------------------------------------
Label_0103C458:
 BYTE   N06  Gn1  v124
 BYTE   W12
 BYTE   Gn1  v116
 BYTE   W12
 BYTE   Gs1  v127
 BYTE   W12
 BYTE   Gn1  v124
 BYTE   W12
 BYTE   Gs1  v127
 BYTE   W12
 BYTE   Gs1  v116
 BYTE   W12
 BYTE   Gs1  v127
 BYTE   W06
 BYTE   N06
 BYTE   W06
 BYTE   Gn1
 BYTE   W06
 BYTE   Gs1
 BYTE   W06
 BYTE   PEND 
//  #07 //007   ----------------------------------------
 BYTE   PATT
  POIN2 Label_0103C421
//  #07 //008   ----------------------------------------
 BYTE   PATT
  POIN2 Label_0103C43A
//  #07 //009   ----------------------------------------
 BYTE   PATT
  POIN2 Label_0103C421
//  #07 //010   ----------------------------------------
 BYTE   PATT
  POIN2 Label_0103C458
//  #07 //011   ----------------------------------------
Label_0103C489:
//  #07 //012   ----------------------------------------
 BYTE   PATT
  POIN2 Label_0103C421
//  #07 //013   ----------------------------------------
 BYTE   PATT
  POIN2 Label_0103C43A
//  #07 //014   ----------------------------------------
 BYTE   PATT
  POIN2 Label_0103C421
//  #07 //015   ----------------------------------------
 BYTE   PATT
  POIN2 Label_0103C458
//  #07 //016   ----------------------------------------
 BYTE   PATT
  POIN2 Label_0103C421
//  #07 //017   ----------------------------------------
 BYTE   PATT
  POIN2 Label_0103C43A
//  #07 //018   ----------------------------------------
 BYTE   PATT
  POIN2 Label_0103C421
//  #07 //019   ----------------------------------------
 BYTE   PATT
  POIN2 Label_0103C458
//  #07 //020   ----------------------------------------
 BYTE   N06  Gs1  v124
 BYTE   W12
 BYTE   Gn1  v116
 BYTE   W12
 BYTE   Gs1  v127
 BYTE   W06
 BYTE   Gn1  v124
 BYTE   W12
 BYTE   Gn1  v116
 BYTE   W06
 BYTE   Gn1  v127
 BYTE   W12
 BYTE   N06
 BYTE   W12
 BYTE   Gs1  v124
 BYTE   W06
 BYTE   Gs1  v127
 BYTE   W12
 BYTE   Gn1  v116
 BYTE   W06
//  #07 //021   ----------------------------------------
Label_0103C4CF:
 BYTE   N06  Gn1  v127
 BYTE   W12
 BYTE   Gn1  v116
 BYTE   W12
 BYTE   Gs1  v127
 BYTE   W06
 BYTE   Gn1  v124
 BYTE   W12
 BYTE   Gn1  v116
 BYTE   W06
 BYTE   Gn1  v127
 BYTE   W12
 BYTE   Gn1  v124
 BYTE   W12
 BYTE   Gs1  v127
 BYTE   W06
 BYTE   Gs1  v124
 BYTE   W12
 BYTE   Gn1  v127
 BYTE   W06
 BYTE   PEND 
//  #07 //022   ----------------------------------------
 BYTE   N06
 BYTE   W12
 BYTE   Gn1  v116
 BYTE   W12
 BYTE   Gs1  v127
 BYTE   W06
 BYTE   Gn1  v124
 BYTE   W12
 BYTE   Gn1  v116
 BYTE   W06
 BYTE   Gn1  v127
 BYTE   W12
 BYTE   Gn1  v124
 BYTE   W12
 BYTE   Gs1
 BYTE   W06
 BYTE   Gs1  v127
 BYTE   W12
 BYTE   Gn1
 BYTE   W06
//  #07 //023   ----------------------------------------
 BYTE   N06
 BYTE   W12
 BYTE   Gn1  v116
 BYTE   W12
 BYTE   Gs1  v124
 BYTE   W06
 BYTE   Gn1
 BYTE   W12
 BYTE   N06
 BYTE   W06
 BYTE   Gs1  v127
 BYTE   W06
 BYTE   Gn1  v116
 BYTE   W06
 BYTE   Gn1  v127
 BYTE   W06
 BYTE   Gs1  v124
 BYTE   W06
 BYTE   Gn1  v127
 BYTE   W06
 BYTE   Gn1  v116
 BYTE   W06
 BYTE   Gs1  v127
 BYTE   W06
 BYTE   N06
 BYTE   W06
//  #07 //024   ----------------------------------------
 BYTE   Gn1  v124
 BYTE   W12
 BYTE   Gn1  v116
 BYTE   W12
 BYTE   Gs1  v127
 BYTE   W06
 BYTE   Gn1  v124
 BYTE   W12
 BYTE   Gn1  v116
 BYTE   W06
 BYTE   Gn1  v127
 BYTE   W12
 BYTE   N06
 BYTE   W12
 BYTE   Gs1  v124
 BYTE   W06
 BYTE   N06
 BYTE   W12
 BYTE   Gn1  v116
 BYTE   W06
//  #07 //025   ----------------------------------------
 BYTE   Gn1  v127
 BYTE   W12
 BYTE   Gn1  v116
 BYTE   W12
 BYTE   Gs1  v127
 BYTE   W06
 BYTE   Gn1  v124
 BYTE   W12
 BYTE   Gn1  v116
 BYTE   W06
 BYTE   Gn1  v127
 BYTE   W12
 BYTE   Gn1  v124
 BYTE   W12
 BYTE   Gs1  v127
 BYTE   W06
 BYTE   N06
 BYTE   W12
 BYTE   Gn1
 BYTE   W06
//  #07 //026   ----------------------------------------
 BYTE   PATT
  POIN2 Label_0103C4CF
//  #07 //027   ----------------------------------------
 BYTE   N06  Gn1  v127
 BYTE   W12
 BYTE   Gn1  v116
 BYTE   W12
 BYTE   Gs1  v127
 BYTE   W06
 BYTE   Gn1  v124
 BYTE   W12
 BYTE   N06
 BYTE   W06
 BYTE   Gs1  v127
 BYTE   W06
 BYTE   Gn1  v116
 BYTE   W06
 BYTE   Gn1  v127
 BYTE   W06
 BYTE   Gs1
 BYTE   W06
 BYTE   Gn1
 BYTE   W06
 BYTE   Gn1  v116
 BYTE   W06
 BYTE   Gs1  v127
 BYTE   W06
 BYTE   N06
 BYTE   W06
//  #07 //028   ----------------------------------------
 BYTE   Gn1
 BYTE   W06
 BYTE   Gn1  v116
 BYTE   W06
 BYTE   Gn1  v127
 BYTE   W06
 BYTE   Gs1  v124
 BYTE   W12
 BYTE   Gn1  v116
 BYTE   W06
 BYTE   Gn1  v124
 BYTE   W06
 BYTE   Gn1  v116
 BYTE   W06
 BYTE   Gn1  v127
 BYTE   W06
 BYTE   Gs1
 BYTE   W12
 BYTE   Gn1  v124
 BYTE   W06
 BYTE   Gs1  v127
 BYTE   W06
 BYTE   N06
 BYTE   W06
 BYTE   Gs1  v124
 BYTE   W06
 BYTE   Gs1  v127
 BYTE   W06
//  #07 //029   ----------------------------------------
 BYTE   Gn1
 BYTE   W06
 BYTE   Gn1  v116
 BYTE   W06
 BYTE   Gn1  v127
 BYTE   W06
 BYTE   Gs1
 BYTE   W12
 BYTE   Gn1  v116
 BYTE   W06
 BYTE   Gn1  v124
 BYTE   W06
 BYTE   Gn1  v116
 BYTE   W06
 BYTE   Gn1  v127
 BYTE   W06
 BYTE   Gs1  v124
 BYTE   W12
 BYTE   Gn1
 BYTE   W06
 BYTE   Gs1  v127
 BYTE   W06
 BYTE   Gs1  v124
 BYTE   W06
 BYTE   Gs1  v127
 BYTE   W06
 BYTE   Gs1  v124
 BYTE   W06
//  #07 //030   ----------------------------------------
 BYTE   Gn1  v127
 BYTE   W06
 BYTE   Gn1  v116
 BYTE   W06
 BYTE   Gn1  v127
 BYTE   W06
 BYTE   Gs1
 BYTE   W12
 BYTE   Gn1  v116
 BYTE   W06
 BYTE   Gn1  v124
 BYTE   W06
 BYTE   Gn1  v116
 BYTE   W06
 BYTE   Gn1  v127
 BYTE   W06
 BYTE   Gs1  v124
 BYTE   W12
 BYTE   Gn1
 BYTE   W06
 BYTE   Gs1
 BYTE   W06
 BYTE   N06
 BYTE   W06
 BYTE   N06
 BYTE   W06
 BYTE   Gs1  v127
 BYTE   W06
//  #07 //031   ----------------------------------------
 BYTE   Gn1
 BYTE   W06
 BYTE   Gn1  v116
 BYTE   W06
 BYTE   Gn1  v127
 BYTE   W06
 BYTE   Gs1
 BYTE   W12
 BYTE   Gn1  v116
 BYTE   W06
 BYTE   Gn1  v124
 BYTE   W06
 BYTE   Gn1  v116
 BYTE   W06
 BYTE   Gn1  v127
 BYTE   W06
 BYTE   Gs1  v124
 BYTE   W12
 BYTE   Gn1
 BYTE   W06
 BYTE   Gs1  v127
 BYTE   W06
 BYTE   N06
 BYTE   W06
 BYTE   N06
 BYTE   W06
 BYTE   Gs1  v124
 BYTE   W06
//  #07 //032   ----------------------------------------
 BYTE   W68
 BYTE   W01
 BYTE   Gn1  v127
 BYTE   W03
 BYTE   Gs1
 BYTE   W06
 BYTE   Gs1  v124
 BYTE   W06
 BYTE   Gs1  v127
 BYTE   W06
 BYTE   Gs1  v124
 BYTE   W06
//  #07 //033   ----------------------------------------
Label_0103C636:
 BYTE   N06  Gn1  v124
 BYTE   W12
 BYTE   Gn1  v116
 BYTE   W12
 BYTE   Gs1  v127
 BYTE   W06
 BYTE   Gn1  v124
 BYTE   W12
 BYTE   Gn1  v116
 BYTE   W06
 BYTE   Gn1  v127
 BYTE   W12
 BYTE   Gn1  v116
 BYTE   W12
 BYTE   Gs1  v127
 BYTE   W06
 BYTE   Gs1  v124
 BYTE   W12
 BYTE   Gn1  v116
 BYTE   W06
 BYTE   PEND 
//  #07 //034   ----------------------------------------
Label_0103C656:
 BYTE   N06  Gn1  v124
 BYTE   W12
 BYTE   Gn1  v116
 BYTE   W12
 BYTE   Gs1  v127
 BYTE   W06
 BYTE   Gn1  v124
 BYTE   W12
 BYTE   Gn1  v116
 BYTE   W06
 BYTE   Gn1  v127
 BYTE   W12
 BYTE   Gn1  v116
 BYTE   W12
 BYTE   Gs1  v127
 BYTE   W06
 BYTE   N06
 BYTE   W12
 BYTE   Gn1  v116
 BYTE   W06
 BYTE   PEND 
//  #07 //035   ----------------------------------------
 BYTE   PATT
  POIN2 Label_0103C636
//  #07 //036   ----------------------------------------
 BYTE   N06  Gn1  v124
 BYTE   W12
 BYTE   Gn1  v116
 BYTE   W12
 BYTE   Gs1  v127
 BYTE   W06
 BYTE   Gn1  v124
 BYTE   W12
 BYTE   Gn1  v116
 BYTE   W06
 BYTE   Gn1  v127
 BYTE   W06
 BYTE   Gn1  v116
 BYTE   W06
 BYTE   Gn1  v127
 BYTE   W06
 BYTE   Gn1  v116
 BYTE   W06
 BYTE   Gs1  v124
 BYTE   W06
 BYTE   Gn1  v116
 BYTE   W06
 BYTE   Gn1  v124
 BYTE   W06
 BYTE   Gs1  v127
 BYTE   W06
//  #07 //037   ----------------------------------------
 BYTE   Gn1  v124
 BYTE   W12
 BYTE   Gn1  v116
 BYTE   W12
 BYTE   Gs1  v127
 BYTE   W06
 BYTE   Gn1  v124
 BYTE   W12
 BYTE   Gn1  v116
 BYTE   W06
 BYTE   Gn1  v127
 BYTE   W12
 BYTE   Gn1  v116
 BYTE   W12
 BYTE   Gs1  v124
 BYTE   W06
 BYTE   N06
 BYTE   W12
 BYTE   Gn1  v116
 BYTE   W06
//  #07 //038   ----------------------------------------
Label_0103C6BF:
 BYTE   N06  Gn1  v124
 BYTE   W12
 BYTE   Gn1  v116
 BYTE   W12
 BYTE   Gs1  v124
 BYTE   W06
 BYTE   Gn1
 BYTE   W12
 BYTE   Gn1  v116
 BYTE   W06
 BYTE   Gn1  v127
 BYTE   W12
 BYTE   Gn1  v116
 BYTE   W12
 BYTE   Gs1  v127
 BYTE   W06
 BYTE   Gs1  v124
 BYTE   W12
 BYTE   Gn1  v116
 BYTE   W06
 BYTE   PEND 
//  #07 //039   ----------------------------------------
 BYTE   PATT
  POIN2 Label_0103C6BF
//  #07 //040   ----------------------------------------
 BYTE   N06  Gn1  v124
 BYTE   W12
 BYTE   Gn1  v116
 BYTE   W12
 BYTE   Gs1  v127
 BYTE   W06
 BYTE   Gn1  v124
 BYTE   W12
 BYTE   Gn1  v116
 BYTE   W06
 BYTE   Gn1  v127
 BYTE   W06
 BYTE   Gn1  v116
 BYTE   W06
 BYTE   Gn1  v127
 BYTE   W06
 BYTE   Gn1  v116
 BYTE   W06
 BYTE   Gs1  v124
 BYTE   W06
 BYTE   Gn1  v116
 BYTE   W06
 BYTE   Gn1  v124
 BYTE   W12
//  #07 //041   ----------------------------------------
 BYTE   Gs1  v127
 BYTE   W12
 BYTE   Gn1  v116
 BYTE   W12
 BYTE   Gs1  v127
 BYTE   W06
 BYTE   Gn1  v124
 BYTE   W12
 BYTE   Gn1  v116
 BYTE   W06
 BYTE   Gn1  v127
 BYTE   W12
 BYTE   Gn1  v116
 BYTE   W12
 BYTE   Gs1  v127
 BYTE   W06
 BYTE   Gs1  v124
 BYTE   W12
 BYTE   Gn1  v116
 BYTE   W06
//  #07 //042   ----------------------------------------
 BYTE   Gn1  v124
 BYTE   W12
 BYTE   Gn1  v116
 BYTE   W12
 BYTE   Gs1  v124
 BYTE   W06
 BYTE   Gn1
 BYTE   W12
 BYTE   Gn1  v116
 BYTE   W06
 BYTE   Gn1  v127
 BYTE   W12
 BYTE   Gn1  v116
 BYTE   W12
 BYTE   Gs1  v127
 BYTE   W06
 BYTE   N06
 BYTE   W12
 BYTE   Gn1  v116
 BYTE   W06
//  #07 //043   ----------------------------------------
 BYTE   PATT
  POIN2 Label_0103C656
//  #07 //044   ----------------------------------------
 BYTE   N06  Gn1  v124
 BYTE   W12
 BYTE   Gn1  v116
 BYTE   W12
 BYTE   Gs1  v127
 BYTE   W06
 BYTE   Gn1  v124
 BYTE   W12
 BYTE   Gn1  v116
 BYTE   W06
 BYTE   Gn1  v127
 BYTE   W06
 BYTE   Gn1  v116
 BYTE   W06
 BYTE   Gn1  v127
 BYTE   W06
 BYTE   Gn1  v116
 BYTE   W06
 BYTE   Gs1  v127
 BYTE   W06
 BYTE   Gn1  v116
 BYTE   W06
 BYTE   Gn1  v124
 BYTE   W12
//  #07 //045   ----------------------------------------
 BYTE   Gs1
 BYTE   W18
 BYTE   Gn1  v127
 BYTE   W06
 BYTE   Gs1  v124
 BYTE   W12
 BYTE   Gn1
 BYTE   W06
 BYTE   Gs1  v127
 BYTE   W12
 BYTE   Gs1  v124
 BYTE   W06
 BYTE   Gn1
 BYTE   W06
 BYTE   Gn1  v116
 BYTE   W06
 BYTE   Gs1  v124
 BYTE   W12
 BYTE   Gn1
 BYTE   W06
 BYTE   Gs1  v127
 BYTE   W06
//  #07 //046   ----------------------------------------
Label_0103C789:
 BYTE   N06  Gn1  v127
 BYTE   W12
 BYTE   Gn1  v124
 BYTE   W06
 BYTE   Gn1  v116
 BYTE   W06
 BYTE   Gs1  v127
 BYTE   W06
 BYTE   Gn1  v116
 BYTE   W12
 BYTE   N06
 BYTE   W06
 BYTE   Gn1  v127
 BYTE   W12
 BYTE   N06
 BYTE   W06
 BYTE   Gn1  v116
 BYTE   W06
 BYTE   Gs1  v127
 BYTE   W06
 BYTE   Gn1  v124
 BYTE   W12
 BYTE   Gn1  v116
 BYTE   W06
 BYTE   PEND 
//  #07 //047   ----------------------------------------
 BYTE   PATT
  POIN2 Label_0103C789
//  #07 //048   ----------------------------------------
 BYTE   PATT
  POIN2 Label_0103C789
//  #07 //049   ----------------------------------------
Label_0103C7B7:
 BYTE   N06  Gn1  v127
 BYTE   W12
 BYTE   Gn1  v124
 BYTE   W06
 BYTE   Gn1  v116
 BYTE   W06
 BYTE   Gs1  v124
 BYTE   W06
 BYTE   Gn1  v116
 BYTE   W12
 BYTE   N06
 BYTE   W06
 BYTE   Gn1  v127
 BYTE   W12
 BYTE   N06
 BYTE   W06
 BYTE   Gn1  v116
 BYTE   W06
 BYTE   Gs1  v124
 BYTE   W06
 BYTE   Gn1
 BYTE   W12
 BYTE   Gn1  v116
 BYTE   W06
 BYTE   PEND 
//  #07 //050   ----------------------------------------
 BYTE   PATT
  POIN2 Label_0103C7B7
//  #07 //051   ----------------------------------------
 BYTE   PATT
  POIN2 Label_0103C789
//  #07 //052   ----------------------------------------
 BYTE   PATT
  POIN2 Label_0103C789
//  #07 //053   ----------------------------------------
 BYTE   N06  Gn1  v127
 BYTE   W12
 BYTE   Gn1  v124
 BYTE   W06
 BYTE   Gn1  v116
 BYTE   W06
 BYTE   Gs1  v127
 BYTE   W06
 BYTE   Gn1  v116
 BYTE   W12
 BYTE   N06
 BYTE   W06
 BYTE   Gn1  v127
 BYTE   W12
 BYTE   N06
 BYTE   W06
 BYTE   Gn1  v116
 BYTE   W06
 BYTE   Gs1  v124
 BYTE   W06
 BYTE   Gn1
 BYTE   W12
 BYTE   Gn1  v116
 BYTE   W06
//  #07 //054   ----------------------------------------
 BYTE   PATT
  POIN2 Label_0103C421
//  #07 //055   ----------------------------------------
 BYTE   PATT
  POIN2 Label_0103C421
//  #07 //056   ----------------------------------------
 BYTE   PATT
  POIN2 Label_0103C421
//  #07 //057   ----------------------------------------
 BYTE   PATT
  POIN2 Label_0103C458
//  #07 //058   ----------------------------------------
 BYTE   GoTo
  POIN2 Label_0103C489
 BYTE   FINE

//******************************************************//
	ALIGN 4

GuiltyGearXAdvanceVenomsThemeMeatOfJustice:
	BYTE	7	// NumTrks
	BYTE	0	// NumBlks
	BYTE	GuiltyGearXAdvanceVenomsThemeMeatOfJustice_pri	// Priority
	BYTE	GuiltyGearXAdvanceVenomsThemeMeatOfJustice_rev	// Reverb.
    
	POIN2	GuiltyGearXAdvanceVenomsThemeMeatOfJustice_grp
    
	POIN2	GuiltyGearXAdvanceVenomsThemeMeatOfJustice_001
	POIN2	GuiltyGearXAdvanceVenomsThemeMeatOfJustice_002
	POIN2	GuiltyGearXAdvanceVenomsThemeMeatOfJustice_003
	POIN2	GuiltyGearXAdvanceVenomsThemeMeatOfJustice_004
	POIN2	GuiltyGearXAdvanceVenomsThemeMeatOfJustice_005
	POIN2	GuiltyGearXAdvanceVenomsThemeMeatOfJustice_006
	POIN2	GuiltyGearXAdvanceVenomsThemeMeatOfJustice_007

	
