//Event file generated from Sappy .s format.
	#include "MPlayDef.event"

	#define	FE01BattleMap1RoyLili500_grp  voicegroup000
	#define	FE01BattleMap1RoyLili500_pri  0
	#define	FE01BattleMap1RoyLili500_rev  0
	#define	FE01BattleMap1RoyLili500_mvl  127
	#define	FE01BattleMap1RoyLili500_key  0
	#define	FE01BattleMap1RoyLili500_tbs  1
	#define	FE01BattleMap1RoyLili500_exg  0
	#define	FE01BattleMap1RoyLili500_cmp  1

	// .rodata
	//	FE01BattleMap1RoyLili500
	ALIGN 4


//**************** Track 1 (Midi-Chn.0) ****************//

FE01BattleMap1RoyLili500_001:
//  #01 //000   ----------------------------------------
 BYTE   VOL   80*FE01BattleMap1RoyLili500_mvl/mxv
 BYTE   KEYSH   FE01BattleMap1RoyLili500_key+0
 BYTE   TEMPO   132*FE01BattleMap1RoyLili500_tbs/2
 BYTE   VOICE   105
 BYTE   MODT 0
 BYTE   LFOS 44
 BYTE   W96
//  #01 //001   ----------------------------------------
 BYTE   W96
//  #01 //002   ----------------------------------------
 BYTE   W96
//  #01 //003   ----------------------------------------
 BYTE   W96
//  #01 //004   ----------------------------------------
 BYTE   W96
//  #01 //005   ----------------------------------------
 BYTE   W96
//  #01 //006   ----------------------------------------
 BYTE   W96
//  #01 //007   ----------------------------------------
 BYTE   W96
//  #01 //008   ----------------------------------------
Label_0106F8A0:
 BYTE   N96  Gn2  v060
 BYTE   N96  Bn2
 BYTE   W96
//  #01 //009   ----------------------------------------
 BYTE   Fn2
 BYTE   N96  An2
 BYTE   W96
//  #01 //010   ----------------------------------------
 BYTE   Gn2
 BYTE   N96  Bn2
 BYTE   W96
//  #01 //011   ----------------------------------------
 BYTE   Fn2
 BYTE   N96  An2
 BYTE   W96
//  #01 //012   ----------------------------------------
 BYTE   Gn2
 BYTE   N96  Bn2
 BYTE   W96
//  #01 //013   ----------------------------------------
 BYTE   Fn2
 BYTE   N96  An2
 BYTE   W96
//  #01 //014   ----------------------------------------
 BYTE   Gn2
 BYTE   N96  Bn2
 BYTE   W96
//  #01 //015   ----------------------------------------
 BYTE   Fn2
 BYTE   N96  An2
 BYTE   W96
//  #01 //016   ----------------------------------------
 BYTE   Gn2
 BYTE   N96  Bn2
 BYTE   W96
//  #01 //017   ----------------------------------------
 BYTE   Fn2
 BYTE   N96  An2
 BYTE   W96
//  #01 //018   ----------------------------------------
 BYTE   Gn2
 BYTE   N96  Bn2
 BYTE   W96
//  #01 //019   ----------------------------------------
 BYTE   Fn2
 BYTE   N96  An2
 BYTE   W96
//  #01 //020   ----------------------------------------
 BYTE   Gn2  v040
 BYTE   N96  Bn2
 BYTE   W96
//  #01 //021   ----------------------------------------
 BYTE   Fn2
 BYTE   N96  An2
 BYTE   W96
//  #01 //022   ----------------------------------------
 BYTE   Gn2
 BYTE   N96  Bn2
 BYTE   W96
//  #01 //023   ----------------------------------------
 BYTE   Fn2
 BYTE   N96  An2
 BYTE   W96
//  #01 //024   ----------------------------------------
 BYTE   W96
//  #01 //025   ----------------------------------------
 BYTE   W96
//  #01 //026   ----------------------------------------
 BYTE   W96
//  #01 //027   ----------------------------------------
 BYTE   W96
//  #01 //028   ----------------------------------------
 BYTE   W96
//  #01 //029   ----------------------------------------
 BYTE   W96
//  #01 //030   ----------------------------------------
 BYTE   W96
//  #01 //031   ----------------------------------------
 BYTE   W96
//  #01 //032   ----------------------------------------
 BYTE   W96
//  #01 //033   ----------------------------------------
 BYTE   W96
//  #01 //034   ----------------------------------------
 BYTE   W96
//  #01 //035   ----------------------------------------
 BYTE   W96
//  #01 //036   ----------------------------------------
 BYTE   GoTo
  POIN2 Label_0106F8A0
 BYTE   FINE

//**************** Track 2 (Midi-Chn.1) ****************//

FE01BattleMap1RoyLili500_002:
//  #02 //000   ----------------------------------------
 BYTE   KEYSH   FE01BattleMap1RoyLili500_key+0
 BYTE   VOICE   105
 BYTE   MODT 0
 BYTE   LFOS 44
 BYTE   VOL   62*FE01BattleMap1RoyLili500_mvl/mxv
 BYTE   PAN   c_v+0
 BYTE   N72  Dn3  v044
 BYTE   N72  Fs3  v060
 BYTE   W72
 BYTE   N04  Fs3  v048
 BYTE   N04  An3  v064
 BYTE   W17
 BYTE   N05  Fs3  v044
 BYTE   N06  An3  v060
 BYTE   W07
//  #02 //001   ----------------------------------------
Label_01411681:
 BYTE   N92  Dn3  v044
 BYTE   N92  Gn3  v060
 BYTE   W96
 BYTE   PEND 
//  #02 //002   ----------------------------------------
Label_01411689:
 BYTE   N80  Dn3  v044
 BYTE   N84  Gn3  v056
 BYTE   W88
 BYTE   W01
 BYTE   N06  Dn3  v044
 BYTE   N06  Gn3  v056
 BYTE   W07
 BYTE   PEND 
//  #02 //003   ----------------------------------------
Label_01411699:
 BYTE   N48  Dn3  v052
 BYTE   N48  Gn3  v068
 BYTE   W48
 BYTE   N44  Cn3  v048
 BYTE   N44  Fs3  v064
 BYTE   W48
 BYTE   PEND 
//  #02 //004   ----------------------------------------
 BYTE   N72  Dn3  v044
 BYTE   N72  Fs3  v060
 BYTE   W72
 BYTE   N04  Fs3  v048
 BYTE   N04  An3  v064
 BYTE   W17
 BYTE   N05  Fs3  v044
 BYTE   N06  An3  v060
 BYTE   W07
//  #02 //005   ----------------------------------------
 BYTE   PATT
  POIN2 Label_01411681
//  #02 //006   ----------------------------------------
 BYTE   PATT
  POIN2 Label_01411689
//  #02 //007   ----------------------------------------
 BYTE   PATT
  POIN2 Label_01411699
//  #02 //008   ----------------------------------------
Label_014116CC:
 BYTE   VOL   62*FE01BattleMap1RoyLili500_mvl/mxv
 BYTE   W96
//  #02 //009   ----------------------------------------
 BYTE   W96
//  #02 //010   ----------------------------------------
 BYTE   W96
//  #02 //011   ----------------------------------------
 BYTE   W96
//  #02 //012   ----------------------------------------
 BYTE   W96
//  #02 //013   ----------------------------------------
 BYTE   W96
//  #02 //014   ----------------------------------------
 BYTE   W96
//  #02 //015   ----------------------------------------
 BYTE   W96
//  #02 //016   ----------------------------------------
 BYTE   W96
//  #02 //017   ----------------------------------------
 BYTE   W96
//  #02 //018   ----------------------------------------
 BYTE   W96
//  #02 //019   ----------------------------------------
 BYTE   W96
//  #02 //020   ----------------------------------------
 BYTE   W96
//  #02 //021   ----------------------------------------
 BYTE   W96
//  #02 //022   ----------------------------------------
 BYTE   W96
//  #02 //023   ----------------------------------------
 BYTE   W96
//  #02 //024   ----------------------------------------
 BYTE   VOL   55*FE01BattleMap1RoyLili500_mvl/mxv
 BYTE   PAN   c_v+0
 BYTE   W12
 BYTE   N05  Dn4  v044
 BYTE   N05  Gn4  v060
 BYTE   W06
 BYTE   N06  Dn4  v044
 BYTE   N06  Gn4  v056
 BYTE   W06
 BYTE   N04  Dn4  v048
 BYTE   N04  Gn4  v064
 BYTE   W12
 BYTE   N05  Gn4  v044
 BYTE   N05  Bn4  v060
 BYTE   W06
 BYTE   N06  Gn4  v044
 BYTE   N06  Bn4  v056
 BYTE   W06
 BYTE   N04  Gn4  v048
 BYTE   N04  Bn4  v064
 BYTE   W12
 BYTE   N05  Fn4  v044
 BYTE   N05  An4  v060
 BYTE   W06
 BYTE   N06  Fn4  v044
 BYTE   N06  An4  v056
 BYTE   W06
 BYTE   N04  Fn4  v048
 BYTE   N04  An4  v064
 BYTE   W12
 BYTE   Dn4  v044
 BYTE   N04  Gn4  v060
 BYTE   W12
//  #02 //025   ----------------------------------------
Label_01411727:
 BYTE   W12
 BYTE   N05  Dn4  v044
 BYTE   N05  Gn4  v056
 BYTE   W06
 BYTE   N06  Dn4  v044
 BYTE   N06  Gn4  v056
 BYTE   W06
 BYTE   N04  Dn4  v048
 BYTE   N04  Gn4  v064
 BYTE   W12
 BYTE   N05  Gn4  v044
 BYTE   N05  Bn4  v060
 BYTE   W06
 BYTE   N06  Gn4  v044
 BYTE   N06  Bn4  v056
 BYTE   W06
 BYTE   N04  Gn4  v048
 BYTE   N04  Bn4  v064
 BYTE   W12
 BYTE   N05  Fn4  v044
 BYTE   N05  An4  v060
 BYTE   W06
 BYTE   N06  Fn4  v044
 BYTE   N06  An4  v056
 BYTE   W06
 BYTE   N04  Fn4  v048
 BYTE   N04  An4  v064
 BYTE   W12
 BYTE   Dn4  v044
 BYTE   N04  Gn4  v060
 BYTE   W12
 BYTE   PEND 
//  #02 //026   ----------------------------------------
 BYTE   PATT
  POIN2 Label_01411727
//  #02 //027   ----------------------------------------
 BYTE   W12
 BYTE   N05  Dn4  v044
 BYTE   N05  Gn4  v056
 BYTE   W06
 BYTE   N06  Dn4  v044
 BYTE   N06  Gn4  v056
 BYTE   W06
 BYTE   N04  Dn4  v048
 BYTE   N04  Gn4  v064
 BYTE   W12
 BYTE   N05  Gn4  v044
 BYTE   N05  Bn4  v060
 BYTE   W06
 BYTE   N06  Gn4  v044
 BYTE   N06  Bn4  v056
 BYTE   W06
 BYTE   N04  Gn4  v048
 BYTE   N04  Bn4  v064
 BYTE   W12
 BYTE   N05  Fn4  v044
 BYTE   N05  An4  v060
 BYTE   W06
 BYTE   N06  Fn4  v044
 BYTE   N06  An4  v056
 BYTE   W06
 BYTE   N04  Fn4  v048
 BYTE   N04  An4  v064
 BYTE   W12
 BYTE   Bn3  v044
 BYTE   N04  Dn4  v060
 BYTE   W12
//  #02 //028   ----------------------------------------
Label_014117B9:
 BYTE   N72  Dn4  v044
 BYTE   N72  Fs4  v060
 BYTE   W72
 BYTE   N04  Fs4  v048
 BYTE   N04  An4  v064
 BYTE   W17
 BYTE   N05  Fs4  v044
 BYTE   N06  An4  v060
 BYTE   W07
 BYTE   PEND 
//  #02 //029   ----------------------------------------
Label_014117CF:
 BYTE   N92  Dn4  v044
 BYTE   N92  Gn4  v060
 BYTE   W96
 BYTE   PEND 
//  #02 //030   ----------------------------------------
Label_014117D7:
 BYTE   N80  Dn4  v044
 BYTE   N84  Gn4  v056
 BYTE   W88
 BYTE   W01
 BYTE   N06  Dn4  v044
 BYTE   N06  Gn4  v056
 BYTE   W07
 BYTE   PEND 
//  #02 //031   ----------------------------------------
Label_014117E7:
 BYTE   N48  Dn4  v052
 BYTE   N48  Gn4  v068
 BYTE   W48
 BYTE   N44  Cn4  v048
 BYTE   N44  Fs4  v064
 BYTE   W48
 BYTE   PEND 
//  #02 //032   ----------------------------------------
 BYTE   PATT
  POIN2 Label_014117B9
//  #02 //033   ----------------------------------------
 BYTE   PATT
  POIN2 Label_014117CF
//  #02 //034   ----------------------------------------
 BYTE   PATT
  POIN2 Label_014117D7
//  #02 //035   ----------------------------------------
 BYTE   PATT
  POIN2 Label_014117E7
//  #02 //036   ----------------------------------------
 BYTE   GoTo
  POIN2 Label_014116CC
 BYTE   FINE

//**************** Track 3 (Midi-Chn.2) ****************//

FE01BattleMap1RoyLili500_003:
//  #03 //000   ----------------------------------------
 BYTE   KEYSH   FE01BattleMap1RoyLili500_key+0
 BYTE   VOICE   0
 BYTE   MODT 0
 BYTE   LFOS 44
 BYTE   W96
//  #03 //001   ----------------------------------------
 BYTE   W96
//  #03 //002   ----------------------------------------
 BYTE   W96
//  #03 //003   ----------------------------------------
 BYTE   W96
//  #03 //004   ----------------------------------------
 BYTE   W96
//  #03 //005   ----------------------------------------
 BYTE   W96
//  #03 //006   ----------------------------------------
 BYTE   W96
//  #03 //007   ----------------------------------------
 BYTE   W96
//  #03 //008   ----------------------------------------
Label_01411820:
 BYTE   VOL   80*FE01BattleMap1RoyLili500_mvl/mxv
 BYTE   W96
//  #03 //009   ----------------------------------------
 BYTE   W96
//  #03 //010   ----------------------------------------
 BYTE   W96
//  #03 //011   ----------------------------------------
 BYTE   W96
//  #03 //012   ----------------------------------------
 BYTE   W96
//  #03 //013   ----------------------------------------
 BYTE   W96
//  #03 //014   ----------------------------------------
 BYTE   W96
//  #03 //015   ----------------------------------------
 BYTE   W96
//  #03 //016   ----------------------------------------
 BYTE   VOL   62*FE01BattleMap1RoyLili500_mvl/mxv
 BYTE   PAN   c_v+0
 BYTE   N12  Bn3  v052
 BYTE   N12  Gn4  v068
 BYTE   W12
 BYTE   N11  Bn3  v044
 BYTE   N11  Gn4  v056
 BYTE   W12
 BYTE   Bn3  v048
 BYTE   N11  Gn4  v056
 BYTE   W12
 BYTE   Bn3  v044
 BYTE   N11  Gn4  v056
 BYTE   W12
 BYTE   Bn3  v048
 BYTE   N11  Gn4  v060
 BYTE   W12
 BYTE   Bn3  v044
 BYTE   N11  Gn4  v056
 BYTE   W12
 BYTE   Bn3  v048
 BYTE   N11  Gn4  v056
 BYTE   W12
 BYTE   Bn3  v044
 BYTE   N11  Gn4  v060
 BYTE   W12
//  #03 //017   ----------------------------------------
 BYTE   N12  An3  v052
 BYTE   N12  Fn4  v068
 BYTE   W12
 BYTE   N11  An3  v044
 BYTE   N11  Fn4  v056
 BYTE   W12
 BYTE   An3  v048
 BYTE   N11  Fn4  v056
 BYTE   W12
 BYTE   An3  v044
 BYTE   N11  Fn4  v056
 BYTE   W12
 BYTE   An3  v048
 BYTE   N11  Fn4  v060
 BYTE   W12
 BYTE   An3  v044
 BYTE   N11  Fn4  v056
 BYTE   W12
 BYTE   An3  v048
 BYTE   N11  Fn4  v056
 BYTE   W12
 BYTE   An3  v044
 BYTE   N11  Fn4  v060
 BYTE   W12
//  #03 //018   ----------------------------------------
 BYTE   N12  Bn3  v052
 BYTE   N12  Gn4  v068
 BYTE   W12
 BYTE   N11  Bn3  v044
 BYTE   N11  Gn4  v056
 BYTE   W12
 BYTE   Bn3  v048
 BYTE   N11  Gn4  v056
 BYTE   W12
 BYTE   Bn3  v044
 BYTE   N11  Gn4  v056
 BYTE   W12
 BYTE   Bn3  v048
 BYTE   N11  Gn4  v060
 BYTE   W12
 BYTE   Bn3  v044
 BYTE   N11  Gn4  v056
 BYTE   W12
 BYTE   Bn3  v048
 BYTE   N11  Gn4  v056
 BYTE   W12
 BYTE   Bn3  v044
 BYTE   N11  Gn4  v060
 BYTE   W12
//  #03 //019   ----------------------------------------
 BYTE   N12  An3  v052
 BYTE   N12  Fn4  v068
 BYTE   W12
 BYTE   N11  An3  v044
 BYTE   N11  Fn4  v056
 BYTE   W12
 BYTE   An3  v048
 BYTE   N11  Fn4  v056
 BYTE   W12
 BYTE   An3  v044
 BYTE   N11  Fn4  v056
 BYTE   W12
 BYTE   An3  v048
 BYTE   N11  Fn4  v060
 BYTE   W05
 BYTE   VOL   55*FE01BattleMap1RoyLili500_mvl/mxv
 BYTE   W07
 BYTE   N11  An3  v044
 BYTE   N11  Fn4  v056
 BYTE   W12
 BYTE   An3  v048
 BYTE   N11  Fn4  v056
 BYTE   W12
 BYTE   An3  v044
 BYTE   N11  Fn4  v060
 BYTE   W12
//  #03 //020   ----------------------------------------
Label_014118F9:
 BYTE   N12  Bn3  v052
 BYTE   N12  Gn4  v068
 BYTE   N12  Bn4
 BYTE   W12
 BYTE   N11  Bn3  v044
 BYTE   N11  Gn4  v056
 BYTE   N11  Bn4
 BYTE   W12
 BYTE   Bn3  v048
 BYTE   N11  Gn4  v056
 BYTE   N11  Bn4
 BYTE   W12
 BYTE   Bn3  v044
 BYTE   N11  Gn4  v056
 BYTE   N11  Bn4
 BYTE   W12
 BYTE   Bn3  v048
 BYTE   N11  Gn4  v060
 BYTE   N11  Bn4
 BYTE   W12
 BYTE   Bn3  v044
 BYTE   N11  Gn4  v056
 BYTE   N11  Bn4
 BYTE   W12
 BYTE   Bn3  v048
 BYTE   N11  Gn4  v056
 BYTE   N11  Bn4
 BYTE   W12
 BYTE   Bn3  v044
 BYTE   N11  Gn4  v060
 BYTE   N11  Bn4
 BYTE   W12
 BYTE   PEND 
//  #03 //021   ----------------------------------------
Label_0141193C:
 BYTE   N12  An3  v052
 BYTE   N12  Fn4  v068
 BYTE   N12  An4
 BYTE   W12
 BYTE   N11  An3  v044
 BYTE   N11  Fn4  v056
 BYTE   N11  An4
 BYTE   W12
 BYTE   An3  v048
 BYTE   N11  Fn4  v056
 BYTE   N11  An4
 BYTE   W12
 BYTE   An3  v044
 BYTE   N11  Fn4  v056
 BYTE   N11  An4
 BYTE   W12
 BYTE   An3  v048
 BYTE   N11  Fn4  v060
 BYTE   N11  An4
 BYTE   W12
 BYTE   An3  v044
 BYTE   N11  Fn4  v056
 BYTE   N11  An4
 BYTE   W12
 BYTE   An3  v048
 BYTE   N11  Fn4  v056
 BYTE   N11  An4
 BYTE   W12
 BYTE   An3  v044
 BYTE   N11  Fn4  v060
 BYTE   N11  An4
 BYTE   W12
 BYTE   PEND 
//  #03 //022   ----------------------------------------
 BYTE   PATT
  POIN2 Label_014118F9
//  #03 //023   ----------------------------------------
 BYTE   PATT
  POIN2 Label_0141193C
//  #03 //024   ----------------------------------------
 BYTE   W96
//  #03 //025   ----------------------------------------
 BYTE   W96
//  #03 //026   ----------------------------------------
 BYTE   W96
//  #03 //027   ----------------------------------------
 BYTE   W96
//  #03 //028   ----------------------------------------
 BYTE   W96
//  #03 //029   ----------------------------------------
 BYTE   W96
//  #03 //030   ----------------------------------------
 BYTE   W96
//  #03 //031   ----------------------------------------
 BYTE   W96
//  #03 //032   ----------------------------------------
 BYTE   W96
//  #03 //033   ----------------------------------------
 BYTE   W96
//  #03 //034   ----------------------------------------
 BYTE   W96
//  #03 //035   ----------------------------------------
 BYTE   W96
//  #03 //036   ----------------------------------------
 BYTE   GoTo
  POIN2 Label_01411820
 BYTE   FINE

//**************** Track 4 (Midi-Chn.3) ****************//

FE01BattleMap1RoyLili500_004:
//  #04 //000   ----------------------------------------
 BYTE   KEYSH   FE01BattleMap1RoyLili500_key+0
 BYTE   VOICE   104
 BYTE   MODT 0
 BYTE   LFOS 44
 BYTE   W96
//  #04 //001   ----------------------------------------
 BYTE   W96
//  #04 //002   ----------------------------------------
 BYTE   W96
//  #04 //003   ----------------------------------------
 BYTE   W96
//  #04 //004   ----------------------------------------
 BYTE   W96
//  #04 //005   ----------------------------------------
 BYTE   W96
//  #04 //006   ----------------------------------------
 BYTE   W96
//  #04 //007   ----------------------------------------
 BYTE   W96
//  #04 //008   ----------------------------------------
Label_014119AC:
 BYTE   VOL   62*FE01BattleMap1RoyLili500_mvl/mxv
 BYTE   PAN   c_v+0
 BYTE   VOL   62*FE01BattleMap1RoyLili500_mvl/mxv
 BYTE   N12  Bn3  v052
 BYTE   N12  Gn4  v068
 BYTE   W12
 BYTE   N05  Dn4  v060
 BYTE   W06
 BYTE   N06  Cn4
 BYTE   W06
 BYTE   N23  Bn3  v056
 BYTE   W36
 BYTE   N05  Bn3  v060
 BYTE   W06
 BYTE   N06  Cn4
 BYTE   W06
 BYTE   N04  Dn4  v056
 BYTE   W12
 BYTE   Bn3  v044
 BYTE   N04  Gn4  v060
 BYTE   W12
//  #04 //009   ----------------------------------------
 BYTE   N11  Bn3  v052
 BYTE   N12  Gn4  v068
 BYTE   W18
 BYTE   N06  An3  v044
 BYTE   N06  Fn4  v060
 BYTE   W06
 BYTE   N23  An3  v048
 BYTE   N23  Fn4  v064
 BYTE   W72
//  #04 //010   ----------------------------------------
Label_014119EA:
 BYTE   VOL   62*FE01BattleMap1RoyLili500_mvl/mxv
 BYTE   PAN   c_v+0
 BYTE   N11  Bn3  v052
 BYTE   N12  Gn4  v068
 BYTE   W12
 BYTE   N05  Dn4  v060
 BYTE   W06
 BYTE   N06  Cn4
 BYTE   W06
 BYTE   N23  Bn3  v056
 BYTE   W36
 BYTE   N05  Bn3  v060
 BYTE   W06
 BYTE   N06  Cn4
 BYTE   W06
 BYTE   N04  Dn4  v056
 BYTE   W12
 BYTE   Bn3  v044
 BYTE   N04  Gn4  v060
 BYTE   W12
 BYTE   PEND 
//  #04 //011   ----------------------------------------
Label_01411A12:
 BYTE   N11  Dn4  v052
 BYTE   N12  Bn4  v068
 BYTE   W18
 BYTE   N05  En4  v044
 BYTE   N06  Cn5  v060
 BYTE   W06
 BYTE   N23  Cn4  v048
 BYTE   N23  An4  v064
 BYTE   W72
 BYTE   PEND 
//  #04 //012   ----------------------------------------
 BYTE   N11  Bn3  v052
 BYTE   N12  Gn4  v068
 BYTE   W12
 BYTE   N05  Dn4  v060
 BYTE   W06
 BYTE   N06  Cn4
 BYTE   W06
 BYTE   N23  Bn3  v056
 BYTE   W36
 BYTE   N05  Bn3  v060
 BYTE   W06
 BYTE   N06  Cn4
 BYTE   W06
 BYTE   N04  Dn4  v056
 BYTE   W12
 BYTE   Bn3  v044
 BYTE   N04  Gn4  v060
 BYTE   W12
//  #04 //013   ----------------------------------------
 BYTE   N12  Bn3  v052
 BYTE   N12  Gn4  v068
 BYTE   W18
 BYTE   N06  An3  v044
 BYTE   N06  Fn4  v060
 BYTE   W06
 BYTE   N23  An3  v048
 BYTE   N23  Fn4  v064
 BYTE   W72
//  #04 //014   ----------------------------------------
 BYTE   PATT
  POIN2 Label_014119EA
//  #04 //015   ----------------------------------------
 BYTE   PATT
  POIN2 Label_01411A12
//  #04 //016   ----------------------------------------
 BYTE   W96
//  #04 //017   ----------------------------------------
 BYTE   W96
//  #04 //018   ----------------------------------------
 BYTE   W96
//  #04 //019   ----------------------------------------
 BYTE   W96
//  #04 //020   ----------------------------------------
 BYTE   W96
//  #04 //021   ----------------------------------------
 BYTE   W96
//  #04 //022   ----------------------------------------
 BYTE   W96
//  #04 //023   ----------------------------------------
 BYTE   W96
//  #04 //024   ----------------------------------------
 BYTE   VOL   55*FE01BattleMap1RoyLili500_mvl/mxv
 BYTE   PAN   c_v+0
 BYTE   W12
 BYTE   N05  Dn4  v044
 BYTE   N05  Gn4  v060
 BYTE   W06
 BYTE   N06  Dn4  v044
 BYTE   N06  Gn4  v056
 BYTE   W06
 BYTE   N04  Dn4  v048
 BYTE   N04  Gn4  v064
 BYTE   W12
 BYTE   N05  Gn4  v044
 BYTE   N05  Bn4  v060
 BYTE   W06
 BYTE   N06  Gn4  v044
 BYTE   N06  Bn4  v056
 BYTE   W06
 BYTE   N04  Gn4  v048
 BYTE   N04  Bn4  v064
 BYTE   W12
 BYTE   N05  Fn4  v044
 BYTE   N05  An4  v060
 BYTE   W06
 BYTE   N06  Fn4  v044
 BYTE   N06  An4  v056
 BYTE   W06
 BYTE   N04  Fn4  v048
 BYTE   N04  An4  v064
 BYTE   W12
 BYTE   Dn4  v044
 BYTE   N04  Gn4  v060
 BYTE   W12
//  #04 //025   ----------------------------------------
Label_01411ABC:
 BYTE   W12
 BYTE   N05  Dn4  v044
 BYTE   N05  Gn4  v056
 BYTE   W06
 BYTE   N06  Dn4  v044
 BYTE   N06  Gn4  v056
 BYTE   W06
 BYTE   N04  Dn4  v048
 BYTE   N04  Gn4  v064
 BYTE   W12
 BYTE   N05  Gn4  v044
 BYTE   N05  Bn4  v060
 BYTE   W06
 BYTE   N06  Gn4  v044
 BYTE   N06  Bn4  v056
 BYTE   W06
 BYTE   N04  Gn4  v048
 BYTE   N04  Bn4  v064
 BYTE   W12
 BYTE   N05  Fn4  v044
 BYTE   N05  An4  v060
 BYTE   W06
 BYTE   N06  Fn4  v044
 BYTE   N06  An4  v056
 BYTE   W06
 BYTE   N04  Fn4  v048
 BYTE   N04  An4  v064
 BYTE   W12
 BYTE   Dn4  v044
 BYTE   N04  Gn4  v060
 BYTE   W12
 BYTE   PEND 
//  #04 //026   ----------------------------------------
 BYTE   PATT
  POIN2 Label_01411ABC
//  #04 //027   ----------------------------------------
 BYTE   W12
 BYTE   N05  Dn4  v044
 BYTE   N05  Gn4  v056
 BYTE   W06
 BYTE   N06  Dn4  v044
 BYTE   N06  Gn4  v056
 BYTE   W06
 BYTE   N04  Dn4  v048
 BYTE   N04  Gn4  v064
 BYTE   W12
 BYTE   N05  Gn4  v044
 BYTE   N05  Bn4  v060
 BYTE   W06
 BYTE   N06  Gn4  v044
 BYTE   N06  Bn4  v056
 BYTE   W06
 BYTE   N04  Gn4  v048
 BYTE   N04  Bn4  v064
 BYTE   W12
 BYTE   N05  Fn4  v044
 BYTE   N05  An4  v060
 BYTE   W06
 BYTE   N06  Fn4  v044
 BYTE   N06  An4  v056
 BYTE   W06
 BYTE   N04  Fn4  v048
 BYTE   N04  An4  v064
 BYTE   W12
 BYTE   Bn3  v044
 BYTE   N04  Dn4  v060
 BYTE   W12
//  #04 //028   ----------------------------------------
 BYTE   W96
//  #04 //029   ----------------------------------------
 BYTE   W96
//  #04 //030   ----------------------------------------
 BYTE   W96
//  #04 //031   ----------------------------------------
 BYTE   W96
//  #04 //032   ----------------------------------------
 BYTE   W96
//  #04 //033   ----------------------------------------
 BYTE   W96
//  #04 //034   ----------------------------------------
 BYTE   W96
//  #04 //035   ----------------------------------------
 BYTE   W96
//  #04 //036   ----------------------------------------
 BYTE   GoTo
  POIN2 Label_014119AC
 BYTE   FINE

//**************** Track 5 (Midi-Chn.4) ****************//

FE01BattleMap1RoyLili500_005:
//  #05 //000   ----------------------------------------
 BYTE   KEYSH   FE01BattleMap1RoyLili500_key+0
 BYTE   VOICE   56
 BYTE   MODT 0
 BYTE   LFOS 44
 BYTE   W96
//  #05 //001   ----------------------------------------
 BYTE   W96
//  #05 //002   ----------------------------------------
 BYTE   W96
//  #05 //003   ----------------------------------------
 BYTE   W96
//  #05 //004   ----------------------------------------
 BYTE   W96
//  #05 //005   ----------------------------------------
 BYTE   W96
//  #05 //006   ----------------------------------------
 BYTE   W96
//  #05 //007   ----------------------------------------
 BYTE   W96
//  #05 //008   ----------------------------------------
Label_01411B6C:
 BYTE   VOL   32*FE01BattleMap1RoyLili500_mvl/mxv
 BYTE   PAN   c_v+0
 BYTE   N12  Bn2  v052
 BYTE   N12  Gn3  v068
 BYTE   W12
 BYTE   N05  Dn3  v060
 BYTE   W06
 BYTE   N06  Cn3
 BYTE   W06
 BYTE   N23  Bn2  v056
 BYTE   W36
 BYTE   N05  Bn2  v060
 BYTE   W06
 BYTE   N06  Cn3
 BYTE   W06
 BYTE   N04  Dn3  v056
 BYTE   W12
 BYTE   Bn2  v044
 BYTE   N04  Gn3  v060
 BYTE   W12
//  #05 //009   ----------------------------------------
 BYTE   N11  Bn2  v052
 BYTE   N12  Gn3  v068
 BYTE   W18
 BYTE   N06  An2  v044
 BYTE   N06  Fn3  v060
 BYTE   W06
 BYTE   N23  An2  v048
 BYTE   N23  Fn3  v064
 BYTE   W72
//  #05 //010   ----------------------------------------
Label_01411BA8:
 BYTE   VOL   32*FE01BattleMap1RoyLili500_mvl/mxv
 BYTE   PAN   c_v+0
 BYTE   N11  Bn2  v052
 BYTE   N12  Gn3  v068
 BYTE   W12
 BYTE   N05  Dn3  v060
 BYTE   W06
 BYTE   N06  Cn3
 BYTE   W06
 BYTE   N23  Bn2  v056
 BYTE   W36
 BYTE   N05  Bn2  v060
 BYTE   W06
 BYTE   N06  Cn3
 BYTE   W06
 BYTE   N04  Dn3  v056
 BYTE   W12
 BYTE   Bn2  v044
 BYTE   N04  Gn3  v060
 BYTE   W12
 BYTE   PEND 
//  #05 //011   ----------------------------------------
Label_01411BD0:
 BYTE   N11  Dn3  v052
 BYTE   N12  Bn3  v068
 BYTE   W18
 BYTE   N05  En3  v044
 BYTE   N06  Cn4  v060
 BYTE   W06
 BYTE   N23  Cn3  v048
 BYTE   N23  An3  v064
 BYTE   W72
 BYTE   PEND 
//  #05 //012   ----------------------------------------
 BYTE   N11  Bn2  v052
 BYTE   N12  Gn3  v068
 BYTE   W12
 BYTE   N05  Dn3  v060
 BYTE   W06
 BYTE   N06  Cn3
 BYTE   W06
 BYTE   N23  Bn2  v056
 BYTE   W36
 BYTE   N05  Bn2  v060
 BYTE   W06
 BYTE   N06  Cn3
 BYTE   W06
 BYTE   N04  Dn3  v056
 BYTE   W12
 BYTE   Bn2  v044
 BYTE   N04  Gn3  v060
 BYTE   W12
//  #05 //013   ----------------------------------------
 BYTE   N12  Bn2  v052
 BYTE   N12  Gn3  v068
 BYTE   W18
 BYTE   N06  An2  v044
 BYTE   N06  Fn3  v060
 BYTE   W06
 BYTE   N23  An2  v048
 BYTE   N23  Fn3  v064
 BYTE   W72
//  #05 //014   ----------------------------------------
 BYTE   PATT
  POIN2 Label_01411BA8
//  #05 //015   ----------------------------------------
 BYTE   PATT
  POIN2 Label_01411BD0
//  #05 //016   ----------------------------------------
 BYTE   W96
//  #05 //017   ----------------------------------------
 BYTE   W96
//  #05 //018   ----------------------------------------
 BYTE   W96
//  #05 //019   ----------------------------------------
 BYTE   W96
//  #05 //020   ----------------------------------------
 BYTE   W96
//  #05 //021   ----------------------------------------
 BYTE   W96
//  #05 //022   ----------------------------------------
 BYTE   W96
//  #05 //023   ----------------------------------------
 BYTE   W96
//  #05 //024   ----------------------------------------
 BYTE   W96
//  #05 //025   ----------------------------------------
 BYTE   W96
//  #05 //026   ----------------------------------------
 BYTE   W96
//  #05 //027   ----------------------------------------
 BYTE   W96
//  #05 //028   ----------------------------------------
 BYTE   W96
//  #05 //029   ----------------------------------------
 BYTE   W96
//  #05 //030   ----------------------------------------
 BYTE   W96
//  #05 //031   ----------------------------------------
 BYTE   W96
//  #05 //032   ----------------------------------------
 BYTE   W96
//  #05 //033   ----------------------------------------
 BYTE   W96
//  #05 //034   ----------------------------------------
 BYTE   W96
//  #05 //035   ----------------------------------------
 BYTE   W96
//  #05 //036   ----------------------------------------
 BYTE   GoTo
  POIN2 Label_01411B6C
 BYTE   FINE

//**************** Track 6 (Midi-Chn.5) ****************//

FE01BattleMap1RoyLili500_006:
//  #06 //000   ----------------------------------------
 BYTE   KEYSH   FE01BattleMap1RoyLili500_key+0
 BYTE   VOICE   61
 BYTE   MODT 0
 BYTE   LFOS 44
 BYTE   W96
//  #06 //001   ----------------------------------------
 BYTE   W96
//  #06 //002   ----------------------------------------
 BYTE   W96
//  #06 //003   ----------------------------------------
 BYTE   W96
//  #06 //004   ----------------------------------------
 BYTE   W96
//  #06 //005   ----------------------------------------
 BYTE   W96
//  #06 //006   ----------------------------------------
 BYTE   W96
//  #06 //007   ----------------------------------------
 BYTE   W96
//  #06 //008   ----------------------------------------
Label_0106F918:
 BYTE   VOL   80*FE01BattleMap1RoyLili500_mvl/mxv
 BYTE   W96
//  #06 //009   ----------------------------------------
 BYTE   W96
//  #06 //010   ----------------------------------------
 BYTE   W96
//  #06 //011   ----------------------------------------
 BYTE   W96
//  #06 //012   ----------------------------------------
 BYTE   W96
//  #06 //013   ----------------------------------------
 BYTE   W96
//  #06 //014   ----------------------------------------
 BYTE   W96
//  #06 //015   ----------------------------------------
 BYTE   W96
//  #06 //016   ----------------------------------------
 BYTE   VOL   62*FE01BattleMap1RoyLili500_mvl/mxv
 BYTE   PAN   c_v+0
 BYTE   N11  Gn3  v060
 BYTE   W12
 BYTE   N06  Dn3  v056
 BYTE   W06
 BYTE   Cn3
 BYTE   W06
 BYTE   N22  Bn2  v048
 BYTE   W36
 BYTE   N06  Bn2  v056
 BYTE   W06
 BYTE   Cn3
 BYTE   W06
 BYTE   Dn3  v048
 BYTE   W12
 BYTE   N04  Gn3  v056
 BYTE   W12
//  #06 //017   ----------------------------------------
 BYTE   N11  Gn3  v060
 BYTE   W18
 BYTE   N06  Fn3  v056
 BYTE   W06
 BYTE   N23
 BYTE   W36
 BYTE   N13  Dn3
 BYTE   W12
 BYTE   Cn3
 BYTE   W12
 BYTE   N10  Bn2  v048
 BYTE   W12
//  #06 //018   ----------------------------------------
Label_0106F953:
 BYTE   N11  Gn3  v060
 BYTE   W12
 BYTE   N06  Dn3  v056
 BYTE   W06
 BYTE   Cn3
 BYTE   W06
 BYTE   N22  Bn2  v048
 BYTE   W36
 BYTE   N06  Bn2  v056
 BYTE   W06
 BYTE   Cn3
 BYTE   W06
 BYTE   Dn3  v048
 BYTE   W12
 BYTE   N04  Gn3  v056
 BYTE   W12
 BYTE   PEND 
//  #06 //019   ----------------------------------------
 BYTE   N12  Bn3  v060
 BYTE   W18
 BYTE   N05  Cn4  v056
 BYTE   W06
 BYTE   N23  An3
 BYTE   W28
 BYTE   W01
 BYTE   VOL   55*FE01BattleMap1RoyLili500_mvl/mxv
 BYTE   W42
 BYTE   W01
//  #06 //020   ----------------------------------------
 BYTE   PATT
  POIN2 Label_0106F953
//  #06 //021   ----------------------------------------
 BYTE   N11  Gn3  v060
 BYTE   W18
 BYTE   N06  Fn3  v056
 BYTE   W06
 BYTE   N23
 BYTE   W36
 BYTE   N13  Dn3
 BYTE   W12
 BYTE   Cn3
 BYTE   W12
 BYTE   N10  Bn2  v048
 BYTE   W11
 BYTE   N11  Gn3  v060
 BYTE   W01
//  #06 //022   ----------------------------------------
 BYTE   W12
 BYTE   N06  Dn3  v056
 BYTE   W06
 BYTE   Cn3
 BYTE   W06
 BYTE   N22  Bn2  v048
 BYTE   W36
 BYTE   N06  Bn2  v056
 BYTE   W06
 BYTE   Cn3
 BYTE   W06
 BYTE   Dn3  v048
 BYTE   W12
 BYTE   N04  Gn3  v056
 BYTE   W12
//  #06 //023   ----------------------------------------
 BYTE   N12  Bn3  v060
 BYTE   W18
 BYTE   N05  Cn4  v056
 BYTE   W06
 BYTE   N23  An3
 BYTE   W72
//  #06 //024   ----------------------------------------
 BYTE   W96
//  #06 //025   ----------------------------------------
 BYTE   W96
//  #06 //026   ----------------------------------------
 BYTE   W96
//  #06 //027   ----------------------------------------
 BYTE   W96
//  #06 //028   ----------------------------------------
 BYTE   W96
//  #06 //029   ----------------------------------------
 BYTE   W96
//  #06 //030   ----------------------------------------
 BYTE   W96
//  #06 //031   ----------------------------------------
 BYTE   W96
//  #06 //032   ----------------------------------------
 BYTE   W96
//  #06 //033   ----------------------------------------
 BYTE   W96
//  #06 //034   ----------------------------------------
 BYTE   W96
//  #06 //035   ----------------------------------------
 BYTE   W96
//  #06 //036   ----------------------------------------
 BYTE   GoTo
  POIN2 Label_0106F918
 BYTE   FINE

//**************** Track 7 (Midi-Chn.6) ****************//

FE01BattleMap1RoyLili500_007:
//  #07 //000   ----------------------------------------
 BYTE   KEYSH   FE01BattleMap1RoyLili500_key+0
 BYTE   VOICE   78
 BYTE   MODT 0
 BYTE   LFOS 44
 BYTE   W96
//  #07 //001   ----------------------------------------
 BYTE   W96
//  #07 //002   ----------------------------------------
 BYTE   W96
//  #07 //003   ----------------------------------------
 BYTE   W96
//  #07 //004   ----------------------------------------
 BYTE   W96
//  #07 //005   ----------------------------------------
 BYTE   W96
//  #07 //006   ----------------------------------------
 BYTE   W96
//  #07 //007   ----------------------------------------
 BYTE   W96
//  #07 //008   ----------------------------------------
Label_01411C54:
 BYTE   VOL   80*FE01BattleMap1RoyLili500_mvl/mxv
 BYTE   W96
//  #07 //009   ----------------------------------------
Label_01411C57:
 BYTE   W48
 BYTE   VOL   62*FE01BattleMap1RoyLili500_mvl/mxv
 BYTE   PAN   c_v+0
 BYTE   N01  An3  v048
 BYTE   N01  Fn4  v064
 BYTE   W12
 BYTE   N11  Dn4  v060
 BYTE   W12
 BYTE   Cn4
 BYTE   W12
 BYTE   Bn3  v056
 BYTE   W12
 BYTE   PEND 
//  #07 //010   ----------------------------------------
 BYTE   W96
//  #07 //011   ----------------------------------------
 BYTE   W96
//  #07 //012   ----------------------------------------
 BYTE   W96
//  #07 //013   ----------------------------------------
 BYTE   PATT
  POIN2 Label_01411C57
//  #07 //014   ----------------------------------------
 BYTE   W96
//  #07 //015   ----------------------------------------
 BYTE   W96
//  #07 //016   ----------------------------------------
 BYTE   W96
//  #07 //017   ----------------------------------------
 BYTE   W96
//  #07 //018   ----------------------------------------
 BYTE   W96
//  #07 //019   ----------------------------------------
 BYTE   W96
//  #07 //020   ----------------------------------------
 BYTE   W96
//  #07 //021   ----------------------------------------
 BYTE   W96
//  #07 //022   ----------------------------------------
 BYTE   W96
//  #07 //023   ----------------------------------------
 BYTE   W96
//  #07 //024   ----------------------------------------
 BYTE   W96
//  #07 //025   ----------------------------------------
 BYTE   W96
//  #07 //026   ----------------------------------------
 BYTE   W96
//  #07 //027   ----------------------------------------
 BYTE   W96
//  #07 //028   ----------------------------------------
 BYTE   W96
//  #07 //029   ----------------------------------------
 BYTE   W96
//  #07 //030   ----------------------------------------
 BYTE   W96
//  #07 //031   ----------------------------------------
 BYTE   W96
//  #07 //032   ----------------------------------------
 BYTE   W96
//  #07 //033   ----------------------------------------
 BYTE   W96
//  #07 //034   ----------------------------------------
 BYTE   W96
//  #07 //035   ----------------------------------------
 BYTE   W96
//  #07 //036   ----------------------------------------
 BYTE   GoTo
  POIN2 Label_01411C54
 BYTE   FINE

//**************** Track 8 (Midi-Chn.7) ****************//

FE01BattleMap1RoyLili500_008:
//  #08 //000   ----------------------------------------
 BYTE   KEYSH   FE01BattleMap1RoyLili500_key+0
 BYTE   VOICE   33
 BYTE   MODT 0
 BYTE   LFOS 44
 BYTE   VOL   72*FE01BattleMap1RoyLili500_mvl/mxv
 BYTE   PAN   c_v+0
 BYTE   N14  Cn2  v056
 BYTE   W12
 BYTE   N06  An2  v048
 BYTE   W12
 BYTE   N13  Cn2  v056
 BYTE   W12
 BYTE   N06  An2  v048
 BYTE   W12
 BYTE   N13  Cn2  v056
 BYTE   W12
 BYTE   N06  An2  v048
 BYTE   W12
 BYTE   N13  Cn2  v056
 BYTE   W12
 BYTE   N06  An2  v048
 BYTE   W12
//  #08 //001   ----------------------------------------
Label_01411CC0:
 BYTE   N14  Bn1  v056
 BYTE   W12
 BYTE   N06  Gn2  v048
 BYTE   W12
 BYTE   N13  Bn1  v056
 BYTE   W12
 BYTE   N06  Gn2  v048
 BYTE   W12
 BYTE   N13  Bn1  v056
 BYTE   W12
 BYTE   N06  Gn2  v048
 BYTE   W12
 BYTE   N13  Bn1  v056
 BYTE   W12
 BYTE   N06  Gn2  v048
 BYTE   W12
 BYTE   PEND 
//  #08 //002   ----------------------------------------
Label_01411CE1:
 BYTE   N14  As1  v056
 BYTE   W12
 BYTE   N06  Gn2  v048
 BYTE   W12
 BYTE   N13  As1  v056
 BYTE   W12
 BYTE   N06  Gn2  v048
 BYTE   W12
 BYTE   N13  As1  v056
 BYTE   W12
 BYTE   N06  Gn2  v048
 BYTE   W12
 BYTE   N13  As1  v056
 BYTE   W12
 BYTE   N06  Gn2  v048
 BYTE   W12
 BYTE   PEND 
//  #08 //003   ----------------------------------------
Label_01411D02:
 BYTE   N14  An1  v056
 BYTE   W12
 BYTE   N06  Gn2  v048
 BYTE   W12
 BYTE   N13  An1  v056
 BYTE   W12
 BYTE   N06  Gn2  v048
 BYTE   W12
 BYTE   N13  Dn2  v056
 BYTE   W12
 BYTE   N06  An2  v048
 BYTE   W12
 BYTE   N13  Dn2  v056
 BYTE   W12
 BYTE   N06  An2  v048
 BYTE   W12
 BYTE   PEND 
//  #08 //004   ----------------------------------------
Label_01411D23:
 BYTE   N14  Cn2  v056
 BYTE   W12
 BYTE   N06  An2  v048
 BYTE   W12
 BYTE   N13  Cn2  v056
 BYTE   W12
 BYTE   N06  An2  v048
 BYTE   W12
 BYTE   N13  Cn2  v056
 BYTE   W12
 BYTE   N06  An2  v048
 BYTE   W12
 BYTE   N13  Cn2  v056
 BYTE   W12
 BYTE   N06  An2  v048
 BYTE   W12
 BYTE   PEND 
//  #08 //005   ----------------------------------------
 BYTE   PATT
  POIN2 Label_01411CC0
//  #08 //006   ----------------------------------------
 BYTE   PATT
  POIN2 Label_01411CE1
//  #08 //007   ----------------------------------------
 BYTE   PATT
  POIN2 Label_01411D02
//  #08 //008   ----------------------------------------
Label_01411D53:
 BYTE   VOL   72*FE01BattleMap1RoyLili500_mvl/mxv
 BYTE   N12  Gn1  v060
 BYTE   W12
 BYTE   N04  Gn2  v056
 BYTE   W12
 BYTE   N12  Gn1
 BYTE   W11
 BYTE   N06  Gn2
 BYTE   W12
 BYTE   N12  Gn1
 BYTE   W12
 BYTE   N04  Gn2
 BYTE   W13
 BYTE   N12  Gn1
 BYTE   W11
 BYTE   N04  Gn2
 BYTE   W13
//  #08 //009   ----------------------------------------
Label_01411D6F:
 BYTE   N12  Fn1  v060
 BYTE   W12
 BYTE   N04  Fn2  v056
 BYTE   W12
 BYTE   N12  Fn1
 BYTE   W11
 BYTE   N04  Fn2
 BYTE   W13
 BYTE   N12  Fn1
 BYTE   W11
 BYTE   N04  Fn2
 BYTE   W13
 BYTE   N12  Fn1
 BYTE   W11
 BYTE   N04  Fn2
 BYTE   W12
 BYTE   N12  Gn1  v060
 BYTE   W01
 BYTE   PEND 
//  #08 //010   ----------------------------------------
Label_01411D8E:
 BYTE   W11
 BYTE   N04  Gn2  v056
 BYTE   W13
 BYTE   N12  Gn1
 BYTE   W11
 BYTE   N06  Gn2
 BYTE   W12
 BYTE   N12  Gn1
 BYTE   W12
 BYTE   N04  Gn2
 BYTE   W13
 BYTE   N12  Gn1
 BYTE   W11
 BYTE   N04  Gn2
 BYTE   W12
 BYTE   N12  Fn1  v060
 BYTE   W01
 BYTE   PEND 
//  #08 //011   ----------------------------------------
Label_01411DAA:
 BYTE   W11
 BYTE   N04  Fn2  v056
 BYTE   W13
 BYTE   N12  Fn1
 BYTE   W11
 BYTE   N04  Fn2
 BYTE   W13
 BYTE   N12  Fn1
 BYTE   W11
 BYTE   N04  Fn2
 BYTE   W13
 BYTE   N12  Fn1
 BYTE   W11
 BYTE   N04  Fn2
 BYTE   W12
 BYTE   N12  Gn1  v060
 BYTE   W01
 BYTE   PEND 
//  #08 //012   ----------------------------------------
Label_01411DC6:
 BYTE   W11
 BYTE   N04  Gn2  v056
 BYTE   W12
 BYTE   N12  Gn1
 BYTE   W12
 BYTE   N06  Gn2
 BYTE   W12
 BYTE   N12  Gn1
 BYTE   W12
 BYTE   N04  Gn2
 BYTE   W12
 BYTE   N12  Gn1
 BYTE   W12
 BYTE   N04  Gn2
 BYTE   W12
 BYTE   N12  Fn1  v060
 BYTE   W01
 BYTE   PEND 
//  #08 //013   ----------------------------------------
Label_01411DE2:
 BYTE   W11
 BYTE   N04  Fn2  v056
 BYTE   W12
 BYTE   N12  Fn1
 BYTE   W12
 BYTE   N04  Fn2
 BYTE   W12
 BYTE   N12  Fn1
 BYTE   W12
 BYTE   N04  Fn2
 BYTE   W12
 BYTE   N12  Fn1
 BYTE   W12
 BYTE   N04  Fn2
 BYTE   W12
 BYTE   N12  Gn1  v060
 BYTE   W01
 BYTE   PEND 
//  #08 //014   ----------------------------------------
 BYTE   PATT
  POIN2 Label_01411DC6
//  #08 //015   ----------------------------------------
Label_01411E03:
 BYTE   W11
 BYTE   N04  Fn2  v056
 BYTE   W12
 BYTE   N12  Fn1
 BYTE   W12
 BYTE   N04  Fn2
 BYTE   W12
 BYTE   N12  Fn1
 BYTE   W12
 BYTE   N04  Fn2
 BYTE   W12
 BYTE   N12  Fn1
 BYTE   W12
 BYTE   N04  Fn2
 BYTE   W13
 BYTE   PEND 
//  #08 //016   ----------------------------------------
 BYTE   VOL   72*FE01BattleMap1RoyLili500_mvl/mxv
 BYTE   PAN   c_v+0
 BYTE   N12  Gn1  v060
 BYTE   W12
 BYTE   N04  Gn2  v056
 BYTE   W12
 BYTE   N12  Gn1
 BYTE   W11
 BYTE   N06  Gn2
 BYTE   W12
 BYTE   N12  Gn1
 BYTE   W12
 BYTE   N04  Gn2
 BYTE   W13
 BYTE   N12  Gn1
 BYTE   W11
 BYTE   N04  Gn2
 BYTE   W13
//  #08 //017   ----------------------------------------
 BYTE   PATT
  POIN2 Label_01411D6F
//  #08 //018   ----------------------------------------
 BYTE   PATT
  POIN2 Label_01411D8E
//  #08 //019   ----------------------------------------
 BYTE   PATT
  POIN2 Label_01411DAA
//  #08 //020   ----------------------------------------
 BYTE   PATT
  POIN2 Label_01411DC6
//  #08 //021   ----------------------------------------
 BYTE   PATT
  POIN2 Label_01411DE2
//  #08 //022   ----------------------------------------
 BYTE   PATT
  POIN2 Label_01411DC6
//  #08 //023   ----------------------------------------
 BYTE   PATT
  POIN2 Label_01411E03
//  #08 //024   ----------------------------------------
 BYTE   VOL   65*FE01BattleMap1RoyLili500_mvl/mxv
 BYTE   PAN   c_v+0
 BYTE   N05  Gn2  v060
 BYTE   W12
 BYTE   Gn2  v056
 BYTE   W06
 BYTE   N06
 BYTE   W06
 BYTE   N04
 BYTE   W12
 BYTE   N05
 BYTE   W06
 BYTE   N06
 BYTE   W06
 BYTE   N04
 BYTE   W12
 BYTE   N05
 BYTE   W06
 BYTE   N06
 BYTE   W06
 BYTE   N04
 BYTE   W12
 BYTE   N05
 BYTE   W05
 BYTE   N05
 BYTE   W07
//  #08 //025   ----------------------------------------
 BYTE   Fn2  v060
 BYTE   W12
 BYTE   Fn2  v056
 BYTE   W06
 BYTE   N06
 BYTE   W06
 BYTE   N04
 BYTE   W12
 BYTE   N05
 BYTE   W06
 BYTE   N06
 BYTE   W06
 BYTE   N04
 BYTE   W12
 BYTE   N05
 BYTE   W06
 BYTE   N06
 BYTE   W06
 BYTE   N04
 BYTE   W12
 BYTE   N05
 BYTE   W05
 BYTE   N05
 BYTE   W07
//  #08 //026   ----------------------------------------
 BYTE   En2  v060
 BYTE   W12
 BYTE   En2  v056
 BYTE   W06
 BYTE   N06
 BYTE   W06
 BYTE   N04
 BYTE   W12
 BYTE   N05
 BYTE   W06
 BYTE   N06
 BYTE   W06
 BYTE   N04
 BYTE   W12
 BYTE   N05
 BYTE   W06
 BYTE   N06
 BYTE   W06
 BYTE   N04
 BYTE   W12
 BYTE   N05
 BYTE   W05
 BYTE   N05
 BYTE   W07
//  #08 //027   ----------------------------------------
 BYTE   Ds2  v060
 BYTE   W12
 BYTE   Ds2  v056
 BYTE   W06
 BYTE   N06
 BYTE   W06
 BYTE   N04
 BYTE   W12
 BYTE   N05
 BYTE   W06
 BYTE   N05
 BYTE   W06
 BYTE   N04  Dn2
 BYTE   W12
 BYTE   N05
 BYTE   W06
 BYTE   N06
 BYTE   W06
 BYTE   N04
 BYTE   W12
 BYTE   N05
 BYTE   N04  Bn3  v044
 BYTE   W05
 BYTE   N05  Dn2  v056
 BYTE   W07
//  #08 //028   ----------------------------------------
 BYTE   PATT
  POIN2 Label_01411D23
//  #08 //029   ----------------------------------------
 BYTE   PATT
  POIN2 Label_01411CC0
//  #08 //030   ----------------------------------------
 BYTE   PATT
  POIN2 Label_01411CE1
//  #08 //031   ----------------------------------------
 BYTE   PATT
  POIN2 Label_01411D02
//  #08 //032   ----------------------------------------
 BYTE   PATT
  POIN2 Label_01411D23
//  #08 //033   ----------------------------------------
 BYTE   PATT
  POIN2 Label_01411CC0
//  #08 //034   ----------------------------------------
 BYTE   PATT
  POIN2 Label_01411CE1
//  #08 //035   ----------------------------------------
 BYTE   N14  An1  v040
 BYTE   W12
 BYTE   N06  Gn2  v036
 BYTE   W12
 BYTE   N13  An1  v040
 BYTE   W12
 BYTE   N06  Gn2  v036
 BYTE   W12
 BYTE   N13  Dn2  v040
 BYTE   W12
 BYTE   N06  An2  v036
 BYTE   W12
 BYTE   N13  Dn2  v040
 BYTE   W12
 BYTE   N06  An2  v036
 BYTE   W12
//  #08 //036   ----------------------------------------
 BYTE   GoTo
  POIN2 Label_01411D53
 BYTE   FINE

//**************** Track 9 (Midi-Chn.8) ****************//

FE01BattleMap1RoyLili500_009:
//  #09 //000   ----------------------------------------
 BYTE   VOL   127*FE01BattleMap1RoyLili500_mvl/mxv
 BYTE   KEYSH   FE01BattleMap1RoyLili500_key+0
 BYTE   VOICE   124
 BYTE   MODT 0
 BYTE   LFOS 44
 BYTE   N11  Gn1  v056
 BYTE   W24
 BYTE   N11
 BYTE   W24
 BYTE   N11
 BYTE   W24
 BYTE   Dn1
 BYTE   N11  Gn1
 BYTE   W24
//  #09 //001   ----------------------------------------
Label_01411F2E:
 BYTE   N11  Gn1  v056
 BYTE   W24
 BYTE   N11
 BYTE   W24
 BYTE   N11
 BYTE   W24
 BYTE   Dn1
 BYTE   N11  Gn1
 BYTE   W24
 BYTE   PEND 
//  #09 //002   ----------------------------------------
 BYTE   PATT
  POIN2 Label_01411F2E
//  #09 //003   ----------------------------------------
 BYTE   PATT
  POIN2 Label_01411F2E
//  #09 //004   ----------------------------------------
 BYTE   PATT
  POIN2 Label_01411F2E
//  #09 //005   ----------------------------------------
 BYTE   PATT
  POIN2 Label_01411F2E
//  #09 //006   ----------------------------------------
 BYTE   PATT
  POIN2 Label_01411F2E
//  #09 //007   ----------------------------------------
 BYTE   PATT
  POIN2 Label_01411F2E
//  #09 //008   ----------------------------------------
Label_01411F59:
 BYTE   N11  Gn1  v056
 BYTE   N12  Cs2  v060
 BYTE   W12
 BYTE   N06  As1  v032
 BYTE   W06
 BYTE   Fs1  v028
 BYTE   W06
 BYTE   N11  Dn1  v056
 BYTE   W12
 BYTE   N06  As1
 BYTE   W06
 BYTE   Fs1  v032
 BYTE   W18
 BYTE   As1  v056
 BYTE   W06
 BYTE   Fs1  v032
 BYTE   W06
 BYTE   N11  Dn1  v056
 BYTE   W12
 BYTE   N06  As1
 BYTE   W06
 BYTE   Fs1  v032
 BYTE   W06
//  #09 //009   ----------------------------------------
Label_01411F81:
 BYTE   N11  Gn1  v056
 BYTE   W12
 BYTE   N06  As1  v036
 BYTE   W06
 BYTE   Fs1  v032
 BYTE   W06
 BYTE   N11  Dn1  v056
 BYTE   W12
 BYTE   N06  As1  v024
 BYTE   W06
 BYTE   Fs1  v032
 BYTE   W18
 BYTE   As1  v024
 BYTE   W06
 BYTE   Fs1  v032
 BYTE   W06
 BYTE   N11  Dn1  v056
 BYTE   W12
 BYTE   N06  As1  v024
 BYTE   W06
 BYTE   Fs1  v032
 BYTE   W06
 BYTE   PEND 
//  #09 //010   ----------------------------------------
 BYTE   PATT
  POIN2 Label_01411F81
//  #09 //011   ----------------------------------------
 BYTE   PATT
  POIN2 Label_01411F81
//  #09 //012   ----------------------------------------
 BYTE   PATT
  POIN2 Label_01411F81
//  #09 //013   ----------------------------------------
 BYTE   PATT
  POIN2 Label_01411F81
//  #09 //014   ----------------------------------------
 BYTE   PATT
  POIN2 Label_01411F81
//  #09 //015   ----------------------------------------
 BYTE   PATT
  POIN2 Label_01411F81
//  #09 //016   ----------------------------------------
 BYTE   N11  Gn1  v056
 BYTE   N12  Cs2  v060
 BYTE   W12
 BYTE   N06  As1  v020
 BYTE   W06
 BYTE   Fs1  v032
 BYTE   W06
 BYTE   N11  Dn1  v056
 BYTE   W12
 BYTE   N06  As1  v032
 BYTE   W06
 BYTE   Fs1
 BYTE   W18
 BYTE   As1
 BYTE   W06
 BYTE   Fs1
 BYTE   W06
 BYTE   N11  Dn1  v056
 BYTE   W12
 BYTE   N06  As1  v032
 BYTE   W06
 BYTE   Fs1
 BYTE   W06
//  #09 //017   ----------------------------------------
Label_01411FED:
 BYTE   N11  Gn1  v056
 BYTE   W12
 BYTE   N06  As1  v024
 BYTE   W06
 BYTE   Fs1  v032
 BYTE   W06
 BYTE   N11  Dn1  v056
 BYTE   W12
 BYTE   N06  As1  v024
 BYTE   W06
 BYTE   Fs1  v032
 BYTE   W18
 BYTE   As1  v024
 BYTE   W06
 BYTE   Fs1  v032
 BYTE   W06
 BYTE   N11  Dn1  v056
 BYTE   W12
 BYTE   N06  As1  v024
 BYTE   W06
 BYTE   Fs1  v032
 BYTE   W06
 BYTE   PEND 
//  #09 //018   ----------------------------------------
 BYTE   PATT
  POIN2 Label_01411FED
//  #09 //019   ----------------------------------------
 BYTE   PATT
  POIN2 Label_01411FED
//  #09 //020   ----------------------------------------
 BYTE   PATT
  POIN2 Label_01411FED
//  #09 //021   ----------------------------------------
 BYTE   PATT
  POIN2 Label_01411FED
//  #09 //022   ----------------------------------------
 BYTE   PATT
  POIN2 Label_01411FED
//  #09 //023   ----------------------------------------
 BYTE   PATT
  POIN2 Label_01411FED
//  #09 //024   ----------------------------------------
Label_01412033:
 BYTE   N11  Gn1  v056
 BYTE   W12
 BYTE   N06  As1
 BYTE   W06
 BYTE   Fs1  v032
 BYTE   W06
 BYTE   N11  Dn1  v056
 BYTE   W12
 BYTE   N06  As1
 BYTE   W06
 BYTE   Fs1  v032
 BYTE   W54
 BYTE   PEND 
//  #09 //025   ----------------------------------------
 BYTE   PATT
  POIN2 Label_01412033
//  #09 //026   ----------------------------------------
 BYTE   PATT
  POIN2 Label_01412033
//  #09 //027   ----------------------------------------
 BYTE   PATT
  POIN2 Label_01412033
//  #09 //028   ----------------------------------------
 BYTE   N11  Gn1  v056
 BYTE   N12  Cs2  v060
 BYTE   W24
 BYTE   N11  Gn1  v056
 BYTE   W24
 BYTE   N11
 BYTE   W24
 BYTE   Dn1
 BYTE   N11  Gn1
 BYTE   W24
//  #09 //029   ----------------------------------------
 BYTE   PATT
  POIN2 Label_01411F2E
//  #09 //030   ----------------------------------------
 BYTE   PATT
  POIN2 Label_01411F2E
//  #09 //031   ----------------------------------------
 BYTE   PATT
  POIN2 Label_01411F2E
//  #09 //032   ----------------------------------------
 BYTE   PATT
  POIN2 Label_01411F2E
//  #09 //033   ----------------------------------------
 BYTE   PATT
  POIN2 Label_01411F2E
//  #09 //034   ----------------------------------------
 BYTE   PATT
  POIN2 Label_01411F2E
//  #09 //035   ----------------------------------------
 BYTE   PATT
  POIN2 Label_01411F2E
//  #09 //036   ----------------------------------------
 BYTE   GoTo
  POIN2 Label_01411F59
 BYTE   FINE

//******************************************************//
	ALIGN 4

FE01BattleMap1RoyLili500:
	BYTE	9	// NumTrks
	BYTE	0	// NumBlks
	BYTE	FE01BattleMap1RoyLili500_pri	// Priority
	BYTE	FE01BattleMap1RoyLili500_rev	// Reverb.
    
	POIN2	FE01BattleMap1RoyLili500_grp
    
	POIN2	FE01BattleMap1RoyLili500_001
	POIN2	FE01BattleMap1RoyLili500_002
	POIN2	FE01BattleMap1RoyLili500_003
	POIN2	FE01BattleMap1RoyLili500_004
	POIN2	FE01BattleMap1RoyLili500_005
	POIN2	FE01BattleMap1RoyLili500_006
	POIN2	FE01BattleMap1RoyLili500_007
	POIN2	FE01BattleMap1RoyLili500_008
	POIN2	FE01BattleMap1RoyLili500_009

	
