//Event file generated from Sappy .s format.
	#include "MPlayDef.event"

	#define	FE03ArmyOfDarknessRSflame_grp  voicegroup000
	#define	FE03ArmyOfDarknessRSflame_pri  10
	#define	FE03ArmyOfDarknessRSflame_rev  0
	#define	FE03ArmyOfDarknessRSflame_mvl  127
	#define	FE03ArmyOfDarknessRSflame_key  0
	#define	FE03ArmyOfDarknessRSflame_tbs  1
	#define	FE03ArmyOfDarknessRSflame_exg  0
	#define	FE03ArmyOfDarknessRSflame_cmp  1

	// .rodata
	//	FE03ArmyOfDarknessRSflame
	ALIGN 4


//**************** Track 1 (Midi-Chn.0) ****************//

FE03ArmyOfDarknessRSflame_001:
// 000   ----------------------------------------
Label_0_01024474:
 BYTE   KEYSH   FE03ArmyOfDarknessRSflame_key+0
 BYTE   VOICE   8
 BYTE   VOL   44*FE03ArmyOfDarknessRSflame_mvl/mxv
 BYTE   PAN   c_v+25
 BYTE   N02  Cn3  v114
 BYTE   TEMPO   62*FE03ArmyOfDarknessRSflame_tbs/2
 BYTE   W03
 BYTE   N02  Fn3  v107
 BYTE   W03
 BYTE   N02  Gn3  v102
 BYTE   W03
 BYTE   Cn4  v098
 BYTE   W03
 BYTE   Cn3  v114
 BYTE   W03
 BYTE   Fn3  v107
 BYTE   W03
 BYTE   Gn3  v102
 BYTE   W03
 BYTE   Cn4  v098
 BYTE   W03
 BYTE   Cn3  v114
 BYTE   W03
 BYTE   Fn3  v107
 BYTE   W03
 BYTE   Gn3  v102
 BYTE   W03
 BYTE   Cn4  v098
 BYTE   W03
 BYTE   Cn3  v114
 BYTE   W03
 BYTE   Fn3  v107
 BYTE   W03
 BYTE   Gn3  v102
 BYTE   W03
 BYTE   Cn4  v098
 BYTE   W03
 BYTE   Cn3  v114
 BYTE   W03
 BYTE   Fn3  v107
 BYTE   W03
 BYTE   Gn3  v102
 BYTE   W03
 BYTE   Cn4  v098
 BYTE   W03
 BYTE   Cn3  v114
 BYTE   W03
 BYTE   Fn3  v107
 BYTE   W03
 BYTE   Gn3  v102
 BYTE   W03
 BYTE   Cn4  v098
 BYTE   W03
 BYTE   Cn3  v114
 BYTE   W03
 BYTE   Fn3  v107
 BYTE   W03
 BYTE   Gn3  v102
 BYTE   W03
 BYTE   Cn4  v098
 BYTE   W03
 BYTE   Cn3  v114
 BYTE   W03
 BYTE   Fn3  v107
 BYTE   W03
 BYTE   Gn3  v102
 BYTE   W03
 BYTE   Cn4  v098
 BYTE   W03
// 001   ----------------------------------------
 BYTE   Cn3  v114
 BYTE   W03
 BYTE   Fn3  v107
 BYTE   W03
Label_0_010244E7:
 BYTE   N02  Gn3  v102
 BYTE   W03
 BYTE   Cn4  v098
 BYTE   W03
 BYTE   Cn3  v114
 BYTE   W03
 BYTE   Fn3  v107
 BYTE   W03
 BYTE   Gn3  v102
 BYTE   W03
 BYTE   Cn4  v098
 BYTE   W03
 BYTE   Cn3  v114
 BYTE   W03
 BYTE   Fn3  v107
 BYTE   W03
 BYTE   Gn3  v102
 BYTE   W03
 BYTE   Cn4  v098
 BYTE   W03
 BYTE   Cn3  v114
 BYTE   W03
 BYTE   Fn3  v107
 BYTE   W03
 BYTE   Gn3  v102
 BYTE   W03
 BYTE   Cn4  v098
 BYTE   W03
 BYTE   Cn3  v114
 BYTE   W03
 BYTE   Fn3  v107
 BYTE   W03
 BYTE   Gn3  v102
 BYTE   W03
 BYTE   Cn4  v098
 BYTE   W03
 BYTE   Cn3  v114
 BYTE   W03
 BYTE   Fn3  v107
 BYTE   W03
 BYTE   Gn3  v102
 BYTE   W03
 BYTE   Cn4  v098
 BYTE   W03
 BYTE   Cn3  v114
 BYTE   W03
 BYTE   Fn3  v107
 BYTE   W03
 BYTE   Gn3  v102
 BYTE   W03
 BYTE   Cn4  v098
 BYTE   W03
 BYTE   Cn3  v114
 BYTE   W03
 BYTE   Fn3  v107
 BYTE   W03
 BYTE   Gn3  v102
 BYTE   W03
 BYTE   Cn4  v098
 BYTE   W03
// 002   ----------------------------------------
 BYTE   Cn3  v114
 BYTE   W03
 BYTE   Fn3  v107
 BYTE   W03
 BYTE   PEND 
// 003   ----------------------------------------
 BYTE   PATT
  POIN2 Label_0_010244E7
// 004   ----------------------------------------
 BYTE   PATT
  POIN2 Label_0_010244E7
// 005   ----------------------------------------
 BYTE   PATT
  POIN2 Label_0_010244E7
// 006   ----------------------------------------
 BYTE   PATT
  POIN2 Label_0_010244E7
// 007   ----------------------------------------
 BYTE   PATT
  POIN2 Label_0_010244E7
// 008   ----------------------------------------
 BYTE   N02  Gn3  v102
 BYTE   W03
 BYTE   Cn4  v098
 BYTE   W03
 BYTE   Cn3  v114
 BYTE   W03
 BYTE   Fn3  v107
 BYTE   W03
 BYTE   Gn3  v102
 BYTE   W03
 BYTE   Cn4  v098
 BYTE   W03
 BYTE   Cn3  v114
 BYTE   W03
 BYTE   Fn3  v107
 BYTE   W03
 BYTE   Gn3  v102
 BYTE   W03
 BYTE   Cn4  v098
 BYTE   W03
 BYTE   Cn3  v114
 BYTE   W03
 BYTE   Fn3  v107
 BYTE   W03
 BYTE   Gn3  v102
 BYTE   W03
 BYTE   Cn4  v098
 BYTE   W03
 BYTE   Cn3  v114
 BYTE   W03
 BYTE   Fn3  v107
 BYTE   W03
 BYTE   Gn3  v102
 BYTE   W03
 BYTE   Cn4  v098
 BYTE   W03
 BYTE   Cn3  v114
 BYTE   W03
 BYTE   Fn3  v107
 BYTE   W03
 BYTE   Gn3  v102
 BYTE   W03
 BYTE   Cn4  v098
 BYTE   W03
 BYTE   Cn3  v114
 BYTE   W03
 BYTE   Fn3  v107
 BYTE   W03
 BYTE   Gn3  v102
 BYTE   W03
 BYTE   Cn4  v098
 BYTE   W03
 BYTE   Cn3  v114
 BYTE   W03
 BYTE   Fn3  v107
 BYTE   W03
 BYTE   Gn3  v102
 BYTE   W03
 BYTE   Cn4  v098
 BYTE   W03
Label_0_010245BD:
 BYTE   PAN   c_v-14
 BYTE   W12
// 009   ----------------------------------------
 BYTE   N05  Gn3  v112
 BYTE   W06
 BYTE   Gn3  v102
 BYTE   W06
 BYTE   Dn3  v112
 BYTE   W06
 BYTE   Dn3  v102
 BYTE   W06
 BYTE   An2  v112
 BYTE   W06
 BYTE   An2  v102
 BYTE   W12
 BYTE   Gn3
 BYTE   W06
 BYTE   Gn3  v112
 BYTE   W06
 BYTE   Dn3  v102
 BYTE   W06
 BYTE   Dn3  v112
 BYTE   W06
 BYTE   An2  v102
 BYTE   W06
 BYTE   An2  v112
 BYTE   W06
 BYTE   Gn2  v102
 BYTE   W06
 BYTE   Gn3  v112
 BYTE   W06
 BYTE   Gn3  v102
 BYTE   W06
// 010   ----------------------------------------
 BYTE   Dn3  v112
 BYTE   W06
 BYTE   Dn3  v102
 BYTE   W06
 BYTE   An2  v112
 BYTE   W06
 BYTE   An2  v102
 BYTE   W06
 BYTE   Dn2  v112
 BYTE   W06
 BYTE   Dn2  v102
 BYTE   W12
 BYTE   Gn3
 BYTE   W06
 BYTE   Gn3  v112
 BYTE   W06
 BYTE   Dn3  v102
 BYTE   W06
 BYTE   Dn3  v112
 BYTE   W06
 BYTE   An2  v102
 BYTE   W06
 BYTE   An2  v112
 BYTE   W06
 BYTE   Dn2  v102
 BYTE   W06
 BYTE   Dn2  v112
 BYTE   W06
 BYTE   An2  v102
 BYTE   W06
// 011   ----------------------------------------
 BYTE   An2  v112
 BYTE   W06
 BYTE   Dn3  v102
 BYTE   W06
 BYTE   PEND 
 BYTE   PAN   c_v+14
 BYTE   N44  Gn3  v108
 BYTE   W22
 BYTE   N03
 BYTE   W32
 BYTE   N05  Fn3  v102
 BYTE   W12
 BYTE   Cn3
 BYTE   W12
 BYTE   Dn3
 BYTE   W12
// 012   ----------------------------------------
 BYTE   Fn2
 BYTE   W06
 BYTE   N44  Gn2  v112
 BYTE   W22
 BYTE   N03
 BYTE   W24
 BYTE   W02
 BYTE   N02  Gn2  v109
 BYTE   W03
 BYTE   Gn2
 BYTE   W03
 BYTE   Cn3
 BYTE   W03
 BYTE   Cn3
 BYTE   W03
 BYTE   Gn2  v114
 BYTE   W03
 BYTE   Gn2
 BYTE   W03
 BYTE   Cn3
 BYTE   W03
 BYTE   Cn3
 BYTE   W03
 BYTE   Gn2  v119
 BYTE   W03
 BYTE   Gn2
 BYTE   W03
 BYTE   Cn3
 BYTE   W03
 BYTE   Cn3
 BYTE   W03
 BYTE   Gn2  v124
 BYTE   W03
 BYTE   Gn2
 BYTE   W03
// 013   ----------------------------------------
 BYTE   Cn3
 BYTE   W03
 BYTE   Cn3
 BYTE   W03
 BYTE   PAN   c_v+25
 BYTE   N02  Cn3  v114
 BYTE   W03
 BYTE   Fn3  v107
 BYTE   W03
 BYTE   Gn3  v102
 BYTE   W03
 BYTE   Cn4  v098
 BYTE   W03
 BYTE   Cn3  v114
 BYTE   W03
 BYTE   Fn3  v107
 BYTE   W03
 BYTE   Gn3  v102
 BYTE   W03
 BYTE   Cn4  v098
 BYTE   W03
 BYTE   Cn3  v114
 BYTE   W03
 BYTE   Fn3  v107
 BYTE   W03
 BYTE   Gn3  v102
 BYTE   W03
 BYTE   Cn4  v098
 BYTE   W03
 BYTE   Cn3  v114
 BYTE   W03
 BYTE   Fn3  v107
 BYTE   W03
 BYTE   Gn3  v102
 BYTE   W03
 BYTE   Cn4  v098
 BYTE   W03
 BYTE   Cn3  v114
 BYTE   W03
 BYTE   Fn3  v107
 BYTE   W03
 BYTE   Gn3  v102
 BYTE   W03
 BYTE   Cn4  v098
 BYTE   W03
 BYTE   Cn3  v114
 BYTE   W03
 BYTE   Fn3  v107
 BYTE   W03
 BYTE   Gn3  v102
 BYTE   W03
 BYTE   Cn4  v098
 BYTE   W03
 BYTE   Cn3  v114
 BYTE   W03
 BYTE   Fn3  v107
 BYTE   W03
 BYTE   Gn3  v102
 BYTE   W03
 BYTE   Cn4  v098
 BYTE   W03
 BYTE   Cn3  v114
 BYTE   W03
 BYTE   Fn3  v107
 BYTE   W03
// 014   ----------------------------------------
 BYTE   Gn3  v102
 BYTE   W03
 BYTE   Cn4  v098
 BYTE   W03
 BYTE   Cn3  v114
 BYTE   W03
 BYTE   Fn3  v107
 BYTE   W03
 BYTE   Gn3  v102
 BYTE   W03
 BYTE   Cn4  v098
 BYTE   W03
 BYTE   Cn3  v114
 BYTE   W03
 BYTE   Fn3  v107
 BYTE   W03
 BYTE   Gn3  v102
 BYTE   W03
 BYTE   Cn4  v098
 BYTE   W03
 BYTE   Cn3  v114
 BYTE   W03
 BYTE   Fn3  v107
 BYTE   W03
 BYTE   Gn3  v102
 BYTE   W03
 BYTE   Cn4  v098
 BYTE   W03
 BYTE   Cn3  v114
 BYTE   W03
 BYTE   Fn3  v107
 BYTE   W03
 BYTE   Gn3  v102
 BYTE   W03
 BYTE   Cn4  v098
 BYTE   W03
 BYTE   Cn3  v114
 BYTE   W03
 BYTE   Fn3  v107
 BYTE   W03
 BYTE   Gn3  v102
 BYTE   W03
 BYTE   Cn4  v098
 BYTE   W03
 BYTE   Cn3  v114
 BYTE   W03
 BYTE   Fn3  v107
 BYTE   W03
 BYTE   Gn3  v102
 BYTE   W03
 BYTE   Cn4  v098
 BYTE   W03
 BYTE   Cn3  v114
 BYTE   W03
 BYTE   Fn3  v107
 BYTE   W03
 BYTE   Gn3  v102
 BYTE   W03
 BYTE   Cn4  v098
 BYTE   W03
 BYTE   Cn3  v114
 BYTE   W03
 BYTE   Fn3  v107
 BYTE   W03
// 015   ----------------------------------------
 BYTE   Gn3  v102
 BYTE   W03
 BYTE   Cn4  v098
 BYTE   W03
 BYTE   Cn3  v114
 BYTE   W03
 BYTE   Fn3  v107
 BYTE   W03
 BYTE   Gn3  v102
 BYTE   W03
 BYTE   Cn4  v098
 BYTE   W03
 BYTE   Cn3  v114
 BYTE   W03
 BYTE   Fn3  v107
 BYTE   W03
 BYTE   Gn3  v102
 BYTE   W03
 BYTE   Cn4  v098
 BYTE   W03
 BYTE   Cn3  v114
 BYTE   W03
 BYTE   Fn3  v107
 BYTE   W03
 BYTE   Gn3  v102
 BYTE   W03
 BYTE   Cn4  v098
 BYTE   W03
 BYTE   Cn3  v114
 BYTE   W03
 BYTE   Fn3  v107
 BYTE   W03
 BYTE   Gn3  v102
 BYTE   W03
 BYTE   Cn4  v098
 BYTE   W03
 BYTE   Cn3  v114
 BYTE   W03
 BYTE   Fn3  v107
 BYTE   W03
 BYTE   Gn3  v102
 BYTE   W03
 BYTE   Cn4  v098
 BYTE   W03
 BYTE   Cn3  v114
 BYTE   W03
 BYTE   Fn3  v107
 BYTE   W03
 BYTE   Gn3  v102
 BYTE   W03
 BYTE   Cn4  v098
 BYTE   W03
 BYTE   Cn3  v114
 BYTE   W03
 BYTE   Fn3  v107
 BYTE   W03
 BYTE   Gn3  v102
 BYTE   W03
 BYTE   Cn4  v098
 BYTE   W03
 BYTE   Cn3  v114
 BYTE   W03
 BYTE   Fn3  v107
 BYTE   W03
// 016   ----------------------------------------
 BYTE   Gn3  v102
 BYTE   W03
 BYTE   Cn4  v098
 BYTE   W03
 BYTE   Cn3  v114
 BYTE   W03
 BYTE   Fn3  v107
 BYTE   W03
 BYTE   Gn3  v102
 BYTE   W03
 BYTE   Cn4  v098
 BYTE   W03
 BYTE   Cn3  v114
 BYTE   W03
 BYTE   Fn3  v107
 BYTE   W03
 BYTE   Gn3  v102
 BYTE   W03
 BYTE   Cn4  v098
 BYTE   W03
 BYTE   Cn3  v114
 BYTE   W03
 BYTE   Fn3  v107
 BYTE   W03
 BYTE   Gn3  v102
 BYTE   W03
 BYTE   Cn4  v098
 BYTE   W03
 BYTE   Cn3  v114
 BYTE   W03
 BYTE   Fn3  v107
 BYTE   W03
 BYTE   Gn3  v102
 BYTE   W03
 BYTE   Cn4  v098
 BYTE   W03
 BYTE   Cn3  v114
 BYTE   W03
 BYTE   Fn3  v107
 BYTE   W03
 BYTE   Gn3  v102
 BYTE   W03
 BYTE   Cn4  v098
 BYTE   W03
 BYTE   Cn3  v114
 BYTE   W03
 BYTE   Fn3  v107
 BYTE   W03
 BYTE   Gn3  v102
 BYTE   W03
 BYTE   Cn4  v098
 BYTE   W03
 BYTE   Cn3  v114
 BYTE   W03
 BYTE   Fn3  v107
 BYTE   W03
 BYTE   Gn3  v102
 BYTE   W03
 BYTE   Cn4  v098
 BYTE   W03
 BYTE   Cn3  v114
 BYTE   W03
 BYTE   Fn3  v107
 BYTE   W03
// 017   ----------------------------------------
 BYTE   Gn3  v102
 BYTE   W03
 BYTE   Cn4  v098
 BYTE   W03
 BYTE   Cn3  v114
 BYTE   W03
 BYTE   Fn3  v107
 BYTE   W03
 BYTE   Gn3  v102
 BYTE   W03
 BYTE   Cn4  v098
 BYTE   W03
 BYTE   Cn3  v114
 BYTE   W03
 BYTE   Fn3  v107
 BYTE   W03
 BYTE   Gn3  v102
 BYTE   W03
 BYTE   Cn4  v098
 BYTE   W03
 BYTE   Cn3  v114
 BYTE   W03
 BYTE   Fn3  v107
 BYTE   W03
 BYTE   Gn3  v102
 BYTE   W03
 BYTE   Cn4  v098
 BYTE   W03
 BYTE   Cn3  v114
 BYTE   W03
 BYTE   Fn3  v107
 BYTE   W03
 BYTE   Gn3  v102
 BYTE   W03
 BYTE   Cn4  v098
 BYTE   W03
 BYTE   Cn3  v114
 BYTE   W03
 BYTE   Fn3  v107
 BYTE   W03
 BYTE   Gn3  v102
 BYTE   W03
 BYTE   Cn4  v098
 BYTE   W03
 BYTE   Cn3  v114
 BYTE   W03
 BYTE   Fn3  v107
 BYTE   W03
 BYTE   Gn3  v102
 BYTE   W03
 BYTE   Cn4  v098
 BYTE   W03
 BYTE   Cn3  v114
 BYTE   W03
 BYTE   Fn3  v107
 BYTE   W03
 BYTE   Gn3  v102
 BYTE   W03
 BYTE   Cn4  v098
 BYTE   W03
 BYTE   Cn3  v114
 BYTE   W03
 BYTE   Fn3  v107
 BYTE   W03
// 018   ----------------------------------------
 BYTE   Gn3  v102
 BYTE   W03
 BYTE   Cn4  v098
 BYTE   W03
 BYTE   Cn3  v114
 BYTE   W03
 BYTE   Fn3  v107
 BYTE   W03
 BYTE   Gn3  v102
 BYTE   W03
 BYTE   Cn4  v098
 BYTE   W03
 BYTE   Cn3  v114
 BYTE   W03
 BYTE   Fn3  v107
 BYTE   W03
 BYTE   Gn3  v102
 BYTE   W03
 BYTE   Cn4  v098
 BYTE   W03
 BYTE   Cn3  v114
 BYTE   W03
 BYTE   Fn3  v107
 BYTE   W03
 BYTE   Gn3  v102
 BYTE   W03
 BYTE   Cn4  v098
 BYTE   W03
 BYTE   Cn3  v114
 BYTE   W03
 BYTE   Fn3  v107
 BYTE   W03
 BYTE   Gn3  v102
 BYTE   W03
 BYTE   Cn4  v098
 BYTE   W03
 BYTE   Cn3  v114
 BYTE   W03
 BYTE   Fn3  v107
 BYTE   W03
 BYTE   Gn3  v102
 BYTE   W03
 BYTE   Cn4  v098
 BYTE   W03
 BYTE   Cn3  v114
 BYTE   W03
 BYTE   Fn3  v107
 BYTE   W03
 BYTE   Gn3  v102
 BYTE   W03
 BYTE   Cn4  v098
 BYTE   W03
 BYTE   Cn3  v114
 BYTE   W03
 BYTE   Fn3  v107
 BYTE   W03
 BYTE   Gn3  v102
 BYTE   W03
 BYTE   Cn4  v098
 BYTE   W03
 BYTE   Cn3  v114
 BYTE   W03
 BYTE   Fn3  v107
 BYTE   W03
// 019   ----------------------------------------
 BYTE   Gn3  v102
 BYTE   W03
 BYTE   Cn4  v098
 BYTE   W03
 BYTE   Cn3  v114
 BYTE   W03
 BYTE   Fn3  v107
 BYTE   W03
 BYTE   Gn3  v102
 BYTE   W03
 BYTE   Cn4  v098
 BYTE   W03
 BYTE   Cn3  v114
 BYTE   W03
 BYTE   Fn3  v107
 BYTE   W03
 BYTE   Gn3  v102
 BYTE   W03
 BYTE   Cn4  v098
 BYTE   W03
 BYTE   Cn3  v114
 BYTE   W03
 BYTE   Fn3  v107
 BYTE   W03
 BYTE   Gn3  v102
 BYTE   W03
 BYTE   Cn4  v098
 BYTE   W03
 BYTE   Cn3  v114
 BYTE   W03
 BYTE   Fn3  v107
 BYTE   W03
 BYTE   Gn3  v102
 BYTE   W03
 BYTE   Cn4  v098
 BYTE   W03
 BYTE   Cn3  v114
 BYTE   W03
 BYTE   Fn3  v107
 BYTE   W03
 BYTE   Gn3  v102
 BYTE   W03
 BYTE   Cn4  v098
 BYTE   W03
 BYTE   Cn3  v114
 BYTE   W03
 BYTE   Fn3  v107
 BYTE   W03
 BYTE   Gn3  v102
 BYTE   W03
 BYTE   Cn4  v098
 BYTE   W03
 BYTE   Cn3  v114
 BYTE   W03
 BYTE   Fn3  v107
 BYTE   W03
 BYTE   Gn3  v102
 BYTE   W03
 BYTE   Cn4  v098
 BYTE   W03
 BYTE   Cn3  v114
 BYTE   W03
 BYTE   Fn3  v107
 BYTE   W03
// 020   ----------------------------------------
 BYTE   Gn3  v102
 BYTE   W03
 BYTE   Cn4  v098
 BYTE   W03
 BYTE   Cn3  v114
 BYTE   W03
 BYTE   Fn3  v107
 BYTE   W03
 BYTE   Gn3  v102
 BYTE   W03
 BYTE   Cn4  v098
 BYTE   W03
 BYTE   Cn3  v114
 BYTE   W03
 BYTE   Fn3  v107
 BYTE   W03
 BYTE   Gn3  v102
 BYTE   W03
 BYTE   Cn4  v098
 BYTE   W03
 BYTE   Cn3  v114
 BYTE   W03
 BYTE   Fn3  v107
 BYTE   W03
 BYTE   Gn3  v102
 BYTE   W03
 BYTE   Cn4  v098
 BYTE   W03
 BYTE   Cn3  v114
 BYTE   W03
 BYTE   Fn3  v107
 BYTE   W03
 BYTE   Gn3  v102
 BYTE   W03
 BYTE   Cn4  v098
 BYTE   W03
 BYTE   Cn3  v114
 BYTE   W03
 BYTE   Fn3  v107
 BYTE   W03
 BYTE   Gn3  v102
 BYTE   W03
 BYTE   Cn4  v098
 BYTE   W03
 BYTE   Cn3  v114
 BYTE   W03
 BYTE   Fn3  v107
 BYTE   W03
 BYTE   Gn3  v102
 BYTE   W03
 BYTE   Cn4  v098
 BYTE   W03
 BYTE   Cn3  v114
 BYTE   W03
 BYTE   Fn3  v107
 BYTE   W03
 BYTE   Gn3  v102
 BYTE   W03
 BYTE   Cn4  v098
 BYTE   W03
 BYTE   Cn3  v114
 BYTE   W03
 BYTE   Fn3  v107
 BYTE   W03
// 021   ----------------------------------------
 BYTE   Gn3  v102
 BYTE   W03
 BYTE   Cn4  v098
 BYTE   W03
// 022   ----------------------------------------
 BYTE   PATT
  POIN2 Label_0_010245BD
// 023   ----------------------------------------
 BYTE   PAN   c_v+14
 BYTE   N44  Gn3  v108
 BYTE   W22
 BYTE   N03
 BYTE   W32
 BYTE   N05  Fn3  v102
 BYTE   W12
 BYTE   Cn3
 BYTE   W12
 BYTE   Dn3
 BYTE   W12
 BYTE   Fn2
 BYTE   W06
// 024   ----------------------------------------
 BYTE   N44  Gn2  v112
 BYTE   W22
 BYTE   N03
 BYTE   W24
 BYTE   W02
 BYTE   N02  Gn2  v109
 BYTE   W03
 BYTE   Gn2
 BYTE   W03
 BYTE   Cn3
 BYTE   W03
 BYTE   Cn3
 BYTE   W03
 BYTE   Gn2  v114
 BYTE   W03
 BYTE   Gn2
 BYTE   W03
 BYTE   Cn3
 BYTE   W03
 BYTE   Cn3
 BYTE   W03
 BYTE   Gn2  v119
 BYTE   W03
 BYTE   Gn2
 BYTE   W03
 BYTE   Cn3
 BYTE   W03
 BYTE   Cn3
 BYTE   W03
 BYTE   Gn2  v124
 BYTE   W03
 BYTE   Gn2
 BYTE   W03
 BYTE   Cn3
 BYTE   W03
 BYTE   Cn3
 BYTE   GoTo
  POIN2 Label_0_01024474
 BYTE   FINE

//**************** Track 2 (Midi-Chn.1) ****************//

FE03ArmyOfDarknessRSflame_002:
// 000   ----------------------------------------
Label_1_010249AC:
 BYTE   KEYSH   FE03ArmyOfDarknessRSflame_key+0
 BYTE   VOICE   18
 BYTE   VOL   64*FE03ArmyOfDarknessRSflame_mvl/mxv
 BYTE   PAN   c_v+14
 BYTE   N56  Gn2  v102
 BYTE   TEMPO   62*FE03ArmyOfDarknessRSflame_tbs/2
 BYTE   W28
 BYTE   N03  Gn2  v102
 BYTE   W32
 BYTE   N11  Gn2  v107
 BYTE   W12
 BYTE   Fn2  v102
 BYTE   W12
 BYTE   As2  v112
 BYTE   W12
// 001   ----------------------------------------
 BYTE   N56  Fn2  v102
 BYTE   W28
 BYTE   N03
 BYTE   W32
 BYTE   N11  Cn3  v107
 BYTE   W12
 BYTE   As2  v102
 BYTE   W12
 BYTE   Fn2  v096
 BYTE   W12
// 002   ----------------------------------------
 BYTE   N68  Gn2  v102
 BYTE   W32
 BYTE   W02
 BYTE   N03
 BYTE   W44
 BYTE   N05  Cn3  v104
 BYTE   W06
 BYTE   Dn3  v107
 BYTE   W06
 BYTE   Fn3
 BYTE   W06
// 003   ----------------------------------------
 BYTE   N54  Gn3  v109
 BYTE   W24
 BYTE   W03
 BYTE   N01
 BYTE   W28
 BYTE   W01
 BYTE   N07  Cn4  v108
 BYTE   W08
 BYTE   As3  v107
 BYTE   W08
 BYTE   Gn3  v105
 BYTE   W08
 BYTE   Fn3  v104
 BYTE   W08
 BYTE   Ds3  v103
 BYTE   W08
// 004   ----------------------------------------
 BYTE   N56  Cn3  v102
 BYTE   W28
 BYTE   N03
 BYTE   W32
 BYTE   N11  Fn3  v108
 BYTE   W12
 BYTE   Ds3  v102
 BYTE   W12
 BYTE   Cn3  v096
 BYTE   W12
// 005   ----------------------------------------
 BYTE   N56  Fn3  v102
 BYTE   W28
 BYTE   N03
 BYTE   W32
 BYTE   N11  Fn3  v108
 BYTE   W12
 BYTE   Ds3  v102
 BYTE   W12
 BYTE   Cn3  v096
 BYTE   W12
// 006   ----------------------------------------
 BYTE   N68  Fn2  v102
 BYTE   W32
 BYTE   W02
 BYTE   N03
 BYTE   W44
 BYTE   N05  Cn3  v104
 BYTE   W06
 BYTE   Dn3  v107
 BYTE   W06
 BYTE   Fn3
 BYTE   W06
// 007   ----------------------------------------
 BYTE   N52  Gn3  v109
 BYTE   W24
 BYTE   W02
 BYTE   N01
 BYTE   W28
 BYTE   N05  Gn3  v102
 BYTE   W06
 BYTE   Gn3
 BYTE   W06
 BYTE   Dn3
 BYTE   W06
 BYTE   Dn3
 BYTE   W06
 BYTE   An2
 BYTE   W06
 BYTE   An2
 BYTE   W06
 BYTE   Dn2
 BYTE   W06
// 008   ----------------------------------------
 BYTE   VOL   52*FE03ArmyOfDarknessRSflame_mvl/mxv
 BYTE   PAN   c_v+25
 BYTE   N05  Cn3  v108
 BYTE   W06
 BYTE   N02  Cn3  v089
 BYTE   W03
 BYTE   Cn3
 BYTE   W03
 BYTE   N05  Cn3  v104
 BYTE   W06
 BYTE   N02  Cn3  v089
 BYTE   W03
 BYTE   Cn3
 BYTE   W03
 BYTE   N05  Cn3  v104
 BYTE   W06
 BYTE   N02  Cn3  v089
 BYTE   W03
 BYTE   Cn3
 BYTE   W03
 BYTE   N05  Cn3  v104
 BYTE   W06
 BYTE   N02  Cn3  v089
 BYTE   W03
 BYTE   Cn3
 BYTE   W03
 BYTE   N05  Cn3  v108
 BYTE   W06
 BYTE   N02  Cn3  v089
 BYTE   W03
 BYTE   Cn3
 BYTE   W03
 BYTE   N05  Cn3  v104
 BYTE   W06
 BYTE   N02  Cn3  v089
 BYTE   W03
 BYTE   Cn3
 BYTE   W03
 BYTE   N05  Cn3  v104
 BYTE   W06
 BYTE   N02  Cn3  v089
 BYTE   W03
 BYTE   Cn3
 BYTE   W03
 BYTE   N05  Cn3  v104
 BYTE   W06
 BYTE   N02  Cn3  v089
 BYTE   W03
 BYTE   Cn3
 BYTE   W03
// 009   ----------------------------------------
 BYTE   N05  Cn3  v108
 BYTE   W06
 BYTE   N02  Cn3  v089
 BYTE   W03
 BYTE   Cn3
 BYTE   W03
 BYTE   N05  Cn3  v104
 BYTE   W06
 BYTE   N02  Cn3  v089
 BYTE   W03
 BYTE   Cn3
 BYTE   W03
 BYTE   N05  Cn3  v104
 BYTE   W06
 BYTE   N02  Cn3  v089
 BYTE   W03
 BYTE   Cn3
 BYTE   W03
 BYTE   N05  Cn3  v104
 BYTE   W06
 BYTE   N02  Cn3  v089
 BYTE   W03
 BYTE   Cn3
 BYTE   W03
 BYTE   N05  Cn3  v108
 BYTE   W06
 BYTE   N02  Cn3  v089
 BYTE   W03
 BYTE   Cn3
 BYTE   W03
 BYTE   N05  Cn3  v104
 BYTE   W06
 BYTE   N02  Cn3  v089
 BYTE   W03
 BYTE   Cn3
 BYTE   W03
 BYTE   N05  Cn3  v104
 BYTE   W06
 BYTE   N02  Cn3  v089
 BYTE   W03
 BYTE   Cn3
 BYTE   W03
 BYTE   N05  Cn3  v104
 BYTE   W06
 BYTE   N02  Cn3  v089
 BYTE   W03
 BYTE   Cn3
 BYTE   W03
// 010   ----------------------------------------
 BYTE   N05  Cn3  v112
 BYTE   W06
 BYTE   N02
 BYTE   W03
 BYTE   Cn3  v089
 BYTE   W03
 BYTE   N05  Cn3  v109
 BYTE   W06
 BYTE   N02
 BYTE   W03
 BYTE   Cn3  v089
 BYTE   W03
 BYTE   N05  Cn3  v108
 BYTE   W06
 BYTE   N02  Cn3  v089
 BYTE   W03
 BYTE   Cn3
 BYTE   W03
 BYTE   N05  Cn3  v104
 BYTE   W06
 BYTE   N02  Cn3  v089
 BYTE   W03
 BYTE   Cn3
 BYTE   W03
 BYTE   N05  Cn3  v104
 BYTE   W06
 BYTE   N02  Cn3  v089
 BYTE   W03
 BYTE   Cn3
 BYTE   W03
 BYTE   N05  Cn3  v104
 BYTE   W06
 BYTE   N02  Cn3  v089
 BYTE   W03
 BYTE   Cn3
 BYTE   W03
 BYTE   N05  Cn3  v108
 BYTE   W06
 BYTE   N02  Cn3  v089
 BYTE   W03
 BYTE   Cn3
 BYTE   W03
 BYTE   N05  Cn3  v104
 BYTE   W06
 BYTE   N02  Cn3  v089
 BYTE   W03
 BYTE   Cn3
 BYTE   W03
// 011   ----------------------------------------
 BYTE   N05  Cn3  v104
 BYTE   W06
 BYTE   N02  Cn3  v089
 BYTE   W03
 BYTE   Cn3
 BYTE   W03
 BYTE   N05  Cn3  v104
 BYTE   W06
 BYTE   N02  Cn3  v089
 BYTE   W03
 BYTE   Cn3
 BYTE   W03
 BYTE   N05  Cn3  v108
 BYTE   W06
 BYTE   N02  Cn3  v089
 BYTE   W03
 BYTE   Cn3
 BYTE   W03
 BYTE   N05  Cn3  v104
 BYTE   W06
 BYTE   N02  Cn3  v089
 BYTE   W03
 BYTE   Cn3
 BYTE   W03
 BYTE   N05  Cn3  v104
 BYTE   W06
 BYTE   N02  Cn3  v089
 BYTE   W03
 BYTE   Cn3
 BYTE   W03
 BYTE   N05  Cn3  v104
 BYTE   W06
 BYTE   N02  Cn3  v089
 BYTE   W03
 BYTE   Cn3
 BYTE   W03
 BYTE   N05  Cn3  v110
 BYTE   W06
 BYTE   N02  Cn3  v091
 BYTE   W03
 BYTE   Cn3
 BYTE   W03
 BYTE   N05  Cn3  v109
 BYTE   W06
 BYTE   N02  Cn3  v096
 BYTE   W03
 BYTE   Cn3
 BYTE   W03
// 012   ----------------------------------------
 BYTE   N05  Cn3  v114
 BYTE   W06
 BYTE   N02  Cn3  v102
 BYTE   W03
 BYTE   Cn3
 BYTE   W03
 BYTE   N05  Cn3  v119
 BYTE   W06
 BYTE   N02  Cn3  v107
 BYTE   W03
 BYTE   Cn3
 BYTE   W03
 BYTE   VOL   64*FE03ArmyOfDarknessRSflame_mvl/mxv
 BYTE   PAN   c_v+14
 BYTE   N56  Gn2  v102
 BYTE   W28
 BYTE   N03
 BYTE   W32
 BYTE   N11  Gn2  v107
 BYTE   W12
// 013   ----------------------------------------
 BYTE   Fn2  v102
 BYTE   W12
 BYTE   As2  v112
 BYTE   W12
 BYTE   N56  Fn2  v102
 BYTE   W28
 BYTE   N03
 BYTE   W32
 BYTE   N11  Cn3  v107
 BYTE   W12
// 014   ----------------------------------------
 BYTE   As2  v102
 BYTE   W12
 BYTE   Fn2  v096
 BYTE   W12
 BYTE   N68  Gn2  v102
 BYTE   W32
 BYTE   W02
 BYTE   N03
 BYTE   W44
// 015   ----------------------------------------
 BYTE   N05  Cn3  v104
 BYTE   W06
 BYTE   Dn3  v107
 BYTE   W06
 BYTE   Fn3
 BYTE   W06
 BYTE   N54  Gn3  v109
 BYTE   W24
 BYTE   W03
 BYTE   N01
 BYTE   W28
 BYTE   W01
 BYTE   N07  Cn4  v108
 BYTE   W08
 BYTE   As3  v107
 BYTE   W08
 BYTE   Gn3  v105
 BYTE   W08
// 016   ----------------------------------------
 BYTE   Fn3  v104
 BYTE   W08
 BYTE   Ds3  v103
 BYTE   W08
 BYTE   N56  Cn3  v102
 BYTE   W28
 BYTE   N03
 BYTE   W32
 BYTE   N11  Fn3  v108
 BYTE   W12
 BYTE   Ds3  v102
 BYTE   W12
// 017   ----------------------------------------
 BYTE   Cn3  v096
 BYTE   W12
 BYTE   N56  Fn3  v102
 BYTE   W28
 BYTE   N03
 BYTE   W32
 BYTE   N11  Fn3  v108
 BYTE   W12
 BYTE   Ds3  v102
 BYTE   W12
// 018   ----------------------------------------
 BYTE   Cn3  v096
 BYTE   W12
 BYTE   N68  Fn2  v102
 BYTE   W32
 BYTE   W02
 BYTE   N03
 BYTE   W44
 BYTE   N05  Cn3  v104
 BYTE   W06
// 019   ----------------------------------------
 BYTE   Dn3  v107
 BYTE   W06
 BYTE   Fn3
 BYTE   W06
 BYTE   N52  Gn3  v109
 BYTE   W24
 BYTE   W02
 BYTE   N01
 BYTE   W28
 BYTE   N05  Gn3  v102
 BYTE   W06
 BYTE   Gn3
 BYTE   W06
 BYTE   Dn3
 BYTE   W06
 BYTE   Dn3
 BYTE   W06
 BYTE   An2
 BYTE   W06
// 020   ----------------------------------------
 BYTE   An2
 BYTE   W06
 BYTE   Dn2
 BYTE   W06
 BYTE   VOL   52*FE03ArmyOfDarknessRSflame_mvl/mxv
 BYTE   PAN   c_v+25
 BYTE   N05  Cn3  v108
 BYTE   W06
 BYTE   N02  Cn3  v089
 BYTE   W03
 BYTE   Cn3
 BYTE   W03
 BYTE   N05  Cn3  v104
 BYTE   W06
 BYTE   N02  Cn3  v089
 BYTE   W03
 BYTE   Cn3
 BYTE   W03
 BYTE   N05  Cn3  v104
 BYTE   W06
 BYTE   N02  Cn3  v089
 BYTE   W03
 BYTE   Cn3
 BYTE   W03
 BYTE   N05  Cn3  v104
 BYTE   W06
 BYTE   N02  Cn3  v089
 BYTE   W03
 BYTE   Cn3
 BYTE   W03
 BYTE   N05  Cn3  v108
 BYTE   W06
 BYTE   N02  Cn3  v089
 BYTE   W03
 BYTE   Cn3
 BYTE   W03
 BYTE   N05  Cn3  v104
 BYTE   W06
 BYTE   N02  Cn3  v089
 BYTE   W03
 BYTE   Cn3
 BYTE   W03
 BYTE   N05  Cn3  v104
 BYTE   W06
 BYTE   N02  Cn3  v089
 BYTE   W03
 BYTE   Cn3
 BYTE   W03
// 021   ----------------------------------------
 BYTE   N05  Cn3  v104
 BYTE   W06
 BYTE   N02  Cn3  v089
 BYTE   W03
 BYTE   Cn3
 BYTE   W03
 BYTE   N05  Cn3  v108
 BYTE   W06
 BYTE   N02  Cn3  v089
 BYTE   W03
 BYTE   Cn3
 BYTE   W03
 BYTE   N05  Cn3  v104
 BYTE   W06
 BYTE   N02  Cn3  v089
 BYTE   W03
 BYTE   Cn3
 BYTE   W03
 BYTE   N05  Cn3  v104
 BYTE   W06
 BYTE   N02  Cn3  v089
 BYTE   W03
 BYTE   Cn3
 BYTE   W03
 BYTE   N05  Cn3  v104
 BYTE   W06
 BYTE   N02  Cn3  v089
 BYTE   W03
 BYTE   Cn3
 BYTE   W03
 BYTE   N05  Cn3  v108
 BYTE   W06
 BYTE   N02  Cn3  v089
 BYTE   W03
 BYTE   Cn3
 BYTE   W03
 BYTE   N05  Cn3  v104
 BYTE   W06
 BYTE   N02  Cn3  v089
 BYTE   W03
 BYTE   Cn3
 BYTE   W03
 BYTE   N05  Cn3  v104
 BYTE   W06
 BYTE   N02  Cn3  v089
 BYTE   W03
 BYTE   Cn3
 BYTE   W03
// 022   ----------------------------------------
 BYTE   N05  Cn3  v104
 BYTE   W06
 BYTE   N02  Cn3  v089
 BYTE   W03
 BYTE   Cn3
 BYTE   W03
 BYTE   N05  Cn3  v112
 BYTE   W06
 BYTE   N02
 BYTE   W03
 BYTE   Cn3  v089
 BYTE   W03
 BYTE   N05  Cn3  v109
 BYTE   W06
 BYTE   N02
 BYTE   W03
 BYTE   Cn3  v089
 BYTE   W03
 BYTE   N05  Cn3  v108
 BYTE   W06
 BYTE   N02  Cn3  v089
 BYTE   W03
 BYTE   Cn3
 BYTE   W03
 BYTE   N05  Cn3  v104
 BYTE   W06
 BYTE   N02  Cn3  v089
 BYTE   W03
 BYTE   Cn3
 BYTE   W03
 BYTE   N05  Cn3  v104
 BYTE   W06
 BYTE   N02  Cn3  v089
 BYTE   W03
 BYTE   Cn3
 BYTE   W03
 BYTE   N05  Cn3  v104
 BYTE   W06
 BYTE   N02  Cn3  v089
 BYTE   W03
 BYTE   Cn3
 BYTE   W03
 BYTE   N05  Cn3  v108
 BYTE   W06
 BYTE   N02  Cn3  v089
 BYTE   W03
 BYTE   Cn3
 BYTE   W03
// 023   ----------------------------------------
 BYTE   N05  Cn3  v104
 BYTE   W06
 BYTE   N02  Cn3  v089
 BYTE   W03
 BYTE   Cn3
 BYTE   W03
 BYTE   N05  Cn3  v104
 BYTE   W06
 BYTE   N02  Cn3  v089
 BYTE   W03
 BYTE   Cn3
 BYTE   W03
 BYTE   N05  Cn3  v104
 BYTE   W06
 BYTE   N02  Cn3  v089
 BYTE   W03
 BYTE   Cn3
 BYTE   W03
 BYTE   N05  Cn3  v108
 BYTE   W06
 BYTE   N02  Cn3  v089
 BYTE   W03
 BYTE   Cn3
 BYTE   W03
 BYTE   N05  Cn3  v104
 BYTE   W06
 BYTE   N02  Cn3  v089
 BYTE   W03
 BYTE   Cn3
 BYTE   W03
 BYTE   N05  Cn3  v104
 BYTE   W06
 BYTE   N02  Cn3  v089
 BYTE   W03
 BYTE   Cn3
 BYTE   W03
 BYTE   N05  Cn3  v104
 BYTE   W06
 BYTE   N02  Cn3  v089
 BYTE   W03
 BYTE   Cn3
 BYTE   W03
 BYTE   N05  Cn3  v110
 BYTE   W06
 BYTE   N02  Cn3  v091
 BYTE   W03
 BYTE   Cn3
 BYTE   W03
// 024   ----------------------------------------
 BYTE   N05  Cn3  v109
 BYTE   W06
 BYTE   N02  Cn3  v096
 BYTE   W03
 BYTE   Cn3
 BYTE   W03
 BYTE   N05  Cn3  v114
 BYTE   W06
 BYTE   N02  Cn3  v102
 BYTE   W03
 BYTE   Cn3
 BYTE   W03
 BYTE   N05  Cn3  v119
 BYTE   W06
 BYTE   N02  Cn3  v107
 BYTE   W03
 BYTE   Cn3
 BYTE   GoTo
  POIN2 Label_1_010249AC
 BYTE   FINE

//**************** Track 3 (Midi-Chn.2) ****************//

FE03ArmyOfDarknessRSflame_003:
// 000   ----------------------------------------
Label_2_01024D8C:
 BYTE   KEYSH   FE03ArmyOfDarknessRSflame_key+0
 BYTE   VOICE   18
 BYTE   VOL   70*FE03ArmyOfDarknessRSflame_mvl/mxv
 BYTE   PAN   c_v-14
 BYTE   N56  Cn3  v102
 BYTE   TEMPO   62*FE03ArmyOfDarknessRSflame_tbs/2
 BYTE   W28
 BYTE   N03  Cn3  v102
 BYTE   W32
 BYTE   N11  Cn3  v107
 BYTE   W12
 BYTE   As2  v102
 BYTE   W12
 BYTE   Ds3  v112
 BYTE   W12
// 001   ----------------------------------------
 BYTE   N56  Cn3  v102
 BYTE   W28
 BYTE   N03
 BYTE   W32
 BYTE   N11  Fn3  v107
 BYTE   W12
 BYTE   Ds3  v102
 BYTE   W12
 BYTE   As2  v096
 BYTE   W12
// 002   ----------------------------------------
 BYTE   N68  Cn3  v102
 BYTE   W32
 BYTE   W02
 BYTE   N03
 BYTE   W44
 BYTE   N05  Fn3  v104
 BYTE   W06
 BYTE   Gn3  v107
 BYTE   W06
 BYTE   As3
 BYTE   W06
// 003   ----------------------------------------
 BYTE   N54  Cn4  v109
 BYTE   W24
 BYTE   W03
 BYTE   N01
 BYTE   W28
 BYTE   W01
 BYTE   N07  Fn4  v108
 BYTE   W08
 BYTE   Ds4  v107
 BYTE   W08
 BYTE   Cn4  v105
 BYTE   W08
 BYTE   As3  v104
 BYTE   W08
 BYTE   An3  v103
 BYTE   W08
// 004   ----------------------------------------
 BYTE   N56  Fn3  v102
 BYTE   W28
 BYTE   N03
 BYTE   W32
 BYTE   N11  As3  v108
 BYTE   W12
 BYTE   An3  v102
 BYTE   W12
 BYTE   Fn3  v096
 BYTE   W12
// 005   ----------------------------------------
 BYTE   N56  Cn4  v102
 BYTE   W28
 BYTE   N03
 BYTE   W32
 BYTE   N11  As3  v108
 BYTE   W12
 BYTE   An3  v102
 BYTE   W12
 BYTE   Fn3  v096
 BYTE   W12
// 006   ----------------------------------------
 BYTE   N68  Cn3  v102
 BYTE   W32
 BYTE   W02
 BYTE   N03
 BYTE   W44
 BYTE   N05  Fn3  v104
 BYTE   W06
 BYTE   Gn3  v107
 BYTE   W06
 BYTE   As3
 BYTE   W06
// 007   ----------------------------------------
 BYTE   N52  Cn4  v109
 BYTE   W24
 BYTE   W02
 BYTE   N01
 BYTE   W28
 BYTE   N05  Cn4  v102
 BYTE   W06
 BYTE   Cn4
 BYTE   W06
 BYTE   Gn3
 BYTE   W06
 BYTE   Gn3
 BYTE   W06
 BYTE   Dn3
 BYTE   W06
 BYTE   Dn3
 BYTE   W06
 BYTE   Gn2
 BYTE   W06
// 008   ----------------------------------------
Label_2_01024E27:
 BYTE   VOL   58*FE03ArmyOfDarknessRSflame_mvl/mxv
 BYTE   PAN   c_v+14
 BYTE   W12
 BYTE   N05  Cn4  v112
 BYTE   W06
 BYTE   Cn4  v102
 BYTE   W06
 BYTE   Gn3  v112
 BYTE   W06
 BYTE   Gn3  v102
 BYTE   W06
 BYTE   Dn3  v112
 BYTE   W06
 BYTE   Dn3  v102
 BYTE   W12
 BYTE   Cn4
 BYTE   W06
 BYTE   Cn4  v112
 BYTE   W06
 BYTE   Gn3  v102
 BYTE   W06
 BYTE   Gn3  v112
 BYTE   W06
 BYTE   Dn3  v102
 BYTE   W06
 BYTE   Dn3  v112
 BYTE   W06
 BYTE   Gn2  v102
 BYTE   W06
// 009   ----------------------------------------
 BYTE   Cn4  v112
 BYTE   W06
 BYTE   Cn4  v102
 BYTE   W06
 BYTE   Gn3  v112
 BYTE   W06
 BYTE   Gn3  v102
 BYTE   W06
 BYTE   Dn3  v112
 BYTE   W06
 BYTE   Dn3  v102
 BYTE   W06
 BYTE   Gn2  v112
 BYTE   W06
 BYTE   Gn2  v102
 BYTE   W12
 BYTE   Cn4
 BYTE   W06
 BYTE   Cn4  v112
 BYTE   W06
 BYTE   Gn3  v102
 BYTE   W06
 BYTE   Gn3  v112
 BYTE   W06
 BYTE   Dn3  v102
 BYTE   W06
 BYTE   Dn3  v112
 BYTE   W06
 BYTE   Gn2  v102
 BYTE   W06
// 010   ----------------------------------------
 BYTE   Gn2  v112
 BYTE   W06
 BYTE   Dn3  v102
 BYTE   W06
 BYTE   Dn3  v112
 BYTE   W06
 BYTE   Gn3  v102
 BYTE   W06
 BYTE   PEND 
 BYTE   VOL   70*FE03ArmyOfDarknessRSflame_mvl/mxv
 BYTE   PAN   c_v-14
 BYTE   N44  Cn4  v108
 BYTE   W22
 BYTE   N03
 BYTE   W32
 BYTE   N05  As3  v102
 BYTE   W12
 BYTE   Fn3
 BYTE   W12
// 011   ----------------------------------------
 BYTE   Gn3
 BYTE   W12
 BYTE   As2
 BYTE   W06
 BYTE   N44  Cn3  v112
 BYTE   W22
 BYTE   N02
 BYTE   W24
 BYTE   W01
 BYTE   Cn3  v109
 BYTE   W03
 BYTE   Cn3
 BYTE   W03
 BYTE   Fn3
 BYTE   W03
 BYTE   Fn3
 BYTE   W03
 BYTE   Cn3  v114
 BYTE   W03
 BYTE   Cn3
 BYTE   W03
 BYTE   Fn3
 BYTE   W03
 BYTE   Fn3
 BYTE   W03
 BYTE   Cn3  v119
 BYTE   W03
 BYTE   Cn3
 BYTE   W03
 BYTE   Fn3
 BYTE   W03
// 012   ----------------------------------------
 BYTE   Fn3
 BYTE   W03
 BYTE   Cn3  v124
 BYTE   W03
 BYTE   Cn3
 BYTE   W03
 BYTE   Fn3
 BYTE   W03
 BYTE   Fn3
 BYTE   W03
 BYTE   N56  Cn3  v102
 BYTE   W28
 BYTE   N03
 BYTE   W32
 BYTE   N11  Cn3  v107
 BYTE   W12
 BYTE   As2  v102
 BYTE   W12
// 013   ----------------------------------------
 BYTE   Ds3  v112
 BYTE   W12
 BYTE   N56  Cn3  v102
 BYTE   W28
 BYTE   N03
 BYTE   W32
 BYTE   N11  Fn3  v107
 BYTE   W12
 BYTE   Ds3  v102
 BYTE   W12
// 014   ----------------------------------------
 BYTE   As2  v096
 BYTE   W12
 BYTE   N68  Cn3  v102
 BYTE   W32
 BYTE   W02
 BYTE   N03
 BYTE   W44
 BYTE   N05  Fn3  v104
 BYTE   W06
// 015   ----------------------------------------
 BYTE   Gn3  v107
 BYTE   W06
 BYTE   As3
 BYTE   W06
 BYTE   N54  Cn4  v109
 BYTE   W24
 BYTE   W03
 BYTE   N01
 BYTE   W28
 BYTE   W01
 BYTE   N07  Fn4  v108
 BYTE   W08
 BYTE   Ds4  v107
 BYTE   W08
 BYTE   Cn4  v105
 BYTE   W08
 BYTE   As3  v104
 BYTE   W08
// 016   ----------------------------------------
 BYTE   An3  v103
 BYTE   W08
 BYTE   N56  Fn3  v102
 BYTE   W28
 BYTE   N03
 BYTE   W32
 BYTE   N11  As3  v108
 BYTE   W12
 BYTE   An3  v102
 BYTE   W12
 BYTE   Fn3  v096
 BYTE   W12
// 017   ----------------------------------------
 BYTE   N56  Cn4  v102
 BYTE   W28
 BYTE   N03
 BYTE   W32
 BYTE   N11  As3  v108
 BYTE   W12
 BYTE   An3  v102
 BYTE   W12
 BYTE   Fn3  v096
 BYTE   W12
// 018   ----------------------------------------
 BYTE   N68  Cn3  v102
 BYTE   W32
 BYTE   W02
 BYTE   N03
 BYTE   W44
 BYTE   N05  Fn3  v104
 BYTE   W06
 BYTE   Gn3  v107
 BYTE   W06
 BYTE   As3
 BYTE   W06
// 019   ----------------------------------------
 BYTE   N52  Cn4  v109
 BYTE   W24
 BYTE   W02
 BYTE   N01
 BYTE   W28
 BYTE   N05  Cn4  v102
 BYTE   W06
 BYTE   Cn4
 BYTE   W06
 BYTE   Gn3
 BYTE   W06
 BYTE   Gn3
 BYTE   W06
 BYTE   Dn3
 BYTE   W06
 BYTE   Dn3
 BYTE   W06
 BYTE   Gn2
 BYTE   W06
// 020   ----------------------------------------
 BYTE   PATT
  POIN2 Label_2_01024E27
// 021   ----------------------------------------
 BYTE   VOL   70*FE03ArmyOfDarknessRSflame_mvl/mxv
 BYTE   PAN   c_v-14
 BYTE   N44  Cn4  v108
 BYTE   W22
 BYTE   N03
 BYTE   W32
 BYTE   N05  As3  v102
 BYTE   W12
 BYTE   Fn3
 BYTE   W12
 BYTE   Gn3
 BYTE   W12
 BYTE   As2
 BYTE   W06
// 022   ----------------------------------------
 BYTE   N44  Cn3  v112
 BYTE   W22
 BYTE   N02
 BYTE   W24
 BYTE   W01
 BYTE   Cn3  v109
 BYTE   W03
 BYTE   Cn3
 BYTE   W03
 BYTE   Fn3
 BYTE   W03
 BYTE   Fn3
 BYTE   W03
 BYTE   Cn3  v114
 BYTE   W03
 BYTE   Cn3
 BYTE   W03
 BYTE   Fn3
 BYTE   W03
 BYTE   Fn3
 BYTE   W03
 BYTE   Cn3  v119
 BYTE   W03
 BYTE   Cn3
 BYTE   W03
 BYTE   Fn3
 BYTE   W03
 BYTE   Fn3
 BYTE   W03
 BYTE   Cn3  v124
 BYTE   W03
 BYTE   Cn3
 BYTE   W03
 BYTE   Fn3
 BYTE   W03
 BYTE   Fn3
 BYTE   GoTo
  POIN2 Label_2_01024D8C
 BYTE   FINE

//**************** Track 4 (Midi-Chn.3) ****************//

FE03ArmyOfDarknessRSflame_004:
// 000   ----------------------------------------
Label_3_01024FA4:
 BYTE   KEYSH   FE03ArmyOfDarknessRSflame_key+0
 BYTE   VOICE   18
 BYTE   TEMPO   62*FE03ArmyOfDarknessRSflame_tbs/2
 BYTE   W01
 BYTE   VOL   35*FE03ArmyOfDarknessRSflame_mvl/mxv
 BYTE   PAN   c_v+0
 BYTE   N56  Cn4  v102
 BYTE   W28
 BYTE   N03
 BYTE   W32
 BYTE   N11  Cn4  v108
 BYTE   W12
 BYTE   As3  v102
 BYTE   W12
 BYTE   Ds4  v114
 BYTE   W12
// 001   ----------------------------------------
 BYTE   N56  Cn4  v102
 BYTE   W28
 BYTE   N03
 BYTE   W32
 BYTE   N11  Fn4  v108
 BYTE   W12
 BYTE   Ds4  v102
 BYTE   W12
 BYTE   As3  v096
 BYTE   W12
// 002   ----------------------------------------
 BYTE   N68  Cn4  v102
 BYTE   W32
 BYTE   W02
 BYTE   N03
 BYTE   W44
 BYTE   N05  Fn4  v104
 BYTE   W06
 BYTE   Gn4  v107
 BYTE   W06
 BYTE   As4
 BYTE   W06
// 003   ----------------------------------------
 BYTE   N54  Cn5  v109
 BYTE   W24
 BYTE   W03
 BYTE   N01
 BYTE   W28
 BYTE   W01
 BYTE   N07  Fn5  v108
 BYTE   W08
 BYTE   Ds5  v107
 BYTE   W08
 BYTE   Cn5  v105
 BYTE   W08
 BYTE   As4  v104
 BYTE   W08
 BYTE   An4  v103
 BYTE   W08
// 004   ----------------------------------------
 BYTE   N56  Fn4  v102
 BYTE   W28
 BYTE   N03
 BYTE   W32
 BYTE   N11  As4  v108
 BYTE   W12
 BYTE   An4  v102
 BYTE   W12
 BYTE   Fn4  v096
 BYTE   W12
// 005   ----------------------------------------
 BYTE   N56  Cn5  v102
 BYTE   W28
 BYTE   N03
 BYTE   W32
 BYTE   N11  As4  v108
 BYTE   W12
 BYTE   An4  v102
 BYTE   W12
 BYTE   Fn4  v096
 BYTE   W12
// 006   ----------------------------------------
 BYTE   N68  Cn4  v102
 BYTE   W32
 BYTE   W02
 BYTE   N03
 BYTE   W44
 BYTE   N05  Fn4  v104
 BYTE   W06
 BYTE   Gn4  v107
 BYTE   W06
 BYTE   As4
 BYTE   W06
// 007   ----------------------------------------
 BYTE   N52  Cn5  v109
 BYTE   W24
 BYTE   W02
 BYTE   N01
 BYTE   W28
 BYTE   N05  Cn5  v102
 BYTE   W06
 BYTE   Cn5
 BYTE   W06
 BYTE   Gn4
 BYTE   W06
 BYTE   Gn4
 BYTE   W06
 BYTE   Dn4
 BYTE   W06
 BYTE   Dn4
 BYTE   W06
 BYTE   Gn3
 BYTE   W06
// 008   ----------------------------------------
Label_3_0102503E:
 BYTE   VOL   25*FE03ArmyOfDarknessRSflame_mvl/mxv
 BYTE   PAN   c_v+0
 BYTE   W12
 BYTE   N05  Cn5  v112
 BYTE   W06
 BYTE   Cn5  v102
 BYTE   W06
 BYTE   Gn4  v112
 BYTE   W06
 BYTE   Gn4  v102
 BYTE   W06
 BYTE   Dn4  v112
 BYTE   W06
 BYTE   Dn4  v102
 BYTE   W12
 BYTE   Cn5
 BYTE   W06
 BYTE   Cn5  v112
 BYTE   W06
 BYTE   Gn4  v102
 BYTE   W06
 BYTE   Gn4  v112
 BYTE   W06
 BYTE   Dn4  v102
 BYTE   W06
 BYTE   Dn4  v112
 BYTE   W06
 BYTE   Gn3  v102
 BYTE   W06
// 009   ----------------------------------------
 BYTE   Cn5  v112
 BYTE   W06
 BYTE   Cn5  v102
 BYTE   W06
 BYTE   Gn4  v112
 BYTE   W06
 BYTE   Gn4  v102
 BYTE   W06
 BYTE   Dn4  v112
 BYTE   W06
 BYTE   Dn4  v102
 BYTE   W06
 BYTE   Gn3  v112
 BYTE   W06
 BYTE   Gn3  v102
 BYTE   W12
 BYTE   Cn5
 BYTE   W06
 BYTE   Cn5  v112
 BYTE   W06
 BYTE   Gn4  v102
 BYTE   W06
 BYTE   Gn4  v112
 BYTE   W06
 BYTE   Dn4  v102
 BYTE   W06
 BYTE   Dn4  v112
 BYTE   W06
 BYTE   Gn3  v102
 BYTE   W06
// 010   ----------------------------------------
 BYTE   Gn3  v112
 BYTE   W06
 BYTE   Dn4  v102
 BYTE   W06
 BYTE   Dn4  v112
 BYTE   W06
 BYTE   Gn4  v102
 BYTE   W06
 BYTE   PEND 
 BYTE   VOL   35*FE03ArmyOfDarknessRSflame_mvl/mxv
 BYTE   PAN   c_v+0
 BYTE   N44  Cn5  v108
 BYTE   W22
 BYTE   N03
 BYTE   W32
 BYTE   N05  As4  v102
 BYTE   W12
 BYTE   Fn4
 BYTE   W12
// 011   ----------------------------------------
 BYTE   Gn4
 BYTE   W12
 BYTE   As3
 BYTE   W06
 BYTE   N44  Cn4  v112
 BYTE   W22
 BYTE   N02
 BYTE   W24
 BYTE   W01
 BYTE   Cn4  v109
 BYTE   W03
 BYTE   Cn4
 BYTE   W03
 BYTE   Fn4
 BYTE   W03
 BYTE   Fn4
 BYTE   W03
 BYTE   Cn4  v114
 BYTE   W03
 BYTE   Cn4
 BYTE   W03
 BYTE   Fn4
 BYTE   W03
 BYTE   Fn4
 BYTE   W03
 BYTE   Cn4  v119
 BYTE   W03
 BYTE   Cn4
 BYTE   W03
 BYTE   Fn4
 BYTE   W03
// 012   ----------------------------------------
 BYTE   Fn4
 BYTE   W03
 BYTE   Cn4  v124
 BYTE   W03
 BYTE   Cn4
 BYTE   W03
 BYTE   Fn4
 BYTE   W03
 BYTE   N01
 BYTE   W04
 BYTE   VOL   35*FE03ArmyOfDarknessRSflame_mvl/mxv
 BYTE   PAN   c_v+0
 BYTE   N56  Cn4  v102
 BYTE   W28
 BYTE   N03
 BYTE   W32
 BYTE   N11  Cn4  v108
 BYTE   W12
 BYTE   As3  v102
 BYTE   W12
// 013   ----------------------------------------
 BYTE   Ds4  v114
 BYTE   W12
 BYTE   N56  Cn4  v102
 BYTE   W28
 BYTE   N03
 BYTE   W32
 BYTE   N11  Fn4  v108
 BYTE   W12
 BYTE   Ds4  v102
 BYTE   W12
// 014   ----------------------------------------
 BYTE   As3  v096
 BYTE   W12
 BYTE   N68  Cn4  v102
 BYTE   W32
 BYTE   W02
 BYTE   N03
 BYTE   W44
 BYTE   N05  Fn4  v104
 BYTE   W06
// 015   ----------------------------------------
 BYTE   Gn4  v107
 BYTE   W06
 BYTE   As4
 BYTE   W06
 BYTE   N54  Cn5  v109
 BYTE   W24
 BYTE   W03
 BYTE   N01
 BYTE   W28
 BYTE   W01
 BYTE   N07  Fn5  v108
 BYTE   W08
 BYTE   Ds5  v107
 BYTE   W08
 BYTE   Cn5  v105
 BYTE   W08
 BYTE   As4  v104
 BYTE   W08
// 016   ----------------------------------------
 BYTE   An4  v103
 BYTE   W08
 BYTE   N56  Fn4  v102
 BYTE   W28
 BYTE   N03
 BYTE   W32
 BYTE   N11  As4  v108
 BYTE   W12
 BYTE   An4  v102
 BYTE   W12
 BYTE   Fn4  v096
 BYTE   W12
// 017   ----------------------------------------
 BYTE   N56  Cn5  v102
 BYTE   W28
 BYTE   N03
 BYTE   W32
 BYTE   N11  As4  v108
 BYTE   W12
 BYTE   An4  v102
 BYTE   W12
 BYTE   Fn4  v096
 BYTE   W12
// 018   ----------------------------------------
 BYTE   N68  Cn4  v102
 BYTE   W32
 BYTE   W02
 BYTE   N03
 BYTE   W44
 BYTE   N05  Fn4  v104
 BYTE   W06
 BYTE   Gn4  v107
 BYTE   W06
 BYTE   As4
 BYTE   W06
// 019   ----------------------------------------
 BYTE   N52  Cn5  v109
 BYTE   W24
 BYTE   W02
 BYTE   N01
 BYTE   W28
 BYTE   N05  Cn5  v102
 BYTE   W06
 BYTE   Cn5
 BYTE   W06
 BYTE   Gn4
 BYTE   W06
 BYTE   Gn4
 BYTE   W06
 BYTE   Dn4
 BYTE   W06
 BYTE   Dn4
 BYTE   W06
 BYTE   Gn3
 BYTE   W06
// 020   ----------------------------------------
 BYTE   PATT
  POIN2 Label_3_0102503E
// 021   ----------------------------------------
 BYTE   VOL   35*FE03ArmyOfDarknessRSflame_mvl/mxv
 BYTE   PAN   c_v+0
 BYTE   N44  Cn5  v108
 BYTE   W22
 BYTE   N03
 BYTE   W32
 BYTE   N05  As4  v102
 BYTE   W12
 BYTE   Fn4
 BYTE   W12
 BYTE   Gn4
 BYTE   W12
 BYTE   As3
 BYTE   W06
// 022   ----------------------------------------
 BYTE   N44  Cn4  v112
 BYTE   W22
 BYTE   N02
 BYTE   W24
 BYTE   W01
 BYTE   Cn4  v109
 BYTE   W03
 BYTE   Cn4
 BYTE   W03
 BYTE   Fn4
 BYTE   W03
 BYTE   Fn4
 BYTE   W03
 BYTE   Cn4  v114
 BYTE   W03
 BYTE   Cn4
 BYTE   W03
 BYTE   Fn4
 BYTE   W03
 BYTE   Fn4
 BYTE   W03
 BYTE   Cn4  v119
 BYTE   W03
 BYTE   Cn4
 BYTE   W03
 BYTE   Fn4
 BYTE   W03
 BYTE   Fn4
 BYTE   W03
 BYTE   Cn4  v124
 BYTE   W03
 BYTE   Cn4
 BYTE   W03
 BYTE   Fn4
 BYTE   W03
 BYTE   N01
 BYTE   GoTo
  POIN2 Label_3_01024FA4
 BYTE   FINE

//**************** Track 5 (Midi-Chn.4) ****************//

FE03ArmyOfDarknessRSflame_005:
// 000   ----------------------------------------
Label_4_010251C0:
 BYTE   KEYSH   FE03ArmyOfDarknessRSflame_key+0
 BYTE   VOICE   24
 BYTE   VOL   70*FE03ArmyOfDarknessRSflame_mvl/mxv
 BYTE   PAN   c_v-34
 BYTE   N05  Cn2  v091
 BYTE   TEMPO   62*FE03ArmyOfDarknessRSflame_tbs/2
 BYTE   W06
 BYTE   N05  Cn3  v112
 BYTE   W06
 BYTE   Cn2  v091
 BYTE   W06
 BYTE   Cn3  v112
 BYTE   W06
 BYTE   Cn2  v091
 BYTE   W06
 BYTE   Cn3  v112
 BYTE   W06
 BYTE   Cn2  v091
 BYTE   W06
 BYTE   Cn3  v112
 BYTE   W06
 BYTE   As1  v098
 BYTE   W06
 BYTE   As2  v117
 BYTE   W06
 BYTE   As1  v098
 BYTE   W06
 BYTE   As2  v117
 BYTE   W06
 BYTE   As1  v098
 BYTE   W06
 BYTE   As2  v117
 BYTE   W06
 BYTE   As1  v098
 BYTE   W06
 BYTE   As2  v117
 BYTE   W06
// 001   ----------------------------------------
 BYTE   Cn2  v091
 BYTE   W06
Label_4_010251FF:
 BYTE   N05  Cn3  v112
 BYTE   W06
 BYTE   Cn2  v091
 BYTE   W06
 BYTE   Cn3  v112
 BYTE   W06
 BYTE   Cn2  v091
 BYTE   W06
 BYTE   Cn3  v112
 BYTE   W06
 BYTE   Cn2  v091
 BYTE   W06
 BYTE   Cn3  v112
 BYTE   W06
 BYTE   As1  v098
 BYTE   W06
 BYTE   As2  v117
 BYTE   W06
 BYTE   As1  v098
 BYTE   W06
 BYTE   As2  v117
 BYTE   W06
 BYTE   As1  v098
 BYTE   W06
 BYTE   As2  v117
 BYTE   W06
 BYTE   As1  v098
 BYTE   W06
 BYTE   As2  v117
 BYTE   W06
// 002   ----------------------------------------
 BYTE   Cn2  v091
 BYTE   W06
 BYTE   PEND 
// 003   ----------------------------------------
 BYTE   PATT
  POIN2 Label_4_010251FF
// 004   ----------------------------------------
 BYTE   PATT
  POIN2 Label_4_010251FF
// 005   ----------------------------------------
 BYTE   PATT
  POIN2 Label_4_010251FF
// 006   ----------------------------------------
 BYTE   PATT
  POIN2 Label_4_010251FF
// 007   ----------------------------------------
 BYTE   N05  Cn3  v112
 BYTE   W06
 BYTE   Cn2  v091
 BYTE   W06
 BYTE   Cn3  v112
 BYTE   W06
 BYTE   Cn2  v091
 BYTE   W06
 BYTE   Cn3  v112
 BYTE   W06
 BYTE   Cn2  v091
 BYTE   W06
 BYTE   Cn3  v112
 BYTE   W06
 BYTE   As1  v098
 BYTE   W06
 BYTE   As2  v117
 BYTE   W06
 BYTE   As1  v098
 BYTE   W06
 BYTE   As2  v117
 BYTE   W06
 BYTE   As1  v098
 BYTE   W06
 BYTE   As2  v117
 BYTE   W06
 BYTE   As1  v098
 BYTE   W06
 BYTE   As2  v117
 BYTE   W06
 BYTE   Cn2  v095
 BYTE   W06
// 008   ----------------------------------------
 BYTE   Cn3  v114
 BYTE   W06
 BYTE   Cn2  v095
 BYTE   W06
 BYTE   Cn3  v114
 BYTE   W06
 BYTE   Cn2  v095
 BYTE   W06
 BYTE   Cn3  v114
 BYTE   W06
 BYTE   Cn2  v095
 BYTE   W06
 BYTE   Cn3  v114
 BYTE   W06
 BYTE   As1  v095
 BYTE   W06
 BYTE   As2  v114
 BYTE   W06
 BYTE   As1  v095
 BYTE   W06
 BYTE   As2  v114
 BYTE   W06
 BYTE   As1  v095
 BYTE   W06
 BYTE   As2  v114
 BYTE   W06
 BYTE   As1  v095
 BYTE   W06
 BYTE   N04  As2  v114
 BYTE   W05
Label_4_010252A4:
 BYTE   VOL   55*FE03ArmyOfDarknessRSflame_mvl/mxv
 BYTE   PAN   c_v-34
 BYTE   N44  Fn1  v105
 BYTE   W22
// 009   ----------------------------------------
 BYTE   N03
 BYTE   W24
 BYTE   W02
 BYTE   N44  Ds1  v102
 BYTE   W22
 BYTE   N03
 BYTE   W24
 BYTE   W02
 BYTE   N44  Dn1
 BYTE   W22
// 010   ----------------------------------------
 BYTE   N03
 BYTE   W24
 BYTE   W02
 BYTE   N68  Cs1
 BYTE   W32
 BYTE   W02
 BYTE   N03
 BYTE   W36
// 011   ----------------------------------------
 BYTE   W02
 BYTE   PEND 
 BYTE   VOL   55*FE03ArmyOfDarknessRSflame_mvl/mxv
 BYTE   PAN   c_v+0
 BYTE   N05  Cn3  v102
 BYTE   W06
 BYTE   N02  Gn3
 BYTE   W03
 BYTE   Cn4
 BYTE   W03
 BYTE   N05  Cn3
 BYTE   W06
 BYTE   N02  Gn3
 BYTE   W03
 BYTE   Cn4
 BYTE   W03
 BYTE   N05  Cn3
 BYTE   W06
 BYTE   N02  Gn3
 BYTE   W03
 BYTE   Cn4
 BYTE   W03
 BYTE   N05  Cn3
 BYTE   W06
 BYTE   N02  Gn3
 BYTE   W03
 BYTE   Cn4
 BYTE   W03
 BYTE   N05  Cn3
 BYTE   W06
 BYTE   N02  Gn3
 BYTE   W03
 BYTE   Cn4
 BYTE   W03
 BYTE   N05  Cn3
 BYTE   W06
 BYTE   N02  Gn3
 BYTE   W03
 BYTE   Cn4
 BYTE   W03
 BYTE   N05  Cn3
 BYTE   W06
 BYTE   N02  Gn3
 BYTE   W03
 BYTE   Cn4
 BYTE   W03
 BYTE   N05  Cn3
 BYTE   W06
 BYTE   N02  Gn3
 BYTE   W03
 BYTE   Cn4
 BYTE   W03
// 012   ----------------------------------------
 BYTE   N05  Cs3
 BYTE   W06
 BYTE   N02  Gs3
 BYTE   W03
 BYTE   Cs4
 BYTE   W03
 BYTE   N05  Cs3
 BYTE   W06
 BYTE   N02  Gs3
 BYTE   W03
 BYTE   Cs4
 BYTE   W03
 BYTE   N05  Cs3
 BYTE   W06
 BYTE   N02  Gs3
 BYTE   W03
 BYTE   Cs4
 BYTE   W03
 BYTE   N05  Cs3
 BYTE   W06
 BYTE   N02  Gs3
 BYTE   W03
 BYTE   Cs4
 BYTE   W03
 BYTE   N05  Ds3
 BYTE   W06
 BYTE   N02  As3
 BYTE   W03
 BYTE   Ds4
 BYTE   W03
 BYTE   N05  Ds3  v107
 BYTE   W06
 BYTE   N02  As3
 BYTE   W03
 BYTE   Ds4
 BYTE   W03
 BYTE   N05  Ds3  v112
 BYTE   W06
 BYTE   N02  As3
 BYTE   W03
 BYTE   Ds4
 BYTE   W03
 BYTE   N05  Ds3  v117
 BYTE   W06
 BYTE   N02  As3
 BYTE   W03
 BYTE   Ds4
 BYTE   W03
// 013   ----------------------------------------
 BYTE   VOL   70*FE03ArmyOfDarknessRSflame_mvl/mxv
 BYTE   PAN   c_v-34
 BYTE   N05  Cn2  v091
 BYTE   W06
 BYTE   Cn3  v112
 BYTE   W06
 BYTE   Cn2  v091
 BYTE   W06
 BYTE   Cn3  v112
 BYTE   W06
 BYTE   Cn2  v091
 BYTE   W06
 BYTE   Cn3  v112
 BYTE   W06
 BYTE   Cn2  v091
 BYTE   W06
 BYTE   Cn3  v112
 BYTE   W06
 BYTE   As1  v098
 BYTE   W06
 BYTE   As2  v117
 BYTE   W06
 BYTE   As1  v098
 BYTE   W06
 BYTE   As2  v117
 BYTE   W06
 BYTE   As1  v098
 BYTE   W06
 BYTE   As2  v117
 BYTE   W06
 BYTE   As1  v098
 BYTE   W06
 BYTE   As2  v117
 BYTE   W06
// 014   ----------------------------------------
 BYTE   Cn2  v091
 BYTE   W06
 BYTE   Cn3  v112
 BYTE   W06
 BYTE   Cn2  v091
 BYTE   W06
 BYTE   Cn3  v112
 BYTE   W06
 BYTE   Cn2  v091
 BYTE   W06
 BYTE   Cn3  v112
 BYTE   W06
 BYTE   Cn2  v091
 BYTE   W06
 BYTE   Cn3  v112
 BYTE   W06
 BYTE   As1  v098
 BYTE   W06
 BYTE   As2  v117
 BYTE   W06
 BYTE   As1  v098
 BYTE   W06
 BYTE   As2  v117
 BYTE   W06
 BYTE   As1  v098
 BYTE   W06
 BYTE   As2  v117
 BYTE   W06
 BYTE   As1  v098
 BYTE   W06
 BYTE   As2  v117
 BYTE   W06
// 015   ----------------------------------------
 BYTE   Cn2  v091
 BYTE   W06
 BYTE   Cn3  v112
 BYTE   W06
 BYTE   Cn2  v091
 BYTE   W06
 BYTE   Cn3  v112
 BYTE   W06
 BYTE   Cn2  v091
 BYTE   W06
 BYTE   Cn3  v112
 BYTE   W06
 BYTE   Cn2  v091
 BYTE   W06
 BYTE   Cn3  v112
 BYTE   W06
 BYTE   As1  v098
 BYTE   W06
 BYTE   As2  v117
 BYTE   W06
 BYTE   As1  v098
 BYTE   W06
 BYTE   As2  v117
 BYTE   W06
 BYTE   As1  v098
 BYTE   W06
 BYTE   As2  v117
 BYTE   W06
 BYTE   As1  v098
 BYTE   W06
 BYTE   As2  v117
 BYTE   W06
// 016   ----------------------------------------
 BYTE   Cn2  v091
 BYTE   W06
 BYTE   Cn3  v112
 BYTE   W06
 BYTE   Cn2  v091
 BYTE   W06
 BYTE   Cn3  v112
 BYTE   W06
 BYTE   Cn2  v091
 BYTE   W06
 BYTE   Cn3  v112
 BYTE   W06
 BYTE   Cn2  v091
 BYTE   W06
 BYTE   Cn3  v112
 BYTE   W06
 BYTE   As1  v098
 BYTE   W06
 BYTE   As2  v117
 BYTE   W06
 BYTE   As1  v098
 BYTE   W06
 BYTE   As2  v117
 BYTE   W06
 BYTE   As1  v098
 BYTE   W06
 BYTE   As2  v117
 BYTE   W06
 BYTE   As1  v098
 BYTE   W06
 BYTE   As2  v117
 BYTE   W06
// 017   ----------------------------------------
 BYTE   Cn2  v091
 BYTE   W06
 BYTE   Cn3  v112
 BYTE   W06
 BYTE   Cn2  v091
 BYTE   W06
 BYTE   Cn3  v112
 BYTE   W06
 BYTE   Cn2  v091
 BYTE   W06
 BYTE   Cn3  v112
 BYTE   W06
 BYTE   Cn2  v091
 BYTE   W06
 BYTE   Cn3  v112
 BYTE   W06
 BYTE   As1  v098
 BYTE   W06
 BYTE   As2  v117
 BYTE   W06
 BYTE   As1  v098
 BYTE   W06
 BYTE   As2  v117
 BYTE   W06
 BYTE   As1  v098
 BYTE   W06
 BYTE   As2  v117
 BYTE   W06
 BYTE   As1  v098
 BYTE   W06
 BYTE   As2  v117
 BYTE   W06
// 018   ----------------------------------------
 BYTE   Cn2  v091
 BYTE   W06
 BYTE   Cn3  v112
 BYTE   W06
 BYTE   Cn2  v091
 BYTE   W06
 BYTE   Cn3  v112
 BYTE   W06
 BYTE   Cn2  v091
 BYTE   W06
 BYTE   Cn3  v112
 BYTE   W06
 BYTE   Cn2  v091
 BYTE   W06
 BYTE   Cn3  v112
 BYTE   W06
 BYTE   As1  v098
 BYTE   W06
 BYTE   As2  v117
 BYTE   W06
 BYTE   As1  v098
 BYTE   W06
 BYTE   As2  v117
 BYTE   W06
 BYTE   As1  v098
 BYTE   W06
 BYTE   As2  v117
 BYTE   W06
 BYTE   As1  v098
 BYTE   W06
 BYTE   As2  v117
 BYTE   W06
// 019   ----------------------------------------
 BYTE   Cn2  v091
 BYTE   W06
 BYTE   Cn3  v112
 BYTE   W06
 BYTE   Cn2  v091
 BYTE   W06
 BYTE   Cn3  v112
 BYTE   W06
 BYTE   Cn2  v091
 BYTE   W06
 BYTE   Cn3  v112
 BYTE   W06
 BYTE   Cn2  v091
 BYTE   W06
 BYTE   Cn3  v112
 BYTE   W06
 BYTE   As1  v098
 BYTE   W06
 BYTE   As2  v117
 BYTE   W06
 BYTE   As1  v098
 BYTE   W06
 BYTE   As2  v117
 BYTE   W06
 BYTE   As1  v098
 BYTE   W06
 BYTE   As2  v117
 BYTE   W06
 BYTE   As1  v098
 BYTE   W06
 BYTE   As2  v117
 BYTE   W06
// 020   ----------------------------------------
 BYTE   Cn2  v095
 BYTE   W06
 BYTE   Cn3  v114
 BYTE   W06
 BYTE   Cn2  v095
 BYTE   W06
 BYTE   Cn3  v114
 BYTE   W06
 BYTE   Cn2  v095
 BYTE   W06
 BYTE   Cn3  v114
 BYTE   W06
 BYTE   Cn2  v095
 BYTE   W06
 BYTE   Cn3  v114
 BYTE   W06
 BYTE   As1  v095
 BYTE   W06
 BYTE   As2  v114
 BYTE   W06
 BYTE   As1  v095
 BYTE   W06
 BYTE   As2  v114
 BYTE   W06
 BYTE   As1  v095
 BYTE   W06
 BYTE   As2  v114
 BYTE   W06
 BYTE   As1  v095
 BYTE   W06
 BYTE   N04  As2  v114
 BYTE   W05
// 021   ----------------------------------------
 BYTE   PATT
  POIN2 Label_4_010252A4
// 022   ----------------------------------------
 BYTE   VOL   55*FE03ArmyOfDarknessRSflame_mvl/mxv
 BYTE   PAN   c_v+0
 BYTE   N05  Cn3  v102
 BYTE   W06
 BYTE   N02  Gn3
 BYTE   W03
 BYTE   Cn4
 BYTE   W03
 BYTE   N05  Cn3
 BYTE   W06
 BYTE   N02  Gn3
 BYTE   W03
 BYTE   Cn4
 BYTE   W03
 BYTE   N05  Cn3
 BYTE   W06
 BYTE   N02  Gn3
 BYTE   W03
 BYTE   Cn4
 BYTE   W03
 BYTE   N05  Cn3
 BYTE   W06
 BYTE   N02  Gn3
 BYTE   W03
 BYTE   Cn4
 BYTE   W03
 BYTE   N05  Cn3
 BYTE   W06
 BYTE   N02  Gn3
 BYTE   W03
 BYTE   Cn4
 BYTE   W03
 BYTE   N05  Cn3
 BYTE   W06
 BYTE   N02  Gn3
 BYTE   W03
 BYTE   Cn4
 BYTE   W03
 BYTE   N05  Cn3
 BYTE   W06
 BYTE   N02  Gn3
 BYTE   W03
 BYTE   Cn4
 BYTE   W03
 BYTE   N05  Cn3
 BYTE   W06
 BYTE   N02  Gn3
 BYTE   W03
 BYTE   Cn4
 BYTE   W03
// 023   ----------------------------------------
 BYTE   N05  Cs3
 BYTE   W06
 BYTE   N02  Gs3
 BYTE   W03
 BYTE   Cs4
 BYTE   W03
 BYTE   N05  Cs3
 BYTE   W06
 BYTE   N02  Gs3
 BYTE   W03
 BYTE   Cs4
 BYTE   W03
 BYTE   N05  Cs3
 BYTE   W06
 BYTE   N02  Gs3
 BYTE   W03
 BYTE   Cs4
 BYTE   W03
 BYTE   N05  Cs3
 BYTE   W06
 BYTE   N02  Gs3
 BYTE   W03
 BYTE   Cs4
 BYTE   W03
 BYTE   N05  Ds3
 BYTE   W06
 BYTE   N02  As3
 BYTE   W03
 BYTE   Ds4
 BYTE   W03
 BYTE   N05  Ds3  v107
 BYTE   W06
 BYTE   N02  As3
 BYTE   W03
 BYTE   Ds4
 BYTE   W03
 BYTE   N05  Ds3  v112
 BYTE   W06
 BYTE   N02  As3
 BYTE   W03
 BYTE   Ds4
 BYTE   W03
 BYTE   N05  Ds3  v117
 BYTE   W06
 BYTE   N02  As3
 BYTE   W03
 BYTE   Ds4
 BYTE   GoTo
  POIN2 Label_4_010251C0
 BYTE   FINE

//**************** Track 6 (Midi-Chn.5) ****************//

FE03ArmyOfDarknessRSflame_006:
// 000   ----------------------------------------
Label_5_01025564:
 BYTE   KEYSH   FE03ArmyOfDarknessRSflame_key+0
 BYTE   VOICE   24
 BYTE   VOL   65*FE03ArmyOfDarknessRSflame_mvl/mxv
 BYTE   PAN   c_v+25
 BYTE   N05  Fn1  v091
 BYTE   TEMPO   62*FE03ArmyOfDarknessRSflame_tbs/2
 BYTE   W06
 BYTE   N05  Fn2  v110
 BYTE   W06
 BYTE   Fn1  v091
 BYTE   W06
 BYTE   Fn2  v110
 BYTE   W06
 BYTE   Fn1  v091
 BYTE   W06
 BYTE   Fn2  v110
 BYTE   W06
 BYTE   Fn1  v091
 BYTE   W06
 BYTE   Fn2  v110
 BYTE   W06
 BYTE   Ds1  v098
 BYTE   W06
 BYTE   Ds2  v117
 BYTE   W06
 BYTE   Ds1  v098
 BYTE   W06
 BYTE   Ds2  v117
 BYTE   W06
 BYTE   Ds1  v098
 BYTE   W06
 BYTE   Ds2  v117
 BYTE   W06
 BYTE   Ds1  v098
 BYTE   W06
 BYTE   Ds2  v117
 BYTE   W06
// 001   ----------------------------------------
 BYTE   Fn1  v091
 BYTE   W06
Label_5_010255A3:
 BYTE   N05  Fn2  v110
 BYTE   W06
 BYTE   Fn1  v091
 BYTE   W06
 BYTE   Fn2  v110
 BYTE   W06
 BYTE   Fn1  v091
 BYTE   W06
 BYTE   Fn2  v110
 BYTE   W06
 BYTE   Fn1  v091
 BYTE   W06
 BYTE   Fn2  v110
 BYTE   W06
 BYTE   Ds1  v098
 BYTE   W06
 BYTE   Ds2  v117
 BYTE   W06
 BYTE   Ds1  v098
 BYTE   W06
 BYTE   Ds2  v117
 BYTE   W06
 BYTE   Ds1  v098
 BYTE   W06
 BYTE   Ds2  v117
 BYTE   W06
 BYTE   Ds1  v098
 BYTE   W06
 BYTE   Ds2  v117
 BYTE   W06
// 002   ----------------------------------------
 BYTE   Fn1  v091
 BYTE   W06
 BYTE   PEND 
// 003   ----------------------------------------
 BYTE   PATT
  POIN2 Label_5_010255A3
// 004   ----------------------------------------
 BYTE   PATT
  POIN2 Label_5_010255A3
// 005   ----------------------------------------
 BYTE   PATT
  POIN2 Label_5_010255A3
// 006   ----------------------------------------
 BYTE   PATT
  POIN2 Label_5_010255A3
// 007   ----------------------------------------
 BYTE   PATT
  POIN2 Label_5_010255A3
// 008   ----------------------------------------
 BYTE   N05  Fn2  v110
 BYTE   W06
 BYTE   Fn1  v091
 BYTE   W06
 BYTE   Fn2  v110
 BYTE   W06
 BYTE   Fn1  v091
 BYTE   W06
 BYTE   Fn2  v110
 BYTE   W06
 BYTE   Fn1  v091
 BYTE   W06
 BYTE   Fn2  v110
 BYTE   W06
 BYTE   Ds1  v098
 BYTE   W06
 BYTE   Ds2  v117
 BYTE   W06
 BYTE   Ds1  v098
 BYTE   W06
 BYTE   Ds2  v117
 BYTE   W06
 BYTE   Ds1  v098
 BYTE   W06
 BYTE   Ds2  v117
 BYTE   W06
 BYTE   Ds1  v098
 BYTE   W06
 BYTE   Ds2  v117
 BYTE   W06
 BYTE   VOL   55*FE03ArmyOfDarknessRSflame_mvl/mxv
 BYTE   PAN   c_v+25
 BYTE   N05  Fn3  v108
 BYTE   W06
// 009   ----------------------------------------
 BYTE   N02  Fn3  v089
 BYTE   W03
 BYTE   Fn3
 BYTE   W03
 BYTE   N05  Fn3  v104
 BYTE   W06
 BYTE   N02  Fn3  v089
 BYTE   W03
 BYTE   Fn3
 BYTE   W03
 BYTE   N05  Fn3  v104
 BYTE   W06
 BYTE   N02  Fn3  v089
 BYTE   W03
 BYTE   Fn3
 BYTE   W03
 BYTE   N05  Fn3  v104
 BYTE   W06
 BYTE   N02  Fn3  v089
 BYTE   W03
 BYTE   Fn3
 BYTE   W03
 BYTE   N05  Fn3  v108
 BYTE   W06
 BYTE   N02  Fn3  v089
 BYTE   W03
 BYTE   Fn3
 BYTE   W03
 BYTE   N05  Fn3  v104
 BYTE   W06
 BYTE   N02  Fn3  v089
 BYTE   W03
 BYTE   Fn3
 BYTE   W03
 BYTE   N05  Fn3  v104
 BYTE   W06
 BYTE   N02  Fn3  v089
 BYTE   W03
 BYTE   Fn3
 BYTE   W03
 BYTE   N05  Fn3  v104
 BYTE   W06
 BYTE   N02  Fn3  v089
 BYTE   W03
 BYTE   Fn3
 BYTE   W03
 BYTE   N05  Fn3  v108
 BYTE   W06
// 010   ----------------------------------------
 BYTE   N02  Fn3  v089
 BYTE   W03
 BYTE   Fn3
 BYTE   W03
 BYTE   N05  Fn3  v104
 BYTE   W06
 BYTE   N02  Fn3  v089
 BYTE   W03
 BYTE   Fn3
 BYTE   W03
 BYTE   N05  Fn3  v104
 BYTE   W06
 BYTE   N02  Fn3  v089
 BYTE   W03
 BYTE   Fn3
 BYTE   W03
 BYTE   N05  Fn3  v104
 BYTE   W06
 BYTE   N02  Fn3  v089
 BYTE   W03
 BYTE   Fn3
 BYTE   W03
 BYTE   N05  Fn3  v108
 BYTE   W06
 BYTE   N02  Fn3  v089
 BYTE   W03
 BYTE   Fn3
 BYTE   W03
 BYTE   N05  Fn3  v104
 BYTE   W06
 BYTE   N02  Fn3  v089
 BYTE   W03
 BYTE   Fn3
 BYTE   W03
 BYTE   N05  Fn3  v104
 BYTE   W06
 BYTE   N02  Fn3  v089
 BYTE   W03
 BYTE   Fn3
 BYTE   W03
 BYTE   N05  Fn3  v104
 BYTE   W06
 BYTE   N02  Fn3  v089
 BYTE   W03
 BYTE   Fn3
 BYTE   W03
 BYTE   N05  Fn3  v112
 BYTE   W06
// 011   ----------------------------------------
 BYTE   N02
 BYTE   W03
 BYTE   Fn3  v089
 BYTE   W03
 BYTE   N05  Fn3  v109
 BYTE   W06
 BYTE   N02
 BYTE   W03
 BYTE   Fn3  v089
 BYTE   W03
 BYTE   N05  Fn3  v108
 BYTE   W06
 BYTE   N02  Fn3  v089
 BYTE   W03
 BYTE   Fn3
 BYTE   W03
 BYTE   N05  Fn3  v104
 BYTE   W06
 BYTE   N02  Fn3  v089
 BYTE   W03
 BYTE   Fn3
 BYTE   W03
 BYTE   N05  Fn3  v104
 BYTE   W06
 BYTE   N02  Fn3  v089
 BYTE   W03
 BYTE   Fn3
 BYTE   W03
 BYTE   N05  Fn3  v104
 BYTE   W06
 BYTE   N02  Fn3  v089
 BYTE   W03
 BYTE   Fn3
 BYTE   W03
 BYTE   N05  Fn3  v108
 BYTE   W06
 BYTE   N02  Fn3  v089
 BYTE   W03
 BYTE   Fn3
 BYTE   W03
 BYTE   N05  Fn3  v104
 BYTE   W06
 BYTE   N02  Fn3  v089
 BYTE   W03
 BYTE   Fn3
 BYTE   W03
 BYTE   N05  Fn3  v104
 BYTE   W06
// 012   ----------------------------------------
 BYTE   N02  Fn3  v089
 BYTE   W03
 BYTE   Fn3
 BYTE   W03
 BYTE   N05  Fn3  v104
 BYTE   W06
 BYTE   N02  Fn3  v089
 BYTE   W03
 BYTE   Fn3
 BYTE   W03
 BYTE   N05  Fn3  v108
 BYTE   W06
 BYTE   N02  Fn3  v089
 BYTE   W03
 BYTE   Fn3
 BYTE   W03
 BYTE   N05  Fn3  v104
 BYTE   W06
 BYTE   N02  Fn3  v089
 BYTE   W03
 BYTE   Fn3
 BYTE   W03
 BYTE   N05  Fn3  v104
 BYTE   W06
 BYTE   N02  Fn3  v089
 BYTE   W03
 BYTE   Fn3
 BYTE   W03
 BYTE   N05  Fn3  v104
 BYTE   W06
 BYTE   N02  Fn3  v089
 BYTE   W03
 BYTE   Fn3
 BYTE   W03
 BYTE   N05  Fn3  v110
 BYTE   W06
 BYTE   N02  Fn3  v091
 BYTE   W03
 BYTE   Fn3
 BYTE   W03
 BYTE   N05  Fn3  v109
 BYTE   W06
 BYTE   N02  Fn3  v096
 BYTE   W03
 BYTE   Fn3
 BYTE   W03
 BYTE   N05  Fn3  v114
 BYTE   W06
// 013   ----------------------------------------
 BYTE   N02  Fn3  v102
 BYTE   W03
 BYTE   Fn3
 BYTE   W03
 BYTE   N05  Fn3  v119
 BYTE   W06
 BYTE   N02  Fn3  v107
 BYTE   W03
 BYTE   Fn3
 BYTE   W03
 BYTE   VOL   65*FE03ArmyOfDarknessRSflame_mvl/mxv
 BYTE   PAN   c_v+25
 BYTE   N05  Fn1  v091
 BYTE   W06
 BYTE   Fn2  v110
 BYTE   W06
 BYTE   Fn1  v091
 BYTE   W06
 BYTE   Fn2  v110
 BYTE   W06
 BYTE   Fn1  v091
 BYTE   W06
 BYTE   Fn2  v110
 BYTE   W06
 BYTE   Fn1  v091
 BYTE   W06
 BYTE   Fn2  v110
 BYTE   W06
 BYTE   Ds1  v098
 BYTE   W06
 BYTE   Ds2  v117
 BYTE   W06
 BYTE   Ds1  v098
 BYTE   W06
 BYTE   Ds2  v117
 BYTE   W06
 BYTE   Ds1  v098
 BYTE   W06
// 014   ----------------------------------------
 BYTE   Ds2  v117
 BYTE   W06
 BYTE   Ds1  v098
 BYTE   W06
 BYTE   Ds2  v117
 BYTE   W06
 BYTE   Fn1  v091
 BYTE   W06
 BYTE   Fn2  v110
 BYTE   W06
 BYTE   Fn1  v091
 BYTE   W06
 BYTE   Fn2  v110
 BYTE   W06
 BYTE   Fn1  v091
 BYTE   W06
 BYTE   Fn2  v110
 BYTE   W06
 BYTE   Fn1  v091
 BYTE   W06
 BYTE   Fn2  v110
 BYTE   W06
 BYTE   Ds1  v098
 BYTE   W06
 BYTE   Ds2  v117
 BYTE   W06
 BYTE   Ds1  v098
 BYTE   W06
 BYTE   Ds2  v117
 BYTE   W06
 BYTE   Ds1  v098
 BYTE   W06
// 015   ----------------------------------------
 BYTE   Ds2  v117
 BYTE   W06
 BYTE   Ds1  v098
 BYTE   W06
 BYTE   Ds2  v117
 BYTE   W06
 BYTE   Fn1  v091
 BYTE   W06
 BYTE   Fn2  v110
 BYTE   W06
 BYTE   Fn1  v091
 BYTE   W06
 BYTE   Fn2  v110
 BYTE   W06
 BYTE   Fn1  v091
 BYTE   W06
 BYTE   Fn2  v110
 BYTE   W06
 BYTE   Fn1  v091
 BYTE   W06
 BYTE   Fn2  v110
 BYTE   W06
 BYTE   Ds1  v098
 BYTE   W06
 BYTE   Ds2  v117
 BYTE   W06
 BYTE   Ds1  v098
 BYTE   W06
 BYTE   Ds2  v117
 BYTE   W06
 BYTE   Ds1  v098
 BYTE   W06
// 016   ----------------------------------------
 BYTE   Ds2  v117
 BYTE   W06
 BYTE   Ds1  v098
 BYTE   W06
 BYTE   Ds2  v117
 BYTE   W06
 BYTE   Fn1  v091
 BYTE   W06
 BYTE   Fn2  v110
 BYTE   W06
 BYTE   Fn1  v091
 BYTE   W06
 BYTE   Fn2  v110
 BYTE   W06
 BYTE   Fn1  v091
 BYTE   W06
 BYTE   Fn2  v110
 BYTE   W06
 BYTE   Fn1  v091
 BYTE   W06
 BYTE   Fn2  v110
 BYTE   W06
 BYTE   Ds1  v098
 BYTE   W06
 BYTE   Ds2  v117
 BYTE   W06
 BYTE   Ds1  v098
 BYTE   W06
 BYTE   Ds2  v117
 BYTE   W06
 BYTE   Ds1  v098
 BYTE   W06
// 017   ----------------------------------------
 BYTE   Ds2  v117
 BYTE   W06
 BYTE   Ds1  v098
 BYTE   W06
 BYTE   Ds2  v117
 BYTE   W06
 BYTE   Fn1  v091
 BYTE   W06
 BYTE   Fn2  v110
 BYTE   W06
 BYTE   Fn1  v091
 BYTE   W06
 BYTE   Fn2  v110
 BYTE   W06
 BYTE   Fn1  v091
 BYTE   W06
 BYTE   Fn2  v110
 BYTE   W06
 BYTE   Fn1  v091
 BYTE   W06
 BYTE   Fn2  v110
 BYTE   W06
 BYTE   Ds1  v098
 BYTE   W06
 BYTE   Ds2  v117
 BYTE   W06
 BYTE   Ds1  v098
 BYTE   W06
 BYTE   Ds2  v117
 BYTE   W06
 BYTE   Ds1  v098
 BYTE   W06
// 018   ----------------------------------------
 BYTE   Ds2  v117
 BYTE   W06
 BYTE   Ds1  v098
 BYTE   W06
 BYTE   Ds2  v117
 BYTE   W06
 BYTE   Fn1  v091
 BYTE   W06
 BYTE   Fn2  v110
 BYTE   W06
 BYTE   Fn1  v091
 BYTE   W06
 BYTE   Fn2  v110
 BYTE   W06
 BYTE   Fn1  v091
 BYTE   W06
 BYTE   Fn2  v110
 BYTE   W06
 BYTE   Fn1  v091
 BYTE   W06
 BYTE   Fn2  v110
 BYTE   W06
 BYTE   Ds1  v098
 BYTE   W06
 BYTE   Ds2  v117
 BYTE   W06
 BYTE   Ds1  v098
 BYTE   W06
 BYTE   Ds2  v117
 BYTE   W06
 BYTE   Ds1  v098
 BYTE   W06
// 019   ----------------------------------------
 BYTE   Ds2  v117
 BYTE   W06
 BYTE   Ds1  v098
 BYTE   W06
 BYTE   Ds2  v117
 BYTE   W06
 BYTE   Fn1  v091
 BYTE   W06
 BYTE   Fn2  v110
 BYTE   W06
 BYTE   Fn1  v091
 BYTE   W06
 BYTE   Fn2  v110
 BYTE   W06
 BYTE   Fn1  v091
 BYTE   W06
 BYTE   Fn2  v110
 BYTE   W06
 BYTE   Fn1  v091
 BYTE   W06
 BYTE   Fn2  v110
 BYTE   W06
 BYTE   Ds1  v098
 BYTE   W06
 BYTE   Ds2  v117
 BYTE   W06
 BYTE   Ds1  v098
 BYTE   W06
 BYTE   Ds2  v117
 BYTE   W06
 BYTE   Ds1  v098
 BYTE   W06
// 020   ----------------------------------------
 BYTE   Ds2  v117
 BYTE   W06
 BYTE   Ds1  v098
 BYTE   W06
 BYTE   Ds2  v117
 BYTE   W06
 BYTE   Fn1  v091
 BYTE   W06
 BYTE   Fn2  v110
 BYTE   W06
 BYTE   Fn1  v091
 BYTE   W06
 BYTE   Fn2  v110
 BYTE   W06
 BYTE   Fn1  v091
 BYTE   W06
 BYTE   Fn2  v110
 BYTE   W06
 BYTE   Fn1  v091
 BYTE   W06
 BYTE   Fn2  v110
 BYTE   W06
 BYTE   Ds1  v098
 BYTE   W06
 BYTE   Ds2  v117
 BYTE   W06
 BYTE   Ds1  v098
 BYTE   W06
 BYTE   Ds2  v117
 BYTE   W06
 BYTE   Ds1  v098
 BYTE   W06
// 021   ----------------------------------------
 BYTE   Ds2  v117
 BYTE   W06
 BYTE   Ds1  v098
 BYTE   W06
 BYTE   Ds2  v117
 BYTE   W06
 BYTE   VOL   55*FE03ArmyOfDarknessRSflame_mvl/mxv
 BYTE   PAN   c_v+25
 BYTE   N05  Fn3  v108
 BYTE   W06
 BYTE   N02  Fn3  v089
 BYTE   W03
 BYTE   Fn3
 BYTE   W03
 BYTE   N05  Fn3  v104
 BYTE   W06
 BYTE   N02  Fn3  v089
 BYTE   W03
 BYTE   Fn3
 BYTE   W03
 BYTE   N05  Fn3  v104
 BYTE   W06
 BYTE   N02  Fn3  v089
 BYTE   W03
 BYTE   Fn3
 BYTE   W03
 BYTE   N05  Fn3  v104
 BYTE   W06
 BYTE   N02  Fn3  v089
 BYTE   W03
 BYTE   Fn3
 BYTE   W03
 BYTE   N05  Fn3  v108
 BYTE   W06
 BYTE   N02  Fn3  v089
 BYTE   W03
 BYTE   Fn3
 BYTE   W03
 BYTE   N05  Fn3  v104
 BYTE   W06
 BYTE   N02  Fn3  v089
 BYTE   W03
 BYTE   Fn3
 BYTE   W03
 BYTE   N05  Fn3  v104
 BYTE   W06
// 022   ----------------------------------------
 BYTE   N02  Fn3  v089
 BYTE   W03
 BYTE   Fn3
 BYTE   W03
 BYTE   N05  Fn3  v104
 BYTE   W06
 BYTE   N02  Fn3  v089
 BYTE   W03
 BYTE   Fn3
 BYTE   W03
 BYTE   N05  Fn3  v108
 BYTE   W06
 BYTE   N02  Fn3  v089
 BYTE   W03
 BYTE   Fn3
 BYTE   W03
 BYTE   N05  Fn3  v104
 BYTE   W06
 BYTE   N02  Fn3  v089
 BYTE   W03
 BYTE   Fn3
 BYTE   W03
 BYTE   N05  Fn3  v104
 BYTE   W06
 BYTE   N02  Fn3  v089
 BYTE   W03
 BYTE   Fn3
 BYTE   W03
 BYTE   N05  Fn3  v104
 BYTE   W06
 BYTE   N02  Fn3  v089
 BYTE   W03
 BYTE   Fn3
 BYTE   W03
 BYTE   N05  Fn3  v108
 BYTE   W06
 BYTE   N02  Fn3  v089
 BYTE   W03
 BYTE   Fn3
 BYTE   W03
 BYTE   N05  Fn3  v104
 BYTE   W06
 BYTE   N02  Fn3  v089
 BYTE   W03
 BYTE   Fn3
 BYTE   W03
 BYTE   N05  Fn3  v104
 BYTE   W06
// 023   ----------------------------------------
 BYTE   N02  Fn3  v089
 BYTE   W03
 BYTE   Fn3
 BYTE   W03
 BYTE   N05  Fn3  v104
 BYTE   W06
 BYTE   N02  Fn3  v089
 BYTE   W03
 BYTE   Fn3
 BYTE   W03
 BYTE   N05  Fn3  v112
 BYTE   W06
 BYTE   N02
 BYTE   W03
 BYTE   Fn3  v089
 BYTE   W03
 BYTE   N05  Fn3  v109
 BYTE   W06
 BYTE   N02
 BYTE   W03
 BYTE   Fn3  v089
 BYTE   W03
 BYTE   N05  Fn3  v108
 BYTE   W06
 BYTE   N02  Fn3  v089
 BYTE   W03
 BYTE   Fn3
 BYTE   W03
 BYTE   N05  Fn3  v104
 BYTE   W06
 BYTE   N02  Fn3  v089
 BYTE   W03
 BYTE   Fn3
 BYTE   W03
 BYTE   N05  Fn3  v104
 BYTE   W06
 BYTE   N02  Fn3  v089
 BYTE   W03
 BYTE   Fn3
 BYTE   W03
 BYTE   N05  Fn3  v104
 BYTE   W06
 BYTE   N02  Fn3  v089
 BYTE   W03
 BYTE   Fn3
 BYTE   W03
 BYTE   N05  Fn3  v108
 BYTE   W06
// 024   ----------------------------------------
 BYTE   N02  Fn3  v089
 BYTE   W03
 BYTE   Fn3
 BYTE   W03
 BYTE   N05  Fn3  v104
 BYTE   W06
 BYTE   N02  Fn3  v089
 BYTE   W03
 BYTE   Fn3
 BYTE   W03
 BYTE   N05  Fn3  v104
 BYTE   W06
 BYTE   N02  Fn3  v089
 BYTE   W03
 BYTE   Fn3
 BYTE   W03
 BYTE   N05  Fn3  v104
 BYTE   W06
 BYTE   N02  Fn3  v089
 BYTE   W03
 BYTE   Fn3
 BYTE   W03
 BYTE   N05  Fn3  v108
 BYTE   W06
 BYTE   N02  Fn3  v089
 BYTE   W03
 BYTE   Fn3
 BYTE   W03
 BYTE   N05  Fn3  v104
 BYTE   W06
 BYTE   N02  Fn3  v089
 BYTE   W03
 BYTE   Fn3
 BYTE   W03
 BYTE   N05  Fn3  v104
 BYTE   W06
 BYTE   N02  Fn3  v089
 BYTE   W03
 BYTE   Fn3
 BYTE   W03
 BYTE   N05  Fn3  v104
 BYTE   W06
 BYTE   N02  Fn3  v089
 BYTE   W03
 BYTE   Fn3
 BYTE   W03
 BYTE   N05  Fn3  v110
 BYTE   W06
// 025   ----------------------------------------
 BYTE   N02  Fn3  v091
 BYTE   W03
 BYTE   Fn3
 BYTE   W03
 BYTE   N05  Fn3  v109
 BYTE   W06
 BYTE   N02  Fn3  v096
 BYTE   W03
 BYTE   Fn3
 BYTE   W03
 BYTE   N05  Fn3  v114
 BYTE   W06
 BYTE   N02  Fn3  v102
 BYTE   W03
 BYTE   Fn3
 BYTE   W03
 BYTE   N05  Fn3  v119
 BYTE   W06
 BYTE   N02  Fn3  v107
 BYTE   W03
 BYTE   Fn3
 BYTE   GoTo
  POIN2 Label_5_01025564
 BYTE   FINE

//******************************************************//
	ALIGN 4

FE03ArmyOfDarknessRSflame:
	BYTE	6	// NumTrks
	BYTE	0	// NumBlks
	BYTE	FE03ArmyOfDarknessRSflame_pri	// Priority
	BYTE	FE03ArmyOfDarknessRSflame_rev	// Reverb.
    
	POIN2	FE03ArmyOfDarknessRSflame_grp
    
	POIN2	FE03ArmyOfDarknessRSflame_001
	POIN2	FE03ArmyOfDarknessRSflame_002
	POIN2	FE03ArmyOfDarknessRSflame_003
	POIN2	FE03ArmyOfDarknessRSflame_004
	POIN2	FE03ArmyOfDarknessRSflame_005
	POIN2	FE03ArmyOfDarknessRSflame_006

	
