//Event file generated from Sappy .s format.
	#include "MPlayDef.event"

	#define	FE04DanceintheSkiesSurfingKyogre_grp  voicegroup000
	#define	FE04DanceintheSkiesSurfingKyogre_pri  0
	#define	FE04DanceintheSkiesSurfingKyogre_rev  0
	#define	FE04DanceintheSkiesSurfingKyogre_mvl  127
	#define	FE04DanceintheSkiesSurfingKyogre_key  0
	#define	FE04DanceintheSkiesSurfingKyogre_tbs  1
	#define	FE04DanceintheSkiesSurfingKyogre_exg  0
	#define	FE04DanceintheSkiesSurfingKyogre_cmp  1

	// .rodata
	//	FE04DanceintheSkiesSurfingKyogre
	ALIGN 4


//**************** Track 1 (Midi-Chn.0) ****************//

FE04DanceintheSkiesSurfingKyogre_001:
// 000   ----------------------------------------
 BYTE   KEYSH   FE04DanceintheSkiesSurfingKyogre_key+0
 BYTE   TEMPO   300*FE04DanceintheSkiesSurfingKyogre_tbs/2
 BYTE   PAN   c_v+0
 BYTE   VOL   20*FE04DanceintheSkiesSurfingKyogre_mvl/mxv
 BYTE   MOD 0
 BYTE   CnM2
 BYTE   BEND   c_v+0
 BYTE   W06
Label_0_016F3585:
 BYTE   W06
 BYTE   TEMPO   102*FE04DanceintheSkiesSurfingKyogre_tbs/2
 BYTE   W05
 BYTE   VOICE   48
 BYTE   PAN   c_v+31
 BYTE   VOL   35*FE04DanceintheSkiesSurfingKyogre_mvl/mxv
 BYTE   N12  Ds2  v104
 BYTE   W12
 BYTE   As2
 BYTE   W12
 BYTE   Gs2
 BYTE   W12
 BYTE   Cs3
 BYTE   W12
 BYTE   Ds2
 BYTE   W12
 BYTE   As2
 BYTE   W12
 BYTE   Gs2
 BYTE   W07
// 001   ----------------------------------------
Label_0_016F359F:
 BYTE   W05
 BYTE   N12  Cs3  v104
 BYTE   W12
 BYTE   Ds2
 BYTE   W12
 BYTE   As2
 BYTE   W12
 BYTE   Gs2
 BYTE   W12
 BYTE   Cn3
 BYTE   W12
 BYTE   Ds2
 BYTE   W12
 BYTE   As2
 BYTE   W12
 BYTE   Gs2
 BYTE   W07
 BYTE   PEND 
// 002   ----------------------------------------
Label_0_016F35B3:
 BYTE   W05
 BYTE   N12  Cn3  v104
 BYTE   W12
 BYTE   Ds2
 BYTE   W12
 BYTE   As2
 BYTE   W12
 BYTE   Gs2
 BYTE   W12
 BYTE   Cs3
 BYTE   W12
 BYTE   Ds2
 BYTE   W12
 BYTE   As2
 BYTE   W12
 BYTE   Gs2
 BYTE   W07
 BYTE   PEND 
 BYTE   PATT
  POIN2 Label_0_016F359F
 BYTE   PATT
  POIN2 Label_0_016F35B3
 BYTE   PATT
  POIN2 Label_0_016F359F
 BYTE   PATT
  POIN2 Label_0_016F35B3
 BYTE   PATT
  POIN2 Label_0_016F359F
 BYTE   PATT
  POIN2 Label_0_016F35B3
 BYTE   PATT
  POIN2 Label_0_016F359F
// 003   ----------------------------------------
Label_0_016F35EA:
 BYTE   W05
 BYTE   N12  Cn3  v104
 BYTE   W12
 BYTE   Cs2
 BYTE   W12
 BYTE   Gs2
 BYTE   W12
 BYTE   Gn2
 BYTE   W12
 BYTE   Cn3
 BYTE   W12
 BYTE   Cs2
 BYTE   W12
 BYTE   Gs2
 BYTE   W12
 BYTE   Gn2
 BYTE   W07
 BYTE   PEND 
// 004   ----------------------------------------
Label_0_016F35FE:
 BYTE   W05
 BYTE   N12  Cn3  v104
 BYTE   W12
 BYTE   Cs2
 BYTE   W12
 BYTE   Gs2
 BYTE   W12
 BYTE   Gn2
 BYTE   W12
 BYTE   As2
 BYTE   W12
 BYTE   Cs2
 BYTE   W12
 BYTE   Gs2
 BYTE   W12
 BYTE   Gn2
 BYTE   W07
 BYTE   PEND 
// 005   ----------------------------------------
Label_0_016F3612:
 BYTE   W05
 BYTE   N12  As2  v104
 BYTE   W12
 BYTE   Cs2
 BYTE   W12
 BYTE   Gs2
 BYTE   W12
 BYTE   Gn2
 BYTE   W12
 BYTE   Cn3
 BYTE   W12
 BYTE   Cs2
 BYTE   W12
 BYTE   Gs2
 BYTE   W12
 BYTE   Gn2
 BYTE   W07
 BYTE   PEND 
 BYTE   PATT
  POIN2 Label_0_016F35FE
// 006   ----------------------------------------
Label_0_016F362B:
 BYTE   W05
 BYTE   N12  As2  v104
 BYTE   W24
 BYTE   N36  Cn3
 BYTE   W48
 BYTE   N12
 BYTE   W12
 BYTE   Cs3
 BYTE   W07
 BYTE   PEND 
// 007   ----------------------------------------
Label_0_016F3638:
 BYTE   W05
 BYTE   N12  Ds3  v104
 BYTE   W24
 BYTE   N24  Cs3
 BYTE   W24
 BYTE   N12
 BYTE   W24
 BYTE   N12
 BYTE   W12
 BYTE   Ds3
 BYTE   W07
 BYTE   PEND 
// 008   ----------------------------------------
Label_0_016F3647:
 BYTE   W05
 BYTE   N12  Fn3  v104
 BYTE   W24
 BYTE   As2
 BYTE   W12
 BYTE   Cs3
 BYTE   W12
 BYTE   As2
 BYTE   W12
 BYTE   N48  Fn3
 BYTE   W30
 BYTE   W01
 BYTE   PEND 
// 009   ----------------------------------------
Label_0_016F3657:
 BYTE   W40
 BYTE   W01
 BYTE   N12  As2  v104
 BYTE   W12
 BYTE   Gs2
 BYTE   W12
 BYTE   N48  Cs3
 BYTE   W30
 BYTE   W01
 BYTE   PEND 
 BYTE   PATT
  POIN2 Label_0_016F3657
// 010   ----------------------------------------
Label_0_016F3669:
 BYTE   W40
 BYTE   W01
 BYTE   N12  Gn2  v104
 BYTE   W12
 BYTE   Fn2
 BYTE   W12
 BYTE   N48  Gs2
 BYTE   W30
 BYTE   W01
 BYTE   PEND 
 BYTE   PATT
  POIN2 Label_0_016F3669
// 011   ----------------------------------------
 BYTE   W17
 BYTE   N12  Ds2  v104
 BYTE   W12
 BYTE   As2
 BYTE   W12
 BYTE   Gs2
 BYTE   W12
 BYTE   Cs3
 BYTE   W12
 BYTE   Ds2
 BYTE   W12
 BYTE   As2
 BYTE   W12
 BYTE   Gs2
 BYTE   W07
 BYTE   PATT
  POIN2 Label_0_016F359F
 BYTE   PATT
  POIN2 Label_0_016F35B3
 BYTE   PATT
  POIN2 Label_0_016F359F
 BYTE   PATT
  POIN2 Label_0_016F35B3
 BYTE   PATT
  POIN2 Label_0_016F359F
 BYTE   PATT
  POIN2 Label_0_016F35B3
 BYTE   PATT
  POIN2 Label_0_016F359F
 BYTE   PATT
  POIN2 Label_0_016F35B3
 BYTE   PATT
  POIN2 Label_0_016F359F
 BYTE   PATT
  POIN2 Label_0_016F35EA
 BYTE   PATT
  POIN2 Label_0_016F35FE
 BYTE   PATT
  POIN2 Label_0_016F3612
 BYTE   PATT
  POIN2 Label_0_016F35FE
 BYTE   PATT
  POIN2 Label_0_016F362B
 BYTE   PATT
  POIN2 Label_0_016F3638
 BYTE   PATT
  POIN2 Label_0_016F3647
 BYTE   PATT
  POIN2 Label_0_016F3657
 BYTE   PATT
  POIN2 Label_0_016F3657
 BYTE   PATT
  POIN2 Label_0_016F3669
 BYTE   PATT
  POIN2 Label_0_016F3669
// 012   ----------------------------------------
 BYTE   W17
 BYTE   VOICE   48
 BYTE   PAN   c_v+31
 BYTE   VOL   35*FE04DanceintheSkiesSurfingKyogre_mvl/mxv
 BYTE   W01
 BYTE   GoTo
  POIN2 Label_0_016F3585
// 013   ----------------------------------------
 BYTE   W01
 BYTE   N12  Ds2  v104
 BYTE   W10
 BYTE   As2
 BYTE   W12
 BYTE   Gs2
 BYTE   W12
 BYTE   Cs3
 BYTE   W12
 BYTE   Ds2
 BYTE   W12
 BYTE   As2
 BYTE   W12
 BYTE   Gs2
 BYTE   W07
 BYTE   W05
 BYTE   FINE

//**************** Track 2 (Midi-Chn.1) ****************//

FE04DanceintheSkiesSurfingKyogre_002:
// 000   ----------------------------------------
 BYTE   KEYSH   FE04DanceintheSkiesSurfingKyogre_key+0
 BYTE   PAN   c_v+0
 BYTE   VOL   20*FE04DanceintheSkiesSurfingKyogre_mvl/mxv
 BYTE   MOD 0
 BYTE   CnM2
 BYTE   BEND   c_v+0
 BYTE   W06
Label_1_016F4937:
 BYTE   W11
 BYTE   VOICE   48
 BYTE   PAN   c_v-54
 BYTE   VOL   20*FE04DanceintheSkiesSurfingKyogre_mvl/mxv
 BYTE   W06
 BYTE   N12  Ds2  v127
 BYTE   W12
 BYTE   As2
 BYTE   W12
 BYTE   Gs2
 BYTE   W12
 BYTE   Cs3
 BYTE   W12
 BYTE   Ds2
 BYTE   W12
 BYTE   As2
 BYTE   W12
 BYTE   Gs2
 BYTE   W01
// 001   ----------------------------------------
Label_1_016F494F:
 BYTE   W11
 BYTE   N12  Cs3  v127
 BYTE   W12
 BYTE   Ds2
 BYTE   W12
 BYTE   As2
 BYTE   W12
 BYTE   Gs2
 BYTE   W12
 BYTE   Cn3
 BYTE   W12
 BYTE   Ds2
 BYTE   W12
 BYTE   As2
 BYTE   W12
 BYTE   Gs2
 BYTE   W01
 BYTE   PEND 
// 002   ----------------------------------------
Label_1_016F4963:
 BYTE   W11
 BYTE   N12  Cn3  v127
 BYTE   W12
 BYTE   Ds2
 BYTE   W12
 BYTE   As2
 BYTE   W12
 BYTE   Gs2
 BYTE   W12
 BYTE   Cs3
 BYTE   W12
 BYTE   Ds2
 BYTE   W12
 BYTE   As2
 BYTE   W12
 BYTE   Gs2
 BYTE   W01
 BYTE   PEND 
 BYTE   PATT
  POIN2 Label_1_016F494F
 BYTE   PATT
  POIN2 Label_1_016F4963
 BYTE   PATT
  POIN2 Label_1_016F494F
 BYTE   PATT
  POIN2 Label_1_016F4963
 BYTE   PATT
  POIN2 Label_1_016F494F
 BYTE   PATT
  POIN2 Label_1_016F4963
 BYTE   PATT
  POIN2 Label_1_016F494F
// 003   ----------------------------------------
Label_1_016F499A:
 BYTE   W11
 BYTE   N12  Cn3  v127
 BYTE   W12
 BYTE   Cs2
 BYTE   W12
 BYTE   Gs2
 BYTE   W12
 BYTE   Gn2
 BYTE   W12
 BYTE   Cn3
 BYTE   W12
 BYTE   Cs2
 BYTE   W12
 BYTE   Gs2
 BYTE   W12
 BYTE   Gn2
 BYTE   W01
 BYTE   PEND 
// 004   ----------------------------------------
Label_1_016F49AE:
 BYTE   W11
 BYTE   N12  Cn3  v127
 BYTE   W12
 BYTE   Cs2
 BYTE   W12
 BYTE   Gs2
 BYTE   W12
 BYTE   Gn2
 BYTE   W12
 BYTE   As2
 BYTE   W12
 BYTE   Cs2
 BYTE   W12
 BYTE   Gs2
 BYTE   W12
 BYTE   Gn2
 BYTE   W01
 BYTE   PEND 
// 005   ----------------------------------------
Label_1_016F49C2:
 BYTE   W11
 BYTE   N12  As2  v127
 BYTE   W12
 BYTE   Cs2
 BYTE   W12
 BYTE   Gs2
 BYTE   W12
 BYTE   Gn2
 BYTE   W12
 BYTE   Cn3
 BYTE   W12
 BYTE   Cs2
 BYTE   W12
 BYTE   Gs2
 BYTE   W12
 BYTE   Gn2
 BYTE   W01
 BYTE   PEND 
 BYTE   PATT
  POIN2 Label_1_016F49AE
// 006   ----------------------------------------
Label_1_016F49DB:
 BYTE   W11
 BYTE   N12  As2  v127
 BYTE   W24
 BYTE   N36  Cn3
 BYTE   W48
 BYTE   N12
 BYTE   W12
 BYTE   Cs3
 BYTE   W01
 BYTE   PEND 
// 007   ----------------------------------------
Label_1_016F49E8:
 BYTE   W11
 BYTE   N12  Ds3  v127
 BYTE   W24
 BYTE   N24  Cs3
 BYTE   W24
 BYTE   N12
 BYTE   W24
 BYTE   N12
 BYTE   W12
 BYTE   Ds3
 BYTE   W01
 BYTE   PEND 
// 008   ----------------------------------------
Label_1_016F49F7:
 BYTE   W11
 BYTE   N12  Fn3  v127
 BYTE   W24
 BYTE   As2
 BYTE   W12
 BYTE   Cs3
 BYTE   W12
 BYTE   As2
 BYTE   W12
 BYTE   N48  Fn3
 BYTE   W24
 BYTE   W01
 BYTE   PEND 
// 009   ----------------------------------------
Label_1_016F4A07:
 BYTE   W44
 BYTE   W03
 BYTE   N12  As2  v127
 BYTE   W12
 BYTE   Gs2
 BYTE   W12
 BYTE   N48  Cs3
 BYTE   W24
 BYTE   W01
 BYTE   PEND 
 BYTE   PATT
  POIN2 Label_1_016F4A07
// 010   ----------------------------------------
Label_1_016F4A19:
 BYTE   W44
 BYTE   W03
 BYTE   N12  Gn2  v127
 BYTE   W12
 BYTE   Fn2
 BYTE   W12
 BYTE   N48  Gs2
 BYTE   W24
 BYTE   W01
 BYTE   PEND 
 BYTE   PATT
  POIN2 Label_1_016F4A19
// 011   ----------------------------------------
 BYTE   W23
 BYTE   N12  Ds2  v127
 BYTE   W12
 BYTE   As2
 BYTE   W12
 BYTE   Gs2
 BYTE   W12
 BYTE   Cs3
 BYTE   W12
 BYTE   Ds2
 BYTE   W12
 BYTE   As2
 BYTE   W12
 BYTE   Gs2
 BYTE   W01
 BYTE   PATT
  POIN2 Label_1_016F494F
 BYTE   PATT
  POIN2 Label_1_016F4963
 BYTE   PATT
  POIN2 Label_1_016F494F
 BYTE   PATT
  POIN2 Label_1_016F4963
 BYTE   PATT
  POIN2 Label_1_016F494F
 BYTE   PATT
  POIN2 Label_1_016F4963
 BYTE   PATT
  POIN2 Label_1_016F494F
 BYTE   PATT
  POIN2 Label_1_016F4963
 BYTE   PATT
  POIN2 Label_1_016F494F
 BYTE   PATT
  POIN2 Label_1_016F499A
 BYTE   PATT
  POIN2 Label_1_016F49AE
 BYTE   PATT
  POIN2 Label_1_016F49C2
 BYTE   PATT
  POIN2 Label_1_016F49AE
 BYTE   PATT
  POIN2 Label_1_016F49DB
 BYTE   PATT
  POIN2 Label_1_016F49E8
 BYTE   PATT
  POIN2 Label_1_016F49F7
 BYTE   PATT
  POIN2 Label_1_016F4A07
 BYTE   PATT
  POIN2 Label_1_016F4A07
 BYTE   PATT
  POIN2 Label_1_016F4A19
 BYTE   PATT
  POIN2 Label_1_016F4A19
// 012   ----------------------------------------
 BYTE   W18
 BYTE   GoTo
  POIN2 Label_1_016F4937
// 013   ----------------------------------------
 BYTE   W05
 BYTE   VOICE   48
 BYTE   PAN   c_v-54
 BYTE   VOL   20*FE04DanceintheSkiesSurfingKyogre_mvl/mxv
 BYTE   W06
 BYTE   N12  Ds2  v127
 BYTE   W12
 BYTE   As2
 BYTE   W12
 BYTE   Gs2
 BYTE   W12
 BYTE   Cs3
 BYTE   W12
 BYTE   Ds2
 BYTE   W12
 BYTE   As2
 BYTE   W07
 BYTE   W05
 BYTE   FINE

//**************** Track 3 (Midi-Chn.2) ****************//

FE04DanceintheSkiesSurfingKyogre_003:
// 000   ----------------------------------------
 BYTE   KEYSH   FE04DanceintheSkiesSurfingKyogre_key+0
 BYTE   PAN   c_v+0
 BYTE   VOL   20*FE04DanceintheSkiesSurfingKyogre_mvl/mxv
 BYTE   MOD 0
 BYTE   CnM2
 BYTE   BEND   c_v+0
 BYTE   W06
Label_2_016F458F:
 BYTE   W11
 BYTE   VOICE   48
 BYTE   PAN   c_v+0
 BYTE   VOL   50*FE04DanceintheSkiesSurfingKyogre_mvl/mxv
 BYTE   W78
 BYTE   W01
// 001   ----------------------------------------
 BYTE   W88
 BYTE   W01
 BYTE   N06  Fs3  v127
 BYTE   W06
 BYTE   Gs3
 BYTE   W01
// 002   ----------------------------------------
Label_2_016F45A0:
 BYTE   W05
 BYTE   N06  Fs3  v127
 BYTE   W06
 BYTE   Fn3
 BYTE   W06
 BYTE   N72  Fs3
 BYTE   W72
 BYTE   N24  Cn4
 BYTE   W07
 BYTE   PEND 
// 003   ----------------------------------------
Label_2_016F45AE:
 BYTE   W17
 BYTE   N72  Cs4  v127
 BYTE   W72
 BYTE   N24  As3
 BYTE   W07
 BYTE   PEND 
// 004   ----------------------------------------
Label_2_016F45B7:
 BYTE   W17
 BYTE   TIE  Ds4  v127
 BYTE   W78
 BYTE   W01
 BYTE   PEND 
// 005   ----------------------------------------
 BYTE   W88
 BYTE   W01
 BYTE   EOT
 BYTE   N06  Fn4
 BYTE   W06
 BYTE   Ds4
 BYTE   W01
// 006   ----------------------------------------
Label_2_016F45C6:
 BYTE   W05
 BYTE   N06  Cs4  v127
 BYTE   W06
 BYTE   Cn4
 BYTE   W06
 BYTE   N72  As3
 BYTE   W72
 BYTE   N24  Gs3
 BYTE   W07
 BYTE   PEND 
// 007   ----------------------------------------
Label_2_016F45D4:
 BYTE   W17
 BYTE   N72  Fs3  v127
 BYTE   W72
 BYTE   N24  Fn3
 BYTE   W07
 BYTE   PEND 
// 008   ----------------------------------------
Label_2_016F45DD:
 BYTE   W17
 BYTE   N24  Ds3  v127
 BYTE   W24
 BYTE   N72  Cn3
 BYTE   W54
 BYTE   W01
 BYTE   PEND 
// 009   ----------------------------------------
Label_2_016F45E7:
 BYTE   W88
 BYTE   W01
 BYTE   N06  Cs3  v127
 BYTE   W06
 BYTE   Cn3
 BYTE   W01
 BYTE   PEND 
// 010   ----------------------------------------
Label_2_016F45F0:
 BYTE   W05
 BYTE   N06  Cs3  v127
 BYTE   W06
 BYTE   Ds3
 BYTE   W06
 BYTE   N48  Fn3
 BYTE   W48
 BYTE   Gs3
 BYTE   W30
 BYTE   W01
 BYTE   PEND 
// 011   ----------------------------------------
Label_2_016F45FE:
 BYTE   W17
 BYTE   N48  Gn3  v127
 BYTE   W48
 BYTE   As3
 BYTE   W30
 BYTE   W01
 BYTE   PEND 
// 012   ----------------------------------------
Label_2_016F4607:
 BYTE   W17
 BYTE   N48  Gs3  v127
 BYTE   W48
 BYTE   Fn3
 BYTE   W30
 BYTE   W01
 BYTE   PEND 
// 013   ----------------------------------------
Label_2_016F4610:
 BYTE   W17
 BYTE   N72  Gn3  v127
 BYTE   W72
 BYTE   N06  As3
 BYTE   W06
 BYTE   Gs3
 BYTE   W01
 BYTE   PEND 
// 014   ----------------------------------------
Label_2_016F461B:
 BYTE   W05
 BYTE   N06  Gn3  v127
 BYTE   W06
 BYTE   Fn3
 BYTE   W06
 BYTE   N48  Ds3
 BYTE   W48
 BYTE   Gn3
 BYTE   W30
 BYTE   W01
 BYTE   PEND 
// 015   ----------------------------------------
Label_2_016F4629:
 BYTE   W17
 BYTE   N48  Fn3  v127
 BYTE   W48
 BYTE   Gs3
 BYTE   W30
 BYTE   W01
 BYTE   PEND 
// 016   ----------------------------------------
Label_2_016F4632:
 BYTE   W17
 BYTE   N72  Fn3  v127
 BYTE   W72
 BYTE   N12  Fs3
 BYTE   W07
 BYTE   PEND 
// 017   ----------------------------------------
Label_2_016F463B:
 BYTE   W05
 BYTE   N12  Gs3  v127
 BYTE   W12
 BYTE   TIE  As3
 BYTE   W78
 BYTE   W01
 BYTE   PEND 
// 018   ----------------------------------------
 BYTE   W28
 BYTE   W01
 BYTE   EOT
 BYTE   W12
 BYTE   N24
 BYTE   W24
 BYTE   N32  Gs3
 BYTE   W30
 BYTE   W01
// 019   ----------------------------------------
Label_2_016F464F:
 BYTE   W01
 BYTE   N16  Fs3  v127
 BYTE   W16
 BYTE   TIE  Fn3
 BYTE   W78
 BYTE   W01
 BYTE   PEND 
// 020   ----------------------------------------
 BYTE   W88
 BYTE   W01
 BYTE   EOT
 BYTE   W07
// 021   ----------------------------------------
 BYTE   W17
 BYTE   TIE
 BYTE   W78
 BYTE   W01
// 022   ----------------------------------------
 BYTE   W64
 BYTE   W01
 BYTE   EOT
 BYTE   W24
 BYTE   N06  Fs3
 BYTE   W06
 BYTE   Gs3
 BYTE   W01
 BYTE   PATT
  POIN2 Label_2_016F45A0
 BYTE   PATT
  POIN2 Label_2_016F45AE
 BYTE   PATT
  POIN2 Label_2_016F45B7
// 023   ----------------------------------------
 BYTE   W88
 BYTE   W01
 BYTE   EOT
 BYTE   Ds4
 BYTE   N06  Fn4  v127
 BYTE   W06
 BYTE   Ds4
 BYTE   W01
 BYTE   PATT
  POIN2 Label_2_016F45C6
 BYTE   PATT
  POIN2 Label_2_016F45D4
 BYTE   PATT
  POIN2 Label_2_016F45DD
 BYTE   PATT
  POIN2 Label_2_016F45E7
 BYTE   PATT
  POIN2 Label_2_016F45F0
 BYTE   PATT
  POIN2 Label_2_016F45FE
 BYTE   PATT
  POIN2 Label_2_016F4607
 BYTE   PATT
  POIN2 Label_2_016F4610
 BYTE   PATT
  POIN2 Label_2_016F461B
 BYTE   PATT
  POIN2 Label_2_016F4629
 BYTE   PATT
  POIN2 Label_2_016F4632
 BYTE   PATT
  POIN2 Label_2_016F463B
// 024   ----------------------------------------
 BYTE   W28
 BYTE   W01
 BYTE   EOT
 BYTE   As3
 BYTE   W12
 BYTE   N24  As3  v127
 BYTE   W24
 BYTE   N32  Gs3
 BYTE   W30
 BYTE   W01
 BYTE   PATT
  POIN2 Label_2_016F464F
// 025   ----------------------------------------
 BYTE   W88
 BYTE   W01
 BYTE   EOT
 BYTE   Fn3
 BYTE   W07
// 026   ----------------------------------------
 BYTE   W17
 BYTE   VOICE   48
 BYTE   PAN   c_v+0
 BYTE   VOL   50*FE04DanceintheSkiesSurfingKyogre_mvl/mxv
 BYTE   W01
 BYTE   GoTo
  POIN2 Label_2_016F458F
// 027   ----------------------------------------
 BYTE   W78
 BYTE   W05
 BYTE   FINE

//**************** Track 4 (Midi-Chn.3) ****************//

FE04DanceintheSkiesSurfingKyogre_004:
// 000   ----------------------------------------
 BYTE   KEYSH   FE04DanceintheSkiesSurfingKyogre_key+0
 BYTE   PAN   c_v+0
 BYTE   VOL   20*FE04DanceintheSkiesSurfingKyogre_mvl/mxv
 BYTE   MOD 0
 BYTE   CnM2
 BYTE   BEND   c_v+0
 BYTE   W06
Label_3_016F46FB:
 BYTE   W11
 BYTE   VOICE   32
 BYTE   PAN   c_v-49
 BYTE   VOL   45*FE04DanceintheSkiesSurfingKyogre_mvl/mxv
 BYTE   N12  Ds1  v112
 BYTE   W48
 BYTE   N12
 BYTE   W30
 BYTE   W01
// 001   ----------------------------------------
Label_3_016F4709:
 BYTE   W17
 BYTE   N12  Ds1  v112
 BYTE   W48
 BYTE   N12
 BYTE   W30
 BYTE   W01
 BYTE   PEND 
 BYTE   PATT
  POIN2 Label_3_016F4709
 BYTE   PATT
  POIN2 Label_3_016F4709
 BYTE   PATT
  POIN2 Label_3_016F4709
 BYTE   PATT
  POIN2 Label_3_016F4709
 BYTE   PATT
  POIN2 Label_3_016F4709
 BYTE   PATT
  POIN2 Label_3_016F4709
 BYTE   PATT
  POIN2 Label_3_016F4709
 BYTE   PATT
  POIN2 Label_3_016F4709
// 002   ----------------------------------------
Label_3_016F473A:
 BYTE   W17
 BYTE   N12  Cs1  v112
 BYTE   W48
 BYTE   N12
 BYTE   W30
 BYTE   W01
 BYTE   PEND 
 BYTE   PATT
  POIN2 Label_3_016F473A
 BYTE   PATT
  POIN2 Label_3_016F473A
 BYTE   PATT
  POIN2 Label_3_016F473A
// 003   ----------------------------------------
 BYTE   W17
 BYTE   N96  Cn1  v112
 BYTE   W78
 BYTE   W01
// 004   ----------------------------------------
Label_3_016F4758:
 BYTE   W17
 BYTE   N96  Cs1  v112
 BYTE   W78
 BYTE   W01
 BYTE   PEND 
// 005   ----------------------------------------
Label_3_016F475F:
 BYTE   W17
 BYTE   N96  As0  v112
 BYTE   W78
 BYTE   W01
 BYTE   PEND 
// 006   ----------------------------------------
Label_3_016F4766:
 BYTE   W17
 BYTE   N96  Fs0  v112
 BYTE   W78
 BYTE   W01
 BYTE   PEND 
 BYTE   PATT
  POIN2 Label_3_016F4766
// 007   ----------------------------------------
Label_3_016F4772:
 BYTE   W17
 BYTE   N96  Fn0  v112
 BYTE   W78
 BYTE   W01
 BYTE   PEND 
 BYTE   PATT
  POIN2 Label_3_016F4772
// 008   ----------------------------------------
 BYTE   W17
 BYTE   PAN   c_v-14
 BYTE   N12  Ds1  v112
 BYTE   W48
 BYTE   N12
 BYTE   W30
 BYTE   W01
 BYTE   PATT
  POIN2 Label_3_016F4709
 BYTE   PATT
  POIN2 Label_3_016F4709
 BYTE   PATT
  POIN2 Label_3_016F4709
 BYTE   PATT
  POIN2 Label_3_016F4709
 BYTE   PATT
  POIN2 Label_3_016F4709
 BYTE   PATT
  POIN2 Label_3_016F4709
 BYTE   PATT
  POIN2 Label_3_016F4709
 BYTE   PATT
  POIN2 Label_3_016F4709
 BYTE   PATT
  POIN2 Label_3_016F4709
// 009   ----------------------------------------
 BYTE   W17
 BYTE   PAN   c_v-39
 BYTE   N12  Cs1  v112
 BYTE   W48
 BYTE   N12
 BYTE   W30
 BYTE   W01
 BYTE   PATT
  POIN2 Label_3_016F473A
 BYTE   PATT
  POIN2 Label_3_016F473A
 BYTE   PATT
  POIN2 Label_3_016F473A
// 010   ----------------------------------------
 BYTE   W17
 BYTE   PAN   c_v-14
 BYTE   N96  Cn1  v112
 BYTE   W78
 BYTE   W01
 BYTE   PATT
  POIN2 Label_3_016F4758
 BYTE   PATT
  POIN2 Label_3_016F475F
 BYTE   PATT
  POIN2 Label_3_016F4766
 BYTE   PATT
  POIN2 Label_3_016F4766
 BYTE   PATT
  POIN2 Label_3_016F4772
 BYTE   PATT
  POIN2 Label_3_016F4772
// 011   ----------------------------------------
 BYTE   W17
 BYTE   VOICE   32
 BYTE   PAN   c_v-49
 BYTE   VOL   45*FE04DanceintheSkiesSurfingKyogre_mvl/mxv
 BYTE   N12  Ds1  v112
 BYTE   W01
 BYTE   GoTo
  POIN2 Label_3_016F46FB
// 012   ----------------------------------------
 BYTE   W44
 BYTE   W03
 BYTE   N12  Ds1  v112
 BYTE   W30
 BYTE   W01
 BYTE   W05
 BYTE   FINE

//**************** Track 5 (Midi-Chn.4) ****************//

FE04DanceintheSkiesSurfingKyogre_005:
// 000   ----------------------------------------
 BYTE   KEYSH   FE04DanceintheSkiesSurfingKyogre_key+0
 BYTE   PAN   c_v+0
 BYTE   VOL   20*FE04DanceintheSkiesSurfingKyogre_mvl/mxv
 BYTE   MOD 0
 BYTE   CnM2
 BYTE   BEND   c_v+0
 BYTE   W06
Label_4_016F4ACB:
 BYTE   W11
 BYTE   VOICE   52
 BYTE   PAN   c_v-4
 BYTE   VOL   35*FE04DanceintheSkiesSurfingKyogre_mvl/mxv
 BYTE   N12  Ds3  v127
 BYTE   W48
 BYTE   N12
 BYTE   W30
 BYTE   W01
// 001   ----------------------------------------
Label_4_016F4AD9:
 BYTE   W17
 BYTE   N12  Ds3  v127
 BYTE   W48
 BYTE   N12
 BYTE   W30
 BYTE   W01
 BYTE   PEND 
 BYTE   PATT
  POIN2 Label_4_016F4AD9
 BYTE   PATT
  POIN2 Label_4_016F4AD9
 BYTE   PATT
  POIN2 Label_4_016F4AD9
 BYTE   PATT
  POIN2 Label_4_016F4AD9
 BYTE   PATT
  POIN2 Label_4_016F4AD9
 BYTE   PATT
  POIN2 Label_4_016F4AD9
 BYTE   PATT
  POIN2 Label_4_016F4AD9
 BYTE   PATT
  POIN2 Label_4_016F4AD9
// 002   ----------------------------------------
Label_4_016F4B0A:
 BYTE   W17
 BYTE   N12  Cs3  v127
 BYTE   W48
 BYTE   N12
 BYTE   W30
 BYTE   W01
 BYTE   PEND 
 BYTE   PATT
  POIN2 Label_4_016F4B0A
 BYTE   PATT
  POIN2 Label_4_016F4B0A
 BYTE   PATT
  POIN2 Label_4_016F4B0A
// 003   ----------------------------------------
 BYTE   W17
 BYTE   VOICE   50
 BYTE   PAN   c_v-34
 BYTE   VOL   45*FE04DanceintheSkiesSurfingKyogre_mvl/mxv
 BYTE   N96  Cn2  v127
 BYTE   W78
 BYTE   W01
// 004   ----------------------------------------
 BYTE   W17
 BYTE   Cs2
 BYTE   W78
 BYTE   W01
// 005   ----------------------------------------
 BYTE   W17
 BYTE   As1
 BYTE   W78
 BYTE   W01
// 006   ----------------------------------------
Label_4_016F4B36:
 BYTE   W17
 BYTE   N84  Fs2  v127
 BYTE   W78
 BYTE   W01
 BYTE   PEND 
 BYTE   PATT
  POIN2 Label_4_016F4B36
// 007   ----------------------------------------
Label_4_016F4B42:
 BYTE   W17
 BYTE   N84  Fn2  v127
 BYTE   W78
 BYTE   W01
 BYTE   PEND 
 BYTE   PATT
  POIN2 Label_4_016F4B42
// 008   ----------------------------------------
 BYTE   W17
 BYTE   VOICE   52
 BYTE   PAN   c_v-4
 BYTE   VOL   35*FE04DanceintheSkiesSurfingKyogre_mvl/mxv
 BYTE   N12  Ds3  v127
 BYTE   W48
 BYTE   N12
 BYTE   W30
 BYTE   W01
 BYTE   PATT
  POIN2 Label_4_016F4AD9
 BYTE   PATT
  POIN2 Label_4_016F4AD9
 BYTE   PATT
  POIN2 Label_4_016F4AD9
 BYTE   PATT
  POIN2 Label_4_016F4AD9
 BYTE   PATT
  POIN2 Label_4_016F4AD9
 BYTE   PATT
  POIN2 Label_4_016F4AD9
 BYTE   PATT
  POIN2 Label_4_016F4AD9
 BYTE   PATT
  POIN2 Label_4_016F4AD9
 BYTE   PATT
  POIN2 Label_4_016F4AD9
 BYTE   PATT
  POIN2 Label_4_016F4B0A
 BYTE   PATT
  POIN2 Label_4_016F4B0A
 BYTE   PATT
  POIN2 Label_4_016F4B0A
 BYTE   PATT
  POIN2 Label_4_016F4B0A
// 009   ----------------------------------------
 BYTE   W17
 BYTE   VOICE   60
 BYTE   PAN   c_v-44
 BYTE   VOL   45*FE04DanceintheSkiesSurfingKyogre_mvl/mxv
 BYTE   N96  Gn2  v127
 BYTE   W78
 BYTE   W01
// 010   ----------------------------------------
 BYTE   W17
 BYTE   Gs2
 BYTE   W78
 BYTE   W01
// 011   ----------------------------------------
 BYTE   W17
 BYTE   As2
 BYTE   W78
 BYTE   W01
// 012   ----------------------------------------
Label_4_016F4BB1:
 BYTE   W17
 BYTE   N96  Fs2  v127
 BYTE   W78
 BYTE   W01
 BYTE   PEND 
 BYTE   PATT
  POIN2 Label_4_016F4BB1
// 013   ----------------------------------------
Label_4_016F4BBD:
 BYTE   W17
 BYTE   N96  Fn2  v127
 BYTE   W78
 BYTE   W01
 BYTE   PEND 
 BYTE   PATT
  POIN2 Label_4_016F4BBD
// 014   ----------------------------------------
 BYTE   W17
 BYTE   VOICE   52
 BYTE   PAN   c_v-4
 BYTE   VOL   35*FE04DanceintheSkiesSurfingKyogre_mvl/mxv
 BYTE   N12  Ds3  v127
 BYTE   W01
 BYTE   GoTo
  POIN2 Label_4_016F4ACB
// 015   ----------------------------------------
 BYTE   W44
 BYTE   W03
 BYTE   N12  Ds3  v127
 BYTE   W30
 BYTE   W01
 BYTE   W05
 BYTE   FINE

//**************** Track 6 (Midi-Chn.5) ****************//

FE04DanceintheSkiesSurfingKyogre_006:
// 000   ----------------------------------------
 BYTE   KEYSH   FE04DanceintheSkiesSurfingKyogre_key+0
 BYTE   PAN   c_v+0
 BYTE   VOL   20*FE04DanceintheSkiesSurfingKyogre_mvl/mxv
 BYTE   MOD 0
 BYTE   CnM2
 BYTE   BEND   c_v+0
 BYTE   W06
Label_5_016F2C5B:
 BYTE   W11
 BYTE   VOICE   50
 BYTE   PAN   c_v-24
 BYTE   VOL   45*FE04DanceintheSkiesSurfingKyogre_mvl/mxv
 BYTE   W78
 BYTE   W01
// 001   ----------------------------------------
 BYTE   W96
// 002   ----------------------------------------
 BYTE   W96
// 003   ----------------------------------------
 BYTE   W96
// 004   ----------------------------------------
 BYTE   W96
// 005   ----------------------------------------
 BYTE   W96
// 006   ----------------------------------------
 BYTE   W96
// 007   ----------------------------------------
 BYTE   W96
// 008   ----------------------------------------
 BYTE   W96
// 009   ----------------------------------------
 BYTE   W96
// 010   ----------------------------------------
 BYTE   W96
// 011   ----------------------------------------
 BYTE   W96
// 012   ----------------------------------------
 BYTE   W96
// 013   ----------------------------------------
 BYTE   W96
// 014   ----------------------------------------
 BYTE   W17
 BYTE   N96  Cn3  v127
 BYTE   W78
 BYTE   W01
// 015   ----------------------------------------
 BYTE   W17
 BYTE   Cs3
 BYTE   W78
 BYTE   W01
// 016   ----------------------------------------
 BYTE   W17
 BYTE   As2
 BYTE   W78
 BYTE   W01
// 017   ----------------------------------------
Label_5_016F2C7F:
 BYTE   W17
 BYTE   N84  Cs3  v127
 BYTE   W78
 BYTE   W01
 BYTE   PEND 
 BYTE   PATT
  POIN2 Label_5_016F2C7F
// 018   ----------------------------------------
Label_5_016F2C8B:
 BYTE   W17
 BYTE   N84  Cn3  v127
 BYTE   W78
 BYTE   W01
 BYTE   PEND 
 BYTE   PATT
  POIN2 Label_5_016F2C8B
// 019   ----------------------------------------
 BYTE   W17
 BYTE   VOICE   60
 BYTE   PAN   c_v-44
 BYTE   VOL   45*FE04DanceintheSkiesSurfingKyogre_mvl/mxv
 BYTE   W24
 BYTE   N12  Fn3  v127
 BYTE   W36
 BYTE   N12
 BYTE   W19
// 020   ----------------------------------------
Label_5_016F2CA5:
 BYTE   W40
 BYTE   W01
 BYTE   N12  Fn3  v127
 BYTE   W36
 BYTE   N12
 BYTE   W19
 BYTE   PEND 
// 021   ----------------------------------------
Label_5_016F2CAE:
 BYTE   W40
 BYTE   W01
 BYTE   N12  Fs3  v127
 BYTE   W36
 BYTE   N12
 BYTE   W19
 BYTE   PEND 
 BYTE   PATT
  POIN2 Label_5_016F2CAE
 BYTE   PATT
  POIN2 Label_5_016F2CA5
 BYTE   PATT
  POIN2 Label_5_016F2CAE
 BYTE   PATT
  POIN2 Label_5_016F2CA5
 BYTE   PATT
  POIN2 Label_5_016F2CA5
 BYTE   PATT
  POIN2 Label_5_016F2CAE
 BYTE   PATT
  POIN2 Label_5_016F2CA5
// 022   ----------------------------------------
 BYTE   W17
 BYTE   VOL   50*FE04DanceintheSkiesSurfingKyogre_mvl/mxv
 BYTE   N48  Fn3  v127
 BYTE   W48
 BYTE   Cs3
 BYTE   W30
 BYTE   W01
// 023   ----------------------------------------
 BYTE   W17
 BYTE   Ds3
 BYTE   W48
 BYTE   Gn3
 BYTE   W30
 BYTE   W01
// 024   ----------------------------------------
 BYTE   W17
 BYTE   Fn3
 BYTE   W48
 BYTE   Cs3
 BYTE   W30
 BYTE   W01
// 025   ----------------------------------------
 BYTE   W17
 BYTE   Ds3
 BYTE   W48
 BYTE   Fn3
 BYTE   W30
 BYTE   W01
// 026   ----------------------------------------
 BYTE   W17
 BYTE   Cn3
 BYTE   W48
 BYTE   Ds3
 BYTE   W30
 BYTE   W01
// 027   ----------------------------------------
 BYTE   W17
 BYTE   Cs3
 BYTE   W48
 BYTE   N12
 BYTE   W12
 BYTE   N12
 BYTE   W12
 BYTE   N24  Ds3
 BYTE   W07
// 028   ----------------------------------------
 BYTE   W17
 BYTE   N48  Fn3
 BYTE   W48
 BYTE   Gs3
 BYTE   W30
 BYTE   W01
// 029   ----------------------------------------
 BYTE   W17
 BYTE   TIE  As3
 BYTE   W78
 BYTE   W01
// 030   ----------------------------------------
 BYTE   W64
 BYTE   W01
 BYTE   EOT
 BYTE   N32  Gs3
 BYTE   W30
 BYTE   W01
// 031   ----------------------------------------
 BYTE   W01
 BYTE   N16  Fs3
 BYTE   W16
 BYTE   TIE  Fn3
 BYTE   W78
 BYTE   W01
// 032   ----------------------------------------
 BYTE   W96
// 033   ----------------------------------------
 BYTE   W17
 BYTE   EOT
 BYTE   VOICE   50
 BYTE   PAN   c_v-24
 BYTE   VOL   45*FE04DanceintheSkiesSurfingKyogre_mvl/mxv
 BYTE   W01
 BYTE   GoTo
  POIN2 Label_5_016F2C5B
// 034   ----------------------------------------
 BYTE   W78
 BYTE   W05
 BYTE   FINE

//**************** Track 7 (Midi-Chn.6) ****************//

FE04DanceintheSkiesSurfingKyogre_007:
// 000   ----------------------------------------
 BYTE   KEYSH   FE04DanceintheSkiesSurfingKyogre_key+0
 BYTE   PAN   c_v+0
 BYTE   VOL   20*FE04DanceintheSkiesSurfingKyogre_mvl/mxv
 BYTE   MOD 0
 BYTE   CnM2
 BYTE   BEND   c_v+0
 BYTE   W06
Label_6_016F2DC7:
 BYTE   W11
 BYTE   VOICE   60
 BYTE   PAN   c_v-9
 BYTE   VOL   45*FE04DanceintheSkiesSurfingKyogre_mvl/mxv
 BYTE   W78
 BYTE   W01
// 001   ----------------------------------------
 BYTE   W96
// 002   ----------------------------------------
 BYTE   W96
// 003   ----------------------------------------
 BYTE   W96
// 004   ----------------------------------------
 BYTE   W96
// 005   ----------------------------------------
 BYTE   W96
// 006   ----------------------------------------
 BYTE   W96
// 007   ----------------------------------------
 BYTE   W96
// 008   ----------------------------------------
 BYTE   W96
// 009   ----------------------------------------
 BYTE   W96
// 010   ----------------------------------------
 BYTE   W96
// 011   ----------------------------------------
 BYTE   W96
// 012   ----------------------------------------
 BYTE   W96
// 013   ----------------------------------------
 BYTE   W96
// 014   ----------------------------------------
 BYTE   W96
// 015   ----------------------------------------
 BYTE   W96
// 016   ----------------------------------------
 BYTE   W96
// 017   ----------------------------------------
 BYTE   W96
// 018   ----------------------------------------
 BYTE   W96
// 019   ----------------------------------------
 BYTE   W96
// 020   ----------------------------------------
 BYTE   W96
// 021   ----------------------------------------
Label_6_016F2DE4:
 BYTE   W40
 BYTE   W01
 BYTE   N12  As2  v127
 BYTE   W36
 BYTE   N12
 BYTE   W19
 BYTE   PEND 
 BYTE   PATT
  POIN2 Label_6_016F2DE4
 BYTE   PATT
  POIN2 Label_6_016F2DE4
 BYTE   PATT
  POIN2 Label_6_016F2DE4
 BYTE   PATT
  POIN2 Label_6_016F2DE4
 BYTE   PATT
  POIN2 Label_6_016F2DE4
 BYTE   PATT
  POIN2 Label_6_016F2DE4
 BYTE   PATT
  POIN2 Label_6_016F2DE4
 BYTE   PATT
  POIN2 Label_6_016F2DE4
 BYTE   PATT
  POIN2 Label_6_016F2DE4
// 022   ----------------------------------------
 BYTE   W17
 BYTE   TIE  Gs2  v127
 BYTE   W78
 BYTE   W01
// 023   ----------------------------------------
 BYTE   W96
// 024   ----------------------------------------
 BYTE   W17
 BYTE   EOT
 BYTE   TIE
 BYTE   W78
 BYTE   W01
// 025   ----------------------------------------
 BYTE   W96
// 026   ----------------------------------------
 BYTE   W17
 BYTE   EOT
 BYTE   N96  Gn2
 BYTE   W78
 BYTE   W01
// 027   ----------------------------------------
 BYTE   W17
 BYTE   Gs2
 BYTE   W78
 BYTE   W01
// 028   ----------------------------------------
 BYTE   W17
 BYTE   As2
 BYTE   W78
 BYTE   W01
// 029   ----------------------------------------
 BYTE   W17
 BYTE   N48  Cn3
 BYTE   W48
 BYTE   N24  As2
 BYTE   W24
 BYTE   Gs2
 BYTE   W07
// 030   ----------------------------------------
 BYTE   W17
 BYTE   N96  Fs2
 BYTE   W78
 BYTE   W01
// 031   ----------------------------------------
 BYTE   W17
 BYTE   N48  Gs2
 BYTE   W48
 BYTE   As2
 BYTE   W30
 BYTE   W01
// 032   ----------------------------------------
 BYTE   W17
 BYTE   Cn3
 BYTE   W48
 BYTE   Ds3
 BYTE   W30
 BYTE   W01
// 033   ----------------------------------------
 BYTE   W17
 BYTE   VOICE   60
 BYTE   PAN   c_v-9
 BYTE   VOL   45*FE04DanceintheSkiesSurfingKyogre_mvl/mxv
 BYTE   W01
 BYTE   GoTo
  POIN2 Label_6_016F2DC7
// 034   ----------------------------------------
 BYTE   W78
 BYTE   W05
 BYTE   FINE

//**************** Track 8 (Midi-Chn.7) ****************//

FE04DanceintheSkiesSurfingKyogre_008:
// 000   ----------------------------------------
 BYTE   KEYSH   FE04DanceintheSkiesSurfingKyogre_key+0
 BYTE   PAN   c_v+0
 BYTE   VOL   20*FE04DanceintheSkiesSurfingKyogre_mvl/mxv
 BYTE   MOD 0
 BYTE   CnM2
 BYTE   BEND   c_v+0
 BYTE   W06
Label_7_016F330B:
 BYTE   W11
 BYTE   VOICE   121
 BYTE   VOL   30*FE04DanceintheSkiesSurfingKyogre_mvl/mxv
 BYTE   W78
 BYTE   W01
// 001   ----------------------------------------
 BYTE   W96
// 002   ----------------------------------------
 BYTE   W96
// 003   ----------------------------------------
 BYTE   W96
// 004   ----------------------------------------
 BYTE   W96
// 005   ----------------------------------------
 BYTE   W96
// 006   ----------------------------------------
 BYTE   W96
// 007   ----------------------------------------
 BYTE   W96
// 008   ----------------------------------------
 BYTE   W96
// 009   ----------------------------------------
 BYTE   W96
// 010   ----------------------------------------
Label_7_016F331B:
 BYTE   W76
 BYTE   W01
 BYTE   PAN   c_v+0
 BYTE   N02  Bn4  v127
 BYTE   W18
 BYTE   N02
 BYTE   W01
 BYTE   PEND 
// 011   ----------------------------------------
Label_7_016F3326:
 BYTE   W76
 BYTE   W01
 BYTE   PAN   c_v-64
 BYTE   N02  Bn4  v127
 BYTE   W18
 BYTE   N02
 BYTE   W01
 BYTE   PEND 
 BYTE   PATT
  POIN2 Label_7_016F331B
 BYTE   PATT
  POIN2 Label_7_016F3326
 BYTE   PATT
  POIN2 Label_7_016F331B
 BYTE   PATT
  POIN2 Label_7_016F3326
 BYTE   PATT
  POIN2 Label_7_016F331B
 BYTE   PATT
  POIN2 Label_7_016F3326
 BYTE   PATT
  POIN2 Label_7_016F331B
 BYTE   PATT
  POIN2 Label_7_016F3326
// 012   ----------------------------------------
 BYTE   W96
// 013   ----------------------------------------
 BYTE   W96
// 014   ----------------------------------------
 BYTE   W96
// 015   ----------------------------------------
 BYTE   W96
// 016   ----------------------------------------
 BYTE   W96
// 017   ----------------------------------------
 BYTE   W96
// 018   ----------------------------------------
 BYTE   W96
// 019   ----------------------------------------
 BYTE   W96
// 020   ----------------------------------------
 BYTE   W96
// 021   ----------------------------------------
 BYTE   W96
// 022   ----------------------------------------
 BYTE   W96
 BYTE   PATT
  POIN2 Label_7_016F331B
 BYTE   PATT
  POIN2 Label_7_016F3326
 BYTE   PATT
  POIN2 Label_7_016F331B
 BYTE   PATT
  POIN2 Label_7_016F3326
 BYTE   PATT
  POIN2 Label_7_016F331B
 BYTE   PATT
  POIN2 Label_7_016F3326
 BYTE   PATT
  POIN2 Label_7_016F331B
 BYTE   PATT
  POIN2 Label_7_016F3326
 BYTE   PATT
  POIN2 Label_7_016F331B
 BYTE   PATT
  POIN2 Label_7_016F3326
// 023   ----------------------------------------
 BYTE   W96
// 024   ----------------------------------------
 BYTE   W17
 BYTE   VOICE   121
 BYTE   VOL   30*FE04DanceintheSkiesSurfingKyogre_mvl/mxv
 BYTE   W01
 BYTE   GoTo
  POIN2 Label_7_016F330B
// 025   ----------------------------------------
 BYTE   W78
 BYTE   W05
 BYTE   FINE

//******************************************************//
	ALIGN 4

FE04DanceintheSkiesSurfingKyogre:
	BYTE	8	// NumTrks
	BYTE	0	// NumBlks
	BYTE	FE04DanceintheSkiesSurfingKyogre_pri	// Priority
	BYTE	FE04DanceintheSkiesSurfingKyogre_rev	// Reverb.
    
	POIN2	FE04DanceintheSkiesSurfingKyogre_grp
    
	POIN2	FE04DanceintheSkiesSurfingKyogre_001
	POIN2	FE04DanceintheSkiesSurfingKyogre_002
	POIN2	FE04DanceintheSkiesSurfingKyogre_003
	POIN2	FE04DanceintheSkiesSurfingKyogre_004
	POIN2	FE04DanceintheSkiesSurfingKyogre_005
	POIN2	FE04DanceintheSkiesSurfingKyogre_006
	POIN2	FE04DanceintheSkiesSurfingKyogre_007
	POIN2	FE04DanceintheSkiesSurfingKyogre_008

	
