//Event file generated from Sappy .s format.
	#include "MPlayDef.event"

	#define	FE04EmperorArvisSurfingKyogre_grp  voicegroup000
	#define	FE04EmperorArvisSurfingKyogre_pri  0
	#define	FE04EmperorArvisSurfingKyogre_rev  0
	#define	FE04EmperorArvisSurfingKyogre_mvl  127
	#define	FE04EmperorArvisSurfingKyogre_key  0
	#define	FE04EmperorArvisSurfingKyogre_tbs  1
	#define	FE04EmperorArvisSurfingKyogre_exg  0
	#define	FE04EmperorArvisSurfingKyogre_cmp  1

	// .rodata
	//	FE04EmperorArvisSurfingKyogre
	ALIGN 4


//**************** Track 1 (Midi-Chn.0) ****************//

FE04EmperorArvisSurfingKyogre_001:
// 000   ----------------------------------------
 BYTE   KEYSH   FE04EmperorArvisSurfingKyogre_key+0
 BYTE   TEMPO   100*FE04EmperorArvisSurfingKyogre_tbs/2
 BYTE   PAN   c_v+0
 BYTE   VOL   20*FE04EmperorArvisSurfingKyogre_mvl/mxv
 BYTE   MOD 0
 BYTE   CnM2
 BYTE   BEND   c_v+0
 BYTE   W04
 BYTE   VOICE   57
 BYTE   PAN   c_v+16
 BYTE   VOL   50*FE04EmperorArvisSurfingKyogre_mvl/mxv
 BYTE   N10  An2  v127
 BYTE   W20
Label_0_550BEB:
 BYTE   W04
 BYTE   N06  An2  v127
 BYTE   W08
 BYTE   Bn2
 BYTE   W08
 BYTE   Cn3
 BYTE   W08
 BYTE   N10  Bn2
 BYTE   W24
 BYTE   Gn2
 BYTE   W20
// 001   ----------------------------------------
Label_0_550BF9:
 BYTE   W04
 BYTE   N10  An2  v127
 BYTE   W24
 BYTE   N06  Bn2
 BYTE   W08
 BYTE   Cn3
 BYTE   W08
 BYTE   Dn3
 BYTE   W08
 BYTE   N10  Cn3
 BYTE   W24
 BYTE   Bn2
 BYTE   W20
 BYTE   PEND 
// 002   ----------------------------------------
Label_0_550C0B:
 BYTE   W04
 BYTE   N10  An2  v127
 BYTE   W24
 BYTE   N06
 BYTE   W08
 BYTE   Bn2
 BYTE   W08
 BYTE   Cn3
 BYTE   W08
 BYTE   N10  Bn2
 BYTE   W24
 BYTE   Gn2
 BYTE   W20
 BYTE   PEND 
// 003   ----------------------------------------
 BYTE   W04
 BYTE   An2
 BYTE   W72
 BYTE   N22  En3
 BYTE   W20
 BYTE   PATT
  POIN2 Label_0_550C0B
 BYTE   PATT
  POIN2 Label_0_550BF9
 BYTE   PATT
  POIN2 Label_0_550C0B
// 004   ----------------------------------------
 BYTE   W04
 BYTE   N10  An2  v127
 BYTE   W72
 BYTE   N22
 BYTE   W20
 BYTE   PATT
  POIN2 Label_0_550C0B
 BYTE   PATT
  POIN2 Label_0_550C0B
 BYTE   PATT
  POIN2 Label_0_550C0B
 BYTE   PATT
  POIN2 Label_0_550C0B
 BYTE   PATT
  POIN2 Label_0_550C0B
 BYTE   PATT
  POIN2 Label_0_550C0B
 BYTE   PATT
  POIN2 Label_0_550C0B
// 005   ----------------------------------------
 BYTE   W04
 BYTE   N10  An2  v127
 BYTE   W24
 BYTE   N06
 BYTE   W08
 BYTE   An3
 BYTE   W08
 BYTE   An2
 BYTE   W08
 BYTE   An3
 BYTE   W08
 BYTE   An2
 BYTE   W08
 BYTE   An3
 BYTE   W08
 BYTE   An2
 BYTE   W08
 BYTE   An3
 BYTE   W08
 BYTE   An2
 BYTE   W04
// 006   ----------------------------------------
 BYTE   W04
 BYTE   VOICE   57
 BYTE   PAN   c_v+16
 BYTE   VOL   50*FE04EmperorArvisSurfingKyogre_mvl/mxv
 BYTE   N10
 BYTE   W20
 BYTE   GoTo
  POIN2 Label_0_550BEB
// 007   ----------------------------------------
 BYTE   W04
 BYTE   N06  An2  v127
 BYTE   W08
 BYTE   Bn2
 BYTE   W08
 BYTE   Cn3
 BYTE   W08
 BYTE   N10  Bn2
 BYTE   W24
 BYTE   Gn2
 BYTE   W20
 BYTE   PATT
  POIN2 Label_0_550BF9
 BYTE   PATT
  POIN2 Label_0_550C0B
// 008   ----------------------------------------
 BYTE   W04
 BYTE   N10  An2  v127
 BYTE   W24
 BYTE   FINE

//**************** Track 2 (Midi-Chn.1) ****************//

FE04EmperorArvisSurfingKyogre_002:
// 000   ----------------------------------------
 BYTE   KEYSH   FE04EmperorArvisSurfingKyogre_key+0
 BYTE   PAN   c_v+0
 BYTE   VOL   20*FE04EmperorArvisSurfingKyogre_mvl/mxv
 BYTE   MOD 0
 BYTE   CnM2
 BYTE   BEND   c_v+0
 BYTE   W04
 BYTE   VOICE   57
 BYTE   PAN   c_v-4
 BYTE   VOL   25*FE04EmperorArvisSurfingKyogre_mvl/mxv
 BYTE   BEND   c_v-1
 BYTE   W12
 BYTE   N10  An2  v127
 BYTE   W08
Label_1_550CB8:
 BYTE   W16
 BYTE   N06  An2  v127
 BYTE   W08
 BYTE   Bn2
 BYTE   W08
 BYTE   Cn3
 BYTE   W08
 BYTE   N10  Bn2
 BYTE   W24
 BYTE   Gn2
 BYTE   W08
// 001   ----------------------------------------
Label_1_550CC6:
 BYTE   W16
 BYTE   N10  An2  v127
 BYTE   W24
 BYTE   N06  Bn2
 BYTE   W08
 BYTE   Cn3
 BYTE   W08
 BYTE   Dn3
 BYTE   W08
 BYTE   N10  Cn3
 BYTE   W24
 BYTE   Bn2
 BYTE   W08
 BYTE   PEND 
// 002   ----------------------------------------
Label_1_550CD8:
 BYTE   W16
 BYTE   N10  An2  v127
 BYTE   W24
 BYTE   N06
 BYTE   W08
 BYTE   Bn2
 BYTE   W08
 BYTE   Cn3
 BYTE   W08
 BYTE   N10  Bn2
 BYTE   W24
 BYTE   Gn2
 BYTE   W08
 BYTE   PEND 
// 003   ----------------------------------------
 BYTE   W16
 BYTE   An2
 BYTE   W60
 BYTE   VOL   50*FE04EmperorArvisSurfingKyogre_mvl/mxv
 BYTE   N22  Bn2
 BYTE   W20
// 004   ----------------------------------------
 BYTE   W04
 BYTE   VOICE   48
 BYTE   VOL   45*FE04EmperorArvisSurfingKyogre_mvl/mxv
 BYTE   N11  An3
 BYTE   W24
 BYTE   N07
 BYTE   W08
 BYTE   Bn3
 BYTE   W08
 BYTE   Cn4
 BYTE   W08
 BYTE   N11  Bn3
 BYTE   W24
 BYTE   Gn3
 BYTE   W20
// 005   ----------------------------------------
 BYTE   W04
 BYTE   An3
 BYTE   W24
 BYTE   N07  Bn3
 BYTE   W08
 BYTE   Cn4
 BYTE   W08
 BYTE   Dn4
 BYTE   W08
 BYTE   N11  Cn4
 BYTE   W24
 BYTE   Bn3
 BYTE   W20
// 006   ----------------------------------------
Label_1_550D13:
 BYTE   W04
 BYTE   N11  An3  v127
 BYTE   W24
 BYTE   N07
 BYTE   W08
 BYTE   Bn3
 BYTE   W08
 BYTE   Cn4
 BYTE   W08
 BYTE   N11  Bn3
 BYTE   W24
 BYTE   Gn3
 BYTE   W20
 BYTE   PEND 
// 007   ----------------------------------------
 BYTE   W04
 BYTE   An3
 BYTE   W72
 BYTE   VOL   50*FE04EmperorArvisSurfingKyogre_mvl/mxv
 BYTE   N23
 BYTE   W20
// 008   ----------------------------------------
 BYTE   W04
 BYTE   N92  En4
 BYTE   W92
// 009   ----------------------------------------
 BYTE   W04
 BYTE   Dn4
 BYTE   W92
// 010   ----------------------------------------
 BYTE   W04
 BYTE   Cn4
 BYTE   W92
// 011   ----------------------------------------
 BYTE   W04
 BYTE   Dn4
 BYTE   W92
// 012   ----------------------------------------
 BYTE   W04
 BYTE   En4
 BYTE   W92
 BYTE   PATT
  POIN2 Label_1_550D13
// 013   ----------------------------------------
 BYTE   W04
 BYTE   N11  Cn4  v127
 BYTE   W24
 BYTE   N07
 BYTE   W08
 BYTE   Dn4
 BYTE   W08
 BYTE   En4
 BYTE   W08
 BYTE   N11  Dn4
 BYTE   W24
 BYTE   Bn3
 BYTE   W20
// 014   ----------------------------------------
 BYTE   W04
 BYTE   N92  Cn4
 BYTE   W92
// 015   ----------------------------------------
 BYTE   W04
 BYTE   VOICE   57
 BYTE   PAN   c_v-4
 BYTE   VOL   25*FE04EmperorArvisSurfingKyogre_mvl/mxv
 BYTE   W12
 BYTE   N10  An2
 BYTE   W08
 BYTE   GoTo
  POIN2 Label_1_550CB8
// 016   ----------------------------------------
 BYTE   W16
 BYTE   N06  An2  v127
 BYTE   W08
 BYTE   Bn2
 BYTE   W08
 BYTE   Cn3
 BYTE   W08
 BYTE   N10  Bn2
 BYTE   W24
 BYTE   Gn2
 BYTE   W08
 BYTE   PATT
  POIN2 Label_1_550CC6
 BYTE   PATT
  POIN2 Label_1_550CD8
// 017   ----------------------------------------
 BYTE   W16
 BYTE   N10  An2  v127
 BYTE   W12
 BYTE   FINE

//**************** Track 3 (Midi-Chn.2) ****************//

FE04EmperorArvisSurfingKyogre_003:
// 000   ----------------------------------------
 BYTE   KEYSH   FE04EmperorArvisSurfingKyogre_key+0
 BYTE   PAN   c_v+0
 BYTE   VOL   10*FE04EmperorArvisSurfingKyogre_mvl/mxv
 BYTE   MOD 0
 BYTE   CnM2
 BYTE   BEND   c_v+0
 BYTE   W04
 BYTE   VOICE   52
 BYTE   PAN   c_v+1
 BYTE   VOL   35*FE04EmperorArvisSurfingKyogre_mvl/mxv
 BYTE   TIE  An3  v127
 BYTE   W20
Label_2_551431:
 BYTE   W72
// 001   ----------------------------------------
 BYTE   W96
// 002   ----------------------------------------
 BYTE   W96
// 003   ----------------------------------------
 BYTE   W28
 BYTE   EOT
 BYTE   An3
 BYTE   W68
// 004   ----------------------------------------
 BYTE   W04
 BYTE   PAN   c_v-44
 BYTE   N12  An3  v127
 BYTE   W72
 BYTE   N12
 BYTE   W20
// 005   ----------------------------------------
Label_2_551441:
 BYTE   W04
 BYTE   N12  An3  v127
 BYTE   W72
 BYTE   N12
 BYTE   W20
 BYTE   PEND 
 BYTE   PATT
  POIN2 Label_2_551441
// 006   ----------------------------------------
 BYTE   W04
 BYTE   N12  An3  v127
 BYTE   W72
 BYTE   VOICE   48
 BYTE   VOL   35*FE04EmperorArvisSurfingKyogre_mvl/mxv
 BYTE   N23  En3
 BYTE   W20
// 007   ----------------------------------------
 BYTE   W04
 BYTE   PAN   c_v+6
 BYTE   VOL   25*FE04EmperorArvisSurfingKyogre_mvl/mxv
 BYTE   N92  An3
 BYTE   W92
// 008   ----------------------------------------
 BYTE   W04
 BYTE   Gn3
 BYTE   W92
// 009   ----------------------------------------
 BYTE   W04
 BYTE   Fn3
 BYTE   W92
// 010   ----------------------------------------
 BYTE   W04
 BYTE   Gn3
 BYTE   W92
// 011   ----------------------------------------
 BYTE   W04
 BYTE   An3
 BYTE   W92
// 012   ----------------------------------------
 BYTE   W96
// 013   ----------------------------------------
 BYTE   W96
// 014   ----------------------------------------
 BYTE   W96
// 015   ----------------------------------------
 BYTE   W04
 BYTE   VOICE   52
 BYTE   PAN   c_v+1
 BYTE   VOL   35*FE04EmperorArvisSurfingKyogre_mvl/mxv
 BYTE   TIE
 BYTE   W20
 BYTE   GoTo
  POIN2 Label_2_551431
// 016   ----------------------------------------
 BYTE   W72
 BYTE   W96
// 017   ----------------------------------------
 BYTE   W96
// 018   ----------------------------------------
 BYTE   W28
 BYTE   EOT
 BYTE   An3
 BYTE   FINE

//**************** Track 4 (Midi-Chn.3) ****************//

FE04EmperorArvisSurfingKyogre_004:
// 000   ----------------------------------------
 BYTE   KEYSH   FE04EmperorArvisSurfingKyogre_key+0
 BYTE   PAN   c_v+0
 BYTE   VOL   10*FE04EmperorArvisSurfingKyogre_mvl/mxv
 BYTE   MOD 0
 BYTE   CnM2
 BYTE   BEND   c_v+0
 BYTE   W04
 BYTE   VOICE   52
 BYTE   PAN   c_v+36
 BYTE   VOL   35*FE04EmperorArvisSurfingKyogre_mvl/mxv
 BYTE   BEND   c_v+0
 BYTE   W20
Label_3_55149C:
 BYTE   W04
 BYTE   TIE  An3  v127
 BYTE   W68
// 001   ----------------------------------------
 BYTE   W96
// 002   ----------------------------------------
 BYTE   W96
// 003   ----------------------------------------
 BYTE   W52
 BYTE   EOT
 BYTE   W44
// 004   ----------------------------------------
 BYTE   W04
 BYTE   VOICE   100
 BYTE   VOL   25*FE04EmperorArvisSurfingKyogre_mvl/mxv
 BYTE   N12  An4
 BYTE   W72
 BYTE   N12
 BYTE   W20
// 005   ----------------------------------------
Label_3_5514B0:
 BYTE   W04
 BYTE   N12  An4  v127
 BYTE   W72
 BYTE   N12
 BYTE   W20
 BYTE   PEND 
 BYTE   PATT
  POIN2 Label_3_5514B0
// 006   ----------------------------------------
 BYTE   W04
 BYTE   N12  An4  v127
 BYTE   W72
 BYTE   VOICE   48
 BYTE   VOL   35*FE04EmperorArvisSurfingKyogre_mvl/mxv
 BYTE   N23  An2
 BYTE   W20
// 007   ----------------------------------------
 BYTE   W04
 BYTE   PAN   c_v-44
 BYTE   VOL   25*FE04EmperorArvisSurfingKyogre_mvl/mxv
 BYTE   N92  En3
 BYTE   W92
// 008   ----------------------------------------
 BYTE   W04
 BYTE   Dn3
 BYTE   W92
// 009   ----------------------------------------
 BYTE   W04
 BYTE   Cn3
 BYTE   W92
// 010   ----------------------------------------
 BYTE   W04
 BYTE   Dn3
 BYTE   W92
// 011   ----------------------------------------
 BYTE   W04
 BYTE   En3
 BYTE   W92
// 012   ----------------------------------------
 BYTE   W96
// 013   ----------------------------------------
 BYTE   W96
// 014   ----------------------------------------
 BYTE   W96
// 015   ----------------------------------------
 BYTE   W04
 BYTE   VOICE   52
 BYTE   PAN   c_v+36
 BYTE   VOL   35*FE04EmperorArvisSurfingKyogre_mvl/mxv
 BYTE   W20
 BYTE   GoTo
  POIN2 Label_3_55149C
// 016   ----------------------------------------
 BYTE   W72
 BYTE   W96
// 017   ----------------------------------------
 BYTE   W96
// 018   ----------------------------------------
 BYTE   W28
 BYTE   FINE

//**************** Track 5 (Midi-Chn.4) ****************//

FE04EmperorArvisSurfingKyogre_005:
// 000   ----------------------------------------
 BYTE   KEYSH   FE04EmperorArvisSurfingKyogre_key+0
 BYTE   PAN   c_v+0
 BYTE   VOL   10*FE04EmperorArvisSurfingKyogre_mvl/mxv
 BYTE   MOD 0
 BYTE   CnM2
 BYTE   BEND   c_v+0
 BYTE   W04
 BYTE   VOICE   32
 BYTE   PAN   c_v-4
 BYTE   VOL   30*FE04EmperorArvisSurfingKyogre_mvl/mxv
 BYTE   N24  An1  v127
 BYTE   W20
Label_4_551509:
 BYTE   W52
 BYTE   N24  En1  v127
 BYTE   W20
// 001   ----------------------------------------
Label_4_55150E:
 BYTE   W04
 BYTE   N24  An1  v127
 BYTE   W72
 BYTE   En1
 BYTE   W20
 BYTE   PEND 
 BYTE   PATT
  POIN2 Label_4_55150E
// 002   ----------------------------------------
 BYTE   W04
 BYTE   N24  An1  v127
 BYTE   W92
 BYTE   PATT
  POIN2 Label_4_55150E
 BYTE   PATT
  POIN2 Label_4_55150E
 BYTE   PATT
  POIN2 Label_4_55150E
// 003   ----------------------------------------
 BYTE   W04
 BYTE   N24  An1  v127
 BYTE   W92
// 004   ----------------------------------------
Label_4_551534:
 BYTE   W04
 BYTE   N24  An1  v127
 BYTE   W24
 BYTE   N08
 BYTE   W08
 BYTE   Bn1
 BYTE   W08
 BYTE   Cn2
 BYTE   W08
 BYTE   N24  Bn1
 BYTE   W24
 BYTE   Gn1
 BYTE   W20
 BYTE   PEND 
 BYTE   PATT
  POIN2 Label_4_551534
 BYTE   PATT
  POIN2 Label_4_551534
 BYTE   PATT
  POIN2 Label_4_551534
 BYTE   PATT
  POIN2 Label_4_551534
 BYTE   PATT
  POIN2 Label_4_551534
 BYTE   PATT
  POIN2 Label_4_551534
// 005   ----------------------------------------
 BYTE   W04
 BYTE   N24  An1  v127
 BYTE   W24
 BYTE   N08
 BYTE   W08
 BYTE   N08
 BYTE   W08
 BYTE   N08
 BYTE   W08
 BYTE   N08
 BYTE   W08
 BYTE   N08
 BYTE   W08
 BYTE   N08
 BYTE   W08
 BYTE   N08
 BYTE   W08
 BYTE   N08
 BYTE   W08
 BYTE   N08
 BYTE   W04
// 006   ----------------------------------------
 BYTE   W04
 BYTE   VOICE   32
 BYTE   PAN   c_v-4
 BYTE   VOL   30*FE04EmperorArvisSurfingKyogre_mvl/mxv
 BYTE   N24
 BYTE   W20
 BYTE   GoTo
  POIN2 Label_4_551509
// 007   ----------------------------------------
 BYTE   W52
 BYTE   N24  En1  v127
 BYTE   W20
 BYTE   PATT
  POIN2 Label_4_55150E
 BYTE   PATT
  POIN2 Label_4_55150E
// 008   ----------------------------------------
 BYTE   W04
 BYTE   N24  An1  v127
 BYTE   W24
 BYTE   FINE

//**************** Track 6 (Midi-Chn.5) ****************//

FE04EmperorArvisSurfingKyogre_006:
// 000   ----------------------------------------
 BYTE   KEYSH   FE04EmperorArvisSurfingKyogre_key+0
 BYTE   PAN   c_v+0
 BYTE   VOL   10*FE04EmperorArvisSurfingKyogre_mvl/mxv
 BYTE   MOD 0
 BYTE   CnM2
 BYTE   BEND   c_v+0
 BYTE   W04
 BYTE   VOICE   47
 BYTE   PAN   c_v-4
 BYTE   VOL   35*FE04EmperorArvisSurfingKyogre_mvl/mxv
 BYTE   N24  An1  v127
 BYTE   W20
Label_5_016EB4DD:
 BYTE   W52
 BYTE   N24  En1  v127
 BYTE   W20
// 001   ----------------------------------------
Label_5_016EB4E2:
 BYTE   W04
 BYTE   N24  An1  v127
 BYTE   W72
 BYTE   En1
 BYTE   W20
 BYTE   PEND 
 BYTE   PATT
  POIN2 Label_5_016EB4E2
// 002   ----------------------------------------
Label_5_016EB4EF:
 BYTE   W04
 BYTE   N24  An1  v127
 BYTE   W24
 BYTE   N08  An1  v088
 BYTE   W08
 BYTE   N08
 BYTE   W08
 BYTE   N08
 BYTE   W08
 BYTE   An1  v108
 BYTE   W08
 BYTE   N08
 BYTE   W08
 BYTE   N08
 BYTE   W08
 BYTE   An1  v127
 BYTE   W08
 BYTE   N08
 BYTE   W08
 BYTE   N08
 BYTE   W04
 BYTE   PEND 
 BYTE   PATT
  POIN2 Label_5_016EB4E2
 BYTE   PATT
  POIN2 Label_5_016EB4E2
 BYTE   PATT
  POIN2 Label_5_016EB4E2
 BYTE   PATT
  POIN2 Label_5_016EB4EF
// 003   ----------------------------------------
 BYTE   W52
 BYTE   N24  Bn1  v127
 BYTE   W24
 BYTE   Gn1
 BYTE   W20
// 004   ----------------------------------------
Label_5_016EB526:
 BYTE   W04
 BYTE   N24  An1  v127
 BYTE   W48
 BYTE   Bn1
 BYTE   W24
 BYTE   Gn1
 BYTE   W20
 BYTE   PEND 
 BYTE   PATT
  POIN2 Label_5_016EB526
 BYTE   PATT
  POIN2 Label_5_016EB526
 BYTE   PATT
  POIN2 Label_5_016EB526
 BYTE   PATT
  POIN2 Label_5_016EB526
 BYTE   PATT
  POIN2 Label_5_016EB526
 BYTE   PATT
  POIN2 Label_5_016EB4EF
// 005   ----------------------------------------
 BYTE   W04
 BYTE   VOICE   47
 BYTE   PAN   c_v-4
 BYTE   VOL   35*FE04EmperorArvisSurfingKyogre_mvl/mxv
 BYTE   N24  An1  v127
 BYTE   W20
 BYTE   GoTo
  POIN2 Label_5_016EB4DD
// 006   ----------------------------------------
 BYTE   W52
 BYTE   N24  En1  v127
 BYTE   W20
 BYTE   PATT
  POIN2 Label_5_016EB4E2
 BYTE   PATT
  POIN2 Label_5_016EB4E2
// 007   ----------------------------------------
 BYTE   W04
 BYTE   N24  An1  v127
 BYTE   W24
 BYTE   FINE

//******************************************************//
	ALIGN 4

FE04EmperorArvisSurfingKyogre:
	BYTE	6	// NumTrks
	BYTE	0	// NumBlks
	BYTE	FE04EmperorArvisSurfingKyogre_pri	// Priority
	BYTE	FE04EmperorArvisSurfingKyogre_rev	// Reverb.
    
	POIN2	FE04EmperorArvisSurfingKyogre_grp
    
	POIN2	FE04EmperorArvisSurfingKyogre_001
	POIN2	FE04EmperorArvisSurfingKyogre_002
	POIN2	FE04EmperorArvisSurfingKyogre_003
	POIN2	FE04EmperorArvisSurfingKyogre_004
	POIN2	FE04EmperorArvisSurfingKyogre_005
	POIN2	FE04EmperorArvisSurfingKyogre_006

	
