//Event file generated from Sappy .s format.
	#include "MPlayDef.event"

	#define	FE04FromFoetoFriendRSflame_grp  voicegroup000
	#define	FE04FromFoetoFriendRSflame_pri  0
	#define	FE04FromFoetoFriendRSflame_rev  0
	#define	FE04FromFoetoFriendRSflame_mvl  127
	#define	FE04FromFoetoFriendRSflame_key  0
	#define	FE04FromFoetoFriendRSflame_tbs  1
	#define	FE04FromFoetoFriendRSflame_exg  0
	#define	FE04FromFoetoFriendRSflame_cmp  1

	// .rodata
	//	FE04FromFoetoFriendRSflame
	ALIGN 4


//**************** Track 1 (Midi-Chn.0) ****************//

FE04FromFoetoFriendRSflame_001:
// 000   ----------------------------------------
 BYTE   KEYSH   FE04FromFoetoFriendRSflame_key+0
Label_0_56361E:
 BYTE   TEMPO   82*FE04FromFoetoFriendRSflame_tbs/2
 BYTE   VOICE   60
 BYTE   W02
 BYTE   VOL   50*FE04FromFoetoFriendRSflame_mvl/mxv
 BYTE   PAN   c_v+34
 BYTE   N03  Cn2  v072
 BYTE   W06
 BYTE   Ds2
 BYTE   W06
 BYTE   Dn2
 BYTE   W06
 BYTE   As1
 BYTE   W06
 BYTE   Cn2
 BYTE   W06
 BYTE   Ds2
 BYTE   W06
 BYTE   Dn2
 BYTE   W06
 BYTE   As1
 BYTE   W06
 BYTE   Cn2
 BYTE   W06
 BYTE   Ds2
 BYTE   W06
 BYTE   Dn2
 BYTE   W06
 BYTE   As1
 BYTE   W06
 BYTE   Cn2
 BYTE   W06
 BYTE   Ds2
 BYTE   W06
 BYTE   Dn2
 BYTE   W06
 BYTE   N02  En2
 BYTE   W04
// 001   ----------------------------------------
 BYTE   W02
 BYTE   PAN   c_v+14
 BYTE   N13  As2  v056
 BYTE   W18
 BYTE   N14  Dn3  v068
 BYTE   W18
 BYTE   Cn3  v076
 BYTE   W18
 BYTE   N12  Gn2  v080
 BYTE   W18
 BYTE   N04  As2  v056
 BYTE   W12
 BYTE   N05  Cn3  v072
 BYTE   W10
// 002   ----------------------------------------
 BYTE   W02
 BYTE   N12  As2  v060
 BYTE   W18
 BYTE   N13  Fn3  v064
 BYTE   W18
 BYTE   N10  En3  v068
 BYTE   W18
 BYTE   N11  Cn3  v076
 BYTE   W18
 BYTE   N04  Dn3  v072
 BYTE   W12
 BYTE   En3
 BYTE   W10
// 003   ----------------------------------------
 BYTE   W08
 BYTE   N05  Dn3  v064
 BYTE   W06
 BYTE   Cn3  v060
 BYTE   W06
 BYTE   Gn2  v052
 BYTE   W06
 BYTE   As2  v064
 BYTE   W06
 BYTE   Fn2  v056
 BYTE   W06
 BYTE   En2  v064
 BYTE   W06
 BYTE   Cn2  v060
 BYTE   W06
 BYTE   PAN   c_v+25
 BYTE   W12
 BYTE   N03  As2
 BYTE   W06
 BYTE   Cn3  v052
 BYTE   W06
 BYTE   Dn3  v064
 BYTE   W06
 BYTE   En3  v056
 BYTE   W06
 BYTE   N05  Fn3  v064
 BYTE   W06
 BYTE   N02  En3  v056
 BYTE   W03
 BYTE   Dn3  v060
 BYTE   W01
// 004   ----------------------------------------
 BYTE   W14
 BYTE   N03  Cs3
 BYTE   W06
 BYTE   Dn3  v052
 BYTE   W06
 BYTE   En3  v064
 BYTE   W06
 BYTE   Fn3  v056
 BYTE   W06
 BYTE   Gn3  v064
 BYTE   W06
 BYTE   En3  v056
 BYTE   W06
 BYTE   N10  Dn3
 BYTE   W12
 BYTE   Fn3
 BYTE   W12
 BYTE   En3  v072
 BYTE   W12
 BYTE   Gn3  v068
 BYTE   W10
// 005   ----------------------------------------
 BYTE   W05
 BYTE   N02  En4  v052
 BYTE   W06
 BYTE   Cs4  v060
 BYTE   W06
 BYTE   Dn4  v064
 BYTE   W06
 BYTE   N03  As3
 BYTE   W06
 BYTE   Gn3  v072
 BYTE   W06
 BYTE   En3
 BYTE   W06
 BYTE   N04  Cs3
 BYTE   W06
 BYTE   N02  An2  v068
 BYTE   W05
 BYTE   GoTo
  POIN2 Label_0_56361E
 BYTE   FINE

//**************** Track 2 (Midi-Chn.1) ****************//

FE04FromFoetoFriendRSflame_002:
// 000   ----------------------------------------
 BYTE   KEYSH   FE04FromFoetoFriendRSflame_key+0
Label_1_0102A412:
 BYTE   VOICE   39
 BYTE   W72
 BYTE   W02
 BYTE   VOL   50*FE04FromFoetoFriendRSflame_mvl/mxv
 BYTE   W22
// 001   ----------------------------------------
 BYTE   W02
 BYTE   N12  Gn1  v080
 BYTE   W18
 BYTE   N07  Gn1  v076
 BYTE   W12
 BYTE   N02  Fn1  v072
 BYTE   W06
 BYTE   N09  Gn1  v080
 BYTE   W18
 BYTE   Gn1  v084
 BYTE   W12
 BYTE   N08  Gn1  v076
 BYTE   W12
 BYTE   N04  Fn1
 BYTE   W06
 BYTE   N10  Gn1  v084
 BYTE   W10
// 002   ----------------------------------------
 BYTE   W02
 BYTE   N12  Gn1  v080
 BYTE   W18
 BYTE   N07  Gn1  v076
 BYTE   W12
 BYTE   N02  Fn1  v072
 BYTE   W06
 BYTE   N09  Gn1  v080
 BYTE   W18
 BYTE   N08  Gn1  v076
 BYTE   W12
 BYTE   N08
 BYTE   W12
 BYTE   N04  Dn2
 BYTE   W06
 BYTE   N05  Gn1  v084
 BYTE   W06
 BYTE   Fn1
 BYTE   W04
// 003   ----------------------------------------
 BYTE   W02
 BYTE   N12  Gn1  v088
 BYTE   W18
 BYTE   N06  Gn1  v080
 BYTE   W12
 BYTE   N05  Fn1  v076
 BYTE   W06
 BYTE   Gn1  v084
 BYTE   W06
 BYTE   An1  v076
 BYTE   W06
 BYTE   N36  As1  v088
 BYTE   W42
 BYTE   N02  As1  v076
 BYTE   W04
// 004   ----------------------------------------
 BYTE   W02
 BYTE   N32  An1  v092
 BYTE   W42
 BYTE   N02  An1  v088
 BYTE   W06
 BYTE   N30  As1  v080
 BYTE   W36
 BYTE   N06  As1  v076
 BYTE   W10
// 005   ----------------------------------------
 BYTE   W02
 BYTE   N40  An1  v088
 BYTE   W48
 BYTE   W02
 BYTE   GoTo
  POIN2 Label_1_0102A412
 BYTE   FINE

//**************** Track 3 (Midi-Chn.2) ****************//

FE04FromFoetoFriendRSflame_003:
// 000   ----------------------------------------
 BYTE   KEYSH   FE04FromFoetoFriendRSflame_key+0
Label_2_0102A6E6:
 BYTE   VOICE   19
 BYTE   W02
 BYTE   VOL   50*FE04FromFoetoFriendRSflame_mvl/mxv
 BYTE   W92
 BYTE   W02
// 001   ----------------------------------------
 BYTE   W02
 BYTE   Gs4
 BYTE   PAN   c_v+0
 BYTE   Fs4
 BYTE   N03  Gn2  v072
 BYTE   W06
 BYTE   PAN   c_v+34
 BYTE   N03  As2
 BYTE   W06
 BYTE   PAN   c_v-14
 BYTE   N03  An2
 BYTE   W06
 BYTE   PAN   c_v+25
 BYTE   N03  Fn2
 BYTE   W06
 BYTE   PAN   c_v-14
 BYTE   N03  Gn2
 BYTE   W06
 BYTE   PAN   c_v-34
 BYTE   N03  Dn3
 BYTE   W06
 BYTE   PAN   c_v+14
 BYTE   N03  Cn3
 BYTE   W06
 BYTE   PAN   c_v-25
 BYTE   N03  An2
 BYTE   W06
 BYTE   PAN   c_v+14
 BYTE   N03  Gn2
 BYTE   W06
 BYTE   PAN   c_v+34
 BYTE   N03  As2
 BYTE   W06
 BYTE   PAN   c_v-14
 BYTE   N03  An2
 BYTE   W06
 BYTE   PAN   c_v+25
 BYTE   N03  Fn2
 BYTE   W06
 BYTE   PAN   c_v-14
 BYTE   N03  Gn2
 BYTE   W06
 BYTE   PAN   c_v-34
 BYTE   N03  Dn3
 BYTE   W06
 BYTE   PAN   c_v+14
 BYTE   N03  Cn3
 BYTE   W06
 BYTE   PAN   c_v-25
 BYTE   N03  An2
 BYTE   W04
// 002   ----------------------------------------
 BYTE   W02
 BYTE   PAN   c_v+14
 BYTE   N03  Gn2
 BYTE   W06
 BYTE   PAN   c_v+34
 BYTE   N03  As2
 BYTE   W06
 BYTE   PAN   c_v-14
 BYTE   N03  An2
 BYTE   W06
 BYTE   PAN   c_v+25
 BYTE   N03  Fn2
 BYTE   W06
 BYTE   PAN   c_v-14
 BYTE   N03  Gn2
 BYTE   W06
 BYTE   PAN   c_v-34
 BYTE   N03  Dn3
 BYTE   W06
 BYTE   PAN   c_v+14
 BYTE   N03  Cn3
 BYTE   W06
 BYTE   PAN   c_v-25
 BYTE   N03  An2
 BYTE   W06
 BYTE   PAN   c_v+14
 BYTE   N03  Gn2
 BYTE   W06
 BYTE   PAN   c_v+34
 BYTE   N03  As2
 BYTE   W06
 BYTE   PAN   c_v-14
 BYTE   N03  An2
 BYTE   W06
 BYTE   PAN   c_v+25
 BYTE   N03  Fn2
 BYTE   W06
 BYTE   PAN   c_v-14
 BYTE   N03  Gn2
 BYTE   W06
 BYTE   PAN   c_v-34
 BYTE   N03  Dn3
 BYTE   W06
 BYTE   PAN   c_v+14
 BYTE   N03  Cn3
 BYTE   W06
 BYTE   PAN   c_v-25
 BYTE   N03  An2
 BYTE   W04
// 003   ----------------------------------------
 BYTE   W02
 BYTE   PAN   c_v+14
 BYTE   N03  Gn2
 BYTE   W06
 BYTE   PAN   c_v+34
 BYTE   N03  As2
 BYTE   W06
 BYTE   PAN   c_v-14
 BYTE   N03  An2
 BYTE   W06
 BYTE   PAN   c_v+25
 BYTE   N03  Fn2
 BYTE   W06
 BYTE   PAN   c_v-14
 BYTE   N03  Gn2
 BYTE   W06
 BYTE   PAN   c_v-34
 BYTE   N03  Dn3
 BYTE   W06
 BYTE   PAN   c_v+14
 BYTE   N03  Cn3
 BYTE   W06
 BYTE   PAN   c_v-25
 BYTE   N03  An2
 BYTE   W06
 BYTE   VOL   50*FE04FromFoetoFriendRSflame_mvl/mxv
 BYTE   W44
 BYTE   W02
// 004   ----------------------------------------
 BYTE   W96
// 005   ----------------------------------------
 BYTE   W02
 BYTE   En3
 BYTE   PAN   c_v+25
 BYTE   Ds5
 BYTE   VOL   34*FE04FromFoetoFriendRSflame_mvl/mxv
 BYTE   PAN   c_v+22
 BYTE   N02  Fn4
 BYTE   W01
 BYTE   PAN   c_v+19
 BYTE   W01
 BYTE   An4
 BYTE   VOL   35*FE04FromFoetoFriendRSflame_mvl/mxv
 BYTE   PAN   c_v+15
 BYTE   W01
 BYTE   En4
 BYTE   N02  En4
 BYTE   W01
 BYTE   PAN   c_v+10
 BYTE   VOL   36*FE04FromFoetoFriendRSflame_mvl/mxv
 BYTE   PAN   c_v+9
 BYTE   W01
 BYTE   As3
 BYTE   W01
 BYTE   Gs3
 BYTE   VOL   36*FE04FromFoetoFriendRSflame_mvl/mxv
 BYTE   PAN   c_v+2
 BYTE   N02  Dn4
 BYTE   W01
 BYTE   PAN   c_v-1
 BYTE   W01
 BYTE   Cs3
 BYTE   VOL   37*FE04FromFoetoFriendRSflame_mvl/mxv
 BYTE   PAN   c_v-4
 BYTE   W01
 BYTE   An2
 BYTE   N02  Cs4
 BYTE   W01
 BYTE   PAN   c_v-9
 BYTE   VOL   38*FE04FromFoetoFriendRSflame_mvl/mxv
 BYTE   PAN   c_v-11
 BYTE   W01
 BYTE   Dn2
 BYTE   W01
 BYTE   VOL   38*FE04FromFoetoFriendRSflame_mvl/mxv
 BYTE   PAN   c_v+34
 BYTE   Cn6
 BYTE   N02  En4
 BYTE   W01
 BYTE   PAN   c_v+30
 BYTE   W01
 BYTE   VOL   39*FE04FromFoetoFriendRSflame_mvl/mxv
 BYTE   PAN   c_v+28
 BYTE   W01
 BYTE   Fn5
 BYTE   N02  Dn4
 BYTE   W01
 BYTE   VOL   39*FE04FromFoetoFriendRSflame_mvl/mxv
 BYTE   PAN   c_v+23
 BYTE   W01
 BYTE   Cs5
 BYTE   W01
 BYTE   VOL   40*FE04FromFoetoFriendRSflame_mvl/mxv
 BYTE   PAN   c_v+19
 BYTE   N02  Cs4
 BYTE   W01
 BYTE   PAN   c_v+17
 BYTE   W01
 BYTE   VOL   41*FE04FromFoetoFriendRSflame_mvl/mxv
 BYTE   PAN   c_v+15
 BYTE   W01
 BYTE   Fn4
 BYTE   N02  As3
 BYTE   W01
 BYTE   VOL   41*FE04FromFoetoFriendRSflame_mvl/mxv
 BYTE   PAN   c_v+10
 BYTE   W01
 BYTE   Cs4
 BYTE   VOL   42*FE04FromFoetoFriendRSflame_mvl/mxv
 BYTE   PAN   c_v+8
 BYTE   W01
 BYTE   As3
 BYTE   N02  An3
 BYTE   W01
 BYTE   PAN   c_v+5
 BYTE   VOL   43*FE04FromFoetoFriendRSflame_mvl/mxv
 BYTE   PAN   c_v+4
 BYTE   W01
 BYTE   Fs3
 BYTE   W01
 BYTE   Fn3
 BYTE   VOL   43*FE04FromFoetoFriendRSflame_mvl/mxv
 BYTE   PAN   c_v+0
 BYTE   N02  Gn3
 BYTE   W01
 BYTE   PAN   c_v-2
 BYTE   W01
 BYTE   Cs3
 BYTE   VOL   44*FE04FromFoetoFriendRSflame_mvl/mxv
 BYTE   PAN   c_v-4
 BYTE   W01
 BYTE   An2
 BYTE   N02  Fn3
 BYTE   W01
 BYTE   PAN   c_v-8
 BYTE   VOL   44*FE04FromFoetoFriendRSflame_mvl/mxv
 BYTE   PAN   c_v-9
 BYTE   W01
 BYTE   Fn2
 BYTE   W01
 BYTE   En2
 BYTE   VOL   45*FE04FromFoetoFriendRSflame_mvl/mxv
 BYTE   PAN   c_v-13
 BYTE   N02  En3
 BYTE   W01
 BYTE   PAN   c_v-15
 BYTE   W01
 BYTE   Cn2
 BYTE   VOL   46*FE04FromFoetoFriendRSflame_mvl/mxv
 BYTE   PAN   c_v-17
 BYTE   W01
 BYTE   An1
 BYTE   N02  Dn3
 BYTE   W01
 BYTE   VOL   46*FE04FromFoetoFriendRSflame_mvl/mxv
 BYTE   PAN   c_v-22
 BYTE   W01
 BYTE   En1
 BYTE   W01
 BYTE   VOL   47*FE04FromFoetoFriendRSflame_mvl/mxv
 BYTE   PAN   c_v-26
 BYTE   N02  Cs3  v076
 BYTE   W01
 BYTE   PAN   c_v-28
 BYTE   W01
 BYTE   VOL   48*FE04FromFoetoFriendRSflame_mvl/mxv
 BYTE   PAN   c_v-30
 BYTE   W01
 BYTE   Gs0
 BYTE   N02  As2
 BYTE   W01
 BYTE   VOL   48*FE04FromFoetoFriendRSflame_mvl/mxv
 BYTE   PAN   c_v-34
 BYTE   W01
 BYTE   Ds0
 BYTE   W01
 BYTE   VOL   49*FE04FromFoetoFriendRSflame_mvl/mxv
 BYTE   PAN   c_v-39
 BYTE   N02  An2
 BYTE   W01
 BYTE   PAN   c_v-41
 BYTE   W01
 BYTE   VOL   50*FE04FromFoetoFriendRSflame_mvl/mxv
 BYTE   PAN   c_v-43
 BYTE   W03
 BYTE   GoTo
  POIN2 Label_2_0102A6E6
 BYTE   FINE

//**************** Track 4 (Midi-Chn.3) ****************//

FE04FromFoetoFriendRSflame_004:
// 000   ----------------------------------------
 BYTE   KEYSH   FE04FromFoetoFriendRSflame_key+0
Label_3_0102A4FE:
 BYTE   VOICE   60
 BYTE   W02
 BYTE   VOL   50*FE04FromFoetoFriendRSflame_mvl/mxv
 BYTE   PAN   c_v-34
 BYTE   N03  Gn2  v076
 BYTE   W06
 BYTE   As2  v072
 BYTE   W06
 BYTE   An2
 BYTE   W06
 BYTE   Fn2
 BYTE   W06
 BYTE   Gn2  v076
 BYTE   W06
 BYTE   Dn3  v072
 BYTE   W06
 BYTE   Cn3
 BYTE   W06
 BYTE   An2
 BYTE   W06
 BYTE   Gn2  v076
 BYTE   W06
 BYTE   As2  v072
 BYTE   W06
 BYTE   An2
 BYTE   W06
 BYTE   Fn2
 BYTE   W06
 BYTE   Gn2  v076
 BYTE   W06
 BYTE   Dn3  v072
 BYTE   W06
 BYTE   Cn3
 BYTE   W06
 BYTE   N02  An2
 BYTE   W04
// 001   ----------------------------------------
 BYTE   W02
 BYTE   PAN   c_v-14
 BYTE   N13  Dn3  v068
 BYTE   W18
 BYTE   Fn3
 BYTE   W18
 BYTE   N14  En3
 BYTE   W18
 BYTE   N13  Cn3  v080
 BYTE   W18
 BYTE   N04  Dn3  v068
 BYTE   W12
 BYTE   N05  En3  v056
 BYTE   W10
// 002   ----------------------------------------
 BYTE   W02
 BYTE   N13  Dn3  v068
 BYTE   W18
 BYTE   N12  An3
 BYTE   W18
 BYTE   N10  Gn3  v072
 BYTE   W18
 BYTE   N11  En3  v076
 BYTE   W18
 BYTE   N04  Fn3  v072
 BYTE   W12
 BYTE   Gn3  v068
 BYTE   W10
// 003   ----------------------------------------
 BYTE   W08
 BYTE   N05  Fn3  v064
 BYTE   W06
 BYTE   En3  v060
 BYTE   W06
 BYTE   Cn3  v052
 BYTE   W06
 BYTE   Dn3  v064
 BYTE   W06
 BYTE   An2  v056
 BYTE   W06
 BYTE   Gn2  v064
 BYTE   W06
 BYTE   En2  v060
 BYTE   W06
 BYTE   PAN   c_v-25
 BYTE   W12
 BYTE   N03  Dn3
 BYTE   W06
 BYTE   En3  v052
 BYTE   W06
 BYTE   Fn3  v064
 BYTE   W06
 BYTE   Gn3  v056
 BYTE   W06
 BYTE   N05  An3  v064
 BYTE   W06
 BYTE   N02  Gn3  v056
 BYTE   W03
 BYTE   Fn3  v060
 BYTE   W01
// 004   ----------------------------------------
 BYTE   W14
 BYTE   N03  En3
 BYTE   W06
 BYTE   Fn3  v052
 BYTE   W06
 BYTE   Gn3  v064
 BYTE   W06
 BYTE   An3  v056
 BYTE   W06
 BYTE   As3  v064
 BYTE   W06
 BYTE   Gn3  v056
 BYTE   W06
 BYTE   N10  An3  v060
 BYTE   W12
 BYTE   Dn4  v068
 BYTE   W12
 BYTE   Cs4  v072
 BYTE   W12
 BYTE   En4  v068
 BYTE   W10
// 005   ----------------------------------------
 BYTE   W02
 BYTE   N02  Fn4  v052
 BYTE   W06
 BYTE   Dn4  v060
 BYTE   W06
 BYTE   En4  v056
 BYTE   W06
 BYTE   N03  Cs4  v064
 BYTE   W06
 BYTE   An3  v072
 BYTE   W06
 BYTE   Fn3
 BYTE   W06
 BYTE   N04  Dn3
 BYTE   W06
 BYTE   As2  v068
 BYTE   W08
 BYTE   GoTo
  POIN2 Label_3_0102A4FE
 BYTE   FINE

//**************** Track 5 (Midi-Chn.4) ****************//

FE04FromFoetoFriendRSflame_005:
// 000   ----------------------------------------
 BYTE   VOL   50*FE04FromFoetoFriendRSflame_mvl/mxv
 BYTE   KEYSH   FE04FromFoetoFriendRSflame_key+0
Label_4_0102A5D4:
 BYTE   VOICE   127
 BYTE   W02
 BYTE   N23  En2  v072
 BYTE   W48
 BYTE   W03
 BYTE   N05  En1  v096
 BYTE   W06
 BYTE   En1  v084
 BYTE   W06
 BYTE   Fn1  v096
 BYTE   W06
 BYTE   En1  v084
 BYTE   W06
 BYTE   N04  Fn1
 BYTE   W09
 BYTE   N03
 BYTE   W09
 BYTE   N04  Fn1  v092
 BYTE   W01
// 001   ----------------------------------------
 BYTE   W05
 BYTE   N11  En1
 BYTE   W12
 BYTE   N05  Fn1
 BYTE   W06
 BYTE   N11  En1  v084
 BYTE   W12
 BYTE   N05  En1  v096
 BYTE   W06
 BYTE   N11  Fn1  v092
 BYTE   W18
 BYTE   N05  En1  v084
 BYTE   W06
 BYTE   Fn1  v092
 BYTE   W06
 BYTE   N11  En1  v084
 BYTE   W12
 BYTE   N05  En1  v096
 BYTE   W06
 BYTE   Fn1  v092
 BYTE   W06
 BYTE   Fn1  v076
 BYTE   W01
// 002   ----------------------------------------
 BYTE   W05
 BYTE   N11  En1  v092
 BYTE   W12
 BYTE   N05  Fn1  v096
 BYTE   W06
 BYTE   N11  En1  v088
 BYTE   W12
 BYTE   N05  En1  v092
 BYTE   W06
 BYTE   Fn1
 BYTE   W06
 BYTE   En1  v012
 BYTE   W06
 BYTE   En1  v096
 BYTE   W06
 BYTE   En1  v084
 BYTE   W06
 BYTE   Fn1  v092
 BYTE   W06
 BYTE   N11  En1  v084
 BYTE   W12
 BYTE   N05  En1  v092
 BYTE   W06
 BYTE   Fn1
 BYTE   W06
 BYTE   Fn1  v076
 BYTE   W01
// 003   ----------------------------------------
 BYTE   W05
 BYTE   N11  En1  v092
 BYTE   W12
 BYTE   N05  Fn1
 BYTE   W06
 BYTE   N11  En1  v084
 BYTE   W12
 BYTE   N05  En1  v096
 BYTE   W06
 BYTE   N11  Fn1  v092
 BYTE   W12
 BYTE   En1  v084
 BYTE   W12
 BYTE   N17  Fn1  v092
 BYTE   W18
 BYTE   N05  En1  v084
 BYTE   W06
 BYTE   N11  Fn1  v092
 BYTE   W07
// 004   ----------------------------------------
 BYTE   W05
 BYTE   En1  v084
 BYTE   W12
 BYTE   N17  Fn1  v092
 BYTE   W18
 BYTE   N05  En1  v084
 BYTE   W06
 BYTE   Fn1  v092
 BYTE   W06
 BYTE   En1
 BYTE   W06
 BYTE   N11  En1  v084
 BYTE   W12
 BYTE   N17  Fn1  v092
 BYTE   W18
 BYTE   N05  En1  v084
 BYTE   W06
 BYTE   N11  Fn1  v092
 BYTE   W07
// 005   ----------------------------------------
 BYTE   W05
 BYTE   En1  v084
 BYTE   W12
 BYTE   N17  Fn1  v092
 BYTE   W18
 BYTE   N05  En1  v084
 BYTE   W06
 BYTE   Fn1  v092
 BYTE   W06
 BYTE   En1
 BYTE   W05
 BYTE   GoTo
  POIN2 Label_4_0102A5D4
 BYTE   FINE

//******************************************************//
	ALIGN 4

FE04FromFoetoFriendRSflame:
	BYTE	5	// NumTrks
	BYTE	0	// NumBlks
	BYTE	FE04FromFoetoFriendRSflame_pri	// Priority
	BYTE	FE04FromFoetoFriendRSflame_rev	// Reverb.
    
	POIN2	FE04FromFoetoFriendRSflame_grp
    
	POIN2	FE04FromFoetoFriendRSflame_001
	POIN2	FE04FromFoetoFriendRSflame_002
	POIN2	FE04FromFoetoFriendRSflame_003
	POIN2	FE04FromFoetoFriendRSflame_004
	POIN2	FE04FromFoetoFriendRSflame_005

	
