//Event file generated from Sappy .s format.
	#include "MPlayDef.event"

	#define	FE04Part1MapMedleySurfingKyogre_grp  voicegroup000
	#define	FE04Part1MapMedleySurfingKyogre_pri  0
	#define	FE04Part1MapMedleySurfingKyogre_rev  0
	#define	FE04Part1MapMedleySurfingKyogre_mvl  127
	#define	FE04Part1MapMedleySurfingKyogre_key  0
	#define	FE04Part1MapMedleySurfingKyogre_tbs  1
	#define	FE04Part1MapMedleySurfingKyogre_exg  0
	#define	FE04Part1MapMedleySurfingKyogre_cmp  1

	// .rodata
	//	FE04Part1MapMedleySurfingKyogre
	ALIGN 4


//**************** Track 1 (Midi-Chn.0) ****************//

FE04Part1MapMedleySurfingKyogre_001:
// 000   ----------------------------------------
 BYTE   KEYSH   FE04Part1MapMedleySurfingKyogre_key+0
 BYTE   TEMPO   90*FE04Part1MapMedleySurfingKyogre_tbs/2
 BYTE   PAN   c_v+0
 BYTE   VOL   15*FE04Part1MapMedleySurfingKyogre_mvl/mxv
 BYTE   MOD 0
 BYTE   CnM2
 BYTE   BEND   c_v+0
 BYTE   W10
 BYTE   VOICE   0
 BYTE   PAN   c_v-19
 BYTE   VOL   55*FE04Part1MapMedleySurfingKyogre_mvl/mxv
 BYTE   N96  Fs2  v100
 BYTE   W84
 BYTE   W02
// 001   ----------------------------------------
 BYTE   W10
 BYTE   N96
 BYTE   W68
Label_0_016EF6AF:
 BYTE   W18
// 002   ----------------------------------------
Label_0_016EF6B0:
 BYTE   W10
 BYTE   N96  Fs2  v100
 BYTE   W84
 BYTE   W02
 BYTE   PEND 
 BYTE   PATT
  POIN2 Label_0_016EF6B0
 BYTE   PATT
  POIN2 Label_0_016EF6B0
 BYTE   PATT
  POIN2 Label_0_016EF6B0
 BYTE   PATT
  POIN2 Label_0_016EF6B0
 BYTE   PATT
  POIN2 Label_0_016EF6B0
 BYTE   PATT
  POIN2 Label_0_016EF6B0
 BYTE   PATT
  POIN2 Label_0_016EF6B0
// 003   ----------------------------------------
Label_0_016EF6DA:
 BYTE   W10
 BYTE   N96  Gs2  v100
 BYTE   W84
 BYTE   W02
 BYTE   PEND 
// 004   ----------------------------------------
Label_0_016EF6E1:
 BYTE   W10
 BYTE   N96  Cs3  v100
 BYTE   W84
 BYTE   W02
 BYTE   PEND 
// 005   ----------------------------------------
 BYTE   W10
 BYTE   TIE  Fs3
 BYTE   W84
 BYTE   W02
// 006   ----------------------------------------
 BYTE   W32
 BYTE   W02
 BYTE   EOT
 BYTE   N24  Fn3
 BYTE   W24
 BYTE   En3
 BYTE   W24
 BYTE   Ds3
 BYTE   W14
// 007   ----------------------------------------
 BYTE   W10
 BYTE   N96  Dn3
 BYTE   W84
 BYTE   W02
 BYTE   PATT
  POIN2 Label_0_016EF6E1
// 008   ----------------------------------------
 BYTE   W10
 BYTE   N84  Fs3  v100
 BYTE   W84
 BYTE   N12  Cs4
 BYTE   W02
// 009   ----------------------------------------
Label_0_016EF709:
 BYTE   W10
 BYTE   N96  Fs3  v100
 BYTE   W84
 BYTE   W02
 BYTE   PEND 
 BYTE   PATT
  POIN2 Label_0_016EF6B0
 BYTE   PATT
  POIN2 Label_0_016EF6B0
 BYTE   PATT
  POIN2 Label_0_016EF6B0
 BYTE   PATT
  POIN2 Label_0_016EF6B0
 BYTE   PATT
  POIN2 Label_0_016EF6B0
 BYTE   PATT
  POIN2 Label_0_016EF6B0
 BYTE   PATT
  POIN2 Label_0_016EF6B0
 BYTE   PATT
  POIN2 Label_0_016EF6B0
 BYTE   PATT
  POIN2 Label_0_016EF6B0
 BYTE   PATT
  POIN2 Label_0_016EF6B0
 BYTE   PATT
  POIN2 Label_0_016EF6B0
 BYTE   PATT
  POIN2 Label_0_016EF6B0
// 010   ----------------------------------------
Label_0_016EF74C:
 BYTE   W10
 BYTE   N96  Gn2  v100
 BYTE   W84
 BYTE   W02
 BYTE   PEND 
 BYTE   PATT
  POIN2 Label_0_016EF74C
 BYTE   PATT
  POIN2 Label_0_016EF6B0
 BYTE   PATT
  POIN2 Label_0_016EF6B0
// 011   ----------------------------------------
Label_0_016EF762:
 BYTE   W10
 BYTE   N48  Dn3  v100
 BYTE   W48
 BYTE   Cs3
 BYTE   W36
 BYTE   W02
 BYTE   PEND 
// 012   ----------------------------------------
 BYTE   W10
 BYTE   N84  Fs2
 BYTE   W84
 BYTE   N12  Cs3
 BYTE   W02
 BYTE   PATT
  POIN2 Label_0_016EF762
 BYTE   PATT
  POIN2 Label_0_016EF6B0
// 013   ----------------------------------------
Label_0_016EF77C:
 BYTE   W10
 BYTE   N96  Bn2  v100
 BYTE   W84
 BYTE   W02
 BYTE   PEND 
 BYTE   PATT
  POIN2 Label_0_016EF77C
// 014   ----------------------------------------
Label_0_016EF788:
 BYTE   W10
 BYTE   N96  As2  v100
 BYTE   W84
 BYTE   W02
 BYTE   PEND 
// 015   ----------------------------------------
Label_0_016EF78F:
 BYTE   W10
 BYTE   N96  An2  v100
 BYTE   W84
 BYTE   W02
 BYTE   PEND 
 BYTE   PATT
  POIN2 Label_0_016EF6DA
 BYTE   PATT
  POIN2 Label_0_016EF6E1
 BYTE   PATT
  POIN2 Label_0_016EF6B0
 BYTE   PATT
  POIN2 Label_0_016EF6B0
 BYTE   PATT
  POIN2 Label_0_016EF6DA
 BYTE   PATT
  POIN2 Label_0_016EF6E1
 BYTE   PATT
  POIN2 Label_0_016EF788
// 016   ----------------------------------------
 BYTE   W10
 BYTE   N96  Ds3  v100
 BYTE   W84
 BYTE   W02
 BYTE   PATT
  POIN2 Label_0_016EF77C
 BYTE   PATT
  POIN2 Label_0_016EF6E1
// 017   ----------------------------------------
Label_0_016EF7C9:
 BYTE   W10
 BYTE   N48  Fs3  v100
 BYTE   W48
 BYTE   N48
 BYTE   W36
 BYTE   W02
 BYTE   PEND 
// 018   ----------------------------------------
Label_0_016EF7D2:
 BYTE   W10
 BYTE   N48  Fs3  v100
 BYTE   W48
 BYTE   N36
 BYTE   W36
 BYTE   N12  En3
 BYTE   W02
 BYTE   PEND 
 BYTE   PATT
  POIN2 Label_0_016EF762
// 019   ----------------------------------------
Label_0_016EF7E2:
 BYTE   W10
 BYTE   N48  Bn2  v100
 BYTE   W48
 BYTE   Cs3
 BYTE   W36
 BYTE   W02
 BYTE   PEND 
 BYTE   PATT
  POIN2 Label_0_016EF7C9
 BYTE   PATT
  POIN2 Label_0_016EF7D2
 BYTE   PATT
  POIN2 Label_0_016EF762
 BYTE   PATT
  POIN2 Label_0_016EF7E2
// 020   ----------------------------------------
 BYTE   W10
 BYTE   N24  Bn2  v100
 BYTE   W24
 BYTE   N72
 BYTE   W60
 BYTE   W02
// 021   ----------------------------------------
 BYTE   W10
 BYTE   N24  Cn3
 BYTE   W24
 BYTE   N72
 BYTE   W60
 BYTE   W02
// 022   ----------------------------------------
 BYTE   W10
 BYTE   N24  Cs3
 BYTE   W24
 BYTE   N72
 BYTE   W60
 BYTE   W02
// 023   ----------------------------------------
 BYTE   W10
 BYTE   N24  Dn3
 BYTE   W24
 BYTE   N72
 BYTE   W60
 BYTE   W02
// 024   ----------------------------------------
Label_0_016EF81C:
 BYTE   W10
 BYTE   N72  En3  v100
 BYTE   W72
 BYTE   N72
 BYTE   W14
 BYTE   PEND 
// 025   ----------------------------------------
Label_0_016EF824:
 BYTE   W56
 BYTE   W02
 BYTE   N72  En3  v100
 BYTE   W36
 BYTE   W02
 BYTE   PEND 
// 026   ----------------------------------------
 BYTE   W32
 BYTE   W02
 BYTE   N24
 BYTE   W24
 BYTE   N12  Dn3
 BYTE   W12
 BYTE   Cn3
 BYTE   W12
 BYTE   Bn2
 BYTE   W12
 BYTE   An2
 BYTE   W02
// 027   ----------------------------------------
 BYTE   W10
 BYTE   N72  Gn2
 BYTE   W72
 BYTE   N48  An2
 BYTE   W14
// 028   ----------------------------------------
 BYTE   W32
 BYTE   W02
 BYTE   N12  Cs3
 BYTE   W12
 BYTE   Bn2
 BYTE   W12
 BYTE   N72  Cn3
 BYTE   W36
 BYTE   W02
// 029   ----------------------------------------
 BYTE   W32
 BYTE   W02
 BYTE   Dn3
 BYTE   W60
 BYTE   W02
 BYTE   PATT
  POIN2 Label_0_016EF81C
 BYTE   PATT
  POIN2 Label_0_016EF824
// 030   ----------------------------------------
 BYTE   W32
 BYTE   W02
 BYTE   N24  En3  v100
 BYTE   W24
 BYTE   Dn3
 BYTE   W24
 BYTE   Cn3
 BYTE   W14
// 031   ----------------------------------------
 BYTE   W10
 BYTE   N72  Bn2
 BYTE   W72
 BYTE   Cn3
 BYTE   W14
// 032   ----------------------------------------
 BYTE   W56
 BYTE   W02
 BYTE   An2
 BYTE   W36
 BYTE   W02
// 033   ----------------------------------------
 BYTE   W32
 BYTE   W02
 BYTE   N60  Bn2
 BYTE   W60
 BYTE   N12  An2
 BYTE   W02
// 034   ----------------------------------------
Label_0_016EF877:
 BYTE   W10
 BYTE   N72  Gn2  v100
 BYTE   W72
 BYTE   N72
 BYTE   W14
 BYTE   PEND 
// 035   ----------------------------------------
Label_0_016EF87F:
 BYTE   W56
 BYTE   W02
 BYTE   N72  Gn2  v100
 BYTE   W36
 BYTE   W02
 BYTE   PEND 
// 036   ----------------------------------------
Label_0_016EF887:
 BYTE   W32
 BYTE   W02
 BYTE   N72  Gn2  v100
 BYTE   W60
 BYTE   W02
 BYTE   PEND 
 BYTE   PATT
  POIN2 Label_0_016EF877
 BYTE   PATT
  POIN2 Label_0_016EF87F
 BYTE   PATT
  POIN2 Label_0_016EF887
// 037   ----------------------------------------
 BYTE   W10
 BYTE   N72  Fs2  v100
 BYTE   W72
 BYTE   Gn2
 BYTE   W14
// 038   ----------------------------------------
 BYTE   W56
 BYTE   W02
 BYTE   En2
 BYTE   W36
 BYTE   W02
// 039   ----------------------------------------
 BYTE   W32
 BYTE   W02
 BYTE   Fs2
 BYTE   W60
 BYTE   W02
// 040   ----------------------------------------
 BYTE   W10
 BYTE   N96
 BYTE   W48
 BYTE   TEMPO   70*FE04Part1MapMedleySurfingKyogre_tbs/2
 BYTE   W12
 BYTE   TEMPO   54*FE04Part1MapMedleySurfingKyogre_tbs/2
 BYTE   W12
 BYTE   TEMPO   30*FE04Part1MapMedleySurfingKyogre_tbs/2
 BYTE   W14
// 041   ----------------------------------------
 BYTE   W10
 BYTE   TEMPO   90*FE04Part1MapMedleySurfingKyogre_tbs/2
 BYTE   Bn2
 BYTE   W84
 BYTE   W02
 BYTE   PATT
  POIN2 Label_0_016EF78F
 BYTE   PATT
  POIN2 Label_0_016EF74C
 BYTE   PATT
  POIN2 Label_0_016EF6B0
 BYTE   PATT
  POIN2 Label_0_016EF77C
 BYTE   PATT
  POIN2 Label_0_016EF77C
 BYTE   PATT
  POIN2 Label_0_016EF78F
 BYTE   PATT
  POIN2 Label_0_016EF78F
 BYTE   PATT
  POIN2 Label_0_016EF74C
 BYTE   PATT
  POIN2 Label_0_016EF74C
// 042   ----------------------------------------
 BYTE   W10
 BYTE   TIE  Fs2  v100
 BYTE   W84
 BYTE   W02
// 043   ----------------------------------------
 BYTE   W96
// 044   ----------------------------------------
 BYTE   W10
 BYTE   EOT
 BYTE   N96  Gn2
 BYTE   W84
 BYTE   W02
 BYTE   PATT
  POIN2 Label_0_016EF74C
 BYTE   PATT
  POIN2 Label_0_016EF762
// 045   ----------------------------------------
 BYTE   W10
 BYTE   N48  Bn2  v100
 BYTE   W48
 BYTE   An2
 BYTE   W36
 BYTE   W02
 BYTE   PATT
  POIN2 Label_0_016EF74C
 BYTE   PATT
  POIN2 Label_0_016EF78F
 BYTE   PATT
  POIN2 Label_0_016EF78F
 BYTE   PATT
  POIN2 Label_0_016EF78F
 BYTE   PATT
  POIN2 Label_0_016EF74C
 BYTE   PATT
  POIN2 Label_0_016EF74C
 BYTE   PATT
  POIN2 Label_0_016EF74C
 BYTE   PATT
  POIN2 Label_0_016EF74C
 BYTE   PATT
  POIN2 Label_0_016EF74C
 BYTE   PATT
  POIN2 Label_0_016EF74C
// 046   ----------------------------------------
 BYTE   W10
 BYTE   N48  Fs3  v100
 BYTE   W48
 BYTE   Fn3
 BYTE   W36
 BYTE   W02
// 047   ----------------------------------------
 BYTE   W10
 BYTE   En3
 BYTE   W48
 BYTE   Ds3
 BYTE   W36
 BYTE   W02
 BYTE   PATT
  POIN2 Label_0_016EF77C
// 048   ----------------------------------------
 BYTE   W10
 BYTE   N96  En3  v100
 BYTE   W84
 BYTE   W02
 BYTE   PATT
  POIN2 Label_0_016EF709
// 049   ----------------------------------------
 BYTE   W12
 BYTE   TIE  Fs3  v064
 BYTE   W84
// 050   ----------------------------------------
 BYTE   W96
// 051   ----------------------------------------
 BYTE   W06
 BYTE   EOT
 BYTE   W04
 BYTE   VOICE   0
 BYTE   PAN   c_v-19
 BYTE   VOL   55*FE04Part1MapMedleySurfingKyogre_mvl/mxv
 BYTE   N96  Fs2  v100
 BYTE   W03
 BYTE   VOL   55*FE04Part1MapMedleySurfingKyogre_mvl/mxv
 BYTE   W06
 BYTE   Gn4
 BYTE   W06
 BYTE   Fs4
 BYTE   W07
 BYTE   Fs4
 BYTE   W06
 BYTE   Fn4
 BYTE   W06
 BYTE   En4
 BYTE   W07
 BYTE   En4
 BYTE   W06
 BYTE   Ds4
 BYTE   W07
 BYTE   Dn4
 BYTE   W06
 BYTE   Dn4
 BYTE   W06
 BYTE   Cs4
 BYTE   W07
 BYTE   Cs4
 BYTE   W06
 BYTE   Cn4
 BYTE   W07
// 052   ----------------------------------------
 BYTE   Bn3
 BYTE   W06
 BYTE   Bn3
 BYTE   W04
 BYTE   N96
 BYTE   W02
 BYTE   VOL   45*FE04Part1MapMedleySurfingKyogre_mvl/mxv
 BYTE   W07
 BYTE   An3
 BYTE   W06
 BYTE   An3
 BYTE   W07
 BYTE   Gs3
 BYTE   W06
 BYTE   Gs3
 BYTE   W06
 BYTE   Gn3
 BYTE   W07
 BYTE   Fs3
 BYTE   W06
 BYTE   Fs3
 BYTE   W07
 BYTE   Fn3
 BYTE   W06
 BYTE   En3
 BYTE   W06
 BYTE   En3
 BYTE   W02
 BYTE   GoTo
  POIN2 Label_0_016EF6AF
// 053   ----------------------------------------
 BYTE   W05
 BYTE   VOL   38*FE04Part1MapMedleySurfingKyogre_mvl/mxv
 BYTE   W06
 BYTE   Dn3
 BYTE   W07
 BYTE   Dn3
 BYTE   W06
 BYTE   Cs3
 BYTE   W04
 BYTE   N96  Fs2  v100
 BYTE   W02
 BYTE   VOL   36*FE04Part1MapMedleySurfingKyogre_mvl/mxv
 BYTE   W07
 BYTE   Cn3
 BYTE   W06
 BYTE   Bn2
 BYTE   W07
 BYTE   Bn2
 BYTE   W06
 BYTE   As2
 BYTE   W06
 BYTE   An2
 BYTE   W07
 BYTE   An2
 BYTE   W06
 BYTE   Gs2
 BYTE   W07
 BYTE   Gs2
 BYTE   W06
 BYTE   Gn2
 BYTE   W06
 BYTE   Fs2
 BYTE   W07
// 054   ----------------------------------------
 BYTE   Fs2
 BYTE   W06
 BYTE   Fn2
 BYTE   W07
 BYTE   En2
 BYTE   W06
 BYTE   En2
 BYTE   W04
 BYTE   N96
 BYTE   W02
 BYTE   VOL   26*FE04Part1MapMedleySurfingKyogre_mvl/mxv
 BYTE   W07
 BYTE   Ds2
 BYTE   W06
 BYTE   Dn2
 BYTE   W07
 BYTE   Cs2
 BYTE   W06
 BYTE   Cs2
 BYTE   W06
 BYTE   Cn2
 BYTE   W07
 BYTE   Bn1
 BYTE   W06
 BYTE   Bn1
 BYTE   W07
 BYTE   As1
 BYTE   W06
 BYTE   An1
 BYTE   W06
 BYTE   An1
 BYTE   W07
// 055   ----------------------------------------
 BYTE   Gs1
 BYTE   W06
 BYTE   Gs1
 BYTE   W07
 BYTE   Gn1
 BYTE   W06
 BYTE   Fs1
 BYTE   W04
 BYTE   N96
 BYTE   W02
 BYTE   VOL   17*FE04Part1MapMedleySurfingKyogre_mvl/mxv
 BYTE   W07
 BYTE   Fn1
 BYTE   W06
 BYTE   En1
 BYTE   W07
 BYTE   En1
 BYTE   W06
 BYTE   Ds1
 BYTE   W06
 BYTE   Ds1
 BYTE   W07
 BYTE   Dn1
 BYTE   W06
 BYTE   Cs1
 BYTE   W07
 BYTE   Cs1
 BYTE   W06
 BYTE   Cn1
 BYTE   W06
 BYTE   Bn0
 BYTE   W07
// 056   ----------------------------------------
 BYTE   Bn0
 BYTE   W06
 BYTE   As0
 BYTE   W07
 BYTE   As0
 BYTE   W06
 BYTE   An0
 BYTE   W04
 BYTE   N96
 BYTE   W02
 BYTE   VOL   7*FE04Part1MapMedleySurfingKyogre_mvl/mxv
 BYTE   W07
 BYTE   Gs0
 BYTE   W06
 BYTE   Gn0
 BYTE   W07
 BYTE   Fs0
 BYTE   W06
 BYTE   Fs0
 BYTE   W06
 BYTE   Fn0
 BYTE   W07
 BYTE   En0
 BYTE   W06
 BYTE   En0
 BYTE   W07
 BYTE   Ds0
 BYTE   W06
 BYTE   Ds0
 BYTE   W06
 BYTE   Dn0
 BYTE   W07
// 057   ----------------------------------------
 BYTE   Cs0
 BYTE   W06
 BYTE   Cs0
 BYTE   W07
 BYTE   Cn0
 BYTE   W06
 BYTE   BnM1
 BYTE   W04
 BYTE   N96
 BYTE   W02
 BYTE   VOL   0*FE04Part1MapMedleySurfingKyogre_mvl/mxv
 BYTE   W07
 BYTE   AsM1
 BYTE   W06
 BYTE   AsM1
 BYTE   W07
 BYTE   AnM1
 BYTE   W06
 BYTE   GsM1
 BYTE   W06
 BYTE   GsM1
 BYTE   W07
 BYTE   GnM1
 BYTE   W06
 BYTE   FsM1
 BYTE   W07
 BYTE   FsM1
 BYTE   W06
 BYTE   FnM1
 BYTE   W06
 BYTE   FnM1
 BYTE   W07
// 058   ----------------------------------------
 BYTE   EnM1
 BYTE   W06
 BYTE   DsM1
 BYTE   W07
 BYTE   DsM1
 BYTE   W06
 BYTE   DnM1
 BYTE   W04
 BYTE   N96
 BYTE   W02
 BYTE   VOL   0*FE04Part1MapMedleySurfingKyogre_mvl/mxv
 BYTE   W07
 BYTE   CsM1
 BYTE   W06
 BYTE   CnM1
 BYTE   W07
 BYTE   BnM2
 BYTE   W06
 BYTE   BnM2
 BYTE   W06
 BYTE   AsM2
 BYTE   W07
 BYTE   AsM2
 BYTE   W06
 BYTE   AnM2
 BYTE   W07
 BYTE   GsM2
 BYTE   W06
 BYTE   GsM2
 BYTE   W06
 BYTE   GnM2
 BYTE   W07
// 059   ----------------------------------------
 BYTE   FsM2
 BYTE   W06
 BYTE   FsM2
 BYTE   W07
 BYTE   FnM2
 BYTE   W06
 BYTE   FnM2
 BYTE   W04
 BYTE   N52
 BYTE   W02
 BYTE   VOL   0*FE04Part1MapMedleySurfingKyogre_mvl/mxv
 BYTE   W07
 BYTE   DsM2
 BYTE   W06
 BYTE   DsM2
 BYTE   W07
 BYTE   DnM2
 BYTE   W06
 BYTE   CsM2
 BYTE   W06
 BYTE   CsM2
 BYTE   W07
 BYTE   CnM2
 BYTE   W06
 BYTE   CnM2
 BYTE   W07
 BYTE   CnM2
 BYTE   FINE

//**************** Track 2 (Midi-Chn.1) ****************//

FE04Part1MapMedleySurfingKyogre_002:
// 000   ----------------------------------------
 BYTE   KEYSH   FE04Part1MapMedleySurfingKyogre_key+0
 BYTE   PAN   c_v+0
 BYTE   VOL   15*FE04Part1MapMedleySurfingKyogre_mvl/mxv
 BYTE   MOD 0
 BYTE   CnM2
 BYTE   BEND   c_v+0
 BYTE   W10
 BYTE   VOICE   1
 BYTE   PAN   c_v+6
 BYTE   VOL   55*FE04Part1MapMedleySurfingKyogre_mvl/mxv
 BYTE   W12
 BYTE   N12  Cs3  v100
 BYTE   W12
 BYTE   Gs3
 BYTE   W12
 BYTE   N72  An3
 BYTE   W48
 BYTE   W02
// 001   ----------------------------------------
 BYTE   W22
 BYTE   N12  Ds3
 BYTE   W12
 BYTE   Fs3
 BYTE   W12
 BYTE   N72  Bn3
 BYTE   W32
Label_1_016F1E45:
 BYTE   W18
// 002   ----------------------------------------
Label_1_016F1E46:
 BYTE   W22
 BYTE   N12  Cs3  v100
 BYTE   W12
 BYTE   Gs3
 BYTE   W12
 BYTE   N72  An3
 BYTE   W48
 BYTE   W02
 BYTE   PEND 
// 003   ----------------------------------------
 BYTE   W22
 BYTE   N12  Ds3
 BYTE   W12
 BYTE   Gs3
 BYTE   W12
 BYTE   N72  Bn3
 BYTE   W48
 BYTE   W02
// 004   ----------------------------------------
 BYTE   W22
 BYTE   N12  Cs3
 BYTE   W12
 BYTE   Fs3
 BYTE   W12
 BYTE   N72  An3
 BYTE   W48
 BYTE   W02
// 005   ----------------------------------------
Label_1_016F1E66:
 BYTE   W22
 BYTE   N12  Ds3  v100
 BYTE   W12
 BYTE   Fs3
 BYTE   W12
 BYTE   N72  Bn3
 BYTE   W48
 BYTE   W02
 BYTE   PEND 
 BYTE   PATT
  POIN2 Label_1_016F1E46
 BYTE   PATT
  POIN2 Label_1_016F1E66
 BYTE   PATT
  POIN2 Label_1_016F1E46
 BYTE   PATT
  POIN2 Label_1_016F1E66
// 006   ----------------------------------------
 BYTE   W22
 BYTE   N12  Ds3  v100
 BYTE   W12
 BYTE   As3
 BYTE   W12
 BYTE   N72  Bn3
 BYTE   W48
 BYTE   W02
// 007   ----------------------------------------
 BYTE   W22
 BYTE   N12  Gs3
 BYTE   W12
 BYTE   Ds4
 BYTE   W12
 BYTE   N72  En4
 BYTE   W48
 BYTE   W02
// 008   ----------------------------------------
 BYTE   W22
 BYTE   N12  Cs4
 BYTE   W12
 BYTE   Gs4
 BYTE   W12
 BYTE   N72  An4
 BYTE   W48
 BYTE   W02
// 009   ----------------------------------------
 BYTE   W96
// 010   ----------------------------------------
 BYTE   W22
 BYTE   N12  An3
 BYTE   W12
 BYTE   Cs4
 BYTE   W12
 BYTE   N72  Fs4
 BYTE   W48
 BYTE   W02
// 011   ----------------------------------------
 BYTE   W22
 BYTE   N12  Gs3
 BYTE   W12
 BYTE   Cs4
 BYTE   W12
 BYTE   N72  Fn4
 BYTE   W48
 BYTE   W02
// 012   ----------------------------------------
 BYTE   W22
 BYTE   N12  Cs4
 BYTE   W12
 BYTE   N36  Gs4
 BYTE   W36
 BYTE   N48  An4
 BYTE   W24
 BYTE   W02
// 013   ----------------------------------------
 BYTE   W22
 BYTE   N12  Cs4
 BYTE   W12
 BYTE   N36  Gs4
 BYTE   W36
 BYTE   An4
 BYTE   W24
 BYTE   W02
// 014   ----------------------------------------
Label_1_016F1ECF:
 BYTE   W22
 BYTE   N12  Cs3  v100
 BYTE   W12
 BYTE   Gs3
 BYTE   W12
 BYTE   N24  As3
 BYTE   W24
 BYTE   N12  Gs3
 BYTE   W12
 BYTE   Fs3
 BYTE   W12
 BYTE   Cs3
 BYTE   W02
 BYTE   PEND 
 BYTE   PATT
  POIN2 Label_1_016F1ECF
// 015   ----------------------------------------
Label_1_016F1EE6:
 BYTE   W22
 BYTE   N12  Ds3  v100
 BYTE   W12
 BYTE   Gs3
 BYTE   W12
 BYTE   N24  Bn3
 BYTE   W24
 BYTE   N12
 BYTE   W12
 BYTE   Gs3
 BYTE   W12
 BYTE   Ds3
 BYTE   W02
 BYTE   PEND 
 BYTE   PATT
  POIN2 Label_1_016F1EE6
// 016   ----------------------------------------
 BYTE   W22
 BYTE   N12  Ds3  v100
 BYTE   W12
 BYTE   As3
 BYTE   W12
 BYTE   N24  Bn3
 BYTE   W24
 BYTE   N12  As3
 BYTE   W12
 BYTE   Gs3
 BYTE   W12
 BYTE   Ds3
 BYTE   W02
// 017   ----------------------------------------
 BYTE   W22
 BYTE   N12
 BYTE   W12
 BYTE   As3
 BYTE   W12
 BYTE   N24  Bn3
 BYTE   W24
 BYTE   N36  As3
 BYTE   W24
 BYTE   W02
 BYTE   PATT
  POIN2 Label_1_016F1ECF
 BYTE   PATT
  POIN2 Label_1_016F1ECF
 BYTE   PATT
  POIN2 Label_1_016F1ECF
 BYTE   PATT
  POIN2 Label_1_016F1ECF
// 018   ----------------------------------------
 BYTE   W22
 BYTE   N12  Ds3  v100
 BYTE   W12
 BYTE   Gs3
 BYTE   W12
 BYTE   N24  Bn3
 BYTE   W24
 BYTE   N12  As3
 BYTE   W12
 BYTE   Gs3
 BYTE   W12
 BYTE   Ds3
 BYTE   W02
// 019   ----------------------------------------
 BYTE   W22
 BYTE   N12
 BYTE   W12
 BYTE   Gs3
 BYTE   W12
 BYTE   As3
 BYTE   W12
 BYTE   Bn3
 BYTE   W12
 BYTE   As3
 BYTE   W12
 BYTE   Gs3
 BYTE   W12
 BYTE   Ds3
 BYTE   W02
// 020   ----------------------------------------
Label_1_016F1F4D:
 BYTE   W22
 BYTE   N12  Dn3  v100
 BYTE   W12
 BYTE   Gn3
 BYTE   W12
 BYTE   N24  Bn3
 BYTE   W24
 BYTE   N12
 BYTE   W12
 BYTE   An3
 BYTE   W12
 BYTE   Dn3
 BYTE   W02
 BYTE   PEND 
 BYTE   PATT
  POIN2 Label_1_016F1F4D
 BYTE   PATT
  POIN2 Label_1_016F1ECF
// 021   ----------------------------------------
 BYTE   W22
 BYTE   N12  Cs3  v100
 BYTE   W12
 BYTE   Gs3
 BYTE   W12
 BYTE   N24  As3
 BYTE   W24
 BYTE   N12  Gs3
 BYTE   W12
 BYTE   N24  Fs3
 BYTE   W14
// 022   ----------------------------------------
Label_1_016F1F78:
 BYTE   W10
 BYTE   N12  Dn3  v100
 BYTE   W12
 BYTE   An3
 BYTE   W12
 BYTE   N24  Dn4
 BYTE   W24
 BYTE   N12  Cs3
 BYTE   W12
 BYTE   Gs3
 BYTE   W12
 BYTE   N36  Cs4
 BYTE   W14
 BYTE   PEND 
// 023   ----------------------------------------
 BYTE   W22
 BYTE   N12  Cs3
 BYTE   W12
 BYTE   Fs3
 BYTE   W12
 BYTE   N24  As3
 BYTE   W24
 BYTE   N12  Gs3
 BYTE   W12
 BYTE   N24  Fs3
 BYTE   W14
 BYTE   PATT
  POIN2 Label_1_016F1F78
// 024   ----------------------------------------
 BYTE   W22
 BYTE   N12  Cs3  v100
 BYTE   W12
 BYTE   Fs3
 BYTE   W12
 BYTE   N36  As3
 BYTE   W36
 BYTE   N12  Gs3
 BYTE   W12
 BYTE   Fs3
 BYTE   W02
// 025   ----------------------------------------
Label_1_016F1FAE:
 BYTE   W22
 BYTE   N12  Fs3  v100
 BYTE   W12
 BYTE   As3
 BYTE   W12
 BYTE   N60  Bn3
 BYTE   W48
 BYTE   W02
 BYTE   PEND 
// 026   ----------------------------------------
 BYTE   W22
 BYTE   N12  Fn3
 BYTE   W12
 BYTE   Gs3
 BYTE   W12
 BYTE   N60  Bn3
 BYTE   W48
 BYTE   W02
// 027   ----------------------------------------
 BYTE   W22
 BYTE   N12  Fn3
 BYTE   W12
 BYTE   Gs3
 BYTE   W12
 BYTE   N48  As3
 BYTE   W48
 BYTE   N24  Gs3
 BYTE   W02
 BYTE   PATT
  POIN2 Label_1_016F1FAE
// 028   ----------------------------------------
Label_1_016F1FD5:
 BYTE   W22
 BYTE   N12  Ds3  v100
 BYTE   W12
 BYTE   As3
 BYTE   W12
 BYTE   N60  Bn3
 BYTE   W48
 BYTE   W02
 BYTE   PEND 
// 029   ----------------------------------------
 BYTE   W22
 BYTE   N12  Gs3
 BYTE   W12
 BYTE   Ds4
 BYTE   W12
 BYTE   N36  Fn4
 BYTE   W36
 BYTE   N24  Ds4
 BYTE   W14
 BYTE   PATT
  POIN2 Label_1_016F1ECF
 BYTE   PATT
  POIN2 Label_1_016F1ECF
 BYTE   PATT
  POIN2 Label_1_016F1FD5
// 030   ----------------------------------------
 BYTE   W22
 BYTE   N12  Gs3  v100
 BYTE   W12
 BYTE   Ds4
 BYTE   W12
 BYTE   N60  Fn4
 BYTE   W48
 BYTE   W02
// 031   ----------------------------------------
 BYTE   W22
 BYTE   N12  Fn3
 BYTE   W12
 BYTE   Gs3
 BYTE   W12
 BYTE   N60  As3
 BYTE   W48
 BYTE   W02
// 032   ----------------------------------------
 BYTE   W22
 BYTE   N12
 BYTE   W12
 BYTE   Cs4
 BYTE   W12
 BYTE   N36  Ds4
 BYTE   W36
 BYTE   N12  As3
 BYTE   W12
 BYTE   Fs3
 BYTE   W02
// 033   ----------------------------------------
 BYTE   W22
 BYTE   N12
 BYTE   W12
 BYTE   Cs4
 BYTE   W12
 BYTE   N60  Ds4
 BYTE   W48
 BYTE   W02
// 034   ----------------------------------------
 BYTE   W22
 BYTE   N12  Gs3
 BYTE   W12
 BYTE   Cs4
 BYTE   W12
 BYTE   N36  Ds4
 BYTE   W36
 BYTE   N24  Gs3
 BYTE   W14
// 035   ----------------------------------------
 BYTE   W10
 BYTE   N12  Fs3
 BYTE   W12
 BYTE   An3
 BYTE   W12
 BYTE   Cs4
 BYTE   W12
 BYTE   An3
 BYTE   W12
 BYTE   Fs3
 BYTE   W12
 BYTE   An3
 BYTE   W12
 BYTE   Cs4
 BYTE   W12
 BYTE   An3
 BYTE   W02
// 036   ----------------------------------------
 BYTE   W10
 BYTE   Fs3
 BYTE   W12
 BYTE   Bn3
 BYTE   W12
 BYTE   Ds4
 BYTE   W12
 BYTE   Bn3
 BYTE   W12
 BYTE   Fs3
 BYTE   W12
 BYTE   An3
 BYTE   W12
 BYTE   N24  Cs4
 BYTE   W14
// 037   ----------------------------------------
Label_1_016F2055:
 BYTE   W22
 BYTE   N12  Fs3  v100
 BYTE   W12
 BYTE   An3
 BYTE   W12
 BYTE   Fs3
 BYTE   W24
 BYTE   En3
 BYTE   W12
 BYTE   Gs3
 BYTE   W12
 BYTE   En3
 BYTE   W02
 BYTE   PEND 
// 038   ----------------------------------------
Label_1_016F2065:
 BYTE   W22
 BYTE   N12  Dn3  v100
 BYTE   W12
 BYTE   Fs3
 BYTE   W12
 BYTE   Dn3
 BYTE   W12
 BYTE   Cs3
 BYTE   W12
 BYTE   Fn3
 BYTE   W12
 BYTE   N24  Gs3
 BYTE   W14
 BYTE   PEND 
// 039   ----------------------------------------
 BYTE   W10
 BYTE   N12  Fs3
 BYTE   W12
 BYTE   An3
 BYTE   W12
 BYTE   Cs4
 BYTE   W12
 BYTE   An3
 BYTE   W12
 BYTE   Fs3
 BYTE   W12
 BYTE   Bn3
 BYTE   W12
 BYTE   Ds4
 BYTE   W12
 BYTE   Bn3
 BYTE   W02
// 040   ----------------------------------------
 BYTE   W10
 BYTE   Fs3
 BYTE   W12
 BYTE   An3
 BYTE   W12
 BYTE   Cs4
 BYTE   W12
 BYTE   An3
 BYTE   W12
 BYTE   Fs3
 BYTE   W12
 BYTE   An3
 BYTE   W12
 BYTE   N24  Cs4
 BYTE   W14
 BYTE   PATT
  POIN2 Label_1_016F2055
 BYTE   PATT
  POIN2 Label_1_016F2065
// 041   ----------------------------------------
 BYTE   W10
 BYTE   N24  Fs3  v100
 BYTE   W24
 BYTE   N72
 BYTE   W60
 BYTE   W02
// 042   ----------------------------------------
Label_1_016F20AA:
 BYTE   W10
 BYTE   N24  Gn3  v100
 BYTE   W24
 BYTE   N72
 BYTE   W60
 BYTE   W02
 BYTE   PEND 
 BYTE   PATT
  POIN2 Label_1_016F20AA
// 043   ----------------------------------------
 BYTE   W10
 BYTE   N24  An3  v100
 BYTE   W24
 BYTE   N72
 BYTE   W60
 BYTE   W02
// 044   ----------------------------------------
 BYTE   W10
 BYTE   N12  En3
 BYTE   W12
 BYTE   Gn3
 BYTE   W12
 BYTE   N24  Bn3
 BYTE   W24
 BYTE   N36  Dn4
 BYTE   W36
 BYTE   N12  An3
 BYTE   W02
// 045   ----------------------------------------
 BYTE   W10
 BYTE   N24  Cs4
 BYTE   W24
 BYTE   N36  En4
 BYTE   W36
 BYTE   N12  Gn3
 BYTE   W12
 BYTE   N24  Bn3
 BYTE   W14
// 046   ----------------------------------------
 BYTE   W10
 BYTE   N48  Dn4
 BYTE   W84
 BYTE   W02
// 047   ----------------------------------------
 BYTE   W22
 BYTE   N12  Gn2
 BYTE   W12
 BYTE   Bn2
 BYTE   W12
 BYTE   Gn3
 BYTE   W12
 BYTE   Bn3
 BYTE   W12
 BYTE   Dn4
 BYTE   W24
 BYTE   Cs3
 BYTE   W02
// 048   ----------------------------------------
 BYTE   W10
 BYTE   En3
 BYTE   W12
 BYTE   An3
 BYTE   W12
 BYTE   Cs4
 BYTE   W12
 BYTE   En4
 BYTE   W24
 BYTE   En3
 BYTE   W12
 BYTE   Gn3
 BYTE   W12
 BYTE   Cn4
 BYTE   W02
// 049   ----------------------------------------
 BYTE   W10
 BYTE   En4
 BYTE   W12
 BYTE   Gn4
 BYTE   W24
 BYTE   Fs3
 BYTE   W12
 BYTE   An3
 BYTE   W12
 BYTE   Dn4
 BYTE   W12
 BYTE   Fs4
 BYTE   W12
 BYTE   An4
 BYTE   W02
// 050   ----------------------------------------
 BYTE   W22
 BYTE   Gn3
 BYTE   W12
 BYTE   N24  Bn3
 BYTE   W24
 BYTE   Dn4
 BYTE   W36
 BYTE   N12  An3
 BYTE   W02
// 051   ----------------------------------------
 BYTE   W10
 BYTE   N24  Cs4
 BYTE   W24
 BYTE   En4
 BYTE   W36
 BYTE   N12  Gn3
 BYTE   W12
 BYTE   N24  Bn3
 BYTE   W14
// 052   ----------------------------------------
 BYTE   W10
 BYTE   Dn4
 BYTE   W36
 BYTE   N12  Gn3
 BYTE   W24
 BYTE   N12
 BYTE   W24
 BYTE   N12
 BYTE   W02
// 053   ----------------------------------------
 BYTE   W22
 BYTE   Fs3
 BYTE   W12
 BYTE   Cs4
 BYTE   W12
 BYTE   N36  Dn4
 BYTE   W48
 BYTE   N12  Gn3
 BYTE   W02
// 054   ----------------------------------------
 BYTE   W10
 BYTE   Dn4
 BYTE   W12
 BYTE   N36  En4
 BYTE   W48
 BYTE   N12  En3
 BYTE   W12
 BYTE   Bn3
 BYTE   W12
 BYTE   N36  Cn4
 BYTE   W02
// 055   ----------------------------------------
 BYTE   W44
 BYTE   W02
 BYTE   N12  Fs3
 BYTE   W12
 BYTE   Gn3
 BYTE   W12
 BYTE   N36  Dn4
 BYTE   W24
 BYTE   W02
// 056   ----------------------------------------
Label_1_016F2152:
 BYTE   W22
 BYTE   N12  Dn3  v100
 BYTE   W12
 BYTE   Gn3
 BYTE   W12
 BYTE   N48  Bn3
 BYTE   W48
 BYTE   N12  En3
 BYTE   W02
 BYTE   PEND 
// 057   ----------------------------------------
Label_1_016F2160:
 BYTE   W10
 BYTE   N12  An3  v100
 BYTE   W12
 BYTE   N24  Cs4
 BYTE   W24
 BYTE   N12  An3
 BYTE   W24
 BYTE   Dn3
 BYTE   W12
 BYTE   Gn3
 BYTE   W12
 BYTE   N48  Bn3
 BYTE   W02
 BYTE   PEND 
// 058   ----------------------------------------
 BYTE   W44
 BYTE   W02
 BYTE   N12  En3
 BYTE   W12
 BYTE   An3
 BYTE   W12
 BYTE   N24  Cs4
 BYTE   W24
 BYTE   N12  An3
 BYTE   W02
 BYTE   PATT
  POIN2 Label_1_016F2152
 BYTE   PATT
  POIN2 Label_1_016F2160
// 059   ----------------------------------------
 BYTE   W44
 BYTE   W02
 BYTE   N12  En3  v100
 BYTE   W12
 BYTE   An3
 BYTE   W12
 BYTE   N24  Cs4
 BYTE   W24
 BYTE   An3
 BYTE   W02
// 060   ----------------------------------------
 BYTE   W22
 BYTE   N12  Cs3
 BYTE   W12
 BYTE   Gs3
 BYTE   W12
 BYTE   N36  An3
 BYTE   W48
 BYTE   N12  Dn3
 BYTE   W02
// 061   ----------------------------------------
 BYTE   W10
 BYTE   An3
 BYTE   W12
 BYTE   N36  Bn3
 BYTE   W48
 BYTE   N12  Bn2
 BYTE   W12
 BYTE   Gn3
 BYTE   W12
 BYTE   N36  Bn3
 BYTE   W02
// 062   ----------------------------------------
 BYTE   W44
 BYTE   W02
 BYTE   N12  Cs3
 BYTE   W12
 BYTE   Gs3
 BYTE   W12
 BYTE   N36  An3
 BYTE   W24
 BYTE   W02
// 063   ----------------------------------------
 BYTE   W22
 BYTE   N12  Cs3
 BYTE   W12
 BYTE   Gs3
 BYTE   W12
 BYTE   An3
 BYTE   W12
 BYTE   Cs4
 BYTE   W12
 BYTE   En4
 BYTE   W12
 BYTE   Dn4
 BYTE   W12
 BYTE   Cs4
 BYTE   W02
// 064   ----------------------------------------
Label_1_016F21CC:
 BYTE   W32
 BYTE   W02
 BYTE   N12  Bn3  v100
 BYTE   W12
 BYTE   Cs4
 BYTE   W12
 BYTE   Dn4
 BYTE   W12
 BYTE   Fs4
 BYTE   W12
 BYTE   Bn4
 BYTE   W12
 BYTE   Cs5
 BYTE   W02
 BYTE   PEND 
 BYTE   PATT
  POIN2 Label_1_016F21CC
 BYTE   PATT
  POIN2 Label_1_016F21CC
 BYTE   PATT
  POIN2 Label_1_016F21CC
// 065   ----------------------------------------
Label_1_016F21EC:
 BYTE   W22
 BYTE   N12  Fs3  v100
 BYTE   W12
 BYTE   Cs4
 BYTE   W12
 BYTE   N24  Dn4
 BYTE   W24
 BYTE   N12  Cs4
 BYTE   W12
 BYTE   Bn3
 BYTE   W12
 BYTE   Fs3
 BYTE   W02
 BYTE   PEND 
 BYTE   PATT
  POIN2 Label_1_016F21EC
// 066   ----------------------------------------
 BYTE   W22
 BYTE   N24  En3  v100
 BYTE   W24
 BYTE   Dn4
 BYTE   W24
 BYTE   N12  Cs4
 BYTE   W12
 BYTE   Bn3
 BYTE   W12
 BYTE   Fs3
 BYTE   W02
// 067   ----------------------------------------
 BYTE   W22
 BYTE   En3
 BYTE   W12
 BYTE   Bn3
 BYTE   W12
 BYTE   N24  Dn4
 BYTE   W24
 BYTE   N12  Cs4
 BYTE   W12
 BYTE   Bn3
 BYTE   W12
 BYTE   Fs3
 BYTE   W02
// 068   ----------------------------------------
 BYTE   W22
 BYTE   Dn3
 BYTE   W12
 BYTE   Bn3
 BYTE   W12
 BYTE   N24  Dn4
 BYTE   W24
 BYTE   N12  Cs4
 BYTE   W12
 BYTE   Bn3
 BYTE   W12
 BYTE   Fs3
 BYTE   W02
// 069   ----------------------------------------
 BYTE   W22
 BYTE   Dn3
 BYTE   W12
 BYTE   Cs4
 BYTE   W12
 BYTE   N24  Dn4
 BYTE   W24
 BYTE   N12  Cs4
 BYTE   W12
 BYTE   Bn3
 BYTE   W12
 BYTE   Fs3
 BYTE   W02
// 070   ----------------------------------------
 BYTE   W22
 BYTE   Cs3
 BYTE   W12
 BYTE   Fs3
 BYTE   W12
 BYTE   Gs3
 BYTE   W12
 BYTE   An3
 BYTE   W12
 BYTE   Cs4
 BYTE   W12
 BYTE   Fs4
 BYTE   W12
 BYTE   Cs4
 BYTE   W02
// 071   ----------------------------------------
 BYTE   W10
 BYTE   An3
 BYTE   W12
 BYTE   Gs3
 BYTE   W12
 BYTE   Fs3
 BYTE   W12
 BYTE   Cs3
 BYTE   W12
 BYTE   An2
 BYTE   W12
 BYTE   Fs2
 BYTE   W12
 BYTE   An2
 BYTE   W12
 BYTE   Cs3
 BYTE   W02
// 072   ----------------------------------------
Label_1_016F225E:
 BYTE   W22
 BYTE   N12  Dn3  v100
 BYTE   W12
 BYTE   Gn3
 BYTE   W12
 BYTE   An3
 BYTE   W12
 BYTE   Bn3
 BYTE   W12
 BYTE   Dn4
 BYTE   W12
 BYTE   Gn4
 BYTE   W12
 BYTE   Dn4
 BYTE   W02
 BYTE   PEND 
// 073   ----------------------------------------
 BYTE   W22
 BYTE   Dn3
 BYTE   W12
 BYTE   Gn3
 BYTE   W12
 BYTE   An3
 BYTE   W12
 BYTE   Bn3
 BYTE   W12
 BYTE   Dn4
 BYTE   W12
 BYTE   Gn4
 BYTE   W12
 BYTE   Bn4
 BYTE   W02
// 074   ----------------------------------------
 BYTE   W22
 BYTE   Fs3
 BYTE   W12
 BYTE   N24  An3
 BYTE   W36
 BYTE   N12  Fs3
 BYTE   W12
 BYTE   N24  An3
 BYTE   W14
// 075   ----------------------------------------
 BYTE   W22
 BYTE   N12  Dn3
 BYTE   W12
 BYTE   N24  Fs3
 BYTE   W36
 BYTE   N12  Dn3
 BYTE   W12
 BYTE   N24  Fs3
 BYTE   W14
 BYTE   PATT
  POIN2 Label_1_016F225E
// 076   ----------------------------------------
Label_1_016F229D:
 BYTE   W22
 BYTE   N12  En3  v100
 BYTE   W12
 BYTE   Gn3
 BYTE   W12
 BYTE   An3
 BYTE   W12
 BYTE   Cs4
 BYTE   W12
 BYTE   En4
 BYTE   W12
 BYTE   Gn4
 BYTE   W12
 BYTE   An4
 BYTE   W02
 BYTE   PEND 
 BYTE   PATT
  POIN2 Label_1_016F229D
// 077   ----------------------------------------
 BYTE   W22
 BYTE   N12  En3  v100
 BYTE   W12
 BYTE   Gn3
 BYTE   W12
 BYTE   An3
 BYTE   W12
 BYTE   Cs4
 BYTE   W12
 BYTE   En4
 BYTE   W12
 BYTE   Gn4
 BYTE   W12
 BYTE   Cs4
 BYTE   W02
// 078   ----------------------------------------
Label_1_016F22C5:
 BYTE   W22
 BYTE   N12  Dn3  v100
 BYTE   W12
 BYTE   Gn3
 BYTE   W12
 BYTE   An3
 BYTE   W12
 BYTE   N48  Bn3
 BYTE   W36
 BYTE   W02
 BYTE   PEND 
// 079   ----------------------------------------
Label_1_016F22D3:
 BYTE   W22
 BYTE   N12  Dn3  v100
 BYTE   W12
 BYTE   Gn3
 BYTE   W12
 BYTE   Bn3
 BYTE   W12
 BYTE   N48  Cs4
 BYTE   W36
 BYTE   W02
 BYTE   PEND 
 BYTE   PATT
  POIN2 Label_1_016F22C5
 BYTE   PATT
  POIN2 Label_1_016F22C5
 BYTE   PATT
  POIN2 Label_1_016F22C5
 BYTE   PATT
  POIN2 Label_1_016F22D3
// 080   ----------------------------------------
 BYTE   W22
 BYTE   N12  An3  v100
 BYTE   W12
 BYTE   N24  Dn4
 BYTE   W36
 BYTE   N12  An3
 BYTE   W12
 BYTE   N24  Dn4
 BYTE   W14
// 081   ----------------------------------------
 BYTE   W22
 BYTE   N12  An3
 BYTE   W12
 BYTE   N24  Cs4
 BYTE   W36
 BYTE   N12  An3
 BYTE   W12
 BYTE   N24  Cs4
 BYTE   W14
// 082   ----------------------------------------
 BYTE   W22
 BYTE   N12  Fs3
 BYTE   W12
 BYTE   An3
 BYTE   W12
 BYTE   N36  Dn4
 BYTE   W36
 BYTE   N24
 BYTE   W14
// 083   ----------------------------------------
 BYTE   W22
 BYTE   N12  Bn3
 BYTE   W12
 BYTE   En4
 BYTE   W12
 BYTE   N36  Bn4
 BYTE   W36
 BYTE   N12  Fs4
 BYTE   W12
 BYTE   En4
 BYTE   W02
// 084   ----------------------------------------
 BYTE   W22
 BYTE   Bn3
 BYTE   W12
 BYTE   Cs4
 BYTE   W12
 BYTE   N24  Fn4
 BYTE   W24
 BYTE   N12  Fs4
 BYTE   W12
 BYTE   N24  Fn4
 BYTE   W14
// 085   ----------------------------------------
 BYTE   W22
 BYTE   N12  Cs4
 BYTE   W12
 BYTE   En4
 BYTE   W12
 BYTE   TIE  Cs5
 BYTE   W48
 BYTE   W02
// 086   ----------------------------------------
 BYTE   W96
// 087   ----------------------------------------
 BYTE   W10
 BYTE   EOT
 BYTE   VOICE   1
 BYTE   PAN   c_v+6
 BYTE   VOL   55*FE04Part1MapMedleySurfingKyogre_mvl/mxv
 BYTE   W03
 BYTE   Gs4
 BYTE   W06
 BYTE   Gn4
 BYTE   W03
 BYTE   N12  Cs3
 BYTE   W03
 BYTE   VOL   53*FE04Part1MapMedleySurfingKyogre_mvl/mxv
 BYTE   W07
 BYTE   Fs4
 BYTE   W02
 BYTE   N12  Gs3
 BYTE   W04
 BYTE   VOL   52*FE04Part1MapMedleySurfingKyogre_mvl/mxv
 BYTE   W06
 BYTE   En4
 BYTE   W02
 BYTE   N72  An3
 BYTE   W05
 BYTE   VOL   51*FE04Part1MapMedleySurfingKyogre_mvl/mxv
 BYTE   W06
 BYTE   Ds4
 BYTE   W07
 BYTE   Dn4
 BYTE   W06
 BYTE   Dn4
 BYTE   W06
 BYTE   Cs4
 BYTE   W07
 BYTE   Cs4
 BYTE   W06
 BYTE   Cn4
 BYTE   W07
// 088   ----------------------------------------
 BYTE   Bn3
 BYTE   W06
 BYTE   Bn3
 BYTE   W06
 BYTE   As3
 BYTE   W07
 BYTE   An3
 BYTE   W03
 BYTE   N12  Ds3
 BYTE   W03
 BYTE   VOL   44*FE04Part1MapMedleySurfingKyogre_mvl/mxv
 BYTE   W07
 BYTE   Gs3
 BYTE   W02
 BYTE   N12  Fs3
 BYTE   W04
 BYTE   VOL   43*FE04Part1MapMedleySurfingKyogre_mvl/mxv
 BYTE   W06
 BYTE   Gn3
 BYTE   W02
 BYTE   N72  Bn3
 BYTE   W05
 BYTE   VOL   41*FE04Part1MapMedleySurfingKyogre_mvl/mxv
 BYTE   W06
 BYTE   Fs3
 BYTE   W07
 BYTE   Fn3
 BYTE   W06
 BYTE   En3
 BYTE   W06
 BYTE   En3
 BYTE   W02
 BYTE   GoTo
  POIN2 Label_1_016F1E45
// 089   ----------------------------------------
 BYTE   W05
 BYTE   VOL   38*FE04Part1MapMedleySurfingKyogre_mvl/mxv
 BYTE   W06
 BYTE   Dn3
 BYTE   W07
 BYTE   Dn3
 BYTE   W06
 BYTE   Cs3
 BYTE   W06
 BYTE   Cs3
 BYTE   W07
 BYTE   Cn3
 BYTE   W03
 BYTE   N12  Cs3  v100
 BYTE   W03
 BYTE   VOL   34*FE04Part1MapMedleySurfingKyogre_mvl/mxv
 BYTE   W07
 BYTE   Bn2
 BYTE   W02
 BYTE   N12  Gs3
 BYTE   W04
 BYTE   VOL   33*FE04Part1MapMedleySurfingKyogre_mvl/mxv
 BYTE   W06
 BYTE   An2
 BYTE   W02
 BYTE   N72  An3
 BYTE   W05
 BYTE   VOL   32*FE04Part1MapMedleySurfingKyogre_mvl/mxv
 BYTE   W06
 BYTE   Gs2
 BYTE   W07
 BYTE   Gs2
 BYTE   W06
 BYTE   Gn2
 BYTE   W06
 BYTE   Fs2
 BYTE   W07
// 090   ----------------------------------------
 BYTE   Fs2
 BYTE   W06
 BYTE   Fn2
 BYTE   W07
 BYTE   En2
 BYTE   W06
 BYTE   En2
 BYTE   W06
 BYTE   Ds2
 BYTE   W07
 BYTE   Ds2
 BYTE   W03
 BYTE   N12  Ds3
 BYTE   W03
 BYTE   VOL   25*FE04Part1MapMedleySurfingKyogre_mvl/mxv
 BYTE   W07
 BYTE   Cs2
 BYTE   W02
 BYTE   N12  Gs3
 BYTE   W04
 BYTE   VOL   24*FE04Part1MapMedleySurfingKyogre_mvl/mxv
 BYTE   W06
 BYTE   Cn2
 BYTE   W02
 BYTE   N72  Bn3
 BYTE   W05
 BYTE   VOL   22*FE04Part1MapMedleySurfingKyogre_mvl/mxv
 BYTE   W06
 BYTE   Bn1
 BYTE   W07
 BYTE   As1
 BYTE   W06
 BYTE   An1
 BYTE   W06
 BYTE   An1
 BYTE   W07
// 091   ----------------------------------------
 BYTE   Gs1
 BYTE   W06
 BYTE   Gs1
 BYTE   W07
 BYTE   Gn1
 BYTE   W06
 BYTE   Fs1
 BYTE   W06
 BYTE   Fs1
 BYTE   W07
 BYTE   Fn1
 BYTE   W03
 BYTE   N12  Cs3
 BYTE   W03
 BYTE   VOL   15*FE04Part1MapMedleySurfingKyogre_mvl/mxv
 BYTE   W07
 BYTE   En1
 BYTE   W02
 BYTE   N12  Fs3
 BYTE   W04
 BYTE   VOL   14*FE04Part1MapMedleySurfingKyogre_mvl/mxv
 BYTE   W06
 BYTE   Ds1
 BYTE   W02
 BYTE   N72  An3
 BYTE   W05
 BYTE   VOL   13*FE04Part1MapMedleySurfingKyogre_mvl/mxv
 BYTE   W06
 BYTE   Cs1
 BYTE   W07
 BYTE   Cs1
 BYTE   W06
 BYTE   Cn1
 BYTE   W06
 BYTE   Bn0
 BYTE   W07
// 092   ----------------------------------------
 BYTE   Bn0
 BYTE   W06
 BYTE   As0
 BYTE   W07
 BYTE   As0
 BYTE   W06
 BYTE   An0
 BYTE   W06
 BYTE   Gs0
 BYTE   W07
 BYTE   Gs0
 BYTE   W03
 BYTE   N12  Ds3
 BYTE   W03
 BYTE   VOL   6*FE04Part1MapMedleySurfingKyogre_mvl/mxv
 BYTE   W07
 BYTE   Fs0
 BYTE   W02
 BYTE   N12  Fs3
 BYTE   W04
 BYTE   VOL   5*FE04Part1MapMedleySurfingKyogre_mvl/mxv
 BYTE   W06
 BYTE   Fn0
 BYTE   W02
 BYTE   N72  Bn3
 BYTE   W05
 BYTE   VOL   3*FE04Part1MapMedleySurfingKyogre_mvl/mxv
 BYTE   W06
 BYTE   En0
 BYTE   W07
 BYTE   Ds0
 BYTE   W06
 BYTE   Ds0
 BYTE   W06
 BYTE   Dn0
 BYTE   W07
// 093   ----------------------------------------
 BYTE   Cs0
 BYTE   W06
 BYTE   Cs0
 BYTE   W07
 BYTE   Cn0
 BYTE   W06
 BYTE   BnM1
 BYTE   W06
 BYTE   BnM1
 BYTE   W07
 BYTE   AsM1
 BYTE   W03
 BYTE   N12  Cs3
 BYTE   W03
 BYTE   VOL   0*FE04Part1MapMedleySurfingKyogre_mvl/mxv
 BYTE   W07
 BYTE   AnM1
 BYTE   W02
 BYTE   N12  Gs3
 BYTE   W04
 BYTE   VOL   0*FE04Part1MapMedleySurfingKyogre_mvl/mxv
 BYTE   W06
 BYTE   GsM1
 BYTE   W02
 BYTE   N72  An3
 BYTE   W05
 BYTE   VOL   0*FE04Part1MapMedleySurfingKyogre_mvl/mxv
 BYTE   W06
 BYTE   FsM1
 BYTE   W07
 BYTE   FsM1
 BYTE   W06
 BYTE   FnM1
 BYTE   W06
 BYTE   FnM1
 BYTE   W07
// 094   ----------------------------------------
 BYTE   EnM1
 BYTE   W06
 BYTE   DsM1
 BYTE   W07
 BYTE   DsM1
 BYTE   W06
 BYTE   DnM1
 BYTE   W06
 BYTE   CsM1
 BYTE   W07
 BYTE   CsM1
 BYTE   W03
 BYTE   N12  Ds3
 BYTE   W03
 BYTE   VOL   0*FE04Part1MapMedleySurfingKyogre_mvl/mxv
 BYTE   W07
 BYTE   BnM2
 BYTE   W02
 BYTE   N12  Fs3
 BYTE   W04
 BYTE   VOL   0*FE04Part1MapMedleySurfingKyogre_mvl/mxv
 BYTE   W06
 BYTE   AsM2
 BYTE   W02
 BYTE   N72  Bn3
 BYTE   W05
 BYTE   VOL   0*FE04Part1MapMedleySurfingKyogre_mvl/mxv
 BYTE   W06
 BYTE   AnM2
 BYTE   W07
 BYTE   GsM2
 BYTE   W06
 BYTE   GsM2
 BYTE   W06
 BYTE   GnM2
 BYTE   W07
// 095   ----------------------------------------
 BYTE   FsM2
 BYTE   W06
 BYTE   FsM2
 BYTE   W07
 BYTE   FnM2
 BYTE   W06
 BYTE   FnM2
 BYTE   W06
 BYTE   EnM2
 BYTE   W07
 BYTE   DsM2
 BYTE   W03
 BYTE   N12  Cs3
 BYTE   W03
 BYTE   VOL   0*FE04Part1MapMedleySurfingKyogre_mvl/mxv
 BYTE   W07
 BYTE   DnM2
 BYTE   W02
 BYTE   N12  Gs3
 BYTE   W04
 BYTE   VOL   0*FE04Part1MapMedleySurfingKyogre_mvl/mxv
 BYTE   W06
 BYTE   CsM2
 BYTE   W02
 BYTE   N17  An3
 BYTE   W05
 BYTE   VOL   0*FE04Part1MapMedleySurfingKyogre_mvl/mxv
 BYTE   W06
 BYTE   CnM2
 BYTE   W07
 BYTE   CnM2
 BYTE   FINE

//**************** Track 3 (Midi-Chn.2) ****************//

FE04Part1MapMedleySurfingKyogre_003:
// 000   ----------------------------------------
 BYTE   KEYSH   FE04Part1MapMedleySurfingKyogre_key+0
 BYTE   PAN   c_v+0
 BYTE   VOL   15*FE04Part1MapMedleySurfingKyogre_mvl/mxv
 BYTE   MOD 0
 BYTE   CnM2
 BYTE   BEND   c_v+0
 BYTE   W12
 BYTE   VOICE   1
 BYTE   PAN   c_v+56
 BYTE   VOL   35*FE04Part1MapMedleySurfingKyogre_mvl/mxv
 BYTE   BEND   c_v-1
 BYTE   W12
 BYTE   N12  Cs3  v096
 BYTE   W12
 BYTE   Gs3
 BYTE   W12
 BYTE   N72  An3
 BYTE   W48
// 001   ----------------------------------------
 BYTE   W24
 BYTE   N12  Ds3
 BYTE   W12
 BYTE   Fs3
 BYTE   W12
 BYTE   N72  Bn3
 BYTE   W30
Label_2_016F24EA:
 BYTE   W18
// 002   ----------------------------------------
Label_2_016F24EB:
 BYTE   W24
 BYTE   N12  Cs3  v096
 BYTE   W12
 BYTE   Gs3
 BYTE   W12
 BYTE   N72  An3
 BYTE   W48
 BYTE   PEND 
// 003   ----------------------------------------
 BYTE   W24
 BYTE   N12  Ds3
 BYTE   W12
 BYTE   Gs3
 BYTE   W12
 BYTE   N72  Bn3
 BYTE   W48
// 004   ----------------------------------------
 BYTE   W24
 BYTE   N12  Cs3
 BYTE   W12
 BYTE   Fs3
 BYTE   W12
 BYTE   N72  An3
 BYTE   W48
// 005   ----------------------------------------
Label_2_016F2508:
 BYTE   W24
 BYTE   N12  Ds3  v096
 BYTE   W12
 BYTE   Fs3
 BYTE   W12
 BYTE   N72  Bn3
 BYTE   W48
 BYTE   PEND 
 BYTE   PATT
  POIN2 Label_2_016F24EB
 BYTE   PATT
  POIN2 Label_2_016F2508
 BYTE   PATT
  POIN2 Label_2_016F24EB
 BYTE   PATT
  POIN2 Label_2_016F2508
// 006   ----------------------------------------
 BYTE   W24
 BYTE   N12  Ds3  v096
 BYTE   W12
 BYTE   As3
 BYTE   W12
 BYTE   N72  Bn3
 BYTE   W48
// 007   ----------------------------------------
 BYTE   W24
 BYTE   N12  Gs3
 BYTE   W12
 BYTE   Ds4
 BYTE   W12
 BYTE   N72  En4
 BYTE   W48
// 008   ----------------------------------------
 BYTE   W24
 BYTE   N12  Cs4
 BYTE   W12
 BYTE   Gs4
 BYTE   W12
 BYTE   N72  An4
 BYTE   W48
// 009   ----------------------------------------
 BYTE   W96
// 010   ----------------------------------------
 BYTE   W24
 BYTE   N12  An3
 BYTE   W12
 BYTE   Cs4
 BYTE   W12
 BYTE   N72  Fs4
 BYTE   W48
// 011   ----------------------------------------
 BYTE   W24
 BYTE   N12  Gs3
 BYTE   W12
 BYTE   Cs4
 BYTE   W12
 BYTE   N72  Fn4
 BYTE   W48
// 012   ----------------------------------------
 BYTE   W24
 BYTE   N12  Cs4
 BYTE   W12
 BYTE   N36  Gs4
 BYTE   W36
 BYTE   N48  An4
 BYTE   W24
// 013   ----------------------------------------
 BYTE   W24
 BYTE   N12  Cs4
 BYTE   W12
 BYTE   N36  Gs4
 BYTE   W36
 BYTE   An4
 BYTE   W24
// 014   ----------------------------------------
Label_2_016F2569:
 BYTE   W24
 BYTE   N12  Cs3  v096
 BYTE   W12
 BYTE   Gs3
 BYTE   W12
 BYTE   N24  As3
 BYTE   W24
 BYTE   N12  Gs3
 BYTE   W12
 BYTE   Fs3
 BYTE   W12
 BYTE   PEND 
// 015   ----------------------------------------
Label_2_016F2579:
 BYTE   N12  Cs3  v096
 BYTE   W24
 BYTE   N12
 BYTE   W12
 BYTE   Gs3
 BYTE   W12
 BYTE   N24  As3
 BYTE   W24
 BYTE   N12  Gs3
 BYTE   W12
 BYTE   Fs3
 BYTE   W12
 BYTE   PEND 
// 016   ----------------------------------------
 BYTE   Cs3
 BYTE   W24
 BYTE   Ds3
 BYTE   W12
 BYTE   Gs3
 BYTE   W12
 BYTE   N24  Bn3
 BYTE   W24
 BYTE   N12
 BYTE   W12
 BYTE   Gs3
 BYTE   W12
// 017   ----------------------------------------
 BYTE   Ds3
 BYTE   W24
 BYTE   N12
 BYTE   W12
 BYTE   Gs3
 BYTE   W12
 BYTE   N24  Bn3
 BYTE   W24
 BYTE   N12
 BYTE   W12
 BYTE   Gs3
 BYTE   W12
// 018   ----------------------------------------
 BYTE   Ds3
 BYTE   W24
 BYTE   N12
 BYTE   W12
 BYTE   As3
 BYTE   W12
 BYTE   N24  Bn3
 BYTE   W24
 BYTE   N12  As3
 BYTE   W12
 BYTE   Gs3
 BYTE   W12
// 019   ----------------------------------------
 BYTE   Ds3
 BYTE   W24
 BYTE   N12
 BYTE   W12
 BYTE   As3
 BYTE   W12
 BYTE   N24  Bn3
 BYTE   W24
 BYTE   N36  As3
 BYTE   W24
 BYTE   PATT
  POIN2 Label_2_016F2569
 BYTE   PATT
  POIN2 Label_2_016F2579
 BYTE   PATT
  POIN2 Label_2_016F2579
 BYTE   PATT
  POIN2 Label_2_016F2579
// 020   ----------------------------------------
 BYTE   N12  Cs3  v096
 BYTE   W24
 BYTE   Ds3
 BYTE   W12
 BYTE   Gs3
 BYTE   W12
 BYTE   N24  Bn3
 BYTE   W24
 BYTE   N12  As3
 BYTE   W12
 BYTE   Gs3
 BYTE   W12
// 021   ----------------------------------------
 BYTE   Ds3
 BYTE   W24
 BYTE   N12
 BYTE   W12
 BYTE   Gs3
 BYTE   W12
 BYTE   As3
 BYTE   W12
 BYTE   Bn3
 BYTE   W12
 BYTE   As3
 BYTE   W12
 BYTE   Gs3
 BYTE   W12
// 022   ----------------------------------------
 BYTE   Ds3
 BYTE   W24
 BYTE   Dn3
 BYTE   W12
 BYTE   Gn3
 BYTE   W12
 BYTE   N24  Bn3
 BYTE   W24
 BYTE   N12
 BYTE   W12
 BYTE   An3
 BYTE   W12
// 023   ----------------------------------------
 BYTE   Dn3
 BYTE   W24
 BYTE   N12
 BYTE   W12
 BYTE   Gn3
 BYTE   W12
 BYTE   N24  Bn3
 BYTE   W24
 BYTE   N12
 BYTE   W12
 BYTE   An3
 BYTE   W12
// 024   ----------------------------------------
 BYTE   Dn3
 BYTE   W24
 BYTE   Cs3
 BYTE   W12
 BYTE   Gs3
 BYTE   W12
 BYTE   N24  As3
 BYTE   W24
 BYTE   N12  Gs3
 BYTE   W12
 BYTE   Fs3
 BYTE   W12
// 025   ----------------------------------------
 BYTE   Cs3
 BYTE   W24
 BYTE   N12
 BYTE   W12
 BYTE   Gs3
 BYTE   W12
 BYTE   N24  As3
 BYTE   W24
 BYTE   N12  Gs3
 BYTE   W12
 BYTE   N24  Fs3
 BYTE   W12
// 026   ----------------------------------------
Label_2_016F2627:
 BYTE   W12
 BYTE   N12  Dn3  v096
 BYTE   W12
 BYTE   An3
 BYTE   W12
 BYTE   N24  Dn4
 BYTE   W24
 BYTE   N12  Cs3
 BYTE   W12
 BYTE   Gs3
 BYTE   W12
 BYTE   N36  Cs4
 BYTE   W12
 BYTE   PEND 
// 027   ----------------------------------------
 BYTE   W24
 BYTE   N12  Cs3
 BYTE   W12
 BYTE   Fs3
 BYTE   W12
 BYTE   N24  As3
 BYTE   W24
 BYTE   N12  Gs3
 BYTE   W12
 BYTE   N24  Fs3
 BYTE   W12
 BYTE   PATT
  POIN2 Label_2_016F2627
// 028   ----------------------------------------
 BYTE   W24
 BYTE   N12  Cs3  v096
 BYTE   W12
 BYTE   Fs3
 BYTE   W12
 BYTE   N36  As3
 BYTE   W36
 BYTE   N12  Gs3
 BYTE   W12
// 029   ----------------------------------------
 BYTE   Fs3
 BYTE   W24
 BYTE   N12
 BYTE   W12
 BYTE   As3
 BYTE   W12
 BYTE   N60  Bn3
 BYTE   W48
// 030   ----------------------------------------
 BYTE   W24
 BYTE   N12  Fn3
 BYTE   W12
 BYTE   Gs3
 BYTE   W12
 BYTE   N60  Bn3
 BYTE   W48
// 031   ----------------------------------------
 BYTE   W24
 BYTE   N12  Fn3
 BYTE   W12
 BYTE   Gs3
 BYTE   W12
 BYTE   N48  As3
 BYTE   W48
// 032   ----------------------------------------
 BYTE   N24  Gs3
 BYTE   W24
 BYTE   N12  Fs3
 BYTE   W12
 BYTE   As3
 BYTE   W12
 BYTE   N60  Bn3
 BYTE   W48
// 033   ----------------------------------------
 BYTE   W24
 BYTE   N12  Ds3
 BYTE   W12
 BYTE   As3
 BYTE   W12
 BYTE   N60  Bn3
 BYTE   W48
// 034   ----------------------------------------
 BYTE   W24
 BYTE   N12  Gs3
 BYTE   W12
 BYTE   Ds4
 BYTE   W12
 BYTE   N36  Fn4
 BYTE   W36
 BYTE   N24  Ds4
 BYTE   W12
 BYTE   PATT
  POIN2 Label_2_016F2569
 BYTE   PATT
  POIN2 Label_2_016F2579
// 035   ----------------------------------------
 BYTE   N12  Cs3  v096
 BYTE   W24
 BYTE   Ds3
 BYTE   W12
 BYTE   As3
 BYTE   W12
 BYTE   N60  Bn3
 BYTE   W48
// 036   ----------------------------------------
 BYTE   W24
 BYTE   N12  Gs3
 BYTE   W12
 BYTE   Ds4
 BYTE   W12
 BYTE   N60  Fn4
 BYTE   W48
// 037   ----------------------------------------
 BYTE   W24
 BYTE   N12  Fn3
 BYTE   W12
 BYTE   Gs3
 BYTE   W12
 BYTE   N60  As3
 BYTE   W48
// 038   ----------------------------------------
 BYTE   W24
 BYTE   N12
 BYTE   W12
 BYTE   Cs4
 BYTE   W12
 BYTE   N36  Ds4
 BYTE   W36
 BYTE   N12  As3
 BYTE   W12
// 039   ----------------------------------------
 BYTE   Fs3
 BYTE   W24
 BYTE   N12
 BYTE   W12
 BYTE   Cs4
 BYTE   W12
 BYTE   N60  Ds4
 BYTE   W48
// 040   ----------------------------------------
 BYTE   W24
 BYTE   N12  Gs3
 BYTE   W12
 BYTE   Cs4
 BYTE   W12
 BYTE   N36  Ds4
 BYTE   W36
 BYTE   N24  Gs3
 BYTE   W12
// 041   ----------------------------------------
 BYTE   W12
 BYTE   N12  Fs3
 BYTE   W12
 BYTE   An3
 BYTE   W12
 BYTE   Cs4
 BYTE   W12
 BYTE   An3
 BYTE   W12
 BYTE   Fs3
 BYTE   W12
 BYTE   An3
 BYTE   W12
 BYTE   Cs4
 BYTE   W12
// 042   ----------------------------------------
 BYTE   An3
 BYTE   W12
 BYTE   Fs3
 BYTE   W12
 BYTE   Bn3
 BYTE   W12
 BYTE   Ds4
 BYTE   W12
 BYTE   Bn3
 BYTE   W12
 BYTE   Fs3
 BYTE   W12
 BYTE   An3
 BYTE   W12
 BYTE   N24  Cs4
 BYTE   W12
// 043   ----------------------------------------
Label_2_016F26FE:
 BYTE   W24
 BYTE   N12  Fs3  v096
 BYTE   W12
 BYTE   An3
 BYTE   W12
 BYTE   Fs3
 BYTE   W24
 BYTE   En3
 BYTE   W12
 BYTE   Gs3
 BYTE   W12
 BYTE   PEND 
// 044   ----------------------------------------
Label_2_016F270C:
 BYTE   N12  En3  v096
 BYTE   W24
 BYTE   Dn3
 BYTE   W12
 BYTE   Fs3
 BYTE   W12
 BYTE   Dn3
 BYTE   W12
 BYTE   Cs3
 BYTE   W12
 BYTE   Fn3
 BYTE   W12
 BYTE   N24  Gs3
 BYTE   W12
 BYTE   PEND 
// 045   ----------------------------------------
 BYTE   W12
 BYTE   N12  Fs3
 BYTE   W12
 BYTE   An3
 BYTE   W12
 BYTE   Cs4
 BYTE   W12
 BYTE   An3
 BYTE   W12
 BYTE   Fs3
 BYTE   W12
 BYTE   Bn3
 BYTE   W12
 BYTE   Ds4
 BYTE   W12
// 046   ----------------------------------------
 BYTE   Bn3
 BYTE   W12
 BYTE   Fs3
 BYTE   W12
 BYTE   An3
 BYTE   W12
 BYTE   Cs4
 BYTE   W12
 BYTE   An3
 BYTE   W12
 BYTE   Fs3
 BYTE   W12
 BYTE   An3
 BYTE   W12
 BYTE   N24  Cs4
 BYTE   W12
 BYTE   PATT
  POIN2 Label_2_016F26FE
 BYTE   PATT
  POIN2 Label_2_016F270C
// 047   ----------------------------------------
 BYTE   W12
 BYTE   N24  Fs3  v096
 BYTE   W24
 BYTE   N72
 BYTE   W60
// 048   ----------------------------------------
Label_2_016F2750:
 BYTE   W12
 BYTE   N24  Gn3  v096
 BYTE   W24
 BYTE   N72
 BYTE   W60
 BYTE   PEND 
 BYTE   PATT
  POIN2 Label_2_016F2750
// 049   ----------------------------------------
 BYTE   W12
 BYTE   N24  An3  v096
 BYTE   W24
 BYTE   N72
 BYTE   W60
// 050   ----------------------------------------
 BYTE   W12
 BYTE   N12  En3
 BYTE   W12
 BYTE   Gn3
 BYTE   W12
 BYTE   N24  Bn3
 BYTE   W24
 BYTE   N36  Dn4
 BYTE   W36
// 051   ----------------------------------------
 BYTE   N12  An3
 BYTE   W12
 BYTE   N24  Cs4
 BYTE   W24
 BYTE   N36  En4
 BYTE   W36
 BYTE   N12  Gn3
 BYTE   W12
 BYTE   N24  Bn3
 BYTE   W12
// 052   ----------------------------------------
 BYTE   W12
 BYTE   N48  Dn4
 BYTE   W84
// 053   ----------------------------------------
 BYTE   W24
 BYTE   N12  Gn2
 BYTE   W12
 BYTE   Bn2
 BYTE   W12
 BYTE   Gn3
 BYTE   W12
 BYTE   Bn3
 BYTE   W12
 BYTE   Dn4
 BYTE   W24
// 054   ----------------------------------------
 BYTE   Cs3
 BYTE   W12
 BYTE   En3
 BYTE   W12
 BYTE   An3
 BYTE   W12
 BYTE   Cs4
 BYTE   W12
 BYTE   En4
 BYTE   W24
 BYTE   En3
 BYTE   W12
 BYTE   Gn3
 BYTE   W12
// 055   ----------------------------------------
 BYTE   Cn4
 BYTE   W12
 BYTE   En4
 BYTE   W12
 BYTE   Gn4
 BYTE   W24
 BYTE   Fs3
 BYTE   W12
 BYTE   An3
 BYTE   W12
 BYTE   Dn4
 BYTE   W12
 BYTE   Fs4
 BYTE   W12
// 056   ----------------------------------------
 BYTE   An4
 BYTE   W24
 BYTE   Gn3
 BYTE   W12
 BYTE   N24  Bn3
 BYTE   W24
 BYTE   Dn4
 BYTE   W36
// 057   ----------------------------------------
 BYTE   N12  An3
 BYTE   W12
 BYTE   N24  Cs4
 BYTE   W24
 BYTE   En4
 BYTE   W36
 BYTE   N12  Gn3
 BYTE   W12
 BYTE   N24  Bn3
 BYTE   W12
// 058   ----------------------------------------
 BYTE   W12
 BYTE   Dn4
 BYTE   W36
 BYTE   N12  Gn3
 BYTE   W24
 BYTE   N12
 BYTE   W24
// 059   ----------------------------------------
 BYTE   N12
 BYTE   W24
 BYTE   Fs3
 BYTE   W12
 BYTE   Cs4
 BYTE   W12
 BYTE   N36  Dn4
 BYTE   W48
// 060   ----------------------------------------
 BYTE   N12  Gn3
 BYTE   W12
 BYTE   Dn4
 BYTE   W12
 BYTE   N36  En4
 BYTE   W48
 BYTE   N12  En3
 BYTE   W12
 BYTE   Bn3
 BYTE   W12
// 061   ----------------------------------------
 BYTE   N36  Cn4
 BYTE   W48
 BYTE   N12  Fs3
 BYTE   W12
 BYTE   Gn3
 BYTE   W12
 BYTE   N36  Dn4
 BYTE   W24
// 062   ----------------------------------------
 BYTE   W24
 BYTE   N12  Dn3
 BYTE   W12
 BYTE   Gn3
 BYTE   W12
 BYTE   N48  Bn3
 BYTE   W48
// 063   ----------------------------------------
Label_2_016F27F4:
 BYTE   N12  En3  v096
 BYTE   W12
 BYTE   An3
 BYTE   W12
 BYTE   N24  Cs4
 BYTE   W24
 BYTE   N12  An3
 BYTE   W24
 BYTE   Dn3
 BYTE   W12
 BYTE   Gn3
 BYTE   W12
 BYTE   PEND 
// 064   ----------------------------------------
Label_2_016F2805:
 BYTE   N48  Bn3  v096
 BYTE   W48
 BYTE   N12  En3
 BYTE   W12
 BYTE   An3
 BYTE   W12
 BYTE   N24  Cs4
 BYTE   W24
 BYTE   PEND 
// 065   ----------------------------------------
 BYTE   N12  An3
 BYTE   W24
 BYTE   Dn3
 BYTE   W12
 BYTE   Gn3
 BYTE   W12
 BYTE   N48  Bn3
 BYTE   W48
 BYTE   PATT
  POIN2 Label_2_016F27F4
 BYTE   PATT
  POIN2 Label_2_016F2805
// 066   ----------------------------------------
 BYTE   N24  An3  v096
 BYTE   W24
 BYTE   N12  Cs3
 BYTE   W12
 BYTE   Gs3
 BYTE   W12
 BYTE   N36  An3
 BYTE   W48
// 067   ----------------------------------------
 BYTE   N12  Dn3
 BYTE   W12
 BYTE   An3
 BYTE   W12
 BYTE   N36  Bn3
 BYTE   W48
 BYTE   N12  Bn2
 BYTE   W12
 BYTE   Gn3
 BYTE   W12
// 068   ----------------------------------------
 BYTE   N36  Bn3
 BYTE   W48
 BYTE   N12  Cs3
 BYTE   W12
 BYTE   Gs3
 BYTE   W12
 BYTE   N36  An3
 BYTE   W24
// 069   ----------------------------------------
 BYTE   W24
 BYTE   N12  Cs3
 BYTE   W12
 BYTE   Gs3
 BYTE   W12
 BYTE   An3
 BYTE   W12
 BYTE   Cs4
 BYTE   W12
 BYTE   En4
 BYTE   W12
 BYTE   Dn4
 BYTE   W12
// 070   ----------------------------------------
 BYTE   Cs4
 BYTE   W12
 BYTE   PAN   c_v+26
 BYTE   VOL   45*FE04Part1MapMedleySurfingKyogre_mvl/mxv
 BYTE   BEND   c_v-1
 BYTE   W24
 BYTE   N12  Bn3
 BYTE   W12
 BYTE   Cs4
 BYTE   W12
 BYTE   Dn4
 BYTE   W12
 BYTE   Fs4
 BYTE   W12
 BYTE   Bn4
 BYTE   W12
// 071   ----------------------------------------
Label_2_016F286C:
 BYTE   N12  Cs5  v096
 BYTE   W36
 BYTE   Bn3
 BYTE   W12
 BYTE   Cs4
 BYTE   W12
 BYTE   Dn4
 BYTE   W12
 BYTE   Fs4
 BYTE   W12
 BYTE   Bn4
 BYTE   W12
 BYTE   PEND 
 BYTE   PATT
  POIN2 Label_2_016F286C
 BYTE   PATT
  POIN2 Label_2_016F286C
// 072   ----------------------------------------
 BYTE   N12  Cs5  v096
 BYTE   W12
 BYTE   PAN   c_v+56
 BYTE   VOL   35*FE04Part1MapMedleySurfingKyogre_mvl/mxv
 BYTE   BEND   c_v-1
 BYTE   W12
 BYTE   N12  Fs3
 BYTE   W12
 BYTE   Cs4
 BYTE   W12
 BYTE   N24  Dn4
 BYTE   W24
 BYTE   N12  Cs4
 BYTE   W12
 BYTE   Bn3
 BYTE   W12
// 073   ----------------------------------------
 BYTE   Fs3
 BYTE   W24
 BYTE   N12
 BYTE   W12
 BYTE   Cs4
 BYTE   W12
 BYTE   N24  Dn4
 BYTE   W24
 BYTE   N12  Cs4
 BYTE   W12
 BYTE   Bn3
 BYTE   W12
// 074   ----------------------------------------
 BYTE   Fs3
 BYTE   W24
 BYTE   N24  En3
 BYTE   W24
 BYTE   Dn4
 BYTE   W24
 BYTE   N12  Cs4
 BYTE   W12
 BYTE   Bn3
 BYTE   W12
// 075   ----------------------------------------
 BYTE   Fs3
 BYTE   W24
 BYTE   En3
 BYTE   W12
 BYTE   Bn3
 BYTE   W12
 BYTE   N24  Dn4
 BYTE   W24
 BYTE   N12  Cs4
 BYTE   W12
 BYTE   Bn3
 BYTE   W12
// 076   ----------------------------------------
 BYTE   Fs3
 BYTE   W24
 BYTE   Dn3
 BYTE   W12
 BYTE   Bn3
 BYTE   W12
 BYTE   N24  Dn4
 BYTE   W24
 BYTE   N12  Cs4
 BYTE   W12
 BYTE   Bn3
 BYTE   W12
// 077   ----------------------------------------
 BYTE   Fs3
 BYTE   W24
 BYTE   Dn3
 BYTE   W12
 BYTE   Cs4
 BYTE   W12
 BYTE   N24  Dn4
 BYTE   W24
 BYTE   N12  Cs4
 BYTE   W12
 BYTE   Bn3
 BYTE   W12
// 078   ----------------------------------------
 BYTE   Fs3
 BYTE   W24
 BYTE   Cs3
 BYTE   W12
 BYTE   Fs3
 BYTE   W12
 BYTE   Gs3
 BYTE   W12
 BYTE   An3
 BYTE   W12
 BYTE   Cs4
 BYTE   W12
 BYTE   Fs4
 BYTE   W12
// 079   ----------------------------------------
 BYTE   Cs4
 BYTE   W12
 BYTE   An3
 BYTE   W12
 BYTE   Gs3
 BYTE   W12
 BYTE   Fs3
 BYTE   W12
 BYTE   Cs3
 BYTE   W12
 BYTE   An2
 BYTE   W12
 BYTE   Fs2
 BYTE   W12
 BYTE   An2
 BYTE   W12
// 080   ----------------------------------------
 BYTE   Cs3
 BYTE   W24
 BYTE   Dn3
 BYTE   W12
 BYTE   Gn3
 BYTE   W12
 BYTE   An3
 BYTE   W12
 BYTE   Bn3
 BYTE   W12
 BYTE   Dn4
 BYTE   W12
 BYTE   Gn4
 BYTE   W12
// 081   ----------------------------------------
 BYTE   Dn4
 BYTE   W24
 BYTE   Dn3
 BYTE   W12
 BYTE   Gn3
 BYTE   W12
 BYTE   An3
 BYTE   W12
 BYTE   Bn3
 BYTE   W12
 BYTE   Dn4
 BYTE   W12
 BYTE   Gn4
 BYTE   W12
// 082   ----------------------------------------
 BYTE   Bn4
 BYTE   W24
 BYTE   Fs3
 BYTE   W12
 BYTE   N24  An3
 BYTE   W36
 BYTE   N12  Fs3
 BYTE   W12
 BYTE   N24  An3
 BYTE   W12
// 083   ----------------------------------------
 BYTE   W24
 BYTE   N12  Dn3
 BYTE   W12
 BYTE   N24  Fs3
 BYTE   W36
 BYTE   N12  Dn3
 BYTE   W12
 BYTE   N24  Fs3
 BYTE   W12
// 084   ----------------------------------------
 BYTE   W24
 BYTE   N12  Dn3
 BYTE   W12
 BYTE   Gn3
 BYTE   W12
 BYTE   An3
 BYTE   W12
 BYTE   Bn3
 BYTE   W12
 BYTE   Dn4
 BYTE   W12
 BYTE   Gn4
 BYTE   W12
// 085   ----------------------------------------
 BYTE   Dn4
 BYTE   W24
 BYTE   En3
 BYTE   W12
 BYTE   Gn3
 BYTE   W12
 BYTE   An3
 BYTE   W12
 BYTE   Cs4
 BYTE   W12
 BYTE   En4
 BYTE   W12
 BYTE   Gn4
 BYTE   W12
// 086   ----------------------------------------
Label_2_016F2951:
 BYTE   N12  An4  v096
 BYTE   W24
 BYTE   En3
 BYTE   W12
 BYTE   Gn3
 BYTE   W12
 BYTE   An3
 BYTE   W12
 BYTE   Cs4
 BYTE   W12
 BYTE   En4
 BYTE   W12
 BYTE   Gn4
 BYTE   W12
 BYTE   PEND 
 BYTE   PATT
  POIN2 Label_2_016F2951
// 087   ----------------------------------------
 BYTE   N12  Cs4  v096
 BYTE   W24
 BYTE   Dn3
 BYTE   W12
 BYTE   Gn3
 BYTE   W12
 BYTE   An3
 BYTE   W12
 BYTE   N48  Bn3
 BYTE   W36
// 088   ----------------------------------------
Label_2_016F2974:
 BYTE   W24
 BYTE   N12  Dn3  v096
 BYTE   W12
 BYTE   Gn3
 BYTE   W12
 BYTE   Bn3
 BYTE   W12
 BYTE   N48  Cs4
 BYTE   W36
 BYTE   PEND 
// 089   ----------------------------------------
Label_2_016F2981:
 BYTE   W24
 BYTE   N12  Dn3  v096
 BYTE   W12
 BYTE   Gn3
 BYTE   W12
 BYTE   An3
 BYTE   W12
 BYTE   N48  Bn3
 BYTE   W36
 BYTE   PEND 
 BYTE   PATT
  POIN2 Label_2_016F2981
 BYTE   PATT
  POIN2 Label_2_016F2981
 BYTE   PATT
  POIN2 Label_2_016F2974
// 090   ----------------------------------------
 BYTE   W24
 BYTE   N12  An3  v096
 BYTE   W12
 BYTE   N24  Dn4
 BYTE   W36
 BYTE   N12  An3
 BYTE   W12
 BYTE   N24  Dn4
 BYTE   W12
// 091   ----------------------------------------
 BYTE   W24
 BYTE   N12  An3
 BYTE   W12
 BYTE   N24  Cs4
 BYTE   W36
 BYTE   N12  An3
 BYTE   W12
 BYTE   N24  Cs4
 BYTE   W12
// 092   ----------------------------------------
 BYTE   W24
 BYTE   N12  Fs3
 BYTE   W12
 BYTE   An3
 BYTE   W12
 BYTE   N36  Dn4
 BYTE   W36
 BYTE   N24
 BYTE   W12
// 093   ----------------------------------------
 BYTE   W24
 BYTE   N12  Bn3
 BYTE   W12
 BYTE   En4
 BYTE   W12
 BYTE   N36  Bn4
 BYTE   W36
 BYTE   N12  Fs4
 BYTE   W12
// 094   ----------------------------------------
 BYTE   En4
 BYTE   W24
 BYTE   Bn3
 BYTE   W12
 BYTE   Cs4
 BYTE   W12
 BYTE   N24  Fn4
 BYTE   W24
 BYTE   N12  Fs4
 BYTE   W12
 BYTE   N24  Fn4
 BYTE   W12
// 095   ----------------------------------------
 BYTE   W24
 BYTE   N12  Cs4
 BYTE   W12
 BYTE   En4
 BYTE   W12
 BYTE   TIE  Cs5
 BYTE   W48
// 096   ----------------------------------------
 BYTE   W96
// 097   ----------------------------------------
 BYTE   W12
 BYTE   EOT
 BYTE   VOICE   1
 BYTE   PAN   c_v+56
 BYTE   VOL   35*FE04Part1MapMedleySurfingKyogre_mvl/mxv
 BYTE   W01
 BYTE   Cn3
 BYTE   W06
 BYTE   Bn2
 BYTE   W05
 BYTE   N12  Cs3
 BYTE   W01
 BYTE   VOL   34*FE04Part1MapMedleySurfingKyogre_mvl/mxv
 BYTE   W07
 BYTE   As2
 BYTE   W04
 BYTE   N12  Gs3
 BYTE   W02
 BYTE   VOL   33*FE04Part1MapMedleySurfingKyogre_mvl/mxv
 BYTE   W06
 BYTE   An2
 BYTE   W04
 BYTE   N72  An3
 BYTE   W03
 BYTE   VOL   32*FE04Part1MapMedleySurfingKyogre_mvl/mxv
 BYTE   W06
 BYTE   Gs2
 BYTE   W07
 BYTE   Gs2
 BYTE   W06
 BYTE   Gs2
 BYTE   W06
 BYTE   Gn2
 BYTE   W07
 BYTE   Fs2
 BYTE   W06
 BYTE   Fs2
 BYTE   W07
// 098   ----------------------------------------
 BYTE   Fs2
 BYTE   W06
 BYTE   Fn2
 BYTE   W06
 BYTE   En2
 BYTE   W07
 BYTE   En2
 BYTE   W05
 BYTE   N12  Ds3
 BYTE   W01
 BYTE   VOL   27*FE04Part1MapMedleySurfingKyogre_mvl/mxv
 BYTE   W07
 BYTE   Ds2
 BYTE   W04
 BYTE   N12  Fs3
 BYTE   W02
 BYTE   VOL   26*FE04Part1MapMedleySurfingKyogre_mvl/mxv
 BYTE   W06
 BYTE   Ds2
 BYTE   W04
 BYTE   N72  Bn3
 BYTE   W03
 BYTE   VOL   25*FE04Part1MapMedleySurfingKyogre_mvl/mxv
 BYTE   W06
 BYTE   Cs2
 BYTE   W07
 BYTE   Cs2
 BYTE   W06
 BYTE   Cs2
 BYTE   W06
 BYTE   Cn2
 BYTE   W02
 BYTE   GoTo
  POIN2 Label_2_016F24EA
// 099   ----------------------------------------
 BYTE   W05
 BYTE   VOL   22*FE04Part1MapMedleySurfingKyogre_mvl/mxv
 BYTE   W06
 BYTE   Bn1
 BYTE   W07
 BYTE   Bn1
 BYTE   W06
 BYTE   As1
 BYTE   W06
 BYTE   An1
 BYTE   W07
 BYTE   An1
 BYTE   W05
 BYTE   N12  Cs3  v096
 BYTE   W01
 BYTE   VOL   20*FE04Part1MapMedleySurfingKyogre_mvl/mxv
 BYTE   W07
 BYTE   Gs1
 BYTE   W04
 BYTE   N12  Gs3
 BYTE   W02
 BYTE   VOL   19*FE04Part1MapMedleySurfingKyogre_mvl/mxv
 BYTE   W06
 BYTE   Gn1
 BYTE   W04
 BYTE   N72  An3
 BYTE   W03
 BYTE   VOL   18*FE04Part1MapMedleySurfingKyogre_mvl/mxv
 BYTE   W06
 BYTE   Fs1
 BYTE   W07
 BYTE   Fs1
 BYTE   W06
 BYTE   Fn1
 BYTE   W06
 BYTE   Fn1
 BYTE   W07
// 100   ----------------------------------------
 BYTE   En1
 BYTE   W06
 BYTE   En1
 BYTE   W07
 BYTE   Ds1
 BYTE   W06
 BYTE   Ds1
 BYTE   W06
 BYTE   Ds1
 BYTE   W07
 BYTE   Dn1
 BYTE   W05
 BYTE   N12  Ds3
 BYTE   W01
 BYTE   VOL   12*FE04Part1MapMedleySurfingKyogre_mvl/mxv
 BYTE   W07
 BYTE   Cs1
 BYTE   W04
 BYTE   N12  Gs3
 BYTE   W02
 BYTE   VOL   12*FE04Part1MapMedleySurfingKyogre_mvl/mxv
 BYTE   W06
 BYTE   Cn1
 BYTE   W04
 BYTE   N72  Bn3
 BYTE   W03
 BYTE   VOL   10*FE04Part1MapMedleySurfingKyogre_mvl/mxv
 BYTE   W06
 BYTE   Bn0
 BYTE   W07
 BYTE   Bn0
 BYTE   W06
 BYTE   As0
 BYTE   W06
 BYTE   As0
 BYTE   W07
// 101   ----------------------------------------
 BYTE   As0
 BYTE   W06
 BYTE   An0
 BYTE   W07
 BYTE   Gs0
 BYTE   W06
 BYTE   Gs0
 BYTE   W06
 BYTE   Gs0
 BYTE   W07
 BYTE   Gn0
 BYTE   W05
 BYTE   N12  Cs3
 BYTE   W01
 BYTE   VOL   5*FE04Part1MapMedleySurfingKyogre_mvl/mxv
 BYTE   W07
 BYTE   Fs0
 BYTE   W04
 BYTE   N12  Fs3
 BYTE   W02
 BYTE   VOL   5*FE04Part1MapMedleySurfingKyogre_mvl/mxv
 BYTE   W06
 BYTE   Fn0
 BYTE   W04
 BYTE   N72  An3
 BYTE   W03
 BYTE   VOL   3*FE04Part1MapMedleySurfingKyogre_mvl/mxv
 BYTE   W06
 BYTE   En0
 BYTE   W07
 BYTE   En0
 BYTE   W06
 BYTE   Ds0
 BYTE   W06
 BYTE   Ds0
 BYTE   W07
// 102   ----------------------------------------
 BYTE   Dn0
 BYTE   W06
 BYTE   Dn0
 BYTE   W07
 BYTE   Cs0
 BYTE   W06
 BYTE   Cs0
 BYTE   W06
 BYTE   Cn0
 BYTE   W07
 BYTE   Cn0
 BYTE   W05
 BYTE   N12  Ds3
 BYTE   W01
 BYTE   VOL   0*FE04Part1MapMedleySurfingKyogre_mvl/mxv
 BYTE   W07
 BYTE   BnM1
 BYTE   W04
 BYTE   N12  Fs3
 BYTE   W02
 BYTE   VOL   0*FE04Part1MapMedleySurfingKyogre_mvl/mxv
 BYTE   W06
 BYTE   AsM1
 BYTE   W04
 BYTE   N72  Bn3
 BYTE   W03
 BYTE   VOL   0*FE04Part1MapMedleySurfingKyogre_mvl/mxv
 BYTE   W06
 BYTE   AnM1
 BYTE   W07
 BYTE   GsM1
 BYTE   W06
 BYTE   GsM1
 BYTE   W06
 BYTE   GsM1
 BYTE   W07
// 103   ----------------------------------------
 BYTE   GnM1
 BYTE   W06
 BYTE   FsM1
 BYTE   W07
 BYTE   FsM1
 BYTE   W06
 BYTE   FsM1
 BYTE   W06
 BYTE   FnM1
 BYTE   W07
 BYTE   FnM1
 BYTE   W05
 BYTE   N12  Cs3
 BYTE   W01
 BYTE   VOL   0*FE04Part1MapMedleySurfingKyogre_mvl/mxv
 BYTE   W07
 BYTE   EnM1
 BYTE   W04
 BYTE   N12  Gs3
 BYTE   W02
 BYTE   VOL   0*FE04Part1MapMedleySurfingKyogre_mvl/mxv
 BYTE   W06
 BYTE   DsM1
 BYTE   W04
 BYTE   N72  An3
 BYTE   W03
 BYTE   VOL   0*FE04Part1MapMedleySurfingKyogre_mvl/mxv
 BYTE   W06
 BYTE   DnM1
 BYTE   W07
 BYTE   CsM1
 BYTE   W06
 BYTE   CsM1
 BYTE   W06
 BYTE   CsM1
 BYTE   W07
// 104   ----------------------------------------
 BYTE   CnM1
 BYTE   W06
 BYTE   BnM2
 BYTE   W07
 BYTE   BnM2
 BYTE   W06
 BYTE   BnM2
 BYTE   W06
 BYTE   AsM2
 BYTE   W07
 BYTE   AsM2
 BYTE   W05
 BYTE   N12  Ds3
 BYTE   W01
 BYTE   VOL   0*FE04Part1MapMedleySurfingKyogre_mvl/mxv
 BYTE   W07
 BYTE   AnM2
 BYTE   W04
 BYTE   N12  Fs3
 BYTE   W02
 BYTE   VOL   0*FE04Part1MapMedleySurfingKyogre_mvl/mxv
 BYTE   W06
 BYTE   GsM2
 BYTE   W04
 BYTE   N72  Bn3
 BYTE   W03
 BYTE   VOL   0*FE04Part1MapMedleySurfingKyogre_mvl/mxv
 BYTE   W06
 BYTE   GnM2
 BYTE   W07
 BYTE   FsM2
 BYTE   W06
 BYTE   FsM2
 BYTE   W06
 BYTE   FnM2
 BYTE   W07
// 105   ----------------------------------------
 BYTE   FnM2
 BYTE   W06
 BYTE   FnM2
 BYTE   W07
 BYTE   EnM2
 BYTE   W06
 BYTE   DsM2
 BYTE   W06
 BYTE   DsM2
 BYTE   W07
 BYTE   DsM2
 BYTE   W05
 BYTE   N12  Cs3
 BYTE   W01
 BYTE   VOL   0*FE04Part1MapMedleySurfingKyogre_mvl/mxv
 BYTE   W07
 BYTE   CsM2
 BYTE   W04
 BYTE   N12  Gs3
 BYTE   W02
 BYTE   VOL   0*FE04Part1MapMedleySurfingKyogre_mvl/mxv
 BYTE   W06
 BYTE   CsM2
 BYTE   W04
 BYTE   N15  An3
 BYTE   W03
 BYTE   VOL   0*FE04Part1MapMedleySurfingKyogre_mvl/mxv
 BYTE   W06
 BYTE   CnM2
 BYTE   W07
 BYTE   CnM2
 BYTE   FINE

//**************** Track 4 (Midi-Chn.3) ****************//

FE04Part1MapMedleySurfingKyogre_004:
// 000   ----------------------------------------
 BYTE   KEYSH   FE04Part1MapMedleySurfingKyogre_key+0
 BYTE   PAN   c_v+0
 BYTE   VOL   15*FE04Part1MapMedleySurfingKyogre_mvl/mxv
 BYTE   MOD 0
 BYTE   CnM2
 BYTE   BEND   c_v+0
 BYTE   W10
 BYTE   VOICE   100
 BYTE   PAN   c_v-44
 BYTE   VOL   10*FE04Part1MapMedleySurfingKyogre_mvl/mxv
 BYTE   W36
 BYTE   N60  Cs4  v127
 BYTE   W48
 BYTE   W02
// 001   ----------------------------------------
 BYTE   W44
 BYTE   W02
 BYTE   Ds4
 BYTE   W32
Label_3_016F07EF:
 BYTE   W18
// 002   ----------------------------------------
Label_3_016F07F0:
 BYTE   W44
 BYTE   W02
 BYTE   N60  Cs4  v127
 BYTE   W48
 BYTE   W02
 BYTE   PEND 
// 003   ----------------------------------------
Label_3_016F07F8:
 BYTE   W44
 BYTE   W02
 BYTE   N60  Ds4  v127
 BYTE   W48
 BYTE   W02
 BYTE   PEND 
 BYTE   PATT
  POIN2 Label_3_016F07F0
 BYTE   PATT
  POIN2 Label_3_016F07F8
 BYTE   PATT
  POIN2 Label_3_016F07F0
 BYTE   PATT
  POIN2 Label_3_016F07F8
 BYTE   PATT
  POIN2 Label_3_016F07F0
 BYTE   PATT
  POIN2 Label_3_016F07F8
 BYTE   PATT
  POIN2 Label_3_016F07F8
// 004   ----------------------------------------
Label_3_016F0823:
 BYTE   W44
 BYTE   W02
 BYTE   N60  Gs4  v127
 BYTE   W48
 BYTE   W02
 BYTE   PEND 
// 005   ----------------------------------------
 BYTE   W44
 BYTE   W02
 BYTE   An4
 BYTE   W48
 BYTE   W02
// 006   ----------------------------------------
 BYTE   W10
 BYTE   PAN   c_v+6
 BYTE   VOL   3*FE04Part1MapMedleySurfingKyogre_mvl/mxv
 BYTE   W24
 BYTE   N24  Fn4
 BYTE   W24
 BYTE   En4
 BYTE   W24
 BYTE   Ds4
 BYTE   W14
// 007   ----------------------------------------
 BYTE   W10
 BYTE   PAN   c_v-44
 BYTE   VOL   10*FE04Part1MapMedleySurfingKyogre_mvl/mxv
 BYTE   W36
 BYTE   N60  Dn4
 BYTE   W48
 BYTE   W02
// 008   ----------------------------------------
 BYTE   W44
 BYTE   W02
 BYTE   Fn4
 BYTE   W48
 BYTE   W02
// 009   ----------------------------------------
Label_3_016F084C:
 BYTE   W32
 BYTE   W02
 BYTE   N36  Gs4  v127
 BYTE   W36
 BYTE   An4
 BYTE   W24
 BYTE   W02
 BYTE   PEND 
 BYTE   PATT
  POIN2 Label_3_016F084C
 BYTE   PATT
  POIN2 Label_3_016F07F0
 BYTE   PATT
  POIN2 Label_3_016F07F0
 BYTE   PATT
  POIN2 Label_3_016F07F8
 BYTE   PATT
  POIN2 Label_3_016F07F8
 BYTE   PATT
  POIN2 Label_3_016F07F8
 BYTE   PATT
  POIN2 Label_3_016F07F8
 BYTE   PATT
  POIN2 Label_3_016F07F0
 BYTE   PATT
  POIN2 Label_3_016F07F0
 BYTE   PATT
  POIN2 Label_3_016F07F0
 BYTE   PATT
  POIN2 Label_3_016F07F0
 BYTE   PATT
  POIN2 Label_3_016F07F8
// 010   ----------------------------------------
 BYTE   W56
 BYTE   W02
 BYTE   N24  Ds4  v127
 BYTE   W24
 BYTE   Fn4
 BYTE   W14
// 011   ----------------------------------------
Label_3_016F089A:
 BYTE   W44
 BYTE   W02
 BYTE   N60  Dn4  v127
 BYTE   W48
 BYTE   W02
 BYTE   PEND 
 BYTE   PATT
  POIN2 Label_3_016F089A
 BYTE   PATT
  POIN2 Label_3_016F07F0
 BYTE   PATT
  POIN2 Label_3_016F07F0
// 012   ----------------------------------------
Label_3_016F08B1:
 BYTE   W32
 BYTE   W02
 BYTE   N48  Dn4  v127
 BYTE   W48
 BYTE   N60  En4
 BYTE   W14
 BYTE   PEND 
 BYTE   PATT
  POIN2 Label_3_016F07F0
 BYTE   PATT
  POIN2 Label_3_016F08B1
 BYTE   PATT
  POIN2 Label_3_016F07F0
 BYTE   PATT
  POIN2 Label_3_016F07F8
 BYTE   PATT
  POIN2 Label_3_016F07F8
 BYTE   PATT
  POIN2 Label_3_016F07F0
 BYTE   PATT
  POIN2 Label_3_016F07F8
 BYTE   PATT
  POIN2 Label_3_016F07F8
 BYTE   PATT
  POIN2 Label_3_016F0823
 BYTE   PATT
  POIN2 Label_3_016F07F0
 BYTE   PATT
  POIN2 Label_3_016F07F0
 BYTE   PATT
  POIN2 Label_3_016F07F8
 BYTE   PATT
  POIN2 Label_3_016F0823
 BYTE   PATT
  POIN2 Label_3_016F07F0
// 013   ----------------------------------------
 BYTE   W44
 BYTE   W02
 BYTE   N60  Fs4  v127
 BYTE   W48
 BYTE   W02
 BYTE   PATT
  POIN2 Label_3_016F07F8
 BYTE   PATT
  POIN2 Label_3_016F07F8
// 014   ----------------------------------------
 BYTE   W10
 BYTE   VOICE   48
 BYTE   VOL   25*FE04Part1MapMedleySurfingKyogre_mvl/mxv
 BYTE   W24
 BYTE   N12  An2  v127
 BYTE   W12
 BYTE   Bn2
 BYTE   W12
 BYTE   N24  Cs3
 BYTE   W24
 BYTE   En3
 BYTE   W14
// 015   ----------------------------------------
 BYTE   W10
 BYTE   Ds3
 BYTE   W24
 BYTE   Bn2
 BYTE   W24
 BYTE   Cs3
 BYTE   W24
 BYTE   N12  An2
 BYTE   W12
 BYTE   Bn2
 BYTE   W02
// 016   ----------------------------------------
Label_3_016F092F:
 BYTE   W10
 BYTE   N24  Cs3  v127
 BYTE   W24
 BYTE   N12  Bn2
 BYTE   W12
 BYTE   An2
 BYTE   W12
 BYTE   N24  Bn2
 BYTE   W24
 BYTE   Gs2
 BYTE   W14
 BYTE   PEND 
// 017   ----------------------------------------
 BYTE   W10
 BYTE   An2
 BYTE   W24
 BYTE   N12  Fs2
 BYTE   W12
 BYTE   An2
 BYTE   W12
 BYTE   N24  Gs2
 BYTE   W24
 BYTE   N12  An2
 BYTE   W12
 BYTE   Bn2
 BYTE   W02
// 018   ----------------------------------------
 BYTE   W32
 BYTE   W02
 BYTE   N24  Cs3
 BYTE   W24
 BYTE   N12  En3
 BYTE   W12
 BYTE   Ds3
 BYTE   W12
 BYTE   Bn2
 BYTE   W12
 BYTE   Ds3
 BYTE   W02
// 019   ----------------------------------------
 BYTE   W10
 BYTE   N72  Cs3
 BYTE   W72
 BYTE   N12  An2
 BYTE   W12
 BYTE   Bn2
 BYTE   W02
 BYTE   PATT
  POIN2 Label_3_016F092F
// 020   ----------------------------------------
 BYTE   W10
 BYTE   N12  An2  v127
 BYTE   W12
 BYTE   Gs2
 BYTE   W12
 BYTE   Fs2
 BYTE   W12
 BYTE   An2
 BYTE   W12
 BYTE   N24  Gs2
 BYTE   W24
 BYTE   N12  Fs2
 BYTE   W12
 BYTE   En2
 BYTE   W02
// 021   ----------------------------------------
 BYTE   W10
 BYTE   VOICE   100
 BYTE   VOL   10*FE04Part1MapMedleySurfingKyogre_mvl/mxv
 BYTE   N24  An3
 BYTE   W24
 BYTE   N72
 BYTE   W60
 BYTE   W02
// 022   ----------------------------------------
Label_3_016F0989:
 BYTE   W10
 BYTE   N24  Bn3  v127
 BYTE   W24
 BYTE   N72
 BYTE   W60
 BYTE   W02
 BYTE   PEND 
 BYTE   PATT
  POIN2 Label_3_016F0989
// 023   ----------------------------------------
 BYTE   W10
 BYTE   N24  Dn4  v127
 BYTE   W24
 BYTE   N72
 BYTE   W60
 BYTE   W02
// 024   ----------------------------------------
 BYTE   W96
// 025   ----------------------------------------
 BYTE   W96
// 026   ----------------------------------------
 BYTE   W96
// 027   ----------------------------------------
 BYTE   W96
// 028   ----------------------------------------
 BYTE   W96
// 029   ----------------------------------------
 BYTE   W96
// 030   ----------------------------------------
 BYTE   W96
// 031   ----------------------------------------
 BYTE   W96
// 032   ----------------------------------------
 BYTE   W32
 BYTE   W02
 BYTE   N24  En4
 BYTE   W24
 BYTE   Dn4
 BYTE   W24
 BYTE   Cn4
 BYTE   W14
// 033   ----------------------------------------
Label_3_016F09B0:
 BYTE   W44
 BYTE   W02
 BYTE   N36  Dn4  v127
 BYTE   W48
 BYTE   W02
 BYTE   PEND 
// 034   ----------------------------------------
 BYTE   W22
 BYTE   En4
 BYTE   W72
 BYTE   N36
 BYTE   W02
// 035   ----------------------------------------
 BYTE   W68
 BYTE   W02
 BYTE   Dn4
 BYTE   W24
 BYTE   W02
 BYTE   PATT
  POIN2 Label_3_016F09B0
// 036   ----------------------------------------
Label_3_016F09C7:
 BYTE   W22
 BYTE   N36  En4  v127
 BYTE   W72
 BYTE   Dn4
 BYTE   W02
 BYTE   PEND 
// 037   ----------------------------------------
Label_3_016F09CF:
 BYTE   W68
 BYTE   W02
 BYTE   N36  En4  v127
 BYTE   W24
 BYTE   W02
 BYTE   PEND 
 BYTE   PATT
  POIN2 Label_3_016F09B0
 BYTE   PATT
  POIN2 Label_3_016F09C7
 BYTE   PATT
  POIN2 Label_3_016F09CF
// 038   ----------------------------------------
 BYTE   W44
 BYTE   W02
 BYTE   N36  Cs4  v127
 BYTE   W48
 BYTE   W02
// 039   ----------------------------------------
 BYTE   W22
 BYTE   Dn4
 BYTE   W72
 BYTE   N36
 BYTE   W02
// 040   ----------------------------------------
 BYTE   W68
 BYTE   W02
 BYTE   Cs4
 BYTE   W24
 BYTE   W02
// 041   ----------------------------------------
 BYTE   W96
// 042   ----------------------------------------
 BYTE   W10
 BYTE   VOICE   1
 BYTE   PAN   c_v+6
 BYTE   VOL   45*FE04Part1MapMedleySurfingKyogre_mvl/mxv
 BYTE   W12
 BYTE   N84  Fs3
 BYTE   W72
 BYTE   W02
// 043   ----------------------------------------
 BYTE   W22
 BYTE   En3
 BYTE   W72
 BYTE   W02
// 044   ----------------------------------------
 BYTE   W22
 BYTE   Dn3
 BYTE   W72
 BYTE   W02
// 045   ----------------------------------------
 BYTE   W22
 BYTE   Cs3
 BYTE   W72
 BYTE   W02
// 046   ----------------------------------------
 BYTE   W10
 BYTE   VOICE   100
 BYTE   PAN   c_v-44
 BYTE   VOL   10*FE04Part1MapMedleySurfingKyogre_mvl/mxv
 BYTE   W36
 BYTE   N60  Dn4
 BYTE   W48
 BYTE   W02
 BYTE   PATT
  POIN2 Label_3_016F089A
 BYTE   PATT
  POIN2 Label_3_016F089A
 BYTE   PATT
  POIN2 Label_3_016F089A
 BYTE   PATT
  POIN2 Label_3_016F089A
 BYTE   PATT
  POIN2 Label_3_016F089A
 BYTE   PATT
  POIN2 Label_3_016F07F0
 BYTE   PATT
  POIN2 Label_3_016F07F0
// 047   ----------------------------------------
 BYTE   W96
// 048   ----------------------------------------
 BYTE   W96
// 049   ----------------------------------------
 BYTE   W96
// 050   ----------------------------------------
 BYTE   W96
// 051   ----------------------------------------
 BYTE   W96
// 052   ----------------------------------------
 BYTE   W96
// 053   ----------------------------------------
 BYTE   W96
// 054   ----------------------------------------
 BYTE   W96
// 055   ----------------------------------------
Label_3_016F0A47:
 BYTE   W56
 BYTE   W02
 BYTE   N48  Dn4  v127
 BYTE   W36
 BYTE   W02
 BYTE   PEND 
// 056   ----------------------------------------
Label_3_016F0A4F:
 BYTE   W56
 BYTE   W02
 BYTE   N48  Cs4  v127
 BYTE   W36
 BYTE   W02
 BYTE   PEND 
 BYTE   PATT
  POIN2 Label_3_016F0A47
 BYTE   PATT
  POIN2 Label_3_016F0A47
 BYTE   PATT
  POIN2 Label_3_016F0A47
 BYTE   PATT
  POIN2 Label_3_016F0A4F
// 057   ----------------------------------------
 BYTE   W96
// 058   ----------------------------------------
 BYTE   W96
 BYTE   PATT
  POIN2 Label_3_016F089A
// 059   ----------------------------------------
 BYTE   W44
 BYTE   W02
 BYTE   N60  Bn4  v127
 BYTE   W48
 BYTE   W02
// 060   ----------------------------------------
 BYTE   W44
 BYTE   W02
 BYTE   N24  Fn4
 BYTE   W24
 BYTE   N72  Fs4
 BYTE   W24
 BYTE   W02
// 061   ----------------------------------------
 BYTE   W44
 BYTE   W02
 BYTE   TIE  Gs4
 BYTE   W48
 BYTE   W02
// 062   ----------------------------------------
 BYTE   W96
// 063   ----------------------------------------
 BYTE   W10
 BYTE   EOT
 BYTE   VOICE   100
 BYTE   PAN   c_v-44
 BYTE   VOL   10*FE04Part1MapMedleySurfingKyogre_mvl/mxv
 BYTE   W03
 BYTE   Bn0
 BYTE   W06
 BYTE   As0
 BYTE   W06
 BYTE   As0
 BYTE   W07
 BYTE   As0
 BYTE   W06
 BYTE   As0
 BYTE   W06
 BYTE   An0
 BYTE   W02
 BYTE   N60  Cs4
 BYTE   W05
 BYTE   VOL   8*FE04Part1MapMedleySurfingKyogre_mvl/mxv
 BYTE   W06
 BYTE   Gs0
 BYTE   W07
 BYTE   Gs0
 BYTE   W06
 BYTE   Gs0
 BYTE   W06
 BYTE   Gs0
 BYTE   W07
 BYTE   Gs0
 BYTE   W06
 BYTE   Gn0
 BYTE   W07
// 064   ----------------------------------------
 BYTE   Gn0
 BYTE   W06
 BYTE   Fs0
 BYTE   W06
 BYTE   Fs0
 BYTE   W07
 BYTE   Fs0
 BYTE   W06
 BYTE   Fs0
 BYTE   W07
 BYTE   Fs0
 BYTE   W06
 BYTE   Fn0
 BYTE   W06
 BYTE   Fn0
 BYTE   W02
 BYTE   N60  Ds4
 BYTE   W05
 BYTE   VOL   3*FE04Part1MapMedleySurfingKyogre_mvl/mxv
 BYTE   W06
 BYTE   En0
 BYTE   W07
 BYTE   En0
 BYTE   W06
 BYTE   En0
 BYTE   W06
 BYTE   En0
 BYTE   W02
 BYTE   GoTo
  POIN2 Label_3_016F07EF
// 065   ----------------------------------------
 BYTE   W05
 BYTE   VOL   2*FE04Part1MapMedleySurfingKyogre_mvl/mxv
 BYTE   W06
 BYTE   Ds0
 BYTE   W07
 BYTE   Ds0
 BYTE   W06
 BYTE   Ds0
 BYTE   W06
 BYTE   Dn0
 BYTE   W07
 BYTE   Dn0
 BYTE   W06
 BYTE   Dn0
 BYTE   W07
 BYTE   Cs0
 BYTE   W06
 BYTE   Cs0
 BYTE   W06
 BYTE   Cs0
 BYTE   W02
 BYTE   N60  Cs4  v127
 BYTE   W05
 BYTE   VOL   0*FE04Part1MapMedleySurfingKyogre_mvl/mxv
 BYTE   W06
 BYTE   Cn0
 BYTE   W07
 BYTE   Cn0
 BYTE   W06
 BYTE   BnM1
 BYTE   W06
 BYTE   BnM1
 BYTE   W07
// 066   ----------------------------------------
 BYTE   BnM1
 BYTE   W06
 BYTE   BnM1
 BYTE   W07
 BYTE   BnM1
 BYTE   W06
 BYTE   AsM1
 BYTE   W06
 BYTE   AsM1
 BYTE   W07
 BYTE   AsM1
 BYTE   W06
 BYTE   AsM1
 BYTE   W07
 BYTE   AsM1
 BYTE   W06
 BYTE   AnM1
 BYTE   W06
 BYTE   AnM1
 BYTE   W02
 BYTE   N60  Ds4
 BYTE   W05
 BYTE   VOL   0*FE04Part1MapMedleySurfingKyogre_mvl/mxv
 BYTE   W06
 BYTE   GsM1
 BYTE   W07
 BYTE   GsM1
 BYTE   W06
 BYTE   GsM1
 BYTE   W06
 BYTE   GnM1
 BYTE   W07
// 067   ----------------------------------------
 BYTE   GnM1
 BYTE   W06
 BYTE   GnM1
 BYTE   W07
 BYTE   FsM1
 BYTE   W06
 BYTE   FsM1
 BYTE   W06
 BYTE   FsM1
 BYTE   W07
 BYTE   FsM1
 BYTE   W06
 BYTE   FnM1
 BYTE   W07
 BYTE   FnM1
 BYTE   W06
 BYTE   FnM1
 BYTE   W06
 BYTE   FnM1
 BYTE   W02
 BYTE   N60  Cs4
 BYTE   W05
 BYTE   VOL   0*FE04Part1MapMedleySurfingKyogre_mvl/mxv
 BYTE   W06
 BYTE   EnM1
 BYTE   W07
 BYTE   EnM1
 BYTE   W06
 BYTE   DsM1
 BYTE   W06
 BYTE   DsM1
 BYTE   W07
// 068   ----------------------------------------
 BYTE   DsM1
 BYTE   W06
 BYTE   DsM1
 BYTE   W07
 BYTE   DsM1
 BYTE   W06
 BYTE   DnM1
 BYTE   W06
 BYTE   DnM1
 BYTE   W07
 BYTE   CsM1
 BYTE   W06
 BYTE   CsM1
 BYTE   W07
 BYTE   CsM1
 BYTE   W06
 BYTE   CsM1
 BYTE   W06
 BYTE   CsM1
 BYTE   W02
 BYTE   N60  Ds4
 BYTE   W05
 BYTE   VOL   0*FE04Part1MapMedleySurfingKyogre_mvl/mxv
 BYTE   W06
 BYTE   CnM1
 BYTE   W07
 BYTE   BnM2
 BYTE   W06
 BYTE   BnM2
 BYTE   W06
 BYTE   BnM2
 BYTE   W07
// 069   ----------------------------------------
 BYTE   BnM2
 BYTE   W06
 BYTE   AsM2
 BYTE   W07
 BYTE   AsM2
 BYTE   W06
 BYTE   AsM2
 BYTE   W06
 BYTE   AsM2
 BYTE   W07
 BYTE   AsM2
 BYTE   W06
 BYTE   AnM2
 BYTE   W07
 BYTE   AnM2
 BYTE   W06
 BYTE   GsM2
 BYTE   W06
 BYTE   GsM2
 BYTE   W02
 BYTE   N60  Cs4
 BYTE   W05
 BYTE   VOL   0*FE04Part1MapMedleySurfingKyogre_mvl/mxv
 BYTE   W06
 BYTE   GsM2
 BYTE   W07
 BYTE   GsM2
 BYTE   W06
 BYTE   GnM2
 BYTE   W06
 BYTE   GnM2
 BYTE   W07
// 070   ----------------------------------------
 BYTE   FsM2
 BYTE   W06
 BYTE   FsM2
 BYTE   W07
 BYTE   FsM2
 BYTE   W06
 BYTE   FsM2
 BYTE   W06
 BYTE   FsM2
 BYTE   W07
 BYTE   FnM2
 BYTE   W06
 BYTE   FnM2
 BYTE   W07
 BYTE   FnM2
 BYTE   W06
 BYTE   FnM2
 BYTE   W06
 BYTE   EnM2
 BYTE   W02
 BYTE   N60  Ds4
 BYTE   W05
 BYTE   VOL   0*FE04Part1MapMedleySurfingKyogre_mvl/mxv
 BYTE   W06
 BYTE   EnM2
 BYTE   W07
 BYTE   DsM2
 BYTE   W06
 BYTE   DsM2
 BYTE   W06
 BYTE   DsM2
 BYTE   W07
// 071   ----------------------------------------
 BYTE   DsM2
 BYTE   W06
 BYTE   DnM2
 BYTE   W07
 BYTE   DnM2
 BYTE   W06
 BYTE   CsM2
 BYTE   W06
 BYTE   CsM2
 BYTE   W07
 BYTE   CsM2
 BYTE   W06
 BYTE   CsM2
 BYTE   W07
 BYTE   CsM2
 BYTE   W06
 BYTE   CnM2
 BYTE   W06
 BYTE   CnM2
 BYTE   W02
 BYTE   N17  Cs4
 BYTE   W05
 BYTE   VOL   0*FE04Part1MapMedleySurfingKyogre_mvl/mxv
 BYTE   W06
 BYTE   CnM2
 BYTE   W07
 BYTE   CnM2
 BYTE   FINE

//**************** Track 5 (Midi-Chn.4) ****************//

FE04Part1MapMedleySurfingKyogre_005:
// 000   ----------------------------------------
 BYTE   KEYSH   FE04Part1MapMedleySurfingKyogre_key+0
 BYTE   PAN   c_v+0
 BYTE   VOL   15*FE04Part1MapMedleySurfingKyogre_mvl/mxv
 BYTE   MOD 0
 BYTE   CnM2
 BYTE   BEND   c_v+0
 BYTE   W10
 BYTE   VOICE   100
 BYTE   PAN   c_v+43
 BYTE   VOL   10*FE04Part1MapMedleySurfingKyogre_mvl/mxv
 BYTE   BEND   c_v+0
 BYTE   W36
 BYTE   N60  An3  v127
 BYTE   W48
 BYTE   W02
// 001   ----------------------------------------
 BYTE   W44
 BYTE   W02
 BYTE   Bn3
 BYTE   W32
Label_4_016F0BE1:
 BYTE   W18
// 002   ----------------------------------------
Label_4_016F0BE2:
 BYTE   W44
 BYTE   W02
 BYTE   N60  An3  v127
 BYTE   W48
 BYTE   W02
 BYTE   PEND 
// 003   ----------------------------------------
Label_4_016F0BEA:
 BYTE   W44
 BYTE   W02
 BYTE   N60  Bn3  v127
 BYTE   W48
 BYTE   W02
 BYTE   PEND 
 BYTE   PATT
  POIN2 Label_4_016F0BE2
 BYTE   PATT
  POIN2 Label_4_016F0BEA
 BYTE   PATT
  POIN2 Label_4_016F0BE2
 BYTE   PATT
  POIN2 Label_4_016F0BEA
 BYTE   PATT
  POIN2 Label_4_016F0BE2
 BYTE   PATT
  POIN2 Label_4_016F0BEA
 BYTE   PATT
  POIN2 Label_4_016F0BEA
// 004   ----------------------------------------
 BYTE   W44
 BYTE   W02
 BYTE   N60  En4  v127
 BYTE   W48
 BYTE   W02
// 005   ----------------------------------------
Label_4_016F0C1C:
 BYTE   W44
 BYTE   W02
 BYTE   N60  Fs4  v127
 BYTE   W48
 BYTE   W02
 BYTE   PEND 
// 006   ----------------------------------------
 BYTE   W96
 BYTE   PATT
  POIN2 Label_4_016F0BE2
// 007   ----------------------------------------
Label_4_016F0C2A:
 BYTE   W44
 BYTE   W02
 BYTE   N60  Cs4  v127
 BYTE   W48
 BYTE   W02
 BYTE   PEND 
// 008   ----------------------------------------
Label_4_016F0C32:
 BYTE   W32
 BYTE   W02
 BYTE   N36  Fn4  v127
 BYTE   W36
 BYTE   Fs4
 BYTE   W24
 BYTE   W02
 BYTE   PEND 
 BYTE   PATT
  POIN2 Label_4_016F0C32
// 009   ----------------------------------------
Label_4_016F0C41:
 BYTE   W44
 BYTE   W02
 BYTE   N60  As3  v127
 BYTE   W48
 BYTE   W02
 BYTE   PEND 
 BYTE   PATT
  POIN2 Label_4_016F0C41
 BYTE   PATT
  POIN2 Label_4_016F0BEA
 BYTE   PATT
  POIN2 Label_4_016F0BEA
 BYTE   PATT
  POIN2 Label_4_016F0BEA
 BYTE   PATT
  POIN2 Label_4_016F0BEA
 BYTE   PATT
  POIN2 Label_4_016F0C41
 BYTE   PATT
  POIN2 Label_4_016F0C41
 BYTE   PATT
  POIN2 Label_4_016F0C41
 BYTE   PATT
  POIN2 Label_4_016F0C41
 BYTE   PATT
  POIN2 Label_4_016F0BEA
// 010   ----------------------------------------
 BYTE   W56
 BYTE   W02
 BYTE   N24  Bn3  v127
 BYTE   W24
 BYTE   Cs4
 BYTE   W14
 BYTE   PATT
  POIN2 Label_4_016F0BE2
 BYTE   PATT
  POIN2 Label_4_016F0BE2
 BYTE   PATT
  POIN2 Label_4_016F0C41
 BYTE   PATT
  POIN2 Label_4_016F0C41
// 011   ----------------------------------------
Label_4_016F0C97:
 BYTE   W32
 BYTE   W02
 BYTE   N48  An3  v127
 BYTE   W48
 BYTE   N60  Bn3
 BYTE   W14
 BYTE   PEND 
 BYTE   PATT
  POIN2 Label_4_016F0C41
 BYTE   PATT
  POIN2 Label_4_016F0C97
 BYTE   PATT
  POIN2 Label_4_016F0C41
 BYTE   PATT
  POIN2 Label_4_016F0BEA
 BYTE   PATT
  POIN2 Label_4_016F0BEA
 BYTE   PATT
  POIN2 Label_4_016F0C41
 BYTE   PATT
  POIN2 Label_4_016F0BEA
 BYTE   PATT
  POIN2 Label_4_016F0BEA
// 012   ----------------------------------------
Label_4_016F0CC9:
 BYTE   W44
 BYTE   W02
 BYTE   N60  Ds4  v127
 BYTE   W48
 BYTE   W02
 BYTE   PEND 
 BYTE   PATT
  POIN2 Label_4_016F0C41
 BYTE   PATT
  POIN2 Label_4_016F0C41
 BYTE   PATT
  POIN2 Label_4_016F0BEA
 BYTE   PATT
  POIN2 Label_4_016F0CC9
 BYTE   PATT
  POIN2 Label_4_016F0C41
 BYTE   PATT
  POIN2 Label_4_016F0C2A
 BYTE   PATT
  POIN2 Label_4_016F0BEA
 BYTE   PATT
  POIN2 Label_4_016F0BEA
// 013   ----------------------------------------
 BYTE   W96
// 014   ----------------------------------------
 BYTE   W96
// 015   ----------------------------------------
 BYTE   W96
// 016   ----------------------------------------
 BYTE   W96
// 017   ----------------------------------------
 BYTE   W96
// 018   ----------------------------------------
 BYTE   W96
// 019   ----------------------------------------
 BYTE   W96
// 020   ----------------------------------------
 BYTE   W96
// 021   ----------------------------------------
 BYTE   W10
 BYTE   N24  Fs3  v127
 BYTE   W24
 BYTE   N72
 BYTE   W60
 BYTE   W02
// 022   ----------------------------------------
Label_4_016F0D09:
 BYTE   W10
 BYTE   N24  Gn3  v127
 BYTE   W24
 BYTE   N72
 BYTE   W60
 BYTE   W02
 BYTE   PEND 
 BYTE   PATT
  POIN2 Label_4_016F0D09
// 023   ----------------------------------------
 BYTE   W10
 BYTE   N24  An3  v127
 BYTE   W24
 BYTE   N72
 BYTE   W60
 BYTE   W02
// 024   ----------------------------------------
 BYTE   W96
// 025   ----------------------------------------
 BYTE   W96
// 026   ----------------------------------------
 BYTE   W96
// 027   ----------------------------------------
 BYTE   W96
// 028   ----------------------------------------
 BYTE   W96
// 029   ----------------------------------------
 BYTE   W96
// 030   ----------------------------------------
 BYTE   W96
// 031   ----------------------------------------
 BYTE   W96
// 032   ----------------------------------------
 BYTE   W32
 BYTE   W02
 BYTE   N24  Cn4
 BYTE   W24
 BYTE   Bn3
 BYTE   W24
 BYTE   An3
 BYTE   W14
// 033   ----------------------------------------
Label_4_016F0D30:
 BYTE   W44
 BYTE   W02
 BYTE   N36  An3  v127
 BYTE   W48
 BYTE   W02
 BYTE   PEND 
// 034   ----------------------------------------
Label_4_016F0D38:
 BYTE   W22
 BYTE   N36  Bn3  v127
 BYTE   W72
 BYTE   N36
 BYTE   W02
 BYTE   PEND 
// 035   ----------------------------------------
 BYTE   W68
 BYTE   W02
 BYTE   An3
 BYTE   W24
 BYTE   W02
 BYTE   PATT
  POIN2 Label_4_016F0D30
// 036   ----------------------------------------
Label_4_016F0D4A:
 BYTE   W22
 BYTE   N36  Bn3  v127
 BYTE   W72
 BYTE   An3
 BYTE   W02
 BYTE   PEND 
// 037   ----------------------------------------
Label_4_016F0D52:
 BYTE   W68
 BYTE   W02
 BYTE   N36  Bn3  v127
 BYTE   W24
 BYTE   W02
 BYTE   PEND 
 BYTE   PATT
  POIN2 Label_4_016F0D30
 BYTE   PATT
  POIN2 Label_4_016F0D4A
 BYTE   PATT
  POIN2 Label_4_016F0D52
 BYTE   PATT
  POIN2 Label_4_016F0D30
 BYTE   PATT
  POIN2 Label_4_016F0D38
// 038   ----------------------------------------
 BYTE   W68
 BYTE   W02
 BYTE   N36  Gs3  v127
 BYTE   W24
 BYTE   W02
// 039   ----------------------------------------
 BYTE   W96
// 040   ----------------------------------------
 BYTE   W10
 BYTE   VOICE   1
 BYTE   PAN   c_v-14
 BYTE   VOL   35*FE04Part1MapMedleySurfingKyogre_mvl/mxv
 BYTE   BEND   c_v-1
 BYTE   W12
 BYTE   N84  Fs3
 BYTE   W72
 BYTE   W02
// 041   ----------------------------------------
 BYTE   W22
 BYTE   En3
 BYTE   W72
 BYTE   W02
// 042   ----------------------------------------
 BYTE   W22
 BYTE   Dn3
 BYTE   W72
 BYTE   W02
// 043   ----------------------------------------
 BYTE   W22
 BYTE   Cs3
 BYTE   W72
 BYTE   W02
// 044   ----------------------------------------
 BYTE   W10
 BYTE   VOICE   100
 BYTE   PAN   c_v+43
 BYTE   VOL   10*FE04Part1MapMedleySurfingKyogre_mvl/mxv
 BYTE   BEND   c_v+0
 BYTE   W36
 BYTE   N60  Bn3
 BYTE   W48
 BYTE   W02
 BYTE   PATT
  POIN2 Label_4_016F0BEA
 BYTE   PATT
  POIN2 Label_4_016F0BEA
 BYTE   PATT
  POIN2 Label_4_016F0BEA
 BYTE   PATT
  POIN2 Label_4_016F0BEA
 BYTE   PATT
  POIN2 Label_4_016F0BEA
 BYTE   PATT
  POIN2 Label_4_016F0BE2
 BYTE   PATT
  POIN2 Label_4_016F0BE2
// 045   ----------------------------------------
 BYTE   W96
// 046   ----------------------------------------
 BYTE   W96
// 047   ----------------------------------------
 BYTE   W96
// 048   ----------------------------------------
 BYTE   W96
// 049   ----------------------------------------
 BYTE   W96
// 050   ----------------------------------------
 BYTE   W96
// 051   ----------------------------------------
 BYTE   W96
// 052   ----------------------------------------
 BYTE   W96
// 053   ----------------------------------------
Label_4_016F0DCE:
 BYTE   W56
 BYTE   W02
 BYTE   N48  An3  v127
 BYTE   W36
 BYTE   W02
 BYTE   PEND 
 BYTE   PATT
  POIN2 Label_4_016F0DCE
 BYTE   PATT
  POIN2 Label_4_016F0DCE
 BYTE   PATT
  POIN2 Label_4_016F0DCE
 BYTE   PATT
  POIN2 Label_4_016F0DCE
 BYTE   PATT
  POIN2 Label_4_016F0DCE
// 054   ----------------------------------------
 BYTE   W96
// 055   ----------------------------------------
 BYTE   W96
 BYTE   PATT
  POIN2 Label_4_016F0BEA
 BYTE   PATT
  POIN2 Label_4_016F0C1C
// 056   ----------------------------------------
 BYTE   W44
 BYTE   W02
 BYTE   N24  Cs4  v127
 BYTE   W24
 BYTE   N72
 BYTE   W24
 BYTE   W02
// 057   ----------------------------------------
 BYTE   W44
 BYTE   W02
 BYTE   TIE  Ds4
 BYTE   W48
 BYTE   W02
// 058   ----------------------------------------
 BYTE   W96
// 059   ----------------------------------------
 BYTE   W10
 BYTE   EOT
 BYTE   VOICE   100
 BYTE   PAN   c_v+43
 BYTE   VOL   10*FE04Part1MapMedleySurfingKyogre_mvl/mxv
 BYTE   W03
 BYTE   Bn0
 BYTE   W06
 BYTE   As0
 BYTE   W06
 BYTE   As0
 BYTE   W07
 BYTE   As0
 BYTE   W06
 BYTE   As0
 BYTE   W06
 BYTE   An0
 BYTE   W02
 BYTE   N60  An3
 BYTE   W05
 BYTE   VOL   8*FE04Part1MapMedleySurfingKyogre_mvl/mxv
 BYTE   W06
 BYTE   Gs0
 BYTE   W07
 BYTE   Gs0
 BYTE   W06
 BYTE   Gs0
 BYTE   W06
 BYTE   Gs0
 BYTE   W07
 BYTE   Gs0
 BYTE   W06
 BYTE   Gn0
 BYTE   W07
// 060   ----------------------------------------
 BYTE   Gn0
 BYTE   W06
 BYTE   Fs0
 BYTE   W06
 BYTE   Fs0
 BYTE   W07
 BYTE   Fs0
 BYTE   W06
 BYTE   Fs0
 BYTE   W07
 BYTE   Fs0
 BYTE   W06
 BYTE   Fn0
 BYTE   W06
 BYTE   Fn0
 BYTE   W02
 BYTE   N60  Bn3
 BYTE   W05
 BYTE   VOL   3*FE04Part1MapMedleySurfingKyogre_mvl/mxv
 BYTE   W06
 BYTE   En0
 BYTE   W07
 BYTE   En0
 BYTE   W06
 BYTE   En0
 BYTE   W06
 BYTE   En0
 BYTE   W02
 BYTE   GoTo
  POIN2 Label_4_016F0BE1
// 061   ----------------------------------------
 BYTE   W05
 BYTE   VOL   2*FE04Part1MapMedleySurfingKyogre_mvl/mxv
 BYTE   W06
 BYTE   Ds0
 BYTE   W07
 BYTE   Ds0
 BYTE   W06
 BYTE   Ds0
 BYTE   W06
 BYTE   Dn0
 BYTE   W07
 BYTE   Dn0
 BYTE   W06
 BYTE   Dn0
 BYTE   W07
 BYTE   Cs0
 BYTE   W06
 BYTE   Cs0
 BYTE   W06
 BYTE   Cs0
 BYTE   W02
 BYTE   N60  An3  v127
 BYTE   W05
 BYTE   VOL   0*FE04Part1MapMedleySurfingKyogre_mvl/mxv
 BYTE   W06
 BYTE   Cn0
 BYTE   W07
 BYTE   Cn0
 BYTE   W06
 BYTE   BnM1
 BYTE   W06
 BYTE   BnM1
 BYTE   W07
// 062   ----------------------------------------
 BYTE   BnM1
 BYTE   W06
 BYTE   BnM1
 BYTE   W07
 BYTE   BnM1
 BYTE   W06
 BYTE   AsM1
 BYTE   W06
 BYTE   AsM1
 BYTE   W07
 BYTE   AsM1
 BYTE   W06
 BYTE   AsM1
 BYTE   W07
 BYTE   AsM1
 BYTE   W06
 BYTE   AnM1
 BYTE   W06
 BYTE   AnM1
 BYTE   W02
 BYTE   N60  Bn3
 BYTE   W05
 BYTE   VOL   0*FE04Part1MapMedleySurfingKyogre_mvl/mxv
 BYTE   W06
 BYTE   GsM1
 BYTE   W07
 BYTE   GsM1
 BYTE   W06
 BYTE   GsM1
 BYTE   W06
 BYTE   GnM1
 BYTE   W07
// 063   ----------------------------------------
 BYTE   GnM1
 BYTE   W06
 BYTE   GnM1
 BYTE   W07
 BYTE   FsM1
 BYTE   W06
 BYTE   FsM1
 BYTE   W06
 BYTE   FsM1
 BYTE   W07
 BYTE   FsM1
 BYTE   W06
 BYTE   FnM1
 BYTE   W07
 BYTE   FnM1
 BYTE   W06
 BYTE   FnM1
 BYTE   W06
 BYTE   FnM1
 BYTE   W02
 BYTE   N60  An3
 BYTE   W05
 BYTE   VOL   0*FE04Part1MapMedleySurfingKyogre_mvl/mxv
 BYTE   W06
 BYTE   EnM1
 BYTE   W07
 BYTE   EnM1
 BYTE   W06
 BYTE   DsM1
 BYTE   W06
 BYTE   DsM1
 BYTE   W07
// 064   ----------------------------------------
 BYTE   DsM1
 BYTE   W06
 BYTE   DsM1
 BYTE   W07
 BYTE   DsM1
 BYTE   W06
 BYTE   DnM1
 BYTE   W06
 BYTE   DnM1
 BYTE   W07
 BYTE   CsM1
 BYTE   W06
 BYTE   CsM1
 BYTE   W07
 BYTE   CsM1
 BYTE   W06
 BYTE   CsM1
 BYTE   W06
 BYTE   CsM1
 BYTE   W02
 BYTE   N60  Bn3
 BYTE   W05
 BYTE   VOL   0*FE04Part1MapMedleySurfingKyogre_mvl/mxv
 BYTE   W06
 BYTE   CnM1
 BYTE   W07
 BYTE   BnM2
 BYTE   W06
 BYTE   BnM2
 BYTE   W06
 BYTE   BnM2
 BYTE   W07
// 065   ----------------------------------------
 BYTE   BnM2
 BYTE   W06
 BYTE   AsM2
 BYTE   W07
 BYTE   AsM2
 BYTE   W06
 BYTE   AsM2
 BYTE   W06
 BYTE   AsM2
 BYTE   W07
 BYTE   AsM2
 BYTE   W06
 BYTE   AnM2
 BYTE   W07
 BYTE   AnM2
 BYTE   W06
 BYTE   GsM2
 BYTE   W06
 BYTE   GsM2
 BYTE   W02
 BYTE   N60  An3
 BYTE   W05
 BYTE   VOL   0*FE04Part1MapMedleySurfingKyogre_mvl/mxv
 BYTE   W06
 BYTE   GsM2
 BYTE   W07
 BYTE   GsM2
 BYTE   W06
 BYTE   GnM2
 BYTE   W06
 BYTE   GnM2
 BYTE   W07
// 066   ----------------------------------------
 BYTE   FsM2
 BYTE   W06
 BYTE   FsM2
 BYTE   W07
 BYTE   FsM2
 BYTE   W06
 BYTE   FsM2
 BYTE   W06
 BYTE   FsM2
 BYTE   W07
 BYTE   FnM2
 BYTE   W06
 BYTE   FnM2
 BYTE   W07
 BYTE   FnM2
 BYTE   W06
 BYTE   FnM2
 BYTE   W06
 BYTE   EnM2
 BYTE   W02
 BYTE   N60  Bn3
 BYTE   W05
 BYTE   VOL   0*FE04Part1MapMedleySurfingKyogre_mvl/mxv
 BYTE   W06
 BYTE   EnM2
 BYTE   W07
 BYTE   DsM2
 BYTE   W06
 BYTE   DsM2
 BYTE   W06
 BYTE   DsM2
 BYTE   W07
// 067   ----------------------------------------
 BYTE   DsM2
 BYTE   W06
 BYTE   DnM2
 BYTE   W07
 BYTE   DnM2
 BYTE   W06
 BYTE   CsM2
 BYTE   W06
 BYTE   CsM2
 BYTE   W07
 BYTE   CsM2
 BYTE   W06
 BYTE   CsM2
 BYTE   W07
 BYTE   CsM2
 BYTE   W06
 BYTE   CnM2
 BYTE   W06
 BYTE   CnM2
 BYTE   W02
 BYTE   N17  An3
 BYTE   W05
 BYTE   VOL   0*FE04Part1MapMedleySurfingKyogre_mvl/mxv
 BYTE   W06
 BYTE   CnM2
 BYTE   W07
 BYTE   CnM2
 BYTE   FINE

//**************** Track 6 (Midi-Chn.5) ****************//

FE04Part1MapMedleySurfingKyogre_006:
// 000   ----------------------------------------
 BYTE   KEYSH   FE04Part1MapMedleySurfingKyogre_key+0
 BYTE   PAN   c_v+0
 BYTE   VOL   15*FE04Part1MapMedleySurfingKyogre_mvl/mxv
 BYTE   MOD 0
 BYTE   CnM2
 BYTE   BEND   c_v+0
 BYTE   W10
 BYTE   VOICE   100
 BYTE   PAN   c_v-4
 BYTE   VOL   10*FE04Part1MapMedleySurfingKyogre_mvl/mxv
 BYTE   W36
 BYTE   N60  Fs3  v127
 BYTE   W48
 BYTE   W02
// 001   ----------------------------------------
 BYTE   W44
 BYTE   W02
 BYTE   N60
 BYTE   W32
Label_5_016F0F5F:
 BYTE   W18
// 002   ----------------------------------------
Label_5_016F0F60:
 BYTE   W44
 BYTE   W02
 BYTE   N60  Fs3  v127
 BYTE   W48
 BYTE   W02
 BYTE   PEND 
 BYTE   PATT
  POIN2 Label_5_016F0F60
 BYTE   PATT
  POIN2 Label_5_016F0F60
 BYTE   PATT
  POIN2 Label_5_016F0F60
 BYTE   PATT
  POIN2 Label_5_016F0F60
 BYTE   PATT
  POIN2 Label_5_016F0F60
 BYTE   PATT
  POIN2 Label_5_016F0F60
 BYTE   PATT
  POIN2 Label_5_016F0F60
// 003   ----------------------------------------
Label_5_016F0F8B:
 BYTE   W44
 BYTE   W02
 BYTE   N60  Gs3  v127
 BYTE   W48
 BYTE   W02
 BYTE   PEND 
// 004   ----------------------------------------
Label_5_016F0F93:
 BYTE   W44
 BYTE   W02
 BYTE   N60  Bn3  v127
 BYTE   W48
 BYTE   W02
 BYTE   PEND 
// 005   ----------------------------------------
 BYTE   W44
 BYTE   W02
 BYTE   Cs4
 BYTE   W48
 BYTE   W02
// 006   ----------------------------------------
 BYTE   W96
 BYTE   PATT
  POIN2 Label_5_016F0F60
 BYTE   PATT
  POIN2 Label_5_016F0F8B
// 007   ----------------------------------------
Label_5_016F0FAB:
 BYTE   W32
 BYTE   W02
 BYTE   N36  Cs4  v127
 BYTE   W36
 BYTE   N36
 BYTE   W24
 BYTE   W02
 BYTE   PEND 
 BYTE   PATT
  POIN2 Label_5_016F0FAB
 BYTE   PATT
  POIN2 Label_5_016F0F60
 BYTE   PATT
  POIN2 Label_5_016F0F60
 BYTE   PATT
  POIN2 Label_5_016F0F8B
 BYTE   PATT
  POIN2 Label_5_016F0F8B
 BYTE   PATT
  POIN2 Label_5_016F0F8B
 BYTE   PATT
  POIN2 Label_5_016F0F8B
 BYTE   PATT
  POIN2 Label_5_016F0F60
 BYTE   PATT
  POIN2 Label_5_016F0F60
 BYTE   PATT
  POIN2 Label_5_016F0F60
 BYTE   PATT
  POIN2 Label_5_016F0F60
 BYTE   PATT
  POIN2 Label_5_016F0F8B
// 008   ----------------------------------------
 BYTE   W56
 BYTE   W02
 BYTE   N24  Gs3  v127
 BYTE   W24
 BYTE   As3
 BYTE   W14
 BYTE   PATT
  POIN2 Label_5_016F0F60
 BYTE   PATT
  POIN2 Label_5_016F0F60
 BYTE   PATT
  POIN2 Label_5_016F0F60
 BYTE   PATT
  POIN2 Label_5_016F0F60
// 009   ----------------------------------------
Label_5_016F100D:
 BYTE   W32
 BYTE   W02
 BYTE   N48  Fs3  v127
 BYTE   W48
 BYTE   N60  Gs3
 BYTE   W14
 BYTE   PEND 
 BYTE   PATT
  POIN2 Label_5_016F0F60
 BYTE   PATT
  POIN2 Label_5_016F100D
 BYTE   PATT
  POIN2 Label_5_016F0F60
 BYTE   PATT
  POIN2 Label_5_016F0F60
 BYTE   PATT
  POIN2 Label_5_016F0F60
 BYTE   PATT
  POIN2 Label_5_016F0F60
 BYTE   PATT
  POIN2 Label_5_016F0F60
 BYTE   PATT
  POIN2 Label_5_016F0F8B
 BYTE   PATT
  POIN2 Label_5_016F0F93
 BYTE   PATT
  POIN2 Label_5_016F0F60
 BYTE   PATT
  POIN2 Label_5_016F0F60
 BYTE   PATT
  POIN2 Label_5_016F0F8B
 BYTE   PATT
  POIN2 Label_5_016F0F93
 BYTE   PATT
  POIN2 Label_5_016F0F60
// 010   ----------------------------------------
 BYTE   W44
 BYTE   W02
 BYTE   N60  As3  v127
 BYTE   W48
 BYTE   W02
 BYTE   PATT
  POIN2 Label_5_016F0F60
 BYTE   PATT
  POIN2 Label_5_016F0F60
// 011   ----------------------------------------
 BYTE   W96
// 012   ----------------------------------------
 BYTE   W96
// 013   ----------------------------------------
 BYTE   W96
// 014   ----------------------------------------
 BYTE   W96
// 015   ----------------------------------------
 BYTE   W96
// 016   ----------------------------------------
 BYTE   W96
// 017   ----------------------------------------
 BYTE   W96
// 018   ----------------------------------------
 BYTE   W96
// 019   ----------------------------------------
 BYTE   W10
 BYTE   N24  Dn3  v127
 BYTE   W24
 BYTE   N72
 BYTE   W60
 BYTE   W02
// 020   ----------------------------------------
Label_5_016F107E:
 BYTE   W10
 BYTE   N24  En3  v127
 BYTE   W24
 BYTE   N72
 BYTE   W60
 BYTE   W02
 BYTE   PEND 
 BYTE   PATT
  POIN2 Label_5_016F107E
// 021   ----------------------------------------
 BYTE   W10
 BYTE   N24  Fs3  v127
 BYTE   W24
 BYTE   N72
 BYTE   W60
 BYTE   W02
// 022   ----------------------------------------
 BYTE   W96
// 023   ----------------------------------------
 BYTE   W96
// 024   ----------------------------------------
 BYTE   W96
// 025   ----------------------------------------
 BYTE   W96
// 026   ----------------------------------------
 BYTE   W96
// 027   ----------------------------------------
 BYTE   W96
// 028   ----------------------------------------
 BYTE   W96
// 029   ----------------------------------------
 BYTE   W96
// 030   ----------------------------------------
 BYTE   W32
 BYTE   W02
 BYTE   N24  Gn3
 BYTE   W24
 BYTE   N24
 BYTE   W24
 BYTE   Fs3
 BYTE   W14
// 031   ----------------------------------------
Label_5_016F10A5:
 BYTE   W44
 BYTE   W02
 BYTE   N36  Fs3  v127
 BYTE   W48
 BYTE   W02
 BYTE   PEND 
// 032   ----------------------------------------
 BYTE   W22
 BYTE   Gn3
 BYTE   W72
 BYTE   N36
 BYTE   W02
// 033   ----------------------------------------
Label_5_016F10B2:
 BYTE   W68
 BYTE   W02
 BYTE   N36  Fs3  v127
 BYTE   W24
 BYTE   W02
 BYTE   PEND 
 BYTE   PATT
  POIN2 Label_5_016F10A5
// 034   ----------------------------------------
Label_5_016F10BF:
 BYTE   W22
 BYTE   N36  Gn3  v127
 BYTE   W72
 BYTE   Fs3
 BYTE   W02
 BYTE   PEND 
// 035   ----------------------------------------
Label_5_016F10C7:
 BYTE   W68
 BYTE   W02
 BYTE   N36  Gn3  v127
 BYTE   W24
 BYTE   W02
 BYTE   PEND 
 BYTE   PATT
  POIN2 Label_5_016F10A5
 BYTE   PATT
  POIN2 Label_5_016F10BF
 BYTE   PATT
  POIN2 Label_5_016F10C7
 BYTE   PATT
  POIN2 Label_5_016F10A5
// 036   ----------------------------------------
 BYTE   W22
 BYTE   N36  Fs3  v127
 BYTE   W72
 BYTE   N36
 BYTE   W02
 BYTE   PATT
  POIN2 Label_5_016F10B2
// 037   ----------------------------------------
 BYTE   W96
// 038   ----------------------------------------
 BYTE   W96
// 039   ----------------------------------------
 BYTE   W96
// 040   ----------------------------------------
 BYTE   W96
// 041   ----------------------------------------
 BYTE   W96
 BYTE   PATT
  POIN2 Label_5_016F0F60
 BYTE   PATT
  POIN2 Label_5_016F0F60
 BYTE   PATT
  POIN2 Label_5_016F0F60
 BYTE   PATT
  POIN2 Label_5_016F0F60
 BYTE   PATT
  POIN2 Label_5_016F0F60
 BYTE   PATT
  POIN2 Label_5_016F0F60
 BYTE   PATT
  POIN2 Label_5_016F0F60
 BYTE   PATT
  POIN2 Label_5_016F0F60
// 042   ----------------------------------------
 BYTE   W96
// 043   ----------------------------------------
 BYTE   W96
// 044   ----------------------------------------
 BYTE   W96
// 045   ----------------------------------------
 BYTE   W96
// 046   ----------------------------------------
 BYTE   W96
// 047   ----------------------------------------
 BYTE   W96
// 048   ----------------------------------------
 BYTE   W96
// 049   ----------------------------------------
 BYTE   W96
// 050   ----------------------------------------
Label_5_016F1124:
 BYTE   W56
 BYTE   W02
 BYTE   N48  Fs3  v127
 BYTE   W36
 BYTE   W02
 BYTE   PEND 
// 051   ----------------------------------------
Label_5_016F112C:
 BYTE   W56
 BYTE   W02
 BYTE   N48  En3  v127
 BYTE   W36
 BYTE   W02
 BYTE   PEND 
 BYTE   PATT
  POIN2 Label_5_016F1124
 BYTE   PATT
  POIN2 Label_5_016F1124
 BYTE   PATT
  POIN2 Label_5_016F1124
 BYTE   PATT
  POIN2 Label_5_016F112C
// 052   ----------------------------------------
 BYTE   W96
// 053   ----------------------------------------
 BYTE   W96
 BYTE   PATT
  POIN2 Label_5_016F0F60
// 054   ----------------------------------------
 BYTE   W44
 BYTE   W02
 BYTE   N60  Dn4  v127
 BYTE   W48
 BYTE   W02
// 055   ----------------------------------------
 BYTE   W44
 BYTE   W02
 BYTE   N24  An3
 BYTE   W24
 BYTE   N72
 BYTE   W24
 BYTE   W02
// 056   ----------------------------------------
 BYTE   W44
 BYTE   W02
 BYTE   TIE  Cs4
 BYTE   W48
 BYTE   W02
// 057   ----------------------------------------
 BYTE   W96
// 058   ----------------------------------------
 BYTE   W10
 BYTE   EOT
 BYTE   VOICE   100
 BYTE   PAN   c_v-4
 BYTE   VOL   10*FE04Part1MapMedleySurfingKyogre_mvl/mxv
 BYTE   W03
 BYTE   Bn0
 BYTE   W06
 BYTE   As0
 BYTE   W06
 BYTE   As0
 BYTE   W07
 BYTE   As0
 BYTE   W06
 BYTE   As0
 BYTE   W06
 BYTE   An0
 BYTE   W02
 BYTE   N60  Fs3
 BYTE   W05
 BYTE   VOL   8*FE04Part1MapMedleySurfingKyogre_mvl/mxv
 BYTE   W06
 BYTE   Gs0
 BYTE   W07
 BYTE   Gs0
 BYTE   W06
 BYTE   Gs0
 BYTE   W06
 BYTE   Gs0
 BYTE   W07
 BYTE   Gs0
 BYTE   W06
 BYTE   Gn0
 BYTE   W07
// 059   ----------------------------------------
 BYTE   Gn0
 BYTE   W06
 BYTE   Fs0
 BYTE   W06
 BYTE   Fs0
 BYTE   W07
 BYTE   Fs0
 BYTE   W06
 BYTE   Fs0
 BYTE   W07
 BYTE   Fs0
 BYTE   W06
 BYTE   Fn0
 BYTE   W06
 BYTE   Fn0
 BYTE   W02
 BYTE   N60
 BYTE   W05
 BYTE   VOL   3*FE04Part1MapMedleySurfingKyogre_mvl/mxv
 BYTE   W06
 BYTE   En0
 BYTE   W07
 BYTE   En0
 BYTE   W06
 BYTE   En0
 BYTE   W06
 BYTE   En0
 BYTE   W02
 BYTE   GoTo
  POIN2 Label_5_016F0F5F
// 060   ----------------------------------------
 BYTE   W05
 BYTE   VOL   2*FE04Part1MapMedleySurfingKyogre_mvl/mxv
 BYTE   W06
 BYTE   Ds0
 BYTE   W07
 BYTE   Ds0
 BYTE   W06
 BYTE   Ds0
 BYTE   W06
 BYTE   Dn0
 BYTE   W07
 BYTE   Dn0
 BYTE   W06
 BYTE   Dn0
 BYTE   W07
 BYTE   Cs0
 BYTE   W06
 BYTE   Cs0
 BYTE   W06
 BYTE   Cs0
 BYTE   W02
 BYTE   N60  Fs3  v127
 BYTE   W05
 BYTE   VOL   0*FE04Part1MapMedleySurfingKyogre_mvl/mxv
 BYTE   W06
 BYTE   Cn0
 BYTE   W07
 BYTE   Cn0
 BYTE   W06
 BYTE   BnM1
 BYTE   W06
 BYTE   BnM1
 BYTE   W07
// 061   ----------------------------------------
 BYTE   BnM1
 BYTE   W06
 BYTE   BnM1
 BYTE   W07
 BYTE   BnM1
 BYTE   W06
 BYTE   AsM1
 BYTE   W06
 BYTE   AsM1
 BYTE   W07
 BYTE   AsM1
 BYTE   W06
 BYTE   AsM1
 BYTE   W07
 BYTE   AsM1
 BYTE   W06
 BYTE   AnM1
 BYTE   W06
 BYTE   AnM1
 BYTE   W02
 BYTE   N60
 BYTE   W05
 BYTE   VOL   0*FE04Part1MapMedleySurfingKyogre_mvl/mxv
 BYTE   W06
 BYTE   GsM1
 BYTE   W07
 BYTE   GsM1
 BYTE   W06
 BYTE   GsM1
 BYTE   W06
 BYTE   GnM1
 BYTE   W07
// 062   ----------------------------------------
 BYTE   GnM1
 BYTE   W06
 BYTE   GnM1
 BYTE   W07
 BYTE   FsM1
 BYTE   W06
 BYTE   FsM1
 BYTE   W06
 BYTE   FsM1
 BYTE   W07
 BYTE   FsM1
 BYTE   W06
 BYTE   FnM1
 BYTE   W07
 BYTE   FnM1
 BYTE   W06
 BYTE   FnM1
 BYTE   W06
 BYTE   FnM1
 BYTE   W02
 BYTE   N60
 BYTE   W05
 BYTE   VOL   0*FE04Part1MapMedleySurfingKyogre_mvl/mxv
 BYTE   W06
 BYTE   EnM1
 BYTE   W07
 BYTE   EnM1
 BYTE   W06
 BYTE   DsM1
 BYTE   W06
 BYTE   DsM1
 BYTE   W07
// 063   ----------------------------------------
 BYTE   DsM1
 BYTE   W06
 BYTE   DsM1
 BYTE   W07
 BYTE   DsM1
 BYTE   W06
 BYTE   DnM1
 BYTE   W06
 BYTE   DnM1
 BYTE   W07
 BYTE   CsM1
 BYTE   W06
 BYTE   CsM1
 BYTE   W07
 BYTE   CsM1
 BYTE   W06
 BYTE   CsM1
 BYTE   W06
 BYTE   CsM1
 BYTE   W02
 BYTE   N60
 BYTE   W05
 BYTE   VOL   0*FE04Part1MapMedleySurfingKyogre_mvl/mxv
 BYTE   W06
 BYTE   CnM1
 BYTE   W07
 BYTE   BnM2
 BYTE   W06
 BYTE   BnM2
 BYTE   W06
 BYTE   BnM2
 BYTE   W07
// 064   ----------------------------------------
 BYTE   BnM2
 BYTE   W06
 BYTE   AsM2
 BYTE   W07
 BYTE   AsM2
 BYTE   W06
 BYTE   AsM2
 BYTE   W06
 BYTE   AsM2
 BYTE   W07
 BYTE   AsM2
 BYTE   W06
 BYTE   AnM2
 BYTE   W07
 BYTE   AnM2
 BYTE   W06
 BYTE   GsM2
 BYTE   W06
 BYTE   GsM2
 BYTE   W02
 BYTE   N60
 BYTE   W05
 BYTE   VOL   0*FE04Part1MapMedleySurfingKyogre_mvl/mxv
 BYTE   W06
 BYTE   GsM2
 BYTE   W07
 BYTE   GsM2
 BYTE   W06
 BYTE   GnM2
 BYTE   W06
 BYTE   GnM2
 BYTE   W07
// 065   ----------------------------------------
 BYTE   FsM2
 BYTE   W06
 BYTE   FsM2
 BYTE   W07
 BYTE   FsM2
 BYTE   W06
 BYTE   FsM2
 BYTE   W06
 BYTE   FsM2
 BYTE   W07
 BYTE   FnM2
 BYTE   W06
 BYTE   FnM2
 BYTE   W07
 BYTE   FnM2
 BYTE   W06
 BYTE   FnM2
 BYTE   W06
 BYTE   EnM2
 BYTE   W02
 BYTE   N60
 BYTE   W05
 BYTE   VOL   0*FE04Part1MapMedleySurfingKyogre_mvl/mxv
 BYTE   W06
 BYTE   EnM2
 BYTE   W07
 BYTE   DsM2
 BYTE   W06
 BYTE   DsM2
 BYTE   W06
 BYTE   DsM2
 BYTE   W07
// 066   ----------------------------------------
 BYTE   DsM2
 BYTE   W06
 BYTE   DnM2
 BYTE   W07
 BYTE   DnM2
 BYTE   W06
 BYTE   CsM2
 BYTE   W06
 BYTE   CsM2
 BYTE   W07
 BYTE   CsM2
 BYTE   W06
 BYTE   CsM2
 BYTE   W07
 BYTE   CsM2
 BYTE   W06
 BYTE   CnM2
 BYTE   W06
 BYTE   CnM2
 BYTE   W02
 BYTE   N17
 BYTE   W05
 BYTE   VOL   0*FE04Part1MapMedleySurfingKyogre_mvl/mxv
 BYTE   W06
 BYTE   CnM2
 BYTE   W07
 BYTE   CnM2
 BYTE   FINE

//**************** Track 7 (Midi-Chn.6) ****************//

FE04Part1MapMedleySurfingKyogre_007:
// 000   ----------------------------------------
 BYTE   KEYSH   FE04Part1MapMedleySurfingKyogre_key+0
 BYTE   PAN   c_v+0
 BYTE   VOL   15*FE04Part1MapMedleySurfingKyogre_mvl/mxv
 BYTE   MOD 0
 BYTE   CnM2
 BYTE   BEND   c_v+0
 BYTE   W10
 BYTE   VOICE   10
 BYTE   PAN   c_v+0
 BYTE   VOL   50*FE04Part1MapMedleySurfingKyogre_mvl/mxv
 BYTE   W84
 BYTE   W02
// 001   ----------------------------------------
 BYTE   W78
Label_6_016F12AC:
 BYTE   W04
 BYTE   N12  Fs3  v127
 BYTE   W12
 BYTE   Cs4
 BYTE   W02
// 002   ----------------------------------------
Label_6_016F12B3:
 BYTE   W10
 BYTE   N48  Gs3  v127
 BYTE   W48
 BYTE   N24  Fs3
 BYTE   W24
 BYTE   N12
 BYTE   W12
 BYTE   Cs4
 BYTE   W02
 BYTE   PEND 
 BYTE   PATT
  POIN2 Label_6_016F12B3
// 003   ----------------------------------------
Label_6_016F12C5:
 BYTE   W10
 BYTE   N24  Gs3  v127
 BYTE   W24
 BYTE   Fs3
 BYTE   W24
 BYTE   An3
 BYTE   W24
 BYTE   Cs4
 BYTE   W14
 BYTE   PEND 
// 004   ----------------------------------------
 BYTE   W10
 BYTE   N48  Bn3
 BYTE   W48
 BYTE   N24  Fs3
 BYTE   W24
 BYTE   N12
 BYTE   W12
 BYTE   Cs4
 BYTE   W02
 BYTE   PATT
  POIN2 Label_6_016F12B3
 BYTE   PATT
  POIN2 Label_6_016F12B3
 BYTE   PATT
  POIN2 Label_6_016F12C5
// 005   ----------------------------------------
 BYTE   W10
 BYTE   N72  Bn3  v127
 BYTE   W72
 BYTE   N12  An3
 BYTE   W12
 BYTE   Bn3
 BYTE   W02
// 006   ----------------------------------------
 BYTE   W10
 BYTE   N48  Cs4
 BYTE   W48
 BYTE   Bn3
 BYTE   W36
 BYTE   W02
// 007   ----------------------------------------
 BYTE   W10
 BYTE   N24  Cs4
 BYTE   W24
 BYTE   Bn3
 BYTE   W24
 BYTE   An3
 BYTE   W24
 BYTE   Gs3
 BYTE   W14
// 008   ----------------------------------------
 BYTE   W10
 BYTE   N12  An3
 BYTE   W12
 BYTE   Bn3
 BYTE   W12
 BYTE   Cs4
 BYTE   W12
 BYTE   N84  Fs3
 BYTE   W48
 BYTE   W02
// 009   ----------------------------------------
 BYTE   W32
 BYTE   W02
 BYTE   N24  Gs3
 BYTE   W24
 BYTE   An3
 BYTE   W24
 BYTE   Cs4
 BYTE   W14
// 010   ----------------------------------------
 BYTE   W10
 BYTE   N12  En4
 BYTE   W12
 BYTE   Dn4
 BYTE   W12
 BYTE   An3
 BYTE   W12
 BYTE   N60  Dn4
 BYTE   W48
 BYTE   W02
// 011   ----------------------------------------
 BYTE   W10
 BYTE   N12
 BYTE   W12
 BYTE   Cs4
 BYTE   W12
 BYTE   Gs3
 BYTE   W12
 BYTE   N60  Cs4
 BYTE   W48
 BYTE   W02
// 012   ----------------------------------------
 BYTE   W10
 BYTE   N12  Bn3
 BYTE   W12
 BYTE   An3
 BYTE   W12
 BYTE   TIE  Fs3
 BYTE   W60
 BYTE   W02
// 013   ----------------------------------------
 BYTE   W80
 BYTE   W02
 BYTE   EOT
 BYTE   W14
// 014   ----------------------------------------
Label_6_016F1340:
 BYTE   W10
 BYTE   N48  Fs3  v127
 BYTE   W48
 BYTE   Cs4
 BYTE   W36
 BYTE   W02
 BYTE   PEND 
// 015   ----------------------------------------
Label_6_016F1349:
 BYTE   W10
 BYTE   N24  Bn3  v127
 BYTE   W24
 BYTE   As3
 BYTE   W24
 BYTE   Gs3
 BYTE   W24
 BYTE   Fs3
 BYTE   W14
 BYTE   PEND 
// 016   ----------------------------------------
 BYTE   W10
 BYTE   N48  Gs3
 BYTE   W48
 BYTE   TIE  Ds3
 BYTE   W36
 BYTE   W02
// 017   ----------------------------------------
 BYTE   W80
 BYTE   W02
 BYTE   EOT
 BYTE   W14
// 018   ----------------------------------------
 BYTE   W10
 BYTE   N48
 BYTE   W48
 BYTE   Fn3
 BYTE   W36
 BYTE   W02
// 019   ----------------------------------------
 BYTE   W10
 BYTE   Fs3
 BYTE   W48
 BYTE   Gs3
 BYTE   W36
 BYTE   W02
// 020   ----------------------------------------
 BYTE   W10
 BYTE   N96  As3
 BYTE   W84
 BYTE   W02
// 021   ----------------------------------------
 BYTE   W32
 BYTE   W02
 BYTE   N12  Fs2
 BYTE   W12
 BYTE   As2
 BYTE   W12
 BYTE   Cs3
 BYTE   W12
 BYTE   Fs3
 BYTE   W12
 BYTE   As3
 BYTE   W12
 BYTE   Cs4
 BYTE   W02
 BYTE   PATT
  POIN2 Label_6_016F1340
 BYTE   PATT
  POIN2 Label_6_016F1349
// 022   ----------------------------------------
 BYTE   W10
 BYTE   N48  Gs3  v127
 BYTE   W48
 BYTE   N96  Ds4
 BYTE   W36
 BYTE   W02
// 023   ----------------------------------------
 BYTE   W56
 BYTE   W02
 BYTE   N24
 BYTE   W24
 BYTE   Fn4
 BYTE   W14
// 024   ----------------------------------------
 BYTE   W10
 BYTE   N36  Fs4
 BYTE   W36
 BYTE   N60  Dn4
 BYTE   W48
 BYTE   W02
// 025   ----------------------------------------
Label_6_016F13A2:
 BYTE   W10
 BYTE   N48  En4  v127
 BYTE   W48
 BYTE   Dn4
 BYTE   W36
 BYTE   W02
 BYTE   PEND 
// 026   ----------------------------------------
 BYTE   W10
 BYTE   N36  Fs4
 BYTE   W36
 BYTE   TIE  Cs4
 BYTE   W48
 BYTE   W02
// 027   ----------------------------------------
 BYTE   W80
 BYTE   W02
 BYTE   EOT
 BYTE   W14
// 028   ----------------------------------------
Label_6_016F13B7:
 BYTE   W10
 BYTE   N24  Fs3  v127
 BYTE   W24
 BYTE   N08
 BYTE   W08
 BYTE   Gs3
 BYTE   W08
 BYTE   An3
 BYTE   W08
 BYTE   N24  Gs3
 BYTE   W24
 BYTE   En3
 BYTE   W14
 BYTE   PEND 
// 029   ----------------------------------------
 BYTE   W10
 BYTE   N96  Fs3
 BYTE   W84
 BYTE   W02
 BYTE   PATT
  POIN2 Label_6_016F13B7
// 030   ----------------------------------------
 BYTE   W10
 BYTE   N24  Fs3  v127
 BYTE   W24
 BYTE   N12  Cs3
 BYTE   W12
 BYTE   Bn2
 BYTE   W12
 BYTE   N24  As2
 BYTE   W24
 BYTE   N12  Fs3
 BYTE   W12
 BYTE   Gs3
 BYTE   W02
// 031   ----------------------------------------
 BYTE   W10
 BYTE   N48  As3
 BYTE   W48
 BYTE   N72  Ds3
 BYTE   W36
 BYTE   W02
// 032   ----------------------------------------
 BYTE   W32
 BYTE   W02
 BYTE   N24  Fn3
 BYTE   W24
 BYTE   Fs3
 BYTE   W24
 BYTE   Gs3
 BYTE   W14
// 033   ----------------------------------------
 BYTE   W10
 BYTE   N48
 BYTE   W48
 BYTE   N24  Cs3
 BYTE   W24
 BYTE   Gs3
 BYTE   W14
// 034   ----------------------------------------
 BYTE   W10
 BYTE   N24
 BYTE   W24
 BYTE   Fs3
 BYTE   W24
 BYTE   En3
 BYTE   W24
 BYTE   Ds3
 BYTE   W14
// 035   ----------------------------------------
 BYTE   W10
 BYTE   N48  Fs3
 BYTE   W48
 BYTE   N24  Bn2
 BYTE   W24
 BYTE   Fs3
 BYTE   W14
// 036   ----------------------------------------
 BYTE   W10
 BYTE   N24
 BYTE   W24
 BYTE   Fn3
 BYTE   W24
 BYTE   Ds3
 BYTE   W24
 BYTE   Cs3
 BYTE   W14
// 037   ----------------------------------------
 BYTE   W10
 BYTE   N48  Fn3
 BYTE   W48
 BYTE   N72  As2
 BYTE   W36
 BYTE   W02
// 038   ----------------------------------------
 BYTE   W32
 BYTE   W02
 BYTE   N24
 BYTE   W24
 BYTE   Gs2
 BYTE   W24
 BYTE   As2
 BYTE   W14
// 039   ----------------------------------------
 BYTE   W10
 BYTE   N48  Bn2
 BYTE   W48
 BYTE   N24  As3
 BYTE   W24
 BYTE   Gs3
 BYTE   W14
// 040   ----------------------------------------
 BYTE   W10
 BYTE   Fs3
 BYTE   W24
 BYTE   Fn3
 BYTE   W24
 BYTE   Ds3
 BYTE   W24
 BYTE   Fn3
 BYTE   W14
// 041   ----------------------------------------
 BYTE   W10
 BYTE   N48  Cs3
 BYTE   W48
 BYTE   N24  Ds3
 BYTE   W24
 BYTE   Fn3
 BYTE   W14
// 042   ----------------------------------------
 BYTE   W10
 BYTE   Gs3
 BYTE   W24
 BYTE   Fs3
 BYTE   W24
 BYTE   Fn3
 BYTE   W24
 BYTE   Fs3
 BYTE   W14
// 043   ----------------------------------------
 BYTE   W10
 BYTE   N96  Ds3
 BYTE   W84
 BYTE   W02
// 044   ----------------------------------------
 BYTE   W10
 BYTE   Fn3
 BYTE   W84
 BYTE   W02
// 045   ----------------------------------------
 BYTE   W32
 BYTE   W02
 BYTE   N12  An3
 BYTE   W12
 BYTE   Bn3
 BYTE   W12
 BYTE   N24  Cs4
 BYTE   W24
 BYTE   En4
 BYTE   W14
// 046   ----------------------------------------
 BYTE   W10
 BYTE   Ds4
 BYTE   W24
 BYTE   Bn3
 BYTE   W24
 BYTE   Cs4
 BYTE   W24
 BYTE   N12  An3
 BYTE   W12
 BYTE   Bn3
 BYTE   W02
// 047   ----------------------------------------
Label_6_016F146D:
 BYTE   W10
 BYTE   N24  Cs4  v127
 BYTE   W24
 BYTE   N12  Bn3
 BYTE   W12
 BYTE   An3
 BYTE   W12
 BYTE   N24  Bn3
 BYTE   W24
 BYTE   Gs3
 BYTE   W14
 BYTE   PEND 
// 048   ----------------------------------------
 BYTE   W10
 BYTE   An3
 BYTE   W24
 BYTE   N12  Fs3
 BYTE   W12
 BYTE   An3
 BYTE   W12
 BYTE   N24  Gs3
 BYTE   W24
 BYTE   N12  An3
 BYTE   W12
 BYTE   Bn3
 BYTE   W02
// 049   ----------------------------------------
 BYTE   W32
 BYTE   W02
 BYTE   N24  Cs4
 BYTE   W24
 BYTE   N12  En4
 BYTE   W12
 BYTE   Ds4
 BYTE   W12
 BYTE   Bn3
 BYTE   W12
 BYTE   Ds4
 BYTE   W02
// 050   ----------------------------------------
 BYTE   W10
 BYTE   N72  Cs4
 BYTE   W72
 BYTE   N12  An3
 BYTE   W12
 BYTE   Bn3
 BYTE   W02
 BYTE   PATT
  POIN2 Label_6_016F146D
// 051   ----------------------------------------
 BYTE   W10
 BYTE   N12  An3  v127
 BYTE   W12
 BYTE   Gs3
 BYTE   W12
 BYTE   Fs3
 BYTE   W12
 BYTE   An3
 BYTE   W12
 BYTE   N24  Gs3
 BYTE   W24
 BYTE   N12  Fs3
 BYTE   W12
 BYTE   En3
 BYTE   W02
// 052   ----------------------------------------
 BYTE   W10
 BYTE   Dn3
 BYTE   W12
 BYTE   En3
 BYTE   W12
 BYTE   N36  Fs3
 BYTE   W36
 BYTE   N12  Dn3
 BYTE   W12
 BYTE   En3
 BYTE   W12
 BYTE   Fs3
 BYTE   W02
// 053   ----------------------------------------
Label_6_016F14CB:
 BYTE   W10
 BYTE   N12  En3  v127
 BYTE   W12
 BYTE   Fs3
 BYTE   W12
 BYTE   N36  Gn3
 BYTE   W36
 BYTE   N12  En3
 BYTE   W12
 BYTE   Fs3
 BYTE   W12
 BYTE   Gn3
 BYTE   W02
 BYTE   PEND 
 BYTE   PATT
  POIN2 Label_6_016F14CB
// 054   ----------------------------------------
 BYTE   W10
 BYTE   N12  Fs3  v127
 BYTE   W12
 BYTE   Gn3
 BYTE   W12
 BYTE   N24  An3
 BYTE   W24
 BYTE   Gn3
 BYTE   W24
 BYTE   Fs3
 BYTE   W14
// 055   ----------------------------------------
Label_6_016F14F0:
 BYTE   W10
 BYTE   N48  En3  v127
 BYTE   W48
 BYTE   N24  Fs3
 BYTE   W24
 BYTE   Gn3
 BYTE   W14
 BYTE   PEND 
// 056   ----------------------------------------
 BYTE   W10
 BYTE   An3
 BYTE   W24
 BYTE   Fs3
 BYTE   W24
 BYTE   TIE  En3
 BYTE   W36
 BYTE   W02
// 057   ----------------------------------------
 BYTE   W68
 BYTE   W02
 BYTE   EOT
 BYTE   N12  Fs3
 BYTE   W12
 BYTE   Gn3
 BYTE   W12
 BYTE   An3
 BYTE   W02
// 058   ----------------------------------------
 BYTE   W10
 BYTE   N48  Bn3
 BYTE   W48
 BYTE   N24  Dn4
 BYTE   W24
 BYTE   N48  Cs4
 BYTE   W14
// 059   ----------------------------------------
 BYTE   W32
 BYTE   W02
 BYTE   N24  An3
 BYTE   W24
 BYTE   N48  En3
 BYTE   W36
 BYTE   W02
// 060   ----------------------------------------
 BYTE   W10
 BYTE   N24
 BYTE   W24
 BYTE   Fs3
 BYTE   W24
 BYTE   En3
 BYTE   W24
 BYTE   Dn3
 BYTE   W14
 BYTE   PATT
  POIN2 Label_6_016F14F0
// 061   ----------------------------------------
 BYTE   W10
 BYTE   N24  An3  v127
 BYTE   W24
 BYTE   Fs3
 BYTE   W24
 BYTE   N60  En3
 BYTE   W36
 BYTE   W02
// 062   ----------------------------------------
 BYTE   W22
 BYTE   N12  Bn2
 BYTE   W12
 BYTE   En3
 BYTE   W12
 BYTE   Fs3
 BYTE   W12
 BYTE   Gn3
 BYTE   W12
 BYTE   An3
 BYTE   W12
 BYTE   Bn3
 BYTE   W12
 BYTE   Cn4
 BYTE   W02
// 063   ----------------------------------------
 BYTE   W10
 BYTE   N36  Dn4
 BYTE   W36
 BYTE   N12  Bn3
 BYTE   W12
 BYTE   Fs3
 BYTE   W12
 BYTE   Dn3
 BYTE   W12
 BYTE   N24
 BYTE   W14
// 064   ----------------------------------------
 BYTE   W10
 BYTE   N36  En3
 BYTE   W36
 BYTE   N12  Fs3
 BYTE   W12
 BYTE   N36  Gn3
 BYTE   W36
 BYTE   N12  Fs3
 BYTE   W02
// 065   ----------------------------------------
 BYTE   W10
 BYTE   Gn3
 BYTE   W12
 BYTE   An3
 BYTE   W12
 BYTE   N24  Fs3
 BYTE   W24
 BYTE   N12  Gn3
 BYTE   W12
 BYTE   Fs3
 BYTE   W12
 BYTE   Gn3
 BYTE   W12
 BYTE   An3
 BYTE   W02
// 066   ----------------------------------------
Label_6_016F1575:
 BYTE   W10
 BYTE   N24  Bn3  v127
 BYTE   W24
 BYTE   N36  Dn4
 BYTE   W36
 BYTE   N12  Bn3
 BYTE   W12
 BYTE   N24  Cs4
 BYTE   W14
 BYTE   PEND 
// 067   ----------------------------------------
Label_6_016F1584:
 BYTE   W10
 BYTE   N36  En4  v127
 BYTE   W36
 BYTE   N12  Cs4
 BYTE   W12
 BYTE   N24  Dn4
 BYTE   W24
 BYTE   N36  Bn3
 BYTE   W14
 BYTE   PEND 
// 068   ----------------------------------------
 BYTE   W22
 BYTE   N12  Dn4
 BYTE   W12
 BYTE   N24  Cs4
 BYTE   W24
 BYTE   N48  An3
 BYTE   W36
 BYTE   W02
 BYTE   PATT
  POIN2 Label_6_016F1575
 BYTE   PATT
  POIN2 Label_6_016F1584
// 069   ----------------------------------------
 BYTE   W22
 BYTE   N12  Dn4  v127
 BYTE   W12
 BYTE   N24  Cs4
 BYTE   W24
 BYTE   N12  En4
 BYTE   W12
 BYTE   Dn4
 BYTE   W12
 BYTE   Cs4
 BYTE   W12
 BYTE   Bn3
 BYTE   W02
// 070   ----------------------------------------
 BYTE   W10
 BYTE   N36  An3
 BYTE   W36
 BYTE   N12  Fs3
 BYTE   W12
 BYTE   Gn3
 BYTE   W12
 BYTE   An3
 BYTE   W12
 BYTE   N36  Bn3
 BYTE   W14
// 071   ----------------------------------------
 BYTE   W22
 BYTE   N12  Gn3
 BYTE   W12
 BYTE   An3
 BYTE   W12
 BYTE   Bn3
 BYTE   W12
 BYTE   N36
 BYTE   W36
 BYTE   N12
 BYTE   W02
// 072   ----------------------------------------
 BYTE   W10
 BYTE   Cs4
 BYTE   W12
 BYTE   Dn4
 BYTE   W12
 BYTE   N36  Cs4
 BYTE   W36
 BYTE   N12  Fs3
 BYTE   W12
 BYTE   An3
 BYTE   W12
 BYTE   Cs4
 BYTE   W02
// 073   ----------------------------------------
Label_6_016F15E2:
 BYTE   W10
 BYTE   N96  Fs4  v127
 BYTE   W84
 BYTE   W02
 BYTE   PEND 
// 074   ----------------------------------------
 BYTE   W96
// 075   ----------------------------------------
 BYTE   W96
// 076   ----------------------------------------
 BYTE   W96
// 077   ----------------------------------------
 BYTE   W80
 BYTE   W02
 BYTE   N12  Bn3
 BYTE   W12
 BYTE   Cs4
 BYTE   W02
// 078   ----------------------------------------
Label_6_016F15F3:
 BYTE   W10
 BYTE   N24  Dn4  v127
 BYTE   W24
 BYTE   N12  Cs4
 BYTE   W12
 BYTE   N36  En4
 BYTE   W36
 BYTE   N12  Dn4
 BYTE   W12
 BYTE   Cs4
 BYTE   W02
 BYTE   PEND 
// 079   ----------------------------------------
Label_6_016F1604:
 BYTE   W10
 BYTE   N72  Cs4  v127
 BYTE   W72
 BYTE   N12  Bn3
 BYTE   W12
 BYTE   Cs4
 BYTE   W02
 BYTE   PEND 
 BYTE   PATT
  POIN2 Label_6_016F15F3
 BYTE   PATT
  POIN2 Label_6_016F1604
// 080   ----------------------------------------
 BYTE   W10
 BYTE   N24  Dn4  v127
 BYTE   W24
 BYTE   Cs4
 BYTE   W24
 BYTE   En4
 BYTE   W24
 BYTE   N12  Cs4
 BYTE   W12
 BYTE   Dn4
 BYTE   W02
// 081   ----------------------------------------
 BYTE   W10
 BYTE   N48
 BYTE   W48
 BYTE   En4
 BYTE   W36
 BYTE   W02
// 082   ----------------------------------------
 BYTE   W10
 BYTE   N24
 BYTE   W24
 BYTE   Fs4
 BYTE   W24
 BYTE   N48  Cs4
 BYTE   W36
 BYTE   W02
// 083   ----------------------------------------
 BYTE   W10
 BYTE   An3
 BYTE   W48
 BYTE   Fs3
 BYTE   W36
 BYTE   W02
// 084   ----------------------------------------
 BYTE   W10
 BYTE   N24  An3
 BYTE   W24
 BYTE   Gn3
 BYTE   W24
 BYTE   Fs3
 BYTE   W24
 BYTE   Gn3
 BYTE   W14
// 085   ----------------------------------------
 BYTE   W10
 BYTE   N72  Dn4
 BYTE   W72
 BYTE   N24  Gn3
 BYTE   W14
// 086   ----------------------------------------
 BYTE   W10
 BYTE   N48  Fs3
 BYTE   W48
 BYTE   An3
 BYTE   W36
 BYTE   W02
// 087   ----------------------------------------
 BYTE   W10
 BYTE   Dn4
 BYTE   W48
 BYTE   Fs4
 BYTE   W36
 BYTE   W02
 BYTE   PATT
  POIN2 Label_6_016F15E2
 BYTE   PATT
  POIN2 Label_6_016F13A2
// 088   ----------------------------------------
Label_6_016F1664:
 BYTE   W10
 BYTE   N96  Cs4  v127
 BYTE   W84
 BYTE   W02
 BYTE   PEND 
// 089   ----------------------------------------
 BYTE   W96
// 090   ----------------------------------------
Label_6_016F166C:
 BYTE   W10
 BYTE   N96  Bn3  v127
 BYTE   W84
 BYTE   W02
 BYTE   PEND 
// 091   ----------------------------------------
 BYTE   W10
 BYTE   N72  Cs4
 BYTE   W72
 BYTE   N12  Dn4
 BYTE   W12
 BYTE   En4
 BYTE   W02
// 092   ----------------------------------------
 BYTE   W10
 BYTE   N48  Dn4
 BYTE   W48
 BYTE   Bn3
 BYTE   W36
 BYTE   W02
 BYTE   PATT
  POIN2 Label_6_016F1664
 BYTE   PATT
  POIN2 Label_6_016F166C
// 093   ----------------------------------------
 BYTE   W10
 BYTE   N60  Cs4  v127
 BYTE   W60
 BYTE   N24  Dn4
 BYTE   W24
 BYTE   N12  En4
 BYTE   W02
// 094   ----------------------------------------
 BYTE   W10
 BYTE   N24  Dn4
 BYTE   W24
 BYTE   An3
 BYTE   W24
 BYTE   Dn4
 BYTE   W24
 BYTE   An4
 BYTE   W14
// 095   ----------------------------------------
 BYTE   W10
 BYTE   N48  En4
 BYTE   W48
 BYTE   An4
 BYTE   W36
 BYTE   W02
// 096   ----------------------------------------
 BYTE   W10
 BYTE   N96
 BYTE   W84
 BYTE   W02
// 097   ----------------------------------------
 BYTE   W10
 BYTE   N24
 BYTE   W24
 BYTE   Gs4
 BYTE   W24
 BYTE   Fs4
 BYTE   W24
 BYTE   Gs4
 BYTE   W14
// 098   ----------------------------------------
 BYTE   W10
 BYTE   TIE  An4
 BYTE   W84
 BYTE   W02
// 099   ----------------------------------------
 BYTE   W44
 BYTE   W02
 BYTE   EOT
 BYTE   TIE  Cs5
 BYTE   W48
 BYTE   W02
// 100   ----------------------------------------
 BYTE   W64
 BYTE   VOL   45*FE04Part1MapMedleySurfingKyogre_mvl/mxv
 BYTE   W06
 BYTE   Fn3
 BYTE   W06
 BYTE   Cn3
 BYTE   W06
 BYTE   Gn2
 BYTE   W06
 BYTE   Dn2
 BYTE   W06
 BYTE   An1
 BYTE   W02
// 101   ----------------------------------------
 BYTE   W04
 BYTE   En1
 BYTE   W06
 BYTE   EOT
 BYTE   VOICE   10
 BYTE   PAN   c_v+0
 BYTE   VOL   50*FE04Part1MapMedleySurfingKyogre_mvl/mxv
 BYTE   W03
 BYTE   Ds4
 BYTE   W06
 BYTE   Dn4
 BYTE   W06
 BYTE   Dn4
 BYTE   W07
 BYTE   Cs4
 BYTE   W06
 BYTE   Cs4
 BYTE   W06
 BYTE   Cn4
 BYTE   W07
 BYTE   Bn3
 BYTE   W06
 BYTE   Bn3
 BYTE   W07
 BYTE   As3
 BYTE   W06
 BYTE   An3
 BYTE   W06
 BYTE   An3
 BYTE   W07
 BYTE   Gs3
 BYTE   W06
 BYTE   Gs3
 BYTE   W07
// 102   ----------------------------------------
 BYTE   Gn3
 BYTE   W06
 BYTE   Fs3
 BYTE   W06
 BYTE   Fs3
 BYTE   W07
 BYTE   Fs3
 BYTE   W06
 BYTE   Fn3
 BYTE   W07
 BYTE   En3
 BYTE   W06
 BYTE   En3
 BYTE   W06
 BYTE   Ds3
 BYTE   W07
 BYTE   Dn3
 BYTE   W06
 BYTE   Dn3
 BYTE   W07
 BYTE   Cs3
 BYTE   W06
 BYTE   Cs3
 BYTE   W06
 BYTE   Cn3
 BYTE   W02
 BYTE   GoTo
  POIN2 Label_6_016F12AC
// 103   ----------------------------------------
 BYTE   W04
 BYTE   N12  Fs3  v127
 BYTE   W01
 BYTE   VOL   34*FE04Part1MapMedleySurfingKyogre_mvl/mxv
 BYTE   W06
 BYTE   Bn2
 BYTE   W05
 BYTE   N12  Cs4
 BYTE   W02
 BYTE   VOL   33*FE04Part1MapMedleySurfingKyogre_mvl/mxv
 BYTE   W06
 BYTE   An2
 BYTE   W04
 BYTE   N48  Gs3
 BYTE   W02
 BYTE   VOL   32*FE04Part1MapMedleySurfingKyogre_mvl/mxv
 BYTE   W07
 BYTE   Gs2
 BYTE   W06
 BYTE   Gs2
 BYTE   W07
 BYTE   Gs2
 BYTE   W06
 BYTE   Gn2
 BYTE   W06
 BYTE   Fs2
 BYTE   W07
 BYTE   Fs2
 BYTE   W06
 BYTE   Fn2
 BYTE   W01
 BYTE   N24  Fs3
 BYTE   W06
 BYTE   VOL   27*FE04Part1MapMedleySurfingKyogre_mvl/mxv
 BYTE   W06
 BYTE   En2
 BYTE   W06
 BYTE   Ds2
 BYTE   W06
// 104   ----------------------------------------
 BYTE   N12
 BYTE   W01
 BYTE   VOL   26*FE04Part1MapMedleySurfingKyogre_mvl/mxv
 BYTE   W06
 BYTE   Dn2
 BYTE   W05
 BYTE   N12  Cs4
 BYTE   W02
 BYTE   VOL   24*FE04Part1MapMedleySurfingKyogre_mvl/mxv
 BYTE   W06
 BYTE   Cs2
 BYTE   W04
 BYTE   N48  Gs3
 BYTE   W02
 BYTE   VOL   23*FE04Part1MapMedleySurfingKyogre_mvl/mxv
 BYTE   W07
 BYTE   Bn1
 BYTE   W06
 BYTE   Bn1
 BYTE   W07
 BYTE   Bn1
 BYTE   W06
 BYTE   As1
 BYTE   W06
 BYTE   An1
 BYTE   W07
 BYTE   An1
 BYTE   W06
 BYTE   Gs1
 BYTE   W01
 BYTE   N24  Fs3
 BYTE   W06
 BYTE   VOL   19*FE04Part1MapMedleySurfingKyogre_mvl/mxv
 BYTE   W06
 BYTE   Gn1
 BYTE   W06
 BYTE   Fs1
 BYTE   W06
// 105   ----------------------------------------
 BYTE   N12
 BYTE   W01
 BYTE   VOL   17*FE04Part1MapMedleySurfingKyogre_mvl/mxv
 BYTE   W06
 BYTE   Fn1
 BYTE   W05
 BYTE   N12  Cs4
 BYTE   W02
 BYTE   VOL   15*FE04Part1MapMedleySurfingKyogre_mvl/mxv
 BYTE   W06
 BYTE   En1
 BYTE   W04
 BYTE   N24  Gs3
 BYTE   W02
 BYTE   VOL   14*FE04Part1MapMedleySurfingKyogre_mvl/mxv
 BYTE   W07
 BYTE   Ds1
 BYTE   W06
 BYTE   Dn1
 BYTE   W07
 BYTE   Cs1
 BYTE   W02
 BYTE   N24  Fs3
 BYTE   W04
 BYTE   VOL   12*FE04Part1MapMedleySurfingKyogre_mvl/mxv
 BYTE   W06
 BYTE   Cs1
 BYTE   W07
 BYTE   Cn1
 BYTE   W06
 BYTE   Bn0
 BYTE   W01
 BYTE   N24  An3
 BYTE   W06
 BYTE   VOL   10*FE04Part1MapMedleySurfingKyogre_mvl/mxv
 BYTE   W06
 BYTE   As0
 BYTE   W06
 BYTE   As0
 BYTE   W06
// 106   ----------------------------------------
 BYTE   N24  Cs4
 BYTE   W01
 BYTE   VOL   8*FE04Part1MapMedleySurfingKyogre_mvl/mxv
 BYTE   W06
 BYTE   Gs0
 BYTE   W07
 BYTE   Gs0
 BYTE   W06
 BYTE   Gn0
 BYTE   W04
 BYTE   N48  Bn3
 BYTE   W02
 BYTE   VOL   5*FE04Part1MapMedleySurfingKyogre_mvl/mxv
 BYTE   W07
 BYTE   Fs0
 BYTE   W06
 BYTE   Fn0
 BYTE   W07
 BYTE   En0
 BYTE   W06
 BYTE   En0
 BYTE   W06
 BYTE   En0
 BYTE   W07
 BYTE   Ds0
 BYTE   W06
 BYTE   Ds0
 BYTE   W01
 BYTE   N24  Fs3
 BYTE   W06
 BYTE   VOL   1*FE04Part1MapMedleySurfingKyogre_mvl/mxv
 BYTE   W06
 BYTE   Cs0
 BYTE   W06
 BYTE   Cs0
 BYTE   W06
// 107   ----------------------------------------
 BYTE   N12
 BYTE   W01
 BYTE   VOL   0*FE04Part1MapMedleySurfingKyogre_mvl/mxv
 BYTE   W06
 BYTE   BnM1
 BYTE   W05
 BYTE   N12  Cs4
 BYTE   W02
 BYTE   VOL   0*FE04Part1MapMedleySurfingKyogre_mvl/mxv
 BYTE   W06
 BYTE   AsM1
 BYTE   W04
 BYTE   N48  Gs3
 BYTE   W02
 BYTE   VOL   0*FE04Part1MapMedleySurfingKyogre_mvl/mxv
 BYTE   W07
 BYTE   AnM1
 BYTE   W06
 BYTE   GsM1
 BYTE   W07
 BYTE   GsM1
 BYTE   W06
 BYTE   GnM1
 BYTE   W06
 BYTE   FsM1
 BYTE   W07
 BYTE   FsM1
 BYTE   W06
 BYTE   FsM1
 BYTE   W01
 BYTE   N24  Fs3
 BYTE   W06
 BYTE   VOL   0*FE04Part1MapMedleySurfingKyogre_mvl/mxv
 BYTE   W06
 BYTE   FnM1
 BYTE   W06
 BYTE   EnM1
 BYTE   W06
// 108   ----------------------------------------
 BYTE   N12
 BYTE   W01
 BYTE   VOL   0*FE04Part1MapMedleySurfingKyogre_mvl/mxv
 BYTE   W06
 BYTE   DsM1
 BYTE   W05
 BYTE   N12  Cs4
 BYTE   W02
 BYTE   VOL   0*FE04Part1MapMedleySurfingKyogre_mvl/mxv
 BYTE   W06
 BYTE   CsM1
 BYTE   W04
 BYTE   N48  Gs3
 BYTE   W02
 BYTE   VOL   0*FE04Part1MapMedleySurfingKyogre_mvl/mxv
 BYTE   W07
 BYTE   CnM1
 BYTE   W06
 BYTE   BnM2
 BYTE   W07
 BYTE   BnM2
 BYTE   W06
 BYTE   AsM2
 BYTE   W06
 BYTE   AsM2
 BYTE   W07
 BYTE   AnM2
 BYTE   W06
 BYTE   AnM2
 BYTE   W01
 BYTE   N24  Fs3
 BYTE   W06
 BYTE   VOL   0*FE04Part1MapMedleySurfingKyogre_mvl/mxv
 BYTE   W06
 BYTE   GsM2
 BYTE   W06
 BYTE   GnM2
 BYTE   W06
// 109   ----------------------------------------
 BYTE   N12
 BYTE   W01
 BYTE   VOL   0*FE04Part1MapMedleySurfingKyogre_mvl/mxv
 BYTE   W06
 BYTE   FsM2
 BYTE   W05
 BYTE   N12  Cs4
 BYTE   W02
 BYTE   VOL   0*FE04Part1MapMedleySurfingKyogre_mvl/mxv
 BYTE   W06
 BYTE   FnM2
 BYTE   W04
 BYTE   N24  Gs3
 BYTE   W02
 BYTE   VOL   0*FE04Part1MapMedleySurfingKyogre_mvl/mxv
 BYTE   W07
 BYTE   DsM2
 BYTE   W06
 BYTE   DsM2
 BYTE   W07
 BYTE   DnM2
 BYTE   W02
 BYTE   N24  Fs3
 BYTE   W04
 BYTE   VOL   0*FE04Part1MapMedleySurfingKyogre_mvl/mxv
 BYTE   W06
 BYTE   CsM2
 BYTE   W07
 BYTE   CnM2
 BYTE   W06
 BYTE   CnM2
 BYTE   W01
 BYTE   N05  An3
 BYTE   W06
 BYTE   VOL   0*FE04Part1MapMedleySurfingKyogre_mvl/mxv
 BYTE   FINE

//**************** Track 8 (Midi-Chn.7) ****************//

FE04Part1MapMedleySurfingKyogre_008:
// 000   ----------------------------------------
 BYTE   KEYSH   FE04Part1MapMedleySurfingKyogre_key+0
 BYTE   PAN   c_v+0
 BYTE   VOL   15*FE04Part1MapMedleySurfingKyogre_mvl/mxv
 BYTE   MOD 0
 BYTE   CnM2
 BYTE   BEND   c_v+0
 BYTE   W10
 BYTE   VOICE   48
 BYTE   PAN   c_v+11
 BYTE   VOL   25*FE04Part1MapMedleySurfingKyogre_mvl/mxv
 BYTE   W84
 BYTE   W02
// 001   ----------------------------------------
 BYTE   W78
Label_7_016F186C:
 BYTE   W04
 BYTE   N12  Fs3  v127
 BYTE   W12
 BYTE   Cs4
 BYTE   W02
// 002   ----------------------------------------
Label_7_016F1873:
 BYTE   W10
 BYTE   N48  Gs3  v127
 BYTE   W48
 BYTE   N24  Fs3
 BYTE   W24
 BYTE   N12
 BYTE   W12
 BYTE   Cs4
 BYTE   W02
 BYTE   PEND 
 BYTE   PATT
  POIN2 Label_7_016F1873
// 003   ----------------------------------------
Label_7_016F1885:
 BYTE   W10
 BYTE   N24  Gs3  v127
 BYTE   W24
 BYTE   Fs3
 BYTE   W24
 BYTE   An3
 BYTE   W24
 BYTE   Cs4
 BYTE   W14
 BYTE   PEND 
// 004   ----------------------------------------
 BYTE   W10
 BYTE   N48  Bn3
 BYTE   W48
 BYTE   N24  Fs3
 BYTE   W24
 BYTE   N12
 BYTE   W12
 BYTE   Cs4
 BYTE   W02
 BYTE   PATT
  POIN2 Label_7_016F1873
 BYTE   PATT
  POIN2 Label_7_016F1873
 BYTE   PATT
  POIN2 Label_7_016F1885
// 005   ----------------------------------------
 BYTE   W10
 BYTE   N72  Bn3  v127
 BYTE   W72
 BYTE   N12  An3
 BYTE   W12
 BYTE   Bn3
 BYTE   W02
// 006   ----------------------------------------
 BYTE   W10
 BYTE   N48  Cs4
 BYTE   W48
 BYTE   Bn3
 BYTE   W36
 BYTE   W02
// 007   ----------------------------------------
 BYTE   W10
 BYTE   N24  Cs4
 BYTE   W24
 BYTE   Bn3
 BYTE   W24
 BYTE   An3
 BYTE   W24
 BYTE   Gs3
 BYTE   W14
// 008   ----------------------------------------
 BYTE   W10
 BYTE   N12  An3
 BYTE   W12
 BYTE   Bn3
 BYTE   W12
 BYTE   Cs4
 BYTE   W12
 BYTE   N84  Fs3
 BYTE   W48
 BYTE   W02
// 009   ----------------------------------------
 BYTE   W32
 BYTE   W02
 BYTE   N24  Gs3
 BYTE   W24
 BYTE   An3
 BYTE   W24
 BYTE   Cs4
 BYTE   W14
// 010   ----------------------------------------
 BYTE   W10
 BYTE   N12  En4
 BYTE   W12
 BYTE   Dn4
 BYTE   W12
 BYTE   An3
 BYTE   W12
 BYTE   N60  Dn4
 BYTE   W48
 BYTE   W02
// 011   ----------------------------------------
 BYTE   W10
 BYTE   N12
 BYTE   W12
 BYTE   Cs4
 BYTE   W12
 BYTE   Gs3
 BYTE   W12
 BYTE   N60  Cs4
 BYTE   W48
 BYTE   W02
// 012   ----------------------------------------
 BYTE   W10
 BYTE   N12  Bn3
 BYTE   W12
 BYTE   An3
 BYTE   W12
 BYTE   TIE  Fs3
 BYTE   W60
 BYTE   W02
// 013   ----------------------------------------
 BYTE   W80
 BYTE   W02
 BYTE   EOT
 BYTE   W14
// 014   ----------------------------------------
 BYTE   W10
 BYTE   VOL   41*FE04Part1MapMedleySurfingKyogre_mvl/mxv
 BYTE   N48
 BYTE   W48
 BYTE   Cs4
 BYTE   W36
 BYTE   W02
// 015   ----------------------------------------
Label_7_016F1908:
 BYTE   W10
 BYTE   N24  Bn3  v127
 BYTE   W24
 BYTE   As3
 BYTE   W24
 BYTE   Gs3
 BYTE   W24
 BYTE   Fs3
 BYTE   W14
 BYTE   PEND 
// 016   ----------------------------------------
 BYTE   W10
 BYTE   N48  Gs3
 BYTE   W48
 BYTE   TIE  Ds3
 BYTE   W36
 BYTE   W02
// 017   ----------------------------------------
 BYTE   W80
 BYTE   W02
 BYTE   EOT
 BYTE   W14
// 018   ----------------------------------------
 BYTE   W10
 BYTE   N48
 BYTE   W48
 BYTE   Fn3
 BYTE   W36
 BYTE   W02
// 019   ----------------------------------------
 BYTE   W10
 BYTE   Fs3
 BYTE   W48
 BYTE   Gs3
 BYTE   W36
 BYTE   W02
// 020   ----------------------------------------
 BYTE   W10
 BYTE   N96  As3
 BYTE   W84
 BYTE   W02
// 021   ----------------------------------------
 BYTE   W32
 BYTE   W02
 BYTE   N12  Fs2
 BYTE   W12
 BYTE   As2
 BYTE   W12
 BYTE   Cs3
 BYTE   W12
 BYTE   Fs3
 BYTE   W12
 BYTE   As3
 BYTE   W12
 BYTE   Cs4
 BYTE   W02
// 022   ----------------------------------------
 BYTE   W10
 BYTE   N48  Fs3
 BYTE   W48
 BYTE   Cs4
 BYTE   W36
 BYTE   W02
 BYTE   PATT
  POIN2 Label_7_016F1908
// 023   ----------------------------------------
 BYTE   W10
 BYTE   N48  Gs3  v127
 BYTE   W48
 BYTE   N96  Ds4
 BYTE   W36
 BYTE   W02
// 024   ----------------------------------------
 BYTE   W56
 BYTE   W02
 BYTE   N24
 BYTE   W24
 BYTE   Fn4
 BYTE   W14
// 025   ----------------------------------------
 BYTE   W10
 BYTE   N36  Fs4
 BYTE   W36
 BYTE   N60  Dn4
 BYTE   W48
 BYTE   W02
// 026   ----------------------------------------
Label_7_016F1963:
 BYTE   W10
 BYTE   N48  En4  v127
 BYTE   W48
 BYTE   Dn4
 BYTE   W36
 BYTE   W02
 BYTE   PEND 
// 027   ----------------------------------------
 BYTE   W10
 BYTE   N36  Fs4
 BYTE   W36
 BYTE   TIE  Cs4
 BYTE   W48
 BYTE   W02
// 028   ----------------------------------------
 BYTE   W80
 BYTE   W02
 BYTE   EOT
 BYTE   W14
// 029   ----------------------------------------
 BYTE   W10
 BYTE   VOL   25*FE04Part1MapMedleySurfingKyogre_mvl/mxv
 BYTE   N24  Fs3
 BYTE   W24
 BYTE   N08
 BYTE   W08
 BYTE   Gs3
 BYTE   W08
 BYTE   An3
 BYTE   W08
 BYTE   N24  Gs3
 BYTE   W24
 BYTE   En3
 BYTE   W14
// 030   ----------------------------------------
 BYTE   W10
 BYTE   N96  Fs3
 BYTE   W84
 BYTE   W02
// 031   ----------------------------------------
 BYTE   W10
 BYTE   N24
 BYTE   W24
 BYTE   N08
 BYTE   W08
 BYTE   Gs3
 BYTE   W08
 BYTE   An3
 BYTE   W08
 BYTE   N24  Gs3
 BYTE   W24
 BYTE   En3
 BYTE   W14
// 032   ----------------------------------------
 BYTE   W10
 BYTE   Fs3
 BYTE   W24
 BYTE   N12  Cs3
 BYTE   W12
 BYTE   Bn2
 BYTE   W12
 BYTE   N24  As2
 BYTE   W24
 BYTE   N12  Fs3
 BYTE   W12
 BYTE   Gs3
 BYTE   W02
// 033   ----------------------------------------
 BYTE   W10
 BYTE   N48  As3
 BYTE   W48
 BYTE   N72  Ds3
 BYTE   W36
 BYTE   W02
// 034   ----------------------------------------
 BYTE   W32
 BYTE   W02
 BYTE   N24  Fn3
 BYTE   W24
 BYTE   Fs3
 BYTE   W24
 BYTE   Gs3
 BYTE   W14
// 035   ----------------------------------------
 BYTE   W10
 BYTE   N48
 BYTE   W48
 BYTE   N24  Cs3
 BYTE   W24
 BYTE   Gs3
 BYTE   W14
// 036   ----------------------------------------
 BYTE   W10
 BYTE   N24
 BYTE   W24
 BYTE   Fs3
 BYTE   W24
 BYTE   En3
 BYTE   W24
 BYTE   Ds3
 BYTE   W14
// 037   ----------------------------------------
 BYTE   W10
 BYTE   N48  Fs3
 BYTE   W48
 BYTE   N24  Bn2
 BYTE   W24
 BYTE   Fs3
 BYTE   W14
// 038   ----------------------------------------
 BYTE   W10
 BYTE   N24
 BYTE   W24
 BYTE   Fn3
 BYTE   W24
 BYTE   Ds3
 BYTE   W24
 BYTE   Cs3
 BYTE   W14
// 039   ----------------------------------------
 BYTE   W10
 BYTE   N48  Fn3
 BYTE   W48
 BYTE   N72  As2
 BYTE   W36
 BYTE   W02
// 040   ----------------------------------------
 BYTE   W32
 BYTE   W02
 BYTE   N24
 BYTE   W24
 BYTE   Gs2
 BYTE   W24
 BYTE   As2
 BYTE   W14
// 041   ----------------------------------------
 BYTE   W10
 BYTE   N48  Bn2
 BYTE   W48
 BYTE   N24  As3
 BYTE   W24
 BYTE   Gs3
 BYTE   W14
// 042   ----------------------------------------
 BYTE   W10
 BYTE   Fs3
 BYTE   W24
 BYTE   Fn3
 BYTE   W24
 BYTE   Ds3
 BYTE   W24
 BYTE   Fn3
 BYTE   W14
// 043   ----------------------------------------
 BYTE   W10
 BYTE   N48  Cs3
 BYTE   W48
 BYTE   N24  Ds3
 BYTE   W24
 BYTE   Fn3
 BYTE   W14
// 044   ----------------------------------------
 BYTE   W10
 BYTE   Gs3
 BYTE   W24
 BYTE   Fs3
 BYTE   W24
 BYTE   Fn3
 BYTE   W24
 BYTE   Fs3
 BYTE   W14
// 045   ----------------------------------------
 BYTE   W10
 BYTE   N96  Ds3
 BYTE   W84
 BYTE   W02
// 046   ----------------------------------------
 BYTE   W10
 BYTE   Fn3
 BYTE   W84
 BYTE   W02
// 047   ----------------------------------------
 BYTE   W32
 BYTE   W02
 BYTE   N12  An3
 BYTE   W12
 BYTE   Bn3
 BYTE   W12
 BYTE   N24  Cs4
 BYTE   W24
 BYTE   En4
 BYTE   W14
// 048   ----------------------------------------
 BYTE   W10
 BYTE   Ds4
 BYTE   W24
 BYTE   Bn3
 BYTE   W24
 BYTE   Cs4
 BYTE   W24
 BYTE   N12  An3
 BYTE   W12
 BYTE   Bn3
 BYTE   W02
// 049   ----------------------------------------
Label_7_016F1A35:
 BYTE   W10
 BYTE   N24  Cs4  v127
 BYTE   W24
 BYTE   N12  Bn3
 BYTE   W12
 BYTE   An3
 BYTE   W12
 BYTE   N24  Bn3
 BYTE   W24
 BYTE   Gs3
 BYTE   W14
 BYTE   PEND 
// 050   ----------------------------------------
 BYTE   W10
 BYTE   An3
 BYTE   W24
 BYTE   N12  Fs3
 BYTE   W12
 BYTE   An3
 BYTE   W12
 BYTE   N24  Gs3
 BYTE   W24
 BYTE   N12  An3
 BYTE   W12
 BYTE   Bn3
 BYTE   W02
// 051   ----------------------------------------
 BYTE   W32
 BYTE   W02
 BYTE   N24  Cs4
 BYTE   W24
 BYTE   N12  En4
 BYTE   W12
 BYTE   Ds4
 BYTE   W12
 BYTE   Bn3
 BYTE   W12
 BYTE   Ds4
 BYTE   W02
// 052   ----------------------------------------
 BYTE   W10
 BYTE   N72  Cs4
 BYTE   W72
 BYTE   N12  An3
 BYTE   W12
 BYTE   Bn3
 BYTE   W02
 BYTE   PATT
  POIN2 Label_7_016F1A35
// 053   ----------------------------------------
 BYTE   W10
 BYTE   N12  An3  v127
 BYTE   W12
 BYTE   Gs3
 BYTE   W12
 BYTE   Fs3
 BYTE   W12
 BYTE   An3
 BYTE   W12
 BYTE   N24  Gs3
 BYTE   W24
 BYTE   N12  Fs3
 BYTE   W12
 BYTE   En3
 BYTE   W02
// 054   ----------------------------------------
 BYTE   W10
 BYTE   Dn3
 BYTE   W12
 BYTE   En3
 BYTE   W12
 BYTE   N36  Fs3
 BYTE   W36
 BYTE   N12  Dn3
 BYTE   W12
 BYTE   En3
 BYTE   W12
 BYTE   Fs3
 BYTE   W02
// 055   ----------------------------------------
Label_7_016F1A93:
 BYTE   W10
 BYTE   N12  En3  v127
 BYTE   W12
 BYTE   Fs3
 BYTE   W12
 BYTE   N36  Gn3
 BYTE   W36
 BYTE   N12  En3
 BYTE   W12
 BYTE   Fs3
 BYTE   W12
 BYTE   Gn3
 BYTE   W02
 BYTE   PEND 
 BYTE   PATT
  POIN2 Label_7_016F1A93
// 056   ----------------------------------------
 BYTE   W10
 BYTE   N12  Fs3  v127
 BYTE   W12
 BYTE   Gn3
 BYTE   W12
 BYTE   N24  An3
 BYTE   W24
 BYTE   Gn3
 BYTE   W24
 BYTE   Fs3
 BYTE   W14
// 057   ----------------------------------------
Label_7_016F1AB8:
 BYTE   W10
 BYTE   N48  En3  v127
 BYTE   W48
 BYTE   N24  Fs3
 BYTE   W24
 BYTE   Gn3
 BYTE   W14
 BYTE   PEND 
// 058   ----------------------------------------
 BYTE   W10
 BYTE   An3
 BYTE   W24
 BYTE   Fs3
 BYTE   W24
 BYTE   TIE  En3
 BYTE   W36
 BYTE   W02
// 059   ----------------------------------------
 BYTE   W68
 BYTE   W02
 BYTE   EOT
 BYTE   N12  Fs3
 BYTE   W12
 BYTE   Gn3
 BYTE   W12
 BYTE   An3
 BYTE   W02
// 060   ----------------------------------------
 BYTE   W10
 BYTE   N48  Bn3
 BYTE   W48
 BYTE   N24  Dn4
 BYTE   W24
 BYTE   N48  Cs4
 BYTE   W14
// 061   ----------------------------------------
 BYTE   W32
 BYTE   W02
 BYTE   N24  An3
 BYTE   W24
 BYTE   N48  En3
 BYTE   W36
 BYTE   W02
// 062   ----------------------------------------
 BYTE   W10
 BYTE   N24
 BYTE   W24
 BYTE   Fs3
 BYTE   W24
 BYTE   En3
 BYTE   W24
 BYTE   Dn3
 BYTE   W14
 BYTE   PATT
  POIN2 Label_7_016F1AB8
// 063   ----------------------------------------
 BYTE   W10
 BYTE   N24  An3  v127
 BYTE   W24
 BYTE   Fs3
 BYTE   W24
 BYTE   N60  En3
 BYTE   W36
 BYTE   W02
// 064   ----------------------------------------
 BYTE   W22
 BYTE   N12  Bn2
 BYTE   W12
 BYTE   En3
 BYTE   W12
 BYTE   Fs3
 BYTE   W12
 BYTE   Gn3
 BYTE   W12
 BYTE   An3
 BYTE   W12
 BYTE   Bn3
 BYTE   W12
 BYTE   Cn4
 BYTE   W02
// 065   ----------------------------------------
 BYTE   W10
 BYTE   N36  Dn4
 BYTE   W36
 BYTE   N12  Bn3
 BYTE   W12
 BYTE   Fs3
 BYTE   W12
 BYTE   Dn3
 BYTE   W12
 BYTE   N24
 BYTE   W14
// 066   ----------------------------------------
 BYTE   W10
 BYTE   N36  En3
 BYTE   W36
 BYTE   N12  Fs3
 BYTE   W12
 BYTE   N36  Gn3
 BYTE   W36
 BYTE   N12  Fs3
 BYTE   W02
// 067   ----------------------------------------
 BYTE   W10
 BYTE   Gn3
 BYTE   W12
 BYTE   An3
 BYTE   W12
 BYTE   N24  Fs3
 BYTE   W24
 BYTE   N12  Gn3
 BYTE   W12
 BYTE   Fs3
 BYTE   W12
 BYTE   Gn3
 BYTE   W12
 BYTE   An3
 BYTE   W02
// 068   ----------------------------------------
Label_7_016F1B3D:
 BYTE   W10
 BYTE   N24  Bn3  v127
 BYTE   W24
 BYTE   N36  Dn4
 BYTE   W36
 BYTE   N12  Bn3
 BYTE   W12
 BYTE   N24  Cs4
 BYTE   W14
 BYTE   PEND 
// 069   ----------------------------------------
Label_7_016F1B4C:
 BYTE   W10
 BYTE   N36  En4  v127
 BYTE   W36
 BYTE   N12  Cs4
 BYTE   W12
 BYTE   N24  Dn4
 BYTE   W24
 BYTE   N36  Bn3
 BYTE   W14
 BYTE   PEND 
// 070   ----------------------------------------
 BYTE   W22
 BYTE   N12  Dn4
 BYTE   W12
 BYTE   N24  Cs4
 BYTE   W24
 BYTE   N48  An3
 BYTE   W36
 BYTE   W02
 BYTE   PATT
  POIN2 Label_7_016F1B3D
 BYTE   PATT
  POIN2 Label_7_016F1B4C
// 071   ----------------------------------------
 BYTE   W22
 BYTE   N12  Dn4  v127
 BYTE   W12
 BYTE   N24  Cs4
 BYTE   W24
 BYTE   N12  En4
 BYTE   W12
 BYTE   Dn4
 BYTE   W12
 BYTE   Cs4
 BYTE   W12
 BYTE   Bn3
 BYTE   W02
// 072   ----------------------------------------
 BYTE   W10
 BYTE   N36  An3
 BYTE   W36
 BYTE   N12  Fs3
 BYTE   W12
 BYTE   Gn3
 BYTE   W12
 BYTE   An3
 BYTE   W12
 BYTE   N36  Bn3
 BYTE   W14
// 073   ----------------------------------------
 BYTE   W22
 BYTE   N12  Gn3
 BYTE   W12
 BYTE   An3
 BYTE   W12
 BYTE   Bn3
 BYTE   W12
 BYTE   N36
 BYTE   W36
 BYTE   N12
 BYTE   W02
// 074   ----------------------------------------
 BYTE   W10
 BYTE   Cs4
 BYTE   W12
 BYTE   Dn4
 BYTE   W12
 BYTE   N36  Cs4
 BYTE   W36
 BYTE   N12  Fs3
 BYTE   W12
 BYTE   An3
 BYTE   W12
 BYTE   Cs4
 BYTE   W02
// 075   ----------------------------------------
 BYTE   W10
 BYTE   N96  Fs4
 BYTE   W84
 BYTE   W02
// 076   ----------------------------------------
 BYTE   W10
 BYTE   VOL   41*FE04Part1MapMedleySurfingKyogre_mvl/mxv
 BYTE   W84
 BYTE   W02
// 077   ----------------------------------------
 BYTE   W96
// 078   ----------------------------------------
 BYTE   W96
// 079   ----------------------------------------
 BYTE   W80
 BYTE   W02
 BYTE   N12  Bn3
 BYTE   W12
 BYTE   Cs4
 BYTE   W02
// 080   ----------------------------------------
Label_7_016F1BBD:
 BYTE   W10
 BYTE   N24  Dn4  v127
 BYTE   W24
 BYTE   N12  Cs4
 BYTE   W12
 BYTE   N36  En4
 BYTE   W36
 BYTE   N12  Dn4
 BYTE   W12
 BYTE   Cs4
 BYTE   W02
 BYTE   PEND 
// 081   ----------------------------------------
Label_7_016F1BCE:
 BYTE   W10
 BYTE   N72  Cs4  v127
 BYTE   W72
 BYTE   N12  Bn3
 BYTE   W12
 BYTE   Cs4
 BYTE   W02
 BYTE   PEND 
 BYTE   PATT
  POIN2 Label_7_016F1BBD
 BYTE   PATT
  POIN2 Label_7_016F1BCE
// 082   ----------------------------------------
 BYTE   W10
 BYTE   N24  Dn4  v127
 BYTE   W24
 BYTE   Cs4
 BYTE   W24
 BYTE   En4
 BYTE   W24
 BYTE   N12  Cs4
 BYTE   W12
 BYTE   Dn4
 BYTE   W02
// 083   ----------------------------------------
 BYTE   W10
 BYTE   N48
 BYTE   W48
 BYTE   En4
 BYTE   W36
 BYTE   W02
// 084   ----------------------------------------
 BYTE   W10
 BYTE   N24
 BYTE   W24
 BYTE   Fs4
 BYTE   W24
 BYTE   N48  Cs4
 BYTE   W36
 BYTE   W02
// 085   ----------------------------------------
 BYTE   W10
 BYTE   An3
 BYTE   W48
 BYTE   Fs3
 BYTE   W36
 BYTE   W02
// 086   ----------------------------------------
 BYTE   W10
 BYTE   N24  An3
 BYTE   W24
 BYTE   Gn3
 BYTE   W24
 BYTE   Fs3
 BYTE   W24
 BYTE   Gn3
 BYTE   W14
// 087   ----------------------------------------
 BYTE   W10
 BYTE   N72  Dn4
 BYTE   W72
 BYTE   N24  Gn3
 BYTE   W14
// 088   ----------------------------------------
 BYTE   W10
 BYTE   N48  Fs3
 BYTE   W48
 BYTE   An3
 BYTE   W36
 BYTE   W02
// 089   ----------------------------------------
 BYTE   W10
 BYTE   Dn4
 BYTE   W48
 BYTE   Fs4
 BYTE   W36
 BYTE   W02
// 090   ----------------------------------------
 BYTE   W10
 BYTE   VOL   25*FE04Part1MapMedleySurfingKyogre_mvl/mxv
 BYTE   N96
 BYTE   W84
 BYTE   W02
 BYTE   PATT
  POIN2 Label_7_016F1963
// 091   ----------------------------------------
Label_7_016F1C2F:
 BYTE   W10
 BYTE   N96  Cs4  v127
 BYTE   W84
 BYTE   W02
 BYTE   PEND 
// 092   ----------------------------------------
 BYTE   W96
// 093   ----------------------------------------
Label_7_016F1C37:
 BYTE   W10
 BYTE   N96  Bn3  v127
 BYTE   W84
 BYTE   W02
 BYTE   PEND 
// 094   ----------------------------------------
 BYTE   W10
 BYTE   N72  Cs4
 BYTE   W72
 BYTE   N12  Dn4
 BYTE   W12
 BYTE   En4
 BYTE   W02
// 095   ----------------------------------------
 BYTE   W10
 BYTE   N48  Dn4
 BYTE   W48
 BYTE   Bn3
 BYTE   W36
 BYTE   W02
 BYTE   PATT
  POIN2 Label_7_016F1C2F
 BYTE   PATT
  POIN2 Label_7_016F1C37
// 096   ----------------------------------------
 BYTE   W10
 BYTE   N60  Cs4  v127
 BYTE   W60
 BYTE   N24  Dn4
 BYTE   W24
 BYTE   N12  En4
 BYTE   W02
// 097   ----------------------------------------
 BYTE   W10
 BYTE   N24  Dn4
 BYTE   W24
 BYTE   An3
 BYTE   W24
 BYTE   Dn4
 BYTE   W24
 BYTE   An4
 BYTE   W14
// 098   ----------------------------------------
 BYTE   W10
 BYTE   N48  En4
 BYTE   W48
 BYTE   An4
 BYTE   W36
 BYTE   W02
// 099   ----------------------------------------
 BYTE   W10
 BYTE   N96
 BYTE   W84
 BYTE   W02
// 100   ----------------------------------------
 BYTE   W10
 BYTE   N24
 BYTE   W24
 BYTE   Gs4
 BYTE   W24
 BYTE   Fs4
 BYTE   W24
 BYTE   Gs4
 BYTE   W14
// 101   ----------------------------------------
 BYTE   W10
 BYTE   TIE  An4
 BYTE   W84
 BYTE   W02
// 102   ----------------------------------------
 BYTE   W44
 BYTE   W02
 BYTE   EOT
 BYTE   TIE  Cs5
 BYTE   W48
 BYTE   W02
// 103   ----------------------------------------
 BYTE   W64
 BYTE   VOL   20*FE04Part1MapMedleySurfingKyogre_mvl/mxv
 BYTE   W06
 BYTE   En1
 BYTE   W06
 BYTE   Bn0
 BYTE   W06
 BYTE   Fs0
 BYTE   W06
 BYTE   Cs0
 BYTE   W06
 BYTE   GsM1
 BYTE   W02
// 104   ----------------------------------------
 BYTE   W04
 BYTE   DsM1
 BYTE   W06
 BYTE   EOT
 BYTE   VOICE   48
 BYTE   PAN   c_v+11
 BYTE   VOL   25*FE04Part1MapMedleySurfingKyogre_mvl/mxv
 BYTE   W03
 BYTE   Dn2
 BYTE   W06
 BYTE   Cs2
 BYTE   W06
 BYTE   Cs2
 BYTE   W07
 BYTE   Cs2
 BYTE   W06
 BYTE   Cn2
 BYTE   W06
 BYTE   Bn1
 BYTE   W07
 BYTE   Bn1
 BYTE   W06
 BYTE   Bn1
 BYTE   W07
 BYTE   Bn1
 BYTE   W06
 BYTE   As1
 BYTE   W06
 BYTE   An1
 BYTE   W07
 BYTE   An1
 BYTE   W06
 BYTE   An1
 BYTE   W07
// 105   ----------------------------------------
 BYTE   Gs1
 BYTE   W06
 BYTE   Gs1
 BYTE   W06
 BYTE   Gs1
 BYTE   W07
 BYTE   Gs1
 BYTE   W06
 BYTE   Gn1
 BYTE   W07
 BYTE   Fs1
 BYTE   W06
 BYTE   Fs1
 BYTE   W06
 BYTE   Fs1
 BYTE   W07
 BYTE   Fn1
 BYTE   W06
 BYTE   Fn1
 BYTE   W07
 BYTE   En1
 BYTE   W06
 BYTE   En1
 BYTE   W06
 BYTE   En1
 BYTE   W02
 BYTE   GoTo
  POIN2 Label_7_016F186C
// 106   ----------------------------------------
 BYTE   W04
 BYTE   N12  Fs3  v127
 BYTE   W01
 BYTE   VOL   14*FE04Part1MapMedleySurfingKyogre_mvl/mxv
 BYTE   W06
 BYTE   Ds1
 BYTE   W05
 BYTE   N12  Cs4
 BYTE   W02
 BYTE   VOL   14*FE04Part1MapMedleySurfingKyogre_mvl/mxv
 BYTE   W06
 BYTE   Dn1
 BYTE   W04
 BYTE   N48  Gs3
 BYTE   W02
 BYTE   VOL   13*FE04Part1MapMedleySurfingKyogre_mvl/mxv
 BYTE   W07
 BYTE   Cs1
 BYTE   W06
 BYTE   Cs1
 BYTE   W07
 BYTE   Cs1
 BYTE   W06
 BYTE   Cn1
 BYTE   W06
 BYTE   Cn1
 BYTE   W07
 BYTE   Bn0
 BYTE   W06
 BYTE   Bn0
 BYTE   W01
 BYTE   N24  Fs3
 BYTE   W06
 BYTE   VOL   10*FE04Part1MapMedleySurfingKyogre_mvl/mxv
 BYTE   W06
 BYTE   As0
 BYTE   W06
 BYTE   As0
 BYTE   W06
// 107   ----------------------------------------
 BYTE   N12
 BYTE   W01
 BYTE   VOL   9*FE04Part1MapMedleySurfingKyogre_mvl/mxv
 BYTE   W06
 BYTE   An0
 BYTE   W05
 BYTE   N12  Cs4
 BYTE   W02
 BYTE   VOL   8*FE04Part1MapMedleySurfingKyogre_mvl/mxv
 BYTE   W06
 BYTE   Gs0
 BYTE   W04
 BYTE   N48  Gs3
 BYTE   W02
 BYTE   VOL   7*FE04Part1MapMedleySurfingKyogre_mvl/mxv
 BYTE   W07
 BYTE   Gs0
 BYTE   W06
 BYTE   Gn0
 BYTE   W07
 BYTE   Gn0
 BYTE   W06
 BYTE   Fs0
 BYTE   W06
 BYTE   Fs0
 BYTE   W07
 BYTE   Fs0
 BYTE   W06
 BYTE   Fn0
 BYTE   W01
 BYTE   N24  Fs3
 BYTE   W06
 BYTE   VOL   3*FE04Part1MapMedleySurfingKyogre_mvl/mxv
 BYTE   W06
 BYTE   En0
 BYTE   W06
 BYTE   En0
 BYTE   W06
// 108   ----------------------------------------
 BYTE   N12
 BYTE   W01
 BYTE   VOL   3*FE04Part1MapMedleySurfingKyogre_mvl/mxv
 BYTE   W06
 BYTE   Ds0
 BYTE   W05
 BYTE   N12  Cs4
 BYTE   W02
 BYTE   VOL   2*FE04Part1MapMedleySurfingKyogre_mvl/mxv
 BYTE   W06
 BYTE   Ds0
 BYTE   W04
 BYTE   N24  Gs3
 BYTE   W02
 BYTE   VOL   1*FE04Part1MapMedleySurfingKyogre_mvl/mxv
 BYTE   W07
 BYTE   Cs0
 BYTE   W06
 BYTE   Cs0
 BYTE   W07
 BYTE   Cs0
 BYTE   W02
 BYTE   N24  Fs3
 BYTE   W04
 BYTE   VOL   0*FE04Part1MapMedleySurfingKyogre_mvl/mxv
 BYTE   W06
 BYTE   Cn0
 BYTE   W07
 BYTE   BnM1
 BYTE   W06
 BYTE   BnM1
 BYTE   W01
 BYTE   N24  An3
 BYTE   W06
 BYTE   VOL   0*FE04Part1MapMedleySurfingKyogre_mvl/mxv
 BYTE   W06
 BYTE   AsM1
 BYTE   W06
 BYTE   AsM1
 BYTE   W06
// 109   ----------------------------------------
 BYTE   N24  Cs4
 BYTE   W01
 BYTE   VOL   0*FE04Part1MapMedleySurfingKyogre_mvl/mxv
 BYTE   W06
 BYTE   AsM1
 BYTE   W07
 BYTE   AnM1
 BYTE   W06
 BYTE   GsM1
 BYTE   W04
 BYTE   N48  Bn3
 BYTE   W02
 BYTE   VOL   0*FE04Part1MapMedleySurfingKyogre_mvl/mxv
 BYTE   W07
 BYTE   GsM1
 BYTE   W06
 BYTE   GnM1
 BYTE   W07
 BYTE   GnM1
 BYTE   W06
 BYTE   FsM1
 BYTE   W06
 BYTE   FsM1
 BYTE   W07
 BYTE   FsM1
 BYTE   W06
 BYTE   FnM1
 BYTE   W01
 BYTE   N24  Fs3
 BYTE   W06
 BYTE   VOL   0*FE04Part1MapMedleySurfingKyogre_mvl/mxv
 BYTE   W06
 BYTE   FnM1
 BYTE   W06
 BYTE   EnM1
 BYTE   W06
// 110   ----------------------------------------
 BYTE   N12
 BYTE   W01
 BYTE   VOL   0*FE04Part1MapMedleySurfingKyogre_mvl/mxv
 BYTE   W06
 BYTE   DsM1
 BYTE   W05
 BYTE   N12  Cs4
 BYTE   W02
 BYTE   VOL   0*FE04Part1MapMedleySurfingKyogre_mvl/mxv
 BYTE   W06
 BYTE   DsM1
 BYTE   W04
 BYTE   N48  Gs3
 BYTE   W02
 BYTE   VOL   0*FE04Part1MapMedleySurfingKyogre_mvl/mxv
 BYTE   W07
 BYTE   DnM1
 BYTE   W06
 BYTE   CsM1
 BYTE   W07
 BYTE   CsM1
 BYTE   W06
 BYTE   CsM1
 BYTE   W06
 BYTE   CnM1
 BYTE   W07
 BYTE   CnM1
 BYTE   W06
 BYTE   BnM2
 BYTE   W01
 BYTE   N24  Fs3
 BYTE   W06
 BYTE   VOL   0*FE04Part1MapMedleySurfingKyogre_mvl/mxv
 BYTE   W06
 BYTE   BnM2
 BYTE   W06
 BYTE   AsM2
 BYTE   W06
// 111   ----------------------------------------
 BYTE   N12
 BYTE   W01
 BYTE   VOL   0*FE04Part1MapMedleySurfingKyogre_mvl/mxv
 BYTE   W06
 BYTE   AsM2
 BYTE   W05
 BYTE   N12  Cs4
 BYTE   W02
 BYTE   VOL   0*FE04Part1MapMedleySurfingKyogre_mvl/mxv
 BYTE   W06
 BYTE   AnM2
 BYTE   W04
 BYTE   N48  Gs3
 BYTE   W02
 BYTE   VOL   0*FE04Part1MapMedleySurfingKyogre_mvl/mxv
 BYTE   W07
 BYTE   GsM2
 BYTE   W06
 BYTE   GsM2
 BYTE   W07
 BYTE   GnM2
 BYTE   W06
 BYTE   FsM2
 BYTE   W06
 BYTE   FsM2
 BYTE   W07
 BYTE   FsM2
 BYTE   W06
 BYTE   FsM2
 BYTE   W01
 BYTE   N24  Fs3
 BYTE   W06
 BYTE   VOL   0*FE04Part1MapMedleySurfingKyogre_mvl/mxv
 BYTE   W06
 BYTE   FnM2
 BYTE   W06
 BYTE   FnM2
 BYTE   W06
// 112   ----------------------------------------
 BYTE   N12
 BYTE   W01
 BYTE   VOL   0*FE04Part1MapMedleySurfingKyogre_mvl/mxv
 BYTE   W06
 BYTE   DsM2
 BYTE   W05
 BYTE   N12  Cs4
 BYTE   W02
 BYTE   VOL   0*FE04Part1MapMedleySurfingKyogre_mvl/mxv
 BYTE   W06
 BYTE   DsM2
 BYTE   W04
 BYTE   N24  Gs3
 BYTE   W02
 BYTE   VOL   0*FE04Part1MapMedleySurfingKyogre_mvl/mxv
 BYTE   W07
 BYTE   DnM2
 BYTE   W06
 BYTE   CsM2
 BYTE   W07
 BYTE   CsM2
 BYTE   W02
 BYTE   N24  Fs3
 BYTE   W04
 BYTE   VOL   0*FE04Part1MapMedleySurfingKyogre_mvl/mxv
 BYTE   W06
 BYTE   CnM2
 BYTE   W07
 BYTE   CnM2
 BYTE   W06
 BYTE   CnM2
 BYTE   W01
 BYTE   N05  An3
 BYTE   W06
 BYTE   VOL   0*FE04Part1MapMedleySurfingKyogre_mvl/mxv
 BYTE   FINE

//******************************************************//
	ALIGN 4

FE04Part1MapMedleySurfingKyogre:
	BYTE	8	// NumTrks
	BYTE	0	// NumBlks
	BYTE	FE04Part1MapMedleySurfingKyogre_pri	// Priority
	BYTE	FE04Part1MapMedleySurfingKyogre_rev	// Reverb.
    
	POIN2	FE04Part1MapMedleySurfingKyogre_grp
    
	POIN2	FE04Part1MapMedleySurfingKyogre_001
	POIN2	FE04Part1MapMedleySurfingKyogre_002
	POIN2	FE04Part1MapMedleySurfingKyogre_003
	POIN2	FE04Part1MapMedleySurfingKyogre_004
	POIN2	FE04Part1MapMedleySurfingKyogre_005
	POIN2	FE04Part1MapMedleySurfingKyogre_006
	POIN2	FE04Part1MapMedleySurfingKyogre_007
	POIN2	FE04Part1MapMedleySurfingKyogre_008

	
