//Event file generated from Sappy .s format.
	#include "MPlayDef.event"

	#define	FE04TheFinalHolyWarREALxViPerZ7743_grp  voicegroup000
	#define	FE04TheFinalHolyWarREALxViPerZ7743_pri  0
	#define	FE04TheFinalHolyWarREALxViPerZ7743_rev  0
	#define	FE04TheFinalHolyWarREALxViPerZ7743_mvl  127
	#define	FE04TheFinalHolyWarREALxViPerZ7743_key  0
	#define	FE04TheFinalHolyWarREALxViPerZ7743_tbs  1
	#define	FE04TheFinalHolyWarREALxViPerZ7743_exg  0
	#define	FE04TheFinalHolyWarREALxViPerZ7743_cmp  1

	// .rodata
	//	FE04TheFinalHolyWarREALxViPerZ7743
	ALIGN 4


//**************** Track 1 (Midi-Chn.0) ****************//

FE04TheFinalHolyWarREALxViPerZ7743_001:
//  #01 //000   ----------------------------------------
 BYTE   KEYSH   FE04TheFinalHolyWarREALxViPerZ7743_key+0
 BYTE   TEMPO   120*FE04TheFinalHolyWarREALxViPerZ7743_tbs/2
 BYTE   MODT 0
 BYTE   LFOS 44
 BYTE   MOD 0
 BYTE   BENDR  12
 BYTE   VOL   14*FE04TheFinalHolyWarREALxViPerZ7743_mvl/mxv
 BYTE   PAN   c_v+0
 BYTE   BEND   c_v+0
 BYTE   TEMPO   144*FE04TheFinalHolyWarREALxViPerZ7743_tbs/2
 BYTE   VOICE   71
 BYTE   PAN   c_v-14
 BYTE   VOL   42*FE04TheFinalHolyWarREALxViPerZ7743_mvl/mxv
 BYTE   MOD 1
 BYTE   W24
 BYTE   MOD 0
 BYTE   N18  An3  v127
 BYTE   W19
 BYTE   W05
 BYTE   MOD 0
 BYTE   N18  En4
 BYTE   W24
 BYTE   MOD 0
 BYTE   N09  Dn4
 BYTE   W12
 BYTE   MOD 0
 BYTE   N09  Cs4
 BYTE   W12
//  #01 //001   ----------------------------------------
 BYTE   MOD 0
 BYTE   N18  Bn3
 BYTE   W24
 BYTE   MOD 0
 BYTE   N18  Gn3
 BYTE   W19
 BYTE   W05
 BYTE   MOD 0
 BYTE   N18  Bn3
 BYTE   W24
 BYTE   MOD 0
 BYTE   N18  Dn4
 BYTE   W24
//  #01 //002   ----------------------------------------
 BYTE   MOD 0
 BYTE   N18  Fn4
 BYTE   W24
 BYTE   MOD 0
 BYTE   N18  Cn4
 BYTE   W19
 BYTE   W05
 BYTE   MOD 0
 BYTE   N18  An4
 BYTE   W24
 BYTE   MOD 0
 BYTE   N09  Gn4
 BYTE   W12
 BYTE   MOD 0
 BYTE   N09  Fn4
 BYTE   W12
//  #01 //003   ----------------------------------------
 BYTE   MOD 0
 BYTE   N18  Gn4
 BYTE   W24
 BYTE   MOD 0
 BYTE   N18  Dn4
 BYTE   W19
 BYTE   W05
 BYTE   MOD 0
 BYTE   N18  Gn4
 BYTE   W24
 BYTE   MOD 0
 BYTE   N18  As4
 BYTE   W24
//  #01 //004   ----------------------------------------
 BYTE   MOD 0
 BYTE   TIE  Dn5
 BYTE   W24
 BYTE   MOD 1
 BYTE   W19
 BYTE   W96
//  #01 //005   ----------------------------------------
 BYTE   W28
 BYTE   W01
 BYTE   EOT
 BYTE   W24
 BYTE   MOD 0
 BYTE   N18  Gn4
 BYTE   W24
 BYTE   MOD 1
 BYTE   W19
//  #01 //006   ----------------------------------------
 BYTE   W96
//  #01 //007   ----------------------------------------
 BYTE   W52
 BYTE   W01
Label_01F7CFFB:
 BYTE   VOICE   48
 BYTE   VOL   42*FE04TheFinalHolyWarREALxViPerZ7743_mvl/mxv
 BYTE   PAN   c_v+6
 BYTE   VOL   48*FE04TheFinalHolyWarREALxViPerZ7743_mvl/mxv
 BYTE   MOD 0
 BYTE   N44  Dn3  v127
 BYTE   W24
 BYTE   MOD 0
 BYTE   W19
//  #01 //008   ----------------------------------------
Label_01F7D00C:
 BYTE   W05
 BYTE   MOD 0
 BYTE   N23  An3  v127
 BYTE   W24
 BYTE   MOD 0
 BYTE   N23  Gn3
 BYTE   W24
 BYTE   MOD 0
 BYTE   N44  Fs3
 BYTE   W24
 BYTE   MOD 0
 BYTE   W19
 BYTE   PEND 
//  #01 //009   ----------------------------------------
 BYTE   W05
 BYTE   CnM2
 BYTE   N23  En3
 BYTE   W24
 BYTE   MOD 0
 BYTE   N23  Dn3
 BYTE   W24
 BYTE   MOD 0
 BYTE   TIE  En3
 BYTE   W24
 BYTE   MOD 0
 BYTE   W19
//  #01 //010   ----------------------------------------
 BYTE   W96
//  #01 //011   ----------------------------------------
 BYTE   W04
 BYTE   EOT
 BYTE   W48
 BYTE   W01
 BYTE   MOD 0
 BYTE   N44  Dn3
 BYTE   W24
 BYTE   MOD 0
 BYTE   W19
//  #01 //012   ----------------------------------------
 BYTE   PATT
  POIN2 Label_01F7D00C
//  #01 //013   ----------------------------------------
 BYTE   W05
 BYTE   MOD 0
 BYTE   N23  En3  v127
 BYTE   W24
 BYTE   MOD 0
 BYTE   N23  Dn3
 BYTE   W24
 BYTE   MOD 0
 BYTE   N11  En3
 BYTE   W18
 BYTE   MOD 0
 BYTE   N05  Fs3
 BYTE   W06
 BYTE   MOD 0
 BYTE   TIE  Gn3
 BYTE   W19
//  #01 //014   ----------------------------------------
 BYTE   W05
 BYTE   MOD 0
 BYTE   W90
 BYTE   W01
//  #01 //015   ----------------------------------------
 BYTE   W04
 BYTE   EOT
 BYTE   W24
 BYTE   W01
 BYTE   MOD 0
 BYTE   N23  An3
 BYTE   W24
 BYTE   MOD 0
 BYTE   N92  Bn3
 BYTE   W24
 BYTE   MOD 0
 BYTE   W19
//  #01 //016   ----------------------------------------
 BYTE   W52
 BYTE   W01
 BYTE   MOD 0
 BYTE   N44  Dn4
 BYTE   W24
 BYTE   MOD 0
 BYTE   W19
//  #01 //017   ----------------------------------------
 BYTE   W05
 BYTE   MOD 0
 BYTE   N44  Gn3
 BYTE   W24
 BYTE   MOD 0
 BYTE   W24
 BYTE   MOD 0
 BYTE   N68  Fs3
 BYTE   W24
 BYTE   MOD 0
 BYTE   W19
//  #01 //018   ----------------------------------------
 BYTE   W32
 BYTE   W03
 BYTE   MOD 0
 BYTE   N05  Dn3
 BYTE   W06
 BYTE   MOD 0
 BYTE   N05  An3
 BYTE   W06
 BYTE   MOD 0
 BYTE   N05  Gn3
 BYTE   W06
 BYTE   MOD 0
 BYTE   N68  Fs3
 BYTE   W24
 BYTE   MOD 0
 BYTE   W19
//  #01 //019   ----------------------------------------
 BYTE   W28
 BYTE   W01
 BYTE   MOD 0
 BYTE   N23  En3
 BYTE   W24
 BYTE   MOD 0
 BYTE   N23  Gn3
 BYTE   W24
 BYTE   MOD 0
 BYTE   N23  Dn3
 BYTE   W19
//  #01 //020   ----------------------------------------
 BYTE   W05
 BYTE   MOD 0
 BYTE   W12
 BYTE   MOD 0
 BYTE   N11
 BYTE   W12
 BYTE   MOD 0
 BYTE   N11  Gn3
 BYTE   W12
 BYTE   MOD 0
 BYTE   N11  Cn4
 BYTE   W12
 BYTE   MOD 0
 BYTE   N23  An3
 BYTE   W24
 BYTE   MOD 0
 BYTE   N44  Fn3
 BYTE   W19
//  #01 //021   ----------------------------------------
 BYTE   W05
 BYTE   MOD 0
 BYTE   W24
 BYTE   MOD 0
 BYTE   N23
 BYTE   W24
 BYTE   MOD 0
 BYTE   N68  Gn3
 BYTE   W24
 BYTE   MOD 0
 BYTE   W19
//  #01 //022   ----------------------------------------
 BYTE   W32
 BYTE   W03
 BYTE   MOD 0
 BYTE   N05  An3
 BYTE   W06
 BYTE   MOD 0
 BYTE   N05  Gn3
 BYTE   W06
 BYTE   MOD 0
 BYTE   N05  Fn3
 BYTE   W06
 BYTE   MOD 0
 BYTE   N68  Gn3
 BYTE   W24
 BYTE   MOD 0
 BYTE   W19
//  #01 //023   ----------------------------------------
 BYTE   W32
 BYTE   W03
 BYTE   MOD 0
 BYTE   N05  An3
 BYTE   W06
 BYTE   MOD 0
 BYTE   N05  Gn3
 BYTE   W06
 BYTE   MOD 0
 BYTE   N05  Fn3
 BYTE   W06
 BYTE   MOD 0
 BYTE   TIE  Gn3
 BYTE   W24
 BYTE   MOD 0
 BYTE   W19
//  #01 //024   ----------------------------------------
 BYTE   W96
//  #01 //025   ----------------------------------------
 BYTE   W28
 BYTE   EOT
 BYTE   W01
 BYTE   MOD 0
 BYTE   N11  Cn4
 BYTE   W12
 BYTE   MOD 0
 BYTE   N11  Fn4
 BYTE   W12
 BYTE   MOD 0
 BYTE   TIE  Dn4
 BYTE   W24
 BYTE   MOD 0
 BYTE   W19
//  #01 //026   ----------------------------------------
 BYTE   W96
//  #01 //027   ----------------------------------------
 BYTE   W05
 BYTE   TEMPO   120*FE04TheFinalHolyWarREALxViPerZ7743_tbs/2
 BYTE   W11
 BYTE   EOT
 BYTE   W13
 BYTE   VOICE   71
 BYTE   VOL   37*FE04TheFinalHolyWarREALxViPerZ7743_mvl/mxv
 BYTE   MOD 0
 BYTE   N11  Ds4
 BYTE   W12
 BYTE   MOD 0
 BYTE   N11  Fn4
 BYTE   W12
 BYTE   TEMPO   144*FE04TheFinalHolyWarREALxViPerZ7743_tbs/2
 BYTE   MOD 0
 BYTE   N44  Gn4
 BYTE   W24
 BYTE   MOD 1
 BYTE   W19
//  #01 //028   ----------------------------------------
 BYTE   W05
 BYTE   MOD 0
 BYTE   N23  Dn5
 BYTE   W24
 BYTE   MOD 0
 BYTE   N11  Cn5
 BYTE   W12
 BYTE   MOD 0
 BYTE   N11  As4
 BYTE   W12
 BYTE   MOD 0
 BYTE   N68  An4
 BYTE   W24
 BYTE   MOD 1
 BYTE   W19
//  #01 //029   ----------------------------------------
 BYTE   W28
 BYTE   W01
 BYTE   MOD 0
 BYTE   N11  Fn4
 BYTE   W12
 BYTE   MOD 0
 BYTE   N11  Gn4
 BYTE   W12
 BYTE   MOD 0
 BYTE   N44  An4
 BYTE   W24
 BYTE   MOD 1
 BYTE   W19
//  #01 //030   ----------------------------------------
 BYTE   W17
 BYTE   MOD 0
 BYTE   N11  Gn4
 BYTE   W12
 BYTE   MOD 0
 BYTE   N11  An4
 BYTE   W12
 BYTE   MOD 0
 BYTE   N11  Cn5
 BYTE   W12
 BYTE   MOD 0
 BYTE   N23  As4
 BYTE   W24
 BYTE   MOD 0
 BYTE   N23  An4
 BYTE   W19
//  #01 //031   ----------------------------------------
 BYTE   W05
 BYTE   MOD 0
 BYTE   N23  As4
 BYTE   W24
 BYTE   MOD 0
 BYTE   N23  Cn5
 BYTE   W24
 BYTE   MOD 0
 BYTE   N44  Dn5
 BYTE   W24
 BYTE   MOD 1
 BYTE   W19
//  #01 //032   ----------------------------------------
 BYTE   W05
 BYTE   MOD 0
 BYTE   N68  Gn4
 BYTE   W24
 BYTE   MOD 1
 BYTE   W48
 BYTE   MOD 0
 BYTE   N23
 BYTE   W19
//  #01 //033   ----------------------------------------
 BYTE   W05
 BYTE   MOD 0
 BYTE   N23  An4
 BYTE   W24
 BYTE   MOD 0
 BYTE   N23  As4
 BYTE   W24
 BYTE   MOD 0
 BYTE   N68
 BYTE   W24
 BYTE   MOD 1
 BYTE   W19
//  #01 //034   ----------------------------------------
 BYTE   W28
 BYTE   W01
 BYTE   MOD 0
 BYTE   N11  An4
 BYTE   W12
 BYTE   MOD 0
 BYTE   N11  Gn4
 BYTE   W12
 BYTE   MOD 0
 BYTE   N92  Fn4
 BYTE   W24
 BYTE   MOD 1
 BYTE   W19
//  #01 //035   ----------------------------------------
 BYTE   W11
 BYTE   VOL   32*FE04TheFinalHolyWarREALxViPerZ7743_mvl/mxv
 BYTE   W06
 BYTE   VOL   27*FE04TheFinalHolyWarREALxViPerZ7743_mvl/mxv
 BYTE   W06
 BYTE   VOL   23*FE04TheFinalHolyWarREALxViPerZ7743_mvl/mxv
 BYTE   W06
 BYTE   VOL   18*FE04TheFinalHolyWarREALxViPerZ7743_mvl/mxv
 BYTE   W06
 BYTE   VOL   14*FE04TheFinalHolyWarREALxViPerZ7743_mvl/mxv
 BYTE   W06
 BYTE   VOL   11*FE04TheFinalHolyWarREALxViPerZ7743_mvl/mxv
 BYTE   W06
 BYTE   VOL   7*FE04TheFinalHolyWarREALxViPerZ7743_mvl/mxv
 BYTE   W06
 BYTE   VOICE   73
 BYTE   PAN   c_v-14
 BYTE   VOL   42*FE04TheFinalHolyWarREALxViPerZ7743_mvl/mxv
 BYTE   MOD 0
 BYTE   N92  Dn3
 BYTE   W24
 BYTE   MOD 1
 BYTE   W19
//  #01 //036   ----------------------------------------
Label_01F7D1FE:
 BYTE   W52
 BYTE   W01
 BYTE   MOD 0
 BYTE   N68  En3  v127
 BYTE   W24
 BYTE   MOD 1
 BYTE   W19
 BYTE   PEND 
//  #01 //037   ----------------------------------------
 BYTE   W28
 BYTE   W01
 BYTE   CnM2
 BYTE   N11  Fn3
 BYTE   W12
 BYTE   MOD 0
 BYTE   N11  Gn3
 BYTE   W12
 BYTE   MOD 0
 BYTE   N68  Fn3
 BYTE   W24
 BYTE   MOD 1
 BYTE   W19
//  #01 //038   ----------------------------------------
 BYTE   W28
 BYTE   W01
 BYTE   MOD 0
 BYTE   N23  Dn3
 BYTE   W24
 BYTE   MOD 0
 BYTE   N92  En3
 BYTE   W24
 BYTE   MOD 1
 BYTE   W19
//  #01 //039   ----------------------------------------
 BYTE   W52
 BYTE   W01
 BYTE   MOD 0
 BYTE   N92  Dn3
 BYTE   W24
 BYTE   MOD 1
 BYTE   W19
//  #01 //040   ----------------------------------------
 BYTE   PATT
  POIN2 Label_01F7D1FE
//  #01 //041   ----------------------------------------
 BYTE   W28
 BYTE   W01
 BYTE   MOD 0
 BYTE   N11  Fn3  v127
 BYTE   W12
 BYTE   MOD 0
 BYTE   N11  Gn3
 BYTE   W12
 BYTE   MOD 0
 BYTE   N23  Fn3
 BYTE   W24
 BYTE   MOD 0
 BYTE   N23  Cn3
 BYTE   W19
//  #01 //042   ----------------------------------------
 BYTE   W05
 BYTE   MOD 0
 BYTE   N23  Fn3
 BYTE   W24
 BYTE   MOD 0
 BYTE   N23  Cn4
 BYTE   W24
 BYTE   MOD 0
 BYTE   N44  Gn3
 BYTE   W24
 BYTE   MOD 1
 BYTE   W19
//  #01 //043   ----------------------------------------
 BYTE   W05
 BYTE   MOD 0
 BYTE   N44  Cn4
 BYTE   W24
 BYTE   MOD 1
 BYTE   W24
 BYTE   MOD 0
 BYTE   N92
 BYTE   W24
 BYTE   MOD 1
 BYTE   W19
//  #01 //044   ----------------------------------------
 BYTE   W52
 BYTE   W01
 BYTE   MOD 0
 BYTE   N23
 BYTE   W24
 BYTE   MOD 0
 BYTE   N23  Bn3
 BYTE   W19
//  #01 //045   ----------------------------------------
 BYTE   W05
 BYTE   MOD 0
 BYTE   N23  An3
 BYTE   W24
 BYTE   MOD 0
 BYTE   N23  Bn3
 BYTE   W24
 BYTE   MOD 0
 BYTE   TIE  Cs4
 BYTE   W24
 BYTE   MOD 1
 BYTE   W19
//  #01 //046   ----------------------------------------
 BYTE   W96
//  #01 //047   ----------------------------------------
 BYTE   W11
 BYTE   VOL   37*FE04TheFinalHolyWarREALxViPerZ7743_mvl/mxv
 BYTE   W06
 BYTE   VOL   32*FE04TheFinalHolyWarREALxViPerZ7743_mvl/mxv
 BYTE   W06
 BYTE   VOL   27*FE04TheFinalHolyWarREALxViPerZ7743_mvl/mxv
 BYTE   W06
 BYTE   VOL   23*FE04TheFinalHolyWarREALxViPerZ7743_mvl/mxv
 BYTE   W06
 BYTE   VOL   18*FE04TheFinalHolyWarREALxViPerZ7743_mvl/mxv
 BYTE   W06
 BYTE   VOL   14*FE04TheFinalHolyWarREALxViPerZ7743_mvl/mxv
 BYTE   W06
 BYTE   VOL   11*FE04TheFinalHolyWarREALxViPerZ7743_mvl/mxv
 BYTE   W05
 BYTE   EOT
 BYTE   GoTo
  POIN2 Label_01F7CFFB
 BYTE   FINE

//**************** Track 2 (Midi-Chn.1) ****************//

FE04TheFinalHolyWarREALxViPerZ7743_002:
//  #02 //000   ----------------------------------------
 BYTE   KEYSH   FE04TheFinalHolyWarREALxViPerZ7743_key+0
 BYTE   MODT 0
 BYTE   LFOS 44
 BYTE   MOD 0
 BYTE   BENDR  12
 BYTE   VOL   11*FE04TheFinalHolyWarREALxViPerZ7743_mvl/mxv
 BYTE   PAN   c_v+0
 BYTE   BEND   c_v+0
 BYTE   VOICE   48
 BYTE   PAN   c_v+36
 BYTE   VOL   29*FE04TheFinalHolyWarREALxViPerZ7743_mvl/mxv
 BYTE   N92  Cs3  v127
 BYTE   W42
 BYTE   W01
 BYTE   W52
 BYTE   W01
//  #02 //001   ----------------------------------------
 BYTE   N56  Bn2
 BYTE   W42
 BYTE   W01
 BYTE   W28
 BYTE   W01
 BYTE   N11
 BYTE   W24
//  #02 //002   ----------------------------------------
 BYTE   N92  An2
 BYTE   W42
 BYTE   W01
 BYTE   W64
//  #02 //003   ----------------------------------------
 BYTE   W01
 BYTE   N11  Gn2
 BYTE   W24
 BYTE   N11
 BYTE   W07
 BYTE   W17
 BYTE   N11
 BYTE   W24
 BYTE   N11
 BYTE   W12
 BYTE   TIE
 BYTE   W42
//  #02 //004   ----------------------------------------
 BYTE   W01
 BYTE   W96
//  #02 //005   ----------------------------------------
 BYTE   W52
 BYTE   EOT
 BYTE   W01
 BYTE   N11  Dn2
 BYTE   W36
 BYTE   N11
 BYTE   W07
//  #02 //006   ----------------------------------------
Label_019D640D:
 BYTE   W52
 BYTE   W01
 BYTE   N11  Dn2  v127
 BYTE   W36
 BYTE   N11
 BYTE   W07
 BYTE   PEND 
//  #02 //007   ----------------------------------------
 BYTE   W52
 BYTE   W01
Label_019D6418:
 BYTE   VOICE   48
 BYTE   VOL   29*FE04TheFinalHolyWarREALxViPerZ7743_mvl/mxv
 BYTE   PAN   c_v+36
 BYTE   VOL   29*FE04TheFinalHolyWarREALxViPerZ7743_mvl/mxv
 BYTE   N11  Dn2  v127
 BYTE   W36
 BYTE   N11
 BYTE   W07
//  #02 //008   ----------------------------------------
 BYTE   PATT
  POIN2 Label_019D640D
//  #02 //009   ----------------------------------------
 BYTE   PATT
  POIN2 Label_019D640D
//  #02 //010   ----------------------------------------
 BYTE   PATT
  POIN2 Label_019D640D
//  #02 //011   ----------------------------------------
 BYTE   PATT
  POIN2 Label_019D640D
//  #02 //012   ----------------------------------------
 BYTE   PATT
  POIN2 Label_019D640D
//  #02 //013   ----------------------------------------
Label_019D643F:
 BYTE   W52
 BYTE   W01
 BYTE   N11  Cn2  v127
 BYTE   W36
 BYTE   N11
 BYTE   W07
 BYTE   PEND 
//  #02 //014   ----------------------------------------
 BYTE   PATT
  POIN2 Label_019D643F
//  #02 //015   ----------------------------------------
 BYTE   W52
 BYTE   W01
 BYTE   N11  En3  v127
 BYTE   W36
 BYTE   N44
 BYTE   W07
//  #02 //016   ----------------------------------------
 BYTE   W52
 BYTE   W01
 BYTE   N11  Cn3
 BYTE   W36
 BYTE   N44
 BYTE   W07
//  #02 //017   ----------------------------------------
Label_019D645C:
 BYTE   W52
 BYTE   W01
 BYTE   N11  Bn2  v127
 BYTE   W36
 BYTE   N44
 BYTE   W07
 BYTE   PEND 
//  #02 //018   ----------------------------------------
 BYTE   PATT
  POIN2 Label_019D645C
//  #02 //019   ----------------------------------------
Label_019D646A:
 BYTE   W52
 BYTE   W01
 BYTE   N11  As2  v127
 BYTE   W36
 BYTE   N44
 BYTE   W07
 BYTE   PEND 
//  #02 //020   ----------------------------------------
 BYTE   W52
 BYTE   W01
 BYTE   N11  An2
 BYTE   W36
 BYTE   N44
 BYTE   W07
//  #02 //021   ----------------------------------------
 BYTE   PATT
  POIN2 Label_019D646A
//  #02 //022   ----------------------------------------
 BYTE   W52
 BYTE   W01
 BYTE   N23  Cn3  v127
 BYTE   W36
 BYTE   N44
 BYTE   W07
//  #02 //023   ----------------------------------------
Label_019D6487:
 BYTE   W52
 BYTE   W01
 BYTE   N11  Dn3  v127
 BYTE   W36
 BYTE   N44
 BYTE   W07
 BYTE   PEND 
//  #02 //024   ----------------------------------------
 BYTE   PATT
  POIN2 Label_019D6487
//  #02 //025   ----------------------------------------
 BYTE   PATT
  POIN2 Label_019D6487
//  #02 //026   ----------------------------------------
 BYTE   W64
 BYTE   W01
 BYTE   N11  Dn3  v044
 BYTE   W12
 BYTE   Dn3  v056
 BYTE   W12
 BYTE   Dn3  v068
 BYTE   W07
//  #02 //027   ----------------------------------------
 BYTE   W05
 BYTE   Dn3  v084
 BYTE   W12
 BYTE   Dn3  v096
 BYTE   W12
 BYTE   Dn3  v112
 BYTE   W12
 BYTE   N11
 BYTE   W12
 BYTE   VOL   24*FE04TheFinalHolyWarREALxViPerZ7743_mvl/mxv
 BYTE   N11  As2  v127
 BYTE   W12
 BYTE   N23
 BYTE   W30
 BYTE   W01
//  #02 //028   ----------------------------------------
Label_019D64BB:
 BYTE   W52
 BYTE   W01
 BYTE   N11  An2  v127
 BYTE   W12
 BYTE   N23
 BYTE   W30
 BYTE   W01
 BYTE   PEND 
//  #02 //029   ----------------------------------------
 BYTE   PATT
  POIN2 Label_019D64BB
//  #02 //030   ----------------------------------------
 BYTE   W52
 BYTE   W01
 BYTE   N44  Gn2  v127
 BYTE   W42
 BYTE   W01
//  #02 //031   ----------------------------------------
 BYTE   W05
 BYTE   N23  Fs2
 BYTE   W24
 BYTE   Fn2
 BYTE   W24
 BYTE   N11  En2
 BYTE   W12
 BYTE   N23
 BYTE   W30
 BYTE   W01
//  #02 //032   ----------------------------------------
 BYTE   W52
 BYTE   W01
 BYTE   N11
 BYTE   W12
 BYTE   N23
 BYTE   W30
 BYTE   W01
//  #02 //033   ----------------------------------------
Label_019D64E4:
 BYTE   W52
 BYTE   W01
 BYTE   N92  Fn2  v127
 BYTE   W42
 BYTE   W01
 BYTE   PEND 
//  #02 //034   ----------------------------------------
 BYTE   PATT
  POIN2 Label_019D64E4
//  #02 //035   ----------------------------------------
Label_019D64F1:
 BYTE   W52
 BYTE   W01
 BYTE   N92  Dn3  v127
 BYTE   W42
 BYTE   W01
 BYTE   PEND 
//  #02 //036   ----------------------------------------
Label_019D64F9:
 BYTE   W52
 BYTE   W01
 BYTE   N92  Cn3  v127
 BYTE   W42
 BYTE   W01
 BYTE   PEND 
//  #02 //037   ----------------------------------------
 BYTE   PATT
  POIN2 Label_019D64F1
//  #02 //038   ----------------------------------------
 BYTE   PATT
  POIN2 Label_019D64F9
//  #02 //039   ----------------------------------------
 BYTE   PATT
  POIN2 Label_019D64F1
//  #02 //040   ----------------------------------------
 BYTE   PATT
  POIN2 Label_019D64F9
//  #02 //041   ----------------------------------------
 BYTE   W52
 BYTE   W01
 BYTE   TIE  Cn3  v127
 BYTE   W42
 BYTE   W01
//  #02 //042   ----------------------------------------
 BYTE   W96
//  #02 //043   ----------------------------------------
 BYTE   W04
 BYTE   EOT
 BYTE   W01
 BYTE   N44  An2
 BYTE   W48
 BYTE   N92
 BYTE   W42
 BYTE   W01
//  #02 //044   ----------------------------------------
 BYTE   PATT
  POIN2 Label_019D64E4
//  #02 //045   ----------------------------------------
 BYTE   W52
 BYTE   W01
 BYTE   N92  En2  v127
 BYTE   W42
 BYTE   W01
//  #02 //046   ----------------------------------------
 BYTE   W64
 BYTE   W01
 BYTE   N07  Cs3
 BYTE   W24
 BYTE   N07
 BYTE   W07
//  #02 //047   ----------------------------------------
 BYTE   W17
 BYTE   N07
 BYTE   W24
 BYTE   N07
 BYTE   W11
 BYTE   GoTo
  POIN2 Label_019D6418
 BYTE   FINE

//**************** Track 3 (Midi-Chn.2) ****************//

FE04TheFinalHolyWarREALxViPerZ7743_003:
//  #03 //000   ----------------------------------------
 BYTE   KEYSH   FE04TheFinalHolyWarREALxViPerZ7743_key+0
 BYTE   MODT 0
 BYTE   LFOS 44
 BYTE   MOD 0
 BYTE   BENDR  12
 BYTE   VOL   11*FE04TheFinalHolyWarREALxViPerZ7743_mvl/mxv
 BYTE   PAN   c_v+0
 BYTE   BEND   c_v+0
 BYTE   VOICE   48
 BYTE   PAN   c_v-54
 BYTE   VOL   29*FE04TheFinalHolyWarREALxViPerZ7743_mvl/mxv
 BYTE   N92  En2  v127
 BYTE   W42
 BYTE   W01
 BYTE   W52
 BYTE   W01
//  #03 //001   ----------------------------------------
 BYTE   N56  Dn2
 BYTE   W42
 BYTE   W01
 BYTE   W28
 BYTE   W01
 BYTE   N11
 BYTE   W24
//  #03 //002   ----------------------------------------
 BYTE   N92  Cn2
 BYTE   W42
 BYTE   W01
 BYTE   W64
//  #03 //003   ----------------------------------------
 BYTE   W01
 BYTE   N11  As1
 BYTE   W24
 BYTE   N11
 BYTE   W07
 BYTE   W17
 BYTE   N11
 BYTE   W24
 BYTE   N11
 BYTE   W12
 BYTE   TIE
 BYTE   W42
//  #03 //004   ----------------------------------------
 BYTE   W01
 BYTE   W96
//  #03 //005   ----------------------------------------
 BYTE   W52
 BYTE   EOT
 BYTE   W01
 BYTE   N11  An2
 BYTE   W36
 BYTE   N11
 BYTE   W07
//  #03 //006   ----------------------------------------
 BYTE   W52
 BYTE   W01
 BYTE   Fs2
 BYTE   W36
 BYTE   N11
 BYTE   W07
//  #03 //007   ----------------------------------------
 BYTE   W40
 BYTE   W01
 BYTE   An1
 BYTE   W12
Label_01F7C77F:
 BYTE   VOICE   48
 BYTE   PAN   c_v-54
 BYTE   VOL   29*FE04TheFinalHolyWarREALxViPerZ7743_mvl/mxv
 BYTE   PAN   c_v-44
 BYTE   VOL   29*FE04TheFinalHolyWarREALxViPerZ7743_mvl/mxv
 BYTE   N11  An2  v127
 BYTE   W36
 BYTE   N11
 BYTE   W07
//  #03 //008   ----------------------------------------
Label_01F7C78F:
 BYTE   W52
 BYTE   W01
 BYTE   N11  An2  v127
 BYTE   W36
 BYTE   N11
 BYTE   W07
 BYTE   PEND 
//  #03 //009   ----------------------------------------
 BYTE   W40
 BYTE   W01
 BYTE   An1
 BYTE   W12
 BYTE   Bn2
 BYTE   W36
 BYTE   N11
 BYTE   W07
//  #03 //010   ----------------------------------------
 BYTE   W52
 BYTE   W01
 BYTE   N11
 BYTE   W36
 BYTE   N11
 BYTE   W07
//  #03 //011   ----------------------------------------
 BYTE   W40
 BYTE   W01
 BYTE   An1
 BYTE   W12
 BYTE   An2
 BYTE   W36
 BYTE   N11
 BYTE   W07
//  #03 //012   ----------------------------------------
 BYTE   PATT
  POIN2 Label_01F7C78F
//  #03 //013   ----------------------------------------
 BYTE   W40
 BYTE   W01
 BYTE   N11  An1  v127
 BYTE   W12
 BYTE   Gn2
 BYTE   W36
 BYTE   N11
 BYTE   W07
//  #03 //014   ----------------------------------------
 BYTE   W52
 BYTE   W01
 BYTE   N11
 BYTE   W36
 BYTE   N11
 BYTE   W07
//  #03 //015   ----------------------------------------
 BYTE   W52
 BYTE   W01
 BYTE   Gn3
 BYTE   W36
 BYTE   N44
 BYTE   W07
//  #03 //016   ----------------------------------------
Label_01F7C7C9:
 BYTE   W52
 BYTE   W01
 BYTE   N11  En3  v127
 BYTE   W36
 BYTE   N44
 BYTE   W07
 BYTE   PEND 
//  #03 //017   ----------------------------------------
Label_01F7C7D2:
 BYTE   W52
 BYTE   W01
 BYTE   N11  Dn3  v127
 BYTE   W36
 BYTE   N44
 BYTE   W07
 BYTE   PEND 
//  #03 //018   ----------------------------------------
 BYTE   PATT
  POIN2 Label_01F7C7D2
//  #03 //019   ----------------------------------------
 BYTE   PATT
  POIN2 Label_01F7C7D2
//  #03 //020   ----------------------------------------
 BYTE   W52
 BYTE   W01
 BYTE   N11  Cn3  v127
 BYTE   W36
 BYTE   N44
 BYTE   W07
//  #03 //021   ----------------------------------------
 BYTE   PATT
  POIN2 Label_01F7C7D2
//  #03 //022   ----------------------------------------
 BYTE   W52
 BYTE   W01
 BYTE   N23  Dn3  v127
 BYTE   W36
 BYTE   N44
 BYTE   W07
//  #03 //023   ----------------------------------------
Label_01F7C7FA:
 BYTE   W52
 BYTE   W01
 BYTE   N11  Fn3  v127
 BYTE   W36
 BYTE   N44
 BYTE   W07
 BYTE   PEND 
//  #03 //024   ----------------------------------------
 BYTE   PATT
  POIN2 Label_01F7C7C9
//  #03 //025   ----------------------------------------
 BYTE   PATT
  POIN2 Label_01F7C7FA
//  #03 //026   ----------------------------------------
 BYTE   W64
 BYTE   W01
 BYTE   N11  En3  v044
 BYTE   W12
 BYTE   En3  v056
 BYTE   W12
 BYTE   En3  v068
 BYTE   W07
//  #03 //027   ----------------------------------------
 BYTE   W05
 BYTE   En3  v084
 BYTE   W12
 BYTE   En3  v096
 BYTE   W12
 BYTE   En3  v112
 BYTE   W12
 BYTE   N11
 BYTE   W12
 BYTE   VOL   24*FE04TheFinalHolyWarREALxViPerZ7743_mvl/mxv
 BYTE   N11  Dn3  v127
 BYTE   W12
 BYTE   N23
 BYTE   W30
 BYTE   W01
//  #03 //028   ----------------------------------------
Label_01F7C82E:
 BYTE   W52
 BYTE   W01
 BYTE   N11  Cn3  v127
 BYTE   W12
 BYTE   N23
 BYTE   W30
 BYTE   W01
 BYTE   PEND 
//  #03 //029   ----------------------------------------
 BYTE   PATT
  POIN2 Label_01F7C82E
//  #03 //030   ----------------------------------------
 BYTE   W52
 BYTE   W01
 BYTE   N44  Dn3  v127
 BYTE   W42
 BYTE   W01
//  #03 //031   ----------------------------------------
 BYTE   W05
 BYTE   N44
 BYTE   W48
 BYTE   N11  Cn3
 BYTE   W12
 BYTE   N23
 BYTE   W30
 BYTE   W01
//  #03 //032   ----------------------------------------
 BYTE   PATT
  POIN2 Label_01F7C82E
//  #03 //033   ----------------------------------------
Label_01F7C852:
 BYTE   W52
 BYTE   W01
 BYTE   N92  Cn3  v127
 BYTE   W42
 BYTE   W01
 BYTE   PEND 
//  #03 //034   ----------------------------------------
 BYTE   PATT
  POIN2 Label_01F7C852
//  #03 //035   ----------------------------------------
Label_01F7C85F:
 BYTE   W52
 BYTE   W01
 BYTE   N92  Fn3  v127
 BYTE   W42
 BYTE   W01
 BYTE   PEND 
//  #03 //036   ----------------------------------------
Label_01F7C867:
 BYTE   W52
 BYTE   W01
 BYTE   N92  En3  v127
 BYTE   W42
 BYTE   W01
 BYTE   PEND 
//  #03 //037   ----------------------------------------
 BYTE   PATT
  POIN2 Label_01F7C85F
//  #03 //038   ----------------------------------------
 BYTE   PATT
  POIN2 Label_01F7C867
//  #03 //039   ----------------------------------------
 BYTE   PATT
  POIN2 Label_01F7C85F
//  #03 //040   ----------------------------------------
 BYTE   PATT
  POIN2 Label_01F7C867
//  #03 //041   ----------------------------------------
 BYTE   PATT
  POIN2 Label_01F7C85F
//  #03 //042   ----------------------------------------
 BYTE   W52
 BYTE   W01
 BYTE   N44  Fn3  v127
 BYTE   W42
 BYTE   W01
//  #03 //043   ----------------------------------------
 BYTE   W05
 BYTE   En3
 BYTE   W48
 BYTE   N44
 BYTE   W42
 BYTE   W01
//  #03 //044   ----------------------------------------
 BYTE   W05
 BYTE   Cn3
 BYTE   W48
 BYTE   N44
 BYTE   W42
 BYTE   W01
//  #03 //045   ----------------------------------------
 BYTE   W05
 BYTE   Dn3
 BYTE   W48
 BYTE   N92  En3
 BYTE   W42
 BYTE   W01
//  #03 //046   ----------------------------------------
 BYTE   W64
 BYTE   W01
 BYTE   N07
 BYTE   W24
 BYTE   N07
 BYTE   W07
//  #03 //047   ----------------------------------------
 BYTE   W17
 BYTE   N07
 BYTE   W24
 BYTE   N07
 BYTE   W11
 BYTE   GoTo
  POIN2 Label_01F7C77F
 BYTE   FINE

//**************** Track 4 (Midi-Chn.3) ****************//

FE04TheFinalHolyWarREALxViPerZ7743_004:
//  #04 //000   ----------------------------------------
 BYTE   KEYSH   FE04TheFinalHolyWarREALxViPerZ7743_key+0
 BYTE   MODT 0
 BYTE   LFOS 44
 BYTE   MOD 0
 BYTE   BENDR  12
 BYTE   VOL   11*FE04TheFinalHolyWarREALxViPerZ7743_mvl/mxv
 BYTE   PAN   c_v+0
 BYTE   BEND   c_v+0
 BYTE   VOICE   48
 BYTE   PAN   c_v+16
 BYTE   VOL   50*FE04TheFinalHolyWarREALxViPerZ7743_mvl/mxv
 BYTE   W42
 BYTE   W01
 BYTE   W96
//  #04 //001   ----------------------------------------
 BYTE   W96
//  #04 //002   ----------------------------------------
 BYTE   W96
//  #04 //003   ----------------------------------------
 BYTE   W76
 BYTE   W01
 BYTE   N23  As3  v127
 BYTE   W19
//  #04 //004   ----------------------------------------
 BYTE   W05
 BYTE   Gn3
 BYTE   W24
 BYTE   Dn3
 BYTE   W24
 BYTE   N80  As2
 BYTE   W42
 BYTE   W01
//  #04 //005   ----------------------------------------
 BYTE   W40
 BYTE   W01
 BYTE   N04  Dn4
 BYTE   W06
 BYTE   N04
 BYTE   W06
 BYTE   N09
 BYTE   W42
 BYTE   W01
//  #04 //006   ----------------------------------------
 BYTE   W96
//  #04 //007   ----------------------------------------
 BYTE   W52
 BYTE   W01
Label_019D672B:
 BYTE   VOICE   48
 BYTE   PAN   c_v+16
 BYTE   VOL   50*FE04TheFinalHolyWarREALxViPerZ7743_mvl/mxv
 BYTE   PAN   c_v-54
 BYTE   VOL   29*FE04TheFinalHolyWarREALxViPerZ7743_mvl/mxv
 BYTE   W42
 BYTE   W01
//  #04 //008   ----------------------------------------
 BYTE   W96
//  #04 //009   ----------------------------------------
 BYTE   W96
//  #04 //010   ----------------------------------------
 BYTE   W96
//  #04 //011   ----------------------------------------
 BYTE   W96
//  #04 //012   ----------------------------------------
 BYTE   W96
//  #04 //013   ----------------------------------------
 BYTE   W96
//  #04 //014   ----------------------------------------
 BYTE   W96
//  #04 //015   ----------------------------------------
Label_019D673E:
 BYTE   W52
 BYTE   W01
 BYTE   N11  Gn2  v127
 BYTE   W36
 BYTE   N44
 BYTE   W07
 BYTE   PEND 
//  #04 //016   ----------------------------------------
 BYTE   W52
 BYTE   W01
 BYTE   N11  Fn2
 BYTE   W36
 BYTE   N44
 BYTE   W07
//  #04 //017   ----------------------------------------
Label_019D674E:
 BYTE   W52
 BYTE   W01
 BYTE   N11  En2  v127
 BYTE   W36
 BYTE   N44
 BYTE   W07
 BYTE   PEND 
//  #04 //018   ----------------------------------------
 BYTE   PATT
  POIN2 Label_019D674E
//  #04 //019   ----------------------------------------
Label_019D675C:
 BYTE   W52
 BYTE   W01
 BYTE   N11  Dn2  v127
 BYTE   W36
 BYTE   N44
 BYTE   W07
 BYTE   PEND 
//  #04 //020   ----------------------------------------
 BYTE   W52
 BYTE   W01
 BYTE   N11  Cn2
 BYTE   W36
 BYTE   N44
 BYTE   W07
//  #04 //021   ----------------------------------------
 BYTE   PATT
  POIN2 Label_019D675C
//  #04 //022   ----------------------------------------
 BYTE   W52
 BYTE   W01
 BYTE   N11  Fn2  v127
 BYTE   W12
 BYTE   N11
 BYTE   W24
 BYTE   N44
 BYTE   W07
//  #04 //023   ----------------------------------------
 BYTE   PATT
  POIN2 Label_019D673E
//  #04 //024   ----------------------------------------
 BYTE   PATT
  POIN2 Label_019D673E
//  #04 //025   ----------------------------------------
 BYTE   PATT
  POIN2 Label_019D673E
//  #04 //026   ----------------------------------------
 BYTE   W64
 BYTE   W01
 BYTE   N11  Gn2  v044
 BYTE   W12
 BYTE   Gn2  v056
 BYTE   W12
 BYTE   Gn2  v068
 BYTE   W07
//  #04 //027   ----------------------------------------
 BYTE   W05
 BYTE   Gn2  v084
 BYTE   W12
 BYTE   Gn2  v096
 BYTE   W12
 BYTE   Gn2  v112
 BYTE   W12
 BYTE   N11
 BYTE   W54
 BYTE   W01
//  #04 //028   ----------------------------------------
 BYTE   W96
//  #04 //029   ----------------------------------------
 BYTE   W96
//  #04 //030   ----------------------------------------
 BYTE   W96
//  #04 //031   ----------------------------------------
 BYTE   W96
//  #04 //032   ----------------------------------------
 BYTE   W96
//  #04 //033   ----------------------------------------
 BYTE   W96
//  #04 //034   ----------------------------------------
 BYTE   W96
//  #04 //035   ----------------------------------------
 BYTE   W52
 BYTE   W01
 BYTE   VOICE   54
 BYTE   PAN   c_v+26
 BYTE   VOL   39*FE04TheFinalHolyWarREALxViPerZ7743_mvl/mxv
 BYTE   TIE  Dn3  v127
 BYTE   W42
 BYTE   W01
//  #04 //036   ----------------------------------------
 BYTE   W76
 BYTE   W01
 BYTE   EOT
 BYTE   N24  Cn3
 BYTE   W19
//  #04 //037   ----------------------------------------
Label_019D67BD:
 BYTE   W05
 BYTE   N24  Gn3  v127
 BYTE   W24
 BYTE   Cn4
 BYTE   W24
 BYTE   Gn3
 BYTE   W24
 BYTE   N96  Fn3
 BYTE   W19
 BYTE   PEND 
//  #04 //038   ----------------------------------------
Label_019D67CA:
 BYTE   W76
 BYTE   W01
 BYTE   N24  Cn3  v127
 BYTE   W19
 BYTE   PEND 
//  #04 //039   ----------------------------------------
 BYTE   PATT
  POIN2 Label_019D67BD
//  #04 //040   ----------------------------------------
 BYTE   PATT
  POIN2 Label_019D67CA
//  #04 //041   ----------------------------------------
 BYTE   W05
 BYTE   N24  Gn3  v127
 BYTE   W24
 BYTE   Cn4
 BYTE   W66
 BYTE   W01
//  #04 //042   ----------------------------------------
 BYTE   W96
//  #04 //043   ----------------------------------------
 BYTE   W96
//  #04 //044   ----------------------------------------
 BYTE   W96
//  #04 //045   ----------------------------------------
 BYTE   W96
//  #04 //046   ----------------------------------------
 BYTE   W96
//  #04 //047   ----------------------------------------
 BYTE   W52
 BYTE   GoTo
  POIN2 Label_019D672B
 BYTE   FINE

//**************** Track 5 (Midi-Chn.4) ****************//

FE04TheFinalHolyWarREALxViPerZ7743_005:
//  #05 //000   ----------------------------------------
 BYTE   KEYSH   FE04TheFinalHolyWarREALxViPerZ7743_key+0
 BYTE   MODT 0
 BYTE   LFOS 44
 BYTE   MOD 0
 BYTE   BENDR  12
 BYTE   VOL   11*FE04TheFinalHolyWarREALxViPerZ7743_mvl/mxv
 BYTE   PAN   c_v+0
 BYTE   BEND   c_v+0
 BYTE   W42
 BYTE   W01
 BYTE   W96
//  #05 //001   ----------------------------------------
 BYTE   W96
//  #05 //002   ----------------------------------------
 BYTE   W96
//  #05 //003   ----------------------------------------
 BYTE   W96
//  #05 //004   ----------------------------------------
 BYTE   W96
//  #05 //005   ----------------------------------------
 BYTE   W96
//  #05 //006   ----------------------------------------
 BYTE   W96
//  #05 //007   ----------------------------------------
 BYTE   W52
 BYTE   W01
Label_019D659F:
 BYTE   VOICE   48
 BYTE   PAN   c_v+0
 BYTE   VOL   11*FE04TheFinalHolyWarREALxViPerZ7743_mvl/mxv
 BYTE   PAN   c_v+11
 BYTE   VOL   29*FE04TheFinalHolyWarREALxViPerZ7743_mvl/mxv
 BYTE   N44  Dn4  v127
 BYTE   W42
 BYTE   W01
//  #05 //008   ----------------------------------------
Label_019D65AE:
 BYTE   W05
 BYTE   N23  An4  v127
 BYTE   W24
 BYTE   Gn4
 BYTE   W24
 BYTE   N44  Fs4
 BYTE   W42
 BYTE   W01
 BYTE   PEND 
//  #05 //009   ----------------------------------------
 BYTE   W05
 BYTE   N23  En4
 BYTE   W24
 BYTE   Dn4
 BYTE   W24
 BYTE   TIE  En4
 BYTE   W42
 BYTE   W01
//  #05 //010   ----------------------------------------
 BYTE   W96
//  #05 //011   ----------------------------------------
 BYTE   W04
 BYTE   EOT
 BYTE   W48
 BYTE   W01
 BYTE   N44  Dn4
 BYTE   W42
 BYTE   W01
//  #05 //012   ----------------------------------------
 BYTE   PATT
  POIN2 Label_019D65AE
//  #05 //013   ----------------------------------------
 BYTE   W05
 BYTE   N23  En4  v127
 BYTE   W24
 BYTE   Dn4
 BYTE   W24
 BYTE   N11  En4
 BYTE   W18
 BYTE   N05  Fs4
 BYTE   W06
 BYTE   TIE  Gn4
 BYTE   W19
//  #05 //014   ----------------------------------------
 BYTE   W96
//  #05 //015   ----------------------------------------
 BYTE   W04
 BYTE   EOT
 BYTE   W24
 BYTE   W01
 BYTE   N23  An4
 BYTE   W24
 BYTE   N92  Bn4
 BYTE   W42
 BYTE   W01
//  #05 //016   ----------------------------------------
 BYTE   W52
 BYTE   W01
 BYTE   N44  Dn5
 BYTE   W42
 BYTE   W01
//  #05 //017   ----------------------------------------
 BYTE   W05
 BYTE   Gn4
 BYTE   W48
 BYTE   N68  Fs4
 BYTE   W42
 BYTE   W01
//  #05 //018   ----------------------------------------
 BYTE   W32
 BYTE   W03
 BYTE   N05  Dn4
 BYTE   W06
 BYTE   An4
 BYTE   W06
 BYTE   Gn4
 BYTE   W06
 BYTE   N68  Fs4
 BYTE   W42
 BYTE   W01
//  #05 //019   ----------------------------------------
 BYTE   W28
 BYTE   W01
 BYTE   N23  En4
 BYTE   W24
 BYTE   Gn4
 BYTE   W24
 BYTE   Dn4
 BYTE   W19
//  #05 //020   ----------------------------------------
 BYTE   W17
 BYTE   N11
 BYTE   W12
 BYTE   Gn4
 BYTE   W12
 BYTE   Cn5
 BYTE   W12
 BYTE   N23  An4
 BYTE   W24
 BYTE   N44  Fn4
 BYTE   W19
//  #05 //021   ----------------------------------------
 BYTE   W28
 BYTE   W01
 BYTE   N23
 BYTE   W24
 BYTE   N68  Gn4
 BYTE   W42
 BYTE   W01
//  #05 //022   ----------------------------------------
 BYTE   W32
 BYTE   W03
 BYTE   N05  An4
 BYTE   W06
 BYTE   Gn4
 BYTE   W06
 BYTE   Fn4
 BYTE   W06
 BYTE   N68  Gn4
 BYTE   W42
 BYTE   W01
//  #05 //023   ----------------------------------------
 BYTE   W32
 BYTE   W03
 BYTE   N05  An4
 BYTE   W06
 BYTE   Gn4
 BYTE   W06
 BYTE   Fn4
 BYTE   W06
 BYTE   TIE  Gn4
 BYTE   W42
 BYTE   W01
//  #05 //024   ----------------------------------------
 BYTE   W96
//  #05 //025   ----------------------------------------
 BYTE   W28
 BYTE   EOT
 BYTE   W01
 BYTE   N11  Cn5
 BYTE   W12
 BYTE   Fn5
 BYTE   W12
 BYTE   TIE  Dn5
 BYTE   W42
 BYTE   W01
//  #05 //026   ----------------------------------------
 BYTE   W96
//  #05 //027   ----------------------------------------
 BYTE   W16
 BYTE   EOT
 BYTE   W80
//  #05 //028   ----------------------------------------
 BYTE   W96
//  #05 //029   ----------------------------------------
 BYTE   W96
//  #05 //030   ----------------------------------------
 BYTE   W96
//  #05 //031   ----------------------------------------
 BYTE   W96
//  #05 //032   ----------------------------------------
 BYTE   W96
//  #05 //033   ----------------------------------------
 BYTE   W96
//  #05 //034   ----------------------------------------
 BYTE   W96
//  #05 //035   ----------------------------------------
 BYTE   W52
 BYTE   W01
 BYTE   VOICE   11
 BYTE   PAN   c_v-14
 BYTE   VOL   29*FE04TheFinalHolyWarREALxViPerZ7743_mvl/mxv
 BYTE   TIE  Dn4
 BYTE   W42
 BYTE   W01
//  #05 //036   ----------------------------------------
 BYTE   W76
 BYTE   W01
 BYTE   EOT
 BYTE   N24  Cn4
 BYTE   W19
//  #05 //037   ----------------------------------------
Label_019D666A:
 BYTE   W05
 BYTE   N24  Gn4  v127
 BYTE   W24
 BYTE   Cn5
 BYTE   W24
 BYTE   Gn4
 BYTE   W24
 BYTE   N96  Fn4
 BYTE   W19
 BYTE   PEND 
//  #05 //038   ----------------------------------------
Label_019D6677:
 BYTE   W76
 BYTE   W01
 BYTE   N24  Cn4  v127
 BYTE   W19
 BYTE   PEND 
//  #05 //039   ----------------------------------------
 BYTE   PATT
  POIN2 Label_019D666A
//  #05 //040   ----------------------------------------
 BYTE   PATT
  POIN2 Label_019D6677
//  #05 //041   ----------------------------------------
 BYTE   W05
 BYTE   N24  Gn4  v127
 BYTE   W24
 BYTE   Cn5
 BYTE   W24
 BYTE   N48  Fn4
 BYTE   W42
 BYTE   W01
//  #05 //042   ----------------------------------------
 BYTE   W05
 BYTE   N24
 BYTE   W24
 BYTE   Cn5
 BYTE   W24
 BYTE   N48  Gn4
 BYTE   W42
 BYTE   W01
//  #05 //043   ----------------------------------------
 BYTE   W05
 BYTE   Cn5
 BYTE   W48
 BYTE   N96
 BYTE   W42
 BYTE   W01
//  #05 //044   ----------------------------------------
 BYTE   W52
 BYTE   W01
 BYTE   N24
 BYTE   W24
 BYTE   Bn4
 BYTE   W19
//  #05 //045   ----------------------------------------
 BYTE   W05
 BYTE   An4
 BYTE   W24
 BYTE   Bn4
 BYTE   W24
 BYTE   TIE  Cs5
 BYTE   W42
 BYTE   W01
//  #05 //046   ----------------------------------------
 BYTE   W96
//  #05 //047   ----------------------------------------
 BYTE   W52
 BYTE   EOT
 BYTE   GoTo
  POIN2 Label_019D659F
 BYTE   FINE

//**************** Track 6 (Midi-Chn.5) ****************//

FE04TheFinalHolyWarREALxViPerZ7743_006:
//  #06 //000   ----------------------------------------
 BYTE   KEYSH   FE04TheFinalHolyWarREALxViPerZ7743_key+0
 BYTE   MODT 0
 BYTE   LFOS 44
 BYTE   MOD 0
 BYTE   BENDR  12
 BYTE   VOL   22*FE04TheFinalHolyWarREALxViPerZ7743_mvl/mxv
 BYTE   PAN   c_v+0
 BYTE   BEND   c_v+0
 BYTE   VOICE   34
 BYTE   PAN   c_v-24
 BYTE   VOL   40*FE04TheFinalHolyWarREALxViPerZ7743_mvl/mxv
 BYTE   N92  An0  v127
 BYTE   W42
 BYTE   W01
 BYTE   W52
 BYTE   W01
//  #06 //001   ----------------------------------------
 BYTE   N68  Gn0
 BYTE   W42
 BYTE   W01
 BYTE   W28
 BYTE   W01
 BYTE   N11
 BYTE   W24
//  #06 //002   ----------------------------------------
 BYTE   N92  Fn0
 BYTE   W42
 BYTE   W01
 BYTE   W64
//  #06 //003   ----------------------------------------
 BYTE   W01
 BYTE   N11  Ds0
 BYTE   W24
 BYTE   N11
 BYTE   W07
 BYTE   W17
 BYTE   N11
 BYTE   W24
 BYTE   N11
 BYTE   W12
 BYTE   TIE
 BYTE   W42
//  #06 //004   ----------------------------------------
 BYTE   W01
 BYTE   W96
//  #06 //005   ----------------------------------------
 BYTE   W52
 BYTE   EOT
 BYTE   W01
 BYTE   N11  Dn1
 BYTE   W42
 BYTE   W01
//  #06 //006   ----------------------------------------
 BYTE   W96
//  #06 //007   ----------------------------------------
 BYTE   W52
 BYTE   W01
Label_01F7C90F:
 BYTE   VOICE   35
 BYTE   PAN   c_v-24
 BYTE   VOL   40*FE04TheFinalHolyWarREALxViPerZ7743_mvl/mxv
 BYTE   PAN   c_v-24
 BYTE   VOL   56*FE04TheFinalHolyWarREALxViPerZ7743_mvl/mxv
 BYTE   W42
 BYTE   W01
//  #06 //008   ----------------------------------------
 BYTE   W96
//  #06 //009   ----------------------------------------
 BYTE   W96
//  #06 //010   ----------------------------------------
 BYTE   W96
//  #06 //011   ----------------------------------------
 BYTE   W96
//  #06 //012   ----------------------------------------
 BYTE   W96
//  #06 //013   ----------------------------------------
 BYTE   W96
//  #06 //014   ----------------------------------------
 BYTE   W96
//  #06 //015   ----------------------------------------
 BYTE   W28
 BYTE   W01
 BYTE   N24  An1  v127
 BYTE   W24
 BYTE   N09
 BYTE   W12
 BYTE   An1  v068
 BYTE   W12
 BYTE   N09
 BYTE   W12
 BYTE   An1  v127
 BYTE   W07
//  #06 //016   ----------------------------------------
 BYTE   W05
 BYTE   An1  v068
 BYTE   W12
 BYTE   N09
 BYTE   W12
 BYTE   An1  v127
 BYTE   W12
 BYTE   An1  v068
 BYTE   W12
 BYTE   Fn1  v127
 BYTE   W12
 BYTE   Fn1  v068
 BYTE   W12
 BYTE   N09
 BYTE   W12
 BYTE   Fn1  v127
 BYTE   W07
//  #06 //017   ----------------------------------------
 BYTE   W05
 BYTE   Fn1  v068
 BYTE   W12
 BYTE   N09
 BYTE   W12
 BYTE   Fn1  v127
 BYTE   W12
 BYTE   Fn1  v068
 BYTE   W12
 BYTE   En1  v127
 BYTE   W12
 BYTE   En1  v068
 BYTE   W12
 BYTE   N09
 BYTE   W12
 BYTE   En1  v127
 BYTE   W07
//  #06 //018   ----------------------------------------
 BYTE   W05
 BYTE   En1  v068
 BYTE   W12
 BYTE   N09
 BYTE   W12
 BYTE   En1  v127
 BYTE   W12
 BYTE   En1  v068
 BYTE   W12
 BYTE   En1  v127
 BYTE   W12
 BYTE   En1  v068
 BYTE   W12
 BYTE   N09
 BYTE   W12
 BYTE   En1  v127
 BYTE   W07
//  #06 //019   ----------------------------------------
 BYTE   W05
 BYTE   En1  v068
 BYTE   W12
 BYTE   N09
 BYTE   W12
 BYTE   En1  v127
 BYTE   W12
 BYTE   En1  v068
 BYTE   W12
 BYTE   Dn1  v127
 BYTE   W12
 BYTE   Dn1  v068
 BYTE   W12
 BYTE   N09
 BYTE   W12
 BYTE   Dn1  v127
 BYTE   W07
//  #06 //020   ----------------------------------------
 BYTE   W05
 BYTE   Dn1  v068
 BYTE   W12
 BYTE   N09
 BYTE   W12
 BYTE   Dn1  v127
 BYTE   W12
 BYTE   Dn1  v068
 BYTE   W12
 BYTE   Cn1  v127
 BYTE   W12
 BYTE   Cn1  v068
 BYTE   W12
 BYTE   N09
 BYTE   W12
 BYTE   Cn1  v127
 BYTE   W07
//  #06 //021   ----------------------------------------
 BYTE   W05
 BYTE   Cn1  v068
 BYTE   W12
 BYTE   N09
 BYTE   W12
 BYTE   Cn1  v127
 BYTE   W12
 BYTE   Cn1  v068
 BYTE   W12
 BYTE   Dn1  v127
 BYTE   W12
 BYTE   Dn1  v068
 BYTE   W12
 BYTE   N09
 BYTE   W12
 BYTE   Dn1  v127
 BYTE   W07
//  #06 //022   ----------------------------------------
 BYTE   W05
 BYTE   Dn1  v068
 BYTE   W12
 BYTE   N09
 BYTE   W12
 BYTE   Dn1  v127
 BYTE   W12
 BYTE   Dn1  v068
 BYTE   W12
 BYTE   Fn1  v127
 BYTE   W12
 BYTE   Fn1  v068
 BYTE   W12
 BYTE   N09
 BYTE   W12
 BYTE   Fn1  v127
 BYTE   W07
//  #06 //023   ----------------------------------------
 BYTE   W05
 BYTE   Fn1  v068
 BYTE   W12
 BYTE   N09
 BYTE   W12
 BYTE   Fn1  v127
 BYTE   W12
 BYTE   Fn1  v068
 BYTE   W12
 BYTE   Gn1  v127
 BYTE   W12
 BYTE   Gn1  v068
 BYTE   W12
 BYTE   N09
 BYTE   W12
 BYTE   Gn1  v127
 BYTE   W07
//  #06 //024   ----------------------------------------
 BYTE   W05
 BYTE   Gn1  v068
 BYTE   W12
 BYTE   N09
 BYTE   W12
 BYTE   Gn1  v127
 BYTE   W12
 BYTE   Gn1  v068
 BYTE   W12
 BYTE   Gn1  v127
 BYTE   W12
 BYTE   Gn1  v068
 BYTE   W12
 BYTE   N09
 BYTE   W12
 BYTE   Gn1  v127
 BYTE   W07
//  #06 //025   ----------------------------------------
 BYTE   W05
 BYTE   Gn1  v068
 BYTE   W12
 BYTE   N09
 BYTE   W12
 BYTE   N18  Gn1  v127
 BYTE   W24
 BYTE   N09
 BYTE   W12
 BYTE   Gn1  v068
 BYTE   W12
 BYTE   N09
 BYTE   W12
 BYTE   Gn1  v127
 BYTE   W07
//  #06 //026   ----------------------------------------
 BYTE   W05
 BYTE   Gn1  v068
 BYTE   W12
 BYTE   N09
 BYTE   W12
 BYTE   Gn1  v127
 BYTE   W12
 BYTE   Gn1  v068
 BYTE   W12
 BYTE   N09
 BYTE   W12
 BYTE   N09
 BYTE   W12
 BYTE   Gn1  v084
 BYTE   W12
 BYTE   N09
 BYTE   W07
//  #06 //027   ----------------------------------------
 BYTE   W05
 BYTE   Gn1  v096
 BYTE   W12
 BYTE   N09
 BYTE   W12
 BYTE   Gn1  v127
 BYTE   W12
 BYTE   N09
 BYTE   W12
 BYTE   VOL   49*FE04TheFinalHolyWarREALxViPerZ7743_mvl/mxv
 BYTE   N09  Ds1
 BYTE   W12
 BYTE   N60
 BYTE   W30
 BYTE   W01
//  #06 //028   ----------------------------------------
 BYTE   W52
 BYTE   W01
 BYTE   N09
 BYTE   W12
 BYTE   N60
 BYTE   W30
 BYTE   W01
//  #06 //029   ----------------------------------------
 BYTE   W52
 BYTE   W01
 BYTE   N09  Dn1
 BYTE   W12
 BYTE   N60
 BYTE   W30
 BYTE   W01
//  #06 //030   ----------------------------------------
 BYTE   W52
 BYTE   W01
 BYTE   N36  Gn1
 BYTE   W42
 BYTE   W01
//  #06 //031   ----------------------------------------
 BYTE   W05
 BYTE   N13  Fs1
 BYTE   W18
 BYTE   N22  Fn1
 BYTE   W30
 BYTE   N36  En1
 BYTE   W42
 BYTE   W01
//  #06 //032   ----------------------------------------
 BYTE   W05
 BYTE   Gn1
 BYTE   W48
 BYTE   Cn2
 BYTE   W42
 BYTE   W01
//  #06 //033   ----------------------------------------
 BYTE   W05
 BYTE   N18  Gn1
 BYTE   W24
 BYTE   Cn2
 BYTE   W24
 BYTE   N54  Fn1
 BYTE   W42
 BYTE   W01
//  #06 //034   ----------------------------------------
 BYTE   W28
 BYTE   W01
 BYTE   N09  An1
 BYTE   W12
 BYTE   Gn1
 BYTE   W12
 BYTE   N72  Fn1
 BYTE   W42
 BYTE   W01
//  #06 //035   ----------------------------------------
 BYTE   W52
 BYTE   W01
 BYTE   VOICE   48
 BYTE   PAN   c_v-34
 BYTE   VOL   49*FE04TheFinalHolyWarREALxViPerZ7743_mvl/mxv
 BYTE   N21  As1
 BYTE   W36
 BYTE   N10
 BYTE   W07
//  #06 //036   ----------------------------------------
Label_01F7CA85:
 BYTE   W05
 BYTE   N42  As1  v127
 BYTE   W60
 BYTE   N21
 BYTE   W24
 BYTE   N10
 BYTE   W07
 BYTE   PEND 
//  #06 //037   ----------------------------------------
Label_01F7CA8F:
 BYTE   W05
 BYTE   N42  As1  v127
 BYTE   W48
 BYTE   N21
 BYTE   W36
 BYTE   N10
 BYTE   W07
 BYTE   PEND 
//  #06 //038   ----------------------------------------
 BYTE   PATT
  POIN2 Label_01F7CA85
//  #06 //039   ----------------------------------------
 BYTE   PATT
  POIN2 Label_01F7CA8F
//  #06 //040   ----------------------------------------
 BYTE   PATT
  POIN2 Label_01F7CA85
//  #06 //041   ----------------------------------------
 BYTE   W05
 BYTE   N42  As1  v127
 BYTE   W48
 BYTE   N10  An1
 BYTE   W12
 BYTE   N21
 BYTE   W24
 BYTE   N10
 BYTE   W07
//  #06 //042   ----------------------------------------
 BYTE   W05
 BYTE   Gs1
 BYTE   W12
 BYTE   N21
 BYTE   W24
 BYTE   N10
 BYTE   W12
 BYTE   Gn1
 BYTE   W12
 BYTE   N21
 BYTE   W24
 BYTE   N10
 BYTE   W07
//  #06 //043   ----------------------------------------
 BYTE   W05
 BYTE   Fs1
 BYTE   W12
 BYTE   N21
 BYTE   W24
 BYTE   N10  Fn1
 BYTE   W12
 BYTE   Dn1
 BYTE   W12
 BYTE   N21
 BYTE   W24
 BYTE   N10
 BYTE   W07
//  #06 //044   ----------------------------------------
 BYTE   W05
 BYTE   N10
 BYTE   W12
 BYTE   N21
 BYTE   W24
 BYTE   N10
 BYTE   W12
 BYTE   Gn1
 BYTE   W12
 BYTE   N21
 BYTE   W24
 BYTE   N10
 BYTE   W07
//  #06 //045   ----------------------------------------
 BYTE   W05
 BYTE   N21
 BYTE   W24
 BYTE   N21
 BYTE   W24
 BYTE   N84  An1
 BYTE   W42
 BYTE   W01
//  #06 //046   ----------------------------------------
 BYTE   W96
//  #06 //047   ----------------------------------------
 BYTE   W52
 BYTE   GoTo
  POIN2 Label_01F7C90F
 BYTE   FINE

//**************** Track 7 (Midi-Chn.6) ****************//

FE04TheFinalHolyWarREALxViPerZ7743_007:
//  #07 //000   ----------------------------------------
 BYTE   KEYSH   FE04TheFinalHolyWarREALxViPerZ7743_key+0
 BYTE   VOICE   124
 BYTE   MODT 0
 BYTE   LFOS 44
 BYTE   MOD 0
 BYTE   BENDR  12
 BYTE   VOL   18*FE04TheFinalHolyWarREALxViPerZ7743_mvl/mxv
 BYTE   PAN   c_v+0
 BYTE   BEND   c_v+0
 BYTE   PAN   c_v+0
 BYTE   VOL   31*FE04TheFinalHolyWarREALxViPerZ7743_mvl/mxv
 BYTE   N04  Dn1  v068
 BYTE   W04
 BYTE   N04
 BYTE   W04
 BYTE   N04
 BYTE   W04
 BYTE   N04
 BYTE   W04
 BYTE   N04
 BYTE   W04
 BYTE   N04
 BYTE   W04
 BYTE   N04
 BYTE   W04
 BYTE   N04
 BYTE   W04
 BYTE   N04
 BYTE   W04
 BYTE   N04
 BYTE   W04
 BYTE   N04
 BYTE   W03
 BYTE   W01
 BYTE   N04
 BYTE   W04
 BYTE   N04
 BYTE   W04
 BYTE   N04
 BYTE   W04
 BYTE   N04
 BYTE   W04
 BYTE   N04
 BYTE   W04
 BYTE   N04
 BYTE   W04
 BYTE   N04
 BYTE   W04
 BYTE   N12  Dn1  v127
 BYTE   W12
 BYTE   N12
 BYTE   W12
//  #07 //001   ----------------------------------------
 BYTE   N04  Dn1  v068
 BYTE   W04
 BYTE   N04
 BYTE   W04
 BYTE   N04
 BYTE   W04
 BYTE   N04
 BYTE   W04
 BYTE   N04
 BYTE   W04
 BYTE   N04
 BYTE   W04
 BYTE   N04
 BYTE   W04
 BYTE   N04
 BYTE   W04
 BYTE   N04
 BYTE   W04
 BYTE   N04
 BYTE   W04
 BYTE   N04
 BYTE   W03
 BYTE   W01
 BYTE   N04
 BYTE   W04
 BYTE   N04
 BYTE   W04
 BYTE   N04
 BYTE   W04
 BYTE   N04
 BYTE   W04
 BYTE   N04
 BYTE   W04
 BYTE   N04
 BYTE   W04
 BYTE   N04
 BYTE   W04
 BYTE   N12  Dn1  v127
 BYTE   W12
 BYTE   N04  Dn1  v068
 BYTE   W04
 BYTE   N04
 BYTE   W04
 BYTE   N04
 BYTE   W04
//  #07 //002   ----------------------------------------
 BYTE   N36  Dn1  v127
 BYTE   W36
 BYTE   N04  Dn1  v068
 BYTE   W04
 BYTE   N04
 BYTE   W03
 BYTE   W01
 BYTE   N04
 BYTE   W04
 BYTE   N36  Dn1  v127
 BYTE   W36
 BYTE   TIE  Dn1  v068
 BYTE   W12
//  #07 //003   ----------------------------------------
 BYTE   W12
 BYTE   N24  Cn1  v127
 BYTE   W24
 BYTE   N24
 BYTE   W07
 BYTE   W17
 BYTE   N24
 BYTE   W24
 BYTE   N12
 BYTE   W12
//  #07 //004   ----------------------------------------
 BYTE   TIE
 BYTE   W42
 BYTE   W01
 BYTE   W96
//  #07 //005   ----------------------------------------
 BYTE   W52
 BYTE   W01
 BYTE   EOT
 BYTE   Dn1
 BYTE   TIE
 BYTE   W36
 BYTE   EOT
 BYTE   Cn1
 BYTE   N60
 BYTE   W07
//  #07 //006   ----------------------------------------
Label_019D6901:
 BYTE   W52
 BYTE   W01
 BYTE   N36  Cn1  v127
 BYTE   W36
 BYTE   N96
 BYTE   W07
 BYTE   PEND 
//  #07 //007   ----------------------------------------
 BYTE   W40
 BYTE   W01
 BYTE   EOT
 BYTE   Dn1
 BYTE   N06
 BYTE   W06
 BYTE   N06
 BYTE   W06
Label_019D6912:
 BYTE   TIE  Dn1  v127
 BYTE   W36
 BYTE   N60  Cn1
 BYTE   W07
//  #07 //008   ----------------------------------------
 BYTE   PATT
  POIN2 Label_019D6901
//  #07 //009   ----------------------------------------
 BYTE   W05
 BYTE   W36
 BYTE   EOT
 BYTE   Dn1
 BYTE   N06  Dn1  v127
 BYTE   W06
 BYTE   N06
 BYTE   W06
 BYTE   TIE
 BYTE   W36
 BYTE   N60  Cn1
 BYTE   W07
//  #07 //010   ----------------------------------------
 BYTE   PATT
  POIN2 Label_019D6901
//  #07 //011   ----------------------------------------
 BYTE   W05
 BYTE   W36
 BYTE   EOT
 BYTE   Dn1
 BYTE   N06  Dn1  v127
 BYTE   W06
 BYTE   N06
 BYTE   W06
 BYTE   TIE
 BYTE   W36
 BYTE   N60  Cn1
 BYTE   W07
//  #07 //012   ----------------------------------------
 BYTE   PATT
  POIN2 Label_019D6901
//  #07 //013   ----------------------------------------
 BYTE   W05
 BYTE   W36
 BYTE   EOT
 BYTE   Dn1
 BYTE   N06  Dn1  v127
 BYTE   W06
 BYTE   N06
 BYTE   W06
 BYTE   TIE
 BYTE   W36
 BYTE   N60  Cn1
 BYTE   W07
//  #07 //014   ----------------------------------------
 BYTE   PATT
  POIN2 Label_019D6901
//  #07 //015   ----------------------------------------
 BYTE   W05
 BYTE   W12
 BYTE   EOT
 BYTE   Dn1
 BYTE   N06  Dn1  v127
 BYTE   W06
 BYTE   N06
 BYTE   W06
 BYTE   N12
 BYTE   W12
 BYTE   N12
 BYTE   W12
 BYTE   TIE
 BYTE   W36
 BYTE   N60  Cn1
 BYTE   W07
//  #07 //016   ----------------------------------------
 BYTE   PATT
  POIN2 Label_019D6901
//  #07 //017   ----------------------------------------
 BYTE   W05
 BYTE   W36
 BYTE   EOT
 BYTE   Dn1
 BYTE   N06  Dn1  v127
 BYTE   W06
 BYTE   N06
 BYTE   W06
 BYTE   TIE
 BYTE   W36
 BYTE   N60  Cn1
 BYTE   W07
//  #07 //018   ----------------------------------------
 BYTE   PATT
  POIN2 Label_019D6901
//  #07 //019   ----------------------------------------
 BYTE   W05
 BYTE   W36
 BYTE   EOT
 BYTE   Dn1
 BYTE   N06  Dn1  v127
 BYTE   W06
 BYTE   N06
 BYTE   W06
 BYTE   TIE
 BYTE   W36
 BYTE   N60  Cn1
 BYTE   W07
//  #07 //020   ----------------------------------------
 BYTE   W52
 BYTE   W01
 BYTE   N36
 BYTE   W36
 BYTE   TIE
 BYTE   W07
//  #07 //021   ----------------------------------------
 BYTE   W05
 BYTE   W36
 BYTE   EOT
 BYTE   Dn1
 BYTE   N06
 BYTE   W06
 BYTE   N06
 BYTE   W06
 BYTE   N12
 BYTE   W12
 BYTE   N06
 BYTE   W06
 BYTE   N18
 BYTE   W18
 BYTE   N24
 BYTE   W07
//  #07 //022   ----------------------------------------
Label_019D69AB:
 BYTE   W17
 BYTE   N24  Dn1  v127
 BYTE   W24
 BYTE   N12
 BYTE   W12
 BYTE   N12
 BYTE   W12
 BYTE   N06
 BYTE   W06
 BYTE   N18
 BYTE   W18
 BYTE   N24
 BYTE   W07
 BYTE   PEND 
//  #07 //023   ----------------------------------------
 BYTE   PATT
  POIN2 Label_019D69AB
//  #07 //024   ----------------------------------------
 BYTE   PATT
  POIN2 Label_019D69AB
//  #07 //025   ----------------------------------------
 BYTE   PATT
  POIN2 Label_019D69AB
//  #07 //026   ----------------------------------------
 BYTE   W17
 BYTE   N24  Dn1  v127
 BYTE   W24
 BYTE   N12
 BYTE   W12
 BYTE   N12
 BYTE   W12
 BYTE   N06
 BYTE   W06
 BYTE   N06
 BYTE   W06
 BYTE   N12  Dn1  v056
 BYTE   W12
 BYTE   Dn1  v068
 BYTE   W07
//  #07 //027   ----------------------------------------
 BYTE   W05
 BYTE   Dn1  v084
 BYTE   W12
 BYTE   Dn1  v096
 BYTE   W12
 BYTE   Dn1  v112
 BYTE   W12
 BYTE   N60  Dn1  v127
 BYTE   W12
 BYTE   EOT
 BYTE   Cn1
 BYTE   N96
 BYTE   W42
 BYTE   W01
//  #07 //028   ----------------------------------------
Label_019D69F1:
 BYTE   W05
 BYTE   N12  Dn1  v127
 BYTE   W12
 BYTE   PAN   c_v-64
 BYTE   N12  Dn1  v044
 BYTE   W12
 BYTE   PAN   c_v+63
 BYTE   N12
 BYTE   W12
 BYTE   PAN   c_v-64
 BYTE   N60
 BYTE   W12
 BYTE   PAN   c_v+0
 BYTE   N96  Cn1  v127
 BYTE   W42
 BYTE   W01
 BYTE   PEND 
//  #07 //029   ----------------------------------------
 BYTE   W05
 BYTE   N12  Dn1
 BYTE   W12
 BYTE   PAN   c_v-64
 BYTE   N12  Dn1  v044
 BYTE   W12
 BYTE   PAN   c_v+63
 BYTE   N12
 BYTE   W12
 BYTE   PAN   c_v-64
 BYTE   N60
 BYTE   W12
 BYTE   PAN   c_v+0
 BYTE   TIE  Cn1  v127
 BYTE   W42
 BYTE   W01
//  #07 //030   ----------------------------------------
 BYTE   W05
 BYTE   N12  Dn1
 BYTE   W12
 BYTE   PAN   c_v-64
 BYTE   N12  Dn1  v044
 BYTE   W12
 BYTE   PAN   c_v+63
 BYTE   N12
 BYTE   W12
 BYTE   PAN   c_v-64
 BYTE   N48
 BYTE   W12
 BYTE   PAN   c_v+0
 BYTE   W36
 BYTE   N06  Dn1  v127
 BYTE   W06
 BYTE   N18
 BYTE   W01
//  #07 //031   ----------------------------------------
 BYTE   W05
 BYTE   EOT
 BYTE   Cn1
 BYTE   N18
 BYTE   W12
 BYTE   N24  Dn1
 BYTE   W06
 BYTE   N30  Cn1
 BYTE   W18
 BYTE   N60  Dn1
 BYTE   W12
 BYTE   N96  Cn1
 BYTE   W42
 BYTE   W01
//  #07 //032   ----------------------------------------
 BYTE   PATT
  POIN2 Label_019D69F1
//  #07 //033   ----------------------------------------
 BYTE   PATT
  POIN2 Label_019D69F1
//  #07 //034   ----------------------------------------
 BYTE   W05
 BYTE   N12  Dn1  v127
 BYTE   W12
 BYTE   PAN   c_v-64
 BYTE   N12  Dn1  v044
 BYTE   W12
 BYTE   PAN   c_v+63
 BYTE   N12
 BYTE   W12
 BYTE   PAN   c_v-64
 BYTE   N72
 BYTE   W12
 BYTE   PAN   c_v+0
 BYTE   N96  Cn1  v127
 BYTE   W42
 BYTE   W01
//  #07 //035   ----------------------------------------
 BYTE   W17
 BYTE   N02  Dn1  v044
 BYTE   W02
 BYTE   N02
 BYTE   W02
 BYTE   N02
 BYTE   W02
 BYTE   Dn1  v084
 BYTE   W02
 BYTE   N02
 BYTE   W02
 BYTE   N02
 BYTE   W02
 BYTE   N72  Dn1  v127
 BYTE   W24
 BYTE   TIE  Cn1
 BYTE   W42
 BYTE   W01
//  #07 //036   ----------------------------------------
 BYTE   W05
 BYTE   N96  Dn1
 BYTE   W90
 BYTE   W01
//  #07 //037   ----------------------------------------
 BYTE   W05
 BYTE   N36
 BYTE   W36
 BYTE   N60
 BYTE   W12
 BYTE   EOT
 BYTE   Cn1
 BYTE   TIE
 BYTE   W42
 BYTE   W01
//  #07 //038   ----------------------------------------
 BYTE   W05
 BYTE   TIE  Dn1
 BYTE   W90
 BYTE   W01
//  #07 //039   ----------------------------------------
 BYTE   W05
 BYTE   EOT
 BYTE   Cn1
 BYTE   N48
 BYTE   W12
 BYTE   EOT
 BYTE   Dn1
 BYTE   N24
 BYTE   W24
 BYTE   N60
 BYTE   W12
 BYTE   N96  Cn1
 BYTE   W42
 BYTE   W01
//  #07 //040   ----------------------------------------
 BYTE   W05
 BYTE   N96  Dn1
 BYTE   W48
 BYTE   TIE  Cn1
 BYTE   W42
 BYTE   W01
//  #07 //041   ----------------------------------------
 BYTE   W05
 BYTE   N24  Dn1
 BYTE   W24
 BYTE   N12
 BYTE   W12
 BYTE   N12
 BYTE   W12
 BYTE   Dn1  v096
 BYTE   W12
 BYTE   N06
 BYTE   W06
 BYTE   N06
 BYTE   W06
 BYTE   N12
 BYTE   W12
 BYTE   N24
 BYTE   W07
//  #07 //042   ----------------------------------------
Label_019D6ACC:
 BYTE   W17
 BYTE   N24  Dn1  v096
 BYTE   W24
 BYTE   N12
 BYTE   W12
 BYTE   N12
 BYTE   W12
 BYTE   N06
 BYTE   W06
 BYTE   N06
 BYTE   W06
 BYTE   N12
 BYTE   W12
 BYTE   N24
 BYTE   W07
 BYTE   PEND 
//  #07 //043   ----------------------------------------
 BYTE   PATT
  POIN2 Label_019D6ACC
//  #07 //044   ----------------------------------------
 BYTE   PATT
  POIN2 Label_019D6ACC
//  #07 //045   ----------------------------------------
 BYTE   W17
 BYTE   N24  Dn1  v096
 BYTE   W24
 BYTE   N72
 BYTE   W54
 BYTE   W01
//  #07 //046   ----------------------------------------
 BYTE   W17
 BYTE   N24  Dn1  v068
 BYTE   W24
 BYTE   N24
 BYTE   W24
 BYTE   Dn1  v096
 BYTE   W24
 BYTE   N24
 BYTE   W07
//  #07 //047   ----------------------------------------
 BYTE   W17
 BYTE   Dn1  v127
 BYTE   W24
 BYTE   N12
 BYTE   W11
 BYTE   GoTo
  POIN2 Label_019D6912
 BYTE   FINE

//**************** Track 8 (Midi-Chn.7) ****************//

FE04TheFinalHolyWarREALxViPerZ7743_008:
//  #08 //000   ----------------------------------------
 BYTE   KEYSH   FE04TheFinalHolyWarREALxViPerZ7743_key+0
 BYTE   VOICE   124
 BYTE   MODT 0
 BYTE   LFOS 44
 BYTE   MOD 0
 BYTE   BENDR  12
 BYTE   VOL   15*FE04TheFinalHolyWarREALxViPerZ7743_mvl/mxv
 BYTE   PAN   c_v+54
 BYTE   BEND   c_v+0
 BYTE   PAN   c_v+0
 BYTE   VOL   28*FE04TheFinalHolyWarREALxViPerZ7743_mvl/mxv
 BYTE   W42
 BYTE   W01
 BYTE   W96
//  #08 //001   ----------------------------------------
 BYTE   W96
//  #08 //002   ----------------------------------------
 BYTE   W96
//  #08 //003   ----------------------------------------
 BYTE   W96
//  #08 //004   ----------------------------------------
 BYTE   W76
 BYTE   W01
 BYTE   N24  An1  v107
 BYTE   W19
//  #08 //005   ----------------------------------------
Label_01F7CB2A:
 BYTE   W05
 BYTE   N24  An1  v107
 BYTE   W24
 BYTE   N24
 BYTE   W24
 BYTE   N24
 BYTE   W24
 BYTE   N24
 BYTE   W19
 BYTE   PEND 
//  #08 //006   ----------------------------------------
 BYTE   PATT
  POIN2 Label_01F7CB2A
//  #08 //007   ----------------------------------------
 BYTE   W05
 BYTE   N24  An1  v107
 BYTE   W24
 BYTE   N24
 BYTE   W24
Label_01F7CB42:
 BYTE   N24  An1  v107
 BYTE   W24
 BYTE   N24
 BYTE   W19
//  #08 //008   ----------------------------------------
 BYTE   PATT
  POIN2 Label_01F7CB2A
//  #08 //009   ----------------------------------------
 BYTE   PATT
  POIN2 Label_01F7CB2A
//  #08 //010   ----------------------------------------
 BYTE   PATT
  POIN2 Label_01F7CB2A
//  #08 //011   ----------------------------------------
 BYTE   PATT
  POIN2 Label_01F7CB2A
//  #08 //012   ----------------------------------------
 BYTE   PATT
  POIN2 Label_01F7CB2A
//  #08 //013   ----------------------------------------
 BYTE   PATT
  POIN2 Label_01F7CB2A
//  #08 //014   ----------------------------------------
 BYTE   PATT
  POIN2 Label_01F7CB2A
//  #08 //015   ----------------------------------------
 BYTE   W05
 BYTE   N24  An1  v107
 BYTE   W24
 BYTE   N24
 BYTE   W24
 BYTE   N12
 BYTE   W12
 BYTE   N06
 BYTE   W06
 BYTE   N06
 BYTE   W06
 BYTE   N12
 BYTE   W12
 BYTE   N12
 BYTE   W07
//  #08 //016   ----------------------------------------
Label_01F7CB7C:
 BYTE   W05
 BYTE   N06  An1  v107
 BYTE   W06
 BYTE   N06
 BYTE   W06
 BYTE   N12
 BYTE   W12
 BYTE   N12
 BYTE   W12
 BYTE   N06
 BYTE   W06
 BYTE   N06
 BYTE   W06
 BYTE   N12
 BYTE   W12
 BYTE   N06
 BYTE   W06
 BYTE   N06
 BYTE   W06
 BYTE   N12
 BYTE   W12
 BYTE   N12
 BYTE   W07
 BYTE   PEND 
//  #08 //017   ----------------------------------------
 BYTE   PATT
  POIN2 Label_01F7CB7C
//  #08 //018   ----------------------------------------
 BYTE   PATT
  POIN2 Label_01F7CB7C
//  #08 //019   ----------------------------------------
 BYTE   PATT
  POIN2 Label_01F7CB7C
//  #08 //020   ----------------------------------------
 BYTE   PATT
  POIN2 Label_01F7CB7C
//  #08 //021   ----------------------------------------
 BYTE   PATT
  POIN2 Label_01F7CB7C
//  #08 //022   ----------------------------------------
 BYTE   PATT
  POIN2 Label_01F7CB7C
//  #08 //023   ----------------------------------------
 BYTE   PATT
  POIN2 Label_01F7CB7C
//  #08 //024   ----------------------------------------
 BYTE   PATT
  POIN2 Label_01F7CB7C
//  #08 //025   ----------------------------------------
 BYTE   PATT
  POIN2 Label_01F7CB7C
//  #08 //026   ----------------------------------------
 BYTE   W05
 BYTE   N06  An1  v107
 BYTE   W06
 BYTE   N06
 BYTE   W06
 BYTE   N12
 BYTE   W12
 BYTE   N12
 BYTE   W12
 BYTE   N06
 BYTE   W06
 BYTE   N06
 BYTE   W06
 BYTE   N12
 BYTE   W12
 BYTE   N12
 BYTE   W12
 BYTE   N12
 BYTE   W12
 BYTE   N12
 BYTE   W07
//  #08 //027   ----------------------------------------
 BYTE   W05
 BYTE   N12
 BYTE   W12
 BYTE   N12
 BYTE   W12
 BYTE   N12
 BYTE   W12
 BYTE   N24
 BYTE   W12
 BYTE   N96  Bn1
 BYTE   W12
 BYTE   N12  An1
 BYTE   W12
 BYTE   N12
 BYTE   W12
 BYTE   N12
 BYTE   W07
//  #08 //028   ----------------------------------------
Label_01F7CBED:
 BYTE   W05
 BYTE   N12  An1  v107
 BYTE   W12
 BYTE   N12
 BYTE   W12
 BYTE   N12
 BYTE   W12
 BYTE   N24
 BYTE   W12
 BYTE   N60  Bn1
 BYTE   W12
 BYTE   N12  An1
 BYTE   W12
 BYTE   N12
 BYTE   W12
 BYTE   N12
 BYTE   W07
 BYTE   PEND 
//  #08 //029   ----------------------------------------
 BYTE   W05
 BYTE   N24
 BYTE   W12
 BYTE   N36  Bn1
 BYTE   W12
 BYTE   N12  An1
 BYTE   W12
 BYTE   N24
 BYTE   W12
 BYTE   N48  Bn1
 BYTE   W12
 BYTE   N12  An1
 BYTE   W12
 BYTE   N12
 BYTE   W12
 BYTE   N24
 BYTE   W07
//  #08 //030   ----------------------------------------
 BYTE   W05
 BYTE   TIE  Bn1
 BYTE   W12
 BYTE   N12  An1
 BYTE   W12
 BYTE   N12
 BYTE   W12
 BYTE   N12
 BYTE   W12
 BYTE   N12
 BYTE   W12
 BYTE   N12
 BYTE   W12
 BYTE   N12
 BYTE   W12
 BYTE   N12
 BYTE   W07
//  #08 //031   ----------------------------------------
 BYTE   W05
 BYTE   N24
 BYTE   W12
 BYTE   EOT
 BYTE   Bn1
 BYTE   N36
 BYTE   W12
 BYTE   N12  An1
 BYTE   W12
 BYTE   N24
 BYTE   W12
 BYTE   N96  Bn1
 BYTE   W12
 BYTE   N12  An1
 BYTE   W12
 BYTE   N12
 BYTE   W12
 BYTE   N12
 BYTE   W07
//  #08 //032   ----------------------------------------
 BYTE   PATT
  POIN2 Label_01F7CBED
//  #08 //033   ----------------------------------------
 BYTE   W05
 BYTE   N24  An1  v107
 BYTE   W12
 BYTE   TIE  Bn1
 BYTE   W12
 BYTE   N12  An1
 BYTE   W12
 BYTE   N12
 BYTE   W12
 BYTE   N12
 BYTE   W12
 BYTE   N12
 BYTE   W12
 BYTE   N12
 BYTE   W12
 BYTE   N12
 BYTE   W07
//  #08 //034   ----------------------------------------
 BYTE   W05
 BYTE   N12
 BYTE   W12
 BYTE   N12
 BYTE   W12
 BYTE   N12
 BYTE   W12
 BYTE   N12
 BYTE   W12
 BYTE   TIE
 BYTE   W42
 BYTE   W01
//  #08 //035   ----------------------------------------
 BYTE   W52
 BYTE   W01
 BYTE   EOT
 BYTE   Bn1
 BYTE   TIE
 BYTE   W12
 BYTE   EOT
 BYTE   An1
 BYTE   N12
 BYTE   W12
 BYTE   N12
 BYTE   W12
 BYTE   N12
 BYTE   W07
//  #08 //036   ----------------------------------------
Label_01F7CC75:
 BYTE   W05
 BYTE   N12  An1  v107
 BYTE   W12
 BYTE   N12
 BYTE   W12
 BYTE   N12
 BYTE   W12
 BYTE   N12
 BYTE   W12
 BYTE   N12
 BYTE   W12
 BYTE   N12
 BYTE   W12
 BYTE   N12
 BYTE   W12
 BYTE   N12
 BYTE   W07
 BYTE   PEND 
//  #08 //037   ----------------------------------------
 BYTE   W05
 BYTE   N24
 BYTE   W12
 BYTE   EOT
 BYTE   Bn1
 BYTE   TIE
 BYTE   W12
 BYTE   N12  An1
 BYTE   W12
 BYTE   N12
 BYTE   W12
 BYTE   N12
 BYTE   W12
 BYTE   N12
 BYTE   W12
 BYTE   N12
 BYTE   W12
 BYTE   N12
 BYTE   W07
//  #08 //038   ----------------------------------------
 BYTE   PATT
  POIN2 Label_01F7CC75
//  #08 //039   ----------------------------------------
 BYTE   W05
 BYTE   N24  An1  v107
 BYTE   W12
 BYTE   EOT
 BYTE   Bn1
 BYTE   TIE
 BYTE   W12
 BYTE   N12  An1
 BYTE   W12
 BYTE   N12
 BYTE   W12
 BYTE   N12
 BYTE   W12
 BYTE   N12
 BYTE   W12
 BYTE   N12
 BYTE   W12
 BYTE   N12
 BYTE   W07
//  #08 //040   ----------------------------------------
 BYTE   PATT
  POIN2 Label_01F7CC75
//  #08 //041   ----------------------------------------
 BYTE   W05
 BYTE   N24  An1  v107
 BYTE   W24
 BYTE   N12
 BYTE   W12
 BYTE   TIE
 BYTE   W54
 BYTE   W01
//  #08 //042   ----------------------------------------
 BYTE   W96
//  #08 //043   ----------------------------------------
 BYTE   W96
//  #08 //044   ----------------------------------------
 BYTE   W96
//  #08 //045   ----------------------------------------
 BYTE   W96
//  #08 //046   ----------------------------------------
 BYTE   W52
 BYTE   W01
 BYTE   EOT
 BYTE   N24
 BYTE   W24
 BYTE   N24
 BYTE   W19
//  #08 //047   ----------------------------------------
 BYTE   W05
 BYTE   N24
 BYTE   W24
 BYTE   N24
 BYTE   W23
 BYTE   GoTo
  POIN2 Label_01F7CB42
 BYTE   FINE

//******************************************************//
	ALIGN 4

FE04TheFinalHolyWarREALxViPerZ7743:
	BYTE	8	// NumTrks
	BYTE	0	// NumBlks
	BYTE	FE04TheFinalHolyWarREALxViPerZ7743_pri	// Priority
	BYTE	FE04TheFinalHolyWarREALxViPerZ7743_rev	// Reverb.
    
	POIN2	FE04TheFinalHolyWarREALxViPerZ7743_grp
    
	POIN2	FE04TheFinalHolyWarREALxViPerZ7743_001
	POIN2	FE04TheFinalHolyWarREALxViPerZ7743_002
	POIN2	FE04TheFinalHolyWarREALxViPerZ7743_003
	POIN2	FE04TheFinalHolyWarREALxViPerZ7743_004
	POIN2	FE04TheFinalHolyWarREALxViPerZ7743_005
	POIN2	FE04TheFinalHolyWarREALxViPerZ7743_006
	POIN2	FE04TheFinalHolyWarREALxViPerZ7743_007
	POIN2	FE04TheFinalHolyWarREALxViPerZ7743_008

	
