//Event file generated from Sappy .s format.
	#include "MPlayDef.event"

	#define	FE04ThoughtsGoingAroundSurfingKyogre_grp  voicegroup000
	#define	FE04ThoughtsGoingAroundSurfingKyogre_pri  0
	#define	FE04ThoughtsGoingAroundSurfingKyogre_rev  0
	#define	FE04ThoughtsGoingAroundSurfingKyogre_mvl  127
	#define	FE04ThoughtsGoingAroundSurfingKyogre_key  0
	#define	FE04ThoughtsGoingAroundSurfingKyogre_tbs  1
	#define	FE04ThoughtsGoingAroundSurfingKyogre_exg  0
	#define	FE04ThoughtsGoingAroundSurfingKyogre_cmp  1

	// .rodata
	//	FE04ThoughtsGoingAroundSurfingKyogre
	ALIGN 4


//**************** Track 1 (Midi-Chn.0) ****************//

FE04ThoughtsGoingAroundSurfingKyogre_001:
// 000   ----------------------------------------
 BYTE   KEYSH   FE04ThoughtsGoingAroundSurfingKyogre_key+0
 BYTE   TEMPO   38*FE04ThoughtsGoingAroundSurfingKyogre_tbs/2
 BYTE   W06
Label_0_015A2065:
 BYTE   W05
 BYTE   VOICE   11
 BYTE   VOL   34*FE04ThoughtsGoingAroundSurfingKyogre_mvl/mxv
 BYTE   PAN   c_v+25
 BYTE   N21  En3  v104
 BYTE   W24
 BYTE   N10  Bn3  v096
 BYTE   W12
 BYTE   N03  An3  v104
 BYTE   W06
 BYTE   Gs3
 BYTE   W06
 BYTE   N21  Fs3
 BYTE   W24
 BYTE   Bn3  v096
 BYTE   W13
// 001   ----------------------------------------
 BYTE   W11
 BYTE   N10
 BYTE   W12
 BYTE   An3  v104
 BYTE   W12
 BYTE   Gs3
 BYTE   W12
 BYTE   N03  Fs3
 BYTE   W06
 BYTE   En3
 BYTE   W06
 BYTE   N21  Fs3
 BYTE   W24
 BYTE   N10  Bn2
 BYTE   W12
 BYTE   N11  Ds3
 BYTE   W01
// 002   ----------------------------------------
 BYTE   W11
 BYTE   N21  En3
 BYTE   W24
 BYTE   N10  Cs3
 BYTE   W12
 BYTE   Fs3
 BYTE   W12
 BYTE   N21  En3
 BYTE   W24
 BYTE   N22  Bn2
 BYTE   W13
// 003   ----------------------------------------
 BYTE   W11
 BYTE   N21  Cs3
 BYTE   W24
 BYTE   N10  Ds3
 BYTE   W12
 BYTE   N03  En3
 BYTE   W06
 BYTE   Fs3
 BYTE   W06
 BYTE   N21  En3
 BYTE   W24
 BYTE   N22  Ds3
 BYTE   W13
// 004   ----------------------------------------
 BYTE   W13
 BYTE   VOICE   11
 BYTE   VOL   34*FE04ThoughtsGoingAroundSurfingKyogre_mvl/mxv
 BYTE   PAN   c_v+25
 BYTE   N21  En3
 BYTE   W24
 BYTE   N10  Bn3  v096
 BYTE   W12
 BYTE   N03  An3  v104
 BYTE   W06
 BYTE   Gs3
 BYTE   W06
 BYTE   N21  Fs3
 BYTE   W24
 BYTE   Bn3  v096
 BYTE   W11
// 005   ----------------------------------------
 BYTE   W13
 BYTE   N10
 BYTE   W12
 BYTE   An3  v104
 BYTE   W12
 BYTE   Gs3
 BYTE   W12
 BYTE   N03  Fs3
 BYTE   W06
 BYTE   En3
 BYTE   W06
 BYTE   N21  Fs3
 BYTE   W23
 BYTE   N10  Bn2
 BYTE   W12
// 006   ----------------------------------------
 BYTE   N11  Ds3
 BYTE   W13
 BYTE   N21  En3
 BYTE   W24
 BYTE   N10  Cs3
 BYTE   W12
 BYTE   Fs3
 BYTE   W12
 BYTE   N21  En3
 BYTE   W24
 BYTE   N22  Bn2
 BYTE   W11
// 007   ----------------------------------------
 BYTE   W13
 BYTE   N21  Cs3
 BYTE   W24
 BYTE   N10  Ds3
 BYTE   W12
 BYTE   N03  En3
 BYTE   W06
 BYTE   Fs3
 BYTE   W06
 BYTE   N21  En3
 BYTE   W24
 BYTE   N22  Ds3
 BYTE   W11
// 008   ----------------------------------------
 BYTE   W09
 BYTE   TEMPO   36*FE04ThoughtsGoingAroundSurfingKyogre_tbs/2
 BYTE   W03
 BYTE   VOICE   10
 BYTE   VOL   31*FE04ThoughtsGoingAroundSurfingKyogre_mvl/mxv
 BYTE   PAN   c_v+25
 BYTE   N21  En4
 BYTE   W24
 BYTE   N10  Bn4  v092
 BYTE   W12
 BYTE   N03  An4  v104
 BYTE   W06
 BYTE   Gs4
 BYTE   W06
 BYTE   N21  Fs4
 BYTE   W24
 BYTE   Bn4  v092
 BYTE   W12
// 009   ----------------------------------------
 BYTE   W12
 BYTE   N10
 BYTE   W12
 BYTE   An4  v104
 BYTE   W12
 BYTE   Gs4
 BYTE   W12
 BYTE   N03  Fs4
 BYTE   W06
 BYTE   En4
 BYTE   W06
 BYTE   N21  Fs4
 BYTE   W23
 BYTE   N10  Bn3
 BYTE   W12
 BYTE   N11  Ds4
 BYTE   W01
// 010   ----------------------------------------
 BYTE   W12
 BYTE   N21  En4
 BYTE   W24
 BYTE   N10  Cs4
 BYTE   W12
 BYTE   Fs4
 BYTE   W12
 BYTE   N21  En4
 BYTE   W24
 BYTE   N22  Bn3
 BYTE   W12
// 011   ----------------------------------------
 BYTE   W12
 BYTE   N21  Cs4
 BYTE   W24
 BYTE   N10  Ds4
 BYTE   W12
 BYTE   N03  En4
 BYTE   W06
 BYTE   Fs4
 BYTE   W06
 BYTE   N21  En4
 BYTE   W24
 BYTE   N22  Ds4
 BYTE   W12
// 012   ----------------------------------------
 BYTE   W10
 BYTE   GoTo
  POIN2 Label_0_015A2065
 BYTE   FINE

//**************** Track 2 (Midi-Chn.1) ****************//

FE04ThoughtsGoingAroundSurfingKyogre_002:
// 000   ----------------------------------------
 BYTE   KEYSH   FE04ThoughtsGoingAroundSurfingKyogre_key+0
 BYTE   W06
Label_1_015A2167:
 BYTE   W04
 BYTE   VOICE   10
 BYTE   VOL   25*FE04ThoughtsGoingAroundSurfingKyogre_mvl/mxv
 BYTE   PAN   c_v+34
 BYTE   N14  En4  v092
 BYTE   W24
 BYTE   N07  Bn4  v096
 BYTE   W12
 BYTE   N01  An4  v092
 BYTE   W06
 BYTE   Gs4
 BYTE   W06
 BYTE   N14  Fs4
 BYTE   W24
 BYTE   Bn4  v096
 BYTE   W14
// 001   ----------------------------------------
 BYTE   W10
 BYTE   N07
 BYTE   W12
 BYTE   An4  v092
 BYTE   W12
 BYTE   Gs4
 BYTE   W12
 BYTE   N01  Fs4
 BYTE   W06
 BYTE   En4
 BYTE   W06
 BYTE   N14  Fs4
 BYTE   W24
 BYTE   N07  Bn3
 BYTE   W12
 BYTE   Ds4
 BYTE   W02
// 002   ----------------------------------------
 BYTE   W10
 BYTE   N14  En4
 BYTE   W24
 BYTE   N07  Cs4
 BYTE   W12
 BYTE   Fs4
 BYTE   W12
 BYTE   N14  En4
 BYTE   W24
 BYTE   N15  Bn3
 BYTE   W14
// 003   ----------------------------------------
 BYTE   W10
 BYTE   N14  Cs4
 BYTE   W24
 BYTE   N07  Ds4
 BYTE   W12
 BYTE   N01  En4
 BYTE   W06
 BYTE   Fs4
 BYTE   W06
 BYTE   N14  En4
 BYTE   W24
 BYTE   Ds4
 BYTE   W14
// 004   ----------------------------------------
 BYTE   W12
 BYTE   VOICE   10
 BYTE   VOL   25*FE04ThoughtsGoingAroundSurfingKyogre_mvl/mxv
 BYTE   PAN   c_v+34
 BYTE   N14  En4
 BYTE   W24
 BYTE   N07  Bn4  v096
 BYTE   W12
 BYTE   N01  An4  v092
 BYTE   W06
 BYTE   Gs4
 BYTE   W06
 BYTE   N14  Fs4
 BYTE   W24
 BYTE   Bn4  v096
 BYTE   W12
// 005   ----------------------------------------
 BYTE   W12
 BYTE   N07
 BYTE   W12
 BYTE   An4  v092
 BYTE   W12
 BYTE   Gs4
 BYTE   W12
 BYTE   N01  Fs4
 BYTE   W06
 BYTE   En4
 BYTE   W06
 BYTE   N14  Fs4
 BYTE   W23
 BYTE   N07  Bn3
 BYTE   W12
 BYTE   Ds4
 BYTE   W01
// 006   ----------------------------------------
 BYTE   W12
 BYTE   N14  En4
 BYTE   W24
 BYTE   N07  Cs4
 BYTE   W12
 BYTE   Fs4
 BYTE   W12
 BYTE   N14  En4
 BYTE   W24
 BYTE   N15  Bn3
 BYTE   W12
// 007   ----------------------------------------
 BYTE   W12
 BYTE   N14  Cs4
 BYTE   W24
 BYTE   N07  Ds4
 BYTE   W12
 BYTE   N01  En4
 BYTE   W06
 BYTE   Fs4
 BYTE   W06
 BYTE   N14  En4
 BYTE   W24
 BYTE   Ds4
 BYTE   W12
// 008   ----------------------------------------
 BYTE   W96
// 009   ----------------------------------------
 BYTE   W96
// 010   ----------------------------------------
 BYTE   W96
// 011   ----------------------------------------
 BYTE   W96
// 012   ----------------------------------------
 BYTE   W10
 BYTE   GoTo
  POIN2 Label_1_015A2167
 BYTE   FINE

//**************** Track 3 (Midi-Chn.2) ****************//

FE04ThoughtsGoingAroundSurfingKyogre_003:
// 000   ----------------------------------------
 BYTE   KEYSH   FE04ThoughtsGoingAroundSurfingKyogre_key+0
 BYTE   W06
Label_2_015A2217:
 BYTE   VOICE   10
 BYTE   VOL   40*FE04ThoughtsGoingAroundSurfingKyogre_mvl/mxv
 BYTE   PAN   c_v+25
 BYTE   N14  En4  v092
 BYTE   W24
 BYTE   N07  Bn4  v096
 BYTE   W12
 BYTE   N01  An4  v092
 BYTE   W06
 BYTE   Gs4
 BYTE   W06
 BYTE   N14  Fs4
 BYTE   W24
 BYTE   Bn4  v096
 BYTE   W18
// 001   ----------------------------------------
 BYTE   W06
 BYTE   N07
 BYTE   W12
 BYTE   An4  v092
 BYTE   W12
 BYTE   Gs4
 BYTE   W12
 BYTE   N01  Fs4
 BYTE   W06
 BYTE   En4
 BYTE   W06
 BYTE   N14  Fs4
 BYTE   W24
 BYTE   N07  Bn3
 BYTE   W12
 BYTE   Ds4
 BYTE   W06
// 002   ----------------------------------------
 BYTE   W06
 BYTE   N14  En4
 BYTE   W24
 BYTE   N07  Cs4
 BYTE   W12
 BYTE   Fs4
 BYTE   W12
 BYTE   N14  En4
 BYTE   W24
 BYTE   N15  Bn3
 BYTE   W18
// 003   ----------------------------------------
 BYTE   W06
 BYTE   N14  Cs4
 BYTE   W24
 BYTE   N07  Ds4
 BYTE   W12
 BYTE   N01  En4
 BYTE   W06
 BYTE   Fs4
 BYTE   W06
 BYTE   N14  En4
 BYTE   W24
 BYTE   Ds4
 BYTE   W18
// 004   ----------------------------------------
 BYTE   W08
 BYTE   VOICE   10
 BYTE   VOL   40*FE04ThoughtsGoingAroundSurfingKyogre_mvl/mxv
 BYTE   PAN   c_v+25
 BYTE   N14  En4
 BYTE   W24
 BYTE   N07  Bn4  v096
 BYTE   W12
 BYTE   N01  An4  v092
 BYTE   W06
 BYTE   Gs4
 BYTE   W06
 BYTE   N14  Fs4
 BYTE   W24
 BYTE   Bn4  v096
 BYTE   W16
// 005   ----------------------------------------
 BYTE   W08
 BYTE   N07
 BYTE   W12
 BYTE   An4  v092
 BYTE   W12
 BYTE   Gs4
 BYTE   W12
 BYTE   N01  Fs4
 BYTE   W06
 BYTE   En4
 BYTE   W06
 BYTE   N14  Fs4
 BYTE   W23
 BYTE   N07  Bn3
 BYTE   W12
 BYTE   Ds4
 BYTE   W05
// 006   ----------------------------------------
 BYTE   W08
 BYTE   N14  En4
 BYTE   W24
 BYTE   N07  Cs4
 BYTE   W12
 BYTE   Fs4
 BYTE   W12
 BYTE   N14  En4
 BYTE   W24
 BYTE   N15  Bn3
 BYTE   W16
// 007   ----------------------------------------
 BYTE   W08
 BYTE   N14  Cs4
 BYTE   W24
 BYTE   N07  Ds4
 BYTE   W12
 BYTE   N01  En4
 BYTE   W06
 BYTE   Fs4
 BYTE   W06
 BYTE   N14  En4
 BYTE   W24
 BYTE   Ds4
 BYTE   W16
// 008   ----------------------------------------
 BYTE   W09
 BYTE   VOICE   10
 BYTE   VOL   31*FE04ThoughtsGoingAroundSurfingKyogre_mvl/mxv
 BYTE   PAN   c_v+0
 BYTE   N14  En4
 BYTE   W24
 BYTE   N07  Bn4  v096
 BYTE   W12
 BYTE   N01  An4  v092
 BYTE   W06
 BYTE   Gs4
 BYTE   W06
 BYTE   N14  Fs4
 BYTE   W24
 BYTE   Bn4  v096
 BYTE   W15
// 009   ----------------------------------------
 BYTE   W09
 BYTE   N07
 BYTE   W12
 BYTE   An4  v092
 BYTE   W12
 BYTE   Gs4
 BYTE   W12
 BYTE   N01  Fs4
 BYTE   W06
 BYTE   En4
 BYTE   W06
 BYTE   N14  Fs4
 BYTE   W24
 BYTE   N07  Bn3
 BYTE   W12
 BYTE   Ds4
 BYTE   W03
// 010   ----------------------------------------
 BYTE   W09
 BYTE   N14  En4
 BYTE   W24
 BYTE   N07  Cs4
 BYTE   W12
 BYTE   Fs4
 BYTE   W12
 BYTE   N14  En4
 BYTE   W24
 BYTE   N15  Bn3
 BYTE   W15
// 011   ----------------------------------------
 BYTE   W09
 BYTE   N14  Cs4
 BYTE   W24
 BYTE   N07  Ds4
 BYTE   W12
 BYTE   N01  En4
 BYTE   W06
 BYTE   Fs4
 BYTE   W06
 BYTE   N14  En4
 BYTE   W24
 BYTE   Ds4
 BYTE   W15
// 012   ----------------------------------------
 BYTE   W10
 BYTE   GoTo
  POIN2 Label_2_015A2217
 BYTE   FINE

//**************** Track 4 (Midi-Chn.3) ****************//

FE04ThoughtsGoingAroundSurfingKyogre_004:
// 000   ----------------------------------------
 BYTE   KEYSH   FE04ThoughtsGoingAroundSurfingKyogre_key+0
 BYTE   W06
Label_3_015A230F:
 BYTE   W01
 BYTE   VOICE   54
 BYTE   VOL   62*FE04ThoughtsGoingAroundSurfingKyogre_mvl/mxv
 BYTE   PAN   c_v-25
 BYTE   N44  En2  v092
 BYTE   W48
 BYTE   Bn1
 BYTE   W40
 BYTE   W01
// 001   ----------------------------------------
Label_3_015A231D:
 BYTE   W07
 BYTE   N44  An1  v092
 BYTE   W48
 BYTE   Bn1
 BYTE   W40
 BYTE   W01
 BYTE   PEND 
// 002   ----------------------------------------
 BYTE   W07
 BYTE   An1
 BYTE   W48
 BYTE   Gs1
 BYTE   W40
 BYTE   W01
 BYTE   PATT
  POIN2 Label_3_015A231D
// 003   ----------------------------------------
 BYTE   W08
 BYTE   VOICE   54
 BYTE   VOL   62*FE04ThoughtsGoingAroundSurfingKyogre_mvl/mxv
 BYTE   PAN   c_v-25
 BYTE   N44  En2  v092
 BYTE   W48
 BYTE   Bn1
 BYTE   W40
// 004   ----------------------------------------
Label_3_015A233E:
 BYTE   W08
 BYTE   N44  An1  v092
 BYTE   W48
 BYTE   Bn1
 BYTE   W40
 BYTE   PEND 
// 005   ----------------------------------------
 BYTE   W08
 BYTE   An1
 BYTE   W48
 BYTE   Gs1
 BYTE   W40
 BYTE   PATT
  POIN2 Label_3_015A233E
// 006   ----------------------------------------
 BYTE   W09
 BYTE   VOICE   10
 BYTE   VOL   40*FE04ThoughtsGoingAroundSurfingKyogre_mvl/mxv
 BYTE   PAN   c_v-25
 BYTE   N44  En3  v092
 BYTE   W48
 BYTE   Bn2
 BYTE   W36
 BYTE   W03
// 007   ----------------------------------------
Label_3_015A235E:
 BYTE   W09
 BYTE   N44  An2  v092
 BYTE   W48
 BYTE   Bn2
 BYTE   W36
 BYTE   W03
 BYTE   PEND 
// 008   ----------------------------------------
 BYTE   W09
 BYTE   An2
 BYTE   W48
 BYTE   Gs2
 BYTE   W36
 BYTE   W03
 BYTE   PATT
  POIN2 Label_3_015A235E
// 009   ----------------------------------------
 BYTE   W10
 BYTE   GoTo
  POIN2 Label_3_015A230F
 BYTE   FINE

//**************** Track 5 (Midi-Chn.4) ****************//

FE04ThoughtsGoingAroundSurfingKyogre_005:
// 000   ----------------------------------------
 BYTE   KEYSH   FE04ThoughtsGoingAroundSurfingKyogre_key+0
 BYTE   W06
Label_4_015A237F:
 BYTE   VOICE   54
 BYTE   VOL   62*FE04ThoughtsGoingAroundSurfingKyogre_mvl/mxv
 BYTE   PAN   c_v+14
 BYTE   N44  Bn2  v092
 BYTE   W48
 BYTE   Fs2
 BYTE   W42
// 001   ----------------------------------------
Label_4_015A238B:
 BYTE   W06
 BYTE   N44  En2  v092
 BYTE   W48
 BYTE   Fs2
 BYTE   W42
 BYTE   PEND 
// 002   ----------------------------------------
 BYTE   W06
 BYTE   En2
 BYTE   W48
 BYTE   N44
 BYTE   W42
 BYTE   PATT
  POIN2 Label_4_015A238B
// 003   ----------------------------------------
 BYTE   W08
 BYTE   VOICE   54
 BYTE   VOL   62*FE04ThoughtsGoingAroundSurfingKyogre_mvl/mxv
 BYTE   PAN   c_v+14
 BYTE   N44  Bn2  v092
 BYTE   W48
 BYTE   Fs2
 BYTE   W40
// 004   ----------------------------------------
Label_4_015A23AA:
 BYTE   W08
 BYTE   N44  En2  v092
 BYTE   W48
 BYTE   Fs2
 BYTE   W40
 BYTE   PEND 
// 005   ----------------------------------------
 BYTE   W08
 BYTE   En2
 BYTE   W48
 BYTE   N44
 BYTE   W40
 BYTE   PATT
  POIN2 Label_4_015A23AA
// 006   ----------------------------------------
 BYTE   W11
 BYTE   VOICE   10
 BYTE   VOL   34*FE04ThoughtsGoingAroundSurfingKyogre_mvl/mxv
 BYTE   PAN   c_v-14
 BYTE   N44  Bn3  v092
 BYTE   W48
 BYTE   Fs3
 BYTE   W36
 BYTE   W01
// 007   ----------------------------------------
Label_4_015A23CA:
 BYTE   W11
 BYTE   N44  En3  v092
 BYTE   W48
 BYTE   Fs3
 BYTE   W36
 BYTE   W01
 BYTE   PEND 
// 008   ----------------------------------------
 BYTE   W11
 BYTE   En3
 BYTE   W48
 BYTE   N44
 BYTE   W36
 BYTE   W01
 BYTE   PATT
  POIN2 Label_4_015A23CA
// 009   ----------------------------------------
 BYTE   W10
 BYTE   GoTo
  POIN2 Label_4_015A237F
 BYTE   FINE

//**************** Track 6 (Midi-Chn.5) ****************//

FE04ThoughtsGoingAroundSurfingKyogre_006:
// 000   ----------------------------------------
 BYTE   KEYSH   FE04ThoughtsGoingAroundSurfingKyogre_key+0
 BYTE   W06
Label_5_015A23EB:
 BYTE   VOICE   11
 BYTE   VOL   62*FE04ThoughtsGoingAroundSurfingKyogre_mvl/mxv
 BYTE   PAN   c_v-14
 BYTE   W24
 BYTE   N10  En3  v104
 BYTE   W12
 BYTE   N03
 BYTE   W06
 BYTE   N03
 BYTE   W06
 BYTE   N21  Ds3
 BYTE   W24
 BYTE   N21
 BYTE   W18
// 001   ----------------------------------------
 BYTE   W06
 BYTE   N10  Cs3
 BYTE   W12
 BYTE   N10
 BYTE   W12
 BYTE   N10
 BYTE   W12
 BYTE   N03
 BYTE   W06
 BYTE   N03
 BYTE   W06
 BYTE   N21  Ds3
 BYTE   W36
 BYTE   N10  Bn2
 BYTE   W06
// 002   ----------------------------------------
 BYTE   W06
 BYTE   N21  Cs3
 BYTE   W24
 BYTE   N10  An2
 BYTE   W12
 BYTE   Ds3
 BYTE   W12
 BYTE   N21  Bn2
 BYTE   W24
 BYTE   N22  Gs2
 BYTE   W18
// 003   ----------------------------------------
 BYTE   W06
 BYTE   N21  An2
 BYTE   W24
 BYTE   N10  Bn2
 BYTE   W12
 BYTE   N03  Cs3
 BYTE   W06
 BYTE   N03
 BYTE   W06
 BYTE   N21  Bn2
 BYTE   W24
 BYTE   N22
 BYTE   W18
// 004   ----------------------------------------
 BYTE   W08
 BYTE   VOICE   11
 BYTE   VOL   62*FE04ThoughtsGoingAroundSurfingKyogre_mvl/mxv
 BYTE   PAN   c_v-14
 BYTE   W24
 BYTE   N10  En3
 BYTE   W12
 BYTE   N03
 BYTE   W06
 BYTE   N03
 BYTE   W06
 BYTE   N21  Ds3
 BYTE   W24
 BYTE   N21
 BYTE   W16
// 005   ----------------------------------------
 BYTE   W08
 BYTE   N10  Cs3
 BYTE   W12
 BYTE   N10
 BYTE   W12
 BYTE   N10
 BYTE   W12
 BYTE   N03
 BYTE   W06
 BYTE   N03
 BYTE   W06
 BYTE   N21  Ds3
 BYTE   W36
 BYTE   N10  Bn2
 BYTE   W04
// 006   ----------------------------------------
 BYTE   W08
 BYTE   N21  Cs3
 BYTE   W24
 BYTE   N10  An2
 BYTE   W12
 BYTE   Ds3
 BYTE   W12
 BYTE   N21  Bn2
 BYTE   W24
 BYTE   N22  Gs2
 BYTE   W16
// 007   ----------------------------------------
 BYTE   W08
 BYTE   N21  An2
 BYTE   W24
 BYTE   N10  Bn2
 BYTE   W12
 BYTE   N03  Cs3
 BYTE   W06
 BYTE   N03
 BYTE   W06
 BYTE   N21  Bn2
 BYTE   W24
 BYTE   N22
 BYTE   W16
// 008   ----------------------------------------
 BYTE   W10
 BYTE   VOICE   10
 BYTE   VOL   44*FE04ThoughtsGoingAroundSurfingKyogre_mvl/mxv
 BYTE   PAN   c_v+14
 BYTE   W24
 BYTE   N07  En4
 BYTE   W12
 BYTE   N01
 BYTE   W06
 BYTE   N01
 BYTE   W06
 BYTE   N14  Ds4
 BYTE   W24
 BYTE   N14
 BYTE   W14
// 009   ----------------------------------------
 BYTE   W10
 BYTE   N07  Cs4
 BYTE   W12
 BYTE   N07
 BYTE   W12
 BYTE   N07
 BYTE   W12
 BYTE   N01
 BYTE   W06
 BYTE   N01
 BYTE   W06
 BYTE   N14  Ds4
 BYTE   W36
 BYTE   N07  Bn3
 BYTE   W02
// 010   ----------------------------------------
 BYTE   W10
 BYTE   N14  Cs4
 BYTE   W24
 BYTE   N07  An3
 BYTE   W12
 BYTE   Ds4
 BYTE   W12
 BYTE   N14  Bn3
 BYTE   W24
 BYTE   N15  Gs3
 BYTE   W14
// 011   ----------------------------------------
 BYTE   W10
 BYTE   N14  An3
 BYTE   W24
 BYTE   N07  Bn3
 BYTE   W12
 BYTE   N01  Cs4
 BYTE   W06
 BYTE   N01
 BYTE   W06
 BYTE   N14  Bn3
 BYTE   W24
 BYTE   N14
 BYTE   W14
// 012   ----------------------------------------
 BYTE   W10
 BYTE   GoTo
  POIN2 Label_5_015A23EB
 BYTE   FINE

//**************** Track 7 (Midi-Chn.6) ****************//

FE04ThoughtsGoingAroundSurfingKyogre_007:
// 000   ----------------------------------------
 BYTE   KEYSH   FE04ThoughtsGoingAroundSurfingKyogre_key+0
 BYTE   W06
Label_6_015A24C7:
 BYTE   VOICE   11
 BYTE   VOL   62*FE04ThoughtsGoingAroundSurfingKyogre_mvl/mxv
 BYTE   PAN   c_v+25
 BYTE   N21  En3  v104
 BYTE   W24
 BYTE   N10  Bn3  v092
 BYTE   W12
 BYTE   N03  An3  v104
 BYTE   W06
 BYTE   Gs3
 BYTE   W06
 BYTE   N21  Fs3
 BYTE   W24
 BYTE   Bn3  v092
 BYTE   W18
// 001   ----------------------------------------
 BYTE   W06
 BYTE   N10
 BYTE   W12
 BYTE   An3  v104
 BYTE   W12
 BYTE   Gs3
 BYTE   W12
 BYTE   N03  Fs3
 BYTE   W06
 BYTE   En3
 BYTE   W06
 BYTE   N21  Fs3
 BYTE   W24
 BYTE   N10  Bn2
 BYTE   W12
 BYTE   N11  Ds3
 BYTE   W06
// 002   ----------------------------------------
 BYTE   W06
 BYTE   N21  En3
 BYTE   W24
 BYTE   N10  Cs3
 BYTE   W12
 BYTE   Fs3
 BYTE   W12
 BYTE   N21  En3
 BYTE   W24
 BYTE   N22  Bn2
 BYTE   W18
// 003   ----------------------------------------
 BYTE   W06
 BYTE   N21  Cs3
 BYTE   W24
 BYTE   N10  Ds3
 BYTE   W12
 BYTE   N03  En3
 BYTE   W06
 BYTE   Fs3
 BYTE   W06
 BYTE   N21  En3
 BYTE   W24
 BYTE   N22  Ds3
 BYTE   W18
// 004   ----------------------------------------
 BYTE   W08
 BYTE   VOICE   11
 BYTE   VOL   62*FE04ThoughtsGoingAroundSurfingKyogre_mvl/mxv
 BYTE   PAN   c_v+25
 BYTE   N21  En3
 BYTE   W24
 BYTE   N10  Bn3  v092
 BYTE   W12
 BYTE   N03  An3  v104
 BYTE   W06
 BYTE   Gs3
 BYTE   W06
 BYTE   N21  Fs3
 BYTE   W24
 BYTE   Bn3  v092
 BYTE   W16
// 005   ----------------------------------------
 BYTE   W08
 BYTE   N10
 BYTE   W12
 BYTE   An3  v104
 BYTE   W12
 BYTE   Gs3
 BYTE   W12
 BYTE   N03  Fs3
 BYTE   W06
 BYTE   En3
 BYTE   W06
 BYTE   N21  Fs3
 BYTE   W23
 BYTE   N10  Bn2
 BYTE   W12
 BYTE   N11  Ds3
 BYTE   W05
// 006   ----------------------------------------
 BYTE   W08
 BYTE   N21  En3
 BYTE   W24
 BYTE   N10  Cs3
 BYTE   W12
 BYTE   Fs3
 BYTE   W12
 BYTE   N21  En3
 BYTE   W24
 BYTE   N22  Bn2
 BYTE   W16
// 007   ----------------------------------------
 BYTE   W08
 BYTE   N21  Cs3
 BYTE   W24
 BYTE   N10  Ds3
 BYTE   W12
 BYTE   N03  En3
 BYTE   W06
 BYTE   Fs3
 BYTE   W06
 BYTE   N21  En3
 BYTE   W24
 BYTE   N22  Ds3
 BYTE   W16
// 008   ----------------------------------------
 BYTE   W09
 BYTE   VOICE   10
 BYTE   VOL   44*FE04ThoughtsGoingAroundSurfingKyogre_mvl/mxv
 BYTE   PAN   c_v+34
 BYTE   N14  En4
 BYTE   W24
 BYTE   N07  Bn4  v092
 BYTE   W12
 BYTE   N01  An4  v104
 BYTE   W06
 BYTE   Gs4
 BYTE   W06
 BYTE   N14  Fs4
 BYTE   W24
 BYTE   Bn4  v092
 BYTE   W15
// 009   ----------------------------------------
 BYTE   W09
 BYTE   N07
 BYTE   W12
 BYTE   An4  v104
 BYTE   W12
 BYTE   Gs4
 BYTE   W12
 BYTE   N01  Fs4
 BYTE   W06
 BYTE   En4
 BYTE   W06
 BYTE   N14  Fs4
 BYTE   W24
 BYTE   N07  Bn3
 BYTE   W12
 BYTE   Ds4
 BYTE   W03
// 010   ----------------------------------------
 BYTE   W09
 BYTE   N14  En4
 BYTE   W24
 BYTE   N07  Cs4
 BYTE   W12
 BYTE   Fs4
 BYTE   W12
 BYTE   N14  En4
 BYTE   W24
 BYTE   N15  Bn3
 BYTE   W15
// 011   ----------------------------------------
 BYTE   W09
 BYTE   N14  Cs4
 BYTE   W24
 BYTE   N07  Ds4
 BYTE   W12
 BYTE   N01  En4
 BYTE   W06
 BYTE   Fs4
 BYTE   W06
 BYTE   N14  En4
 BYTE   W24
 BYTE   Ds4
 BYTE   W15
// 012   ----------------------------------------
 BYTE   W10
 BYTE   GoTo
  POIN2 Label_6_015A24C7
 BYTE   FINE

//******************************************************//
	ALIGN 4

FE04ThoughtsGoingAroundSurfingKyogre:
	BYTE	7	// NumTrks
	BYTE	0	// NumBlks
	BYTE	FE04ThoughtsGoingAroundSurfingKyogre_pri	// Priority
	BYTE	FE04ThoughtsGoingAroundSurfingKyogre_rev	// Reverb.
    
	POIN2	FE04ThoughtsGoingAroundSurfingKyogre_grp
    
	POIN2	FE04ThoughtsGoingAroundSurfingKyogre_001
	POIN2	FE04ThoughtsGoingAroundSurfingKyogre_002
	POIN2	FE04ThoughtsGoingAroundSurfingKyogre_003
	POIN2	FE04ThoughtsGoingAroundSurfingKyogre_004
	POIN2	FE04ThoughtsGoingAroundSurfingKyogre_005
	POIN2	FE04ThoughtsGoingAroundSurfingKyogre_006
	POIN2	FE04ThoughtsGoingAroundSurfingKyogre_007

	
