//Event file generated from Sappy .s format.
	#include "MPlayDef.event"

	#define	FE04ArmyofVerdaneRemixPandan_grp  voicegroup000
	#define	FE04ArmyofVerdaneRemixPandan_pri  0
	#define	FE04ArmyofVerdaneRemixPandan_rev  0
	#define	FE04ArmyofVerdaneRemixPandan_mvl  127
	#define	FE04ArmyofVerdaneRemixPandan_key  0
	#define	FE04ArmyofVerdaneRemixPandan_tbs  1
	#define	FE04ArmyofVerdaneRemixPandan_exg  0
	#define	FE04ArmyofVerdaneRemixPandan_cmp  1

	// .rodata
	//	FE04ArmyofVerdaneRemixPandan
	ALIGN 4


//**************** Track 1 (Midi-Chn.0) ****************//

FE04ArmyofVerdaneRemixPandan_001:
// 000   ----------------------------------------
 BYTE   KEYSH   FE04ArmyofVerdaneRemixPandan_key+0
 BYTE   TEMPO   122*FE04ArmyofVerdaneRemixPandan_tbs/2
 BYTE   VOICE   50
 BYTE   W96
// 001   ----------------------------------------
 BYTE   W96
// 002   ----------------------------------------
Label_0_01435ABC:
 BYTE   W96
// 003   ----------------------------------------
 BYTE   VOL   85*FE04ArmyofVerdaneRemixPandan_mvl/mxv
 BYTE   PAN   c_v-49
 BYTE   W40
 BYTE   N05  Gs3  v040
 BYTE   W06
 BYTE   As3
 BYTE   W06
 BYTE   N40  Cn4  v044
 BYTE   W44
// 004   ----------------------------------------
 BYTE   W96
// 005   ----------------------------------------
 BYTE   W04
 BYTE   W24
 BYTE   N05  Gs2  v052
 BYTE   W06
 BYTE   As2  v032
 BYTE   W06
 BYTE   Gs2  v040
 BYTE   W06
 BYTE   As2
 BYTE   W06
 BYTE   Cn3  v044
 BYTE   W06
 BYTE   Dn3  v032
 BYTE   W06
 BYTE   Cn3  v040
 BYTE   W06
 BYTE   Dn3  v032
 BYTE   W06
 BYTE   Ds3  v044
 BYTE   W06
 BYTE   Fn3  v028
 BYTE   W06
 BYTE   Ds3  v040
 BYTE   W06
 BYTE   Fn3  v032
 BYTE   W02
// 006   ----------------------------------------
 BYTE   W96
// 007   ----------------------------------------
 BYTE   W96
// 008   ----------------------------------------
 BYTE   W04
 BYTE   W72
 BYTE   N04  Gs3  v040
 BYTE   W12
 BYTE   As3  v044
 BYTE   W08
// 009   ----------------------------------------
 BYTE   W04
 BYTE   N11  Cn4  v040
 BYTE   W12
 BYTE   N03  Dn4
 BYTE   W12
 BYTE   N44  As3  v044
 BYTE   W68
// 010   ----------------------------------------
 BYTE   W96
// 011   ----------------------------------------
 BYTE   W96
// 012   ----------------------------------------
 BYTE   W04
 BYTE   W48
 BYTE   N05  Fn3
 BYTE   W06
 BYTE   Gn3
 BYTE   W06
 BYTE   Fn3  v040
 BYTE   W06
 BYTE   Gn3  v032
 BYTE   W06
 BYTE   Gs3
 BYTE   W06
 BYTE   As3  v028
 BYTE   W06
 BYTE   Gs3  v032
 BYTE   W06
 BYTE   As3  v028
 BYTE   W02
// 013   ----------------------------------------
 BYTE   W04
 BYTE   Cn4  v040
 BYTE   W06
 BYTE   Dn4  v028
 BYTE   W06
 BYTE   Cn4  v032
 BYTE   W06
 BYTE   Dn4
 BYTE   W06
 BYTE   Ds4  v028
 BYTE   W06
 BYTE   Fn4
 BYTE   W06
 BYTE   Ds4  v032
 BYTE   W06
 BYTE   Fn4  v028
 BYTE   W06
 BYTE   Gn4  v044
 BYTE   W06
 BYTE   Gs4  v028
 BYTE   W06
 BYTE   Gn4  v020
 BYTE   W06
 BYTE   Gs4
 BYTE   W06
 BYTE   As4  v032
 BYTE   W06
 BYTE   Cn5  v028
 BYTE   W06
 BYTE   As4
 BYTE   W06
 BYTE   Cn5  v040
 BYTE   W02
// 014   ----------------------------------------
 BYTE   W96
// 015   ----------------------------------------
 BYTE   PAN   c_v-43
 BYTE   W48
 BYTE   Ds1
 BYTE   N05  Gs4  v064
 BYTE   W06
 BYTE   VOL   83*FE04ArmyofVerdaneRemixPandan_mvl/mxv
 BYTE   N03  Gs4  v040
 BYTE   W01
 BYTE   VOL   81*FE04ArmyofVerdaneRemixPandan_mvl/mxv
 BYTE   W01
 BYTE   Fs4
 BYTE   W01
 BYTE   En4
 BYTE   W01
 BYTE   Dn4
 BYTE   W01
 BYTE   Bn3
 BYTE   N03
 BYTE   W01
 BYTE   VOL   69*FE04ArmyofVerdaneRemixPandan_mvl/mxv
 BYTE   W01
 BYTE   Fs3
 BYTE   W01
 BYTE   En3
 BYTE   W01
 BYTE   Dn3
 BYTE   N03
 BYTE   W01
 BYTE   VOL   60*FE04ArmyofVerdaneRemixPandan_mvl/mxv
 BYTE   W01
 BYTE   An2
 BYTE   W01
 BYTE   Gn2
 BYTE   W01
 BYTE   En2
 BYTE   W01
 BYTE   Dn2
 BYTE   N03
 BYTE   W01
 BYTE   VOL   48*FE04ArmyofVerdaneRemixPandan_mvl/mxv
 BYTE   W01
 BYTE   An1
 BYTE   W01
 BYTE   Gn1
 BYTE   W01
 BYTE   Cs5
 BYTE   N14  Fn4  v056
 BYTE   W15
 BYTE   N03  Fn4  v032
 BYTE   W05
 BYTE   Fn4  v020
 BYTE   W04
// 016   ----------------------------------------
 BYTE   W96
// 017   ----------------------------------------
 BYTE   W48
 BYTE   N04  Gn4  v052
 BYTE   W05
 BYTE   N02  Gn4  v032
 BYTE   W04
 BYTE   Gn4  v020
 BYTE   W03
 BYTE   N03  Gn4  v064
 BYTE   W05
 BYTE   Gn4  v040
 BYTE   W04
 BYTE   N02  Gn4  v028
 BYTE   W03
 BYTE   N18  Gs4  v052
 BYTE   W19
 BYTE   N04  Gs4  v040
 BYTE   W05
// 018   ----------------------------------------
 BYTE   W96
// 019   ----------------------------------------
 BYTE   W96
// 020   ----------------------------------------
 BYTE   W96
// 021   ----------------------------------------
 BYTE   W96
// 022   ----------------------------------------
 BYTE   W96
// 023   ----------------------------------------
 BYTE   W96
// 024   ----------------------------------------
 BYTE   W96
// 025   ----------------------------------------
 BYTE   W92
 BYTE   W03
 BYTE   GoTo
  POIN2 Label_0_01435ABC
 BYTE   FINE

//**************** Track 2 (Midi-Chn.1) ****************//

FE04ArmyofVerdaneRemixPandan_002:
// 000   ----------------------------------------
 BYTE   KEYSH   FE04ArmyofVerdaneRemixPandan_key+0
 BYTE   VOICE   61
 BYTE   W96
// 001   ----------------------------------------
 BYTE   W96
// 002   ----------------------------------------
Label_1_01435BCA:
 BYTE   W24
 BYTE   VOL   85*FE04ArmyofVerdaneRemixPandan_mvl/mxv
 BYTE   PAN   c_v-14
 BYTE   N10  Fn2  v084
 BYTE   W18
 BYTE   N04  Fn2  v076
 BYTE   W12
 BYTE   N07  Fn2  v064
 BYTE   W12
 BYTE   N03  Fn2  v076
 BYTE   W18
 BYTE   N10  Fn2  v064
 BYTE   W12
// 003   ----------------------------------------
Label_1_01435BE3:
 BYTE   W24
 BYTE   N11  Fn2  v084
 BYTE   W18
 BYTE   N05  Fn2  v064
 BYTE   W12
 BYTE   N08
 BYTE   W12
 BYTE   N04  Fn2  v076
 BYTE   W18
 BYTE   N10  Fn2  v064
 BYTE   W12
 BYTE   PEND 
// 004   ----------------------------------------
Label_1_01435BF7:
 BYTE   W24
 BYTE   N10  As2  v084
 BYTE   W18
 BYTE   N05  As2  v076
 BYTE   W12
 BYTE   N07  As2  v064
 BYTE   W12
 BYTE   N03
 BYTE   W18
 BYTE   N10  As2  v076
 BYTE   W12
 BYTE   PEND 
// 005   ----------------------------------------
 BYTE   W24
 BYTE   N10
 BYTE   W18
 BYTE   N04  As2  v064
 BYTE   W12
 BYTE   N08
 BYTE   W12
 BYTE   N02  As2  v076
 BYTE   W12
 BYTE   N11  As2  v072
 BYTE   W18
// 006   ----------------------------------------
 BYTE   W24
 BYTE   N10  Fn2  v084
 BYTE   W18
 BYTE   N04  Fn2  v076
 BYTE   W12
 BYTE   N07  Fn2  v064
 BYTE   W12
 BYTE   N03  Fn2  v076
 BYTE   W18
 BYTE   N10  Fn2  v064
 BYTE   W12
 BYTE   PATT
  POIN2 Label_1_01435BE3
 BYTE   PATT
  POIN2 Label_1_01435BF7
// 007   ----------------------------------------
 BYTE   W24
 BYTE   N10  As2  v076
 BYTE   W18
 BYTE   N04  As2  v064
 BYTE   W12
 BYTE   N08
 BYTE   W12
 BYTE   N02  As2  v076
 BYTE   W12
 BYTE   N12  As2  v084
 BYTE   W18
// 008   ----------------------------------------
 BYTE   W24
 BYTE   N10  Fn2
 BYTE   W18
 BYTE   N05  Fn2  v076
 BYTE   W12
 BYTE   N07  Fn2  v064
 BYTE   W12
 BYTE   N03
 BYTE   W18
 BYTE   N10  Fn2  v076
 BYTE   W12
// 009   ----------------------------------------
 BYTE   W24
 BYTE   N10
 BYTE   W18
 BYTE   N04  Fn2  v064
 BYTE   W12
 BYTE   N08
 BYTE   W12
 BYTE   N02  Fn2  v076
 BYTE   W12
 BYTE   N08  Fn2  v064
 BYTE   W18
 BYTE   PATT
  POIN2 Label_1_01435BF7
// 010   ----------------------------------------
 BYTE   W24
 BYTE   N10  As2  v076
 BYTE   W18
 BYTE   N04  As2  v064
 BYTE   W12
 BYTE   N08
 BYTE   W12
 BYTE   N02  As2  v076
 BYTE   W12
 BYTE   N09  As2  v072
 BYTE   W18
// 011   ----------------------------------------
 BYTE   N04  Fn2
 BYTE   W12
 BYTE   N02  Fn2  v084
 BYTE   W18
 BYTE   TIE
 BYTE   W66
// 012   ----------------------------------------
 BYTE   W68
 BYTE   W03
 BYTE   EOT
 BYTE   W24
 BYTE   W01
// 013   ----------------------------------------
 BYTE   N04  Fn2  v064
 BYTE   W12
 BYTE   N02  Fn2  v084
 BYTE   W18
 BYTE   TIE
 BYTE   W66
// 014   ----------------------------------------
 BYTE   W68
 BYTE   W03
 BYTE   EOT
 BYTE   W24
 BYTE   W01
// 015   ----------------------------------------
Label_1_01435CA6:
 BYTE   W24
 BYTE   N10  Cn2  v084
 BYTE   W18
 BYTE   N05  Cn2  v076
 BYTE   W12
 BYTE   N07  Cn2  v064
 BYTE   W12
 BYTE   N03
 BYTE   W18
 BYTE   N10  Cn2  v076
 BYTE   W12
 BYTE   PEND 
// 016   ----------------------------------------
Label_1_01435CBA:
 BYTE   W24
 BYTE   N10  Cn2  v076
 BYTE   W18
 BYTE   N04  Cn2  v064
 BYTE   W12
 BYTE   N08
 BYTE   W12
 BYTE   N02  Cn2  v076
 BYTE   W12
 BYTE   N08  Cn2  v060
 BYTE   W18
 BYTE   PEND 
 BYTE   PATT
  POIN2 Label_1_01435CA6
 BYTE   PATT
  POIN2 Label_1_01435CBA
 BYTE   PATT
  POIN2 Label_1_01435CA6
 BYTE   PATT
  POIN2 Label_1_01435CBA
 BYTE   PATT
  POIN2 Label_1_01435CA6
// 017   ----------------------------------------
 BYTE   W24
 BYTE   N10  Cn2  v076
 BYTE   W18
 BYTE   N04  Cn2  v064
 BYTE   W12
 BYTE   N08
 BYTE   W12
 BYTE   N02  Cn2  v076
 BYTE   W12
 BYTE   N08  Cn2  v060
 BYTE   W17
 BYTE   GoTo
  POIN2 Label_1_01435BCA
 BYTE   FINE

//**************** Track 3 (Midi-Chn.2) ****************//

FE04ArmyofVerdaneRemixPandan_003:
// 000   ----------------------------------------
 BYTE   KEYSH   FE04ArmyofVerdaneRemixPandan_key+0
 BYTE   VOICE   50
 BYTE   W96
// 001   ----------------------------------------
 BYTE   W96
// 002   ----------------------------------------
Label_2_01435D06:
 BYTE   W96
// 003   ----------------------------------------
 BYTE   VOL   85*FE04ArmyofVerdaneRemixPandan_mvl/mxv
 BYTE   PAN   c_v-25
 BYTE   W36
 BYTE   N05  Gs3  v072
 BYTE   W06
 BYTE   As3
 BYTE   W06
 BYTE   N40  Cn4  v084
 BYTE   W48
// 004   ----------------------------------------
 BYTE   W96
// 005   ----------------------------------------
 BYTE   W24
 BYTE   N05  Gs2  v076
 BYTE   W06
 BYTE   As2  v060
 BYTE   W06
 BYTE   Gs2  v064
 BYTE   W06
 BYTE   As2
 BYTE   W06
 BYTE   Cn3  v072
 BYTE   W06
 BYTE   Dn3  v060
 BYTE   W06
 BYTE   Cn3  v064
 BYTE   W06
 BYTE   Dn3  v060
 BYTE   W06
 BYTE   Ds3  v072
 BYTE   W06
 BYTE   Fn3  v052
 BYTE   W06
 BYTE   Ds3  v064
 BYTE   W06
 BYTE   Fn3  v060
 BYTE   W06
// 006   ----------------------------------------
 BYTE   W96
// 007   ----------------------------------------
 BYTE   W96
// 008   ----------------------------------------
 BYTE   W72
 BYTE   N04  Gs3  v064
 BYTE   W12
 BYTE   As3  v072
 BYTE   W12
// 009   ----------------------------------------
 BYTE   N11  Cn4  v064
 BYTE   W12
 BYTE   N03  Dn4
 BYTE   W12
 BYTE   N44  As3  v076
 BYTE   W72
// 010   ----------------------------------------
 BYTE   W96
// 011   ----------------------------------------
 BYTE   W96
// 012   ----------------------------------------
 BYTE   W48
 BYTE   N05  Fn3  v072
 BYTE   W06
 BYTE   Gn3
 BYTE   W06
 BYTE   Fn3  v076
 BYTE   W06
 BYTE   Gn3  v060
 BYTE   W06
 BYTE   Gs3
 BYTE   W06
 BYTE   As3  v052
 BYTE   W06
 BYTE   Gs3  v060
 BYTE   W06
 BYTE   As3  v052
 BYTE   W06
// 013   ----------------------------------------
 BYTE   Cn4  v064
 BYTE   W06
 BYTE   Dn4  v052
 BYTE   W06
 BYTE   Cn4  v060
 BYTE   W06
 BYTE   Dn4
 BYTE   W06
 BYTE   Ds4  v052
 BYTE   W06
 BYTE   Fn4
 BYTE   W06
 BYTE   Ds4  v060
 BYTE   W06
 BYTE   Fn4  v052
 BYTE   W06
 BYTE   Gn4  v072
 BYTE   W06
 BYTE   Gs4  v052
 BYTE   W06
 BYTE   Gn4  v040
 BYTE   W06
 BYTE   Gs4  v044
 BYTE   W06
 BYTE   As4  v060
 BYTE   W06
 BYTE   Cn5  v052
 BYTE   W06
 BYTE   As4
 BYTE   W06
 BYTE   Cn5  v064
 BYTE   W06
// 014   ----------------------------------------
 BYTE   W96
// 015   ----------------------------------------
 BYTE   W48
 BYTE   Ds5
 BYTE   W06
 BYTE   VOL   83*FE04ArmyofVerdaneRemixPandan_mvl/mxv
 BYTE   N03  Ds5  v040
 BYTE   W01
 BYTE   VOL   81*FE04ArmyofVerdaneRemixPandan_mvl/mxv
 BYTE   W01
 BYTE   Fs4
 BYTE   W01
 BYTE   En4
 BYTE   W01
 BYTE   Dn4
 BYTE   W01
 BYTE   Bn3
 BYTE   N03
 BYTE   W01
 BYTE   VOL   69*FE04ArmyofVerdaneRemixPandan_mvl/mxv
 BYTE   W01
 BYTE   Fs3
 BYTE   W01
 BYTE   En3
 BYTE   W01
 BYTE   Dn3
 BYTE   N03
 BYTE   W01
 BYTE   VOL   60*FE04ArmyofVerdaneRemixPandan_mvl/mxv
 BYTE   W01
 BYTE   An2
 BYTE   W01
 BYTE   Gn2
 BYTE   W01
 BYTE   En2
 BYTE   W01
 BYTE   Dn2
 BYTE   N03
 BYTE   W01
 BYTE   VOL   48*FE04ArmyofVerdaneRemixPandan_mvl/mxv
 BYTE   W01
 BYTE   An1
 BYTE   W01
 BYTE   Gn1
 BYTE   W01
 BYTE   Cs5
 BYTE   N14  Cn5  v060
 BYTE   W15
 BYTE   N03  Cn5  v032
 BYTE   W05
 BYTE   Cn5  v020
 BYTE   W04
// 016   ----------------------------------------
 BYTE   W96
// 017   ----------------------------------------
 BYTE   W48
 BYTE   N04  Cn5  v056
 BYTE   W05
 BYTE   N02  Cn5  v032
 BYTE   W04
 BYTE   Cn5  v020
 BYTE   W03
 BYTE   N03  Cn5  v068
 BYTE   W05
 BYTE   Cn5  v040
 BYTE   W04
 BYTE   N02  Cn5  v028
 BYTE   W03
 BYTE   N18  Ds5  v052
 BYTE   W19
 BYTE   N04  Ds5  v040
 BYTE   W05
// 018   ----------------------------------------
 BYTE   W96
// 019   ----------------------------------------
 BYTE   W96
// 020   ----------------------------------------
 BYTE   W96
// 021   ----------------------------------------
 BYTE   W96
// 022   ----------------------------------------
 BYTE   W96
// 023   ----------------------------------------
 BYTE   W96
// 024   ----------------------------------------
 BYTE   W96
// 025   ----------------------------------------
 BYTE   W92
 BYTE   W03
 BYTE   GoTo
  POIN2 Label_2_01435D06
 BYTE   FINE

//**************** Track 4 (Midi-Chn.3) ****************//

FE04ArmyofVerdaneRemixPandan_004:
// 000   ----------------------------------------
 BYTE   VOL   85*FE04ArmyofVerdaneRemixPandan_mvl/mxv
 BYTE   KEYSH   FE04ArmyofVerdaneRemixPandan_key+0
 BYTE   VOICE   51
 BYTE   W96
// 001   ----------------------------------------
 BYTE   W96
// 002   ----------------------------------------
Label_3_01435E10:
 BYTE   W12
 BYTE   N05  Fn3  v044
 BYTE   W06
 BYTE   Gn3  v052
 BYTE   W06
 BYTE   N04  Gs3  v064
 BYTE   W12
 BYTE   N05
 BYTE   W12
 BYTE   N11
 BYTE   W12
 BYTE   N05  As3  v060
 BYTE   W12
 BYTE   N08  As3  v064
 BYTE   W12
 BYTE   N05  Gn3  v052
 BYTE   W12
// 003   ----------------------------------------
 BYTE   Fn3  v056
 BYTE   W06
 BYTE   Gn3
 BYTE   W06
 BYTE   VOL   76*FE04ArmyofVerdaneRemixPandan_mvl/mxv
 BYTE   N72  Gs3  v076
 BYTE   W01
 BYTE   VOL   77*FE04ArmyofVerdaneRemixPandan_mvl/mxv
 BYTE   W02
 BYTE   Fs4
 BYTE   W02
 BYTE   Fs4
 BYTE   W02
 BYTE   Gn4
 BYTE   W02
 BYTE   Gs4
 BYTE   W02
 BYTE   Gs4
 BYTE   W03
 BYTE   An4
 BYTE   W02
 BYTE   As4
 BYTE   W02
 BYTE   As4
 BYTE   W02
 BYTE   Bn4
 BYTE   W02
 BYTE   Cn5
 BYTE   W02
 BYTE   Cs5
 BYTE   W60
// 004   ----------------------------------------
 BYTE   W12
 BYTE   N05  Fn3  v060
 BYTE   W06
 BYTE   Gn3  v044
 BYTE   W06
 BYTE   N06  Gs3  v064
 BYTE   W12
 BYTE   N04  Gs3  v060
 BYTE   W12
 BYTE   N11  Gs3  v064
 BYTE   W12
 BYTE   N05  As3
 BYTE   W12
 BYTE   N08
 BYTE   W12
 BYTE   N05  Gn3  v060
 BYTE   W12
// 005   ----------------------------------------
 BYTE   Fn3  v052
 BYTE   W06
 BYTE   Gn3  v060
 BYTE   W06
 BYTE   VOL   78*FE04ArmyofVerdaneRemixPandan_mvl/mxv
 BYTE   N52  Gs3  v072
 BYTE   W01
 BYTE   VOL   78*FE04ArmyofVerdaneRemixPandan_mvl/mxv
 BYTE   W02
 BYTE   Gn4
 BYTE   W02
 BYTE   Gs4
 BYTE   W02
 BYTE   Gs4
 BYTE   W02
 BYTE   An4
 BYTE   W02
 BYTE   As4
 BYTE   W02
 BYTE   As4
 BYTE   W02
 BYTE   Bn4
 BYTE   W02
 BYTE   Cn5
 BYTE   W02
 BYTE   Cs5
 BYTE   W40
 BYTE   W01
 BYTE   N05  Cn4  v052
 BYTE   W12
 BYTE   N05
 BYTE   W12
// 006   ----------------------------------------
 BYTE   N09  Cn4  v076
 BYTE   W12
 BYTE   PAN   c_v+25
 BYTE   N03  Gn4  v072
 BYTE   W12
 BYTE   PAN   c_v+14
 BYTE   N04  Cn4  v060
 BYTE   W12
 BYTE   Cn4  v064
 BYTE   W12
 BYTE   N17  Cn4  v076
 BYTE   W24
 BYTE   N05  Gs3  v064
 BYTE   W12
 BYTE   N04  Gs3  v060
 BYTE   W12
// 007   ----------------------------------------
 BYTE   N09  Gs3  v064
 BYTE   W12
 BYTE   PAN   c_v+25
 BYTE   N03  Dn4  v072
 BYTE   W12
 BYTE   PAN   c_v+14
 BYTE   N03  Gs3  v064
 BYTE   W12
 BYTE   N02  Gs3  v052
 BYTE   W12
 BYTE   N23  Gs3  v064
 BYTE   W24
 BYTE   N05  Fn3
 BYTE   W12
 BYTE   N04
 BYTE   W12
// 008   ----------------------------------------
 BYTE   N11  Fn3  v052
 BYTE   W12
 BYTE   N03  As3  v056
 BYTE   W12
 BYTE   N11  Fn3  v064
 BYTE   W12
 BYTE   N52  Fn3  v072
 BYTE   W60
// 009   ----------------------------------------
 BYTE   W72
 BYTE   N05  Cn4  v064
 BYTE   W12
 BYTE   N05
 BYTE   W12
// 010   ----------------------------------------
 BYTE   N09  Cn4  v076
 BYTE   W12
 BYTE   PAN   c_v+25
 BYTE   N03  Gn4  v072
 BYTE   W12
 BYTE   PAN   c_v+14
 BYTE   N04  Cn4  v056
 BYTE   W12
 BYTE   Cn4  v068
 BYTE   W12
 BYTE   N17  Cn4  v076
 BYTE   W24
 BYTE   N05  Gs3  v064
 BYTE   W12
 BYTE   N04  Gs3  v060
 BYTE   W12
// 011   ----------------------------------------
 BYTE   N09  Gs3  v064
 BYTE   W12
 BYTE   PAN   c_v+25
 BYTE   N04  Dn4  v072
 BYTE   W12
 BYTE   PAN   c_v+14
 BYTE   N04  Gs3  v064
 BYTE   W12
 BYTE   Gs3  v052
 BYTE   W12
 BYTE   N22  Gs3  v064
 BYTE   W24
 BYTE   N05  Fn3
 BYTE   W12
 BYTE   N04
 BYTE   W12
// 012   ----------------------------------------
 BYTE   N11  Fn3  v052
 BYTE   W12
 BYTE   N04  As3
 BYTE   W12
 BYTE   N11  Fn3  v064
 BYTE   W12
 BYTE   VOL   76*FE04ArmyofVerdaneRemixPandan_mvl/mxv
 BYTE   N52  Fn3  v068
 BYTE   W01
 BYTE   VOL   77*FE04ArmyofVerdaneRemixPandan_mvl/mxv
 BYTE   W02
 BYTE   Fs4
 BYTE   W02
 BYTE   Fs4
 BYTE   W02
 BYTE   Gn4
 BYTE   W02
 BYTE   Gs4
 BYTE   W02
 BYTE   Gs4
 BYTE   W03
 BYTE   An4
 BYTE   W02
 BYTE   As4
 BYTE   W02
 BYTE   As4
 BYTE   W02
 BYTE   Bn4
 BYTE   W02
 BYTE   Cn5
 BYTE   W02
 BYTE   Cs5
 BYTE   W36
// 013   ----------------------------------------
 BYTE   W96
// 014   ----------------------------------------
 BYTE   PAN   c_v-25
 BYTE   W24
 BYTE   N24  Gn2  v060
 BYTE   W36
 BYTE   N15  Gs2  v052
 BYTE   W24
 BYTE   N02  As2  v064
 BYTE   W12
// 015   ----------------------------------------
 BYTE   N16  Gn2
 BYTE   W24
 BYTE   N20  Gs2  v072
 BYTE   W24
 BYTE   N09  As3  v076
 BYTE   W24
 BYTE   N16  Gn3  v072
 BYTE   W24
// 016   ----------------------------------------
 BYTE   W24
 BYTE   N24  Gn2  v052
 BYTE   W36
 BYTE   N15  Gs2
 BYTE   W24
 BYTE   N03  As2  v064
 BYTE   W12
// 017   ----------------------------------------
 BYTE   N16  Gn2
 BYTE   W24
 BYTE   N20  Gs2  v072
 BYTE   W24
 BYTE   N04  Gn3  v064
 BYTE   W12
 BYTE   N04
 BYTE   W12
 BYTE   N19  As3
 BYTE   W24
// 018   ----------------------------------------
 BYTE   W96
// 019   ----------------------------------------
 BYTE   N10  Cn3  v060
 BYTE   W12
 BYTE   N05  Dn3
 BYTE   W06
 BYTE   Cn3  v052
 BYTE   W06
 BYTE   N04  As2  v076
 BYTE   W12
 BYTE   N02  An2  v072
 BYTE   W12
 BYTE   N23  As2  v064
 BYTE   W48
// 020   ----------------------------------------
 BYTE   N11  Gn2
 BYTE   W12
 BYTE   N05  Gs2  v060
 BYTE   W06
 BYTE   Gn2  v052
 BYTE   W06
 BYTE   N04  Fn2  v060
 BYTE   W12
 BYTE   N03  Ds2  v064
 BYTE   W12
 BYTE   N20  Dn2
 BYTE   W24
 BYTE   Cn2
 BYTE   W24
// 021   ----------------------------------------
 BYTE   W96
// 022   ----------------------------------------
 BYTE   N22  Dn2  v072
 BYTE   W24
 BYTE   N05  Ds2  v064
 BYTE   W12
 BYTE   N04  Fn2
 BYTE   W12
 BYTE   N19  Ds2  v072
 BYTE   W24
 BYTE   VOL   78*FE04ArmyofVerdaneRemixPandan_mvl/mxv
 BYTE   N28  Ds2  v056
 BYTE   W01
 BYTE   VOL   78*FE04ArmyofVerdaneRemixPandan_mvl/mxv
 BYTE   W02
 BYTE   Gn4
 BYTE   W02
 BYTE   Gs4
 BYTE   W02
 BYTE   Gs4
 BYTE   W02
 BYTE   An4
 BYTE   W02
 BYTE   As4
 BYTE   W02
 BYTE   As4
 BYTE   W02
 BYTE   Bn4
 BYTE   W02
 BYTE   Cn5
 BYTE   W02
 BYTE   Cs5
 BYTE   W05
// 023   ----------------------------------------
 BYTE   W12
 BYTE   N02  Gn2  v072
 BYTE   W12
 BYTE   N04  Fn2
 BYTE   W12
 BYTE   N02  Gn2  v084
 BYTE   W12
 BYTE   N20  Fn2  v064
 BYTE   W24
 BYTE   N19  Ds2  v076
 BYTE   W24
// 024   ----------------------------------------
 BYTE   PAN   c_v+14
 BYTE   N22  Gs3  v052
 BYTE   W24
 BYTE   N16  As3  v064
 BYTE   W18
 BYTE   Cn4  v060
 BYTE   W18
 BYTE   N03  As3
 BYTE   W12
 BYTE   Gs3  v064
 BYTE   W12
 BYTE   Gn3  v060
 BYTE   W12
// 025   ----------------------------------------
 BYTE   N16  Fn3  v056
 BYTE   W24
 BYTE   N15  Gn3  v060
 BYTE   W18
 BYTE   VOL   72*FE04ArmyofVerdaneRemixPandan_mvl/mxv
 BYTE   N48  Ds3  v088
 BYTE   W01
 BYTE   VOL   72*FE04ArmyofVerdaneRemixPandan_mvl/mxv
 BYTE   W01
 BYTE   Cs4
 BYTE   W01
 BYTE   Dn4
 BYTE   W01
 BYTE   Dn4
 BYTE   W01
 BYTE   Ds4
 BYTE   W01
 BYTE   En4
 BYTE   W01
 BYTE   En4
 BYTE   W01
 BYTE   Fn4
 BYTE   W01
 BYTE   Fs4
 BYTE   W01
 BYTE   Fs4
 BYTE   W01
 BYTE   Gn4
 BYTE   W01
 BYTE   Gs4
 BYTE   W01
 BYTE   Gs4
 BYTE   W01
 BYTE   An4
 BYTE   W01
 BYTE   As4
 BYTE   W01
 BYTE   As4
 BYTE   W01
 BYTE   Bn4
 BYTE   W01
 BYTE   Cn5
 BYTE   W01
 BYTE   Cs5
 BYTE   W32
 BYTE   W02
 BYTE   GoTo
  POIN2 Label_3_01435E10
 BYTE   FINE

//**************** Track 5 (Midi-Chn.4) ****************//

FE04ArmyofVerdaneRemixPandan_005:
// 000   ----------------------------------------
 BYTE   KEYSH   FE04ArmyofVerdaneRemixPandan_key+0
 BYTE   VOICE   51
 BYTE   VOL   85*FE04ArmyofVerdaneRemixPandan_mvl/mxv
 BYTE   PAN   c_v-14
 BYTE   W24
 BYTE   N10  Fn2  v084
 BYTE   W18
 BYTE   N04  Fn2  v076
 BYTE   W12
 BYTE   N07  Fn2  v064
 BYTE   W12
 BYTE   N03  Fn2  v076
 BYTE   W18
 BYTE   N10  Fn2  v064
 BYTE   W12
// 001   ----------------------------------------
 BYTE   W24
 BYTE   N11  Fn2  v084
 BYTE   W18
 BYTE   N05  Fn2  v064
 BYTE   W12
 BYTE   N08
 BYTE   W12
 BYTE   N04  Fn2  v076
 BYTE   W18
 BYTE   N10  Fn2  v064
 BYTE   W12
// 002   ----------------------------------------
Label_4_01436078:
 BYTE   W12
 BYTE   N05  Gs3  v052
 BYTE   W06
 BYTE   As3  v060
 BYTE   W06
 BYTE   N04  Cn4  v064
 BYTE   W12
 BYTE   N05
 BYTE   W12
 BYTE   N11  Cn4  v072
 BYTE   W12
 BYTE   N05  Dn4
 BYTE   W12
 BYTE   N08  Dn4  v064
 BYTE   W12
 BYTE   N05  As3  v060
 BYTE   W12
// 003   ----------------------------------------
 BYTE   Gs3  v064
 BYTE   W06
 BYTE   As3
 BYTE   W06
 BYTE   VOL   76*FE04ArmyofVerdaneRemixPandan_mvl/mxv
 BYTE   N72  Cn4  v080
 BYTE   W01
 BYTE   VOL   77*FE04ArmyofVerdaneRemixPandan_mvl/mxv
 BYTE   W02
 BYTE   Fs4
 BYTE   W02
 BYTE   Fs4
 BYTE   W02
 BYTE   Gn4
 BYTE   W02
 BYTE   Gs4
 BYTE   W02
 BYTE   Gs4
 BYTE   W03
 BYTE   An4
 BYTE   W02
 BYTE   As4
 BYTE   W02
 BYTE   As4
 BYTE   W02
 BYTE   Bn4
 BYTE   W02
 BYTE   Cn5
 BYTE   W02
 BYTE   Cs5
 BYTE   W60
// 004   ----------------------------------------
 BYTE   W12
 BYTE   N05  Gs3  v064
 BYTE   W06
 BYTE   As3  v052
 BYTE   W06
 BYTE   N06  Cn4  v072
 BYTE   W12
 BYTE   N04  Cn4  v064
 BYTE   W12
 BYTE   N11  Cn4  v084
 BYTE   W12
 BYTE   N05  Dn4  v072
 BYTE   W12
 BYTE   N08
 BYTE   W12
 BYTE   N05  As3  v064
 BYTE   W12
// 005   ----------------------------------------
 BYTE   Gs3
 BYTE   W06
 BYTE   As3
 BYTE   W06
 BYTE   VOL   78*FE04ArmyofVerdaneRemixPandan_mvl/mxv
 BYTE   N52  Cn4  v084
 BYTE   W01
 BYTE   VOL   78*FE04ArmyofVerdaneRemixPandan_mvl/mxv
 BYTE   W02
 BYTE   Gn4
 BYTE   W02
 BYTE   Gs4
 BYTE   W02
 BYTE   Gs4
 BYTE   W02
 BYTE   An4
 BYTE   W02
 BYTE   As4
 BYTE   W02
 BYTE   As4
 BYTE   W02
 BYTE   Bn4
 BYTE   W02
 BYTE   Cn5
 BYTE   W02
 BYTE   Cs5
 BYTE   W40
 BYTE   W01
 BYTE   N05  Fn4  v064
 BYTE   W12
 BYTE   Gn4  v060
 BYTE   W12
// 006   ----------------------------------------
 BYTE   N10  Gs4  v076
 BYTE   W24
 BYTE   N04  Fn4  v084
 BYTE   W12
 BYTE   En4
 BYTE   W12
 BYTE   N17  Fn4  v088
 BYTE   W24
 BYTE   N05  Cn4  v084
 BYTE   W12
 BYTE   N04  Dn4
 BYTE   W12
// 007   ----------------------------------------
 BYTE   N10  Ds4  v072
 BYTE   W24
 BYTE   N03  Cn4  v084
 BYTE   W12
 BYTE   N02  Bn3
 BYTE   W12
 BYTE   N23  Cn4
 BYTE   W24
 BYTE   N05  Gs3  v064
 BYTE   W12
 BYTE   N04  As3  v072
 BYTE   W12
// 008   ----------------------------------------
 BYTE   N11  Cn4  v064
 BYTE   W12
 BYTE   N03  Dn4
 BYTE   W12
 BYTE   N11  As3  v072
 BYTE   W12
 BYTE   N52  As3  v080
 BYTE   W60
// 009   ----------------------------------------
 BYTE   W72
 BYTE   N05  Fn4  v072
 BYTE   W12
 BYTE   Gn4  v064
 BYTE   W12
// 010   ----------------------------------------
 BYTE   N10  Gs4  v084
 BYTE   W24
 BYTE   N04  Fn4
 BYTE   W12
 BYTE   En4
 BYTE   W12
 BYTE   N17  Fn4
 BYTE   W24
 BYTE   N05  Cn4
 BYTE   W12
 BYTE   N04  Dn4
 BYTE   W12
// 011   ----------------------------------------
 BYTE   N10  Ds4  v072
 BYTE   W24
 BYTE   N04  Cn4  v084
 BYTE   W12
 BYTE   Bn3
 BYTE   W12
 BYTE   N22  Cn4
 BYTE   W24
 BYTE   N05  Gs3  v064
 BYTE   W12
 BYTE   N04  As3  v072
 BYTE   W12
// 012   ----------------------------------------
 BYTE   N11  Cn4  v064
 BYTE   W12
 BYTE   N04  Dn4
 BYTE   W12
 BYTE   N11  As3  v072
 BYTE   W12
 BYTE   VOL   76*FE04ArmyofVerdaneRemixPandan_mvl/mxv
 BYTE   N52  As3  v076
 BYTE   W01
 BYTE   VOL   77*FE04ArmyofVerdaneRemixPandan_mvl/mxv
 BYTE   W02
 BYTE   Fs4
 BYTE   W02
 BYTE   Fs4
 BYTE   W02
 BYTE   Gn4
 BYTE   W02
 BYTE   Gs4
 BYTE   W02
 BYTE   Gs4
 BYTE   W03
 BYTE   An4
 BYTE   W02
 BYTE   As4
 BYTE   W02
 BYTE   As4
 BYTE   W02
 BYTE   Bn4
 BYTE   W02
 BYTE   Cn5
 BYTE   W02
 BYTE   Cs5
 BYTE   W36
// 013   ----------------------------------------
 BYTE   W96
// 014   ----------------------------------------
 BYTE   PAN   c_v+25
 BYTE   W24
 BYTE   N24  Dn3  v064
 BYTE   W36
 BYTE   N15  Ds3
 BYTE   W24
 BYTE   N02  Fn3  v072
 BYTE   W12
// 015   ----------------------------------------
 BYTE   N16  Dn3
 BYTE   W24
 BYTE   N20  Ds3  v084
 BYTE   W24
 BYTE   N09  Ds4
 BYTE   W24
 BYTE   N16  Cn4  v076
 BYTE   W24
// 016   ----------------------------------------
 BYTE   W24
 BYTE   N24  Dn3  v064
 BYTE   W36
 BYTE   N15  Ds3
 BYTE   W24
 BYTE   N03  Fn3  v072
 BYTE   W12
// 017   ----------------------------------------
 BYTE   N16  Dn3
 BYTE   W24
 BYTE   N20  Ds3  v084
 BYTE   W24
 BYTE   N04  Cn4  v076
 BYTE   W12
 BYTE   N04
 BYTE   W12
 BYTE   N19  Ds4
 BYTE   W24
// 018   ----------------------------------------
 BYTE   W96
// 019   ----------------------------------------
 BYTE   N10  Ds4  v072
 BYTE   W12
 BYTE   N05  Fn4  v064
 BYTE   W06
 BYTE   Ds4  v060
 BYTE   W06
 BYTE   N04  Dn4  v084
 BYTE   W12
 BYTE   N02  Cn4
 BYTE   W12
 BYTE   N23  Dn4  v072
 BYTE   W48
// 020   ----------------------------------------
 BYTE   N11  As3
 BYTE   W12
 BYTE   N05  Cn4  v064
 BYTE   W06
 BYTE   As3  v060
 BYTE   W06
 BYTE   N04  Gs3  v064
 BYTE   W12
 BYTE   N03  Gn3  v072
 BYTE   W12
 BYTE   N20  Fn3
 BYTE   W24
 BYTE   Ds3
 BYTE   W24
// 021   ----------------------------------------
 BYTE   W96
// 022   ----------------------------------------
 BYTE   N22  Fn3
 BYTE   W24
 BYTE   N05  Gn3
 BYTE   W12
 BYTE   N04  Gs3  v064
 BYTE   W12
 BYTE   N19  Gn3  v072
 BYTE   W24
 BYTE   VOL   78*FE04ArmyofVerdaneRemixPandan_mvl/mxv
 BYTE   N28  Cn4  v068
 BYTE   W01
 BYTE   VOL   78*FE04ArmyofVerdaneRemixPandan_mvl/mxv
 BYTE   W02
 BYTE   Gn4
 BYTE   W02
 BYTE   Gs4
 BYTE   W02
 BYTE   Gs4
 BYTE   W02
 BYTE   An4
 BYTE   W02
 BYTE   As4
 BYTE   W02
 BYTE   As4
 BYTE   W02
 BYTE   Bn4
 BYTE   W02
 BYTE   Cn5
 BYTE   W02
 BYTE   Cs5
 BYTE   W05
// 023   ----------------------------------------
 BYTE   W12
 BYTE   N04  Cn4  v064
 BYTE   W12
 BYTE   Cn4  v072
 BYTE   W12
 BYTE   Cn4  v064
 BYTE   W12
 BYTE   N20  Cn4  v072
 BYTE   W24
 BYTE   N19  Cn4  v084
 BYTE   W24
// 024   ----------------------------------------
 BYTE   N22  Cn4  v060
 BYTE   W24
 BYTE   N16  Cs4  v072
 BYTE   W18
 BYTE   Ds4
 BYTE   W18
 BYTE   N03  Cs4  v064
 BYTE   W12
 BYTE   Cn4  v072
 BYTE   W12
 BYTE   As3  v064
 BYTE   W12
// 025   ----------------------------------------
 BYTE   N16  Gs3  v060
 BYTE   W24
 BYTE   N15  As3  v068
 BYTE   W18
 BYTE   VOL   72*FE04ArmyofVerdaneRemixPandan_mvl/mxv
 BYTE   N48  Gn3  v080
 BYTE   W01
 BYTE   VOL   72*FE04ArmyofVerdaneRemixPandan_mvl/mxv
 BYTE   W01
 BYTE   Cs4
 BYTE   W01
 BYTE   Dn4
 BYTE   W01
 BYTE   Dn4
 BYTE   W01
 BYTE   Ds4
 BYTE   W01
 BYTE   En4
 BYTE   W01
 BYTE   En4
 BYTE   W01
 BYTE   Fn4
 BYTE   W01
 BYTE   Fs4
 BYTE   W01
 BYTE   Fs4
 BYTE   W01
 BYTE   Gn4
 BYTE   W01
 BYTE   Gs4
 BYTE   W01
 BYTE   Gs4
 BYTE   W01
 BYTE   An4
 BYTE   W01
 BYTE   As4
 BYTE   W01
 BYTE   As4
 BYTE   W01
 BYTE   Bn4
 BYTE   W01
 BYTE   Cn5
 BYTE   W01
 BYTE   Cs5
 BYTE   W32
 BYTE   W02
 BYTE   GoTo
  POIN2 Label_4_01436078
 BYTE   FINE

//**************** Track 6 (Midi-Chn.5) ****************//

FE04ArmyofVerdaneRemixPandan_006:
// 000   ----------------------------------------
 BYTE   KEYSH   FE04ArmyofVerdaneRemixPandan_key+0
 BYTE   VOICE   52
 BYTE   VOL   85*FE04ArmyofVerdaneRemixPandan_mvl/mxv
 BYTE   PAN   c_v+14
 BYTE   N40  Fn1  v084
 BYTE   W48
 BYTE   N19
 BYTE   W24
 BYTE   N15  Fn1  v072
 BYTE   W24
// 001   ----------------------------------------
 BYTE   N36  Fn1  v084
 BYTE   W48
 BYTE   N19  Fn1  v092
 BYTE   W24
 BYTE   N15  Fn1  v084
 BYTE   W24
// 002   ----------------------------------------
Label_5_014362A6:
 BYTE   N36  Fn1  v084
 BYTE   W48
 BYTE   N17
 BYTE   W24
 BYTE   N14  Fn1  v072
 BYTE   W24
// 003   ----------------------------------------
Label_5_014362B0:
 BYTE   N32  Fn1  v084
 BYTE   W48
 BYTE   N17  Fn1  v092
 BYTE   W24
 BYTE   N14  Fn1  v084
 BYTE   W24
 BYTE   PEND 
// 004   ----------------------------------------
Label_5_014362BD:
 BYTE   N36  As1  v092
 BYTE   W48
 BYTE   N17  As1  v072
 BYTE   W24
 BYTE   N14
 BYTE   W24
 BYTE   PEND 
// 005   ----------------------------------------
Label_5_014362C8:
 BYTE   N32  As1  v072
 BYTE   W48
 BYTE   N17
 BYTE   W24
 BYTE   N14  As1  v084
 BYTE   W24
 BYTE   PEND 
// 006   ----------------------------------------
Label_5_014362D3:
 BYTE   N36  Fn1  v084
 BYTE   W48
 BYTE   N17
 BYTE   W24
 BYTE   N14  Fn1  v072
 BYTE   W24
 BYTE   PEND 
 BYTE   PATT
  POIN2 Label_5_014362B0
 BYTE   PATT
  POIN2 Label_5_014362BD
 BYTE   PATT
  POIN2 Label_5_014362C8
 BYTE   PATT
  POIN2 Label_5_014362D3
 BYTE   PATT
  POIN2 Label_5_014362B0
 BYTE   PATT
  POIN2 Label_5_014362BD
 BYTE   PATT
  POIN2 Label_5_014362C8
// 007   ----------------------------------------
Label_5_01436301:
 BYTE   N04  Fn1  v072
 BYTE   W12
 BYTE   N01  Fn1  v076
 BYTE   W12
 BYTE   TIE
 BYTE   W72
 BYTE   PEND 
// 008   ----------------------------------------
 BYTE   W68
 BYTE   W03
 BYTE   EOT
 BYTE   W24
 BYTE   W01
 BYTE   PATT
  POIN2 Label_5_01436301
// 009   ----------------------------------------
 BYTE   W68
 BYTE   W03
 BYTE   EOT
 BYTE   Fn1
 BYTE   W24
 BYTE   W01
// 010   ----------------------------------------
Label_5_0143631C:
 BYTE   N32  Cn1  v092
 BYTE   W48
 BYTE   N16  Cn1  v072
 BYTE   W24
 BYTE   N14
 BYTE   W24
 BYTE   PEND 
// 011   ----------------------------------------
 BYTE   N32
 BYTE   W48
 BYTE   N17
 BYTE   W24
 BYTE   Cn1  v092
 BYTE   W24
 BYTE   PATT
  POIN2 Label_5_0143631C
// 012   ----------------------------------------
Label_5_01436333:
 BYTE   N32  Cn1  v072
 BYTE   W48
 BYTE   N17
 BYTE   W24
 BYTE   N19  Cn1  v092
 BYTE   W24
 BYTE   PEND 
 BYTE   PATT
  POIN2 Label_5_0143631C
 BYTE   PATT
  POIN2 Label_5_01436333
 BYTE   PATT
  POIN2 Label_5_0143631C
// 013   ----------------------------------------
 BYTE   N32  Cn1  v072
 BYTE   W48
 BYTE   N17
 BYTE   W24
 BYTE   N20  Cn1  v096
 BYTE   W23
 BYTE   GoTo
  POIN2 Label_5_014362A6
 BYTE   FINE

//**************** Track 7 (Midi-Chn.6) ****************//

FE04ArmyofVerdaneRemixPandan_007:
// 000   ----------------------------------------
 BYTE   VOL   85*FE04ArmyofVerdaneRemixPandan_mvl/mxv
 BYTE   KEYSH   FE04ArmyofVerdaneRemixPandan_key+0
 BYTE   VOICE   127
 BYTE   N11  Cn2  v096
 BYTE   W12
 BYTE   N11
 BYTE   W12
 BYTE   N17  Cs2  v104
 BYTE   W18
 BYTE   N11  Cn2  v064
 BYTE   W12
 BYTE   N11
 BYTE   W12
 BYTE   N05  Cn2  v084
 BYTE   W06
 BYTE   N11  Cs2  v108
 BYTE   W12
 BYTE   Cn2  v076
 BYTE   W12
// 001   ----------------------------------------
 BYTE   Cn2  v096
 BYTE   W12
 BYTE   N11
 BYTE   W12
 BYTE   N17  Cs2  v104
 BYTE   W18
 BYTE   N11  Cn2  v064
 BYTE   W12
 BYTE   N11
 BYTE   W12
 BYTE   N05  Cn2  v084
 BYTE   W06
 BYTE   N11  Cs2  v108
 BYTE   W12
 BYTE   N05  Cn2  v076
 BYTE   W06
 BYTE   Dn2
 BYTE   W06
// 002   ----------------------------------------
Label_6_0143639E:
 BYTE   N11  Cn2  v096
 BYTE   W12
 BYTE   N11
 BYTE   W12
 BYTE   N17  Cs2  v104
 BYTE   W18
 BYTE   N11  Cn2  v064
 BYTE   W12
 BYTE   N11
 BYTE   W12
 BYTE   N05  Cn2  v084
 BYTE   W06
 BYTE   N11  Cs2  v108
 BYTE   W12
 BYTE   Cn2  v076
 BYTE   W12
 BYTE   PEND 
// 003   ----------------------------------------
Label_6_014363BA:
 BYTE   N11  Cn2  v096
 BYTE   W12
 BYTE   N11
 BYTE   W12
 BYTE   N17  Cs2  v104
 BYTE   W18
 BYTE   N11  Cn2  v064
 BYTE   W12
 BYTE   N11
 BYTE   W12
 BYTE   N05  Cn2  v084
 BYTE   W06
 BYTE   N11  Cs2  v108
 BYTE   W12
 BYTE   N05  Cn2  v076
 BYTE   W06
 BYTE   Ds2
 BYTE   W06
 BYTE   PEND 
// 004   ----------------------------------------
Label_6_014363D9:
 BYTE   N11  Cn2  v096
 BYTE   W12
 BYTE   N11
 BYTE   W12
 BYTE   N17  Cs2  v108
 BYTE   W18
 BYTE   N11  Cn2  v064
 BYTE   W12
 BYTE   N11
 BYTE   W12
 BYTE   N05  Cn2  v084
 BYTE   W06
 BYTE   N11  Cs2  v100
 BYTE   W12
 BYTE   Cn2  v076
 BYTE   W12
 BYTE   PEND 
// 005   ----------------------------------------
Label_6_014363F5:
 BYTE   N11  Cn2  v096
 BYTE   W12
 BYTE   N11
 BYTE   W12
 BYTE   N17  Cs2  v108
 BYTE   W18
 BYTE   N11  Cn2  v064
 BYTE   W12
 BYTE   N11
 BYTE   W12
 BYTE   N05  Cn2  v084
 BYTE   W06
 BYTE   N11  Cs2  v112
 BYTE   W12
 BYTE   N05  Cn2  v076
 BYTE   W06
 BYTE   Dn2
 BYTE   W06
 BYTE   PEND 
 BYTE   PATT
  POIN2 Label_6_0143639E
 BYTE   PATT
  POIN2 Label_6_014363BA
 BYTE   PATT
  POIN2 Label_6_014363D9
 BYTE   PATT
  POIN2 Label_6_014363F5
 BYTE   PATT
  POIN2 Label_6_0143639E
 BYTE   PATT
  POIN2 Label_6_014363BA
 BYTE   PATT
  POIN2 Label_6_014363D9
 BYTE   PATT
  POIN2 Label_6_014363F5
 BYTE   PATT
  POIN2 Label_6_0143639E
 BYTE   PATT
  POIN2 Label_6_014363BA
 BYTE   PATT
  POIN2 Label_6_014363D9
 BYTE   PATT
  POIN2 Label_6_014363F5
 BYTE   PATT
  POIN2 Label_6_0143639E
 BYTE   PATT
  POIN2 Label_6_014363BA
 BYTE   PATT
  POIN2 Label_6_014363D9
 BYTE   PATT
  POIN2 Label_6_014363F5
 BYTE   PATT
  POIN2 Label_6_0143639E
 BYTE   PATT
  POIN2 Label_6_014363BA
 BYTE   PATT
  POIN2 Label_6_014363D9
// 006   ----------------------------------------
 BYTE   N11  Cn2  v096
 BYTE   W12
 BYTE   N11
 BYTE   W12
 BYTE   N17  Cs2  v100
 BYTE   W18
 BYTE   N11  Cn2  v064
 BYTE   W12
 BYTE   N11
 BYTE   W12
 BYTE   N05  Cn2  v084
 BYTE   W06
 BYTE   N11  Cs2  v116
 BYTE   W12
 BYTE   N05  Cn2  v076
 BYTE   W06
 BYTE   Dn2
 BYTE   W05
 BYTE   GoTo
  POIN2 Label_6_0143639E
 BYTE   FINE

//******************************************************//
	ALIGN 4

FE04ArmyofVerdaneRemixPandan:
	BYTE	7	// NumTrks
	BYTE	0	// NumBlks
	BYTE	FE04ArmyofVerdaneRemixPandan_pri	// Priority
	BYTE	FE04ArmyofVerdaneRemixPandan_rev	// Reverb.
    
	POIN2	FE04ArmyofVerdaneRemixPandan_grp
    
	POIN2	FE04ArmyofVerdaneRemixPandan_001
	POIN2	FE04ArmyofVerdaneRemixPandan_002
	POIN2	FE04ArmyofVerdaneRemixPandan_003
	POIN2	FE04ArmyofVerdaneRemixPandan_004
	POIN2	FE04ArmyofVerdaneRemixPandan_005
	POIN2	FE04ArmyofVerdaneRemixPandan_006
	POIN2	FE04ArmyofVerdaneRemixPandan_007

	
