//Event file generated from Sappy .s format.
	#include "MPlayDef.event"

	#define	FE04VsArvisSaXortheNobody_grp  voicegroup000
	#define	FE04VsArvisSaXortheNobody_pri  0
	#define	FE04VsArvisSaXortheNobody_rev  0
	#define	FE04VsArvisSaXortheNobody_mvl  127
	#define	FE04VsArvisSaXortheNobody_key  0
	#define	FE04VsArvisSaXortheNobody_tbs  1
	#define	FE04VsArvisSaXortheNobody_exg  0
	#define	FE04VsArvisSaXortheNobody_cmp  1

	// .rodata
	//	FE04VsArvisSaXortheNobody
	ALIGN 4

//**************** Track 1 (Midi-Chn.1) ****************//

FE04VsArvisSaXortheNobody_1:
	BYTE	KEYSH   FE04VsArvisSaXortheNobody_key+0
// 000   ----------------------------------------
	BYTE	TEMPO   120*FE04VsArvisSaXortheNobody_tbs/2
	BYTE		VOICE   19
	BYTE		VOL     51*FE04VsArvisSaXortheNobody_mvl/mxv
	BYTE		N24     As2   v072
	BYTE		N24     Gn3   v100
	BYTE	W24
	BYTE		N12     Cn3   v072
	BYTE		N01     Gn3   v056
	BYTE		N12     An3   v100
	BYTE	W12
	BYTE		        Dn3   v072
	BYTE		N12     As3   v100
	BYTE	W12
	BYTE		        Cn3   v072
	BYTE		N12     An3   v100
	BYTE		N01     As3   v056
	BYTE	W12
	BYTE		        An3 
	BYTE	W12
	BYTE		N12     An2   v072
	BYTE		N12     Fs3   v100
	BYTE	W12
	BYTE		N01     Fs3   v056
	BYTE	W12
// 001   ----------------------------------------
	BYTE	TEMPO   150*FE04VsArvisSaXortheNobody_tbs/2
	BYTE		N48     Gn3   v100
	BYTE		N72     Cn4 
	BYTE	W48
	BYTE		N48     Fs3 
	BYTE	W48
FE04VsArvisSaXortheNobody_1_B1:
// 002   ----------------------------------------
FE04VsArvisSaXortheNobody_1_002:
	BYTE		N96     Dn2   v056
	BYTE		N96     Dn3   v080
	BYTE	W96
	BYTE	PEND
// 003   ----------------------------------------
	BYTE		        Ds2   v056
	BYTE		N96     Ds3   v080
	BYTE	W96
// 004   ----------------------------------------
FE04VsArvisSaXortheNobody_1_004:
	BYTE		TIE     Dn2   v056
	BYTE		TIE     Dn3   v080
	BYTE	W96
	BYTE	PEND
// 005   ----------------------------------------
	BYTE	W96
	BYTE		EOT     Dn2 
	BYTE		        Dn3 
// 006   ----------------------------------------
	BYTE	PATT
	 POIN2	FE04VsArvisSaXortheNobody_1_002
// 007   ----------------------------------------
	BYTE		N96     Fn2   v056
	BYTE		N96     Fn3   v080
	BYTE	W96
// 008   ----------------------------------------
	BYTE	PATT
	 POIN2	FE04VsArvisSaXortheNobody_1_004
// 009   ----------------------------------------
	BYTE	W96
	BYTE		EOT     Dn2 
	BYTE		        Dn3 
// 010   ----------------------------------------
	BYTE	W96
// 011   ----------------------------------------
	BYTE	W96
// 012   ----------------------------------------
	BYTE	W96
// 013   ----------------------------------------
	BYTE	W96
// 014   ----------------------------------------
	BYTE	W96
// 015   ----------------------------------------
	BYTE	W96
// 016   ----------------------------------------
	BYTE	W96
// 017   ----------------------------------------
	BYTE	W96
// 018   ----------------------------------------
	BYTE	W96
// 019   ----------------------------------------
	BYTE	W96
// 020   ----------------------------------------
	BYTE	W96
// 021   ----------------------------------------
	BYTE	W96
// 022   ----------------------------------------
	BYTE	W96
// 023   ----------------------------------------
	BYTE	W96
// 024   ----------------------------------------
	BYTE	W96
// 025   ----------------------------------------
	BYTE	W96
	BYTE	GoTo
	 POIN2	FE04VsArvisSaXortheNobody_1_B1
FE04VsArvisSaXortheNobody_1_B2:
// 026   ----------------------------------------
FE04VsArvisSaXortheNobody_1_026:
	BYTE	W92
	BYTE	W03
	BYTE	W01
	BYTE	PEND
// 027   ----------------------------------------
	BYTE	W96
// 028   ----------------------------------------
	BYTE	W96
// 029   ----------------------------------------
	BYTE	W96
// 030   ----------------------------------------
	BYTE	W96
// 031   ----------------------------------------
	BYTE	W96
// 032   ----------------------------------------
	BYTE	W96
// 033   ----------------------------------------
	BYTE	W96
// 034   ----------------------------------------
	BYTE	W96
// 035   ----------------------------------------
	BYTE	W96
// 036   ----------------------------------------
	BYTE	W96
// 037   ----------------------------------------
	BYTE	W96
// 038   ----------------------------------------
	BYTE	W96
// 039   ----------------------------------------
	BYTE	W96
// 040   ----------------------------------------
	BYTE	W96
// 041   ----------------------------------------
	BYTE	W96
// 042   ----------------------------------------
	BYTE	W96
// 043   ----------------------------------------
	BYTE	W96
// 044   ----------------------------------------
	BYTE	W96
// 045   ----------------------------------------
	BYTE	W96
// 046   ----------------------------------------
	BYTE	W96
// 047   ----------------------------------------
	BYTE	W96
// 048   ----------------------------------------
	BYTE	W96
// 049   ----------------------------------------
	BYTE	W96
// 050   ----------------------------------------
	BYTE	W96
// 051   ----------------------------------------
	BYTE	W96
// 052   ----------------------------------------
	BYTE	W96
// 053   ----------------------------------------
	BYTE	PATT
	 POIN2	FE04VsArvisSaXortheNobody_1_026
// 054   ----------------------------------------
	BYTE	W96
// 055   ----------------------------------------
	BYTE	W96
// 056   ----------------------------------------
	BYTE	W96
// 057   ----------------------------------------
	BYTE	W96
// 058   ----------------------------------------
	BYTE	W96
// 059   ----------------------------------------
	BYTE	W96
// 060   ----------------------------------------
	BYTE	W96
// 061   ----------------------------------------
	BYTE	W96
// 062   ----------------------------------------
	BYTE	W96
// 063   ----------------------------------------
	BYTE	W96
// 064   ----------------------------------------
	BYTE	W96
// 065   ----------------------------------------
	BYTE	W96
// 066   ----------------------------------------
	BYTE	W96
// 067   ----------------------------------------
	BYTE	W96
// 068   ----------------------------------------
	BYTE	W96
// 069   ----------------------------------------
	BYTE	W96
// 070   ----------------------------------------
	BYTE	W96
// 071   ----------------------------------------
	BYTE	W96
// 072   ----------------------------------------
	BYTE	W96
// 073   ----------------------------------------
	BYTE	W96
// 074   ----------------------------------------
	BYTE	W96
// 075   ----------------------------------------
	BYTE	W96
// 076   ----------------------------------------
	BYTE	W96
// 077   ----------------------------------------
	BYTE	W96
// 078   ----------------------------------------
	BYTE	W96
// 079   ----------------------------------------
	BYTE	W96
// 080   ----------------------------------------
	BYTE	PATT
	 POIN2	FE04VsArvisSaXortheNobody_1_026
// 081   ----------------------------------------
	BYTE	W96
// 082   ----------------------------------------
	BYTE	W96
// 083   ----------------------------------------
	BYTE	W96
// 084   ----------------------------------------
	BYTE	W96
// 085   ----------------------------------------
	BYTE	W96
// 086   ----------------------------------------
	BYTE	W96
// 087   ----------------------------------------
	BYTE	W96
// 088   ----------------------------------------
	BYTE	W96
// 089   ----------------------------------------
	BYTE	W96
// 090   ----------------------------------------
	BYTE	W96
// 091   ----------------------------------------
	BYTE	W96
// 092   ----------------------------------------
	BYTE	W96
// 093   ----------------------------------------
	BYTE	W96
// 094   ----------------------------------------
	BYTE	W96
// 095   ----------------------------------------
	BYTE	W96
// 096   ----------------------------------------
	BYTE	W96
// 097   ----------------------------------------
	BYTE	W96
// 098   ----------------------------------------
	BYTE	W96
// 099   ----------------------------------------
	BYTE	W96
// 100   ----------------------------------------
	BYTE	W96
// 101   ----------------------------------------
	BYTE	W96
// 102   ----------------------------------------
	BYTE	W96
// 103   ----------------------------------------
	BYTE	W96
// 104   ----------------------------------------
	BYTE	W96
// 105   ----------------------------------------
	BYTE	W96
// 106   ----------------------------------------
	BYTE	W96
// 107   ----------------------------------------
	BYTE	PATT
	 POIN2	FE04VsArvisSaXortheNobody_1_026
// 108   ----------------------------------------
	BYTE	W96
// 109   ----------------------------------------
	BYTE	W96
// 110   ----------------------------------------
	BYTE	W96
// 111   ----------------------------------------
	BYTE	W96
// 112   ----------------------------------------
	BYTE	W96
// 113   ----------------------------------------
	BYTE	W96
// 114   ----------------------------------------
	BYTE	W96
// 115   ----------------------------------------
	BYTE	W96
// 116   ----------------------------------------
	BYTE	W96
// 117   ----------------------------------------
	BYTE	W96
// 118   ----------------------------------------
	BYTE	W96
// 119   ----------------------------------------
	BYTE	W96
// 120   ----------------------------------------
	BYTE	W96
// 121   ----------------------------------------
	BYTE	W96
// 122   ----------------------------------------
	BYTE	W96
// 123   ----------------------------------------
	BYTE	W96
// 124   ----------------------------------------
	BYTE	W96
// 125   ----------------------------------------
	BYTE	W96
// 126   ----------------------------------------
	BYTE	W96
// 127   ----------------------------------------
	BYTE	W96
// 128   ----------------------------------------
	BYTE	W96
// 129   ----------------------------------------
	BYTE	W96
// 130   ----------------------------------------
	BYTE	W96
// 131   ----------------------------------------
	BYTE	W96
// 132   ----------------------------------------
	BYTE	W96
// 133   ----------------------------------------
	BYTE	W96
// 134   ----------------------------------------
	BYTE	PATT
	 POIN2	FE04VsArvisSaXortheNobody_1_026
// 135   ----------------------------------------
	BYTE	W96
// 136   ----------------------------------------
	BYTE	W96
// 137   ----------------------------------------
	BYTE	W96
// 138   ----------------------------------------
	BYTE	W96
// 139   ----------------------------------------
	BYTE	W96
// 140   ----------------------------------------
	BYTE	W96
// 141   ----------------------------------------
	BYTE	W96
// 142   ----------------------------------------
	BYTE	W96
// 143   ----------------------------------------
	BYTE	W96
// 144   ----------------------------------------
	BYTE	W96
// 145   ----------------------------------------
	BYTE	W96
// 146   ----------------------------------------
	BYTE	W96
// 147   ----------------------------------------
	BYTE	W96
// 148   ----------------------------------------
	BYTE	W96
// 149   ----------------------------------------
	BYTE	W96
// 150   ----------------------------------------
	BYTE	W96
// 151   ----------------------------------------
	BYTE	W96
// 152   ----------------------------------------
	BYTE	W96
// 153   ----------------------------------------
	BYTE	W96
// 154   ----------------------------------------
	BYTE	W96
// 155   ----------------------------------------
	BYTE	W96
// 156   ----------------------------------------
	BYTE	W96
// 157   ----------------------------------------
	BYTE	W96
// 158   ----------------------------------------
	BYTE	W96
// 159   ----------------------------------------
	BYTE	W96
// 160   ----------------------------------------
	BYTE	W96
// 161   ----------------------------------------
FE04VsArvisSaXortheNobody_1_161:
	BYTE	W92
	BYTE	W02
	BYTE	W02
	BYTE	PEND
// 162   ----------------------------------------
	BYTE	W96
// 163   ----------------------------------------
	BYTE	W96
// 164   ----------------------------------------
	BYTE	W96
// 165   ----------------------------------------
	BYTE	W96
// 166   ----------------------------------------
	BYTE	W96
// 167   ----------------------------------------
	BYTE	W96
// 168   ----------------------------------------
	BYTE	W96
// 169   ----------------------------------------
	BYTE	W96
// 170   ----------------------------------------
	BYTE	W96
// 171   ----------------------------------------
	BYTE	W96
// 172   ----------------------------------------
	BYTE	W96
// 173   ----------------------------------------
	BYTE	W96
// 174   ----------------------------------------
	BYTE	W96
// 175   ----------------------------------------
	BYTE	W96
// 176   ----------------------------------------
	BYTE	W96
// 177   ----------------------------------------
	BYTE	W96
// 178   ----------------------------------------
	BYTE	W96
// 179   ----------------------------------------
	BYTE	W96
// 180   ----------------------------------------
	BYTE	W96
// 181   ----------------------------------------
	BYTE	W96
// 182   ----------------------------------------
	BYTE	W96
// 183   ----------------------------------------
	BYTE	W96
// 184   ----------------------------------------
	BYTE	W96
// 185   ----------------------------------------
	BYTE	W96
// 186   ----------------------------------------
	BYTE	W96
// 187   ----------------------------------------
	BYTE	W96
// 188   ----------------------------------------
	BYTE	PATT
	 POIN2	FE04VsArvisSaXortheNobody_1_161
// 189   ----------------------------------------
	BYTE	W96
// 190   ----------------------------------------
	BYTE	W96
// 191   ----------------------------------------
	BYTE	W96
// 192   ----------------------------------------
	BYTE	W96
// 193   ----------------------------------------
	BYTE	W96
// 194   ----------------------------------------
	BYTE	W96
// 195   ----------------------------------------
	BYTE	W96
// 196   ----------------------------------------
	BYTE	W96
// 197   ----------------------------------------
	BYTE	W96
// 198   ----------------------------------------
	BYTE	W96
// 199   ----------------------------------------
	BYTE	W96
// 200   ----------------------------------------
	BYTE	W96
// 201   ----------------------------------------
	BYTE	W96
// 202   ----------------------------------------
	BYTE	W96
// 203   ----------------------------------------
	BYTE	W96
// 204   ----------------------------------------
	BYTE	W96
// 205   ----------------------------------------
	BYTE	W96
// 206   ----------------------------------------
	BYTE	W96
// 207   ----------------------------------------
	BYTE	W96
// 208   ----------------------------------------
	BYTE	W96
// 209   ----------------------------------------
	BYTE	W96
// 210   ----------------------------------------
	BYTE	W96
// 211   ----------------------------------------
	BYTE	W96
// 212   ----------------------------------------
	BYTE	W96
// 213   ----------------------------------------
	BYTE	W96
// 214   ----------------------------------------
	BYTE	W96
// 215   ----------------------------------------
	BYTE	PATT
	 POIN2	FE04VsArvisSaXortheNobody_1_161
// 216   ----------------------------------------
	BYTE	W96
// 217   ----------------------------------------
	BYTE	W96
// 218   ----------------------------------------
	BYTE	W96
// 219   ----------------------------------------
	BYTE	W96
// 220   ----------------------------------------
	BYTE	W96
// 221   ----------------------------------------
	BYTE	W96
// 222   ----------------------------------------
	BYTE	W96
// 223   ----------------------------------------
	BYTE	W96
// 224   ----------------------------------------
	BYTE	W96
// 225   ----------------------------------------
	BYTE	W96
// 226   ----------------------------------------
	BYTE	W96
// 227   ----------------------------------------
	BYTE	W96
// 228   ----------------------------------------
	BYTE	W96
// 229   ----------------------------------------
	BYTE	W96
// 230   ----------------------------------------
	BYTE	W96
// 231   ----------------------------------------
	BYTE	W96
// 232   ----------------------------------------
	BYTE	W96
// 233   ----------------------------------------
	BYTE	W96
// 234   ----------------------------------------
	BYTE	W96
// 235   ----------------------------------------
	BYTE	W96
// 236   ----------------------------------------
	BYTE	W96
// 237   ----------------------------------------
	BYTE	W96
// 238   ----------------------------------------
	BYTE	W96
// 239   ----------------------------------------
	BYTE	W96
// 240   ----------------------------------------
	BYTE	W96
// 241   ----------------------------------------
	BYTE	W96
// 242   ----------------------------------------
	BYTE	PATT
	 POIN2	FE04VsArvisSaXortheNobody_1_161
// 243   ----------------------------------------
	BYTE	W96
// 244   ----------------------------------------
	BYTE	W96
// 245   ----------------------------------------
	BYTE	W96
// 246   ----------------------------------------
	BYTE	W96
// 247   ----------------------------------------
	BYTE	W96
// 248   ----------------------------------------
	BYTE	W96
// 249   ----------------------------------------
	BYTE	W96
// 250   ----------------------------------------
	BYTE	W96
// 251   ----------------------------------------
	BYTE	W96
// 252   ----------------------------------------
	BYTE	W96
// 253   ----------------------------------------
	BYTE	W96
// 254   ----------------------------------------
	BYTE	W96
// 255   ----------------------------------------
	BYTE	W96
// 256   ----------------------------------------
	BYTE	W96
// 257   ----------------------------------------
	BYTE	W96
// 258   ----------------------------------------
	BYTE	W96
// 259   ----------------------------------------
	BYTE	W96
// 260   ----------------------------------------
	BYTE	W96
// 261   ----------------------------------------
	BYTE	W96
// 262   ----------------------------------------
	BYTE	W96
// 263   ----------------------------------------
	BYTE	W96
// 264   ----------------------------------------
	BYTE	W96
// 265   ----------------------------------------
	BYTE	W96
// 266   ----------------------------------------
	BYTE	W96
// 267   ----------------------------------------
	BYTE	W96
// 268   ----------------------------------------
	BYTE	W96
// 269   ----------------------------------------
	BYTE	PATT
	 POIN2	FE04VsArvisSaXortheNobody_1_161
// 270   ----------------------------------------
	BYTE	W96
// 271   ----------------------------------------
	BYTE	W96
// 272   ----------------------------------------
	BYTE	W96
// 273   ----------------------------------------
	BYTE	W96
// 274   ----------------------------------------
	BYTE	W96
// 275   ----------------------------------------
	BYTE	W96
// 276   ----------------------------------------
	BYTE	W96
// 277   ----------------------------------------
	BYTE	W96
// 278   ----------------------------------------
	BYTE	W96
// 279   ----------------------------------------
	BYTE	W96
// 280   ----------------------------------------
	BYTE	W96
// 281   ----------------------------------------
	BYTE	W96
// 282   ----------------------------------------
	BYTE	W96
// 283   ----------------------------------------
	BYTE	W96
// 284   ----------------------------------------
	BYTE	W96
// 285   ----------------------------------------
	BYTE	W96
// 286   ----------------------------------------
	BYTE	W96
// 287   ----------------------------------------
	BYTE	W96
// 288   ----------------------------------------
	BYTE	W96
// 289   ----------------------------------------
	BYTE	W96
// 290   ----------------------------------------
	BYTE	W96
// 291   ----------------------------------------
	BYTE	W96
// 292   ----------------------------------------
	BYTE	W96
// 293   ----------------------------------------
	BYTE	W96
// 294   ----------------------------------------
	BYTE	W96
// 295   ----------------------------------------
	BYTE	W96
// 296   ----------------------------------------
	BYTE	W92
	BYTE	W01
	BYTE	W03
// 297   ----------------------------------------
	BYTE	W96
// 298   ----------------------------------------
	BYTE	W96
// 299   ----------------------------------------
	BYTE	W96
// 300   ----------------------------------------
	BYTE	W96
// 301   ----------------------------------------
	BYTE	W96
// 302   ----------------------------------------
	BYTE	W96
// 303   ----------------------------------------
	BYTE	W96
// 304   ----------------------------------------
	BYTE	W96
// 305   ----------------------------------------
	BYTE	W96
// 306   ----------------------------------------
	BYTE	W96
// 307   ----------------------------------------
	BYTE	W96
// 308   ----------------------------------------
	BYTE	W96
// 309   ----------------------------------------
	BYTE	W96
// 310   ----------------------------------------
	BYTE	W96
// 311   ----------------------------------------
	BYTE	W96
// 312   ----------------------------------------
	BYTE	W96
// 313   ----------------------------------------
	BYTE	W96
// 314   ----------------------------------------
	BYTE	W96
// 315   ----------------------------------------
	BYTE	W96
// 316   ----------------------------------------
	BYTE	W96
// 317   ----------------------------------------
	BYTE	W96
// 318   ----------------------------------------
	BYTE	W96
// 319   ----------------------------------------
	BYTE	W96
// 320   ----------------------------------------
	BYTE	W96
// 321   ----------------------------------------
	BYTE	W96
// 322   ----------------------------------------
	BYTE	W96
// 323   ----------------------------------------
	BYTE	W92
	BYTE	W01
	BYTE	FINE

//**************** Track 2 (Midi-Chn.2) ****************//

FE04VsArvisSaXortheNobody_2:
	BYTE	KEYSH   FE04VsArvisSaXortheNobody_key+0
// 000   ----------------------------------------
	BYTE		VOICE   31
	BYTE		PAN     c_v-26
	BYTE		VOL     51*FE04VsArvisSaXortheNobody_mvl/mxv
	BYTE	W96
// 001   ----------------------------------------
	BYTE	W72
	BYTE		N24     Dn3   v100
	BYTE	W24
FE04VsArvisSaXortheNobody_2_B1:
// 002   ----------------------------------------
	BYTE	W96
// 003   ----------------------------------------
	BYTE	W96
// 004   ----------------------------------------
	BYTE	W96
// 005   ----------------------------------------
	BYTE	W96
// 006   ----------------------------------------
	BYTE	W96
// 007   ----------------------------------------
	BYTE	W96
// 008   ----------------------------------------
	BYTE	W96
// 009   ----------------------------------------
	BYTE	W96
// 010   ----------------------------------------
	BYTE	W96
// 011   ----------------------------------------
	BYTE	W96
// 012   ----------------------------------------
	BYTE	W96
// 013   ----------------------------------------
	BYTE	W96
// 014   ----------------------------------------
	BYTE	W96
// 015   ----------------------------------------
	BYTE	W96
// 016   ----------------------------------------
	BYTE	W96
// 017   ----------------------------------------
	BYTE	W96
// 018   ----------------------------------------
	BYTE	W96
// 019   ----------------------------------------
	BYTE	W96
// 020   ----------------------------------------
	BYTE	W96
// 021   ----------------------------------------
	BYTE	W96
// 022   ----------------------------------------
	BYTE	W96
// 023   ----------------------------------------
	BYTE	W96
// 024   ----------------------------------------
	BYTE	W96
// 025   ----------------------------------------
	BYTE	W72
	BYTE		N36     Dn3   v100
	BYTE	W24
	BYTE	GoTo
	 POIN2	FE04VsArvisSaXortheNobody_2_B1
FE04VsArvisSaXortheNobody_2_B2:
// 026   ----------------------------------------
	BYTE	W12
	BYTE	FINE

//**************** Track 3 (Midi-Chn.3) ****************//

FE04VsArvisSaXortheNobody_3:
	BYTE	KEYSH   FE04VsArvisSaXortheNobody_key+0
// 000   ----------------------------------------
	BYTE		VOICE   30
	BYTE		PAN     c_v+26
	BYTE		VOL     51*FE04VsArvisSaXortheNobody_mvl/mxv
	BYTE		N96     Gn1   v080
	BYTE	W96
// 001   ----------------------------------------
	BYTE		N72     Gs1 
	BYTE	W96
FE04VsArvisSaXortheNobody_3_B1:
// 002   ----------------------------------------
FE04VsArvisSaXortheNobody_3_002:
	BYTE		N12     Gn1   v100
	BYTE	W18
	BYTE		N06   
	BYTE	W18
	BYTE		N12   
	BYTE	W24
	BYTE		N12   
	BYTE	W24
	BYTE		N12   
	BYTE	W12
	BYTE	PEND
// 003   ----------------------------------------
FE04VsArvisSaXortheNobody_3_003:
	BYTE		N12     Gs1   v100
	BYTE	W18
	BYTE		N06   
	BYTE	W18
	BYTE		N12   
	BYTE	W24
	BYTE		N12   
	BYTE	W24
	BYTE		N12   
	BYTE	W12
	BYTE	PEND
// 004   ----------------------------------------
	BYTE	PATT
	 POIN2	FE04VsArvisSaXortheNobody_3_002
// 005   ----------------------------------------
	BYTE	PATT
	 POIN2	FE04VsArvisSaXortheNobody_3_003
// 006   ----------------------------------------
	BYTE	PATT
	 POIN2	FE04VsArvisSaXortheNobody_3_002
// 007   ----------------------------------------
	BYTE	PATT
	 POIN2	FE04VsArvisSaXortheNobody_3_003
// 008   ----------------------------------------
	BYTE	PATT
	 POIN2	FE04VsArvisSaXortheNobody_3_002
// 009   ----------------------------------------
	BYTE		N12     Gs1   v100
	BYTE	W18
	BYTE		N06   
	BYTE	W18
	BYTE		N12   
	BYTE	W24
	BYTE		N12   
	BYTE	W24
	BYTE		N06     Gn1 
	BYTE	W06
	BYTE		N06   
	BYTE	W06
// 010   ----------------------------------------
	BYTE		TIE   
	BYTE	W96
// 011   ----------------------------------------
	BYTE	W96
	BYTE		EOT   
// 012   ----------------------------------------
	BYTE		N12     Ds2 
	BYTE	W36
	BYTE		N12   
	BYTE	W36
	BYTE		N12   
	BYTE	W24
// 013   ----------------------------------------
	BYTE	W12
	BYTE		N12   
	BYTE	W24
	BYTE		N12   
	BYTE	W36
	BYTE		N12   
	BYTE	W12
	BYTE		        Dn2 
	BYTE	W12
// 014   ----------------------------------------
	BYTE		        Cn2 
	BYTE	W36
	BYTE		N12   
	BYTE	W36
	BYTE		N12   
	BYTE	W24
// 015   ----------------------------------------
	BYTE	W12
	BYTE		N12   
	BYTE	W24
	BYTE		N12   
	BYTE	W36
	BYTE		N12   
	BYTE	W23
	BYTE		        Dn2   v080
	BYTE	W01
// 016   ----------------------------------------
	BYTE	W17
	BYTE		N06     An1 
	BYTE	W06
	BYTE		        Dn2 
	BYTE	W12
	BYTE		        An1 
	BYTE	W12
	BYTE		N01     Dn2 
	BYTE	W06
	BYTE		N12   
	BYTE	W18
	BYTE		N06   
	BYTE	W12
	BYTE		N06   
	BYTE	W12
	BYTE		N01   
	BYTE	W01
// 017   ----------------------------------------
	BYTE	W05
	BYTE		N12   
	BYTE	W18
	BYTE		N06   
	BYTE	W12
	BYTE		N06   
	BYTE	W12
	BYTE		N01   
	BYTE	W06
	BYTE		N01   
	BYTE	W06
	BYTE		N06   
	BYTE	W12
	BYTE		N06   
	BYTE	W12
	BYTE		N12     An1 
	BYTE	W13
// 018   ----------------------------------------
	BYTE	W96
// 019   ----------------------------------------
	BYTE	W96
// 020   ----------------------------------------
	BYTE	W96
// 021   ----------------------------------------
	BYTE	W96
// 022   ----------------------------------------
	BYTE	W96
// 023   ----------------------------------------
	BYTE	W96
// 024   ----------------------------------------
	BYTE	W96
// 025   ----------------------------------------
	BYTE	W84
	BYTE		N06     Gn1   v100
	BYTE	W06
	BYTE		N01   
	BYTE	W06
	BYTE	GoTo
	 POIN2	FE04VsArvisSaXortheNobody_3_B1
FE04VsArvisSaXortheNobody_3_B2:
// 026   ----------------------------------------
	BYTE	FINE

//**************** Track 4 (Midi-Chn.4) ****************//

FE04VsArvisSaXortheNobody_4:
	BYTE	KEYSH   FE04VsArvisSaXortheNobody_key+0
// 000   ----------------------------------------
	BYTE		VOICE   36
	BYTE		PAN     c_v-26
	BYTE		VOL     51*FE04VsArvisSaXortheNobody_mvl/mxv
	BYTE		N96     Gn1   v080
	BYTE	W96
// 001   ----------------------------------------
	BYTE		N72     Gs1 
	BYTE	W96
FE04VsArvisSaXortheNobody_4_B1:
// 002   ----------------------------------------
FE04VsArvisSaXortheNobody_4_002:
	BYTE		N12     Gn1   v100
	BYTE	W18
	BYTE		N06   
	BYTE	W06
	BYTE		        Dn1 
	BYTE	W12
	BYTE		N12     Gn1 
	BYTE	W24
	BYTE		N12   
	BYTE	W12
	BYTE		        Dn1 
	BYTE	W12
	BYTE		        Gn1 
	BYTE	W12
	BYTE	PEND
// 003   ----------------------------------------
FE04VsArvisSaXortheNobody_4_003:
	BYTE		N12     Gs1   v100
	BYTE	W18
	BYTE		N06   
	BYTE	W06
	BYTE		        Ds1 
	BYTE	W12
	BYTE		N12     Gs1 
	BYTE	W24
	BYTE		N12   
	BYTE	W12
	BYTE		        Ds1 
	BYTE	W12
	BYTE		        Gs1 
	BYTE	W12
	BYTE	PEND
// 004   ----------------------------------------
	BYTE	PATT
	 POIN2	FE04VsArvisSaXortheNobody_4_002
// 005   ----------------------------------------
	BYTE	PATT
	 POIN2	FE04VsArvisSaXortheNobody_4_003
// 006   ----------------------------------------
	BYTE	PATT
	 POIN2	FE04VsArvisSaXortheNobody_4_002
// 007   ----------------------------------------
	BYTE	PATT
	 POIN2	FE04VsArvisSaXortheNobody_4_003
// 008   ----------------------------------------
	BYTE	PATT
	 POIN2	FE04VsArvisSaXortheNobody_4_002
// 009   ----------------------------------------
	BYTE	PATT
	 POIN2	FE04VsArvisSaXortheNobody_4_003
// 010   ----------------------------------------
	BYTE		N12     Gn1   v100
	BYTE	W36
	BYTE		N36   
	BYTE	W36
	BYTE		N01   
	BYTE	W24
// 011   ----------------------------------------
	BYTE		N12   
	BYTE	W36
	BYTE		N12   
	BYTE	W36
	BYTE		        Ds1 
	BYTE	W12
	BYTE		        Gn1 
	BYTE	W12
// 012   ----------------------------------------
	BYTE		        Ds1 
	BYTE	W36
	BYTE		N24   
	BYTE	W36
	BYTE		N12   
	BYTE	W24
// 013   ----------------------------------------
	BYTE		N12   
	BYTE	W36
	BYTE		N24   
	BYTE	W24
	BYTE		N12     Dn1 
	BYTE	W12
	BYTE		        Ds1 
	BYTE	W12
	BYTE		        Dn1 
	BYTE	W12
// 014   ----------------------------------------
FE04VsArvisSaXortheNobody_4_014:
	BYTE		N12     Cn1   v100
	BYTE	W36
	BYTE		N24   
	BYTE	W36
	BYTE		N12   
	BYTE	W24
	BYTE	PEND
// 015   ----------------------------------------
	BYTE	PATT
	 POIN2	FE04VsArvisSaXortheNobody_4_014
// 016   ----------------------------------------
FE04VsArvisSaXortheNobody_4_016:
	BYTE		N12     Dn1   v100
	BYTE	W36
	BYTE		N24   
	BYTE	W36
	BYTE		N12   
	BYTE	W24
	BYTE	PEND
// 017   ----------------------------------------
	BYTE	PATT
	 POIN2	FE04VsArvisSaXortheNobody_4_016
// 018   ----------------------------------------
	BYTE	W96
// 019   ----------------------------------------
	BYTE	W96
// 020   ----------------------------------------
	BYTE	W96
// 021   ----------------------------------------
	BYTE	W96
// 022   ----------------------------------------
	BYTE	W96
// 023   ----------------------------------------
	BYTE	W96
// 024   ----------------------------------------
	BYTE	W96
// 025   ----------------------------------------
	BYTE	W96
	BYTE	GoTo
	 POIN2	FE04VsArvisSaXortheNobody_4_B1
FE04VsArvisSaXortheNobody_4_B2:
// 026   ----------------------------------------
	BYTE	FINE

//**************** Track 5 (Midi-Chn.5) ****************//

FE04VsArvisSaXortheNobody_5:
	BYTE	KEYSH   FE04VsArvisSaXortheNobody_key+0
// 000   ----------------------------------------
	BYTE		VOICE   41
	BYTE		PAN     c_v-26
	BYTE		VOL     51*FE04VsArvisSaXortheNobody_mvl/mxv
	BYTE	W96
// 001   ----------------------------------------
	BYTE	W96
FE04VsArvisSaXortheNobody_5_B1:
// 002   ----------------------------------------
	BYTE	W24
	BYTE		N12     Gn3   v100
	BYTE	W24
	BYTE		        Dn4 
	BYTE	W24
	BYTE		        As4 
	BYTE	W24
// 003   ----------------------------------------
	BYTE		        Cn5 
	BYTE	W24
	BYTE		        Gs4 
	BYTE	W24
	BYTE		        Fn4 
	BYTE	W24
	BYTE		        Dn4 
	BYTE	W24
// 004   ----------------------------------------
	BYTE		N12   
	BYTE	W24
	BYTE		        Gn3 
	BYTE	W24
	BYTE		        Dn4 
	BYTE	W24
	BYTE		        Gn3 
	BYTE	W24
// 005   ----------------------------------------
	BYTE		        Dn4 
	BYTE	W24
	BYTE		        Gn3 
	BYTE	W24
	BYTE		        Dn4 
	BYTE	W24
	BYTE		        Dn5 
	BYTE	W24
// 006   ----------------------------------------
	BYTE		        As4 
	BYTE	W24
	BYTE		        An4 
	BYTE	W24
	BYTE		        Gn4 
	BYTE	W24
	BYTE		        Fn4 
	BYTE	W24
// 007   ----------------------------------------
	BYTE		        Ds4 
	BYTE	W24
	BYTE		        Dn4 
	BYTE	W24
	BYTE		        Cn4 
	BYTE	W24
	BYTE		        As3 
	BYTE	W24
// 008   ----------------------------------------
	BYTE		        An3 
	BYTE	W24
	BYTE		N12   
	BYTE	W24
	BYTE		N12   
	BYTE	W24
	BYTE		N12   
	BYTE	W24
// 009   ----------------------------------------
	BYTE		N12   
	BYTE	W24
	BYTE		N12   
	BYTE	W24
	BYTE		N12   
	BYTE	W24
	BYTE		        Dn4 
	BYTE	W24
// 010   ----------------------------------------
	BYTE	W96
// 011   ----------------------------------------
	BYTE	W96
// 012   ----------------------------------------
	BYTE	W96
// 013   ----------------------------------------
	BYTE	W96
// 014   ----------------------------------------
	BYTE	W96
// 015   ----------------------------------------
	BYTE	W96
// 016   ----------------------------------------
	BYTE	W96
// 017   ----------------------------------------
	BYTE	W96
// 018   ----------------------------------------
	BYTE	W96
// 019   ----------------------------------------
	BYTE	W96
// 020   ----------------------------------------
	BYTE	W96
// 021   ----------------------------------------
	BYTE	W96
// 022   ----------------------------------------
	BYTE	W96
// 023   ----------------------------------------
	BYTE	W96
// 024   ----------------------------------------
	BYTE	W96
// 025   ----------------------------------------
	BYTE	W96
	BYTE	GoTo
	 POIN2	FE04VsArvisSaXortheNobody_5_B1
FE04VsArvisSaXortheNobody_5_B2:
// 026   ----------------------------------------
	BYTE	FINE

//**************** Track 6 (Midi-Chn.6) ****************//

FE04VsArvisSaXortheNobody_6:
	BYTE	KEYSH   FE04VsArvisSaXortheNobody_key+0
// 000   ----------------------------------------
	BYTE		VOICE   41
	BYTE		PAN     c_v+26
	BYTE		VOL     51*FE04VsArvisSaXortheNobody_mvl/mxv
	BYTE	W96
// 001   ----------------------------------------
	BYTE	W96
FE04VsArvisSaXortheNobody_6_B1:
// 002   ----------------------------------------
	BYTE	W12
	BYTE		N12     Dn3   v100
	BYTE	W24
	BYTE		        As3 
	BYTE	W24
	BYTE		        Gn4 
	BYTE	W24
	BYTE		        Dn5 
	BYTE	W12
// 003   ----------------------------------------
	BYTE	W12
	BYTE		        As4 
	BYTE	W24
	BYTE		        Gn4 
	BYTE	W24
	BYTE		        Ds4 
	BYTE	W24
	BYTE		        Cn4 
	BYTE	W12
// 004   ----------------------------------------
	BYTE	W12
	BYTE		        Gn4 
	BYTE	W24
	BYTE		        As3 
	BYTE	W24
	BYTE		        Gn4 
	BYTE	W24
	BYTE		        As3 
	BYTE	W12
// 005   ----------------------------------------
	BYTE	W12
	BYTE		        Gn4 
	BYTE	W24
	BYTE		        As3 
	BYTE	W24
	BYTE		        Gn4 
	BYTE	W24
	BYTE		        Cn5 
	BYTE	W12
// 006   ----------------------------------------
	BYTE	W12
	BYTE		N12   
	BYTE	W24
	BYTE		        As4 
	BYTE	W24
	BYTE		        An4 
	BYTE	W24
	BYTE		        Gn4 
	BYTE	W12
// 007   ----------------------------------------
	BYTE	W12
	BYTE		        Fn4 
	BYTE	W24
	BYTE		        Ds4 
	BYTE	W24
	BYTE		        Dn4 
	BYTE	W24
	BYTE		        Cn4 
	BYTE	W12
// 008   ----------------------------------------
	BYTE	W12
	BYTE		        Dn3 
	BYTE	W24
	BYTE		        Dn4 
	BYTE	W24
	BYTE		        Dn3 
	BYTE	W24
	BYTE		        Dn4 
	BYTE	W12
// 009   ----------------------------------------
	BYTE	W12
	BYTE		        Dn3 
	BYTE	W24
	BYTE		        Dn4 
	BYTE	W24
	BYTE		        Dn3 
	BYTE	W24
	BYTE		        An3 
	BYTE	W12
// 010   ----------------------------------------
	BYTE	W96
// 011   ----------------------------------------
	BYTE	W96
// 012   ----------------------------------------
	BYTE	W96
// 013   ----------------------------------------
	BYTE	W96
// 014   ----------------------------------------
	BYTE	W96
// 015   ----------------------------------------
	BYTE	W96
// 016   ----------------------------------------
	BYTE	W96
// 017   ----------------------------------------
	BYTE	W96
// 018   ----------------------------------------
	BYTE	W96
// 019   ----------------------------------------
	BYTE	W96
// 020   ----------------------------------------
	BYTE	W96
// 021   ----------------------------------------
	BYTE	W96
// 022   ----------------------------------------
	BYTE	W96
// 023   ----------------------------------------
	BYTE	W96
// 024   ----------------------------------------
	BYTE	W96
// 025   ----------------------------------------
	BYTE	W96
	BYTE	GoTo
	 POIN2	FE04VsArvisSaXortheNobody_6_B1
FE04VsArvisSaXortheNobody_6_B2:
// 026   ----------------------------------------
	BYTE	FINE

//**************** Track 7 (Midi-Chn.7) ****************//

FE04VsArvisSaXortheNobody_7:
	BYTE	KEYSH   FE04VsArvisSaXortheNobody_key+0
// 000   ----------------------------------------
	BYTE		VOICE   41
	BYTE		VOL     45*FE04VsArvisSaXortheNobody_mvl/mxv
	BYTE	W96
// 001   ----------------------------------------
	BYTE	W96
FE04VsArvisSaXortheNobody_7_B1:
// 002   ----------------------------------------
	BYTE	W24
	BYTE		N12     Dn3   v056
	BYTE	W12
	BYTE		        Gn3 
	BYTE	W12
	BYTE		        As3 
	BYTE	W12
	BYTE		        Dn4 
	BYTE	W12
	BYTE		        Gn4 
	BYTE	W12
	BYTE		        As4 
	BYTE	W12
// 003   ----------------------------------------
	BYTE		        Dn5 
	BYTE	W12
	BYTE		        Cn5 
	BYTE	W12
	BYTE		        As4 
	BYTE	W12
	BYTE		        Gs4 
	BYTE	W12
	BYTE		        Gn4 
	BYTE	W12
	BYTE		        Fn4 
	BYTE	W12
	BYTE		        Ds4 
	BYTE	W12
	BYTE		        Dn4 
	BYTE	W12
// 004   ----------------------------------------
	BYTE		        Cn4 
	BYTE	W12
	BYTE		        Dn4 
	BYTE	W12
	BYTE		        Gn4 
	BYTE	W12
	BYTE		        Gn3 
	BYTE	W12
	BYTE		        As3 
	BYTE	W12
	BYTE		        Dn4 
	BYTE	W12
	BYTE		        Gn4 
	BYTE	W12
	BYTE		        Gn3 
	BYTE	W12
// 005   ----------------------------------------
	BYTE		        As3 
	BYTE	W12
	BYTE		        Dn4 
	BYTE	W12
	BYTE		        Gn4 
	BYTE	W12
	BYTE		        Gn3 
	BYTE	W12
	BYTE		        As3 
	BYTE	W12
	BYTE		        Dn4 
	BYTE	W12
	BYTE		        Gn4 
	BYTE	W12
	BYTE		        Dn5 
	BYTE	W12
// 006   ----------------------------------------
	BYTE		        Cn5 
	BYTE	W12
	BYTE		        As4 
	BYTE	W12
	BYTE		        Cn5 
	BYTE	W12
	BYTE		        An4 
	BYTE	W12
	BYTE		        As4 
	BYTE	W12
	BYTE		        Gn4 
	BYTE	W12
	BYTE		        An4 
	BYTE	W12
	BYTE		        Fn4 
	BYTE	W12
// 007   ----------------------------------------
	BYTE		        Gn4 
	BYTE	W12
	BYTE		        Ds4 
	BYTE	W12
	BYTE		        Fn4 
	BYTE	W12
	BYTE		        Dn4 
	BYTE	W12
	BYTE		        Ds4 
	BYTE	W12
	BYTE		        Cn4 
	BYTE	W12
	BYTE		        Dn4 
	BYTE	W12
	BYTE		        As3 
	BYTE	W12
// 008   ----------------------------------------
	BYTE		        Cn4 
	BYTE	W12
	BYTE		        An3 
	BYTE	W12
	BYTE		        Dn3 
	BYTE	W12
	BYTE		        An3 
	BYTE	W12
	BYTE		        Dn4 
	BYTE	W12
	BYTE		        An3 
	BYTE	W12
	BYTE		        Dn3 
	BYTE	W12
	BYTE		        An3 
	BYTE	W12
// 009   ----------------------------------------
	BYTE		        Dn4 
	BYTE	W12
	BYTE		        An3 
	BYTE	W12
	BYTE		        Dn3 
	BYTE	W12
	BYTE		        An3 
	BYTE	W12
	BYTE		        Dn4 
	BYTE	W12
	BYTE		        An3 
	BYTE	W12
	BYTE		        Dn3 
	BYTE	W12
	BYTE		        Dn4 
	BYTE	W12
// 010   ----------------------------------------
	BYTE		        An3 
	BYTE	W96
// 011   ----------------------------------------
	BYTE	W96
// 012   ----------------------------------------
	BYTE	W96
// 013   ----------------------------------------
	BYTE	W96
// 014   ----------------------------------------
	BYTE	W96
// 015   ----------------------------------------
	BYTE	W96
// 016   ----------------------------------------
	BYTE	W96
// 017   ----------------------------------------
	BYTE	W96
// 018   ----------------------------------------
	BYTE	W48
	BYTE		N48     Dn2   v080
	BYTE	W48
// 019   ----------------------------------------
	BYTE		        Gn2 
	BYTE	W48
	BYTE		        Cn3 
	BYTE	W48
// 020   ----------------------------------------
	BYTE		        Fn3 
	BYTE	W48
	BYTE		        As3 
	BYTE	W48
// 021   ----------------------------------------
	BYTE		        Ds4 
	BYTE	W48
	BYTE		        As3 
	BYTE	W48
// 022   ----------------------------------------
	BYTE		        Cn4 
	BYTE	W48
	BYTE		        Gn3 
	BYTE	W48
// 023   ----------------------------------------
	BYTE		        Cn3 
	BYTE	W48
	BYTE		        Gn2 
	BYTE	W48
// 024   ----------------------------------------
	BYTE		        Dn3 
	BYTE	W48
	BYTE		        Gn2 
	BYTE	W48
// 025   ----------------------------------------
	BYTE		N96     Dn2 
	BYTE	W96
	BYTE	GoTo
	 POIN2	FE04VsArvisSaXortheNobody_7_B1
FE04VsArvisSaXortheNobody_7_B2:
// 026   ----------------------------------------
	BYTE	FINE

//**************** Track 8 (Midi-Chn.8) ****************//

FE04VsArvisSaXortheNobody_8:
	BYTE	KEYSH   FE04VsArvisSaXortheNobody_key+0
// 000   ----------------------------------------
	BYTE		VOICE   1
	BYTE		PAN     c_v-26
	BYTE		VOL     51*FE04VsArvisSaXortheNobody_mvl/mxv
	BYTE	W96
// 001   ----------------------------------------
	BYTE	W96
FE04VsArvisSaXortheNobody_8_B1:
// 002   ----------------------------------------
	BYTE	W96
// 003   ----------------------------------------
	BYTE	W96
// 004   ----------------------------------------
	BYTE	W96
// 005   ----------------------------------------
	BYTE	W96
// 006   ----------------------------------------
	BYTE	W96
// 007   ----------------------------------------
	BYTE	W96
// 008   ----------------------------------------
	BYTE	W96
// 009   ----------------------------------------
	BYTE	W96
// 010   ----------------------------------------
FE04VsArvisSaXortheNobody_8_010:
	BYTE		N06     Dn4   v100
	BYTE	W12
	BYTE		        Dn4   v056
	BYTE	W12
	BYTE		N06   
	BYTE	W12
	BYTE		        Dn4   v100
	BYTE	W12
	BYTE		        Dn4   v056
	BYTE	W12
	BYTE		N06   
	BYTE	W12
	BYTE		        Dn4   v100
	BYTE	W12
	BYTE		        Dn4   v056
	BYTE	W12
	BYTE	PEND
// 011   ----------------------------------------
	BYTE	PATT
	 POIN2	FE04VsArvisSaXortheNobody_8_010
// 012   ----------------------------------------
FE04VsArvisSaXortheNobody_8_012:
	BYTE		N06     Fn4   v100
	BYTE	W12
	BYTE		        Fn4   v056
	BYTE	W12
	BYTE		N06   
	BYTE	W12
	BYTE		        Fn4   v100
	BYTE	W12
	BYTE		        Fn4   v056
	BYTE	W12
	BYTE		N06   
	BYTE	W12
	BYTE		        Fn4   v100
	BYTE	W12
	BYTE		        Fn4   v056
	BYTE	W12
	BYTE	PEND
// 013   ----------------------------------------
	BYTE	PATT
	 POIN2	FE04VsArvisSaXortheNobody_8_012
// 014   ----------------------------------------
FE04VsArvisSaXortheNobody_8_014:
	BYTE		N06     Gn4   v100
	BYTE	W12
	BYTE		        Gn4   v056
	BYTE	W12
	BYTE		N06   
	BYTE	W12
	BYTE		        Gn4   v100
	BYTE	W12
	BYTE		        Gn4   v056
	BYTE	W12
	BYTE		N06   
	BYTE	W12
	BYTE		        Gn4   v100
	BYTE	W12
	BYTE		        Gn4   v056
	BYTE	W12
	BYTE	PEND
// 015   ----------------------------------------
	BYTE	PATT
	 POIN2	FE04VsArvisSaXortheNobody_8_014
// 016   ----------------------------------------
FE04VsArvisSaXortheNobody_8_016:
	BYTE		N06     Dn5   v100
	BYTE	W12
	BYTE		        Dn5   v056
	BYTE	W12
	BYTE		N06   
	BYTE	W12
	BYTE		        Dn5   v100
	BYTE	W12
	BYTE		        Dn5   v056
	BYTE	W12
	BYTE		N06   
	BYTE	W12
	BYTE		        Dn5   v100
	BYTE	W12
	BYTE		        Dn5   v056
	BYTE	W12
	BYTE	PEND
// 017   ----------------------------------------
	BYTE	PATT
	 POIN2	FE04VsArvisSaXortheNobody_8_016
// 018   ----------------------------------------
FE04VsArvisSaXortheNobody_8_018:
	BYTE		N06     Gn2   v100
	BYTE	W12
	BYTE		        Gn2   v056
	BYTE	W12
	BYTE		N06   
	BYTE	W12
	BYTE		        Gn2   v100
	BYTE	W12
	BYTE		        Gn2   v056
	BYTE	W12
	BYTE		N06   
	BYTE	W12
	BYTE		        Gn2   v100
	BYTE	W12
	BYTE		        Gn2   v056
	BYTE	W12
	BYTE	PEND
// 019   ----------------------------------------
	BYTE	PATT
	 POIN2	FE04VsArvisSaXortheNobody_8_018
// 020   ----------------------------------------
FE04VsArvisSaXortheNobody_8_020:
	BYTE		N06     As2   v100
	BYTE	W12
	BYTE		        As2   v056
	BYTE	W12
	BYTE		N06   
	BYTE	W12
	BYTE		        As2   v100
	BYTE	W12
	BYTE		        As2   v056
	BYTE	W12
	BYTE		N06   
	BYTE	W12
	BYTE		        As2   v100
	BYTE	W12
	BYTE		        As2   v056
	BYTE	W12
	BYTE	PEND
// 021   ----------------------------------------
	BYTE	PATT
	 POIN2	FE04VsArvisSaXortheNobody_8_020
// 022   ----------------------------------------
FE04VsArvisSaXortheNobody_8_022:
	BYTE		N06     Cn3   v100
	BYTE	W12
	BYTE		        Cn3   v056
	BYTE	W12
	BYTE		N06   
	BYTE	W12
	BYTE		        Cn3   v100
	BYTE	W12
	BYTE		        Cn3   v056
	BYTE	W12
	BYTE		N06   
	BYTE	W12
	BYTE		        Cn3   v100
	BYTE	W12
	BYTE		        Cn3   v056
	BYTE	W12
	BYTE	PEND
// 023   ----------------------------------------
	BYTE	PATT
	 POIN2	FE04VsArvisSaXortheNobody_8_022
// 024   ----------------------------------------
FE04VsArvisSaXortheNobody_8_024:
	BYTE		N06     Gn3   v100
	BYTE	W12
	BYTE		        Gn3   v056
	BYTE	W12
	BYTE		N06   
	BYTE	W12
	BYTE		        Gn3   v100
	BYTE	W12
	BYTE		        Gn3   v056
	BYTE	W12
	BYTE		N06   
	BYTE	W12
	BYTE		        Gn3   v100
	BYTE	W12
	BYTE		        Gn3   v056
	BYTE	W12
	BYTE	PEND
// 025   ----------------------------------------
	BYTE	PATT
	 POIN2	FE04VsArvisSaXortheNobody_8_024
	BYTE	GoTo
	 POIN2	FE04VsArvisSaXortheNobody_8_B1
FE04VsArvisSaXortheNobody_8_B2:
// 026   ----------------------------------------
	BYTE	FINE

//**************** Track 9 (Midi-Chn.9) ****************//

FE04VsArvisSaXortheNobody_9:
	BYTE	KEYSH   FE04VsArvisSaXortheNobody_key+0
// 000   ----------------------------------------
	BYTE		VOICE   0
	BYTE		PAN     c_v+26
	BYTE		VOL     51*FE04VsArvisSaXortheNobody_mvl/mxv
	BYTE	W96
// 001   ----------------------------------------
	BYTE	W48
	BYTE		N06     As4   v100
	BYTE	W06
	BYTE		        An4 
	BYTE	W06
	BYTE		        Gn4 
	BYTE	W06
	BYTE		        Fn4 
	BYTE	W06
	BYTE		        Ds4 
	BYTE	W06
	BYTE		        Dn4 
	BYTE	W06
	BYTE		        Cn4 
	BYTE	W06
	BYTE		        An3 
	BYTE	W06
FE04VsArvisSaXortheNobody_9_B1:
// 002   ----------------------------------------
	BYTE	W96
// 003   ----------------------------------------
	BYTE	W96
// 004   ----------------------------------------
	BYTE	W96
// 005   ----------------------------------------
	BYTE	W96
// 006   ----------------------------------------
	BYTE	W96
// 007   ----------------------------------------
	BYTE	W96
// 008   ----------------------------------------
	BYTE	W96
// 009   ----------------------------------------
	BYTE	W96
// 010   ----------------------------------------
FE04VsArvisSaXortheNobody_9_010:
	BYTE		N06     Gn3   v100
	BYTE	W12
	BYTE		        Gn3   v056
	BYTE	W12
	BYTE		N06   
	BYTE	W12
	BYTE		        Gn3   v100
	BYTE	W12
	BYTE		        Gn3   v056
	BYTE	W12
	BYTE		N06   
	BYTE	W12
	BYTE		        Gn3   v100
	BYTE	W12
	BYTE		        Gn3   v056
	BYTE	W12
	BYTE	PEND
// 011   ----------------------------------------
	BYTE	PATT
	 POIN2	FE04VsArvisSaXortheNobody_9_010
// 012   ----------------------------------------
FE04VsArvisSaXortheNobody_9_012:
	BYTE		N06     As3   v100
	BYTE	W12
	BYTE		        As3   v056
	BYTE	W12
	BYTE		N06   
	BYTE	W12
	BYTE		        As3   v100
	BYTE	W12
	BYTE		        As3   v056
	BYTE	W12
	BYTE		N06   
	BYTE	W12
	BYTE		        As3   v100
	BYTE	W12
	BYTE		        As3   v056
	BYTE	W12
	BYTE	PEND
// 013   ----------------------------------------
	BYTE	PATT
	 POIN2	FE04VsArvisSaXortheNobody_9_012
// 014   ----------------------------------------
FE04VsArvisSaXortheNobody_9_014:
	BYTE		N06     Cn4   v100
	BYTE	W12
	BYTE		        Cn4   v056
	BYTE	W12
	BYTE		N06   
	BYTE	W12
	BYTE		        Cn4   v100
	BYTE	W12
	BYTE		        Cn4   v056
	BYTE	W12
	BYTE		N06   
	BYTE	W12
	BYTE		        Cn4   v100
	BYTE	W12
	BYTE		        Cn4   v056
	BYTE	W12
	BYTE	PEND
// 015   ----------------------------------------
	BYTE	PATT
	 POIN2	FE04VsArvisSaXortheNobody_9_014
// 016   ----------------------------------------
FE04VsArvisSaXortheNobody_9_016:
	BYTE		N06     Gn4   v100
	BYTE	W12
	BYTE		        Gn4   v056
	BYTE	W12
	BYTE		N06   
	BYTE	W12
	BYTE		        Gn4   v100
	BYTE	W12
	BYTE		        Gn4   v056
	BYTE	W12
	BYTE		N06   
	BYTE	W12
	BYTE		        Gn4   v100
	BYTE	W12
	BYTE		        Gn4   v056
	BYTE	W12
	BYTE	PEND
// 017   ----------------------------------------
	BYTE	PATT
	 POIN2	FE04VsArvisSaXortheNobody_9_016
// 018   ----------------------------------------
FE04VsArvisSaXortheNobody_9_018:
	BYTE		N06     Dn3   v100
	BYTE	W12
	BYTE		        Dn3   v056
	BYTE	W12
	BYTE		N06   
	BYTE	W12
	BYTE		        Dn3   v100
	BYTE	W12
	BYTE		        Dn3   v056
	BYTE	W12
	BYTE		N06   
	BYTE	W12
	BYTE		        Dn3   v100
	BYTE	W12
	BYTE		        Dn3   v056
	BYTE	W12
	BYTE	PEND
// 019   ----------------------------------------
	BYTE	PATT
	 POIN2	FE04VsArvisSaXortheNobody_9_018
// 020   ----------------------------------------
FE04VsArvisSaXortheNobody_9_020:
	BYTE		N06     Fn3   v100
	BYTE	W12
	BYTE		        Fn3   v056
	BYTE	W12
	BYTE		N06   
	BYTE	W12
	BYTE		        Fn3   v100
	BYTE	W12
	BYTE		        Fn3   v056
	BYTE	W12
	BYTE		N06   
	BYTE	W12
	BYTE		        Fn3   v100
	BYTE	W12
	BYTE		        Fn3   v056
	BYTE	W12
	BYTE	PEND
// 021   ----------------------------------------
	BYTE	PATT
	 POIN2	FE04VsArvisSaXortheNobody_9_020
// 022   ----------------------------------------
	BYTE	PATT
	 POIN2	FE04VsArvisSaXortheNobody_9_010
// 023   ----------------------------------------
	BYTE	PATT
	 POIN2	FE04VsArvisSaXortheNobody_9_010
// 024   ----------------------------------------
	BYTE		N06     Dn4   v100
	BYTE	W12
	BYTE		        Dn4   v056
	BYTE	W12
	BYTE		N06   
	BYTE	W12
	BYTE		        Dn4   v100
	BYTE	W12
	BYTE		        Dn4   v056
	BYTE	W12
	BYTE		N06   
	BYTE	W12
	BYTE		        Dn4   v100
	BYTE	W12
	BYTE		        Dn4   v056
	BYTE	W12
// 025   ----------------------------------------
	BYTE		        Dn4   v100
	BYTE	W12
	BYTE		        Dn4   v056
	BYTE	W12
	BYTE		N06   
	BYTE	W12
	BYTE		        Dn4   v100
	BYTE	W12
	BYTE		        Dn4   v056
	BYTE		N06     As4   v100
	BYTE	W06
	BYTE		        An4 
	BYTE	W06
	BYTE		        Dn4   v056
	BYTE		N06     Gn4   v100
	BYTE	W06
	BYTE		        Fn4 
	BYTE	W06
	BYTE		        Dn4 
	BYTE		N06     Ds4 
	BYTE	W06
	BYTE		        Dn4 
	BYTE	W06
	BYTE		        Cn4 
	BYTE		N01     Dn4   v056
	BYTE	W06
	BYTE		N06     An3   v100
	BYTE	W06
	BYTE	GoTo
	 POIN2	FE04VsArvisSaXortheNobody_9_B1
FE04VsArvisSaXortheNobody_9_B2:
// 026   ----------------------------------------
	BYTE	FINE

//**************** Track 10 (Midi-Chn.11) ****************//

FE04VsArvisSaXortheNobody_10:
	BYTE	KEYSH   FE04VsArvisSaXortheNobody_key+0
// 000   ----------------------------------------
	BYTE		VOICE   63
	BYTE		VOL     51*FE04VsArvisSaXortheNobody_mvl/mxv
	BYTE	W96
// 001   ----------------------------------------
	BYTE	W96
FE04VsArvisSaXortheNobody_10_B1:
// 002   ----------------------------------------
	BYTE	W96
// 003   ----------------------------------------
	BYTE	W96
// 004   ----------------------------------------
	BYTE	W96
// 005   ----------------------------------------
	BYTE	W96
// 006   ----------------------------------------
	BYTE	W96
// 007   ----------------------------------------
	BYTE	W96
// 008   ----------------------------------------
	BYTE	W96
// 009   ----------------------------------------
	BYTE	W96
// 010   ----------------------------------------
	BYTE	W96
// 011   ----------------------------------------
	BYTE	W96
// 012   ----------------------------------------
	BYTE	W96
// 013   ----------------------------------------
	BYTE	W96
// 014   ----------------------------------------
	BYTE	W96
// 015   ----------------------------------------
	BYTE	W96
// 016   ----------------------------------------
	BYTE	W96
// 017   ----------------------------------------
	BYTE	W96
// 018   ----------------------------------------
	BYTE	W48
	BYTE		N48     Dn1   v100
	BYTE	W48
// 019   ----------------------------------------
	BYTE		        Gn1 
	BYTE	W48
	BYTE		        Cn2 
	BYTE	W48
// 020   ----------------------------------------
	BYTE		        Fn2 
	BYTE	W48
	BYTE		        As2 
	BYTE	W48
// 021   ----------------------------------------
	BYTE		        Ds3 
	BYTE	W48
	BYTE		        As2 
	BYTE	W48
// 022   ----------------------------------------
	BYTE		        Cn3 
	BYTE	W48
	BYTE		        Gn2 
	BYTE	W48
// 023   ----------------------------------------
	BYTE		        Cn2 
	BYTE	W48
	BYTE		        Gn1 
	BYTE	W48
// 024   ----------------------------------------
	BYTE		        Dn2 
	BYTE	W48
	BYTE		        Gn1 
	BYTE	W48
// 025   ----------------------------------------
	BYTE		N96     Dn1 
	BYTE	W96
	BYTE	GoTo
	 POIN2	FE04VsArvisSaXortheNobody_10_B1
FE04VsArvisSaXortheNobody_10_B2:
// 026   ----------------------------------------
	BYTE	FINE

//**************** Track 11 (Midi-Chn.12) ****************//

FE04VsArvisSaXortheNobody_11:
	BYTE	KEYSH   FE04VsArvisSaXortheNobody_key+0
// 000   ----------------------------------------
	BYTE		VOICE   127
	BYTE		VOL     51*FE04VsArvisSaXortheNobody_mvl/mxv
	BYTE		N96     Cs2   v100
	BYTE		N96     Gn2 
	BYTE		N96     An2   v072
	BYTE	W36
	BYTE		N12     Cn1   v100
	BYTE	W24
	BYTE		N12   
	BYTE	W24
	BYTE		N12   
	BYTE	W12
// 001   ----------------------------------------
	BYTE		        Dn5 
	BYTE	W18
	BYTE		N06     Cn1 
	BYTE	W06
	BYTE		N12     Dn5 
	BYTE	W12
	BYTE		        Cn1 
	BYTE	W12
	BYTE		N06     Dn5 
	BYTE	W06
	BYTE		N01   
	BYTE	W12
	BYTE		N06     Cn1 
	BYTE	W06
	BYTE		        Dn5 
	BYTE	W06
	BYTE		N01   
	BYTE	W06
	BYTE		N01   
	BYTE	W06
	BYTE		N01   
	BYTE	W05
	BYTE		N18     Fs1   v080
	BYTE	W01
FE04VsArvisSaXortheNobody_11_B1:
// 002   ----------------------------------------
	BYTE		N12     Cn1   v100
	BYTE		N96     Cs2 
	BYTE		N96     Gn2 
	BYTE		N96     An2   v072
	BYTE	W17
	BYTE		N06     Fs1   v080
	BYTE	W01
	BYTE		        Cn1   v100
	BYTE	W05
	BYTE		N01     Fs1   v080
	BYTE	W01
	BYTE		N12     Dn5   v100
	BYTE	W11
	BYTE		        Fs1   v080
	BYTE	W01
	BYTE		        Cn1   v100
	BYTE	W11
	BYTE		N06     Fs1   v080
	BYTE	W06
	BYTE		N01   
	BYTE	W07
	BYTE		N12     Cn1   v100
	BYTE	W11
	BYTE		        Fs1   v080
	BYTE	W01
	BYTE		        Dn5   v100
	BYTE	W11
	BYTE		        Fs1   v080
	BYTE	W01
	BYTE		        Cn1   v100
	BYTE	W11
	BYTE		N06     Fs1   v080
	BYTE	W01
// 003   ----------------------------------------
	BYTE		N01     Cn1   v100
	BYTE	W05
	BYTE		        Fs1   v080
	BYTE	W13
	BYTE		N06     Cn1   v100
	BYTE	W05
	BYTE		N12     Fs1   v080
	BYTE	W01
	BYTE		        Dn5   v100
	BYTE	W11
	BYTE		        Fs1   v080
	BYTE	W01
	BYTE		        Cn1   v100
	BYTE	W11
	BYTE		N06     Fs1   v080
	BYTE	W06
	BYTE		N01   
	BYTE	W01
	BYTE		N06     Cn1   v100
	BYTE	W05
	BYTE		N01     Fs1   v080
	BYTE	W01
	BYTE		        Cn1   v100
	BYTE	W11
	BYTE		N12     Fs1   v080
	BYTE	W01
	BYTE		N06     Dn5   v100
	BYTE	W06
	BYTE		N01   
	BYTE	W05
	BYTE		N12     Fs1   v080
	BYTE	W01
	BYTE		        Cn1   v100
	BYTE	W11
	BYTE		N18     Fs1   v080
	BYTE	W01
// 004   ----------------------------------------
	BYTE		N01     Cn1   v100
	BYTE	W17
	BYTE		N06     Fs1   v080
	BYTE	W01
	BYTE		        Cn1   v100
	BYTE	W05
	BYTE		N01     Fs1   v080
	BYTE	W01
	BYTE		N12     Dn5   v100
	BYTE	W11
	BYTE		        Fs1   v080
	BYTE	W01
	BYTE		        Cn1   v100
	BYTE	W11
	BYTE		N06     Fs1   v080
	BYTE	W06
	BYTE		N01   
	BYTE	W07
	BYTE		N12     Cn1   v100
	BYTE	W11
	BYTE		        Fs1   v080
	BYTE	W01
	BYTE		        Dn5   v100
	BYTE	W11
	BYTE		        Fs1   v080
	BYTE	W01
	BYTE		        Cn1   v100
	BYTE	W11
	BYTE		N06     Fs1   v080
	BYTE	W01
// 005   ----------------------------------------
	BYTE		N01     Cn1   v100
	BYTE	W05
	BYTE		        Fs1   v080
	BYTE	W13
	BYTE		N06     Cn1   v100
	BYTE	W05
	BYTE		N12     Fs1   v080
	BYTE	W01
	BYTE		        Dn5   v100
	BYTE	W11
	BYTE		        Fs1   v080
	BYTE	W01
	BYTE		        Cn1   v100
	BYTE	W11
	BYTE		N06     Fs1   v080
	BYTE	W06
	BYTE		N01   
	BYTE	W01
	BYTE		N06     Dn5   v100
	BYTE	W05
	BYTE		N01     Fs1   v080
	BYTE	W01
	BYTE		N12     Cn1   v100
	BYTE	W11
	BYTE		        Fs1   v080
	BYTE	W01
	BYTE		        Dn5   v100
	BYTE	W11
	BYTE		        Fs1   v080
	BYTE	W01
	BYTE		        Cn1   v100
	BYTE	W11
	BYTE		N18     Fs1   v080
	BYTE	W01
// 006   ----------------------------------------
	BYTE		N01     Cn1   v100
	BYTE		N96     Cs2 
	BYTE		N96     Gn2 
	BYTE		N96     An2   v072
	BYTE	W17
	BYTE		N06     Fs1   v080
	BYTE	W01
	BYTE		        Cn1   v100
	BYTE	W05
	BYTE		N01     Fs1   v080
	BYTE	W01
	BYTE		N12     Dn5   v100
	BYTE	W11
	BYTE		        Fs1   v080
	BYTE	W01
	BYTE		        Cn1   v100
	BYTE	W11
	BYTE		N06     Fs1   v080
	BYTE	W06
	BYTE		N01   
	BYTE	W07
	BYTE		N12     Cn1   v100
	BYTE	W11
	BYTE		        Fs1   v080
	BYTE	W01
	BYTE		        Dn5   v100
	BYTE	W11
	BYTE		        Fs1   v080
	BYTE	W01
	BYTE		        Cn1   v100
	BYTE	W11
	BYTE		N06     Fs1   v080
	BYTE	W01
// 007   ----------------------------------------
	BYTE		N01     Cn1   v100
	BYTE	W05
	BYTE		        Fs1   v080
	BYTE	W06
	BYTE		N01   
	BYTE	W07
	BYTE		N06     Cn1   v100
	BYTE	W06
	BYTE		N12     Dn5 
	BYTE	W11
	BYTE		N11     Fs1   v080
	BYTE	W01
	BYTE		N12     Cn1   v100
	BYTE	W18
	BYTE		N06   
	BYTE	W05
	BYTE		N12     Fs1   v080
	BYTE	W01
	BYTE		N01     Cn1   v100
	BYTE	W11
	BYTE		N12     Fs1   v080
	BYTE	W01
	BYTE		N06     Dn5   v100
	BYTE	W06
	BYTE		N01   
	BYTE	W05
	BYTE		N12     Fs1   v080
	BYTE	W01
	BYTE		        Cn1   v100
	BYTE	W11
	BYTE		        Fs1   v080
	BYTE	W01
// 008   ----------------------------------------
	BYTE		N01     Cn1   v100
	BYTE	W11
	BYTE		N06     Fs1   v080
	BYTE	W06
	BYTE		N01   
	BYTE	W01
	BYTE		N06     Cn1   v100
	BYTE	W05
	BYTE		N01     Fs1   v080
	BYTE	W01
	BYTE		N12     Dn5   v100
	BYTE	W11
	BYTE		        Fs1   v080
	BYTE	W01
	BYTE		        Cn1   v100
	BYTE	W11
	BYTE		N06     Fs1   v080
	BYTE	W06
	BYTE		N01   
	BYTE	W06
	BYTE		N01   
	BYTE	W01
	BYTE		N12     Cn1   v100
	BYTE	W11
	BYTE		        Fs1   v080
	BYTE	W01
	BYTE		        Dn5   v100
	BYTE	W11
	BYTE		        Fs1   v080
	BYTE	W01
	BYTE		        Cn1   v100
	BYTE	W11
	BYTE		        Fs1   v080
	BYTE	W01
// 009   ----------------------------------------
	BYTE		N01     Cn1   v100
	BYTE	W11
	BYTE		N06     Fs1   v080
	BYTE	W06
	BYTE		N01   
	BYTE	W01
	BYTE		N06     Cn1   v100
	BYTE	W05
	BYTE		N01     Fs1   v080
	BYTE	W01
	BYTE		N12     Dn5   v100
	BYTE	W11
	BYTE		        Fs1   v080
	BYTE	W01
	BYTE		        Cn1   v100
	BYTE	W11
	BYTE		N06     Fs1   v080
	BYTE	W06
	BYTE		N01   
	BYTE	W01
	BYTE		N06     Dn5   v100
	BYTE	W05
	BYTE		N01     Fs1   v080
	BYTE	W01
	BYTE		N12     Cn1   v100
	BYTE	W11
	BYTE		N06     Fs1   v080
	BYTE	W01
	BYTE		        Dn5   v100
	BYTE	W05
	BYTE		N01     Fs1   v080
	BYTE	W01
	BYTE		        Dn5   v100
	BYTE	W05
	BYTE		        Fs1   v080
	BYTE	W01
	BYTE		N06     Cn1   v100
	BYTE	W06
	BYTE		N01   
	BYTE	W05
	BYTE		N06     Fs1   v080
	BYTE	W01
// 010   ----------------------------------------
	BYTE		N01     Cn1   v100
	BYTE		N96     Cs2 
	BYTE		N96     Gn2 
	BYTE		N96     An2   v072
	BYTE	W17
	BYTE		N06     Fn1   v080
	BYTE	W06
	BYTE		N01   
	BYTE	W12
	BYTE		N12   
	BYTE	W01
	BYTE		        Cn1   v100
	BYTE	W11
	BYTE		N06     Fn1   v080
	BYTE	W06
	BYTE		N01   
	BYTE	W18
	BYTE		N12   
	BYTE	W01
	BYTE		        Cn1   v100
	BYTE	W11
	BYTE		        Fn1   v080
	BYTE	W12
	BYTE		N06   
	BYTE	W01
// 011   ----------------------------------------
	BYTE		N12     Cn1   v100
	BYTE	W05
	BYTE		N01     Fn1   v080
	BYTE	W06
	BYTE		N01   
	BYTE	W12
	BYTE		N12   
	BYTE	W12
	BYTE		N06   
	BYTE	W01
	BYTE		N12     Cn1   v100
	BYTE	W05
	BYTE		N01     Fn1   v080
	BYTE	W06
	BYTE		N01   
	BYTE	W06
	BYTE		N01   
	BYTE	W06
	BYTE		N01   
	BYTE	W12
	BYTE		N12   
	BYTE	W01
	BYTE		        Cn1   v100
	BYTE	W11
	BYTE		        Fn1   v080
	BYTE	W12
	BYTE		N06   
	BYTE	W01
// 012   ----------------------------------------
FE04VsArvisSaXortheNobody_11_012:
	BYTE		N12     Cn1   v100
	BYTE	W17
	BYTE		N06     Fn1   v080
	BYTE	W06
	BYTE		N01   
	BYTE	W12
	BYTE		N12   
	BYTE	W01
	BYTE		        Cn1   v100
	BYTE	W11
	BYTE		N06     Fn1   v080
	BYTE	W06
	BYTE		N01   
	BYTE	W18
	BYTE		N12   
	BYTE	W01
	BYTE		        Cn1   v100
	BYTE	W11
	BYTE		        Fn1   v080
	BYTE	W12
	BYTE		N06   
	BYTE	W01
	BYTE	PEND
// 013   ----------------------------------------
	BYTE	W05
	BYTE		N01   
	BYTE	W06
	BYTE		N01   
	BYTE	W01
	BYTE		N12     Cn1   v100
	BYTE	W11
	BYTE		        Fn1   v080
	BYTE	W12
	BYTE		N06   
	BYTE	W01
	BYTE		N12     Cn1   v100
	BYTE	W05
	BYTE		N01     Fn1   v080
	BYTE	W06
	BYTE		N01   
	BYTE	W06
	BYTE		N01   
	BYTE	W06
	BYTE		N01   
	BYTE	W12
	BYTE		N12   
	BYTE	W01
	BYTE		        Cn1   v100
	BYTE	W11
	BYTE		        Fn1   v080
	BYTE	W12
	BYTE		N06   
	BYTE	W01
// 014   ----------------------------------------
	BYTE	PATT
	 POIN2	FE04VsArvisSaXortheNobody_11_012
// 015   ----------------------------------------
	BYTE		N12     Cn1   v100
	BYTE	W05
	BYTE		N01     Fn1   v080
	BYTE	W06
	BYTE		N01   
	BYTE	W12
	BYTE		N12   
	BYTE	W12
	BYTE		N06   
	BYTE	W01
	BYTE		N12     Cn1   v100
	BYTE	W05
	BYTE		N01     Fn1   v080
	BYTE	W06
	BYTE		N01   
	BYTE	W06
	BYTE		N01   
	BYTE	W06
	BYTE		N01   
	BYTE	W12
	BYTE		N12   
	BYTE	W01
	BYTE		        Cn1   v100
	BYTE	W11
	BYTE		        Fn1   v080
	BYTE	W12
	BYTE		N12   
	BYTE	W01
// 016   ----------------------------------------
	BYTE		        Cn1   v100
	BYTE	W11
	BYTE		N06     Fn1   v080
	BYTE	W06
	BYTE		N01   
	BYTE	W06
	BYTE		N01   
	BYTE	W12
	BYTE		N12   
	BYTE	W01
	BYTE		        Cn1   v100
	BYTE	W11
	BYTE		N06     Fn1   v080
	BYTE	W06
	BYTE		N01   
	BYTE	W06
	BYTE		N01   
	BYTE	W12
	BYTE		N12   
	BYTE	W01
	BYTE		        Cn1   v100
	BYTE	W11
	BYTE		        Fn1   v080
	BYTE	W12
	BYTE		N12   
	BYTE	W01
// 017   ----------------------------------------
	BYTE	W11
	BYTE		N06   
	BYTE	W01
	BYTE		N12     Cn1   v100
	BYTE	W05
	BYTE		N01     Fn1   v080
	BYTE	W06
	BYTE		N01   
	BYTE	W12
	BYTE		N12   
	BYTE	W01
	BYTE		        Cn1   v100
	BYTE	W11
	BYTE		N06     Fn1   v080
	BYTE	W06
	BYTE		N01   
	BYTE	W06
	BYTE		N01   
	BYTE	W12
	BYTE		N06   
	BYTE	W01
	BYTE		N12     Cn1   v100
	BYTE	W05
	BYTE		N01     Fn1   v080
	BYTE	W07
	BYTE		N06   
	BYTE	W06
	BYTE		N06   
	BYTE	W06
// 018   ----------------------------------------
	BYTE		N96     Cs2   v100
	BYTE		N96     Gn2 
	BYTE		N96     An2   v072
	BYTE	W96
// 019   ----------------------------------------
	BYTE	W96
// 020   ----------------------------------------
FE04VsArvisSaXortheNobody_11_020:
	BYTE		N12     Cn1   v100
	BYTE	W12
	BYTE		N01   
	BYTE	W84
	BYTE	PEND
// 021   ----------------------------------------
	BYTE	W96
// 022   ----------------------------------------
	BYTE	PATT
	 POIN2	FE04VsArvisSaXortheNobody_11_020
// 023   ----------------------------------------
	BYTE	W96
// 024   ----------------------------------------
	BYTE		N12     Cn1   v100
	BYTE	W12
	BYTE		N01   
	BYTE	W24
	BYTE		N12   
	BYTE	W24
	BYTE		N12   
	BYTE	W24
	BYTE		N12   
	BYTE	W12
// 025   ----------------------------------------
	BYTE		        Fs1 
	BYTE		N12     Dn5 
	BYTE	W24
	BYTE		        Fs1 
	BYTE		N12     Dn5 
	BYTE	W24
	BYTE		        Fs1 
	BYTE		N06     Dn5 
	BYTE	W06
	BYTE		N12     Cn1 
	BYTE	W12
	BYTE		N06   
	BYTE	W06
	BYTE		N12     Dn5 
	BYTE	W06
	BYTE		N06     Fs1 
	BYTE	W06
	BYTE		N12     Cn1 
	BYTE	W12
	BYTE	GoTo
	 POIN2	FE04VsArvisSaXortheNobody_11_B1
FE04VsArvisSaXortheNobody_11_B2:
// 026   ----------------------------------------
	BYTE	FINE

//**************** Track 12 (Midi-Chn.13) ****************//

FE04VsArvisSaXortheNobody_12:
	BYTE	KEYSH   FE04VsArvisSaXortheNobody_key+0
// 000   ----------------------------------------
	BYTE		VOICE   47
	BYTE		VOL     51*FE04VsArvisSaXortheNobody_mvl/mxv
	BYTE	W96
// 001   ----------------------------------------
	BYTE	W96
FE04VsArvisSaXortheNobody_12_B1:
// 002   ----------------------------------------
	BYTE	W96
// 003   ----------------------------------------
	BYTE	W96
// 004   ----------------------------------------
	BYTE	W96
// 005   ----------------------------------------
	BYTE	W96
// 006   ----------------------------------------
	BYTE	W96
// 007   ----------------------------------------
	BYTE	W96
// 008   ----------------------------------------
	BYTE	W96
// 009   ----------------------------------------
	BYTE	W96
// 010   ----------------------------------------
	BYTE	W96
// 011   ----------------------------------------
	BYTE	W96
// 012   ----------------------------------------
	BYTE	W96
// 013   ----------------------------------------
	BYTE	W96
// 014   ----------------------------------------
	BYTE	W96
// 015   ----------------------------------------
	BYTE	W96
// 016   ----------------------------------------
	BYTE	W96
// 017   ----------------------------------------
	BYTE	W96
// 018   ----------------------------------------
	BYTE		N72     Bn0   v100
	BYTE	W96
// 019   ----------------------------------------
	BYTE	W96
// 020   ----------------------------------------
	BYTE	W96
// 021   ----------------------------------------
	BYTE	W96
// 022   ----------------------------------------
	BYTE	W96
// 023   ----------------------------------------
	BYTE	W96
// 024   ----------------------------------------
	BYTE	W96
// 025   ----------------------------------------
	BYTE	W96
	BYTE	GoTo
	 POIN2	FE04VsArvisSaXortheNobody_12_B1
FE04VsArvisSaXortheNobody_12_B2:
// 026   ----------------------------------------
	BYTE	FINE

//******************************************************//
	ALIGN 4

FE04VsArvisSaXortheNobody:
	BYTE	12	// NumTrks
	BYTE	0	// NumBlks
	BYTE	FE04VsArvisSaXortheNobody_pri	// Priority
	BYTE	FE04VsArvisSaXortheNobody_rev	// Reverb.

	POIN2	FE04VsArvisSaXortheNobody_grp

	POIN2	FE04VsArvisSaXortheNobody_1
	POIN2	FE04VsArvisSaXortheNobody_2
	POIN2	FE04VsArvisSaXortheNobody_3
	POIN2	FE04VsArvisSaXortheNobody_4
	POIN2	FE04VsArvisSaXortheNobody_5
	POIN2	FE04VsArvisSaXortheNobody_6
	POIN2	FE04VsArvisSaXortheNobody_7
	POIN2	FE04VsArvisSaXortheNobody_8
	POIN2	FE04VsArvisSaXortheNobody_9
	POIN2	FE04VsArvisSaXortheNobody_10
	POIN2	FE04VsArvisSaXortheNobody_11
	POIN2	FE04VsArvisSaXortheNobody_12

	
