//Event file generated from Sappy .s format.
	#include "MPlayDef.event"

	#define	FE04LightandDarkMonopolyRubix_grp  voicegroup000
	#define	FE04LightandDarkMonopolyRubix_pri  0
	#define	FE04LightandDarkMonopolyRubix_rev  0
	#define	FE04LightandDarkMonopolyRubix_mvl  127
	#define	FE04LightandDarkMonopolyRubix_key  0
	#define	FE04LightandDarkMonopolyRubix_tbs  1
	#define	FE04LightandDarkMonopolyRubix_exg  0
	#define	FE04LightandDarkMonopolyRubix_cmp  1

	// .rodata
	//	FE04LightandDarkMonopolyRubix
	ALIGN 4


//**************** Track 1 (Midi-Chn.0) ****************//

FE04LightandDarkMonopolyRubix_001:
// 000   ----------------------------------------
 BYTE   KEYSH   FE04LightandDarkMonopolyRubix_key+0
 BYTE   TEMPO   130*FE04LightandDarkMonopolyRubix_tbs/2
 BYTE   PAN   c_v+0
 BYTE   VOL   18*FE04LightandDarkMonopolyRubix_mvl/mxv
 BYTE   MOD 0
 BYTE   BEND   c_v+0
 BYTE   W06
 BYTE   VOICE   56
 BYTE   PAN   c_v-4
 BYTE   VOL   59*FE04LightandDarkMonopolyRubix_mvl/mxv
 BYTE   N36  Dn3  v127
 BYTE   W48
 BYTE   En3
 BYTE   W42
// 001   ----------------------------------------
Label_0_554259:
 BYTE   W06
 BYTE   N36  Fn3  v127
 BYTE   W48
 BYTE   Gn3
 BYTE   W42
 BYTE   PEND 
// 002   ----------------------------------------
Label_0_554261:
 BYTE   W06
 BYTE   N04  Fn3  v127
 BYTE   W06
 BYTE   En3
 BYTE   W06
 BYTE   N24  Fn3
 BYTE   W36
 BYTE   N18  Gn3
 BYTE   W24
 BYTE   Cn3
 BYTE   W18
 BYTE   PEND 
// 003   ----------------------------------------
Label_0_554271:
 BYTE   W06
 BYTE   N04  En3  v127
 BYTE   W06
 BYTE   Dn3
 BYTE   W06
 BYTE   N24  En3
 BYTE   W36
 BYTE   N18  Fn3
 BYTE   W24
 BYTE   N09  Cn4
 BYTE   W12
 BYTE   As3
 BYTE   W06
// 004   ----------------------------------------
 BYTE   W06
 BYTE   N24  An3
 BYTE   W36
 BYTE   N04  Gn3
 BYTE   W06
 BYTE   An3
 BYTE   W06
 BYTE   N18  As3
 BYTE   W24
 BYTE   Dn3
 BYTE   W18
// 005   ----------------------------------------
 BYTE   W06
 BYTE   N24  En3
 BYTE   W36
 BYTE   N04
 BYTE   W06
 BYTE   Fn3
 BYTE   W06
 BYTE   N36  Gn3
 BYTE   W42
// 006   ----------------------------------------
 BYTE   W06
 BYTE   N04  Fn3
 BYTE   W06
 BYTE   En3
 BYTE   W06
 BYTE   N24  Fn3
 BYTE   W36
 BYTE   N18  Gn3
 BYTE   W24
 BYTE   Cn4
 BYTE   W18
// 007   ----------------------------------------
 BYTE   W06
 BYTE   N24
 BYTE   W36
 BYTE   N09  As3
 BYTE   W12
 BYTE   N18  An3
 BYTE   W24
 BYTE   N09  As3
 BYTE   W12
 BYTE   Cn4
 BYTE   W06
// 008   ----------------------------------------
 BYTE   W06
 BYTE   N18  Dn4
 BYTE   W24
 BYTE   N09  As3
 BYTE   W12
 BYTE   An3
 BYTE   W12
 BYTE   N18  Gn3
 BYTE   W24
 BYTE   En3
 BYTE   W18
// 009   ----------------------------------------
 BYTE   W96
// 010   ----------------------------------------
 BYTE   W96
// 011   ----------------------------------------
 BYTE   W96
// 012   ----------------------------------------
 BYTE   W54
 BYTE   Gn3
 BYTE   W24
 BYTE   An3
 BYTE   W18
// 013   ----------------------------------------
 BYTE   W06
 BYTE   N54  As3
 BYTE   W72
 BYTE   N09  Cn4
 BYTE   W12
 BYTE   As3
 BYTE   W06
// 014   ----------------------------------------
 BYTE   W06
 BYTE   N54  An3
 BYTE   W72
 BYTE   N04  Gn3
 BYTE   W06
 BYTE   An3
 BYTE   W06
 BYTE   Gn3
 BYTE   W06
// 015   ----------------------------------------
 BYTE   Fn3
 BYTE   W06
 BYTE   N44  Gn3
 BYTE   W60
 BYTE   N09
 BYTE   W12
 BYTE   An3
 BYTE   W12
 BYTE   As3
 BYTE   W06
// 016   ----------------------------------------
 BYTE   W06
 BYTE   Fn3
 BYTE   W24
 BYTE   N44  Dn3
 BYTE   W60
 BYTE   N09
 BYTE   W06
// 017   ----------------------------------------
 BYTE   W06
 BYTE   N44  Ds3
 BYTE   W60
 BYTE   N09
 BYTE   W12
 BYTE   Fn3
 BYTE   W12
 BYTE   Ds3
 BYTE   W06
// 018   ----------------------------------------
 BYTE   W06
 BYTE   N18  Dn3
 BYTE   W24
 BYTE   Fn3
 BYTE   W24
 BYTE   As3
 BYTE   W24
 BYTE   N09  Dn4
 BYTE   W12
 BYTE   Cn4
 BYTE   W06
// 019   ----------------------------------------
 BYTE   W06
 BYTE   N36  Bn3
 BYTE   W48
 BYTE   Cn4
 BYTE   W42
// 020   ----------------------------------------
 BYTE   W06
 BYTE   As3
 BYTE   W48
 BYTE   N18  An3
 BYTE   W24
 BYTE   Gn3
 BYTE   W18
// 021   ----------------------------------------
Label_0_55431A:
 BYTE   W06
 BYTE   N36  Fn3  v127
 BYTE   W48
 BYTE   N18  Cn4
 BYTE   W24
 BYTE   N09  As3
 BYTE   W12
 BYTE   An3
 BYTE   W06
 BYTE   PEND 
// 022   ----------------------------------------
 BYTE   W06
 BYTE   Gn3
 BYTE   W12
 BYTE   An3
 BYTE   W12
 BYTE   N36  Fn3
 BYTE   W48
 BYTE   N18  Gn3
 BYTE   W18
// 023   ----------------------------------------
 BYTE   PATT
  POIN2 Label_0_55431A
// 024   ----------------------------------------
 BYTE   W06
 BYTE   N09  Gn3  v127
 BYTE   W12
 BYTE   Fn3
 BYTE   W12
 BYTE   N18  An3
 BYTE   W24
 BYTE   Dn3
 BYTE   W24
 BYTE   En3
 BYTE   W18
// 025   ----------------------------------------
 BYTE   PATT
  POIN2 Label_0_554259
// 026   ----------------------------------------
 BYTE   W06
 BYTE   N18  Fn3  v127
 BYTE   W24
 BYTE   En3
 BYTE   W24
 BYTE   Dn3
 BYTE   W24
 BYTE   En3
 BYTE   W18
// 027   ----------------------------------------
 BYTE   PATT
  POIN2 Label_0_554261
// 028   ----------------------------------------
 BYTE   GoTo
  POIN2 Label_0_554271
// 029   ----------------------------------------
 BYTE   W06
 BYTE   N04  En3  v127
 BYTE   W06
 BYTE   Dn3
 BYTE   W06
 BYTE   N24  En3
 BYTE   W36
 BYTE   N18  Fn3
 BYTE   W24
 BYTE   N09  Cn4
 BYTE   W14
 BYTE   FINE

//**************** Track 2 (Midi-Chn.1) ****************//

FE04LightandDarkMonopolyRubix_002:
// 000   ----------------------------------------
 BYTE   KEYSH   FE04LightandDarkMonopolyRubix_key+0
 BYTE   PAN   c_v+0
 BYTE   VOL   18*FE04LightandDarkMonopolyRubix_mvl/mxv
 BYTE   MOD 0
 BYTE   BEND   c_v+0
 BYTE   W06
 BYTE   VOICE   60
 BYTE   PAN   c_v-4
 BYTE   VOL   45*FE04LightandDarkMonopolyRubix_mvl/mxv
 BYTE   N36  Dn3  v127
 BYTE   W48
 BYTE   En3
 BYTE   W42
// 001   ----------------------------------------
Label_1_554067:
 BYTE   W06
 BYTE   N36  Fn3  v127
 BYTE   W48
 BYTE   Gn3
 BYTE   W42
 BYTE   PEND 
// 002   ----------------------------------------
Label_1_55406F:
 BYTE   W06
 BYTE   N04  Fn3  v127
 BYTE   W06
 BYTE   En3
 BYTE   W06
 BYTE   N24  Fn3
 BYTE   W36
 BYTE   N18  Gn3
 BYTE   W24
 BYTE   Cn3
 BYTE   W18
 BYTE   PEND 
// 003   ----------------------------------------
Label_1_55407F:
 BYTE   W06
 BYTE   N04  En3  v127
 BYTE   W06
 BYTE   Dn3
 BYTE   W06
 BYTE   N24  En3
 BYTE   W36
 BYTE   N18  Fn3
 BYTE   W24
 BYTE   N09  Cn4
 BYTE   W12
 BYTE   As3
 BYTE   W06
// 004   ----------------------------------------
 BYTE   W06
 BYTE   N24  An3
 BYTE   W36
 BYTE   N04  Gn3
 BYTE   W06
 BYTE   An3
 BYTE   W06
 BYTE   N18  As3
 BYTE   W24
 BYTE   Dn3
 BYTE   W18
// 005   ----------------------------------------
 BYTE   W06
 BYTE   N24  En3
 BYTE   W36
 BYTE   N04
 BYTE   W06
 BYTE   Fn3
 BYTE   W06
 BYTE   N36  Gn3
 BYTE   W42
// 006   ----------------------------------------
 BYTE   W06
 BYTE   N04  Fn3
 BYTE   W06
 BYTE   En3
 BYTE   W06
 BYTE   N24  Fn3
 BYTE   W36
 BYTE   N18  Gn3
 BYTE   W24
 BYTE   Cn4
 BYTE   W18
// 007   ----------------------------------------
 BYTE   W06
 BYTE   N24
 BYTE   W36
 BYTE   N09  As3
 BYTE   W12
 BYTE   N18  An3
 BYTE   W24
 BYTE   N09  As3
 BYTE   W12
 BYTE   Cn4
 BYTE   W06
// 008   ----------------------------------------
 BYTE   W06
 BYTE   N18  Dn4
 BYTE   W24
 BYTE   N09  As3
 BYTE   W12
 BYTE   An3
 BYTE   W12
 BYTE   N18  Gn3
 BYTE   W24
 BYTE   En3
 BYTE   W18
// 009   ----------------------------------------
 BYTE   W96
// 010   ----------------------------------------
 BYTE   W96
// 011   ----------------------------------------
 BYTE   W96
// 012   ----------------------------------------
 BYTE   W54
 BYTE   Gn3
 BYTE   W24
 BYTE   An3
 BYTE   W18
// 013   ----------------------------------------
 BYTE   W06
 BYTE   N54  As3
 BYTE   W72
 BYTE   N09  Cn4
 BYTE   W12
 BYTE   As3
 BYTE   W06
// 014   ----------------------------------------
 BYTE   W06
 BYTE   N54  An3
 BYTE   W72
 BYTE   N04  Gn3
 BYTE   W06
 BYTE   An3
 BYTE   W06
 BYTE   Gn3
 BYTE   W06
// 015   ----------------------------------------
 BYTE   Fn3
 BYTE   W06
 BYTE   N44  Gn3
 BYTE   W60
 BYTE   N09
 BYTE   W12
 BYTE   An3
 BYTE   W12
 BYTE   As3
 BYTE   W06
// 016   ----------------------------------------
 BYTE   W06
 BYTE   Fn3
 BYTE   W24
 BYTE   N44  Dn3
 BYTE   W60
 BYTE   N09
 BYTE   W06
// 017   ----------------------------------------
 BYTE   W06
 BYTE   N44  Ds3
 BYTE   W60
 BYTE   N09
 BYTE   W12
 BYTE   Fn3
 BYTE   W12
 BYTE   Ds3
 BYTE   W06
// 018   ----------------------------------------
 BYTE   W06
 BYTE   N18  Dn3
 BYTE   W24
 BYTE   Fn3
 BYTE   W24
 BYTE   As3
 BYTE   W24
 BYTE   N09  Dn4
 BYTE   W12
 BYTE   Cn4
 BYTE   W06
// 019   ----------------------------------------
 BYTE   W06
 BYTE   N36  Bn3
 BYTE   W48
 BYTE   Cn4
 BYTE   W42
// 020   ----------------------------------------
 BYTE   W06
 BYTE   As3
 BYTE   W48
 BYTE   N18  An3
 BYTE   W24
 BYTE   Gn3
 BYTE   W18
// 021   ----------------------------------------
Label_1_554128:
 BYTE   W06
 BYTE   N36  Fn3  v127
 BYTE   W48
 BYTE   N18  Cn4
 BYTE   W24
 BYTE   N09  As3
 BYTE   W12
 BYTE   An3
 BYTE   W06
 BYTE   PEND 
// 022   ----------------------------------------
 BYTE   W06
 BYTE   Gn3
 BYTE   W12
 BYTE   An3
 BYTE   W12
 BYTE   N36  Fn3
 BYTE   W48
 BYTE   N18  Gn3
 BYTE   W18
// 023   ----------------------------------------
 BYTE   PATT
  POIN2 Label_1_554128
// 024   ----------------------------------------
 BYTE   W06
 BYTE   N09  Gn3  v127
 BYTE   W12
 BYTE   Fn3
 BYTE   W12
 BYTE   N18  An3
 BYTE   W24
 BYTE   Dn3
 BYTE   W24
 BYTE   En3
 BYTE   W18
// 025   ----------------------------------------
 BYTE   PATT
  POIN2 Label_1_554067
// 026   ----------------------------------------
 BYTE   W06
 BYTE   N18  Fn3  v127
 BYTE   W24
 BYTE   En3
 BYTE   W24
 BYTE   Dn3
 BYTE   W24
 BYTE   En3
 BYTE   W18
// 027   ----------------------------------------
 BYTE   PATT
  POIN2 Label_1_55406F
// 028   ----------------------------------------
 BYTE   GoTo
  POIN2 Label_1_55407F
// 029   ----------------------------------------
 BYTE   W06
 BYTE   N04  En3  v127
 BYTE   W06
 BYTE   Dn3
 BYTE   W06
 BYTE   N24  En3
 BYTE   W36
 BYTE   N18  Fn3
 BYTE   W24
 BYTE   N09  Cn4
 BYTE   W14
 BYTE   FINE

//**************** Track 3 (Midi-Chn.2) ****************//

FE04LightandDarkMonopolyRubix_003:
// 000   ----------------------------------------
 BYTE   KEYSH   FE04LightandDarkMonopolyRubix_key+0
 BYTE   PAN   c_v+0
 BYTE   VOL   8*FE04LightandDarkMonopolyRubix_mvl/mxv
 BYTE   MOD 0
 BYTE   BEND   c_v+0
 BYTE   W06
 BYTE   VOICE   60
 BYTE   PAN   c_v+26
 BYTE   VOL   35*FE04LightandDarkMonopolyRubix_mvl/mxv
 BYTE   N42  Fn2  v127
 BYTE   W48
 BYTE   Gn2
 BYTE   W42
// 001   ----------------------------------------
 BYTE   W06
 BYTE   An2
 BYTE   W48
 BYTE   As2
 BYTE   W42
// 002   ----------------------------------------
Label_2_01271CE8:
 BYTE   W06
 BYTE   PAN   c_v+26
 BYTE   N10  Dn2  v127
 BYTE   W12
 BYTE   N10
 BYTE   W24
 BYTE   N10
 BYTE   W12
 BYTE   As1
 BYTE   W12
 BYTE   N10
 BYTE   W24
 BYTE   N10
 BYTE   W06
 BYTE   PEND 
// 003   ----------------------------------------
Label_2_01271CFA:
 BYTE   W06
 BYTE   N10  Cn2  v127
 BYTE   W12
 BYTE   N10
 BYTE   W24
 BYTE   N10
 BYTE   W12
 BYTE   Fn2
 BYTE   W12
 BYTE   N10
 BYTE   W24
 BYTE   En2
 BYTE   W06
 BYTE   PEND 
// 004   ----------------------------------------
 BYTE   W06
 BYTE   Dn2
 BYTE   W12
 BYTE   N10
 BYTE   W24
 BYTE   N10
 BYTE   W12
 BYTE   Gn1
 BYTE   W12
 BYTE   N10
 BYTE   W24
 BYTE   N10
 BYTE   W06
// 005   ----------------------------------------
 BYTE   W06
 BYTE   Cn2
 BYTE   W12
 BYTE   N21
 BYTE   W24
 BYTE   N10
 BYTE   W12
 BYTE   N10
 BYTE   W12
 BYTE   N21
 BYTE   W24
 BYTE   N10
 BYTE   W06
// 006   ----------------------------------------
 BYTE   W06
 BYTE   Dn2
 BYTE   W12
 BYTE   N10
 BYTE   W24
 BYTE   N10
 BYTE   W12
 BYTE   As1
 BYTE   W12
 BYTE   N10
 BYTE   W24
 BYTE   N10
 BYTE   W06
// 007   ----------------------------------------
 BYTE   PATT
  POIN2 Label_2_01271CFA
// 008   ----------------------------------------
 BYTE   W06
 BYTE   N10  As1  v127
 BYTE   W12
 BYTE   N10
 BYTE   W24
 BYTE   N10
 BYTE   W12
 BYTE   Cn2
 BYTE   W12
 BYTE   N10
 BYTE   W24
 BYTE   N10
 BYTE   W06
// 009   ----------------------------------------
 BYTE   W06
 BYTE   VOICE   48
 BYTE   PAN   c_v+11
 BYTE   VOL   56*FE04LightandDarkMonopolyRubix_mvl/mxv
 BYTE   W12
 BYTE   N05  An3
 BYTE   W06
 BYTE   Gn3
 BYTE   W06
 BYTE   N11  An3
 BYTE   W12
 BYTE   Cn4
 BYTE   W12
 BYTE   N23  Bn3
 BYTE   W24
 BYTE   N11  Dn4
 BYTE   W12
 BYTE   Bn3
 BYTE   W06
// 010   ----------------------------------------
 BYTE   W06
 BYTE   Cn4
 BYTE   W18
 BYTE   N05  An3
 BYTE   W06
 BYTE   N68  Bn3
 BYTE   W66
// 011   ----------------------------------------
 BYTE   W18
 BYTE   N05  An3
 BYTE   W06
 BYTE   Gn3
 BYTE   W06
 BYTE   N11  An3
 BYTE   W12
 BYTE   Cn4
 BYTE   W12
 BYTE   N23  Bn3
 BYTE   W24
 BYTE   N11  Dn4
 BYTE   W12
 BYTE   Bn3
 BYTE   W06
// 012   ----------------------------------------
 BYTE   W06
 BYTE   Cn4
 BYTE   W18
 BYTE   N05  Gn4
 BYTE   W06
 BYTE   N56
 BYTE   W66
// 013   ----------------------------------------
 BYTE   W06
 BYTE   VOICE   45
 BYTE   PAN   c_v-63
 BYTE   VOL   35*FE04LightandDarkMonopolyRubix_mvl/mxv
 BYTE   N11  Ds3
 BYTE   W12
 BYTE   PAN   c_v-54
 BYTE   N11  As2
 BYTE   W12
 BYTE   PAN   c_v-44
 BYTE   N11  Ds3
 BYTE   W12
 BYTE   PAN   c_v-34
 BYTE   N11  Gn3
 BYTE   W12
 BYTE   PAN   c_v-24
 BYTE   N44  As3
 BYTE   W42
// 014   ----------------------------------------
Label_2_01271DA1:
 BYTE   W06
 BYTE   PAN   c_v-63
 BYTE   N11  Dn3  v127
 BYTE   W12
 BYTE   PAN   c_v-54
 BYTE   N11  An2
 BYTE   W12
 BYTE   PAN   c_v-44
 BYTE   N11  Dn3
 BYTE   W12
 BYTE   PAN   c_v-34
 BYTE   N11  Fn3
 BYTE   W12
 BYTE   PAN   c_v-24
 BYTE   N44  An3
 BYTE   W42
 BYTE   PEND 
// 015   ----------------------------------------
 BYTE   W06
 BYTE   PAN   c_v-63
 BYTE   N11  Ds3
 BYTE   W12
 BYTE   PAN   c_v-54
 BYTE   N11  As2
 BYTE   W12
 BYTE   PAN   c_v-44
 BYTE   N11  Ds3
 BYTE   W12
 BYTE   PAN   c_v-34
 BYTE   N11  Gn3
 BYTE   W12
 BYTE   PAN   c_v-24
 BYTE   N44  As3
 BYTE   W42
// 016   ----------------------------------------
 BYTE   PATT
  POIN2 Label_2_01271DA1
// 017   ----------------------------------------
 BYTE   W06
 BYTE   PAN   c_v-63
 BYTE   N11  Cn3  v127
 BYTE   W12
 BYTE   PAN   c_v-54
 BYTE   N11  Gn2
 BYTE   W12
 BYTE   PAN   c_v-44
 BYTE   N11  Cn3
 BYTE   W12
 BYTE   PAN   c_v-34
 BYTE   N11  Ds3
 BYTE   W12
 BYTE   PAN   c_v-24
 BYTE   N44  Gn3
 BYTE   W42
// 018   ----------------------------------------
 BYTE   W06
 BYTE   PAN   c_v-63
 BYTE   N11  As2
 BYTE   W12
 BYTE   PAN   c_v-54
 BYTE   N11  Fn2
 BYTE   W12
 BYTE   PAN   c_v-44
 BYTE   N11  As2
 BYTE   W12
 BYTE   PAN   c_v-34
 BYTE   N11  Dn3
 BYTE   W12
 BYTE   PAN   c_v-24
 BYTE   N44  Fn3
 BYTE   W42
// 019   ----------------------------------------
Label_2_01271E11:
 BYTE   W06
 BYTE   PAN   c_v-63
 BYTE   N11  An2  v127
 BYTE   W12
 BYTE   PAN   c_v-54
 BYTE   N11  En2
 BYTE   W12
 BYTE   PAN   c_v-44
 BYTE   N11  An2
 BYTE   W12
 BYTE   PAN   c_v-34
 BYTE   N11  Cn3
 BYTE   W12
 BYTE   PAN   c_v-24
 BYTE   N44  En3
 BYTE   W42
 BYTE   PEND 
// 020   ----------------------------------------
 BYTE   PATT
  POIN2 Label_2_01271E11
// 021   ----------------------------------------
 BYTE   W06
 BYTE   VOICE   60
 BYTE   PAN   c_v-39
 BYTE   VOL   35*FE04LightandDarkMonopolyRubix_mvl/mxv
 BYTE   N09  An2  v127
 BYTE   W12
 BYTE   N09
 BYTE   W36
 BYTE   Gn2
 BYTE   W12
 BYTE   N09
 BYTE   W30
// 022   ----------------------------------------
Label_2_01271E43:
 BYTE   W06
 BYTE   N09  Fn2  v127
 BYTE   W12
 BYTE   N09
 BYTE   W48
 BYTE   N09
 BYTE   W12
 BYTE   VOL   56*FE04LightandDarkMonopolyRubix_mvl/mxv
 BYTE   N18
 BYTE   W18
 BYTE   PEND 
// 023   ----------------------------------------
 BYTE   W06
 BYTE   VOL   35*FE04LightandDarkMonopolyRubix_mvl/mxv
 BYTE   N09  An2
 BYTE   W12
 BYTE   N09
 BYTE   W36
 BYTE   Gn2
 BYTE   W12
 BYTE   N09
 BYTE   W30
// 024   ----------------------------------------
 BYTE   PATT
  POIN2 Label_2_01271E43
// 025   ----------------------------------------
 BYTE   W06
 BYTE   VOL   35*FE04LightandDarkMonopolyRubix_mvl/mxv
 BYTE   N09  Fn2  v127
 BYTE   W12
 BYTE   N09
 BYTE   W36
 BYTE   N09
 BYTE   W12
 BYTE   N09
 BYTE   W30
// 026   ----------------------------------------
 BYTE   W06
 BYTE   Gn2
 BYTE   W12
 BYTE   N09
 BYTE   W36
 BYTE   N09
 BYTE   W12
 BYTE   N09
 BYTE   W30
// 027   ----------------------------------------
 BYTE   PATT
  POIN2 Label_2_01271CE8
// 028   ----------------------------------------
 BYTE   GoTo
  POIN2 Label_2_01271CFA
// 029   ----------------------------------------
 BYTE   W06
 BYTE   N10  Cn2  v127
 BYTE   W12
 BYTE   N10
 BYTE   W24
 BYTE   N10
 BYTE   W12
 BYTE   Fn2
 BYTE   W12
 BYTE   N10
 BYTE   W24
 BYTE   W02
 BYTE   FINE

//**************** Track 4 (Midi-Chn.3) ****************//

FE04LightandDarkMonopolyRubix_004:
// 000   ----------------------------------------
 BYTE   KEYSH   FE04LightandDarkMonopolyRubix_key+0
 BYTE   PAN   c_v+0
 BYTE   VOL   8*FE04LightandDarkMonopolyRubix_mvl/mxv
 BYTE   MOD 0
 BYTE   BEND   c_v+0
 BYTE   W96
// 001   ----------------------------------------
 BYTE   W96
// 002   ----------------------------------------
Label_3_01269A38:
 BYTE   W06
 BYTE   VOICE   60
 BYTE   PAN   c_v-44
 BYTE   VOL   35*FE04LightandDarkMonopolyRubix_mvl/mxv
 BYTE   N10  An2  v127
 BYTE   W12
 BYTE   N10
 BYTE   W24
 BYTE   N10
 BYTE   W12
 BYTE   Fn2
 BYTE   W12
 BYTE   N10
 BYTE   W24
 BYTE   N10
 BYTE   W06
 BYTE   PEND 
// 003   ----------------------------------------
Label_3_01269A4E:
 BYTE   W06
 BYTE   N10  Gn2  v127
 BYTE   W12
 BYTE   N10
 BYTE   W24
 BYTE   N10
 BYTE   W12
 BYTE   Cn3
 BYTE   W12
 BYTE   N10
 BYTE   W24
 BYTE   N10
 BYTE   W06
 BYTE   PEND 
// 004   ----------------------------------------
 BYTE   W06
 BYTE   As2
 BYTE   W12
 BYTE   N10
 BYTE   W24
 BYTE   N10
 BYTE   W12
 BYTE   Dn2
 BYTE   W12
 BYTE   N10
 BYTE   W24
 BYTE   N10
 BYTE   W06
// 005   ----------------------------------------
 BYTE   W06
 BYTE   Gn2
 BYTE   W12
 BYTE   N21
 BYTE   W24
 BYTE   N10
 BYTE   W12
 BYTE   N10
 BYTE   W12
 BYTE   N21
 BYTE   W24
 BYTE   N10
 BYTE   W06
// 006   ----------------------------------------
 BYTE   W06
 BYTE   An2
 BYTE   W12
 BYTE   N10
 BYTE   W24
 BYTE   N10
 BYTE   W12
 BYTE   Fn2
 BYTE   W12
 BYTE   N10
 BYTE   W24
 BYTE   N10
 BYTE   W06
// 007   ----------------------------------------
 BYTE   PATT
  POIN2 Label_3_01269A4E
// 008   ----------------------------------------
 BYTE   W06
 BYTE   N10  Fn2  v127
 BYTE   W12
 BYTE   N10
 BYTE   W24
 BYTE   N10
 BYTE   W12
 BYTE   Gn2
 BYTE   W12
 BYTE   N10
 BYTE   W24
 BYTE   N10
 BYTE   W06
// 009   ----------------------------------------
 BYTE   W06
 BYTE   VOICE   48
 BYTE   PAN   c_v+6
 BYTE   VOL   56*FE04LightandDarkMonopolyRubix_mvl/mxv
 BYTE   W12
 BYTE   N05  Fn3
 BYTE   W06
 BYTE   En3
 BYTE   W06
 BYTE   N11  Fn3
 BYTE   W12
 BYTE   An3
 BYTE   W12
 BYTE   N23  Gn3
 BYTE   W24
 BYTE   N11  Bn3
 BYTE   W12
 BYTE   Gn3
 BYTE   W06
// 010   ----------------------------------------
 BYTE   W06
 BYTE   An3
 BYTE   W18
 BYTE   N05  Fn3
 BYTE   W06
 BYTE   N68  Gn3
 BYTE   W66
// 011   ----------------------------------------
 BYTE   W18
 BYTE   N05  Fn3
 BYTE   W06
 BYTE   En3
 BYTE   W06
 BYTE   N11  Fn3
 BYTE   W12
 BYTE   An3
 BYTE   W12
 BYTE   N23  Gn3
 BYTE   W24
 BYTE   N11  Bn3
 BYTE   W12
 BYTE   Gn3
 BYTE   W06
// 012   ----------------------------------------
 BYTE   W06
 BYTE   N11
 BYTE   W18
 BYTE   N05  Cn4
 BYTE   W06
 BYTE   N56
 BYTE   W66
// 013   ----------------------------------------
 BYTE   W06
 BYTE   VOICE   60
 BYTE   PAN   c_v-24
 BYTE   VOL   42*FE04LightandDarkMonopolyRubix_mvl/mxv
 BYTE   N09  Ds2
 BYTE   W12
 BYTE   PAN   c_v-14
 BYTE   N09  As1
 BYTE   W12
 BYTE   PAN   c_v-4
 BYTE   N09  Ds2
 BYTE   W12
 BYTE   PAN   c_v+6
 BYTE   N09  Gn2
 BYTE   W12
 BYTE   PAN   c_v+16
 BYTE   N36  As2
 BYTE   W42
// 014   ----------------------------------------
Label_3_01269AF5:
 BYTE   W06
 BYTE   PAN   c_v-24
 BYTE   N09  Dn2  v127
 BYTE   W12
 BYTE   PAN   c_v-14
 BYTE   N09  An1
 BYTE   W12
 BYTE   PAN   c_v-4
 BYTE   N09  Dn2
 BYTE   W12
 BYTE   PAN   c_v+6
 BYTE   N09  Fn2
 BYTE   W12
 BYTE   PAN   c_v+16
 BYTE   N36  An2
 BYTE   W42
 BYTE   PEND 
// 015   ----------------------------------------
 BYTE   W06
 BYTE   PAN   c_v-24
 BYTE   N09  Ds2
 BYTE   W12
 BYTE   PAN   c_v-14
 BYTE   N09  As1
 BYTE   W12
 BYTE   PAN   c_v-4
 BYTE   N09  Ds2
 BYTE   W12
 BYTE   PAN   c_v+6
 BYTE   N09  Gn2
 BYTE   W12
 BYTE   PAN   c_v+16
 BYTE   N36  As2
 BYTE   W42
// 016   ----------------------------------------
 BYTE   PATT
  POIN2 Label_3_01269AF5
// 017   ----------------------------------------
 BYTE   W06
 BYTE   PAN   c_v-24
 BYTE   N09  Cn2  v127
 BYTE   W12
 BYTE   PAN   c_v-14
 BYTE   N09  Gn1
 BYTE   W12
 BYTE   PAN   c_v-4
 BYTE   N09  Cn2
 BYTE   W12
 BYTE   PAN   c_v+6
 BYTE   N09  Ds2
 BYTE   W12
 BYTE   PAN   c_v+16
 BYTE   N36  Gn2
 BYTE   W42
// 018   ----------------------------------------
 BYTE   W06
 BYTE   PAN   c_v-24
 BYTE   N09  As1
 BYTE   W12
 BYTE   PAN   c_v-14
 BYTE   N09  Fn1
 BYTE   W12
 BYTE   PAN   c_v-4
 BYTE   N09  As1
 BYTE   W12
 BYTE   PAN   c_v+6
 BYTE   N09  Dn2
 BYTE   W12
 BYTE   PAN   c_v+16
 BYTE   N36  Fn2
 BYTE   W42
// 019   ----------------------------------------
Label_3_01269B65:
 BYTE   W06
 BYTE   PAN   c_v-24
 BYTE   N09  An1  v127
 BYTE   W12
 BYTE   PAN   c_v-14
 BYTE   N09  En1
 BYTE   W12
 BYTE   PAN   c_v-4
 BYTE   N09  An1
 BYTE   W12
 BYTE   PAN   c_v+6
 BYTE   N09  Cn2
 BYTE   W12
 BYTE   PAN   c_v+16
 BYTE   N36  En2
 BYTE   W42
 BYTE   PEND 
// 020   ----------------------------------------
 BYTE   PATT
  POIN2 Label_3_01269B65
// 021   ----------------------------------------
 BYTE   W06
 BYTE   PAN   c_v+26
 BYTE   VOL   35*FE04LightandDarkMonopolyRubix_mvl/mxv
 BYTE   N09  Dn2  v127
 BYTE   W12
 BYTE   N09
 BYTE   W36
 BYTE   Cn2
 BYTE   W12
 BYTE   N09
 BYTE   W30
// 022   ----------------------------------------
 BYTE   W06
 BYTE   As1
 BYTE   W12
 BYTE   N09
 BYTE   W48
 BYTE   N09
 BYTE   W12
 BYTE   VOL   62*FE04LightandDarkMonopolyRubix_mvl/mxv
 BYTE   N18
 BYTE   W18
// 023   ----------------------------------------
 BYTE   W06
 BYTE   VOL   42*FE04LightandDarkMonopolyRubix_mvl/mxv
 BYTE   N09  Dn2
 BYTE   W12
 BYTE   N09
 BYTE   W36
 BYTE   Cn2
 BYTE   W12
 BYTE   N09
 BYTE   W30
// 024   ----------------------------------------
 BYTE   W06
 BYTE   Bn1
 BYTE   W12
 BYTE   N09
 BYTE   W48
 BYTE   N09
 BYTE   W12
 BYTE   VOL   56*FE04LightandDarkMonopolyRubix_mvl/mxv
 BYTE   N18
 BYTE   W18
// 025   ----------------------------------------
 BYTE   W06
 BYTE   VOL   35*FE04LightandDarkMonopolyRubix_mvl/mxv
 BYTE   N09  As1
 BYTE   W12
 BYTE   N09
 BYTE   W36
 BYTE   N09
 BYTE   W12
 BYTE   N09
 BYTE   W30
// 026   ----------------------------------------
 BYTE   W06
 BYTE   Cn2
 BYTE   W12
 BYTE   N09
 BYTE   W36
 BYTE   N09
 BYTE   W12
 BYTE   N09
 BYTE   W30
// 027   ----------------------------------------
 BYTE   PATT
  POIN2 Label_3_01269A38
// 028   ----------------------------------------
 BYTE   GoTo
  POIN2 Label_3_01269A4E
// 029   ----------------------------------------
 BYTE   W06
 BYTE   N10  Gn2  v127
 BYTE   W12
 BYTE   N10
 BYTE   W24
 BYTE   N10
 BYTE   W12
 BYTE   Cn3
 BYTE   W12
 BYTE   N10
 BYTE   W24
 BYTE   W02
 BYTE   FINE

//**************** Track 5 (Midi-Chn.4) ****************//

FE04LightandDarkMonopolyRubix_005:
// 000   ----------------------------------------
 BYTE   KEYSH   FE04LightandDarkMonopolyRubix_key+0
 BYTE   PAN   c_v+0
 BYTE   VOL   18*FE04LightandDarkMonopolyRubix_mvl/mxv
 BYTE   MOD 0
 BYTE   BEND   c_v+0
 BYTE   W96
// 001   ----------------------------------------
 BYTE   W96
// 002   ----------------------------------------
Label_4_01269C04:
 BYTE   W06
 BYTE   VOICE   48
 BYTE   PAN   c_v-44
 BYTE   VOL   45*FE04LightandDarkMonopolyRubix_mvl/mxv
 BYTE   W90
 BYTE   PEND 
// 003   ----------------------------------------
Label_4_01269C0D:
 BYTE   W96
// 004   ----------------------------------------
 BYTE   W96
// 005   ----------------------------------------
 BYTE   W96
// 006   ----------------------------------------
 BYTE   W96
// 007   ----------------------------------------
 BYTE   W96
// 008   ----------------------------------------
 BYTE   W96
// 009   ----------------------------------------
 BYTE   W06
 BYTE   TIE  Fn2  v127
 BYTE   W90
// 010   ----------------------------------------
 BYTE   W56
 BYTE   W01
 BYTE   EOT
 BYTE   W21
 BYTE   N10
 BYTE   W12
 BYTE   N10
 BYTE   W06
// 011   ----------------------------------------
 BYTE   W06
 BYTE   N84
 BYTE   W90
// 012   ----------------------------------------
 BYTE   W06
 BYTE   N72  En2
 BYTE   W84
 BYTE   N10  Cn2
 BYTE   W06
// 013   ----------------------------------------
 BYTE   W06
 BYTE   PAN   c_v-44
 BYTE   VOL   32*FE04LightandDarkMonopolyRubix_mvl/mxv
 BYTE   N09  Ds2
 BYTE   W12
 BYTE   PAN   c_v-34
 BYTE   N09  As1
 BYTE   W12
 BYTE   PAN   c_v-24
 BYTE   N09  Ds2
 BYTE   W12
 BYTE   PAN   c_v-14
 BYTE   N09  Gn2
 BYTE   W12
 BYTE   PAN   c_v-4
 BYTE   N36  As2
 BYTE   W42
// 014   ----------------------------------------
Label_4_01269C46:
 BYTE   W06
 BYTE   PAN   c_v-44
 BYTE   N09  Dn2  v127
 BYTE   W12
 BYTE   PAN   c_v-34
 BYTE   N09  An1
 BYTE   W12
 BYTE   PAN   c_v-24
 BYTE   N09  Dn2
 BYTE   W12
 BYTE   PAN   c_v-14
 BYTE   N09  Fn2
 BYTE   W12
 BYTE   PAN   c_v-4
 BYTE   N36  An2
 BYTE   W42
 BYTE   PEND 
// 015   ----------------------------------------
 BYTE   W06
 BYTE   PAN   c_v-44
 BYTE   N09  Ds2
 BYTE   W12
 BYTE   PAN   c_v-34
 BYTE   N09  As1
 BYTE   W12
 BYTE   PAN   c_v-24
 BYTE   N09  Ds2
 BYTE   W12
 BYTE   PAN   c_v-14
 BYTE   N09  Gn2
 BYTE   W12
 BYTE   PAN   c_v-4
 BYTE   N36  As2
 BYTE   W42
// 016   ----------------------------------------
 BYTE   PATT
  POIN2 Label_4_01269C46
// 017   ----------------------------------------
 BYTE   W06
 BYTE   PAN   c_v-44
 BYTE   N09  Cn2  v127
 BYTE   W12
 BYTE   PAN   c_v-34
 BYTE   N09  Gn1
 BYTE   W12
 BYTE   PAN   c_v-24
 BYTE   N09  Cn2
 BYTE   W12
 BYTE   PAN   c_v-14
 BYTE   N09  Ds2
 BYTE   W12
 BYTE   PAN   c_v-4
 BYTE   N36  Gn2
 BYTE   W42
// 018   ----------------------------------------
 BYTE   W06
 BYTE   PAN   c_v-44
 BYTE   N09  As1
 BYTE   W12
 BYTE   PAN   c_v-34
 BYTE   N09  Fn1
 BYTE   W12
 BYTE   PAN   c_v-24
 BYTE   N09  As1
 BYTE   W12
 BYTE   PAN   c_v-14
 BYTE   N09  Dn2
 BYTE   W12
 BYTE   PAN   c_v-4
 BYTE   N36  Fn2
 BYTE   W42
// 019   ----------------------------------------
Label_4_01269CB6:
 BYTE   W06
 BYTE   PAN   c_v-44
 BYTE   N09  An1  v127
 BYTE   W12
 BYTE   PAN   c_v-34
 BYTE   N09  En1
 BYTE   W12
 BYTE   PAN   c_v-24
 BYTE   N09  An1
 BYTE   W12
 BYTE   PAN   c_v-14
 BYTE   N09  Cn2
 BYTE   W12
 BYTE   PAN   c_v-4
 BYTE   N36  En2
 BYTE   W42
 BYTE   PEND 
// 020   ----------------------------------------
 BYTE   PATT
  POIN2 Label_4_01269CB6
// 021   ----------------------------------------
 BYTE   W06
 BYTE   VOL   52*FE04LightandDarkMonopolyRubix_mvl/mxv
 BYTE   W90
// 022   ----------------------------------------
 BYTE   W78
 BYTE   N21  As1  v127
 BYTE   W18
// 023   ----------------------------------------
 BYTE   W96
// 024   ----------------------------------------
 BYTE   W78
 BYTE   Bn1
 BYTE   W18
// 025   ----------------------------------------
 BYTE   W96
// 026   ----------------------------------------
 BYTE   W96
// 027   ----------------------------------------
 BYTE   PATT
  POIN2 Label_4_01269C04
// 028   ----------------------------------------
 BYTE   GoTo
  POIN2 Label_4_01269C0D
// 029   ----------------------------------------
 BYTE   W92
 BYTE   FINE

//**************** Track 6 (Midi-Chn.5) ****************//

FE04LightandDarkMonopolyRubix_006:
// 000   ----------------------------------------
 BYTE   KEYSH   FE04LightandDarkMonopolyRubix_key+0
 BYTE   PAN   c_v+0
 BYTE   VOL   33*FE04LightandDarkMonopolyRubix_mvl/mxv
 BYTE   MOD 0
 BYTE   BEND   c_v+0
 BYTE   W06
 BYTE   VOICE   63
 BYTE   PAN   c_v+0
 BYTE   VOL   54*FE04LightandDarkMonopolyRubix_mvl/mxv
 BYTE   N05  Cn1  v127
 BYTE   W12
 BYTE   N10
 BYTE   W24
 BYTE   N05
 BYTE   W12
 BYTE   N05
 BYTE   W12
 BYTE   N10
 BYTE   W24
 BYTE   N05
 BYTE   W06
// 001   ----------------------------------------
 BYTE   W06
 BYTE   N05
 BYTE   W12
 BYTE   N10
 BYTE   W24
 BYTE   N05
 BYTE   W12
 BYTE   N05
 BYTE   W12
 BYTE   N10
 BYTE   W24
 BYTE   N05
 BYTE   W06
// 002   ----------------------------------------
 BYTE   W96
// 003   ----------------------------------------
Label_5_553F85:
 BYTE   W96
// 004   ----------------------------------------
 BYTE   W96
// 005   ----------------------------------------
 BYTE   W96
// 006   ----------------------------------------
 BYTE   W96
// 007   ----------------------------------------
 BYTE   W96
// 008   ----------------------------------------
 BYTE   W96
// 009   ----------------------------------------
 BYTE   W06
 BYTE   VOL   60*FE04LightandDarkMonopolyRubix_mvl/mxv
 BYTE   TIE  Fn0  v127
 BYTE   W90
// 010   ----------------------------------------
 BYTE   W78
 BYTE   EOT
 BYTE   N12
 BYTE   W12
 BYTE   N12
 BYTE   W06
// 011   ----------------------------------------
 BYTE   W06
 BYTE   N84
 BYTE   W90
// 012   ----------------------------------------
 BYTE   W06
 BYTE   N72  En0
 BYTE   W84
 BYTE   N12  Cn0
 BYTE   W06
// 013   ----------------------------------------
 BYTE   W06
 BYTE   N96  Ds0
 BYTE   W90
// 014   ----------------------------------------
 BYTE   W06
 BYTE   Dn0
 BYTE   W90
// 015   ----------------------------------------
 BYTE   W06
 BYTE   Ds0
 BYTE   W90
// 016   ----------------------------------------
 BYTE   W06
 BYTE   Dn0
 BYTE   W90
// 017   ----------------------------------------
 BYTE   W06
 BYTE   Cn0
 BYTE   W90
// 018   ----------------------------------------
 BYTE   W06
 BYTE   AsM1
 BYTE   W90
// 019   ----------------------------------------
 BYTE   W06
 BYTE   AnM1
 BYTE   W90
// 020   ----------------------------------------
 BYTE   W06
 BYTE   N96
 BYTE   W90
// 021   ----------------------------------------
Label_5_553FBB:
 BYTE   W06
 BYTE   N12  Dn0  v127
 BYTE   W12
 BYTE   N12
 BYTE   W36
 BYTE   Cn0
 BYTE   W12
 BYTE   N12
 BYTE   W30
 BYTE   PEND 
// 022   ----------------------------------------
 BYTE   W06
 BYTE   AsM1
 BYTE   W12
 BYTE   N12
 BYTE   W48
 BYTE   N12
 BYTE   W12
 BYTE   N24
 BYTE   W18
// 023   ----------------------------------------
 BYTE   PATT
  POIN2 Label_5_553FBB
// 024   ----------------------------------------
 BYTE   W06
 BYTE   N12  BnM1  v127
 BYTE   W12
 BYTE   N12
 BYTE   W48
 BYTE   N12
 BYTE   W12
 BYTE   N24
 BYTE   W18
// 025   ----------------------------------------
 BYTE   W06
 BYTE   N12  AsM1
 BYTE   W12
 BYTE   N12
 BYTE   W36
 BYTE   N12
 BYTE   W12
 BYTE   N12
 BYTE   W30
// 026   ----------------------------------------
 BYTE   W06
 BYTE   Cn0
 BYTE   W12
 BYTE   N12
 BYTE   W36
 BYTE   N12
 BYTE   W12
 BYTE   N12
 BYTE   W30
// 027   ----------------------------------------
 BYTE   W96
// 028   ----------------------------------------
 BYTE   GoTo
  POIN2 Label_5_553F85
// 029   ----------------------------------------
 BYTE   W92
 BYTE   FINE

//**************** Track 7 (Midi-Chn.6) ****************//

FE04LightandDarkMonopolyRubix_007:
// 000   ----------------------------------------
 BYTE   KEYSH   FE04LightandDarkMonopolyRubix_key+0
 BYTE   PAN   c_v+0
 BYTE   VOL   18*FE04LightandDarkMonopolyRubix_mvl/mxv
 BYTE   MOD 0
 BYTE   BEND   c_v+0
 BYTE   W06
 BYTE   VOICE   121
 BYTE   VOL   45*FE04LightandDarkMonopolyRubix_mvl/mxv
 BYTE   W90
// 001   ----------------------------------------
 BYTE   W90
 BYTE   N01  Cn1  v127
 BYTE   W06
// 002   ----------------------------------------
Label_6_01271EA9:
 BYTE   W06
 BYTE   N01  Cs1  v127
 BYTE   N01  En1
 BYTE   W12
 BYTE   Cs1  v100
 BYTE   N01  En1
 BYTE   W24
 BYTE   Cs1
 BYTE   N01  En1
 BYTE   W12
 BYTE   Cs1  v127
 BYTE   N01  En1
 BYTE   W12
 BYTE   Cs1  v100
 BYTE   N01  En1
 BYTE   W24
 BYTE   Cs1
 BYTE   N01  En1
 BYTE   W06
 BYTE   PEND 
// 003   ----------------------------------------
Label_6_01271EC8:
// 004   ----------------------------------------
 BYTE   PATT
  POIN2 Label_6_01271EA9
// 005   ----------------------------------------
 BYTE   PATT
  POIN2 Label_6_01271EA9
// 006   ----------------------------------------
 BYTE   PATT
  POIN2 Label_6_01271EA9
// 007   ----------------------------------------
 BYTE   PATT
  POIN2 Label_6_01271EA9
// 008   ----------------------------------------
 BYTE   PATT
  POIN2 Label_6_01271EA9
// 009   ----------------------------------------
 BYTE   W06
 BYTE   N01  Cs1  v127
 BYTE   N01  En1
 BYTE   W12
 BYTE   Cs1  v100
 BYTE   N01  En1
 BYTE   W24
 BYTE   Cs1
 BYTE   N01  En1
 BYTE   W12
 BYTE   Cs1  v127
 BYTE   N01  En1
 BYTE   W12
 BYTE   Cs1  v100
 BYTE   N01  En1
 BYTE   W12
 BYTE   An1
 BYTE   W12
 BYTE   Fn1
 BYTE   W06
// 010   ----------------------------------------
Label_6_01271EFF:
 BYTE   W06
 BYTE   N03  Fs1  v100
 BYTE   W24
 BYTE   N03
 BYTE   W24
 BYTE   N03
 BYTE   W24
 BYTE   N03
 BYTE   W18
 BYTE   PEND 
// 011   ----------------------------------------
 BYTE   PATT
  POIN2 Label_6_01271EFF
// 012   ----------------------------------------
 BYTE   PATT
  POIN2 Label_6_01271EFF
// 013   ----------------------------------------
 BYTE   W06
 BYTE   N03  Fs1  v100
 BYTE   W24
 BYTE   N03
 BYTE   W24
 BYTE   N01
 BYTE   W12
 BYTE   Cs1
 BYTE   N01  En1
 BYTE   W24
 BYTE   Cs1
 BYTE   N01  En1
 BYTE   W06
// 014   ----------------------------------------
 BYTE   W96
// 015   ----------------------------------------
 BYTE   W96
// 016   ----------------------------------------
 BYTE   W96
// 017   ----------------------------------------
 BYTE   W96
// 018   ----------------------------------------
 BYTE   W96
// 019   ----------------------------------------
 BYTE   W96
// 020   ----------------------------------------
 BYTE   W96
// 021   ----------------------------------------
 BYTE   W96
// 022   ----------------------------------------
 BYTE   W96
// 023   ----------------------------------------
 BYTE   W78
 BYTE   N03  Cs1
 BYTE   N03  En1
 BYTE   W18
// 024   ----------------------------------------
 BYTE   W06
 BYTE   N01  Cn1
 BYTE   W12
 BYTE   N01
 BYTE   W36
 BYTE   N01
 BYTE   W12
 BYTE   N01
 BYTE   W30
// 025   ----------------------------------------
 BYTE   W06
 BYTE   N01
 BYTE   W12
 BYTE   N01
 BYTE   W48
 BYTE   N01
 BYTE   W12
 BYTE   Cs1
 BYTE   N01  En1
 BYTE   W12
 BYTE   Cs1  v080
 BYTE   N01  En1
 BYTE   W06
// 026   ----------------------------------------
 BYTE   W06
 BYTE   Cn1  v127
 BYTE   W12
 BYTE   N01
 BYTE   W36
 BYTE   N01
 BYTE   W12
 BYTE   N01
 BYTE   W30
// 027   ----------------------------------------
 BYTE   W06
 BYTE   N01
 BYTE   W12
 BYTE   N01
 BYTE   W48
 BYTE   N01
 BYTE   W12
 BYTE   Cn2
 BYTE   W12
 BYTE   An1
 BYTE   W06
// 028   ----------------------------------------
 BYTE   PATT
  POIN2 Label_6_01271EA9
// 029   ----------------------------------------
 BYTE   GoTo
  POIN2 Label_6_01271EC8
// 030   ----------------------------------------
 BYTE   W06
 BYTE   N01  Cs1  v127
 BYTE   N01  En1
 BYTE   W12
 BYTE   Cs1  v100
 BYTE   N01  En1
 BYTE   W24
 BYTE   Cs1
 BYTE   N01  En1
 BYTE   W12
 BYTE   Cs1  v127
 BYTE   N01  En1
 BYTE   W12
 BYTE   Cs1  v100
 BYTE   N01  En1
 BYTE   W24
 BYTE   Cs1
 BYTE   N01  En1
 BYTE   W02
 BYTE   FINE

//******************************************************//
	ALIGN 4

FE04LightandDarkMonopolyRubix:
	BYTE	7	// NumTrks
	BYTE	0	// NumBlks
	BYTE	FE04LightandDarkMonopolyRubix_pri	// Priority
	BYTE	FE04LightandDarkMonopolyRubix_rev	// Reverb.
    
	POIN2	FE04LightandDarkMonopolyRubix_grp
    
	POIN2	FE04LightandDarkMonopolyRubix_001
	POIN2	FE04LightandDarkMonopolyRubix_002
	POIN2	FE04LightandDarkMonopolyRubix_003
	POIN2	FE04LightandDarkMonopolyRubix_004
	POIN2	FE04LightandDarkMonopolyRubix_005
	POIN2	FE04LightandDarkMonopolyRubix_006
	POIN2	FE04LightandDarkMonopolyRubix_007

	
