//Event file generated from Sappy .s format.
	#include "MPlayDef.event"

	#define	FE04ArmyofAgustriaSurfingKyogre_grp  voicegroup000
	#define	FE04ArmyofAgustriaSurfingKyogre_pri  0
	#define	FE04ArmyofAgustriaSurfingKyogre_rev  0
	#define	FE04ArmyofAgustriaSurfingKyogre_mvl  127
	#define	FE04ArmyofAgustriaSurfingKyogre_key  0
	#define	FE04ArmyofAgustriaSurfingKyogre_tbs  1
	#define	FE04ArmyofAgustriaSurfingKyogre_exg  0
	#define	FE04ArmyofAgustriaSurfingKyogre_cmp  1

	// .rodata
	//	FE04ArmyofAgustriaSurfingKyogre
	ALIGN 4


//**************** Track 1 (Midi-Chn.0) ****************//

FE04ArmyofAgustriaSurfingKyogre_001:
// 000   ----------------------------------------
 BYTE   KEYSH   FE04ArmyofAgustriaSurfingKyogre_key+0
 BYTE   TEMPO   118*FE04ArmyofAgustriaSurfingKyogre_tbs/2
 BYTE   W96
// 001   ----------------------------------------
 BYTE   W96
// 002   ----------------------------------------
Label_0_015A0F5E:
 BYTE   W96
// 003   ----------------------------------------
 BYTE   W96
// 004   ----------------------------------------
 BYTE   VOICE   48
 BYTE   VOL   80*FE04ArmyofAgustriaSurfingKyogre_mvl/mxv
 BYTE   PAN   c_v+43
 BYTE   W60
 BYTE   N11  Dn3  v076
 BYTE   W12
 BYTE   N04  Ds3  v072
 BYTE   W12
 BYTE   N02  As3  v064
 BYTE   W12
// 005   ----------------------------------------
 BYTE   An3  v076
 BYTE   W12
 BYTE   VOL   72*FE04ArmyofAgustriaSurfingKyogre_mvl/mxv
 BYTE   N56  Gn3
 BYTE   W01
 BYTE   VOL   73*FE04ArmyofAgustriaSurfingKyogre_mvl/mxv
 BYTE   W03
 BYTE   Cs4
 BYTE   W03
 BYTE   Dn4
 BYTE   W03
 BYTE   Dn4
 BYTE   W03
 BYTE   Ds4
 BYTE   W03
 BYTE   En4
 BYTE   W03
 BYTE   En4
 BYTE   W03
 BYTE   Fn4
 BYTE   W03
 BYTE   Fs4
 BYTE   W03
 BYTE   Fs4
 BYTE   W03
 BYTE   Gn4
 BYTE   W03
 BYTE   Gs4
 BYTE   W48
 BYTE   W02
// 006   ----------------------------------------
 BYTE   W96
// 007   ----------------------------------------
 BYTE   W96
// 008   ----------------------------------------
 BYTE   W60
 BYTE   VOICE   48
 BYTE   VOL   80*FE04ArmyofAgustriaSurfingKyogre_mvl/mxv
 BYTE   PAN   c_v+43
 BYTE   N11  Dn3  v064
 BYTE   W12
 BYTE   N02  Ds3
 BYTE   W12
 BYTE   N04  As3  v072
 BYTE   W12
// 009   ----------------------------------------
 BYTE   W96
// 010   ----------------------------------------
 BYTE   W96
// 011   ----------------------------------------
 BYTE   W96
// 012   ----------------------------------------
 BYTE   W96
// 013   ----------------------------------------
 BYTE   W96
// 014   ----------------------------------------
 BYTE   W96
// 015   ----------------------------------------
 BYTE   W96
// 016   ----------------------------------------
 BYTE   W96
// 017   ----------------------------------------
 BYTE   W96
// 018   ----------------------------------------
 BYTE   W96
// 019   ----------------------------------------
 BYTE   W96
// 020   ----------------------------------------
 BYTE   VOICE   60
 BYTE   VOL   80*FE04ArmyofAgustriaSurfingKyogre_mvl/mxv
 BYTE   PAN   c_v+25
 BYTE   W24
 BYTE   N05  Gs2  v060
 BYTE   W24
 BYTE   Gs2  v068
 BYTE   W48
// 021   ----------------------------------------
 BYTE   Fs2  v060
 BYTE   W12
 BYTE   Fs2  v068
 BYTE   W12
 BYTE   Fs2  v076
 BYTE   W48
 BYTE   Gs2  v068
 BYTE   W24
// 022   ----------------------------------------
 BYTE   N05
 BYTE   W48
 BYTE   Fs2  v076
 BYTE   W12
 BYTE   Fs2  v068
 BYTE   W12
 BYTE   Fs2  v072
 BYTE   W24
// 023   ----------------------------------------
 BYTE   PAN   c_v-43
 BYTE   N07  Fn1  v084
 BYTE   W36
 BYTE   N05  Fn1  v076
 BYTE   W12
 BYTE   Fn1  v092
 BYTE   W24
 BYTE   N08  Fn1  v084
 BYTE   W24
// 024   ----------------------------------------
 BYTE   W48
 BYTE   GoTo
  POIN2 Label_0_015A0F5E
// 025   ----------------------------------------
 BYTE   W48
 BYTE   W96
// 026   ----------------------------------------
 BYTE   W96
// 027   ----------------------------------------
 BYTE   W96
// 028   ----------------------------------------
 BYTE   W96
// 029   ----------------------------------------
 BYTE   W96
// 030   ----------------------------------------
 BYTE   W96
// 031   ----------------------------------------
 BYTE   W96
// 032   ----------------------------------------
 BYTE   W96
// 033   ----------------------------------------
 BYTE   W96
// 034   ----------------------------------------
 BYTE   W96
// 035   ----------------------------------------
 BYTE   W96
// 036   ----------------------------------------
 BYTE   W96
// 037   ----------------------------------------
 BYTE   W96
// 038   ----------------------------------------
 BYTE   W96
// 039   ----------------------------------------
 BYTE   W96
// 040   ----------------------------------------
 BYTE   W96
// 041   ----------------------------------------
 BYTE   W96
// 042   ----------------------------------------
 BYTE   W32
 BYTE   W03
 BYTE   FINE

//**************** Track 2 (Midi-Chn.1) ****************//

FE04ArmyofAgustriaSurfingKyogre_002:
// 000   ----------------------------------------
 BYTE   KEYSH   FE04ArmyofAgustriaSurfingKyogre_key+0
 BYTE   VOICE   48
 BYTE   VOL   80*FE04ArmyofAgustriaSurfingKyogre_mvl/mxv
 BYTE   PAN   c_v-14
 BYTE   W13
 BYTE   N11  As2  v052
 BYTE   W12
 BYTE   N04  Cn3  v060
 BYTE   W12
 BYTE   N02  Dn3  v056
 BYTE   W12
 BYTE   Cn3  v052
 BYTE   W12
 BYTE   VOL   69*FE04ArmyofAgustriaSurfingKyogre_mvl/mxv
 BYTE   TIE  Cn3  v064
 BYTE   W01
 BYTE   VOL   69*FE04ArmyofAgustriaSurfingKyogre_mvl/mxv
 BYTE   W03
 BYTE   As3
 BYTE   W03
 BYTE   Bn3
 BYTE   W02
 BYTE   Bn3
 BYTE   W03
 BYTE   Cn4
 BYTE   W03
 BYTE   Cs4
 BYTE   W03
 BYTE   Cs4
 BYTE   W03
 BYTE   Dn4
 BYTE   W02
 BYTE   Dn4
 BYTE   W03
 BYTE   Ds4
 BYTE   W03
 BYTE   En4
 BYTE   W03
 BYTE   En4
 BYTE   W03
// 001   ----------------------------------------
 BYTE   Fn4
 BYTE   W03
 BYTE   Fs4
 BYTE   W02
 BYTE   Fs4
 BYTE   W03
 BYTE   Gn4
 BYTE   W03
 BYTE   Gs4
 BYTE   W60
 BYTE   W01
 BYTE   EOT
 BYTE   W24
// 002   ----------------------------------------
Label_1_015A104C:
 BYTE   VOICE   60
 BYTE   VOL   80*FE04ArmyofAgustriaSurfingKyogre_mvl/mxv
 BYTE   PAN   c_v-14
 BYTE   N04  Gn2  v052
 BYTE   W12
 BYTE   N03
 BYTE   W24
 BYTE   N05  Gs2  v064
 BYTE   W24
 BYTE   N04  Fn2  v072
 BYTE   W24
 BYTE   N03  Gn2
 BYTE   W12
// 003   ----------------------------------------
 BYTE   N02  Gn2  v064
 BYTE   W12
 BYTE   Gn2  v060
 BYTE   W24
 BYTE   N04  Gs2
 BYTE   W24
 BYTE   N03  Fn2  v064
 BYTE   W24
 BYTE   N02  Gn2  v060
 BYTE   W12
// 004   ----------------------------------------
 BYTE   Gn2  v052
 BYTE   W12
 BYTE   N02
 BYTE   W24
 BYTE   N04  Gs2  v072
 BYTE   W24
 BYTE   N03  Fn2  v064
 BYTE   W24
 BYTE   Gn2  v060
 BYTE   W12
// 005   ----------------------------------------
 BYTE   Gn2  v064
 BYTE   W12
 BYTE   N02  Gn2  v060
 BYTE   W24
 BYTE   N04  Gs2  v072
 BYTE   W24
 BYTE   N03  Fn2  v060
 BYTE   W24
 BYTE   N02  Gn2  v052
 BYTE   W12
// 006   ----------------------------------------
Label_1_015A1098:
 BYTE   N03  Gs2  v060
 BYTE   W12
 BYTE   N04  Gs2  v052
 BYTE   W24
 BYTE   N03  As2  v064
 BYTE   W24
 BYTE   N02  Gn2  v052
 BYTE   W24
 BYTE   N04  Gs2
 BYTE   W12
 BYTE   PEND 
 BYTE   PATT
  POIN2 Label_1_015A1098
// 007   ----------------------------------------
 BYTE   N03  Gn2  v060
 BYTE   W12
 BYTE   N04  Gn2  v052
 BYTE   W24
 BYTE   N03  Gs2  v064
 BYTE   W24
 BYTE   N02  Fn2  v052
 BYTE   W24
 BYTE   N04  Gn2
 BYTE   W12
// 008   ----------------------------------------
 BYTE   W96
// 009   ----------------------------------------
 BYTE   W96
// 010   ----------------------------------------
 BYTE   W96
// 011   ----------------------------------------
 BYTE   W96
// 012   ----------------------------------------
 BYTE   W96
// 013   ----------------------------------------
 BYTE   W96
// 014   ----------------------------------------
 BYTE   W96
// 015   ----------------------------------------
 BYTE   W96
// 016   ----------------------------------------
 BYTE   W96
// 017   ----------------------------------------
 BYTE   W96
// 018   ----------------------------------------
 BYTE   W96
// 019   ----------------------------------------
 BYTE   VOICE   60
 BYTE   VOL   80*FE04ArmyofAgustriaSurfingKyogre_mvl/mxv
 BYTE   PAN   c_v-25
 BYTE   W24
 BYTE   N05  Cn3  v068
 BYTE   W24
 BYTE   N05
 BYTE   W48
// 020   ----------------------------------------
 BYTE   As2  v060
 BYTE   W12
 BYTE   N05
 BYTE   W12
 BYTE   N05
 BYTE   W48
 BYTE   Cn3  v076
 BYTE   W24
// 021   ----------------------------------------
 BYTE   N05
 BYTE   W48
 BYTE   As2  v080
 BYTE   W12
 BYTE   As2  v088
 BYTE   W12
 BYTE   As2  v080
 BYTE   W24
// 022   ----------------------------------------
 BYTE   PAN   c_v+43
 BYTE   N07  Cn2  v076
 BYTE   W36
 BYTE   N05  Cn2  v072
 BYTE   W12
 BYTE   Cn2  v084
 BYTE   W24
 BYTE   N08
 BYTE   W24
// 023   ----------------------------------------
 BYTE   W48
 BYTE   GoTo
  POIN2 Label_1_015A104C
// 024   ----------------------------------------
 BYTE   W48
 BYTE   W96
// 025   ----------------------------------------
 BYTE   W96
// 026   ----------------------------------------
 BYTE   W96
// 027   ----------------------------------------
 BYTE   W96
// 028   ----------------------------------------
 BYTE   W96
// 029   ----------------------------------------
 BYTE   W96
// 030   ----------------------------------------
 BYTE   W96
// 031   ----------------------------------------
 BYTE   W96
// 032   ----------------------------------------
 BYTE   W96
// 033   ----------------------------------------
 BYTE   W96
// 034   ----------------------------------------
 BYTE   W96
// 035   ----------------------------------------
 BYTE   W96
// 036   ----------------------------------------
 BYTE   W96
// 037   ----------------------------------------
 BYTE   W96
// 038   ----------------------------------------
 BYTE   W96
// 039   ----------------------------------------
 BYTE   W96
// 040   ----------------------------------------
 BYTE   W96
// 041   ----------------------------------------
 BYTE   W32
 BYTE   W03
 BYTE   FINE

//**************** Track 3 (Midi-Chn.2) ****************//

FE04ArmyofAgustriaSurfingKyogre_003:
// 000   ----------------------------------------
 BYTE   KEYSH   FE04ArmyofAgustriaSurfingKyogre_key+0
 BYTE   VOICE   48
 BYTE   VOL   80*FE04ArmyofAgustriaSurfingKyogre_mvl/mxv
 BYTE   PAN   c_v-14
 BYTE   W13
 BYTE   N11  Dn3  v052
 BYTE   W12
 BYTE   N04  Ds3  v044
 BYTE   W12
 BYTE   N02  As3  v040
 BYTE   W12
 BYTE   An3
 BYTE   W12
 BYTE   VOL   69*FE04ArmyofAgustriaSurfingKyogre_mvl/mxv
 BYTE   TIE  Gn3  v052
 BYTE   W01
 BYTE   VOL   69*FE04ArmyofAgustriaSurfingKyogre_mvl/mxv
 BYTE   W03
 BYTE   As3
 BYTE   W03
 BYTE   Bn3
 BYTE   W02
 BYTE   Bn3
 BYTE   W03
 BYTE   Cn4
 BYTE   W03
 BYTE   Cs4
 BYTE   W03
 BYTE   Cs4
 BYTE   W03
 BYTE   Dn4
 BYTE   W02
 BYTE   Dn4
 BYTE   W03
 BYTE   Ds4
 BYTE   W03
 BYTE   En4
 BYTE   W03
 BYTE   En4
 BYTE   W03
// 001   ----------------------------------------
 BYTE   Fn4
 BYTE   W03
 BYTE   Fs4
 BYTE   W02
 BYTE   Fs4
 BYTE   W03
 BYTE   Gn4
 BYTE   W03
 BYTE   Gs4
 BYTE   W60
 BYTE   W01
 BYTE   EOT
 BYTE   W24
// 002   ----------------------------------------
Label_2_015A115F:
 BYTE   W96
// 003   ----------------------------------------
 BYTE   W96
// 004   ----------------------------------------
 BYTE   W96
// 005   ----------------------------------------
 BYTE   W96
// 006   ----------------------------------------
 BYTE   W96
// 007   ----------------------------------------
 BYTE   W96
// 008   ----------------------------------------
 BYTE   W96
// 009   ----------------------------------------
 BYTE   W96
// 010   ----------------------------------------
 BYTE   W96
// 011   ----------------------------------------
 BYTE   W96
// 012   ----------------------------------------
 BYTE   W96
// 013   ----------------------------------------
 BYTE   W96
// 014   ----------------------------------------
 BYTE   W96
// 015   ----------------------------------------
 BYTE   W96
// 016   ----------------------------------------
 BYTE   W96
// 017   ----------------------------------------
 BYTE   W96
// 018   ----------------------------------------
Label_2_015A116F:
 BYTE   W36
 BYTE   VOL   47*FE04ArmyofAgustriaSurfingKyogre_mvl/mxv
 BYTE   W01
 BYTE   Dn2
 BYTE   W01
 BYTE   En2
 BYTE   W01
 BYTE   Gn2
 BYTE   W01
 BYTE   An2
 BYTE   W01
 BYTE   Cn3
 BYTE   W01
 BYTE   Dn3
 BYTE   W01
 BYTE   Fn3
 BYTE   W01
 BYTE   Gs3
 BYTE   W01
 BYTE   As3
 BYTE   W01
 BYTE   Cs4
 BYTE   W01
 BYTE   Ds4
 BYTE   W01
 BYTE   En4
 BYTE   W48
 BYTE   PEND 
 BYTE   PATT
  POIN2 Label_2_015A116F
// 019   ----------------------------------------
 BYTE   VOICE   56
 BYTE   PAN   c_v-14
 BYTE   N23  Gn2  v072
 BYTE   W72
 BYTE   VOICE   56
 BYTE   PAN   c_v+14
 BYTE   N23
 BYTE   W24
// 020   ----------------------------------------
 BYTE   W48
 BYTE   VOICE   56
 BYTE   PAN   c_v-25
 BYTE   N23
 BYTE   W48
// 021   ----------------------------------------
 BYTE   W24
 BYTE   VOICE   56
 BYTE   PAN   c_v+25
 BYTE   N23
 BYTE   W72
// 022   ----------------------------------------
 BYTE   W96
// 023   ----------------------------------------
 BYTE   W48
 BYTE   GoTo
  POIN2 Label_2_015A115F
// 024   ----------------------------------------
 BYTE   W48
 BYTE   W96
// 025   ----------------------------------------
 BYTE   W96
// 026   ----------------------------------------
 BYTE   W96
// 027   ----------------------------------------
 BYTE   W96
// 028   ----------------------------------------
 BYTE   W96
// 029   ----------------------------------------
 BYTE   W96
// 030   ----------------------------------------
 BYTE   W96
// 031   ----------------------------------------
 BYTE   W96
// 032   ----------------------------------------
 BYTE   W96
// 033   ----------------------------------------
 BYTE   W96
// 034   ----------------------------------------
 BYTE   W96
// 035   ----------------------------------------
 BYTE   W96
// 036   ----------------------------------------
 BYTE   W96
// 037   ----------------------------------------
 BYTE   W96
// 038   ----------------------------------------
 BYTE   W96
// 039   ----------------------------------------
 BYTE   W96
// 040   ----------------------------------------
 BYTE   W96
// 041   ----------------------------------------
 BYTE   W32
 BYTE   W03
 BYTE   FINE

//**************** Track 4 (Midi-Chn.3) ****************//

FE04ArmyofAgustriaSurfingKyogre_004:
// 000   ----------------------------------------
 BYTE   KEYSH   FE04ArmyofAgustriaSurfingKyogre_key+0
 BYTE   VOICE   48
 BYTE   VOL   80*FE04ArmyofAgustriaSurfingKyogre_mvl/mxv
 BYTE   PAN   c_v-14
 BYTE   En2
 BYTE   TIE  Cn2  v076
 BYTE   W01
 BYTE   PAN   c_v-10
 BYTE   W01
 BYTE   Gn2
 BYTE   W01
 BYTE   An2
 BYTE   W01
 BYTE   Bn2
 BYTE   W01
 BYTE   Cs3
 BYTE   W01
 BYTE   Dn3
 BYTE   W01
 BYTE   En3
 BYTE   W01
 BYTE   Fs3
 BYTE   W01
 BYTE   Gs3
 BYTE   W01
 BYTE   An3
 BYTE   W01
 BYTE   Bn3
 BYTE   W01
 BYTE   Cs4
 BYTE   W01
 BYTE   Ds4
 BYTE   W01
 BYTE   En4
 BYTE   W01
 BYTE   Fs4
 BYTE   W01
 BYTE   En4
 BYTE   W01
 BYTE   Ds4
 BYTE   W01
 BYTE   Cs4
 BYTE   W01
 BYTE   Bn3
 BYTE   W01
 BYTE   An3
 BYTE   W01
 BYTE   Gs3
 BYTE   W01
 BYTE   Fs3
 BYTE   W01
 BYTE   En3
 BYTE   W01
 BYTE   Dn3
 BYTE   W01
 BYTE   Cs3
 BYTE   W01
 BYTE   Bn2
 BYTE   W01
 BYTE   An2
 BYTE   W01
 BYTE   Gn2
 BYTE   W01
 BYTE   Fs2
 BYTE   W01
 BYTE   En2
 BYTE   W01
 BYTE   Dn2
 BYTE   W01
 BYTE   En2
 BYTE   W01
 BYTE   Fs2
 BYTE   W01
 BYTE   Gn2
 BYTE   W01
 BYTE   An2
 BYTE   W01
 BYTE   Bn2
 BYTE   W01
 BYTE   Cs3
 BYTE   W01
 BYTE   Dn3
 BYTE   W01
 BYTE   En3
 BYTE   W01
 BYTE   Fs3
 BYTE   W01
 BYTE   Gs3
 BYTE   W01
 BYTE   An3
 BYTE   W01
 BYTE   Bn3
 BYTE   W01
 BYTE   Cs4
 BYTE   W01
 BYTE   Ds4
 BYTE   W01
 BYTE   En4
 BYTE   W01
 BYTE   Fs4
 BYTE   W01
 BYTE   En4
 BYTE   W01
 BYTE   Ds4
 BYTE   W01
 BYTE   Cs4
 BYTE   W01
 BYTE   Bn3
 BYTE   W01
 BYTE   An3
 BYTE   W01
 BYTE   Gs3
 BYTE   W01
 BYTE   Fs3
 BYTE   W01
 BYTE   En3
 BYTE   W01
 BYTE   Dn3
 BYTE   W01
 BYTE   Cs3
 BYTE   W01
 BYTE   Bn2
 BYTE   W01
 BYTE   An2
 BYTE   W01
 BYTE   Gn2
 BYTE   W01
 BYTE   Fs2
 BYTE   W01
 BYTE   En2
 BYTE   W01
 BYTE   Dn2
 BYTE   W01
 BYTE   En2
 BYTE   W01
 BYTE   Fs2
 BYTE   W01
 BYTE   Gn2
 BYTE   W01
 BYTE   An2
 BYTE   W01
 BYTE   Bn2
 BYTE   W01
 BYTE   Cs3
 BYTE   W01
 BYTE   Dn3
 BYTE   W01
 BYTE   En3
 BYTE   W01
 BYTE   Fs3
 BYTE   W01
 BYTE   Gs3
 BYTE   W01
 BYTE   An3
 BYTE   W01
 BYTE   Bn3
 BYTE   W01
 BYTE   Cs4
 BYTE   W01
 BYTE   Ds4
 BYTE   W01
 BYTE   En4
 BYTE   W01
 BYTE   Fs4
 BYTE   W01
 BYTE   En4
 BYTE   W01
 BYTE   Ds4
 BYTE   W01
 BYTE   Cs4
 BYTE   W01
 BYTE   Bn3
 BYTE   W01
 BYTE   An3
 BYTE   W01
 BYTE   Gs3
 BYTE   W01
 BYTE   Fs3
 BYTE   W01
 BYTE   En3
 BYTE   W01
 BYTE   Dn3
 BYTE   W01
 BYTE   Cs3
 BYTE   W01
 BYTE   Bn2
 BYTE   W01
 BYTE   An2
 BYTE   W01
 BYTE   Gn2
 BYTE   W01
 BYTE   Fs2
 BYTE   W01
 BYTE   En2
 BYTE   W01
 BYTE   Dn2
 BYTE   W01
// 001   ----------------------------------------
 BYTE   En2
 BYTE   W01
 BYTE   Fs2
 BYTE   W01
 BYTE   Gn2
 BYTE   W01
 BYTE   An2
 BYTE   W01
 BYTE   Bn2
 BYTE   W01
 BYTE   Cs3
 BYTE   W01
 BYTE   Dn3
 BYTE   W01
 BYTE   En3
 BYTE   W01
 BYTE   Fs3
 BYTE   W01
 BYTE   Gs3
 BYTE   W01
 BYTE   An3
 BYTE   W01
 BYTE   Bn3
 BYTE   W01
 BYTE   Cs4
 BYTE   W01
 BYTE   Ds4
 BYTE   W01
 BYTE   En4
 BYTE   W01
 BYTE   Fs4
 BYTE   W01
 BYTE   En4
 BYTE   W01
 BYTE   Ds4
 BYTE   W01
 BYTE   Cs4
 BYTE   W01
 BYTE   Bn3
 BYTE   W01
 BYTE   An3
 BYTE   W01
 BYTE   Gs3
 BYTE   W01
 BYTE   Fs3
 BYTE   W01
 BYTE   En3
 BYTE   W01
 BYTE   Dn3
 BYTE   W01
 BYTE   Cs3
 BYTE   W01
 BYTE   Bn2
 BYTE   W01
 BYTE   An2
 BYTE   W01
 BYTE   Gn2
 BYTE   W01
 BYTE   Fs2
 BYTE   W01
 BYTE   En2
 BYTE   W01
 BYTE   Dn2
 BYTE   W01
 BYTE   En2
 BYTE   W01
 BYTE   Fs2
 BYTE   W01
 BYTE   Gn2
 BYTE   W01
 BYTE   An2
 BYTE   W01
 BYTE   Bn2
 BYTE   W01
 BYTE   Cs3
 BYTE   W01
 BYTE   Dn3
 BYTE   W01
 BYTE   En3
 BYTE   W01
 BYTE   Fs3
 BYTE   W01
 BYTE   Gs3
 BYTE   W01
 BYTE   An3
 BYTE   W01
 BYTE   Bn3
 BYTE   W01
 BYTE   Cs4
 BYTE   W01
 BYTE   Ds4
 BYTE   W01
 BYTE   En4
 BYTE   W01
 BYTE   Fs4
 BYTE   W01
 BYTE   Fn4
 BYTE   W01
 BYTE   En4
 BYTE   W02
 BYTE   Ds4
 BYTE   W01
 BYTE   Dn4
 BYTE   W01
 BYTE   Cs4
 BYTE   W02
 BYTE   Cn4
 BYTE   W01
 BYTE   Bn3
 BYTE   W01
 BYTE   As3
 BYTE   W01
 BYTE   An3
 BYTE   W02
 BYTE   Gs3
 BYTE   W01
 BYTE   Gn3
 BYTE   W01
 BYTE   Fs3
 BYTE   W02
 BYTE   Fn3
 BYTE   W01
 BYTE   En3
 BYTE   W01
 BYTE   Ds3
 BYTE   W01
 BYTE   Dn3
 BYTE   W02
 BYTE   Cs3
 BYTE   W01
 BYTE   Cn3
 BYTE   W01
 BYTE   EOT
 BYTE   PAN   c_v-5
 BYTE   W02
 BYTE   As2
 BYTE   W01
 BYTE   An2
 BYTE   W01
 BYTE   Gs2
 BYTE   W01
 BYTE   Gn2
 BYTE   W02
 BYTE   Fs2
 BYTE   W01
 BYTE   Fn2
 BYTE   W01
 BYTE   En2
 BYTE   W02
 BYTE   Ds2
 BYTE   W01
 BYTE   Dn2
 BYTE   W13
// 002   ----------------------------------------
Label_3_015A1332:
 BYTE   VOICE   116
 BYTE   VOL   80*FE04ArmyofAgustriaSurfingKyogre_mvl/mxv
 BYTE   PAN   c_v+0
 BYTE   N05  Cn4  v072
 BYTE   W24
 BYTE   N07  Gn3  v076
 BYTE   W24
 BYTE   N05  Cn4  v072
 BYTE   W24
 BYTE   N07  Gn3  v084
 BYTE   W24
// 003   ----------------------------------------
 BYTE   N05  Cn4  v076
 BYTE   W24
 BYTE   N07  Gn3  v084
 BYTE   W24
 BYTE   N05  Cn4  v072
 BYTE   W24
 BYTE   N07  Gn3
 BYTE   W24
// 004   ----------------------------------------
 BYTE   N05  Cn4  v068
 BYTE   W24
 BYTE   N07  Gn3  v076
 BYTE   W24
 BYTE   N05  Cn4  v064
 BYTE   W24
 BYTE   N07  Gn3
 BYTE   W24
// 005   ----------------------------------------
 BYTE   N05  Cn4  v072
 BYTE   W24
 BYTE   N07  Gn3  v076
 BYTE   W24
 BYTE   N05  Cn4  v072
 BYTE   W24
 BYTE   N07  Gn3  v076
 BYTE   W24
// 006   ----------------------------------------
 BYTE   N05  Cs4  v072
 BYTE   W24
 BYTE   N07  Gs3
 BYTE   W24
 BYTE   N05  Cs4  v064
 BYTE   W24
 BYTE   N07  Gs3  v084
 BYTE   W24
// 007   ----------------------------------------
 BYTE   N05  Cs4  v064
 BYTE   W24
 BYTE   N07  Gs3  v072
 BYTE   W24
 BYTE   N05  Cs4  v064
 BYTE   W24
 BYTE   N07  Gs3
 BYTE   W24
// 008   ----------------------------------------
 BYTE   N05  Cn4  v060
 BYTE   W24
 BYTE   N07  Gn3
 BYTE   W24
 BYTE   N05  Cn4  v064
 BYTE   W24
 BYTE   N07  Gn3  v060
 BYTE   W24
// 009   ----------------------------------------
 BYTE   N05  Cn4
 BYTE   W24
 BYTE   N07  Gn3  v076
 BYTE   W24
 BYTE   N05  Cn4  v072
 BYTE   W24
 BYTE   N07  Gn3  v076
 BYTE   W24
// 010   ----------------------------------------
 BYTE   N05  Cs4
 BYTE   W24
 BYTE   N07  Gs3  v088
 BYTE   W24
 BYTE   N05  Cs4  v064
 BYTE   W24
 BYTE   N07  Gs3  v084
 BYTE   W24
// 011   ----------------------------------------
 BYTE   N05  Cs4  v072
 BYTE   W24
 BYTE   N07  Gs3  v084
 BYTE   W24
 BYTE   N05  Cs4  v076
 BYTE   W24
 BYTE   N07  Gs3  v084
 BYTE   W24
// 012   ----------------------------------------
 BYTE   N05  Cn4  v060
 BYTE   W24
 BYTE   N07  Gn3  v076
 BYTE   W24
 BYTE   N05  Cn4  v044
 BYTE   W24
 BYTE   N07  Gn3  v076
 BYTE   W24
// 013   ----------------------------------------
 BYTE   N05  Cn4  v072
 BYTE   W24
 BYTE   N07  Gn3  v064
 BYTE   W24
 BYTE   N05  Cn4
 BYTE   W24
 BYTE   N07  Gn3  v072
 BYTE   W24
// 014   ----------------------------------------
 BYTE   N05  Cs4
 BYTE   W24
 BYTE   N07  Gs3  v084
 BYTE   W24
 BYTE   N05  Cs4  v076
 BYTE   W24
 BYTE   N07  Gs3
 BYTE   W24
// 015   ----------------------------------------
 BYTE   N05  Cs4  v072
 BYTE   W24
 BYTE   N07  Gs3  v076
 BYTE   W24
 BYTE   N05  Cs4  v072
 BYTE   W24
 BYTE   N07  Gs3  v084
 BYTE   W24
// 016   ----------------------------------------
 BYTE   N05  Cn4  v064
 BYTE   W24
 BYTE   N07  Gn3  v076
 BYTE   W24
 BYTE   N05  Cn4  v060
 BYTE   W24
 BYTE   N07  Gn3  v064
 BYTE   W24
// 017   ----------------------------------------
 BYTE   N05  Cn4
 BYTE   W24
 BYTE   N07  Gn3  v072
 BYTE   W24
 BYTE   N05  Cn4  v060
 BYTE   W24
 BYTE   N07  Gn3  v072
 BYTE   W24
// 018   ----------------------------------------
 BYTE   W96
// 019   ----------------------------------------
 BYTE   W96
// 020   ----------------------------------------
 BYTE   VOICE   60
 BYTE   VOL   80*FE04ArmyofAgustriaSurfingKyogre_mvl/mxv
 BYTE   PAN   c_v-25
 BYTE   N68  Fn1  v076
 BYTE   W72
 BYTE   Fs1
 BYTE   W24
// 021   ----------------------------------------
 BYTE   W48
 BYTE   Fn1  v084
 BYTE   W48
// 022   ----------------------------------------
 BYTE   W24
 BYTE   N56  Fs1  v076
 BYTE   W72
// 023   ----------------------------------------
 BYTE   PAN   c_v+0
 BYTE   N07  Gs2  v084
 BYTE   W36
 BYTE   N05  Gs2  v076
 BYTE   W12
 BYTE   Gs2  v092
 BYTE   W24
 BYTE   N08  An2
 BYTE   W24
// 024   ----------------------------------------
 BYTE   W48
 BYTE   GoTo
  POIN2 Label_3_015A1332
// 025   ----------------------------------------
 BYTE   W48
 BYTE   W96
// 026   ----------------------------------------
 BYTE   W96
// 027   ----------------------------------------
 BYTE   W96
// 028   ----------------------------------------
 BYTE   W96
// 029   ----------------------------------------
 BYTE   W96
// 030   ----------------------------------------
 BYTE   W96
// 031   ----------------------------------------
 BYTE   W96
// 032   ----------------------------------------
 BYTE   W96
// 033   ----------------------------------------
 BYTE   W96
// 034   ----------------------------------------
 BYTE   W96
// 035   ----------------------------------------
 BYTE   W96
// 036   ----------------------------------------
 BYTE   W96
// 037   ----------------------------------------
 BYTE   W96
// 038   ----------------------------------------
 BYTE   W96
// 039   ----------------------------------------
 BYTE   W96
// 040   ----------------------------------------
 BYTE   W96
// 041   ----------------------------------------
 BYTE   W96
// 042   ----------------------------------------
 BYTE   W32
 BYTE   W03
 BYTE   FINE

//**************** Track 5 (Midi-Chn.4) ****************//

FE04ArmyofAgustriaSurfingKyogre_005:
// 000   ----------------------------------------
 BYTE   KEYSH   FE04ArmyofAgustriaSurfingKyogre_key+0
 BYTE   VOICE   48
 BYTE   VOL   80*FE04ArmyofAgustriaSurfingKyogre_mvl/mxv
 BYTE   PAN   c_v+14
 BYTE   W12
 BYTE   N11  Dn3  v076
 BYTE   W12
 BYTE   N04  Ds3  v072
 BYTE   W12
 BYTE   N02  As3  v064
 BYTE   W12
 BYTE   An3
 BYTE   W12
 BYTE   VOL   69*FE04ArmyofAgustriaSurfingKyogre_mvl/mxv
 BYTE   TIE  Gn3  v076
 BYTE   W01
 BYTE   VOL   69*FE04ArmyofAgustriaSurfingKyogre_mvl/mxv
 BYTE   W03
 BYTE   As3
 BYTE   W03
 BYTE   Bn3
 BYTE   W02
 BYTE   Bn3
 BYTE   W03
 BYTE   Cn4
 BYTE   W03
 BYTE   Cs4
 BYTE   W03
 BYTE   Cs4
 BYTE   W03
 BYTE   Dn4
 BYTE   W02
 BYTE   Dn4
 BYTE   W03
 BYTE   Ds4
 BYTE   W03
 BYTE   En4
 BYTE   W03
 BYTE   En4
 BYTE   W03
 BYTE   Fn4
 BYTE   W01
// 001   ----------------------------------------
 BYTE   W02
 BYTE   Fs4
 BYTE   W02
 BYTE   Fs4
 BYTE   W03
 BYTE   Gn4
 BYTE   W03
 BYTE   Gs4
 BYTE   W60
 BYTE   W01
 BYTE   EOT
 BYTE   W24
 BYTE   W01
// 002   ----------------------------------------
Label_4_015A14B5:
 BYTE   VOICE   48
 BYTE   VOL   80*FE04ArmyofAgustriaSurfingKyogre_mvl/mxv
 BYTE   PAN   c_v-14
 BYTE   N28  As3  v084
 BYTE   W48
 BYTE   N05  Cn4  v076
 BYTE   W24
 BYTE   N07  An3  v084
 BYTE   W24
// 003   ----------------------------------------
 BYTE   N28  As3
 BYTE   W48
 BYTE   N05  Gn3
 BYTE   W24
 BYTE   N07  Dn3
 BYTE   W24
// 004   ----------------------------------------
 BYTE   VOL   74*FE04ArmyofAgustriaSurfingKyogre_mvl/mxv
 BYTE   N10  Ds3  v092
 BYTE   W01
 BYTE   VOL   74*FE04ArmyofAgustriaSurfingKyogre_mvl/mxv
 BYTE   W01
 BYTE   Ds4
 BYTE   W01
 BYTE   En4
 BYTE   W01
 BYTE   En4
 BYTE   W01
 BYTE   Fn4
 BYTE   W01
 BYTE   Fs4
 BYTE   W01
 BYTE   Fs4
 BYTE   W01
 BYTE   Gn4
 BYTE   W01
 BYTE   Gs4
 BYTE   W15
 BYTE   Fs3
 BYTE   N68  As3  v084
 BYTE   W01
 BYTE   VOL   66*FE04ArmyofAgustriaSurfingKyogre_mvl/mxv
 BYTE   W02
 BYTE   Gn3
 BYTE   W02
 BYTE   Gs3
 BYTE   W03
 BYTE   Gs3
 BYTE   W02
 BYTE   An3
 BYTE   W02
 BYTE   An3
 BYTE   W02
 BYTE   As3
 BYTE   W02
 BYTE   Bn3
 BYTE   W03
 BYTE   Bn3
 BYTE   W02
 BYTE   Cn4
 BYTE   W02
 BYTE   Cs4
 BYTE   W02
 BYTE   Cs4
 BYTE   W02
 BYTE   Dn4
 BYTE   W02
 BYTE   Dn4
 BYTE   W03
 BYTE   Ds4
 BYTE   W02
 BYTE   En4
 BYTE   W02
 BYTE   En4
 BYTE   W02
 BYTE   Fn4
 BYTE   W02
 BYTE   Fs4
 BYTE   W03
 BYTE   Fs4
 BYTE   W02
 BYTE   Gn4
 BYTE   W02
 BYTE   Gs4
 BYTE   W24
 BYTE   W01
// 005   ----------------------------------------
 BYTE   W96
// 006   ----------------------------------------
 BYTE   N06  Fn3  v076
 BYTE   W12
 BYTE   N05  Gn3
 BYTE   W12
 BYTE   N04  Gs3
 BYTE   W12
 BYTE   N16  As3
 BYTE   W24
 BYTE   N02  Gs3  v084
 BYTE   W12
 BYTE   VOL   69*FE04ArmyofAgustriaSurfingKyogre_mvl/mxv
 BYTE   N32  Cn4  v088
 BYTE   W01
 BYTE   VOL   69*FE04ArmyofAgustriaSurfingKyogre_mvl/mxv
 BYTE   W01
 BYTE   As3
 BYTE   W01
 BYTE   Bn3
 BYTE   W01
 BYTE   Bn3
 BYTE   W01
 BYTE   Cn4
 BYTE   W01
 BYTE   Cs4
 BYTE   W01
 BYTE   Cs4
 BYTE   W01
 BYTE   Dn4
 BYTE   W01
 BYTE   Dn4
 BYTE   W01
 BYTE   Ds4
 BYTE   W01
 BYTE   En4
 BYTE   W01
 BYTE   En4
 BYTE   W01
 BYTE   Fn4
 BYTE   W01
 BYTE   Fs4
 BYTE   W01
 BYTE   Fs4
 BYTE   W01
 BYTE   Gn4
 BYTE   W01
 BYTE   Gs4
 BYTE   W07
// 007   ----------------------------------------
 BYTE   W24
 BYTE   N03  As3  v076
 BYTE   W12
 BYTE   Gs3  v084
 BYTE   W12
 BYTE   N02  Gn3
 BYTE   W12
 BYTE   N01  Fn3
 BYTE   W12
 BYTE   Ds3  v076
 BYTE   W12
 BYTE   N02  Gn3  v084
 BYTE   W12
// 008   ----------------------------------------
 BYTE   N19  Fn3  v092
 BYTE   W36
 BYTE   N32  Gn3  v072
 BYTE   W60
// 009   ----------------------------------------
 BYTE   VOICE   60
 BYTE   VOL   80*FE04ArmyofAgustriaSurfingKyogre_mvl/mxv
 BYTE   PAN   c_v-25
 BYTE   N03  Gn2  v060
 BYTE   W12
 BYTE   N04  Gn2  v052
 BYTE   W24
 BYTE   N03  Gs2  v064
 BYTE   W24
 BYTE   N01  Gn2  v084
 BYTE   W12
 BYTE   N01
 BYTE   W12
 BYTE   N01
 BYTE   W12
// 010   ----------------------------------------
 BYTE   N03  Gn2  v096
 BYTE   W12
 BYTE   N02  Gs2
 BYTE   W12
 BYTE   N03
 BYTE   W12
 BYTE   N02  Gs2  v092
 BYTE   W12
 BYTE   N44
 BYTE   W48
// 011   ----------------------------------------
 BYTE   W12
 BYTE   N02
 BYTE   W12
 BYTE   N03
 BYTE   W12
 BYTE   N14
 BYTE   W24
 BYTE   N04  Gs2  v096
 BYTE   W12
 BYTE   N03  Gs2  v092
 BYTE   W12
 BYTE   N04  Gs2  v096
 BYTE   W12
// 012   ----------------------------------------
 BYTE   N03  Gn2  v084
 BYTE   W12
 BYTE   N92  Gn2  v076
 BYTE   W84
// 013   ----------------------------------------
 BYTE   W96
// 014   ----------------------------------------
 BYTE   N03  Gn2  v084
 BYTE   W12
 BYTE   N02  Gn2  v076
 BYTE   W12
 BYTE   N03  Gn2  v084
 BYTE   W12
 BYTE   N02
 BYTE   W12
 BYTE   N03  Gn2  v092
 BYTE   W12
 BYTE   N02  Gn2  v104
 BYTE   W12
 BYTE   N03  Gs2
 BYTE   W12
 BYTE   N02  Gs2  v084
 BYTE   W12
// 015   ----------------------------------------
 BYTE   N24  Gs2  v096
 BYTE   W36
 BYTE   N14  Gs2  v108
 BYTE   W24
 BYTE   N02  Gs2  v104
 BYTE   W12
 BYTE   N04  Gs2  v092
 BYTE   W12
 BYTE   N02  Gs2  v084
 BYTE   W12
// 016   ----------------------------------------
 BYTE   N03  Gn2  v096
 BYTE   W12
 BYTE   N60  Gn2  v084
 BYTE   W84
// 017   ----------------------------------------
 BYTE   W96
// 018   ----------------------------------------
 BYTE   VOICE   60
 BYTE   VOL   80*FE04ArmyofAgustriaSurfingKyogre_mvl/mxv
 BYTE   PAN   c_v+25
 BYTE   N04  Ds2  v072
 BYTE   W12
 BYTE   Ds2  v084
 BYTE   W36
 BYTE   Ds2  v064
 BYTE   W12
 BYTE   Ds2  v084
 BYTE   W36
// 019   ----------------------------------------
 BYTE   Cs2  v072
 BYTE   W12
 BYTE   Cs2  v092
 BYTE   W36
 BYTE   N04
 BYTE   W12
 BYTE   Cs2  v084
 BYTE   W36
// 020   ----------------------------------------
 BYTE   N68  Cn2  v060
 BYTE   W72
 BYTE   Cs2  v064
 BYTE   W24
// 021   ----------------------------------------
 BYTE   W48
 BYTE   Cn2  v060
 BYTE   W48
// 022   ----------------------------------------
 BYTE   W24
 BYTE   N56  Cs2  v064
 BYTE   W72
// 023   ----------------------------------------
 BYTE   PAN   c_v-25
 BYTE   N07  Cn3  v084
 BYTE   W36
 BYTE   N05  Cn3  v076
 BYTE   W12
 BYTE   Cn3  v092
 BYTE   W24
 BYTE   N08
 BYTE   W24
// 024   ----------------------------------------
 BYTE   W48
 BYTE   GoTo
  POIN2 Label_4_015A14B5
// 025   ----------------------------------------
 BYTE   W48
 BYTE   W96
// 026   ----------------------------------------
 BYTE   W96
// 027   ----------------------------------------
 BYTE   W96
// 028   ----------------------------------------
 BYTE   W96
// 029   ----------------------------------------
 BYTE   W96
// 030   ----------------------------------------
 BYTE   W96
// 031   ----------------------------------------
 BYTE   W96
// 032   ----------------------------------------
 BYTE   W96
// 033   ----------------------------------------
 BYTE   W96
// 034   ----------------------------------------
 BYTE   W96
// 035   ----------------------------------------
 BYTE   W96
// 036   ----------------------------------------
 BYTE   W96
// 037   ----------------------------------------
 BYTE   W96
// 038   ----------------------------------------
 BYTE   W96
// 039   ----------------------------------------
 BYTE   W96
// 040   ----------------------------------------
 BYTE   W96
// 041   ----------------------------------------
 BYTE   W96
// 042   ----------------------------------------
 BYTE   W32
 BYTE   W03
 BYTE   FINE

//**************** Track 6 (Midi-Chn.5) ****************//

FE04ArmyofAgustriaSurfingKyogre_006:
// 000   ----------------------------------------
 BYTE   KEYSH   FE04ArmyofAgustriaSurfingKyogre_key+0
 BYTE   VOICE   48
 BYTE   VOL   80*FE04ArmyofAgustriaSurfingKyogre_mvl/mxv
 BYTE   PAN   c_v+14
 BYTE   W12
 BYTE   N11  As2  v076
 BYTE   W12
 BYTE   N04  Cn3  v088
 BYTE   W12
 BYTE   N02  Dn3  v080
 BYTE   W12
 BYTE   Cn3  v076
 BYTE   W12
 BYTE   VOL   69*FE04ArmyofAgustriaSurfingKyogre_mvl/mxv
 BYTE   TIE  Cn3  v092
 BYTE   W01
 BYTE   VOL   69*FE04ArmyofAgustriaSurfingKyogre_mvl/mxv
 BYTE   W03
 BYTE   As3
 BYTE   W03
 BYTE   Bn3
 BYTE   W02
 BYTE   Bn3
 BYTE   W03
 BYTE   Cn4
 BYTE   W03
 BYTE   Cs4
 BYTE   W03
 BYTE   Cs4
 BYTE   W03
 BYTE   Dn4
 BYTE   W02
 BYTE   Dn4
 BYTE   W03
 BYTE   Ds4
 BYTE   W03
 BYTE   En4
 BYTE   W03
 BYTE   En4
 BYTE   W03
 BYTE   Fn4
 BYTE   W01
// 001   ----------------------------------------
 BYTE   W02
 BYTE   Fs4
 BYTE   W02
 BYTE   Fs4
 BYTE   W03
 BYTE   Gn4
 BYTE   W03
 BYTE   Gs4
 BYTE   W60
 BYTE   W01
 BYTE   EOT
 BYTE   W24
 BYTE   W01
// 002   ----------------------------------------
Label_5_015A1692:
 BYTE   VOICE   60
 BYTE   VOL   80*FE04ArmyofAgustriaSurfingKyogre_mvl/mxv
 BYTE   PAN   c_v+14
 BYTE   N03  Ds3  v052
 BYTE   W12
 BYTE   N04  Ds3  v064
 BYTE   W24
 BYTE   N03  Fn3  v084
 BYTE   W24
 BYTE   N04  Dn3  v072
 BYTE   W24
 BYTE   N03  Ds3  v064
 BYTE   W12
// 003   ----------------------------------------
 BYTE   Ds3  v072
 BYTE   W12
 BYTE   N03
 BYTE   W24
 BYTE   N02  Fn3
 BYTE   W24
 BYTE   N04  Dn3
 BYTE   W24
 BYTE   N03  Ds3  v064
 BYTE   W12
// 004   ----------------------------------------
 BYTE   Ds3  v072
 BYTE   W12
 BYTE   N03
 BYTE   W24
 BYTE   N02  Fn3  v084
 BYTE   W24
 BYTE   N03  Dn3  v064
 BYTE   W24
 BYTE   N02  Ds3
 BYTE   W12
// 005   ----------------------------------------
 BYTE   N03
 BYTE   W12
 BYTE   Ds3  v072
 BYTE   W24
 BYTE   Fn3  v084
 BYTE   W24
 BYTE   N02  Dn3  v072
 BYTE   W24
 BYTE   N03  Ds3  v064
 BYTE   W12
// 006   ----------------------------------------
Label_5_015A16DB:
 BYTE   N03  Fn3  v064
 BYTE   W12
 BYTE   N02
 BYTE   W24
 BYTE   Gn3
 BYTE   W24
 BYTE   N04  Ds3  v060
 BYTE   W24
 BYTE   Fn3
 BYTE   W12
 BYTE   PEND 
 BYTE   PATT
  POIN2 Label_5_015A16DB
// 007   ----------------------------------------
 BYTE   N03  Ds3  v064
 BYTE   W12
 BYTE   N02
 BYTE   W24
 BYTE   Fn3
 BYTE   W24
 BYTE   N04  Dn3  v060
 BYTE   W24
 BYTE   Ds3
 BYTE   W12
// 008   ----------------------------------------
 BYTE   VOICE   60
 BYTE   VOL   80*FE04ArmyofAgustriaSurfingKyogre_mvl/mxv
 BYTE   PAN   c_v+25
 BYTE   N03  Ds3  v064
 BYTE   W12
 BYTE   N02
 BYTE   W24
 BYTE   Fn3
 BYTE   W24
 BYTE   N01  Cn3  v092
 BYTE   W12
 BYTE   N02  Cn3  v096
 BYTE   W12
 BYTE   N02
 BYTE   W12
// 009   ----------------------------------------
 BYTE   N03  Cn3  v108
 BYTE   W12
 BYTE   N02  Cs3  v104
 BYTE   W12
 BYTE   N03
 BYTE   W12
 BYTE   N02  Ds3  v096
 BYTE   W12
 BYTE   N44  Fn3  v092
 BYTE   W48
// 010   ----------------------------------------
 BYTE   W12
 BYTE   N02  Ds3  v104
 BYTE   W12
 BYTE   N03
 BYTE   W12
 BYTE   N14  Fn3  v092
 BYTE   W24
 BYTE   N04  Ds3  v104
 BYTE   W12
 BYTE   N03  Ds3  v096
 BYTE   W12
 BYTE   N04  Fn3  v092
 BYTE   W12
// 011   ----------------------------------------
 BYTE   N03  Dn3  v096
 BYTE   W12
 BYTE   N84  Cn3
 BYTE   W84
// 012   ----------------------------------------
 BYTE   W12
 BYTE   PAN   c_v+43
 BYTE   N03  Gn2  v076
 BYTE   W12
 BYTE   N02  As2  v084
 BYTE   W12
 BYTE   N15  Cn3  v092
 BYTE   W24
 BYTE   N04  Cn3  v096
 BYTE   W12
 BYTE   N02  As2  v092
 BYTE   W12
 BYTE   N03  Gn2  v084
 BYTE   W12
// 013   ----------------------------------------
 BYTE   PAN   c_v+25
 BYTE   N03  Cn3  v096
 BYTE   W12
 BYTE   N02  Dn3  v092
 BYTE   W12
 BYTE   N03  Dn3  v104
 BYTE   W12
 BYTE   N02  Ds3
 BYTE   W12
 BYTE   N03  Ds3  v108
 BYTE   W12
 BYTE   N02  Fn3
 BYTE   W12
 BYTE   N03  Fn3  v104
 BYTE   W12
 BYTE   N02  Ds3
 BYTE   W12
// 014   ----------------------------------------
 BYTE   N20  Fn3
 BYTE   W24
 BYTE   N03  Ds3  v084
 BYTE   W12
 BYTE   N14  Gn3  v096
 BYTE   W24
 BYTE   N02  Gn3  v104
 BYTE   W12
 BYTE   N04  Fn3  v096
 BYTE   W12
 BYTE   N02  Ds3
 BYTE   W12
// 015   ----------------------------------------
 BYTE   N03  Dn3  v104
 BYTE   W12
 BYTE   N36  Cn3  v096
 BYTE   W48
 BYTE   N01  Dn2  v072
 BYTE   W12
 BYTE   N15  Cn2  v092
 BYTE   W24
// 016   ----------------------------------------
 BYTE   PAN   c_v+34
 BYTE   N01  Dn3
 BYTE   W12
 BYTE   N11  Cn3
 BYTE   W24
 BYTE   N02  Dn4  v088
 BYTE   W12
 BYTE   N21  Cn4  v092
 BYTE   W36
 BYTE   N02  Cn3
 BYTE   W12
// 017   ----------------------------------------
 BYTE   PAN   c_v-14
 BYTE   N32  Cn3  v064
 BYTE   W36
 BYTE   N08  As2  v060
 BYTE   W12
 BYTE   N32  Ds3  v072
 BYTE   W36
 BYTE   N08  As2  v060
 BYTE   W12
// 018   ----------------------------------------
 BYTE   N32  Cn3  v072
 BYTE   W36
 BYTE   N08  As2  v064
 BYTE   W12
 BYTE   N32  Ds3
 BYTE   W36
 BYTE   N08  As2
 BYTE   W12
// 019   ----------------------------------------
 BYTE   TIE  Fn3  v072
 BYTE   W96
// 020   ----------------------------------------
 BYTE   W96
// 021   ----------------------------------------
 BYTE   W80
 BYTE   W03
 BYTE   EOT
 BYTE   W13
// 022   ----------------------------------------
 BYTE   PAN   c_v+25
 BYTE   N07  Fn3  v096
 BYTE   W36
 BYTE   N05  Fn3  v092
 BYTE   W12
 BYTE   Fn3  v104
 BYTE   W24
 BYTE   N07
 BYTE   W24
// 023   ----------------------------------------
 BYTE   PAN   c_v-43
 BYTE   N04  Fn1  v092
 BYTE   W12
 BYTE   N04
 BYTE   W12
 BYTE   N21  Fn1  v108
 BYTE   W24
 BYTE   GoTo
  POIN2 Label_5_015A1692
// 024   ----------------------------------------
 BYTE   W48
 BYTE   W96
// 025   ----------------------------------------
 BYTE   W96
// 026   ----------------------------------------
 BYTE   W96
// 027   ----------------------------------------
 BYTE   W96
// 028   ----------------------------------------
 BYTE   W96
// 029   ----------------------------------------
 BYTE   W96
// 030   ----------------------------------------
 BYTE   W96
// 031   ----------------------------------------
 BYTE   W96
// 032   ----------------------------------------
 BYTE   W96
// 033   ----------------------------------------
 BYTE   W96
// 034   ----------------------------------------
 BYTE   W96
// 035   ----------------------------------------
 BYTE   W96
// 036   ----------------------------------------
 BYTE   W96
// 037   ----------------------------------------
 BYTE   W96
// 038   ----------------------------------------
 BYTE   W96
// 039   ----------------------------------------
 BYTE   W96
// 040   ----------------------------------------
 BYTE   W96
// 041   ----------------------------------------
 BYTE   W32
 BYTE   W03
 BYTE   FINE

//**************** Track 7 (Midi-Chn.6) ****************//

FE04ArmyofAgustriaSurfingKyogre_007:
// 000   ----------------------------------------
 BYTE   KEYSH   FE04ArmyofAgustriaSurfingKyogre_key+0
 BYTE   VOICE   116
 BYTE   VOL   80*FE04ArmyofAgustriaSurfingKyogre_mvl/mxv
 BYTE   PAN   c_v+0
 BYTE   TIE  Cn4  v044
 BYTE   W96
// 001   ----------------------------------------
 BYTE   W68
 BYTE   W03
 BYTE   EOT
 BYTE   W01
 BYTE   N17  Cn4  v076
 BYTE   W24
// 002   ----------------------------------------
Label_6_015A182C:
 BYTE   VOICE   48
 BYTE   VOL   80*FE04ArmyofAgustriaSurfingKyogre_mvl/mxv
 BYTE   PAN   c_v-25
 BYTE   N28  As2  v072
 BYTE   W48
 BYTE   N05  Cn3  v064
 BYTE   W24
 BYTE   N07  An2  v072
 BYTE   W24
// 003   ----------------------------------------
 BYTE   N28  As2
 BYTE   W48
 BYTE   N05  Gn2
 BYTE   W24
 BYTE   N07  Dn2
 BYTE   W24
// 004   ----------------------------------------
 BYTE   VOL   74*FE04ArmyofAgustriaSurfingKyogre_mvl/mxv
 BYTE   N10  Ds2  v076
 BYTE   W01
 BYTE   VOL   74*FE04ArmyofAgustriaSurfingKyogre_mvl/mxv
 BYTE   W01
 BYTE   Ds4
 BYTE   W01
 BYTE   En4
 BYTE   W01
 BYTE   En4
 BYTE   W01
 BYTE   Fn4
 BYTE   W01
 BYTE   Fs4
 BYTE   W01
 BYTE   Fs4
 BYTE   W01
 BYTE   Gn4
 BYTE   W01
 BYTE   Gs4
 BYTE   W15
 BYTE   Fs3
 BYTE   N68  As2  v072
 BYTE   W01
 BYTE   VOL   66*FE04ArmyofAgustriaSurfingKyogre_mvl/mxv
 BYTE   W02
 BYTE   Gn3
 BYTE   W02
 BYTE   Gs3
 BYTE   W03
 BYTE   Gs3
 BYTE   W02
 BYTE   An3
 BYTE   W02
 BYTE   An3
 BYTE   W02
 BYTE   As3
 BYTE   W02
 BYTE   Bn3
 BYTE   W03
 BYTE   Bn3
 BYTE   W02
 BYTE   Cn4
 BYTE   W02
 BYTE   Cs4
 BYTE   W02
 BYTE   Cs4
 BYTE   W02
 BYTE   Dn4
 BYTE   W02
 BYTE   Dn4
 BYTE   W03
 BYTE   Ds4
 BYTE   W02
 BYTE   En4
 BYTE   W02
 BYTE   En4
 BYTE   W02
 BYTE   Fn4
 BYTE   W02
 BYTE   Fs4
 BYTE   W03
 BYTE   Fs4
 BYTE   W02
 BYTE   Gn4
 BYTE   W02
 BYTE   Gs4
 BYTE   W24
 BYTE   W01
// 005   ----------------------------------------
 BYTE   W96
// 006   ----------------------------------------
 BYTE   N06  Fn2  v064
 BYTE   W12
 BYTE   N05  Gn2
 BYTE   W12
 BYTE   N04  Gs2  v072
 BYTE   W12
 BYTE   N16  As2
 BYTE   W24
 BYTE   N02  Gs2  v064
 BYTE   W12
 BYTE   VOL   69*FE04ArmyofAgustriaSurfingKyogre_mvl/mxv
 BYTE   N32  Cn3  v068
 BYTE   W01
 BYTE   VOL   69*FE04ArmyofAgustriaSurfingKyogre_mvl/mxv
 BYTE   W01
 BYTE   As3
 BYTE   W01
 BYTE   Bn3
 BYTE   W01
 BYTE   Bn3
 BYTE   W01
 BYTE   Cn4
 BYTE   W01
 BYTE   Cs4
 BYTE   W01
 BYTE   Cs4
 BYTE   W01
 BYTE   Dn4
 BYTE   W01
 BYTE   Dn4
 BYTE   W01
 BYTE   Ds4
 BYTE   W01
 BYTE   En4
 BYTE   W01
 BYTE   En4
 BYTE   W01
 BYTE   Fn4
 BYTE   W01
 BYTE   Fs4
 BYTE   W01
 BYTE   Fs4
 BYTE   W01
 BYTE   Gn4
 BYTE   W01
 BYTE   Gs4
 BYTE   W07
// 007   ----------------------------------------
 BYTE   W24
 BYTE   N03  As2  v064
 BYTE   W12
 BYTE   Gs2  v072
 BYTE   W12
 BYTE   N02  Gn2
 BYTE   W12
 BYTE   N01  Fn2  v064
 BYTE   W12
 BYTE   Ds2  v072
 BYTE   W12
 BYTE   N02  Gn2
 BYTE   W12
// 008   ----------------------------------------
 BYTE   N19  Fn2
 BYTE   W36
 BYTE   N32  Gn2  v064
 BYTE   W60
// 009   ----------------------------------------
 BYTE   VOICE   48
 BYTE   VOL   80*FE04ArmyofAgustriaSurfingKyogre_mvl/mxv
 BYTE   PAN   c_v+43
 BYTE   VOL   72*FE04ArmyofAgustriaSurfingKyogre_mvl/mxv
 BYTE   N02  An3  v072
 BYTE   W01
 BYTE   VOL   73*FE04ArmyofAgustriaSurfingKyogre_mvl/mxv
 BYTE   W02
 BYTE   Cs4
 BYTE   W02
 BYTE   Dn4
 BYTE   W02
 BYTE   Dn4
 BYTE   W02
 BYTE   Ds4
 BYTE   W02
 BYTE   En4
 BYTE   W01
 BYTE   N60  Gn3
 BYTE   W02
 BYTE   VOL   76*FE04ArmyofAgustriaSurfingKyogre_mvl/mxv
 BYTE   W02
 BYTE   Fn4
 BYTE   W02
 BYTE   Fs4
 BYTE   W02
 BYTE   Fs4
 BYTE   W02
 BYTE   Gn4
 BYTE   W02
 BYTE   Gs4
 BYTE   W72
// 010   ----------------------------------------
 BYTE   VOICE   48
 BYTE   VOL   80*FE04ArmyofAgustriaSurfingKyogre_mvl/mxv
 BYTE   PAN   c_v-43
 BYTE   N02  Dn3  v044
 BYTE   W12
 BYTE   N05  Ds3
 BYTE   W06
 BYTE   Fn3
 BYTE   W06
 BYTE   N02  Gn3  v060
 BYTE   W12
 BYTE   Fn3  v064
 BYTE   W12
 BYTE   Gs3  v060
 BYTE   W12
 BYTE   Gn3
 BYTE   W12
 BYTE   Fn3  v044
 BYTE   W12
 BYTE   Ds3  v060
 BYTE   W12
// 011   ----------------------------------------
 BYTE   N04  Fn3
 BYTE   W12
 BYTE   Gn3  v044
 BYTE   W06
 BYTE   N05  Gs3
 BYTE   W06
 BYTE   N04  As3
 BYTE   W12
 BYTE   N02  Gs3  v060
 BYTE   W12
 BYTE   Cn4  v064
 BYTE   W12
 BYTE   As3  v044
 BYTE   W12
 BYTE   Gs3
 BYTE   W12
 BYTE   Gn3
 BYTE   W12
// 012   ----------------------------------------
 BYTE   Fn3  v060
 BYTE   W12
 BYTE   N05  Gn3  v044
 BYTE   W06
 BYTE   Gs3
 BYTE   W06
 BYTE   N02  As3  v060
 BYTE   W12
 BYTE   Gs3  v064
 BYTE   W12
 BYTE   Cn4  v060
 BYTE   W12
 BYTE   N11  As3  v044
 BYTE   W12
 BYTE   N05  Gs3
 BYTE   W12
 BYTE   N02  Gn3
 BYTE   W12
// 013   ----------------------------------------
 BYTE   N04  Fn3  v060
 BYTE   W06
 BYTE   N05  Gn3  v044
 BYTE   W06
 BYTE   N02  Gs3
 BYTE   W12
 BYTE   As3  v060
 BYTE   W12
 BYTE   Gs3  v044
 BYTE   W12
 BYTE   Cn4  v060
 BYTE   W12
 BYTE   As3
 BYTE   W06
 BYTE   N05
 BYTE   W06
 BYTE   N04  Gs3  v044
 BYTE   W12
 BYTE   N02  Gn3
 BYTE   W12
// 014   ----------------------------------------
 BYTE   Fn3  v032
 BYTE   W12
 BYTE   Gn3  v044
 BYTE   W12
 BYTE   Gs3  v060
 BYTE   W12
 BYTE   N17  As3  v044
 BYTE   W24
 BYTE   N02  Gs3
 BYTE   W12
 BYTE   N10  Cn4  v060
 BYTE   W12
 BYTE   N02  As3  v044
 BYTE   W12
// 015   ----------------------------------------
 BYTE   Gs3  v060
 BYTE   W12
 BYTE   As3  v044
 BYTE   W12
 BYTE   Gn3  v060
 BYTE   W12
 BYTE   N22  Gs3
 BYTE   W24
 BYTE   N01  Fn3  v032
 BYTE   W12
 BYTE   N04  Gn3  v060
 BYTE   W12
 BYTE   N02  Ds3  v064
 BYTE   W12
// 016   ----------------------------------------
 BYTE   N04  Dn3  v060
 BYTE   W12
 BYTE   Ds3
 BYTE   W12
 BYTE   N02  Fn3
 BYTE   W12
 BYTE   N17  Dn3  v064
 BYTE   W24
 BYTE   TIE  Cn3  v044
 BYTE   W36
// 017   ----------------------------------------
 BYTE   W66
 BYTE   W01
 BYTE   EOT
 BYTE   W28
 BYTE   W01
// 018   ----------------------------------------
 BYTE   VOICE   60
 BYTE   VOL   80*FE04ArmyofAgustriaSurfingKyogre_mvl/mxv
 BYTE   PAN   c_v-25
 BYTE   N04  Gs1  v072
 BYTE   W12
 BYTE   N04
 BYTE   W36
 BYTE   Gs1  v064
 BYTE   W12
 BYTE   Gs1  v072
 BYTE   W36
// 019   ----------------------------------------
 BYTE   Fs1  v084
 BYTE   W12
 BYTE   N04
 BYTE   W36
 BYTE   Fs1  v072
 BYTE   W12
 BYTE   N04
 BYTE   W36
// 020   ----------------------------------------
 BYTE   VOICE   116
 BYTE   VOL   80*FE04ArmyofAgustriaSurfingKyogre_mvl/mxv
 BYTE   PAN   c_v+0
 BYTE   N68  Fn3  v052
 BYTE   W72
 BYTE   Fs3  v056
 BYTE   W24
// 021   ----------------------------------------
 BYTE   W48
 BYTE   Fn3  v052
 BYTE   W48
// 022   ----------------------------------------
 BYTE   W24
 BYTE   N56  Fs3  v056
 BYTE   W72
// 023   ----------------------------------------
 BYTE   N07  Gs4  v064
 BYTE   W36
 BYTE   N05  Gs4  v060
 BYTE   W12
 BYTE   Gs4  v072
 BYTE   W24
 BYTE   N08  An4
 BYTE   W24
// 024   ----------------------------------------
 BYTE   W48
 BYTE   GoTo
  POIN2 Label_6_015A182C
// 025   ----------------------------------------
 BYTE   W48
 BYTE   W96
// 026   ----------------------------------------
 BYTE   W96
// 027   ----------------------------------------
 BYTE   W96
// 028   ----------------------------------------
 BYTE   W96
// 029   ----------------------------------------
 BYTE   W96
// 030   ----------------------------------------
 BYTE   W96
// 031   ----------------------------------------
 BYTE   W96
// 032   ----------------------------------------
 BYTE   W96
// 033   ----------------------------------------
 BYTE   W96
// 034   ----------------------------------------
 BYTE   W96
// 035   ----------------------------------------
 BYTE   W96
// 036   ----------------------------------------
 BYTE   W96
// 037   ----------------------------------------
 BYTE   W96
// 038   ----------------------------------------
 BYTE   W96
// 039   ----------------------------------------
 BYTE   W96
// 040   ----------------------------------------
 BYTE   W96
// 041   ----------------------------------------
 BYTE   W96
// 042   ----------------------------------------
 BYTE   W32
 BYTE   W03
 BYTE   FINE

//**************** Track 8 (Midi-Chn.7) ****************//

FE04ArmyofAgustriaSurfingKyogre_008:
// 000   ----------------------------------------
 BYTE   VOL   80*FE04ArmyofAgustriaSurfingKyogre_mvl/mxv
 BYTE   KEYSH   FE04ArmyofAgustriaSurfingKyogre_key+0
 BYTE   VOICE   48
 BYTE   W96
// 001   ----------------------------------------
 BYTE   W72
 BYTE   N23  Fn0  v104
 BYTE   W24
// 002   ----------------------------------------
Label_7_015A1A38:
 BYTE   N11  Cs1  v084
 BYTE   W24
 BYTE   Gs0  v092
 BYTE   W24
 BYTE   Cs1  v084
 BYTE   W24
 BYTE   Gs0  v092
 BYTE   W24
 BYTE   PEND 
 BYTE   PATT
  POIN2 Label_7_015A1A38
 BYTE   PATT
  POIN2 Label_7_015A1A38
 BYTE   PATT
  POIN2 Label_7_015A1A38
 BYTE   PATT
  POIN2 Label_7_015A1A38
 BYTE   PATT
  POIN2 Label_7_015A1A38
 BYTE   PATT
  POIN2 Label_7_015A1A38
 BYTE   PATT
  POIN2 Label_7_015A1A38
// 003   ----------------------------------------
Label_7_015A1A69:
 BYTE   N11  Bn0  v092
 BYTE   W24
 BYTE   Gs0  v096
 BYTE   W24
 BYTE   Bn0  v092
 BYTE   W24
 BYTE   Cn1  v096
 BYTE   W24
 BYTE   PEND 
 BYTE   PATT
  POIN2 Label_7_015A1A69
 BYTE   PATT
  POIN2 Label_7_015A1A69
 BYTE   PATT
  POIN2 Label_7_015A1A69
// 004   ----------------------------------------
Label_7_015A1A86:
 BYTE   N11  Bn0  v096
 BYTE   W24
 BYTE   Cn1  v104
 BYTE   W24
 BYTE   Bn0  v096
 BYTE   W24
 BYTE   Gs0  v104
 BYTE   W24
 BYTE   PEND 
 BYTE   PATT
  POIN2 Label_7_015A1A86
 BYTE   PATT
  POIN2 Label_7_015A1A86
 BYTE   PATT
  POIN2 Label_7_015A1A86
// 005   ----------------------------------------
 BYTE   W96
// 006   ----------------------------------------
 BYTE   W84
 BYTE   N10  Gn0  v096
 BYTE   W12
// 007   ----------------------------------------
Label_7_015A1AA9:
 BYTE   W12
 BYTE   N05  Dn0  v092
 BYTE   W24
 BYTE   N10  Gn0  v096
 BYTE   W24
 BYTE   N05  Dn0  v084
 BYTE   W24
 BYTE   N10  Gn0  v092
 BYTE   W12
 BYTE   PEND 
// 008   ----------------------------------------
Label_7_015A1ABB:
 BYTE   W12
 BYTE   N05  Dn0  v096
 BYTE   W24
 BYTE   N10  Gn0
 BYTE   W24
 BYTE   N05  Dn0  v092
 BYTE   W24
 BYTE   N10  Gn0  v096
 BYTE   W12
 BYTE   PEND 
 BYTE   PATT
  POIN2 Label_7_015A1AA9
 BYTE   PATT
  POIN2 Label_7_015A1ABB
// 009   ----------------------------------------
 BYTE   W12
 BYTE   N05  Dn0  v092
 BYTE   W24
 BYTE   N10  Gn0  v096
 BYTE   W12
 BYTE   GoTo
  POIN2 Label_7_015A1A38
// 010   ----------------------------------------
 BYTE   W12
 BYTE   N05  Dn0  v084
 BYTE   W24
 BYTE   N10  Gn0  v092
 BYTE   W12
 BYTE   PATT
  POIN2 Label_7_015A1ABB
 BYTE   PATT
  POIN2 Label_7_015A1AA9
// 011   ----------------------------------------
 BYTE   W12
 BYTE   N05  Dn0  v096
 BYTE   W24
 BYTE   N10  Gn0
 BYTE   W24
 BYTE   N05  Dn0  v092
 BYTE   W24
 BYTE   N10  Fn0  v096
 BYTE   W12
// 012   ----------------------------------------
Label_7_015A1B07:
 BYTE   W12
 BYTE   N05  Dn0  v104
 BYTE   W24
 BYTE   N10  Fn0
 BYTE   W24
 BYTE   N05  Fs0  v096
 BYTE   W24
 BYTE   N10  Fn0
 BYTE   W12
 BYTE   PEND 
 BYTE   PATT
  POIN2 Label_7_015A1B07
 BYTE   PATT
  POIN2 Label_7_015A1B07
// 013   ----------------------------------------
 BYTE   W12
 BYTE   N05  Dn0  v104
 BYTE   W24
 BYTE   N10  Fn0
 BYTE   W24
 BYTE   N05  Fs0  v096
 BYTE   W24
 BYTE   N10  Fn0  v104
 BYTE   W12
// 014   ----------------------------------------
Label_7_015A1B31:
 BYTE   W12
 BYTE   N05  Fs0  v108
 BYTE   W24
 BYTE   N10  Fn0
 BYTE   W24
 BYTE   N05  Dn0  v104
 BYTE   W24
 BYTE   N10  Fn0
 BYTE   W12
 BYTE   PEND 
 BYTE   PATT
  POIN2 Label_7_015A1B31
 BYTE   PATT
  POIN2 Label_7_015A1B31
// 015   ----------------------------------------
 BYTE   W12
 BYTE   N05  Fs0  v108
 BYTE   W24
 BYTE   N10  Fn0
 BYTE   W24
 BYTE   N05  Dn0  v104
 BYTE   W24
 BYTE   N11  Cs0  v076
 BYTE   W12
// 016   ----------------------------------------
 BYTE   N23  Cs0  v072
 BYTE   W24
 BYTE   N01  Cs0  v052
 BYTE   W02
 BYTE   N01
 BYTE   W02
 BYTE   N01
 BYTE   W02
 BYTE   N01
 BYTE   W02
 BYTE   N01
 BYTE   W02
 BYTE   N01
 BYTE   W02
 BYTE   N11  Cs0  v092
 BYTE   W12
 BYTE   N32  Cs0  v084
 BYTE   W36
 BYTE   N11  Cs0  v076
 BYTE   W12
// 017   ----------------------------------------
 BYTE   N23  Cs0  v092
 BYTE   W24
 BYTE   N01  Cs0  v052
 BYTE   W02
 BYTE   N01
 BYTE   W02
 BYTE   N01
 BYTE   W02
 BYTE   N01
 BYTE   W02
 BYTE   N01
 BYTE   W02
 BYTE   N01
 BYTE   W02
 BYTE   N11  Cs0  v092
 BYTE   W12
 BYTE   N32  Cs0  v084
 BYTE   W48
// 018   ----------------------------------------
 BYTE   W12
 BYTE   N23  Cs0  v072
 BYTE   W24
 BYTE   Cs0  v076
 BYTE   W48
 BYTE   N11  Cs0  v060
 BYTE   W12
// 019   ----------------------------------------
 BYTE   N11
 BYTE   W12
 BYTE   N23  Cs0  v084
 BYTE   W48
 BYTE   Cs0  v072
 BYTE   W24
 BYTE   Cs0  v076
 BYTE   W12
// 020   ----------------------------------------
 BYTE   W36
 BYTE   N11  Cs0  v064
 BYTE   W12
 BYTE   Cs0  v072
 BYTE   W12
 BYTE   N23  Cs0  v084
 BYTE   W24
 BYTE   N32  Cs0  v096
 BYTE   W12
// 021   ----------------------------------------
 BYTE   W24
 BYTE   N11  Cs0  v072
 BYTE   W12
 BYTE   N23  Cs0  v092
 BYTE   W24
 BYTE   N32  Cs0  v096
 BYTE   W36
// 022   ----------------------------------------
 BYTE   N11  Cs0  v060
 BYTE   W12
 BYTE   Cs0  v072
 BYTE   W12
 BYTE   Cs0  v084
 BYTE   W11
 BYTE   FINE

//******************************************************//
	ALIGN 4

FE04ArmyofAgustriaSurfingKyogre:
	BYTE	8	// NumTrks
	BYTE	0	// NumBlks
	BYTE	FE04ArmyofAgustriaSurfingKyogre_pri	// Priority
	BYTE	FE04ArmyofAgustriaSurfingKyogre_rev	// Reverb.
    
	POIN2	FE04ArmyofAgustriaSurfingKyogre_grp
    
	POIN2	FE04ArmyofAgustriaSurfingKyogre_001
	POIN2	FE04ArmyofAgustriaSurfingKyogre_002
	POIN2	FE04ArmyofAgustriaSurfingKyogre_003
	POIN2	FE04ArmyofAgustriaSurfingKyogre_004
	POIN2	FE04ArmyofAgustriaSurfingKyogre_005
	POIN2	FE04ArmyofAgustriaSurfingKyogre_006
	POIN2	FE04ArmyofAgustriaSurfingKyogre_007
	POIN2	FE04ArmyofAgustriaSurfingKyogre_008

	
