//Event file generated from Sappy .s format.
	#include "MPlayDef.event"

	#define	FE04SilesianForcesRSflame_grp  voicegroup000
	#define	FE04SilesianForcesRSflame_pri  0
	#define	FE04SilesianForcesRSflame_rev  0
	#define	FE04SilesianForcesRSflame_mvl  127
	#define	FE04SilesianForcesRSflame_key  0
	#define	FE04SilesianForcesRSflame_tbs  1
	#define	FE04SilesianForcesRSflame_exg  0
	#define	FE04SilesianForcesRSflame_cmp  1

	// .rodata
	//	FE04SilesianForcesRSflame
	ALIGN 4


//**************** Track 1 (Midi-Chn.0) ****************//

FE04SilesianForcesRSflame_001:
// 000   ----------------------------------------
 BYTE   KEYSH   FE04SilesianForcesRSflame_key+0
 BYTE   TEMPO   62*FE04SilesianForcesRSflame_tbs/2
 BYTE   VOICE   48
 BYTE   VOL   38*FE04SilesianForcesRSflame_mvl/mxv
 BYTE   PAN   c_v-14
 BYTE   Fs4
 BYTE   W01
 BYTE   TEMPO   62*FE04SilesianForcesRSflame_tbs/2
 BYTE   N20  An1  v060
 BYTE   W01
 BYTE   TEMPO   62*FE04SilesianForcesRSflame_tbs/2
 BYTE   W01
 BYTE   TEMPO   62*FE04SilesianForcesRSflame_tbs/2
 BYTE   W01
 BYTE   TEMPO   62*FE04SilesianForcesRSflame_tbs/2
 BYTE   W01
 BYTE   TEMPO   62*FE04SilesianForcesRSflame_tbs/2
 BYTE   VOL   40*FE04SilesianForcesRSflame_mvl/mxv
 BYTE   W01
 BYTE   TEMPO   60*FE04SilesianForcesRSflame_tbs/2
 BYTE   Gs2
 BYTE   W01
 BYTE   TEMPO   60*FE04SilesianForcesRSflame_tbs/2
 BYTE   As2
 BYTE   W01
 BYTE   TEMPO   60*FE04SilesianForcesRSflame_tbs/2
 BYTE   Cn3
 BYTE   W01
 BYTE   TEMPO   60*FE04SilesianForcesRSflame_tbs/2
 BYTE   Cs3
 BYTE   W01
 BYTE   TEMPO   60*FE04SilesianForcesRSflame_tbs/2
 BYTE   Ds3
 BYTE   W01
 BYTE   TEMPO   60*FE04SilesianForcesRSflame_tbs/2
 BYTE   En3
 BYTE   W01
 BYTE   TEMPO   60*FE04SilesianForcesRSflame_tbs/2
 BYTE   Fs3
 BYTE   W01
 BYTE   TEMPO   60*FE04SilesianForcesRSflame_tbs/2
 BYTE   Gs3
 BYTE   W01
 BYTE   TEMPO   58*FE04SilesianForcesRSflame_tbs/2
 BYTE   An3
 BYTE   W01
 BYTE   TEMPO   58*FE04SilesianForcesRSflame_tbs/2
 BYTE   Bn3
 BYTE   W01
 BYTE   TEMPO   58*FE04SilesianForcesRSflame_tbs/2
 BYTE   Cs4
 BYTE   W01
 BYTE   TEMPO   58*FE04SilesianForcesRSflame_tbs/2
 BYTE   Dn4
 BYTE   W01
 BYTE   TEMPO   58*FE04SilesianForcesRSflame_tbs/2
 BYTE   En4
 BYTE   W01
 BYTE   TEMPO   58*FE04SilesianForcesRSflame_tbs/2
 BYTE   Fs4
 BYTE   W01
 BYTE   Gs4
 BYTE   W04
Label_0_563D72:
 BYTE   TEMPO   62*FE04SilesianForcesRSflame_tbs/2
 BYTE   VOL   65*FE04SilesianForcesRSflame_mvl/mxv
 BYTE   PAN   c_v+25
 BYTE   N02  An1  v104
 BYTE   W12
 BYTE   N01  An1  v108
 BYTE   W04
 BYTE   An1  v084
 BYTE   W04
 BYTE   An1  v076
 BYTE   W04
 BYTE   An1  v108
 BYTE   W12
 BYTE   N11
 BYTE   W12
 BYTE   N02  An1  v104
 BYTE   W12
 BYTE   N01  An1  v108
 BYTE   W04
 BYTE   An1  v076
 BYTE   W04
 BYTE   An1  v084
 BYTE   W04
// 001   ----------------------------------------
 BYTE   An1  v108
 BYTE   W12
 BYTE   N11  An1  v116
 BYTE   W12
 BYTE   N02  An1  v104
 BYTE   W12
 BYTE   N01
 BYTE   W04
 BYTE   An1  v084
 BYTE   W04
 BYTE   An1  v076
 BYTE   W04
 BYTE   An1  v108
 BYTE   W12
 BYTE   N11
 BYTE   W12
 BYTE   N03  An1  v116
 BYTE   W12
 BYTE   N01
 BYTE   W04
 BYTE   An1  v084
 BYTE   W04
 BYTE   An1  v076
 BYTE   W04
// 002   ----------------------------------------
 BYTE   An1  v108
 BYTE   W12
 BYTE   N11  An1  v116
 BYTE   W12
 BYTE   N02  Gs1  v104
 BYTE   W12
 BYTE   N01  Gs1  v108
 BYTE   W04
 BYTE   Gs1  v092
 BYTE   W04
 BYTE   Gs1  v084
 BYTE   W04
 BYTE   Gs1  v104
 BYTE   W12
 BYTE   N11  Gs1  v116
 BYTE   W12
 BYTE   N02  Gs1  v108
 BYTE   W12
 BYTE   N01  Gs1  v104
 BYTE   W04
 BYTE   Gs1  v092
 BYTE   W04
 BYTE   Gs1  v084
 BYTE   W04
// 003   ----------------------------------------
 BYTE   Gs1  v116
 BYTE   W12
 BYTE   N11
 BYTE   W12
 BYTE   N02  Gs1  v108
 BYTE   W12
 BYTE   N01  Gs1  v104
 BYTE   W04
 BYTE   Gs1  v084
 BYTE   W04
 BYTE   Gs1  v076
 BYTE   W04
 BYTE   Gs1  v108
 BYTE   W12
 BYTE   N10
 BYTE   W12
 BYTE   N03  Gs1  v116
 BYTE   W12
 BYTE   N01  Gs1  v108
 BYTE   W04
 BYTE   Gs1  v076
 BYTE   W04
 BYTE   Gs1  v084
 BYTE   W04
// 004   ----------------------------------------
 BYTE   Gs1  v108
 BYTE   W12
 BYTE   N11  Gs1  v116
 BYTE   W12
 BYTE   N02  Gn1  v108
 BYTE   W12
 BYTE   N01  Gn1  v104
 BYTE   W04
 BYTE   Gn1  v096
 BYTE   W04
 BYTE   Gn1  v092
 BYTE   W04
 BYTE   Gn1  v096
 BYTE   W12
 BYTE   N10  Gn1  v108
 BYTE   W12
 BYTE   N03  Gn1  v116
 BYTE   W12
 BYTE   N01  Gn1  v108
 BYTE   W04
 BYTE   Gn1  v092
 BYTE   W04
 BYTE   Gn1  v104
 BYTE   W04
// 005   ----------------------------------------
 BYTE   Gn1  v108
 BYTE   W12
 BYTE   N11  Gn1  v116
 BYTE   W12
 BYTE   N02  Gn1  v108
 BYTE   W12
 BYTE   N01  Gn1  v104
 BYTE   W04
 BYTE   Gn1  v096
 BYTE   W04
 BYTE   Gn1  v092
 BYTE   W04
 BYTE   Gn1  v096
 BYTE   W12
 BYTE   N10  Gn1  v116
 BYTE   W12
 BYTE   N03  Gn1  v124
 BYTE   W12
 BYTE   N01  Gn1  v116
 BYTE   W04
 BYTE   Gn1  v092
 BYTE   W04
 BYTE   Gn1  v104
 BYTE   W04
// 006   ----------------------------------------
 BYTE   Gn1  v108
 BYTE   W12
 BYTE   N11  Gn1  v116
 BYTE   W12
 BYTE   N03
 BYTE   W12
 BYTE   N01  Gn1  v104
 BYTE   W04
 BYTE   Gn1  v096
 BYTE   W04
 BYTE   Gn1  v092
 BYTE   W04
 BYTE   Gn1  v096
 BYTE   W12
 BYTE   N10  Gn1  v108
 BYTE   W12
 BYTE   N03  Gn1  v116
 BYTE   W12
 BYTE   N01  Gn1  v108
 BYTE   W04
 BYTE   Gn1  v092
 BYTE   W04
 BYTE   Gn1  v104
 BYTE   W04
// 007   ----------------------------------------
 BYTE   Gn1  v108
 BYTE   W12
 BYTE   N11  Gn1  v124
 BYTE   W12
 BYTE   N02  Gn1  v108
 BYTE   W12
 BYTE   N01  Gn1  v104
 BYTE   W04
 BYTE   Gn1  v096
 BYTE   W04
 BYTE   Gn1  v092
 BYTE   W04
 BYTE   Gn1  v096
 BYTE   W12
 BYTE   N10  Gn1  v108
 BYTE   W12
 BYTE   N03  Gn1  v116
 BYTE   W12
 BYTE   N01  Gn1  v108
 BYTE   W04
 BYTE   Gn1  v092
 BYTE   W04
 BYTE   Gn1  v104
 BYTE   W04
// 008   ----------------------------------------
 BYTE   Gn1  v108
 BYTE   W12
 BYTE   N11  Gn1  v124
 BYTE   W84
// 009   ----------------------------------------
 BYTE   W96
// 010   ----------------------------------------
 BYTE   W24
 BYTE   VOL   65*FE04SilesianForcesRSflame_mvl/mxv
 BYTE   PAN   c_v-34
 BYTE   N04  Dn1  v104
 BYTE   W12
 BYTE   N01  Dn1  v108
 BYTE   W04
 BYTE   Dn1  v092
 BYTE   W04
 BYTE   N01
 BYTE   W04
 BYTE   VOL   54*FE04SilesianForcesRSflame_mvl/mxv
 BYTE   N60  Dn1  v104
 BYTE   W01
 BYTE   VOL   54*FE04SilesianForcesRSflame_mvl/mxv
 BYTE   W01
 BYTE   As3
 BYTE   W02
 BYTE   Bn3
 BYTE   W01
 BYTE   Bn3
 BYTE   W01
 BYTE   Cn4
 BYTE   W02
 BYTE   Cs4
 BYTE   W01
 BYTE   Cs4
 BYTE   W02
 BYTE   Dn4
 BYTE   W01
 BYTE   Dn4
 BYTE   W01
 BYTE   Ds4
 BYTE   W02
 BYTE   En4
 BYTE   W01
 BYTE   En4
 BYTE   W02
 BYTE   Fn4
 BYTE   W01
 BYTE   Fs4
 BYTE   W01
 BYTE   Fs4
 BYTE   W02
 BYTE   Gn4
 BYTE   W01
 BYTE   Gs4
 BYTE   W24
 BYTE   W01
// 011   ----------------------------------------
 BYTE   W24
 BYTE   N04  Cn1  v108
 BYTE   W12
 BYTE   N01  Cn1  v104
 BYTE   W04
 BYTE   Cn1  v084
 BYTE   W04
 BYTE   Cn1  v104
 BYTE   W04
 BYTE   VOL   51*FE04SilesianForcesRSflame_mvl/mxv
 BYTE   N56  Cn1  v108
 BYTE   W01
 BYTE   VOL   51*FE04SilesianForcesRSflame_mvl/mxv
 BYTE   W01
 BYTE   Gn3
 BYTE   W01
 BYTE   Gs3
 BYTE   W01
 BYTE   Gs3
 BYTE   W01
 BYTE   An3
 BYTE   W01
 BYTE   An3
 BYTE   W01
 BYTE   As3
 BYTE   W01
 BYTE   Bn3
 BYTE   W01
 BYTE   Bn3
 BYTE   W01
 BYTE   Cn4
 BYTE   W01
 BYTE   Cs4
 BYTE   W02
 BYTE   Cs4
 BYTE   W01
 BYTE   Dn4
 BYTE   W01
 BYTE   Dn4
 BYTE   W01
 BYTE   Ds4
 BYTE   W01
 BYTE   En4
 BYTE   W01
 BYTE   En4
 BYTE   W01
 BYTE   Fn4
 BYTE   W01
 BYTE   Fs4
 BYTE   W01
 BYTE   Fs4
 BYTE   W01
 BYTE   Gn4
 BYTE   W01
 BYTE   Gs4
 BYTE   W24
 BYTE   W01
// 012   ----------------------------------------
 BYTE   W17
 BYTE   GoTo
  POIN2 Label_0_563D72
 BYTE   FINE

//**************** Track 2 (Midi-Chn.1) ****************//

FE04SilesianForcesRSflame_002:
// 000   ----------------------------------------
 BYTE   KEYSH   FE04SilesianForcesRSflame_key+0
 BYTE   VOICE   49
 BYTE   VOL   38*FE04SilesianForcesRSflame_mvl/mxv
 BYTE   PAN   c_v-14
 BYTE   Ds1
 BYTE   W01
 BYTE   N20  En2  v072
 BYTE   W04
 BYTE   VOL   40*FE04SilesianForcesRSflame_mvl/mxv
 BYTE   W01
 BYTE   Gs2
 BYTE   W01
 BYTE   As2
 BYTE   W01
 BYTE   Cn3
 BYTE   W01
 BYTE   Cs3
 BYTE   W01
 BYTE   Ds3
 BYTE   W01
 BYTE   En3
 BYTE   W01
 BYTE   Fs3
 BYTE   W01
 BYTE   Gs3
 BYTE   W01
 BYTE   An3
 BYTE   W01
 BYTE   Bn3
 BYTE   W01
 BYTE   Cs4
 BYTE   W01
 BYTE   Dn4
 BYTE   W01
 BYTE   En4
 BYTE   W01
 BYTE   Fs4
 BYTE   W01
 BYTE   Gs4
 BYTE   W04
Label_1_5648FF:
 BYTE   W02
 BYTE   VOL   36*FE04SilesianForcesRSflame_mvl/mxv
 BYTE   PAN   c_v-25
 BYTE   N22  En4  v060
 BYTE   W24
 BYTE   Dn4  v064
 BYTE   W24
 BYTE   Fn4  v060
 BYTE   W22
// 001   ----------------------------------------
 BYTE   W02
 BYTE   En4  v072
 BYTE   W24
 BYTE   Gn4  v064
 BYTE   W24
 BYTE   Fn4  v068
 BYTE   W24
 BYTE   N44  En4  v072
 BYTE   W22
// 002   ----------------------------------------
 BYTE   W02
 BYTE   VOL   36*FE04SilesianForcesRSflame_mvl/mxv
 BYTE   W01
 BYTE   Ds2
 BYTE   W02
 BYTE   Dn2
 BYTE   W02
 BYTE   Cs2
 BYTE   W02
 BYTE   Cs2
 BYTE   W02
 BYTE   Cn2
 BYTE   W02
 BYTE   Bn1
 BYTE   W02
 BYTE   Bn1
 BYTE   W02
 BYTE   As1
 BYTE   W02
 BYTE   An1
 BYTE   W02
 BYTE   An1
 BYTE   W02
 BYTE   Gs1
 BYTE   W02
 BYTE   Gs1
 BYTE   W01
 BYTE   Ds2
 BYTE   N22  Ds4  v080
 BYTE   W24
 BYTE   Cs4  v084
 BYTE   W24
 BYTE   Bn3  v068
 BYTE   W22
// 003   ----------------------------------------
 BYTE   W02
 BYTE   Cs4  v084
 BYTE   W24
 BYTE   N44  As3  v072
 BYTE   W48
 BYTE   N40  Gs3  v068
 BYTE   W22
// 004   ----------------------------------------
 BYTE   W02
 BYTE   VOL   36*FE04SilesianForcesRSflame_mvl/mxv
 BYTE   W01
 BYTE   Dn2
 BYTE   W01
 BYTE   Cs2
 BYTE   W01
 BYTE   Cs2
 BYTE   W01
 BYTE   Cn2
 BYTE   W01
 BYTE   Bn1
 BYTE   W01
 BYTE   Bn1
 BYTE   W01
 BYTE   As1
 BYTE   W01
 BYTE   An1
 BYTE   W01
 BYTE   An1
 BYTE   W01
 BYTE   Gs1
 BYTE   W01
 BYTE   Gs1
 BYTE   W01
 BYTE   Gn1
 BYTE   W01
 BYTE   Fs1
 BYTE   W01
 BYTE   Fs1
 BYTE   W01
 BYTE   Fn1
 BYTE   W01
 BYTE   En1
 BYTE   W01
 BYTE   En1
 BYTE   W01
 BYTE   Ds1
 BYTE   W01
 BYTE   Ds1
 BYTE   W01
 BYTE   Dn1
 BYTE   W01
 BYTE   Cs1
 BYTE   W48
 BYTE   W01
 BYTE   N22  Cn3  v064
 BYTE   W24
// 005   ----------------------------------------
 BYTE   Cn3  v060
 BYTE   W24
 BYTE   N44  Ds3  v064
 BYTE   W48
 BYTE   Cn3
 BYTE   W24
// 006   ----------------------------------------
 BYTE   W24
 BYTE   N22  An2  v060
 BYTE   W24
 BYTE   N10  As2  v072
 BYTE   W12
 BYTE   N09  Dn3
 BYTE   W12
 BYTE   N22  Cn3  v064
 BYTE   W24
// 007   ----------------------------------------
 BYTE   Cn3  v060
 BYTE   W24
 BYTE   N44  Ds3  v064
 BYTE   W48
 BYTE   As2
 BYTE   W24
// 008   ----------------------------------------
 BYTE   W24
 BYTE   VOL   65*FE04SilesianForcesRSflame_mvl/mxv
 BYTE   PAN   c_v+14
 BYTE   W24
 BYTE   N04  Dn2  v076
 BYTE   W06
 BYTE   Cs2  v068
 BYTE   W06
 BYTE   Dn2  v060
 BYTE   W07
 BYTE   Ds2
 BYTE   W06
 BYTE   N09  Dn2
 BYTE   W12
 BYTE   VOL   46*FE04SilesianForcesRSflame_mvl/mxv
 BYTE   N36  An2  v084
 BYTE   W01
 BYTE   VOL   47*FE04SilesianForcesRSflame_mvl/mxv
 BYTE   W01
 BYTE   Dn3
 BYTE   W01
 BYTE   En3
 BYTE   W01
 BYTE   Fn3
 BYTE   W01
 BYTE   Fs3
 BYTE   W01
 BYTE   Gn3
 BYTE   W01
 BYTE   Gs3
 BYTE   W01
 BYTE   An3
 BYTE   W01
 BYTE   Bn3
 BYTE   W01
 BYTE   Cn4
 BYTE   W01
// 009   ----------------------------------------
 BYTE   Cs4
 BYTE   W01
 BYTE   Dn4
 BYTE   W01
 BYTE   Ds4
 BYTE   W01
 BYTE   En4
 BYTE   W01
 BYTE   Fn4
 BYTE   W01
 BYTE   Fs4
 BYTE   W01
 BYTE   Gs4
 BYTE   W42
 BYTE   N06  Gn2  v076
 BYTE   W08
 BYTE   An2  v064
 BYTE   W08
 BYTE   As2  v072
 BYTE   W08
 BYTE   N17  Cn3  v092
 BYTE   W24
// 010   ----------------------------------------
 BYTE   N06  As2  v052
 BYTE   W08
 BYTE   N05  An2  v064
 BYTE   W08
 BYTE   N06  Gn2  v076
 BYTE   W08
 BYTE   VOL   54*FE04SilesianForcesRSflame_mvl/mxv
 BYTE   N20  Fn2  v084
 BYTE   W01
 BYTE   VOL   56*FE04SilesianForcesRSflame_mvl/mxv
 BYTE   W01
 BYTE   Bn3
 BYTE   W01
 BYTE   Cs4
 BYTE   W01
 BYTE   Dn4
 BYTE   W01
 BYTE   Dn4
 BYTE   W01
 BYTE   En4
 BYTE   W01
 BYTE   Fn4
 BYTE   W01
 BYTE   Fs4
 BYTE   W01
 BYTE   Gn4
 BYTE   W01
 BYTE   Gs4
 BYTE   W14
 BYTE   N20  An2  v072
 BYTE   W24
 BYTE   Fn2  v076
 BYTE   W24
// 011   ----------------------------------------
 BYTE   N22  Dn2  v084
 BYTE   W24
 BYTE   N21  Ds2  v076
 BYTE   W24
 BYTE   VOL   54*FE04SilesianForcesRSflame_mvl/mxv
 BYTE   N56  Gn2  v092
 BYTE   W01
 BYTE   VOL   54*FE04SilesianForcesRSflame_mvl/mxv
 BYTE   W01
 BYTE   As3
 BYTE   W01
 BYTE   Bn3
 BYTE   W01
 BYTE   Bn3
 BYTE   W01
 BYTE   Cn4
 BYTE   W01
 BYTE   Cs4
 BYTE   W01
 BYTE   Cs4
 BYTE   W01
 BYTE   Dn4
 BYTE   W01
 BYTE   Dn4
 BYTE   W01
 BYTE   Ds4
 BYTE   W01
 BYTE   En4
 BYTE   W01
 BYTE   En4
 BYTE   W01
 BYTE   Fn4
 BYTE   W01
 BYTE   Fs4
 BYTE   W01
 BYTE   Fs4
 BYTE   W01
 BYTE   Gn4
 BYTE   W01
 BYTE   Gs4
 BYTE   W30
 BYTE   W01
// 012   ----------------------------------------
 BYTE   W17
 BYTE   GoTo
  POIN2 Label_1_5648FF
 BYTE   FINE

//**************** Track 3 (Midi-Chn.2) ****************//

FE04SilesianForcesRSflame_003:
// 000   ----------------------------------------
 BYTE   KEYSH   FE04SilesianForcesRSflame_key+0
 BYTE   VOICE   46
 BYTE   VOL   38*FE04SilesianForcesRSflame_mvl/mxv
 BYTE   PAN   c_v-14
 BYTE   Dn2
 BYTE   N20  An1  v064
 BYTE   W04
 BYTE   VOL   40*FE04SilesianForcesRSflame_mvl/mxv
 BYTE   W01
 BYTE   Gs2
 BYTE   W01
 BYTE   As2
 BYTE   W01
 BYTE   Cn3
 BYTE   W01
 BYTE   Cs3
 BYTE   W01
 BYTE   Ds3
 BYTE   W01
 BYTE   En3
 BYTE   W01
 BYTE   Fs3
 BYTE   W01
 BYTE   Gs3
 BYTE   W01
 BYTE   An3
 BYTE   W01
 BYTE   Bn3
 BYTE   W01
 BYTE   Cs4
 BYTE   W01
 BYTE   Dn4
 BYTE   W01
 BYTE   En4
 BYTE   W01
 BYTE   Fs4
 BYTE   W01
 BYTE   Gs4
 BYTE   W05
Label_2_0102A8DE:
 BYTE   W04
 BYTE   VOL   49*FE04SilesianForcesRSflame_mvl/mxv
 BYTE   PAN   c_v-43
 BYTE   AsM1
 BYTE   N03  Gn4  v068
 BYTE   W01
 BYTE   PAN   c_v-41
 BYTE   W01
 BYTE   Cn0
 BYTE   W01
 BYTE   Dn0
 BYTE   W01
 BYTE   Ds0
 BYTE   W01
 BYTE   En0
 BYTE   W01
 BYTE   Fs0
 BYTE   W01
 BYTE   Gn0
 BYTE   W01
 BYTE   Gs0
 BYTE   N03  En4  v052
 BYTE   W01
 BYTE   PAN   c_v-30
 BYTE   W01
 BYTE   Bn0
 BYTE   W01
 BYTE   Cn1
 BYTE   W01
 BYTE   Dn1
 BYTE   W01
 BYTE   Ds1
 BYTE   W01
 BYTE   En1
 BYTE   W01
 BYTE   Fs1
 BYTE   W01
 BYTE   Gn1
 BYTE   N03  Cn4  v072
 BYTE   W01
 BYTE   PAN   c_v-19
 BYTE   W01
 BYTE   As1
 BYTE   W01
 BYTE   Bn1
 BYTE   W01
 BYTE   Cs2
 BYTE   W01
 BYTE   Dn2
 BYTE   W01
 BYTE   Ds2
 BYTE   W01
 BYTE   Fn2
 BYTE   W01
 BYTE   Fs2
 BYTE   N03  Gn4  v068
 BYTE   W01
 BYTE   PAN   c_v-9
 BYTE   W01
 BYTE   An2
 BYTE   W01
 BYTE   As2
 BYTE   W01
 BYTE   Bn2
 BYTE   W01
 BYTE   Cs3
 BYTE   W01
 BYTE   Dn3
 BYTE   W01
 BYTE   Ds3
 BYTE   W01
 BYTE   Fn3
 BYTE   N03  En4  v060
 BYTE   W01
 BYTE   PAN   c_v+2
 BYTE   W01
 BYTE   Gn3
 BYTE   W01
 BYTE   An3
 BYTE   W01
 BYTE   As3
 BYTE   W01
 BYTE   Bn3
 BYTE   W01
 BYTE   Cs4
 BYTE   W01
 BYTE   Dn4
 BYTE   W01
 BYTE   Ds4
 BYTE   N03  Cn4  v080
 BYTE   W01
 BYTE   PAN   c_v+13
 BYTE   W01
 BYTE   Fs4
 BYTE   W01
 BYTE   Gn4
 BYTE   W01
 BYTE   An4
 BYTE   W01
 BYTE   As4
 BYTE   W01
 BYTE   Bn4
 BYTE   W01
 BYTE   Cs5
 BYTE   W01
 BYTE   Dn5
 BYTE   N03  Gn4  v068
 BYTE   W01
 BYTE   PAN   c_v+24
 BYTE   W01
 BYTE   Fn5
 BYTE   W01
 BYTE   Fs5
 BYTE   W01
 BYTE   Gs5
 BYTE   W01
 BYTE   An5
 BYTE   W01
 BYTE   As5
 BYTE   W01
 BYTE   Cn6
 BYTE   W01
 BYTE   Cs6
 BYTE   N03  En4  v052
 BYTE   W01
 BYTE   PAN   c_v+34
 BYTE   W01
 BYTE   En6
 BYTE   W01
 BYTE   Fn6
 BYTE   W01
 BYTE   Fs6
 BYTE   W01
 BYTE   Gs6
 BYTE   W01
 BYTE   An6
 BYTE   W01
 BYTE   As6
 BYTE   W01
 BYTE   As6
 BYTE   N03  Cn4  v072
 BYTE   W01
 BYTE   PAN   c_v+41
 BYTE   W01
 BYTE   Gs6
 BYTE   W01
 BYTE   Fs6
 BYTE   W01
// 001   ----------------------------------------
 BYTE   Fn6
 BYTE   W01
 BYTE   En6
 BYTE   W01
 BYTE   Dn6
 BYTE   W01
 BYTE   Cs6
 BYTE   W01
 BYTE   Cn6
 BYTE   N03  Gn4  v076
 BYTE   W01
 BYTE   PAN   c_v+30
 BYTE   W01
 BYTE   An5
 BYTE   W01
 BYTE   Gs5
 BYTE   W01
 BYTE   Fs5
 BYTE   W01
 BYTE   Fn5
 BYTE   W01
 BYTE   En5
 BYTE   W01
 BYTE   Dn5
 BYTE   W01
 BYTE   Cs5
 BYTE   N03  En4  v060
 BYTE   W01
 BYTE   PAN   c_v+19
 BYTE   W01
 BYTE   As4
 BYTE   W01
 BYTE   An4
 BYTE   W01
 BYTE   Gn4
 BYTE   W01
 BYTE   Fs4
 BYTE   W01
 BYTE   Fn4
 BYTE   W01
 BYTE   Ds4
 BYTE   W01
 BYTE   Dn4
 BYTE   N03  Cn4  v072
 BYTE   W01
 BYTE   PAN   c_v+9
 BYTE   W01
 BYTE   Bn3
 BYTE   W01
 BYTE   As3
 BYTE   W01
 BYTE   An3
 BYTE   W01
 BYTE   Gn3
 BYTE   W01
 BYTE   Fs3
 BYTE   W01
 BYTE   Fn3
 BYTE   W01
 BYTE   Ds3
 BYTE   N03  Gn4  v076
 BYTE   W01
 BYTE   PAN   c_v-2
 BYTE   W01
 BYTE   Cs3
 BYTE   W01
 BYTE   Bn2
 BYTE   W01
 BYTE   As2
 BYTE   W01
 BYTE   An2
 BYTE   W01
 BYTE   Gn2
 BYTE   W01
 BYTE   Fs2
 BYTE   W01
 BYTE   Fn2
 BYTE   N03  En4  v064
 BYTE   W01
 BYTE   PAN   c_v-13
 BYTE   W01
 BYTE   Dn2
 BYTE   W01
 BYTE   Cs2
 BYTE   W01
 BYTE   Bn1
 BYTE   W01
 BYTE   As1
 BYTE   W01
 BYTE   An1
 BYTE   W01
 BYTE   Gn1
 BYTE   W01
 BYTE   Fs1
 BYTE   N03  Cn4  v076
 BYTE   W01
 BYTE   PAN   c_v-24
 BYTE   W01
 BYTE   Ds1
 BYTE   W01
 BYTE   Dn1
 BYTE   W01
 BYTE   Cn1
 BYTE   W01
 BYTE   Bn0
 BYTE   W01
 BYTE   As0
 BYTE   W01
 BYTE   Gs0
 BYTE   W01
 BYTE   Gn0
 BYTE   N03  Gn4
 BYTE   W01
 BYTE   PAN   c_v-34
 BYTE   W01
 BYTE   En0
 BYTE   W01
 BYTE   Ds0
 BYTE   W01
 BYTE   Dn0
 BYTE   W01
 BYTE   Cn0
 BYTE   W01
 BYTE   BnM1
 BYTE   W01
 BYTE   AsM1
 BYTE   W01
 BYTE   AsM1
 BYTE   N03  En4  v060
 BYTE   W01
 BYTE   PAN   c_v-41
 BYTE   W01
 BYTE   Cn0
 BYTE   W01
 BYTE   Dn0
 BYTE   W01
 BYTE   Ds0
 BYTE   W01
 BYTE   En0
 BYTE   W01
 BYTE   Fs0
 BYTE   W01
 BYTE   Gn0
 BYTE   W01
 BYTE   Gs0
 BYTE   N03  Cn4  v068
 BYTE   W01
 BYTE   PAN   c_v-30
 BYTE   W01
 BYTE   Bn0
 BYTE   W01
 BYTE   Cn1
 BYTE   W01
 BYTE   Dn1
 BYTE   W01
 BYTE   Ds1
 BYTE   W01
 BYTE   En1
 BYTE   W01
 BYTE   Fs1
 BYTE   W01
 BYTE   Gn1
 BYTE   N03  Gn4  v080
 BYTE   W01
 BYTE   PAN   c_v-19
 BYTE   W01
 BYTE   As1
 BYTE   W01
 BYTE   Bn1
 BYTE   W01
 BYTE   Cs2
 BYTE   W01
 BYTE   Dn2
 BYTE   W01
 BYTE   Ds2
 BYTE   W01
 BYTE   Fn2
 BYTE   W01
 BYTE   Fs2
 BYTE   N03  En4  v068
 BYTE   W01
 BYTE   PAN   c_v-9
 BYTE   W01
 BYTE   An2
 BYTE   W01
 BYTE   As2
 BYTE   W01
 BYTE   Bn2
 BYTE   W01
 BYTE   Cs3
 BYTE   W01
 BYTE   Dn3
 BYTE   W01
 BYTE   Ds3
 BYTE   W01
 BYTE   Fn3
 BYTE   N03  Cn4  v040
 BYTE   W01
 BYTE   PAN   c_v+2
 BYTE   W01
 BYTE   Gn3
 BYTE   W01
 BYTE   An3
 BYTE   W01
// 002   ----------------------------------------
 BYTE   As3
 BYTE   W01
 BYTE   Bn3
 BYTE   W01
 BYTE   Cs4
 BYTE   W01
 BYTE   Dn4
 BYTE   W01
 BYTE   Ds4
 BYTE   N03  An4  v072
 BYTE   W01
 BYTE   PAN   c_v+13
 BYTE   W01
 BYTE   Fs4
 BYTE   W01
 BYTE   Gn4
 BYTE   W01
 BYTE   An4
 BYTE   W01
 BYTE   As4
 BYTE   W01
 BYTE   Bn4
 BYTE   W01
 BYTE   Cs5
 BYTE   W01
 BYTE   Dn5
 BYTE   N03  Fn4  v064
 BYTE   W01
 BYTE   PAN   c_v+24
 BYTE   W01
 BYTE   Fn5
 BYTE   W01
 BYTE   Fs5
 BYTE   W01
 BYTE   Gs5
 BYTE   W01
 BYTE   An5
 BYTE   W01
 BYTE   As5
 BYTE   W01
 BYTE   Cn6
 BYTE   W01
 BYTE   Cs6
 BYTE   N03  Dn4  v072
 BYTE   W01
 BYTE   PAN   c_v+34
 BYTE   W01
 BYTE   En6
 BYTE   W01
 BYTE   Fn6
 BYTE   W01
 BYTE   Fs6
 BYTE   W01
 BYTE   Gs6
 BYTE   W01
 BYTE   An6
 BYTE   W01
 BYTE   As6
 BYTE   W01
 BYTE   As6
 BYTE   N03  Fs4  v068
 BYTE   W01
 BYTE   PAN   c_v+41
 BYTE   W01
 BYTE   Gs6
 BYTE   W01
 BYTE   Fs6
 BYTE   W01
 BYTE   Fn6
 BYTE   W01
 BYTE   En6
 BYTE   W01
 BYTE   Dn6
 BYTE   W01
 BYTE   Cs6
 BYTE   W01
 BYTE   Cn6
 BYTE   N03  Ds4  v052
 BYTE   W01
 BYTE   PAN   c_v+30
 BYTE   W01
 BYTE   An5
 BYTE   W01
 BYTE   Gs5
 BYTE   W01
 BYTE   Fs5
 BYTE   W01
 BYTE   Fn5
 BYTE   W01
 BYTE   En5
 BYTE   W01
 BYTE   Dn5
 BYTE   W01
 BYTE   Cs5
 BYTE   N03  Bn3  v072
 BYTE   W01
 BYTE   PAN   c_v+19
 BYTE   W01
 BYTE   As4
 BYTE   W01
 BYTE   An4
 BYTE   W01
 BYTE   Gn4
 BYTE   W01
 BYTE   Fs4
 BYTE   W01
 BYTE   Fn4
 BYTE   W01
 BYTE   Ds4
 BYTE   W01
 BYTE   Dn4
 BYTE   N03  Fs4  v068
 BYTE   W01
 BYTE   PAN   c_v+9
 BYTE   W01
 BYTE   Bn3
 BYTE   W01
 BYTE   As3
 BYTE   W01
 BYTE   An3
 BYTE   W01
 BYTE   Gn3
 BYTE   W01
 BYTE   Fs3
 BYTE   W01
 BYTE   Fn3
 BYTE   W01
 BYTE   Ds3
 BYTE   N03  Ds4  v060
 BYTE   W01
 BYTE   PAN   c_v-2
 BYTE   W01
 BYTE   Cs3
 BYTE   W01
 BYTE   Bn2
 BYTE   W01
 BYTE   As2
 BYTE   W01
 BYTE   An2
 BYTE   W01
 BYTE   Gn2
 BYTE   W01
 BYTE   Fs2
 BYTE   W01
 BYTE   Fn2
 BYTE   N03  Bn3  v080
 BYTE   W01
 BYTE   PAN   c_v-13
 BYTE   W01
 BYTE   Dn2
 BYTE   W01
 BYTE   Cs2
 BYTE   W01
 BYTE   Bn1
 BYTE   W01
 BYTE   As1
 BYTE   W01
 BYTE   An1
 BYTE   W01
 BYTE   Gn1
 BYTE   W01
 BYTE   Fs1
 BYTE   N03  Fs4  v068
 BYTE   W01
 BYTE   PAN   c_v-24
 BYTE   W01
 BYTE   Ds1
 BYTE   W01
 BYTE   Dn1
 BYTE   W01
 BYTE   Cn1
 BYTE   W01
 BYTE   Bn0
 BYTE   W01
 BYTE   As0
 BYTE   W01
 BYTE   Gs0
 BYTE   W01
 BYTE   Gn0
 BYTE   N03  Ds4  v052
 BYTE   W01
 BYTE   PAN   c_v-34
 BYTE   W01
 BYTE   En0
 BYTE   W01
 BYTE   Ds0
 BYTE   W01
 BYTE   Dn0
 BYTE   W01
 BYTE   Cn0
 BYTE   W01
 BYTE   BnM1
 BYTE   W01
 BYTE   AsM1
 BYTE   W01
 BYTE   AsM1
 BYTE   N03  Bn3  v072
 BYTE   W01
 BYTE   PAN   c_v-41
 BYTE   W01
 BYTE   Cn0
 BYTE   W01
 BYTE   Dn0
 BYTE   W01
// 003   ----------------------------------------
 BYTE   Ds0
 BYTE   W01
 BYTE   En0
 BYTE   W01
 BYTE   Fs0
 BYTE   W01
 BYTE   Gn0
 BYTE   W01
 BYTE   Gs0
 BYTE   N03  Fs4  v076
 BYTE   W01
 BYTE   PAN   c_v-30
 BYTE   W01
 BYTE   Bn0
 BYTE   W01
 BYTE   Cn1
 BYTE   W01
 BYTE   Dn1
 BYTE   W01
 BYTE   Ds1
 BYTE   W01
 BYTE   En1
 BYTE   W01
 BYTE   Fs1
 BYTE   W01
 BYTE   Gn1
 BYTE   N03  Ds4  v060
 BYTE   W01
 BYTE   PAN   c_v-19
 BYTE   W01
 BYTE   As1
 BYTE   W01
 BYTE   Bn1
 BYTE   W01
 BYTE   Cs2
 BYTE   W01
 BYTE   Dn2
 BYTE   W01
 BYTE   Ds2
 BYTE   W01
 BYTE   Fn2
 BYTE   W01
 BYTE   Fs2
 BYTE   N03  Bn3  v072
 BYTE   W01
 BYTE   PAN   c_v-9
 BYTE   W01
 BYTE   An2
 BYTE   W01
 BYTE   As2
 BYTE   W01
 BYTE   Bn2
 BYTE   W01
 BYTE   Cs3
 BYTE   W01
 BYTE   Dn3
 BYTE   W01
 BYTE   Ds3
 BYTE   W01
 BYTE   Fn3
 BYTE   N03  Fs4  v076
 BYTE   W01
 BYTE   PAN   c_v+2
 BYTE   W01
 BYTE   Gn3
 BYTE   W01
 BYTE   An3
 BYTE   W01
 BYTE   As3
 BYTE   W01
 BYTE   Bn3
 BYTE   W01
 BYTE   Cs4
 BYTE   W01
 BYTE   Dn4
 BYTE   W01
 BYTE   Ds4
 BYTE   N03  Ds4  v064
 BYTE   W01
 BYTE   PAN   c_v+13
 BYTE   W01
 BYTE   Fs4
 BYTE   W01
 BYTE   Gn4
 BYTE   W01
 BYTE   An4
 BYTE   W01
 BYTE   As4
 BYTE   W01
 BYTE   Bn4
 BYTE   W01
 BYTE   Cs5
 BYTE   W01
 BYTE   Dn5
 BYTE   N03  Bn3  v076
 BYTE   W01
 BYTE   PAN   c_v+24
 BYTE   W01
 BYTE   Fn5
 BYTE   W01
 BYTE   Fs5
 BYTE   W01
 BYTE   Gs5
 BYTE   W01
 BYTE   An5
 BYTE   W01
 BYTE   As5
 BYTE   W01
 BYTE   Cn6
 BYTE   W01
 BYTE   Cs6
 BYTE   N03  Fs4
 BYTE   W01
 BYTE   PAN   c_v+34
 BYTE   W01
 BYTE   En6
 BYTE   W01
 BYTE   Fn6
 BYTE   W01
 BYTE   Fs6
 BYTE   W01
 BYTE   Gs6
 BYTE   W01
 BYTE   An6
 BYTE   W01
 BYTE   As6
 BYTE   W01
 BYTE   As6
 BYTE   N03  Ds4  v060
 BYTE   W01
 BYTE   PAN   c_v+41
 BYTE   W01
 BYTE   Gs6
 BYTE   W01
 BYTE   Fs6
 BYTE   W01
 BYTE   Fn6
 BYTE   W01
 BYTE   En6
 BYTE   W01
 BYTE   Dn6
 BYTE   W01
 BYTE   Cs6
 BYTE   W01
 BYTE   Cn6
 BYTE   N03  Bn3  v068
 BYTE   W01
 BYTE   PAN   c_v+30
 BYTE   W01
 BYTE   An5
 BYTE   W01
 BYTE   Gs5
 BYTE   W01
 BYTE   Fs5
 BYTE   W01
 BYTE   Fn5
 BYTE   W01
 BYTE   En5
 BYTE   W01
 BYTE   Dn5
 BYTE   W01
 BYTE   Cs5
 BYTE   N03  Fs4  v080
 BYTE   W01
 BYTE   PAN   c_v+19
 BYTE   W01
 BYTE   As4
 BYTE   W01
 BYTE   An4
 BYTE   W01
 BYTE   Gn4
 BYTE   W01
 BYTE   Fs4
 BYTE   W01
 BYTE   Fn4
 BYTE   W01
 BYTE   Ds4
 BYTE   W01
 BYTE   Dn4
 BYTE   N03  Ds4  v068
 BYTE   W01
 BYTE   PAN   c_v+9
 BYTE   W01
 BYTE   Bn3
 BYTE   W01
 BYTE   As3
 BYTE   W01
 BYTE   An3
 BYTE   W01
 BYTE   Gn3
 BYTE   W01
 BYTE   Fs3
 BYTE   W01
 BYTE   Fn3
 BYTE   W01
 BYTE   Ds3
 BYTE   N03  Bn3  v040
 BYTE   W01
 BYTE   PAN   c_v-2
 BYTE   W01
 BYTE   Cs3
 BYTE   W01
 BYTE   Bn2
 BYTE   W01
// 004   ----------------------------------------
 BYTE   As2
 BYTE   W01
 BYTE   An2
 BYTE   W01
 BYTE   Gn2
 BYTE   W01
 BYTE   Fs2
 BYTE   W01
 BYTE   Fn2
 BYTE   N03  Gs4  v072
 BYTE   W01
 BYTE   PAN   c_v-13
 BYTE   W01
 BYTE   Dn2
 BYTE   W01
 BYTE   Cs2
 BYTE   W01
 BYTE   Bn1
 BYTE   W01
 BYTE   As1
 BYTE   W01
 BYTE   An1
 BYTE   W01
 BYTE   Gn1
 BYTE   W01
 BYTE   Fs1
 BYTE   N03  En4  v064
 BYTE   W01
 BYTE   PAN   c_v-24
 BYTE   W01
 BYTE   Ds1
 BYTE   W01
 BYTE   Dn1
 BYTE   W01
 BYTE   Cn1
 BYTE   W01
 BYTE   Bn0
 BYTE   W01
 BYTE   As0
 BYTE   W01
 BYTE   Gs0
 BYTE   W01
 BYTE   Gn0
 BYTE   N03  Cs4  v072
 BYTE   W01
 BYTE   PAN   c_v-34
 BYTE   W01
 BYTE   En0
 BYTE   W01
 BYTE   Ds0
 BYTE   W01
 BYTE   Ds1  v040
 BYTE   N03  Gn2  v096
 BYTE   W01
 BYTE   PAN   c_v-23
 BYTE   W01
 BYTE   BnM1
 BYTE   W01
 BYTE   Gn1
 BYTE   W01
 BYTE   An1
 BYTE   W01
 BYTE   As1
 BYTE   W01
 BYTE   Bn1
 BYTE   W01
 BYTE   Cn2
 BYTE   W01
 BYTE   Dn2
 BYTE   N03  Gn3  v064
 BYTE   W01
 BYTE   PAN   c_v-13
 BYTE   W01
 BYTE   En2
 BYTE   W01
 BYTE   Fn2
 BYTE   W01
 BYTE   Gn2
 BYTE   W01
 BYTE   Gs2
 BYTE   W01
 BYTE   An2
 BYTE   W01
 BYTE   As2
 BYTE   W01
 BYTE   Cn3
 BYTE   N03  Gn3  v060
 BYTE   W01
 BYTE   PAN   c_v-3
 BYTE   W01
 BYTE   Dn3
 BYTE   W01
 BYTE   Ds3
 BYTE   W01
 BYTE   Fn3
 BYTE   W01
 BYTE   Fs3
 BYTE   W01
 BYTE   Gn3
 BYTE   W01
 BYTE   Gs3
 BYTE   W01
 BYTE   As3
 BYTE   N03  Gn3  v096
 BYTE   W01
 BYTE   PAN   c_v+7
 BYTE   W01
 BYTE   Cn4
 BYTE   W01
 BYTE   Cs4
 BYTE   W01
 BYTE   Ds4
 BYTE   W01
 BYTE   En4
 BYTE   W01
 BYTE   Fn4
 BYTE   W01
 BYTE   Fs4
 BYTE   W01
 BYTE   Gs4
 BYTE   N03  Gn3  v064
 BYTE   W01
 BYTE   PAN   c_v+17
 BYTE   W01
 BYTE   As4
 BYTE   W01
 BYTE   Bn4
 BYTE   W01
 BYTE   Cs5
 BYTE   W01
 BYTE   Dn5
 BYTE   W01
 BYTE   Ds5
 BYTE   W01
 BYTE   En5
 BYTE   W01
 BYTE   Ds1  v040
 BYTE   N03
 BYTE   W01
 BYTE   PAN   c_v-23
 BYTE   W01
 BYTE   Fs1
 BYTE   W01
 BYTE   Gn1
 BYTE   W01
 BYTE   An1
 BYTE   W01
 BYTE   As1
 BYTE   W01
 BYTE   Bn1
 BYTE   W01
 BYTE   Cn2
 BYTE   W01
 BYTE   Dn2
 BYTE   N03  Gn2  v104
 BYTE   W01
 BYTE   PAN   c_v-13
 BYTE   W01
 BYTE   En2
 BYTE   W01
 BYTE   Fn2
 BYTE   W01
 BYTE   Gn2
 BYTE   W01
 BYTE   Gs2
 BYTE   W01
 BYTE   An2
 BYTE   W01
 BYTE   As2
 BYTE   W01
 BYTE   Cn3
 BYTE   N03  Gn3  v064
 BYTE   W01
 BYTE   PAN   c_v-3
 BYTE   W01
 BYTE   Dn3
 BYTE   W01
 BYTE   Ds3
 BYTE   W01
 BYTE   Fn3
 BYTE   W01
 BYTE   Fs3
 BYTE   W01
 BYTE   Gn3
 BYTE   W01
 BYTE   Gs3
 BYTE   W01
 BYTE   As3
 BYTE   N03
 BYTE   W01
 BYTE   PAN   c_v+7
 BYTE   W01
 BYTE   Cn4
 BYTE   W01
 BYTE   Cs4
 BYTE   W01
 BYTE   Ds4
 BYTE   W01
 BYTE   En4
 BYTE   W01
 BYTE   Fn4
 BYTE   W01
 BYTE   Fs4
 BYTE   W01
// 005   ----------------------------------------
 BYTE   Gs4
 BYTE   N03  Gn3  v096
 BYTE   W01
 BYTE   PAN   c_v+17
 BYTE   W01
 BYTE   As4
 BYTE   W01
 BYTE   Bn4
 BYTE   W01
 BYTE   Cs5
 BYTE   W01
 BYTE   Dn5
 BYTE   W01
 BYTE   Ds5
 BYTE   W01
 BYTE   En5
 BYTE   W01
 BYTE   Ds1  v040
 BYTE   N03  Gn3  v072
 BYTE   W01
 BYTE   PAN   c_v-23
 BYTE   W01
 BYTE   Fs1
 BYTE   W01
 BYTE   Gn1
 BYTE   W01
 BYTE   An1
 BYTE   W01
 BYTE   As1
 BYTE   W01
 BYTE   Bn1
 BYTE   W01
 BYTE   Cn2
 BYTE   W01
 BYTE   Dn2
 BYTE   N03
 BYTE   W01
 BYTE   PAN   c_v-13
 BYTE   W01
 BYTE   En2
 BYTE   W01
 BYTE   Fn2
 BYTE   W01
 BYTE   Gn2
 BYTE   W01
 BYTE   Gs2
 BYTE   W01
 BYTE   An2
 BYTE   W01
 BYTE   As2
 BYTE   W01
 BYTE   Cn3
 BYTE   N03  Gn2  v096
 BYTE   W01
 BYTE   PAN   c_v-3
 BYTE   W01
 BYTE   Dn3
 BYTE   W01
 BYTE   Ds3
 BYTE   W01
 BYTE   Fn3
 BYTE   W01
 BYTE   Fs3
 BYTE   W01
 BYTE   Gn3
 BYTE   W01
 BYTE   Gs3
 BYTE   W01
 BYTE   As3
 BYTE   N03  Gn3  v064
 BYTE   W01
 BYTE   PAN   c_v+7
 BYTE   W01
 BYTE   Cn4
 BYTE   W01
 BYTE   Cs4
 BYTE   W01
 BYTE   Ds4
 BYTE   W01
 BYTE   En4
 BYTE   W01
 BYTE   Fn4
 BYTE   W01
 BYTE   Fs4
 BYTE   W01
 BYTE   Gs4
 BYTE   N03  Gn3  v060
 BYTE   W01
 BYTE   PAN   c_v+17
 BYTE   W01
 BYTE   As4
 BYTE   W01
 BYTE   Bn4
 BYTE   W01
 BYTE   Cs5
 BYTE   W01
 BYTE   Dn5
 BYTE   W01
 BYTE   Ds5
 BYTE   W01
 BYTE   En5
 BYTE   W01
 BYTE   Ds1  v040
 BYTE   N03  Gn3  v096
 BYTE   W01
 BYTE   PAN   c_v-23
 BYTE   W01
 BYTE   Fs1
 BYTE   W01
 BYTE   Gn1
 BYTE   W01
 BYTE   An1
 BYTE   W01
 BYTE   As1
 BYTE   W01
 BYTE   Bn1
 BYTE   W01
 BYTE   Cn2
 BYTE   W01
 BYTE   Dn2
 BYTE   N03  Gn3  v064
 BYTE   W01
 BYTE   PAN   c_v-13
 BYTE   W01
 BYTE   En2
 BYTE   W01
 BYTE   Fn2
 BYTE   W01
 BYTE   Gn2
 BYTE   W01
 BYTE   Gs2
 BYTE   W01
 BYTE   An2
 BYTE   W01
 BYTE   As2
 BYTE   W01
 BYTE   Cn3
 BYTE   N03
 BYTE   W01
 BYTE   PAN   c_v-3
 BYTE   W01
 BYTE   Dn3
 BYTE   W01
 BYTE   Ds3
 BYTE   W01
 BYTE   Fn3
 BYTE   W01
 BYTE   Fs3
 BYTE   W01
 BYTE   Gn3
 BYTE   W01
 BYTE   Gs3
 BYTE   W01
 BYTE   As3
 BYTE   N03  Gn2  v104
 BYTE   W01
 BYTE   PAN   c_v+7
 BYTE   W01
 BYTE   Cn4
 BYTE   W01
 BYTE   Cs4
 BYTE   W01
 BYTE   Ds4
 BYTE   W01
 BYTE   En4
 BYTE   W01
 BYTE   Fn4
 BYTE   W01
 BYTE   Fs4
 BYTE   W01
 BYTE   Gs4
 BYTE   N03  Gn3  v064
 BYTE   W01
 BYTE   PAN   c_v+17
 BYTE   W01
 BYTE   As4
 BYTE   W01
 BYTE   Bn4
 BYTE   W01
 BYTE   Cs5
 BYTE   W01
 BYTE   Dn5
 BYTE   W01
 BYTE   Ds5
 BYTE   W01
 BYTE   En5
 BYTE   W01
 BYTE   Ds1  v040
 BYTE   N03
 BYTE   W01
 BYTE   PAN   c_v-23
 BYTE   W01
 BYTE   Fs1
 BYTE   W01
 BYTE   Gs1
 BYTE   W01
 BYTE   An1
 BYTE   W01
 BYTE   Bn1
 BYTE   W01
 BYTE   Cn2
 BYTE   W01
 BYTE   Cs2
 BYTE   W01
// 006   ----------------------------------------
 BYTE   Ds2
 BYTE   N03  Gn3  v096
 BYTE   W01
 BYTE   PAN   c_v-12
 BYTE   W01
 BYTE   Fs2
 BYTE   W01
 BYTE   Gn2
 BYTE   W01
 BYTE   Gs2
 BYTE   W01
 BYTE   As2
 BYTE   W01
 BYTE   Bn2
 BYTE   W01
 BYTE   Cs3
 BYTE   W01
 BYTE   Dn3
 BYTE   N03  Gn3  v072
 BYTE   W01
 BYTE   PAN   c_v-1
 BYTE   W01
 BYTE   Fn3
 BYTE   W01
 BYTE   Fs3
 BYTE   W01
 BYTE   Gs3
 BYTE   W01
 BYTE   An3
 BYTE   W01
 BYTE   As3
 BYTE   W01
 BYTE   Cn4
 BYTE   W01
 BYTE   Cs4
 BYTE   N03
 BYTE   W01
 BYTE   PAN   c_v+11
 BYTE   W01
 BYTE   En4
 BYTE   W01
 BYTE   Fn4
 BYTE   W01
 BYTE   Fs4
 BYTE   W04
 BYTE   N11  Dn4  v076
 BYTE   W72
// 007   ----------------------------------------
 BYTE   W24
 BYTE   N11
 BYTE   W72
// 008   ----------------------------------------
 BYTE   W28
 BYTE   VOL   36*FE04SilesianForcesRSflame_mvl/mxv
 BYTE   PAN   c_v+49
 BYTE   W24
 BYTE   N04  Dn3  v080
 BYTE   W06
 BYTE   Cs3
 BYTE   W06
 BYTE   Dn3  v084
 BYTE   W07
 BYTE   Ds3
 BYTE   W06
 BYTE   N09  Dn3  v088
 BYTE   W12
 BYTE   VOL   17*FE04SilesianForcesRSflame_mvl/mxv
 BYTE   N36  An3  v096
 BYTE   W01
 BYTE   VOL   19*FE04SilesianForcesRSflame_mvl/mxv
 BYTE   W01
 BYTE   As0
 BYTE   W01
 BYTE   Bn0
 BYTE   W01
 BYTE   Cs1
 BYTE   W01
 BYTE   Dn1
 BYTE   W01
 BYTE   Ds1
 BYTE   W01
// 009   ----------------------------------------
 BYTE   En1
 BYTE   W01
 BYTE   Fn1
 BYTE   W01
 BYTE   Fs1
 BYTE   W01
 BYTE   Gs1
 BYTE   W01
 BYTE   Gs1
 BYTE   W01
 BYTE   An1
 BYTE   W01
 BYTE   Bn1
 BYTE   W01
 BYTE   Cn2
 BYTE   W01
 BYTE   Cs2
 BYTE   W01
 BYTE   Dn2
 BYTE   W01
 BYTE   Ds2
 BYTE   W42
 BYTE   N06  Gn3  v084
 BYTE   W08
 BYTE   An3  v072
 BYTE   W08
 BYTE   As3  v076
 BYTE   W08
 BYTE   N17  Cn4  v096
 BYTE   W20
// 010   ----------------------------------------
 BYTE   W04
 BYTE   N06  As3  v060
 BYTE   W08
 BYTE   N05  An3  v072
 BYTE   W08
 BYTE   Gn3  v084
 BYTE   W76
// 011   ----------------------------------------
 BYTE   W96
// 012   ----------------------------------------
 BYTE   W17
 BYTE   GoTo
  POIN2 Label_2_0102A8DE
 BYTE   FINE

//**************** Track 4 (Midi-Chn.3) ****************//

FE04SilesianForcesRSflame_004:
// 000   ----------------------------------------
 BYTE   KEYSH   FE04SilesianForcesRSflame_key+0
 BYTE   VOICE   46
 BYTE   VOL   38*FE04SilesianForcesRSflame_mvl/mxv
 BYTE   PAN   c_v-14
 BYTE   Fn5
 BYTE   N20  En2  v076
 BYTE   W04
 BYTE   VOL   40*FE04SilesianForcesRSflame_mvl/mxv
 BYTE   W01
 BYTE   Gs2
 BYTE   W01
 BYTE   As2
 BYTE   W01
 BYTE   Cn3
 BYTE   W01
 BYTE   Cs3
 BYTE   W01
 BYTE   Ds3
 BYTE   W01
 BYTE   En3
 BYTE   W01
 BYTE   Fs3
 BYTE   W01
 BYTE   Gs3
 BYTE   W01
 BYTE   An3
 BYTE   W01
 BYTE   Bn3
 BYTE   W01
 BYTE   Cs4
 BYTE   W01
 BYTE   Dn4
 BYTE   W01
 BYTE   En4
 BYTE   W01
 BYTE   Fs4
 BYTE   W01
 BYTE   Gs4
 BYTE   W05
Label_3_0102AF02:
 BYTE   VOL   49*FE04SilesianForcesRSflame_mvl/mxv
 BYTE   PAN   c_v-43
 BYTE   AsM1
 BYTE   N03  An4  v080
 BYTE   W01
 BYTE   PAN   c_v-41
 BYTE   W01
 BYTE   Cn0
 BYTE   W01
 BYTE   Dn0
 BYTE   W01
 BYTE   Ds0
 BYTE   W01
 BYTE   En0
 BYTE   W01
 BYTE   Fs0
 BYTE   W01
 BYTE   Gn0
 BYTE   W01
 BYTE   Gs0
 BYTE   N03  Fn4  v064
 BYTE   W01
 BYTE   PAN   c_v-30
 BYTE   W01
 BYTE   Bn0
 BYTE   W01
 BYTE   Cn1
 BYTE   W01
 BYTE   Dn1
 BYTE   W01
 BYTE   Ds1
 BYTE   W01
 BYTE   En1
 BYTE   W01
 BYTE   Fs1
 BYTE   W01
 BYTE   Gn1
 BYTE   N03  Dn4
 BYTE   W01
 BYTE   PAN   c_v-19
 BYTE   W01
 BYTE   As1
 BYTE   W01
 BYTE   Bn1
 BYTE   W01
 BYTE   Cs2
 BYTE   W01
 BYTE   Dn2
 BYTE   W01
 BYTE   Ds2
 BYTE   W01
 BYTE   Fn2
 BYTE   W01
 BYTE   Fs2
 BYTE   N03  An4  v080
 BYTE   W01
 BYTE   PAN   c_v-9
 BYTE   W01
 BYTE   An2
 BYTE   W01
 BYTE   As2
 BYTE   W01
 BYTE   Bn2
 BYTE   W01
 BYTE   Cs3
 BYTE   W01
 BYTE   Dn3
 BYTE   W01
 BYTE   Ds3
 BYTE   W01
 BYTE   Fn3
 BYTE   N03  Fn4  v060
 BYTE   W01
 BYTE   PAN   c_v+2
 BYTE   W01
 BYTE   Gn3
 BYTE   W01
 BYTE   An3
 BYTE   W01
 BYTE   As3
 BYTE   W01
 BYTE   Bn3
 BYTE   W01
 BYTE   Cs4
 BYTE   W01
 BYTE   Dn4
 BYTE   W01
 BYTE   Ds4
 BYTE   N03  Dn4
 BYTE   W01
 BYTE   PAN   c_v+13
 BYTE   W01
 BYTE   Fs4
 BYTE   W01
 BYTE   Gn4
 BYTE   W01
 BYTE   An4
 BYTE   W01
 BYTE   As4
 BYTE   W01
 BYTE   Bn4
 BYTE   W01
 BYTE   Cs5
 BYTE   W01
 BYTE   Dn5
 BYTE   N03  An4  v080
 BYTE   W01
 BYTE   PAN   c_v+24
 BYTE   W01
 BYTE   Fn5
 BYTE   W01
 BYTE   Fs5
 BYTE   W01
 BYTE   Gs5
 BYTE   W01
 BYTE   An5
 BYTE   W01
 BYTE   As5
 BYTE   W01
 BYTE   Cn6
 BYTE   W01
 BYTE   Cs6
 BYTE   N03  Fn4  v064
 BYTE   W01
 BYTE   PAN   c_v+34
 BYTE   W01
 BYTE   En6
 BYTE   W01
 BYTE   Fn6
 BYTE   W01
 BYTE   Fs6
 BYTE   W01
 BYTE   Gs6
 BYTE   W01
 BYTE   An6
 BYTE   W01
 BYTE   As6
 BYTE   W01
 BYTE   As6
 BYTE   N03  Dn4
 BYTE   W01
 BYTE   PAN   c_v+41
 BYTE   W01
 BYTE   Gs6
 BYTE   W01
 BYTE   Fs6
 BYTE   W01
 BYTE   Fn6
 BYTE   W01
 BYTE   En6
 BYTE   W01
 BYTE   Dn6
 BYTE   W01
 BYTE   Cs6
 BYTE   W01
// 001   ----------------------------------------
 BYTE   Cn6
 BYTE   N03  An4  v076
 BYTE   W01
 BYTE   PAN   c_v+30
 BYTE   W01
 BYTE   An5
 BYTE   W01
 BYTE   Gs5
 BYTE   W01
 BYTE   Fs5
 BYTE   W01
 BYTE   Fn5
 BYTE   W01
 BYTE   En5
 BYTE   W01
 BYTE   Dn5
 BYTE   W01
 BYTE   Cs5
 BYTE   N03  Fn4  v056
 BYTE   W01
 BYTE   PAN   c_v+19
 BYTE   W01
 BYTE   As4
 BYTE   W01
 BYTE   An4
 BYTE   W01
 BYTE   Gn4
 BYTE   W01
 BYTE   Fs4
 BYTE   W01
 BYTE   Fn4
 BYTE   W01
 BYTE   Ds4
 BYTE   W01
 BYTE   Dn4
 BYTE   N03  Dn4  v068
 BYTE   W01
 BYTE   PAN   c_v+9
 BYTE   W01
 BYTE   Bn3
 BYTE   W01
 BYTE   As3
 BYTE   W01
 BYTE   An3
 BYTE   W01
 BYTE   Gn3
 BYTE   W01
 BYTE   Fs3
 BYTE   W01
 BYTE   Fn3
 BYTE   W01
 BYTE   Ds3
 BYTE   N03  An4  v072
 BYTE   W01
 BYTE   PAN   c_v-2
 BYTE   W01
 BYTE   Cs3
 BYTE   W01
 BYTE   Bn2
 BYTE   W01
 BYTE   As2
 BYTE   W01
 BYTE   An2
 BYTE   W01
 BYTE   Gn2
 BYTE   W01
 BYTE   Fs2
 BYTE   W01
 BYTE   Fn2
 BYTE   N03  Fn4  v052
 BYTE   W01
 BYTE   PAN   c_v-13
 BYTE   W01
 BYTE   Dn2
 BYTE   W01
 BYTE   Cs2
 BYTE   W01
 BYTE   Bn1
 BYTE   W01
 BYTE   As1
 BYTE   W01
 BYTE   An1
 BYTE   W01
 BYTE   Gn1
 BYTE   W01
 BYTE   Fs1
 BYTE   N03  Dn4  v072
 BYTE   W01
 BYTE   PAN   c_v-24
 BYTE   W01
 BYTE   Ds1
 BYTE   W01
 BYTE   Dn1
 BYTE   W01
 BYTE   Cn1
 BYTE   W01
 BYTE   Bn0
 BYTE   W01
 BYTE   As0
 BYTE   W01
 BYTE   Gs0
 BYTE   W01
 BYTE   Gn0
 BYTE   N03  An4  v068
 BYTE   W01
 BYTE   PAN   c_v-34
 BYTE   W01
 BYTE   En0
 BYTE   W01
 BYTE   Ds0
 BYTE   W01
 BYTE   Dn0
 BYTE   W01
 BYTE   Cn0
 BYTE   W01
 BYTE   BnM1
 BYTE   W01
 BYTE   AsM1
 BYTE   W01
 BYTE   AsM1
 BYTE   N03  Fn4
 BYTE   W01
 BYTE   PAN   c_v-41
 BYTE   W01
 BYTE   Cn0
 BYTE   W01
 BYTE   Dn0
 BYTE   W01
 BYTE   Ds0
 BYTE   W01
 BYTE   En0
 BYTE   W01
 BYTE   Fs0
 BYTE   W01
 BYTE   Gn0
 BYTE   W01
 BYTE   Gs0
 BYTE   N03  Dn4  v072
 BYTE   W01
 BYTE   PAN   c_v-30
 BYTE   W01
 BYTE   Bn0
 BYTE   W01
 BYTE   Cn1
 BYTE   W01
 BYTE   Dn1
 BYTE   W01
 BYTE   Ds1
 BYTE   W01
 BYTE   En1
 BYTE   W01
 BYTE   Fs1
 BYTE   W01
 BYTE   Gn1
 BYTE   N03  An4  v068
 BYTE   W01
 BYTE   PAN   c_v-19
 BYTE   W01
 BYTE   As1
 BYTE   W01
 BYTE   Bn1
 BYTE   W01
 BYTE   Cs2
 BYTE   W01
 BYTE   Dn2
 BYTE   W01
 BYTE   Ds2
 BYTE   W01
 BYTE   Fn2
 BYTE   W01
 BYTE   Fs2
 BYTE   N03  Fn4  v060
 BYTE   W01
 BYTE   PAN   c_v-9
 BYTE   W01
 BYTE   An2
 BYTE   W01
 BYTE   As2
 BYTE   W01
 BYTE   Bn2
 BYTE   W01
 BYTE   Cs3
 BYTE   W01
 BYTE   Dn3
 BYTE   W01
 BYTE   Ds3
 BYTE   W01
 BYTE   Fn3
 BYTE   N03  Dn4  v072
 BYTE   W01
 BYTE   PAN   c_v+2
 BYTE   W01
 BYTE   Gn3
 BYTE   W01
 BYTE   An3
 BYTE   W01
 BYTE   As3
 BYTE   W01
 BYTE   Bn3
 BYTE   W01
 BYTE   Cs4
 BYTE   W01
 BYTE   Dn4
 BYTE   W01
// 002   ----------------------------------------
 BYTE   Ds4
 BYTE   N03  Bn4  v092
 BYTE   W01
 BYTE   PAN   c_v+13
 BYTE   W01
 BYTE   Fs4
 BYTE   W01
 BYTE   Gn4
 BYTE   W01
 BYTE   An4
 BYTE   W01
 BYTE   As4
 BYTE   W01
 BYTE   Bn4
 BYTE   W01
 BYTE   Cs5
 BYTE   W01
 BYTE   Dn5
 BYTE   N03  Gn4  v076
 BYTE   W01
 BYTE   PAN   c_v+24
 BYTE   W01
 BYTE   Fn5
 BYTE   W01
 BYTE   Fs5
 BYTE   W01
 BYTE   Gs5
 BYTE   W01
 BYTE   An5
 BYTE   W01
 BYTE   As5
 BYTE   W01
 BYTE   Cn6
 BYTE   W01
 BYTE   Cs6
 BYTE   N03  En4  v068
 BYTE   W01
 BYTE   PAN   c_v+34
 BYTE   W01
 BYTE   En6
 BYTE   W01
 BYTE   Fn6
 BYTE   W01
 BYTE   Fs6
 BYTE   W01
 BYTE   Gs6
 BYTE   W01
 BYTE   An6
 BYTE   W01
 BYTE   As6
 BYTE   W01
 BYTE   As6
 BYTE   N03  Gs4  v080
 BYTE   W01
 BYTE   PAN   c_v+41
 BYTE   W01
 BYTE   Gs6
 BYTE   W01
 BYTE   Fs6
 BYTE   W01
 BYTE   Fn6
 BYTE   W01
 BYTE   En6
 BYTE   W01
 BYTE   Dn6
 BYTE   W01
 BYTE   Cs6
 BYTE   W01
 BYTE   Cn6
 BYTE   N03  En4  v064
 BYTE   W01
 BYTE   PAN   c_v+30
 BYTE   W01
 BYTE   An5
 BYTE   W01
 BYTE   Gs5
 BYTE   W01
 BYTE   Fs5
 BYTE   W01
 BYTE   Fn5
 BYTE   W01
 BYTE   En5
 BYTE   W01
 BYTE   Dn5
 BYTE   W01
 BYTE   Cs5
 BYTE   N03  Cs4
 BYTE   W01
 BYTE   PAN   c_v+19
 BYTE   W01
 BYTE   As4
 BYTE   W01
 BYTE   An4
 BYTE   W01
 BYTE   Gn4
 BYTE   W01
 BYTE   Fs4
 BYTE   W01
 BYTE   Fn4
 BYTE   W01
 BYTE   Ds4
 BYTE   W01
 BYTE   Dn4
 BYTE   N03  Gs4  v080
 BYTE   W01
 BYTE   PAN   c_v+9
 BYTE   W01
 BYTE   Bn3
 BYTE   W01
 BYTE   As3
 BYTE   W01
 BYTE   An3
 BYTE   W01
 BYTE   Gn3
 BYTE   W01
 BYTE   Fs3
 BYTE   W01
 BYTE   Fn3
 BYTE   W01
 BYTE   Ds3
 BYTE   N03  En4  v060
 BYTE   W01
 BYTE   PAN   c_v-2
 BYTE   W01
 BYTE   Cs3
 BYTE   W01
 BYTE   Bn2
 BYTE   W01
 BYTE   As2
 BYTE   W01
 BYTE   An2
 BYTE   W01
 BYTE   Gn2
 BYTE   W01
 BYTE   Fs2
 BYTE   W01
 BYTE   Fn2
 BYTE   N03  Cs4
 BYTE   W01
 BYTE   PAN   c_v-13
 BYTE   W01
 BYTE   Dn2
 BYTE   W01
 BYTE   Cs2
 BYTE   W01
 BYTE   Bn1
 BYTE   W01
 BYTE   As1
 BYTE   W01
 BYTE   An1
 BYTE   W01
 BYTE   Gn1
 BYTE   W01
 BYTE   Fs1
 BYTE   N03  Gs4  v080
 BYTE   W01
 BYTE   PAN   c_v-24
 BYTE   W01
 BYTE   Ds1
 BYTE   W01
 BYTE   Dn1
 BYTE   W01
 BYTE   Cn1
 BYTE   W01
 BYTE   Bn0
 BYTE   W01
 BYTE   As0
 BYTE   W01
 BYTE   Gs0
 BYTE   W01
 BYTE   Gn0
 BYTE   N03  En4  v064
 BYTE   W01
 BYTE   PAN   c_v-34
 BYTE   W01
 BYTE   En0
 BYTE   W01
 BYTE   Ds0
 BYTE   W01
 BYTE   Dn0
 BYTE   W01
 BYTE   Cn0
 BYTE   W01
 BYTE   BnM1
 BYTE   W01
 BYTE   AsM1
 BYTE   W01
 BYTE   AsM1
 BYTE   N03  Cs4
 BYTE   W01
 BYTE   PAN   c_v-41
 BYTE   W01
 BYTE   Cn0
 BYTE   W01
 BYTE   Dn0
 BYTE   W01
 BYTE   Ds0
 BYTE   W01
 BYTE   En0
 BYTE   W01
 BYTE   Fs0
 BYTE   W01
 BYTE   Gn0
 BYTE   W01
// 003   ----------------------------------------
 BYTE   Gs0
 BYTE   N03  Gs4  v076
 BYTE   W01
 BYTE   PAN   c_v-30
 BYTE   W01
 BYTE   Bn0
 BYTE   W01
 BYTE   Cn1
 BYTE   W01
 BYTE   Dn1
 BYTE   W01
 BYTE   Ds1
 BYTE   W01
 BYTE   En1
 BYTE   W01
 BYTE   Fs1
 BYTE   W01
 BYTE   Gn1
 BYTE   N03  En4  v056
 BYTE   W01
 BYTE   PAN   c_v-19
 BYTE   W01
 BYTE   As1
 BYTE   W01
 BYTE   Bn1
 BYTE   W01
 BYTE   Cs2
 BYTE   W01
 BYTE   Dn2
 BYTE   W01
 BYTE   Ds2
 BYTE   W01
 BYTE   Fn2
 BYTE   W01
 BYTE   Fs2
 BYTE   N03  Cs4  v068
 BYTE   W01
 BYTE   PAN   c_v-9
 BYTE   W01
 BYTE   An2
 BYTE   W01
 BYTE   As2
 BYTE   W01
 BYTE   Bn2
 BYTE   W01
 BYTE   Cs3
 BYTE   W01
 BYTE   Dn3
 BYTE   W01
 BYTE   Ds3
 BYTE   W01
 BYTE   Fn3
 BYTE   N03  Gs4  v072
 BYTE   W01
 BYTE   PAN   c_v+2
 BYTE   W01
 BYTE   Gn3
 BYTE   W01
 BYTE   An3
 BYTE   W01
 BYTE   As3
 BYTE   W01
 BYTE   Bn3
 BYTE   W01
 BYTE   Cs4
 BYTE   W01
 BYTE   Dn4
 BYTE   W01
 BYTE   Ds4
 BYTE   N03  En4  v052
 BYTE   W01
 BYTE   PAN   c_v+13
 BYTE   W01
 BYTE   Fs4
 BYTE   W01
 BYTE   Gn4
 BYTE   W01
 BYTE   An4
 BYTE   W01
 BYTE   As4
 BYTE   W01
 BYTE   Bn4
 BYTE   W01
 BYTE   Cs5
 BYTE   W01
 BYTE   Dn5
 BYTE   N03  Cs4  v072
 BYTE   W01
 BYTE   PAN   c_v+24
 BYTE   W01
 BYTE   Fn5
 BYTE   W01
 BYTE   Fs5
 BYTE   W01
 BYTE   Gs5
 BYTE   W01
 BYTE   An5
 BYTE   W01
 BYTE   As5
 BYTE   W01
 BYTE   Cn6
 BYTE   W01
 BYTE   Cs6
 BYTE   N03  Gs4  v068
 BYTE   W01
 BYTE   PAN   c_v+34
 BYTE   W01
 BYTE   En6
 BYTE   W01
 BYTE   Fn6
 BYTE   W01
 BYTE   Fs6
 BYTE   W01
 BYTE   Gs6
 BYTE   W01
 BYTE   An6
 BYTE   W01
 BYTE   As6
 BYTE   W01
 BYTE   As6
 BYTE   N03  En4
 BYTE   W01
 BYTE   PAN   c_v+41
 BYTE   W01
 BYTE   Gs6
 BYTE   W01
 BYTE   Fs6
 BYTE   W01
 BYTE   Fn6
 BYTE   W01
 BYTE   En6
 BYTE   W01
 BYTE   Dn6
 BYTE   W01
 BYTE   Cs6
 BYTE   W01
 BYTE   Cn6
 BYTE   N03  Cs4  v072
 BYTE   W01
 BYTE   PAN   c_v+30
 BYTE   W01
 BYTE   An5
 BYTE   W01
 BYTE   Gs5
 BYTE   W01
 BYTE   Fs5
 BYTE   W01
 BYTE   Fn5
 BYTE   W01
 BYTE   En5
 BYTE   W01
 BYTE   Dn5
 BYTE   W01
 BYTE   Cs5
 BYTE   N03  Gs4  v068
 BYTE   W01
 BYTE   PAN   c_v+19
 BYTE   W01
 BYTE   As4
 BYTE   W01
 BYTE   An4
 BYTE   W01
 BYTE   Gn4
 BYTE   W01
 BYTE   Fs4
 BYTE   W01
 BYTE   Fn4
 BYTE   W01
 BYTE   Ds4
 BYTE   W01
 BYTE   Dn4
 BYTE   N03  En4  v060
 BYTE   W01
 BYTE   PAN   c_v+9
 BYTE   W01
 BYTE   Bn3
 BYTE   W01
 BYTE   As3
 BYTE   W01
 BYTE   An3
 BYTE   W01
 BYTE   Gn3
 BYTE   W01
 BYTE   Fs3
 BYTE   W01
 BYTE   Fn3
 BYTE   W01
 BYTE   Ds3
 BYTE   N03  Cs4  v072
 BYTE   W01
 BYTE   PAN   c_v-2
 BYTE   W01
 BYTE   Cs3
 BYTE   W01
 BYTE   Bn2
 BYTE   W01
 BYTE   As2
 BYTE   W01
 BYTE   An2
 BYTE   W01
 BYTE   Gn2
 BYTE   W01
 BYTE   Fs2
 BYTE   W01
// 004   ----------------------------------------
 BYTE   Fn2
 BYTE   N03  As4  v092
 BYTE   W01
 BYTE   PAN   c_v-13
 BYTE   W01
 BYTE   Dn2
 BYTE   W01
 BYTE   Cs2
 BYTE   W01
 BYTE   Bn1
 BYTE   W01
 BYTE   As1
 BYTE   W01
 BYTE   An1
 BYTE   W01
 BYTE   Gn1
 BYTE   W01
 BYTE   Fs1
 BYTE   N03  Fs4  v076
 BYTE   W01
 BYTE   PAN   c_v-24
 BYTE   W01
 BYTE   Ds1
 BYTE   W01
 BYTE   Dn1
 BYTE   W01
 BYTE   Cn1
 BYTE   W01
 BYTE   Bn0
 BYTE   W01
 BYTE   As0
 BYTE   W01
 BYTE   Gs0
 BYTE   W01
 BYTE   Gn0
 BYTE   N03  Ds4  v068
 BYTE   W01
 BYTE   PAN   c_v-34
 BYTE   W01
 BYTE   En0
 BYTE   W01
 BYTE   Ds0
 BYTE   W01
 BYTE   Dn0
 BYTE   W01
 BYTE   Cn0
 BYTE   W01
 BYTE   BnM1
 BYTE   W01
 BYTE   AsM1
 BYTE   W01
 BYTE   AnM1
 BYTE   W04
 BYTE   Ds1  v040
 BYTE   N03  Gn4  v084
 BYTE   W01
 BYTE   PAN   c_v-23
 BYTE   W01
 BYTE   Fs1
 BYTE   W01
 BYTE   Gn1
 BYTE   W01
 BYTE   An1
 BYTE   W01
 BYTE   As1
 BYTE   W01
 BYTE   Bn1
 BYTE   W01
 BYTE   Cn2
 BYTE   W01
 BYTE   Dn2
 BYTE   N03  Gn4  v072
 BYTE   W01
 BYTE   PAN   c_v-13
 BYTE   W01
 BYTE   En2
 BYTE   W01
 BYTE   Fn2
 BYTE   W01
 BYTE   Gn2
 BYTE   W01
 BYTE   Gs2
 BYTE   W01
 BYTE   An2
 BYTE   W01
 BYTE   As2
 BYTE   W01
 BYTE   Cn3
 BYTE   N03  Gn4  v064
 BYTE   W01
 BYTE   PAN   c_v-3
 BYTE   W01
 BYTE   Dn3
 BYTE   W01
 BYTE   Ds3
 BYTE   W01
 BYTE   Fn3
 BYTE   W01
 BYTE   Fs3
 BYTE   W01
 BYTE   Gn3
 BYTE   W01
 BYTE   Gs3
 BYTE   W01
 BYTE   As3
 BYTE   N03  Gn4  v072
 BYTE   W01
 BYTE   PAN   c_v+7
 BYTE   W01
 BYTE   Cn4
 BYTE   W01
 BYTE   Cs4
 BYTE   W01
 BYTE   Ds4
 BYTE   W01
 BYTE   En4
 BYTE   W01
 BYTE   Fn4
 BYTE   W01
 BYTE   Fs4
 BYTE   W01
 BYTE   Gs4
 BYTE   N03  Gn4  v064
 BYTE   W01
 BYTE   PAN   c_v+17
 BYTE   W01
 BYTE   As4
 BYTE   W01
 BYTE   Bn4
 BYTE   W01
 BYTE   Cs5
 BYTE   W01
 BYTE   Dn5
 BYTE   W01
 BYTE   Ds5
 BYTE   W01
 BYTE   En5
 BYTE   W01
 BYTE   Ds1  v040
 BYTE   N03  Gn4  v060
 BYTE   W01
 BYTE   PAN   c_v-23
 BYTE   W01
 BYTE   Fs1
 BYTE   W01
 BYTE   Gn1
 BYTE   W01
 BYTE   An1
 BYTE   W01
 BYTE   As1
 BYTE   W01
 BYTE   Bn1
 BYTE   W01
 BYTE   Cn2
 BYTE   W01
 BYTE   Dn2
 BYTE   N03  Gn4  v084
 BYTE   W01
 BYTE   PAN   c_v-13
 BYTE   W01
 BYTE   En2
 BYTE   W01
 BYTE   Fn2
 BYTE   W01
 BYTE   Gn2
 BYTE   W01
 BYTE   Gs2
 BYTE   W01
 BYTE   An2
 BYTE   W01
 BYTE   As2
 BYTE   W01
 BYTE   Cn3
 BYTE   N03  Gn4  v072
 BYTE   W01
 BYTE   PAN   c_v-3
 BYTE   W01
 BYTE   Dn3
 BYTE   W01
 BYTE   Ds3
 BYTE   W01
 BYTE   Fn3
 BYTE   W01
 BYTE   Fs3
 BYTE   W01
 BYTE   Gn3
 BYTE   W01
 BYTE   Gs3
 BYTE   W01
 BYTE   As3
 BYTE   N03  Gn4  v064
 BYTE   W01
 BYTE   PAN   c_v+7
 BYTE   W01
 BYTE   Cn4
 BYTE   W01
 BYTE   Cs4
 BYTE   W01
// 005   ----------------------------------------
 BYTE   Ds4
 BYTE   W01
 BYTE   En4
 BYTE   W01
 BYTE   Fn4
 BYTE   W01
 BYTE   Fs4
 BYTE   W01
 BYTE   Gs4
 BYTE   N03  Gn4  v084
 BYTE   W01
 BYTE   PAN   c_v+17
 BYTE   W01
 BYTE   As4
 BYTE   W01
 BYTE   Bn4
 BYTE   W01
 BYTE   Cs5
 BYTE   W01
 BYTE   Dn5
 BYTE   W01
 BYTE   Ds5
 BYTE   W01
 BYTE   En5
 BYTE   W01
 BYTE   Ds1  v040
 BYTE   N03
 BYTE   W01
 BYTE   PAN   c_v-23
 BYTE   W01
 BYTE   Fs1
 BYTE   W01
 BYTE   Gn1
 BYTE   W01
 BYTE   An1
 BYTE   W01
 BYTE   As1
 BYTE   W01
 BYTE   Bn1
 BYTE   W01
 BYTE   Cn2
 BYTE   W01
 BYTE   Dn2
 BYTE   N03
 BYTE   W01
 BYTE   PAN   c_v-13
 BYTE   W01
 BYTE   En2
 BYTE   W01
 BYTE   Fn2
 BYTE   W01
 BYTE   Gn2
 BYTE   W01
 BYTE   Gs2
 BYTE   W01
 BYTE   An2
 BYTE   W01
 BYTE   As2
 BYTE   W01
 BYTE   Cn3
 BYTE   N03
 BYTE   W01
 BYTE   PAN   c_v-3
 BYTE   W01
 BYTE   Dn3
 BYTE   W01
 BYTE   Ds3
 BYTE   W01
 BYTE   Fn3
 BYTE   W01
 BYTE   Fs3
 BYTE   W01
 BYTE   Gn3
 BYTE   W01
 BYTE   Gs3
 BYTE   W01
 BYTE   As3
 BYTE   N03  Gn4  v072
 BYTE   W01
 BYTE   PAN   c_v+7
 BYTE   W01
 BYTE   Cn4
 BYTE   W01
 BYTE   Cs4
 BYTE   W01
 BYTE   Ds4
 BYTE   W01
 BYTE   En4
 BYTE   W01
 BYTE   Fn4
 BYTE   W01
 BYTE   Fs4
 BYTE   W01
 BYTE   Gs4
 BYTE   N03  Gn4  v064
 BYTE   W01
 BYTE   PAN   c_v+17
 BYTE   W01
 BYTE   As4
 BYTE   W01
 BYTE   Bn4
 BYTE   W01
 BYTE   Cs5
 BYTE   W01
 BYTE   Dn5
 BYTE   W01
 BYTE   Ds5
 BYTE   W01
 BYTE   En5
 BYTE   W01
 BYTE   Ds1  v040
 BYTE   N03  Gn4  v072
 BYTE   W01
 BYTE   PAN   c_v-23
 BYTE   W01
 BYTE   Fs1
 BYTE   W01
 BYTE   Gn1
 BYTE   W01
 BYTE   An1
 BYTE   W01
 BYTE   As1
 BYTE   W01
 BYTE   Bn1
 BYTE   W01
 BYTE   Cn2
 BYTE   W01
 BYTE   Dn2
 BYTE   N03  Gn4  v064
 BYTE   W01
 BYTE   PAN   c_v-13
 BYTE   W01
 BYTE   En2
 BYTE   W01
 BYTE   Fn2
 BYTE   W01
 BYTE   Gn2
 BYTE   W01
 BYTE   Gs2
 BYTE   W01
 BYTE   An2
 BYTE   W01
 BYTE   As2
 BYTE   W01
 BYTE   Cn3
 BYTE   N03  Gn4  v060
 BYTE   W01
 BYTE   PAN   c_v-3
 BYTE   W01
 BYTE   Dn3
 BYTE   W01
 BYTE   Ds3
 BYTE   W01
 BYTE   Fn3
 BYTE   W01
 BYTE   Fs3
 BYTE   W01
 BYTE   Gn3
 BYTE   W01
 BYTE   Gs3
 BYTE   W01
 BYTE   As3
 BYTE   N03  Gn4  v084
 BYTE   W01
 BYTE   PAN   c_v+7
 BYTE   W01
 BYTE   Cn4
 BYTE   W01
 BYTE   Cs4
 BYTE   W01
 BYTE   Ds4
 BYTE   W01
 BYTE   En4
 BYTE   W01
 BYTE   Fn4
 BYTE   W01
 BYTE   Fs4
 BYTE   W01
 BYTE   Gs4
 BYTE   N03  Gn4  v072
 BYTE   W01
 BYTE   PAN   c_v+17
 BYTE   W01
 BYTE   As4
 BYTE   W01
 BYTE   Bn4
 BYTE   W01
 BYTE   Cs5
 BYTE   W01
 BYTE   Dn5
 BYTE   W01
 BYTE   Ds5
 BYTE   W01
 BYTE   En5
 BYTE   W01
 BYTE   Ds1  v040
 BYTE   N03  Gn4  v064
 BYTE   W01
 BYTE   PAN   c_v-23
 BYTE   W01
 BYTE   Fs1
 BYTE   W01
 BYTE   Gs1
 BYTE   W01
// 006   ----------------------------------------
 BYTE   An1
 BYTE   W01
 BYTE   Bn1
 BYTE   W01
 BYTE   Cn2
 BYTE   W01
 BYTE   Cs2
 BYTE   W01
 BYTE   Ds2
 BYTE   N03  Gn4  v084
 BYTE   W01
 BYTE   PAN   c_v-12
 BYTE   W01
 BYTE   Fs2
 BYTE   W01
 BYTE   Gn2
 BYTE   W01
 BYTE   Gs2
 BYTE   W01
 BYTE   As2
 BYTE   W01
 BYTE   Bn2
 BYTE   W01
 BYTE   Cs3
 BYTE   W01
 BYTE   Dn3
 BYTE   N03
 BYTE   W01
 BYTE   PAN   c_v-1
 BYTE   W01
 BYTE   Fn3
 BYTE   W01
 BYTE   Fs3
 BYTE   W01
 BYTE   Gs3
 BYTE   W01
 BYTE   An3
 BYTE   W01
 BYTE   As3
 BYTE   W01
 BYTE   Cn4
 BYTE   W01
 BYTE   Cs4
 BYTE   N03
 BYTE   W01
 BYTE   PAN   c_v+11
 BYTE   W01
 BYTE   En4
 BYTE   W01
 BYTE   Fn4
 BYTE   W01
 BYTE   Fs4
 BYTE   N11  Dn5  v064
 BYTE   W72
// 007   ----------------------------------------
 BYTE   W24
 BYTE   Dn5  v060
 BYTE   W72
// 008   ----------------------------------------
 BYTE   W24
 BYTE   VOL   65*FE04SilesianForcesRSflame_mvl/mxv
 BYTE   PAN   c_v+14
 BYTE   W24
 BYTE   N04  Dn3  v080
 BYTE   W06
 BYTE   Cs3
 BYTE   W06
 BYTE   Dn3  v084
 BYTE   W07
 BYTE   Ds3
 BYTE   W06
 BYTE   N09  Dn3  v088
 BYTE   W12
 BYTE   VOL   46*FE04SilesianForcesRSflame_mvl/mxv
 BYTE   N36  An3  v096
 BYTE   W01
 BYTE   VOL   47*FE04SilesianForcesRSflame_mvl/mxv
 BYTE   W01
 BYTE   Dn3
 BYTE   W01
 BYTE   En3
 BYTE   W01
 BYTE   Fn3
 BYTE   W01
 BYTE   Fs3
 BYTE   W01
 BYTE   Gn3
 BYTE   W01
 BYTE   Gs3
 BYTE   W01
 BYTE   An3
 BYTE   W01
 BYTE   Bn3
 BYTE   W01
 BYTE   Cn4
 BYTE   W01
// 009   ----------------------------------------
 BYTE   Cs4
 BYTE   W01
 BYTE   Dn4
 BYTE   W01
 BYTE   Ds4
 BYTE   W01
 BYTE   En4
 BYTE   W01
 BYTE   Fn4
 BYTE   W01
 BYTE   Fs4
 BYTE   W01
 BYTE   Gs4
 BYTE   W42
 BYTE   N06  Gn3  v084
 BYTE   W08
 BYTE   An3  v072
 BYTE   W08
 BYTE   As3  v076
 BYTE   W08
 BYTE   N17  Cn4  v096
 BYTE   W24
// 010   ----------------------------------------
 BYTE   N06  As3  v060
 BYTE   W08
 BYTE   N05  An3  v072
 BYTE   W08
 BYTE   N06  Gn3  v084
 BYTE   W08
 BYTE   N05  Dn4  v060
 BYTE   W06
 BYTE   N04  An4  v040
 BYTE   W06
 BYTE   Dn5  v044
 BYTE   W06
 BYTE   An4
 BYTE   W06
 BYTE   N03  Dn4  v060
 BYTE   W06
 BYTE   N05  An4  v044
 BYTE   W06
 BYTE   N04  Dn5  v064
 BYTE   W06
 BYTE   N05  An4  v052
 BYTE   W06
 BYTE   N04  Dn4  v072
 BYTE   W06
 BYTE   N05  An4  v040
 BYTE   W06
 BYTE   N04  Dn5  v052
 BYTE   W06
 BYTE   An4  v044
 BYTE   W06
// 011   ----------------------------------------
 BYTE   Dn4  v064
 BYTE   W06
 BYTE   N05  An4  v040
 BYTE   W06
 BYTE   N03  Dn5  v052
 BYTE   W06
 BYTE   N04  An4  v028
 BYTE   W06
 BYTE   Ds4  v056
 BYTE   W06
 BYTE   An4  v044
 BYTE   W06
 BYTE   N03  Ds5
 BYTE   W06
 BYTE   N04  An4  v040
 BYTE   W06
 BYTE   N03  Ds4  v056
 BYTE   W06
 BYTE   N04  An4  v060
 BYTE   W06
 BYTE   N03  Ds5  v064
 BYTE   W06
 BYTE   N05  An4  v040
 BYTE   W06
 BYTE   Ds4  v068
 BYTE   W06
 BYTE   An4  v032
 BYTE   W06
 BYTE   N04  Ds5  v060
 BYTE   W06
 BYTE   N02  An4  v028
 BYTE   W06
// 012   ----------------------------------------
 BYTE   W06
 BYTE   N04  An4  v044
 BYTE   W06
 BYTE   Ds5  v060
 BYTE   W05
 BYTE   GoTo
  POIN2 Label_3_0102AF02
 BYTE   FINE

//**************** Track 5 (Midi-Chn.4) ****************//

FE04SilesianForcesRSflame_005:
// 000   ----------------------------------------
 BYTE   KEYSH   FE04SilesianForcesRSflame_key+0
 BYTE   VOICE   71
 BYTE   VOL   65*FE04SilesianForcesRSflame_mvl/mxv
 BYTE   PAN   c_v+14
 BYTE   En4
 BYTE   N05  An3  v060
 BYTE   W01
 BYTE   PAN   c_v+10
 BYTE   W01
 BYTE   Bn3
 BYTE   W01
 BYTE   An3
 BYTE   W01
 BYTE   Gn3
 BYTE   W01
 BYTE   Fn3
 BYTE   W01
 BYTE   Ds3
 BYTE   N06  Cn4  v064
 BYTE   W01
 BYTE   PAN   c_v-3
 BYTE   W01
 BYTE   As2
 BYTE   W01
 BYTE   Gs2
 BYTE   W01
 BYTE   Fs2
 BYTE   W01
 BYTE   En2
 BYTE   W01
 BYTE   Dn2
 BYTE   W01
 BYTE   Bn1
 BYTE   N06  En4  v072
 BYTE   W01
 BYTE   PAN   c_v-19
 BYTE   W01
 BYTE   Gn1
 BYTE   W01
 BYTE   Fn1
 BYTE   W01
 BYTE   Ds1
 BYTE   W01
 BYTE   Cs1
 BYTE   W01
 BYTE   As0
 BYTE   W01
 BYTE   Gs0
 BYTE   N02  Gn4  v076
 BYTE   W01
 BYTE   PAN   c_v-34
 BYTE   W03
Label_4_0102B5AC:
 BYTE   VOL   54*FE04SilesianForcesRSflame_mvl/mxv
 BYTE   PAN   c_v+14
 BYTE   VOL   54*FE04SilesianForcesRSflame_mvl/mxv
 BYTE   N16  En4  v072
 BYTE   W01
 BYTE   VOL   56*FE04SilesianForcesRSflame_mvl/mxv
 BYTE   W01
 BYTE   Bn3
 BYTE   W01
 BYTE   Cs4
 BYTE   W01
 BYTE   Dn4
 BYTE   W01
 BYTE   Dn4
 BYTE   W01
 BYTE   En4
 BYTE   W01
 BYTE   Fn4
 BYTE   W01
 BYTE   Fs4
 BYTE   W01
 BYTE   Gn4
 BYTE   W01
 BYTE   Gs4
 BYTE   W14
 BYTE   Fs3
 BYTE   N16  Dn4  v084
 BYTE   W01
 BYTE   VOL   52*FE04SilesianForcesRSflame_mvl/mxv
 BYTE   W01
 BYTE   Gs3
 BYTE   W01
 BYTE   An3
 BYTE   W01
 BYTE   As3
 BYTE   W01
 BYTE   Bn3
 BYTE   W01
 BYTE   Cn4
 BYTE   W01
 BYTE   Cs4
 BYTE   W01
 BYTE   Dn4
 BYTE   W01
 BYTE   Ds4
 BYTE   W01
 BYTE   En4
 BYTE   W01
 BYTE   Fn4
 BYTE   W01
 BYTE   Fs4
 BYTE   W01
 BYTE   Gn4
 BYTE   W01
 BYTE   Gs4
 BYTE   W10
 BYTE   Fs3
 BYTE   N16  Fn4  v080
 BYTE   W01
 BYTE   VOL   53*FE04SilesianForcesRSflame_mvl/mxv
 BYTE   W01
 BYTE   An3
 BYTE   W01
 BYTE   An3
 BYTE   W01
 BYTE   Bn3
 BYTE   W01
 BYTE   Cn4
 BYTE   W01
 BYTE   Cs4
 BYTE   W01
 BYTE   Dn4
 BYTE   W01
 BYTE   En4
 BYTE   W01
 BYTE   En4
 BYTE   W01
 BYTE   Fs4
 BYTE   W01
 BYTE   Gn4
 BYTE   W01
 BYTE   Gs4
 BYTE   W12
// 001   ----------------------------------------
 BYTE   An3
 BYTE   N18  En4  v068
 BYTE   W01
 BYTE   VOL   55*FE04SilesianForcesRSflame_mvl/mxv
 BYTE   W01
 BYTE   Bn3
 BYTE   W01
 BYTE   Cn4
 BYTE   W01
 BYTE   Cs4
 BYTE   W01
 BYTE   Dn4
 BYTE   W01
 BYTE   Dn4
 BYTE   W01
 BYTE   En4
 BYTE   W01
 BYTE   En4
 BYTE   W01
 BYTE   Fn4
 BYTE   W01
 BYTE   Fs4
 BYTE   W01
 BYTE   Gn4
 BYTE   W01
 BYTE   Gs4
 BYTE   W12
 BYTE   Ds3
 BYTE   N16  Gn4  v084
 BYTE   W01
 BYTE   VOL   49*FE04SilesianForcesRSflame_mvl/mxv
 BYTE   W01
 BYTE   Fs3
 BYTE   W01
 BYTE   Gn3
 BYTE   W01
 BYTE   Gs3
 BYTE   W01
 BYTE   An3
 BYTE   W01
 BYTE   Bn3
 BYTE   W01
 BYTE   Bn3
 BYTE   W01
 BYTE   Cs4
 BYTE   W01
 BYTE   Dn4
 BYTE   W01
 BYTE   Ds4
 BYTE   W01
 BYTE   En4
 BYTE   W01
 BYTE   Fs4
 BYTE   W01
 BYTE   Gn4
 BYTE   W01
 BYTE   Gs4
 BYTE   W10
 BYTE   An3
 BYTE   N16  Fn4  v080
 BYTE   W01
 BYTE   VOL   55*FE04SilesianForcesRSflame_mvl/mxv
 BYTE   W01
 BYTE   Bn3
 BYTE   W01
 BYTE   Cn4
 BYTE   W01
 BYTE   Cs4
 BYTE   W01
 BYTE   Cs4
 BYTE   W01
 BYTE   Dn4
 BYTE   W01
 BYTE   Ds4
 BYTE   W01
 BYTE   En4
 BYTE   W01
 BYTE   Fn4
 BYTE   W01
 BYTE   Fs4
 BYTE   W01
 BYTE   Gn4
 BYTE   W01
 BYTE   Gs4
 BYTE   W12
 BYTE   Fs3
 BYTE   N32  En4  v068
 BYTE   W01
 BYTE   VOL   52*FE04SilesianForcesRSflame_mvl/mxv
 BYTE   W01
 BYTE   Gs3
 BYTE   W01
 BYTE   Gs3
 BYTE   W01
 BYTE   An3
 BYTE   W01
 BYTE   An3
 BYTE   W01
 BYTE   As3
 BYTE   W01
 BYTE   Bn3
 BYTE   W01
 BYTE   Bn3
 BYTE   W01
 BYTE   Cn4
 BYTE   W01
 BYTE   Cs4
 BYTE   W01
 BYTE   Dn4
 BYTE   W01
 BYTE   Dn4
 BYTE   W01
 BYTE   Ds4
 BYTE   W01
 BYTE   En4
 BYTE   W01
 BYTE   En4
 BYTE   W01
 BYTE   Fn4
 BYTE   W01
 BYTE   Fs4
 BYTE   W01
 BYTE   Fs4
 BYTE   W01
 BYTE   Gn4
 BYTE   W01
 BYTE   Gs4
 BYTE   W04
// 002   ----------------------------------------
 BYTE   W24
 BYTE   Fs3
 BYTE   N16  Ds4  v080
 BYTE   W01
 BYTE   VOL   53*FE04SilesianForcesRSflame_mvl/mxv
 BYTE   W01
 BYTE   Gs3
 BYTE   W01
 BYTE   An3
 BYTE   W01
 BYTE   Bn3
 BYTE   W01
 BYTE   Cn4
 BYTE   W01
 BYTE   Cs4
 BYTE   W01
 BYTE   Dn4
 BYTE   W01
 BYTE   Ds4
 BYTE   W01
 BYTE   En4
 BYTE   W01
 BYTE   Fn4
 BYTE   W01
 BYTE   Fs4
 BYTE   W01
 BYTE   Gs4
 BYTE   W12
 BYTE   Bn3
 BYTE   N16  Cs4  v068
 BYTE   W01
 BYTE   VOL   56*FE04SilesianForcesRSflame_mvl/mxv
 BYTE   W01
 BYTE   Cs4
 BYTE   W01
 BYTE   Cs4
 BYTE   W01
 BYTE   Dn4
 BYTE   W01
 BYTE   Ds4
 BYTE   W01
 BYTE   En4
 BYTE   W01
 BYTE   Fn4
 BYTE   W01
 BYTE   Fs4
 BYTE   W01
 BYTE   Gn4
 BYTE   W01
 BYTE   Gs4
 BYTE   W14
 BYTE   Fs3
 BYTE   N16  Bn3  v080
 BYTE   W01
 BYTE   VOL   52*FE04SilesianForcesRSflame_mvl/mxv
 BYTE   W01
 BYTE   Gs3
 BYTE   W01
 BYTE   An3
 BYTE   W01
 BYTE   As3
 BYTE   W01
 BYTE   Bn3
 BYTE   W01
 BYTE   Cn4
 BYTE   W01
 BYTE   Cs4
 BYTE   W01
 BYTE   Dn4
 BYTE   W01
 BYTE   Ds4
 BYTE   W01
 BYTE   En4
 BYTE   W01
 BYTE   Fn4
 BYTE   W01
 BYTE   Fs4
 BYTE   W01
 BYTE   Gn4
 BYTE   W01
 BYTE   Gs4
 BYTE   W10
// 003   ----------------------------------------
 BYTE   Fs3
 BYTE   N18  Cs4  v088
 BYTE   W01
 BYTE   VOL   53*FE04SilesianForcesRSflame_mvl/mxv
 BYTE   W01
 BYTE   Gs3
 BYTE   W01
 BYTE   An3
 BYTE   W01
 BYTE   Bn3
 BYTE   W01
 BYTE   Cn4
 BYTE   W01
 BYTE   Cs4
 BYTE   W01
 BYTE   Dn4
 BYTE   W01
 BYTE   Ds4
 BYTE   W01
 BYTE   En4
 BYTE   W01
 BYTE   Fn4
 BYTE   W01
 BYTE   Fs4
 BYTE   W01
 BYTE   Gs4
 BYTE   W12
 BYTE   An3
 BYTE   N32  As3  v068
 BYTE   W01
 BYTE   VOL   54*FE04SilesianForcesRSflame_mvl/mxv
 BYTE   W01
 BYTE   As3
 BYTE   W01
 BYTE   Bn3
 BYTE   W01
 BYTE   Bn3
 BYTE   W01
 BYTE   Cn4
 BYTE   W01
 BYTE   Cs4
 BYTE   W01
 BYTE   Cs4
 BYTE   W01
 BYTE   Dn4
 BYTE   W01
 BYTE   Dn4
 BYTE   W02
 BYTE   Ds4
 BYTE   W01
 BYTE   En4
 BYTE   W01
 BYTE   En4
 BYTE   W01
 BYTE   Fn4
 BYTE   W01
 BYTE   Fs4
 BYTE   W01
 BYTE   Fs4
 BYTE   W01
 BYTE   Gn4
 BYTE   W01
 BYTE   Gs4
 BYTE   W30
 BYTE   Ds3
 BYTE   N32  Gs3  v072
 BYTE   W01
 BYTE   VOL   49*FE04SilesianForcesRSflame_mvl/mxv
 BYTE   W01
 BYTE   Fn3
 BYTE   W01
 BYTE   Fs3
 BYTE   W01
 BYTE   Gn3
 BYTE   W01
 BYTE   Gs3
 BYTE   W01
 BYTE   An3
 BYTE   W01
 BYTE   An3
 BYTE   W01
 BYTE   Bn3
 BYTE   W01
 BYTE   Bn3
 BYTE   W01
 BYTE   Cs4
 BYTE   W01
 BYTE   Cs4
 BYTE   W01
 BYTE   Dn4
 BYTE   W01
 BYTE   Ds4
 BYTE   W01
 BYTE   En4
 BYTE   W01
 BYTE   Fn4
 BYTE   W01
 BYTE   Fs4
 BYTE   W01
 BYTE   Gn4
 BYTE   W01
 BYTE   Gs4
 BYTE   W06
// 004   ----------------------------------------
 BYTE   W24
 BYTE   Ds3
 BYTE   N16  An3  v092
 BYTE   W01
 BYTE   VOL   49*FE04SilesianForcesRSflame_mvl/mxv
 BYTE   W01
 BYTE   Fs3
 BYTE   W01
 BYTE   Fs3
 BYTE   W01
 BYTE   Gs3
 BYTE   W01
 BYTE   An3
 BYTE   W01
 BYTE   As3
 BYTE   W01
 BYTE   Bn3
 BYTE   W01
 BYTE   Cn4
 BYTE   W01
 BYTE   Cs4
 BYTE   W01
 BYTE   Dn4
 BYTE   W01
 BYTE   En4
 BYTE   W01
 BYTE   Fn4
 BYTE   W01
 BYTE   Fs4
 BYTE   W01
 BYTE   Gn4
 BYTE   W01
 BYTE   Gs4
 BYTE   W09
 BYTE   As3
 BYTE   N08  As3  v084
 BYTE   W01
 BYTE   VOL   56*FE04SilesianForcesRSflame_mvl/mxv
 BYTE   W01
 BYTE   Cs4
 BYTE   W01
 BYTE   Dn4
 BYTE   W01
 BYTE   Ds4
 BYTE   W01
 BYTE   En4
 BYTE   W01
 BYTE   Fs4
 BYTE   W01
 BYTE   Gn4
 BYTE   W01
 BYTE   Gs4
 BYTE   W04
 BYTE   As3
 BYTE   N08  Dn4  v076
 BYTE   W01
 BYTE   VOL   56*FE04SilesianForcesRSflame_mvl/mxv
 BYTE   W01
 BYTE   Cs4
 BYTE   W01
 BYTE   Dn4
 BYTE   W01
 BYTE   Ds4
 BYTE   W01
 BYTE   En4
 BYTE   W01
 BYTE   Fs4
 BYTE   W01
 BYTE   Gn4
 BYTE   W01
 BYTE   Gs4
 BYTE   W04
 BYTE   Cs3
 BYTE   N16  An4  v068
 BYTE   W01
 BYTE   VOL   47*FE04SilesianForcesRSflame_mvl/mxv
 BYTE   W01
 BYTE   En3
 BYTE   W01
 BYTE   Fs3
 BYTE   W01
 BYTE   Gs3
 BYTE   W01
 BYTE   Bn3
 BYTE   W01
 BYTE   Cs4
 BYTE   W01
 BYTE   Dn4
 BYTE   W01
 BYTE   En4
 BYTE   W01
 BYTE   Fs4
 BYTE   W01
 BYTE   Gs4
 BYTE   W14
// 005   ----------------------------------------
 BYTE   Fs3
 BYTE   N16  Gn4  v080
 BYTE   W01
 BYTE   VOL   52*FE04SilesianForcesRSflame_mvl/mxv
 BYTE   W01
 BYTE   Gs3
 BYTE   W01
 BYTE   An3
 BYTE   W01
 BYTE   As3
 BYTE   W01
 BYTE   Bn3
 BYTE   W01
 BYTE   Cn4
 BYTE   W01
 BYTE   Cs4
 BYTE   W01
 BYTE   Dn4
 BYTE   W01
 BYTE   Ds4
 BYTE   W01
 BYTE   En4
 BYTE   W01
 BYTE   Fn4
 BYTE   W01
 BYTE   Fs4
 BYTE   W01
 BYTE   Gn4
 BYTE   W01
 BYTE   Gs4
 BYTE   W10
 BYTE   Fs3
 BYTE   N30  As4
 BYTE   W06
 BYTE   VOL   51*FE04SilesianForcesRSflame_mvl/mxv
 BYTE   W01
 BYTE   Gn3
 BYTE   W01
 BYTE   Gs3
 BYTE   W01
 BYTE   An3
 BYTE   W01
 BYTE   As3
 BYTE   W01
 BYTE   Bn3
 BYTE   W01
 BYTE   Cn4
 BYTE   W01
 BYTE   Cs4
 BYTE   W01
 BYTE   Cs4
 BYTE   W01
 BYTE   Dn4
 BYTE   W01
 BYTE   Ds4
 BYTE   W01
 BYTE   En4
 BYTE   W01
 BYTE   Fn4
 BYTE   W01
 BYTE   Fs4
 BYTE   W01
 BYTE   Gn4
 BYTE   W01
 BYTE   Gs4
 BYTE   W24
 BYTE   W03
 BYTE   An3
 BYTE   N30  An4  v084
 BYTE   W06
 BYTE   VOL   54*FE04SilesianForcesRSflame_mvl/mxv
 BYTE   W01
 BYTE   An3
 BYTE   W01
 BYTE   As3
 BYTE   W01
 BYTE   Bn3
 BYTE   W01
 BYTE   Bn3
 BYTE   W01
 BYTE   Cn4
 BYTE   W01
 BYTE   Cs4
 BYTE   W01
 BYTE   Cs4
 BYTE   W01
 BYTE   Dn4
 BYTE   W01
 BYTE   Dn4
 BYTE   W02
 BYTE   Ds4
 BYTE   W01
 BYTE   En4
 BYTE   W01
 BYTE   En4
 BYTE   W01
 BYTE   Fn4
 BYTE   W01
 BYTE   Fs4
 BYTE   W01
 BYTE   Fs4
 BYTE   W01
 BYTE   Gn4
 BYTE   W01
// 006   ----------------------------------------
 BYTE   Gs4
 BYTE   W24
 BYTE   Fs3
 BYTE   N32  An4  v064
 BYTE   W01
 BYTE   VOL   53*FE04SilesianForcesRSflame_mvl/mxv
 BYTE   W01
 BYTE   An3
 BYTE   W01
 BYTE   An3
 BYTE   W01
 BYTE   Bn3
 BYTE   W01
 BYTE   Cn4
 BYTE   W01
 BYTE   Cs4
 BYTE   W01
 BYTE   Dn4
 BYTE   W01
 BYTE   En4
 BYTE   W01
 BYTE   En4
 BYTE   W01
 BYTE   Fs4
 BYTE   W01
 BYTE   Gn4
 BYTE   W01
 BYTE   Gs4
 BYTE   W36
 BYTE   Fs3
 BYTE   N16  An4  v068
 BYTE   W01
 BYTE   VOL   53*FE04SilesianForcesRSflame_mvl/mxv
 BYTE   W01
 BYTE   An3
 BYTE   W01
 BYTE   An3
 BYTE   W01
 BYTE   Bn3
 BYTE   W01
 BYTE   Cn4
 BYTE   W01
 BYTE   Cs4
 BYTE   W01
 BYTE   Dn4
 BYTE   W01
 BYTE   En4
 BYTE   W01
 BYTE   En4
 BYTE   W01
 BYTE   Fs4
 BYTE   W01
 BYTE   Gn4
 BYTE   W01
 BYTE   Gs4
 BYTE   W12
// 007   ----------------------------------------
 BYTE   An3
 BYTE   N16  Gn4  v076
 BYTE   W01
 BYTE   VOL   55*FE04SilesianForcesRSflame_mvl/mxv
 BYTE   W01
 BYTE   Bn3
 BYTE   W01
 BYTE   Bn3
 BYTE   W01
 BYTE   Cn4
 BYTE   W01
 BYTE   Cs4
 BYTE   W01
 BYTE   Dn4
 BYTE   W01
 BYTE   Dn4
 BYTE   W01
 BYTE   Ds4
 BYTE   W01
 BYTE   En4
 BYTE   W01
 BYTE   Fn4
 BYTE   W01
 BYTE   Fs4
 BYTE   W01
 BYTE   Fs4
 BYTE   W01
 BYTE   Gn4
 BYTE   W01
 BYTE   Gs4
 BYTE   W10
 BYTE   Dn3
 BYTE   N28  As4  v084
 BYTE   W04
 BYTE   VOL   48*FE04SilesianForcesRSflame_mvl/mxv
 BYTE   W01
 BYTE   En3
 BYTE   W01
 BYTE   Fn3
 BYTE   W01
 BYTE   Fs3
 BYTE   W01
 BYTE   Gs3
 BYTE   W01
 BYTE   Gs3
 BYTE   W01
 BYTE   An3
 BYTE   W01
 BYTE   Bn3
 BYTE   W01
 BYTE   Bn3
 BYTE   W01
 BYTE   Cs4
 BYTE   W01
 BYTE   Dn4
 BYTE   W01
 BYTE   Dn4
 BYTE   W01
 BYTE   En4
 BYTE   W01
 BYTE   Fn4
 BYTE   W01
 BYTE   Fs4
 BYTE   W01
 BYTE   Gn4
 BYTE   W01
 BYTE   Gs4
 BYTE   W28
 BYTE   Bn2
 BYTE   N22  Gn4  v076
 BYTE   W04
 BYTE   VOL   45*FE04SilesianForcesRSflame_mvl/mxv
 BYTE   W01
 BYTE   Cs3
 BYTE   W01
 BYTE   Dn3
 BYTE   W01
 BYTE   Ds3
 BYTE   W01
 BYTE   En3
 BYTE   W01
 BYTE   Fn3
 BYTE   W01
 BYTE   Fs3
 BYTE   W01
 BYTE   Gn3
 BYTE   W01
 BYTE   Gs3
 BYTE   W01
 BYTE   An3
 BYTE   W01
 BYTE   As3
 BYTE   W01
 BYTE   Bn3
 BYTE   W01
 BYTE   Cn4
 BYTE   W01
 BYTE   Cs4
 BYTE   W01
 BYTE   Dn4
 BYTE   W01
 BYTE   Ds4
 BYTE   W01
 BYTE   En4
 BYTE   W01
 BYTE   Fn4
 BYTE   W01
 BYTE   Fs4
 BYTE   W01
 BYTE   Gn4
 BYTE   W01
// 008   ----------------------------------------
 BYTE   Gs4
 BYTE   W24
 BYTE   N04  Dn2  v108
 BYTE   W12
 BYTE   N01  Dn2  v104
 BYTE   W04
 BYTE   Dn2  v076
 BYTE   W04
 BYTE   Dn2  v084
 BYTE   W04
 BYTE   VOL   54*FE04SilesianForcesRSflame_mvl/mxv
 BYTE   N60  Dn2  v104
 BYTE   W01
 BYTE   VOL   54*FE04SilesianForcesRSflame_mvl/mxv
 BYTE   W01
 BYTE   As3
 BYTE   W02
 BYTE   Bn3
 BYTE   W01
 BYTE   Bn3
 BYTE   W01
 BYTE   Cn4
 BYTE   W02
 BYTE   Cs4
 BYTE   W01
 BYTE   Cs4
 BYTE   W02
 BYTE   Dn4
 BYTE   W01
 BYTE   Dn4
 BYTE   W01
 BYTE   Ds4
 BYTE   W02
 BYTE   En4
 BYTE   W01
 BYTE   En4
 BYTE   W02
 BYTE   Fn4
 BYTE   W01
 BYTE   Fs4
 BYTE   W01
 BYTE   Fs4
 BYTE   W02
 BYTE   Gn4
 BYTE   W01
 BYTE   Gs4
 BYTE   W24
 BYTE   W01
// 009   ----------------------------------------
 BYTE   W24
 BYTE   N04  Ds2  v108
 BYTE   W12
 BYTE   N01  Ds2  v096
 BYTE   W04
 BYTE   Ds2  v076
 BYTE   W08
 BYTE   VOL   54*FE04SilesianForcesRSflame_mvl/mxv
 BYTE   N60  Ds2  v104
 BYTE   W01
 BYTE   VOL   54*FE04SilesianForcesRSflame_mvl/mxv
 BYTE   W01
 BYTE   As3
 BYTE   W02
 BYTE   Bn3
 BYTE   W01
 BYTE   Bn3
 BYTE   W01
 BYTE   Cn4
 BYTE   W02
 BYTE   Cs4
 BYTE   W01
 BYTE   Cs4
 BYTE   W02
 BYTE   Dn4
 BYTE   W01
 BYTE   Dn4
 BYTE   W01
 BYTE   Ds4
 BYTE   W02
 BYTE   En4
 BYTE   W01
 BYTE   En4
 BYTE   W02
 BYTE   Fn4
 BYTE   W01
 BYTE   Fs4
 BYTE   W01
 BYTE   Fs4
 BYTE   W02
 BYTE   Gn4
 BYTE   W01
 BYTE   Gs4
 BYTE   W24
 BYTE   W01
// 010   ----------------------------------------
 BYTE   W24
 BYTE   Fs3
 BYTE   PAN   c_v+25
 BYTE   VOL   51*FE04SilesianForcesRSflame_mvl/mxv
 BYTE   N16  An3  v084
 BYTE   W01
 BYTE   VOL   52*FE04SilesianForcesRSflame_mvl/mxv
 BYTE   W01
 BYTE   Gs3
 BYTE   W01
 BYTE   An3
 BYTE   W01
 BYTE   As3
 BYTE   W01
 BYTE   Bn3
 BYTE   W01
 BYTE   Cn4
 BYTE   W01
 BYTE   Cs4
 BYTE   W01
 BYTE   Dn4
 BYTE   W01
 BYTE   Dn4
 BYTE   W01
 BYTE   En4
 BYTE   W01
 BYTE   En4
 BYTE   W01
 BYTE   Fs4
 BYTE   W01
 BYTE   Fs4
 BYTE   W01
 BYTE   Gs4
 BYTE   W10
 BYTE   An3
 BYTE   N16  Dn4  v076
 BYTE   W01
 BYTE   VOL   55*FE04SilesianForcesRSflame_mvl/mxv
 BYTE   W01
 BYTE   Bn3
 BYTE   W01
 BYTE   Cn4
 BYTE   W01
 BYTE   Cs4
 BYTE   W01
 BYTE   Dn4
 BYTE   W01
 BYTE   Dn4
 BYTE   W01
 BYTE   En4
 BYTE   W01
 BYTE   En4
 BYTE   W01
 BYTE   Fn4
 BYTE   W01
 BYTE   Fs4
 BYTE   W01
 BYTE   Gn4
 BYTE   W01
 BYTE   Gs4
 BYTE   W12
 BYTE   An3
 BYTE   N16  An3  v068
 BYTE   W01
 BYTE   VOL   55*FE04SilesianForcesRSflame_mvl/mxv
 BYTE   W01
 BYTE   Bn3
 BYTE   W01
 BYTE   Cn4
 BYTE   W01
 BYTE   Cs4
 BYTE   W01
 BYTE   Dn4
 BYTE   W01
 BYTE   Dn4
 BYTE   W01
 BYTE   En4
 BYTE   W01
 BYTE   En4
 BYTE   W01
 BYTE   Fn4
 BYTE   W01
 BYTE   Fs4
 BYTE   W01
 BYTE   Gn4
 BYTE   W01
 BYTE   Gs4
 BYTE   W12
// 011   ----------------------------------------
 BYTE   Ds3
 BYTE   N16  Fn3  v096
 BYTE   W01
 BYTE   VOL   49*FE04SilesianForcesRSflame_mvl/mxv
 BYTE   W01
 BYTE   Fs3
 BYTE   W01
 BYTE   Gn3
 BYTE   W01
 BYTE   Gs3
 BYTE   W01
 BYTE   An3
 BYTE   W01
 BYTE   Bn3
 BYTE   W01
 BYTE   Cn4
 BYTE   W01
 BYTE   Cs4
 BYTE   W01
 BYTE   Dn4
 BYTE   W01
 BYTE   En4
 BYTE   W01
 BYTE   Fn4
 BYTE   W01
 BYTE   Fs4
 BYTE   W01
 BYTE   Gs4
 BYTE   W11
 BYTE   Fs3
 BYTE   N16  Gn3
 BYTE   W01
 BYTE   VOL   53*FE04SilesianForcesRSflame_mvl/mxv
 BYTE   W01
 BYTE   Gs3
 BYTE   W01
 BYTE   An3
 BYTE   W01
 BYTE   Bn3
 BYTE   W01
 BYTE   Cn4
 BYTE   W01
 BYTE   Cs4
 BYTE   W01
 BYTE   Dn4
 BYTE   W01
 BYTE   Ds4
 BYTE   W01
 BYTE   En4
 BYTE   W01
 BYTE   Fn4
 BYTE   W01
 BYTE   Fs4
 BYTE   W01
 BYTE   Gs4
 BYTE   W12
 BYTE   Cn3
 BYTE   N44  Cn4  v092
 BYTE   W01
 BYTE   VOL   46*FE04SilesianForcesRSflame_mvl/mxv
 BYTE   W01
 BYTE   Dn3
 BYTE   W01
 BYTE   Ds3
 BYTE   W01
 BYTE   En3
 BYTE   W01
 BYTE   Fn3
 BYTE   W01
 BYTE   Fs3
 BYTE   W01
 BYTE   Gn3
 BYTE   W01
 BYTE   Gs3
 BYTE   W01
 BYTE   An3
 BYTE   W01
 BYTE   As3
 BYTE   W01
 BYTE   Bn3
 BYTE   W01
 BYTE   Cn4
 BYTE   W01
 BYTE   Cs4
 BYTE   W01
 BYTE   Dn4
 BYTE   W01
 BYTE   Ds4
 BYTE   W01
 BYTE   En4
 BYTE   W01
 BYTE   Fn4
 BYTE   W01
 BYTE   Fs4
 BYTE   W01
 BYTE   Gn4
 BYTE   W01
 BYTE   Gs4
 BYTE   W28
// 012   ----------------------------------------
 BYTE   W17
 BYTE   GoTo
  POIN2 Label_4_0102B5AC
 BYTE   FINE

//**************** Track 6 (Midi-Chn.5) ****************//

FE04SilesianForcesRSflame_006:
// 000   ----------------------------------------
 BYTE   KEYSH   FE04SilesianForcesRSflame_key+0
 BYTE   VOICE   48
 BYTE   VOL   65*FE04SilesianForcesRSflame_mvl/mxv
 BYTE   PAN   c_v+25
 BYTE   Ds5
 BYTE   W01
 BYTE   Cn5
 BYTE   W01
 BYTE   As4
 BYTE   W01
 BYTE   Gs4
 BYTE   N05  Bn3  v052
 BYTE   W01
 BYTE   PAN   c_v+14
 BYTE   W01
 BYTE   Ds4
 BYTE   W01
 BYTE   Cs4
 BYTE   W01
 BYTE   Bn3
 BYTE   W01
 BYTE   An3
 BYTE   W01
 BYTE   Fs3
 BYTE   W01
 BYTE   En3
 BYTE   N06  Dn4  v060
 BYTE   W01
 BYTE   PAN   c_v-2
 BYTE   W01
 BYTE   Bn2
 BYTE   W01
 BYTE   An2
 BYTE   W01
 BYTE   Gn2
 BYTE   W01
 BYTE   Fn2
 BYTE   W01
 BYTE   Dn2
 BYTE   W01
 BYTE   Cn2
 BYTE   N06  Fn4  v084
 BYTE   W01
 BYTE   PAN   c_v-18
 BYTE   W01
 BYTE   Gs1
 BYTE   W01
 BYTE   Fn1
 BYTE   W01
 BYTE   Ds1
 BYTE   W03
Label_5_0102BA78:
 BYTE   VOL   65*FE04SilesianForcesRSflame_mvl/mxv
 BYTE   PAN   c_v-34
 BYTE   N02  En2  v096
 BYTE   W12
 BYTE   N01  En2  v104
 BYTE   W04
 BYTE   En2  v072
 BYTE   W04
 BYTE   N01
 BYTE   W04
 BYTE   En2  v104
 BYTE   W12
 BYTE   N11  Fn2
 BYTE   W12
 BYTE   N03  En2  v096
 BYTE   W12
 BYTE   N01
 BYTE   W04
 BYTE   En2  v072
 BYTE   W04
 BYTE   N01
 BYTE   W04
// 001   ----------------------------------------
 BYTE   En2  v104
 BYTE   W12
 BYTE   N11  Fn2  v108
 BYTE   W12
 BYTE   N02  En2  v096
 BYTE   W12
 BYTE   N01  En2  v104
 BYTE   W04
 BYTE   En2  v072
 BYTE   W04
 BYTE   N01
 BYTE   W04
 BYTE   En2  v104
 BYTE   W12
 BYTE   N11  Fn2
 BYTE   W12
 BYTE   N02  En2
 BYTE   W12
 BYTE   N01  En2  v108
 BYTE   W04
 BYTE   En2  v072
 BYTE   W04
 BYTE   N01
 BYTE   W04
// 002   ----------------------------------------
 BYTE   En2  v108
 BYTE   W12
 BYTE   N11  Fn2
 BYTE   W12
 BYTE   N02  Ds2  v104
 BYTE   W12
 BYTE   N01
 BYTE   W04
 BYTE   Ds2  v084
 BYTE   W04
 BYTE   Ds2  v076
 BYTE   W04
 BYTE   Ds2  v104
 BYTE   W12
 BYTE   N11  En2  v108
 BYTE   W12
 BYTE   N03  Ds2  v104
 BYTE   W12
 BYTE   N01  Ds2  v096
 BYTE   W04
 BYTE   Ds2  v076
 BYTE   W04
 BYTE   Ds2  v072
 BYTE   W04
// 003   ----------------------------------------
 BYTE   Ds2  v104
 BYTE   W12
 BYTE   N11  En2  v108
 BYTE   W12
 BYTE   N02  Ds2  v092
 BYTE   W12
 BYTE   N01  Ds2  v104
 BYTE   W04
 BYTE   Ds2  v076
 BYTE   W04
 BYTE   Ds2  v072
 BYTE   W04
 BYTE   Ds2  v104
 BYTE   W12
 BYTE   N11  En2
 BYTE   W12
 BYTE   N02  Ds2
 BYTE   W12
 BYTE   N01
 BYTE   W04
 BYTE   Ds2  v072
 BYTE   W04
 BYTE   Ds2  v076
 BYTE   W04
// 004   ----------------------------------------
 BYTE   Ds2  v104
 BYTE   W12
 BYTE   N11  En2  v108
 BYTE   W12
 BYTE   N02  Dn2  v092
 BYTE   W12
 BYTE   N01  Dn2  v104
 BYTE   W04
 BYTE   Dn2  v084
 BYTE   W04
 BYTE   N01
 BYTE   W04
 BYTE   Dn2  v092
 BYTE   W12
 BYTE   N11  Ds2  v104
 BYTE   W12
 BYTE   N02  Dn2
 BYTE   W12
 BYTE   N01
 BYTE   W04
 BYTE   Dn2  v076
 BYTE   W04
 BYTE   Dn2  v084
 BYTE   W04
// 005   ----------------------------------------
 BYTE   Dn2  v104
 BYTE   W12
 BYTE   N11  Ds2  v108
 BYTE   W12
 BYTE   N02  Dn2  v096
 BYTE   W12
 BYTE   N01
 BYTE   W04
 BYTE   Dn2  v084
 BYTE   W04
 BYTE   N01
 BYTE   W04
 BYTE   N01
 BYTE   W12
 BYTE   N11  Ds2  v104
 BYTE   W12
 BYTE   N02  Dn2
 BYTE   W12
 BYTE   N01
 BYTE   W04
 BYTE   Dn2  v076
 BYTE   W04
 BYTE   Dn2  v084
 BYTE   W04
// 006   ----------------------------------------
 BYTE   Dn2  v104
 BYTE   W12
 BYTE   N11  Ds2  v108
 BYTE   W12
 BYTE   N02  Dn2  v092
 BYTE   W12
 BYTE   N01  Dn2  v104
 BYTE   W04
 BYTE   Dn2  v084
 BYTE   W04
 BYTE   N01
 BYTE   W04
 BYTE   N01
 BYTE   W12
 BYTE   N11  Ds2  v104
 BYTE   W12
 BYTE   N02  Dn2  v096
 BYTE   W12
 BYTE   N01  Dn2  v104
 BYTE   W04
 BYTE   Dn2  v076
 BYTE   W04
 BYTE   Dn2  v084
 BYTE   W04
// 007   ----------------------------------------
 BYTE   Dn2  v104
 BYTE   W12
 BYTE   N11  Ds2  v108
 BYTE   W12
 BYTE   N02  Dn2  v092
 BYTE   W12
 BYTE   N01  Dn2  v104
 BYTE   W04
 BYTE   Dn2  v084
 BYTE   W04
 BYTE   N01
 BYTE   W04
 BYTE   N01
 BYTE   W12
 BYTE   N11  Ds2  v104
 BYTE   W12
 BYTE   N02  Dn2
 BYTE   W12
 BYTE   N01  Dn2  v096
 BYTE   W04
 BYTE   Dn2  v076
 BYTE   W04
 BYTE   Dn2  v084
 BYTE   W04
// 008   ----------------------------------------
 BYTE   Dn2  v096
 BYTE   W12
 BYTE   N11  Ds2  v108
 BYTE   W12
 BYTE   VOL   65*FE04SilesianForcesRSflame_mvl/mxv
 BYTE   PAN   c_v-34
 BYTE   N04  Dn2
 BYTE   W12
 BYTE   N01  Dn2  v104
 BYTE   W04
 BYTE   Dn2  v076
 BYTE   W04
 BYTE   N02  Dn2  v084
 BYTE   W04
 BYTE   VOL   54*FE04SilesianForcesRSflame_mvl/mxv
 BYTE   N60  Dn2  v104
 BYTE   W01
 BYTE   VOL   54*FE04SilesianForcesRSflame_mvl/mxv
 BYTE   W01
 BYTE   As3
 BYTE   W02
 BYTE   Bn3
 BYTE   W01
 BYTE   Bn3
 BYTE   W01
 BYTE   Cn4
 BYTE   W02
 BYTE   Cs4
 BYTE   W01
 BYTE   Cs4
 BYTE   W02
 BYTE   Dn4
 BYTE   W01
 BYTE   Dn4
 BYTE   W01
 BYTE   Ds4
 BYTE   W02
 BYTE   En4
 BYTE   W01
 BYTE   En4
 BYTE   W02
 BYTE   Fn4
 BYTE   W01
 BYTE   Fs4
 BYTE   W01
 BYTE   Fs4
 BYTE   W02
 BYTE   Gn4
 BYTE   W01
 BYTE   Gs4
 BYTE   W24
 BYTE   W01
// 009   ----------------------------------------
 BYTE   W24
 BYTE   N04  Ds2  v108
 BYTE   W12
 BYTE   N01  Ds2  v096
 BYTE   W04
 BYTE   Ds2  v076
 BYTE   W04
 BYTE   N01
 BYTE   W04
 BYTE   VOL   54*FE04SilesianForcesRSflame_mvl/mxv
 BYTE   N68  Ds2  v104
 BYTE   W01
 BYTE   VOL   54*FE04SilesianForcesRSflame_mvl/mxv
 BYTE   W01
 BYTE   As3
 BYTE   W02
 BYTE   Bn3
 BYTE   W01
 BYTE   Bn3
 BYTE   W01
 BYTE   Cn4
 BYTE   W02
 BYTE   Cs4
 BYTE   W01
 BYTE   Cs4
 BYTE   W02
 BYTE   Dn4
 BYTE   W01
 BYTE   Dn4
 BYTE   W01
 BYTE   Ds4
 BYTE   W02
 BYTE   En4
 BYTE   W01
 BYTE   En4
 BYTE   W02
 BYTE   Fn4
 BYTE   W01
 BYTE   Fs4
 BYTE   W01
 BYTE   Fs4
 BYTE   W02
 BYTE   Gn4
 BYTE   W01
 BYTE   Gs4
 BYTE   W24
 BYTE   W01
// 010   ----------------------------------------
 BYTE   W24
 BYTE   N04  Dn2
 BYTE   W12
 BYTE   N01  Dn2  v108
 BYTE   W04
 BYTE   Dn2  v092
 BYTE   W04
 BYTE   Dn2  v084
 BYTE   W04
 BYTE   VOL   54*FE04SilesianForcesRSflame_mvl/mxv
 BYTE   N60  Dn2  v104
 BYTE   W01
 BYTE   VOL   54*FE04SilesianForcesRSflame_mvl/mxv
 BYTE   W01
 BYTE   As3
 BYTE   W02
 BYTE   Bn3
 BYTE   W01
 BYTE   Bn3
 BYTE   W01
 BYTE   Cn4
 BYTE   W02
 BYTE   Cs4
 BYTE   W01
 BYTE   Cs4
 BYTE   W02
 BYTE   Dn4
 BYTE   W01
 BYTE   Dn4
 BYTE   W01
 BYTE   Ds4
 BYTE   W02
 BYTE   En4
 BYTE   W01
 BYTE   En4
 BYTE   W02
 BYTE   Fn4
 BYTE   W01
 BYTE   Fs4
 BYTE   W01
 BYTE   Fs4
 BYTE   W02
 BYTE   Gn4
 BYTE   W01
 BYTE   Gs4
 BYTE   W24
 BYTE   W01
// 011   ----------------------------------------
 BYTE   W24
 BYTE   N04  Cn2
 BYTE   W12
 BYTE   N01
 BYTE   W04
 BYTE   Cn2  v084
 BYTE   W04
 BYTE   N01
 BYTE   W04
 BYTE   VOL   51*FE04SilesianForcesRSflame_mvl/mxv
 BYTE   N56  Cn2  v104
 BYTE   W01
 BYTE   VOL   51*FE04SilesianForcesRSflame_mvl/mxv
 BYTE   W01
 BYTE   Gn3
 BYTE   W01
 BYTE   Gs3
 BYTE   W01
 BYTE   Gs3
 BYTE   W01
 BYTE   An3
 BYTE   W01
 BYTE   An3
 BYTE   W01
 BYTE   As3
 BYTE   W01
 BYTE   Bn3
 BYTE   W01
 BYTE   Bn3
 BYTE   W01
 BYTE   Cn4
 BYTE   W01
 BYTE   Cs4
 BYTE   W02
 BYTE   Cs4
 BYTE   W01
 BYTE   Dn4
 BYTE   W01
 BYTE   Dn4
 BYTE   W01
 BYTE   Ds4
 BYTE   W01
 BYTE   En4
 BYTE   W01
 BYTE   En4
 BYTE   W01
 BYTE   Fn4
 BYTE   W01
 BYTE   Fs4
 BYTE   W01
 BYTE   Fs4
 BYTE   W01
 BYTE   Gn4
 BYTE   W01
 BYTE   Gs4
 BYTE   W24
 BYTE   W01
// 012   ----------------------------------------
 BYTE   W17
 BYTE   GoTo
  POIN2 Label_5_0102BA78
 BYTE   FINE

//******************************************************//
	ALIGN 4

FE04SilesianForcesRSflame:
	BYTE	6	// NumTrks
	BYTE	0	// NumBlks
	BYTE	FE04SilesianForcesRSflame_pri	// Priority
	BYTE	FE04SilesianForcesRSflame_rev	// Reverb.
    
	POIN2	FE04SilesianForcesRSflame_grp
    
	POIN2	FE04SilesianForcesRSflame_001
	POIN2	FE04SilesianForcesRSflame_002
	POIN2	FE04SilesianForcesRSflame_003
	POIN2	FE04SilesianForcesRSflame_004
	POIN2	FE04SilesianForcesRSflame_005
	POIN2	FE04SilesianForcesRSflame_006

	
