//Event file generated from Sappy .s format.
	#include "MPlayDef.event"

	#define	FE04ThraciaTownRSflame_grp  voicegroup000
	#define	FE04ThraciaTownRSflame_pri  10
	#define	FE04ThraciaTownRSflame_rev  0
	#define	FE04ThraciaTownRSflame_mvl  127
	#define	FE04ThraciaTownRSflame_key  0
	#define	FE04ThraciaTownRSflame_tbs  1
	#define	FE04ThraciaTownRSflame_exg  0
	#define	FE04ThraciaTownRSflame_cmp  1

	// .rodata
	//	FE04ThraciaTownRSflame
	ALIGN 4


//**************** Track 1 (Midi-Chn.0) ****************//

FE04ThraciaTownRSflame_001:
// 000   ----------------------------------------
Label_0_5626A8:
 BYTE   KEYSH   FE04ThraciaTownRSflame_key+0
 BYTE   VOICE   21
 BYTE   VOL   10*FE04ThraciaTownRSflame_mvl/mxv
 BYTE   TEMPO   56*FE04ThraciaTownRSflame_tbs/2
 BYTE   W03
 BYTE   PAN   c_v+25
 BYTE   W06
 BYTE   N05  Ds3  v094
 BYTE   W12
 BYTE   Ds3  v103
 BYTE   W12
 BYTE   Ds3  v100
 BYTE   W12
 BYTE   Ds3  v102
 BYTE   W12
 BYTE   Dn3  v109
 BYTE   W12
 BYTE   Dn3  v105
 BYTE   W12
 BYTE   Dn3  v108
 BYTE   W12
 BYTE   Dn3  v112
 BYTE   W12
// 001   ----------------------------------------
 BYTE   Dn3  v116
 BYTE   W12
 BYTE   Dn3  v114
 BYTE   W12
 BYTE   Dn3  v112
 BYTE   W12
 BYTE   Dn3  v119
 BYTE   W12
 BYTE   Ds3
 BYTE   W12
 BYTE   Ds3
 BYTE   W12
 BYTE   Ds3  v123
 BYTE   W12
 BYTE   Ds3  v119
 BYTE   W12
// 002   ----------------------------------------
 BYTE   Ds3  v105
 BYTE   W12
 BYTE   Ds3
 BYTE   W12
 BYTE   Ds3
 BYTE   W12
 BYTE   Ds3  v108
 BYTE   W12
 BYTE   Dn3  v116
 BYTE   W12
 BYTE   Dn3  v122
 BYTE   W12
 BYTE   Dn3  v119
 BYTE   W12
 BYTE   Dn3
 BYTE   W12
// 003   ----------------------------------------
 BYTE   Dn3  v123
 BYTE   W12
 BYTE   Dn3  v122
 BYTE   W12
 BYTE   Dn3  v117
 BYTE   W12
 BYTE   Dn3  v119
 BYTE   W12
 BYTE   Ds3  v105
 BYTE   W12
 BYTE   Ds3  v110
 BYTE   W12
 BYTE   Ds3  v112
 BYTE   W12
 BYTE   Ds3
 BYTE   W12
// 004   ----------------------------------------
 BYTE   Fn3  v110
 BYTE   W12
 BYTE   Fn3  v117
 BYTE   W12
 BYTE   Fn3  v116
 BYTE   W12
 BYTE   Fn3  v113
 BYTE   W12
 BYTE   Ds3  v105
 BYTE   W12
 BYTE   Ds3  v103
 BYTE   W12
 BYTE   Ds3  v110
 BYTE   W12
 BYTE   Ds3  v114
 BYTE   W12
// 005   ----------------------------------------
 BYTE   Dn3  v113
 BYTE   W12
 BYTE   Dn3  v119
 BYTE   W12
 BYTE   Dn3  v117
 BYTE   W12
 BYTE   Dn3  v122
 BYTE   W12
 BYTE   Cn3
 BYTE   W12
 BYTE   Cn3
 BYTE   W12
 BYTE   Cn3  v119
 BYTE   W06
 BYTE   Cn3
 BYTE   W01
 BYTE   GoTo
  POIN2 Label_0_5626A8
 BYTE   FINE

//**************** Track 2 (Midi-Chn.1) ****************//

FE04ThraciaTownRSflame_002:
// 000   ----------------------------------------
Label_1_562D20:
 BYTE   KEYSH   FE04ThraciaTownRSflame_key+0
 BYTE   VOICE   21
 BYTE   VOL   42*FE04ThraciaTownRSflame_mvl/mxv
 BYTE   PAN   c_v-54
 BYTE   TEMPO   56*FE04ThraciaTownRSflame_tbs/2
 BYTE   W03
 BYTE   N05  Cn2  v084
 BYTE   W12
 BYTE   Gn1  v093
 BYTE   W12
 BYTE   Cn2  v100
 BYTE   W12
 BYTE   Gn1  v096
 BYTE   W12
 BYTE   Cn2  v098
 BYTE   W12
 BYTE   Fs1  v093
 BYTE   W12
 BYTE   Cn2  v102
 BYTE   W12
 BYTE   Fs1  v093
 BYTE   W06
 BYTE   N03  Cn2  v100
 BYTE   W06
// 001   ----------------------------------------
 BYTE   N05  Bn1  v103
 BYTE   W12
 BYTE   Gn1  v102
 BYTE   W12
 BYTE   Bn1  v112
 BYTE   W12
 BYTE   Gn1  v110
 BYTE   W06
 BYTE   N03  Bn1  v107
 BYTE   W06
 BYTE   N05  Cn2  v098
 BYTE   W12
 BYTE   Gn1  v110
 BYTE   W12
 BYTE   Cn2
 BYTE   W12
 BYTE   Gn1  v112
 BYTE   W06
 BYTE   N03  Bn1  v110
 BYTE   W06
// 002   ----------------------------------------
 BYTE   N05  Cn2  v109
 BYTE   W12
 BYTE   Gn1  v107
 BYTE   W12
 BYTE   Cn2  v112
 BYTE   W12
 BYTE   Gn1
 BYTE   W12
 BYTE   Cn2  v110
 BYTE   W12
 BYTE   Fs1
 BYTE   W12
 BYTE   Cn2  v112
 BYTE   W12
 BYTE   Fs1  v099
 BYTE   W06
 BYTE   N03  Cn2  v107
 BYTE   W06
// 003   ----------------------------------------
 BYTE   N05  Bn1
 BYTE   W12
 BYTE   Gn1
 BYTE   W12
 BYTE   Bn1  v112
 BYTE   W12
 BYTE   Gn1  v107
 BYTE   W06
 BYTE   N03  Bn1  v112
 BYTE   W06
 BYTE   N05  Cn2  v107
 BYTE   W12
 BYTE   Gn1  v104
 BYTE   W12
 BYTE   Cn2  v114
 BYTE   W12
 BYTE   Gn1  v104
 BYTE   W06
 BYTE   N03  Cn2
 BYTE   W06
// 004   ----------------------------------------
 BYTE   N05  Dn2  v098
 BYTE   W12
 BYTE   Gs1  v112
 BYTE   W12
 BYTE   Dn2
 BYTE   W12
 BYTE   Gs1  v089
 BYTE   W06
 BYTE   N03  Dn2  v098
 BYTE   W06
 BYTE   N05  Cn2  v110
 BYTE   W12
 BYTE   Gn1  v109
 BYTE   W12
 BYTE   Cn2  v116
 BYTE   W12
 BYTE   Gn1  v110
 BYTE   W06
 BYTE   N04  Cn2  v107
 BYTE   W06
// 005   ----------------------------------------
 BYTE   N05  Bn1  v093
 BYTE   W12
 BYTE   Gn1  v090
 BYTE   W12
 BYTE   Bn1  v107
 BYTE   W12
 BYTE   Gn1  v095
 BYTE   W06
 BYTE   N04  Bn1  v112
 BYTE   W06
 BYTE   N05  Cn2  v098
 BYTE   W12
 BYTE   Gn1  v103
 BYTE   W12
 BYTE   Cn2  v114
 BYTE   W12
 BYTE   N06  Cn2  v110
 BYTE   W02
 BYTE   GoTo
  POIN2 Label_1_562D20
 BYTE   FINE

//**************** Track 3 (Midi-Chn.2) ****************//

FE04ThraciaTownRSflame_003:
// 000   ----------------------------------------
Label_2_562AF8:
 BYTE   KEYSH   FE04ThraciaTownRSflame_key+0
 BYTE   VOICE   104
 BYTE   VOL   42*FE04ThraciaTownRSflame_mvl/mxv
 BYTE   PAN   c_v-25
 BYTE   TEMPO   56*FE04ThraciaTownRSflame_tbs/2
 BYTE   W05
 BYTE   N05  Cn2  v084
 BYTE   W12
 BYTE   Gn1  v093
 BYTE   W12
 BYTE   Cn2  v100
 BYTE   W12
 BYTE   Gn1  v096
 BYTE   W12
 BYTE   Cn2  v098
 BYTE   W12
 BYTE   Fs1  v093
 BYTE   W12
 BYTE   Cn2  v102
 BYTE   W12
 BYTE   Fs1  v093
 BYTE   W06
 BYTE   N03  Cn2  v100
 BYTE   W06
// 001   ----------------------------------------
 BYTE   N05  Bn1  v103
 BYTE   W12
 BYTE   Gn1  v102
 BYTE   W12
 BYTE   Bn1  v112
 BYTE   W12
 BYTE   Gn1  v110
 BYTE   W06
 BYTE   N03  Bn1  v107
 BYTE   W06
 BYTE   N05  Cn2  v098
 BYTE   W12
 BYTE   Gn1  v110
 BYTE   W12
 BYTE   Cn2
 BYTE   W12
 BYTE   Gn1  v112
 BYTE   W06
 BYTE   N03  Bn1  v110
 BYTE   W06
// 002   ----------------------------------------
 BYTE   N05  Cn2  v109
 BYTE   W12
 BYTE   Gn1  v107
 BYTE   W12
 BYTE   Cn2  v112
 BYTE   W12
 BYTE   Gn1
 BYTE   W12
 BYTE   Cn2  v110
 BYTE   W12
 BYTE   Fs1
 BYTE   W12
 BYTE   Cn2  v112
 BYTE   W12
 BYTE   Fs1  v099
 BYTE   W06
 BYTE   N03  Cn2  v107
 BYTE   W06
// 003   ----------------------------------------
 BYTE   N05  Bn1
 BYTE   W12
 BYTE   Gn1
 BYTE   W12
 BYTE   Bn1  v112
 BYTE   W12
 BYTE   Gn1  v107
 BYTE   W06
 BYTE   N03  Bn1  v112
 BYTE   W06
 BYTE   N05  Cn2  v107
 BYTE   W12
 BYTE   Gn1  v104
 BYTE   W12
 BYTE   Cn2  v114
 BYTE   W12
 BYTE   Gn1  v104
 BYTE   W06
 BYTE   N03  Cn2
 BYTE   W06
// 004   ----------------------------------------
 BYTE   N05  Dn2  v098
 BYTE   W12
 BYTE   Gs1  v112
 BYTE   W12
 BYTE   Dn2
 BYTE   W12
 BYTE   Gs1  v089
 BYTE   W06
 BYTE   N03  Dn2  v098
 BYTE   W06
 BYTE   N05  Cn2  v110
 BYTE   W12
 BYTE   Gn1  v109
 BYTE   W12
 BYTE   Cn2  v116
 BYTE   W12
 BYTE   Gn1  v110
 BYTE   W06
 BYTE   N04  Cn2  v107
 BYTE   W06
// 005   ----------------------------------------
 BYTE   N05  Bn1  v093
 BYTE   W12
 BYTE   Gn1  v090
 BYTE   W12
 BYTE   Bn1  v107
 BYTE   W12
 BYTE   Gn1  v095
 BYTE   W06
 BYTE   N04  Bn1  v112
 BYTE   W06
 BYTE   N05  Cn2  v098
 BYTE   W12
 BYTE   Gn1  v103
 BYTE   W12
 BYTE   Cn2  v114
 BYTE   W12
 BYTE   N06  Cn2  v110
 BYTE   GoTo
  POIN2 Label_2_562AF8
 BYTE   FINE

//**************** Track 4 (Midi-Chn.3) ****************//

FE04ThraciaTownRSflame_004:
// 000   ----------------------------------------
Label_3_56287C:
 BYTE   KEYSH   FE04ThraciaTownRSflame_key+0
 BYTE   VOICE   104
 BYTE   VOL   42*FE04ThraciaTownRSflame_mvl/mxv
 BYTE   PAN   c_v+43
 BYTE   N05  Cn2  v096
 BYTE   TEMPO   56*FE04ThraciaTownRSflame_tbs/2
 BYTE   W12
 BYTE   N05  Gn1  v105
 BYTE   W12
 BYTE   Cn2  v113
 BYTE   W12
 BYTE   Gn1  v109
 BYTE   W12
 BYTE   Cn2  v110
 BYTE   W12
 BYTE   Fs1  v105
 BYTE   W12
 BYTE   Cn2  v114
 BYTE   W12
 BYTE   Fs1  v105
 BYTE   W06
 BYTE   N03  Cn2  v113
 BYTE   W06
// 001   ----------------------------------------
 BYTE   N05  Bn1  v116
 BYTE   W12
 BYTE   Gn1  v114
 BYTE   W12
 BYTE   Bn1  v124
 BYTE   W12
 BYTE   Gn1  v123
 BYTE   W06
 BYTE   N03  Bn1  v119
 BYTE   W06
 BYTE   N05  Cn2  v110
 BYTE   W12
 BYTE   Gn1  v123
 BYTE   W12
 BYTE   Cn2
 BYTE   W12
 BYTE   Gn1  v124
 BYTE   W06
 BYTE   N03  Bn1  v123
 BYTE   W06
// 002   ----------------------------------------
 BYTE   N05  Cn2  v122
 BYTE   W12
 BYTE   Gn1  v119
 BYTE   W12
 BYTE   Cn2  v124
 BYTE   W12
 BYTE   Gn1
 BYTE   W12
 BYTE   Cn2  v123
 BYTE   W12
 BYTE   Fs1
 BYTE   W12
 BYTE   Cn2  v124
 BYTE   W12
 BYTE   Fs1  v112
 BYTE   W06
 BYTE   N03  Cn2  v119
 BYTE   W06
// 003   ----------------------------------------
 BYTE   N05  Bn1
 BYTE   W12
 BYTE   Gn1
 BYTE   W12
 BYTE   Bn1  v124
 BYTE   W12
 BYTE   Gn1  v119
 BYTE   W06
 BYTE   N03  Bn1  v124
 BYTE   W06
 BYTE   N05  Cn2  v119
 BYTE   W12
 BYTE   Gn1  v117
 BYTE   W12
 BYTE   Cn2  v126
 BYTE   W12
 BYTE   Gn1  v117
 BYTE   W06
 BYTE   N03  Cn2
 BYTE   W06
// 004   ----------------------------------------
 BYTE   N05  Dn2  v110
 BYTE   W12
 BYTE   Gs1  v124
 BYTE   W12
 BYTE   Dn2
 BYTE   W12
 BYTE   Gs1  v102
 BYTE   W06
 BYTE   N03  Dn2  v110
 BYTE   W06
 BYTE   N05  Cn2  v123
 BYTE   W12
 BYTE   Gn1  v122
 BYTE   W12
 BYTE   Cn2  v126
 BYTE   W12
 BYTE   Gn1  v123
 BYTE   W06
 BYTE   N04  Cn2  v119
 BYTE   W06
// 005   ----------------------------------------
 BYTE   N05  Bn1  v105
 BYTE   W12
 BYTE   Gn1  v103
 BYTE   W12
 BYTE   Bn1  v119
 BYTE   W12
 BYTE   Gn1  v108
 BYTE   W06
 BYTE   N04  Bn1  v124
 BYTE   W06
 BYTE   N05  Cn2  v110
 BYTE   W12
 BYTE   Gn1  v116
 BYTE   W12
 BYTE   Cn2  v126
 BYTE   W12
 BYTE   N06  Cn2  v123
 BYTE   W05
 BYTE   GoTo
  POIN2 Label_3_56287C
 BYTE   FINE

//**************** Track 5 (Midi-Chn.4) ****************//

FE04ThraciaTownRSflame_005:
// 000   ----------------------------------------
Label_4_562BC0:
 BYTE   KEYSH   FE04ThraciaTownRSflame_key+0
 BYTE   VOICE   104
 BYTE   VOL   42*FE04ThraciaTownRSflame_mvl/mxv
 BYTE   PAN   c_v-25
 BYTE   TEMPO   56*FE04ThraciaTownRSflame_tbs/2
 BYTE   W06
 BYTE   N05  Gn2  v102
 BYTE   W12
 BYTE   Gn2  v103
 BYTE   W12
 BYTE   Gn2  v107
 BYTE   W12
 BYTE   Gn2  v105
 BYTE   W12
 BYTE   An2  v107
 BYTE   W12
 BYTE   An2  v103
 BYTE   W12
 BYTE   An2  v110
 BYTE   W12
 BYTE   An2  v113
 BYTE   W12
// 001   ----------------------------------------
 BYTE   Gn2  v110
 BYTE   W12
 BYTE   Gn2
 BYTE   W12
 BYTE   Gn2
 BYTE   W12
 BYTE   Gn2  v116
 BYTE   W12
 BYTE   Gn2  v102
 BYTE   W12
 BYTE   Gn2  v108
 BYTE   W12
 BYTE   Gn2  v110
 BYTE   W12
 BYTE   Gn2  v108
 BYTE   W12
// 002   ----------------------------------------
 BYTE   Gn2  v107
 BYTE   W12
 BYTE   Gn2  v110
 BYTE   W12
 BYTE   Gn2  v109
 BYTE   W12
 BYTE   Gn2  v114
 BYTE   W12
 BYTE   An2  v108
 BYTE   W12
 BYTE   An2  v110
 BYTE   W12
 BYTE   An2  v112
 BYTE   W12
 BYTE   An2  v110
 BYTE   W12
// 003   ----------------------------------------
 BYTE   Gn2  v117
 BYTE   W12
 BYTE   Gn2  v119
 BYTE   W12
 BYTE   Gn2  v114
 BYTE   W12
 BYTE   Gn2  v119
 BYTE   W12
 BYTE   Gn2  v107
 BYTE   W12
 BYTE   Gn2  v109
 BYTE   W12
 BYTE   Gn2  v116
 BYTE   W12
 BYTE   Gn2  v107
 BYTE   W12
// 004   ----------------------------------------
 BYTE   Gs2  v105
 BYTE   W12
 BYTE   Gs2  v112
 BYTE   W12
 BYTE   Gs2  v108
 BYTE   W12
 BYTE   Gs2  v112
 BYTE   W12
 BYTE   Gn2  v109
 BYTE   W12
 BYTE   Gn2  v110
 BYTE   W12
 BYTE   Gn2  v113
 BYTE   W12
 BYTE   Gn2  v116
 BYTE   W12
// 005   ----------------------------------------
 BYTE   Fn2  v110
 BYTE   W12
 BYTE   Fn2  v108
 BYTE   W12
 BYTE   Fn2
 BYTE   W12
 BYTE   Fn2  v112
 BYTE   W12
 BYTE   Ds2  v105
 BYTE   W12
 BYTE   Ds2  v114
 BYTE   W12
 BYTE   Ds2  v102
 BYTE   W06
 BYTE   Ds2  v112
 BYTE   W05
 BYTE   GoTo
  POIN2 Label_4_562BC0
 BYTE   FINE

//**************** Track 6 (Midi-Chn.5) ****************//

FE04ThraciaTownRSflame_006:
// 000   ----------------------------------------
Label_5_562948:
 BYTE   KEYSH   FE04ThraciaTownRSflame_key+0
 BYTE   VOICE   104
 BYTE   VOL   42*FE04ThraciaTownRSflame_mvl/mxv
 BYTE   PAN   c_v+54
 BYTE   TEMPO   56*FE04ThraciaTownRSflame_tbs/2
 BYTE   W06
 BYTE   N05  Ds3  v094
 BYTE   W12
 BYTE   Ds3  v103
 BYTE   W12
 BYTE   Ds3  v100
 BYTE   W12
 BYTE   Ds3  v102
 BYTE   W12
 BYTE   Dn3  v109
 BYTE   W12
 BYTE   Dn3  v105
 BYTE   W12
 BYTE   Dn3  v108
 BYTE   W12
 BYTE   Dn3  v112
 BYTE   W12
// 001   ----------------------------------------
 BYTE   Dn3  v116
 BYTE   W12
 BYTE   Dn3  v114
 BYTE   W12
 BYTE   Dn3  v112
 BYTE   W12
 BYTE   Dn3  v119
 BYTE   W12
 BYTE   Ds3
 BYTE   W12
 BYTE   Ds3
 BYTE   W12
 BYTE   Ds3  v123
 BYTE   W12
 BYTE   Ds3  v119
 BYTE   W12
// 002   ----------------------------------------
 BYTE   Ds3  v105
 BYTE   W12
 BYTE   Ds3
 BYTE   W12
 BYTE   Ds3
 BYTE   W12
 BYTE   Ds3  v108
 BYTE   W12
 BYTE   Dn3  v116
 BYTE   W12
 BYTE   Dn3  v122
 BYTE   W12
 BYTE   Dn3  v119
 BYTE   W12
 BYTE   Dn3
 BYTE   W12
// 003   ----------------------------------------
 BYTE   Dn3  v123
 BYTE   W12
 BYTE   Dn3  v122
 BYTE   W12
 BYTE   Dn3  v117
 BYTE   W12
 BYTE   Dn3  v119
 BYTE   W12
 BYTE   Ds3  v105
 BYTE   W12
 BYTE   Ds3  v110
 BYTE   W12
 BYTE   Ds3  v112
 BYTE   W12
 BYTE   Ds3
 BYTE   W12
// 004   ----------------------------------------
 BYTE   Fn3  v110
 BYTE   W12
 BYTE   Fn3  v117
 BYTE   W12
 BYTE   Fn3  v116
 BYTE   W12
 BYTE   Fn3  v113
 BYTE   W12
 BYTE   Ds3  v105
 BYTE   W12
 BYTE   Ds3  v103
 BYTE   W12
 BYTE   Ds3  v110
 BYTE   W12
 BYTE   Ds3  v114
 BYTE   W12
// 005   ----------------------------------------
 BYTE   Dn3  v113
 BYTE   W12
 BYTE   Dn3  v119
 BYTE   W12
 BYTE   Dn3  v117
 BYTE   W12
 BYTE   Dn3  v122
 BYTE   W12
 BYTE   Cn3
 BYTE   W12
 BYTE   Cn3
 BYTE   W12
 BYTE   Cn3  v119
 BYTE   W06
 BYTE   Cn3
 BYTE   W04
 BYTE   GoTo
  POIN2 Label_5_562948
 BYTE   FINE

//******************************************************//
	ALIGN 4

FE04ThraciaTownRSflame:
	BYTE	6	// NumTrks
	BYTE	0	// NumBlks
	BYTE	FE04ThraciaTownRSflame_pri	// Priority
	BYTE	FE04ThraciaTownRSflame_rev	// Reverb.
    
	POIN2	FE04ThraciaTownRSflame_grp
    
	POIN2	FE04ThraciaTownRSflame_001
	POIN2	FE04ThraciaTownRSflame_002
	POIN2	FE04ThraciaTownRSflame_003
	POIN2	FE04ThraciaTownRSflame_004
	POIN2	FE04ThraciaTownRSflame_005
	POIN2	FE04ThraciaTownRSflame_006

	
