//Event file generated from Sappy .s format.
	#include "MPlayDef.event"

	#define	FE05ThreatApproachingFinalChapterSurfingKyogre_grp  voicegroup000
	#define	FE05ThreatApproachingFinalChapterSurfingKyogre_pri  0
	#define	FE05ThreatApproachingFinalChapterSurfingKyogre_rev  0
	#define	FE05ThreatApproachingFinalChapterSurfingKyogre_mvl  127
	#define	FE05ThreatApproachingFinalChapterSurfingKyogre_key  0
	#define	FE05ThreatApproachingFinalChapterSurfingKyogre_tbs  1
	#define	FE05ThreatApproachingFinalChapterSurfingKyogre_exg  0
	#define	FE05ThreatApproachingFinalChapterSurfingKyogre_cmp  1

	// .rodata
	//	FE05ThreatApproachingFinalChapterSurfingKyogre
	ALIGN 4


//**************** Track 1 (Midi-Chn.0) ****************//

FE05ThreatApproachingFinalChapterSurfingKyogre_001:
// 000   ----------------------------------------
 BYTE   KEYSH   FE05ThreatApproachingFinalChapterSurfingKyogre_key+0
Label_0_016E6276:
 BYTE   TEMPO   142*FE05ThreatApproachingFinalChapterSurfingKyogre_tbs/2
 BYTE   VOICE   56
 BYTE   VOL   72*FE05ThreatApproachingFinalChapterSurfingKyogre_mvl/mxv
 BYTE   W96
// 001   ----------------------------------------
 BYTE   W96
// 002   ----------------------------------------
Label_0_016E627E:
 BYTE   W84
 BYTE   N12  Fn2  v072
 BYTE   N12  As2
 BYTE   W12
 BYTE   PEND 
// 003   ----------------------------------------
 BYTE   N96  Fs2
 BYTE   N96  Bn2
 BYTE   W96
// 004   ----------------------------------------
 BYTE   W96
// 005   ----------------------------------------
 BYTE   W96
// 006   ----------------------------------------
 BYTE   W96
// 007   ----------------------------------------
Label_0_016E628E:
 BYTE   N36  Fs2  v072
 BYTE   N36  Bn2
 BYTE   W48
 BYTE   Gn2
 BYTE   N36  Cs3
 BYTE   W48
 BYTE   PEND 
// 008   ----------------------------------------
 BYTE   W96
// 009   ----------------------------------------
 BYTE   W96
// 010   ----------------------------------------
 BYTE   W96
// 011   ----------------------------------------
 BYTE   W96
// 012   ----------------------------------------
 BYTE   W96
// 013   ----------------------------------------
 BYTE   W96
// 014   ----------------------------------------
 BYTE   W96
// 015   ----------------------------------------
 BYTE   W96
// 016   ----------------------------------------
Label_0_016E62A1:
 BYTE   N84  Fn2  v072
 BYTE   N84  An2
 BYTE   N84  Dn3
 BYTE   W96
 BYTE   PEND 
// 017   ----------------------------------------
Label_0_016E62AA:
 BYTE   N12  En2  v072
 BYTE   N12  Gn2
 BYTE   N12  Cn3
 BYTE   W96
 BYTE   PEND 
 BYTE   PATT
  POIN2 Label_0_016E62A1
 BYTE   PATT
  POIN2 Label_0_016E62AA
// 018   ----------------------------------------
Label_0_016E62BD:
 BYTE   TIE  Dn2  v072
 BYTE   TIE  Fs2
 BYTE   TIE  Bn2
 BYTE   W96
 BYTE   PEND 
// 019   ----------------------------------------
 BYTE   W96
// 020   ----------------------------------------
 BYTE   EOT
 BYTE   Dn2  v054
 BYTE   Bn2
 BYTE   W96
// 021   ----------------------------------------
 BYTE   W96
// 022   ----------------------------------------
 BYTE   W96
// 023   ----------------------------------------
 BYTE   W96
// 024   ----------------------------------------
 BYTE   W96
// 025   ----------------------------------------
 BYTE   W96
// 026   ----------------------------------------
 BYTE   W96
// 027   ----------------------------------------
 BYTE   W96
// 028   ----------------------------------------
 BYTE   W96
// 029   ----------------------------------------
 BYTE   W96
// 030   ----------------------------------------
 BYTE   W96
// 031   ----------------------------------------
 BYTE   W90
 BYTE   GoTo
  POIN2 Label_0_016E6276
// 032   ----------------------------------------
 BYTE   W06
 BYTE   W96
// 033   ----------------------------------------
 BYTE   W96
 BYTE   PATT
  POIN2 Label_0_016E627E
// 034   ----------------------------------------
 BYTE   N96  Fs2  v072
 BYTE   N96  Bn2
 BYTE   W96
// 035   ----------------------------------------
 BYTE   W96
// 036   ----------------------------------------
 BYTE   W96
// 037   ----------------------------------------
 BYTE   W96
 BYTE   PATT
  POIN2 Label_0_016E628E
// 038   ----------------------------------------
 BYTE   W96
// 039   ----------------------------------------
 BYTE   W96
// 040   ----------------------------------------
 BYTE   W96
// 041   ----------------------------------------
 BYTE   W96
// 042   ----------------------------------------
 BYTE   W96
// 043   ----------------------------------------
 BYTE   W96
// 044   ----------------------------------------
 BYTE   W96
// 045   ----------------------------------------
 BYTE   W96
 BYTE   PATT
  POIN2 Label_0_016E62A1
 BYTE   PATT
  POIN2 Label_0_016E62AA
 BYTE   PATT
  POIN2 Label_0_016E62A1
 BYTE   PATT
  POIN2 Label_0_016E62AA
 BYTE   PATT
  POIN2 Label_0_016E62BD
// 046   ----------------------------------------
 BYTE   W96
// 047   ----------------------------------------
 BYTE   EOT
 BYTE   Dn2  v054
 BYTE   Bn2
 BYTE   W96
// 048   ----------------------------------------
 BYTE   W96
// 049   ----------------------------------------
 BYTE   W96
// 050   ----------------------------------------
 BYTE   W96
// 051   ----------------------------------------
 BYTE   W96
// 052   ----------------------------------------
 BYTE   W96
// 053   ----------------------------------------
 BYTE   W96
// 054   ----------------------------------------
 BYTE   W96
// 055   ----------------------------------------
 BYTE   W96
// 056   ----------------------------------------
 BYTE   W96
// 057   ----------------------------------------
 BYTE   W96
// 058   ----------------------------------------
 BYTE   W96
 BYTE   FINE

//**************** Track 2 (Midi-Chn.1) ****************//

FE05ThreatApproachingFinalChapterSurfingKyogre_002:
// 000   ----------------------------------------
 BYTE   KEYSH   FE05ThreatApproachingFinalChapterSurfingKyogre_key+0
Label_1_016E6156:
 BYTE   VOICE   60
 BYTE   VOL   74*FE05ThreatApproachingFinalChapterSurfingKyogre_mvl/mxv
 BYTE   N84  Fs1  v100
 BYTE   N84  Bn1
 BYTE   W96
// 001   ----------------------------------------
 BYTE   Fs1
 BYTE   N84  Bn1
 BYTE   W96
// 002   ----------------------------------------
 BYTE   Fs1
 BYTE   N84  Bn1
 BYTE   W96
// 003   ----------------------------------------
 BYTE   W96
// 004   ----------------------------------------
 BYTE   Fs1
 BYTE   N84  Bn1
 BYTE   W96
// 005   ----------------------------------------
 BYTE   Fs1
 BYTE   N84  Bn1
 BYTE   W96
// 006   ----------------------------------------
 BYTE   Fs1
 BYTE   N84  Bn1
 BYTE   W96
// 007   ----------------------------------------
 BYTE   W96
// 008   ----------------------------------------
Label_1_016E6176:
 BYTE   TIE  Dn2  v100
 BYTE   TIE  Gn2
 BYTE   W96
 BYTE   PEND 
// 009   ----------------------------------------
 BYTE   W96
// 010   ----------------------------------------
 BYTE   EOT
 BYTE   Dn2  v055
Label_1_016E6181:
 BYTE   TIE  Ds2  v100
 BYTE   TIE  As2
 BYTE   W96
 BYTE   PEND 
// 011   ----------------------------------------
 BYTE   W96
// 012   ----------------------------------------
 BYTE   EOT
 BYTE   Ds2  v058
 BYTE   PATT
  POIN2 Label_1_016E6176
// 013   ----------------------------------------
 BYTE   W96
// 014   ----------------------------------------
 BYTE   EOT
 BYTE   Dn2  v055
 BYTE   PATT
  POIN2 Label_1_016E6181
// 015   ----------------------------------------
 BYTE   W96
// 016   ----------------------------------------
 BYTE   EOT
 BYTE   Ds2  v058
 BYTE   W96
// 017   ----------------------------------------
 BYTE   W96
// 018   ----------------------------------------
 BYTE   W96
// 019   ----------------------------------------
 BYTE   W96
// 020   ----------------------------------------
 BYTE   W96
// 021   ----------------------------------------
 BYTE   W96
// 022   ----------------------------------------
 BYTE   N96  Gn2  v100
 BYTE   N96  Dn3
 BYTE   W96
// 023   ----------------------------------------
 BYTE   N24  Dn2
 BYTE   N24  Bn2
 BYTE   W96
// 024   ----------------------------------------
 BYTE   N96  Bn1
 BYTE   W96
// 025   ----------------------------------------
Label_1_016E61B2:
 BYTE   N48  Cs2  v100
 BYTE   W48
 BYTE   N24  En2
 BYTE   W24
 BYTE   Cs2
 BYTE   W24
 BYTE   PEND 
// 026   ----------------------------------------
Label_1_016E61BC:
 BYTE   N48  Dn2  v100
 BYTE   W48
 BYTE   En2
 BYTE   W48
 BYTE   PEND 
// 027   ----------------------------------------
Label_1_016E61C3:
 BYTE   N84  Fs2  v100
 BYTE   W84
 BYTE   N12
 BYTE   W12
 BYTE   PEND 
// 028   ----------------------------------------
 BYTE   TIE  Fn2
 BYTE   W96
// 029   ----------------------------------------
 BYTE   W72
 BYTE   EOT
 BYTE   W12
 BYTE   N12  Cs2
 BYTE   W12
// 030   ----------------------------------------
 BYTE   TIE  En2
 BYTE   W96
// 031   ----------------------------------------
 BYTE   W72
 BYTE   EOT
 BYTE   W24
// 032   ----------------------------------------
 BYTE   W96
// 033   ----------------------------------------
 BYTE   W90
 BYTE   GoTo
  POIN2 Label_1_016E6156
// 034   ----------------------------------------
 BYTE   W06
 BYTE   N84  Fs1  v100
 BYTE   N84  Bn1
 BYTE   W96
// 035   ----------------------------------------
 BYTE   Fs1
 BYTE   N84  Bn1
 BYTE   W96
// 036   ----------------------------------------
 BYTE   Fs1
 BYTE   N84  Bn1
 BYTE   W96
// 037   ----------------------------------------
 BYTE   W96
// 038   ----------------------------------------
 BYTE   Fs1
 BYTE   N84  Bn1
 BYTE   W96
// 039   ----------------------------------------
 BYTE   Fs1
 BYTE   N84  Bn1
 BYTE   W96
// 040   ----------------------------------------
 BYTE   Fs1
 BYTE   N84  Bn1
 BYTE   W96
// 041   ----------------------------------------
 BYTE   W96
 BYTE   PATT
  POIN2 Label_1_016E6176
// 042   ----------------------------------------
 BYTE   W96
// 043   ----------------------------------------
 BYTE   EOT
 BYTE   Dn2  v055
 BYTE   PATT
  POIN2 Label_1_016E6181
// 044   ----------------------------------------
 BYTE   W96
// 045   ----------------------------------------
 BYTE   EOT
 BYTE   Ds2  v058
 BYTE   PATT
  POIN2 Label_1_016E6176
// 046   ----------------------------------------
 BYTE   W96
// 047   ----------------------------------------
 BYTE   EOT
 BYTE   Dn2  v055
 BYTE   PATT
  POIN2 Label_1_016E6181
// 048   ----------------------------------------
 BYTE   W96
// 049   ----------------------------------------
 BYTE   EOT
 BYTE   Ds2  v058
 BYTE   W96
// 050   ----------------------------------------
 BYTE   W96
// 051   ----------------------------------------
 BYTE   W96
// 052   ----------------------------------------
 BYTE   W96
// 053   ----------------------------------------
 BYTE   W96
// 054   ----------------------------------------
 BYTE   W96
// 055   ----------------------------------------
 BYTE   N96  Gn2  v100
 BYTE   N96  Dn3
 BYTE   W96
// 056   ----------------------------------------
 BYTE   N24  Dn2
 BYTE   N24  Bn2
 BYTE   W96
// 057   ----------------------------------------
 BYTE   N96  Bn1
 BYTE   W96
 BYTE   PATT
  POIN2 Label_1_016E61B2
 BYTE   PATT
  POIN2 Label_1_016E61BC
 BYTE   PATT
  POIN2 Label_1_016E61C3
// 058   ----------------------------------------
 BYTE   TIE  Fn2  v100
 BYTE   W96
// 059   ----------------------------------------
 BYTE   W72
 BYTE   EOT
 BYTE   W12
 BYTE   N12  Cs2
 BYTE   W12
// 060   ----------------------------------------
 BYTE   TIE  En2
 BYTE   W96
// 061   ----------------------------------------
 BYTE   W72
 BYTE   EOT
 BYTE   W24
// 062   ----------------------------------------
 BYTE   W96
// 063   ----------------------------------------
 BYTE   W96
 BYTE   FINE

//**************** Track 3 (Midi-Chn.2) ****************//

FE05ThreatApproachingFinalChapterSurfingKyogre_003:
// 000   ----------------------------------------
 BYTE   KEYSH   FE05ThreatApproachingFinalChapterSurfingKyogre_key+0
Label_2_016E6352:
 BYTE   VOICE   50
 BYTE   VOL   26*FE05ThreatApproachingFinalChapterSurfingKyogre_mvl/mxv
 BYTE   W96
// 001   ----------------------------------------
 BYTE   W96
// 002   ----------------------------------------
 BYTE   W96
// 003   ----------------------------------------
 BYTE   W96
// 004   ----------------------------------------
 BYTE   W96
// 005   ----------------------------------------
 BYTE   W96
// 006   ----------------------------------------
Label_2_016E635C:
 BYTE   N08  Bn1  v100
 BYTE   W08
 BYTE   Cn2
 BYTE   W08
 BYTE   Cs2
 BYTE   W08
 BYTE   Dn2
 BYTE   W08
 BYTE   Cs2
 BYTE   W08
 BYTE   Cn2
 BYTE   W08
 BYTE   Bn1
 BYTE   W08
 BYTE   Cn2
 BYTE   W08
 BYTE   Cs2
 BYTE   W08
 BYTE   Dn2
 BYTE   W08
 BYTE   Cs2
 BYTE   W08
 BYTE   Cn2
 BYTE   W08
 BYTE   PEND 
 BYTE   PATT
  POIN2 Label_2_016E635C
 BYTE   PATT
  POIN2 Label_2_016E635C
 BYTE   PATT
  POIN2 Label_2_016E635C
 BYTE   PATT
  POIN2 Label_2_016E635C
 BYTE   PATT
  POIN2 Label_2_016E635C
 BYTE   PATT
  POIN2 Label_2_016E635C
 BYTE   PATT
  POIN2 Label_2_016E635C
 BYTE   PATT
  POIN2 Label_2_016E635C
 BYTE   PATT
  POIN2 Label_2_016E635C
 BYTE   PATT
  POIN2 Label_2_016E635C
 BYTE   PATT
  POIN2 Label_2_016E635C
 BYTE   PATT
  POIN2 Label_2_016E635C
 BYTE   PATT
  POIN2 Label_2_016E635C
 BYTE   PATT
  POIN2 Label_2_016E635C
 BYTE   PATT
  POIN2 Label_2_016E635C
 BYTE   PATT
  POIN2 Label_2_016E635C
 BYTE   PATT
  POIN2 Label_2_016E635C
 BYTE   PATT
  POIN2 Label_2_016E635C
 BYTE   PATT
  POIN2 Label_2_016E635C
 BYTE   PATT
  POIN2 Label_2_016E635C
 BYTE   PATT
  POIN2 Label_2_016E635C
 BYTE   PATT
  POIN2 Label_2_016E635C
 BYTE   PATT
  POIN2 Label_2_016E635C
 BYTE   PATT
  POIN2 Label_2_016E635C
 BYTE   PATT
  POIN2 Label_2_016E635C
 BYTE   PATT
  POIN2 Label_2_016E635C
// 007   ----------------------------------------
 BYTE   N08  Bn1  v100
 BYTE   W08
 BYTE   Cn2
 BYTE   W08
 BYTE   Cs2
 BYTE   W08
 BYTE   Dn2
 BYTE   W08
 BYTE   Cs2
 BYTE   W08
 BYTE   Cn2
 BYTE   W08
 BYTE   Bn1
 BYTE   W08
 BYTE   Cn2
 BYTE   W08
 BYTE   Cs2
 BYTE   W08
 BYTE   Dn2
 BYTE   W08
 BYTE   Cs2
 BYTE   W08
 BYTE   Cn2
 BYTE   W02
 BYTE   GoTo
  POIN2 Label_2_016E6352
// 008   ----------------------------------------
 BYTE   W06
 BYTE   W96
// 009   ----------------------------------------
 BYTE   W96
// 010   ----------------------------------------
 BYTE   W96
// 011   ----------------------------------------
 BYTE   W96
// 012   ----------------------------------------
 BYTE   W96
// 013   ----------------------------------------
 BYTE   W96
 BYTE   PATT
  POIN2 Label_2_016E635C
 BYTE   PATT
  POIN2 Label_2_016E635C
 BYTE   PATT
  POIN2 Label_2_016E635C
 BYTE   PATT
  POIN2 Label_2_016E635C
 BYTE   PATT
  POIN2 Label_2_016E635C
 BYTE   PATT
  POIN2 Label_2_016E635C
 BYTE   PATT
  POIN2 Label_2_016E635C
 BYTE   PATT
  POIN2 Label_2_016E635C
 BYTE   PATT
  POIN2 Label_2_016E635C
 BYTE   PATT
  POIN2 Label_2_016E635C
 BYTE   PATT
  POIN2 Label_2_016E635C
 BYTE   PATT
  POIN2 Label_2_016E635C
 BYTE   PATT
  POIN2 Label_2_016E635C
 BYTE   PATT
  POIN2 Label_2_016E635C
 BYTE   PATT
  POIN2 Label_2_016E635C
 BYTE   PATT
  POIN2 Label_2_016E635C
 BYTE   PATT
  POIN2 Label_2_016E635C
 BYTE   PATT
  POIN2 Label_2_016E635C
 BYTE   PATT
  POIN2 Label_2_016E635C
 BYTE   PATT
  POIN2 Label_2_016E635C
 BYTE   PATT
  POIN2 Label_2_016E635C
 BYTE   PATT
  POIN2 Label_2_016E635C
 BYTE   PATT
  POIN2 Label_2_016E635C
 BYTE   PATT
  POIN2 Label_2_016E635C
 BYTE   PATT
  POIN2 Label_2_016E635C
 BYTE   PATT
  POIN2 Label_2_016E635C
 BYTE   PATT
  POIN2 Label_2_016E635C
 BYTE   PATT
  POIN2 Label_2_016E635C
 BYTE   FINE

//**************** Track 4 (Midi-Chn.3) ****************//

FE05ThreatApproachingFinalChapterSurfingKyogre_004:
// 000   ----------------------------------------
 BYTE   KEYSH   FE05ThreatApproachingFinalChapterSurfingKyogre_key+0
Label_3_55883A:
 BYTE   VOICE   58
 BYTE   VOL   50*FE05ThreatApproachingFinalChapterSurfingKyogre_mvl/mxv
 BYTE   N84  Bn0  v100
 BYTE   W96
// 001   ----------------------------------------
 BYTE   N84
 BYTE   W96
// 002   ----------------------------------------
 BYTE   TIE
 BYTE   W96
// 003   ----------------------------------------
 BYTE   W72
 BYTE   EOT
 BYTE   W24
// 004   ----------------------------------------
 BYTE   N84
 BYTE   W96
// 005   ----------------------------------------
 BYTE   N84
 BYTE   W96
// 006   ----------------------------------------
 BYTE   TIE
 BYTE   W96
// 007   ----------------------------------------
 BYTE   W72
 BYTE   EOT
 BYTE   W24
// 008   ----------------------------------------
 BYTE   W96
// 009   ----------------------------------------
 BYTE   W96
// 010   ----------------------------------------
 BYTE   W96
// 011   ----------------------------------------
 BYTE   W96
// 012   ----------------------------------------
 BYTE   W96
// 013   ----------------------------------------
 BYTE   W96
// 014   ----------------------------------------
 BYTE   W96
// 015   ----------------------------------------
 BYTE   W96
// 016   ----------------------------------------
 BYTE   W96
// 017   ----------------------------------------
 BYTE   W96
// 018   ----------------------------------------
 BYTE   W96
// 019   ----------------------------------------
 BYTE   W96
// 020   ----------------------------------------
 BYTE   W96
// 021   ----------------------------------------
 BYTE   W96
// 022   ----------------------------------------
 BYTE   W96
// 023   ----------------------------------------
 BYTE   W96
// 024   ----------------------------------------
 BYTE   N96
 BYTE   W96
// 025   ----------------------------------------
Label_3_558864:
 BYTE   N48  Cs1  v100
 BYTE   W48
 BYTE   N24  En1
 BYTE   W24
 BYTE   Cs1
 BYTE   W24
 BYTE   PEND 
// 026   ----------------------------------------
Label_3_55886E:
 BYTE   N48  Dn1  v100
 BYTE   W48
 BYTE   En1
 BYTE   W48
 BYTE   PEND 
// 027   ----------------------------------------
 BYTE   N96  Fs1
 BYTE   W96
// 028   ----------------------------------------
 BYTE   TIE  Fn1
 BYTE   W96
// 029   ----------------------------------------
 BYTE   W72
 BYTE   EOT
 BYTE   W24
// 030   ----------------------------------------
 BYTE   TIE  En1
 BYTE   W96
// 031   ----------------------------------------
 BYTE   W72
 BYTE   EOT
 BYTE   W24
// 032   ----------------------------------------
 BYTE   W96
// 033   ----------------------------------------
 BYTE   W90
 BYTE   GoTo
  POIN2 Label_3_55883A
// 034   ----------------------------------------
 BYTE   W06
 BYTE   N84  Bn0  v100
 BYTE   W96
// 035   ----------------------------------------
 BYTE   N84
 BYTE   W96
// 036   ----------------------------------------
 BYTE   TIE
 BYTE   W96
// 037   ----------------------------------------
 BYTE   W72
 BYTE   EOT
 BYTE   W24
// 038   ----------------------------------------
 BYTE   N84
 BYTE   W96
// 039   ----------------------------------------
 BYTE   N84
 BYTE   W96
// 040   ----------------------------------------
 BYTE   TIE
 BYTE   W96
// 041   ----------------------------------------
 BYTE   W72
 BYTE   EOT
 BYTE   W24
// 042   ----------------------------------------
 BYTE   W96
// 043   ----------------------------------------
 BYTE   W96
// 044   ----------------------------------------
 BYTE   W96
// 045   ----------------------------------------
 BYTE   W96
// 046   ----------------------------------------
 BYTE   W96
// 047   ----------------------------------------
 BYTE   W96
// 048   ----------------------------------------
 BYTE   W96
// 049   ----------------------------------------
 BYTE   W96
// 050   ----------------------------------------
 BYTE   W96
// 051   ----------------------------------------
 BYTE   W96
// 052   ----------------------------------------
 BYTE   W96
// 053   ----------------------------------------
 BYTE   W96
// 054   ----------------------------------------
 BYTE   W96
// 055   ----------------------------------------
 BYTE   W96
// 056   ----------------------------------------
 BYTE   W96
// 057   ----------------------------------------
 BYTE   W96
// 058   ----------------------------------------
 BYTE   N96
 BYTE   W96
 BYTE   PATT
  POIN2 Label_3_558864
 BYTE   PATT
  POIN2 Label_3_55886E
// 059   ----------------------------------------
 BYTE   N96  Fs1  v100
 BYTE   W96
// 060   ----------------------------------------
 BYTE   TIE  Fn1
 BYTE   W96
// 061   ----------------------------------------
 BYTE   W72
 BYTE   EOT
 BYTE   W24
// 062   ----------------------------------------
 BYTE   TIE  En1
 BYTE   W96
// 063   ----------------------------------------
 BYTE   W72
 BYTE   EOT
 BYTE   W24
// 064   ----------------------------------------
 BYTE   W96
// 065   ----------------------------------------
 BYTE   W96
 BYTE   FINE

//**************** Track 5 (Midi-Chn.4) ****************//

FE05ThreatApproachingFinalChapterSurfingKyogre_005:
// 000   ----------------------------------------
 BYTE   KEYSH   FE05ThreatApproachingFinalChapterSurfingKyogre_key+0
Label_4_55891E:
 BYTE   VOICE   58
 BYTE   VOL   59*FE05ThreatApproachingFinalChapterSurfingKyogre_mvl/mxv
 BYTE   W96
// 001   ----------------------------------------
 BYTE   W96
// 002   ----------------------------------------
 BYTE   W96
// 003   ----------------------------------------
 BYTE   W96
// 004   ----------------------------------------
 BYTE   W96
// 005   ----------------------------------------
 BYTE   W96
// 006   ----------------------------------------
 BYTE   W96
// 007   ----------------------------------------
 BYTE   W96
// 008   ----------------------------------------
Label_4_55892A:
 BYTE   N36  Bn0  v100
 BYTE   W48
 BYTE   N36
 BYTE   W48
 BYTE   PEND 
 BYTE   PATT
  POIN2 Label_4_55892A
 BYTE   PATT
  POIN2 Label_4_55892A
 BYTE   PATT
  POIN2 Label_4_55892A
 BYTE   PATT
  POIN2 Label_4_55892A
 BYTE   PATT
  POIN2 Label_4_55892A
 BYTE   PATT
  POIN2 Label_4_55892A
 BYTE   PATT
  POIN2 Label_4_55892A
 BYTE   PATT
  POIN2 Label_4_55892A
 BYTE   PATT
  POIN2 Label_4_55892A
 BYTE   PATT
  POIN2 Label_4_55892A
 BYTE   PATT
  POIN2 Label_4_55892A
 BYTE   PATT
  POIN2 Label_4_55892A
 BYTE   PATT
  POIN2 Label_4_55892A
 BYTE   PATT
  POIN2 Label_4_55892A
 BYTE   PATT
  POIN2 Label_4_55892A
 BYTE   PATT
  POIN2 Label_4_55892A
 BYTE   PATT
  POIN2 Label_4_55892A
 BYTE   PATT
  POIN2 Label_4_55892A
 BYTE   PATT
  POIN2 Label_4_55892A
 BYTE   PATT
  POIN2 Label_4_55892A
 BYTE   PATT
  POIN2 Label_4_55892A
 BYTE   PATT
  POIN2 Label_4_55892A
 BYTE   PATT
  POIN2 Label_4_55892A
 BYTE   PATT
  POIN2 Label_4_55892A
// 009   ----------------------------------------
 BYTE   N36  Bn0  v100
 BYTE   W48
 BYTE   N36
 BYTE   W42
 BYTE   GoTo
  POIN2 Label_4_55891E
// 010   ----------------------------------------
 BYTE   W06
 BYTE   W96
// 011   ----------------------------------------
 BYTE   W96
// 012   ----------------------------------------
 BYTE   W96
// 013   ----------------------------------------
 BYTE   W96
// 014   ----------------------------------------
 BYTE   W96
// 015   ----------------------------------------
 BYTE   W96
// 016   ----------------------------------------
 BYTE   W96
// 017   ----------------------------------------
 BYTE   W96
 BYTE   PATT
  POIN2 Label_4_55892A
 BYTE   PATT
  POIN2 Label_4_55892A
 BYTE   PATT
  POIN2 Label_4_55892A
 BYTE   PATT
  POIN2 Label_4_55892A
 BYTE   PATT
  POIN2 Label_4_55892A
 BYTE   PATT
  POIN2 Label_4_55892A
 BYTE   PATT
  POIN2 Label_4_55892A
 BYTE   PATT
  POIN2 Label_4_55892A
 BYTE   PATT
  POIN2 Label_4_55892A
 BYTE   PATT
  POIN2 Label_4_55892A
 BYTE   PATT
  POIN2 Label_4_55892A
 BYTE   PATT
  POIN2 Label_4_55892A
 BYTE   PATT
  POIN2 Label_4_55892A
 BYTE   PATT
  POIN2 Label_4_55892A
 BYTE   PATT
  POIN2 Label_4_55892A
 BYTE   PATT
  POIN2 Label_4_55892A
 BYTE   PATT
  POIN2 Label_4_55892A
 BYTE   PATT
  POIN2 Label_4_55892A
 BYTE   PATT
  POIN2 Label_4_55892A
 BYTE   PATT
  POIN2 Label_4_55892A
 BYTE   PATT
  POIN2 Label_4_55892A
 BYTE   PATT
  POIN2 Label_4_55892A
 BYTE   PATT
  POIN2 Label_4_55892A
 BYTE   PATT
  POIN2 Label_4_55892A
 BYTE   PATT
  POIN2 Label_4_55892A
 BYTE   PATT
  POIN2 Label_4_55892A
 BYTE   FINE

//**************** Track 6 (Midi-Chn.5) ****************//

FE05ThreatApproachingFinalChapterSurfingKyogre_006:
// 000   ----------------------------------------
 BYTE   KEYSH   FE05ThreatApproachingFinalChapterSurfingKyogre_key+0
Label_5_55908A:
 BYTE   VOICE   47
 BYTE   VOL   50*FE05ThreatApproachingFinalChapterSurfingKyogre_mvl/mxv
 BYTE   W96
// 001   ----------------------------------------
Label_5_55908F:
 BYTE   W72
 BYTE   N08  Gn2  v100
 BYTE   W08
 BYTE   N08
 BYTE   W08
 BYTE   N08
 BYTE   W08
 BYTE   PEND 
// 002   ----------------------------------------
 BYTE   W96
 BYTE   PATT
  POIN2 Label_5_55908F
// 003   ----------------------------------------
 BYTE   W96
 BYTE   PATT
  POIN2 Label_5_55908F
// 004   ----------------------------------------
 BYTE   W96
 BYTE   PATT
  POIN2 Label_5_55908F
// 005   ----------------------------------------
 BYTE   W96
 BYTE   PATT
  POIN2 Label_5_55908F
// 006   ----------------------------------------
 BYTE   W96
 BYTE   PATT
  POIN2 Label_5_55908F
// 007   ----------------------------------------
 BYTE   W96
 BYTE   PATT
  POIN2 Label_5_55908F
// 008   ----------------------------------------
 BYTE   W96
 BYTE   PATT
  POIN2 Label_5_55908F
// 009   ----------------------------------------
 BYTE   W96
 BYTE   PATT
  POIN2 Label_5_55908F
// 010   ----------------------------------------
 BYTE   W96
 BYTE   PATT
  POIN2 Label_5_55908F
// 011   ----------------------------------------
 BYTE   W96
 BYTE   PATT
  POIN2 Label_5_55908F
// 012   ----------------------------------------
 BYTE   W96
 BYTE   PATT
  POIN2 Label_5_55908F
// 013   ----------------------------------------
 BYTE   W96
 BYTE   PATT
  POIN2 Label_5_55908F
// 014   ----------------------------------------
 BYTE   W96
 BYTE   PATT
  POIN2 Label_5_55908F
// 015   ----------------------------------------
 BYTE   W96
 BYTE   PATT
  POIN2 Label_5_55908F
// 016   ----------------------------------------
 BYTE   W96
 BYTE   PATT
  POIN2 Label_5_55908F
// 017   ----------------------------------------
 BYTE   W96
// 018   ----------------------------------------
 BYTE   W72
 BYTE   N08  Gn2  v100
 BYTE   W08
 BYTE   N08
 BYTE   W08
 BYTE   N08
 BYTE   W02
 BYTE   GoTo
  POIN2 Label_5_55908A
// 019   ----------------------------------------
 BYTE   W06
 BYTE   VOL   50*FE05ThreatApproachingFinalChapterSurfingKyogre_mvl/mxv
 BYTE   W96
 BYTE   PATT
  POIN2 Label_5_55908F
// 020   ----------------------------------------
 BYTE   W96
 BYTE   PATT
  POIN2 Label_5_55908F
// 021   ----------------------------------------
 BYTE   W96
 BYTE   PATT
  POIN2 Label_5_55908F
// 022   ----------------------------------------
 BYTE   W96
 BYTE   PATT
  POIN2 Label_5_55908F
// 023   ----------------------------------------
 BYTE   W96
 BYTE   PATT
  POIN2 Label_5_55908F
// 024   ----------------------------------------
 BYTE   W96
 BYTE   PATT
  POIN2 Label_5_55908F
// 025   ----------------------------------------
 BYTE   W96
 BYTE   PATT
  POIN2 Label_5_55908F
// 026   ----------------------------------------
 BYTE   W96
 BYTE   PATT
  POIN2 Label_5_55908F
// 027   ----------------------------------------
 BYTE   W96
 BYTE   PATT
  POIN2 Label_5_55908F
// 028   ----------------------------------------
 BYTE   W96
 BYTE   PATT
  POIN2 Label_5_55908F
// 029   ----------------------------------------
 BYTE   W96
 BYTE   PATT
  POIN2 Label_5_55908F
// 030   ----------------------------------------
 BYTE   W96
 BYTE   PATT
  POIN2 Label_5_55908F
// 031   ----------------------------------------
 BYTE   W96
 BYTE   PATT
  POIN2 Label_5_55908F
// 032   ----------------------------------------
 BYTE   W96
 BYTE   PATT
  POIN2 Label_5_55908F
// 033   ----------------------------------------
 BYTE   W96
 BYTE   PATT
  POIN2 Label_5_55908F
// 034   ----------------------------------------
 BYTE   W96
 BYTE   PATT
  POIN2 Label_5_55908F
// 035   ----------------------------------------
 BYTE   W96
 BYTE   PATT
  POIN2 Label_5_55908F
 BYTE   FINE

//**************** Track 7 (Midi-Chn.6) ****************//

FE05ThreatApproachingFinalChapterSurfingKyogre_007:
// 000   ----------------------------------------
 BYTE   KEYSH   FE05ThreatApproachingFinalChapterSurfingKyogre_key+0
Label_6_016E65D6:
 BYTE   VOICE   47
 BYTE   VOL   61*FE05ThreatApproachingFinalChapterSurfingKyogre_mvl/mxv
 BYTE   W96
// 001   ----------------------------------------
Label_6_016E65DB:
 BYTE   W72
 BYTE   N08  Gn1  v100
 BYTE   W08
 BYTE   N08
 BYTE   W08
 BYTE   N08
 BYTE   W08
 BYTE   PEND 
// 002   ----------------------------------------
 BYTE   W96
 BYTE   PATT
  POIN2 Label_6_016E65DB
// 003   ----------------------------------------
 BYTE   W96
 BYTE   PATT
  POIN2 Label_6_016E65DB
// 004   ----------------------------------------
 BYTE   W96
 BYTE   PATT
  POIN2 Label_6_016E65DB
// 005   ----------------------------------------
 BYTE   W96
 BYTE   PATT
  POIN2 Label_6_016E65DB
// 006   ----------------------------------------
 BYTE   W96
 BYTE   PATT
  POIN2 Label_6_016E65DB
// 007   ----------------------------------------
 BYTE   W96
 BYTE   PATT
  POIN2 Label_6_016E65DB
// 008   ----------------------------------------
 BYTE   W96
 BYTE   PATT
  POIN2 Label_6_016E65DB
// 009   ----------------------------------------
 BYTE   W96
 BYTE   PATT
  POIN2 Label_6_016E65DB
// 010   ----------------------------------------
 BYTE   W96
 BYTE   PATT
  POIN2 Label_6_016E65DB
// 011   ----------------------------------------
 BYTE   W96
 BYTE   PATT
  POIN2 Label_6_016E65DB
// 012   ----------------------------------------
 BYTE   W96
 BYTE   PATT
  POIN2 Label_6_016E65DB
// 013   ----------------------------------------
 BYTE   W96
 BYTE   PATT
  POIN2 Label_6_016E65DB
// 014   ----------------------------------------
 BYTE   W96
 BYTE   PATT
  POIN2 Label_6_016E65DB
// 015   ----------------------------------------
 BYTE   W96
 BYTE   PATT
  POIN2 Label_6_016E65DB
// 016   ----------------------------------------
 BYTE   W96
 BYTE   PATT
  POIN2 Label_6_016E65DB
// 017   ----------------------------------------
 BYTE   W96
// 018   ----------------------------------------
 BYTE   W72
 BYTE   N08  Gn1  v100
 BYTE   W08
 BYTE   N08
 BYTE   W08
 BYTE   N08
 BYTE   W02
 BYTE   GoTo
  POIN2 Label_6_016E65D6
// 019   ----------------------------------------
 BYTE   W06
 BYTE   VOL   61*FE05ThreatApproachingFinalChapterSurfingKyogre_mvl/mxv
 BYTE   W96
 BYTE   PATT
  POIN2 Label_6_016E65DB
// 020   ----------------------------------------
 BYTE   W96
 BYTE   PATT
  POIN2 Label_6_016E65DB
// 021   ----------------------------------------
 BYTE   W96
 BYTE   PATT
  POIN2 Label_6_016E65DB
// 022   ----------------------------------------
 BYTE   W96
 BYTE   PATT
  POIN2 Label_6_016E65DB
// 023   ----------------------------------------
 BYTE   W96
 BYTE   PATT
  POIN2 Label_6_016E65DB
// 024   ----------------------------------------
 BYTE   W96
 BYTE   PATT
  POIN2 Label_6_016E65DB
// 025   ----------------------------------------
 BYTE   W96
 BYTE   PATT
  POIN2 Label_6_016E65DB
// 026   ----------------------------------------
 BYTE   W96
 BYTE   PATT
  POIN2 Label_6_016E65DB
// 027   ----------------------------------------
 BYTE   W96
 BYTE   PATT
  POIN2 Label_6_016E65DB
// 028   ----------------------------------------
 BYTE   W96
 BYTE   PATT
  POIN2 Label_6_016E65DB
// 029   ----------------------------------------
 BYTE   W96
 BYTE   PATT
  POIN2 Label_6_016E65DB
// 030   ----------------------------------------
 BYTE   W96
 BYTE   PATT
  POIN2 Label_6_016E65DB
// 031   ----------------------------------------
 BYTE   W96
 BYTE   PATT
  POIN2 Label_6_016E65DB
// 032   ----------------------------------------
 BYTE   W96
 BYTE   PATT
  POIN2 Label_6_016E65DB
// 033   ----------------------------------------
 BYTE   W96
 BYTE   PATT
  POIN2 Label_6_016E65DB
// 034   ----------------------------------------
 BYTE   W96
 BYTE   PATT
  POIN2 Label_6_016E65DB
// 035   ----------------------------------------
 BYTE   W96
 BYTE   PATT
  POIN2 Label_6_016E65DB
 BYTE   FINE

//**************** Track 8 (Midi-Chn.7) ****************//

FE05ThreatApproachingFinalChapterSurfingKyogre_008:
// 000   ----------------------------------------
 BYTE   KEYSH   FE05ThreatApproachingFinalChapterSurfingKyogre_key+0
Label_7_016E66BA:
 BYTE   VOICE   0
 BYTE   VOL   56*FE05ThreatApproachingFinalChapterSurfingKyogre_mvl/mxv
 BYTE   N06  Bn0  v100
 BYTE   N06  Dn1
 BYTE   W24
 BYTE   Bn0
 BYTE   W08
 BYTE   N06
 BYTE   W08
 BYTE   N06
 BYTE   W08
 BYTE   N06
 BYTE   N06  Dn1
 BYTE   W24
 BYTE   Bn0
 BYTE   W24
// 001   ----------------------------------------
Label_7_016E66D0:
 BYTE   N06  Bn0  v100
 BYTE   N06  Dn1
 BYTE   W24
 BYTE   Bn0
 BYTE   W24
 BYTE   N06
 BYTE   N06  Dn1
 BYTE   W24
 BYTE   Bn0
 BYTE   W24
 BYTE   PEND 
// 002   ----------------------------------------
Label_7_016E66DF:
 BYTE   N06  Bn0  v100
 BYTE   N06  Dn1
 BYTE   W24
 BYTE   Bn0
 BYTE   W24
 BYTE   N06
 BYTE   N06  Dn1
 BYTE   W24
 BYTE   Bn0
 BYTE   W08
 BYTE   N06
 BYTE   W08
 BYTE   N06
 BYTE   W08
 BYTE   PEND 
 BYTE   PATT
  POIN2 Label_7_016E66D0
// 003   ----------------------------------------
Label_7_016E66F7:
 BYTE   N06  Bn0  v100
 BYTE   N06  Dn1
 BYTE   W24
 BYTE   Bn0
 BYTE   W08
 BYTE   N06
 BYTE   W08
 BYTE   N06
 BYTE   W08
 BYTE   N06
 BYTE   N06  Dn1
 BYTE   W24
 BYTE   Bn0
 BYTE   W24
 BYTE   PEND 
 BYTE   PATT
  POIN2 Label_7_016E66D0
 BYTE   PATT
  POIN2 Label_7_016E66DF
 BYTE   PATT
  POIN2 Label_7_016E66D0
 BYTE   PATT
  POIN2 Label_7_016E66F7
 BYTE   PATT
  POIN2 Label_7_016E66D0
 BYTE   PATT
  POIN2 Label_7_016E66DF
 BYTE   PATT
  POIN2 Label_7_016E66D0
 BYTE   PATT
  POIN2 Label_7_016E66F7
 BYTE   PATT
  POIN2 Label_7_016E66D0
 BYTE   PATT
  POIN2 Label_7_016E66DF
 BYTE   PATT
  POIN2 Label_7_016E66D0
 BYTE   PATT
  POIN2 Label_7_016E66F7
 BYTE   PATT
  POIN2 Label_7_016E66D0
 BYTE   PATT
  POIN2 Label_7_016E66DF
 BYTE   PATT
  POIN2 Label_7_016E66D0
 BYTE   PATT
  POIN2 Label_7_016E66F7
 BYTE   PATT
  POIN2 Label_7_016E66D0
 BYTE   PATT
  POIN2 Label_7_016E66DF
 BYTE   PATT
  POIN2 Label_7_016E66D0
 BYTE   PATT
  POIN2 Label_7_016E66F7
 BYTE   PATT
  POIN2 Label_7_016E66D0
 BYTE   PATT
  POIN2 Label_7_016E66DF
 BYTE   PATT
  POIN2 Label_7_016E66D0
 BYTE   PATT
  POIN2 Label_7_016E66F7
 BYTE   PATT
  POIN2 Label_7_016E66D0
 BYTE   PATT
  POIN2 Label_7_016E66DF
 BYTE   PATT
  POIN2 Label_7_016E66D0
 BYTE   PATT
  POIN2 Label_7_016E66F7
// 004   ----------------------------------------
 BYTE   N06  Bn0  v100
 BYTE   N06  Dn1
 BYTE   W24
 BYTE   Bn0
 BYTE   W24
 BYTE   N06
 BYTE   N06  Dn1
 BYTE   W24
 BYTE   Bn0
 BYTE   W18
 BYTE   GoTo
  POIN2 Label_7_016E66BA
// 005   ----------------------------------------
 BYTE   W06
 BYTE   VOL   56*FE05ThreatApproachingFinalChapterSurfingKyogre_mvl/mxv
 BYTE   N06  Bn0  v100
 BYTE   N06  Dn1
 BYTE   W24
 BYTE   Bn0
 BYTE   W08
 BYTE   N06
 BYTE   W08
 BYTE   N06
 BYTE   W08
 BYTE   N06
 BYTE   N06  Dn1
 BYTE   W24
 BYTE   Bn0
 BYTE   W24
 BYTE   PATT
  POIN2 Label_7_016E66D0
 BYTE   PATT
  POIN2 Label_7_016E66DF
 BYTE   PATT
  POIN2 Label_7_016E66D0
 BYTE   PATT
  POIN2 Label_7_016E66F7
 BYTE   PATT
  POIN2 Label_7_016E66D0
 BYTE   PATT
  POIN2 Label_7_016E66DF
 BYTE   PATT
  POIN2 Label_7_016E66D0
 BYTE   PATT
  POIN2 Label_7_016E66F7
 BYTE   PATT
  POIN2 Label_7_016E66D0
 BYTE   PATT
  POIN2 Label_7_016E66DF
 BYTE   PATT
  POIN2 Label_7_016E66D0
 BYTE   PATT
  POIN2 Label_7_016E66F7
 BYTE   PATT
  POIN2 Label_7_016E66D0
 BYTE   PATT
  POIN2 Label_7_016E66DF
 BYTE   PATT
  POIN2 Label_7_016E66D0
 BYTE   PATT
  POIN2 Label_7_016E66F7
 BYTE   PATT
  POIN2 Label_7_016E66D0
 BYTE   PATT
  POIN2 Label_7_016E66DF
 BYTE   PATT
  POIN2 Label_7_016E66D0
 BYTE   PATT
  POIN2 Label_7_016E66F7
 BYTE   PATT
  POIN2 Label_7_016E66D0
 BYTE   PATT
  POIN2 Label_7_016E66DF
 BYTE   PATT
  POIN2 Label_7_016E66D0
 BYTE   PATT
  POIN2 Label_7_016E66F7
 BYTE   PATT
  POIN2 Label_7_016E66D0
 BYTE   PATT
  POIN2 Label_7_016E66DF
 BYTE   PATT
  POIN2 Label_7_016E66D0
 BYTE   PATT
  POIN2 Label_7_016E66F7
 BYTE   PATT
  POIN2 Label_7_016E66D0
 BYTE   PATT
  POIN2 Label_7_016E66DF
 BYTE   PATT
  POIN2 Label_7_016E66D0
 BYTE   PATT
  POIN2 Label_7_016E66F7
 BYTE   PATT
  POIN2 Label_7_016E66D0
 BYTE   FINE

//******************************************************//
	ALIGN 4

FE05ThreatApproachingFinalChapterSurfingKyogre:
	BYTE	8	// NumTrks
	BYTE	0	// NumBlks
	BYTE	FE05ThreatApproachingFinalChapterSurfingKyogre_pri	// Priority
	BYTE	FE05ThreatApproachingFinalChapterSurfingKyogre_rev	// Reverb.
    
	POIN2	FE05ThreatApproachingFinalChapterSurfingKyogre_grp
    
	POIN2	FE05ThreatApproachingFinalChapterSurfingKyogre_001
	POIN2	FE05ThreatApproachingFinalChapterSurfingKyogre_002
	POIN2	FE05ThreatApproachingFinalChapterSurfingKyogre_003
	POIN2	FE05ThreatApproachingFinalChapterSurfingKyogre_004
	POIN2	FE05ThreatApproachingFinalChapterSurfingKyogre_005
	POIN2	FE05ThreatApproachingFinalChapterSurfingKyogre_006
	POIN2	FE05ThreatApproachingFinalChapterSurfingKyogre_007
	POIN2	FE05ThreatApproachingFinalChapterSurfingKyogre_008

	
