//Event file generated from Sappy .s format.
	#include "MPlayDef.event"

	#define	FE05NearVictoryDerTheVaporeon_grp  voicegroup000
	#define	FE05NearVictoryDerTheVaporeon_pri  0
	#define	FE05NearVictoryDerTheVaporeon_rev  0
	#define	FE05NearVictoryDerTheVaporeon_mvl  127
	#define	FE05NearVictoryDerTheVaporeon_key  0
	#define	FE05NearVictoryDerTheVaporeon_tbs  1
	#define	FE05NearVictoryDerTheVaporeon_exg  0
	#define	FE05NearVictoryDerTheVaporeon_cmp  1

	// .rodata
	//	FE05NearVictoryDerTheVaporeon
	ALIGN 4

//**************** Track 1 (Midi-Chn.1) ****************//

FE05NearVictoryDerTheVaporeon_1:
	BYTE	KEYSH   FE05NearVictoryDerTheVaporeon_key+0
// 000   ----------------------------------------
	BYTE	TEMPO   65*FE05NearVictoryDerTheVaporeon_tbs/2
	BYTE		VOICE   110
	BYTE		VOL     63*FE05NearVictoryDerTheVaporeon_mvl/mxv
	BYTE	W06
	BYTE		VOICE   110
	BYTE		PAN     c_v+14
	BYTE		        c_v-14
	BYTE	W12
	BYTE		N03     Fs3   v108
	BYTE	W04
	BYTE		N01     Fs3   v104
	BYTE	W04
	BYTE		        Bn3 
	BYTE	W04
	BYTE		N20     En4   v116
	BYTE	W24
	BYTE		N04     Cs4   v108
	BYTE	W09
	BYTE		N01     Fs4   v104
	BYTE	W03
	BYTE		N32     Gs4   v116
	BYTE	W30
// 001   ----------------------------------------
	BYTE	W06
FE05NearVictoryDerTheVaporeon_1_B1:
	BYTE	W90
// 002   ----------------------------------------
	BYTE	W96
// 003   ----------------------------------------
	BYTE	W96
// 004   ----------------------------------------
	BYTE	W96
// 005   ----------------------------------------
	BYTE	W96
// 006   ----------------------------------------
	BYTE	W96
// 007   ----------------------------------------
	BYTE	W96
// 008   ----------------------------------------
	BYTE	W96
// 009   ----------------------------------------
	BYTE	W96
// 010   ----------------------------------------
	BYTE	W96
// 011   ----------------------------------------
	BYTE	W06
	BYTE	GoTo
	 POIN2	FE05NearVictoryDerTheVaporeon_1_B1
FE05NearVictoryDerTheVaporeon_1_B2:
	BYTE	FINE

//**************** Track 2 (Midi-Chn.2) ****************//

FE05NearVictoryDerTheVaporeon_2:
	BYTE	KEYSH   FE05NearVictoryDerTheVaporeon_key+0
// 000   ----------------------------------------
	BYTE		VOL     63*FE05NearVictoryDerTheVaporeon_mvl/mxv
	BYTE	W54
	BYTE		VOICE   110
	BYTE		PAN     c_v+0
	BYTE		N02     As2   v072
	BYTE	W04
	BYTE		        Fs2   v084
	BYTE	W04
	BYTE		        As2   v076
	BYTE	W04
	BYTE		        Cs3   v084
	BYTE	W04
	BYTE		        As2   v072
	BYTE	W04
	BYTE		        Cs3   v088
	BYTE	W04
	BYTE		        Fn3   v060
	BYTE	W04
	BYTE		        Cs3   v084
	BYTE	W04
	BYTE		        Fn3 
	BYTE	W04
	BYTE		        Gs3   v072
	BYTE	W04
	BYTE		        Fn3   v076
	BYTE	W02
// 001   ----------------------------------------
	BYTE	W02
	BYTE		        Gs3   v084
	BYTE	W04
FE05NearVictoryDerTheVaporeon_2_B1:
	BYTE		N04     Cs4   v096
	BYTE	W48
	BYTE		VOICE   110
	BYTE		PAN     c_v+14
	BYTE	W12
	BYTE		N02     As2   v116
	BYTE	W04
	BYTE		        Ds3   v104
	BYTE	W04
	BYTE		        Gn3 
	BYTE	W04
	BYTE		N21     As3   v108
	BYTE	W18
// 002   ----------------------------------------
	BYTE	W66
	BYTE		N02     As2   v116
	BYTE	W04
	BYTE		        Ds3   v104
	BYTE	W04
	BYTE		        Gn3 
	BYTE	W04
	BYTE		N10     As3   v116
	BYTE	W12
	BYTE		N02     Cn4   v108
	BYTE	W06
// 003   ----------------------------------------
	BYTE		        As3 
	BYTE	W06
	BYTE		VOICE   110
	BYTE		PAN     c_v+25
	BYTE		N08     Cn3   v116
	BYTE	W12
	BYTE		        Gs2 
	BYTE	W12
	BYTE		        Cn3   v112
	BYTE	W12
	BYTE		        Gs3   v116
	BYTE	W12
	BYTE		N32     Gs3   v120
	BYTE	W42
// 004   ----------------------------------------
	BYTE	W06
	BYTE		N17     Fn3   v124
	BYTE	W24
	BYTE		        Cs3   v120
	BYTE	W24
	BYTE		N17   
	BYTE	W24
	BYTE		        Cs3   v124
	BYTE	W18
// 005   ----------------------------------------
	BYTE	W07
	BYTE		N05     Gs0   v096
	BYTE	W11
	BYTE		N06     Gs0   v092
	BYTE	W12
	BYTE		N07     Gs0   v088
	BYTE	W12
	BYTE		N06     Gs0   v084
	BYTE	W12
	BYTE		N04     Gs0   v092
	BYTE	W12
	BYTE		        Gs0   v088
	BYTE	W12
	BYTE		N05   
	BYTE	W12
	BYTE		N07     Gs0   v080
	BYTE	W06
// 006   ----------------------------------------
	BYTE	W06
	BYTE		N06     Gs0   v088
	BYTE	W12
	BYTE		        Gs0   v084
	BYTE	W12
	BYTE		N05   
	BYTE	W12
	BYTE		N07     Gs0   v076
	BYTE	W12
	BYTE		N07   
	BYTE	W12
	BYTE		        Gs0   v068
	BYTE	W30
// 007   ----------------------------------------
FE05NearVictoryDerTheVaporeon_2_007:
	BYTE	W07
	BYTE		N03     Fs1   v108
	BYTE	W24
	BYTE		N02     Fn1 
	BYTE	W24
	BYTE		N03     As1   v100
	BYTE	W24
	BYTE		        Bn1   v108
	BYTE	W17
	BYTE	PEND
// 008   ----------------------------------------
	BYTE	W07
	BYTE		N44     Cn2   v096
	BYTE	W48
	BYTE		N40     Cs2 
	BYTE	W40
	BYTE	W01
// 009   ----------------------------------------
	BYTE	PATT
	 POIN2	FE05NearVictoryDerTheVaporeon_2_007
// 010   ----------------------------------------
	BYTE	W07
	BYTE		N44     Cn2   v096
	BYTE	W48
	BYTE		N44   
	BYTE	W40
	BYTE	W01
// 011   ----------------------------------------
	BYTE	W06
	BYTE	GoTo
	 POIN2	FE05NearVictoryDerTheVaporeon_2_B1
FE05NearVictoryDerTheVaporeon_2_B2:
	BYTE	FINE

//**************** Track 3 (Midi-Chn.3) ****************//

FE05NearVictoryDerTheVaporeon_3:
	BYTE	KEYSH   FE05NearVictoryDerTheVaporeon_key+0
// 000   ----------------------------------------
	BYTE		VOICE   4
	BYTE		VOL     63*FE05NearVictoryDerTheVaporeon_mvl/mxv
	BYTE	W06
	BYTE		VOICE   4
	BYTE		PAN     c_v+0
	BYTE		N04     Gs0   v124
	BYTE	W12
	BYTE		        Gs0   v116
	BYTE	W12
	BYTE		N04   
	BYTE	W12
	BYTE		N04   
	BYTE	W12
	BYTE		N04   
	BYTE	W12
	BYTE		N04   
	BYTE	W12
	BYTE		        Gs0   v124
	BYTE	W12
	BYTE		N04   
	BYTE	W06
// 001   ----------------------------------------
	BYTE	W06
FE05NearVictoryDerTheVaporeon_3_B1:
	BYTE		N04     Gs1   v124
	BYTE	W12
	BYTE		        Gs1   v092
	BYTE	W12
	BYTE		N04   
	BYTE	W12
	BYTE		N03     Gs1   v104
	BYTE	W06
	BYTE		N04     Ds1   v112
	BYTE	W06
	BYTE		        Gs1   v124
	BYTE	W12
	BYTE		        Gs1   v092
	BYTE	W12
	BYTE		N04   
	BYTE	W12
	BYTE		N03     Gs1   v104
	BYTE	W06
// 002   ----------------------------------------
FE05NearVictoryDerTheVaporeon_3_002:
	BYTE		N04     Ds1   v112
	BYTE	W06
	BYTE		        Gs1   v124
	BYTE	W12
	BYTE		        Gs1   v092
	BYTE	W12
	BYTE		N04   
	BYTE	W12
	BYTE		N03     Gs1   v104
	BYTE	W06
	BYTE		N04     Ds1   v112
	BYTE	W06
	BYTE		        Gs1   v124
	BYTE	W12
	BYTE		        Gs1   v092
	BYTE	W12
	BYTE		N04   
	BYTE	W12
	BYTE		N03     Gs1   v104
	BYTE	W06
	BYTE	PEND
// 003   ----------------------------------------
	BYTE	PATT
	 POIN2	FE05NearVictoryDerTheVaporeon_3_002
// 004   ----------------------------------------
	BYTE		N04     Ds1   v112
	BYTE	W06
	BYTE		        Gs1   v124
	BYTE	W12
	BYTE		        Gs1   v092
	BYTE	W12
	BYTE		N04   
	BYTE	W12
	BYTE		N03     Gs1   v104
	BYTE	W06
	BYTE		N04     Ds1   v112
	BYTE	W06
	BYTE		N03     Gs1   v116
	BYTE	W06
	BYTE		N04     Ds1   v084
	BYTE	W06
	BYTE		N03     Gs1   v092
	BYTE	W06
	BYTE		N04     Ds1 
	BYTE	W06
	BYTE		N03     Gs1   v096
	BYTE	W06
	BYTE		N04     Ds1   v104
	BYTE	W06
	BYTE		N03     Gs1   v112
	BYTE	W06
// 005   ----------------------------------------
	BYTE		N04     Ds1   v124
	BYTE	W06
	BYTE		VOICE   57
	BYTE	W01
	BYTE		PAN     c_v+3
	BYTE		N32     Gs2   v080
	BYTE	W48
	BYTE		        Gs2   v088
	BYTE	W40
	BYTE	W01
// 006   ----------------------------------------
	BYTE	W07
	BYTE		        Gs2   v052
	BYTE	W60
	BYTE	W03
	BYTE		N30     En3   v112
	BYTE	W24
	BYTE	W02
// 007   ----------------------------------------
FE05NearVictoryDerTheVaporeon_3_007:
	BYTE	W07
	BYTE		N03     As2   v104
	BYTE	W24
	BYTE		        Gs2   v108
	BYTE	W24
	BYTE		N04     Cs3   v100
	BYTE	W24
	BYTE		N03     Ds3   v112
	BYTE	W17
	BYTE	PEND
// 008   ----------------------------------------
	BYTE	W07
	BYTE		N44     Ds3   v096
	BYTE	W48
	BYTE		N36     Fn3 
	BYTE	W40
	BYTE	W01
// 009   ----------------------------------------
	BYTE	PATT
	 POIN2	FE05NearVictoryDerTheVaporeon_3_007
// 010   ----------------------------------------
	BYTE	W07
	BYTE		N42     Fn3   v096
	BYTE	W48
	BYTE		N42   
	BYTE	W40
	BYTE	W01
// 011   ----------------------------------------
	BYTE	W06
	BYTE	GoTo
	 POIN2	FE05NearVictoryDerTheVaporeon_3_B1
FE05NearVictoryDerTheVaporeon_3_B2:
	BYTE	FINE

//**************** Track 4 (Midi-Chn.4) ****************//

FE05NearVictoryDerTheVaporeon_4:
	BYTE	KEYSH   FE05NearVictoryDerTheVaporeon_key+0
// 000   ----------------------------------------
	BYTE		VOL     63*FE05NearVictoryDerTheVaporeon_mvl/mxv
	BYTE	W06
	BYTE		VOICE   110
	BYTE		PAN     c_v-14
	BYTE		N05     Gs2   v124
	BYTE	W12
	BYTE		        Gs2   v104
	BYTE	W12
	BYTE		N05   
	BYTE	W12
	BYTE		N05   
	BYTE	W12
	BYTE		VOICE   4
	BYTE		PAN     c_v+14
	BYTE		N01     Fs3   v088
	BYTE	W09
	BYTE		        As3   v068
	BYTE	W03
	BYTE		N32     Cn4   v104
	BYTE	W30
// 001   ----------------------------------------
	BYTE	W06
FE05NearVictoryDerTheVaporeon_4_B1:
	BYTE	W24
	BYTE		N02     Cs3   v092
	BYTE	W24
	BYTE		N42     Ds3   v088
	BYTE	W42
// 002   ----------------------------------------
	BYTE	W42
	BYTE		N03     Cs3 
	BYTE	W04
	BYTE		        Ds3   v084
	BYTE	W04
	BYTE		        Fn3   v072
	BYTE	W04
	BYTE		N30     Gn3   v068
	BYTE	W36
	BYTE		N05     Gn3   v080
	BYTE	W06
// 003   ----------------------------------------
	BYTE	W02
	BYTE		N01     Gn3   v068
	BYTE	W04
	BYTE		N32     Gs3   v076
	BYTE	W44
	BYTE		N02   
	BYTE	W04
	BYTE		N19     Cn4 
	BYTE	W24
	BYTE		N16     Gs3 
	BYTE	W18
// 004   ----------------------------------------
	BYTE	W06
	BYTE		N42     Cs3   v092
	BYTE	W48
	BYTE		N17   
	BYTE	W24
	BYTE		N14     Ds3 
	BYTE	W18
// 005   ----------------------------------------
	BYTE	W07
	BYTE		N02     Gs2   v124
	BYTE	W12
	BYTE		N03     Gs2   v092
	BYTE	W12
	BYTE		N03   
	BYTE	W12
	BYTE		        Gs2   v104
	BYTE	W06
	BYTE		N04     Ds2   v112
	BYTE	W06
	BYTE		N02     Gs2   v108
	BYTE	W12
	BYTE		N03     Gs2   v092
	BYTE	W12
	BYTE		N03   
	BYTE	W12
	BYTE		        Gs2   v104
	BYTE	W05
// 006   ----------------------------------------
	BYTE	W01
	BYTE		N04     Ds2   v112
	BYTE	W06
	BYTE		N02     Gs2   v108
	BYTE	W12
	BYTE		N03     Gs2   v092
	BYTE	W12
	BYTE		N03   
	BYTE	W12
	BYTE		        Gs2   v104
	BYTE	W06
	BYTE		N04     Ds2   v112
	BYTE	W06
	BYTE		N02     Gs2   v124
	BYTE	W12
	BYTE		N03     Gs2   v108
	BYTE	W12
	BYTE		N03   
	BYTE	W12
	BYTE		        Gs2   v120
	BYTE	W05
// 007   ----------------------------------------
	BYTE	W01
	BYTE		N02   
	BYTE	W03
	BYTE		        Ds2   v124
	BYTE	W04
	BYTE		N03     Cs3   v112
	BYTE	W24
	BYTE		N02     Cn3   v116
	BYTE	W24
	BYTE		N03     Fn3   v096
	BYTE	W24
	BYTE		N02     Fs3   v108
	BYTE	W16
// 008   ----------------------------------------
	BYTE	W08
	BYTE		N42     Gs3   v096
	BYTE	W48
	BYTE		N40   
	BYTE	W40
// 009   ----------------------------------------
	BYTE	W08
	BYTE		N03     Cs3   v112
	BYTE	W24
	BYTE		N02     Cn3   v116
	BYTE	W24
	BYTE		N03     Fn3   v096
	BYTE	W24
	BYTE		N02     Fs3   v108
	BYTE	W16
// 010   ----------------------------------------
	BYTE	W08
	BYTE		N44     As3   v096
	BYTE	W48
	BYTE		        An3 
	BYTE	W40
// 011   ----------------------------------------
	BYTE	W06
	BYTE	GoTo
	 POIN2	FE05NearVictoryDerTheVaporeon_4_B1
FE05NearVictoryDerTheVaporeon_4_B2:
	BYTE	FINE

//**************** Track 5 (Midi-Chn.5) ****************//

FE05NearVictoryDerTheVaporeon_5:
	BYTE	KEYSH   FE05NearVictoryDerTheVaporeon_key+0
// 000   ----------------------------------------
	BYTE		VOL     63*FE05NearVictoryDerTheVaporeon_mvl/mxv
	BYTE	W06
	BYTE		VOICE   62
	BYTE		PAN     c_v+14
	BYTE		        c_v-14
	BYTE	W12
	BYTE		N01     Cs3   v116
	BYTE	W04
	BYTE		        Cs3   v108
	BYTE	W04
	BYTE		        Fs3 
	BYTE	W04
	BYTE		N19     Bn3   v124
	BYTE	W24
	BYTE		N03     As3   v116
	BYTE	W09
	BYTE		N01     Cs4   v108
	BYTE	W03
	BYTE		N32     Ds4 
	BYTE	W30
// 001   ----------------------------------------
	BYTE	W06
FE05NearVictoryDerTheVaporeon_5_B1:
	BYTE	W48
	BYTE		N42     As2   v096
	BYTE	W42
// 002   ----------------------------------------
	BYTE	W54
	BYTE		N30     Ds3 
	BYTE	W36
	BYTE		N04     Ds3   v100
	BYTE	W06
// 003   ----------------------------------------
	BYTE	W06
	BYTE		VOICE   67
	BYTE		PAN     c_v+14
	BYTE		N07     Gs3   v116
	BYTE	W12
	BYTE		N06     Ds3 
	BYTE	W12
	BYTE		        Gs3 
	BYTE	W12
	BYTE		N07     Ds4 
	BYTE	W12
	BYTE		N28   
	BYTE	W36
	BYTE		N03     Cs4 
	BYTE	W06
// 004   ----------------------------------------
	BYTE		        Cn4 
	BYTE	W06
	BYTE		N17     Cs4 
	BYTE	W24
	BYTE		        Fn3 
	BYTE	W24
	BYTE		        Gs3 
	BYTE	W24
	BYTE		        As3 
	BYTE	W18
// 005   ----------------------------------------
	BYTE	W07
	BYTE		PAN     c_v-25
	BYTE		N28     Cn2   v080
	BYTE	W48
	BYTE		        Cs2   v084
	BYTE	W40
	BYTE	W01
// 006   ----------------------------------------
	BYTE	W07
	BYTE		        Cn2   v080
	BYTE	W48
	BYTE		N05     Cs2   v092
	BYTE	W06
	BYTE		N36     Fs2   v096
	BYTE	W32
	BYTE	W03
// 007   ----------------------------------------
	BYTE	W07
	BYTE		N02     As2   v116
	BYTE	W12
	BYTE		        As2   v108
	BYTE	W04
	BYTE		        Cn3 
	BYTE	W04
	BYTE		        Cs3 
	BYTE	W04
	BYTE		        Cn3 
	BYTE	W12
	BYTE		        Gs2 
	BYTE	W12
	BYTE		        Cs3   v116
	BYTE	W12
	BYTE		N03   
	BYTE	W04
	BYTE		        Ds3   v108
	BYTE	W04
	BYTE		        Fn3 
	BYTE	W04
	BYTE		N02     Ds3   v104
	BYTE	W12
	BYTE		N01     Fn3 
	BYTE	W05
// 008   ----------------------------------------
	BYTE	W01
	BYTE		N02     Fs3 
	BYTE	W06
	BYTE		N15     Gs3 
	BYTE	W24
	BYTE		        Ds3 
	BYTE	W24
	BYTE		N32     Fn3 
	BYTE	W40
	BYTE	W01
// 009   ----------------------------------------
	BYTE	W07
	BYTE		N02     As2   v116
	BYTE	W12
	BYTE		N03     As2   v112
	BYTE	W04
	BYTE		        Cn3   v108
	BYTE	W04
	BYTE		        Cs3   v104
	BYTE	W04
	BYTE		N02     Cn3   v100
	BYTE	W12
	BYTE		        Gs2   v112
	BYTE	W12
	BYTE		        Cs3   v120
	BYTE	W12
	BYTE		N03     Cs3   v112
	BYTE	W04
	BYTE		        Ds3 
	BYTE	W04
	BYTE		        Fn3   v104
	BYTE	W04
	BYTE		N02     Ds3 
	BYTE	W12
	BYTE		        Fn3 
	BYTE	W05
// 010   ----------------------------------------
	BYTE	W01
	BYTE		        Fs3 
	BYTE	W06
	BYTE		N32     Fn3   v108
	BYTE	W36
	BYTE		N01   
	BYTE	W04
	BYTE		N02     As3   v104
	BYTE	W04
	BYTE		N01     Cn4 
	BYTE	W04
	BYTE		N44     Fn4 
	BYTE	W40
	BYTE	W01
// 011   ----------------------------------------
	BYTE	W06
	BYTE	GoTo
	 POIN2	FE05NearVictoryDerTheVaporeon_5_B1
FE05NearVictoryDerTheVaporeon_5_B2:
	BYTE	FINE

//**************** Track 6 (Midi-Chn.6) ****************//

FE05NearVictoryDerTheVaporeon_6:
	BYTE	KEYSH   FE05NearVictoryDerTheVaporeon_key+0
// 000   ----------------------------------------
	BYTE		VOICE   57
	BYTE		VOL     63*FE05NearVictoryDerTheVaporeon_mvl/mxv
	BYTE	W06
	BYTE		VOICE   62
	BYTE		PAN     c_v+14
	BYTE		        c_v+14
	BYTE	W12
	BYTE		N03     Fs3   v108
	BYTE	W04
	BYTE		N01     Fs3   v104
	BYTE	W04
	BYTE		        Bn3 
	BYTE	W04
	BYTE		N20     En4   v116
	BYTE	W24
	BYTE		N04     Cs4   v108
	BYTE	W09
	BYTE		N01     Fs4   v104
	BYTE	W03
	BYTE		N32     Gs4   v116
	BYTE	W30
// 001   ----------------------------------------
	BYTE	W06
FE05NearVictoryDerTheVaporeon_6_B1:
	BYTE		N05     Cs2   v100
	BYTE	W12
	BYTE		N03     Cs2   v108
	BYTE	W12
	BYTE		        Cs2   v088
	BYTE	W12
	BYTE		N04     Cs2   v096
	BYTE	W12
	BYTE		        Cs2   v104
	BYTE	W12
	BYTE		        Cs2   v100
	BYTE	W12
	BYTE		N04   
	BYTE	W12
	BYTE		N02     Cs2   v096
	BYTE	W06
// 002   ----------------------------------------
	BYTE	W06
	BYTE		N03     Cs2   v104
	BYTE	W12
	BYTE		N02     Cs2   v100
	BYTE	W12
	BYTE		N04     Cs2   v096
	BYTE	W12
	BYTE		N04   
	BYTE	W12
	BYTE		N02     Cs2   v092
	BYTE	W12
	BYTE		        Cs2   v088
	BYTE	W12
	BYTE		N04   
	BYTE	W12
	BYTE		N11     Cs2   v092
	BYTE	W06
// 003   ----------------------------------------
	BYTE	W06
	BYTE		N06     Cn2   v088
	BYTE	W12
	BYTE		N05     Cn2   v092
	BYTE	W12
	BYTE		N05   
	BYTE	W12
	BYTE		N06     Cn2   v088
	BYTE	W12
	BYTE		N03   
	BYTE	W12
	BYTE		N08     Cn2   v096
	BYTE	W12
	BYTE		N07   
	BYTE	W12
	BYTE		N11     Cn2   v076
	BYTE	W06
// 004   ----------------------------------------
	BYTE	W06
	BYTE		N06     As1   v100
	BYTE	W12
	BYTE		N08     As1   v080
	BYTE	W12
	BYTE		N06     As1   v096
	BYTE	W12
	BYTE		N11     As1   v088
	BYTE	W12
	BYTE		N04     Ds2   v100
	BYTE	W12
	BYTE		N05     Ds2   v084
	BYTE	W12
	BYTE		N04     Ds2   v092
	BYTE	W12
	BYTE		N11     Ds2   v096
	BYTE	W06
// 005   ----------------------------------------
	BYTE	W07
	BYTE		PAN     c_v+0
	BYTE	W36
	BYTE		N03     Gs2   v116
	BYTE	W04
	BYTE		        Cs3 
	BYTE	W04
	BYTE		        Ds3 
	BYTE	W04
	BYTE		N32     Gs3 
	BYTE	W40
	BYTE	W01
// 006   ----------------------------------------
	BYTE	W42
	BYTE	W01
	BYTE		N03     Gs2 
	BYTE	W04
	BYTE		        Cs3 
	BYTE	W04
	BYTE		        Fs3 
	BYTE	W04
	BYTE		N32     Gs3 
	BYTE	W40
	BYTE	W01
// 007   ----------------------------------------
	BYTE	W07
	BYTE		N02     Fs0 
	BYTE	W24
	BYTE		        Fn0 
	BYTE	W24
	BYTE		        As0 
	BYTE	W24
	BYTE		N03     Bn0 
	BYTE	W17
// 008   ----------------------------------------
	BYTE	W07
	BYTE		N01     Cn1 
	BYTE	W12
	BYTE		N01   
	BYTE	W08
	BYTE		        Cn1   v108
	BYTE	W08
	BYTE		N01   
	BYTE	W04
	BYTE		        Cn1   v112
	BYTE	W08
	BYTE		        Cn1   v108
	BYTE	W04
	BYTE		        Cn1   v116
	BYTE	W04
	BYTE		        Cs1 
	BYTE	W08
	BYTE		        Cs1   v100
	BYTE	W04
	BYTE		        Cs1   v116
	BYTE	W08
	BYTE		        Cs1   v108
	BYTE	W08
	BYTE		N01   
	BYTE	W04
	BYTE		        Cs1   v112
	BYTE	W08
	BYTE		        Cs1   v108
	BYTE	W01
// 009   ----------------------------------------
	BYTE	W03
	BYTE		        Cs1   v116
	BYTE	W04
	BYTE		N02     Fs0   v124
	BYTE	W24
	BYTE		N03     Fn0 
	BYTE	W24
	BYTE		N05     As0 
	BYTE	W24
	BYTE		N20     Bn0 
	BYTE	W17
// 010   ----------------------------------------
	BYTE	W07
	BYTE		N42     Cn1 
	BYTE	W48
	BYTE		N22   
	BYTE	W24
	BYTE		N17     Fn0 
	BYTE	W17
// 011   ----------------------------------------
	BYTE	W06
	BYTE	GoTo
	 POIN2	FE05NearVictoryDerTheVaporeon_6_B1
FE05NearVictoryDerTheVaporeon_6_B2:
	BYTE	FINE

//**************** Track 7 (Midi-Chn.7) ****************//

FE05NearVictoryDerTheVaporeon_7:
	BYTE	KEYSH   FE05NearVictoryDerTheVaporeon_key+0
// 000   ----------------------------------------
	BYTE		VOICE   104
	BYTE		VOL     63*FE05NearVictoryDerTheVaporeon_mvl/mxv
	BYTE	W96
// 001   ----------------------------------------
	BYTE	W06
FE05NearVictoryDerTheVaporeon_7_B1:
	BYTE	W12
	BYTE		N03     Gs1   v104
	BYTE	W04
	BYTE		        Cs2 
	BYTE	W04
	BYTE		        Ds2 
	BYTE	W04
	BYTE		N07     Fn2 
	BYTE	W12
	BYTE		        Gs2   v108
	BYTE	W12
	BYTE		N42     Gn2   v096
	BYTE	W42
// 002   ----------------------------------------
	BYTE	W18
	BYTE		N03     Gs1   v108
	BYTE	W04
	BYTE		        Cs2 
	BYTE	W04
	BYTE		        Ds2   v104
	BYTE	W04
	BYTE		N07     Fn2   v108
	BYTE	W12
	BYTE		N02   
	BYTE	W04
	BYTE		        Gn2   v104
	BYTE	W04
	BYTE		N03     Gs2   v112
	BYTE	W04
	BYTE		N30     As2   v104
	BYTE	W36
	BYTE		N04     As2   v092
	BYTE	W06
// 003   ----------------------------------------
	BYTE	W02
	BYTE		N01   
	BYTE	W04
	BYTE		N36     Cn3 
	BYTE	W44
	BYTE		N01     Cs3 
	BYTE	W04
	BYTE		N18     Ds3 
	BYTE	W24
	BYTE		N17     Cn3 
	BYTE	W18
// 004   ----------------------------------------
	BYTE	W06
	BYTE		N40     Fn2   v096
	BYTE	W48
	BYTE		N15   
	BYTE	W24
	BYTE		N13     Gn2 
	BYTE	W18
// 005   ----------------------------------------
	BYTE	W07
	BYTE		PAN     c_v-14
	BYTE		N30     Ds2   v072
	BYTE	W48
	BYTE		        Fs2 
	BYTE	W40
	BYTE	W01
// 006   ----------------------------------------
	BYTE	W07
	BYTE		        Ds2   v084
	BYTE	W56
	BYTE	W01
	BYTE		N32     Bn2   v100
	BYTE	W32
// 007   ----------------------------------------
	BYTE	W07
	BYTE		N01     Gs1   v116
	BYTE	W12
	BYTE		VOICE   67
	BYTE		PAN     c_v+34
	BYTE	W02
	BYTE		N02     As2   v124
	BYTE	W04
	BYTE		        Cn3   v116
	BYTE	W04
	BYTE		        Cs3   v108
	BYTE	W04
	BYTE		        Cn3   v124
	BYTE	W12
	BYTE		        Gs2   v120
	BYTE	W12
	BYTE		        Cs3   v124
	BYTE	W12
	BYTE		N03   
	BYTE	W04
	BYTE		        Ds3   v120
	BYTE	W04
	BYTE		        Fn3   v112
	BYTE	W04
	BYTE		N02     Ds3 
	BYTE	W12
	BYTE		N01     Fn3   v127
	BYTE	W03
// 008   ----------------------------------------
	BYTE	W03
	BYTE		N02     Fs3   v116
	BYTE	W06
	BYTE		N15     Gs3 
	BYTE	W24
	BYTE		        Ds3 
	BYTE	W24
	BYTE		N32     Fn3 
	BYTE	W36
	BYTE	W03
// 009   ----------------------------------------
	BYTE	W09
	BYTE		N02     As2   v124
	BYTE	W12
	BYTE		N03     As2   v120
	BYTE	W04
	BYTE		        Cn3   v116
	BYTE	W04
	BYTE		        Cs3   v112
	BYTE	W04
	BYTE		N02     Cn3   v104
	BYTE	W12
	BYTE		        Gs2   v120
	BYTE	W12
	BYTE		        Cs3   v124
	BYTE	W12
	BYTE		N03     Cs3   v120
	BYTE	W04
	BYTE		        Ds3 
	BYTE	W04
	BYTE		        Fn3   v112
	BYTE	W04
	BYTE		N02     Ds3   v116
	BYTE	W12
	BYTE		        Fn3 
	BYTE	W03
// 010   ----------------------------------------
	BYTE	W03
	BYTE		        Fs3 
	BYTE	W06
	BYTE		N32     Fn3 
	BYTE	W68
	BYTE	W02
	BYTE		VOICE   68
	BYTE		PAN     c_v-14
	BYTE		N01     Fn2   v076
	BYTE	W02
	BYTE		        En2   v084
	BYTE	W02
	BYTE		        Fn2   v076
	BYTE	W02
	BYTE		        En2   v084
	BYTE	W02
	BYTE		        Fn2   v092
	BYTE	W02
	BYTE		        En2   v096
	BYTE	W02
	BYTE		        Fn2 
	BYTE	W02
	BYTE		        En2   v104
	BYTE	W02
	BYTE		        Fn2 
	BYTE	W01
// 011   ----------------------------------------
	BYTE	W01
	BYTE		        En2   v108
	BYTE	W02
	BYTE		        Fn2 
	BYTE	W02
	BYTE		        En2   v116
	BYTE	W01
	BYTE	GoTo
	 POIN2	FE05NearVictoryDerTheVaporeon_7_B1
FE05NearVictoryDerTheVaporeon_7_B2:
	BYTE	FINE

//**************** Track 8 (Midi-Chn.8) ****************//

FE05NearVictoryDerTheVaporeon_8:
	BYTE	KEYSH   FE05NearVictoryDerTheVaporeon_key+0
// 000   ----------------------------------------
	BYTE		VOICE   0
	BYTE		VOL     63*FE05NearVictoryDerTheVaporeon_mvl/mxv
	BYTE	W54
	BYTE		VOICE   62
	BYTE		PAN     c_v+0
	BYTE	W02
	BYTE		N02     Gs2   v068
	BYTE	W04
	BYTE		        Gs2   v076
	BYTE	W04
	BYTE		        Cn3 
	BYTE	W04
	BYTE		        Cn3   v084
	BYTE	W04
	BYTE		N02   
	BYTE	W04
	BYTE		        Ds3   v088
	BYTE	W04
	BYTE		        Ds3   v092
	BYTE	W04
	BYTE		        Ds3   v088
	BYTE	W04
	BYTE		        Fs3   v076
	BYTE	W04
	BYTE		        Fs3   v080
	BYTE	W04
// 001   ----------------------------------------
	BYTE		        Fs3   v084
	BYTE	W04
	BYTE		N01     As3 
	BYTE	W02
FE05NearVictoryDerTheVaporeon_8_B1:
	BYTE	W90
// 002   ----------------------------------------
	BYTE	W96
// 003   ----------------------------------------
	BYTE	W96
// 004   ----------------------------------------
	BYTE	W96
// 005   ----------------------------------------
	BYTE	W96
// 006   ----------------------------------------
	BYTE	W96
// 007   ----------------------------------------
	BYTE	W96
// 008   ----------------------------------------
	BYTE	W96
// 009   ----------------------------------------
	BYTE	W96
// 010   ----------------------------------------
	BYTE	W96
// 011   ----------------------------------------
	BYTE	W06
	BYTE	GoTo
	 POIN2	FE05NearVictoryDerTheVaporeon_8_B1
FE05NearVictoryDerTheVaporeon_8_B2:
	BYTE	FINE

//**************** Track 9 (Midi-Chn.9) ****************//

FE05NearVictoryDerTheVaporeon_9:
	BYTE	KEYSH   FE05NearVictoryDerTheVaporeon_key+0
// 000   ----------------------------------------
	BYTE		VOICE   127
	BYTE		VOL     63*FE05NearVictoryDerTheVaporeon_mvl/mxv
	BYTE	W06
	BYTE		N01     Dn1   v084
	BYTE	W02
	BYTE		        Dn1   v044
	BYTE	W02
	BYTE		        Dn1   v060
	BYTE	W02
	BYTE		        Dn1   v044
	BYTE	W02
	BYTE		        Dn1   v052
	BYTE	W02
	BYTE		N01   
	BYTE	W02
	BYTE		        Dn1   v084
	BYTE	W02
	BYTE		        Dn1   v032
	BYTE	W02
	BYTE		        Dn1   v044
	BYTE	W02
	BYTE		        Dn1   v040
	BYTE	W02
	BYTE		        Dn1   v056
	BYTE	W02
	BYTE		        Dn1   v052
	BYTE	W02
	BYTE		        Dn1   v100
	BYTE	W02
	BYTE		        Dn1   v052
	BYTE	W02
	BYTE		        Dn1   v060
	BYTE	W02
	BYTE		N01   
	BYTE	W02
	BYTE		        Dn1   v064
	BYTE	W02
	BYTE		        Dn1   v072
	BYTE	W02
	BYTE		        Dn1   v096
	BYTE	W02
	BYTE		        Dn1   v044
	BYTE	W02
	BYTE		        Dn1   v040
	BYTE	W02
	BYTE		        Dn1   v044
	BYTE	W02
	BYTE		        Dn1   v056
	BYTE	W02
	BYTE		N01   
	BYTE	W02
	BYTE		        Dn1   v092
	BYTE	W02
	BYTE		        Dn1   v056
	BYTE	W02
	BYTE		        Dn1   v040
	BYTE	W02
	BYTE		N01   
	BYTE	W02
	BYTE		N01   
	BYTE	W02
	BYTE		        Dn1   v044
	BYTE	W02
	BYTE		        Dn1   v096
	BYTE	W02
	BYTE		        Dn1   v068
	BYTE	W02
	BYTE		        Dn1   v060
	BYTE	W02
	BYTE		        Dn1   v044
	BYTE	W02
	BYTE		        Dn1   v060
	BYTE	W02
	BYTE		        Dn1   v064
	BYTE	W02
	BYTE		        Dn1   v092
	BYTE	W02
	BYTE		        Dn1   v044
	BYTE	W02
	BYTE		        Dn1   v052
	BYTE	W02
	BYTE		        Dn1   v060
	BYTE	W02
	BYTE		        Dn1   v052
	BYTE	W02
	BYTE		        Dn1   v060
	BYTE	W02
	BYTE		        Dn1   v104
	BYTE	W02
	BYTE		        Dn1   v052
	BYTE	W02
	BYTE		        Dn1   v044
	BYTE	W02
// 001   ----------------------------------------
	BYTE		        Dn1   v040
	BYTE	W02
	BYTE		        Dn1   v064
	BYTE	W02
	BYTE		        Dn1   v040
	BYTE	W02
FE05NearVictoryDerTheVaporeon_9_B1:
	BYTE		N02     Cs2   v127
	BYTE	W06
	BYTE		        Dn1   v056
	BYTE	W03
	BYTE		N02   
	BYTE	W03
	BYTE		N05     Dn1   v096
	BYTE	W06
	BYTE		N02     Dn1   v072
	BYTE	W03
	BYTE		        Dn1   v060
	BYTE	W03
	BYTE		N05     Dn1   v100
	BYTE	W06
	BYTE		N02     Dn1   v072
	BYTE	W03
	BYTE		        Dn1   v060
	BYTE	W03
	BYTE		N05     Dn1   v100
	BYTE	W06
	BYTE		N02     Dn1   v076
	BYTE	W03
	BYTE		        Dn1   v072
	BYTE	W03
	BYTE		N05     Dn1   v100
	BYTE	W06
	BYTE		N02     Dn1   v056
	BYTE	W03
	BYTE		N02   
	BYTE	W03
	BYTE		N05     Dn1   v096
	BYTE	W06
	BYTE		N02     Dn1   v072
	BYTE	W03
	BYTE		        Dn1   v060
	BYTE	W03
	BYTE		N05     Dn1   v100
	BYTE	W06
	BYTE		N02     Dn1   v072
	BYTE	W03
	BYTE		        Dn1   v060
	BYTE	W03
	BYTE		N05     Dn1   v100
	BYTE	W06
// 002   ----------------------------------------
FE05NearVictoryDerTheVaporeon_9_002:
	BYTE		N02     Dn1   v076
	BYTE	W03
	BYTE		        Dn1   v072
	BYTE	W03
	BYTE		N05     Dn1   v100
	BYTE	W06
	BYTE		N02     Dn1   v056
	BYTE	W03
	BYTE		N02   
	BYTE	W03
	BYTE		N05     Dn1   v096
	BYTE	W06
	BYTE		N02     Dn1   v072
	BYTE	W03
	BYTE		        Dn1   v060
	BYTE	W03
	BYTE		N05     Dn1   v100
	BYTE	W06
	BYTE		N02     Dn1   v072
	BYTE	W03
	BYTE		        Dn1   v060
	BYTE	W03
	BYTE		N05     Dn1   v100
	BYTE	W06
	BYTE		N02     Dn1   v076
	BYTE	W03
	BYTE		        Dn1   v072
	BYTE	W03
	BYTE		N05     Dn1   v100
	BYTE	W06
	BYTE		N02     Dn1   v056
	BYTE	W03
	BYTE		N02   
	BYTE	W03
	BYTE		N05     Dn1   v096
	BYTE	W06
	BYTE		N02     Dn1   v072
	BYTE	W03
	BYTE		        Dn1   v060
	BYTE	W03
	BYTE		N05     Dn1   v100
	BYTE	W06
	BYTE		N02     Dn1   v072
	BYTE	W03
	BYTE		        Dn1   v060
	BYTE	W03
	BYTE		N05     Dn1   v100
	BYTE	W06
	BYTE	PEND
// 003   ----------------------------------------
	BYTE	PATT
	 POIN2	FE05NearVictoryDerTheVaporeon_9_002
// 004   ----------------------------------------
	BYTE	PATT
	 POIN2	FE05NearVictoryDerTheVaporeon_9_002
// 005   ----------------------------------------
	BYTE		N02     Dn1   v076
	BYTE	W03
	BYTE		        Dn1   v072
	BYTE	W04
	BYTE		N05     Dn1   v116
	BYTE	W06
	BYTE		N02     Dn1   v072
	BYTE	W03
	BYTE		N02   
	BYTE	W03
	BYTE		N05     Dn1   v104
	BYTE	W06
	BYTE		N02     Dn1   v068
	BYTE	W03
	BYTE		        Dn1   v060
	BYTE	W03
	BYTE		N05     Dn1   v108
	BYTE	W06
	BYTE		N02     Dn1   v072
	BYTE	W03
	BYTE		N02   
	BYTE	W03
	BYTE		N05     Dn1   v104
	BYTE	W06
	BYTE		        Dn1   v108
	BYTE	W06
	BYTE		        Dn1   v116
	BYTE	W06
	BYTE		N02     Dn1   v072
	BYTE	W03
	BYTE		N02   
	BYTE	W03
	BYTE		N05     Dn1   v104
	BYTE	W06
	BYTE		N02     Dn1   v068
	BYTE	W03
	BYTE		        Dn1   v060
	BYTE	W03
	BYTE		N05     Dn1   v108
	BYTE	W06
	BYTE		N02     Dn1   v072
	BYTE	W03
	BYTE		N02   
	BYTE	W03
	BYTE		N05     Dn1   v104
	BYTE	W05
// 006   ----------------------------------------
	BYTE	W01
	BYTE		        Dn1   v108
	BYTE	W06
	BYTE		        Dn1   v116
	BYTE	W06
	BYTE		N02     Dn1   v072
	BYTE	W03
	BYTE		N02   
	BYTE	W03
	BYTE		N05     Dn1   v104
	BYTE	W06
	BYTE		N02     Dn1   v068
	BYTE	W03
	BYTE		        Dn1   v060
	BYTE	W03
	BYTE		N05     Dn1   v108
	BYTE	W06
	BYTE		N02     Dn1   v072
	BYTE	W03
	BYTE		N02   
	BYTE	W03
	BYTE		N05     Dn1   v104
	BYTE	W06
	BYTE		        Dn1   v108
	BYTE	W06
	BYTE		N05   
	BYTE	W06
	BYTE		N02     Dn1   v072
	BYTE	W03
	BYTE		N02   
	BYTE	W03
	BYTE		N05     Dn1   v104
	BYTE	W06
	BYTE		N02     Dn1   v068
	BYTE	W03
	BYTE		        Dn1   v060
	BYTE	W03
	BYTE		N01     Dn1   v084
	BYTE	W02
	BYTE		        Dn1   v060
	BYTE	W02
	BYTE		        Dn1   v076
	BYTE	W02
	BYTE		        Dn1   v064
	BYTE	W02
	BYTE		N01   
	BYTE	W02
	BYTE		        Dn1   v040
	BYTE	W02
	BYTE		        Dn1   v096
	BYTE	W02
	BYTE		        Dn1   v076
	BYTE	W02
	BYTE		N01   
	BYTE	W01
// 007   ----------------------------------------
	BYTE	W01
	BYTE		        Dn1   v056
	BYTE	W02
	BYTE		        Dn1   v080
	BYTE	W02
	BYTE		        Dn1   v072
	BYTE	W02
	BYTE		N17     Dn1   v112
	BYTE	W18
	BYTE		N02     Dn1   v100
	BYTE	W03
	BYTE		        Dn1   v092
	BYTE	W03
	BYTE		N17     Dn1   v104
	BYTE	W18
	BYTE		N02     Dn1   v092
	BYTE	W03
	BYTE		        Dn1   v056
	BYTE	W03
	BYTE		N17     Dn1   v096
	BYTE	W18
	BYTE		N02     Dn1   v076
	BYTE	W03
	BYTE		        Dn1   v084
	BYTE	W03
	BYTE		N05     Dn1   v096
	BYTE	W06
	BYTE		N11     Dn1   v100
	BYTE	W11
// 008   ----------------------------------------
	BYTE	W01
	BYTE		N02     Dn1   v088
	BYTE	W03
	BYTE		        Dn1   v080
	BYTE	W03
	BYTE		N08     Dn1   v108
	BYTE	W09
	BYTE		N02     Dn1   v040
	BYTE	W03
	BYTE		N05     Dn1   v108
	BYTE	W06
	BYTE		N02     Dn1   v068
	BYTE	W03
	BYTE		N02   
	BYTE	W03
	BYTE		N05     Dn1   v108
	BYTE	W06
	BYTE		N02     Dn1   v068
	BYTE	W03
	BYTE		        Dn1   v072
	BYTE	W03
	BYTE		N05     Dn1   v100
	BYTE	W06
	BYTE		N02     Dn1   v068
	BYTE	W03
	BYTE		        Dn1   v088
	BYTE	W03
	BYTE		N17     Dn1   v104
	BYTE	W18
	BYTE		N02     Dn1   v072
	BYTE	W03
	BYTE		N02   
	BYTE	W03
	BYTE		N05     Dn1   v100
	BYTE	W06
	BYTE		N17   
	BYTE	W11
// 009   ----------------------------------------
	BYTE	W07
	BYTE		        Dn1   v104
	BYTE	W18
	BYTE		N02     Dn1   v080
	BYTE	W03
	BYTE		        Dn1   v068
	BYTE	W03
	BYTE		N17     Dn1   v100
	BYTE	W18
	BYTE		N02     Dn1   v092
	BYTE	W03
	BYTE		        Dn1   v080
	BYTE	W03
	BYTE		N17     Dn1   v096
	BYTE	W18
	BYTE		N02     Dn1   v092
	BYTE	W03
	BYTE		        Dn1   v084
	BYTE	W03
	BYTE		N17     Dn1   v104
	BYTE	W17
// 010   ----------------------------------------
	BYTE	W01
	BYTE		N02   
	BYTE	W03
	BYTE		        Dn1   v112
	BYTE	W03
	BYTE		N05     Dn1   v100
	BYTE	W06
	BYTE		N02     Dn1   v056
	BYTE	W03
	BYTE		N02   
	BYTE	W03
	BYTE		N05     Dn1   v096
	BYTE	W06
	BYTE		N02     Dn1   v072
	BYTE	W03
	BYTE		        Dn1   v060
	BYTE	W03
	BYTE		N05     Dn1   v100
	BYTE	W06
	BYTE		N02     Dn1   v072
	BYTE	W03
	BYTE		        Dn1   v060
	BYTE	W03
	BYTE		N05     Dn1   v100
	BYTE	W06
	BYTE		N02     Dn1   v076
	BYTE	W03
	BYTE		        Dn1   v072
	BYTE	W03
	BYTE		N05     Dn1   v100
	BYTE	W06
	BYTE		N02     Dn1   v056
	BYTE	W03
	BYTE		N02   
	BYTE	W03
	BYTE		N05     Dn1   v096
	BYTE	W06
	BYTE		N02     Dn1   v072
	BYTE	W03
	BYTE		        Dn1   v060
	BYTE	W03
	BYTE		N05     Dn1   v100
	BYTE	W06
	BYTE		N02     Dn1   v072
	BYTE	W03
	BYTE		        Dn1   v060
	BYTE	W03
	BYTE		N05     Dn1   v100
	BYTE	W05
// 011   ----------------------------------------
	BYTE	W01
	BYTE		N02     Dn1   v076
	BYTE	W03
	BYTE		        Dn1   v072
	BYTE	W02
	BYTE	GoTo
	 POIN2	FE05NearVictoryDerTheVaporeon_9_B1
FE05NearVictoryDerTheVaporeon_9_B2:
	BYTE	FINE

//******************************************************//
	ALIGN 4

FE05NearVictoryDerTheVaporeon:
	BYTE	9	// NumTrks
	BYTE	0	// NumBlks
	BYTE	FE05NearVictoryDerTheVaporeon_pri	// Priority
	BYTE	FE05NearVictoryDerTheVaporeon_rev	// Reverb.

	POIN2	FE05NearVictoryDerTheVaporeon_grp

	POIN2	FE05NearVictoryDerTheVaporeon_1
	POIN2	FE05NearVictoryDerTheVaporeon_2
	POIN2	FE05NearVictoryDerTheVaporeon_3
	POIN2	FE05NearVictoryDerTheVaporeon_4
	POIN2	FE05NearVictoryDerTheVaporeon_5
	POIN2	FE05NearVictoryDerTheVaporeon_6
	POIN2	FE05NearVictoryDerTheVaporeon_7
	POIN2	FE05NearVictoryDerTheVaporeon_8
	POIN2	FE05NearVictoryDerTheVaporeon_9

	
