//Event file generated from Sappy .s format.
	#include "MPlayDef.event"

	#define	FE05AComradeEntersRSflame_grp  voicegroup000
	#define	FE05AComradeEntersRSflame_pri  0
	#define	FE05AComradeEntersRSflame_rev  0
	#define	FE05AComradeEntersRSflame_mvl  127
	#define	FE05AComradeEntersRSflame_key  0
	#define	FE05AComradeEntersRSflame_tbs  1
	#define	FE05AComradeEntersRSflame_exg  0
	#define	FE05AComradeEntersRSflame_cmp  1

	// .rodata
	//	FE05AComradeEntersRSflame
	ALIGN 4


//**************** Track 1 (Midi-Chn.0) ****************//

FE05AComradeEntersRSflame_001:
// 000   ----------------------------------------
 BYTE   KEYSH   FE05AComradeEntersRSflame_key+0
 BYTE   TEMPO   70*FE05AComradeEntersRSflame_tbs/2
 BYTE   VOICE   73
 BYTE   W06
 BYTE   VOL   50*FE05AComradeEntersRSflame_mvl/mxv
 BYTE   PAN   c_v-14
 BYTE   VOL   62*FE05AComradeEntersRSflame_mvl/mxv
 BYTE   W07
 BYTE   N01  Fn2  v100
 BYTE   W04
 BYTE   Fn2  v076
 BYTE   W04
 BYTE   Fn2  v084
 BYTE   W04
 BYTE   Gn2  v096
 BYTE   W04
 BYTE   An2  v068
 BYTE   W04
 BYTE   N64  An2  v096
 BYTE   W48
 BYTE   VOL   64*FE05AComradeEntersRSflame_mvl/mxv
 BYTE   W01
 BYTE   Fn3
 BYTE   W01
 BYTE   Fs3
 BYTE   W01
 BYTE   Gs3
 BYTE   W01
 BYTE   An3
 BYTE   W01
 BYTE   Bn3
 BYTE   W01
 BYTE   Cn4
 BYTE   W01
 BYTE   Cs4
 BYTE   W01
 BYTE   Dn4
 BYTE   W01
 BYTE   En4
 BYTE   W01
 BYTE   Fn4
 BYTE   W01
 BYTE   Fs4
 BYTE   W04
// 001   ----------------------------------------
Label_0_01E58607:
 BYTE   W08
 BYTE   TEMPO   78*FE05AComradeEntersRSflame_tbs/2
 BYTE   VOL   70*FE05AComradeEntersRSflame_mvl/mxv
 BYTE   PAN   c_v+0
 BYTE   N05  Gn2  v084
 BYTE   W06
 BYTE   As2
 BYTE   W06
 BYTE   An2  v080
 BYTE   W06
 BYTE   Fn2
 BYTE   W06
 BYTE   Gn2  v088
 BYTE   W06
 BYTE   As2  v084
 BYTE   W06
 BYTE   N04  An2  v076
 BYTE   W06
 BYTE   N05  Fn2  v084
 BYTE   W06
 BYTE   Gn2
 BYTE   W06
 BYTE   As2
 BYTE   W06
 BYTE   An2  v080
 BYTE   W06
 BYTE   Fn2
 BYTE   W06
 BYTE   Gn2  v088
 BYTE   W06
 BYTE   As2  v084
 BYTE   W06
 BYTE   N04  An2  v076
 BYTE   W04
// 002   ----------------------------------------
Label_0_01E5863A:
 BYTE   W02
 BYTE   N05  Fn2  v084
 BYTE   W06
 BYTE   Gn2
 BYTE   W06
 BYTE   As2
 BYTE   W06
 BYTE   An2  v080
 BYTE   W06
 BYTE   Fn2
 BYTE   W06
 BYTE   Gn2  v088
 BYTE   W06
 BYTE   As2  v084
 BYTE   W06
 BYTE   N04  An2  v076
 BYTE   W06
 BYTE   N05  Fn2  v084
 BYTE   W06
 BYTE   Gn2
 BYTE   W06
 BYTE   As2
 BYTE   W06
 BYTE   An2  v080
 BYTE   W06
 BYTE   Fn2
 BYTE   W06
 BYTE   Gn2  v088
 BYTE   W06
 BYTE   As2  v084
 BYTE   W06
 BYTE   N04  An2  v076
 BYTE   W04
 BYTE   PEND 
// 003   ----------------------------------------
 BYTE   PATT
  POIN2 Label_0_01E5863A
// 004   ----------------------------------------
 BYTE   PATT
  POIN2 Label_0_01E5863A
// 005   ----------------------------------------
 BYTE   PATT
  POIN2 Label_0_01E5863A
// 006   ----------------------------------------
 BYTE   PATT
  POIN2 Label_0_01E5863A
// 007   ----------------------------------------
 BYTE   W02
 BYTE   N05  Fn2  v084
 BYTE   W06
 BYTE   Gn2
 BYTE   W06
 BYTE   As2
 BYTE   W06
 BYTE   An2  v080
 BYTE   W06
 BYTE   Fn2
 BYTE   W06
 BYTE   Gn2  v088
 BYTE   W06
 BYTE   As2  v084
 BYTE   W06
 BYTE   N04  An2  v076
 BYTE   W06
 BYTE   N05  Fn2  v084
 BYTE   W06
 BYTE   Gn2  v080
 BYTE   W06
 BYTE   As2  v084
 BYTE   W06
 BYTE   An2  v072
 BYTE   W04
 BYTE   GoTo
  POIN2 Label_0_01E58607
// 008   ----------------------------------------
 BYTE   W02
 BYTE   N05  Fn2  v080
 BYTE   W06
 BYTE   Gn2
 BYTE   W06
 BYTE   An2  v076
 BYTE   W06
 BYTE   As2  v084
 BYTE   W04
 BYTE   W02
 BYTE   N04  Cn3  v092
 BYTE   W05
 BYTE   FINE

//**************** Track 2 (Midi-Chn.1) ****************//

FE05AComradeEntersRSflame_002:
// 000   ----------------------------------------
 BYTE   KEYSH   FE05AComradeEntersRSflame_key+0
 BYTE   VOICE   18
 BYTE   W06
 BYTE   VOL   50*FE05AComradeEntersRSflame_mvl/mxv
 BYTE   PAN   c_v-14
 BYTE   VOL   62*FE05AComradeEntersRSflame_mvl/mxv
 BYTE   W07
 BYTE   N01  As2  v100
 BYTE   W04
 BYTE   As2  v096
 BYTE   W04
 BYTE   N02  As2  v088
 BYTE   W04
 BYTE   Cn3  v104
 BYTE   W04
 BYTE   N01  Dn3  v100
 BYTE   W04
 BYTE   N64  En3  v104
 BYTE   W48
 BYTE   VOL   64*FE05AComradeEntersRSflame_mvl/mxv
 BYTE   W01
 BYTE   Fn3
 BYTE   W01
 BYTE   Fs3
 BYTE   W01
 BYTE   Gs3
 BYTE   W01
 BYTE   An3
 BYTE   W01
 BYTE   Bn3
 BYTE   W01
 BYTE   Cn4
 BYTE   W01
 BYTE   Cs4
 BYTE   W01
 BYTE   Dn4
 BYTE   W01
 BYTE   En4
 BYTE   W01
 BYTE   Fn4
 BYTE   W01
 BYTE   Fs4
 BYTE   W04
// 001   ----------------------------------------
Label_1_01E586F7:
 BYTE   W08
 BYTE   VOL   70*FE05AComradeEntersRSflame_mvl/mxv
 BYTE   PAN   c_v+0
 BYTE   N05  Dn3  v096
 BYTE   W06
 BYTE   Fn3  v084
 BYTE   W06
 BYTE   En3  v092
 BYTE   W06
 BYTE   Cn3  v084
 BYTE   W06
 BYTE   Dn3  v096
 BYTE   W06
 BYTE   Fn3  v084
 BYTE   W06
 BYTE   En3  v088
 BYTE   W06
 BYTE   Cn3  v084
 BYTE   W06
 BYTE   Dn3  v096
 BYTE   W06
 BYTE   Fn3  v084
 BYTE   W06
 BYTE   En3  v092
 BYTE   W06
 BYTE   Cn3  v084
 BYTE   W06
 BYTE   Dn3  v096
 BYTE   W06
 BYTE   Fn3  v084
 BYTE   W06
 BYTE   En3  v088
 BYTE   W04
// 002   ----------------------------------------
Label_1_01E5872A:
 BYTE   W02
 BYTE   N05  Cn3  v084
 BYTE   W06
 BYTE   Dn3  v096
 BYTE   W06
 BYTE   Fn3  v084
 BYTE   W06
 BYTE   En3  v092
 BYTE   W06
 BYTE   Cn3  v084
 BYTE   W06
 BYTE   Dn3  v096
 BYTE   W06
 BYTE   Fn3  v084
 BYTE   W06
 BYTE   En3  v088
 BYTE   W06
 BYTE   Cn3  v084
 BYTE   W06
 BYTE   Dn3  v096
 BYTE   W06
 BYTE   Fn3  v084
 BYTE   W06
 BYTE   En3  v092
 BYTE   W06
 BYTE   Cn3  v084
 BYTE   W06
 BYTE   Dn3  v096
 BYTE   W06
 BYTE   Fn3  v084
 BYTE   W06
 BYTE   En3  v088
 BYTE   W04
 BYTE   PEND 
// 003   ----------------------------------------
 BYTE   PATT
  POIN2 Label_1_01E5872A
// 004   ----------------------------------------
 BYTE   PATT
  POIN2 Label_1_01E5872A
// 005   ----------------------------------------
 BYTE   PATT
  POIN2 Label_1_01E5872A
// 006   ----------------------------------------
 BYTE   PATT
  POIN2 Label_1_01E5872A
// 007   ----------------------------------------
 BYTE   W02
 BYTE   N05  Cn3  v084
 BYTE   W06
 BYTE   Dn3  v096
 BYTE   W06
 BYTE   Fn3  v084
 BYTE   W06
 BYTE   En3  v092
 BYTE   W06
 BYTE   Cn3  v084
 BYTE   W06
 BYTE   Dn3  v096
 BYTE   W06
 BYTE   Fn3  v084
 BYTE   W06
 BYTE   En3  v088
 BYTE   W06
 BYTE   Cn3  v084
 BYTE   W06
 BYTE   Dn3  v096
 BYTE   W06
 BYTE   Fn3  v084
 BYTE   W06
 BYTE   En3  v092
 BYTE   W04
 BYTE   GoTo
  POIN2 Label_1_01E586F7
// 008   ----------------------------------------
 BYTE   W02
 BYTE   N05  Cn3  v084
 BYTE   W06
 BYTE   Dn3  v096
 BYTE   W06
 BYTE   Fn3  v084
 BYTE   W06
 BYTE   En3  v088
 BYTE   W04
 BYTE   W02
 BYTE   Cn3  v084
 BYTE   W05
 BYTE   FINE

//**************** Track 3 (Midi-Chn.2) ****************//

FE05AComradeEntersRSflame_003:
// 000   ----------------------------------------
 BYTE   KEYSH   FE05AComradeEntersRSflame_key+0
 BYTE   VOICE   6
 BYTE   W06
 BYTE   VOL   72*FE05AComradeEntersRSflame_mvl/mxv
 BYTE   PAN   c_v-14
 BYTE   N44  Dn2  v116
 BYTE   W72
 BYTE   N01  Dn2  v092
 BYTE   W02
 BYTE   Gn2  v096
 BYTE   W02
 BYTE   Dn2
 BYTE   W02
 BYTE   Gn2
 BYTE   W02
 BYTE   Dn2  v104
 BYTE   W02
 BYTE   Gn2  v096
 BYTE   W02
 BYTE   Dn2
 BYTE   W02
 BYTE   Gn2  v092
 BYTE   W02
 BYTE   Dn2  v104
 BYTE   W02
// 001   ----------------------------------------
Label_2_01E587D6:
 BYTE   N01  Gn2  v092
 BYTE   W02
 BYTE   Dn2  v100
 BYTE   W02
 BYTE   N02  Gn2  v124
 BYTE   W92
// 002   ----------------------------------------
 BYTE   W96
// 003   ----------------------------------------
 BYTE   W08
 BYTE   VOL   72*FE05AComradeEntersRSflame_mvl/mxv
 BYTE   PAN   c_v+14
 BYTE   Dn2
 BYTE   N92  As1  v080
 BYTE   W88
// 004   ----------------------------------------
 BYTE   W08
 BYTE   N44  An1  v092
 BYTE   W48
 BYTE   Dn2  v088
 BYTE   W40
// 005   ----------------------------------------
 BYTE   W08
 BYTE   N92  As1  v080
 BYTE   W88
// 006   ----------------------------------------
 BYTE   W08
 BYTE   Bn1  v104
 BYTE   W88
// 007   ----------------------------------------
 BYTE   W08
 BYTE   N44  Cn2  v088
 BYTE   W48
 BYTE   An1  v084
 BYTE   W16
 BYTE   GoTo
  POIN2 Label_2_01E587D6
// 008   ----------------------------------------
 BYTE   W24
 BYTE   W07
 BYTE   FINE

//**************** Track 4 (Midi-Chn.3) ****************//

FE05AComradeEntersRSflame_004:
// 000   ----------------------------------------
 BYTE   KEYSH   FE05AComradeEntersRSflame_key+0
 BYTE   VOICE   6
 BYTE   W06
 BYTE   VOL   72*FE05AComradeEntersRSflame_mvl/mxv
 BYTE   PAN   c_v+0
 BYTE   N96  Cn2  v127
 BYTE   W90
// 001   ----------------------------------------
Label_3_01E5881D:
 BYTE   W96
// 002   ----------------------------------------
 BYTE   W96
// 003   ----------------------------------------
 BYTE   W08
 BYTE   VOL   72*FE05AComradeEntersRSflame_mvl/mxv
 BYTE   PAN   c_v+14
 BYTE   N92  Fn2  v088
 BYTE   W88
// 004   ----------------------------------------
 BYTE   W08
 BYTE   N44  En2  v072
 BYTE   W48
 BYTE   An2  v084
 BYTE   W40
// 005   ----------------------------------------
 BYTE   W08
 BYTE   N92  Fn2  v096
 BYTE   W88
// 006   ----------------------------------------
 BYTE   W08
 BYTE   Fn2  v072
 BYTE   W88
// 007   ----------------------------------------
 BYTE   W08
 BYTE   N44  Gn2  v084
 BYTE   W48
 BYTE   En2  v088
 BYTE   W16
 BYTE   GoTo
  POIN2 Label_3_01E5881D
// 008   ----------------------------------------
 BYTE   W24
 BYTE   W07
 BYTE   FINE

//**************** Track 5 (Midi-Chn.4) ****************//

FE05AComradeEntersRSflame_005:
// 000   ----------------------------------------
 BYTE   KEYSH   FE05AComradeEntersRSflame_key+0
 BYTE   VOICE   127
 BYTE   W06
 BYTE   VOL   72*FE05AComradeEntersRSflame_mvl/mxv
 BYTE   PAN   c_v+14
 BYTE   VOL   62*FE05AComradeEntersRSflame_mvl/mxv
 BYTE   W05
 BYTE   N01  Fn2  v100
 BYTE   W04
 BYTE   Fn2  v076
 BYTE   W04
 BYTE   Fn2  v084
 BYTE   W04
 BYTE   Gn2  v096
 BYTE   W04
 BYTE   An2  v068
 BYTE   W04
 BYTE   N64  An2  v096
 BYTE   W48
 BYTE   VOL   63*FE05AComradeEntersRSflame_mvl/mxv
 BYTE   W01
 BYTE   En3
 BYTE   W01
 BYTE   Fs3
 BYTE   W01
 BYTE   Gn3
 BYTE   W01
 BYTE   Gs3
 BYTE   W01
 BYTE   An3
 BYTE   W01
 BYTE   Bn3
 BYTE   W01
 BYTE   Cs4
 BYTE   W01
 BYTE   Dn4
 BYTE   W01
 BYTE   Ds4
 BYTE   W01
 BYTE   En4
 BYTE   W01
 BYTE   Fs4
 BYTE   W01
 BYTE   Fs4
 BYTE   W05
// 001   ----------------------------------------
Label_4_01E58887:
 BYTE   W08
 BYTE   VOL   72*FE05AComradeEntersRSflame_mvl/mxv
 BYTE   PAN   c_v+0
 BYTE   N02  Cn2  v116
 BYTE   W12
 BYTE   N02
 BYTE   W12
 BYTE   N02
 BYTE   W12
 BYTE   N01
 BYTE   W12
 BYTE   N02
 BYTE   W12
 BYTE   N02
 BYTE   W12
 BYTE   N02
 BYTE   W12
 BYTE   N02
 BYTE   W04
// 002   ----------------------------------------
 BYTE   W08
 BYTE   N02
 BYTE   W12
 BYTE   N02
 BYTE   W12
 BYTE   N02
 BYTE   W12
 BYTE   N03
 BYTE   W12
 BYTE   N02
 BYTE   W12
 BYTE   N02
 BYTE   W12
 BYTE   N02
 BYTE   W12
 BYTE   N10
 BYTE   W04
// 003   ----------------------------------------
 BYTE   W08
 BYTE   N04  As1
 BYTE   W12
 BYTE   N02
 BYTE   W12
 BYTE   N02
 BYTE   W12
 BYTE   N02
 BYTE   W12
 BYTE   N02
 BYTE   W12
 BYTE   N02
 BYTE   W12
 BYTE   N02
 BYTE   W12
 BYTE   N02
 BYTE   W04
// 004   ----------------------------------------
 BYTE   W08
 BYTE   An1
 BYTE   W12
 BYTE   N02
 BYTE   W12
 BYTE   N02
 BYTE   W12
 BYTE   N02
 BYTE   W12
 BYTE   Dn2
 BYTE   W12
 BYTE   N02
 BYTE   W12
 BYTE   N02
 BYTE   W12
 BYTE   Cn2
 BYTE   W04
// 005   ----------------------------------------
 BYTE   W08
 BYTE   As1
 BYTE   W12
 BYTE   N02
 BYTE   W12
 BYTE   N02
 BYTE   W12
 BYTE   N02
 BYTE   W12
 BYTE   N02
 BYTE   W12
 BYTE   N04
 BYTE   W12
 BYTE   N04
 BYTE   W12
 BYTE   N04
 BYTE   W04
// 006   ----------------------------------------
 BYTE   W08
 BYTE   N02  Bn1
 BYTE   W12
 BYTE   N02
 BYTE   W12
 BYTE   N02
 BYTE   W12
 BYTE   N02
 BYTE   W12
 BYTE   N04
 BYTE   W12
 BYTE   N03
 BYTE   W12
 BYTE   N02
 BYTE   W12
 BYTE   N04
 BYTE   W04
// 007   ----------------------------------------
 BYTE   W08
 BYTE   N03  Cn2
 BYTE   W12
 BYTE   N04
 BYTE   W12
 BYTE   N04
 BYTE   W12
 BYTE   N06
 BYTE   W12
 BYTE   N05  An1
 BYTE   W12
 BYTE   N04
 BYTE   W04
 BYTE   GoTo
  POIN2 Label_4_01E58887
// 008   ----------------------------------------
 BYTE   W08
 BYTE   N03  An1  v116
 BYTE   W12
 BYTE   N02
 BYTE   W04
 BYTE   W07
 BYTE   FINE

//**************** Track 6 (Midi-Chn.5) ****************//

FE05AComradeEntersRSflame_006:
// 000   ----------------------------------------
 BYTE   KEYSH   FE05AComradeEntersRSflame_key+0
 BYTE   VOICE   47
 BYTE   W06
 BYTE   VOL   72*FE05AComradeEntersRSflame_mvl/mxv
 BYTE   PAN   c_v+14
 BYTE   VOL   62*FE05AComradeEntersRSflame_mvl/mxv
 BYTE   W05
 BYTE   N01  As2  v100
 BYTE   W04
 BYTE   As2  v096
 BYTE   W04
 BYTE   N02  As2  v088
 BYTE   W04
 BYTE   Cn3  v104
 BYTE   W04
 BYTE   N01  Dn3  v100
 BYTE   W04
 BYTE   N66  En3  v096
 BYTE   W48
 BYTE   VOL   63*FE05AComradeEntersRSflame_mvl/mxv
 BYTE   W01
 BYTE   En3
 BYTE   W01
 BYTE   Fs3
 BYTE   W01
 BYTE   Gn3
 BYTE   W01
 BYTE   Gs3
 BYTE   W01
 BYTE   An3
 BYTE   W01
 BYTE   Bn3
 BYTE   W01
 BYTE   Cs4
 BYTE   W01
 BYTE   Dn4
 BYTE   W01
 BYTE   Ds4
 BYTE   W01
 BYTE   En4
 BYTE   W01
 BYTE   Fs4
 BYTE   W01
 BYTE   Fs4
 BYTE   W05
// 001   ----------------------------------------
Label_5_01E58951:
 BYTE   W08
 BYTE   VOL   72*FE05AComradeEntersRSflame_mvl/mxv
 BYTE   PAN   c_v-14
 BYTE   N17  Gn2  v120
 BYTE   W18
 BYTE   N02  Gn2  v112
 BYTE   W03
 BYTE   Dn2  v116
 BYTE   W03
 BYTE   N05  Gn2  v120
 BYTE   W06
 BYTE   N11
 BYTE   W12
 BYTE   N05  Dn2  v116
 BYTE   W06
 BYTE   N17  Gn2  v124
 BYTE   W18
 BYTE   N02  Gn2  v116
 BYTE   W03
 BYTE   Dn2  v100
 BYTE   W03
 BYTE   N05  Gn2  v120
 BYTE   W06
 BYTE   N17  Gn2  v124
 BYTE   W10
// 002   ----------------------------------------
 BYTE   W08
 BYTE   Gn2  v120
 BYTE   W18
 BYTE   N02  Gn2  v116
 BYTE   W03
 BYTE   Dn2  v108
 BYTE   W03
 BYTE   N05  Gn2  v116
 BYTE   W06
 BYTE   N11  Gn2  v120
 BYTE   W12
 BYTE   N05  Dn2  v116
 BYTE   W06
 BYTE   N17  Gn2  v124
 BYTE   W18
 BYTE   N02  Gn2  v120
 BYTE   W03
 BYTE   Dn2  v112
 BYTE   W03
 BYTE   N05  Gn2  v120
 BYTE   W06
 BYTE   N17
 BYTE   W10
// 003   ----------------------------------------
 BYTE   W08
 BYTE   Gn2  v124
 BYTE   W18
 BYTE   N02  Gn2  v116
 BYTE   W03
 BYTE   Dn2  v108
 BYTE   W03
 BYTE   N05  Gn2  v120
 BYTE   W06
 BYTE   N11
 BYTE   W12
 BYTE   N05  Dn2  v108
 BYTE   W06
 BYTE   N17  Gn2  v124
 BYTE   W18
 BYTE   N02  Gn2  v120
 BYTE   W03
 BYTE   Dn2  v112
 BYTE   W03
 BYTE   N05  Gn2  v120
 BYTE   W06
 BYTE   N17
 BYTE   W10
// 004   ----------------------------------------
 BYTE   W08
 BYTE   Gn2  v124
 BYTE   W18
 BYTE   N02  Gn2  v116
 BYTE   W03
 BYTE   Dn2
 BYTE   W03
 BYTE   N05  Gn2  v120
 BYTE   W06
 BYTE   N17  Gn2  v124
 BYTE   W18
 BYTE   N17
 BYTE   W18
 BYTE   N02  Gn2  v120
 BYTE   W03
 BYTE   Dn2  v112
 BYTE   W03
 BYTE   N05  Gn2  v120
 BYTE   W06
 BYTE   N17  Gn2  v124
 BYTE   W10
// 005   ----------------------------------------
 BYTE   W08
 BYTE   N17
 BYTE   W18
 BYTE   N02  Gn2  v120
 BYTE   W03
 BYTE   Dn2  v108
 BYTE   W03
 BYTE   N05  Gn2  v120
 BYTE   W06
 BYTE   N17  Gn2  v124
 BYTE   W18
 BYTE   Gn2  v116
 BYTE   W18
 BYTE   N02  Gn2  v112
 BYTE   W03
 BYTE   Dn2  v108
 BYTE   W03
 BYTE   N05  Gn2  v124
 BYTE   W06
 BYTE   N17
 BYTE   W10
// 006   ----------------------------------------
 BYTE   W08
 BYTE   Gn2  v120
 BYTE   W18
 BYTE   N02  Gn2  v116
 BYTE   W03
 BYTE   Dn2  v108
 BYTE   W03
 BYTE   N05  Gn2  v120
 BYTE   W06
 BYTE   N17  Gn2  v124
 BYTE   W18
 BYTE   N17
 BYTE   W18
 BYTE   N02  Gn2  v116
 BYTE   W03
 BYTE   Dn2  v112
 BYTE   W03
 BYTE   N05  Gn2  v124
 BYTE   W06
 BYTE   N11
 BYTE   W10
// 007   ----------------------------------------
 BYTE   W02
 BYTE   N05  Dn2  v112
 BYTE   W06
 BYTE   N17  Gn2  v124
 BYTE   W18
 BYTE   N02  Gn2  v120
 BYTE   W03
 BYTE   Dn2  v112
 BYTE   W03
 BYTE   N05  Gn2  v116
 BYTE   W06
 BYTE   N17  Gn2  v124
 BYTE   W18
 BYTE   N05  Gn2  v120
 BYTE   W06
 BYTE   N11  Gn2  v124
 BYTE   W10
 BYTE   GoTo
  POIN2 Label_5_01E58951
// 008   ----------------------------------------
 BYTE   W02
 BYTE   N02  Gn2  v120
 BYTE   W03
 BYTE   Dn2  v112
 BYTE   W03
 BYTE   N05  Gn2  v120
 BYTE   W06
 BYTE   N08  Gn2  v124
 BYTE   W09
 BYTE   N02  Dn2  v104
 BYTE   W01
 BYTE   W02
 BYTE   Gn2  v124
 BYTE   W03
 BYTE   Dn2  v104
 BYTE   W02
 BYTE   FINE

//**************** Track 7 (Midi-Chn.6) ****************//

FE05AComradeEntersRSflame_007:
// 000   ----------------------------------------
 BYTE   KEYSH   FE05AComradeEntersRSflame_key+0
 BYTE   VOICE   61
 BYTE   W06
 BYTE   VOL   75*FE05AComradeEntersRSflame_mvl/mxv
 BYTE   PAN   c_v+25
 BYTE   W36
 BYTE   W03
 BYTE   N03  Gn2  v104
 BYTE   W04
 BYTE   Cn3  v100
 BYTE   W04
 BYTE   Fn3  v096
 BYTE   W04
 BYTE   N05  Gn3  v108
 BYTE   W09
 BYTE   N02  Dn3  v088
 BYTE   W03
 BYTE   N32  Gn3  v096
 BYTE   W24
 BYTE   W03
// 001   ----------------------------------------
Label_6_01E58A96:
 BYTE   W08
 BYTE   VOL   72*FE05AComradeEntersRSflame_mvl/mxv
 BYTE   PAN   c_v+14
 BYTE   N03  An2  v076
 BYTE   W08
 BYTE   As2  v080
 BYTE   W04
 BYTE   N24  Cn3  v084
 BYTE   W36
 BYTE   N03  As2
 BYTE   W04
 BYTE   An2  v072
 BYTE   W04
 BYTE   As2  v056
 BYTE   W04
 BYTE   N09  Cn3  v080
 BYTE   W12
 BYTE   N07  Dn3  v084
 BYTE   W12
 BYTE   N08  As2  v076
 BYTE   W04
// 002   ----------------------------------------
 BYTE   W08
 BYTE   N03  An2
 BYTE   W08
 BYTE   As2  v084
 BYTE   W04
 BYTE   N24  Cn3  v076
 BYTE   W36
 BYTE   N03  Cn3  v080
 BYTE   W04
 BYTE   As2  v076
 BYTE   W04
 BYTE   Cn3  v060
 BYTE   W04
 BYTE   N06  Dn3  v080
 BYTE   W12
 BYTE   Cn3
 BYTE   W12
 BYTE   N03  As2  v084
 BYTE   W04
// 003   ----------------------------------------
 BYTE   W04
 BYTE   An2  v076
 BYTE   W04
 BYTE   Gn2  v084
 BYTE   W08
 BYTE   An2  v068
 BYTE   W04
 BYTE   N24  As2  v084
 BYTE   W36
 BYTE   N03  Gn2
 BYTE   W04
 BYTE   Gn2  v068
 BYTE   W04
 BYTE   An2
 BYTE   W04
 BYTE   N24  As2  v084
 BYTE   W28
// 004   ----------------------------------------
 BYTE   W08
 BYTE   N03  An2  v076
 BYTE   W08
 BYTE   An2  v072
 BYTE   W04
 BYTE   N20  An2  v084
 BYTE   W24
 BYTE   N03  An2  v076
 BYTE   W04
 BYTE   Dn3  v072
 BYTE   W04
 BYTE   En3  v076
 BYTE   W04
 BYTE   N42  Fn3  v080
 BYTE   W40
// 005   ----------------------------------------
 BYTE   W08
 BYTE   VOL   70*FE05AComradeEntersRSflame_mvl/mxv
 BYTE   PAN   c_v+0
 BYTE   VOL   75*FE05AComradeEntersRSflame_mvl/mxv
 BYTE   N02  Gn3  v096
 BYTE   W06
 BYTE   N05  As3  v100
 BYTE   W06
 BYTE   N02  An3  v108
 BYTE   W06
 BYTE   N04  Fn3  v100
 BYTE   W06
 BYTE   N02  Gn3  v104
 BYTE   W06
 BYTE   N03  Cn4
 BYTE   W06
 BYTE   N01  Bn3  v096
 BYTE   W06
 BYTE   N05  Gn3  v100
 BYTE   W06
 BYTE   N02  An3  v104
 BYTE   W06
 BYTE   N04  Fn3  v100
 BYTE   W06
 BYTE   N02  Cn4
 BYTE   W06
 BYTE   N04  As3  v092
 BYTE   W06
 BYTE   N02  An3  v096
 BYTE   W06
 BYTE   N04  Gn3
 BYTE   W06
 BYTE   N01  Cn4  v104
 BYTE   W04
// 006   ----------------------------------------
 BYTE   W02
 BYTE   N04  An3  v100
 BYTE   W06
 BYTE   VOL   72*FE05AComradeEntersRSflame_mvl/mxv
 BYTE   PAN   c_v+14
 BYTE   N17  Gn3  v080
 BYTE   W20
 BYTE   N24  Dn3  v068
 BYTE   W40
 BYTE   N11  En3  v076
 BYTE   W12
 BYTE   Fn3  v084
 BYTE   W12
 BYTE   Gn3  v080
 BYTE   W04
// 007   ----------------------------------------
 BYTE   W08
 BYTE   N19  Fn3  v084
 BYTE   W20
 BYTE   N02  Dn3  v072
 BYTE   W04
 BYTE   N56  En3  v084
 BYTE   W40
 BYTE   GoTo
  POIN2 Label_6_01E58A96
// 008   ----------------------------------------
 BYTE   W24
 BYTE   W07
 BYTE   FINE

//**************** Track 8 (Midi-Chn.7) ****************//

FE05AComradeEntersRSflame_008:
// 000   ----------------------------------------
 BYTE   KEYSH   FE05AComradeEntersRSflame_key+0
 BYTE   VOICE   40
 BYTE   W06
 BYTE   VOL   75*FE05AComradeEntersRSflame_mvl/mxv
 BYTE   PAN   c_v-14
 BYTE   W01
 BYTE   N03  Cn2  v104
 BYTE   W36
 BYTE   Gn2
 BYTE   W04
 BYTE   Cn3  v100
 BYTE   W04
 BYTE   Fn3  v096
 BYTE   W04
 BYTE   N05  Gn3  v108
 BYTE   W09
 BYTE   N02  Dn3  v088
 BYTE   W03
 BYTE   N32  Gn3  v096
 BYTE   W28
 BYTE   W01
// 001   ----------------------------------------
Label_7_01E58BA3:
 BYTE   W08
 BYTE   VOL   75*FE05AComradeEntersRSflame_mvl/mxv
 BYTE   PAN   c_v-14
 BYTE   N02  Dn3  v104
 BYTE   W08
 BYTE   N01  En3
 BYTE   W04
 BYTE   N24  Fn3  v108
 BYTE   W36
 BYTE   N03  Fn3  v116
 BYTE   W04
 BYTE   En3  v100
 BYTE   W04
 BYTE   N02  Fn3  v072
 BYTE   W04
 BYTE   N04  Gn3  v100
 BYTE   W12
 BYTE   N11  En3  v112
 BYTE   W16
// 002   ----------------------------------------
 BYTE   W08
 BYTE   N02  Dn3  v108
 BYTE   W08
 BYTE   N01  En3
 BYTE   W04
 BYTE   N30  Fn3  v104
 BYTE   W36
 BYTE   N03  En3  v116
 BYTE   W08
 BYTE   N01  Fn3  v100
 BYTE   W04
 BYTE   N23  Gn3  v104
 BYTE   W28
// 003   ----------------------------------------
 BYTE   W08
 BYTE   N02  Dn3  v108
 BYTE   W08
 BYTE   N01  En3
 BYTE   W04
 BYTE   N24  Fn3
 BYTE   W36
 BYTE   N01  Dn3  v100
 BYTE   W04
 BYTE   Dn3  v088
 BYTE   W04
 BYTE   En3  v108
 BYTE   W04
 BYTE   N32  Fn3
 BYTE   W28
// 004   ----------------------------------------
 BYTE   W08
 BYTE   N02  En3  v116
 BYTE   W08
 BYTE   N01  Fn3  v096
 BYTE   W04
 BYTE   N32  Gn3  v100
 BYTE   W36
 BYTE   N04  Fn3  v108
 BYTE   W08
 BYTE   N01  Gn3  v100
 BYTE   W04
 BYTE   N32  An3  v108
 BYTE   W28
// 005   ----------------------------------------
 BYTE   W08
 BYTE   N13
 BYTE   W18
 BYTE   N14  Gn3
 BYTE   W18
 BYTE   Fn3  v116
 BYTE   W18
 BYTE   N12  Cn4  v108
 BYTE   W18
 BYTE   N04  As3
 BYTE   W12
 BYTE   N02  An3  v116
 BYTE   W04
// 006   ----------------------------------------
 BYTE   W08
 BYTE   N14
 BYTE   W18
 BYTE   N15  Gn3  v108
 BYTE   W18
 BYTE   N14  Fn3  v112
 BYTE   W18
 BYTE   En3  v120
 BYTE   W18
 BYTE   N04  Gn3  v100
 BYTE   W12
 BYTE   Fn3
 BYTE   W04
// 007   ----------------------------------------
 BYTE   W08
 BYTE   N16  En3  v116
 BYTE   W18
 BYTE   N12  Fn3  v104
 BYTE   W18
 BYTE   N06  Gn3  v108
 BYTE   W12
 BYTE   N40  En3
 BYTE   W16
 BYTE   GoTo
  POIN2 Label_7_01E58BA3
// 008   ----------------------------------------
 BYTE   W24
 BYTE   W07
 BYTE   FINE

//**************** Track 9 (Midi-Chn.8) ****************//

FE05AComradeEntersRSflame_009:
// 000   ----------------------------------------
 BYTE   KEYSH   FE05AComradeEntersRSflame_key+0
 BYTE   VOICE   36
 BYTE   W06
 BYTE   PAN   c_v-14
 BYTE   VOL   75*FE05AComradeEntersRSflame_mvl/mxv
 BYTE   W01
 BYTE   N03  Cn2  v104
 BYTE   W36
 BYTE   Gn2
 BYTE   W04
 BYTE   Cn3  v100
 BYTE   W04
 BYTE   Fn3  v096
 BYTE   W04
 BYTE   N05  Gn3  v108
 BYTE   W09
 BYTE   N02  Dn3  v088
 BYTE   W03
 BYTE   N32  Gn3  v096
 BYTE   W28
 BYTE   W01
// 001   ----------------------------------------
Label_8_01E58C73:
 BYTE   W08
 BYTE   PAN   c_v-14
 BYTE   VOL   75*FE05AComradeEntersRSflame_mvl/mxv
 BYTE   N02  Dn3  v104
 BYTE   W08
 BYTE   N01  En3
 BYTE   W04
 BYTE   N24  Fn3  v108
 BYTE   W36
 BYTE   N03  Fn3  v116
 BYTE   W04
 BYTE   En3  v100
 BYTE   W04
 BYTE   N02  Fn3  v072
 BYTE   W04
 BYTE   N04  Gn3  v100
 BYTE   W12
 BYTE   N11  En3  v112
 BYTE   W16
// 002   ----------------------------------------
 BYTE   W08
 BYTE   N02  Dn3  v108
 BYTE   W08
 BYTE   N01  En3
 BYTE   W04
 BYTE   N30  Fn3  v104
 BYTE   W36
 BYTE   N03  En3  v116
 BYTE   W08
 BYTE   N01  Fn3  v100
 BYTE   W04
 BYTE   N23  Gn3  v104
 BYTE   W28
// 003   ----------------------------------------
 BYTE   W08
 BYTE   N02  Dn3  v108
 BYTE   W08
 BYTE   N01  En3
 BYTE   W04
 BYTE   N24  Fn3
 BYTE   W36
 BYTE   N01  Dn3  v100
 BYTE   W04
 BYTE   Dn3  v088
 BYTE   W04
 BYTE   En3  v108
 BYTE   W04
 BYTE   N32  Fn3
 BYTE   W28
// 004   ----------------------------------------
 BYTE   W08
 BYTE   N02  En3  v116
 BYTE   W08
 BYTE   N01  Fn3  v096
 BYTE   W04
 BYTE   N32  Gn3  v100
 BYTE   W36
 BYTE   N04  Fn3  v108
 BYTE   W08
 BYTE   N01  Gn3  v100
 BYTE   W04
 BYTE   N32  An3  v108
 BYTE   W28
// 005   ----------------------------------------
 BYTE   W08
 BYTE   N13
 BYTE   W18
 BYTE   N14  Gn3
 BYTE   W18
 BYTE   Fn3  v116
 BYTE   W18
 BYTE   N12  Cn4  v108
 BYTE   W18
 BYTE   N04  As3
 BYTE   W12
 BYTE   N02  An3  v116
 BYTE   W04
// 006   ----------------------------------------
 BYTE   W08
 BYTE   N14
 BYTE   W18
 BYTE   N15  Gn3  v108
 BYTE   W18
 BYTE   N14  Fn3  v112
 BYTE   W18
 BYTE   En3  v120
 BYTE   W18
 BYTE   N04  Gn3  v100
 BYTE   W12
 BYTE   Fn3
 BYTE   W04
// 007   ----------------------------------------
 BYTE   W08
 BYTE   N16  En3  v116
 BYTE   W18
 BYTE   N12  Fn3  v104
 BYTE   W18
 BYTE   N06  Gn3  v108
 BYTE   W12
 BYTE   N40  En3
 BYTE   W16
 BYTE   GoTo
  POIN2 Label_8_01E58C73
// 008   ----------------------------------------
 BYTE   W24
 BYTE   W07
 BYTE   FINE

//**************** Track 10 (Midi-Chn.9) ****************//

FE05AComradeEntersRSflame_010:
// 000   ----------------------------------------
 BYTE   KEYSH   FE05AComradeEntersRSflame_key+0
 BYTE   VOICE   30
 BYTE   W06
 BYTE   VOL   75*FE05AComradeEntersRSflame_mvl/mxv
 BYTE   PAN   c_v-14
 BYTE   W01
 BYTE   N03  Cn2  v104
 BYTE   W36
 BYTE   Gn2
 BYTE   W04
 BYTE   Cn3  v100
 BYTE   W04
 BYTE   Fn3  v096
 BYTE   W04
 BYTE   N05  Gn3  v108
 BYTE   W09
 BYTE   N02  Dn3  v088
 BYTE   W03
 BYTE   N32  Gn3  v096
 BYTE   W28
 BYTE   W01
// 001   ----------------------------------------
Label_9_01E58D43:
 BYTE   W08
 BYTE   VOL   75*FE05AComradeEntersRSflame_mvl/mxv
 BYTE   PAN   c_v-14
 BYTE   N02  Dn3  v104
 BYTE   W08
 BYTE   N01  En3
 BYTE   W04
 BYTE   N24  Fn3  v108
 BYTE   W36
 BYTE   N03  Fn3  v116
 BYTE   W04
 BYTE   En3  v100
 BYTE   W04
 BYTE   N02  Fn3  v072
 BYTE   W04
 BYTE   N04  Gn3  v100
 BYTE   W12
 BYTE   N11  En3  v112
 BYTE   W16
// 002   ----------------------------------------
 BYTE   W08
 BYTE   N02  Dn3  v108
 BYTE   W08
 BYTE   N01  En3
 BYTE   W04
 BYTE   N30  Fn3  v104
 BYTE   W36
 BYTE   N03  En3  v116
 BYTE   W08
 BYTE   N01  Fn3  v100
 BYTE   W04
 BYTE   N23  Gn3  v104
 BYTE   W28
// 003   ----------------------------------------
 BYTE   W08
 BYTE   N02  Dn3  v108
 BYTE   W08
 BYTE   N01  En3
 BYTE   W04
 BYTE   N24  Fn3
 BYTE   W36
 BYTE   N01  Dn3  v100
 BYTE   W04
 BYTE   Dn3  v088
 BYTE   W04
 BYTE   En3  v108
 BYTE   W04
 BYTE   N32  Fn3
 BYTE   W28
// 004   ----------------------------------------
 BYTE   W08
 BYTE   N02  En3  v116
 BYTE   W08
 BYTE   N01  Fn3  v096
 BYTE   W04
 BYTE   N32  Gn3  v100
 BYTE   W36
 BYTE   N04  Fn3  v108
 BYTE   W08
 BYTE   N01  Gn3  v100
 BYTE   W04
 BYTE   N32  An3  v108
 BYTE   W28
// 005   ----------------------------------------
 BYTE   W08
 BYTE   N13
 BYTE   W18
 BYTE   N14  Gn3
 BYTE   W18
 BYTE   Fn3  v116
 BYTE   W18
 BYTE   N12  Cn4  v108
 BYTE   W18
 BYTE   N04  As3
 BYTE   W12
 BYTE   N02  An3  v116
 BYTE   W04
// 006   ----------------------------------------
 BYTE   W08
 BYTE   N14
 BYTE   W18
 BYTE   N15  Gn3  v108
 BYTE   W18
 BYTE   N14  Fn3  v112
 BYTE   W18
 BYTE   En3  v120
 BYTE   W18
 BYTE   N04  Gn3  v100
 BYTE   W12
 BYTE   Fn3
 BYTE   W04
// 007   ----------------------------------------
 BYTE   W08
 BYTE   N16  En3  v116
 BYTE   W18
 BYTE   N12  Fn3  v104
 BYTE   W18
 BYTE   N06  Gn3  v108
 BYTE   W12
 BYTE   N40  En3
 BYTE   W16
 BYTE   GoTo
  POIN2 Label_9_01E58D43
// 008   ----------------------------------------
 BYTE   W24
 BYTE   W07
 BYTE   FINE

//******************************************************//
	ALIGN 4

FE05AComradeEntersRSflame:
	BYTE	10	// NumTrks
	BYTE	0	// NumBlks
	BYTE	FE05AComradeEntersRSflame_pri	// Priority
	BYTE	FE05AComradeEntersRSflame_rev	// Reverb.
    
	POIN2	FE05AComradeEntersRSflame_grp
    
	POIN2	FE05AComradeEntersRSflame_001
	POIN2	FE05AComradeEntersRSflame_002
	POIN2	FE05AComradeEntersRSflame_003
	POIN2	FE05AComradeEntersRSflame_004
	POIN2	FE05AComradeEntersRSflame_005
	POIN2	FE05AComradeEntersRSflame_006
	POIN2	FE05AComradeEntersRSflame_007
	POIN2	FE05AComradeEntersRSflame_008
	POIN2	FE05AComradeEntersRSflame_009
	POIN2	FE05AComradeEntersRSflame_010

	
