//Event file generated from Sappy .s format.
	#include "MPlayDef.event"

	#define	FE05vsVeldSurfingKyogre_grp  voicegroup000
	#define	FE05vsVeldSurfingKyogre_pri  0
	#define	FE05vsVeldSurfingKyogre_rev  0
	#define	FE05vsVeldSurfingKyogre_mvl  127
	#define	FE05vsVeldSurfingKyogre_key  0
	#define	FE05vsVeldSurfingKyogre_tbs  1
	#define	FE05vsVeldSurfingKyogre_exg  0
	#define	FE05vsVeldSurfingKyogre_cmp  1

	// .rodata
	//	FE05vsVeldSurfingKyogre
	ALIGN 4


//**************** Track 1 (Midi-Chn.0) ****************//

FE05vsVeldSurfingKyogre_001:
// 000   ----------------------------------------
 BYTE   KEYSH   FE05vsVeldSurfingKyogre_key+0
Label_0_014B6802:
 BYTE   TEMPO   68*FE05vsVeldSurfingKyogre_tbs/2
 BYTE   VOICE   6
 BYTE   VOL   50*FE05vsVeldSurfingKyogre_mvl/mxv
 BYTE   N03  Dn4  v088
 BYTE   W03
 BYTE   Fs3
 BYTE   W03
 BYTE   En4
 BYTE   W03
 BYTE   Fs3
 BYTE   W03
 BYTE   Dn4  v092
 BYTE   W03
 BYTE   Fs3
 BYTE   W03
 BYTE   Cs4
 BYTE   W03
 BYTE   Fs3
 BYTE   W03
 BYTE   Dn4  v096
 BYTE   W03
 BYTE   Fs3
 BYTE   W03
 BYTE   En4
 BYTE   W03
 BYTE   Fs3
 BYTE   W03
 BYTE   Dn4  v100
 BYTE   W03
 BYTE   Fs3
 BYTE   W03
 BYTE   Cs4
 BYTE   W03
 BYTE   Fs3
 BYTE   W03
 BYTE   Dn4
 BYTE   W03
 BYTE   Fs3
 BYTE   W03
 BYTE   En4
 BYTE   W03
 BYTE   Fs3
 BYTE   W03
 BYTE   Dn4  v096
 BYTE   W03
 BYTE   Fs3
 BYTE   W03
 BYTE   Cs4
 BYTE   W03
 BYTE   Fs3
 BYTE   W03
 BYTE   Dn4  v092
 BYTE   W03
 BYTE   Fs3
 BYTE   W03
 BYTE   En4
 BYTE   W03
 BYTE   Fs3  v088
 BYTE   W03
 BYTE   Dn4
 BYTE   W03
 BYTE   Fs3
 BYTE   W03
 BYTE   Cs4  v080
 BYTE   W03
 BYTE   Fs3
 BYTE   W03
// 001   ----------------------------------------
 BYTE   W48
 BYTE   Ds4  v100
 BYTE   W03
 BYTE   Bn3
 BYTE   W03
 BYTE   Gn3
 BYTE   W03
 BYTE   Bn3
 BYTE   W03
 BYTE   Ds4  v096
 BYTE   W03
 BYTE   Bn3
 BYTE   W03
 BYTE   Gn3
 BYTE   W03
 BYTE   Bn3
 BYTE   W03
 BYTE   Ds4  v092
 BYTE   W03
 BYTE   Bn3
 BYTE   W03
 BYTE   Gn3
 BYTE   W03
 BYTE   Bn3
 BYTE   W03
 BYTE   Ds4  v088
 BYTE   W03
 BYTE   Bn3
 BYTE   W03
 BYTE   Gn3
 BYTE   W03
 BYTE   Bn3
 BYTE   W03
// 002   ----------------------------------------
 BYTE   W48
 BYTE   An3  v100
 BYTE   W03
 BYTE   Fn3
 BYTE   W03
 BYTE   Cs4
 BYTE   W03
 BYTE   Fn3
 BYTE   W03
 BYTE   An3  v096
 BYTE   W03
 BYTE   Fn3
 BYTE   W03
 BYTE   Cs4
 BYTE   W03
 BYTE   Fn3
 BYTE   W03
 BYTE   TEMPO   58*FE05vsVeldSurfingKyogre_tbs/2
 BYTE   An3  v092
 BYTE   W03
 BYTE   Fn3
 BYTE   W03
 BYTE   Cs4
 BYTE   W03
 BYTE   Fn3
 BYTE   W03
 BYTE   An3  v088
 BYTE   W03
 BYTE   Fn3
 BYTE   W03
 BYTE   Cs4
 BYTE   W03
 BYTE   Fn3
 BYTE   W02
 BYTE   TEMPO   74*FE05vsVeldSurfingKyogre_tbs/2
 BYTE   W01
// 003   ----------------------------------------
 BYTE   Bn3  v100
 BYTE   W03
 BYTE   Gn3
 BYTE   W03
 BYTE   Cs4
 BYTE   W03
 BYTE   Gn3
 BYTE   W03
 BYTE   Bn3
 BYTE   W03
 BYTE   Gn3
 BYTE   W03
 BYTE   Dn4
 BYTE   W03
 BYTE   Gn3
 BYTE   W03
 BYTE   Bn3
 BYTE   W03
 BYTE   Gn3
 BYTE   W03
 BYTE   Cs4
 BYTE   W03
 BYTE   Gn3
 BYTE   W03
 BYTE   Bn3
 BYTE   W03
 BYTE   Gn3
 BYTE   W03
 BYTE   Dn4
 BYTE   W03
 BYTE   Gn3
 BYTE   W03
 BYTE   Dn4
 BYTE   W03
 BYTE   Fs3
 BYTE   W03
 BYTE   En4
 BYTE   W03
 BYTE   Fs3
 BYTE   W03
 BYTE   Dn4
 BYTE   W03
 BYTE   Fs3
 BYTE   W03
 BYTE   Cs4
 BYTE   W03
 BYTE   Fs3
 BYTE   W03
 BYTE   Dn4
 BYTE   W03
 BYTE   Fs3
 BYTE   W03
 BYTE   En4
 BYTE   W03
 BYTE   Fs3
 BYTE   W03
 BYTE   Dn4
 BYTE   W03
 BYTE   Fs3
 BYTE   W03
 BYTE   Cs4
 BYTE   W03
 BYTE   Fs3
 BYTE   W03
// 004   ----------------------------------------
 BYTE   Dn4
 BYTE   W03
 BYTE   Fs3
 BYTE   W03
 BYTE   En4
 BYTE   W03
 BYTE   Fs3
 BYTE   W03
 BYTE   Dn4
 BYTE   W03
 BYTE   Fs3
 BYTE   W03
 BYTE   Cs4
 BYTE   W03
 BYTE   Fs3
 BYTE   W03
 BYTE   Dn4
 BYTE   W03
 BYTE   Fs3
 BYTE   W03
 BYTE   En4
 BYTE   W03
 BYTE   Fs3
 BYTE   W03
 BYTE   Dn4
 BYTE   W03
 BYTE   Fs3
 BYTE   W03
 BYTE   Cs4
 BYTE   W03
 BYTE   Fs3
 BYTE   W03
 BYTE   Dn4
 BYTE   W03
 BYTE   Fs3
 BYTE   W03
 BYTE   En4
 BYTE   W03
 BYTE   Fs3
 BYTE   W03
 BYTE   Dn4
 BYTE   W03
 BYTE   Fs3
 BYTE   W03
 BYTE   Cs4
 BYTE   W03
 BYTE   Fs3
 BYTE   W03
 BYTE   Dn4
 BYTE   W03
 BYTE   Fs3
 BYTE   W03
 BYTE   En4
 BYTE   W03
 BYTE   Fs3
 BYTE   W03
 BYTE   Fs4
 BYTE   W03
 BYTE   Fs3
 BYTE   W03
 BYTE   Gn4
 BYTE   W03
 BYTE   Fs3
 BYTE   W03
// 005   ----------------------------------------
 BYTE   Dn4
 BYTE   W03
 BYTE   Fs3
 BYTE   W03
 BYTE   En4
 BYTE   W03
 BYTE   Fs3
 BYTE   W03
 BYTE   Dn4
 BYTE   W03
 BYTE   Fs3
 BYTE   W03
 BYTE   Cs4
 BYTE   W03
 BYTE   Fs3
 BYTE   W03
 BYTE   Dn4
 BYTE   W03
 BYTE   Fs3
 BYTE   W03
 BYTE   En4
 BYTE   W03
 BYTE   Fs3
 BYTE   W03
 BYTE   Fs4
 BYTE   W03
 BYTE   Fs3
 BYTE   W03
 BYTE   Gn4
 BYTE   W03
 BYTE   Fs3
 BYTE   W03
 BYTE   Dn4
 BYTE   W03
 BYTE   Fs3
 BYTE   W03
 BYTE   Gn4
 BYTE   W03
 BYTE   Fs3
 BYTE   W03
 BYTE   Fs4
 BYTE   W03
 BYTE   Fs3
 BYTE   W03
 BYTE   Gn4
 BYTE   W03
 BYTE   Fs3
 BYTE   W03
 BYTE   Fs4
 BYTE   W03
 BYTE   Fs3
 BYTE   W03
 BYTE   Gn4
 BYTE   W03
 BYTE   Fs3
 BYTE   W03
 BYTE   Fs4
 BYTE   W03
 BYTE   Fs3
 BYTE   W03
 BYTE   Gn4
 BYTE   W03
 BYTE   Fs3
 BYTE   W03
// 006   ----------------------------------------
 BYTE   Dn4
 BYTE   W03
 BYTE   Fs3
 BYTE   W03
 BYTE   Gn4
 BYTE   W03
 BYTE   Fs3
 BYTE   W03
 BYTE   Dn4
 BYTE   W03
 BYTE   Fs3
 BYTE   W03
 BYTE   En4
 BYTE   W03
 BYTE   Fs3
 BYTE   W03
 BYTE   Dn4
 BYTE   W03
 BYTE   Fs3
 BYTE   W03
 BYTE   En4
 BYTE   W03
 BYTE   Fs3
 BYTE   W03
 BYTE   Dn4
 BYTE   W03
 BYTE   Fs3
 BYTE   W03
 BYTE   Cs4
 BYTE   W03
 BYTE   Fs3
 BYTE   W03
 BYTE   Dn4
 BYTE   W03
 BYTE   Fs3
 BYTE   W03
 BYTE   En4
 BYTE   W03
 BYTE   Fs3
 BYTE   W03
 BYTE   Dn4
 BYTE   W03
 BYTE   Fs3
 BYTE   W03
 BYTE   Cs4
 BYTE   W03
 BYTE   Fs3
 BYTE   W03
 BYTE   Dn4
 BYTE   W03
 BYTE   Fs3
 BYTE   W03
 BYTE   En4
 BYTE   W03
 BYTE   Fs3
 BYTE   W03
 BYTE   Dn4
 BYTE   W03
 BYTE   Fs3
 BYTE   W03
 BYTE   An4
 BYTE   W03
 BYTE   Fs3
 BYTE   W03
// 007   ----------------------------------------
 BYTE   Dn4
 BYTE   W03
 BYTE   Fs3
 BYTE   W03
 BYTE   En4
 BYTE   W03
 BYTE   Fs3
 BYTE   W03
 BYTE   Dn4
 BYTE   W03
 BYTE   Fs3
 BYTE   W03
 BYTE   An4
 BYTE   W03
 BYTE   Fs3
 BYTE   W03
 BYTE   Dn4
 BYTE   W03
 BYTE   Fs3
 BYTE   W03
 BYTE   En4
 BYTE   W03
 BYTE   Fs3
 BYTE   W03
 BYTE   Dn4
 BYTE   W03
 BYTE   Fs3
 BYTE   W03
 BYTE   Gn4
 BYTE   W03
 BYTE   Fs3
 BYTE   W03
 BYTE   Dn4
 BYTE   W03
 BYTE   Fs3
 BYTE   W03
 BYTE   En4
 BYTE   W03
 BYTE   Fs3
 BYTE   W03
 BYTE   Dn4
 BYTE   W03
 BYTE   Fs3
 BYTE   W03
 BYTE   Cs4
 BYTE   W03
 BYTE   Fs3
 BYTE   W03
 BYTE   Dn4
 BYTE   W03
 BYTE   Fs3
 BYTE   W03
 BYTE   En4
 BYTE   W03
 BYTE   Fs3
 BYTE   W03
 BYTE   Dn4
 BYTE   W03
 BYTE   Fs3
 BYTE   W03
 BYTE   Cs4
 BYTE   W03
 BYTE   Fs3
 BYTE   W03
// 008   ----------------------------------------
 BYTE   Dn4
 BYTE   W03
 BYTE   Fs3
 BYTE   W03
 BYTE   En4
 BYTE   W03
 BYTE   Fs3
 BYTE   W03
 BYTE   Dn4
 BYTE   W03
 BYTE   Fs3
 BYTE   W03
 BYTE   Cs4
 BYTE   W03
 BYTE   Fs3
 BYTE   W03
 BYTE   Dn4
 BYTE   W03
 BYTE   Fs3
 BYTE   W03
 BYTE   En4
 BYTE   W03
 BYTE   Fs3
 BYTE   W03
 BYTE   Dn4
 BYTE   W03
 BYTE   Fs3
 BYTE   W03
 BYTE   Cs4
 BYTE   W03
 BYTE   Fs3
 BYTE   W02
 BYTE   TEMPO   68*FE05vsVeldSurfingKyogre_tbs/2
 BYTE   W01
 BYTE   VOL   50*FE05vsVeldSurfingKyogre_mvl/mxv
 BYTE   N03  Dn4  v088
 BYTE   W03
 BYTE   Fs3
 BYTE   W03
 BYTE   En4
 BYTE   W03
 BYTE   Fs3
 BYTE   W03
 BYTE   Dn4  v092
 BYTE   W03
 BYTE   Fs3
 BYTE   W03
 BYTE   Cs4
 BYTE   W03
 BYTE   Fs3
 BYTE   W03
 BYTE   Dn4  v096
 BYTE   W03
 BYTE   Fs3
 BYTE   W03
 BYTE   En4
 BYTE   W03
 BYTE   Fs3
 BYTE   W03
 BYTE   Dn4  v100
 BYTE   W03
 BYTE   Fs3
 BYTE   W03
 BYTE   Cs4
 BYTE   W03
 BYTE   Fs3
 BYTE   W03
// 009   ----------------------------------------
 BYTE   Dn4
 BYTE   W03
 BYTE   Fs3
 BYTE   W03
 BYTE   En4
 BYTE   W03
 BYTE   Fs3
 BYTE   W03
 BYTE   Dn4  v096
 BYTE   W03
 BYTE   Fs3
 BYTE   W03
 BYTE   Cs4
 BYTE   W03
 BYTE   Fs3
 BYTE   W03
 BYTE   Dn4  v092
 BYTE   W03
 BYTE   Fs3
 BYTE   W03
 BYTE   En4
 BYTE   W03
 BYTE   Fs3  v088
 BYTE   W03
 BYTE   Dn4
 BYTE   W03
 BYTE   Fs3
 BYTE   W03
 BYTE   Cs4  v080
 BYTE   W03
 BYTE   Fs3
 BYTE   W48
 BYTE   W03
// 010   ----------------------------------------
 BYTE   Ds4  v100
 BYTE   W03
 BYTE   Bn3
 BYTE   W03
 BYTE   Gn3
 BYTE   W03
 BYTE   Bn3
 BYTE   W03
 BYTE   Ds4  v096
 BYTE   W03
 BYTE   Bn3
 BYTE   W03
 BYTE   Gn3
 BYTE   W03
 BYTE   Bn3
 BYTE   W03
 BYTE   Ds4  v092
 BYTE   W03
 BYTE   Bn3
 BYTE   W03
 BYTE   Gn3
 BYTE   W03
 BYTE   Bn3
 BYTE   W03
 BYTE   Ds4  v088
 BYTE   W03
 BYTE   Bn3
 BYTE   W03
 BYTE   Gn3
 BYTE   W03
 BYTE   Bn3
 BYTE   W48
 BYTE   W03
// 011   ----------------------------------------
 BYTE   An3  v100
 BYTE   W03
 BYTE   Fn3
 BYTE   W03
 BYTE   Cs4
 BYTE   W03
 BYTE   Fn3
 BYTE   W03
 BYTE   An3  v096
 BYTE   W03
 BYTE   Fn3
 BYTE   W03
 BYTE   Cs4
 BYTE   W03
 BYTE   Fn3
 BYTE   W03
 BYTE   TEMPO   58*FE05vsVeldSurfingKyogre_tbs/2
 BYTE   An3  v092
 BYTE   W03
 BYTE   Fn3
 BYTE   W03
 BYTE   Cs4
 BYTE   W03
 BYTE   Fn3
 BYTE   W03
 BYTE   An3  v088
 BYTE   W03
 BYTE   Fn3
 BYTE   W03
 BYTE   Cs4
 BYTE   W03
 BYTE   Fn3
 BYTE   W03
 BYTE   TEMPO   74*FE05vsVeldSurfingKyogre_tbs/2
 BYTE   Bn3  v100
 BYTE   W03
 BYTE   Gn3
 BYTE   W03
 BYTE   Cs4
 BYTE   W03
 BYTE   Gn3
 BYTE   W03
 BYTE   Bn3
 BYTE   W03
 BYTE   Gn3
 BYTE   W03
 BYTE   Dn4
 BYTE   W03
 BYTE   Gn3
 BYTE   W03
 BYTE   Bn3
 BYTE   W03
 BYTE   Gn3
 BYTE   W03
 BYTE   Cs4
 BYTE   W03
 BYTE   Gn3
 BYTE   W03
 BYTE   Bn3
 BYTE   W03
 BYTE   Gn3
 BYTE   W03
 BYTE   Dn4
 BYTE   W03
 BYTE   Gn3
 BYTE   W03
// 012   ----------------------------------------
Label_0_014B6ABE:
 BYTE   N03  Dn4  v100
 BYTE   W03
 BYTE   Fs3
 BYTE   W03
 BYTE   En4
 BYTE   W03
 BYTE   Fs3
 BYTE   W03
 BYTE   Dn4
 BYTE   W03
 BYTE   Fs3
 BYTE   W03
 BYTE   Cs4
 BYTE   W03
 BYTE   Fs3
 BYTE   W03
 BYTE   Dn4
 BYTE   W03
 BYTE   Fs3
 BYTE   W03
 BYTE   En4
 BYTE   W03
 BYTE   Fs3
 BYTE   W03
 BYTE   Dn4
 BYTE   W03
 BYTE   Fs3
 BYTE   W03
 BYTE   Cs4
 BYTE   W03
 BYTE   Fs3
 BYTE   W03
 BYTE   Dn4
 BYTE   W03
 BYTE   Fs3
 BYTE   W03
 BYTE   En4
 BYTE   W03
 BYTE   Fs3
 BYTE   W03
 BYTE   Dn4
 BYTE   W03
 BYTE   Fs3
 BYTE   W03
 BYTE   Cs4
 BYTE   W03
 BYTE   Fs3
 BYTE   W03
 BYTE   Dn4
 BYTE   W03
 BYTE   Fs3
 BYTE   W03
 BYTE   En4
 BYTE   W03
 BYTE   Fs3
 BYTE   W03
 BYTE   Dn4
 BYTE   W03
 BYTE   Fs3
 BYTE   W03
 BYTE   Cs4
 BYTE   W03
 BYTE   Fs3
 BYTE   W03
 BYTE   PEND 
// 013   ----------------------------------------
 BYTE   Dn4
 BYTE   W03
 BYTE   Fs3
 BYTE   W03
 BYTE   En4
 BYTE   W03
 BYTE   Fs3
 BYTE   W03
 BYTE   Dn4
 BYTE   W03
 BYTE   Fs3
 BYTE   W03
 BYTE   Cs4
 BYTE   W03
 BYTE   Fs3
 BYTE   W03
 BYTE   Dn4
 BYTE   W03
 BYTE   Fs3
 BYTE   W03
 BYTE   En4
 BYTE   W03
 BYTE   Fs3
 BYTE   W03
 BYTE   Fs4
 BYTE   W03
 BYTE   Fs3
 BYTE   W03
 BYTE   Gn4
 BYTE   W03
 BYTE   Fs3
 BYTE   W03
 BYTE   Dn4
 BYTE   W03
 BYTE   Fs3
 BYTE   W03
 BYTE   En4
 BYTE   W03
 BYTE   Fs3
 BYTE   W03
 BYTE   Dn4
 BYTE   W03
 BYTE   Fs3
 BYTE   W03
 BYTE   Cs4
 BYTE   W03
 BYTE   Fs3
 BYTE   W03
 BYTE   Dn4
 BYTE   W03
 BYTE   Fs3
 BYTE   W03
 BYTE   En4
 BYTE   W03
 BYTE   Fs3
 BYTE   W03
 BYTE   Fs4
 BYTE   W03
 BYTE   Fs3
 BYTE   W03
 BYTE   Gn4
 BYTE   W03
 BYTE   Fs3
 BYTE   W03
// 014   ----------------------------------------
 BYTE   Dn4
 BYTE   W03
 BYTE   Fs3
 BYTE   W03
 BYTE   Gn4
 BYTE   W03
 BYTE   Fs3
 BYTE   W03
 BYTE   Fs4
 BYTE   W03
 BYTE   Fs3
 BYTE   W03
 BYTE   Gn4
 BYTE   W03
 BYTE   Fs3
 BYTE   W03
 BYTE   Fs4
 BYTE   W03
 BYTE   Fs3
 BYTE   W03
 BYTE   Gn4
 BYTE   W03
 BYTE   Fs3
 BYTE   W03
 BYTE   Fs4
 BYTE   W03
 BYTE   Fs3
 BYTE   W03
 BYTE   Gn4
 BYTE   W03
 BYTE   Fs3
 BYTE   W03
 BYTE   Dn4
 BYTE   W03
 BYTE   Fs3
 BYTE   W03
 BYTE   Gn4
 BYTE   W03
 BYTE   Fs3
 BYTE   W03
 BYTE   Dn4
 BYTE   W03
 BYTE   Fs3
 BYTE   W03
 BYTE   En4
 BYTE   W03
 BYTE   Fs3
 BYTE   W03
 BYTE   Dn4
 BYTE   W03
 BYTE   Fs3
 BYTE   W03
 BYTE   En4
 BYTE   W03
 BYTE   Fs3
 BYTE   W03
 BYTE   Dn4
 BYTE   W03
 BYTE   Fs3
 BYTE   W03
 BYTE   Cs4
 BYTE   W03
 BYTE   Fs3
 BYTE   W03
// 015   ----------------------------------------
 BYTE   Dn4
 BYTE   W03
 BYTE   Fs3
 BYTE   W03
 BYTE   En4
 BYTE   W03
 BYTE   Fs3
 BYTE   W03
 BYTE   Dn4
 BYTE   W03
 BYTE   Fs3
 BYTE   W03
 BYTE   Cs4
 BYTE   W03
 BYTE   Fs3
 BYTE   W03
 BYTE   Dn4
 BYTE   W03
 BYTE   Fs3
 BYTE   W03
 BYTE   En4
 BYTE   W03
 BYTE   Fs3
 BYTE   W03
 BYTE   Dn4
 BYTE   W03
 BYTE   Fs3
 BYTE   W03
 BYTE   An4
 BYTE   W03
 BYTE   Fs3
 BYTE   W03
 BYTE   Dn4
 BYTE   W03
 BYTE   Fs3
 BYTE   W03
 BYTE   En4
 BYTE   W03
 BYTE   Fs3
 BYTE   W03
 BYTE   Dn4
 BYTE   W03
 BYTE   Fs3
 BYTE   W03
 BYTE   An4
 BYTE   W03
 BYTE   Fs3
 BYTE   W03
 BYTE   Dn4
 BYTE   W03
 BYTE   Fs3
 BYTE   W03
 BYTE   En4
 BYTE   W03
 BYTE   Fs3
 BYTE   W03
 BYTE   Dn4
 BYTE   W03
 BYTE   Fs3
 BYTE   W03
 BYTE   Gn4
 BYTE   W03
 BYTE   Fs3
 BYTE   W03
 BYTE   PATT
  POIN2 Label_0_014B6ABE
// 016   ----------------------------------------
 BYTE   GoTo
  POIN2 Label_0_014B6802
 BYTE   FINE

//**************** Track 2 (Midi-Chn.1) ****************//

FE05vsVeldSurfingKyogre_002:
// 000   ----------------------------------------
 BYTE   KEYSH   FE05vsVeldSurfingKyogre_key+0
Label_1_014B6BCE:
 BYTE   VOICE   41
 BYTE   VOL   52*FE05vsVeldSurfingKyogre_mvl/mxv
 BYTE   W96
// 001   ----------------------------------------
 BYTE   N48  Gn3  v100
 BYTE   N48  Gn4
 BYTE   W48
 BYTE   Ds3  v092
 BYTE   N48  Ds4
 BYTE   W48
// 002   ----------------------------------------
 BYTE   Fn3  v100
 BYTE   N48  Fn4
 BYTE   W48
 BYTE   Cs3  v088
 BYTE   N48  Cs4
 BYTE   W48
// 003   ----------------------------------------
 BYTE   Bn2  v100
 BYTE   N48  Bn3
 BYTE   W48
 BYTE   N96  Gn3
 BYTE   N96  Gn4
 BYTE   W48
// 004   ----------------------------------------
 BYTE   W48
 BYTE   N48  Fs3
 BYTE   N48  Fs4
 BYTE   W48
// 005   ----------------------------------------
 BYTE   N72  En3
 BYTE   N72  En4
 BYTE   W72
 BYTE   N24  Bn3
 BYTE   N24  Bn4
 BYTE   W24
// 006   ----------------------------------------
 BYTE   N96  An3
 BYTE   N96  An4
 BYTE   W96
// 007   ----------------------------------------
 BYTE   Gn3
 BYTE   N96  Gn4
 BYTE   W96
// 008   ----------------------------------------
 BYTE   N24  En3
 BYTE   N24  En4
 BYTE   W24
 BYTE   Fs3
 BYTE   N24  Fs4
 BYTE   W24
 BYTE   VOL   52*FE05vsVeldSurfingKyogre_mvl/mxv
 BYTE   W48
// 009   ----------------------------------------
 BYTE   W48
 BYTE   N48  Gn3
 BYTE   N48  Gn4
 BYTE   W48
// 010   ----------------------------------------
 BYTE   Ds3  v092
 BYTE   N48  Ds4
 BYTE   W48
 BYTE   Fn3  v100
 BYTE   N48  Fn4
 BYTE   W48
// 011   ----------------------------------------
 BYTE   Cs3  v088
 BYTE   N48  Cs4
 BYTE   W48
 BYTE   Bn2  v100
 BYTE   N48  Bn3
 BYTE   W48
// 012   ----------------------------------------
 BYTE   N96  Gn3
 BYTE   N96  Gn4
 BYTE   W96
// 013   ----------------------------------------
 BYTE   N48  Fs3
 BYTE   N48  Fs4
 BYTE   W48
 BYTE   N72  En3
 BYTE   N72  En4
 BYTE   W48
// 014   ----------------------------------------
 BYTE   W24
 BYTE   N24  Bn3
 BYTE   N24  Bn4
 BYTE   W24
 BYTE   N96  An3
 BYTE   N96  An4
 BYTE   W48
// 015   ----------------------------------------
 BYTE   W48
 BYTE   Gn3
 BYTE   N96  Gn4
 BYTE   W48
// 016   ----------------------------------------
 BYTE   W48
 BYTE   N24  En3
 BYTE   N24  En4
 BYTE   W24
 BYTE   Fs3
 BYTE   N24  Fs4
 BYTE   W24
// 017   ----------------------------------------
 BYTE   GoTo
  POIN2 Label_1_014B6BCE
 BYTE   FINE

//**************** Track 3 (Midi-Chn.2) ****************//

FE05vsVeldSurfingKyogre_003:
// 000   ----------------------------------------
 BYTE   KEYSH   FE05vsVeldSurfingKyogre_key+0
Label_2_014B6C62:
 BYTE   VOICE   41
 BYTE   VOL   52*FE05vsVeldSurfingKyogre_mvl/mxv
 BYTE   W96
// 001   ----------------------------------------
 BYTE   N48  Ds3  v100
 BYTE   N48  Ds4
 BYTE   W48
 BYTE   Bn2  v092
 BYTE   N48  Bn3
 BYTE   W48
// 002   ----------------------------------------
 BYTE   Cn3  v100
 BYTE   N48  Cn4
 BYTE   W48
 BYTE   Gs2  v088
 BYTE   N48  Gs3
 BYTE   W48
// 003   ----------------------------------------
 BYTE   Fs2  v100
 BYTE   N48  Fs3
 BYTE   W48
 BYTE   Dn3
 BYTE   N48  Dn4
 BYTE   W48
// 004   ----------------------------------------
 BYTE   N96  Cs3
 BYTE   N96  Cs4
 BYTE   W96
// 005   ----------------------------------------
 BYTE   Bn2
 BYTE   N96  Bn3
 BYTE   W96
// 006   ----------------------------------------
 BYTE   An2
 BYTE   N96  An3  v088
 BYTE   W96
// 007   ----------------------------------------
 BYTE   N48  Dn3  v100
 BYTE   N48  Dn4
 BYTE   W48
 BYTE   Cs3
 BYTE   N48  Cs4
 BYTE   W48
// 008   ----------------------------------------
 BYTE   Dn3
 BYTE   N48  Dn4
 BYTE   W48
 BYTE   VOL   52*FE05vsVeldSurfingKyogre_mvl/mxv
 BYTE   W48
// 009   ----------------------------------------
 BYTE   W48
 BYTE   N48  Ds3
 BYTE   N48  Ds4
 BYTE   W48
// 010   ----------------------------------------
 BYTE   Bn2  v092
 BYTE   N48  Bn3
 BYTE   W48
 BYTE   Cn3  v100
 BYTE   N48  Cn4
 BYTE   W48
// 011   ----------------------------------------
 BYTE   Gs2  v088
 BYTE   N48  Gs3
 BYTE   W48
 BYTE   Fs2  v100
 BYTE   N48  Fs3
 BYTE   W48
// 012   ----------------------------------------
 BYTE   Dn3
 BYTE   N48  Dn4
 BYTE   W48
 BYTE   N96  Cs3
 BYTE   N96  Cs4
 BYTE   W48
// 013   ----------------------------------------
 BYTE   W48
 BYTE   Bn2
 BYTE   N96  Bn3
 BYTE   W48
// 014   ----------------------------------------
 BYTE   W48
 BYTE   An2
 BYTE   N96  An3  v088
 BYTE   W48
// 015   ----------------------------------------
 BYTE   W48
 BYTE   N48  Dn3  v100
 BYTE   N48  Dn4
 BYTE   W48
// 016   ----------------------------------------
 BYTE   Cs3
 BYTE   N48  Cs4
 BYTE   W48
 BYTE   Dn3
 BYTE   N48  Dn4
 BYTE   W48
// 017   ----------------------------------------
 BYTE   GoTo
  POIN2 Label_2_014B6C62
 BYTE   FINE

//**************** Track 4 (Midi-Chn.3) ****************//

FE05vsVeldSurfingKyogre_004:
// 000   ----------------------------------------
 BYTE   KEYSH   FE05vsVeldSurfingKyogre_key+0
Label_3_014B6CEA:
 BYTE   VOICE   41
 BYTE   VOL   57*FE05vsVeldSurfingKyogre_mvl/mxv
 BYTE   W96
// 001   ----------------------------------------
 BYTE   N48  Bn1  v100
 BYTE   W96
// 002   ----------------------------------------
 BYTE   N48
 BYTE   W96
// 003   ----------------------------------------
 BYTE   N96
 BYTE   W96
// 004   ----------------------------------------
 BYTE   An1
 BYTE   W96
// 005   ----------------------------------------
 BYTE   Gn1
 BYTE   W96
// 006   ----------------------------------------
 BYTE   Fs1
 BYTE   W96
// 007   ----------------------------------------
 BYTE   N48  Bn1
 BYTE   W48
 BYTE   Cs2
 BYTE   W48
// 008   ----------------------------------------
 BYTE   Dn2
 BYTE   W48
 BYTE   VOL   57*FE05vsVeldSurfingKyogre_mvl/mxv
 BYTE   W48
// 009   ----------------------------------------
 BYTE   W48
 BYTE   N48  Bn1
 BYTE   W48
// 010   ----------------------------------------
 BYTE   W48
 BYTE   N48
 BYTE   W48
// 011   ----------------------------------------
 BYTE   W48
 BYTE   N96
 BYTE   W48
// 012   ----------------------------------------
 BYTE   W48
 BYTE   An1
 BYTE   W48
// 013   ----------------------------------------
 BYTE   W48
 BYTE   Gn1
 BYTE   W48
// 014   ----------------------------------------
 BYTE   W48
 BYTE   Fs1
 BYTE   W48
// 015   ----------------------------------------
 BYTE   W48
 BYTE   N48  Bn1
 BYTE   W48
// 016   ----------------------------------------
 BYTE   Cs2
 BYTE   W48
 BYTE   Dn2
 BYTE   W48
// 017   ----------------------------------------
 BYTE   GoTo
  POIN2 Label_3_014B6CEA
 BYTE   FINE

//**************** Track 5 (Midi-Chn.4) ****************//

FE05vsVeldSurfingKyogre_005:
// 000   ----------------------------------------
 BYTE   KEYSH   FE05vsVeldSurfingKyogre_key+0
Label_4_014B6D2A:
 BYTE   VOICE   41
 BYTE   VOL   57*FE05vsVeldSurfingKyogre_mvl/mxv
 BYTE   W96
// 001   ----------------------------------------
 BYTE   N48  Gn2  v100
 BYTE   W48
 BYTE   Ds2  v092
 BYTE   W48
// 002   ----------------------------------------
 BYTE   Fn2  v100
 BYTE   W48
 BYTE   Cs2  v088
 BYTE   W48
// 003   ----------------------------------------
 BYTE   W96
// 004   ----------------------------------------
 BYTE   W96
// 005   ----------------------------------------
 BYTE   W96
// 006   ----------------------------------------
 BYTE   W96
// 007   ----------------------------------------
 BYTE   W96
// 008   ----------------------------------------
 BYTE   W48
 BYTE   VOL   57*FE05vsVeldSurfingKyogre_mvl/mxv
 BYTE   W48
// 009   ----------------------------------------
 BYTE   W48
 BYTE   N48  Gn2  v100
 BYTE   W48
// 010   ----------------------------------------
 BYTE   Ds2  v092
 BYTE   W48
 BYTE   Fn2  v100
 BYTE   W48
// 011   ----------------------------------------
 BYTE   Cs2  v088
 BYTE   W96
// 012   ----------------------------------------
 BYTE   W96
// 013   ----------------------------------------
 BYTE   W96
// 014   ----------------------------------------
 BYTE   W96
// 015   ----------------------------------------
 BYTE   W96
// 016   ----------------------------------------
 BYTE   W96
// 017   ----------------------------------------
 BYTE   GoTo
  POIN2 Label_4_014B6D2A
 BYTE   FINE

//**************** Track 6 (Midi-Chn.5) ****************//

FE05vsVeldSurfingKyogre_006:
// 000   ----------------------------------------
 BYTE   KEYSH   FE05vsVeldSurfingKyogre_key+0
Label_5_014B6D62:
 BYTE   VOICE   60
 BYTE   VOL   62*FE05vsVeldSurfingKyogre_mvl/mxv
 BYTE   W96
// 001   ----------------------------------------
 BYTE   W96
// 002   ----------------------------------------
 BYTE   W96
// 003   ----------------------------------------
 BYTE   W48
 BYTE   N96  Gn2  v100
 BYTE   W48
// 004   ----------------------------------------
 BYTE   W48
 BYTE   N48  An2
 BYTE   W48
// 005   ----------------------------------------
 BYTE   N24  Gn2
 BYTE   W24
 BYTE   Ds2
 BYTE   W24
 BYTE   En2
 BYTE   W24
 BYTE   Gn2
 BYTE   W24
// 006   ----------------------------------------
 BYTE   N48  En2
 BYTE   W48
 BYTE   Dn2
 BYTE   W48
// 007   ----------------------------------------
 BYTE   Gn2
 BYTE   W48
 BYTE   An2
 BYTE   W48
// 008   ----------------------------------------
 BYTE   N48
 BYTE   W48
 BYTE   VOL   62*FE05vsVeldSurfingKyogre_mvl/mxv
 BYTE   W48
// 009   ----------------------------------------
 BYTE   W96
// 010   ----------------------------------------
 BYTE   W96
// 011   ----------------------------------------
 BYTE   W96
// 012   ----------------------------------------
 BYTE   N96  Gn2
 BYTE   W96
// 013   ----------------------------------------
 BYTE   N48  An2
 BYTE   W48
 BYTE   N24  Gn2
 BYTE   W24
 BYTE   Ds2
 BYTE   W24
// 014   ----------------------------------------
 BYTE   En2
 BYTE   W24
 BYTE   Gn2
 BYTE   W24
 BYTE   N48  En2
 BYTE   W48
// 015   ----------------------------------------
 BYTE   Dn2
 BYTE   W48
 BYTE   Gn2
 BYTE   W48
// 016   ----------------------------------------
 BYTE   An2
 BYTE   W48
 BYTE   N48
 BYTE   W48
// 017   ----------------------------------------
 BYTE   GoTo
  POIN2 Label_5_014B6D62
 BYTE   FINE

//**************** Track 7 (Midi-Chn.6) ****************//

FE05vsVeldSurfingKyogre_007:
// 000   ----------------------------------------
 BYTE   KEYSH   FE05vsVeldSurfingKyogre_key+0
Label_6_014B6DAE:
 BYTE   VOICE   47
 BYTE   VOL   40*FE05vsVeldSurfingKyogre_mvl/mxv
 BYTE   N24  Fn2  v100
 BYTE   W24
 BYTE   N24
 BYTE   W24
 BYTE   N24
 BYTE   W24
 BYTE   N24
 BYTE   W24
// 001   ----------------------------------------
Label_6_014B6DBC:
 BYTE   N24  Fn2  v100
 BYTE   W24
 BYTE   N24
 BYTE   W24
 BYTE   N24
 BYTE   W24
 BYTE   N24
 BYTE   W24
 BYTE   PEND 
// 002   ----------------------------------------
 BYTE   N24
 BYTE   W24
 BYTE   N24
 BYTE   W24
 BYTE   N24
 BYTE   W24
 BYTE   N12
 BYTE   W12
 BYTE   N06
 BYTE   W06
 BYTE   N03
 BYTE   W03
 BYTE   N03
 BYTE   W03
// 003   ----------------------------------------
 BYTE   N18  Bn2
 BYTE   W18
 BYTE   N06
 BYTE   W06
 BYTE   N18
 BYTE   W18
 BYTE   N06
 BYTE   W06
 BYTE   N18
 BYTE   W18
 BYTE   N06
 BYTE   W06
 BYTE   N18
 BYTE   W18
 BYTE   N03  Cs3
 BYTE   W03
 BYTE   N03
 BYTE   W03
// 004   ----------------------------------------
 BYTE   N18  Gs2
 BYTE   W18
 BYTE   N03
 BYTE   W03
 BYTE   N03
 BYTE   W03
 BYTE   N18
 BYTE   W18
 BYTE   N03
 BYTE   W03
 BYTE   Cs3
 BYTE   W03
 BYTE   N18  Gs2
 BYTE   W18
 BYTE   N06
 BYTE   W06
 BYTE   N18
 BYTE   W18
 BYTE   N03  Cs3
 BYTE   W03
 BYTE   N03
 BYTE   W03
// 005   ----------------------------------------
 BYTE   N18  Bn2
 BYTE   W18
 BYTE   N06
 BYTE   W06
 BYTE   N18
 BYTE   W18
 BYTE   N06
 BYTE   W06
 BYTE   N18
 BYTE   W18
 BYTE   N12
 BYTE   W12
 BYTE   N12
 BYTE   W12
 BYTE   N06
 BYTE   W06
// 006   ----------------------------------------
 BYTE   N18  Gs2
 BYTE   W18
 BYTE   N06
 BYTE   W06
 BYTE   N18
 BYTE   W18
 BYTE   N06
 BYTE   W06
 BYTE   N18
 BYTE   W18
 BYTE   N06
 BYTE   W06
 BYTE   N18
 BYTE   W18
 BYTE   N03
 BYTE   W03
 BYTE   N03
 BYTE   W03
// 007   ----------------------------------------
 BYTE   N18  Bn2
 BYTE   W18
 BYTE   N06
 BYTE   W06
 BYTE   N18
 BYTE   W18
 BYTE   N03
 BYTE   W03
 BYTE   N03
 BYTE   W03
 BYTE   N18  Gs2
 BYTE   W18
 BYTE   N06
 BYTE   W06
 BYTE   N18
 BYTE   W18
 BYTE   N03
 BYTE   W03
 BYTE   N03
 BYTE   W03
// 008   ----------------------------------------
 BYTE   N18
 BYTE   W18
 BYTE   N06
 BYTE   W06
 BYTE   N18
 BYTE   W18
 BYTE   N06
 BYTE   W06
 BYTE   VOL   40*FE05vsVeldSurfingKyogre_mvl/mxv
 BYTE   N24  Fn2
 BYTE   W24
 BYTE   N24
 BYTE   W24
 BYTE   PATT
  POIN2 Label_6_014B6DBC
 BYTE   PATT
  POIN2 Label_6_014B6DBC
// 009   ----------------------------------------
 BYTE   N24  Fn2  v100
 BYTE   W24
 BYTE   N12
 BYTE   W12
 BYTE   N06
 BYTE   W06
 BYTE   N03
 BYTE   W03
 BYTE   N03
 BYTE   W03
 BYTE   N18  Bn2
 BYTE   W18
 BYTE   N06
 BYTE   W06
 BYTE   N18
 BYTE   W18
 BYTE   N06
 BYTE   W06
// 010   ----------------------------------------
 BYTE   N18
 BYTE   W18
 BYTE   N06
 BYTE   W06
 BYTE   N18
 BYTE   W18
 BYTE   N03  Cs3
 BYTE   W03
 BYTE   N03
 BYTE   W03
 BYTE   N18  Gs2
 BYTE   W18
 BYTE   N03
 BYTE   W03
 BYTE   N03
 BYTE   W03
 BYTE   N18
 BYTE   W18
 BYTE   N03
 BYTE   W03
 BYTE   Cs3
 BYTE   W03
// 011   ----------------------------------------
 BYTE   N18  Gs2
 BYTE   W18
 BYTE   N06
 BYTE   W06
 BYTE   N18
 BYTE   W18
 BYTE   N03  Cs3
 BYTE   W03
 BYTE   N03
 BYTE   W03
 BYTE   N18  Bn2
 BYTE   W18
 BYTE   N06
 BYTE   W06
 BYTE   N18
 BYTE   W18
 BYTE   N06
 BYTE   W06
// 012   ----------------------------------------
 BYTE   N18
 BYTE   W18
 BYTE   N12
 BYTE   W12
 BYTE   N12
 BYTE   W12
 BYTE   N06
 BYTE   W06
 BYTE   N18  Gs2
 BYTE   W18
 BYTE   N06
 BYTE   W06
 BYTE   N18
 BYTE   W18
 BYTE   N06
 BYTE   W06
// 013   ----------------------------------------
 BYTE   N18
 BYTE   W18
 BYTE   N06
 BYTE   W06
 BYTE   N18
 BYTE   W18
 BYTE   N03
 BYTE   W03
 BYTE   N03
 BYTE   W03
 BYTE   N18  Bn2
 BYTE   W18
 BYTE   N06
 BYTE   W06
 BYTE   N18
 BYTE   W18
 BYTE   N03
 BYTE   W03
 BYTE   N03
 BYTE   W03
// 014   ----------------------------------------
 BYTE   N18  Gs2
 BYTE   W18
 BYTE   N06
 BYTE   W06
 BYTE   N18
 BYTE   W18
 BYTE   N03
 BYTE   W03
 BYTE   N03
 BYTE   W03
 BYTE   N18
 BYTE   W18
 BYTE   N06
 BYTE   W06
 BYTE   N18
 BYTE   W18
 BYTE   N06
 BYTE   W06
// 015   ----------------------------------------
 BYTE   GoTo
  POIN2 Label_6_014B6DAE
 BYTE   FINE

//**************** Track 8 (Midi-Chn.7) ****************//

FE05vsVeldSurfingKyogre_008:
// 000   ----------------------------------------
 BYTE   KEYSH   FE05vsVeldSurfingKyogre_key+0
Label_7_014B6EDA:
 BYTE   VOICE   47
 BYTE   VOL   49*FE05vsVeldSurfingKyogre_mvl/mxv
 BYTE   N24  Fn1  v100
 BYTE   W24
 BYTE   N24
 BYTE   W24
 BYTE   N24
 BYTE   W24
 BYTE   N24
 BYTE   W24
// 001   ----------------------------------------
Label_7_014B6EE8:
 BYTE   N24  Fn1  v100
 BYTE   W24
 BYTE   N24
 BYTE   W24
 BYTE   N24
 BYTE   W24
 BYTE   N24
 BYTE   W24
 BYTE   PEND 
// 002   ----------------------------------------
 BYTE   N24
 BYTE   W24
 BYTE   N24
 BYTE   W24
 BYTE   N24
 BYTE   W24
 BYTE   N12
 BYTE   W12
 BYTE   N06
 BYTE   W06
 BYTE   N03
 BYTE   W03
 BYTE   N03
 BYTE   W03
// 003   ----------------------------------------
 BYTE   N18  Bn1
 BYTE   W18
 BYTE   N06
 BYTE   W06
 BYTE   N18
 BYTE   W18
 BYTE   N06
 BYTE   W06
 BYTE   N18
 BYTE   W18
 BYTE   N06
 BYTE   W06
 BYTE   N18
 BYTE   W18
 BYTE   N03  Cs2
 BYTE   W03
 BYTE   N03
 BYTE   W03
// 004   ----------------------------------------
 BYTE   N18  Gs1
 BYTE   W18
 BYTE   N03
 BYTE   W03
 BYTE   N03
 BYTE   W03
 BYTE   N18
 BYTE   W18
 BYTE   N03
 BYTE   W03
 BYTE   Cs2
 BYTE   W03
 BYTE   N18  Gs1
 BYTE   W18
 BYTE   N06
 BYTE   W06
 BYTE   N18
 BYTE   W18
 BYTE   N03  Cs2
 BYTE   W03
 BYTE   N03
 BYTE   W03
// 005   ----------------------------------------
 BYTE   N18  Bn1
 BYTE   W18
 BYTE   N06
 BYTE   W06
 BYTE   N18
 BYTE   W18
 BYTE   N06
 BYTE   W06
 BYTE   N18
 BYTE   W18
 BYTE   N12
 BYTE   W12
 BYTE   N12
 BYTE   W12
 BYTE   N06
 BYTE   W06
// 006   ----------------------------------------
 BYTE   N18  Gs1
 BYTE   W18
 BYTE   N06
 BYTE   W06
 BYTE   N18
 BYTE   W18
 BYTE   N06
 BYTE   W06
 BYTE   N18
 BYTE   W18
 BYTE   N06
 BYTE   W06
 BYTE   N18
 BYTE   W18
 BYTE   N03
 BYTE   W03
 BYTE   N03
 BYTE   W03
// 007   ----------------------------------------
 BYTE   N18  Bn1
 BYTE   W18
 BYTE   N06
 BYTE   W06
 BYTE   N18
 BYTE   W18
 BYTE   N03
 BYTE   W03
 BYTE   N03
 BYTE   W03
 BYTE   N18  Gs1
 BYTE   W18
 BYTE   N06
 BYTE   W06
 BYTE   N18
 BYTE   W18
 BYTE   N03
 BYTE   W03
 BYTE   N03
 BYTE   W03
// 008   ----------------------------------------
 BYTE   N18
 BYTE   W18
 BYTE   N06
 BYTE   W06
 BYTE   N18
 BYTE   W18
 BYTE   N06
 BYTE   W06
 BYTE   VOL   49*FE05vsVeldSurfingKyogre_mvl/mxv
 BYTE   N24  Fn1
 BYTE   W24
 BYTE   N24
 BYTE   W24
 BYTE   PATT
  POIN2 Label_7_014B6EE8
 BYTE   PATT
  POIN2 Label_7_014B6EE8
// 009   ----------------------------------------
 BYTE   N24  Fn1  v100
 BYTE   W24
 BYTE   N12
 BYTE   W12
 BYTE   N06
 BYTE   W06
 BYTE   N03
 BYTE   W03
 BYTE   N03
 BYTE   W03
 BYTE   N18  Bn1
 BYTE   W18
 BYTE   N06
 BYTE   W06
 BYTE   N18
 BYTE   W18
 BYTE   N06
 BYTE   W06
// 010   ----------------------------------------
 BYTE   N18
 BYTE   W18
 BYTE   N06
 BYTE   W06
 BYTE   N18
 BYTE   W18
 BYTE   N03  Cs2
 BYTE   W03
 BYTE   N03
 BYTE   W03
 BYTE   N18  Gs1
 BYTE   W18
 BYTE   N03
 BYTE   W03
 BYTE   N03
 BYTE   W03
 BYTE   N18
 BYTE   W18
 BYTE   N03
 BYTE   W03
 BYTE   Cs2
 BYTE   W03
// 011   ----------------------------------------
 BYTE   N18  Gs1
 BYTE   W18
 BYTE   N06
 BYTE   W06
 BYTE   N18
 BYTE   W18
 BYTE   N03  Cs2
 BYTE   W03
 BYTE   N03
 BYTE   W03
 BYTE   N18  Bn1
 BYTE   W18
 BYTE   N06
 BYTE   W06
 BYTE   N18
 BYTE   W18
 BYTE   N06
 BYTE   W06
// 012   ----------------------------------------
 BYTE   N18
 BYTE   W18
 BYTE   N12
 BYTE   W12
 BYTE   N12
 BYTE   W12
 BYTE   N06
 BYTE   W06
 BYTE   N18  Gs1
 BYTE   W18
 BYTE   N06
 BYTE   W06
 BYTE   N18
 BYTE   W18
 BYTE   N06
 BYTE   W06
// 013   ----------------------------------------
 BYTE   N18
 BYTE   W18
 BYTE   N06
 BYTE   W06
 BYTE   N18
 BYTE   W18
 BYTE   N03
 BYTE   W03
 BYTE   N03
 BYTE   W03
 BYTE   N18  Bn1
 BYTE   W18
 BYTE   N06
 BYTE   W06
 BYTE   N18
 BYTE   W18
 BYTE   N03
 BYTE   W03
 BYTE   N03
 BYTE   W03
// 014   ----------------------------------------
 BYTE   N18  Gs1
 BYTE   W18
 BYTE   N06
 BYTE   W06
 BYTE   N18
 BYTE   W18
 BYTE   N03
 BYTE   W03
 BYTE   N03
 BYTE   W03
 BYTE   N18
 BYTE   W18
 BYTE   N06
 BYTE   W06
 BYTE   N18
 BYTE   W18
 BYTE   N06
 BYTE   W06
// 015   ----------------------------------------
 BYTE   GoTo
  POIN2 Label_7_014B6EDA
 BYTE   FINE

//******************************************************//
	ALIGN 4

FE05vsVeldSurfingKyogre:
	BYTE	8	// NumTrks
	BYTE	0	// NumBlks
	BYTE	FE05vsVeldSurfingKyogre_pri	// Priority
	BYTE	FE05vsVeldSurfingKyogre_rev	// Reverb.
    
	POIN2	FE05vsVeldSurfingKyogre_grp
    
	POIN2	FE05vsVeldSurfingKyogre_001
	POIN2	FE05vsVeldSurfingKyogre_002
	POIN2	FE05vsVeldSurfingKyogre_003
	POIN2	FE05vsVeldSurfingKyogre_004
	POIN2	FE05vsVeldSurfingKyogre_005
	POIN2	FE05vsVeldSurfingKyogre_006
	POIN2	FE05vsVeldSurfingKyogre_007
	POIN2	FE05vsVeldSurfingKyogre_008

	
