//Event file generated from Sappy .s format.
	#include "MPlayDef.event"

	#define	FE05SquadronADolkar_grp  voicegroup000
	#define	FE05SquadronADolkar_pri  0
	#define	FE05SquadronADolkar_rev  0
	#define	FE05SquadronADolkar_mvl  127
	#define	FE05SquadronADolkar_key  0
	#define	FE05SquadronADolkar_tbs  1
	#define	FE05SquadronADolkar_exg  0
	#define	FE05SquadronADolkar_cmp  1

	// .rodata
	//	FE05SquadronADolkar
	ALIGN 4


//**************** Track 1 (Midi-Chn.0) ****************//

FE05SquadronADolkar_001:
// 000   ----------------------------------------
 BYTE   KEYSH   FE05SquadronADolkar_key+0
Label_0_011B946A:
 BYTE   TEMPO   92*FE05SquadronADolkar_tbs/2
 BYTE   VOICE   56
 BYTE   VOL   68*FE05SquadronADolkar_mvl/mxv
 BYTE   N48  Dn3  v100
 BYTE   W48
 BYTE   N18  Cn3
 BYTE   W24
 BYTE   Bn2
 BYTE   W18
 BYTE   N06  Cn3
 BYTE   W06
// 001   ----------------------------------------
Label_0_011B947C:
 BYTE   N24  Bn2  v100
 BYTE   W24
 BYTE   Gn2
 BYTE   W24
 BYTE   N36  An2
 BYTE   W48
 BYTE   PEND 
// 002   ----------------------------------------
 BYTE   N96  Ds2
 BYTE   W96
// 003   ----------------------------------------
 BYTE   W96
// 004   ----------------------------------------
 BYTE   W96
// 005   ----------------------------------------
Label_0_011B948B:
 BYTE   W12
 BYTE   N04  En3  v100
 BYTE   W04
 BYTE   N04
 BYTE   W04
 BYTE   N04
 BYTE   W04
 BYTE   N24  Fn3
 BYTE   W36
 BYTE   N04  Bn3
 BYTE   W04
 BYTE   N04
 BYTE   W04
 BYTE   N04
 BYTE   W04
 BYTE   N24  Cn4
 BYTE   W24
 BYTE   PEND 
// 006   ----------------------------------------
Label_0_011B94A2:
 BYTE   W12
 BYTE   N04  Cn4  v100
 BYTE   W04
 BYTE   N04
 BYTE   W04
 BYTE   N04
 BYTE   W04
 BYTE   N48  As3
 BYTE   W48
 BYTE   N06
 BYTE   W12
 BYTE   Fn3
 BYTE   W12
 BYTE   PEND 
// 007   ----------------------------------------
Label_0_011B94B3:
 BYTE   N48  An2  v100
 BYTE   W48
 BYTE   N24  Bn2
 BYTE   W24
 BYTE   N18  Dn3
 BYTE   W18
 BYTE   N06  Bn2
 BYTE   W06
 BYTE   PEND 
// 008   ----------------------------------------
 BYTE   N96  Cn3
 BYTE   W96
// 009   ----------------------------------------
Label_0_011B94C4:
 BYTE   W24
 BYTE   N06  An2  v100
 BYTE   W12
 BYTE   N06
 BYTE   W06
 BYTE   N06
 BYTE   W06
 BYTE   N12
 BYTE   W12
 BYTE   Ds3
 BYTE   W36
 BYTE   PEND 
// 010   ----------------------------------------
Label_0_011B94D2:
 BYTE   W24
 BYTE   N04  An2  v100
 BYTE   W04
 BYTE   N04
 BYTE   W04
 BYTE   N04
 BYTE   W04
 BYTE   N04
 BYTE   W04
 BYTE   N04
 BYTE   W04
 BYTE   N04
 BYTE   W04
 BYTE   N12
 BYTE   W12
 BYTE   Ds3
 BYTE   W36
 BYTE   PEND 
// 011   ----------------------------------------
Label_0_011B94E6:
 BYTE   N18  An1  v100
 BYTE   W24
 BYTE   N06
 BYTE   W06
 BYTE   Dn2
 BYTE   W06
 BYTE   Cn2
 BYTE   W06
 BYTE   Dn2
 BYTE   W06
 BYTE   N18  An1
 BYTE   W24
 BYTE   N06  Cn2
 BYTE   W06
 BYTE   En2
 BYTE   W06
 BYTE   Ds2
 BYTE   W06
 BYTE   En2
 BYTE   W06
 BYTE   PEND 
// 012   ----------------------------------------
Label_0_011B94FF:
 BYTE   N18  Cs2  v100
 BYTE   W24
 BYTE   N06
 BYTE   W06
 BYTE   Fn2
 BYTE   W06
 BYTE   Ds2
 BYTE   W06
 BYTE   Fn2
 BYTE   W06
 BYTE   N18  Cs2
 BYTE   W24
 BYTE   N06
 BYTE   W06
 BYTE   Fn2
 BYTE   W06
 BYTE   Ds2
 BYTE   W06
 BYTE   Fn2
 BYTE   W06
 BYTE   PEND 
// 013   ----------------------------------------
Label_0_011B9517:
 BYTE   N48  Bn2  v100
 BYTE   W48
 BYTE   Fs2
 BYTE   W48
 BYTE   PEND 
// 014   ----------------------------------------
 BYTE   N72  Fn2  v080
 BYTE   W96
// 015   ----------------------------------------
Label_0_011B9522:
 BYTE   W42
 BYTE   N06  An2  v100
 BYTE   W06
 BYTE   N24  As2
 BYTE   W24
 BYTE   Gs2
 BYTE   W24
 BYTE   PEND 
// 016   ----------------------------------------
Label_0_011B952D:
 BYTE   N48  An2  v100
 BYTE   W48
 BYTE   N24
 BYTE   W24
 BYTE   N12
 BYTE   W12
 BYTE   N12
 BYTE   W12
 BYTE   PEND 
// 017   ----------------------------------------
 BYTE   N03
 BYTE   W03
 BYTE   N03
 BYTE   W03
 BYTE   N42
 BYTE   W42
 BYTE   N24
 BYTE   W24
 BYTE   N24
 BYTE   W24
// 018   ----------------------------------------
 BYTE   VOL   68*FE05SquadronADolkar_mvl/mxv
 BYTE   N48  Dn3
 BYTE   W48
 BYTE   N18  Cn3
 BYTE   W24
 BYTE   Bn2
 BYTE   W18
 BYTE   N06  Cn3
 BYTE   W06
 BYTE   PATT
  POIN2 Label_0_011B947C
// 019   ----------------------------------------
 BYTE   N96  Ds2  v100
 BYTE   W96
// 020   ----------------------------------------
 BYTE   W96
// 021   ----------------------------------------
 BYTE   W96
 BYTE   PATT
  POIN2 Label_0_011B948B
 BYTE   PATT
  POIN2 Label_0_011B94A2
 BYTE   PATT
  POIN2 Label_0_011B94B3
// 022   ----------------------------------------
 BYTE   N96  Cn3  v100
 BYTE   W96
 BYTE   PATT
  POIN2 Label_0_011B94C4
 BYTE   PATT
  POIN2 Label_0_011B94D2
 BYTE   PATT
  POIN2 Label_0_011B94E6
 BYTE   PATT
  POIN2 Label_0_011B94FF
 BYTE   PATT
  POIN2 Label_0_011B9517
// 023   ----------------------------------------
 BYTE   N72  Fn2  v080
 BYTE   W96
 BYTE   PATT
  POIN2 Label_0_011B9522
 BYTE   PATT
  POIN2 Label_0_011B952D
// 024   ----------------------------------------
 BYTE   N03  An2  v100
 BYTE   W03
 BYTE   N03
 BYTE   W03
 BYTE   N42
 BYTE   W42
 BYTE   N24
 BYTE   W24
 BYTE   N24
 BYTE   W23
 BYTE   GoTo
  POIN2 Label_0_011B946A
// 025   ----------------------------------------
 BYTE   W01
 BYTE   FINE

//**************** Track 2 (Midi-Chn.1) ****************//

FE05SquadronADolkar_002:
// 000   ----------------------------------------
 BYTE   KEYSH   FE05SquadronADolkar_key+0
Label_1_011B95AA:
 BYTE   VOICE   48
 BYTE   VOL   64*FE05SquadronADolkar_mvl/mxv
 BYTE   W96
// 001   ----------------------------------------
 BYTE   W96
// 002   ----------------------------------------
 BYTE   W96
// 003   ----------------------------------------
Label_1_011B95B1:
 BYTE   N12  An2  v100
 BYTE   W48
 BYTE   N12
 BYTE   W48
 BYTE   PEND 
// 004   ----------------------------------------
Label_1_011B95B8:
 BYTE   N12  Gn2  v100
 BYTE   W48
 BYTE   An2
 BYTE   W48
 BYTE   PEND 
// 005   ----------------------------------------
 BYTE   W96
// 006   ----------------------------------------
 BYTE   W96
// 007   ----------------------------------------
 BYTE   En3
 BYTE   W48
 BYTE   N12
 BYTE   W48
// 008   ----------------------------------------
 BYTE   N12
 BYTE   W48
 BYTE   N12
 BYTE   W48
// 009   ----------------------------------------
 BYTE   W96
// 010   ----------------------------------------
 BYTE   W96
// 011   ----------------------------------------
Label_1_011B95CB:
 BYTE   N48  Dn4  v080
 BYTE   W48
 BYTE   N24  An3
 BYTE   W24
 BYTE   An4
 BYTE   W24
 BYTE   PEND 
// 012   ----------------------------------------
Label_1_011B95D5:
 BYTE   N24  Gs4  v080
 BYTE   W24
 BYTE   Fn4
 BYTE   W24
 BYTE   Gs4
 BYTE   W24
 BYTE   As4
 BYTE   W24
 BYTE   PEND 
// 013   ----------------------------------------
 BYTE   N96  Bn4
 BYTE   W96
// 014   ----------------------------------------
 BYTE   N72  Dn4
 BYTE   W96
// 015   ----------------------------------------
 BYTE   VOL   64*FE05SquadronADolkar_mvl/mxv
 BYTE   W96
// 016   ----------------------------------------
 BYTE   W96
// 017   ----------------------------------------
 BYTE   W96
// 018   ----------------------------------------
 BYTE   W96
// 019   ----------------------------------------
 BYTE   W96
// 020   ----------------------------------------
 BYTE   W96
 BYTE   PATT
  POIN2 Label_1_011B95B1
 BYTE   PATT
  POIN2 Label_1_011B95B8
// 021   ----------------------------------------
 BYTE   W96
// 022   ----------------------------------------
 BYTE   W96
// 023   ----------------------------------------
 BYTE   N12  En3  v100
 BYTE   W48
 BYTE   N12
 BYTE   W48
// 024   ----------------------------------------
 BYTE   N12
 BYTE   W48
 BYTE   N12
 BYTE   W48
// 025   ----------------------------------------
 BYTE   W96
// 026   ----------------------------------------
 BYTE   W96
 BYTE   PATT
  POIN2 Label_1_011B95CB
 BYTE   PATT
  POIN2 Label_1_011B95D5
// 027   ----------------------------------------
 BYTE   N96  Bn4  v080
 BYTE   W96
// 028   ----------------------------------------
 BYTE   N72  Dn4
 BYTE   W96
// 029   ----------------------------------------
 BYTE   W96
// 030   ----------------------------------------
 BYTE   W96
// 031   ----------------------------------------
 BYTE   W92
 BYTE   W03
 BYTE   GoTo
  POIN2 Label_1_011B95AA
// 032   ----------------------------------------
 BYTE   W01
 BYTE   FINE

//**************** Track 3 (Midi-Chn.2) ****************//

FE05SquadronADolkar_003:
// 000   ----------------------------------------
 BYTE   KEYSH   FE05SquadronADolkar_key+0
Label_2_011B9626:
 BYTE   VOICE   56
 BYTE   VOL   68*FE05SquadronADolkar_mvl/mxv
 BYTE   N48  Gn2  v100
 BYTE   W48
 BYTE   N18  Fs2
 BYTE   W24
 BYTE   N18
 BYTE   W18
 BYTE   N06
 BYTE   W06
// 001   ----------------------------------------
Label_2_011B9635:
 BYTE   N24  Fn2  v100
 BYTE   W24
 BYTE   Dn2
 BYTE   W24
 BYTE   N36  En2
 BYTE   W48
 BYTE   PEND 
// 002   ----------------------------------------
 BYTE   N96  As1
 BYTE   W96
// 003   ----------------------------------------
 BYTE   W96
// 004   ----------------------------------------
 BYTE   W96
// 005   ----------------------------------------
Label_2_011B9644:
 BYTE   W12
 BYTE   N04  Cn3  v100
 BYTE   W04
 BYTE   N04
 BYTE   W04
 BYTE   N04
 BYTE   W04
 BYTE   N24  Dn3
 BYTE   W36
 BYTE   N04  Fn3
 BYTE   W04
 BYTE   N04
 BYTE   W04
 BYTE   N04
 BYTE   W04
 BYTE   N24  Gs3
 BYTE   W24
 BYTE   PEND 
// 006   ----------------------------------------
Label_2_011B965B:
 BYTE   W12
 BYTE   N04  Gs3  v100
 BYTE   W04
 BYTE   N04
 BYTE   W04
 BYTE   N04
 BYTE   W04
 BYTE   N48  Fn3
 BYTE   W48
 BYTE   N06
 BYTE   W12
 BYTE   As2
 BYTE   W12
 BYTE   PEND 
// 007   ----------------------------------------
 BYTE   W96
// 008   ----------------------------------------
 BYTE   W96
// 009   ----------------------------------------
Label_2_011B966E:
 BYTE   W24
 BYTE   N06  Fn2  v100
 BYTE   W12
 BYTE   N06
 BYTE   W06
 BYTE   N06
 BYTE   W06
 BYTE   N12
 BYTE   W12
 BYTE   Cn3
 BYTE   W36
 BYTE   PEND 
// 010   ----------------------------------------
Label_2_011B967C:
 BYTE   W24
 BYTE   N04  Fn2  v100
 BYTE   W04
 BYTE   N04
 BYTE   W04
 BYTE   N04
 BYTE   W04
 BYTE   N04
 BYTE   W04
 BYTE   N04
 BYTE   W04
 BYTE   N04
 BYTE   W04
 BYTE   N12
 BYTE   W12
 BYTE   Cn3
 BYTE   W36
 BYTE   PEND 
// 011   ----------------------------------------
Label_2_011B9690:
 BYTE   N18  Dn2  v100
 BYTE   W24
 BYTE   N06
 BYTE   W06
 BYTE   Fn2
 BYTE   W06
 BYTE   En2
 BYTE   W06
 BYTE   Fn2
 BYTE   W06
 BYTE   N18  Dn2
 BYTE   W24
 BYTE   N06  En2
 BYTE   W06
 BYTE   Gs2
 BYTE   W06
 BYTE   Fs2
 BYTE   W06
 BYTE   Gs2
 BYTE   W06
 BYTE   PEND 
// 012   ----------------------------------------
Label_2_011B96A9:
 BYTE   N18  En2  v100
 BYTE   W24
 BYTE   N06
 BYTE   W06
 BYTE   Gs2
 BYTE   W06
 BYTE   Fs2
 BYTE   W06
 BYTE   Gs2
 BYTE   W06
 BYTE   N18  Fn2
 BYTE   W24
 BYTE   N06  Gs2
 BYTE   W06
 BYTE   Cn3
 BYTE   W06
 BYTE   As2
 BYTE   W06
 BYTE   Cn3
 BYTE   W06
 BYTE   PEND 
// 013   ----------------------------------------
Label_2_011B96C2:
 BYTE   N48  Gs2  v100
 BYTE   W48
 BYTE   En2
 BYTE   W48
 BYTE   PEND 
// 014   ----------------------------------------
 BYTE   N72  Bn1
 BYTE   W96
// 015   ----------------------------------------
Label_2_011B96CC:
 BYTE   W42
 BYTE   N06  En2  v100
 BYTE   W06
 BYTE   N24  Fn2
 BYTE   W24
 BYTE   Ds2
 BYTE   W24
 BYTE   PEND 
// 016   ----------------------------------------
Label_2_011B96D7:
 BYTE   N48  En2  v100
 BYTE   W48
 BYTE   N24
 BYTE   W24
 BYTE   N12
 BYTE   W12
 BYTE   N12
 BYTE   W12
 BYTE   PEND 
// 017   ----------------------------------------
 BYTE   N03
 BYTE   W03
 BYTE   N03
 BYTE   W03
 BYTE   N42
 BYTE   W42
 BYTE   N24
 BYTE   W24
 BYTE   N24
 BYTE   W24
// 018   ----------------------------------------
 BYTE   VOL   68*FE05SquadronADolkar_mvl/mxv
 BYTE   N48  Gn2
 BYTE   W48
 BYTE   N18  Fs2
 BYTE   W24
 BYTE   N18
 BYTE   W18
 BYTE   N06
 BYTE   W06
 BYTE   PATT
  POIN2 Label_2_011B9635
// 019   ----------------------------------------
 BYTE   N96  As1  v100
 BYTE   W96
// 020   ----------------------------------------
 BYTE   W96
// 021   ----------------------------------------
 BYTE   W96
 BYTE   PATT
  POIN2 Label_2_011B9644
 BYTE   PATT
  POIN2 Label_2_011B965B
// 022   ----------------------------------------
 BYTE   W96
// 023   ----------------------------------------
 BYTE   W96
 BYTE   PATT
  POIN2 Label_2_011B966E
 BYTE   PATT
  POIN2 Label_2_011B967C
 BYTE   PATT
  POIN2 Label_2_011B9690
 BYTE   PATT
  POIN2 Label_2_011B96A9
 BYTE   PATT
  POIN2 Label_2_011B96C2
// 024   ----------------------------------------
 BYTE   N72  Bn1  v100
 BYTE   W96
 BYTE   PATT
  POIN2 Label_2_011B96CC
 BYTE   PATT
  POIN2 Label_2_011B96D7
// 025   ----------------------------------------
 BYTE   N03  En2  v100
 BYTE   W03
 BYTE   N03
 BYTE   W03
 BYTE   N42
 BYTE   W42
 BYTE   N24
 BYTE   W24
 BYTE   N24
 BYTE   W23
 BYTE   GoTo
  POIN2 Label_2_011B9626
// 026   ----------------------------------------
 BYTE   W01
 BYTE   FINE

//**************** Track 4 (Midi-Chn.3) ****************//

FE05SquadronADolkar_004:
// 000   ----------------------------------------
 BYTE   KEYSH   FE05SquadronADolkar_key+0
Label_3_011B974E:
 BYTE   VOICE   48
 BYTE   VOL   64*FE05SquadronADolkar_mvl/mxv
 BYTE   N12  En3  v100
 BYTE   W48
 BYTE   N12
 BYTE   W48
// 001   ----------------------------------------
Label_3_011B9758:
 BYTE   N12  En3  v100
 BYTE   W48
 BYTE   N12
 BYTE   W24
 BYTE   N03  An4
 BYTE   W06
 BYTE   Cn5
 BYTE   W06
 BYTE   Bn4
 BYTE   W06
 BYTE   Cn5
 BYTE   W06
 BYTE   PEND 
// 002   ----------------------------------------
 BYTE   W48
 BYTE   N48  Gn3
 BYTE   W48
// 003   ----------------------------------------
Label_3_011B976C:
 BYTE   N12  An3  v100
 BYTE   W48
 BYTE   En3
 BYTE   W48
 BYTE   PEND 
// 004   ----------------------------------------
 BYTE   N12
 BYTE   W48
 BYTE   N12
 BYTE   W48
// 005   ----------------------------------------
Label_3_011B9777:
 BYTE   W24
 BYTE   N24  Fn3  v100
 BYTE   W24
 BYTE   Gs3
 BYTE   W24
 BYTE   Fn3
 BYTE   W24
 BYTE   PEND 
// 006   ----------------------------------------
Label_3_011B9781:
 BYTE   N24  Gs3  v100
 BYTE   W24
 BYTE   N72  Fn3
 BYTE   W72
 BYTE   PEND 
// 007   ----------------------------------------
Label_3_011B9789:
 BYTE   N48  An1  v100
 BYTE   W48
 BYTE   N24  Bn1
 BYTE   W24
 BYTE   N18  Dn2
 BYTE   W18
 BYTE   N06  Bn1
 BYTE   W06
 BYTE   PEND 
// 008   ----------------------------------------
Label_3_011B9797:
 BYTE   N24  Cn2  v100
 BYTE   W36
 BYTE   N12  Dn2
 BYTE   W12
 BYTE   N48  En2
 BYTE   W48
 BYTE   PEND 
// 009   ----------------------------------------
 BYTE   W96
// 010   ----------------------------------------
 BYTE   W96
// 011   ----------------------------------------
Label_3_011B97A4:
 BYTE   N48  Dn3  v080
 BYTE   W48
 BYTE   N24  An2
 BYTE   W24
 BYTE   An3
 BYTE   W24
 BYTE   PEND 
// 012   ----------------------------------------
Label_3_011B97AE:
 BYTE   N24  Gs3  v080
 BYTE   W24
 BYTE   Fn3
 BYTE   W24
 BYTE   Gs3
 BYTE   W24
 BYTE   As3
 BYTE   W24
 BYTE   PEND 
// 013   ----------------------------------------
 BYTE   TIE  Bn3
 BYTE   W96
// 014   ----------------------------------------
 BYTE   W72
 BYTE   EOT
 BYTE   W24
// 015   ----------------------------------------
 BYTE   W96
// 016   ----------------------------------------
 BYTE   W96
// 017   ----------------------------------------
 BYTE   W96
// 018   ----------------------------------------
 BYTE   VOL   64*FE05SquadronADolkar_mvl/mxv
 BYTE   N12  En3  v100
 BYTE   W48
 BYTE   N12
 BYTE   W48
 BYTE   PATT
  POIN2 Label_3_011B9758
// 019   ----------------------------------------
 BYTE   W48
 BYTE   N48  Gn3  v100
 BYTE   W48
 BYTE   PATT
  POIN2 Label_3_011B976C
// 020   ----------------------------------------
 BYTE   N12  En3  v100
 BYTE   W48
 BYTE   N12
 BYTE   W48
 BYTE   PATT
  POIN2 Label_3_011B9777
 BYTE   PATT
  POIN2 Label_3_011B9781
 BYTE   PATT
  POIN2 Label_3_011B9789
 BYTE   PATT
  POIN2 Label_3_011B9797
// 021   ----------------------------------------
 BYTE   W96
// 022   ----------------------------------------
 BYTE   W96
 BYTE   PATT
  POIN2 Label_3_011B97A4
 BYTE   PATT
  POIN2 Label_3_011B97AE
// 023   ----------------------------------------
 BYTE   TIE  Bn3  v080
 BYTE   W96
// 024   ----------------------------------------
 BYTE   W72
 BYTE   EOT
 BYTE   W24
// 025   ----------------------------------------
 BYTE   W96
// 026   ----------------------------------------
 BYTE   W96
// 027   ----------------------------------------
 BYTE   W92
 BYTE   W03
 BYTE   GoTo
  POIN2 Label_3_011B974E
// 028   ----------------------------------------
 BYTE   W01
 BYTE   FINE

//**************** Track 5 (Midi-Chn.4) ****************//

FE05SquadronADolkar_005:
// 000   ----------------------------------------
 BYTE   KEYSH   FE05SquadronADolkar_key+0
Label_4_011B9816:
 BYTE   VOICE   48
 BYTE   VOL   64*FE05SquadronADolkar_mvl/mxv
 BYTE   N12  An2  v100
 BYTE   W48
 BYTE   N12
 BYTE   W48
// 001   ----------------------------------------
Label_4_011B9820:
 BYTE   N12  An2  v100
 BYTE   W48
 BYTE   N12
 BYTE   W24
 BYTE   N03  An3
 BYTE   W06
 BYTE   Cn4
 BYTE   W06
 BYTE   Bn3
 BYTE   W06
 BYTE   Cn4
 BYTE   W06
 BYTE   PEND 
// 002   ----------------------------------------
 BYTE   W48
 BYTE   N48  Dn3
 BYTE   W48
// 003   ----------------------------------------
 BYTE   N12  En3
 BYTE   W48
 BYTE   Cn3
 BYTE   W48
// 004   ----------------------------------------
Label_4_011B9839:
 BYTE   N12  Bn2  v100
 BYTE   W48
 BYTE   Cn3
 BYTE   W48
 BYTE   PEND 
// 005   ----------------------------------------
Label_4_011B9840:
 BYTE   W24
 BYTE   N24  Dn4  v100
 BYTE   W24
 BYTE   Cn4
 BYTE   W24
 BYTE   N18  As3
 BYTE   W18
 BYTE   N06  Cn4
 BYTE   W06
 BYTE   PEND 
// 006   ----------------------------------------
Label_4_011B984E:
 BYTE   N24  As3  v100
 BYTE   W24
 BYTE   Gn3
 BYTE   W24
 BYTE   N48  Gs3
 BYTE   W48
 BYTE   PEND 
// 007   ----------------------------------------
Label_4_011B9858:
 BYTE   N12  An2  v100
 BYTE   W48
 BYTE   N12
 BYTE   W48
 BYTE   PEND 
 BYTE   PATT
  POIN2 Label_4_011B9858
// 008   ----------------------------------------
Label_4_011B9864:
 BYTE   N72  Dn2  v100
 BYTE   W72
 BYTE   N06
 BYTE   W06
 BYTE   Fn2
 BYTE   W06
 BYTE   En2
 BYTE   W06
 BYTE   Fn2
 BYTE   W06
 BYTE   PEND 
// 009   ----------------------------------------
Label_4_011B9871:
 BYTE   N72  Dn2  v100
 BYTE   W72
 BYTE   N06
 BYTE   W06
 BYTE   Gn2
 BYTE   W06
 BYTE   Gs2
 BYTE   W06
 BYTE   An2
 BYTE   W06
 BYTE   PEND 
// 010   ----------------------------------------
 BYTE   W96
// 011   ----------------------------------------
 BYTE   W96
// 012   ----------------------------------------
 BYTE   W96
// 013   ----------------------------------------
Label_4_011B9881:
 BYTE   W72
 BYTE   N06  An2  v100
 BYTE   W06
 BYTE   Cn3
 BYTE   W06
 BYTE   N12  As2
 BYTE   W12
 BYTE   PEND 
// 014   ----------------------------------------
 BYTE   N96  An2
 BYTE   W96
// 015   ----------------------------------------
Label_4_011B988F:
 BYTE   N36  An2  v080
 BYTE   W48
 BYTE   N24
 BYTE   W24
 BYTE   N24
 BYTE   W24
 BYTE   PEND 
// 016   ----------------------------------------
 BYTE   N24
 BYTE   W24
 BYTE   N24
 BYTE   W24
 BYTE   N24
 BYTE   W24
 BYTE   N24
 BYTE   W24
// 017   ----------------------------------------
 BYTE   VOL   64*FE05SquadronADolkar_mvl/mxv
 BYTE   N12  An2  v100
 BYTE   W48
 BYTE   N12
 BYTE   W48
 BYTE   PATT
  POIN2 Label_4_011B9820
// 018   ----------------------------------------
 BYTE   W48
 BYTE   N48  Dn3  v100
 BYTE   W48
// 019   ----------------------------------------
 BYTE   N12  En3
 BYTE   W48
 BYTE   Cn3
 BYTE   W48
 BYTE   PATT
  POIN2 Label_4_011B9839
 BYTE   PATT
  POIN2 Label_4_011B9840
 BYTE   PATT
  POIN2 Label_4_011B984E
 BYTE   PATT
  POIN2 Label_4_011B9858
 BYTE   PATT
  POIN2 Label_4_011B9858
 BYTE   PATT
  POIN2 Label_4_011B9864
 BYTE   PATT
  POIN2 Label_4_011B9871
// 020   ----------------------------------------
 BYTE   W96
// 021   ----------------------------------------
 BYTE   W96
// 022   ----------------------------------------
 BYTE   W96
 BYTE   PATT
  POIN2 Label_4_011B9881
// 023   ----------------------------------------
 BYTE   N96  An2  v100
 BYTE   W96
 BYTE   PATT
  POIN2 Label_4_011B988F
// 024   ----------------------------------------
 BYTE   N24  An2  v080
 BYTE   W24
 BYTE   N24
 BYTE   W24
 BYTE   N24
 BYTE   W24
 BYTE   N24
 BYTE   W23
 BYTE   GoTo
  POIN2 Label_4_011B9816
// 025   ----------------------------------------
 BYTE   W01
 BYTE   FINE

//**************** Track 6 (Midi-Chn.5) ****************//

FE05SquadronADolkar_006:
// 000   ----------------------------------------
 BYTE   KEYSH   FE05SquadronADolkar_key+0
Label_5_011B98FE:
 BYTE   VOICE   58
 BYTE   VOL   51*FE05SquadronADolkar_mvl/mxv
 BYTE   N24  An0  v100
 BYTE   W24
 BYTE   N24
 BYTE   W24
 BYTE   N24
 BYTE   W24
 BYTE   N24
 BYTE   W24
// 001   ----------------------------------------
Label_5_011B990C:
 BYTE   N24  An0  v100
 BYTE   W24
 BYTE   N24
 BYTE   W24
 BYTE   N24
 BYTE   W24
 BYTE   N24
 BYTE   W24
 BYTE   PEND 
// 002   ----------------------------------------
Label_5_011B9917:
 BYTE   N06  An0  v100
 BYTE   W12
 BYTE   As0
 BYTE   W12
 BYTE   Gs0
 BYTE   W12
 BYTE   As0
 BYTE   W12
 BYTE   An0
 BYTE   W12
 BYTE   As0
 BYTE   W12
 BYTE   N06
 BYTE   W12
 BYTE   Gn0
 BYTE   W12
 BYTE   PEND 
 BYTE   PATT
  POIN2 Label_5_011B990C
 BYTE   PATT
  POIN2 Label_5_011B990C
// 003   ----------------------------------------
 BYTE   TIE  As0  v100
 BYTE   W96
// 004   ----------------------------------------
 BYTE   W72
 BYTE   EOT
 BYTE   N12
 BYTE   W12
 BYTE   En0
 BYTE   W12
 BYTE   PATT
  POIN2 Label_5_011B990C
// 005   ----------------------------------------
Label_5_011B9943:
 BYTE   N24  An0  v100
 BYTE   W24
 BYTE   N24
 BYTE   W24
 BYTE   N24
 BYTE   W24
 BYTE   N12
 BYTE   W12
 BYTE   N12
 BYTE   W12
 BYTE   PEND 
// 006   ----------------------------------------
Label_5_011B9950:
 BYTE   N36  Dn1  v100
 BYTE   W36
 BYTE   N12
 BYTE   W12
 BYTE   N36
 BYTE   W36
 BYTE   N12
 BYTE   W12
 BYTE   PEND 
 BYTE   PATT
  POIN2 Label_5_011B9950
 BYTE   PATT
  POIN2 Label_5_011B9950
// 007   ----------------------------------------
 BYTE   N96  An0  v100
 BYTE   W96
// 008   ----------------------------------------
 BYTE   En1
 BYTE   W96
// 009   ----------------------------------------
Label_5_011B996B:
 BYTE   N12  En1  v100
 BYTE   W24
 BYTE   N12
 BYTE   W24
 BYTE   N12
 BYTE   W24
 BYTE   N06  An0
 BYTE   W06
 BYTE   Cn1
 BYTE   W06
 BYTE   N12  As0
 BYTE   W12
 BYTE   PEND 
// 010   ----------------------------------------
 BYTE   N96  An0
 BYTE   W96
// 011   ----------------------------------------
 BYTE   W96
// 012   ----------------------------------------
 BYTE   W72
 BYTE   N12
 BYTE   W12
 BYTE   En0
 BYTE   W12
// 013   ----------------------------------------
 BYTE   VOL   51*FE05SquadronADolkar_mvl/mxv
 BYTE   N24  An0
 BYTE   W24
 BYTE   N24
 BYTE   W24
 BYTE   N24
 BYTE   W24
 BYTE   N24
 BYTE   W24
 BYTE   PATT
  POIN2 Label_5_011B990C
 BYTE   PATT
  POIN2 Label_5_011B9917
 BYTE   PATT
  POIN2 Label_5_011B990C
 BYTE   PATT
  POIN2 Label_5_011B990C
// 014   ----------------------------------------
 BYTE   TIE  As0  v100
 BYTE   W96
// 015   ----------------------------------------
 BYTE   W72
 BYTE   EOT
 BYTE   N12
 BYTE   W12
 BYTE   En0
 BYTE   W12
 BYTE   PATT
  POIN2 Label_5_011B990C
 BYTE   PATT
  POIN2 Label_5_011B9943
 BYTE   PATT
  POIN2 Label_5_011B9950
 BYTE   PATT
  POIN2 Label_5_011B9950
 BYTE   PATT
  POIN2 Label_5_011B9950
// 016   ----------------------------------------
 BYTE   N96  An0  v100
 BYTE   W96
// 017   ----------------------------------------
 BYTE   En1
 BYTE   W96
 BYTE   PATT
  POIN2 Label_5_011B996B
// 018   ----------------------------------------
 BYTE   N96  An0  v100
 BYTE   W96
// 019   ----------------------------------------
 BYTE   W96
// 020   ----------------------------------------
 BYTE   W72
 BYTE   N12
 BYTE   W12
 BYTE   En0
 BYTE   W11
 BYTE   GoTo
  POIN2 Label_5_011B98FE
// 021   ----------------------------------------
 BYTE   W01
 BYTE   FINE

//**************** Track 7 (Midi-Chn.6) ****************//

FE05SquadronADolkar_007:
// 000   ----------------------------------------
 BYTE   KEYSH   FE05SquadronADolkar_key+0
Label_6_011B99E6:
 BYTE   VOICE   56
 BYTE   VOL   68*FE05SquadronADolkar_mvl/mxv
 BYTE   W96
// 001   ----------------------------------------
 BYTE   W96
// 002   ----------------------------------------
 BYTE   W96
// 003   ----------------------------------------
 BYTE   W96
// 004   ----------------------------------------
 BYTE   W96
// 005   ----------------------------------------
 BYTE   W96
// 006   ----------------------------------------
 BYTE   W96
// 007   ----------------------------------------
 BYTE   W96
// 008   ----------------------------------------
 BYTE   W96
// 009   ----------------------------------------
Label_6_011B99F3:
 BYTE   W24
 BYTE   N06  Dn2  v100
 BYTE   W12
 BYTE   N06
 BYTE   W06
 BYTE   N06
 BYTE   W06
 BYTE   N12
 BYTE   W12
 BYTE   Gs2
 BYTE   W36
 BYTE   PEND 
// 010   ----------------------------------------
Label_6_011B9A01:
 BYTE   W24
 BYTE   N04  Dn2  v100
 BYTE   W04
 BYTE   N04
 BYTE   W04
 BYTE   N04
 BYTE   W04
 BYTE   N04
 BYTE   W04
 BYTE   N04
 BYTE   W04
 BYTE   N04
 BYTE   W04
 BYTE   N12
 BYTE   W12
 BYTE   Gs2
 BYTE   W36
 BYTE   PEND 
// 011   ----------------------------------------
 BYTE   W96
// 012   ----------------------------------------
 BYTE   W96
// 013   ----------------------------------------
 BYTE   W96
// 014   ----------------------------------------
Label_6_011B9A18:
 BYTE   W72
 BYTE   N06  Gs1  v100
 BYTE   W06
 BYTE   Cn2
 BYTE   W06
 BYTE   N12  As1
 BYTE   W12
 BYTE   PEND 
// 015   ----------------------------------------
 BYTE   N96  An1
 BYTE   W96
// 016   ----------------------------------------
Label_6_011B9A26:
 BYTE   N48  An1  v100
 BYTE   W48
 BYTE   N24
 BYTE   W24
 BYTE   N24
 BYTE   W24
 BYTE   PEND 
// 017   ----------------------------------------
 BYTE   N24
 BYTE   W24
 BYTE   N24
 BYTE   W24
 BYTE   N24
 BYTE   W24
 BYTE   N24
 BYTE   W24
// 018   ----------------------------------------
 BYTE   VOL   68*FE05SquadronADolkar_mvl/mxv
 BYTE   W96
// 019   ----------------------------------------
 BYTE   W96
// 020   ----------------------------------------
 BYTE   W96
// 021   ----------------------------------------
 BYTE   W96
// 022   ----------------------------------------
 BYTE   W96
// 023   ----------------------------------------
 BYTE   W96
// 024   ----------------------------------------
 BYTE   W96
// 025   ----------------------------------------
 BYTE   W96
// 026   ----------------------------------------
 BYTE   W96
 BYTE   PATT
  POIN2 Label_6_011B99F3
 BYTE   PATT
  POIN2 Label_6_011B9A01
// 027   ----------------------------------------
 BYTE   W96
// 028   ----------------------------------------
 BYTE   W96
// 029   ----------------------------------------
 BYTE   W96
 BYTE   PATT
  POIN2 Label_6_011B9A18
// 030   ----------------------------------------
 BYTE   N96  An1  v100
 BYTE   W96
 BYTE   PATT
  POIN2 Label_6_011B9A26
// 031   ----------------------------------------
 BYTE   N24  An1  v100
 BYTE   W24
 BYTE   N24
 BYTE   W24
 BYTE   N24
 BYTE   W24
 BYTE   N24
 BYTE   W23
 BYTE   GoTo
  POIN2 Label_6_011B99E6
// 032   ----------------------------------------
 BYTE   W01
 BYTE   FINE

//**************** Track 8 (Midi-Chn.7) ****************//

FE05SquadronADolkar_008:
// 000   ----------------------------------------
 BYTE   KEYSH   FE05SquadronADolkar_key+0
Label_7_011B9A72:
 BYTE   VOICE   47
 BYTE   VOL   49*FE05SquadronADolkar_mvl/mxv
 BYTE   N12  An2  v100
 BYTE   W12
 BYTE   N06  An2  v060
 BYTE   W06
 BYTE   N06
 BYTE   W06
 BYTE   N12  An2  v100
 BYTE   W12
 BYTE   N06  An2  v060
 BYTE   W06
 BYTE   N06
 BYTE   W06
 BYTE   N12  An2  v100
 BYTE   W12
 BYTE   N06  An2  v060
 BYTE   W06
 BYTE   N06
 BYTE   W06
 BYTE   N12  An2  v100
 BYTE   W12
 BYTE   N06  An2  v060
 BYTE   W06
 BYTE   N06
 BYTE   W06
// 001   ----------------------------------------
Label_7_011B9A9E:
 BYTE   N12  An2  v100
 BYTE   W12
 BYTE   N06  An2  v060
 BYTE   W06
 BYTE   N06
 BYTE   W06
 BYTE   N12  An2  v100
 BYTE   W12
 BYTE   N06  An2  v060
 BYTE   W06
 BYTE   N06
 BYTE   W06
 BYTE   N12  An2  v100
 BYTE   W12
 BYTE   N06  An2  v060
 BYTE   W06
 BYTE   N06
 BYTE   W06
 BYTE   N12  An2  v100
 BYTE   W12
 BYTE   N06  An2  v060
 BYTE   W06
 BYTE   N06
 BYTE   W06
 BYTE   PEND 
// 002   ----------------------------------------
Label_7_011B9AC7:
 BYTE   N12  An2  v068
 BYTE   W12
 BYTE   An2  v072
 BYTE   W12
 BYTE   An2  v076
 BYTE   W12
 BYTE   An2  v080
 BYTE   W12
 BYTE   An2  v088
 BYTE   W12
 BYTE   An2  v092
 BYTE   W12
 BYTE   An2  v096
 BYTE   W12
 BYTE   An2  v100
 BYTE   W12
 BYTE   PEND 
 BYTE   PATT
  POIN2 Label_7_011B9A9E
 BYTE   PATT
  POIN2 Label_7_011B9A9E
// 003   ----------------------------------------
Label_7_011B9AEB:
 BYTE   N12  As2  v100
 BYTE   W24
 BYTE   N04  An2
 BYTE   W04
 BYTE   N04
 BYTE   W04
 BYTE   N04
 BYTE   W04
 BYTE   N12  Gn2
 BYTE   W12
 BYTE   As2
 BYTE   W24
 BYTE   N04  An2
 BYTE   W04
 BYTE   N04
 BYTE   W04
 BYTE   N04
 BYTE   W04
 BYTE   N12  Gn2
 BYTE   W12
 BYTE   PEND 
// 004   ----------------------------------------
Label_7_011B9B06:
 BYTE   N12  As2  v100
 BYTE   W24
 BYTE   N04  An2
 BYTE   W04
 BYTE   N04
 BYTE   W04
 BYTE   N04
 BYTE   W04
 BYTE   N12  Gn2
 BYTE   W12
 BYTE   As2
 BYTE   W24
 BYTE   N12
 BYTE   W12
 BYTE   Gn2
 BYTE   W12
 BYTE   PEND 
 BYTE   PATT
  POIN2 Label_7_011B9A9E
 BYTE   PATT
  POIN2 Label_7_011B9A9E
// 005   ----------------------------------------
Label_7_011B9B25:
 BYTE   N12  An2  v100
 BYTE   W36
 BYTE   N04
 BYTE   W04
 BYTE   N04
 BYTE   W04
 BYTE   N04
 BYTE   W04
 BYTE   N12  Dn2
 BYTE   W36
 BYTE   N06  An2
 BYTE   W06
 BYTE   N06
 BYTE   W06
 BYTE   PEND 
 BYTE   PATT
  POIN2 Label_7_011B9B25
 BYTE   PATT
  POIN2 Label_7_011B9B25
 BYTE   PATT
  POIN2 Label_7_011B9B25
// 006   ----------------------------------------
Label_7_011B9B47:
 BYTE   N12  An2  v100
 BYTE   W84
 BYTE   N06
 BYTE   W06
 BYTE   N06
 BYTE   W06
 BYTE   PEND 
// 007   ----------------------------------------
Label_7_011B9B50:
 BYTE   N12  An2  v100
 BYTE   W24
 BYTE   N12
 BYTE   W24
 BYTE   N12
 BYTE   W24
 BYTE   N04
 BYTE   W04
 BYTE   N04
 BYTE   W04
 BYTE   N04
 BYTE   W04
 BYTE   N04
 BYTE   W04
 BYTE   N04
 BYTE   W04
 BYTE   N04
 BYTE   W04
 BYTE   PEND 
// 008   ----------------------------------------
Label_7_011B9B65:
 BYTE   N12  An2  v100
 BYTE   W48
 BYTE   N12
 BYTE   W24
 BYTE   N12
 BYTE   W24
 BYTE   PEND 
// 009   ----------------------------------------
Label_7_011B9B6E:
 BYTE   N12  An2  v100
 BYTE   W24
 BYTE   N12
 BYTE   W12
 BYTE   N06
 BYTE   W06
 BYTE   N06
 BYTE   W06
 BYTE   N12
 BYTE   W24
 BYTE   N12
 BYTE   W12
 BYTE   N06
 BYTE   W06
 BYTE   N06
 BYTE   W06
 BYTE   PEND 
 BYTE   PATT
  POIN2 Label_7_011B9B6E
// 010   ----------------------------------------
 BYTE   VOL   49*FE05SquadronADolkar_mvl/mxv
 BYTE   N12  An2  v100
 BYTE   W12
 BYTE   N06  An2  v060
 BYTE   W06
 BYTE   N06
 BYTE   W06
 BYTE   N12  An2  v100
 BYTE   W12
 BYTE   N06  An2  v060
 BYTE   W06
 BYTE   N06
 BYTE   W06
 BYTE   N12  An2  v100
 BYTE   W12
 BYTE   N06  An2  v060
 BYTE   W06
 BYTE   N06
 BYTE   W06
 BYTE   N12  An2  v100
 BYTE   W12
 BYTE   N06  An2  v060
 BYTE   W06
 BYTE   N06
 BYTE   W06
 BYTE   PATT
  POIN2 Label_7_011B9A9E
 BYTE   PATT
  POIN2 Label_7_011B9AC7
 BYTE   PATT
  POIN2 Label_7_011B9A9E
 BYTE   PATT
  POIN2 Label_7_011B9A9E
 BYTE   PATT
  POIN2 Label_7_011B9AEB
 BYTE   PATT
  POIN2 Label_7_011B9B06
 BYTE   PATT
  POIN2 Label_7_011B9A9E
 BYTE   PATT
  POIN2 Label_7_011B9A9E
 BYTE   PATT
  POIN2 Label_7_011B9B25
 BYTE   PATT
  POIN2 Label_7_011B9B25
 BYTE   PATT
  POIN2 Label_7_011B9B25
 BYTE   PATT
  POIN2 Label_7_011B9B25
 BYTE   PATT
  POIN2 Label_7_011B9B47
 BYTE   PATT
  POIN2 Label_7_011B9B50
 BYTE   PATT
  POIN2 Label_7_011B9B65
 BYTE   PATT
  POIN2 Label_7_011B9B6E
// 011   ----------------------------------------
 BYTE   N12  An2  v100
 BYTE   W24
 BYTE   N12
 BYTE   W12
 BYTE   N06
 BYTE   W06
 BYTE   N06
 BYTE   W06
 BYTE   N12
 BYTE   W24
 BYTE   N12
 BYTE   W12
 BYTE   N06
 BYTE   W06
 BYTE   N06
 BYTE   W05
 BYTE   GoTo
  POIN2 Label_7_011B9A72
// 012   ----------------------------------------
 BYTE   W01
 BYTE   FINE

//**************** Track 9 (Midi-Chn.8) ****************//

FE05SquadronADolkar_009:
// 000   ----------------------------------------
 BYTE   KEYSH   FE05SquadronADolkar_key+0
Label_8_011B9C1E:
 BYTE   VOICE   47
 BYTE   VOL   57*FE05SquadronADolkar_mvl/mxv
 BYTE   N12  An1  v100
 BYTE   W12
 BYTE   N06  An1  v060
 BYTE   W06
 BYTE   N06
 BYTE   W06
 BYTE   N12  An1  v100
 BYTE   W12
 BYTE   N06  An1  v060
 BYTE   W06
 BYTE   N06
 BYTE   W06
 BYTE   N12  An1  v100
 BYTE   W12
 BYTE   N06  An1  v060
 BYTE   W06
 BYTE   N06
 BYTE   W06
 BYTE   N12  An1  v100
 BYTE   W12
 BYTE   N06  An1  v060
 BYTE   W06
 BYTE   N06
 BYTE   W06
// 001   ----------------------------------------
Label_8_011B9C4A:
 BYTE   N12  An1  v100
 BYTE   W12
 BYTE   N06  An1  v060
 BYTE   W06
 BYTE   N06
 BYTE   W06
 BYTE   N12  An1  v100
 BYTE   W12
 BYTE   N06  An1  v060
 BYTE   W06
 BYTE   N06
 BYTE   W06
 BYTE   N12  An1  v100
 BYTE   W12
 BYTE   N06  An1  v060
 BYTE   W06
 BYTE   N06
 BYTE   W06
 BYTE   N12  An1  v100
 BYTE   W12
 BYTE   N06  An1  v060
 BYTE   W06
 BYTE   N06
 BYTE   W06
 BYTE   PEND 
// 002   ----------------------------------------
Label_8_011B9C73:
 BYTE   N12  An1  v068
 BYTE   W12
 BYTE   An1  v072
 BYTE   W12
 BYTE   An1  v076
 BYTE   W12
 BYTE   An1  v080
 BYTE   W12
 BYTE   An1  v088
 BYTE   W12
 BYTE   An1  v092
 BYTE   W12
 BYTE   An1  v096
 BYTE   W12
 BYTE   An1  v100
 BYTE   W12
 BYTE   PEND 
 BYTE   PATT
  POIN2 Label_8_011B9C4A
 BYTE   PATT
  POIN2 Label_8_011B9C4A
// 003   ----------------------------------------
Label_8_011B9C97:
 BYTE   N12  As1  v100
 BYTE   W24
 BYTE   N04  An1
 BYTE   W04
 BYTE   N04
 BYTE   W04
 BYTE   N04
 BYTE   W04
 BYTE   N12  Gn1
 BYTE   W12
 BYTE   As1
 BYTE   W24
 BYTE   N04  An1
 BYTE   W04
 BYTE   N04
 BYTE   W04
 BYTE   N04
 BYTE   W04
 BYTE   N12  Gn1
 BYTE   W12
 BYTE   PEND 
// 004   ----------------------------------------
Label_8_011B9CB2:
 BYTE   N12  As1  v100
 BYTE   W24
 BYTE   N04  An1
 BYTE   W04
 BYTE   N04
 BYTE   W04
 BYTE   N04
 BYTE   W04
 BYTE   N12  Gn1
 BYTE   W12
 BYTE   As1
 BYTE   W24
 BYTE   N12
 BYTE   W12
 BYTE   Gn1
 BYTE   W12
 BYTE   PEND 
 BYTE   PATT
  POIN2 Label_8_011B9C4A
 BYTE   PATT
  POIN2 Label_8_011B9C4A
// 005   ----------------------------------------
Label_8_011B9CD1:
 BYTE   N12  An1  v100
 BYTE   W36
 BYTE   N04
 BYTE   W04
 BYTE   N04
 BYTE   W04
 BYTE   N04
 BYTE   W04
 BYTE   N12  Dn1
 BYTE   W36
 BYTE   N06  An1
 BYTE   W06
 BYTE   N06
 BYTE   W06
 BYTE   PEND 
 BYTE   PATT
  POIN2 Label_8_011B9CD1
 BYTE   PATT
  POIN2 Label_8_011B9CD1
 BYTE   PATT
  POIN2 Label_8_011B9CD1
// 006   ----------------------------------------
Label_8_011B9CF3:
 BYTE   N12  An1  v100
 BYTE   W84
 BYTE   N06
 BYTE   W06
 BYTE   N06
 BYTE   W06
 BYTE   PEND 
// 007   ----------------------------------------
Label_8_011B9CFC:
 BYTE   N12  An1  v100
 BYTE   W24
 BYTE   N12
 BYTE   W24
 BYTE   N12
 BYTE   W24
 BYTE   N04
 BYTE   W04
 BYTE   N04
 BYTE   W04
 BYTE   N04
 BYTE   W04
 BYTE   N04
 BYTE   W04
 BYTE   N04
 BYTE   W04
 BYTE   N04
 BYTE   W04
 BYTE   PEND 
// 008   ----------------------------------------
Label_8_011B9D11:
 BYTE   N12  An1  v100
 BYTE   W48
 BYTE   N12
 BYTE   W24
 BYTE   N12
 BYTE   W24
 BYTE   PEND 
// 009   ----------------------------------------
Label_8_011B9D1A:
 BYTE   N12  An1  v100
 BYTE   W24
 BYTE   N12
 BYTE   W12
 BYTE   N06
 BYTE   W06
 BYTE   N06
 BYTE   W06
 BYTE   N12
 BYTE   W24
 BYTE   N12
 BYTE   W12
 BYTE   N06
 BYTE   W06
 BYTE   N06
 BYTE   W06
 BYTE   PEND 
 BYTE   PATT
  POIN2 Label_8_011B9D1A
// 010   ----------------------------------------
 BYTE   VOL   57*FE05SquadronADolkar_mvl/mxv
 BYTE   N12  An1  v100
 BYTE   W12
 BYTE   N06  An1  v060
 BYTE   W06
 BYTE   N06
 BYTE   W06
 BYTE   N12  An1  v100
 BYTE   W12
 BYTE   N06  An1  v060
 BYTE   W06
 BYTE   N06
 BYTE   W06
 BYTE   N12  An1  v100
 BYTE   W12
 BYTE   N06  An1  v060
 BYTE   W06
 BYTE   N06
 BYTE   W06
 BYTE   N12  An1  v100
 BYTE   W12
 BYTE   N06  An1  v060
 BYTE   W06
 BYTE   N06
 BYTE   W06
 BYTE   PATT
  POIN2 Label_8_011B9C4A
 BYTE   PATT
  POIN2 Label_8_011B9C73
 BYTE   PATT
  POIN2 Label_8_011B9C4A
 BYTE   PATT
  POIN2 Label_8_011B9C4A
 BYTE   PATT
  POIN2 Label_8_011B9C97
 BYTE   PATT
  POIN2 Label_8_011B9CB2
 BYTE   PATT
  POIN2 Label_8_011B9C4A
 BYTE   PATT
  POIN2 Label_8_011B9C4A
 BYTE   PATT
  POIN2 Label_8_011B9CD1
 BYTE   PATT
  POIN2 Label_8_011B9CD1
 BYTE   PATT
  POIN2 Label_8_011B9CD1
 BYTE   PATT
  POIN2 Label_8_011B9CD1
 BYTE   PATT
  POIN2 Label_8_011B9CF3
 BYTE   PATT
  POIN2 Label_8_011B9CFC
 BYTE   PATT
  POIN2 Label_8_011B9D11
 BYTE   PATT
  POIN2 Label_8_011B9D1A
// 011   ----------------------------------------
 BYTE   N12  An1  v100
 BYTE   W24
 BYTE   N12
 BYTE   W12
 BYTE   N06
 BYTE   W06
 BYTE   N06
 BYTE   W06
 BYTE   N12
 BYTE   W24
 BYTE   N12
 BYTE   W12
 BYTE   N06
 BYTE   W06
 BYTE   N06
 BYTE   W05
 BYTE   GoTo
  POIN2 Label_8_011B9C1E
// 012   ----------------------------------------
 BYTE   W01
 BYTE   FINE

//******************************************************//
	ALIGN 4

FE05SquadronADolkar:
	BYTE	9	// NumTrks
	BYTE	0	// NumBlks
	BYTE	FE05SquadronADolkar_pri	// Priority
	BYTE	FE05SquadronADolkar_rev	// Reverb.
    
	POIN2	FE05SquadronADolkar_grp
    
	POIN2	FE05SquadronADolkar_001
	POIN2	FE05SquadronADolkar_002
	POIN2	FE05SquadronADolkar_003
	POIN2	FE05SquadronADolkar_004
	POIN2	FE05SquadronADolkar_005
	POIN2	FE05SquadronADolkar_006
	POIN2	FE05SquadronADolkar_007
	POIN2	FE05SquadronADolkar_008
	POIN2	FE05SquadronADolkar_009

	
