//Event file generated from Sappy .s format.
	#include "MPlayDef.event"

	#define	FE06BeneathaNewLightAlice_grp  voicegroup000
	#define	FE06BeneathaNewLightAlice_pri  10
	#define	FE06BeneathaNewLightAlice_rev  158
	#define	FE06BeneathaNewLightAlice_mvl  127
	#define	FE06BeneathaNewLightAlice_key  0
	#define	FE06BeneathaNewLightAlice_tbs  1
	#define	FE06BeneathaNewLightAlice_exg  0
	#define	FE06BeneathaNewLightAlice_cmp  1

	// .rodata
	//	FE06BeneathaNewLightAlice
	ALIGN 4


//**************** Track 1 (Midi-Chn.0) ****************//

FE06BeneathaNewLightAlice_001:
//  #01 //000   ----------------------------------------
 BYTE   KEYSH   FE06BeneathaNewLightAlice_key+0
 BYTE   TEMPO   128*FE06BeneathaNewLightAlice_tbs/2
 BYTE   VOICE   58
 BYTE   VOL   6*FE06BeneathaNewLightAlice_mvl/mxv
 BYTE   PAN   c_v+17
 BYTE   BEND   c_v-4
 BYTE   W06
 BYTE   N06  Gn3  v104
 BYTE   W18
 BYTE   N03  Gn3  v088
 BYTE   W06
 BYTE   N28  As3  v084
 BYTE   W48
 BYTE   N05  Gn3  v100
 BYTE   W18
//  #01 //001   ----------------------------------------
 BYTE   N03  Gn3  v080
 BYTE   W06
 BYTE   N68  As3  v092
 BYTE   W72
 BYTE   N06  Gs3
 BYTE   W07
 BYTE   As3  v080
 BYTE   W08
 BYTE   N07  Gs3  v084
 BYTE   W03
//  #01 //002   ----------------------------------------
 BYTE   W06
 BYTE   N88  Gn3  v096
 BYTE   W90
//  #01 //003   ----------------------------------------
Label_01021154:
 BYTE   VOICE   39
 BYTE   VOL   31*FE06BeneathaNewLightAlice_mvl/mxv
 BYTE   PAN   c_v+0
 BYTE   BEND   c_v+0
 BYTE   N32  Cn4  v104
 BYTE   W36
 BYTE   N11  Dn4
 BYTE   W12
 BYTE   N44  En4  v108
 BYTE   W48
//  #01 //004   ----------------------------------------
 BYTE   N32  Fn4  v100
 BYTE   W36
 BYTE   N05  En4
 BYTE   W06
 BYTE   Dn4  v084
 BYTE   W06
 BYTE   N23  En4  v096
 BYTE   W24
 BYTE   Cn4  v100
 BYTE   W24
//  #01 //005   ----------------------------------------
 BYTE   N32  An4  v104
 BYTE   W36
 BYTE   N05  Bn4  v096
 BYTE   W06
 BYTE   Cn5  v076
 BYTE   W06
 BYTE   N23  Gn4  v088
 BYTE   W24
 BYTE   Fn4  v096
 BYTE   W24
//  #01 //006   ----------------------------------------
 BYTE   N44  En4
 BYTE   W48
 BYTE   Dn4  v112
 BYTE   W48
//  #01 //007   ----------------------------------------
 BYTE   N32  Cn4  v116
 BYTE   W36
 BYTE   N11  Dn4  v108
 BYTE   W12
 BYTE   N44  En4
 BYTE   W48
//  #01 //008   ----------------------------------------
 BYTE   N32  Fn4  v100
 BYTE   W36
 BYTE   N05  En4
 BYTE   W06
 BYTE   Dn4  v088
 BYTE   W06
 BYTE   N23  En4  v100
 BYTE   W24
 BYTE   Cn4
 BYTE   W24
//  #01 //009   ----------------------------------------
 BYTE   N32  En4  v108
 BYTE   W36
 BYTE   N11  Dn4
 BYTE   W12
 BYTE   N32  Dn4  v116
 BYTE   W36
 BYTE   N11  Cn4  v092
 BYTE   W12
//  #01 //010   ----------------------------------------
 BYTE   N32  En4  v100
 BYTE   W36
 BYTE   N11
 BYTE   W12
 BYTE   N23  En4  v104
 BYTE   W24
 BYTE   Dn4
 BYTE   W24
//  #01 //011   ----------------------------------------
 BYTE   VOICE   48
 BYTE   VOL   36*FE06BeneathaNewLightAlice_mvl/mxv
 BYTE   PAN   c_v+0
 BYTE   N92  Gn2  v092
 BYTE   W96
//  #01 //012   ----------------------------------------
 BYTE   N44  An2
 BYTE   W48
 BYTE   Bn2  v096
 BYTE   W48
//  #01 //013   ----------------------------------------
 BYTE   N32  Cn4  v120
 BYTE   W36
 BYTE   N11  Dn4
 BYTE   W12
 BYTE   N44  En4  v124
 BYTE   W48
//  #01 //014   ----------------------------------------
 BYTE   N32  Fn4  v116
 BYTE   W36
 BYTE   N05  En4
 BYTE   W06
 BYTE   Dn4  v096
 BYTE   W06
 BYTE   N23  En4  v108
 BYTE   W24
 BYTE   Cn4  v112
 BYTE   W24
//  #01 //015   ----------------------------------------
 BYTE   N32  An4  v120
 BYTE   W36
 BYTE   N05  Bn4  v108
 BYTE   W06
 BYTE   Cn5  v088
 BYTE   W06
 BYTE   N23  Gn4  v104
 BYTE   W24
 BYTE   Fn4  v112
 BYTE   W24
//  #01 //016   ----------------------------------------
 BYTE   N44  En4
 BYTE   W48
 BYTE   Dn4  v127
 BYTE   W48
//  #01 //017   ----------------------------------------
 BYTE   N32  Cn4
 BYTE   W36
 BYTE   N11  Dn4  v124
 BYTE   W12
 BYTE   N44  En4
 BYTE   W48
//  #01 //018   ----------------------------------------
 BYTE   N32  Fn4  v112
 BYTE   W36
 BYTE   N05  En4
 BYTE   W06
 BYTE   Dn4  v104
 BYTE   W06
 BYTE   N23  En4  v116
 BYTE   W24
 BYTE   Cn4
 BYTE   W24
//  #01 //019   ----------------------------------------
 BYTE   N32  En4  v124
 BYTE   W36
 BYTE   N11  Dn4
 BYTE   W12
 BYTE   N32  Dn4  v127
 BYTE   W36
 BYTE   N11  Cn4  v108
 BYTE   W12
//  #01 //020   ----------------------------------------
 BYTE   N32  En4  v116
 BYTE   W36
 BYTE   N11  En4  v112
 BYTE   W12
 BYTE   N23  En4  v116
 BYTE   W24
 BYTE   Dn4  v120
 BYTE   W24
//  #01 //021   ----------------------------------------
 BYTE   VOICE   48
 BYTE   VOL   47*FE06BeneathaNewLightAlice_mvl/mxv
 BYTE   PAN   c_v+0
 BYTE   TIE  Cn3  v084
 BYTE   W96
//  #01 //022   ----------------------------------------
 BYTE   W96
//  #01 //023   ----------------------------------------
 BYTE   W96
//  #01 //024   ----------------------------------------
 BYTE   W44
 BYTE   W03
 BYTE   EOT
 BYTE   W01
 BYTE   N08  Gn1  v104
 BYTE   W12
 BYTE   Bn1  v108
 BYTE   W12
 BYTE   N07  Dn2  v104
 BYTE   W07
 BYTE   Fn2  v096
 BYTE   W08
 BYTE   An2  v064
 BYTE   W09
//  #01 //025   ----------------------------------------
 BYTE   TIE  Cn3  v092
 BYTE   W96
//  #01 //026   ----------------------------------------
 BYTE   W96
//  #01 //027   ----------------------------------------
 BYTE   W96
//  #01 //028   ----------------------------------------
 BYTE   W96
//  #01 //029   ----------------------------------------
 BYTE   W23
 BYTE   EOT
 BYTE   W01
 BYTE   N23  Gn2  v104
 BYTE   W24
 BYTE   Cn3  v096
 BYTE   W24
 BYTE   En3
 BYTE   W24
//  #01 //030   ----------------------------------------
 BYTE   TIE  Gn3  v080
 BYTE   W96
//  #01 //031   ----------------------------------------
 BYTE   W23
 BYTE   EOT
 BYTE   W01
 BYTE   N05  An1  v100
 BYTE   W06
 BYTE   Bn1  v096
 BYTE   W06
 BYTE   Cn2  v100
 BYTE   W06
 BYTE   Dn2  v080
 BYTE   W06
 BYTE   En2  v100
 BYTE   W06
 BYTE   Fn2  v104
 BYTE   W06
 BYTE   Gn2  v088
 BYTE   W06
 BYTE   An2  v092
 BYTE   W06
 BYTE   N03  Bn2  v088
 BYTE   W03
 BYTE   Cn3
 BYTE   W04
 BYTE   Dn3
 BYTE   W05
 BYTE   En3
 BYTE   W03
 BYTE   Fn3  v100
 BYTE   W04
 BYTE   Gn3  v092
 BYTE   W05
//  #01 //032   ----------------------------------------
 BYTE   N44  An3  v072
 BYTE   W48
 BYTE   N68  Gn3  v100
 BYTE   W48
//  #01 //033   ----------------------------------------
 BYTE   W24
 BYTE   N23  Ds2  v104
 BYTE   W24
 BYTE   Gs2  v092
 BYTE   W24
 BYTE   Cn3  v112
 BYTE   W24
//  #01 //034   ----------------------------------------
 BYTE   N44  Ds3  v096
 BYTE   W48
 BYTE   Dn3  v088
 BYTE   W48
//  #01 //035   ----------------------------------------
 BYTE   Cn3  v100
 BYTE   W48
 BYTE   N11  Gn2  v108
 BYTE   W12
 BYTE   Cn2  v104
 BYTE   W12
 BYTE   N68
 BYTE   W24
//  #01 //036   ----------------------------------------
 BYTE   W48
 BYTE   N05  Cn2  v096
 BYTE   W06
 BYTE   Dn2  v076
 BYTE   W06
 BYTE   En2  v100
 BYTE   W06
 BYTE   Fn2  v104
 BYTE   W06
 BYTE   Gn2  v092
 BYTE   W06
 BYTE   An2  v088
 BYTE   W06
 BYTE   Bn2  v092
 BYTE   W06
 BYTE   Cn3  v096
 BYTE   W06
//  #01 //037   ----------------------------------------
 BYTE   N44  Dn3  v108
 BYTE   W48
 BYTE   Ds3  v072
 BYTE   W48
//  #01 //038   ----------------------------------------
 BYTE   Dn3  v100
 BYTE   W48
 BYTE   Fn3  v092
 BYTE   W48
//  #01 //039   ----------------------------------------
 BYTE   N92  Gn3  v096
 BYTE   W96
//  #01 //040   ----------------------------------------
 BYTE   N72  Gn2  v092
 BYTE   W96
//  #01 //041   ----------------------------------------
 BYTE   GoTo
  POIN2 Label_01021154
 BYTE   FINE

//**************** Track 2 (Midi-Chn.1) ****************//

FE06BeneathaNewLightAlice_002:
//  #02 //000   ----------------------------------------
 BYTE   KEYSH   FE06BeneathaNewLightAlice_key+0
 BYTE   VOICE   58
 BYTE   VOL   66*FE06BeneathaNewLightAlice_mvl/mxv
 BYTE   PAN   c_v+0
 BYTE   BEND   c_v+0
 BYTE   N09  Cn3  v088
 BYTE   W18
 BYTE   N05  Cn3  v100
 BYTE   W06
 BYTE   N30  Ds3  v076
 BYTE   W48
 BYTE   N08  Cn3  v100
 BYTE   W18
 BYTE   N05
 BYTE   W06
//  #02 //001   ----------------------------------------
 BYTE   N68  Ds3  v088
 BYTE   W72
 BYTE   N07  Ds3  v092
 BYTE   W07
 BYTE   N06  Fn3  v080
 BYTE   W08
 BYTE   Ds3
 BYTE   W09
//  #02 //002   ----------------------------------------
 BYTE   N92  Dn3  v092
 BYTE   W96
//  #02 //003   ----------------------------------------
Label_01021332:
 BYTE   VOICE   48
 BYTE   VOL   80*FE06BeneathaNewLightAlice_mvl/mxv
 BYTE   PAN   c_v+0
 BYTE   BEND   c_v+0
 BYTE   N32  Cn3  v120
 BYTE   W36
 BYTE   N11  Dn3
 BYTE   W12
 BYTE   N44  En3  v124
 BYTE   W48
//  #02 //004   ----------------------------------------
Label_01021345:
 BYTE   N32  Fn3  v116
 BYTE   W36
 BYTE   N05  En3
 BYTE   W06
 BYTE   Dn3  v096
 BYTE   W06
 BYTE   N23  En3  v108
 BYTE   W24
 BYTE   Cn3  v112
 BYTE   W24
 BYTE   PEND 
//  #02 //005   ----------------------------------------
Label_01021357:
 BYTE   N32  An3  v120
 BYTE   W36
 BYTE   N05  Bn3  v108
 BYTE   W06
 BYTE   Cn4  v088
 BYTE   W06
 BYTE   N23  Gn3  v104
 BYTE   W24
 BYTE   Fn3  v112
 BYTE   W24
 BYTE   PEND 
//  #02 //006   ----------------------------------------
Label_0102136A:
 BYTE   N44  En3  v112
 BYTE   W48
 BYTE   Dn3  v127
 BYTE   W48
 BYTE   PEND 
//  #02 //007   ----------------------------------------
Label_01021372:
 BYTE   N32  Cn3  v127
 BYTE   W36
 BYTE   N11  Dn3  v124
 BYTE   W12
 BYTE   N44  En3
 BYTE   W48
 BYTE   PEND 
//  #02 //008   ----------------------------------------
Label_0102137E:
 BYTE   N32  Fn3  v112
 BYTE   W36
 BYTE   N05  En3
 BYTE   W06
 BYTE   Dn3  v104
 BYTE   W06
 BYTE   N23  En3  v116
 BYTE   W24
 BYTE   Cn3
 BYTE   W24
 BYTE   PEND 
//  #02 //009   ----------------------------------------
Label_0102138F:
 BYTE   N32  En3  v124
 BYTE   W36
 BYTE   N11  Dn3
 BYTE   W12
 BYTE   N32  Dn3  v127
 BYTE   W36
 BYTE   N11  Cn3  v108
 BYTE   W12
 BYTE   PEND 
//  #02 //010   ----------------------------------------
Label_0102139F:
 BYTE   N32  En3  v116
 BYTE   W36
 BYTE   N11  En3  v112
 BYTE   W12
 BYTE   N23  En3  v116
 BYTE   W24
 BYTE   Dn3  v120
 BYTE   W24
 BYTE   PEND 
//  #02 //011   ----------------------------------------
 BYTE   VOICE   40
 BYTE   VOL   47*FE06BeneathaNewLightAlice_mvl/mxv
 BYTE   PAN   c_v+0
 BYTE   N92  En3  v088
 BYTE   W96
//  #02 //012   ----------------------------------------
 BYTE   N44  Fn3
 BYTE   W48
 BYTE   N42  Gn3
 BYTE   W48
//  #02 //013   ----------------------------------------
 BYTE   VOICE   48
 BYTE   VOL   80*FE06BeneathaNewLightAlice_mvl/mxv
 BYTE   PAN   c_v+0
 BYTE   N32  Cn3  v120
 BYTE   W36
 BYTE   N11  Dn3
 BYTE   W12
 BYTE   N44  En3  v124
 BYTE   W48
//  #02 //014   ----------------------------------------
 BYTE   PATT
  POIN2 Label_01021345
//  #02 //015   ----------------------------------------
 BYTE   PATT
  POIN2 Label_01021357
//  #02 //016   ----------------------------------------
 BYTE   PATT
  POIN2 Label_0102136A
//  #02 //017   ----------------------------------------
 BYTE   PATT
  POIN2 Label_01021372
//  #02 //018   ----------------------------------------
 BYTE   PATT
  POIN2 Label_0102137E
//  #02 //019   ----------------------------------------
 BYTE   PATT
  POIN2 Label_0102138F
//  #02 //020   ----------------------------------------
 BYTE   PATT
  POIN2 Label_0102139F
//  #02 //021   ----------------------------------------
 BYTE   VOICE   40
 BYTE   VOL   66*FE06BeneathaNewLightAlice_mvl/mxv
 BYTE   PAN   c_v+0
 BYTE   N32  Cn3  v092
 BYTE   W36
 BYTE   N11  Dn3  v096
 BYTE   W12
 BYTE   N44  En3
 BYTE   W48
//  #02 //022   ----------------------------------------
 BYTE   N23  Fn3  v092
 BYTE   W24
 BYTE   Dn3  v096
 BYTE   W24
 BYTE   En3
 BYTE   W24
 BYTE   Cn3
 BYTE   W24
//  #02 //023   ----------------------------------------
 BYTE   TIE  Gn3  v084
 BYTE   W96
//  #02 //024   ----------------------------------------
 BYTE   W44
 BYTE   W03
 BYTE   EOT
 BYTE   W07
 BYTE   N08  An1  v096
 BYTE   W12
 BYTE   Cn2
 BYTE   W09
 BYTE   N07  En2  v108
 BYTE   W09
 BYTE   Gn2  v104
 BYTE   W07
 BYTE   N03  Bn2  v092
 BYTE   W05
//  #02 //025   ----------------------------------------
 BYTE   VOICE   49
 BYTE   VOL   67*FE06BeneathaNewLightAlice_mvl/mxv
 BYTE   PAN   c_v+1
 BYTE   BEND   c_v-4
 BYTE   N28  Cn3  v108
 BYTE   W30
 BYTE   N05  Cn3  v032
 BYTE   W06
 BYTE   N07  Dn3  v096
 BYTE   W12
 BYTE   N28  En3  v108
 BYTE   W30
 BYTE   N11  En3  v032
 BYTE   W18
//  #02 //026   ----------------------------------------
 BYTE   N17  Fn3  v108
 BYTE   W18
 BYTE   N05  Fn3  v032
 BYTE   W06
 BYTE   N17  Dn3  v104
 BYTE   W18
 BYTE   N05  Dn3  v032
 BYTE   W06
 BYTE   N17  En3  v112
 BYTE   W18
 BYTE   N05  En3  v032
 BYTE   W06
 BYTE   N17  Cn3  v108
 BYTE   W18
 BYTE   N05  Cn3  v032
 BYTE   W06
//  #02 //027   ----------------------------------------
 BYTE   N21  An3  v112
 BYTE   W24
 BYTE   N19  Cn4  v104
 BYTE   W24
 BYTE   N20  Gn3  v112
 BYTE   W24
 BYTE   N21  Fn3  v104
 BYTE   W24
//  #02 //028   ----------------------------------------
 BYTE   N40  En3  v108
 BYTE   W48
 BYTE   Dn3  v116
 BYTE   W48
//  #02 //029   ----------------------------------------
 BYTE   N28  Cn3  v104
 BYTE   W36
 BYTE   N10  Dn3  v096
 BYTE   W12
 BYTE   N36  En3  v108
 BYTE   W48
//  #02 //030   ----------------------------------------
 BYTE   N21  Fn3  v104
 BYTE   W24
 BYTE   N11  En3  v108
 BYTE   W12
 BYTE   Dn3  v104
 BYTE   W12
 BYTE   N20  En3  v112
 BYTE   W24
 BYTE   Cn3  v100
 BYTE   W24
//  #02 //031   ----------------------------------------
 BYTE   N32  En3  v112
 BYTE   W36
 BYTE   N11  Dn3  v104
 BYTE   W12
 BYTE   N30  Dn3  v108
 BYTE   W36
 BYTE   N10  Cn3  v096
 BYTE   W12
//  #02 //032   ----------------------------------------
 BYTE   N36  En3  v112
 BYTE   W48
 BYTE   N19  Dn3  v104
 BYTE   W24
 BYTE   N17  Gn3
 BYTE   W24
//  #02 //033   ----------------------------------------
 BYTE   N84  Cn4  v116
 BYTE   W96
//  #02 //034   ----------------------------------------
 BYTE   N42  As3  v100
 BYTE   W48
 BYTE   Gs3  v088
 BYTE   W48
//  #02 //035   ----------------------------------------
 BYTE   N18  Gn3  v104
 BYTE   W24
 BYTE   TIE  Cn3
 BYTE   W72
//  #02 //036   ----------------------------------------
 BYTE   W68
 BYTE   EOT
 BYTE   W28
//  #02 //037   ----------------------------------------
 BYTE   N90  Cn4  v112
 BYTE   W96
//  #02 //038   ----------------------------------------
 BYTE   N36  As3  v100
 BYTE   W48
 BYTE   N44  Gs3  v092
 BYTE   W48
//  #02 //039   ----------------------------------------
 BYTE   TIE  Cn4  v100
 BYTE   W96
//  #02 //040   ----------------------------------------
 BYTE   W68
 BYTE   W03
 BYTE   EOT
 BYTE   W24
 BYTE   W01
//  #02 //041   ----------------------------------------
 BYTE   GoTo
  POIN2 Label_01021332
 BYTE   FINE

//**************** Track 3 (Midi-Chn.2) ****************//

FE06BeneathaNewLightAlice_003:
//  #03 //000   ----------------------------------------
 BYTE   KEYSH   FE06BeneathaNewLightAlice_key+0
 BYTE   VOICE   58
 BYTE   VOL   55*FE06BeneathaNewLightAlice_mvl/mxv
 BYTE   PAN   c_v+17
 BYTE   N06  Gn3  v104
 BYTE   W18
 BYTE   N03  Gn3  v088
 BYTE   W06
 BYTE   N28  As3  v084
 BYTE   W48
 BYTE   N05  Gn3  v100
 BYTE   W18
 BYTE   N03  Gn3  v080
 BYTE   W06
//  #03 //001   ----------------------------------------
 BYTE   N68  As3  v092
 BYTE   W72
 BYTE   N06  Gs3
 BYTE   W07
 BYTE   As3  v080
 BYTE   W08
 BYTE   N07  Gs3  v084
 BYTE   W09
//  #03 //002   ----------------------------------------
 BYTE   N90  Gn3  v096
 BYTE   W96
//  #03 //003   ----------------------------------------
Label_01021512:
 BYTE   VOICE   51
 BYTE   VOL   31*FE06BeneathaNewLightAlice_mvl/mxv
 BYTE   PAN   c_v-16
 BYTE   N92  Cn3  v092
 BYTE   W96
//  #03 //004   ----------------------------------------
 BYTE   N44  Gs3
 BYTE   W48
 BYTE   Gn3
 BYTE   W48
//  #03 //005   ----------------------------------------
 BYTE   N92  Fn3
 BYTE   W96
//  #03 //006   ----------------------------------------
 BYTE   N44  Gn3
 BYTE   W48
 BYTE   Fn3
 BYTE   W48
//  #03 //007   ----------------------------------------
 BYTE   En3
 BYTE   W48
 BYTE   An3  v080
 BYTE   W48
//  #03 //008   ----------------------------------------
 BYTE   Bn3  v092
 BYTE   W48
 BYTE   Cn4
 BYTE   W48
//  #03 //009   ----------------------------------------
 BYTE   N92  Cn3
 BYTE   W96
//  #03 //010   ----------------------------------------
 BYTE   N44  An3
 BYTE   W48
 BYTE   N48  Gn3  v088
 BYTE   W48
//  #03 //011   ----------------------------------------
 BYTE   W96
//  #03 //012   ----------------------------------------
 BYTE   W96
//  #03 //013   ----------------------------------------
 BYTE   VOICE   40
 BYTE   VOL   47*FE06BeneathaNewLightAlice_mvl/mxv
 BYTE   PAN   c_v+18
 BYTE   N92  En3  v096
 BYTE   W96
//  #03 //014   ----------------------------------------
 BYTE   Cn3  v092
 BYTE   W96
//  #03 //015   ----------------------------------------
 BYTE   Fn3  v084
 BYTE   W96
//  #03 //016   ----------------------------------------
 BYTE   N44  Gn3  v092
 BYTE   W48
 BYTE   Fn3  v096
 BYTE   W48
//  #03 //017   ----------------------------------------
 BYTE   N92  En3  v100
 BYTE   W96
//  #03 //018   ----------------------------------------
 BYTE   Cn3  v092
 BYTE   W96
//  #03 //019   ----------------------------------------
 BYTE   An2  v080
 BYTE   W96
//  #03 //020   ----------------------------------------
 BYTE   N44  Bn2  v100
 BYTE   W48
 BYTE   VOICE   49
 BYTE   VOL   47*FE06BeneathaNewLightAlice_mvl/mxv
 BYTE   PAN   c_v+0
 BYTE   N05  Gn2  v116
 BYTE   W06
 BYTE   An2  v092
 BYTE   W06
 BYTE   Bn2  v112
 BYTE   W06
 BYTE   Cn3  v080
 BYTE   W06
 BYTE   N03  Dn3  v100
 BYTE   W03
 BYTE   En3  v104
 BYTE   W04
 BYTE   Fn3  v096
 BYTE   W05
 BYTE   Gn3  v092
 BYTE   W03
 BYTE   An3  v064
 BYTE   W04
 BYTE   Bn3  v092
 BYTE   W05
//  #03 //021   ----------------------------------------
 BYTE   W96
//  #03 //022   ----------------------------------------
 BYTE   W96
//  #03 //023   ----------------------------------------
 BYTE   W96
//  #03 //024   ----------------------------------------
 BYTE   W96
//  #03 //025   ----------------------------------------
 BYTE   VOICE   51
 BYTE   VOL   55*FE06BeneathaNewLightAlice_mvl/mxv
 BYTE   PAN   c_v+1
 BYTE   N32  Cn3  v108
 BYTE   W36
 BYTE   N07  Dn3  v096
 BYTE   W12
 BYTE   N32  En3  v108
 BYTE   W48
//  #03 //026   ----------------------------------------
 BYTE   N18  Fn3
 BYTE   W24
 BYTE   N20  Dn3  v104
 BYTE   W24
 BYTE   En3  v112
 BYTE   W24
 BYTE   N17  Cn3  v108
 BYTE   W24
//  #03 //027   ----------------------------------------
 BYTE   N21  An3  v112
 BYTE   W24
 BYTE   N19  Cn4  v104
 BYTE   W24
 BYTE   N20  Gn3  v112
 BYTE   W24
 BYTE   N21  Fn3  v104
 BYTE   W24
//  #03 //028   ----------------------------------------
 BYTE   N40  En3  v108
 BYTE   W48
 BYTE   Dn3  v116
 BYTE   W48
//  #03 //029   ----------------------------------------
 BYTE   N28  Cn3  v104
 BYTE   W36
 BYTE   N10  Dn3  v096
 BYTE   W12
 BYTE   N36  En3  v108
 BYTE   W48
//  #03 //030   ----------------------------------------
 BYTE   N21  Fn3  v104
 BYTE   W24
 BYTE   N11  En3  v108
 BYTE   W12
 BYTE   Dn3  v104
 BYTE   W12
 BYTE   N20  En3  v112
 BYTE   W24
 BYTE   Cn3  v100
 BYTE   W24
//  #03 //031   ----------------------------------------
 BYTE   N32  En3  v112
 BYTE   W36
 BYTE   N11  Dn3  v104
 BYTE   W12
 BYTE   N30  Dn3  v108
 BYTE   W36
 BYTE   N10  Cn3  v096
 BYTE   W12
//  #03 //032   ----------------------------------------
 BYTE   N36  En3  v112
 BYTE   W48
 BYTE   N19  Dn3  v104
 BYTE   W24
 BYTE   N17  Gn3
 BYTE   W24
//  #03 //033   ----------------------------------------
 BYTE   N84  Cn4  v116
 BYTE   W96
//  #03 //034   ----------------------------------------
 BYTE   N42  As3  v100
 BYTE   W48
 BYTE   Gs3  v088
 BYTE   W48
//  #03 //035   ----------------------------------------
 BYTE   N18  Gn3  v104
 BYTE   W24
 BYTE   TIE  Cn3
 BYTE   W72
//  #03 //036   ----------------------------------------
 BYTE   W68
 BYTE   EOT
 BYTE   W28
//  #03 //037   ----------------------------------------
 BYTE   N90  Cn4  v112
 BYTE   W96
//  #03 //038   ----------------------------------------
 BYTE   N36  As3  v100
 BYTE   W48
 BYTE   N44  Gs3  v092
 BYTE   W48
//  #03 //039   ----------------------------------------
 BYTE   TIE  Cn4  v100
 BYTE   W96
//  #03 //040   ----------------------------------------
 BYTE   W68
 BYTE   W03
 BYTE   EOT
 BYTE   W24
 BYTE   W01
//  #03 //041   ----------------------------------------
 BYTE   GoTo
  POIN2 Label_01021512
 BYTE   FINE

//**************** Track 4 (Midi-Chn.3) ****************//

FE06BeneathaNewLightAlice_004:
//  #04 //000   ----------------------------------------
 BYTE   KEYSH   FE06BeneathaNewLightAlice_key+0
 BYTE   W96
//  #04 //001   ----------------------------------------
 BYTE   VOICE   110
 BYTE   VOL   5*FE06BeneathaNewLightAlice_mvl/mxv
 BYTE   PAN   c_v-4
 BYTE   TIE  Gn3  v108
 BYTE   W06
 BYTE   VOL   5*FE06BeneathaNewLightAlice_mvl/mxv
 BYTE   W06
 BYTE   VOL   5*FE06BeneathaNewLightAlice_mvl/mxv
 BYTE   W06
 BYTE   VOL   5*FE06BeneathaNewLightAlice_mvl/mxv
 BYTE   W06
 BYTE   VOL   5*FE06BeneathaNewLightAlice_mvl/mxv
 BYTE   W06
 BYTE   VOL   5*FE06BeneathaNewLightAlice_mvl/mxv
 BYTE   W12
 BYTE   VOL   9*FE06BeneathaNewLightAlice_mvl/mxv
 BYTE   W12
 BYTE   VOL   17*FE06BeneathaNewLightAlice_mvl/mxv
 BYTE   W06
 BYTE   VOL   21*FE06BeneathaNewLightAlice_mvl/mxv
 BYTE   W06
 BYTE   VOL   28*FE06BeneathaNewLightAlice_mvl/mxv
 BYTE   W30
//  #04 //002   ----------------------------------------
 BYTE   W06
 BYTE   VOL   31*FE06BeneathaNewLightAlice_mvl/mxv
 BYTE   W18
 BYTE   VOL   36*FE06BeneathaNewLightAlice_mvl/mxv
 BYTE   W06
 BYTE   VOL   39*FE06BeneathaNewLightAlice_mvl/mxv
 BYTE   W06
 BYTE   VOL   46*FE06BeneathaNewLightAlice_mvl/mxv
 BYTE   W12
 BYTE   VOL   50*FE06BeneathaNewLightAlice_mvl/mxv
 BYTE   W18
 BYTE   VOL   54*FE06BeneathaNewLightAlice_mvl/mxv
 BYTE   W22
 BYTE   EOT
 BYTE   W08
//  #04 //003   ----------------------------------------
Label_0102166D:
 BYTE   VOICE   110
 BYTE   VOL   22*FE06BeneathaNewLightAlice_mvl/mxv
 BYTE   PAN   c_v+0
 BYTE   N05  Gn4  v108
 BYTE   W06
 BYTE   Gn4  v036
 BYTE   W06
 BYTE   N04  Gn4  v084
 BYTE   W05
 BYTE   Gn4  v012
 BYTE   W07
 BYTE   Gn4  v092
 BYTE   W05
 BYTE   Gn4  v020
 BYTE   W07
 BYTE   N05  Gn4  v104
 BYTE   W05
 BYTE   Gn4  v032
 BYTE   W07
 BYTE   Gn4  v100
 BYTE   W05
 BYTE   Gn4  v024
 BYTE   W07
 BYTE   N04  Gn4  v096
 BYTE   W05
 BYTE   Gn4  v024
 BYTE   W07
 BYTE   N05  Gn4  v096
 BYTE   W05
 BYTE   Gn4  v024
 BYTE   W07
 BYTE   N04  Gn4  v104
 BYTE   W05
 BYTE   Gn4  v032
 BYTE   W07
//  #04 //004   ----------------------------------------
Label_010216A9:
 BYTE   N05  Gs4  v108
 BYTE   W05
 BYTE   Gs4  v036
 BYTE   W07
 BYTE   Gs4  v088
 BYTE   W05
 BYTE   Gs4  v016
 BYTE   W07
 BYTE   Gs4  v088
 BYTE   W05
 BYTE   Gs4  v016
 BYTE   W07
 BYTE   N04  Gs4  v088
 BYTE   W05
 BYTE   Gs4  v012
 BYTE   W07
 BYTE   N05  Gn4  v116
 BYTE   W05
 BYTE   Gn4  v040
 BYTE   W07
 BYTE   N04  Gn4  v096
 BYTE   W05
 BYTE   Gn4  v024
 BYTE   W07
 BYTE   Gn4  v084
 BYTE   W05
 BYTE   Gn4  v008
 BYTE   W07
 BYTE   Gn4  v096
 BYTE   W05
 BYTE   Gn4  v024
 BYTE   W07
 BYTE   PEND 
//  #04 //005   ----------------------------------------
Label_010216DE:
 BYTE   N05  Fn4  v116
 BYTE   W05
 BYTE   Fn4  v044
 BYTE   W07
 BYTE   Fn4  v100
 BYTE   W05
 BYTE   Fn4  v024
 BYTE   W07
 BYTE   Fn4  v096
 BYTE   W05
 BYTE   Fn4  v020
 BYTE   W07
 BYTE   Fn4  v092
 BYTE   W05
 BYTE   Fn4  v020
 BYTE   W07
 BYTE   Gs4  v112
 BYTE   W05
 BYTE   Gs4  v036
 BYTE   W07
 BYTE   Gs4  v096
 BYTE   W05
 BYTE   Gs4  v024
 BYTE   W07
 BYTE   Gs4  v088
 BYTE   W05
 BYTE   Gs4  v016
 BYTE   W07
 BYTE   N04  Gs4  v088
 BYTE   W05
 BYTE   Gs4  v016
 BYTE   W07
 BYTE   PEND 
//  #04 //006   ----------------------------------------
Label_01021711:
 BYTE   N05  Gn4  v108
 BYTE   W05
 BYTE   Gn4  v036
 BYTE   W07
 BYTE   Gn4  v104
 BYTE   W05
 BYTE   Gn4  v032
 BYTE   W07
 BYTE   Gn4  v100
 BYTE   W05
 BYTE   Gn4  v028
 BYTE   W07
 BYTE   Gn4  v100
 BYTE   W05
 BYTE   Gn4  v028
 BYTE   W07
 BYTE   Gn4  v104
 BYTE   W05
 BYTE   Gn4  v032
 BYTE   W07
 BYTE   Gn4  v100
 BYTE   W05
 BYTE   Gn4  v028
 BYTE   W07
 BYTE   Gn4  v096
 BYTE   W05
 BYTE   Gn4  v024
 BYTE   W07
 BYTE   Gn4  v092
 BYTE   W05
 BYTE   Gn4  v016
 BYTE   W07
 BYTE   PEND 
//  #04 //007   ----------------------------------------
Label_01021743:
 BYTE   N05  En4  v104
 BYTE   W05
 BYTE   En4  v032
 BYTE   W07
 BYTE   N04  En4  v096
 BYTE   W05
 BYTE   En4  v020
 BYTE   W07
 BYTE   En4  v084
 BYTE   W05
 BYTE   En4  v012
 BYTE   W07
 BYTE   En4  v100
 BYTE   W05
 BYTE   En4  v024
 BYTE   W07
 BYTE   N05  En4  v112
 BYTE   W05
 BYTE   En4  v036
 BYTE   W07
 BYTE   N04  En4  v096
 BYTE   W05
 BYTE   En4  v024
 BYTE   W07
 BYTE   En4  v100
 BYTE   W05
 BYTE   En4  v028
 BYTE   W07
 BYTE   En4  v104
 BYTE   W05
 BYTE   En4  v032
 BYTE   W07
 BYTE   PEND 
//  #04 //008   ----------------------------------------
Label_01021778:
 BYTE   N05  En4  v112
 BYTE   W05
 BYTE   En4  v040
 BYTE   W07
 BYTE   En4  v104
 BYTE   W05
 BYTE   En4  v028
 BYTE   W07
 BYTE   N04  En4  v100
 BYTE   W05
 BYTE   En4  v028
 BYTE   W07
 BYTE   N05  En4  v100
 BYTE   W05
 BYTE   En4  v028
 BYTE   W07
 BYTE   Dn4  v108
 BYTE   W05
 BYTE   Dn4  v032
 BYTE   W07
 BYTE   N04  Dn4  v100
 BYTE   W05
 BYTE   Dn4  v028
 BYTE   W07
 BYTE   Dn4  v100
 BYTE   W05
 BYTE   Dn4  v028
 BYTE   W07
 BYTE   Dn4  v100
 BYTE   W05
 BYTE   Dn4  v028
 BYTE   W07
 BYTE   PEND 
//  #04 //009   ----------------------------------------
Label_010217AD:
 BYTE   N05  Dn4  v108
 BYTE   W05
 BYTE   Dn4  v036
 BYTE   W07
 BYTE   N04  Dn4  v100
 BYTE   W05
 BYTE   Dn4  v028
 BYTE   W07
 BYTE   Dn4  v092
 BYTE   W05
 BYTE   Dn4  v016
 BYTE   W07
 BYTE   N05  Dn4  v100
 BYTE   W05
 BYTE   Dn4  v028
 BYTE   W07
 BYTE   Cn4  v104
 BYTE   W05
 BYTE   Cn4  v032
 BYTE   W07
 BYTE   Cn4  v100
 BYTE   W05
 BYTE   Cn4  v028
 BYTE   W07
 BYTE   Cn4  v100
 BYTE   W05
 BYTE   Cn4  v028
 BYTE   W07
 BYTE   Cn4  v104
 BYTE   W05
 BYTE   Cn4  v028
 BYTE   W07
 BYTE   PEND 
//  #04 //010   ----------------------------------------
Label_010217E1:
 BYTE   N05  Cn4  v108
 BYTE   W05
 BYTE   Cn4  v036
 BYTE   W07
 BYTE   Cn4  v100
 BYTE   W05
 BYTE   Cn4  v028
 BYTE   W07
 BYTE   Cn4  v096
 BYTE   W05
 BYTE   Cn4  v024
 BYTE   W07
 BYTE   Cn4  v100
 BYTE   W05
 BYTE   Cn4  v028
 BYTE   W07
 BYTE   Bn3  v116
 BYTE   W05
 BYTE   Bn3  v044
 BYTE   W07
 BYTE   Bn3  v108
 BYTE   W05
 BYTE   Bn3  v036
 BYTE   W07
 BYTE   Bn3  v108
 BYTE   W05
 BYTE   Bn3  v032
 BYTE   W07
 BYTE   Bn3  v108
 BYTE   W05
 BYTE   Bn3  v036
 BYTE   W07
 BYTE   PEND 
//  #04 //011   ----------------------------------------
 BYTE   W96
//  #04 //012   ----------------------------------------
 BYTE   W96
//  #04 //013   ----------------------------------------
 BYTE   Gn4  v108
 BYTE   W06
 BYTE   Gn4  v036
 BYTE   W06
 BYTE   N04  Gn4  v084
 BYTE   W05
 BYTE   Gn4  v012
 BYTE   W07
 BYTE   Gn4  v092
 BYTE   W05
 BYTE   Gn4  v020
 BYTE   W07
 BYTE   N05  Gn4  v104
 BYTE   W05
 BYTE   Gn4  v032
 BYTE   W07
 BYTE   Gn4  v100
 BYTE   W05
 BYTE   Gn4  v024
 BYTE   W07
 BYTE   N04  Gn4  v096
 BYTE   W05
 BYTE   Gn4  v024
 BYTE   W07
 BYTE   N05  Gn4  v096
 BYTE   W05
 BYTE   Gn4  v024
 BYTE   W07
 BYTE   N04  Gn4  v104
 BYTE   W05
 BYTE   Gn4  v032
 BYTE   W07
//  #04 //014   ----------------------------------------
 BYTE   PATT
  POIN2 Label_010216A9
//  #04 //015   ----------------------------------------
 BYTE   PATT
  POIN2 Label_010216DE
//  #04 //016   ----------------------------------------
 BYTE   PATT
  POIN2 Label_01021711
//  #04 //017   ----------------------------------------
 BYTE   PATT
  POIN2 Label_01021743
//  #04 //018   ----------------------------------------
 BYTE   PATT
  POIN2 Label_01021778
//  #04 //019   ----------------------------------------
 BYTE   PATT
  POIN2 Label_010217AD
//  #04 //020   ----------------------------------------
 BYTE   PATT
  POIN2 Label_010217E1
//  #04 //021   ----------------------------------------
 BYTE   W96
//  #04 //022   ----------------------------------------
 BYTE   W96
//  #04 //023   ----------------------------------------
 BYTE   W96
//  #04 //024   ----------------------------------------
 BYTE   W96
//  #04 //025   ----------------------------------------
 BYTE   VOICE   40
 BYTE   VOL   35*FE06BeneathaNewLightAlice_mvl/mxv
 BYTE   PAN   c_v-1
 BYTE   N90  Gn2  v108
 BYTE   W96
//  #04 //026   ----------------------------------------
 BYTE   N44  Gs2
 BYTE   W48
 BYTE   Gn2  v116
 BYTE   W48
//  #04 //027   ----------------------------------------
 BYTE   Fn2
 BYTE   W48
 BYTE   Gs2  v112
 BYTE   W48
//  #04 //028   ----------------------------------------
 BYTE   N92  Gn2  v108
 BYTE   W96
//  #04 //029   ----------------------------------------
 BYTE   N44  En2  v104
 BYTE   W48
 BYTE   En2  v112
 BYTE   W48
//  #04 //030   ----------------------------------------
 BYTE   N44
 BYTE   W48
 BYTE   Dn2  v108
 BYTE   W48
//  #04 //031   ----------------------------------------
 BYTE   N44
 BYTE   W48
 BYTE   Cn2  v104
 BYTE   W48
//  #04 //032   ----------------------------------------
 BYTE   Cn2  v108
 BYTE   W48
 BYTE   Bn1  v116
 BYTE   W48
//  #04 //033   ----------------------------------------
 BYTE   N92  Ds2  v108
 BYTE   W96
//  #04 //034   ----------------------------------------
 BYTE   N84  Fn2  v116
 BYTE   W96
//  #04 //035   ----------------------------------------
 BYTE   TIE  Gn2  v104
 BYTE   W96
//  #04 //036   ----------------------------------------
 BYTE   W19
 BYTE   EOT
 BYTE   W05
 BYTE   N03  Gn2  v100
 BYTE   W12
 BYTE   N05  Gn2  v108
 BYTE   W12
 BYTE   N44  Gn2  v084
 BYTE   W48
//  #04 //037   ----------------------------------------
 BYTE   N92  Ds2  v104
 BYTE   W96
//  #04 //038   ----------------------------------------
 BYTE   N84  Fn2
 BYTE   W84
 BYTE   N06  En2  v112
 BYTE   W06
 BYTE   N05  Fn2  v116
 BYTE   W06
//  #04 //039   ----------------------------------------
 BYTE   TIE  Gn2  v108
 BYTE   W96
//  #04 //040   ----------------------------------------
 BYTE   W76
 BYTE   W01
 BYTE   EOT
 BYTE   W19
//  #04 //041   ----------------------------------------
 BYTE   GoTo
  POIN2 Label_0102166D
 BYTE   FINE

//**************** Track 5 (Midi-Chn.4) ****************//

FE06BeneathaNewLightAlice_005:
//  #05 //000   ----------------------------------------
 BYTE   KEYSH   FE06BeneathaNewLightAlice_key+0
 BYTE   W96
//  #05 //001   ----------------------------------------
 BYTE   VOICE   32
 BYTE   VOL   5*FE06BeneathaNewLightAlice_mvl/mxv
 BYTE   PAN   c_v-4
 BYTE   TIE  Cn3  v100
 BYTE   W06
 BYTE   VOL   5*FE06BeneathaNewLightAlice_mvl/mxv
 BYTE   W06
 BYTE   VOL   5*FE06BeneathaNewLightAlice_mvl/mxv
 BYTE   W06
 BYTE   VOL   5*FE06BeneathaNewLightAlice_mvl/mxv
 BYTE   W06
 BYTE   VOL   5*FE06BeneathaNewLightAlice_mvl/mxv
 BYTE   W06
 BYTE   VOL   5*FE06BeneathaNewLightAlice_mvl/mxv
 BYTE   W12
 BYTE   VOL   9*FE06BeneathaNewLightAlice_mvl/mxv
 BYTE   W12
 BYTE   VOL   17*FE06BeneathaNewLightAlice_mvl/mxv
 BYTE   W06
 BYTE   VOL   21*FE06BeneathaNewLightAlice_mvl/mxv
 BYTE   W06
 BYTE   VOL   28*FE06BeneathaNewLightAlice_mvl/mxv
 BYTE   W30
//  #05 //002   ----------------------------------------
 BYTE   W06
 BYTE   VOL   31*FE06BeneathaNewLightAlice_mvl/mxv
 BYTE   W18
 BYTE   VOL   36*FE06BeneathaNewLightAlice_mvl/mxv
 BYTE   W06
 BYTE   VOL   39*FE06BeneathaNewLightAlice_mvl/mxv
 BYTE   W06
 BYTE   VOL   46*FE06BeneathaNewLightAlice_mvl/mxv
 BYTE   W12
 BYTE   VOL   50*FE06BeneathaNewLightAlice_mvl/mxv
 BYTE   W18
 BYTE   VOL   54*FE06BeneathaNewLightAlice_mvl/mxv
 BYTE   W23
 BYTE   EOT
 BYTE   W07
//  #05 //003   ----------------------------------------
Label_01021919:
 BYTE   VOICE   33
 BYTE   VOL   19*FE06BeneathaNewLightAlice_mvl/mxv
 BYTE   PAN   c_v+0
 BYTE   N05  Cn3  v100
 BYTE   W12
 BYTE   N04  Cn3  v080
 BYTE   W12
 BYTE   N03  Cn3  v076
 BYTE   W12
 BYTE   N04  Cn3  v092
 BYTE   W12
 BYTE   Cn3  v088
 BYTE   W12
 BYTE   Cn3  v092
 BYTE   W12
 BYTE   Cn3  v080
 BYTE   W12
 BYTE   N03  Cn3  v088
 BYTE   W12
//  #05 //004   ----------------------------------------
Label_0102193C:
 BYTE   N04  Cn3  v104
 BYTE   W12
 BYTE   Cn3  v096
 BYTE   W12
 BYTE   Cn3  v088
 BYTE   W12
 BYTE   N03
 BYTE   W12
 BYTE   N05  Cn3  v108
 BYTE   W12
 BYTE   N04  Cn3  v084
 BYTE   W12
 BYTE   N03  Cn3  v080
 BYTE   W12
 BYTE   N04  Cn3  v104
 BYTE   W12
 BYTE   PEND 
//  #05 //005   ----------------------------------------
Label_01021959:
 BYTE   N04  Cn3  v112
 BYTE   W12
 BYTE   Cn3  v088
 BYTE   W12
 BYTE   N03  Cn3  v084
 BYTE   W12
 BYTE   N03
 BYTE   W12
 BYTE   N04  Cn3  v108
 BYTE   W12
 BYTE   Cn3  v088
 BYTE   W12
 BYTE   N04
 BYTE   W12
 BYTE   N03  Cn3  v092
 BYTE   W12
 BYTE   PEND 
//  #05 //006   ----------------------------------------
Label_01021974:
 BYTE   N04  Cn3  v104
 BYTE   W12
 BYTE   Cn3  v092
 BYTE   W12
 BYTE   Cn3  v088
 BYTE   W12
 BYTE   Cn3  v092
 BYTE   W12
 BYTE   Bn2  v116
 BYTE   W12
 BYTE   Bn2  v096
 BYTE   W12
 BYTE   N03  Bn2  v092
 BYTE   W12
 BYTE   N03
 BYTE   W12
 BYTE   PEND 
//  #05 //007   ----------------------------------------
Label_0102198E:
 BYTE   N05  An2  v100
 BYTE   W12
 BYTE   N04  An2  v084
 BYTE   W12
 BYTE   N05  An2  v076
 BYTE   W12
 BYTE   N04  An2  v072
 BYTE   W12
 BYTE   N02  Gs2  v108
 BYTE   W12
 BYTE   N03  Gs2  v080
 BYTE   W12
 BYTE   Gs2  v084
 BYTE   W12
 BYTE   N03
 BYTE   W12
 BYTE   PEND 
//  #05 //008   ----------------------------------------
Label_010219AC:
 BYTE   N05  Gn2  v108
 BYTE   W12
 BYTE   N04  Gn2  v092
 BYTE   W12
 BYTE   N03  Gn2  v072
 BYTE   W12
 BYTE   N04  Gn2  v076
 BYTE   W12
 BYTE   Fs2  v100
 BYTE   W12
 BYTE   Fs2  v088
 BYTE   W12
 BYTE   N03  Fs2  v084
 BYTE   W12
 BYTE   Fs2  v088
 BYTE   W12
 BYTE   PEND 
//  #05 //009   ----------------------------------------
Label_010219CA:
 BYTE   N06  Fn2  v112
 BYTE   W12
 BYTE   N04  Fn2  v096
 BYTE   W12
 BYTE   Fn2  v092
 BYTE   W12
 BYTE   Fn2  v096
 BYTE   W12
 BYTE   N05  Fn2  v104
 BYTE   W12
 BYTE   N04  Fn2  v096
 BYTE   W12
 BYTE   N04
 BYTE   W12
 BYTE   N05  Fn2  v088
 BYTE   W12
 BYTE   PEND 
//  #05 //010   ----------------------------------------
Label_010219E7:
 BYTE   N04  Gn2  v112
 BYTE   W12
 BYTE   Gn2  v096
 BYTE   W12
 BYTE   N04
 BYTE   W12
 BYTE   Gn2  v100
 BYTE   W12
 BYTE   Gn2  v104
 BYTE   W12
 BYTE   Gn2  v096
 BYTE   W12
 BYTE   Gn2  v092
 BYTE   W12
 BYTE   Gn2  v096
 BYTE   W12
 BYTE   PEND 
//  #05 //011   ----------------------------------------
 BYTE   W96
//  #05 //012   ----------------------------------------
 BYTE   W96
//  #05 //013   ----------------------------------------
 BYTE   N05  Cn3  v100
 BYTE   W12
 BYTE   N04  Cn3  v080
 BYTE   W12
 BYTE   N03  Cn3  v076
 BYTE   W12
 BYTE   N04  Cn3  v092
 BYTE   W12
 BYTE   Cn3  v088
 BYTE   W12
 BYTE   Cn3  v092
 BYTE   W12
 BYTE   Cn3  v080
 BYTE   W12
 BYTE   N03  Cn3  v088
 BYTE   W12
//  #05 //014   ----------------------------------------
 BYTE   PATT
  POIN2 Label_0102193C
//  #05 //015   ----------------------------------------
 BYTE   PATT
  POIN2 Label_01021959
//  #05 //016   ----------------------------------------
 BYTE   PATT
  POIN2 Label_01021974
//  #05 //017   ----------------------------------------
 BYTE   PATT
  POIN2 Label_0102198E
//  #05 //018   ----------------------------------------
 BYTE   PATT
  POIN2 Label_010219AC
//  #05 //019   ----------------------------------------
 BYTE   PATT
  POIN2 Label_010219CA
//  #05 //020   ----------------------------------------
 BYTE   PATT
  POIN2 Label_010219E7
//  #05 //021   ----------------------------------------
 BYTE   W96
//  #05 //022   ----------------------------------------
 BYTE   W96
//  #05 //023   ----------------------------------------
 BYTE   W96
//  #05 //024   ----------------------------------------
 BYTE   W96
//  #05 //025   ----------------------------------------
 BYTE   VOICE   48
 BYTE   VOL   35*FE06BeneathaNewLightAlice_mvl/mxv
 BYTE   PAN   c_v-1
 BYTE   N92  Cn2  v100
 BYTE   W96
//  #05 //026   ----------------------------------------
 BYTE   Cn2  v104
 BYTE   W96
//  #05 //027   ----------------------------------------
 BYTE   Cn2  v112
 BYTE   W96
//  #05 //028   ----------------------------------------
 BYTE   N44  Cn2  v104
 BYTE   W48
 BYTE   Bn1  v116
 BYTE   W48
//  #05 //029   ----------------------------------------
 BYTE   An1  v100
 BYTE   W48
 BYTE   Gs1  v108
 BYTE   W48
//  #05 //030   ----------------------------------------
 BYTE   Gn1
 BYTE   W48
 BYTE   Fs1  v100
 BYTE   W48
//  #05 //031   ----------------------------------------
 BYTE   N92  Fn1  v112
 BYTE   W96
//  #05 //032   ----------------------------------------
 BYTE   Gn1
 BYTE   W96
//  #05 //033   ----------------------------------------
 BYTE   Gs1  v100
 BYTE   W96
//  #05 //034   ----------------------------------------
 BYTE   N88  As1
 BYTE   W96
//  #05 //035   ----------------------------------------
 BYTE   TIE  Cn2
 BYTE   W96
//  #05 //036   ----------------------------------------
 BYTE   W19
 BYTE   EOT
 BYTE   W05
 BYTE   N03  Cn2  v096
 BYTE   W12
 BYTE   N04  Cn2  v100
 BYTE   W12
 BYTE   N44  Cn2  v084
 BYTE   W48
//  #05 //037   ----------------------------------------
 BYTE   N92  Gs1  v100
 BYTE   W96
//  #05 //038   ----------------------------------------
 BYTE   N84  As1  v096
 BYTE   W96
//  #05 //039   ----------------------------------------
 BYTE   TIE  Cn2  v100
 BYTE   W96
//  #05 //040   ----------------------------------------
 BYTE   W76
 BYTE   EOT
 BYTE   W20
//  #05 //041   ----------------------------------------
 BYTE   GoTo
  POIN2 Label_01021919
 BYTE   FINE

//**************** Track 6 (Midi-Chn.5) ****************//

FE06BeneathaNewLightAlice_006:
//  #06 //000   ----------------------------------------
 BYTE   KEYSH   FE06BeneathaNewLightAlice_key+0
 BYTE   VOICE   48
 BYTE   VOL   17*FE06BeneathaNewLightAlice_mvl/mxv
 BYTE   PAN   c_v+0
 BYTE   N05  Gn2  v084
 BYTE   W18
 BYTE   N03
 BYTE   W06
 BYTE   N30  As2
 BYTE   W48
 BYTE   N04  Gn2
 BYTE   W18
 BYTE   N04
 BYTE   W06
//  #06 //001   ----------------------------------------
 BYTE   N92  As2
 BYTE   W96
//  #06 //002   ----------------------------------------
 BYTE   N78  Gn2
 BYTE   W72
 BYTE   VOICE   47
 BYTE   VOL   47*FE06BeneathaNewLightAlice_mvl/mxv
 BYTE   PAN   c_v+0
 BYTE   W12
 BYTE   N05  Gn1  v108
 BYTE   W06
 BYTE   Fn1  v092
 BYTE   W06
//  #06 //003   ----------------------------------------
Label_01021AC6:
 BYTE   TIE  Gn1  v112
 BYTE   W96
//  #06 //004   ----------------------------------------
 BYTE   W80
 BYTE   W03
 BYTE   EOT
 BYTE   W01
 BYTE   N11  Fn1  v116
 BYTE   W12
//  #06 //005   ----------------------------------------
 BYTE   TIE  Gn1  v112
 BYTE   W96
//  #06 //006   ----------------------------------------
 BYTE   W80
 BYTE   W03
 BYTE   EOT
 BYTE   W01
 BYTE   N11  Fn1  v116
 BYTE   W12
//  #06 //007   ----------------------------------------
 BYTE   TIE  Gn1  v112
 BYTE   W96
//  #06 //008   ----------------------------------------
 BYTE   W80
 BYTE   W03
 BYTE   EOT
 BYTE   W01
 BYTE   N11  Fn1  v116
 BYTE   W12
//  #06 //009   ----------------------------------------
 BYTE   TIE  Gn1  v112
 BYTE   W96
//  #06 //010   ----------------------------------------
 BYTE   W80
 BYTE   W03
 BYTE   EOT
 BYTE   W01
 BYTE   N11  Fn1  v116
 BYTE   W12
//  #06 //011   ----------------------------------------
 BYTE   N48  Gn1
 BYTE   W84
 BYTE   N10  Fn1  v127
 BYTE   W12
//  #06 //012   ----------------------------------------
 BYTE   N30  Gn1  v124
 BYTE   W36
 BYTE   N09  Fn1  v127
 BYTE   W12
 BYTE   N10  Gn1  v124
 BYTE   W12
 BYTE   Fn1
 BYTE   W12
 BYTE   N11  Gn1  v127
 BYTE   W12
 BYTE   N09  Fn1  v124
 BYTE   W12
//  #06 //013   ----------------------------------------
 BYTE   TIE  Gn1  v112
 BYTE   W96
//  #06 //014   ----------------------------------------
 BYTE   W80
 BYTE   W03
 BYTE   EOT
 BYTE   W01
 BYTE   N11  Fn1  v116
 BYTE   W12
//  #06 //015   ----------------------------------------
 BYTE   TIE  Gn1  v112
 BYTE   W96
//  #06 //016   ----------------------------------------
 BYTE   W80
 BYTE   W03
 BYTE   EOT
 BYTE   W01
 BYTE   N11  Fn1  v116
 BYTE   W12
//  #06 //017   ----------------------------------------
 BYTE   TIE  Gn1  v112
 BYTE   W96
//  #06 //018   ----------------------------------------
 BYTE   W80
 BYTE   W03
 BYTE   EOT
 BYTE   W01
 BYTE   N11  Fn1  v116
 BYTE   W12
//  #06 //019   ----------------------------------------
 BYTE   TIE  Gn1  v112
 BYTE   W96
//  #06 //020   ----------------------------------------
 BYTE   W80
 BYTE   W03
 BYTE   EOT
 BYTE   W01
 BYTE   N11  Fn1  v116
 BYTE   W12
//  #06 //021   ----------------------------------------
 BYTE   TIE  Gn1  v124
 BYTE   W96
//  #06 //022   ----------------------------------------
 BYTE   W44
 BYTE   W03
 BYTE   EOT
 BYTE   W01
 BYTE   N02  Fn1  v048
 BYTE   W03
 BYTE   Gn1  v052
 BYTE   W03
 BYTE   Fn1
 BYTE   W03
 BYTE   Gn1  v056
 BYTE   W03
 BYTE   N05  Fn1  v060
 BYTE   W06
 BYTE   N02  Gn1  v068
 BYTE   W03
 BYTE   N05  Fn1
 BYTE   W06
 BYTE   N02  Gn1  v076
 BYTE   W03
 BYTE   N05  Fn1  v080
 BYTE   W06
 BYTE   N02  Gn1  v084
 BYTE   W03
 BYTE   N05  Fn1  v088
 BYTE   W06
 BYTE   N02  Fn1  v096
 BYTE   W03
//  #06 //023   ----------------------------------------
 BYTE   N92  Gn1  v100
 BYTE   W96
//  #06 //024   ----------------------------------------
 BYTE   N05  Fn1  v036
 BYTE   W06
 BYTE   N02  Gn1  v040
 BYTE   W03
 BYTE   Fn1  v044
 BYTE   W03
 BYTE   Gn1
 BYTE   W03
 BYTE   N05  Fn1  v048
 BYTE   W06
 BYTE   N02  Fn1  v052
 BYTE   W03
 BYTE   Gn1
 BYTE   W03
 BYTE   Fn1  v056
 BYTE   W03
 BYTE   Gn1
 BYTE   W03
 BYTE   Fn1  v060
 BYTE   W03
 BYTE   Gn1
 BYTE   W03
 BYTE   Fn1  v064
 BYTE   W03
 BYTE   Gn1  v068
 BYTE   W03
 BYTE   Fn1
 BYTE   W03
 BYTE   Gn1  v072
 BYTE   W03
 BYTE   Fn1
 BYTE   W03
 BYTE   Gn1  v076
 BYTE   W03
 BYTE   Fn1
 BYTE   W03
 BYTE   Gn1  v080
 BYTE   W03
 BYTE   N05  Fn1
 BYTE   W06
 BYTE   N02  Gn1  v084
 BYTE   W03
 BYTE   Fn1  v088
 BYTE   W03
 BYTE   Gn1
 BYTE   W03
 BYTE   Fn1  v092
 BYTE   W03
 BYTE   Gn1  v096
 BYTE   W03
 BYTE   Fn1
 BYTE   W03
 BYTE   N05  Gn1  v100
 BYTE   W06
 BYTE   N02  Fn1  v104
 BYTE   W03
//  #06 //025   ----------------------------------------
 BYTE   TIE  Gn1
 BYTE   W96
//  #06 //026   ----------------------------------------
 BYTE   W80
 BYTE   W03
 BYTE   EOT
 BYTE   W01
 BYTE   N11  Fn1  v124
 BYTE   W12
//  #06 //027   ----------------------------------------
 BYTE   TIE  Gn1  v127
 BYTE   W96
//  #06 //028   ----------------------------------------
 BYTE   W80
 BYTE   W03
 BYTE   EOT
 BYTE   W01
 BYTE   N11  Fn1  v124
 BYTE   W12
//  #06 //029   ----------------------------------------
 BYTE   TIE  Gn1  v127
 BYTE   W96
//  #06 //030   ----------------------------------------
 BYTE   W68
 BYTE   W03
 BYTE   EOT
 BYTE   W01
 BYTE   N23  Fn1  v112
 BYTE   W24
//  #06 //031   ----------------------------------------
 BYTE   N92  Gn1  v127
 BYTE   W96
//  #06 //032   ----------------------------------------
 BYTE   N11  Gn1  v096
 BYTE   W12
 BYTE   Fn1  v100
 BYTE   W12
 BYTE   Gn1  v108
 BYTE   W12
 BYTE   Fn1  v112
 BYTE   W12
 BYTE   Gn1  v116
 BYTE   W12
 BYTE   Fn1  v112
 BYTE   W12
 BYTE   Gn1  v120
 BYTE   W12
 BYTE   Fn1  v116
 BYTE   W12
//  #06 //033   ----------------------------------------
 BYTE   TIE  Gn1  v127
 BYTE   W96
//  #06 //034   ----------------------------------------
 BYTE   W96
//  #06 //035   ----------------------------------------
 BYTE   W96
//  #06 //036   ----------------------------------------
 BYTE   W44
 BYTE   EOT
 BYTE   W01
 BYTE   N05  Fn1  v068
 BYTE   W06
 BYTE   N02  Gn1  v072
 BYTE   W03
 BYTE   Fn1  v048
 BYTE   W03
 BYTE   Gn1  v072
 BYTE   W03
 BYTE   N05  Fn1  v056
 BYTE   W06
 BYTE   N02  Gn1  v072
 BYTE   W03
 BYTE   Fn1  v056
 BYTE   W03
 BYTE   Gn1  v092
 BYTE   W03
 BYTE   N05  Fn1
 BYTE   W06
 BYTE   Fn1  v088
 BYTE   N05  Gn1  v104
 BYTE   W06
 BYTE   Fn1  v068
 BYTE   N05  Gn1  v072
 BYTE   W06
 BYTE   N02  Fn1  v092
 BYTE   W03
//  #06 //037   ----------------------------------------
 BYTE   TIE  Gn1  v108
 BYTE   W96
//  #06 //038   ----------------------------------------
 BYTE   W96
//  #06 //039   ----------------------------------------
 BYTE   W80
 BYTE   W03
 BYTE   EOT
 BYTE   W01
 BYTE   N11  Fn1  v088
 BYTE   W12
//  #06 //040   ----------------------------------------
 BYTE   N32  Gn1  v112
 BYTE   W36
 BYTE   N11  Fn1  v108
 BYTE   W12
 BYTE   Gn1  v112
 BYTE   W12
 BYTE   Fn1  v116
 BYTE   W12
 BYTE   Gn1  v127
 BYTE   W12
 BYTE   Fn1
 BYTE   W12
//  #06 //041   ----------------------------------------
 BYTE   GoTo
  POIN2 Label_01021AC6
 BYTE   FINE

//**************** Track 7 (Midi-Chn.6) ****************//

FE06BeneathaNewLightAlice_007:
//  #07 //000   ----------------------------------------
 BYTE   KEYSH   FE06BeneathaNewLightAlice_key+0
 BYTE   VOICE   127
 BYTE   VOL   39*FE06BeneathaNewLightAlice_mvl/mxv
 BYTE   W96
//  #07 //001   ----------------------------------------
 BYTE   W96
//  #07 //002   ----------------------------------------
Label_01021C74:
 BYTE   N06  Dn1  v116
 BYTE   W06
 BYTE   Fs2  v028
 BYTE   W06
 BYTE   Fs2  v048
 BYTE   W06
 BYTE   Fs2  v024
 BYTE   W06
 BYTE   Fs2  v048
 BYTE   W06
 BYTE   Fs2  v020
 BYTE   W06
 BYTE   Dn1  v116
 BYTE   W06
 BYTE   Fs2  v028
 BYTE   W06
 BYTE   Dn1  v116
 BYTE   W06
 BYTE   Fs2  v020
 BYTE   W06
 BYTE   Fs2  v048
 BYTE   W06
 BYTE   Fs2  v016
 BYTE   W06
 BYTE   Dn1  v116
 BYTE   W06
 BYTE   Fs2  v012
 BYTE   W06
 BYTE   Fs2  v048
 BYTE   W06
 BYTE   Fs2  v016
 BYTE   W06
 BYTE   PEND 
//  #07 //003   ----------------------------------------
Label_01021CA6:
 BYTE   N06  Dn1  v116
 BYTE   W06
 BYTE   Fs2  v028
 BYTE   W06
 BYTE   Fs2  v048
 BYTE   W06
 BYTE   Fs2  v040
 BYTE   W06
 BYTE   Fs2  v048
 BYTE   W06
 BYTE   Fs2  v020
 BYTE   W06
 BYTE   Dn1  v116
 BYTE   W06
 BYTE   Fs2  v020
 BYTE   W06
 BYTE   Dn1  v116
 BYTE   W06
 BYTE   Fs2  v016
 BYTE   W06
 BYTE   Fs2  v048
 BYTE   W06
 BYTE   Fs2  v016
 BYTE   W06
 BYTE   Dn1  v116
 BYTE   W06
 BYTE   Fs2  v020
 BYTE   W06
 BYTE   Fs2  v048
 BYTE   W06
 BYTE   Fs2  v036
 BYTE   W06
 BYTE   PEND 
//  #07 //004   ----------------------------------------
 BYTE   PATT
  POIN2 Label_01021C74
//  #07 //005   ----------------------------------------
 BYTE   PATT
  POIN2 Label_01021CA6
//  #07 //006   ----------------------------------------
 BYTE   PATT
  POIN2 Label_01021C74
//  #07 //007   ----------------------------------------
 BYTE   PATT
  POIN2 Label_01021CA6
//  #07 //008   ----------------------------------------
 BYTE   PATT
  POIN2 Label_01021C74
//  #07 //009   ----------------------------------------
 BYTE   PATT
  POIN2 Label_01021CA6
//  #07 //010   ----------------------------------------
 BYTE   PATT
  POIN2 Label_01021CA6
//  #07 //011   ----------------------------------------
 BYTE   PATT
  POIN2 Label_01021CA6
//  #07 //012   ----------------------------------------
 BYTE   PATT
  POIN2 Label_01021C74
//  #07 //013   ----------------------------------------
 BYTE   PATT
  POIN2 Label_01021CA6
//  #07 //014   ----------------------------------------
 BYTE   PATT
  POIN2 Label_01021C74
//  #07 //015   ----------------------------------------
 BYTE   PATT
  POIN2 Label_01021CA6
//  #07 //016   ----------------------------------------
 BYTE   PATT
  POIN2 Label_01021C74
//  #07 //017   ----------------------------------------
 BYTE   PATT
  POIN2 Label_01021CA6
//  #07 //018   ----------------------------------------
 BYTE   PATT
  POIN2 Label_01021C74
//  #07 //019   ----------------------------------------
 BYTE   PATT
  POIN2 Label_01021CA6
//  #07 //020   ----------------------------------------
 BYTE   N22  An2  v092
 BYTE   W36
 BYTE   N02  Dn1  v116
 BYTE   W12
 BYTE   N04
 BYTE   W48
//  #07 //021   ----------------------------------------
Label_01021D32:
 BYTE   N05  Dn1  v116
 BYTE   W36
 BYTE   N04
 BYTE   W12
 BYTE   N05
 BYTE   W24
 BYTE   N04
 BYTE   W24
 BYTE   PEND 
//  #07 //022   ----------------------------------------
Label_01021D3D:
 BYTE   N05  Dn1  v116
 BYTE   W36
 BYTE   N04
 BYTE   W12
 BYTE   N05
 BYTE   W36
 BYTE   N03
 BYTE   W12
 BYTE   PEND 
//  #07 //023   ----------------------------------------
Label_01021D48:
 BYTE   N04  Dn1  v116
 BYTE   W36
 BYTE   N03
 BYTE   W12
 BYTE   N04
 BYTE   W36
 BYTE   N03
 BYTE   W12
 BYTE   PEND 
//  #07 //024   ----------------------------------------
Label_01021D53:
 BYTE   N06  Dn1  v116
 BYTE   N06  Fs2  v048
 BYTE   W06
 BYTE   Fs2  v028
 BYTE   W06
 BYTE   Fs2  v048
 BYTE   W06
 BYTE   Fs2  v024
 BYTE   W06
 BYTE   Fs2  v048
 BYTE   W06
 BYTE   Fs2  v020
 BYTE   W06
 BYTE   Dn1  v116
 BYTE   N06  Fs2  v048
 BYTE   W06
 BYTE   Fs2  v028
 BYTE   W06
 BYTE   Dn1  v116
 BYTE   N06  Fs2  v048
 BYTE   W06
 BYTE   Fs2  v020
 BYTE   W06
 BYTE   Fs2  v048
 BYTE   W06
 BYTE   Fs2  v016
 BYTE   W06
 BYTE   Dn1  v116
 BYTE   N06  Fs2  v048
 BYTE   W06
 BYTE   Fs2  v012
 BYTE   W06
 BYTE   Fs2  v048
 BYTE   W06
 BYTE   Fs2  v016
 BYTE   W06
 BYTE   PEND 
//  #07 //025   ----------------------------------------
Label_01021D91:
 BYTE   N06  Dn1  v116
 BYTE   N06  Fs2  v048
 BYTE   W06
 BYTE   Fs2  v028
 BYTE   W06
 BYTE   Fs2  v048
 BYTE   W06
 BYTE   Fs2  v040
 BYTE   W06
 BYTE   Fs2  v048
 BYTE   W06
 BYTE   Fs2  v020
 BYTE   W06
 BYTE   Dn1  v116
 BYTE   N06  Fs2  v048
 BYTE   W06
 BYTE   Fs2  v020
 BYTE   W06
 BYTE   Dn1  v116
 BYTE   N06  Fs2  v048
 BYTE   W06
 BYTE   Fs2  v016
 BYTE   W06
 BYTE   Fs2  v048
 BYTE   W06
 BYTE   Fs2  v016
 BYTE   W06
 BYTE   Dn1  v116
 BYTE   N06  Fs2  v048
 BYTE   W06
 BYTE   Fs2  v020
 BYTE   W06
 BYTE   Fs2  v048
 BYTE   W06
 BYTE   Fs2  v036
 BYTE   W06
 BYTE   PEND 
//  #07 //026   ----------------------------------------
 BYTE   PATT
  POIN2 Label_01021D53
//  #07 //027   ----------------------------------------
 BYTE   PATT
  POIN2 Label_01021D91
//  #07 //028   ----------------------------------------
 BYTE   PATT
  POIN2 Label_01021D53
//  #07 //029   ----------------------------------------
 BYTE   PATT
  POIN2 Label_01021D91
//  #07 //030   ----------------------------------------
 BYTE   PATT
  POIN2 Label_01021D53
//  #07 //031   ----------------------------------------
 BYTE   PATT
  POIN2 Label_01021D91
//  #07 //032   ----------------------------------------
Label_01021DED:
 BYTE   N28  An2  v092
 BYTE   W36
 BYTE   N02  Dn1  v116
 BYTE   W12
 BYTE   N04
 BYTE   W48
 BYTE   PEND 
//  #07 //033   ----------------------------------------
 BYTE   PATT
  POIN2 Label_01021D32
//  #07 //034   ----------------------------------------
 BYTE   PATT
  POIN2 Label_01021D3D
//  #07 //035   ----------------------------------------
 BYTE   PATT
  POIN2 Label_01021D48
//  #07 //036   ----------------------------------------
 BYTE   PATT
  POIN2 Label_01021DED
//  #07 //037   ----------------------------------------
 BYTE   PATT
  POIN2 Label_01021D32
//  #07 //038   ----------------------------------------
 BYTE   PATT
  POIN2 Label_01021D3D
//  #07 //039   ----------------------------------------
 BYTE   PATT
  POIN2 Label_01021D48
//  #07 //040   ----------------------------------------
 BYTE   W96
//  #07 //041   ----------------------------------------
 BYTE   GoTo
  POIN2 Label_01021CA6
 BYTE   FINE

//******************************************************//
	ALIGN 4

FE06BeneathaNewLightAlice:
	BYTE	7	// NumTrks
	BYTE	0	// NumBlks
	BYTE	FE06BeneathaNewLightAlice_pri	// Priority
	BYTE	FE06BeneathaNewLightAlice_rev	// Reverb.
    
	POIN2	FE06BeneathaNewLightAlice_grp
    
	POIN2	FE06BeneathaNewLightAlice_001
	POIN2	FE06BeneathaNewLightAlice_002
	POIN2	FE06BeneathaNewLightAlice_003
	POIN2	FE06BeneathaNewLightAlice_004
	POIN2	FE06BeneathaNewLightAlice_005
	POIN2	FE06BeneathaNewLightAlice_006
	POIN2	FE06BeneathaNewLightAlice_007

	
