//Event file generated from Sappy .s format.
	#include "MPlayDef.event"

	#define	FE06PrincessofDestinyAlice_grp  voicegroup000
	#define	FE06PrincessofDestinyAlice_pri  10
	#define	FE06PrincessofDestinyAlice_rev  158
	#define	FE06PrincessofDestinyAlice_mvl  127
	#define	FE06PrincessofDestinyAlice_key  0
	#define	FE06PrincessofDestinyAlice_tbs  1
	#define	FE06PrincessofDestinyAlice_exg  0
	#define	FE06PrincessofDestinyAlice_cmp  1

	// .rodata
	//	FE06PrincessofDestinyAlice
	ALIGN 4


//**************** Track 1 (Midi-Chn.0) ****************//

FE06PrincessofDestinyAlice_001:
//  #01 //000   ----------------------------------------
 BYTE   KEYSH   FE06PrincessofDestinyAlice_key+0
 BYTE   TEMPO   84*FE06PrincessofDestinyAlice_tbs/2
 BYTE   VOICE   46
 BYTE   VOL   65*FE06PrincessofDestinyAlice_mvl/mxv
 BYTE   PAN   c_v-8
 BYTE   N11  Dn2  v072
 BYTE   W12
 BYTE   An2
 BYTE   W12
 BYTE   Dn3
 BYTE   W12
 BYTE   En3
 BYTE   W12
 BYTE   N21  Fn3
 BYTE   W16
 BYTE   VOL   61*FE06PrincessofDestinyAlice_mvl/mxv
 BYTE   W01
 BYTE   VOL   51*FE06PrincessofDestinyAlice_mvl/mxv
 BYTE   W01
 BYTE   VOL   44*FE06PrincessofDestinyAlice_mvl/mxv
 BYTE   W01
 BYTE   VOL   34*FE06PrincessofDestinyAlice_mvl/mxv
 BYTE   W01
 BYTE   VOL   24*FE06PrincessofDestinyAlice_mvl/mxv
 BYTE   W01
 BYTE   VOL   17*FE06PrincessofDestinyAlice_mvl/mxv
 BYTE   W01
 BYTE   VOL   10*FE06PrincessofDestinyAlice_mvl/mxv
 BYTE   W01
 BYTE   VOL   65*FE06PrincessofDestinyAlice_mvl/mxv
 BYTE   W01
 BYTE   N11  Dn2
 BYTE   W12
 BYTE   An2
 BYTE   W12
//  #01 //001   ----------------------------------------
 BYTE   Dn3
 BYTE   W12
 BYTE   En3
 BYTE   W12
 BYTE   Fn3
 BYTE   W12
 BYTE   Gn3
 BYTE   W12
Label_01021CA8:
 BYTE   N11  Dn2  v072
 BYTE   W12
 BYTE   An2
 BYTE   W12
 BYTE   Dn3
 BYTE   W12
 BYTE   Fn3
 BYTE   W12
//  #01 //002   ----------------------------------------
 BYTE   An3
 BYTE   W12
 BYTE   Dn4  v056
 BYTE   W12
 BYTE   PEND 
Label_01021CB8:
 BYTE   N11  As1  v072
 BYTE   W12
 BYTE   Fn2
 BYTE   W12
 BYTE   As2
 BYTE   W12
 BYTE   Dn3
 BYTE   W12
 BYTE   Fn3
 BYTE   W12
 BYTE   As3
 BYTE   W12
 BYTE   PEND 
//  #01 //003   ----------------------------------------
Label_01021CC7:
 BYTE   N11  Gn1  v072
 BYTE   W12
 BYTE   Dn2
 BYTE   W12
 BYTE   Gn2
 BYTE   W12
 BYTE   As2
 BYTE   W12
 BYTE   Dn3
 BYTE   W12
 BYTE   Gn3
 BYTE   W12
 BYTE   PEND 
Label_01021CD6:
 BYTE   N11  An1  v072
 BYTE   W12
 BYTE   En2
 BYTE   W12
//  #01 //004   ----------------------------------------
 BYTE   An2
 BYTE   W12
 BYTE   Cs3
 BYTE   W12
 BYTE   En3
 BYTE   W12
 BYTE   An3
 BYTE   W12
 BYTE   PEND 
//  #01 //005   ----------------------------------------
 BYTE   PATT
  POIN2 Label_01021CA8
//  #01 //006   ----------------------------------------
 BYTE   PATT
  POIN2 Label_01021CB8
//  #01 //007   ----------------------------------------
 BYTE   PATT
  POIN2 Label_01021CC7
//  #01 //008   ----------------------------------------
 BYTE   PATT
  POIN2 Label_01021CD6
//  #01 //009   ----------------------------------------
 BYTE   PATT
  POIN2 Label_01021CA8
//  #01 //010   ----------------------------------------
 BYTE   PATT
  POIN2 Label_01021CB8
//  #01 //011   ----------------------------------------
 BYTE   N11  Cn2  v072
 BYTE   W12
 BYTE   N18  Gn2
 BYTE   W24
 BYTE   N11  Cn3
 BYTE   W12
 BYTE   En3
 BYTE   W12
 BYTE   Gn3
 BYTE   W12
//  #01 //012   ----------------------------------------
 BYTE   PATT
  POIN2 Label_01021CD6
//  #01 //013   ----------------------------------------
 BYTE   PATT
  POIN2 Label_01021CA8
//  #01 //014   ----------------------------------------
 BYTE   PATT
  POIN2 Label_01021CB8
//  #01 //015   ----------------------------------------
Label_01021D20:
 BYTE   N11  An1  v072
 BYTE   W12
 BYTE   En2
 BYTE   W12
 BYTE   An2
 BYTE   W12
 BYTE   Cn3
 BYTE   W12
 BYTE   En3
 BYTE   W12
 BYTE   An3
 BYTE   W12
 BYTE   PEND 
//  #01 //016   ----------------------------------------
 BYTE   PATT
  POIN2 Label_01021CD6
//  #01 //017   ----------------------------------------
Label_01021D34:
 BYTE   N11  Dn2  v072
 BYTE   W12
 BYTE   An2
 BYTE   W12
 BYTE   Dn3
 BYTE   W12
 BYTE   Fn3
 BYTE   W12
 BYTE   An3
 BYTE   W12
 BYTE   Dn4  v064
 BYTE   W12
 BYTE   PEND 
//  #01 //018   ----------------------------------------
 BYTE   PATT
  POIN2 Label_01021CB8
//  #01 //019   ----------------------------------------
 BYTE   PATT
  POIN2 Label_01021CC7
//  #01 //020   ----------------------------------------
 BYTE   PATT
  POIN2 Label_01021CD6
//  #01 //021   ----------------------------------------
 BYTE   PATT
  POIN2 Label_01021D34
//  #01 //022   ----------------------------------------
 BYTE   PATT
  POIN2 Label_01021CB8
//  #01 //023   ----------------------------------------
 BYTE   PATT
  POIN2 Label_01021CC7
//  #01 //024   ----------------------------------------
 BYTE   PATT
  POIN2 Label_01021CD6
//  #01 //025   ----------------------------------------
 BYTE   PATT
  POIN2 Label_01021D34
//  #01 //026   ----------------------------------------
 BYTE   PATT
  POIN2 Label_01021CB8
//  #01 //027   ----------------------------------------
 BYTE   N11  Cn2  v072
 BYTE   W12
 BYTE   N12  En2
 BYTE   W12
 BYTE   N11  Gn2
 BYTE   W12
 BYTE   Cn3
 BYTE   W12
 BYTE   En3
 BYTE   W12
 BYTE   Gn3
 BYTE   W12
//  #01 //028   ----------------------------------------
 BYTE   PATT
  POIN2 Label_01021CD6
//  #01 //029   ----------------------------------------
 BYTE   PATT
  POIN2 Label_01021D34
//  #01 //030   ----------------------------------------
 BYTE   PATT
  POIN2 Label_01021CB8
//  #01 //031   ----------------------------------------
 BYTE   PATT
  POIN2 Label_01021D20
//  #01 //032   ----------------------------------------
 BYTE   PATT
  POIN2 Label_01021CD6
//  #01 //033   ----------------------------------------
 BYTE   GoTo
  POIN2 Label_01021CA8
 BYTE   FINE

//**************** Track 2 (Midi-Chn.1) ****************//

FE06PrincessofDestinyAlice_002:
//  #02 //000   ----------------------------------------
 BYTE   KEYSH   FE06PrincessofDestinyAlice_key+0
 BYTE   W72
 BYTE   W72
//  #02 //001   ----------------------------------------
Label_01021928:
 BYTE   W72
 BYTE   W72
//  #02 //002   ----------------------------------------
 BYTE   W72
 BYTE   W72
//  #02 //003   ----------------------------------------
 BYTE   W72
 BYTE   W72
//  #02 //004   ----------------------------------------
 BYTE   W72
 BYTE   W72
//  #02 //005   ----------------------------------------
 BYTE   W72
 BYTE   W72
//  #02 //006   ----------------------------------------
 BYTE   W72
 BYTE   W72
//  #02 //007   ----------------------------------------
 BYTE   W72
 BYTE   W72
//  #02 //008   ----------------------------------------
 BYTE   W72
 BYTE   W48
//  #02 //009   ----------------------------------------
 BYTE   VOICE   68
 BYTE   VOL   23*FE06PrincessofDestinyAlice_mvl/mxv
 BYTE   PAN   c_v+8
 BYTE   W24
 BYTE   BEND   c_v-3
 BYTE   N44  Fn4  v072
 BYTE   W48
 BYTE   N23  An3  v080
 BYTE   W24
//  #02 //010   ----------------------------------------
 BYTE   N44  Cn4  v084
 BYTE   W48
 BYTE   N23  Dn4
 BYTE   W24
 BYTE   N44  Fn3  v080
 BYTE   W48
//  #02 //011   ----------------------------------------
 BYTE   N23  Gn3
 BYTE   W24
 BYTE   N42  An3
 BYTE   W48
 BYTE   N23  En4  v088
 BYTE   W24
//  #02 //012   ----------------------------------------
 BYTE   N44  Fn4
 BYTE   W48
 BYTE   N23  An3  v084
 BYTE   W24
 BYTE   N44  Cn4  v088
 BYTE   W48
//  #02 //013   ----------------------------------------
 BYTE   N23  Dn4
 BYTE   W24
 BYTE   N44  Fn3  v080
 BYTE   W48
 BYTE   N23  Gn3  v088
 BYTE   W24
//  #02 //014   ----------------------------------------
 BYTE   An3
 BYTE   W24
 BYTE   N40  En3
 BYTE   W48
 BYTE   N23  Fn3  v080
 BYTE   W24
//  #02 //015   ----------------------------------------
 BYTE   En3  v084
 BYTE   W24
 BYTE   Fn3  v088
 BYTE   W24
 BYTE   N68  Cn4
 BYTE   W72
//  #02 //016   ----------------------------------------
 BYTE   N23  Fn3  v080
 BYTE   W24
 BYTE   En3  v088
 BYTE   W24
 BYTE   Fn3  v084
 BYTE   W24
 BYTE   Cn4
 BYTE   W24
//  #02 //017   ----------------------------------------
 BYTE   N42  Gn3  v088
 BYTE   W48
 BYTE   N23  Fn3
 BYTE   W24
 BYTE   Gn3  v084
 BYTE   W24
//  #02 //018   ----------------------------------------
 BYTE   An3
 BYTE   W24
 BYTE   Dn3  v088
 BYTE   W24
 BYTE   En3
 BYTE   W24
 BYTE   Fn3  v084
 BYTE   W24
//  #02 //019   ----------------------------------------
 BYTE   N44  Gn3  v088
 BYTE   W48
 BYTE   An3
 BYTE   W24
 BYTE   W24
//  #02 //020   ----------------------------------------
 BYTE   N36  En3
 BYTE   W48
 BYTE   GoTo
  POIN2 Label_01021928
 BYTE   FINE

//**************** Track 3 (Midi-Chn.2) ****************//

FE06PrincessofDestinyAlice_003:
//  #03 //000   ----------------------------------------
 BYTE   KEYSH   FE06PrincessofDestinyAlice_key+0
 BYTE   VOICE   48
 BYTE   MOD 0
 BYTE   PAN   c_v-10
 BYTE   BEND   c_v-1
 BYTE   W72
 BYTE   VOL   0*FE06PrincessofDestinyAlice_mvl/mxv
 BYTE   N66  An3  v060
 BYTE   W03
 BYTE   VOL   0*FE06PrincessofDestinyAlice_mvl/mxv
 BYTE   W01
 BYTE   VOL   0*FE06PrincessofDestinyAlice_mvl/mxv
 BYTE   W01
 BYTE   VOL   1*FE06PrincessofDestinyAlice_mvl/mxv
 BYTE   W01
 BYTE   VOL   2*FE06PrincessofDestinyAlice_mvl/mxv
 BYTE   W01
 BYTE   VOL   3*FE06PrincessofDestinyAlice_mvl/mxv
 BYTE   W01
 BYTE   VOL   4*FE06PrincessofDestinyAlice_mvl/mxv
 BYTE   W01
 BYTE   VOL   5*FE06PrincessofDestinyAlice_mvl/mxv
 BYTE   W01
 BYTE   VOL   6*FE06PrincessofDestinyAlice_mvl/mxv
 BYTE   W01
 BYTE   VOL   7*FE06PrincessofDestinyAlice_mvl/mxv
 BYTE   W01
 BYTE   VOL   7*FE06PrincessofDestinyAlice_mvl/mxv
 BYTE   W01
 BYTE   VOL   9*FE06PrincessofDestinyAlice_mvl/mxv
 BYTE   W01
 BYTE   VOL   10*FE06PrincessofDestinyAlice_mvl/mxv
 BYTE   W01
 BYTE   VOL   11*FE06PrincessofDestinyAlice_mvl/mxv
 BYTE   W01
 BYTE   VOL   11*FE06PrincessofDestinyAlice_mvl/mxv
 BYTE   W01
 BYTE   VOL   12*FE06PrincessofDestinyAlice_mvl/mxv
 BYTE   W01
 BYTE   VOL   14*FE06PrincessofDestinyAlice_mvl/mxv
 BYTE   W01
 BYTE   VOL   14*FE06PrincessofDestinyAlice_mvl/mxv
 BYTE   W01
 BYTE   VOL   15*FE06PrincessofDestinyAlice_mvl/mxv
 BYTE   W01
 BYTE   VOL   16*FE06PrincessofDestinyAlice_mvl/mxv
 BYTE   W01
 BYTE   VOL   17*FE06PrincessofDestinyAlice_mvl/mxv
 BYTE   W01
 BYTE   VOL   18*FE06PrincessofDestinyAlice_mvl/mxv
 BYTE   W01
//  #03 //001   ----------------------------------------
 BYTE   VOL   19*FE06PrincessofDestinyAlice_mvl/mxv
 BYTE   W01
 BYTE   VOL   20*FE06PrincessofDestinyAlice_mvl/mxv
 BYTE   W01
 BYTE   VOL   21*FE06PrincessofDestinyAlice_mvl/mxv
 BYTE   W01
 BYTE   VOL   22*FE06PrincessofDestinyAlice_mvl/mxv
 BYTE   W01
 BYTE   VOL   23*FE06PrincessofDestinyAlice_mvl/mxv
 BYTE   W01
 BYTE   VOL   24*FE06PrincessofDestinyAlice_mvl/mxv
 BYTE   W01
 BYTE   VOL   25*FE06PrincessofDestinyAlice_mvl/mxv
 BYTE   W01
 BYTE   VOL   25*FE06PrincessofDestinyAlice_mvl/mxv
 BYTE   W01
 BYTE   VOL   27*FE06PrincessofDestinyAlice_mvl/mxv
 BYTE   W02
 BYTE   VOL   28*FE06PrincessofDestinyAlice_mvl/mxv
 BYTE   W01
 BYTE   VOL   29*FE06PrincessofDestinyAlice_mvl/mxv
 BYTE   W01
 BYTE   VOL   29*FE06PrincessofDestinyAlice_mvl/mxv
 BYTE   W01
 BYTE   VOL   31*FE06PrincessofDestinyAlice_mvl/mxv
 BYTE   W01
 BYTE   VOL   32*FE06PrincessofDestinyAlice_mvl/mxv
 BYTE   W01
 BYTE   VOL   33*FE06PrincessofDestinyAlice_mvl/mxv
 BYTE   W01
 BYTE   VOL   33*FE06PrincessofDestinyAlice_mvl/mxv
 BYTE   W01
 BYTE   VOL   35*FE06PrincessofDestinyAlice_mvl/mxv
 BYTE   W01
 BYTE   VOL   36*FE06PrincessofDestinyAlice_mvl/mxv
 BYTE   W01
 BYTE   VOL   37*FE06PrincessofDestinyAlice_mvl/mxv
 BYTE   W01
 BYTE   VOL   37*FE06PrincessofDestinyAlice_mvl/mxv
 BYTE   W01
 BYTE   VOL   39*FE06PrincessofDestinyAlice_mvl/mxv
 BYTE   W03
 BYTE   VOICE   48
 BYTE   VOL   62*FE06PrincessofDestinyAlice_mvl/mxv
 BYTE   PAN   c_v-10
 BYTE   W02
 BYTE   VOL   62*FE06PrincessofDestinyAlice_mvl/mxv
 BYTE   W01
 BYTE   VOL   60*FE06PrincessofDestinyAlice_mvl/mxv
 BYTE   W01
 BYTE   VOL   58*FE06PrincessofDestinyAlice_mvl/mxv
 BYTE   W01
 BYTE   VOL   56*FE06PrincessofDestinyAlice_mvl/mxv
 BYTE   W01
 BYTE   VOL   55*FE06PrincessofDestinyAlice_mvl/mxv
 BYTE   W01
 BYTE   VOL   53*FE06PrincessofDestinyAlice_mvl/mxv
 BYTE   W01
 BYTE   VOL   51*FE06PrincessofDestinyAlice_mvl/mxv
 BYTE   W01
 BYTE   VOL   49*FE06PrincessofDestinyAlice_mvl/mxv
 BYTE   W01
 BYTE   VOL   48*FE06PrincessofDestinyAlice_mvl/mxv
 BYTE   W01
 BYTE   VOL   46*FE06PrincessofDestinyAlice_mvl/mxv
 BYTE   W01
 BYTE   VOL   44*FE06PrincessofDestinyAlice_mvl/mxv
 BYTE   W01
 BYTE   VOL   42*FE06PrincessofDestinyAlice_mvl/mxv
 BYTE   W01
 BYTE   VOL   40*FE06PrincessofDestinyAlice_mvl/mxv
 BYTE   W01
 BYTE   VOL   39*FE06PrincessofDestinyAlice_mvl/mxv
 BYTE   W01
 BYTE   VOL   37*FE06PrincessofDestinyAlice_mvl/mxv
 BYTE   W01
 BYTE   VOL   36*FE06PrincessofDestinyAlice_mvl/mxv
 BYTE   W01
 BYTE   VOL   34*FE06PrincessofDestinyAlice_mvl/mxv
 BYTE   W01
 BYTE   VOL   33*FE06PrincessofDestinyAlice_mvl/mxv
 BYTE   W01
 BYTE   VOL   31*FE06PrincessofDestinyAlice_mvl/mxv
 BYTE   W01
 BYTE   VOL   29*FE06PrincessofDestinyAlice_mvl/mxv
 BYTE   W01
 BYTE   VOL   27*FE06PrincessofDestinyAlice_mvl/mxv
 BYTE   W01
 BYTE   VOL   25*FE06PrincessofDestinyAlice_mvl/mxv
 BYTE   W01
Label_010225F8:
 BYTE   VOL   27*FE06PrincessofDestinyAlice_mvl/mxv
 BYTE   BEND   c_v-1
 BYTE   N44  Fn4  v080
 BYTE   W01
 BYTE   VOL   30*FE06PrincessofDestinyAlice_mvl/mxv
 BYTE   W01
 BYTE   VOL   33*FE06PrincessofDestinyAlice_mvl/mxv
 BYTE   W01
 BYTE   VOL   37*FE06PrincessofDestinyAlice_mvl/mxv
 BYTE   W01
 BYTE   VOL   40*FE06PrincessofDestinyAlice_mvl/mxv
 BYTE   W01
 BYTE   VOL   43*FE06PrincessofDestinyAlice_mvl/mxv
 BYTE   W01
 BYTE   VOL   47*FE06PrincessofDestinyAlice_mvl/mxv
 BYTE   W01
 BYTE   VOL   51*FE06PrincessofDestinyAlice_mvl/mxv
 BYTE   W01
 BYTE   VOL   53*FE06PrincessofDestinyAlice_mvl/mxv
 BYTE   W01
 BYTE   VOL   57*FE06PrincessofDestinyAlice_mvl/mxv
 BYTE   W01
 BYTE   VOL   60*FE06PrincessofDestinyAlice_mvl/mxv
 BYTE   W01
 BYTE   VOL   63*FE06PrincessofDestinyAlice_mvl/mxv
 BYTE   W36
 BYTE   W01
//  #03 //002   ----------------------------------------
 BYTE   N23  An3
 BYTE   W24
 BYTE   N44  Cn4  v084
 BYTE   W48
 BYTE   N23  Dn4
 BYTE   W24
//  #03 //003   ----------------------------------------
 BYTE   N44  Fn3  v080
 BYTE   W48
 BYTE   N23  Gn3
 BYTE   W24
 BYTE   N42  An3
 BYTE   W48
//  #03 //004   ----------------------------------------
 BYTE   N23  En4  v076
 BYTE   W24
 BYTE   N44  Fn4  v092
 BYTE   W48
 BYTE   N23  An3  v084
 BYTE   W24
//  #03 //005   ----------------------------------------
 BYTE   N44  Cn4  v096
 BYTE   W48
 BYTE   N23  Dn4
 BYTE   W24
 BYTE   N44  Fn3  v080
 BYTE   W48
//  #03 //006   ----------------------------------------
 BYTE   N23  Gn3  v092
 BYTE   W24
 BYTE   An3
 BYTE   W24
 BYTE   N40  En3  v096
 BYTE   W48
//  #03 //007   ----------------------------------------
 BYTE   N23  Fn3  v080
 BYTE   W24
 BYTE   En3  v084
 BYTE   W24
 BYTE   Fn3  v092
 BYTE   W24
 BYTE   N68  Cn4
 BYTE   W72
//  #03 //008   ----------------------------------------
 BYTE   N23  Fn3  v080
 BYTE   W24
 BYTE   En3  v096
 BYTE   W24
 BYTE   Fn3  v084
 BYTE   W24
 BYTE   Cn4
 BYTE   W24
//  #03 //009   ----------------------------------------
 BYTE   N42  Gn3  v092
 BYTE   W48
 BYTE   N23  Fn3
 BYTE   W24
 BYTE   Gn3  v084
 BYTE   W24
//  #03 //010   ----------------------------------------
 BYTE   An3
 BYTE   W24
 BYTE   Dn3  v096
 BYTE   W24
 BYTE   En3  v092
 BYTE   W24
 BYTE   Fn3  v084
 BYTE   W24
//  #03 //011   ----------------------------------------
 BYTE   N44  Gn3  v088
 BYTE   W48
 BYTE   An3  v092
 BYTE   W24
 BYTE   W24
//  #03 //012   ----------------------------------------
 BYTE   N36  En3  v096
 BYTE   W48
 BYTE   W72
//  #03 //013   ----------------------------------------
 BYTE   W72
 BYTE   W72
//  #03 //014   ----------------------------------------
 BYTE   W72
 BYTE   W72
//  #03 //015   ----------------------------------------
 BYTE   W72
 BYTE   W72
//  #03 //016   ----------------------------------------
 BYTE   W72
 BYTE   W72
//  #03 //017   ----------------------------------------
 BYTE   W72
 BYTE   W72
//  #03 //018   ----------------------------------------
 BYTE   W72
 BYTE   W72
//  #03 //019   ----------------------------------------
 BYTE   W72
 BYTE   W72
//  #03 //020   ----------------------------------------
 BYTE   W72
 BYTE   GoTo
  POIN2 Label_010225F8
 BYTE   FINE

//**************** Track 4 (Midi-Chn.3) ****************//

FE06PrincessofDestinyAlice_004:
//  #04 //000   ----------------------------------------
 BYTE   KEYSH   FE06PrincessofDestinyAlice_key+0
 BYTE   W72
 BYTE   W48
//  #04 //001   ----------------------------------------
 BYTE   VOICE   68
 BYTE   MOD 3
 BYTE   PAN   c_v+9
 BYTE   BEND   c_v-1
 BYTE   W22
 BYTE   VOL   40*FE06PrincessofDestinyAlice_mvl/mxv
 BYTE   W02
Label_010305A0:
 BYTE   VOL   39*FE06PrincessofDestinyAlice_mvl/mxv
 BYTE   N68  An3  v068
 BYTE   W72
//  #04 //002   ----------------------------------------
 BYTE   Gn3
 BYTE   W72
 BYTE   Dn4
 BYTE   W72
//  #04 //003   ----------------------------------------
 BYTE   N66  An3
 BYTE   W72
 BYTE   N68
 BYTE   W72
//  #04 //004   ----------------------------------------
 BYTE   N68
 BYTE   W72
 BYTE   N68
 BYTE   W72
//  #04 //005   ----------------------------------------
 BYTE   Gn3
 BYTE   W72
 BYTE   Fn3
 BYTE   W72
//  #04 //006   ----------------------------------------
 BYTE   Dn3
 BYTE   W72
 BYTE   En3
 BYTE   W72
//  #04 //007   ----------------------------------------
 BYTE   Cn3
 BYTE   W72
 BYTE   TIE  As2
 BYTE   W72
//  #04 //008   ----------------------------------------
 BYTE   W68
 BYTE   W03
 BYTE   EOT
 BYTE   W01
 BYTE   N68  Cn3
 BYTE   W72
//  #04 //009   ----------------------------------------
 BYTE   N54  Cs3
 BYTE   W42
 BYTE   W01
 BYTE   VOL   39*FE06PrincessofDestinyAlice_mvl/mxv
 BYTE   W01
 BYTE   VOL   37*FE06PrincessofDestinyAlice_mvl/mxv
 BYTE   W01
 BYTE   VOL   36*FE06PrincessofDestinyAlice_mvl/mxv
 BYTE   W01
 BYTE   VOL   34*FE06PrincessofDestinyAlice_mvl/mxv
 BYTE   W01
 BYTE   VOL   32*FE06PrincessofDestinyAlice_mvl/mxv
 BYTE   W01
 BYTE   VOL   30*FE06PrincessofDestinyAlice_mvl/mxv
 BYTE   W01
 BYTE   VOL   29*FE06PrincessofDestinyAlice_mvl/mxv
 BYTE   W01
 BYTE   VOL   27*FE06PrincessofDestinyAlice_mvl/mxv
 BYTE   W01
 BYTE   VOL   25*FE06PrincessofDestinyAlice_mvl/mxv
 BYTE   W01
 BYTE   VOL   24*FE06PrincessofDestinyAlice_mvl/mxv
 BYTE   W01
 BYTE   VOL   22*FE06PrincessofDestinyAlice_mvl/mxv
 BYTE   W01
 BYTE   VOL   22*FE06PrincessofDestinyAlice_mvl/mxv
 BYTE   W01
 BYTE   VOL   20*FE06PrincessofDestinyAlice_mvl/mxv
 BYTE   W01
 BYTE   VOL   18*FE06PrincessofDestinyAlice_mvl/mxv
 BYTE   W01
 BYTE   VOL   16*FE06PrincessofDestinyAlice_mvl/mxv
 BYTE   W01
 BYTE   VOL   14*FE06PrincessofDestinyAlice_mvl/mxv
 BYTE   W01
 BYTE   VOL   13*FE06PrincessofDestinyAlice_mvl/mxv
 BYTE   W01
 BYTE   VOL   11*FE06PrincessofDestinyAlice_mvl/mxv
 BYTE   W01
 BYTE   VOL   10*FE06PrincessofDestinyAlice_mvl/mxv
 BYTE   W01
 BYTE   VOL   8*FE06PrincessofDestinyAlice_mvl/mxv
 BYTE   W01
 BYTE   VOL   7*FE06PrincessofDestinyAlice_mvl/mxv
 BYTE   W01
 BYTE   VOL   5*FE06PrincessofDestinyAlice_mvl/mxv
 BYTE   W01
 BYTE   VOL   3*FE06PrincessofDestinyAlice_mvl/mxv
 BYTE   W01
 BYTE   VOL   2*FE06PrincessofDestinyAlice_mvl/mxv
 BYTE   W01
 BYTE   VOL   0*FE06PrincessofDestinyAlice_mvl/mxv
 BYTE   W01
 BYTE   VOL   0*FE06PrincessofDestinyAlice_mvl/mxv
 BYTE   W03
 BYTE   VOL   0*FE06PrincessofDestinyAlice_mvl/mxv
 BYTE   W01
 BYTE   VOL   6*FE06PrincessofDestinyAlice_mvl/mxv
 BYTE   N44  Fn4
 BYTE   W01
 BYTE   VOL   8*FE06PrincessofDestinyAlice_mvl/mxv
 BYTE   W01
 BYTE   VOL   10*FE06PrincessofDestinyAlice_mvl/mxv
 BYTE   W01
 BYTE   VOL   12*FE06PrincessofDestinyAlice_mvl/mxv
 BYTE   W01
 BYTE   VOL   14*FE06PrincessofDestinyAlice_mvl/mxv
 BYTE   W01
 BYTE   VOL   16*FE06PrincessofDestinyAlice_mvl/mxv
 BYTE   W01
 BYTE   VOL   18*FE06PrincessofDestinyAlice_mvl/mxv
 BYTE   W01
 BYTE   VOL   22*FE06PrincessofDestinyAlice_mvl/mxv
 BYTE   W01
 BYTE   VOL   23*FE06PrincessofDestinyAlice_mvl/mxv
 BYTE   W01
 BYTE   VOL   25*FE06PrincessofDestinyAlice_mvl/mxv
 BYTE   W01
 BYTE   VOL   28*FE06PrincessofDestinyAlice_mvl/mxv
 BYTE   W01
 BYTE   VOL   29*FE06PrincessofDestinyAlice_mvl/mxv
 BYTE   W01
 BYTE   VOL   32*FE06PrincessofDestinyAlice_mvl/mxv
 BYTE   W01
 BYTE   VOL   35*FE06PrincessofDestinyAlice_mvl/mxv
 BYTE   W01
 BYTE   VOL   37*FE06PrincessofDestinyAlice_mvl/mxv
 BYTE   W01
 BYTE   VOL   39*FE06PrincessofDestinyAlice_mvl/mxv
 BYTE   W01
 BYTE   VOL   41*FE06PrincessofDestinyAlice_mvl/mxv
 BYTE   W01
 BYTE   VOL   43*FE06PrincessofDestinyAlice_mvl/mxv
 BYTE   W01
 BYTE   VOL   45*FE06PrincessofDestinyAlice_mvl/mxv
 BYTE   W01
 BYTE   VOL   47*FE06PrincessofDestinyAlice_mvl/mxv
 BYTE   W28
//  #04 //010   ----------------------------------------
 BYTE   W01
 BYTE   N23  An3  v076
 BYTE   W24
Label_0103065F:
 BYTE   N44  Cn4  v080
 BYTE   W48
 BYTE   N23  Dn4
 BYTE   W24
 BYTE   PEND 
//  #04 //011   ----------------------------------------
 BYTE   N44  Fn3  v076
 BYTE   W48
 BYTE   N23  Gn3
 BYTE   W24
 BYTE   N42  An3
 BYTE   W44
//  #04 //012   ----------------------------------------
 BYTE   W03
 BYTE   VOL   48*FE06PrincessofDestinyAlice_mvl/mxv
 BYTE   W01
 BYTE   VOL   12*FE06PrincessofDestinyAlice_mvl/mxv
 BYTE   N23  En4  v072
 BYTE   W01
 BYTE   VOL   14*FE06PrincessofDestinyAlice_mvl/mxv
 BYTE   W01
 BYTE   VOL   16*FE06PrincessofDestinyAlice_mvl/mxv
 BYTE   W01
 BYTE   VOL   18*FE06PrincessofDestinyAlice_mvl/mxv
 BYTE   W01
 BYTE   VOL   21*FE06PrincessofDestinyAlice_mvl/mxv
 BYTE   W01
 BYTE   VOL   22*FE06PrincessofDestinyAlice_mvl/mxv
 BYTE   W01
 BYTE   VOL   25*FE06PrincessofDestinyAlice_mvl/mxv
 BYTE   W01
 BYTE   VOL   27*FE06PrincessofDestinyAlice_mvl/mxv
 BYTE   W01
 BYTE   VOL   29*FE06PrincessofDestinyAlice_mvl/mxv
 BYTE   W01
 BYTE   VOL   31*FE06PrincessofDestinyAlice_mvl/mxv
 BYTE   W01
 BYTE   VOL   34*FE06PrincessofDestinyAlice_mvl/mxv
 BYTE   W01
 BYTE   VOL   36*FE06PrincessofDestinyAlice_mvl/mxv
 BYTE   W01
 BYTE   VOL   38*FE06PrincessofDestinyAlice_mvl/mxv
 BYTE   W01
 BYTE   VOL   40*FE06PrincessofDestinyAlice_mvl/mxv
 BYTE   W01
 BYTE   VOL   42*FE06PrincessofDestinyAlice_mvl/mxv
 BYTE   W01
 BYTE   VOL   44*FE06PrincessofDestinyAlice_mvl/mxv
 BYTE   W01
 BYTE   VOL   47*FE06PrincessofDestinyAlice_mvl/mxv
 BYTE   W01
 BYTE   VOL   48*FE06PrincessofDestinyAlice_mvl/mxv
 BYTE   W07
 BYTE   N44  Fn4  v080
 BYTE   W48
 BYTE   N23  An3
 BYTE   W24
//  #04 //013   ----------------------------------------
 BYTE   PATT
  POIN2 Label_0103065F
//  #04 //014   ----------------------------------------
 BYTE   N44  Fn3  v076
 BYTE   W48
 BYTE   N23  Gn3  v080
 BYTE   W24
 BYTE   An3
 BYTE   W24
//  #04 //015   ----------------------------------------
 BYTE   N40  En3
 BYTE   W48
Label_010306C7:
 BYTE   N23  Fn3  v076
 BYTE   W24
 BYTE   En3  v080
 BYTE   W24
//  #04 //016   ----------------------------------------
 BYTE   Fn3
 BYTE   W23
 BYTE   VOL   48*FE06PrincessofDestinyAlice_mvl/mxv
 BYTE   W01
 BYTE   PEND 
 BYTE   GnM1
 BYTE   N68  Cn4
 BYTE   W02
 BYTE   VOL   20*FE06PrincessofDestinyAlice_mvl/mxv
 BYTE   W01
 BYTE   VOL   21*FE06PrincessofDestinyAlice_mvl/mxv
 BYTE   W01
 BYTE   VOL   22*FE06PrincessofDestinyAlice_mvl/mxv
 BYTE   W01
 BYTE   VOL   22*FE06PrincessofDestinyAlice_mvl/mxv
 BYTE   W01
 BYTE   VOL   23*FE06PrincessofDestinyAlice_mvl/mxv
 BYTE   W01
 BYTE   VOL   24*FE06PrincessofDestinyAlice_mvl/mxv
 BYTE   W02
 BYTE   VOL   25*FE06PrincessofDestinyAlice_mvl/mxv
 BYTE   W01
 BYTE   VOL   25*FE06PrincessofDestinyAlice_mvl/mxv
 BYTE   W01
 BYTE   VOL   26*FE06PrincessofDestinyAlice_mvl/mxv
 BYTE   W01
 BYTE   VOL   27*FE06PrincessofDestinyAlice_mvl/mxv
 BYTE   W01
 BYTE   VOL   28*FE06PrincessofDestinyAlice_mvl/mxv
 BYTE   W01
 BYTE   VOL   29*FE06PrincessofDestinyAlice_mvl/mxv
 BYTE   W01
 BYTE   VOL   29*FE06PrincessofDestinyAlice_mvl/mxv
 BYTE   W01
 BYTE   VOL   30*FE06PrincessofDestinyAlice_mvl/mxv
 BYTE   W02
 BYTE   VOL   31*FE06PrincessofDestinyAlice_mvl/mxv
 BYTE   W01
 BYTE   VOL   32*FE06PrincessofDestinyAlice_mvl/mxv
 BYTE   W01
 BYTE   VOL   33*FE06PrincessofDestinyAlice_mvl/mxv
 BYTE   W01
 BYTE   VOL   33*FE06PrincessofDestinyAlice_mvl/mxv
 BYTE   W01
 BYTE   VOL   34*FE06PrincessofDestinyAlice_mvl/mxv
 BYTE   W01
 BYTE   VOL   35*FE06PrincessofDestinyAlice_mvl/mxv
 BYTE   W01
 BYTE   VOL   36*FE06PrincessofDestinyAlice_mvl/mxv
 BYTE   W01
 BYTE   VOL   37*FE06PrincessofDestinyAlice_mvl/mxv
 BYTE   W02
 BYTE   VOL   37*FE06PrincessofDestinyAlice_mvl/mxv
 BYTE   W01
 BYTE   VOL   38*FE06PrincessofDestinyAlice_mvl/mxv
 BYTE   W01
 BYTE   VOL   39*FE06PrincessofDestinyAlice_mvl/mxv
 BYTE   W01
 BYTE   VOL   40*FE06PrincessofDestinyAlice_mvl/mxv
 BYTE   W01
 BYTE   VOL   40*FE06PrincessofDestinyAlice_mvl/mxv
 BYTE   W01
 BYTE   VOL   41*FE06PrincessofDestinyAlice_mvl/mxv
 BYTE   W01
 BYTE   VOL   42*FE06PrincessofDestinyAlice_mvl/mxv
 BYTE   W01
 BYTE   VOL   43*FE06PrincessofDestinyAlice_mvl/mxv
 BYTE   W02
 BYTE   VOL   44*FE06PrincessofDestinyAlice_mvl/mxv
 BYTE   W01
 BYTE   VOL   44*FE06PrincessofDestinyAlice_mvl/mxv
 BYTE   W01
 BYTE   VOL   45*FE06PrincessofDestinyAlice_mvl/mxv
 BYTE   W01
 BYTE   VOL   46*FE06PrincessofDestinyAlice_mvl/mxv
 BYTE   W01
 BYTE   VOL   47*FE06PrincessofDestinyAlice_mvl/mxv
 BYTE   W01
 BYTE   VOL   48*FE06PrincessofDestinyAlice_mvl/mxv
 BYTE   W01
 BYTE   VOL   48*FE06PrincessofDestinyAlice_mvl/mxv
 BYTE   W30
//  #04 //017   ----------------------------------------
 BYTE   PATT
  POIN2 Label_010306C7
//  #04 //018   ----------------------------------------
 BYTE   VOL   22*FE06PrincessofDestinyAlice_mvl/mxv
 BYTE   N23  Cn4  v080
 BYTE   W01
 BYTE   VOL   24*FE06PrincessofDestinyAlice_mvl/mxv
 BYTE   W01
 BYTE   VOL   25*FE06PrincessofDestinyAlice_mvl/mxv
 BYTE   W01
 BYTE   VOL   28*FE06PrincessofDestinyAlice_mvl/mxv
 BYTE   W01
 BYTE   VOL   30*FE06PrincessofDestinyAlice_mvl/mxv
 BYTE   W01
 BYTE   VOL   32*FE06PrincessofDestinyAlice_mvl/mxv
 BYTE   W01
 BYTE   VOL   34*FE06PrincessofDestinyAlice_mvl/mxv
 BYTE   W01
 BYTE   VOL   37*FE06PrincessofDestinyAlice_mvl/mxv
 BYTE   W01
 BYTE   VOL   38*FE06PrincessofDestinyAlice_mvl/mxv
 BYTE   W01
 BYTE   VOL   40*FE06PrincessofDestinyAlice_mvl/mxv
 BYTE   W01
 BYTE   VOL   43*FE06PrincessofDestinyAlice_mvl/mxv
 BYTE   W01
 BYTE   VOL   44*FE06PrincessofDestinyAlice_mvl/mxv
 BYTE   W01
 BYTE   VOL   47*FE06PrincessofDestinyAlice_mvl/mxv
 BYTE   W01
 BYTE   VOL   48*FE06PrincessofDestinyAlice_mvl/mxv
 BYTE   W11
 BYTE   N42  Gn3
 BYTE   W48
 BYTE   N23  Fn3
 BYTE   W24
//  #04 //019   ----------------------------------------
 BYTE   Gn3
 BYTE   W24
 BYTE   An3
 BYTE   W24
 BYTE   Dn3
 BYTE   W24
 BYTE   En3
 BYTE   W24
//  #04 //020   ----------------------------------------
 BYTE   Fn3  v076
 BYTE   W24
 BYTE   N44  Gn3  v080
 BYTE   W48
 BYTE   An3
 BYTE   W24
//  #04 //021   ----------------------------------------
 BYTE   W24
 BYTE   N36  En3
 BYTE   W48
 BYTE   GoTo
  POIN2 Label_010305A0
 BYTE   FINE

//**************** Track 5 (Midi-Chn.4) ****************//

FE06PrincessofDestinyAlice_005:
//  #05 //000   ----------------------------------------
 BYTE   KEYSH   FE06PrincessofDestinyAlice_key+0
 BYTE   W72
 BYTE   W48
//  #05 //001   ----------------------------------------
 BYTE   VOICE   19
 BYTE   VOL   70*FE06PrincessofDestinyAlice_mvl/mxv
 BYTE   PAN   c_v+0
 BYTE   VOL   69*FE06PrincessofDestinyAlice_mvl/mxv
 BYTE   W01
 BYTE   VOL   66*FE06PrincessofDestinyAlice_mvl/mxv
 BYTE   W01
 BYTE   VOL   64*FE06PrincessofDestinyAlice_mvl/mxv
 BYTE   W01
 BYTE   VOL   61*FE06PrincessofDestinyAlice_mvl/mxv
 BYTE   W01
 BYTE   VOL   58*FE06PrincessofDestinyAlice_mvl/mxv
 BYTE   W01
 BYTE   VOL   56*FE06PrincessofDestinyAlice_mvl/mxv
 BYTE   W01
 BYTE   VOL   53*FE06PrincessofDestinyAlice_mvl/mxv
 BYTE   W01
 BYTE   VOL   51*FE06PrincessofDestinyAlice_mvl/mxv
 BYTE   W01
 BYTE   VOL   48*FE06PrincessofDestinyAlice_mvl/mxv
 BYTE   W01
 BYTE   VOL   45*FE06PrincessofDestinyAlice_mvl/mxv
 BYTE   W01
 BYTE   VOL   43*FE06PrincessofDestinyAlice_mvl/mxv
 BYTE   W01
 BYTE   VOL   40*FE06PrincessofDestinyAlice_mvl/mxv
 BYTE   W01
 BYTE   VOL   38*FE06PrincessofDestinyAlice_mvl/mxv
 BYTE   W01
 BYTE   VOL   35*FE06PrincessofDestinyAlice_mvl/mxv
 BYTE   W01
 BYTE   VOL   33*FE06PrincessofDestinyAlice_mvl/mxv
 BYTE   W01
 BYTE   VOL   30*FE06PrincessofDestinyAlice_mvl/mxv
 BYTE   W01
 BYTE   VOL   27*FE06PrincessofDestinyAlice_mvl/mxv
 BYTE   W01
 BYTE   VOL   25*FE06PrincessofDestinyAlice_mvl/mxv
 BYTE   W01
 BYTE   VOL   22*FE06PrincessofDestinyAlice_mvl/mxv
 BYTE   W01
 BYTE   VOL   19*FE06PrincessofDestinyAlice_mvl/mxv
 BYTE   W01
 BYTE   VOL   18*FE06PrincessofDestinyAlice_mvl/mxv
 BYTE   W01
 BYTE   VOL   14*FE06PrincessofDestinyAlice_mvl/mxv
 BYTE   W01
 BYTE   VOL   11*FE06PrincessofDestinyAlice_mvl/mxv
 BYTE   W01
 BYTE   VOL   10*FE06PrincessofDestinyAlice_mvl/mxv
 BYTE   W01
Label_010307EE:
 BYTE   VOL   11*FE06PrincessofDestinyAlice_mvl/mxv
 BYTE   N44  Fn3  v080
 BYTE   N44  Fn4
 BYTE   W01
 BYTE   VOL   17*FE06PrincessofDestinyAlice_mvl/mxv
 BYTE   W01
 BYTE   VOL   21*FE06PrincessofDestinyAlice_mvl/mxv
 BYTE   W01
 BYTE   VOL   26*FE06PrincessofDestinyAlice_mvl/mxv
 BYTE   W01
 BYTE   VOL   32*FE06PrincessofDestinyAlice_mvl/mxv
 BYTE   W01
 BYTE   VOL   36*FE06PrincessofDestinyAlice_mvl/mxv
 BYTE   W01
 BYTE   VOL   41*FE06PrincessofDestinyAlice_mvl/mxv
 BYTE   W01
 BYTE   VOL   47*FE06PrincessofDestinyAlice_mvl/mxv
 BYTE   W01
 BYTE   VOL   50*FE06PrincessofDestinyAlice_mvl/mxv
 BYTE   W01
 BYTE   VOL   55*FE06PrincessofDestinyAlice_mvl/mxv
 BYTE   W01
 BYTE   VOL   61*FE06PrincessofDestinyAlice_mvl/mxv
 BYTE   W01
 BYTE   VOL   65*FE06PrincessofDestinyAlice_mvl/mxv
 BYTE   W01
 BYTE   VOL   71*FE06PrincessofDestinyAlice_mvl/mxv
 BYTE   W36
 BYTE   N23  An2
 BYTE   N23  An3
 BYTE   W24
//  #05 //002   ----------------------------------------
 BYTE   N44  Cn3  v084
 BYTE   N44  Cn4
 BYTE   W48
 BYTE   N23  Dn3
 BYTE   N23  Dn4
 BYTE   W24
 BYTE   N44  Fn2  v080
 BYTE   N44  Fn3
 BYTE   W48
//  #05 //003   ----------------------------------------
 BYTE   N23  Gn2
 BYTE   N23  Gn3
 BYTE   W24
 BYTE   N40  An2
 BYTE   N42  An3
 BYTE   W48
 BYTE   N23  En3  v088
 BYTE   N23  En4
 BYTE   W24
//  #05 //004   ----------------------------------------
 BYTE   N44  Fn3  v092
 BYTE   N44  Fn4
 BYTE   W48
 BYTE   N23  An2  v084
 BYTE   N23  An3
 BYTE   W24
 BYTE   N44  Cn3  v088
 BYTE   N44  Cn4
 BYTE   W48
//  #05 //005   ----------------------------------------
 BYTE   N23  Dn3  v096
 BYTE   N23  Dn4
 BYTE   W24
 BYTE   N44  Fn2  v080
 BYTE   N44  Fn3
 BYTE   W48
 BYTE   N23  Gn2  v092
 BYTE   N23  Gn3
 BYTE   W24
//  #05 //006   ----------------------------------------
 BYTE   N22  An2
 BYTE   N23  An3
 BYTE   W24
 BYTE   N36  En2  v096
 BYTE   N40  En3
 BYTE   W48
 BYTE   N23  Fn2  v080
 BYTE   N23  Fn3
 BYTE   W24
//  #05 //007   ----------------------------------------
 BYTE   En2  v084
 BYTE   N23  En3
 BYTE   W24
 BYTE   Fn2  v092
 BYTE   N23  Fn3
 BYTE   W24
 BYTE   N68  Cn3
 BYTE   N68  Cn4
 BYTE   W72
//  #05 //008   ----------------------------------------
 BYTE   N23  Fn2  v080
 BYTE   N23  Fn3
 BYTE   W24
 BYTE   En2  v096
 BYTE   N23  En3
 BYTE   W24
 BYTE   Fn2  v084
 BYTE   N23  Fn3
 BYTE   W24
 BYTE   Cn3
 BYTE   N23  Cn4
 BYTE   W24
//  #05 //009   ----------------------------------------
 BYTE   N40  Gn2  v092
 BYTE   N42  Gn3
 BYTE   W48
 BYTE   N23  Fn2
 BYTE   N23  Fn3
 BYTE   W24
 BYTE   Gn2  v084
 BYTE   N23  Gn3
 BYTE   W24
//  #05 //010   ----------------------------------------
 BYTE   An2
 BYTE   N23  An3
 BYTE   W24
 BYTE   Dn2  v096
 BYTE   N23  Dn3
 BYTE   W24
 BYTE   En2  v100
 BYTE   N23  En3
 BYTE   W24
 BYTE   Fn2  v084
 BYTE   N23  Fn3
 BYTE   W24
//  #05 //011   ----------------------------------------
 BYTE   N44  Gn2  v100
 BYTE   N44  Gn3
 BYTE   W48
 BYTE   An2  v092
 BYTE   N44  An3
 BYTE   W24
 BYTE   W24
//  #05 //012   ----------------------------------------
 BYTE   N36  En2  v096
 BYTE   N36  En3
 BYTE   W48
 BYTE   VOL   62*FE06PrincessofDestinyAlice_mvl/mxv
 BYTE   N44  Fn3  v080
 BYTE   W48
//  #05 //013   ----------------------------------------
 BYTE   N23  An2
 BYTE   W24
 BYTE   N44  Cn3  v084
 BYTE   W48
 BYTE   N23  Dn3
 BYTE   W24
//  #05 //014   ----------------------------------------
 BYTE   N44  Fn2  v080
 BYTE   W48
 BYTE   N23  Gn2
 BYTE   W24
 BYTE   N42  An2
 BYTE   W48
//  #05 //015   ----------------------------------------
 BYTE   N23  En3  v088
 BYTE   W24
 BYTE   N44  Fn3  v092
 BYTE   W48
 BYTE   N23  An2  v084
 BYTE   W24
//  #05 //016   ----------------------------------------
 BYTE   N44  Cn3  v092
 BYTE   W48
 BYTE   N23  Dn3  v096
 BYTE   W24
 BYTE   N44  Fn2  v080
 BYTE   W48
//  #05 //017   ----------------------------------------
 BYTE   N23  Gn2  v092
 BYTE   W24
 BYTE   An2
 BYTE   W24
 BYTE   N40  En2  v096
 BYTE   W48
//  #05 //018   ----------------------------------------
 BYTE   N23  Fn2  v080
 BYTE   W24
 BYTE   En2  v084
 BYTE   W24
 BYTE   Fn2  v092
 BYTE   W24
 BYTE   N68  Cn3
 BYTE   W72
//  #05 //019   ----------------------------------------
 BYTE   N23  Fn2  v080
 BYTE   W24
 BYTE   En2  v096
 BYTE   W24
 BYTE   Fn2  v084
 BYTE   W24
 BYTE   Cn3
 BYTE   W24
//  #05 //020   ----------------------------------------
 BYTE   N42  Gn2  v092
 BYTE   W48
 BYTE   N23  Fn2
 BYTE   W24
 BYTE   Gn2  v084
 BYTE   W24
//  #05 //021   ----------------------------------------
 BYTE   An2
 BYTE   W24
 BYTE   Dn2  v096
 BYTE   W24
 BYTE   En2  v092
 BYTE   W24
 BYTE   Fn2  v084
 BYTE   W24
//  #05 //022   ----------------------------------------
 BYTE   N44  Gn2  v092
 BYTE   W48
 BYTE   An2
 BYTE   W24
 BYTE   W24
//  #05 //023   ----------------------------------------
 BYTE   N36  En2  v096
 BYTE   W48
 BYTE   GoTo
  POIN2 Label_010307EE
 BYTE   FINE

//**************** Track 6 (Midi-Chn.5) ****************//

FE06PrincessofDestinyAlice_006:
//  #06 //000   ----------------------------------------
 BYTE   KEYSH   FE06PrincessofDestinyAlice_key+0
 BYTE   W72
 BYTE   W48
//  #06 //001   ----------------------------------------
 BYTE   VOICE   33
 BYTE   VOL   68*FE06PrincessofDestinyAlice_mvl/mxv
 BYTE   PAN   c_v-5
 BYTE   W24
Label_01030953:
 BYTE   N11  Dn3  v100
 BYTE   N11  An3
 BYTE   W12
 BYTE   Dn3  v028
 BYTE   N11  An3
 BYTE   W12
 BYTE   Dn3  v100
 BYTE   N11  An3
 BYTE   W12
 BYTE   N12  Dn3  v028
 BYTE   N12  An3
 BYTE   W36
 BYTE   PEND 
//  #06 //002   ----------------------------------------
Label_0103096A:
 BYTE   N11  As2  v100
 BYTE   N11  Fn3
 BYTE   W12
 BYTE   As2  v028
 BYTE   N11  Fn3
 BYTE   W12
 BYTE   As2  v100
 BYTE   N11  Fn3
 BYTE   W12
 BYTE   N12  As2  v028
 BYTE   N12  Fn3
 BYTE   W36
 BYTE   PEND 
Label_01030981:
 BYTE   N11  Gn2  v100
 BYTE   N11  Dn3
 BYTE   W12
 BYTE   Gn2  v028
 BYTE   N11  Dn3
 BYTE   W12
//  #06 //003   ----------------------------------------
 BYTE   Gn2  v100
 BYTE   N11  Dn3
 BYTE   W12
 BYTE   N12  Gn2  v028
 BYTE   N12  Dn3
 BYTE   W36
 BYTE   PEND 
Label_01030998:
 BYTE   N11  An2  v100
 BYTE   N11  En3
 BYTE   W12
 BYTE   An2  v028
 BYTE   N11  En3
 BYTE   W12
 BYTE   An2  v100
 BYTE   N11  En3
 BYTE   W12
 BYTE   N12  An2  v028
 BYTE   N12  En3
 BYTE   W36
 BYTE   PEND 
//  #06 //004   ----------------------------------------
 BYTE   PATT
  POIN2 Label_01030953
//  #06 //005   ----------------------------------------
 BYTE   PATT
  POIN2 Label_0103096A
//  #06 //006   ----------------------------------------
 BYTE   PATT
  POIN2 Label_01030981
//  #06 //007   ----------------------------------------
 BYTE   PATT
  POIN2 Label_01030998
//  #06 //008   ----------------------------------------
 BYTE   PATT
  POIN2 Label_01030953
//  #06 //009   ----------------------------------------
 BYTE   PATT
  POIN2 Label_0103096A
//  #06 //010   ----------------------------------------
Label_010309CD:
 BYTE   N11  Cn3  v100
 BYTE   N11  Gn3
 BYTE   W12
 BYTE   Cn3  v028
 BYTE   N11  Gn3
 BYTE   W12
 BYTE   Cn3  v100
 BYTE   N11  Gn3
 BYTE   W12
 BYTE   N12  Cn3  v028
 BYTE   N12  Gn3
 BYTE   W36
 BYTE   PEND 
//  #06 //011   ----------------------------------------
 BYTE   PATT
  POIN2 Label_01030998
//  #06 //012   ----------------------------------------
Label_010309E9:
 BYTE   TIE  As2  v092
 BYTE   TIE  Fn3  v096
 BYTE   W72
 BYTE   PEND 
 BYTE   W66
//  #06 //013   ----------------------------------------
 BYTE   W01
 BYTE   EOT
 BYTE   W04
 BYTE   EOT
 BYTE   As2
 BYTE   W01
Label_010309F8:
 BYTE   N60  An2  v108
 BYTE   N66  En3  v100
 BYTE   W72
 BYTE   PEND 
 BYTE   N13  An2  v092
 BYTE   N13  En3  v100
 BYTE   W24
//  #06 //014   ----------------------------------------
 BYTE   N14  An2  v076
 BYTE   N14  En3  v084
 BYTE   W48
//  #06 //015   ----------------------------------------
 BYTE   PATT
  POIN2 Label_01030953
//  #06 //016   ----------------------------------------
 BYTE   PATT
  POIN2 Label_0103096A
//  #06 //017   ----------------------------------------
 BYTE   PATT
  POIN2 Label_01030981
//  #06 //018   ----------------------------------------
 BYTE   PATT
  POIN2 Label_01030998
//  #06 //019   ----------------------------------------
 BYTE   PATT
  POIN2 Label_01030953
//  #06 //020   ----------------------------------------
 BYTE   PATT
  POIN2 Label_0103096A
//  #06 //021   ----------------------------------------
 BYTE   PATT
  POIN2 Label_01030981
//  #06 //022   ----------------------------------------
 BYTE   PATT
  POIN2 Label_01030998
//  #06 //023   ----------------------------------------
 BYTE   PATT
  POIN2 Label_01030953
//  #06 //024   ----------------------------------------
 BYTE   PATT
  POIN2 Label_0103096A
//  #06 //025   ----------------------------------------
 BYTE   PATT
  POIN2 Label_010309CD
//  #06 //026   ----------------------------------------
 BYTE   PATT
  POIN2 Label_01030998
//  #06 //027   ----------------------------------------
 BYTE   PATT
  POIN2 Label_010309E9
//  #06 //028   ----------------------------------------
 BYTE   W66
 BYTE   W01
 BYTE   EOT
 BYTE   Fn3
 BYTE   W04
 BYTE   As2
 BYTE   W01
//  #06 //029   ----------------------------------------
 BYTE   PATT
  POIN2 Label_010309F8
//  #06 //030   ----------------------------------------
 BYTE   N11  An2  v092
 BYTE   N11  En3  v100
 BYTE   W12
 BYTE   An2  v028
 BYTE   N11  En3
 BYTE   W12
 BYTE   An2  v076
 BYTE   N11  En3  v084
 BYTE   W12
 BYTE   N12  An2  v028
 BYTE   N12  En3
 BYTE   W36
 BYTE   GoTo
  POIN2 Label_01030953
 BYTE   FINE

//******************************************************//
	ALIGN 4

FE06PrincessofDestinyAlice:
	BYTE	6	// NumTrks
	BYTE	0	// NumBlks
	BYTE	FE06PrincessofDestinyAlice_pri	// Priority
	BYTE	FE06PrincessofDestinyAlice_rev	// Reverb.
    
	POIN2	FE06PrincessofDestinyAlice_grp
    
	POIN2	FE06PrincessofDestinyAlice_001
	POIN2	FE06PrincessofDestinyAlice_002
	POIN2	FE06PrincessofDestinyAlice_003
	POIN2	FE06PrincessofDestinyAlice_004
	POIN2	FE06PrincessofDestinyAlice_005
	POIN2	FE06PrincessofDestinyAlice_006

	
