//Event file generated from Sappy .s format.
	#include "MPlayDef.event"

	#define	FE06BeneathaNewLightSme_grp  voicegroup000
	#define	FE06BeneathaNewLightSme_pri  0
	#define	FE06BeneathaNewLightSme_rev  0
	#define	FE06BeneathaNewLightSme_mvl  127
	#define	FE06BeneathaNewLightSme_key  0
	#define	FE06BeneathaNewLightSme_tbs  1
	#define	FE06BeneathaNewLightSme_exg  0
	#define	FE06BeneathaNewLightSme_cmp  1

	// .rodata
	//	FE06BeneathaNewLightSme
	ALIGN 4

//**************** Track 1 (Midi-Chn.1) ****************//

FE06BeneathaNewLightSme_1:
	BYTE	KEYSH   FE06BeneathaNewLightSme_key+0
// 000   ----------------------------------------
	BYTE	TEMPO   128*FE06BeneathaNewLightSme_tbs/2
	BYTE		VOICE   62
	BYTE		VOL     72*FE06BeneathaNewLightSme_mvl/mxv
	BYTE		PAN     c_v+17
	BYTE		BEND    c_v-4
	BYTE	W06
	BYTE		N06     Gn3   v116
	BYTE	W18
	BYTE		N03     Gn3   v108
	BYTE	W06
	BYTE		N28     As3   v104
	BYTE	W48
	BYTE		N05     Gn3   v112
	BYTE	W18
// 001   ----------------------------------------
	BYTE		N03     Gn3   v100
	BYTE	W06
	BYTE		N68     As3   v108
	BYTE	W72
	BYTE		N06     Gs3 
	BYTE	W07
	BYTE		        As3   v100
	BYTE	W08
	BYTE		N07     Gs3   v104
	BYTE	W03
// 002   ----------------------------------------
	BYTE	W06
	BYTE		N88     Gn3   v112
	BYTE	W90
FE06BeneathaNewLightSme_1_B1:
// 003   ----------------------------------------
	BYTE		VOL     91*FE06BeneathaNewLightSme_mvl/mxv
	BYTE		PAN     c_v+0
	BYTE		BEND    c_v+0
	BYTE	W96
// 004   ----------------------------------------
	BYTE	W96
// 005   ----------------------------------------
	BYTE	W96
// 006   ----------------------------------------
	BYTE	W96
// 007   ----------------------------------------
	BYTE	W96
// 008   ----------------------------------------
	BYTE	W96
// 009   ----------------------------------------
	BYTE	W96
// 010   ----------------------------------------
	BYTE	W96
// 011   ----------------------------------------
	BYTE		VOL     94*FE06BeneathaNewLightSme_mvl/mxv
	BYTE		PAN     c_v+0
	BYTE	W96
// 012   ----------------------------------------
	BYTE	W96
// 013   ----------------------------------------
	BYTE	W96
// 014   ----------------------------------------
	BYTE	W96
// 015   ----------------------------------------
	BYTE	W96
// 016   ----------------------------------------
	BYTE	W96
// 017   ----------------------------------------
	BYTE	W96
// 018   ----------------------------------------
	BYTE	W96
// 019   ----------------------------------------
	BYTE	W96
// 020   ----------------------------------------
	BYTE	W96
// 021   ----------------------------------------
	BYTE		VOL     102*FE06BeneathaNewLightSme_mvl/mxv
	BYTE		PAN     c_v+0
	BYTE	W96
// 022   ----------------------------------------
	BYTE	W96
// 023   ----------------------------------------
	BYTE	W96
// 024   ----------------------------------------
	BYTE	W96
// 025   ----------------------------------------
	BYTE	W96
// 026   ----------------------------------------
	BYTE	W96
// 027   ----------------------------------------
	BYTE	W96
// 028   ----------------------------------------
	BYTE	W96
// 029   ----------------------------------------
	BYTE	W96
// 030   ----------------------------------------
	BYTE	W96
// 031   ----------------------------------------
	BYTE	W96
// 032   ----------------------------------------
	BYTE	W96
// 033   ----------------------------------------
	BYTE	W96
// 034   ----------------------------------------
	BYTE	W96
// 035   ----------------------------------------
	BYTE	W96
// 036   ----------------------------------------
	BYTE	W96
// 037   ----------------------------------------
	BYTE	W96
// 038   ----------------------------------------
	BYTE	W96
// 039   ----------------------------------------
	BYTE	W96
// 040   ----------------------------------------
	BYTE	W96
	BYTE	GoTo
	 POIN2	FE06BeneathaNewLightSme_1_B1
FE06BeneathaNewLightSme_1_B2:
// 041   ----------------------------------------
	BYTE		VOL     91*FE06BeneathaNewLightSme_mvl/mxv
	BYTE		PAN     c_v+0
	BYTE		BEND    c_v+0
	BYTE	W48
	BYTE	FINE

//**************** Track 2 (Midi-Chn.2) ****************//

FE06BeneathaNewLightSme_2:
	BYTE	KEYSH   FE06BeneathaNewLightSme_key+0
// 000   ----------------------------------------
	BYTE		VOICE   51
	BYTE		VOL     101*FE06BeneathaNewLightSme_mvl/mxv
	BYTE		PAN     c_v+0
	BYTE		BEND    c_v+0
	BYTE		N09     Cn3   v108
	BYTE	W18
	BYTE		N05     Cn3   v112
	BYTE	W06
	BYTE		N30     Ds3   v100
	BYTE	W48
	BYTE		N08     Cn3   v112
	BYTE	W18
	BYTE		N05   
	BYTE	W06
// 001   ----------------------------------------
	BYTE		N68     Ds3   v108
	BYTE	W72
	BYTE		N07   
	BYTE	W07
	BYTE		N06     Fn3   v100
	BYTE	W08
	BYTE		        Ds3 
	BYTE	W09
// 002   ----------------------------------------
	BYTE		N92     Dn3   v108
	BYTE	W96
FE06BeneathaNewLightSme_2_B1:
// 003   ----------------------------------------
	BYTE		VOL     109*FE06BeneathaNewLightSme_mvl/mxv
	BYTE		PAN     c_v+0
	BYTE		BEND    c_v+0
	BYTE	W96
// 004   ----------------------------------------
	BYTE	W96
// 005   ----------------------------------------
	BYTE	W96
// 006   ----------------------------------------
	BYTE	W96
// 007   ----------------------------------------
	BYTE	W96
// 008   ----------------------------------------
	BYTE	W96
// 009   ----------------------------------------
	BYTE	W96
// 010   ----------------------------------------
	BYTE	W96
// 011   ----------------------------------------
	BYTE		VOL     88*FE06BeneathaNewLightSme_mvl/mxv
	BYTE		PAN     c_v+0
	BYTE	W96
// 012   ----------------------------------------
	BYTE	W96
// 013   ----------------------------------------
	BYTE		VOL     109*FE06BeneathaNewLightSme_mvl/mxv
	BYTE		PAN     c_v+0
	BYTE	W96
// 014   ----------------------------------------
	BYTE	W96
// 015   ----------------------------------------
	BYTE	W96
// 016   ----------------------------------------
	BYTE	W96
// 017   ----------------------------------------
	BYTE	W96
// 018   ----------------------------------------
	BYTE	W96
// 019   ----------------------------------------
	BYTE	W96
// 020   ----------------------------------------
	BYTE	W96
// 021   ----------------------------------------
	BYTE		VOL     101*FE06BeneathaNewLightSme_mvl/mxv
	BYTE		PAN     c_v+0
	BYTE	W96
// 022   ----------------------------------------
	BYTE	W96
// 023   ----------------------------------------
	BYTE	W96
// 024   ----------------------------------------
	BYTE	W96
// 025   ----------------------------------------
	BYTE		VOL     102*FE06BeneathaNewLightSme_mvl/mxv
	BYTE		PAN     c_v+1
	BYTE		BEND    c_v-4
	BYTE	W96
// 026   ----------------------------------------
	BYTE	W96
// 027   ----------------------------------------
	BYTE	W96
// 028   ----------------------------------------
	BYTE	W96
// 029   ----------------------------------------
	BYTE	W96
// 030   ----------------------------------------
	BYTE	W96
// 031   ----------------------------------------
	BYTE	W96
// 032   ----------------------------------------
	BYTE	W96
// 033   ----------------------------------------
	BYTE	W96
// 034   ----------------------------------------
	BYTE	W96
// 035   ----------------------------------------
	BYTE	W96
// 036   ----------------------------------------
	BYTE	W96
// 037   ----------------------------------------
	BYTE	W96
// 038   ----------------------------------------
	BYTE	W96
// 039   ----------------------------------------
	BYTE	W96
// 040   ----------------------------------------
	BYTE	W96
	BYTE	GoTo
	 POIN2	FE06BeneathaNewLightSme_2_B1
FE06BeneathaNewLightSme_2_B2:
// 041   ----------------------------------------
	BYTE		VOL     109*FE06BeneathaNewLightSme_mvl/mxv
	BYTE		PAN     c_v+0
	BYTE		BEND    c_v+0
	BYTE	W48
	BYTE	FINE

//**************** Track 3 (Midi-Chn.3) ****************//

FE06BeneathaNewLightSme_3:
	BYTE	KEYSH   FE06BeneathaNewLightSme_key+0
// 000   ----------------------------------------
	BYTE		VOICE   61
	BYTE		VOL     106*FE06BeneathaNewLightSme_mvl/mxv
	BYTE		PAN     c_v+17
	BYTE		N06     Gn3   v116
	BYTE	W18
	BYTE		N03     Gn3   v108
	BYTE	W06
	BYTE		N28     As3   v104
	BYTE	W48
	BYTE		N05     Gn3   v112
	BYTE	W18
	BYTE		N03     Gn3   v100
	BYTE	W06
// 001   ----------------------------------------
	BYTE		N68     As3   v108
	BYTE	W72
	BYTE		N06     Gs3 
	BYTE	W07
	BYTE		        As3   v100
	BYTE	W08
	BYTE		N07     Gs3   v104
	BYTE	W09
// 002   ----------------------------------------
	BYTE		N90     Gn3   v112
	BYTE	W96
FE06BeneathaNewLightSme_3_B1:
// 003   ----------------------------------------
	BYTE		VOL     91*FE06BeneathaNewLightSme_mvl/mxv
	BYTE		PAN     c_v-16
	BYTE	W96
// 004   ----------------------------------------
	BYTE	W96
// 005   ----------------------------------------
	BYTE	W96
// 006   ----------------------------------------
	BYTE	W96
// 007   ----------------------------------------
	BYTE	W96
// 008   ----------------------------------------
	BYTE	W96
// 009   ----------------------------------------
	BYTE	W96
// 010   ----------------------------------------
	BYTE	W96
// 011   ----------------------------------------
	BYTE	W96
// 012   ----------------------------------------
	BYTE	W96
// 013   ----------------------------------------
	BYTE		VOL     102*FE06BeneathaNewLightSme_mvl/mxv
	BYTE		PAN     c_v+18
	BYTE	W96
// 014   ----------------------------------------
	BYTE	W96
// 015   ----------------------------------------
	BYTE	W96
// 016   ----------------------------------------
	BYTE	W96
// 017   ----------------------------------------
	BYTE	W96
// 018   ----------------------------------------
	BYTE	W96
// 019   ----------------------------------------
	BYTE	W96
// 020   ----------------------------------------
	BYTE	W48
	BYTE		VOL     102*FE06BeneathaNewLightSme_mvl/mxv
	BYTE		PAN     c_v+0
	BYTE	W48
// 021   ----------------------------------------
	BYTE	W96
// 022   ----------------------------------------
	BYTE	W96
// 023   ----------------------------------------
	BYTE	W96
// 024   ----------------------------------------
	BYTE	W96
// 025   ----------------------------------------
	BYTE		VOL     106*FE06BeneathaNewLightSme_mvl/mxv
	BYTE		PAN     c_v+1
	BYTE	W96
// 026   ----------------------------------------
	BYTE	W96
// 027   ----------------------------------------
	BYTE	W96
// 028   ----------------------------------------
	BYTE	W96
// 029   ----------------------------------------
	BYTE	W96
// 030   ----------------------------------------
	BYTE	W96
// 031   ----------------------------------------
	BYTE	W96
// 032   ----------------------------------------
	BYTE	W96
// 033   ----------------------------------------
	BYTE	W96
// 034   ----------------------------------------
	BYTE	W96
// 035   ----------------------------------------
	BYTE	W96
// 036   ----------------------------------------
	BYTE	W96
// 037   ----------------------------------------
	BYTE	W96
// 038   ----------------------------------------
	BYTE	W96
// 039   ----------------------------------------
	BYTE	W96
// 040   ----------------------------------------
	BYTE	W96
	BYTE	GoTo
	 POIN2	FE06BeneathaNewLightSme_3_B1
FE06BeneathaNewLightSme_3_B2:
// 041   ----------------------------------------
	BYTE		VOL     91*FE06BeneathaNewLightSme_mvl/mxv
	BYTE		PAN     c_v-16
	BYTE	W48
	BYTE	FINE

//**************** Track 4 (Midi-Chn.4) ****************//

FE06BeneathaNewLightSme_4:
	BYTE	KEYSH   FE06BeneathaNewLightSme_key+0
// 000   ----------------------------------------
	BYTE		VOICE   57
	BYTE		VOL     78*FE06BeneathaNewLightSme_mvl/mxv
	BYTE	W96
// 001   ----------------------------------------
	BYTE		TIE     Cn2   v112
	BYTE		TIE     Gn2   v120
	BYTE	W96
// 002   ----------------------------------------
	BYTE	W88
	BYTE		EOT   
	BYTE	W01
	BYTE		EOT     Cn2 
	BYTE	W07
FE06BeneathaNewLightSme_4_B1:
// 003   ----------------------------------------
FE06BeneathaNewLightSme_4_003:
	BYTE		N05     Gn3   v120
	BYTE	W06
	BYTE		        Gn3   v068
	BYTE	W06
	BYTE		N04     Gn3   v104
	BYTE	W05
	BYTE		        Gn3   v040
	BYTE	W07
	BYTE		        Gn3   v108
	BYTE	W05
	BYTE		        Gn3   v052
	BYTE	W07
	BYTE		N05     Gn3   v116
	BYTE	W05
	BYTE		        Gn3   v064
	BYTE	W07
	BYTE		        Gn3   v112
	BYTE	W05
	BYTE		        Gn3   v056
	BYTE	W07
	BYTE		N04     Gn3   v112
	BYTE	W05
	BYTE		        Gn3   v056
	BYTE	W07
	BYTE		N05     Gn3   v112
	BYTE	W05
	BYTE		        Gn3   v056
	BYTE	W07
	BYTE		N04     Gn3   v116
	BYTE	W05
	BYTE		        Gn3   v064
	BYTE	W07
	BYTE	PEND
// 004   ----------------------------------------
FE06BeneathaNewLightSme_4_004:
	BYTE		N05     Gs3   v120
	BYTE	W05
	BYTE		        Gs3   v068
	BYTE	W07
	BYTE		        Gs3   v108
	BYTE	W05
	BYTE		        Gs3   v048
	BYTE	W07
	BYTE		        Gs3   v108
	BYTE	W05
	BYTE		        Gs3   v048
	BYTE	W07
	BYTE		N04     Gs3   v108
	BYTE	W05
	BYTE		        Gs3   v040
	BYTE	W07
	BYTE		N05     Gn3   v124
	BYTE	W05
	BYTE		        Gn3   v072
	BYTE	W07
	BYTE		N04     Gn3   v112
	BYTE	W05
	BYTE		        Gn3   v056
	BYTE	W07
	BYTE		        Gn3   v104
	BYTE	W05
	BYTE		        Gn3   v032
	BYTE	W07
	BYTE		        Gn3   v112
	BYTE	W05
	BYTE		        Gn3   v056
	BYTE	W07
	BYTE	PEND
// 005   ----------------------------------------
FE06BeneathaNewLightSme_4_005:
	BYTE		N05     Fn3   v124
	BYTE	W05
	BYTE		        Fn3   v076
	BYTE	W07
	BYTE		        Fn3   v112
	BYTE	W05
	BYTE		        Fn3   v056
	BYTE	W07
	BYTE		        Fn3   v112
	BYTE	W05
	BYTE		        Fn3   v052
	BYTE	W07
	BYTE		        Fn3   v108
	BYTE	W05
	BYTE		        Fn3   v052
	BYTE	W07
	BYTE		        Gs3   v120
	BYTE	W05
	BYTE		        Gs3   v068
	BYTE	W07
	BYTE		        Gs3   v112
	BYTE	W05
	BYTE		        Gs3   v056
	BYTE	W07
	BYTE		        Gs3   v108
	BYTE	W05
	BYTE		        Gs3   v048
	BYTE	W07
	BYTE		N04     Gs3   v108
	BYTE	W05
	BYTE		        Gs3   v048
	BYTE	W07
	BYTE	PEND
// 006   ----------------------------------------
FE06BeneathaNewLightSme_4_006:
	BYTE		N05     Gn3   v120
	BYTE	W05
	BYTE		        Gn3   v068
	BYTE	W07
	BYTE		        Gn3   v116
	BYTE	W05
	BYTE		        Gn3   v064
	BYTE	W07
	BYTE		        Gn3   v112
	BYTE	W05
	BYTE		        Gn3   v060
	BYTE	W07
	BYTE		        Gn3   v112
	BYTE	W05
	BYTE		        Gn3   v060
	BYTE	W07
	BYTE		        Gn3   v116
	BYTE	W05
	BYTE		        Gn3   v064
	BYTE	W07
	BYTE		        Gn3   v112
	BYTE	W05
	BYTE		        Gn3   v060
	BYTE	W07
	BYTE		        Gn3   v112
	BYTE	W05
	BYTE		        Gn3   v056
	BYTE	W07
	BYTE		        Gn3   v108
	BYTE	W05
	BYTE		        Gn3   v048
	BYTE	W07
	BYTE	PEND
// 007   ----------------------------------------
FE06BeneathaNewLightSme_4_007:
	BYTE		N05     En3   v116
	BYTE	W05
	BYTE		        En3   v064
	BYTE	W07
	BYTE		N04     En3   v112
	BYTE	W05
	BYTE		        En3   v052
	BYTE	W07
	BYTE		        En3   v104
	BYTE	W05
	BYTE		        En3   v040
	BYTE	W07
	BYTE		        En3   v112
	BYTE	W05
	BYTE		        En3   v056
	BYTE	W07
	BYTE		N05     En3   v120
	BYTE	W05
	BYTE		        En3   v068
	BYTE	W07
	BYTE		N04     En3   v112
	BYTE	W05
	BYTE		        En3   v056
	BYTE	W07
	BYTE		        En3   v112
	BYTE	W05
	BYTE		        En3   v060
	BYTE	W07
	BYTE		        En3   v116
	BYTE	W05
	BYTE		        En3   v064
	BYTE	W07
	BYTE	PEND
// 008   ----------------------------------------
FE06BeneathaNewLightSme_4_008:
	BYTE		N05     En3   v120
	BYTE	W05
	BYTE		        En3   v072
	BYTE	W07
	BYTE		        En3   v116
	BYTE	W05
	BYTE		        En3   v060
	BYTE	W07
	BYTE		N04     En3   v112
	BYTE	W05
	BYTE		        En3   v060
	BYTE	W07
	BYTE		N05     En3   v112
	BYTE	W05
	BYTE		        En3   v060
	BYTE	W07
	BYTE		        Dn3   v120
	BYTE	W05
	BYTE		        Dn3   v064
	BYTE	W07
	BYTE		N04     Dn3   v112
	BYTE	W05
	BYTE		        Dn3   v060
	BYTE	W07
	BYTE		        Dn3   v112
	BYTE	W05
	BYTE		        Dn3   v060
	BYTE	W07
	BYTE		        Dn3   v112
	BYTE	W05
	BYTE		        Dn3   v060
	BYTE	W07
	BYTE	PEND
// 009   ----------------------------------------
FE06BeneathaNewLightSme_4_009:
	BYTE		N05     Dn3   v120
	BYTE	W05
	BYTE		        Dn3   v068
	BYTE	W07
	BYTE		N04     Dn3   v112
	BYTE	W05
	BYTE		        Dn3   v060
	BYTE	W07
	BYTE		        Dn3   v108
	BYTE	W05
	BYTE		        Dn3   v048
	BYTE	W07
	BYTE		N05     Dn3   v112
	BYTE	W05
	BYTE		        Dn3   v060
	BYTE	W07
	BYTE		        Cn3   v116
	BYTE	W05
	BYTE		        Cn3   v064
	BYTE	W07
	BYTE		        Cn3   v112
	BYTE	W05
	BYTE		        Cn3   v060
	BYTE	W07
	BYTE		        Cn3   v112
	BYTE	W05
	BYTE		        Cn3   v060
	BYTE	W07
	BYTE		        Cn3   v116
	BYTE	W05
	BYTE		        Cn3   v060
	BYTE	W07
	BYTE	PEND
// 010   ----------------------------------------
FE06BeneathaNewLightSme_4_010:
	BYTE		N05     Cn3   v120
	BYTE	W05
	BYTE		        Cn3   v068
	BYTE	W07
	BYTE		        Cn3   v112
	BYTE	W05
	BYTE		        Cn3   v060
	BYTE	W07
	BYTE		        Cn3   v112
	BYTE	W05
	BYTE		        Cn3   v056
	BYTE	W07
	BYTE		        Cn3   v112
	BYTE	W05
	BYTE		        Cn3   v060
	BYTE	W07
	BYTE		        Bn2   v124
	BYTE	W05
	BYTE		        Bn2   v076
	BYTE	W07
	BYTE		        Bn2   v120
	BYTE	W05
	BYTE		        Bn2   v068
	BYTE	W07
	BYTE		        Bn2   v120
	BYTE	W05
	BYTE		        Bn2   v064
	BYTE	W07
	BYTE		        Bn2   v120
	BYTE	W05
	BYTE		        Bn2   v068
	BYTE	W07
	BYTE	PEND
// 011   ----------------------------------------
	BYTE	W96
// 012   ----------------------------------------
	BYTE	W96
// 013   ----------------------------------------
	BYTE	PATT
	 POIN2	FE06BeneathaNewLightSme_4_003
// 014   ----------------------------------------
	BYTE	PATT
	 POIN2	FE06BeneathaNewLightSme_4_004
// 015   ----------------------------------------
	BYTE	PATT
	 POIN2	FE06BeneathaNewLightSme_4_005
// 016   ----------------------------------------
	BYTE	PATT
	 POIN2	FE06BeneathaNewLightSme_4_006
// 017   ----------------------------------------
	BYTE	PATT
	 POIN2	FE06BeneathaNewLightSme_4_007
// 018   ----------------------------------------
	BYTE	PATT
	 POIN2	FE06BeneathaNewLightSme_4_008
// 019   ----------------------------------------
	BYTE	PATT
	 POIN2	FE06BeneathaNewLightSme_4_009
// 020   ----------------------------------------
	BYTE	PATT
	 POIN2	FE06BeneathaNewLightSme_4_010
// 021   ----------------------------------------
	BYTE	W96
// 022   ----------------------------------------
	BYTE	W96
// 023   ----------------------------------------
	BYTE	W96
// 024   ----------------------------------------
	BYTE	W96
// 025   ----------------------------------------
	BYTE	W96
// 026   ----------------------------------------
	BYTE	W96
// 027   ----------------------------------------
	BYTE	W96
// 028   ----------------------------------------
	BYTE	W96
// 029   ----------------------------------------
	BYTE	W96
// 030   ----------------------------------------
	BYTE	W96
// 031   ----------------------------------------
	BYTE	W96
// 032   ----------------------------------------
	BYTE	W96
// 033   ----------------------------------------
	BYTE	W96
// 034   ----------------------------------------
	BYTE	W96
// 035   ----------------------------------------
	BYTE	W96
// 036   ----------------------------------------
	BYTE	W96
// 037   ----------------------------------------
	BYTE	W96
// 038   ----------------------------------------
	BYTE	W96
// 039   ----------------------------------------
	BYTE	W96
// 040   ----------------------------------------
	BYTE	W96
	BYTE	GoTo
	 POIN2	FE06BeneathaNewLightSme_4_B1
FE06BeneathaNewLightSme_4_B2:
// 041   ----------------------------------------
	BYTE	W48
	BYTE	FINE

//**************** Track 5 (Midi-Chn.5) ****************//

FE06BeneathaNewLightSme_5:
	BYTE	KEYSH   FE06BeneathaNewLightSme_key+0
// 000   ----------------------------------------
	BYTE		VOICE   34
	BYTE	W96
// 001   ----------------------------------------
	BYTE		VOL     0*FE06BeneathaNewLightSme_mvl/mxv
	BYTE		PAN     c_v-24
	BYTE	W06
	BYTE		VOL     35*FE06BeneathaNewLightSme_mvl/mxv
	BYTE	W06
	BYTE		        47*FE06BeneathaNewLightSme_mvl/mxv
	BYTE	W06
	BYTE		        56*FE06BeneathaNewLightSme_mvl/mxv
	BYTE	W06
	BYTE		        64*FE06BeneathaNewLightSme_mvl/mxv
	BYTE	W06
	BYTE		        68*FE06BeneathaNewLightSme_mvl/mxv
	BYTE	W12
	BYTE		        74*FE06BeneathaNewLightSme_mvl/mxv
	BYTE	W12
	BYTE		        81*FE06BeneathaNewLightSme_mvl/mxv
	BYTE	W06
	BYTE		        84*FE06BeneathaNewLightSme_mvl/mxv
	BYTE	W06
	BYTE		        89*FE06BeneathaNewLightSme_mvl/mxv
	BYTE	W30
// 002   ----------------------------------------
	BYTE	W06
	BYTE		        91*FE06BeneathaNewLightSme_mvl/mxv
	BYTE	W18
	BYTE		        94*FE06BeneathaNewLightSme_mvl/mxv
	BYTE	W06
	BYTE		        96*FE06BeneathaNewLightSme_mvl/mxv
	BYTE	W06
	BYTE		        101*FE06BeneathaNewLightSme_mvl/mxv
	BYTE	W12
	BYTE		        103*FE06BeneathaNewLightSme_mvl/mxv
	BYTE	W18
	BYTE		        106*FE06BeneathaNewLightSme_mvl/mxv
	BYTE	W30
FE06BeneathaNewLightSme_5_B1:
// 003   ----------------------------------------
	BYTE		VOL     82*FE06BeneathaNewLightSme_mvl/mxv
	BYTE		PAN     c_v-20
	BYTE		N05     Cn3   v112
	BYTE	W12
	BYTE		N04     Cn3   v100
	BYTE	W12
	BYTE		N03   
	BYTE	W12
	BYTE		N04     Cn3   v108
	BYTE	W12
	BYTE		N04   
	BYTE	W12
	BYTE		N04   
	BYTE	W12
	BYTE		        Cn3   v100
	BYTE	W12
	BYTE		N03     Cn3   v108
	BYTE	W12
// 004   ----------------------------------------
FE06BeneathaNewLightSme_5_004:
	BYTE		N04     Cn3   v116
	BYTE	W12
	BYTE		        Cn3   v112
	BYTE	W12
	BYTE		        Cn3   v108
	BYTE	W12
	BYTE		N03   
	BYTE	W12
	BYTE		N05     Cn3   v120
	BYTE	W12
	BYTE		N04     Cn3   v104
	BYTE	W12
	BYTE		N03     Cn3   v100
	BYTE	W12
	BYTE		N04     Cn3   v116
	BYTE	W12
	BYTE	PEND
// 005   ----------------------------------------
FE06BeneathaNewLightSme_5_005:
	BYTE		N04     Cn3   v120
	BYTE	W12
	BYTE		        Cn3   v108
	BYTE	W12
	BYTE		N03     Cn3   v104
	BYTE	W12
	BYTE		N03   
	BYTE	W12
	BYTE		N04     Cn3   v120
	BYTE	W12
	BYTE		        Cn3   v108
	BYTE	W12
	BYTE		N04   
	BYTE	W12
	BYTE		N03   
	BYTE	W12
	BYTE	PEND
// 006   ----------------------------------------
FE06BeneathaNewLightSme_5_006:
	BYTE		N04     Cn3   v116
	BYTE	W12
	BYTE		        Cn3   v108
	BYTE	W12
	BYTE		N04   
	BYTE	W12
	BYTE		N04   
	BYTE	W12
	BYTE		        Bn2   v124
	BYTE	W12
	BYTE		        Bn2   v112
	BYTE	W12
	BYTE		N03     Bn2   v108
	BYTE	W12
	BYTE		N03   
	BYTE	W12
	BYTE	PEND
// 007   ----------------------------------------
FE06BeneathaNewLightSme_5_007:
	BYTE		N05     An2   v112
	BYTE	W12
	BYTE		N04     An2   v104
	BYTE	W12
	BYTE		N05     An2   v100
	BYTE	W12
	BYTE		N04     An2   v096
	BYTE	W12
	BYTE		N02     Gs2   v120
	BYTE	W12
	BYTE		N03     Gs2   v100
	BYTE	W12
	BYTE		        Gs2   v104
	BYTE	W12
	BYTE		N03   
	BYTE	W12
	BYTE	PEND
// 008   ----------------------------------------
FE06BeneathaNewLightSme_5_008:
	BYTE		N05     Gn2   v120
	BYTE	W12
	BYTE		N04     Gn2   v108
	BYTE	W12
	BYTE		N03     Gn2   v096
	BYTE	W12
	BYTE		N04     Gn2   v100
	BYTE	W12
	BYTE		        Fs2   v112
	BYTE	W12
	BYTE		        Fs2   v108
	BYTE	W12
	BYTE		N03     Fs2   v104
	BYTE	W12
	BYTE		        Fs2   v108
	BYTE	W12
	BYTE	PEND
// 009   ----------------------------------------
FE06BeneathaNewLightSme_5_009:
	BYTE		N06     Fn2   v120
	BYTE	W12
	BYTE		N04     Fn2   v112
	BYTE	W12
	BYTE		        Fn2   v108
	BYTE	W12
	BYTE		        Fn2   v112
	BYTE	W12
	BYTE		N05     Fn2   v116
	BYTE	W12
	BYTE		N04     Fn2   v112
	BYTE	W12
	BYTE		N04   
	BYTE	W12
	BYTE		N05     Fn2   v108
	BYTE	W12
	BYTE	PEND
// 010   ----------------------------------------
FE06BeneathaNewLightSme_5_010:
	BYTE		N04     Gn2   v120
	BYTE	W12
	BYTE		        Gn2   v112
	BYTE	W12
	BYTE		N04   
	BYTE	W12
	BYTE		N04   
	BYTE	W12
	BYTE		        Gn2   v116
	BYTE	W12
	BYTE		        Gn2   v112
	BYTE	W12
	BYTE		        Gn2   v108
	BYTE	W12
	BYTE		        Gn2   v112
	BYTE	W12
	BYTE	PEND
// 011   ----------------------------------------
	BYTE	W96
// 012   ----------------------------------------
	BYTE	W96
// 013   ----------------------------------------
	BYTE		N05     Cn3 
	BYTE	W12
	BYTE		N04     Cn3   v100
	BYTE	W12
	BYTE		N03   
	BYTE	W12
	BYTE		N04     Cn3   v108
	BYTE	W12
	BYTE		N04   
	BYTE	W12
	BYTE		N04   
	BYTE	W12
	BYTE		        Cn3   v100
	BYTE	W12
	BYTE		N03     Cn3   v108
	BYTE	W12
// 014   ----------------------------------------
	BYTE	PATT
	 POIN2	FE06BeneathaNewLightSme_5_004
// 015   ----------------------------------------
	BYTE	PATT
	 POIN2	FE06BeneathaNewLightSme_5_005
// 016   ----------------------------------------
	BYTE	PATT
	 POIN2	FE06BeneathaNewLightSme_5_006
// 017   ----------------------------------------
	BYTE	PATT
	 POIN2	FE06BeneathaNewLightSme_5_007
// 018   ----------------------------------------
	BYTE	PATT
	 POIN2	FE06BeneathaNewLightSme_5_008
// 019   ----------------------------------------
	BYTE	PATT
	 POIN2	FE06BeneathaNewLightSme_5_009
// 020   ----------------------------------------
	BYTE	PATT
	 POIN2	FE06BeneathaNewLightSme_5_010
// 021   ----------------------------------------
	BYTE	W96
// 022   ----------------------------------------
	BYTE	W96
// 023   ----------------------------------------
	BYTE	W96
// 024   ----------------------------------------
	BYTE	W96
// 025   ----------------------------------------
	BYTE		VOL     94*FE06BeneathaNewLightSme_mvl/mxv
	BYTE		PAN     c_v-21
	BYTE	W96
// 026   ----------------------------------------
	BYTE	W96
// 027   ----------------------------------------
	BYTE	W96
// 028   ----------------------------------------
	BYTE	W96
// 029   ----------------------------------------
	BYTE	W96
// 030   ----------------------------------------
	BYTE	W96
// 031   ----------------------------------------
	BYTE	W96
// 032   ----------------------------------------
	BYTE	W96
// 033   ----------------------------------------
	BYTE	W96
// 034   ----------------------------------------
	BYTE	W96
// 035   ----------------------------------------
	BYTE	W96
// 036   ----------------------------------------
	BYTE	W96
// 037   ----------------------------------------
	BYTE	W96
// 038   ----------------------------------------
	BYTE	W96
// 039   ----------------------------------------
	BYTE	W96
// 040   ----------------------------------------
	BYTE	W96
	BYTE	GoTo
	 POIN2	FE06BeneathaNewLightSme_5_B1
FE06BeneathaNewLightSme_5_B2:
// 041   ----------------------------------------
	BYTE		VOL     82*FE06BeneathaNewLightSme_mvl/mxv
	BYTE		PAN     c_v-20
	BYTE	W48
	BYTE	FINE

//**************** Track 6 (Midi-Chn.6) ****************//

FE06BeneathaNewLightSme_6:
	BYTE	KEYSH   FE06BeneathaNewLightSme_key+0
// 000   ----------------------------------------
	BYTE		VOICE   57
	BYTE		PAN     c_v+17
	BYTE		VOL     81*FE06BeneathaNewLightSme_mvl/mxv
	BYTE		N05     Gn2   v104
	BYTE	W18
	BYTE		N03   
	BYTE	W06
	BYTE		N30     As2 
	BYTE	W48
	BYTE		N04     Gn2 
	BYTE	W18
	BYTE		N04   
	BYTE	W06
// 001   ----------------------------------------
	BYTE		N92     As2 
	BYTE	W96
// 002   ----------------------------------------
	BYTE		N78     Gn2 
	BYTE	W72
	BYTE		VOL     102*FE06BeneathaNewLightSme_mvl/mxv
	BYTE	W12
	BYTE		N05     Gn1   v120
	BYTE	W06
	BYTE		        Fn1   v108
	BYTE	W06
FE06BeneathaNewLightSme_6_B1:
// 003   ----------------------------------------
	BYTE	W96
// 004   ----------------------------------------
	BYTE	W96
// 005   ----------------------------------------
	BYTE	W96
// 006   ----------------------------------------
	BYTE	W96
// 007   ----------------------------------------
	BYTE	W96
// 008   ----------------------------------------
	BYTE	W96
// 009   ----------------------------------------
	BYTE	W96
// 010   ----------------------------------------
	BYTE	W96
// 011   ----------------------------------------
	BYTE	W96
// 012   ----------------------------------------
	BYTE	W96
// 013   ----------------------------------------
	BYTE	W96
// 014   ----------------------------------------
	BYTE	W96
// 015   ----------------------------------------
	BYTE	W96
// 016   ----------------------------------------
	BYTE	W96
// 017   ----------------------------------------
	BYTE	W96
// 018   ----------------------------------------
	BYTE	W96
// 019   ----------------------------------------
	BYTE	W96
// 020   ----------------------------------------
	BYTE	W96
// 021   ----------------------------------------
	BYTE	W96
// 022   ----------------------------------------
	BYTE	W96
// 023   ----------------------------------------
	BYTE	W96
// 024   ----------------------------------------
	BYTE	W96
// 025   ----------------------------------------
	BYTE	W96
// 026   ----------------------------------------
	BYTE	W96
// 027   ----------------------------------------
	BYTE	W96
// 028   ----------------------------------------
	BYTE	W96
// 029   ----------------------------------------
	BYTE	W96
// 030   ----------------------------------------
	BYTE	W96
// 031   ----------------------------------------
	BYTE	W96
// 032   ----------------------------------------
	BYTE	W96
// 033   ----------------------------------------
	BYTE	W96
// 034   ----------------------------------------
	BYTE	W96
// 035   ----------------------------------------
	BYTE	W96
// 036   ----------------------------------------
	BYTE	W96
// 037   ----------------------------------------
	BYTE	W96
// 038   ----------------------------------------
	BYTE	W96
// 039   ----------------------------------------
	BYTE	W96
// 040   ----------------------------------------
	BYTE	W96
	BYTE	GoTo
	 POIN2	FE06BeneathaNewLightSme_6_B1
FE06BeneathaNewLightSme_6_B2:
// 041   ----------------------------------------
	BYTE	W48
	BYTE	FINE

//**************** Track 7 (Midi-Chn.7) ****************//

FE06BeneathaNewLightSme_7:
	BYTE	KEYSH   FE06BeneathaNewLightSme_key+0
// 000   ----------------------------------------
	BYTE		VOICE   127
	BYTE		PAN     c_v-14
	BYTE		VOL     96*FE06BeneathaNewLightSme_mvl/mxv
	BYTE	W96
// 001   ----------------------------------------
	BYTE	W96
// 002   ----------------------------------------
	BYTE		N06     Dn1   v124
	BYTE	W06
	BYTE		        Fs2   v060
	BYTE	W06
	BYTE		        Fs2   v080
	BYTE	W06
	BYTE		        Fs2   v056
	BYTE	W06
	BYTE		        Fs2   v080
	BYTE	W06
	BYTE		        Fs2   v052
	BYTE	W06
	BYTE		        Dn1   v124
	BYTE	W06
	BYTE		        Fs2   v060
	BYTE	W06
	BYTE		        Dn1   v124
	BYTE	W06
	BYTE		        Fs2   v052
	BYTE	W06
	BYTE		        Fs2   v080
	BYTE	W06
	BYTE		        Fs2   v048
	BYTE	W06
	BYTE		        Dn1   v124
	BYTE	W06
	BYTE		        Fs2   v040
	BYTE	W06
	BYTE		        Fs2   v080
	BYTE	W06
	BYTE		        Fs2   v048
	BYTE	W06
FE06BeneathaNewLightSme_7_B1:
// 003   ----------------------------------------
FE06BeneathaNewLightSme_7_003:
	BYTE		N06     Dn1   v124
	BYTE		TIE     Gn1   v120
	BYTE	W06
	BYTE		N06     Fs2   v060
	BYTE	W06
	BYTE		        Fs2   v080
	BYTE	W06
	BYTE		        Fs2   v072
	BYTE	W06
	BYTE		        Fs2   v080
	BYTE	W06
	BYTE		        Fs2   v052
	BYTE	W06
	BYTE		        Dn1   v124
	BYTE	W06
	BYTE		        Fs2   v052
	BYTE	W06
	BYTE		        Dn1   v124
	BYTE	W06
	BYTE		        Fs2   v048
	BYTE	W06
	BYTE		        Fs2   v080
	BYTE	W06
	BYTE		        Fs2   v048
	BYTE	W06
	BYTE		        Dn1   v124
	BYTE	W06
	BYTE		        Fs2   v052
	BYTE	W06
	BYTE		        Fs2   v080
	BYTE	W06
	BYTE		        Fs2   v068
	BYTE	W06
	BYTE	PEND
// 004   ----------------------------------------
FE06BeneathaNewLightSme_7_004:
	BYTE		N06     Dn1   v124
	BYTE	W06
	BYTE		        Fs2   v060
	BYTE	W06
	BYTE		        Fs2   v080
	BYTE	W06
	BYTE		        Fs2   v056
	BYTE	W06
	BYTE		        Fs2   v080
	BYTE	W06
	BYTE		        Fs2   v052
	BYTE	W06
	BYTE		        Dn1   v124
	BYTE	W06
	BYTE		        Fs2   v060
	BYTE	W06
	BYTE		        Dn1   v124
	BYTE	W06
	BYTE		        Fs2   v052
	BYTE	W06
	BYTE		        Fs2   v080
	BYTE	W06
	BYTE		        Fs2   v048
	BYTE	W06
	BYTE		        Dn1   v124
	BYTE	W06
	BYTE		        Fs2   v040
	BYTE	W05
	BYTE	PEND
	BYTE		EOT     Gn1 
	BYTE	W01
	BYTE		N11     Fn1   v124
	BYTE		N06     Fs2   v080
	BYTE	W06
	BYTE		        Fs2   v048
	BYTE	W06
// 005   ----------------------------------------
	BYTE	PATT
	 POIN2	FE06BeneathaNewLightSme_7_003
// 006   ----------------------------------------
	BYTE	PATT
	 POIN2	FE06BeneathaNewLightSme_7_004
	BYTE		EOT     Gn1 
	BYTE	W01
	BYTE		N11     Fn1   v124
	BYTE		N06     Fs2   v080
	BYTE	W06
	BYTE		        Fs2   v048
	BYTE	W06
// 007   ----------------------------------------
	BYTE	PATT
	 POIN2	FE06BeneathaNewLightSme_7_003
// 008   ----------------------------------------
	BYTE	PATT
	 POIN2	FE06BeneathaNewLightSme_7_004
	BYTE		EOT     Gn1 
	BYTE	W01
	BYTE		N11     Fn1   v124
	BYTE		N06     Fs2   v080
	BYTE	W06
	BYTE		        Fs2   v048
	BYTE	W06
// 009   ----------------------------------------
	BYTE	PATT
	 POIN2	FE06BeneathaNewLightSme_7_003
// 010   ----------------------------------------
	BYTE		N06     Dn1   v124
	BYTE	W06
	BYTE		        Fs2   v060
	BYTE	W06
	BYTE		        Fs2   v080
	BYTE	W06
	BYTE		        Fs2   v072
	BYTE	W06
	BYTE		        Fs2   v080
	BYTE	W06
	BYTE		        Fs2   v052
	BYTE	W06
	BYTE		        Dn1   v124
	BYTE	W06
	BYTE		        Fs2   v052
	BYTE	W06
	BYTE		        Dn1   v124
	BYTE	W06
	BYTE		        Fs2   v048
	BYTE	W06
	BYTE		        Fs2   v080
	BYTE	W06
	BYTE		        Fs2   v048
	BYTE	W06
	BYTE		        Dn1   v124
	BYTE	W06
	BYTE		        Fs2   v052
	BYTE	W05
	BYTE		EOT     Gn1 
	BYTE	W01
	BYTE		N11     Fn1   v124
	BYTE		N06     Fs2   v080
	BYTE	W06
	BYTE		        Fs2   v068
	BYTE	W06
// 011   ----------------------------------------
	BYTE		        Dn1   v124
	BYTE		N48     Gn1 
	BYTE	W06
	BYTE		N06     Fs2   v060
	BYTE	W06
	BYTE		        Fs2   v080
	BYTE	W06
	BYTE		        Fs2   v072
	BYTE	W06
	BYTE		        Fs2   v080
	BYTE	W06
	BYTE		        Fs2   v052
	BYTE	W06
	BYTE		        Dn1   v124
	BYTE	W06
	BYTE		        Fs2   v052
	BYTE	W06
	BYTE		        Dn1   v124
	BYTE	W06
	BYTE		        Fs2   v048
	BYTE	W06
	BYTE		        Fs2   v080
	BYTE	W06
	BYTE		        Fs2   v048
	BYTE	W06
	BYTE		        Dn1   v124
	BYTE	W06
	BYTE		        Fs2   v052
	BYTE	W06
	BYTE		N10     Fn1   v127
	BYTE		N06     Fs2   v080
	BYTE	W06
	BYTE		        Fs2   v068
	BYTE	W06
// 012   ----------------------------------------
	BYTE		        Dn1   v124
	BYTE		N30     Gn1   v127
	BYTE	W06
	BYTE		N06     Fs2   v060
	BYTE	W06
	BYTE		        Fs2   v080
	BYTE	W06
	BYTE		        Fs2   v056
	BYTE	W06
	BYTE		        Fs2   v080
	BYTE	W06
	BYTE		        Fs2   v052
	BYTE	W06
	BYTE		        Dn1   v124
	BYTE		N09     Fn1   v127
	BYTE	W06
	BYTE		N06     Fs2   v060
	BYTE	W06
	BYTE		        Dn1   v124
	BYTE		N10     Gn1   v127
	BYTE	W06
	BYTE		N06     Fs2   v052
	BYTE	W06
	BYTE		N10     Fn1   v127
	BYTE		N06     Fs2   v080
	BYTE	W06
	BYTE		        Fs2   v048
	BYTE	W06
	BYTE		        Dn1   v124
	BYTE		N11     Gn1   v127
	BYTE	W06
	BYTE		N06     Fs2   v040
	BYTE	W06
	BYTE		N09     Fn1   v127
	BYTE		N06     Fs2   v080
	BYTE	W06
	BYTE		        Fs2   v048
	BYTE	W06
// 013   ----------------------------------------
	BYTE	PATT
	 POIN2	FE06BeneathaNewLightSme_7_003
// 014   ----------------------------------------
	BYTE	PATT
	 POIN2	FE06BeneathaNewLightSme_7_004
	BYTE		EOT     Gn1 
	BYTE	W01
	BYTE		N11     Fn1   v124
	BYTE		N06     Fs2   v080
	BYTE	W06
	BYTE		        Fs2   v048
	BYTE	W06
// 015   ----------------------------------------
	BYTE	PATT
	 POIN2	FE06BeneathaNewLightSme_7_003
// 016   ----------------------------------------
	BYTE	PATT
	 POIN2	FE06BeneathaNewLightSme_7_004
	BYTE		EOT     Gn1 
	BYTE	W01
	BYTE		N11     Fn1   v124
	BYTE		N06     Fs2   v080
	BYTE	W06
	BYTE		        Fs2   v048
	BYTE	W06
// 017   ----------------------------------------
	BYTE	PATT
	 POIN2	FE06BeneathaNewLightSme_7_003
// 018   ----------------------------------------
	BYTE	PATT
	 POIN2	FE06BeneathaNewLightSme_7_004
	BYTE		EOT     Gn1 
	BYTE	W01
	BYTE		N11     Fn1   v124
	BYTE		N06     Fs2   v080
	BYTE	W06
	BYTE		        Fs2   v048
	BYTE	W06
// 019   ----------------------------------------
	BYTE	PATT
	 POIN2	FE06BeneathaNewLightSme_7_003
// 020   ----------------------------------------
	BYTE		N22     An2   v108
	BYTE	W36
	BYTE		N02     Dn1   v124
	BYTE	W12
	BYTE		N04   
	BYTE	W32
	BYTE	W03
	BYTE		EOT     Gn1 
	BYTE	W01
	BYTE		N11     Fn1 
	BYTE	W12
// 021   ----------------------------------------
FE06BeneathaNewLightSme_7_021:
	BYTE		N05     Dn1   v124
	BYTE		TIE     Gn1   v127
	BYTE	W36
	BYTE		N04     Dn1   v124
	BYTE	W12
	BYTE		N05   
	BYTE	W24
	BYTE		N04   
	BYTE	W24
	BYTE	PEND
// 022   ----------------------------------------
	BYTE		N05   
	BYTE	W36
	BYTE		N04   
	BYTE	W11
	BYTE		EOT     Gn1 
	BYTE	W01
	BYTE		N05     Dn1 
	BYTE		N02     Fn1   v080
	BYTE	W03
	BYTE		        Gn1   v084
	BYTE	W03
	BYTE		        Fn1 
	BYTE	W03
	BYTE		        Gn1 
	BYTE	W03
	BYTE		N05     Fn1   v088
	BYTE	W06
	BYTE		N02     Gn1   v092
	BYTE	W03
	BYTE		N05     Fn1 
	BYTE	W06
	BYTE		N02     Gn1   v100
	BYTE	W03
	BYTE		N05     Fn1 
	BYTE	W06
	BYTE		N03     Dn1   v124
	BYTE		N02     Gn1   v104
	BYTE	W03
	BYTE		N05     Fn1   v108
	BYTE	W06
	BYTE		N02     Fn1   v112
	BYTE	W03
// 023   ----------------------------------------
	BYTE		N04     Dn1   v124
	BYTE		N92     Gn1   v112
	BYTE	W36
	BYTE		N03     Dn1   v124
	BYTE	W12
	BYTE		N04   
	BYTE	W36
	BYTE		N03   
	BYTE	W12
// 024   ----------------------------------------
	BYTE		N06   
	BYTE		N05     Fn1   v068
	BYTE		N06     Fs2   v080
	BYTE	W06
	BYTE		N02     Gn1   v072
	BYTE		N06     Fs2   v060
	BYTE	W03
	BYTE		N02     Fn1   v076
	BYTE	W03
	BYTE		        Gn1 
	BYTE		N06     Fs2   v080
	BYTE	W03
	BYTE		N05     Fn1 
	BYTE	W03
	BYTE		N06     Fs2   v056
	BYTE	W03
	BYTE		N02     Fn1   v084
	BYTE	W03
	BYTE		        Gn1 
	BYTE		N06     Fs2   v080
	BYTE	W03
	BYTE		N02     Fn1   v084
	BYTE	W03
	BYTE		        Gn1 
	BYTE		N06     Fs2   v052
	BYTE	W03
	BYTE		N02     Fn1   v088
	BYTE	W03
	BYTE		N06     Dn1   v124
	BYTE		N02     Gn1   v088
	BYTE		N06     Fs2   v080
	BYTE	W03
	BYTE		N02     Fn1   v092
	BYTE	W03
	BYTE		        Gn1 
	BYTE		N06     Fs2   v060
	BYTE	W03
	BYTE		N02     Fn1   v092
	BYTE	W03
	BYTE		N06     Dn1   v124
	BYTE		N02     Gn1   v096
	BYTE		N06     Fs2   v080
	BYTE	W03
	BYTE		N02     Fn1   v096
	BYTE	W03
	BYTE		        Gn1   v100
	BYTE		N06     Fs2   v052
	BYTE	W03
	BYTE		N02     Fn1   v100
	BYTE	W03
	BYTE		        Gn1 
	BYTE		N06     Fs2   v080
	BYTE	W03
	BYTE		N05     Fn1   v100
	BYTE	W03
	BYTE		N06     Fs2   v048
	BYTE	W03
	BYTE		N02     Gn1   v104
	BYTE	W03
	BYTE		N06     Dn1   v124
	BYTE		N02     Fn1   v108
	BYTE		N06     Fs2   v080
	BYTE	W03
	BYTE		N02     Gn1   v108
	BYTE	W03
	BYTE		        Fn1 
	BYTE		N06     Fs2   v040
	BYTE	W03
	BYTE		N02     Gn1   v112
	BYTE	W03
	BYTE		        Fn1 
	BYTE		N06     Fs2   v080
	BYTE	W03
	BYTE		N05     Gn1   v112
	BYTE	W03
	BYTE		N06     Fs2   v048
	BYTE	W03
	BYTE		N02     Fn1   v116
	BYTE	W03
// 025   ----------------------------------------
	BYTE		N06     Dn1   v124
	BYTE		TIE     Gn1   v116
	BYTE		N06     Fs2   v080
	BYTE	W06
	BYTE		        Fs2   v060
	BYTE	W06
	BYTE		        Fs2   v080
	BYTE	W06
	BYTE		        Fs2   v072
	BYTE	W06
	BYTE		        Fs2   v080
	BYTE	W06
	BYTE		        Fs2   v052
	BYTE	W06
	BYTE		        Dn1   v124
	BYTE		N06     Fs2   v080
	BYTE	W06
	BYTE		        Fs2   v052
	BYTE	W06
	BYTE		        Dn1   v124
	BYTE		N06     Fs2   v080
	BYTE	W06
	BYTE		        Fs2   v048
	BYTE	W06
	BYTE		        Fs2   v080
	BYTE	W06
	BYTE		        Fs2   v048
	BYTE	W06
	BYTE		        Dn1   v124
	BYTE		N06     Fs2   v080
	BYTE	W06
	BYTE		        Fs2   v052
	BYTE	W06
	BYTE		        Fs2   v080
	BYTE	W06
	BYTE		        Fs2   v068
	BYTE	W06
// 026   ----------------------------------------
FE06BeneathaNewLightSme_7_026:
	BYTE		N06     Dn1   v124
	BYTE		N06     Fs2   v080
	BYTE	W06
	BYTE		        Fs2   v060
	BYTE	W06
	BYTE		        Fs2   v080
	BYTE	W06
	BYTE		        Fs2   v056
	BYTE	W06
	BYTE		        Fs2   v080
	BYTE	W06
	BYTE		        Fs2   v052
	BYTE	W06
	BYTE		        Dn1   v124
	BYTE		N06     Fs2   v080
	BYTE	W06
	BYTE		        Fs2   v060
	BYTE	W06
	BYTE		        Dn1   v124
	BYTE		N06     Fs2   v080
	BYTE	W06
	BYTE		        Fs2   v052
	BYTE	W06
	BYTE		        Fs2   v080
	BYTE	W06
	BYTE		        Fs2   v048
	BYTE	W06
	BYTE		        Dn1   v124
	BYTE		N06     Fs2   v080
	BYTE	W06
	BYTE		        Fs2   v040
	BYTE	W05
	BYTE	PEND
	BYTE		EOT     Gn1 
	BYTE	W01
	BYTE		N11     Fn1   v127
	BYTE		N06     Fs2   v080
	BYTE	W06
	BYTE		        Fs2   v048
	BYTE	W06
// 027   ----------------------------------------
FE06BeneathaNewLightSme_7_027:
	BYTE		N06     Dn1   v124
	BYTE		TIE     Gn1   v127
	BYTE		N06     Fs2   v080
	BYTE	W06
	BYTE		        Fs2   v060
	BYTE	W06
	BYTE		        Fs2   v080
	BYTE	W06
	BYTE		        Fs2   v072
	BYTE	W06
	BYTE		        Fs2   v080
	BYTE	W06
	BYTE		        Fs2   v052
	BYTE	W06
	BYTE		        Dn1   v124
	BYTE		N06     Fs2   v080
	BYTE	W06
	BYTE		        Fs2   v052
	BYTE	W06
	BYTE		        Dn1   v124
	BYTE		N06     Fs2   v080
	BYTE	W06
	BYTE		        Fs2   v048
	BYTE	W06
	BYTE		        Fs2   v080
	BYTE	W06
	BYTE		        Fs2   v048
	BYTE	W06
	BYTE		        Dn1   v124
	BYTE		N06     Fs2   v080
	BYTE	W06
	BYTE		        Fs2   v052
	BYTE	W06
	BYTE		        Fs2   v080
	BYTE	W06
	BYTE		        Fs2   v068
	BYTE	W06
	BYTE	PEND
// 028   ----------------------------------------
	BYTE	PATT
	 POIN2	FE06BeneathaNewLightSme_7_026
	BYTE		EOT     Gn1 
	BYTE	W01
	BYTE		N11     Fn1   v127
	BYTE		N06     Fs2   v080
	BYTE	W06
	BYTE		        Fs2   v048
	BYTE	W06
// 029   ----------------------------------------
	BYTE	PATT
	 POIN2	FE06BeneathaNewLightSme_7_027
// 030   ----------------------------------------
	BYTE		N06     Dn1   v124
	BYTE		N06     Fs2   v080
	BYTE	W06
	BYTE		        Fs2   v060
	BYTE	W06
	BYTE		        Fs2   v080
	BYTE	W06
	BYTE		        Fs2   v056
	BYTE	W06
	BYTE		        Fs2   v080
	BYTE	W06
	BYTE		        Fs2   v052
	BYTE	W06
	BYTE		        Dn1   v124
	BYTE		N06     Fs2   v080
	BYTE	W06
	BYTE		        Fs2   v060
	BYTE	W06
	BYTE		        Dn1   v124
	BYTE		N06     Fs2   v080
	BYTE	W06
	BYTE		        Fs2   v052
	BYTE	W06
	BYTE		        Fs2   v080
	BYTE	W06
	BYTE		        Fs2   v048
	BYTE	W05
	BYTE		EOT     Gn1 
	BYTE	W01
	BYTE		N06     Dn1   v124
	BYTE		N23     Fn1   v120
	BYTE		N06     Fs2   v080
	BYTE	W06
	BYTE		        Fs2   v040
	BYTE	W06
	BYTE		        Fs2   v080
	BYTE	W06
	BYTE		        Fs2   v048
	BYTE	W06
// 031   ----------------------------------------
	BYTE		        Dn1   v124
	BYTE		N92     Gn1   v127
	BYTE		N06     Fs2   v080
	BYTE	W06
	BYTE		        Fs2   v060
	BYTE	W06
	BYTE		        Fs2   v080
	BYTE	W06
	BYTE		        Fs2   v072
	BYTE	W06
	BYTE		        Fs2   v080
	BYTE	W06
	BYTE		        Fs2   v052
	BYTE	W06
	BYTE		        Dn1   v124
	BYTE		N06     Fs2   v080
	BYTE	W06
	BYTE		        Fs2   v052
	BYTE	W06
	BYTE		        Dn1   v124
	BYTE		N06     Fs2   v080
	BYTE	W06
	BYTE		        Fs2   v048
	BYTE	W06
	BYTE		        Fs2   v080
	BYTE	W06
	BYTE		        Fs2   v048
	BYTE	W06
	BYTE		        Dn1   v124
	BYTE		N06     Fs2   v080
	BYTE	W06
	BYTE		        Fs2   v052
	BYTE	W06
	BYTE		        Fs2   v080
	BYTE	W06
	BYTE		        Fs2   v068
	BYTE	W06
// 032   ----------------------------------------
	BYTE		N11     Gn1   v112
	BYTE		N28     An2   v108
	BYTE	W12
	BYTE		N11     Fn1   v112
	BYTE	W12
	BYTE		        Gn1   v120
	BYTE	W12
	BYTE		N02     Dn1   v124
	BYTE		N11     Fn1   v120
	BYTE	W12
	BYTE		N04     Dn1   v124
	BYTE		N11     Gn1 
	BYTE	W12
	BYTE		        Fn1   v120
	BYTE	W12
	BYTE		        Gn1   v124
	BYTE	W12
	BYTE		        Fn1 
	BYTE	W12
// 033   ----------------------------------------
	BYTE	PATT
	 POIN2	FE06BeneathaNewLightSme_7_021
// 034   ----------------------------------------
FE06BeneathaNewLightSme_7_034:
	BYTE		N05     Dn1   v124
	BYTE	W36
	BYTE		N04   
	BYTE	W12
	BYTE		N05   
	BYTE	W36
	BYTE		N03   
	BYTE	W12
	BYTE	PEND
// 035   ----------------------------------------
	BYTE		N04   
	BYTE	W36
	BYTE		N03   
	BYTE	W12
	BYTE		N04   
	BYTE	W36
	BYTE		N03   
	BYTE	W12
// 036   ----------------------------------------
	BYTE		N28     An2   v108
	BYTE	W36
	BYTE		N02     Dn1   v124
	BYTE	W08
	BYTE		EOT     Gn1 
	BYTE	W01
	BYTE		N05     Fn1   v092
	BYTE	W03
	BYTE		N04     Dn1   v124
	BYTE	W03
	BYTE		N02     Gn1   v096
	BYTE	W03
	BYTE		        Fn1   v080
	BYTE	W03
	BYTE		        Gn1   v096
	BYTE	W03
	BYTE		N05     Fn1   v084
	BYTE	W06
	BYTE		N02     Gn1   v096
	BYTE	W03
	BYTE		        Fn1   v084
	BYTE	W03
	BYTE		        Gn1   v108
	BYTE	W03
	BYTE		N05     Fn1 
	BYTE	W06
	BYTE		N05   
	BYTE		N05     Gn1   v116
	BYTE	W06
	BYTE		        Fn1   v092
	BYTE		N05     Gn1   v096
	BYTE	W06
	BYTE		N02     Fn1   v108
	BYTE	W03
// 037   ----------------------------------------
	BYTE		N05     Dn1   v124
	BYTE		TIE     Gn1   v120
	BYTE	W36
	BYTE		N04     Dn1   v124
	BYTE	W12
	BYTE		N05   
	BYTE	W24
	BYTE		N04   
	BYTE	W24
// 038   ----------------------------------------
	BYTE	PATT
	 POIN2	FE06BeneathaNewLightSme_7_034
// 039   ----------------------------------------
	BYTE		N04     Dn1   v124
	BYTE	W36
	BYTE		N03   
	BYTE	W12
	BYTE		N04   
	BYTE	W32
	BYTE	W03
	BYTE		EOT     Gn1 
	BYTE	W01
	BYTE		N03     Dn1 
	BYTE		N11     Fn1   v108
	BYTE	W12
// 040   ----------------------------------------
	BYTE		N32     Gn1   v120
	BYTE	W36
	BYTE		N11     Fn1 
	BYTE	W12
	BYTE		        Gn1 
	BYTE	W12
	BYTE		        Fn1   v124
	BYTE	W12
	BYTE		        Gn1   v127
	BYTE	W12
	BYTE		        Fn1 
	BYTE	W12
	BYTE	GoTo
	 POIN2	FE06BeneathaNewLightSme_7_B1
FE06BeneathaNewLightSme_7_B2:
// 041   ----------------------------------------
	BYTE	W48
	BYTE	FINE

//**************** Track 8 (Midi-Chn.8) ****************//

FE06BeneathaNewLightSme_8:
	BYTE	KEYSH   FE06BeneathaNewLightSme_key+0
// 000   ----------------------------------------
	BYTE		VOICE   41
	BYTE		PAN     c_v+8
	BYTE		VOL     90*FE06BeneathaNewLightSme_mvl/mxv
	BYTE	W96
// 001   ----------------------------------------
	BYTE	W96
// 002   ----------------------------------------
	BYTE	W96
FE06BeneathaNewLightSme_8_B1:
// 003   ----------------------------------------
	BYTE	W96
// 004   ----------------------------------------
	BYTE	W96
// 005   ----------------------------------------
	BYTE	W96
// 006   ----------------------------------------
	BYTE	W96
// 007   ----------------------------------------
	BYTE	W96
// 008   ----------------------------------------
	BYTE	W96
// 009   ----------------------------------------
	BYTE	W96
// 010   ----------------------------------------
	BYTE	W96
// 011   ----------------------------------------
	BYTE		N92     Gn2   v108
	BYTE	W96
// 012   ----------------------------------------
	BYTE		N44     An2 
	BYTE	W48
	BYTE		        Bn2   v112
	BYTE	W48
// 013   ----------------------------------------
	BYTE		N32     Cn4   v124
	BYTE	W36
	BYTE		N11     Dn4 
	BYTE	W12
	BYTE		N44     En4   v127
	BYTE	W48
// 014   ----------------------------------------
	BYTE		N32     Fn4   v124
	BYTE	W36
	BYTE		N05     En4 
	BYTE	W06
	BYTE		        Dn4   v112
	BYTE	W06
	BYTE		N23     En4   v120
	BYTE	W24
	BYTE		        Cn4 
	BYTE	W24
// 015   ----------------------------------------
	BYTE		N32     An4   v124
	BYTE	W36
	BYTE		N05     Bn4   v120
	BYTE	W06
	BYTE		        Cn5   v108
	BYTE	W06
	BYTE		N23     Gn4   v116
	BYTE	W24
	BYTE		        Fn4   v120
	BYTE	W24
// 016   ----------------------------------------
	BYTE		N44     En4 
	BYTE	W48
	BYTE		        Dn4   v127
	BYTE	W48
// 017   ----------------------------------------
	BYTE		N32     Cn4 
	BYTE	W36
	BYTE		N11     Dn4 
	BYTE	W12
	BYTE		N44     En4 
	BYTE	W48
// 018   ----------------------------------------
	BYTE		N32     Fn4   v120
	BYTE	W36
	BYTE		N05     En4 
	BYTE	W06
	BYTE		        Dn4   v116
	BYTE	W06
	BYTE		N23     En4   v124
	BYTE	W24
	BYTE		        Cn4 
	BYTE	W24
// 019   ----------------------------------------
	BYTE		N32     En4   v127
	BYTE	W36
	BYTE		N11     Dn4 
	BYTE	W12
	BYTE		N32   
	BYTE	W36
	BYTE		N11     Cn4   v120
	BYTE	W12
// 020   ----------------------------------------
	BYTE		N32     En4   v124
	BYTE	W36
	BYTE		N11     En4   v120
	BYTE	W12
	BYTE		N23     En4   v124
	BYTE	W24
	BYTE		        Dn4 
	BYTE	W24
// 021   ----------------------------------------
	BYTE		TIE     Cn3   v104
	BYTE	W96
// 022   ----------------------------------------
	BYTE	W96
// 023   ----------------------------------------
	BYTE	W96
// 024   ----------------------------------------
	BYTE	W44
	BYTE	W03
	BYTE		EOT   
	BYTE	W01
	BYTE		N08     Gn1   v116
	BYTE	W12
	BYTE		        Bn1   v120
	BYTE	W12
	BYTE		N07     Dn2   v116
	BYTE	W07
	BYTE		        Fn2   v112
	BYTE	W08
	BYTE		        An2   v092
	BYTE	W09
// 025   ----------------------------------------
	BYTE		TIE     Cn3   v108
	BYTE	W96
// 026   ----------------------------------------
	BYTE	W96
// 027   ----------------------------------------
	BYTE	W96
// 028   ----------------------------------------
	BYTE	W96
// 029   ----------------------------------------
	BYTE	W23
	BYTE		EOT   
	BYTE	W01
	BYTE		N23     Gn2   v116
	BYTE	W24
	BYTE		        Cn3   v112
	BYTE	W24
	BYTE		        En3 
	BYTE	W24
// 030   ----------------------------------------
	BYTE		TIE     Gn3   v100
	BYTE	W96
// 031   ----------------------------------------
	BYTE	W23
	BYTE		EOT   
	BYTE	W01
	BYTE		N05     An1   v112
	BYTE	W06
	BYTE		        Bn1 
	BYTE	W06
	BYTE		        Cn2 
	BYTE	W06
	BYTE		        Dn2   v100
	BYTE	W06
	BYTE		        En2   v112
	BYTE	W06
	BYTE		        Fn2   v116
	BYTE	W06
	BYTE		        Gn2   v108
	BYTE	W06
	BYTE		        An2 
	BYTE	W06
	BYTE		N03     Bn2 
	BYTE	W03
	BYTE		        Cn3 
	BYTE	W04
	BYTE		        Dn3 
	BYTE	W05
	BYTE		        En3 
	BYTE	W03
	BYTE		        Fn3   v112
	BYTE	W04
	BYTE		        Gn3   v108
	BYTE	W05
// 032   ----------------------------------------
	BYTE		N44     An3   v096
	BYTE	W48
	BYTE		N68     Gn3   v112
	BYTE	W48
// 033   ----------------------------------------
	BYTE	W24
	BYTE		N23     Ds2   v116
	BYTE	W24
	BYTE		        Gs2   v108
	BYTE	W24
	BYTE		        Cn3   v120
	BYTE	W24
// 034   ----------------------------------------
	BYTE		N44     Ds3   v112
	BYTE	W48
	BYTE		        Dn3   v108
	BYTE	W48
// 035   ----------------------------------------
	BYTE		        Cn3   v112
	BYTE	W48
	BYTE		N11     Gn2   v120
	BYTE	W12
	BYTE		        Cn2   v116
	BYTE	W12
	BYTE		N68   
	BYTE	W24
// 036   ----------------------------------------
	BYTE	W48
	BYTE		N05     Cn2   v112
	BYTE	W06
	BYTE		        Dn2   v100
	BYTE	W06
	BYTE		        En2   v112
	BYTE	W06
	BYTE		        Fn2   v116
	BYTE	W06
	BYTE		        Gn2   v108
	BYTE	W06
	BYTE		        An2 
	BYTE	W06
	BYTE		        Bn2 
	BYTE	W06
	BYTE		        Cn3   v112
	BYTE	W06
// 037   ----------------------------------------
	BYTE		N44     Dn3   v120
	BYTE	W48
	BYTE		        Ds3   v096
	BYTE	W48
// 038   ----------------------------------------
	BYTE		        Dn3   v112
	BYTE	W48
	BYTE		        Fn3   v108
	BYTE	W48
// 039   ----------------------------------------
	BYTE		N92     Gn3   v112
	BYTE	W96
// 040   ----------------------------------------
	BYTE		N72     Gn2   v108
	BYTE	W96
	BYTE	GoTo
	 POIN2	FE06BeneathaNewLightSme_8_B1
FE06BeneathaNewLightSme_8_B2:
// 041   ----------------------------------------
	BYTE	W48
	BYTE	FINE

//**************** Track 9 (Midi-Chn.9) ****************//

FE06BeneathaNewLightSme_9:
	BYTE	KEYSH   FE06BeneathaNewLightSme_key+0
// 000   ----------------------------------------
	BYTE		VOICE   46
	BYTE		VOL     85*FE06BeneathaNewLightSme_mvl/mxv
	BYTE	W96
// 001   ----------------------------------------
	BYTE	W96
// 002   ----------------------------------------
	BYTE	W96
FE06BeneathaNewLightSme_9_B1:
// 003   ----------------------------------------
	BYTE		N32     Cn4   v116
	BYTE	W36
	BYTE		N11     Dn4 
	BYTE	W12
	BYTE		N44     En4   v120
	BYTE	W48
// 004   ----------------------------------------
	BYTE		N32     Fn4   v112
	BYTE	W36
	BYTE		N05     En4 
	BYTE	W06
	BYTE		        Dn4   v104
	BYTE	W06
	BYTE		N23     En4   v112
	BYTE	W24
	BYTE		        Cn4 
	BYTE	W24
// 005   ----------------------------------------
	BYTE		N32     An4   v116
	BYTE	W36
	BYTE		N05     Bn4   v112
	BYTE	W06
	BYTE		        Cn5   v100
	BYTE	W06
	BYTE		N23     Gn4   v108
	BYTE	W24
	BYTE		        Fn4   v112
	BYTE	W24
// 006   ----------------------------------------
	BYTE		N44     En4 
	BYTE	W48
	BYTE		        Dn4   v120
	BYTE	W48
// 007   ----------------------------------------
	BYTE		N32     Cn4   v124
	BYTE	W36
	BYTE		N11     Dn4   v120
	BYTE	W12
	BYTE		N44     En4 
	BYTE	W48
// 008   ----------------------------------------
	BYTE		N32     Fn4   v112
	BYTE	W36
	BYTE		N05     En4 
	BYTE	W06
	BYTE		        Dn4   v108
	BYTE	W06
	BYTE		N23     En4   v112
	BYTE	W24
	BYTE		        Cn4 
	BYTE	W24
// 009   ----------------------------------------
	BYTE		N32     En4   v120
	BYTE	W36
	BYTE		N11     Dn4 
	BYTE	W12
	BYTE		N32     Dn4   v124
	BYTE	W36
	BYTE		N11     Cn4   v108
	BYTE	W12
// 010   ----------------------------------------
	BYTE		N32     En4   v112
	BYTE	W36
	BYTE		N11   
	BYTE	W12
	BYTE		N23     En4   v116
	BYTE	W24
	BYTE		        Dn4 
	BYTE	W24
// 011   ----------------------------------------
	BYTE	W96
// 012   ----------------------------------------
	BYTE	W96
// 013   ----------------------------------------
	BYTE	W96
// 014   ----------------------------------------
	BYTE	W96
// 015   ----------------------------------------
	BYTE	W96
// 016   ----------------------------------------
	BYTE	W96
// 017   ----------------------------------------
	BYTE	W96
// 018   ----------------------------------------
	BYTE	W96
// 019   ----------------------------------------
	BYTE	W96
// 020   ----------------------------------------
	BYTE	W96
// 021   ----------------------------------------
	BYTE	W96
// 022   ----------------------------------------
	BYTE	W96
// 023   ----------------------------------------
	BYTE	W96
// 024   ----------------------------------------
	BYTE	W96
// 025   ----------------------------------------
	BYTE	W96
// 026   ----------------------------------------
	BYTE	W96
// 027   ----------------------------------------
	BYTE	W96
// 028   ----------------------------------------
	BYTE	W96
// 029   ----------------------------------------
	BYTE	W96
// 030   ----------------------------------------
	BYTE	W96
// 031   ----------------------------------------
	BYTE	W96
// 032   ----------------------------------------
	BYTE	W96
// 033   ----------------------------------------
	BYTE	W96
// 034   ----------------------------------------
	BYTE	W96
// 035   ----------------------------------------
	BYTE	W96
// 036   ----------------------------------------
	BYTE	W96
// 037   ----------------------------------------
	BYTE	W96
// 038   ----------------------------------------
	BYTE	W96
// 039   ----------------------------------------
	BYTE	W96
// 040   ----------------------------------------
	BYTE	W96
	BYTE	GoTo
	 POIN2	FE06BeneathaNewLightSme_9_B1
FE06BeneathaNewLightSme_9_B2:
// 041   ----------------------------------------
	BYTE	W48
	BYTE	FINE

//**************** Track 10 (Midi-Chn.11) ****************//

FE06BeneathaNewLightSme_10:
	BYTE	KEYSH   FE06BeneathaNewLightSme_key+0
// 000   ----------------------------------------
	BYTE		VOICE   41
	BYTE		VOL     82*FE06BeneathaNewLightSme_mvl/mxv
	BYTE	W96
// 001   ----------------------------------------
	BYTE	W96
// 002   ----------------------------------------
	BYTE	W96
FE06BeneathaNewLightSme_10_B1:
// 003   ----------------------------------------
	BYTE	W96
// 004   ----------------------------------------
	BYTE	W96
// 005   ----------------------------------------
	BYTE	W96
// 006   ----------------------------------------
	BYTE	W96
// 007   ----------------------------------------
	BYTE	W96
// 008   ----------------------------------------
	BYTE	W96
// 009   ----------------------------------------
	BYTE	W96
// 010   ----------------------------------------
	BYTE	W96
// 011   ----------------------------------------
	BYTE	W96
// 012   ----------------------------------------
	BYTE		N44     Fn3   v108
	BYTE	W48
	BYTE		N42     Gn3 
	BYTE	W48
// 013   ----------------------------------------
	BYTE	W96
// 014   ----------------------------------------
	BYTE	W96
// 015   ----------------------------------------
	BYTE	W96
// 016   ----------------------------------------
	BYTE	W96
// 017   ----------------------------------------
	BYTE	W96
// 018   ----------------------------------------
	BYTE	W96
// 019   ----------------------------------------
	BYTE	W96
// 020   ----------------------------------------
	BYTE		N44     Bn2   v112
	BYTE	W48
	BYTE		N05     Gn2   v124
	BYTE	W06
	BYTE		        An2   v108
	BYTE	W06
	BYTE		        Bn2   v120
	BYTE	W06
	BYTE		        Cn3   v100
	BYTE	W06
	BYTE		N03     Dn3   v112
	BYTE	W03
	BYTE		        En3   v116
	BYTE	W04
	BYTE		        Fn3   v112
	BYTE	W05
	BYTE		        Gn3   v108
	BYTE	W03
	BYTE		        An3   v092
	BYTE	W04
	BYTE		        Bn3   v108
	BYTE	W05
// 021   ----------------------------------------
	BYTE		N32     Cn3 
	BYTE	W36
	BYTE		N11     Dn3   v112
	BYTE	W12
	BYTE		N44     En3 
	BYTE	W48
// 022   ----------------------------------------
	BYTE		N23     Fn3   v108
	BYTE	W24
	BYTE		        Dn3   v112
	BYTE	W24
	BYTE		        En3 
	BYTE	W24
	BYTE		        Cn3 
	BYTE	W24
// 023   ----------------------------------------
	BYTE		TIE     Gn3   v104
	BYTE	W96
// 024   ----------------------------------------
	BYTE	W44
	BYTE	W03
	BYTE		EOT   
	BYTE	W07
	BYTE		N08     An1   v112
	BYTE	W12
	BYTE		        Cn2 
	BYTE	W09
	BYTE		N07     En2   v120
	BYTE	W09
	BYTE		        Gn2   v116
	BYTE	W07
	BYTE		N03     Bn2   v108
	BYTE	W05
// 025   ----------------------------------------
	BYTE		N92     Cn2   v112
	BYTE		N90     Gn2   v120
	BYTE	W96
// 026   ----------------------------------------
	BYTE		N92     Cn2   v116
	BYTE		N44     Gs2   v120
	BYTE	W48
	BYTE		        Gn2   v124
	BYTE	W48
// 027   ----------------------------------------
	BYTE		N92     Cn2   v120
	BYTE		N44     Fn2   v124
	BYTE	W48
	BYTE		        Gs2   v120
	BYTE	W48
// 028   ----------------------------------------
	BYTE		        Cn2   v116
	BYTE		N92     Gn2   v120
	BYTE	W48
	BYTE		N44     Bn1   v124
	BYTE	W48
// 029   ----------------------------------------
	BYTE		        An1   v112
	BYTE		N44     En2   v116
	BYTE	W48
	BYTE		        Gs1   v120
	BYTE		N44     En2 
	BYTE	W48
// 030   ----------------------------------------
	BYTE		        Gn1 
	BYTE		N44     En2 
	BYTE	W48
	BYTE		        Fs1   v112
	BYTE		N44     Dn2   v120
	BYTE	W48
// 031   ----------------------------------------
	BYTE		N92     Fn1 
	BYTE		N44     Dn2 
	BYTE	W48
	BYTE		        Cn2   v116
	BYTE	W48
// 032   ----------------------------------------
	BYTE		N92     Gn1   v120
	BYTE		N44     Cn2 
	BYTE	W48
	BYTE		        Bn1   v124
	BYTE	W48
// 033   ----------------------------------------
	BYTE		N92     Gs1   v112
	BYTE		N92     Ds2   v120
	BYTE	W96
// 034   ----------------------------------------
	BYTE		N88     As1   v112
	BYTE		N84     Fn2   v124
	BYTE	W96
// 035   ----------------------------------------
	BYTE		TIE     Cn2   v112
	BYTE		TIE     Gn2   v116
	BYTE	W96
// 036   ----------------------------------------
	BYTE	W19
	BYTE		EOT     Cn2 
	BYTE		        Gn2 
	BYTE	W05
	BYTE		N03     Cn2   v112
	BYTE		N03     Gn2 
	BYTE	W12
	BYTE		N04     Cn2 
	BYTE		N05     Gn2   v120
	BYTE	W12
	BYTE		N44     Cn2   v104
	BYTE		N44     Gn2 
	BYTE	W48
// 037   ----------------------------------------
	BYTE		N92     Gs1   v112
	BYTE		N92     Ds2   v116
	BYTE	W96
// 038   ----------------------------------------
	BYTE		N84     As1   v112
	BYTE		N84     Fn2   v116
	BYTE	W84
	BYTE		N06     En2   v120
	BYTE	W06
	BYTE		N05     Fn2   v124
	BYTE	W06
// 039   ----------------------------------------
	BYTE		TIE     Cn2   v112
	BYTE		TIE     Gn2   v120
	BYTE	W96
// 040   ----------------------------------------
	BYTE	W76
	BYTE		EOT     Cn2 
	BYTE	W01
	BYTE		        Gn2 
	BYTE	W19
	BYTE	GoTo
	 POIN2	FE06BeneathaNewLightSme_10_B1
FE06BeneathaNewLightSme_10_B2:
// 041   ----------------------------------------
	BYTE	W48
	BYTE	FINE

//**************** Track 11 (Midi-Chn.12) ****************//

FE06BeneathaNewLightSme_11:
	BYTE	KEYSH   FE06BeneathaNewLightSme_key+0
// 000   ----------------------------------------
	BYTE		VOICE   60
	BYTE		VOL     81*FE06BeneathaNewLightSme_mvl/mxv
	BYTE	W96
// 001   ----------------------------------------
	BYTE	W96
// 002   ----------------------------------------
	BYTE	W96
FE06BeneathaNewLightSme_11_B1:
// 003   ----------------------------------------
	BYTE		N92     Cn3   v108
	BYTE	W96
// 004   ----------------------------------------
	BYTE		N44     Gs3 
	BYTE	W48
	BYTE		        Gn3 
	BYTE	W48
// 005   ----------------------------------------
	BYTE		N92     Fn3 
	BYTE	W96
// 006   ----------------------------------------
	BYTE		N44     Gn3 
	BYTE	W48
	BYTE		        Fn3 
	BYTE	W48
// 007   ----------------------------------------
	BYTE		        En3 
	BYTE	W48
	BYTE		        An3   v100
	BYTE	W48
// 008   ----------------------------------------
	BYTE		        Bn3   v108
	BYTE	W48
	BYTE		        Cn4 
	BYTE	W48
// 009   ----------------------------------------
	BYTE		N92     Cn3 
	BYTE	W96
// 010   ----------------------------------------
	BYTE		N44     An3 
	BYTE	W48
	BYTE		N48     Gn3 
	BYTE	W48
// 011   ----------------------------------------
	BYTE	W96
// 012   ----------------------------------------
	BYTE	W96
// 013   ----------------------------------------
	BYTE	W96
// 014   ----------------------------------------
	BYTE	W96
// 015   ----------------------------------------
	BYTE	W96
// 016   ----------------------------------------
	BYTE	W96
// 017   ----------------------------------------
	BYTE	W96
// 018   ----------------------------------------
	BYTE	W96
// 019   ----------------------------------------
	BYTE	W96
// 020   ----------------------------------------
	BYTE	W96
// 021   ----------------------------------------
	BYTE	W96
// 022   ----------------------------------------
	BYTE	W96
// 023   ----------------------------------------
	BYTE	W96
// 024   ----------------------------------------
	BYTE	W96
// 025   ----------------------------------------
	BYTE		N28     Cn3   v120
	BYTE	W30
	BYTE		N05     Cn3   v064
	BYTE	W06
	BYTE		N07     Dn3   v112
	BYTE	W12
	BYTE		N28     En3   v120
	BYTE	W30
	BYTE		N11     En3   v064
	BYTE	W18
// 026   ----------------------------------------
	BYTE		N17     Fn3   v120
	BYTE	W18
	BYTE		N05     Fn3   v064
	BYTE	W06
	BYTE		N17     Dn3   v116
	BYTE	W18
	BYTE		N05     Dn3   v064
	BYTE	W06
	BYTE		N17     En3   v120
	BYTE	W18
	BYTE		N05     En3   v064
	BYTE	W06
	BYTE		N17     Cn3   v120
	BYTE	W18
	BYTE		N05     Cn3   v064
	BYTE	W06
// 027   ----------------------------------------
	BYTE		N21     An3   v120
	BYTE	W24
	BYTE		N19     Cn4   v116
	BYTE	W24
	BYTE		N20     Gn3   v120
	BYTE	W24
	BYTE		N21     Fn3   v116
	BYTE	W24
// 028   ----------------------------------------
	BYTE		N40     En3   v120
	BYTE	W48
	BYTE		        Dn3   v124
	BYTE	W48
// 029   ----------------------------------------
	BYTE		N28     Cn3   v116
	BYTE	W36
	BYTE		N10     Dn3   v112
	BYTE	W12
	BYTE		N36     En3   v120
	BYTE	W48
// 030   ----------------------------------------
	BYTE		N21     Fn3   v116
	BYTE	W24
	BYTE		N11     En3   v120
	BYTE	W12
	BYTE		        Dn3   v116
	BYTE	W12
	BYTE		N20     En3   v120
	BYTE	W24
	BYTE		        Cn3   v112
	BYTE	W24
// 031   ----------------------------------------
	BYTE		N32     En3   v120
	BYTE	W36
	BYTE		N11     Dn3   v116
	BYTE	W12
	BYTE		N30     Dn3   v120
	BYTE	W36
	BYTE		N10     Cn3   v112
	BYTE	W12
// 032   ----------------------------------------
	BYTE		N36     En3   v120
	BYTE	W48
	BYTE		N19     Dn3   v116
	BYTE	W24
	BYTE		N17     Gn3 
	BYTE	W24
// 033   ----------------------------------------
	BYTE		N84     Cn4   v124
	BYTE	W96
// 034   ----------------------------------------
	BYTE		N42     As3   v112
	BYTE	W48
	BYTE		        Gs3   v108
	BYTE	W48
// 035   ----------------------------------------
	BYTE		N18     Gn3   v116
	BYTE	W24
	BYTE		TIE     Cn3 
	BYTE	W72
// 036   ----------------------------------------
	BYTE	W68
	BYTE		EOT   
	BYTE	W28
// 037   ----------------------------------------
	BYTE		N90     Cn4   v120
	BYTE	W96
// 038   ----------------------------------------
	BYTE		N36     As3   v112
	BYTE	W48
	BYTE		N44     Gs3   v108
	BYTE	W48
// 039   ----------------------------------------
	BYTE		TIE     Cn4   v112
	BYTE	W96
// 040   ----------------------------------------
	BYTE	W68
	BYTE	W03
	BYTE		EOT   
	BYTE	W24
	BYTE	W01
	BYTE	GoTo
	 POIN2	FE06BeneathaNewLightSme_11_B1
FE06BeneathaNewLightSme_11_B2:
// 041   ----------------------------------------
	BYTE	W48
	BYTE	FINE

//**************** Track 12 (Midi-Chn.13) ****************//

FE06BeneathaNewLightSme_12:
	BYTE		VOL     127*FE06BeneathaNewLightSme_mvl/mxv
	BYTE	KEYSH   FE06BeneathaNewLightSme_key+0
// 000   ----------------------------------------
	BYTE		VOICE   46
	BYTE	W96
// 001   ----------------------------------------
	BYTE	W96
// 002   ----------------------------------------
	BYTE	W96
FE06BeneathaNewLightSme_12_B1:
// 003   ----------------------------------------
FE06BeneathaNewLightSme_12_003:
	BYTE		N32     Cn3   v124
	BYTE	W36
	BYTE		N11     Dn3 
	BYTE	W12
	BYTE		N44     En3   v127
	BYTE	W48
	BYTE	PEND
// 004   ----------------------------------------
FE06BeneathaNewLightSme_12_004:
	BYTE		N32     Fn3   v124
	BYTE	W36
	BYTE		N05     En3 
	BYTE	W06
	BYTE		        Dn3   v112
	BYTE	W06
	BYTE		N23     En3   v120
	BYTE	W24
	BYTE		        Cn3 
	BYTE	W24
	BYTE	PEND
// 005   ----------------------------------------
FE06BeneathaNewLightSme_12_005:
	BYTE		N32     An3   v124
	BYTE	W36
	BYTE		N05     Bn3   v120
	BYTE	W06
	BYTE		        Cn4   v108
	BYTE	W06
	BYTE		N23     Gn3   v116
	BYTE	W24
	BYTE		        Fn3   v120
	BYTE	W24
	BYTE	PEND
// 006   ----------------------------------------
FE06BeneathaNewLightSme_12_006:
	BYTE		N44     En3   v120
	BYTE	W48
	BYTE		        Dn3   v127
	BYTE	W48
	BYTE	PEND
// 007   ----------------------------------------
FE06BeneathaNewLightSme_12_007:
	BYTE		N32     Cn3   v127
	BYTE	W36
	BYTE		N11     Dn3 
	BYTE	W12
	BYTE		N44     En3 
	BYTE	W48
	BYTE	PEND
// 008   ----------------------------------------
FE06BeneathaNewLightSme_12_008:
	BYTE		N32     Fn3   v120
	BYTE	W36
	BYTE		N05     En3 
	BYTE	W06
	BYTE		        Dn3   v116
	BYTE	W06
	BYTE		N23     En3   v124
	BYTE	W24
	BYTE		        Cn3 
	BYTE	W24
	BYTE	PEND
// 009   ----------------------------------------
FE06BeneathaNewLightSme_12_009:
	BYTE		N32     En3   v127
	BYTE	W36
	BYTE		N11     Dn3 
	BYTE	W12
	BYTE		N32   
	BYTE	W36
	BYTE		N11     Cn3   v120
	BYTE	W12
	BYTE	PEND
// 010   ----------------------------------------
FE06BeneathaNewLightSme_12_010:
	BYTE		N32     En3   v124
	BYTE	W36
	BYTE		N11     En3   v120
	BYTE	W12
	BYTE		N23     En3   v124
	BYTE	W24
	BYTE		        Dn3 
	BYTE	W24
	BYTE	PEND
// 011   ----------------------------------------
	BYTE		N92     En3   v108
	BYTE	W96
// 012   ----------------------------------------
	BYTE	W96
// 013   ----------------------------------------
	BYTE	PATT
	 POIN2	FE06BeneathaNewLightSme_12_003
// 014   ----------------------------------------
	BYTE	PATT
	 POIN2	FE06BeneathaNewLightSme_12_004
// 015   ----------------------------------------
	BYTE	PATT
	 POIN2	FE06BeneathaNewLightSme_12_005
// 016   ----------------------------------------
	BYTE	PATT
	 POIN2	FE06BeneathaNewLightSme_12_006
// 017   ----------------------------------------
	BYTE	PATT
	 POIN2	FE06BeneathaNewLightSme_12_007
// 018   ----------------------------------------
	BYTE	PATT
	 POIN2	FE06BeneathaNewLightSme_12_008
// 019   ----------------------------------------
	BYTE	PATT
	 POIN2	FE06BeneathaNewLightSme_12_009
// 020   ----------------------------------------
	BYTE	PATT
	 POIN2	FE06BeneathaNewLightSme_12_010
// 021   ----------------------------------------
	BYTE	W96
// 022   ----------------------------------------
	BYTE	W96
// 023   ----------------------------------------
	BYTE	W96
// 024   ----------------------------------------
	BYTE	W96
// 025   ----------------------------------------
	BYTE	W96
// 026   ----------------------------------------
	BYTE	W96
// 027   ----------------------------------------
	BYTE	W96
// 028   ----------------------------------------
	BYTE	W96
// 029   ----------------------------------------
	BYTE	W96
// 030   ----------------------------------------
	BYTE	W96
// 031   ----------------------------------------
	BYTE	W96
// 032   ----------------------------------------
	BYTE	W96
// 033   ----------------------------------------
	BYTE	W96
// 034   ----------------------------------------
	BYTE	W96
// 035   ----------------------------------------
	BYTE	W96
// 036   ----------------------------------------
	BYTE	W96
// 037   ----------------------------------------
	BYTE	W96
// 038   ----------------------------------------
	BYTE	W96
// 039   ----------------------------------------
	BYTE	W96
// 040   ----------------------------------------
	BYTE	W96
	BYTE	GoTo
	 POIN2	FE06BeneathaNewLightSme_12_B1
FE06BeneathaNewLightSme_12_B2:
// 041   ----------------------------------------
	BYTE	W48
	BYTE	FINE

//**************** Track 13 (Midi-Chn.14) ****************//

FE06BeneathaNewLightSme_13:
	BYTE	KEYSH   FE06BeneathaNewLightSme_key+0
// 000   ----------------------------------------
	BYTE		VOICE   60
	BYTE		VOL     72*FE06BeneathaNewLightSme_mvl/mxv
	BYTE	W96
// 001   ----------------------------------------
	BYTE	W96
// 002   ----------------------------------------
	BYTE	W96
FE06BeneathaNewLightSme_13_B1:
// 003   ----------------------------------------
	BYTE	W96
// 004   ----------------------------------------
	BYTE	W96
// 005   ----------------------------------------
	BYTE	W96
// 006   ----------------------------------------
	BYTE	W96
// 007   ----------------------------------------
	BYTE	W96
// 008   ----------------------------------------
	BYTE	W96
// 009   ----------------------------------------
	BYTE	W96
// 010   ----------------------------------------
	BYTE	W96
// 011   ----------------------------------------
	BYTE	W96
// 012   ----------------------------------------
	BYTE	W96
// 013   ----------------------------------------
	BYTE	W96
// 014   ----------------------------------------
	BYTE	W96
// 015   ----------------------------------------
	BYTE	W96
// 016   ----------------------------------------
	BYTE	W96
// 017   ----------------------------------------
	BYTE	W96
// 018   ----------------------------------------
	BYTE	W96
// 019   ----------------------------------------
	BYTE	W96
// 020   ----------------------------------------
	BYTE	W96
// 021   ----------------------------------------
	BYTE	W96
// 022   ----------------------------------------
	BYTE	W96
// 023   ----------------------------------------
	BYTE	W96
// 024   ----------------------------------------
	BYTE	W96
// 025   ----------------------------------------
	BYTE		N32     Cn3   v120
	BYTE	W36
	BYTE		N07     Dn3   v112
	BYTE	W12
	BYTE		N32     En3   v120
	BYTE	W48
// 026   ----------------------------------------
	BYTE		N18     Fn3 
	BYTE	W24
	BYTE		N20     Dn3   v116
	BYTE	W24
	BYTE		        En3   v120
	BYTE	W24
	BYTE		N17     Cn3 
	BYTE	W24
// 027   ----------------------------------------
	BYTE		N21     An3 
	BYTE	W24
	BYTE		N19     Cn4   v116
	BYTE	W24
	BYTE		N20     Gn3   v120
	BYTE	W24
	BYTE		N21     Fn3   v116
	BYTE	W24
// 028   ----------------------------------------
	BYTE		N40     En3   v120
	BYTE	W48
	BYTE		        Dn3   v124
	BYTE	W48
// 029   ----------------------------------------
	BYTE		N28     Cn3   v116
	BYTE	W36
	BYTE		N10     Dn3   v112
	BYTE	W12
	BYTE		N36     En3   v120
	BYTE	W48
// 030   ----------------------------------------
	BYTE		N21     Fn3   v116
	BYTE	W24
	BYTE		N11     En3   v120
	BYTE	W12
	BYTE		        Dn3   v116
	BYTE	W12
	BYTE		N20     En3   v120
	BYTE	W24
	BYTE		        Cn3   v112
	BYTE	W24
// 031   ----------------------------------------
	BYTE		N32     En3   v120
	BYTE	W36
	BYTE		N11     Dn3   v116
	BYTE	W12
	BYTE		N30     Dn3   v120
	BYTE	W36
	BYTE		N10     Cn3   v112
	BYTE	W12
// 032   ----------------------------------------
	BYTE		N36     En3   v120
	BYTE	W48
	BYTE		N19     Dn3   v116
	BYTE	W24
	BYTE		N17     Gn3 
	BYTE	W24
// 033   ----------------------------------------
	BYTE		N84     Cn4   v124
	BYTE	W96
// 034   ----------------------------------------
	BYTE		N42     As3   v112
	BYTE	W48
	BYTE		        Gs3   v108
	BYTE	W48
// 035   ----------------------------------------
	BYTE		N18     Gn3   v116
	BYTE	W24
	BYTE		TIE     Cn3 
	BYTE	W72
// 036   ----------------------------------------
	BYTE	W68
	BYTE		EOT   
	BYTE	W28
// 037   ----------------------------------------
	BYTE		N90     Cn4   v120
	BYTE	W96
// 038   ----------------------------------------
	BYTE		N36     As3   v112
	BYTE	W48
	BYTE		N44     Gs3   v108
	BYTE	W48
// 039   ----------------------------------------
	BYTE		TIE     Cn4   v112
	BYTE	W96
// 040   ----------------------------------------
	BYTE	W68
	BYTE	W03
	BYTE		EOT   
	BYTE	W24
	BYTE	W01
	BYTE	GoTo
	 POIN2	FE06BeneathaNewLightSme_13_B1
FE06BeneathaNewLightSme_13_B2:
// 041   ----------------------------------------
	BYTE	W48
	BYTE	FINE

//**************** Track 14 (Midi-Chn.15) ****************//

FE06BeneathaNewLightSme_14:
	BYTE	KEYSH   FE06BeneathaNewLightSme_key+0
// 000   ----------------------------------------
	BYTE		VOICE   100
	BYTE		PAN     c_v+14
	BYTE		VOL     73*FE06BeneathaNewLightSme_mvl/mxv
	BYTE	W96
// 001   ----------------------------------------
	BYTE	W96
// 002   ----------------------------------------
	BYTE	W96
FE06BeneathaNewLightSme_14_B1:
// 003   ----------------------------------------
	BYTE	W96
// 004   ----------------------------------------
	BYTE	W96
// 005   ----------------------------------------
	BYTE	W96
// 006   ----------------------------------------
	BYTE	W96
// 007   ----------------------------------------
	BYTE	W96
// 008   ----------------------------------------
	BYTE	W96
// 009   ----------------------------------------
	BYTE	W96
// 010   ----------------------------------------
	BYTE	W96
// 011   ----------------------------------------
	BYTE	W96
// 012   ----------------------------------------
	BYTE	W96
// 013   ----------------------------------------
	BYTE		N92     En3   v112
	BYTE	W96
// 014   ----------------------------------------
	BYTE		        Cn3   v108
	BYTE	W96
// 015   ----------------------------------------
	BYTE		        Fn3   v104
	BYTE	W96
// 016   ----------------------------------------
	BYTE		N44     Gn3   v108
	BYTE	W48
	BYTE		        Fn3   v112
	BYTE	W48
// 017   ----------------------------------------
	BYTE		N92     En3 
	BYTE	W96
// 018   ----------------------------------------
	BYTE		        Cn3   v108
	BYTE	W96
// 019   ----------------------------------------
	BYTE		        An2   v100
	BYTE	W96
// 020   ----------------------------------------
	BYTE	W96
// 021   ----------------------------------------
	BYTE	W96
// 022   ----------------------------------------
	BYTE	W96
// 023   ----------------------------------------
	BYTE	W96
// 024   ----------------------------------------
	BYTE	W96
// 025   ----------------------------------------
	BYTE	W96
// 026   ----------------------------------------
	BYTE	W96
// 027   ----------------------------------------
	BYTE	W96
// 028   ----------------------------------------
	BYTE	W96
// 029   ----------------------------------------
	BYTE	W96
// 030   ----------------------------------------
	BYTE	W96
// 031   ----------------------------------------
	BYTE	W96
// 032   ----------------------------------------
	BYTE	W96
// 033   ----------------------------------------
	BYTE	W96
// 034   ----------------------------------------
	BYTE	W96
// 035   ----------------------------------------
	BYTE	W96
// 036   ----------------------------------------
	BYTE	W96
// 037   ----------------------------------------
	BYTE	W96
// 038   ----------------------------------------
	BYTE	W96
// 039   ----------------------------------------
	BYTE	W96
// 040   ----------------------------------------
	BYTE	W96
	BYTE	GoTo
	 POIN2	FE06BeneathaNewLightSme_14_B1
FE06BeneathaNewLightSme_14_B2:
// 041   ----------------------------------------
	BYTE	W48
	BYTE	FINE

//******************************************************//
	ALIGN 4

FE06BeneathaNewLightSme:
	BYTE	14	// NumTrks
	BYTE	0	// NumBlks
	BYTE	FE06BeneathaNewLightSme_pri	// Priority
	BYTE	FE06BeneathaNewLightSme_rev	// Reverb.

	POIN2	FE06BeneathaNewLightSme_grp

	POIN2	FE06BeneathaNewLightSme_1
	POIN2	FE06BeneathaNewLightSme_2
	POIN2	FE06BeneathaNewLightSme_3
	POIN2	FE06BeneathaNewLightSme_4
	POIN2	FE06BeneathaNewLightSme_5
	POIN2	FE06BeneathaNewLightSme_6
	POIN2	FE06BeneathaNewLightSme_7
	POIN2	FE06BeneathaNewLightSme_8
	POIN2	FE06BeneathaNewLightSme_9
	POIN2	FE06BeneathaNewLightSme_10
	POIN2	FE06BeneathaNewLightSme_11
	POIN2	FE06BeneathaNewLightSme_12
	POIN2	FE06BeneathaNewLightSme_13
	POIN2	FE06BeneathaNewLightSme_14

	
