//Event file generated from Sappy .s format.
	#include "MPlayDef.event"

	#define	FE06IIIInvisibleEnemyAlice_grp  voicegroup000
	#define	FE06IIIInvisibleEnemyAlice_pri  10
	#define	FE06IIIInvisibleEnemyAlice_rev  158
	#define	FE06IIIInvisibleEnemyAlice_mvl  127
	#define	FE06IIIInvisibleEnemyAlice_key  0
	#define	FE06IIIInvisibleEnemyAlice_tbs  1
	#define	FE06IIIInvisibleEnemyAlice_exg  0
	#define	FE06IIIInvisibleEnemyAlice_cmp  1

	// .rodata
	//	FE06IIIInvisibleEnemyAlice
	ALIGN 4


//**************** Track 1 (Midi-Chn.0) ****************//

FE06IIIInvisibleEnemyAlice_001:
//  #01 //000   ----------------------------------------
 BYTE   KEYSH   FE06IIIInvisibleEnemyAlice_key+0
 BYTE   TEMPO   92*FE06IIIInvisibleEnemyAlice_tbs/2
 BYTE   VOICE   71
 BYTE   MOD 2
 BYTE   VOL   47*FE06IIIInvisibleEnemyAlice_mvl/mxv
 BYTE   PAN   c_v-11
 BYTE   W24
 BYTE   N23  Dn3  v096
 BYTE   W24
Label_010305A1:
 BYTE   N05  An3  v088
 BYTE   W06
 BYTE   N04  An3  v028
 BYTE   W06
 BYTE   N05  Gn3  v088
 BYTE   W06
 BYTE   Fn3  v068
 BYTE   W06
 BYTE   N23  En3  v088
 BYTE   W24
//  #01 //001   ----------------------------------------
 BYTE   N06  En3  v028
 BYTE   W12
 BYTE   N04  Dn3  v100
 BYTE   W06
 BYTE   Dn3  v028
 BYTE   W06
 BYTE   En3  v096
 BYTE   W06
 BYTE   En3  v028
 BYTE   W06
 BYTE   N03  Fn3  v096
 BYTE   W06
 BYTE   N04  Fn3  v028
 BYTE   W06
 BYTE   N10  Gn3  v088
 BYTE   W12
 BYTE   N04  Gn3  v028
 BYTE   W06
 BYTE   N05  An3  v084
 BYTE   W06
 BYTE   N56  En3
 BYTE   W60
//  #01 //002   ----------------------------------------
 BYTE   N04  En3  v028
 BYTE   W12
 BYTE   An3  v096
 BYTE   W06
 BYTE   An3  v028
 BYTE   W06
 BYTE   N05  Gn3  v096
 BYTE   W06
 BYTE   Fn3  v068
 BYTE   W06
 BYTE   N23  En3  v092
 BYTE   W24
 BYTE   N04  En3  v028
 BYTE   W12
 BYTE   N03  Dn3  v112
 BYTE   W06
 BYTE   N04  Dn3  v028
 BYTE   W06
 BYTE   En3  v104
 BYTE   W06
 BYTE   En3  v028
 BYTE   W06
//  #01 //003   ----------------------------------------
 BYTE   N03  Fn3  v092
 BYTE   W06
 BYTE   N04  Fn3  v028
 BYTE   W06
 BYTE   N10  Gn3  v096
 BYTE   W12
 BYTE   N04  Gn3  v028
 BYTE   W06
 BYTE   An3  v088
 BYTE   W06
 BYTE   N64  En3
 BYTE   W66
//  #01 //004   ----------------------------------------
 BYTE   N04  En3  v028
 BYTE   W06
 BYTE   Cn4  v104
 BYTE   W06
 BYTE   Cn4  v028
 BYTE   W06
 BYTE   N03  As3  v092
 BYTE   W06
 BYTE   N04  An3  v088
 BYTE   W06
 BYTE   N28  Gn3
 BYTE   W30
 BYTE   N04  Gn3  v028
 BYTE   W06
 BYTE   Fn3  v084
 BYTE   W06
 BYTE   Fn3  v028
 BYTE   W06
 BYTE   N05  Gn3  v084
 BYTE   W06
 BYTE   N04  Gn3  v028
 BYTE   W06
 BYTE   N03  An3  v088
 BYTE   W06
//  #01 //005   ----------------------------------------
 BYTE   N04  An3  v028
 BYTE   W06
 BYTE   Cn4  v108
 BYTE   W06
 BYTE   Cn4  v028
 BYTE   W06
 BYTE   N05  As3  v080
 BYTE   W06
 BYTE   N04  An3  v072
 BYTE   W06
 BYTE   N24  Gn3  v080
 BYTE   W30
 BYTE   N04  Gn3  v028
 BYTE   W06
 BYTE   Fn3  v088
 BYTE   W06
 BYTE   Fn3  v028
 BYTE   W06
 BYTE   Gn3  v092
 BYTE   W06
 BYTE   Gn3  v028
 BYTE   W06
 BYTE   N03  An3  v076
 BYTE   W06
//  #01 //006   ----------------------------------------
 BYTE   N04  An3  v028
 BYTE   W06
 BYTE   N05  En3  v100
 BYTE   W06
 BYTE   N04  En3  v028
 BYTE   W12
 BYTE   N05  Dn3  v108
 BYTE   W06
 BYTE   N44  En3  v092
 BYTE   W48
 BYTE   N04  En3  v028
 BYTE   W12
 BYTE   N03  Dn3  v108
 BYTE   W06
//  #01 //007   ----------------------------------------
 BYTE   N04  Dn3  v028
 BYTE   W06
 BYTE   N08  An3  v104
 BYTE   W12
 BYTE   N04  An3  v028
 BYTE   W06
 BYTE   En3  v108
 BYTE   W06
 BYTE   N28  Dn3  v100
 BYTE   W30
 BYTE   N04  Dn3  v028
 BYTE   W06
 BYTE   N03  En3  v104
 BYTE   W06
 BYTE   N04  En3  v028
 BYTE   W06
 BYTE   N03  Fn3  v072
 BYTE   W06
 BYTE   N04  Fn3  v028
 BYTE   W06
 BYTE   N03  Gn3  v092
 BYTE   W06
//  #01 //008   ----------------------------------------
 BYTE   N04  Gn3  v028
 BYTE   W06
 BYTE   N88  En3  v108
 BYTE   W90
//  #01 //009   ----------------------------------------
 BYTE   N04  En3  v028
 BYTE   W06
 BYTE   N11  En3  v100
 BYTE   W12
 BYTE   N04  En3  v028
 BYTE   W06
 BYTE   En3  v076
 BYTE   W06
 BYTE   N44  An3  v088
 BYTE   W48
 BYTE   N04  An3  v028
 BYTE   W12
 BYTE   N05  An3  v088
 BYTE   W06
//  #01 //010   ----------------------------------------
 BYTE   N04  An3  v028
 BYTE   W06
 BYTE   N11  Cn4  v088
 BYTE   W12
 BYTE   N04  Cn4  v028
 BYTE   W06
 BYTE   N03  As3  v056
 BYTE   W06
 BYTE   N44  Cn4  v092
 BYTE   W48
 BYTE   N04  Cn4  v028
 BYTE   W12
 BYTE   As3  v080
 BYTE   W06
//  #01 //011   ----------------------------------------
 BYTE   As3  v028
 BYTE   W06
 BYTE   Cn4  v096
 BYTE   W06
 BYTE   Cn4  v028
 BYTE   W06
 BYTE   N05  Gn3  v088
 BYTE   W06
 BYTE   N04  An3  v084
 BYTE   W06
 BYTE   N28  As3  v088
 BYTE   W30
 BYTE   N04  As3  v028
 BYTE   W06
 BYTE   An3  v084
 BYTE   W06
 BYTE   An3  v028
 BYTE   W06
 BYTE   N03  As3  v080
 BYTE   W06
 BYTE   N04  As3  v028
 BYTE   W06
 BYTE   N03  Cn4  v088
 BYTE   W06
//  #01 //012   ----------------------------------------
 BYTE   N04  Cn4  v028
 BYTE   W06
 BYTE   N11  Gn3  v100
 BYTE   W12
 BYTE   N04  Gn3  v028
 BYTE   W06
 BYTE   N03  Fn3  v040
 BYTE   W06
 BYTE   TIE  Gn3  v080
 BYTE   W72
//  #01 //013   ----------------------------------------
 BYTE   W68
 BYTE   W03
 BYTE   EOT
 BYTE   W13
 BYTE   N05  Fn3  v088
 BYTE   W06
 BYTE   N04  Fn3  v028
 BYTE   W06
//  #01 //014   ----------------------------------------
 BYTE   N06  En3  v084
 BYTE   W12
 BYTE   N04  En3  v028
 BYTE   W06
 BYTE   N03  Dn3  v088
 BYTE   W06
 BYTE   N48  En3  v096
 BYTE   W60
 BYTE   N04  Fn3  v088
 BYTE   W06
 BYTE   Fn3  v028
 BYTE   W06
//  #01 //015   ----------------------------------------
 BYTE   N10  Dn3  v096
 BYTE   W12
 BYTE   N04  Dn3  v028
 BYTE   W06
 BYTE   N05  Cn3  v080
 BYTE   W06
 BYTE   N28  Dn3  v092
 BYTE   W30
 BYTE   N04  Dn3  v028
 BYTE   W06
 BYTE   Cn3  v084
 BYTE   W06
 BYTE   Cn3  v028
 BYTE   W06
 BYTE   N17  Dn3  v100
 BYTE   W18
 BYTE   N04  En3  v068
 BYTE   W06
//  #01 //016   ----------------------------------------
 BYTE   N11  Cn3  v080
 BYTE   W12
 BYTE   N04  Cn3  v028
 BYTE   W06
 BYTE   N05  Bn2  v068
 BYTE   W06
 BYTE   N44  Cn3  v084
 BYTE   W48
 BYTE   N04  Cn3  v028
 BYTE   W24
//  #01 //017   ----------------------------------------
 BYTE   W96
//  #01 //018   ----------------------------------------
 BYTE   GoTo
  POIN2 Label_010305A1
 BYTE   FINE

//**************** Track 2 (Midi-Chn.1) ****************//

FE06IIIInvisibleEnemyAlice_002:
//  #02 //000   ----------------------------------------
 BYTE   KEYSH   FE06IIIInvisibleEnemyAlice_key+0
 BYTE   VOICE   71
 BYTE   VOL   39*FE06IIIInvisibleEnemyAlice_mvl/mxv
 BYTE   PAN   c_v+8
 BYTE   MOD 1
 BYTE   BEND   c_v-2
 BYTE   W24
 BYTE   N23  Dn3  v092
 BYTE   W24
Label_01022531:
 BYTE   N06  An3  v084
 BYTE   W12
 BYTE   N05  Gn3  v080
 BYTE   W06
 BYTE   Fn3  v064
 BYTE   W06
 BYTE   N24  En3  v084
 BYTE   W36
//  #02 //001   ----------------------------------------
 BYTE   N04  Dn3  v096
 BYTE   W12
 BYTE   En3  v088
 BYTE   W12
 BYTE   N03  Fn3
 BYTE   W12
 BYTE   N10  Gn3  v096
 BYTE   W18
 BYTE   N05  An3  v076
 BYTE   W06
 BYTE   N60  En3  v080
 BYTE   W72
//  #02 //002   ----------------------------------------
 BYTE   N04  An3  v092
 BYTE   W12
 BYTE   N05  Gn3  v088
 BYTE   W06
 BYTE   Fn3  v064
 BYTE   W06
 BYTE   N24  En3  v084
 BYTE   W36
 BYTE   N03  Dn3  v108
 BYTE   W12
 BYTE   N04  En3  v096
 BYTE   W12
 BYTE   N03  Fn3  v088
 BYTE   W12
//  #02 //003   ----------------------------------------
 BYTE   N10  Gn3
 BYTE   W18
 BYTE   N04  An3  v084
 BYTE   W06
 BYTE   N66  En3
 BYTE   W72
//  #02 //004   ----------------------------------------
 BYTE   N04  Cn4  v100
 BYTE   W12
 BYTE   N03  As3  v084
 BYTE   W06
 BYTE   N04  An3  v080
 BYTE   W06
 BYTE   N28  Gn3
 BYTE   W36
 BYTE   N04  Fn3
 BYTE   W12
 BYTE   N05  Gn3
 BYTE   W12
 BYTE   N03  An3  v084
 BYTE   W12
//  #02 //005   ----------------------------------------
 BYTE   N04  Cn4  v104
 BYTE   W12
 BYTE   N05  As3  v076
 BYTE   W06
 BYTE   N04  An3  v068
 BYTE   W06
 BYTE   N24  Gn3  v076
 BYTE   W36
 BYTE   N04  Fn3  v084
 BYTE   W12
 BYTE   Gn3
 BYTE   W12
 BYTE   N03  An3  v068
 BYTE   W12
//  #02 //006   ----------------------------------------
 BYTE   N06  En3  v096
 BYTE   W18
 BYTE   N05  Dn3  v104
 BYTE   W06
 BYTE   N48  En3  v088
 BYTE   W60
 BYTE   N03  Dn3  v100
 BYTE   W12
//  #02 //007   ----------------------------------------
 BYTE   N08  An3  v096
 BYTE   W18
 BYTE   N04  En3  v100
 BYTE   W06
 BYTE   N28  Dn3  v096
 BYTE   W36
 BYTE   N03  En3
 BYTE   W12
 BYTE   Fn3  v068
 BYTE   W12
 BYTE   Gn3  v088
 BYTE   W12
//  #02 //008   ----------------------------------------
 BYTE   N92  En3  v100
 BYTE   W96
//  #02 //009   ----------------------------------------
 BYTE   N13  En3  v096
 BYTE   W18
 BYTE   N04  En3  v072
 BYTE   W06
 BYTE   N48  An3  v084
 BYTE   W60
 BYTE   N06  An3  v080
 BYTE   W12
//  #02 //010   ----------------------------------------
 BYTE   N11  Cn4  v084
 BYTE   W18
 BYTE   N03  As3  v052
 BYTE   W06
 BYTE   N48  Cn4  v088
 BYTE   W60
 BYTE   N04  As3  v076
 BYTE   W12
//  #02 //011   ----------------------------------------
 BYTE   Cn4  v092
 BYTE   W12
 BYTE   N05  Gn3  v080
 BYTE   W06
 BYTE   N04  An3
 BYTE   W06
 BYTE   N30  As3  v084
 BYTE   W36
 BYTE   N04  An3  v080
 BYTE   W12
 BYTE   N03  As3  v072
 BYTE   W12
 BYTE   Cn4  v080
 BYTE   W12
//  #02 //012   ----------------------------------------
 BYTE   N15  Gn3  v096
 BYTE   W18
 BYTE   N03  Fn3  v032
 BYTE   W06
 BYTE   TIE  Gn3  v076
 BYTE   W72
//  #02 //013   ----------------------------------------
 BYTE   W68
 BYTE   W03
 BYTE   EOT
 BYTE   W13
 BYTE   N06  Fn3  v080
 BYTE   W12
//  #02 //014   ----------------------------------------
 BYTE   En3  v076
 BYTE   W18
 BYTE   N03  Dn3  v080
 BYTE   W06
 BYTE   N48  En3  v092
 BYTE   W60
 BYTE   N04  Fn3  v084
 BYTE   W12
//  #02 //015   ----------------------------------------
 BYTE   N10  Dn3  v088
 BYTE   W18
 BYTE   N05  Cn3  v072
 BYTE   W06
 BYTE   N30  Dn3  v084
 BYTE   W36
 BYTE   N04  Cn3  v080
 BYTE   W12
 BYTE   N17  Dn3  v092
 BYTE   W18
 BYTE   N04  En3  v064
 BYTE   W06
//  #02 //016   ----------------------------------------
 BYTE   N12  Cn3  v072
 BYTE   W18
 BYTE   N05  Bn2  v064
 BYTE   W06
 BYTE   N44  Cn3  v080
 BYTE   W72
//  #02 //017   ----------------------------------------
 BYTE   W96
//  #02 //018   ----------------------------------------
 BYTE   GoTo
  POIN2 Label_01022531
 BYTE   FINE

//**************** Track 3 (Midi-Chn.2) ****************//

FE06IIIInvisibleEnemyAlice_003:
//  #03 //000   ----------------------------------------
 BYTE   KEYSH   FE06IIIInvisibleEnemyAlice_key+0
 BYTE   VOICE   40
 BYTE   VOL   51*FE06IIIInvisibleEnemyAlice_mvl/mxv
 BYTE   PAN   c_v-16
 BYTE   W24
 BYTE   N23  Bn2  v092
 BYTE   W24
Label_010307A9:
 BYTE   N06  An3  v084
 BYTE   W12
 BYTE   N05  Gn3  v080
 BYTE   W06
 BYTE   Fn3  v064
 BYTE   W06
 BYTE   N24  En3  v084
 BYTE   W36
//  #03 //001   ----------------------------------------
 BYTE   N04  Dn3  v100
 BYTE   W12
 BYTE   En3  v088
 BYTE   W12
 BYTE   N03  Fn3
 BYTE   W12
 BYTE   N10  Gn3  v096
 BYTE   W18
 BYTE   N05  An3  v076
 BYTE   W06
 BYTE   N60  En3  v080
 BYTE   W72
//  #03 //002   ----------------------------------------
 BYTE   N04  An3  v092
 BYTE   W12
 BYTE   N05  Gn3  v088
 BYTE   W06
 BYTE   Fn3  v064
 BYTE   W06
 BYTE   N24  En3  v084
 BYTE   W36
 BYTE   N03  Dn3  v108
 BYTE   W12
 BYTE   N04  En3  v096
 BYTE   W12
 BYTE   N03  Fn3  v088
 BYTE   W12
//  #03 //003   ----------------------------------------
 BYTE   N10  Gn3
 BYTE   W18
 BYTE   N04  An3  v084
 BYTE   W06
 BYTE   N66  En3
 BYTE   W72
//  #03 //004   ----------------------------------------
 BYTE   N04  Cn4  v100
 BYTE   W12
 BYTE   N03  As3  v084
 BYTE   W06
 BYTE   N04  An3  v080
 BYTE   W06
 BYTE   N28  Gn3
 BYTE   W36
 BYTE   N04  Fn3
 BYTE   W12
 BYTE   N05  Gn3
 BYTE   W12
 BYTE   N03  An3  v084
 BYTE   W12
//  #03 //005   ----------------------------------------
 BYTE   N04  Cn4  v104
 BYTE   W12
 BYTE   N05  As3  v076
 BYTE   W06
 BYTE   N04  An3  v068
 BYTE   W06
 BYTE   N24  Gn3  v076
 BYTE   W36
 BYTE   N04  Fn3  v084
 BYTE   W12
 BYTE   Gn3
 BYTE   W12
 BYTE   N03  An3  v068
 BYTE   W12
//  #03 //006   ----------------------------------------
 BYTE   N06  En3  v096
 BYTE   W18
 BYTE   N05  Dn3  v104
 BYTE   W06
 BYTE   N48  En3  v088
 BYTE   W60
 BYTE   N03  Dn3  v100
 BYTE   W12
//  #03 //007   ----------------------------------------
 BYTE   N08  An3  v096
 BYTE   W18
 BYTE   N04  En3  v100
 BYTE   W06
 BYTE   N28  Dn3  v096
 BYTE   W36
 BYTE   N03  En3
 BYTE   W12
 BYTE   Fn3  v068
 BYTE   W12
 BYTE   Gn3  v088
 BYTE   W12
//  #03 //008   ----------------------------------------
 BYTE   N92  En3  v100
 BYTE   W96
//  #03 //009   ----------------------------------------
 BYTE   N13  En3  v096
 BYTE   W18
 BYTE   N04  En3  v072
 BYTE   W06
 BYTE   N48  An3  v084
 BYTE   W60
 BYTE   N06  An3  v080
 BYTE   W12
//  #03 //010   ----------------------------------------
 BYTE   N11  Cn4  v084
 BYTE   W18
 BYTE   N03  As3  v052
 BYTE   W06
 BYTE   N48  Cn4  v088
 BYTE   W60
 BYTE   N04  As3  v076
 BYTE   W12
//  #03 //011   ----------------------------------------
 BYTE   N05  Cn4  v092
 BYTE   W12
 BYTE   Gn3  v080
 BYTE   W06
 BYTE   N04  An3
 BYTE   W06
 BYTE   N30  As3  v084
 BYTE   W36
 BYTE   N04  An3  v080
 BYTE   W12
 BYTE   N03  As3  v072
 BYTE   W12
 BYTE   Cn4  v080
 BYTE   W12
//  #03 //012   ----------------------------------------
 BYTE   N15  Gn3  v096
 BYTE   W18
 BYTE   N03  Fn3  v032
 BYTE   W06
 BYTE   TIE  Gn3  v076
 BYTE   W72
//  #03 //013   ----------------------------------------
 BYTE   W68
 BYTE   W03
 BYTE   EOT
 BYTE   W13
 BYTE   N06  Fn3  v080
 BYTE   W12
//  #03 //014   ----------------------------------------
 BYTE   N07  En3  v076
 BYTE   W18
 BYTE   N03  Dn3  v080
 BYTE   W06
 BYTE   N48  En3  v092
 BYTE   W60
 BYTE   N04  Fn3  v084
 BYTE   W12
//  #03 //015   ----------------------------------------
 BYTE   N10  Dn3  v088
 BYTE   W18
 BYTE   N05  Cn3  v072
 BYTE   W06
 BYTE   N30  Dn3  v084
 BYTE   W36
 BYTE   N04  Cn3  v080
 BYTE   W12
 BYTE   N17  Dn3  v092
 BYTE   W18
 BYTE   N04  En3  v064
 BYTE   W06
//  #03 //016   ----------------------------------------
 BYTE   N12  An2  v072
 BYTE   W18
 BYTE   N05  Gn2  v064
 BYTE   W06
 BYTE   N44  An2  v080
 BYTE   W72
//  #03 //017   ----------------------------------------
 BYTE   W96
//  #03 //018   ----------------------------------------
 BYTE   GoTo
  POIN2 Label_010307A9
 BYTE   FINE

//**************** Track 4 (Midi-Chn.3) ****************//

FE06IIIInvisibleEnemyAlice_004:
//  #04 //000   ----------------------------------------
 BYTE   KEYSH   FE06IIIInvisibleEnemyAlice_key+0
 BYTE   W48
Label_01021927:
 BYTE   W72
//  #04 //001   ----------------------------------------
 BYTE   VOICE   68
 BYTE   VOL   95*FE06IIIInvisibleEnemyAlice_mvl/mxv
 BYTE   PAN   c_v-19
 BYTE   W24
 BYTE   W48
 BYTE   N09  Gn2  v108
 BYTE   W12
 BYTE   N04  Gn2  v032
 BYTE   W06
 BYTE   N03  An2  v100
 BYTE   W06
//  #04 //002   ----------------------------------------
 BYTE   N44  En2
 BYTE   W24
 BYTE   W24
 BYTE   N04  En2  v032
 BYTE   W72
//  #04 //003   ----------------------------------------
 BYTE   W48
 BYTE   N10  Gn2  v104
 BYTE   W12
 BYTE   N04  Gn2  v032
 BYTE   W06
 BYTE   An2  v104
 BYTE   W06
 BYTE   N40  En2  v108
 BYTE   W24
//  #04 //004   ----------------------------------------
 BYTE   W18
 BYTE   N04  En2  v032
 BYTE   W78
//  #04 //005   ----------------------------------------
 BYTE   W96
//  #04 //006   ----------------------------------------
 BYTE   W96
//  #04 //007   ----------------------------------------
 BYTE   W96
//  #04 //008   ----------------------------------------
 BYTE   W48
 BYTE   N10  En2  v112
 BYTE   W12
 BYTE   N04  En2  v032
 BYTE   W06
 BYTE   Dn2  v096
 BYTE   W06
 BYTE   N32  En2  v112
 BYTE   W24
//  #04 //009   ----------------------------------------
 BYTE   W12
 BYTE   N04  En2  v032
 BYTE   W84
//  #04 //010   ----------------------------------------
 BYTE   W96
//  #04 //011   ----------------------------------------
 BYTE   W96
//  #04 //012   ----------------------------------------
 BYTE   W48
 BYTE   N11  Gn2  v104
 BYTE   W12
 BYTE   N04  Gn2  v032
 BYTE   W06
 BYTE   Fn2  v100
 BYTE   W06
 BYTE   N52  Gn2  v108
 BYTE   W24
//  #04 //013   ----------------------------------------
 BYTE   W30
 BYTE   N04  Gn2  v032
 BYTE   W06
 BYTE   N05  Cn3  v108
 BYTE   W06
 BYTE   N04  Cn3  v032
 BYTE   W06
 BYTE   N40  En3  v112
 BYTE   W42
 BYTE   N04  En3  v032
 BYTE   W06
//  #04 //014   ----------------------------------------
 BYTE   W96
//  #04 //015   ----------------------------------------
 BYTE   W96
//  #04 //016   ----------------------------------------
 BYTE   W96
//  #04 //017   ----------------------------------------
 BYTE   N10  An2  v108
 BYTE   W12
 BYTE   N02  Gn2
 BYTE   W06
 BYTE   Fn2
 BYTE   W06
 BYTE   N56  En2
 BYTE   W60
 BYTE   N04  En2  v032
 BYTE   W12
//  #04 //018   ----------------------------------------
 BYTE   GoTo
  POIN2 Label_01021927
 BYTE   FINE

//**************** Track 5 (Midi-Chn.4) ****************//

FE06IIIInvisibleEnemyAlice_005:
//  #05 //000   ----------------------------------------
 BYTE   KEYSH   FE06IIIInvisibleEnemyAlice_key+0
 BYTE   W24
 BYTE   VOICE   62
 BYTE   VOL   94*FE06IIIInvisibleEnemyAlice_mvl/mxv
 BYTE   PAN   c_v-9
 BYTE   W24
Label_010360FE:
 BYTE   N04  En3  v112
 BYTE   W12
 BYTE   N05
 BYTE   W24
 BYTE   N03  En3  v116
 BYTE   W06
 BYTE   N04  En3  v104
 BYTE   W06
//  #05 //001   ----------------------------------------
 BYTE   N05  En3  v112
 BYTE   W12
 BYTE   En3  v116
 BYTE   W36
 BYTE   N04  En3  v108
 BYTE   W12
 BYTE   En3  v112
 BYTE   W24
 BYTE   N03  En3  v104
 BYTE   W06
 BYTE   N04
 BYTE   W06
//  #05 //002   ----------------------------------------
 BYTE   N05  En3  v116
 BYTE   W12
 BYTE   En3  v112
 BYTE   W36
 BYTE   N04
 BYTE   W12
 BYTE   En3  v116
 BYTE   W24
 BYTE   N03  En3  v108
 BYTE   W06
 BYTE   N04  En3  v104
 BYTE   W06
//  #05 //003   ----------------------------------------
 BYTE   En3  v116
 BYTE   W12
 BYTE   N04
 BYTE   W36
 BYTE   N04
 BYTE   W12
 BYTE   En3  v104
 BYTE   W24
 BYTE   En3  v112
 BYTE   W06
 BYTE   N03  En3  v108
 BYTE   W06
//  #05 //004   ----------------------------------------
 BYTE   N04  En3  v120
 BYTE   W12
 BYTE   N05  En3  v116
 BYTE   W36
 BYTE   Gn3  v100
 BYTE   W12
 BYTE   N04  Gn3  v108
 BYTE   W24
 BYTE   Gn3  v104
 BYTE   W06
 BYTE   Gn3  v100
 BYTE   W06
//  #05 //005   ----------------------------------------
 BYTE   N05
 BYTE   W12
 BYTE   N04  Gn3  v112
 BYTE   W36
 BYTE   Gn3  v108
 BYTE   W12
 BYTE   N04
 BYTE   W24
 BYTE   N04
 BYTE   W06
 BYTE   Gn3  v104
 BYTE   W06
//  #05 //006   ----------------------------------------
 BYTE   Gn3  v108
 BYTE   W12
 BYTE   Gn3  v104
 BYTE   W24
 BYTE   N04
 BYTE   W12
 BYTE   En3  v116
 BYTE   W12
 BYTE   En3  v120
 BYTE   W24
 BYTE   N03  En3  v108
 BYTE   W06
 BYTE   N03
 BYTE   W06
//  #05 //007   ----------------------------------------
 BYTE   N05  En3  v112
 BYTE   W12
 BYTE   N04
 BYTE   W24
 BYTE   En3  v108
 BYTE   W12
 BYTE   En3  v120
 BYTE   W12
 BYTE   En3  v124
 BYTE   W24
 BYTE   N03  En3  v116
 BYTE   W06
 BYTE   En3  v108
 BYTE   W06
//  #05 //008   ----------------------------------------
 BYTE   N04  En3  v116
 BYTE   W12
 BYTE   N05  En3  v124
 BYTE   W24
 BYTE   N04  En3  v112
 BYTE   W12
 BYTE   En3  v124
 BYTE   W12
 BYTE   En3  v120
 BYTE   W24
 BYTE   N03  En3  v092
 BYTE   W06
 BYTE   N04  En3  v112
 BYTE   W06
//  #05 //009   ----------------------------------------
 BYTE   En3  v116
 BYTE   W12
 BYTE   N04
 BYTE   W36
 BYTE   En3  v120
 BYTE   W12
 BYTE   En3  v116
 BYTE   W24
 BYTE   N03  En3  v104
 BYTE   W06
 BYTE   En3  v100
 BYTE   W06
//  #05 //010   ----------------------------------------
 BYTE   N04  En3  v112
 BYTE   W12
 BYTE   En3  v116
 BYTE   W24
 BYTE   N04
 BYTE   W12
 BYTE   Gn3  v096
 BYTE   W12
 BYTE   Gn3  v116
 BYTE   W24
 BYTE   Gn3  v104
 BYTE   W06
 BYTE   Gn3  v100
 BYTE   W06
//  #05 //011   ----------------------------------------
 BYTE   N05  Gn3  v104
 BYTE   W12
 BYTE   Gn3  v108
 BYTE   W24
 BYTE   N04  Gn3  v104
 BYTE   W12
 BYTE   Gn3  v116
 BYTE   W12
 BYTE   Gn3  v112
 BYTE   W24
 BYTE   N03  Gn3  v100
 BYTE   W06
 BYTE   Gn3  v088
 BYTE   W06
//  #05 //012   ----------------------------------------
 BYTE   N04  Gn3  v108
 BYTE   W12
 BYTE   N05  Gn3  v116
 BYTE   W24
 BYTE   N04  Gn3  v104
 BYTE   W12
 BYTE   Gn3  v112
 BYTE   W12
 BYTE   Gn3  v108
 BYTE   W24
 BYTE   N03  Gn3  v096
 BYTE   W06
 BYTE   Gn3  v100
 BYTE   W06
//  #05 //013   ----------------------------------------
 BYTE   N04  Gn3  v104
 BYTE   W12
 BYTE   N05  Gn3  v116
 BYTE   W36
 BYTE   N04  Gn3  v108
 BYTE   W12
 BYTE   N04
 BYTE   W24
 BYTE   N03  Gn3  v100
 BYTE   W06
 BYTE   N04
 BYTE   W06
//  #05 //014   ----------------------------------------
 BYTE   Gn3  v108
 BYTE   W12
 BYTE   N04
 BYTE   W24
 BYTE   N04
 BYTE   W12
 BYTE   En3  v112
 BYTE   W12
 BYTE   N05  En3  v116
 BYTE   W24
 BYTE   N04  En3  v108
 BYTE   W06
 BYTE   En3  v104
 BYTE   W06
//  #05 //015   ----------------------------------------
 BYTE   En3  v108
 BYTE   W12
 BYTE   N04
 BYTE   W24
 BYTE   En3  v120
 BYTE   W12
 BYTE   Dn3  v127
 BYTE   W12
 BYTE   Dn3  v124
 BYTE   W24
 BYTE   N04
 BYTE   W06
 BYTE   N03  Dn3  v112
 BYTE   W06
//  #05 //016   ----------------------------------------
 BYTE   N05  Cn3
 BYTE   W12
 BYTE   N05
 BYTE   W24
 BYTE   N04  Cn3  v116
 BYTE   W12
 BYTE   En3
 BYTE   W12
 BYTE   N04
 BYTE   W24
 BYTE   En3  v108
 BYTE   W06
 BYTE   N03  En3  v104
 BYTE   W06
//  #05 //017   ----------------------------------------
 BYTE   N05  En3  v112
 BYTE   W12
 BYTE   En3  v116
 BYTE   W24
 BYTE   N04  En3  v108
 BYTE   W12
 BYTE   En3  v112
 BYTE   W12
 BYTE   En3  v116
 BYTE   W24
 BYTE   N03  En3  v108
 BYTE   W06
 BYTE   N04
 BYTE   W06
//  #05 //018   ----------------------------------------
 BYTE   N04
 BYTE   W12
 BYTE   En3  v112
 BYTE   W24
 BYTE   En3  v116
 BYTE   W12
 BYTE   GoTo
  POIN2 Label_010360FE
 BYTE   FINE

//**************** Track 6 (Midi-Chn.5) ****************//

FE06IIIInvisibleEnemyAlice_006:
//  #06 //000   ----------------------------------------
 BYTE   KEYSH   FE06IIIInvisibleEnemyAlice_key+0
 BYTE   W24
 BYTE   VOICE   58
 BYTE   VOL   75*FE06IIIInvisibleEnemyAlice_mvl/mxv
 BYTE   PAN   c_v+0
 BYTE   N23  Gn2  v100
 BYTE   W24
Label_01030955:
 BYTE   N11  An2  v100
 BYTE   W24
 BYTE   Gn2
 BYTE   W12
 BYTE   An2  v032
 BYTE   W12
//  #06 //001   ----------------------------------------
 BYTE   An2  v100
 BYTE   W12
 BYTE   Gn2  v032
 BYTE   W12
 BYTE   Gn2  v100
 BYTE   W12
 BYTE   An2  v032
 BYTE   W12
 BYTE   PEND 
Label_0103096B:
 BYTE   N11  An2  v100
 BYTE   W12
 BYTE   Gn2  v032
 BYTE   W12
 BYTE   Gn2  v100
 BYTE   W12
 BYTE   An2  v032
 BYTE   W12
//  #06 //002   ----------------------------------------
 BYTE   An2  v100
 BYTE   W12
 BYTE   Gn2  v032
 BYTE   W12
 BYTE   Gn2  v100
 BYTE   W12
 BYTE   An2  v032
 BYTE   W12
 BYTE   PEND 
//  #06 //003   ----------------------------------------
 BYTE   PATT
  POIN2 Label_0103096B
//  #06 //004   ----------------------------------------
 BYTE   PATT
  POIN2 Label_0103096B
//  #06 //005   ----------------------------------------
 BYTE   N11  As2  v100
 BYTE   W12
 BYTE   Gn2  v032
 BYTE   W12
 BYTE   An2  v100
 BYTE   W12
 BYTE   As2  v032
 BYTE   W12
 BYTE   As2  v100
 BYTE   W12
 BYTE   An2  v032
 BYTE   W12
 BYTE   Cn3  v100
 BYTE   W12
 BYTE   As2  v032
 BYTE   W12
//  #06 //006   ----------------------------------------
 BYTE   Cn3  v100
 BYTE   W12
 BYTE   Cn3  v032
 BYTE   W12
 BYTE   As2  v088
 BYTE   W12
 BYTE   Cn3  v032
 BYTE   W12
 BYTE   Cn3  v100
 BYTE   W12
 BYTE   As2  v016
 BYTE   W12
 BYTE   As2  v088
 BYTE   W12
 BYTE   Cn3  v032
 BYTE   W12
//  #06 //007   ----------------------------------------
 BYTE   An2  v100
 BYTE   W12
 BYTE   As2  v020
 BYTE   W12
 BYTE   Gn2  v100
 BYTE   W12
 BYTE   An2  v032
 BYTE   W12
 BYTE   An2  v100
 BYTE   W12
 BYTE   Gn2  v032
 BYTE   W12
 BYTE   Gn2  v100
 BYTE   W12
 BYTE   An2  v032
 BYTE   W12
//  #06 //008   ----------------------------------------
 BYTE   PATT
  POIN2 Label_0103096B
//  #06 //009   ----------------------------------------
 BYTE   PATT
  POIN2 Label_0103096B
//  #06 //010   ----------------------------------------
 BYTE   PATT
  POIN2 Label_0103096B
//  #06 //011   ----------------------------------------
 BYTE   N11  Cn3  v100
 BYTE   W12
 BYTE   Gn2  v032
 BYTE   W12
 BYTE   Dn3  v100
 BYTE   W12
 BYTE   Cn3  v032
 BYTE   W12
 BYTE   Cn3  v100
 BYTE   W12
 BYTE   Dn3  v032
 BYTE   W12
 BYTE   As2  v088
 BYTE   W12
 BYTE   Cn3  v032
 BYTE   W12
//  #06 //012   ----------------------------------------
 BYTE   Cn3  v100
 BYTE   W12
 BYTE   As2  v020
 BYTE   W12
 BYTE   As2  v100
 BYTE   W12
 BYTE   Cn3  v032
 BYTE   W12
 BYTE   Cn3  v100
 BYTE   W12
 BYTE   As2  v032
 BYTE   W12
 BYTE   As2  v100
 BYTE   W12
 BYTE   Cn3  v032
 BYTE   W12
//  #06 //013   ----------------------------------------
Label_01030A18:
 BYTE   N11  Cn3  v100
 BYTE   W12
 BYTE   As2  v032
 BYTE   W12
 BYTE   As2  v100
 BYTE   W12
 BYTE   Cn3  v032
 BYTE   W12
 BYTE   Cn3  v100
 BYTE   W12
 BYTE   As2  v032
 BYTE   W12
 BYTE   As2  v100
 BYTE   W12
 BYTE   Cn3  v032
 BYTE   W12
 BYTE   PEND 
//  #06 //014   ----------------------------------------
 BYTE   PATT
  POIN2 Label_01030A18
//  #06 //015   ----------------------------------------
 BYTE   N11  An2  v100
 BYTE   W12
 BYTE   As2  v032
 BYTE   W12
 BYTE   Gn2  v100
 BYTE   W12
 BYTE   An2  v032
 BYTE   W12
 BYTE   An2  v100
 BYTE   W12
 BYTE   Gn2  v032
 BYTE   W12
 BYTE   Gn2  v100
 BYTE   W12
 BYTE   An2  v032
 BYTE   W12
//  #06 //016   ----------------------------------------
 BYTE   N36  Fn2  v112
 BYTE   W12
 BYTE   N11  Gn2  v032
 BYTE   W24
 BYTE   N36  Fn2  v040
 BYTE   W12
 BYTE   N32  En2  v112
 BYTE   W36
 BYTE   En2  v040
 BYTE   W12
//  #06 //017   ----------------------------------------
 BYTE   PATT
  POIN2 Label_01030955
//  #06 //018   ----------------------------------------
 BYTE   PATT
  POIN2 Label_0103096B
//  #06 //019   ----------------------------------------
 BYTE   GoTo
  POIN2 Label_01030955
//  #06 //020   ----------------------------------------
 BYTE   W12
 BYTE   N11  Gn2  v032
 BYTE   W11
 BYTE   FINE

//**************** Track 7 (Midi-Chn.6) ****************//

FE06IIIInvisibleEnemyAlice_007:
//  #07 //000   ----------------------------------------
 BYTE   KEYSH   FE06IIIInvisibleEnemyAlice_key+0
 BYTE   VOICE   127
 BYTE   VOL   78*FE06IIIInvisibleEnemyAlice_mvl/mxv
 BYTE   PAN   c_v+0
 BYTE   N11  Dn1  v100
 BYTE   W12
 BYTE   N23  Dn1  v112
 BYTE   W24
 BYTE   N05  Dn1  v100
 BYTE   W06
 BYTE   Dn1  v096
 BYTE   W06
Label_01021C83:
 BYTE   N40  An2  v100
 BYTE   W84
//  #07 //001   ----------------------------------------
 BYTE   N05  Dn1  v104
 BYTE   W06
 BYTE   Dn1  v080
 BYTE   W06
 BYTE   N11  Dn1  v096
 BYTE   W12
 BYTE   N48  Dn1  v104
 BYTE   W84
//  #07 //002   ----------------------------------------
 BYTE   An2  v092
 BYTE   W84
 BYTE   N05  Dn1  v100
 BYTE   W06
 BYTE   Dn1  v096
 BYTE   W06
//  #07 //003   ----------------------------------------
 BYTE   N11  Dn1  v100
 BYTE   W12
 BYTE   N48  Dn1  v112
 BYTE   W84
//  #07 //004   ----------------------------------------
 BYTE   An2  v092
 BYTE   W84
 BYTE   N05  Dn1
 BYTE   W06
 BYTE   Dn1  v084
 BYTE   W06
//  #07 //005   ----------------------------------------
 BYTE   N11  Dn1  v100
 BYTE   W12
 BYTE   N48  Dn1  v108
 BYTE   W84
//  #07 //006   ----------------------------------------
 BYTE   Dn1  v112
 BYTE   W84
 BYTE   N05  Dn1  v072
 BYTE   W06
 BYTE   Dn1  v100
 BYTE   W06
//  #07 //007   ----------------------------------------
Label_01021CC3:
 BYTE   N11  Dn1  v108
 BYTE   W12
 BYTE   N48  Dn1  v116
 BYTE   W84
 BYTE   PEND 
//  #07 //008   ----------------------------------------
 BYTE   An2  v088
 BYTE   W84
 BYTE   N05  Dn1  v092
 BYTE   W06
 BYTE   N05
 BYTE   W06
//  #07 //009   ----------------------------------------
 BYTE   N11  Dn1  v100
 BYTE   W12
 BYTE   N48  Dn1  v108
 BYTE   W72
 BYTE   N11  An2  v092
 BYTE   W12
//  #07 //010   ----------------------------------------
 BYTE   N48  An2  v112
 BYTE   W84
 BYTE   N05  Dn1  v092
 BYTE   W06
 BYTE   Dn1  v096
 BYTE   W06
//  #07 //011   ----------------------------------------
 BYTE   PATT
  POIN2 Label_01021CC3
//  #07 //012   ----------------------------------------
 BYTE   N48  An2  v096
 BYTE   W84
 BYTE   N05  Dn1
 BYTE   W06
 BYTE   N05
 BYTE   W06
//  #07 //013   ----------------------------------------
 BYTE   N11  Dn1  v104
 BYTE   W12
 BYTE   N48  Dn1  v108
 BYTE   W72
 BYTE   N05  Dn1  v088
 BYTE   W06
 BYTE   N05
 BYTE   W06
//  #07 //014   ----------------------------------------
 BYTE   N11  Dn1  v100
 BYTE   W12
 BYTE   N48  Dn1  v104
 BYTE   W72
 BYTE   N11
 BYTE   W12
//  #07 //015   ----------------------------------------
 BYTE   N48  Dn1  v116
 BYTE   W84
 BYTE   N11  Dn1  v112
 BYTE   W12
//  #07 //016   ----------------------------------------
 BYTE   N48  Dn1  v116
 BYTE   W84
 BYTE   N11  Dn1  v104
 BYTE   W12
//  #07 //017   ----------------------------------------
 BYTE   N48  Dn1  v108
 BYTE   W72
 BYTE   N23  An2  v088
 BYTE   W24
//  #07 //018   ----------------------------------------
 BYTE   GoTo
  POIN2 Label_01021C83
 BYTE   FINE

//******************************************************//
	ALIGN 4

FE06IIIInvisibleEnemyAlice:
	BYTE	7	// NumTrks
	BYTE	0	// NumBlks
	BYTE	FE06IIIInvisibleEnemyAlice_pri	// Priority
	BYTE	FE06IIIInvisibleEnemyAlice_rev	// Reverb.
    
	POIN2	FE06IIIInvisibleEnemyAlice_grp
    
	POIN2	FE06IIIInvisibleEnemyAlice_001
	POIN2	FE06IIIInvisibleEnemyAlice_002
	POIN2	FE06IIIInvisibleEnemyAlice_003
	POIN2	FE06IIIInvisibleEnemyAlice_004
	POIN2	FE06IIIInvisibleEnemyAlice_005
	POIN2	FE06IIIInvisibleEnemyAlice_006
	POIN2	FE06IIIInvisibleEnemyAlice_007

	
