//Event file generated from Sappy .s format.
	#include "MPlayDef.event"

	#define	FE06OneWillPsyche_grp  voicegroup000
	#define	FE06OneWillPsyche_pri  10
	#define	FE06OneWillPsyche_rev  158
	#define	FE06OneWillPsyche_mvl  127
	#define	FE06OneWillPsyche_key  0
	#define	FE06OneWillPsyche_tbs  1
	#define	FE06OneWillPsyche_exg  0
	#define	FE06OneWillPsyche_cmp  1

	// .rodata
	//	FE06OneWillPsyche
	ALIGN 4


//**************** Track 1 (Midi-Chn.0) ****************//

FE06OneWillPsyche_001:
// 000   ----------------------------------------
 BYTE   KEYSH   FE06OneWillPsyche_key+0
 BYTE   TEMPO   120*FE06OneWillPsyche_tbs/2
 BYTE   W24
Label_0_0102BA81:
 BYTE   VOICE   57
 BYTE   VOL   80*FE06OneWillPsyche_mvl/mxv
 BYTE   PAN   c_v+9
 BYTE   N28  Fn2  v104
 BYTE   N28  As2  v100
 BYTE   W36
 BYTE   N11  Gs2  v088
 BYTE   N11  Cn3  v100
 BYTE   W12
 BYTE   N48  As2  v092
 BYTE   N48  Cs3  v084
 BYTE   W48
// 001   ----------------------------------------
 BYTE   W24
 BYTE   N10  Gs2  v076
 BYTE   N11  Cn3  v108
 BYTE   W12
 BYTE   As2  v092
 BYTE   N11  Cs3  v084
 BYTE   W12
 BYTE   N19  Cn3  v104
 BYTE   N23  Ds3  v080
 BYTE   W24
 BYTE   Gs2
 BYTE   N21  Cn3  v112
 BYTE   W24
// 002   ----------------------------------------
 BYTE   N92  Cn3  v108
 BYTE   N92  Fn3  v104
 BYTE   W96
// 003   ----------------------------------------
 BYTE   VOICE   57
 BYTE   VOL   59*FE06OneWillPsyche_mvl/mxv
 BYTE   PAN   c_v+4
 BYTE   N05  As2  v072
 BYTE   W06
 BYTE   N04  Cn3  v088
 BYTE   W06
 BYTE   N05  As2  v068
 BYTE   W06
 BYTE   Cn3  v084
 BYTE   W06
 BYTE   N68  Cs3  v080
 BYTE   W72
// 004   ----------------------------------------
 BYTE   VOICE   57
 BYTE   VOL   80*FE06OneWillPsyche_mvl/mxv
 BYTE   PAN   c_v+9
 BYTE   N32  Fn2  v088
 BYTE   N32  As2  v092
 BYTE   W36
 BYTE   N11  Gs2  v080
 BYTE   N10  Cn3  v100
 BYTE   W12
 BYTE   N48  As2  v088
 BYTE   N48  Cs3  v084
 BYTE   W48
// 005   ----------------------------------------
 BYTE   W24
 BYTE   N11  Gs2  v080
 BYTE   N10  Cn3  v108
 BYTE   W12
 BYTE   N11  As2  v084
 BYTE   N11  Cs3
 BYTE   W12
 BYTE   N21  Cn3  v072
 BYTE   N21  Ds3  v092
 BYTE   W24
 BYTE   N23  Cs3  v060
 BYTE   N23  Fn3  v096
 BYTE   W24
// 006   ----------------------------------------
 BYTE   N44  As2  v084
 BYTE   N44  Cs3  v056
 BYTE   W48
 BYTE   VOICE   57
 BYTE   VOL   59*FE06OneWillPsyche_mvl/mxv
 BYTE   PAN   c_v+4
 BYTE   N44  As3  v096
 BYTE   W48
// 007   ----------------------------------------
 BYTE   Gs3  v088
 BYTE   W48
 BYTE   N36  Fs3  v084
 BYTE   W48
// 008   ----------------------------------------
 BYTE   N32  Fn3  v108
 BYTE   W36
 BYTE   N05  Ds3  v092
 BYTE   W06
 BYTE   Dn3  v104
 BYTE   W06
 BYTE   N60  As2  v084
 BYTE   W48
// 009   ----------------------------------------
 BYTE   W24
 BYTE   N09  As2  v104
 BYTE   W12
 BYTE   N11  Cn3
 BYTE   W12
 BYTE   N23  Cs3  v096
 BYTE   W24
 BYTE   N22  Ds3  v084
 BYTE   W24
// 010   ----------------------------------------
 BYTE   N44  Fn3  v104
 BYTE   W48
 BYTE   As3
 BYTE   W48
// 011   ----------------------------------------
 BYTE   N88  Fn3  v092
 BYTE   W96
// 012   ----------------------------------------
 BYTE   VOICE   57
 BYTE   VOL   80*FE06OneWillPsyche_mvl/mxv
 BYTE   PAN   c_v+9
 BYTE   N32  Fn3  v108
 BYTE   W36
 BYTE   N05  Ds3  v080
 BYTE   W06
 BYTE   Cs3  v084
 BYTE   W06
 BYTE   N68  As2
 BYTE   W48
// 013   ----------------------------------------
 BYTE   W24
 BYTE   N11  As2  v088
 BYTE   W12
 BYTE   Cn3  v096
 BYTE   W12
 BYTE   N23  Cs3
 BYTE   W24
 BYTE   Ds3  v088
 BYTE   W24
// 014   ----------------------------------------
 BYTE   N44  Fn3  v096
 BYTE   W48
 BYTE   As3  v104
 BYTE   W48
// 015   ----------------------------------------
 BYTE   As3  v100
 BYTE   W48
 BYTE   An3  v096
 BYTE   W24
 BYTE   VOICE   57
 BYTE   VOL   80*FE06OneWillPsyche_mvl/mxv
 BYTE   PAN   c_v+9
 BYTE   W24
// 016   ----------------------------------------
 BYTE   N44  As3  v076
 BYTE   W48
 BYTE   N92  Gs3  v088
 BYTE   W48
// 017   ----------------------------------------
 BYTE   W48
 BYTE   N21  Fn3  v100
 BYTE   W24
 BYTE   N20  Fs3
 BYTE   W24
// 018   ----------------------------------------
 BYTE   N44  Gs3
 BYTE   W48
 BYTE   Fs3
 BYTE   W48
// 019   ----------------------------------------
 BYTE   N80  Fn3
 BYTE   W96
// 020   ----------------------------------------
 BYTE   N44  Cn3  v092
 BYTE   W48
 BYTE   N68  Ds3  v080
 BYTE   W48
// 021   ----------------------------------------
 BYTE   W24
 BYTE   N22  Cs3
 BYTE   W24
 BYTE   N23  Ds3
 BYTE   W24
 BYTE   N21  Fn3  v100
 BYTE   W24
// 022   ----------------------------------------
 BYTE   N44  Cn3  v108
 BYTE   W48
 BYTE   N68  Ds3  v084
 BYTE   W48
// 023   ----------------------------------------
 BYTE   W24
 BYTE   N22  Cs3  v092
 BYTE   W24
 BYTE   N23  Gs3  v096
 BYTE   W24
 BYTE   Fs3  v100
 BYTE   W24
// 024   ----------------------------------------
 BYTE   N92  Fn3  v104
 BYTE   W96
// 025   ----------------------------------------
 BYTE   W96
// 026   ----------------------------------------
 BYTE   GoTo
  POIN2 Label_0_0102BA81
 BYTE   FINE

//**************** Track 2 (Midi-Chn.1) ****************//

FE06OneWillPsyche_002:
// 000   ----------------------------------------
 BYTE   KEYSH   FE06OneWillPsyche_key+0
 BYTE   W24
Label_1_0102BBD3:
 BYTE   VOICE   61
 BYTE   MOD 0
 BYTE   VOL   35*FE06OneWillPsyche_mvl/mxv
 BYTE   PAN   c_v+1
 BYTE   BEND   c_v-3
 BYTE   TIE  As2  v072
 BYTE   W96
// 001   ----------------------------------------
 BYTE   W23
 BYTE   EOT
 BYTE   W01
 BYTE   N23  Cn3
 BYTE   W24
 BYTE   Cs3
 BYTE   W24
 BYTE   Ds3
 BYTE   W24
// 002   ----------------------------------------
Label_1_0102BBEB:
 BYTE   N44  Fn3  v072
 BYTE   W48
 BYTE   As3  v068
 BYTE   W48
 BYTE   PEND 
// 003   ----------------------------------------
Label_1_0102BBF3:
 BYTE   N44  Ds4  v068
 BYTE   W48
 BYTE   Cn4
 BYTE   W48
 BYTE   PEND 
// 004   ----------------------------------------
 BYTE   TIE  As2  v072
 BYTE   W96
// 005   ----------------------------------------
 BYTE   W23
 BYTE   EOT
 BYTE   W01
 BYTE   N23  Cn3
 BYTE   W24
 BYTE   Cs3
 BYTE   W24
 BYTE   Ds3
 BYTE   W24
// 006   ----------------------------------------
 BYTE   PATT
  POIN2 Label_1_0102BBEB
// 007   ----------------------------------------
 BYTE   PATT
  POIN2 Label_1_0102BBF3
// 008   ----------------------------------------
 BYTE   N92  As3  v068
 BYTE   W96
// 009   ----------------------------------------
 BYTE   N32  Ds4
 BYTE   W36
 BYTE   N05  Cs4
 BYTE   W06
 BYTE   Cn4
 BYTE   W06
 BYTE   N23  As3
 BYTE   W24
 BYTE   Gs3
 BYTE   W24
// 010   ----------------------------------------
 BYTE   N92  As3
 BYTE   W96
// 011   ----------------------------------------
 BYTE   PATT
  POIN2 Label_1_0102BBF3
// 012   ----------------------------------------
 BYTE   N92  As3  v068
 BYTE   W96
// 013   ----------------------------------------
 BYTE   N44  Gs3
 BYTE   W48
 BYTE   As3
 BYTE   W48
// 014   ----------------------------------------
 BYTE   Fn3  v072
 BYTE   W48
 BYTE   Ds3
 BYTE   W48
// 015   ----------------------------------------
 BYTE   Cs3
 BYTE   W48
 BYTE   Cn3
 BYTE   W48
// 016   ----------------------------------------
 BYTE   VOICE   61
 BYTE   VOL   80*FE06OneWillPsyche_mvl/mxv
 BYTE   PAN   c_v+4
 BYTE   N44  Cs3  v088
 BYTE   W48
 BYTE   N88  Cn3  v092
 BYTE   W48
// 017   ----------------------------------------
 BYTE   W48
 BYTE   N20  As2  v060
 BYTE   W24
 BYTE   N22  Cn3
 BYTE   W24
// 018   ----------------------------------------
 BYTE   N44  Cs3  v052
 BYTE   W48
 BYTE   Cn3  v084
 BYTE   W48
// 019   ----------------------------------------
 BYTE   N76  As2  v076
 BYTE   W96
// 020   ----------------------------------------
 BYTE   N44  Fn2  v068
 BYTE   W48
 BYTE   N68  Gs2  v088
 BYTE   W48
// 021   ----------------------------------------
 BYTE   W24
 BYTE   N22  Fs2  v080
 BYTE   W24
 BYTE   N23  Gs2  v092
 BYTE   W24
 BYTE   N21  As2  v076
 BYTE   W24
// 022   ----------------------------------------
 BYTE   N44  Fn2
 BYTE   W48
 BYTE   N68  Gs2  v092
 BYTE   W48
// 023   ----------------------------------------
 BYTE   W24
 BYTE   N21  Fs2  v076
 BYTE   W24
 BYTE   N16  Cn3  v080
 BYTE   W24
 BYTE   N17  As2  v072
 BYTE   W24
// 024   ----------------------------------------
 BYTE   N92  Gs2  v084
 BYTE   W96
// 025   ----------------------------------------
 BYTE   W96
// 026   ----------------------------------------
 BYTE   GoTo
  POIN2 Label_1_0102BBD3
 BYTE   FINE

//**************** Track 3 (Midi-Chn.2) ****************//

FE06OneWillPsyche_003:
// 000   ----------------------------------------
 BYTE   KEYSH   FE06OneWillPsyche_key+0
 BYTE   W24
Label_2_0102BC97:
 BYTE   VOICE   68
 BYTE   MOD 2
 BYTE   VOL   80*FE06OneWillPsyche_mvl/mxv
 BYTE   PAN   c_v+1
 BYTE   TIE  As2  v076
 BYTE   W96
// 001   ----------------------------------------
 BYTE   W23
 BYTE   EOT
 BYTE   W01
 BYTE   N23  Cn3
 BYTE   W24
 BYTE   Cs3
 BYTE   W24
 BYTE   Ds3
 BYTE   W24
// 002   ----------------------------------------
Label_2_0102BCAD:
 BYTE   N44  Fn3  v076
 BYTE   W48
 BYTE   As3  v072
 BYTE   W48
 BYTE   PEND 
// 003   ----------------------------------------
Label_2_0102BCB5:
 BYTE   N44  Ds4  v064
 BYTE   W48
 BYTE   Cn4  v072
 BYTE   W48
 BYTE   PEND 
// 004   ----------------------------------------
 BYTE   TIE  As2  v076
 BYTE   W96
// 005   ----------------------------------------
 BYTE   W22
 BYTE   EOT
 BYTE   W02
 BYTE   N23  Cn3
 BYTE   W24
 BYTE   Cs3
 BYTE   W24
 BYTE   Ds3
 BYTE   W24
// 006   ----------------------------------------
 BYTE   PATT
  POIN2 Label_2_0102BCAD
// 007   ----------------------------------------
 BYTE   PATT
  POIN2 Label_2_0102BCB5
// 008   ----------------------------------------
 BYTE   N88  As3  v072
 BYTE   W96
// 009   ----------------------------------------
 BYTE   N32  Ds4
 BYTE   W36
 BYTE   N05  Cs4
 BYTE   W06
 BYTE   Cn4
 BYTE   W06
 BYTE   N23  As3
 BYTE   W24
 BYTE   Gs3
 BYTE   W24
// 010   ----------------------------------------
 BYTE   N92  As3
 BYTE   W96
// 011   ----------------------------------------
 BYTE   N44  Ds4
 BYTE   W48
 BYTE   Cn4
 BYTE   W48
// 012   ----------------------------------------
 BYTE   N92  As3
 BYTE   W96
// 013   ----------------------------------------
 BYTE   N44  Gs3
 BYTE   W48
 BYTE   As3
 BYTE   W48
// 014   ----------------------------------------
 BYTE   Fn3  v076
 BYTE   W48
 BYTE   Ds3
 BYTE   W48
// 015   ----------------------------------------
 BYTE   Cs3
 BYTE   W48
 BYTE   Cn3
 BYTE   W48
// 016   ----------------------------------------
 BYTE   W96
// 017   ----------------------------------------
 BYTE   W96
// 018   ----------------------------------------
 BYTE   W96
// 019   ----------------------------------------
 BYTE   W96
// 020   ----------------------------------------
 BYTE   W96
// 021   ----------------------------------------
 BYTE   W96
// 022   ----------------------------------------
 BYTE   W96
// 023   ----------------------------------------
 BYTE   W96
// 024   ----------------------------------------
 BYTE   W96
// 025   ----------------------------------------
 BYTE   W96
// 026   ----------------------------------------
 BYTE   GoTo
  POIN2 Label_2_0102BC97
 BYTE   FINE

//**************** Track 4 (Midi-Chn.3) ****************//

FE06OneWillPsyche_004:
// 000   ----------------------------------------
 BYTE   KEYSH   FE06OneWillPsyche_key+0
 BYTE   W24
Label_3_0102BD13:
 BYTE   VOICE   48
 BYTE   VOL   44*FE06OneWillPsyche_mvl/mxv
 BYTE   PAN   c_v-20
 BYTE   TIE  As1  v108
 BYTE   W96
// 001   ----------------------------------------
 BYTE   W96
// 002   ----------------------------------------
 BYTE   W36
 BYTE   W02
 BYTE   EOT
 BYTE   W10
 BYTE   N44  As1  v120
 BYTE   W48
// 003   ----------------------------------------
 BYTE   Fn2
 BYTE   W48
 BYTE   As2  v108
 BYTE   W48
// 004   ----------------------------------------
 BYTE   TIE  As1  v112
 BYTE   W96
// 005   ----------------------------------------
 BYTE   W96
// 006   ----------------------------------------
 BYTE   W16
 BYTE   EOT
 BYTE   W08
 BYTE   N23  As1  v120
 BYTE   W24
 BYTE   Fn2
 BYTE   W24
 BYTE   As2  v100
 BYTE   W24
// 007   ----------------------------------------
 BYTE   N44  Cs3  v108
 BYTE   W48
 BYTE   As2  v104
 BYTE   W48
// 008   ----------------------------------------
 BYTE   TIE  Gs2  v100
 BYTE   W96
// 009   ----------------------------------------
 BYTE   W92
 BYTE   W03
 BYTE   EOT
 BYTE   W01
// 010   ----------------------------------------
 BYTE   TIE  Fs2  v112
 BYTE   W96
// 011   ----------------------------------------
 BYTE   W92
 BYTE   W03
 BYTE   EOT
 BYTE   W01
// 012   ----------------------------------------
 BYTE   TIE  Gs2  v104
 BYTE   W96
// 013   ----------------------------------------
 BYTE   W88
 BYTE   W01
 BYTE   EOT
 BYTE   W07
// 014   ----------------------------------------
 BYTE   TIE  Fs2  v100
 BYTE   W96
// 015   ----------------------------------------
 BYTE   W44
 BYTE   W03
 BYTE   EOT
 BYTE   W01
 BYTE   N44  Fn2
 BYTE   W48
// 016   ----------------------------------------
 BYTE   W96
// 017   ----------------------------------------
 BYTE   W96
// 018   ----------------------------------------
 BYTE   W96
// 019   ----------------------------------------
 BYTE   W96
// 020   ----------------------------------------
 BYTE   TIE  As1  v120
 BYTE   W96
// 021   ----------------------------------------
 BYTE   W96
// 022   ----------------------------------------
 BYTE   W96
// 023   ----------------------------------------
 BYTE   W96
// 024   ----------------------------------------
 BYTE   W92
 BYTE   W01
 BYTE   EOT
 BYTE   W03
// 025   ----------------------------------------
 BYTE   N92  Fn1  v100
 BYTE   W96
// 026   ----------------------------------------
 BYTE   GoTo
  POIN2 Label_3_0102BD13
 BYTE   FINE

//**************** Track 5 (Midi-Chn.4) ****************//

FE06OneWillPsyche_005:
// 000   ----------------------------------------
 BYTE   KEYSH   FE06OneWillPsyche_key+0
 BYTE   W24
Label_4_0102BD83:
 BYTE   VOICE   60
 BYTE   VOL   54*FE06OneWillPsyche_mvl/mxv
 BYTE   PAN   c_v-3
 BYTE   N08  Fn3  v100
 BYTE   W12
 BYTE   Fn3  v028
 BYTE   W24
 BYTE   Fn3  v104
 BYTE   W12
 BYTE   Fn3  v032
 BYTE   W12
 BYTE   N05  Fn3  v096
 BYTE   W06
 BYTE   Fn3  v024
 BYTE   W06
// 001   ----------------------------------------
 BYTE   N17  Fn3  v104
 BYTE   W18
 BYTE   N04  Fn3  v032
 BYTE   W06
Label_4_0102BDA5:
 BYTE   N08  Fn3  v100
 BYTE   W12
 BYTE   Fn3  v028
 BYTE   W24
 BYTE   Fn3  v104
 BYTE   W12
 BYTE   Fn3  v032
 BYTE   W12
 BYTE   N05  Fn3  v096
 BYTE   W06
 BYTE   Fn3  v024
 BYTE   W06
// 002   ----------------------------------------
 BYTE   N17  Fn3  v104
 BYTE   W18
 BYTE   N04  Fn3  v032
 BYTE   W06
 BYTE   PEND 
// 003   ----------------------------------------
 BYTE   PATT
  POIN2 Label_4_0102BDA5
// 004   ----------------------------------------
 BYTE   PATT
  POIN2 Label_4_0102BDA5
// 005   ----------------------------------------
 BYTE   PATT
  POIN2 Label_4_0102BDA5
// 006   ----------------------------------------
 BYTE   PATT
  POIN2 Label_4_0102BDA5
// 007   ----------------------------------------
 BYTE   PATT
  POIN2 Label_4_0102BDA5
// 008   ----------------------------------------
 BYTE   PATT
  POIN2 Label_4_0102BDA5
// 009   ----------------------------------------
Label_4_0102BDE0:
 BYTE   N08  Ds3  v100
 BYTE   W12
 BYTE   Ds3  v028
 BYTE   W24
 BYTE   Ds3  v104
 BYTE   W12
 BYTE   Ds3  v032
 BYTE   W12
 BYTE   N05  Ds3  v096
 BYTE   W06
 BYTE   Ds3  v024
 BYTE   W06
 BYTE   N17  Ds3  v104
 BYTE   W18
 BYTE   N04  Ds3  v032
 BYTE   W06
 BYTE   PEND 
// 010   ----------------------------------------
 BYTE   PATT
  POIN2 Label_4_0102BDE0
// 011   ----------------------------------------
Label_4_0102BE02:
 BYTE   N08  Cs3  v100
 BYTE   W12
 BYTE   Cs3  v028
 BYTE   W24
 BYTE   Cs3  v104
 BYTE   W12
 BYTE   Cs3  v032
 BYTE   W12
 BYTE   N05  Cs3  v096
 BYTE   W06
 BYTE   Cs3  v024
 BYTE   W06
 BYTE   N17  Cs3  v104
 BYTE   W18
 BYTE   N04  Cs3  v032
 BYTE   W06
 BYTE   PEND 
// 012   ----------------------------------------
 BYTE   PATT
  POIN2 Label_4_0102BE02
// 013   ----------------------------------------
 BYTE   PATT
  POIN2 Label_4_0102BDE0
// 014   ----------------------------------------
 BYTE   PATT
  POIN2 Label_4_0102BDE0
// 015   ----------------------------------------
 BYTE   PATT
  POIN2 Label_4_0102BE02
// 016   ----------------------------------------
 BYTE   N08  Cs3  v100
 BYTE   W12
 BYTE   Cs3  v028
 BYTE   W24
 BYTE   Cs3  v104
 BYTE   W12
 BYTE   Cs3  v032
 BYTE   W12
 BYTE   N05  Cn3  v096
 BYTE   W06
 BYTE   Cn3  v024
 BYTE   W06
 BYTE   N17  Cn3  v104
 BYTE   W18
 BYTE   N04  Cn3  v032
 BYTE   W06
// 017   ----------------------------------------
 BYTE   PATT
  POIN2 Label_4_0102BDA5
// 018   ----------------------------------------
 BYTE   PATT
  POIN2 Label_4_0102BDA5
// 019   ----------------------------------------
 BYTE   PATT
  POIN2 Label_4_0102BDA5
// 020   ----------------------------------------
 BYTE   PATT
  POIN2 Label_4_0102BDA5
// 021   ----------------------------------------
Label_4_0102BE63:
 BYTE   N08  Cn3  v100
 BYTE   W12
 BYTE   Cn3  v028
 BYTE   W24
 BYTE   Cn3  v104
 BYTE   W12
 BYTE   Cn3  v032
 BYTE   W12
 BYTE   N05  Cn3  v096
 BYTE   W06
 BYTE   Cn3  v024
 BYTE   W06
 BYTE   N17  Cn3  v104
 BYTE   W18
 BYTE   N04  Cn3  v032
 BYTE   W06
 BYTE   PEND 
// 022   ----------------------------------------
 BYTE   PATT
  POIN2 Label_4_0102BE63
// 023   ----------------------------------------
 BYTE   PATT
  POIN2 Label_4_0102BE63
// 024   ----------------------------------------
 BYTE   PATT
  POIN2 Label_4_0102BE63
// 025   ----------------------------------------
 BYTE   PATT
  POIN2 Label_4_0102BE63
// 026   ----------------------------------------
 BYTE   PATT
  POIN2 Label_4_0102BE63
// 027   ----------------------------------------
 BYTE   GoTo
  POIN2 Label_4_0102BD83
 BYTE   FINE

//**************** Track 6 (Midi-Chn.5) ****************//

FE06OneWillPsyche_006:
// 000   ----------------------------------------
 BYTE   KEYSH   FE06OneWillPsyche_key+0
 BYTE   VOICE   122
 BYTE   VOL   80*FE06OneWillPsyche_mvl/mxv
 BYTE   PAN   c_v-4
 BYTE   W24
Label_5_0102BEA9:
 BYTE   N11  Dn1  v120
 BYTE   W12
 BYTE   Dn1  v076
 BYTE   W12
 BYTE   Dn1  v072
 BYTE   W12
 BYTE   Dn1  v120
 BYTE   W12
 BYTE   Dn1  v056
 BYTE   W12
 BYTE   Dn1  v060
 BYTE   W12
// 001   ----------------------------------------
 BYTE   Dn1  v120
 BYTE   W12
 BYTE   Dn1  v076
 BYTE   W12
 BYTE   PEND 
 BYTE   Dn1  v120
 BYTE   W12
 BYTE   Dn1  v076
 BYTE   W12
 BYTE   Dn1  v072
 BYTE   W12
 BYTE   Dn1  v120
 BYTE   W12
 BYTE   Dn1  v084
 BYTE   W12
 BYTE   Dn1  v076
 BYTE   W12
// 002   ----------------------------------------
 BYTE   Dn1  v124
 BYTE   W12
 BYTE   Dn1  v052
 BYTE   W12
// 003   ----------------------------------------
 BYTE   PATT
  POIN2 Label_5_0102BEA9
// 004   ----------------------------------------
 BYTE   PATT
  POIN2 Label_5_0102BEA9
// 005   ----------------------------------------
 BYTE   PATT
  POIN2 Label_5_0102BEA9
// 006   ----------------------------------------
 BYTE   PATT
  POIN2 Label_5_0102BEA9
// 007   ----------------------------------------
 BYTE   PATT
  POIN2 Label_5_0102BEA9
// 008   ----------------------------------------
 BYTE   PATT
  POIN2 Label_5_0102BEA9
// 009   ----------------------------------------
 BYTE   N17  Dn1  v080
 BYTE   W18
 BYTE   N05  Dn1  v048
 BYTE   W06
 BYTE   N11  Dn1  v068
 BYTE   W12
 BYTE   Dn1  v096
 BYTE   W12
 BYTE   Dn1  v048
 BYTE   W12
 BYTE   Dn1  v072
 BYTE   W12
 BYTE   Dn1  v088
 BYTE   W12
 BYTE   Dn1  v056
 BYTE   W12
// 010   ----------------------------------------
 BYTE   Dn1  v088
 BYTE   W12
 BYTE   Dn1  v040
 BYTE   W12
 BYTE   Dn1  v072
 BYTE   W12
 BYTE   N23  Dn1  v096
 BYTE   W24
 BYTE   N11  Dn1  v072
 BYTE   W12
 BYTE   N11
 BYTE   W12
 BYTE   Dn1  v052
 BYTE   W12
// 011   ----------------------------------------
 BYTE   Dn1  v044
 BYTE   W12
 BYTE   N22  Dn1  v060
 BYTE   W24
 BYTE   N11  Dn1  v092
 BYTE   W12
 BYTE   Dn1  v060
 BYTE   W12
 BYTE   Dn1  v084
 BYTE   W12
 BYTE   N11
 BYTE   W12
 BYTE   Dn1  v068
 BYTE   W12
// 012   ----------------------------------------
 BYTE   N23
 BYTE   W24
 BYTE   N24  Dn1  v056
 BYTE   W36
 BYTE   N11  Dn1  v044
 BYTE   W12
 BYTE   Dn1  v068
 BYTE   W12
 BYTE   Dn1  v064
 BYTE   W12
// 013   ----------------------------------------
 BYTE   Dn1  v104
 BYTE   W12
 BYTE   Dn1  v036
 BYTE   W12
 BYTE   Dn1  v060
 BYTE   W12
 BYTE   Dn1  v088
 BYTE   W12
 BYTE   Dn1  v064
 BYTE   W12
 BYTE   Dn1  v060
 BYTE   W12
 BYTE   N22  Dn1  v112
 BYTE   W24
// 014   ----------------------------------------
 BYTE   N11  Dn1  v108
 BYTE   W12
 BYTE   Dn1  v076
 BYTE   W12
 BYTE   Dn1  v064
 BYTE   W12
 BYTE   Dn1  v088
 BYTE   W12
 BYTE   N20  Dn1  v044
 BYTE   W24
 BYTE   N11  Dn1  v096
 BYTE   W12
 BYTE   Dn1  v052
 BYTE   W12
// 015   ----------------------------------------
 BYTE   Dn1  v088
 BYTE   W12
 BYTE   Dn1  v052
 BYTE   W12
 BYTE   Dn1  v060
 BYTE   W12
 BYTE   Dn1  v056
 BYTE   W12
 BYTE   Dn1  v060
 BYTE   W12
 BYTE   Dn1  v080
 BYTE   W12
 BYTE   Dn1  v084
 BYTE   W12
 BYTE   N11
 BYTE   W12
// 016   ----------------------------------------
 BYTE   N23  Dn1  v100
 BYTE   W24
 BYTE   N11  Dn1  v060
 BYTE   W12
 BYTE   Dn1  v112
 BYTE   W12
 BYTE   N23  Dn1  v072
 BYTE   W24
 BYTE   N11  Dn1  v104
 BYTE   W12
 BYTE   Dn1  v060
 BYTE   W12
// 017   ----------------------------------------
 BYTE   PATT
  POIN2 Label_5_0102BEA9
// 018   ----------------------------------------
 BYTE   PATT
  POIN2 Label_5_0102BEA9
// 019   ----------------------------------------
 BYTE   PATT
  POIN2 Label_5_0102BEA9
// 020   ----------------------------------------
 BYTE   PATT
  POIN2 Label_5_0102BEA9
// 021   ----------------------------------------
 BYTE   N22  Dn1  v116
 BYTE   W24
 BYTE   N11  Dn1  v060
 BYTE   W12
 BYTE   N22  Dn1  v116
 BYTE   W24
 BYTE   N11  Dn1  v084
 BYTE   W12
 BYTE   Dn1  v112
 BYTE   W12
 BYTE   Dn1  v084
 BYTE   W12
// 022   ----------------------------------------
 BYTE   Dn1  v112
 BYTE   W12
 BYTE   Dn1  v044
 BYTE   W12
 BYTE   Dn1  v076
 BYTE   W12
 BYTE   N22  Dn1  v112
 BYTE   W24
 BYTE   N11  Dn1  v080
 BYTE   W12
 BYTE   Dn1  v116
 BYTE   W12
 BYTE   Dn1  v056
 BYTE   W12
// 023   ----------------------------------------
 BYTE   PATT
  POIN2 Label_5_0102BEA9
// 024   ----------------------------------------
 BYTE   PATT
  POIN2 Label_5_0102BEA9
// 025   ----------------------------------------
 BYTE   N22  Dn1  v112
 BYTE   W24
 BYTE   N11  Dn1  v084
 BYTE   W12
 BYTE   Dn1  v112
 BYTE   W12
 BYTE   Dn1  v072
 BYTE   W12
 BYTE   Dn1  v080
 BYTE   W12
 BYTE   Dn1  v116
 BYTE   W12
 BYTE   Dn1  v084
 BYTE   W12
// 026   ----------------------------------------
 BYTE   PATT
  POIN2 Label_5_0102BEA9
// 027   ----------------------------------------
 BYTE   GoTo
  POIN2 Label_5_0102BEA9
 BYTE   FINE

//**************** Track 7 (Midi-Chn.6) ****************//

FE06OneWillPsyche_007:
// 000   ----------------------------------------
 BYTE   KEYSH   FE06OneWillPsyche_key+0
 BYTE   VOICE   47
 BYTE   VOL   80*FE06OneWillPsyche_mvl/mxv
 BYTE   PAN   c_v-4
 BYTE   W12
 BYTE   N11  Fn1  v116
 BYTE   W12
Label_6_0102C025:
 BYTE   N36  Gn1  v127
 BYTE   W72
// 001   ----------------------------------------
 BYTE   N11  Gn1  v124
 BYTE   W12
 BYTE   Fn1
 BYTE   W12
 BYTE   N42  Gn1  v127
 BYTE   W84
// 002   ----------------------------------------
 BYTE   N11  Fn1  v120
 BYTE   W12
 BYTE   N32  Gn1  v124
 BYTE   W36
 BYTE   N40  Gn1  v120
 BYTE   W48
// 003   ----------------------------------------
 BYTE   N11  Fn1
 BYTE   W12
 BYTE   N40  Gn1  v124
 BYTE   W84
// 004   ----------------------------------------
 BYTE   N11  Fn1  v116
 BYTE   W12
 BYTE   N32  Gn1  v127
 BYTE   W36
 BYTE   N40  Gn1  v124
 BYTE   W48
// 005   ----------------------------------------
 BYTE   N11  Fn1
 BYTE   W12
 BYTE   N42  Gn1
 BYTE   W72
 BYTE   N11  Gn1  v120
 BYTE   W12
// 006   ----------------------------------------
 BYTE   Fn1  v100
 BYTE   W12
 BYTE   N32  Gn1  v127
 BYTE   W36
 BYTE   N36
 BYTE   W60
// 007   ----------------------------------------
 BYTE   W84
 BYTE   N11  Fn1  v104
 BYTE   W12
// 008   ----------------------------------------
 BYTE   N32  Gn1  v127
 BYTE   W36
 BYTE   Gn1  v120
 BYTE   W36
 BYTE   N11  Gn1  v112
 BYTE   W12
 BYTE   Fn1  v116
 BYTE   W12
// 009   ----------------------------------------
 BYTE   N32  Gn1  v124
 BYTE   W36
 BYTE   N23  Gn1  v116
 BYTE   W24
 BYTE   Gn1  v124
 BYTE   W24
 BYTE   N11  Fn1
 BYTE   W12
// 010   ----------------------------------------
 BYTE   N32  Gn1
 BYTE   W36
 BYTE   N32
 BYTE   W36
 BYTE   N11  Gn1  v127
 BYTE   W12
 BYTE   Fn1  v116
 BYTE   W12
// 011   ----------------------------------------
 BYTE   N32  Gn1  v127
 BYTE   W36
 BYTE   Gn1  v124
 BYTE   W36
 BYTE   N11  Gn1  v127
 BYTE   W12
 BYTE   Fn1  v120
 BYTE   W12
// 012   ----------------------------------------
 BYTE   N32  Gn1  v127
 BYTE   W36
 BYTE   N32
 BYTE   W36
 BYTE   N11  Gn1  v120
 BYTE   W12
 BYTE   Fn1  v127
 BYTE   W12
// 013   ----------------------------------------
 BYTE   N32  Gn1
 BYTE   W36
 BYTE   N32
 BYTE   W36
 BYTE   N11  Gn1  v124
 BYTE   W12
 BYTE   Fn1  v120
 BYTE   W12
// 014   ----------------------------------------
 BYTE   Gn1  v124
 BYTE   W12
 BYTE   Fn1  v092
 BYTE   W12
 BYTE   Gn1
 BYTE   W12
 BYTE   Fn1  v080
 BYTE   W12
 BYTE   Gn1  v100
 BYTE   W12
 BYTE   Fn1
 BYTE   W12
 BYTE   Gn1  v120
 BYTE   W12
 BYTE   Fn1  v104
 BYTE   W12
// 015   ----------------------------------------
 BYTE   Gn1  v127
 BYTE   W12
 BYTE   Fn1  v116
 BYTE   W12
 BYTE   Gn1  v127
 BYTE   W12
 BYTE   Fn1  v124
 BYTE   W12
 BYTE   Gn1  v127
 BYTE   W12
 BYTE   Fn1
 BYTE   W12
 BYTE   Gn1
 BYTE   W12
 BYTE   Fn1
 BYTE   W12
// 016   ----------------------------------------
 BYTE   N32  An2  v116
 BYTE   W36
 BYTE   N36  An2  v108
 BYTE   W60
// 017   ----------------------------------------
 BYTE   N32  An2  v112
 BYTE   W36
 BYTE   N40  An2  v100
 BYTE   W60
// 018   ----------------------------------------
 BYTE   N32
 BYTE   W36
 BYTE   N40  An2  v116
 BYTE   W60
// 019   ----------------------------------------
 BYTE   N32  An2  v104
 BYTE   W36
 BYTE   N28  An2  v108
 BYTE   W30
 BYTE   N05  An2  v056
 BYTE   W06
 BYTE   An2  v072
 BYTE   W06
 BYTE   An2  v064
 BYTE   W06
 BYTE   N11  An2  v080
 BYTE   W12
// 020   ----------------------------------------
 BYTE   N40  An2  v100
 BYTE   W84
 BYTE   N11  Fn1  v116
 BYTE   W12
// 021   ----------------------------------------
 BYTE   N40  Gn1  v127
 BYTE   W72
 BYTE   N23  Gn1  v108
 BYTE   W24
// 022   ----------------------------------------
 BYTE   N36  Fn1  v127
 BYTE   W84
 BYTE   N11  Fn1  v124
 BYTE   W12
// 023   ----------------------------------------
 BYTE   N36  Gn1  v127
 BYTE   W72
 BYTE   N23  Gn1  v116
 BYTE   W24
// 024   ----------------------------------------
 BYTE   N36  Fn1  v127
 BYTE   W84
 BYTE   N11  Fn1  v116
 BYTE   W12
// 025   ----------------------------------------
 BYTE   N36  Gn1  v127
 BYTE   W84
 BYTE   N11  Fn1  v120
 BYTE   W12
// 026   ----------------------------------------
 BYTE   GoTo
  POIN2 Label_6_0102C025
 BYTE   FINE

//******************************************************//
	ALIGN 4

FE06OneWillPsyche:
	BYTE	7	// NumTrks
	BYTE	0	// NumBlks
	BYTE	FE06OneWillPsyche_pri	// Priority
	BYTE	FE06OneWillPsyche_rev	// Reverb.
    
	POIN2	FE06OneWillPsyche_grp
    
	POIN2	FE06OneWillPsyche_001
	POIN2	FE06OneWillPsyche_002
	POIN2	FE06OneWillPsyche_003
	POIN2	FE06OneWillPsyche_004
	POIN2	FE06OneWillPsyche_005
	POIN2	FE06OneWillPsyche_006
	POIN2	FE06OneWillPsyche_007

	
