//Event file generated from Sappy .s format.
	#include "MPlayDef.event"

	#define	FE06FortheCommandersRandomWizard_grp  voicegroup000
	#define	FE06FortheCommandersRandomWizard_pri  0
	#define	FE06FortheCommandersRandomWizard_rev  0
	#define	FE06FortheCommandersRandomWizard_mvl  127
	#define	FE06FortheCommandersRandomWizard_key  0
	#define	FE06FortheCommandersRandomWizard_tbs  1
	#define	FE06FortheCommandersRandomWizard_exg  0
	#define	FE06FortheCommandersRandomWizard_cmp  1

	// .rodata
	//	FE06FortheCommandersRandomWizard
	ALIGN 4


//**************** Track 1 (Midi-Chn.0) ****************//

FE06FortheCommandersRandomWizard_001:
// 000   ----------------------------------------
 BYTE   KEYSH   FE06FortheCommandersRandomWizard_key+0
 BYTE   TEMPO   120*FE06FortheCommandersRandomWizard_tbs/2
 BYTE   VOICE   60
 BYTE   W24
Label_0_5462B7:
 BYTE   VOL   32*FE06FortheCommandersRandomWizard_mvl/mxv
 BYTE   PAN   c_v+9
 BYTE   N28  Fn2  v104
 BYTE   N28  As2  v100
 BYTE   W36
 BYTE   N11  Gs2  v088
 BYTE   N11  Cn3  v100
 BYTE   W12
 BYTE   N48  As2  v092
 BYTE   N48  Cs3  v084
 BYTE   W24
// 001   ----------------------------------------
 BYTE   W48
 BYTE   N10  Gs2  v076
 BYTE   N11  Cn3  v108
 BYTE   W12
 BYTE   As2  v092
 BYTE   N11  Cs3  v084
 BYTE   W12
 BYTE   N19  Cn3  v104
 BYTE   N23  Ds3  v080
 BYTE   W24
// 002   ----------------------------------------
 BYTE   Gs2
 BYTE   N21  Cn3  v112
 BYTE   W24
 BYTE   N92  Cn3  v108
 BYTE   N92  Fn3  v104
 BYTE   W72
// 003   ----------------------------------------
 BYTE   W24
 BYTE   VOL   25*FE06FortheCommandersRandomWizard_mvl/mxv
 BYTE   PAN   c_v+4
 BYTE   N05  As2  v072
 BYTE   W06
 BYTE   N04  Cn3  v088
 BYTE   W06
 BYTE   N05  As2  v068
 BYTE   W06
 BYTE   Cn3  v084
 BYTE   W06
 BYTE   N68  Cs3  v080
 BYTE   W48
// 004   ----------------------------------------
 BYTE   W24
 BYTE   VOL   32*FE06FortheCommandersRandomWizard_mvl/mxv
 BYTE   PAN   c_v+9
 BYTE   N32  Fn2  v088
 BYTE   N32  As2  v092
 BYTE   W36
 BYTE   N11  Gs2  v080
 BYTE   N10  Cn3  v100
 BYTE   W12
 BYTE   N48  As2  v088
 BYTE   N48  Cs3  v084
 BYTE   W24
// 005   ----------------------------------------
 BYTE   W48
 BYTE   N11  Gs2  v080
 BYTE   N10  Cn3  v108
 BYTE   W12
 BYTE   N11  As2  v084
 BYTE   N11  Cs3
 BYTE   W12
 BYTE   N21  Cn3  v072
 BYTE   N21  Ds3  v092
 BYTE   W24
// 006   ----------------------------------------
 BYTE   N23  Cs3  v060
 BYTE   N23  Fn3  v096
 BYTE   W24
 BYTE   N44  As2  v084
 BYTE   N44  Cs3  v056
 BYTE   W48
 BYTE   VOL   25*FE06FortheCommandersRandomWizard_mvl/mxv
 BYTE   PAN   c_v+4
 BYTE   N44  As3  v096
 BYTE   W24
// 007   ----------------------------------------
 BYTE   W24
 BYTE   Gs3  v088
 BYTE   W48
 BYTE   N36  Fs3  v084
 BYTE   W24
// 008   ----------------------------------------
 BYTE   W24
 BYTE   N32  Fn3  v108
 BYTE   W36
 BYTE   N05  Ds3  v092
 BYTE   W06
 BYTE   Dn3  v104
 BYTE   W06
 BYTE   N60  As2  v084
 BYTE   W24
// 009   ----------------------------------------
 BYTE   W48
 BYTE   N09  As2  v104
 BYTE   W12
 BYTE   N11  Cn3
 BYTE   W12
 BYTE   N23  Cs3  v096
 BYTE   W24
// 010   ----------------------------------------
 BYTE   N22  Ds3  v084
 BYTE   W24
 BYTE   N44  Fn3  v104
 BYTE   W48
 BYTE   As3
 BYTE   W24
// 011   ----------------------------------------
 BYTE   W24
 BYTE   N88  Fn3  v092
 BYTE   W72
// 012   ----------------------------------------
 BYTE   W24
 BYTE   VOL   32*FE06FortheCommandersRandomWizard_mvl/mxv
 BYTE   PAN   c_v+9
 BYTE   N32  Fn3  v108
 BYTE   W36
 BYTE   N05  Ds3  v080
 BYTE   W06
 BYTE   Cs3  v084
 BYTE   W06
 BYTE   N68  As2
 BYTE   W24
// 013   ----------------------------------------
 BYTE   W48
 BYTE   N11  As2  v088
 BYTE   W12
 BYTE   Cn3  v096
 BYTE   W12
 BYTE   N23  Cs3
 BYTE   W24
// 014   ----------------------------------------
 BYTE   Ds3  v088
 BYTE   W24
 BYTE   N44  Fn3  v096
 BYTE   W48
 BYTE   As3  v104
 BYTE   W24
// 015   ----------------------------------------
 BYTE   W24
 BYTE   As3  v100
 BYTE   W48
 BYTE   An3  v096
 BYTE   W24
// 016   ----------------------------------------
 BYTE   VOL   32*FE06FortheCommandersRandomWizard_mvl/mxv
 BYTE   PAN   c_v+9
 BYTE   W24
 BYTE   N44  As3  v076
 BYTE   W48
 BYTE   N92  Gs3  v088
 BYTE   W24
// 017   ----------------------------------------
 BYTE   W72
 BYTE   N21  Fn3  v100
 BYTE   W24
// 018   ----------------------------------------
 BYTE   N20  Fs3
 BYTE   W24
 BYTE   N44  Gs3
 BYTE   W48
 BYTE   Fs3
 BYTE   W24
// 019   ----------------------------------------
 BYTE   W24
 BYTE   N80  Fn3
 BYTE   W72
// 020   ----------------------------------------
 BYTE   W24
 BYTE   N44  Cn3  v092
 BYTE   W48
 BYTE   N68  Ds3  v080
 BYTE   W24
// 021   ----------------------------------------
 BYTE   W48
 BYTE   N22  Cs3
 BYTE   W24
 BYTE   N23  Ds3
 BYTE   W24
// 022   ----------------------------------------
 BYTE   N21  Fn3  v100
 BYTE   W24
 BYTE   N44  Cn3  v108
 BYTE   W48
 BYTE   N68  Ds3  v084
 BYTE   W24
// 023   ----------------------------------------
 BYTE   W48
 BYTE   N22  Cs3  v092
 BYTE   W24
 BYTE   N23  Gs3  v096
 BYTE   W24
// 024   ----------------------------------------
 BYTE   Fs3  v100
 BYTE   W24
 BYTE   N92  Fn3  v104
 BYTE   W72
// 025   ----------------------------------------
 BYTE   W96
// 026   ----------------------------------------
 BYTE   W23
 BYTE   GoTo
  POIN2 Label_0_5462B7
 BYTE   FINE

//**************** Track 2 (Midi-Chn.1) ****************//

FE06FortheCommandersRandomWizard_002:
// 000   ----------------------------------------
 BYTE   KEYSH   FE06FortheCommandersRandomWizard_key+0
 BYTE   VOICE   57
 BYTE   W24
Label_1_010D16F1:
 BYTE   MOD 0
 BYTE   CnM2
 BYTE   VOL   11*FE06FortheCommandersRandomWizard_mvl/mxv
 BYTE   PAN   c_v+1
 BYTE   BEND   c_v-3
 BYTE   TIE  As2  v072
 BYTE   W72
// 001   ----------------------------------------
 BYTE   W44
 BYTE   W03
 BYTE   EOT
 BYTE   W01
 BYTE   N23  Cn3
 BYTE   W24
 BYTE   Cs3
 BYTE   W24
// 002   ----------------------------------------
Label_1_010D1706:
 BYTE   N23  Ds3  v072
 BYTE   W24
 BYTE   N44  Fn3
 BYTE   W48
 BYTE   As3  v068
 BYTE   W24
 BYTE   PEND 
// 003   ----------------------------------------
Label_1_010D1711:
 BYTE   W24
 BYTE   N44  Ds4  v068
 BYTE   W48
 BYTE   Cn4
 BYTE   W24
 BYTE   PEND 
// 004   ----------------------------------------
 BYTE   W24
 BYTE   TIE  As2  v072
 BYTE   W72
// 005   ----------------------------------------
 BYTE   W44
 BYTE   W03
 BYTE   EOT
 BYTE   W01
 BYTE   N23  Cn3
 BYTE   W24
 BYTE   Cs3
 BYTE   W24
 BYTE   PATT
  POIN2 Label_1_010D1706
 BYTE   PATT
  POIN2 Label_1_010D1711
// 006   ----------------------------------------
 BYTE   W24
 BYTE   N92  As3  v068
 BYTE   W72
// 007   ----------------------------------------
 BYTE   W24
 BYTE   N32  Ds4
 BYTE   W36
 BYTE   N05  Cs4
 BYTE   W06
 BYTE   Cn4
 BYTE   W06
 BYTE   N23  As3
 BYTE   W24
// 008   ----------------------------------------
 BYTE   Gs3
 BYTE   W24
 BYTE   N92  As3
 BYTE   W72
 BYTE   PATT
  POIN2 Label_1_010D1711
// 009   ----------------------------------------
 BYTE   W24
 BYTE   N92  As3  v068
 BYTE   W72
// 010   ----------------------------------------
 BYTE   W24
 BYTE   N44  Gs3
 BYTE   W48
 BYTE   As3
 BYTE   W24
// 011   ----------------------------------------
 BYTE   W24
 BYTE   Fn3  v072
 BYTE   W48
 BYTE   Ds3
 BYTE   W24
// 012   ----------------------------------------
 BYTE   W24
 BYTE   Cs3
 BYTE   W48
 BYTE   Cn3
 BYTE   W24
// 013   ----------------------------------------
 BYTE   W24
 BYTE   VOL   25*FE06FortheCommandersRandomWizard_mvl/mxv
 BYTE   PAN   c_v+4
 BYTE   N44  Cs3  v088
 BYTE   W48
 BYTE   N88  Cn3  v092
 BYTE   W24
// 014   ----------------------------------------
 BYTE   W72
 BYTE   N20  As2  v060
 BYTE   W24
// 015   ----------------------------------------
 BYTE   N22  Cn3
 BYTE   W24
 BYTE   N44  Cs3  v052
 BYTE   W48
 BYTE   Cn3  v084
 BYTE   W24
// 016   ----------------------------------------
 BYTE   W24
 BYTE   N76  As2  v076
 BYTE   W72
// 017   ----------------------------------------
 BYTE   W24
 BYTE   N44  Fn2  v068
 BYTE   W48
 BYTE   N68  Gs2  v088
 BYTE   W24
// 018   ----------------------------------------
 BYTE   W48
 BYTE   N22  Fs2  v080
 BYTE   W24
 BYTE   N23  Gs2  v092
 BYTE   W24
// 019   ----------------------------------------
 BYTE   N21  As2  v076
 BYTE   W24
 BYTE   N44  Fn2
 BYTE   W48
 BYTE   N68  Gs2  v092
 BYTE   W24
// 020   ----------------------------------------
 BYTE   W48
 BYTE   N21  Fs2  v076
 BYTE   W24
 BYTE   N16  Cn3  v080
 BYTE   W24
// 021   ----------------------------------------
 BYTE   N17  As2  v072
 BYTE   W24
 BYTE   N92  Gs2  v084
 BYTE   W72
// 022   ----------------------------------------
 BYTE   W96
// 023   ----------------------------------------
 BYTE   W23
 BYTE   GoTo
  POIN2 Label_1_010D16F1
 BYTE   FINE

//**************** Track 3 (Midi-Chn.2) ****************//

FE06FortheCommandersRandomWizard_003:
// 000   ----------------------------------------
 BYTE   KEYSH   FE06FortheCommandersRandomWizard_key+0
 BYTE   VOICE   52
 BYTE   W24
Label_2_547825:
 BYTE   MOD 0
 BYTE   DnM2
 BYTE   VOL   12*FE06FortheCommandersRandomWizard_mvl/mxv
 BYTE   PAN   c_v+1
 BYTE   TIE  As2  v076
 BYTE   W72
// 001   ----------------------------------------
 BYTE   W44
 BYTE   W03
 BYTE   EOT
 BYTE   W01
 BYTE   N23  Cn3
 BYTE   W24
 BYTE   Cs3
 BYTE   W24
// 002   ----------------------------------------
Label_2_547838:
 BYTE   N23  Ds3  v076
 BYTE   W24
 BYTE   N44  Fn3
 BYTE   W48
 BYTE   As3  v072
 BYTE   W24
 BYTE   PEND 
// 003   ----------------------------------------
Label_2_547843:
 BYTE   W24
 BYTE   N44  Ds4  v064
 BYTE   W48
 BYTE   Cn4  v072
 BYTE   W24
 BYTE   PEND 
// 004   ----------------------------------------
 BYTE   W24
 BYTE   TIE  As2  v076
 BYTE   W72
// 005   ----------------------------------------
 BYTE   W44
 BYTE   W02
 BYTE   EOT
 BYTE   W02
 BYTE   N23  Cn3
 BYTE   W24
 BYTE   Cs3
 BYTE   W24
 BYTE   PATT
  POIN2 Label_2_547838
 BYTE   PATT
  POIN2 Label_2_547843
// 006   ----------------------------------------
 BYTE   W24
 BYTE   N88  As3  v072
 BYTE   W72
// 007   ----------------------------------------
 BYTE   W24
 BYTE   N32  Ds4
 BYTE   W36
 BYTE   N05  Cs4
 BYTE   W06
 BYTE   Cn4
 BYTE   W06
 BYTE   N23  As3
 BYTE   W24
// 008   ----------------------------------------
 BYTE   Gs3
 BYTE   W24
 BYTE   N92  As3
 BYTE   W72
// 009   ----------------------------------------
 BYTE   W24
 BYTE   N44  Ds4
 BYTE   W48
 BYTE   Cn4
 BYTE   W24
// 010   ----------------------------------------
 BYTE   W24
 BYTE   N92  As3
 BYTE   W72
// 011   ----------------------------------------
 BYTE   W24
 BYTE   N44  Gs3
 BYTE   W48
 BYTE   As3
 BYTE   W24
// 012   ----------------------------------------
 BYTE   W24
 BYTE   Fn3  v076
 BYTE   W48
 BYTE   Ds3
 BYTE   W24
// 013   ----------------------------------------
 BYTE   W24
 BYTE   Cs3
 BYTE   W48
 BYTE   Cn3
 BYTE   W24
// 014   ----------------------------------------
 BYTE   W96
// 015   ----------------------------------------
 BYTE   W96
// 016   ----------------------------------------
 BYTE   W96
// 017   ----------------------------------------
 BYTE   W96
// 018   ----------------------------------------
 BYTE   W96
// 019   ----------------------------------------
 BYTE   W96
// 020   ----------------------------------------
 BYTE   W96
// 021   ----------------------------------------
 BYTE   W96
// 022   ----------------------------------------
 BYTE   W96
// 023   ----------------------------------------
 BYTE   W96
// 024   ----------------------------------------
 BYTE   W23
 BYTE   GoTo
  POIN2 Label_2_547825
 BYTE   FINE

//**************** Track 4 (Midi-Chn.3) ****************//

FE06FortheCommandersRandomWizard_004:
// 000   ----------------------------------------
 BYTE   KEYSH   FE06FortheCommandersRandomWizard_key+0
 BYTE   VOICE   40
 BYTE   W24
Label_3_547722:
 BYTE   VOL   27*FE06FortheCommandersRandomWizard_mvl/mxv
 BYTE   PAN   c_v-20
 BYTE   TIE  As1  v108
 BYTE   W72
// 001   ----------------------------------------
 BYTE   W96
// 002   ----------------------------------------
 BYTE   W60
 BYTE   W02
 BYTE   EOT
 BYTE   W10
 BYTE   N44  As1  v120
 BYTE   W24
// 003   ----------------------------------------
 BYTE   W24
 BYTE   Fn2
 BYTE   W48
 BYTE   As2  v108
 BYTE   W24
// 004   ----------------------------------------
 BYTE   W24
 BYTE   TIE  As1  v112
 BYTE   W72
// 005   ----------------------------------------
 BYTE   W96
// 006   ----------------------------------------
 BYTE   W40
 BYTE   EOT
 BYTE   W08
 BYTE   N23  As1  v120
 BYTE   W24
 BYTE   Fn2
 BYTE   W24
// 007   ----------------------------------------
 BYTE   As2  v100
 BYTE   W24
 BYTE   N44  Cs3  v108
 BYTE   W48
 BYTE   As2  v104
 BYTE   W24
// 008   ----------------------------------------
 BYTE   W24
 BYTE   TIE  Gs2  v100
 BYTE   W72
// 009   ----------------------------------------
 BYTE   W96
// 010   ----------------------------------------
 BYTE   W23
 BYTE   EOT
 BYTE   W01
 BYTE   TIE  Fs2  v112
 BYTE   W72
// 011   ----------------------------------------
 BYTE   W96
// 012   ----------------------------------------
 BYTE   W23
 BYTE   EOT
 BYTE   W01
 BYTE   TIE  Gs2  v104
 BYTE   W72
// 013   ----------------------------------------
 BYTE   W96
// 014   ----------------------------------------
 BYTE   W17
 BYTE   EOT
 BYTE   W07
 BYTE   TIE  Fs2  v100
 BYTE   W72
// 015   ----------------------------------------
 BYTE   W68
 BYTE   W03
 BYTE   EOT
 BYTE   W01
 BYTE   N44  Fn2
 BYTE   W24
// 016   ----------------------------------------
 BYTE   W96
// 017   ----------------------------------------
 BYTE   W96
// 018   ----------------------------------------
 BYTE   W96
// 019   ----------------------------------------
 BYTE   W96
// 020   ----------------------------------------
 BYTE   W24
 BYTE   TIE  As1  v120
 BYTE   W72
// 021   ----------------------------------------
 BYTE   W96
// 022   ----------------------------------------
 BYTE   W96
// 023   ----------------------------------------
 BYTE   W96
// 024   ----------------------------------------
 BYTE   W96
// 025   ----------------------------------------
 BYTE   W21
 BYTE   EOT
 BYTE   W03
 BYTE   N92  Fn1  v100
 BYTE   W72
// 026   ----------------------------------------
 BYTE   W23
 BYTE   GoTo
  POIN2 Label_3_547722
 BYTE   FINE

//**************** Track 5 (Midi-Chn.4) ****************//

FE06FortheCommandersRandomWizard_005:
// 000   ----------------------------------------
 BYTE   KEYSH   FE06FortheCommandersRandomWizard_key+0
 BYTE   VOICE   73
 BYTE   W24
Label_4_010D1381:
 BYTE   VOL   31*FE06FortheCommandersRandomWizard_mvl/mxv
 BYTE   PAN   c_v-3
 BYTE   N08  Fn3  v100
 BYTE   W12
 BYTE   Fn3  v028
 BYTE   W24
 BYTE   Fn3  v104
 BYTE   W12
 BYTE   Fn3  v032
 BYTE   W12
 BYTE   N05  Fn3  v096
 BYTE   W06
 BYTE   Fn3  v024
 BYTE   W06
// 001   ----------------------------------------
Label_4_010D1399:
 BYTE   N17  Fn3  v104
 BYTE   W18
 BYTE   N04  Fn3  v032
 BYTE   W06
 BYTE   N08  Fn3  v100
 BYTE   W12
 BYTE   Fn3  v028
 BYTE   W24
 BYTE   Fn3  v104
 BYTE   W12
 BYTE   Fn3  v032
 BYTE   W12
 BYTE   N05  Fn3  v096
 BYTE   W06
 BYTE   Fn3  v024
 BYTE   W06
 BYTE   PEND 
 BYTE   PATT
  POIN2 Label_4_010D1399
 BYTE   PATT
  POIN2 Label_4_010D1399
 BYTE   PATT
  POIN2 Label_4_010D1399
 BYTE   PATT
  POIN2 Label_4_010D1399
 BYTE   PATT
  POIN2 Label_4_010D1399
 BYTE   PATT
  POIN2 Label_4_010D1399
// 002   ----------------------------------------
 BYTE   N17  Fn3  v104
 BYTE   W18
 BYTE   N04  Fn3  v032
 BYTE   W06
 BYTE   N08  Ds3  v100
 BYTE   W12
 BYTE   Ds3  v028
 BYTE   W24
 BYTE   Ds3  v104
 BYTE   W12
 BYTE   Ds3  v032
 BYTE   W12
 BYTE   N05  Ds3  v096
 BYTE   W06
 BYTE   Ds3  v024
 BYTE   W06
// 003   ----------------------------------------
Label_4_010D13F0:
 BYTE   N17  Ds3  v104
 BYTE   W18
 BYTE   N04  Ds3  v032
 BYTE   W06
 BYTE   N08  Ds3  v100
 BYTE   W12
 BYTE   Ds3  v028
 BYTE   W24
 BYTE   Ds3  v104
 BYTE   W12
 BYTE   Ds3  v032
 BYTE   W12
 BYTE   N05  Ds3  v096
 BYTE   W06
 BYTE   Ds3  v024
 BYTE   W06
 BYTE   PEND 
// 004   ----------------------------------------
Label_4_010D140D:
 BYTE   N17  Ds3  v104
 BYTE   W18
 BYTE   N04  Ds3  v032
 BYTE   W06
 BYTE   N08  Cs3  v100
 BYTE   W12
 BYTE   Cs3  v028
 BYTE   W24
 BYTE   Cs3  v104
 BYTE   W12
 BYTE   Cs3  v032
 BYTE   W12
 BYTE   N05  Cs3  v096
 BYTE   W06
 BYTE   Cs3  v024
 BYTE   W06
 BYTE   PEND 
// 005   ----------------------------------------
 BYTE   N17  Cs3  v104
 BYTE   W18
 BYTE   N04  Cs3  v032
 BYTE   W06
 BYTE   N08  Cs3  v100
 BYTE   W12
 BYTE   Cs3  v028
 BYTE   W24
 BYTE   Cs3  v104
 BYTE   W12
 BYTE   Cs3  v032
 BYTE   W12
 BYTE   N05  Cs3  v096
 BYTE   W06
 BYTE   Cs3  v024
 BYTE   W06
// 006   ----------------------------------------
 BYTE   N17  Cs3  v104
 BYTE   W18
 BYTE   N04  Cs3  v032
 BYTE   W06
 BYTE   N08  Ds3  v100
 BYTE   W12
 BYTE   Ds3  v028
 BYTE   W24
 BYTE   Ds3  v104
 BYTE   W12
 BYTE   Ds3  v032
 BYTE   W12
 BYTE   N05  Ds3  v096
 BYTE   W06
 BYTE   Ds3  v024
 BYTE   W06
 BYTE   PATT
  POIN2 Label_4_010D13F0
 BYTE   PATT
  POIN2 Label_4_010D140D
// 007   ----------------------------------------
 BYTE   N17  Cs3  v104
 BYTE   W18
 BYTE   N04  Cs3  v032
 BYTE   W06
 BYTE   N08  Cs3  v100
 BYTE   W12
 BYTE   Cs3  v028
 BYTE   W24
 BYTE   Cs3  v104
 BYTE   W12
 BYTE   Cs3  v032
 BYTE   W12
 BYTE   N05  Cn3  v096
 BYTE   W06
 BYTE   Cn3  v024
 BYTE   W06
// 008   ----------------------------------------
 BYTE   N17  Cn3  v104
 BYTE   W18
 BYTE   N04  Cn3  v032
 BYTE   W06
 BYTE   N08  Fn3  v100
 BYTE   W12
 BYTE   Fn3  v028
 BYTE   W24
 BYTE   Fn3  v104
 BYTE   W12
 BYTE   Fn3  v032
 BYTE   W12
 BYTE   N05  Fn3  v096
 BYTE   W06
 BYTE   Fn3  v024
 BYTE   W06
 BYTE   PATT
  POIN2 Label_4_010D1399
 BYTE   PATT
  POIN2 Label_4_010D1399
 BYTE   PATT
  POIN2 Label_4_010D1399
// 009   ----------------------------------------
 BYTE   N17  Fn3  v104
 BYTE   W18
 BYTE   N04  Fn3  v032
 BYTE   W06
 BYTE   N08  Cn3  v100
 BYTE   W12
 BYTE   Cn3  v028
 BYTE   W24
 BYTE   Cn3  v104
 BYTE   W12
 BYTE   Cn3  v032
 BYTE   W12
 BYTE   N05  Cn3  v096
 BYTE   W06
 BYTE   Cn3  v024
 BYTE   W06
// 010   ----------------------------------------
Label_4_010D14CF:
 BYTE   N17  Cn3  v104
 BYTE   W18
 BYTE   N04  Cn3  v032
 BYTE   W06
 BYTE   N08  Cn3  v100
 BYTE   W12
 BYTE   Cn3  v028
 BYTE   W24
 BYTE   Cn3  v104
 BYTE   W12
 BYTE   Cn3  v032
 BYTE   W12
 BYTE   N05  Cn3  v096
 BYTE   W06
 BYTE   Cn3  v024
 BYTE   W06
 BYTE   PEND 
 BYTE   PATT
  POIN2 Label_4_010D14CF
 BYTE   PATT
  POIN2 Label_4_010D14CF
 BYTE   PATT
  POIN2 Label_4_010D14CF
 BYTE   PATT
  POIN2 Label_4_010D14CF
// 011   ----------------------------------------
 BYTE   N17  Cn3  v104
 BYTE   W18
 BYTE   N04  Cn3  v032
 BYTE   W05
 BYTE   GoTo
  POIN2 Label_4_010D1381
 BYTE   FINE

//**************** Track 6 (Midi-Chn.5) ****************//

FE06FortheCommandersRandomWizard_006:
// 000   ----------------------------------------
 BYTE   KEYSH   FE06FortheCommandersRandomWizard_key+0
 BYTE   VOICE   127
 BYTE   VOL   27*FE06FortheCommandersRandomWizard_mvl/mxv
 BYTE   PAN   c_v-4
 BYTE   W24
Label_5_010D1831:
 BYTE   N11  Dn1  v120
 BYTE   W12
 BYTE   Dn1  v076
 BYTE   W12
 BYTE   Dn1  v072
 BYTE   W12
 BYTE   Dn1  v120
 BYTE   W12
 BYTE   Dn1  v056
 BYTE   W12
 BYTE   Dn1  v060
 BYTE   W12
// 001   ----------------------------------------
 BYTE   Dn1  v120
 BYTE   W12
 BYTE   Dn1  v076
 BYTE   W12
 BYTE   Dn1  v120
 BYTE   W12
 BYTE   Dn1  v076
 BYTE   W12
 BYTE   Dn1  v072
 BYTE   W12
 BYTE   Dn1  v120
 BYTE   W12
 BYTE   Dn1  v084
 BYTE   W12
 BYTE   Dn1  v076
 BYTE   W12
// 002   ----------------------------------------
 BYTE   Dn1  v124
 BYTE   W12
 BYTE   Dn1  v052
 BYTE   W12
 BYTE   Dn1  v120
 BYTE   W12
 BYTE   Dn1  v076
 BYTE   W12
 BYTE   Dn1  v072
 BYTE   W12
 BYTE   Dn1  v120
 BYTE   W12
 BYTE   Dn1  v056
 BYTE   W12
 BYTE   Dn1  v060
 BYTE   W12
// 003   ----------------------------------------
Label_5_010D1874:
 BYTE   N11  Dn1  v120
 BYTE   W12
 BYTE   Dn1  v076
 BYTE   W12
 BYTE   Dn1  v120
 BYTE   W12
 BYTE   Dn1  v076
 BYTE   W12
 BYTE   Dn1  v072
 BYTE   W12
 BYTE   Dn1  v120
 BYTE   W12
 BYTE   Dn1  v056
 BYTE   W12
 BYTE   Dn1  v060
 BYTE   W12
 BYTE   PEND 
 BYTE   PATT
  POIN2 Label_5_010D1874
 BYTE   PATT
  POIN2 Label_5_010D1874
 BYTE   PATT
  POIN2 Label_5_010D1874
 BYTE   PATT
  POIN2 Label_5_010D1874
// 004   ----------------------------------------
 BYTE   N11  Dn1  v120
 BYTE   W12
 BYTE   Dn1  v076
 BYTE   W12
 BYTE   N17  Dn1  v080
 BYTE   W18
 BYTE   N05  Dn1  v048
 BYTE   W06
 BYTE   N11  Dn1  v068
 BYTE   W12
 BYTE   Dn1  v096
 BYTE   W12
 BYTE   Dn1  v048
 BYTE   W12
 BYTE   Dn1  v072
 BYTE   W12
// 005   ----------------------------------------
 BYTE   Dn1  v088
 BYTE   W12
 BYTE   Dn1  v056
 BYTE   W12
 BYTE   Dn1  v088
 BYTE   W12
 BYTE   Dn1  v040
 BYTE   W12
 BYTE   Dn1  v072
 BYTE   W12
 BYTE   N23  Dn1  v096
 BYTE   W24
 BYTE   N11  Dn1  v072
 BYTE   W12
// 006   ----------------------------------------
 BYTE   N11
 BYTE   W12
 BYTE   Dn1  v052
 BYTE   W12
 BYTE   Dn1  v044
 BYTE   W12
 BYTE   N22  Dn1  v060
 BYTE   W24
 BYTE   N11  Dn1  v092
 BYTE   W12
 BYTE   Dn1  v060
 BYTE   W12
 BYTE   Dn1  v084
 BYTE   W12
// 007   ----------------------------------------
 BYTE   N11
 BYTE   W12
 BYTE   Dn1  v068
 BYTE   W12
 BYTE   N23
 BYTE   W24
 BYTE   N24  Dn1  v056
 BYTE   W36
 BYTE   N11  Dn1  v044
 BYTE   W12
// 008   ----------------------------------------
 BYTE   Dn1  v068
 BYTE   W12
 BYTE   Dn1  v064
 BYTE   W12
 BYTE   Dn1  v104
 BYTE   W12
 BYTE   Dn1  v036
 BYTE   W12
 BYTE   Dn1  v060
 BYTE   W12
 BYTE   Dn1  v088
 BYTE   W12
 BYTE   Dn1  v064
 BYTE   W12
 BYTE   Dn1  v060
 BYTE   W12
// 009   ----------------------------------------
 BYTE   N22  Dn1  v112
 BYTE   W24
 BYTE   N11  Dn1  v108
 BYTE   W12
 BYTE   Dn1  v076
 BYTE   W12
 BYTE   Dn1  v064
 BYTE   W12
 BYTE   Dn1  v088
 BYTE   W12
 BYTE   N20  Dn1  v044
 BYTE   W24
// 010   ----------------------------------------
 BYTE   N11  Dn1  v096
 BYTE   W12
 BYTE   Dn1  v052
 BYTE   W12
 BYTE   Dn1  v088
 BYTE   W12
 BYTE   Dn1  v052
 BYTE   W12
 BYTE   Dn1  v060
 BYTE   W12
 BYTE   Dn1  v056
 BYTE   W12
 BYTE   Dn1  v060
 BYTE   W12
 BYTE   Dn1  v080
 BYTE   W12
// 011   ----------------------------------------
 BYTE   Dn1  v084
 BYTE   W12
 BYTE   N11
 BYTE   W12
 BYTE   N23  Dn1  v100
 BYTE   W24
 BYTE   N11  Dn1  v060
 BYTE   W12
 BYTE   Dn1  v112
 BYTE   W12
 BYTE   N23  Dn1  v072
 BYTE   W24
// 012   ----------------------------------------
 BYTE   N11  Dn1  v104
 BYTE   W12
 BYTE   Dn1  v060
 BYTE   W12
 BYTE   Dn1  v120
 BYTE   W12
 BYTE   Dn1  v076
 BYTE   W12
 BYTE   Dn1  v072
 BYTE   W12
 BYTE   Dn1  v120
 BYTE   W12
 BYTE   Dn1  v056
 BYTE   W12
 BYTE   Dn1  v060
 BYTE   W12
 BYTE   PATT
  POIN2 Label_5_010D1874
 BYTE   PATT
  POIN2 Label_5_010D1874
 BYTE   PATT
  POIN2 Label_5_010D1874
// 013   ----------------------------------------
 BYTE   N11  Dn1  v120
 BYTE   W12
 BYTE   Dn1  v076
 BYTE   W12
 BYTE   N22  Dn1  v116
 BYTE   W24
 BYTE   N11  Dn1  v060
 BYTE   W12
 BYTE   N22  Dn1  v116
 BYTE   W24
 BYTE   N11  Dn1  v084
 BYTE   W12
// 014   ----------------------------------------
 BYTE   Dn1  v112
 BYTE   W12
 BYTE   Dn1  v084
 BYTE   W12
 BYTE   Dn1  v112
 BYTE   W12
 BYTE   Dn1  v044
 BYTE   W12
 BYTE   Dn1  v076
 BYTE   W12
 BYTE   N22  Dn1  v112
 BYTE   W24
 BYTE   N11  Dn1  v080
 BYTE   W12
// 015   ----------------------------------------
 BYTE   Dn1  v116
 BYTE   W12
 BYTE   Dn1  v056
 BYTE   W12
 BYTE   Dn1  v120
 BYTE   W12
 BYTE   Dn1  v076
 BYTE   W12
 BYTE   Dn1  v072
 BYTE   W12
 BYTE   Dn1  v120
 BYTE   W12
 BYTE   Dn1  v056
 BYTE   W12
 BYTE   Dn1  v060
 BYTE   W12
 BYTE   PATT
  POIN2 Label_5_010D1874
// 016   ----------------------------------------
 BYTE   N11  Dn1  v120
 BYTE   W12
 BYTE   Dn1  v076
 BYTE   W12
 BYTE   N22  Dn1  v112
 BYTE   W24
 BYTE   N11  Dn1  v084
 BYTE   W12
 BYTE   Dn1  v112
 BYTE   W12
 BYTE   Dn1  v072
 BYTE   W12
 BYTE   Dn1  v080
 BYTE   W12
// 017   ----------------------------------------
 BYTE   Dn1  v116
 BYTE   W12
 BYTE   Dn1  v084
 BYTE   W12
 BYTE   Dn1  v120
 BYTE   W12
 BYTE   Dn1  v076
 BYTE   W12
 BYTE   Dn1  v072
 BYTE   W12
 BYTE   Dn1  v120
 BYTE   W12
 BYTE   Dn1  v056
 BYTE   W12
 BYTE   Dn1  v060
 BYTE   W12
// 018   ----------------------------------------
 BYTE   Dn1  v120
 BYTE   W12
 BYTE   Dn1  v076
 BYTE   W11
 BYTE   GoTo
  POIN2 Label_5_010D1831
 BYTE   FINE

//**************** Track 7 (Midi-Chn.6) ****************//

FE06FortheCommandersRandomWizard_007:
// 000   ----------------------------------------
 BYTE   KEYSH   FE06FortheCommandersRandomWizard_key+0
 BYTE   VOICE   127
 BYTE   VOL   27*FE06FortheCommandersRandomWizard_mvl/mxv
 BYTE   PAN   c_v-4
 BYTE   W12
 BYTE   N11  Fn1  v116
 BYTE   W12
Label_6_010D151D:
 BYTE   N36  Gn1  v127
 BYTE   W72
// 001   ----------------------------------------
 BYTE   N11  Gn1  v124
 BYTE   W12
 BYTE   Fn1
 BYTE   W12
 BYTE   N42  Gn1  v127
 BYTE   W72
// 002   ----------------------------------------
 BYTE   W12
 BYTE   N11  Fn1  v120
 BYTE   W12
 BYTE   N32  Gn1  v124
 BYTE   W36
 BYTE   N40  Gn1  v120
 BYTE   W36
// 003   ----------------------------------------
 BYTE   W12
 BYTE   N11  Fn1
 BYTE   W12
 BYTE   N40  Gn1  v124
 BYTE   W72
// 004   ----------------------------------------
 BYTE   W12
 BYTE   N11  Fn1  v116
 BYTE   W12
 BYTE   N32  Gn1  v127
 BYTE   W36
 BYTE   N40  Gn1  v124
 BYTE   W36
// 005   ----------------------------------------
 BYTE   W12
 BYTE   N11  Fn1
 BYTE   W12
 BYTE   N42  Gn1
 BYTE   W72
// 006   ----------------------------------------
 BYTE   N11  Gn1  v120
 BYTE   W12
 BYTE   Fn1  v100
 BYTE   W12
 BYTE   N32  Gn1  v127
 BYTE   W36
 BYTE   N36
 BYTE   W36
// 007   ----------------------------------------
 BYTE   W96
// 008   ----------------------------------------
 BYTE   W12
 BYTE   N11  Fn1  v104
 BYTE   W12
 BYTE   N32  Gn1  v127
 BYTE   W36
 BYTE   Gn1  v120
 BYTE   W36
// 009   ----------------------------------------
 BYTE   N11  Gn1  v112
 BYTE   W12
 BYTE   Fn1  v116
 BYTE   W12
 BYTE   N32  Gn1  v124
 BYTE   W36
 BYTE   N23  Gn1  v116
 BYTE   W24
 BYTE   Gn1  v124
 BYTE   W12
// 010   ----------------------------------------
 BYTE   W12
 BYTE   N11  Fn1
 BYTE   W12
 BYTE   N32  Gn1
 BYTE   W36
 BYTE   N32
 BYTE   W36
// 011   ----------------------------------------
 BYTE   N11  Gn1  v127
 BYTE   W12
 BYTE   Fn1  v116
 BYTE   W12
 BYTE   N32  Gn1  v127
 BYTE   W36
 BYTE   Gn1  v124
 BYTE   W36
// 012   ----------------------------------------
 BYTE   N11  Gn1  v127
 BYTE   W12
 BYTE   Fn1  v120
 BYTE   W12
 BYTE   N32  Gn1  v127
 BYTE   W36
 BYTE   N32
 BYTE   W36
// 013   ----------------------------------------
 BYTE   N11  Gn1  v120
 BYTE   W12
 BYTE   Fn1  v127
 BYTE   W12
 BYTE   N32  Gn1
 BYTE   W36
 BYTE   N32
 BYTE   W36
// 014   ----------------------------------------
 BYTE   N11  Gn1  v124
 BYTE   W12
 BYTE   Fn1  v120
 BYTE   W12
 BYTE   Gn1  v124
 BYTE   W12
 BYTE   Fn1  v092
 BYTE   W12
 BYTE   Gn1
 BYTE   W12
 BYTE   Fn1  v080
 BYTE   W12
 BYTE   Gn1  v100
 BYTE   W12
 BYTE   Fn1
 BYTE   W12
// 015   ----------------------------------------
 BYTE   Gn1  v120
 BYTE   W12
 BYTE   Fn1  v104
 BYTE   W12
 BYTE   Gn1  v127
 BYTE   W12
 BYTE   Fn1  v116
 BYTE   W12
 BYTE   Gn1  v127
 BYTE   W12
 BYTE   Fn1  v124
 BYTE   W12
 BYTE   Gn1  v127
 BYTE   W12
 BYTE   Fn1
 BYTE   W12
// 016   ----------------------------------------
 BYTE   Gn1
 BYTE   W12
 BYTE   Fn1
 BYTE   W12
 BYTE   N32  An2  v116
 BYTE   W36
 BYTE   N36  An2  v108
 BYTE   W36
// 017   ----------------------------------------
 BYTE   W24
 BYTE   N32  An2  v112
 BYTE   W36
 BYTE   N40  An2  v100
 BYTE   W36
// 018   ----------------------------------------
 BYTE   W24
 BYTE   N32
 BYTE   W36
 BYTE   N40  An2  v116
 BYTE   W36
// 019   ----------------------------------------
 BYTE   W24
 BYTE   N32  An2  v104
 BYTE   W36
 BYTE   N28  An2  v108
 BYTE   W30
 BYTE   N05  An2  v056
 BYTE   W06
// 020   ----------------------------------------
 BYTE   An2  v072
 BYTE   W06
 BYTE   An2  v064
 BYTE   W06
 BYTE   N11  An2  v080
 BYTE   W12
 BYTE   N40  An2  v100
 BYTE   W72
// 021   ----------------------------------------
 BYTE   W12
 BYTE   N11  Fn1  v116
 BYTE   W12
 BYTE   N40  Gn1  v127
 BYTE   W72
// 022   ----------------------------------------
 BYTE   N23  Gn1  v108
 BYTE   W24
 BYTE   N36  Fn1  v127
 BYTE   W72
// 023   ----------------------------------------
 BYTE   W12
 BYTE   N11  Fn1  v124
 BYTE   W12
 BYTE   N36  Gn1  v127
 BYTE   W72
// 024   ----------------------------------------
 BYTE   N23  Gn1  v116
 BYTE   W24
 BYTE   N36  Fn1  v127
 BYTE   W72
// 025   ----------------------------------------
 BYTE   W12
 BYTE   N11  Fn1  v116
 BYTE   W12
 BYTE   N36  Gn1  v127
 BYTE   W72
// 026   ----------------------------------------
 BYTE   W12
 BYTE   N11  Fn1  v120
 BYTE   W11
 BYTE   GoTo
  POIN2 Label_6_010D151D
 BYTE   FINE

//******************************************************//
	ALIGN 4

FE06FortheCommandersRandomWizard:
	BYTE	7	// NumTrks
	BYTE	0	// NumBlks
	BYTE	FE06FortheCommandersRandomWizard_pri	// Priority
	BYTE	FE06FortheCommandersRandomWizard_rev	// Reverb.
    
	POIN2	FE06FortheCommandersRandomWizard_grp
    
	POIN2	FE06FortheCommandersRandomWizard_001
	POIN2	FE06FortheCommandersRandomWizard_002
	POIN2	FE06FortheCommandersRandomWizard_003
	POIN2	FE06FortheCommandersRandomWizard_004
	POIN2	FE06FortheCommandersRandomWizard_005
	POIN2	FE06FortheCommandersRandomWizard_006
	POIN2	FE06FortheCommandersRandomWizard_007

	
