//Event file generated from Sappy .s format.
	#include "MPlayDef.event"

	#define	FE06WinningRoadTristanHollow_grp  voicegroup000
	#define	FE06WinningRoadTristanHollow_pri  10
	#define	FE06WinningRoadTristanHollow_rev  158
	#define	FE06WinningRoadTristanHollow_mvl  127
	#define	FE06WinningRoadTristanHollow_key  0
	#define	FE06WinningRoadTristanHollow_tbs  1
	#define	FE06WinningRoadTristanHollow_exg  0
	#define	FE06WinningRoadTristanHollow_cmp  1

	// .rodata
	//	FE06WinningRoadTristanHollow
	ALIGN 4


//**************** Track 1 (Midi-Chn.0) ****************//

FE06WinningRoadTristanHollow_001:
// 000   ----------------------------------------
 BYTE   KEYSH   FE06WinningRoadTristanHollow_key+0
Label_0_010BF66E:
 BYTE   TEMPO   134*FE06WinningRoadTristanHollow_tbs/2
 BYTE   VOICE   58
 BYTE   VOL   53*FE06WinningRoadTristanHollow_mvl/mxv
 BYTE   PAN   c_v-5
 BYTE   N28  Cn3  v096
 BYTE   W36
 BYTE   N05  Gn2  v084
 BYTE   W06
 BYTE   Cn3  v080
 BYTE   W06
 BYTE   N32  Dn3  v096
 BYTE   W48
// 001   ----------------------------------------
 BYTE   N28  En3
 BYTE   W30
 BYTE   N05  Dn3  v088
 BYTE   W06
 BYTE   En3
 BYTE   W06
 BYTE   Fn3  v076
 BYTE   W06
 BYTE   N17  Gn3  v088
 BYTE   W24
 BYTE   N16  Cn3
 BYTE   W24
// 002   ----------------------------------------
 BYTE   N32  Cn4  v080
 BYTE   W36
 BYTE   N05  As3  v068
 BYTE   W06
 BYTE   Gs3  v076
 BYTE   W06
 BYTE   N18  Gn3  v080
 BYTE   W24
 BYTE   N21  Fn3
 BYTE   W24
// 003   ----------------------------------------
 BYTE   N68  Gn3  v084
 BYTE   W72
 BYTE   N11  Gn3  v016
 BYTE   W24
// 004   ----------------------------------------
 BYTE   N32  Cn3  v084
 BYTE   W36
 BYTE   N05  Gn2
 BYTE   W06
 BYTE   Cn3  v080
 BYTE   W06
 BYTE   N28  Dn3  v088
 BYTE   W48
// 005   ----------------------------------------
 BYTE   N24  En3  v092
 BYTE   W30
 BYTE   N05  Dn3  v084
 BYTE   W06
 BYTE   En3  v080
 BYTE   W06
 BYTE   Fn3  v076
 BYTE   W06
 BYTE   N15  Gn3  v084
 BYTE   W24
 BYTE   N14  Cn3
 BYTE   W24
// 006   ----------------------------------------
 BYTE   N30  Cn4  v080
 BYTE   W36
 BYTE   N05  As3  v076
 BYTE   W06
 BYTE   Gs3  v072
 BYTE   W06
 BYTE   N16  Gn3  v080
 BYTE   W24
 BYTE   N19  Fn3  v076
 BYTE   W24
// 007   ----------------------------------------
 BYTE   N68  Gn3  v080
 BYTE   W72
 BYTE   N11  Gn3  v016
 BYTE   W24
// 008   ----------------------------------------
 BYTE   N23  Cn4  v084
 BYTE   W24
 BYTE   N05  Cn4  v016
 BYTE   W12
 BYTE   N03  Cn4  v072
 BYTE   W06
 BYTE   N04  Cn4  v084
 BYTE   W06
 BYTE   N14  Dn4  v088
 BYTE   W18
 BYTE   N05  Dn4  v016
 BYTE   W06
 BYTE   N17  Dn4  v088
 BYTE   W18
 BYTE   N05  Dn4  v016
 BYTE   W06
// 009   ----------------------------------------
 BYTE   N23  Ds4  v084
 BYTE   W24
 BYTE   N11  Ds4  v016
 BYTE   W12
 BYTE   N05  Cn4  v084
 BYTE   W06
 BYTE   Ds4
 BYTE   W06
 BYTE   N16  Dn4  v088
 BYTE   W18
 BYTE   N05  Dn4  v016
 BYTE   W06
 BYTE   N15  Dn4  v092
 BYTE   W18
 BYTE   N05  Dn4  v016
 BYTE   W06
// 010   ----------------------------------------
 BYTE   N23  Cn4  v088
 BYTE   W24
 BYTE   N05  Cn4  v016
 BYTE   W12
 BYTE   N03  Cn4  v072
 BYTE   W06
 BYTE   N05  Cn4  v068
 BYTE   W06
 BYTE   N14  Dn4  v092
 BYTE   W18
 BYTE   N05  Dn4  v016
 BYTE   W06
 BYTE   N12  Dn4  v096
 BYTE   W18
 BYTE   N05  Dn4  v016
 BYTE   W06
// 011   ----------------------------------------
 BYTE   N23  Ds4  v080
 BYTE   W24
 BYTE   N11  Ds4  v016
 BYTE   W12
 BYTE   N05  Cn4  v084
 BYTE   W06
 BYTE   Ds4  v068
 BYTE   W06
 BYTE   N11  Dn4  v092
 BYTE   W12
 BYTE   N05  Dn4  v016
 BYTE   W12
 BYTE   N11  Dn4  v096
 BYTE   W12
 BYTE   N05  Dn4  v016
 BYTE   W12
// 012   ----------------------------------------
 BYTE   N23  Cn4  v092
 BYTE   W24
 BYTE   N11  Cn4  v016
 BYTE   W12
 BYTE   N05  Cn4  v080
 BYTE   W06
 BYTE   N04  Cn4  v084
 BYTE   W06
 BYTE   N15  Dn4  v088
 BYTE   W18
 BYTE   N05  Dn4  v016
 BYTE   W06
 BYTE   N17  Dn4  v092
 BYTE   W18
 BYTE   N05  Dn4  v016
 BYTE   W06
// 013   ----------------------------------------
 BYTE   N23  Ds4  v084
 BYTE   W24
 BYTE   N16  Cn4
 BYTE   W18
 BYTE   N05  Ds4  v076
 BYTE   W06
 BYTE   N32  Dn4  v088
 BYTE   W36
 BYTE   N11  Dn4  v016
 BYTE   W12
// 014   ----------------------------------------
 BYTE   N23  Cn4  v096
 BYTE   W24
 BYTE   N11  Cn4  v016
 BYTE   W12
 BYTE   N03  Cn4  v084
 BYTE   W06
 BYTE   N04  Cn4  v080
 BYTE   W06
 BYTE   N17  Dn4  v096
 BYTE   W18
 BYTE   N05  Dn4  v016
 BYTE   W06
 BYTE   N17  Dn4  v100
 BYTE   W18
 BYTE   N05  Dn4  v016
 BYTE   W06
// 015   ----------------------------------------
 BYTE   N17  Ds4  v080
 BYTE   W18
 BYTE   N05  Ds4  v016
 BYTE   W06
 BYTE   N16  Cn4  v088
 BYTE   W18
 BYTE   N03  Ds4  v056
 BYTE   W06
 BYTE   N16  Dn4  v096
 BYTE   W18
 BYTE   N05  Dn4  v016
 BYTE   W06
 BYTE   N17  Dn4  v092
 BYTE   W18
 BYTE   N05  Dn4  v016
 BYTE   W06
// 016   ----------------------------------------
 BYTE   N07  En4  v104
 BYTE   W08
 BYTE   Cn4  v076
 BYTE   W08
 BYTE   N06  Gn3  v064
 BYTE   W08
 BYTE   N07  En4  v088
 BYTE   W08
 BYTE   Cn4  v072
 BYTE   W08
 BYTE   N05  Gn3
 BYTE   W08
 BYTE   N07  Fn4  v096
 BYTE   W08
 BYTE   Cn4  v080
 BYTE   W08
 BYTE   N06  Gn3  v036
 BYTE   W08
 BYTE   N07  Fn4  v092
 BYTE   W08
 BYTE   Cn4  v072
 BYTE   W08
 BYTE   Gn3  v052
 BYTE   W08
// 017   ----------------------------------------
 BYTE   En4  v104
 BYTE   W08
 BYTE   Cn4  v080
 BYTE   W08
 BYTE   Gn3  v068
 BYTE   W08
 BYTE   En4  v096
 BYTE   W08
 BYTE   Cn4  v080
 BYTE   W08
 BYTE   Gn3
 BYTE   W08
 BYTE   Dn4  v112
 BYTE   W08
 BYTE   As3  v072
 BYTE   W08
 BYTE   Fn3
 BYTE   W08
 BYTE   Dn4  v092
 BYTE   W08
 BYTE   As3  v076
 BYTE   W08
 BYTE   N06  Fn3  v072
 BYTE   W08
// 018   ----------------------------------------
 BYTE   N07  En4  v104
 BYTE   W08
 BYTE   Cn4  v080
 BYTE   W08
 BYTE   Gn3  v060
 BYTE   W08
 BYTE   N08  En4  v088
 BYTE   W10
 BYTE   N05  Cn4  v084
 BYTE   W06
 BYTE   N07  Gn3  v076
 BYTE   W08
 BYTE   Fn4  v104
 BYTE   W08
 BYTE   Cn4  v084
 BYTE   W08
 BYTE   Gn3  v064
 BYTE   W08
 BYTE   Fn4  v092
 BYTE   W08
 BYTE   Cn4  v072
 BYTE   W08
 BYTE   Gn3  v068
 BYTE   W08
// 019   ----------------------------------------
 BYTE   En4  v104
 BYTE   W08
 BYTE   Cn4  v080
 BYTE   W08
 BYTE   Gn3  v068
 BYTE   W08
 BYTE   En4  v084
 BYTE   W08
 BYTE   Cn4  v072
 BYTE   W08
 BYTE   Gn3  v076
 BYTE   W08
 BYTE   Dn4  v104
 BYTE   W08
 BYTE   N05  Bn3  v068
 BYTE   W08
 BYTE   N07  Fn3  v076
 BYTE   W08
 BYTE   Dn4  v084
 BYTE   W08
 BYTE   As3  v052
 BYTE   W08
 BYTE   Fn3  v072
 BYTE   W08
// 020   ----------------------------------------
 BYTE   Cn4  v096
 BYTE   W08
 BYTE   Gs3  v068
 BYTE   W08
 BYTE   Ds3  v056
 BYTE   W08
 BYTE   Cn4  v088
 BYTE   W08
 BYTE   Gs3  v072
 BYTE   W08
 BYTE   N06  Ds3  v064
 BYTE   W08
 BYTE   N07  Dn4  v112
 BYTE   W08
 BYTE   As3  v064
 BYTE   W08
 BYTE   N06  Ds3  v056
 BYTE   W08
 BYTE   N07  Dn4  v092
 BYTE   W08
 BYTE   N06  As3  v056
 BYTE   W08
 BYTE   Ds3  v052
 BYTE   W08
// 021   ----------------------------------------
 BYTE   N07  Cn4  v096
 BYTE   W08
 BYTE   N06  Gs3  v076
 BYTE   W08
 BYTE   N07  Ds3  v048
 BYTE   W08
 BYTE   Cn4  v088
 BYTE   W08
 BYTE   N06  Gs3  v072
 BYTE   W08
 BYTE   N07  Ds3  v028
 BYTE   W08
 BYTE   Dn4  v112
 BYTE   W08
 BYTE   As3  v072
 BYTE   W08
 BYTE   Ds3  v064
 BYTE   W08
 BYTE   Dn4  v060
 BYTE   W08
 BYTE   As3  v064
 BYTE   W08
 BYTE   Ds3
 BYTE   W08
// 022   ----------------------------------------
 BYTE   Cn4  v104
 BYTE   W08
 BYTE   N06  Gs3  v080
 BYTE   W08
 BYTE   N07  Ds3  v044
 BYTE   W08
 BYTE   Cn4  v068
 BYTE   W08
 BYTE   Gs3  v072
 BYTE   W08
 BYTE   Ds3  v048
 BYTE   W08
 BYTE   Dn4  v100
 BYTE   W08
 BYTE   Gs3  v076
 BYTE   W08
 BYTE   Ds3  v064
 BYTE   W08
 BYTE   Dn4  v088
 BYTE   W08
 BYTE   Gs3  v068
 BYTE   W08
 BYTE   Ds3
 BYTE   W08
// 023   ----------------------------------------
 BYTE   Cn4  v100
 BYTE   W08
 BYTE   Gs3  v072
 BYTE   W08
 BYTE   Ds3  v068
 BYTE   W08
 BYTE   Cn4  v088
 BYTE   W08
 BYTE   Gs3  v072
 BYTE   W08
 BYTE   N06  Ds3  v048
 BYTE   W08
 BYTE   N07  Bn3  v088
 BYTE   W08
 BYTE   Gn3  v076
 BYTE   W08
 BYTE   Dn3  v080
 BYTE   W08
 BYTE   Bn3  v096
 BYTE   W08
 BYTE   Gn3  v084
 BYTE   W08
 BYTE   Dn3  v088
 BYTE   W08
// 024   ----------------------------------------
 BYTE   GoTo
  POIN2 Label_0_010BF66E
 BYTE   FINE

//**************** Track 2 (Midi-Chn.1) ****************//

FE06WinningRoadTristanHollow_002:
// 000   ----------------------------------------
 BYTE   KEYSH   FE06WinningRoadTristanHollow_key+0
Label_1_010BF922:
 BYTE   VOICE   63
 BYTE   MOD 0
 BYTE   CnM2  v000
 BYTE   CnM2  v000
 BYTE   CnM2
 BYTE   MODT 0
 BYTE   CnM2  v000
 BYTE   CnM2  v000
 BYTE   Gn8
 BYTE   VOL   49*FE06WinningRoadTristanHollow_mvl/mxv
 BYTE   PAN   c_v+8
 BYTE   N28  Cn3  v084
 BYTE   W30
 BYTE   N05  Cn3  v016
 BYTE   W06
 BYTE   Gn2  v076
 BYTE   W06
 BYTE   Cn3  v084
 BYTE   W06
 BYTE   N32  Dn3  v088
 BYTE   W36
 BYTE   N11  Dn3  v016
 BYTE   W12
// 001   ----------------------------------------
 BYTE   N23  En3  v096
 BYTE   W24
 BYTE   N05  En3  v016
 BYTE   W06
 BYTE   Dn3  v084
 BYTE   W06
 BYTE   En3
 BYTE   W06
 BYTE   Fn3  v076
 BYTE   W06
 BYTE   N17  Gn3  v084
 BYTE   W18
 BYTE   N05  Gn3  v016
 BYTE   W06
 BYTE   N17  Cn3  v092
 BYTE   W18
 BYTE   N05  Cn3  v016
 BYTE   W06
// 002   ----------------------------------------
 BYTE   N28  Cn4  v080
 BYTE   W30
 BYTE   N05  Cn4  v016
 BYTE   W06
 BYTE   As3  v088
 BYTE   W06
 BYTE   Gs3  v072
 BYTE   W06
 BYTE   N17  Gn3  v084
 BYTE   W18
 BYTE   N05  Gn3  v016
 BYTE   W06
 BYTE   N17  Fn3  v076
 BYTE   W18
 BYTE   N05  Fn3  v016
 BYTE   W06
// 003   ----------------------------------------
 BYTE   N23  Gn3  v080
 BYTE   W24
 BYTE   N07  Cn3  v084
 BYTE   W08
 BYTE   En3  v088
 BYTE   W08
 BYTE   Gn3  v080
 BYTE   W08
 BYTE   N28  Cn4
 BYTE   W30
 BYTE   N11  Cn4  v016
 BYTE   W18
// 004   ----------------------------------------
 BYTE   N28  Cn3  v092
 BYTE   W30
 BYTE   N05  Cn3  v016
 BYTE   W06
 BYTE   Gn2  v088
 BYTE   W06
 BYTE   Cn3  v084
 BYTE   W06
 BYTE   N40  Dn3  v088
 BYTE   W42
 BYTE   N05  Dn3  v016
 BYTE   W06
// 005   ----------------------------------------
 BYTE   N23  En3  v088
 BYTE   W24
 BYTE   N05  En3  v016
 BYTE   W06
 BYTE   Dn3  v084
 BYTE   W06
 BYTE   En3  v080
 BYTE   W06
 BYTE   Fn3  v072
 BYTE   W06
 BYTE   N15  Gn3  v080
 BYTE   W18
 BYTE   N05  Gn3  v016
 BYTE   W06
 BYTE   N17  Cn3  v080
 BYTE   W18
 BYTE   N05  Cn3  v016
 BYTE   W06
// 006   ----------------------------------------
 BYTE   N28  Cn4  v076
 BYTE   W30
 BYTE   N05  Cn4  v016
 BYTE   W06
 BYTE   As3  v060
 BYTE   W06
 BYTE   Gs3  v064
 BYTE   W06
 BYTE   N16  Gn3  v084
 BYTE   W18
 BYTE   N05  Gn3  v016
 BYTE   W06
 BYTE   N17  Fn3  v076
 BYTE   W18
 BYTE   N05  Fn3  v016
 BYTE   W06
// 007   ----------------------------------------
 BYTE   N23  Gn3  v068
 BYTE   W24
 BYTE   N04  Cn4  v084
 BYTE   W08
 BYTE   N03  Cn4  v072
 BYTE   W08
 BYTE   N04  Cn4  v076
 BYTE   W08
 BYTE   N17  Cn4  v080
 BYTE   W18
 BYTE   N05  Cn4  v016
 BYTE   W06
 BYTE   N07  Cn3  v088
 BYTE   W08
 BYTE   N06  En3  v096
 BYTE   W08
 BYTE   Gn3  v080
 BYTE   W08
// 008   ----------------------------------------
 BYTE   N92  Cn4
 BYTE   W36
 BYTE   W03
 BYTE   MOD 0
 BYTE   CnM2  v000
 BYTE   CnM2  v000
 BYTE   CnM2
 BYTE   W03
 BYTE   CsM2
 BYTE   W03
 BYTE   DnM2
 BYTE   W03
 BYTE   DsM2
 BYTE   W03
 BYTE   FnM2
 BYTE   W03
 BYTE   FsM2
 BYTE   W03
 BYTE   GnM2
 BYTE   W03
 BYTE   AnM2
 BYTE   W03
 BYTE   AsM2
 BYTE   W03
 BYTE   BnM2
 BYTE   W03
 BYTE   CnM1
 BYTE   W03
 BYTE   DnM1
 BYTE   W03
 BYTE   DsM1
 BYTE   W03
 BYTE   EnM1
 BYTE   W03
 BYTE   FsM1
 BYTE   W03
 BYTE   GnM1
 BYTE   W03
 BYTE   GsM1
 BYTE   W01
 BYTE   AnM1
 BYTE   W01
 BYTE   GsM1
 BYTE   W02
 BYTE   FsM1
 BYTE   W01
 BYTE   EnM1
 BYTE   W02
 BYTE   DsM1
 BYTE   W01
 BYTE   CsM1
 BYTE   W01
// 009   ----------------------------------------
 BYTE   N11  Cn4  v016
 BYTE   W01
 BYTE   MOD 0
 BYTE   CnM2  v000
 BYTE   CnM2  v000
 BYTE   BnM2
 BYTE   W01
 BYTE   AsM2
 BYTE   W02
 BYTE   GsM2
 BYTE   W01
 BYTE   FsM2
 BYTE   W02
 BYTE   FnM2
 BYTE   W01
 BYTE   DsM2
 BYTE   W02
 BYTE   CnM2
 BYTE   W14
 BYTE   N03  Cn4  v096
 BYTE   W08
 BYTE   Cn4  v088
 BYTE   W08
 BYTE   N04
 BYTE   W08
 BYTE   N16
 BYTE   W18
 BYTE   N05  Cn4  v016
 BYTE   W06
 BYTE   N07  Cn3  v084
 BYTE   W08
 BYTE   N06  Ds3  v088
 BYTE   W08
 BYTE   Gn3  v084
 BYTE   W08
// 010   ----------------------------------------
 BYTE   N92  Cn4  v076
 BYTE   W48
 BYTE   W03
 BYTE   MOD 0
 BYTE   CnM2  v000
 BYTE   CnM2  v000
 BYTE   CnM2
 BYTE   W03
 BYTE   CsM2
 BYTE   W04
 BYTE   DnM2
 BYTE   W03
 BYTE   DsM2
 BYTE   W04
 BYTE   EnM2
 BYTE   W03
 BYTE   FnM2
 BYTE   W03
 BYTE   FsM2
 BYTE   W04
 BYTE   GnM2
 BYTE   W03
 BYTE   GsM2
 BYTE   W03
 BYTE   AnM2
 BYTE   W04
 BYTE   AsM2
 BYTE   W03
 BYTE   BnM2
 BYTE   W03
 BYTE   CnM1
 BYTE   W03
 BYTE   BnM2
 BYTE   W02
// 011   ----------------------------------------
 BYTE   N05  Cn4  v016
 BYTE   W01
 BYTE   MOD 0
 BYTE   CnM2  v000
 BYTE   CnM2  v000
 BYTE   AsM2
 BYTE   W03
 BYTE   GsM2
 BYTE   W03
 BYTE   GnM2
 BYTE   W03
 BYTE   FnM2
 BYTE   W03
 BYTE   EnM2
 BYTE   W03
 BYTE   DnM2
 BYTE   W03
 BYTE   CsM2
 BYTE   W01
 BYTE   CnM2
 BYTE   W04
 BYTE   N04  Cn4  v076
 BYTE   W08
 BYTE   N03  Cn4  v072
 BYTE   W08
 BYTE   N04  Cn4  v080
 BYTE   W08
 BYTE   N17  Cn4  v084
 BYTE   W18
 BYTE   N05  Cn4  v016
 BYTE   W06
 BYTE   N17  Cn4  v076
 BYTE   W18
 BYTE   N05  Cn4  v016
 BYTE   W06
// 012   ----------------------------------------
 BYTE   N23  Cn4  v088
 BYTE   W24
 BYTE   N07  Cn3  v080
 BYTE   W08
 BYTE   Ds3  v064
 BYTE   W08
 BYTE   Gn3
 BYTE   W08
 BYTE   N44  Cn4  v068
 BYTE   W48
// 013   ----------------------------------------
 BYTE   N05  Cn4  v016
 BYTE   W24
 BYTE   N02  Cn4  v072
 BYTE   W08
 BYTE   N03
 BYTE   W08
 BYTE   N04  Cn4  v084
 BYTE   W08
 BYTE   N17  Cn4  v080
 BYTE   W18
 BYTE   N05  Cn4  v016
 BYTE   W06
 BYTE   N44  Cn4  v072
 BYTE   W24
// 014   ----------------------------------------
 BYTE   W24
 BYTE   N07  Cn3  v088
 BYTE   W08
 BYTE   Ds3  v068
 BYTE   W08
 BYTE   Gn3  v072
 BYTE   W08
 BYTE   N56  Cn4  v088
 BYTE   W24
 BYTE   W03
 BYTE   MOD 0
 BYTE   CnM2  v000
 BYTE   CnM2  v000
 BYTE   CnM2
 BYTE   W03
 BYTE   CsM2
 BYTE   W03
 BYTE   DnM2
 BYTE   W03
 BYTE   DsM2
 BYTE   W03
 BYTE   EnM2
 BYTE   W03
 BYTE   FnM2
 BYTE   W03
 BYTE   GnM2
 BYTE   W03
// 015   ----------------------------------------
 BYTE   GsM2
 BYTE   W03
 BYTE   AnM2
 BYTE   W01
 BYTE   AsM2
 BYTE   W03
 BYTE   AnM2
 BYTE   W03
 BYTE   GnM2
 BYTE   W02
 BYTE   N11  Cn4  v016
 BYTE   W01
 BYTE   MOD 0
 BYTE   CnM2  v000
 BYTE   CnM2  v000
 BYTE   FsM2
 BYTE   W03
 BYTE   EnM2
 BYTE   W03
 BYTE   DsM2
 BYTE   W03
 BYTE   CsM2
 BYTE   W01
 BYTE   CnM2
 BYTE   W01
 BYTE   N04  Cn4  v068
 BYTE   W08
 BYTE   Cn4  v080
 BYTE   W08
 BYTE   N07  Cn4  v064
 BYTE   W08
 BYTE   N16  Bn3  v080
 BYTE   W18
 BYTE   N05  Bn3  v016
 BYTE   W06
 BYTE   N17  Bn3  v088
 BYTE   W18
 BYTE   N05  Bn3  v016
 BYTE   W06
// 016   ----------------------------------------
 BYTE   VOICE   85
 BYTE   VOL   50*FE06WinningRoadTristanHollow_mvl/mxv
 BYTE   PAN   c_v+11
 BYTE   N44  Cn4  v096
 BYTE   W48
 BYTE   Gn4  v092
 BYTE   W48
// 017   ----------------------------------------
 BYTE   Fn4  v088
 BYTE   W48
 BYTE   Dn4  v096
 BYTE   W48
// 018   ----------------------------------------
 BYTE   En4
 BYTE   W48
 BYTE   Cn4  v084
 BYTE   W48
// 019   ----------------------------------------
 BYTE   Dn4  v072
 BYTE   W48
 BYTE   Gn4  v092
 BYTE   W48
// 020   ----------------------------------------
 BYTE   Cn4  v080
 BYTE   W48
 BYTE   Gn4  v096
 BYTE   W48
// 021   ----------------------------------------
 BYTE   Fn4  v080
 BYTE   W48
 BYTE   Cn4  v096
 BYTE   W48
// 022   ----------------------------------------
 BYTE   Gn4  v084
 BYTE   W48
 BYTE   Fn4
 BYTE   W48
// 023   ----------------------------------------
 BYTE   Cn4  v096
 BYTE   W48
 BYTE   Dn4  v108
 BYTE   W48
// 024   ----------------------------------------
 BYTE   GoTo
  POIN2 Label_1_010BF922
 BYTE   FINE

//**************** Track 3 (Midi-Chn.2) ****************//

FE06WinningRoadTristanHollow_003:
// 000   ----------------------------------------
 BYTE   KEYSH   FE06WinningRoadTristanHollow_key+0
Label_2_010BFB9E:
 BYTE   VOICE   41
 BYTE   VOL   48*FE06WinningRoadTristanHollow_mvl/mxv
 BYTE   PAN   c_v-13
 BYTE   N44  En3  v092
 BYTE   W48
 BYTE   Fn3
 BYTE   W48
// 001   ----------------------------------------
 BYTE   Gn3
 BYTE   W48
 BYTE   Cn3  v096
 BYTE   W48
// 002   ----------------------------------------
 BYTE   Gs3  v100
 BYTE   W48
 BYTE   As3  v084
 BYTE   W48
// 003   ----------------------------------------
 BYTE   N92  Cn4  v092
 BYTE   W96
// 004   ----------------------------------------
 BYTE   N44  En3
 BYTE   W48
 BYTE   Fn3
 BYTE   W48
// 005   ----------------------------------------
 BYTE   Gn3
 BYTE   W48
 BYTE   Cn3  v080
 BYTE   W48
// 006   ----------------------------------------
 BYTE   Gs3  v092
 BYTE   W48
 BYTE   As3  v084
 BYTE   W48
// 007   ----------------------------------------
 BYTE   N88  Cn4
 BYTE   W96
// 008   ----------------------------------------
 BYTE   W96
// 009   ----------------------------------------
 BYTE   W96
// 010   ----------------------------------------
 BYTE   W96
// 011   ----------------------------------------
 BYTE   W96
// 012   ----------------------------------------
 BYTE   W96
// 013   ----------------------------------------
 BYTE   W96
// 014   ----------------------------------------
 BYTE   W72
 BYTE   VOICE   85
 BYTE   VOL   50*FE06WinningRoadTristanHollow_mvl/mxv
 BYTE   PAN   c_v+11
 BYTE   W24
// 015   ----------------------------------------
 BYTE   W44
 BYTE   W03
 BYTE   N48  Gn2  v104
 BYTE   N48  Bn2  v100
 BYTE   W24
 BYTE   W01
 BYTE   VOICE   41
 BYTE   VOL   48*FE06WinningRoadTristanHollow_mvl/mxv
 BYTE   PAN   c_v-26
 BYTE   W24
// 016   ----------------------------------------
 BYTE   TIE  Cn3  v084
 BYTE   W96
// 017   ----------------------------------------
 BYTE   W96
// 018   ----------------------------------------
 BYTE   W96
// 019   ----------------------------------------
 BYTE   W90
 BYTE   W01
 BYTE   EOT
 BYTE   W05
// 020   ----------------------------------------
 BYTE   TIE  Gn3  v096
 BYTE   W96
// 021   ----------------------------------------
 BYTE   W96
// 022   ----------------------------------------
 BYTE   W96
// 023   ----------------------------------------
 BYTE   W44
 BYTE   W03
 BYTE   EOT
 BYTE   W01
 BYTE   N44  Fn3  v092
 BYTE   W48
// 024   ----------------------------------------
 BYTE   GoTo
  POIN2 Label_2_010BFB9E
 BYTE   FINE

//**************** Track 4 (Midi-Chn.3) ****************//

FE06WinningRoadTristanHollow_004:
// 000   ----------------------------------------
 BYTE   KEYSH   FE06WinningRoadTristanHollow_key+0
Label_3_010BFC0E:
 BYTE   VOICE   58
 BYTE   VOL   61*FE06WinningRoadTristanHollow_mvl/mxv
 BYTE   PAN   c_v+0
 BYTE   N07  Gn2  v096
 BYTE   W12
 BYTE   N11  Gn2  v004
 BYTE   W12
 BYTE   N07  Gn2  v096
 BYTE   W12
 BYTE   Gn2  v008
 BYTE   W12
 BYTE   Gn2  v100
 BYTE   W12
 BYTE   Gn2  v008
 BYTE   W12
 BYTE   Gn2  v104
 BYTE   W12
 BYTE   Gn2  v016
 BYTE   W12
// 001   ----------------------------------------
 BYTE   N09  Gn2  v104
 BYTE   W12
 BYTE   Gn2  v016
 BYTE   W12
 BYTE   Gn2  v104
 BYTE   W12
 BYTE   Gn2  v016
 BYTE   W12
 BYTE   N07  Gn2  v108
 BYTE   W12
 BYTE   Gn2  v016
 BYTE   W12
 BYTE   N08  Gn2  v104
 BYTE   W12
 BYTE   Gn2  v016
 BYTE   W12
// 002   ----------------------------------------
 BYTE   N07  Ds2  v108
 BYTE   W12
 BYTE   Ds2  v020
 BYTE   W12
 BYTE   N09  Ds2  v104
 BYTE   W12
 BYTE   Ds2  v016
 BYTE   W12
 BYTE   N10  Fn2  v104
 BYTE   W12
 BYTE   Fn2  v016
 BYTE   W12
 BYTE   N08  Fn2  v104
 BYTE   W12
 BYTE   Fn2  v012
 BYTE   W12
// 003   ----------------------------------------
 BYTE   N11  Gn2  v104
 BYTE   W12
 BYTE   Gn2  v012
 BYTE   W12
 BYTE   N09  Gn2  v100
 BYTE   W12
 BYTE   Gn2  v008
 BYTE   W12
 BYTE   N08  Gn2  v100
 BYTE   W12
 BYTE   Gn2  v012
 BYTE   W12
 BYTE   Gn2  v100
 BYTE   W12
 BYTE   Gn2  v008
 BYTE   W12
// 004   ----------------------------------------
 BYTE   Gn2  v108
 BYTE   W12
 BYTE   Gn2  v016
 BYTE   W12
 BYTE   Gn2  v100
 BYTE   W12
 BYTE   Gn2  v012
 BYTE   W12
 BYTE   Gn2  v100
 BYTE   W12
 BYTE   Gn2  v008
 BYTE   W12
 BYTE   N07  Gn2  v100
 BYTE   W12
 BYTE   Gn2  v012
 BYTE   W12
// 005   ----------------------------------------
 BYTE   Gn2  v104
 BYTE   W12
 BYTE   Gn2  v016
 BYTE   W12
 BYTE   N06  Gn2  v100
 BYTE   W12
 BYTE   Gn2  v008
 BYTE   W12
 BYTE   N07  Gn2  v104
 BYTE   W12
 BYTE   Gn2  v016
 BYTE   W12
 BYTE   N06  Gn2  v104
 BYTE   W12
 BYTE   Gn2  v016
 BYTE   W12
// 006   ----------------------------------------
 BYTE   N08  Ds2  v096
 BYTE   W12
 BYTE   Ds2  v008
 BYTE   W12
 BYTE   Ds2  v092
 BYTE   W12
 BYTE   Ds2  v004
 BYTE   W12
 BYTE   N09  Fn2  v100
 BYTE   W12
 BYTE   Fn2  v012
 BYTE   W12
 BYTE   Fn2  v100
 BYTE   W12
 BYTE   Fn2  v012
 BYTE   W12
// 007   ----------------------------------------
 BYTE   Gn2  v100
 BYTE   W12
 BYTE   Gn2  v008
 BYTE   W12
 BYTE   N08  Gn2  v100
 BYTE   W12
 BYTE   Gn2  v012
 BYTE   W12
 BYTE   N07  Gn2  v104
 BYTE   W12
 BYTE   Gn2  v016
 BYTE   W12
 BYTE   N05  Gn2  v092
 BYTE   W12
 BYTE   Gn2  v004
 BYTE   W12
// 008   ----------------------------------------
 BYTE   TIE  Ds2  v104
 BYTE   W96
// 009   ----------------------------------------
 BYTE   W64
 BYTE   EOT
 BYTE   W08
 BYTE   N12  Ds2  v088
 BYTE   W24
// 010   ----------------------------------------
 BYTE   TIE  Ds2  v104
 BYTE   W96
// 011   ----------------------------------------
 BYTE   W56
 BYTE   W02
 BYTE   EOT
 BYTE   W14
 BYTE   N14  Ds2  v088
 BYTE   W24
// 012   ----------------------------------------
 BYTE   TIE  Cn2  v100
 BYTE   W96
// 013   ----------------------------------------
 BYTE   W60
 BYTE   W03
 BYTE   EOT
 BYTE   W09
 BYTE   N13  Cn2  v104
 BYTE   W24
// 014   ----------------------------------------
 BYTE   TIE  Cn2  v108
 BYTE   W96
// 015   ----------------------------------------
 BYTE   W16
 BYTE   EOT
 BYTE   W08
 BYTE   N09
 BYTE   W12
 BYTE   Cn2  v032
 BYTE   W12
 BYTE   N08  Dn2  v112
 BYTE   W12
 BYTE   Dn2  v036
 BYTE   W12
 BYTE   Dn2  v104
 BYTE   W12
 BYTE   Dn2  v028
 BYTE   W12
// 016   ----------------------------------------
 BYTE   W24
 BYTE   N09  Cn2  v112
 BYTE   W12
 BYTE   Cn2  v024
 BYTE   W36
 BYTE   N10  Cn2  v108
 BYTE   W12
 BYTE   Cn2  v020
 BYTE   W12
// 017   ----------------------------------------
 BYTE   W24
 BYTE   Cn2  v112
 BYTE   W12
 BYTE   Cn2  v024
 BYTE   W36
 BYTE   Cn2  v108
 BYTE   W12
 BYTE   Cn2  v020
 BYTE   W12
// 018   ----------------------------------------
 BYTE   W24
 BYTE   Cn2  v112
 BYTE   W12
 BYTE   Cn2  v024
 BYTE   W36
 BYTE   Cn2  v104
 BYTE   W12
 BYTE   Cn2  v020
 BYTE   W12
// 019   ----------------------------------------
 BYTE   W24
 BYTE   N07  Cn2  v104
 BYTE   W12
 BYTE   Cn2  v016
 BYTE   W36
 BYTE   N09  Cn2  v104
 BYTE   W12
 BYTE   Cn2  v016
 BYTE   W12
// 020   ----------------------------------------
 BYTE   W24
 BYTE   N10  Gs2  v080
 BYTE   W12
 BYTE   Gs2  v004
 BYTE   W36
 BYTE   Gs2  v100
 BYTE   W12
 BYTE   Gs2  v012
 BYTE   W12
// 021   ----------------------------------------
 BYTE   W24
 BYTE   N09  Gs2  v096
 BYTE   W12
 BYTE   Gs2  v012
 BYTE   W36
 BYTE   N10  Gs2  v096
 BYTE   W12
 BYTE   Gs2  v008
 BYTE   W12
// 022   ----------------------------------------
 BYTE   W24
 BYTE   Fn2  v104
 BYTE   W12
 BYTE   Fn2  v016
 BYTE   W36
 BYTE   N08  Fn2  v108
 BYTE   W12
 BYTE   Fn2  v020
 BYTE   W12
// 023   ----------------------------------------
 BYTE   W24
 BYTE   N09  Gn2  v104
 BYTE   W12
 BYTE   Gn2  v016
 BYTE   W36
 BYTE   Gn2  v104
 BYTE   W12
 BYTE   Gn2  v016
 BYTE   W12
// 024   ----------------------------------------
 BYTE   GoTo
  POIN2 Label_3_010BFC0E
 BYTE   FINE

//**************** Track 5 (Midi-Chn.4) ****************//

FE06WinningRoadTristanHollow_005:
// 000   ----------------------------------------
 BYTE   KEYSH   FE06WinningRoadTristanHollow_key+0
Label_4_010BFDA2:
 BYTE   VOICE   58
 BYTE   VOL   59*FE06WinningRoadTristanHollow_mvl/mxv
 BYTE   PAN   c_v+0
 BYTE   N08  Cn2  v088
 BYTE   W12
 BYTE   N11  Cn2  v004
 BYTE   W12
 BYTE   N07  Cn2  v092
 BYTE   W12
 BYTE   Cn2  v004
 BYTE   W12
 BYTE   Cn2  v096
 BYTE   W12
 BYTE   Cn2  v004
 BYTE   W12
 BYTE   N06  Cn2  v100
 BYTE   W12
 BYTE   Cn2  v008
 BYTE   W12
// 001   ----------------------------------------
 BYTE   N09  Cn2  v100
 BYTE   W12
 BYTE   Cn2  v008
 BYTE   W12
 BYTE   N08  Cn2  v100
 BYTE   W12
 BYTE   Cn2  v012
 BYTE   W12
 BYTE   N06  Cn2  v100
 BYTE   W12
 BYTE   Cn2  v012
 BYTE   W12
 BYTE   N08  Cn2  v096
 BYTE   W12
 BYTE   Cn2  v008
 BYTE   W12
// 002   ----------------------------------------
 BYTE   N10  Gs1  v096
 BYTE   W12
 BYTE   Gs1  v004
 BYTE   W12
 BYTE   N06  Gs1  v092
 BYTE   W12
 BYTE   N11  Gs1  v004
 BYTE   W12
 BYTE   As1  v088
 BYTE   W12
 BYTE   As1  v004
 BYTE   W12
 BYTE   N08  As1  v084
 BYTE   W12
 BYTE   As1  v004
 BYTE   W12
// 003   ----------------------------------------
 BYTE   N11  Cn2  v096
 BYTE   W12
 BYTE   Cn2  v004
 BYTE   W12
 BYTE   N08  Cn2  v100
 BYTE   W12
 BYTE   Cn2  v008
 BYTE   W12
 BYTE   Cn2  v096
 BYTE   W12
 BYTE   Cn2  v008
 BYTE   W12
 BYTE   N07  Cn2  v096
 BYTE   W12
 BYTE   Cn2  v004
 BYTE   W12
// 004   ----------------------------------------
 BYTE   Cn2  v104
 BYTE   W12
 BYTE   Cn2  v016
 BYTE   W12
 BYTE   N08  Cn2  v096
 BYTE   W12
 BYTE   Cn2  v008
 BYTE   W12
 BYTE   Cn2  v096
 BYTE   W12
 BYTE   Cn2  v008
 BYTE   W12
 BYTE   N06  Cn2  v096
 BYTE   W12
 BYTE   Cn2  v004
 BYTE   W12
// 005   ----------------------------------------
 BYTE   Cn2  v100
 BYTE   W12
 BYTE   Cn2  v012
 BYTE   W12
 BYTE   Cn2  v100
 BYTE   W12
 BYTE   Cn2  v012
 BYTE   W12
 BYTE   Cn2  v100
 BYTE   W12
 BYTE   Cn2  v012
 BYTE   W12
 BYTE   Cn2  v100
 BYTE   W12
 BYTE   Cn2  v012
 BYTE   W12
// 006   ----------------------------------------
 BYTE   N09  Gs1  v088
 BYTE   W12
 BYTE   Gs1  v004
 BYTE   W12
 BYTE   Gs1  v096
 BYTE   W12
 BYTE   Gs1  v004
 BYTE   W12
 BYTE   As1  v092
 BYTE   W12
 BYTE   As1  v004
 BYTE   W12
 BYTE   N08  As1  v092
 BYTE   W12
 BYTE   As1  v004
 BYTE   W12
// 007   ----------------------------------------
 BYTE   N09  Cn2  v096
 BYTE   W12
 BYTE   Cn2  v004
 BYTE   W12
 BYTE   N07  Cn2  v100
 BYTE   W12
 BYTE   Cn2  v008
 BYTE   W12
 BYTE   Cn2  v100
 BYTE   W12
 BYTE   Cn2  v012
 BYTE   W12
 BYTE   N06  Cn2  v104
 BYTE   W12
 BYTE   Cn2  v012
 BYTE   W12
// 008   ----------------------------------------
 BYTE   TIE  Gs1  v096
 BYTE   W96
// 009   ----------------------------------------
 BYTE   W64
 BYTE   W01
 BYTE   EOT
 BYTE   W07
 BYTE   N13  Gs1  v084
 BYTE   W24
// 010   ----------------------------------------
 BYTE   TIE  Gs1  v080
 BYTE   W96
// 011   ----------------------------------------
 BYTE   W56
 BYTE   W02
 BYTE   EOT
 BYTE   W14
 BYTE   N15  Gs1  v084
 BYTE   W24
// 012   ----------------------------------------
 BYTE   TIE  Fn1  v096
 BYTE   W96
// 013   ----------------------------------------
 BYTE   W60
 BYTE   W02
 BYTE   EOT
 BYTE   W10
 BYTE   N14  Fn1  v092
 BYTE   W24
// 014   ----------------------------------------
 BYTE   TIE  Fn1  v100
 BYTE   W96
// 015   ----------------------------------------
 BYTE   W16
 BYTE   EOT
 BYTE   W08
 BYTE   N09  Fn1  v096
 BYTE   W12
 BYTE   Fn1  v020
 BYTE   W12
 BYTE   Gn1  v096
 BYTE   W12
 BYTE   Gn1  v020
 BYTE   W12
 BYTE   N08  Gn1  v096
 BYTE   W12
 BYTE   Gn1  v020
 BYTE   W12
// 016   ----------------------------------------
 BYTE   W24
 BYTE   N09  Cn1  v100
 BYTE   W12
 BYTE   Cn1  v012
 BYTE   W36
 BYTE   Cn1  v100
 BYTE   W12
 BYTE   Cn1  v012
 BYTE   W12
// 017   ----------------------------------------
 BYTE   W24
 BYTE   N11  Cn1  v112
 BYTE   W12
 BYTE   Cn1  v024
 BYTE   W36
 BYTE   N09  Cn1  v104
 BYTE   W12
 BYTE   Cn1  v020
 BYTE   W12
// 018   ----------------------------------------
 BYTE   W24
 BYTE   N10  Cn1  v104
 BYTE   W12
 BYTE   Cn1  v020
 BYTE   W36
 BYTE   Cn1  v100
 BYTE   W12
 BYTE   Cn1  v012
 BYTE   W12
// 019   ----------------------------------------
 BYTE   W24
 BYTE   N07  Cn1  v108
 BYTE   W12
 BYTE   Cn1  v020
 BYTE   W36
 BYTE   N08  Cn1  v096
 BYTE   W12
 BYTE   Cn1  v008
 BYTE   W12
// 020   ----------------------------------------
 BYTE   W24
 BYTE   Gs1  v088
 BYTE   W12
 BYTE   Gs1  v008
 BYTE   W36
 BYTE   N10  Gs1  v092
 BYTE   W12
 BYTE   Gs1  v004
 BYTE   W12
// 021   ----------------------------------------
 BYTE   W24
 BYTE   N09  Gs1  v092
 BYTE   W12
 BYTE   Gs1  v008
 BYTE   W36
 BYTE   N10  Gs1  v088
 BYTE   W12
 BYTE   Gs1  v004
 BYTE   W12
// 022   ----------------------------------------
 BYTE   W24
 BYTE   Fn1  v096
 BYTE   W12
 BYTE   Fn1  v008
 BYTE   W36
 BYTE   Fn1  v100
 BYTE   W12
 BYTE   Fn1  v016
 BYTE   W12
// 023   ----------------------------------------
 BYTE   W24
 BYTE   N09  Gn1  v100
 BYTE   W12
 BYTE   Gn1  v016
 BYTE   W36
 BYTE   N08  Gn1  v104
 BYTE   W12
 BYTE   Gn1  v016
 BYTE   W12
// 024   ----------------------------------------
 BYTE   GoTo
  POIN2 Label_4_010BFDA2
 BYTE   FINE

//**************** Track 6 (Midi-Chn.5) ****************//

FE06WinningRoadTristanHollow_006:
// 000   ----------------------------------------
 BYTE   KEYSH   FE06WinningRoadTristanHollow_key+0
Label_5_010BFF3A:
 BYTE   VOICE   127
 BYTE   VOL   60*FE06WinningRoadTristanHollow_mvl/mxv
 BYTE   PAN   c_v+0
 BYTE   N23  An2  v096
 BYTE   W24
 BYTE   N10  Dn1  v072
 BYTE   W16
 BYTE   N07
 BYTE   W08
 BYTE   N10  Dn1  v092
 BYTE   W16
 BYTE   N07  Dn1  v072
 BYTE   W08
 BYTE   N10  Dn1  v080
 BYTE   W16
 BYTE   N07  Dn1  v072
 BYTE   W08
// 001   ----------------------------------------
 BYTE   N10  Dn1  v092
 BYTE   W16
 BYTE   N07  Dn1  v072
 BYTE   W08
 BYTE   N09  Dn1  v080
 BYTE   W16
 BYTE   N07  Dn1  v072
 BYTE   W08
 BYTE   N10  Dn1  v092
 BYTE   W16
 BYTE   N07  Dn1  v072
 BYTE   W08
 BYTE   N10  Dn1  v092
 BYTE   W16
 BYTE   N07  Dn1  v072
 BYTE   W08
// 002   ----------------------------------------
 BYTE   N10  Dn1  v100
 BYTE   W16
 BYTE   N07  Dn1  v072
 BYTE   W08
 BYTE   N09  Dn1  v092
 BYTE   W16
 BYTE   N07  Dn1  v072
 BYTE   W08
 BYTE   N10  Dn1  v100
 BYTE   W16
 BYTE   N07  Dn1  v072
 BYTE   W08
 BYTE   N10  Dn1  v100
 BYTE   W16
 BYTE   N07  Dn1  v072
 BYTE   W08
// 003   ----------------------------------------
 BYTE   N09  Dn1  v100
 BYTE   W16
 BYTE   N07  Dn1  v072
 BYTE   W08
 BYTE   Dn1  v100
 BYTE   W08
 BYTE   Dn1  v088
 BYTE   W08
 BYTE   Dn1  v080
 BYTE   W08
 BYTE   N10  Dn1  v100
 BYTE   W16
 BYTE   N07  Dn1  v072
 BYTE   W08
 BYTE   N09  Dn1  v100
 BYTE   W16
 BYTE   N07  Dn1  v072
 BYTE   W08
// 004   ----------------------------------------
 BYTE   N23  An2  v096
 BYTE   W24
 BYTE   N09  Dn1  v100
 BYTE   W16
 BYTE   N07  Dn1  v072
 BYTE   W08
 BYTE   N10  Dn1  v100
 BYTE   W16
 BYTE   N07  Dn1  v072
 BYTE   W08
 BYTE   N10  Dn1  v100
 BYTE   W16
 BYTE   N07  Dn1  v072
 BYTE   W08
// 005   ----------------------------------------
 BYTE   N10  Dn1  v100
 BYTE   W16
 BYTE   N07  Dn1  v072
 BYTE   W08
 BYTE   N10  Dn1  v100
 BYTE   W16
 BYTE   N07  Dn1  v072
 BYTE   W08
 BYTE   N09  Dn1  v100
 BYTE   W16
 BYTE   N07  Dn1  v072
 BYTE   W08
 BYTE   N09  Dn1  v100
 BYTE   W16
 BYTE   N07  Dn1  v072
 BYTE   W08
// 006   ----------------------------------------
 BYTE   N09  Dn1  v100
 BYTE   W16
 BYTE   N07  Dn1  v072
 BYTE   W08
 BYTE   N09  Dn1  v100
 BYTE   W16
 BYTE   N07  Dn1  v072
 BYTE   W08
 BYTE   N09  Dn1  v100
 BYTE   W16
 BYTE   N07  Dn1  v072
 BYTE   W08
 BYTE   N09  Dn1  v100
 BYTE   W16
 BYTE   N07  Dn1  v072
 BYTE   W08
// 007   ----------------------------------------
 BYTE   N09  Dn1  v100
 BYTE   W16
 BYTE   N07  Dn1  v072
 BYTE   W08
 BYTE   Dn1  v100
 BYTE   W08
 BYTE   Dn1  v096
 BYTE   W08
 BYTE   N07
 BYTE   W08
 BYTE   N10  Dn1  v100
 BYTE   W16
 BYTE   N07  Dn1  v072
 BYTE   W08
 BYTE   N09  Dn1  v100
 BYTE   W16
 BYTE   N07  Dn1  v072
 BYTE   W08
// 008   ----------------------------------------
 BYTE   N56  An2  v100
 BYTE   W96
// 009   ----------------------------------------
 BYTE   W72
 BYTE   N23  An2  v096
 BYTE   W24
// 010   ----------------------------------------
 BYTE   N56  An2  v100
 BYTE   W96
// 011   ----------------------------------------
 BYTE   W72
 BYTE   N23  An2  v096
 BYTE   W24
// 012   ----------------------------------------
 BYTE   N56  An2  v100
 BYTE   W96
// 013   ----------------------------------------
 BYTE   W72
 BYTE   N23  An2  v092
 BYTE   W24
// 014   ----------------------------------------
 BYTE   N52  An2  v100
 BYTE   W96
// 015   ----------------------------------------
 BYTE   W24
 BYTE   N23  An2  v080
 BYTE   W24
 BYTE   An2  v096
 BYTE   W24
 BYTE   An2  v100
 BYTE   W24
// 016   ----------------------------------------
 BYTE   N23
 BYTE   W24
 BYTE   VOL   64*FE06WinningRoadTristanHollow_mvl/mxv
 BYTE   N44  Dn1
 BYTE   W48
 BYTE   N44
 BYTE   W24
// 017   ----------------------------------------
Label_5_010C006A:
 BYTE   W24
 BYTE   N44  Dn1  v100
 BYTE   W48
 BYTE   N44
 BYTE   W24
 BYTE   PEND 
 BYTE   PATT
  POIN2 Label_5_010C006A
 BYTE   PATT
  POIN2 Label_5_010C006A
 BYTE   PATT
  POIN2 Label_5_010C006A
 BYTE   PATT
  POIN2 Label_5_010C006A
 BYTE   PATT
  POIN2 Label_5_010C006A
// 018   ----------------------------------------
 BYTE   W24
 BYTE   N44  Dn1  v100
 BYTE   W48
 BYTE   N23
 BYTE   N23  An2  v096
 BYTE   W24
// 019   ----------------------------------------
 BYTE   GoTo
  POIN2 Label_5_010BFF3A
 BYTE   FINE

//**************** Track 7 (Midi-Chn.6) ****************//

FE06WinningRoadTristanHollow_007:
// 000   ----------------------------------------
 BYTE   KEYSH   FE06WinningRoadTristanHollow_key+0
Label_6_010C009E:
 BYTE   VOICE   47
 BYTE   VOL   65*FE06WinningRoadTristanHollow_mvl/mxv
 BYTE   PAN   c_v-2
 BYTE   N28  Cn2  v100
 BYTE   W48
 BYTE   Cn2  v108
 BYTE   W48
// 001   ----------------------------------------
 BYTE   N24
 BYTE   W48
 BYTE   N28  Cn2  v120
 BYTE   W48
// 002   ----------------------------------------
Label_6_010C00B1:
 BYTE   N28  Cn2  v120
 BYTE   W48
 BYTE   N28
 BYTE   W48
 BYTE   PEND 
 BYTE   PATT
  POIN2 Label_6_010C00B1
// 003   ----------------------------------------
 BYTE   N28  Cn2  v120
 BYTE   W48
 BYTE   Cn2  v112
 BYTE   W48
 BYTE   PATT
  POIN2 Label_6_010C00B1
 BYTE   PATT
  POIN2 Label_6_010C00B1
// 004   ----------------------------------------
 BYTE   N28  Cn2  v120
 BYTE   W48
 BYTE   N23
 BYTE   W24
 BYTE   N23
 BYTE   W24
// 005   ----------------------------------------
 BYTE   N28
 BYTE   W96
// 006   ----------------------------------------
 BYTE   W24
 BYTE   N23  Gn2  v100
 BYTE   W24
 BYTE   Fn2  v104
 BYTE   W24
 BYTE   Gn2  v096
 BYTE   W24
// 007   ----------------------------------------
 BYTE   N36  Fn2  v120
 BYTE   W96
// 008   ----------------------------------------
 BYTE   W24
 BYTE   N23  Gn2  v104
 BYTE   W24
 BYTE   Fn2  v112
 BYTE   W24
 BYTE   Gn2  v100
 BYTE   W24
// 009   ----------------------------------------
 BYTE   N42  Fn2  v120
 BYTE   W96
// 010   ----------------------------------------
 BYTE   W24
 BYTE   N23  Gn2  v092
 BYTE   W24
 BYTE   Fn2  v104
 BYTE   W24
 BYTE   Gn2  v112
 BYTE   W24
// 011   ----------------------------------------
 BYTE   N42  Fn2
 BYTE   W96
// 012   ----------------------------------------
 BYTE   W24
 BYTE   N23  Gn2  v104
 BYTE   W24
 BYTE   Fn2  v116
 BYTE   W24
 BYTE   N40  Gn2
 BYTE   W24
// 013   ----------------------------------------
Label_6_010C010F:
 BYTE   W24
 BYTE   N44  Cn2  v120
 BYTE   W48
 BYTE   N44
 BYTE   W24
 BYTE   PEND 
// 014   ----------------------------------------
 BYTE   W24
 BYTE   N44
 BYTE   W48
 BYTE   Cn2  v112
 BYTE   W24
// 015   ----------------------------------------
 BYTE   W24
 BYTE   Cn2  v116
 BYTE   W48
 BYTE   N44
 BYTE   W24
 BYTE   PATT
  POIN2 Label_6_010C010F
 BYTE   PATT
  POIN2 Label_6_010C010F
 BYTE   PATT
  POIN2 Label_6_010C010F
 BYTE   PATT
  POIN2 Label_6_010C010F
// 016   ----------------------------------------
 BYTE   W24
 BYTE   N44  Cn2  v120
 BYTE   W48
 BYTE   N23
 BYTE   W24
// 017   ----------------------------------------
 BYTE   GoTo
  POIN2 Label_6_010C009E
 BYTE   FINE

//******************************************************//
	ALIGN 4

FE06WinningRoadTristanHollow:
	BYTE	7	// NumTrks
	BYTE	0	// NumBlks
	BYTE	FE06WinningRoadTristanHollow_pri	// Priority
	BYTE	FE06WinningRoadTristanHollow_rev	// Reverb.
    
	POIN2	FE06WinningRoadTristanHollow_grp
    
	POIN2	FE06WinningRoadTristanHollow_001
	POIN2	FE06WinningRoadTristanHollow_002
	POIN2	FE06WinningRoadTristanHollow_003
	POIN2	FE06WinningRoadTristanHollow_004
	POIN2	FE06WinningRoadTristanHollow_005
	POIN2	FE06WinningRoadTristanHollow_006
	POIN2	FE06WinningRoadTristanHollow_007

	
