//Event file generated from Sappy .s format.
	#include "MPlayDef.event"

	#define	FE06BeneathaNewLightPikmin1211_grp  voicegroup000
	#define	FE06BeneathaNewLightPikmin1211_pri  0
	#define	FE06BeneathaNewLightPikmin1211_rev  0
	#define	FE06BeneathaNewLightPikmin1211_mvl  127
	#define	FE06BeneathaNewLightPikmin1211_key  0
	#define	FE06BeneathaNewLightPikmin1211_tbs  1
	#define	FE06BeneathaNewLightPikmin1211_exg  0
	#define	FE06BeneathaNewLightPikmin1211_cmp  1

	// .rodata
	//	FE06BeneathaNewLightPikmin1211
	ALIGN 4


//**************** Track 1 (Midi-Chn.0) ****************//

FE06BeneathaNewLightPikmin1211_001:
// 000   ----------------------------------------
 BYTE   KEYSH   FE06BeneathaNewLightPikmin1211_key+0
 BYTE   TEMPO   128*FE06BeneathaNewLightPikmin1211_tbs/2
 BYTE   VOICE   58
 BYTE   VOL   18*FE06BeneathaNewLightPikmin1211_mvl/mxv
 BYTE   PAN   c_v+17
 BYTE   BEND   c_v-4
 BYTE   W06
 BYTE   N06  Gn3  v116
 BYTE   W18
 BYTE   N03  Gn3  v108
 BYTE   W06
 BYTE   N28  As3  v104
 BYTE   W48
 BYTE   N05  Gn3  v112
 BYTE   W18
// 001   ----------------------------------------
 BYTE   N03  Gn3  v100
 BYTE   W06
 BYTE   N68  As3  v108
 BYTE   W72
 BYTE   N06  Gs3
 BYTE   W09
 BYTE   As3  v100
 BYTE   W09
// 002   ----------------------------------------
 BYTE   W06
 BYTE   N88  Gn3  v112
 BYTE   W90
// 003   ----------------------------------------
Label_0_0121E4C0:
 BYTE   VOICE   40
 BYTE   VOL   34*FE06BeneathaNewLightPikmin1211_mvl/mxv
 BYTE   PAN   c_v+0
 BYTE   BEND   c_v+0
 BYTE   N12  Cn4  v127
 BYTE   W36
 BYTE   Dn4
 BYTE   W12
 BYTE   En4
 BYTE   W48
// 004   ----------------------------------------
Label_0_0121E4D0:
 BYTE   N12  Fn4  v127
 BYTE   W36
 BYTE   N06  En4
 BYTE   W06
 BYTE   Dn4
 BYTE   W06
 BYTE   N12  En4
 BYTE   W24
 BYTE   Cn4
 BYTE   W24
 BYTE   PEND 
// 005   ----------------------------------------
 BYTE   An4
 BYTE   W36
 BYTE   N06  Bn4
 BYTE   W06
 BYTE   Cn5
 BYTE   W06
 BYTE   N12  Gn4
 BYTE   W24
 BYTE   Fn4
 BYTE   W24
// 006   ----------------------------------------
 BYTE   En4
 BYTE   W48
 BYTE   Dn4
 BYTE   W48
// 007   ----------------------------------------
 BYTE   Cn4
 BYTE   W36
 BYTE   Dn4
 BYTE   W12
 BYTE   En4
 BYTE   W48
 BYTE   PATT
  POIN2 Label_0_0121E4D0
// 008   ----------------------------------------
 BYTE   N12  En4  v127
 BYTE   W36
 BYTE   Dn4
 BYTE   W12
 BYTE   N12
 BYTE   W36
 BYTE   Cn4
 BYTE   W12
// 009   ----------------------------------------
 BYTE   En4
 BYTE   W36
 BYTE   N12
 BYTE   W12
 BYTE   N12
 BYTE   W24
 BYTE   Dn4
 BYTE   W24
// 010   ----------------------------------------
 BYTE   VOICE   40
 BYTE   VOL   28*FE06BeneathaNewLightPikmin1211_mvl/mxv
 BYTE   PAN   c_v+0
 BYTE   N92  Gn2  v108
 BYTE   W96
// 011   ----------------------------------------
 BYTE   N44  An2
 BYTE   W48
 BYTE   Bn2  v112
 BYTE   W48
// 012   ----------------------------------------
 BYTE   VOICE   46
 BYTE   VOL   28*FE06BeneathaNewLightPikmin1211_mvl/mxv
 BYTE   PAN   c_v+0
 BYTE   N32  Cn4  v116
 BYTE   W36
 BYTE   N11  Dn4
 BYTE   W12
 BYTE   N44  En4  v120
 BYTE   W48
// 013   ----------------------------------------
 BYTE   N32  Fn4  v112
 BYTE   W36
 BYTE   N05  En4
 BYTE   W06
 BYTE   Dn4  v104
 BYTE   W06
 BYTE   N23  En4  v112
 BYTE   W24
 BYTE   Cn4
 BYTE   W24
// 014   ----------------------------------------
 BYTE   N32  An4  v116
 BYTE   W36
 BYTE   N05  Bn4  v112
 BYTE   W06
 BYTE   Cn5  v100
 BYTE   W06
 BYTE   N23  Gn4  v108
 BYTE   W24
 BYTE   Fn4  v112
 BYTE   W24
// 015   ----------------------------------------
 BYTE   N44  En4
 BYTE   W48
 BYTE   Dn4  v120
 BYTE   W48
// 016   ----------------------------------------
 BYTE   N32  Cn4  v124
 BYTE   W36
 BYTE   N11  Dn4  v120
 BYTE   W12
 BYTE   N44  En4
 BYTE   W48
// 017   ----------------------------------------
 BYTE   N32  Fn4  v112
 BYTE   W36
 BYTE   N05  En4
 BYTE   W06
 BYTE   Dn4  v108
 BYTE   W06
 BYTE   N23  En4  v112
 BYTE   W24
 BYTE   Cn4
 BYTE   W24
// 018   ----------------------------------------
 BYTE   N32  En4  v120
 BYTE   W36
 BYTE   N11  Dn4
 BYTE   W12
 BYTE   N32  Dn4  v124
 BYTE   W36
 BYTE   N11  Cn4  v108
 BYTE   W12
// 019   ----------------------------------------
 BYTE   N32  En4  v112
 BYTE   W36
 BYTE   N11
 BYTE   W12
 BYTE   N23  En4  v116
 BYTE   W24
 BYTE   Dn4
 BYTE   W24
// 020   ----------------------------------------
 BYTE   VOICE   40
 BYTE   VOL   32*FE06BeneathaNewLightPikmin1211_mvl/mxv
 BYTE   PAN   c_v+0
 BYTE   TIE  Cn3  v104
 BYTE   W96
// 021   ----------------------------------------
 BYTE   W96
// 022   ----------------------------------------
 BYTE   W96
// 023   ----------------------------------------
 BYTE   W44
 BYTE   W03
 BYTE   EOT
 BYTE   W01
 BYTE   N08  Gn1  v116
 BYTE   W12
 BYTE   Bn1  v120
 BYTE   W12
 BYTE   N07  Dn2  v116
 BYTE   W09
 BYTE   Fn2  v112
 BYTE   W06
 BYTE   An2  v092
 BYTE   W09
// 024   ----------------------------------------
 BYTE   TIE  Cn3  v108
 BYTE   W96
// 025   ----------------------------------------
 BYTE   W96
// 026   ----------------------------------------
 BYTE   W96
// 027   ----------------------------------------
 BYTE   W96
// 028   ----------------------------------------
 BYTE   W23
 BYTE   EOT
 BYTE   W01
 BYTE   N23  Gn2  v116
 BYTE   W24
 BYTE   Cn3  v112
 BYTE   W24
 BYTE   En3
 BYTE   W24
// 029   ----------------------------------------
 BYTE   TIE  Gn3  v100
 BYTE   W96
// 030   ----------------------------------------
 BYTE   W23
 BYTE   EOT
 BYTE   W01
 BYTE   N05  An1  v112
 BYTE   W06
 BYTE   Bn1
 BYTE   W06
 BYTE   Cn2
 BYTE   W06
 BYTE   Dn2  v100
 BYTE   W06
 BYTE   En2  v112
 BYTE   W06
 BYTE   Fn2  v116
 BYTE   W06
 BYTE   Gn2  v108
 BYTE   W06
 BYTE   An2
 BYTE   W06
 BYTE   N03  Bn2
 BYTE   W03
 BYTE   Cn3
 BYTE   W06
 BYTE   N02  Dn3
 BYTE   W03
 BYTE   N03  En3
 BYTE   W03
 BYTE   Fn3  v112
 BYTE   W03
 BYTE   Gn3  v108
 BYTE   W06
// 031   ----------------------------------------
 BYTE   N44  An3  v096
 BYTE   W48
 BYTE   N68  Gn3  v112
 BYTE   W48
// 032   ----------------------------------------
 BYTE   W24
 BYTE   N23  Ds2  v116
 BYTE   W24
 BYTE   Gs2  v108
 BYTE   W24
 BYTE   Cn3  v120
 BYTE   W24
// 033   ----------------------------------------
 BYTE   N44  Ds3  v112
 BYTE   W48
 BYTE   Dn3  v108
 BYTE   W48
// 034   ----------------------------------------
 BYTE   Cn3  v112
 BYTE   W48
 BYTE   N11  Gn2  v120
 BYTE   W12
 BYTE   Cn2  v116
 BYTE   W12
 BYTE   N68
 BYTE   W24
// 035   ----------------------------------------
 BYTE   W48
 BYTE   N05  Cn2  v112
 BYTE   W06
 BYTE   Dn2  v100
 BYTE   W06
 BYTE   En2  v112
 BYTE   W06
 BYTE   Fn2  v116
 BYTE   W06
 BYTE   Gn2  v108
 BYTE   W06
 BYTE   An2
 BYTE   W06
 BYTE   Bn2
 BYTE   W06
 BYTE   Cn3  v112
 BYTE   W06
// 036   ----------------------------------------
 BYTE   N44  Dn3  v120
 BYTE   W48
 BYTE   Ds3  v096
 BYTE   W48
// 037   ----------------------------------------
 BYTE   Dn3  v112
 BYTE   W48
 BYTE   Fn3  v108
 BYTE   W48
// 038   ----------------------------------------
 BYTE   N92  Gn3  v112
 BYTE   W96
// 039   ----------------------------------------
 BYTE   N72  Gn2  v108
 BYTE   W96
// 040   ----------------------------------------
 BYTE   GoTo
  POIN2 Label_0_0121E4C0
// 041   ----------------------------------------
 BYTE   VOICE   40
 BYTE   VOL   34*FE06BeneathaNewLightPikmin1211_mvl/mxv
 BYTE   PAN   c_v+0
 BYTE   BEND   c_v+0
 BYTE   FINE

//**************** Track 2 (Midi-Chn.1) ****************//

FE06BeneathaNewLightPikmin1211_002:
// 000   ----------------------------------------
 BYTE   KEYSH   FE06BeneathaNewLightPikmin1211_key+0
 BYTE   VOICE   58
 BYTE   VOL   34*FE06BeneathaNewLightPikmin1211_mvl/mxv
 BYTE   PAN   c_v+17
 BYTE   N06  Gn3  v124
 BYTE   W18
 BYTE   N03  Gn3  v120
 BYTE   W06
 BYTE   N28  As3  v116
 BYTE   W48
 BYTE   N05  Gn3  v124
 BYTE   W18
 BYTE   N03  Gn3  v112
 BYTE   W06
// 001   ----------------------------------------
 BYTE   N68  As3  v120
 BYTE   W72
 BYTE   N06  Gs3
 BYTE   W07
 BYTE   As3  v112
 BYTE   W08
 BYTE   N07  Gs3  v116
 BYTE   W09
// 002   ----------------------------------------
 BYTE   N90  Gn3  v124
 BYTE   W96
// 003   ----------------------------------------
Label_1_0121E67E:
 BYTE   VOICE   60
 BYTE   VOL   26*FE06BeneathaNewLightPikmin1211_mvl/mxv
 BYTE   PAN   c_v-16
 BYTE   N92  Cn3  v108
 BYTE   W96
// 004   ----------------------------------------
 BYTE   N44  Gs3
 BYTE   W48
 BYTE   Gn3
 BYTE   W48
// 005   ----------------------------------------
 BYTE   N92  Fn3
 BYTE   W96
// 006   ----------------------------------------
 BYTE   N44  Gn3
 BYTE   W48
 BYTE   Fn3
 BYTE   W48
// 007   ----------------------------------------
 BYTE   En3
 BYTE   W48
 BYTE   An3  v100
 BYTE   W48
// 008   ----------------------------------------
 BYTE   Bn3  v108
 BYTE   W48
 BYTE   Cn4
 BYTE   W48
// 009   ----------------------------------------
 BYTE   N92  Cn3
 BYTE   W96
// 010   ----------------------------------------
 BYTE   N44  An3
 BYTE   W48
 BYTE   Gn3
 BYTE   W48
// 011   ----------------------------------------
 BYTE   W96
// 012   ----------------------------------------
 BYTE   W96
// 013   ----------------------------------------
 BYTE   VOICE   56
 BYTE   VOL   26*FE06BeneathaNewLightPikmin1211_mvl/mxv
 BYTE   PAN   c_v+18
 BYTE   N92  En4  v112
 BYTE   W96
// 014   ----------------------------------------
 BYTE   Cn4  v108
 BYTE   W96
// 015   ----------------------------------------
 BYTE   Fn4  v104
 BYTE   W96
// 016   ----------------------------------------
 BYTE   N44  Gn4  v108
 BYTE   W48
 BYTE   Fn4  v112
 BYTE   W48
// 017   ----------------------------------------
 BYTE   N92  En4
 BYTE   W96
// 018   ----------------------------------------
 BYTE   Cn4  v108
 BYTE   W96
// 019   ----------------------------------------
 BYTE   An3  v100
 BYTE   W96
// 020   ----------------------------------------
 BYTE   N44  Bn3  v112
 BYTE   W48
 BYTE   VOICE   56
 BYTE   VOL   32*FE06BeneathaNewLightPikmin1211_mvl/mxv
 BYTE   PAN   c_v+0
 BYTE   N05  Gn2  v124
 BYTE   W06
 BYTE   An2  v108
 BYTE   W06
 BYTE   Bn2  v120
 BYTE   W06
 BYTE   Cn3  v100
 BYTE   W06
 BYTE   N03  Dn3  v112
 BYTE   W03
 BYTE   En3  v116
 BYTE   W04
 BYTE   Fn3  v112
 BYTE   W05
 BYTE   Gn3  v108
 BYTE   W03
 BYTE   An3  v092
 BYTE   W04
 BYTE   Bn3  v108
 BYTE   W05
// 021   ----------------------------------------
 BYTE   W96
// 022   ----------------------------------------
 BYTE   W96
// 023   ----------------------------------------
 BYTE   W96
// 024   ----------------------------------------
 BYTE   W96
// 025   ----------------------------------------
 BYTE   VOICE   39
 BYTE   VOL   36*FE06BeneathaNewLightPikmin1211_mvl/mxv
 BYTE   PAN   c_v+1
 BYTE   N32  Cn3  v120
 BYTE   W36
 BYTE   N07  Dn3  v112
 BYTE   W12
 BYTE   N32  En3  v120
 BYTE   W48
// 026   ----------------------------------------
 BYTE   N18  Fn3
 BYTE   W24
 BYTE   N20  Dn3  v116
 BYTE   W24
 BYTE   En3  v120
 BYTE   W24
 BYTE   N17  Cn3
 BYTE   W24
// 027   ----------------------------------------
 BYTE   N21  An3
 BYTE   W24
 BYTE   N19  Cn4  v116
 BYTE   W24
 BYTE   N20  Gn3  v120
 BYTE   W24
 BYTE   N21  Fn3  v116
 BYTE   W24
// 028   ----------------------------------------
 BYTE   N40  En3  v120
 BYTE   W48
 BYTE   Dn3  v124
 BYTE   W48
// 029   ----------------------------------------
 BYTE   N28  Cn3  v116
 BYTE   W36
 BYTE   N10  Dn3  v112
 BYTE   W12
 BYTE   N36  En3  v120
 BYTE   W48
// 030   ----------------------------------------
 BYTE   N21  Fn3  v116
 BYTE   W24
 BYTE   N11  En3  v120
 BYTE   W12
 BYTE   Dn3  v116
 BYTE   W12
 BYTE   N20  En3  v120
 BYTE   W24
 BYTE   Cn3  v112
 BYTE   W24
// 031   ----------------------------------------
 BYTE   N32  En3  v120
 BYTE   W36
 BYTE   N11  Dn3  v116
 BYTE   W12
 BYTE   N30  Dn3  v120
 BYTE   W36
 BYTE   N10  Cn3  v112
 BYTE   W12
// 032   ----------------------------------------
 BYTE   N36  En3  v120
 BYTE   W48
 BYTE   N19  Dn3  v116
 BYTE   W24
 BYTE   N17  Gn3
 BYTE   W24
// 033   ----------------------------------------
 BYTE   N84  Cn4  v124
 BYTE   W96
// 034   ----------------------------------------
 BYTE   N42  As3  v112
 BYTE   W48
 BYTE   Gs3  v108
 BYTE   W48
// 035   ----------------------------------------
 BYTE   N18  Gn3  v116
 BYTE   W24
 BYTE   TIE  Cn3
 BYTE   W72
// 036   ----------------------------------------
 BYTE   W68
 BYTE   EOT
 BYTE   W28
// 037   ----------------------------------------
 BYTE   N90  Cn4  v120
 BYTE   W96
// 038   ----------------------------------------
 BYTE   N36  As3  v112
 BYTE   W48
 BYTE   N44  Gs3  v108
 BYTE   W48
// 039   ----------------------------------------
 BYTE   TIE  Cn4  v112
 BYTE   W96
// 040   ----------------------------------------
 BYTE   W68
 BYTE   W03
 BYTE   EOT
 BYTE   W24
 BYTE   W01
// 041   ----------------------------------------
 BYTE   GoTo
  POIN2 Label_1_0121E67E
// 042   ----------------------------------------
 BYTE   VOICE   60
 BYTE   VOL   26*FE06BeneathaNewLightPikmin1211_mvl/mxv
 BYTE   PAN   c_v-16
 BYTE   FINE

//**************** Track 3 (Midi-Chn.2) ****************//

FE06BeneathaNewLightPikmin1211_003:
// 000   ----------------------------------------
 BYTE   KEYSH   FE06BeneathaNewLightPikmin1211_key+0
 BYTE   W96
// 001   ----------------------------------------
 BYTE   VOICE   39
 BYTE   VOL   0*FE06BeneathaNewLightPikmin1211_mvl/mxv
 BYTE   PAN   c_v-24
 BYTE   TIE  Gn1  v120
 BYTE   W06
 BYTE   VOL   0*FE06BeneathaNewLightPikmin1211_mvl/mxv
 BYTE   W06
 BYTE   AnM1
 BYTE   W06
 BYTE   Cs0
 BYTE   W06
 BYTE   Fn0
 BYTE   W06
 BYTE   Gn0
 BYTE   W12
 BYTE   As0
 BYTE   W12
 BYTE   Cs1
 BYTE   W06
 BYTE   Dn1
 BYTE   W06
 BYTE   Fn1
 BYTE   W30
// 002   ----------------------------------------
 BYTE   W06
 BYTE   Fs1
 BYTE   W18
 BYTE   Gn1
 BYTE   W06
 BYTE   Gs1
 BYTE   W06
 BYTE   As1
 BYTE   W12
 BYTE   Cn2
 BYTE   W18
 BYTE   Cs2
 BYTE   W22
 BYTE   EOT
 BYTE   W08
// 003   ----------------------------------------
Label_2_0121E7CB:
 BYTE   VOL   33*FE06BeneathaNewLightPikmin1211_mvl/mxv
 BYTE   PAN   c_v-20
 BYTE   N04  Gn2  v120
 BYTE   W12
 BYTE   Gn2  v108
 BYTE   W12
 BYTE   N04
 BYTE   W12
 BYTE   N04
 BYTE   W12
 BYTE   Gn2  v120
 BYTE   W12
 BYTE   Gn2  v108
 BYTE   W12
 BYTE   N04
 BYTE   W12
 BYTE   N04
 BYTE   W12
// 004   ----------------------------------------
Label_2_0121E7E4:
 BYTE   N04  Gs2  v120
 BYTE   W12
 BYTE   Gs2  v108
 BYTE   W12
 BYTE   N04
 BYTE   W12
 BYTE   N04
 BYTE   W12
 BYTE   Gn2  v120
 BYTE   W12
 BYTE   Gn2  v108
 BYTE   W12
 BYTE   N04
 BYTE   W12
 BYTE   N04
 BYTE   W12
 BYTE   PEND 
// 005   ----------------------------------------
Label_2_0121E7FA:
 BYTE   N04  Fn2  v120
 BYTE   W12
 BYTE   Fn2  v108
 BYTE   W12
 BYTE   N04
 BYTE   W12
 BYTE   N04
 BYTE   W12
 BYTE   Gs2  v120
 BYTE   W12
 BYTE   Gs2  v108
 BYTE   W12
 BYTE   N04
 BYTE   W12
 BYTE   N04
 BYTE   W12
 BYTE   PEND 
// 006   ----------------------------------------
Label_2_0121E810:
 BYTE   N04  Gn2  v120
 BYTE   W12
 BYTE   Gn2  v108
 BYTE   W12
 BYTE   N04
 BYTE   W12
 BYTE   N04
 BYTE   W12
 BYTE   Gn2  v120
 BYTE   W12
 BYTE   Gn2  v108
 BYTE   W12
 BYTE   N04
 BYTE   W12
 BYTE   N04
 BYTE   W12
 BYTE   PEND 
// 007   ----------------------------------------
Label_2_0121E826:
 BYTE   N04  En2  v120
 BYTE   W12
 BYTE   En2  v108
 BYTE   W12
 BYTE   N04
 BYTE   W12
 BYTE   N04
 BYTE   W12
 BYTE   En2  v120
 BYTE   W12
 BYTE   En2  v108
 BYTE   W12
 BYTE   N04
 BYTE   W12
 BYTE   N04
 BYTE   W12
 BYTE   PEND 
// 008   ----------------------------------------
Label_2_0121E83C:
 BYTE   N04  En2  v120
 BYTE   W12
 BYTE   En2  v108
 BYTE   W12
 BYTE   N04
 BYTE   W12
 BYTE   N04
 BYTE   W12
 BYTE   Dn2  v120
 BYTE   W12
 BYTE   Dn2  v108
 BYTE   W12
 BYTE   N04
 BYTE   W12
 BYTE   N04
 BYTE   W12
 BYTE   PEND 
// 009   ----------------------------------------
Label_2_0121E852:
 BYTE   N04  Dn2  v120
 BYTE   W12
 BYTE   Dn2  v108
 BYTE   W12
 BYTE   N04
 BYTE   W12
 BYTE   N04
 BYTE   W12
 BYTE   Cn2  v120
 BYTE   W12
 BYTE   Cn2  v108
 BYTE   W12
 BYTE   N04
 BYTE   W12
 BYTE   N04
 BYTE   W12
 BYTE   PEND 
// 010   ----------------------------------------
Label_2_0121E868:
 BYTE   N04  Cn2  v120
 BYTE   W12
 BYTE   Cn2  v108
 BYTE   W12
 BYTE   N04
 BYTE   W12
 BYTE   N04
 BYTE   W12
 BYTE   Bn1  v120
 BYTE   W12
 BYTE   Bn1  v108
 BYTE   W12
 BYTE   N04
 BYTE   W12
 BYTE   N04
 BYTE   W12
 BYTE   PEND 
// 011   ----------------------------------------
 BYTE   W96
// 012   ----------------------------------------
 BYTE   W96
 BYTE   PATT
  POIN2 Label_2_0121E810
 BYTE   PATT
  POIN2 Label_2_0121E7E4
 BYTE   PATT
  POIN2 Label_2_0121E7FA
 BYTE   PATT
  POIN2 Label_2_0121E810
 BYTE   PATT
  POIN2 Label_2_0121E826
 BYTE   PATT
  POIN2 Label_2_0121E83C
 BYTE   PATT
  POIN2 Label_2_0121E852
 BYTE   PATT
  POIN2 Label_2_0121E868
// 013   ----------------------------------------
 BYTE   W96
// 014   ----------------------------------------
 BYTE   W96
// 015   ----------------------------------------
 BYTE   W96
// 016   ----------------------------------------
 BYTE   W96
// 017   ----------------------------------------
 BYTE   VOICE   51
 BYTE   VOL   28*FE06BeneathaNewLightPikmin1211_mvl/mxv
 BYTE   PAN   c_v-21
 BYTE   N90  Gn2  v120
 BYTE   W96
// 018   ----------------------------------------
 BYTE   N44  Gs2
 BYTE   W48
 BYTE   Gn2  v124
 BYTE   W48
// 019   ----------------------------------------
 BYTE   Fn2
 BYTE   W48
 BYTE   Gs2  v120
 BYTE   W48
// 020   ----------------------------------------
 BYTE   N92  Gn2
 BYTE   W96
// 021   ----------------------------------------
 BYTE   N44  En2  v116
 BYTE   W48
 BYTE   En2  v120
 BYTE   W48
// 022   ----------------------------------------
 BYTE   N44
 BYTE   W48
 BYTE   Dn2
 BYTE   W48
// 023   ----------------------------------------
 BYTE   N44
 BYTE   W48
 BYTE   Cn2  v116
 BYTE   W48
// 024   ----------------------------------------
 BYTE   Cn2  v120
 BYTE   W48
 BYTE   Bn1  v124
 BYTE   W48
// 025   ----------------------------------------
 BYTE   N92  Ds2  v120
 BYTE   W96
// 026   ----------------------------------------
 BYTE   N84  Fn2  v124
 BYTE   W96
// 027   ----------------------------------------
 BYTE   TIE  Gn2  v116
 BYTE   W96
// 028   ----------------------------------------
 BYTE   W19
 BYTE   EOT
 BYTE   W05
 BYTE   N03  Gn2  v112
 BYTE   W12
 BYTE   N05  Gn2  v120
 BYTE   W12
 BYTE   N44  Gn2  v104
 BYTE   W48
// 029   ----------------------------------------
 BYTE   N92  Ds2  v116
 BYTE   W96
// 030   ----------------------------------------
 BYTE   N84  Fn2
 BYTE   W84
 BYTE   N06  En2  v120
 BYTE   W06
 BYTE   N05  Fn2  v124
 BYTE   W06
// 031   ----------------------------------------
 BYTE   TIE  Gn2  v120
 BYTE   W96
// 032   ----------------------------------------
 BYTE   W76
 BYTE   W01
 BYTE   EOT
 BYTE   W19
// 033   ----------------------------------------
 BYTE   GoTo
  POIN2 Label_2_0121E7CB
// 034   ----------------------------------------
 BYTE   VOL   33*FE06BeneathaNewLightPikmin1211_mvl/mxv
 BYTE   PAN   c_v-20
 BYTE   FINE

//**************** Track 4 (Midi-Chn.3) ****************//

FE06BeneathaNewLightPikmin1211_004:
// 000   ----------------------------------------
 BYTE   KEYSH   FE06BeneathaNewLightPikmin1211_key+0
 BYTE   VOICE   60
 BYTE   VOL   31*FE06BeneathaNewLightPikmin1211_mvl/mxv
 BYTE   PAN   c_v+0
 BYTE   BEND   c_v+0
 BYTE   N09  Cn3  v112
 BYTE   W18
 BYTE   N05  Cn3  v120
 BYTE   W06
 BYTE   N30  Ds3  v104
 BYTE   W48
 BYTE   N08  Cn3  v120
 BYTE   W18
 BYTE   N05
 BYTE   W06
// 001   ----------------------------------------
 BYTE   N68  Ds3  v112
 BYTE   W72
 BYTE   N07
 BYTE   W08
 BYTE   N08  Fn3  v108
 BYTE   W10
 BYTE   N05  Ds3
 BYTE   W06
// 002   ----------------------------------------
 BYTE   N92  Dn3  v112
 BYTE   W96
// 003   ----------------------------------------
Label_3_0121E945:
 BYTE   VOICE   48
 BYTE   VOL   36*FE06BeneathaNewLightPikmin1211_mvl/mxv
 BYTE   PAN   c_v+0
 BYTE   BEND   c_v+0
 BYTE   N12  Cn3  v127
 BYTE   W36
 BYTE   Dn3
 BYTE   W12
 BYTE   En3
 BYTE   W48
// 004   ----------------------------------------
Label_3_0121E955:
 BYTE   N12  Fn3  v127
 BYTE   W36
 BYTE   N06  En3
 BYTE   W06
 BYTE   Dn3
 BYTE   W06
 BYTE   N12  En3
 BYTE   W24
 BYTE   Cn3
 BYTE   W24
 BYTE   PEND 
// 005   ----------------------------------------
Label_3_0121E964:
 BYTE   N12  An3  v127
 BYTE   W36
 BYTE   N06  Bn3
 BYTE   W06
 BYTE   Cn4
 BYTE   W06
 BYTE   N12  Gn3
 BYTE   W24
 BYTE   Fn3
 BYTE   W24
 BYTE   PEND 
// 006   ----------------------------------------
 BYTE   En3
 BYTE   W48
 BYTE   Dn3
 BYTE   W48
// 007   ----------------------------------------
Label_3_0121E977:
 BYTE   N12  Cn3  v127
 BYTE   W36
 BYTE   Dn3
 BYTE   W12
 BYTE   En3
 BYTE   W48
 BYTE   PEND 
 BYTE   PATT
  POIN2 Label_3_0121E955
// 008   ----------------------------------------
Label_3_0121E985:
 BYTE   N12  En3  v127
 BYTE   W36
 BYTE   Dn3
 BYTE   W12
 BYTE   N12
 BYTE   W36
 BYTE   Cn3
 BYTE   W12
 BYTE   PEND 
// 009   ----------------------------------------
Label_3_0121E990:
 BYTE   N12  En3  v127
 BYTE   W36
 BYTE   N12
 BYTE   W12
 BYTE   N12
 BYTE   W24
 BYTE   Dn3
 BYTE   W24
 BYTE   PEND 
// 010   ----------------------------------------
 BYTE   VOICE   57
 BYTE   VOL   25*FE06BeneathaNewLightPikmin1211_mvl/mxv
 BYTE   PAN   c_v+0
 BYTE   N92  En3  v108
 BYTE   W96
// 011   ----------------------------------------
 BYTE   N44  Fn3
 BYTE   W48
 BYTE   N42  Gn3
 BYTE   W48
// 012   ----------------------------------------
 BYTE   VOICE   48
 BYTE   VOL   35*FE06BeneathaNewLightPikmin1211_mvl/mxv
 BYTE   PAN   c_v+0
 BYTE   N12  Cn3  v127
 BYTE   W36
 BYTE   Dn3
 BYTE   W12
 BYTE   En3
 BYTE   W48
 BYTE   PATT
  POIN2 Label_3_0121E955
 BYTE   PATT
  POIN2 Label_3_0121E964
// 013   ----------------------------------------
 BYTE   N12  En3  v127
 BYTE   W48
 BYTE   Dn3
 BYTE   W48
 BYTE   PATT
  POIN2 Label_3_0121E977
 BYTE   PATT
  POIN2 Label_3_0121E955
 BYTE   PATT
  POIN2 Label_3_0121E985
 BYTE   PATT
  POIN2 Label_3_0121E990
// 014   ----------------------------------------
 BYTE   VOICE   57
 BYTE   VOL   31*FE06BeneathaNewLightPikmin1211_mvl/mxv
 BYTE   PAN   c_v+0
 BYTE   N32  Cn3  v108
 BYTE   W36
 BYTE   N11  Dn3  v112
 BYTE   W12
 BYTE   N44  En3
 BYTE   W48
// 015   ----------------------------------------
 BYTE   N23  Fn3  v108
 BYTE   W24
 BYTE   Dn3  v112
 BYTE   W24
 BYTE   En3
 BYTE   W24
 BYTE   Cn3
 BYTE   W24
// 016   ----------------------------------------
 BYTE   TIE  Gn3  v104
 BYTE   W96
// 017   ----------------------------------------
 BYTE   W44
 BYTE   W03
 BYTE   EOT
 BYTE   W07
 BYTE   N08  An1  v112
 BYTE   W12
 BYTE   Cn2
 BYTE   W12
 BYTE   N07  En2  v120
 BYTE   W06
 BYTE   Gn2  v116
 BYTE   W06
 BYTE   N03  Bn2  v108
 BYTE   W06
// 018   ----------------------------------------
 BYTE   VOICE   60
 BYTE   VOL   34*FE06BeneathaNewLightPikmin1211_mvl/mxv
 BYTE   PAN   c_v+1
 BYTE   BEND   c_v-4
 BYTE   N28  Cn3  v120
 BYTE   W30
 BYTE   N05  Cn3  v064
 BYTE   W06
 BYTE   N07  Dn3  v112
 BYTE   W12
 BYTE   N28  En3  v120
 BYTE   W30
 BYTE   N11  En3  v064
 BYTE   W18
// 019   ----------------------------------------
 BYTE   N17  Fn3  v120
 BYTE   W18
 BYTE   N05  Fn3  v064
 BYTE   W06
 BYTE   N17  Dn3  v116
 BYTE   W18
 BYTE   N05  Dn3  v064
 BYTE   W06
 BYTE   N17  En3  v120
 BYTE   W18
 BYTE   N05  En3  v064
 BYTE   W06
 BYTE   N17  Cn3  v120
 BYTE   W18
 BYTE   N05  Cn3  v064
 BYTE   W06
// 020   ----------------------------------------
 BYTE   N21  An3  v120
 BYTE   W24
 BYTE   N19  Cn4  v116
 BYTE   W24
 BYTE   N20  Gn3  v120
 BYTE   W24
 BYTE   N21  Fn3  v116
 BYTE   W24
// 021   ----------------------------------------
 BYTE   N40  En3  v120
 BYTE   W48
 BYTE   Dn3  v124
 BYTE   W48
// 022   ----------------------------------------
 BYTE   N28  Cn3  v116
 BYTE   W36
 BYTE   N10  Dn3  v112
 BYTE   W12
 BYTE   N36  En3  v120
 BYTE   W48
// 023   ----------------------------------------
 BYTE   N21  Fn3  v116
 BYTE   W24
 BYTE   N11  En3  v120
 BYTE   W12
 BYTE   Dn3  v116
 BYTE   W12
 BYTE   N20  En3  v120
 BYTE   W24
 BYTE   Cn3  v112
 BYTE   W24
// 024   ----------------------------------------
 BYTE   N32  En3  v120
 BYTE   W36
 BYTE   N11  Dn3  v116
 BYTE   W12
 BYTE   N30  Dn3  v120
 BYTE   W36
 BYTE   N10  Cn3  v112
 BYTE   W12
// 025   ----------------------------------------
 BYTE   N36  En3  v120
 BYTE   W48
 BYTE   N19  Dn3  v116
 BYTE   W24
 BYTE   N17  Gn3
 BYTE   W24
// 026   ----------------------------------------
 BYTE   N84  Cn4  v124
 BYTE   W96
// 027   ----------------------------------------
 BYTE   N42  As3  v112
 BYTE   W48
 BYTE   Gs3  v108
 BYTE   W48
// 028   ----------------------------------------
 BYTE   N18  Gn3  v116
 BYTE   W24
 BYTE   TIE  Cn3
 BYTE   W72
// 029   ----------------------------------------
 BYTE   W68
 BYTE   EOT
 BYTE   W28
// 030   ----------------------------------------
 BYTE   N90  Cn4  v120
 BYTE   W96
// 031   ----------------------------------------
 BYTE   N36  As3  v112
 BYTE   W48
 BYTE   N44  Gs3  v108
 BYTE   W48
// 032   ----------------------------------------
 BYTE   TIE  Cn4  v112
 BYTE   W96
// 033   ----------------------------------------
 BYTE   W68
 BYTE   W03
 BYTE   EOT
 BYTE   W24
 BYTE   W01
// 034   ----------------------------------------
 BYTE   GoTo
  POIN2 Label_3_0121E945
// 035   ----------------------------------------
 BYTE   VOICE   48
 BYTE   VOL   36*FE06BeneathaNewLightPikmin1211_mvl/mxv
 BYTE   PAN   c_v+0
 BYTE   BEND   c_v+0
 BYTE   FINE

//**************** Track 5 (Midi-Chn.4) ****************//

FE06BeneathaNewLightPikmin1211_005:
// 000   ----------------------------------------
 BYTE   KEYSH   FE06BeneathaNewLightPikmin1211_key+0
 BYTE   W96
// 001   ----------------------------------------
 BYTE   VOICE   32
 BYTE   VOL   0*FE06BeneathaNewLightPikmin1211_mvl/mxv
 BYTE   PAN   c_v-24
 BYTE   TIE  Cn2  v112
 BYTE   W06
 BYTE   VOL   0*FE06BeneathaNewLightPikmin1211_mvl/mxv
 BYTE   W06
 BYTE   AnM1
 BYTE   W06
 BYTE   Cs0
 BYTE   W06
 BYTE   Fn0
 BYTE   W06
 BYTE   Gn0
 BYTE   W12
 BYTE   As0
 BYTE   W12
 BYTE   Cs1
 BYTE   W06
 BYTE   Dn1
 BYTE   W06
 BYTE   Fn1
 BYTE   W30
// 002   ----------------------------------------
 BYTE   W06
 BYTE   Fs1
 BYTE   W18
 BYTE   Gn1
 BYTE   W06
 BYTE   Gs1
 BYTE   W06
 BYTE   As1
 BYTE   W12
 BYTE   Cn2
 BYTE   W18
 BYTE   Cs2
 BYTE   W23
 BYTE   EOT
 BYTE   W07
// 003   ----------------------------------------
Label_4_0121EB07:
 BYTE   VOICE   2
 BYTE   VOL   36*FE06BeneathaNewLightPikmin1211_mvl/mxv
 BYTE   PAN   c_v-20
 BYTE   N05  Cn2  v112
 BYTE   W12
 BYTE   Cn2  v104
 BYTE   W12
 BYTE   N05
 BYTE   W12
 BYTE   N05
 BYTE   W12
 BYTE   Cn2  v112
 BYTE   W12
 BYTE   Cn2  v104
 BYTE   W12
 BYTE   N05
 BYTE   W12
 BYTE   N05
 BYTE   W12
// 004   ----------------------------------------
Label_4_0121EB22:
 BYTE   N05  Cn2  v112
 BYTE   W12
 BYTE   Cn2  v104
 BYTE   W12
 BYTE   N05
 BYTE   W12
 BYTE   N05
 BYTE   W12
 BYTE   Cn2  v112
 BYTE   W12
 BYTE   Cn2  v104
 BYTE   W12
 BYTE   N05
 BYTE   W12
 BYTE   N05
 BYTE   W12
 BYTE   PEND 
 BYTE   PATT
  POIN2 Label_4_0121EB22
// 005   ----------------------------------------
Label_4_0121EB3D:
 BYTE   N05  Cn2  v112
 BYTE   W12
 BYTE   Cn2  v104
 BYTE   W12
 BYTE   N05
 BYTE   W12
 BYTE   N05
 BYTE   W12
 BYTE   Bn1  v112
 BYTE   W12
 BYTE   Bn1  v104
 BYTE   W12
 BYTE   N05
 BYTE   W12
 BYTE   N05
 BYTE   W12
 BYTE   PEND 
// 006   ----------------------------------------
Label_4_0121EB53:
 BYTE   N05  An1  v112
 BYTE   W12
 BYTE   An1  v104
 BYTE   W12
 BYTE   N05
 BYTE   W12
 BYTE   N05
 BYTE   W12
 BYTE   Gs1  v112
 BYTE   W12
 BYTE   Gs1  v104
 BYTE   W12
 BYTE   N05
 BYTE   W12
 BYTE   N05
 BYTE   W12
 BYTE   PEND 
// 007   ----------------------------------------
Label_4_0121EB69:
 BYTE   N05  Gn1  v112
 BYTE   W12
 BYTE   Gn1  v104
 BYTE   W12
 BYTE   N05
 BYTE   W12
 BYTE   N05
 BYTE   W12
 BYTE   Fs1  v112
 BYTE   W12
 BYTE   Fs1  v104
 BYTE   W12
 BYTE   N05
 BYTE   W12
 BYTE   N05
 BYTE   W12
 BYTE   PEND 
// 008   ----------------------------------------
Label_4_0121EB7F:
 BYTE   N05  Fn1  v112
 BYTE   W12
 BYTE   Fn1  v104
 BYTE   W12
 BYTE   N05
 BYTE   W12
 BYTE   N05
 BYTE   W12
 BYTE   Fn1  v112
 BYTE   W12
 BYTE   Fn1  v104
 BYTE   W12
 BYTE   N05
 BYTE   W12
 BYTE   N05
 BYTE   W12
 BYTE   PEND 
// 009   ----------------------------------------
Label_4_0121EB95:
 BYTE   N05  Gn1  v112
 BYTE   W12
 BYTE   Gn1  v104
 BYTE   W12
 BYTE   N05
 BYTE   W12
 BYTE   N05
 BYTE   W12
 BYTE   Gn1  v112
 BYTE   W12
 BYTE   Gn1  v104
 BYTE   W12
 BYTE   N05
 BYTE   W12
 BYTE   N05
 BYTE   W12
 BYTE   PEND 
// 010   ----------------------------------------
 BYTE   W96
// 011   ----------------------------------------
 BYTE   W96
 BYTE   PATT
  POIN2 Label_4_0121EB22
 BYTE   PATT
  POIN2 Label_4_0121EB22
 BYTE   PATT
  POIN2 Label_4_0121EB22
 BYTE   PATT
  POIN2 Label_4_0121EB3D
 BYTE   PATT
  POIN2 Label_4_0121EB53
 BYTE   PATT
  POIN2 Label_4_0121EB69
 BYTE   PATT
  POIN2 Label_4_0121EB7F
 BYTE   PATT
  POIN2 Label_4_0121EB95
// 012   ----------------------------------------
 BYTE   W96
// 013   ----------------------------------------
 BYTE   W96
// 014   ----------------------------------------
 BYTE   W96
// 015   ----------------------------------------
 BYTE   W96
// 016   ----------------------------------------
 BYTE   VOICE   58
 BYTE   VOL   28*FE06BeneathaNewLightPikmin1211_mvl/mxv
 BYTE   PAN   c_v-21
 BYTE   N92  Cn2  v120
 BYTE   W96
// 017   ----------------------------------------
 BYTE   N92
 BYTE   W96
// 018   ----------------------------------------
 BYTE   N92
 BYTE   W96
// 019   ----------------------------------------
 BYTE   N44
 BYTE   W48
 BYTE   Bn1
 BYTE   W48
// 020   ----------------------------------------
 BYTE   An1
 BYTE   W48
 BYTE   Gs1
 BYTE   W48
// 021   ----------------------------------------
 BYTE   Gn1
 BYTE   W48
 BYTE   Fs1
 BYTE   W48
// 022   ----------------------------------------
 BYTE   N92  Fn1
 BYTE   W96
// 023   ----------------------------------------
 BYTE   Gn1
 BYTE   W96
// 024   ----------------------------------------
 BYTE   Gs1
 BYTE   W96
// 025   ----------------------------------------
 BYTE   N84  As1
 BYTE   W96
// 026   ----------------------------------------
 BYTE   TIE  Cn2
 BYTE   W96
// 027   ----------------------------------------
 BYTE   W21
 BYTE   EOT
 BYTE   W03
 BYTE   N05
 BYTE   W12
 BYTE   N05
 BYTE   W12
 BYTE   N44
 BYTE   W48
// 028   ----------------------------------------
 BYTE   N92  Gs1
 BYTE   W96
// 029   ----------------------------------------
 BYTE   N84  As1
 BYTE   W96
// 030   ----------------------------------------
 BYTE   TIE  Cn2
 BYTE   W96
// 031   ----------------------------------------
 BYTE   W78
 BYTE   EOT
 BYTE   W18
// 032   ----------------------------------------
 BYTE   GoTo
  POIN2 Label_4_0121EB07
// 033   ----------------------------------------
 BYTE   VOICE   2
 BYTE   VOL   36*FE06BeneathaNewLightPikmin1211_mvl/mxv
 BYTE   PAN   c_v-20
 BYTE   FINE

//**************** Track 6 (Midi-Chn.5) ****************//

FE06BeneathaNewLightPikmin1211_006:
// 000   ----------------------------------------
 BYTE   KEYSH   FE06BeneathaNewLightPikmin1211_key+0
 BYTE   VOICE   47
 BYTE   VOL   22*FE06BeneathaNewLightPikmin1211_mvl/mxv
 BYTE   PAN   c_v+0
 BYTE   N05  Gn2  v116
 BYTE   W18
 BYTE   N05
 BYTE   W06
 BYTE   N30  As2
 BYTE   W48
 BYTE   N05  Gn2
 BYTE   W18
 BYTE   N05
 BYTE   W06
// 001   ----------------------------------------
 BYTE   N23  As2
 BYTE   W96
// 002   ----------------------------------------
 BYTE   N72  Gn2
 BYTE   W72
 BYTE   VOICE   47
 BYTE   VOL   36*FE06BeneathaNewLightPikmin1211_mvl/mxv
 BYTE   PAN   c_v+0
 BYTE   W12
 BYTE   N06  Gn2  v120
 BYTE   W06
 BYTE   Fn2  v108
 BYTE   W06
// 003   ----------------------------------------
Label_5_0121EC4E:
 BYTE   N23  Gn2  v120
 BYTE   W96
// 004   ----------------------------------------
 BYTE   W84
 BYTE   N12  Fn2  v124
 BYTE   W12
// 005   ----------------------------------------
 BYTE   N23  Gn2  v120
 BYTE   W96
// 006   ----------------------------------------
 BYTE   W84
 BYTE   N12  Fn2  v124
 BYTE   W12
// 007   ----------------------------------------
 BYTE   N23  Gn2  v120
 BYTE   W96
// 008   ----------------------------------------
 BYTE   W84
 BYTE   N12  Fn2  v124
 BYTE   W12
// 009   ----------------------------------------
 BYTE   N23  Gn2  v120
 BYTE   W96
// 010   ----------------------------------------
 BYTE   W84
 BYTE   N12  Fn2  v124
 BYTE   W12
// 011   ----------------------------------------
 BYTE   N24  Gn2
 BYTE   W84
 BYTE   N12  Fn2  v127
 BYTE   W12
// 012   ----------------------------------------
 BYTE   N24  Gn2
 BYTE   W36
 BYTE   N12  Fn2
 BYTE   W12
 BYTE   Gn2
 BYTE   W12
 BYTE   Fn2
 BYTE   W12
 BYTE   Gn2
 BYTE   W12
 BYTE   Fn2
 BYTE   W12
// 013   ----------------------------------------
 BYTE   N23  Gn2  v120
 BYTE   W96
// 014   ----------------------------------------
 BYTE   W84
 BYTE   N12  Fn2  v124
 BYTE   W12
// 015   ----------------------------------------
 BYTE   N23  Gn2  v120
 BYTE   W96
// 016   ----------------------------------------
 BYTE   W84
 BYTE   N12  Fn2  v124
 BYTE   W12
// 017   ----------------------------------------
 BYTE   N23  Gn2  v120
 BYTE   W96
// 018   ----------------------------------------
 BYTE   W84
 BYTE   N12  Fn2  v124
 BYTE   W12
// 019   ----------------------------------------
 BYTE   N23  Gn2  v120
 BYTE   W96
// 020   ----------------------------------------
 BYTE   W84
 BYTE   N12  Fn2  v124
 BYTE   W12
// 021   ----------------------------------------
 BYTE   N23  Gn2  v127
 BYTE   W96
// 022   ----------------------------------------
 BYTE   W48
 BYTE   N03  Fn2  v084
 BYTE   W03
 BYTE   Gn2
 BYTE   W03
 BYTE   Fn2
 BYTE   W03
 BYTE   Gn2  v088
 BYTE   W03
 BYTE   Fn2  v092
 BYTE   W03
 BYTE   Gn2
 BYTE   W03
 BYTE   Fn2
 BYTE   W03
 BYTE   Gn2  v096
 BYTE   W03
 BYTE   Fn2  v100
 BYTE   W03
 BYTE   Gn2
 BYTE   W03
 BYTE   Fn2
 BYTE   W03
 BYTE   Gn2  v104
 BYTE   W03
 BYTE   Fn2  v108
 BYTE   W03
 BYTE   Gn2
 BYTE   W03
 BYTE   Fn2
 BYTE   W03
 BYTE   Gn2  v112
 BYTE   W03
// 023   ----------------------------------------
 BYTE   N23
 BYTE   W96
// 024   ----------------------------------------
 BYTE   N03  Fn2  v080
 BYTE   W03
 BYTE   Gn2
 BYTE   W03
 BYTE   Fn2  v084
 BYTE   W03
 BYTE   Gn2
 BYTE   W03
 BYTE   Fn2
 BYTE   W03
 BYTE   Gn2
 BYTE   W03
 BYTE   Fn2  v088
 BYTE   W03
 BYTE   Gn2
 BYTE   W03
 BYTE   Fn2
 BYTE   W03
 BYTE   Gn2  v092
 BYTE   W03
 BYTE   Fn2
 BYTE   W03
 BYTE   Gn2
 BYTE   W03
 BYTE   Fn2
 BYTE   W03
 BYTE   Gn2  v096
 BYTE   W03
 BYTE   Fn2
 BYTE   W03
 BYTE   Gn2
 BYTE   W03
 BYTE   Fn2  v100
 BYTE   W03
 BYTE   Gn2
 BYTE   W03
 BYTE   Fn2
 BYTE   W03
 BYTE   Gn2
 BYTE   W03
 BYTE   Fn2  v104
 BYTE   W03
 BYTE   Gn2
 BYTE   W03
 BYTE   Fn2
 BYTE   W03
 BYTE   Gn2  v108
 BYTE   W03
 BYTE   Fn2
 BYTE   W03
 BYTE   Gn2
 BYTE   W03
 BYTE   Fn2
 BYTE   W03
 BYTE   Gn2  v112
 BYTE   W03
 BYTE   Fn2
 BYTE   W03
 BYTE   Gn2
 BYTE   W03
 BYTE   Fn2
 BYTE   W03
 BYTE   Gn2
 BYTE   W03
// 025   ----------------------------------------
 BYTE   N23  Gn2  v116
 BYTE   W96
// 026   ----------------------------------------
 BYTE   W84
 BYTE   N12  Fn2  v127
 BYTE   W12
// 027   ----------------------------------------
 BYTE   N23  Gn2
 BYTE   W96
// 028   ----------------------------------------
 BYTE   W84
 BYTE   N12  Fn2
 BYTE   W12
// 029   ----------------------------------------
 BYTE   N23  Gn2
 BYTE   W96
// 030   ----------------------------------------
 BYTE   W72
 BYTE   Fn2  v120
 BYTE   W24
// 031   ----------------------------------------
 BYTE   Gn2  v127
 BYTE   W96
// 032   ----------------------------------------
 BYTE   N12  Gn2  v112
 BYTE   W12
 BYTE   Fn2
 BYTE   W12
 BYTE   Gn2  v120
 BYTE   W12
 BYTE   Fn2
 BYTE   W12
 BYTE   Gn2  v124
 BYTE   W12
 BYTE   Fn2  v120
 BYTE   W12
 BYTE   Gn2  v124
 BYTE   W12
 BYTE   Fn2
 BYTE   W12
// 033   ----------------------------------------
 BYTE   N24  Gn2  v127
 BYTE   W96
// 034   ----------------------------------------
 BYTE   W96
// 035   ----------------------------------------
 BYTE   W96
// 036   ----------------------------------------
 BYTE   W48
 BYTE   N03  Fn2  v084
 BYTE   W03
 BYTE   Gn2  v088
 BYTE   W03
 BYTE   Fn2
 BYTE   W03
 BYTE   Gn2  v092
 BYTE   W03
 BYTE   Fn2
 BYTE   W03
 BYTE   Gn2  v096
 BYTE   W03
 BYTE   Fn2  v100
 BYTE   W03
 BYTE   Gn2
 BYTE   W03
 BYTE   Fn2
 BYTE   W03
 BYTE   Gn2  v104
 BYTE   W03
 BYTE   Fn2  v108
 BYTE   W03
 BYTE   Gn2
 BYTE   W03
 BYTE   Fn2
 BYTE   W03
 BYTE   Gn2  v112
 BYTE   W03
 BYTE   Fn2
 BYTE   W03
 BYTE   Gn2  v116
 BYTE   W03
// 037   ----------------------------------------
 BYTE   N23  Gn2  v120
 BYTE   W96
// 038   ----------------------------------------
 BYTE   W96
// 039   ----------------------------------------
 BYTE   W84
 BYTE   N12  Fn2  v108
 BYTE   W12
// 040   ----------------------------------------
 BYTE   N36  Gn2  v120
 BYTE   W36
 BYTE   N12  Fn2
 BYTE   W12
 BYTE   Gn2
 BYTE   W12
 BYTE   Fn2  v124
 BYTE   W12
 BYTE   Gn2  v127
 BYTE   W12
 BYTE   Fn2
 BYTE   W12
// 041   ----------------------------------------
 BYTE   GoTo
  POIN2 Label_5_0121EC4E
 BYTE   FINE

//**************** Track 7 (Midi-Chn.6) ****************//

FE06BeneathaNewLightPikmin1211_007:
// 000   ----------------------------------------
 BYTE   KEYSH   FE06BeneathaNewLightPikmin1211_key+0
 BYTE   VOICE   121
 BYTE   VOL   33*FE06BeneathaNewLightPikmin1211_mvl/mxv
 BYTE   W96
// 001   ----------------------------------------
 BYTE   W96
// 002   ----------------------------------------
Label_6_0121EDB0:
 BYTE   N06  CsM1  v112
 BYTE   W06
 BYTE   DnM1  v040
 BYTE   W06
 BYTE   DnM1  v064
 BYTE   W06
 BYTE   DnM1  v040
 BYTE   W06
 BYTE   DnM1  v064
 BYTE   W06
 BYTE   DnM1  v040
 BYTE   W06
 BYTE   CsM1  v112
 BYTE   W06
 BYTE   DnM1  v040
 BYTE   W06
 BYTE   CsM1  v112
 BYTE   W06
 BYTE   DnM1  v040
 BYTE   W06
 BYTE   DnM1  v064
 BYTE   W06
 BYTE   DnM1  v040
 BYTE   W06
 BYTE   CsM1  v112
 BYTE   W06
 BYTE   DnM1  v040
 BYTE   W06
 BYTE   DnM1  v064
 BYTE   W06
 BYTE   DnM1  v040
 BYTE   W06
 BYTE   PEND 
// 003   ----------------------------------------
Label_6_0121EDE2:
 BYTE   N06  CsM1  v112
 BYTE   W06
 BYTE   DnM1  v040
 BYTE   W06
 BYTE   DnM1  v064
 BYTE   W06
 BYTE   DnM1  v056
 BYTE   W06
 BYTE   DnM1  v064
 BYTE   W06
 BYTE   DnM1  v040
 BYTE   W06
 BYTE   CsM1  v112
 BYTE   W06
 BYTE   DnM1  v040
 BYTE   W06
 BYTE   CsM1  v112
 BYTE   W06
 BYTE   DnM1  v040
 BYTE   W06
 BYTE   DnM1  v064
 BYTE   W06
 BYTE   DnM1  v040
 BYTE   W06
 BYTE   CsM1  v112
 BYTE   W06
 BYTE   DnM1  v040
 BYTE   W06
 BYTE   DnM1  v064
 BYTE   W06
 BYTE   DnM1  v040
 BYTE   W06
 BYTE   PEND 
 BYTE   PATT
  POIN2 Label_6_0121EDB0
 BYTE   PATT
  POIN2 Label_6_0121EDE2
 BYTE   PATT
  POIN2 Label_6_0121EDB0
 BYTE   PATT
  POIN2 Label_6_0121EDE2
 BYTE   PATT
  POIN2 Label_6_0121EDB0
 BYTE   PATT
  POIN2 Label_6_0121EDE2
// 004   ----------------------------------------
 BYTE   N06  CsM1  v112
 BYTE   W06
 BYTE   DnM1  v040
 BYTE   W06
 BYTE   DnM1  v064
 BYTE   W06
 BYTE   N06
 BYTE   W06
 BYTE   N06
 BYTE   W06
 BYTE   DnM1  v040
 BYTE   W06
 BYTE   CsM1  v112
 BYTE   W06
 BYTE   DnM1  v040
 BYTE   W06
 BYTE   CsM1  v112
 BYTE   W06
 BYTE   DnM1  v040
 BYTE   W06
 BYTE   DnM1  v064
 BYTE   W06
 BYTE   DnM1  v040
 BYTE   W06
 BYTE   CsM1  v112
 BYTE   W06
 BYTE   DnM1  v040
 BYTE   W06
 BYTE   DnM1  v064
 BYTE   W06
 BYTE   DnM1  v040
 BYTE   W06
 BYTE   PATT
  POIN2 Label_6_0121EDE2
 BYTE   PATT
  POIN2 Label_6_0121EDB0
 BYTE   PATT
  POIN2 Label_6_0121EDE2
 BYTE   PATT
  POIN2 Label_6_0121EDB0
 BYTE   PATT
  POIN2 Label_6_0121EDE2
 BYTE   PATT
  POIN2 Label_6_0121EDB0
 BYTE   PATT
  POIN2 Label_6_0121EDE2
 BYTE   PATT
  POIN2 Label_6_0121EDB0
 BYTE   PATT
  POIN2 Label_6_0121EDE2
// 005   ----------------------------------------
 BYTE   N22  DsM1  v100
 BYTE   W36
 BYTE   N06  CsM1  v112
 BYTE   W12
 BYTE   N06
 BYTE   W48
// 006   ----------------------------------------
Label_6_0121EE98:
 BYTE   N06  CsM1  v112
 BYTE   W36
 BYTE   N06
 BYTE   W12
 BYTE   N06
 BYTE   W24
 BYTE   N06
 BYTE   W24
 BYTE   PEND 
// 007   ----------------------------------------
Label_6_0121EEA3:
 BYTE   N06  CsM1  v112
 BYTE   W36
 BYTE   N06
 BYTE   W12
 BYTE   N06
 BYTE   W36
 BYTE   N06
 BYTE   W12
 BYTE   PEND 
 BYTE   PATT
  POIN2 Label_6_0121EEA3
// 008   ----------------------------------------
Label_6_0121EEB3:
 BYTE   N06  CsM1  v112
 BYTE   N06  DnM1  v064
 BYTE   W06
 BYTE   DnM1  v040
 BYTE   W06
 BYTE   DnM1  v064
 BYTE   W06
 BYTE   DnM1  v040
 BYTE   W06
 BYTE   DnM1  v064
 BYTE   W06
 BYTE   DnM1  v040
 BYTE   W06
 BYTE   CsM1  v112
 BYTE   N06  DnM1  v064
 BYTE   W06
 BYTE   DnM1  v040
 BYTE   W06
 BYTE   CsM1  v112
 BYTE   N06  DnM1  v064
 BYTE   W06
 BYTE   DnM1  v040
 BYTE   W06
 BYTE   DnM1  v064
 BYTE   W06
 BYTE   DnM1  v040
 BYTE   W06
 BYTE   CsM1  v112
 BYTE   N06  DnM1  v064
 BYTE   W06
 BYTE   DnM1  v040
 BYTE   W06
 BYTE   DnM1  v064
 BYTE   W06
 BYTE   DnM1  v040
 BYTE   W06
 BYTE   PEND 
// 009   ----------------------------------------
Label_6_0121EEF1:
 BYTE   N06  CsM1  v112
 BYTE   W06
 BYTE   DnM1  v040
 BYTE   W06
 BYTE   DnM1  v064
 BYTE   W06
 BYTE   DnM1  v040
 BYTE   W06
 BYTE   DnM1  v064
 BYTE   W06
 BYTE   DnM1  v040
 BYTE   W06
 BYTE   CsM1  v112
 BYTE   N06  DnM1  v064
 BYTE   W06
 BYTE   DnM1  v040
 BYTE   W06
 BYTE   CsM1  v112
 BYTE   N06  DnM1  v064
 BYTE   W06
 BYTE   DnM1  v040
 BYTE   W06
 BYTE   DnM1  v064
 BYTE   W06
 BYTE   DnM1  v040
 BYTE   W06
 BYTE   CsM1  v112
 BYTE   N06  DnM1  v064
 BYTE   W06
 BYTE   DnM1  v040
 BYTE   W06
 BYTE   DnM1  v064
 BYTE   W06
 BYTE   DnM1  v040
 BYTE   W06
 BYTE   PEND 
 BYTE   PATT
  POIN2 Label_6_0121EEB3
 BYTE   PATT
  POIN2 Label_6_0121EEF1
 BYTE   PATT
  POIN2 Label_6_0121EEB3
 BYTE   PATT
  POIN2 Label_6_0121EEF1
 BYTE   PATT
  POIN2 Label_6_0121EEB3
// 010   ----------------------------------------
 BYTE   N06  CsM1  v112
 BYTE   W06
 BYTE   DnM1  v040
 BYTE   W06
 BYTE   DnM1  v064
 BYTE   W06
 BYTE   DnM1  v040
 BYTE   W06
 BYTE   DnM1  v064
 BYTE   W06
 BYTE   DnM1  v040
 BYTE   W06
 BYTE   CsM1  v112
 BYTE   N06  DnM1  v064
 BYTE   W06
 BYTE   DnM1  v040
 BYTE   W06
 BYTE   CsM1  v112
 BYTE   N06  DnM1  v064
 BYTE   W06
 BYTE   DnM1  v040
 BYTE   W06
 BYTE   DnM1  v064
 BYTE   W06
 BYTE   DnM1  v040
 BYTE   W06
 BYTE   CsM1  v112
 BYTE   W06
 BYTE   DnM1  v040
 BYTE   W06
 BYTE   DnM1  v064
 BYTE   W06
 BYTE   DnM1  v040
 BYTE   W06
// 011   ----------------------------------------
Label_6_0121EF7C:
 BYTE   N28  DsM1  v100
 BYTE   W36
 BYTE   N06  CsM1  v112
 BYTE   W12
 BYTE   N06
 BYTE   W48
 BYTE   PEND 
 BYTE   PATT
  POIN2 Label_6_0121EE98
 BYTE   PATT
  POIN2 Label_6_0121EEA3
 BYTE   PATT
  POIN2 Label_6_0121EEA3
 BYTE   PATT
  POIN2 Label_6_0121EF7C
 BYTE   PATT
  POIN2 Label_6_0121EE98
 BYTE   PATT
  POIN2 Label_6_0121EEA3
 BYTE   PATT
  POIN2 Label_6_0121EEA3
// 012   ----------------------------------------
 BYTE   W96
// 013   ----------------------------------------
 BYTE   GoTo
  POIN2 Label_6_0121EDE2
 BYTE   FINE

//******************************************************//
	ALIGN 4

FE06BeneathaNewLightPikmin1211:
	BYTE	7	// NumTrks
	BYTE	0	// NumBlks
	BYTE	FE06BeneathaNewLightPikmin1211_pri	// Priority
	BYTE	FE06BeneathaNewLightPikmin1211_rev	// Reverb.
    
	POIN2	FE06BeneathaNewLightPikmin1211_grp
    
	POIN2	FE06BeneathaNewLightPikmin1211_001
	POIN2	FE06BeneathaNewLightPikmin1211_002
	POIN2	FE06BeneathaNewLightPikmin1211_003
	POIN2	FE06BeneathaNewLightPikmin1211_004
	POIN2	FE06BeneathaNewLightPikmin1211_005
	POIN2	FE06BeneathaNewLightPikmin1211_006
	POIN2	FE06BeneathaNewLightPikmin1211_007

	
