//Event file generated from Sappy .s format.
	#include "MPlayDef.event"

	#define	FE06TheLastDragonRandomWizard_grp  voicegroup000
	#define	FE06TheLastDragonRandomWizard_pri  0
	#define	FE06TheLastDragonRandomWizard_rev  0
	#define	FE06TheLastDragonRandomWizard_mvl  127
	#define	FE06TheLastDragonRandomWizard_key  0
	#define	FE06TheLastDragonRandomWizard_tbs  1
	#define	FE06TheLastDragonRandomWizard_exg  0
	#define	FE06TheLastDragonRandomWizard_cmp  1

	// .rodata
	//	FE06TheLastDragonRandomWizard
	ALIGN 4


//**************** Track 1 (Midi-Chn.0) ****************//

FE06TheLastDragonRandomWizard_001:
// 000   ----------------------------------------
 BYTE   KEYSH   FE06TheLastDragonRandomWizard_key+0
 BYTE   TEMPO   166*FE06TheLastDragonRandomWizard_tbs/2
 BYTE   VOICE   40
 BYTE   VOL   41*FE06TheLastDragonRandomWizard_mvl/mxv
 BYTE   PAN   c_v+4
 BYTE   N92  Cn4  v080
 BYTE   W96
// 001   ----------------------------------------
 BYTE   Bn3
 BYTE   W96
// 002   ----------------------------------------
 BYTE   An3
 BYTE   W96
// 003   ----------------------------------------
 BYTE   N80  Gs3
 BYTE   W84
 BYTE   N11  Gs3  v020
 BYTE   W12
// 004   ----------------------------------------
Label_0_5473D3:
 BYTE   W96
// 005   ----------------------------------------
 BYTE   W96
// 006   ----------------------------------------
 BYTE   W96
// 007   ----------------------------------------
 BYTE   W96
// 008   ----------------------------------------
 BYTE   W96
// 009   ----------------------------------------
 BYTE   W96
// 010   ----------------------------------------
 BYTE   W96
// 011   ----------------------------------------
 BYTE   W96
// 012   ----------------------------------------
 BYTE   W96
// 013   ----------------------------------------
 BYTE   W96
// 014   ----------------------------------------
 BYTE   W96
// 015   ----------------------------------------
 BYTE   W92
 BYTE   W03
 BYTE   GoTo
  POIN2 Label_0_5473D3
 BYTE   FINE

//**************** Track 2 (Midi-Chn.1) ****************//

FE06TheLastDragonRandomWizard_002:
// 000   ----------------------------------------
 BYTE   KEYSH   FE06TheLastDragonRandomWizard_key+0
 BYTE   VOICE   0
 BYTE   VOL   41*FE06TheLastDragonRandomWizard_mvl/mxv
 BYTE   PAN   c_v+0
 BYTE   N88  En3  v064
 BYTE   N92  Cn4  v072
 BYTE   W96
// 001   ----------------------------------------
 BYTE   Ds3  v068
 BYTE   N92  Bn3  v076
 BYTE   W96
// 002   ----------------------------------------
 BYTE   Dn3  v084
 BYTE   N92  An3  v088
 BYTE   W96
// 003   ----------------------------------------
 BYTE   N80  Dn3  v084
 BYTE   N80  Gs3  v096
 BYTE   W84
 BYTE   N11  Dn3  v016
 BYTE   N11  Gs3  v024
 BYTE   W12
// 004   ----------------------------------------
Label_1_5462D9:
 BYTE   N48  Cn3  v096
 BYTE   N54  En3
 BYTE   W60
 BYTE   N05  Bn2  v072
 BYTE   N05  Dn3  v096
 BYTE   W12
 BYTE   N03  Cn3  v088
 BYTE   N04  En3  v092
 BYTE   W12
 BYTE   N52  Dn3  v100
 BYTE   N52  Fn3  v084
 BYTE   W12
// 005   ----------------------------------------
 BYTE   W48
 BYTE   N36  Cn3  v088
 BYTE   N36  En3
 BYTE   W48
// 006   ----------------------------------------
 BYTE   N52  Bn2  v084
 BYTE   N52  Dn3  v096
 BYTE   W60
 BYTE   N05  An2  v076
 BYTE   N05  Cn3  v088
 BYTE   W12
 BYTE   N04  Bn2
 BYTE   N05  Dn3  v096
 BYTE   W12
 BYTE   N48  Cn3
 BYTE   N48  En3  v092
 BYTE   W12
// 007   ----------------------------------------
 BYTE   W48
 BYTE   N40  Bn2  v096
 BYTE   N40  Dn3  v104
 BYTE   W48
// 008   ----------------------------------------
 BYTE   N09  Fn2  v092
 BYTE   N10  Cn3  v104
 BYTE   W12
 BYTE   N15  Fn2  v016
 BYTE   N16  Cn3  v020
 BYTE   W72
 BYTE   N06  An2  v100
 BYTE   N07  Cn3  v112
 BYTE   W12
// 009   ----------------------------------------
 BYTE   N06  An2  v008
 BYTE   N07  Cn3  v012
 BYTE   W36
 BYTE   N06  An2  v100
 BYTE   N07  Cn3  v112
 BYTE   W12
 BYTE   N06  An2  v008
 BYTE   N07  Cn3  v012
 BYTE   W36
 BYTE   N08  An2  v092
 BYTE   N08  Cn3  v100
 BYTE   W12
// 010   ----------------------------------------
 BYTE   N07  Gn2  v096
 BYTE   N08  Dn3  v112
 BYTE   W12
 BYTE   N07  Gn2  v004
 BYTE   N08  Dn3  v012
 BYTE   W72
 BYTE   N06  Bn2  v100
 BYTE   N07  Dn3  v112
 BYTE   W12
// 011   ----------------------------------------
 BYTE   N06  Bn2  v008
 BYTE   N07  Dn3  v012
 BYTE   W12
 BYTE   N06  Bn2  v104
 BYTE   N07  Dn3  v112
 BYTE   W12
 BYTE   N06  Bn2  v012
 BYTE   N07  Dn3
 BYTE   W36
 BYTE   N32  Gs2  v100
 BYTE   N32  Dn3  v108
 BYTE   W36
// 012   ----------------------------------------
 BYTE   N42  Fn2  v096
 BYTE   N44  Cn3  v104
 BYTE   W48
 BYTE   An2  v084
 BYTE   N44  Cn3  v088
 BYTE   W48
// 013   ----------------------------------------
 BYTE   N42  An2  v096
 BYTE   N42  Cn3  v100
 BYTE   W48
 BYTE   Gs2  v084
 BYTE   N44  Bn2  v092
 BYTE   W48
// 014   ----------------------------------------
 BYTE   N08  En2  v084
 BYTE   N07  An2  v096
 BYTE   W12
 BYTE   N08  En2  v012
 BYTE   N07  An2  v020
 BYTE   W72
 BYTE   N03  An2  v092
 BYTE   N04  Dn3  v108
 BYTE   W12
// 015   ----------------------------------------
 BYTE   N03  An2  v016
 BYTE   N04  Dn3  v024
 BYTE   W12
 BYTE   N60  An2  v104
 BYTE   N60  Cn3
 BYTE   W80
 BYTE   W03
 BYTE   GoTo
  POIN2 Label_1_5462D9
 BYTE   FINE

//**************** Track 3 (Midi-Chn.2) ****************//

FE06TheLastDragonRandomWizard_003:
// 000   ----------------------------------------
 BYTE   KEYSH   FE06TheLastDragonRandomWizard_key+0
 BYTE   VOICE   56
 BYTE   VOL   41*FE06TheLastDragonRandomWizard_mvl/mxv
 BYTE   PAN   c_v+13
 BYTE   N08  An2  v088
 BYTE   W12
 BYTE   VOL   35*FE06TheLastDragonRandomWizard_mvl/mxv
 BYTE   N08  Cn3
 BYTE   W06
 BYTE   VOL   36*FE06TheLastDragonRandomWizard_mvl/mxv
 BYTE   W06
 BYTE   AnM1
 BYTE   N08
 BYTE   W06
 BYTE   VOL   36*FE06TheLastDragonRandomWizard_mvl/mxv
 BYTE   W06
 BYTE   N08  An2
 BYTE   W01
 BYTE   VOL   36*FE06TheLastDragonRandomWizard_mvl/mxv
 BYTE   W06
 BYTE   AsM1
 BYTE   W05
 BYTE   N08
 BYTE   W01
 BYTE   VOL   37*FE06TheLastDragonRandomWizard_mvl/mxv
 BYTE   W06
 BYTE   BnM1
 BYTE   W05
 BYTE   N08  Cn3
 BYTE   W01
 BYTE   VOL   38*FE06TheLastDragonRandomWizard_mvl/mxv
 BYTE   W06
 BYTE   BnM1
 BYTE   W05
 BYTE   N08
 BYTE   W02
 BYTE   VOL   38*FE06TheLastDragonRandomWizard_mvl/mxv
 BYTE   W06
 BYTE   Cn0
 BYTE   W04
 BYTE   N08  An2
 BYTE   W02
 BYTE   VOL   39*FE06TheLastDragonRandomWizard_mvl/mxv
 BYTE   W06
 BYTE   Cn0
 BYTE   W04
// 001   ----------------------------------------
 BYTE   N08
 BYTE   W02
 BYTE   VOL   39*FE06TheLastDragonRandomWizard_mvl/mxv
 BYTE   W06
 BYTE   Cs0
 BYTE   W04
 BYTE   N08  Cn3
 BYTE   W03
 BYTE   VOL   40*FE06TheLastDragonRandomWizard_mvl/mxv
 BYTE   W06
 BYTE   Cs0
 BYTE   W03
 BYTE   N08
 BYTE   W03
 BYTE   VOL   40*FE06TheLastDragonRandomWizard_mvl/mxv
 BYTE   W06
 BYTE   Dn0
 BYTE   W03
 BYTE   N08  An2
 BYTE   W03
 BYTE   VOL   41*FE06TheLastDragonRandomWizard_mvl/mxv
 BYTE   W07
 BYTE   Dn0
 BYTE   W02
 BYTE   N08
 BYTE   W04
 BYTE   VOL   41*FE06TheLastDragonRandomWizard_mvl/mxv
 BYTE   W06
 BYTE   Ds0
 BYTE   W02
 BYTE   N08  Cn3
 BYTE   W04
 BYTE   VOL   42*FE06TheLastDragonRandomWizard_mvl/mxv
 BYTE   W06
 BYTE   Ds0
 BYTE   W02
 BYTE   N08
 BYTE   W04
 BYTE   VOL   42*FE06TheLastDragonRandomWizard_mvl/mxv
 BYTE   W07
 BYTE   En0
 BYTE   W01
 BYTE   N08  An2
 BYTE   W05
 BYTE   VOL   43*FE06TheLastDragonRandomWizard_mvl/mxv
 BYTE   W06
 BYTE   En0
 BYTE   W01
// 002   ----------------------------------------
 BYTE   N08
 BYTE   W05
 BYTE   VOL   44*FE06TheLastDragonRandomWizard_mvl/mxv
 BYTE   W06
 BYTE   Fn0
 BYTE   W01
 BYTE   N08  Cn3
 BYTE   W05
 BYTE   VOL   44*FE06TheLastDragonRandomWizard_mvl/mxv
 BYTE   W07
 BYTE   Fn0
 BYTE   N08
 BYTE   W06
 BYTE   VOL   45*FE06TheLastDragonRandomWizard_mvl/mxv
 BYTE   W06
 BYTE   Fs0
 BYTE   N08  An2
 BYTE   W06
 BYTE   VOL   45*FE06TheLastDragonRandomWizard_mvl/mxv
 BYTE   W06
 BYTE   Fs0
 BYTE   N08
 BYTE   W07
 BYTE   VOL   46*FE06TheLastDragonRandomWizard_mvl/mxv
 BYTE   W05
 BYTE   N08  Cn3
 BYTE   W01
 BYTE   VOL   46*FE06TheLastDragonRandomWizard_mvl/mxv
 BYTE   W06
 BYTE   Gn0
 BYTE   W05
 BYTE   N08
 BYTE   W01
 BYTE   VOL   46*FE06TheLastDragonRandomWizard_mvl/mxv
 BYTE   W06
 BYTE   Gs0
 BYTE   W05
 BYTE   N08  An2
 BYTE   W01
 BYTE   VOL   47*FE06TheLastDragonRandomWizard_mvl/mxv
 BYTE   W07
 BYTE   Gs0
 BYTE   W04
// 003   ----------------------------------------
 BYTE   N08
 BYTE   W02
 BYTE   VOL   48*FE06TheLastDragonRandomWizard_mvl/mxv
 BYTE   W10
 BYTE   N08  Cn3
 BYTE   W12
 BYTE   N08
 BYTE   W12
 BYTE   An2
 BYTE   W12
 BYTE   En2
 BYTE   W12
 BYTE   Gs2
 BYTE   W12
 BYTE   Bn2
 BYTE   W12
 BYTE   Dn3
 BYTE   W12
// 004   ----------------------------------------
Label_2_015D9377:
 BYTE   N52  En3  v088
 BYTE   W60
 BYTE   N11  Dn3  v060
 BYTE   W12
 BYTE   En3  v072
 BYTE   W12
 BYTE   N52  Fn3  v084
 BYTE   W12
// 005   ----------------------------------------
 BYTE   W48
 BYTE   N40  En3  v080
 BYTE   W48
// 006   ----------------------------------------
 BYTE   N52  Dn3  v092
 BYTE   W60
 BYTE   N11  Cn3  v080
 BYTE   W12
 BYTE   Dn3  v096
 BYTE   W12
 BYTE   N52  En3  v084
 BYTE   W12
// 007   ----------------------------------------
 BYTE   W48
 BYTE   N42  Dn3  v088
 BYTE   W48
// 008   ----------------------------------------
 BYTE   N12  Cn3
 BYTE   W24
 BYTE   N07  Fn2  v084
 BYTE   W12
 BYTE   Fn2  v088
 BYTE   W12
 BYTE   Cn3
 BYTE   W12
 BYTE   An2
 BYTE   W12
 BYTE   Fn3  v076
 BYTE   W12
 BYTE   Cn3
 BYTE   W12
// 009   ----------------------------------------
 BYTE   An3  v080
 BYTE   W12
 BYTE   Fn3
 BYTE   W12
 BYTE   Cn4  v096
 BYTE   W12
 BYTE   An3  v088
 BYTE   W12
 BYTE   Fn4  v084
 BYTE   W12
 BYTE   Fn4  v072
 BYTE   W12
 BYTE   Cn4  v084
 BYTE   W12
 BYTE   An4  v080
 BYTE   W12
// 010   ----------------------------------------
 BYTE   W24
 BYTE   En2  v088
 BYTE   W12
 BYTE   En2  v084
 BYTE   W12
 BYTE   Bn2  v088
 BYTE   W12
 BYTE   N07
 BYTE   W12
 BYTE   Bn2  v092
 BYTE   W12
 BYTE   Gn3  v080
 BYTE   W12
// 011   ----------------------------------------
 BYTE   Gn3  v088
 BYTE   W12
 BYTE   Bn3
 BYTE   W12
 BYTE   N07
 BYTE   W12
 BYTE   En4  v092
 BYTE   W12
 BYTE   En4  v096
 BYTE   W12
 BYTE   Gn4  v080
 BYTE   W12
 BYTE   VOL   41*FE06TheLastDragonRandomWizard_mvl/mxv
 BYTE   PAN   c_v+0
 BYTE   N07  Bn4  v092
 BYTE   W12
 BYTE   Dn5  v080
 BYTE   W12
// 012   ----------------------------------------
 BYTE   N68  En3
 BYTE   N68  An3
 BYTE   W72
 BYTE   N23  Gn3  v068
 BYTE   N23  Bn3  v080
 BYTE   W24
// 013   ----------------------------------------
 BYTE   N32  An3  v076
 BYTE   N32  Cn4  v080
 BYTE   W36
 BYTE   N05  Gn3  v048
 BYTE   N05  Bn3  v068
 BYTE   W06
 BYTE   Fs3  v064
 BYTE   N05  An3  v080
 BYTE   W06
 BYTE   N40  Gs3  v068
 BYTE   N40  Bn3  v056
 BYTE   W48
// 014   ----------------------------------------
 BYTE   N32  En3  v080
 BYTE   N32  An3
 BYTE   W36
 BYTE   N11  Gn3  v056
 BYTE   N11  Bn3  v080
 BYTE   W12
 BYTE   N44  An3
 BYTE   N44  Cn4
 BYTE   W48
// 015   ----------------------------------------
 BYTE   N23  Bn3  v076
 BYTE   N23  Dn4  v072
 BYTE   W24
 BYTE   Gn3  v064
 BYTE   N23  Bn3  v072
 BYTE   W24
 BYTE   An3  v076
 BYTE   N23  Cn4  v092
 BYTE   W24
 BYTE   En3  v064
 BYTE   N23  An3  v072
 BYTE   W23
 BYTE   GoTo
  POIN2 Label_2_015D9377
 BYTE   FINE

//**************** Track 4 (Midi-Chn.3) ****************//

FE06TheLastDragonRandomWizard_004:
// 000   ----------------------------------------
 BYTE   KEYSH   FE06TheLastDragonRandomWizard_key+0
 BYTE   VOICE   51
 BYTE   VOL   41*FE06TheLastDragonRandomWizard_mvl/mxv
 BYTE   PAN   c_v+13
 BYTE   W06
 BYTE   N08  Bn2  v088
 BYTE   W06
 BYTE   VOL   35*FE06TheLastDragonRandomWizard_mvl/mxv
 BYTE   W06
 BYTE   AnM1
 BYTE   N08  Dn3
 BYTE   W06
 BYTE   VOL   36*FE06TheLastDragonRandomWizard_mvl/mxv
 BYTE   W06
 BYTE   AnM1
 BYTE   N08  Bn2
 BYTE   W07
 BYTE   VOL   36*FE06TheLastDragonRandomWizard_mvl/mxv
 BYTE   W05
 BYTE   N08
 BYTE   W01
 BYTE   VOL   37*FE06TheLastDragonRandomWizard_mvl/mxv
 BYTE   W06
 BYTE   AsM1
 BYTE   W05
 BYTE   N08
 BYTE   W01
 BYTE   VOL   38*FE06TheLastDragonRandomWizard_mvl/mxv
 BYTE   W06
 BYTE   BnM1
 BYTE   W05
 BYTE   N08  Dn3
 BYTE   W01
 BYTE   VOL   38*FE06TheLastDragonRandomWizard_mvl/mxv
 BYTE   W07
 BYTE   BnM1
 BYTE   W04
 BYTE   N08  Bn2
 BYTE   W02
 BYTE   VOL   39*FE06TheLastDragonRandomWizard_mvl/mxv
 BYTE   W06
 BYTE   Cn0
 BYTE   W04
 BYTE   N08
 BYTE   W02
 BYTE   VOL   39*FE06TheLastDragonRandomWizard_mvl/mxv
 BYTE   W04
// 001   ----------------------------------------
 BYTE   W02
 BYTE   Cn0
 BYTE   W04
 BYTE   N08
 BYTE   W02
 BYTE   VOL   40*FE06TheLastDragonRandomWizard_mvl/mxv
 BYTE   W07
 BYTE   Cs0
 BYTE   W03
 BYTE   N08  Dn3
 BYTE   W03
 BYTE   VOL   40*FE06TheLastDragonRandomWizard_mvl/mxv
 BYTE   W06
 BYTE   Cs0
 BYTE   W03
 BYTE   N08  Bn2
 BYTE   W03
 BYTE   VOL   41*FE06TheLastDragonRandomWizard_mvl/mxv
 BYTE   W06
 BYTE   Dn0
 BYTE   W03
 BYTE   N08
 BYTE   W04
 BYTE   VOL   41*FE06TheLastDragonRandomWizard_mvl/mxv
 BYTE   W06
 BYTE   Dn0
 BYTE   W02
 BYTE   N08
 BYTE   W04
 BYTE   VOL   42*FE06TheLastDragonRandomWizard_mvl/mxv
 BYTE   W06
 BYTE   Ds0
 BYTE   W02
 BYTE   N08  Dn3
 BYTE   W04
 BYTE   VOL   42*FE06TheLastDragonRandomWizard_mvl/mxv
 BYTE   W06
 BYTE   Ds0
 BYTE   W02
 BYTE   N08  Bn2
 BYTE   W05
 BYTE   VOL   43*FE06TheLastDragonRandomWizard_mvl/mxv
 BYTE   W06
 BYTE   En0
 BYTE   W01
 BYTE   N08
 BYTE   W05
 BYTE   VOL   43*FE06TheLastDragonRandomWizard_mvl/mxv
 BYTE   W01
// 002   ----------------------------------------
 BYTE   W05
 BYTE   Fn0
 BYTE   W01
 BYTE   N08
 BYTE   W05
 BYTE   VOL   44*FE06TheLastDragonRandomWizard_mvl/mxv
 BYTE   W06
 BYTE   Fn0
 BYTE   W01
 BYTE   N08  Dn3
 BYTE   W06
 BYTE   VOL   44*FE06TheLastDragonRandomWizard_mvl/mxv
 BYTE   W06
 BYTE   Fs0
 BYTE   N08  Bn2
 BYTE   W06
 BYTE   VOL   45*FE06TheLastDragonRandomWizard_mvl/mxv
 BYTE   W06
 BYTE   Fs0
 BYTE   N08
 BYTE   W06
 BYTE   VOL   45*FE06TheLastDragonRandomWizard_mvl/mxv
 BYTE   W06
 BYTE   N08
 BYTE   W01
 BYTE   VOL   46*FE06TheLastDragonRandomWizard_mvl/mxv
 BYTE   W06
 BYTE   Gn0
 BYTE   W05
 BYTE   N08  Dn3
 BYTE   W01
 BYTE   VOL   46*FE06TheLastDragonRandomWizard_mvl/mxv
 BYTE   W06
 BYTE   Gn0
 BYTE   W05
 BYTE   N08  Bn2
 BYTE   W01
 BYTE   VOL   47*FE06TheLastDragonRandomWizard_mvl/mxv
 BYTE   W06
 BYTE   Gs0
 BYTE   W05
 BYTE   N08
 BYTE   W02
 BYTE   VOL   47*FE06TheLastDragonRandomWizard_mvl/mxv
 BYTE   W04
// 003   ----------------------------------------
 BYTE   W02
 BYTE   An0
 BYTE   W04
 BYTE   N08
 BYTE   W12
 BYTE   Dn3
 BYTE   W12
 BYTE   Bn2
 BYTE   W12
 BYTE   Gs2
 BYTE   W12
 BYTE   Fs2
 BYTE   W12
 BYTE   An2
 BYTE   W12
 BYTE   Cn3
 BYTE   W12
 BYTE   N05  En3
 BYTE   W06
// 004   ----------------------------------------
Label_3_546789:
 BYTE   W96
// 005   ----------------------------------------
 BYTE   W96
// 006   ----------------------------------------
 BYTE   W96
// 007   ----------------------------------------
 BYTE   W96
// 008   ----------------------------------------
 BYTE   VOL   41*FE06TheLastDragonRandomWizard_mvl/mxv
 BYTE   PAN   c_v+13
 BYTE   W30
 BYTE   N07  An2  v100
 BYTE   W12
 BYTE   An2  v080
 BYTE   W12
 BYTE   Fn2  v072
 BYTE   W12
 BYTE   Cn3  v080
 BYTE   W12
 BYTE   An2
 BYTE   W12
 BYTE   Fn3
 BYTE   W06
// 009   ----------------------------------------
 BYTE   W06
 BYTE   Cn3
 BYTE   W12
 BYTE   An3  v084
 BYTE   W12
 BYTE   Fn3  v076
 BYTE   W12
 BYTE   Cn4  v080
 BYTE   W12
 BYTE   Cn4  v068
 BYTE   W12
 BYTE   An4  v084
 BYTE   W12
 BYTE   Fn4  v072
 BYTE   W12
 BYTE   Cn5  v076
 BYTE   W06
// 010   ----------------------------------------
 BYTE   W30
 BYTE   Gn2  v100
 BYTE   W12
 BYTE   Gn2  v072
 BYTE   W12
 BYTE   Gn2  v076
 BYTE   W12
 BYTE   En3  v084
 BYTE   W12
 BYTE   En3  v076
 BYTE   W12
 BYTE   N07
 BYTE   W06
// 011   ----------------------------------------
 BYTE   W06
 BYTE   En3  v088
 BYTE   W12
 BYTE   Gn3  v084
 BYTE   W12
 BYTE   Gn3  v076
 BYTE   W12
 BYTE   Bn3  v084
 BYTE   W12
 BYTE   N07
 BYTE   W12
 BYTE   En4  v088
 BYTE   W12
 BYTE   Cn5  v076
 BYTE   W12
 BYTE   Bn4  v084
 BYTE   W06
// 012   ----------------------------------------
 BYTE   W96
// 013   ----------------------------------------
 BYTE   W96
// 014   ----------------------------------------
 BYTE   W96
// 015   ----------------------------------------
 BYTE   W92
 BYTE   W03
 BYTE   GoTo
  POIN2 Label_3_546789
 BYTE   FINE

//**************** Track 5 (Midi-Chn.4) ****************//

FE06TheLastDragonRandomWizard_005:
// 000   ----------------------------------------
 BYTE   KEYSH   FE06TheLastDragonRandomWizard_key+0
 BYTE   VOICE   42
 BYTE   VOL   33*FE06TheLastDragonRandomWizard_mvl/mxv
 BYTE   PAN   c_v+0
 BYTE   N08  An3  v096
 BYTE   W12
 BYTE   An3  v088
 BYTE   W12
 BYTE   N08
 BYTE   W12
 BYTE   An3  v092
 BYTE   W12
 BYTE   N08
 BYTE   W12
 BYTE   N08
 BYTE   W12
 BYTE   N08
 BYTE   W12
 BYTE   N08
 BYTE   W12
// 001   ----------------------------------------
 BYTE   An3  v100
 BYTE   W12
 BYTE   An3  v092
 BYTE   W12
 BYTE   N08
 BYTE   W12
 BYTE   An3  v096
 BYTE   W12
 BYTE   N08
 BYTE   W12
 BYTE   N08
 BYTE   W12
 BYTE   N08
 BYTE   W12
 BYTE   N08
 BYTE   W12
// 002   ----------------------------------------
 BYTE   An3  v108
 BYTE   W12
 BYTE   An3  v096
 BYTE   W12
 BYTE   N08
 BYTE   W12
 BYTE   An3  v100
 BYTE   W12
 BYTE   N08
 BYTE   W12
 BYTE   N08
 BYTE   W12
 BYTE   N08
 BYTE   W12
 BYTE   N08
 BYTE   W12
// 003   ----------------------------------------
 BYTE   An3  v112
 BYTE   W12
 BYTE   An3  v100
 BYTE   W12
 BYTE   N08
 BYTE   W12
 BYTE   An3  v108
 BYTE   W12
 BYTE   N08
 BYTE   W12
 BYTE   N08
 BYTE   W12
 BYTE   N08
 BYTE   W12
 BYTE   Bn3
 BYTE   W12
// 004   ----------------------------------------
Label_4_547772:
 BYTE   N24  An3  v084
 BYTE   W36
 BYTE   N17
 BYTE   W24
 BYTE   N23  An3  v080
 BYTE   W24
 BYTE   N11  Gn3  v072
 BYTE   W12
// 005   ----------------------------------------
 BYTE   N07  An3  v068
 BYTE   W12
 BYTE   N19  An3  v080
 BYTE   W24
 BYTE   N23
 BYTE   W24
 BYTE   N11  En3  v064
 BYTE   W12
 BYTE   An3  v072
 BYTE   W12
 BYTE   N10  En3  v076
 BYTE   W12
// 006   ----------------------------------------
 BYTE   N24  An3
 BYTE   W36
 BYTE   N17  An3  v084
 BYTE   W24
 BYTE   N23  An3  v080
 BYTE   W24
 BYTE   N11  Bn3  v092
 BYTE   W12
// 007   ----------------------------------------
 BYTE   N30  An3  v076
 BYTE   W36
 BYTE   N11  An3  v084
 BYTE   W12
 BYTE   N30  Gn3  v088
 BYTE   W36
 BYTE   N11  Gn3  v084
 BYTE   W12
// 008   ----------------------------------------
 BYTE   N28  Fn3  v088
 BYTE   W36
 BYTE   N23  Fn3  v092
 BYTE   W24
 BYTE   N11  Cn3  v076
 BYTE   W12
 BYTE   Fn3  v084
 BYTE   W12
 BYTE   N22  Gn3
 BYTE   W12
// 009   ----------------------------------------
 BYTE   W12
 BYTE   N08  Fn3  v072
 BYTE   W12
 BYTE   N11  Gn3  v088
 BYTE   W12
 BYTE   N23  An3  v080
 BYTE   W24
 BYTE   N11  Gn3
 BYTE   W12
 BYTE   An3  v084
 BYTE   W12
 BYTE   Cn4  v088
 BYTE   W12
// 010   ----------------------------------------
 BYTE   N24  En3  v080
 BYTE   W36
 BYTE   N21  En3  v084
 BYTE   W24
 BYTE   N23  Bn3  v100
 BYTE   W24
 BYTE   N15  En3  v088
 BYTE   W12
// 011   ----------------------------------------
 BYTE   W12
 BYTE   N10  En3  v080
 BYTE   W12
 BYTE   N11  Bn3  v096
 BYTE   W12
 BYTE   N23  En3  v084
 BYTE   W24
 BYTE   N11  Gn3
 BYTE   W12
 BYTE   An3  v080
 BYTE   W12
 BYTE   N10  Bn3  v088
 BYTE   W12
// 012   ----------------------------------------
 BYTE   N28  Dn3  v092
 BYTE   W36
 BYTE   N19  Dn3  v096
 BYTE   W24
 BYTE   N11  Dn3  v088
 BYTE   W12
 BYTE   An3  v072
 BYTE   W12
 BYTE   Dn3  v076
 BYTE   W12
// 013   ----------------------------------------
 BYTE   N24  En3  v088
 BYTE   W36
 BYTE   N19  En3  v092
 BYTE   W24
 BYTE   N11  En3  v072
 BYTE   W12
 BYTE   Bn3  v096
 BYTE   W12
 BYTE   En3  v076
 BYTE   W12
// 014   ----------------------------------------
 BYTE   N24  An3  v088
 BYTE   W36
 BYTE   N14  An3  v080
 BYTE   W24
 BYTE   N23  An3  v088
 BYTE   W24
 BYTE   N08  Bn3  v092
 BYTE   W12
// 015   ----------------------------------------
 BYTE   N24  An3  v072
 BYTE   W36
 BYTE   N23  An3  v076
 BYTE   W24
 BYTE   N11  Dn4  v088
 BYTE   W12
 BYTE   Cn4
 BYTE   W12
 BYTE   N06  Bn3
 BYTE   W11
 BYTE   GoTo
  POIN2 Label_4_547772
 BYTE   FINE

//**************** Track 6 (Midi-Chn.5) ****************//

FE06TheLastDragonRandomWizard_006:
// 000   ----------------------------------------
 BYTE   KEYSH   FE06TheLastDragonRandomWizard_key+0
 BYTE   VOICE   47
 BYTE   VOL   33*FE06TheLastDragonRandomWizard_mvl/mxv
 BYTE   W96
// 001   ----------------------------------------
 BYTE   W96
// 002   ----------------------------------------
 BYTE   W72
 BYTE   PAN   c_v-11
 BYTE   W24
// 003   ----------------------------------------
 BYTE   W72
 BYTE   N11  Gn1  v084
 BYTE   W12
 BYTE   Fn1  v080
 BYTE   W12
// 004   ----------------------------------------
Label_5_5473FC:
 BYTE   N23  Gn1  v096
 BYTE   W36
 BYTE   Gn1  v100
 BYTE   W60
// 005   ----------------------------------------
 BYTE   Gn1  v092
 BYTE   W36
 BYTE   N23
 BYTE   W36
 BYTE   Gn1  v088
 BYTE   W24
// 006   ----------------------------------------
 BYTE   Gn1  v104
 BYTE   W36
 BYTE   Gn1  v100
 BYTE   W60
// 007   ----------------------------------------
 BYTE   Gn1  v096
 BYTE   W36
 BYTE   N22  Gn1  v104
 BYTE   W36
 BYTE   N21  Gn1  v088
 BYTE   W24
// 008   ----------------------------------------
 BYTE   N23  Gn1  v104
 BYTE   W84
 BYTE   N22  Gn1  v096
 BYTE   W12
// 009   ----------------------------------------
 BYTE   W36
 BYTE   Gn1  v104
 BYTE   W48
 BYTE   N11
 BYTE   W12
// 010   ----------------------------------------
 BYTE   N24  Gn1  v112
 BYTE   W84
 BYTE   N23  Gn1  v104
 BYTE   W12
// 011   ----------------------------------------
 BYTE   W12
 BYTE   Gn1  v100
 BYTE   W48
 BYTE   N32  Gn1  v112
 BYTE   W36
// 012   ----------------------------------------
 BYTE   N22  Gn1  v108
 BYTE   W84
 BYTE   N11  Fn1  v084
 BYTE   W12
// 013   ----------------------------------------
 BYTE   N24  Gn1  v092
 BYTE   W36
 BYTE   N11  Gn1  v048
 BYTE   W12
 BYTE   Gn1  v088
 BYTE   W12
 BYTE   Fn1  v048
 BYTE   W12
 BYTE   Fn1  v060
 BYTE   W12
 BYTE   Gn1  v044
 BYTE   W12
// 014   ----------------------------------------
 BYTE   N23  Gn1  v096
 BYTE   W36
 BYTE   Fn1  v088
 BYTE   W36
 BYTE   Gn1
 BYTE   W24
// 015   ----------------------------------------
 BYTE   Gn1  v104
 BYTE   W36
 BYTE   N22  Gn1  v096
 BYTE   W36
 BYTE   N11  Gn1  v084
 BYTE   W12
 BYTE   Fn1  v080
 BYTE   W11
 BYTE   GoTo
  POIN2 Label_5_5473FC
 BYTE   FINE

//**************** Track 7 (Midi-Chn.6) ****************//

FE06TheLastDragonRandomWizard_007:
// 000   ----------------------------------------
 BYTE   KEYSH   FE06TheLastDragonRandomWizard_key+0
 BYTE   VOICE   124
 BYTE   W96
// 001   ----------------------------------------
 BYTE   W72
 BYTE   VOL   38*FE06TheLastDragonRandomWizard_mvl/mxv
 BYTE   PAN   c_v-2
 BYTE   W24
// 002   ----------------------------------------
 BYTE   W12
 BYTE   N11  As3  v008
 BYTE   W12
 BYTE   As3  v012
 BYTE   W12
 BYTE   As3  v016
 BYTE   W12
 BYTE   As3  v020
 BYTE   W12
 BYTE   As3  v016
 BYTE   W12
 BYTE   As3  v036
 BYTE   W12
 BYTE   As3  v020
 BYTE   W12
// 003   ----------------------------------------
 BYTE   As3  v032
 BYTE   W12
 BYTE   As3  v028
 BYTE   W12
 BYTE   As3  v040
 BYTE   W12
 BYTE   As3  v024
 BYTE   W12
 BYTE   As3  v028
 BYTE   W12
 BYTE   As3  v032
 BYTE   W12
 BYTE   N11
 BYTE   W12
 BYTE   As3  v012
 BYTE   W12
// 004   ----------------------------------------
Label_6_015D9489:
 BYTE   N23  Cs2  v088
 BYTE   W24
 BYTE   N11  As3  v044
 BYTE   W12
 BYTE   As3  v028
 BYTE   W12
 BYTE   As3  v036
 BYTE   W12
 BYTE   As3  v032
 BYTE   W12
 BYTE   As3  v036
 BYTE   W12
 BYTE   As3  v032
 BYTE   W12
// 005   ----------------------------------------
 BYTE   As3  v028
 BYTE   W12
 BYTE   As3  v036
 BYTE   W12
 BYTE   As3  v040
 BYTE   W12
 BYTE   As3  v036
 BYTE   W12
 BYTE   As3  v024
 BYTE   W12
 BYTE   As1  v080
 BYTE   W12
 BYTE   As3  v016
 BYTE   W12
 BYTE   As1  v072
 BYTE   W12
// 006   ----------------------------------------
 BYTE   As3  v044
 BYTE   W12
 BYTE   As3  v004
 BYTE   W12
 BYTE   As1  v056
 BYTE   W12
 BYTE   As3  v004
 BYTE   W12
 BYTE   N11
 BYTE   W12
 BYTE   As3  v008
 BYTE   W12
 BYTE   As3  v016
 BYTE   W12
 BYTE   N11
 BYTE   W12
// 007   ----------------------------------------
 BYTE   As3  v020
 BYTE   W12
 BYTE   As3  v008
 BYTE   W12
 BYTE   As3  v012
 BYTE   W12
 BYTE   As3  v016
 BYTE   W12
 BYTE   As3  v020
 BYTE   W12
 BYTE   As1  v044
 BYTE   W12
 BYTE   As3  v036
 BYTE   W12
 BYTE   As1  v048
 BYTE   W12
// 008   ----------------------------------------
 BYTE   N22  Cs2  v080
 BYTE   W24
 BYTE   N11  As3  v040
 BYTE   W12
 BYTE   As3  v024
 BYTE   W12
 BYTE   As3  v028
 BYTE   W12
 BYTE   As3  v032
 BYTE   W12
 BYTE   N11
 BYTE   W12
 BYTE   As3  v012
 BYTE   W12
// 009   ----------------------------------------
 BYTE   As3  v004
 BYTE   W12
 BYTE   N11
 BYTE   W12
 BYTE   As3  v024
 BYTE   W12
 BYTE   As3  v020
 BYTE   W12
 BYTE   As3  v028
 BYTE   W12
 BYTE   As3  v016
 BYTE   W12
 BYTE   As3  v024
 BYTE   W12
 BYTE   As1  v076
 BYTE   W12
// 010   ----------------------------------------
 BYTE   N21  Cs2  v092
 BYTE   W24
 BYTE   N11  As1  v056
 BYTE   W12
 BYTE   As3  v020
 BYTE   W12
 BYTE   As3  v012
 BYTE   W12
 BYTE   As1  v052
 BYTE   W12
 BYTE   As3  v032
 BYTE   W12
 BYTE   As3  v024
 BYTE   W12
// 011   ----------------------------------------
 BYTE   As3  v028
 BYTE   W12
 BYTE   N11
 BYTE   W12
 BYTE   As1  v056
 BYTE   W12
 BYTE   As3  v004
 BYTE   W12
 BYTE   As3  v024
 BYTE   W12
 BYTE   As1  v088
 BYTE   W12
 BYTE   As3  v020
 BYTE   W12
 BYTE   N11
 BYTE   W12
// 012   ----------------------------------------
 BYTE   N22  Cs2  v100
 BYTE   W24
 BYTE   N11  As1  v048
 BYTE   W12
 BYTE   As3  v004
 BYTE   W12
 BYTE   As3  v016
 BYTE   W12
 BYTE   As1  v056
 BYTE   W12
 BYTE   As3  v012
 BYTE   W12
 BYTE   As3  v020
 BYTE   W12
// 013   ----------------------------------------
 BYTE   As3  v024
 BYTE   W12
 BYTE   As3  v032
 BYTE   W12
 BYTE   As1  v072
 BYTE   W12
 BYTE   As3  v012
 BYTE   W12
 BYTE   As3  v028
 BYTE   W12
 BYTE   N23  As1  v076
 BYTE   W24
 BYTE   N11  As3  v036
 BYTE   W12
// 014   ----------------------------------------
 BYTE   As3  v020
 BYTE   W12
 BYTE   As3  v036
 BYTE   W12
 BYTE   As3  v044
 BYTE   W12
 BYTE   As3  v028
 BYTE   W12
 BYTE   As3  v036
 BYTE   W12
 BYTE   As3  v032
 BYTE   W12
 BYTE   As3  v036
 BYTE   W12
 BYTE   As3  v032
 BYTE   W12
// 015   ----------------------------------------
 BYTE   As3  v028
 BYTE   W12
 BYTE   As3  v036
 BYTE   W12
 BYTE   As3  v040
 BYTE   W12
 BYTE   As3  v036
 BYTE   W12
 BYTE   As3  v024
 BYTE   W12
 BYTE   As1  v080
 BYTE   W12
 BYTE   As3  v016
 BYTE   W12
 BYTE   As1  v072
 BYTE   W11
 BYTE   GoTo
  POIN2 Label_6_015D9489
 BYTE   FINE

//******************************************************//
	ALIGN 4

FE06TheLastDragonRandomWizard:
	BYTE	7	// NumTrks
	BYTE	0	// NumBlks
	BYTE	FE06TheLastDragonRandomWizard_pri	// Priority
	BYTE	FE06TheLastDragonRandomWizard_rev	// Reverb.
    
	POIN2	FE06TheLastDragonRandomWizard_grp
    
	POIN2	FE06TheLastDragonRandomWizard_001
	POIN2	FE06TheLastDragonRandomWizard_002
	POIN2	FE06TheLastDragonRandomWizard_003
	POIN2	FE06TheLastDragonRandomWizard_004
	POIN2	FE06TheLastDragonRandomWizard_005
	POIN2	FE06TheLastDragonRandomWizard_006
	POIN2	FE06TheLastDragonRandomWizard_007

	
