//Event file generated from Sappy .s format.
	#include "MPlayDef.event"

	#define	FE07InescapableFateRandomWizard_grp  voicegroup000
	#define	FE07InescapableFateRandomWizard_pri  0
	#define	FE07InescapableFateRandomWizard_rev  0
	#define	FE07InescapableFateRandomWizard_mvl  127
	#define	FE07InescapableFateRandomWizard_key  0
	#define	FE07InescapableFateRandomWizard_tbs  1
	#define	FE07InescapableFateRandomWizard_exg  0
	#define	FE07InescapableFateRandomWizard_cmp  1

	// .rodata
	//	FE07InescapableFateRandomWizard
	ALIGN 4


//**************** Track 1 (Midi-Chn.0) ****************//

FE07InescapableFateRandomWizard_001:
// 000   ----------------------------------------
 BYTE   VOL   40*FE07InescapableFateRandomWizard_mvl/mxv
 BYTE   KEYSH   FE07InescapableFateRandomWizard_key+0
 BYTE   TEMPO   122*FE07InescapableFateRandomWizard_tbs/2
 BYTE   VOICE   73
 BYTE   W96
// 001   ----------------------------------------
 BYTE   W96
// 002   ----------------------------------------
 BYTE   W96
// 003   ----------------------------------------
 BYTE   N06  Bn4  v064
 BYTE   W06
 BYTE   Cn5
 BYTE   W06
 BYTE   Bn4
 BYTE   W06
 BYTE   An4
 BYTE   W06
 BYTE   N12  Gn4
 BYTE   W24
 BYTE   N06
 BYTE   W06
 BYTE   An4
 BYTE   W06
 BYTE   Gn4
 BYTE   W06
 BYTE   Fs4
 BYTE   W06
 BYTE   N12  En4
 BYTE   W24
// 004   ----------------------------------------
 BYTE   N06
 BYTE   W06
 BYTE   Fs4
 BYTE   W06
 BYTE   En4
 BYTE   W06
 BYTE   Ds4
 BYTE   W06
 BYTE   N12  En4
 BYTE   W72
// 005   ----------------------------------------
 BYTE   W96
// 006   ----------------------------------------
 BYTE   W96
// 007   ----------------------------------------
 BYTE   N06  Bn4
 BYTE   W06
 BYTE   Cn5
 BYTE   W06
 BYTE   Bn4
 BYTE   W06
 BYTE   An4
 BYTE   W06
 BYTE   N12  Dn5
 BYTE   W12
 BYTE   N60  An4
 BYTE   W60
// 008   ----------------------------------------
Label_0_01559637:
 BYTE   W24
 BYTE   N96  Dn3  v076
 BYTE   N96  Dn4
 BYTE   W72
 BYTE   PEND 
// 009   ----------------------------------------
 BYTE   W24
Label_0_01559640:
 BYTE   N96  Cn3  v076
 BYTE   N96  Cn4
 BYTE   W72
// 010   ----------------------------------------
Label_0_01559646:
 BYTE   W24
 BYTE   N84  Bn2  v076
 BYTE   N84  Bn3
 BYTE   W72
 BYTE   PEND 
// 011   ----------------------------------------
Label_0_0155964E:
 BYTE   W12
 BYTE   N12  Cn3  v076
 BYTE   N12  Cn4
 BYTE   W12
 BYTE   N72  Bn2
 BYTE   N72  Bn3
 BYTE   W72
 BYTE   PEND 
// 012   ----------------------------------------
Label_0_0155965B:
 BYTE   N24  An2  v076
 BYTE   N24  An3
 BYTE   W24
 BYTE   N48  Gs2
 BYTE   N48  Gs3
 BYTE   W72
 BYTE   PEND 
// 013   ----------------------------------------
 BYTE   W96
// 014   ----------------------------------------
 BYTE   W96
// 015   ----------------------------------------
 BYTE   W96
// 016   ----------------------------------------
 BYTE   W96
// 017   ----------------------------------------
 BYTE   W96
// 018   ----------------------------------------
 BYTE   W96
// 019   ----------------------------------------
 BYTE   W96
// 020   ----------------------------------------
 BYTE   W96
// 021   ----------------------------------------
 BYTE   W96
// 022   ----------------------------------------
 BYTE   W96
// 023   ----------------------------------------
 BYTE   W96
// 024   ----------------------------------------
Label_0_01559672:
 BYTE   W24
 BYTE   N36  Fn4  v076
 BYTE   W48
 BYTE   N12  Dn4
 BYTE   W12
 BYTE   En4
 BYTE   W12
 BYTE   PEND 
// 025   ----------------------------------------
Label_0_0155967D:
 BYTE   N12  Fn4  v076
 BYTE   W12
 BYTE   An4
 BYTE   W12
 BYTE   N24  Gs4
 BYTE   W24
 BYTE   En4  v096
 BYTE   W24
 BYTE   Bn4
 BYTE   W24
 BYTE   PEND 
// 026   ----------------------------------------
Label_0_0155968C:
 BYTE   N24  Gs4  v096
 BYTE   W24
 BYTE   N36  Fn4  v076
 BYTE   W48
 BYTE   N12  Dn4
 BYTE   W12
 BYTE   En4
 BYTE   W12
 BYTE   PEND 
// 027   ----------------------------------------
Label_0_0155969A:
 BYTE   N12  Fn4  v076
 BYTE   W12
 BYTE   An4
 BYTE   W12
 BYTE   N24  Gs4
 BYTE   W24
 BYTE   En4  v096
 BYTE   W24
 BYTE   Gs4
 BYTE   W24
 BYTE   PEND 
// 028   ----------------------------------------
Label_0_015596A9:
 BYTE   N24  Bn4  v096
 BYTE   W24
 BYTE   N36  Fn4  v076
 BYTE   W48
 BYTE   N12  Dn4
 BYTE   W12
 BYTE   En4
 BYTE   W12
 BYTE   PEND 
 BYTE   PATT
  POIN2 Label_0_0155967D
 BYTE   PATT
  POIN2 Label_0_0155968C
// 029   ----------------------------------------
Label_0_015596C1:
 BYTE   N12  Fn4  v076
 BYTE   W12
 BYTE   An4
 BYTE   W12
 BYTE   N24  Gs4
 BYTE   W24
 BYTE   Bn4
 BYTE   W24
 BYTE   N36  En5
 BYTE   W24
 BYTE   PEND 
// 030   ----------------------------------------
 BYTE   W96
// 031   ----------------------------------------
 BYTE   W96
// 032   ----------------------------------------
 BYTE   W96
// 033   ----------------------------------------
 BYTE   N06  Bn4
 BYTE   W06
 BYTE   Cn5
 BYTE   W06
 BYTE   Bn4
 BYTE   W06
 BYTE   An4
 BYTE   W06
 BYTE   N12  Gn4
 BYTE   W24
 BYTE   N06
 BYTE   W06
 BYTE   An4
 BYTE   W06
 BYTE   Gn4
 BYTE   W06
 BYTE   Fs4
 BYTE   W06
 BYTE   N12  En4
 BYTE   W24
// 034   ----------------------------------------
 BYTE   N06
 BYTE   W06
 BYTE   Fs4
 BYTE   W06
 BYTE   En4
 BYTE   W06
 BYTE   Ds4
 BYTE   W06
 BYTE   N12  En4
 BYTE   W72
// 035   ----------------------------------------
 BYTE   W96
// 036   ----------------------------------------
 BYTE   W96
// 037   ----------------------------------------
 BYTE   N06  Bn4
 BYTE   W06
 BYTE   Cn5
 BYTE   W06
 BYTE   Bn4
 BYTE   W06
 BYTE   An4
 BYTE   W06
 BYTE   N12  Dn5
 BYTE   W12
 BYTE   N60  An4
 BYTE   W60
 BYTE   PATT
  POIN2 Label_0_01559637
// 038   ----------------------------------------
 BYTE   W24
 BYTE   GoTo
  POIN2 Label_0_01559640
// 039   ----------------------------------------
 BYTE   N96  Cn3  v076
 BYTE   N96  Cn4
 BYTE   W72
 BYTE   PATT
  POIN2 Label_0_01559646
 BYTE   PATT
  POIN2 Label_0_0155964E
 BYTE   PATT
  POIN2 Label_0_0155965B
// 040   ----------------------------------------
 BYTE   W96
// 041   ----------------------------------------
 BYTE   W96
// 042   ----------------------------------------
 BYTE   W96
// 043   ----------------------------------------
 BYTE   W96
// 044   ----------------------------------------
 BYTE   W96
// 045   ----------------------------------------
 BYTE   W96
// 046   ----------------------------------------
 BYTE   W96
// 047   ----------------------------------------
 BYTE   W96
// 048   ----------------------------------------
 BYTE   W96
// 049   ----------------------------------------
 BYTE   W96
// 050   ----------------------------------------
 BYTE   W96
 BYTE   PATT
  POIN2 Label_0_01559672
 BYTE   PATT
  POIN2 Label_0_0155967D
 BYTE   PATT
  POIN2 Label_0_0155968C
 BYTE   PATT
  POIN2 Label_0_0155969A
 BYTE   PATT
  POIN2 Label_0_015596A9
 BYTE   PATT
  POIN2 Label_0_0155967D
 BYTE   PATT
  POIN2 Label_0_0155968C
 BYTE   PATT
  POIN2 Label_0_015596C1
// 051   ----------------------------------------
 BYTE   W24
 BYTE   FINE

//**************** Track 2 (Midi-Chn.1) ****************//

FE07InescapableFateRandomWizard_002:
// 000   ----------------------------------------
 BYTE   VOL   40*FE07InescapableFateRandomWizard_mvl/mxv
 BYTE   KEYSH   FE07InescapableFateRandomWizard_key+0
 BYTE   VOICE   68
 BYTE   W96
// 001   ----------------------------------------
 BYTE   W96
// 002   ----------------------------------------
 BYTE   W96
// 003   ----------------------------------------
 BYTE   W96
// 004   ----------------------------------------
 BYTE   W96
// 005   ----------------------------------------
 BYTE   W96
// 006   ----------------------------------------
 BYTE   W96
// 007   ----------------------------------------
 BYTE   W96
// 008   ----------------------------------------
 BYTE   W96
// 009   ----------------------------------------
 BYTE   W24
Label_1_0155976C:
 BYTE   W72
// 010   ----------------------------------------
 BYTE   W96
// 011   ----------------------------------------
 BYTE   W96
// 012   ----------------------------------------
Label_1_0155976F:
 BYTE   W24
 BYTE   N48  Gs2  v076
 BYTE   W48
 BYTE   Bn2
 BYTE   W24
 BYTE   PEND 
// 013   ----------------------------------------
Label_1_01559777:
 BYTE   W24
 BYTE   N48  Dn3  v076
 BYTE   W48
 BYTE   En3
 BYTE   W24
 BYTE   PEND 
// 014   ----------------------------------------
Label_1_0155977F:
 BYTE   W24
 BYTE   N48  Gs3  v076
 BYTE   W48
 BYTE   Bn3
 BYTE   W24
 BYTE   PEND 
// 015   ----------------------------------------
Label_1_01559787:
 BYTE   W24
 BYTE   N60  Dn4  v076
 BYTE   W60
 BYTE   N12  Cn4
 BYTE   W12
 BYTE   PEND 
// 016   ----------------------------------------
Label_1_01559790:
 BYTE   N24  Bn3  v076
 BYTE   W24
 BYTE   N60  An3
 BYTE   W60
 BYTE   N12  Bn3
 BYTE   W12
 BYTE   PEND 
// 017   ----------------------------------------
Label_1_0155979B:
 BYTE   N12  Cn4  v076
 BYTE   W12
 BYTE   En4
 BYTE   W12
 BYTE   N24  Ds4
 BYTE   W24
 BYTE   Bn3
 BYTE   W24
 BYTE   Fs4
 BYTE   W24
 BYTE   PEND 
// 018   ----------------------------------------
Label_1_015597A9:
 BYTE   N24  Ds4  v076
 BYTE   W24
 BYTE   N60  An3
 BYTE   W60
 BYTE   N12  Bn3
 BYTE   W12
 BYTE   PEND 
 BYTE   PATT
  POIN2 Label_1_0155979B
// 019   ----------------------------------------
Label_1_015597B9:
 BYTE   N24  Ds4  v076
 BYTE   W24
 BYTE   N36  Cn4
 BYTE   W48
 BYTE   N12  An3
 BYTE   W12
 BYTE   Bn3
 BYTE   W12
 BYTE   PEND 
 BYTE   PATT
  POIN2 Label_1_0155979B
 BYTE   PATT
  POIN2 Label_1_015597B9
// 020   ----------------------------------------
Label_1_015597D0:
 BYTE   N12  Cn4  v076
 BYTE   W12
 BYTE   En4
 BYTE   W12
 BYTE   N24  Fs4
 BYTE   W24
 BYTE   Ds4
 BYTE   W24
 BYTE   Bn4
 BYTE   W24
 BYTE   PEND 
// 021   ----------------------------------------
 BYTE   Fs4
 BYTE   W96
// 022   ----------------------------------------
 BYTE   W96
// 023   ----------------------------------------
 BYTE   W96
// 024   ----------------------------------------
 BYTE   W96
// 025   ----------------------------------------
 BYTE   W96
// 026   ----------------------------------------
 BYTE   W96
// 027   ----------------------------------------
 BYTE   W96
// 028   ----------------------------------------
 BYTE   W96
// 029   ----------------------------------------
 BYTE   W96
// 030   ----------------------------------------
 BYTE   W96
// 031   ----------------------------------------
 BYTE   W96
// 032   ----------------------------------------
 BYTE   W96
// 033   ----------------------------------------
 BYTE   W96
// 034   ----------------------------------------
 BYTE   W96
// 035   ----------------------------------------
 BYTE   W96
// 036   ----------------------------------------
 BYTE   W96
// 037   ----------------------------------------
 BYTE   W96
// 038   ----------------------------------------
 BYTE   W24
 BYTE   GoTo
  POIN2 Label_1_0155976C
// 039   ----------------------------------------
 BYTE   W72
 BYTE   W96
// 040   ----------------------------------------
 BYTE   W96
 BYTE   PATT
  POIN2 Label_1_0155976F
 BYTE   PATT
  POIN2 Label_1_01559777
 BYTE   PATT
  POIN2 Label_1_0155977F
 BYTE   PATT
  POIN2 Label_1_01559787
 BYTE   PATT
  POIN2 Label_1_01559790
 BYTE   PATT
  POIN2 Label_1_0155979B
 BYTE   PATT
  POIN2 Label_1_015597A9
 BYTE   PATT
  POIN2 Label_1_0155979B
 BYTE   PATT
  POIN2 Label_1_015597B9
 BYTE   PATT
  POIN2 Label_1_0155979B
 BYTE   PATT
  POIN2 Label_1_015597B9
 BYTE   PATT
  POIN2 Label_1_015597D0
// 041   ----------------------------------------
 BYTE   N24  Fs4  v076
 BYTE   W96
// 042   ----------------------------------------
 BYTE   W96
// 043   ----------------------------------------
 BYTE   W96
// 044   ----------------------------------------
 BYTE   W96
// 045   ----------------------------------------
 BYTE   W96
// 046   ----------------------------------------
 BYTE   W96
// 047   ----------------------------------------
 BYTE   W96
// 048   ----------------------------------------
 BYTE   W96
// 049   ----------------------------------------
 BYTE   W24
 BYTE   FINE

//**************** Track 3 (Midi-Chn.2) ****************//

FE07InescapableFateRandomWizard_003:
// 000   ----------------------------------------
 BYTE   VOL   40*FE07InescapableFateRandomWizard_mvl/mxv
 BYTE   KEYSH   FE07InescapableFateRandomWizard_key+0
 BYTE   VOICE   57
 BYTE   W24
 BYTE   N24  An1  v088
 BYTE   W24
 BYTE   N12
 BYTE   W12
 BYTE   N12
 BYTE   W24
 BYTE   N12
 BYTE   W12
// 001   ----------------------------------------
Label_2_01559855:
 BYTE   N24  An1  v088
 BYTE   W24
 BYTE   N24
 BYTE   W24
 BYTE   N12
 BYTE   W12
 BYTE   N12
 BYTE   W24
 BYTE   N12
 BYTE   W12
 BYTE   PEND 
 BYTE   PATT
  POIN2 Label_2_01559855
// 002   ----------------------------------------
Label_2_01559867:
 BYTE   N24  An1  v088
 BYTE   W24
 BYTE   N12
 BYTE   W12
 BYTE   N12
 BYTE   W24
 BYTE   N24
 BYTE   W24
 BYTE   N12
 BYTE   W12
 BYTE   PEND 
// 003   ----------------------------------------
Label_2_01559874:
 BYTE   N24  An1  v088
 BYTE   W24
 BYTE   N24
 BYTE   W24
 BYTE   N12
 BYTE   W12
 BYTE   N12
 BYTE   W24
 BYTE   N24
 BYTE   W12
 BYTE   PEND 
// 004   ----------------------------------------
Label_2_01559881:
 BYTE   W12
 BYTE   N12  An1  v088
 BYTE   W12
 BYTE   N12
 BYTE   W12
 BYTE   N12
 BYTE   W24
 BYTE   N12
 BYTE   W24
 BYTE   N36
 BYTE   W12
 BYTE   PEND 
// 005   ----------------------------------------
Label_2_0155988F:
 BYTE   W24
 BYTE   N24  An1  v088
 BYTE   W24
 BYTE   N12
 BYTE   W12
 BYTE   N12
 BYTE   W24
 BYTE   N24
 BYTE   W12
 BYTE   PEND 
// 006   ----------------------------------------
 BYTE   W36
 BYTE   N12
 BYTE   W12
 BYTE   N24
 BYTE   W24
 BYTE   N12
 BYTE   W12
 BYTE   N24
 BYTE   W12
// 007   ----------------------------------------
Label_2_015598A4:
 BYTE   W12
 BYTE   N12  An1  v088
 BYTE   W12
 BYTE   N36  Dn2  v076
 BYTE   W36
 BYTE   N48
 BYTE   W36
 BYTE   PEND 
// 008   ----------------------------------------
 BYTE   W12
 BYTE   N12
 BYTE   W12
Label_2_015598B3:
 BYTE   N36  En2  v076
 BYTE   W36
 BYTE   N48
 BYTE   W36
// 009   ----------------------------------------
Label_2_015598B9:
 BYTE   W12
 BYTE   N12  En2  v076
 BYTE   W12
 BYTE   N36  Ds2
 BYTE   W36
 BYTE   N24
 BYTE   W24
 BYTE   N12  An1
 BYTE   W12
 BYTE   PEND 
// 010   ----------------------------------------
Label_2_015598C7:
 BYTE   N12  Ds2  v076
 BYTE   W12
 BYTE   N12
 BYTE   W12
 BYTE   N36  Dn2
 BYTE   W36
 BYTE   N24
 BYTE   W24
 BYTE   N12
 BYTE   W12
 BYTE   PEND 
// 011   ----------------------------------------
Label_2_015598D5:
 BYTE   N24  Dn2  v076
 BYTE   W24
 BYTE   N36  En2
 BYTE   W36
 BYTE   N24
 BYTE   W24
 BYTE   N12
 BYTE   W12
 BYTE   PEND 
// 012   ----------------------------------------
Label_2_015598E1:
 BYTE   N12  En2  v076
 BYTE   W12
 BYTE   N12
 BYTE   W12
 BYTE   N24  Fn2
 BYTE   W24
 BYTE   N12
 BYTE   W12
 BYTE   N24  En2
 BYTE   W24
 BYTE   N12
 BYTE   W12
 BYTE   PEND 
// 013   ----------------------------------------
Label_2_015598F2:
 BYTE   N12  En2  v076
 BYTE   W12
 BYTE   N12
 BYTE   W12
 BYTE   N24  Bn1
 BYTE   W24
 BYTE   N12
 BYTE   W12
 BYTE   N24
 BYTE   W24
 BYTE   N12
 BYTE   W12
 BYTE   PEND 
// 014   ----------------------------------------
Label_2_01559902:
 BYTE   N12  Bn1  v076
 BYTE   W12
 BYTE   N12
 BYTE   W12
 BYTE   N24  En2
 BYTE   W24
 BYTE   N12
 BYTE   W12
 BYTE   N24
 BYTE   W24
 BYTE   N12
 BYTE   W12
 BYTE   PEND 
// 015   ----------------------------------------
Label_2_01559912:
 BYTE   N12  En2  v076
 BYTE   W12
 BYTE   N12
 BYTE   W12
 BYTE   N24  An1  v088
 BYTE   W24
 BYTE   N12
 BYTE   W12
 BYTE   N24
 BYTE   W24
 BYTE   N12
 BYTE   W12
 BYTE   PEND 
// 016   ----------------------------------------
Label_2_01559923:
 BYTE   N24  An1  v088
 BYTE   W24
 BYTE   N24
 BYTE   W24
 BYTE   N12
 BYTE   W12
 BYTE   N24
 BYTE   W24
 BYTE   N12
 BYTE   W12
 BYTE   PEND 
// 017   ----------------------------------------
Label_2_01559930:
 BYTE   N12  An1  v088
 BYTE   W12
 BYTE   En2
 BYTE   W12
 BYTE   N24  An1
 BYTE   W24
 BYTE   N12
 BYTE   W12
 BYTE   N24
 BYTE   W24
 BYTE   N12
 BYTE   W12
 BYTE   PEND 
// 018   ----------------------------------------
Label_2_01559940:
 BYTE   N24  An1  v088
 BYTE   W24
 BYTE   N12
 BYTE   W12
 BYTE   N24
 BYTE   W24
 BYTE   N12
 BYTE   W12
 BYTE   N24
 BYTE   W24
 BYTE   PEND 
// 019   ----------------------------------------
Label_2_0155994D:
 BYTE   N12  An1  v088
 BYTE   W12
 BYTE   N12
 BYTE   W12
 BYTE   N24
 BYTE   W24
 BYTE   N12
 BYTE   W12
 BYTE   N24
 BYTE   W24
 BYTE   N12
 BYTE   W12
 BYTE   PEND 
 BYTE   PATT
  POIN2 Label_2_01559940
// 020   ----------------------------------------
Label_2_01559961:
 BYTE   N12  An1  v088
 BYTE   W12
 BYTE   En2
 BYTE   W12
 BYTE   An1
 BYTE   W12
 BYTE   N12
 BYTE   W12
 BYTE   N24
 BYTE   W24
 BYTE   N12
 BYTE   W12
 BYTE   N24
 BYTE   W12
 BYTE   PEND 
// 021   ----------------------------------------
Label_2_01559972:
 BYTE   W12
 BYTE   N12  An1  v088
 BYTE   W12
 BYTE   N24
 BYTE   W24
 BYTE   N12
 BYTE   W12
 BYTE   N24
 BYTE   W24
 BYTE   N12
 BYTE   W12
 BYTE   PEND 
// 022   ----------------------------------------
Label_2_01559980:
 BYTE   N24  An1  v088
 BYTE   W24
 BYTE   Dn2
 BYTE   W24
 BYTE   N12
 BYTE   W12
 BYTE   N24
 BYTE   W24
 BYTE   N12
 BYTE   W12
 BYTE   PEND 
// 023   ----------------------------------------
Label_2_0155998D:
 BYTE   N24  Dn2  v088
 BYTE   W24
 BYTE   N24
 BYTE   W24
 BYTE   N12
 BYTE   W12
 BYTE   N24
 BYTE   W24
 BYTE   N12
 BYTE   W12
 BYTE   PEND 
// 024   ----------------------------------------
Label_2_0155999A:
 BYTE   N12  Dn2  v088
 BYTE   W12
 BYTE   N12
 BYTE   W12
 BYTE   N24
 BYTE   W24
 BYTE   N12
 BYTE   W12
 BYTE   N24
 BYTE   W24
 BYTE   N12
 BYTE   W12
 BYTE   PEND 
// 025   ----------------------------------------
Label_2_015599A9:
 BYTE   N24  Dn2  v088
 BYTE   W24
 BYTE   N12
 BYTE   W12
 BYTE   N24
 BYTE   W24
 BYTE   N12
 BYTE   W12
 BYTE   N24
 BYTE   W24
 BYTE   PEND 
// 026   ----------------------------------------
Label_2_015599B6:
 BYTE   N12  Dn2  v088
 BYTE   W12
 BYTE   N24
 BYTE   W24
 BYTE   N12
 BYTE   W12
 BYTE   N24
 BYTE   W24
 BYTE   N12
 BYTE   W12
 BYTE   N24
 BYTE   W12
 BYTE   PEND 
// 027   ----------------------------------------
Label_2_015599C5:
 BYTE   W12
 BYTE   N12  Dn2  v088
 BYTE   W12
 BYTE   N24
 BYTE   W24
 BYTE   N12
 BYTE   W12
 BYTE   N24
 BYTE   W24
 BYTE   N12
 BYTE   W12
 BYTE   PEND 
 BYTE   PATT
  POIN2 Label_2_015599A9
// 028   ----------------------------------------
Label_2_015599D8:
 BYTE   N12  Dn2  v088
 BYTE   W12
 BYTE   N24
 BYTE   W24
 BYTE   N12
 BYTE   W12
 BYTE   N36
 BYTE   W36
 BYTE   N12
 BYTE   W12
 BYTE   PEND 
// 029   ----------------------------------------
 BYTE   Dn3
 BYTE   W12
 BYTE   An2
 BYTE   W12
 BYTE   N24  An1
 BYTE   W24
 BYTE   N12
 BYTE   W12
 BYTE   N12
 BYTE   W24
 BYTE   N12
 BYTE   W12
 BYTE   PATT
  POIN2 Label_2_01559855
 BYTE   PATT
  POIN2 Label_2_01559855
 BYTE   PATT
  POIN2 Label_2_01559867
 BYTE   PATT
  POIN2 Label_2_01559874
 BYTE   PATT
  POIN2 Label_2_01559881
 BYTE   PATT
  POIN2 Label_2_0155988F
// 030   ----------------------------------------
 BYTE   W36
 BYTE   N12  An1  v088
 BYTE   W12
 BYTE   N36
 BYTE   W36
 BYTE   N24
 BYTE   W12
 BYTE   PATT
  POIN2 Label_2_015598A4
// 031   ----------------------------------------
 BYTE   W12
 BYTE   N12  Dn2  v076
 BYTE   W12
 BYTE   GoTo
  POIN2 Label_2_015598B3
// 032   ----------------------------------------
 BYTE   N36  En2  v076
 BYTE   W36
 BYTE   N48
 BYTE   W36
 BYTE   PATT
  POIN2 Label_2_015598B9
 BYTE   PATT
  POIN2 Label_2_015598C7
 BYTE   PATT
  POIN2 Label_2_015598D5
 BYTE   PATT
  POIN2 Label_2_015598E1
 BYTE   PATT
  POIN2 Label_2_015598F2
 BYTE   PATT
  POIN2 Label_2_01559902
 BYTE   PATT
  POIN2 Label_2_01559912
 BYTE   PATT
  POIN2 Label_2_01559923
 BYTE   PATT
  POIN2 Label_2_01559930
 BYTE   PATT
  POIN2 Label_2_01559940
 BYTE   PATT
  POIN2 Label_2_0155994D
 BYTE   PATT
  POIN2 Label_2_01559940
 BYTE   PATT
  POIN2 Label_2_01559961
 BYTE   PATT
  POIN2 Label_2_01559972
 BYTE   PATT
  POIN2 Label_2_01559980
 BYTE   PATT
  POIN2 Label_2_0155998D
 BYTE   PATT
  POIN2 Label_2_0155999A
 BYTE   PATT
  POIN2 Label_2_015599A9
 BYTE   PATT
  POIN2 Label_2_015599B6
 BYTE   PATT
  POIN2 Label_2_015599C5
 BYTE   PATT
  POIN2 Label_2_015599A9
 BYTE   PATT
  POIN2 Label_2_015599D8
// 033   ----------------------------------------
 BYTE   N12  En3  v088
 BYTE   W12
 BYTE   An2
 BYTE   W12
 BYTE   FINE

//**************** Track 4 (Midi-Chn.3) ****************//

FE07InescapableFateRandomWizard_004:
// 000   ----------------------------------------
 BYTE   VOL   40*FE07InescapableFateRandomWizard_mvl/mxv
 BYTE   KEYSH   FE07InescapableFateRandomWizard_key+0
 BYTE   VOICE   47
 BYTE   N06  An1  v064
 BYTE   W06
 BYTE   N06
 BYTE   W06
 BYTE   N12  En1
 BYTE   W12
 BYTE   An1
 BYTE   W24
 BYTE   N12
 BYTE   W36
 BYTE   N12
 BYTE   W12
// 001   ----------------------------------------
Label_3_01559AB9:
 BYTE   W24
 BYTE   N12  An1  v064
 BYTE   W24
 BYTE   N12
 BYTE   W36
 BYTE   N12
 BYTE   W12
 BYTE   PEND 
 BYTE   PATT
  POIN2 Label_3_01559AB9
 BYTE   PATT
  POIN2 Label_3_01559AB9
 BYTE   PATT
  POIN2 Label_3_01559AB9
 BYTE   PATT
  POIN2 Label_3_01559AB9
 BYTE   PATT
  POIN2 Label_3_01559AB9
 BYTE   PATT
  POIN2 Label_3_01559AB9
// 002   ----------------------------------------
Label_3_01559AE1:
 BYTE   W24
 BYTE   N12  An1  v052
 BYTE   W24
 BYTE   N12
 BYTE   W36
 BYTE   N12
 BYTE   W12
 BYTE   PEND 
// 003   ----------------------------------------
 BYTE   W24
Label_3_01559AEC:
 BYTE   N12  An1  v052
 BYTE   W24
 BYTE   N12
 BYTE   W36
 BYTE   N12
 BYTE   W12
 BYTE   PATT
  POIN2 Label_3_01559AE1
 BYTE   PATT
  POIN2 Label_3_01559AE1
 BYTE   PATT
  POIN2 Label_3_01559AE1
 BYTE   PATT
  POIN2 Label_3_01559AE1
 BYTE   PATT
  POIN2 Label_3_01559AE1
 BYTE   PATT
  POIN2 Label_3_01559AE1
// 004   ----------------------------------------
Label_3_01559B12:
 BYTE   W24
 BYTE   N12  An1  v076
 BYTE   W24
 BYTE   N12
 BYTE   W36
 BYTE   N12
 BYTE   W12
 BYTE   PEND 
 BYTE   PATT
  POIN2 Label_3_01559B12
 BYTE   PATT
  POIN2 Label_3_01559B12
 BYTE   PATT
  POIN2 Label_3_01559B12
 BYTE   PATT
  POIN2 Label_3_01559B12
 BYTE   PATT
  POIN2 Label_3_01559B12
 BYTE   PATT
  POIN2 Label_3_01559B12
 BYTE   PATT
  POIN2 Label_3_01559B12
 BYTE   PATT
  POIN2 Label_3_01559B12
 BYTE   PATT
  POIN2 Label_3_01559B12
 BYTE   PATT
  POIN2 Label_3_01559B12
 BYTE   PATT
  POIN2 Label_3_01559B12
 BYTE   PATT
  POIN2 Label_3_01559B12
 BYTE   PATT
  POIN2 Label_3_01559B12
 BYTE   PATT
  POIN2 Label_3_01559B12
 BYTE   PATT
  POIN2 Label_3_01559B12
 BYTE   PATT
  POIN2 Label_3_01559B12
 BYTE   PATT
  POIN2 Label_3_01559B12
 BYTE   PATT
  POIN2 Label_3_01559B12
 BYTE   PATT
  POIN2 Label_3_01559B12
 BYTE   PATT
  POIN2 Label_3_01559B12
 BYTE   PATT
  POIN2 Label_3_01559B12
 BYTE   PATT
  POIN2 Label_3_01559B12
 BYTE   PATT
  POIN2 Label_3_01559B12
 BYTE   PATT
  POIN2 Label_3_01559AE1
// 005   ----------------------------------------
 BYTE   W24
 BYTE   GoTo
  POIN2 Label_3_01559AEC
// 006   ----------------------------------------
 BYTE   N12  An1  v052
 BYTE   W24
 BYTE   N12
 BYTE   W36
 BYTE   N12
 BYTE   W12
 BYTE   PATT
  POIN2 Label_3_01559AE1
 BYTE   PATT
  POIN2 Label_3_01559AE1
 BYTE   PATT
  POIN2 Label_3_01559AE1
 BYTE   PATT
  POIN2 Label_3_01559AE1
 BYTE   PATT
  POIN2 Label_3_01559AE1
 BYTE   PATT
  POIN2 Label_3_01559AE1
 BYTE   PATT
  POIN2 Label_3_01559B12
 BYTE   PATT
  POIN2 Label_3_01559B12
 BYTE   PATT
  POIN2 Label_3_01559B12
 BYTE   PATT
  POIN2 Label_3_01559B12
 BYTE   PATT
  POIN2 Label_3_01559B12
 BYTE   PATT
  POIN2 Label_3_01559B12
 BYTE   PATT
  POIN2 Label_3_01559B12
 BYTE   PATT
  POIN2 Label_3_01559B12
 BYTE   PATT
  POIN2 Label_3_01559B12
 BYTE   PATT
  POIN2 Label_3_01559B12
 BYTE   PATT
  POIN2 Label_3_01559B12
 BYTE   PATT
  POIN2 Label_3_01559B12
 BYTE   PATT
  POIN2 Label_3_01559B12
 BYTE   PATT
  POIN2 Label_3_01559B12
 BYTE   PATT
  POIN2 Label_3_01559B12
 BYTE   PATT
  POIN2 Label_3_01559B12
// 007   ----------------------------------------
 BYTE   W24
 BYTE   FINE

//**************** Track 5 (Midi-Chn.4) ****************//

FE07InescapableFateRandomWizard_005:
// 000   ----------------------------------------
 BYTE   VOL   40*FE07InescapableFateRandomWizard_mvl/mxv
 BYTE   KEYSH   FE07InescapableFateRandomWizard_key+0
 BYTE   VOICE   24
 BYTE   W24
 BYTE   N24  An1  v088
 BYTE   W24
 BYTE   N12
 BYTE   W12
 BYTE   N12
 BYTE   W24
 BYTE   N12
 BYTE   W12
// 001   ----------------------------------------
Label_4_01559C25:
 BYTE   N24  An1  v088
 BYTE   W24
 BYTE   N24
 BYTE   W24
 BYTE   N12
 BYTE   W12
 BYTE   N12
 BYTE   W24
 BYTE   N12
 BYTE   W12
 BYTE   PEND 
 BYTE   PATT
  POIN2 Label_4_01559C25
// 002   ----------------------------------------
Label_4_01559C37:
 BYTE   N24  An1  v088
 BYTE   W24
 BYTE   N12
 BYTE   W12
 BYTE   N12
 BYTE   W24
 BYTE   N24
 BYTE   W24
 BYTE   N12
 BYTE   W12
 BYTE   PEND 
// 003   ----------------------------------------
Label_4_01559C44:
 BYTE   N24  An1  v088
 BYTE   W24
 BYTE   N24
 BYTE   W24
 BYTE   N12
 BYTE   W12
 BYTE   N12
 BYTE   W24
 BYTE   N24
 BYTE   W12
 BYTE   PEND 
// 004   ----------------------------------------
Label_4_01559C51:
 BYTE   W12
 BYTE   N12  An1  v088
 BYTE   W12
 BYTE   N12
 BYTE   W12
 BYTE   N12
 BYTE   W24
 BYTE   N12
 BYTE   W24
 BYTE   N36
 BYTE   W12
 BYTE   PEND 
// 005   ----------------------------------------
Label_4_01559C5F:
 BYTE   W24
 BYTE   N24  An1  v088
 BYTE   W24
 BYTE   N12
 BYTE   W12
 BYTE   N12
 BYTE   W24
 BYTE   N24
 BYTE   W12
 BYTE   PEND 
// 006   ----------------------------------------
 BYTE   W36
 BYTE   N12
 BYTE   W12
 BYTE   N24
 BYTE   W24
 BYTE   N12
 BYTE   W12
 BYTE   N24
 BYTE   W12
// 007   ----------------------------------------
Label_4_01559C74:
 BYTE   W12
 BYTE   N12  An1  v088
 BYTE   W12
 BYTE   N36  Dn2  v036
 BYTE   W36
 BYTE   N48
 BYTE   W36
 BYTE   PEND 
// 008   ----------------------------------------
 BYTE   W12
 BYTE   N12
 BYTE   W12
Label_4_01559C83:
 BYTE   N36  En2  v036
 BYTE   W36
 BYTE   N48
 BYTE   W36
// 009   ----------------------------------------
Label_4_01559C89:
 BYTE   W12
 BYTE   N12  En2  v036
 BYTE   W12
 BYTE   N36  Ds2
 BYTE   W36
 BYTE   N24
 BYTE   W24
 BYTE   N12  An1
 BYTE   W12
 BYTE   PEND 
// 010   ----------------------------------------
Label_4_01559C97:
 BYTE   N12  Ds2  v036
 BYTE   W12
 BYTE   N12
 BYTE   W12
 BYTE   N36  Dn2
 BYTE   W36
 BYTE   N24
 BYTE   W24
 BYTE   N12
 BYTE   W12
 BYTE   PEND 
// 011   ----------------------------------------
Label_4_01559CA5:
 BYTE   N24  Dn2  v036
 BYTE   W24
 BYTE   N36  En2
 BYTE   W36
 BYTE   N24
 BYTE   W24
 BYTE   N12
 BYTE   W12
 BYTE   PEND 
// 012   ----------------------------------------
Label_4_01559CB1:
 BYTE   N12  En2  v036
 BYTE   W12
 BYTE   N12
 BYTE   W12
 BYTE   N24  Fn2
 BYTE   W24
 BYTE   N12
 BYTE   W12
 BYTE   N24  En2
 BYTE   W24
 BYTE   N12
 BYTE   W12
 BYTE   PEND 
// 013   ----------------------------------------
Label_4_01559CC2:
 BYTE   N12  En2  v036
 BYTE   W12
 BYTE   N12
 BYTE   W12
 BYTE   N24  Bn1
 BYTE   W24
 BYTE   N12
 BYTE   W12
 BYTE   N24
 BYTE   W24
 BYTE   N12
 BYTE   W12
 BYTE   PEND 
// 014   ----------------------------------------
Label_4_01559CD2:
 BYTE   N12  Bn1  v036
 BYTE   W12
 BYTE   N12
 BYTE   W12
 BYTE   N24  En2
 BYTE   W24
 BYTE   N12
 BYTE   W12
 BYTE   N24
 BYTE   W24
 BYTE   N12
 BYTE   W12
 BYTE   PEND 
// 015   ----------------------------------------
Label_4_01559CE2:
 BYTE   N12  En2  v036
 BYTE   W12
 BYTE   N12
 BYTE   W12
 BYTE   N24  An1
 BYTE   W24
 BYTE   N12
 BYTE   W12
 BYTE   N24
 BYTE   W24
 BYTE   N12
 BYTE   W12
 BYTE   PEND 
// 016   ----------------------------------------
Label_4_01559CF2:
 BYTE   N24  An1  v036
 BYTE   W24
 BYTE   N24
 BYTE   W24
 BYTE   N12
 BYTE   W12
 BYTE   N24
 BYTE   W24
 BYTE   N12
 BYTE   W12
 BYTE   PEND 
// 017   ----------------------------------------
Label_4_01559CFF:
 BYTE   N12  An1  v036
 BYTE   W12
 BYTE   En2
 BYTE   W12
 BYTE   N24  An1
 BYTE   W24
 BYTE   N12
 BYTE   W12
 BYTE   N24
 BYTE   W24
 BYTE   N12
 BYTE   W12
 BYTE   PEND 
// 018   ----------------------------------------
Label_4_01559D0F:
 BYTE   N24  An1  v036
 BYTE   W24
 BYTE   N12
 BYTE   W12
 BYTE   N24
 BYTE   W24
 BYTE   N12
 BYTE   W12
 BYTE   N24
 BYTE   W24
 BYTE   PEND 
// 019   ----------------------------------------
Label_4_01559D1C:
 BYTE   N12  An1  v036
 BYTE   W12
 BYTE   N12
 BYTE   W12
 BYTE   N24
 BYTE   W24
 BYTE   N12
 BYTE   W12
 BYTE   N24
 BYTE   W24
 BYTE   N12
 BYTE   W12
 BYTE   PEND 
 BYTE   PATT
  POIN2 Label_4_01559D0F
// 020   ----------------------------------------
Label_4_01559D30:
 BYTE   N12  An1  v036
 BYTE   W12
 BYTE   En2
 BYTE   W12
 BYTE   An1
 BYTE   W12
 BYTE   N12
 BYTE   W12
 BYTE   N24
 BYTE   W24
 BYTE   N12
 BYTE   W12
 BYTE   N24
 BYTE   W12
 BYTE   PEND 
// 021   ----------------------------------------
Label_4_01559D41:
 BYTE   W12
 BYTE   N12  An1  v036
 BYTE   W12
 BYTE   N24
 BYTE   W24
 BYTE   N12
 BYTE   W12
 BYTE   N24
 BYTE   W24
 BYTE   N12
 BYTE   W12
 BYTE   PEND 
// 022   ----------------------------------------
Label_4_01559D4F:
 BYTE   N12  An1  v036
 BYTE   W12
 BYTE   N12
 BYTE   W12
 BYTE   N24  Dn2
 BYTE   W24
 BYTE   N12
 BYTE   W12
 BYTE   N24
 BYTE   W24
 BYTE   N12
 BYTE   W12
 BYTE   PEND 
// 023   ----------------------------------------
Label_4_01559D5F:
 BYTE   N24  Dn2  v036
 BYTE   W24
 BYTE   N24
 BYTE   W24
 BYTE   N12
 BYTE   W12
 BYTE   N24
 BYTE   W24
 BYTE   N12
 BYTE   W12
 BYTE   PEND 
// 024   ----------------------------------------
Label_4_01559D6C:
 BYTE   N12  Dn2  v036
 BYTE   W12
 BYTE   N12
 BYTE   W12
 BYTE   N24
 BYTE   W24
 BYTE   N12
 BYTE   W12
 BYTE   N24
 BYTE   W24
 BYTE   N12
 BYTE   W12
 BYTE   PEND 
// 025   ----------------------------------------
Label_4_01559D7B:
 BYTE   N24  Dn2  v036
 BYTE   W24
 BYTE   N12
 BYTE   W12
 BYTE   N24
 BYTE   W24
 BYTE   N12
 BYTE   W12
 BYTE   N24
 BYTE   W24
 BYTE   PEND 
// 026   ----------------------------------------
Label_4_01559D88:
 BYTE   N12  Dn2  v036
 BYTE   W12
 BYTE   N24
 BYTE   W24
 BYTE   N12
 BYTE   W12
 BYTE   N24
 BYTE   W24
 BYTE   N12
 BYTE   W12
 BYTE   N24
 BYTE   W12
 BYTE   PEND 
// 027   ----------------------------------------
Label_4_01559D97:
 BYTE   W12
 BYTE   N12  Dn2  v036
 BYTE   W12
 BYTE   N24
 BYTE   W24
 BYTE   N12
 BYTE   W12
 BYTE   N24
 BYTE   W24
 BYTE   N12
 BYTE   W12
 BYTE   PEND 
 BYTE   PATT
  POIN2 Label_4_01559D7B
// 028   ----------------------------------------
Label_4_01559DAA:
 BYTE   N12  Dn2  v036
 BYTE   W12
 BYTE   N24
 BYTE   W24
 BYTE   N12
 BYTE   W12
 BYTE   N36
 BYTE   W36
 BYTE   N12
 BYTE   W12
 BYTE   PEND 
// 029   ----------------------------------------
 BYTE   Dn3
 BYTE   W12
 BYTE   An2
 BYTE   W12
 BYTE   N24  An1  v088
 BYTE   W24
 BYTE   N12
 BYTE   W12
 BYTE   N12
 BYTE   W24
 BYTE   N12
 BYTE   W12
 BYTE   PATT
  POIN2 Label_4_01559C25
 BYTE   PATT
  POIN2 Label_4_01559C25
 BYTE   PATT
  POIN2 Label_4_01559C37
 BYTE   PATT
  POIN2 Label_4_01559C44
 BYTE   PATT
  POIN2 Label_4_01559C51
 BYTE   PATT
  POIN2 Label_4_01559C5F
// 030   ----------------------------------------
 BYTE   W36
 BYTE   N12  An1  v088
 BYTE   W12
 BYTE   N36
 BYTE   W36
 BYTE   N24
 BYTE   W12
 BYTE   PATT
  POIN2 Label_4_01559C74
// 031   ----------------------------------------
 BYTE   W12
 BYTE   N12  Dn2  v036
 BYTE   W12
 BYTE   GoTo
  POIN2 Label_4_01559C83
// 032   ----------------------------------------
 BYTE   N36  En2  v036
 BYTE   W36
 BYTE   N48
 BYTE   W36
 BYTE   PATT
  POIN2 Label_4_01559C89
 BYTE   PATT
  POIN2 Label_4_01559C97
 BYTE   PATT
  POIN2 Label_4_01559CA5
 BYTE   PATT
  POIN2 Label_4_01559CB1
 BYTE   PATT
  POIN2 Label_4_01559CC2
 BYTE   PATT
  POIN2 Label_4_01559CD2
 BYTE   PATT
  POIN2 Label_4_01559CE2
 BYTE   PATT
  POIN2 Label_4_01559CF2
 BYTE   PATT
  POIN2 Label_4_01559CFF
 BYTE   PATT
  POIN2 Label_4_01559D0F
 BYTE   PATT
  POIN2 Label_4_01559D1C
 BYTE   PATT
  POIN2 Label_4_01559D0F
 BYTE   PATT
  POIN2 Label_4_01559D30
 BYTE   PATT
  POIN2 Label_4_01559D41
 BYTE   PATT
  POIN2 Label_4_01559D4F
 BYTE   PATT
  POIN2 Label_4_01559D5F
 BYTE   PATT
  POIN2 Label_4_01559D6C
 BYTE   PATT
  POIN2 Label_4_01559D7B
 BYTE   PATT
  POIN2 Label_4_01559D88
 BYTE   PATT
  POIN2 Label_4_01559D97
 BYTE   PATT
  POIN2 Label_4_01559D7B
 BYTE   PATT
  POIN2 Label_4_01559DAA
// 033   ----------------------------------------
 BYTE   N12  En3  v036
 BYTE   W12
 BYTE   An2
 BYTE   W12
 BYTE   FINE

//**************** Track 6 (Midi-Chn.5) ****************//

FE07InescapableFateRandomWizard_006:
// 000   ----------------------------------------
 BYTE   VOL   40*FE07InescapableFateRandomWizard_mvl/mxv
 BYTE   KEYSH   FE07InescapableFateRandomWizard_key+0
 BYTE   VOICE   48
 BYTE   W24
 BYTE   N96  En2  v104
 BYTE   W72
// 001   ----------------------------------------
 BYTE   W24
 BYTE   N84
 BYTE   W72
// 002   ----------------------------------------
Label_5_01559E86:
 BYTE   W12
 BYTE   N12  An2  v104
 BYTE   W12
 BYTE   TIE  Bn2
 BYTE   W72
 BYTE   PEND 
// 003   ----------------------------------------
 BYTE   W96
// 004   ----------------------------------------
 BYTE   EOT
Label_5_01559E91:
 BYTE   W24
 BYTE   TIE  En2  v104
 BYTE   W72
 BYTE   PEND 
// 005   ----------------------------------------
 BYTE   W72
 BYTE   EOT
 BYTE   N48  En3  v036
 BYTE   W24
// 006   ----------------------------------------
 BYTE   W24
 BYTE   N96  Dn3  v104
 BYTE   W72
// 007   ----------------------------------------
 BYTE   W24
 BYTE   N72  An2
 BYTE   W72
// 008   ----------------------------------------
Label_5_01559EA6:
 BYTE   N12  Cn3  v104
 BYTE   W12
 BYTE   Bn2
 BYTE   W12
 BYTE   TIE  An2
 BYTE   W72
 BYTE   PEND 
// 009   ----------------------------------------
 BYTE   W24
Label_5_01559EB1:
 BYTE   W72
// 010   ----------------------------------------
 BYTE   W24
 BYTE   EOT
 BYTE   An2
 BYTE   N96  Fs2  v104
 BYTE   W72
// 011   ----------------------------------------
 BYTE   W24
 BYTE   Fn2
 BYTE   W72
// 012   ----------------------------------------
 BYTE   W24
 BYTE   Gs2
 BYTE   W72
// 013   ----------------------------------------
 BYTE   W24
 BYTE   An2
 BYTE   W72
// 014   ----------------------------------------
 BYTE   W24
 BYTE   Bn2
 BYTE   W72
// 015   ----------------------------------------
 BYTE   W24
 BYTE   Gs2
 BYTE   W72
// 016   ----------------------------------------
Label_5_01559EC8:
 BYTE   W24
 BYTE   N36  En2  v104
 BYTE   N36  Cn3
 BYTE   W48
 BYTE   N12  An2
 BYTE   W12
 BYTE   Bn2
 BYTE   W12
 BYTE   PEND 
// 017   ----------------------------------------
Label_5_01559ED5:
 BYTE   N12  Cn3  v104
 BYTE   W12
 BYTE   En3
 BYTE   W12
 BYTE   N96  Bn2
 BYTE   N96  Ds3
 BYTE   W72
 BYTE   PEND 
 BYTE   PATT
  POIN2 Label_5_01559EC8
// 018   ----------------------------------------
Label_5_01559EE6:
 BYTE   N12  Cn3  v104
 BYTE   W12
 BYTE   En3
 BYTE   W12
 BYTE   N96  Bn2
 BYTE   N96  Fs3
 BYTE   W72
 BYTE   PEND 
 BYTE   PATT
  POIN2 Label_5_01559EC8
 BYTE   PATT
  POIN2 Label_5_01559ED5
 BYTE   PATT
  POIN2 Label_5_01559EC8
 BYTE   PATT
  POIN2 Label_5_01559EE6
// 019   ----------------------------------------
Label_5_01559F06:
 BYTE   W24
 BYTE   N36  An2  v104
 BYTE   N36  Dn3
 BYTE   N36  Fn3
 BYTE   W48
 BYTE   N12  Dn3
 BYTE   W12
 BYTE   En3
 BYTE   W12
 BYTE   PEND 
// 020   ----------------------------------------
Label_5_01559F15:
 BYTE   N12  Fn3  v104
 BYTE   W12
 BYTE   An3
 BYTE   W12
 BYTE   N96  Bn2
 BYTE   N96  En3
 BYTE   N96  Gs3
 BYTE   W72
 BYTE   PEND 
 BYTE   PATT
  POIN2 Label_5_01559F06
// 021   ----------------------------------------
Label_5_01559F28:
 BYTE   N12  Fn3  v104
 BYTE   W12
 BYTE   An3
 BYTE   W12
 BYTE   N96  En3
 BYTE   N96  Gs3
 BYTE   N96  Bn3
 BYTE   W72
 BYTE   PEND 
 BYTE   PATT
  POIN2 Label_5_01559F06
 BYTE   PATT
  POIN2 Label_5_01559F15
 BYTE   PATT
  POIN2 Label_5_01559F06
 BYTE   PATT
  POIN2 Label_5_01559F28
// 022   ----------------------------------------
 BYTE   W24
 BYTE   N96  En2  v104
 BYTE   W72
// 023   ----------------------------------------
 BYTE   W24
 BYTE   N84
 BYTE   W72
 BYTE   PATT
  POIN2 Label_5_01559E86
// 024   ----------------------------------------
 BYTE   W96
// 025   ----------------------------------------
 BYTE   EOT
 BYTE   Bn2
 BYTE   PATT
  POIN2 Label_5_01559E91
// 026   ----------------------------------------
 BYTE   W72
 BYTE   EOT
 BYTE   En2
 BYTE   N48  En3  v052
 BYTE   W24
// 027   ----------------------------------------
 BYTE   W24
 BYTE   N96  Dn3  v104
 BYTE   W72
// 028   ----------------------------------------
 BYTE   W24
 BYTE   N72  An2
 BYTE   W72
 BYTE   PATT
  POIN2 Label_5_01559EA6
// 029   ----------------------------------------
 BYTE   W24
 BYTE   GoTo
  POIN2 Label_5_01559EB1
// 030   ----------------------------------------
 BYTE   W72
 BYTE   W24
// 031   ----------------------------------------
 BYTE   EOT
 BYTE   An2
 BYTE   N96  Fs2  v104
 BYTE   W72
 BYTE   W24
// 032   ----------------------------------------
 BYTE   Fn2
 BYTE   W72
 BYTE   W24
// 033   ----------------------------------------
 BYTE   Gs2
 BYTE   W72
 BYTE   W24
// 034   ----------------------------------------
 BYTE   An2
 BYTE   W72
 BYTE   W24
// 035   ----------------------------------------
 BYTE   Bn2
 BYTE   W72
 BYTE   W24
// 036   ----------------------------------------
 BYTE   Gs2
 BYTE   W72
 BYTE   PATT
  POIN2 Label_5_01559EC8
 BYTE   PATT
  POIN2 Label_5_01559ED5
 BYTE   PATT
  POIN2 Label_5_01559EC8
 BYTE   PATT
  POIN2 Label_5_01559EE6
 BYTE   PATT
  POIN2 Label_5_01559EC8
 BYTE   PATT
  POIN2 Label_5_01559ED5
 BYTE   PATT
  POIN2 Label_5_01559EC8
 BYTE   PATT
  POIN2 Label_5_01559EE6
 BYTE   PATT
  POIN2 Label_5_01559F06
 BYTE   PATT
  POIN2 Label_5_01559F15
 BYTE   PATT
  POIN2 Label_5_01559F06
 BYTE   PATT
  POIN2 Label_5_01559F28
 BYTE   PATT
  POIN2 Label_5_01559F06
 BYTE   PATT
  POIN2 Label_5_01559F15
 BYTE   PATT
  POIN2 Label_5_01559F06
 BYTE   PATT
  POIN2 Label_5_01559F28
// 037   ----------------------------------------
 BYTE   W24
 BYTE   FINE

//**************** Track 7 (Midi-Chn.6) ****************//

FE07InescapableFateRandomWizard_007:
// 000   ----------------------------------------
 BYTE   VOL   40*FE07InescapableFateRandomWizard_mvl/mxv
 BYTE   KEYSH   FE07InescapableFateRandomWizard_key+0
 BYTE   VOICE   40
 BYTE   W24
 BYTE   N96  An2  v104
 BYTE   W72
// 001   ----------------------------------------
 BYTE   W24
 BYTE   N84  Cn3
 BYTE   W72
// 002   ----------------------------------------
Label_6_01559FF3:
 BYTE   W12
 BYTE   N12  En3  v104
 BYTE   W12
 BYTE   TIE  Ds3
 BYTE   W72
 BYTE   PEND 
// 003   ----------------------------------------
 BYTE   W96
// 004   ----------------------------------------
 BYTE   EOT
 BYTE   W24
 BYTE   N96  An2
 BYTE   W72
// 005   ----------------------------------------
Label_6_0155A002:
 BYTE   W24
 BYTE   N48  Cn3  v104
 BYTE   W48
 BYTE   En3
 BYTE   W24
 BYTE   PEND 
// 006   ----------------------------------------
 BYTE   W24
 BYTE   N96  Fs3
 BYTE   W72
// 007   ----------------------------------------
 BYTE   W24
 BYTE   N72  Dn3
 BYTE   W72
// 008   ----------------------------------------
 BYTE   W24
 BYTE   N96  Dn3  v064
 BYTE   W72
// 009   ----------------------------------------
 BYTE   W24
Label_6_0155A018:
 BYTE   N96  Cn3  v064
 BYTE   W72
// 010   ----------------------------------------
 BYTE   W24
 BYTE   N84  Bn2
 BYTE   W72
// 011   ----------------------------------------
Label_6_0155A020:
 BYTE   W12
 BYTE   N12  Cn3  v064
 BYTE   W12
 BYTE   N72  Bn2
 BYTE   W72
 BYTE   PEND 
// 012   ----------------------------------------
Label_6_0155A029:
 BYTE   N24  An2  v064
 BYTE   W24
 BYTE   N12  Gs2  v076
 BYTE   N12  Gs3
 BYTE   W12
 BYTE   N06  En3
 BYTE   W06
 BYTE   Fs3
 BYTE   W06
 BYTE   N04  Gs3
 BYTE   W12
 BYTE   N06  En3
 BYTE   W06
 BYTE   Fs3
 BYTE   W06
 BYTE   N04  Gs3
 BYTE   W12
 BYTE   N06
 BYTE   W06
 BYTE   An3
 BYTE   W06
 BYTE   PEND 
// 013   ----------------------------------------
Label_6_0155A048:
 BYTE   N04  Bn3  v076
 BYTE   W12
 BYTE   N06  Gs3
 BYTE   W06
 BYTE   An3
 BYTE   W06
 BYTE   N04  Bn3
 BYTE   W12
 BYTE   N06
 BYTE   W06
 BYTE   Cn4
 BYTE   W06
 BYTE   N04  Dn4
 BYTE   W12
 BYTE   N06  Bn3
 BYTE   W06
 BYTE   Cn4
 BYTE   W06
 BYTE   N04  Dn4
 BYTE   W12
 BYTE   N06  Bn3
 BYTE   W06
 BYTE   Cn4
 BYTE   W06
 BYTE   PEND 
// 014   ----------------------------------------
Label_6_0155A069:
 BYTE   N04  Dn4  v076
 BYTE   W12
 BYTE   N06
 BYTE   W06
 BYTE   En4
 BYTE   W06
 BYTE   N04  Fn4
 BYTE   W12
 BYTE   N06  Dn4
 BYTE   W06
 BYTE   En4
 BYTE   W06
 BYTE   N04  Fn4
 BYTE   W12
 BYTE   N06  Dn4
 BYTE   W06
 BYTE   En4
 BYTE   W06
 BYTE   N04  Fn4
 BYTE   W12
 BYTE   N06  Dn4
 BYTE   W06
 BYTE   En4
 BYTE   W06
 BYTE   PEND 
// 015   ----------------------------------------
Label_6_0155A08A:
 BYTE   N04  Fn4  v076
 BYTE   W12
 BYTE   N06  En4
 BYTE   W06
 BYTE   Fn4
 BYTE   W06
 BYTE   N04  Gn4
 BYTE   W12
 BYTE   N06  En4
 BYTE   W06
 BYTE   Fn4
 BYTE   W06
 BYTE   N04  Gn4
 BYTE   W12
 BYTE   N06  En4
 BYTE   W06
 BYTE   Fn4
 BYTE   W06
 BYTE   N04  Gn4
 BYTE   W12
 BYTE   N06  En4
 BYTE   W06
 BYTE   Fn4
 BYTE   W06
 BYTE   PEND 
// 016   ----------------------------------------
Label_6_0155A0AC:
 BYTE   N06  Gn4  v076
 BYTE   W06
 BYTE   En4
 BYTE   W06
 BYTE   Fn4
 BYTE   W06
 BYTE   Gn4
 BYTE   W06
 BYTE   TIE  An4
 BYTE   W72
 BYTE   PEND 
// 017   ----------------------------------------
 BYTE   W96
// 018   ----------------------------------------
 BYTE   W96
// 019   ----------------------------------------
 BYTE   W96
// 020   ----------------------------------------
 BYTE   W96
// 021   ----------------------------------------
 BYTE   W96
// 022   ----------------------------------------
 BYTE   W96
// 023   ----------------------------------------
 BYTE   W96
// 024   ----------------------------------------
 BYTE   W24
 BYTE   EOT
 BYTE   N36  Fn4  v064
 BYTE   W48
 BYTE   N12  Dn4
 BYTE   W12
 BYTE   En4
 BYTE   W12
// 025   ----------------------------------------
Label_6_0155A0CC:
 BYTE   N12  Fn4  v064
 BYTE   W12
 BYTE   An4
 BYTE   W12
 BYTE   N96  Gs4
 BYTE   W72
 BYTE   PEND 
// 026   ----------------------------------------
Label_6_0155A0D6:
 BYTE   W24
 BYTE   N36  Fn4  v064
 BYTE   W48
 BYTE   N12  Dn4
 BYTE   W12
 BYTE   En4
 BYTE   W12
 BYTE   PEND 
// 027   ----------------------------------------
Label_6_0155A0E1:
 BYTE   N12  Fn4  v064
 BYTE   W12
 BYTE   An4
 BYTE   W12
 BYTE   N96  Bn4
 BYTE   W72
 BYTE   PEND 
 BYTE   PATT
  POIN2 Label_6_0155A0D6
 BYTE   PATT
  POIN2 Label_6_0155A0CC
 BYTE   PATT
  POIN2 Label_6_0155A0D6
 BYTE   PATT
  POIN2 Label_6_0155A0E1
// 028   ----------------------------------------
 BYTE   W24
 BYTE   N96  An2  v104
 BYTE   W72
// 029   ----------------------------------------
 BYTE   W24
 BYTE   N84  Cn3
 BYTE   W72
 BYTE   PATT
  POIN2 Label_6_01559FF3
// 030   ----------------------------------------
 BYTE   W96
// 031   ----------------------------------------
 BYTE   EOT
 BYTE   Ds3
 BYTE   W24
 BYTE   N96  An2  v104
 BYTE   W72
 BYTE   PATT
  POIN2 Label_6_0155A002
// 032   ----------------------------------------
 BYTE   W24
 BYTE   N96  Fs3  v104
 BYTE   W72
// 033   ----------------------------------------
 BYTE   W24
 BYTE   N72  Dn3
 BYTE   W72
// 034   ----------------------------------------
 BYTE   W24
 BYTE   N96  Dn3  v064
 BYTE   W72
// 035   ----------------------------------------
 BYTE   W24
 BYTE   GoTo
  POIN2 Label_6_0155A018
// 036   ----------------------------------------
 BYTE   N96  Cn3  v064
 BYTE   W72
 BYTE   W24
// 037   ----------------------------------------
 BYTE   N84  Bn2
 BYTE   W72
 BYTE   PATT
  POIN2 Label_6_0155A020
 BYTE   PATT
  POIN2 Label_6_0155A029
 BYTE   PATT
  POIN2 Label_6_0155A048
 BYTE   PATT
  POIN2 Label_6_0155A069
 BYTE   PATT
  POIN2 Label_6_0155A08A
 BYTE   PATT
  POIN2 Label_6_0155A0AC
// 038   ----------------------------------------
 BYTE   W96
// 039   ----------------------------------------
 BYTE   W96
// 040   ----------------------------------------
 BYTE   W96
// 041   ----------------------------------------
 BYTE   W96
// 042   ----------------------------------------
 BYTE   W96
// 043   ----------------------------------------
 BYTE   W96
// 044   ----------------------------------------
 BYTE   W96
// 045   ----------------------------------------
 BYTE   W24
 BYTE   EOT
 BYTE   An4
 BYTE   N36  Fn4  v076
 BYTE   W48
 BYTE   N12  Dn4
 BYTE   W12
 BYTE   En4
 BYTE   W12
// 046   ----------------------------------------
Label_6_0155A167:
 BYTE   N12  Fn4  v076
 BYTE   W12
 BYTE   An4
 BYTE   W12
 BYTE   N96  Gs4
 BYTE   W72
 BYTE   PEND 
// 047   ----------------------------------------
Label_6_0155A171:
 BYTE   W24
 BYTE   N36  Fn4  v076
 BYTE   W48
 BYTE   N12  Dn4
 BYTE   W12
 BYTE   En4
 BYTE   W12
 BYTE   PEND 
// 048   ----------------------------------------
Label_6_0155A17C:
 BYTE   N12  Fn4  v076
 BYTE   W12
 BYTE   An4
 BYTE   W12
 BYTE   N96  Bn4
 BYTE   W72
 BYTE   PEND 
 BYTE   PATT
  POIN2 Label_6_0155A171
 BYTE   PATT
  POIN2 Label_6_0155A167
 BYTE   PATT
  POIN2 Label_6_0155A171
 BYTE   PATT
  POIN2 Label_6_0155A17C
// 049   ----------------------------------------
 BYTE   W24
 BYTE   FINE

//**************** Track 8 (Midi-Chn.7) ****************//

FE07InescapableFateRandomWizard_008:
// 000   ----------------------------------------
 BYTE   VOL   40*FE07InescapableFateRandomWizard_mvl/mxv
 BYTE   KEYSH   FE07InescapableFateRandomWizard_key+0
 BYTE   VOICE   49
 BYTE   W96
// 001   ----------------------------------------
 BYTE   W96
// 002   ----------------------------------------
 BYTE   W96
// 003   ----------------------------------------
 BYTE   W96
// 004   ----------------------------------------
 BYTE   W96
// 005   ----------------------------------------
 BYTE   W96
// 006   ----------------------------------------
 BYTE   W96
// 007   ----------------------------------------
 BYTE   W96
// 008   ----------------------------------------
 BYTE   W96
// 009   ----------------------------------------
 BYTE   W24
Label_7_0155A1AC:
 BYTE   W72
// 010   ----------------------------------------
 BYTE   W96
// 011   ----------------------------------------
 BYTE   W96
// 012   ----------------------------------------
 BYTE   W96
// 013   ----------------------------------------
 BYTE   W96
// 014   ----------------------------------------
 BYTE   W96
// 015   ----------------------------------------
 BYTE   W96
// 016   ----------------------------------------
 BYTE   W96
// 017   ----------------------------------------
 BYTE   W96
// 018   ----------------------------------------
 BYTE   W96
// 019   ----------------------------------------
 BYTE   W96
// 020   ----------------------------------------
 BYTE   W96
// 021   ----------------------------------------
 BYTE   W96
// 022   ----------------------------------------
 BYTE   W96
// 023   ----------------------------------------
 BYTE   W96
// 024   ----------------------------------------
 BYTE   W96
// 025   ----------------------------------------
 BYTE   W96
// 026   ----------------------------------------
 BYTE   W96
// 027   ----------------------------------------
 BYTE   W96
// 028   ----------------------------------------
 BYTE   W96
// 029   ----------------------------------------
 BYTE   W96
// 030   ----------------------------------------
 BYTE   W96
// 031   ----------------------------------------
 BYTE   W96
// 032   ----------------------------------------
 BYTE   W36
 BYTE   N02  En3  v076
 BYTE   N02  An3
 BYTE   W12
 BYTE   En3
 BYTE   N02  An3
 BYTE   W24
 BYTE   En3
 BYTE   N02  An3
 BYTE   W12
 BYTE   En3
 BYTE   N02  An3
 BYTE   W12
// 033   ----------------------------------------
 BYTE   W12
 BYTE   En3
 BYTE   N02  An3
 BYTE   W24
 BYTE   En3
 BYTE   N02  Cn4
 BYTE   W12
 BYTE   En3
 BYTE   N02  Cn4
 BYTE   W24
 BYTE   En3
 BYTE   N02  Cn4
 BYTE   W12
 BYTE   En3
 BYTE   N02  Cn4
 BYTE   W12
// 034   ----------------------------------------
 BYTE   W12
 BYTE   En3
 BYTE   N02  Cn4
 BYTE   W24
 BYTE   En3
 BYTE   N02  Bn3
 BYTE   W12
 BYTE   En3
 BYTE   N02  Bn3
 BYTE   W24
 BYTE   En3
 BYTE   N02  Bn3
 BYTE   W12
 BYTE   En3
 BYTE   N02  Bn3
 BYTE   W12
// 035   ----------------------------------------
 BYTE   W12
 BYTE   En3
 BYTE   N02  Bn3
 BYTE   W24
 BYTE   En3
 BYTE   N02  Bn3
 BYTE   W12
 BYTE   En3
 BYTE   N02  Bn3
 BYTE   W24
 BYTE   En3
 BYTE   N02  Bn3
 BYTE   W12
 BYTE   En3
 BYTE   N02  Bn3
 BYTE   W12
// 036   ----------------------------------------
 BYTE   W12
 BYTE   En3
 BYTE   N02  Bn3
 BYTE   W24
 BYTE   En3  v088
 BYTE   N02  An3
 BYTE   W12
 BYTE   En3
 BYTE   N02  An3
 BYTE   W24
 BYTE   En3
 BYTE   N02  An3
 BYTE   W12
 BYTE   En3
 BYTE   N02  An3
 BYTE   W12
// 037   ----------------------------------------
 BYTE   W12
 BYTE   En3
 BYTE   N02  An3
 BYTE   W24
 BYTE   En3
 BYTE   N02  Cn4
 BYTE   W12
 BYTE   En3
 BYTE   N02  Cn4
 BYTE   W24
 BYTE   En3
 BYTE   N02  Cn4
 BYTE   W12
 BYTE   En3
 BYTE   N02  Cn4
 BYTE   W12
// 038   ----------------------------------------
 BYTE   W12
 BYTE   En3
 BYTE   N02  Cn4
 BYTE   W24
 BYTE   En3
 BYTE   N02  Bn3
 BYTE   W12
 BYTE   En3
 BYTE   N02  Bn3
 BYTE   W24
 BYTE   En3
 BYTE   N02  Bn3
 BYTE   W12
 BYTE   En3
 BYTE   N02  Bn3
 BYTE   W12
// 039   ----------------------------------------
 BYTE   W12
 BYTE   En3
 BYTE   N02  Bn3
 BYTE   W24
 BYTE   En3
 BYTE   N02  Bn3
 BYTE   W12
 BYTE   En3
 BYTE   N02  Bn3
 BYTE   W24
 BYTE   En3
 BYTE   N02  Bn3
 BYTE   W12
 BYTE   En3
 BYTE   N02  Bn3
 BYTE   W12
// 040   ----------------------------------------
 BYTE   W12
 BYTE   En3
 BYTE   N02  Bn3
 BYTE   W84
// 041   ----------------------------------------
 BYTE   W24
 BYTE   GoTo
  POIN2 Label_7_0155A1AC
// 042   ----------------------------------------
 BYTE   W72
 BYTE   W96
// 043   ----------------------------------------
 BYTE   W96
// 044   ----------------------------------------
 BYTE   W96
// 045   ----------------------------------------
 BYTE   W96
// 046   ----------------------------------------
 BYTE   W96
// 047   ----------------------------------------
 BYTE   W96
// 048   ----------------------------------------
 BYTE   W96
// 049   ----------------------------------------
 BYTE   W96
// 050   ----------------------------------------
 BYTE   W96
// 051   ----------------------------------------
 BYTE   W96
// 052   ----------------------------------------
 BYTE   W96
// 053   ----------------------------------------
 BYTE   W96
// 054   ----------------------------------------
 BYTE   W96
// 055   ----------------------------------------
 BYTE   W96
// 056   ----------------------------------------
 BYTE   W96
// 057   ----------------------------------------
 BYTE   W96
// 058   ----------------------------------------
 BYTE   W96
// 059   ----------------------------------------
 BYTE   W96
// 060   ----------------------------------------
 BYTE   W96
// 061   ----------------------------------------
 BYTE   W96
// 062   ----------------------------------------
 BYTE   W96
// 063   ----------------------------------------
 BYTE   W96
// 064   ----------------------------------------
 BYTE   W24
 BYTE   FINE

//**************** Track 9 (Midi-Chn.8) ****************//

FE07InescapableFateRandomWizard_009:
// 000   ----------------------------------------
 BYTE   VOL   40*FE07InescapableFateRandomWizard_mvl/mxv
 BYTE   KEYSH   FE07InescapableFateRandomWizard_key+0
 BYTE   VOICE   127
 BYTE   W36
 BYTE   N12  An3  v036
 BYTE   W12
 BYTE   N12
 BYTE   W24
 BYTE   N12
 BYTE   W12
 BYTE   N12
 BYTE   W12
// 001   ----------------------------------------
Label_8_0155A2A1:
 BYTE   W12
 BYTE   N12  An3  v036
 BYTE   W24
 BYTE   N12
 BYTE   W12
 BYTE   N12
 BYTE   W24
 BYTE   N12
 BYTE   W12
 BYTE   N12
 BYTE   W12
 BYTE   PEND 
 BYTE   PATT
  POIN2 Label_8_0155A2A1
 BYTE   PATT
  POIN2 Label_8_0155A2A1
 BYTE   PATT
  POIN2 Label_8_0155A2A1
 BYTE   PATT
  POIN2 Label_8_0155A2A1
 BYTE   PATT
  POIN2 Label_8_0155A2A1
 BYTE   PATT
  POIN2 Label_8_0155A2A1
// 002   ----------------------------------------
 BYTE   W12
 BYTE   N12  An3  v036
 BYTE   W84
// 003   ----------------------------------------
 BYTE   W24
Label_8_0155A2D3:
 BYTE   W72
// 004   ----------------------------------------
 BYTE   W96
// 005   ----------------------------------------
 BYTE   W96
// 006   ----------------------------------------
 BYTE   W96
// 007   ----------------------------------------
 BYTE   W96
// 008   ----------------------------------------
 BYTE   W96
// 009   ----------------------------------------
 BYTE   W96
// 010   ----------------------------------------
Label_8_0155A2DA:
 BYTE   W24
 BYTE   N12  En1  v052
 BYTE   N24  An2
 BYTE   W36
 BYTE   N12  En1
 BYTE   W36
 BYTE   PEND 
// 011   ----------------------------------------
Label_8_0155A2E5:
 BYTE   N12  En1  v052
 BYTE   W12
 BYTE   N12
 BYTE   W12
 BYTE   N12
 BYTE   W36
 BYTE   N12
 BYTE   W24
 BYTE   N12
 BYTE   W12
 BYTE   PEND 
// 012   ----------------------------------------
Label_8_0155A2F2:
 BYTE   N12  En1  v052
 BYTE   W24
 BYTE   N12
 BYTE   W36
 BYTE   N12
 BYTE   W36
 BYTE   PEND 
// 013   ----------------------------------------
Label_8_0155A2FB:
 BYTE   N12  En1  v052
 BYTE   W12
 BYTE   N12
 BYTE   W12
 BYTE   N12
 BYTE   W12
 BYTE   N12
 BYTE   W24
 BYTE   N12
 BYTE   W24
 BYTE   N06
 BYTE   W06
 BYTE   N06
 BYTE   W06
 BYTE   PEND 
// 014   ----------------------------------------
Label_8_0155A30C:
 BYTE   N12  En1  v052
 BYTE   W12
 BYTE   N12
 BYTE   W12
 BYTE   N12
 BYTE   W36
 BYTE   N12
 BYTE   W36
 BYTE   PEND 
 BYTE   PATT
  POIN2 Label_8_0155A2E5
 BYTE   PATT
  POIN2 Label_8_0155A2F2
// 015   ----------------------------------------
Label_8_0155A321:
 BYTE   N12  En1  v052
 BYTE   W12
 BYTE   N12
 BYTE   W12
 BYTE   N12
 BYTE   W12
 BYTE   N12
 BYTE   W24
 BYTE   N12
 BYTE   W36
 BYTE   PEND 
// 016   ----------------------------------------
Label_8_0155A32E:
 BYTE   N06  En1  v052
 BYTE   W06
 BYTE   N06
 BYTE   W06
 BYTE   N12
 BYTE   W12
 BYTE   N12
 BYTE   N24  An2
 BYTE   W72
 BYTE   PEND 
// 017   ----------------------------------------
Label_8_0155A33B:
 BYTE   N03  En1  v052
 BYTE   W03
 BYTE   N03
 BYTE   W03
 BYTE   N03
 BYTE   W03
 BYTE   N03
 BYTE   W03
 BYTE   N03
 BYTE   W03
 BYTE   N03
 BYTE   W03
 BYTE   N03
 BYTE   W03
 BYTE   N03
 BYTE   W03
 BYTE   N03
 BYTE   W03
 BYTE   N03
 BYTE   W03
 BYTE   N03
 BYTE   W03
 BYTE   N03
 BYTE   W03
 BYTE   N03
 BYTE   W03
 BYTE   N03
 BYTE   W03
 BYTE   N03
 BYTE   W03
 BYTE   N03
 BYTE   W03
 BYTE   N12
 BYTE   N24  An2
 BYTE   W36
 BYTE   N12  En1
 BYTE   W12
 BYTE   PEND 
// 018   ----------------------------------------
Label_8_0155A365:
 BYTE   W24
 BYTE   N12  En1  v052
 BYTE   W12
 BYTE   N12
 BYTE   W12
 BYTE   N12
 BYTE   W36
 BYTE   N12
 BYTE   W12
 BYTE   PEND 
// 019   ----------------------------------------
Label_8_0155A371:
 BYTE   W12
 BYTE   N12  En1  v052
 BYTE   W12
 BYTE   N12
 BYTE   W24
 BYTE   N12
 BYTE   W36
 BYTE   N12
 BYTE   W12
 BYTE   PEND 
 BYTE   PATT
  POIN2 Label_8_0155A365
// 020   ----------------------------------------
Label_8_0155A382:
 BYTE   W12
 BYTE   N06  En1  v052
 BYTE   W06
 BYTE   N06
 BYTE   W06
 BYTE   N12
 BYTE   W12
 BYTE   N12
 BYTE   W12
 BYTE   N12
 BYTE   W36
 BYTE   N12
 BYTE   W12
 BYTE   PEND 
 BYTE   PATT
  POIN2 Label_8_0155A365
 BYTE   PATT
  POIN2 Label_8_0155A371
// 021   ----------------------------------------
 BYTE   W96
// 022   ----------------------------------------
 BYTE   W96
// 023   ----------------------------------------
 BYTE   W96
// 024   ----------------------------------------
 BYTE   W96
// 025   ----------------------------------------
 BYTE   W96
// 026   ----------------------------------------
 BYTE   W96
// 027   ----------------------------------------
 BYTE   W96
// 028   ----------------------------------------
 BYTE   W96
// 029   ----------------------------------------
 BYTE   W96
// 030   ----------------------------------------
 BYTE   W24
 BYTE   GoTo
  POIN2 Label_8_0155A2D3
// 031   ----------------------------------------
 BYTE   W72
 BYTE   W96
// 032   ----------------------------------------
 BYTE   W96
// 033   ----------------------------------------
 BYTE   W96
// 034   ----------------------------------------
 BYTE   W96
// 035   ----------------------------------------
 BYTE   W96
// 036   ----------------------------------------
 BYTE   W96
 BYTE   PATT
  POIN2 Label_8_0155A2DA
 BYTE   PATT
  POIN2 Label_8_0155A2E5
 BYTE   PATT
  POIN2 Label_8_0155A2F2
 BYTE   PATT
  POIN2 Label_8_0155A2FB
 BYTE   PATT
  POIN2 Label_8_0155A30C
 BYTE   PATT
  POIN2 Label_8_0155A2E5
 BYTE   PATT
  POIN2 Label_8_0155A2F2
 BYTE   PATT
  POIN2 Label_8_0155A321
 BYTE   PATT
  POIN2 Label_8_0155A32E
 BYTE   PATT
  POIN2 Label_8_0155A33B
 BYTE   PATT
  POIN2 Label_8_0155A365
 BYTE   PATT
  POIN2 Label_8_0155A371
 BYTE   PATT
  POIN2 Label_8_0155A365
 BYTE   PATT
  POIN2 Label_8_0155A382
 BYTE   PATT
  POIN2 Label_8_0155A365
 BYTE   PATT
  POIN2 Label_8_0155A371
// 037   ----------------------------------------
 BYTE   W24
 BYTE   FINE

//******************************************************//
	ALIGN 4

FE07InescapableFateRandomWizard:
	BYTE	9	// NumTrks
	BYTE	0	// NumBlks
	BYTE	FE07InescapableFateRandomWizard_pri	// Priority
	BYTE	FE07InescapableFateRandomWizard_rev	// Reverb.
    
	POIN2	FE07InescapableFateRandomWizard_grp
    
	POIN2	FE07InescapableFateRandomWizard_001
	POIN2	FE07InescapableFateRandomWizard_002
	POIN2	FE07InescapableFateRandomWizard_003
	POIN2	FE07InescapableFateRandomWizard_004
	POIN2	FE07InescapableFateRandomWizard_005
	POIN2	FE07InescapableFateRandomWizard_006
	POIN2	FE07InescapableFateRandomWizard_007
	POIN2	FE07InescapableFateRandomWizard_008
	POIN2	FE07InescapableFateRandomWizard_009

	
