//Event file generated from Sappy .s format.
	#include "MPlayDef.event"

	#define	FE07RecollectionofaPetalPsyche_grp  voicegroup000
	#define	FE07RecollectionofaPetalPsyche_pri  10
	#define	FE07RecollectionofaPetalPsyche_rev  128
	#define	FE07RecollectionofaPetalPsyche_mvl  127
	#define	FE07RecollectionofaPetalPsyche_key  0
	#define	FE07RecollectionofaPetalPsyche_tbs  1
	#define	FE07RecollectionofaPetalPsyche_exg  0
	#define	FE07RecollectionofaPetalPsyche_cmp  1

	// .rodata
	//	FE07RecollectionofaPetalPsyche
	ALIGN 4


//**************** Track 1 (Midi-Chn.0) ****************//

FE07RecollectionofaPetalPsyche_001:
// 000   ----------------------------------------
 BYTE   KEYSH   FE07RecollectionofaPetalPsyche_key+0
 BYTE   TEMPO   98*FE07RecollectionofaPetalPsyche_tbs/2
 BYTE   VOICE   41
 BYTE   VOL   7*FE07RecollectionofaPetalPsyche_mvl/mxv
 BYTE   PAN   c_v-20
 BYTE   N96  Fs4  v080
 BYTE   W02
 BYTE   VOL   8*FE07RecollectionofaPetalPsyche_mvl/mxv
 BYTE   W01
 BYTE   VOL   8*FE07RecollectionofaPetalPsyche_mvl/mxv
 BYTE   W01
 BYTE   VOL   9*FE07RecollectionofaPetalPsyche_mvl/mxv
 BYTE   W01
 BYTE   VOL   9*FE07RecollectionofaPetalPsyche_mvl/mxv
 BYTE   W01
 BYTE   VOL   10*FE07RecollectionofaPetalPsyche_mvl/mxv
 BYTE   W01
 BYTE   VOL   10*FE07RecollectionofaPetalPsyche_mvl/mxv
 BYTE   W01
 BYTE   VOL   11*FE07RecollectionofaPetalPsyche_mvl/mxv
 BYTE   W01
 BYTE   VOL   11*FE07RecollectionofaPetalPsyche_mvl/mxv
 BYTE   W01
 BYTE   VOL   12*FE07RecollectionofaPetalPsyche_mvl/mxv
 BYTE   W01
 BYTE   VOL   12*FE07RecollectionofaPetalPsyche_mvl/mxv
 BYTE   W01
 BYTE   VOL   13*FE07RecollectionofaPetalPsyche_mvl/mxv
 BYTE   W01
 BYTE   VOL   13*FE07RecollectionofaPetalPsyche_mvl/mxv
 BYTE   W01
 BYTE   VOL   14*FE07RecollectionofaPetalPsyche_mvl/mxv
 BYTE   W01
 BYTE   VOL   14*FE07RecollectionofaPetalPsyche_mvl/mxv
 BYTE   W01
 BYTE   VOL   14*FE07RecollectionofaPetalPsyche_mvl/mxv
 BYTE   W01
 BYTE   VOL   15*FE07RecollectionofaPetalPsyche_mvl/mxv
 BYTE   W01
 BYTE   VOL   15*FE07RecollectionofaPetalPsyche_mvl/mxv
 BYTE   W01
 BYTE   VOL   16*FE07RecollectionofaPetalPsyche_mvl/mxv
 BYTE   W01
 BYTE   VOL   16*FE07RecollectionofaPetalPsyche_mvl/mxv
 BYTE   W01
 BYTE   VOL   17*FE07RecollectionofaPetalPsyche_mvl/mxv
 BYTE   W01
 BYTE   VOL   17*FE07RecollectionofaPetalPsyche_mvl/mxv
 BYTE   W01
 BYTE   VOL   18*FE07RecollectionofaPetalPsyche_mvl/mxv
 BYTE   W01
 BYTE   VOL   18*FE07RecollectionofaPetalPsyche_mvl/mxv
 BYTE   W01
 BYTE   VOL   19*FE07RecollectionofaPetalPsyche_mvl/mxv
 BYTE   W01
 BYTE   VOL   19*FE07RecollectionofaPetalPsyche_mvl/mxv
 BYTE   W01
 BYTE   VOL   20*FE07RecollectionofaPetalPsyche_mvl/mxv
 BYTE   W01
 BYTE   VOL   20*FE07RecollectionofaPetalPsyche_mvl/mxv
 BYTE   W01
 BYTE   VOL   20*FE07RecollectionofaPetalPsyche_mvl/mxv
 BYTE   W01
 BYTE   VOL   21*FE07RecollectionofaPetalPsyche_mvl/mxv
 BYTE   W01
 BYTE   VOL   21*FE07RecollectionofaPetalPsyche_mvl/mxv
 BYTE   W01
 BYTE   VOL   22*FE07RecollectionofaPetalPsyche_mvl/mxv
 BYTE   W01
 BYTE   VOL   22*FE07RecollectionofaPetalPsyche_mvl/mxv
 BYTE   W01
 BYTE   VOL   23*FE07RecollectionofaPetalPsyche_mvl/mxv
 BYTE   W01
 BYTE   VOL   23*FE07RecollectionofaPetalPsyche_mvl/mxv
 BYTE   W01
 BYTE   VOL   24*FE07RecollectionofaPetalPsyche_mvl/mxv
 BYTE   W01
 BYTE   VOL   24*FE07RecollectionofaPetalPsyche_mvl/mxv
 BYTE   W01
 BYTE   VOL   25*FE07RecollectionofaPetalPsyche_mvl/mxv
 BYTE   W01
 BYTE   VOL   25*FE07RecollectionofaPetalPsyche_mvl/mxv
 BYTE   W02
 BYTE   VOL   26*FE07RecollectionofaPetalPsyche_mvl/mxv
 BYTE   W01
 BYTE   VOL   26*FE07RecollectionofaPetalPsyche_mvl/mxv
 BYTE   W01
 BYTE   VOL   27*FE07RecollectionofaPetalPsyche_mvl/mxv
 BYTE   W01
 BYTE   VOL   27*FE07RecollectionofaPetalPsyche_mvl/mxv
 BYTE   W01
 BYTE   VOL   27*FE07RecollectionofaPetalPsyche_mvl/mxv
 BYTE   W01
 BYTE   VOL   28*FE07RecollectionofaPetalPsyche_mvl/mxv
 BYTE   W01
 BYTE   VOL   28*FE07RecollectionofaPetalPsyche_mvl/mxv
 BYTE   W01
 BYTE   VOL   29*FE07RecollectionofaPetalPsyche_mvl/mxv
 BYTE   W01
 BYTE   VOL   29*FE07RecollectionofaPetalPsyche_mvl/mxv
 BYTE   W01
 BYTE   VOL   30*FE07RecollectionofaPetalPsyche_mvl/mxv
 BYTE   W01
 BYTE   VOL   30*FE07RecollectionofaPetalPsyche_mvl/mxv
 BYTE   W01
 BYTE   VOL   31*FE07RecollectionofaPetalPsyche_mvl/mxv
 BYTE   W01
 BYTE   VOL   31*FE07RecollectionofaPetalPsyche_mvl/mxv
 BYTE   W01
 BYTE   VOL   32*FE07RecollectionofaPetalPsyche_mvl/mxv
 BYTE   W01
 BYTE   VOL   32*FE07RecollectionofaPetalPsyche_mvl/mxv
 BYTE   W01
 BYTE   VOL   33*FE07RecollectionofaPetalPsyche_mvl/mxv
 BYTE   W01
 BYTE   VOL   33*FE07RecollectionofaPetalPsyche_mvl/mxv
 BYTE   W02
 BYTE   VOL   33*FE07RecollectionofaPetalPsyche_mvl/mxv
 BYTE   W01
 BYTE   VOL   34*FE07RecollectionofaPetalPsyche_mvl/mxv
 BYTE   W01
 BYTE   VOL   34*FE07RecollectionofaPetalPsyche_mvl/mxv
 BYTE   W01
 BYTE   VOL   35*FE07RecollectionofaPetalPsyche_mvl/mxv
 BYTE   W01
 BYTE   VOL   35*FE07RecollectionofaPetalPsyche_mvl/mxv
 BYTE   W01
 BYTE   VOL   36*FE07RecollectionofaPetalPsyche_mvl/mxv
 BYTE   W32
// 001   ----------------------------------------
Label_0_0102C235:
 BYTE   N24  Cs4  v072
 BYTE   W24
 BYTE   N30  Bn3
 BYTE   W30
 BYTE   N06  Bn3  v020
 BYTE   W06
 BYTE   N12  Bn3  v072
 BYTE   W12
 BYTE   Dn4
 BYTE   W12
 BYTE   Fs4
 BYTE   W12
// 002   ----------------------------------------
 BYTE   N36  An4
 BYTE   W36
 BYTE   Gn4
 BYTE   W36
 BYTE   N24  Fs4
 BYTE   W24
// 003   ----------------------------------------
 BYTE   N56  Gn4
 BYTE   W60
 BYTE   N12  Bn3
 BYTE   W12
 BYTE   Cs4
 BYTE   W12
 BYTE   Dn4
 BYTE   W12
// 004   ----------------------------------------
 BYTE   N96  Fs4  v068
 BYTE   W96
// 005   ----------------------------------------
 BYTE   N24  Gn4  v072
 BYTE   W24
 BYTE   Fs4
 BYTE   W24
 BYTE   Dn4
 BYTE   W24
 BYTE   Bn3
 BYTE   W24
// 006   ----------------------------------------
 BYTE   N60  Gn3
 BYTE   W60
 BYTE   N12  An3
 BYTE   W12
 BYTE   Bn3
 BYTE   W12
 BYTE   Cs4
 BYTE   W12
// 007   ----------------------------------------
 BYTE   N66  Dn4
 BYTE   W66
 BYTE   N06  Dn4  v020
 BYTE   W06
 BYTE   N12  Dn4  v072
 BYTE   W12
 BYTE   En4
 BYTE   W12
// 008   ----------------------------------------
 BYTE   TIE  Fs4  v068
 BYTE   W96
// 009   ----------------------------------------
 BYTE   W18
 BYTE   VOL   36*FE07RecollectionofaPetalPsyche_mvl/mxv
 BYTE   W01
 BYTE   VOL   35*FE07RecollectionofaPetalPsyche_mvl/mxv
 BYTE   W01
 BYTE   VOL   35*FE07RecollectionofaPetalPsyche_mvl/mxv
 BYTE   W01
 BYTE   VOL   34*FE07RecollectionofaPetalPsyche_mvl/mxv
 BYTE   W01
 BYTE   VOL   33*FE07RecollectionofaPetalPsyche_mvl/mxv
 BYTE   W01
 BYTE   VOL   33*FE07RecollectionofaPetalPsyche_mvl/mxv
 BYTE   W01
 BYTE   VOL   32*FE07RecollectionofaPetalPsyche_mvl/mxv
 BYTE   W01
 BYTE   VOL   31*FE07RecollectionofaPetalPsyche_mvl/mxv
 BYTE   W01
 BYTE   VOL   30*FE07RecollectionofaPetalPsyche_mvl/mxv
 BYTE   W01
 BYTE   VOL   30*FE07RecollectionofaPetalPsyche_mvl/mxv
 BYTE   W01
 BYTE   VOL   29*FE07RecollectionofaPetalPsyche_mvl/mxv
 BYTE   W01
 BYTE   VOL   28*FE07RecollectionofaPetalPsyche_mvl/mxv
 BYTE   W01
 BYTE   VOL   27*FE07RecollectionofaPetalPsyche_mvl/mxv
 BYTE   W01
 BYTE   VOL   27*FE07RecollectionofaPetalPsyche_mvl/mxv
 BYTE   W01
 BYTE   VOL   26*FE07RecollectionofaPetalPsyche_mvl/mxv
 BYTE   W01
 BYTE   VOL   25*FE07RecollectionofaPetalPsyche_mvl/mxv
 BYTE   W01
 BYTE   VOL   24*FE07RecollectionofaPetalPsyche_mvl/mxv
 BYTE   W01
 BYTE   VOL   24*FE07RecollectionofaPetalPsyche_mvl/mxv
 BYTE   W01
 BYTE   VOL   23*FE07RecollectionofaPetalPsyche_mvl/mxv
 BYTE   W01
 BYTE   VOL   22*FE07RecollectionofaPetalPsyche_mvl/mxv
 BYTE   W01
 BYTE   VOL   21*FE07RecollectionofaPetalPsyche_mvl/mxv
 BYTE   W01
 BYTE   VOL   20*FE07RecollectionofaPetalPsyche_mvl/mxv
 BYTE   W01
 BYTE   VOL   20*FE07RecollectionofaPetalPsyche_mvl/mxv
 BYTE   W01
 BYTE   VOL   20*FE07RecollectionofaPetalPsyche_mvl/mxv
 BYTE   W01
 BYTE   VOL   19*FE07RecollectionofaPetalPsyche_mvl/mxv
 BYTE   W01
 BYTE   VOL   18*FE07RecollectionofaPetalPsyche_mvl/mxv
 BYTE   W01
 BYTE   VOL   17*FE07RecollectionofaPetalPsyche_mvl/mxv
 BYTE   W01
 BYTE   VOL   17*FE07RecollectionofaPetalPsyche_mvl/mxv
 BYTE   W01
 BYTE   VOL   16*FE07RecollectionofaPetalPsyche_mvl/mxv
 BYTE   W01
 BYTE   VOL   15*FE07RecollectionofaPetalPsyche_mvl/mxv
 BYTE   W01
 BYTE   VOL   14*FE07RecollectionofaPetalPsyche_mvl/mxv
 BYTE   W01
 BYTE   VOL   14*FE07RecollectionofaPetalPsyche_mvl/mxv
 BYTE   W01
 BYTE   VOL   13*FE07RecollectionofaPetalPsyche_mvl/mxv
 BYTE   W01
 BYTE   VOL   12*FE07RecollectionofaPetalPsyche_mvl/mxv
 BYTE   W01
 BYTE   VOL   12*FE07RecollectionofaPetalPsyche_mvl/mxv
 BYTE   W01
 BYTE   VOL   11*FE07RecollectionofaPetalPsyche_mvl/mxv
 BYTE   W01
 BYTE   VOL   10*FE07RecollectionofaPetalPsyche_mvl/mxv
 BYTE   W01
 BYTE   VOL   9*FE07RecollectionofaPetalPsyche_mvl/mxv
 BYTE   W01
 BYTE   VOL   8*FE07RecollectionofaPetalPsyche_mvl/mxv
 BYTE   W01
 BYTE   VOL   8*FE07RecollectionofaPetalPsyche_mvl/mxv
 BYTE   W01
 BYTE   VOL   7*FE07RecollectionofaPetalPsyche_mvl/mxv
 BYTE   W01
 BYTE   VOL   6*FE07RecollectionofaPetalPsyche_mvl/mxv
 BYTE   W01
 BYTE   VOL   6*FE07RecollectionofaPetalPsyche_mvl/mxv
 BYTE   W01
 BYTE   VOL   5*FE07RecollectionofaPetalPsyche_mvl/mxv
 BYTE   W01
 BYTE   VOL   4*FE07RecollectionofaPetalPsyche_mvl/mxv
 BYTE   W01
 BYTE   VOL   4*FE07RecollectionofaPetalPsyche_mvl/mxv
 BYTE   W01
 BYTE   VOL   3*FE07RecollectionofaPetalPsyche_mvl/mxv
 BYTE   W01
 BYTE   VOL   2*FE07RecollectionofaPetalPsyche_mvl/mxv
 BYTE   W01
 BYTE   VOL   1*FE07RecollectionofaPetalPsyche_mvl/mxv
 BYTE   W01
 BYTE   VOL   1*FE07RecollectionofaPetalPsyche_mvl/mxv
 BYTE   W01
 BYTE   VOL   0*FE07RecollectionofaPetalPsyche_mvl/mxv
 BYTE   W01
 BYTE   VOL   0*FE07RecollectionofaPetalPsyche_mvl/mxv
 BYTE   W01
 BYTE   VOL   0*FE07RecollectionofaPetalPsyche_mvl/mxv
 BYTE   W01
 BYTE   VOL   0*FE07RecollectionofaPetalPsyche_mvl/mxv
 BYTE   W01
 BYTE   VOL   0*FE07RecollectionofaPetalPsyche_mvl/mxv
 BYTE   W01
 BYTE   VOL   0*FE07RecollectionofaPetalPsyche_mvl/mxv
 BYTE   W01
 BYTE   VOL   0*FE07RecollectionofaPetalPsyche_mvl/mxv
 BYTE   W01
 BYTE   VOL   0*FE07RecollectionofaPetalPsyche_mvl/mxv
 BYTE   W01
 BYTE   VOL   0*FE07RecollectionofaPetalPsyche_mvl/mxv
 BYTE   W01
 BYTE   VOL   0*FE07RecollectionofaPetalPsyche_mvl/mxv
 BYTE   W01
 BYTE   VOL   0*FE07RecollectionofaPetalPsyche_mvl/mxv
 BYTE   W01
 BYTE   VOL   0*FE07RecollectionofaPetalPsyche_mvl/mxv
 BYTE   W01
 BYTE   VOL   0*FE07RecollectionofaPetalPsyche_mvl/mxv
 BYTE   W01
 BYTE   VOL   0*FE07RecollectionofaPetalPsyche_mvl/mxv
 BYTE   W01
 BYTE   VOL   0*FE07RecollectionofaPetalPsyche_mvl/mxv
 BYTE   W01
 BYTE   VOL   0*FE07RecollectionofaPetalPsyche_mvl/mxv
 BYTE   W01
 BYTE   VOL   0*FE07RecollectionofaPetalPsyche_mvl/mxv
 BYTE   W01
 BYTE   VOL   0*FE07RecollectionofaPetalPsyche_mvl/mxv
 BYTE   W08
 BYTE   EOT
 BYTE   W03
// 010   ----------------------------------------
 BYTE   VOL   37*FE07RecollectionofaPetalPsyche_mvl/mxv
 BYTE   W96
// 011   ----------------------------------------
 BYTE   W96
// 012   ----------------------------------------
 BYTE   W96
// 013   ----------------------------------------
 BYTE   W96
// 014   ----------------------------------------
 BYTE   W96
// 015   ----------------------------------------
 BYTE   W96
// 016   ----------------------------------------
 BYTE   VOICE   41
 BYTE   VOL   36*FE07RecollectionofaPetalPsyche_mvl/mxv
 BYTE   N56  Bn2  v108
 BYTE   W60
 BYTE   N12
 BYTE   W12
 BYTE   Cs3
 BYTE   W12
 BYTE   Dn3
 BYTE   W12
// 017   ----------------------------------------
 BYTE   N56  En3
 BYTE   W60
 BYTE   N12
 BYTE   W12
 BYTE   Fs3
 BYTE   W12
 BYTE   Gn3
 BYTE   W12
// 018   ----------------------------------------
 BYTE   N44  An3
 BYTE   W48
 BYTE   N21  Fs3
 BYTE   W24
 BYTE   Cs4
 BYTE   W24
// 019   ----------------------------------------
 BYTE   N44  En4
 BYTE   W48
 BYTE   N21  Dn4
 BYTE   W24
 BYTE   Cs4
 BYTE   W24
// 020   ----------------------------------------
 BYTE   VOICE   41
 BYTE   N44  Gn3  v080
 BYTE   N48  Bn3  v112
 BYTE   W48
 BYTE   N44  An3  v080
 BYTE   N48  Cs4  v112
 BYTE   W48
// 021   ----------------------------------------
 BYTE   N44  Bn3  v080
 BYTE   N48  Dn4  v112
 BYTE   W48
 BYTE   N44  Dn4  v080
 BYTE   N48  Fs4  v112
 BYTE   W48
// 022   ----------------------------------------
 BYTE   TIE  En4
 BYTE   W96
// 023   ----------------------------------------
 BYTE   W72
 BYTE   EOT
 BYTE   N09  En4  v020
 BYTE   W22
 BYTE   VOL   36*FE07RecollectionofaPetalPsyche_mvl/mxv
 BYTE   W01
 BYTE   VOL   16*FE07RecollectionofaPetalPsyche_mvl/mxv
 BYTE   W01
// 024   ----------------------------------------
 BYTE   VOICE   41
 BYTE   VOL   26*FE07RecollectionofaPetalPsyche_mvl/mxv
 BYTE   PAN   c_v-20
 BYTE   N96  Fs4  v080
 BYTE   W03
 BYTE   VOL   27*FE07RecollectionofaPetalPsyche_mvl/mxv
 BYTE   W02
 BYTE   VOL   27*FE07RecollectionofaPetalPsyche_mvl/mxv
 BYTE   W02
 BYTE   VOL   27*FE07RecollectionofaPetalPsyche_mvl/mxv
 BYTE   W01
 BYTE   VOL   28*FE07RecollectionofaPetalPsyche_mvl/mxv
 BYTE   W02
 BYTE   VOL   28*FE07RecollectionofaPetalPsyche_mvl/mxv
 BYTE   W02
 BYTE   VOL   29*FE07RecollectionofaPetalPsyche_mvl/mxv
 BYTE   W02
 BYTE   VOL   29*FE07RecollectionofaPetalPsyche_mvl/mxv
 BYTE   W01
 BYTE   VOL   30*FE07RecollectionofaPetalPsyche_mvl/mxv
 BYTE   W02
 BYTE   VOL   30*FE07RecollectionofaPetalPsyche_mvl/mxv
 BYTE   W02
 BYTE   VOL   31*FE07RecollectionofaPetalPsyche_mvl/mxv
 BYTE   W02
 BYTE   VOL   31*FE07RecollectionofaPetalPsyche_mvl/mxv
 BYTE   W02
 BYTE   VOL   32*FE07RecollectionofaPetalPsyche_mvl/mxv
 BYTE   W01
 BYTE   VOL   32*FE07RecollectionofaPetalPsyche_mvl/mxv
 BYTE   W02
 BYTE   VOL   33*FE07RecollectionofaPetalPsyche_mvl/mxv
 BYTE   W02
 BYTE   VOL   33*FE07RecollectionofaPetalPsyche_mvl/mxv
 BYTE   W02
 BYTE   VOL   33*FE07RecollectionofaPetalPsyche_mvl/mxv
 BYTE   W01
 BYTE   VOL   34*FE07RecollectionofaPetalPsyche_mvl/mxv
 BYTE   W02
 BYTE   VOL   34*FE07RecollectionofaPetalPsyche_mvl/mxv
 BYTE   W02
 BYTE   VOL   35*FE07RecollectionofaPetalPsyche_mvl/mxv
 BYTE   W02
 BYTE   VOL   35*FE07RecollectionofaPetalPsyche_mvl/mxv
 BYTE   W02
 BYTE   VOL   36*FE07RecollectionofaPetalPsyche_mvl/mxv
 BYTE   W56
 BYTE   W01
// 025   ----------------------------------------
 BYTE   GoTo
  POIN2 Label_0_0102C235
 BYTE   FINE

//**************** Track 2 (Midi-Chn.1) ****************//

FE07RecollectionofaPetalPsyche_002:
// 000   ----------------------------------------
 BYTE   KEYSH   FE07RecollectionofaPetalPsyche_key+0
 BYTE   VOICE   73
 BYTE   VOL   53*FE07RecollectionofaPetalPsyche_mvl/mxv
 BYTE   PAN   c_v+15
 BYTE   N48  Fs4  v104
 BYTE   W48
 BYTE   N24  Dn4
 BYTE   W24
 BYTE   Fs4
 BYTE   W24
// 001   ----------------------------------------
Label_1_0102C411:
 BYTE   N24  En4  v104
 BYTE   W24
 BYTE   Dn4
 BYTE   W24
 BYTE   N21  Cs4
 BYTE   W24
 BYTE   Bn3
 BYTE   W24
// 002   ----------------------------------------
 BYTE   N24  Cs4
 BYTE   W24
 BYTE   N12  Dn4
 BYTE   W12
 BYTE   TIE  Bn3
 BYTE   W60
// 003   ----------------------------------------
 BYTE   W42
 BYTE   W01
 BYTE   VOL   53*FE07RecollectionofaPetalPsyche_mvl/mxv
 BYTE   W01
 BYTE   VOL   52*FE07RecollectionofaPetalPsyche_mvl/mxv
 BYTE   W01
 BYTE   VOL   51*FE07RecollectionofaPetalPsyche_mvl/mxv
 BYTE   W01
 BYTE   VOL   49*FE07RecollectionofaPetalPsyche_mvl/mxv
 BYTE   W01
 BYTE   VOL   47*FE07RecollectionofaPetalPsyche_mvl/mxv
 BYTE   W01
 BYTE   VOL   46*FE07RecollectionofaPetalPsyche_mvl/mxv
 BYTE   W01
 BYTE   VOL   45*FE07RecollectionofaPetalPsyche_mvl/mxv
 BYTE   W01
 BYTE   VOL   43*FE07RecollectionofaPetalPsyche_mvl/mxv
 BYTE   W01
 BYTE   VOL   42*FE07RecollectionofaPetalPsyche_mvl/mxv
 BYTE   W01
 BYTE   VOL   41*FE07RecollectionofaPetalPsyche_mvl/mxv
 BYTE   W01
 BYTE   VOL   39*FE07RecollectionofaPetalPsyche_mvl/mxv
 BYTE   W01
 BYTE   VOL   38*FE07RecollectionofaPetalPsyche_mvl/mxv
 BYTE   W01
 BYTE   VOL   37*FE07RecollectionofaPetalPsyche_mvl/mxv
 BYTE   W01
 BYTE   VOL   35*FE07RecollectionofaPetalPsyche_mvl/mxv
 BYTE   W01
 BYTE   VOL   34*FE07RecollectionofaPetalPsyche_mvl/mxv
 BYTE   W01
 BYTE   VOL   32*FE07RecollectionofaPetalPsyche_mvl/mxv
 BYTE   W01
 BYTE   VOL   31*FE07RecollectionofaPetalPsyche_mvl/mxv
 BYTE   W01
 BYTE   VOL   30*FE07RecollectionofaPetalPsyche_mvl/mxv
 BYTE   W01
 BYTE   VOL   28*FE07RecollectionofaPetalPsyche_mvl/mxv
 BYTE   W01
 BYTE   VOL   26*FE07RecollectionofaPetalPsyche_mvl/mxv
 BYTE   W01
 BYTE   VOL   26*FE07RecollectionofaPetalPsyche_mvl/mxv
 BYTE   W01
 BYTE   VOL   24*FE07RecollectionofaPetalPsyche_mvl/mxv
 BYTE   W01
 BYTE   VOL   22*FE07RecollectionofaPetalPsyche_mvl/mxv
 BYTE   W01
 BYTE   VOL   21*FE07RecollectionofaPetalPsyche_mvl/mxv
 BYTE   W01
 BYTE   VOL   20*FE07RecollectionofaPetalPsyche_mvl/mxv
 BYTE   W01
 BYTE   VOL   18*FE07RecollectionofaPetalPsyche_mvl/mxv
 BYTE   W01
 BYTE   VOL   17*FE07RecollectionofaPetalPsyche_mvl/mxv
 BYTE   W01
 BYTE   VOL   16*FE07RecollectionofaPetalPsyche_mvl/mxv
 BYTE   W01
 BYTE   VOL   14*FE07RecollectionofaPetalPsyche_mvl/mxv
 BYTE   W01
 BYTE   EOT
 BYTE   VOL   13*FE07RecollectionofaPetalPsyche_mvl/mxv
 BYTE   W01
 BYTE   VOL   12*FE07RecollectionofaPetalPsyche_mvl/mxv
 BYTE   W01
 BYTE   VOL   10*FE07RecollectionofaPetalPsyche_mvl/mxv
 BYTE   W01
 BYTE   VOL   9*FE07RecollectionofaPetalPsyche_mvl/mxv
 BYTE   W01
 BYTE   VOL   7*FE07RecollectionofaPetalPsyche_mvl/mxv
 BYTE   W01
 BYTE   VOL   6*FE07RecollectionofaPetalPsyche_mvl/mxv
 BYTE   W01
 BYTE   VOL   5*FE07RecollectionofaPetalPsyche_mvl/mxv
 BYTE   W01
 BYTE   VOL   3*FE07RecollectionofaPetalPsyche_mvl/mxv
 BYTE   W01
 BYTE   VOL   1*FE07RecollectionofaPetalPsyche_mvl/mxv
 BYTE   W01
 BYTE   VOL   0*FE07RecollectionofaPetalPsyche_mvl/mxv
 BYTE   W01
 BYTE   VOL   0*FE07RecollectionofaPetalPsyche_mvl/mxv
 BYTE   W14
// 004   ----------------------------------------
 BYTE   VOL   53*FE07RecollectionofaPetalPsyche_mvl/mxv
 BYTE   N48  Fs4
 BYTE   W48
 BYTE   N24  Dn4
 BYTE   W24
 BYTE   Fs4
 BYTE   W24
// 005   ----------------------------------------
 BYTE   En4
 BYTE   W24
 BYTE   N21  Dn4
 BYTE   W24
 BYTE   N12  Cs4
 BYTE   W12
 BYTE   Dn4
 BYTE   W12
 BYTE   Fs4
 BYTE   W12
 BYTE   N09  Bn4
 BYTE   W12
// 006   ----------------------------------------
 BYTE   N24  Cs5
 BYTE   W24
 BYTE   N12  Dn5
 BYTE   W12
 BYTE   TIE  Bn4
 BYTE   W60
// 007   ----------------------------------------
 BYTE   W48
 BYTE   W01
 BYTE   VOL   52*FE07RecollectionofaPetalPsyche_mvl/mxv
 BYTE   W01
 BYTE   VOL   51*FE07RecollectionofaPetalPsyche_mvl/mxv
 BYTE   W01
 BYTE   VOL   50*FE07RecollectionofaPetalPsyche_mvl/mxv
 BYTE   W01
 BYTE   VOL   48*FE07RecollectionofaPetalPsyche_mvl/mxv
 BYTE   W01
 BYTE   VOL   47*FE07RecollectionofaPetalPsyche_mvl/mxv
 BYTE   W01
 BYTE   VOL   45*FE07RecollectionofaPetalPsyche_mvl/mxv
 BYTE   W01
 BYTE   VOL   44*FE07RecollectionofaPetalPsyche_mvl/mxv
 BYTE   W01
 BYTE   VOL   43*FE07RecollectionofaPetalPsyche_mvl/mxv
 BYTE   W01
 BYTE   VOL   41*FE07RecollectionofaPetalPsyche_mvl/mxv
 BYTE   W01
 BYTE   VOL   39*FE07RecollectionofaPetalPsyche_mvl/mxv
 BYTE   W01
 BYTE   VOL   39*FE07RecollectionofaPetalPsyche_mvl/mxv
 BYTE   W01
 BYTE   VOL   37*FE07RecollectionofaPetalPsyche_mvl/mxv
 BYTE   W01
 BYTE   VOL   35*FE07RecollectionofaPetalPsyche_mvl/mxv
 BYTE   W01
 BYTE   VOL   34*FE07RecollectionofaPetalPsyche_mvl/mxv
 BYTE   W01
 BYTE   VOL   32*FE07RecollectionofaPetalPsyche_mvl/mxv
 BYTE   W01
 BYTE   VOL   31*FE07RecollectionofaPetalPsyche_mvl/mxv
 BYTE   W01
 BYTE   VOL   30*FE07RecollectionofaPetalPsyche_mvl/mxv
 BYTE   W01
 BYTE   VOL   28*FE07RecollectionofaPetalPsyche_mvl/mxv
 BYTE   W01
 BYTE   VOL   27*FE07RecollectionofaPetalPsyche_mvl/mxv
 BYTE   W01
 BYTE   VOL   26*FE07RecollectionofaPetalPsyche_mvl/mxv
 BYTE   W01
 BYTE   VOL   24*FE07RecollectionofaPetalPsyche_mvl/mxv
 BYTE   W01
 BYTE   VOL   23*FE07RecollectionofaPetalPsyche_mvl/mxv
 BYTE   W01
 BYTE   VOL   22*FE07RecollectionofaPetalPsyche_mvl/mxv
 BYTE   W01
 BYTE   EOT
 BYTE   VOL   20*FE07RecollectionofaPetalPsyche_mvl/mxv
 BYTE   W01
 BYTE   VOL   19*FE07RecollectionofaPetalPsyche_mvl/mxv
 BYTE   W01
 BYTE   VOL   18*FE07RecollectionofaPetalPsyche_mvl/mxv
 BYTE   W01
 BYTE   VOL   16*FE07RecollectionofaPetalPsyche_mvl/mxv
 BYTE   W01
 BYTE   VOL   14*FE07RecollectionofaPetalPsyche_mvl/mxv
 BYTE   W01
 BYTE   VOL   13*FE07RecollectionofaPetalPsyche_mvl/mxv
 BYTE   W01
 BYTE   VOL   12*FE07RecollectionofaPetalPsyche_mvl/mxv
 BYTE   W01
 BYTE   VOL   10*FE07RecollectionofaPetalPsyche_mvl/mxv
 BYTE   W01
 BYTE   VOL   9*FE07RecollectionofaPetalPsyche_mvl/mxv
 BYTE   W01
 BYTE   VOL   7*FE07RecollectionofaPetalPsyche_mvl/mxv
 BYTE   W01
 BYTE   VOL   6*FE07RecollectionofaPetalPsyche_mvl/mxv
 BYTE   W01
 BYTE   VOL   5*FE07RecollectionofaPetalPsyche_mvl/mxv
 BYTE   W01
 BYTE   VOL   3*FE07RecollectionofaPetalPsyche_mvl/mxv
 BYTE   W01
 BYTE   VOL   2*FE07RecollectionofaPetalPsyche_mvl/mxv
 BYTE   W01
 BYTE   VOL   0*FE07RecollectionofaPetalPsyche_mvl/mxv
 BYTE   W01
 BYTE   VOL   0*FE07RecollectionofaPetalPsyche_mvl/mxv
 BYTE   W09
// 008   ----------------------------------------
 BYTE   VOL   53*FE07RecollectionofaPetalPsyche_mvl/mxv
 BYTE   W96
// 009   ----------------------------------------
 BYTE   W96
// 010   ----------------------------------------
 BYTE   W96
// 011   ----------------------------------------
 BYTE   W96
// 012   ----------------------------------------
 BYTE   VOICE   48
 BYTE   VOL   30*FE07RecollectionofaPetalPsyche_mvl/mxv
 BYTE   PAN   c_v+25
 BYTE   N92  Dn3  v048
 BYTE   N96  Gn3
 BYTE   W96
// 013   ----------------------------------------
 BYTE   N92  En3
 BYTE   N96  An3
 BYTE   W96
// 014   ----------------------------------------
 BYTE   N92  En3
 BYTE   N96  An3
 BYTE   W96
// 015   ----------------------------------------
 BYTE   Fs3
 BYTE   N68  Bn3
 BYTE   W72
 BYTE   N21  An3
 BYTE   W24
// 016   ----------------------------------------
 BYTE   N96  Dn3
 BYTE   N96  Gn3
 BYTE   W96
// 017   ----------------------------------------
 BYTE   En3
 BYTE   N96  An3
 BYTE   W96
// 018   ----------------------------------------
 BYTE   En3
 BYTE   N96  An3
 BYTE   W96
// 019   ----------------------------------------
 BYTE   N72  Fs3
 BYTE   N72  Bn3
 BYTE   W72
 BYTE   N24  En3
 BYTE   W24
// 020   ----------------------------------------
Label_1_0102C572:
 BYTE   W72
 BYTE   VOICE   73
 BYTE   W06
 BYTE   VOL   53*FE07RecollectionofaPetalPsyche_mvl/mxv
 BYTE   W06
 BYTE   PAN   c_v+15
 BYTE   W12
 BYTE   PEND 
// 021   ----------------------------------------
 BYTE   N56  Fs4  v104
 BYTE   W60
 BYTE   N09  Dn4
 BYTE   W12
 BYTE   En4
 BYTE   W12
 BYTE   Fs4
 BYTE   W12
// 022   ----------------------------------------
 BYTE   N92  En4
 BYTE   W96
// 023   ----------------------------------------
 BYTE   PATT
  POIN2 Label_1_0102C572
// 024   ----------------------------------------
 BYTE   N48  Fs4  v104
 BYTE   W48
 BYTE   N24  Dn4
 BYTE   W24
 BYTE   Fs4
 BYTE   W24
// 025   ----------------------------------------
 BYTE   GoTo
  POIN2 Label_1_0102C411
 BYTE   FINE

//**************** Track 3 (Midi-Chn.2) ****************//

FE07RecollectionofaPetalPsyche_003:
// 000   ----------------------------------------
 BYTE   KEYSH   FE07RecollectionofaPetalPsyche_key+0
Label_2_0102C5A2:
 BYTE   VOICE   50
 BYTE   VOL   53*FE07RecollectionofaPetalPsyche_mvl/mxv
 BYTE   PAN   c_v+0
 BYTE   N92  Bn1  v100
 BYTE   W96
 BYTE   PEND 
// 001   ----------------------------------------
Label_2_0102C5AD:
 BYTE   N68  Bn1  v100
 BYTE   W72
 BYTE   N21  An1
 BYTE   W24
 BYTE   PEND 
// 002   ----------------------------------------
 BYTE   N92  Gn1
 BYTE   W96
// 003   ----------------------------------------
Label_2_0102C5B8:
 BYTE   N68  Gn1  v100
 BYTE   W72
 BYTE   N21  An1
 BYTE   W24
 BYTE   PEND 
// 004   ----------------------------------------
 BYTE   N92  Bn1
 BYTE   W96
// 005   ----------------------------------------
 BYTE   PATT
  POIN2 Label_2_0102C5AD
// 006   ----------------------------------------
 BYTE   N92  Gn1  v100
 BYTE   W96
// 007   ----------------------------------------
 BYTE   PATT
  POIN2 Label_2_0102C5B8
// 008   ----------------------------------------
 BYTE   N92  Bn1  v100
 BYTE   W96
// 009   ----------------------------------------
 BYTE   N92
 BYTE   W96
// 010   ----------------------------------------
 BYTE   N92
 BYTE   W96
// 011   ----------------------------------------
 BYTE   N44
 BYTE   W48
 BYTE   N21
 BYTE   W24
 BYTE   An1
 BYTE   W24
// 012   ----------------------------------------
 BYTE   N92  Gn1
 BYTE   W96
// 013   ----------------------------------------
Label_2_0102C5E2:
 BYTE   N68  Gn1  v100
 BYTE   W72
 BYTE   N21
 BYTE   W24
 BYTE   PEND 
// 014   ----------------------------------------
 BYTE   N92  Fs1
 BYTE   W96
// 015   ----------------------------------------
 BYTE   PATT
  POIN2 Label_2_0102C5AD
// 016   ----------------------------------------
 BYTE   PATT
  POIN2 Label_2_0102C5E2
// 017   ----------------------------------------
 BYTE   PATT
  POIN2 Label_2_0102C5E2
// 018   ----------------------------------------
 BYTE   N68  Fs1  v100
 BYTE   W72
 BYTE   N21
 BYTE   W24
// 019   ----------------------------------------
 BYTE   PATT
  POIN2 Label_2_0102C5AD
// 020   ----------------------------------------
 BYTE   PATT
  POIN2 Label_2_0102C5E2
// 021   ----------------------------------------
 BYTE   N56  Gn1  v100
 BYTE   W60
 BYTE   N12
 BYTE   W12
 BYTE   An1
 BYTE   W12
 BYTE   Bn1
 BYTE   W12
// 022   ----------------------------------------
 BYTE   N68  An1
 BYTE   W72
 BYTE   N21  Gn1
 BYTE   W24
// 023   ----------------------------------------
 BYTE   N44  Fs1
 BYTE   W48
 BYTE   N21  Cs2
 BYTE   W24
 BYTE   Fs1
 BYTE   W24
// 024   ----------------------------------------
 BYTE   PATT
  POIN2 Label_2_0102C5A2
// 025   ----------------------------------------
 BYTE   GoTo
  POIN2 Label_2_0102C5AD
 BYTE   FINE

//**************** Track 4 (Midi-Chn.3) ****************//

FE07RecollectionofaPetalPsyche_004:
// 000   ----------------------------------------
 BYTE   KEYSH   FE07RecollectionofaPetalPsyche_key+0
Label_3_0102C632:
 BYTE   VOICE   46
 BYTE   VOL   51*FE07RecollectionofaPetalPsyche_mvl/mxv
 BYTE   PAN   c_v+10
 BYTE   N12  Fs2  v108
 BYTE   W12
 BYTE   Bn2
 BYTE   W12
 BYTE   Cs3
 BYTE   W12
 BYTE   N36  Dn3
 BYTE   N36  Fs3
 BYTE   W60
 BYTE   PEND 
// 001   ----------------------------------------
Label_3_0102C646:
 BYTE   N12  Fs2  v108
 BYTE   W12
 BYTE   Bn2
 BYTE   W12
 BYTE   Dn3
 BYTE   W12
 BYTE   N24  Fs3
 BYTE   N24  Bn3
 BYTE   W24
 BYTE   N09  Dn3
 BYTE   W12
 BYTE   Bn2
 BYTE   W12
 BYTE   An2
 BYTE   W12
// 002   ----------------------------------------
Label_3_0102C65A:
 BYTE   N09  Gn2  v108
 BYTE   W12
 BYTE   Bn2
 BYTE   W12
 BYTE   Dn3
 BYTE   W12
 BYTE   N36  Gn3
 BYTE   N36  Bn3
 BYTE   W60
 BYTE   PEND 
// 003   ----------------------------------------
Label_3_0102C668:
 BYTE   N12  Gn2  v108
 BYTE   W12
 BYTE   Bn2
 BYTE   W12
 BYTE   Dn3
 BYTE   W12
 BYTE   Gn3
 BYTE   W12
 BYTE   An3
 BYTE   W12
 BYTE   Gn3
 BYTE   W12
 BYTE   En3
 BYTE   W12
 BYTE   Dn3
 BYTE   W12
 BYTE   PEND 
// 004   ----------------------------------------
Label_3_0102C67B:
 BYTE   N12  Fs2  v108
 BYTE   W12
 BYTE   Bn2
 BYTE   W12
 BYTE   Cs3
 BYTE   W12
 BYTE   N36  Dn3
 BYTE   N36  Fs3
 BYTE   W60
 BYTE   PEND 
// 005   ----------------------------------------
 BYTE   N12  Fs2
 BYTE   W12
 BYTE   Bn2
 BYTE   W12
 BYTE   Dn3
 BYTE   W12
 BYTE   N32  Fs3
 BYTE   N32  Bn3
 BYTE   W36
 BYTE   N12  Bn2
 BYTE   W12
 BYTE   N09  An2
 BYTE   W12
// 006   ----------------------------------------
 BYTE   PATT
  POIN2 Label_3_0102C65A
// 007   ----------------------------------------
 BYTE   PATT
  POIN2 Label_3_0102C668
// 008   ----------------------------------------
 BYTE   PATT
  POIN2 Label_3_0102C67B
// 009   ----------------------------------------
 BYTE   N12  Fs2  v108
 BYTE   W12
 BYTE   Bn2
 BYTE   W12
 BYTE   Cs3
 BYTE   W12
 BYTE   N36  En3
 BYTE   N36  Fs3
 BYTE   W60
// 010   ----------------------------------------
 BYTE   PATT
  POIN2 Label_3_0102C67B
// 011   ----------------------------------------
 BYTE   N12  Fs2  v108
 BYTE   W12
 BYTE   Bn2
 BYTE   W12
 BYTE   Cs3
 BYTE   W12
 BYTE   N24  En3
 BYTE   N24  Fs3
 BYTE   W24
 BYTE   N12
 BYTE   W12
 BYTE   En3
 BYTE   W12
 BYTE   Cs3
 BYTE   W12
// 012   ----------------------------------------
 BYTE   N09  Gn2
 BYTE   W12
 BYTE   N08  Bn2
 BYTE   W12
 BYTE   N09  Dn3
 BYTE   W12
 BYTE   N24  Gn3
 BYTE   W24
 BYTE   N12  Fs3
 BYTE   W12
 BYTE   Dn3
 BYTE   W12
 BYTE   Bn2
 BYTE   W12
// 013   ----------------------------------------
 BYTE   N09  An2
 BYTE   W12
 BYTE   Cs3
 BYTE   W12
 BYTE   En3
 BYTE   W12
 BYTE   N24  An3
 BYTE   W24
 BYTE   N12  En3
 BYTE   W12
 BYTE   Cs3
 BYTE   W12
 BYTE   An2
 BYTE   W12
// 014   ----------------------------------------
 BYTE   N09  Fs2
 BYTE   W12
 BYTE   As2
 BYTE   W12
 BYTE   Cs3
 BYTE   W12
 BYTE   N21  Fs3
 BYTE   W24
 BYTE   N12  Cs3
 BYTE   W12
 BYTE   As2
 BYTE   W12
 BYTE   Fs2
 BYTE   W12
// 015   ----------------------------------------
 BYTE   N12
 BYTE   W12
 BYTE   An2
 BYTE   W12
 BYTE   Cs3
 BYTE   W12
 BYTE   Dn3
 BYTE   W12
 BYTE   Fs3
 BYTE   W12
 BYTE   Dn3
 BYTE   W12
 BYTE   Cs3
 BYTE   W12
 BYTE   An2
 BYTE   W12
// 016   ----------------------------------------
Label_3_0102C714:
 BYTE   N09  Gn2  v108
 BYTE   W12
 BYTE   Bn2
 BYTE   W12
 BYTE   Dn3
 BYTE   W12
 BYTE   Fs3
 BYTE   W12
 BYTE   Gn3
 BYTE   W12
 BYTE   Fs3
 BYTE   W12
 BYTE   Dn3
 BYTE   W12
 BYTE   Bn2
 BYTE   W12
 BYTE   PEND 
// 017   ----------------------------------------
 BYTE   An2
 BYTE   W12
 BYTE   N08  Cs3
 BYTE   W12
 BYTE   N09  En3
 BYTE   W12
 BYTE   An3
 BYTE   W12
 BYTE   Cs4
 BYTE   W12
 BYTE   An3
 BYTE   W12
 BYTE   En3
 BYTE   W12
 BYTE   Cs3
 BYTE   W12
// 018   ----------------------------------------
 BYTE   Fs2
 BYTE   W12
 BYTE   An2
 BYTE   W12
 BYTE   Cs3
 BYTE   W12
 BYTE   En3
 BYTE   W12
 BYTE   An3
 BYTE   W12
 BYTE   En3
 BYTE   W12
 BYTE   Cs3
 BYTE   W12
 BYTE   An2
 BYTE   W12
// 019   ----------------------------------------
 BYTE   Bn2
 BYTE   W12
 BYTE   Dn3
 BYTE   W12
 BYTE   Fs3
 BYTE   W12
 BYTE   Bn3
 BYTE   W12
 BYTE   Dn4
 BYTE   W12
 BYTE   Bn3
 BYTE   W12
 BYTE   Fs3
 BYTE   W12
 BYTE   Dn3
 BYTE   W12
// 020   ----------------------------------------
 BYTE   PATT
  POIN2 Label_3_0102C714
// 021   ----------------------------------------
 BYTE   N09  Gn2  v108
 BYTE   W12
 BYTE   Bn2
 BYTE   W12
 BYTE   Dn3
 BYTE   W12
 BYTE   Fs3
 BYTE   W12
 BYTE   An3
 BYTE   W12
 BYTE   Fs3
 BYTE   W12
 BYTE   Dn3
 BYTE   W12
 BYTE   Bn2
 BYTE   W12
// 022   ----------------------------------------
 BYTE   An2
 BYTE   W12
 BYTE   Cs3
 BYTE   W12
 BYTE   En3
 BYTE   W12
 BYTE   An3
 BYTE   W12
 BYTE   Cs4
 BYTE   W12
 BYTE   An3
 BYTE   W12
 BYTE   En3
 BYTE   W12
 BYTE   Cs3
 BYTE   W12
// 023   ----------------------------------------
 BYTE   As2
 BYTE   W12
 BYTE   Cs3
 BYTE   W12
 BYTE   Gn3
 BYTE   W12
 BYTE   As3
 BYTE   W12
 BYTE   Cs4
 BYTE   W12
 BYTE   As3
 BYTE   W12
 BYTE   Gn3
 BYTE   W12
 BYTE   En3
 BYTE   W12
// 024   ----------------------------------------
 BYTE   PATT
  POIN2 Label_3_0102C632
// 025   ----------------------------------------
 BYTE   GoTo
  POIN2 Label_3_0102C646
 BYTE   FINE

//**************** Track 5 (Midi-Chn.4) ****************//

FE07RecollectionofaPetalPsyche_005:
// 000   ----------------------------------------
 BYTE   KEYSH   FE07RecollectionofaPetalPsyche_key+0
 BYTE   W96
// 001   ----------------------------------------
Label_4_0102C79F:
 BYTE   W96
// 002   ----------------------------------------
 BYTE   W96
// 003   ----------------------------------------
 BYTE   W96
// 004   ----------------------------------------
 BYTE   W96
// 005   ----------------------------------------
 BYTE   W96
// 006   ----------------------------------------
 BYTE   W96
// 007   ----------------------------------------
 BYTE   W96
// 008   ----------------------------------------
 BYTE   VOICE   48
 BYTE   VOL   39*FE07RecollectionofaPetalPsyche_mvl/mxv
 BYTE   PAN   c_v+25
 BYTE   N44  Dn3  v060
 BYTE   W48
 BYTE   N24
 BYTE   W24
 BYTE   Fs3
 BYTE   W24
// 009   ----------------------------------------
 BYTE   N96  Bn2
 BYTE   N48  En3
 BYTE   W48
 BYTE   N44  Cs3
 BYTE   W48
// 010   ----------------------------------------
 BYTE   N96  Bn2
 BYTE   N44  Dn3
 BYTE   W48
 BYTE   N24
 BYTE   W24
 BYTE   Fs3
 BYTE   W24
// 011   ----------------------------------------
 BYTE   N96  Bn2
 BYTE   N24  An3
 BYTE   W24
 BYTE   Gn3
 BYTE   W24
 BYTE   En3
 BYTE   W24
 BYTE   Cs3
 BYTE   W24
// 012   ----------------------------------------
 BYTE   VOICE   68
 BYTE   VOL   55*FE07RecollectionofaPetalPsyche_mvl/mxv
 BYTE   PAN   c_v-10
 BYTE   N56  Bn2  v104
 BYTE   W60
 BYTE   N09
 BYTE   W12
 BYTE   Cs3
 BYTE   W12
 BYTE   Dn3
 BYTE   W12
// 013   ----------------------------------------
 BYTE   N54  En3
 BYTE   W60
 BYTE   N09
 BYTE   W12
 BYTE   Fs3
 BYTE   W12
 BYTE   Gn3
 BYTE   W12
// 014   ----------------------------------------
 BYTE   N56  An3
 BYTE   W60
 BYTE   N09  Gn3
 BYTE   W12
 BYTE   Fs3
 BYTE   W12
 BYTE   En3
 BYTE   W12
// 015   ----------------------------------------
 BYTE   N21
 BYTE   W24
 BYTE   N12  Fs3
 BYTE   W12
 BYTE   N32  Dn3
 BYTE   W36
 BYTE   N21  Cs3
 BYTE   W24
// 016   ----------------------------------------
 BYTE   N66  Bn2
 BYTE   W96
// 017   ----------------------------------------
 BYTE   W96
// 018   ----------------------------------------
 BYTE   W96
// 019   ----------------------------------------
 BYTE   W96
// 020   ----------------------------------------
 BYTE   W96
// 021   ----------------------------------------
 BYTE   W96
// 022   ----------------------------------------
 BYTE   W24
 BYTE   N21  Cs4  v100
 BYTE   W24
 BYTE   Bn3
 BYTE   W24
 BYTE   An3
 BYTE   W24
// 023   ----------------------------------------
 BYTE   N44  Gn3
 BYTE   W48
 BYTE   N21  En3
 BYTE   W24
 BYTE   Gn3
 BYTE   W24
// 024   ----------------------------------------
 BYTE   W96
// 025   ----------------------------------------
 BYTE   GoTo
  POIN2 Label_4_0102C79F
 BYTE   FINE

//**************** Track 6 (Midi-Chn.5) ****************//

FE07RecollectionofaPetalPsyche_006:
// 000   ----------------------------------------
 BYTE   KEYSH   FE07RecollectionofaPetalPsyche_key+0
Label_5_0102C822:
 BYTE   W72
 BYTE   VOICE   60
 BYTE   W06
 BYTE   VOL   51*FE07RecollectionofaPetalPsyche_mvl/mxv
 BYTE   W06
 BYTE   PAN   c_v+15
 BYTE   W12
 BYTE   PEND 
// 001   ----------------------------------------
Label_5_0102C82D:
 BYTE   N92  Dn3  v108
 BYTE   W96
// 002   ----------------------------------------
 BYTE   N48  Bn2
 BYTE   W48
 BYTE   N21  Cs3
 BYTE   W24
 BYTE   Dn3
 BYTE   W24
// 003   ----------------------------------------
 BYTE   N44  Bn2
 BYTE   W48
 BYTE   N21
 BYTE   W24
 BYTE   An2
 BYTE   W24
// 004   ----------------------------------------
 BYTE   N92  Bn2
 BYTE   W96
// 005   ----------------------------------------
 BYTE   N68  Dn3
 BYTE   W72
 BYTE   N21  Cs3
 BYTE   W24
// 006   ----------------------------------------
 BYTE   N92  Bn2
 BYTE   W96
// 007   ----------------------------------------
 BYTE   N68
 BYTE   W72
 BYTE   N21  Cs3
 BYTE   W24
// 008   ----------------------------------------
 BYTE   N96  Dn3
 BYTE   W96
// 009   ----------------------------------------
 BYTE   PATT
  POIN2 Label_5_0102C822
// 010   ----------------------------------------
 BYTE   N92  Dn3  v100
 BYTE   W96
// 011   ----------------------------------------
 BYTE   N44  Cs3
 BYTE   W48
 BYTE   N21  An2
 BYTE   W24
 BYTE   Cs3
 BYTE   W24
// 012   ----------------------------------------
 BYTE   N72  Bn2
 BYTE   W96
// 013   ----------------------------------------
 BYTE   W96
// 014   ----------------------------------------
 BYTE   W96
// 015   ----------------------------------------
 BYTE   W96
// 016   ----------------------------------------
 BYTE   W36
 BYTE   N24  Dn3
 BYTE   W24
 BYTE   N09  Fs3
 BYTE   W12
 BYTE   En3
 BYTE   W12
 BYTE   Dn3
 BYTE   W12
// 017   ----------------------------------------
 BYTE   N32  Cs3
 BYTE   W36
 BYTE   Bn2
 BYTE   W36
 BYTE   N21  An2
 BYTE   W24
// 018   ----------------------------------------
 BYTE   N06  An2  v020
 BYTE   W24
 BYTE   N18  An2  v088
 BYTE   N18  Cs3  v100
 BYTE   W18
 BYTE   N06  Cs3  v020
 BYTE   W06
 BYTE   N18  Cs3  v092
 BYTE   N18  En3  v100
 BYTE   W18
 BYTE   N06  En3  v020
 BYTE   W06
 BYTE   N18  En3  v088
 BYTE   N18  Gn3  v100
 BYTE   W24
// 019   ----------------------------------------
 BYTE   N32  Cs3  v088
 BYTE   N32  En3  v100
 BYTE   W36
 BYTE   N54  Dn3  v088
 BYTE   N54  Fs3  v100
 BYTE   W54
 BYTE   N06  Fs3  v020
 BYTE   W06
// 020   ----------------------------------------
 BYTE   VOICE   48
 BYTE   VOL   34*FE07RecollectionofaPetalPsyche_mvl/mxv
 BYTE   PAN   c_v+25
 BYTE   N92  Dn3  v060
 BYTE   W96
// 021   ----------------------------------------
 BYTE   N96  Fs3
 BYTE   W96
// 022   ----------------------------------------
 BYTE   En3
 BYTE   W96
// 023   ----------------------------------------
 BYTE   N24  Gn3
 BYTE   W24
 BYTE   En3
 BYTE   W24
 BYTE   Cs3
 BYTE   W24
 BYTE   As2
 BYTE   W24
// 024   ----------------------------------------
 BYTE   VOICE   60
 BYTE   W06
 BYTE   VOL   51*FE07RecollectionofaPetalPsyche_mvl/mxv
 BYTE   W06
 BYTE   PAN   c_v+15
 BYTE   W84
// 025   ----------------------------------------
 BYTE   GoTo
  POIN2 Label_5_0102C82D
 BYTE   FINE

//**************** Track 7 (Midi-Chn.6) ****************//

FE07RecollectionofaPetalPsyche_007:
// 000   ----------------------------------------
 BYTE   KEYSH   FE07RecollectionofaPetalPsyche_key+0
 BYTE   VOICE   127
 BYTE   VOL   53*FE07RecollectionofaPetalPsyche_mvl/mxv
 BYTE   PAN   c_v+0
 BYTE   W96
// 001   ----------------------------------------
Label_6_0102C8E1:
 BYTE   W96
// 002   ----------------------------------------
 BYTE   W96
// 003   ----------------------------------------
 BYTE   W96
// 004   ----------------------------------------
 BYTE   W96
// 005   ----------------------------------------
 BYTE   W96
// 006   ----------------------------------------
 BYTE   W96
// 007   ----------------------------------------
 BYTE   W96
// 008   ----------------------------------------
Label_6_0102C8E8:
 BYTE   W48
 BYTE   N12  Bn4  v068
 BYTE   W12
 BYTE   Bn4  v032
 BYTE   W12
 BYTE   Bn4  v008
 BYTE   W12
 BYTE   Bn4  v004
 BYTE   W12
 BYTE   PEND 
// 009   ----------------------------------------
 BYTE   PATT
  POIN2 Label_6_0102C8E8
// 010   ----------------------------------------
 BYTE   PATT
  POIN2 Label_6_0102C8E8
// 011   ----------------------------------------
 BYTE   W78
 BYTE   N54  Fn2  v052
 BYTE   W18
// 012   ----------------------------------------
 BYTE   W96
// 013   ----------------------------------------
 BYTE   W96
// 014   ----------------------------------------
 BYTE   W96
// 015   ----------------------------------------
 BYTE   W78
 BYTE   N54
 BYTE   W18
// 016   ----------------------------------------
 BYTE   W96
// 017   ----------------------------------------
 BYTE   W96
// 018   ----------------------------------------
 BYTE   W96
// 019   ----------------------------------------
 BYTE   W78
 BYTE   N54
 BYTE   W18
// 020   ----------------------------------------
 BYTE   W96
// 021   ----------------------------------------
 BYTE   W96
// 022   ----------------------------------------
 BYTE   W96
// 023   ----------------------------------------
 BYTE   W30
 BYTE   TIE  En2  v068
 BYTE   W66
// 024   ----------------------------------------
 BYTE   W48
 BYTE   EOT
 BYTE   W48
// 025   ----------------------------------------
 BYTE   GoTo
  POIN2 Label_6_0102C8E1
 BYTE   FINE

//******************************************************//
	ALIGN 4

FE07RecollectionofaPetalPsyche:
	BYTE	7	// NumTrks
	BYTE	0	// NumBlks
	BYTE	FE07RecollectionofaPetalPsyche_pri	// Priority
	BYTE	FE07RecollectionofaPetalPsyche_rev	// Reverb.
    
	POIN2	FE07RecollectionofaPetalPsyche_grp
    
	POIN2	FE07RecollectionofaPetalPsyche_001
	POIN2	FE07RecollectionofaPetalPsyche_002
	POIN2	FE07RecollectionofaPetalPsyche_003
	POIN2	FE07RecollectionofaPetalPsyche_004
	POIN2	FE07RecollectionofaPetalPsyche_005
	POIN2	FE07RecollectionofaPetalPsyche_006
	POIN2	FE07RecollectionofaPetalPsyche_007

	
