//Event file generated from Sappy .s format.
	#include "MPlayDef.event"

	#define	FE07ReminiscenceAlice_grp  voicegroup000
	#define	FE07ReminiscenceAlice_pri  10
	#define	FE07ReminiscenceAlice_rev  128
	#define	FE07ReminiscenceAlice_mvl  127
	#define	FE07ReminiscenceAlice_key  0
	#define	FE07ReminiscenceAlice_tbs  1
	#define	FE07ReminiscenceAlice_exg  0
	#define	FE07ReminiscenceAlice_cmp  1

	// .rodata
	//	FE07ReminiscenceAlice
	ALIGN 4


//**************** Track 1 (Midi-Chn.0) ****************//

FE07ReminiscenceAlice_001:
//  #01 //000   ----------------------------------------
 BYTE   KEYSH   FE07ReminiscenceAlice_key+0
 BYTE   TEMPO   188*FE07ReminiscenceAlice_tbs/2
 BYTE   VOICE   10
 BYTE   VOL   50*FE07ReminiscenceAlice_mvl/mxv
 BYTE   PAN   c_v+10
 BYTE   W09
 BYTE   N18  Fn4  v048
 BYTE   W03
Label_01055A63:
 BYTE   N18  Gn4  v048
 BYTE   W03
 BYTE   Gs4
 BYTE   W03
 BYTE   Cn5  v076
 BYTE   W42
 BYTE   Gs4
 BYTE   W48
//  #01 //001   ----------------------------------------
 BYTE   Cn5
 BYTE   W44
 BYTE   W01
 BYTE   Ds4  v048
 BYTE   W03
 BYTE   PEND 
Label_01055A75:
 BYTE   N18  Fn4  v048
 BYTE   W03
 BYTE   Gn4
 BYTE   W03
 BYTE   As4  v076
 BYTE   W90
//  #01 //002   ----------------------------------------
 BYTE   Gn4
 BYTE   W44
 BYTE   W01
 BYTE   Fn4  v048
 BYTE   W03
 BYTE   PEND 
Label_01055A85:
 BYTE   N18  Gn4  v048
 BYTE   W03
 BYTE   Gs4
 BYTE   W03
 BYTE   Cn5  v076
 BYTE   W42
//  #01 //003   ----------------------------------------
 BYTE   Gs4
 BYTE   W48
 BYTE   Cn5
 BYTE   W44
 BYTE   W01
 BYTE   Ds4  v040
 BYTE   W03
 BYTE   PEND 
//  #01 //004   ----------------------------------------
Label_01055A97:
 BYTE   N18  Gn4  v040
 BYTE   W03
 BYTE   As4
 BYTE   W03
 BYTE   Ds5  v076
 BYTE   W66
 BYTE   Gn4  v064
 BYTE   W24
//  #01 //005   ----------------------------------------
 BYTE   As4
 BYTE   W24
 BYTE   Ds5
 BYTE   W21
 BYTE   Fn4  v040
 BYTE   W03
 BYTE   PEND 
Label_01055AAB:
 BYTE   N18  Gn4  v040
 BYTE   W03
 BYTE   Gs4
 BYTE   W03
 BYTE   Cn5  v076
 BYTE   W42
//  #01 //006   ----------------------------------------
 BYTE   Gs4
 BYTE   W48
 BYTE   Cn5
 BYTE   W44
 BYTE   W01
 BYTE   Ds4  v040
 BYTE   W03
 BYTE   PEND 
//  #01 //007   ----------------------------------------
Label_01055ABD:
 BYTE   N18  Fn4  v040
 BYTE   W03
 BYTE   Gn4
 BYTE   W03
 BYTE   As4  v076
 BYTE   W42
 BYTE   Gn4
 BYTE   W48
//  #01 //008   ----------------------------------------
 BYTE   Ds4
 BYTE   W44
 BYTE   W01
 BYTE   Gs3  v040
 BYTE   W03
 BYTE   PEND 
Label_01055ACF:
 BYTE   N18  Cs4  v040
 BYTE   W03
 BYTE   Fn4  v076
 BYTE   W68
//  #01 //009   ----------------------------------------
 BYTE   W01
 BYTE   Cn4  v060
 BYTE   W24
 BYTE   Cs4
 BYTE   W24
 BYTE   Fn4
 BYTE   W24
 BYTE   PEND 
Label_01055ADF:
 BYTE   N18  Gs4  v076
 BYTE   W48
//  #01 //010   ----------------------------------------
 BYTE   Gn4
 BYTE   W48
 BYTE   Ds4
 BYTE   W48
//  #01 //011   ----------------------------------------
 BYTE   Dn4  v048
 BYTE   W03
 BYTE   Fn4  v076
 BYTE   W92
 BYTE   W01
//  #01 //012   ----------------------------------------
 BYTE   N18
 BYTE   W44
 BYTE   W01
 BYTE   Bn3  v048
 BYTE   W03
 BYTE   Dn4
 BYTE   W03
 BYTE   As4  v076
 BYTE   W92
//  #01 //013   ----------------------------------------
 BYTE   W01
 BYTE   Gs4
 BYTE   W48
 BYTE   Ds4  v048
 BYTE   W03
 BYTE   Gn4  v076
 BYTE   W92
//  #01 //014   ----------------------------------------
 BYTE   W01
 BYTE   Fn4
 BYTE   W48
 BYTE   Cn4  v048
 BYTE   W03
 BYTE   Ds4  v076
 BYTE   W96
//  #01 //015   ----------------------------------------
 BYTE   W44
 BYTE   W01
 BYTE   Dn4  v048
 BYTE   W03
 BYTE   Fn4  v076
 BYTE   W44
 BYTE   W01
 BYTE   N18
 BYTE   W48
//  #01 //016   ----------------------------------------
 BYTE   N18
 BYTE   W48
 BYTE   N18
 BYTE   W48
//  #01 //017   ----------------------------------------
 BYTE   Gn4
 BYTE   W48
 BYTE   Gs4
 BYTE   W48
//  #01 //018   ----------------------------------------
 BYTE   Gn4
 BYTE   W72
 BYTE   Fn4  v060
 BYTE   W24
//  #01 //019   ----------------------------------------
 BYTE   As4
 BYTE   W24
 BYTE   Cs5
 BYTE   W21
 BYTE   Fn4  v048
 BYTE   W03
 BYTE   Gn4
 BYTE   W03
 BYTE   Cn5  v076
 BYTE   W68
//  #01 //020   ----------------------------------------
 BYTE   W01
 BYTE   En4  v056
 BYTE   W24
 BYTE   Gn4
 BYTE   W24
 BYTE   Cn5
 BYTE   W24
Label_01055B37:
 BYTE   N18  Cn5  v052
 BYTE   W48
//  #01 //021   ----------------------------------------
 BYTE   Gs4
 BYTE   W48
 BYTE   Cn5
 BYTE   W48
 BYTE   PEND 
//  #01 //022   ----------------------------------------
 BYTE   As4
 BYTE   W96
//  #01 //023   ----------------------------------------
 BYTE   Gn4
 BYTE   W48
//  #01 //024   ----------------------------------------
 BYTE   PATT
  POIN2 Label_01055B37
//  #01 //025   ----------------------------------------
 BYTE   N18  Ds5  v052
 BYTE   W96
//  #01 //026   ----------------------------------------
 BYTE   W48
//  #01 //027   ----------------------------------------
 BYTE   PATT
  POIN2 Label_01055B37
//  #01 //028   ----------------------------------------
 BYTE   N18  As4  v052
 BYTE   W48
 BYTE   Gn4
 BYTE   W48
//  #01 //029   ----------------------------------------
 BYTE   Ds4
 BYTE   W48
 BYTE   Fn4
 BYTE   W96
//  #01 //030   ----------------------------------------
 BYTE   W48
 BYTE   W96
//  #01 //031   ----------------------------------------
 BYTE   W48
 BYTE   N18
 BYTE   W96
//  #01 //032   ----------------------------------------
 BYTE   N18
 BYTE   W48
 BYTE   As4
 BYTE   W96
//  #01 //033   ----------------------------------------
 BYTE   Gs4
 BYTE   W48
 BYTE   Gn4
 BYTE   W96
//  #01 //034   ----------------------------------------
 BYTE   Fn4
 BYTE   W48
 BYTE   Ds4
 BYTE   W96
//  #01 //035   ----------------------------------------
 BYTE   W48
 BYTE   Fn4
 BYTE   W48
//  #01 //036   ----------------------------------------
 BYTE   N18
 BYTE   W48
 BYTE   N18
 BYTE   W48
//  #01 //037   ----------------------------------------
 BYTE   N18
 BYTE   W48
 BYTE   Gn4
 BYTE   W48
//  #01 //038   ----------------------------------------
 BYTE   Gs4
 BYTE   W48
 BYTE   As4
 BYTE   W96
//  #01 //039   ----------------------------------------
 BYTE   W48
 BYTE   Cn5
 BYTE   W96
//  #01 //040   ----------------------------------------
 BYTE   W36
 BYTE   VOICE   10
 BYTE   VOL   50*FE07ReminiscenceAlice_mvl/mxv
 BYTE   PAN   c_v+10
 BYTE   W09
 BYTE   N18  Fn4  v048
 BYTE   W03
//  #01 //041   ----------------------------------------
 BYTE   PATT
  POIN2 Label_01055A63
//  #01 //042   ----------------------------------------
 BYTE   PATT
  POIN2 Label_01055A75
//  #01 //043   ----------------------------------------
 BYTE   PATT
  POIN2 Label_01055A85
//  #01 //044   ----------------------------------------
 BYTE   PATT
  POIN2 Label_01055A97
//  #01 //045   ----------------------------------------
 BYTE   PATT
  POIN2 Label_01055AAB
//  #01 //046   ----------------------------------------
 BYTE   PATT
  POIN2 Label_01055ABD
//  #01 //047   ----------------------------------------
 BYTE   PATT
  POIN2 Label_01055ACF
//  #01 //048   ----------------------------------------
 BYTE   GoTo
  POIN2 Label_01055ADF
 BYTE   FINE

//**************** Track 2 (Midi-Chn.1) ****************//

FE07ReminiscenceAlice_002:
//  #02 //000   ----------------------------------------
 BYTE   KEYSH   FE07ReminiscenceAlice_key+0
 BYTE   W12
Label_0105593B:
 BYTE   VOICE   11
 BYTE   VOL   41*FE07ReminiscenceAlice_mvl/mxv
 BYTE   PAN   c_v-10
 BYTE   N18  Fn3  v068
 BYTE   W24
 BYTE   Cn4
 BYTE   W24
 BYTE   Fn4
 BYTE   W96
 BYTE   PEND 
//  #02 //001   ----------------------------------------
Label_0105594A:
 BYTE   N18  Ds3  v068
 BYTE   W24
 BYTE   As3
 BYTE   W24
 BYTE   Ds4
 BYTE   W96
 BYTE   PEND 
//  #02 //002   ----------------------------------------
Label_01055953:
 BYTE   N18  Fn3  v068
 BYTE   W24
 BYTE   Cn4
 BYTE   W24
 BYTE   Fn4
 BYTE   W96
 BYTE   PEND 
//  #02 //003   ----------------------------------------
 BYTE   PATT
  POIN2 Label_0105594A
//  #02 //004   ----------------------------------------
Label_01055961:
 BYTE   N18  Fn3  v068
 BYTE   W24
 BYTE   Cn4
 BYTE   W24
 BYTE   Fn4
 BYTE   W24
 BYTE   Cn4
 BYTE   W24
//  #02 //005   ----------------------------------------
 BYTE   Fn4
 BYTE   W48
 BYTE   PEND 
Label_0105596E:
 BYTE   N18  Ds3  v068
 BYTE   W24
 BYTE   As3
 BYTE   W24
//  #02 //006   ----------------------------------------
 BYTE   Ds4
 BYTE   W24
 BYTE   As3
 BYTE   W24
 BYTE   Gn3
 BYTE   W48
 BYTE   PEND 
//  #02 //007   ----------------------------------------
Label_0105597B:
 BYTE   N18  Cs3  v068
 BYTE   W24
 BYTE   Fn3
 BYTE   W24
 BYTE   Gs3
 BYTE   W96
 BYTE   PEND 
//  #02 //008   ----------------------------------------
Label_01055984:
 BYTE   W96
//  #02 //009   ----------------------------------------
 BYTE   W44
 BYTE   W01
 BYTE   N18  As3  v068
 BYTE   W03
 BYTE   W24
 BYTE   Fn3
 BYTE   W24
//  #02 //010   ----------------------------------------
 BYTE   As3
 BYTE   W24
 BYTE   Dn4
 BYTE   W24
 BYTE   As3
 BYTE   W24
 BYTE   Gs3
 BYTE   W24
//  #02 //011   ----------------------------------------
 BYTE   Gn3
 BYTE   W24
 BYTE   Dn3
 BYTE   W24
 BYTE   Gn3
 BYTE   W24
 BYTE   Bn3
 BYTE   W24
//  #02 //012   ----------------------------------------
 BYTE   Dn4
 BYTE   W24
 BYTE   Gn3
 BYTE   W21
 BYTE   Cn4
 BYTE   W03
 BYTE   W24
 BYTE   Gn3
 BYTE   W24
//  #02 //013   ----------------------------------------
 BYTE   Ds4
 BYTE   W24
 BYTE   Dn4
 BYTE   W24
 BYTE   Cn4
 BYTE   W24
 BYTE   As3
 BYTE   W21
 BYTE   Gs3
 BYTE   W03
//  #02 //014   ----------------------------------------
 BYTE   W48
 BYTE   Gn3
 BYTE   W48
//  #02 //015   ----------------------------------------
 BYTE   Ds3
 BYTE   W44
 BYTE   W01
 BYTE   Dn3
 BYTE   W03
 BYTE   W24
 BYTE   Fn3
 BYTE   W24
//  #02 //016   ----------------------------------------
 BYTE   Gs3
 BYTE   W24
 BYTE   Dn4
 BYTE   W24
 BYTE   Gs3
 BYTE   W24
 BYTE   Fn3
 BYTE   W24
//  #02 //017   ----------------------------------------
 BYTE   Dn3
 BYTE   W24
 BYTE   Fn3
 BYTE   W24
 BYTE   Gs3
 BYTE   W24
 BYTE   Cn4
 BYTE   W24
//  #02 //018   ----------------------------------------
 BYTE   Dn4
 BYTE   W24
 BYTE   Fn4
 BYTE   W24
 BYTE   Gn3
 BYTE   W24
 BYTE   As3
 BYTE   W24
//  #02 //019   ----------------------------------------
 BYTE   Cs4
 BYTE   W96
//  #02 //020   ----------------------------------------
 BYTE   Gn3
 BYTE   W24
 BYTE   As3
 BYTE   W24
 BYTE   Cn4
 BYTE   W96
//  #02 //021   ----------------------------------------
 BYTE   W96
//  #02 //022   ----------------------------------------
 BYTE   W48
 BYTE   W96
//  #02 //023   ----------------------------------------
 BYTE   W48
 BYTE   W96
//  #02 //024   ----------------------------------------
 BYTE   W48
 BYTE   W96
//  #02 //025   ----------------------------------------
 BYTE   W48
 BYTE   W96
//  #02 //026   ----------------------------------------
 BYTE   W48
 BYTE   W96
//  #02 //027   ----------------------------------------
 BYTE   W48
 BYTE   W96
//  #02 //028   ----------------------------------------
 BYTE   W48
 BYTE   W96
//  #02 //029   ----------------------------------------
 BYTE   W48
 BYTE   W96
//  #02 //030   ----------------------------------------
 BYTE   W48
 BYTE   W96
//  #02 //031   ----------------------------------------
 BYTE   W48
 BYTE   W96
//  #02 //032   ----------------------------------------
 BYTE   W48
 BYTE   W96
//  #02 //033   ----------------------------------------
 BYTE   W48
 BYTE   W96
//  #02 //034   ----------------------------------------
 BYTE   W48
 BYTE   W96
//  #02 //035   ----------------------------------------
 BYTE   W48
 BYTE   W96
//  #02 //036   ----------------------------------------
 BYTE   W48
 BYTE   W96
//  #02 //037   ----------------------------------------
 BYTE   W48
//  #02 //038   ----------------------------------------
 BYTE   PATT
  POIN2 Label_0105593B
//  #02 //039   ----------------------------------------
 BYTE   PATT
  POIN2 Label_0105594A
//  #02 //040   ----------------------------------------
 BYTE   PATT
  POIN2 Label_01055953
//  #02 //041   ----------------------------------------
 BYTE   PATT
  POIN2 Label_0105594A
//  #02 //042   ----------------------------------------
 BYTE   PATT
  POIN2 Label_01055961
//  #02 //043   ----------------------------------------
 BYTE   PATT
  POIN2 Label_0105596E
//  #02 //044   ----------------------------------------
 BYTE   PATT
  POIN2 Label_0105597B
//  #02 //045   ----------------------------------------
 BYTE   GoTo
  POIN2 Label_01055984
 BYTE   FINE

//**************** Track 3 (Midi-Chn.2) ****************//

FE07ReminiscenceAlice_003:
//  #03 //000   ----------------------------------------
 BYTE   KEYSH   FE07ReminiscenceAlice_key+0
 BYTE   W12
 BYTE   W96
//  #03 //001   ----------------------------------------
 BYTE   W48
 BYTE   W96
//  #03 //002   ----------------------------------------
 BYTE   W48
 BYTE   W96
//  #03 //003   ----------------------------------------
 BYTE   W48
 BYTE   W96
//  #03 //004   ----------------------------------------
 BYTE   W48
 BYTE   W96
//  #03 //005   ----------------------------------------
 BYTE   W48
 BYTE   W96
//  #03 //006   ----------------------------------------
 BYTE   W48
 BYTE   W96
//  #03 //007   ----------------------------------------
 BYTE   W48
Label_0105B7C1:
 BYTE   W96
//  #03 //008   ----------------------------------------
 BYTE   W48
 BYTE   W96
//  #03 //009   ----------------------------------------
 BYTE   W48
 BYTE   W96
//  #03 //010   ----------------------------------------
 BYTE   W48
 BYTE   W96
//  #03 //011   ----------------------------------------
 BYTE   W48
 BYTE   W96
//  #03 //012   ----------------------------------------
 BYTE   W48
 BYTE   W96
//  #03 //013   ----------------------------------------
 BYTE   W48
 BYTE   W96
//  #03 //014   ----------------------------------------
 BYTE   W48
 BYTE   W72
//  #03 //015   ----------------------------------------
 BYTE   VOICE   48
 BYTE   W24
 BYTE   PAN   c_v-15
 BYTE   W24
 BYTE   VOL   62*FE07ReminiscenceAlice_mvl/mxv
 BYTE   W23
 BYTE   VOL   62*FE07ReminiscenceAlice_mvl/mxv
 BYTE   W01
 BYTE   VOL   17*FE07ReminiscenceAlice_mvl/mxv
 BYTE   TIE  Cn4  v096
 BYTE   W07
 BYTE   VOL   18*FE07ReminiscenceAlice_mvl/mxv
 BYTE   W05
 BYTE   VOL   18*FE07ReminiscenceAlice_mvl/mxv
 BYTE   W06
 BYTE   VOL   19*FE07ReminiscenceAlice_mvl/mxv
 BYTE   W06
//  #03 //016   ----------------------------------------
 BYTE   VOL   20*FE07ReminiscenceAlice_mvl/mxv
 BYTE   W05
 BYTE   VOL   20*FE07ReminiscenceAlice_mvl/mxv
 BYTE   W04
 BYTE   VOL   21*FE07ReminiscenceAlice_mvl/mxv
 BYTE   W05
 BYTE   VOL   21*FE07ReminiscenceAlice_mvl/mxv
 BYTE   W04
 BYTE   VOL   22*FE07ReminiscenceAlice_mvl/mxv
 BYTE   W04
 BYTE   VOL   23*FE07ReminiscenceAlice_mvl/mxv
 BYTE   W03
 BYTE   VOL   23*FE07ReminiscenceAlice_mvl/mxv
 BYTE   W04
 BYTE   VOL   24*FE07ReminiscenceAlice_mvl/mxv
 BYTE   W02
 BYTE   VOL   24*FE07ReminiscenceAlice_mvl/mxv
 BYTE   W04
 BYTE   VOL   25*FE07ReminiscenceAlice_mvl/mxv
 BYTE   W03
 BYTE   VOL   25*FE07ReminiscenceAlice_mvl/mxv
 BYTE   W02
 BYTE   VOL   26*FE07ReminiscenceAlice_mvl/mxv
 BYTE   W04
 BYTE   VOL   27*FE07ReminiscenceAlice_mvl/mxv
 BYTE   W02
 BYTE   VOL   27*FE07ReminiscenceAlice_mvl/mxv
 BYTE   W02
 BYTE   VOL   28*FE07ReminiscenceAlice_mvl/mxv
 BYTE   W03
 BYTE   VOL   28*FE07ReminiscenceAlice_mvl/mxv
 BYTE   W02
 BYTE   VOL   29*FE07ReminiscenceAlice_mvl/mxv
 BYTE   W02
 BYTE   VOL   30*FE07ReminiscenceAlice_mvl/mxv
 BYTE   W02
 BYTE   VOL   30*FE07ReminiscenceAlice_mvl/mxv
 BYTE   W02
 BYTE   VOL   31*FE07ReminiscenceAlice_mvl/mxv
 BYTE   W02
 BYTE   VOL   31*FE07ReminiscenceAlice_mvl/mxv
 BYTE   W01
 BYTE   VOL   32*FE07ReminiscenceAlice_mvl/mxv
 BYTE   W02
 BYTE   VOL   33*FE07ReminiscenceAlice_mvl/mxv
 BYTE   W02
 BYTE   VOL   33*FE07ReminiscenceAlice_mvl/mxv
 BYTE   W02
 BYTE   VOL   34*FE07ReminiscenceAlice_mvl/mxv
 BYTE   W02
 BYTE   VOL   34*FE07ReminiscenceAlice_mvl/mxv
 BYTE   W02
 BYTE   VOL   35*FE07ReminiscenceAlice_mvl/mxv
 BYTE   W02
 BYTE   VOL   36*FE07ReminiscenceAlice_mvl/mxv
 BYTE   W01
 BYTE   VOL   37*FE07ReminiscenceAlice_mvl/mxv
 BYTE   W02
 BYTE   VOL   38*FE07ReminiscenceAlice_mvl/mxv
 BYTE   W02
 BYTE   VOL   38*FE07ReminiscenceAlice_mvl/mxv
 BYTE   W02
 BYTE   VOL   40*FE07ReminiscenceAlice_mvl/mxv
 BYTE   W02
 BYTE   VOL   40*FE07ReminiscenceAlice_mvl/mxv
 BYTE   W02
 BYTE   VOL   41*FE07ReminiscenceAlice_mvl/mxv
 BYTE   W02
 BYTE   VOL   43*FE07ReminiscenceAlice_mvl/mxv
 BYTE   W01
 BYTE   VOL   44*FE07ReminiscenceAlice_mvl/mxv
 BYTE   W02
 BYTE   VOL   45*FE07ReminiscenceAlice_mvl/mxv
 BYTE   W02
 BYTE   VOL   46*FE07ReminiscenceAlice_mvl/mxv
 BYTE   W02
 BYTE   VOL   47*FE07ReminiscenceAlice_mvl/mxv
 BYTE   W02
//  #03 //017   ----------------------------------------
 BYTE   VOL   49*FE07ReminiscenceAlice_mvl/mxv
 BYTE   W02
 BYTE   VOL   50*FE07ReminiscenceAlice_mvl/mxv
 BYTE   W01
 BYTE   VOL   52*FE07ReminiscenceAlice_mvl/mxv
 BYTE   W02
 BYTE   VOL   54*FE07ReminiscenceAlice_mvl/mxv
 BYTE   W02
 BYTE   VOL   56*FE07ReminiscenceAlice_mvl/mxv
 BYTE   W02
 BYTE   VOL   58*FE07ReminiscenceAlice_mvl/mxv
 BYTE   W01
 BYTE   VOL   59*FE07ReminiscenceAlice_mvl/mxv
 BYTE   W11
 BYTE   EOT
 BYTE   W03
Label_0105B877:
 BYTE   N92  Gs3  v096
 BYTE   W96
//  #03 //018   ----------------------------------------
 BYTE   N44
 BYTE   W48
 BYTE   PEND 
 BYTE   TIE  Gn3
 BYTE   W96
//  #03 //019   ----------------------------------------
 BYTE   W42
 BYTE   EOT
 BYTE   W06
//  #03 //020   ----------------------------------------
 BYTE   PATT
  POIN2 Label_0105B877
//  #03 //021   ----------------------------------------
 BYTE   TIE  As3  v096
 BYTE   W96
//  #03 //022   ----------------------------------------
 BYTE   W42
 BYTE   EOT
 BYTE   W06
//  #03 //023   ----------------------------------------
 BYTE   PATT
  POIN2 Label_0105B877
//  #03 //024   ----------------------------------------
 BYTE   N92  Gn3  v084
 BYTE   W96
//  #03 //025   ----------------------------------------
 BYTE   N44
 BYTE   W48
 BYTE   TIE  Fn3
 BYTE   W96
//  #03 //026   ----------------------------------------
 BYTE   W44
 BYTE   W01
 BYTE   EOT
 BYTE   W03
 BYTE   N48  Fn4  v100
 BYTE   W48
//  #03 //027   ----------------------------------------
 BYTE   Ds4
 BYTE   W48
 BYTE   Cn4
 BYTE   W48
//  #03 //028   ----------------------------------------
 BYTE   N96  Cs4  v096
 BYTE   W96
//  #03 //029   ----------------------------------------
 BYTE   N48  Cn4
 BYTE   W48
 BYTE   N92  As3
 BYTE   W96
//  #03 //030   ----------------------------------------
 BYTE   N48  Gs3
 BYTE   W48
 BYTE   Gn3
 BYTE   W48
//  #03 //031   ----------------------------------------
 BYTE   Cn4
 BYTE   W48
 BYTE   Dn4
 BYTE   W48
//  #03 //032   ----------------------------------------
 BYTE   Ds4  v092
 BYTE   W48
 BYTE   Fn4  v096
 BYTE   W48
//  #03 //033   ----------------------------------------
 BYTE   Gn4  v100
 BYTE   W48
 BYTE   TIE  Fn4  v096
 BYTE   W96
//  #03 //034   ----------------------------------------
 BYTE   W20
 BYTE   VOL   58*FE07ReminiscenceAlice_mvl/mxv
 BYTE   W01
 BYTE   VOL   56*FE07ReminiscenceAlice_mvl/mxv
 BYTE   W01
 BYTE   VOL   55*FE07ReminiscenceAlice_mvl/mxv
 BYTE   W01
 BYTE   VOL   53*FE07ReminiscenceAlice_mvl/mxv
 BYTE   W01
 BYTE   VOL   51*FE07ReminiscenceAlice_mvl/mxv
 BYTE   W01
 BYTE   VOL   50*FE07ReminiscenceAlice_mvl/mxv
 BYTE   W01
 BYTE   VOL   48*FE07ReminiscenceAlice_mvl/mxv
 BYTE   W01
 BYTE   VOL   46*FE07ReminiscenceAlice_mvl/mxv
 BYTE   W01
 BYTE   VOL   45*FE07ReminiscenceAlice_mvl/mxv
 BYTE   W01
 BYTE   VOL   43*FE07ReminiscenceAlice_mvl/mxv
 BYTE   W01
 BYTE   VOL   41*FE07ReminiscenceAlice_mvl/mxv
 BYTE   W01
 BYTE   VOL   40*FE07ReminiscenceAlice_mvl/mxv
 BYTE   W01
 BYTE   VOL   38*FE07ReminiscenceAlice_mvl/mxv
 BYTE   W01
 BYTE   VOL   36*FE07ReminiscenceAlice_mvl/mxv
 BYTE   W01
 BYTE   VOL   34*FE07ReminiscenceAlice_mvl/mxv
 BYTE   W01
 BYTE   VOL   33*FE07ReminiscenceAlice_mvl/mxv
 BYTE   W01
 BYTE   VOL   31*FE07ReminiscenceAlice_mvl/mxv
 BYTE   W01
 BYTE   VOL   29*FE07ReminiscenceAlice_mvl/mxv
 BYTE   W01
 BYTE   VOL   27*FE07ReminiscenceAlice_mvl/mxv
 BYTE   W01
 BYTE   VOL   25*FE07ReminiscenceAlice_mvl/mxv
 BYTE   W01
 BYTE   VOL   24*FE07ReminiscenceAlice_mvl/mxv
 BYTE   W01
 BYTE   VOL   22*FE07ReminiscenceAlice_mvl/mxv
 BYTE   W01
 BYTE   VOL   20*FE07ReminiscenceAlice_mvl/mxv
 BYTE   W03
 BYTE   EOT
 BYTE   W03
 BYTE   VOL   59*FE07ReminiscenceAlice_mvl/mxv
 BYTE   N48  Gs3  v088
 BYTE   W48
//  #03 //035   ----------------------------------------
 BYTE   As3
 BYTE   W48
 BYTE   N44  Cn4
 BYTE   W48
//  #03 //036   ----------------------------------------
 BYTE   N48  Cs4
 BYTE   W48
 BYTE   Fn3
 BYTE   W48
//  #03 //037   ----------------------------------------
 BYTE   N44  Gn3
 BYTE   W48
 BYTE   TIE  As3  v072
 BYTE   TIE  Cn4  v088
 BYTE   W96
//  #03 //038   ----------------------------------------
 BYTE   W14
 BYTE   VOL   58*FE07ReminiscenceAlice_mvl/mxv
 BYTE   W01
 BYTE   VOL   56*FE07ReminiscenceAlice_mvl/mxv
 BYTE   W01
 BYTE   VOL   54*FE07ReminiscenceAlice_mvl/mxv
 BYTE   W01
 BYTE   VOL   51*FE07ReminiscenceAlice_mvl/mxv
 BYTE   W01
 BYTE   VOL   49*FE07ReminiscenceAlice_mvl/mxv
 BYTE   W01
 BYTE   VOL   47*FE07ReminiscenceAlice_mvl/mxv
 BYTE   W01
 BYTE   VOL   44*FE07ReminiscenceAlice_mvl/mxv
 BYTE   W01
 BYTE   VOL   41*FE07ReminiscenceAlice_mvl/mxv
 BYTE   W01
 BYTE   VOL   40*FE07ReminiscenceAlice_mvl/mxv
 BYTE   W01
 BYTE   VOL   37*FE07ReminiscenceAlice_mvl/mxv
 BYTE   W01
 BYTE   VOL   34*FE07ReminiscenceAlice_mvl/mxv
 BYTE   W01
 BYTE   VOL   33*FE07ReminiscenceAlice_mvl/mxv
 BYTE   W01
 BYTE   VOL   30*FE07ReminiscenceAlice_mvl/mxv
 BYTE   W01
 BYTE   VOL   28*FE07ReminiscenceAlice_mvl/mxv
 BYTE   W01
 BYTE   VOL   26*FE07ReminiscenceAlice_mvl/mxv
 BYTE   W01
 BYTE   VOL   23*FE07ReminiscenceAlice_mvl/mxv
 BYTE   W01
 BYTE   VOL   21*FE07ReminiscenceAlice_mvl/mxv
 BYTE   W01
 BYTE   VOL   19*FE07ReminiscenceAlice_mvl/mxv
 BYTE   W01
 BYTE   VOL   17*FE07ReminiscenceAlice_mvl/mxv
 BYTE   W01
 BYTE   VOL   14*FE07ReminiscenceAlice_mvl/mxv
 BYTE   W01
 BYTE   VOL   12*FE07ReminiscenceAlice_mvl/mxv
 BYTE   W01
 BYTE   VOL   10*FE07ReminiscenceAlice_mvl/mxv
 BYTE   W01
 BYTE   EOT
 BYTE   As3  v072
 BYTE   VOL   7*FE07ReminiscenceAlice_mvl/mxv
 BYTE   N12  As3  v024
 BYTE   N12  Cn4
 BYTE   W01
 BYTE   VOL   5*FE07ReminiscenceAlice_mvl/mxv
 BYTE   W01
 BYTE   VOL   2*FE07ReminiscenceAlice_mvl/mxv
 BYTE   W01
 BYTE   VOL   0*FE07ReminiscenceAlice_mvl/mxv
 BYTE   W01
 BYTE   VOL   0*FE07ReminiscenceAlice_mvl/mxv
 BYTE   W07
 BYTE   VOL   75*FE07ReminiscenceAlice_mvl/mxv
 BYTE   W01
 BYTE   W96
//  #03 //039   ----------------------------------------
 BYTE   W48
 BYTE   W96
//  #03 //040   ----------------------------------------
 BYTE   W48
 BYTE   W96
//  #03 //041   ----------------------------------------
 BYTE   W48
 BYTE   W96
//  #03 //042   ----------------------------------------
 BYTE   W48
 BYTE   W96
//  #03 //043   ----------------------------------------
 BYTE   W48
 BYTE   W96
//  #03 //044   ----------------------------------------
 BYTE   W48
 BYTE   W96
//  #03 //045   ----------------------------------------
 BYTE   W48
 BYTE   GoTo
  POIN2 Label_0105B7C1
 BYTE   FINE

//**************** Track 4 (Midi-Chn.3) ****************//

FE07ReminiscenceAlice_004:
//  #04 //000   ----------------------------------------
 BYTE   KEYSH   FE07ReminiscenceAlice_key+0
 BYTE   W12
Label_0106CA37:
 BYTE   VOICE   8
 BYTE   VOL   29*FE07ReminiscenceAlice_mvl/mxv
 BYTE   PAN   c_v-60
 BYTE   W03
 BYTE   N18  Fn4  v020
 BYTE   W03
 BYTE   Gn4
 BYTE   W03
 BYTE   Gs4
 BYTE   W03
 BYTE   Cn5  v052
 BYTE   W42
 BYTE   Gs4
 BYTE   W48
//  #04 //001   ----------------------------------------
 BYTE   Cn5
 BYTE   W42
 BYTE   PEND 
Label_0106CA4E:
 BYTE   W03
 BYTE   N18  Ds4  v020
 BYTE   W03
 BYTE   Fn4
 BYTE   W03
 BYTE   Gn4
 BYTE   W03
 BYTE   As4  v052
 BYTE   W90
//  #04 //002   ----------------------------------------
 BYTE   Gn4
 BYTE   W42
 BYTE   PEND 
Label_0106CA5D:
 BYTE   W03
 BYTE   N18  Fn4  v020
 BYTE   W03
 BYTE   Gn4
 BYTE   W03
 BYTE   Gs4
 BYTE   W03
 BYTE   Cn5  v052
 BYTE   W42
//  #04 //003   ----------------------------------------
 BYTE   Gs4
 BYTE   W48
 BYTE   Cn5
 BYTE   W42
 BYTE   PEND 
Label_0106CA6E:
 BYTE   W03
 BYTE   N18  Ds4  v016
 BYTE   W03
//  #04 //004   ----------------------------------------
 BYTE   Gn4
 BYTE   W03
 BYTE   As4
 BYTE   W03
 BYTE   Ds5  v052
 BYTE   W66
 BYTE   Gn4  v036
 BYTE   W24
//  #04 //005   ----------------------------------------
 BYTE   As4
 BYTE   W24
 BYTE   Ds5
 BYTE   W18
 BYTE   PEND 
Label_0106CA82:
 BYTE   W03
 BYTE   N18  Fn4  v016
 BYTE   W03
 BYTE   Gn4
 BYTE   W03
 BYTE   Gs4
 BYTE   W03
 BYTE   Cn5  v052
 BYTE   W42
//  #04 //006   ----------------------------------------
 BYTE   Gs4
 BYTE   W48
 BYTE   Cn5
 BYTE   W42
 BYTE   PEND 
Label_0106CA93:
 BYTE   W03
 BYTE   N18  Ds4  v016
 BYTE   W03
//  #04 //007   ----------------------------------------
 BYTE   Fn4
 BYTE   W03
 BYTE   Gn4
 BYTE   W03
 BYTE   As4  v052
 BYTE   W42
 BYTE   Gn4
 BYTE   W48
//  #04 //008   ----------------------------------------
 BYTE   Ds4
 BYTE   W42
 BYTE   PEND 
Label_0106CAA4:
 BYTE   W03
 BYTE   N18  Gs3  v016
 BYTE   W03
 BYTE   Cs4
 BYTE   W03
 BYTE   Fn4  v052
 BYTE   W68
//  #04 //009   ----------------------------------------
 BYTE   W01
 BYTE   Cn4  v032
 BYTE   W24
 BYTE   Cs4
 BYTE   W24
 BYTE   Fn4
 BYTE   W18
 BYTE   PEND 
Label_0106CAB7:
 BYTE   W06
 BYTE   N18  Gs4  v052
 BYTE   W48
//  #04 //010   ----------------------------------------
 BYTE   Gn4
 BYTE   W48
 BYTE   Ds4
 BYTE   W42
 BYTE   W06
//  #04 //011   ----------------------------------------
 BYTE   Dn4  v020
 BYTE   W03
 BYTE   Fn4  v052
 BYTE   W92
 BYTE   W01
//  #04 //012   ----------------------------------------
 BYTE   N18
 BYTE   W42
 BYTE   W03
 BYTE   Bn3  v020
 BYTE   W03
 BYTE   Dn4
 BYTE   W03
 BYTE   As4  v052
 BYTE   W92
//  #04 //013   ----------------------------------------
 BYTE   W01
 BYTE   Gs4
 BYTE   W42
 BYTE   W06
 BYTE   Ds4  v020
 BYTE   W03
 BYTE   Gn4  v052
 BYTE   W92
//  #04 //014   ----------------------------------------
 BYTE   W01
 BYTE   Fn4
 BYTE   W42
 BYTE   W06
 BYTE   Cn4  v020
 BYTE   W03
 BYTE   Ds4  v052
 BYTE   W96
//  #04 //015   ----------------------------------------
 BYTE   W36
 BYTE   W03
 BYTE   W06
 BYTE   Dn4  v020
 BYTE   W03
 BYTE   Fn4  v052
 BYTE   W44
 BYTE   W01
 BYTE   N18
 BYTE   W48
//  #04 //016   ----------------------------------------
 BYTE   N18
 BYTE   W42
 BYTE   W06
 BYTE   N18
 BYTE   W48
//  #04 //017   ----------------------------------------
 BYTE   Gn4
 BYTE   W48
 BYTE   Gs4
 BYTE   W42
 BYTE   W06
//  #04 //018   ----------------------------------------
 BYTE   Gn4
 BYTE   W72
 BYTE   Fn4  v036
 BYTE   W24
//  #04 //019   ----------------------------------------
 BYTE   As4
 BYTE   W24
 BYTE   Cs5
 BYTE   W18
 BYTE   W09
 BYTE   Cn5  v052
 BYTE   W68
//  #04 //020   ----------------------------------------
 BYTE   W01
 BYTE   En4  v032
 BYTE   W24
 BYTE   Gn4
 BYTE   W24
 BYTE   Cn5
 BYTE   W18
 BYTE   VOICE   68
 BYTE   VOL   72*FE07ReminiscenceAlice_mvl/mxv
 BYTE   PAN   c_v+11
 BYTE   N48  Cn4  v096
 BYTE   W48
//  #04 //021   ----------------------------------------
 BYTE   Gs3
 BYTE   W48
 BYTE   Cn4
 BYTE   W48
//  #04 //022   ----------------------------------------
 BYTE   N96  As3
 BYTE   W96
//  #04 //023   ----------------------------------------
 BYTE   N44  Gn3
 BYTE   W48
 BYTE   N48  Cn4
 BYTE   W48
//  #04 //024   ----------------------------------------
 BYTE   Gs3
 BYTE   W48
 BYTE   Cn4
 BYTE   W48
//  #04 //025   ----------------------------------------
 BYTE   TIE  Ds4
 BYTE   W96
//  #04 //026   ----------------------------------------
 BYTE   W04
 BYTE   VOL   72*FE07ReminiscenceAlice_mvl/mxv
 BYTE   W01
 BYTE   VOL   70*FE07ReminiscenceAlice_mvl/mxv
 BYTE   W01
 BYTE   VOL   68*FE07ReminiscenceAlice_mvl/mxv
 BYTE   W01
 BYTE   VOL   66*FE07ReminiscenceAlice_mvl/mxv
 BYTE   W01
 BYTE   VOL   63*FE07ReminiscenceAlice_mvl/mxv
 BYTE   W01
 BYTE   VOL   62*FE07ReminiscenceAlice_mvl/mxv
 BYTE   W01
 BYTE   VOL   60*FE07ReminiscenceAlice_mvl/mxv
 BYTE   W01
 BYTE   VOL   57*FE07ReminiscenceAlice_mvl/mxv
 BYTE   W01
 BYTE   VOL   56*FE07ReminiscenceAlice_mvl/mxv
 BYTE   W01
 BYTE   VOL   54*FE07ReminiscenceAlice_mvl/mxv
 BYTE   W01
 BYTE   VOL   51*FE07ReminiscenceAlice_mvl/mxv
 BYTE   W01
 BYTE   VOL   50*FE07ReminiscenceAlice_mvl/mxv
 BYTE   W01
 BYTE   VOL   47*FE07ReminiscenceAlice_mvl/mxv
 BYTE   W01
 BYTE   VOL   46*FE07ReminiscenceAlice_mvl/mxv
 BYTE   W01
 BYTE   VOL   44*FE07ReminiscenceAlice_mvl/mxv
 BYTE   W01
 BYTE   VOL   41*FE07ReminiscenceAlice_mvl/mxv
 BYTE   W01
 BYTE   VOL   39*FE07ReminiscenceAlice_mvl/mxv
 BYTE   W01
 BYTE   VOL   38*FE07ReminiscenceAlice_mvl/mxv
 BYTE   W01
 BYTE   VOL   36*FE07ReminiscenceAlice_mvl/mxv
 BYTE   W01
 BYTE   VOL   33*FE07ReminiscenceAlice_mvl/mxv
 BYTE   W01
 BYTE   EOT
 BYTE   VOL   31*FE07ReminiscenceAlice_mvl/mxv
 BYTE   N24  Ds4  v024
 BYTE   W01
 BYTE   VOL   30*FE07ReminiscenceAlice_mvl/mxv
 BYTE   W01
 BYTE   VOL   27*FE07ReminiscenceAlice_mvl/mxv
 BYTE   W01
 BYTE   VOL   25*FE07ReminiscenceAlice_mvl/mxv
 BYTE   W01
 BYTE   VOL   23*FE07ReminiscenceAlice_mvl/mxv
 BYTE   W01
 BYTE   VOL   21*FE07ReminiscenceAlice_mvl/mxv
 BYTE   W01
 BYTE   VOL   20*FE07ReminiscenceAlice_mvl/mxv
 BYTE   W01
 BYTE   VOL   17*FE07ReminiscenceAlice_mvl/mxv
 BYTE   W01
 BYTE   VOL   15*FE07ReminiscenceAlice_mvl/mxv
 BYTE   W01
 BYTE   VOL   14*FE07ReminiscenceAlice_mvl/mxv
 BYTE   W01
 BYTE   VOL   11*FE07ReminiscenceAlice_mvl/mxv
 BYTE   W01
 BYTE   VOL   9*FE07ReminiscenceAlice_mvl/mxv
 BYTE   W01
 BYTE   VOL   7*FE07ReminiscenceAlice_mvl/mxv
 BYTE   W01
 BYTE   VOL   5*FE07ReminiscenceAlice_mvl/mxv
 BYTE   W01
 BYTE   VOL   3*FE07ReminiscenceAlice_mvl/mxv
 BYTE   W01
 BYTE   VOL   1*FE07ReminiscenceAlice_mvl/mxv
 BYTE   W01
 BYTE   VOL   0*FE07ReminiscenceAlice_mvl/mxv
 BYTE   W08
 BYTE   VOL   72*FE07ReminiscenceAlice_mvl/mxv
 BYTE   N48  Cn4  v096
 BYTE   W48
//  #04 //027   ----------------------------------------
 BYTE   Gs3
 BYTE   W48
 BYTE   Cn4
 BYTE   W48
//  #04 //028   ----------------------------------------
 BYTE   As3
 BYTE   W48
 BYTE   Gn3
 BYTE   W48
//  #04 //029   ----------------------------------------
 BYTE   Ds3
 BYTE   W48
 BYTE   TIE  Fn3
 BYTE   W96
//  #04 //030   ----------------------------------------
 BYTE   W01
 BYTE   VOL   72*FE07ReminiscenceAlice_mvl/mxv
 BYTE   W01
 BYTE   VOL   70*FE07ReminiscenceAlice_mvl/mxv
 BYTE   W01
 BYTE   VOL   69*FE07ReminiscenceAlice_mvl/mxv
 BYTE   W01
 BYTE   VOL   67*FE07ReminiscenceAlice_mvl/mxv
 BYTE   W01
 BYTE   VOL   66*FE07ReminiscenceAlice_mvl/mxv
 BYTE   W01
 BYTE   VOL   64*FE07ReminiscenceAlice_mvl/mxv
 BYTE   W01
 BYTE   VOL   63*FE07ReminiscenceAlice_mvl/mxv
 BYTE   W01
 BYTE   VOL   62*FE07ReminiscenceAlice_mvl/mxv
 BYTE   W01
 BYTE   VOL   60*FE07ReminiscenceAlice_mvl/mxv
 BYTE   W01
 BYTE   VOL   59*FE07ReminiscenceAlice_mvl/mxv
 BYTE   W01
 BYTE   VOL   57*FE07ReminiscenceAlice_mvl/mxv
 BYTE   W01
 BYTE   VOL   56*FE07ReminiscenceAlice_mvl/mxv
 BYTE   W01
 BYTE   VOL   54*FE07ReminiscenceAlice_mvl/mxv
 BYTE   W01
 BYTE   VOL   54*FE07ReminiscenceAlice_mvl/mxv
 BYTE   W01
 BYTE   VOL   53*FE07ReminiscenceAlice_mvl/mxv
 BYTE   W01
 BYTE   VOL   51*FE07ReminiscenceAlice_mvl/mxv
 BYTE   W01
 BYTE   VOL   50*FE07ReminiscenceAlice_mvl/mxv
 BYTE   W01
 BYTE   VOL   49*FE07ReminiscenceAlice_mvl/mxv
 BYTE   W01
 BYTE   VOL   47*FE07ReminiscenceAlice_mvl/mxv
 BYTE   W01
 BYTE   VOL   46*FE07ReminiscenceAlice_mvl/mxv
 BYTE   W01
 BYTE   VOL   44*FE07ReminiscenceAlice_mvl/mxv
 BYTE   W01
 BYTE   VOL   43*FE07ReminiscenceAlice_mvl/mxv
 BYTE   W01
 BYTE   VOL   41*FE07ReminiscenceAlice_mvl/mxv
 BYTE   W01
 BYTE   VOL   40*FE07ReminiscenceAlice_mvl/mxv
 BYTE   W01
 BYTE   VOL   38*FE07ReminiscenceAlice_mvl/mxv
 BYTE   W01
 BYTE   VOL   37*FE07ReminiscenceAlice_mvl/mxv
 BYTE   W01
 BYTE   VOL   36*FE07ReminiscenceAlice_mvl/mxv
 BYTE   W01
 BYTE   VOL   35*FE07ReminiscenceAlice_mvl/mxv
 BYTE   W01
 BYTE   VOL   34*FE07ReminiscenceAlice_mvl/mxv
 BYTE   W01
 BYTE   VOL   32*FE07ReminiscenceAlice_mvl/mxv
 BYTE   W01
 BYTE   VOL   31*FE07ReminiscenceAlice_mvl/mxv
 BYTE   W01
 BYTE   VOL   30*FE07ReminiscenceAlice_mvl/mxv
 BYTE   W01
 BYTE   VOL   28*FE07ReminiscenceAlice_mvl/mxv
 BYTE   W01
 BYTE   VOL   27*FE07ReminiscenceAlice_mvl/mxv
 BYTE   W01
 BYTE   VOL   25*FE07ReminiscenceAlice_mvl/mxv
 BYTE   W01
 BYTE   VOL   24*FE07ReminiscenceAlice_mvl/mxv
 BYTE   W01
 BYTE   VOL   23*FE07ReminiscenceAlice_mvl/mxv
 BYTE   W01
 BYTE   VOL   21*FE07ReminiscenceAlice_mvl/mxv
 BYTE   W01
 BYTE   VOL   20*FE07ReminiscenceAlice_mvl/mxv
 BYTE   W01
 BYTE   VOL   19*FE07ReminiscenceAlice_mvl/mxv
 BYTE   W01
 BYTE   VOL   18*FE07ReminiscenceAlice_mvl/mxv
 BYTE   W01
 BYTE   VOL   16*FE07ReminiscenceAlice_mvl/mxv
 BYTE   W01
 BYTE   VOL   15*FE07ReminiscenceAlice_mvl/mxv
 BYTE   W01
 BYTE   VOL   13*FE07ReminiscenceAlice_mvl/mxv
 BYTE   W01
 BYTE   EOT
 BYTE   VOL   12*FE07ReminiscenceAlice_mvl/mxv
 BYTE   N24  Fn3  v024
 BYTE   W01
 BYTE   VOL   11*FE07ReminiscenceAlice_mvl/mxv
 BYTE   W01
 BYTE   VOL   9*FE07ReminiscenceAlice_mvl/mxv
 BYTE   W01
 BYTE   VOL   8*FE07ReminiscenceAlice_mvl/mxv
 BYTE   W01
 BYTE   VOL   7*FE07ReminiscenceAlice_mvl/mxv
 BYTE   W01
 BYTE   VOL   5*FE07ReminiscenceAlice_mvl/mxv
 BYTE   W01
 BYTE   VOL   4*FE07ReminiscenceAlice_mvl/mxv
 BYTE   W01
 BYTE   VOL   2*FE07ReminiscenceAlice_mvl/mxv
 BYTE   W01
 BYTE   VOL   1*FE07ReminiscenceAlice_mvl/mxv
 BYTE   W01
 BYTE   VOL   0*FE07ReminiscenceAlice_mvl/mxv
 BYTE   W96
//  #04 //031   ----------------------------------------
 BYTE   W42
 BYTE   VOL   50*FE07ReminiscenceAlice_mvl/mxv
 BYTE   N92  Fn3  v096
 BYTE   W02
 BYTE   VOL   51*FE07ReminiscenceAlice_mvl/mxv
 BYTE   W01
 BYTE   VOL   51*FE07ReminiscenceAlice_mvl/mxv
 BYTE   W02
 BYTE   VOL   52*FE07ReminiscenceAlice_mvl/mxv
 BYTE   W01
 BYTE   VOL   53*FE07ReminiscenceAlice_mvl/mxv
 BYTE   W01
 BYTE   VOL   53*FE07ReminiscenceAlice_mvl/mxv
 BYTE   W02
 BYTE   VOL   54*FE07ReminiscenceAlice_mvl/mxv
 BYTE   W01
 BYTE   VOL   54*FE07ReminiscenceAlice_mvl/mxv
 BYTE   W01
 BYTE   VOL   55*FE07ReminiscenceAlice_mvl/mxv
 BYTE   W02
 BYTE   VOL   56*FE07ReminiscenceAlice_mvl/mxv
 BYTE   W01
 BYTE   VOL   56*FE07ReminiscenceAlice_mvl/mxv
 BYTE   W01
 BYTE   VOL   57*FE07ReminiscenceAlice_mvl/mxv
 BYTE   W01
 BYTE   VOL   57*FE07ReminiscenceAlice_mvl/mxv
 BYTE   W02
 BYTE   VOL   58*FE07ReminiscenceAlice_mvl/mxv
 BYTE   W01
 BYTE   VOL   59*FE07ReminiscenceAlice_mvl/mxv
 BYTE   W01
 BYTE   VOL   59*FE07ReminiscenceAlice_mvl/mxv
 BYTE   W02
 BYTE   VOL   60*FE07ReminiscenceAlice_mvl/mxv
 BYTE   W01
 BYTE   VOL   60*FE07ReminiscenceAlice_mvl/mxv
 BYTE   W01
 BYTE   VOL   61*FE07ReminiscenceAlice_mvl/mxv
 BYTE   W02
 BYTE   VOL   62*FE07ReminiscenceAlice_mvl/mxv
 BYTE   W01
 BYTE   VOL   62*FE07ReminiscenceAlice_mvl/mxv
 BYTE   W01
 BYTE   VOL   63*FE07ReminiscenceAlice_mvl/mxv
 BYTE   W01
 BYTE   VOL   63*FE07ReminiscenceAlice_mvl/mxv
 BYTE   W02
 BYTE   VOL   64*FE07ReminiscenceAlice_mvl/mxv
 BYTE   W01
 BYTE   VOL   64*FE07ReminiscenceAlice_mvl/mxv
 BYTE   W01
 BYTE   VOL   65*FE07ReminiscenceAlice_mvl/mxv
 BYTE   W02
 BYTE   VOL   66*FE07ReminiscenceAlice_mvl/mxv
 BYTE   W01
 BYTE   VOL   66*FE07ReminiscenceAlice_mvl/mxv
 BYTE   W01
 BYTE   VOL   67*FE07ReminiscenceAlice_mvl/mxv
 BYTE   W02
 BYTE   VOL   67*FE07ReminiscenceAlice_mvl/mxv
 BYTE   W01
 BYTE   VOL   68*FE07ReminiscenceAlice_mvl/mxv
 BYTE   W01
 BYTE   VOL   69*FE07ReminiscenceAlice_mvl/mxv
 BYTE   W01
 BYTE   VOL   69*FE07ReminiscenceAlice_mvl/mxv
 BYTE   W02
 BYTE   VOL   70*FE07ReminiscenceAlice_mvl/mxv
 BYTE   W01
 BYTE   VOL   70*FE07ReminiscenceAlice_mvl/mxv
 BYTE   W01
 BYTE   VOL   71*FE07ReminiscenceAlice_mvl/mxv
 BYTE   W01
 BYTE   VOL   72*FE07ReminiscenceAlice_mvl/mxv
 BYTE   W48
//  #04 //032   ----------------------------------------
 BYTE   W01
 BYTE   N48
 BYTE   W48
 BYTE   N96  As3
 BYTE   W96
//  #04 //033   ----------------------------------------
 BYTE   N48  Gs3
 BYTE   W48
 BYTE   N90  Gn3
 BYTE   W96
//  #04 //034   ----------------------------------------
 BYTE   N48  Fn3
 BYTE   W48
 BYTE   N96  Ds3
 BYTE   W68
//  #04 //035   ----------------------------------------
 BYTE   W02
 BYTE   VOL   71*FE07ReminiscenceAlice_mvl/mxv
 BYTE   W01
 BYTE   VOL   69*FE07ReminiscenceAlice_mvl/mxv
 BYTE   W01
 BYTE   VOL   68*FE07ReminiscenceAlice_mvl/mxv
 BYTE   W01
 BYTE   VOL   66*FE07ReminiscenceAlice_mvl/mxv
 BYTE   W01
 BYTE   VOL   64*FE07ReminiscenceAlice_mvl/mxv
 BYTE   W01
 BYTE   VOL   63*FE07ReminiscenceAlice_mvl/mxv
 BYTE   W01
 BYTE   VOL   61*FE07ReminiscenceAlice_mvl/mxv
 BYTE   W01
 BYTE   VOL   59*FE07ReminiscenceAlice_mvl/mxv
 BYTE   W01
 BYTE   VOL   57*FE07ReminiscenceAlice_mvl/mxv
 BYTE   W01
 BYTE   VOL   56*FE07ReminiscenceAlice_mvl/mxv
 BYTE   W01
 BYTE   VOL   54*FE07ReminiscenceAlice_mvl/mxv
 BYTE   W01
 BYTE   VOL   53*FE07ReminiscenceAlice_mvl/mxv
 BYTE   W01
 BYTE   VOL   50*FE07ReminiscenceAlice_mvl/mxv
 BYTE   W01
 BYTE   VOL   49*FE07ReminiscenceAlice_mvl/mxv
 BYTE   W01
 BYTE   VOL   47*FE07ReminiscenceAlice_mvl/mxv
 BYTE   W01
 BYTE   VOL   45*FE07ReminiscenceAlice_mvl/mxv
 BYTE   W01
 BYTE   VOL   43*FE07ReminiscenceAlice_mvl/mxv
 BYTE   W01
 BYTE   VOL   42*FE07ReminiscenceAlice_mvl/mxv
 BYTE   W01
 BYTE   VOL   40*FE07ReminiscenceAlice_mvl/mxv
 BYTE   W01
 BYTE   VOL   38*FE07ReminiscenceAlice_mvl/mxv
 BYTE   W01
 BYTE   VOL   37*FE07ReminiscenceAlice_mvl/mxv
 BYTE   W01
 BYTE   VOL   35*FE07ReminiscenceAlice_mvl/mxv
 BYTE   W01
 BYTE   VOL   33*FE07ReminiscenceAlice_mvl/mxv
 BYTE   W01
 BYTE   VOL   31*FE07ReminiscenceAlice_mvl/mxv
 BYTE   W01
 BYTE   VOL   30*FE07ReminiscenceAlice_mvl/mxv
 BYTE   W01
 BYTE   VOL   28*FE07ReminiscenceAlice_mvl/mxv
 BYTE   W01
 BYTE   VOL   27*FE07ReminiscenceAlice_mvl/mxv
 BYTE   N24  Ds3  v024
 BYTE   W01
 BYTE   VOL   24*FE07ReminiscenceAlice_mvl/mxv
 BYTE   W01
 BYTE   VOL   23*FE07ReminiscenceAlice_mvl/mxv
 BYTE   W01
 BYTE   VOL   21*FE07ReminiscenceAlice_mvl/mxv
 BYTE   W01
 BYTE   VOL   19*FE07ReminiscenceAlice_mvl/mxv
 BYTE   W01
 BYTE   VOL   17*FE07ReminiscenceAlice_mvl/mxv
 BYTE   W01
 BYTE   VOL   16*FE07ReminiscenceAlice_mvl/mxv
 BYTE   W01
 BYTE   VOL   14*FE07ReminiscenceAlice_mvl/mxv
 BYTE   W01
 BYTE   VOL   12*FE07ReminiscenceAlice_mvl/mxv
 BYTE   W01
 BYTE   VOL   11*FE07ReminiscenceAlice_mvl/mxv
 BYTE   W01
 BYTE   VOL   9*FE07ReminiscenceAlice_mvl/mxv
 BYTE   W01
 BYTE   VOL   7*FE07ReminiscenceAlice_mvl/mxv
 BYTE   W01
 BYTE   VOL   5*FE07ReminiscenceAlice_mvl/mxv
 BYTE   W01
 BYTE   VOL   4*FE07ReminiscenceAlice_mvl/mxv
 BYTE   W01
 BYTE   VOL   2*FE07ReminiscenceAlice_mvl/mxv
 BYTE   W01
 BYTE   VOL   1*FE07ReminiscenceAlice_mvl/mxv
 BYTE   W01
 BYTE   VOL   0*FE07ReminiscenceAlice_mvl/mxv
 BYTE   W32
 BYTE   VOL   72*FE07ReminiscenceAlice_mvl/mxv
 BYTE   N44  Fn3  v096
 BYTE   W48
//  #04 //036   ----------------------------------------
 BYTE   N44
 BYTE   W48
 BYTE   N44
 BYTE   W48
//  #04 //037   ----------------------------------------
 BYTE   N48
 BYTE   W48
 BYTE   Gn3
 BYTE   W48
//  #04 //038   ----------------------------------------
 BYTE   Gs3
 BYTE   W48
 BYTE   TIE  As3
 BYTE   W96
//  #04 //039   ----------------------------------------
 BYTE   W42
 BYTE   EOT
 BYTE   W06
 BYTE   TIE  Cn4
 BYTE   W92
//  #04 //040   ----------------------------------------
 BYTE   W02
 BYTE   VOL   72*FE07ReminiscenceAlice_mvl/mxv
 BYTE   W01
 BYTE   VOL   70*FE07ReminiscenceAlice_mvl/mxv
 BYTE   W01
 BYTE   VOL   68*FE07ReminiscenceAlice_mvl/mxv
 BYTE   W01
 BYTE   VOL   66*FE07ReminiscenceAlice_mvl/mxv
 BYTE   W01
 BYTE   VOL   63*FE07ReminiscenceAlice_mvl/mxv
 BYTE   W01
 BYTE   VOL   62*FE07ReminiscenceAlice_mvl/mxv
 BYTE   W01
 BYTE   VOL   59*FE07ReminiscenceAlice_mvl/mxv
 BYTE   W01
 BYTE   VOL   57*FE07ReminiscenceAlice_mvl/mxv
 BYTE   W01
 BYTE   VOL   56*FE07ReminiscenceAlice_mvl/mxv
 BYTE   W01
 BYTE   VOL   53*FE07ReminiscenceAlice_mvl/mxv
 BYTE   W01
 BYTE   VOL   51*FE07ReminiscenceAlice_mvl/mxv
 BYTE   W01
 BYTE   VOL   49*FE07ReminiscenceAlice_mvl/mxv
 BYTE   W01
 BYTE   VOL   47*FE07ReminiscenceAlice_mvl/mxv
 BYTE   W01
 BYTE   VOL   44*FE07ReminiscenceAlice_mvl/mxv
 BYTE   W01
 BYTE   VOL   43*FE07ReminiscenceAlice_mvl/mxv
 BYTE   W01
 BYTE   VOL   40*FE07ReminiscenceAlice_mvl/mxv
 BYTE   W01
 BYTE   VOL   38*FE07ReminiscenceAlice_mvl/mxv
 BYTE   W01
 BYTE   VOL   37*FE07ReminiscenceAlice_mvl/mxv
 BYTE   W01
 BYTE   VOL   34*FE07ReminiscenceAlice_mvl/mxv
 BYTE   W01
 BYTE   VOL   32*FE07ReminiscenceAlice_mvl/mxv
 BYTE   W01
 BYTE   VOL   30*FE07ReminiscenceAlice_mvl/mxv
 BYTE   W01
 BYTE   VOL   28*FE07ReminiscenceAlice_mvl/mxv
 BYTE   W01
 BYTE   VOL   25*FE07ReminiscenceAlice_mvl/mxv
 BYTE   W01
 BYTE   VOL   24*FE07ReminiscenceAlice_mvl/mxv
 BYTE   W01
 BYTE   VOL   21*FE07ReminiscenceAlice_mvl/mxv
 BYTE   W01
 BYTE   VOL   19*FE07ReminiscenceAlice_mvl/mxv
 BYTE   W01
 BYTE   EOT
 BYTE   VOL   18*FE07ReminiscenceAlice_mvl/mxv
 BYTE   N21  Cn4  v024
 BYTE   W01
 BYTE   VOL   15*FE07ReminiscenceAlice_mvl/mxv
 BYTE   W01
 BYTE   VOL   13*FE07ReminiscenceAlice_mvl/mxv
 BYTE   W01
 BYTE   VOL   11*FE07ReminiscenceAlice_mvl/mxv
 BYTE   W01
 BYTE   VOL   9*FE07ReminiscenceAlice_mvl/mxv
 BYTE   W01
 BYTE   VOL   7*FE07ReminiscenceAlice_mvl/mxv
 BYTE   W01
 BYTE   VOL   5*FE07ReminiscenceAlice_mvl/mxv
 BYTE   W01
 BYTE   VOL   2*FE07ReminiscenceAlice_mvl/mxv
 BYTE   W01
 BYTE   VOL   0*FE07ReminiscenceAlice_mvl/mxv
 BYTE   W01
 BYTE   VOL   0*FE07ReminiscenceAlice_mvl/mxv
 BYTE   W14
 BYTE   VOL   75*FE07ReminiscenceAlice_mvl/mxv
 BYTE   W01
//  #04 //041   ----------------------------------------
 BYTE   PATT
  POIN2 Label_0106CA37
//  #04 //042   ----------------------------------------
 BYTE   PATT
  POIN2 Label_0106CA4E
//  #04 //043   ----------------------------------------
 BYTE   PATT
  POIN2 Label_0106CA5D
//  #04 //044   ----------------------------------------
 BYTE   PATT
  POIN2 Label_0106CA6E
//  #04 //045   ----------------------------------------
 BYTE   PATT
  POIN2 Label_0106CA82
//  #04 //046   ----------------------------------------
 BYTE   PATT
  POIN2 Label_0106CA93
//  #04 //047   ----------------------------------------
 BYTE   PATT
  POIN2 Label_0106CAA4
//  #04 //048   ----------------------------------------
 BYTE   GoTo
  POIN2 Label_0106CAB7
 BYTE   FINE

//**************** Track 5 (Midi-Chn.4) ****************//

FE07ReminiscenceAlice_005:
//  #05 //000   ----------------------------------------
 BYTE   KEYSH   FE07ReminiscenceAlice_key+0
 BYTE   W12
 BYTE   W96
//  #05 //001   ----------------------------------------
 BYTE   W48
 BYTE   W96
//  #05 //002   ----------------------------------------
 BYTE   W48
 BYTE   W96
//  #05 //003   ----------------------------------------
 BYTE   W48
 BYTE   W96
//  #05 //004   ----------------------------------------
 BYTE   W48
 BYTE   W96
//  #05 //005   ----------------------------------------
 BYTE   W48
 BYTE   W96
//  #05 //006   ----------------------------------------
 BYTE   W48
 BYTE   W96
//  #05 //007   ----------------------------------------
 BYTE   W48
Label_01055CA5:
 BYTE   W96
//  #05 //008   ----------------------------------------
 BYTE   W48
 BYTE   W96
//  #05 //009   ----------------------------------------
 BYTE   W48
 BYTE   W96
//  #05 //010   ----------------------------------------
 BYTE   W48
 BYTE   W96
//  #05 //011   ----------------------------------------
 BYTE   W48
 BYTE   W96
//  #05 //012   ----------------------------------------
 BYTE   W48
 BYTE   W96
//  #05 //013   ----------------------------------------
 BYTE   W48
 BYTE   W96
//  #05 //014   ----------------------------------------
 BYTE   W48
 BYTE   W96
//  #05 //015   ----------------------------------------
 BYTE   W48
 BYTE   W72
//  #05 //016   ----------------------------------------
 BYTE   VOICE   35
 BYTE   W24
 BYTE   VOL   53*FE07ReminiscenceAlice_mvl/mxv
 BYTE   W24
 BYTE   PAN   c_v+0
 BYTE   W24
Label_01055CBF:
 BYTE   N92  Fn2  v096
 BYTE   W96
//  #05 //017   ----------------------------------------
 BYTE   N44
 BYTE   W48
 BYTE   PEND 
 BYTE   TIE  Ds2
 BYTE   W96
//  #05 //018   ----------------------------------------
 BYTE   W48
 BYTE   EOT
 BYTE   N92  Fn2
 BYTE   W96
//  #05 //019   ----------------------------------------
 BYTE   N48
 BYTE   W48
 BYTE   TIE  Gn2
 BYTE   W96
//  #05 //020   ----------------------------------------
 BYTE   W42
 BYTE   EOT
 BYTE   W06
//  #05 //021   ----------------------------------------
 BYTE   PATT
  POIN2 Label_01055CBF
//  #05 //022   ----------------------------------------
 BYTE   N92  Ds2  v096
 BYTE   W96
//  #05 //023   ----------------------------------------
 BYTE   N44
 BYTE   W48
 BYTE   N92  Cs2
 BYTE   W96
//  #05 //024   ----------------------------------------
 BYTE   N44
 BYTE   W48
 BYTE   Cs3
 BYTE   W48
//  #05 //025   ----------------------------------------
 BYTE   Cn3
 BYTE   W48
 BYTE   Gs2
 BYTE   W48
//  #05 //026   ----------------------------------------
 BYTE   N92  As2
 BYTE   W96
//  #05 //027   ----------------------------------------
 BYTE   N44  Gs2
 BYTE   W48
Label_01055CF2:
 BYTE   N92  Gn2  v096
 BYTE   W96
//  #05 //028   ----------------------------------------
 BYTE   N44
 BYTE   W48
 BYTE   PEND 
 BYTE   N92  Cn3
 BYTE   W96
//  #05 //029   ----------------------------------------
 BYTE   N44  As2
 BYTE   W48
 BYTE   N48  Gs2
 BYTE   W48
//  #05 //030   ----------------------------------------
 BYTE   Gn2
 BYTE   W48
 BYTE   Ds2
 BYTE   W48
//  #05 //031   ----------------------------------------
 BYTE   N92  Dn2
 BYTE   W96
//  #05 //032   ----------------------------------------
 BYTE   N44
 BYTE   W48
 BYTE   N92
 BYTE   W96
//  #05 //033   ----------------------------------------
 BYTE   N44  Fn2
 BYTE   W48
//  #05 //034   ----------------------------------------
 BYTE   PATT
  POIN2 Label_01055CF2
//  #05 //035   ----------------------------------------
 BYTE   N48  Cn3  v096
 BYTE   W48
 BYTE   N44  Gn2
 BYTE   W48
//  #05 //036   ----------------------------------------
 BYTE   Cn2
 BYTE   W48
 BYTE   W96
//  #05 //037   ----------------------------------------
 BYTE   W48
 BYTE   W96
//  #05 //038   ----------------------------------------
 BYTE   W48
 BYTE   W96
//  #05 //039   ----------------------------------------
 BYTE   W48
 BYTE   W96
//  #05 //040   ----------------------------------------
 BYTE   W48
 BYTE   W96
//  #05 //041   ----------------------------------------
 BYTE   W48
 BYTE   W96
//  #05 //042   ----------------------------------------
 BYTE   W48
 BYTE   W96
//  #05 //043   ----------------------------------------
 BYTE   W48
 BYTE   GoTo
  POIN2 Label_01055CA5
 BYTE   FINE

//**************** Track 6 (Midi-Chn.5) ****************//

FE07ReminiscenceAlice_006:
//  #06 //000   ----------------------------------------
 BYTE   KEYSH   FE07ReminiscenceAlice_key+0
 BYTE   W12
 BYTE   W96
//  #06 //001   ----------------------------------------
 BYTE   W48
 BYTE   W96
//  #06 //002   ----------------------------------------
 BYTE   W48
 BYTE   W96
//  #06 //003   ----------------------------------------
 BYTE   W48
 BYTE   W96
//  #06 //004   ----------------------------------------
 BYTE   W48
 BYTE   W96
//  #06 //005   ----------------------------------------
 BYTE   W48
 BYTE   W96
//  #06 //006   ----------------------------------------
 BYTE   W48
 BYTE   W96
//  #06 //007   ----------------------------------------
 BYTE   W48
Label_01055D91:
 BYTE   W96
//  #06 //008   ----------------------------------------
 BYTE   W48
 BYTE   W96
//  #06 //009   ----------------------------------------
 BYTE   W48
 BYTE   W96
//  #06 //010   ----------------------------------------
 BYTE   W48
 BYTE   W96
//  #06 //011   ----------------------------------------
 BYTE   W48
 BYTE   W96
//  #06 //012   ----------------------------------------
 BYTE   W48
 BYTE   W96
//  #06 //013   ----------------------------------------
 BYTE   W48
 BYTE   W96
//  #06 //014   ----------------------------------------
 BYTE   W48
 BYTE   W96
//  #06 //015   ----------------------------------------
 BYTE   W48
 BYTE   W72
//  #06 //016   ----------------------------------------
 BYTE   VOICE   46
 BYTE   W24
 BYTE   VOL   53*FE07ReminiscenceAlice_mvl/mxv
 BYTE   W24
 BYTE   PAN   c_v-20
 BYTE   W24
 BYTE   N24  Fn2  v096
 BYTE   W24
//  #06 //017   ----------------------------------------
 BYTE   Cn3
 BYTE   W24
 BYTE   Fn3
 BYTE   W24
 BYTE   Gs3
 BYTE   W24
 BYTE   Cn4
 BYTE   W24
//  #06 //018   ----------------------------------------
 BYTE   Cn4  v024
 BYTE   W24
 BYTE   Ds2  v096
 BYTE   W24
 BYTE   As2
 BYTE   W24
 BYTE   Ds3
 BYTE   W24
//  #06 //019   ----------------------------------------
 BYTE   Gn3
 BYTE   W24
 BYTE   As3
 BYTE   W24
 BYTE   As3  v024
 BYTE   W24
Label_01055DC8:
 BYTE   N24  Fn2  v096
 BYTE   W24
//  #06 //020   ----------------------------------------
 BYTE   Cn3
 BYTE   W24
 BYTE   Fn3
 BYTE   W24
 BYTE   Gs3
 BYTE   W24
 BYTE   Cn4
 BYTE   W24
//  #06 //021   ----------------------------------------
 BYTE   Fn4
 BYTE   W24
 BYTE   PEND 
Label_01055DD7:
 BYTE   N24  Ds2  v096
 BYTE   W24
 BYTE   As2
 BYTE   W24
 BYTE   Ds3
 BYTE   W24
//  #06 //022   ----------------------------------------
 BYTE   Gn3
 BYTE   W24
 BYTE   As3
 BYTE   W24
 BYTE   Ds4
 BYTE   W24
 BYTE   PEND 
//  #06 //023   ----------------------------------------
 BYTE   PATT
  POIN2 Label_01055DC8
//  #06 //024   ----------------------------------------
 BYTE   PATT
  POIN2 Label_01055DD7
//  #06 //025   ----------------------------------------
 BYTE   N24  Cs2  v096
 BYTE   W24
 BYTE   Gs2
 BYTE   W24
 BYTE   Cs3
 BYTE   W24
 BYTE   Fn3
 BYTE   W24
//  #06 //026   ----------------------------------------
 BYTE   Gs3
 BYTE   W24
 BYTE   Cs4
 BYTE   W24
 BYTE   Fn4
 BYTE   W24
 BYTE   Cs4
 BYTE   W24
//  #06 //027   ----------------------------------------
 BYTE   Cn4
 BYTE   W24
 BYTE   Gs3
 BYTE   W24
 BYTE   Ds3
 BYTE   W24
 BYTE   Cn3
 BYTE   W24
//  #06 //028   ----------------------------------------
 BYTE   Cs3
 BYTE   W24
 BYTE   Fn3
 BYTE   W24
 BYTE   Gs3
 BYTE   W24
 BYTE   Cs4
 BYTE   W24
//  #06 //029   ----------------------------------------
 BYTE   Fn4
 BYTE   W24
 BYTE   Fn3
 BYTE   W24
 BYTE   Gn3
 BYTE   W24
 BYTE   Bn3
 BYTE   W24
//  #06 //030   ----------------------------------------
 BYTE   Dn4
 BYTE   W24
 BYTE   Fn4
 BYTE   W24
 BYTE   Dn4
 BYTE   W24
 BYTE   Bn3
 BYTE   W24
//  #06 //031   ----------------------------------------
 BYTE   Gn3
 BYTE   W24
 BYTE   Cn4
 BYTE   W24
 BYTE   Ds4
 BYTE   W24
 BYTE   Cn4
 BYTE   W24
//  #06 //032   ----------------------------------------
 BYTE   Gn3
 BYTE   W24
 BYTE   Fn3
 BYTE   W24
 BYTE   Ds3
 BYTE   W24
 BYTE   Gn3
 BYTE   W24
//  #06 //033   ----------------------------------------
 BYTE   Cn4
 BYTE   W24
 BYTE   Dn4
 BYTE   W24
 BYTE   Ds4
 BYTE   W24
 BYTE   Gn4
 BYTE   W24
//  #06 //034   ----------------------------------------
 BYTE   Dn3
 BYTE   W24
 BYTE   Fn3
 BYTE   W24
 BYTE   Gs3
 BYTE   W24
 BYTE   Dn4
 BYTE   W24
//  #06 //035   ----------------------------------------
 BYTE   Gs3
 BYTE   W24
 BYTE   Fn3
 BYTE   W24
 BYTE   Dn3
 BYTE   W24
 BYTE   Fn3
 BYTE   W24
//  #06 //036   ----------------------------------------
 BYTE   Gs3
 BYTE   W24
 BYTE   Cn4
 BYTE   W24
 BYTE   Dn4
 BYTE   W24
 BYTE   Fn4
 BYTE   W24
//  #06 //037   ----------------------------------------
 BYTE   Gn2
 BYTE   W24
 BYTE   As2
 BYTE   W24
 BYTE   Cs3
 BYTE   W24
 BYTE   Fn3
 BYTE   W24
//  #06 //038   ----------------------------------------
 BYTE   Gn3
 BYTE   W24
 BYTE   As3
 BYTE   W24
 BYTE   Gn2
 BYTE   W24
 BYTE   As2
 BYTE   W24
//  #06 //039   ----------------------------------------
 BYTE   Cn3
 BYTE   W24
 BYTE   En3
 BYTE   W24
 BYTE   Gn3
 BYTE   W24
 BYTE   Cn4
 BYTE   W24
//  #06 //040   ----------------------------------------
 BYTE   W96
//  #06 //041   ----------------------------------------
 BYTE   W48
 BYTE   W96
//  #06 //042   ----------------------------------------
 BYTE   W48
 BYTE   W96
//  #06 //043   ----------------------------------------
 BYTE   W48
 BYTE   W96
//  #06 //044   ----------------------------------------
 BYTE   W48
 BYTE   W96
//  #06 //045   ----------------------------------------
 BYTE   W48
 BYTE   W96
//  #06 //046   ----------------------------------------
 BYTE   W48
 BYTE   W96
//  #06 //047   ----------------------------------------
 BYTE   W48
 BYTE   GoTo
  POIN2 Label_01055D91
 BYTE   FINE

//**************** Track 7 (Midi-Chn.6) ****************//

FE07ReminiscenceAlice_007:
//  #07 //000   ----------------------------------------
 BYTE   KEYSH   FE07ReminiscenceAlice_key+0
 BYTE   W12
 BYTE   W96
//  #07 //001   ----------------------------------------
 BYTE   W48
 BYTE   W96
//  #07 //002   ----------------------------------------
 BYTE   W48
 BYTE   W96
//  #07 //003   ----------------------------------------
 BYTE   W48
 BYTE   W96
//  #07 //004   ----------------------------------------
 BYTE   W48
 BYTE   W96
//  #07 //005   ----------------------------------------
 BYTE   W48
 BYTE   W96
//  #07 //006   ----------------------------------------
 BYTE   W48
 BYTE   W96
//  #07 //007   ----------------------------------------
 BYTE   W48
Label_01055ED9:
 BYTE   W96
//  #07 //008   ----------------------------------------
 BYTE   W48
 BYTE   W96
//  #07 //009   ----------------------------------------
 BYTE   W48
 BYTE   W96
//  #07 //010   ----------------------------------------
 BYTE   W48
 BYTE   W96
//  #07 //011   ----------------------------------------
 BYTE   W48
 BYTE   W96
//  #07 //012   ----------------------------------------
 BYTE   W48
 BYTE   W96
//  #07 //013   ----------------------------------------
 BYTE   W48
 BYTE   W96
//  #07 //014   ----------------------------------------
 BYTE   W48
 BYTE   W96
//  #07 //015   ----------------------------------------
 BYTE   W48
 BYTE   W72
//  #07 //016   ----------------------------------------
 BYTE   VOICE   71
 BYTE   W24
 BYTE   VOL   47*FE07ReminiscenceAlice_mvl/mxv
 BYTE   W24
 BYTE   PAN   c_v+15
 BYTE   W24
Label_01055EF3:
 BYTE   N92  Cn3  v080
 BYTE   W96
//  #07 //017   ----------------------------------------
 BYTE   N44
 BYTE   W48
 BYTE   PEND 
 BYTE   TIE  As2
 BYTE   W96
//  #07 //018   ----------------------------------------
 BYTE   W44
 BYTE   W01
 BYTE   EOT
 BYTE   W03
 BYTE   N92  Cn3
 BYTE   W96
//  #07 //019   ----------------------------------------
 BYTE   N48
 BYTE   W48
 BYTE   TIE  Ds3
 BYTE   W96
//  #07 //020   ----------------------------------------
 BYTE   W42
 BYTE   EOT
 BYTE   W06
//  #07 //021   ----------------------------------------
 BYTE   PATT
  POIN2 Label_01055EF3
//  #07 //022   ----------------------------------------
 BYTE   N92  As2  v080
 BYTE   W96
//  #07 //023   ----------------------------------------
 BYTE   N44
 BYTE   W48
 BYTE   TIE  Gs2
 BYTE   W96
//  #07 //024   ----------------------------------------
 BYTE   W48
 BYTE   W96
//  #07 //025   ----------------------------------------
 BYTE   W24
 BYTE   EOT
 BYTE   N24  Gs2  v024
 BYTE   W24
 BYTE   N92  As2  v080
 BYTE   W96
//  #07 //026   ----------------------------------------
 BYTE   N44  Gs2
 BYTE   W48
 BYTE   N92  Bn2
 BYTE   W96
//  #07 //027   ----------------------------------------
 BYTE   N48  Dn3
 BYTE   W48
 BYTE   N96  Ds3
 BYTE   W96
//  #07 //028   ----------------------------------------
 BYTE   N48  Dn3
 BYTE   W48
 BYTE   N90  Cn3
 BYTE   W96
//  #07 //029   ----------------------------------------
 BYTE   N48  As2
 BYTE   W48
 BYTE   N92  Gs2
 BYTE   W96
//  #07 //030   ----------------------------------------
 BYTE   N48  Cn3
 BYTE   W48
 BYTE   TIE  Dn3
 BYTE   W96
//  #07 //031   ----------------------------------------
 BYTE   W44
 BYTE   W01
 BYTE   EOT
 BYTE   W03
 BYTE   N90  Fn3
 BYTE   W96
//  #07 //032   ----------------------------------------
 BYTE   N24  Gn3
 BYTE   W24
 BYTE   Fn3
 BYTE   W24
 BYTE   TIE  En3
 BYTE   W96
//  #07 //033   ----------------------------------------
 BYTE   W03
 BYTE   VOL   47*FE07ReminiscenceAlice_mvl/mxv
 BYTE   W01
 BYTE   VOL   46*FE07ReminiscenceAlice_mvl/mxv
 BYTE   W01
 BYTE   VOL   44*FE07ReminiscenceAlice_mvl/mxv
 BYTE   W01
 BYTE   VOL   43*FE07ReminiscenceAlice_mvl/mxv
 BYTE   W01
 BYTE   VOL   42*FE07ReminiscenceAlice_mvl/mxv
 BYTE   W01
 BYTE   VOL   41*FE07ReminiscenceAlice_mvl/mxv
 BYTE   W01
 BYTE   VOL   39*FE07ReminiscenceAlice_mvl/mxv
 BYTE   W01
 BYTE   VOL   38*FE07ReminiscenceAlice_mvl/mxv
 BYTE   W01
 BYTE   VOL   37*FE07ReminiscenceAlice_mvl/mxv
 BYTE   W01
 BYTE   VOL   36*FE07ReminiscenceAlice_mvl/mxv
 BYTE   W01
 BYTE   VOL   34*FE07ReminiscenceAlice_mvl/mxv
 BYTE   W01
 BYTE   VOL   33*FE07ReminiscenceAlice_mvl/mxv
 BYTE   W01
 BYTE   VOL   32*FE07ReminiscenceAlice_mvl/mxv
 BYTE   W01
 BYTE   VOL   31*FE07ReminiscenceAlice_mvl/mxv
 BYTE   W01
 BYTE   VOL   30*FE07ReminiscenceAlice_mvl/mxv
 BYTE   W01
 BYTE   VOL   28*FE07ReminiscenceAlice_mvl/mxv
 BYTE   W01
 BYTE   VOL   27*FE07ReminiscenceAlice_mvl/mxv
 BYTE   W01
 BYTE   VOL   25*FE07ReminiscenceAlice_mvl/mxv
 BYTE   W01
 BYTE   VOL   24*FE07ReminiscenceAlice_mvl/mxv
 BYTE   W01
 BYTE   VOL   23*FE07ReminiscenceAlice_mvl/mxv
 BYTE   W01
 BYTE   VOL   21*FE07ReminiscenceAlice_mvl/mxv
 BYTE   W01
 BYTE   VOL   20*FE07ReminiscenceAlice_mvl/mxv
 BYTE   W01
 BYTE   VOL   20*FE07ReminiscenceAlice_mvl/mxv
 BYTE   W01
 BYTE   VOL   18*FE07ReminiscenceAlice_mvl/mxv
 BYTE   W01
 BYTE   VOL   17*FE07ReminiscenceAlice_mvl/mxv
 BYTE   W01
 BYTE   VOL   15*FE07ReminiscenceAlice_mvl/mxv
 BYTE   W01
 BYTE   VOL   14*FE07ReminiscenceAlice_mvl/mxv
 BYTE   W01
 BYTE   VOL   13*FE07ReminiscenceAlice_mvl/mxv
 BYTE   W01
 BYTE   VOL   11*FE07ReminiscenceAlice_mvl/mxv
 BYTE   W01
 BYTE   VOL   10*FE07ReminiscenceAlice_mvl/mxv
 BYTE   W01
 BYTE   VOL   9*FE07ReminiscenceAlice_mvl/mxv
 BYTE   W01
 BYTE   VOL   8*FE07ReminiscenceAlice_mvl/mxv
 BYTE   W01
 BYTE   VOL   7*FE07ReminiscenceAlice_mvl/mxv
 BYTE   W01
 BYTE   VOL   5*FE07ReminiscenceAlice_mvl/mxv
 BYTE   W01
 BYTE   VOL   4*FE07ReminiscenceAlice_mvl/mxv
 BYTE   W01
 BYTE   VOL   3*FE07ReminiscenceAlice_mvl/mxv
 BYTE   W01
 BYTE   EOT
 BYTE   VOL   2*FE07ReminiscenceAlice_mvl/mxv
 BYTE   W01
 BYTE   VOL   0*FE07ReminiscenceAlice_mvl/mxv
 BYTE   W01
 BYTE   VOL   0*FE07ReminiscenceAlice_mvl/mxv
 BYTE   W06
 BYTE   VOL   47*FE07ReminiscenceAlice_mvl/mxv
 BYTE   W01
 BYTE   W96
//  #07 //034   ----------------------------------------
 BYTE   W48
 BYTE   W96
//  #07 //035   ----------------------------------------
 BYTE   W48
 BYTE   W96
//  #07 //036   ----------------------------------------
 BYTE   W48
 BYTE   W96
//  #07 //037   ----------------------------------------
 BYTE   W48
 BYTE   W96
//  #07 //038   ----------------------------------------
 BYTE   W48
 BYTE   W96
//  #07 //039   ----------------------------------------
 BYTE   W48
 BYTE   W96
//  #07 //040   ----------------------------------------
 BYTE   W48
 BYTE   GoTo
  POIN2 Label_01055ED9
 BYTE   FINE

//******************************************************//
	ALIGN 4

FE07ReminiscenceAlice:
	BYTE	7	// NumTrks
	BYTE	0	// NumBlks
	BYTE	FE07ReminiscenceAlice_pri	// Priority
	BYTE	FE07ReminiscenceAlice_rev	// Reverb.
    
	POIN2	FE07ReminiscenceAlice_grp
    
	POIN2	FE07ReminiscenceAlice_001
	POIN2	FE07ReminiscenceAlice_002
	POIN2	FE07ReminiscenceAlice_003
	POIN2	FE07ReminiscenceAlice_004
	POIN2	FE07ReminiscenceAlice_005
	POIN2	FE07ReminiscenceAlice_006
	POIN2	FE07ReminiscenceAlice_007

	
