//Event file generated from Sappy .s format.
	#include "MPlayDef.event"

	#define	FE07AKnightsOathRandomWizard_grp  voicegroup000
	#define	FE07AKnightsOathRandomWizard_pri  0
	#define	FE07AKnightsOathRandomWizard_rev  0
	#define	FE07AKnightsOathRandomWizard_mvl  127
	#define	FE07AKnightsOathRandomWizard_key  0
	#define	FE07AKnightsOathRandomWizard_tbs  1
	#define	FE07AKnightsOathRandomWizard_exg  0
	#define	FE07AKnightsOathRandomWizard_cmp  1

	// .rodata
	//	FE07AKnightsOathRandomWizard
	ALIGN 4


//**************** Track 1 (Midi-Chn.0) ****************//

FE07AKnightsOathRandomWizard_001:
// 000   ----------------------------------------
 BYTE   KEYSH   FE07AKnightsOathRandomWizard_key+0
Label_0_0155A1C6:
 BYTE   TEMPO   190*FE07AKnightsOathRandomWizard_tbs/2
 BYTE   VOICE   57
 BYTE   VOL   21*FE07AKnightsOathRandomWizard_mvl/mxv
 BYTE   N12  Dn3  v127
 BYTE   W12
 BYTE   An2
 BYTE   W12
 BYTE   Dn3
 BYTE   W12
 BYTE   N12
 BYTE   W24
 BYTE   N12
 BYTE   W12
 BYTE   N12
 BYTE   W12
 BYTE   An2
 BYTE   W12
// 001   ----------------------------------------
Label_0_0155A1DC:
 BYTE   N12  Dn3  v127
 BYTE   W12
 BYTE   N12
 BYTE   W24
 BYTE   N12
 BYTE   W12
 BYTE   N12
 BYTE   W12
 BYTE   An2
 BYTE   W12
 BYTE   Dn3
 BYTE   W12
 BYTE   N12
 BYTE   W12
 BYTE   PEND 
// 002   ----------------------------------------
Label_0_0155A1ED:
 BYTE   W12
 BYTE   N12  Dn3  v127
 BYTE   W12
 BYTE   N12
 BYTE   W12
 BYTE   An2
 BYTE   W12
 BYTE   Dn3
 BYTE   W12
 BYTE   N12
 BYTE   W24
 BYTE   N12
 BYTE   W12
 BYTE   PEND 
// 003   ----------------------------------------
Label_0_0155A1FD:
 BYTE   N12  Cn3  v127
 BYTE   W12
 BYTE   An2
 BYTE   W12
 BYTE   Cn3
 BYTE   W12
 BYTE   N12
 BYTE   W24
 BYTE   N12
 BYTE   W12
 BYTE   N12
 BYTE   W12
 BYTE   An2
 BYTE   W12
 BYTE   PEND 
// 004   ----------------------------------------
Label_0_0155A20E:
 BYTE   N12  Cn3  v127
 BYTE   W12
 BYTE   N12
 BYTE   W24
 BYTE   N12
 BYTE   W12
 BYTE   N12
 BYTE   W12
 BYTE   An2
 BYTE   W12
 BYTE   Cn3
 BYTE   W12
 BYTE   N12
 BYTE   W12
 BYTE   PEND 
// 005   ----------------------------------------
Label_0_0155A21F:
 BYTE   W12
 BYTE   N12  Cn3  v127
 BYTE   W12
 BYTE   N12
 BYTE   W12
 BYTE   An2
 BYTE   W12
 BYTE   Cn3
 BYTE   W12
 BYTE   N12
 BYTE   W24
 BYTE   N12
 BYTE   W12
 BYTE   PEND 
// 006   ----------------------------------------
Label_0_0155A22F:
 BYTE   N12  Bn2  v127
 BYTE   W12
 BYTE   An2
 BYTE   W12
 BYTE   Bn2
 BYTE   W12
 BYTE   N12
 BYTE   W24
 BYTE   N12
 BYTE   W12
 BYTE   N12
 BYTE   W12
 BYTE   An2
 BYTE   W12
 BYTE   PEND 
// 007   ----------------------------------------
Label_0_0155A240:
 BYTE   N12  Bn2  v127
 BYTE   W12
 BYTE   N12
 BYTE   W24
 BYTE   N12
 BYTE   W12
 BYTE   N12
 BYTE   W12
 BYTE   An2
 BYTE   W12
 BYTE   Bn2
 BYTE   W12
 BYTE   N12
 BYTE   W12
 BYTE   PEND 
// 008   ----------------------------------------
Label_0_0155A251:
 BYTE   W12
 BYTE   N12  Bn2  v127
 BYTE   W12
 BYTE   N12
 BYTE   W12
 BYTE   An2
 BYTE   W12
 BYTE   Bn2
 BYTE   W12
 BYTE   N12
 BYTE   W24
 BYTE   N12
 BYTE   W12
 BYTE   PEND 
// 009   ----------------------------------------
Label_0_0155A261:
 BYTE   N12  As2  v127
 BYTE   W12
 BYTE   An2
 BYTE   W12
 BYTE   As2
 BYTE   W12
 BYTE   N12
 BYTE   W24
 BYTE   N12
 BYTE   W12
 BYTE   N12
 BYTE   W12
 BYTE   An2
 BYTE   W12
 BYTE   PEND 
// 010   ----------------------------------------
Label_0_0155A272:
 BYTE   N12  As2  v127
 BYTE   W12
 BYTE   N12
 BYTE   W24
 BYTE   N12
 BYTE   W12
 BYTE   An2
 BYTE   W12
 BYTE   N12
 BYTE   W12
 BYTE   N12
 BYTE   W12
 BYTE   N12
 BYTE   W12
 BYTE   PEND 
// 011   ----------------------------------------
Label_0_0155A283:
 BYTE   W12
 BYTE   N12  An2  v127
 BYTE   W12
 BYTE   N12
 BYTE   W12
 BYTE   N12
 BYTE   W12
 BYTE   N12
 BYTE   W12
 BYTE   N12
 BYTE   W24
 BYTE   N12
 BYTE   W12
 BYTE   PEND 
// 012   ----------------------------------------
 BYTE   VOL   21*FE07AKnightsOathRandomWizard_mvl/mxv
 BYTE   N12  Dn3
 BYTE   W12
 BYTE   An2
 BYTE   W12
 BYTE   Dn3
 BYTE   W12
 BYTE   N12
 BYTE   W24
 BYTE   N12
 BYTE   W12
 BYTE   N12
 BYTE   W12
 BYTE   An2
 BYTE   W12
 BYTE   PATT
  POIN2 Label_0_0155A1DC
 BYTE   PATT
  POIN2 Label_0_0155A1ED
 BYTE   PATT
  POIN2 Label_0_0155A1FD
 BYTE   PATT
  POIN2 Label_0_0155A20E
 BYTE   PATT
  POIN2 Label_0_0155A21F
 BYTE   PATT
  POIN2 Label_0_0155A22F
 BYTE   PATT
  POIN2 Label_0_0155A240
 BYTE   PATT
  POIN2 Label_0_0155A251
 BYTE   PATT
  POIN2 Label_0_0155A261
 BYTE   PATT
  POIN2 Label_0_0155A272
 BYTE   PATT
  POIN2 Label_0_0155A283
// 013   ----------------------------------------
 BYTE   GoTo
  POIN2 Label_0_0155A1C6
 BYTE   FINE

//**************** Track 2 (Midi-Chn.1) ****************//

FE07AKnightsOathRandomWizard_002:
// 000   ----------------------------------------
 BYTE   KEYSH   FE07AKnightsOathRandomWizard_key+0
Label_1_0155A2E6:
 BYTE   VOICE   60
 BYTE   VOL   35*FE07AKnightsOathRandomWizard_mvl/mxv
 BYTE   W36
 BYTE   N36  Dn3  v064
 BYTE   N36  Fn3
 BYTE   N36  An3  v127
 BYTE   W60
// 001   ----------------------------------------
Label_1_0155A2F4:
 BYTE   W12
 BYTE   N36  Dn3  v064
 BYTE   N36  Fn3  v076
 BYTE   N36  Gn3  v127
 BYTE   W72
 BYTE   Dn3  v064
 BYTE   N36  Fn3  v127
 BYTE   W12
 BYTE   PEND 
// 002   ----------------------------------------
Label_1_0155A306:
 BYTE   W60
 BYTE   N36  Dn3  v064
 BYTE   N36  En3  v127
 BYTE   N36  Fn3  v064
 BYTE   W36
 BYTE   PEND 
// 003   ----------------------------------------
Label_1_0155A312:
 BYTE   W36
 BYTE   N36  Cn3  v064
 BYTE   N36  En3
 BYTE   N36  An3  v127
 BYTE   W60
 BYTE   PEND 
// 004   ----------------------------------------
Label_1_0155A31D:
 BYTE   W12
 BYTE   N36  Cn3  v064
 BYTE   N36  En3
 BYTE   N36  Gn3  v127
 BYTE   W72
 BYTE   Cn3  v064
 BYTE   N36  En3
 BYTE   N36  Fn3  v127
 BYTE   W12
 BYTE   PEND 
// 005   ----------------------------------------
Label_1_0155A330:
 BYTE   W60
 BYTE   N36  Cn3  v064
 BYTE   N36  En3  v127
 BYTE   W36
 BYTE   PEND 
// 006   ----------------------------------------
Label_1_0155A339:
 BYTE   W36
 BYTE   N36  Bn2  v064
 BYTE   N36  Dn3
 BYTE   N36  An3  v127
 BYTE   W60
 BYTE   PEND 
// 007   ----------------------------------------
Label_1_0155A344:
 BYTE   W12
 BYTE   N36  Bn2  v064
 BYTE   N36  Dn3
 BYTE   N36  Gn3  v127
 BYTE   W72
 BYTE   Bn2  v064
 BYTE   N36  Dn3
 BYTE   N36  Fn3  v127
 BYTE   W12
 BYTE   PEND 
// 008   ----------------------------------------
Label_1_0155A357:
 BYTE   W60
 BYTE   N36  Bn2  v064
 BYTE   N36  Dn3
 BYTE   N36  En3  v127
 BYTE   W36
 BYTE   PEND 
// 009   ----------------------------------------
Label_1_0155A362:
 BYTE   W36
 BYTE   N36  Dn3  v064
 BYTE   N36  An3  v127
 BYTE   W60
 BYTE   PEND 
// 010   ----------------------------------------
Label_1_0155A36B:
 BYTE   W12
 BYTE   N36  Dn3  v064
 BYTE   N36  Gn3  v127
 BYTE   W72
 BYTE   An2  v064
 BYTE   N36  Cs3
 BYTE   N36  Fn3  v127
 BYTE   W12
 BYTE   PEND 
// 011   ----------------------------------------
Label_1_0155A37C:
 BYTE   W60
 BYTE   N36  An2  v064
 BYTE   N36  Cs3
 BYTE   N36  En3  v127
 BYTE   W36
 BYTE   PEND 
// 012   ----------------------------------------
 BYTE   W36
 BYTE   Dn3  v064
 BYTE   N36  Fn3
 BYTE   N36  An3  v127
 BYTE   W60
 BYTE   PATT
  POIN2 Label_1_0155A2F4
 BYTE   PATT
  POIN2 Label_1_0155A306
 BYTE   PATT
  POIN2 Label_1_0155A312
 BYTE   PATT
  POIN2 Label_1_0155A31D
 BYTE   PATT
  POIN2 Label_1_0155A330
 BYTE   PATT
  POIN2 Label_1_0155A339
 BYTE   PATT
  POIN2 Label_1_0155A344
 BYTE   PATT
  POIN2 Label_1_0155A357
 BYTE   PATT
  POIN2 Label_1_0155A362
 BYTE   PATT
  POIN2 Label_1_0155A36B
 BYTE   PATT
  POIN2 Label_1_0155A37C
// 013   ----------------------------------------
 BYTE   GoTo
  POIN2 Label_1_0155A2E6
 BYTE   FINE

//**************** Track 3 (Midi-Chn.2) ****************//

FE07AKnightsOathRandomWizard_003:
// 000   ----------------------------------------
 BYTE   KEYSH   FE07AKnightsOathRandomWizard_key+0
Label_2_0155A3D2:
 BYTE   VOICE   42
 BYTE   PAN   c_v-64
 BYTE   VOL   14*FE07AKnightsOathRandomWizard_mvl/mxv
 BYTE   N12  Dn3  v127
 BYTE   W12
 BYTE   Fn3
 BYTE   W12
 BYTE   An3
 BYTE   W12
 BYTE   Dn4
 BYTE   W12
 BYTE   Fn4
 BYTE   W12
 BYTE   An4
 BYTE   W36
// 001   ----------------------------------------
 BYTE   W96
// 002   ----------------------------------------
Label_2_0155A3E7:
 BYTE   W24
 BYTE   N12  An4  v127
 BYTE   W12
 BYTE   Fn4
 BYTE   W12
 BYTE   Dn4
 BYTE   W12
 BYTE   An3
 BYTE   W12
 BYTE   Fn3
 BYTE   W12
 BYTE   Dn3
 BYTE   W12
 BYTE   PEND 
// 003   ----------------------------------------
Label_2_0155A3F7:
 BYTE   N12  Cn3  v127
 BYTE   W12
 BYTE   En3
 BYTE   W12
 BYTE   An3
 BYTE   W12
 BYTE   Cn4
 BYTE   W12
 BYTE   En4
 BYTE   W12
 BYTE   An4
 BYTE   W36
 BYTE   PEND 
// 004   ----------------------------------------
 BYTE   W96
// 005   ----------------------------------------
Label_2_0155A407:
 BYTE   W24
 BYTE   N12  An4  v127
 BYTE   W12
 BYTE   En4
 BYTE   W12
 BYTE   Cn4
 BYTE   W12
 BYTE   An3
 BYTE   W12
 BYTE   En3
 BYTE   W12
 BYTE   Cn3
 BYTE   W12
 BYTE   PEND 
// 006   ----------------------------------------
Label_2_0155A417:
 BYTE   N12  Bn2  v127
 BYTE   W12
 BYTE   Dn3
 BYTE   W12
 BYTE   Gn3
 BYTE   W12
 BYTE   Bn3
 BYTE   W12
 BYTE   Dn4
 BYTE   W12
 BYTE   Gn4
 BYTE   W36
 BYTE   PEND 
// 007   ----------------------------------------
 BYTE   W96
// 008   ----------------------------------------
Label_2_0155A427:
 BYTE   W24
 BYTE   N12  Gn4  v127
 BYTE   W12
 BYTE   Dn4
 BYTE   W12
 BYTE   Bn3
 BYTE   W12
 BYTE   Gn3
 BYTE   W12
 BYTE   Dn3
 BYTE   W12
 BYTE   Bn2
 BYTE   W12
 BYTE   PEND 
// 009   ----------------------------------------
Label_2_0155A437:
 BYTE   N12  As2  v127
 BYTE   W12
 BYTE   Dn3
 BYTE   W12
 BYTE   Fn3
 BYTE   W12
 BYTE   As3
 BYTE   W12
 BYTE   Dn4
 BYTE   W12
 BYTE   Fn4
 BYTE   W36
 BYTE   PEND 
// 010   ----------------------------------------
 BYTE   W96
// 011   ----------------------------------------
Label_2_0155A447:
 BYTE   W24
 BYTE   N12  An4  v127
 BYTE   W12
 BYTE   En4
 BYTE   W12
 BYTE   Cs4
 BYTE   W12
 BYTE   An3
 BYTE   W12
 BYTE   En3
 BYTE   W12
 BYTE   Cs3
 BYTE   W12
 BYTE   PEND 
// 012   ----------------------------------------
 BYTE   PAN   c_v-64
 BYTE   VOL   14*FE07AKnightsOathRandomWizard_mvl/mxv
 BYTE   N12  Dn3
 BYTE   W12
 BYTE   Fn3
 BYTE   W12
 BYTE   An3
 BYTE   W12
 BYTE   Dn4
 BYTE   W12
 BYTE   Fn4
 BYTE   W12
 BYTE   An4
 BYTE   W36
// 013   ----------------------------------------
 BYTE   W96
 BYTE   PATT
  POIN2 Label_2_0155A3E7
 BYTE   PATT
  POIN2 Label_2_0155A3F7
// 014   ----------------------------------------
 BYTE   W96
 BYTE   PATT
  POIN2 Label_2_0155A407
 BYTE   PATT
  POIN2 Label_2_0155A417
// 015   ----------------------------------------
 BYTE   W96
 BYTE   PATT
  POIN2 Label_2_0155A427
 BYTE   PATT
  POIN2 Label_2_0155A437
// 016   ----------------------------------------
 BYTE   W96
 BYTE   PATT
  POIN2 Label_2_0155A447
// 017   ----------------------------------------
 BYTE   GoTo
  POIN2 Label_2_0155A3D2
 BYTE   FINE

//**************** Track 4 (Midi-Chn.3) ****************//

FE07AKnightsOathRandomWizard_004:
// 000   ----------------------------------------
 BYTE   KEYSH   FE07AKnightsOathRandomWizard_key+0
Label_3_0155A49A:
 BYTE   VOICE   33
 BYTE   VOL   23*FE07AKnightsOathRandomWizard_mvl/mxv
 BYTE   N12  Dn1  v127
 BYTE   W24
 BYTE   N12
 BYTE   W12
 BYTE   N12
 BYTE   W24
 BYTE   N12
 BYTE   W12
 BYTE   N12
 BYTE   W24
// 001   ----------------------------------------
Label_3_0155A4AA:
 BYTE   N12  Dn1  v127
 BYTE   W12
 BYTE   N12
 BYTE   W24
 BYTE   N12
 BYTE   W12
 BYTE   N12
 BYTE   W24
 BYTE   N12
 BYTE   W12
 BYTE   N12
 BYTE   W12
 BYTE   PEND 
// 002   ----------------------------------------
Label_3_0155A4B9:
 BYTE   W12
 BYTE   N12  Dn1  v127
 BYTE   W12
 BYTE   N12
 BYTE   W24
 BYTE   N12
 BYTE   W12
 BYTE   N12
 BYTE   W24
 BYTE   N12
 BYTE   W12
 BYTE   PEND 
// 003   ----------------------------------------
Label_3_0155A4C7:
 BYTE   N12  Cn1  v127
 BYTE   W24
 BYTE   N12
 BYTE   W12
 BYTE   N12
 BYTE   W24
 BYTE   N12
 BYTE   W12
 BYTE   N12
 BYTE   W24
 BYTE   PEND 
// 004   ----------------------------------------
Label_3_0155A4D4:
 BYTE   N12  Cn1  v127
 BYTE   W12
 BYTE   N12
 BYTE   W24
 BYTE   N12
 BYTE   W12
 BYTE   N12
 BYTE   W24
 BYTE   N12
 BYTE   W12
 BYTE   N12
 BYTE   W12
 BYTE   PEND 
// 005   ----------------------------------------
Label_3_0155A4E3:
 BYTE   W12
 BYTE   N12  Cn1  v127
 BYTE   W12
 BYTE   N12
 BYTE   W24
 BYTE   N12
 BYTE   W12
 BYTE   N12
 BYTE   W24
 BYTE   N12
 BYTE   W12
 BYTE   PEND 
// 006   ----------------------------------------
Label_3_0155A4F1:
 BYTE   N12  Bn0  v127
 BYTE   W24
 BYTE   N12
 BYTE   W12
 BYTE   N12
 BYTE   W24
 BYTE   N12
 BYTE   W12
 BYTE   N12
 BYTE   W24
 BYTE   PEND 
// 007   ----------------------------------------
Label_3_0155A4FE:
 BYTE   N12  Bn0  v127
 BYTE   W12
 BYTE   N12
 BYTE   W24
 BYTE   N12
 BYTE   W12
 BYTE   N12
 BYTE   W24
 BYTE   N12
 BYTE   W12
 BYTE   N12
 BYTE   W12
 BYTE   PEND 
// 008   ----------------------------------------
Label_3_0155A50D:
 BYTE   W12
 BYTE   N12  Bn0  v127
 BYTE   W12
 BYTE   N12
 BYTE   W24
 BYTE   N12
 BYTE   W12
 BYTE   N12
 BYTE   W24
 BYTE   N12
 BYTE   W12
 BYTE   PEND 
// 009   ----------------------------------------
Label_3_0155A51B:
 BYTE   N12  As0  v127
 BYTE   W24
 BYTE   N12
 BYTE   W12
 BYTE   N12
 BYTE   W24
 BYTE   N12
 BYTE   W12
 BYTE   N12
 BYTE   W24
 BYTE   PEND 
// 010   ----------------------------------------
Label_3_0155A528:
 BYTE   N12  As0  v127
 BYTE   W12
 BYTE   N12
 BYTE   W24
 BYTE   N12
 BYTE   W12
 BYTE   An0
 BYTE   W24
 BYTE   N12
 BYTE   W12
 BYTE   N12
 BYTE   W12
 BYTE   PEND 
// 011   ----------------------------------------
Label_3_0155A537:
 BYTE   W12
 BYTE   N12  An0  v127
 BYTE   W12
 BYTE   N12
 BYTE   W24
 BYTE   N12
 BYTE   W12
 BYTE   N12
 BYTE   W24
 BYTE   N12
 BYTE   W12
 BYTE   PEND 
// 012   ----------------------------------------
 BYTE   VOL   23*FE07AKnightsOathRandomWizard_mvl/mxv
 BYTE   N12  Dn1
 BYTE   W24
 BYTE   N12
 BYTE   W12
 BYTE   N12
 BYTE   W24
 BYTE   N12
 BYTE   W12
 BYTE   N12
 BYTE   W24
 BYTE   PATT
  POIN2 Label_3_0155A4AA
 BYTE   PATT
  POIN2 Label_3_0155A4B9
 BYTE   PATT
  POIN2 Label_3_0155A4C7
 BYTE   PATT
  POIN2 Label_3_0155A4D4
 BYTE   PATT
  POIN2 Label_3_0155A4E3
 BYTE   PATT
  POIN2 Label_3_0155A4F1
 BYTE   PATT
  POIN2 Label_3_0155A4FE
 BYTE   PATT
  POIN2 Label_3_0155A50D
 BYTE   PATT
  POIN2 Label_3_0155A51B
 BYTE   PATT
  POIN2 Label_3_0155A528
 BYTE   PATT
  POIN2 Label_3_0155A537
// 013   ----------------------------------------
 BYTE   GoTo
  POIN2 Label_3_0155A49A
 BYTE   FINE

//**************** Track 5 (Midi-Chn.4) ****************//

FE07AKnightsOathRandomWizard_005:
// 000   ----------------------------------------
 BYTE   KEYSH   FE07AKnightsOathRandomWizard_key+0
Label_4_0155A592:
 BYTE   VOICE   70
 BYTE   VOL   27*FE07AKnightsOathRandomWizard_mvl/mxv
 BYTE   W96
// 001   ----------------------------------------
 BYTE   W96
// 002   ----------------------------------------
 BYTE   W96
// 003   ----------------------------------------
 BYTE   W96
// 004   ----------------------------------------
 BYTE   W96
// 005   ----------------------------------------
 BYTE   W96
// 006   ----------------------------------------
 BYTE   W96
// 007   ----------------------------------------
 BYTE   W96
// 008   ----------------------------------------
 BYTE   W96
// 009   ----------------------------------------
 BYTE   W96
// 010   ----------------------------------------
 BYTE   W96
// 011   ----------------------------------------
 BYTE   W96
// 012   ----------------------------------------
 BYTE   W36
 BYTE   N36  Fn4  v127
 BYTE   W60
// 013   ----------------------------------------
Label_4_0155A5A7:
 BYTE   W12
 BYTE   N36  En4  v127
 BYTE   W72
 BYTE   Dn4
 BYTE   W12
 BYTE   PEND 
// 014   ----------------------------------------
 BYTE   W60
 BYTE   Cn4
 BYTE   W36
// 015   ----------------------------------------
 BYTE   W36
 BYTE   Fn4
 BYTE   W60
 BYTE   PATT
  POIN2 Label_4_0155A5A7
// 016   ----------------------------------------
 BYTE   W60
 BYTE   N36  Cn4  v127
 BYTE   W36
// 017   ----------------------------------------
 BYTE   W36
 BYTE   Fn4
 BYTE   W60
 BYTE   PATT
  POIN2 Label_4_0155A5A7
// 018   ----------------------------------------
 BYTE   W60
 BYTE   N36  Cn4  v127
 BYTE   W36
// 019   ----------------------------------------
 BYTE   W36
 BYTE   Fn4
 BYTE   W60
 BYTE   PATT
  POIN2 Label_4_0155A5A7
// 020   ----------------------------------------
 BYTE   W60
 BYTE   N36  Cs4  v127
 BYTE   W36
// 021   ----------------------------------------
 BYTE   GoTo
  POIN2 Label_4_0155A592
 BYTE   FINE

//**************** Track 6 (Midi-Chn.5) ****************//

FE07AKnightsOathRandomWizard_006:
// 000   ----------------------------------------
 BYTE   KEYSH   FE07AKnightsOathRandomWizard_key+0
Label_5_0155A5E2:
 BYTE   VOICE   42
 BYTE   PAN   c_v+63
 BYTE   VOL   14*FE07AKnightsOathRandomWizard_mvl/mxv
 BYTE   W72
 BYTE   N12  Dn5  v127
 BYTE   W12
 BYTE   An4
 BYTE   W12
// 001   ----------------------------------------
Label_5_0155A5EF:
 BYTE   N12  Fn4  v127
 BYTE   W12
 BYTE   Dn4
 BYTE   W12
 BYTE   An3
 BYTE   W12
 BYTE   Fn3
 BYTE   W24
 BYTE   Dn3
 BYTE   W12
 BYTE   Fn3
 BYTE   W12
 BYTE   An3
 BYTE   W12
 BYTE   PEND 
// 002   ----------------------------------------
Label_5_0155A600:
 BYTE   N12  Dn4  v127
 BYTE   W12
 BYTE   Fn4
 BYTE   W84
 BYTE   PEND 
// 003   ----------------------------------------
Label_5_0155A607:
 BYTE   W72
 BYTE   N12  Cn5  v127
 BYTE   W12
 BYTE   An4
 BYTE   W12
 BYTE   PEND 
// 004   ----------------------------------------
Label_5_0155A60F:
 BYTE   N12  En4  v127
 BYTE   W12
 BYTE   Cn4
 BYTE   W12
 BYTE   An3
 BYTE   W12
 BYTE   En3
 BYTE   W24
 BYTE   Cn3
 BYTE   W12
 BYTE   En3
 BYTE   W12
 BYTE   An3
 BYTE   W12
 BYTE   PEND 
// 005   ----------------------------------------
Label_5_0155A620:
 BYTE   N12  Cn4  v127
 BYTE   W12
 BYTE   En4
 BYTE   W84
 BYTE   PEND 
// 006   ----------------------------------------
Label_5_0155A627:
 BYTE   W72
 BYTE   N12  Bn4  v127
 BYTE   W12
 BYTE   Gn4
 BYTE   W12
 BYTE   PEND 
// 007   ----------------------------------------
Label_5_0155A62F:
 BYTE   N12  Dn4  v127
 BYTE   W12
 BYTE   Bn3
 BYTE   W12
 BYTE   Gn3
 BYTE   W12
 BYTE   Dn3
 BYTE   W24
 BYTE   Bn2
 BYTE   W12
 BYTE   Dn3
 BYTE   W12
 BYTE   Gn3
 BYTE   W12
 BYTE   PEND 
// 008   ----------------------------------------
Label_5_0155A640:
 BYTE   N12  Bn3  v127
 BYTE   W12
 BYTE   Dn4
 BYTE   W84
 BYTE   PEND 
// 009   ----------------------------------------
Label_5_0155A647:
 BYTE   W72
 BYTE   N12  As4  v127
 BYTE   W12
 BYTE   Fn4
 BYTE   W12
 BYTE   PEND 
// 010   ----------------------------------------
Label_5_0155A64F:
 BYTE   N12  Dn4  v127
 BYTE   W12
 BYTE   As3
 BYTE   W12
 BYTE   Fn3
 BYTE   W12
 BYTE   Dn3
 BYTE   W24
 BYTE   Cs3
 BYTE   W12
 BYTE   En3
 BYTE   W12
 BYTE   An3
 BYTE   W12
 BYTE   PEND 
// 011   ----------------------------------------
Label_5_0155A660:
 BYTE   N12  Cs4  v127
 BYTE   W12
 BYTE   En4
 BYTE   W84
 BYTE   PEND 
// 012   ----------------------------------------
 BYTE   W12
 BYTE   PAN   c_v+63
 BYTE   VOL   14*FE07AKnightsOathRandomWizard_mvl/mxv
 BYTE   W60
 BYTE   N12  Dn5
 BYTE   W12
 BYTE   An4
 BYTE   W12
 BYTE   PATT
  POIN2 Label_5_0155A5EF
 BYTE   PATT
  POIN2 Label_5_0155A600
 BYTE   PATT
  POIN2 Label_5_0155A607
 BYTE   PATT
  POIN2 Label_5_0155A60F
 BYTE   PATT
  POIN2 Label_5_0155A620
 BYTE   PATT
  POIN2 Label_5_0155A627
 BYTE   PATT
  POIN2 Label_5_0155A62F
 BYTE   PATT
  POIN2 Label_5_0155A640
 BYTE   PATT
  POIN2 Label_5_0155A647
 BYTE   PATT
  POIN2 Label_5_0155A64F
 BYTE   PATT
  POIN2 Label_5_0155A660
// 013   ----------------------------------------
 BYTE   GoTo
  POIN2 Label_5_0155A5E2
 BYTE   FINE

//**************** Track 7 (Midi-Chn.6) ****************//

FE07AKnightsOathRandomWizard_007:
// 000   ----------------------------------------
 BYTE   KEYSH   FE07AKnightsOathRandomWizard_key+0
Label_6_0155A6B2:
 BYTE   VOICE   57
 BYTE   VOL   12*FE07AKnightsOathRandomWizard_mvl/mxv
 BYTE   W48
 BYTE   N36  Dn3  v064
 BYTE   N36  Fn3
 BYTE   N36  An3  v127
 BYTE   W48
// 001   ----------------------------------------
Label_6_0155A6C0:
 BYTE   W24
 BYTE   N36  Dn3  v064
 BYTE   N36  Fn3  v076
 BYTE   N36  Gn3  v127
 BYTE   W72
 BYTE   PEND 
// 002   ----------------------------------------
Label_6_0155A6CC:
 BYTE   N36  Dn3  v064
 BYTE   N36  Fn3  v127
 BYTE   W72
 BYTE   Dn3  v064
 BYTE   N36  En3  v127
 BYTE   N36  Fn3  v064
 BYTE   W24
 BYTE   PEND 
// 003   ----------------------------------------
Label_6_0155A6DD:
 BYTE   W48
 BYTE   N36  Cn3  v064
 BYTE   N36  En3
 BYTE   N36  An3  v127
 BYTE   W48
 BYTE   PEND 
// 004   ----------------------------------------
Label_6_0155A6E8:
 BYTE   W24
 BYTE   N36  Cn3  v064
 BYTE   N36  En3
 BYTE   N36  Gn3  v127
 BYTE   W72
 BYTE   PEND 
// 005   ----------------------------------------
Label_6_0155A6F3:
 BYTE   N36  Cn3  v064
 BYTE   N36  En3
 BYTE   N36  Fn3  v127
 BYTE   W72
 BYTE   Cn3  v064
 BYTE   N36  En3  v127
 BYTE   W24
 BYTE   PEND 
// 006   ----------------------------------------
Label_6_0155A703:
 BYTE   W48
 BYTE   N36  Bn2  v064
 BYTE   N36  Dn3
 BYTE   N36  An3  v127
 BYTE   W48
 BYTE   PEND 
// 007   ----------------------------------------
Label_6_0155A70E:
 BYTE   W24
 BYTE   N36  Bn2  v064
 BYTE   N36  Dn3
 BYTE   N36  Gn3  v127
 BYTE   W72
 BYTE   PEND 
// 008   ----------------------------------------
Label_6_0155A719:
 BYTE   N36  Bn2  v064
 BYTE   N36  Dn3
 BYTE   N36  Fn3  v127
 BYTE   W72
 BYTE   Bn2  v064
 BYTE   N36  Dn3
 BYTE   N36  En3  v127
 BYTE   W24
 BYTE   PEND 
// 009   ----------------------------------------
Label_6_0155A72B:
 BYTE   W48
 BYTE   N36  Dn3  v064
 BYTE   N36  An3  v127
 BYTE   W48
 BYTE   PEND 
// 010   ----------------------------------------
Label_6_0155A734:
 BYTE   W24
 BYTE   N36  Dn3  v064
 BYTE   N36  Gn3  v127
 BYTE   W72
 BYTE   PEND 
// 011   ----------------------------------------
 BYTE   An2  v064
 BYTE   N36  Cs3
 BYTE   N36  Fn3  v127
 BYTE   W72
 BYTE   An2  v064
 BYTE   N36  Cs3
 BYTE   N36  En3  v127
 BYTE   W24
// 012   ----------------------------------------
 BYTE   W48
 BYTE   Dn3  v064
 BYTE   N36  Fn3
 BYTE   N36  An3  v127
 BYTE   W48
 BYTE   PATT
  POIN2 Label_6_0155A6C0
 BYTE   PATT
  POIN2 Label_6_0155A6CC
 BYTE   PATT
  POIN2 Label_6_0155A6DD
 BYTE   PATT
  POIN2 Label_6_0155A6E8
 BYTE   PATT
  POIN2 Label_6_0155A6F3
 BYTE   PATT
  POIN2 Label_6_0155A703
 BYTE   PATT
  POIN2 Label_6_0155A70E
 BYTE   PATT
  POIN2 Label_6_0155A719
 BYTE   PATT
  POIN2 Label_6_0155A72B
 BYTE   PATT
  POIN2 Label_6_0155A734
// 013   ----------------------------------------
 BYTE   N36  An2  v064
 BYTE   N36  Cs3
 BYTE   N36  Fn3  v127
 BYTE   W96
// 014   ----------------------------------------
 BYTE   GoTo
  POIN2 Label_6_0155A6B2
 BYTE   FINE

//**************** Track 8 (Midi-Chn.7) ****************//

FE07AKnightsOathRandomWizard_008:
// 000   ----------------------------------------
 BYTE   KEYSH   FE07AKnightsOathRandomWizard_key+0
Label_7_0155A79A:
 BYTE   VOICE   70
 BYTE   VOL   9*FE07AKnightsOathRandomWizard_mvl/mxv
 BYTE   W96
// 001   ----------------------------------------
 BYTE   W96
// 002   ----------------------------------------
 BYTE   W96
// 003   ----------------------------------------
 BYTE   W96
// 004   ----------------------------------------
 BYTE   W96
// 005   ----------------------------------------
 BYTE   W96
// 006   ----------------------------------------
 BYTE   W96
// 007   ----------------------------------------
 BYTE   W96
// 008   ----------------------------------------
 BYTE   W96
// 009   ----------------------------------------
 BYTE   W96
// 010   ----------------------------------------
 BYTE   W96
// 011   ----------------------------------------
 BYTE   W96
// 012   ----------------------------------------
 BYTE   W48
 BYTE   N36  Fn4  v127
 BYTE   W48
// 013   ----------------------------------------
 BYTE   W24
 BYTE   En4
 BYTE   W72
// 014   ----------------------------------------
Label_7_0155A7B2:
 BYTE   N36  Dn4  v127
 BYTE   W72
 BYTE   Cn4
 BYTE   W24
 BYTE   PEND 
// 015   ----------------------------------------
 BYTE   W48
 BYTE   Fn4
 BYTE   W48
// 016   ----------------------------------------
 BYTE   W24
 BYTE   En4
 BYTE   W72
 BYTE   PATT
  POIN2 Label_7_0155A7B2
// 017   ----------------------------------------
 BYTE   W48
 BYTE   N36  Fn4  v127
 BYTE   W48
// 018   ----------------------------------------
 BYTE   W24
 BYTE   En4
 BYTE   W72
 BYTE   PATT
  POIN2 Label_7_0155A7B2
// 019   ----------------------------------------
 BYTE   W48
 BYTE   N36  Fn4  v127
 BYTE   W48
// 020   ----------------------------------------
 BYTE   W24
 BYTE   En4
 BYTE   W72
// 021   ----------------------------------------
 BYTE   Dn4
 BYTE   W96
// 022   ----------------------------------------
 BYTE   GoTo
  POIN2 Label_7_0155A79A
 BYTE   FINE

//**************** Track 9 (Midi-Chn.8) ****************//

FE07AKnightsOathRandomWizard_009:
// 000   ----------------------------------------
 BYTE   KEYSH   FE07AKnightsOathRandomWizard_key+0
Label_8_0155A7E6:
 BYTE   VOICE   127
 BYTE   VOL   35*FE07AKnightsOathRandomWizard_mvl/mxv
 BYTE   N12  Bn0  v127
 BYTE   N12  Dn1
 BYTE   W24
 BYTE   VOL   35*FE07AKnightsOathRandomWizard_mvl/mxv
 BYTE   N12  Bn0
 BYTE   N12  Dn1
 BYTE   W12
 BYTE   VOL   35*FE07AKnightsOathRandomWizard_mvl/mxv
 BYTE   N12  Bn0
 BYTE   N12  Dn1
 BYTE   W24
 BYTE   VOL   35*FE07AKnightsOathRandomWizard_mvl/mxv
 BYTE   N12  Bn0
 BYTE   N12  Dn1
 BYTE   W12
 BYTE   VOL   35*FE07AKnightsOathRandomWizard_mvl/mxv
 BYTE   N12  Bn0
 BYTE   N12  Dn1
 BYTE   W24
// 001   ----------------------------------------
Label_8_0155A80C:
 BYTE   VOL   35*FE07AKnightsOathRandomWizard_mvl/mxv
 BYTE   N12  Bn0  v127
 BYTE   N12  Dn1
 BYTE   W12
 BYTE   VOL   35*FE07AKnightsOathRandomWizard_mvl/mxv
 BYTE   N12  Bn0
 BYTE   N12  Dn1
 BYTE   W24
 BYTE   VOL   35*FE07AKnightsOathRandomWizard_mvl/mxv
 BYTE   N12  Bn0
 BYTE   N12  Dn1
 BYTE   W12
 BYTE   VOL   35*FE07AKnightsOathRandomWizard_mvl/mxv
 BYTE   N12  Bn0
 BYTE   N12  Dn1
 BYTE   W24
 BYTE   VOL   35*FE07AKnightsOathRandomWizard_mvl/mxv
 BYTE   N12  Bn0
 BYTE   N12  Dn1
 BYTE   W12
 BYTE   VOL   35*FE07AKnightsOathRandomWizard_mvl/mxv
 BYTE   N12  Bn0
 BYTE   N12  Dn1
 BYTE   W12
 BYTE   PEND 
// 002   ----------------------------------------
Label_8_0155A838:
 BYTE   W12
 BYTE   VOL   35*FE07AKnightsOathRandomWizard_mvl/mxv
 BYTE   N12  Bn0  v127
 BYTE   N12  Dn1
 BYTE   W12
 BYTE   VOL   35*FE07AKnightsOathRandomWizard_mvl/mxv
 BYTE   N12  Bn0
 BYTE   N12  Dn1
 BYTE   W24
 BYTE   VOL   35*FE07AKnightsOathRandomWizard_mvl/mxv
 BYTE   N12  Bn0
 BYTE   N12  Dn1
 BYTE   W12
 BYTE   VOL   35*FE07AKnightsOathRandomWizard_mvl/mxv
 BYTE   N12  Bn0
 BYTE   N12  Dn1
 BYTE   W24
 BYTE   VOL   35*FE07AKnightsOathRandomWizard_mvl/mxv
 BYTE   N12  Bn0
 BYTE   N12  Dn1
 BYTE   W12
 BYTE   PEND 
// 003   ----------------------------------------
Label_8_0155A85E:
 BYTE   VOL   35*FE07AKnightsOathRandomWizard_mvl/mxv
 BYTE   N12  Bn0  v127
 BYTE   N12  Dn1
 BYTE   W24
 BYTE   VOL   35*FE07AKnightsOathRandomWizard_mvl/mxv
 BYTE   N12  Bn0
 BYTE   N12  Dn1
 BYTE   W12
 BYTE   VOL   35*FE07AKnightsOathRandomWizard_mvl/mxv
 BYTE   N12  Bn0
 BYTE   N12  Dn1
 BYTE   W24
 BYTE   VOL   35*FE07AKnightsOathRandomWizard_mvl/mxv
 BYTE   N12  Bn0
 BYTE   N12  Dn1
 BYTE   W12
 BYTE   VOL   35*FE07AKnightsOathRandomWizard_mvl/mxv
 BYTE   N12  Bn0
 BYTE   N12  Dn1
 BYTE   W24
 BYTE   PEND 
 BYTE   PATT
  POIN2 Label_8_0155A80C
 BYTE   PATT
  POIN2 Label_8_0155A838
 BYTE   PATT
  POIN2 Label_8_0155A85E
 BYTE   PATT
  POIN2 Label_8_0155A80C
 BYTE   PATT
  POIN2 Label_8_0155A838
 BYTE   PATT
  POIN2 Label_8_0155A85E
 BYTE   PATT
  POIN2 Label_8_0155A80C
// 004   ----------------------------------------
Label_8_0155A8A6:
 BYTE   W12
 BYTE   VOL   35*FE07AKnightsOathRandomWizard_mvl/mxv
 BYTE   N12  Bn0  v127
 BYTE   N12  Dn1
 BYTE   W12
 BYTE   VOL   35*FE07AKnightsOathRandomWizard_mvl/mxv
 BYTE   N12  Bn0
 BYTE   N12  Dn1
 BYTE   W12
 BYTE   VOL   35*FE07AKnightsOathRandomWizard_mvl/mxv
 BYTE   N12  Bn0
 BYTE   N12  Dn1
 BYTE   W12
 BYTE   VOL   35*FE07AKnightsOathRandomWizard_mvl/mxv
 BYTE   N12  Bn0
 BYTE   N12  Dn1
 BYTE   W12
 BYTE   VOL   35*FE07AKnightsOathRandomWizard_mvl/mxv
 BYTE   N12  Bn0
 BYTE   N12  Dn1
 BYTE   W12
 BYTE   VOL   35*FE07AKnightsOathRandomWizard_mvl/mxv
 BYTE   N12  Bn0
 BYTE   N12  Dn1
 BYTE   W12
 BYTE   VOL   35*FE07AKnightsOathRandomWizard_mvl/mxv
 BYTE   N12  Bn0
 BYTE   N12  Dn1
 BYTE   W12
 BYTE   PEND 
 BYTE   PATT
  POIN2 Label_8_0155A85E
 BYTE   PATT
  POIN2 Label_8_0155A80C
 BYTE   PATT
  POIN2 Label_8_0155A838
 BYTE   PATT
  POIN2 Label_8_0155A85E
 BYTE   PATT
  POIN2 Label_8_0155A80C
 BYTE   PATT
  POIN2 Label_8_0155A838
 BYTE   PATT
  POIN2 Label_8_0155A85E
 BYTE   PATT
  POIN2 Label_8_0155A80C
 BYTE   PATT
  POIN2 Label_8_0155A838
 BYTE   PATT
  POIN2 Label_8_0155A85E
 BYTE   PATT
  POIN2 Label_8_0155A80C
 BYTE   PATT
  POIN2 Label_8_0155A8A6
// 005   ----------------------------------------
 BYTE   GoTo
  POIN2 Label_8_0155A7E6
 BYTE   FINE

//******************************************************//
	ALIGN 4

FE07AKnightsOathRandomWizard:
	BYTE	9	// NumTrks
	BYTE	0	// NumBlks
	BYTE	FE07AKnightsOathRandomWizard_pri	// Priority
	BYTE	FE07AKnightsOathRandomWizard_rev	// Reverb.
    
	POIN2	FE07AKnightsOathRandomWizard_grp
    
	POIN2	FE07AKnightsOathRandomWizard_001
	POIN2	FE07AKnightsOathRandomWizard_002
	POIN2	FE07AKnightsOathRandomWizard_003
	POIN2	FE07AKnightsOathRandomWizard_004
	POIN2	FE07AKnightsOathRandomWizard_005
	POIN2	FE07AKnightsOathRandomWizard_006
	POIN2	FE07AKnightsOathRandomWizard_007
	POIN2	FE07AKnightsOathRandomWizard_008
	POIN2	FE07AKnightsOathRandomWizard_009

	
