//Event file generated from Sappy .s format.
	#include "MPlayDef.event"

	#define	FE07PreciousThingsRemixPandan_grp  voicegroup000
	#define	FE07PreciousThingsRemixPandan_pri  10
	#define	FE07PreciousThingsRemixPandan_rev  0
	#define	FE07PreciousThingsRemixPandan_mvl  127
	#define	FE07PreciousThingsRemixPandan_key  0
	#define	FE07PreciousThingsRemixPandan_tbs  1
	#define	FE07PreciousThingsRemixPandan_exg  0
	#define	FE07PreciousThingsRemixPandan_cmp  1

	// .rodata
	//	FE07PreciousThingsRemixPandan
	ALIGN 4


//**************** Track 1 (Midi-Chn.0) ****************//

FE07PreciousThingsRemixPandan_001:
// 000   ----------------------------------------
Label_0_01159D48:
 BYTE   TEMPO   132*FE07PreciousThingsRemixPandan_tbs/2
 BYTE   KEYSH   FE07PreciousThingsRemixPandan_key+0
 BYTE   VOICE   101
 BYTE   VOL   39*FE07PreciousThingsRemixPandan_mvl/mxv
 BYTE   PAN   c_v+6
 BYTE   N44  Dn4  v096
 BYTE   W48
 BYTE   N07  Dn4  v028
 BYTE   W12
 BYTE   N05  Fn3  v096
 BYTE   W06
 BYTE   N06  Fn3  v028
 BYTE   W06
 BYTE   As3  v096
 BYTE   W06
 BYTE   As3  v028
 BYTE   W06
 BYTE   Dn4  v096
 BYTE   W06
 BYTE   Dn4  v028
 BYTE   W06
// 001   ----------------------------------------
 BYTE   N17  Ds4  v096
 BYTE   W18
 BYTE   N05  Ds4  v028
 BYTE   W06
 BYTE   N16  Dn4  v096
 BYTE   W18
 BYTE   N05  Dn4  v028
 BYTE   W06
 BYTE   N16  Cn4  v096
 BYTE   W18
 BYTE   N05  Cn4  v028
 BYTE   W06
 BYTE   N17  As3  v096
 BYTE   W18
 BYTE   N05  As3  v028
 BYTE   W06
// 002   ----------------------------------------
 BYTE   N06  Cn4  v096
 BYTE   W06
 BYTE   Cn4  v028
 BYTE   W06
 BYTE   N68  Dn4  v096
 BYTE   W72
 BYTE   N05  Dn4  v028
 BYTE   W96
// 003   ----------------------------------------
 BYTE   W12
 BYTE   N44  Dn4  v096
 BYTE   W48
 BYTE   N05  Dn4  v028
 BYTE   W12
 BYTE   N06  Fn3  v096
 BYTE   W06
 BYTE   Fn3  v028
 BYTE   W06
 BYTE   As3  v096
 BYTE   W06
 BYTE   As3  v028
 BYTE   W06
// 004   ----------------------------------------
 BYTE   Dn4  v096
 BYTE   W06
 BYTE   Dn4  v028
 BYTE   W06
 BYTE   N15  Ds4  v096
 BYTE   W18
 BYTE   N05  Ds4  v028
 BYTE   W06
 BYTE   N16  Dn4  v096
 BYTE   W18
 BYTE   N05  Dn4  v028
 BYTE   W18
 BYTE   N11  Cn4  v084
 BYTE   W12
 BYTE   N12  Dn4
 BYTE   W12
// 005   ----------------------------------------
 BYTE   Ds4  v088
 BYTE   W12
 BYTE   N96  Fn4  v096
 BYTE   W96
// 006   ----------------------------------------
 BYTE   N32
 BYTE   W32
 BYTE   N03
 BYTE   W04
 BYTE   N05  Fn4  v028
 BYTE   W12
 BYTE   VOICE   68
 BYTE   VOL   49*FE07PreciousThingsRemixPandan_mvl/mxv
 BYTE   PAN   c_v+14
 BYTE   W12
 BYTE   N11  Dn4  v124
 BYTE   W12
 BYTE   N12  As3  v100
 BYTE   W12
 BYTE   Fn3  v092
 BYTE   W12
// 007   ----------------------------------------
 BYTE   N68  Gn3  v120
 BYTE   W72
 BYTE   N11  An3  v104
 BYTE   W12
 BYTE   N12  As3  v092
 BYTE   W12
// 008   ----------------------------------------
 BYTE   N44  Cn4  v108
 BYTE   W48
 BYTE   N23  Dn4  v124
 BYTE   W24
 BYTE   N24  Ds4  v092
 BYTE   W24
// 009   ----------------------------------------
 BYTE   N44  Fn4  v116
 BYTE   W48
 BYTE   N48  An3
 BYTE   W48
// 010   ----------------------------------------
 BYTE   Cn4  v120
 BYTE   W48
 BYTE   N23  As3  v084
 BYTE   W24
 BYTE   N24  An3  v100
 BYTE   W24
// 011   ----------------------------------------
 BYTE   N52  Gn3
 BYTE   W60
 BYTE   N11  Ds3  v104
 BYTE   W12
 BYTE   N12  Fn3  v096
 BYTE   W12
 BYTE   Gn3  v088
 BYTE   W12
// 012   ----------------------------------------
 BYTE   N52  Cn4  v112
 BYTE   W60
 BYTE   N11  En3
 BYTE   W12
 BYTE   N12  Fn3  v096
 BYTE   W12
 BYTE   Gn3  v100
 BYTE   W12
// 013   ----------------------------------------
 BYTE   N52  Cn4  v116
 BYTE   W60
 BYTE   N11  Cn4  v112
 BYTE   W12
 BYTE   N12  Dn4  v096
 BYTE   W12
 BYTE   Ds4  v100
 BYTE   W12
// 014   ----------------------------------------
 BYTE   N78  Fn4
 BYTE   W96
// 015   ----------------------------------------
 BYTE   VOICE   75
 BYTE   VOL   50*FE07PreciousThingsRemixPandan_mvl/mxv
 BYTE   PAN   c_v-9
 BYTE   W24
 BYTE   N04  As2  v084
 BYTE   N05  Fn2  v100
 BYTE   W06
 BYTE   As2  v028
 BYTE   W06
 BYTE   Fn2  v100
 BYTE   N05  As2  v092
 BYTE   W06
 BYTE   N18  As2  v028
 BYTE   W18
 BYTE   N03  Fn2  v096
 BYTE   N05  As2  v088
 BYTE   W06
 BYTE   N06  As2  v028
 BYTE   W06
 BYTE   N17  Fn2  v108
 BYTE   N17  As2  v096
 BYTE   W18
 BYTE   N05  As2  v028
 BYTE   W30
// 016   ----------------------------------------
 BYTE   N04  Fn2  v100
 BYTE   N04  As2  v084
 BYTE   W06
 BYTE   N05  As2  v028
 BYTE   W06
 BYTE   Fn2  v100
 BYTE   N05  As2  v092
 BYTE   W06
 BYTE   N18  As2  v028
 BYTE   W18
 BYTE   N03  Fn2  v096
 BYTE   N05  As2  v088
 BYTE   W06
 BYTE   N06  As2  v028
 BYTE   W06
 BYTE   N17  Fn2  v108
 BYTE   N17  As2  v096
 BYTE   W18
 BYTE   N05  As2  v028
 BYTE   W30
// 017   ----------------------------------------
 BYTE   N04  Fn2  v104
 BYTE   N04  As2  v096
 BYTE   W06
 BYTE   N05  As2  v028
 BYTE   W06
 BYTE   Fn2  v108
 BYTE   N05  As2  v104
 BYTE   W06
 BYTE   N18  As2  v028
 BYTE   W18
 BYTE   N03  Fn2  v108
 BYTE   N03  As2  v100
 BYTE   W06
 BYTE   N05  As2  v028
 BYTE   W06
 BYTE   N17  Fn2  v112
 BYTE   N17  As2  v104
 BYTE   W18
 BYTE   N05  As2  v028
 BYTE   W30
// 018   ----------------------------------------
 BYTE   N04  Fn2  v104
 BYTE   N04  As2  v096
 BYTE   W06
 BYTE   N05  As2  v028
 BYTE   W06
 BYTE   Fn2  v112
 BYTE   N05  As2
 BYTE   W06
 BYTE   N18  As2  v028
 BYTE   W18
 BYTE   N05  Fn2  v104
 BYTE   N05  As2  v108
 BYTE   W06
 BYTE   N06  As2  v028
 BYTE   W06
 BYTE   Cn3  v104
 BYTE   W06
 BYTE   Cn3  v028
 BYTE   W06
 BYTE   Dn3  v108
 BYTE   W06
 BYTE   Dn3  v028
 BYTE   W30
// 019   ----------------------------------------
 BYTE   N04  Fn2  v104
 BYTE   N04  As2  v100
 BYTE   W06
 BYTE   N05  As2  v028
 BYTE   W06
 BYTE   Fn2  v116
 BYTE   N05  As2  v108
 BYTE   W06
 BYTE   N18  As2  v028
 BYTE   W18
 BYTE   N03  Fn2  v112
 BYTE   N03  As2  v104
 BYTE   W06
 BYTE   N05  As2  v028
 BYTE   W06
 BYTE   N17  Fn2  v112
 BYTE   N17  As2  v108
 BYTE   W18
 BYTE   N05  As2  v028
 BYTE   W30
// 020   ----------------------------------------
 BYTE   N04  Fn2  v100
 BYTE   N04  As2  v096
 BYTE   W06
 BYTE   N05  As2  v028
 BYTE   W06
 BYTE   Fn2  v112
 BYTE   N05  As2  v104
 BYTE   W06
 BYTE   N18  As2  v028
 BYTE   W18
 BYTE   N03  Fn2  v104
 BYTE   N04  As2  v096
 BYTE   W06
 BYTE   N05  As2  v028
 BYTE   W06
 BYTE   N17  Fn2  v116
 BYTE   N17  As2  v100
 BYTE   W18
 BYTE   N05  As2  v028
 BYTE   W30
// 021   ----------------------------------------
 BYTE   N03  Fn2  v108
 BYTE   N03  As2  v100
 BYTE   W06
 BYTE   N05  As2  v028
 BYTE   W06
 BYTE   Fn2  v108
 BYTE   N05  As2  v100
 BYTE   W06
 BYTE   N18  As2  v028
 BYTE   W18
 BYTE   N03  Fn2  v096
 BYTE   N03  As2  v100
 BYTE   W06
 BYTE   N05  As2  v028
 BYTE   W06
 BYTE   N17  Fn2  v112
 BYTE   N17  As2  v108
 BYTE   W18
 BYTE   N05  As2  v028
 BYTE   W30
// 022   ----------------------------------------
 BYTE   N23  Fn2  v092
 BYTE   N23  Dn3  v112
 BYTE   W24
 BYTE   N24  Cn3  v100
 BYTE   W24
 BYTE   N21  As2  v084
 BYTE   W48
// 023   ----------------------------------------
 BYTE   N02  As2  v096
 BYTE   N03  Fn2  v104
 BYTE   W06
 BYTE   N05  As2  v028
 BYTE   W06
 BYTE   N03  Fn2  v100
 BYTE   N05  As2
 BYTE   W06
 BYTE   N18  As2  v028
 BYTE   W18
 BYTE   N03  Fn2  v108
 BYTE   N03  As2  v100
 BYTE   W06
 BYTE   N05  As2  v028
 BYTE   W06
 BYTE   N13  Fn2  v120
 BYTE   N13  As2  v116
 BYTE   W18
 BYTE   N05  As2  v028
 BYTE   W30
// 024   ----------------------------------------
 BYTE   N02  Fn2  v116
 BYTE   N03  As2  v112
 BYTE   W06
 BYTE   N05  As2  v028
 BYTE   W06
 BYTE   N04  Fn2  v124
 BYTE   N04  As2  v108
 BYTE   W06
 BYTE   N05  As2  v028
 BYTE   W18
 BYTE   N03  Fn2  v120
 BYTE   N03  As2  v104
 BYTE   W06
 BYTE   N05  As2  v028
 BYTE   W06
 BYTE   N16  Fn2  v124
 BYTE   N16  As2  v112
 BYTE   W18
 BYTE   N05  As2  v028
 BYTE   W30
// 025   ----------------------------------------
 BYTE   N03  As2  v104
 BYTE   N04  Fn2  v116
 BYTE   W06
 BYTE   N05  As2  v028
 BYTE   W06
 BYTE   Fn2  v112
 BYTE   N05  As2  v104
 BYTE   W06
 BYTE   N18  As2  v028
 BYTE   W18
 BYTE   N03  As2  v100
 BYTE   N04  Fn2  v104
 BYTE   W06
 BYTE   N05  As2  v028
 BYTE   W06
 BYTE   N17  Fn2  v108
 BYTE   N17  As2  v104
 BYTE   W18
 BYTE   N05  As2  v028
 BYTE   W30
// 026   ----------------------------------------
 BYTE   N03  Ds2  v108
 BYTE   N04  As2  v112
 BYTE   W06
 BYTE   N05  As2  v028
 BYTE   W06
 BYTE   Ds2  v108
 BYTE   N05  As2  v104
 BYTE   W06
 BYTE   N18  As2  v028
 BYTE   W18
 BYTE   N03  Ds2  v104
 BYTE   N04  As2  v108
 BYTE   W06
 BYTE   N05  As2  v028
 BYTE   W06
 BYTE   N17  Ds2  v112
 BYTE   N17  As2  v108
 BYTE   W18
 BYTE   N05  As2  v028
 BYTE   W30
// 027   ----------------------------------------
 BYTE   N03  Fn2  v104
 BYTE   N04  As2
 BYTE   W06
 BYTE   N05  As2  v028
 BYTE   W06
 BYTE   Fn2  v108
 BYTE   N05  As2  v116
 BYTE   W06
 BYTE   N18  As2  v028
 BYTE   W18
 BYTE   N02  Fn2  v096
 BYTE   N04  As2  v108
 BYTE   W06
 BYTE   N05  As2  v028
 BYTE   W06
 BYTE   N17  Fn2  v108
 BYTE   N17  As2  v104
 BYTE   W18
 BYTE   N05  As2  v028
 BYTE   W30
// 028   ----------------------------------------
 BYTE   N03  Fn2  v108
 BYTE   N03  As2  v104
 BYTE   W06
 BYTE   N05  As2  v028
 BYTE   W06
 BYTE   Fn2  v112
 BYTE   N05  As2  v108
 BYTE   W06
 BYTE   N18  As2  v028
 BYTE   W18
 BYTE   N02  Fn2  v108
 BYTE   N03  As2  v104
 BYTE   W06
 BYTE   N05  As2  v028
 BYTE   W06
 BYTE   N17  Fn2  v108
 BYTE   N17  As2
 BYTE   W18
 BYTE   N05  As2  v028
 BYTE   W06
 BYTE   N76  Fn2  v116
 BYTE   N76  Cn3  v112
 BYTE   W78
// 029   ----------------------------------------
 BYTE   N03  An2  v104
 BYTE   W03
 BYTE   N04  As2  v092
 BYTE   W04
 BYTE   N03  Cn3  v096
 BYTE   W03
 BYTE   N04  Dn3  v124
 BYTE   W04
 BYTE   En3  v104
 BYTE   W04
 BYTE   N88  An2  v112
 BYTE   N88  Fn3  v104
 BYTE   W90
// 030   ----------------------------------------
 BYTE   N05  An2  v028
 BYTE   N05  Fn3
 BYTE   W06
 BYTE   GoTo
  POIN2 Label_0_01159D48
 BYTE   FINE

//**************** Track 2 (Midi-Chn.1) ****************//

FE07PreciousThingsRemixPandan_002:
// 000   ----------------------------------------
Label_1_0115A0BC:
 BYTE   TEMPO   132*FE07PreciousThingsRemixPandan_tbs/2
 BYTE   KEYSH   FE07PreciousThingsRemixPandan_key+0
 BYTE   VOICE   50
 BYTE   VOL   54*FE07PreciousThingsRemixPandan_mvl/mxv
 BYTE   PAN   c_v+0
 BYTE   N15  As1  v112
 BYTE   W18
 BYTE   N05  As1  v028
 BYTE   W18
 BYTE   N11  Fn1  v124
 BYTE   W12
 BYTE   N05  Fn1  v028
 BYTE   W24
 BYTE   N11  As1  v104
 BYTE   W12
 BYTE   N05  As1  v028
 BYTE   W12
// 001   ----------------------------------------
 BYTE   N17  Gs1  v116
 BYTE   W18
 BYTE   N05  Gs1  v028
 BYTE   W18
 BYTE   N11  Ds1  v112
 BYTE   W12
 BYTE   N05  Ds1  v028
 BYTE   W24
 BYTE   N11  Gs1  v116
 BYTE   W12
 BYTE   N05  Gs1  v028
 BYTE   W12
// 002   ----------------------------------------
 BYTE   N17  As1  v108
 BYTE   W18
 BYTE   N05  As1  v028
 BYTE   W18
 BYTE   N11  Fn1  v120
 BYTE   W12
 BYTE   N05  Fn1  v028
 BYTE   W24
 BYTE   N11  As1  v112
 BYTE   W12
 BYTE   N05  As1  v028
 BYTE   W12
// 003   ----------------------------------------
 BYTE   N17  Gs1  v120
 BYTE   W18
 BYTE   N05  Gs1  v028
 BYTE   W18
 BYTE   N11  Ds1  v116
 BYTE   W12
 BYTE   N05  Ds1  v028
 BYTE   W24
 BYTE   N04  Ds1  v088
 BYTE   W06
 BYTE   N05  Ds1  v044
 BYTE   W06
 BYTE   N11  Gs1  v100
 BYTE   W12
// 004   ----------------------------------------
Label_1_0115A12A:
 BYTE   N16  As1  v100
 BYTE   W18
 BYTE   N05  As1  v028
 BYTE   W18
 BYTE   N11  Fn1  v124
 BYTE   W12
 BYTE   N05  Fn1  v028
 BYTE   W24
 BYTE   N11  As1  v112
 BYTE   W12
 BYTE   N05  As1  v028
 BYTE   W12
 BYTE   PEND 
// 005   ----------------------------------------
 BYTE   N16  Gs1  v120
 BYTE   W18
 BYTE   N05  Gs1  v028
 BYTE   W18
 BYTE   N11  Ds1  v120
 BYTE   W12
 BYTE   N05  Ds1  v028
 BYTE   W24
 BYTE   N09  Gs1  v112
 BYTE   W12
 BYTE   N05  Gs1  v028
 BYTE   W12
// 006   ----------------------------------------
 BYTE   N17  As1  v116
 BYTE   W18
 BYTE   N05  As1  v028
 BYTE   W18
 BYTE   N11  Fn1  v127
 BYTE   W12
 BYTE   N05  Fn1  v028
 BYTE   W24
 BYTE   N11  As1  v120
 BYTE   W12
 BYTE   N05  As1  v028
 BYTE   W12
// 007   ----------------------------------------
 BYTE   N17  Gs1  v120
 BYTE   W18
 BYTE   N05  Gs1  v028
 BYTE   W18
 BYTE   N11  Ds1  v116
 BYTE   W12
 BYTE   N05  Ds1  v028
 BYTE   W12
 BYTE   N12  Ds1  v112
 BYTE   W12
 BYTE   N11  Gs1  v104
 BYTE   W12
 BYTE   N05  Gs1  v028
 BYTE   W12
// 008   ----------------------------------------
 BYTE   VOICE   75
 BYTE   VOL   46*FE07PreciousThingsRemixPandan_mvl/mxv
 BYTE   PAN   c_v+3
 BYTE   N84  Ds2  v092
 BYTE   N88  As2  v088
 BYTE   W96
// 009   ----------------------------------------
 BYTE   N90  An2  v112
 BYTE   N92  Ds2  v096
 BYTE   W96
// 010   ----------------------------------------
 BYTE   Dn2  v104
 BYTE   N92  An2  v108
 BYTE   W96
// 011   ----------------------------------------
 BYTE   N84  Gn1
 BYTE   N84  Dn2
 BYTE   W96
// 012   ----------------------------------------
 BYTE   N88  Cn2  v104
 BYTE   N88  Ds2  v112
 BYTE   W96
// 013   ----------------------------------------
 BYTE   N44  Cn2  v116
 BYTE   N44  En2  v120
 BYTE   W48
 BYTE   N42  Gn2  v108
 BYTE   W48
// 014   ----------------------------------------
 BYTE   N92  Fn2  v112
 BYTE   N92  Cn3  v108
 BYTE   W96
// 015   ----------------------------------------
 BYTE   N72  Fn2  v096
 BYTE   N76  An2  v112
 BYTE   W96
// 016   ----------------------------------------
 BYTE   VOICE   50
 BYTE   VOL   55*FE07PreciousThingsRemixPandan_mvl/mxv
 BYTE   PAN   c_v+0
 BYTE   N13  As1  v112
 BYTE   W18
 BYTE   N05  As1  v028
 BYTE   W18
 BYTE   N11  Fn1  v124
 BYTE   W12
 BYTE   N05  Fn1  v028
 BYTE   W24
 BYTE   N10  As1  v104
 BYTE   W12
 BYTE   N05  As1  v028
 BYTE   W12
// 017   ----------------------------------------
 BYTE   N16  Gs1  v116
 BYTE   W18
 BYTE   N05  Gs1  v028
 BYTE   W18
 BYTE   N11  Ds1  v112
 BYTE   W12
 BYTE   N05  Ds1  v028
 BYTE   W24
 BYTE   N10  Gs1  v116
 BYTE   W12
 BYTE   N05  Gs1  v028
 BYTE   W12
// 018   ----------------------------------------
 BYTE   N15  As1  v108
 BYTE   W18
 BYTE   N05  As1  v028
 BYTE   W18
 BYTE   N11  Fn1  v120
 BYTE   W12
 BYTE   N05  Fn1  v028
 BYTE   W24
 BYTE   N11  As1  v112
 BYTE   W12
 BYTE   N05  As1  v028
 BYTE   W12
// 019   ----------------------------------------
 BYTE   N17  Gs1  v120
 BYTE   W18
 BYTE   N05  Gs1  v028
 BYTE   W18
 BYTE   N11  Ds1  v116
 BYTE   W12
 BYTE   N05  Ds1  v028
 BYTE   W24
 BYTE   N10  Ds1  v088
 BYTE   W12
 BYTE   N11  Gs1  v100
 BYTE   W12
 BYTE   PATT
  POIN2 Label_1_0115A12A
// 020   ----------------------------------------
 BYTE   N15  Gs1  v120
 BYTE   W18
 BYTE   N05  Gs1  v028
 BYTE   W18
 BYTE   N11  Ds1  v120
 BYTE   W12
 BYTE   N05  Ds1  v028
 BYTE   W24
 BYTE   N08  Gs1  v112
 BYTE   W12
 BYTE   N05  Gs1  v028
 BYTE   W12
// 021   ----------------------------------------
 BYTE   N15  As1  v116
 BYTE   W18
 BYTE   N05  As1  v028
 BYTE   W18
 BYTE   N11  Fn1  v127
 BYTE   W12
 BYTE   N05  Fn1  v028
 BYTE   W24
 BYTE   N10  As1  v120
 BYTE   W12
 BYTE   N05  As1  v028
 BYTE   W12
// 022   ----------------------------------------
 BYTE   N16  Gs1  v120
 BYTE   W18
 BYTE   N05  Gs1  v028
 BYTE   W18
 BYTE   N11  Ds1  v116
 BYTE   W12
 BYTE   N05  Ds1  v028
 BYTE   W12
 BYTE   N04  Ds1  v112
 BYTE   W12
 BYTE   N11  Gs1  v104
 BYTE   W12
 BYTE   N06  Gs1  v028
 BYTE   W12
// 023   ----------------------------------------
 BYTE   VOICE   34
 BYTE   VOL   58*FE07PreciousThingsRemixPandan_mvl/mxv
 BYTE   N09  As2  v127
 BYTE   W36
 BYTE   As2
 BYTE   W48
 BYTE   N06  As2  v116
 BYTE   W12
// 024   ----------------------------------------
 BYTE   N08  Gs2
 BYTE   W36
 BYTE   N09  Gs2  v112
 BYTE   W36
 BYTE   N07
 BYTE   W12
 BYTE   N05  Gs2  v120
 BYTE   W12
// 025   ----------------------------------------
 BYTE   N08  Fs2  v127
 BYTE   W36
 BYTE   N09  Fs2  v120
 BYTE   W36
 BYTE   N05  Fs2  v112
 BYTE   W12
 BYTE   Fs2
 BYTE   W12
// 026   ----------------------------------------
 BYTE   N09  Fs2  v116
 BYTE   W36
 BYTE   N10  Fs2  v120
 BYTE   W36
 BYTE   N05  Fs2  v104
 BYTE   W12
 BYTE   N07
 BYTE   W12
// 027   ----------------------------------------
 BYTE   N08  Fn2  v112
 BYTE   W36
 BYTE   N36  Fn2  v116
 BYTE   W36
 BYTE   N05  Fn2  v108
 BYTE   W12
 BYTE   N12  Fn2  v104
 BYTE   W12
// 028   ----------------------------------------
Label_1_0115A2CC:
 BYTE   N10  Fn2  v112
 BYTE   W36
 BYTE   N09
 BYTE   W36
 BYTE   N05  Fn2  v104
 BYTE   W12
 BYTE   N06  Fn2  v100
 BYTE   W12
 BYTE   PEND 
// 029   ----------------------------------------
 BYTE   N07  Fn2  v108
 BYTE   W24
 BYTE   N09  Fn2  v116
 BYTE   W36
 BYTE   N05  Fn2  v112
 BYTE   W12
 BYTE   N16
 BYTE   W24
 BYTE   PATT
  POIN2 Label_1_0115A2CC
// 030   ----------------------------------------
 BYTE   GoTo
  POIN2 Label_1_0115A0BC
 BYTE   FINE

//**************** Track 3 (Midi-Chn.2) ****************//

FE07PreciousThingsRemixPandan_003:
// 000   ----------------------------------------
Label_2_0115A2F4:
 BYTE   TEMPO   132*FE07PreciousThingsRemixPandan_tbs/2
 BYTE   KEYSH   FE07PreciousThingsRemixPandan_key+0
 BYTE   VOICE   127
 BYTE   VOL   37*FE07PreciousThingsRemixPandan_mvl/mxv
 BYTE   PAN   c_v+0
 BYTE   N11  Dn1  v116
 BYTE   W36
 BYTE   N10
 BYTE   W24
 BYTE   N08  Dn1  v088
 BYTE   W12
 BYTE   N10  Dn1  v116
 BYTE   W12
 BYTE   N08  Dn1  v080
 BYTE   W12
// 001   ----------------------------------------
Label_2_0115A310:
 BYTE   N10  Dn1  v116
 BYTE   W12
 BYTE   N08  Dn1  v072
 BYTE   W24
 BYTE   N10  Dn1  v116
 BYTE   W24
 BYTE   N08  Dn1  v104
 BYTE   W12
 BYTE   N10  Dn1  v116
 BYTE   W12
 BYTE   N11  Ds1  v104
 BYTE   W12
 BYTE   PEND 
// 002   ----------------------------------------
Label_2_0115A329:
 BYTE   N10  Dn1  v116
 BYTE   W36
 BYTE   Dn1
 BYTE   W24
 BYTE   N07  Dn1  v084
 BYTE   W12
 BYTE   N10  Dn1  v116
 BYTE   W12
 BYTE   N08  Dn1  v088
 BYTE   W12
 BYTE   PEND 
// 003   ----------------------------------------
Label_2_0115A33C:
 BYTE   N10  Dn1  v116
 BYTE   W12
 BYTE   N08  Dn1  v112
 BYTE   W24
 BYTE   N09
 BYTE   W24
 BYTE   N12  Dn1  v104
 BYTE   W12
 BYTE   N23  Ds1  v127
 BYTE   W24
 BYTE   PEND 
// 004   ----------------------------------------
Label_2_0115A34F:
 BYTE   N11  Dn1  v116
 BYTE   W36
 BYTE   N10
 BYTE   W24
 BYTE   N08  Dn1  v088
 BYTE   W12
 BYTE   N10  Dn1  v116
 BYTE   W12
 BYTE   N08  Dn1  v080
 BYTE   W12
 BYTE   PEND 
 BYTE   PATT
  POIN2 Label_2_0115A310
 BYTE   PATT
  POIN2 Label_2_0115A329
 BYTE   PATT
  POIN2 Label_2_0115A33C
// 005   ----------------------------------------
Label_2_0115A371:
 BYTE   N11  Fs2  v084
 BYTE   W12
 BYTE   N17  Fs2  v008
 BYTE   W24
 BYTE   N11  Fs2  v072
 BYTE   W12
 BYTE   N12  Fs2  v084
 BYTE   W12
 BYTE   N17  Fs2  v008
 BYTE   W36
 BYTE   PEND 
 BYTE   PATT
  POIN2 Label_2_0115A371
 BYTE   PATT
  POIN2 Label_2_0115A371
 BYTE   PATT
  POIN2 Label_2_0115A371
 BYTE   PATT
  POIN2 Label_2_0115A34F
 BYTE   PATT
  POIN2 Label_2_0115A310
 BYTE   PATT
  POIN2 Label_2_0115A329
 BYTE   PATT
  POIN2 Label_2_0115A33C
 BYTE   PATT
  POIN2 Label_2_0115A34F
 BYTE   PATT
  POIN2 Label_2_0115A310
 BYTE   PATT
  POIN2 Label_2_0115A329
 BYTE   PATT
  POIN2 Label_2_0115A33C
 BYTE   PATT
  POIN2 Label_2_0115A34F
 BYTE   PATT
  POIN2 Label_2_0115A310
 BYTE   PATT
  POIN2 Label_2_0115A329
 BYTE   PATT
  POIN2 Label_2_0115A33C
// 006   ----------------------------------------
 BYTE   N10  Dn1  v104
 BYTE   W12
 BYTE   N05  Dn1  v056
 BYTE   W06
 BYTE   N06  Dn1  v068
 BYTE   W06
 BYTE   N08  Dn1  v052
 BYTE   W12
 BYTE   N24  Dn1  v064
 BYTE   W24
 BYTE   N09  Dn1  v060
 BYTE   W12
 BYTE   N12  Dn1  v068
 BYTE   W12
 BYTE   Dn1  v084
 BYTE   W12
// 007   ----------------------------------------
 BYTE   N10  Dn1  v104
 BYTE   W12
 BYTE   N05  Dn1  v064
 BYTE   W06
 BYTE   N06  Dn1  v068
 BYTE   W06
 BYTE   N09  Dn1  v084
 BYTE   W12
 BYTE   N08  Dn1  v072
 BYTE   W24
 BYTE   N12  Dn1  v080
 BYTE   W12
 BYTE   N09  Dn1  v088
 BYTE   W12
 BYTE   N08  Dn1  v092
 BYTE   W12
// 008   ----------------------------------------
 BYTE   N09  Dn1  v116
 BYTE   W12
 BYTE   N05  Dn1  v060
 BYTE   W06
 BYTE   N06  Dn1  v084
 BYTE   W06
 BYTE   N08  Dn1  v088
 BYTE   W12
 BYTE   N24  Dn1  v084
 BYTE   W24
 BYTE   N09
 BYTE   W12
 BYTE   N08  Dn1  v088
 BYTE   W12
 BYTE   N05  Dn1  v104
 BYTE   W06
 BYTE   N06  Dn1  v084
 BYTE   W06
// 009   ----------------------------------------
 BYTE   N09  Dn1  v116
 BYTE   W12
 BYTE   N08  Dn1  v096
 BYTE   W12
 BYTE   N09  Dn1  v088
 BYTE   W12
 BYTE   N05  Dn1  v100
 BYTE   W06
 BYTE   N06  Dn1  v084
 BYTE   W06
 BYTE   N09  Dn1  v088
 BYTE   W12
 BYTE   N05  Dn1  v092
 BYTE   W06
 BYTE   N06  Dn1  v088
 BYTE   W06
 BYTE   N08
 BYTE   W12
 BYTE   N05  Dn1  v092
 BYTE   W06
 BYTE   N06  Dn1  v088
 BYTE   W06
// 010   ----------------------------------------
Label_2_0115A45C:
 BYTE   N08  Dn1  v100
 BYTE   W12
 BYTE   N05  Dn1  v060
 BYTE   W06
 BYTE   N06  Dn1  v084
 BYTE   W06
 BYTE   N08
 BYTE   W12
 BYTE   N10  Dn1  v116
 BYTE   W24
 BYTE   N05  Dn1  v100
 BYTE   W06
 BYTE   N06  Dn1  v096
 BYTE   W06
 BYTE   N08  Dn1  v088
 BYTE   W12
 BYTE   N05  Dn1  v100
 BYTE   W06
 BYTE   N06  Dn1  v084
 BYTE   W06
 BYTE   PEND 
 BYTE   PATT
  POIN2 Label_2_0115A45C
// 011   ----------------------------------------
 BYTE   N08  Dn1  v100
 BYTE   W12
 BYTE   N05  Dn1  v060
 BYTE   W06
 BYTE   N06  Dn1  v084
 BYTE   W06
 BYTE   N08
 BYTE   W12
 BYTE   N10  Dn1  v116
 BYTE   W12
 BYTE   N08  Dn1  v100
 BYTE   W12
 BYTE   N05
 BYTE   W06
 BYTE   N06  Dn1  v096
 BYTE   W06
 BYTE   N08  Dn1  v088
 BYTE   W12
 BYTE   N05  Dn1  v100
 BYTE   W06
 BYTE   N06  Dn1  v084
 BYTE   W06
// 012   ----------------------------------------
 BYTE   N08  Dn1  v092
 BYTE   W12
 BYTE   N05  Dn1  v104
 BYTE   W06
 BYTE   N06  Dn1  v100
 BYTE   W06
 BYTE   N08  Dn1  v088
 BYTE   W12
 BYTE   N09  Dn1  v116
 BYTE   W24
 BYTE   Dn1
 BYTE   W12
 BYTE   N08
 BYTE   W12
 BYTE   N07  Dn1  v088
 BYTE   W12
// 013   ----------------------------------------
 BYTE   GoTo
  POIN2 Label_2_0115A2F4
 BYTE   FINE

//**************** Track 4 (Midi-Chn.3) ****************//

FE07PreciousThingsRemixPandan_004:
// 000   ----------------------------------------
Label_3_0115A4D4:
 BYTE   TEMPO   132*FE07PreciousThingsRemixPandan_tbs/2
 BYTE   KEYSH   FE07PreciousThingsRemixPandan_key+0
 BYTE   VOICE   100
 BYTE   VOL   50*FE07PreciousThingsRemixPandan_mvl/mxv
 BYTE   PAN   c_v-12
 BYTE   W24
 BYTE   N03  Fn2  v092
 BYTE   N04  As2  v100
 BYTE   W12
 BYTE   Fn2  v092
 BYTE   N04  As2  v100
 BYTE   W24
 BYTE   Fn2  v092
 BYTE   N04  As2  v100
 BYTE   W24
 BYTE   Fn2  v092
 BYTE   N04  As2  v100
 BYTE   W36
// 001   ----------------------------------------
 BYTE   N03  Ds2  v092
 BYTE   N04  As2  v100
 BYTE   W12
 BYTE   Ds2  v092
 BYTE   N04  As2  v100
 BYTE   W24
 BYTE   N03  Ds2  v092
 BYTE   N03  As2  v100
 BYTE   W24
 BYTE   N04  Ds2  v092
 BYTE   N05  As2  v100
 BYTE   W36
// 002   ----------------------------------------
 BYTE   N03  Fn2  v092
 BYTE   N04  As2  v100
 BYTE   W12
 BYTE   N03  Fn2  v092
 BYTE   N04  As2  v100
 BYTE   W24
 BYTE   N03  Fn2  v092
 BYTE   N03  As2  v100
 BYTE   W24
 BYTE   N04  Fn2  v092
 BYTE   N04  As2  v100
 BYTE   W36
// 003   ----------------------------------------
 BYTE   N02  Ds2  v092
 BYTE   N02  As2  v100
 BYTE   W12
 BYTE   N03  Ds2  v092
 BYTE   N03  As2  v100
 BYTE   W24
 BYTE   N02  Ds2  v092
 BYTE   N02  As2  v100
 BYTE   W12
 BYTE   N24  Ds2  v092
 BYTE   N24  As2  v100
 BYTE   W48
// 004   ----------------------------------------
 BYTE   N02  Fn2  v092
 BYTE   N03  As2  v100
 BYTE   W12
 BYTE   Fn2  v092
 BYTE   N03  As2  v100
 BYTE   W24
 BYTE   N04  Fn2  v092
 BYTE   N04  As2  v100
 BYTE   W24
 BYTE   N03  Fn2  v092
 BYTE   N04  As2  v100
 BYTE   W36
// 005   ----------------------------------------
 BYTE   N02  Ds2  v092
 BYTE   N03  As2  v100
 BYTE   W12
 BYTE   N04  Ds2  v092
 BYTE   N04  As2  v100
 BYTE   W24
 BYTE   N03  Ds2  v092
 BYTE   N04  As2  v100
 BYTE   W24
 BYTE   N03  Ds2  v092
 BYTE   N04  As2  v100
 BYTE   W36
// 006   ----------------------------------------
 BYTE   N02  Fn2  v092
 BYTE   N03  As2  v100
 BYTE   W12
 BYTE   N02  Fn2  v092
 BYTE   N04  As2  v100
 BYTE   W24
 BYTE   N03  Fn2  v092
 BYTE   N03  As2  v100
 BYTE   W24
 BYTE   N04  Fn2  v092
 BYTE   N04  As2  v100
 BYTE   W36
// 007   ----------------------------------------
 BYTE   N02  Ds2  v092
 BYTE   N03  Cn3  v100
 BYTE   W12
 BYTE   Ds2  v092
 BYTE   N03  Cn3  v100
 BYTE   W24
 BYTE   N32  Ds2  v092
 BYTE   N32  Cn3  v100
 BYTE   W36
 BYTE   VOICE   0
 BYTE   PAN   c_v+4
 BYTE   N64  As3  v076
 BYTE   W72
// 008   ----------------------------------------
 BYTE   N23  An3  v084
 BYTE   W24
 BYTE   N44  Gn3  v072
 BYTE   W48
 BYTE   N23  Fn3  v076
 BYTE   W24
// 009   ----------------------------------------
 BYTE   N24  Ds3  v080
 BYTE   W24
 BYTE   N44  Fn3  v072
 BYTE   W48
 BYTE   N48  Cn4  v088
 BYTE   W48
// 010   ----------------------------------------
 BYTE   N68  As3  v072
 BYTE   W72
 BYTE   N19  An3  v064
 BYTE   W24
// 011   ----------------------------------------
 BYTE   VOICE   101
 BYTE   VOL   46*FE07PreciousThingsRemixPandan_mvl/mxv
 BYTE   N02  Ds3  v092
 BYTE   N04  Gn3  v112
 BYTE   W12
 BYTE   N03  Ds3  v092
 BYTE   N03  Gn3  v112
 BYTE   W24
 BYTE   Ds3  v092
 BYTE   N03  Gn3  v112
 BYTE   W24
 BYTE   Ds3  v092
 BYTE   N03  Gn3  v112
 BYTE   W12
 BYTE   N14  Ds3  v092
 BYTE   N14  Gn3  v112
 BYTE   W18
 BYTE   N03  Ds3  v028
 BYTE   N03  Gn3
 BYTE   W30
// 012   ----------------------------------------
 BYTE   N04  En3  v092
 BYTE   N04  Gn3  v112
 BYTE   W12
 BYTE   N03  En3  v092
 BYTE   N04  Gn3  v112
 BYTE   W24
 BYTE   N03  En3  v092
 BYTE   N04  Gn3  v112
 BYTE   W12
 BYTE   N16  En3  v092
 BYTE   N17  Gn3  v112
 BYTE   W48
// 013   ----------------------------------------
 BYTE   N03  Cn4
 BYTE   N04  Fn3  v096
 BYTE   W12
 BYTE   Fn3
 BYTE   N05  Cn4  v112
 BYTE   W24
 BYTE   N03  Fn3  v096
 BYTE   N03  Cn4  v112
 BYTE   W12
 BYTE   N14  Fn3  v096
 BYTE   N15  Cn4  v112
 BYTE   W24
 BYTE   N44  Cn3  v096
 BYTE   N44  An3  v108
 BYTE   W48
// 014   ----------------------------------------
 BYTE   Cn3  v088
 BYTE   N44  Cn4  v100
 BYTE   W48
 BYTE   VOL   55*FE07PreciousThingsRemixPandan_mvl/mxv
 BYTE   N88  Fn3  v084
 BYTE   W24
 BYTE   N14  Fn2  v112
 BYTE   W18
 BYTE   N03  Fn2  v032
 BYTE   W06
// 015   ----------------------------------------
 BYTE   N14  As2  v112
 BYTE   W18
 BYTE   N03  As2  v032
 BYTE   W06
 BYTE   N14  Dn3  v108
 BYTE   W18
 BYTE   N03  Dn3  v032
 BYTE   N03  Fn3
 BYTE   W06
 BYTE   N48  Cn3  v104
 BYTE   N48  Ds3
 BYTE   W54
// 016   ----------------------------------------
 BYTE   N03  Cn3  v032
 BYTE   N03  Ds3
 BYTE   W06
 BYTE   N06  Cn3  v104
 BYTE   N06  Ds3
 BYTE   W08
 BYTE   N02  Cn3  v032
 BYTE   N02  Ds3
 BYTE   W04
 BYTE   N06  Dn3  v104
 BYTE   N06  Fn3
 BYTE   W08
 BYTE   N02  Dn3  v032
 BYTE   N02  Fn3
 BYTE   W04
 BYTE   N06  Ds3  v112
 BYTE   N06  Gn3
 BYTE   W08
 BYTE   N03  Ds3  v032
 BYTE   N03  Gn3
 BYTE   W04
 BYTE   N05  Cn3  v096
 BYTE   N05  Fn3  v112
 BYTE   W06
 BYTE   Cs3  v088
 BYTE   N05  Ds3  v104
 BYTE   W06
 BYTE   N56  Dn3  v088
 BYTE   N56  Fn3  v104
 BYTE   W60
// 017   ----------------------------------------
 BYTE   N03  Dn3  v032
 BYTE   N03  Fn3
 BYTE   W96
// 018   ----------------------------------------
 BYTE   W24
 BYTE   N44  Fn3  v120
 BYTE   N44  As3  v100
 BYTE   W54
 BYTE   N03  Fn3  v032
 BYTE   N03  As3
 BYTE   W06
 BYTE   N08  Dn3  v092
 BYTE   N08  Fn3  v112
 BYTE   W12
// 019   ----------------------------------------
 BYTE   Dn3  v088
 BYTE   N08  Fn3  v104
 BYTE   W12
 BYTE   As2  v084
 BYTE   N08  As3  v104
 BYTE   W12
 BYTE   N16  Gs3  v108
 BYTE   N22  As2  v088
 BYTE   W18
 BYTE   N03  Gs3  v032
 BYTE   W06
 BYTE   N17  Cn3  v084
 BYTE   N17  Gn3  v104
 BYTE   W24
 BYTE   N03  Cn3  v032
 BYTE   N03  Gn3
 BYTE   W12
 BYTE   N11  Dn3  v092
 BYTE   N11  Fn3  v112
 BYTE   W12
// 020   ----------------------------------------
 BYTE   Ds3  v084
 BYTE   N11  Gn3  v104
 BYTE   W12
 BYTE   Fn3  v084
 BYTE   N11  Gs3  v100
 BYTE   W12
 BYTE   N04  As3  v104
 BYTE   N05  Dn3  v088
 BYTE   W06
 BYTE   Ds3
 BYTE   N05  Cn4  v100
 BYTE   W06
 BYTE   N60  Dn4  v092
 BYTE   N64  Fn3  v088
 BYTE   W66
// 021   ----------------------------------------
 BYTE   N03  Fn3  v032
 BYTE   N03  Dn4
 BYTE   W30
 BYTE   N11  As2  v084
 BYTE   W12
 BYTE   N12  Cn3  v068
 BYTE   W12
 BYTE   Dn3  v100
 BYTE   W12
 BYTE   Cn3  v088
 BYTE   W12
 BYTE   Dn3  v096
 BYTE   W12
 BYTE   Ds3  v072
 BYTE   W12
// 022   ----------------------------------------
 BYTE   Fn3  v096
 BYTE   W12
 BYTE   PAN   c_v-12
 BYTE   N56  As2  v120
 BYTE   N88  Fn2  v092
 BYTE   W66
 BYTE   N03  As2  v032
 BYTE   W06
 BYTE   N08  As2  v116
 BYTE   W12
// 023   ----------------------------------------
 BYTE   N04  Cn3  v120
 BYTE   W12
 BYTE   N60  Dn3  v127
 BYTE   N88  As2  v092
 BYTE   W66
 BYTE   N03  Dn3  v032
 BYTE   W06
 BYTE   N11  Dn3  v116
 BYTE   W12
// 024   ----------------------------------------
 BYTE   N04  Ds3  v112
 BYTE   W12
 BYTE   N40  Fn3  v116
 BYTE   N88  As2  v092
 BYTE   W48
 BYTE   N32  Ds3  v112
 BYTE   W48
// 025   ----------------------------------------
 BYTE   N40  As2
 BYTE   N44  Gs2  v092
 BYTE   W48
 BYTE   N36  Cn3  v120
 BYTE   N44  Fs2  v096
 BYTE   W48
// 026   ----------------------------------------
 BYTE   N56  Fn2  v092
 BYTE   N56  Dn3  v120
 BYTE   W60
 BYTE   N11  Fn2  v112
 BYTE   W12
 BYTE   N12  As2  v120
 BYTE   W12
 BYTE   Dn3  v112
 BYTE   W12
// 027   ----------------------------------------
 BYTE   N32  As3
 BYTE   N88  Dn3  v096
 BYTE   W42
 BYTE   N03  As3  v032
 BYTE   W06
 BYTE   N32  Fn3  v116
 BYTE   W42
 BYTE   N03  Fn3  v032
 BYTE   W06
// 028   ----------------------------------------
 BYTE   N88  Fn3  v112
 BYTE   N90  Cn3  v092
 BYTE   W96
// 029   ----------------------------------------
 BYTE   N76  An2
 BYTE   N76  Cn4  v100
 BYTE   W96
// 030   ----------------------------------------
 BYTE   GoTo
  POIN2 Label_3_0115A4D4
 BYTE   FINE

//**************** Track 5 (Midi-Chn.4) ****************//

FE07PreciousThingsRemixPandan_005:
// 000   ----------------------------------------
Label_4_0115A7A4:
 BYTE   TEMPO   132*FE07PreciousThingsRemixPandan_tbs/2
 BYTE   KEYSH   FE07PreciousThingsRemixPandan_key+0
 BYTE   VOICE   47
 BYTE   VOL   53*FE07PreciousThingsRemixPandan_mvl/mxv
 BYTE   PAN   c_v-8
 BYTE   N32  As2  v112
 BYTE   W36
 BYTE   N36  Fn2  v124
 BYTE   W36
 BYTE   N23  As2  v104
 BYTE   W24
// 001   ----------------------------------------
 BYTE   N32  Gs2  v116
 BYTE   W36
 BYTE   N36  Ds2  v112
 BYTE   W36
 BYTE   N23  Gs2  v116
 BYTE   W24
// 002   ----------------------------------------
 BYTE   N32  As2  v108
 BYTE   W36
 BYTE   N36  Fn2  v120
 BYTE   W36
 BYTE   N23  As2  v112
 BYTE   W24
// 003   ----------------------------------------
 BYTE   N32  Gs2  v120
 BYTE   W36
 BYTE   N36  Ds2  v116
 BYTE   W36
 BYTE   N23  Gs2  v100
 BYTE   W24
// 004   ----------------------------------------
 BYTE   N32  As2
 BYTE   W36
 BYTE   N36  Fn2  v124
 BYTE   W36
 BYTE   N23  As2  v112
 BYTE   W24
// 005   ----------------------------------------
 BYTE   N32  Gs2  v120
 BYTE   W36
 BYTE   N36  Ds2
 BYTE   W36
 BYTE   N23  Gs2  v112
 BYTE   W24
// 006   ----------------------------------------
 BYTE   N32  As2  v116
 BYTE   W36
 BYTE   N36  Fn2  v127
 BYTE   W36
 BYTE   N23  As2  v120
 BYTE   W24
// 007   ----------------------------------------
 BYTE   N32  Gs2
 BYTE   W36
 BYTE   N23  Ds2  v116
 BYTE   W24
 BYTE   N11  Ds2  v112
 BYTE   W12
 BYTE   N76  Gs2  v104
 BYTE   W96
// 008   ----------------------------------------
 BYTE   W96
// 009   ----------------------------------------
 BYTE   W96
// 010   ----------------------------------------
 BYTE   W96
// 011   ----------------------------------------
 BYTE   W96
// 012   ----------------------------------------
 BYTE   W96
// 013   ----------------------------------------
 BYTE   W96
// 014   ----------------------------------------
 BYTE   W84
 BYTE   N11  Fn2
 BYTE   W12
// 015   ----------------------------------------
 BYTE   Fn2
 BYTE   W12
 BYTE   Fn2
 BYTE   W12
 BYTE   N32  As2  v112
 BYTE   W36
 BYTE   N36  Fn2  v124
 BYTE   W36
// 016   ----------------------------------------
 BYTE   N23  As2  v104
 BYTE   W24
 BYTE   N32  Gs2  v116
 BYTE   W36
 BYTE   N36  Ds2  v112
 BYTE   W36
// 017   ----------------------------------------
 BYTE   N23  Gs2  v116
 BYTE   W24
 BYTE   N32  As2  v108
 BYTE   W36
 BYTE   N36  Fn2  v120
 BYTE   W36
// 018   ----------------------------------------
 BYTE   N23  As2  v112
 BYTE   W24
 BYTE   N32  Gs2  v120
 BYTE   W36
 BYTE   N36  Ds2  v116
 BYTE   W36
// 019   ----------------------------------------
 BYTE   N23  Gs2  v100
 BYTE   W24
 BYTE   N32  As2
 BYTE   W36
 BYTE   N36  Fn2  v124
 BYTE   W36
// 020   ----------------------------------------
 BYTE   N23  As2  v112
 BYTE   W24
 BYTE   N32  Gs2  v120
 BYTE   W36
 BYTE   N36  Ds2
 BYTE   W36
// 021   ----------------------------------------
 BYTE   N23  Gs2  v112
 BYTE   W24
 BYTE   N32  As2  v116
 BYTE   W36
 BYTE   N36  Fn2  v127
 BYTE   W36
// 022   ----------------------------------------
 BYTE   N23  As2  v120
 BYTE   W24
 BYTE   N32  Gs2
 BYTE   W36
 BYTE   N23  Ds2  v116
 BYTE   W24
 BYTE   N11  Ds2  v112
 BYTE   W12
// 023   ----------------------------------------
 BYTE   N24  Gs2  v104
 BYTE   W96
// 024   ----------------------------------------
 BYTE   W96
// 025   ----------------------------------------
 BYTE   W96
// 026   ----------------------------------------
 BYTE   W96
// 027   ----------------------------------------
 BYTE   W96
// 028   ----------------------------------------
 BYTE   W96
// 029   ----------------------------------------
 BYTE   W96
// 030   ----------------------------------------
 BYTE   W84
 BYTE   N11  Fn2
 BYTE   W12
// 031   ----------------------------------------
 BYTE   Fn2
 BYTE   W12
 BYTE   Fn2
 BYTE   W12
 BYTE   GoTo
  POIN2 Label_4_0115A7A4
 BYTE   FINE

//**************** Track 6 (Midi-Chn.5) ****************//

FE07PreciousThingsRemixPandan_006:
// 000   ----------------------------------------
Label_5_0115A894:
 BYTE   TEMPO   132*FE07PreciousThingsRemixPandan_tbs/2
 BYTE   KEYSH   FE07PreciousThingsRemixPandan_key+0
 BYTE   W96
// 001   ----------------------------------------
 BYTE   W96
// 002   ----------------------------------------
 BYTE   W72
 BYTE   VOICE   60
 BYTE   VOL   50*FE07PreciousThingsRemixPandan_mvl/mxv
 BYTE   PAN   c_v-8
 BYTE   BEND   c_v+0
 BYTE   W48
// 003   ----------------------------------------
 BYTE   N23  Fn2  v120
 BYTE   W24
 BYTE   N24  As2
 BYTE   W24
 BYTE   Dn3
 BYTE   W24
 BYTE   N05  Dn3  v028
 BYTE   W96
// 004   ----------------------------------------
 BYTE   W96
// 005   ----------------------------------------
 BYTE   N56  Fn2  v120
 BYTE   W60
 BYTE   N05  Fn2  v028
 BYTE   W12
 BYTE   N11  As2  v112
 BYTE   W12
 BYTE   N12  Cn3  v116
 BYTE   W12
// 006   ----------------------------------------
 BYTE   N68  Dn3  v112
 BYTE   W72
 BYTE   N05  Dn3  v028
 BYTE   W96
// 007   ----------------------------------------
 BYTE   W48
 BYTE   N23  An2  v108
 BYTE   W24
 BYTE   N24  Cn3
 BYTE   W24
// 008   ----------------------------------------
 BYTE   N28  Fn3  v100
 BYTE   W48
 BYTE   N23  An2  v104
 BYTE   W24
 BYTE   N24  Dn3  v100
 BYTE   W24
// 009   ----------------------------------------
 BYTE   N28  Fn3
 BYTE   W48
 BYTE   N23  Gn2
 BYTE   W24
 BYTE   N24  As2
 BYTE   W24
// 010   ----------------------------------------
 BYTE   Dn3
 BYTE   W24
 BYTE   N80  Cn3  v108
 BYTE   W84
// 011   ----------------------------------------
 BYTE   N05  Cn3  v028
 BYTE   W12
 BYTE   N40  As2  v100
 BYTE   W42
 BYTE   N05  As2  v028
 BYTE   W06
 BYTE   N40  Gn2  v104
 BYTE   W42
// 012   ----------------------------------------
 BYTE   N05  Gn2  v028
 BYTE   W06
 BYTE   N56  An2  v112
 BYTE   W60
 BYTE   N05  An2  v028
 BYTE   W12
 BYTE   N17  Cn3  v108
 BYTE   W18
// 013   ----------------------------------------
 BYTE   N05  Cn3  v028
 BYTE   W06
 BYTE   N68  Fn3  v112
 BYTE   W72
 BYTE   N05  Fn3  v028
 BYTE   W96
// 014   ----------------------------------------
 BYTE   W96
// 015   ----------------------------------------
 BYTE   W24
 BYTE   VOICE   68
 BYTE   VOL   46*FE07PreciousThingsRemixPandan_mvl/mxv
 BYTE   PAN   c_v+8
 BYTE   BEND   c_v+0
 BYTE   W84
// 016   ----------------------------------------
 BYTE   N05  Fn3  v100
 BYTE   W06
 BYTE   N06  Ds3
 BYTE   W06
 BYTE   N32  Fn3  v104
 BYTE   W36
 BYTE   N17  As3  v100
 BYTE   W24
 BYTE   N11  An3
 BYTE   W12
 BYTE   N12  As3
 BYTE   W12
// 017   ----------------------------------------
 BYTE   Cn4  v104
 BYTE   W12
 BYTE   N05  Cn4  v028
 BYTE   W96
// 018   ----------------------------------------
 BYTE   W96
// 019   ----------------------------------------
 BYTE   W96
// 020   ----------------------------------------
 BYTE   N44  Cn4  v100
 BYTE   W48
 BYTE   N48  As3  v076
 BYTE   W96
// 021   ----------------------------------------
 BYTE   W96
// 022   ----------------------------------------
 BYTE   W96
// 023   ----------------------------------------
 BYTE   W96
// 024   ----------------------------------------
 BYTE   W96
// 025   ----------------------------------------
 BYTE   W96
// 026   ----------------------------------------
 BYTE   W96
// 027   ----------------------------------------
 BYTE   W96
// 028   ----------------------------------------
 BYTE   W48
 BYTE   GoTo
  POIN2 Label_5_0115A894
 BYTE   FINE

//******************************************************//
	ALIGN 4

FE07PreciousThingsRemixPandan:
	BYTE	6	// NumTrks
	BYTE	0	// NumBlks
	BYTE	FE07PreciousThingsRemixPandan_pri	// Priority
	BYTE	FE07PreciousThingsRemixPandan_rev	// Reverb.
    
	POIN2	FE07PreciousThingsRemixPandan_grp
    
	POIN2	FE07PreciousThingsRemixPandan_001
	POIN2	FE07PreciousThingsRemixPandan_002
	POIN2	FE07PreciousThingsRemixPandan_003
	POIN2	FE07PreciousThingsRemixPandan_004
	POIN2	FE07PreciousThingsRemixPandan_005
	POIN2	FE07PreciousThingsRemixPandan_006

	
