//Event file generated from Sappy .s format.
	#include "MPlayDef.event"

	#define	FE07AnUnexpectedCallerAlice_grp  voicegroup000
	#define	FE07AnUnexpectedCallerAlice_pri  10
	#define	FE07AnUnexpectedCallerAlice_rev  128
	#define	FE07AnUnexpectedCallerAlice_mvl  127
	#define	FE07AnUnexpectedCallerAlice_key  0
	#define	FE07AnUnexpectedCallerAlice_tbs  1
	#define	FE07AnUnexpectedCallerAlice_exg  0
	#define	FE07AnUnexpectedCallerAlice_cmp  1

	// .rodata
	//	FE07AnUnexpectedCallerAlice
	ALIGN 4


//**************** Track 1 (Midi-Chn.0) ****************//

FE07AnUnexpectedCallerAlice_001:
//  #01 //000   ----------------------------------------
 BYTE   KEYSH   FE07AnUnexpectedCallerAlice_key+0
Label_01023D8A:
 BYTE   TEMPO   144*FE07AnUnexpectedCallerAlice_tbs/2
 BYTE   VOICE   40
 BYTE   VOL   53*FE07AnUnexpectedCallerAlice_mvl/mxv
 BYTE   PAN   c_v+15
 BYTE   N11  Bn2  v092
 BYTE   W12
 BYTE   Cs3  v080
 BYTE   W12
 BYTE   Ds3
 BYTE   W12
 BYTE   Bn2  v092
 BYTE   W12
 BYTE   Cs3  v080
 BYTE   W12
 BYTE   Ds3
 BYTE   W12
 BYTE   Bn2  v092
 BYTE   W12
 BYTE   Cs3  v080
 BYTE   W12
//  #01 //001   ----------------------------------------
Label_01023DA9:
 BYTE   N11  Ds3  v080
 BYTE   W12
 BYTE   Fs3  v092
 BYTE   W12
 BYTE   Fn3  v080
 BYTE   W12
 BYTE   Cs3
 BYTE   W12
 BYTE   Fn3  v092
 BYTE   W12
 BYTE   Ds3
 BYTE   W12
 BYTE   Bn2
 BYTE   W12
 BYTE   Cs3
 BYTE   W12
 BYTE   PEND 
//  #01 //002   ----------------------------------------
Label_01023DBF:
 BYTE   N11  Bn2  v092
 BYTE   W12
 BYTE   Cs3  v080
 BYTE   W12
 BYTE   Ds3
 BYTE   W12
 BYTE   Bn2  v092
 BYTE   W12
 BYTE   Cs3  v080
 BYTE   W12
 BYTE   Ds3
 BYTE   W12
 BYTE   Bn2  v092
 BYTE   W12
 BYTE   Cs3  v080
 BYTE   W12
 BYTE   PEND 
//  #01 //003   ----------------------------------------
 BYTE   PATT
  POIN2 Label_01023DA9
//  #01 //004   ----------------------------------------
Label_01023DDC:
 BYTE   N11  Ds3  v100
 BYTE   W12
 BYTE   Fn3  v088
 BYTE   W12
 BYTE   Fs3
 BYTE   W12
 BYTE   Ds3  v100
 BYTE   W12
 BYTE   Fn3  v088
 BYTE   W12
 BYTE   Fs3
 BYTE   W12
 BYTE   As3  v100
 BYTE   W12
 BYTE   Gs3  v088
 BYTE   W12
 BYTE   PEND 
//  #01 //005   ----------------------------------------
Label_01023DF4:
 BYTE   N11  Fn3  v088
 BYTE   W12
 BYTE   Gs3  v100
 BYTE   W12
 BYTE   Fs3  v088
 BYTE   W12
 BYTE   Ds3
 BYTE   W12
 BYTE   Fs3  v100
 BYTE   W12
 BYTE   Fn3
 BYTE   W12
 BYTE   Cs3
 BYTE   W12
 BYTE   Fn3
 BYTE   W12
 BYTE   PEND 
//  #01 //006   ----------------------------------------
Label_01023E0A:
 BYTE   N11  Ds3  v100
 BYTE   W12
 BYTE   Fn3  v088
 BYTE   W12
 BYTE   Fs3
 BYTE   W12
 BYTE   Ds3  v100
 BYTE   W12
 BYTE   Fn3  v088
 BYTE   W12
 BYTE   Fs3
 BYTE   W12
 BYTE   Ds3  v100
 BYTE   W12
 BYTE   Fn3  v088
 BYTE   W12
 BYTE   PEND 
//  #01 //007   ----------------------------------------
Label_01023E22:
 BYTE   N11  Fs3  v088
 BYTE   W12
 BYTE   As3  v100
 BYTE   W12
 BYTE   Gs3  v088
 BYTE   W12
 BYTE   Fn3
 BYTE   W12
 BYTE   Gs3  v100
 BYTE   W12
 BYTE   Fs3
 BYTE   W12
 BYTE   Cs3
 BYTE   W12
 BYTE   Ds3
 BYTE   W11
 BYTE   VOL   53*FE07AnUnexpectedCallerAlice_mvl/mxv
 BYTE   W01
 BYTE   PEND 
//  #01 //008   ----------------------------------------
Label_01023E3B:
 BYTE   VOICE   40
 BYTE   VOL   56*FE07AnUnexpectedCallerAlice_mvl/mxv
 BYTE   PAN   c_v+0
 BYTE   W12
 BYTE   N12  Cs4  v084
 BYTE   W12
 BYTE   Bn3
 BYTE   W12
 BYTE   Fs3  v088
 BYTE   W12
 BYTE   As3  v092
 BYTE   W12
 BYTE   Gs3
 BYTE   W12
 BYTE   Ds3
 BYTE   W12
 BYTE   Fs3  v080
 BYTE   W12
 BYTE   PEND 
//  #01 //009   ----------------------------------------
Label_01023E56:
 BYTE   N12  Fn3  v096
 BYTE   W12
 BYTE   Cs3
 BYTE   W12
 BYTE   Ds3  v100
 BYTE   W12
 BYTE   As2  v088
 BYTE   W12
 BYTE   Gs2  v084
 BYTE   W12
 BYTE   Cs3  v088
 BYTE   W12
 BYTE   Ds3  v100
 BYTE   W12
 BYTE   Fs3  v076
 BYTE   W12
 BYTE   PEND 
//  #01 //010   ----------------------------------------
Label_01023E6F:
 BYTE   N12  Fs3  v020
 BYTE   W12
 BYTE   Cs4  v112
 BYTE   W12
 BYTE   As3  v080
 BYTE   W12
 BYTE   Fs3  v084
 BYTE   W12
 BYTE   As3  v092
 BYTE   W12
 BYTE   Gs3
 BYTE   W12
 BYTE   Ds3  v096
 BYTE   W12
 BYTE   Fs3  v072
 BYTE   W12
 BYTE   PEND 
//  #01 //011   ----------------------------------------
Label_01023E88:
 BYTE   N12  Fn3  v096
 BYTE   W12
 BYTE   Cs3  v092
 BYTE   W12
 BYTE   Ds3  v100
 BYTE   W12
 BYTE   As2  v088
 BYTE   W12
 BYTE   Gs2  v076
 BYTE   W12
 BYTE   Cs3  v092
 BYTE   W12
 BYTE   Ds3
 BYTE   W12
 BYTE   Fs3  v088
 BYTE   W12
 BYTE   PEND 
//  #01 //012   ----------------------------------------
Label_01023EA1:
 BYTE   N12  Fs3  v020
 BYTE   W12
 BYTE   Cs4  v108
 BYTE   W12
 BYTE   Bn3  v084
 BYTE   W12
 BYTE   Fs3  v088
 BYTE   W12
 BYTE   As3  v092
 BYTE   W12
 BYTE   Gs3
 BYTE   W12
 BYTE   Ds3  v104
 BYTE   W12
 BYTE   Fs3  v092
 BYTE   W12
 BYTE   PEND 
//  #01 //013   ----------------------------------------
Label_01023EBA:
 BYTE   N12  Fn3  v092
 BYTE   W12
 BYTE   Cs3  v084
 BYTE   W12
 BYTE   Ds3  v096
 BYTE   W12
 BYTE   As2  v088
 BYTE   W12
 BYTE   Gs2
 BYTE   W12
 BYTE   Cs3  v092
 BYTE   W12
 BYTE   Ds3  v100
 BYTE   W12
 BYTE   N11  Fs3  v088
 BYTE   W12
 BYTE   PEND 
//  #01 //014   ----------------------------------------
Label_01023ED4:
 BYTE   VOICE   61
 BYTE   W23
 BYTE   VOL   56*FE07AnUnexpectedCallerAlice_mvl/mxv
 BYTE   W01
 BYTE   VOL   58*FE07AnUnexpectedCallerAlice_mvl/mxv
 BYTE   W24
 BYTE   PAN   c_v+12
 BYTE   W36
 BYTE   N03  Bn2  v080
 BYTE   N03  Ds3  v104
 BYTE   W06
 BYTE   N02  Bn2  v020
 BYTE   N02  Ds3
 BYTE   W06
 BYTE   PEND 
//  #01 //015   ----------------------------------------
Label_01023EEE:
 BYTE   N24  Cs3  v096
 BYTE   N24  En3  v092
 BYTE   W30
 BYTE   N02  Cs3  v020
 BYTE   N02  En3
 BYTE   W06
 BYTE   N03  Ds3  v112
 BYTE   N03  Fs3  v092
 BYTE   W06
 BYTE   N02  Ds3  v020
 BYTE   N02  Fs3
 BYTE   W06
 BYTE   N24  Cs3  v092
 BYTE   N23  En3
 BYTE   W24
 BYTE   W03
 BYTE   N02  Cs3  v020
 BYTE   N02  En3
 BYTE   W09
 BYTE   N03  As2  v092
 BYTE   N03  Dn3
 BYTE   W06
 BYTE   N02  As2  v020
 BYTE   N02  Dn3
 BYTE   W06
 BYTE   PEND 
//  #01 //016   ----------------------------------------
Label_01023F22:
 BYTE   N96  Bn2  v092
 BYTE   N96  Ds3  v096
 BYTE   W96
 BYTE   PEND 
//  #01 //017   ----------------------------------------
 BYTE   N08  Bn2  v020
 BYTE   N08  Ds3
 BYTE   W96
//  #01 //018   ----------------------------------------
Label_01023F30:
 BYTE   N05  Ds3  v080
 BYTE   N05  Fs3
 BYTE   W06
 BYTE   Ds3  v020
 BYTE   N05  Fs3
 BYTE   W30
 BYTE   Ds3  v080
 BYTE   N05  Fs3
 BYTE   W06
 BYTE   Ds3  v020
 BYTE   N05  Fs3
 BYTE   W30
 BYTE   Ds3  v080
 BYTE   N05  Fs3
 BYTE   W06
 BYTE   Ds3  v020
 BYTE   N05  Fs3
 BYTE   W06
 BYTE   Ds3  v080
 BYTE   N05  Fs3
 BYTE   W06
 BYTE   Ds3  v020
 BYTE   N05  Fs3
 BYTE   W06
 BYTE   PEND 
//  #01 //019   ----------------------------------------
 BYTE   PATT
  POIN2 Label_01023F30
//  #01 //020   ----------------------------------------
 BYTE   PATT
  POIN2 Label_01023F30
//  #01 //021   ----------------------------------------
Label_01023F64:
 BYTE   N05  Ds3  v080
 BYTE   N05  Fs3
 BYTE   W06
 BYTE   Ds3  v020
 BYTE   N05  Fs3
 BYTE   W30
 BYTE   Ds3  v080
 BYTE   N05  Fs3
 BYTE   W06
 BYTE   Ds3  v020
 BYTE   N05  Fs3
 BYTE   W54
 BYTE   PEND 
//  #01 //022   ----------------------------------------
 BYTE   VOICE   48
 BYTE   W12
 BYTE   PAN   c_v+11
 BYTE   W12
 BYTE   N17  Cn3  v092
 BYTE   W18
 BYTE   N05  Cn3  v020
 BYTE   W06
 BYTE   N17  Cs3  v092
 BYTE   W18
 BYTE   N05  Cs3  v020
 BYTE   W06
 BYTE   N17  Ds3  v100
 BYTE   W18
 BYTE   N05  Ds3  v020
 BYTE   W06
//  #01 //023   ----------------------------------------
Label_01023F98:
 BYTE   N88  Fn3  v096
 BYTE   W90
 BYTE   N05  Fn3  v020
 BYTE   W06
 BYTE   PEND 
//  #01 //024   ----------------------------------------
 BYTE   W48
 BYTE   N44  Fs3  v084
 BYTE   W48
//  #01 //025   ----------------------------------------
Label_01023FA6:
 BYTE   N44  Gs3  v084
 BYTE   W48
 BYTE   Fs3
 BYTE   W48
 BYTE   PEND 
//  #01 //026   ----------------------------------------
Label_01023FAD:
 BYTE   TIE  Fn3  v088
 BYTE   W48
 BYTE   W03
 BYTE   VOL   58*FE07AnUnexpectedCallerAlice_mvl/mxv
 BYTE   W04
 BYTE   VOL   58*FE07AnUnexpectedCallerAlice_mvl/mxv
 BYTE   W02
 BYTE   VOL   57*FE07AnUnexpectedCallerAlice_mvl/mxv
 BYTE   W02
 BYTE   VOL   57*FE07AnUnexpectedCallerAlice_mvl/mxv
 BYTE   W02
 BYTE   VOL   56*FE07AnUnexpectedCallerAlice_mvl/mxv
 BYTE   W03
 BYTE   VOL   56*FE07AnUnexpectedCallerAlice_mvl/mxv
 BYTE   W02
 BYTE   VOL   55*FE07AnUnexpectedCallerAlice_mvl/mxv
 BYTE   W02
 BYTE   VOL   55*FE07AnUnexpectedCallerAlice_mvl/mxv
 BYTE   W02
 BYTE   VOL   54*FE07AnUnexpectedCallerAlice_mvl/mxv
 BYTE   W02
 BYTE   VOL   54*FE07AnUnexpectedCallerAlice_mvl/mxv
 BYTE   W02
 BYTE   VOL   53*FE07AnUnexpectedCallerAlice_mvl/mxv
 BYTE   W03
 BYTE   VOL   53*FE07AnUnexpectedCallerAlice_mvl/mxv
 BYTE   W02
 BYTE   VOL   52*FE07AnUnexpectedCallerAlice_mvl/mxv
 BYTE   W02
 BYTE   VOL   52*FE07AnUnexpectedCallerAlice_mvl/mxv
 BYTE   W02
 BYTE   VOL   51*FE07AnUnexpectedCallerAlice_mvl/mxv
 BYTE   W02
 BYTE   VOL   51*FE07AnUnexpectedCallerAlice_mvl/mxv
 BYTE   W02
 BYTE   VOL   50*FE07AnUnexpectedCallerAlice_mvl/mxv
 BYTE   W02
 BYTE   VOL   50*FE07AnUnexpectedCallerAlice_mvl/mxv
 BYTE   W03
 BYTE   VOL   49*FE07AnUnexpectedCallerAlice_mvl/mxv
 BYTE   W02
 BYTE   VOL   49*FE07AnUnexpectedCallerAlice_mvl/mxv
 BYTE   W02
 BYTE   PEND 
//  #01 //027   ----------------------------------------
Label_01023FEF:
 BYTE   VOL   48*FE07AnUnexpectedCallerAlice_mvl/mxv
 BYTE   W02
 BYTE   VOL   47*FE07AnUnexpectedCallerAlice_mvl/mxv
 BYTE   W02
 BYTE   VOL   47*FE07AnUnexpectedCallerAlice_mvl/mxv
 BYTE   W02
 BYTE   VOL   46*FE07AnUnexpectedCallerAlice_mvl/mxv
 BYTE   W02
 BYTE   VOL   46*FE07AnUnexpectedCallerAlice_mvl/mxv
 BYTE   W03
 BYTE   VOL   45*FE07AnUnexpectedCallerAlice_mvl/mxv
 BYTE   W02
 BYTE   VOL   45*FE07AnUnexpectedCallerAlice_mvl/mxv
 BYTE   W02
 BYTE   VOL   44*FE07AnUnexpectedCallerAlice_mvl/mxv
 BYTE   W02
 BYTE   VOL   44*FE07AnUnexpectedCallerAlice_mvl/mxv
 BYTE   W02
 BYTE   VOL   43*FE07AnUnexpectedCallerAlice_mvl/mxv
 BYTE   W02
 BYTE   VOL   43*FE07AnUnexpectedCallerAlice_mvl/mxv
 BYTE   W03
 BYTE   VOL   42*FE07AnUnexpectedCallerAlice_mvl/mxv
 BYTE   W02
 BYTE   VOL   42*FE07AnUnexpectedCallerAlice_mvl/mxv
 BYTE   W02
 BYTE   VOL   41*FE07AnUnexpectedCallerAlice_mvl/mxv
 BYTE   W02
 BYTE   VOL   41*FE07AnUnexpectedCallerAlice_mvl/mxv
 BYTE   W02
 BYTE   VOL   40*FE07AnUnexpectedCallerAlice_mvl/mxv
 BYTE   W02
 BYTE   VOL   40*FE07AnUnexpectedCallerAlice_mvl/mxv
 BYTE   W02
 BYTE   VOL   39*FE07AnUnexpectedCallerAlice_mvl/mxv
 BYTE   W03
 BYTE   VOL   39*FE07AnUnexpectedCallerAlice_mvl/mxv
 BYTE   W02
 BYTE   VOL   38*FE07AnUnexpectedCallerAlice_mvl/mxv
 BYTE   W02
 BYTE   VOL   38*FE07AnUnexpectedCallerAlice_mvl/mxv
 BYTE   W02
 BYTE   VOL   37*FE07AnUnexpectedCallerAlice_mvl/mxv
 BYTE   W02
 BYTE   VOL   37*FE07AnUnexpectedCallerAlice_mvl/mxv
 BYTE   W02
 BYTE   VOL   36*FE07AnUnexpectedCallerAlice_mvl/mxv
 BYTE   W02
 BYTE   VOL   36*FE07AnUnexpectedCallerAlice_mvl/mxv
 BYTE   W03
 BYTE   VOL   35*FE07AnUnexpectedCallerAlice_mvl/mxv
 BYTE   W02
 BYTE   VOL   35*FE07AnUnexpectedCallerAlice_mvl/mxv
 BYTE   W02
 BYTE   VOL   34*FE07AnUnexpectedCallerAlice_mvl/mxv
 BYTE   W02
 BYTE   VOL   34*FE07AnUnexpectedCallerAlice_mvl/mxv
 BYTE   W02
 BYTE   VOL   33*FE07AnUnexpectedCallerAlice_mvl/mxv
 BYTE   W02
 BYTE   VOL   33*FE07AnUnexpectedCallerAlice_mvl/mxv
 BYTE   W03
 BYTE   VOL   32*FE07AnUnexpectedCallerAlice_mvl/mxv
 BYTE   W02
 BYTE   VOL   32*FE07AnUnexpectedCallerAlice_mvl/mxv
 BYTE   W02
 BYTE   VOL   31*FE07AnUnexpectedCallerAlice_mvl/mxv
 BYTE   W02
 BYTE   VOL   31*FE07AnUnexpectedCallerAlice_mvl/mxv
 BYTE   W02
 BYTE   VOL   30*FE07AnUnexpectedCallerAlice_mvl/mxv
 BYTE   W02
 BYTE   VOL   30*FE07AnUnexpectedCallerAlice_mvl/mxv
 BYTE   W02
 BYTE   VOL   29*FE07AnUnexpectedCallerAlice_mvl/mxv
 BYTE   W03
 BYTE   VOL   29*FE07AnUnexpectedCallerAlice_mvl/mxv
 BYTE   W02
 BYTE   VOL   28*FE07AnUnexpectedCallerAlice_mvl/mxv
 BYTE   W02
 BYTE   VOL   28*FE07AnUnexpectedCallerAlice_mvl/mxv
 BYTE   W02
 BYTE   VOL   27*FE07AnUnexpectedCallerAlice_mvl/mxv
 BYTE   W01
 BYTE   PEND 
 BYTE   EOT
 BYTE   Fn3
 BYTE   W01
 BYTE   VOL   27*FE07AnUnexpectedCallerAlice_mvl/mxv
 BYTE   W02
 BYTE   VOL   26*FE07AnUnexpectedCallerAlice_mvl/mxv
 BYTE   W02
 BYTE   VOL   25*FE07AnUnexpectedCallerAlice_mvl/mxv
 BYTE   W01
 BYTE   VOL   25*FE07AnUnexpectedCallerAlice_mvl/mxv
 BYTE   W01
//  #01 //028   ----------------------------------------
 BYTE   N92  As3  v084
 BYTE   W10
 BYTE   VOL   25*FE07AnUnexpectedCallerAlice_mvl/mxv
 BYTE   W07
 BYTE   VOL   26*FE07AnUnexpectedCallerAlice_mvl/mxv
 BYTE   W10
 BYTE   VOL   27*FE07AnUnexpectedCallerAlice_mvl/mxv
 BYTE   W07
 BYTE   VOL   27*FE07AnUnexpectedCallerAlice_mvl/mxv
 BYTE   W05
 BYTE   VOL   28*FE07AnUnexpectedCallerAlice_mvl/mxv
 BYTE   W07
 BYTE   VOL   28*FE07AnUnexpectedCallerAlice_mvl/mxv
 BYTE   W07
 BYTE   VOL   29*FE07AnUnexpectedCallerAlice_mvl/mxv
 BYTE   W04
 BYTE   VOL   29*FE07AnUnexpectedCallerAlice_mvl/mxv
 BYTE   W05
 BYTE   VOL   30*FE07AnUnexpectedCallerAlice_mvl/mxv
 BYTE   W05
 BYTE   VOL   30*FE07AnUnexpectedCallerAlice_mvl/mxv
 BYTE   W04
 BYTE   VOL   31*FE07AnUnexpectedCallerAlice_mvl/mxv
 BYTE   W03
 BYTE   VOL   31*FE07AnUnexpectedCallerAlice_mvl/mxv
 BYTE   W05
 BYTE   VOL   32*FE07AnUnexpectedCallerAlice_mvl/mxv
 BYTE   W04
 BYTE   VOL   32*FE07AnUnexpectedCallerAlice_mvl/mxv
 BYTE   W03
 BYTE   VOL   33*FE07AnUnexpectedCallerAlice_mvl/mxv
 BYTE   W02
 BYTE   VOL   33*FE07AnUnexpectedCallerAlice_mvl/mxv
 BYTE   W05
 BYTE   VOL   34*FE07AnUnexpectedCallerAlice_mvl/mxv
 BYTE   W02
 BYTE   VOL   34*FE07AnUnexpectedCallerAlice_mvl/mxv
 BYTE   W01
//  #01 //029   ----------------------------------------
 BYTE   N88  Fn4  v088
 BYTE   W01
 BYTE   VOL   35*FE07AnUnexpectedCallerAlice_mvl/mxv
 BYTE   W03
 BYTE   VOL   35*FE07AnUnexpectedCallerAlice_mvl/mxv
 BYTE   W02
 BYTE   VOL   36*FE07AnUnexpectedCallerAlice_mvl/mxv
 BYTE   W02
 BYTE   VOL   36*FE07AnUnexpectedCallerAlice_mvl/mxv
 BYTE   W03
 BYTE   VOL   37*FE07AnUnexpectedCallerAlice_mvl/mxv
 BYTE   W02
 BYTE   VOL   37*FE07AnUnexpectedCallerAlice_mvl/mxv
 BYTE   W02
 BYTE   VOL   38*FE07AnUnexpectedCallerAlice_mvl/mxv
 BYTE   W03
 BYTE   VOL   38*FE07AnUnexpectedCallerAlice_mvl/mxv
 BYTE   W02
 BYTE   VOL   39*FE07AnUnexpectedCallerAlice_mvl/mxv
 BYTE   W02
 BYTE   VOL   40*FE07AnUnexpectedCallerAlice_mvl/mxv
 BYTE   W03
 BYTE   VOL   40*FE07AnUnexpectedCallerAlice_mvl/mxv
 BYTE   W02
 BYTE   VOL   41*FE07AnUnexpectedCallerAlice_mvl/mxv
 BYTE   W03
 BYTE   VOL   42*FE07AnUnexpectedCallerAlice_mvl/mxv
 BYTE   W02
 BYTE   VOL   43*FE07AnUnexpectedCallerAlice_mvl/mxv
 BYTE   W02
 BYTE   VOL   44*FE07AnUnexpectedCallerAlice_mvl/mxv
 BYTE   W03
 BYTE   VOL   45*FE07AnUnexpectedCallerAlice_mvl/mxv
 BYTE   W02
 BYTE   VOL   46*FE07AnUnexpectedCallerAlice_mvl/mxv
 BYTE   W02
 BYTE   VOL   47*FE07AnUnexpectedCallerAlice_mvl/mxv
 BYTE   W03
 BYTE   VOL   49*FE07AnUnexpectedCallerAlice_mvl/mxv
 BYTE   W02
 BYTE   VOL   50*FE07AnUnexpectedCallerAlice_mvl/mxv
 BYTE   W02
 BYTE   VOL   51*FE07AnUnexpectedCallerAlice_mvl/mxv
 BYTE   W03
 BYTE   VOL   53*FE07AnUnexpectedCallerAlice_mvl/mxv
 BYTE   W02
 BYTE   VOL   54*FE07AnUnexpectedCallerAlice_mvl/mxv
 BYTE   W02
 BYTE   VOL   56*FE07AnUnexpectedCallerAlice_mvl/mxv
 BYTE   W03
 BYTE   VOL   59*FE07AnUnexpectedCallerAlice_mvl/mxv
 BYTE   W36
 BYTE   W02
//  #01 //030   ----------------------------------------
 BYTE   VOICE   61
 BYTE   VOL   53*FE07AnUnexpectedCallerAlice_mvl/mxv
 BYTE   PAN   c_v+15
 BYTE   N11  Bn2  v092
 BYTE   W12
 BYTE   Cs3  v080
 BYTE   W12
 BYTE   Ds3
 BYTE   W12
 BYTE   Bn2  v092
 BYTE   W12
 BYTE   Cs3  v080
 BYTE   W12
 BYTE   Ds3
 BYTE   W12
 BYTE   Bn2  v092
 BYTE   W12
 BYTE   Cs3  v080
 BYTE   W12
//  #01 //031   ----------------------------------------
 BYTE   PATT
  POIN2 Label_01023DA9
//  #01 //032   ----------------------------------------
 BYTE   PATT
  POIN2 Label_01023DBF
//  #01 //033   ----------------------------------------
 BYTE   N11  Ds3  v080
 BYTE   W12
 BYTE   Fs3  v092
 BYTE   W12
 BYTE   Fn3  v080
 BYTE   W12
 BYTE   Cs3
 BYTE   W12
 BYTE   Fn3  v092
 BYTE   W12
 BYTE   Ds3
 BYTE   W12
 BYTE   Bn2
 BYTE   W12
 BYTE   N09  Cs3
 BYTE   W12
//  #01 //034   ----------------------------------------
 BYTE   PATT
  POIN2 Label_01023DDC
//  #01 //035   ----------------------------------------
 BYTE   PATT
  POIN2 Label_01023DF4
//  #01 //036   ----------------------------------------
 BYTE   PATT
  POIN2 Label_01023E0A
//  #01 //037   ----------------------------------------
 BYTE   PATT
  POIN2 Label_01023E22
//  #01 //038   ----------------------------------------
 BYTE   PATT
  POIN2 Label_01023E3B
//  #01 //039   ----------------------------------------
 BYTE   PATT
  POIN2 Label_01023E56
//  #01 //040   ----------------------------------------
 BYTE   PATT
  POIN2 Label_01023E6F
//  #01 //041   ----------------------------------------
 BYTE   PATT
  POIN2 Label_01023E88
//  #01 //042   ----------------------------------------
 BYTE   PATT
  POIN2 Label_01023EA1
//  #01 //043   ----------------------------------------
 BYTE   PATT
  POIN2 Label_01023EBA
//  #01 //044   ----------------------------------------
 BYTE   PATT
  POIN2 Label_01023ED4
//  #01 //045   ----------------------------------------
 BYTE   PATT
  POIN2 Label_01023EEE
//  #01 //046   ----------------------------------------
 BYTE   PATT
  POIN2 Label_01023F22
//  #01 //047   ----------------------------------------
 BYTE   N08  Bn2  v020
 BYTE   N08  Ds3
 BYTE   W96
//  #01 //048   ----------------------------------------
 BYTE   VOICE   45
 BYTE   VOL   58*FE07AnUnexpectedCallerAlice_mvl/mxv
 BYTE   PAN   c_v+12
 BYTE   N05  Ds3  v080
 BYTE   N05  Fs3
 BYTE   W06
 BYTE   Ds3  v020
 BYTE   N05  Fs3
 BYTE   W30
 BYTE   Ds3  v080
 BYTE   N05  Fs3
 BYTE   W06
 BYTE   Ds3  v020
 BYTE   N05  Fs3
 BYTE   W30
 BYTE   Ds3  v080
 BYTE   N05  Fs3
 BYTE   W06
 BYTE   Ds3  v020
 BYTE   N05  Fs3
 BYTE   W18
//  #01 //049   ----------------------------------------
Label_010241B0:
 BYTE   N05  Ds3  v080
 BYTE   N05  Fs3
 BYTE   W06
 BYTE   Ds3  v020
 BYTE   N05  Fs3
 BYTE   W30
 BYTE   Ds3  v080
 BYTE   N05  Fs3
 BYTE   W06
 BYTE   Ds3  v020
 BYTE   N05  Fs3
 BYTE   W30
 BYTE   Ds3  v080
 BYTE   N05  Fs3
 BYTE   W06
 BYTE   Ds3  v020
 BYTE   N05  Fs3
 BYTE   W18
 BYTE   PEND 
//  #01 //050   ----------------------------------------
 BYTE   PATT
  POIN2 Label_010241B0
//  #01 //051   ----------------------------------------
 BYTE   PATT
  POIN2 Label_01023F64
//  #01 //052   ----------------------------------------
 BYTE   VOICE   48
 BYTE   W12
 BYTE   PAN   c_v+11
 BYTE   W12
 BYTE   N17  Cn3  v092
 BYTE   W18
 BYTE   N05  Cn3  v020
 BYTE   W06
 BYTE   N17  Cs3  v092
 BYTE   W18
 BYTE   N05  Cs3  v020
 BYTE   W06
 BYTE   N17  Ds3  v092
 BYTE   W18
 BYTE   N05  Ds3  v020
 BYTE   W06
//  #01 //053   ----------------------------------------
 BYTE   PATT
  POIN2 Label_01023F98
//  #01 //054   ----------------------------------------
 BYTE   N76  Fs3  v084
 BYTE   W84
 BYTE   N11  Fn3  v100
 BYTE   W12
//  #01 //055   ----------------------------------------
 BYTE   PATT
  POIN2 Label_01023FA6
//  #01 //056   ----------------------------------------
 BYTE   PATT
  POIN2 Label_01023FAD
//  #01 //057   ----------------------------------------
 BYTE   PATT
  POIN2 Label_01023FEF
//  #01 //058   ----------------------------------------
 BYTE   EOT
 BYTE   Fn3
 BYTE   W01
 BYTE   VOL   27*FE07AnUnexpectedCallerAlice_mvl/mxv
 BYTE   W02
 BYTE   VOL   26*FE07AnUnexpectedCallerAlice_mvl/mxv
 BYTE   W02
 BYTE   VOL   25*FE07AnUnexpectedCallerAlice_mvl/mxv
 BYTE   W01
 BYTE   VOL   25*FE07AnUnexpectedCallerAlice_mvl/mxv
 BYTE   W01
 BYTE   N92  Fn3  v088
 BYTE   W10
 BYTE   VOL   25*FE07AnUnexpectedCallerAlice_mvl/mxv
 BYTE   W07
 BYTE   VOL   26*FE07AnUnexpectedCallerAlice_mvl/mxv
 BYTE   W10
 BYTE   VOL   27*FE07AnUnexpectedCallerAlice_mvl/mxv
 BYTE   W07
 BYTE   VOL   27*FE07AnUnexpectedCallerAlice_mvl/mxv
 BYTE   W05
 BYTE   VOL   28*FE07AnUnexpectedCallerAlice_mvl/mxv
 BYTE   W07
 BYTE   VOL   28*FE07AnUnexpectedCallerAlice_mvl/mxv
 BYTE   W07
 BYTE   VOL   29*FE07AnUnexpectedCallerAlice_mvl/mxv
 BYTE   W04
 BYTE   VOL   29*FE07AnUnexpectedCallerAlice_mvl/mxv
 BYTE   W05
 BYTE   VOL   30*FE07AnUnexpectedCallerAlice_mvl/mxv
 BYTE   W05
 BYTE   VOL   30*FE07AnUnexpectedCallerAlice_mvl/mxv
 BYTE   W04
 BYTE   VOL   31*FE07AnUnexpectedCallerAlice_mvl/mxv
 BYTE   W03
 BYTE   VOL   31*FE07AnUnexpectedCallerAlice_mvl/mxv
 BYTE   W05
 BYTE   VOL   32*FE07AnUnexpectedCallerAlice_mvl/mxv
 BYTE   W04
 BYTE   VOL   32*FE07AnUnexpectedCallerAlice_mvl/mxv
 BYTE   W03
 BYTE   VOL   33*FE07AnUnexpectedCallerAlice_mvl/mxv
 BYTE   W02
 BYTE   VOL   33*FE07AnUnexpectedCallerAlice_mvl/mxv
 BYTE   W05
//  #01 //059   ----------------------------------------
 BYTE   VOL   34*FE07AnUnexpectedCallerAlice_mvl/mxv
 BYTE   W02
 BYTE   VOL   34*FE07AnUnexpectedCallerAlice_mvl/mxv
 BYTE   W01
 BYTE   N17  As2
 BYTE   W01
 BYTE   VOL   35*FE07AnUnexpectedCallerAlice_mvl/mxv
 BYTE   W03
 BYTE   VOL   35*FE07AnUnexpectedCallerAlice_mvl/mxv
 BYTE   W02
 BYTE   VOL   36*FE07AnUnexpectedCallerAlice_mvl/mxv
 BYTE   W02
 BYTE   VOL   36*FE07AnUnexpectedCallerAlice_mvl/mxv
 BYTE   W03
 BYTE   VOL   37*FE07AnUnexpectedCallerAlice_mvl/mxv
 BYTE   W02
 BYTE   VOL   37*FE07AnUnexpectedCallerAlice_mvl/mxv
 BYTE   W02
 BYTE   VOL   38*FE07AnUnexpectedCallerAlice_mvl/mxv
 BYTE   W03
 BYTE   VOL   38*FE07AnUnexpectedCallerAlice_mvl/mxv
 BYTE   W02
 BYTE   VOL   39*FE07AnUnexpectedCallerAlice_mvl/mxv
 BYTE   W02
 BYTE   VOL   40*FE07AnUnexpectedCallerAlice_mvl/mxv
 BYTE   W02
 BYTE   N17  Fn3
 BYTE   W01
 BYTE   VOL   40*FE07AnUnexpectedCallerAlice_mvl/mxv
 BYTE   W02
 BYTE   VOL   41*FE07AnUnexpectedCallerAlice_mvl/mxv
 BYTE   W03
 BYTE   VOL   42*FE07AnUnexpectedCallerAlice_mvl/mxv
 BYTE   W02
 BYTE   VOL   43*FE07AnUnexpectedCallerAlice_mvl/mxv
 BYTE   W02
 BYTE   VOL   44*FE07AnUnexpectedCallerAlice_mvl/mxv
 BYTE   W03
 BYTE   VOL   45*FE07AnUnexpectedCallerAlice_mvl/mxv
 BYTE   W02
 BYTE   VOL   46*FE07AnUnexpectedCallerAlice_mvl/mxv
 BYTE   W02
 BYTE   VOL   47*FE07AnUnexpectedCallerAlice_mvl/mxv
 BYTE   W03
 BYTE   VOL   49*FE07AnUnexpectedCallerAlice_mvl/mxv
 BYTE   W02
 BYTE   VOL   50*FE07AnUnexpectedCallerAlice_mvl/mxv
 BYTE   W02
 BYTE   VOL   51*FE07AnUnexpectedCallerAlice_mvl/mxv
 BYTE   N17  As3
 BYTE   W03
 BYTE   VOL   53*FE07AnUnexpectedCallerAlice_mvl/mxv
 BYTE   W02
 BYTE   VOL   54*FE07AnUnexpectedCallerAlice_mvl/mxv
 BYTE   W02
 BYTE   VOL   56*FE07AnUnexpectedCallerAlice_mvl/mxv
 BYTE   W03
 BYTE   VOL   59*FE07AnUnexpectedCallerAlice_mvl/mxv
 BYTE   W14
 BYTE   N17  Fn4
 BYTE   W24
//  #01 //060   ----------------------------------------
 BYTE   GoTo
  POIN2 Label_01023D8A
 BYTE   FINE

//**************** Track 2 (Midi-Chn.1) ****************//

FE07AnUnexpectedCallerAlice_002:
//  #02 //000   ----------------------------------------
 BYTE   KEYSH   FE07AnUnexpectedCallerAlice_key+0
Label_010242BE:
 BYTE   VOICE   58
 BYTE   VOL   48*FE07AnUnexpectedCallerAlice_mvl/mxv
 BYTE   PAN   c_v-1
 BYTE   N11  Gs2  v112
 BYTE   W36
 BYTE   Gs2  v096
 BYTE   W36
 BYTE   Gs2  v100
 BYTE   W24
 BYTE   PEND 
//  #02 //001   ----------------------------------------
Label_010242CF:
 BYTE   W12
 BYTE   N11  Gs2  v104
 BYTE   W36
 BYTE   N11
 BYTE   W24
 BYTE   N11
 BYTE   W24
 BYTE   PEND 
//  #02 //002   ----------------------------------------
Label_010242D9:
 BYTE   N11  Gs2  v112
 BYTE   W36
 BYTE   Gs2  v096
 BYTE   W36
 BYTE   Gs2  v100
 BYTE   W24
 BYTE   PEND 
//  #02 //003   ----------------------------------------
 BYTE   PATT
  POIN2 Label_010242CF
//  #02 //004   ----------------------------------------
 BYTE   PATT
  POIN2 Label_010242D9
//  #02 //005   ----------------------------------------
 BYTE   PATT
  POIN2 Label_010242CF
//  #02 //006   ----------------------------------------
 BYTE   PATT
  POIN2 Label_010242D9
//  #02 //007   ----------------------------------------
 BYTE   PATT
  POIN2 Label_010242CF
//  #02 //008   ----------------------------------------
 BYTE   TIE  Bn2  v108
 BYTE   W96
//  #02 //009   ----------------------------------------
 BYTE   W80
 BYTE   W03
 BYTE   EOT
 BYTE   W13
//  #02 //010   ----------------------------------------
 BYTE   TIE  As2  v088
 BYTE   W96
//  #02 //011   ----------------------------------------
 BYTE   W80
 BYTE   W03
 BYTE   EOT
 BYTE   W13
//  #02 //012   ----------------------------------------
 BYTE   TIE  An2  v100
 BYTE   W96
//  #02 //013   ----------------------------------------
 BYTE   W80
 BYTE   W03
 BYTE   EOT
 BYTE   W13
//  #02 //014   ----------------------------------------
Label_01024315:
 BYTE   N10  Gs2  v104
 BYTE   W24
 BYTE   Gs2  v092
 BYTE   W24
 BYTE   Gs2  v100
 BYTE   W24
 BYTE   N10
 BYTE   W24
 BYTE   PEND 
//  #02 //015   ----------------------------------------
Label_01024322:
 BYTE   N10  Gs2  v096
 BYTE   W24
 BYTE   Gs2  v108
 BYTE   W24
 BYTE   Gs2  v100
 BYTE   W24
 BYTE   N10
 BYTE   W24
 BYTE   PEND 
//  #02 //016   ----------------------------------------
Label_0102432F:
 BYTE   N10  Gs2  v108
 BYTE   W24
 BYTE   Gs2  v096
 BYTE   W24
 BYTE   Gs2  v092
 BYTE   W24
 BYTE   Gs2  v096
 BYTE   W24
 BYTE   PEND 
//  #02 //017   ----------------------------------------
Label_0102433D:
 BYTE   N10  Gs2  v108
 BYTE   W24
 BYTE   Gs2  v096
 BYTE   W24
 BYTE   N10
 BYTE   W24
 BYTE   Gs2  v088
 BYTE   W24
 BYTE   PEND 
//  #02 //018   ----------------------------------------
Label_0102434A:
 BYTE   N08  Bn2  v104
 BYTE   W24
 BYTE   N09  Bn2  v092
 BYTE   W24
 BYTE   N11
 BYTE   W24
 BYTE   N10  Bn2  v084
 BYTE   W24
 BYTE   PEND 
//  #02 //019   ----------------------------------------
Label_01024359:
 BYTE   N10  Bn2  v084
 BYTE   W24
 BYTE   N08
 BYTE   W24
 BYTE   N11  Bn2  v096
 BYTE   W24
 BYTE   N08  Bn2  v108
 BYTE   W24
 BYTE   PEND 
//  #02 //020   ----------------------------------------
Label_01024368:
 BYTE   N09  Bn2  v100
 BYTE   W24
 BYTE   N08  Bn2  v092
 BYTE   W24
 BYTE   N11  Bn2  v088
 BYTE   W24
 BYTE   N08  Bn2  v084
 BYTE   W24
 BYTE   PEND 
//  #02 //021   ----------------------------------------
Label_01024379:
 BYTE   N09  Bn2  v084
 BYTE   W24
 BYTE   N08  Bn2  v088
 BYTE   W24
 BYTE   N11  Bn2  v096
 BYTE   W24
 BYTE   N19  Bn2  v084
 BYTE   W24
 BYTE   PEND 
//  #02 //022   ----------------------------------------
Label_0102438A:
 BYTE   N08  As2  v088
 BYTE   W24
 BYTE   N09  As2  v096
 BYTE   W24
 BYTE   N07  As2  v084
 BYTE   W24
 BYTE   N11  As2  v096
 BYTE   W24
 BYTE   PEND 
//  #02 //023   ----------------------------------------
Label_0102439B:
 BYTE   N08  As2  v084
 BYTE   W24
 BYTE   N09  As2  v100
 BYTE   W24
 BYTE   N08  As2  v092
 BYTE   W24
 BYTE   N11  As2  v084
 BYTE   W24
 BYTE   PEND 
//  #02 //024   ----------------------------------------
Label_010243AC:
 BYTE   N08  Bn2  v088
 BYTE   W24
 BYTE   N11  Bn2  v096
 BYTE   W24
 BYTE   N08  Bn2  v100
 BYTE   W24
 BYTE   Bn2  v104
 BYTE   W24
 BYTE   PEND 
//  #02 //025   ----------------------------------------
Label_010243BC:
 BYTE   N08  Bn2  v092
 BYTE   W24
 BYTE   Bn2  v088
 BYTE   W24
 BYTE   Bn2  v096
 BYTE   W24
 BYTE   N19  Bn2  v084
 BYTE   W24
 BYTE   PEND 
//  #02 //026   ----------------------------------------
Label_010243CB:
 BYTE   N08  As2  v084
 BYTE   W24
 BYTE   As2  v100
 BYTE   W24
 BYTE   As2  v108
 BYTE   W24
 BYTE   N09  As2  v096
 BYTE   W24
 BYTE   PEND 
//  #02 //027   ----------------------------------------
Label_010243DA:
 BYTE   N08  As2  v096
 BYTE   W24
 BYTE   N10  As2  v092
 BYTE   W24
 BYTE   N08  As2  v096
 BYTE   W24
 BYTE   N08
 BYTE   W24
 BYTE   PEND 
//  #02 //028   ----------------------------------------
Label_010243E9:
 BYTE   N08  As2  v088
 BYTE   W24
 BYTE   As2  v096
 BYTE   W24
 BYTE   N08
 BYTE   W24
 BYTE   N09  As2  v100
 BYTE   W24
 BYTE   PEND 
//  #02 //029   ----------------------------------------
Label_010243F7:
 BYTE   N08  As2  v100
 BYTE   W24
 BYTE   N09  As2  v084
 BYTE   W24
 BYTE   N08  As2  v100
 BYTE   W24
 BYTE   N10  As2  v096
 BYTE   W24
 BYTE   PEND 
//  #02 //030   ----------------------------------------
 BYTE   PATT
  POIN2 Label_010242BE
//  #02 //031   ----------------------------------------
 BYTE   PATT
  POIN2 Label_010242CF
//  #02 //032   ----------------------------------------
 BYTE   PATT
  POIN2 Label_010242D9
//  #02 //033   ----------------------------------------
 BYTE   PATT
  POIN2 Label_010242CF
//  #02 //034   ----------------------------------------
 BYTE   PATT
  POIN2 Label_010242D9
//  #02 //035   ----------------------------------------
 BYTE   PATT
  POIN2 Label_010242CF
//  #02 //036   ----------------------------------------
 BYTE   PATT
  POIN2 Label_010242D9
//  #02 //037   ----------------------------------------
 BYTE   PATT
  POIN2 Label_010242CF
//  #02 //038   ----------------------------------------
 BYTE   TIE  Bn2  v108
 BYTE   W96
//  #02 //039   ----------------------------------------
 BYTE   W80
 BYTE   W03
 BYTE   EOT
 BYTE   W13
//  #02 //040   ----------------------------------------
 BYTE   TIE  As2  v088
 BYTE   W96
//  #02 //041   ----------------------------------------
 BYTE   W80
 BYTE   W03
 BYTE   EOT
 BYTE   W13
//  #02 //042   ----------------------------------------
 BYTE   TIE  An2  v100
 BYTE   W96
//  #02 //043   ----------------------------------------
 BYTE   W80
 BYTE   W03
 BYTE   EOT
 BYTE   W13
//  #02 //044   ----------------------------------------
 BYTE   PATT
  POIN2 Label_01024315
//  #02 //045   ----------------------------------------
 BYTE   PATT
  POIN2 Label_01024322
//  #02 //046   ----------------------------------------
 BYTE   PATT
  POIN2 Label_0102432F
//  #02 //047   ----------------------------------------
 BYTE   PATT
  POIN2 Label_0102433D
//  #02 //048   ----------------------------------------
 BYTE   PATT
  POIN2 Label_0102434A
//  #02 //049   ----------------------------------------
 BYTE   PATT
  POIN2 Label_01024359
//  #02 //050   ----------------------------------------
 BYTE   PATT
  POIN2 Label_01024368
//  #02 //051   ----------------------------------------
 BYTE   PATT
  POIN2 Label_01024379
//  #02 //052   ----------------------------------------
 BYTE   PATT
  POIN2 Label_0102438A
//  #02 //053   ----------------------------------------
 BYTE   PATT
  POIN2 Label_0102439B
//  #02 //054   ----------------------------------------
 BYTE   PATT
  POIN2 Label_010243AC
//  #02 //055   ----------------------------------------
 BYTE   PATT
  POIN2 Label_010243BC
//  #02 //056   ----------------------------------------
 BYTE   PATT
  POIN2 Label_010243CB
//  #02 //057   ----------------------------------------
 BYTE   PATT
  POIN2 Label_010243DA
//  #02 //058   ----------------------------------------
 BYTE   PATT
  POIN2 Label_010243E9
//  #02 //059   ----------------------------------------
 BYTE   PATT
  POIN2 Label_010243F7
//  #02 //060   ----------------------------------------
 BYTE   GoTo
  POIN2 Label_010242BE
 BYTE   FINE

//**************** Track 3 (Midi-Chn.2) ****************//

FE07AnUnexpectedCallerAlice_003:
//  #03 //000   ----------------------------------------
 BYTE   KEYSH   FE07AnUnexpectedCallerAlice_key+0
Label_010244A2:
 BYTE   VOICE   40
 BYTE   VOL   53*FE07AnUnexpectedCallerAlice_mvl/mxv
 BYTE   PAN   c_v-15
 BYTE   N11  Gs2  v072
 BYTE   W12
 BYTE   As2  v064
 BYTE   W12
 BYTE   Bn2
 BYTE   W12
 BYTE   Gs2  v072
 BYTE   W12
 BYTE   As2  v064
 BYTE   W12
 BYTE   Bn2
 BYTE   W12
 BYTE   Gs2  v072
 BYTE   W12
 BYTE   As2  v064
 BYTE   W12
 BYTE   PEND 
//  #03 //001   ----------------------------------------
Label_010244C0:
 BYTE   N11  Bn2  v064
 BYTE   W12
 BYTE   Ds3  v072
 BYTE   W12
 BYTE   Cs3  v064
 BYTE   W12
 BYTE   As2
 BYTE   W12
 BYTE   Cs3  v072
 BYTE   W12
 BYTE   Bn2
 BYTE   W12
 BYTE   Gs2
 BYTE   W12
 BYTE   As2
 BYTE   W12
 BYTE   PEND 
//  #03 //002   ----------------------------------------
Label_010244D6:
 BYTE   N11  Gs2  v072
 BYTE   W12
 BYTE   As2  v064
 BYTE   W12
 BYTE   Bn2
 BYTE   W12
 BYTE   Gs2  v072
 BYTE   W12
 BYTE   As2  v064
 BYTE   W12
 BYTE   Bn2
 BYTE   W12
 BYTE   Gs2  v072
 BYTE   W12
 BYTE   As2  v064
 BYTE   W12
 BYTE   PEND 
//  #03 //003   ----------------------------------------
 BYTE   PATT
  POIN2 Label_010244C0
//  #03 //004   ----------------------------------------
Label_010244F3:
 BYTE   N11  Bn2  v080
 BYTE   W12
 BYTE   Cs3  v068
 BYTE   W12
 BYTE   Ds3
 BYTE   W12
 BYTE   Bn2  v080
 BYTE   W12
 BYTE   Cs3  v068
 BYTE   W12
 BYTE   Ds3
 BYTE   W12
 BYTE   Fs3  v080
 BYTE   W12
 BYTE   Fn3  v068
 BYTE   W12
 BYTE   PEND 
//  #03 //005   ----------------------------------------
Label_0102450B:
 BYTE   N11  Cs3  v068
 BYTE   W12
 BYTE   Fn3  v080
 BYTE   W12
 BYTE   Ds3  v068
 BYTE   W12
 BYTE   Bn2
 BYTE   W12
 BYTE   Ds3  v080
 BYTE   W12
 BYTE   Cs3
 BYTE   W12
 BYTE   As2
 BYTE   W12
 BYTE   Cs3
 BYTE   W12
 BYTE   PEND 
//  #03 //006   ----------------------------------------
Label_01024521:
 BYTE   N11  Bn2  v080
 BYTE   W12
 BYTE   Cs3  v068
 BYTE   W12
 BYTE   Ds3
 BYTE   W12
 BYTE   Bn2  v080
 BYTE   W12
 BYTE   Cs3  v068
 BYTE   W12
 BYTE   Ds3
 BYTE   W12
 BYTE   Bn2  v080
 BYTE   W12
 BYTE   Cs3  v068
 BYTE   W12
 BYTE   PEND 
//  #03 //007   ----------------------------------------
Label_01024539:
 BYTE   N11  Ds3  v068
 BYTE   W12
 BYTE   Fs3  v080
 BYTE   W12
 BYTE   Fn3  v068
 BYTE   W12
 BYTE   Cs3
 BYTE   W12
 BYTE   Fn3  v080
 BYTE   W12
 BYTE   Ds3
 BYTE   W12
 BYTE   As2
 BYTE   W12
 BYTE   Bn2
 BYTE   W12
 BYTE   PEND 
//  #03 //008   ----------------------------------------
 BYTE   VOICE   73
 BYTE   W24
 BYTE   VOL   48*FE07AnUnexpectedCallerAlice_mvl/mxv
 BYTE   W24
 BYTE   PAN   c_v+0
 BYTE   W48
//  #03 //009   ----------------------------------------
 BYTE   N68  Gs4  v076
 BYTE   W84
 BYTE   N11  Fs4  v052
 BYTE   W12
//  #03 //010   ----------------------------------------
 BYTE   TIE  Gs4  v076
 BYTE   W96
//  #03 //011   ----------------------------------------
 BYTE   W68
 BYTE   W03
 BYTE   EOT
 BYTE   W01
 BYTE   N22  As4  v064
 BYTE   W24
//  #03 //012   ----------------------------------------
 BYTE   TIE  Gs4  v084
 BYTE   W96
//  #03 //013   ----------------------------------------
 BYTE   W44
 BYTE   W03
 BYTE   EOT
 BYTE   W01
 BYTE   N44  Fs4  v080
 BYTE   W48
//  #03 //014   ----------------------------------------
Label_01024578:
 BYTE   VOICE   40
 BYTE   VOL   48*FE07AnUnexpectedCallerAlice_mvl/mxv
 BYTE   PAN   c_v-19
 BYTE   N68  Ds3  v112
 BYTE   W72
 BYTE   N11  Ds3  v020
 BYTE   W24
 BYTE   PEND 
//  #03 //015   ----------------------------------------
 BYTE   W96
//  #03 //016   ----------------------------------------
 BYTE   W96
//  #03 //017   ----------------------------------------
 BYTE   W24
 BYTE   N17  Gs3  v096
 BYTE   W18
 BYTE   N05  Gs3  v024
 BYTE   W06
 BYTE   N17  Ds4  v112
 BYTE   W18
 BYTE   N05  Ds4  v024
 BYTE   W06
 BYTE   N17  Gs4  v096
 BYTE   W18
 BYTE   N06  Gs4  v024
 BYTE   W06
//  #03 //018   ----------------------------------------
 BYTE   VOICE   73
 BYTE   W03
 BYTE   VOL   48*FE07AnUnexpectedCallerAlice_mvl/mxv
 BYTE   W03
 BYTE   PAN   c_v+0
 BYTE   W06
 BYTE   N05  Bn4  v068
 BYTE   W06
 BYTE   Bn4  v020
 BYTE   W06
 BYTE   Cs5  v068
 BYTE   W06
 BYTE   Cs5  v020
 BYTE   W06
 BYTE   Ds5  v076
 BYTE   W06
 BYTE   N11  Ds5  v024
 BYTE   W18
 BYTE   N05  Fs5  v072
 BYTE   W06
 BYTE   Fs5  v020
 BYTE   W06
 BYTE   Fn5  v068
 BYTE   W06
 BYTE   Fn5  v020
 BYTE   W06
 BYTE   Cs5  v072
 BYTE   W06
 BYTE   Cs5  v020
 BYTE   W06
//  #03 //019   ----------------------------------------
 BYTE   N11  Fn5  v076
 BYTE   W12
 BYTE   N05  Cs5  v064
 BYTE   W06
 BYTE   Cs5  v024
 BYTE   W06
 BYTE   Fn5  v068
 BYTE   W06
 BYTE   Fn5  v020
 BYTE   W06
 BYTE   N44  Ds5  v076
 BYTE   W48
 BYTE   N11  Ds5  v020
 BYTE   W12
//  #03 //020   ----------------------------------------
 BYTE   W12
 BYTE   N05  Bn4  v064
 BYTE   W06
 BYTE   Bn4  v020
 BYTE   W06
 BYTE   Cs5  v072
 BYTE   W06
 BYTE   Cs5  v020
 BYTE   W06
 BYTE   Ds5  v072
 BYTE   W06
 BYTE   N11  Ds5  v020
 BYTE   W18
 BYTE   N05  Fs5  v072
 BYTE   W06
 BYTE   Fs5  v020
 BYTE   W06
 BYTE   Fn5  v076
 BYTE   W06
 BYTE   Fn5  v020
 BYTE   W06
 BYTE   Cs5  v072
 BYTE   W06
 BYTE   Cs5  v020
 BYTE   W06
//  #03 //021   ----------------------------------------
 BYTE   N11  Fn5  v076
 BYTE   W12
 BYTE   N05  Cs5  v072
 BYTE   W06
 BYTE   Cs5  v020
 BYTE   W06
 BYTE   Fn5  v076
 BYTE   W06
 BYTE   Fn5  v020
 BYTE   W06
 BYTE   N44  Ds5  v080
 BYTE   W48
 BYTE   N11  Ds5  v020
 BYTE   W12
//  #03 //022   ----------------------------------------
 BYTE   W96
//  #03 //023   ----------------------------------------
 BYTE   VOICE   80
 BYTE   VOL   30*FE07AnUnexpectedCallerAlice_mvl/mxv
 BYTE   PAN   c_v+21
 BYTE   W24
 BYTE   N06  Fn1  v092
 BYTE   W06
 BYTE   Fs1  v084
 BYTE   W06
 BYTE   Fn1  v092
 BYTE   W06
 BYTE   Fs1
 BYTE   W06
 BYTE   Gs1
 BYTE   W06
 BYTE   As1  v088
 BYTE   W06
 BYTE   Gs1  v080
 BYTE   W06
 BYTE   As1  v092
 BYTE   W06
 BYTE   Bn1  v072
 BYTE   W06
 BYTE   Cs2  v088
 BYTE   W06
 BYTE   Bn1
 BYTE   W06
 BYTE   Cs2
 BYTE   W06
//  #03 //024   ----------------------------------------
 BYTE   Ds2  v096
 BYTE   W06
 BYTE   Fn2  v088
 BYTE   W06
 BYTE   Ds2  v100
 BYTE   W06
 BYTE   Fn2  v092
 BYTE   W06
 BYTE   Fs2  v080
 BYTE   W06
 BYTE   Gs2  v088
 BYTE   W06
 BYTE   Fs2
 BYTE   W06
 BYTE   Gs2  v084
 BYTE   W06
 BYTE   As2  v080
 BYTE   W06
 BYTE   Bn2
 BYTE   W06
 BYTE   As2  v084
 BYTE   W06
 BYTE   Bn2
 BYTE   W06
 BYTE   Cs3  v088
 BYTE   W06
 BYTE   Ds3  v092
 BYTE   W06
 BYTE   Cs3  v088
 BYTE   W06
 BYTE   Ds3  v076
 BYTE   W06
//  #03 //025   ----------------------------------------
 BYTE   Fn2  v088
 BYTE   W06
 BYTE   Fs2  v092
 BYTE   W06
 BYTE   Fn2
 BYTE   W06
 BYTE   Fs2
 BYTE   W06
 BYTE   Gs2  v080
 BYTE   W06
 BYTE   As2  v088
 BYTE   W06
 BYTE   Gs2
 BYTE   W06
 BYTE   As2  v048
 BYTE   W06
 BYTE   Bn2  v076
 BYTE   W06
 BYTE   Cs3  v060
 BYTE   W06
 BYTE   Bn2  v076
 BYTE   W06
 BYTE   Cs3  v072
 BYTE   W06
 BYTE   Ds3  v084
 BYTE   W06
 BYTE   Fn3  v080
 BYTE   W06
 BYTE   Ds3
 BYTE   W06
 BYTE   Fn3  v060
 BYTE   W06
//  #03 //026   ----------------------------------------
Label_010246AE:
 BYTE   N06  As1  v096
 BYTE   W06
 BYTE   N05  Fn2  v084
 BYTE   W06
 BYTE   N06  As1
 BYTE   W06
 BYTE   Fn1  v080
 BYTE   W06
 BYTE   As1  v088
 BYTE   W06
 BYTE   N05  Fn2  v096
 BYTE   W06
 BYTE   N06  As1  v088
 BYTE   W06
 BYTE   Fn1  v080
 BYTE   W06
 BYTE   As1  v084
 BYTE   W06
 BYTE   Fn2  v092
 BYTE   W06
 BYTE   As1  v084
 BYTE   W06
 BYTE   Fn1  v080
 BYTE   W06
 BYTE   As1  v088
 BYTE   W06
 BYTE   Fn2  v100
 BYTE   W06
 BYTE   As1  v084
 BYTE   W06
 BYTE   Fn1  v076
 BYTE   W06
 BYTE   PEND 
//  #03 //027   ----------------------------------------
 BYTE   PATT
  POIN2 Label_010246AE
//  #03 //028   ----------------------------------------
 BYTE   N06  As1  v080
 BYTE   W06
 BYTE   Fn2  v100
 BYTE   W06
 BYTE   N05  As1  v080
 BYTE   W06
 BYTE   N06  Fn1  v088
 BYTE   W06
 BYTE   As1  v084
 BYTE   W06
 BYTE   Fn2  v100
 BYTE   W06
 BYTE   As1  v084
 BYTE   W06
 BYTE   Fn1  v072
 BYTE   W06
 BYTE   As1  v076
 BYTE   W06
 BYTE   Fn2  v096
 BYTE   W06
 BYTE   N05  As1  v084
 BYTE   W06
 BYTE   N06  Fn1
 BYTE   W06
 BYTE   As1
 BYTE   W06
 BYTE   Fn2  v092
 BYTE   W06
 BYTE   As1  v084
 BYTE   W06
 BYTE   Fn1
 BYTE   W06
//  #03 //029   ----------------------------------------
 BYTE   As1  v088
 BYTE   W06
 BYTE   Fn2  v100
 BYTE   W06
 BYTE   N05  As1  v092
 BYTE   W06
 BYTE   N06  Fn1  v096
 BYTE   W06
 BYTE   As1  v084
 BYTE   W06
 BYTE   Fn2  v100
 BYTE   W06
 BYTE   As1  v092
 BYTE   W06
 BYTE   Fn1
 BYTE   W06
 BYTE   As1  v084
 BYTE   W06
 BYTE   Fn2  v100
 BYTE   W06
 BYTE   As1  v092
 BYTE   W06
 BYTE   Fn1  v096
 BYTE   W06
 BYTE   N05  As1  v092
 BYTE   W06
 BYTE   Fn2  v104
 BYTE   W06
 BYTE   N06  As2  v088
 BYTE   W06
 BYTE   Fn3
 BYTE   W06
//  #03 //030   ----------------------------------------
 BYTE   PATT
  POIN2 Label_010244A2
//  #03 //031   ----------------------------------------
 BYTE   PATT
  POIN2 Label_010244C0
//  #03 //032   ----------------------------------------
 BYTE   PATT
  POIN2 Label_010244D6
//  #03 //033   ----------------------------------------
 BYTE   PATT
  POIN2 Label_010244C0
//  #03 //034   ----------------------------------------
 BYTE   PATT
  POIN2 Label_010244F3
//  #03 //035   ----------------------------------------
 BYTE   PATT
  POIN2 Label_0102450B
//  #03 //036   ----------------------------------------
 BYTE   PATT
  POIN2 Label_01024521
//  #03 //037   ----------------------------------------
 BYTE   PATT
  POIN2 Label_01024539
//  #03 //038   ----------------------------------------
 BYTE   VOICE   73
 BYTE   W23
 BYTE   VOL   53*FE07AnUnexpectedCallerAlice_mvl/mxv
 BYTE   W01
 BYTE   VOL   48*FE07AnUnexpectedCallerAlice_mvl/mxv
 BYTE   W24
 BYTE   PAN   c_v+0
 BYTE   W48
//  #03 //039   ----------------------------------------
 BYTE   W96
//  #03 //040   ----------------------------------------
 BYTE   W96
//  #03 //041   ----------------------------------------
 BYTE   W96
//  #03 //042   ----------------------------------------
 BYTE   W96
//  #03 //043   ----------------------------------------
 BYTE   W96
//  #03 //044   ----------------------------------------
 BYTE   PATT
  POIN2 Label_01024578
//  #03 //045   ----------------------------------------
 BYTE   W96
//  #03 //046   ----------------------------------------
 BYTE   W96
//  #03 //047   ----------------------------------------
 BYTE   VOL   15*FE07AnUnexpectedCallerAlice_mvl/mxv
 BYTE   N92  Gs3  v096
 BYTE   W02
 BYTE   VOL   16*FE07AnUnexpectedCallerAlice_mvl/mxv
 BYTE   W01
 BYTE   VOL   16*FE07AnUnexpectedCallerAlice_mvl/mxv
 BYTE   W01
 BYTE   VOL   17*FE07AnUnexpectedCallerAlice_mvl/mxv
 BYTE   W01
 BYTE   VOL   17*FE07AnUnexpectedCallerAlice_mvl/mxv
 BYTE   W01
 BYTE   VOL   18*FE07AnUnexpectedCallerAlice_mvl/mxv
 BYTE   W01
 BYTE   VOL   18*FE07AnUnexpectedCallerAlice_mvl/mxv
 BYTE   W02
 BYTE   VOL   19*FE07AnUnexpectedCallerAlice_mvl/mxv
 BYTE   W01
 BYTE   VOL   19*FE07AnUnexpectedCallerAlice_mvl/mxv
 BYTE   W01
 BYTE   VOL   20*FE07AnUnexpectedCallerAlice_mvl/mxv
 BYTE   W01
 BYTE   VOL   20*FE07AnUnexpectedCallerAlice_mvl/mxv
 BYTE   W01
 BYTE   VOL   21*FE07AnUnexpectedCallerAlice_mvl/mxv
 BYTE   W01
 BYTE   VOL   22*FE07AnUnexpectedCallerAlice_mvl/mxv
 BYTE   W01
 BYTE   VOL   22*FE07AnUnexpectedCallerAlice_mvl/mxv
 BYTE   W01
 BYTE   VOL   23*FE07AnUnexpectedCallerAlice_mvl/mxv
 BYTE   W02
 BYTE   VOL   23*FE07AnUnexpectedCallerAlice_mvl/mxv
 BYTE   W01
 BYTE   VOL   24*FE07AnUnexpectedCallerAlice_mvl/mxv
 BYTE   W01
 BYTE   VOL   24*FE07AnUnexpectedCallerAlice_mvl/mxv
 BYTE   W01
 BYTE   VOL   25*FE07AnUnexpectedCallerAlice_mvl/mxv
 BYTE   W01
 BYTE   VOL   25*FE07AnUnexpectedCallerAlice_mvl/mxv
 BYTE   W01
 BYTE   VOL   26*FE07AnUnexpectedCallerAlice_mvl/mxv
 BYTE   W01
 BYTE   VOL   26*FE07AnUnexpectedCallerAlice_mvl/mxv
 BYTE   W01
 BYTE   VOL   27*FE07AnUnexpectedCallerAlice_mvl/mxv
 BYTE   W02
 BYTE   VOL   27*FE07AnUnexpectedCallerAlice_mvl/mxv
 BYTE   W01
 BYTE   VOL   28*FE07AnUnexpectedCallerAlice_mvl/mxv
 BYTE   W01
 BYTE   VOL   28*FE07AnUnexpectedCallerAlice_mvl/mxv
 BYTE   W01
 BYTE   VOL   29*FE07AnUnexpectedCallerAlice_mvl/mxv
 BYTE   W01
 BYTE   VOL   29*FE07AnUnexpectedCallerAlice_mvl/mxv
 BYTE   W01
 BYTE   VOL   30*FE07AnUnexpectedCallerAlice_mvl/mxv
 BYTE   W01
 BYTE   VOL   30*FE07AnUnexpectedCallerAlice_mvl/mxv
 BYTE   W01
 BYTE   VOL   31*FE07AnUnexpectedCallerAlice_mvl/mxv
 BYTE   W02
 BYTE   VOL   31*FE07AnUnexpectedCallerAlice_mvl/mxv
 BYTE   W01
 BYTE   VOL   32*FE07AnUnexpectedCallerAlice_mvl/mxv
 BYTE   W01
 BYTE   VOL   32*FE07AnUnexpectedCallerAlice_mvl/mxv
 BYTE   W01
 BYTE   VOL   33*FE07AnUnexpectedCallerAlice_mvl/mxv
 BYTE   W01
 BYTE   VOL   33*FE07AnUnexpectedCallerAlice_mvl/mxv
 BYTE   W01
 BYTE   VOL   34*FE07AnUnexpectedCallerAlice_mvl/mxv
 BYTE   W01
 BYTE   VOL   34*FE07AnUnexpectedCallerAlice_mvl/mxv
 BYTE   W01
 BYTE   VOL   35*FE07AnUnexpectedCallerAlice_mvl/mxv
 BYTE   W02
 BYTE   VOL   35*FE07AnUnexpectedCallerAlice_mvl/mxv
 BYTE   W01
 BYTE   VOL   36*FE07AnUnexpectedCallerAlice_mvl/mxv
 BYTE   W01
 BYTE   VOL   36*FE07AnUnexpectedCallerAlice_mvl/mxv
 BYTE   W01
 BYTE   VOL   37*FE07AnUnexpectedCallerAlice_mvl/mxv
 BYTE   W01
 BYTE   VOL   37*FE07AnUnexpectedCallerAlice_mvl/mxv
 BYTE   W01
 BYTE   VOL   38*FE07AnUnexpectedCallerAlice_mvl/mxv
 BYTE   W01
 BYTE   VOL   38*FE07AnUnexpectedCallerAlice_mvl/mxv
 BYTE   W01
 BYTE   VOL   39*FE07AnUnexpectedCallerAlice_mvl/mxv
 BYTE   W02
 BYTE   VOL   39*FE07AnUnexpectedCallerAlice_mvl/mxv
 BYTE   W01
 BYTE   VOL   40*FE07AnUnexpectedCallerAlice_mvl/mxv
 BYTE   W01
 BYTE   VOL   40*FE07AnUnexpectedCallerAlice_mvl/mxv
 BYTE   W01
 BYTE   VOL   41*FE07AnUnexpectedCallerAlice_mvl/mxv
 BYTE   W01
 BYTE   VOL   41*FE07AnUnexpectedCallerAlice_mvl/mxv
 BYTE   W01
 BYTE   VOL   42*FE07AnUnexpectedCallerAlice_mvl/mxv
 BYTE   W01
 BYTE   VOL   42*FE07AnUnexpectedCallerAlice_mvl/mxv
 BYTE   W01
 BYTE   VOL   43*FE07AnUnexpectedCallerAlice_mvl/mxv
 BYTE   W02
 BYTE   VOL   44*FE07AnUnexpectedCallerAlice_mvl/mxv
 BYTE   W01
 BYTE   VOL   44*FE07AnUnexpectedCallerAlice_mvl/mxv
 BYTE   W01
 BYTE   VOL   45*FE07AnUnexpectedCallerAlice_mvl/mxv
 BYTE   W01
 BYTE   VOL   45*FE07AnUnexpectedCallerAlice_mvl/mxv
 BYTE   W01
 BYTE   VOL   46*FE07AnUnexpectedCallerAlice_mvl/mxv
 BYTE   W01
 BYTE   VOL   46*FE07AnUnexpectedCallerAlice_mvl/mxv
 BYTE   W01
 BYTE   VOL   47*FE07AnUnexpectedCallerAlice_mvl/mxv
 BYTE   W01
 BYTE   VOL   47*FE07AnUnexpectedCallerAlice_mvl/mxv
 BYTE   W02
 BYTE   VOL   48*FE07AnUnexpectedCallerAlice_mvl/mxv
 BYTE   W02
 BYTE   VOL   48*FE07AnUnexpectedCallerAlice_mvl/mxv
 BYTE   W01
 BYTE   VOL   49*FE07AnUnexpectedCallerAlice_mvl/mxv
 BYTE   W01
 BYTE   VOL   49*FE07AnUnexpectedCallerAlice_mvl/mxv
 BYTE   W01
 BYTE   VOL   50*FE07AnUnexpectedCallerAlice_mvl/mxv
 BYTE   W01
 BYTE   VOL   50*FE07AnUnexpectedCallerAlice_mvl/mxv
 BYTE   W01
 BYTE   VOL   51*FE07AnUnexpectedCallerAlice_mvl/mxv
 BYTE   W02
 BYTE   VOL   51*FE07AnUnexpectedCallerAlice_mvl/mxv
 BYTE   W01
 BYTE   VOL   52*FE07AnUnexpectedCallerAlice_mvl/mxv
 BYTE   W01
 BYTE   VOL   52*FE07AnUnexpectedCallerAlice_mvl/mxv
 BYTE   W01
 BYTE   VOL   53*FE07AnUnexpectedCallerAlice_mvl/mxv
 BYTE   W01
 BYTE   VOL   53*FE07AnUnexpectedCallerAlice_mvl/mxv
 BYTE   W01
 BYTE   VOL   54*FE07AnUnexpectedCallerAlice_mvl/mxv
 BYTE   W01
 BYTE   VOL   54*FE07AnUnexpectedCallerAlice_mvl/mxv
 BYTE   W01
 BYTE   VOL   55*FE07AnUnexpectedCallerAlice_mvl/mxv
 BYTE   W02
 BYTE   VOL   55*FE07AnUnexpectedCallerAlice_mvl/mxv
 BYTE   W01
 BYTE   VOL   56*FE07AnUnexpectedCallerAlice_mvl/mxv
 BYTE   W01
 BYTE   VOL   56*FE07AnUnexpectedCallerAlice_mvl/mxv
 BYTE   W01
 BYTE   VOL   57*FE07AnUnexpectedCallerAlice_mvl/mxv
 BYTE   W01
 BYTE   VOL   57*FE07AnUnexpectedCallerAlice_mvl/mxv
 BYTE   W01
 BYTE   VOL   58*FE07AnUnexpectedCallerAlice_mvl/mxv
 BYTE   W01
//  #03 //048   ----------------------------------------
 BYTE   VOICE   41
 BYTE   VOL   35*FE07AnUnexpectedCallerAlice_mvl/mxv
 BYTE   PAN   c_v+20
 BYTE   W12
 BYTE   N06  Gs3  v092
 BYTE   N06  Bn3  v108
 BYTE   W06
 BYTE   Gs3  v028
 BYTE   N06  Bn3
 BYTE   W06
 BYTE   As3  v096
 BYTE   N06  Cs4  v108
 BYTE   W06
 BYTE   As3  v028
 BYTE   N06  Cs4
 BYTE   W06
 BYTE   Bn3  v096
 BYTE   N06  Ds4  v104
 BYTE   W06
 BYTE   Bn3  v028
 BYTE   N06  Ds4
 BYTE   W18
 BYTE   Ds4  v100
 BYTE   N06  Fs4  v112
 BYTE   W06
 BYTE   Ds4  v028
 BYTE   N06  Fs4
 BYTE   W06
 BYTE   Cs4  v096
 BYTE   N06  Fn4  v108
 BYTE   W06
 BYTE   Cs4  v028
 BYTE   N06  Fn4
 BYTE   W06
 BYTE   As3  v100
 BYTE   N06  Cs4  v112
 BYTE   W06
 BYTE   As3  v028
 BYTE   N06  Cs4
 BYTE   W06
//  #03 //049   ----------------------------------------
Label_010248D5:
 BYTE   N12  Cs4  v104
 BYTE   N12  Fn4  v116
 BYTE   W12
 BYTE   N06  As3  v092
 BYTE   N06  Cs4  v104
 BYTE   W06
 BYTE   As3  v028
 BYTE   N06  Cs4
 BYTE   W06
 BYTE   Cs4  v096
 BYTE   N06  Fn4  v108
 BYTE   W06
 BYTE   Cs4  v028
 BYTE   N06  Fn4
 BYTE   W06
 BYTE   N48  Bn3  v100
 BYTE   N48  Ds4  v116
 BYTE   W48
 BYTE   N06  Bn3  v028
 BYTE   N06  Ds4
 BYTE   W12
 BYTE   PEND 
//  #03 //050   ----------------------------------------
 BYTE   W12
 BYTE   Gs3  v092
 BYTE   N06  Bn3  v108
 BYTE   W06
 BYTE   Gs3  v028
 BYTE   N06  Bn3
 BYTE   W06
 BYTE   As3  v096
 BYTE   N06  Cs4  v108
 BYTE   W06
 BYTE   As3  v028
 BYTE   N06  Cs4
 BYTE   W06
 BYTE   Bn3  v096
 BYTE   N06  Ds4  v104
 BYTE   W06
 BYTE   Bn3  v028
 BYTE   N06  Ds4
 BYTE   W18
 BYTE   Ds4  v100
 BYTE   N06  Fs4  v112
 BYTE   W06
 BYTE   Ds4  v028
 BYTE   N06  Fs4
 BYTE   W06
 BYTE   Cs4  v096
 BYTE   N06  Fn4  v108
 BYTE   W06
 BYTE   Cs4  v028
 BYTE   N06  Fn4
 BYTE   W06
 BYTE   As3  v100
 BYTE   N06  Cs4  v112
 BYTE   W06
 BYTE   As3  v028
 BYTE   N06  Cs4
 BYTE   W06
//  #03 //051   ----------------------------------------
 BYTE   PATT
  POIN2 Label_010248D5
//  #03 //052   ----------------------------------------
 BYTE   W92
 BYTE   W03
 BYTE   VOL   35*FE07AnUnexpectedCallerAlice_mvl/mxv
 BYTE   W01
//  #03 //053   ----------------------------------------
 BYTE   VOICE   80
 BYTE   PAN   c_v+21
 BYTE   W96
//  #03 //054   ----------------------------------------
 BYTE   W96
//  #03 //055   ----------------------------------------
 BYTE   W96
//  #03 //056   ----------------------------------------
 BYTE   W96
//  #03 //057   ----------------------------------------
 BYTE   W96
//  #03 //058   ----------------------------------------
 BYTE   W96
//  #03 //059   ----------------------------------------
 BYTE   N18  Fn2  v060
 BYTE   W24
 BYTE   As2
 BYTE   W24
 BYTE   Fn3
 BYTE   W24
 BYTE   As3
 BYTE   W24
//  #03 //060   ----------------------------------------
 BYTE   GoTo
  POIN2 Label_010244A2
 BYTE   FINE

//**************** Track 4 (Midi-Chn.3) ****************//

FE07AnUnexpectedCallerAlice_004:
//  #04 //000   ----------------------------------------
 BYTE   KEYSH   FE07AnUnexpectedCallerAlice_key+0
Label_0102496A:
 BYTE   W96
//  #04 //001   ----------------------------------------
 BYTE   W96
//  #04 //002   ----------------------------------------
 BYTE   W96
//  #04 //003   ----------------------------------------
 BYTE   W24
 BYTE   VOICE   48
 BYTE   W24
 BYTE   VOL   39*FE07AnUnexpectedCallerAlice_mvl/mxv
 BYTE   W24
 BYTE   PAN   c_v+11
 BYTE   W24
//  #04 //004   ----------------------------------------
 BYTE   VOL   18*FE07AnUnexpectedCallerAlice_mvl/mxv
 BYTE   N08  Gs4  v068
 BYTE   W09
 BYTE   Gs4  v020
 BYTE   W12
 BYTE   VOL   18*FE07AnUnexpectedCallerAlice_mvl/mxv
 BYTE   W11
 BYTE   VOL   19*FE07AnUnexpectedCallerAlice_mvl/mxv
 BYTE   W04
 BYTE   N08  Gs4  v072
 BYTE   W06
 BYTE   VOL   19*FE07AnUnexpectedCallerAlice_mvl/mxv
 BYTE   W03
 BYTE   N08  Gs4  v020
 BYTE   W08
 BYTE   VOL   20*FE07AnUnexpectedCallerAlice_mvl/mxv
 BYTE   W11
 BYTE   VOL   20*FE07AnUnexpectedCallerAlice_mvl/mxv
 BYTE   W08
 BYTE   N08  Gs4  v080
 BYTE   W02
 BYTE   VOL   21*FE07AnUnexpectedCallerAlice_mvl/mxv
 BYTE   W07
 BYTE   N08  Gs4  v020
 BYTE   W04
 BYTE   VOL   21*FE07AnUnexpectedCallerAlice_mvl/mxv
 BYTE   W11
//  #04 //005   ----------------------------------------
 BYTE   VOL   22*FE07AnUnexpectedCallerAlice_mvl/mxv
 BYTE   W11
 BYTE   VOL   22*FE07AnUnexpectedCallerAlice_mvl/mxv
 BYTE   W01
 BYTE   N08  Gs4  v084
 BYTE   W09
 BYTE   VOL   23*FE07AnUnexpectedCallerAlice_mvl/mxv
 BYTE   N08  Gs4  v020
 BYTE   W11
 BYTE   VOL   24*FE07AnUnexpectedCallerAlice_mvl/mxv
 BYTE   W11
 BYTE   VOL   24*FE07AnUnexpectedCallerAlice_mvl/mxv
 BYTE   W05
 BYTE   N08  Gs4  v088
 BYTE   W05
 BYTE   VOL   25*FE07AnUnexpectedCallerAlice_mvl/mxv
 BYTE   W04
 BYTE   N08  Gs4  v020
 BYTE   W07
 BYTE   VOL   25*FE07AnUnexpectedCallerAlice_mvl/mxv
 BYTE   W08
 BYTE   N08  Gs4  v092
 BYTE   W03
 BYTE   VOL   26*FE07AnUnexpectedCallerAlice_mvl/mxv
 BYTE   W06
 BYTE   N08  Gs4  v020
 BYTE   W04
 BYTE   VOL   26*FE07AnUnexpectedCallerAlice_mvl/mxv
 BYTE   W11
//  #04 //006   ----------------------------------------
 BYTE   VOL   27*FE07AnUnexpectedCallerAlice_mvl/mxv
 BYTE   N08  Gs4  v100
 BYTE   W09
 BYTE   Gs4  v020
 BYTE   W02
 BYTE   VOL   27*FE07AnUnexpectedCallerAlice_mvl/mxv
 BYTE   W11
 BYTE   VOL   28*FE07AnUnexpectedCallerAlice_mvl/mxv
 BYTE   W10
 BYTE   VOL   28*FE07AnUnexpectedCallerAlice_mvl/mxv
 BYTE   W04
 BYTE   N08  Gs4  v100
 BYTE   W07
 BYTE   VOL   29*FE07AnUnexpectedCallerAlice_mvl/mxv
 BYTE   W02
 BYTE   N08  Gs4  v020
 BYTE   W09
 BYTE   VOL   29*FE07AnUnexpectedCallerAlice_mvl/mxv
 BYTE   W10
 BYTE   VOL   30*FE07AnUnexpectedCallerAlice_mvl/mxv
 BYTE   W08
 BYTE   N08  Gs4  v100
 BYTE   W03
 BYTE   VOL   30*FE07AnUnexpectedCallerAlice_mvl/mxv
 BYTE   W06
 BYTE   N08  Gs4  v020
 BYTE   W05
 BYTE   VOL   31*FE07AnUnexpectedCallerAlice_mvl/mxv
 BYTE   W10
//  #04 //007   ----------------------------------------
 BYTE   VOL   31*FE07AnUnexpectedCallerAlice_mvl/mxv
 BYTE   W11
 BYTE   VOL   32*FE07AnUnexpectedCallerAlice_mvl/mxv
 BYTE   W01
 BYTE   N08  Gs4  v100
 BYTE   W09
 BYTE   Gs4  v020
 BYTE   W01
 BYTE   VOL   32*FE07AnUnexpectedCallerAlice_mvl/mxv
 BYTE   W11
 BYTE   VOL   33*FE07AnUnexpectedCallerAlice_mvl/mxv
 BYTE   W10
 BYTE   VOL   33*FE07AnUnexpectedCallerAlice_mvl/mxv
 BYTE   W05
 BYTE   N23  As4  v100
 BYTE   W06
 BYTE   VOL   34*FE07AnUnexpectedCallerAlice_mvl/mxv
 BYTE   W11
 BYTE   VOL   34*FE07AnUnexpectedCallerAlice_mvl/mxv
 BYTE   W07
 BYTE   N23  Bn4
 BYTE   W03
 BYTE   VOL   35*FE07AnUnexpectedCallerAlice_mvl/mxv
 BYTE   W11
 BYTE   VOL   35*FE07AnUnexpectedCallerAlice_mvl/mxv
 BYTE   W10
//  #04 //008   ----------------------------------------
 BYTE   N92  Gs4  v088
 BYTE   W01
 BYTE   VOL   36*FE07AnUnexpectedCallerAlice_mvl/mxv
 BYTE   W10
 BYTE   VOL   36*FE07AnUnexpectedCallerAlice_mvl/mxv
 BYTE   W11
 BYTE   VOL   37*FE07AnUnexpectedCallerAlice_mvl/mxv
 BYTE   W11
 BYTE   VOL   37*FE07AnUnexpectedCallerAlice_mvl/mxv
 BYTE   W11
 BYTE   VOL   38*FE07AnUnexpectedCallerAlice_mvl/mxv
 BYTE   W10
 BYTE   VOL   38*FE07AnUnexpectedCallerAlice_mvl/mxv
 BYTE   W01
 BYTE   VOL   39*FE07AnUnexpectedCallerAlice_mvl/mxv
 BYTE   W01
 BYTE   VOL   38*FE07AnUnexpectedCallerAlice_mvl/mxv
 BYTE   W01
 BYTE   VOL   37*FE07AnUnexpectedCallerAlice_mvl/mxv
 BYTE   W01
 BYTE   VOL   36*FE07AnUnexpectedCallerAlice_mvl/mxv
 BYTE   W01
 BYTE   VOL   35*FE07AnUnexpectedCallerAlice_mvl/mxv
 BYTE   W01
 BYTE   VOL   33*FE07AnUnexpectedCallerAlice_mvl/mxv
 BYTE   W01
 BYTE   VOL   32*FE07AnUnexpectedCallerAlice_mvl/mxv
 BYTE   W01
 BYTE   VOL   31*FE07AnUnexpectedCallerAlice_mvl/mxv
 BYTE   W01
 BYTE   VOL   30*FE07AnUnexpectedCallerAlice_mvl/mxv
 BYTE   W01
 BYTE   VOL   29*FE07AnUnexpectedCallerAlice_mvl/mxv
 BYTE   W01
 BYTE   VOL   28*FE07AnUnexpectedCallerAlice_mvl/mxv
 BYTE   W01
 BYTE   VOL   27*FE07AnUnexpectedCallerAlice_mvl/mxv
 BYTE   W01
 BYTE   VOL   26*FE07AnUnexpectedCallerAlice_mvl/mxv
 BYTE   W01
 BYTE   VOL   25*FE07AnUnexpectedCallerAlice_mvl/mxv
 BYTE   W01
 BYTE   VOL   24*FE07AnUnexpectedCallerAlice_mvl/mxv
 BYTE   W01
 BYTE   VOL   22*FE07AnUnexpectedCallerAlice_mvl/mxv
 BYTE   W01
 BYTE   VOL   21*FE07AnUnexpectedCallerAlice_mvl/mxv
 BYTE   W01
 BYTE   VOL   20*FE07AnUnexpectedCallerAlice_mvl/mxv
 BYTE   W01
 BYTE   VOL   19*FE07AnUnexpectedCallerAlice_mvl/mxv
 BYTE   W01
 BYTE   VOL   18*FE07AnUnexpectedCallerAlice_mvl/mxv
 BYTE   W01
 BYTE   VOL   17*FE07AnUnexpectedCallerAlice_mvl/mxv
 BYTE   W01
 BYTE   VOL   16*FE07AnUnexpectedCallerAlice_mvl/mxv
 BYTE   W01
 BYTE   VOL   15*FE07AnUnexpectedCallerAlice_mvl/mxv
 BYTE   W01
 BYTE   VOL   14*FE07AnUnexpectedCallerAlice_mvl/mxv
 BYTE   W01
 BYTE   VOL   13*FE07AnUnexpectedCallerAlice_mvl/mxv
 BYTE   W01
 BYTE   VOL   12*FE07AnUnexpectedCallerAlice_mvl/mxv
 BYTE   W01
 BYTE   VOL   11*FE07AnUnexpectedCallerAlice_mvl/mxv
 BYTE   W01
 BYTE   VOL   9*FE07AnUnexpectedCallerAlice_mvl/mxv
 BYTE   W01
 BYTE   VOL   8*FE07AnUnexpectedCallerAlice_mvl/mxv
 BYTE   W01
 BYTE   VOL   7*FE07AnUnexpectedCallerAlice_mvl/mxv
 BYTE   W01
 BYTE   VOL   6*FE07AnUnexpectedCallerAlice_mvl/mxv
 BYTE   W01
 BYTE   VOL   5*FE07AnUnexpectedCallerAlice_mvl/mxv
 BYTE   W01
 BYTE   VOL   4*FE07AnUnexpectedCallerAlice_mvl/mxv
 BYTE   W01
 BYTE   VOL   3*FE07AnUnexpectedCallerAlice_mvl/mxv
 BYTE   W01
 BYTE   VOL   2*FE07AnUnexpectedCallerAlice_mvl/mxv
 BYTE   W01
 BYTE   VOL   1*FE07AnUnexpectedCallerAlice_mvl/mxv
 BYTE   W01
 BYTE   VOL   0*FE07AnUnexpectedCallerAlice_mvl/mxv
 BYTE   W01
 BYTE   VOL   0*FE07AnUnexpectedCallerAlice_mvl/mxv
 BYTE   W01
 BYTE   VOL   0*FE07AnUnexpectedCallerAlice_mvl/mxv
 BYTE   W01
 BYTE   VOL   0*FE07AnUnexpectedCallerAlice_mvl/mxv
 BYTE   W01
 BYTE   VOL   0*FE07AnUnexpectedCallerAlice_mvl/mxv
 BYTE   W01
//  #04 //009   ----------------------------------------
 BYTE   VOL   0*FE07AnUnexpectedCallerAlice_mvl/mxv
 BYTE   W01
 BYTE   VOL   0*FE07AnUnexpectedCallerAlice_mvl/mxv
 BYTE   W01
 BYTE   VOL   0*FE07AnUnexpectedCallerAlice_mvl/mxv
 BYTE   W01
 BYTE   VOL   0*FE07AnUnexpectedCallerAlice_mvl/mxv
 BYTE   W01
 BYTE   VOL   0*FE07AnUnexpectedCallerAlice_mvl/mxv
 BYTE   W01
 BYTE   VOL   0*FE07AnUnexpectedCallerAlice_mvl/mxv
 BYTE   W01
 BYTE   VOL   0*FE07AnUnexpectedCallerAlice_mvl/mxv
 BYTE   W01
 BYTE   VOL   0*FE07AnUnexpectedCallerAlice_mvl/mxv
 BYTE   W01
 BYTE   VOL   0*FE07AnUnexpectedCallerAlice_mvl/mxv
 BYTE   W01
 BYTE   VOL   0*FE07AnUnexpectedCallerAlice_mvl/mxv
 BYTE   W01
 BYTE   VOL   0*FE07AnUnexpectedCallerAlice_mvl/mxv
 BYTE   W01
 BYTE   VOL   0*FE07AnUnexpectedCallerAlice_mvl/mxv
 BYTE   W01
 BYTE   VOL   0*FE07AnUnexpectedCallerAlice_mvl/mxv
 BYTE   W01
 BYTE   VOL   0*FE07AnUnexpectedCallerAlice_mvl/mxv
 BYTE   W01
 BYTE   VOL   39*FE07AnUnexpectedCallerAlice_mvl/mxv
 BYTE   W80
 BYTE   W02
//  #04 //010   ----------------------------------------
 BYTE   W96
//  #04 //011   ----------------------------------------
 BYTE   W96
//  #04 //012   ----------------------------------------
 BYTE   VOL   15*FE07AnUnexpectedCallerAlice_mvl/mxv
 BYTE   W10
 BYTE   VOL   16*FE07AnUnexpectedCallerAlice_mvl/mxv
 BYTE   W02
 BYTE   N11  Cs5  v096
 BYTE   W03
 BYTE   VOL   16*FE07AnUnexpectedCallerAlice_mvl/mxv
 BYTE   W05
 BYTE   VOL   17*FE07AnUnexpectedCallerAlice_mvl/mxv
 BYTE   W04
 BYTE   N11  Bn4  v072
 BYTE   W01
 BYTE   VOL   17*FE07AnUnexpectedCallerAlice_mvl/mxv
 BYTE   W05
 BYTE   VOL   18*FE07AnUnexpectedCallerAlice_mvl/mxv
 BYTE   W05
 BYTE   VOL   18*FE07AnUnexpectedCallerAlice_mvl/mxv
 BYTE   W01
 BYTE   N11  Fs4  v076
 BYTE   W04
 BYTE   VOL   19*FE07AnUnexpectedCallerAlice_mvl/mxv
 BYTE   W04
 BYTE   VOL   19*FE07AnUnexpectedCallerAlice_mvl/mxv
 BYTE   W04
 BYTE   N11  As4  v080
 BYTE   W01
 BYTE   VOL   20*FE07AnUnexpectedCallerAlice_mvl/mxv
 BYTE   W05
 BYTE   VOL   20*FE07AnUnexpectedCallerAlice_mvl/mxv
 BYTE   W05
 BYTE   VOL   21*FE07AnUnexpectedCallerAlice_mvl/mxv
 BYTE   W01
 BYTE   N11  Gs4
 BYTE   W04
 BYTE   VOL   21*FE07AnUnexpectedCallerAlice_mvl/mxv
 BYTE   W05
 BYTE   VOL   22*FE07AnUnexpectedCallerAlice_mvl/mxv
 BYTE   W03
 BYTE   N11  Ds4  v092
 BYTE   W02
 BYTE   VOL   22*FE07AnUnexpectedCallerAlice_mvl/mxv
 BYTE   W05
 BYTE   VOL   23*FE07AnUnexpectedCallerAlice_mvl/mxv
 BYTE   W05
 BYTE   VOL   24*FE07AnUnexpectedCallerAlice_mvl/mxv
 BYTE   N11  Fs4  v080
 BYTE   W05
 BYTE   VOL   24*FE07AnUnexpectedCallerAlice_mvl/mxv
 BYTE   W04
 BYTE   VOL   25*FE07AnUnexpectedCallerAlice_mvl/mxv
 BYTE   W03
//  #04 //013   ----------------------------------------
 BYTE   N11  Fn4
 BYTE   W02
 BYTE   VOL   25*FE07AnUnexpectedCallerAlice_mvl/mxv
 BYTE   W05
 BYTE   VOL   26*FE07AnUnexpectedCallerAlice_mvl/mxv
 BYTE   W05
 BYTE   VOL   26*FE07AnUnexpectedCallerAlice_mvl/mxv
 BYTE   N11  Cs4  v072
 BYTE   W05
 BYTE   VOL   27*FE07AnUnexpectedCallerAlice_mvl/mxv
 BYTE   W05
 BYTE   VOL   27*FE07AnUnexpectedCallerAlice_mvl/mxv
 BYTE   W02
 BYTE   N11  Ds4  v084
 BYTE   W03
 BYTE   VOL   28*FE07AnUnexpectedCallerAlice_mvl/mxv
 BYTE   W05
 BYTE   VOL   28*FE07AnUnexpectedCallerAlice_mvl/mxv
 BYTE   W04
 BYTE   N11  As3  v076
 BYTE   W01
 BYTE   VOL   29*FE07AnUnexpectedCallerAlice_mvl/mxv
 BYTE   W05
 BYTE   VOL   29*FE07AnUnexpectedCallerAlice_mvl/mxv
 BYTE   W04
 BYTE   VOL   30*FE07AnUnexpectedCallerAlice_mvl/mxv
 BYTE   W02
 BYTE   N11  Gs3
 BYTE   W03
 BYTE   VOL   30*FE07AnUnexpectedCallerAlice_mvl/mxv
 BYTE   W05
 BYTE   VOL   31*FE07AnUnexpectedCallerAlice_mvl/mxv
 BYTE   W04
 BYTE   N11  Cs4  v080
 BYTE   W01
 BYTE   VOL   31*FE07AnUnexpectedCallerAlice_mvl/mxv
 BYTE   W05
 BYTE   VOL   32*FE07AnUnexpectedCallerAlice_mvl/mxv
 BYTE   W05
 BYTE   VOL   32*FE07AnUnexpectedCallerAlice_mvl/mxv
 BYTE   W01
 BYTE   N11  Ds4  v088
 BYTE   W04
 BYTE   VOL   33*FE07AnUnexpectedCallerAlice_mvl/mxv
 BYTE   W05
 BYTE   VOL   33*FE07AnUnexpectedCallerAlice_mvl/mxv
 BYTE   W03
 BYTE   N11  Fs4  v076
 BYTE   W02
 BYTE   VOL   34*FE07AnUnexpectedCallerAlice_mvl/mxv
 BYTE   W05
 BYTE   VOL   34*FE07AnUnexpectedCallerAlice_mvl/mxv
 BYTE   W04
 BYTE   VOL   35*FE07AnUnexpectedCallerAlice_mvl/mxv
 BYTE   W01
//  #04 //014   ----------------------------------------
 BYTE   VOL   35*FE07AnUnexpectedCallerAlice_mvl/mxv
 BYTE   N68  Gs3  v100
 BYTE   N68  Gs4  v096
 BYTE   W72
 BYTE   N09  Gs3  v020
 BYTE   N09  Gs4
 BYTE   W12
 BYTE   N05  Ds3  v104
 BYTE   W06
 BYTE   Ds3  v020
 BYTE   W06
//  #04 //015   ----------------------------------------
Label_01024BB4:
 BYTE   N24  En3  v100
 BYTE   W30
 BYTE   N05  En3  v020
 BYTE   W06
 BYTE   Fs3  v096
 BYTE   W06
 BYTE   Fs3  v020
 BYTE   W06
 BYTE   N23  En3  v096
 BYTE   W24
 BYTE   N06  En3  v020
 BYTE   W12
 BYTE   N05  Dn3  v092
 BYTE   W06
 BYTE   Dn3  v020
 BYTE   W06
 BYTE   PEND 
//  #04 //016   ----------------------------------------
 BYTE   N92  Ds3  v120
 BYTE   W96
//  #04 //017   ----------------------------------------
 BYTE   N17  Bn2  v096
 BYTE   W18
 BYTE   N05  Bn2  v020
 BYTE   W06
 BYTE   N17  Gs2  v096
 BYTE   W18
 BYTE   N05  Gs2  v020
 BYTE   W06
 BYTE   N17  Ds3  v112
 BYTE   W18
 BYTE   N05  Ds3  v020
 BYTE   W06
 BYTE   N17  Gs3  v096
 BYTE   W18
 BYTE   N06  Gs3  v020
 BYTE   W06
//  #04 //018   ----------------------------------------
 BYTE   W96
//  #04 //019   ----------------------------------------
 BYTE   W96
//  #04 //020   ----------------------------------------
 BYTE   W96
//  #04 //021   ----------------------------------------
Label_01024BF9:
 BYTE   W72
 BYTE   VOICE   49
 BYTE   PAN   c_v+8
 BYTE   N04  Fn3  v096
 BYTE   W06
 BYTE   Fn3  v020
 BYTE   W06
 BYTE   Fs3  v100
 BYTE   W06
 BYTE   Fs3  v020
 BYTE   W06
 BYTE   PEND 
//  #04 //022   ----------------------------------------
Label_01024C0C:
 BYTE   N24  Gs3  v100
 BYTE   W24
 BYTE   W03
 BYTE   N07  Gs3  v020
 BYTE   W09
 BYTE   N28  Fn3  v104
 BYTE   W30
 BYTE   N04  Fn3  v020
 BYTE   W06
 BYTE   N68  Cs3  v100
 BYTE   W24
 BYTE   PEND 
//  #04 //023   ----------------------------------------
 BYTE   W48
 BYTE   N44  As2  v084
 BYTE   W48
//  #04 //024   ----------------------------------------
 BYTE   N80  As2  v092
 BYTE   W84
 BYTE   N08  Gs2  v096
 BYTE   W12
//  #04 //025   ----------------------------------------
 BYTE   N44  Cs3  v092
 BYTE   W48
 BYTE   N40  Bn2  v072
 BYTE   W44
 BYTE   W03
 BYTE   VOL   35*FE07AnUnexpectedCallerAlice_mvl/mxv
 BYTE   W01
//  #04 //026   ----------------------------------------
 BYTE   VOICE   60
 BYTE   VOL   20*FE07AnUnexpectedCallerAlice_mvl/mxv
 BYTE   PAN   c_v-15
 BYTE   N32  As2  v084
 BYTE   W36
 BYTE   N05
 BYTE   W06
 BYTE   N04  As2  v020
 BYTE   W18
 BYTE   N05  As2  v084
 BYTE   W06
 BYTE   N04  As2  v020
 BYTE   W18
 BYTE   N05  As2  v084
 BYTE   W06
 BYTE   N04  As2  v020
 BYTE   W06
//  #04 //027   ----------------------------------------
 BYTE   N32  Fs2  v084
 BYTE   W36
 BYTE   N05
 BYTE   W06
 BYTE   N04  Fs2  v020
 BYTE   W18
 BYTE   N05  Fs2  v084
 BYTE   W06
 BYTE   N04  Fs2  v020
 BYTE   W18
 BYTE   N05  Fs2  v084
 BYTE   W06
 BYTE   N04  Fs2  v020
 BYTE   W06
//  #04 //028   ----------------------------------------
 BYTE   N32  Gs2  v084
 BYTE   W36
 BYTE   N05
 BYTE   W06
 BYTE   N04  Gs2  v020
 BYTE   W18
 BYTE   N05  Gs2  v084
 BYTE   W06
 BYTE   N04  Gs2  v020
 BYTE   W18
 BYTE   N05  Gs2  v084
 BYTE   W06
 BYTE   N04  Gs2  v020
 BYTE   W06
//  #04 //029   ----------------------------------------
Label_01024C8F:
 BYTE   N44  Fn2  v088
 BYTE   W48
 BYTE   Dn2  v092
 BYTE   W48
 BYTE   PEND 
//  #04 //030   ----------------------------------------
 BYTE   W96
//  #04 //031   ----------------------------------------
 BYTE   W96
//  #04 //032   ----------------------------------------
 BYTE   W96
//  #04 //033   ----------------------------------------
 BYTE   W24
 BYTE   VOICE   48
 BYTE   W48
 BYTE   PAN   c_v+11
 BYTE   W22
 BYTE   VOL   0*FE07AnUnexpectedCallerAlice_mvl/mxv
 BYTE   W02
//  #04 //034   ----------------------------------------
 BYTE   TIE  Gs4  v076
 BYTE   W08
 BYTE   VOL   0*FE07AnUnexpectedCallerAlice_mvl/mxv
 BYTE   W05
 BYTE   VOL   0*FE07AnUnexpectedCallerAlice_mvl/mxv
 BYTE   W05
 BYTE   VOL   0*FE07AnUnexpectedCallerAlice_mvl/mxv
 BYTE   W05
 BYTE   VOL   0*FE07AnUnexpectedCallerAlice_mvl/mxv
 BYTE   W05
 BYTE   VOL   0*FE07AnUnexpectedCallerAlice_mvl/mxv
 BYTE   W04
 BYTE   VOL   0*FE07AnUnexpectedCallerAlice_mvl/mxv
 BYTE   W05
 BYTE   VOL   0*FE07AnUnexpectedCallerAlice_mvl/mxv
 BYTE   W05
 BYTE   VOL   0*FE07AnUnexpectedCallerAlice_mvl/mxv
 BYTE   W05
 BYTE   VOL   0*FE07AnUnexpectedCallerAlice_mvl/mxv
 BYTE   W05
 BYTE   VOL   0*FE07AnUnexpectedCallerAlice_mvl/mxv
 BYTE   W05
 BYTE   VOL   0*FE07AnUnexpectedCallerAlice_mvl/mxv
 BYTE   W05
 BYTE   VOL   0*FE07AnUnexpectedCallerAlice_mvl/mxv
 BYTE   W05
 BYTE   VOL   0*FE07AnUnexpectedCallerAlice_mvl/mxv
 BYTE   W04
 BYTE   VOL   0*FE07AnUnexpectedCallerAlice_mvl/mxv
 BYTE   W05
 BYTE   VOL   0*FE07AnUnexpectedCallerAlice_mvl/mxv
 BYTE   W05
 BYTE   VOL   1*FE07AnUnexpectedCallerAlice_mvl/mxv
 BYTE   W05
 BYTE   VOL   2*FE07AnUnexpectedCallerAlice_mvl/mxv
 BYTE   W05
 BYTE   VOL   2*FE07AnUnexpectedCallerAlice_mvl/mxv
 BYTE   W05
//  #04 //035   ----------------------------------------
 BYTE   VOL   3*FE07AnUnexpectedCallerAlice_mvl/mxv
 BYTE   W05
 BYTE   VOL   3*FE07AnUnexpectedCallerAlice_mvl/mxv
 BYTE   W05
 BYTE   VOL   4*FE07AnUnexpectedCallerAlice_mvl/mxv
 BYTE   W04
 BYTE   VOL   4*FE07AnUnexpectedCallerAlice_mvl/mxv
 BYTE   W05
 BYTE   VOL   5*FE07AnUnexpectedCallerAlice_mvl/mxv
 BYTE   W05
 BYTE   VOL   5*FE07AnUnexpectedCallerAlice_mvl/mxv
 BYTE   W05
 BYTE   VOL   6*FE07AnUnexpectedCallerAlice_mvl/mxv
 BYTE   W05
 BYTE   VOL   6*FE07AnUnexpectedCallerAlice_mvl/mxv
 BYTE   W05
 BYTE   VOL   7*FE07AnUnexpectedCallerAlice_mvl/mxv
 BYTE   W05
 BYTE   VOL   7*FE07AnUnexpectedCallerAlice_mvl/mxv
 BYTE   W05
 BYTE   VOL   8*FE07AnUnexpectedCallerAlice_mvl/mxv
 BYTE   W04
 BYTE   VOL   8*FE07AnUnexpectedCallerAlice_mvl/mxv
 BYTE   W05
 BYTE   VOL   9*FE07AnUnexpectedCallerAlice_mvl/mxv
 BYTE   W05
 BYTE   VOL   9*FE07AnUnexpectedCallerAlice_mvl/mxv
 BYTE   W05
 BYTE   VOL   10*FE07AnUnexpectedCallerAlice_mvl/mxv
 BYTE   W05
 BYTE   VOL   10*FE07AnUnexpectedCallerAlice_mvl/mxv
 BYTE   W05
 BYTE   VOL   11*FE07AnUnexpectedCallerAlice_mvl/mxv
 BYTE   W05
 BYTE   VOL   11*FE07AnUnexpectedCallerAlice_mvl/mxv
 BYTE   W05
 BYTE   VOL   12*FE07AnUnexpectedCallerAlice_mvl/mxv
 BYTE   W04
 BYTE   VOL   12*FE07AnUnexpectedCallerAlice_mvl/mxv
 BYTE   W04
//  #04 //036   ----------------------------------------
 BYTE   W01
 BYTE   VOL   13*FE07AnUnexpectedCallerAlice_mvl/mxv
 BYTE   W05
 BYTE   VOL   13*FE07AnUnexpectedCallerAlice_mvl/mxv
 BYTE   W05
 BYTE   VOL   14*FE07AnUnexpectedCallerAlice_mvl/mxv
 BYTE   W05
 BYTE   VOL   14*FE07AnUnexpectedCallerAlice_mvl/mxv
 BYTE   W05
 BYTE   VOL   15*FE07AnUnexpectedCallerAlice_mvl/mxv
 BYTE   W05
 BYTE   VOL   15*FE07AnUnexpectedCallerAlice_mvl/mxv
 BYTE   W05
 BYTE   VOL   16*FE07AnUnexpectedCallerAlice_mvl/mxv
 BYTE   W04
 BYTE   VOL   16*FE07AnUnexpectedCallerAlice_mvl/mxv
 BYTE   W05
 BYTE   VOL   17*FE07AnUnexpectedCallerAlice_mvl/mxv
 BYTE   W05
 BYTE   VOL   17*FE07AnUnexpectedCallerAlice_mvl/mxv
 BYTE   W05
 BYTE   VOL   18*FE07AnUnexpectedCallerAlice_mvl/mxv
 BYTE   W05
 BYTE   VOL   18*FE07AnUnexpectedCallerAlice_mvl/mxv
 BYTE   W05
 BYTE   VOL   19*FE07AnUnexpectedCallerAlice_mvl/mxv
 BYTE   W05
 BYTE   VOL   19*FE07AnUnexpectedCallerAlice_mvl/mxv
 BYTE   W05
 BYTE   VOL   20*FE07AnUnexpectedCallerAlice_mvl/mxv
 BYTE   W04
 BYTE   VOL   20*FE07AnUnexpectedCallerAlice_mvl/mxv
 BYTE   W05
 BYTE   VOL   21*FE07AnUnexpectedCallerAlice_mvl/mxv
 BYTE   W05
 BYTE   VOL   21*FE07AnUnexpectedCallerAlice_mvl/mxv
 BYTE   W05
 BYTE   VOL   22*FE07AnUnexpectedCallerAlice_mvl/mxv
 BYTE   W05
 BYTE   VOL   22*FE07AnUnexpectedCallerAlice_mvl/mxv
 BYTE   W02
//  #04 //037   ----------------------------------------
 BYTE   W03
 BYTE   VOL   23*FE07AnUnexpectedCallerAlice_mvl/mxv
 BYTE   W05
 BYTE   VOL   24*FE07AnUnexpectedCallerAlice_mvl/mxv
 BYTE   W05
 BYTE   VOL   24*FE07AnUnexpectedCallerAlice_mvl/mxv
 BYTE   W04
 BYTE   VOL   25*FE07AnUnexpectedCallerAlice_mvl/mxv
 BYTE   W05
 BYTE   VOL   25*FE07AnUnexpectedCallerAlice_mvl/mxv
 BYTE   W05
 BYTE   VOL   26*FE07AnUnexpectedCallerAlice_mvl/mxv
 BYTE   W05
 BYTE   VOL   26*FE07AnUnexpectedCallerAlice_mvl/mxv
 BYTE   W05
 BYTE   VOL   27*FE07AnUnexpectedCallerAlice_mvl/mxv
 BYTE   W05
 BYTE   VOL   27*FE07AnUnexpectedCallerAlice_mvl/mxv
 BYTE   W05
 BYTE   EOT
 BYTE   VOL   28*FE07AnUnexpectedCallerAlice_mvl/mxv
 BYTE   W01
 BYTE   N23  As4  v100
 BYTE   W04
 BYTE   VOL   28*FE07AnUnexpectedCallerAlice_mvl/mxv
 BYTE   W04
 BYTE   VOL   29*FE07AnUnexpectedCallerAlice_mvl/mxv
 BYTE   W05
 BYTE   VOL   29*FE07AnUnexpectedCallerAlice_mvl/mxv
 BYTE   W05
 BYTE   VOL   30*FE07AnUnexpectedCallerAlice_mvl/mxv
 BYTE   W05
 BYTE   VOL   30*FE07AnUnexpectedCallerAlice_mvl/mxv
 BYTE   W01
 BYTE   N23  Bn4
 BYTE   W04
 BYTE   VOL   31*FE07AnUnexpectedCallerAlice_mvl/mxv
 BYTE   W05
 BYTE   VOL   31*FE07AnUnexpectedCallerAlice_mvl/mxv
 BYTE   W05
 BYTE   VOL   32*FE07AnUnexpectedCallerAlice_mvl/mxv
 BYTE   W05
 BYTE   VOL   32*FE07AnUnexpectedCallerAlice_mvl/mxv
 BYTE   W04
 BYTE   VOL   33*FE07AnUnexpectedCallerAlice_mvl/mxv
 BYTE   W01
//  #04 //038   ----------------------------------------
 BYTE   N92  Gs4  v088
 BYTE   W04
 BYTE   VOL   33*FE07AnUnexpectedCallerAlice_mvl/mxv
 BYTE   W05
 BYTE   VOL   34*FE07AnUnexpectedCallerAlice_mvl/mxv
 BYTE   W05
 BYTE   VOL   34*FE07AnUnexpectedCallerAlice_mvl/mxv
 BYTE   W05
 BYTE   VOL   35*FE07AnUnexpectedCallerAlice_mvl/mxv
 BYTE   W05
 BYTE   VOL   35*FE07AnUnexpectedCallerAlice_mvl/mxv
 BYTE   W05
 BYTE   VOL   36*FE07AnUnexpectedCallerAlice_mvl/mxv
 BYTE   W05
 BYTE   VOL   36*FE07AnUnexpectedCallerAlice_mvl/mxv
 BYTE   W04
 BYTE   VOL   37*FE07AnUnexpectedCallerAlice_mvl/mxv
 BYTE   W05
 BYTE   VOL   37*FE07AnUnexpectedCallerAlice_mvl/mxv
 BYTE   W05
 BYTE   VOL   38*FE07AnUnexpectedCallerAlice_mvl/mxv
 BYTE   W05
 BYTE   VOL   38*FE07AnUnexpectedCallerAlice_mvl/mxv
 BYTE   W02
 BYTE   VOL   39*FE07AnUnexpectedCallerAlice_mvl/mxv
 BYTE   W01
 BYTE   VOL   38*FE07AnUnexpectedCallerAlice_mvl/mxv
 BYTE   W01
 BYTE   VOL   37*FE07AnUnexpectedCallerAlice_mvl/mxv
 BYTE   W01
 BYTE   VOL   36*FE07AnUnexpectedCallerAlice_mvl/mxv
 BYTE   W01
 BYTE   VOL   35*FE07AnUnexpectedCallerAlice_mvl/mxv
 BYTE   W01
 BYTE   VOL   33*FE07AnUnexpectedCallerAlice_mvl/mxv
 BYTE   W01
 BYTE   VOL   32*FE07AnUnexpectedCallerAlice_mvl/mxv
 BYTE   W01
 BYTE   VOL   31*FE07AnUnexpectedCallerAlice_mvl/mxv
 BYTE   W01
 BYTE   VOL   30*FE07AnUnexpectedCallerAlice_mvl/mxv
 BYTE   W01
 BYTE   VOL   29*FE07AnUnexpectedCallerAlice_mvl/mxv
 BYTE   W01
 BYTE   VOL   28*FE07AnUnexpectedCallerAlice_mvl/mxv
 BYTE   W01
 BYTE   VOL   27*FE07AnUnexpectedCallerAlice_mvl/mxv
 BYTE   W01
 BYTE   VOL   26*FE07AnUnexpectedCallerAlice_mvl/mxv
 BYTE   W01
 BYTE   VOL   25*FE07AnUnexpectedCallerAlice_mvl/mxv
 BYTE   W01
 BYTE   VOL   24*FE07AnUnexpectedCallerAlice_mvl/mxv
 BYTE   W01
 BYTE   VOL   22*FE07AnUnexpectedCallerAlice_mvl/mxv
 BYTE   W01
 BYTE   VOL   21*FE07AnUnexpectedCallerAlice_mvl/mxv
 BYTE   W01
 BYTE   VOL   20*FE07AnUnexpectedCallerAlice_mvl/mxv
 BYTE   W01
 BYTE   VOL   19*FE07AnUnexpectedCallerAlice_mvl/mxv
 BYTE   W01
 BYTE   VOL   18*FE07AnUnexpectedCallerAlice_mvl/mxv
 BYTE   W01
 BYTE   VOL   17*FE07AnUnexpectedCallerAlice_mvl/mxv
 BYTE   W01
 BYTE   VOL   16*FE07AnUnexpectedCallerAlice_mvl/mxv
 BYTE   W01
 BYTE   VOL   15*FE07AnUnexpectedCallerAlice_mvl/mxv
 BYTE   W01
 BYTE   VOL   14*FE07AnUnexpectedCallerAlice_mvl/mxv
 BYTE   W01
 BYTE   VOL   13*FE07AnUnexpectedCallerAlice_mvl/mxv
 BYTE   W01
 BYTE   VOL   12*FE07AnUnexpectedCallerAlice_mvl/mxv
 BYTE   W01
 BYTE   VOL   11*FE07AnUnexpectedCallerAlice_mvl/mxv
 BYTE   W01
 BYTE   VOL   9*FE07AnUnexpectedCallerAlice_mvl/mxv
 BYTE   W01
 BYTE   VOL   8*FE07AnUnexpectedCallerAlice_mvl/mxv
 BYTE   W01
 BYTE   VOL   7*FE07AnUnexpectedCallerAlice_mvl/mxv
 BYTE   W01
 BYTE   VOL   6*FE07AnUnexpectedCallerAlice_mvl/mxv
 BYTE   W01
 BYTE   VOL   5*FE07AnUnexpectedCallerAlice_mvl/mxv
 BYTE   W01
 BYTE   VOL   4*FE07AnUnexpectedCallerAlice_mvl/mxv
 BYTE   W01
 BYTE   VOL   3*FE07AnUnexpectedCallerAlice_mvl/mxv
 BYTE   W01
 BYTE   VOL   2*FE07AnUnexpectedCallerAlice_mvl/mxv
 BYTE   W01
 BYTE   VOL   1*FE07AnUnexpectedCallerAlice_mvl/mxv
 BYTE   W01
 BYTE   VOL   0*FE07AnUnexpectedCallerAlice_mvl/mxv
 BYTE   W01
 BYTE   VOL   0*FE07AnUnexpectedCallerAlice_mvl/mxv
 BYTE   W01
 BYTE   VOL   0*FE07AnUnexpectedCallerAlice_mvl/mxv
 BYTE   W01
 BYTE   VOL   0*FE07AnUnexpectedCallerAlice_mvl/mxv
 BYTE   W01
 BYTE   VOL   0*FE07AnUnexpectedCallerAlice_mvl/mxv
 BYTE   W01
//  #04 //039   ----------------------------------------
 BYTE   VOL   0*FE07AnUnexpectedCallerAlice_mvl/mxv
 BYTE   W01
 BYTE   VOL   0*FE07AnUnexpectedCallerAlice_mvl/mxv
 BYTE   W01
 BYTE   VOL   0*FE07AnUnexpectedCallerAlice_mvl/mxv
 BYTE   W01
 BYTE   VOL   0*FE07AnUnexpectedCallerAlice_mvl/mxv
 BYTE   W01
 BYTE   VOL   0*FE07AnUnexpectedCallerAlice_mvl/mxv
 BYTE   W01
 BYTE   VOL   0*FE07AnUnexpectedCallerAlice_mvl/mxv
 BYTE   W01
 BYTE   VOL   0*FE07AnUnexpectedCallerAlice_mvl/mxv
 BYTE   W01
 BYTE   VOL   0*FE07AnUnexpectedCallerAlice_mvl/mxv
 BYTE   W01
 BYTE   VOL   0*FE07AnUnexpectedCallerAlice_mvl/mxv
 BYTE   W01
 BYTE   VOL   0*FE07AnUnexpectedCallerAlice_mvl/mxv
 BYTE   W01
 BYTE   VOL   0*FE07AnUnexpectedCallerAlice_mvl/mxv
 BYTE   W01
 BYTE   VOL   0*FE07AnUnexpectedCallerAlice_mvl/mxv
 BYTE   W01
 BYTE   VOL   0*FE07AnUnexpectedCallerAlice_mvl/mxv
 BYTE   W01
 BYTE   VOL   0*FE07AnUnexpectedCallerAlice_mvl/mxv
 BYTE   W01
 BYTE   VOL   33*FE07AnUnexpectedCallerAlice_mvl/mxv
 BYTE   W10
 BYTE   N23  Gs3  v080
 BYTE   W24
 BYTE   Cs4
 BYTE   W24
 BYTE   Ds4
 BYTE   W24
//  #04 //040   ----------------------------------------
 BYTE   N92  Gs4
 BYTE   W56
 BYTE   W03
 BYTE   VOL   33*FE07AnUnexpectedCallerAlice_mvl/mxv
 BYTE   W01
 BYTE   VOL   32*FE07AnUnexpectedCallerAlice_mvl/mxv
 BYTE   W01
 BYTE   VOL   31*FE07AnUnexpectedCallerAlice_mvl/mxv
 BYTE   W01
 BYTE   VOL   30*FE07AnUnexpectedCallerAlice_mvl/mxv
 BYTE   W01
 BYTE   VOL   29*FE07AnUnexpectedCallerAlice_mvl/mxv
 BYTE   W01
 BYTE   VOL   27*FE07AnUnexpectedCallerAlice_mvl/mxv
 BYTE   W01
 BYTE   VOL   26*FE07AnUnexpectedCallerAlice_mvl/mxv
 BYTE   W01
 BYTE   VOL   25*FE07AnUnexpectedCallerAlice_mvl/mxv
 BYTE   W01
 BYTE   VOL   24*FE07AnUnexpectedCallerAlice_mvl/mxv
 BYTE   W01
 BYTE   VOL   22*FE07AnUnexpectedCallerAlice_mvl/mxv
 BYTE   W01
 BYTE   VOL   21*FE07AnUnexpectedCallerAlice_mvl/mxv
 BYTE   W01
 BYTE   VOL   20*FE07AnUnexpectedCallerAlice_mvl/mxv
 BYTE   W01
 BYTE   VOL   19*FE07AnUnexpectedCallerAlice_mvl/mxv
 BYTE   W01
 BYTE   VOL   17*FE07AnUnexpectedCallerAlice_mvl/mxv
 BYTE   W01
 BYTE   VOL   16*FE07AnUnexpectedCallerAlice_mvl/mxv
 BYTE   W01
 BYTE   VOL   15*FE07AnUnexpectedCallerAlice_mvl/mxv
 BYTE   W01
 BYTE   VOL   14*FE07AnUnexpectedCallerAlice_mvl/mxv
 BYTE   W01
 BYTE   VOL   12*FE07AnUnexpectedCallerAlice_mvl/mxv
 BYTE   W01
 BYTE   VOL   11*FE07AnUnexpectedCallerAlice_mvl/mxv
 BYTE   W01
 BYTE   VOL   10*FE07AnUnexpectedCallerAlice_mvl/mxv
 BYTE   W01
 BYTE   VOL   9*FE07AnUnexpectedCallerAlice_mvl/mxv
 BYTE   W01
 BYTE   VOL   7*FE07AnUnexpectedCallerAlice_mvl/mxv
 BYTE   W01
 BYTE   VOL   7*FE07AnUnexpectedCallerAlice_mvl/mxv
 BYTE   W01
 BYTE   VOL   5*FE07AnUnexpectedCallerAlice_mvl/mxv
 BYTE   W01
 BYTE   VOL   4*FE07AnUnexpectedCallerAlice_mvl/mxv
 BYTE   W01
 BYTE   VOL   3*FE07AnUnexpectedCallerAlice_mvl/mxv
 BYTE   W01
 BYTE   VOL   2*FE07AnUnexpectedCallerAlice_mvl/mxv
 BYTE   W01
 BYTE   VOL   0*FE07AnUnexpectedCallerAlice_mvl/mxv
 BYTE   W01
 BYTE   VOL   0*FE07AnUnexpectedCallerAlice_mvl/mxv
 BYTE   W01
 BYTE   VOL   0*FE07AnUnexpectedCallerAlice_mvl/mxv
 BYTE   W01
 BYTE   VOL   0*FE07AnUnexpectedCallerAlice_mvl/mxv
 BYTE   W01
 BYTE   VOL   0*FE07AnUnexpectedCallerAlice_mvl/mxv
 BYTE   W01
 BYTE   VOL   0*FE07AnUnexpectedCallerAlice_mvl/mxv
 BYTE   W01
 BYTE   VOL   0*FE07AnUnexpectedCallerAlice_mvl/mxv
 BYTE   W01
 BYTE   VOL   0*FE07AnUnexpectedCallerAlice_mvl/mxv
 BYTE   W01
 BYTE   VOL   0*FE07AnUnexpectedCallerAlice_mvl/mxv
 BYTE   W01
 BYTE   VOL   0*FE07AnUnexpectedCallerAlice_mvl/mxv
 BYTE   W01
//  #04 //041   ----------------------------------------
 BYTE   VOL   0*FE07AnUnexpectedCallerAlice_mvl/mxv
 BYTE   W01
 BYTE   VOL   0*FE07AnUnexpectedCallerAlice_mvl/mxv
 BYTE   W01
 BYTE   VOL   0*FE07AnUnexpectedCallerAlice_mvl/mxv
 BYTE   W01
 BYTE   VOL   0*FE07AnUnexpectedCallerAlice_mvl/mxv
 BYTE   W01
 BYTE   VOL   0*FE07AnUnexpectedCallerAlice_mvl/mxv
 BYTE   W01
 BYTE   VOL   0*FE07AnUnexpectedCallerAlice_mvl/mxv
 BYTE   W01
 BYTE   VOL   0*FE07AnUnexpectedCallerAlice_mvl/mxv
 BYTE   W01
 BYTE   VOL   0*FE07AnUnexpectedCallerAlice_mvl/mxv
 BYTE   W05
 BYTE   VOL   39*FE07AnUnexpectedCallerAlice_mvl/mxv
 BYTE   W12
 BYTE   N23  Gs3
 BYTE   W24
 BYTE   Cs4
 BYTE   W24
 BYTE   Ds4
 BYTE   W24
//  #04 //042   ----------------------------------------
 BYTE   VOL   0*FE07AnUnexpectedCallerAlice_mvl/mxv
 BYTE   TIE  Gs4  v084
 BYTE   W02
 BYTE   VOL   0*FE07AnUnexpectedCallerAlice_mvl/mxv
 BYTE   W02
 BYTE   VOL   0*FE07AnUnexpectedCallerAlice_mvl/mxv
 BYTE   W02
 BYTE   VOL   2*FE07AnUnexpectedCallerAlice_mvl/mxv
 BYTE   W02
 BYTE   VOL   3*FE07AnUnexpectedCallerAlice_mvl/mxv
 BYTE   W02
 BYTE   VOL   4*FE07AnUnexpectedCallerAlice_mvl/mxv
 BYTE   W02
 BYTE   VOL   5*FE07AnUnexpectedCallerAlice_mvl/mxv
 BYTE   W03
 BYTE   VOL   6*FE07AnUnexpectedCallerAlice_mvl/mxv
 BYTE   W02
 BYTE   VOL   7*FE07AnUnexpectedCallerAlice_mvl/mxv
 BYTE   W02
 BYTE   VOL   8*FE07AnUnexpectedCallerAlice_mvl/mxv
 BYTE   W02
 BYTE   VOL   9*FE07AnUnexpectedCallerAlice_mvl/mxv
 BYTE   W02
 BYTE   VOL   9*FE07AnUnexpectedCallerAlice_mvl/mxv
 BYTE   W02
 BYTE   VOL   10*FE07AnUnexpectedCallerAlice_mvl/mxv
 BYTE   W02
 BYTE   VOL   11*FE07AnUnexpectedCallerAlice_mvl/mxv
 BYTE   W03
 BYTE   VOL   12*FE07AnUnexpectedCallerAlice_mvl/mxv
 BYTE   W02
 BYTE   VOL   13*FE07AnUnexpectedCallerAlice_mvl/mxv
 BYTE   W02
 BYTE   VOL   13*FE07AnUnexpectedCallerAlice_mvl/mxv
 BYTE   W02
 BYTE   VOL   14*FE07AnUnexpectedCallerAlice_mvl/mxv
 BYTE   W02
 BYTE   VOL   15*FE07AnUnexpectedCallerAlice_mvl/mxv
 BYTE   W02
 BYTE   VOL   15*FE07AnUnexpectedCallerAlice_mvl/mxv
 BYTE   W03
 BYTE   VOL   16*FE07AnUnexpectedCallerAlice_mvl/mxv
 BYTE   W02
 BYTE   VOL   17*FE07AnUnexpectedCallerAlice_mvl/mxv
 BYTE   W02
 BYTE   VOL   17*FE07AnUnexpectedCallerAlice_mvl/mxv
 BYTE   W02
 BYTE   VOL   18*FE07AnUnexpectedCallerAlice_mvl/mxv
 BYTE   W02
 BYTE   VOL   18*FE07AnUnexpectedCallerAlice_mvl/mxv
 BYTE   W02
 BYTE   VOL   19*FE07AnUnexpectedCallerAlice_mvl/mxv
 BYTE   W02
 BYTE   VOL   19*FE07AnUnexpectedCallerAlice_mvl/mxv
 BYTE   W03
 BYTE   VOL   20*FE07AnUnexpectedCallerAlice_mvl/mxv
 BYTE   W02
 BYTE   VOL   20*FE07AnUnexpectedCallerAlice_mvl/mxv
 BYTE   W02
 BYTE   VOL   21*FE07AnUnexpectedCallerAlice_mvl/mxv
 BYTE   W02
 BYTE   VOL   21*FE07AnUnexpectedCallerAlice_mvl/mxv
 BYTE   W02
 BYTE   VOL   22*FE07AnUnexpectedCallerAlice_mvl/mxv
 BYTE   W02
 BYTE   VOL   22*FE07AnUnexpectedCallerAlice_mvl/mxv
 BYTE   W02
 BYTE   VOL   23*FE07AnUnexpectedCallerAlice_mvl/mxv
 BYTE   W03
 BYTE   VOL   24*FE07AnUnexpectedCallerAlice_mvl/mxv
 BYTE   W02
 BYTE   VOL   24*FE07AnUnexpectedCallerAlice_mvl/mxv
 BYTE   W02
 BYTE   VOL   25*FE07AnUnexpectedCallerAlice_mvl/mxv
 BYTE   W04
 BYTE   VOL   25*FE07AnUnexpectedCallerAlice_mvl/mxv
 BYTE   W02
 BYTE   VOL   26*FE07AnUnexpectedCallerAlice_mvl/mxv
 BYTE   W03
 BYTE   VOL   26*FE07AnUnexpectedCallerAlice_mvl/mxv
 BYTE   W04
 BYTE   VOL   27*FE07AnUnexpectedCallerAlice_mvl/mxv
 BYTE   W02
 BYTE   VOL   27*FE07AnUnexpectedCallerAlice_mvl/mxv
 BYTE   W02
 BYTE   VOL   28*FE07AnUnexpectedCallerAlice_mvl/mxv
 BYTE   W02
//  #04 //043   ----------------------------------------
 BYTE   W02
 BYTE   VOL   28*FE07AnUnexpectedCallerAlice_mvl/mxv
 BYTE   W03
 BYTE   VOL   29*FE07AnUnexpectedCallerAlice_mvl/mxv
 BYTE   W04
 BYTE   VOL   29*FE07AnUnexpectedCallerAlice_mvl/mxv
 BYTE   W04
 BYTE   VOL   30*FE07AnUnexpectedCallerAlice_mvl/mxv
 BYTE   W02
 BYTE   VOL   30*FE07AnUnexpectedCallerAlice_mvl/mxv
 BYTE   W05
 BYTE   VOL   31*FE07AnUnexpectedCallerAlice_mvl/mxv
 BYTE   W04
 BYTE   VOL   31*FE07AnUnexpectedCallerAlice_mvl/mxv
 BYTE   W04
 BYTE   VOL   32*FE07AnUnexpectedCallerAlice_mvl/mxv
 BYTE   W05
 BYTE   VOL   32*FE07AnUnexpectedCallerAlice_mvl/mxv
 BYTE   W04
 BYTE   VOL   33*FE07AnUnexpectedCallerAlice_mvl/mxv
 BYTE   W04
 BYTE   VOL   33*FE07AnUnexpectedCallerAlice_mvl/mxv
 BYTE   W03
 BYTE   EOT
 BYTE   W04
 BYTE   VOL   34*FE07AnUnexpectedCallerAlice_mvl/mxv
 BYTE   N44  Fs4  v088
 BYTE   W04
 BYTE   VOL   34*FE07AnUnexpectedCallerAlice_mvl/mxv
 BYTE   W04
 BYTE   VOL   35*FE07AnUnexpectedCallerAlice_mvl/mxv
 BYTE   W05
 BYTE   VOL   35*FE07AnUnexpectedCallerAlice_mvl/mxv
 BYTE   W32
 BYTE   W03
//  #04 //044   ----------------------------------------
 BYTE   N68  Gs3  v100
 BYTE   N68  Gs4  v096
 BYTE   W72
 BYTE   N09  Gs3  v020
 BYTE   N09  Gs4
 BYTE   W12
 BYTE   N05  Ds3  v104
 BYTE   W06
 BYTE   Ds3  v020
 BYTE   W06
//  #04 //045   ----------------------------------------
 BYTE   PATT
  POIN2 Label_01024BB4
//  #04 //046   ----------------------------------------
 BYTE   N92  Ds3  v120
 BYTE   W96
//  #04 //047   ----------------------------------------
 BYTE   VOL   2*FE07AnUnexpectedCallerAlice_mvl/mxv
 BYTE   N23  Bn2  v096
 BYTE   W02
 BYTE   VOL   3*FE07AnUnexpectedCallerAlice_mvl/mxv
 BYTE   W02
 BYTE   VOL   3*FE07AnUnexpectedCallerAlice_mvl/mxv
 BYTE   W01
 BYTE   VOL   4*FE07AnUnexpectedCallerAlice_mvl/mxv
 BYTE   W02
 BYTE   VOL   4*FE07AnUnexpectedCallerAlice_mvl/mxv
 BYTE   W01
 BYTE   VOL   5*FE07AnUnexpectedCallerAlice_mvl/mxv
 BYTE   W02
 BYTE   VOL   5*FE07AnUnexpectedCallerAlice_mvl/mxv
 BYTE   W01
 BYTE   VOL   6*FE07AnUnexpectedCallerAlice_mvl/mxv
 BYTE   W02
 BYTE   VOL   6*FE07AnUnexpectedCallerAlice_mvl/mxv
 BYTE   W01
 BYTE   VOL   7*FE07AnUnexpectedCallerAlice_mvl/mxv
 BYTE   W02
 BYTE   VOL   7*FE07AnUnexpectedCallerAlice_mvl/mxv
 BYTE   W01
 BYTE   VOL   8*FE07AnUnexpectedCallerAlice_mvl/mxv
 BYTE   W02
 BYTE   VOL   8*FE07AnUnexpectedCallerAlice_mvl/mxv
 BYTE   W01
 BYTE   VOL   9*FE07AnUnexpectedCallerAlice_mvl/mxv
 BYTE   W02
 BYTE   VOL   9*FE07AnUnexpectedCallerAlice_mvl/mxv
 BYTE   W01
 BYTE   VOL   10*FE07AnUnexpectedCallerAlice_mvl/mxv
 BYTE   W01
 BYTE   N23  Gs2
 BYTE   W01
 BYTE   VOL   10*FE07AnUnexpectedCallerAlice_mvl/mxv
 BYTE   W01
 BYTE   VOL   11*FE07AnUnexpectedCallerAlice_mvl/mxv
 BYTE   W02
 BYTE   VOL   11*FE07AnUnexpectedCallerAlice_mvl/mxv
 BYTE   W01
 BYTE   VOL   12*FE07AnUnexpectedCallerAlice_mvl/mxv
 BYTE   W01
 BYTE   VOL   12*FE07AnUnexpectedCallerAlice_mvl/mxv
 BYTE   W02
 BYTE   VOL   13*FE07AnUnexpectedCallerAlice_mvl/mxv
 BYTE   W01
 BYTE   VOL   13*FE07AnUnexpectedCallerAlice_mvl/mxv
 BYTE   W02
 BYTE   VOL   14*FE07AnUnexpectedCallerAlice_mvl/mxv
 BYTE   W01
 BYTE   VOL   14*FE07AnUnexpectedCallerAlice_mvl/mxv
 BYTE   W02
 BYTE   VOL   15*FE07AnUnexpectedCallerAlice_mvl/mxv
 BYTE   W01
 BYTE   VOL   15*FE07AnUnexpectedCallerAlice_mvl/mxv
 BYTE   W02
 BYTE   VOL   16*FE07AnUnexpectedCallerAlice_mvl/mxv
 BYTE   W01
 BYTE   VOL   16*FE07AnUnexpectedCallerAlice_mvl/mxv
 BYTE   W02
 BYTE   VOL   17*FE07AnUnexpectedCallerAlice_mvl/mxv
 BYTE   W01
 BYTE   VOL   17*FE07AnUnexpectedCallerAlice_mvl/mxv
 BYTE   W02
 BYTE   VOL   18*FE07AnUnexpectedCallerAlice_mvl/mxv
 BYTE   W01
 BYTE   VOL   18*FE07AnUnexpectedCallerAlice_mvl/mxv
 BYTE   N23  Ds3
 BYTE   W02
 BYTE   VOL   19*FE07AnUnexpectedCallerAlice_mvl/mxv
 BYTE   W01
 BYTE   VOL   19*FE07AnUnexpectedCallerAlice_mvl/mxv
 BYTE   W02
 BYTE   VOL   20*FE07AnUnexpectedCallerAlice_mvl/mxv
 BYTE   W01
 BYTE   VOL   20*FE07AnUnexpectedCallerAlice_mvl/mxv
 BYTE   W02
 BYTE   VOL   21*FE07AnUnexpectedCallerAlice_mvl/mxv
 BYTE   W01
 BYTE   VOL   21*FE07AnUnexpectedCallerAlice_mvl/mxv
 BYTE   W02
 BYTE   VOL   22*FE07AnUnexpectedCallerAlice_mvl/mxv
 BYTE   W01
 BYTE   VOL   22*FE07AnUnexpectedCallerAlice_mvl/mxv
 BYTE   W01
 BYTE   VOL   23*FE07AnUnexpectedCallerAlice_mvl/mxv
 BYTE   W02
 BYTE   VOL   24*FE07AnUnexpectedCallerAlice_mvl/mxv
 BYTE   W01
 BYTE   VOL   24*FE07AnUnexpectedCallerAlice_mvl/mxv
 BYTE   W02
 BYTE   VOL   25*FE07AnUnexpectedCallerAlice_mvl/mxv
 BYTE   W01
 BYTE   VOL   25*FE07AnUnexpectedCallerAlice_mvl/mxv
 BYTE   W02
 BYTE   VOL   26*FE07AnUnexpectedCallerAlice_mvl/mxv
 BYTE   W01
 BYTE   VOL   26*FE07AnUnexpectedCallerAlice_mvl/mxv
 BYTE   W02
 BYTE   VOL   27*FE07AnUnexpectedCallerAlice_mvl/mxv
 BYTE   N23  Gs3
 BYTE   W01
 BYTE   VOL   27*FE07AnUnexpectedCallerAlice_mvl/mxv
 BYTE   W02
 BYTE   VOL   28*FE07AnUnexpectedCallerAlice_mvl/mxv
 BYTE   W01
 BYTE   VOL   28*FE07AnUnexpectedCallerAlice_mvl/mxv
 BYTE   W02
 BYTE   VOL   29*FE07AnUnexpectedCallerAlice_mvl/mxv
 BYTE   W01
 BYTE   VOL   29*FE07AnUnexpectedCallerAlice_mvl/mxv
 BYTE   W02
 BYTE   VOL   30*FE07AnUnexpectedCallerAlice_mvl/mxv
 BYTE   W01
 BYTE   VOL   30*FE07AnUnexpectedCallerAlice_mvl/mxv
 BYTE   W02
 BYTE   VOL   31*FE07AnUnexpectedCallerAlice_mvl/mxv
 BYTE   W01
 BYTE   VOL   31*FE07AnUnexpectedCallerAlice_mvl/mxv
 BYTE   W02
 BYTE   VOL   32*FE07AnUnexpectedCallerAlice_mvl/mxv
 BYTE   W01
 BYTE   VOL   32*FE07AnUnexpectedCallerAlice_mvl/mxv
 BYTE   W01
 BYTE   VOL   33*FE07AnUnexpectedCallerAlice_mvl/mxv
 BYTE   W02
 BYTE   VOL   33*FE07AnUnexpectedCallerAlice_mvl/mxv
 BYTE   W01
 BYTE   VOL   34*FE07AnUnexpectedCallerAlice_mvl/mxv
 BYTE   W02
 BYTE   VOL   34*FE07AnUnexpectedCallerAlice_mvl/mxv
 BYTE   W01
 BYTE   VOL   35*FE07AnUnexpectedCallerAlice_mvl/mxv
 BYTE   W01
//  #04 //048   ----------------------------------------
 BYTE   VOL   35*FE07AnUnexpectedCallerAlice_mvl/mxv
 BYTE   W96
//  #04 //049   ----------------------------------------
 BYTE   W96
//  #04 //050   ----------------------------------------
 BYTE   W96
//  #04 //051   ----------------------------------------
 BYTE   PATT
  POIN2 Label_01024BF9
//  #04 //052   ----------------------------------------
 BYTE   PATT
  POIN2 Label_01024C0C
//  #04 //053   ----------------------------------------
 BYTE   W48
 BYTE   N44  As2  v104
 BYTE   W48
//  #04 //054   ----------------------------------------
 BYTE   N80  As2  v112
 BYTE   W84
 BYTE   N08  Gs2  v116
 BYTE   W12
//  #04 //055   ----------------------------------------
 BYTE   N44  Cs3  v112
 BYTE   W48
 BYTE   N40  Bn2  v100
 BYTE   W48
//  #04 //056   ----------------------------------------
 BYTE   N88  As2  v104
 BYTE   W96
//  #04 //057   ----------------------------------------
 BYTE   VOICE   60
 BYTE   VOL   25*FE07AnUnexpectedCallerAlice_mvl/mxv
 BYTE   PAN   c_v-15
 BYTE   N88  Fs2  v084
 BYTE   W96
//  #04 //058   ----------------------------------------
 BYTE   Gs2
 BYTE   W96
//  #04 //059   ----------------------------------------
 BYTE   PATT
  POIN2 Label_01024C8F
//  #04 //060   ----------------------------------------
 BYTE   GoTo
  POIN2 Label_0102496A
 BYTE   FINE

//**************** Track 5 (Midi-Chn.4) ****************//

FE07AnUnexpectedCallerAlice_005:
//  #05 //000   ----------------------------------------
 BYTE   KEYSH   FE07AnUnexpectedCallerAlice_key+0
Label_010250EA:
 BYTE   VOICE   49
 BYTE   VOL   35*FE07AnUnexpectedCallerAlice_mvl/mxv
 BYTE   PAN   c_v-24
 BYTE   W96
 BYTE   PEND 
//  #05 //001   ----------------------------------------
 BYTE   W96
//  #05 //002   ----------------------------------------
 BYTE   W96
//  #05 //003   ----------------------------------------
 BYTE   W96
//  #05 //004   ----------------------------------------
 BYTE   W96
//  #05 //005   ----------------------------------------
 BYTE   W96
//  #05 //006   ----------------------------------------
 BYTE   W96
//  #05 //007   ----------------------------------------
 BYTE   W96
//  #05 //008   ----------------------------------------
Label_010250F9:
 BYTE   VOICE   60
 BYTE   VOL   40*FE07AnUnexpectedCallerAlice_mvl/mxv
 BYTE   PAN   c_v-15
 BYTE   TIE  Ds3  v072
 BYTE   TIE  Fs3
 BYTE   W96
 BYTE   PEND 
//  #05 //009   ----------------------------------------
 BYTE   W90
 BYTE   EOT
 BYTE   W02
 BYTE   EOT
 BYTE   Ds3
 BYTE   W04
//  #05 //010   ----------------------------------------
Label_0102510C:
 BYTE   TIE  Fn3  v072
 BYTE   TIE  Gs3
 BYTE   W96
 BYTE   PEND 
//  #05 //011   ----------------------------------------
 BYTE   W84
 BYTE   W02
 BYTE   EOT
 BYTE   W01
 BYTE   EOT
 BYTE   Fn3
 BYTE   W09
//  #05 //012   ----------------------------------------
 BYTE   TIE  Fs3  v068
 BYTE   W96
//  #05 //013   ----------------------------------------
 BYTE   W92
 BYTE   W03
 BYTE   EOT
 BYTE   W01
//  #05 //014   ----------------------------------------
 BYTE   VOICE   80
 BYTE   VOL   33*FE07AnUnexpectedCallerAlice_mvl/mxv
 BYTE   PAN   c_v-16
 BYTE   N68  Ds3  v064
 BYTE   W72
 BYTE   N08  Ds3  v020
 BYTE   W12
 BYTE   N05  Bn2  v056
 BYTE   W06
 BYTE   Bn2  v020
 BYTE   W06
//  #05 //015   ----------------------------------------
 BYTE   N24  Cs3  v064
 BYTE   W24
 BYTE   W03
 BYTE   N05  Cs3  v020
 BYTE   W09
 BYTE   Ds3  v064
 BYTE   W06
 BYTE   Ds3  v020
 BYTE   W06
 BYTE   N24  Cs3  v060
 BYTE   W24
 BYTE   W03
 BYTE   N05  Cs3  v020
 BYTE   W09
 BYTE   As2  v060
 BYTE   W06
 BYTE   As2  v020
 BYTE   W06
//  #05 //016   ----------------------------------------
 BYTE   N96  Bn2  v060
 BYTE   W96
//  #05 //017   ----------------------------------------
 BYTE   N08  Bn2  v020
 BYTE   W96
//  #05 //018   ----------------------------------------
 BYTE   W12
 BYTE   N05  Gs2  v048
 BYTE   W06
 BYTE   Gs2  v020
 BYTE   W06
 BYTE   As2  v064
 BYTE   W06
 BYTE   As2  v020
 BYTE   W06
 BYTE   N11  Bn2  v056
 BYTE   W12
 BYTE   Bn2  v020
 BYTE   W12
 BYTE   N05  Ds3  v064
 BYTE   W06
 BYTE   N06  Ds3  v020
 BYTE   W06
 BYTE   N05  Cs3  v060
 BYTE   W06
 BYTE   N06  Cs3  v020
 BYTE   W06
 BYTE   N05  As2  v056
 BYTE   W06
 BYTE   N06  As2  v020
 BYTE   W06
//  #05 //019   ----------------------------------------
 BYTE   N11  Cs3  v064
 BYTE   W12
 BYTE   N05  As2  v052
 BYTE   W06
 BYTE   N06  As2  v020
 BYTE   W06
 BYTE   N05  Cs3  v060
 BYTE   W06
 BYTE   N06  Cs3  v020
 BYTE   W06
 BYTE   N60  Bn2  v052
 BYTE   W60
//  #05 //020   ----------------------------------------
 BYTE   W12
 BYTE   N05  Gs2  v064
 BYTE   W06
 BYTE   Gs2  v020
 BYTE   W06
 BYTE   As2  v068
 BYTE   W06
 BYTE   As2  v020
 BYTE   W06
 BYTE   N11  Bn2  v064
 BYTE   W12
 BYTE   Bn2  v020
 BYTE   W12
 BYTE   N05  Ds3  v068
 BYTE   W06
 BYTE   N06  Ds3  v020
 BYTE   W06
 BYTE   N05  Cs3  v060
 BYTE   W06
 BYTE   N06  Cs3  v020
 BYTE   W06
 BYTE   N05  As2  v052
 BYTE   W06
 BYTE   N06  As2  v020
 BYTE   W06
//  #05 //021   ----------------------------------------
 BYTE   N11  Cs3  v060
 BYTE   W12
 BYTE   N05  As2  v032
 BYTE   W06
 BYTE   N06  As2  v020
 BYTE   W06
 BYTE   N05  Cs3  v064
 BYTE   W06
 BYTE   N06  Cs3  v020
 BYTE   W06
 BYTE   N28  Bn2  v060
 BYTE   W36
 BYTE   N05  Cs3
 BYTE   W06
 BYTE   N06  Cs3  v020
 BYTE   W06
 BYTE   N05  Ds3  v068
 BYTE   W06
 BYTE   N06  Ds3  v020
 BYTE   W06
//  #05 //022   ----------------------------------------
 BYTE   N28  Fn3  v068
 BYTE   W30
 BYTE   N06  Fn3  v020
 BYTE   W06
 BYTE   N28  Cs3  v068
 BYTE   W30
 BYTE   N06  Cs3  v020
 BYTE   W06
 BYTE   N68  As2  v072
 BYTE   W24
//  #05 //023   ----------------------------------------
 BYTE   W48
 BYTE   N44  Fn2  v052
 BYTE   W48
//  #05 //024   ----------------------------------------
 BYTE   N80  Fs2  v064
 BYTE   W84
 BYTE   N09  Fn2  v056
 BYTE   W12
//  #05 //025   ----------------------------------------
 BYTE   N48  Gs2  v064
 BYTE   W48
 BYTE   N40  Fs2  v060
 BYTE   W48
//  #05 //026   ----------------------------------------
 BYTE   W96
//  #05 //027   ----------------------------------------
 BYTE   W96
//  #05 //028   ----------------------------------------
 BYTE   W96
//  #05 //029   ----------------------------------------
 BYTE   W96
//  #05 //030   ----------------------------------------
 BYTE   PATT
  POIN2 Label_010250EA
//  #05 //031   ----------------------------------------
 BYTE   W96
//  #05 //032   ----------------------------------------
 BYTE   W96
//  #05 //033   ----------------------------------------
 BYTE   W96
//  #05 //034   ----------------------------------------
 BYTE   W96
//  #05 //035   ----------------------------------------
 BYTE   W96
//  #05 //036   ----------------------------------------
 BYTE   W96
//  #05 //037   ----------------------------------------
 BYTE   W92
 BYTE   W03
 BYTE   VOL   35*FE07AnUnexpectedCallerAlice_mvl/mxv
 BYTE   W01
//  #05 //038   ----------------------------------------
 BYTE   PATT
  POIN2 Label_010250F9
//  #05 //039   ----------------------------------------
 BYTE   W90
 BYTE   EOT
 BYTE   Fs3
 BYTE   W02
 BYTE   Ds3
 BYTE   W04
//  #05 //040   ----------------------------------------
 BYTE   PATT
  POIN2 Label_0102510C
//  #05 //041   ----------------------------------------
 BYTE   W84
 BYTE   W02
 BYTE   EOT
 BYTE   Gs3
 BYTE   W01
 BYTE   Fn3
 BYTE   W09
//  #05 //042   ----------------------------------------
 BYTE   TIE  Fs3  v068
 BYTE   W96
//  #05 //043   ----------------------------------------
 BYTE   W92
 BYTE   W03
 BYTE   EOT
 BYTE   VOL   40*FE07AnUnexpectedCallerAlice_mvl/mxv
 BYTE   W01
//  #05 //044   ----------------------------------------
 BYTE   VOICE   68
 BYTE   VOL   33*FE07AnUnexpectedCallerAlice_mvl/mxv
 BYTE   PAN   c_v-15
 BYTE   W96
//  #05 //045   ----------------------------------------
 BYTE   W96
//  #05 //046   ----------------------------------------
 BYTE   W96
//  #05 //047   ----------------------------------------
 BYTE   W96
//  #05 //048   ----------------------------------------
 BYTE   W96
//  #05 //049   ----------------------------------------
 BYTE   W96
//  #05 //050   ----------------------------------------
 BYTE   W96
//  #05 //051   ----------------------------------------
 BYTE   W72
 BYTE   N05  Cs4  v060
 BYTE   W06
 BYTE   N06  Cs4  v020
 BYTE   W06
 BYTE   N05  Ds4  v068
 BYTE   W06
 BYTE   N06  Ds4  v020
 BYTE   W06
//  #05 //052   ----------------------------------------
 BYTE   N28  Fn4  v068
 BYTE   W30
 BYTE   N06  Fn4  v020
 BYTE   W06
 BYTE   N28  Cs4  v068
 BYTE   W30
 BYTE   N06  Cs4  v020
 BYTE   W06
 BYTE   N68  As3  v072
 BYTE   W24
//  #05 //053   ----------------------------------------
 BYTE   W48
 BYTE   N44  As2  v052
 BYTE   W48
//  #05 //054   ----------------------------------------
 BYTE   N88  Bn2  v064
 BYTE   W96
//  #05 //055   ----------------------------------------
 BYTE   N48  Cs3
 BYTE   W48
 BYTE   N40  Bn2  v060
 BYTE   W48
//  #05 //056   ----------------------------------------
 BYTE   N88  As2
 BYTE   W96
//  #05 //057   ----------------------------------------
 BYTE   W96
//  #05 //058   ----------------------------------------
 BYTE   W96
//  #05 //059   ----------------------------------------
 BYTE   W96
//  #05 //060   ----------------------------------------
 BYTE   GoTo
  POIN2 Label_010250EA
 BYTE   FINE

//**************** Track 6 (Midi-Chn.5) ****************//

FE07AnUnexpectedCallerAlice_006:
//  #06 //000   ----------------------------------------
 BYTE   KEYSH   FE07AnUnexpectedCallerAlice_key+0
Label_010252A6:
 BYTE   VOICE   47
 BYTE   VOL   44*FE07AnUnexpectedCallerAlice_mvl/mxv
 BYTE   PAN   c_v-20
 BYTE   N24  Gs2  v112
 BYTE   W36
 BYTE   Gs2  v100
 BYTE   W60
 BYTE   PEND 
//  #06 //001   ----------------------------------------
Label_010252B4:
 BYTE   N24  Gs2  v112
 BYTE   W36
 BYTE   Gs2  v100
 BYTE   W36
 BYTE   N12  Gs2  v108
 BYTE   W12
 BYTE   Fs2
 BYTE   W12
 BYTE   PEND 
//  #06 //002   ----------------------------------------
Label_010252C2:
 BYTE   N24  Gs2  v112
 BYTE   W36
 BYTE   Gs2  v100
 BYTE   W60
 BYTE   PEND 
//  #06 //003   ----------------------------------------
Label_010252CA:
 BYTE   N24  Gs2  v112
 BYTE   W36
 BYTE   Gs2  v100
 BYTE   W36
 BYTE   N06  Gs2  v056
 BYTE   W06
 BYTE   Gs2  v072
 BYTE   W06
 BYTE   Gs2  v084
 BYTE   W06
 BYTE   Gs2  v096
 BYTE   W06
 BYTE   PEND 
//  #06 //004   ----------------------------------------
 BYTE   PATT
  POIN2 Label_010252C2
//  #06 //005   ----------------------------------------
 BYTE   PATT
  POIN2 Label_010252B4
//  #06 //006   ----------------------------------------
 BYTE   PATT
  POIN2 Label_010252C2
//  #06 //007   ----------------------------------------
 BYTE   PATT
  POIN2 Label_010252B4
//  #06 //008   ----------------------------------------
Label_010252F3:
 BYTE   W12
 BYTE   N05  Gs2  v104
 BYTE   W06
 BYTE   Gs2  v100
 BYTE   W06
 BYTE   N10
 BYTE   W12
 BYTE   N05  Gs2  v108
 BYTE   W06
 BYTE   Gs2  v100
 BYTE   W06
 BYTE   N09  Gs2  v112
 BYTE   W12
 BYTE   N05  Gs2  v092
 BYTE   W06
 BYTE   Gs2  v084
 BYTE   W06
 BYTE   N10  Gs2  v088
 BYTE   W12
 BYTE   Fs2
 BYTE   W12
 BYTE   PEND 
//  #06 //009   ----------------------------------------
Label_01025316:
 BYTE   N08  Gs2  v112
 BYTE   W12
 BYTE   N05  Gs2  v104
 BYTE   W06
 BYTE   N08  Gs2  v108
 BYTE   W18
 BYTE   N09  Gs2  v088
 BYTE   W12
 BYTE   N05  Gs2  v100
 BYTE   W06
 BYTE   Gs2  v084
 BYTE   W06
 BYTE   N09  Gs2  v092
 BYTE   W12
 BYTE   Gs2  v104
 BYTE   W12
 BYTE   N10  Fs2  v112
 BYTE   W12
 BYTE   PEND 
//  #06 //010   ----------------------------------------
Label_01025339:
 BYTE   W12
 BYTE   N05  Gs2  v116
 BYTE   W06
 BYTE   Gs2  v108
 BYTE   W06
 BYTE   N09  Gs2  v112
 BYTE   W12
 BYTE   N05  Gs2  v096
 BYTE   W06
 BYTE   Gs2  v088
 BYTE   W06
 BYTE   N09  Gs2  v104
 BYTE   W12
 BYTE   N05
 BYTE   W06
 BYTE   Gs2  v092
 BYTE   W06
 BYTE   N09  Gs2  v100
 BYTE   W12
 BYTE   N10  Fs2  v108
 BYTE   W12
 BYTE   PEND 
//  #06 //011   ----------------------------------------
Label_0102535E:
 BYTE   W12
 BYTE   N05  Gs2  v100
 BYTE   W06
 BYTE   Gs2  v088
 BYTE   W06
 BYTE   N09  Gs2  v100
 BYTE   W12
 BYTE   Fs2  v104
 BYTE   W12
 BYTE   Gs2  v112
 BYTE   W12
 BYTE   Fs2
 BYTE   W12
 BYTE   Gs2  v108
 BYTE   W12
 BYTE   N10  Fs2
 BYTE   W12
 BYTE   PEND 
//  #06 //012   ----------------------------------------
Label_01025379:
 BYTE   W12
 BYTE   N05  Gs2  v116
 BYTE   W06
 BYTE   Gs2  v104
 BYTE   W06
 BYTE   N09  Gs2  v112
 BYTE   W12
 BYTE   N05  Gs2  v096
 BYTE   W06
 BYTE   Gs2  v088
 BYTE   W06
 BYTE   N09  Gs2  v100
 BYTE   W12
 BYTE   N05  Gs2  v092
 BYTE   W06
 BYTE   Gs2  v084
 BYTE   W06
 BYTE   N09  Gs2  v092
 BYTE   W12
 BYTE   N10  Fs2  v104
 BYTE   W12
 BYTE   PEND 
//  #06 //013   ----------------------------------------
Label_010253A0:
 BYTE   W12
 BYTE   N08  Gs2  v104
 BYTE   W12
 BYTE   N09  Gs2  v100
 BYTE   W12
 BYTE   Gs2  v096
 BYTE   W12
 BYTE   Gs2  v104
 BYTE   W12
 BYTE   N05
 BYTE   W06
 BYTE   Gs2  v092
 BYTE   W06
 BYTE   N09  Gs2  v096
 BYTE   W12
 BYTE   N08  Fs2  v108
 BYTE   W12
 BYTE   PEND 
//  #06 //014   ----------------------------------------
Label_010253BD:
 BYTE   VOICE   127
 BYTE   VOL   57*FE07AnUnexpectedCallerAlice_mvl/mxv
 BYTE   PAN   c_v+0
 BYTE   N18  Dn1  v120
 BYTE   W36
 BYTE   N12  Dn1  v104
 BYTE   W24
 BYTE   Dn1  v116
 BYTE   W24
 BYTE   N06  Dn1  v108
 BYTE   W06
 BYTE   N12  Dn1  v100
 BYTE   W06
 BYTE   PEND 
//  #06 //015   ----------------------------------------
Label_010253D7:
 BYTE   W12
 BYTE   N12  Dn1  v112
 BYTE   W24
 BYTE   N12
 BYTE   W24
 BYTE   N12
 BYTE   W24
 BYTE   N06
 BYTE   W06
 BYTE   N12  Dn1  v100
 BYTE   W06
 BYTE   PEND 
//  #06 //016   ----------------------------------------
Label_010253E7:
 BYTE   W12
 BYTE   N12  Dn1  v120
 BYTE   W24
 BYTE   N12
 BYTE   W24
 BYTE   N12
 BYTE   W24
 BYTE   N06  Dn1  v116
 BYTE   W06
 BYTE   N12  Dn1  v096
 BYTE   W06
 BYTE   PEND 
//  #06 //017   ----------------------------------------
 BYTE   W12
 BYTE   Dn1  v116
 BYTE   W24
 BYTE   Dn1  v104
 BYTE   W24
 BYTE   N06  Dn1  v112
 BYTE   W06
 BYTE   Dn1  v120
 BYTE   W06
 BYTE   VOICE   47
 BYTE   VOL   46*FE07AnUnexpectedCallerAlice_mvl/mxv
 BYTE   PAN   c_v-14
 BYTE   N06  Ds2  v072
 BYTE   W06
 BYTE   Ds2  v092
 BYTE   W06
 BYTE   Ds2  v104
 BYTE   W06
 BYTE   Ds2  v120
 BYTE   W06
//  #06 //018   ----------------------------------------
 BYTE   PATT
  POIN2 Label_010252C2
//  #06 //019   ----------------------------------------
 BYTE   PATT
  POIN2 Label_010252B4
//  #06 //020   ----------------------------------------
 BYTE   PATT
  POIN2 Label_010252C2
//  #06 //021   ----------------------------------------
 BYTE   PATT
  POIN2 Label_010252B4
//  #06 //022   ----------------------------------------
 BYTE   PATT
  POIN2 Label_010252C2
//  #06 //023   ----------------------------------------
 BYTE   PATT
  POIN2 Label_010252B4
//  #06 //024   ----------------------------------------
 BYTE   PATT
  POIN2 Label_010252C2
//  #06 //025   ----------------------------------------
 BYTE   PATT
  POIN2 Label_010252B4
//  #06 //026   ----------------------------------------
Label_01025442:
 BYTE   N18  Gs2  v112
 BYTE   W36
 BYTE   Gs2  v100
 BYTE   W24
 BYTE   Gs2  v108
 BYTE   W24
 BYTE   N06  Gs2  v104
 BYTE   W06
 BYTE   N18  Gs2  v092
 BYTE   W06
 BYTE   PEND 
//  #06 //027   ----------------------------------------
Label_01025455:
 BYTE   W12
 BYTE   N18  Gs2  v108
 BYTE   W24
 BYTE   Gs2  v104
 BYTE   W24
 BYTE   Gs2  v108
 BYTE   W24
 BYTE   N06
 BYTE   W06
 BYTE   N18  Gs2  v096
 BYTE   W06
 BYTE   PEND 
//  #06 //028   ----------------------------------------
Label_01025467:
 BYTE   W12
 BYTE   N18  Gs2  v112
 BYTE   W24
 BYTE   N18
 BYTE   W24
 BYTE   N18
 BYTE   W24
 BYTE   N06  Gs2  v108
 BYTE   W06
 BYTE   N18  Gs2  v092
 BYTE   W06
 BYTE   PEND 
//  #06 //029   ----------------------------------------
Label_01025479:
 BYTE   W12
 BYTE   N18  Gs2  v108
 BYTE   W24
 BYTE   Gs2  v096
 BYTE   W24
 BYTE   N06  Gs2  v108
 BYTE   W06
 BYTE   N18  Gs2  v112
 BYTE   W18
 BYTE   N12
 BYTE   W12
 BYTE   PEND 
//  #06 //030   ----------------------------------------
 BYTE   PATT
  POIN2 Label_010252A6
//  #06 //031   ----------------------------------------
 BYTE   PATT
  POIN2 Label_010252B4
//  #06 //032   ----------------------------------------
 BYTE   PATT
  POIN2 Label_010252C2
//  #06 //033   ----------------------------------------
 BYTE   PATT
  POIN2 Label_010252CA
//  #06 //034   ----------------------------------------
 BYTE   PATT
  POIN2 Label_010252C2
//  #06 //035   ----------------------------------------
 BYTE   PATT
  POIN2 Label_010252B4
//  #06 //036   ----------------------------------------
 BYTE   PATT
  POIN2 Label_010252C2
//  #06 //037   ----------------------------------------
 BYTE   PATT
  POIN2 Label_010252B4
//  #06 //038   ----------------------------------------
 BYTE   PATT
  POIN2 Label_010252F3
//  #06 //039   ----------------------------------------
 BYTE   PATT
  POIN2 Label_01025316
//  #06 //040   ----------------------------------------
 BYTE   PATT
  POIN2 Label_01025339
//  #06 //041   ----------------------------------------
 BYTE   PATT
  POIN2 Label_0102535E
//  #06 //042   ----------------------------------------
 BYTE   PATT
  POIN2 Label_01025379
//  #06 //043   ----------------------------------------
 BYTE   PATT
  POIN2 Label_010253A0
//  #06 //044   ----------------------------------------
 BYTE   PATT
  POIN2 Label_010253BD
//  #06 //045   ----------------------------------------
 BYTE   PATT
  POIN2 Label_010253D7
//  #06 //046   ----------------------------------------
 BYTE   PATT
  POIN2 Label_010253E7
//  #06 //047   ----------------------------------------
 BYTE   W12
 BYTE   N12  Dn1  v116
 BYTE   W24
 BYTE   Dn1  v104
 BYTE   W12
 BYTE   VOICE   47
 BYTE   VOL   46*FE07AnUnexpectedCallerAlice_mvl/mxv
 BYTE   PAN   c_v-14
 BYTE   N06  Ds3  v056
 BYTE   W06
 BYTE   Ds3  v064
 BYTE   W06
 BYTE   Ds3  v072
 BYTE   W06
 BYTE   Ds3  v080
 BYTE   W06
 BYTE   Ds3  v088
 BYTE   W06
 BYTE   Ds3  v100
 BYTE   W06
 BYTE   Ds3  v108
 BYTE   W06
 BYTE   Ds3  v116
 BYTE   W06
//  #06 //048   ----------------------------------------
 BYTE   PATT
  POIN2 Label_010252C2
//  #06 //049   ----------------------------------------
 BYTE   PATT
  POIN2 Label_010252B4
//  #06 //050   ----------------------------------------
 BYTE   PATT
  POIN2 Label_010252C2
//  #06 //051   ----------------------------------------
 BYTE   PATT
  POIN2 Label_010252B4
//  #06 //052   ----------------------------------------
 BYTE   PATT
  POIN2 Label_010252C2
//  #06 //053   ----------------------------------------
 BYTE   PATT
  POIN2 Label_010252B4
//  #06 //054   ----------------------------------------
 BYTE   PATT
  POIN2 Label_010252C2
//  #06 //055   ----------------------------------------
 BYTE   PATT
  POIN2 Label_010252B4
//  #06 //056   ----------------------------------------
 BYTE   PATT
  POIN2 Label_01025442
//  #06 //057   ----------------------------------------
 BYTE   PATT
  POIN2 Label_01025455
//  #06 //058   ----------------------------------------
 BYTE   PATT
  POIN2 Label_01025467
//  #06 //059   ----------------------------------------
 BYTE   PATT
  POIN2 Label_01025479
//  #06 //060   ----------------------------------------
 BYTE   GoTo
  POIN2 Label_010252A6
 BYTE   FINE

//**************** Track 7 (Midi-Chn.6) ****************//

FE07AnUnexpectedCallerAlice_007:
//  #07 //000   ----------------------------------------
 BYTE   KEYSH   FE07AnUnexpectedCallerAlice_key+0
Label_0102554E:
 BYTE   VOICE   127
 BYTE   VOL   46*FE07AnUnexpectedCallerAlice_mvl/mxv
 BYTE   PAN   c_v+0
 BYTE   N11  Dn1  v092
 BYTE   N44  An2
 BYTE   W12
 BYTE   N05  Fs2  v040
 BYTE   W06
 BYTE   Fs2  v036
 BYTE   W06
 BYTE   N08  Fs2  v040
 BYTE   W12
 BYTE   N11  Dn1  v092
 BYTE   W12
 BYTE   N05  Fs2  v044
 BYTE   W06
 BYTE   Fs2  v040
 BYTE   W06
 BYTE   N08
 BYTE   W12
 BYTE   N11  Dn1  v092
 BYTE   W12
 BYTE   N08  Fs2  v044
 BYTE   W12
 BYTE   PEND 
//  #07 //001   ----------------------------------------
Label_0102557B:
 BYTE   N11  Dn1  v092
 BYTE   W12
 BYTE   N05  Fs2  v040
 BYTE   W06
 BYTE   Fs2  v036
 BYTE   W06
 BYTE   N08  Fs2  v040
 BYTE   W12
 BYTE   N11  Dn1  v092
 BYTE   W12
 BYTE   N05  Fs2  v044
 BYTE   W06
 BYTE   Fs2  v040
 BYTE   W06
 BYTE   N08
 BYTE   W12
 BYTE   N11  Dn1  v092
 BYTE   W12
 BYTE   N08  Fs2  v044
 BYTE   W12
 BYTE   PEND 
//  #07 //002   ----------------------------------------
 BYTE   PATT
  POIN2 Label_0102557B
//  #07 //003   ----------------------------------------
Label_010255A5:
 BYTE   N11  Dn1  v092
 BYTE   W12
 BYTE   N05  Fs2  v040
 BYTE   W06
 BYTE   Fs2  v036
 BYTE   W06
 BYTE   N08  Fs2  v040
 BYTE   W12
 BYTE   N11  Dn1  v092
 BYTE   W12
 BYTE   N05  Fs2  v044
 BYTE   W06
 BYTE   Fs2  v040
 BYTE   W06
 BYTE   N08
 BYTE   W12
 BYTE   N11  Dn1  v092
 BYTE   N84  Fn2
 BYTE   W12
 BYTE   N08  Fs2  v044
 BYTE   W12
 BYTE   PEND 
//  #07 //004   ----------------------------------------
Label_010255CC:
 BYTE   W12
 BYTE   N05  Fs2  v040
 BYTE   W06
 BYTE   Fs2  v036
 BYTE   W06
 BYTE   N08  Fs2  v040
 BYTE   W12
 BYTE   N11  Dn1  v092
 BYTE   W12
 BYTE   N05  Fs2  v044
 BYTE   W06
 BYTE   Fs2  v040
 BYTE   W06
 BYTE   N08
 BYTE   W12
 BYTE   N11  Dn1  v092
 BYTE   W12
 BYTE   N08  Fs2  v044
 BYTE   W12
 BYTE   PEND 
//  #07 //005   ----------------------------------------
 BYTE   PATT
  POIN2 Label_0102557B
//  #07 //006   ----------------------------------------
 BYTE   PATT
  POIN2 Label_0102557B
//  #07 //007   ----------------------------------------
Label_010255F8:
 BYTE   N11  Dn1  v092
 BYTE   N92  En2  v108
 BYTE   W12
 BYTE   N05  Fs2  v040
 BYTE   W06
 BYTE   Fs2  v036
 BYTE   W06
 BYTE   N08  Fs2  v040
 BYTE   W12
 BYTE   N11  Dn1  v092
 BYTE   W12
 BYTE   N05  Fs2  v044
 BYTE   W06
 BYTE   Fs2  v040
 BYTE   W06
 BYTE   N08
 BYTE   W12
 BYTE   N11  Dn1  v092
 BYTE   W12
 BYTE   N08  Fs2  v044
 BYTE   W12
 BYTE   PEND 
//  #07 //008   ----------------------------------------
Label_01025620:
 BYTE   N11  Fs2  v076
 BYTE   W12
 BYTE   N05  Fs2  v040
 BYTE   W06
 BYTE   Fs2  v036
 BYTE   W06
 BYTE   N08  Fs2  v040
 BYTE   W12
 BYTE   N11  Fs2  v076
 BYTE   W12
 BYTE   N05  Fs2  v044
 BYTE   W06
 BYTE   Fs2  v040
 BYTE   W06
 BYTE   N08
 BYTE   W12
 BYTE   N11  Fs2  v076
 BYTE   W12
 BYTE   N08  Fs2  v044
 BYTE   W12
 BYTE   PEND 
//  #07 //009   ----------------------------------------
 BYTE   PATT
  POIN2 Label_01025620
//  #07 //010   ----------------------------------------
 BYTE   PATT
  POIN2 Label_01025620
//  #07 //011   ----------------------------------------
 BYTE   PATT
  POIN2 Label_01025620
//  #07 //012   ----------------------------------------
 BYTE   PATT
  POIN2 Label_01025620
//  #07 //013   ----------------------------------------
 BYTE   PATT
  POIN2 Label_01025620
//  #07 //014   ----------------------------------------
Label_0102565E:
 BYTE   N11  Fs2  v076
 BYTE   W12
 BYTE   N05  En1  v100
 BYTE   W06
 BYTE   En1  v096
 BYTE   W06
 BYTE   N08  En1  v100
 BYTE   W12
 BYTE   N11  Fs2  v076
 BYTE   W12
 BYTE   N05  En1  v104
 BYTE   W06
 BYTE   En1  v100
 BYTE   W06
 BYTE   N08
 BYTE   W12
 BYTE   N11  Fs2  v076
 BYTE   W12
 BYTE   N08  En1  v104
 BYTE   W12
 BYTE   PEND 
//  #07 //015   ----------------------------------------
 BYTE   PATT
  POIN2 Label_0102565E
//  #07 //016   ----------------------------------------
 BYTE   PATT
  POIN2 Label_0102565E
//  #07 //017   ----------------------------------------
 BYTE   PATT
  POIN2 Label_0102565E
//  #07 //018   ----------------------------------------
 BYTE   PATT
  POIN2 Label_0102557B
//  #07 //019   ----------------------------------------
 BYTE   PATT
  POIN2 Label_0102557B
//  #07 //020   ----------------------------------------
 BYTE   PATT
  POIN2 Label_0102557B
//  #07 //021   ----------------------------------------
 BYTE   PATT
  POIN2 Label_0102557B
//  #07 //022   ----------------------------------------
 BYTE   PATT
  POIN2 Label_0102557B
//  #07 //023   ----------------------------------------
 BYTE   PATT
  POIN2 Label_0102557B
//  #07 //024   ----------------------------------------
 BYTE   PATT
  POIN2 Label_0102557B
//  #07 //025   ----------------------------------------
 BYTE   PATT
  POIN2 Label_0102557B
//  #07 //026   ----------------------------------------
 BYTE   PATT
  POIN2 Label_0102557B
//  #07 //027   ----------------------------------------
 BYTE   PATT
  POIN2 Label_0102557B
//  #07 //028   ----------------------------------------
 BYTE   PATT
  POIN2 Label_0102557B
//  #07 //029   ----------------------------------------
Label_010256C9:
 BYTE   N11  Dn1  v092
 BYTE   W12
 BYTE   N84  En2  v112
 BYTE   N05  Fs2  v040
 BYTE   W06
 BYTE   Fs2  v036
 BYTE   W06
 BYTE   N08  Fs2  v040
 BYTE   W12
 BYTE   N11  Dn1  v092
 BYTE   W12
 BYTE   N05  Fs2  v044
 BYTE   W06
 BYTE   Fs2  v040
 BYTE   W06
 BYTE   N08
 BYTE   W12
 BYTE   N11  Dn1  v092
 BYTE   W12
 BYTE   N08  Fs2  v044
 BYTE   W12
 BYTE   PEND 
//  #07 //030   ----------------------------------------
 BYTE   PATT
  POIN2 Label_0102554E
//  #07 //031   ----------------------------------------
 BYTE   PATT
  POIN2 Label_0102557B
//  #07 //032   ----------------------------------------
 BYTE   PATT
  POIN2 Label_0102557B
//  #07 //033   ----------------------------------------
 BYTE   PATT
  POIN2 Label_010255A5
//  #07 //034   ----------------------------------------
 BYTE   PATT
  POIN2 Label_010255CC
//  #07 //035   ----------------------------------------
 BYTE   PATT
  POIN2 Label_0102557B
//  #07 //036   ----------------------------------------
 BYTE   PATT
  POIN2 Label_0102557B
//  #07 //037   ----------------------------------------
 BYTE   PATT
  POIN2 Label_010255F8
//  #07 //038   ----------------------------------------
 BYTE   PATT
  POIN2 Label_01025620
//  #07 //039   ----------------------------------------
 BYTE   PATT
  POIN2 Label_01025620
//  #07 //040   ----------------------------------------
 BYTE   PATT
  POIN2 Label_01025620
//  #07 //041   ----------------------------------------
 BYTE   PATT
  POIN2 Label_01025620
//  #07 //042   ----------------------------------------
 BYTE   PATT
  POIN2 Label_01025620
//  #07 //043   ----------------------------------------
 BYTE   PATT
  POIN2 Label_01025620
//  #07 //044   ----------------------------------------
 BYTE   PATT
  POIN2 Label_0102565E
//  #07 //045   ----------------------------------------
 BYTE   PATT
  POIN2 Label_0102565E
//  #07 //046   ----------------------------------------
 BYTE   PATT
  POIN2 Label_0102565E
//  #07 //047   ----------------------------------------
 BYTE   PATT
  POIN2 Label_0102565E
//  #07 //048   ----------------------------------------
 BYTE   PATT
  POIN2 Label_0102557B
//  #07 //049   ----------------------------------------
 BYTE   PATT
  POIN2 Label_0102557B
//  #07 //050   ----------------------------------------
 BYTE   PATT
  POIN2 Label_0102557B
//  #07 //051   ----------------------------------------
 BYTE   PATT
  POIN2 Label_0102557B
//  #07 //052   ----------------------------------------
 BYTE   PATT
  POIN2 Label_0102557B
//  #07 //053   ----------------------------------------
 BYTE   PATT
  POIN2 Label_0102557B
//  #07 //054   ----------------------------------------
 BYTE   PATT
  POIN2 Label_0102557B
//  #07 //055   ----------------------------------------
 BYTE   PATT
  POIN2 Label_0102557B
//  #07 //056   ----------------------------------------
 BYTE   PATT
  POIN2 Label_0102557B
//  #07 //057   ----------------------------------------
 BYTE   PATT
  POIN2 Label_0102557B
//  #07 //058   ----------------------------------------
 BYTE   PATT
  POIN2 Label_0102557B
//  #07 //059   ----------------------------------------
 BYTE   PATT
  POIN2 Label_010256C9
//  #07 //060   ----------------------------------------
 BYTE   GoTo
  POIN2 Label_0102554E
 BYTE   FINE

//******************************************************//
	ALIGN 4

FE07AnUnexpectedCallerAlice:
	BYTE	7	// NumTrks
	BYTE	0	// NumBlks
	BYTE	FE07AnUnexpectedCallerAlice_pri	// Priority
	BYTE	FE07AnUnexpectedCallerAlice_rev	// Reverb.
    
	POIN2	FE07AnUnexpectedCallerAlice_grp
    
	POIN2	FE07AnUnexpectedCallerAlice_001
	POIN2	FE07AnUnexpectedCallerAlice_002
	POIN2	FE07AnUnexpectedCallerAlice_003
	POIN2	FE07AnUnexpectedCallerAlice_004
	POIN2	FE07AnUnexpectedCallerAlice_005
	POIN2	FE07AnUnexpectedCallerAlice_006
	POIN2	FE07AnUnexpectedCallerAlice_007

	
