//Event file generated from Sappy .s format.
	#include "MPlayDef.event"

	#define	FE07BindingTiesPrototypeMrGreen3339_grp  voicegroup000
	#define	FE07BindingTiesPrototypeMrGreen3339_pri  10
	#define	FE07BindingTiesPrototypeMrGreen3339_rev  128
	#define	FE07BindingTiesPrototypeMrGreen3339_mvl  127
	#define	FE07BindingTiesPrototypeMrGreen3339_key  0
	#define	FE07BindingTiesPrototypeMrGreen3339_tbs  1
	#define	FE07BindingTiesPrototypeMrGreen3339_exg  0
	#define	FE07BindingTiesPrototypeMrGreen3339_cmp  1

	// .rodata
	//	FE07BindingTiesPrototypeMrGreen3339
	ALIGN 4


//**************** Track 1 (Midi-Chn.0) ****************//

FE07BindingTiesPrototypeMrGreen3339_001:
// 000   ----------------------------------------
 BYTE   KEYSH   FE07BindingTiesPrototypeMrGreen3339_key+0
Label_0_0135B3D6:
 BYTE   TEMPO   126*FE07BindingTiesPrototypeMrGreen3339_tbs/2
 BYTE   VOICE   1
 BYTE   VOL   47*FE07BindingTiesPrototypeMrGreen3339_mvl/mxv
 BYTE   PAN   c_v-2
 BYTE   N23  An3  v112
 BYTE   W24
 BYTE   N05  An3  v028
 BYTE   W12
 BYTE   N11  Bn3  v112
 BYTE   W12
 BYTE   N32  Cs4  v104
 BYTE   W36
 BYTE   N05  Cs4  v028
 BYTE   W12
// 001   ----------------------------------------
 BYTE   Dn4  v116
 BYTE   W06
 BYTE   Dn4  v028
 BYTE   W06
 BYTE   Bn3  v112
 BYTE   W06
 BYTE   Dn4
 BYTE   W06
 BYTE   N44  Cs4  v116
 BYTE   W48
 BYTE   N05  Cs4  v028
 BYTE   W24
// 002   ----------------------------------------
 BYTE   N23  Dn4  v116
 BYTE   W24
 BYTE   N05  Dn4  v028
 BYTE   W12
 BYTE   N11  Cs4  v096
 BYTE   W12
 BYTE   N23  Bn3  v120
 BYTE   W24
 BYTE   N05  Bn3  v028
 BYTE   W12
 BYTE   N11  An3  v104
 BYTE   W12
// 003   ----------------------------------------
 BYTE   N68  Cs4  v116
 BYTE   W72
 BYTE   N05  Cs4  v028
 BYTE   W24
// 004   ----------------------------------------
 BYTE   N23  An3  v108
 BYTE   W24
 BYTE   N05  An3  v028
 BYTE   W12
 BYTE   N11  Bn3  v108
 BYTE   W12
 BYTE   N32  Cs4  v104
 BYTE   W36
 BYTE   N05  Cs4  v028
 BYTE   W12
// 005   ----------------------------------------
 BYTE   Dn4  v112
 BYTE   W06
 BYTE   Dn4  v028
 BYTE   W06
 BYTE   Bn3  v100
 BYTE   W06
 BYTE   Dn4  v108
 BYTE   W06
 BYTE   N32  Cs4  v112
 BYTE   W36
 BYTE   N05  Cs4  v028
 BYTE   W12
 BYTE   Cs4  v112
 BYTE   W08
 BYTE   Dn4  v116
 BYTE   W08
 BYTE   En4  v108
 BYTE   W08
// 006   ----------------------------------------
 BYTE   N23  An4  v112
 BYTE   W24
 BYTE   N05  An4  v028
 BYTE   W12
 BYTE   Gn4  v108
 BYTE   W06
 BYTE   Fn4  v112
 BYTE   W06
 BYTE   N11  En4
 BYTE   W12
 BYTE   N05  En4  v028
 BYTE   W12
 BYTE   N11  Dn4  v116
 BYTE   W12
 BYTE   N05  Dn4  v028
 BYTE   W12
// 007   ----------------------------------------
 BYTE   N68  Cs4  v127
 BYTE   W72
 BYTE   N05  Cs4  v028
 BYTE   W24
// 008   ----------------------------------------
 BYTE   N44  An2  v068
 BYTE   W48
 BYTE   Bn2  v072
 BYTE   W48
// 009   ----------------------------------------
 BYTE   Cn3  v068
 BYTE   W48
 BYTE   Bn2  v064
 BYTE   W48
// 010   ----------------------------------------
 BYTE   An2
 BYTE   W48
 BYTE   Bn2
 BYTE   W48
// 011   ----------------------------------------
 BYTE   Cn3  v080
 BYTE   W48
 BYTE   En3  v084
 BYTE   W48
// 012   ----------------------------------------
 BYTE   N13  An3  v076
 BYTE   W24
 BYTE   N07
 BYTE   W08
 BYTE   Bn3  v096
 BYTE   W08
 BYTE   Cn4
 BYTE   W08
 BYTE   N23  Bn3
 BYTE   W24
 BYTE   Gn3  v080
 BYTE   W24
// 013   ----------------------------------------
 BYTE   N10  An3  v092
 BYTE   W18
 BYTE   N04  An3  v084
 BYTE   W06
 BYTE   N07  An3  v080
 BYTE   W08
 BYTE   Bn3  v088
 BYTE   W08
 BYTE   Cn4
 BYTE   W08
 BYTE   N23  Bn3  v092
 BYTE   W24
 BYTE   N20  Dn4  v096
 BYTE   W24
// 014   ----------------------------------------
 BYTE   VOICE   2
 BYTE   VOL   48*FE07BindingTiesPrototypeMrGreen3339_mvl/mxv
 BYTE   PAN   c_v+0
 BYTE   N07  An3  v104
 BYTE   W08
 BYTE   Gn3  v100
 BYTE   W08
 BYTE   Fn3  v096
 BYTE   W08
 BYTE   N14  Gn3  v108
 BYTE   W24
 BYTE   N07  Gn3  v116
 BYTE   W08
 BYTE   Fn3  v100
 BYTE   W08
 BYTE   Ds3  v088
 BYTE   W08
 BYTE   N17  Fn3  v092
 BYTE   W24
// 015   ----------------------------------------
 BYTE   N07  Fn3  v104
 BYTE   W08
 BYTE   Ds3  v088
 BYTE   W08
 BYTE   Cs3
 BYTE   W08
 BYTE   N22  Ds3  v100
 BYTE   W96
// 016   ----------------------------------------
 BYTE   VOICE   3
 BYTE   N20  An2
 BYTE   W24
 BYTE   N19  An2  v104
 BYTE   W24
 BYTE   N19
 BYTE   W24
 BYTE   N13  An2  v108
 BYTE   W16
 BYTE   N03  An2  v100
 BYTE   W08
// 017   ----------------------------------------
 BYTE   N04  An2  v104
 BYTE   W08
 BYTE   An2  v096
 BYTE   W08
 BYTE   N04
 BYTE   W08
 BYTE   N11  An2  v112
 BYTE   W16
 BYTE   N03  An2  v100
 BYTE   W08
 BYTE   N05  An2  v104
 BYTE   W08
 BYTE   N04  An2  v096
 BYTE   W08
 BYTE   N03  An2  v100
 BYTE   W08
 BYTE   N11  An2  v108
 BYTE   W16
 BYTE   N03  An2  v096
 BYTE   W08
// 018   ----------------------------------------
 BYTE   N04  An2  v108
 BYTE   W08
 BYTE   An2  v104
 BYTE   W08
 BYTE   An2  v092
 BYTE   W08
 BYTE   N11  An2  v112
 BYTE   W16
 BYTE   N03  An2  v108
 BYTE   W08
 BYTE   An2  v092
 BYTE   W08
 BYTE   An2  v100
 BYTE   W08
 BYTE   N07  An2  v104
 BYTE   W08
 BYTE   N11  An2  v108
 BYTE   W16
 BYTE   N03  An2  v096
 BYTE   W08
// 019   ----------------------------------------
 BYTE   N04  An2  v108
 BYTE   W08
 BYTE   An2  v104
 BYTE   W08
 BYTE   An2  v092
 BYTE   W08
 BYTE   N11  An2  v112
 BYTE   W16
 BYTE   N03  An2  v108
 BYTE   W08
 BYTE   An2  v092
 BYTE   W08
 BYTE   An2  v100
 BYTE   W08
 BYTE   N07  An2  v104
 BYTE   W32
// 020   ----------------------------------------
 BYTE   GoTo
  POIN2 Label_0_0135B3D6
 BYTE   FINE

//**************** Track 2 (Midi-Chn.1) ****************//

FE07BindingTiesPrototypeMrGreen3339_002:
// 000   ----------------------------------------
 BYTE   KEYSH   FE07BindingTiesPrototypeMrGreen3339_key+0
Label_1_0135B56B:
 BYTE   VOICE   0
 BYTE   VOL   44*FE07BindingTiesPrototypeMrGreen3339_mvl/mxv
 BYTE   W72
 BYTE   N44  EnM2  v127
 BYTE   W24
// 001   ----------------------------------------
 BYTE   W96
// 002   ----------------------------------------
 BYTE   W96
// 003   ----------------------------------------
 BYTE   W96
// 004   ----------------------------------------
 BYTE   W72
 BYTE   N44
 BYTE   W24
// 005   ----------------------------------------
 BYTE   W96
// 006   ----------------------------------------
 BYTE   W96
// 007   ----------------------------------------
 BYTE   W72
 BYTE   N07  EnM2  v116
 BYTE   W08
 BYTE   EnM2  v104
 BYTE   W08
 BYTE   EnM2  v108
 BYTE   W08
// 008   ----------------------------------------
 BYTE   VOICE   5
 BYTE   VOL   47*FE07BindingTiesPrototypeMrGreen3339_mvl/mxv
 BYTE   PAN   c_v-2
 BYTE   N11  FsM2  v112
 BYTE   W12
 BYTE   N03  FsM2  v096
 BYTE   W12
 BYTE   N07  FsM2  v092
 BYTE   W08
 BYTE   GnM2
 BYTE   W08
 BYTE   GsM2  v100
 BYTE   W08
 BYTE   N23  GnM2
 BYTE   W24
 BYTE   AnM2
 BYTE   W24
// 009   ----------------------------------------
 BYTE   N13  FsM2  v104
 BYTE   W16
 BYTE   N04  FsM2  v096
 BYTE   W08
 BYTE   N07  FsM2  v100
 BYTE   W08
 BYTE   GnM2  v096
 BYTE   W08
 BYTE   GsM2  v104
 BYTE   W08
 BYTE   N23  GnM2  v100
 BYTE   W24
 BYTE   AsM2  v108
 BYTE   W24
// 010   ----------------------------------------
 BYTE   N12  FsM2  v112
 BYTE   W16
 BYTE   N03  FsM2  v104
 BYTE   W08
 BYTE   N05  FsM2  v096
 BYTE   W08
 BYTE   N07  GnM2  v092
 BYTE   W08
 BYTE   GsM2  v100
 BYTE   W08
 BYTE   N21  GnM2
 BYTE   W24
 BYTE   N23  AnM2
 BYTE   W24
// 011   ----------------------------------------
 BYTE   N12  FsM2
 BYTE   W16
 BYTE   N03  FsM2  v104
 BYTE   W08
 BYTE   N06  FsM2  v096
 BYTE   W08
 BYTE   N07  GnM2
 BYTE   W08
 BYTE   GsM2
 BYTE   W08
 BYTE   N23  GnM2  v104
 BYTE   W24
 BYTE   N20  AsM2
 BYTE   W24
// 012   ----------------------------------------
 BYTE   N12  GsM2  v100
 BYTE   W16
 BYTE   N03  GsM2  v108
 BYTE   W08
 BYTE   N07  GsM2  v096
 BYTE   W08
 BYTE   AsM2  v108
 BYTE   W08
 BYTE   BnM2  v096
 BYTE   W08
 BYTE   N22  AsM2  v116
 BYTE   W24
 BYTE   N23  GnM2  v100
 BYTE   W24
// 013   ----------------------------------------
 BYTE   N13  GsM2
 BYTE   W16
 BYTE   N03
 BYTE   W08
 BYTE   N07  GsM2  v092
 BYTE   W08
 BYTE   AsM2  v104
 BYTE   W08
 BYTE   BnM2  v100
 BYTE   W08
 BYTE   N23  AsM2  v116
 BYTE   W24
 BYTE   N11  CnM1  v104
 BYTE   W16
 BYTE   N07
 BYTE   W08
// 014   ----------------------------------------
 BYTE   CsM1
 BYTE   W08
 BYTE   CnM1  v100
 BYTE   W08
 BYTE   DnM1  v096
 BYTE   W08
 BYTE   N14  CnM1  v108
 BYTE   W24
 BYTE   N07  CnM1  v116
 BYTE   W08
 BYTE   DnM1  v100
 BYTE   W08
 BYTE   DsM1  v088
 BYTE   W08
 BYTE   N17  DnM1  v092
 BYTE   W24
// 015   ----------------------------------------
 BYTE   N07  DnM1  v104
 BYTE   W08
 BYTE   DsM1  v088
 BYTE   W08
 BYTE   EnM1
 BYTE   W08
 BYTE   N68  DsM1  v100
 BYTE   W96
// 016   ----------------------------------------
 BYTE   VOICE   17
 BYTE   TIE  FsM2  v092
 BYTE   W96
// 017   ----------------------------------------
 BYTE   W56
 BYTE   EOT
 BYTE   W16
 BYTE   N12
 BYTE   W24
// 018   ----------------------------------------
 BYTE   TIE  FsM1
 BYTE   W96
// 019   ----------------------------------------
 BYTE   W66
 BYTE   W01
 BYTE   EOT
 BYTE   W28
 BYTE   W01
// 020   ----------------------------------------
 BYTE   GoTo
  POIN2 Label_1_0135B56B
 BYTE   FINE

//**************** Track 3 (Midi-Chn.2) ****************//

FE07BindingTiesPrototypeMrGreen3339_003:
// 000   ----------------------------------------
 BYTE   KEYSH   FE07BindingTiesPrototypeMrGreen3339_key+0
Label_2_0135B661:
 BYTE   VOICE   19
 BYTE   VOL   49*FE07BindingTiesPrototypeMrGreen3339_mvl/mxv
 BYTE   PAN   c_v+0
 BYTE   N04  An2  v116
 BYTE   W12
 BYTE   N17  An2  v112
 BYTE   W24
 BYTE   An2  v104
 BYTE   W24
 BYTE   N18
 BYTE   W24
 BYTE   N17  An2  v100
 BYTE   W12
// 001   ----------------------------------------
 BYTE   W12
 BYTE   An2  v104
 BYTE   W24
 BYTE   An2  v100
 BYTE   W24
 BYTE   N16  An2  v104
 BYTE   W24
 BYTE   N16
 BYTE   W12
// 002   ----------------------------------------
 BYTE   W12
 BYTE   An2  v112
 BYTE   W24
 BYTE   N17  An2  v104
 BYTE   W24
 BYTE   N15  An2  v108
 BYTE   W24
 BYTE   N16  An2  v116
 BYTE   W12
// 003   ----------------------------------------
 BYTE   W12
 BYTE   N16
 BYTE   W24
 BYTE   An2  v112
 BYTE   W24
 BYTE   N19
 BYTE   W24
 BYTE   N12  Gn2
 BYTE   W12
// 004   ----------------------------------------
 BYTE   N05  An2  v127
 BYTE   W12
 BYTE   N14
 BYTE   W24
 BYTE   N16  An2  v116
 BYTE   W24
 BYTE   N16
 BYTE   W24
 BYTE   N14  An2  v108
 BYTE   W12
// 005   ----------------------------------------
 BYTE   W12
 BYTE   N15  An2  v116
 BYTE   W24
 BYTE   N16
 BYTE   W24
 BYTE   N17  An2  v112
 BYTE   W24
 BYTE   N15  An2  v092
 BYTE   W12
// 006   ----------------------------------------
 BYTE   W12
 BYTE   N17  An2  v116
 BYTE   W24
 BYTE   N16  An2  v112
 BYTE   W24
 BYTE   N17
 BYTE   W24
 BYTE   N16  An2  v100
 BYTE   W12
// 007   ----------------------------------------
 BYTE   W12
 BYTE   An2  v104
 BYTE   W24
 BYTE   N17
 BYTE   W24
 BYTE   N12
 BYTE   W12
 BYTE   N10  En2  v116
 BYTE   W12
 BYTE   N11  An1
 BYTE   W12
// 008   ----------------------------------------
 BYTE   W96
// 009   ----------------------------------------
 BYTE   W96
// 010   ----------------------------------------
 BYTE   W96
// 011   ----------------------------------------
 BYTE   W96
// 012   ----------------------------------------
 BYTE   W96
// 013   ----------------------------------------
 BYTE   W96
// 014   ----------------------------------------
 BYTE   VOICE   19
 BYTE   VOL   43*FE07BindingTiesPrototypeMrGreen3339_mvl/mxv
 BYTE   PAN   c_v+0
 BYTE   N44  Fn2  v120
 BYTE   W48
 BYTE   N42  En2  v112
 BYTE   W48
// 015   ----------------------------------------
 BYTE   TIE  Ds2  v108
 BYTE   W96
// 016   ----------------------------------------
 BYTE   W19
 BYTE   EOT
 BYTE   W05
 BYTE   W96
// 017   ----------------------------------------
 BYTE   W96
// 018   ----------------------------------------
 BYTE   W96
// 019   ----------------------------------------
 BYTE   W96
// 020   ----------------------------------------
 BYTE   GoTo
  POIN2 Label_2_0135B661
 BYTE   FINE

//**************** Track 4 (Midi-Chn.3) ****************//

FE07BindingTiesPrototypeMrGreen3339_004:
// 000   ----------------------------------------
 BYTE   KEYSH   FE07BindingTiesPrototypeMrGreen3339_key+0
Label_3_0135B704:
 BYTE   VOICE   20
 BYTE   VOL   47*FE07BindingTiesPrototypeMrGreen3339_mvl/mxv
 BYTE   PAN   c_v-2
 BYTE   W24
 BYTE   N11  An4  v088
 BYTE   W12
 BYTE   N05  An4  v032
 BYTE   W12
 BYTE   N23  En5  v088
 BYTE   W24
 BYTE   N05  En5  v032
 BYTE   W12
 BYTE   Ds5  v056
 BYTE   W06
 BYTE   En5  v080
 BYTE   W06
// 001   ----------------------------------------
 BYTE   Fs5  v076
 BYTE   W06
 BYTE   Fs5  v032
 BYTE   W06
 BYTE   En5  v088
 BYTE   W06
 BYTE   Ds5  v060
 BYTE   W06
 BYTE   N32  En5  v084
 BYTE   W36
 BYTE   N05  En5  v032
 BYTE   W12
 BYTE   An4  v080
 BYTE   W06
 BYTE   An4  v032
 BYTE   W06
 BYTE   N04  Bn4  v088
 BYTE   W06
 BYTE   N05  Bn4  v032
 BYTE   W06
// 002   ----------------------------------------
 BYTE   N32  Cs5  v088
 BYTE   W36
 BYTE   N05  Dn5
 BYTE   W06
 BYTE   Dn5  v032
 BYTE   W06
 BYTE   N28  En5  v088
 BYTE   W30
 BYTE   N05  En5  v032
 BYTE   W06
 BYTE   Bn4  v088
 BYTE   W06
 BYTE   Bn4  v032
 BYTE   W06
// 003   ----------------------------------------
 BYTE   N44  Cs5  v068
 BYTE   W48
 BYTE   N05  Cs5  v032
 BYTE   W48
// 004   ----------------------------------------
 BYTE   W24
 BYTE   N11  An4  v084
 BYTE   W12
 BYTE   N05  An4  v032
 BYTE   W12
 BYTE   N23  En5  v088
 BYTE   W24
 BYTE   N05  En5  v032
 BYTE   W12
 BYTE   Ds5  v048
 BYTE   W06
 BYTE   En5  v044
 BYTE   W06
// 005   ----------------------------------------
 BYTE   Fs5  v064
 BYTE   W06
 BYTE   Fs5  v032
 BYTE   W06
 BYTE   N04  En5  v080
 BYTE   W06
 BYTE   N05  Ds5  v060
 BYTE   W06
 BYTE   N32  En5  v076
 BYTE   W36
 BYTE   N05  En5  v032
 BYTE   W12
 BYTE   N03  Cs5  v080
 BYTE   W06
 BYTE   N05  Cs5  v032
 BYTE   W06
 BYTE   N04  Dn5  v088
 BYTE   W06
 BYTE   N05  Dn5  v032
 BYTE   W06
// 006   ----------------------------------------
 BYTE   N23  En5  v080
 BYTE   W24
 BYTE   N05  En5  v032
 BYTE   W06
 BYTE   An5  v076
 BYTE   W06
 BYTE   An5  v032
 BYTE   W12
 BYTE   N23  Gn5  v080
 BYTE   W24
 BYTE   N05  Gn5  v032
 BYTE   W12
 BYTE   Fn5  v076
 BYTE   W06
 BYTE   Fn5  v032
 BYTE   W06
// 007   ----------------------------------------
 BYTE   N64  En5  v080
 BYTE   W66
 BYTE   N05  En5  v032
 BYTE   W06
 BYTE   Cs5  v088
 BYTE   W06
 BYTE   An4
 BYTE   W06
 BYTE   En4
 BYTE   W06
 BYTE   N04  Cs4
 BYTE   W06
// 008   ----------------------------------------
 BYTE   VOICE   21
 BYTE   VOL   48*FE07BindingTiesPrototypeMrGreen3339_mvl/mxv
 BYTE   PAN   c_v+7
 BYTE   N80  Fn2
 BYTE   W96
// 009   ----------------------------------------
 BYTE   N92
 BYTE   W96
// 010   ----------------------------------------
 BYTE   W06
 BYTE   N66
 BYTE   W66
 BYTE   N09  En2
 BYTE   W24
// 011   ----------------------------------------
 BYTE   N68  Fn2
 BYTE   W72
 BYTE   N12  En2
 BYTE   W24
// 012   ----------------------------------------
 BYTE   N56  Fn2
 BYTE   W72
 BYTE   N10  Gn2
 BYTE   W24
// 013   ----------------------------------------
 BYTE   N60  Fn2
 BYTE   W72
 BYTE   N19  En2
 BYTE   W24
// 014   ----------------------------------------
 BYTE   N44  Fn2
 BYTE   W48
 BYTE   N42  En2
 BYTE   W48
// 015   ----------------------------------------
 BYTE   TIE  Ds2
 BYTE   W96
// 016   ----------------------------------------
 BYTE   W19
 BYTE   EOT
 BYTE   W05
 BYTE   W96
// 017   ----------------------------------------
 BYTE   W96
// 018   ----------------------------------------
 BYTE   W96
// 019   ----------------------------------------
 BYTE   VOICE   20
 BYTE   VOL   47*FE07BindingTiesPrototypeMrGreen3339_mvl/mxv
 BYTE   PAN   c_v-2
 BYTE   W84
 BYTE   N05  An4
 BYTE   W06
 BYTE   Bn4
 BYTE   W06
// 020   ----------------------------------------
 BYTE   GoTo
  POIN2 Label_3_0135B704
 BYTE   FINE

//**************** Track 5 (Midi-Chn.4) ****************//

FE07BindingTiesPrototypeMrGreen3339_005:
// 000   ----------------------------------------
 BYTE   KEYSH   FE07BindingTiesPrototypeMrGreen3339_key+0
Label_4_0135B814:
 BYTE   VOICE   22
 BYTE   VOL   44*FE07BindingTiesPrototypeMrGreen3339_mvl/mxv
 BYTE   PAN   c_v+0
 BYTE   N11  Gs2  v116
 BYTE   W12
 BYTE   N22  Ds2  v112
 BYTE   W24
 BYTE   Ds2  v108
 BYTE   W24
 BYTE   N22
 BYTE   W24
 BYTE   N11  Ds2  v116
 BYTE   W12
// 001   ----------------------------------------
 BYTE   Gs2  v124
 BYTE   W12
 BYTE   N21  Ds2  v108
 BYTE   W24
 BYTE   Ds2  v112
 BYTE   W24
 BYTE   N11  Ds2  v108
 BYTE   W12
 BYTE   Gs2  v127
 BYTE   W12
 BYTE   Ds2  v108
 BYTE   W12
// 002   ----------------------------------------
 BYTE   Gs2  v127
 BYTE   W12
 BYTE   N20  Ds2  v100
 BYTE   W24
 BYTE   N22  Ds2  v120
 BYTE   W24
 BYTE   Ds2  v127
 BYTE   W24
 BYTE   N11  Ds2  v116
 BYTE   W12
// 003   ----------------------------------------
 BYTE   Gs2  v127
 BYTE   W12
 BYTE   N21  Ds2  v108
 BYTE   W24
 BYTE   Ds2  v124
 BYTE   W24
 BYTE   N11  Ds2  v112
 BYTE   W12
 BYTE   Gs2  v120
 BYTE   W12
 BYTE   Ds2  v108
 BYTE   W12
// 004   ----------------------------------------
 BYTE   Gs2  v127
 BYTE   W12
 BYTE   N21  Ds2  v092
 BYTE   W24
 BYTE   N22  Ds2  v112
 BYTE   W24
 BYTE   Ds2  v120
 BYTE   W24
 BYTE   N11  Ds2  v116
 BYTE   W12
// 005   ----------------------------------------
 BYTE   Gs2  v127
 BYTE   W12
 BYTE   N21  Ds2  v104
 BYTE   W24
 BYTE   Ds2  v116
 BYTE   W24
 BYTE   N22  Ds2  v112
 BYTE   W24
 BYTE   N11  Ds2  v116
 BYTE   W12
// 006   ----------------------------------------
 BYTE   Gs2  v127
 BYTE   W12
 BYTE   N20  Ds2  v104
 BYTE   W24
 BYTE   N22  Ds2  v116
 BYTE   W24
 BYTE   Ds2  v124
 BYTE   W24
 BYTE   N11  Ds2  v116
 BYTE   W12
// 007   ----------------------------------------
 BYTE   Gs2  v127
 BYTE   W12
 BYTE   N21  Ds2  v104
 BYTE   W24
 BYTE   N22  Ds2  v116
 BYTE   W24
 BYTE   N11
 BYTE   W12
 BYTE   N05  Gs2  v120
 BYTE   W06
 BYTE   Ds2  v104
 BYTE   W06
 BYTE   Gs2  v092
 BYTE   W06
 BYTE   Ds2  v096
 BYTE   W06
// 008   ----------------------------------------
 BYTE   N21  Gs2  v127
 BYTE   W72
 BYTE   N22  Ds2  v120
 BYTE   W24
// 009   ----------------------------------------
 BYTE   N23  Gs2  v127
 BYTE   W72
 BYTE   N22  Ds2  v124
 BYTE   W24
// 010   ----------------------------------------
 BYTE   Gs2  v127
 BYTE   W72
 BYTE   Ds2  v124
 BYTE   W24
// 011   ----------------------------------------
 BYTE   Gs2  v127
 BYTE   W72
 BYTE   N21  Ds2  v108
 BYTE   W24
// 012   ----------------------------------------
 BYTE   N22  Gs2  v127
 BYTE   W72
 BYTE   Ds2
 BYTE   W24
// 013   ----------------------------------------
 BYTE   N23  Gs2  v124
 BYTE   W72
 BYTE   N22  Ds2  v127
 BYTE   W24
// 014   ----------------------------------------
 BYTE   Gs2
 BYTE   W96
// 015   ----------------------------------------
 BYTE   W96
// 016   ----------------------------------------
 BYTE   W24
 BYTE   Ds2  v120
 BYTE   W24
 BYTE   N22
 BYTE   W24
 BYTE   Ds2  v108
 BYTE   W24
// 017   ----------------------------------------
 BYTE   N05  Ds2  v068
 BYTE   W08
 BYTE   Ds2  v088
 BYTE   W08
 BYTE   N07  Ds2  v100
 BYTE   W08
 BYTE   N21  Ds2  v112
 BYTE   W24
 BYTE   N22  Ds2  v127
 BYTE   W24
 BYTE   N05  Ds2  v108
 BYTE   W08
 BYTE   N07  Ds2  v096
 BYTE   W08
 BYTE   N05  Ds2  v108
 BYTE   W08
// 018   ----------------------------------------
 BYTE   N21  Ds2  v120
 BYTE   W24
 BYTE   Ds2  v124
 BYTE   W24
 BYTE   N22  Ds2  v127
 BYTE   W24
 BYTE   N21
 BYTE   W36
// 019   ----------------------------------------
 BYTE   N05  Gs2  v116
 BYTE   W06
 BYTE   Ds2  v100
 BYTE   W06
 BYTE   N11  Gs2  v116
 BYTE   W12
 BYTE   N22  Ds2  v112
 BYTE   W24
 BYTE   Ds2  v108
 BYTE   W24
 BYTE   N22
 BYTE   W24
// 020   ----------------------------------------
 BYTE   N11  Ds2  v116
 BYTE   W12
 BYTE   GoTo
  POIN2 Label_4_0135B814
 BYTE   FINE

//**************** Track 6 (Midi-Chn.5) ****************//

FE07BindingTiesPrototypeMrGreen3339_006:
// 000   ----------------------------------------
 BYTE   KEYSH   FE07BindingTiesPrototypeMrGreen3339_key+0
Label_5_0135B938:
 BYTE   VOICE   3
 BYTE   VOL   47*FE07BindingTiesPrototypeMrGreen3339_mvl/mxv
 BYTE   PAN   c_v-2
 BYTE   N92  En2  v096
 BYTE   W96
// 001   ----------------------------------------
 BYTE   N23  Fn2
 BYTE   W24
 BYTE   N68  En2
 BYTE   W72
// 002   ----------------------------------------
 BYTE   N32  Fn2  v100
 BYTE   W36
 BYTE   N11  En2  v096
 BYTE   W12
 BYTE   N44  Dn2
 BYTE   W48
// 003   ----------------------------------------
 BYTE   N84  En2  v104
 BYTE   W96
// 004   ----------------------------------------
 BYTE   N92  En2  v088
 BYTE   W96
// 005   ----------------------------------------
 BYTE   N23  Fn2  v100
 BYTE   W24
 BYTE   N68  En2  v092
 BYTE   W72
// 006   ----------------------------------------
 BYTE   N44  Fn2  v100
 BYTE   W48
 BYTE   Gn2
 BYTE   W48
// 007   ----------------------------------------
 BYTE   N80  An2  v096
 BYTE   W96
// 008   ----------------------------------------
 BYTE   VOICE   0
 BYTE   VOL   47*FE07BindingTiesPrototypeMrGreen3339_mvl/mxv
 BYTE   N23  EnM2  v127
 BYTE   W24
 BYTE   VOICE   23
 BYTE   PAN   c_v-2
 BYTE   VOL   44*FE07BindingTiesPrototypeMrGreen3339_mvl/mxv
 BYTE   N04  Cn0  v116
 BYTE   N06  EnM2  v112
 BYTE   W24
 BYTE   N23  Cs0  v116
 BYTE   N22  Dn0  v108
 BYTE   W24
 BYTE   N06  Ds0  v104
 BYTE   W24
// 009   ----------------------------------------
 BYTE   W24
 BYTE   N04  Cn0  v124
 BYTE   N05  EnM2  v116
 BYTE   W24
 BYTE   N44  Cs0  v120
 BYTE   N40  Dn0  v112
 BYTE   W48
// 010   ----------------------------------------
 BYTE   W24
 BYTE   N05  Cn0
 BYTE   N06  EnM2  v108
 BYTE   W24
 BYTE   N19  Cs0  v116
 BYTE   N16  Dn0
 BYTE   W24
 BYTE   N06  Ds0  v124
 BYTE   N07  Cs0  v116
 BYTE   W24
// 011   ----------------------------------------
 BYTE   W24
 BYTE   N06  Cn0  v120
 BYTE   N07  EnM2  v108
 BYTE   W24
 BYTE   N11  Cs0  v116
 BYTE   N12  Dn0  v108
 BYTE   W24
 BYTE   N07  Dn0  v120
 BYTE   N08  En0  v127
 BYTE   W24
// 012   ----------------------------------------
 BYTE   W24
 BYTE   N07  Cn0  v124
 BYTE   N08  EnM2  v120
 BYTE   W24
 BYTE   N44  Cs0
 BYTE   N44  Dn0  v108
 BYTE   W48
// 013   ----------------------------------------
 BYTE   W24
 BYTE   N06  Cn0  v120
 BYTE   N07  EnM2  v116
 BYTE   W24
 BYTE   N24  Cs0  v120
 BYTE   N24  Dn0  v108
 BYTE   W48
// 014   ----------------------------------------
 BYTE   W96
// 015   ----------------------------------------
 BYTE   W96
// 016   ----------------------------------------
 BYTE   W24
 BYTE   TIE  Fn0  v080
 BYTE   W96
// 017   ----------------------------------------
 BYTE   W72
 BYTE   W03
 BYTE   EOT
 BYTE   W21
// 018   ----------------------------------------
 BYTE   W96
// 019   ----------------------------------------
 BYTE   W96
// 020   ----------------------------------------
 BYTE   GoTo
  POIN2 Label_5_0135B938
 BYTE   FINE

//**************** Track 7 (Midi-Chn.6) ****************//

FE07BindingTiesPrototypeMrGreen3339_007:
// 000   ----------------------------------------
 BYTE   KEYSH   FE07BindingTiesPrototypeMrGreen3339_key+0
Label_6_0135B9F8:
 BYTE   VOICE   21
 BYTE   VOL   45*FE07BindingTiesPrototypeMrGreen3339_mvl/mxv
 BYTE   PAN   c_v+7
 BYTE   TIE  En2  v096
 BYTE   W96
// 001   ----------------------------------------
 BYTE   W92
 BYTE   W03
 BYTE   EOT
 BYTE   W01
// 002   ----------------------------------------
 BYTE   N44  Fn2  v080
 BYTE   W48
 BYTE   Gn2  v092
 BYTE   W48
// 003   ----------------------------------------
 BYTE   N90  En2  v088
 BYTE   W96
// 004   ----------------------------------------
 BYTE   TIE  En2  v100
 BYTE   W96
// 005   ----------------------------------------
 BYTE   W92
 BYTE   W03
 BYTE   EOT
 BYTE   W01
// 006   ----------------------------------------
 BYTE   N36  Fn2  v080
 BYTE   W48
 BYTE   N44  Gn2  v100
 BYTE   W48
// 007   ----------------------------------------
 BYTE   N90  En2
 BYTE   W96
// 008   ----------------------------------------
 BYTE   N11  An2  v112
 BYTE   W12
 BYTE   N03  An2  v096
 BYTE   W12
 BYTE   N07  An2  v092
 BYTE   W08
 BYTE   Bn2
 BYTE   W08
 BYTE   Cn3  v100
 BYTE   W08
 BYTE   N23  Bn2
 BYTE   W24
 BYTE   Gn2
 BYTE   W24
// 009   ----------------------------------------
 BYTE   N13  An2  v104
 BYTE   W16
 BYTE   N04  An2  v096
 BYTE   W08
 BYTE   N07  An2  v100
 BYTE   W08
 BYTE   Bn2  v096
 BYTE   W08
 BYTE   Cn3  v104
 BYTE   W08
 BYTE   N23  Bn2  v100
 BYTE   W24
 BYTE   Dn3  v108
 BYTE   W24
// 010   ----------------------------------------
 BYTE   N12  An2  v112
 BYTE   W16
 BYTE   N03  An2  v104
 BYTE   W08
 BYTE   N05  An2  v096
 BYTE   W08
 BYTE   N07  Bn2  v092
 BYTE   W08
 BYTE   Cn3  v100
 BYTE   W08
 BYTE   N21  Bn2
 BYTE   W24
 BYTE   N23  Gn2
 BYTE   W24
// 011   ----------------------------------------
 BYTE   N12  An2
 BYTE   W16
 BYTE   N03  An2  v104
 BYTE   W08
 BYTE   N06  An2  v096
 BYTE   W08
 BYTE   N07  Bn2
 BYTE   W08
 BYTE   Cn3
 BYTE   W08
 BYTE   N23  Bn2  v104
 BYTE   W24
 BYTE   N20  Dn3
 BYTE   W24
// 012   ----------------------------------------
 BYTE   N12  Cn3  v100
 BYTE   W16
 BYTE   N03  Cn3  v108
 BYTE   W08
 BYTE   N07  Cn3  v096
 BYTE   W08
 BYTE   Dn3  v108
 BYTE   W08
 BYTE   En3  v096
 BYTE   W08
 BYTE   N22  Dn3  v116
 BYTE   W24
 BYTE   N23  Bn2  v100
 BYTE   W24
// 013   ----------------------------------------
 BYTE   N13  Cn3
 BYTE   W16
 BYTE   N03
 BYTE   W08
 BYTE   N07  Cn3  v092
 BYTE   W08
 BYTE   Dn3  v104
 BYTE   W08
 BYTE   En3  v100
 BYTE   W08
 BYTE   N23  Dn3  v116
 BYTE   W24
 BYTE   N11  Gn3  v104
 BYTE   W16
 BYTE   N07
 BYTE   W08
// 014   ----------------------------------------
 BYTE   An3
 BYTE   W08
 BYTE   Gn3  v100
 BYTE   W08
 BYTE   Fn3  v096
 BYTE   W08
 BYTE   N14  Gn3  v108
 BYTE   W24
 BYTE   N07  Gn3  v116
 BYTE   W08
 BYTE   Fn3  v100
 BYTE   W08
 BYTE   Ds3  v088
 BYTE   W08
 BYTE   N17  Fn3  v092
 BYTE   W24
// 015   ----------------------------------------
 BYTE   N07  Fn3  v104
 BYTE   W08
 BYTE   Ds3  v088
 BYTE   W08
 BYTE   Cs3
 BYTE   W08
 BYTE   N68  Ds3  v100
 BYTE   W96
// 016   ----------------------------------------
 BYTE   TIE  En2  v092
 BYTE   TIE  An2  v080
 BYTE   W96
// 017   ----------------------------------------
 BYTE   W96
// 018   ----------------------------------------
 BYTE   W96
// 019   ----------------------------------------
 BYTE   W72
 BYTE   EOT
 BYTE   En2  v057
 BYTE   W24
// 020   ----------------------------------------
 BYTE   GoTo
  POIN2 Label_6_0135B9F8
 BYTE   FINE

//******************************************************//
	ALIGN 4

FE07BindingTiesPrototypeMrGreen3339:
	BYTE	7	// NumTrks
	BYTE	0	// NumBlks
	BYTE	FE07BindingTiesPrototypeMrGreen3339_pri	// Priority
	BYTE	FE07BindingTiesPrototypeMrGreen3339_rev	// Reverb.
    
	POIN2	FE07BindingTiesPrototypeMrGreen3339_grp
    
	POIN2	FE07BindingTiesPrototypeMrGreen3339_001
	POIN2	FE07BindingTiesPrototypeMrGreen3339_002
	POIN2	FE07BindingTiesPrototypeMrGreen3339_003
	POIN2	FE07BindingTiesPrototypeMrGreen3339_004
	POIN2	FE07BindingTiesPrototypeMrGreen3339_005
	POIN2	FE07BindingTiesPrototypeMrGreen3339_006
	POIN2	FE07BindingTiesPrototypeMrGreen3339_007

	
