//Event file generated from Sappy .s format.
	#include "MPlayDef.event"

	#define	FE07IntheShadowofTriumphAlice_grp  voicegroup000
	#define	FE07IntheShadowofTriumphAlice_pri  10
	#define	FE07IntheShadowofTriumphAlice_rev  128
	#define	FE07IntheShadowofTriumphAlice_mvl  127
	#define	FE07IntheShadowofTriumphAlice_key  0
	#define	FE07IntheShadowofTriumphAlice_tbs  1
	#define	FE07IntheShadowofTriumphAlice_exg  0
	#define	FE07IntheShadowofTriumphAlice_cmp  1

	// .rodata
	//	FE07IntheShadowofTriumphAlice
	ALIGN 4


//**************** Track 1 (Midi-Chn.0) ****************//

FE07IntheShadowofTriumphAlice_001:
//  #01 //000   ----------------------------------------
 BYTE   KEYSH   FE07IntheShadowofTriumphAlice_key+0
Label_0102254A:
 BYTE   TEMPO   126*FE07IntheShadowofTriumphAlice_tbs/2
 BYTE   VOICE   68
 BYTE   W06
 BYTE   VOL   56*FE07IntheShadowofTriumphAlice_mvl/mxv
 BYTE   W06
 BYTE   PAN   c_v+10
 BYTE   W84
//  #01 //001   ----------------------------------------
 BYTE   W96
//  #01 //002   ----------------------------------------
 BYTE   W96
//  #01 //003   ----------------------------------------
 BYTE   W96
//  #01 //004   ----------------------------------------
 BYTE   W96
//  #01 //005   ----------------------------------------
 BYTE   W96
//  #01 //006   ----------------------------------------
 BYTE   W96
//  #01 //007   ----------------------------------------
 BYTE   W92
 BYTE   W03
 BYTE   VOL   56*FE07IntheShadowofTriumphAlice_mvl/mxv
 BYTE   W01
//  #01 //008   ----------------------------------------
 BYTE   VOICE   46
 BYTE   VOL   52*FE07IntheShadowofTriumphAlice_mvl/mxv
 BYTE   PAN   c_v+27
 BYTE   N09  Gs2  v096
 BYTE   W12
 BYTE   Cn3
 BYTE   W12
 BYTE   Ds3
 BYTE   W12
 BYTE   Gn3
 BYTE   W12
 BYTE   Gs3
 BYTE   W12
 BYTE   Gn3
 BYTE   W12
 BYTE   Fn3
 BYTE   W12
 BYTE   Ds3
 BYTE   W12
//  #01 //009   ----------------------------------------
 BYTE   As2
 BYTE   W12
 BYTE   Cs3
 BYTE   W12
 BYTE   Gn3
 BYTE   W12
 BYTE   As3
 BYTE   W12
 BYTE   Cs4
 BYTE   W12
 BYTE   As3
 BYTE   W12
 BYTE   Gn3
 BYTE   W12
 BYTE   Cs3
 BYTE   W12
//  #01 //010   ----------------------------------------
 BYTE   Cn3
 BYTE   W12
 BYTE   En3
 BYTE   W12
 BYTE   Gn3
 BYTE   W12
 BYTE   As3
 BYTE   W12
 BYTE   Cn4
 BYTE   W12
 BYTE   Gn3  v092
 BYTE   W12
 BYTE   En3
 BYTE   W12
 BYTE   Cn3
 BYTE   W12
//  #01 //011   ----------------------------------------
 BYTE   Fn2
 BYTE   W12
 BYTE   Gs2
 BYTE   W12
 BYTE   Cn3
 BYTE   W12
 BYTE   Fn3
 BYTE   W12
 BYTE   Gs3
 BYTE   W12
 BYTE   Fn3
 BYTE   W12
 BYTE   Cn3
 BYTE   W12
 BYTE   Gs2
 BYTE   W12
//  #01 //012   ----------------------------------------
 BYTE   Dn3
 BYTE   W12
 BYTE   Fn3
 BYTE   W12
 BYTE   Gs3
 BYTE   W12
 BYTE   Dn4
 BYTE   W12
 BYTE   Fn4
 BYTE   W12
 BYTE   Dn4
 BYTE   W12
 BYTE   Gs3
 BYTE   W12
 BYTE   Dn3
 BYTE   W12
//  #01 //013   ----------------------------------------
 BYTE   Fn3
 BYTE   W12
 BYTE   Gs3
 BYTE   W12
 BYTE   Dn4
 BYTE   W12
 BYTE   Fn4
 BYTE   W12
 BYTE   Gs4
 BYTE   W12
 BYTE   Fn4
 BYTE   W12
 BYTE   Dn4
 BYTE   W12
 BYTE   Gs3
 BYTE   W12
//  #01 //014   ----------------------------------------
 BYTE   En3
 BYTE   W12
 BYTE   Gn3
 BYTE   W12
 BYTE   As3
 BYTE   W12
 BYTE   Cs4
 BYTE   W12
 BYTE   En4
 BYTE   W12
 BYTE   Cs4
 BYTE   W12
 BYTE   As3
 BYTE   W12
 BYTE   Gn3
 BYTE   W12
//  #01 //015   ----------------------------------------
 BYTE   Cn3
 BYTE   W12
 BYTE   En3
 BYTE   W12
 BYTE   Gn3
 BYTE   W12
 BYTE   As3
 BYTE   W12
 BYTE   N24  Cn4
 BYTE   W48
//  #01 //016   ----------------------------------------
 BYTE   W96
//  #01 //017   ----------------------------------------
 BYTE   W48
 BYTE   N06  Ds3  v084
 BYTE   W06
 BYTE   Gn3
 BYTE   W06
 BYTE   As3
 BYTE   W06
 BYTE   Ds4
 BYTE   W06
 BYTE   Gn4
 BYTE   W06
 BYTE   Ds4
 BYTE   W06
 BYTE   As3
 BYTE   W06
 BYTE   N03  Gn3
 BYTE   W06
//  #01 //018   ----------------------------------------
 BYTE   W20
 BYTE   VOL   52*FE07IntheShadowofTriumphAlice_mvl/mxv
 BYTE   W28
 BYTE   N06  Cn3  v096
 BYTE   W06
 BYTE   VOL   52*FE07IntheShadowofTriumphAlice_mvl/mxv
 BYTE   N06  En3
 BYTE   W06
 BYTE   Gn3
 BYTE   W06
 BYTE   As3
 BYTE   W05
 BYTE   VOL   53*FE07IntheShadowofTriumphAlice_mvl/mxv
 BYTE   W01
 BYTE   N06  Cn4
 BYTE   W06
 BYTE   As3
 BYTE   W06
 BYTE   Gn3
 BYTE   W04
 BYTE   VOL   53*FE07IntheShadowofTriumphAlice_mvl/mxv
 BYTE   W02
 BYTE   N06  En3
 BYTE   W06
//  #01 //019   ----------------------------------------
 BYTE   Fn3  v104
 BYTE   W06
 BYTE   An3
 BYTE   W04
 BYTE   VOL   54*FE07IntheShadowofTriumphAlice_mvl/mxv
 BYTE   W02
 BYTE   N06  Cn4
 BYTE   W06
 BYTE   Ds4
 BYTE   W06
 BYTE   Fn4
 BYTE   W03
 BYTE   VOL   54*FE07IntheShadowofTriumphAlice_mvl/mxv
 BYTE   W03
 BYTE   N06  Ds4
 BYTE   W06
 BYTE   Cn4
 BYTE   W06
 BYTE   An3
 BYTE   W02
 BYTE   VOL   55*FE07IntheShadowofTriumphAlice_mvl/mxv
 BYTE   W04
 BYTE   N06  Cn4  v112
 BYTE   W06
 BYTE   Ds4
 BYTE   W06
 BYTE   Fn4
 BYTE   W01
 BYTE   VOL   55*FE07IntheShadowofTriumphAlice_mvl/mxv
 BYTE   W05
 BYTE   N06  An4
 BYTE   W06
 BYTE   Cn5
 BYTE   W06
 BYTE   VOL   56*FE07IntheShadowofTriumphAlice_mvl/mxv
 BYTE   N06  An4
 BYTE   W06
 BYTE   Fn4
 BYTE   W06
 BYTE   Ds4
 BYTE   W05
 BYTE   VOL   56*FE07IntheShadowofTriumphAlice_mvl/mxv
 BYTE   W01
//  #01 //020   ----------------------------------------
 BYTE   VOICE   68
 BYTE   VOL   56*FE07IntheShadowofTriumphAlice_mvl/mxv
 BYTE   PAN   c_v+15
 BYTE   N68  Cs4  v080
 BYTE   W72
 BYTE   N18  Cn4  v088
 BYTE   W24
//  #01 //021   ----------------------------------------
 BYTE   N44  As3  v080
 BYTE   W48
 BYTE   N21  As3  v076
 BYTE   W24
 BYTE   Gs3  v080
 BYTE   W24
//  #01 //022   ----------------------------------------
 BYTE   N48  Gn3
 BYTE   W60
 BYTE   N12  Gn3  v088
 BYTE   W12
 BYTE   As3
 BYTE   W12
 BYTE   Dn4  v092
 BYTE   W12
//  #01 //023   ----------------------------------------
 BYTE   N92  Fn4  v080
 BYTE   W96
//  #01 //024   ----------------------------------------
 BYTE   N68  En4  v084
 BYTE   W48
 BYTE   W03
 BYTE   VOL   56*FE07IntheShadowofTriumphAlice_mvl/mxv
 BYTE   W01
 BYTE   VOL   55*FE07IntheShadowofTriumphAlice_mvl/mxv
 BYTE   W01
 BYTE   VOL   52*FE07IntheShadowofTriumphAlice_mvl/mxv
 BYTE   W01
 BYTE   VOL   50*FE07IntheShadowofTriumphAlice_mvl/mxv
 BYTE   W01
 BYTE   VOL   48*FE07IntheShadowofTriumphAlice_mvl/mxv
 BYTE   W01
 BYTE   VOL   46*FE07IntheShadowofTriumphAlice_mvl/mxv
 BYTE   W01
 BYTE   VOL   44*FE07IntheShadowofTriumphAlice_mvl/mxv
 BYTE   W01
 BYTE   VOL   42*FE07IntheShadowofTriumphAlice_mvl/mxv
 BYTE   W01
 BYTE   VOL   39*FE07IntheShadowofTriumphAlice_mvl/mxv
 BYTE   W01
 BYTE   VOL   38*FE07IntheShadowofTriumphAlice_mvl/mxv
 BYTE   W01
 BYTE   VOL   36*FE07IntheShadowofTriumphAlice_mvl/mxv
 BYTE   W01
 BYTE   VOL   33*FE07IntheShadowofTriumphAlice_mvl/mxv
 BYTE   W01
 BYTE   VOL   31*FE07IntheShadowofTriumphAlice_mvl/mxv
 BYTE   W01
 BYTE   VOL   30*FE07IntheShadowofTriumphAlice_mvl/mxv
 BYTE   W01
 BYTE   VOL   27*FE07IntheShadowofTriumphAlice_mvl/mxv
 BYTE   W01
 BYTE   VOL   25*FE07IntheShadowofTriumphAlice_mvl/mxv
 BYTE   W01
 BYTE   VOL   23*FE07IntheShadowofTriumphAlice_mvl/mxv
 BYTE   W01
 BYTE   VOL   21*FE07IntheShadowofTriumphAlice_mvl/mxv
 BYTE   W01
 BYTE   VOL   19*FE07IntheShadowofTriumphAlice_mvl/mxv
 BYTE   W01
 BYTE   VOL   17*FE07IntheShadowofTriumphAlice_mvl/mxv
 BYTE   W01
 BYTE   VOL   15*FE07IntheShadowofTriumphAlice_mvl/mxv
 BYTE   W01
 BYTE   VOL   15*FE07IntheShadowofTriumphAlice_mvl/mxv
 BYTE   W01
 BYTE   VOL   15*FE07IntheShadowofTriumphAlice_mvl/mxv
 BYTE   W01
 BYTE   VOL   15*FE07IntheShadowofTriumphAlice_mvl/mxv
 BYTE   W01
 BYTE   VOL   15*FE07IntheShadowofTriumphAlice_mvl/mxv
 BYTE   W01
 BYTE   VOL   15*FE07IntheShadowofTriumphAlice_mvl/mxv
 BYTE   W20
//  #01 //025   ----------------------------------------
 BYTE   VOICE   49
 BYTE   VOL   61*FE07IntheShadowofTriumphAlice_mvl/mxv
 BYTE   PAN   c_v+0
 BYTE   N66  Fn3  v120
 BYTE   W72
 BYTE   N18  Gn3
 BYTE   W24
//  #01 //026   ----------------------------------------
 BYTE   N44  Gs3  v116
 BYTE   W48
 BYTE   Cn4
 BYTE   W48
//  #01 //027   ----------------------------------------
 BYTE   N68  Cs4  v112
 BYTE   W72
 BYTE   N21  Cn4  v116
 BYTE   W24
//  #01 //028   ----------------------------------------
 BYTE   N68  As3
 BYTE   W96
//  #01 //029   ----------------------------------------
 BYTE   Ds4  v120
 BYTE   W72
 BYTE   N21  Cs4  v116
 BYTE   W24
//  #01 //030   ----------------------------------------
 BYTE   Cn4  v120
 BYTE   W24
 BYTE   As3  v112
 BYTE   W24
 BYTE   Gs3  v116
 BYTE   W24
 BYTE   Cn4  v120
 BYTE   W24
//  #01 //031   ----------------------------------------
 BYTE   N92  As3  v116
 BYTE   W96
//  #01 //032   ----------------------------------------
 BYTE   N68  Gn3
 BYTE   W68
 BYTE   W01
 BYTE   N12  Gn3  v040
 BYTE   W24
 BYTE   W03
//  #01 //033   ----------------------------------------
 BYTE   GoTo
  POIN2 Label_0102254A
 BYTE   FINE

//**************** Track 2 (Midi-Chn.1) ****************//

FE07IntheShadowofTriumphAlice_002:
//  #02 //000   ----------------------------------------
 BYTE   KEYSH   FE07IntheShadowofTriumphAlice_key+0
Label_01022716:
 BYTE   VOICE   40
 BYTE   W06
 BYTE   VOL   56*FE07IntheShadowofTriumphAlice_mvl/mxv
 BYTE   W06
 BYTE   PAN   c_v+13
 BYTE   W12
 BYTE   N24  Cn3  v120
 BYTE   W24
 BYTE   Fn3  v108
 BYTE   W24
 BYTE   As3  v112
 BYTE   W24
//  #02 //001   ----------------------------------------
 BYTE   N06  Gs3  v108
 BYTE   W06
 BYTE   Gs3  v028
 BYTE   W06
 BYTE   Fn3  v120
 BYTE   W06
 BYTE   Fn3  v028
 BYTE   W06
 BYTE   N42  Cn3  v116
 BYTE   W42
 BYTE   N06  Cn3  v028
 BYTE   W06
 BYTE   N12  Cn3  v116
 BYTE   W12
 BYTE   Cs3  v108
 BYTE   W12
//  #02 //002   ----------------------------------------
 BYTE   N56  Ds3
 BYTE   W60
 BYTE   N12  Ds3  v124
 BYTE   W12
 BYTE   Cs3  v108
 BYTE   W12
 BYTE   As2  v124
 BYTE   W12
//  #02 //003   ----------------------------------------
 BYTE   N84  Cn3  v116
 BYTE   W84
 BYTE   N06  Cn3  v028
 BYTE   W12
//  #02 //004   ----------------------------------------
 BYTE   W24
 BYTE   N24  Cn3  v120
 BYTE   W24
 BYTE   Fn3  v124
 BYTE   W24
 BYTE   As3  v120
 BYTE   W24
//  #02 //005   ----------------------------------------
 BYTE   N06  Gs3  v116
 BYTE   W06
 BYTE   Gs3  v028
 BYTE   W06
 BYTE   As3  v120
 BYTE   W06
 BYTE   As3  v028
 BYTE   W06
 BYTE   N44  Cn4  v116
 BYTE   W48
 BYTE   N12  As3  v108
 BYTE   W12
 BYTE   Cn4
 BYTE   W12
//  #02 //006   ----------------------------------------
 BYTE   N56  Cs4  v124
 BYTE   W60
 BYTE   N12  Ds4
 BYTE   W12
 BYTE   Cs4  v108
 BYTE   W12
 BYTE   As3  v112
 BYTE   W12
//  #02 //007   ----------------------------------------
 BYTE   N72  Cn4  v120
 BYTE   W72
 BYTE   N06  Cn4  v028
 BYTE   W23
 BYTE   VOL   56*FE07IntheShadowofTriumphAlice_mvl/mxv
 BYTE   W01
//  #02 //008   ----------------------------------------
 BYTE   VOICE   48
 BYTE   VOL   51*FE07IntheShadowofTriumphAlice_mvl/mxv
 BYTE   PAN   c_v+10
 BYTE   N44  Ds4  v100
 BYTE   W48
 BYTE   N20  Ds4  v080
 BYTE   W24
 BYTE   N08  Cs4  v092
 BYTE   W12
 BYTE   Cn4  v088
 BYTE   W12
//  #02 //009   ----------------------------------------
 BYTE   N44  As3  v084
 BYTE   W48
 BYTE   N20  Gs3  v088
 BYTE   W24
 BYTE   As3  v092
 BYTE   W24
//  #02 //010   ----------------------------------------
 BYTE   Cn4
 BYTE   W24
 BYTE   N44  Cn4  v096
 BYTE   W48
 BYTE   N20  Gs3  v092
 BYTE   W24
//  #02 //011   ----------------------------------------
 BYTE   N68  Fn3
 BYTE   W72
 BYTE   N20
 BYTE   W24
//  #02 //012   ----------------------------------------
 BYTE   N92  Dn3
 BYTE   W96
//  #02 //013   ----------------------------------------
 BYTE   W96
//  #02 //014   ----------------------------------------
 BYTE   W96
//  #02 //015   ----------------------------------------
 BYTE   VOICE   98
 BYTE   W05
 BYTE   VOL   51*FE07IntheShadowofTriumphAlice_mvl/mxv
 BYTE   W01
 BYTE   VOL   56*FE07IntheShadowofTriumphAlice_mvl/mxv
 BYTE   W06
 BYTE   PAN   c_v-10
 BYTE   W60
 BYTE   N21  Cn4
 BYTE   W24
//  #02 //016   ----------------------------------------
 BYTE   N12  Cn5
 BYTE   W12
 BYTE   N09  Cn5  v028
 BYTE   W12
 BYTE   N12  Cn5  v080
 BYTE   W12
 BYTE   N09  Cn5  v028
 BYTE   W48
 BYTE   N12  Cs5  v080
 BYTE   W12
//  #02 //017   ----------------------------------------
 BYTE   As4  v096
 BYTE   W12
 BYTE   N09  As4  v028
 BYTE   W12
 BYTE   As4  v092
 BYTE   W12
 BYTE   As4  v028
 BYTE   W60
//  #02 //018   ----------------------------------------
 BYTE   N12  Ds5  v080
 BYTE   W12
 BYTE   N06  Ds5  v028
 BYTE   W12
 BYTE   N12  Ds5  v088
 BYTE   W12
 BYTE   N09  Ds5  v028
 BYTE   W48
 BYTE   N12  Cs5  v088
 BYTE   W12
//  #02 //019   ----------------------------------------
 BYTE   Cn5  v084
 BYTE   W12
 BYTE   N09  Cn5  v028
 BYTE   W12
 BYTE   N12  Cn5  v084
 BYTE   W12
 BYTE   N09  Cn5  v028
 BYTE   W32
 BYTE   W03
 BYTE   VOL   56*FE07IntheShadowofTriumphAlice_mvl/mxv
 BYTE   W01
 BYTE   VOICE   41
 BYTE   VOL   47*FE07IntheShadowofTriumphAlice_mvl/mxv
 BYTE   PAN   c_v+10
 BYTE   N21  Cn4  v100
 BYTE   W24
//  #02 //020   ----------------------------------------
 BYTE   N72  Fn4  v104
 BYTE   W72
 BYTE   N24  Ds4  v096
 BYTE   W24
//  #02 //021   ----------------------------------------
 BYTE   N48
 BYTE   W48
 BYTE   N24  Cs4  v092
 BYTE   W24
 BYTE   Cn4  v104
 BYTE   W24
//  #02 //022   ----------------------------------------
 BYTE   N48  As3  v100
 BYTE   W48
 BYTE   N24  Gs3  v088
 BYTE   W24
 BYTE   As3
 BYTE   W24
//  #02 //023   ----------------------------------------
 BYTE   TIE  Cn4  v100
 BYTE   W96
//  #02 //024   ----------------------------------------
 BYTE   W28
 BYTE   VOL   47*FE07IntheShadowofTriumphAlice_mvl/mxv
 BYTE   W01
 BYTE   VOL   46*FE07IntheShadowofTriumphAlice_mvl/mxv
 BYTE   W01
 BYTE   VOL   46*FE07IntheShadowofTriumphAlice_mvl/mxv
 BYTE   W01
 BYTE   VOL   45*FE07IntheShadowofTriumphAlice_mvl/mxv
 BYTE   W01
 BYTE   VOL   45*FE07IntheShadowofTriumphAlice_mvl/mxv
 BYTE   W01
 BYTE   VOL   44*FE07IntheShadowofTriumphAlice_mvl/mxv
 BYTE   W01
 BYTE   VOL   44*FE07IntheShadowofTriumphAlice_mvl/mxv
 BYTE   W01
 BYTE   VOL   43*FE07IntheShadowofTriumphAlice_mvl/mxv
 BYTE   W01
 BYTE   VOL   43*FE07IntheShadowofTriumphAlice_mvl/mxv
 BYTE   W01
 BYTE   VOL   42*FE07IntheShadowofTriumphAlice_mvl/mxv
 BYTE   W01
 BYTE   VOL   42*FE07IntheShadowofTriumphAlice_mvl/mxv
 BYTE   W01
 BYTE   VOL   41*FE07IntheShadowofTriumphAlice_mvl/mxv
 BYTE   W01
 BYTE   VOL   41*FE07IntheShadowofTriumphAlice_mvl/mxv
 BYTE   W01
 BYTE   VOL   40*FE07IntheShadowofTriumphAlice_mvl/mxv
 BYTE   W01
 BYTE   VOL   39*FE07IntheShadowofTriumphAlice_mvl/mxv
 BYTE   W01
 BYTE   VOL   38*FE07IntheShadowofTriumphAlice_mvl/mxv
 BYTE   W01
 BYTE   VOL   38*FE07IntheShadowofTriumphAlice_mvl/mxv
 BYTE   W01
 BYTE   VOL   37*FE07IntheShadowofTriumphAlice_mvl/mxv
 BYTE   W01
 BYTE   VOL   36*FE07IntheShadowofTriumphAlice_mvl/mxv
 BYTE   W01
 BYTE   VOL   35*FE07IntheShadowofTriumphAlice_mvl/mxv
 BYTE   W01
 BYTE   VOL   34*FE07IntheShadowofTriumphAlice_mvl/mxv
 BYTE   W01
 BYTE   VOL   34*FE07IntheShadowofTriumphAlice_mvl/mxv
 BYTE   W01
 BYTE   VOL   33*FE07IntheShadowofTriumphAlice_mvl/mxv
 BYTE   W01
 BYTE   VOL   31*FE07IntheShadowofTriumphAlice_mvl/mxv
 BYTE   W01
 BYTE   VOL   31*FE07IntheShadowofTriumphAlice_mvl/mxv
 BYTE   W01
 BYTE   VOL   29*FE07IntheShadowofTriumphAlice_mvl/mxv
 BYTE   W01
 BYTE   VOL   28*FE07IntheShadowofTriumphAlice_mvl/mxv
 BYTE   W01
 BYTE   VOL   27*FE07IntheShadowofTriumphAlice_mvl/mxv
 BYTE   W01
 BYTE   VOL   26*FE07IntheShadowofTriumphAlice_mvl/mxv
 BYTE   W01
 BYTE   VOL   25*FE07IntheShadowofTriumphAlice_mvl/mxv
 BYTE   W01
 BYTE   VOL   23*FE07IntheShadowofTriumphAlice_mvl/mxv
 BYTE   W01
 BYTE   VOL   22*FE07IntheShadowofTriumphAlice_mvl/mxv
 BYTE   W01
 BYTE   VOL   20*FE07IntheShadowofTriumphAlice_mvl/mxv
 BYTE   W01
 BYTE   VOL   18*FE07IntheShadowofTriumphAlice_mvl/mxv
 BYTE   W01
 BYTE   VOL   17*FE07IntheShadowofTriumphAlice_mvl/mxv
 BYTE   W01
 BYTE   VOL   15*FE07IntheShadowofTriumphAlice_mvl/mxv
 BYTE   W01
 BYTE   VOL   13*FE07IntheShadowofTriumphAlice_mvl/mxv
 BYTE   W01
 BYTE   VOL   11*FE07IntheShadowofTriumphAlice_mvl/mxv
 BYTE   W01
 BYTE   VOL   9*FE07IntheShadowofTriumphAlice_mvl/mxv
 BYTE   W01
 BYTE   VOL   6*FE07IntheShadowofTriumphAlice_mvl/mxv
 BYTE   W01
 BYTE   VOL   4*FE07IntheShadowofTriumphAlice_mvl/mxv
 BYTE   W01
 BYTE   EOT
 BYTE   VOL   1*FE07IntheShadowofTriumphAlice_mvl/mxv
 BYTE   W01
 BYTE   VOL   0*FE07IntheShadowofTriumphAlice_mvl/mxv
 BYTE   W02
 BYTE   VOICE   48
 BYTE   VOL   51*FE07IntheShadowofTriumphAlice_mvl/mxv
 BYTE   PAN   c_v+10
 BYTE   N21  Gn4  v088
 BYTE   W24
//  #02 //025   ----------------------------------------
Label_010228D4:
 BYTE   N05  Gs4  v100
 BYTE   W12
 BYTE   N05
 BYTE   W09
 BYTE   Gs4  v020
 BYTE   W15
 BYTE   Gs4  v100
 BYTE   W09
 BYTE   Gs4  v020
 BYTE   W15
 BYTE   Gs4  v100
 BYTE   W09
 BYTE   Gs4  v020
 BYTE   W15
 BYTE   Gs4  v100
 BYTE   W12
 BYTE   PEND 
//  #02 //026   ----------------------------------------
 BYTE   PATT
  POIN2 Label_010228D4
//  #02 //027   ----------------------------------------
 BYTE   PATT
  POIN2 Label_010228D4
//  #02 //028   ----------------------------------------
 BYTE   PATT
  POIN2 Label_010228D4
//  #02 //029   ----------------------------------------
 BYTE   PATT
  POIN2 Label_010228D4
//  #02 //030   ----------------------------------------
 BYTE   PATT
  POIN2 Label_010228D4
//  #02 //031   ----------------------------------------
 BYTE   PATT
  POIN2 Label_010228D4
//  #02 //032   ----------------------------------------
 BYTE   N05  As4  v100
 BYTE   W12
 BYTE   N05
 BYTE   W09
 BYTE   As4  v020
 BYTE   W15
 BYTE   As4  v100
 BYTE   W09
 BYTE   As4  v020
 BYTE   W15
 BYTE   N11  As3  v092
 BYTE   W12
 BYTE   As4  v104
 BYTE   W12
 BYTE   Gn4  v108
 BYTE   W12
//  #02 //033   ----------------------------------------
 BYTE   GoTo
  POIN2 Label_01022716
 BYTE   FINE

//**************** Track 3 (Midi-Chn.2) ****************//

FE07IntheShadowofTriumphAlice_003:
//  #03 //000   ----------------------------------------
 BYTE   KEYSH   FE07IntheShadowofTriumphAlice_key+0
Label_01020E3E:
 BYTE   VOICE   51
 BYTE   VOL   54*FE07IntheShadowofTriumphAlice_mvl/mxv
 BYTE   PAN   c_v+0
 BYTE   N18  Fn2  v100
 BYTE   W24
 BYTE   N42
 BYTE   W48
 BYTE   N18
 BYTE   W24
//  #03 //001   ----------------------------------------
Label_01020E4C:
 BYTE   N18  Fn2  v100
 BYTE   W24
 BYTE   N42
 BYTE   W48
 BYTE   N18
 BYTE   W24
 BYTE   PEND 
//  #03 //002   ----------------------------------------
Label_01020E55:
 BYTE   N18  Fs2  v100
 BYTE   W24
 BYTE   N42
 BYTE   W48
 BYTE   N18
 BYTE   W24
 BYTE   PEND 
//  #03 //003   ----------------------------------------
 BYTE   Fn2
 BYTE   W24
 BYTE   N42
 BYTE   W48
 BYTE   N18  Cn3
 BYTE   W24
//  #03 //004   ----------------------------------------
 BYTE   PATT
  POIN2 Label_01020E4C
//  #03 //005   ----------------------------------------
 BYTE   PATT
  POIN2 Label_01020E4C
//  #03 //006   ----------------------------------------
 BYTE   PATT
  POIN2 Label_01020E55
//  #03 //007   ----------------------------------------
 BYTE   N18  Fn2  v100
 BYTE   W24
 BYTE   N42
 BYTE   W48
 BYTE   N11
 BYTE   W12
 BYTE   Gn2
 BYTE   W12
//  #03 //008   ----------------------------------------
 BYTE   N21  Gs2
 BYTE   W24
 BYTE   N44
 BYTE   W48
 BYTE   N21
 BYTE   W24
//  #03 //009   ----------------------------------------
 BYTE   As2
 BYTE   W24
 BYTE   N44
 BYTE   W48
 BYTE   N21
 BYTE   W24
//  #03 //010   ----------------------------------------
 BYTE   Cn3
 BYTE   W24
 BYTE   N44
 BYTE   W48
 BYTE   N21
 BYTE   W24
//  #03 //011   ----------------------------------------
 BYTE   Fn2
 BYTE   W24
 BYTE   N44
 BYTE   W48
 BYTE   N21
 BYTE   W24
//  #03 //012   ----------------------------------------
Label_01020E97:
 BYTE   N21  Dn2  v100
 BYTE   W24
 BYTE   N44
 BYTE   W48
 BYTE   N21
 BYTE   W24
 BYTE   PEND 
//  #03 //013   ----------------------------------------
 BYTE   PATT
  POIN2 Label_01020E97
//  #03 //014   ----------------------------------------
 BYTE   N21  En2  v100
 BYTE   W24
 BYTE   N44
 BYTE   W48
 BYTE   N21
 BYTE   W24
//  #03 //015   ----------------------------------------
 BYTE   N56  Cn2
 BYTE   W72
 BYTE   N21
 BYTE   W24
//  #03 //016   ----------------------------------------
 BYTE   N12  Fn2
 BYTE   W24
 BYTE   N12
 BYTE   W72
//  #03 //017   ----------------------------------------
 BYTE   Gn2
 BYTE   W24
 BYTE   N12
 BYTE   W72
//  #03 //018   ----------------------------------------
 BYTE   Cn3  v104
 BYTE   W24
 BYTE   N12
 BYTE   W72
//  #03 //019   ----------------------------------------
 BYTE   Fn2  v100
 BYTE   W24
 BYTE   N12
 BYTE   W48
 BYTE   N21  Fn2  v104
 BYTE   W24
//  #03 //020   ----------------------------------------
 BYTE   N68  As2  v100
 BYTE   W72
 BYTE   N21  Gs2
 BYTE   W24
//  #03 //021   ----------------------------------------
 BYTE   N92  Fs2
 BYTE   W96
//  #03 //022   ----------------------------------------
 BYTE   N68  Gn2
 BYTE   W72
 BYTE   N21
 BYTE   W24
//  #03 //023   ----------------------------------------
 BYTE   N44
 BYTE   W48
 BYTE   N21
 BYTE   W24
 BYTE   N21
 BYTE   W24
//  #03 //024   ----------------------------------------
 BYTE   N44  Fs2
 BYTE   W48
 BYTE   N21
 BYTE   W24
 BYTE   N21
 BYTE   W24
//  #03 //025   ----------------------------------------
Label_01020EE5:
 BYTE   N18  Fn2  v100
 BYTE   W24
 BYTE   N18
 BYTE   W24
 BYTE   N18
 BYTE   W24
 BYTE   N18
 BYTE   W24
 BYTE   PEND 
//  #03 //026   ----------------------------------------
 BYTE   PATT
  POIN2 Label_01020EE5
//  #03 //027   ----------------------------------------
Label_01020EF5:
 BYTE   N18  Fs2  v100
 BYTE   W24
 BYTE   N18
 BYTE   W24
 BYTE   N18
 BYTE   W24
 BYTE   N18
 BYTE   W24
 BYTE   PEND 
//  #03 //028   ----------------------------------------
 BYTE   PATT
  POIN2 Label_01020EF5
//  #03 //029   ----------------------------------------
 BYTE   N18  Gs2  v100
 BYTE   W24
 BYTE   N18
 BYTE   W24
 BYTE   N18
 BYTE   W24
 BYTE   N18
 BYTE   W24
//  #03 //030   ----------------------------------------
 BYTE   N18
 BYTE   W24
 BYTE   Gn2
 BYTE   W24
 BYTE   Fn2
 BYTE   W24
 BYTE   Ds2
 BYTE   W24
//  #03 //031   ----------------------------------------
 BYTE   Cs2
 BYTE   W24
 BYTE   N18
 BYTE   W24
 BYTE   N18
 BYTE   W24
 BYTE   N18
 BYTE   W24
//  #03 //032   ----------------------------------------
 BYTE   Ds2
 BYTE   W24
 BYTE   N18
 BYTE   W24
 BYTE   N18
 BYTE   W24
 BYTE   N21  Cn2
 BYTE   W24
//  #03 //033   ----------------------------------------
 BYTE   GoTo
  POIN2 Label_01020E3E
 BYTE   FINE

//**************** Track 4 (Midi-Chn.3) ****************//

FE07IntheShadowofTriumphAlice_004:
//  #04 //000   ----------------------------------------
 BYTE   KEYSH   FE07IntheShadowofTriumphAlice_key+0
Label_0102292E:
 BYTE   VOICE   49
 BYTE   VOL   45*FE07IntheShadowofTriumphAlice_mvl/mxv
 BYTE   PAN   c_v+20
 BYTE   N06  Fn2  v080
 BYTE   N06  Cn3
 BYTE   W06
 BYTE   Cn3  v020
 BYTE   W06
 BYTE   N21  Fn2  v080
 BYTE   N21  Cn3  v076
 BYTE   W24
 BYTE   Fn2  v080
 BYTE   N21  Cn3
 BYTE   W24
 BYTE   Fn2  v076
 BYTE   N21  Cn3
 BYTE   W24
 BYTE   N06  Fn2
 BYTE   N06  Cn3  v072
 BYTE   W06
 BYTE   Cn3  v020
 BYTE   W06
//  #04 //001   ----------------------------------------
 BYTE   Fn2  v076
 BYTE   N06  Cn3  v080
 BYTE   W06
 BYTE   Cn3  v020
 BYTE   W06
 BYTE   N21  Fn2  v080
 BYTE   N21  Cn3  v068
 BYTE   W24
 BYTE   Fn2
 BYTE   N21  Cn3  v080
 BYTE   W24
 BYTE   Fn2
 BYTE   N21  Cn3  v072
 BYTE   W24
 BYTE   N06  Fn2  v076
 BYTE   N06  Cn3  v068
 BYTE   W06
 BYTE   Cn3  v020
 BYTE   W06
//  #04 //002   ----------------------------------------
 BYTE   Fs2  v064
 BYTE   N06  Cs3  v076
 BYTE   W06
 BYTE   Cs3  v020
 BYTE   W06
 BYTE   N21  Fs2  v080
 BYTE   N21  Cs3  v072
 BYTE   W24
 BYTE   Fs2  v068
 BYTE   N21  Cs3  v072
 BYTE   W24
 BYTE   N09  Fs2  v068
 BYTE   N21  Cs3  v080
 BYTE   W24
 BYTE   N06  Fs2  v076
 BYTE   N06  Cs3  v072
 BYTE   W12
//  #04 //003   ----------------------------------------
 BYTE   Fn2  v064
 BYTE   N06  Cn3
 BYTE   W06
 BYTE   Cn3  v020
 BYTE   W06
 BYTE   N21  Fn2  v064
 BYTE   N21  Cn3  v080
 BYTE   W24
 BYTE   Fn2
 BYTE   N21  Cn3  v072
 BYTE   W24
 BYTE   Fn2  v076
 BYTE   N21  Cn3  v072
 BYTE   W24
 BYTE   N06  Fn2
 BYTE   N06  Cn3  v080
 BYTE   W06
 BYTE   Cn3  v020
 BYTE   W06
//  #04 //004   ----------------------------------------
 BYTE   Fn2  v064
 BYTE   N06  Cn3  v072
 BYTE   W06
 BYTE   Cn3  v020
 BYTE   W06
 BYTE   N21  Fn2  v080
 BYTE   N21  Cn3  v072
 BYTE   W24
 BYTE   Fn2  v080
 BYTE   N21  Cn3  v072
 BYTE   W24
 BYTE   Fn2  v064
 BYTE   N21  Cn3  v080
 BYTE   W24
 BYTE   N06  Fn2  v072
 BYTE   N06  Cn3  v064
 BYTE   W06
 BYTE   Cn3  v020
 BYTE   W06
//  #04 //005   ----------------------------------------
 BYTE   Fn2  v068
 BYTE   N06  Cn3  v072
 BYTE   W06
 BYTE   Cn3  v020
 BYTE   W06
 BYTE   N21  Fn2  v072
 BYTE   N21  Cn3  v076
 BYTE   W24
 BYTE   Fn2  v064
 BYTE   N21  Cn3
 BYTE   W24
 BYTE   Fn2  v068
 BYTE   N21  Cn3  v080
 BYTE   W24
 BYTE   N06  Fn2
 BYTE   N06  Cn3
 BYTE   W06
 BYTE   Cn3  v020
 BYTE   W06
//  #04 //006   ----------------------------------------
 BYTE   Fs2  v068
 BYTE   N06  Cs3
 BYTE   W06
 BYTE   Cs3  v020
 BYTE   W06
 BYTE   N21  Fs2  v068
 BYTE   N21  Cs3  v072
 BYTE   W24
 BYTE   Fs2  v068
 BYTE   N21  Cs3  v080
 BYTE   W24
 BYTE   Fs2
 BYTE   N21  Cs3  v068
 BYTE   W24
 BYTE   N06  Fs2  v072
 BYTE   N06  Cs3  v080
 BYTE   W06
 BYTE   Cs3  v020
 BYTE   W06
//  #04 //007   ----------------------------------------
 BYTE   Fn2  v080
 BYTE   N06  Cn3
 BYTE   W06
 BYTE   Cn3  v020
 BYTE   W06
 BYTE   N21  Fn2  v072
 BYTE   N21  Cn3  v068
 BYTE   W24
 BYTE   Fn2  v064
 BYTE   N21  Cn3  v080
 BYTE   W24
 BYTE   Fn2
 BYTE   N21  Cn3  v076
 BYTE   W24
 BYTE   N06  Fn2  v080
 BYTE   N06  Cn3  v076
 BYTE   W06
 BYTE   Cn3  v020
 BYTE   W06
//  #04 //008   ----------------------------------------
 BYTE   W96
//  #04 //009   ----------------------------------------
 BYTE   W96
//  #04 //010   ----------------------------------------
 BYTE   W96
//  #04 //011   ----------------------------------------
 BYTE   W96
//  #04 //012   ----------------------------------------
 BYTE   N92  Gs3  v048
 BYTE   W96
//  #04 //013   ----------------------------------------
 BYTE   Dn3  v060
 BYTE   N92  Gs3  v072
 BYTE   W96
//  #04 //014   ----------------------------------------
 BYTE   Gn3  v068
 BYTE   N92  As3  v076
 BYTE   W96
//  #04 //015   ----------------------------------------
 BYTE   N60  En3  v064
 BYTE   N60  As3  v076
 BYTE   W72
 BYTE   N21  Gn2
 BYTE   W24
//  #04 //016   ----------------------------------------
 BYTE   N12  Gs2  v072
 BYTE   N12  Fn3  v076
 BYTE   W12
 BYTE   Fn3  v020
 BYTE   W12
 BYTE   Gs2  v072
 BYTE   N12  Fn3  v076
 BYTE   W12
 BYTE   Fn3  v020
 BYTE   W60
//  #04 //017   ----------------------------------------
 BYTE   As2  v076
 BYTE   N12  Ds3  v080
 BYTE   W12
 BYTE   Ds3  v020
 BYTE   W12
 BYTE   As2  v072
 BYTE   N12  Ds3  v076
 BYTE   W12
 BYTE   Ds3  v020
 BYTE   W60
//  #04 //018   ----------------------------------------
 BYTE   As2  v076
 BYTE   N12  En3  v072
 BYTE   W12
 BYTE   En3  v020
 BYTE   W12
 BYTE   As2  v088
 BYTE   N12  En3  v072
 BYTE   W12
 BYTE   En3  v020
 BYTE   W60
//  #04 //019   ----------------------------------------
 BYTE   Ds3  v088
 BYTE   W12
 BYTE   Ds3  v020
 BYTE   W12
 BYTE   Ds3  v084
 BYTE   W12
 BYTE   Ds3  v020
 BYTE   W60
//  #04 //020   ----------------------------------------
 BYTE   N72  As3  v080
 BYTE   W72
 BYTE   N24  Gs3  v076
 BYTE   W24
//  #04 //021   ----------------------------------------
 BYTE   N44  Fs3  v080
 BYTE   W48
 BYTE   N21  Fs3  v076
 BYTE   W24
 BYTE   Fn3  v080
 BYTE   W24
//  #04 //022   ----------------------------------------
 BYTE   N54  Dn3  v076
 BYTE   W60
 BYTE   N12
 BYTE   W12
 BYTE   Gn3
 BYTE   W12
 BYTE   As3
 BYTE   W12
//  #04 //023   ----------------------------------------
 BYTE   N96  Dn4  v080
 BYTE   W96
//  #04 //024   ----------------------------------------
 BYTE   N72  As3  v076
 BYTE   W96
//  #04 //025   ----------------------------------------
 BYTE   N11  Gs2
 BYTE   N08  Cn3  v064
 BYTE   W12
 BYTE   N08
 BYTE   W09
 BYTE   Cn3  v020
 BYTE   W03
 BYTE   N11  Gs2  v076
 BYTE   W12
 BYTE   N08  Cn3  v064
 BYTE   W09
 BYTE   Cn3  v020
 BYTE   W15
 BYTE   Cn3  v064
 BYTE   W09
 BYTE   Cn3  v020
 BYTE   W15
 BYTE   N05  Gs2  v076
 BYTE   N05  Cn3  v064
 BYTE   W12
//  #04 //026   ----------------------------------------
 BYTE   N11  Gs2  v076
 BYTE   N08  Cn3  v064
 BYTE   W12
 BYTE   N08
 BYTE   W09
 BYTE   Cn3  v020
 BYTE   W03
 BYTE   N11  Gs2  v076
 BYTE   W12
 BYTE   N08  Cn3  v064
 BYTE   W09
 BYTE   Cn3  v020
 BYTE   W15
 BYTE   Cn3  v064
 BYTE   W09
 BYTE   Cn3  v020
 BYTE   W15
 BYTE   Cn3  v064
 BYTE   W12
//  #04 //027   ----------------------------------------
 BYTE   N11  As2  v076
 BYTE   N08  Cs3  v064
 BYTE   W12
 BYTE   N08
 BYTE   W09
 BYTE   Cs3  v020
 BYTE   W03
 BYTE   N11  As2  v076
 BYTE   W12
 BYTE   N08  Cs3  v064
 BYTE   W09
 BYTE   Cs3  v020
 BYTE   W15
 BYTE   Cs3  v064
 BYTE   W09
 BYTE   Cs3  v020
 BYTE   W15
 BYTE   N11  As2  v076
 BYTE   N08  Cs3  v064
 BYTE   W12
//  #04 //028   ----------------------------------------
 BYTE   N11  As2  v076
 BYTE   N08  Cs3  v064
 BYTE   W12
 BYTE   N08
 BYTE   W09
 BYTE   Cs3  v020
 BYTE   W03
 BYTE   N11  As2  v076
 BYTE   W12
 BYTE   N08  Cs3  v064
 BYTE   W09
 BYTE   Cs3  v020
 BYTE   W15
 BYTE   Cs3  v068
 BYTE   W09
 BYTE   Cs3  v020
 BYTE   W15
 BYTE   Cs3  v068
 BYTE   W12
//  #04 //029   ----------------------------------------
 BYTE   N11  Cn3  v076
 BYTE   N08  Ds3  v064
 BYTE   W12
 BYTE   N08
 BYTE   W09
 BYTE   Ds3  v020
 BYTE   W03
 BYTE   N11  Cn3  v076
 BYTE   W12
 BYTE   N08  Ds3  v064
 BYTE   W09
 BYTE   Ds3  v020
 BYTE   W15
 BYTE   Ds3  v064
 BYTE   W09
 BYTE   Ds3  v020
 BYTE   W15
 BYTE   N11  Cn3  v076
 BYTE   N08  Ds3  v064
 BYTE   W12
//  #04 //030   ----------------------------------------
 BYTE   Ds3  v072
 BYTE   W12
 BYTE   Ds3  v064
 BYTE   W09
 BYTE   Ds3  v020
 BYTE   W03
 BYTE   N11  Cs3  v076
 BYTE   W12
 BYTE   N08  Ds3  v064
 BYTE   W09
 BYTE   Ds3  v020
 BYTE   W03
 BYTE   N11  Cn3  v076
 BYTE   W12
 BYTE   N08  Ds3  v064
 BYTE   W09
 BYTE   Ds3  v020
 BYTE   W03
 BYTE   N11  Gs2  v076
 BYTE   W12
 BYTE   N08  Ds3  v064
 BYTE   W12
//  #04 //031   ----------------------------------------
 BYTE   N11  As2  v076
 BYTE   N08  Fn3  v064
 BYTE   W12
 BYTE   N08
 BYTE   W09
 BYTE   Fn3  v020
 BYTE   W03
 BYTE   N11  As2  v076
 BYTE   W12
 BYTE   N08  Fn3  v064
 BYTE   W09
 BYTE   Fn3  v020
 BYTE   W15
 BYTE   Fn3  v064
 BYTE   W09
 BYTE   Fn3  v020
 BYTE   W15
 BYTE   N11  As2  v076
 BYTE   N08  Fn3  v064
 BYTE   W12
//  #04 //032   ----------------------------------------
 BYTE   N11  As2  v076
 BYTE   N08  Ds3  v064
 BYTE   W12
 BYTE   N08
 BYTE   W09
 BYTE   Ds3  v020
 BYTE   W03
 BYTE   N11  As2  v076
 BYTE   W12
 BYTE   N08  Ds3  v064
 BYTE   W09
 BYTE   Ds3  v020
 BYTE   W15
 BYTE   N11  As2  v076
 BYTE   N08  Ds3  v064
 BYTE   W12
 BYTE   N11  Gn3  v076
 BYTE   W12
 BYTE   N08  Ds3
 BYTE   W12
//  #04 //033   ----------------------------------------
 BYTE   GoTo
  POIN2 Label_0102292E
 BYTE   FINE

//**************** Track 5 (Midi-Chn.4) ****************//

FE07IntheShadowofTriumphAlice_005:
//  #05 //000   ----------------------------------------
 BYTE   KEYSH   FE07IntheShadowofTriumphAlice_key+0
Label_010206AE:
 BYTE   W96
//  #05 //001   ----------------------------------------
 BYTE   W96
//  #05 //002   ----------------------------------------
 BYTE   W96
//  #05 //003   ----------------------------------------
 BYTE   W96
//  #05 //004   ----------------------------------------
 BYTE   W96
//  #05 //005   ----------------------------------------
 BYTE   W96
//  #05 //006   ----------------------------------------
 BYTE   W96
//  #05 //007   ----------------------------------------
 BYTE   VOICE   76
 BYTE   W24
 BYTE   VOL   29*FE07IntheShadowofTriumphAlice_mvl/mxv
 BYTE   W24
 BYTE   PAN   c_v-4
 BYTE   W24
 BYTE   N11  As4  v088
 BYTE   W12
 BYTE   Gs4  v096
 BYTE   W12
//  #05 //008   ----------------------------------------
 BYTE   N56  Gn4  v080
 BYTE   W60
 BYTE   N11  Gs4  v088
 BYTE   W12
 BYTE   Cn5  v084
 BYTE   W12
 BYTE   As4  v088
 BYTE   W12
//  #05 //009   ----------------------------------------
 BYTE   N68  Gn4  v096
 BYTE   W72
 BYTE   N23  Fn4
 BYTE   W24
//  #05 //010   ----------------------------------------
 BYTE   N56  En4
 BYTE   W60
 BYTE   N11  Gn4  v092
 BYTE   W12
 BYTE   As4
 BYTE   W12
 BYTE   Gs4  v096
 BYTE   W12
//  #05 //011   ----------------------------------------
 BYTE   N66  Fn4
 BYTE   W72
 BYTE   N23  Ds4  v088
 BYTE   W24
//  #05 //012   ----------------------------------------
 BYTE   N44  Dn4  v092
 BYTE   W48
 BYTE   N21  Ds4  v088
 BYTE   W24
 BYTE   Fn4  v092
 BYTE   W24
//  #05 //013   ----------------------------------------
 BYTE   Gn4  v096
 BYTE   W24
 BYTE   Gs4  v100
 BYTE   W24
 BYTE   As4
 BYTE   W24
 BYTE   Cn5  v092
 BYTE   W24
//  #05 //014   ----------------------------------------
 BYTE   N68  Cs5  v096
 BYTE   W72
 BYTE   N11  Ds5  v092
 BYTE   W12
 BYTE   Cs5  v084
 BYTE   W12
//  #05 //015   ----------------------------------------
 BYTE   N60  Cn5  v088
 BYTE   W36
 BYTE   W01
 BYTE   VOL   29*FE07IntheShadowofTriumphAlice_mvl/mxv
 BYTE   W01
 BYTE   VOL   28*FE07IntheShadowofTriumphAlice_mvl/mxv
 BYTE   W01
 BYTE   VOL   27*FE07IntheShadowofTriumphAlice_mvl/mxv
 BYTE   W01
 BYTE   VOL   26*FE07IntheShadowofTriumphAlice_mvl/mxv
 BYTE   W01
 BYTE   VOL   26*FE07IntheShadowofTriumphAlice_mvl/mxv
 BYTE   W01
 BYTE   VOL   25*FE07IntheShadowofTriumphAlice_mvl/mxv
 BYTE   W01
 BYTE   VOL   24*FE07IntheShadowofTriumphAlice_mvl/mxv
 BYTE   W01
 BYTE   VOL   23*FE07IntheShadowofTriumphAlice_mvl/mxv
 BYTE   W01
 BYTE   VOL   22*FE07IntheShadowofTriumphAlice_mvl/mxv
 BYTE   W01
 BYTE   VOL   21*FE07IntheShadowofTriumphAlice_mvl/mxv
 BYTE   W01
 BYTE   VOL   20*FE07IntheShadowofTriumphAlice_mvl/mxv
 BYTE   W01
 BYTE   VOL   18*FE07IntheShadowofTriumphAlice_mvl/mxv
 BYTE   W01
 BYTE   VOL   17*FE07IntheShadowofTriumphAlice_mvl/mxv
 BYTE   W01
 BYTE   VOL   15*FE07IntheShadowofTriumphAlice_mvl/mxv
 BYTE   W01
 BYTE   VOL   14*FE07IntheShadowofTriumphAlice_mvl/mxv
 BYTE   W01
 BYTE   VOL   12*FE07IntheShadowofTriumphAlice_mvl/mxv
 BYTE   W01
 BYTE   VOL   11*FE07IntheShadowofTriumphAlice_mvl/mxv
 BYTE   W01
 BYTE   VOL   8*FE07IntheShadowofTriumphAlice_mvl/mxv
 BYTE   W01
 BYTE   VOL   6*FE07IntheShadowofTriumphAlice_mvl/mxv
 BYTE   W01
 BYTE   VOL   5*FE07IntheShadowofTriumphAlice_mvl/mxv
 BYTE   W01
 BYTE   VOL   2*FE07IntheShadowofTriumphAlice_mvl/mxv
 BYTE   W01
 BYTE   VOL   0*FE07IntheShadowofTriumphAlice_mvl/mxv
 BYTE   W01
 BYTE   VOL   0*FE07IntheShadowofTriumphAlice_mvl/mxv
 BYTE   W01
 BYTE   VOL   0*FE07IntheShadowofTriumphAlice_mvl/mxv
 BYTE   W01
 BYTE   VOL   0*FE07IntheShadowofTriumphAlice_mvl/mxv
 BYTE   W01
 BYTE   VOL   0*FE07IntheShadowofTriumphAlice_mvl/mxv
 BYTE   W01
 BYTE   VOL   0*FE07IntheShadowofTriumphAlice_mvl/mxv
 BYTE   N09  Cn5  v028
 BYTE   W01
 BYTE   VOL   0*FE07IntheShadowofTriumphAlice_mvl/mxv
 BYTE   W32
//  #05 //016   ----------------------------------------
 BYTE   VOL   28*FE07IntheShadowofTriumphAlice_mvl/mxv
 BYTE   W48
 BYTE   N48  Fn5  v068
 BYTE   W48
//  #05 //017   ----------------------------------------
 BYTE   N56  Ds5
 BYTE   W60
 BYTE   N09  As4
 BYTE   W12
 BYTE   Ds5
 BYTE   W12
 BYTE   Cs5
 BYTE   W12
//  #05 //018   ----------------------------------------
 BYTE   N44  Cn5
 BYTE   W48
 BYTE   N48  Gn4
 BYTE   W48
//  #05 //019   ----------------------------------------
 BYTE   N66  An4
 BYTE   W66
 BYTE   N12  An4  v020
 BYTE   W30
//  #05 //020   ----------------------------------------
 BYTE   W96
//  #05 //021   ----------------------------------------
 BYTE   W96
//  #05 //022   ----------------------------------------
 BYTE   W96
//  #05 //023   ----------------------------------------
 BYTE   W96
//  #05 //024   ----------------------------------------
 BYTE   W96
//  #05 //025   ----------------------------------------
 BYTE   W96
//  #05 //026   ----------------------------------------
 BYTE   W96
//  #05 //027   ----------------------------------------
 BYTE   W96
//  #05 //028   ----------------------------------------
 BYTE   W96
//  #05 //029   ----------------------------------------
 BYTE   W96
//  #05 //030   ----------------------------------------
 BYTE   W96
//  #05 //031   ----------------------------------------
 BYTE   W96
//  #05 //032   ----------------------------------------
 BYTE   W96
//  #05 //033   ----------------------------------------
 BYTE   GoTo
  POIN2 Label_010206AE
 BYTE   FINE

//**************** Track 6 (Midi-Chn.5) ****************//

FE07IntheShadowofTriumphAlice_006:
//  #06 //000   ----------------------------------------
 BYTE   KEYSH   FE07IntheShadowofTriumphAlice_key+0
Label_010207E2:
 BYTE   VOICE   47
 BYTE   VOL   57*FE07IntheShadowofTriumphAlice_mvl/mxv
 BYTE   PAN   c_v+10
 BYTE   N20  Fn2  v112
 BYTE   W72
 BYTE   N20
 BYTE   W24
//  #06 //001   ----------------------------------------
 BYTE   N20
 BYTE   W96
//  #06 //002   ----------------------------------------
Label_010207F0:
 BYTE   N20  As2  v112
 BYTE   W72
 BYTE   N20
 BYTE   W24
 BYTE   PEND 
//  #06 //003   ----------------------------------------
 BYTE   Fn2
 BYTE   W24
 BYTE   N20
 BYTE   W48
 BYTE   Cn3
 BYTE   W24
//  #06 //004   ----------------------------------------
 BYTE   Fn2
 BYTE   W72
 BYTE   N20
 BYTE   W24
//  #06 //005   ----------------------------------------
 BYTE   N20
 BYTE   W96
//  #06 //006   ----------------------------------------
 BYTE   PATT
  POIN2 Label_010207F0
//  #06 //007   ----------------------------------------
 BYTE   N20  Fn2  v112
 BYTE   W72
 BYTE   Cn3
 BYTE   W24
//  #06 //008   ----------------------------------------
 BYTE   N21  Cn3  v100
 BYTE   W96
//  #06 //009   ----------------------------------------
 BYTE   As2
 BYTE   W96
//  #06 //010   ----------------------------------------
 BYTE   Gn2
 BYTE   W96
//  #06 //011   ----------------------------------------
 BYTE   Fn2
 BYTE   W96
//  #06 //012   ----------------------------------------
 BYTE   Dn3  v112
 BYTE   W96
//  #06 //013   ----------------------------------------
 BYTE   N21
 BYTE   W96
//  #06 //014   ----------------------------------------
 BYTE   As2
 BYTE   W48
 BYTE   N21
 BYTE   W48
//  #06 //015   ----------------------------------------
 BYTE   Cn3
 BYTE   W48
 BYTE   Cn3  v088
 BYTE   W24
 BYTE   N06  Cn3  v080
 BYTE   W06
 BYTE   Cn3  v100
 BYTE   W06
 BYTE   Cn3  v112
 BYTE   W06
 BYTE   Cn3  v124
 BYTE   W06
//  #06 //016   ----------------------------------------
 BYTE   N21  Fn2  v112
 BYTE   W24
 BYTE   N21
 BYTE   W72
//  #06 //017   ----------------------------------------
 BYTE   Gn2
 BYTE   W24
 BYTE   N21
 BYTE   W72
//  #06 //018   ----------------------------------------
 BYTE   Cn3
 BYTE   W24
 BYTE   N21
 BYTE   W72
//  #06 //019   ----------------------------------------
Label_01020841:
 BYTE   N21  Fn2  v112
 BYTE   W24
 BYTE   N21
 BYTE   W48
 BYTE   N21
 BYTE   W24
 BYTE   PEND 
//  #06 //020   ----------------------------------------
 BYTE   As2
 BYTE   W48
 BYTE   N21
 BYTE   W24
 BYTE   N21
 BYTE   W24
//  #06 //021   ----------------------------------------
 BYTE   Fs2
 BYTE   W48
 BYTE   N21
 BYTE   W24
 BYTE   N21
 BYTE   W24
//  #06 //022   ----------------------------------------
 BYTE   Gn2
 BYTE   W48
 BYTE   N21
 BYTE   W48
//  #06 //023   ----------------------------------------
 BYTE   N21
 BYTE   W48
 BYTE   N21
 BYTE   W24
 BYTE   N21
 BYTE   W24
//  #06 //024   ----------------------------------------
 BYTE   Fs2
 BYTE   W48
 BYTE   N21
 BYTE   W24
 BYTE   N06  Fs2  v088
 BYTE   W06
 BYTE   Fs2  v100
 BYTE   W06
 BYTE   Fs2  v108
 BYTE   W06
 BYTE   Fs2  v120
 BYTE   W06
//  #06 //025   ----------------------------------------
 BYTE   PATT
  POIN2 Label_01020841
//  #06 //026   ----------------------------------------
 BYTE   PATT
  POIN2 Label_01020841
//  #06 //027   ----------------------------------------
 BYTE   N21  Fs2  v112
 BYTE   W24
 BYTE   N21
 BYTE   W48
 BYTE   N06  Fs2  v076
 BYTE   W06
 BYTE   Fs2  v088
 BYTE   W06
 BYTE   Fs2  v096
 BYTE   W06
 BYTE   Fs2  v108
 BYTE   W06
//  #06 //028   ----------------------------------------
 BYTE   N21  Fs2  v112
 BYTE   W72
 BYTE   N21
 BYTE   W24
//  #06 //029   ----------------------------------------
 BYTE   Gs2
 BYTE   W24
 BYTE   N21
 BYTE   W48
 BYTE   N06  Gs2  v076
 BYTE   W06
 BYTE   Gs2  v088
 BYTE   W06
 BYTE   Gs2  v096
 BYTE   W06
 BYTE   Gs2  v104
 BYTE   W06
//  #06 //030   ----------------------------------------
 BYTE   N21  Gs2  v112
 BYTE   W48
 BYTE   N21
 BYTE   W24
 BYTE   N21
 BYTE   W24
//  #06 //031   ----------------------------------------
 BYTE   N21
 BYTE   W72
 BYTE   N21
 BYTE   W24
//  #06 //032   ----------------------------------------
 BYTE   Gn2
 BYTE   W48
 BYTE   N21
 BYTE   W24
 BYTE   N06  Cn3  v076
 BYTE   W06
 BYTE   Cn3  v088
 BYTE   W06
 BYTE   Cn3  v096
 BYTE   W06
 BYTE   N03  Cn3  v108
 BYTE   W06
//  #06 //033   ----------------------------------------
 BYTE   GoTo
  POIN2 Label_010207E2
 BYTE   FINE

//**************** Track 7 (Midi-Chn.6) ****************//

FE07IntheShadowofTriumphAlice_007:
//  #07 //000   ----------------------------------------
 BYTE   KEYSH   FE07IntheShadowofTriumphAlice_key+0
Label_01022BFE:
 BYTE   VOICE   60
 BYTE   VOL   42*FE07IntheShadowofTriumphAlice_mvl/mxv
 BYTE   PAN   c_v-20
 BYTE   N68  Gs2  v096
 BYTE   W72
 BYTE   N21  Gs2  v088
 BYTE   W24
//  #07 //001   ----------------------------------------
 BYTE   N92  Gs2  v092
 BYTE   W96
//  #07 //002   ----------------------------------------
 BYTE   N68  As2  v088
 BYTE   W72
 BYTE   N21
 BYTE   W24
//  #07 //003   ----------------------------------------
 BYTE   N90  Gs2  v080
 BYTE   W96
//  #07 //004   ----------------------------------------
 BYTE   N68
 BYTE   W72
 BYTE   N21  Gs2  v084
 BYTE   W24
//  #07 //005   ----------------------------------------
 BYTE   N92  Gs2  v088
 BYTE   W96
//  #07 //006   ----------------------------------------
 BYTE   W03
 BYTE   N66  As2  v096
 BYTE   W68
 BYTE   W01
 BYTE   N21  As2  v088
 BYTE   W24
//  #07 //007   ----------------------------------------
 BYTE   N90  Gs2
 BYTE   W96
//  #07 //008   ----------------------------------------
 BYTE   N92  Cn3  v060
 BYTE   W03
 BYTE   N68  Gn3  v064
 BYTE   W68
 BYTE   W01
 BYTE   N11  Fn3
 BYTE   W12
 BYTE   Ds3
 BYTE   W12
//  #07 //009   ----------------------------------------
 BYTE   N92  As2
 BYTE   N92  Cs3
 BYTE   W96
//  #07 //010   ----------------------------------------
 BYTE   N68  Cn3
 BYTE   W03
 BYTE   N64  Gn3  v060
 BYTE   W68
 BYTE   W01
 BYTE   N20  Cn3  v064
 BYTE   N20  Gn3  v060
 BYTE   W24
//  #07 //011   ----------------------------------------
 BYTE   N88  Gs2
 BYTE   W03
 BYTE   N84  Fn3
 BYTE   W92
 BYTE   W01
//  #07 //012   ----------------------------------------
Label_01022C5A:
 BYTE   N09  Fn3  v068
 BYTE   W12
 BYTE   N21
 BYTE   W24
 BYTE   N21
 BYTE   W24
 BYTE   N21
 BYTE   W24
 BYTE   N09
 BYTE   W12
 BYTE   PEND 
//  #07 //013   ----------------------------------------
 BYTE   PATT
  POIN2 Label_01022C5A
//  #07 //014   ----------------------------------------
 BYTE   N09  Gn3  v068
 BYTE   W12
 BYTE   N21
 BYTE   W24
 BYTE   N21
 BYTE   W24
 BYTE   N21
 BYTE   W24
 BYTE   N09
 BYTE   W12
//  #07 //015   ----------------------------------------
 BYTE   N56  En3  v084
 BYTE   W60
 BYTE   N09  En3  v020
 BYTE   W12
 BYTE   N21  Cn3  v084
 BYTE   W24
//  #07 //016   ----------------------------------------
 BYTE   N68  Gs2  v088
 BYTE   W72
 BYTE   N21
 BYTE   W24
//  #07 //017   ----------------------------------------
 BYTE   N90  As2  v092
 BYTE   W96
//  #07 //018   ----------------------------------------
 BYTE   N68  As2  v084
 BYTE   W72
 BYTE   N21
 BYTE   W24
//  #07 //019   ----------------------------------------
 BYTE   N56  An2  v092
 BYTE   W48
 BYTE   VOICE   71
 BYTE   W03
 BYTE   VOL   56*FE07IntheShadowofTriumphAlice_mvl/mxv
 BYTE   W03
 BYTE   PAN   c_v+20
 BYTE   W06
 BYTE   N09  Fn3  v096
 BYTE   W12
 BYTE   An3
 BYTE   W12
 BYTE   Cn4
 BYTE   W11
 BYTE   VOL   56*FE07IntheShadowofTriumphAlice_mvl/mxv
 BYTE   W01
//  #07 //020   ----------------------------------------
 BYTE   VOICE   60
 BYTE   VOL   42*FE07IntheShadowofTriumphAlice_mvl/mxv
 BYTE   PAN   c_v-20
 BYTE   N09  As2  v088
 BYTE   N09  Fn3  v104
 BYTE   W12
 BYTE   As2  v064
 BYTE   N09  Fn3  v072
 BYTE   W12
 BYTE   As2  v068
 BYTE   N09  Fn3  v064
 BYTE   W12
 BYTE   As2  v060
 BYTE   N09  Fn3  v068
 BYTE   W12
 BYTE   As2  v092
 BYTE   N09  Fn3  v088
 BYTE   W12
 BYTE   As2  v068
 BYTE   N09  Fn3  v064
 BYTE   W12
 BYTE   Gs2  v092
 BYTE   N09  Ds3
 BYTE   W12
 BYTE   Gs2  v060
 BYTE   N09  Ds3  v056
 BYTE   W12
//  #07 //021   ----------------------------------------
 BYTE   Fs2  v096
 BYTE   N09  Cs3  v100
 BYTE   W12
 BYTE   Fs2  v060
 BYTE   N09  Cs3  v064
 BYTE   W12
 BYTE   Fs2  v060
 BYTE   N09  Cs3  v064
 BYTE   W12
 BYTE   Fs2  v060
 BYTE   N09  Cs3  v068
 BYTE   W12
 BYTE   Fs2  v088
 BYTE   N09  Cs3  v080
 BYTE   W12
 BYTE   Fs2  v072
 BYTE   N09  Cs3
 BYTE   W12
 BYTE   Fs2  v092
 BYTE   N09  Cs3  v088
 BYTE   W12
 BYTE   Fs2  v064
 BYTE   N09  Cs3  v068
 BYTE   W12
//  #07 //022   ----------------------------------------
 BYTE   Gn2  v100
 BYTE   N09  Dn3
 BYTE   W12
 BYTE   Gn2  v068
 BYTE   N09  Dn3  v064
 BYTE   W12
 BYTE   Gn2  v068
 BYTE   N09  Dn3  v072
 BYTE   W12
 BYTE   Gn2  v056
 BYTE   N09  Dn3
 BYTE   W12
 BYTE   Gn2  v080
 BYTE   N09  Dn3  v092
 BYTE   W12
 BYTE   Gn2  v072
 BYTE   N09  Dn3  v064
 BYTE   W12
 BYTE   Gn2  v088
 BYTE   N09  Dn3
 BYTE   W12
 BYTE   Gn2  v068
 BYTE   N09  Dn3
 BYTE   W12
//  #07 //023   ----------------------------------------
 BYTE   Gn2  v100
 BYTE   N09  Fn3  v088
 BYTE   W12
 BYTE   Gn2  v056
 BYTE   N09  Fn3  v068
 BYTE   W12
 BYTE   Gn2
 BYTE   N09  Fn3  v064
 BYTE   W12
 BYTE   Gn2
 BYTE   N09  Fn3
 BYTE   W12
 BYTE   Gn2  v084
 BYTE   N09  Fn3  v088
 BYTE   W12
 BYTE   Gn2  v064
 BYTE   N09  Fn3
 BYTE   W12
 BYTE   Gn2  v096
 BYTE   N09  Fn3  v092
 BYTE   W12
 BYTE   Gn2  v064
 BYTE   N09  Fn3  v068
 BYTE   W12
//  #07 //024   ----------------------------------------
 BYTE   Fs2  v096
 BYTE   N09  En3  v100
 BYTE   W12
 BYTE   Fs2  v056
 BYTE   N09  En3  v060
 BYTE   W12
 BYTE   Fs2  v068
 BYTE   N09  En3  v064
 BYTE   W12
 BYTE   Fs2  v068
 BYTE   N09  En3  v060
 BYTE   W12
 BYTE   Fs2  v088
 BYTE   N09  En3  v092
 BYTE   W12
 BYTE   Fs2  v072
 BYTE   N09  En3  v064
 BYTE   W12
 BYTE   N21  Cs3  v076
 BYTE   W24
//  #07 //025   ----------------------------------------
 BYTE   N92  Cn3  v080
 BYTE   W96
//  #07 //026   ----------------------------------------
 BYTE   N92
 BYTE   W96
//  #07 //027   ----------------------------------------
 BYTE   N90  As2  v088
 BYTE   W96
//  #07 //028   ----------------------------------------
 BYTE   As2  v080
 BYTE   W96
//  #07 //029   ----------------------------------------
 BYTE   Cn3
 BYTE   W96
//  #07 //030   ----------------------------------------
 BYTE   N21  Ds3  v072
 BYTE   W24
 BYTE   Cs3
 BYTE   W24
 BYTE   Cn3
 BYTE   W24
 BYTE   Gs2
 BYTE   W24
//  #07 //031   ----------------------------------------
 BYTE   N56  As2  v080
 BYTE   W60
 BYTE   N12  As2  v084
 BYTE   W12
 BYTE   Gn3  v092
 BYTE   W12
 BYTE   Fn3  v080
 BYTE   W12
//  #07 //032   ----------------------------------------
 BYTE   N44  Ds3  v084
 BYTE   W48
 BYTE   N24  Ds3  v092
 BYTE   W24
 BYTE   N18  Cn3
 BYTE   W24
//  #07 //033   ----------------------------------------
 BYTE   GoTo
  POIN2 Label_01022BFE
 BYTE   FINE

//******************************************************//
	ALIGN 4

FE07IntheShadowofTriumphAlice:
	BYTE	7	// NumTrks
	BYTE	0	// NumBlks
	BYTE	FE07IntheShadowofTriumphAlice_pri	// Priority
	BYTE	FE07IntheShadowofTriumphAlice_rev	// Reverb.
    
	POIN2	FE07IntheShadowofTriumphAlice_grp
    
	POIN2	FE07IntheShadowofTriumphAlice_001
	POIN2	FE07IntheShadowofTriumphAlice_002
	POIN2	FE07IntheShadowofTriumphAlice_003
	POIN2	FE07IntheShadowofTriumphAlice_004
	POIN2	FE07IntheShadowofTriumphAlice_005
	POIN2	FE07IntheShadowofTriumphAlice_006
	POIN2	FE07IntheShadowofTriumphAlice_007

	
