//Event file generated from Sappy .s format.
	#include "MPlayDef.event"

	#define	FE07InescapableFateAlice_grp  voicegroup000
	#define	FE07InescapableFateAlice_pri  10
	#define	FE07InescapableFateAlice_rev  128
	#define	FE07InescapableFateAlice_mvl  127
	#define	FE07InescapableFateAlice_key  0
	#define	FE07InescapableFateAlice_tbs  1
	#define	FE07InescapableFateAlice_exg  0
	#define	FE07InescapableFateAlice_cmp  1

	// .rodata
	//	FE07InescapableFateAlice
	ALIGN 4


//**************** Track 1 (Midi-Chn.0) ****************//

FE07InescapableFateAlice_001:
//  #01 //000   ----------------------------------------
 BYTE   KEYSH   FE07InescapableFateAlice_key+0
 BYTE   TEMPO   122*FE07InescapableFateAlice_tbs/2
 BYTE   W24
Label_01070281:
 BYTE   W96
//  #01 //001   ----------------------------------------
 BYTE   W96
//  #01 //002   ----------------------------------------
 BYTE   W96
//  #01 //003   ----------------------------------------
 BYTE   W96
//  #01 //004   ----------------------------------------
 BYTE   W96
//  #01 //005   ----------------------------------------
 BYTE   W96
//  #01 //006   ----------------------------------------
 BYTE   W96
//  #01 //007   ----------------------------------------
 BYTE   W72
 BYTE   VOICE   68
 BYTE   VOL   36*FE07InescapableFateAlice_mvl/mxv
 BYTE   PAN   c_v+4
 BYTE   W24
//  #01 //008   ----------------------------------------
 BYTE   N92  Dn3  v096
 BYTE   W96
//  #01 //009   ----------------------------------------
 BYTE   Cn3  v084
 BYTE   W96
//  #01 //010   ----------------------------------------
 BYTE   TIE  Bn2  v068
 BYTE   W96
//  #01 //011   ----------------------------------------
 BYTE   W88
 BYTE   W01
 BYTE   EOT
 BYTE   W07
//  #01 //012   ----------------------------------------
 BYTE   N44  Gs2  v072
 BYTE   W48
 BYTE   Bn2  v084
 BYTE   W48
//  #01 //013   ----------------------------------------
 BYTE   Dn3  v076
 BYTE   W48
 BYTE   En3  v104
 BYTE   W48
//  #01 //014   ----------------------------------------
 BYTE   Gs3  v100
 BYTE   W48
 BYTE   Bn3
 BYTE   W48
//  #01 //015   ----------------------------------------
 BYTE   N56  Dn4  v112
 BYTE   W60
 BYTE   N11  Cn4  v100
 BYTE   W12
 BYTE   N20  Bn3  v120
 BYTE   W24
//  #01 //016   ----------------------------------------
 BYTE   VOICE   127
 BYTE   VOL   31*FE07InescapableFateAlice_mvl/mxv
 BYTE   PAN   c_v+0
 BYTE   N28  An2  v112
 BYTE   W36
 BYTE   N03  Dn1  v116
 BYTE   W36
 BYTE   Dn1  v100
 BYTE   W12
 BYTE   N02  Dn1  v104
 BYTE   W12
//  #01 //017   ----------------------------------------
 BYTE   N03  Dn1  v127
 BYTE   W36
 BYTE   N04
 BYTE   W24
 BYTE   N03  Dn1  v100
 BYTE   W12
 BYTE   N04  Dn1  v127
 BYTE   W24
//  #01 //018   ----------------------------------------
 BYTE   N04
 BYTE   W36
 BYTE   N04
 BYTE   W36
 BYTE   N03  Dn1  v120
 BYTE   W12
 BYTE   Dn1  v116
 BYTE   W12
//  #01 //019   ----------------------------------------
 BYTE   Dn1  v127
 BYTE   W36
 BYTE   N04
 BYTE   W24
 BYTE   N01  Dn1  v100
 BYTE   W06
 BYTE   N02  Dn1  v104
 BYTE   W06
 BYTE   Dn1  v112
 BYTE   W12
 BYTE   Dn1  v127
 BYTE   W12
//  #01 //020   ----------------------------------------
 BYTE   N04
 BYTE   W36
 BYTE   N05
 BYTE   W36
 BYTE   N03
 BYTE   W12
 BYTE   N02  Dn1  v112
 BYTE   W12
//  #01 //021   ----------------------------------------
 BYTE   N04  Dn1  v127
 BYTE   W36
 BYTE   N04
 BYTE   W24
 BYTE   N02
 BYTE   W12
 BYTE   N04
 BYTE   W24
//  #01 //022   ----------------------------------------
 BYTE   N04
 BYTE   W36
 BYTE   N04
 BYTE   W36
 BYTE   N03  Dn1  v124
 BYTE   W12
 BYTE   N02  Dn1  v112
 BYTE   W12
//  #01 //023   ----------------------------------------
 BYTE   N03  Dn1  v127
 BYTE   W36
 BYTE   N03
 BYTE   W36
 BYTE   N02  Dn1  v124
 BYTE   W06
 BYTE   Dn1  v108
 BYTE   W06
 BYTE   Dn1  v116
 BYTE   W06
 BYTE   N05  Ds1  v076
 BYTE   W06
//  #01 //024   ----------------------------------------
 BYTE   VOICE   61
 BYTE   VOL   36*FE07InescapableFateAlice_mvl/mxv
 BYTE   PAN   c_v+4
 BYTE   N44  Fn4  v092
 BYTE   W48
 BYTE   N11  Dn4  v104
 BYTE   W12
 BYTE   En4  v088
 BYTE   W12
 BYTE   Fn4
 BYTE   W12
 BYTE   An4  v084
 BYTE   W12
//  #01 //025   ----------------------------------------
 BYTE   N23  Gs4
 BYTE   W24
 BYTE   En4  v092
 BYTE   W24
 BYTE   Bn4  v088
 BYTE   W24
 BYTE   Gs4  v080
 BYTE   W24
//  #01 //026   ----------------------------------------
 BYTE   N44  Fn4  v092
 BYTE   W48
 BYTE   N11  Dn4
 BYTE   W12
 BYTE   En4  v088
 BYTE   W12
 BYTE   Fn4
 BYTE   W12
 BYTE   An4  v092
 BYTE   W12
//  #01 //027   ----------------------------------------
 BYTE   N23  Gs4  v080
 BYTE   W24
 BYTE   En4  v096
 BYTE   W24
 BYTE   Gs4  v080
 BYTE   W24
 BYTE   Bn4  v096
 BYTE   W24
//  #01 //028   ----------------------------------------
 BYTE   N44  Fn4
 BYTE   W48
 BYTE   N11  Dn4  v092
 BYTE   W12
 BYTE   En4  v088
 BYTE   W12
 BYTE   Fn4  v092
 BYTE   W12
 BYTE   An4  v084
 BYTE   W12
//  #01 //029   ----------------------------------------
 BYTE   N23  Gs4  v080
 BYTE   W24
 BYTE   En4  v092
 BYTE   W24
 BYTE   Bn4  v088
 BYTE   W24
 BYTE   Gs4  v080
 BYTE   W24
//  #01 //030   ----------------------------------------
 BYTE   N44  Fn4  v100
 BYTE   W48
 BYTE   N11  Dn4  v096
 BYTE   W12
 BYTE   En4  v088
 BYTE   W12
 BYTE   Fn4  v092
 BYTE   W12
 BYTE   An4  v084
 BYTE   W12
//  #01 //031   ----------------------------------------
 BYTE   N23  Gs4
 BYTE   W24
 BYTE   Bn4  v096
 BYTE   W24
 BYTE   N42  En5  v076
 BYTE   W48
//  #01 //032   ----------------------------------------
 BYTE   GoTo
  POIN2 Label_01070281
 BYTE   FINE

//**************** Track 2 (Midi-Chn.1) ****************//

FE07InescapableFateAlice_002:
//  #02 //000   ----------------------------------------
 BYTE   KEYSH   FE07InescapableFateAlice_key+0
 BYTE   VOICE   34
 BYTE   VOL   67*FE07InescapableFateAlice_mvl/mxv
 BYTE   PAN   c_v+0
 BYTE   W24
Label_0107044D:
 BYTE   N17  An2  v116
 BYTE   W24
 BYTE   N03  An2  v072
 BYTE   W12
 BYTE   N17  An2  v116
 BYTE   W24
 BYTE   N03  An2  v072
 BYTE   W12
//  #02 //001   ----------------------------------------
 BYTE   N10  An2  v104
 BYTE   W12
 BYTE   An3  v092
 BYTE   W12
 BYTE   N19  An2  v108
 BYTE   W24
 BYTE   N03  An2  v100
 BYTE   W12
 BYTE   N16  An2  v108
 BYTE   W24
 BYTE   N04
 BYTE   W12
//  #02 //002   ----------------------------------------
 BYTE   N11
 BYTE   W12
 BYTE   N10  An3  v100
 BYTE   W12
 BYTE   N15  An2  v108
 BYTE   W24
 BYTE   N04  An2  v096
 BYTE   W12
 BYTE   N15  An2  v112
 BYTE   W24
 BYTE   N03  An2  v108
 BYTE   W12
//  #02 //003   ----------------------------------------
 BYTE   N11  An2  v100
 BYTE   W12
 BYTE   An3  v092
 BYTE   W12
 BYTE   N04  An2  v096
 BYTE   W12
 BYTE   N14  An2  v108
 BYTE   W24
 BYTE   N19  An2  v104
 BYTE   W24
 BYTE   N03  An2  v108
 BYTE   W12
//  #02 //004   ----------------------------------------
 BYTE   N09  An2  v104
 BYTE   W12
 BYTE   N10  An3
 BYTE   W12
 BYTE   N15  An2  v116
 BYTE   W24
 BYTE   N03  An2  v100
 BYTE   W12
 BYTE   N14  An2  v116
 BYTE   W24
 BYTE   N15  An2  v112
 BYTE   W24
//  #02 //005   ----------------------------------------
 BYTE   N09  An3  v100
 BYTE   W12
 BYTE   N04  An2  v120
 BYTE   W12
 BYTE   N15  An2  v080
 BYTE   W24
 BYTE   An2  v108
 BYTE   W24
 BYTE   N23  An2  v100
 BYTE   W24
//  #02 //006   ----------------------------------------
 BYTE   N11  An3  v092
 BYTE   W12
 BYTE   N14  An2  v112
 BYTE   W24
 BYTE   N04
 BYTE   W12
 BYTE   N13  An2  v108
 BYTE   W24
 BYTE   N23  An2  v112
 BYTE   W24
//  #02 //007   ----------------------------------------
 BYTE   N12  An3  v100
 BYTE   W12
 BYTE   W12
 BYTE   N04  An2  v088
 BYTE   W12
 BYTE   N10  An2  v108
 BYTE   W12
 BYTE   N22  An3  v100
 BYTE   W24
 BYTE   N04  An2  v108
 BYTE   W12
 BYTE   N11
 BYTE   W12
//  #02 //008   ----------------------------------------
 BYTE   N06  An3  v084
 BYTE   W12
 BYTE   N24  Dn2  v108
 BYTE   W36
 BYTE   N42  Dn2  v112
 BYTE   W48
//  #02 //009   ----------------------------------------
 BYTE   N05  Dn2  v108
 BYTE   W12
 BYTE   N24  En2
 BYTE   W36
 BYTE   N40
 BYTE   W48
//  #02 //010   ----------------------------------------
 BYTE   N05  En2  v104
 BYTE   W12
 BYTE   N24  Ds2
 BYTE   W36
 BYTE   N23  Ds2  v120
 BYTE   W24
 BYTE   N11  Bn1  v104
 BYTE   W12
 BYTE   Ds2  v120
 BYTE   W12
//  #02 //011   ----------------------------------------
 BYTE   N09  Ds2  v104
 BYTE   W12
 BYTE   N28  Dn2
 BYTE   W36
 BYTE   N19  Dn2  v108
 BYTE   W24
 BYTE   N05  Dn2  v100
 BYTE   W12
 BYTE   N21  Dn2  v108
 BYTE   W24
//  #02 //012   ----------------------------------------
 BYTE   N24  En2
 BYTE   W36
 BYTE   N16  En2  v096
 BYTE   W24
 BYTE   N04  Bn1  v100
 BYTE   W12
 BYTE   N20  En2  v084
 BYTE   W24
//  #02 //013   ----------------------------------------
 BYTE   N15  En2  v064
 BYTE   W36
 BYTE   N18  En2  v100
 BYTE   W24
 BYTE   N04  En2  v104
 BYTE   W12
 BYTE   N21  En2  v096
 BYTE   W24
//  #02 //014   ----------------------------------------
 BYTE   N28  Bn1  v112
 BYTE   W36
 BYTE   N16  Bn1  v092
 BYTE   W24
 BYTE   N04  Bn1  v100
 BYTE   W12
 BYTE   N06  Bn1  v116
 BYTE   W12
 BYTE   N10  Bn1  v080
 BYTE   W12
//  #02 //015   ----------------------------------------
 BYTE   N28  En2  v096
 BYTE   W36
 BYTE   En2  v108
 BYTE   W36
 BYTE   N10  En2  v116
 BYTE   W12
 BYTE   N04  An1  v076
 BYTE   N04  Bn1  v080
 BYTE   W12
//  #02 //016   ----------------------------------------
 BYTE   N17  An1  v124
 BYTE   W24
 BYTE   N03  An1  v092
 BYTE   W12
 BYTE   N15  An1  v116
 BYTE   W24
 BYTE   N03  An1  v100
 BYTE   W12
 BYTE   N11  An1  v120
 BYTE   W12
 BYTE   N02  An2  v064
 BYTE   W12
//  #02 //017   ----------------------------------------
 BYTE   N18  An1  v116
 BYTE   W24
 BYTE   N03  An1  v120
 BYTE   W12
 BYTE   N16
 BYTE   W24
 BYTE   N03
 BYTE   W12
 BYTE   N14  An1  v124
 BYTE   W24
//  #02 //018   ----------------------------------------
 BYTE   An1  v116
 BYTE   W24
 BYTE   N03
 BYTE   W12
 BYTE   N15  An1  v124
 BYTE   W24
 BYTE   N03  An1  v116
 BYTE   W12
 BYTE   N15  An1  v127
 BYTE   W24
//  #02 //019   ----------------------------------------
 BYTE   N04  An1  v124
 BYTE   W12
 BYTE   N16  An1  v116
 BYTE   W24
 BYTE   N04  An1  v120
 BYTE   W12
 BYTE   N17  An1  v124
 BYTE   W24
 BYTE   N03  An1  v112
 BYTE   W12
 BYTE   N04  An1  v127
 BYTE   W12
//  #02 //020   ----------------------------------------
 BYTE   N16  An1  v124
 BYTE   W24
 BYTE   N04  An1  v116
 BYTE   W12
 BYTE   N16  An1  v124
 BYTE   W24
 BYTE   N04  An1  v116
 BYTE   W12
 BYTE   N18  An1  v120
 BYTE   W24
//  #02 //021   ----------------------------------------
 BYTE   N04  An1  v116
 BYTE   W12
 BYTE   N17  An1  v124
 BYTE   W24
 BYTE   N04  An1  v108
 BYTE   W12
 BYTE   N16  An1  v124
 BYTE   W24
 BYTE   N04  An1  v100
 BYTE   W12
 BYTE   N16  An1  v127
 BYTE   W12
//  #02 //022   ----------------------------------------
 BYTE   W12
 BYTE   N04  An1  v112
 BYTE   W12
 BYTE   N19  An1  v120
 BYTE   W24
 BYTE   N04  An1  v116
 BYTE   W12
 BYTE   N17  An1  v124
 BYTE   W24
 BYTE   N03  An1  v112
 BYTE   W12
//  #02 //023   ----------------------------------------
 BYTE   N18  An1  v120
 BYTE   W24
 BYTE   N03  An1  v100
 BYTE   W12
 BYTE   N15  An1  v124
 BYTE   W24
 BYTE   N03  An1  v112
 BYTE   W12
 BYTE   N19  An1  v127
 BYTE   W24
//  #02 //024   ----------------------------------------
 BYTE   N17  Dn2  v108
 BYTE   W24
 BYTE   N03  Dn2  v100
 BYTE   W12
 BYTE   N17  Dn2  v116
 BYTE   W24
 BYTE   N03  Dn2  v112
 BYTE   W12
 BYTE   N17  Dn2  v116
 BYTE   W24
//  #02 //025   ----------------------------------------
 BYTE   Dn2  v112
 BYTE   W24
 BYTE   N05
 BYTE   W12
 BYTE   N17  Dn2  v120
 BYTE   W24
 BYTE   N04  Dn2  v116
 BYTE   W12
 BYTE   N19  Dn2  v120
 BYTE   W24
//  #02 //026   ----------------------------------------
 BYTE   N18
 BYTE   W24
 BYTE   N04  Dn2  v112
 BYTE   W12
 BYTE   N18  Dn2  v116
 BYTE   W24
 BYTE   N04
 BYTE   W12
 BYTE   N20  Dn2  v120
 BYTE   W24
//  #02 //027   ----------------------------------------
 BYTE   N04  Dn2  v116
 BYTE   W12
 BYTE   N17
 BYTE   W24
 BYTE   N04  Dn2  v124
 BYTE   W12
 BYTE   N19  Dn2  v116
 BYTE   W24
 BYTE   N05  Dn2  v108
 BYTE   W12
 BYTE   N18  Dn2  v120
 BYTE   W12
//  #02 //028   ----------------------------------------
 BYTE   W12
 BYTE   N04  Dn2  v112
 BYTE   W12
 BYTE   N19  Dn2  v120
 BYTE   W24
 BYTE   N05  Dn2  v116
 BYTE   W12
 BYTE   N18  Dn2  v120
 BYTE   W24
 BYTE   N04  Dn2  v112
 BYTE   W12
//  #02 //029   ----------------------------------------
 BYTE   N19  Dn2  v124
 BYTE   W24
 BYTE   N04  Dn2  v108
 BYTE   W12
 BYTE   N18  Dn2  v127
 BYTE   W24
 BYTE   N04  Dn2  v104
 BYTE   W12
 BYTE   N21  Dn2  v127
 BYTE   W24
//  #02 //030   ----------------------------------------
 BYTE   N05  Dn2  v104
 BYTE   W12
 BYTE   N17  Dn2  v124
 BYTE   W24
 BYTE   N04  Dn2  v100
 BYTE   W12
 BYTE   N18  Dn2  v116
 BYTE   W24
 BYTE   N02  Dn2  v064
 BYTE   W12
 BYTE   N18  Dn2  v124
 BYTE   W12
//  #02 //031   ----------------------------------------
 BYTE   W12
 BYTE   N03  Dn2  v108
 BYTE   W12
 BYTE   N24  Dn2  v124
 BYTE   W36
 BYTE   N06  Dn2  v120
 BYTE   W12
 BYTE   N11  Dn3  v124
 BYTE   W12
 BYTE   N09  An2  v100
 BYTE   W12
//  #02 //032   ----------------------------------------
 BYTE   GoTo
  POIN2 Label_0107044D
 BYTE   FINE

//**************** Track 3 (Midi-Chn.2) ****************//

FE07InescapableFateAlice_003:
//  #03 //000   ----------------------------------------
 BYTE   KEYSH   FE07InescapableFateAlice_key+0
 BYTE   VOICE   47
 BYTE   VOL   60*FE07InescapableFateAlice_mvl/mxv
 BYTE   PAN   c_v+0
 BYTE   N05  An2  v112
 BYTE   W06
 BYTE   An2  v092
 BYTE   W06
 BYTE   N11  En2
 BYTE   W12
Label_01057136:
 BYTE   N23  An2  v112
 BYTE   W24
 BYTE   N30  An2  v104
 BYTE   W36
 BYTE   N23  An2  v100
 BYTE   W24
//  #03 //001   ----------------------------------------
 BYTE   N11  En2  v088
 BYTE   W12
 BYTE   PEND 
Label_01057147:
 BYTE   N23  An2  v116
 BYTE   W24
 BYTE   N32  An2  v100
 BYTE   W36
 BYTE   N23  An2  v104
 BYTE   W24
//  #03 //002   ----------------------------------------
 BYTE   N11  En2  v096
 BYTE   W12
 BYTE   PEND 
Label_01057158:
 BYTE   N23  An2  v120
 BYTE   W24
 BYTE   N28  An2  v104
 BYTE   W36
 BYTE   N23  An2  v108
 BYTE   W24
//  #03 //003   ----------------------------------------
 BYTE   N11  En2  v092
 BYTE   W12
 BYTE   PEND 
Label_01057169:
 BYTE   N11  An2  v112
 BYTE   W12
 BYTE   En2  v100
 BYTE   W12
 BYTE   N30  An2  v112
 BYTE   W36
 BYTE   N17
 BYTE   W24
//  #03 //004   ----------------------------------------
 BYTE   N11  En2  v092
 BYTE   W12
 BYTE   PEND 
//  #03 //005   ----------------------------------------
 BYTE   PATT
  POIN2 Label_01057136
//  #03 //006   ----------------------------------------
 BYTE   PATT
  POIN2 Label_01057147
//  #03 //007   ----------------------------------------
 BYTE   PATT
  POIN2 Label_01057158
//  #03 //008   ----------------------------------------
 BYTE   PATT
  POIN2 Label_01057169
//  #03 //009   ----------------------------------------
 BYTE   PATT
  POIN2 Label_01057136
//  #03 //010   ----------------------------------------
 BYTE   PATT
  POIN2 Label_01057147
//  #03 //011   ----------------------------------------
 BYTE   PATT
  POIN2 Label_01057158
//  #03 //012   ----------------------------------------
 BYTE   PATT
  POIN2 Label_01057169
//  #03 //013   ----------------------------------------
 BYTE   PATT
  POIN2 Label_01057136
//  #03 //014   ----------------------------------------
 BYTE   PATT
  POIN2 Label_01057147
//  #03 //015   ----------------------------------------
 BYTE   PATT
  POIN2 Label_01057158
//  #03 //016   ----------------------------------------
 BYTE   PATT
  POIN2 Label_01057169
//  #03 //017   ----------------------------------------
 BYTE   PATT
  POIN2 Label_01057136
//  #03 //018   ----------------------------------------
 BYTE   PATT
  POIN2 Label_01057147
//  #03 //019   ----------------------------------------
 BYTE   PATT
  POIN2 Label_01057158
//  #03 //020   ----------------------------------------
 BYTE   PATT
  POIN2 Label_01057169
//  #03 //021   ----------------------------------------
 BYTE   PATT
  POIN2 Label_01057136
//  #03 //022   ----------------------------------------
 BYTE   PATT
  POIN2 Label_01057147
//  #03 //023   ----------------------------------------
 BYTE   PATT
  POIN2 Label_01057158
//  #03 //024   ----------------------------------------
 BYTE   PATT
  POIN2 Label_01057169
//  #03 //025   ----------------------------------------
 BYTE   PATT
  POIN2 Label_01057136
//  #03 //026   ----------------------------------------
 BYTE   PATT
  POIN2 Label_01057147
//  #03 //027   ----------------------------------------
 BYTE   PATT
  POIN2 Label_01057158
//  #03 //028   ----------------------------------------
 BYTE   PATT
  POIN2 Label_01057169
//  #03 //029   ----------------------------------------
 BYTE   PATT
  POIN2 Label_01057136
//  #03 //030   ----------------------------------------
 BYTE   PATT
  POIN2 Label_01057147
//  #03 //031   ----------------------------------------
 BYTE   PATT
  POIN2 Label_01057158
//  #03 //032   ----------------------------------------
 BYTE   PATT
  POIN2 Label_01057169
//  #03 //033   ----------------------------------------
 BYTE   GoTo
  POIN2 Label_01057136
 BYTE   FINE

//**************** Track 4 (Midi-Chn.3) ****************//

FE07InescapableFateAlice_004:
//  #04 //000   ----------------------------------------
 BYTE   KEYSH   FE07InescapableFateAlice_key+0
 BYTE   VOICE   40
 BYTE   MOD 0
 BYTE   VOL   73*FE07InescapableFateAlice_mvl/mxv
 BYTE   PAN   c_v+0
 BYTE   W24
Label_0105721B:
 BYTE   TIE  En2  v088
 BYTE   N92  An2  v092
 BYTE   W96
//  #04 //001   ----------------------------------------
 BYTE   N80  Cn3  v084
 BYTE   W76
 BYTE   W01
 BYTE   EOT
 BYTE   En2
 BYTE   W07
 BYTE   N11  En3  v080
 BYTE   W12
//  #04 //002   ----------------------------------------
 BYTE   TIE  Bn2  v092
 BYTE   TIE  Ds3  v080
 BYTE   W96
//  #04 //003   ----------------------------------------
 BYTE   W72
 BYTE   W01
 BYTE   EOT
 BYTE   Bn2
 BYTE   W02
 BYTE   Ds3
 BYTE   W21
//  #04 //004   ----------------------------------------
 BYTE   TIE  En2
 BYTE   N92  An2  v092
 BYTE   W96
//  #04 //005   ----------------------------------------
 BYTE   N44  Cn3  v096
 BYTE   W44
 BYTE   W03
 BYTE   EOT
 BYTE   En2
 BYTE   W01
 BYTE   N44  En3  v100
 BYTE   W48
//  #04 //006   ----------------------------------------
 BYTE   TIE  Dn3
 BYTE   N92  Fs3  v072
 BYTE   W96
//  #04 //007   ----------------------------------------
 BYTE   N68  An2  v076
 BYTE   W68
 BYTE   W03
 BYTE   EOT
 BYTE   Dn3
 BYTE   W01
 BYTE   N11  Cn3  v100
 BYTE   W12
 BYTE   Bn2
 BYTE   W12
//  #04 //008   ----------------------------------------
 BYTE   N90  An2
 BYTE   W96
//  #04 //009   ----------------------------------------
 BYTE   W96
//  #04 //010   ----------------------------------------
 BYTE   W96
//  #04 //011   ----------------------------------------
 BYTE   W96
//  #04 //012   ----------------------------------------
 BYTE   VOICE   48
 BYTE   W12
 BYTE   N05  En3  v088
 BYTE   W06
 BYTE   Fs3  v072
 BYTE   W06
 BYTE   N06  Gs3  v096
 BYTE   W12
 BYTE   N05  En3  v088
 BYTE   W06
 BYTE   Fs3  v072
 BYTE   W06
 BYTE   N06  Gs3  v096
 BYTE   W12
 BYTE   N05  Gs3  v088
 BYTE   W06
 BYTE   An3  v072
 BYTE   W06
 BYTE   N06  Bn3  v096
 BYTE   W12
 BYTE   N05  Gs3  v088
 BYTE   W06
 BYTE   An3  v072
 BYTE   W06
//  #04 //013   ----------------------------------------
 BYTE   N06  Bn3  v096
 BYTE   W12
 BYTE   N05  Bn3  v088
 BYTE   W06
 BYTE   Cn4  v072
 BYTE   W06
 BYTE   N06  Dn4  v096
 BYTE   W12
 BYTE   N05  Bn3  v088
 BYTE   W06
 BYTE   Cn4  v072
 BYTE   W06
 BYTE   N06  Dn4  v096
 BYTE   W12
 BYTE   N05  Bn3  v088
 BYTE   W06
 BYTE   Cn4  v072
 BYTE   W06
 BYTE   N06  Dn4  v096
 BYTE   W12
 BYTE   N05  Dn4  v088
 BYTE   W06
 BYTE   En4  v072
 BYTE   W06
//  #04 //014   ----------------------------------------
 BYTE   N06  Fn4  v096
 BYTE   W12
 BYTE   N05  Dn4  v088
 BYTE   W06
 BYTE   En4  v072
 BYTE   W06
 BYTE   N06  Fn4  v096
 BYTE   W12
 BYTE   N05  Dn4  v088
 BYTE   W06
 BYTE   En4  v072
 BYTE   W06
 BYTE   N06  Fn4  v096
 BYTE   W12
 BYTE   N05  Dn4  v088
 BYTE   W06
 BYTE   En4  v072
 BYTE   W06
 BYTE   N06  Fn4  v096
 BYTE   W12
 BYTE   N05  En4  v088
 BYTE   W06
 BYTE   Fn4  v072
 BYTE   W06
//  #04 //015   ----------------------------------------
 BYTE   N06  Gn4  v096
 BYTE   W12
 BYTE   N05  En4  v088
 BYTE   W06
 BYTE   Fn4  v072
 BYTE   W06
 BYTE   N06  Gn4  v096
 BYTE   W12
 BYTE   N05  En4  v088
 BYTE   W06
 BYTE   Fn4  v072
 BYTE   W06
 BYTE   N06  Gn4  v096
 BYTE   W12
 BYTE   N05  En4  v088
 BYTE   W06
 BYTE   Fn4  v072
 BYTE   W06
 BYTE   Gn4  v096
 BYTE   W06
 BYTE   En4
 BYTE   W06
 BYTE   Fn4  v080
 BYTE   W06
 BYTE   N06  Gn4  v108
 BYTE   W06
//  #04 //016   ----------------------------------------
 BYTE   MOD 2
 BYTE   TIE  An4  v064
 BYTE   W96
//  #04 //017   ----------------------------------------
 BYTE   W96
//  #04 //018   ----------------------------------------
 BYTE   W96
//  #04 //019   ----------------------------------------
 BYTE   W96
//  #04 //020   ----------------------------------------
 BYTE   W96
//  #04 //021   ----------------------------------------
 BYTE   W96
//  #04 //022   ----------------------------------------
 BYTE   W96
//  #04 //023   ----------------------------------------
 BYTE   W90
 BYTE   W01
 BYTE   EOT
 BYTE   W05
//  #04 //024   ----------------------------------------
 BYTE   W96
//  #04 //025   ----------------------------------------
 BYTE   W96
//  #04 //026   ----------------------------------------
 BYTE   W96
//  #04 //027   ----------------------------------------
 BYTE   W96
//  #04 //028   ----------------------------------------
 BYTE   W96
//  #04 //029   ----------------------------------------
 BYTE   W96
//  #04 //030   ----------------------------------------
 BYTE   W96
//  #04 //031   ----------------------------------------
 BYTE   W96
//  #04 //032   ----------------------------------------
 BYTE   GoTo
  POIN2 Label_0105721B
 BYTE   FINE

//**************** Track 5 (Midi-Chn.4) ****************//

FE07InescapableFateAlice_005:
//  #05 //000   ----------------------------------------
 BYTE   KEYSH   FE07InescapableFateAlice_key+0
 BYTE   W24
Label_0106FF23:
 BYTE   W96
//  #05 //001   ----------------------------------------
 BYTE   W96
//  #05 //002   ----------------------------------------
 BYTE   W96
//  #05 //003   ----------------------------------------
 BYTE   W96
//  #05 //004   ----------------------------------------
 BYTE   W96
//  #05 //005   ----------------------------------------
 BYTE   W96
//  #05 //006   ----------------------------------------
 BYTE   W72
 BYTE   VOICE   76
 BYTE   VOL   69*FE07InescapableFateAlice_mvl/mxv
 BYTE   PAN   c_v-1
 BYTE   W24
//  #05 //007   ----------------------------------------
 BYTE   W78
 BYTE   N05  An3  v076
 BYTE   W06
 BYTE   Bn3
 BYTE   W06
 BYTE   Cn4  v072
 BYTE   W06
//  #05 //008   ----------------------------------------
 BYTE   N68  Dn4  v096
 BYTE   W72
 BYTE   N23  An3  v076
 BYTE   W24
//  #05 //009   ----------------------------------------
 BYTE   N92  Cn4  v080
 BYTE   W96
//  #05 //010   ----------------------------------------
 BYTE   N80  Bn3  v088
 BYTE   W84
 BYTE   N11  Cn4  v092
 BYTE   W12
//  #05 //011   ----------------------------------------
 BYTE   N68  Bn3  v084
 BYTE   W72
 BYTE   N23  An3  v088
 BYTE   W24
//  #05 //012   ----------------------------------------
 BYTE   TIE  Gs3  v084
 BYTE   W96
//  #05 //013   ----------------------------------------
 BYTE   W03
 BYTE   EOT
 BYTE   W92
 BYTE   W01
//  #05 //014   ----------------------------------------
 BYTE   W96
//  #05 //015   ----------------------------------------
 BYTE   W96
//  #05 //016   ----------------------------------------
 BYTE   VOICE   41
 BYTE   N56  An3  v092
 BYTE   W60
 BYTE   N11  Bn3  v088
 BYTE   W12
 BYTE   Cn4  v100
 BYTE   W12
 BYTE   En4
 BYTE   W12
//  #05 //017   ----------------------------------------
 BYTE   N23  Ds4  v080
 BYTE   W24
 BYTE   Bn3  v088
 BYTE   W24
 BYTE   Fs4  v092
 BYTE   W24
 BYTE   Ds4  v080
 BYTE   W24
//  #05 //018   ----------------------------------------
 BYTE   N56  An3  v100
 BYTE   W60
 BYTE   N11  Bn3  v092
 BYTE   W12
 BYTE   Cn4  v096
 BYTE   W12
 BYTE   En4  v092
 BYTE   W12
//  #05 //019   ----------------------------------------
 BYTE   N23  Ds4  v080
 BYTE   W24
 BYTE   Bn3  v100
 BYTE   W24
 BYTE   N22  Fs4
 BYTE   W24
 BYTE   N23  Ds4  v080
 BYTE   W24
//  #05 //020   ----------------------------------------
 BYTE   N32  Cn4  v100
 BYTE   W48
 BYTE   N11  An3  v080
 BYTE   W12
 BYTE   Bn3  v100
 BYTE   W12
 BYTE   Cn4
 BYTE   W12
 BYTE   En4  v096
 BYTE   W12
//  #05 //021   ----------------------------------------
 BYTE   N23  Ds4  v088
 BYTE   W24
 BYTE   Bn3  v096
 BYTE   W24
 BYTE   Fs4
 BYTE   W24
 BYTE   Ds4  v080
 BYTE   W24
//  #05 //022   ----------------------------------------
 BYTE   N44  Cn4  v096
 BYTE   W48
 BYTE   N11  An3  v084
 BYTE   W12
 BYTE   Bn3  v092
 BYTE   W12
 BYTE   N10  Cn4  v096
 BYTE   W12
 BYTE   N11  En4  v100
 BYTE   W12
//  #05 //023   ----------------------------------------
 BYTE   N23  Fs4  v088
 BYTE   W24
 BYTE   Ds4  v080
 BYTE   W24
 BYTE   Bn4
 BYTE   W24
 BYTE   Fs4  v084
 BYTE   W24
//  #05 //024   ----------------------------------------
 BYTE   VOICE   127
 BYTE   VOL   61*FE07InescapableFateAlice_mvl/mxv
 BYTE   PAN   c_v+0
 BYTE   N23  An2  v124
 BYTE   W72
 BYTE   N44  Ds1  v100
 BYTE   W24
//  #05 //025   ----------------------------------------
 BYTE   W24
 BYTE   N28  An2  v120
 BYTE   W36
 BYTE   N03  Dn1  v116
 BYTE   W36
//  #05 //026   ----------------------------------------
 BYTE   Dn1  v100
 BYTE   W12
 BYTE   N02  Dn1  v104
 BYTE   W12
 BYTE   N03  Dn1  v127
 BYTE   W36
 BYTE   N04
 BYTE   W24
 BYTE   N03  Dn1  v100
 BYTE   W12
//  #05 //027   ----------------------------------------
Label_0106FFFC:
 BYTE   N04  Dn1  v127
 BYTE   W24
 BYTE   N04
 BYTE   W36
 BYTE   N04
 BYTE   W36
 BYTE   PEND 
//  #05 //028   ----------------------------------------
 BYTE   N03  Dn1  v120
 BYTE   W12
 BYTE   Dn1  v116
 BYTE   W12
 BYTE   Dn1  v127
 BYTE   W36
 BYTE   N04
 BYTE   W24
 BYTE   N01  Dn1  v100
 BYTE   W06
 BYTE   N02  Dn1  v104
 BYTE   W06
//  #05 //029   ----------------------------------------
 BYTE   Dn1  v112
 BYTE   W12
 BYTE   Dn1  v127
 BYTE   W12
 BYTE   N04
 BYTE   W36
 BYTE   N05
 BYTE   W36
//  #05 //030   ----------------------------------------
 BYTE   N03
 BYTE   W12
 BYTE   N02  Dn1  v112
 BYTE   W12
 BYTE   N04  Dn1  v127
 BYTE   W36
 BYTE   N04
 BYTE   W24
 BYTE   N02
 BYTE   W12
//  #05 //031   ----------------------------------------
 BYTE   PATT
  POIN2 Label_0106FFFC
//  #05 //032   ----------------------------------------
 BYTE   GoTo
  POIN2 Label_0106FF23
 BYTE   FINE

//**************** Track 6 (Midi-Chn.5) ****************//

FE07InescapableFateAlice_006:
//  #06 //000   ----------------------------------------
 BYTE   KEYSH   FE07InescapableFateAlice_key+0
 BYTE   W24
Label_0107003F:
 BYTE   W96
//  #06 //001   ----------------------------------------
 BYTE   W72
 BYTE   VOICE   76
 BYTE   MOD 0
 BYTE   VOL   44*FE07InescapableFateAlice_mvl/mxv
 BYTE   PAN   c_v+6
 BYTE   W24
//  #06 //002   ----------------------------------------
 BYTE   W72
 BYTE   N04  Bn4  v104
 BYTE   W06
 BYTE   N05  Cn5  v084
 BYTE   W06
 BYTE   Bn4  v092
 BYTE   W06
 BYTE   An4  v088
 BYTE   W06
//  #06 //003   ----------------------------------------
 BYTE   N08  Gn4
 BYTE   W24
 BYTE   N04  Gn4  v100
 BYTE   W06
 BYTE   N05  An4  v084
 BYTE   W06
 BYTE   Gn4  v092
 BYTE   W06
 BYTE   Fs4  v072
 BYTE   W06
 BYTE   N09  En4  v092
 BYTE   W24
 BYTE   N04  En4  v104
 BYTE   W06
 BYTE   N05  Fs4  v084
 BYTE   W06
 BYTE   En4  v092
 BYTE   W06
 BYTE   N06  Ds4  v088
 BYTE   W06
//  #06 //004   ----------------------------------------
 BYTE   W96
//  #06 //005   ----------------------------------------
 BYTE   W96
//  #06 //006   ----------------------------------------
 BYTE   W68
 BYTE   W03
 BYTE   N05  Bn4  v096
 BYTE   W05
 BYTE   Cn5  v072
 BYTE   W06
 BYTE   N04  Bn4  v080
 BYTE   W04
 BYTE   N07  An4  v076
 BYTE   W08
 BYTE   N12  Dn5  v100
 BYTE   W02
//  #06 //007   ----------------------------------------
 BYTE   W10
 BYTE   N54  An4  v088
 BYTE   W84
 BYTE   W02
//  #06 //008   ----------------------------------------
 BYTE   VOICE   48
 BYTE   VOL   42*FE07InescapableFateAlice_mvl/mxv
 BYTE   PAN   c_v+0
 BYTE   N64  An2  v092
 BYTE   N72  Dn3  v108
 BYTE   W72
 BYTE   N23  An2
 BYTE   W24
//  #06 //009   ----------------------------------------
 BYTE   N92  An2  v092
 BYTE   N84  Cn3  v108
 BYTE   W96
//  #06 //010   ----------------------------------------
 BYTE   N80  Fs2  v092
 BYTE   N80  Bn2  v108
 BYTE   W84
 BYTE   N11  Cn3
 BYTE   W12
//  #06 //011   ----------------------------------------
 BYTE   N64  Fn2  v092
 BYTE   N68  Bn2  v108
 BYTE   W72
 BYTE   N20  Fn2  v092
 BYTE   N19  An2  v108
 BYTE   W24
//  #06 //012   ----------------------------------------
 BYTE   N68  En2  v092
 BYTE   N68  Gs2  v108
 BYTE   W72
 BYTE   N05  Gs2  v028
 BYTE   W12
 BYTE   N12  En2  v092
 BYTE   N11  Gs2  v108
 BYTE   W12
//  #06 //013   ----------------------------------------
 BYTE   N78  Fn2  v092
 BYTE   N78  An2  v108
 BYTE   W84
 BYTE   N07  Fn2  v092
 BYTE   N07  An2  v108
 BYTE   W12
//  #06 //014   ----------------------------------------
 BYTE   N76  En2  v092
 BYTE   N80  Bn2  v108
 BYTE   W84
 BYTE   N08  En2  v092
 BYTE   N10  Bn2  v108
 BYTE   W12
//  #06 //015   ----------------------------------------
 BYTE   N92  Gs2  v092
 BYTE   N92  Dn3  v108
 BYTE   W96
//  #06 //016   ----------------------------------------
 BYTE   N40  En2  v112
 BYTE   N40  An2
 BYTE   N40  Cn3  v120
 BYTE   W42
 BYTE   N05  Cn3  v028
 BYTE   W06
 BYTE   N11  An2  v120
 BYTE   W12
 BYTE   Bn2
 BYTE   W12
 BYTE   Cn3
 BYTE   W12
 BYTE   En3
 BYTE   W12
//  #06 //017   ----------------------------------------
Label_01070115:
 BYTE   N84  Fs2  v112
 BYTE   N84  Bn2
 BYTE   N84  Ds3  v120
 BYTE   W90
 BYTE   N05  Ds3  v028
 BYTE   W06
 BYTE   PEND 
//  #06 //018   ----------------------------------------
Label_01070123:
 BYTE   N32  En2  v112
 BYTE   N36  An2
 BYTE   N40  Cn3  v120
 BYTE   W42
 BYTE   N05  Cn3  v028
 BYTE   W06
 BYTE   N11  An2  v120
 BYTE   W12
 BYTE   Bn2
 BYTE   W12
 BYTE   Cn3
 BYTE   W12
 BYTE   En3
 BYTE   W12
 BYTE   PEND 
//  #06 //019   ----------------------------------------
Label_0107013B:
 BYTE   N76  Bn2  v112
 BYTE   N76  Ds3
 BYTE   N76  Fs3  v120
 BYTE   W78
 BYTE   N05  Bn2  v028
 BYTE   N05  Ds3
 BYTE   N05  Fs3
 BYTE   W18
 BYTE   PEND 
//  #06 //020   ----------------------------------------
 BYTE   N44  En2  v112
 BYTE   N40  An2
 BYTE   N40  Cn3  v120
 BYTE   W42
 BYTE   N05  Cn3  v028
 BYTE   W06
 BYTE   N11  An2  v120
 BYTE   W12
 BYTE   Bn2
 BYTE   W12
 BYTE   Cn3
 BYTE   W12
 BYTE   En3
 BYTE   W12
//  #06 //021   ----------------------------------------
 BYTE   PATT
  POIN2 Label_01070115
//  #06 //022   ----------------------------------------
 BYTE   PATT
  POIN2 Label_01070123
//  #06 //023   ----------------------------------------
 BYTE   PATT
  POIN2 Label_0107013B
//  #06 //024   ----------------------------------------
Label_01070173:
 BYTE   N32  An2  v112
 BYTE   N40  Dn3
 BYTE   N40  Fn3  v120
 BYTE   W42
 BYTE   N05  Fn3  v028
 BYTE   W06
 BYTE   N11  Dn3  v120
 BYTE   W12
 BYTE   En3
 BYTE   W12
 BYTE   Fn3
 BYTE   W12
 BYTE   An3
 BYTE   W12
 BYTE   PEND 
//  #06 //025   ----------------------------------------
Label_0107018B:
 BYTE   N84  Bn2  v112
 BYTE   N84  En3
 BYTE   N84  Gs3  v120
 BYTE   W90
 BYTE   N05  Bn2  v028
 BYTE   N05  En3
 BYTE   N05  Gs3
 BYTE   W06
 BYTE   PEND 
//  #06 //026   ----------------------------------------
Label_0107019D:
 BYTE   N32  An2  v112
 BYTE   N36  Dn3
 BYTE   N40  Fn3  v120
 BYTE   W42
 BYTE   N05  Fn3  v028
 BYTE   W06
 BYTE   N11  Dn3  v120
 BYTE   W12
 BYTE   En3
 BYTE   W12
 BYTE   Fn3
 BYTE   W12
 BYTE   An3
 BYTE   W12
 BYTE   PEND 
//  #06 //027   ----------------------------------------
Label_010701B5:
 BYTE   N76  En3  v112
 BYTE   N76  Gs3
 BYTE   N76  Bn3  v120
 BYTE   W78
 BYTE   N05  En3  v028
 BYTE   N05  Gs3
 BYTE   N05  Bn3
 BYTE   W18
 BYTE   PEND 
//  #06 //028   ----------------------------------------
 BYTE   PATT
  POIN2 Label_01070173
//  #06 //029   ----------------------------------------
 BYTE   PATT
  POIN2 Label_0107018B
//  #06 //030   ----------------------------------------
 BYTE   PATT
  POIN2 Label_0107019D
//  #06 //031   ----------------------------------------
 BYTE   PATT
  POIN2 Label_010701B5
//  #06 //032   ----------------------------------------
 BYTE   GoTo
  POIN2 Label_0107003F
 BYTE   FINE

//**************** Track 7 (Midi-Chn.6) ****************//

FE07InescapableFateAlice_007:
//  #07 //000   ----------------------------------------
 BYTE   KEYSH   FE07InescapableFateAlice_key+0
 BYTE   VOICE   28
 BYTE   VOL   52*FE07InescapableFateAlice_mvl/mxv
 BYTE   PAN   c_v-7
 BYTE   W24
Label_01070725:
 BYTE   W12
 BYTE   N03  En2  v088
 BYTE   N03  An2  v096
 BYTE   W12
 BYTE   N04  En2  v084
 BYTE   N04  An2  v096
 BYTE   W24
 BYTE   N03  En2  v080
 BYTE   N03  An2  v096
 BYTE   W12
 BYTE   En2  v088
 BYTE   N03  An2  v104
 BYTE   W24
//  #07 //001   ----------------------------------------
 BYTE   En2  v088
 BYTE   N03  An2  v100
 BYTE   W12
 BYTE   W12
 BYTE   En2  v080
 BYTE   N04  Cn3  v092
 BYTE   W12
 BYTE   N03  En2
 BYTE   N03  Cn3
 BYTE   W24
 BYTE   N02  En2  v080
 BYTE   N03  Cn3  v092
 BYTE   W12
 BYTE   En2  v100
 BYTE   N04  Cn3  v096
 BYTE   W24
//  #07 //002   ----------------------------------------
 BYTE   N02  En2
 BYTE   N04  Cn3
 BYTE   W12
 BYTE   W12
 BYTE   N03  En2  v088
 BYTE   N03  Bn2  v096
 BYTE   W12
 BYTE   En2  v088
 BYTE   N03  Bn2  v096
 BYTE   W24
 BYTE   En2  v088
 BYTE   N03  Bn2
 BYTE   W12
 BYTE   N04  En2  v092
 BYTE   N04  Bn2  v096
 BYTE   W24
//  #07 //003   ----------------------------------------
 BYTE   N03  En2
 BYTE   N03  Bn2  v100
 BYTE   W12
 BYTE   W12
 BYTE   En2  v088
 BYTE   N03  Bn2  v084
 BYTE   W12
 BYTE   En2  v080
 BYTE   N04  Bn2  v092
 BYTE   W24
 BYTE   N03  En2
 BYTE   N03  Bn2
 BYTE   W12
 BYTE   En2  v088
 BYTE   N03  Bn2  v092
 BYTE   W24
//  #07 //004   ----------------------------------------
 BYTE   En2
 BYTE   N03  Bn2  v100
 BYTE   W12
 BYTE   W12
 BYTE   En2  v084
 BYTE   N03  An2  v096
 BYTE   W12
 BYTE   En2  v088
 BYTE   N03  An2  v100
 BYTE   W24
 BYTE   N02  En2  v084
 BYTE   N03  An2  v100
 BYTE   W12
 BYTE   En2  v088
 BYTE   N03  An2  v096
 BYTE   W24
//  #07 //005   ----------------------------------------
 BYTE   En2  v084
 BYTE   N03  An2  v100
 BYTE   W12
 BYTE   W12
 BYTE   En2  v088
 BYTE   N03  Cn3
 BYTE   W12
 BYTE   En2  v092
 BYTE   N04  Cn3  v096
 BYTE   W24
 BYTE   N03  En2  v088
 BYTE   N03  Cn3  v092
 BYTE   W12
 BYTE   En2  v088
 BYTE   N03  Cn3
 BYTE   W24
//  #07 //006   ----------------------------------------
 BYTE   En2
 BYTE   N04  Cn3  v104
 BYTE   W12
 BYTE   W12
 BYTE   N02  En2  v080
 BYTE   N03  Bn2  v096
 BYTE   W12
 BYTE   En2  v084
 BYTE   N03  Bn2  v096
 BYTE   W24
 BYTE   En2  v088
 BYTE   N02  Bn2  v092
 BYTE   W12
 BYTE   En2  v084
 BYTE   N03  Bn2  v092
 BYTE   W24
//  #07 //007   ----------------------------------------
 BYTE   En2
 BYTE   N03  Bn2  v100
 BYTE   W12
 BYTE   W12
 BYTE   En2  v092
 BYTE   N01  Bn2  v080
 BYTE   W12
 BYTE   N03  En2
 BYTE   N04  Bn2  v092
 BYTE   W24
 BYTE   N03  En2
 BYTE   N03  Bn2
 BYTE   W12
 BYTE   N02  En2  v080
 BYTE   N03  Bn2  v092
 BYTE   W24
//  #07 //008   ----------------------------------------
 BYTE   N01  En2  v084
 BYTE   N02  Bn2  v092
 BYTE   W12
 BYTE   W96
//  #07 //009   ----------------------------------------
 BYTE   W96
//  #07 //010   ----------------------------------------
 BYTE   W96
//  #07 //011   ----------------------------------------
 BYTE   W96
//  #07 //012   ----------------------------------------
 BYTE   W96
//  #07 //013   ----------------------------------------
 BYTE   W96
//  #07 //014   ----------------------------------------
 BYTE   W96
//  #07 //015   ----------------------------------------
 BYTE   W72
 BYTE   VOICE   50
 BYTE   VOL   62*FE07InescapableFateAlice_mvl/mxv
 BYTE   PAN   c_v-6
 BYTE   W24
//  #07 //016   ----------------------------------------
 BYTE   N88  An1  v116
 BYTE   W96
//  #07 //017   ----------------------------------------
Label_01070831:
 BYTE   N80  An1  v116
 BYTE   W84
 BYTE   N11  En1
 BYTE   W12
 BYTE   PEND 
//  #07 //018   ----------------------------------------
 BYTE   N88  An1
 BYTE   W96
//  #07 //019   ----------------------------------------
 BYTE   N72
 BYTE   W96
//  #07 //020   ----------------------------------------
 BYTE   N88
 BYTE   W96
//  #07 //021   ----------------------------------------
 BYTE   PATT
  POIN2 Label_01070831
//  #07 //022   ----------------------------------------
 BYTE   N88  An1  v116
 BYTE   W96
//  #07 //023   ----------------------------------------
 BYTE   N72
 BYTE   W96
//  #07 //024   ----------------------------------------
 BYTE   N88  Dn2
 BYTE   W96
//  #07 //025   ----------------------------------------
Label_0107084E:
 BYTE   N80  Dn2  v116
 BYTE   W84
 BYTE   N11  An1
 BYTE   W12
 BYTE   PEND 
//  #07 //026   ----------------------------------------
 BYTE   N88  Dn2
 BYTE   W96
//  #07 //027   ----------------------------------------
 BYTE   N72
 BYTE   W96
//  #07 //028   ----------------------------------------
 BYTE   N88
 BYTE   W96
//  #07 //029   ----------------------------------------
 BYTE   PATT
  POIN2 Label_0107084E
//  #07 //030   ----------------------------------------
 BYTE   N88  Dn2  v116
 BYTE   W96
//  #07 //031   ----------------------------------------
 BYTE   N90
 BYTE   W96
//  #07 //032   ----------------------------------------
 BYTE   GoTo
  POIN2 Label_01070725
 BYTE   FINE

//******************************************************//
	ALIGN 4

FE07InescapableFateAlice:
	BYTE	7	// NumTrks
	BYTE	0	// NumBlks
	BYTE	FE07InescapableFateAlice_pri	// Priority
	BYTE	FE07InescapableFateAlice_rev	// Reverb.
    
	POIN2	FE07InescapableFateAlice_grp
    
	POIN2	FE07InescapableFateAlice_001
	POIN2	FE07InescapableFateAlice_002
	POIN2	FE07InescapableFateAlice_003
	POIN2	FE07InescapableFateAlice_004
	POIN2	FE07InescapableFateAlice_005
	POIN2	FE07InescapableFateAlice_006
	POIN2	FE07InescapableFateAlice_007

	
