//Event file generated from Sappy .s format.
	#include "MPlayDef.event"

	#define	FE09VstheBlackKnightWhattheshmitty_grp  voicegroup000
	#define	FE09VstheBlackKnightWhattheshmitty_pri  0
	#define	FE09VstheBlackKnightWhattheshmitty_rev  0
	#define	FE09VstheBlackKnightWhattheshmitty_mvl  127
	#define	FE09VstheBlackKnightWhattheshmitty_key  0
	#define	FE09VstheBlackKnightWhattheshmitty_tbs  1
	#define	FE09VstheBlackKnightWhattheshmitty_exg  0
	#define	FE09VstheBlackKnightWhattheshmitty_cmp  1

	// .rodata
	//	FE09VstheBlackKnightWhattheshmitty
	ALIGN 4


//**************** Track 1 (Midi-Chn.0) ****************//

FE09VstheBlackKnightWhattheshmitty_001:
//  #01 //000   ----------------------------------------
 BYTE   VOL   80*FE09VstheBlackKnightWhattheshmitty_mvl/mxv
 BYTE   KEYSH   FE09VstheBlackKnightWhattheshmitty_key+0
 BYTE   TEMPO   142*FE09VstheBlackKnightWhattheshmitty_tbs/2
 BYTE   VOICE   62
 BYTE   W72
 BYTE   W72
//  #01 //001   ----------------------------------------
 BYTE   W72
 BYTE   W72
//  #01 //002   ----------------------------------------
Label_01E1D104:
 BYTE   W12
 BYTE   N06  Cs3  v080
 BYTE   W12
 BYTE   N12  Dn3
 BYTE   W12
 BYTE   N06
 BYTE   W12
 BYTE   N12
 BYTE   W12
 BYTE   Bn2
 BYTE   W12
 BYTE   PEND 
Label_01E1D113:
 BYTE   N60  Gs3  v080
 BYTE   N60  Cs4
 BYTE   W60
//  #01 //003   ----------------------------------------
 BYTE   N06  Gn3
 BYTE   N06  Cn4
 BYTE   W06
 BYTE   Gs3
 BYTE   N06  Cs4
 BYTE   W06
 BYTE   PEND 
Label_01E1D123:
 BYTE   N36  Gs3  v080
 BYTE   N36  Cs4
 BYTE   W48
 BYTE   N12  Gs3
 BYTE   N12  Cs4
 BYTE   W12
 BYTE   N06  Gn3
 BYTE   N06  Cn4
 BYTE   W06
 BYTE   Gs3
 BYTE   N06  Cs4
 BYTE   W06
 BYTE   PEND 
Label_01E1D138:
 BYTE   N48  Gs3  v080
 BYTE   N48  Cs4
 BYTE   W48
//  #01 //004   ----------------------------------------
 BYTE   N06  Gn3
 BYTE   N06  Cn4
 BYTE   W06
 BYTE   Gs3
 BYTE   N06  Cs4
 BYTE   W18
 BYTE   PEND 
 BYTE   N72  Gs3
 BYTE   N72  Cs4
 BYTE   W72
//  #01 //005   ----------------------------------------
 BYTE   W72
 BYTE   W72
//  #01 //006   ----------------------------------------
 BYTE   W72
Label_01E1D150:
 BYTE   W12
 BYTE   N06  Cn3  v080
 BYTE   W12
//  #01 //007   ----------------------------------------
 BYTE   N12  Cs3
 BYTE   W12
 BYTE   N06
 BYTE   W12
 BYTE   N12
 BYTE   W12
 BYTE   As2
 BYTE   W12
 BYTE   PEND 
Label_01E1D15F:
 BYTE   N60  Gn3  v080
 BYTE   N60  Cn4
 BYTE   W60
//  #01 //008   ----------------------------------------
 BYTE   N06  Fs3
 BYTE   N06  Bn3
 BYTE   W06
 BYTE   Gn3
 BYTE   N06  Cn4
 BYTE   W06
 BYTE   PEND 
Label_01E1D16F:
 BYTE   N36  Gn3  v080
 BYTE   N36  Cn4
 BYTE   W36
 BYTE   Gs3
 BYTE   N36  Dn4
 BYTE   W36
 BYTE   PEND 
Label_01E1D17A:
 BYTE   N48  Gn3  v080
 BYTE   N48  Cn4
 BYTE   W48
//  #01 //009   ----------------------------------------
 BYTE   N24  Cn3
 BYTE   N24  Fn3
 BYTE   W24
 BYTE   PEND 
 BYTE   N36  Dn3
 BYTE   N36  Gn3
 BYTE   W72
//  #01 //010   ----------------------------------------
 BYTE   W72
 BYTE   W72
//  #01 //011   ----------------------------------------
 BYTE   W72
 BYTE   W72
//  #01 //012   ----------------------------------------
 BYTE   W72
 BYTE   W72
//  #01 //013   ----------------------------------------
 BYTE   W72
 BYTE   W72
//  #01 //014   ----------------------------------------
 BYTE   W72
Label_01E1D194:
 BYTE   N06  Gs2  v080
 BYTE   N06  Cs3
 BYTE   W12
 BYTE   Gs2
 BYTE   N06  Cs3
 BYTE   W06
 BYTE   Gs2
 BYTE   N06  Cs3
 BYTE   W06
//  #01 //015   ----------------------------------------
 BYTE   Gs2
 BYTE   N06  Cs3
 BYTE   W12
 BYTE   Gs2
 BYTE   N06  Cs3
 BYTE   W12
 BYTE   Gs2
 BYTE   N06  Cs3
 BYTE   W24
 BYTE   PEND 
//  #01 //016   ----------------------------------------
 BYTE   PATT
  POIN2 Label_01E1D194
//  #01 //017   ----------------------------------------
 BYTE   PATT
  POIN2 Label_01E1D194
//  #01 //018   ----------------------------------------
Label_01E1D1B9:
 BYTE   N06  Gs2  v080
 BYTE   N06  Cs3
 BYTE   W12
 BYTE   Gs2
 BYTE   N06  Cs3
 BYTE   W06
 BYTE   Gs2
 BYTE   N06  Cs3
 BYTE   W06
 BYTE   Gs2
 BYTE   N06  Cs3
 BYTE   W12
 BYTE   Gs2
 BYTE   N06  Ds3
 BYTE   W12
 BYTE   Gs2
 BYTE   N06  Cs3
 BYTE   W12
 BYTE   Gs2
 BYTE   N06  Bn2
 BYTE   W12
 BYTE   PEND 
Label_01E1D1D8:
 BYTE   N06  En2  v080
 BYTE   N06  An2
 BYTE   W12
 BYTE   En2
 BYTE   N06  An2
 BYTE   W06
 BYTE   En2
 BYTE   N06  An2
 BYTE   W06
//  #01 //019   ----------------------------------------
 BYTE   En2
 BYTE   N06  An2
 BYTE   W12
 BYTE   En2
 BYTE   N06  An2
 BYTE   W12
 BYTE   En2
 BYTE   N06  An2
 BYTE   W24
 BYTE   PEND 
//  #01 //020   ----------------------------------------
 BYTE   PATT
  POIN2 Label_01E1D1D8
//  #01 //021   ----------------------------------------
Label_01E1D1F8:
 BYTE   N06  Fs2  v080
 BYTE   N06  An2
 BYTE   W12
 BYTE   Fs2
 BYTE   N06  An2
 BYTE   W06
 BYTE   Fs2
 BYTE   N06  An2
 BYTE   W06
 BYTE   Fs2
 BYTE   N06  An2
 BYTE   W12
 BYTE   Fs2
 BYTE   N06  An2
 BYTE   W12
 BYTE   Fs2
 BYTE   N06  An2
 BYTE   W24
 BYTE   PEND 
Label_01E1D213:
 BYTE   N06  Bn2  v080
 BYTE   N06  En3
 BYTE   W12
 BYTE   An2
 BYTE   N06  Ds3
 BYTE   W12
//  #01 //022   ----------------------------------------
 BYTE   Gs2
 BYTE   N06  Cs3
 BYTE   W12
 BYTE   Gs2
 BYTE   N06  Cs3
 BYTE   W12
 BYTE   Fs2
 BYTE   N06  Bn2
 BYTE   W12
 BYTE   En2
 BYTE   N06  An2
 BYTE   W12
 BYTE   PEND 
//  #01 //023   ----------------------------------------
 BYTE   PATT
  POIN2 Label_01E1D194
//  #01 //024   ----------------------------------------
Label_01E1D233:
 BYTE   N06  Gs2  v080
 BYTE   N06  Cs3
 BYTE   W12
 BYTE   Gs2
 BYTE   N06  Cs3
 BYTE   W06
 BYTE   Gs2
 BYTE   N06  Cs3
 BYTE   W06
 BYTE   Gs2
 BYTE   N06  Cs3
 BYTE   W12
 BYTE   Gs2
 BYTE   N06  Cs3
 BYTE   W06
 BYTE   Gs2
 BYTE   N06  Cs3
 BYTE   W06
 BYTE   Gs2
 BYTE   N06  Cs3
 BYTE   W24
 BYTE   PEND 
Label_01E1D252:
 BYTE   N06  Gs2  v080
 BYTE   N06  Cs3
 BYTE   W12
 BYTE   Gs2
 BYTE   N06  Cs3
 BYTE   W06
 BYTE   Gs2
 BYTE   N06  Cs3
 BYTE   W06
//  #01 //025   ----------------------------------------
 BYTE   Gs2
 BYTE   N06  Cs3
 BYTE   W06
 BYTE   Gs2
 BYTE   N06  Cs3
 BYTE   W06
 BYTE   Gs2
 BYTE   N06  Cs3
 BYTE   W12
 BYTE   Gs2
 BYTE   N06  Cs3
 BYTE   W24
 BYTE   PEND 
 BYTE   Gs2
 BYTE   N06  Cs3
 BYTE   W12
 BYTE   Gs2
 BYTE   N06  Cs3
 BYTE   W06
 BYTE   Gs2
 BYTE   N06  Cs3
 BYTE   W06
 BYTE   Gs2
 BYTE   N06  Cs3
 BYTE   W12
 BYTE   Gs2
 BYTE   N06  Cs3
 BYTE   W12
//  #01 //026   ----------------------------------------
 BYTE   Gs2
 BYTE   N06  Cs3
 BYTE   W12
 BYTE   Gs2
 BYTE   N06  Cs3
 BYTE   W12
 BYTE   W72
//  #01 //027   ----------------------------------------
 BYTE   W72
 BYTE   W72
//  #01 //028   ----------------------------------------
 BYTE   PATT
  POIN2 Label_01E1D104
//  #01 //029   ----------------------------------------
 BYTE   PATT
  POIN2 Label_01E1D113
//  #01 //030   ----------------------------------------
 BYTE   PATT
  POIN2 Label_01E1D123
//  #01 //031   ----------------------------------------
 BYTE   PATT
  POIN2 Label_01E1D138
//  #01 //032   ----------------------------------------
 BYTE   N72  Gs3  v080
 BYTE   N72  Cs4
 BYTE   W72
 BYTE   W72
//  #01 //033   ----------------------------------------
 BYTE   W72
 BYTE   W72
//  #01 //034   ----------------------------------------
 BYTE   PATT
  POIN2 Label_01E1D150
//  #01 //035   ----------------------------------------
 BYTE   PATT
  POIN2 Label_01E1D15F
//  #01 //036   ----------------------------------------
 BYTE   PATT
  POIN2 Label_01E1D16F
//  #01 //037   ----------------------------------------
 BYTE   PATT
  POIN2 Label_01E1D17A
//  #01 //038   ----------------------------------------
 BYTE   N36  Dn3  v080
 BYTE   N36  Gn3
 BYTE   W72
 BYTE   W72
//  #01 //039   ----------------------------------------
 BYTE   W72
 BYTE   W72
//  #01 //040   ----------------------------------------
 BYTE   W72
 BYTE   W72
//  #01 //041   ----------------------------------------
 BYTE   W72
 BYTE   W72
//  #01 //042   ----------------------------------------
 BYTE   W72
 BYTE   W72
//  #01 //043   ----------------------------------------
 BYTE   PATT
  POIN2 Label_01E1D194
//  #01 //044   ----------------------------------------
 BYTE   PATT
  POIN2 Label_01E1D194
//  #01 //045   ----------------------------------------
 BYTE   PATT
  POIN2 Label_01E1D194
//  #01 //046   ----------------------------------------
 BYTE   PATT
  POIN2 Label_01E1D1B9
//  #01 //047   ----------------------------------------
 BYTE   PATT
  POIN2 Label_01E1D1D8
//  #01 //048   ----------------------------------------
 BYTE   PATT
  POIN2 Label_01E1D1D8
//  #01 //049   ----------------------------------------
 BYTE   PATT
  POIN2 Label_01E1D1F8
//  #01 //050   ----------------------------------------
 BYTE   PATT
  POIN2 Label_01E1D213
//  #01 //051   ----------------------------------------
 BYTE   PATT
  POIN2 Label_01E1D194
//  #01 //052   ----------------------------------------
 BYTE   PATT
  POIN2 Label_01E1D233
//  #01 //053   ----------------------------------------
 BYTE   PATT
  POIN2 Label_01E1D252
//  #01 //054   ----------------------------------------
 BYTE   N06  Gs2  v080
 BYTE   N06  Cs3
 BYTE   W12
 BYTE   Gs2
 BYTE   N06  Cs3
 BYTE   W06
 BYTE   Gs2
 BYTE   N06  Cs3
 BYTE   W06
 BYTE   Gs2
 BYTE   N06  Cs3
 BYTE   W12
 BYTE   Gs2
 BYTE   N06  Cs3
 BYTE   W12
 BYTE   Gs2
 BYTE   N06  Cs3
 BYTE   W12
 BYTE   Gs2
 BYTE   N06  Cs3
 BYTE   W06
 BYTE   FINE

//**************** Track 2 (Midi-Chn.1) ****************//

FE09VstheBlackKnightWhattheshmitty_002:
//  #02 //000   ----------------------------------------
 BYTE   VOL   80*FE09VstheBlackKnightWhattheshmitty_mvl/mxv
 BYTE   KEYSH   FE09VstheBlackKnightWhattheshmitty_key+0
 BYTE   VOICE   61
 BYTE   W12
 BYTE   N60  Gs2  v080
 BYTE   W60
Label_01E1CD1B:
 BYTE   N36  Gs2  v080
 BYTE   W36
//  #02 //001   ----------------------------------------
 BYTE   N06
 BYTE   W36
 BYTE   PEND 
//  #02 //002   ----------------------------------------
 BYTE   PATT
  POIN2 Label_01E1CD1B
//  #02 //003   ----------------------------------------
Label_01E1CD27:
 BYTE   N36  Gs2  v080
 BYTE   W36
 BYTE   N06
 BYTE   W12
 BYTE   Gn2
 BYTE   W06
 BYTE   Gs2
 BYTE   W06
 BYTE   An2
 BYTE   W06
 BYTE   As2
 BYTE   W06
 BYTE   PEND 
 BYTE   N72  Bn2
 BYTE   W72
//  #02 //004   ----------------------------------------
 BYTE   PATT
  POIN2 Label_01E1CD1B
//  #02 //005   ----------------------------------------
 BYTE   PATT
  POIN2 Label_01E1CD1B
//  #02 //006   ----------------------------------------
 BYTE   PATT
  POIN2 Label_01E1CD27
//  #02 //007   ----------------------------------------
 BYTE   N72  Bn2  v080
 BYTE   W72
Label_01E1CD4C:
 BYTE   N36  Gn2  v080
 BYTE   W36
//  #02 //008   ----------------------------------------
 BYTE   N06
 BYTE   W36
 BYTE   PEND 
//  #02 //009   ----------------------------------------
 BYTE   PATT
  POIN2 Label_01E1CD4C
//  #02 //010   ----------------------------------------
Label_01E1CD58:
 BYTE   N36  Gn2  v080
 BYTE   W36
 BYTE   N06
 BYTE   W12
 BYTE   Fs2
 BYTE   W06
 BYTE   Gn2
 BYTE   W06
 BYTE   Gs2
 BYTE   W06
 BYTE   An2
 BYTE   W06
 BYTE   PEND 
 BYTE   N72  As2
 BYTE   W72
//  #02 //011   ----------------------------------------
 BYTE   PATT
  POIN2 Label_01E1CD4C
//  #02 //012   ----------------------------------------
 BYTE   PATT
  POIN2 Label_01E1CD4C
//  #02 //013   ----------------------------------------
 BYTE   PATT
  POIN2 Label_01E1CD58
//  #02 //014   ----------------------------------------
 BYTE   N72  As2  v080
 BYTE   W72
//  #02 //015   ----------------------------------------
 BYTE   PATT
  POIN2 Label_01E1CD1B
//  #02 //016   ----------------------------------------
Label_01E1CD82:
 BYTE   N36  Gs2  v080
 BYTE   W36
 BYTE   An2
 BYTE   W36
 BYTE   PEND 
//  #02 //017   ----------------------------------------
 BYTE   PATT
  POIN2 Label_01E1CD1B
//  #02 //018   ----------------------------------------
Label_01E1CD8E:
 BYTE   N36  Dn3  v080
 BYTE   W36
 BYTE   N36
 BYTE   W36
 BYTE   PEND 
Label_01E1CD95:
 BYTE   N48  Gs2  v080
 BYTE   W48
//  #02 //019   ----------------------------------------
 BYTE   N12
 BYTE   W24
 BYTE   PEND 
//  #02 //020   ----------------------------------------
 BYTE   PATT
  POIN2 Label_01E1CD82
//  #02 //021   ----------------------------------------
 BYTE   PATT
  POIN2 Label_01E1CD95
//  #02 //022   ----------------------------------------
Label_01E1CDA6:
 BYTE   N36  Dn3  v080
 BYTE   W36
 BYTE   Bn2
 BYTE   W36
 BYTE   PEND 
Label_01E1CDAD:
 BYTE   N24  Dn3  v080
 BYTE   W24
//  #02 //023   ----------------------------------------
 BYTE   N24
 BYTE   W24
 BYTE   N24
 BYTE   W24
 BYTE   PEND 
 BYTE   TIE  Gs2
 BYTE   W72
//  #02 //024   ----------------------------------------
 BYTE   W72
 BYTE   W72
//  #02 //025   ----------------------------------------
 BYTE   EOT
Label_01E1CDBC:
 BYTE   N36  Cs3  v080
 BYTE   W36
 BYTE   Bn2
 BYTE   W36
 BYTE   PEND 
 BYTE   TIE  An2
 BYTE   W72
//  #02 //026   ----------------------------------------
 BYTE   W72
 BYTE   W72
//  #02 //027   ----------------------------------------
 BYTE   W72
 BYTE   EOT
 BYTE   TIE  Gs2
 BYTE   W72
//  #02 //028   ----------------------------------------
 BYTE   W72
 BYTE   W72
//  #02 //029   ----------------------------------------
 BYTE   W72
 BYTE   EOT
//  #02 //030   ----------------------------------------
 BYTE   PATT
  POIN2 Label_01E1CD1B
//  #02 //031   ----------------------------------------
 BYTE   PATT
  POIN2 Label_01E1CD1B
//  #02 //032   ----------------------------------------
 BYTE   PATT
  POIN2 Label_01E1CD27
//  #02 //033   ----------------------------------------
 BYTE   N72  Bn2  v080
 BYTE   W72
//  #02 //034   ----------------------------------------
 BYTE   PATT
  POIN2 Label_01E1CD1B
//  #02 //035   ----------------------------------------
 BYTE   PATT
  POIN2 Label_01E1CD1B
//  #02 //036   ----------------------------------------
 BYTE   PATT
  POIN2 Label_01E1CD27
//  #02 //037   ----------------------------------------
 BYTE   N72  Bn2  v080
 BYTE   W72
//  #02 //038   ----------------------------------------
 BYTE   PATT
  POIN2 Label_01E1CD4C
//  #02 //039   ----------------------------------------
 BYTE   PATT
  POIN2 Label_01E1CD4C
//  #02 //040   ----------------------------------------
 BYTE   PATT
  POIN2 Label_01E1CD58
//  #02 //041   ----------------------------------------
 BYTE   N72  As2  v080
 BYTE   W72
//  #02 //042   ----------------------------------------
 BYTE   PATT
  POIN2 Label_01E1CD4C
//  #02 //043   ----------------------------------------
 BYTE   PATT
  POIN2 Label_01E1CD4C
//  #02 //044   ----------------------------------------
 BYTE   PATT
  POIN2 Label_01E1CD58
//  #02 //045   ----------------------------------------
 BYTE   N72  As2  v080
 BYTE   W72
//  #02 //046   ----------------------------------------
 BYTE   PATT
  POIN2 Label_01E1CD1B
//  #02 //047   ----------------------------------------
 BYTE   PATT
  POIN2 Label_01E1CD82
//  #02 //048   ----------------------------------------
 BYTE   PATT
  POIN2 Label_01E1CD1B
//  #02 //049   ----------------------------------------
 BYTE   PATT
  POIN2 Label_01E1CD8E
//  #02 //050   ----------------------------------------
 BYTE   PATT
  POIN2 Label_01E1CD95
//  #02 //051   ----------------------------------------
 BYTE   PATT
  POIN2 Label_01E1CD82
//  #02 //052   ----------------------------------------
 BYTE   PATT
  POIN2 Label_01E1CD95
//  #02 //053   ----------------------------------------
 BYTE   PATT
  POIN2 Label_01E1CDA6
//  #02 //054   ----------------------------------------
 BYTE   PATT
  POIN2 Label_01E1CDAD
//  #02 //055   ----------------------------------------
 BYTE   TIE  Gs2  v080
 BYTE   W72
 BYTE   W72
//  #02 //056   ----------------------------------------
 BYTE   W72
 BYTE   EOT
//  #02 //057   ----------------------------------------
 BYTE   PATT
  POIN2 Label_01E1CDBC
//  #02 //058   ----------------------------------------
 BYTE   TIE  An2  v080
 BYTE   W72
 BYTE   W72
//  #02 //059   ----------------------------------------
 BYTE   W72
 BYTE   W72
//  #02 //060   ----------------------------------------
 BYTE   EOT
 BYTE   TIE  Gs2
 BYTE   W72
 BYTE   W72
//  #02 //061   ----------------------------------------
 BYTE   W72
 BYTE   W72
//  #02 //062   ----------------------------------------
 BYTE   EOT
 BYTE   FINE

//**************** Track 3 (Midi-Chn.2) ****************//

FE09VstheBlackKnightWhattheshmitty_003:
//  #03 //000   ----------------------------------------
 BYTE   VOL   80*FE09VstheBlackKnightWhattheshmitty_mvl/mxv
 BYTE   KEYSH   FE09VstheBlackKnightWhattheshmitty_key+0
 BYTE   VOICE   56
 BYTE   W72
 BYTE   W72
//  #03 //001   ----------------------------------------
 BYTE   W72
 BYTE   W72
//  #03 //002   ----------------------------------------
 BYTE   W72
 BYTE   W72
//  #03 //003   ----------------------------------------
 BYTE   W72
 BYTE   W72
//  #03 //004   ----------------------------------------
 BYTE   W72
 BYTE   W72
//  #03 //005   ----------------------------------------
 BYTE   W72
 BYTE   W72
//  #03 //006   ----------------------------------------
 BYTE   W72
 BYTE   W72
//  #03 //007   ----------------------------------------
 BYTE   W72
 BYTE   W72
//  #03 //008   ----------------------------------------
Label_01E1CBBA:
 BYTE   W12
 BYTE   N06  Ds2  v080
 BYTE   N06  Gn2
 BYTE   W12
 BYTE   Fn2
 BYTE   N06  As2
 BYTE   W12
 BYTE   Fn2
 BYTE   N06  As2
 BYTE   W06
 BYTE   Gn2
 BYTE   N06  Bn2
 BYTE   W06
 BYTE   Gs2
 BYTE   N06  Cs3
 BYTE   W12
 BYTE   As2
 BYTE   N06  Dn3
 BYTE   W12
 BYTE   PEND 
Label_01E1CBD6:
 BYTE   N36  Gs2  v080
 BYTE   N36  Cs3
 BYTE   W36
//  #03 //009   ----------------------------------------
 BYTE   N06  Gs2
 BYTE   N06  Cs3
 BYTE   W12
 BYTE   As2
 BYTE   N06  Ds3
 BYTE   W12
 BYTE   Bn2
 BYTE   N06  En3
 BYTE   W12
 BYTE   PEND 
Label_01E1CBEA:
 BYTE   N18  Cs3  v080
 BYTE   N18  En3
 BYTE   W18
 BYTE   N06  An2
 BYTE   W06
 BYTE   Bn2
 BYTE   W06
 BYTE   En3
 BYTE   W06
 BYTE   N36  An2
 BYTE   N36  Dn3
 BYTE   W36
 BYTE   PEND 
//  #03 //010   ----------------------------------------
Label_01E1CBFD:
 BYTE   N36  Gs2  v080
 BYTE   N36  Cs3
 BYTE   W36
 BYTE   N06  Bn2
 BYTE   N06  Fs3
 BYTE   W12
 BYTE   Bn2
 BYTE   N06  Gs3
 BYTE   W12
 BYTE   Bn2
 BYTE   N06  En3
 BYTE   W12
 BYTE   PEND 
Label_01E1CC11:
 BYTE   N18  Cs3  v080
 BYTE   N18  Fs3
 BYTE   W18
 BYTE   N06  Bn2
 BYTE   W06
//  #03 //011   ----------------------------------------
 BYTE   Dn3
 BYTE   W06
 BYTE   Fs3
 BYTE   W06
 BYTE   N36
 BYTE   N36  Bn3
 BYTE   W36
 BYTE   PEND 
Label_01E1CC23:
 BYTE   N36  Gs3  v080
 BYTE   N36  Cs4
 BYTE   W36
 BYTE   N06  Gs3
 BYTE   N06  Cs4
 BYTE   W12
//  #03 //012   ----------------------------------------
 BYTE   As3
 BYTE   N06  Ds4
 BYTE   W12
 BYTE   Bn3
 BYTE   N06  En4
 BYTE   W12
 BYTE   PEND 
Label_01E1CC37:
 BYTE   N18  Cs4  v080
 BYTE   N18  En4
 BYTE   W18
 BYTE   N06  An3
 BYTE   W06
 BYTE   Bn3
 BYTE   W06
 BYTE   En4
 BYTE   W06
 BYTE   N36  An3
 BYTE   N36  Dn4
 BYTE   W36
 BYTE   PEND 
//  #03 //013   ----------------------------------------
Label_01E1CC4A:
 BYTE   N36  Gs3  v080
 BYTE   N36  Cs4
 BYTE   W36
 BYTE   N06  Gs3
 BYTE   N06  Cs4
 BYTE   W12
 BYTE   N06
 BYTE   N06  Gs4
 BYTE   W12
 BYTE   Gs3
 BYTE   N06  En4
 BYTE   W12
 BYTE   PEND 
Label_01E1CC5E:
 BYTE   N36  Dn3  v080
 BYTE   N36  Fs4
 BYTE   W36
//  #03 //014   ----------------------------------------
 BYTE   Bn2
 BYTE   N36  Fs3
 BYTE   W36
 BYTE   PEND 
Label_01E1CC69:
 BYTE   N24  Dn3  v080
 BYTE   N24  An3
 BYTE   W24
 BYTE   Bn2
 BYTE   N24  Fs3
 BYTE   W24
 BYTE   N24
 BYTE   N24  Cs4
 BYTE   W24
 BYTE   PEND 
//  #03 //015   ----------------------------------------
 BYTE   N06
 BYTE   N06  Cs5
 BYTE   W72
 BYTE   W72
//  #03 //016   ----------------------------------------
 BYTE   W72
Label_01E1CC7E:
 BYTE   N18  Gs3  v080
 BYTE   W18
 BYTE   Cs3
 BYTE   W18
//  #03 //017   ----------------------------------------
 BYTE   N72  Fs3
 BYTE   W36
 BYTE   PEND 
 BYTE   W72
//  #03 //018   ----------------------------------------
 BYTE   W72
 BYTE   W72
//  #03 //019   ----------------------------------------
 BYTE   W72
 BYTE   W72
//  #03 //020   ----------------------------------------
 BYTE   W72
 BYTE   W72
//  #03 //021   ----------------------------------------
 BYTE   W72
 BYTE   W72
//  #03 //022   ----------------------------------------
 BYTE   W72
 BYTE   W72
//  #03 //023   ----------------------------------------
 BYTE   W72
 BYTE   W72
//  #03 //024   ----------------------------------------
 BYTE   W72
 BYTE   W72
//  #03 //025   ----------------------------------------
 BYTE   W72
 BYTE   W72
//  #03 //026   ----------------------------------------
 BYTE   W72
 BYTE   W72
//  #03 //027   ----------------------------------------
 BYTE   W72
 BYTE   W72
//  #03 //028   ----------------------------------------
 BYTE   W72
 BYTE   W72
//  #03 //029   ----------------------------------------
 BYTE   PATT
  POIN2 Label_01E1CBBA
//  #03 //030   ----------------------------------------
 BYTE   PATT
  POIN2 Label_01E1CBD6
//  #03 //031   ----------------------------------------
 BYTE   PATT
  POIN2 Label_01E1CBEA
//  #03 //032   ----------------------------------------
 BYTE   PATT
  POIN2 Label_01E1CBFD
//  #03 //033   ----------------------------------------
 BYTE   PATT
  POIN2 Label_01E1CC11
//  #03 //034   ----------------------------------------
 BYTE   PATT
  POIN2 Label_01E1CC23
//  #03 //035   ----------------------------------------
 BYTE   PATT
  POIN2 Label_01E1CC37
//  #03 //036   ----------------------------------------
 BYTE   PATT
  POIN2 Label_01E1CC4A
//  #03 //037   ----------------------------------------
 BYTE   PATT
  POIN2 Label_01E1CC5E
//  #03 //038   ----------------------------------------
 BYTE   PATT
  POIN2 Label_01E1CC69
//  #03 //039   ----------------------------------------
 BYTE   N06  Cs4  v080
 BYTE   N06  Cs5
 BYTE   W72
 BYTE   W72
//  #03 //040   ----------------------------------------
 BYTE   W72
//  #03 //041   ----------------------------------------
 BYTE   PATT
  POIN2 Label_01E1CC7E
//  #03 //042   ----------------------------------------
 BYTE   W36
 BYTE   FINE

//**************** Track 4 (Midi-Chn.3) ****************//

FE09VstheBlackKnightWhattheshmitty_004:
//  #04 //000   ----------------------------------------
 BYTE   VOL   80*FE09VstheBlackKnightWhattheshmitty_mvl/mxv
 BYTE   KEYSH   FE09VstheBlackKnightWhattheshmitty_key+0
 BYTE   VOICE   48
 BYTE   W12
 BYTE   N60  Gs2  v080
 BYTE   N60  Gs3
 BYTE   W60
Label_01E1CE75:
 BYTE   N36  Bn2  v080
 BYTE   N36  En3
 BYTE   W36
//  #04 //001   ----------------------------------------
 BYTE   N06  Gs2
 BYTE   N06  Ds3
 BYTE   W36
 BYTE   PEND 
//  #04 //002   ----------------------------------------
 BYTE   PATT
  POIN2 Label_01E1CE75
//  #04 //003   ----------------------------------------
Label_01E1CE86:
 BYTE   N36  Bn2  v080
 BYTE   N36  En3
 BYTE   W36
 BYTE   N06  Gs2
 BYTE   N06  Ds3
 BYTE   W12
 BYTE   Gs2
 BYTE   N06  Dn3
 BYTE   W06
 BYTE   An2
 BYTE   N06  Ds3
 BYTE   W06
 BYTE   Bn2
 BYTE   N06  En3
 BYTE   W06
 BYTE   Cs3
 BYTE   N06  Fs3
 BYTE   W06
 BYTE   PEND 
 BYTE   N60  Ds3
 BYTE   N60  Gs3
 BYTE   W72
//  #04 //004   ----------------------------------------
 BYTE   PATT
  POIN2 Label_01E1CE75
//  #04 //005   ----------------------------------------
 BYTE   PATT
  POIN2 Label_01E1CE75
//  #04 //006   ----------------------------------------
 BYTE   PATT
  POIN2 Label_01E1CE86
//  #04 //007   ----------------------------------------
 BYTE   N60  Ds3  v080
 BYTE   N60  Gs3
 BYTE   W72
Label_01E1CEBC:
 BYTE   N36  As2  v080
 BYTE   N36  Ds3
 BYTE   W36
//  #04 //008   ----------------------------------------
 BYTE   N06  Gn2
 BYTE   N06  Dn3
 BYTE   W36
 BYTE   PEND 
//  #04 //009   ----------------------------------------
 BYTE   PATT
  POIN2 Label_01E1CEBC
//  #04 //010   ----------------------------------------
Label_01E1CECD:
 BYTE   N36  As2  v080
 BYTE   N36  Ds3
 BYTE   W36
 BYTE   N06  Gn2
 BYTE   N06  Dn3
 BYTE   W12
 BYTE   Gn2
 BYTE   N06  Cs3
 BYTE   W06
 BYTE   Gs2
 BYTE   N06  Dn3
 BYTE   W06
 BYTE   As2
 BYTE   N06  Ds3
 BYTE   W06
 BYTE   Cn3
 BYTE   N06  Fn3
 BYTE   W06
 BYTE   PEND 
 BYTE   N60  Dn3
 BYTE   N60  Gn3
 BYTE   W72
//  #04 //011   ----------------------------------------
 BYTE   PATT
  POIN2 Label_01E1CEBC
//  #04 //012   ----------------------------------------
 BYTE   PATT
  POIN2 Label_01E1CEBC
//  #04 //013   ----------------------------------------
 BYTE   PATT
  POIN2 Label_01E1CECD
//  #04 //014   ----------------------------------------
Label_01E1CEFD:
 BYTE   N48  Dn3  v080
 BYTE   N48  Gn3
 BYTE   W48
 BYTE   N06  Cs4
 BYTE   N06  Fs4
 BYTE   W06
 BYTE   Dn4
 BYTE   N06  Gn4
 BYTE   W06
 BYTE   En4
 BYTE   N06  An4
 BYTE   W06
 BYTE   Fs4
 BYTE   N06  Bn4
 BYTE   W06
 BYTE   PEND 
 BYTE   W72
//  #04 //015   ----------------------------------------
Label_01E1CF16:
 BYTE   W36
 BYTE   N06  An4  v080
 BYTE   N06  Dn5
 BYTE   W06
 BYTE   Dn4
 BYTE   N06  An4
 BYTE   W06
 BYTE   Dn4
 BYTE   N06  An4
 BYTE   W06
 BYTE   Dn4
 BYTE   N06  An4
 BYTE   W06
 BYTE   Dn4
 BYTE   N06  Fs4
 BYTE   W12
 BYTE   PEND 
 BYTE   W72
//  #04 //016   ----------------------------------------
Label_01E1CF2F:
 BYTE   W36
 BYTE   N04  Cs4  v080
 BYTE   N04  Fs4
 BYTE   W04
 BYTE   Dn4
 BYTE   N04  Gn4
 BYTE   W05
 BYTE   Ds4
 BYTE   N04  Gs4
 BYTE   W04
 BYTE   En4
 BYTE   N04  An4
 BYTE   W05
 BYTE   Fn4
 BYTE   N04  As4
 BYTE   W04
 BYTE   Fs4
 BYTE   N04  Bn4
 BYTE   W05
 BYTE   Gn4
 BYTE   N04  Cn5
 BYTE   W04
 BYTE   Gs4
 BYTE   N04  Cs5
 BYTE   W05
 BYTE   PEND 
Label_01E1CF53:
 BYTE   N01  Gs4  v080
 BYTE   N01  Cs5
 BYTE   W36
//  #04 //017   ----------------------------------------
 BYTE   N04  Gs4
 BYTE   N04  Cs5
 BYTE   W36
 BYTE   PEND 
Label_01E1CF5F:
 BYTE   N36  Gs4  v080
 BYTE   N36  Cs5
 BYTE   W36
 BYTE   N06  An4
 BYTE   N06  Dn5
 BYTE   W06
 BYTE   Dn4
 BYTE   N06  An4
 BYTE   W06
 BYTE   Dn4
 BYTE   N06  An4
 BYTE   W06
 BYTE   Dn4
 BYTE   N06  An4
 BYTE   W06
//  #04 //018   ----------------------------------------
 BYTE   Dn4
 BYTE   N06  Fs4
 BYTE   W12
 BYTE   PEND 
Label_01E1CF7B:
 BYTE   N36  Gs4  v080
 BYTE   N36  Cs5
 BYTE   W36
 BYTE   N04  Gs4
 BYTE   N04  Cs5
 BYTE   W36
 BYTE   PEND 
Label_01E1CF87:
 BYTE   N36  Dn4  v080
 BYTE   N36  Gs4
 BYTE   W36
//  #04 //019   ----------------------------------------
 BYTE   Dn4
 BYTE   N36  Gs4
 BYTE   W36
 BYTE   PEND 
Label_01E1CF92:
 BYTE   N24  Fs4  v080
 BYTE   N24  An4
 BYTE   W24
 BYTE   Dn4
 BYTE   N24  Fs4
 BYTE   W24
 BYTE   N02  Gn4
 BYTE   N02  Cn5
 BYTE   W02
 BYTE   N22  Gs4
 BYTE   N22  Cs5
 BYTE   W22
 BYTE   PEND 
//  #04 //020   ----------------------------------------
Label_01E1CFA7:
 BYTE   N02  Gn4  v080
 BYTE   N02  Cn5
 BYTE   W02
 BYTE   N04  Gs4
 BYTE   N04  Cs5
 BYTE   W10
 BYTE   N06  Cs3
 BYTE   W12
 BYTE   Ds3
 BYTE   W12
 BYTE   N18  En3
 BYTE   W24
 BYTE   N06  An3
 BYTE   W12
 BYTE   PEND 
Label_01E1CFBE:
 BYTE   N36  Gs3  v080
 BYTE   W36
//  #04 //021   ----------------------------------------
 BYTE   Ds3
 BYTE   W36
 BYTE   PEND 
Label_01E1CFC5:
 BYTE   N06  Ds3  v080
 BYTE   W12
 BYTE   N06
 BYTE   W06
 BYTE   N06
 BYTE   W06
 BYTE   En3
 BYTE   W12
 BYTE   N18  Fs3
 BYTE   W24
//  #04 //022   ----------------------------------------
 BYTE   N06  Gs3
 BYTE   W12
 BYTE   PEND 
Label_01E1CFD6:
 BYTE   N18  Gs3  v080
 BYTE   W18
 BYTE   Cs3
 BYTE   W18
 BYTE   N72  Fs3
 BYTE   W36
 BYTE   PEND 
Label_01E1CFE0:
 BYTE   W36
//  #04 //023   ----------------------------------------
 BYTE   N06  Cs3  v080
 BYTE   W12
 BYTE   N06
 BYTE   W12
 BYTE   Ds3
 BYTE   W12
 BYTE   PEND 
Label_01E1CFEA:
 BYTE   N24  En3  v080
 BYTE   W24
 BYTE   N12  Gs3
 BYTE   W12
 BYTE   Fs3
 BYTE   W12
 BYTE   N24  Cs4
 BYTE   W24
 BYTE   PEND 
//  #04 //024   ----------------------------------------
Label_01E1CFF7:
 BYTE   N12  Gs3  v080
 BYTE   W12
 BYTE   N06  Fs3
 BYTE   W12
 BYTE   N12  Cs4
 BYTE   W12
 BYTE   N06  Bn3
 BYTE   W12
 BYTE   N12  En4
 BYTE   W12
 BYTE   N06  Ds4
 BYTE   W12
 BYTE   PEND 
Label_01E1D00B:
 BYTE   N36  En3  v080
 BYTE   N36  En4
 BYTE   W36
//  #04 //025   ----------------------------------------
 BYTE   Fs3
 BYTE   N36  Fs4
 BYTE   W36
 BYTE   PEND 
Label_01E1D016:
 BYTE   TIE  Gs3  v080
 BYTE   TIE  Gs4
 BYTE   W72
 BYTE   PEND 
//  #04 //026   ----------------------------------------
 BYTE   W72
 BYTE   EOT
 BYTE   Gs3  v080
Label_01E1D021:
 BYTE   TIE  Gs3  v080
 BYTE   TIE  Cs5
 BYTE   W72
 BYTE   PEND 
//  #04 //027   ----------------------------------------
Label_01E1D028:
 BYTE   N36  Fs4  v080
 BYTE   W36
 BYTE   Bn5
 BYTE   W36
 BYTE   PEND 
 BYTE   EOT
 BYTE   Gs3  v085
//  #04 //028   ----------------------------------------
 BYTE   PATT
  POIN2 Label_01E1CE75
//  #04 //029   ----------------------------------------
 BYTE   PATT
  POIN2 Label_01E1CE75
//  #04 //030   ----------------------------------------
 BYTE   PATT
  POIN2 Label_01E1CE86
//  #04 //031   ----------------------------------------
 BYTE   N60  Ds3  v080
 BYTE   N60  Gs3
 BYTE   W72
//  #04 //032   ----------------------------------------
 BYTE   PATT
  POIN2 Label_01E1CE75
//  #04 //033   ----------------------------------------
 BYTE   PATT
  POIN2 Label_01E1CE75
//  #04 //034   ----------------------------------------
 BYTE   PATT
  POIN2 Label_01E1CE86
//  #04 //035   ----------------------------------------
 BYTE   N60  Ds3  v080
 BYTE   N60  Gs3
 BYTE   W72
//  #04 //036   ----------------------------------------
 BYTE   PATT
  POIN2 Label_01E1CEBC
//  #04 //037   ----------------------------------------
 BYTE   PATT
  POIN2 Label_01E1CEBC
//  #04 //038   ----------------------------------------
 BYTE   PATT
  POIN2 Label_01E1CECD
//  #04 //039   ----------------------------------------
 BYTE   N60  Dn3  v080
 BYTE   N60  Gn3
 BYTE   W72
//  #04 //040   ----------------------------------------
 BYTE   PATT
  POIN2 Label_01E1CEBC
//  #04 //041   ----------------------------------------
 BYTE   PATT
  POIN2 Label_01E1CEBC
//  #04 //042   ----------------------------------------
 BYTE   PATT
  POIN2 Label_01E1CECD
//  #04 //043   ----------------------------------------
 BYTE   PATT
  POIN2 Label_01E1CEFD
//  #04 //044   ----------------------------------------
 BYTE   W72
//  #04 //045   ----------------------------------------
 BYTE   PATT
  POIN2 Label_01E1CF16
//  #04 //046   ----------------------------------------
 BYTE   W72
//  #04 //047   ----------------------------------------
 BYTE   PATT
  POIN2 Label_01E1CF2F
//  #04 //048   ----------------------------------------
 BYTE   PATT
  POIN2 Label_01E1CF53
//  #04 //049   ----------------------------------------
 BYTE   PATT
  POIN2 Label_01E1CF5F
//  #04 //050   ----------------------------------------
 BYTE   PATT
  POIN2 Label_01E1CF7B
//  #04 //051   ----------------------------------------
 BYTE   PATT
  POIN2 Label_01E1CF87
//  #04 //052   ----------------------------------------
 BYTE   PATT
  POIN2 Label_01E1CF92
//  #04 //053   ----------------------------------------
 BYTE   PATT
  POIN2 Label_01E1CFA7
//  #04 //054   ----------------------------------------
 BYTE   PATT
  POIN2 Label_01E1CFBE
//  #04 //055   ----------------------------------------
 BYTE   PATT
  POIN2 Label_01E1CFC5
//  #04 //056   ----------------------------------------
 BYTE   PATT
  POIN2 Label_01E1CFD6
//  #04 //057   ----------------------------------------
 BYTE   PATT
  POIN2 Label_01E1CFE0
//  #04 //058   ----------------------------------------
 BYTE   PATT
  POIN2 Label_01E1CFEA
//  #04 //059   ----------------------------------------
 BYTE   PATT
  POIN2 Label_01E1CFF7
//  #04 //060   ----------------------------------------
 BYTE   PATT
  POIN2 Label_01E1D00B
//  #04 //061   ----------------------------------------
 BYTE   PATT
  POIN2 Label_01E1D016
//  #04 //062   ----------------------------------------
 BYTE   W72
 BYTE   EOT
 BYTE   Gs3  v080
//  #04 //063   ----------------------------------------
 BYTE   PATT
  POIN2 Label_01E1D021
//  #04 //064   ----------------------------------------
 BYTE   PATT
  POIN2 Label_01E1D028
//  #04 //065   ----------------------------------------
 BYTE   EOT
 BYTE   Gs3  v085
 BYTE   FINE

//**************** Track 5 (Midi-Chn.4) ****************//

FE09VstheBlackKnightWhattheshmitty_005:
//  #05 //000   ----------------------------------------
 BYTE   VOL   80*FE09VstheBlackKnightWhattheshmitty_mvl/mxv
 BYTE   KEYSH   FE09VstheBlackKnightWhattheshmitty_key+0
 BYTE   VOICE   121
 BYTE   W12
 BYTE   N60  Cs2  v080
 BYTE   W60
Label_01E1D58B:
 BYTE   N06  Dn1  v080
 BYTE   N72  Cs2
 BYTE   W12
 BYTE   N04  Dn1
 BYTE   W08
 BYTE   N04
 BYTE   W04
//  #05 //001   ----------------------------------------
 BYTE   N06
 BYTE   W06
 BYTE   N06
 BYTE   W06
 BYTE   N06
 BYTE   W12
 BYTE   N06
 BYTE   W12
 BYTE   N06
 BYTE   W12
 BYTE   PEND 
Label_01E1D5A1:
 BYTE   N06  Dn1  v080
 BYTE   W12
 BYTE   N04
 BYTE   W08
 BYTE   N04
 BYTE   W04
 BYTE   N06
 BYTE   W06
 BYTE   N06
 BYTE   W06
 BYTE   N06
 BYTE   W12
//  #05 //002   ----------------------------------------
 BYTE   N06
 BYTE   W12
 BYTE   N06
 BYTE   W12
 BYTE   PEND 
//  #05 //003   ----------------------------------------
 BYTE   PATT
  POIN2 Label_01E1D5A1
//  #05 //004   ----------------------------------------
Label_01E1D5B9:
 BYTE   N06  Dn1  v080
 BYTE   W12
 BYTE   N04
 BYTE   W08
 BYTE   N04
 BYTE   W04
 BYTE   N06
 BYTE   W06
 BYTE   N06
 BYTE   W06
 BYTE   N06
 BYTE   W12
 BYTE   N06
 BYTE   W12
 BYTE   N06
 BYTE   N12  Cs2
 BYTE   W12
 BYTE   PEND 
//  #05 //005   ----------------------------------------
 BYTE   PATT
  POIN2 Label_01E1D58B
//  #05 //006   ----------------------------------------
 BYTE   PATT
  POIN2 Label_01E1D5A1
//  #05 //007   ----------------------------------------
 BYTE   PATT
  POIN2 Label_01E1D5A1
//  #05 //008   ----------------------------------------
 BYTE   PATT
  POIN2 Label_01E1D5B9
//  #05 //009   ----------------------------------------
 BYTE   PATT
  POIN2 Label_01E1D58B
//  #05 //010   ----------------------------------------
 BYTE   PATT
  POIN2 Label_01E1D5A1
//  #05 //011   ----------------------------------------
 BYTE   N06  Dn1  v080
 BYTE   W12
 BYTE   N04
 BYTE   W08
 BYTE   N04
 BYTE   W04
 BYTE   N06
 BYTE   W06
 BYTE   N06
 BYTE   W06
 BYTE   N06
 BYTE   W12
 BYTE   VOICE   121
 BYTE   N06
 BYTE   W12
 BYTE   N06
 BYTE   W12
Label_01E1D600:
 BYTE   N06  Dn1  v080
 BYTE   W12
 BYTE   N04
 BYTE   W08
 BYTE   N04
 BYTE   W04
//  #05 //012   ----------------------------------------
 BYTE   N06
 BYTE   N24  Cs2
 BYTE   W06
 BYTE   N06  Dn1
 BYTE   W06
 BYTE   N06
 BYTE   W12
 BYTE   N06
 BYTE   N24  Cs2
 BYTE   W12
 BYTE   N06  Dn1
 BYTE   W12
 BYTE   PEND 
//  #05 //013   ----------------------------------------
 BYTE   PATT
  POIN2 Label_01E1D58B
//  #05 //014   ----------------------------------------
 BYTE   PATT
  POIN2 Label_01E1D5A1
//  #05 //015   ----------------------------------------
 BYTE   PATT
  POIN2 Label_01E1D5A1
//  #05 //016   ----------------------------------------
Label_01E1D628:
 BYTE   N06  Dn1  v080
 BYTE   W12
 BYTE   N04
 BYTE   W08
 BYTE   N04
 BYTE   W04
 BYTE   N06
 BYTE   W06
 BYTE   N06
 BYTE   W06
 BYTE   N06
 BYTE   W12
 BYTE   N06
 BYTE   N24  Cs2
 BYTE   W12
 BYTE   N06  Dn1
 BYTE   W12
 BYTE   PEND 
Label_01E1D63E:
 BYTE   N06  Dn1  v080
 BYTE   N72  Cs2
 BYTE   W12
 BYTE   N04  Dn1
 BYTE   W08
 BYTE   N04
 BYTE   W04
//  #05 //017   ----------------------------------------
 BYTE   N06
 BYTE   W06
 BYTE   N06
 BYTE   W06
 BYTE   N06
 BYTE   W12
 BYTE   N06
 BYTE   W24
 BYTE   PEND 
Label_01E1D652:
 BYTE   N06  Dn1  v080
 BYTE   W24
 BYTE   N06
 BYTE   W12
 BYTE   N06
 BYTE   W06
 BYTE   N06
 BYTE   W06
//  #05 //018   ----------------------------------------
 BYTE   N06
 BYTE   N12  Cs2
 BYTE   W06
 BYTE   N06  Dn1
 BYTE   W06
 BYTE   N06
 BYTE   W06
 BYTE   N06
 BYTE   W06
 BYTE   PEND 
//  #05 //019   ----------------------------------------
 BYTE   PATT
  POIN2 Label_01E1D63E
//  #05 //020   ----------------------------------------
Label_01E1D66D:
 BYTE   N06  Dn1  v080
 BYTE   W12
 BYTE   N24  Cs2
 BYTE   W12
 BYTE   N06  Dn1
 BYTE   W12
 BYTE   N06
 BYTE   N24  Cs2
 BYTE   W06
 BYTE   N06  Dn1
 BYTE   W06
 BYTE   N06
 BYTE   W06
 BYTE   N06
 BYTE   W06
 BYTE   N06
 BYTE   N12  Cs2
 BYTE   W06
 BYTE   N06  Dn1
 BYTE   W06
 BYTE   PEND 
Label_01E1D68A:
 BYTE   N06  Dn1  v080
 BYTE   N36  Cs2
 BYTE   W24
//  #05 //021   ----------------------------------------
 BYTE   N06  Dn1
 BYTE   W06
 BYTE   N06
 BYTE   W06
 BYTE   N06
 BYTE   N36  Cs2
 BYTE   W36
 BYTE   PEND 
Label_01E1D69A:
 BYTE   N06  Dn1  v080
 BYTE   W12
 BYTE   N12  Cs2
 BYTE   W12
 BYTE   N06  Dn1
 BYTE   W06
 BYTE   N06
 BYTE   W06
 BYTE   N06
 BYTE   N12  Cs2
 BYTE   W12
//  #05 //022   ----------------------------------------
 BYTE   N06  Dn1
 BYTE   W12
 BYTE   N06
 BYTE   N12  Cs2
 BYTE   W12
 BYTE   PEND 
//  #05 //023   ----------------------------------------
 BYTE   PATT
  POIN2 Label_01E1D68A
//  #05 //024   ----------------------------------------
Label_01E1D6B7:
 BYTE   N06  Dn1  v080
 BYTE   N24  Cs2
 BYTE   W24
 BYTE   N06  Dn1
 BYTE   W06
 BYTE   N06
 BYTE   W06
 BYTE   N06
 BYTE   W12
 BYTE   N06
 BYTE   W12
 BYTE   N06
 BYTE   W12
 BYTE   PEND 
Label_01E1D6C9:
 BYTE   N06  Dn1  v080
 BYTE   W06
 BYTE   N06
 BYTE   W06
 BYTE   N06
 BYTE   W06
 BYTE   N06
 BYTE   W06
//  #05 //025   ----------------------------------------
 BYTE   N06
 BYTE   N12  Cs2
 BYTE   W06
 BYTE   N06  Dn1
 BYTE   W06
 BYTE   N06
 BYTE   W06
 BYTE   N06
 BYTE   W06
 BYTE   N06
 BYTE   N12  Cs2
 BYTE   W06
 BYTE   N06  Dn1
 BYTE   W06
 BYTE   N06
 BYTE   W06
 BYTE   N06
 BYTE   W06
 BYTE   PEND 
//  #05 //026   ----------------------------------------
 BYTE   PATT
  POIN2 Label_01E1D58B
//  #05 //027   ----------------------------------------
 BYTE   PATT
  POIN2 Label_01E1D5A1
//  #05 //028   ----------------------------------------
 BYTE   PATT
  POIN2 Label_01E1D5A1
//  #05 //029   ----------------------------------------
 BYTE   PATT
  POIN2 Label_01E1D5A1
//  #05 //030   ----------------------------------------
 BYTE   PATT
  POIN2 Label_01E1D5A1
//  #05 //031   ----------------------------------------
 BYTE   PATT
  POIN2 Label_01E1D5A1
//  #05 //032   ----------------------------------------
 BYTE   PATT
  POIN2 Label_01E1D5A1
//  #05 //033   ----------------------------------------
 BYTE   PATT
  POIN2 Label_01E1D5A1
//  #05 //034   ----------------------------------------
Label_01E1D712:
 BYTE   N06  Dn1  v080
 BYTE   N48  Cs2
 BYTE   W12
 BYTE   N04  Dn1
 BYTE   W08
 BYTE   N04
 BYTE   W04
 BYTE   N06
 BYTE   W06
 BYTE   N06
 BYTE   W06
 BYTE   N06
 BYTE   W12
 BYTE   N06
 BYTE   W12
 BYTE   N06
 BYTE   W12
 BYTE   PEND 
//  #05 //035   ----------------------------------------
 BYTE   PATT
  POIN2 Label_01E1D5A1
//  #05 //036   ----------------------------------------
 BYTE   PATT
  POIN2 Label_01E1D5A1
//  #05 //037   ----------------------------------------
 BYTE   PATT
  POIN2 Label_01E1D58B
//  #05 //038   ----------------------------------------
 BYTE   PATT
  POIN2 Label_01E1D58B
//  #05 //039   ----------------------------------------
 BYTE   PATT
  POIN2 Label_01E1D5A1
//  #05 //040   ----------------------------------------
 BYTE   PATT
  POIN2 Label_01E1D5A1
//  #05 //041   ----------------------------------------
 BYTE   PATT
  POIN2 Label_01E1D5B9
//  #05 //042   ----------------------------------------
 BYTE   PATT
  POIN2 Label_01E1D58B
//  #05 //043   ----------------------------------------
 BYTE   PATT
  POIN2 Label_01E1D5A1
//  #05 //044   ----------------------------------------
 BYTE   PATT
  POIN2 Label_01E1D5A1
//  #05 //045   ----------------------------------------
 BYTE   PATT
  POIN2 Label_01E1D5B9
//  #05 //046   ----------------------------------------
 BYTE   PATT
  POIN2 Label_01E1D58B
//  #05 //047   ----------------------------------------
 BYTE   PATT
  POIN2 Label_01E1D5A1
//  #05 //048   ----------------------------------------
 BYTE   PATT
  POIN2 Label_01E1D5A1
//  #05 //049   ----------------------------------------
 BYTE   PATT
  POIN2 Label_01E1D600
//  #05 //050   ----------------------------------------
 BYTE   PATT
  POIN2 Label_01E1D58B
//  #05 //051   ----------------------------------------
 BYTE   PATT
  POIN2 Label_01E1D5A1
//  #05 //052   ----------------------------------------
 BYTE   PATT
  POIN2 Label_01E1D5A1
//  #05 //053   ----------------------------------------
 BYTE   PATT
  POIN2 Label_01E1D628
//  #05 //054   ----------------------------------------
 BYTE   PATT
  POIN2 Label_01E1D63E
//  #05 //055   ----------------------------------------
 BYTE   PATT
  POIN2 Label_01E1D652
//  #05 //056   ----------------------------------------
 BYTE   PATT
  POIN2 Label_01E1D63E
//  #05 //057   ----------------------------------------
 BYTE   PATT
  POIN2 Label_01E1D66D
//  #05 //058   ----------------------------------------
 BYTE   PATT
  POIN2 Label_01E1D68A
//  #05 //059   ----------------------------------------
 BYTE   PATT
  POIN2 Label_01E1D69A
//  #05 //060   ----------------------------------------
 BYTE   PATT
  POIN2 Label_01E1D68A
//  #05 //061   ----------------------------------------
 BYTE   PATT
  POIN2 Label_01E1D6B7
//  #05 //062   ----------------------------------------
 BYTE   PATT
  POIN2 Label_01E1D6C9
//  #05 //063   ----------------------------------------
 BYTE   PATT
  POIN2 Label_01E1D58B
//  #05 //064   ----------------------------------------
 BYTE   PATT
  POIN2 Label_01E1D5A1
//  #05 //065   ----------------------------------------
 BYTE   PATT
  POIN2 Label_01E1D5A1
//  #05 //066   ----------------------------------------
 BYTE   PATT
  POIN2 Label_01E1D5A1
//  #05 //067   ----------------------------------------
 BYTE   PATT
  POIN2 Label_01E1D5A1
//  #05 //068   ----------------------------------------
 BYTE   PATT
  POIN2 Label_01E1D5A1
//  #05 //069   ----------------------------------------
 BYTE   PATT
  POIN2 Label_01E1D5A1
//  #05 //070   ----------------------------------------
 BYTE   PATT
  POIN2 Label_01E1D5A1
//  #05 //071   ----------------------------------------
 BYTE   PATT
  POIN2 Label_01E1D712
//  #05 //072   ----------------------------------------
 BYTE   PATT
  POIN2 Label_01E1D5A1
//  #05 //073   ----------------------------------------
 BYTE   PATT
  POIN2 Label_01E1D5A1
//  #05 //074   ----------------------------------------
 BYTE   PATT
  POIN2 Label_01E1D58B
 BYTE   FINE

//**************** Track 6 (Midi-Chn.5) ****************//

FE09VstheBlackKnightWhattheshmitty_006:
//  #06 //000   ----------------------------------------
 BYTE   VOL   80*FE09VstheBlackKnightWhattheshmitty_mvl/mxv
 BYTE   KEYSH   FE09VstheBlackKnightWhattheshmitty_key+0
 BYTE   VOICE   118
 BYTE   W12
 BYTE   N60  Gs1  v080
 BYTE   W60
Label_01E1D37B:
 BYTE   N36  Cs2  v080
 BYTE   W36
//  #06 //001   ----------------------------------------
 BYTE   N12
 BYTE   W24
 BYTE   Gs1
 BYTE   W12
 BYTE   PEND 
Label_01E1D384:
 BYTE   N36  Cs2  v080
 BYTE   W36
 BYTE   N12
 BYTE   W12
 BYTE   N12
 BYTE   W24
 BYTE   PEND 
//  #06 //002   ----------------------------------------
Label_01E1D38D:
 BYTE   N36  Cs2  v080
 BYTE   W36
 BYTE   N12
 BYTE   W12
 BYTE   N12
 BYTE   W12
 BYTE   N12
 BYTE   W12
 BYTE   PEND 
Label_01E1D398:
 BYTE   N24  Cs2  v080
 BYTE   W24
//  #06 //003   ----------------------------------------
 BYTE   N12  Dn2
 BYTE   W12
 BYTE   N36
 BYTE   W36
 BYTE   PEND 
//  #06 //004   ----------------------------------------
 BYTE   PATT
  POIN2 Label_01E1D37B
//  #06 //005   ----------------------------------------
 BYTE   PATT
  POIN2 Label_01E1D384
//  #06 //006   ----------------------------------------
 BYTE   PATT
  POIN2 Label_01E1D38D
//  #06 //007   ----------------------------------------
Label_01E1D3B1:
 BYTE   N24  Cs2  v080
 BYTE   W24
 BYTE   Bn1
 BYTE   W24
 BYTE   N24
 BYTE   W24
 BYTE   PEND 
Label_01E1D3BA:
 BYTE   N36  Cn2  v080
 BYTE   W36
//  #06 //008   ----------------------------------------
 BYTE   N12
 BYTE   W24
 BYTE   Gn1
 BYTE   W12
 BYTE   PEND 
Label_01E1D3C3:
 BYTE   N36  Cn2  v080
 BYTE   W36
 BYTE   N12
 BYTE   W12
 BYTE   N12
 BYTE   W24
 BYTE   PEND 
//  #06 //009   ----------------------------------------
 BYTE   N36
 BYTE   W36
 BYTE   N12
 BYTE   W12
 BYTE   VOICE   118
 BYTE   N12
 BYTE   W12
 BYTE   N12
 BYTE   W12
Label_01E1D3D6:
 BYTE   N24  Cn2  v080
 BYTE   W24
//  #06 //010   ----------------------------------------
 BYTE   Cs2
 BYTE   W24
 BYTE   Gn1
 BYTE   W24
 BYTE   PEND 
//  #06 //011   ----------------------------------------
 BYTE   PATT
  POIN2 Label_01E1D3BA
//  #06 //012   ----------------------------------------
 BYTE   PATT
  POIN2 Label_01E1D3C3
//  #06 //013   ----------------------------------------
Label_01E1D3E9:
 BYTE   N36  Cn2  v080
 BYTE   W36
 BYTE   N12
 BYTE   W12
 BYTE   N12
 BYTE   W12
 BYTE   N12
 BYTE   W12
 BYTE   PEND 
Label_01E1D3F4:
 BYTE   N24  Cn2  v080
 BYTE   W24
//  #06 //014   ----------------------------------------
 BYTE   Gn1
 BYTE   W24
 BYTE   N24
 BYTE   W24
 BYTE   PEND 
Label_01E1D3FD:
 BYTE   N24  Cs2  v080
 BYTE   W24
 BYTE   N24
 BYTE   W24
//  #06 //015   ----------------------------------------
 BYTE   N24
 BYTE   W24
 BYTE   PEND 
Label_01E1D406:
 BYTE   N36  Cs2  v080
 BYTE   W36
 BYTE   Gn1
 BYTE   W36
 BYTE   PEND 
//  #06 //016   ----------------------------------------
 BYTE   PATT
  POIN2 Label_01E1D3FD
//  #06 //017   ----------------------------------------
Label_01E1D412:
 BYTE   N24  Dn2  v080
 BYTE   W24
 BYTE   N24
 BYTE   W24
 BYTE   N24
 BYTE   W24
 BYTE   PEND 
//  #06 //018   ----------------------------------------
 BYTE   PATT
  POIN2 Label_01E1D3FD
//  #06 //019   ----------------------------------------
 BYTE   PATT
  POIN2 Label_01E1D406
//  #06 //020   ----------------------------------------
 BYTE   PATT
  POIN2 Label_01E1D3FD
//  #06 //021   ----------------------------------------
Label_01E1D42A:
 BYTE   N24  Dn2  v080
 BYTE   W24
 BYTE   N24
 BYTE   W24
 BYTE   N12
 BYTE   W12
 BYTE   N12
 BYTE   W12
 BYTE   PEND 
//  #06 //022   ----------------------------------------
 BYTE   PATT
  POIN2 Label_01E1D412
//  #06 //023   ----------------------------------------
Label_01E1D43A:
 BYTE   N48  Cs2  v080
 BYTE   W60
 BYTE   N12  Gs1
 BYTE   W12
 BYTE   PEND 
 BYTE   N48  Cs2
 BYTE   W72
//  #06 //024   ----------------------------------------
Label_01E1D445:
 BYTE   N48  Cs2  v080
 BYTE   W60
 BYTE   N12
 BYTE   W12
 BYTE   PEND 
Label_01E1D44C:
 BYTE   N36  Gs1  v080
 BYTE   W36
//  #06 //025   ----------------------------------------
 BYTE   Bn1
 BYTE   W36
 BYTE   PEND 
Label_01E1D453:
 BYTE   N48  An1  v080
 BYTE   W60
//  #06 //026   ----------------------------------------
 BYTE   N12  En2
 BYTE   W12
 BYTE   PEND 
 BYTE   N48  An1
 BYTE   W72
Label_01E1D45E:
 BYTE   N48  An1  v080
 BYTE   W48
//  #06 //027   ----------------------------------------
 BYTE   N24
 BYTE   W24
 BYTE   PEND 
Label_01E1D465:
 BYTE   N24  An1  v080
 BYTE   W24
 BYTE   N24
 BYTE   W24
 BYTE   N24
 BYTE   W24
 BYTE   PEND 
//  #06 //028   ----------------------------------------
Label_01E1D46E:
 BYTE   N36  Cs2  v080
 BYTE   W36
 BYTE   N12
 BYTE   W12
 BYTE   N24
 BYTE   W24
 BYTE   PEND 
Label_01E1D477:
 BYTE   N24  Cs2  v080
 BYTE   W24
//  #06 //029   ----------------------------------------
 BYTE   N24
 BYTE   W24
 BYTE   N12  Bn1
 BYTE   W12
 BYTE   N12
 BYTE   W12
 BYTE   PEND 
Label_01E1D483:
 BYTE   N24  Cs2  v080
 BYTE   W24
 BYTE   N24
 BYTE   W24
//  #06 //030   ----------------------------------------
 BYTE   N12
 BYTE   W12
 BYTE   Gs1
 BYTE   W12
 BYTE   PEND 
//  #06 //031   ----------------------------------------
 BYTE   PATT
  POIN2 Label_01E1D3FD
//  #06 //032   ----------------------------------------
 BYTE   PATT
  POIN2 Label_01E1D37B
//  #06 //033   ----------------------------------------
 BYTE   PATT
  POIN2 Label_01E1D384
//  #06 //034   ----------------------------------------
 BYTE   PATT
  POIN2 Label_01E1D38D
//  #06 //035   ----------------------------------------
 BYTE   PATT
  POIN2 Label_01E1D398
//  #06 //036   ----------------------------------------
 BYTE   PATT
  POIN2 Label_01E1D37B
//  #06 //037   ----------------------------------------
 BYTE   PATT
  POIN2 Label_01E1D384
//  #06 //038   ----------------------------------------
 BYTE   PATT
  POIN2 Label_01E1D38D
//  #06 //039   ----------------------------------------
 BYTE   PATT
  POIN2 Label_01E1D3B1
//  #06 //040   ----------------------------------------
 BYTE   PATT
  POIN2 Label_01E1D3BA
//  #06 //041   ----------------------------------------
 BYTE   PATT
  POIN2 Label_01E1D3C3
//  #06 //042   ----------------------------------------
 BYTE   PATT
  POIN2 Label_01E1D3E9
//  #06 //043   ----------------------------------------
 BYTE   PATT
  POIN2 Label_01E1D3D6
//  #06 //044   ----------------------------------------
 BYTE   PATT
  POIN2 Label_01E1D3BA
//  #06 //045   ----------------------------------------
 BYTE   PATT
  POIN2 Label_01E1D3C3
//  #06 //046   ----------------------------------------
 BYTE   PATT
  POIN2 Label_01E1D3E9
//  #06 //047   ----------------------------------------
 BYTE   PATT
  POIN2 Label_01E1D3F4
//  #06 //048   ----------------------------------------
 BYTE   PATT
  POIN2 Label_01E1D3FD
//  #06 //049   ----------------------------------------
 BYTE   PATT
  POIN2 Label_01E1D406
//  #06 //050   ----------------------------------------
 BYTE   PATT
  POIN2 Label_01E1D3FD
//  #06 //051   ----------------------------------------
 BYTE   PATT
  POIN2 Label_01E1D412
//  #06 //052   ----------------------------------------
 BYTE   PATT
  POIN2 Label_01E1D3FD
//  #06 //053   ----------------------------------------
 BYTE   PATT
  POIN2 Label_01E1D406
//  #06 //054   ----------------------------------------
 BYTE   PATT
  POIN2 Label_01E1D3FD
//  #06 //055   ----------------------------------------
 BYTE   PATT
  POIN2 Label_01E1D42A
//  #06 //056   ----------------------------------------
 BYTE   PATT
  POIN2 Label_01E1D412
//  #06 //057   ----------------------------------------
 BYTE   PATT
  POIN2 Label_01E1D43A
//  #06 //058   ----------------------------------------
 BYTE   N48  Cs2  v080
 BYTE   W72
//  #06 //059   ----------------------------------------
 BYTE   PATT
  POIN2 Label_01E1D445
//  #06 //060   ----------------------------------------
 BYTE   PATT
  POIN2 Label_01E1D44C
//  #06 //061   ----------------------------------------
 BYTE   PATT
  POIN2 Label_01E1D453
//  #06 //062   ----------------------------------------
 BYTE   N48  An1  v080
 BYTE   W72
//  #06 //063   ----------------------------------------
 BYTE   PATT
  POIN2 Label_01E1D45E
//  #06 //064   ----------------------------------------
 BYTE   PATT
  POIN2 Label_01E1D465
//  #06 //065   ----------------------------------------
 BYTE   PATT
  POIN2 Label_01E1D46E
//  #06 //066   ----------------------------------------
 BYTE   PATT
  POIN2 Label_01E1D477
//  #06 //067   ----------------------------------------
 BYTE   PATT
  POIN2 Label_01E1D483
//  #06 //068   ----------------------------------------
 BYTE   PATT
  POIN2 Label_01E1D3FD
 BYTE   FINE

//******************************************************//
	ALIGN 4

FE09VstheBlackKnightWhattheshmitty:
	BYTE	6	// NumTrks
	BYTE	0	// NumBlks
	BYTE	FE09VstheBlackKnightWhattheshmitty_pri	// Priority
	BYTE	FE09VstheBlackKnightWhattheshmitty_rev	// Reverb.
    
	POIN2	FE09VstheBlackKnightWhattheshmitty_grp
    
	POIN2	FE09VstheBlackKnightWhattheshmitty_001
	POIN2	FE09VstheBlackKnightWhattheshmitty_002
	POIN2	FE09VstheBlackKnightWhattheshmitty_003
	POIN2	FE09VstheBlackKnightWhattheshmitty_004
	POIN2	FE09VstheBlackKnightWhattheshmitty_005
	POIN2	FE09VstheBlackKnightWhattheshmitty_006

	
