//Event file generated from Sappy .s format.
	#include "MPlayDef.event"

	#define	FE11CombatMissionSme_grp  voicegroup000
	#define	FE11CombatMissionSme_pri  0
	#define	FE11CombatMissionSme_rev  0
	#define	FE11CombatMissionSme_mvl  85
	#define	FE11CombatMissionSme_key  0
	#define	FE11CombatMissionSme_tbs  1
	#define	FE11CombatMissionSme_exg  0
	#define	FE11CombatMissionSme_cmp  1

	// .rodata
	//	FE11CombatMissionSme
	ALIGN 4

//**************** Track 1 (Midi-Chn.1) ****************//

FE11CombatMissionSme_1:
	BYTE	KEYSH   FE11CombatMissionSme_key+0
FE11CombatMissionSme_1_B1:
// 000   ----------------------------------------
	BYTE	TEMPO   120*FE11CombatMissionSme_tbs/2
	BYTE		VOICE   57
	BYTE		VOL     127*FE11CombatMissionSme_mvl/mxv
	BYTE		PAN     c_v-19
	BYTE		N02     Dn1   v084
	BYTE		N05     Dn4   v116
	BYTE	W06
	BYTE		N02     Cn1   v072
	BYTE		N05     Cn4   v096
	BYTE	W06
	BYTE		N02     As0   v068
	BYTE		N05     As3   v092
	BYTE	W06
	BYTE		N02     An0   v072
	BYTE		N05     An3   v096
	BYTE	W06
	BYTE		N02     As0   v072
	BYTE		N05     As3   v104
	BYTE	W06
	BYTE		N02     Gn0   v068
	BYTE		N05     Gn3   v092
	BYTE	W06
	BYTE		N02     Dn1   v080
	BYTE		N05     Dn4   v112
	BYTE	W06
	BYTE		N02     Cn1   v068
	BYTE		N05     Cn4   v088
	BYTE	W06
	BYTE		N02     As0   v072
	BYTE		N05     As3   v100
	BYTE	W06
	BYTE		N02     An0   v068
	BYTE		N05     An3   v092
	BYTE	W06
	BYTE		N02     As0   v068
	BYTE		N05     As3   v092
	BYTE	W06
	BYTE		N02     Gn0   v072
	BYTE		N05     Gn3   v100
	BYTE	W06
	BYTE		N02     Dn1   v076
	BYTE		N05     Dn4   v108
	BYTE	W06
	BYTE		N02     Cn1   v072
	BYTE		N05     Cn4   v100
	BYTE	W06
	BYTE		N02     As0   v064
	BYTE		N05     As3   v088
	BYTE	W06
	BYTE		N02     An0   v068
	BYTE		N05     An3   v096
	BYTE	W06
// 001   ----------------------------------------
FE11CombatMissionSme_1_001:
	BYTE		N02     As0   v072
	BYTE		N05     As3   v100
	BYTE	W06
	BYTE		N02     Gn0   v072
	BYTE		N05     Gn3   v104
	BYTE	W06
	BYTE		N02     Dn1   v080
	BYTE		N05     Dn4   v112
	BYTE	W06
	BYTE		N02     Cn1   v072
	BYTE		N05     Cn4   v100
	BYTE	W06
	BYTE		N02     As0   v072
	BYTE		N05     As3   v100
	BYTE	W06
	BYTE		N02     An0   v068
	BYTE		N05     An3   v092
	BYTE	W06
	BYTE		N02     As0   v068
	BYTE		N05     As3   v092
	BYTE	W06
	BYTE		N02     Gn0   v072
	BYTE		N05     Gn3   v100
	BYTE	W06
	BYTE		N02     Dn1   v080
	BYTE		N05     Dn4   v112
	BYTE	W06
	BYTE		N02     Cn1   v072
	BYTE		N05     Cn4   v100
	BYTE	W06
	BYTE		N02     As0   v068
	BYTE		N05     As3   v092
	BYTE	W06
	BYTE		N02     An0   v068
	BYTE		N05     An3   v092
	BYTE	W06
	BYTE		N02     As0   v064
	BYTE		N05     As3   v088
	BYTE	W06
	BYTE		N02     Gn0   v076
	BYTE		N05     Gn3   v104
	BYTE	W06
	BYTE		N02     Dn1   v076
	BYTE		N05     Dn4   v108
	BYTE	W06
	BYTE		N02     Cn1   v072
	BYTE		N05     Cn4   v096
	BYTE	W06
	BYTE	PEND
// 002   ----------------------------------------
FE11CombatMissionSme_1_002:
	BYTE		N02     As0   v080
	BYTE		N05     As3   v108
	BYTE	W06
	BYTE		N02     Dn1   v060
	BYTE		N05     Dn4   v080
	BYTE	W06
	BYTE		N02     An0   v072
	BYTE		N05     An3   v104
	BYTE	W06
	BYTE		N02     Dn1   v064
	BYTE		N05     Dn4   v088
	BYTE	W06
	BYTE		N02     Gn0   v072
	BYTE		N05     Gn3   v104
	BYTE	W06
	BYTE		N02     Dn1   v068
	BYTE		N05     Dn4   v092
	BYTE	W06
	BYTE		N02     An0   v076
	BYTE		N05     An3   v104
	BYTE	W06
	BYTE		N02     Dn1   v064
	BYTE		N05     Dn4   v080
	BYTE	W06
	BYTE		N02     As0   v076
	BYTE		N05     As3   v108
	BYTE	W06
	BYTE		N02     Dn1   v068
	BYTE		N05     Dn4   v092
	BYTE	W06
	BYTE		N02     Cn1   v076
	BYTE		N05     Cn4   v104
	BYTE	W06
	BYTE		N02     Dn1   v064
	BYTE		N05     Dn4   v084
	BYTE	W06
	BYTE		N02     As0   v072
	BYTE		N05     As3   v100
	BYTE	W06
	BYTE		N02     Dn1   v060
	BYTE		N05     Dn4   v080
	BYTE	W06
	BYTE		N02     An0   v072
	BYTE		N05     An3   v100
	BYTE	W06
	BYTE		N02     Dn1   v064
	BYTE		N05     Dn4   v080
	BYTE	W06
	BYTE	PEND
// 003   ----------------------------------------
	BYTE		N02     As0 
	BYTE		N05     As3   v112
	BYTE	W06
	BYTE		N02     Dn1   v072
	BYTE		N05     Dn4   v096
	BYTE	W06
	BYTE		N02     An0   v072
	BYTE		N05     An3   v104
	BYTE	W06
	BYTE		N02     Dn1   v068
	BYTE		N05     Dn4   v088
	BYTE	W06
	BYTE		N02     Gn0   v076
	BYTE		N05     Gn3   v108
	BYTE	W06
	BYTE		N02     Dn1   v068
	BYTE		N05     Dn4   v092
	BYTE	W06
	BYTE		N02     Fs0   v076
	BYTE		N05     Fs3   v108
	BYTE	W06
	BYTE		N02     Dn1   v060
	BYTE		N05     Dn4   v080
	BYTE	W06
	BYTE		N02     Gn0   v072
	BYTE		N05     Gn3   v100
	BYTE	W06
	BYTE		N02     Dn1   v064
	BYTE		N05     Dn4   v084
	BYTE	W06
	BYTE		N02     An0   v076
	BYTE		N05     An3   v104
	BYTE	W06
	BYTE		N02     Dn1   v068
	BYTE		N05     Dn4   v088
	BYTE	W06
	BYTE		N02     As0   v076
	BYTE		N02     As3   v104
	BYTE		N02     As4   v068
	BYTE	W03
	BYTE		        Cn1   v076
	BYTE		N02     Cn4   v104
	BYTE		N02     Cn5   v068
	BYTE	W03
	BYTE		        As0   v076
	BYTE		N02     As3   v104
	BYTE		N02     As4   v068
	BYTE	W03
	BYTE		        Cn1   v076
	BYTE		N02     Cn4   v104
	BYTE		N02     Cn5   v068
	BYTE	W03
	BYTE		        An0   v076
	BYTE		N05     An3   v108
	BYTE		N05     An4   v072
	BYTE	W06
	BYTE		N02     As0 
	BYTE		N05     As3   v100
	BYTE		N05     As4   v060
	BYTE	W06
// 004   ----------------------------------------
	BYTE		N02     Dn1   v084
	BYTE		N05     Dn4   v116
	BYTE	W06
	BYTE		N02     Cn1   v072
	BYTE		N05     Cn4   v096
	BYTE	W06
	BYTE		N02     As0   v068
	BYTE		N05     As3   v092
	BYTE	W06
	BYTE		N02     An0   v072
	BYTE		N05     An3   v096
	BYTE	W06
	BYTE		N02     As0   v072
	BYTE		N05     As3   v104
	BYTE	W06
	BYTE		N02     Gn0   v068
	BYTE		N05     Gn3   v092
	BYTE	W06
	BYTE		N02     Dn1   v080
	BYTE		N05     Dn4   v112
	BYTE	W06
	BYTE		N02     Cn1   v068
	BYTE		N05     Cn4   v088
	BYTE	W06
	BYTE		N02     As0   v072
	BYTE		N05     As3   v100
	BYTE	W06
	BYTE		N02     An0   v068
	BYTE		N05     An3   v092
	BYTE	W06
	BYTE		N02     As0   v068
	BYTE		N05     As3   v092
	BYTE	W06
	BYTE		N02     Gn0   v072
	BYTE		N05     Gn3   v100
	BYTE	W06
	BYTE		N02     Dn1   v076
	BYTE		N05     Dn4   v108
	BYTE	W06
	BYTE		N02     Cn1   v072
	BYTE		N05     Cn4   v100
	BYTE	W06
	BYTE		N02     As0   v064
	BYTE		N05     As3   v088
	BYTE	W06
	BYTE		N02     An0   v068
	BYTE		N05     An3   v096
	BYTE	W06
// 005   ----------------------------------------
	BYTE	PATT
	 POIN2	FE11CombatMissionSme_1_001
// 006   ----------------------------------------
	BYTE	PATT
	 POIN2	FE11CombatMissionSme_1_002
// 007   ----------------------------------------
	BYTE		N02     As0   v080
	BYTE		N05     As3   v112
	BYTE	W06
	BYTE		N02     Dn1   v072
	BYTE		N05     Dn4   v096
	BYTE	W06
	BYTE		N02     An0   v072
	BYTE		N05     An3   v104
	BYTE	W06
	BYTE		N02     Dn1   v068
	BYTE		N05     Dn4   v088
	BYTE	W06
	BYTE		N02     Gn0   v076
	BYTE		N05     Gn3   v108
	BYTE	W06
	BYTE		N02     Dn1   v068
	BYTE		N05     Dn4   v092
	BYTE	W06
	BYTE		N02     Fs0   v076
	BYTE		N05     Fs3   v108
	BYTE	W06
	BYTE		N02     Dn1   v060
	BYTE		N05     Dn4   v080
	BYTE	W06
	BYTE		N02     Gn0   v072
	BYTE		N05     Gn3   v100
	BYTE	W06
	BYTE		N02     Dn1   v064
	BYTE		N05     Dn4   v084
	BYTE	W06
	BYTE		N02     An0   v076
	BYTE		N05     An3   v104
	BYTE	W06
	BYTE		N02     Dn1   v068
	BYTE		N05     Dn4   v088
	BYTE	W06
	BYTE		N02     As0   v076
	BYTE		N02     As3   v104
	BYTE		N02     As4   v072
	BYTE	W03
	BYTE		        Cn1   v076
	BYTE		N02     Cn4   v104
	BYTE		N02     Cn5   v072
	BYTE	W03
	BYTE		        As0   v076
	BYTE		N02     As3   v104
	BYTE		N02     As4   v072
	BYTE	W03
	BYTE		        Cn1   v076
	BYTE		N02     Cn4   v104
	BYTE		N02     Cn5   v072
	BYTE	W03
	BYTE		        An0   v076
	BYTE		N05     An3   v108
	BYTE		N05     An4   v076
	BYTE	W06
	BYTE		N02     As0   v072
	BYTE		N11     As3   v100
	BYTE		N11     As4   v064
	BYTE	W06
// 008   ----------------------------------------
	BYTE	W06
	BYTE		N05     Cn4   v108
	BYTE		N05     Gn4 
	BYTE	W06
	BYTE		N06     Cn4   v080
	BYTE		N06     Gn4 
	BYTE	W06
	BYTE		N05     Cn4   v032
	BYTE		N05     Gn4 
	BYTE	W06
	BYTE		        Cn4   v108
	BYTE		N05     Gn4 
	BYTE	W06
	BYTE		N06     Cn4   v080
	BYTE		N06     Gn4 
	BYTE	W06
	BYTE		N05     Cn4   v032
	BYTE		N05     Gn4 
	BYTE	W06
	BYTE		N06     Cn4   v108
	BYTE		N06     Gn4 
	BYTE	W06
	BYTE		N05     Cn4   v032
	BYTE		N05     Gn4 
	BYTE	W06
	BYTE		        Cn4   v108
	BYTE		N05     Gn4 
	BYTE	W06
	BYTE		N06     Cn4   v080
	BYTE		N06     Gn4 
	BYTE	W06
	BYTE		N05     Cn4   v032
	BYTE		N05     Gn4 
	BYTE	W06
	BYTE		        Cn4   v108
	BYTE		N05     Gn4 
	BYTE	W06
	BYTE		N06     Cn4   v080
	BYTE		N06     Gn4 
	BYTE	W06
	BYTE		N05     Cn4   v032
	BYTE		N05     Gn4 
	BYTE	W06
	BYTE		N06     Cn4   v108
	BYTE		N06     Gn4 
	BYTE	W06
// 009   ----------------------------------------
	BYTE		N05     Cn4   v036
	BYTE		N05     Gn4 
	BYTE	W06
	BYTE		        Cn4   v108
	BYTE		N05     Fs4 
	BYTE	W06
	BYTE		N06     Cn4   v080
	BYTE		N06     Fs4 
	BYTE	W06
	BYTE		N05     Cn4   v032
	BYTE		N05     Fs4 
	BYTE	W06
	BYTE		        Cn4   v108
	BYTE		N05     Fs4 
	BYTE	W06
	BYTE		N06     Cn4   v080
	BYTE		N06     Fs4 
	BYTE	W06
	BYTE		N05     Cn4   v032
	BYTE		N05     Fs4 
	BYTE	W06
	BYTE		N06     Cn4   v108
	BYTE		N06     Fs4 
	BYTE	W06
	BYTE		N05     Cn4   v032
	BYTE		N05     Fs4 
	BYTE	W06
	BYTE		        Cn4   v108
	BYTE		N05     Fs4 
	BYTE	W06
	BYTE		N06     Cn4   v080
	BYTE		N06     Fs4 
	BYTE	W06
	BYTE		N05     Cn4   v032
	BYTE		N05     Fs4 
	BYTE	W06
	BYTE		        Cn4   v108
	BYTE		N05     Fs4 
	BYTE	W06
	BYTE		N06     Cn4   v080
	BYTE		N06     Fs4 
	BYTE	W06
	BYTE		N05     Cn4   v032
	BYTE		N05     Fs4 
	BYTE	W06
	BYTE		N06     Cn4   v108
	BYTE		N06     Fs4 
	BYTE	W06
// 010   ----------------------------------------
	BYTE		N05     Cn4   v036
	BYTE		N05     Fs4 
	BYTE	W06
	BYTE		        Cn4   v108
	BYTE		N05     Gn4 
	BYTE	W04
	BYTE	W02
	BYTE		N06     Cn4   v080
	BYTE		N06     Gn4 
	BYTE	W03
	BYTE	W03
	BYTE		N05     Cn4   v032
	BYTE		N05     Gn4 
	BYTE	W01
	BYTE	W04
	BYTE	W01
	BYTE		        Cn4   v108
	BYTE		N05     Gn4 
	BYTE	W03
	BYTE	W03
	BYTE		N06     Cn4   v080
	BYTE		N06     Gn4 
	BYTE	W02
	BYTE	W04
	BYTE		N05     Cn4   v032
	BYTE		N05     Gn4 
	BYTE	W04
	BYTE	W02
	BYTE		N06     Cn4   v108
	BYTE		N06     Gn4 
	BYTE	W02
	BYTE	W04
	BYTE		N05     Cn4   v032
	BYTE		N05     Gn4 
	BYTE	W01
	BYTE	W04
	BYTE	W01
	BYTE		        Cn4   v108
	BYTE		N05     Gn4 
	BYTE	W03
	BYTE	W03
	BYTE		N06     Cn4   v080
	BYTE		N06     Gn4 
	BYTE	W01
	BYTE	W05
	BYTE		N05     Cn4   v032
	BYTE		N05     Gn4 
	BYTE	W04
	BYTE	W02
	BYTE		        Cn4   v108
	BYTE		N05     Gn4 
	BYTE	W02
	BYTE	W04
	BYTE		N06     Cn4   v080
	BYTE		N06     Gn4 
	BYTE	W05
	BYTE	W01
	BYTE		N05     Cn4   v032
	BYTE		N05     Gn4 
	BYTE	W03
	BYTE	W03
	BYTE		N06     Cn4   v108
	BYTE		N06     Gn4 
	BYTE	W01
	BYTE	W04
	BYTE	W01
// 011   ----------------------------------------
	BYTE		N05     Cn4   v036
	BYTE		N05     Gn4 
	BYTE	W06
	BYTE		        Cn4   v108
	BYTE		N05     Fs4 
	BYTE	W03
	BYTE	W03
	BYTE		N06     Cn4   v080
	BYTE		N06     Fs4 
	BYTE	W04
	BYTE	W02
	BYTE		N05     Cn4   v032
	BYTE		N05     Fs4 
	BYTE	W04
	BYTE	W02
	BYTE		        Cn4   v108
	BYTE		N05     Fs4 
	BYTE	W05
	BYTE	W01
	BYTE		N06     Cn4   v080
	BYTE		N06     Fs4 
	BYTE	W05
	BYTE	W01
	BYTE		N05     Cn4   v032
	BYTE		N05     Fs4 
	BYTE	W03
	BYTE	W03
	BYTE		N06     Cn4   v108
	BYTE		N06     Fs4 
	BYTE	W03
	BYTE	W03
	BYTE		N05     Cn4   v032
	BYTE		N05     Fs4 
	BYTE	W04
	BYTE	W02
	BYTE		        Cn4   v108
	BYTE		N05     Fs4 
	BYTE	W01
	BYTE	W03
	BYTE	W02
	BYTE		N06     Cn4   v080
	BYTE		N06     Fs4 
	BYTE	W01
	BYTE	W04
	BYTE	W01
	BYTE		N05     Cn4   v032
	BYTE		N05     Fs4 
	BYTE	W02
	BYTE	W03
	BYTE	W01
	BYTE		        Cn4   v108
	BYTE		N05     Fs4 
	BYTE	W06
	BYTE		N06     Cn4   v080
	BYTE		N06     Fs4 
	BYTE	W06
	BYTE		N05     Cn4   v032
	BYTE		N05     Fs4 
	BYTE	W06
	BYTE		N06     Cn4   v108
	BYTE		N06     Fs4 
	BYTE	W06
// 012   ----------------------------------------
	BYTE	W96
// 013   ----------------------------------------
	BYTE	W96
// 014   ----------------------------------------
	BYTE	W96
// 015   ----------------------------------------
	BYTE	W96
// 016   ----------------------------------------
	BYTE	W96
// 017   ----------------------------------------
	BYTE	W96
// 018   ----------------------------------------
	BYTE	W96
// 019   ----------------------------------------
	BYTE	W13
	BYTE	W01
	BYTE	W01
	BYTE	W01
	BYTE	W01
	BYTE	W01
	BYTE	W01
	BYTE	W01
	BYTE	W01
	BYTE	W01
	BYTE	W02
	BYTE		N80     DnM1  v124
	BYTE	W04
	BYTE	W05
	BYTE	W03
	BYTE	W03
	BYTE	W04
	BYTE	W02
	BYTE	W03
	BYTE	W01
	BYTE	W03
	BYTE	W02
	BYTE	W01
	BYTE	W02
	BYTE	W01
	BYTE	W02
	BYTE	W01
	BYTE	W02
	BYTE	W01
	BYTE	W02
	BYTE	W01
	BYTE	W02
	BYTE	W01
	BYTE	W02
	BYTE	W01
	BYTE	W02
	BYTE	W01
	BYTE	W02
	BYTE	W01
	BYTE	W02
	BYTE	W01
	BYTE	W01
	BYTE	W11
	BYTE	W02
// 020   ----------------------------------------
	BYTE	W01
	BYTE	W02
	BYTE	W01
	BYTE	W02
	BYTE	W01
	BYTE	W02
	BYTE	W01
	BYTE	W02
	BYTE		N05     Dn1   v068
	BYTE		N05     Fn1 
	BYTE	W01
	BYTE	W02
	BYTE	W01
	BYTE	W02
	BYTE		        Cs1 
	BYTE		N05     En1 
	BYTE	W01
	BYTE	W02
	BYTE	W01
	BYTE	W02
	BYTE		        Dn1 
	BYTE		N05     Fn1 
	BYTE	W01
	BYTE	W02
	BYTE	W01
	BYTE	W02
	BYTE		        En1 
	BYTE		N05     Gn1 
	BYTE	W01
	BYTE	W01
	BYTE	W04
	BYTE		        Fn1 
	BYTE		N05     An1   v060
	BYTE	W05
	BYTE	W01
	BYTE		        Gn1 
	BYTE		N05     As1 
	BYTE	W04
	BYTE	W02
	BYTE		        An1   v068
	BYTE		N05     Cs2   v056
	BYTE	W03
	BYTE	W03
	BYTE		        As1   v064
	BYTE		N05     Dn2   v056
	BYTE	W02
	BYTE	W04
	BYTE		        Cs2   v060
	BYTE		N05     En2   v056
	BYTE	W05
	BYTE	W01
	BYTE		        As1   v060
	BYTE		N05     Dn2   v056
	BYTE	W04
	BYTE	W02
	BYTE		        An1   v068
	BYTE		N05     Cs2   v056
	BYTE	W03
	BYTE	W03
	BYTE		        Gn1   v064
	BYTE		N05     As1 
	BYTE	W02
	BYTE	W04
	BYTE		        Fn1 
	BYTE		N05     An1   v060
	BYTE	W05
	BYTE	W01
	BYTE		N07     En1 
	BYTE		N09     Gn1 
	BYTE	W04
	BYTE	W02
// 021   ----------------------------------------
	BYTE	W03
	BYTE	W03
	BYTE		N05     En1   v032
	BYTE		N05     Gn1 
	BYTE	W06
	BYTE		        Dn1   v060
	BYTE		N05     Fn1 
	BYTE	W05
	BYTE	W01
	BYTE		        Cs1   v064
	BYTE		N05     En1   v068
	BYTE	W05
	BYTE	W01
	BYTE		        Dn1   v060
	BYTE		N05     Fn1 
	BYTE	W06
	BYTE		        En1 
	BYTE		N05     Gn1   v064
	BYTE	W06
	BYTE		        Fn1   v068
	BYTE		N05     An1   v060
	BYTE	W01
	BYTE	W05
	BYTE		        Gn1 
	BYTE		N05     As1 
	BYTE	W02
	BYTE	W04
	BYTE		        An1 
	BYTE		N05     Cs2   v056
	BYTE	W02
	BYTE	W04
	BYTE		        As1   v060
	BYTE		N05     Dn2   v056
	BYTE	W03
	BYTE	W03
	BYTE		        Cs2   v060
	BYTE		N05     En2 
	BYTE	W04
	BYTE	W02
	BYTE		        Dn2   v052
	BYTE		N05     Fn2   v056
	BYTE	W05
	BYTE	W01
	BYTE		        En2   v060
	BYTE		N05     Gn2   v056
	BYTE	W05
	BYTE	W01
	BYTE		        Fn2   v060
	BYTE		N05     An2   v044
	BYTE	W06
	BYTE		N13     Gn2   v052
	BYTE		N15     As2   v048
	BYTE	W07
	BYTE	W05
// 022   ----------------------------------------
	BYTE	W02
	BYTE	W03
	BYTE	W01
	BYTE		N05     Gn2   v032
	BYTE		N05     As2 
	BYTE	W02
	BYTE	W03
	BYTE	W01
	BYTE		        Gn2   v052
	BYTE		N05     As2   v048
	BYTE	W02
	BYTE	W03
	BYTE	W01
	BYTE		        Fn2   v056
	BYTE		N05     An2   v048
	BYTE	W02
	BYTE	W03
	BYTE	W01
	BYTE		        En2   v056
	BYTE		N05     Gn2   v052
	BYTE	W02
	BYTE	W03
	BYTE	W01
	BYTE		        Fn2   v056
	BYTE		N05     An2   v044
	BYTE	W02
	BYTE	W03
	BYTE	W01
	BYTE		        En2   v060
	BYTE		N05     Gn2   v052
	BYTE	W02
	BYTE	W03
	BYTE	W01
	BYTE		        Dn2 
	BYTE		N05     Fn2   v056
	BYTE	W02
	BYTE	W03
	BYTE	W01
	BYTE		        Cs2 
	BYTE		N05     En2 
	BYTE	W02
	BYTE	W03
	BYTE	W01
	BYTE		        Dn2   v052
	BYTE		N05     Fn2   v056
	BYTE	W02
	BYTE	W03
	BYTE	W01
	BYTE		        En2   v060
	BYTE		N05     Gn2   v048
	BYTE	W02
	BYTE	W03
	BYTE	W01
	BYTE		        Dn2   v056
	BYTE		N05     Fn2 
	BYTE	W02
	BYTE	W03
	BYTE	W01
	BYTE		        Cs2   v064
	BYTE		N05     En2   v056
	BYTE	W02
	BYTE	W03
	BYTE	W01
	BYTE		        As1   v064
	BYTE		N05     Dn2   v056
	BYTE	W02
	BYTE	W03
	BYTE	W01
	BYTE		        An1   v068
	BYTE		N05     Cs2   v060
	BYTE	W02
	BYTE	W03
	BYTE	W01
	BYTE		N07     Gn1   v064
	BYTE		N09     As1   v060
	BYTE	W02
	BYTE	W03
	BYTE	W01
// 023   ----------------------------------------
	BYTE	W02
	BYTE	W03
	BYTE	W01
	BYTE		N05     Gn1   v032
	BYTE		N05     As1 
	BYTE	W02
	BYTE	W02
	BYTE	W02
	BYTE		        Gn1   v068
	BYTE		N05     As1   v060
	BYTE	W01
	BYTE	W03
	BYTE	W02
	BYTE		        Fs1   v068
	BYTE		N05     An1 
	BYTE	W01
	BYTE	W03
	BYTE	W02
	BYTE		        Gn1   v064
	BYTE		N05     As1   v068
	BYTE	W01
	BYTE	W03
	BYTE	W02
	BYTE		        An1 
	BYTE		N05     Cs2   v060
	BYTE	W01
	BYTE	W03
	BYTE	W02
	BYTE		        As1 
	BYTE		N05     Dn2   v056
	BYTE	W01
	BYTE	W03
	BYTE	W02
	BYTE		N05   
	BYTE		N05     Fn2   v064
	BYTE	W01
	BYTE	W03
	BYTE	W02
	BYTE		        Cs2 
	BYTE		N05     En2   v060
	BYTE	W01
	BYTE	W03
	BYTE	W02
	BYTE		        An1   v068
	BYTE		N05     Cs2   v064
	BYTE	W01
	BYTE	W03
	BYTE	W02
	BYTE		        Gs1   v068
	BYTE		N05     Cn2 
	BYTE	W01
	BYTE	W03
	BYTE	W02
	BYTE		        An1 
	BYTE		N05     Cs2   v060
	BYTE	W01
	BYTE	W03
	BYTE	W02
	BYTE		        Cs2   v068
	BYTE		N05     En2   v064
	BYTE	W01
	BYTE	W03
	BYTE	W02
	BYTE		        Dn2   v060
	BYTE		N05     Fn2 
	BYTE	W01
	BYTE	W03
	BYTE	W02
	BYTE		        En2 
	BYTE		N05     Gn2   v056
	BYTE	W01
	BYTE	W01
	BYTE	W04
	BYTE		        Fn2   v060
	BYTE		N08     An2   v048
	BYTE	W06
// 024   ----------------------------------------
	BYTE	W02
	BYTE	W04
	BYTE		N05     Fn2   v032
	BYTE		N05     An2 
	BYTE	W01
	BYTE	W05
	BYTE		        Dn1   v076
	BYTE		N05     Fn1 
	BYTE	W01
	BYTE	W05
	BYTE		        Cs1 
	BYTE		N05     En1 
	BYTE	W01
	BYTE	W05
	BYTE		        Dn1   v072
	BYTE		N05     Fn1   v076
	BYTE	W01
	BYTE	W05
	BYTE		        En1 
	BYTE		N05     Gn1 
	BYTE	W01
	BYTE	W05
	BYTE		        Fn1 
	BYTE		N05     An1   v064
	BYTE	W01
	BYTE	W05
	BYTE		        Gn1 
	BYTE		N05     As1 
	BYTE	W01
	BYTE	W05
	BYTE		        An1   v076
	BYTE		N05     Cs2   v060
	BYTE	W06
	BYTE		        As1   v068
	BYTE		N05     Dn2   v060
	BYTE	W06
	BYTE		        Cs2 
	BYTE		N05     En2 
	BYTE	W06
	BYTE		        As1   v068
	BYTE		N05     Dn2   v060
	BYTE	W06
	BYTE		        An1   v072
	BYTE		N05     Cs2   v060
	BYTE	W06
	BYTE		        Gn1   v068
	BYTE		N05     As1 
	BYTE	W06
	BYTE		        Fn1 
	BYTE		N05     An1   v064
	BYTE	W05
	BYTE	W01
	BYTE		N07     En1 
	BYTE		N09     Gn1   v068
	BYTE	W06
// 025   ----------------------------------------
	BYTE	W03
	BYTE	W03
	BYTE		N05     En1   v032
	BYTE		N05     Gn1 
	BYTE	W02
	BYTE	W04
	BYTE		        Dn1   v064
	BYTE		N05     Fn1 
	BYTE	W01
	BYTE	W05
	BYTE		        Cs1   v068
	BYTE		N05     En1   v072
	BYTE	W05
	BYTE	W01
	BYTE		        Dn1   v064
	BYTE		N05     Fn1 
	BYTE	W03
	BYTE	W03
	BYTE		        En1 
	BYTE		N05     Gn1   v072
	BYTE	W02
	BYTE	W04
	BYTE		        Fn1   v076
	BYTE		N05     An1   v064
	BYTE	W01
	BYTE	W05
	BYTE		        Gn1 
	BYTE		N05     As1 
	BYTE	W05
	BYTE	W01
	BYTE		        An1 
	BYTE		N05     Cs2   v060
	BYTE	W04
	BYTE	W02
	BYTE		        As1   v064
	BYTE		N05     Dn2   v060
	BYTE	W03
	BYTE	W03
	BYTE		        Cs2   v064
	BYTE		N05     En2   v068
	BYTE	W01
	BYTE	W05
	BYTE		        Dn2   v056
	BYTE		N05     Fn2   v060
	BYTE	W05
	BYTE	W01
	BYTE		        En2   v068
	BYTE		N05     Gn2   v060
	BYTE	W04
	BYTE	W02
	BYTE		        Fn2 
	BYTE		N05     An2   v044
	BYTE	W04
	BYTE	W02
	BYTE		N13     Gn2   v056
	BYTE		N15     As2   v048
	BYTE	W03
	BYTE	W06
	BYTE	W03
// 026   ----------------------------------------
	BYTE	W02
	BYTE	W04
	BYTE		N05     Gn2   v032
	BYTE		N05     As2 
	BYTE	W02
	BYTE	W04
	BYTE		        Gn2   v052
	BYTE		N05     As2   v048
	BYTE	W01
	BYTE	W05
	BYTE		        Fn2   v060
	BYTE		N05     An2   v048
	BYTE	W01
	BYTE	W05
	BYTE		        En2   v056
	BYTE		N05     Gn2   v052
	BYTE	W06
	BYTE		        Fn2   v056
	BYTE		N05     An2   v048
	BYTE	W05
	BYTE	W01
	BYTE		        En2   v064
	BYTE		N05     Gn2   v056
	BYTE	W05
	BYTE	W01
	BYTE		        Dn2 
	BYTE		N05     Fn2   v060
	BYTE	W04
	BYTE	W02
	BYTE		        Cs2 
	BYTE		N05     En2 
	BYTE	W03
	BYTE	W03
	BYTE		        Dn2   v056
	BYTE		N05     Fn2 
	BYTE	W01
	BYTE	W04
	BYTE	W01
	BYTE		        En2   v060
	BYTE		N05     Gn2   v052
	BYTE	W04
	BYTE	W02
	BYTE		        Dn2   v060
	BYTE		N05     Fn2   v056
	BYTE	W02
	BYTE	W04
	BYTE		        Cs2   v068
	BYTE		N05     En2   v060
	BYTE	W04
	BYTE	W02
	BYTE		        As1   v068
	BYTE		N05     Dn2   v060
	BYTE	W03
	BYTE	W03
	BYTE		        An1   v076
	BYTE		N05     Cs2   v064
	BYTE	W01
	BYTE	W04
	BYTE	W01
	BYTE		N07     Gn1   v072
	BYTE		N09     As1   v064
	BYTE	W04
	BYTE	W02
// 027   ----------------------------------------
	BYTE	W02
	BYTE	W04
	BYTE		N05     Gn1   v032
	BYTE		N05     As1 
	BYTE	W06
	BYTE		        Gn1   v068
	BYTE		N05     As1   v060
	BYTE	W06
	BYTE		        Fs1   v068
	BYTE		N05     An1 
	BYTE	W06
	BYTE		        Gn1   v064
	BYTE		N05     As1   v072
	BYTE	W06
	BYTE		        An1 
	BYTE		N05     Cs2   v064
	BYTE	W06
	BYTE		        As1 
	BYTE		N05     Dn2 
	BYTE	W06
	BYTE		N05   
	BYTE		N05     Fn2   v068
	BYTE	W06
	BYTE		        Cs4   v096
	BYTE		N05     En4   v104
	BYTE	W06
	BYTE		        An3   v100
	BYTE		N05     Cs4   v108
	BYTE	W06
	BYTE		        Gs3   v100
	BYTE		N05     Cn4   v104
	BYTE	W06
	BYTE		        An3   v100
	BYTE		N05     Cs4   v104
	BYTE	W06
	BYTE		N05   
	BYTE		N05     En4   v096
	BYTE	W06
	BYTE		        Dn4   v104
	BYTE		N05     Fn4 
	BYTE	W06
	BYTE		        En4   v100
	BYTE		N05     Gn4 
	BYTE	W06
	BYTE		        Fn4   v096
	BYTE		N05     An4   v104
	BYTE	W06
// 028   ----------------------------------------
	BYTE	W01
	BYTE	GoTo
	 POIN2	FE11CombatMissionSme_1_B1
FE11CombatMissionSme_1_B2:
	BYTE	FINE

//**************** Track 2 (Midi-Chn.2) ****************//

FE11CombatMissionSme_2:
	BYTE	KEYSH   FE11CombatMissionSme_key+0
FE11CombatMissionSme_2_B1:
// 000   ----------------------------------------
	BYTE		VOICE   33
	BYTE		VOL     98*FE11CombatMissionSme_mvl/mxv
	BYTE		PAN     c_v+0
	BYTE		N04     Gn2   v116
	BYTE	W06
	BYTE		        Gn2   v044
	BYTE	W12
	BYTE		        Gn2   v104
	BYTE	W06
	BYTE		        Gn2   v036
	BYTE	W12
	BYTE		N05     Gn2   v116
	BYTE	W06
	BYTE		        Gn2   v048
	BYTE	W12
	BYTE		N04     Gn2   v104
	BYTE	W06
	BYTE		        Gn2   v036
	BYTE	W12
	BYTE		        Gn2   v112
	BYTE	W06
	BYTE		        Gn2   v044
	BYTE	W06
	BYTE		        Gn2   v104
	BYTE	W06
	BYTE		        Gn2   v036
	BYTE	W06
// 001   ----------------------------------------
FE11CombatMissionSme_2_001:
	BYTE		N04     Cn2   v116
	BYTE	W06
	BYTE		        Cn2   v044
	BYTE	W12
	BYTE		        Cn2   v104
	BYTE	W06
	BYTE		        Cn2   v036
	BYTE	W12
	BYTE		N05     Cn2   v116
	BYTE	W06
	BYTE		        Cn2   v048
	BYTE	W12
	BYTE		N04     Cn2   v104
	BYTE	W06
	BYTE		        Cn2   v036
	BYTE	W12
	BYTE		        Cn2   v112
	BYTE	W06
	BYTE		        Cn2   v044
	BYTE	W06
	BYTE		        Cn2   v104
	BYTE	W06
	BYTE		        Cn2   v036
	BYTE	W06
	BYTE	PEND
// 002   ----------------------------------------
FE11CombatMissionSme_2_002:
	BYTE		N04     Fn2   v116
	BYTE	W06
	BYTE		        Fn2   v044
	BYTE	W12
	BYTE		        Fn2   v104
	BYTE	W06
	BYTE		        Fn2   v036
	BYTE	W12
	BYTE		N05     Fn2   v116
	BYTE	W06
	BYTE		        Fn2   v048
	BYTE	W12
	BYTE		N04     Fn2   v104
	BYTE	W06
	BYTE		        Fn2   v036
	BYTE	W12
	BYTE		        Fn2   v112
	BYTE	W06
	BYTE		        Fn2   v044
	BYTE	W06
	BYTE		        Fs2   v104
	BYTE	W06
	BYTE		        Fs2   v036
	BYTE	W06
	BYTE	PEND
// 003   ----------------------------------------
FE11CombatMissionSme_2_003:
	BYTE		N04     Gn2   v116
	BYTE	W06
	BYTE		        Gn2   v044
	BYTE	W12
	BYTE		        Gn2   v104
	BYTE	W06
	BYTE		        Gn2   v036
	BYTE	W12
	BYTE		N05     Gn2   v116
	BYTE	W06
	BYTE		        Gn2   v048
	BYTE	W12
	BYTE		N04     Gn2   v104
	BYTE	W06
	BYTE		        Gn2   v036
	BYTE	W12
	BYTE		        Gn2   v112
	BYTE	W06
	BYTE		        Gn2   v044
	BYTE	W06
	BYTE		        Gn2   v104
	BYTE	W06
	BYTE		        Gn2   v036
	BYTE	W06
	BYTE	PEND
// 004   ----------------------------------------
	BYTE	PATT
	 POIN2	FE11CombatMissionSme_2_003
// 005   ----------------------------------------
	BYTE	PATT
	 POIN2	FE11CombatMissionSme_2_001
// 006   ----------------------------------------
	BYTE	PATT
	 POIN2	FE11CombatMissionSme_2_002
// 007   ----------------------------------------
	BYTE	PATT
	 POIN2	FE11CombatMissionSme_2_003
// 008   ----------------------------------------
FE11CombatMissionSme_2_008:
	BYTE		N13     Dn2   v124
	BYTE	W18
	BYTE		        Dn2   v112
	BYTE	W18
	BYTE		N03   
	BYTE	W06
	BYTE		        Dn2   v044
	BYTE	W06
	BYTE		N13     Dn2   v120
	BYTE	W18
	BYTE		        Dn2   v112
	BYTE	W18
	BYTE		N03   
	BYTE	W06
	BYTE		        Dn2   v044
	BYTE	W06
	BYTE	PEND
// 009   ----------------------------------------
	BYTE	PATT
	 POIN2	FE11CombatMissionSme_2_008
// 010   ----------------------------------------
	BYTE	PATT
	 POIN2	FE11CombatMissionSme_2_008
// 011   ----------------------------------------
	BYTE	PATT
	 POIN2	FE11CombatMissionSme_2_008
// 012   ----------------------------------------
FE11CombatMissionSme_2_012:
	BYTE		N04     Gn2   v120
	BYTE	W06
	BYTE		        Gn2   v048
	BYTE	W12
	BYTE		        Gn2   v108
	BYTE	W06
	BYTE		        Gn2   v040
	BYTE	W12
	BYTE		N05     Gn2   v120
	BYTE	W06
	BYTE		        Gn2   v052
	BYTE	W12
	BYTE		N04     Gn2   v108
	BYTE	W06
	BYTE		        Gn2   v040
	BYTE	W12
	BYTE		        Gn2   v116
	BYTE	W06
	BYTE		        Gn2   v048
	BYTE	W06
	BYTE		        Gn2   v108
	BYTE	W06
	BYTE		        Gn2   v040
	BYTE	W06
	BYTE	PEND
// 013   ----------------------------------------
FE11CombatMissionSme_2_013:
	BYTE		N04     Cn2   v120
	BYTE	W06
	BYTE		        Cn2   v048
	BYTE	W12
	BYTE		        Cn2   v108
	BYTE	W06
	BYTE		        Cn2   v040
	BYTE	W12
	BYTE		N05     Cn2   v120
	BYTE	W06
	BYTE		        Cn2   v052
	BYTE	W12
	BYTE		N04     Cn2   v108
	BYTE	W06
	BYTE		        Cn2   v040
	BYTE	W12
	BYTE		        Cn2   v116
	BYTE	W06
	BYTE		        Cn2   v048
	BYTE	W06
	BYTE		        Cn2   v108
	BYTE	W06
	BYTE		        Cn2   v040
	BYTE	W06
	BYTE	PEND
// 014   ----------------------------------------
FE11CombatMissionSme_2_014:
	BYTE		N04     Fn2   v120
	BYTE	W06
	BYTE		        Fn2   v048
	BYTE	W12
	BYTE		        Fn2   v108
	BYTE	W06
	BYTE		        Fn2   v040
	BYTE	W12
	BYTE		N05     Fn2   v120
	BYTE	W06
	BYTE		        Fn2   v052
	BYTE	W12
	BYTE		N04     Fn2   v108
	BYTE	W06
	BYTE		        Fn2   v040
	BYTE	W12
	BYTE		        Fn2   v116
	BYTE	W06
	BYTE		        Fn2   v048
	BYTE	W06
	BYTE		        Fs2   v108
	BYTE	W06
	BYTE		        Fs2   v040
	BYTE	W06
	BYTE	PEND
// 015   ----------------------------------------
	BYTE	PATT
	 POIN2	FE11CombatMissionSme_2_012
// 016   ----------------------------------------
	BYTE	PATT
	 POIN2	FE11CombatMissionSme_2_012
// 017   ----------------------------------------
	BYTE	PATT
	 POIN2	FE11CombatMissionSme_2_013
// 018   ----------------------------------------
	BYTE	PATT
	 POIN2	FE11CombatMissionSme_2_014
// 019   ----------------------------------------
	BYTE		N04     Gn2   v120
	BYTE	W06
	BYTE		        Gn2   v048
	BYTE	W12
	BYTE		        Gn2   v108
	BYTE	W06
	BYTE		        Gn2   v040
	BYTE	W12
	BYTE		N05     Gn2   v120
	BYTE	W06
	BYTE		        Gn2   v052
	BYTE	W12
	BYTE		N04     Gn2   v108
	BYTE	W06
	BYTE		        Gn2   v040
	BYTE	W12
	BYTE		        Gn2   v116
	BYTE	W06
	BYTE		        Gn2   v048
	BYTE	W06
	BYTE		        Gn2   v108
	BYTE	W06
	BYTE		        Gn2   v044
	BYTE	W06
// 020   ----------------------------------------
	BYTE		N92     Dn2   v127
	BYTE	W96
// 021   ----------------------------------------
	BYTE		N88   
	BYTE	W96
// 022   ----------------------------------------
	BYTE		N92     As1 
	BYTE	W96
// 023   ----------------------------------------
	BYTE		N44     Gn1 
	BYTE	W48
	BYTE		        An1   v124
	BYTE	W48
// 024   ----------------------------------------
	BYTE		N76     Dn2   v127
	BYTE	W84
	BYTE		N05     Dn2   v124
	BYTE	W12
// 025   ----------------------------------------
	BYTE		N88     Dn2   v127
	BYTE	W96
// 026   ----------------------------------------
	BYTE		N56     As1 
	BYTE	W66
	BYTE		N18     As2   v124
	BYTE	W18
	BYTE		N05     As1 
	BYTE	W06
	BYTE		        An1 
	BYTE	W06
// 027   ----------------------------------------
	BYTE	W12
	BYTE		N07     Gn1   v120
	BYTE	W06
	BYTE		        Fs1 
	BYTE	W06
	BYTE		        Gn1   v124
	BYTE	W06
	BYTE		        An1 
	BYTE	W06
	BYTE		        As1   v127
	BYTE	W06
	BYTE		        Dn2 
	BYTE	W06
	BYTE		N04     Cs2 
	BYTE	W18
	BYTE		N10     An1 
	BYTE	W12
	BYTE		N07     Dn2 
	BYTE	W06
	BYTE		        En2 
	BYTE	W06
	BYTE		        Fn2 
	BYTE	W06
// 028   ----------------------------------------
	BYTE	W01
	BYTE	GoTo
	 POIN2	FE11CombatMissionSme_2_B1
FE11CombatMissionSme_2_B2:
	BYTE	FINE

//**************** Track 3 (Midi-Chn.3) ****************//

FE11CombatMissionSme_3:
	BYTE	KEYSH   FE11CombatMissionSme_key+0
FE11CombatMissionSme_3_B1:
// 000   ----------------------------------------
	BYTE		VOICE   40
	BYTE		VOL     66*FE11CombatMissionSme_mvl/mxv
	BYTE		PAN     c_v-25
	BYTE		N06     Gn3   v104
	BYTE		N06     As3 
	BYTE	W06
	BYTE		        Gn3   v052
	BYTE		N06     As3 
	BYTE	W12
	BYTE		        Gn3   v088
	BYTE		N06     As3 
	BYTE	W06
	BYTE		        Gn3   v044
	BYTE		N06     As3 
	BYTE	W12
	BYTE		        Gn3   v100
	BYTE		N06     As3 
	BYTE	W06
	BYTE		        Gn3   v052
	BYTE		N06     As3 
	BYTE	W12
	BYTE		        Gn3   v088
	BYTE		N06     As3 
	BYTE	W06
	BYTE		        Gn3   v044
	BYTE		N06     As3 
	BYTE	W12
	BYTE		        Gn3   v100
	BYTE		N06     As3 
	BYTE	W06
	BYTE		        Gn3   v052
	BYTE		N06     As3 
	BYTE	W06
	BYTE		        Gn3   v088
	BYTE		N06     As3 
	BYTE	W06
	BYTE		        Gn3   v044
	BYTE		N06     As3 
	BYTE	W06
// 001   ----------------------------------------
FE11CombatMissionSme_3_001:
	BYTE		N06     Gn3   v104
	BYTE		N06     Cn4 
	BYTE	W06
	BYTE		        Gn3   v052
	BYTE		N06     Cn4 
	BYTE	W12
	BYTE		        Gn3   v088
	BYTE		N06     Cn4 
	BYTE	W06
	BYTE		        Gn3   v044
	BYTE		N06     Cn4 
	BYTE	W12
	BYTE		        Gn3   v100
	BYTE		N06     Cn4 
	BYTE	W06
	BYTE		        Gn3   v052
	BYTE		N06     Cn4 
	BYTE	W12
	BYTE		        Gn3   v088
	BYTE		N06     Cn4 
	BYTE	W06
	BYTE		        Gn3   v044
	BYTE		N06     Cn4 
	BYTE	W12
	BYTE		        Gn3   v100
	BYTE		N06     Cn4 
	BYTE	W06
	BYTE		        Gn3   v052
	BYTE		N06     Cn4 
	BYTE	W06
	BYTE		        Gn3   v088
	BYTE		N06     Cn4 
	BYTE	W06
	BYTE		        Gn3   v044
	BYTE		N06     Cn4 
	BYTE	W06
	BYTE	PEND
// 002   ----------------------------------------
FE11CombatMissionSme_3_002:
	BYTE		N06     Fn3   v104
	BYTE		N06     Cn4 
	BYTE	W06
	BYTE		        Fn3   v052
	BYTE		N06     Cn4 
	BYTE	W12
	BYTE		        Fn3   v088
	BYTE		N06     Cn4 
	BYTE	W06
	BYTE		        Fn3   v044
	BYTE		N06     Cn4 
	BYTE	W12
	BYTE		        Fn3   v100
	BYTE		N06     Cn4 
	BYTE	W06
	BYTE		        Fn3   v052
	BYTE		N06     Cn4 
	BYTE	W12
	BYTE		        Fn3   v088
	BYTE		N06     Cn4 
	BYTE	W06
	BYTE		        Fn3   v044
	BYTE		N06     Cn4 
	BYTE	W12
	BYTE		        Fn3   v100
	BYTE		N06     Cn4 
	BYTE	W06
	BYTE		        Fn3   v052
	BYTE		N06     Cn4 
	BYTE	W06
	BYTE		        Fs3   v088
	BYTE		N06     Cs4 
	BYTE	W06
	BYTE		        Fs3   v044
	BYTE		N06     Cs4 
	BYTE	W06
	BYTE	PEND
// 003   ----------------------------------------
FE11CombatMissionSme_3_003:
	BYTE		N06     Gn3   v104
	BYTE		N06     Dn4 
	BYTE	W06
	BYTE		        Gn3   v052
	BYTE		N06     Dn4 
	BYTE	W12
	BYTE		        Gn3   v088
	BYTE		N06     Dn4 
	BYTE	W06
	BYTE		        Gn3   v044
	BYTE		N06     Dn4 
	BYTE	W12
	BYTE		        Gn3   v100
	BYTE		N06     Dn4 
	BYTE	W06
	BYTE		        Gn3   v052
	BYTE		N06     Dn4 
	BYTE	W12
	BYTE		        Gn3   v088
	BYTE		N06     Dn4 
	BYTE	W06
	BYTE		        Gn3   v044
	BYTE		N06     Dn4 
	BYTE	W12
	BYTE		N03     An1   v112
	BYTE	W04
	BYTE		        As1 
	BYTE	W04
	BYTE		        Cn2 
	BYTE	W04
	BYTE		        Dn2 
	BYTE	W04
	BYTE		        Ds2 
	BYTE	W04
	BYTE		        Fn2 
	BYTE	W04
	BYTE	PEND
// 004   ----------------------------------------
	BYTE		N06     Gn3   v104
	BYTE		N06     As3 
	BYTE	W06
	BYTE		        Gn3   v052
	BYTE		N06     As3 
	BYTE	W12
	BYTE		        Gn3   v088
	BYTE		N06     As3 
	BYTE	W06
	BYTE		        Gn3   v044
	BYTE		N06     As3 
	BYTE	W12
	BYTE		        Gn3   v100
	BYTE		N06     As3 
	BYTE	W06
	BYTE		        Gn3   v052
	BYTE		N06     As3 
	BYTE	W12
	BYTE		        Gn3   v088
	BYTE		N06     As3 
	BYTE	W06
	BYTE		        Gn3   v044
	BYTE		N06     As3 
	BYTE	W12
	BYTE		        Gn3   v100
	BYTE		N06     As3 
	BYTE	W06
	BYTE		        Gn3   v052
	BYTE		N06     As3 
	BYTE	W06
	BYTE		        Gn3   v088
	BYTE		N06     As3 
	BYTE	W06
	BYTE		        Gn3   v044
	BYTE		N06     As3 
	BYTE	W06
// 005   ----------------------------------------
	BYTE	PATT
	 POIN2	FE11CombatMissionSme_3_001
// 006   ----------------------------------------
	BYTE	PATT
	 POIN2	FE11CombatMissionSme_3_002
// 007   ----------------------------------------
	BYTE	PATT
	 POIN2	FE11CombatMissionSme_3_003
// 008   ----------------------------------------
	BYTE		N84     Gn2   v108
	BYTE	W84
	BYTE	W03
	BYTE		N02     Gs2   v116
	BYTE	W03
	BYTE		        As2 
	BYTE	W03
	BYTE		        Cn3 
	BYTE	W03
// 009   ----------------------------------------
	BYTE		N84     Fs2   v100
	BYTE		N84     Dn3   v096
	BYTE	W88
	BYTE		N05     Fs2   v044
	BYTE		N05     Dn3 
	BYTE	W08
// 010   ----------------------------------------
	BYTE	W06
	BYTE		N88     Cn3   v096
	BYTE	W09
	BYTE	W03
	BYTE	W03
	BYTE	W03
	BYTE	W03
	BYTE	W03
	BYTE	W03
	BYTE	W03
	BYTE	W03
	BYTE	W03
	BYTE	W03
	BYTE	W03
	BYTE	W03
	BYTE	W03
	BYTE	W03
	BYTE	W03
	BYTE	W03
	BYTE	W03
	BYTE	W03
	BYTE	W03
	BYTE	W03
	BYTE	W03
	BYTE	W03
	BYTE	W03
	BYTE	W03
	BYTE	W03
	BYTE	W03
	BYTE	W03
// 011   ----------------------------------------
	BYTE		N23     An1   v104
	BYTE	W03
	BYTE	W03
	BYTE	W03
	BYTE	W03
	BYTE	W03
	BYTE	W03
	BYTE	W03
	BYTE	W03
	BYTE		        Cn2 
	BYTE	W03
	BYTE	W03
	BYTE	W03
	BYTE	W03
	BYTE	W03
	BYTE	W03
	BYTE	W03
	BYTE	W03
	BYTE		        Dn2   v108
	BYTE	W03
	BYTE	W03
	BYTE	W03
	BYTE	W03
	BYTE	W03
	BYTE	W03
	BYTE	W06
	BYTE		        Ds2   v120
	BYTE	W24
// 012   ----------------------------------------
FE11CombatMissionSme_3_012:
	BYTE		N06     As3   v100
	BYTE	W06
	BYTE		        As3   v048
	BYTE	W12
	BYTE		        As3   v088
	BYTE	W06
	BYTE		        As3   v040
	BYTE	W12
	BYTE		        As3   v096
	BYTE	W06
	BYTE		        As3   v048
	BYTE	W12
	BYTE		        As3   v088
	BYTE	W06
	BYTE		        As3   v040
	BYTE	W12
	BYTE		        As3   v096
	BYTE	W06
	BYTE		        As3   v048
	BYTE	W06
	BYTE		        As3   v088
	BYTE	W06
	BYTE		        As3   v040
	BYTE	W06
	BYTE	PEND
// 013   ----------------------------------------
FE11CombatMissionSme_3_013:
	BYTE		N06     Cn4   v100
	BYTE	W06
	BYTE		        Cn4   v048
	BYTE	W12
	BYTE		        Cn4   v088
	BYTE	W06
	BYTE		        Cn4   v040
	BYTE	W12
	BYTE		        Cn4   v096
	BYTE	W06
	BYTE		        Cn4   v048
	BYTE	W12
	BYTE		        Cn4   v088
	BYTE	W06
	BYTE		        Cn4   v040
	BYTE	W12
	BYTE		        Cn4   v096
	BYTE	W06
	BYTE		        Cn4   v048
	BYTE	W06
	BYTE		        Cn4   v088
	BYTE	W06
	BYTE		        Cn4   v040
	BYTE	W06
	BYTE	PEND
// 014   ----------------------------------------
FE11CombatMissionSme_3_014:
	BYTE		N06     Cn4   v100
	BYTE	W06
	BYTE		        Cn4   v048
	BYTE	W12
	BYTE		        Cn4   v088
	BYTE	W06
	BYTE		        Cn4   v040
	BYTE	W12
	BYTE		        Cn4   v096
	BYTE	W06
	BYTE		        Cn4   v048
	BYTE	W12
	BYTE		        Cn4   v088
	BYTE	W06
	BYTE		        Cn4   v040
	BYTE	W12
	BYTE		        Cn4   v096
	BYTE	W06
	BYTE		        Cn4   v048
	BYTE	W06
	BYTE		        Cs4   v088
	BYTE	W06
	BYTE		        Cs4   v040
	BYTE	W06
	BYTE	PEND
// 015   ----------------------------------------
	BYTE		        Cn4   v100
	BYTE	W06
	BYTE		        Cn4   v048
	BYTE	W12
	BYTE		        Cn4   v088
	BYTE	W06
	BYTE		        Cn4   v040
	BYTE	W12
	BYTE		        Cn4   v096
	BYTE	W06
	BYTE		        Cn4   v048
	BYTE	W12
	BYTE		        Cn4   v088
	BYTE	W06
	BYTE		        Cn4   v040
	BYTE	W12
	BYTE		        Cn4   v088
	BYTE	W06
	BYTE		        Cn4   v040
	BYTE	W06
	BYTE		        Cn4   v088
	BYTE	W06
	BYTE		        Cn4   v040
	BYTE	W06
// 016   ----------------------------------------
	BYTE	PATT
	 POIN2	FE11CombatMissionSme_3_012
// 017   ----------------------------------------
	BYTE	PATT
	 POIN2	FE11CombatMissionSme_3_013
// 018   ----------------------------------------
	BYTE	PATT
	 POIN2	FE11CombatMissionSme_3_014
// 019   ----------------------------------------
	BYTE		N06     Cn4   v100
	BYTE	W06
	BYTE		        Cn4   v048
	BYTE	W12
	BYTE		        Cn4   v088
	BYTE	W06
	BYTE		        Cn4   v040
	BYTE	W12
	BYTE		        Cn4   v096
	BYTE	W06
	BYTE		        Cn4   v048
	BYTE	W12
	BYTE		        Cn4   v088
	BYTE	W06
	BYTE		        Cn4   v040
	BYTE	W36
// 020   ----------------------------------------
	BYTE		N92     Dn1   v100
	BYTE		TIE     An1 
	BYTE	W03
	BYTE	W03
	BYTE	W03
	BYTE	W03
	BYTE	W03
	BYTE	W03
	BYTE	W03
	BYTE	W03
	BYTE	W03
	BYTE	W03
	BYTE	W03
	BYTE	W03
	BYTE	W03
	BYTE	W03
	BYTE	W03
	BYTE	W03
	BYTE	W03
	BYTE	W03
	BYTE	W03
	BYTE	W03
	BYTE	W03
	BYTE	W03
	BYTE	W03
	BYTE	W03
	BYTE	W03
	BYTE	W03
	BYTE	W03
	BYTE	W15
// 021   ----------------------------------------
	BYTE		N92     Dn1 
	BYTE	W14
	BYTE		EOT     An1 
	BYTE	W04
	BYTE		N05     An1   v040
	BYTE	W03
	BYTE	W03
	BYTE		N44     As1   v096
	BYTE	W03
	BYTE	W03
	BYTE	W03
	BYTE	W03
	BYTE	W03
	BYTE	W03
	BYTE	W03
	BYTE	W03
	BYTE	W03
	BYTE	W03
	BYTE	W03
	BYTE	W03
	BYTE	W03
	BYTE	W03
	BYTE	W03
	BYTE	W03
	BYTE		        An1   v116
	BYTE	W03
	BYTE	W03
	BYTE	W03
	BYTE	W03
	BYTE	W03
	BYTE	W03
	BYTE	W02
	BYTE	W02
	BYTE	W01
	BYTE	W01
// 022   ----------------------------------------
	BYTE		N92     Dn1   v100
	BYTE	W01
	BYTE	W01
	BYTE	W02
	BYTE	W01
	BYTE	W02
	BYTE	W01
	BYTE	W02
	BYTE	W01
	BYTE	W02
	BYTE	W01
	BYTE	W02
	BYTE	W01
	BYTE	W02
	BYTE	W01
	BYTE	W02
	BYTE	W01
	BYTE	W01
	BYTE		N44     Gn1   v096
	BYTE	W01
	BYTE	W01
	BYTE	W02
	BYTE	W01
	BYTE	W02
	BYTE	W01
	BYTE	W02
	BYTE	W01
	BYTE	W02
	BYTE	W01
	BYTE	W02
	BYTE	W01
	BYTE	W02
	BYTE	W01
	BYTE	W02
	BYTE	W01
	BYTE	W02
	BYTE	W01
	BYTE	W02
	BYTE	W01
	BYTE	W02
	BYTE	W01
	BYTE	W01
	BYTE	W15
	BYTE		        Fn1 
	BYTE	W09
	BYTE	W03
	BYTE	W03
	BYTE	W03
	BYTE	W03
	BYTE	W03
// 023   ----------------------------------------
	BYTE		        Dn1   v100
	BYTE	W03
	BYTE	W03
	BYTE	W03
	BYTE	W03
	BYTE	W03
	BYTE	W03
	BYTE	W03
	BYTE	W03
	BYTE		N68     En1   v096
	BYTE	W03
	BYTE	W03
	BYTE	W03
	BYTE	W03
	BYTE	W03
	BYTE	W03
	BYTE	W03
	BYTE	W02
	BYTE	W01
	BYTE		N44     Cs1 
	BYTE	W02
	BYTE	W01
	BYTE	W02
	BYTE	W01
	BYTE	W02
	BYTE	W01
	BYTE	W02
	BYTE	W01
	BYTE	W02
	BYTE	W01
	BYTE	W02
	BYTE	W01
	BYTE	W02
	BYTE	W01
	BYTE	W02
	BYTE	W01
	BYTE	W02
	BYTE	W01
	BYTE	W02
	BYTE	W01
	BYTE	W02
	BYTE	W01
	BYTE	W02
	BYTE	W01
	BYTE	W02
	BYTE	W01
	BYTE	W02
	BYTE	W01
	BYTE	W06
// 024   ----------------------------------------
	BYTE		N06     Fn3   v100
	BYTE		N06     An3 
	BYTE	W06
	BYTE		        Fn3   v048
	BYTE		N06     An3 
	BYTE	W12
	BYTE		        Fn3   v084
	BYTE		N06     An3 
	BYTE	W06
	BYTE		        Fn3   v040
	BYTE		N06     An3 
	BYTE	W12
	BYTE		        Fn3   v096
	BYTE		N06     An3 
	BYTE	W06
	BYTE		        Fn3   v048
	BYTE		N06     An3 
	BYTE	W12
	BYTE		        Fn3   v084
	BYTE		N06     An3 
	BYTE	W06
	BYTE		        Fn3   v040
	BYTE		N06     An3 
	BYTE	W12
	BYTE		        Fn3   v096
	BYTE		N06     An3 
	BYTE	W06
	BYTE		        Fn3   v048
	BYTE		N06     An3 
	BYTE	W06
	BYTE		        Fn3   v084
	BYTE		N06     An3 
	BYTE	W06
	BYTE		        Fn3   v040
	BYTE		N06     An3 
	BYTE	W06
// 025   ----------------------------------------
	BYTE		        Fn3   v100
	BYTE		N06     An3 
	BYTE	W06
	BYTE		        Fn3   v048
	BYTE		N06     An3 
	BYTE	W12
	BYTE		        Fn3   v084
	BYTE		N06     An3 
	BYTE	W06
	BYTE		        Fn3   v040
	BYTE		N06     An3 
	BYTE	W12
	BYTE		        Fn3   v096
	BYTE		N06     An3 
	BYTE	W06
	BYTE		        Fn3   v048
	BYTE		N06     An3 
	BYTE	W12
	BYTE		        An3   v084
	BYTE		N06     Gn4 
	BYTE	W06
	BYTE		        An3   v040
	BYTE		N06     Gn4 
	BYTE	W12
	BYTE		        An3   v096
	BYTE		N06     Gn4 
	BYTE	W06
	BYTE		        An3   v048
	BYTE		N06     Gn4 
	BYTE	W06
	BYTE		        An3   v084
	BYTE		N06     Gn4 
	BYTE	W06
	BYTE		        An3   v040
	BYTE		N06     Gn4 
	BYTE	W06
// 026   ----------------------------------------
	BYTE		        As3   v100
	BYTE		N06     Gn4 
	BYTE	W06
	BYTE		        As3   v048
	BYTE		N06     Gn4 
	BYTE	W12
	BYTE		        As3   v084
	BYTE		N06     Fn4 
	BYTE	W06
	BYTE		        As3   v040
	BYTE		N06     Fn4 
	BYTE	W12
	BYTE		        As3   v096
	BYTE		N06     En4 
	BYTE	W06
	BYTE		        As3   v048
	BYTE		N06     En4 
	BYTE	W12
	BYTE		        As3   v092
	BYTE		N06     Dn4 
	BYTE	W06
	BYTE		        As3   v040
	BYTE		N06     Dn4 
	BYTE	W06
	BYTE		        An3   v092
	BYTE		N06     Cn4 
	BYTE	W06
	BYTE		        An3   v040
	BYTE		N06     Cn4 
	BYTE	W12
	BYTE		        Gn3   v092
	BYTE		N06     As3 
	BYTE	W06
	BYTE		        Gn3   v040
	BYTE		N06     As3 
	BYTE	W06
// 027   ----------------------------------------
	BYTE	W12
	BYTE		N05     As3   v112
	BYTE	W06
	BYTE		        An3   v088
	BYTE	W06
	BYTE		        As3   v092
	BYTE	W06
	BYTE		        Cn4   v096
	BYTE	W06
	BYTE		        Dn4   v112
	BYTE	W06
	BYTE		        Fn4 
	BYTE	W06
	BYTE		        En4   v104
	BYTE	W06
	BYTE		        Cs4   v116
	BYTE	W06
	BYTE		        Cn4   v100
	BYTE	W06
	BYTE		        Cs4   v092
	BYTE	W06
	BYTE		        En4   v104
	BYTE	W06
	BYTE		        Fn4   v092
	BYTE	W06
	BYTE		        Gn4   v096
	BYTE	W06
	BYTE		        An4   v100
	BYTE	W06
// 028   ----------------------------------------
	BYTE	W01
	BYTE	GoTo
	 POIN2	FE11CombatMissionSme_3_B1
FE11CombatMissionSme_3_B2:
	BYTE	FINE

//**************** Track 4 (Midi-Chn.4) ****************//

FE11CombatMissionSme_4:
	BYTE	KEYSH   FE11CombatMissionSme_key+0
FE11CombatMissionSme_4_B1:
// 000   ----------------------------------------
	BYTE		VOICE   60
	BYTE		VOL     113*FE11CombatMissionSme_mvl/mxv
	BYTE		PAN     c_v-10
	BYTE		N06     Dn4   v116
	BYTE	W06
	BYTE		        Cn4   v092
	BYTE	W06
	BYTE		        As3   v084
	BYTE	W06
	BYTE		        An3   v092
	BYTE	W06
	BYTE		        As3   v096
	BYTE	W06
	BYTE		        Gn3   v084
	BYTE	W06
	BYTE		        Dn4   v108
	BYTE	W06
	BYTE		        Cn4   v080
	BYTE	W06
	BYTE		        As3   v092
	BYTE	W06
	BYTE		        An3   v080
	BYTE	W06
	BYTE		        As3   v084
	BYTE	W06
	BYTE		        Gn3   v096
	BYTE	W06
	BYTE		        Dn4   v108
	BYTE	W06
	BYTE		        Cn4   v096
	BYTE	W06
	BYTE		        As3   v076
	BYTE	W06
	BYTE		        An3   v088
	BYTE	W06
// 001   ----------------------------------------
FE11CombatMissionSme_4_001:
	BYTE		N06     As3   v088
	BYTE	W06
	BYTE		        Gn3   v096
	BYTE	W06
	BYTE		        Dn4   v108
	BYTE	W06
	BYTE		        Cn4   v092
	BYTE	W06
	BYTE		        As3 
	BYTE	W06
	BYTE		        An3   v084
	BYTE	W06
	BYTE		        As3 
	BYTE	W06
	BYTE		        Gn3   v092
	BYTE	W06
	BYTE		        Dn4   v108
	BYTE	W06
	BYTE		        Cn4   v092
	BYTE	W06
	BYTE		        As3   v080
	BYTE	W06
	BYTE		        An3   v084
	BYTE	W06
	BYTE		        As3   v076
	BYTE	W06
	BYTE		        Gn3   v100
	BYTE	W06
	BYTE		        Dn4   v104
	BYTE	W06
	BYTE		        Cn4   v088
	BYTE	W06
	BYTE	PEND
// 002   ----------------------------------------
FE11CombatMissionSme_4_002:
	BYTE		N06     As3   v104
	BYTE	W06
	BYTE		        Dn4   v068
	BYTE	W06
	BYTE		        An3   v096
	BYTE	W06
	BYTE		        Dn4   v076
	BYTE	W06
	BYTE		        Gn3   v096
	BYTE	W06
	BYTE		        Dn4   v080
	BYTE	W06
	BYTE		        An3   v100
	BYTE	W06
	BYTE		        Dn4   v072
	BYTE	W06
	BYTE		        As3   v100
	BYTE	W06
	BYTE		        Dn4   v080
	BYTE	W06
	BYTE		        Cn4   v100
	BYTE	W06
	BYTE		        Dn4   v072
	BYTE	W06
	BYTE		        As3   v096
	BYTE	W06
	BYTE		        Dn4   v068
	BYTE	W06
	BYTE		        An3   v092
	BYTE	W06
	BYTE		        Dn4   v072
	BYTE	W06
	BYTE	PEND
// 003   ----------------------------------------
FE11CombatMissionSme_4_003:
	BYTE		N06     As3   v104
	BYTE	W06
	BYTE		        Dn4   v088
	BYTE	W06
	BYTE		        An3   v096
	BYTE	W06
	BYTE		        Dn4   v080
	BYTE	W06
	BYTE		        Gn3   v104
	BYTE	W06
	BYTE		        Dn4   v080
	BYTE	W06
	BYTE		        Fs3   v100
	BYTE	W06
	BYTE		        Dn4   v064
	BYTE	W06
	BYTE		        Gn3   v096
	BYTE	W06
	BYTE		        Dn4   v072
	BYTE	W06
	BYTE		        An3   v100
	BYTE	W06
	BYTE		        Dn4   v080
	BYTE	W06
	BYTE		N03     As3   v084
	BYTE	W03
	BYTE		        Cn4 
	BYTE	W03
	BYTE		        As3 
	BYTE	W03
	BYTE		        Cn4 
	BYTE	W03
	BYTE		N06     An3   v104
	BYTE	W06
	BYTE		        As3   v096
	BYTE	W06
	BYTE	PEND
// 004   ----------------------------------------
	BYTE		        Dn4   v116
	BYTE	W06
	BYTE		        Cn4   v092
	BYTE	W06
	BYTE		        As3   v084
	BYTE	W06
	BYTE		        An3   v092
	BYTE	W06
	BYTE		        As3   v096
	BYTE	W06
	BYTE		        Gn3   v084
	BYTE	W06
	BYTE		        Dn4   v108
	BYTE	W06
	BYTE		        Cn4   v080
	BYTE	W06
	BYTE		        As3   v092
	BYTE	W06
	BYTE		        An3   v080
	BYTE	W06
	BYTE		        As3   v084
	BYTE	W06
	BYTE		        Gn3   v096
	BYTE	W06
	BYTE		        Dn4   v108
	BYTE	W06
	BYTE		        Cn4   v096
	BYTE	W06
	BYTE		        As3   v076
	BYTE	W06
	BYTE		        An3   v088
	BYTE	W06
// 005   ----------------------------------------
	BYTE	PATT
	 POIN2	FE11CombatMissionSme_4_001
// 006   ----------------------------------------
	BYTE	PATT
	 POIN2	FE11CombatMissionSme_4_002
// 007   ----------------------------------------
	BYTE	PATT
	 POIN2	FE11CombatMissionSme_4_003
// 008   ----------------------------------------
	BYTE	W96
// 009   ----------------------------------------
	BYTE	W96
// 010   ----------------------------------------
	BYTE	W96
// 011   ----------------------------------------
	BYTE	W96
// 012   ----------------------------------------
	BYTE		PAN     c_v-11
	BYTE		N03     Dn5   v127
	BYTE	W03
	BYTE		        Dn5   v052
	BYTE	W03
	BYTE		        Cn5   v104
	BYTE	W03
	BYTE		        Cn5   v044
	BYTE	W03
	BYTE		        As4   v096
	BYTE	W03
	BYTE		        As4   v044
	BYTE	W03
	BYTE		        An4   v104
	BYTE	W03
	BYTE		        An4   v044
	BYTE	W03
	BYTE		        As4   v112
	BYTE	W03
	BYTE		        As4   v048
	BYTE	W03
	BYTE		        Gn4   v096
	BYTE	W03
	BYTE		        Gn4   v044
	BYTE	W03
	BYTE		        Dn5   v124
	BYTE	W03
	BYTE		        Dn5   v052
	BYTE	W03
	BYTE		        Cn5   v092
	BYTE	W03
	BYTE		        Cn5   v040
	BYTE	W03
	BYTE		        As4   v108
	BYTE	W03
	BYTE		        As4   v044
	BYTE	W03
	BYTE		        An4   v092
	BYTE	W03
	BYTE		        An4   v040
	BYTE	W03
	BYTE		        As4   v096
	BYTE	W03
	BYTE		        As4   v040
	BYTE	W03
	BYTE		        Gn4   v108
	BYTE	W03
	BYTE		        Gn4   v044
	BYTE	W03
	BYTE		        Dn5   v120
	BYTE	W03
	BYTE		        Dn5   v052
	BYTE	W03
	BYTE		        Cn5   v108
	BYTE	W03
	BYTE		        Cn5   v048
	BYTE	W03
	BYTE		        As4   v088
	BYTE	W03
	BYTE		        As4   v040
	BYTE	W03
	BYTE		        An4   v100
	BYTE	W03
	BYTE		        An4   v044
	BYTE	W03
// 013   ----------------------------------------
FE11CombatMissionSme_4_013:
	BYTE		N03     As4   v104
	BYTE	W03
	BYTE		        As4   v044
	BYTE	W03
	BYTE		        Gn4   v112
	BYTE	W03
	BYTE		        Gn4   v048
	BYTE	W03
	BYTE		        Dn5   v124
	BYTE	W03
	BYTE		        Dn5   v052
	BYTE	W03
	BYTE		        Cn5   v108
	BYTE	W03
	BYTE		        Cn5   v044
	BYTE	W03
	BYTE		        As4   v108
	BYTE	W03
	BYTE		        As4   v044
	BYTE	W03
	BYTE		        An4   v096
	BYTE	W03
	BYTE		        An4   v040
	BYTE	W03
	BYTE		        As4   v096
	BYTE	W03
	BYTE		        As4   v040
	BYTE	W03
	BYTE		        Gn4   v104
	BYTE	W03
	BYTE		        Gn4   v044
	BYTE	W03
	BYTE		        Dn5   v124
	BYTE	W03
	BYTE		        Dn5   v052
	BYTE	W03
	BYTE		        Cn5   v104
	BYTE	W03
	BYTE		        Cn5   v044
	BYTE	W03
	BYTE		        As4   v092
	BYTE	W03
	BYTE		        As4   v040
	BYTE	W03
	BYTE		        An4   v096
	BYTE	W03
	BYTE		        An4   v044
	BYTE	W03
	BYTE		        As4   v088
	BYTE	W03
	BYTE		        As4   v040
	BYTE	W03
	BYTE		        Gn4   v112
	BYTE	W03
	BYTE		        Gn4   v048
	BYTE	W03
	BYTE		        Dn5   v116
	BYTE	W03
	BYTE		        Dn5   v048
	BYTE	W03
	BYTE		        Cn5   v104
	BYTE	W03
	BYTE		        Cn5   v044
	BYTE	W03
	BYTE	PEND
// 014   ----------------------------------------
FE11CombatMissionSme_4_014:
	BYTE		N03     As4   v116
	BYTE	W03
	BYTE		        As4   v048
	BYTE	W03
	BYTE		        Dn5   v080
	BYTE	W03
	BYTE		        Dn5   v036
	BYTE	W03
	BYTE		        An4   v112
	BYTE	W03
	BYTE		        An4   v048
	BYTE	W03
	BYTE		        Dn5   v088
	BYTE	W03
	BYTE		        Dn5   v040
	BYTE	W03
	BYTE		        Gn4   v112
	BYTE	W03
	BYTE		        Gn4   v048
	BYTE	W03
	BYTE		        Dn5   v096
	BYTE	W03
	BYTE		        Dn5   v040
	BYTE	W03
	BYTE		        An4   v112
	BYTE	W03
	BYTE		        An4   v048
	BYTE	W03
	BYTE		        Dn5   v080
	BYTE	W03
	BYTE		        Dn5   v036
	BYTE	W03
	BYTE		        As4   v116
	BYTE	W03
	BYTE		        As4   v048
	BYTE	W03
	BYTE		        Dn5   v092
	BYTE	W03
	BYTE		        Dn5   v040
	BYTE	W03
	BYTE		        Cn5   v116
	BYTE	W03
	BYTE		        Cn5   v048
	BYTE	W03
	BYTE		        Dn5   v084
	BYTE	W03
	BYTE		        Dn5   v036
	BYTE	W03
	BYTE		        As4   v108
	BYTE	W03
	BYTE		        As4   v044
	BYTE	W03
	BYTE		        Dn5   v080
	BYTE	W03
	BYTE		        Dn5   v036
	BYTE	W03
	BYTE		        An4   v108
	BYTE	W03
	BYTE		        An4   v044
	BYTE	W03
	BYTE		        Dn5   v080
	BYTE	W03
	BYTE		        Dn5   v036
	BYTE	W03
	BYTE	PEND
// 015   ----------------------------------------
	BYTE		        As4   v120
	BYTE	W03
	BYTE		        As4   v048
	BYTE	W03
	BYTE		        Dn5   v104
	BYTE	W03
	BYTE		        Dn5   v044
	BYTE	W03
	BYTE		        An4   v112
	BYTE	W03
	BYTE		        An4   v048
	BYTE	W03
	BYTE		        Dn5   v092
	BYTE	W03
	BYTE		        Dn5   v040
	BYTE	W03
	BYTE		        Gn4   v120
	BYTE	W03
	BYTE		        Gn4   v048
	BYTE	W03
	BYTE		        Dn5   v092
	BYTE	W03
	BYTE		        Dn5   v040
	BYTE	W03
	BYTE		        Fs4   v116
	BYTE	W03
	BYTE		        Fs4   v048
	BYTE	W03
	BYTE		        Dn5   v076
	BYTE	W03
	BYTE		        Dn5   v036
	BYTE	W03
	BYTE		        Gn4   v108
	BYTE	W03
	BYTE		        Gn4   v044
	BYTE	W03
	BYTE		        Dn5   v084
	BYTE	W03
	BYTE		        Dn5   v040
	BYTE	W03
	BYTE		        An4   v112
	BYTE	W03
	BYTE		        An4   v048
	BYTE	W03
	BYTE		        Dn5   v092
	BYTE	W03
	BYTE		        Dn5   v040
	BYTE	W03
	BYTE		        As4   v088
	BYTE	W03
	BYTE		        Cn5 
	BYTE	W03
	BYTE		        As4 
	BYTE	W03
	BYTE		        Cn5 
	BYTE	W03
	BYTE		        An4   v120
	BYTE	W03
	BYTE		        An4   v048
	BYTE	W03
	BYTE		        As4   v108
	BYTE	W03
	BYTE		        As4   v044
	BYTE	W03
// 016   ----------------------------------------
	BYTE		        Dn5   v127
	BYTE	W03
	BYTE		        Dn5   v052
	BYTE	W03
	BYTE		        Cn5   v104
	BYTE	W03
	BYTE		        Cn5   v044
	BYTE	W03
	BYTE		        As4   v096
	BYTE	W03
	BYTE		        As4   v044
	BYTE	W03
	BYTE		        An4   v104
	BYTE	W03
	BYTE		        An4   v044
	BYTE	W03
	BYTE		        As4   v112
	BYTE	W03
	BYTE		        As4   v048
	BYTE	W03
	BYTE		        Gn4   v096
	BYTE	W03
	BYTE		        Gn4   v044
	BYTE	W03
	BYTE		        Dn5   v124
	BYTE	W03
	BYTE		        Dn5   v052
	BYTE	W03
	BYTE		        Cn5   v092
	BYTE	W03
	BYTE		        Cn5   v040
	BYTE	W03
	BYTE		        As4   v108
	BYTE	W03
	BYTE		        As4   v044
	BYTE	W03
	BYTE		        An4   v092
	BYTE	W03
	BYTE		        An4   v040
	BYTE	W03
	BYTE		        As4   v096
	BYTE	W03
	BYTE		        As4   v040
	BYTE	W03
	BYTE		        Gn4   v108
	BYTE	W03
	BYTE		        Gn4   v044
	BYTE	W03
	BYTE		        Dn5   v120
	BYTE	W03
	BYTE		        Dn5   v052
	BYTE	W03
	BYTE		        Cn5   v108
	BYTE	W03
	BYTE		        Cn5   v048
	BYTE	W03
	BYTE		        As4   v088
	BYTE	W03
	BYTE		        As4   v040
	BYTE	W03
	BYTE		        An4   v100
	BYTE	W03
	BYTE		        An4   v044
	BYTE	W03
// 017   ----------------------------------------
	BYTE	PATT
	 POIN2	FE11CombatMissionSme_4_013
// 018   ----------------------------------------
	BYTE	PATT
	 POIN2	FE11CombatMissionSme_4_014
// 019   ----------------------------------------
	BYTE		N03     As4   v120
	BYTE	W03
	BYTE		        As4   v048
	BYTE	W03
	BYTE		        Dn5   v104
	BYTE	W03
	BYTE		        Dn5   v044
	BYTE	W03
	BYTE		        An4   v112
	BYTE	W03
	BYTE		        An4   v048
	BYTE	W03
	BYTE		        Dn5   v092
	BYTE	W03
	BYTE		        Dn5   v040
	BYTE	W03
	BYTE		        Gn4   v120
	BYTE	W03
	BYTE		        Gn4   v048
	BYTE	W03
	BYTE		        Dn5   v092
	BYTE	W03
	BYTE		        Dn5   v040
	BYTE	W03
	BYTE		        Fs4   v116
	BYTE	W03
	BYTE		        Fs4   v048
	BYTE	W03
	BYTE		        Dn5   v076
	BYTE	W03
	BYTE		        Dn5   v036
	BYTE	W03
	BYTE		        Gn4   v108
	BYTE	W03
	BYTE		        Gn4   v044
	BYTE	W03
	BYTE		        Dn5   v084
	BYTE	W03
	BYTE		        Dn5   v040
	BYTE	W03
	BYTE		        An4   v112
	BYTE	W03
	BYTE		        An4   v048
	BYTE	W03
	BYTE		        Dn5   v092
	BYTE	W03
	BYTE		        Dn5   v040
	BYTE	W03
	BYTE		        As4   v088
	BYTE	W03
	BYTE		        As4   v040
	BYTE		N03     Cn5   v088
	BYTE	W03
	BYTE		        As4 
	BYTE		N03     Cn5   v040
	BYTE	W03
	BYTE		        As4 
	BYTE		N03     Cn5   v088
	BYTE	W03
	BYTE		        An4   v120
	BYTE		N03     Cn5   v040
	BYTE	W03
	BYTE		        An4   v048
	BYTE	W03
	BYTE		        As4   v112
	BYTE	W03
	BYTE		        As4   v048
	BYTE	W03
// 020   ----------------------------------------
	BYTE	W96
// 021   ----------------------------------------
	BYTE	W96
// 022   ----------------------------------------
	BYTE	W96
// 023   ----------------------------------------
	BYTE	W96
// 024   ----------------------------------------
	BYTE		PAN     c_v+0
	BYTE	W12
	BYTE		N05     Dn3   v084
	BYTE	W06
	BYTE		        Cs3 
	BYTE	W06
	BYTE		        Dn3   v088
	BYTE	W06
	BYTE		        En3   v084
	BYTE	W06
	BYTE		        Fn3   v088
	BYTE	W06
	BYTE		        Gn3 
	BYTE	W06
	BYTE		        An3 
	BYTE	W06
	BYTE		        As3   v084
	BYTE	W06
	BYTE		        Cs4 
	BYTE	W06
	BYTE		        As3   v080
	BYTE	W06
	BYTE		        An3 
	BYTE	W06
	BYTE		        Gn3   v072
	BYTE	W06
	BYTE		        Fn3   v076
	BYTE	W06
	BYTE		N07     En3   v084
	BYTE	W06
// 025   ----------------------------------------
	BYTE	W02
	BYTE		N05     En3   v044
	BYTE	W10
	BYTE		        Dn3   v084
	BYTE	W06
	BYTE		        Cs3 
	BYTE	W06
	BYTE		        Dn3   v096
	BYTE	W06
	BYTE		        En3   v088
	BYTE	W06
	BYTE		        Fn3   v084
	BYTE	W06
	BYTE		        Gn3 
	BYTE	W06
	BYTE		        An3   v072
	BYTE	W06
	BYTE		        As3   v084
	BYTE	W06
	BYTE		        Cs4   v092
	BYTE	W06
	BYTE		        Dn4 
	BYTE	W06
	BYTE		        En4   v096
	BYTE	W06
	BYTE		        Fn4   v088
	BYTE	W06
	BYTE		N13     Gn4   v092
	BYTE	W12
// 026   ----------------------------------------
	BYTE	W03
	BYTE		N05     Gn4   v044
	BYTE	W09
	BYTE		        Gn4   v092
	BYTE	W06
	BYTE		        Fn4   v096
	BYTE	W06
	BYTE		        En4   v080
	BYTE	W06
	BYTE		        Fn4   v088
	BYTE	W06
	BYTE		        En4   v096
	BYTE	W06
	BYTE		        Dn4   v088
	BYTE	W06
	BYTE		        Cs4   v092
	BYTE	W06
	BYTE		        Dn4   v096
	BYTE	W06
	BYTE		        En4   v088
	BYTE	W06
	BYTE		        Dn4   v092
	BYTE	W06
	BYTE		        Cs4   v080
	BYTE	W06
	BYTE		        As3 
	BYTE	W06
	BYTE		        An3   v088
	BYTE	W06
	BYTE		N07     Gn3 
	BYTE	W06
// 027   ----------------------------------------
	BYTE	W03
	BYTE		N05     Gn3   v044
	BYTE	W09
	BYTE		        Gn3   v092
	BYTE	W06
	BYTE		        Fs3   v072
	BYTE	W06
	BYTE		        Gn3 
	BYTE	W06
	BYTE		        An3   v076
	BYTE	W06
	BYTE		        As3   v096
	BYTE	W06
	BYTE		        Dn4 
	BYTE	W06
	BYTE		        Cs4   v088
	BYTE	W06
	BYTE		        An3   v096
	BYTE	W06
	BYTE		        Gs3   v084
	BYTE	W06
	BYTE		        An3   v076
	BYTE	W06
	BYTE		        Cs4   v088
	BYTE	W06
	BYTE		        Dn4   v072
	BYTE	W06
	BYTE		        En4   v076
	BYTE	W06
	BYTE		        Fn4   v084
	BYTE	W06
// 028   ----------------------------------------
	BYTE	W01
	BYTE	GoTo
	 POIN2	FE11CombatMissionSme_4_B1
FE11CombatMissionSme_4_B2:
	BYTE	FINE

//**************** Track 5 (Midi-Chn.5) ****************//

FE11CombatMissionSme_5:
	BYTE	KEYSH   FE11CombatMissionSme_key+0
FE11CombatMissionSme_5_B1:
// 000   ----------------------------------------
	BYTE		VOICE   46
	BYTE	W96
// 001   ----------------------------------------
	BYTE	W96
// 002   ----------------------------------------
	BYTE	W96
// 003   ----------------------------------------
	BYTE	W96
// 004   ----------------------------------------
	BYTE	W96
// 005   ----------------------------------------
	BYTE	W96
// 006   ----------------------------------------
	BYTE	W96
// 007   ----------------------------------------
	BYTE	W96
// 008   ----------------------------------------
	BYTE		VOL     100*FE11CombatMissionSme_mvl/mxv
	BYTE		PAN     c_v+17
	BYTE	W06
	BYTE		N05     Dn5   v116
	BYTE	W06
	BYTE		        Dn5   v080
	BYTE	W06
	BYTE		        Dn5   v040
	BYTE	W06
	BYTE		        Dn5   v112
	BYTE	W06
	BYTE		        Dn5   v096
	BYTE	W06
	BYTE		        Dn5   v040
	BYTE	W06
	BYTE		        Dn5   v112
	BYTE	W06
	BYTE		        Dn5   v040
	BYTE	W06
	BYTE		        Dn5   v108
	BYTE	W06
	BYTE		        Dn5   v092
	BYTE	W06
	BYTE		        Dn5   v040
	BYTE	W06
	BYTE		        Dn5   v108
	BYTE	W06
	BYTE		        Dn5   v084
	BYTE	W06
	BYTE		        Dn5   v040
	BYTE	W06
	BYTE		        Dn5   v120
	BYTE	W06
// 009   ----------------------------------------
	BYTE		        Dn5   v044
	BYTE	W06
	BYTE		        An5   v116
	BYTE	W06
	BYTE		        An5   v080
	BYTE	W06
	BYTE		        An5   v040
	BYTE	W06
	BYTE		        An5   v112
	BYTE	W06
	BYTE		        An5   v096
	BYTE	W06
	BYTE		        An5   v040
	BYTE	W06
	BYTE		        An5   v112
	BYTE	W06
	BYTE		        An5   v040
	BYTE	W06
	BYTE		        An5   v108
	BYTE	W06
	BYTE		        An5   v092
	BYTE	W06
	BYTE		        An5   v040
	BYTE	W06
	BYTE		        An5   v108
	BYTE	W06
	BYTE		        An5   v084
	BYTE	W06
	BYTE		        An5   v040
	BYTE	W06
	BYTE		        An5   v120
	BYTE	W06
// 010   ----------------------------------------
	BYTE		N96     Gn2   v112
	BYTE		N05     Dn5   v044
	BYTE	W06
	BYTE		        Dn5   v116
	BYTE	W06
	BYTE		        Dn5   v080
	BYTE	W06
	BYTE		        Dn5   v040
	BYTE	W06
	BYTE		        Dn5   v112
	BYTE	W06
	BYTE		        Dn5   v096
	BYTE	W06
	BYTE		        Dn5   v040
	BYTE	W06
	BYTE		        Dn5   v112
	BYTE	W06
	BYTE		        Dn5   v040
	BYTE	W03
	BYTE	W02
	BYTE	W01
	BYTE		        Dn5   v108
	BYTE	W02
	BYTE	W01
	BYTE	W02
	BYTE	W01
	BYTE		        Dn5   v092
	BYTE	W02
	BYTE	W01
	BYTE	W02
	BYTE	W01
	BYTE		        Dn5   v040
	BYTE	W02
	BYTE	W01
	BYTE	W02
	BYTE	W01
	BYTE		        Dn5   v108
	BYTE	W02
	BYTE	W01
	BYTE	W02
	BYTE	W01
	BYTE		        Dn5   v084
	BYTE	W02
	BYTE	W01
	BYTE	W02
	BYTE	W01
	BYTE		        Dn5   v040
	BYTE	W02
	BYTE	W01
	BYTE	W02
	BYTE	W01
	BYTE		        Dn5   v120
	BYTE	W02
	BYTE	W01
	BYTE	W02
	BYTE	W01
// 011   ----------------------------------------
	BYTE		N88     Fs2   v112
	BYTE	W06
	BYTE	W03
	BYTE	W03
	BYTE	W03
	BYTE	W03
	BYTE	W03
	BYTE	W03
	BYTE	W03
	BYTE	W03
	BYTE	W03
	BYTE	W03
	BYTE	W03
	BYTE	W03
	BYTE	W03
	BYTE	W03
	BYTE	W03
	BYTE	W03
	BYTE	W03
	BYTE	W03
	BYTE	W03
	BYTE	W03
	BYTE	W02
	BYTE	W28
// 012   ----------------------------------------
	BYTE		N06     Dn5   v120
	BYTE		N06     Gn5   v112
	BYTE	W06
	BYTE		        Dn5   v052
	BYTE		N06     Gn5 
	BYTE	W12
	BYTE		        Dn5   v096
	BYTE		N06     Gn5 
	BYTE	W06
	BYTE		        Dn5   v040
	BYTE		N06     Gn5 
	BYTE	W12
	BYTE		        Dn5   v108
	BYTE		N06     Gn5 
	BYTE	W06
	BYTE		        Dn5   v052
	BYTE		N06     Gn5 
	BYTE	W12
	BYTE		        Dn5   v096
	BYTE		N06     Gn5 
	BYTE	W06
	BYTE		        Dn5   v040
	BYTE		N06     Gn5 
	BYTE	W12
	BYTE		        Dn5   v108
	BYTE		N06     Gn5 
	BYTE	W06
	BYTE		        Dn5   v052
	BYTE		N06     Gn5 
	BYTE	W06
	BYTE		        Dn5   v096
	BYTE		N06     Gn5 
	BYTE	W06
	BYTE		        Dn5   v040
	BYTE		N06     Gn5 
	BYTE	W06
// 013   ----------------------------------------
	BYTE		        En5   v112
	BYTE		N06     Gn5 
	BYTE	W06
	BYTE		        En5   v052
	BYTE		N06     Gn5 
	BYTE	W12
	BYTE		        En5   v096
	BYTE		N06     Gn5 
	BYTE	W06
	BYTE		        En5   v040
	BYTE		N06     Gn5 
	BYTE	W12
	BYTE		        En5   v108
	BYTE		N06     Gn5 
	BYTE	W06
	BYTE		        En5   v052
	BYTE		N06     Gn5 
	BYTE	W12
	BYTE		        En5   v096
	BYTE		N06     Gn5 
	BYTE	W06
	BYTE		        En5   v040
	BYTE		N06     Gn5 
	BYTE	W12
	BYTE		        En5   v108
	BYTE		N06     Gn5 
	BYTE	W06
	BYTE		        En5   v052
	BYTE		N06     Gn5 
	BYTE	W06
	BYTE		        En5   v096
	BYTE		N06     Gn5 
	BYTE	W06
	BYTE		        En5   v040
	BYTE		N06     Gn5 
	BYTE	W06
// 014   ----------------------------------------
	BYTE		        Dn5   v112
	BYTE		N06     Gn5 
	BYTE	W06
	BYTE		        Dn5   v052
	BYTE		N06     Gn5 
	BYTE	W12
	BYTE		        Dn5   v096
	BYTE		N06     Gn5 
	BYTE	W06
	BYTE		        Dn5   v040
	BYTE		N06     Gn5 
	BYTE	W12
	BYTE		        Dn5   v108
	BYTE		N06     Gn5 
	BYTE	W06
	BYTE		        Dn5   v052
	BYTE		N06     Gn5 
	BYTE	W12
	BYTE		        Dn5   v096
	BYTE		N06     Gn5 
	BYTE	W06
	BYTE		        Dn5   v040
	BYTE		N06     Gn5 
	BYTE	W12
	BYTE		        Cn5   v108
	BYTE		N06     Fn5 
	BYTE	W06
	BYTE		        Cn5   v052
	BYTE		N06     Fn5 
	BYTE	W06
	BYTE		        Ds5   v096
	BYTE		N06     Fs5 
	BYTE	W06
	BYTE		        Ds5   v040
	BYTE		N06     Fs5 
	BYTE	W06
// 015   ----------------------------------------
	BYTE		        Dn5   v112
	BYTE		N06     Gn5 
	BYTE	W06
	BYTE		        Dn5   v052
	BYTE		N06     Gn5 
	BYTE	W12
	BYTE		        Dn5   v096
	BYTE		N06     Gn5 
	BYTE	W06
	BYTE		        Dn5   v040
	BYTE		N06     Gn5 
	BYTE	W12
	BYTE		        Dn5   v108
	BYTE		N06     Gn5 
	BYTE	W06
	BYTE		        Dn5   v052
	BYTE		N06     Gn5 
	BYTE	W12
	BYTE		        Dn5   v096
	BYTE		N06     Gn5 
	BYTE	W06
	BYTE		        Dn5   v040
	BYTE		N06     Gn5 
	BYTE	W12
	BYTE		        Dn5   v108
	BYTE		N06     Gn5 
	BYTE	W06
	BYTE		        Dn5   v052
	BYTE		N06     Gn5 
	BYTE	W06
	BYTE		        Dn5   v096
	BYTE		N06     Gn5 
	BYTE	W06
	BYTE		        Dn5   v040
	BYTE		N06     Gn5 
	BYTE	W06
// 016   ----------------------------------------
	BYTE		        Fn5   v112
	BYTE		N06     Gn5 
	BYTE	W06
	BYTE		        Fn5   v052
	BYTE		N06     Gn5 
	BYTE	W12
	BYTE		        Dn5   v096
	BYTE		N06     Gn5 
	BYTE	W06
	BYTE		        Dn5   v040
	BYTE		N06     Gn5 
	BYTE	W12
	BYTE		        As4   v108
	BYTE		N06     Gn5 
	BYTE	W06
	BYTE		        As4   v052
	BYTE		N06     Gn5 
	BYTE	W12
	BYTE		        Gn5   v096
	BYTE		N06     An5 
	BYTE	W06
	BYTE		        Gn5   v040
	BYTE		N06     An5 
	BYTE	W12
	BYTE		        Gn5   v108
	BYTE	W06
	BYTE		        Gn5   v052
	BYTE	W06
	BYTE		        Fn5   v096
	BYTE		N06     Gn5 
	BYTE	W06
	BYTE		        Fn5   v040
	BYTE		N06     Gn5 
	BYTE	W06
// 017   ----------------------------------------
	BYTE		        Gn4   v112
	BYTE		N06     En5 
	BYTE	W06
	BYTE		        Gn4   v052
	BYTE		N06     En5 
	BYTE	W12
	BYTE		        Gn4   v096
	BYTE		N06     Cn5 
	BYTE	W06
	BYTE		        Gn4   v040
	BYTE		N06     Cn5 
	BYTE	W12
	BYTE		        Gn4   v108
	BYTE		N06     Gn5 
	BYTE	W06
	BYTE		        Gn4   v052
	BYTE		N06     Gn5 
	BYTE	W12
	BYTE		        Gn4   v096
	BYTE		N06     En5 
	BYTE	W06
	BYTE		        Gn4   v040
	BYTE		N06     En5 
	BYTE	W12
	BYTE		        Gn4   v108
	BYTE		N06     Dn5 
	BYTE	W06
	BYTE		        Gn4   v052
	BYTE		N06     Dn5 
	BYTE	W06
	BYTE		        Cn5   v096
	BYTE		N06     Gn5 
	BYTE	W06
	BYTE		        Cn5   v040
	BYTE		N06     Gn5 
	BYTE	W06
// 018   ----------------------------------------
	BYTE		        As4   v112
	BYTE		N06     Gn5 
	BYTE	W06
	BYTE		        As4   v052
	BYTE		N06     Gn5 
	BYTE	W12
	BYTE		        Gn5   v096
	BYTE	W06
	BYTE		        Gn5   v040
	BYTE	W12
	BYTE		        Cn5   v108
	BYTE		N06     Gn5 
	BYTE	W06
	BYTE		        Cn5   v052
	BYTE		N06     Gn5 
	BYTE	W12
	BYTE		        Dn5   v096
	BYTE		N06     Gn5 
	BYTE	W06
	BYTE		        Dn5   v040
	BYTE		N06     Gn5 
	BYTE	W12
	BYTE		        Cn5   v108
	BYTE		N06     Fn5 
	BYTE	W06
	BYTE		        Cn5   v052
	BYTE		N06     Fn5 
	BYTE	W06
	BYTE		        Ds5   v096
	BYTE		N06     Fs5 
	BYTE	W06
	BYTE		        Ds5   v040
	BYTE		N06     Fs5 
	BYTE	W06
// 019   ----------------------------------------
	BYTE		        Dn5   v112
	BYTE		N06     Gn5 
	BYTE	W06
	BYTE		        Dn5   v052
	BYTE		N06     Gn5 
	BYTE	W12
	BYTE		        Dn5   v096
	BYTE		N06     Gn5 
	BYTE	W06
	BYTE		        Dn5   v040
	BYTE		N06     Gn5 
	BYTE	W12
	BYTE		        Dn5   v108
	BYTE		N06     Gn5 
	BYTE	W06
	BYTE		        Dn5   v052
	BYTE		N06     Gn5 
	BYTE	W12
	BYTE		        Dn5   v096
	BYTE		N06     Gn5 
	BYTE	W06
	BYTE		        Dn5   v040
	BYTE		N06     Gn5 
	BYTE	W08
	BYTE	W01
	BYTE	W01
	BYTE	W01
	BYTE	W01
	BYTE		N32     Gn2   v100
	BYTE	W01
	BYTE	W02
	BYTE	W01
	BYTE	W02
	BYTE	W01
	BYTE	W02
	BYTE	W01
	BYTE	W02
	BYTE	W01
	BYTE	W02
	BYTE	W01
	BYTE	W01
	BYTE	W01
	BYTE	W01
	BYTE	W01
	BYTE	W01
	BYTE	W01
	BYTE	W01
	BYTE	W01
// 020   ----------------------------------------
	BYTE	W01
	BYTE	W01
	BYTE	W01
	BYTE	W01
	BYTE	W01
	BYTE	W01
	BYTE	W01
	BYTE	W01
	BYTE	W01
	BYTE	W01
	BYTE	W01
	BYTE	W02
	BYTE	W12
	BYTE	W02
	BYTE	W01
	BYTE	W02
	BYTE	W01
	BYTE	W02
	BYTE	W01
	BYTE	W60
	BYTE	W02
// 021   ----------------------------------------
	BYTE	W96
// 022   ----------------------------------------
	BYTE	W96
// 023   ----------------------------------------
	BYTE	W60
	BYTE	W01
	BYTE	W01
	BYTE	W01
	BYTE	W01
	BYTE	W01
	BYTE	W01
	BYTE	W01
	BYTE	W01
	BYTE	W02
	BYTE	W01
	BYTE	W02
	BYTE	W01
	BYTE	W02
	BYTE	W01
	BYTE	W02
	BYTE	W01
	BYTE	W02
	BYTE	W01
	BYTE	W02
	BYTE	W01
	BYTE	W02
	BYTE	W01
	BYTE	W02
	BYTE	W01
	BYTE	W02
	BYTE	W01
	BYTE	W01
// 024   ----------------------------------------
	BYTE		N88     Fn2   v096
	BYTE	W01
	BYTE	W01
	BYTE	W03
	BYTE	W03
	BYTE	W03
	BYTE	W03
	BYTE	W03
	BYTE	W03
	BYTE	W03
	BYTE	W03
	BYTE	W03
	BYTE	W03
	BYTE	W03
	BYTE	W03
	BYTE	W03
	BYTE	W03
	BYTE	W03
	BYTE	W03
	BYTE	W03
	BYTE	W03
	BYTE	W03
	BYTE	W03
	BYTE	W03
	BYTE	W03
	BYTE	W03
	BYTE	W03
	BYTE	W03
	BYTE	W03
	BYTE	W03
	BYTE	W03
	BYTE	W03
	BYTE	W01
	BYTE		N05     Fn2   v044
	BYTE	W02
	BYTE	W02
	BYTE	W02
// 025   ----------------------------------------
	BYTE		N90     Fn2   v096
	BYTE		N90     An2 
	BYTE	W24
	BYTE	W03
	BYTE	W03
	BYTE	W03
	BYTE	W03
	BYTE	W03
	BYTE	W03
	BYTE	W03
	BYTE	W03
	BYTE	W03
	BYTE	W03
	BYTE	W03
	BYTE	W03
	BYTE	W03
	BYTE	W03
	BYTE	W03
	BYTE	W03
	BYTE	W03
	BYTE	W03
	BYTE	W03
	BYTE	W03
	BYTE	W03
	BYTE	W03
	BYTE	W03
	BYTE		N02     Fn2   v044
	BYTE		N02     An2 
	BYTE	W01
	BYTE	W02
// 026   ----------------------------------------
	BYTE		TIE     An2   v116
	BYTE		TIE     Dn3 
	BYTE	W48
	BYTE	W01
	BYTE	W02
	BYTE	W01
	BYTE	W02
	BYTE	W01
	BYTE	W02
	BYTE	W01
	BYTE	W02
	BYTE	W01
	BYTE	W02
	BYTE	W01
	BYTE	W02
	BYTE	W01
	BYTE	W02
	BYTE	W01
	BYTE	W02
	BYTE	W01
	BYTE	W02
	BYTE	W01
	BYTE	W02
	BYTE	W01
	BYTE	W02
	BYTE	W01
	BYTE	W14
// 027   ----------------------------------------
	BYTE	W01
	BYTE		EOT     An2 
	BYTE		        Dn3 
	BYTE	W02
	BYTE		N05     An2   v044
	BYTE		N05     Dn3 
	BYTE	W09
	BYTE		        Gn5   v104
	BYTE	W06
	BYTE		        Fs5   v084
	BYTE	W06
	BYTE		        Gn5 
	BYTE	W06
	BYTE		        An5   v088
	BYTE	W06
	BYTE		        As5   v104
	BYTE	W06
	BYTE		        Dn6 
	BYTE	W06
	BYTE		        Cs6   v100
	BYTE	W06
	BYTE		        Cs6   v044
	BYTE	W12
	BYTE		N11     An2   v108
	BYTE	W12
	BYTE		N05     Dn6   v096
	BYTE	W06
	BYTE		        En6   v100
	BYTE	W06
	BYTE		        Fn6   v104
	BYTE	W06
// 028   ----------------------------------------
	BYTE	W01
	BYTE	GoTo
	 POIN2	FE11CombatMissionSme_5_B1
FE11CombatMissionSme_5_B2:
	BYTE	FINE

//**************** Track 6 (Midi-Chn.6) ****************//

FE11CombatMissionSme_6:
	BYTE	KEYSH   FE11CombatMissionSme_key+0
FE11CombatMissionSme_6_B1:
// 000   ----------------------------------------
	BYTE		VOICE   98
	BYTE		VOL     112*FE11CombatMissionSme_mvl/mxv
	BYTE		PAN     c_v+20
	BYTE	W96
// 001   ----------------------------------------
	BYTE	W96
// 002   ----------------------------------------
	BYTE	W96
// 003   ----------------------------------------
	BYTE	W96
// 004   ----------------------------------------
	BYTE	W96
// 005   ----------------------------------------
	BYTE	W96
// 006   ----------------------------------------
	BYTE	W96
// 007   ----------------------------------------
	BYTE	W96
// 008   ----------------------------------------
	BYTE	W96
// 009   ----------------------------------------
	BYTE	W96
// 010   ----------------------------------------
	BYTE	W96
// 011   ----------------------------------------
	BYTE	W96
// 012   ----------------------------------------
	BYTE	W96
// 013   ----------------------------------------
	BYTE	W96
// 014   ----------------------------------------
	BYTE	W96
// 015   ----------------------------------------
	BYTE	W96
// 016   ----------------------------------------
	BYTE	W96
// 017   ----------------------------------------
	BYTE	W96
// 018   ----------------------------------------
	BYTE	W96
// 019   ----------------------------------------
	BYTE	W96
// 020   ----------------------------------------
	BYTE	W12
	BYTE		        c_v+63
	BYTE	W04
	BYTE	W02
	BYTE		N05     Fn2   v072
	BYTE	W01
	BYTE	W02
	BYTE	W01
	BYTE	W02
	BYTE		        En2 
	BYTE	W01
	BYTE	W02
	BYTE	W01
	BYTE	W02
	BYTE		        Fn2 
	BYTE	W01
	BYTE	W02
	BYTE	W01
	BYTE	W02
	BYTE		        Gn2 
	BYTE	W01
	BYTE	W01
	BYTE	W04
	BYTE		        An2   v060
	BYTE	W05
	BYTE	W01
	BYTE		        As2 
	BYTE	W04
	BYTE	W02
	BYTE		        Cs3   v052
	BYTE	W03
	BYTE	W03
	BYTE		        Dn3   v056
	BYTE	W02
	BYTE	W04
	BYTE		        En3 
	BYTE	W05
	BYTE	W01
	BYTE		        Dn3 
	BYTE	W04
	BYTE	W02
	BYTE		        Cs3 
	BYTE	W03
	BYTE	W03
	BYTE		        As2   v064
	BYTE	W02
	BYTE	W04
	BYTE		        An2 
	BYTE	W05
	BYTE	W01
// 021   ----------------------------------------
	BYTE		N09     Gn2   v068
	BYTE	W04
	BYTE	W05
	BYTE	W03
	BYTE		N05     Gn2   v028
	BYTE	W06
	BYTE		        Fn2   v060
	BYTE	W05
	BYTE	W01
	BYTE		        En2   v068
	BYTE	W05
	BYTE	W01
	BYTE		        Fn2   v064
	BYTE	W06
	BYTE		        Gn2   v068
	BYTE	W06
	BYTE		        An2   v060
	BYTE	W01
	BYTE	W05
	BYTE		        As2 
	BYTE	W02
	BYTE	W04
	BYTE		        Cs3   v056
	BYTE	W02
	BYTE	W04
	BYTE		        Dn3 
	BYTE	W03
	BYTE	W03
	BYTE		        En3   v060
	BYTE	W04
	BYTE	W02
	BYTE		        Fn3   v056
	BYTE	W05
	BYTE	W01
	BYTE		        Gn3   v052
	BYTE	W05
	BYTE	W01
	BYTE		        An3   v040
	BYTE	W06
	BYTE		N15     As3   v044
	BYTE	W06
// 022   ----------------------------------------
	BYTE	W01
	BYTE	W07
	BYTE	W03
	BYTE	W01
	BYTE		N05     As3   v028
	BYTE	W02
	BYTE	W03
	BYTE	W01
	BYTE		        As3   v044
	BYTE	W02
	BYTE	W03
	BYTE	W01
	BYTE		        An3 
	BYTE	W02
	BYTE	W03
	BYTE	W01
	BYTE		        Gn3   v048
	BYTE	W02
	BYTE	W03
	BYTE	W01
	BYTE		        An3   v044
	BYTE	W02
	BYTE	W03
	BYTE	W01
	BYTE		        Gn3   v048
	BYTE	W02
	BYTE	W03
	BYTE	W01
	BYTE		        Fn3   v056
	BYTE	W02
	BYTE	W03
	BYTE	W01
	BYTE		        En3 
	BYTE	W02
	BYTE	W03
	BYTE	W01
	BYTE		        Fn3   v052
	BYTE	W02
	BYTE	W03
	BYTE	W01
	BYTE		        Gn3   v048
	BYTE	W02
	BYTE	W03
	BYTE	W01
	BYTE		        Fn3   v052
	BYTE	W02
	BYTE	W03
	BYTE	W01
	BYTE		        En3   v056
	BYTE	W02
	BYTE	W03
	BYTE	W01
	BYTE		        Dn3   v052
	BYTE	W02
	BYTE	W03
	BYTE	W01
	BYTE		        Cs3   v060
	BYTE	W02
	BYTE	W03
	BYTE	W01
// 023   ----------------------------------------
	BYTE		N09     As2   v064
	BYTE	W02
	BYTE	W03
	BYTE	W03
	BYTE	W03
	BYTE	W01
	BYTE		N05     As2   v028
	BYTE	W02
	BYTE	W02
	BYTE	W02
	BYTE		        As2   v064
	BYTE	W01
	BYTE	W03
	BYTE	W02
	BYTE		        An2   v072
	BYTE	W01
	BYTE	W03
	BYTE	W02
	BYTE		        As2 
	BYTE	W01
	BYTE	W03
	BYTE	W02
	BYTE		        Cs3   v060
	BYTE	W01
	BYTE	W03
	BYTE	W02
	BYTE		        Dn3   v052
	BYTE	W01
	BYTE	W03
	BYTE	W02
	BYTE		        Fn3   v068
	BYTE	W01
	BYTE	W03
	BYTE	W02
	BYTE		        En3   v060
	BYTE	W01
	BYTE	W03
	BYTE	W02
	BYTE		        Cs3   v068
	BYTE	W01
	BYTE	W03
	BYTE	W02
	BYTE		        Cn3   v072
	BYTE	W01
	BYTE	W03
	BYTE	W02
	BYTE		        Cs3   v064
	BYTE	W01
	BYTE	W03
	BYTE	W02
	BYTE		        En3 
	BYTE	W01
	BYTE	W03
	BYTE	W02
	BYTE		        Fn3   v060
	BYTE	W01
	BYTE	W03
	BYTE	W02
	BYTE		        Gn3   v056
	BYTE	W01
	BYTE	W01
	BYTE	W04
// 024   ----------------------------------------
	BYTE		N08     An3   v052
	BYTE	W08
	BYTE	W04
	BYTE		N05     An3   v028
	BYTE	W01
	BYTE	W05
	BYTE		        Fn2   v084
	BYTE	W01
	BYTE	W05
	BYTE		        En2 
	BYTE	W01
	BYTE	W05
	BYTE		        Fn2   v080
	BYTE	W01
	BYTE	W05
	BYTE		        Gn2   v084
	BYTE	W01
	BYTE	W05
	BYTE		        An2   v064
	BYTE	W01
	BYTE	W05
	BYTE		        As2 
	BYTE	W01
	BYTE	W05
	BYTE		        Cs3   v056
	BYTE	W06
	BYTE		        Dn3   v060
	BYTE	W06
	BYTE		        En3 
	BYTE	W06
	BYTE		        Dn3 
	BYTE	W06
	BYTE		        Cs3 
	BYTE	W06
	BYTE		        As2   v072
	BYTE	W06
	BYTE		        An2   v068
	BYTE	W05
	BYTE	W01
// 025   ----------------------------------------
	BYTE		N09     Gn2   v076
	BYTE	W09
	BYTE	W03
	BYTE		N05     Gn2   v028
	BYTE	W02
	BYTE	W04
	BYTE		        Fn2   v064
	BYTE	W01
	BYTE	W05
	BYTE		        En2   v076
	BYTE	W05
	BYTE	W01
	BYTE		        Fn2   v068
	BYTE	W03
	BYTE	W03
	BYTE		        Gn2   v076
	BYTE	W02
	BYTE	W04
	BYTE		        An2   v064
	BYTE	W01
	BYTE	W05
	BYTE		        As2 
	BYTE	W05
	BYTE	W01
	BYTE		        Cs3   v060
	BYTE	W04
	BYTE	W02
	BYTE		        Dn3 
	BYTE	W03
	BYTE	W03
	BYTE		        En3   v068
	BYTE	W01
	BYTE	W05
	BYTE		        Fn3   v060
	BYTE	W05
	BYTE	W01
	BYTE		        Gn3   v056
	BYTE	W04
	BYTE	W02
	BYTE		        An3   v044
	BYTE	W04
	BYTE	W02
	BYTE		N15     As3 
	BYTE	W03
	BYTE	W03
// 026   ----------------------------------------
	BYTE	W03
	BYTE	W05
	BYTE	W04
	BYTE		N05     As3   v028
	BYTE	W02
	BYTE	W04
	BYTE		        As3   v048
	BYTE	W01
	BYTE	W05
	BYTE		        An3   v044
	BYTE	W01
	BYTE	W05
	BYTE		        Gn3   v052
	BYTE	W06
	BYTE		        An3   v044
	BYTE	W05
	BYTE	W01
	BYTE		        Gn3   v052
	BYTE	W05
	BYTE	W01
	BYTE		        Fn3   v060
	BYTE	W04
	BYTE	W02
	BYTE		        En3 
	BYTE	W03
	BYTE	W03
	BYTE		        Fn3   v056
	BYTE	W01
	BYTE	W04
	BYTE	W01
	BYTE		        Gn3   v048
	BYTE	W04
	BYTE	W02
	BYTE		        Fn3   v056
	BYTE	W02
	BYTE	W04
	BYTE		        En3   v060
	BYTE	W04
	BYTE	W02
	BYTE		        Dn3 
	BYTE	W03
	BYTE	W03
	BYTE		        Cs3   v064
	BYTE	W01
	BYTE	W04
	BYTE	W01
// 027   ----------------------------------------
	BYTE		N09     As2   v072
	BYTE	W04
	BYTE	W04
	BYTE	W04
	BYTE		N05     As2   v028
	BYTE	W06
	BYTE		        As2   v060
	BYTE	W06
	BYTE		        An2   v072
	BYTE	W06
	BYTE		        As2   v076
	BYTE	W06
	BYTE		        Cs3 
	BYTE	W06
	BYTE		        Dn3 
	BYTE	W06
	BYTE		        Fn3   v100
	BYTE	W06
	BYTE		        En5 
	BYTE	W06
	BYTE		        Cs5 
	BYTE	W06
	BYTE		        Cn5 
	BYTE	W06
	BYTE		        Cs5 
	BYTE	W06
	BYTE		        En5 
	BYTE	W06
	BYTE		        Fn5 
	BYTE	W06
	BYTE		        Gn5 
	BYTE	W06
// 028   ----------------------------------------
	BYTE	W01
	BYTE	GoTo
	 POIN2	FE11CombatMissionSme_6_B1
FE11CombatMissionSme_6_B2:
	BYTE	FINE

//**************** Track 7 (Midi-Chn.7) ****************//

FE11CombatMissionSme_7:
	BYTE	KEYSH   FE11CombatMissionSme_key+0
FE11CombatMissionSme_7_B1:
// 000   ----------------------------------------
	BYTE		VOICE   46
	BYTE	W96
// 001   ----------------------------------------
	BYTE	W96
// 002   ----------------------------------------
	BYTE	W96
// 003   ----------------------------------------
	BYTE		VOL     89*FE11CombatMissionSme_mvl/mxv
	BYTE		PAN     c_v+17
	BYTE	W72
	BYTE		N03     An4   v096
	BYTE	W04
	BYTE		        As4 
	BYTE	W04
	BYTE		        Cn5 
	BYTE	W04
	BYTE		        Dn5 
	BYTE	W04
	BYTE		        Ds5 
	BYTE	W04
	BYTE		        Fn5 
	BYTE	W04
// 004   ----------------------------------------
	BYTE		N06     Dn1   v088
	BYTE	W06
	BYTE		        Dn1   v048
	BYTE	W12
	BYTE		        Dn1   v076
	BYTE	W06
	BYTE		        Dn1   v040
	BYTE	W12
	BYTE		        Dn1   v084
	BYTE	W06
	BYTE		        Dn1   v048
	BYTE	W12
	BYTE		        Dn1   v076
	BYTE	W06
	BYTE		        Dn1   v040
	BYTE	W12
	BYTE		        Dn1   v084
	BYTE	W06
	BYTE		        Dn1   v048
	BYTE	W06
	BYTE		        Dn1   v076
	BYTE	W06
	BYTE		        Dn1   v040
	BYTE	W06
// 005   ----------------------------------------
	BYTE		        En1   v088
	BYTE	W06
	BYTE		        En1   v048
	BYTE	W12
	BYTE		        En1   v076
	BYTE	W06
	BYTE		        En1   v040
	BYTE	W12
	BYTE		        En1   v084
	BYTE	W06
	BYTE		        En1   v048
	BYTE	W12
	BYTE		        En1   v076
	BYTE	W06
	BYTE		        En1   v040
	BYTE	W12
	BYTE		        En1   v084
	BYTE	W06
	BYTE		        En1   v048
	BYTE	W06
	BYTE		        En1   v076
	BYTE	W06
	BYTE		        En1   v040
	BYTE	W06
// 006   ----------------------------------------
	BYTE		        Fn1   v088
	BYTE	W06
	BYTE		        Fn1   v048
	BYTE	W12
	BYTE		        Fn1   v076
	BYTE	W06
	BYTE		        Fn1   v040
	BYTE	W12
	BYTE		        Fn1   v084
	BYTE	W06
	BYTE		        Fn1   v048
	BYTE	W12
	BYTE		        Fn1   v076
	BYTE	W06
	BYTE		        Fn1   v040
	BYTE	W12
	BYTE		        Fn1   v084
	BYTE	W06
	BYTE		        Fn1   v048
	BYTE	W06
	BYTE		        Fs1   v076
	BYTE	W06
	BYTE		        Fs1   v040
	BYTE	W06
// 007   ----------------------------------------
	BYTE		        Gn1   v088
	BYTE	W06
	BYTE		        Gn1   v048
	BYTE	W12
	BYTE		        Gn1   v076
	BYTE	W06
	BYTE		        Gn1   v040
	BYTE	W12
	BYTE		        Gn1   v084
	BYTE	W06
	BYTE		        Gn1   v048
	BYTE	W12
	BYTE		        Gn1   v076
	BYTE	W06
	BYTE		        Gn1   v040
	BYTE	W36
// 008   ----------------------------------------
	BYTE		TIE     Dn4   v116
	BYTE	W48
	BYTE	W02
	BYTE	W01
	BYTE	W02
	BYTE	W01
	BYTE	W02
	BYTE	W01
	BYTE	W02
	BYTE	W01
	BYTE	W02
	BYTE	W01
	BYTE	W02
	BYTE	W01
	BYTE	W02
	BYTE	W01
	BYTE	W02
	BYTE	W01
	BYTE	W02
	BYTE	W01
	BYTE	W02
	BYTE	W01
	BYTE	W02
	BYTE	W01
	BYTE	W02
	BYTE	W01
	BYTE	W02
	BYTE	W01
	BYTE	W02
	BYTE	W01
	BYTE	W02
	BYTE	W01
	BYTE	W01
	BYTE	W02
// 009   ----------------------------------------
	BYTE	W01
	BYTE	W03
	BYTE	W03
	BYTE	W03
	BYTE	W03
	BYTE	W03
	BYTE	W03
	BYTE	W03
	BYTE	W03
	BYTE	W03
	BYTE	W03
	BYTE	W03
	BYTE	W03
	BYTE	W03
	BYTE	W03
	BYTE	W03
	BYTE	W03
	BYTE	W03
	BYTE	W03
	BYTE	W03
	BYTE	W03
	BYTE	W03
	BYTE	W03
	BYTE	W03
	BYTE	W03
	BYTE	W03
	BYTE	W03
	BYTE	W02
	BYTE	W15
// 010   ----------------------------------------
	BYTE	W44
	BYTE	W02
	BYTE	W03
	BYTE	W03
	BYTE	W03
	BYTE	W03
	BYTE	W03
	BYTE	W03
	BYTE	W03
	BYTE	W03
	BYTE	W03
	BYTE	W03
	BYTE	W03
	BYTE	W03
	BYTE	W03
	BYTE	W03
	BYTE	W03
	BYTE	W03
	BYTE	W01
	BYTE		EOT   
	BYTE	W01
// 011   ----------------------------------------
	BYTE		N92     Dn4   v124
	BYTE	W02
	BYTE	W03
	BYTE	W03
	BYTE	W03
	BYTE	W03
	BYTE	W03
	BYTE	W03
	BYTE	W03
	BYTE	W03
	BYTE	W03
	BYTE	W03
	BYTE	W03
	BYTE	W03
	BYTE	W03
	BYTE	W03
	BYTE	W03
	BYTE	W03
	BYTE	W03
	BYTE	W03
	BYTE	W03
	BYTE	W03
	BYTE	W03
	BYTE	W03
	BYTE	W03
	BYTE	W03
	BYTE	W03
	BYTE	W03
	BYTE	W03
	BYTE	W13
// 012   ----------------------------------------
FE11CombatMissionSme_7_012:
	BYTE		N06     Gn1   v092
	BYTE	W06
	BYTE		        Gn1   v052
	BYTE	W12
	BYTE		        Gn1   v080
	BYTE	W06
	BYTE		        Gn1   v044
	BYTE	W12
	BYTE		        Gn1   v088
	BYTE	W06
	BYTE		        Gn1   v052
	BYTE	W12
	BYTE		        Gn1   v080
	BYTE	W06
	BYTE		        Gn1   v044
	BYTE	W12
	BYTE		        Gn1   v088
	BYTE	W06
	BYTE		        Gn1   v052
	BYTE	W06
	BYTE		        Gn1   v080
	BYTE	W06
	BYTE		        Gn1   v044
	BYTE	W06
	BYTE	PEND
// 013   ----------------------------------------
	BYTE	PATT
	 POIN2	FE11CombatMissionSme_7_012
// 014   ----------------------------------------
	BYTE		N06     Fn1   v092
	BYTE	W06
	BYTE		        Fn1   v052
	BYTE	W12
	BYTE		        Fn1   v080
	BYTE	W06
	BYTE		        Fn1   v044
	BYTE	W12
	BYTE		        Fn1   v088
	BYTE	W06
	BYTE		        Fn1   v052
	BYTE	W12
	BYTE		        Fn1   v080
	BYTE	W06
	BYTE		        Fn1   v044
	BYTE	W12
	BYTE		        Fn1   v088
	BYTE	W06
	BYTE		        Fn1   v052
	BYTE	W06
	BYTE		        Fs1   v080
	BYTE	W06
	BYTE		        Fs1   v044
	BYTE	W06
// 015   ----------------------------------------
	BYTE	PATT
	 POIN2	FE11CombatMissionSme_7_012
// 016   ----------------------------------------
	BYTE		N92     Dn4   v100
	BYTE	W48
	BYTE	W02
	BYTE	W01
	BYTE	W02
	BYTE	W01
	BYTE	W02
	BYTE	W01
	BYTE	W02
	BYTE	W01
	BYTE	W02
	BYTE	W01
	BYTE	W02
	BYTE	W01
	BYTE	W02
	BYTE	W01
	BYTE	W02
	BYTE	W01
	BYTE	W02
	BYTE	W01
	BYTE	W02
	BYTE	W01
	BYTE	W02
	BYTE	W01
	BYTE	W02
	BYTE	W01
	BYTE	W02
	BYTE	W01
	BYTE	W02
	BYTE	W01
	BYTE	W02
	BYTE	W01
	BYTE	W01
	BYTE	W02
// 017   ----------------------------------------
	BYTE		N44     Gn4   v088
	BYTE	W01
	BYTE	W03
	BYTE	W03
	BYTE	W03
	BYTE	W03
	BYTE	W03
	BYTE	W03
	BYTE	W03
	BYTE	W03
	BYTE	W03
	BYTE	W03
	BYTE	W03
	BYTE	W03
	BYTE	W03
	BYTE	W03
	BYTE	W03
	BYTE	W02
	BYTE		        Dn5   v096
	BYTE	W01
	BYTE	W03
	BYTE	W03
	BYTE	W03
	BYTE	W03
	BYTE	W03
	BYTE	W03
	BYTE	W03
	BYTE	W02
	BYTE	W01
	BYTE	W02
	BYTE	W01
	BYTE	W02
	BYTE	W01
	BYTE	W02
	BYTE	W01
	BYTE	W02
	BYTE	W01
	BYTE	W02
	BYTE	W01
	BYTE	W02
	BYTE	W01
	BYTE	W02
	BYTE	W01
	BYTE	W02
// 018   ----------------------------------------
	BYTE		TIE     As4   v100
	BYTE		TIE     Gn5   v088
	BYTE	W01
	BYTE	W01
	BYTE	W02
	BYTE	W01
	BYTE	W02
	BYTE	W01
	BYTE	W02
	BYTE	W01
	BYTE	W02
	BYTE	W01
	BYTE	W02
	BYTE	W01
	BYTE	W02
	BYTE	W01
	BYTE	W02
	BYTE	W01
	BYTE	W02
	BYTE	W01
	BYTE	W02
	BYTE	W01
	BYTE	W02
	BYTE	W01
	BYTE	W02
	BYTE	W01
	BYTE	W02
	BYTE	W01
	BYTE	W02
	BYTE	W01
	BYTE	W02
	BYTE	W01
	BYTE	W01
	BYTE	W03
	BYTE	W02
	BYTE	W01
	BYTE	W02
	BYTE	W01
	BYTE	W02
	BYTE	W01
	BYTE	W02
	BYTE	W01
	BYTE	W02
	BYTE	W01
	BYTE	W02
	BYTE	W01
	BYTE	W02
	BYTE	W01
	BYTE	W02
	BYTE	W01
	BYTE	W02
	BYTE	W01
	BYTE	W02
	BYTE	W01
	BYTE	W02
	BYTE	W01
	BYTE	W02
	BYTE	W01
	BYTE	W02
	BYTE	W01
	BYTE	W02
	BYTE	W01
	BYTE	W02
	BYTE	W01
	BYTE	W02
	BYTE	W01
// 019   ----------------------------------------
	BYTE	W02
	BYTE	W01
	BYTE	W02
	BYTE	W01
	BYTE	W02
	BYTE	W01
	BYTE	W02
	BYTE		EOT     As4 
	BYTE		        Gn5 
	BYTE	W01
	BYTE		N05     As4   v044
	BYTE		N05     Gn5 
	BYTE	W02
	BYTE	W01
	BYTE	W02
	BYTE	W01
	BYTE	W02
	BYTE	W01
	BYTE	W02
	BYTE	W01
	BYTE		N68     Gn4   v092
	BYTE	W02
	BYTE	W01
	BYTE	W02
	BYTE	W01
	BYTE	W02
	BYTE	W01
	BYTE	W02
	BYTE	W01
	BYTE	W02
	BYTE	W01
	BYTE	W02
	BYTE	W01
	BYTE	W02
	BYTE	W01
	BYTE	W02
	BYTE	W01
	BYTE	W02
	BYTE	W01
	BYTE	W02
	BYTE	W01
	BYTE	W02
	BYTE	W01
	BYTE	W02
	BYTE	W01
	BYTE	W02
	BYTE	W01
	BYTE	W02
	BYTE	W01
	BYTE	W02
	BYTE	W01
	BYTE	W02
	BYTE	W01
	BYTE	W02
	BYTE	W01
	BYTE	W02
	BYTE	W01
	BYTE	W02
	BYTE	W01
	BYTE	W02
	BYTE	W13
// 020   ----------------------------------------
	BYTE		N05     Gn4   v048
	BYTE	W12
	BYTE		        Dn4   v076
	BYTE	W06
	BYTE		        Cs4   v072
	BYTE	W06
	BYTE		        Dn4   v076
	BYTE	W06
	BYTE		        En4 
	BYTE	W06
	BYTE		        Fn4   v080
	BYTE	W06
	BYTE		        Gn4 
	BYTE	W06
	BYTE		        An4   v076
	BYTE	W06
	BYTE		        As4 
	BYTE	W06
	BYTE		        Cs5 
	BYTE	W06
	BYTE		        As4   v072
	BYTE	W06
	BYTE		        An4 
	BYTE	W06
	BYTE		        Gn4   v064
	BYTE	W06
	BYTE		        Fn4   v068
	BYTE	W06
	BYTE		N07     En4   v072
	BYTE	W06
// 021   ----------------------------------------
FE11CombatMissionSme_7_021:
	BYTE	W03
	BYTE		N05     En4   v044
	BYTE	W09
	BYTE		        Dn4   v076
	BYTE	W06
	BYTE		        Cs4 
	BYTE	W06
	BYTE		        Dn4   v084
	BYTE	W06
	BYTE		        En4   v080
	BYTE	W06
	BYTE		        Fn4   v076
	BYTE	W06
	BYTE		        Gn4 
	BYTE	W06
	BYTE		        An4   v064
	BYTE	W06
	BYTE		        As4   v076
	BYTE	W06
	BYTE		        Cs5   v084
	BYTE	W06
	BYTE		        Dn5 
	BYTE	W06
	BYTE		        En5 
	BYTE	W06
	BYTE		        Fn5   v076
	BYTE	W06
	BYTE		N13     Gn5   v084
	BYTE	W12
	BYTE	PEND
// 022   ----------------------------------------
FE11CombatMissionSme_7_022:
	BYTE	W03
	BYTE		N05     Gn5   v044
	BYTE	W09
	BYTE		        Gn5   v080
	BYTE	W06
	BYTE		        Fn5   v084
	BYTE	W06
	BYTE		        En5   v072
	BYTE	W06
	BYTE		        Fn5   v080
	BYTE	W06
	BYTE		        En5   v084
	BYTE	W06
	BYTE		        Dn5   v080
	BYTE	W06
	BYTE		        Cs5   v084
	BYTE	W06
	BYTE		        Dn5   v088
	BYTE	W06
	BYTE		        En5   v076
	BYTE	W06
	BYTE		        Dn5   v080
	BYTE	W06
	BYTE		        Cs5   v072
	BYTE	W06
	BYTE		        As4 
	BYTE	W06
	BYTE		        An4   v076
	BYTE	W06
	BYTE		N07     Gn4   v080
	BYTE	W06
	BYTE	PEND
// 023   ----------------------------------------
	BYTE	W03
	BYTE		N05     Gn4   v044
	BYTE	W09
	BYTE		        Gn4   v084
	BYTE	W06
	BYTE		        Fs4   v064
	BYTE	W06
	BYTE		        Gn4 
	BYTE	W06
	BYTE		        An4   v068
	BYTE	W06
	BYTE		        As4   v084
	BYTE	W06
	BYTE		        Dn5 
	BYTE	W06
	BYTE		        Cs5   v080
	BYTE	W06
	BYTE		        An4   v088
	BYTE	W06
	BYTE		        Gs4   v072
	BYTE	W06
	BYTE		        An4   v068
	BYTE	W06
	BYTE		        Cs5   v080
	BYTE	W06
	BYTE		        Dn5   v064
	BYTE	W06
	BYTE		        En5   v068
	BYTE	W06
	BYTE		N07     Fn5   v076
	BYTE	W06
// 024   ----------------------------------------
	BYTE	W03
	BYTE		N05     Fn5   v044
	BYTE	W09
	BYTE		        Dn4   v076
	BYTE	W06
	BYTE		        Cs4   v072
	BYTE	W06
	BYTE		        Dn4   v076
	BYTE	W06
	BYTE		        En4 
	BYTE	W06
	BYTE		        Fn4   v080
	BYTE	W06
	BYTE		        Gn4 
	BYTE	W06
	BYTE		        An4   v076
	BYTE	W06
	BYTE		        As4 
	BYTE	W06
	BYTE		        Cs5 
	BYTE	W06
	BYTE		        As4   v072
	BYTE	W06
	BYTE		        An4 
	BYTE	W06
	BYTE		        Gn4   v064
	BYTE	W06
	BYTE		        Fn4   v068
	BYTE	W06
	BYTE		N07     En4   v072
	BYTE	W06
// 025   ----------------------------------------
	BYTE	PATT
	 POIN2	FE11CombatMissionSme_7_021
// 026   ----------------------------------------
	BYTE	PATT
	 POIN2	FE11CombatMissionSme_7_022
// 027   ----------------------------------------
	BYTE	W03
	BYTE		N05     Gn4   v044
	BYTE	W09
	BYTE		        Gn3   v100
	BYTE	W06
	BYTE		        Fs3   v080
	BYTE	W06
	BYTE		        Gn3 
	BYTE	W06
	BYTE		        An3   v084
	BYTE	W06
	BYTE		        As3   v100
	BYTE	W06
	BYTE		        Dn4 
	BYTE	W06
	BYTE		N07     Cs1   v116
	BYTE	W09
	BYTE		N05     Cs1   v044
	BYTE	W09
	BYTE		N11     An3   v108
	BYTE	W12
	BYTE		N05     Dn1 
	BYTE	W06
	BYTE		        En1   v112
	BYTE	W06
	BYTE		        Fn1 
	BYTE	W06
// 028   ----------------------------------------
	BYTE	W01
	BYTE	GoTo
	 POIN2	FE11CombatMissionSme_7_B1
FE11CombatMissionSme_7_B2:
	BYTE	FINE

//**************** Track 8 (Midi-Chn.9) ****************//

FE11CombatMissionSme_8:
	BYTE	KEYSH   FE11CombatMissionSme_key+0
FE11CombatMissionSme_8_B1:
// 000   ----------------------------------------
	BYTE		VOICE   126
	BYTE	W96
// 001   ----------------------------------------
	BYTE	W96
// 002   ----------------------------------------
	BYTE	W96
// 003   ----------------------------------------
	BYTE	W96
// 004   ----------------------------------------
	BYTE	W96
// 005   ----------------------------------------
	BYTE	W96
// 006   ----------------------------------------
	BYTE	W96
// 007   ----------------------------------------
	BYTE	W96
// 008   ----------------------------------------
	BYTE	W96
// 009   ----------------------------------------
	BYTE	W96
// 010   ----------------------------------------
	BYTE	W96
// 011   ----------------------------------------
	BYTE		VOL     100*FE11CombatMissionSme_mvl/mxv
	BYTE		PAN     c_v+0
	BYTE	W32
	BYTE	W01
	BYTE		N44     En2   v100
	BYTE	W01
	BYTE	W02
	BYTE	W01
	BYTE	W02
	BYTE	W01
	BYTE	W02
	BYTE	W01
	BYTE	W02
	BYTE	W01
	BYTE	W02
	BYTE	W01
	BYTE	W02
	BYTE	W01
	BYTE	W02
	BYTE	W01
	BYTE	W02
	BYTE	W01
	BYTE	W02
	BYTE	W01
	BYTE	W02
	BYTE	W01
	BYTE	W32
// 012   ----------------------------------------
	BYTE	W96
// 013   ----------------------------------------
	BYTE	W96
// 014   ----------------------------------------
	BYTE	W96
// 015   ----------------------------------------
	BYTE	W96
// 016   ----------------------------------------
	BYTE	W96
// 017   ----------------------------------------
	BYTE	W96
// 018   ----------------------------------------
	BYTE	W96
// 019   ----------------------------------------
	BYTE	W96
// 020   ----------------------------------------
	BYTE	W96
// 021   ----------------------------------------
	BYTE	W96
// 022   ----------------------------------------
	BYTE	W96
// 023   ----------------------------------------
	BYTE	W32
	BYTE	W01
	BYTE		        En2   v072
	BYTE	W01
	BYTE	W02
	BYTE	W01
	BYTE	W02
	BYTE	W01
	BYTE	W02
	BYTE	W01
	BYTE	W02
	BYTE	W01
	BYTE	W02
	BYTE	W01
	BYTE	W02
	BYTE	W01
	BYTE	W02
	BYTE	W01
	BYTE	W02
	BYTE	W01
	BYTE	W02
	BYTE	W01
	BYTE	W02
	BYTE	W01
	BYTE	W32
// 024   ----------------------------------------
	BYTE	W96
// 025   ----------------------------------------
	BYTE	W96
// 026   ----------------------------------------
	BYTE	W96
// 027   ----------------------------------------
	BYTE	W32
	BYTE	W01
	BYTE		        En2   v088
	BYTE	W01
	BYTE	W02
	BYTE	W01
	BYTE	W02
	BYTE	W01
	BYTE	W02
	BYTE	W01
	BYTE	W02
	BYTE	W01
	BYTE	W02
	BYTE	W01
	BYTE	W02
	BYTE	W01
	BYTE	W02
	BYTE	W01
	BYTE	W02
	BYTE	W01
	BYTE	W02
	BYTE	W01
	BYTE	W02
	BYTE	W01
	BYTE	W32
// 028   ----------------------------------------
	BYTE	W01
	BYTE	GoTo
	 POIN2	FE11CombatMissionSme_8_B1
FE11CombatMissionSme_8_B2:
	BYTE	FINE

//**************** Track 9 (Midi-Chn.12) ****************//

FE11CombatMissionSme_9:
	BYTE	KEYSH   FE11CombatMissionSme_key+0
FE11CombatMissionSme_9_B1:
// 000   ----------------------------------------
	BYTE		VOICE   127
	BYTE		VOL     85*FE11CombatMissionSme_mvl/mxv
	BYTE		PAN     c_v+0
	BYTE		N05     Cn2   v116
	BYTE		N03     Fs2   v080
	BYTE		N24     Cs3 
	BYTE	W06
	BYTE		N03     Fs2   v060
	BYTE	W06
	BYTE		N02     Fs2   v020
	BYTE	W06
	BYTE		N05     Cn2   v112
	BYTE		N03     Fs2   v064
	BYTE	W06
	BYTE		        Fs2   v056
	BYTE	W06
	BYTE		N02     Fs2   v020
	BYTE	W06
	BYTE		N05     Cn2   v112
	BYTE		N03     Fs2   v072
	BYTE	W06
	BYTE		        Fs2   v056
	BYTE	W06
	BYTE		N02     Fs2   v020
	BYTE	W06
	BYTE		N05     Cn2   v112
	BYTE		N03     Fs2   v064
	BYTE	W06
	BYTE		        Fs2   v056
	BYTE	W06
	BYTE		N02   
	BYTE	W03
	BYTE		N02   
	BYTE	W03
	BYTE		N03     Cn2   v112
	BYTE		N01     Fs2   v040
	BYTE	W02
	BYTE		        Fs2   v032
	BYTE	W02
	BYTE		N01   
	BYTE	W02
	BYTE		N02     Fs2   v056
	BYTE	W03
	BYTE		        Fs2   v044
	BYTE	W03
	BYTE		        Cn2   v112
	BYTE		N01     Fs2   v056
	BYTE	W03
	BYTE		N02     Fs2   v020
	BYTE	W03
	BYTE		N01     Fs2   v056
	BYTE	W03
	BYTE		N02     Fs2   v020
	BYTE	W03
// 001   ----------------------------------------
FE11CombatMissionSme_9_001:
	BYTE		N05     Cn2   v116
	BYTE		N03     Fs2   v076
	BYTE	W06
	BYTE		        Fs2   v060
	BYTE	W06
	BYTE		N02     Fs2   v056
	BYTE	W06
	BYTE		N05     Cn2   v112
	BYTE		N03     Fs2   v064
	BYTE	W06
	BYTE		        Fs2   v056
	BYTE	W06
	BYTE		N02     Fs2   v020
	BYTE	W06
	BYTE		N05     Cn2   v112
	BYTE		N03     Fs2   v072
	BYTE	W06
	BYTE		        Fs2   v056
	BYTE	W06
	BYTE		N02     Fs2   v020
	BYTE	W06
	BYTE		N05     Cn2   v112
	BYTE		N03     Fs2   v064
	BYTE	W06
	BYTE		        Fs2   v056
	BYTE	W06
	BYTE		N02     Cn2   v084
	BYTE		N03     Fs2   v044
	BYTE	W02
	BYTE		N01     Cn2   v048
	BYTE	W02
	BYTE		N01   
	BYTE	W02
	BYTE		N04     Cn2   v112
	BYTE		N03     Fs2   v056
	BYTE	W06
	BYTE		N02   
	BYTE	W03
	BYTE		        Fs2   v048
	BYTE	W03
	BYTE		N03     Cn2   v112
	BYTE		N01     Fs2   v032
	BYTE	W02
	BYTE		        Fs2   v024
	BYTE	W02
	BYTE		N01   
	BYTE	W02
	BYTE		N02     Fs2   v036
	BYTE	W03
	BYTE		        Fs2   v020
	BYTE	W03
	BYTE	PEND
// 002   ----------------------------------------
FE11CombatMissionSme_9_002:
	BYTE		N05     Cn2   v116
	BYTE		N03     Fs2   v080
	BYTE	W06
	BYTE		        Fs2   v060
	BYTE	W06
	BYTE		N02     Fs2   v020
	BYTE	W06
	BYTE		N05     Cn2   v112
	BYTE		N03     Fs2   v064
	BYTE	W06
	BYTE		        Fs2   v056
	BYTE	W06
	BYTE		N02     Fs2   v020
	BYTE	W06
	BYTE		N05     Cn2   v112
	BYTE		N03     Fs2   v072
	BYTE	W06
	BYTE		        Fs2   v056
	BYTE	W06
	BYTE		N02     Fs2   v020
	BYTE	W06
	BYTE		N05     Cn2   v112
	BYTE		N03     Fs2   v064
	BYTE	W06
	BYTE		        Fs2   v056
	BYTE	W06
	BYTE		N02   
	BYTE	W03
	BYTE		        Fs2   v044
	BYTE	W03
	BYTE		N03     Cn2   v112
	BYTE		N01     Fs2   v040
	BYTE	W02
	BYTE		        Fs2   v032
	BYTE	W02
	BYTE		N01   
	BYTE	W02
	BYTE		N02     Fs2   v056
	BYTE	W03
	BYTE		        Fs2   v044
	BYTE	W03
	BYTE		        Cn2   v112
	BYTE		N01     Fs2   v056
	BYTE	W03
	BYTE		N02     Fs2   v020
	BYTE	W03
	BYTE		N01     Fs2   v056
	BYTE	W03
	BYTE		N02     Fs2   v020
	BYTE	W03
	BYTE	PEND
// 003   ----------------------------------------
	BYTE		N05     Cn2   v116
	BYTE		N03     Fs2   v076
	BYTE	W06
	BYTE		        Fs2   v060
	BYTE	W06
	BYTE		N02     Fs2   v020
	BYTE	W06
	BYTE		N05     Cn2   v112
	BYTE		N03     Fs2   v064
	BYTE	W06
	BYTE		        Fs2   v056
	BYTE	W06
	BYTE		N02     Fs2   v020
	BYTE	W06
	BYTE		N05     Cn2   v112
	BYTE		N03     Fs2   v072
	BYTE	W06
	BYTE		        Fs2   v056
	BYTE	W06
	BYTE		N02     Fs2   v020
	BYTE	W06
	BYTE		N05     Cn2   v112
	BYTE		N03     Fs2   v064
	BYTE	W06
	BYTE		        Fs2   v056
	BYTE	W06
	BYTE		N02   
	BYTE	W03
	BYTE		N02   
	BYTE	W03
	BYTE		N11     Dn2   v120
	BYTE		N02     Fs2   v056
	BYTE	W06
	BYTE		N02   
	BYTE	W03
	BYTE		        Fs2   v048
	BYTE	W03
	BYTE		N03     Cn2   v112
	BYTE		N01     Fs2   v040
	BYTE	W02
	BYTE		        Fs2   v032
	BYTE	W02
	BYTE		N01   
	BYTE	W02
	BYTE		N02     Fs2   v056
	BYTE	W06
// 004   ----------------------------------------
FE11CombatMissionSme_9_004:
	BYTE		N05     Cn2   v116
	BYTE		N03     Fs2   v080
	BYTE		N24     Cs3 
	BYTE	W06
	BYTE		N03     Fs2   v060
	BYTE	W06
	BYTE		N02     Fs2   v020
	BYTE	W06
	BYTE		N05     Cn2   v112
	BYTE		N03     Fs2   v064
	BYTE	W06
	BYTE		        Fs2   v056
	BYTE	W06
	BYTE		N02     Fs2   v020
	BYTE	W06
	BYTE		N05     Cn2   v112
	BYTE		N03     Fs2   v072
	BYTE	W06
	BYTE		        Fs2   v056
	BYTE	W06
	BYTE		N02     Fs2   v020
	BYTE	W06
	BYTE		N05     Cn2   v112
	BYTE		N03     Fs2   v064
	BYTE	W06
	BYTE		        Fs2   v056
	BYTE	W06
	BYTE		N02   
	BYTE	W03
	BYTE		N02   
	BYTE	W03
	BYTE		N03     Cn2   v112
	BYTE		N01     Fs2   v040
	BYTE	W02
	BYTE		        Fs2   v032
	BYTE	W02
	BYTE		N01   
	BYTE	W02
	BYTE		N02     Fs2   v056
	BYTE	W03
	BYTE		        Fs2   v044
	BYTE	W03
	BYTE		        Cn2   v112
	BYTE		N01     Fs2   v056
	BYTE	W03
	BYTE		N02     Fs2   v020
	BYTE	W03
	BYTE		N01     Fs2   v056
	BYTE	W03
	BYTE		N02     Fs2   v020
	BYTE	W03
	BYTE	PEND
// 005   ----------------------------------------
	BYTE	PATT
	 POIN2	FE11CombatMissionSme_9_001
// 006   ----------------------------------------
	BYTE	PATT
	 POIN2	FE11CombatMissionSme_9_002
// 007   ----------------------------------------
	BYTE		N05     Cn2   v116
	BYTE		N03     Fs2   v076
	BYTE	W06
	BYTE		        Fs2   v060
	BYTE	W06
	BYTE		N02     Fs2   v020
	BYTE	W06
	BYTE		N05     Cn2   v112
	BYTE		N03     Fs2   v064
	BYTE	W06
	BYTE		        Fs2   v056
	BYTE	W06
	BYTE		N02     Fs2   v020
	BYTE	W06
	BYTE		N05     Cn2   v112
	BYTE		N03     Fs2   v072
	BYTE	W06
	BYTE		        Fs2   v056
	BYTE	W06
	BYTE		N02     Fs2   v020
	BYTE	W06
	BYTE		N05     Cn2   v112
	BYTE		N03     Fs2   v064
	BYTE	W06
	BYTE		        Fs2   v056
	BYTE	W06
	BYTE		N02   
	BYTE	W03
	BYTE		N02   
	BYTE	W03
	BYTE		N05     Cn2   v112
	BYTE		N03     Dn2   v120
	BYTE	W06
	BYTE		N02     Fs2   v056
	BYTE	W03
	BYTE		        Fs2   v048
	BYTE	W03
	BYTE		N03     Cn2   v112
	BYTE		N01     Fs2   v040
	BYTE	W02
	BYTE		        Fs2   v032
	BYTE	W02
	BYTE		N01   
	BYTE	W02
	BYTE		N02     Fs2   v060
	BYTE	W03
	BYTE		        Fs2   v044
	BYTE	W03
// 008   ----------------------------------------
	BYTE		N05     Cn2   v116
	BYTE		N24     Cs3   v072
	BYTE	W06
	BYTE		N03     Fs2   v060
	BYTE	W06
	BYTE		N02     Fs2   v032
	BYTE	W06
	BYTE		N05     Cn2   v112
	BYTE		N03     Fs2   v064
	BYTE	W06
	BYTE		        Fs2   v056
	BYTE	W06
	BYTE		N02     Fs2   v032
	BYTE	W06
	BYTE		N05     Cn2   v112
	BYTE		N03     Fs2   v068
	BYTE	W06
	BYTE		        Fs2   v056
	BYTE	W06
	BYTE		N05     Cn2   v112
	BYTE		N02     Fs2   v032
	BYTE	W06
	BYTE		N03     Fs2   v064
	BYTE	W06
	BYTE		        Fs2   v056
	BYTE	W06
	BYTE		N02     Cn2   v112
	BYTE		N02     Fs2   v056
	BYTE	W03
	BYTE		N02   
	BYTE	W03
	BYTE		N01     Fs2   v048
	BYTE	W02
	BYTE		        Fs2   v036
	BYTE	W02
	BYTE		N01   
	BYTE	W02
	BYTE		N02     Fs2   v056
	BYTE	W03
	BYTE		        Fs2   v048
	BYTE	W03
	BYTE		        Cn2   v112
	BYTE		N01     Fs2   v056
	BYTE	W03
	BYTE		N02     Fs2   v032
	BYTE	W03
	BYTE		N01     Fs2   v056
	BYTE	W03
	BYTE		N02     Fs2   v032
	BYTE	W03
// 009   ----------------------------------------
	BYTE		N05     Cn2   v116
	BYTE		N03     Fs2   v072
	BYTE	W06
	BYTE		        Fs2   v060
	BYTE	W06
	BYTE		N02     Fs2   v056
	BYTE	W06
	BYTE		N05     Cn2   v112
	BYTE		N03     Fs2   v064
	BYTE	W06
	BYTE		        Fs2   v056
	BYTE	W06
	BYTE		N02     Fs2   v032
	BYTE	W06
	BYTE		N05     Cn2   v112
	BYTE		N03     Fs2   v068
	BYTE	W06
	BYTE		        Fs2   v056
	BYTE	W06
	BYTE		N05     Cn2   v112
	BYTE		N02     Fs2   v032
	BYTE	W06
	BYTE		N03     Fs2   v064
	BYTE	W06
	BYTE		        Fs2   v056
	BYTE	W06
	BYTE		N05     Cn2   v112
	BYTE		N03     Fs2   v048
	BYTE	W06
	BYTE		        Fs2   v056
	BYTE	W06
	BYTE		N02   
	BYTE	W03
	BYTE		        Fs2   v052
	BYTE	W03
	BYTE		N03     Cn2   v112
	BYTE		N01     Fs2   v040
	BYTE	W02
	BYTE		        Fs2   v032
	BYTE	W02
	BYTE		N01   
	BYTE	W02
	BYTE		N02     Fs2   v040
	BYTE	W03
	BYTE		        Fs2   v028
	BYTE	W03
// 010   ----------------------------------------
	BYTE		N05     Cn2   v116
	BYTE		N03     Fs2   v076
	BYTE	W06
	BYTE		        Fs2   v060
	BYTE	W06
	BYTE		N02     Fs2   v032
	BYTE	W06
	BYTE		N05     Cn2   v112
	BYTE		N03     Fs2   v064
	BYTE	W06
	BYTE		        Fs2   v056
	BYTE	W06
	BYTE		N02     Fs2   v032
	BYTE	W06
	BYTE		N05     Cn2   v112
	BYTE		N03     Fs2   v068
	BYTE	W06
	BYTE		        Fs2   v056
	BYTE	W06
	BYTE		N05     Cn2   v112
	BYTE		N02     Fs2   v032
	BYTE	W06
	BYTE		N03     Fs2   v064
	BYTE	W06
	BYTE		        Fs2   v056
	BYTE	W06
	BYTE		N02     Cn2   v112
	BYTE		N02     Fs2   v056
	BYTE	W03
	BYTE		        Fs2   v048
	BYTE	W03
	BYTE		N01   
	BYTE	W02
	BYTE		        Fs2   v036
	BYTE	W02
	BYTE		N01   
	BYTE	W02
	BYTE		N02     Fs2   v056
	BYTE	W03
	BYTE		        Fs2   v048
	BYTE	W03
	BYTE		        Cn2   v112
	BYTE		N01     Fs2   v056
	BYTE	W03
	BYTE		N02     Fs2   v032
	BYTE	W03
	BYTE		N01     Fs2   v056
	BYTE	W03
	BYTE		N02     Fs2   v032
	BYTE	W03
// 011   ----------------------------------------
	BYTE		N06     Cn2   v116
	BYTE		N05     Gn2   v127
	BYTE	W18
	BYTE		N06     Cn2   v112
	BYTE		N05     Gn2   v127
	BYTE	W18
	BYTE		N06     Cn2   v112
	BYTE		N05     An2   v127
	BYTE	W12
	BYTE		        Cn2   v112
	BYTE	W06
	BYTE		        Bn2   v127
	BYTE	W12
	BYTE		N02     An2 
	BYTE	W06
	BYTE		N03     Dn2   v120
	BYTE		N05     Gn2   v127
	BYTE	W12
	BYTE		N02     Cn2   v112
	BYTE		N02     Cn3   v127
	BYTE	W03
	BYTE		        An2   v104
	BYTE	W03
	BYTE		N05     Gn2   v127
	BYTE	W06
// 012   ----------------------------------------
	BYTE	PATT
	 POIN2	FE11CombatMissionSme_9_004
// 013   ----------------------------------------
	BYTE	PATT
	 POIN2	FE11CombatMissionSme_9_001
// 014   ----------------------------------------
	BYTE	PATT
	 POIN2	FE11CombatMissionSme_9_002
// 015   ----------------------------------------
	BYTE		N05     Cn2   v116
	BYTE		N03     Fs2   v076
	BYTE	W06
	BYTE		        Fs2   v060
	BYTE	W06
	BYTE		N02     Fs2   v020
	BYTE	W06
	BYTE		N05     Cn2   v112
	BYTE		N03     Fs2   v064
	BYTE	W06
	BYTE		        Fs2   v056
	BYTE	W06
	BYTE		N02     Fs2   v020
	BYTE	W06
	BYTE		N05     Cn2   v112
	BYTE		N03     Fs2   v072
	BYTE	W06
	BYTE		        Fs2   v056
	BYTE	W06
	BYTE		N02     Fs2   v020
	BYTE	W06
	BYTE		N05     Cn2   v112
	BYTE		N03     Fs2   v064
	BYTE	W06
	BYTE		        Fs2   v056
	BYTE	W06
	BYTE		N02   
	BYTE	W03
	BYTE		N02   
	BYTE	W03
	BYTE		N05     Cn2   v112
	BYTE		N03     Dn2   v120
	BYTE		N02     Fs2   v056
	BYTE	W06
	BYTE		N02   
	BYTE	W03
	BYTE		        Fs2   v048
	BYTE	W03
	BYTE		N03     Cn2   v112
	BYTE		N01     Fs2   v040
	BYTE	W02
	BYTE		        Fs2   v032
	BYTE	W02
	BYTE		N01   
	BYTE	W02
	BYTE		N02     Fs2   v056
	BYTE	W06
// 016   ----------------------------------------
	BYTE	PATT
	 POIN2	FE11CombatMissionSme_9_004
// 017   ----------------------------------------
	BYTE	PATT
	 POIN2	FE11CombatMissionSme_9_001
// 018   ----------------------------------------
	BYTE	PATT
	 POIN2	FE11CombatMissionSme_9_002
// 019   ----------------------------------------
	BYTE		N05     Cn2   v116
	BYTE		N03     Fs2   v076
	BYTE	W06
	BYTE		        Fs2   v060
	BYTE	W06
	BYTE		N02     Fs2   v020
	BYTE	W06
	BYTE		N05     Cn2   v112
	BYTE		N03     Fs2   v064
	BYTE	W06
	BYTE		        Fs2   v056
	BYTE	W06
	BYTE		N02     Fs2   v020
	BYTE	W06
	BYTE		N05     Cn2   v112
	BYTE		N03     Fs2   v072
	BYTE	W06
	BYTE		        Fs2   v056
	BYTE	W06
	BYTE		N02     Fs2   v020
	BYTE	W06
	BYTE		N05     Cn2   v112
	BYTE		N03     Fs2   v064
	BYTE	W06
	BYTE		        Fs2   v056
	BYTE	W06
	BYTE		N02   
	BYTE	W03
	BYTE		N02   
	BYTE	W03
	BYTE		N03     Dn2   v120
	BYTE	W12
	BYTE		N06     Cn2   v112
	BYTE	W12
// 020   ----------------------------------------
	BYTE		N03     Fn3   v084
	BYTE	W06
	BYTE		        Fn3   v064
	BYTE	W06
	BYTE		N02     Fn3   v024
	BYTE	W06
	BYTE		N03     Fn3   v068
	BYTE	W06
	BYTE		        Fn3   v060
	BYTE	W06
	BYTE		N02     Fn3   v024
	BYTE	W06
	BYTE		N03     Fn3   v076
	BYTE	W06
	BYTE		        Fn3   v060
	BYTE	W06
	BYTE		N02     Fn3   v024
	BYTE	W06
	BYTE		N03     Fn3   v068
	BYTE	W06
	BYTE		        Fn3   v060
	BYTE	W06
	BYTE		N01   
	BYTE	W03
	BYTE		        Fn3   v024
	BYTE	W03
	BYTE		        Fn3   v044
	BYTE	W03
	BYTE		        Fn3   v028
	BYTE	W03
	BYTE		N02     Fn3   v060
	BYTE	W03
	BYTE		        Fn3   v044
	BYTE	W03
	BYTE		N01     Fn3   v060
	BYTE	W03
	BYTE		N02     Fn3   v024
	BYTE	W03
	BYTE		N01     Fn3   v060
	BYTE	W03
	BYTE		N02     Fn3   v024
	BYTE	W03
// 021   ----------------------------------------
	BYTE		N03     Fn3   v080
	BYTE	W06
	BYTE		        Fn3   v064
	BYTE	W06
	BYTE		N02     Fn3   v048
	BYTE	W06
	BYTE		N03     Fn3   v068
	BYTE	W06
	BYTE		        Fn3   v060
	BYTE	W06
	BYTE		N02     Fn3   v024
	BYTE	W06
	BYTE		N03     Fn3   v076
	BYTE	W06
	BYTE		        Fn3   v060
	BYTE	W06
	BYTE		N02     Fn3   v024
	BYTE	W06
	BYTE		N03     Fn3   v068
	BYTE	W06
	BYTE		        Fn3   v060
	BYTE	W06
	BYTE		        Fn3   v048
	BYTE	W06
	BYTE		        Fn3   v060
	BYTE	W06
	BYTE		N02   
	BYTE	W03
	BYTE		        Fn3   v048
	BYTE	W03
	BYTE		N01     Fn3   v040
	BYTE	W02
	BYTE		        Fn3   v028
	BYTE	W02
	BYTE		N01   
	BYTE	W02
	BYTE		N02     Fn3   v040
	BYTE	W03
	BYTE		        Fn3   v024
	BYTE	W03
// 022   ----------------------------------------
	BYTE		N03     Fn3   v084
	BYTE	W06
	BYTE		        Fn3   v064
	BYTE	W06
	BYTE		N02     Fn3   v024
	BYTE	W06
	BYTE		N03     Fn3   v068
	BYTE	W06
	BYTE		        Fn3   v060
	BYTE	W06
	BYTE		N02     Fn3   v024
	BYTE	W06
	BYTE		N03     Fn3   v076
	BYTE	W06
	BYTE		        Fn3   v060
	BYTE	W06
	BYTE		N02     Fn3   v024
	BYTE	W06
	BYTE		N03     Fn3   v068
	BYTE	W06
	BYTE		        Fn3   v060
	BYTE	W06
	BYTE		N02   
	BYTE	W03
	BYTE		        Fn3   v048
	BYTE	W03
	BYTE		        Fn3   v044
	BYTE	W03
	BYTE		        Fn3   v036
	BYTE	W03
	BYTE		        Fn3   v060
	BYTE	W03
	BYTE		        Fn3   v044
	BYTE	W03
	BYTE		N01     Fn3   v060
	BYTE	W03
	BYTE		N02     Fn3   v024
	BYTE	W03
	BYTE		N01     Fn3   v060
	BYTE	W03
	BYTE		N02     Fn3   v024
	BYTE	W03
// 023   ----------------------------------------
	BYTE		N03     Fn3   v080
	BYTE	W06
	BYTE		        Fn3   v064
	BYTE	W06
	BYTE		N02     Fn3   v024
	BYTE	W06
	BYTE		N03     Fn3   v068
	BYTE	W06
	BYTE		        Fn3   v060
	BYTE	W06
	BYTE		N02     Fn3   v024
	BYTE	W06
	BYTE		N03     Fn3   v076
	BYTE	W06
	BYTE		        Fn3   v060
	BYTE	W06
	BYTE		N02     Fn3   v024
	BYTE	W06
	BYTE		N03     Fn3   v068
	BYTE	W06
	BYTE		        Fn3   v060
	BYTE	W06
	BYTE		N02   
	BYTE	W03
	BYTE		N02   
	BYTE	W03
	BYTE		N03     Dn2   v124
	BYTE		N02     Fn3   v060
	BYTE	W06
	BYTE		N02   
	BYTE	W03
	BYTE		        Fn3   v048
	BYTE	W03
	BYTE		N03     Gn2   v127
	BYTE	W06
	BYTE		        Fn2 
	BYTE		N02     Fn3   v060
	BYTE	W03
	BYTE		        Fn3   v044
	BYTE	W03
// 024   ----------------------------------------
	BYTE		N05     Cn2   v100
	BYTE		N24     Cs3   v068
	BYTE	W06
	BYTE		N03     Fs2   v040
	BYTE	W06
	BYTE		N02     Fs2   v016
	BYTE	W06
	BYTE		N03     Fs2   v044
	BYTE	W06
	BYTE		        Fs2   v036
	BYTE	W06
	BYTE		N02     Fs2   v016
	BYTE	W06
	BYTE		N03     Fs2   v048
	BYTE	W06
	BYTE		        Fs2   v036
	BYTE	W06
	BYTE		N02     Fs2   v016
	BYTE	W06
	BYTE		N03     Fs2   v044
	BYTE	W06
	BYTE		        Fs2   v036
	BYTE	W06
	BYTE		N02   
	BYTE	W03
	BYTE		N02   
	BYTE	W03
	BYTE		N01     Fs2   v032
	BYTE	W02
	BYTE		        Fs2   v024
	BYTE	W02
	BYTE		N01   
	BYTE	W02
	BYTE		N02     Fs2   v036
	BYTE	W03
	BYTE		        Fs2   v032
	BYTE	W03
	BYTE		        Cn2   v096
	BYTE		N01     Fs2   v036
	BYTE	W03
	BYTE		N02     Fs2   v016
	BYTE	W03
	BYTE		N01     Fs2   v036
	BYTE	W03
	BYTE		N02     Fs2   v016
	BYTE	W03
// 025   ----------------------------------------
	BYTE		N05     Cn2   v100
	BYTE		N03     Fs2   v052
	BYTE	W06
	BYTE		        Fs2   v040
	BYTE	W06
	BYTE		N02     Fs2   v036
	BYTE	W06
	BYTE		N03     Fs2   v044
	BYTE	W06
	BYTE		        Fs2   v036
	BYTE	W06
	BYTE		N02     Fs2   v016
	BYTE	W06
	BYTE		N03     Fs2   v048
	BYTE	W06
	BYTE		        Fs2   v036
	BYTE	W06
	BYTE		N02     Fs2   v016
	BYTE	W06
	BYTE		N03     Fs2   v044
	BYTE	W06
	BYTE		        Fs2   v036
	BYTE	W06
	BYTE		        Fs2   v032
	BYTE	W06
	BYTE		        Fs2   v036
	BYTE	W06
	BYTE		N02   
	BYTE	W03
	BYTE		        Fs2   v032
	BYTE	W03
	BYTE		N01     Fs2   v024
	BYTE	W02
	BYTE		        Fs2   v020
	BYTE	W02
	BYTE		N01   
	BYTE	W02
	BYTE		N02     Fs2   v028
	BYTE	W03
	BYTE		        Fs2   v016
	BYTE	W03
// 026   ----------------------------------------
	BYTE		N05     Cn2   v100
	BYTE		N03     Fs2   v056
	BYTE	W06
	BYTE		        Fs2   v040
	BYTE	W06
	BYTE		N02     Fs2   v016
	BYTE	W06
	BYTE		N03     Fs2   v044
	BYTE	W06
	BYTE		        Fs2   v036
	BYTE	W06
	BYTE		N02     Fs2   v016
	BYTE	W06
	BYTE		N03     Fs2   v048
	BYTE	W06
	BYTE		        Fs2   v036
	BYTE	W06
	BYTE		N02     Fs2   v016
	BYTE	W06
	BYTE		N03     Fs2   v052
	BYTE	W06
	BYTE		        Fs2   v044
	BYTE	W06
	BYTE		N02     Cn2   v096
	BYTE		N02     Fs2   v044
	BYTE	W03
	BYTE		        Fs2   v036
	BYTE	W03
	BYTE		N01     Fs2   v032
	BYTE	W02
	BYTE		        Fs2   v028
	BYTE	W02
	BYTE		N01   
	BYTE	W02
	BYTE		N02     Fs2   v044
	BYTE	W03
	BYTE		        Fs2   v036
	BYTE	W03
	BYTE		        Cn2   v096
	BYTE		N01     Fs2   v044
	BYTE	W03
	BYTE		N02     Fs2   v020
	BYTE	W09
// 027   ----------------------------------------
	BYTE		N24     Cs3   v072
	BYTE	W18
	BYTE		N06     Cn2   v096
	BYTE		N17     Gn2   v104
	BYTE	W18
	BYTE		N06     Cn2   v096
	BYTE		N11     An2   v104
	BYTE	W12
	BYTE		N05     Cn2   v112
	BYTE	W06
	BYTE		N11     Bn2   v127
	BYTE	W12
	BYTE		N03     Dn2 
	BYTE		N17     En3   v072
	BYTE	W18
	BYTE		N02     Cn2   v112
	BYTE		N02     Cn3   v127
	BYTE	W03
	BYTE		        An2   v104
	BYTE	W03
	BYTE		        Gn2   v127
	BYTE	W03
	BYTE		        Fn2   v104
	BYTE	W03
// 028   ----------------------------------------
	BYTE	W01
	BYTE	GoTo
	 POIN2	FE11CombatMissionSme_9_B1
FE11CombatMissionSme_9_B2:
	BYTE	FINE

//******************************************************//
	ALIGN 4

FE11CombatMissionSme:
	BYTE	9	// NumTrks
	BYTE	0	// NumBlks
	BYTE	FE11CombatMissionSme_pri	// Priority
	BYTE	FE11CombatMissionSme_rev	// Reverb.

	POIN2	FE11CombatMissionSme_grp

	POIN2	FE11CombatMissionSme_1
	POIN2	FE11CombatMissionSme_2
	POIN2	FE11CombatMissionSme_3
	POIN2	FE11CombatMissionSme_4
	POIN2	FE11CombatMissionSme_5
	POIN2	FE11CombatMissionSme_6
	POIN2	FE11CombatMissionSme_7
	POIN2	FE11CombatMissionSme_8
	POIN2	FE11CombatMissionSme_9

	
