//Event file generated from Sappy .s format.
	#include "MPlayDef.event"

	#define	FE11EndlessBattleREALxViPerZ_grp  voicegroup000
	#define	FE11EndlessBattleREALxViPerZ_pri  0
	#define	FE11EndlessBattleREALxViPerZ_rev  0
	#define	FE11EndlessBattleREALxViPerZ_mvl  127
	#define	FE11EndlessBattleREALxViPerZ_key  0
	#define	FE11EndlessBattleREALxViPerZ_tbs  1
	#define	FE11EndlessBattleREALxViPerZ_exg  0
	#define	FE11EndlessBattleREALxViPerZ_cmp  1

	// .rodata
	//	FE11EndlessBattleREALxViPerZ
	ALIGN 4


//**************** Track 1 (Midi-Chn.0) ****************//

FE11EndlessBattleREALxViPerZ_001:
//  #01 //000   ----------------------------------------
 BYTE   KEYSH   FE11EndlessBattleREALxViPerZ_key+0
 BYTE   TEMPO   122*FE11EndlessBattleREALxViPerZ_tbs/2
 BYTE   VOICE   2
 BYTE   MODT 0
 BYTE   LFOS 44
 BYTE   VOL   75*FE11EndlessBattleREALxViPerZ_mvl/mxv
 BYTE   PAN   c_v+0
 BYTE   BEND   c_v+0
 BYTE   N30  Gn0  v127
 BYTE   W36
 BYTE   N30
 BYTE   W36
 BYTE   N19
 BYTE   W24
//  #01 //001   ----------------------------------------
 BYTE   N30
 BYTE   W36
 BYTE   N30
 BYTE   W36
 BYTE   N10
 BYTE   W12
 BYTE   N03  Dn1  v072
 BYTE   W06
 BYTE   Gn0
 BYTE   W06
//  #01 //002   ----------------------------------------
Label_01C836E8:
 BYTE   N11  Cn1  v127
 BYTE   W12
 BYTE   N03
 BYTE   W12
 BYTE   N07  Cn1  v056
 BYTE   W12
 BYTE   N11  Cn1  v127
 BYTE   W12
 BYTE   N02
 BYTE   W12
 BYTE   N06  Cn1  v056
 BYTE   W12
 BYTE   N11  Cn1  v127
 BYTE   W12
 BYTE   N02  Cn1  v056
 BYTE   W06
 BYTE   Cn1  v032
 BYTE   W06
 BYTE   PEND 
//  #01 //003   ----------------------------------------
Label_01C83708:
 BYTE   N11  As0  v127
 BYTE   W12
 BYTE   N03
 BYTE   W12
 BYTE   N07  As0  v056
 BYTE   W12
 BYTE   N11  As0  v127
 BYTE   W12
 BYTE   N02
 BYTE   W12
 BYTE   N06  As0  v056
 BYTE   W12
 BYTE   N11  As0  v127
 BYTE   W12
 BYTE   N02  As0  v056
 BYTE   W06
 BYTE   As0  v032
 BYTE   W06
 BYTE   PEND 
//  #01 //004   ----------------------------------------
Label_01C83728:
 BYTE   N11  Gs0  v127
 BYTE   W12
 BYTE   N03
 BYTE   W12
 BYTE   N07  Gs0  v056
 BYTE   W12
 BYTE   N11  Gs0  v127
 BYTE   W12
 BYTE   N02
 BYTE   W12
 BYTE   N06  Gs0  v056
 BYTE   W12
 BYTE   N11  Gs0  v127
 BYTE   W12
 BYTE   N02  Gs0  v056
 BYTE   W06
 BYTE   Gs0  v032
 BYTE   W06
 BYTE   PEND 
//  #01 //005   ----------------------------------------
Label_01C83748:
 BYTE   N11  Gn0  v127
 BYTE   W12
 BYTE   N03
 BYTE   W12
 BYTE   N07  Gn0  v056
 BYTE   W12
 BYTE   N11  Gn0  v127
 BYTE   W12
 BYTE   N02
 BYTE   W12
 BYTE   N06  Gn0  v056
 BYTE   W12
 BYTE   N11  Gn0  v127
 BYTE   W12
 BYTE   N02  Gn0  v056
 BYTE   W06
 BYTE   Gn0  v032
 BYTE   W06
 BYTE   PEND 
//  #01 //006   ----------------------------------------
 BYTE   N11  Fn0  v127
 BYTE   W12
 BYTE   N03
 BYTE   W12
 BYTE   N07  Fn0  v056
 BYTE   W12
 BYTE   N11  Fn0  v127
 BYTE   W12
 BYTE   N02
 BYTE   W12
 BYTE   N06  Fn0  v056
 BYTE   W12
 BYTE   N11  Fn0  v127
 BYTE   W12
 BYTE   N02  Fn0  v056
 BYTE   W06
 BYTE   Fn0  v032
 BYTE   W06
//  #01 //007   ----------------------------------------
 BYTE   N11  Ds1  v127
 BYTE   W12
 BYTE   N03
 BYTE   W12
 BYTE   N07  Ds1  v056
 BYTE   W12
 BYTE   N11  Ds1  v127
 BYTE   W12
 BYTE   N02
 BYTE   W12
 BYTE   N06  Ds1  v056
 BYTE   W12
 BYTE   N11  Ds1  v127
 BYTE   W12
 BYTE   N02  Ds1  v056
 BYTE   W06
 BYTE   Ds1  v032
 BYTE   W06
//  #01 //008   ----------------------------------------
Label_01C837A6:
 BYTE   N11  Dn1  v127
 BYTE   W12
 BYTE   N03
 BYTE   W12
 BYTE   N07  Dn1  v056
 BYTE   W12
 BYTE   N11  Dn1  v127
 BYTE   W12
 BYTE   N02
 BYTE   W12
 BYTE   N06  Dn1  v056
 BYTE   W12
 BYTE   N11  Dn1  v127
 BYTE   W12
 BYTE   N02  Dn1  v056
 BYTE   W06
 BYTE   Dn1  v032
 BYTE   W06
 BYTE   PEND 
//  #01 //009   ----------------------------------------
 BYTE   N11  Gn0  v127
 BYTE   W12
 BYTE   N03
 BYTE   W12
 BYTE   N07  Gn0  v056
 BYTE   W12
 BYTE   N11  Gn0  v127
 BYTE   W12
 BYTE   N02
 BYTE   W12
 BYTE   N06  Gn0  v056
 BYTE   W12
 BYTE   N11  Gn0  v127
 BYTE   W12
 BYTE   N03  Dn1
 BYTE   W06
 BYTE   Gn1
 BYTE   W06
//  #01 //010   ----------------------------------------
 BYTE   PATT
  POIN2 Label_01C836E8
//  #01 //011   ----------------------------------------
 BYTE   PATT
  POIN2 Label_01C83708
//  #01 //012   ----------------------------------------
 BYTE   N11  An0  v127
 BYTE   W12
 BYTE   N03
 BYTE   W12
 BYTE   N07  An0  v056
 BYTE   W12
 BYTE   N11  An0  v127
 BYTE   W12
 BYTE   N02
 BYTE   W12
 BYTE   N06  An0  v056
 BYTE   W12
 BYTE   N11  An0  v127
 BYTE   W12
 BYTE   N02  An0  v056
 BYTE   W06
 BYTE   An0  v032
 BYTE   W06
//  #01 //013   ----------------------------------------
 BYTE   PATT
  POIN2 Label_01C83728
//  #01 //014   ----------------------------------------
Label_01C83811:
 BYTE   N11  Cs1  v127
 BYTE   W12
 BYTE   N03
 BYTE   W12
 BYTE   N07  Cs1  v056
 BYTE   W12
 BYTE   N11  Cs1  v127
 BYTE   W12
 BYTE   N02
 BYTE   W12
 BYTE   N06  Cs1  v056
 BYTE   W12
 BYTE   N11  Cs1  v127
 BYTE   W12
 BYTE   N02  Cs1  v056
 BYTE   W06
 BYTE   Cs1  v032
 BYTE   W06
 BYTE   PEND 
//  #01 //015   ----------------------------------------
 BYTE   PATT
  POIN2 Label_01C83811
//  #01 //016   ----------------------------------------
 BYTE   PATT
  POIN2 Label_01C837A6
//  #01 //017   ----------------------------------------
 BYTE   PATT
  POIN2 Label_01C83748
//  #01 //018   ----------------------------------------
 BYTE   N44  Gs0  v100
 BYTE   W48
 BYTE   N21  Ds1
 BYTE   W24
 BYTE   Gs1
 BYTE   W24
//  #01 //019   ----------------------------------------
 BYTE   N22  As1
 BYTE   W24
 BYTE   N52  As0
 BYTE   W60
 BYTE   N04  Cn1
 BYTE   W06
 BYTE   Dn1
 BYTE   W06
//  #01 //020   ----------------------------------------
Label_01C83854:
 BYTE   N44  Ds1  v100
 BYTE   W48
 BYTE   N22  As0
 BYTE   W24
 BYTE   Ds1
 BYTE   W24
 BYTE   PEND 
//  #01 //021   ----------------------------------------
 BYTE   N44  Fn1
 BYTE   W48
 BYTE   N22  Cn1
 BYTE   W24
 BYTE   An0
 BYTE   W24
//  #01 //022   ----------------------------------------
 BYTE   N68  Gs0
 BYTE   W72
 BYTE   N22  Ds1
 BYTE   W24
//  #01 //023   ----------------------------------------
 BYTE   As0
 BYTE   W24
 BYTE   Fn1
 BYTE   W24
 BYTE   Cn2
 BYTE   W24
 BYTE   As1
 BYTE   W24
//  #01 //024   ----------------------------------------
 BYTE   N44  An1
 BYTE   W48
 BYTE   An0
 BYTE   W48
//  #01 //025   ----------------------------------------
 BYTE   N22  Fn1
 BYTE   W24
 BYTE   Ds1
 BYTE   W24
 BYTE   Cn1
 BYTE   W24
 BYTE   An0
 BYTE   W24
//  #01 //026   ----------------------------------------
 BYTE   N76  Gs0
 BYTE   W84
 BYTE   N04  As0
 BYTE   W06
 BYTE   Cn1
 BYTE   W06
//  #01 //027   ----------------------------------------
 BYTE   N44  As0
 BYTE   W48
 BYTE   N22  Cn1
 BYTE   W24
 BYTE   Dn1
 BYTE   W24
//  #01 //028   ----------------------------------------
 BYTE   PATT
  POIN2 Label_01C83854
//  #01 //029   ----------------------------------------
 BYTE   N44  Fn1  v100
 BYTE   W48
 BYTE   Fn0
 BYTE   W48
//  #01 //030   ----------------------------------------
 BYTE   Gs0
 BYTE   W48
 BYTE   N22  Ds1
 BYTE   W24
 BYTE   N44  Gs1
 BYTE   W24
//  #01 //031   ----------------------------------------
 BYTE   W24
 BYTE   Gs0
 BYTE   W48
 BYTE   N22  Cn1
 BYTE   W24
//  #01 //032   ----------------------------------------
 BYTE   As0
 BYTE   W24
 BYTE   N22
 BYTE   W24
 BYTE   N22
 BYTE   W24
 BYTE   N22
 BYTE   W24
//  #01 //033   ----------------------------------------
 BYTE   Bn0
 BYTE   W24
 BYTE   N22
 BYTE   W24
 BYTE   Gn0
 BYTE   W24
 BYTE   Bn0
 BYTE   W24
//  #01 //034   ----------------------------------------
 BYTE   N32  Cn1
 BYTE   W36
 BYTE   As0
 BYTE   W36
 BYTE   N22  Gs0
 BYTE   W24
//  #01 //035   ----------------------------------------
Label_01C838C3:
 BYTE   N30  Gs0  v100
 BYTE   W36
 BYTE   N30
 BYTE   W36
 BYTE   N19
 BYTE   W24
 BYTE   PEND 
//  #01 //036   ----------------------------------------
 BYTE   N32  Cn1
 BYTE   W36
 BYTE   As0
 BYTE   W36
 BYTE   N20  Gs0
 BYTE   W24
//  #01 //037   ----------------------------------------
 BYTE   PATT
  POIN2 Label_01C838C3
//  #01 //038   ----------------------------------------
 BYTE   N30  Gn0  v127
 BYTE   W36
 BYTE   N30
 BYTE   W36
 BYTE   N19
 BYTE   W24
//  #01 //039   ----------------------------------------
 BYTE   N30
 BYTE   W36
 BYTE   N30
 BYTE   W36
 BYTE   N03  Dn1  v072
 BYTE   W12
 BYTE   Gn0
 BYTE   W11
 BYTE   GoTo
  POIN2 Label_01C836E8
 BYTE   FINE

//**************** Track 2 (Midi-Chn.1) ****************//

FE11EndlessBattleREALxViPerZ_002:
//  #02 //000   ----------------------------------------
 BYTE   KEYSH   FE11EndlessBattleREALxViPerZ_key+0
 BYTE   VOICE   41
 BYTE   MODT 0
 BYTE   LFOS 44
 BYTE   VOL   72*FE11EndlessBattleREALxViPerZ_mvl/mxv
 BYTE   PAN   c_v+32
 BYTE   BEND   c_v+0
 BYTE   N11  Gn2  v029
 BYTE   W36
 BYTE   Gn2  v037
 BYTE   W36
 BYTE   Gn2  v057
 BYTE   W24
//  #02 //001   ----------------------------------------
 BYTE   Gn2  v085
 BYTE   W36
 BYTE   Gn2  v049
 BYTE   W36
 BYTE   Gn2  v057
 BYTE   W24
//  #02 //002   ----------------------------------------
Label_5462D1:
 BYTE   N11  Gn2  v081
 BYTE   W24
 BYTE   Gn2  v033
 BYTE   W24
 BYTE   Gn2  v041
 BYTE   W24
 BYTE   Gn2  v033
 BYTE   W24
 BYTE   PEND 
//  #02 //003   ----------------------------------------
Label_5462DF:
 BYTE   N11  Fn2  v081
 BYTE   W24
 BYTE   Fn2  v033
 BYTE   W24
 BYTE   Fn2  v041
 BYTE   W24
 BYTE   Fn2  v033
 BYTE   W24
 BYTE   PEND 
//  #02 //004   ----------------------------------------
Label_5462ED:
 BYTE   N11  Ds2  v081
 BYTE   W24
 BYTE   Ds2  v033
 BYTE   W24
 BYTE   Ds2  v041
 BYTE   W24
 BYTE   Ds2  v033
 BYTE   W24
 BYTE   PEND 
//  #02 //005   ----------------------------------------
 BYTE   Dn2  v081
 BYTE   W24
 BYTE   Dn2  v033
 BYTE   W24
 BYTE   Dn2  v041
 BYTE   W24
 BYTE   Dn2  v033
 BYTE   W24
//  #02 //006   ----------------------------------------
Label_546307:
 BYTE   N11  Cn2  v081
 BYTE   W24
 BYTE   Cn2  v033
 BYTE   W24
 BYTE   Cn2  v041
 BYTE   W24
 BYTE   Cn2  v033
 BYTE   W24
 BYTE   PEND 
//  #02 //007   ----------------------------------------
 BYTE   PATT
  POIN2 Label_546307
//  #02 //008   ----------------------------------------
 BYTE   N11  Dn2  v081
 BYTE   W24
 BYTE   Dn2  v033
 BYTE   W24
 BYTE   Fn2  v041
 BYTE   W24
 BYTE   Fn2  v033
 BYTE   W24
//  #02 //009   ----------------------------------------
 BYTE   PATT
  POIN2 Label_5462D1
//  #02 //010   ----------------------------------------
 BYTE   PATT
  POIN2 Label_5462D1
//  #02 //011   ----------------------------------------
 BYTE   PATT
  POIN2 Label_5462DF
//  #02 //012   ----------------------------------------
 BYTE   PATT
  POIN2 Label_5462DF
//  #02 //013   ----------------------------------------
 BYTE   PATT
  POIN2 Label_5462D1
//  #02 //014   ----------------------------------------
 BYTE   PATT
  POIN2 Label_5462ED
//  #02 //015   ----------------------------------------
 BYTE   PATT
  POIN2 Label_5462DF
//  #02 //016   ----------------------------------------
 BYTE   PATT
  POIN2 Label_5462DF
//  #02 //017   ----------------------------------------
 BYTE   N11  Gn2  v081
 BYTE   W24
 BYTE   Cn3  v033
 BYTE   W24
 BYTE   Dn3  v041
 BYTE   W24
 BYTE   Gn2  v033
 BYTE   W24
//  #02 //018   ----------------------------------------
 BYTE   W96
//  #02 //019   ----------------------------------------
 BYTE   W96
//  #02 //020   ----------------------------------------
 BYTE   W96
//  #02 //021   ----------------------------------------
 BYTE   W96
//  #02 //022   ----------------------------------------
 BYTE   W96
//  #02 //023   ----------------------------------------
 BYTE   W96
//  #02 //024   ----------------------------------------
 BYTE   W96
//  #02 //025   ----------------------------------------
 BYTE   W96
//  #02 //026   ----------------------------------------
 BYTE   W96
//  #02 //027   ----------------------------------------
 BYTE   W96
//  #02 //028   ----------------------------------------
 BYTE   W96
//  #02 //029   ----------------------------------------
 BYTE   W96
//  #02 //030   ----------------------------------------
 BYTE   W96
//  #02 //031   ----------------------------------------
 BYTE   W96
//  #02 //032   ----------------------------------------
 BYTE   W96
//  #02 //033   ----------------------------------------
 BYTE   W96
//  #02 //034   ----------------------------------------
 BYTE   W96
//  #02 //035   ----------------------------------------
 BYTE   W96
//  #02 //036   ----------------------------------------
 BYTE   W96
//  #02 //037   ----------------------------------------
 BYTE   W96
//  #02 //038   ----------------------------------------
 BYTE   Gn2  v029
 BYTE   W36
 BYTE   Gn2  v037
 BYTE   W36
 BYTE   Gn2  v057
 BYTE   W24
//  #02 //039   ----------------------------------------
 BYTE   N11
 BYTE   W36
 BYTE   Gn2  v029
 BYTE   W36
 BYTE   Gn2  v057
 BYTE   W23
 BYTE   GoTo
  POIN2 Label_5462D1
 BYTE   FINE

//**************** Track 3 (Midi-Chn.2) ****************//

FE11EndlessBattleREALxViPerZ_003:
//  #03 //000   ----------------------------------------
 BYTE   KEYSH   FE11EndlessBattleREALxViPerZ_key+0
 BYTE   VOICE   41
 BYTE   MODT 0
 BYTE   LFOS 44
 BYTE   VOL   72*FE11EndlessBattleREALxViPerZ_mvl/mxv
 BYTE   PAN   c_v+0
 BYTE   BEND   c_v+0
 BYTE   N11  Dn2  v029
 BYTE   W36
 BYTE   Dn2  v037
 BYTE   W36
 BYTE   Dn2  v057
 BYTE   W24
//  #03 //001   ----------------------------------------
 BYTE   Dn2  v085
 BYTE   W36
 BYTE   Dn2  v049
 BYTE   W36
 BYTE   Dn2  v057
 BYTE   W24
//  #03 //002   ----------------------------------------
Label_547969:
 BYTE   N11  Ds2  v081
 BYTE   W24
 BYTE   Ds2  v033
 BYTE   W24
 BYTE   Ds2  v041
 BYTE   W24
 BYTE   Ds2  v033
 BYTE   W24
 BYTE   PEND 
//  #03 //003   ----------------------------------------
Label_547977:
 BYTE   N11  Dn2  v081
 BYTE   W24
 BYTE   Dn2  v033
 BYTE   W24
 BYTE   Dn2  v041
 BYTE   W24
 BYTE   Dn2  v033
 BYTE   W24
 BYTE   PEND 
//  #03 //004   ----------------------------------------
Label_547985:
 BYTE   N11  Cn2  v081
 BYTE   W24
 BYTE   Cn2  v033
 BYTE   W24
 BYTE   Cn2  v041
 BYTE   W24
 BYTE   Cn2  v033
 BYTE   W24
 BYTE   PEND 
//  #03 //005   ----------------------------------------
Label_547993:
 BYTE   N11  As1  v081
 BYTE   W24
 BYTE   As1  v033
 BYTE   W24
 BYTE   As1  v041
 BYTE   W24
 BYTE   As1  v033
 BYTE   W24
 BYTE   PEND 
//  #03 //006   ----------------------------------------
 BYTE   Gs1  v081
 BYTE   W24
 BYTE   Gs1  v033
 BYTE   W24
 BYTE   Gs1  v041
 BYTE   W24
 BYTE   Gs1  v033
 BYTE   W24
//  #03 //007   ----------------------------------------
 BYTE   PATT
  POIN2 Label_547993
//  #03 //008   ----------------------------------------
 BYTE   N11  Gs1  v081
 BYTE   W24
 BYTE   Gs1  v033
 BYTE   W24
 BYTE   Cn2  v041
 BYTE   W24
 BYTE   Cn2  v033
 BYTE   W24
//  #03 //009   ----------------------------------------
 BYTE   PATT
  POIN2 Label_547977
//  #03 //010   ----------------------------------------
 BYTE   PATT
  POIN2 Label_547969
//  #03 //011   ----------------------------------------
 BYTE   PATT
  POIN2 Label_547977
//  #03 //012   ----------------------------------------
 BYTE   PATT
  POIN2 Label_547985
//  #03 //013   ----------------------------------------
 BYTE   PATT
  POIN2 Label_547969
//  #03 //014   ----------------------------------------
 BYTE   PATT
  POIN2 Label_547985
//  #03 //015   ----------------------------------------
 BYTE   PATT
  POIN2 Label_547985
//  #03 //016   ----------------------------------------
 BYTE   N11  En2  v081
 BYTE   W24
 BYTE   En2  v033
 BYTE   W24
 BYTE   En2  v041
 BYTE   W24
 BYTE   En2  v033
 BYTE   W24
//  #03 //017   ----------------------------------------
 BYTE   Dn2  v081
 BYTE   W24
 BYTE   Gn2  v033
 BYTE   W24
 BYTE   Fn2  v041
 BYTE   W24
 BYTE   Dn2  v033
 BYTE   W24
//  #03 //018   ----------------------------------------
 BYTE   W96
//  #03 //019   ----------------------------------------
 BYTE   W96
//  #03 //020   ----------------------------------------
 BYTE   W96
//  #03 //021   ----------------------------------------
 BYTE   W96
//  #03 //022   ----------------------------------------
 BYTE   W96
//  #03 //023   ----------------------------------------
 BYTE   W96
//  #03 //024   ----------------------------------------
 BYTE   W96
//  #03 //025   ----------------------------------------
 BYTE   W96
//  #03 //026   ----------------------------------------
 BYTE   W96
//  #03 //027   ----------------------------------------
 BYTE   W96
//  #03 //028   ----------------------------------------
 BYTE   W96
//  #03 //029   ----------------------------------------
 BYTE   W96
//  #03 //030   ----------------------------------------
 BYTE   W96
//  #03 //031   ----------------------------------------
 BYTE   W96
//  #03 //032   ----------------------------------------
 BYTE   W96
//  #03 //033   ----------------------------------------
 BYTE   W96
//  #03 //034   ----------------------------------------
 BYTE   W96
//  #03 //035   ----------------------------------------
 BYTE   W96
//  #03 //036   ----------------------------------------
 BYTE   W96
//  #03 //037   ----------------------------------------
 BYTE   W96
//  #03 //038   ----------------------------------------
 BYTE   Dn2  v029
 BYTE   W36
 BYTE   Dn2  v037
 BYTE   W36
 BYTE   Dn2  v057
 BYTE   W24
//  #03 //039   ----------------------------------------
 BYTE   N11
 BYTE   W36
 BYTE   Dn2  v029
 BYTE   W36
 BYTE   Dn2  v057
 BYTE   W23
 BYTE   GoTo
  POIN2 Label_547969
 BYTE   FINE

//**************** Track 4 (Midi-Chn.3) ****************//

FE11EndlessBattleREALxViPerZ_004:
//  #04 //000   ----------------------------------------
 BYTE   KEYSH   FE11EndlessBattleREALxViPerZ_key+0
 BYTE   VOICE   41
 BYTE   MODT 0
 BYTE   LFOS 44
 BYTE   VOL   72*FE11EndlessBattleREALxViPerZ_mvl/mxv
 BYTE   PAN   c_v+15
 BYTE   BEND   c_v+0
 BYTE   N11  Cn2  v029
 BYTE   W12
 BYTE   N04  Gn1  v025
 BYTE   W12
 BYTE   Gn1  v037
 BYTE   W12
 BYTE   N11  Cn2
 BYTE   W12
 BYTE   N04  Gn1
 BYTE   W12
 BYTE   Gn1  v025
 BYTE   W12
 BYTE   N11  Cn2  v057
 BYTE   W12
 BYTE   N04  Gn1  v025
 BYTE   W12
//  #04 //001   ----------------------------------------
 BYTE   N11  Bn1  v085
 BYTE   W12
 BYTE   N04  Gn1  v025
 BYTE   W12
 BYTE   Gn1  v037
 BYTE   W12
 BYTE   N11  Bn1  v049
 BYTE   W12
 BYTE   N04  Gn1  v037
 BYTE   W12
 BYTE   Gn1  v025
 BYTE   W12
 BYTE   N11  Bn1  v057
 BYTE   W12
 BYTE   N04  Gn1  v025
 BYTE   W12
//  #04 //002   ----------------------------------------
Label_01C83508:
 BYTE   N11  Dn2  v081
 BYTE   W12
 BYTE   N04  Gn1  v037
 BYTE   W12
 BYTE   N11  Dn2  v033
 BYTE   W12
 BYTE   N04  Gn1  v037
 BYTE   W12
 BYTE   N11  Dn2  v041
 BYTE   W12
 BYTE   N04  Gn1  v037
 BYTE   W12
 BYTE   N11  Dn2  v033
 BYTE   W12
 BYTE   N04  Gn1  v037
 BYTE   W12
 BYTE   PEND 
//  #04 //003   ----------------------------------------
Label_01C83529:
 BYTE   N11  Cn2  v081
 BYTE   W12
 BYTE   N04  Fn1  v037
 BYTE   W12
 BYTE   N11  Cn2  v033
 BYTE   W12
 BYTE   N04  Fn1  v037
 BYTE   W12
 BYTE   N11  Cn2  v041
 BYTE   W12
 BYTE   N04  Fn1  v037
 BYTE   W12
 BYTE   N11  Cn2  v033
 BYTE   W12
 BYTE   N04  Fn1  v037
 BYTE   W12
 BYTE   PEND 
//  #04 //004   ----------------------------------------
Label_01C8354A:
 BYTE   N11  As1  v081
 BYTE   W12
 BYTE   N04  Gn1  v037
 BYTE   W12
 BYTE   N11  As1  v033
 BYTE   W12
 BYTE   N04  Gn1  v037
 BYTE   W12
 BYTE   N11  As1  v041
 BYTE   W12
 BYTE   N04  Gn1  v037
 BYTE   W12
 BYTE   N11  As1  v033
 BYTE   W12
 BYTE   N04  Gn1  v037
 BYTE   W12
 BYTE   PEND 
//  #04 //005   ----------------------------------------
Label_01C8356B:
 BYTE   N11  An1  v081
 BYTE   W12
 BYTE   N04  Fn1  v037
 BYTE   W12
 BYTE   N11  An1  v033
 BYTE   W12
 BYTE   N04  Fn1  v037
 BYTE   W12
 BYTE   N11  An1  v041
 BYTE   W12
 BYTE   N04  Fn1  v037
 BYTE   W12
 BYTE   N11  An1  v033
 BYTE   W12
 BYTE   N04  Fn1  v037
 BYTE   W12
 BYTE   PEND 
//  #04 //006   ----------------------------------------
Label_01C8358C:
 BYTE   N11  Gn1  v081
 BYTE   W12
 BYTE   N04  Ds1  v037
 BYTE   W12
 BYTE   N11  Gn1  v033
 BYTE   W12
 BYTE   N04  Ds1  v037
 BYTE   W12
 BYTE   N11  Gn1  v041
 BYTE   W12
 BYTE   N04  Ds1  v037
 BYTE   W12
 BYTE   N11  Gn1  v033
 BYTE   W12
 BYTE   N04  Ds1  v037
 BYTE   W12
 BYTE   PEND 
//  #04 //007   ----------------------------------------
 BYTE   PATT
  POIN2 Label_01C8358C
//  #04 //008   ----------------------------------------
 BYTE   N11  Fn1  v081
 BYTE   W12
 BYTE   N04  Dn1  v037
 BYTE   W12
 BYTE   N11  Fn1  v033
 BYTE   W12
 BYTE   N04  Dn1  v037
 BYTE   W12
 BYTE   N11  Gs1  v041
 BYTE   W12
 BYTE   N04  Fn1  v037
 BYTE   W12
 BYTE   N11  Gs1  v033
 BYTE   W12
 BYTE   N04  Fn1  v037
 BYTE   W12
//  #04 //009   ----------------------------------------
 BYTE   N11  Cn2  v081
 BYTE   W12
 BYTE   N04  Gn1  v037
 BYTE   W12
 BYTE   N11  Cn2  v033
 BYTE   W12
 BYTE   N04  Gn1  v037
 BYTE   W12
 BYTE   N11  Bn1  v041
 BYTE   W12
 BYTE   N04  Gn1  v037
 BYTE   W12
 BYTE   N11  Bn1  v033
 BYTE   W12
 BYTE   N04  Gn1  v037
 BYTE   W12
//  #04 //010   ----------------------------------------
 BYTE   PATT
  POIN2 Label_01C83508
//  #04 //011   ----------------------------------------
 BYTE   PATT
  POIN2 Label_01C83529
//  #04 //012   ----------------------------------------
 BYTE   PATT
  POIN2 Label_01C8356B
//  #04 //013   ----------------------------------------
 BYTE   PATT
  POIN2 Label_01C8354A
//  #04 //014   ----------------------------------------
Label_01C83606:
 BYTE   N11  Gs1  v081
 BYTE   W12
 BYTE   N04  Fn1  v037
 BYTE   W12
 BYTE   N11  Gs1  v033
 BYTE   W12
 BYTE   N04  Fn1  v037
 BYTE   W12
 BYTE   N11  Gs1  v041
 BYTE   W12
 BYTE   N04  Fn1  v037
 BYTE   W12
 BYTE   N11  Gs1  v033
 BYTE   W12
 BYTE   N04  Fn1  v037
 BYTE   W12
 BYTE   PEND 
//  #04 //015   ----------------------------------------
 BYTE   PATT
  POIN2 Label_01C83606
//  #04 //016   ----------------------------------------
 BYTE   N11  Cn2  v081
 BYTE   W12
 BYTE   N04  An1  v037
 BYTE   W12
 BYTE   N11  Cn2  v033
 BYTE   W12
 BYTE   N04  An1  v037
 BYTE   W12
 BYTE   N11  Cn2  v041
 BYTE   W12
 BYTE   N04  An1  v037
 BYTE   W12
 BYTE   N11  Cn2  v033
 BYTE   W12
 BYTE   N04  An1  v037
 BYTE   W12
//  #04 //017   ----------------------------------------
 BYTE   N11  Cn2  v081
 BYTE   W12
 BYTE   N04  Gn1  v037
 BYTE   W12
 BYTE   N11  Dn2  v033
 BYTE   W12
 BYTE   N04  Cn2  v037
 BYTE   W12
 BYTE   N11  Bn1  v041
 BYTE   W12
 BYTE   N04  Gn1  v037
 BYTE   W12
 BYTE   N11  Bn1  v033
 BYTE   W12
 BYTE   N04  Gn1  v037
 BYTE   W12
//  #04 //018   ----------------------------------------
 BYTE   W96
//  #04 //019   ----------------------------------------
 BYTE   W96
//  #04 //020   ----------------------------------------
 BYTE   W96
//  #04 //021   ----------------------------------------
 BYTE   W96
//  #04 //022   ----------------------------------------
 BYTE   W96
//  #04 //023   ----------------------------------------
 BYTE   W96
//  #04 //024   ----------------------------------------
 BYTE   W96
//  #04 //025   ----------------------------------------
 BYTE   W96
//  #04 //026   ----------------------------------------
 BYTE   W96
//  #04 //027   ----------------------------------------
 BYTE   W96
//  #04 //028   ----------------------------------------
 BYTE   W96
//  #04 //029   ----------------------------------------
 BYTE   W96
//  #04 //030   ----------------------------------------
 BYTE   W96
//  #04 //031   ----------------------------------------
 BYTE   W96
//  #04 //032   ----------------------------------------
 BYTE   W96
//  #04 //033   ----------------------------------------
 BYTE   W96
//  #04 //034   ----------------------------------------
 BYTE   W96
//  #04 //035   ----------------------------------------
 BYTE   W96
//  #04 //036   ----------------------------------------
 BYTE   W96
//  #04 //037   ----------------------------------------
 BYTE   W96
//  #04 //038   ----------------------------------------
 BYTE   N11  Cn2  v029
 BYTE   W12
 BYTE   N04  Gn1  v025
 BYTE   W12
 BYTE   Gn1  v037
 BYTE   W12
 BYTE   N11  Cn2
 BYTE   W12
 BYTE   N04  Gn1
 BYTE   W12
 BYTE   Gn1  v025
 BYTE   W12
 BYTE   N11  Cn2  v057
 BYTE   W12
 BYTE   N04  Gn1  v025
 BYTE   W12
//  #04 //039   ----------------------------------------
 BYTE   N11  Bn1  v057
 BYTE   W12
 BYTE   N04  Gn1  v025
 BYTE   W12
 BYTE   Gn1  v037
 BYTE   W12
 BYTE   N11  Bn1  v029
 BYTE   W12
 BYTE   N04  Gn1  v037
 BYTE   W12
 BYTE   Gn1  v025
 BYTE   W12
 BYTE   N11  Bn1  v057
 BYTE   W12
 BYTE   N04  Gn1  v025
 BYTE   W11
 BYTE   GoTo
  POIN2 Label_01C83508
 BYTE   FINE

//**************** Track 5 (Midi-Chn.4) ****************//

FE11EndlessBattleREALxViPerZ_005:
//  #05 //000   ----------------------------------------
 BYTE   KEYSH   FE11EndlessBattleREALxViPerZ_key+0
 BYTE   VOICE   79
 BYTE   MODT 0
 BYTE   LFOS 44
 BYTE   VOL   42*FE11EndlessBattleREALxViPerZ_mvl/mxv
 BYTE   PAN   c_v-23
 BYTE   VOL   33*FE11EndlessBattleREALxViPerZ_mvl/mxv
 BYTE   BEND   c_v+0
 BYTE   W96
//  #05 //001   ----------------------------------------
 BYTE   W92
 BYTE   VOL   33*FE11EndlessBattleREALxViPerZ_mvl/mxv
 BYTE   W01
 BYTE   VOL   40*FE11EndlessBattleREALxViPerZ_mvl/mxv
 BYTE   W03
//  #05 //002   ----------------------------------------
Label_01C84473:
 BYTE   N32  Ds4  v080
 BYTE   W02
 BYTE   VOL   39*FE11EndlessBattleREALxViPerZ_mvl/mxv
 BYTE   W01
 BYTE   VOL   38*FE11EndlessBattleREALxViPerZ_mvl/mxv
 BYTE   W01
 BYTE   VOL   36*FE11EndlessBattleREALxViPerZ_mvl/mxv
 BYTE   W01
 BYTE   VOL   35*FE11EndlessBattleREALxViPerZ_mvl/mxv
 BYTE   W01
 BYTE   VOL   34*FE11EndlessBattleREALxViPerZ_mvl/mxv
 BYTE   W01
 BYTE   VOL   33*FE11EndlessBattleREALxViPerZ_mvl/mxv
 BYTE   W10
 BYTE   VOL   33*FE11EndlessBattleREALxViPerZ_mvl/mxv
 BYTE   W01
 BYTE   VOL   34*FE11EndlessBattleREALxViPerZ_mvl/mxv
 BYTE   W02
 BYTE   VOL   35*FE11EndlessBattleREALxViPerZ_mvl/mxv
 BYTE   W01
 BYTE   VOL   36*FE11EndlessBattleREALxViPerZ_mvl/mxv
 BYTE   W02
 BYTE   VOL   36*FE11EndlessBattleREALxViPerZ_mvl/mxv
 BYTE   W01
 BYTE   VOL   37*FE11EndlessBattleREALxViPerZ_mvl/mxv
 BYTE   W02
 BYTE   VOL   38*FE11EndlessBattleREALxViPerZ_mvl/mxv
 BYTE   W01
 BYTE   VOL   40*FE11EndlessBattleREALxViPerZ_mvl/mxv
 BYTE   W02
 BYTE   VOL   41*FE11EndlessBattleREALxViPerZ_mvl/mxv
 BYTE   W01
 BYTE   VOL   42*FE11EndlessBattleREALxViPerZ_mvl/mxv
 BYTE   W01
 BYTE   VOL   41*FE11EndlessBattleREALxViPerZ_mvl/mxv
 BYTE   W02
 BYTE   VOL   40*FE11EndlessBattleREALxViPerZ_mvl/mxv
 BYTE   W01
 BYTE   VOL   38*FE11EndlessBattleREALxViPerZ_mvl/mxv
 BYTE   W01
 BYTE   VOL   37*FE11EndlessBattleREALxViPerZ_mvl/mxv
 BYTE   W01
 BYTE   N05  Fn4
 BYTE   W01
 BYTE   VOL   38*FE11EndlessBattleREALxViPerZ_mvl/mxv
 BYTE   W01
 BYTE   VOL   38*FE11EndlessBattleREALxViPerZ_mvl/mxv
 BYTE   W02
 BYTE   VOL   38*FE11EndlessBattleREALxViPerZ_mvl/mxv
 BYTE   W01
 BYTE   VOL   39*FE11EndlessBattleREALxViPerZ_mvl/mxv
 BYTE   W01
 BYTE   N05  Gn4
 BYTE   W01
 BYTE   VOL   40*FE11EndlessBattleREALxViPerZ_mvl/mxv
 BYTE   W01
 BYTE   VOL   40*FE11EndlessBattleREALxViPerZ_mvl/mxv
 BYTE   W02
 BYTE   VOL   40*FE11EndlessBattleREALxViPerZ_mvl/mxv
 BYTE   W01
 BYTE   VOL   41*FE11EndlessBattleREALxViPerZ_mvl/mxv
 BYTE   W01
 BYTE   N56  Cn5
 BYTE   W01
 BYTE   VOL   41*FE11EndlessBattleREALxViPerZ_mvl/mxv
 BYTE   W02
 BYTE   VOL   40*FE11EndlessBattleREALxViPerZ_mvl/mxv
 BYTE   W01
 BYTE   VOL   39*FE11EndlessBattleREALxViPerZ_mvl/mxv
 BYTE   W02
 BYTE   VOL   38*FE11EndlessBattleREALxViPerZ_mvl/mxv
 BYTE   W01
 BYTE   VOL   36*FE11EndlessBattleREALxViPerZ_mvl/mxv
 BYTE   W02
 BYTE   VOL   36*FE11EndlessBattleREALxViPerZ_mvl/mxv
 BYTE   W01
 BYTE   VOL   34*FE11EndlessBattleREALxViPerZ_mvl/mxv
 BYTE   W01
 BYTE   VOL   33*FE11EndlessBattleREALxViPerZ_mvl/mxv
 BYTE   W08
 BYTE   VOL   34*FE11EndlessBattleREALxViPerZ_mvl/mxv
 BYTE   W04
 BYTE   VOL   34*FE11EndlessBattleREALxViPerZ_mvl/mxv
 BYTE   W05
 BYTE   VOL   34*FE11EndlessBattleREALxViPerZ_mvl/mxv
 BYTE   W04
 BYTE   VOL   34*FE11EndlessBattleREALxViPerZ_mvl/mxv
 BYTE   W01
 BYTE   VOL   35*FE11EndlessBattleREALxViPerZ_mvl/mxv
 BYTE   W02
 BYTE   VOL   35*FE11EndlessBattleREALxViPerZ_mvl/mxv
 BYTE   W01
 BYTE   VOL   36*FE11EndlessBattleREALxViPerZ_mvl/mxv
 BYTE   W02
 BYTE   VOL   36*FE11EndlessBattleREALxViPerZ_mvl/mxv
 BYTE   W01
 BYTE   VOL   36*FE11EndlessBattleREALxViPerZ_mvl/mxv
 BYTE   W02
 BYTE   VOL   36*FE11EndlessBattleREALxViPerZ_mvl/mxv
 BYTE   W01
 BYTE   VOL   38*FE11EndlessBattleREALxViPerZ_mvl/mxv
 BYTE   W02
 BYTE   VOL   38*FE11EndlessBattleREALxViPerZ_mvl/mxv
 BYTE   W01
 BYTE   VOL   39*FE11EndlessBattleREALxViPerZ_mvl/mxv
 BYTE   W02
 BYTE   VOL   40*FE11EndlessBattleREALxViPerZ_mvl/mxv
 BYTE   W01
//  #05 //003   ----------------------------------------
 BYTE   VOL   40*FE11EndlessBattleREALxViPerZ_mvl/mxv
 BYTE   W02
 BYTE   VOL   40*FE11EndlessBattleREALxViPerZ_mvl/mxv
 BYTE   W01
 BYTE   VOL   41*FE11EndlessBattleREALxViPerZ_mvl/mxv
 BYTE   W15
 BYTE   N02  Cn5  v044
 BYTE   W03
 BYTE   Cs5
 BYTE   W03
 BYTE   N23  Dn5  v072
 BYTE   W02
 BYTE   VOL   41*FE11EndlessBattleREALxViPerZ_mvl/mxv
 BYTE   W01
 BYTE   VOL   40*FE11EndlessBattleREALxViPerZ_mvl/mxv
 BYTE   W01
 BYTE   VOL   40*FE11EndlessBattleREALxViPerZ_mvl/mxv
 BYTE   W01
 BYTE   VOL   38*FE11EndlessBattleREALxViPerZ_mvl/mxv
 BYTE   W01
 BYTE   VOL   37*FE11EndlessBattleREALxViPerZ_mvl/mxv
 BYTE   W01
 BYTE   VOL   36*FE11EndlessBattleREALxViPerZ_mvl/mxv
 BYTE   W01
 BYTE   VOL   36*FE11EndlessBattleREALxViPerZ_mvl/mxv
 BYTE   W01
 BYTE   VOL   35*FE11EndlessBattleREALxViPerZ_mvl/mxv
 BYTE   W02
 BYTE   VOL   36*FE11EndlessBattleREALxViPerZ_mvl/mxv
 BYTE   W01
 BYTE   VOL   36*FE11EndlessBattleREALxViPerZ_mvl/mxv
 BYTE   W02
 BYTE   VOL   36*FE11EndlessBattleREALxViPerZ_mvl/mxv
 BYTE   W01
 BYTE   VOL   37*FE11EndlessBattleREALxViPerZ_mvl/mxv
 BYTE   W02
 BYTE   VOL   38*FE11EndlessBattleREALxViPerZ_mvl/mxv
 BYTE   W01
 BYTE   VOL   38*FE11EndlessBattleREALxViPerZ_mvl/mxv
 BYTE   W02
 BYTE   VOL   40*FE11EndlessBattleREALxViPerZ_mvl/mxv
 BYTE   W01
 BYTE   VOL   40*FE11EndlessBattleREALxViPerZ_mvl/mxv
 BYTE   W02
 BYTE   VOL   41*FE11EndlessBattleREALxViPerZ_mvl/mxv
 BYTE   W01
 BYTE   VOL   42*FE11EndlessBattleREALxViPerZ_mvl/mxv
 BYTE   N23  As4  v080
 BYTE   W08
 BYTE   VOL   41*FE11EndlessBattleREALxViPerZ_mvl/mxv
 BYTE   W05
 BYTE   VOL   41*FE11EndlessBattleREALxViPerZ_mvl/mxv
 BYTE   W04
 BYTE   VOL   41*FE11EndlessBattleREALxViPerZ_mvl/mxv
 BYTE   W04
 BYTE   VOL   41*FE11EndlessBattleREALxViPerZ_mvl/mxv
 BYTE   W03
 BYTE   N23  Fn4
 BYTE   W01
 BYTE   VOL   41*FE11EndlessBattleREALxViPerZ_mvl/mxv
 BYTE   W04
 BYTE   VOL   40*FE11EndlessBattleREALxViPerZ_mvl/mxv
 BYTE   W03
 BYTE   VOL   40*FE11EndlessBattleREALxViPerZ_mvl/mxv
 BYTE   W03
 BYTE   VOL   39*FE11EndlessBattleREALxViPerZ_mvl/mxv
 BYTE   W03
 BYTE   VOL   38*FE11EndlessBattleREALxViPerZ_mvl/mxv
 BYTE   W03
 BYTE   VOL   38*FE11EndlessBattleREALxViPerZ_mvl/mxv
 BYTE   W03
 BYTE   VOL   37*FE11EndlessBattleREALxViPerZ_mvl/mxv
 BYTE   W03
 BYTE   VOL   36*FE11EndlessBattleREALxViPerZ_mvl/mxv
 BYTE   W01
//  #05 //004   ----------------------------------------
 BYTE   VOL   36*FE11EndlessBattleREALxViPerZ_mvl/mxv
 BYTE   N17  Gn4
 BYTE   W06
 BYTE   VOL   36*FE11EndlessBattleREALxViPerZ_mvl/mxv
 BYTE   W06
 BYTE   VOL   36*FE11EndlessBattleREALxViPerZ_mvl/mxv
 BYTE   W06
 BYTE   N05  Fn4
 BYTE   W01
 BYTE   VOL   36*FE11EndlessBattleREALxViPerZ_mvl/mxv
 BYTE   W05
 BYTE   N92  Gn4
 BYTE   W01
 BYTE   VOL   37*FE11EndlessBattleREALxViPerZ_mvl/mxv
 BYTE   W01
 BYTE   VOL   36*FE11EndlessBattleREALxViPerZ_mvl/mxv
 BYTE   W01
 BYTE   VOL   35*FE11EndlessBattleREALxViPerZ_mvl/mxv
 BYTE   W01
 BYTE   VOL   35*FE11EndlessBattleREALxViPerZ_mvl/mxv
 BYTE   W01
 BYTE   VOL   33*FE11EndlessBattleREALxViPerZ_mvl/mxv
 BYTE   W01
 BYTE   VOL   33*FE11EndlessBattleREALxViPerZ_mvl/mxv
 BYTE   W03
 BYTE   VOL   33*FE11EndlessBattleREALxViPerZ_mvl/mxv
 BYTE   W03
 BYTE   VOL   33*FE11EndlessBattleREALxViPerZ_mvl/mxv
 BYTE   W03
 BYTE   VOL   33*FE11EndlessBattleREALxViPerZ_mvl/mxv
 BYTE   W03
 BYTE   VOL   33*FE11EndlessBattleREALxViPerZ_mvl/mxv
 BYTE   W01
 BYTE   VOL   34*FE11EndlessBattleREALxViPerZ_mvl/mxv
 BYTE   W01
 BYTE   VOL   34*FE11EndlessBattleREALxViPerZ_mvl/mxv
 BYTE   W02
 BYTE   VOL   35*FE11EndlessBattleREALxViPerZ_mvl/mxv
 BYTE   W01
 BYTE   VOL   36*FE11EndlessBattleREALxViPerZ_mvl/mxv
 BYTE   W02
 BYTE   VOL   36*FE11EndlessBattleREALxViPerZ_mvl/mxv
 BYTE   W01
 BYTE   VOL   37*FE11EndlessBattleREALxViPerZ_mvl/mxv
 BYTE   W02
 BYTE   VOL   38*FE11EndlessBattleREALxViPerZ_mvl/mxv
 BYTE   W01
 BYTE   VOL   39*FE11EndlessBattleREALxViPerZ_mvl/mxv
 BYTE   W02
 BYTE   VOL   40*FE11EndlessBattleREALxViPerZ_mvl/mxv
 BYTE   W01
 BYTE   VOL   41*FE11EndlessBattleREALxViPerZ_mvl/mxv
 BYTE   W03
 BYTE   VOL   41*FE11EndlessBattleREALxViPerZ_mvl/mxv
 BYTE   W03
 BYTE   VOL   40*FE11EndlessBattleREALxViPerZ_mvl/mxv
 BYTE   W03
 BYTE   VOL   40*FE11EndlessBattleREALxViPerZ_mvl/mxv
 BYTE   W03
 BYTE   VOL   39*FE11EndlessBattleREALxViPerZ_mvl/mxv
 BYTE   W03
 BYTE   VOL   38*FE11EndlessBattleREALxViPerZ_mvl/mxv
 BYTE   W03
 BYTE   VOL   38*FE11EndlessBattleREALxViPerZ_mvl/mxv
 BYTE   W03
 BYTE   VOL   37*FE11EndlessBattleREALxViPerZ_mvl/mxv
 BYTE   W03
 BYTE   VOL   36*FE11EndlessBattleREALxViPerZ_mvl/mxv
 BYTE   W03
 BYTE   VOL   36*FE11EndlessBattleREALxViPerZ_mvl/mxv
 BYTE   W01
 BYTE   VOL   36*FE11EndlessBattleREALxViPerZ_mvl/mxv
 BYTE   W02
 BYTE   VOL   36*FE11EndlessBattleREALxViPerZ_mvl/mxv
 BYTE   W01
 BYTE   VOL   36*FE11EndlessBattleREALxViPerZ_mvl/mxv
 BYTE   W02
 BYTE   VOL   35*FE11EndlessBattleREALxViPerZ_mvl/mxv
 BYTE   W01
 BYTE   VOL   35*FE11EndlessBattleREALxViPerZ_mvl/mxv
 BYTE   W02
 BYTE   VOL   35*FE11EndlessBattleREALxViPerZ_mvl/mxv
 BYTE   W01
 BYTE   VOL   34*FE11EndlessBattleREALxViPerZ_mvl/mxv
 BYTE   W02
 BYTE   VOL   34*FE11EndlessBattleREALxViPerZ_mvl/mxv
 BYTE   W01
//  #05 //005   ----------------------------------------
 BYTE   VOL   34*FE11EndlessBattleREALxViPerZ_mvl/mxv
 BYTE   W02
 BYTE   VOL   33*FE11EndlessBattleREALxViPerZ_mvl/mxv
 BYTE   W01
 BYTE   VOL   33*FE11EndlessBattleREALxViPerZ_mvl/mxv
 BYTE   W02
 BYTE   VOL   33*FE11EndlessBattleREALxViPerZ_mvl/mxv
 BYTE   W01
 BYTE   VOL   33*FE11EndlessBattleREALxViPerZ_mvl/mxv
 BYTE   W02
 BYTE   VOL   33*FE11EndlessBattleREALxViPerZ_mvl/mxv
 BYTE   W01
 BYTE   VOL   33*FE11EndlessBattleREALxViPerZ_mvl/mxv
 BYTE   W02
 BYTE   VOL   32*FE11EndlessBattleREALxViPerZ_mvl/mxv
 BYTE   W01
 BYTE   VOL   32*FE11EndlessBattleREALxViPerZ_mvl/mxv
 BYTE   W02
 BYTE   VOL   32*FE11EndlessBattleREALxViPerZ_mvl/mxv
 BYTE   W01
 BYTE   VOL   31*FE11EndlessBattleREALxViPerZ_mvl/mxv
 BYTE   W02
 BYTE   VOL   31*FE11EndlessBattleREALxViPerZ_mvl/mxv
 BYTE   W01
 BYTE   VOL   31*FE11EndlessBattleREALxViPerZ_mvl/mxv
 BYTE   W02
 BYTE   VOL   31*FE11EndlessBattleREALxViPerZ_mvl/mxv
 BYTE   W01
 BYTE   VOL   31*FE11EndlessBattleREALxViPerZ_mvl/mxv
 BYTE   W02
 BYTE   VOL   31*FE11EndlessBattleREALxViPerZ_mvl/mxv
 BYTE   W01
 BYTE   VOL   31*FE11EndlessBattleREALxViPerZ_mvl/mxv
 BYTE   W02
 BYTE   VOL   31*FE11EndlessBattleREALxViPerZ_mvl/mxv
 BYTE   W01
 BYTE   VOL   31*FE11EndlessBattleREALxViPerZ_mvl/mxv
 BYTE   W01
 BYTE   VOL   30*FE11EndlessBattleREALxViPerZ_mvl/mxv
 BYTE   W02
 BYTE   VOL   31*FE11EndlessBattleREALxViPerZ_mvl/mxv
 BYTE   W01
 BYTE   VOL   31*FE11EndlessBattleREALxViPerZ_mvl/mxv
 BYTE   W02
 BYTE   VOL   31*FE11EndlessBattleREALxViPerZ_mvl/mxv
 BYTE   W01
 BYTE   VOL   32*FE11EndlessBattleREALxViPerZ_mvl/mxv
 BYTE   W02
 BYTE   VOL   33*FE11EndlessBattleREALxViPerZ_mvl/mxv
 BYTE   W01
 BYTE   VOL   33*FE11EndlessBattleREALxViPerZ_mvl/mxv
 BYTE   W02
 BYTE   VOL   34*FE11EndlessBattleREALxViPerZ_mvl/mxv
 BYTE   W01
 BYTE   VOL   35*FE11EndlessBattleREALxViPerZ_mvl/mxv
 BYTE   W02
 BYTE   VOL   36*FE11EndlessBattleREALxViPerZ_mvl/mxv
 BYTE   N02  As4  v044
 BYTE   W01
 BYTE   VOL   36*FE11EndlessBattleREALxViPerZ_mvl/mxv
 BYTE   W02
 BYTE   VOL   38*FE11EndlessBattleREALxViPerZ_mvl/mxv
 BYTE   N02  Bn4
 BYTE   W01
 BYTE   VOL   40*FE11EndlessBattleREALxViPerZ_mvl/mxv
 BYTE   W02
 BYTE   VOL   38*FE11EndlessBattleREALxViPerZ_mvl/mxv
 BYTE   N23  Cn5  v080
 BYTE   W01
 BYTE   VOL   38*FE11EndlessBattleREALxViPerZ_mvl/mxv
 BYTE   W02
 BYTE   VOL   37*FE11EndlessBattleREALxViPerZ_mvl/mxv
 BYTE   W01
 BYTE   VOL   36*FE11EndlessBattleREALxViPerZ_mvl/mxv
 BYTE   W02
 BYTE   VOL   36*FE11EndlessBattleREALxViPerZ_mvl/mxv
 BYTE   W01
 BYTE   VOL   36*FE11EndlessBattleREALxViPerZ_mvl/mxv
 BYTE   W01
 BYTE   VOL   35*FE11EndlessBattleREALxViPerZ_mvl/mxv
 BYTE   W09
 BYTE   VOL   36*FE11EndlessBattleREALxViPerZ_mvl/mxv
 BYTE   W05
 BYTE   VOL   36*FE11EndlessBattleREALxViPerZ_mvl/mxv
 BYTE   W02
 BYTE   N23  As4
 BYTE   W03
 BYTE   VOL   36*FE11EndlessBattleREALxViPerZ_mvl/mxv
 BYTE   W04
 BYTE   VOL   36*FE11EndlessBattleREALxViPerZ_mvl/mxv
 BYTE   W02
 BYTE   VOL   36*FE11EndlessBattleREALxViPerZ_mvl/mxv
 BYTE   W01
 BYTE   VOL   36*FE11EndlessBattleREALxViPerZ_mvl/mxv
 BYTE   W02
 BYTE   VOL   36*FE11EndlessBattleREALxViPerZ_mvl/mxv
 BYTE   W01
 BYTE   VOL   37*FE11EndlessBattleREALxViPerZ_mvl/mxv
 BYTE   W02
 BYTE   VOL   38*FE11EndlessBattleREALxViPerZ_mvl/mxv
 BYTE   W01
 BYTE   VOL   38*FE11EndlessBattleREALxViPerZ_mvl/mxv
 BYTE   W02
 BYTE   VOL   38*FE11EndlessBattleREALxViPerZ_mvl/mxv
 BYTE   W01
 BYTE   VOL   39*FE11EndlessBattleREALxViPerZ_mvl/mxv
 BYTE   W02
 BYTE   VOL   40*FE11EndlessBattleREALxViPerZ_mvl/mxv
 BYTE   W01
 BYTE   VOL   40*FE11EndlessBattleREALxViPerZ_mvl/mxv
 BYTE   W01
 BYTE   VOL   40*FE11EndlessBattleREALxViPerZ_mvl/mxv
 BYTE   W01
//  #05 //006   ----------------------------------------
 BYTE   VOL   40*FE11EndlessBattleREALxViPerZ_mvl/mxv
 BYTE   N32  Gn4
 BYTE   W01
 BYTE   VOL   38*FE11EndlessBattleREALxViPerZ_mvl/mxv
 BYTE   W01
 BYTE   VOL   37*FE11EndlessBattleREALxViPerZ_mvl/mxv
 BYTE   W01
 BYTE   VOL   36*FE11EndlessBattleREALxViPerZ_mvl/mxv
 BYTE   W01
 BYTE   VOL   35*FE11EndlessBattleREALxViPerZ_mvl/mxv
 BYTE   W03
 BYTE   VOL   36*FE11EndlessBattleREALxViPerZ_mvl/mxv
 BYTE   W03
 BYTE   VOL   36*FE11EndlessBattleREALxViPerZ_mvl/mxv
 BYTE   W03
 BYTE   VOL   36*FE11EndlessBattleREALxViPerZ_mvl/mxv
 BYTE   W03
 BYTE   VOL   36*FE11EndlessBattleREALxViPerZ_mvl/mxv
 BYTE   W02
 BYTE   VOL   36*FE11EndlessBattleREALxViPerZ_mvl/mxv
 BYTE   W01
 BYTE   VOL   36*FE11EndlessBattleREALxViPerZ_mvl/mxv
 BYTE   W02
 BYTE   VOL   36*FE11EndlessBattleREALxViPerZ_mvl/mxv
 BYTE   W01
 BYTE   VOL   37*FE11EndlessBattleREALxViPerZ_mvl/mxv
 BYTE   W02
 BYTE   VOL   38*FE11EndlessBattleREALxViPerZ_mvl/mxv
 BYTE   W01
 BYTE   VOL   38*FE11EndlessBattleREALxViPerZ_mvl/mxv
 BYTE   W02
 BYTE   VOL   39*FE11EndlessBattleREALxViPerZ_mvl/mxv
 BYTE   W01
 BYTE   VOL   40*FE11EndlessBattleREALxViPerZ_mvl/mxv
 BYTE   W02
 BYTE   VOL   40*FE11EndlessBattleREALxViPerZ_mvl/mxv
 BYTE   W01
 BYTE   VOL   40*FE11EndlessBattleREALxViPerZ_mvl/mxv
 BYTE   W02
 BYTE   VOL   41*FE11EndlessBattleREALxViPerZ_mvl/mxv
 BYTE   W01
 BYTE   VOL   41*FE11EndlessBattleREALxViPerZ_mvl/mxv
 BYTE   W01
 BYTE   VOL   41*FE11EndlessBattleREALxViPerZ_mvl/mxv
 BYTE   W01
 BYTE   N05
 BYTE   W06
 BYTE   Gs4
 BYTE   W06
 BYTE   N44  Fn4
 BYTE   W02
 BYTE   VOL   41*FE11EndlessBattleREALxViPerZ_mvl/mxv
 BYTE   W03
 BYTE   VOL   41*FE11EndlessBattleREALxViPerZ_mvl/mxv
 BYTE   W03
 BYTE   VOL   41*FE11EndlessBattleREALxViPerZ_mvl/mxv
 BYTE   W03
 BYTE   VOL   40*FE11EndlessBattleREALxViPerZ_mvl/mxv
 BYTE   W03
 BYTE   VOL   40*FE11EndlessBattleREALxViPerZ_mvl/mxv
 BYTE   W03
 BYTE   VOL   40*FE11EndlessBattleREALxViPerZ_mvl/mxv
 BYTE   W03
 BYTE   VOL   40*FE11EndlessBattleREALxViPerZ_mvl/mxv
 BYTE   W03
 BYTE   VOL   40*FE11EndlessBattleREALxViPerZ_mvl/mxv
 BYTE   W01
 BYTE   VOL   39*FE11EndlessBattleREALxViPerZ_mvl/mxv
 BYTE   W01
 BYTE   VOL   38*FE11EndlessBattleREALxViPerZ_mvl/mxv
 BYTE   W02
 BYTE   VOL   38*FE11EndlessBattleREALxViPerZ_mvl/mxv
 BYTE   W01
 BYTE   VOL   37*FE11EndlessBattleREALxViPerZ_mvl/mxv
 BYTE   W02
 BYTE   VOL   36*FE11EndlessBattleREALxViPerZ_mvl/mxv
 BYTE   W01
 BYTE   VOL   36*FE11EndlessBattleREALxViPerZ_mvl/mxv
 BYTE   W02
 BYTE   VOL   36*FE11EndlessBattleREALxViPerZ_mvl/mxv
 BYTE   W01
 BYTE   VOL   35*FE11EndlessBattleREALxViPerZ_mvl/mxv
 BYTE   W02
 BYTE   VOL   35*FE11EndlessBattleREALxViPerZ_mvl/mxv
 BYTE   W01
 BYTE   VOL   34*FE11EndlessBattleREALxViPerZ_mvl/mxv
 BYTE   W02
 BYTE   VOL   33*FE11EndlessBattleREALxViPerZ_mvl/mxv
 BYTE   W01
 BYTE   VOL   33*FE11EndlessBattleREALxViPerZ_mvl/mxv
 BYTE   W02
 BYTE   VOL   33*FE11EndlessBattleREALxViPerZ_mvl/mxv
 BYTE   W01
 BYTE   VOL   33*FE11EndlessBattleREALxViPerZ_mvl/mxv
 BYTE   W02
 BYTE   VOL   32*FE11EndlessBattleREALxViPerZ_mvl/mxv
 BYTE   W01
 BYTE   VOL   32*FE11EndlessBattleREALxViPerZ_mvl/mxv
 BYTE   W02
//  #05 //007   ----------------------------------------
 BYTE   VOL   31*FE11EndlessBattleREALxViPerZ_mvl/mxv
 BYTE   W01
 BYTE   VOL   31*FE11EndlessBattleREALxViPerZ_mvl/mxv
 BYTE   W01
 BYTE   VOL   31*FE11EndlessBattleREALxViPerZ_mvl/mxv
 BYTE   W02
 BYTE   VOL   31*FE11EndlessBattleREALxViPerZ_mvl/mxv
 BYTE   W01
 BYTE   VOL   31*FE11EndlessBattleREALxViPerZ_mvl/mxv
 BYTE   W02
 BYTE   VOL   32*FE11EndlessBattleREALxViPerZ_mvl/mxv
 BYTE   W01
 BYTE   VOL   32*FE11EndlessBattleREALxViPerZ_mvl/mxv
 BYTE   W02
 BYTE   VOL   32*FE11EndlessBattleREALxViPerZ_mvl/mxv
 BYTE   W01
 BYTE   VOL   33*FE11EndlessBattleREALxViPerZ_mvl/mxv
 BYTE   W02
 BYTE   VOL   33*FE11EndlessBattleREALxViPerZ_mvl/mxv
 BYTE   W01
 BYTE   VOL   33*FE11EndlessBattleREALxViPerZ_mvl/mxv
 BYTE   W02
 BYTE   VOL   33*FE11EndlessBattleREALxViPerZ_mvl/mxv
 BYTE   W01
 BYTE   VOL   33*FE11EndlessBattleREALxViPerZ_mvl/mxv
 BYTE   W02
 BYTE   VOL   34*FE11EndlessBattleREALxViPerZ_mvl/mxv
 BYTE   W01
 BYTE   VOL   34*FE11EndlessBattleREALxViPerZ_mvl/mxv
 BYTE   W01
 BYTE   VOL   35*FE11EndlessBattleREALxViPerZ_mvl/mxv
 BYTE   W03
 BYTE   VOL   35*FE11EndlessBattleREALxViPerZ_mvl/mxv
 BYTE   N23  Gn4
 BYTE   W03
 BYTE   VOL   35*FE11EndlessBattleREALxViPerZ_mvl/mxv
 BYTE   W03
 BYTE   VOL   36*FE11EndlessBattleREALxViPerZ_mvl/mxv
 BYTE   W02
 BYTE   VOL   36*FE11EndlessBattleREALxViPerZ_mvl/mxv
 BYTE   W01
 BYTE   VOL   36*FE11EndlessBattleREALxViPerZ_mvl/mxv
 BYTE   W02
 BYTE   VOL   37*FE11EndlessBattleREALxViPerZ_mvl/mxv
 BYTE   W01
 BYTE   VOL   38*FE11EndlessBattleREALxViPerZ_mvl/mxv
 BYTE   W02
 BYTE   VOL   39*FE11EndlessBattleREALxViPerZ_mvl/mxv
 BYTE   W01
 BYTE   VOL   40*FE11EndlessBattleREALxViPerZ_mvl/mxv
 BYTE   W02
 BYTE   VOL   40*FE11EndlessBattleREALxViPerZ_mvl/mxv
 BYTE   W01
 BYTE   VOL   41*FE11EndlessBattleREALxViPerZ_mvl/mxv
 BYTE   W01
 BYTE   VOL   41*FE11EndlessBattleREALxViPerZ_mvl/mxv
 BYTE   W05
 BYTE   N17  Cn4
 BYTE   W02
 BYTE   VOL   41*FE11EndlessBattleREALxViPerZ_mvl/mxv
 BYTE   W01
 BYTE   VOL   41*FE11EndlessBattleREALxViPerZ_mvl/mxv
 BYTE   W02
 BYTE   VOL   40*FE11EndlessBattleREALxViPerZ_mvl/mxv
 BYTE   W01
 BYTE   VOL   40*FE11EndlessBattleREALxViPerZ_mvl/mxv
 BYTE   W02
 BYTE   VOL   39*FE11EndlessBattleREALxViPerZ_mvl/mxv
 BYTE   W01
 BYTE   VOL   38*FE11EndlessBattleREALxViPerZ_mvl/mxv
 BYTE   W06
 BYTE   VOL   38*FE11EndlessBattleREALxViPerZ_mvl/mxv
 BYTE   W03
 BYTE   VOL   38*FE11EndlessBattleREALxViPerZ_mvl/mxv
 BYTE   N17  Dn4
 BYTE   W03
 BYTE   VOL   39*FE11EndlessBattleREALxViPerZ_mvl/mxv
 BYTE   W03
 BYTE   VOL   39*FE11EndlessBattleREALxViPerZ_mvl/mxv
 BYTE   W03
 BYTE   VOL   40*FE11EndlessBattleREALxViPerZ_mvl/mxv
 BYTE   W03
 BYTE   VOL   40*FE11EndlessBattleREALxViPerZ_mvl/mxv
 BYTE   W03
 BYTE   VOL   40*FE11EndlessBattleREALxViPerZ_mvl/mxv
 BYTE   W03
 BYTE   VOL   40*FE11EndlessBattleREALxViPerZ_mvl/mxv
 BYTE   N11  Ds4
 BYTE   W03
 BYTE   VOL   40*FE11EndlessBattleREALxViPerZ_mvl/mxv
 BYTE   W03
 BYTE   VOL   40*FE11EndlessBattleREALxViPerZ_mvl/mxv
 BYTE   W03
 BYTE   VOL   41*FE11EndlessBattleREALxViPerZ_mvl/mxv
 BYTE   W03
//  #05 //008   ----------------------------------------
 BYTE   VOL   41*FE11EndlessBattleREALxViPerZ_mvl/mxv
 BYTE   N17  Gn4
 BYTE   W02
 BYTE   VOL   40*FE11EndlessBattleREALxViPerZ_mvl/mxv
 BYTE   W01
 BYTE   VOL   40*FE11EndlessBattleREALxViPerZ_mvl/mxv
 BYTE   W02
 BYTE   VOL   39*FE11EndlessBattleREALxViPerZ_mvl/mxv
 BYTE   W01
 BYTE   VOL   38*FE11EndlessBattleREALxViPerZ_mvl/mxv
 BYTE   W02
 BYTE   VOL   37*FE11EndlessBattleREALxViPerZ_mvl/mxv
 BYTE   W01
 BYTE   VOL   36*FE11EndlessBattleREALxViPerZ_mvl/mxv
 BYTE   W01
 BYTE   VOL   36*FE11EndlessBattleREALxViPerZ_mvl/mxv
 BYTE   W03
 BYTE   VOL   36*FE11EndlessBattleREALxViPerZ_mvl/mxv
 BYTE   W03
 BYTE   VOL   36*FE11EndlessBattleREALxViPerZ_mvl/mxv
 BYTE   W02
 BYTE   N05  Fn4
 BYTE   W01
 BYTE   VOL   38*FE11EndlessBattleREALxViPerZ_mvl/mxv
 BYTE   W02
 BYTE   VOL   38*FE11EndlessBattleREALxViPerZ_mvl/mxv
 BYTE   W01
 BYTE   VOL   38*FE11EndlessBattleREALxViPerZ_mvl/mxv
 BYTE   W02
 BYTE   VOL   39*FE11EndlessBattleREALxViPerZ_mvl/mxv
 BYTE   TIE  Gn4
 BYTE   W01
 BYTE   VOL   40*FE11EndlessBattleREALxViPerZ_mvl/mxv
 BYTE   W01
 BYTE   VOL   39*FE11EndlessBattleREALxViPerZ_mvl/mxv
 BYTE   W01
 BYTE   VOL   37*FE11EndlessBattleREALxViPerZ_mvl/mxv
 BYTE   W01
 BYTE   VOL   36*FE11EndlessBattleREALxViPerZ_mvl/mxv
 BYTE   W01
 BYTE   VOL   36*FE11EndlessBattleREALxViPerZ_mvl/mxv
 BYTE   W01
 BYTE   VOL   35*FE11EndlessBattleREALxViPerZ_mvl/mxv
 BYTE   W01
 BYTE   VOL   34*FE11EndlessBattleREALxViPerZ_mvl/mxv
 BYTE   W01
 BYTE   VOL   33*FE11EndlessBattleREALxViPerZ_mvl/mxv
 BYTE   W01
 BYTE   VOL   33*FE11EndlessBattleREALxViPerZ_mvl/mxv
 BYTE   W03
 BYTE   VOL   33*FE11EndlessBattleREALxViPerZ_mvl/mxv
 BYTE   W03
 BYTE   VOL   33*FE11EndlessBattleREALxViPerZ_mvl/mxv
 BYTE   W03
 BYTE   VOL   34*FE11EndlessBattleREALxViPerZ_mvl/mxv
 BYTE   W03
 BYTE   VOL   34*FE11EndlessBattleREALxViPerZ_mvl/mxv
 BYTE   W03
 BYTE   VOL   34*FE11EndlessBattleREALxViPerZ_mvl/mxv
 BYTE   W03
 BYTE   VOL   35*FE11EndlessBattleREALxViPerZ_mvl/mxv
 BYTE   W01
 BYTE   VOL   36*FE11EndlessBattleREALxViPerZ_mvl/mxv
 BYTE   W02
 BYTE   VOL   36*FE11EndlessBattleREALxViPerZ_mvl/mxv
 BYTE   W01
 BYTE   VOL   38*FE11EndlessBattleREALxViPerZ_mvl/mxv
 BYTE   W02
 BYTE   VOL   39*FE11EndlessBattleREALxViPerZ_mvl/mxv
 BYTE   W01
 BYTE   VOL   40*FE11EndlessBattleREALxViPerZ_mvl/mxv
 BYTE   W01
 BYTE   VOL   41*FE11EndlessBattleREALxViPerZ_mvl/mxv
 BYTE   W03
 BYTE   VOL   40*FE11EndlessBattleREALxViPerZ_mvl/mxv
 BYTE   W03
 BYTE   VOL   40*FE11EndlessBattleREALxViPerZ_mvl/mxv
 BYTE   W03
 BYTE   VOL   40*FE11EndlessBattleREALxViPerZ_mvl/mxv
 BYTE   W03
 BYTE   VOL   39*FE11EndlessBattleREALxViPerZ_mvl/mxv
 BYTE   W03
 BYTE   VOL   38*FE11EndlessBattleREALxViPerZ_mvl/mxv
 BYTE   W03
 BYTE   VOL   38*FE11EndlessBattleREALxViPerZ_mvl/mxv
 BYTE   W03
 BYTE   VOL   37*FE11EndlessBattleREALxViPerZ_mvl/mxv
 BYTE   W02
 BYTE   VOL   36*FE11EndlessBattleREALxViPerZ_mvl/mxv
 BYTE   W03
 BYTE   VOL   36*FE11EndlessBattleREALxViPerZ_mvl/mxv
 BYTE   W03
 BYTE   VOL   36*FE11EndlessBattleREALxViPerZ_mvl/mxv
 BYTE   W03
 BYTE   VOL   36*FE11EndlessBattleREALxViPerZ_mvl/mxv
 BYTE   W03
 BYTE   VOL   36*FE11EndlessBattleREALxViPerZ_mvl/mxv
 BYTE   W02
//  #05 //009   ----------------------------------------
 BYTE   W01
 BYTE   VOL   36*FE11EndlessBattleREALxViPerZ_mvl/mxv
 BYTE   W03
 BYTE   VOL   36*FE11EndlessBattleREALxViPerZ_mvl/mxv
 BYTE   W03
 BYTE   VOL   36*FE11EndlessBattleREALxViPerZ_mvl/mxv
 BYTE   W03
 BYTE   VOL   35*FE11EndlessBattleREALxViPerZ_mvl/mxv
 BYTE   W03
 BYTE   VOL   35*FE11EndlessBattleREALxViPerZ_mvl/mxv
 BYTE   W03
 BYTE   VOL   35*FE11EndlessBattleREALxViPerZ_mvl/mxv
 BYTE   W03
 BYTE   VOL   34*FE11EndlessBattleREALxViPerZ_mvl/mxv
 BYTE   W01
 BYTE   VOL   34*FE11EndlessBattleREALxViPerZ_mvl/mxv
 BYTE   W02
 BYTE   VOL   34*FE11EndlessBattleREALxViPerZ_mvl/mxv
 BYTE   W01
 BYTE   VOL   33*FE11EndlessBattleREALxViPerZ_mvl/mxv
 BYTE   W02
 BYTE   VOL   33*FE11EndlessBattleREALxViPerZ_mvl/mxv
 BYTE   W01
 BYTE   VOL   33*FE11EndlessBattleREALxViPerZ_mvl/mxv
 BYTE   W02
 BYTE   VOL   33*FE11EndlessBattleREALxViPerZ_mvl/mxv
 BYTE   W01
 BYTE   VOL   33*FE11EndlessBattleREALxViPerZ_mvl/mxv
 BYTE   W02
 BYTE   VOL   32*FE11EndlessBattleREALxViPerZ_mvl/mxv
 BYTE   W01
 BYTE   VOL   32*FE11EndlessBattleREALxViPerZ_mvl/mxv
 BYTE   W02
 BYTE   VOL   32*FE11EndlessBattleREALxViPerZ_mvl/mxv
 BYTE   W01
 BYTE   VOL   31*FE11EndlessBattleREALxViPerZ_mvl/mxv
 BYTE   W02
 BYTE   VOL   31*FE11EndlessBattleREALxViPerZ_mvl/mxv
 BYTE   W01
 BYTE   VOL   31*FE11EndlessBattleREALxViPerZ_mvl/mxv
 BYTE   W02
 BYTE   VOL   31*FE11EndlessBattleREALxViPerZ_mvl/mxv
 BYTE   W01
 BYTE   VOL   31*FE11EndlessBattleREALxViPerZ_mvl/mxv
 BYTE   W02
 BYTE   VOL   31*FE11EndlessBattleREALxViPerZ_mvl/mxv
 BYTE   W01
 BYTE   VOL   31*FE11EndlessBattleREALxViPerZ_mvl/mxv
 BYTE   W02
 BYTE   VOL   30*FE11EndlessBattleREALxViPerZ_mvl/mxv
 BYTE   W01
 BYTE   VOL   30*FE11EndlessBattleREALxViPerZ_mvl/mxv
 BYTE   W02
 BYTE   VOL   30*FE11EndlessBattleREALxViPerZ_mvl/mxv
 BYTE   W01
 BYTE   VOL   30*FE11EndlessBattleREALxViPerZ_mvl/mxv
 BYTE   W02
 BYTE   VOL   30*FE11EndlessBattleREALxViPerZ_mvl/mxv
 BYTE   W01
 BYTE   VOL   30*FE11EndlessBattleREALxViPerZ_mvl/mxv
 BYTE   W02
 BYTE   VOL   30*FE11EndlessBattleREALxViPerZ_mvl/mxv
 BYTE   W01
 BYTE   VOL   30*FE11EndlessBattleREALxViPerZ_mvl/mxv
 BYTE   W02
 BYTE   VOL   30*FE11EndlessBattleREALxViPerZ_mvl/mxv
 BYTE   W01
 BYTE   VOL   30*FE11EndlessBattleREALxViPerZ_mvl/mxv
 BYTE   W02
 BYTE   VOL   30*FE11EndlessBattleREALxViPerZ_mvl/mxv
 BYTE   W01
 BYTE   EOT
 BYTE   VOL   30*FE11EndlessBattleREALxViPerZ_mvl/mxv
 BYTE   W02
 BYTE   VOL   30*FE11EndlessBattleREALxViPerZ_mvl/mxv
 BYTE   W01
 BYTE   VOL   30*FE11EndlessBattleREALxViPerZ_mvl/mxv
 BYTE   W02
 BYTE   VOL   30*FE11EndlessBattleREALxViPerZ_mvl/mxv
 BYTE   W01
 BYTE   VOL   30*FE11EndlessBattleREALxViPerZ_mvl/mxv
 BYTE   W02
 BYTE   VOL   30*FE11EndlessBattleREALxViPerZ_mvl/mxv
 BYTE   W01
 BYTE   VOL   30*FE11EndlessBattleREALxViPerZ_mvl/mxv
 BYTE   W01
 BYTE   VOL   30*FE11EndlessBattleREALxViPerZ_mvl/mxv
 BYTE   W01
 BYTE   VOL   30*FE11EndlessBattleREALxViPerZ_mvl/mxv
 BYTE   W01
 BYTE   VOL   30*FE11EndlessBattleREALxViPerZ_mvl/mxv
 BYTE   W01
 BYTE   VOL   30*FE11EndlessBattleREALxViPerZ_mvl/mxv
 BYTE   W01
 BYTE   VOL   30*FE11EndlessBattleREALxViPerZ_mvl/mxv
 BYTE   W01
 BYTE   VOL   30*FE11EndlessBattleREALxViPerZ_mvl/mxv
 BYTE   W01
 BYTE   VOL   30*FE11EndlessBattleREALxViPerZ_mvl/mxv
 BYTE   W01
 BYTE   VOL   30*FE11EndlessBattleREALxViPerZ_mvl/mxv
 BYTE   W01
 BYTE   VOL   30*FE11EndlessBattleREALxViPerZ_mvl/mxv
 BYTE   W01
 BYTE   VOL   30*FE11EndlessBattleREALxViPerZ_mvl/mxv
 BYTE   W01
 BYTE   VOL   31*FE11EndlessBattleREALxViPerZ_mvl/mxv
 BYTE   W01
 BYTE   VOL   31*FE11EndlessBattleREALxViPerZ_mvl/mxv
 BYTE   W01
 BYTE   VOL   31*FE11EndlessBattleREALxViPerZ_mvl/mxv
 BYTE   W01
 BYTE   VOL   31*FE11EndlessBattleREALxViPerZ_mvl/mxv
 BYTE   W01
 BYTE   VOL   32*FE11EndlessBattleREALxViPerZ_mvl/mxv
 BYTE   W01
 BYTE   VOL   33*FE11EndlessBattleREALxViPerZ_mvl/mxv
 BYTE   W01
 BYTE   VOL   33*FE11EndlessBattleREALxViPerZ_mvl/mxv
 BYTE   W01
 BYTE   VOL   34*FE11EndlessBattleREALxViPerZ_mvl/mxv
 BYTE   W01
 BYTE   VOL   35*FE11EndlessBattleREALxViPerZ_mvl/mxv
 BYTE   W01
 BYTE   VOL   35*FE11EndlessBattleREALxViPerZ_mvl/mxv
 BYTE   W01
 BYTE   VOL   36*FE11EndlessBattleREALxViPerZ_mvl/mxv
 BYTE   W01
 BYTE   VOL   36*FE11EndlessBattleREALxViPerZ_mvl/mxv
 BYTE   W01
 BYTE   VOL   38*FE11EndlessBattleREALxViPerZ_mvl/mxv
 BYTE   W01
 BYTE   VOL   40*FE11EndlessBattleREALxViPerZ_mvl/mxv
 BYTE   W01
//  #05 //010   ----------------------------------------
 BYTE   VOL   40*FE11EndlessBattleREALxViPerZ_mvl/mxv
 BYTE   N32  Ds4
 BYTE   W01
 BYTE   VOL   40*FE11EndlessBattleREALxViPerZ_mvl/mxv
 BYTE   W01
 BYTE   VOL   36*FE11EndlessBattleREALxViPerZ_mvl/mxv
 BYTE   W01
 BYTE   VOL   36*FE11EndlessBattleREALxViPerZ_mvl/mxv
 BYTE   W01
 BYTE   VOL   35*FE11EndlessBattleREALxViPerZ_mvl/mxv
 BYTE   W01
 BYTE   VOL   33*FE11EndlessBattleREALxViPerZ_mvl/mxv
 BYTE   W09
 BYTE   VOL   33*FE11EndlessBattleREALxViPerZ_mvl/mxv
 BYTE   W08
 BYTE   VOL   33*FE11EndlessBattleREALxViPerZ_mvl/mxv
 BYTE   W02
 BYTE   VOL   34*FE11EndlessBattleREALxViPerZ_mvl/mxv
 BYTE   W01
 BYTE   VOL   35*FE11EndlessBattleREALxViPerZ_mvl/mxv
 BYTE   W02
 BYTE   VOL   36*FE11EndlessBattleREALxViPerZ_mvl/mxv
 BYTE   W01
 BYTE   VOL   36*FE11EndlessBattleREALxViPerZ_mvl/mxv
 BYTE   W02
 BYTE   VOL   38*FE11EndlessBattleREALxViPerZ_mvl/mxv
 BYTE   W01
 BYTE   VOL   39*FE11EndlessBattleREALxViPerZ_mvl/mxv
 BYTE   W02
 BYTE   VOL   40*FE11EndlessBattleREALxViPerZ_mvl/mxv
 BYTE   W01
 BYTE   VOL   41*FE11EndlessBattleREALxViPerZ_mvl/mxv
 BYTE   W02
 BYTE   N05  Fn4
 BYTE   W01
 BYTE   VOL   41*FE11EndlessBattleREALxViPerZ_mvl/mxv
 BYTE   W03
 BYTE   VOL   41*FE11EndlessBattleREALxViPerZ_mvl/mxv
 BYTE   W02
 BYTE   N05  Gn4
 BYTE   W01
 BYTE   VOL   41*FE11EndlessBattleREALxViPerZ_mvl/mxv
 BYTE   W03
 BYTE   VOL   40*FE11EndlessBattleREALxViPerZ_mvl/mxv
 BYTE   W02
 BYTE   VOL   40*FE11EndlessBattleREALxViPerZ_mvl/mxv
 BYTE   N56  Cn5
 BYTE   W01
 BYTE   VOL   39*FE11EndlessBattleREALxViPerZ_mvl/mxv
 BYTE   W01
 BYTE   VOL   38*FE11EndlessBattleREALxViPerZ_mvl/mxv
 BYTE   W01
 BYTE   VOL   36*FE11EndlessBattleREALxViPerZ_mvl/mxv
 BYTE   W01
 BYTE   VOL   36*FE11EndlessBattleREALxViPerZ_mvl/mxv
 BYTE   W01
 BYTE   VOL   35*FE11EndlessBattleREALxViPerZ_mvl/mxv
 BYTE   W03
 BYTE   VOL   35*FE11EndlessBattleREALxViPerZ_mvl/mxv
 BYTE   W03
 BYTE   VOL   36*FE11EndlessBattleREALxViPerZ_mvl/mxv
 BYTE   W03
 BYTE   VOL   36*FE11EndlessBattleREALxViPerZ_mvl/mxv
 BYTE   W02
 BYTE   VOL   36*FE11EndlessBattleREALxViPerZ_mvl/mxv
 BYTE   W01
 BYTE   VOL   36*FE11EndlessBattleREALxViPerZ_mvl/mxv
 BYTE   W02
 BYTE   VOL   38*FE11EndlessBattleREALxViPerZ_mvl/mxv
 BYTE   W01
 BYTE   VOL   38*FE11EndlessBattleREALxViPerZ_mvl/mxv
 BYTE   W02
 BYTE   VOL   40*FE11EndlessBattleREALxViPerZ_mvl/mxv
 BYTE   W01
 BYTE   VOL   40*FE11EndlessBattleREALxViPerZ_mvl/mxv
 BYTE   W02
 BYTE   VOL   41*FE11EndlessBattleREALxViPerZ_mvl/mxv
 BYTE   W01
 BYTE   VOL   41*FE11EndlessBattleREALxViPerZ_mvl/mxv
 BYTE   W02
 BYTE   VOL   40*FE11EndlessBattleREALxViPerZ_mvl/mxv
 BYTE   W01
 BYTE   VOL   39*FE11EndlessBattleREALxViPerZ_mvl/mxv
 BYTE   W02
 BYTE   VOL   38*FE11EndlessBattleREALxViPerZ_mvl/mxv
 BYTE   W01
 BYTE   VOL   37*FE11EndlessBattleREALxViPerZ_mvl/mxv
 BYTE   W02
 BYTE   VOL   36*FE11EndlessBattleREALxViPerZ_mvl/mxv
 BYTE   W02
 BYTE   VOL   36*FE11EndlessBattleREALxViPerZ_mvl/mxv
 BYTE   W01
 BYTE   VOL   36*FE11EndlessBattleREALxViPerZ_mvl/mxv
 BYTE   W02
 BYTE   VOL   35*FE11EndlessBattleREALxViPerZ_mvl/mxv
 BYTE   W01
 BYTE   VOL   35*FE11EndlessBattleREALxViPerZ_mvl/mxv
 BYTE   W02
 BYTE   VOL   35*FE11EndlessBattleREALxViPerZ_mvl/mxv
 BYTE   W01
 BYTE   VOL   34*FE11EndlessBattleREALxViPerZ_mvl/mxv
 BYTE   W02
 BYTE   VOL   34*FE11EndlessBattleREALxViPerZ_mvl/mxv
 BYTE   W01
 BYTE   VOL   33*FE11EndlessBattleREALxViPerZ_mvl/mxv
 BYTE   W01
 BYTE   VOL   33*FE11EndlessBattleREALxViPerZ_mvl/mxv
 BYTE   W01
//  #05 //011   ----------------------------------------
 BYTE   VOL   33*FE11EndlessBattleREALxViPerZ_mvl/mxv
 BYTE   W02
 BYTE   VOL   34*FE11EndlessBattleREALxViPerZ_mvl/mxv
 BYTE   W01
 BYTE   VOL   34*FE11EndlessBattleREALxViPerZ_mvl/mxv
 BYTE   W02
 BYTE   VOL   35*FE11EndlessBattleREALxViPerZ_mvl/mxv
 BYTE   W01
 BYTE   VOL   35*FE11EndlessBattleREALxViPerZ_mvl/mxv
 BYTE   W02
 BYTE   VOL   36*FE11EndlessBattleREALxViPerZ_mvl/mxv
 BYTE   W01
 BYTE   VOL   36*FE11EndlessBattleREALxViPerZ_mvl/mxv
 BYTE   W01
 BYTE   VOL   36*FE11EndlessBattleREALxViPerZ_mvl/mxv
 BYTE   W02
 BYTE   VOL   36*FE11EndlessBattleREALxViPerZ_mvl/mxv
 BYTE   W01
 BYTE   VOL   37*FE11EndlessBattleREALxViPerZ_mvl/mxv
 BYTE   W02
 BYTE   VOL   38*FE11EndlessBattleREALxViPerZ_mvl/mxv
 BYTE   W09
 BYTE   N23
 BYTE   W01
 BYTE   VOL   38*FE11EndlessBattleREALxViPerZ_mvl/mxv
 BYTE   W01
 BYTE   VOL   37*FE11EndlessBattleREALxViPerZ_mvl/mxv
 BYTE   W02
 BYTE   VOL   36*FE11EndlessBattleREALxViPerZ_mvl/mxv
 BYTE   W01
 BYTE   VOL   36*FE11EndlessBattleREALxViPerZ_mvl/mxv
 BYTE   W02
 BYTE   VOL   35*FE11EndlessBattleREALxViPerZ_mvl/mxv
 BYTE   W01
 BYTE   VOL   34*FE11EndlessBattleREALxViPerZ_mvl/mxv
 BYTE   W01
 BYTE   VOL   33*FE11EndlessBattleREALxViPerZ_mvl/mxv
 BYTE   W02
 BYTE   VOL   34*FE11EndlessBattleREALxViPerZ_mvl/mxv
 BYTE   W01
 BYTE   VOL   34*FE11EndlessBattleREALxViPerZ_mvl/mxv
 BYTE   W02
 BYTE   VOL   34*FE11EndlessBattleREALxViPerZ_mvl/mxv
 BYTE   W01
 BYTE   VOL   35*FE11EndlessBattleREALxViPerZ_mvl/mxv
 BYTE   W02
 BYTE   VOL   35*FE11EndlessBattleREALxViPerZ_mvl/mxv
 BYTE   W01
 BYTE   VOL   36*FE11EndlessBattleREALxViPerZ_mvl/mxv
 BYTE   W02
 BYTE   VOL   36*FE11EndlessBattleREALxViPerZ_mvl/mxv
 BYTE   W01
 BYTE   VOL   36*FE11EndlessBattleREALxViPerZ_mvl/mxv
 BYTE   W02
 BYTE   VOL   36*FE11EndlessBattleREALxViPerZ_mvl/mxv
 BYTE   W01
 BYTE   VOL   36*FE11EndlessBattleREALxViPerZ_mvl/mxv
 BYTE   N17  Dn5  v072
 BYTE   W02
 BYTE   VOL   36*FE11EndlessBattleREALxViPerZ_mvl/mxv
 BYTE   W01
 BYTE   VOL   38*FE11EndlessBattleREALxViPerZ_mvl/mxv
 BYTE   W13
 BYTE   VOL   38*FE11EndlessBattleREALxViPerZ_mvl/mxv
 BYTE   W02
 BYTE   N17  Ds5  v056
 BYTE   W10
 BYTE   VOL   38*FE11EndlessBattleREALxViPerZ_mvl/mxv
 BYTE   W03
 BYTE   VOL   38*FE11EndlessBattleREALxViPerZ_mvl/mxv
 BYTE   W03
 BYTE   VOL   39*FE11EndlessBattleREALxViPerZ_mvl/mxv
 BYTE   W02
 BYTE   N11  Fn5  v048
 BYTE   W01
 BYTE   VOL   39*FE11EndlessBattleREALxViPerZ_mvl/mxv
 BYTE   W03
 BYTE   VOL   40*FE11EndlessBattleREALxViPerZ_mvl/mxv
 BYTE   W03
 BYTE   VOL   40*FE11EndlessBattleREALxViPerZ_mvl/mxv
 BYTE   W03
 BYTE   VOL   40*FE11EndlessBattleREALxViPerZ_mvl/mxv
 BYTE   W02
//  #05 //012   ----------------------------------------
 BYTE   VOL   41*FE11EndlessBattleREALxViPerZ_mvl/mxv
 BYTE   N40  Gn5  v032
 BYTE   W02
 BYTE   VOL   40*FE11EndlessBattleREALxViPerZ_mvl/mxv
 BYTE   W01
 BYTE   VOL   40*FE11EndlessBattleREALxViPerZ_mvl/mxv
 BYTE   W02
 BYTE   VOL   39*FE11EndlessBattleREALxViPerZ_mvl/mxv
 BYTE   W01
 BYTE   VOL   38*FE11EndlessBattleREALxViPerZ_mvl/mxv
 BYTE   W02
 BYTE   VOL   37*FE11EndlessBattleREALxViPerZ_mvl/mxv
 BYTE   W01
 BYTE   VOL   36*FE11EndlessBattleREALxViPerZ_mvl/mxv
 BYTE   W02
 BYTE   VOL   36*FE11EndlessBattleREALxViPerZ_mvl/mxv
 BYTE   W01
 BYTE   VOL   36*FE11EndlessBattleREALxViPerZ_mvl/mxv
 BYTE   W02
 BYTE   VOL   35*FE11EndlessBattleREALxViPerZ_mvl/mxv
 BYTE   W01
 BYTE   VOL   35*FE11EndlessBattleREALxViPerZ_mvl/mxv
 BYTE   W01
 BYTE   VOL   34*FE11EndlessBattleREALxViPerZ_mvl/mxv
 BYTE   W03
 BYTE   VOL   35*FE11EndlessBattleREALxViPerZ_mvl/mxv
 BYTE   W03
 BYTE   VOL   35*FE11EndlessBattleREALxViPerZ_mvl/mxv
 BYTE   W03
 BYTE   VOL   35*FE11EndlessBattleREALxViPerZ_mvl/mxv
 BYTE   W03
 BYTE   VOL   35*FE11EndlessBattleREALxViPerZ_mvl/mxv
 BYTE   W03
 BYTE   VOL   35*FE11EndlessBattleREALxViPerZ_mvl/mxv
 BYTE   W03
 BYTE   VOL   36*FE11EndlessBattleREALxViPerZ_mvl/mxv
 BYTE   W02
 BYTE   VOL   36*FE11EndlessBattleREALxViPerZ_mvl/mxv
 BYTE   W01
 BYTE   VOL   37*FE11EndlessBattleREALxViPerZ_mvl/mxv
 BYTE   W02
 BYTE   VOL   38*FE11EndlessBattleREALxViPerZ_mvl/mxv
 BYTE   W01
 BYTE   VOL   40*FE11EndlessBattleREALxViPerZ_mvl/mxv
 BYTE   W01
 BYTE   VOL   41*FE11EndlessBattleREALxViPerZ_mvl/mxv
 BYTE   W01
 BYTE   N05  Fn5  v048
 BYTE   W06
 BYTE   N44  Cn5  v080
 BYTE   W06
 BYTE   VOL   41*FE11EndlessBattleREALxViPerZ_mvl/mxv
 BYTE   W02
 BYTE   VOL   40*FE11EndlessBattleREALxViPerZ_mvl/mxv
 BYTE   W01
 BYTE   VOL   40*FE11EndlessBattleREALxViPerZ_mvl/mxv
 BYTE   W02
 BYTE   VOL   39*FE11EndlessBattleREALxViPerZ_mvl/mxv
 BYTE   W01
 BYTE   VOL   38*FE11EndlessBattleREALxViPerZ_mvl/mxv
 BYTE   W02
 BYTE   VOL   37*FE11EndlessBattleREALxViPerZ_mvl/mxv
 BYTE   W01
 BYTE   VOL   36*FE11EndlessBattleREALxViPerZ_mvl/mxv
 BYTE   W01
 BYTE   VOL   36*FE11EndlessBattleREALxViPerZ_mvl/mxv
 BYTE   W08
 BYTE   VOL   36*FE11EndlessBattleREALxViPerZ_mvl/mxv
 BYTE   W08
 BYTE   VOL   36*FE11EndlessBattleREALxViPerZ_mvl/mxv
 BYTE   W08
 BYTE   VOL   36*FE11EndlessBattleREALxViPerZ_mvl/mxv
 BYTE   W08
//  #05 //013   ----------------------------------------
 BYTE   VOL   36*FE11EndlessBattleREALxViPerZ_mvl/mxv
 BYTE   W02
 BYTE   VOL   36*FE11EndlessBattleREALxViPerZ_mvl/mxv
 BYTE   W01
 BYTE   VOL   35*FE11EndlessBattleREALxViPerZ_mvl/mxv
 BYTE   W01
 BYTE   VOL   35*FE11EndlessBattleREALxViPerZ_mvl/mxv
 BYTE   W03
 BYTE   VOL   35*FE11EndlessBattleREALxViPerZ_mvl/mxv
 BYTE   W03
 BYTE   VOL   35*FE11EndlessBattleREALxViPerZ_mvl/mxv
 BYTE   W03
 BYTE   VOL   34*FE11EndlessBattleREALxViPerZ_mvl/mxv
 BYTE   W03
 BYTE   VOL   34*FE11EndlessBattleREALxViPerZ_mvl/mxv
 BYTE   W03
 BYTE   VOL   34*FE11EndlessBattleREALxViPerZ_mvl/mxv
 BYTE   W03
 BYTE   VOL   33*FE11EndlessBattleREALxViPerZ_mvl/mxv
 BYTE   W02
 BYTE   VOL   33*FE11EndlessBattleREALxViPerZ_mvl/mxv
 BYTE   N23  Gn4
 BYTE   W02
 BYTE   VOL   33*FE11EndlessBattleREALxViPerZ_mvl/mxv
 BYTE   W01
 BYTE   VOL   34*FE11EndlessBattleREALxViPerZ_mvl/mxv
 BYTE   W02
 BYTE   VOL   34*FE11EndlessBattleREALxViPerZ_mvl/mxv
 BYTE   W01
 BYTE   VOL   35*FE11EndlessBattleREALxViPerZ_mvl/mxv
 BYTE   W02
 BYTE   VOL   35*FE11EndlessBattleREALxViPerZ_mvl/mxv
 BYTE   W01
 BYTE   VOL   35*FE11EndlessBattleREALxViPerZ_mvl/mxv
 BYTE   W02
 BYTE   VOL   36*FE11EndlessBattleREALxViPerZ_mvl/mxv
 BYTE   W01
 BYTE   VOL   36*FE11EndlessBattleREALxViPerZ_mvl/mxv
 BYTE   W02
 BYTE   VOL   36*FE11EndlessBattleREALxViPerZ_mvl/mxv
 BYTE   W01
 BYTE   VOL   36*FE11EndlessBattleREALxViPerZ_mvl/mxv
 BYTE   W02
 BYTE   VOL   37*FE11EndlessBattleREALxViPerZ_mvl/mxv
 BYTE   W01
 BYTE   VOL   38*FE11EndlessBattleREALxViPerZ_mvl/mxv
 BYTE   W02
 BYTE   VOL   38*FE11EndlessBattleREALxViPerZ_mvl/mxv
 BYTE   W01
 BYTE   VOL   38*FE11EndlessBattleREALxViPerZ_mvl/mxv
 BYTE   W02
 BYTE   VOL   40*FE11EndlessBattleREALxViPerZ_mvl/mxv
 BYTE   W01
 BYTE   VOL   39*FE11EndlessBattleREALxViPerZ_mvl/mxv
 BYTE   N23  Ds5  v056
 BYTE   W02
 BYTE   VOL   38*FE11EndlessBattleREALxViPerZ_mvl/mxv
 BYTE   W01
 BYTE   VOL   38*FE11EndlessBattleREALxViPerZ_mvl/mxv
 BYTE   W02
 BYTE   VOL   37*FE11EndlessBattleREALxViPerZ_mvl/mxv
 BYTE   W01
 BYTE   VOL   36*FE11EndlessBattleREALxViPerZ_mvl/mxv
 BYTE   W02
 BYTE   VOL   36*FE11EndlessBattleREALxViPerZ_mvl/mxv
 BYTE   W03
 BYTE   VOL   36*FE11EndlessBattleREALxViPerZ_mvl/mxv
 BYTE   W03
 BYTE   VOL   36*FE11EndlessBattleREALxViPerZ_mvl/mxv
 BYTE   W03
 BYTE   VOL   36*FE11EndlessBattleREALxViPerZ_mvl/mxv
 BYTE   W03
 BYTE   VOL   35*FE11EndlessBattleREALxViPerZ_mvl/mxv
 BYTE   W03
 BYTE   VOL   35*FE11EndlessBattleREALxViPerZ_mvl/mxv
 BYTE   W01
 BYTE   N23  Dn5  v072
 BYTE   W07
 BYTE   VOL   35*FE11EndlessBattleREALxViPerZ_mvl/mxv
 BYTE   W09
 BYTE   VOL   35*FE11EndlessBattleREALxViPerZ_mvl/mxv
 BYTE   W01
 BYTE   VOL   36*FE11EndlessBattleREALxViPerZ_mvl/mxv
 BYTE   W02
 BYTE   VOL   36*FE11EndlessBattleREALxViPerZ_mvl/mxv
 BYTE   W01
 BYTE   VOL   36*FE11EndlessBattleREALxViPerZ_mvl/mxv
 BYTE   W02
 BYTE   VOL   36*FE11EndlessBattleREALxViPerZ_mvl/mxv
 BYTE   W01
 BYTE   VOL   37*FE11EndlessBattleREALxViPerZ_mvl/mxv
 BYTE   W01
//  #05 //014   ----------------------------------------
 BYTE   N40  Cn5  v080
 BYTE   W01
 BYTE   VOL   38*FE11EndlessBattleREALxViPerZ_mvl/mxv
 BYTE   W01
 BYTE   VOL   37*FE11EndlessBattleREALxViPerZ_mvl/mxv
 BYTE   W02
 BYTE   VOL   36*FE11EndlessBattleREALxViPerZ_mvl/mxv
 BYTE   W01
 BYTE   VOL   36*FE11EndlessBattleREALxViPerZ_mvl/mxv
 BYTE   W02
 BYTE   VOL   35*FE11EndlessBattleREALxViPerZ_mvl/mxv
 BYTE   W01
 BYTE   VOL   34*FE11EndlessBattleREALxViPerZ_mvl/mxv
 BYTE   W03
 BYTE   VOL   34*FE11EndlessBattleREALxViPerZ_mvl/mxv
 BYTE   W03
 BYTE   VOL   34*FE11EndlessBattleREALxViPerZ_mvl/mxv
 BYTE   W03
 BYTE   VOL   34*FE11EndlessBattleREALxViPerZ_mvl/mxv
 BYTE   W03
 BYTE   VOL   34*FE11EndlessBattleREALxViPerZ_mvl/mxv
 BYTE   W03
 BYTE   VOL   35*FE11EndlessBattleREALxViPerZ_mvl/mxv
 BYTE   W03
 BYTE   VOL   35*FE11EndlessBattleREALxViPerZ_mvl/mxv
 BYTE   W02
 BYTE   VOL   35*FE11EndlessBattleREALxViPerZ_mvl/mxv
 BYTE   W01
 BYTE   VOL   36*FE11EndlessBattleREALxViPerZ_mvl/mxv
 BYTE   W02
 BYTE   VOL   36*FE11EndlessBattleREALxViPerZ_mvl/mxv
 BYTE   W01
 BYTE   VOL   36*FE11EndlessBattleREALxViPerZ_mvl/mxv
 BYTE   W02
 BYTE   VOL   37*FE11EndlessBattleREALxViPerZ_mvl/mxv
 BYTE   W01
 BYTE   VOL   38*FE11EndlessBattleREALxViPerZ_mvl/mxv
 BYTE   W02
 BYTE   VOL   39*FE11EndlessBattleREALxViPerZ_mvl/mxv
 BYTE   W01
 BYTE   VOL   40*FE11EndlessBattleREALxViPerZ_mvl/mxv
 BYTE   W02
 BYTE   VOL   40*FE11EndlessBattleREALxViPerZ_mvl/mxv
 BYTE   W02
 BYTE   N05  As4
 BYTE   W06
 BYTE   N44  Fn4
 BYTE   W08
 BYTE   VOL   40*FE11EndlessBattleREALxViPerZ_mvl/mxv
 BYTE   W03
 BYTE   VOL   40*FE11EndlessBattleREALxViPerZ_mvl/mxv
 BYTE   W03
 BYTE   VOL   40*FE11EndlessBattleREALxViPerZ_mvl/mxv
 BYTE   W03
 BYTE   VOL   40*FE11EndlessBattleREALxViPerZ_mvl/mxv
 BYTE   W03
 BYTE   VOL   39*FE11EndlessBattleREALxViPerZ_mvl/mxv
 BYTE   W03
 BYTE   VOL   38*FE11EndlessBattleREALxViPerZ_mvl/mxv
 BYTE   W01
 BYTE   VOL   38*FE11EndlessBattleREALxViPerZ_mvl/mxv
 BYTE   W02
 BYTE   VOL   38*FE11EndlessBattleREALxViPerZ_mvl/mxv
 BYTE   W01
 BYTE   VOL   38*FE11EndlessBattleREALxViPerZ_mvl/mxv
 BYTE   W02
 BYTE   VOL   37*FE11EndlessBattleREALxViPerZ_mvl/mxv
 BYTE   W01
 BYTE   VOL   36*FE11EndlessBattleREALxViPerZ_mvl/mxv
 BYTE   W02
 BYTE   VOL   36*FE11EndlessBattleREALxViPerZ_mvl/mxv
 BYTE   W01
 BYTE   VOL   36*FE11EndlessBattleREALxViPerZ_mvl/mxv
 BYTE   W02
 BYTE   VOL   36*FE11EndlessBattleREALxViPerZ_mvl/mxv
 BYTE   W01
 BYTE   VOL   36*FE11EndlessBattleREALxViPerZ_mvl/mxv
 BYTE   W02
 BYTE   VOL   36*FE11EndlessBattleREALxViPerZ_mvl/mxv
 BYTE   W01
 BYTE   VOL   35*FE11EndlessBattleREALxViPerZ_mvl/mxv
 BYTE   W02
 BYTE   VOL   35*FE11EndlessBattleREALxViPerZ_mvl/mxv
 BYTE   W01
 BYTE   VOL   35*FE11EndlessBattleREALxViPerZ_mvl/mxv
 BYTE   W02
 BYTE   VOL   34*FE11EndlessBattleREALxViPerZ_mvl/mxv
 BYTE   W01
 BYTE   VOL   34*FE11EndlessBattleREALxViPerZ_mvl/mxv
 BYTE   W02
 BYTE   VOL   34*FE11EndlessBattleREALxViPerZ_mvl/mxv
 BYTE   W01
//  #05 //015   ----------------------------------------
 BYTE   VOL   33*FE11EndlessBattleREALxViPerZ_mvl/mxv
 BYTE   W02
 BYTE   VOL   33*FE11EndlessBattleREALxViPerZ_mvl/mxv
 BYTE   W01
 BYTE   VOL   33*FE11EndlessBattleREALxViPerZ_mvl/mxv
 BYTE   W02
 BYTE   VOL   33*FE11EndlessBattleREALxViPerZ_mvl/mxv
 BYTE   W03
 BYTE   VOL   33*FE11EndlessBattleREALxViPerZ_mvl/mxv
 BYTE   W03
 BYTE   VOL   33*FE11EndlessBattleREALxViPerZ_mvl/mxv
 BYTE   W03
 BYTE   VOL   33*FE11EndlessBattleREALxViPerZ_mvl/mxv
 BYTE   W03
 BYTE   VOL   33*FE11EndlessBattleREALxViPerZ_mvl/mxv
 BYTE   W03
 BYTE   VOL   34*FE11EndlessBattleREALxViPerZ_mvl/mxv
 BYTE   W01
 BYTE   VOL   34*FE11EndlessBattleREALxViPerZ_mvl/mxv
 BYTE   W02
 BYTE   VOL   34*FE11EndlessBattleREALxViPerZ_mvl/mxv
 BYTE   W01
 BYTE   VOL   35*FE11EndlessBattleREALxViPerZ_mvl/mxv
 BYTE   N23
 BYTE   W02
 BYTE   VOL   35*FE11EndlessBattleREALxViPerZ_mvl/mxv
 BYTE   W01
 BYTE   VOL   36*FE11EndlessBattleREALxViPerZ_mvl/mxv
 BYTE   W02
 BYTE   VOL   36*FE11EndlessBattleREALxViPerZ_mvl/mxv
 BYTE   W01
 BYTE   VOL   36*FE11EndlessBattleREALxViPerZ_mvl/mxv
 BYTE   W02
 BYTE   VOL   36*FE11EndlessBattleREALxViPerZ_mvl/mxv
 BYTE   W01
 BYTE   VOL   37*FE11EndlessBattleREALxViPerZ_mvl/mxv
 BYTE   W02
 BYTE   VOL   38*FE11EndlessBattleREALxViPerZ_mvl/mxv
 BYTE   W01
 BYTE   VOL   38*FE11EndlessBattleREALxViPerZ_mvl/mxv
 BYTE   W01
 BYTE   VOL   38*FE11EndlessBattleREALxViPerZ_mvl/mxv
 BYTE   W03
 BYTE   VOL   39*FE11EndlessBattleREALxViPerZ_mvl/mxv
 BYTE   W03
 BYTE   VOL   40*FE11EndlessBattleREALxViPerZ_mvl/mxv
 BYTE   W03
 BYTE   VOL   40*FE11EndlessBattleREALxViPerZ_mvl/mxv
 BYTE   W02
 BYTE   VOL   40*FE11EndlessBattleREALxViPerZ_mvl/mxv
 BYTE   N17  Gn4
 BYTE   W18
 BYTE   Gs4
 BYTE   W18
 BYTE   N11  As4
 BYTE   W12
//  #05 //016   ----------------------------------------
 BYTE   N17  Gn4
 BYTE   W02
 BYTE   VOL   40*FE11EndlessBattleREALxViPerZ_mvl/mxv
 BYTE   W01
 BYTE   VOL   38*FE11EndlessBattleREALxViPerZ_mvl/mxv
 BYTE   W01
 BYTE   VOL   38*FE11EndlessBattleREALxViPerZ_mvl/mxv
 BYTE   W01
 BYTE   VOL   36*FE11EndlessBattleREALxViPerZ_mvl/mxv
 BYTE   W01
 BYTE   VOL   36*FE11EndlessBattleREALxViPerZ_mvl/mxv
 BYTE   W01
 BYTE   VOL   35*FE11EndlessBattleREALxViPerZ_mvl/mxv
 BYTE   W01
 BYTE   VOL   34*FE11EndlessBattleREALxViPerZ_mvl/mxv
 BYTE   W02
 BYTE   VOL   34*FE11EndlessBattleREALxViPerZ_mvl/mxv
 BYTE   W01
 BYTE   VOL   35*FE11EndlessBattleREALxViPerZ_mvl/mxv
 BYTE   W02
 BYTE   VOL   36*FE11EndlessBattleREALxViPerZ_mvl/mxv
 BYTE   W01
 BYTE   VOL   36*FE11EndlessBattleREALxViPerZ_mvl/mxv
 BYTE   W02
 BYTE   VOL   36*FE11EndlessBattleREALxViPerZ_mvl/mxv
 BYTE   W01
 BYTE   VOL   36*FE11EndlessBattleREALxViPerZ_mvl/mxv
 BYTE   W01
 BYTE   N05  Fn4
 BYTE   W01
 BYTE   VOL   37*FE11EndlessBattleREALxViPerZ_mvl/mxv
 BYTE   W01
 BYTE   VOL   38*FE11EndlessBattleREALxViPerZ_mvl/mxv
 BYTE   W02
 BYTE   VOL   38*FE11EndlessBattleREALxViPerZ_mvl/mxv
 BYTE   W01
 BYTE   VOL   40*FE11EndlessBattleREALxViPerZ_mvl/mxv
 BYTE   W01
 BYTE   TIE  Gn4
 BYTE   W01
 BYTE   VOL   40*FE11EndlessBattleREALxViPerZ_mvl/mxv
 BYTE   W01
 BYTE   VOL   38*FE11EndlessBattleREALxViPerZ_mvl/mxv
 BYTE   W01
 BYTE   VOL   38*FE11EndlessBattleREALxViPerZ_mvl/mxv
 BYTE   W01
 BYTE   VOL   36*FE11EndlessBattleREALxViPerZ_mvl/mxv
 BYTE   W01
 BYTE   VOL   36*FE11EndlessBattleREALxViPerZ_mvl/mxv
 BYTE   W01
 BYTE   VOL   36*FE11EndlessBattleREALxViPerZ_mvl/mxv
 BYTE   W01
 BYTE   VOL   35*FE11EndlessBattleREALxViPerZ_mvl/mxv
 BYTE   W18
 BYTE   VOL   35*FE11EndlessBattleREALxViPerZ_mvl/mxv
 BYTE   W02
 BYTE   VOL   36*FE11EndlessBattleREALxViPerZ_mvl/mxv
 BYTE   W01
 BYTE   VOL   36*FE11EndlessBattleREALxViPerZ_mvl/mxv
 BYTE   W02
 BYTE   VOL   37*FE11EndlessBattleREALxViPerZ_mvl/mxv
 BYTE   W01
 BYTE   VOL   39*FE11EndlessBattleREALxViPerZ_mvl/mxv
 BYTE   W03
 BYTE   VOL   38*FE11EndlessBattleREALxViPerZ_mvl/mxv
 BYTE   W03
 BYTE   VOL   38*FE11EndlessBattleREALxViPerZ_mvl/mxv
 BYTE   W03
 BYTE   VOL   38*FE11EndlessBattleREALxViPerZ_mvl/mxv
 BYTE   W03
 BYTE   VOL   38*FE11EndlessBattleREALxViPerZ_mvl/mxv
 BYTE   W03
 BYTE   VOL   38*FE11EndlessBattleREALxViPerZ_mvl/mxv
 BYTE   W03
 BYTE   VOL   37*FE11EndlessBattleREALxViPerZ_mvl/mxv
 BYTE   W03
 BYTE   VOL   37*FE11EndlessBattleREALxViPerZ_mvl/mxv
 BYTE   W03
 BYTE   VOL   36*FE11EndlessBattleREALxViPerZ_mvl/mxv
 BYTE   W03
 BYTE   VOL   36*FE11EndlessBattleREALxViPerZ_mvl/mxv
 BYTE   W03
 BYTE   VOL   36*FE11EndlessBattleREALxViPerZ_mvl/mxv
 BYTE   W03
 BYTE   VOL   36*FE11EndlessBattleREALxViPerZ_mvl/mxv
 BYTE   W03
 BYTE   VOL   36*FE11EndlessBattleREALxViPerZ_mvl/mxv
 BYTE   W03
 BYTE   VOL   36*FE11EndlessBattleREALxViPerZ_mvl/mxv
 BYTE   W02
//  #05 //017   ----------------------------------------
 BYTE   W01
 BYTE   VOL   36*FE11EndlessBattleREALxViPerZ_mvl/mxv
 BYTE   W03
 BYTE   VOL   36*FE11EndlessBattleREALxViPerZ_mvl/mxv
 BYTE   W03
 BYTE   VOL   36*FE11EndlessBattleREALxViPerZ_mvl/mxv
 BYTE   W03
 BYTE   VOL   35*FE11EndlessBattleREALxViPerZ_mvl/mxv
 BYTE   W03
 BYTE   VOL   35*FE11EndlessBattleREALxViPerZ_mvl/mxv
 BYTE   W01
 BYTE   VOL   35*FE11EndlessBattleREALxViPerZ_mvl/mxv
 BYTE   W03
 BYTE   VOL   35*FE11EndlessBattleREALxViPerZ_mvl/mxv
 BYTE   W03
 BYTE   VOL   34*FE11EndlessBattleREALxViPerZ_mvl/mxv
 BYTE   W03
 BYTE   VOL   33*FE11EndlessBattleREALxViPerZ_mvl/mxv
 BYTE   W03
 BYTE   VOL   33*FE11EndlessBattleREALxViPerZ_mvl/mxv
 BYTE   W03
 BYTE   VOL   33*FE11EndlessBattleREALxViPerZ_mvl/mxv
 BYTE   W03
 BYTE   VOL   33*FE11EndlessBattleREALxViPerZ_mvl/mxv
 BYTE   W03
 BYTE   VOL   32*FE11EndlessBattleREALxViPerZ_mvl/mxv
 BYTE   W03
 BYTE   VOL   32*FE11EndlessBattleREALxViPerZ_mvl/mxv
 BYTE   W03
 BYTE   VOL   32*FE11EndlessBattleREALxViPerZ_mvl/mxv
 BYTE   W03
 BYTE   VOL   31*FE11EndlessBattleREALxViPerZ_mvl/mxv
 BYTE   W03
 BYTE   VOL   31*FE11EndlessBattleREALxViPerZ_mvl/mxv
 BYTE   W03
 BYTE   VOL   31*FE11EndlessBattleREALxViPerZ_mvl/mxv
 BYTE   W03
 BYTE   VOL   31*FE11EndlessBattleREALxViPerZ_mvl/mxv
 BYTE   W03
 BYTE   VOL   31*FE11EndlessBattleREALxViPerZ_mvl/mxv
 BYTE   W03
 BYTE   VOL   31*FE11EndlessBattleREALxViPerZ_mvl/mxv
 BYTE   W03
 BYTE   VOL   30*FE11EndlessBattleREALxViPerZ_mvl/mxv
 BYTE   W03
 BYTE   VOL   30*FE11EndlessBattleREALxViPerZ_mvl/mxv
 BYTE   W03
 BYTE   VOL   30*FE11EndlessBattleREALxViPerZ_mvl/mxv
 BYTE   W03
 BYTE   VOL   30*FE11EndlessBattleREALxViPerZ_mvl/mxv
 BYTE   W03
 BYTE   VOL   30*FE11EndlessBattleREALxViPerZ_mvl/mxv
 BYTE   W03
 BYTE   EOT
 BYTE   VOL   30*FE11EndlessBattleREALxViPerZ_mvl/mxv
 BYTE   W03
 BYTE   VOL   30*FE11EndlessBattleREALxViPerZ_mvl/mxv
 BYTE   W03
 BYTE   VOL   30*FE11EndlessBattleREALxViPerZ_mvl/mxv
 BYTE   W01
 BYTE   VOL   30*FE11EndlessBattleREALxViPerZ_mvl/mxv
 BYTE   W12
//  #05 //018   ----------------------------------------
 BYTE   W64
 BYTE   W01
 BYTE   VOL   30*FE11EndlessBattleREALxViPerZ_mvl/mxv
 BYTE   W30
 BYTE   W01
//  #05 //019   ----------------------------------------
Label_01C84A99:
 BYTE   W44
 BYTE   W01
 BYTE   VOL   30*FE11EndlessBattleREALxViPerZ_mvl/mxv
 BYTE   W48
 BYTE   W03
 BYTE   PEND 
//  #05 //020   ----------------------------------------
 BYTE   W24
 BYTE   W02
 BYTE   CnM2
 BYTE   W68
 BYTE   W02
//  #05 //021   ----------------------------------------
 BYTE   W07
 BYTE   CnM2
 BYTE   W76
 BYTE   W01
 BYTE   CnM2
 BYTE   W12
//  #05 //022   ----------------------------------------
 BYTE   W64
 BYTE   CnM2
 BYTE   W32
//  #05 //023   ----------------------------------------
 BYTE   PATT
  POIN2 Label_01C84A99
//  #05 //024   ----------------------------------------
 BYTE   W24
 BYTE   W02
 BYTE   VOL   30*FE11EndlessBattleREALxViPerZ_mvl/mxv
 BYTE   W01
 BYTE   VOL   30*FE11EndlessBattleREALxViPerZ_mvl/mxv
 BYTE   W01
 BYTE   VOL   30*FE11EndlessBattleREALxViPerZ_mvl/mxv
 BYTE   W01
 BYTE   VOL   30*FE11EndlessBattleREALxViPerZ_mvl/mxv
 BYTE   W01
 BYTE   VOL   30*FE11EndlessBattleREALxViPerZ_mvl/mxv
 BYTE   W01
 BYTE   VOL   30*FE11EndlessBattleREALxViPerZ_mvl/mxv
 BYTE   W01
 BYTE   VOL   31*FE11EndlessBattleREALxViPerZ_mvl/mxv
 BYTE   W01
 BYTE   VOL   31*FE11EndlessBattleREALxViPerZ_mvl/mxv
 BYTE   W01
 BYTE   VOL   31*FE11EndlessBattleREALxViPerZ_mvl/mxv
 BYTE   W01
 BYTE   VOL   32*FE11EndlessBattleREALxViPerZ_mvl/mxv
 BYTE   W01
 BYTE   VOL   33*FE11EndlessBattleREALxViPerZ_mvl/mxv
 BYTE   W01
 BYTE   VOL   33*FE11EndlessBattleREALxViPerZ_mvl/mxv
 BYTE   W01
 BYTE   VOL   34*FE11EndlessBattleREALxViPerZ_mvl/mxv
 BYTE   W01
 BYTE   VOL   35*FE11EndlessBattleREALxViPerZ_mvl/mxv
 BYTE   W01
 BYTE   VOL   36*FE11EndlessBattleREALxViPerZ_mvl/mxv
 BYTE   W01
 BYTE   VOL   36*FE11EndlessBattleREALxViPerZ_mvl/mxv
 BYTE   W01
 BYTE   VOL   38*FE11EndlessBattleREALxViPerZ_mvl/mxv
 BYTE   N02  As4  v036
 BYTE   W01
 BYTE   VOL   38*FE11EndlessBattleREALxViPerZ_mvl/mxv
 BYTE   W02
 BYTE   N02  Bn4
 BYTE   W01
 BYTE   VOL   39*FE11EndlessBattleREALxViPerZ_mvl/mxv
 BYTE   W02
 BYTE   N17  Cn5  v080
 BYTE   W01
 BYTE   VOL   39*FE11EndlessBattleREALxViPerZ_mvl/mxv
 BYTE   W01
 BYTE   VOL   38*FE11EndlessBattleREALxViPerZ_mvl/mxv
 BYTE   W01
 BYTE   VOL   35*FE11EndlessBattleREALxViPerZ_mvl/mxv
 BYTE   W01
 BYTE   VOL   34*FE11EndlessBattleREALxViPerZ_mvl/mxv
 BYTE   W07
 BYTE   VOL   34*FE11EndlessBattleREALxViPerZ_mvl/mxv
 BYTE   W01
 BYTE   VOL   35*FE11EndlessBattleREALxViPerZ_mvl/mxv
 BYTE   W02
 BYTE   VOL   36*FE11EndlessBattleREALxViPerZ_mvl/mxv
 BYTE   W01
 BYTE   VOL   36*FE11EndlessBattleREALxViPerZ_mvl/mxv
 BYTE   W02
 BYTE   VOL   38*FE11EndlessBattleREALxViPerZ_mvl/mxv
 BYTE   W01
 BYTE   VOL   40*FE11EndlessBattleREALxViPerZ_mvl/mxv
 BYTE   N05  Dn5  v076
 BYTE   W06
 BYTE   TIE  Cn5  v080
 BYTE   W02
 BYTE   VOL   40*FE11EndlessBattleREALxViPerZ_mvl/mxv
 BYTE   W01
 BYTE   VOL   39*FE11EndlessBattleREALxViPerZ_mvl/mxv
 BYTE   W02
 BYTE   VOL   38*FE11EndlessBattleREALxViPerZ_mvl/mxv
 BYTE   W01
 BYTE   VOL   37*FE11EndlessBattleREALxViPerZ_mvl/mxv
 BYTE   W02
 BYTE   VOL   36*FE11EndlessBattleREALxViPerZ_mvl/mxv
 BYTE   W01
 BYTE   VOL   36*FE11EndlessBattleREALxViPerZ_mvl/mxv
 BYTE   W02
 BYTE   VOL   36*FE11EndlessBattleREALxViPerZ_mvl/mxv
 BYTE   W01
 BYTE   VOL   35*FE11EndlessBattleREALxViPerZ_mvl/mxv
 BYTE   W02
 BYTE   VOL   35*FE11EndlessBattleREALxViPerZ_mvl/mxv
 BYTE   W03
 BYTE   VOL   35*FE11EndlessBattleREALxViPerZ_mvl/mxv
 BYTE   W03
 BYTE   VOL   34*FE11EndlessBattleREALxViPerZ_mvl/mxv
 BYTE   W03
 BYTE   VOL   34*FE11EndlessBattleREALxViPerZ_mvl/mxv
 BYTE   W01
//  #05 //025   ----------------------------------------
 BYTE   W02
 BYTE   VOL   34*FE11EndlessBattleREALxViPerZ_mvl/mxv
 BYTE   W03
 BYTE   VOL   34*FE11EndlessBattleREALxViPerZ_mvl/mxv
 BYTE   W03
 BYTE   VOL   34*FE11EndlessBattleREALxViPerZ_mvl/mxv
 BYTE   W03
 BYTE   VOL   33*FE11EndlessBattleREALxViPerZ_mvl/mxv
 BYTE   W03
 BYTE   VOL   33*FE11EndlessBattleREALxViPerZ_mvl/mxv
 BYTE   W03
 BYTE   VOL   33*FE11EndlessBattleREALxViPerZ_mvl/mxv
 BYTE   W03
 BYTE   VOL   33*FE11EndlessBattleREALxViPerZ_mvl/mxv
 BYTE   W03
 BYTE   VOL   33*FE11EndlessBattleREALxViPerZ_mvl/mxv
 BYTE   W03
 BYTE   VOL   33*FE11EndlessBattleREALxViPerZ_mvl/mxv
 BYTE   W03
 BYTE   VOL   33*FE11EndlessBattleREALxViPerZ_mvl/mxv
 BYTE   W03
 BYTE   VOL   33*FE11EndlessBattleREALxViPerZ_mvl/mxv
 BYTE   W03
 BYTE   VOL   33*FE11EndlessBattleREALxViPerZ_mvl/mxv
 BYTE   W03
 BYTE   VOL   33*FE11EndlessBattleREALxViPerZ_mvl/mxv
 BYTE   W03
 BYTE   VOL   32*FE11EndlessBattleREALxViPerZ_mvl/mxv
 BYTE   W03
 BYTE   VOL   32*FE11EndlessBattleREALxViPerZ_mvl/mxv
 BYTE   W01
 BYTE   VOL   32*FE11EndlessBattleREALxViPerZ_mvl/mxv
 BYTE   W01
 BYTE   VOL   32*FE11EndlessBattleREALxViPerZ_mvl/mxv
 BYTE   W02
 BYTE   VOL   32*FE11EndlessBattleREALxViPerZ_mvl/mxv
 BYTE   W01
 BYTE   VOL   31*FE11EndlessBattleREALxViPerZ_mvl/mxv
 BYTE   W02
 BYTE   VOL   31*FE11EndlessBattleREALxViPerZ_mvl/mxv
 BYTE   W01
 BYTE   VOL   31*FE11EndlessBattleREALxViPerZ_mvl/mxv
 BYTE   W02
 BYTE   VOL   31*FE11EndlessBattleREALxViPerZ_mvl/mxv
 BYTE   W01
 BYTE   VOL   31*FE11EndlessBattleREALxViPerZ_mvl/mxv
 BYTE   W02
 BYTE   VOL   31*FE11EndlessBattleREALxViPerZ_mvl/mxv
 BYTE   W01
 BYTE   VOL   31*FE11EndlessBattleREALxViPerZ_mvl/mxv
 BYTE   W02
 BYTE   VOL   31*FE11EndlessBattleREALxViPerZ_mvl/mxv
 BYTE   W01
 BYTE   VOL   31*FE11EndlessBattleREALxViPerZ_mvl/mxv
 BYTE   W02
 BYTE   VOL   30*FE11EndlessBattleREALxViPerZ_mvl/mxv
 BYTE   W01
 BYTE   VOL   30*FE11EndlessBattleREALxViPerZ_mvl/mxv
 BYTE   W02
 BYTE   VOL   30*FE11EndlessBattleREALxViPerZ_mvl/mxv
 BYTE   W01
 BYTE   VOL   30*FE11EndlessBattleREALxViPerZ_mvl/mxv
 BYTE   W02
 BYTE   VOL   30*FE11EndlessBattleREALxViPerZ_mvl/mxv
 BYTE   W01
 BYTE   VOL   30*FE11EndlessBattleREALxViPerZ_mvl/mxv
 BYTE   W02
 BYTE   VOL   30*FE11EndlessBattleREALxViPerZ_mvl/mxv
 BYTE   W01
 BYTE   VOL   30*FE11EndlessBattleREALxViPerZ_mvl/mxv
 BYTE   W02
 BYTE   VOL   30*FE11EndlessBattleREALxViPerZ_mvl/mxv
 BYTE   W01
 BYTE   VOL   30*FE11EndlessBattleREALxViPerZ_mvl/mxv
 BYTE   W02
 BYTE   VOL   30*FE11EndlessBattleREALxViPerZ_mvl/mxv
 BYTE   W01
 BYTE   VOL   30*FE11EndlessBattleREALxViPerZ_mvl/mxv
 BYTE   W02
 BYTE   VOL   30*FE11EndlessBattleREALxViPerZ_mvl/mxv
 BYTE   W01
 BYTE   VOL   30*FE11EndlessBattleREALxViPerZ_mvl/mxv
 BYTE   W02
 BYTE   VOL   30*FE11EndlessBattleREALxViPerZ_mvl/mxv
 BYTE   W01
 BYTE   VOL   30*FE11EndlessBattleREALxViPerZ_mvl/mxv
 BYTE   W02
 BYTE   VOL   30*FE11EndlessBattleREALxViPerZ_mvl/mxv
 BYTE   W01
 BYTE   VOL   30*FE11EndlessBattleREALxViPerZ_mvl/mxv
 BYTE   W02
 BYTE   VOL   30*FE11EndlessBattleREALxViPerZ_mvl/mxv
 BYTE   W01
 BYTE   EOT
 BYTE   VOL   30*FE11EndlessBattleREALxViPerZ_mvl/mxv
 BYTE   W02
 BYTE   VOL   30*FE11EndlessBattleREALxViPerZ_mvl/mxv
 BYTE   W01
 BYTE   VOL   30*FE11EndlessBattleREALxViPerZ_mvl/mxv
 BYTE   W02
//  #05 //026   ----------------------------------------
 BYTE   VOL   30*FE11EndlessBattleREALxViPerZ_mvl/mxv
 BYTE   W01
 BYTE   VOL   30*FE11EndlessBattleREALxViPerZ_mvl/mxv
 BYTE   W48
 BYTE   W03
 BYTE   VOL   30*FE11EndlessBattleREALxViPerZ_mvl/mxv
 BYTE   W24
 BYTE   W02
 BYTE   VOL   30*FE11EndlessBattleREALxViPerZ_mvl/mxv
 BYTE   W18
//  #05 //027   ----------------------------------------
Label_01C84B8C:
 BYTE   W08
 BYTE   VOL   30*FE11EndlessBattleREALxViPerZ_mvl/mxv
 BYTE   W24
 BYTE   W01
 BYTE   VOL   30*FE11EndlessBattleREALxViPerZ_mvl/mxv
 BYTE   W24
 BYTE   W02
 BYTE   VOL   30*FE11EndlessBattleREALxViPerZ_mvl/mxv
 BYTE   W24
 BYTE   W02
 BYTE   VOL   30*FE11EndlessBattleREALxViPerZ_mvl/mxv
 BYTE   W11
 BYTE   PEND 
//  #05 //028   ----------------------------------------
 BYTE   W14
 BYTE   CnM2
 BYTE   W24
 BYTE   W02
 BYTE   CnM2
 BYTE   W24
 BYTE   W01
 BYTE   CnM2
 BYTE   W24
 BYTE   W02
 BYTE   CnM2
 BYTE   W05
//  #05 //029   ----------------------------------------
 BYTE   W21
 BYTE   CnM2
 BYTE   W24
 BYTE   W01
 BYTE   CnM2
 BYTE   W24
 BYTE   W02
 BYTE   CnM2
 BYTE   W24
//  #05 //030   ----------------------------------------
 BYTE   W01
 BYTE   CnM2
 BYTE   W24
 BYTE   W02
 BYTE   CnM2
 BYTE   W24
 BYTE   W02
 BYTE   CnM2
 BYTE   W24
 BYTE   W01
 BYTE   CnM2
 BYTE   W18
//  #05 //031   ----------------------------------------
 BYTE   PATT
  POIN2 Label_01C84B8C
//  #05 //032   ----------------------------------------
 BYTE   W14
 BYTE   VOL   30*FE11EndlessBattleREALxViPerZ_mvl/mxv
 BYTE   W24
 BYTE   W02
 BYTE   VOL   30*FE11EndlessBattleREALxViPerZ_mvl/mxv
 BYTE   W24
 BYTE   W02
 BYTE   VOL   30*FE11EndlessBattleREALxViPerZ_mvl/mxv
 BYTE   W24
 BYTE   W01
 BYTE   VOL   30*FE11EndlessBattleREALxViPerZ_mvl/mxv
 BYTE   W05
//  #05 //033   ----------------------------------------
 BYTE   W21
 BYTE   VOL   30*FE11EndlessBattleREALxViPerZ_mvl/mxv
 BYTE   W24
 BYTE   W01
 BYTE   VOL   30*FE11EndlessBattleREALxViPerZ_mvl/mxv
 BYTE   W24
 BYTE   W02
 BYTE   VOL   40*FE11EndlessBattleREALxViPerZ_mvl/mxv
 BYTE   W18
 BYTE   N01  Dn5  v004
 BYTE   W02
 BYTE   Ds5  v016
 BYTE   W02
 BYTE   En5  v024
 BYTE   W02
//  #05 //034   ----------------------------------------
 BYTE   N17  Fn5  v052
 BYTE   W01
 BYTE   VOL   40*FE11EndlessBattleREALxViPerZ_mvl/mxv
 BYTE   W01
 BYTE   VOL   38*FE11EndlessBattleREALxViPerZ_mvl/mxv
 BYTE   W01
 BYTE   VOL   35*FE11EndlessBattleREALxViPerZ_mvl/mxv
 BYTE   W01
 BYTE   VOL   33*FE11EndlessBattleREALxViPerZ_mvl/mxv
 BYTE   W02
 BYTE   VOL   34*FE11EndlessBattleREALxViPerZ_mvl/mxv
 BYTE   W01
 BYTE   VOL   34*FE11EndlessBattleREALxViPerZ_mvl/mxv
 BYTE   W02
 BYTE   VOL   34*FE11EndlessBattleREALxViPerZ_mvl/mxv
 BYTE   W02
 BYTE   VOL   35*FE11EndlessBattleREALxViPerZ_mvl/mxv
 BYTE   W01
 BYTE   VOL   36*FE11EndlessBattleREALxViPerZ_mvl/mxv
 BYTE   W02
 BYTE   VOL   36*FE11EndlessBattleREALxViPerZ_mvl/mxv
 BYTE   W01
 BYTE   VOL   37*FE11EndlessBattleREALxViPerZ_mvl/mxv
 BYTE   W02
 BYTE   VOL   38*FE11EndlessBattleREALxViPerZ_mvl/mxv
 BYTE   W01
 BYTE   VOL   40*FE11EndlessBattleREALxViPerZ_mvl/mxv
 BYTE   N05  Gn5
 BYTE   W06
 BYTE   N11  Fn5
 BYTE   W12
 BYTE   N23  Ds5  v064
 BYTE   W02
 BYTE   VOL   38*FE11EndlessBattleREALxViPerZ_mvl/mxv
 BYTE   W01
 BYTE   VOL   36*FE11EndlessBattleREALxViPerZ_mvl/mxv
 BYTE   W01
 BYTE   VOL   36*FE11EndlessBattleREALxViPerZ_mvl/mxv
 BYTE   W01
 BYTE   VOL   33*FE11EndlessBattleREALxViPerZ_mvl/mxv
 BYTE   W02
 BYTE   VOL   33*FE11EndlessBattleREALxViPerZ_mvl/mxv
 BYTE   W01
 BYTE   VOL   34*FE11EndlessBattleREALxViPerZ_mvl/mxv
 BYTE   W02
 BYTE   VOL   34*FE11EndlessBattleREALxViPerZ_mvl/mxv
 BYTE   W01
 BYTE   VOL   34*FE11EndlessBattleREALxViPerZ_mvl/mxv
 BYTE   W02
 BYTE   VOL   35*FE11EndlessBattleREALxViPerZ_mvl/mxv
 BYTE   W01
 BYTE   VOL   35*FE11EndlessBattleREALxViPerZ_mvl/mxv
 BYTE   W02
 BYTE   VOL   35*FE11EndlessBattleREALxViPerZ_mvl/mxv
 BYTE   W01
 BYTE   VOL   36*FE11EndlessBattleREALxViPerZ_mvl/mxv
 BYTE   W02
 BYTE   VOL   36*FE11EndlessBattleREALxViPerZ_mvl/mxv
 BYTE   W01
 BYTE   VOL   36*FE11EndlessBattleREALxViPerZ_mvl/mxv
 BYTE   W02
 BYTE   VOL   36*FE11EndlessBattleREALxViPerZ_mvl/mxv
 BYTE   W01
 BYTE   VOL   36*FE11EndlessBattleREALxViPerZ_mvl/mxv
 BYTE   W02
 BYTE   VOL   37*FE11EndlessBattleREALxViPerZ_mvl/mxv
 BYTE   W01
 BYTE   VOL   37*FE11EndlessBattleREALxViPerZ_mvl/mxv
 BYTE   W02
 BYTE   VOL   38*FE11EndlessBattleREALxViPerZ_mvl/mxv
 BYTE   W01
 BYTE   VOL   38*FE11EndlessBattleREALxViPerZ_mvl/mxv
 BYTE   W02
 BYTE   VOL   39*FE11EndlessBattleREALxViPerZ_mvl/mxv
 BYTE   W01
 BYTE   VOL   39*FE11EndlessBattleREALxViPerZ_mvl/mxv
 BYTE   W02
 BYTE   VOL   40*FE11EndlessBattleREALxViPerZ_mvl/mxv
 BYTE   W01
 BYTE   VOL   40*FE11EndlessBattleREALxViPerZ_mvl/mxv
 BYTE   W01
 BYTE   VOL   40*FE11EndlessBattleREALxViPerZ_mvl/mxv
 BYTE   N17  Dn5
 BYTE   W01
 BYTE   VOL   37*FE11EndlessBattleREALxViPerZ_mvl/mxv
 BYTE   W01
 BYTE   VOL   36*FE11EndlessBattleREALxViPerZ_mvl/mxv
 BYTE   W01
 BYTE   VOL   36*FE11EndlessBattleREALxViPerZ_mvl/mxv
 BYTE   W01
 BYTE   VOL   34*FE11EndlessBattleREALxViPerZ_mvl/mxv
 BYTE   W02
 BYTE   VOL   34*FE11EndlessBattleREALxViPerZ_mvl/mxv
 BYTE   W01
 BYTE   VOL   34*FE11EndlessBattleREALxViPerZ_mvl/mxv
 BYTE   W02
 BYTE   VOL   35*FE11EndlessBattleREALxViPerZ_mvl/mxv
 BYTE   W01
 BYTE   VOL   35*FE11EndlessBattleREALxViPerZ_mvl/mxv
 BYTE   W02
 BYTE   VOL   35*FE11EndlessBattleREALxViPerZ_mvl/mxv
 BYTE   W01
 BYTE   VOL   36*FE11EndlessBattleREALxViPerZ_mvl/mxv
 BYTE   W01
 BYTE   VOL   36*FE11EndlessBattleREALxViPerZ_mvl/mxv
 BYTE   W01
 BYTE   VOL   37*FE11EndlessBattleREALxViPerZ_mvl/mxv
 BYTE   W01
 BYTE   VOL   38*FE11EndlessBattleREALxViPerZ_mvl/mxv
 BYTE   W01
 BYTE   VOL   40*FE11EndlessBattleREALxViPerZ_mvl/mxv
 BYTE   W01
 BYTE   VOL   40*FE11EndlessBattleREALxViPerZ_mvl/mxv
 BYTE   N05  Ds5
 BYTE   W06
//  #05 //035   ----------------------------------------
 BYTE   VOL   40*FE11EndlessBattleREALxViPerZ_mvl/mxv
 BYTE   N11  Dn5
 BYTE   W01
 BYTE   VOL   40*FE11EndlessBattleREALxViPerZ_mvl/mxv
 BYTE   W02
 BYTE   VOL   39*FE11EndlessBattleREALxViPerZ_mvl/mxv
 BYTE   W01
 BYTE   VOL   38*FE11EndlessBattleREALxViPerZ_mvl/mxv
 BYTE   W02
 BYTE   VOL   36*FE11EndlessBattleREALxViPerZ_mvl/mxv
 BYTE   W02
 BYTE   VOL   37*FE11EndlessBattleREALxViPerZ_mvl/mxv
 BYTE   W01
 BYTE   VOL   38*FE11EndlessBattleREALxViPerZ_mvl/mxv
 BYTE   W02
 BYTE   VOL   39*FE11EndlessBattleREALxViPerZ_mvl/mxv
 BYTE   W01
 BYTE   VOL   40*FE11EndlessBattleREALxViPerZ_mvl/mxv
 BYTE   N52  Cn5
 BYTE   W02
 BYTE   VOL   40*FE11EndlessBattleREALxViPerZ_mvl/mxv
 BYTE   W02
 BYTE   VOL   40*FE11EndlessBattleREALxViPerZ_mvl/mxv
 BYTE   W01
 BYTE   VOL   38*FE11EndlessBattleREALxViPerZ_mvl/mxv
 BYTE   W02
 BYTE   VOL   36*FE11EndlessBattleREALxViPerZ_mvl/mxv
 BYTE   W01
 BYTE   VOL   36*FE11EndlessBattleREALxViPerZ_mvl/mxv
 BYTE   W03
 BYTE   VOL   36*FE11EndlessBattleREALxViPerZ_mvl/mxv
 BYTE   W03
 BYTE   VOL   35*FE11EndlessBattleREALxViPerZ_mvl/mxv
 BYTE   W03
 BYTE   VOL   35*FE11EndlessBattleREALxViPerZ_mvl/mxv
 BYTE   W03
 BYTE   VOL   34*FE11EndlessBattleREALxViPerZ_mvl/mxv
 BYTE   W03
 BYTE   VOL   34*FE11EndlessBattleREALxViPerZ_mvl/mxv
 BYTE   W03
 BYTE   VOL   33*FE11EndlessBattleREALxViPerZ_mvl/mxv
 BYTE   W03
 BYTE   VOL   33*FE11EndlessBattleREALxViPerZ_mvl/mxv
 BYTE   W01
 BYTE   VOL   33*FE11EndlessBattleREALxViPerZ_mvl/mxv
 BYTE   W02
 BYTE   VOL   33*FE11EndlessBattleREALxViPerZ_mvl/mxv
 BYTE   W01
 BYTE   VOL   33*FE11EndlessBattleREALxViPerZ_mvl/mxv
 BYTE   W02
 BYTE   VOL   32*FE11EndlessBattleREALxViPerZ_mvl/mxv
 BYTE   W01
 BYTE   VOL   32*FE11EndlessBattleREALxViPerZ_mvl/mxv
 BYTE   W02
 BYTE   VOL   32*FE11EndlessBattleREALxViPerZ_mvl/mxv
 BYTE   W01
 BYTE   VOL   31*FE11EndlessBattleREALxViPerZ_mvl/mxv
 BYTE   W02
 BYTE   VOL   31*FE11EndlessBattleREALxViPerZ_mvl/mxv
 BYTE   W01
 BYTE   VOL   31*FE11EndlessBattleREALxViPerZ_mvl/mxv
 BYTE   W02
 BYTE   VOL   31*FE11EndlessBattleREALxViPerZ_mvl/mxv
 BYTE   W01
 BYTE   VOL   31*FE11EndlessBattleREALxViPerZ_mvl/mxv
 BYTE   W02
 BYTE   VOL   31*FE11EndlessBattleREALxViPerZ_mvl/mxv
 BYTE   W01
 BYTE   VOL   31*FE11EndlessBattleREALxViPerZ_mvl/mxv
 BYTE   W02
 BYTE   VOL   30*FE11EndlessBattleREALxViPerZ_mvl/mxv
 BYTE   W01
 BYTE   VOL   30*FE11EndlessBattleREALxViPerZ_mvl/mxv
 BYTE   W02
 BYTE   VOL   30*FE11EndlessBattleREALxViPerZ_mvl/mxv
 BYTE   W01
 BYTE   VOL   30*FE11EndlessBattleREALxViPerZ_mvl/mxv
 BYTE   W02
 BYTE   VOL   30*FE11EndlessBattleREALxViPerZ_mvl/mxv
 BYTE   W01
 BYTE   VOL   31*FE11EndlessBattleREALxViPerZ_mvl/mxv
 BYTE   W01
 BYTE   VOL   31*FE11EndlessBattleREALxViPerZ_mvl/mxv
 BYTE   W01
 BYTE   VOL   34*FE11EndlessBattleREALxViPerZ_mvl/mxv
 BYTE   W01
 BYTE   VOL   36*FE11EndlessBattleREALxViPerZ_mvl/mxv
 BYTE   N11  Dn5
 BYTE   W03
 BYTE   VOL   36*FE11EndlessBattleREALxViPerZ_mvl/mxv
 BYTE   W03
 BYTE   VOL   36*FE11EndlessBattleREALxViPerZ_mvl/mxv
 BYTE   W03
 BYTE   VOL   36*FE11EndlessBattleREALxViPerZ_mvl/mxv
 BYTE   W03
 BYTE   VOL   37*FE11EndlessBattleREALxViPerZ_mvl/mxv
 BYTE   N11  Ds5
 BYTE   W03
 BYTE   VOL   38*FE11EndlessBattleREALxViPerZ_mvl/mxv
 BYTE   W03
 BYTE   VOL   38*FE11EndlessBattleREALxViPerZ_mvl/mxv
 BYTE   W03
 BYTE   VOL   39*FE11EndlessBattleREALxViPerZ_mvl/mxv
 BYTE   W03
//  #05 //036   ----------------------------------------
 BYTE   VOL   40*FE11EndlessBattleREALxViPerZ_mvl/mxv
 BYTE   N17  Fn5  v052
 BYTE   W01
 BYTE   VOL   38*FE11EndlessBattleREALxViPerZ_mvl/mxv
 BYTE   W01
 BYTE   VOL   36*FE11EndlessBattleREALxViPerZ_mvl/mxv
 BYTE   W01
 BYTE   VOL   34*FE11EndlessBattleREALxViPerZ_mvl/mxv
 BYTE   W13
 BYTE   VOL   34*FE11EndlessBattleREALxViPerZ_mvl/mxv
 BYTE   W01
 BYTE   VOL   36*FE11EndlessBattleREALxViPerZ_mvl/mxv
 BYTE   W01
 BYTE   VOL   40*FE11EndlessBattleREALxViPerZ_mvl/mxv
 BYTE   N05  Gn5
 BYTE   W06
 BYTE   VOL   40*FE11EndlessBattleREALxViPerZ_mvl/mxv
 BYTE   N11  Fn5
 BYTE   W03
 BYTE   VOL   40*FE11EndlessBattleREALxViPerZ_mvl/mxv
 BYTE   W03
 BYTE   VOL   40*FE11EndlessBattleREALxViPerZ_mvl/mxv
 BYTE   W03
 BYTE   VOL   40*FE11EndlessBattleREALxViPerZ_mvl/mxv
 BYTE   W03
 BYTE   VOL   39*FE11EndlessBattleREALxViPerZ_mvl/mxv
 BYTE   N28  Ds5  v064
 BYTE   W01
 BYTE   VOL   38*FE11EndlessBattleREALxViPerZ_mvl/mxv
 BYTE   W02
 BYTE   VOL   37*FE11EndlessBattleREALxViPerZ_mvl/mxv
 BYTE   W01
 BYTE   VOL   36*FE11EndlessBattleREALxViPerZ_mvl/mxv
 BYTE   W02
 BYTE   VOL   36*FE11EndlessBattleREALxViPerZ_mvl/mxv
 BYTE   W01
 BYTE   VOL   35*FE11EndlessBattleREALxViPerZ_mvl/mxv
 BYTE   W01
 BYTE   VOL   35*FE11EndlessBattleREALxViPerZ_mvl/mxv
 BYTE   W03
 BYTE   VOL   35*FE11EndlessBattleREALxViPerZ_mvl/mxv
 BYTE   W03
 BYTE   VOL   35*FE11EndlessBattleREALxViPerZ_mvl/mxv
 BYTE   W03
 BYTE   VOL   34*FE11EndlessBattleREALxViPerZ_mvl/mxv
 BYTE   W01
 BYTE   VOL   34*FE11EndlessBattleREALxViPerZ_mvl/mxv
 BYTE   W02
 BYTE   VOL   34*FE11EndlessBattleREALxViPerZ_mvl/mxv
 BYTE   W01
 BYTE   VOL   33*FE11EndlessBattleREALxViPerZ_mvl/mxv
 BYTE   W02
 BYTE   VOL   33*FE11EndlessBattleREALxViPerZ_mvl/mxv
 BYTE   W01
 BYTE   VOL   33*FE11EndlessBattleREALxViPerZ_mvl/mxv
 BYTE   W02
 BYTE   VOL   33*FE11EndlessBattleREALxViPerZ_mvl/mxv
 BYTE   W02
 BYTE   VOL   33*FE11EndlessBattleREALxViPerZ_mvl/mxv
 BYTE   W01
 BYTE   VOL   34*FE11EndlessBattleREALxViPerZ_mvl/mxv
 BYTE   W01
 BYTE   N01  Fn5  v008
 BYTE   W01
 BYTE   VOL   35*FE11EndlessBattleREALxViPerZ_mvl/mxv
 BYTE   W01
 BYTE   VOL   36*FE11EndlessBattleREALxViPerZ_mvl/mxv
 BYTE   N01  Gn5  v020
 BYTE   W02
 BYTE   VOL   37*FE11EndlessBattleREALxViPerZ_mvl/mxv
 BYTE   N01  Gs5  v028
 BYTE   W01
 BYTE   VOL   39*FE11EndlessBattleREALxViPerZ_mvl/mxv
 BYTE   W01
 BYTE   N23  As5  v044
 BYTE   W01
 BYTE   VOL   38*FE11EndlessBattleREALxViPerZ_mvl/mxv
 BYTE   W01
 BYTE   VOL   36*FE11EndlessBattleREALxViPerZ_mvl/mxv
 BYTE   W02
 BYTE   VOL   36*FE11EndlessBattleREALxViPerZ_mvl/mxv
 BYTE   W01
 BYTE   VOL   35*FE11EndlessBattleREALxViPerZ_mvl/mxv
 BYTE   W02
 BYTE   VOL   33*FE11EndlessBattleREALxViPerZ_mvl/mxv
 BYTE   W02
 BYTE   VOL   34*FE11EndlessBattleREALxViPerZ_mvl/mxv
 BYTE   W01
 BYTE   VOL   34*FE11EndlessBattleREALxViPerZ_mvl/mxv
 BYTE   W02
 BYTE   VOL   35*FE11EndlessBattleREALxViPerZ_mvl/mxv
 BYTE   W01
 BYTE   VOL   36*FE11EndlessBattleREALxViPerZ_mvl/mxv
 BYTE   W02
 BYTE   VOL   36*FE11EndlessBattleREALxViPerZ_mvl/mxv
 BYTE   W01
 BYTE   VOL   36*FE11EndlessBattleREALxViPerZ_mvl/mxv
 BYTE   W02
 BYTE   VOL   36*FE11EndlessBattleREALxViPerZ_mvl/mxv
 BYTE   W01
 BYTE   VOL   38*FE11EndlessBattleREALxViPerZ_mvl/mxv
 BYTE   W02
 BYTE   VOL   38*FE11EndlessBattleREALxViPerZ_mvl/mxv
 BYTE   W01
 BYTE   VOL   39*FE11EndlessBattleREALxViPerZ_mvl/mxv
 BYTE   W02
//  #05 //037   ----------------------------------------
 BYTE   VOL   40*FE11EndlessBattleREALxViPerZ_mvl/mxv
 BYTE   N05  Gs5  v056
 BYTE   W06
 BYTE   Gn5
 BYTE   W06
 BYTE   N72  Ds5  v064
 BYTE   W01
 BYTE   VOL   40*FE11EndlessBattleREALxViPerZ_mvl/mxv
 BYTE   W01
 BYTE   VOL   38*FE11EndlessBattleREALxViPerZ_mvl/mxv
 BYTE   W01
 BYTE   VOL   36*FE11EndlessBattleREALxViPerZ_mvl/mxv
 BYTE   W01
 BYTE   VOL   36*FE11EndlessBattleREALxViPerZ_mvl/mxv
 BYTE   W01
 BYTE   VOL   36*FE11EndlessBattleREALxViPerZ_mvl/mxv
 BYTE   W01
 BYTE   VOL   34*FE11EndlessBattleREALxViPerZ_mvl/mxv
 BYTE   W01
 BYTE   VOL   34*FE11EndlessBattleREALxViPerZ_mvl/mxv
 BYTE   W03
 BYTE   VOL   34*FE11EndlessBattleREALxViPerZ_mvl/mxv
 BYTE   W03
 BYTE   VOL   34*FE11EndlessBattleREALxViPerZ_mvl/mxv
 BYTE   W03
 BYTE   VOL   35*FE11EndlessBattleREALxViPerZ_mvl/mxv
 BYTE   W03
 BYTE   VOL   35*FE11EndlessBattleREALxViPerZ_mvl/mxv
 BYTE   W03
 BYTE   VOL   36*FE11EndlessBattleREALxViPerZ_mvl/mxv
 BYTE   W03
 BYTE   VOL   36*FE11EndlessBattleREALxViPerZ_mvl/mxv
 BYTE   W03
 BYTE   VOL   36*FE11EndlessBattleREALxViPerZ_mvl/mxv
 BYTE   W03
 BYTE   VOL   36*FE11EndlessBattleREALxViPerZ_mvl/mxv
 BYTE   W02
 BYTE   VOL   36*FE11EndlessBattleREALxViPerZ_mvl/mxv
 BYTE   W03
 BYTE   VOL   36*FE11EndlessBattleREALxViPerZ_mvl/mxv
 BYTE   W03
 BYTE   VOL   36*FE11EndlessBattleREALxViPerZ_mvl/mxv
 BYTE   W03
 BYTE   VOL   36*FE11EndlessBattleREALxViPerZ_mvl/mxv
 BYTE   W03
 BYTE   VOL   35*FE11EndlessBattleREALxViPerZ_mvl/mxv
 BYTE   W03
 BYTE   VOL   35*FE11EndlessBattleREALxViPerZ_mvl/mxv
 BYTE   W03
 BYTE   VOL   34*FE11EndlessBattleREALxViPerZ_mvl/mxv
 BYTE   W03
 BYTE   VOL   34*FE11EndlessBattleREALxViPerZ_mvl/mxv
 BYTE   W03
 BYTE   VOL   33*FE11EndlessBattleREALxViPerZ_mvl/mxv
 BYTE   W03
 BYTE   VOL   33*FE11EndlessBattleREALxViPerZ_mvl/mxv
 BYTE   W03
 BYTE   VOL   33*FE11EndlessBattleREALxViPerZ_mvl/mxv
 BYTE   W03
 BYTE   VOL   33*FE11EndlessBattleREALxViPerZ_mvl/mxv
 BYTE   W02
 BYTE   VOL   32*FE11EndlessBattleREALxViPerZ_mvl/mxv
 BYTE   W01
 BYTE   VOL   31*FE11EndlessBattleREALxViPerZ_mvl/mxv
 BYTE   W02
 BYTE   VOL   31*FE11EndlessBattleREALxViPerZ_mvl/mxv
 BYTE   W01
 BYTE   VOL   31*FE11EndlessBattleREALxViPerZ_mvl/mxv
 BYTE   W02
 BYTE   VOL   31*FE11EndlessBattleREALxViPerZ_mvl/mxv
 BYTE   W01
 BYTE   VOL   30*FE11EndlessBattleREALxViPerZ_mvl/mxv
 BYTE   W02
 BYTE   VOL   30*FE11EndlessBattleREALxViPerZ_mvl/mxv
 BYTE   W01
 BYTE   VOL   30*FE11EndlessBattleREALxViPerZ_mvl/mxv
 BYTE   W02
 BYTE   VOL   30*FE11EndlessBattleREALxViPerZ_mvl/mxv
 BYTE   W01
 BYTE   VOL   30*FE11EndlessBattleREALxViPerZ_mvl/mxv
 BYTE   W02
 BYTE   VOL   30*FE11EndlessBattleREALxViPerZ_mvl/mxv
 BYTE   W01
//  #05 //038   ----------------------------------------
 BYTE   VOL   30*FE11EndlessBattleREALxViPerZ_mvl/mxv
 BYTE   N44  Gn3  v080
 BYTE   W01
 BYTE   VOL   30*FE11EndlessBattleREALxViPerZ_mvl/mxv
 BYTE   W01
 BYTE   VOL   30*FE11EndlessBattleREALxViPerZ_mvl/mxv
 BYTE   W01
 BYTE   VOL   30*FE11EndlessBattleREALxViPerZ_mvl/mxv
 BYTE   W01
 BYTE   VOL   30*FE11EndlessBattleREALxViPerZ_mvl/mxv
 BYTE   W01
 BYTE   VOL   30*FE11EndlessBattleREALxViPerZ_mvl/mxv
 BYTE   W01
 BYTE   VOL   31*FE11EndlessBattleREALxViPerZ_mvl/mxv
 BYTE   W01
 BYTE   VOL   31*FE11EndlessBattleREALxViPerZ_mvl/mxv
 BYTE   W01
 BYTE   VOL   31*FE11EndlessBattleREALxViPerZ_mvl/mxv
 BYTE   W01
 BYTE   VOL   32*FE11EndlessBattleREALxViPerZ_mvl/mxv
 BYTE   W01
 BYTE   VOL   32*FE11EndlessBattleREALxViPerZ_mvl/mxv
 BYTE   W01
 BYTE   VOL   33*FE11EndlessBattleREALxViPerZ_mvl/mxv
 BYTE   W01
 BYTE   VOL   33*FE11EndlessBattleREALxViPerZ_mvl/mxv
 BYTE   W01
 BYTE   VOL   34*FE11EndlessBattleREALxViPerZ_mvl/mxv
 BYTE   W01
 BYTE   VOL   35*FE11EndlessBattleREALxViPerZ_mvl/mxv
 BYTE   W01
 BYTE   VOL   36*FE11EndlessBattleREALxViPerZ_mvl/mxv
 BYTE   W01
 BYTE   VOL   36*FE11EndlessBattleREALxViPerZ_mvl/mxv
 BYTE   W03
 BYTE   VOL   37*FE11EndlessBattleREALxViPerZ_mvl/mxv
 BYTE   W03
 BYTE   VOL   38*FE11EndlessBattleREALxViPerZ_mvl/mxv
 BYTE   W03
 BYTE   VOL   38*FE11EndlessBattleREALxViPerZ_mvl/mxv
 BYTE   W03
 BYTE   VOL   38*FE11EndlessBattleREALxViPerZ_mvl/mxv
 BYTE   W03
 BYTE   VOL   38*FE11EndlessBattleREALxViPerZ_mvl/mxv
 BYTE   W01
 BYTE   VOL   37*FE11EndlessBattleREALxViPerZ_mvl/mxv
 BYTE   W01
 BYTE   VOL   36*FE11EndlessBattleREALxViPerZ_mvl/mxv
 BYTE   W01
 BYTE   VOL   36*FE11EndlessBattleREALxViPerZ_mvl/mxv
 BYTE   W01
 BYTE   VOL   35*FE11EndlessBattleREALxViPerZ_mvl/mxv
 BYTE   W01
 BYTE   VOL   34*FE11EndlessBattleREALxViPerZ_mvl/mxv
 BYTE   W01
 BYTE   VOL   33*FE11EndlessBattleREALxViPerZ_mvl/mxv
 BYTE   W01
 BYTE   VOL   33*FE11EndlessBattleREALxViPerZ_mvl/mxv
 BYTE   W01
 BYTE   VOL   32*FE11EndlessBattleREALxViPerZ_mvl/mxv
 BYTE   W01
 BYTE   VOL   31*FE11EndlessBattleREALxViPerZ_mvl/mxv
 BYTE   W01
 BYTE   VOL   31*FE11EndlessBattleREALxViPerZ_mvl/mxv
 BYTE   W01
 BYTE   VOL   31*FE11EndlessBattleREALxViPerZ_mvl/mxv
 BYTE   W01
 BYTE   VOL   31*FE11EndlessBattleREALxViPerZ_mvl/mxv
 BYTE   W01
 BYTE   VOL   30*FE11EndlessBattleREALxViPerZ_mvl/mxv
 BYTE   W01
 BYTE   VOL   30*FE11EndlessBattleREALxViPerZ_mvl/mxv
 BYTE   W01
 BYTE   VOL   30*FE11EndlessBattleREALxViPerZ_mvl/mxv
 BYTE   W01
 BYTE   VOL   30*FE11EndlessBattleREALxViPerZ_mvl/mxv
 BYTE   W01
 BYTE   VOL   30*FE11EndlessBattleREALxViPerZ_mvl/mxv
 BYTE   N36  Dn4
 BYTE   W01
 BYTE   VOL   30*FE11EndlessBattleREALxViPerZ_mvl/mxv
 BYTE   W01
 BYTE   VOL   30*FE11EndlessBattleREALxViPerZ_mvl/mxv
 BYTE   W01
 BYTE   VOL   31*FE11EndlessBattleREALxViPerZ_mvl/mxv
 BYTE   W01
 BYTE   VOL   31*FE11EndlessBattleREALxViPerZ_mvl/mxv
 BYTE   W01
 BYTE   VOL   31*FE11EndlessBattleREALxViPerZ_mvl/mxv
 BYTE   W01
 BYTE   VOL   31*FE11EndlessBattleREALxViPerZ_mvl/mxv
 BYTE   W01
 BYTE   VOL   32*FE11EndlessBattleREALxViPerZ_mvl/mxv
 BYTE   W01
 BYTE   VOL   32*FE11EndlessBattleREALxViPerZ_mvl/mxv
 BYTE   W01
 BYTE   VOL   33*FE11EndlessBattleREALxViPerZ_mvl/mxv
 BYTE   W01
 BYTE   VOL   33*FE11EndlessBattleREALxViPerZ_mvl/mxv
 BYTE   W01
 BYTE   VOL   34*FE11EndlessBattleREALxViPerZ_mvl/mxv
 BYTE   W01
 BYTE   VOL   35*FE11EndlessBattleREALxViPerZ_mvl/mxv
 BYTE   W07
 BYTE   VOL   35*FE11EndlessBattleREALxViPerZ_mvl/mxv
 BYTE   W02
 BYTE   VOL   36*FE11EndlessBattleREALxViPerZ_mvl/mxv
 BYTE   W01
 BYTE   VOL   36*FE11EndlessBattleREALxViPerZ_mvl/mxv
 BYTE   W02
 BYTE   VOL   37*FE11EndlessBattleREALxViPerZ_mvl/mxv
 BYTE   W01
 BYTE   VOL   38*FE11EndlessBattleREALxViPerZ_mvl/mxv
 BYTE   W02
 BYTE   VOL   37*FE11EndlessBattleREALxViPerZ_mvl/mxv
 BYTE   W01
 BYTE   VOL   36*FE11EndlessBattleREALxViPerZ_mvl/mxv
 BYTE   W02
 BYTE   VOL   34*FE11EndlessBattleREALxViPerZ_mvl/mxv
 BYTE   W10
 BYTE   N03  Cs4
 BYTE   W04
 BYTE   Cn4
 BYTE   W04
//  #05 //039   ----------------------------------------
 BYTE   N80  Bn3
 BYTE   W04
 BYTE   VOL   34*FE11EndlessBattleREALxViPerZ_mvl/mxv
 BYTE   W03
 BYTE   VOL   34*FE11EndlessBattleREALxViPerZ_mvl/mxv
 BYTE   W03
 BYTE   VOL   34*FE11EndlessBattleREALxViPerZ_mvl/mxv
 BYTE   W03
 BYTE   VOL   33*FE11EndlessBattleREALxViPerZ_mvl/mxv
 BYTE   W03
 BYTE   VOL   33*FE11EndlessBattleREALxViPerZ_mvl/mxv
 BYTE   W03
 BYTE   VOL   33*FE11EndlessBattleREALxViPerZ_mvl/mxv
 BYTE   W03
 BYTE   VOL   33*FE11EndlessBattleREALxViPerZ_mvl/mxv
 BYTE   W03
 BYTE   VOL   33*FE11EndlessBattleREALxViPerZ_mvl/mxv
 BYTE   W03
 BYTE   VOL   33*FE11EndlessBattleREALxViPerZ_mvl/mxv
 BYTE   W03
 BYTE   VOL   33*FE11EndlessBattleREALxViPerZ_mvl/mxv
 BYTE   W03
 BYTE   VOL   32*FE11EndlessBattleREALxViPerZ_mvl/mxv
 BYTE   W03
 BYTE   VOL   32*FE11EndlessBattleREALxViPerZ_mvl/mxv
 BYTE   W03
 BYTE   VOL   32*FE11EndlessBattleREALxViPerZ_mvl/mxv
 BYTE   W03
 BYTE   VOL   32*FE11EndlessBattleREALxViPerZ_mvl/mxv
 BYTE   W03
 BYTE   VOL   32*FE11EndlessBattleREALxViPerZ_mvl/mxv
 BYTE   W01
 BYTE   VOL   31*FE11EndlessBattleREALxViPerZ_mvl/mxv
 BYTE   W02
 BYTE   VOL   31*FE11EndlessBattleREALxViPerZ_mvl/mxv
 BYTE   W01
 BYTE   VOL   31*FE11EndlessBattleREALxViPerZ_mvl/mxv
 BYTE   W02
 BYTE   VOL   31*FE11EndlessBattleREALxViPerZ_mvl/mxv
 BYTE   W01
 BYTE   VOL   31*FE11EndlessBattleREALxViPerZ_mvl/mxv
 BYTE   W02
 BYTE   VOL   31*FE11EndlessBattleREALxViPerZ_mvl/mxv
 BYTE   W01
 BYTE   VOL   30*FE11EndlessBattleREALxViPerZ_mvl/mxv
 BYTE   W02
 BYTE   VOL   30*FE11EndlessBattleREALxViPerZ_mvl/mxv
 BYTE   W01
 BYTE   VOL   30*FE11EndlessBattleREALxViPerZ_mvl/mxv
 BYTE   W02
 BYTE   VOL   30*FE11EndlessBattleREALxViPerZ_mvl/mxv
 BYTE   W01
 BYTE   VOL   30*FE11EndlessBattleREALxViPerZ_mvl/mxv
 BYTE   W02
 BYTE   VOL   30*FE11EndlessBattleREALxViPerZ_mvl/mxv
 BYTE   W01
 BYTE   VOL   30*FE11EndlessBattleREALxViPerZ_mvl/mxv
 BYTE   W02
 BYTE   VOL   30*FE11EndlessBattleREALxViPerZ_mvl/mxv
 BYTE   W01
 BYTE   VOL   30*FE11EndlessBattleREALxViPerZ_mvl/mxv
 BYTE   W02
 BYTE   VOL   30*FE11EndlessBattleREALxViPerZ_mvl/mxv
 BYTE   W01
 BYTE   VOL   30*FE11EndlessBattleREALxViPerZ_mvl/mxv
 BYTE   W02
 BYTE   VOL   30*FE11EndlessBattleREALxViPerZ_mvl/mxv
 BYTE   W01
 BYTE   VOL   30*FE11EndlessBattleREALxViPerZ_mvl/mxv
 BYTE   W02
 BYTE   VOL   30*FE11EndlessBattleREALxViPerZ_mvl/mxv
 BYTE   W01
 BYTE   VOL   30*FE11EndlessBattleREALxViPerZ_mvl/mxv
 BYTE   W02
 BYTE   VOL   30*FE11EndlessBattleREALxViPerZ_mvl/mxv
 BYTE   W01
 BYTE   VOL   30*FE11EndlessBattleREALxViPerZ_mvl/mxv
 BYTE   W02
 BYTE   VOL   30*FE11EndlessBattleREALxViPerZ_mvl/mxv
 BYTE   W01
 BYTE   VOL   30*FE11EndlessBattleREALxViPerZ_mvl/mxv
 BYTE   W02
 BYTE   VOL   30*FE11EndlessBattleREALxViPerZ_mvl/mxv
 BYTE   W07
 BYTE   VOL   33*FE11EndlessBattleREALxViPerZ_mvl/mxv
 BYTE   W01
 BYTE   VOL   40*FE11EndlessBattleREALxViPerZ_mvl/mxv
 BYTE   W02
 BYTE   GoTo
  POIN2 Label_01C84473
 BYTE   FINE

//**************** Track 6 (Midi-Chn.5) ****************//

FE11EndlessBattleREALxViPerZ_006:
//  #06 //000   ----------------------------------------
 BYTE   KEYSH   FE11EndlessBattleREALxViPerZ_key+0
 BYTE   VOICE   79
 BYTE   MODT 0
 BYTE   LFOS 44
 BYTE   VOL   23*FE11EndlessBattleREALxViPerZ_mvl/mxv
 BYTE   PAN   c_v+17
 BYTE   BEND   c_v+0
 BYTE   W09
 BYTE   VOL   20*FE11EndlessBattleREALxViPerZ_mvl/mxv
 BYTE   W84
 BYTE   W03
//  #06 //001   ----------------------------------------
 BYTE   W96
//  #06 //002   ----------------------------------------
Label_01C84EA0:
 BYTE   VOL   20*FE11EndlessBattleREALxViPerZ_mvl/mxv
 BYTE   W09
 BYTE   N32  Ds4  v080
 BYTE   W02
 BYTE   VOL   22*FE11EndlessBattleREALxViPerZ_mvl/mxv
 BYTE   W01
 BYTE   VOL   22*FE11EndlessBattleREALxViPerZ_mvl/mxv
 BYTE   W01
 BYTE   VOL   21*FE11EndlessBattleREALxViPerZ_mvl/mxv
 BYTE   W01
 BYTE   VOL   20*FE11EndlessBattleREALxViPerZ_mvl/mxv
 BYTE   W01
 BYTE   VOL   20*FE11EndlessBattleREALxViPerZ_mvl/mxv
 BYTE   W01
 BYTE   VOL   20*FE11EndlessBattleREALxViPerZ_mvl/mxv
 BYTE   W10
 BYTE   VOL   20*FE11EndlessBattleREALxViPerZ_mvl/mxv
 BYTE   W01
 BYTE   VOL   20*FE11EndlessBattleREALxViPerZ_mvl/mxv
 BYTE   W02
 BYTE   VOL   20*FE11EndlessBattleREALxViPerZ_mvl/mxv
 BYTE   W01
 BYTE   VOL   21*FE11EndlessBattleREALxViPerZ_mvl/mxv
 BYTE   W02
 BYTE   VOL   21*FE11EndlessBattleREALxViPerZ_mvl/mxv
 BYTE   W01
 BYTE   VOL   22*FE11EndlessBattleREALxViPerZ_mvl/mxv
 BYTE   W02
 BYTE   VOL   22*FE11EndlessBattleREALxViPerZ_mvl/mxv
 BYTE   W01
 BYTE   VOL   22*FE11EndlessBattleREALxViPerZ_mvl/mxv
 BYTE   W02
 BYTE   VOL   23*FE11EndlessBattleREALxViPerZ_mvl/mxv
 BYTE   W01
 BYTE   VOL   23*FE11EndlessBattleREALxViPerZ_mvl/mxv
 BYTE   W01
 BYTE   VOL   23*FE11EndlessBattleREALxViPerZ_mvl/mxv
 BYTE   W02
 BYTE   VOL   22*FE11EndlessBattleREALxViPerZ_mvl/mxv
 BYTE   W01
 BYTE   VOL   22*FE11EndlessBattleREALxViPerZ_mvl/mxv
 BYTE   W01
 BYTE   VOL   22*FE11EndlessBattleREALxViPerZ_mvl/mxv
 BYTE   W01
 BYTE   N05  Fn4
 BYTE   W01
 BYTE   VOL   22*FE11EndlessBattleREALxViPerZ_mvl/mxv
 BYTE   W01
 BYTE   VOL   22*FE11EndlessBattleREALxViPerZ_mvl/mxv
 BYTE   W02
 BYTE   VOL   22*FE11EndlessBattleREALxViPerZ_mvl/mxv
 BYTE   W01
 BYTE   VOL   22*FE11EndlessBattleREALxViPerZ_mvl/mxv
 BYTE   W01
 BYTE   N05  Gn4
 BYTE   W01
 BYTE   VOL   22*FE11EndlessBattleREALxViPerZ_mvl/mxv
 BYTE   W01
 BYTE   VOL   22*FE11EndlessBattleREALxViPerZ_mvl/mxv
 BYTE   W02
 BYTE   VOL   23*FE11EndlessBattleREALxViPerZ_mvl/mxv
 BYTE   W01
 BYTE   VOL   23*FE11EndlessBattleREALxViPerZ_mvl/mxv
 BYTE   W01
 BYTE   N56  Cn5
 BYTE   W01
 BYTE   VOL   23*FE11EndlessBattleREALxViPerZ_mvl/mxv
 BYTE   W02
 BYTE   VOL   23*FE11EndlessBattleREALxViPerZ_mvl/mxv
 BYTE   W01
 BYTE   VOL   22*FE11EndlessBattleREALxViPerZ_mvl/mxv
 BYTE   W02
 BYTE   VOL   22*FE11EndlessBattleREALxViPerZ_mvl/mxv
 BYTE   W01
 BYTE   VOL   21*FE11EndlessBattleREALxViPerZ_mvl/mxv
 BYTE   W02
 BYTE   VOL   21*FE11EndlessBattleREALxViPerZ_mvl/mxv
 BYTE   W01
 BYTE   VOL   20*FE11EndlessBattleREALxViPerZ_mvl/mxv
 BYTE   W01
 BYTE   VOL   20*FE11EndlessBattleREALxViPerZ_mvl/mxv
 BYTE   W08
 BYTE   VOL   20*FE11EndlessBattleREALxViPerZ_mvl/mxv
 BYTE   W04
 BYTE   VOL   20*FE11EndlessBattleREALxViPerZ_mvl/mxv
 BYTE   W05
 BYTE   VOL   20*FE11EndlessBattleREALxViPerZ_mvl/mxv
 BYTE   W04
 BYTE   VOL   20*FE11EndlessBattleREALxViPerZ_mvl/mxv
 BYTE   W01
 BYTE   VOL   20*FE11EndlessBattleREALxViPerZ_mvl/mxv
 BYTE   W02
 BYTE   VOL   20*FE11EndlessBattleREALxViPerZ_mvl/mxv
 BYTE   W01
 BYTE   VOL   21*FE11EndlessBattleREALxViPerZ_mvl/mxv
 BYTE   W02
 BYTE   VOL   21*FE11EndlessBattleREALxViPerZ_mvl/mxv
 BYTE   W01
//  #06 //003   ----------------------------------------
 BYTE   VOL   21*FE11EndlessBattleREALxViPerZ_mvl/mxv
 BYTE   W02
 BYTE   VOL   21*FE11EndlessBattleREALxViPerZ_mvl/mxv
 BYTE   W01
 BYTE   VOL   22*FE11EndlessBattleREALxViPerZ_mvl/mxv
 BYTE   W02
 BYTE   VOL   22*FE11EndlessBattleREALxViPerZ_mvl/mxv
 BYTE   W01
 BYTE   VOL   22*FE11EndlessBattleREALxViPerZ_mvl/mxv
 BYTE   W02
 BYTE   VOL   22*FE11EndlessBattleREALxViPerZ_mvl/mxv
 BYTE   W01
 BYTE   VOL   22*FE11EndlessBattleREALxViPerZ_mvl/mxv
 BYTE   W02
 BYTE   VOL   23*FE11EndlessBattleREALxViPerZ_mvl/mxv
 BYTE   W01
 BYTE   VOL   23*FE11EndlessBattleREALxViPerZ_mvl/mxv
 BYTE   W15
 BYTE   N02  Cn5  v044
 BYTE   W03
 BYTE   Cs5
 BYTE   W03
 BYTE   N23  Dn5  v072
 BYTE   W02
 BYTE   VOL   23*FE11EndlessBattleREALxViPerZ_mvl/mxv
 BYTE   W01
 BYTE   VOL   22*FE11EndlessBattleREALxViPerZ_mvl/mxv
 BYTE   W01
 BYTE   VOL   22*FE11EndlessBattleREALxViPerZ_mvl/mxv
 BYTE   W01
 BYTE   VOL   22*FE11EndlessBattleREALxViPerZ_mvl/mxv
 BYTE   W01
 BYTE   VOL   22*FE11EndlessBattleREALxViPerZ_mvl/mxv
 BYTE   W01
 BYTE   VOL   21*FE11EndlessBattleREALxViPerZ_mvl/mxv
 BYTE   W01
 BYTE   VOL   21*FE11EndlessBattleREALxViPerZ_mvl/mxv
 BYTE   W01
 BYTE   VOL   20*FE11EndlessBattleREALxViPerZ_mvl/mxv
 BYTE   W02
 BYTE   VOL   21*FE11EndlessBattleREALxViPerZ_mvl/mxv
 BYTE   W01
 BYTE   VOL   21*FE11EndlessBattleREALxViPerZ_mvl/mxv
 BYTE   W02
 BYTE   VOL   21*FE11EndlessBattleREALxViPerZ_mvl/mxv
 BYTE   W01
 BYTE   VOL   22*FE11EndlessBattleREALxViPerZ_mvl/mxv
 BYTE   W02
 BYTE   VOL   22*FE11EndlessBattleREALxViPerZ_mvl/mxv
 BYTE   W01
 BYTE   VOL   22*FE11EndlessBattleREALxViPerZ_mvl/mxv
 BYTE   W02
 BYTE   VOL   22*FE11EndlessBattleREALxViPerZ_mvl/mxv
 BYTE   W01
 BYTE   VOL   22*FE11EndlessBattleREALxViPerZ_mvl/mxv
 BYTE   W02
 BYTE   VOL   23*FE11EndlessBattleREALxViPerZ_mvl/mxv
 BYTE   W01
 BYTE   VOL   23*FE11EndlessBattleREALxViPerZ_mvl/mxv
 BYTE   N23  As4  v080
 BYTE   W08
 BYTE   VOL   23*FE11EndlessBattleREALxViPerZ_mvl/mxv
 BYTE   W05
 BYTE   VOL   23*FE11EndlessBattleREALxViPerZ_mvl/mxv
 BYTE   W04
 BYTE   VOL   23*FE11EndlessBattleREALxViPerZ_mvl/mxv
 BYTE   W04
 BYTE   VOL   23*FE11EndlessBattleREALxViPerZ_mvl/mxv
 BYTE   W03
 BYTE   N23  Fn4
 BYTE   W01
 BYTE   VOL   23*FE11EndlessBattleREALxViPerZ_mvl/mxv
 BYTE   W04
 BYTE   VOL   22*FE11EndlessBattleREALxViPerZ_mvl/mxv
 BYTE   W03
 BYTE   VOL   22*FE11EndlessBattleREALxViPerZ_mvl/mxv
 BYTE   W03
 BYTE   VOL   22*FE11EndlessBattleREALxViPerZ_mvl/mxv
 BYTE   W03
 BYTE   VOL   22*FE11EndlessBattleREALxViPerZ_mvl/mxv
 BYTE   W01
//  #06 //004   ----------------------------------------
 BYTE   W02
 BYTE   VOL   22*FE11EndlessBattleREALxViPerZ_mvl/mxv
 BYTE   W03
 BYTE   VOL   22*FE11EndlessBattleREALxViPerZ_mvl/mxv
 BYTE   W03
 BYTE   VOL   21*FE11EndlessBattleREALxViPerZ_mvl/mxv
 BYTE   W01
 BYTE   VOL   21*FE11EndlessBattleREALxViPerZ_mvl/mxv
 BYTE   N17  Gn4
 BYTE   W06
 BYTE   VOL   21*FE11EndlessBattleREALxViPerZ_mvl/mxv
 BYTE   W06
 BYTE   VOL   21*FE11EndlessBattleREALxViPerZ_mvl/mxv
 BYTE   W06
 BYTE   N05  Fn4
 BYTE   W01
 BYTE   VOL   21*FE11EndlessBattleREALxViPerZ_mvl/mxv
 BYTE   W05
 BYTE   N92  Gn4
 BYTE   W01
 BYTE   VOL   22*FE11EndlessBattleREALxViPerZ_mvl/mxv
 BYTE   W01
 BYTE   VOL   21*FE11EndlessBattleREALxViPerZ_mvl/mxv
 BYTE   W01
 BYTE   VOL   20*FE11EndlessBattleREALxViPerZ_mvl/mxv
 BYTE   W01
 BYTE   VOL   20*FE11EndlessBattleREALxViPerZ_mvl/mxv
 BYTE   W01
 BYTE   VOL   20*FE11EndlessBattleREALxViPerZ_mvl/mxv
 BYTE   W01
 BYTE   VOL   20*FE11EndlessBattleREALxViPerZ_mvl/mxv
 BYTE   W03
 BYTE   VOL   20*FE11EndlessBattleREALxViPerZ_mvl/mxv
 BYTE   W03
 BYTE   VOL   20*FE11EndlessBattleREALxViPerZ_mvl/mxv
 BYTE   W03
 BYTE   VOL   20*FE11EndlessBattleREALxViPerZ_mvl/mxv
 BYTE   W03
 BYTE   VOL   20*FE11EndlessBattleREALxViPerZ_mvl/mxv
 BYTE   W01
 BYTE   VOL   20*FE11EndlessBattleREALxViPerZ_mvl/mxv
 BYTE   W01
 BYTE   VOL   20*FE11EndlessBattleREALxViPerZ_mvl/mxv
 BYTE   W02
 BYTE   VOL   20*FE11EndlessBattleREALxViPerZ_mvl/mxv
 BYTE   W01
 BYTE   VOL   21*FE11EndlessBattleREALxViPerZ_mvl/mxv
 BYTE   W02
 BYTE   VOL   21*FE11EndlessBattleREALxViPerZ_mvl/mxv
 BYTE   W01
 BYTE   VOL   22*FE11EndlessBattleREALxViPerZ_mvl/mxv
 BYTE   W02
 BYTE   VOL   22*FE11EndlessBattleREALxViPerZ_mvl/mxv
 BYTE   W01
 BYTE   VOL   22*FE11EndlessBattleREALxViPerZ_mvl/mxv
 BYTE   W02
 BYTE   VOL   22*FE11EndlessBattleREALxViPerZ_mvl/mxv
 BYTE   W01
 BYTE   VOL   23*FE11EndlessBattleREALxViPerZ_mvl/mxv
 BYTE   W03
 BYTE   VOL   23*FE11EndlessBattleREALxViPerZ_mvl/mxv
 BYTE   W03
 BYTE   VOL   22*FE11EndlessBattleREALxViPerZ_mvl/mxv
 BYTE   W03
 BYTE   VOL   22*FE11EndlessBattleREALxViPerZ_mvl/mxv
 BYTE   W03
 BYTE   VOL   22*FE11EndlessBattleREALxViPerZ_mvl/mxv
 BYTE   W03
 BYTE   VOL   22*FE11EndlessBattleREALxViPerZ_mvl/mxv
 BYTE   W03
 BYTE   VOL   22*FE11EndlessBattleREALxViPerZ_mvl/mxv
 BYTE   W03
 BYTE   VOL   22*FE11EndlessBattleREALxViPerZ_mvl/mxv
 BYTE   W03
 BYTE   VOL   21*FE11EndlessBattleREALxViPerZ_mvl/mxv
 BYTE   W03
 BYTE   VOL   21*FE11EndlessBattleREALxViPerZ_mvl/mxv
 BYTE   W01
 BYTE   VOL   21*FE11EndlessBattleREALxViPerZ_mvl/mxv
 BYTE   W02
 BYTE   VOL   21*FE11EndlessBattleREALxViPerZ_mvl/mxv
 BYTE   W01
//  #06 //005   ----------------------------------------
 BYTE   VOL   21*FE11EndlessBattleREALxViPerZ_mvl/mxv
 BYTE   W02
 BYTE   VOL   20*FE11EndlessBattleREALxViPerZ_mvl/mxv
 BYTE   W01
 BYTE   VOL   20*FE11EndlessBattleREALxViPerZ_mvl/mxv
 BYTE   W02
 BYTE   VOL   20*FE11EndlessBattleREALxViPerZ_mvl/mxv
 BYTE   W01
 BYTE   VOL   20*FE11EndlessBattleREALxViPerZ_mvl/mxv
 BYTE   W02
 BYTE   VOL   20*FE11EndlessBattleREALxViPerZ_mvl/mxv
 BYTE   W01
 BYTE   VOL   20*FE11EndlessBattleREALxViPerZ_mvl/mxv
 BYTE   W02
 BYTE   VOL   20*FE11EndlessBattleREALxViPerZ_mvl/mxv
 BYTE   W01
 BYTE   VOL   20*FE11EndlessBattleREALxViPerZ_mvl/mxv
 BYTE   W02
 BYTE   VOL   20*FE11EndlessBattleREALxViPerZ_mvl/mxv
 BYTE   W01
 BYTE   VOL   20*FE11EndlessBattleREALxViPerZ_mvl/mxv
 BYTE   W02
 BYTE   VOL   20*FE11EndlessBattleREALxViPerZ_mvl/mxv
 BYTE   W01
 BYTE   VOL   20*FE11EndlessBattleREALxViPerZ_mvl/mxv
 BYTE   W02
 BYTE   VOL   20*FE11EndlessBattleREALxViPerZ_mvl/mxv
 BYTE   W01
 BYTE   VOL   20*FE11EndlessBattleREALxViPerZ_mvl/mxv
 BYTE   W02
 BYTE   VOL   19*FE11EndlessBattleREALxViPerZ_mvl/mxv
 BYTE   W01
 BYTE   VOL   19*FE11EndlessBattleREALxViPerZ_mvl/mxv
 BYTE   W02
 BYTE   VOL   19*FE11EndlessBattleREALxViPerZ_mvl/mxv
 BYTE   W01
 BYTE   VOL   19*FE11EndlessBattleREALxViPerZ_mvl/mxv
 BYTE   W02
 BYTE   VOL   19*FE11EndlessBattleREALxViPerZ_mvl/mxv
 BYTE   W01
 BYTE   VOL   19*FE11EndlessBattleREALxViPerZ_mvl/mxv
 BYTE   W02
 BYTE   VOL   19*FE11EndlessBattleREALxViPerZ_mvl/mxv
 BYTE   W01
 BYTE   VOL   19*FE11EndlessBattleREALxViPerZ_mvl/mxv
 BYTE   W02
 BYTE   VOL   19*FE11EndlessBattleREALxViPerZ_mvl/mxv
 BYTE   W01
 BYTE   VOL   19*FE11EndlessBattleREALxViPerZ_mvl/mxv
 BYTE   W01
 BYTE   VOL   19*FE11EndlessBattleREALxViPerZ_mvl/mxv
 BYTE   W02
 BYTE   VOL   19*FE11EndlessBattleREALxViPerZ_mvl/mxv
 BYTE   W01
 BYTE   VOL   19*FE11EndlessBattleREALxViPerZ_mvl/mxv
 BYTE   W02
 BYTE   VOL   19*FE11EndlessBattleREALxViPerZ_mvl/mxv
 BYTE   W01
 BYTE   VOL   20*FE11EndlessBattleREALxViPerZ_mvl/mxv
 BYTE   W02
 BYTE   VOL   20*FE11EndlessBattleREALxViPerZ_mvl/mxv
 BYTE   W01
 BYTE   VOL   20*FE11EndlessBattleREALxViPerZ_mvl/mxv
 BYTE   W02
 BYTE   VOL   20*FE11EndlessBattleREALxViPerZ_mvl/mxv
 BYTE   W01
 BYTE   VOL   20*FE11EndlessBattleREALxViPerZ_mvl/mxv
 BYTE   W02
 BYTE   VOL   21*FE11EndlessBattleREALxViPerZ_mvl/mxv
 BYTE   N02  As4  v044
 BYTE   W01
 BYTE   VOL   21*FE11EndlessBattleREALxViPerZ_mvl/mxv
 BYTE   W02
 BYTE   VOL   22*FE11EndlessBattleREALxViPerZ_mvl/mxv
 BYTE   N02  Bn4
 BYTE   W01
 BYTE   VOL   22*FE11EndlessBattleREALxViPerZ_mvl/mxv
 BYTE   W02
 BYTE   VOL   22*FE11EndlessBattleREALxViPerZ_mvl/mxv
 BYTE   N23  Cn5  v080
 BYTE   W01
 BYTE   VOL   22*FE11EndlessBattleREALxViPerZ_mvl/mxv
 BYTE   W02
 BYTE   VOL   22*FE11EndlessBattleREALxViPerZ_mvl/mxv
 BYTE   W01
 BYTE   VOL   21*FE11EndlessBattleREALxViPerZ_mvl/mxv
 BYTE   W02
 BYTE   VOL   21*FE11EndlessBattleREALxViPerZ_mvl/mxv
 BYTE   W01
 BYTE   VOL   21*FE11EndlessBattleREALxViPerZ_mvl/mxv
 BYTE   W01
 BYTE   VOL   20*FE11EndlessBattleREALxViPerZ_mvl/mxv
 BYTE   W09
 BYTE   VOL   21*FE11EndlessBattleREALxViPerZ_mvl/mxv
 BYTE   W05
 BYTE   VOL   21*FE11EndlessBattleREALxViPerZ_mvl/mxv
 BYTE   W02
 BYTE   N23  As4
 BYTE   W03
 BYTE   VOL   21*FE11EndlessBattleREALxViPerZ_mvl/mxv
 BYTE   W04
 BYTE   VOL   21*FE11EndlessBattleREALxViPerZ_mvl/mxv
 BYTE   W02
 BYTE   VOL   21*FE11EndlessBattleREALxViPerZ_mvl/mxv
 BYTE   W01
 BYTE   VOL   21*FE11EndlessBattleREALxViPerZ_mvl/mxv
 BYTE   W02
 BYTE   VOL   21*FE11EndlessBattleREALxViPerZ_mvl/mxv
 BYTE   W01
 BYTE   VOL   22*FE11EndlessBattleREALxViPerZ_mvl/mxv
 BYTE   W02
//  #06 //006   ----------------------------------------
 BYTE   VOL   22*FE11EndlessBattleREALxViPerZ_mvl/mxv
 BYTE   W01
 BYTE   VOL   22*FE11EndlessBattleREALxViPerZ_mvl/mxv
 BYTE   W02
 BYTE   VOL   22*FE11EndlessBattleREALxViPerZ_mvl/mxv
 BYTE   W01
 BYTE   VOL   22*FE11EndlessBattleREALxViPerZ_mvl/mxv
 BYTE   W02
 BYTE   VOL   22*FE11EndlessBattleREALxViPerZ_mvl/mxv
 BYTE   W01
 BYTE   VOL   22*FE11EndlessBattleREALxViPerZ_mvl/mxv
 BYTE   W01
 BYTE   VOL   22*FE11EndlessBattleREALxViPerZ_mvl/mxv
 BYTE   W01
 BYTE   VOL   22*FE11EndlessBattleREALxViPerZ_mvl/mxv
 BYTE   N32  Gn4
 BYTE   W01
 BYTE   VOL   22*FE11EndlessBattleREALxViPerZ_mvl/mxv
 BYTE   W01
 BYTE   VOL   22*FE11EndlessBattleREALxViPerZ_mvl/mxv
 BYTE   W01
 BYTE   VOL   21*FE11EndlessBattleREALxViPerZ_mvl/mxv
 BYTE   W01
 BYTE   VOL   20*FE11EndlessBattleREALxViPerZ_mvl/mxv
 BYTE   W03
 BYTE   VOL   21*FE11EndlessBattleREALxViPerZ_mvl/mxv
 BYTE   W03
 BYTE   VOL   21*FE11EndlessBattleREALxViPerZ_mvl/mxv
 BYTE   W03
 BYTE   VOL   21*FE11EndlessBattleREALxViPerZ_mvl/mxv
 BYTE   W03
 BYTE   VOL   21*FE11EndlessBattleREALxViPerZ_mvl/mxv
 BYTE   W02
 BYTE   VOL   21*FE11EndlessBattleREALxViPerZ_mvl/mxv
 BYTE   W01
 BYTE   VOL   21*FE11EndlessBattleREALxViPerZ_mvl/mxv
 BYTE   W02
 BYTE   VOL   21*FE11EndlessBattleREALxViPerZ_mvl/mxv
 BYTE   W01
 BYTE   VOL   22*FE11EndlessBattleREALxViPerZ_mvl/mxv
 BYTE   W02
 BYTE   VOL   22*FE11EndlessBattleREALxViPerZ_mvl/mxv
 BYTE   W01
 BYTE   VOL   22*FE11EndlessBattleREALxViPerZ_mvl/mxv
 BYTE   W02
 BYTE   VOL   22*FE11EndlessBattleREALxViPerZ_mvl/mxv
 BYTE   W01
 BYTE   VOL   22*FE11EndlessBattleREALxViPerZ_mvl/mxv
 BYTE   W02
 BYTE   VOL   22*FE11EndlessBattleREALxViPerZ_mvl/mxv
 BYTE   W01
 BYTE   VOL   22*FE11EndlessBattleREALxViPerZ_mvl/mxv
 BYTE   W02
 BYTE   VOL   23*FE11EndlessBattleREALxViPerZ_mvl/mxv
 BYTE   W01
 BYTE   VOL   23*FE11EndlessBattleREALxViPerZ_mvl/mxv
 BYTE   W01
 BYTE   VOL   23*FE11EndlessBattleREALxViPerZ_mvl/mxv
 BYTE   W01
 BYTE   N05
 BYTE   W06
 BYTE   Gs4
 BYTE   W06
 BYTE   N44  Fn4
 BYTE   W02
 BYTE   VOL   23*FE11EndlessBattleREALxViPerZ_mvl/mxv
 BYTE   W03
 BYTE   VOL   23*FE11EndlessBattleREALxViPerZ_mvl/mxv
 BYTE   W03
 BYTE   VOL   23*FE11EndlessBattleREALxViPerZ_mvl/mxv
 BYTE   W03
 BYTE   VOL   23*FE11EndlessBattleREALxViPerZ_mvl/mxv
 BYTE   W03
 BYTE   VOL   22*FE11EndlessBattleREALxViPerZ_mvl/mxv
 BYTE   W03
 BYTE   VOL   22*FE11EndlessBattleREALxViPerZ_mvl/mxv
 BYTE   W03
 BYTE   VOL   22*FE11EndlessBattleREALxViPerZ_mvl/mxv
 BYTE   W03
 BYTE   VOL   22*FE11EndlessBattleREALxViPerZ_mvl/mxv
 BYTE   W01
 BYTE   VOL   22*FE11EndlessBattleREALxViPerZ_mvl/mxv
 BYTE   W01
 BYTE   VOL   22*FE11EndlessBattleREALxViPerZ_mvl/mxv
 BYTE   W02
 BYTE   VOL   22*FE11EndlessBattleREALxViPerZ_mvl/mxv
 BYTE   W01
 BYTE   VOL   22*FE11EndlessBattleREALxViPerZ_mvl/mxv
 BYTE   W02
 BYTE   VOL   21*FE11EndlessBattleREALxViPerZ_mvl/mxv
 BYTE   W01
 BYTE   VOL   21*FE11EndlessBattleREALxViPerZ_mvl/mxv
 BYTE   W02
 BYTE   VOL   21*FE11EndlessBattleREALxViPerZ_mvl/mxv
 BYTE   W01
 BYTE   VOL   20*FE11EndlessBattleREALxViPerZ_mvl/mxv
 BYTE   W02
 BYTE   VOL   20*FE11EndlessBattleREALxViPerZ_mvl/mxv
 BYTE   W01
 BYTE   VOL   20*FE11EndlessBattleREALxViPerZ_mvl/mxv
 BYTE   W02
//  #06 //007   ----------------------------------------
 BYTE   VOL   20*FE11EndlessBattleREALxViPerZ_mvl/mxv
 BYTE   W01
 BYTE   VOL   20*FE11EndlessBattleREALxViPerZ_mvl/mxv
 BYTE   W02
 BYTE   VOL   20*FE11EndlessBattleREALxViPerZ_mvl/mxv
 BYTE   W01
 BYTE   VOL   20*FE11EndlessBattleREALxViPerZ_mvl/mxv
 BYTE   W02
 BYTE   VOL   20*FE11EndlessBattleREALxViPerZ_mvl/mxv
 BYTE   W01
 BYTE   VOL   19*FE11EndlessBattleREALxViPerZ_mvl/mxv
 BYTE   W02
 BYTE   VOL   19*FE11EndlessBattleREALxViPerZ_mvl/mxv
 BYTE   W01
 BYTE   VOL   19*FE11EndlessBattleREALxViPerZ_mvl/mxv
 BYTE   W01
 BYTE   VOL   19*FE11EndlessBattleREALxViPerZ_mvl/mxv
 BYTE   W02
 BYTE   VOL   19*FE11EndlessBattleREALxViPerZ_mvl/mxv
 BYTE   W01
 BYTE   VOL   19*FE11EndlessBattleREALxViPerZ_mvl/mxv
 BYTE   W02
 BYTE   VOL   19*FE11EndlessBattleREALxViPerZ_mvl/mxv
 BYTE   W01
 BYTE   VOL   19*FE11EndlessBattleREALxViPerZ_mvl/mxv
 BYTE   W02
 BYTE   VOL   20*FE11EndlessBattleREALxViPerZ_mvl/mxv
 BYTE   W01
 BYTE   VOL   20*FE11EndlessBattleREALxViPerZ_mvl/mxv
 BYTE   W02
 BYTE   VOL   20*FE11EndlessBattleREALxViPerZ_mvl/mxv
 BYTE   W01
 BYTE   VOL   20*FE11EndlessBattleREALxViPerZ_mvl/mxv
 BYTE   W02
 BYTE   VOL   20*FE11EndlessBattleREALxViPerZ_mvl/mxv
 BYTE   W01
 BYTE   VOL   20*FE11EndlessBattleREALxViPerZ_mvl/mxv
 BYTE   W02
 BYTE   VOL   20*FE11EndlessBattleREALxViPerZ_mvl/mxv
 BYTE   W01
 BYTE   VOL   20*FE11EndlessBattleREALxViPerZ_mvl/mxv
 BYTE   W01
 BYTE   VOL   20*FE11EndlessBattleREALxViPerZ_mvl/mxv
 BYTE   W03
 BYTE   VOL   20*FE11EndlessBattleREALxViPerZ_mvl/mxv
 BYTE   N23  Gn4
 BYTE   W03
 BYTE   VOL   20*FE11EndlessBattleREALxViPerZ_mvl/mxv
 BYTE   W03
 BYTE   VOL   21*FE11EndlessBattleREALxViPerZ_mvl/mxv
 BYTE   W02
 BYTE   VOL   21*FE11EndlessBattleREALxViPerZ_mvl/mxv
 BYTE   W01
 BYTE   VOL   21*FE11EndlessBattleREALxViPerZ_mvl/mxv
 BYTE   W02
 BYTE   VOL   22*FE11EndlessBattleREALxViPerZ_mvl/mxv
 BYTE   W01
 BYTE   VOL   22*FE11EndlessBattleREALxViPerZ_mvl/mxv
 BYTE   W02
 BYTE   VOL   22*FE11EndlessBattleREALxViPerZ_mvl/mxv
 BYTE   W01
 BYTE   VOL   22*FE11EndlessBattleREALxViPerZ_mvl/mxv
 BYTE   W02
 BYTE   VOL   23*FE11EndlessBattleREALxViPerZ_mvl/mxv
 BYTE   W01
 BYTE   VOL   23*FE11EndlessBattleREALxViPerZ_mvl/mxv
 BYTE   W01
 BYTE   VOL   23*FE11EndlessBattleREALxViPerZ_mvl/mxv
 BYTE   W05
 BYTE   N17  Cn4
 BYTE   W02
 BYTE   VOL   23*FE11EndlessBattleREALxViPerZ_mvl/mxv
 BYTE   W01
 BYTE   VOL   23*FE11EndlessBattleREALxViPerZ_mvl/mxv
 BYTE   W02
 BYTE   VOL   22*FE11EndlessBattleREALxViPerZ_mvl/mxv
 BYTE   W01
 BYTE   VOL   22*FE11EndlessBattleREALxViPerZ_mvl/mxv
 BYTE   W02
 BYTE   VOL   22*FE11EndlessBattleREALxViPerZ_mvl/mxv
 BYTE   W01
 BYTE   VOL   22*FE11EndlessBattleREALxViPerZ_mvl/mxv
 BYTE   W06
 BYTE   VOL   22*FE11EndlessBattleREALxViPerZ_mvl/mxv
 BYTE   W03
 BYTE   VOL   22*FE11EndlessBattleREALxViPerZ_mvl/mxv
 BYTE   N17  Dn4
 BYTE   W03
 BYTE   VOL   22*FE11EndlessBattleREALxViPerZ_mvl/mxv
 BYTE   W03
 BYTE   VOL   22*FE11EndlessBattleREALxViPerZ_mvl/mxv
 BYTE   W03
 BYTE   VOL   22*FE11EndlessBattleREALxViPerZ_mvl/mxv
 BYTE   W03
 BYTE   VOL   22*FE11EndlessBattleREALxViPerZ_mvl/mxv
 BYTE   W03
 BYTE   VOL   22*FE11EndlessBattleREALxViPerZ_mvl/mxv
 BYTE   W03
 BYTE   VOL   22*FE11EndlessBattleREALxViPerZ_mvl/mxv
 BYTE   N11  Ds4
 BYTE   W03
//  #06 //008   ----------------------------------------
 BYTE   VOL   22*FE11EndlessBattleREALxViPerZ_mvl/mxv
 BYTE   W03
 BYTE   VOL   23*FE11EndlessBattleREALxViPerZ_mvl/mxv
 BYTE   W03
 BYTE   VOL   23*FE11EndlessBattleREALxViPerZ_mvl/mxv
 BYTE   W03
 BYTE   VOL   23*FE11EndlessBattleREALxViPerZ_mvl/mxv
 BYTE   N17  Gn4
 BYTE   W02
 BYTE   VOL   23*FE11EndlessBattleREALxViPerZ_mvl/mxv
 BYTE   W01
 BYTE   VOL   22*FE11EndlessBattleREALxViPerZ_mvl/mxv
 BYTE   W02
 BYTE   VOL   22*FE11EndlessBattleREALxViPerZ_mvl/mxv
 BYTE   W01
 BYTE   VOL   22*FE11EndlessBattleREALxViPerZ_mvl/mxv
 BYTE   W02
 BYTE   VOL   22*FE11EndlessBattleREALxViPerZ_mvl/mxv
 BYTE   W01
 BYTE   VOL   21*FE11EndlessBattleREALxViPerZ_mvl/mxv
 BYTE   W01
 BYTE   VOL   21*FE11EndlessBattleREALxViPerZ_mvl/mxv
 BYTE   W03
 BYTE   VOL   21*FE11EndlessBattleREALxViPerZ_mvl/mxv
 BYTE   W03
 BYTE   VOL   21*FE11EndlessBattleREALxViPerZ_mvl/mxv
 BYTE   W02
 BYTE   N05  Fn4
 BYTE   W01
 BYTE   VOL   22*FE11EndlessBattleREALxViPerZ_mvl/mxv
 BYTE   W02
 BYTE   VOL   22*FE11EndlessBattleREALxViPerZ_mvl/mxv
 BYTE   W01
 BYTE   VOL   22*FE11EndlessBattleREALxViPerZ_mvl/mxv
 BYTE   W02
 BYTE   VOL   22*FE11EndlessBattleREALxViPerZ_mvl/mxv
 BYTE   TIE  Gn4
 BYTE   W01
 BYTE   VOL   22*FE11EndlessBattleREALxViPerZ_mvl/mxv
 BYTE   W01
 BYTE   VOL   22*FE11EndlessBattleREALxViPerZ_mvl/mxv
 BYTE   W01
 BYTE   VOL   22*FE11EndlessBattleREALxViPerZ_mvl/mxv
 BYTE   W01
 BYTE   VOL   21*FE11EndlessBattleREALxViPerZ_mvl/mxv
 BYTE   W01
 BYTE   VOL   21*FE11EndlessBattleREALxViPerZ_mvl/mxv
 BYTE   W01
 BYTE   VOL   20*FE11EndlessBattleREALxViPerZ_mvl/mxv
 BYTE   W01
 BYTE   VOL   20*FE11EndlessBattleREALxViPerZ_mvl/mxv
 BYTE   W01
 BYTE   VOL   20*FE11EndlessBattleREALxViPerZ_mvl/mxv
 BYTE   W01
 BYTE   VOL   20*FE11EndlessBattleREALxViPerZ_mvl/mxv
 BYTE   W03
 BYTE   VOL   20*FE11EndlessBattleREALxViPerZ_mvl/mxv
 BYTE   W03
 BYTE   VOL   20*FE11EndlessBattleREALxViPerZ_mvl/mxv
 BYTE   W03
 BYTE   VOL   20*FE11EndlessBattleREALxViPerZ_mvl/mxv
 BYTE   W03
 BYTE   VOL   20*FE11EndlessBattleREALxViPerZ_mvl/mxv
 BYTE   W03
 BYTE   VOL   20*FE11EndlessBattleREALxViPerZ_mvl/mxv
 BYTE   W03
 BYTE   VOL   20*FE11EndlessBattleREALxViPerZ_mvl/mxv
 BYTE   W01
 BYTE   VOL   21*FE11EndlessBattleREALxViPerZ_mvl/mxv
 BYTE   W02
 BYTE   VOL   21*FE11EndlessBattleREALxViPerZ_mvl/mxv
 BYTE   W01
 BYTE   VOL   22*FE11EndlessBattleREALxViPerZ_mvl/mxv
 BYTE   W02
 BYTE   VOL   22*FE11EndlessBattleREALxViPerZ_mvl/mxv
 BYTE   W01
 BYTE   VOL   23*FE11EndlessBattleREALxViPerZ_mvl/mxv
 BYTE   W01
 BYTE   VOL   23*FE11EndlessBattleREALxViPerZ_mvl/mxv
 BYTE   W03
 BYTE   VOL   23*FE11EndlessBattleREALxViPerZ_mvl/mxv
 BYTE   W03
 BYTE   VOL   22*FE11EndlessBattleREALxViPerZ_mvl/mxv
 BYTE   W03
 BYTE   VOL   22*FE11EndlessBattleREALxViPerZ_mvl/mxv
 BYTE   W03
 BYTE   VOL   22*FE11EndlessBattleREALxViPerZ_mvl/mxv
 BYTE   W03
 BYTE   VOL   22*FE11EndlessBattleREALxViPerZ_mvl/mxv
 BYTE   W03
 BYTE   VOL   22*FE11EndlessBattleREALxViPerZ_mvl/mxv
 BYTE   W03
 BYTE   VOL   22*FE11EndlessBattleREALxViPerZ_mvl/mxv
 BYTE   W02
 BYTE   VOL   21*FE11EndlessBattleREALxViPerZ_mvl/mxv
 BYTE   W03
 BYTE   VOL   21*FE11EndlessBattleREALxViPerZ_mvl/mxv
 BYTE   W02
//  #06 //009   ----------------------------------------
 BYTE   W01
 BYTE   VOL   21*FE11EndlessBattleREALxViPerZ_mvl/mxv
 BYTE   W03
 BYTE   VOL   21*FE11EndlessBattleREALxViPerZ_mvl/mxv
 BYTE   W03
 BYTE   VOL   21*FE11EndlessBattleREALxViPerZ_mvl/mxv
 BYTE   W03
 BYTE   VOL   21*FE11EndlessBattleREALxViPerZ_mvl/mxv
 BYTE   W03
 BYTE   VOL   21*FE11EndlessBattleREALxViPerZ_mvl/mxv
 BYTE   W03
 BYTE   VOL   21*FE11EndlessBattleREALxViPerZ_mvl/mxv
 BYTE   W03
 BYTE   VOL   20*FE11EndlessBattleREALxViPerZ_mvl/mxv
 BYTE   W03
 BYTE   VOL   20*FE11EndlessBattleREALxViPerZ_mvl/mxv
 BYTE   W03
 BYTE   VOL   20*FE11EndlessBattleREALxViPerZ_mvl/mxv
 BYTE   W03
 BYTE   VOL   20*FE11EndlessBattleREALxViPerZ_mvl/mxv
 BYTE   W01
 BYTE   VOL   20*FE11EndlessBattleREALxViPerZ_mvl/mxv
 BYTE   W02
 BYTE   VOL   20*FE11EndlessBattleREALxViPerZ_mvl/mxv
 BYTE   W01
 BYTE   VOL   20*FE11EndlessBattleREALxViPerZ_mvl/mxv
 BYTE   W02
 BYTE   VOL   20*FE11EndlessBattleREALxViPerZ_mvl/mxv
 BYTE   W01
 BYTE   VOL   20*FE11EndlessBattleREALxViPerZ_mvl/mxv
 BYTE   W02
 BYTE   VOL   20*FE11EndlessBattleREALxViPerZ_mvl/mxv
 BYTE   W01
 BYTE   VOL   20*FE11EndlessBattleREALxViPerZ_mvl/mxv
 BYTE   W02
 BYTE   VOL   20*FE11EndlessBattleREALxViPerZ_mvl/mxv
 BYTE   W01
 BYTE   VOL   19*FE11EndlessBattleREALxViPerZ_mvl/mxv
 BYTE   W02
 BYTE   VOL   19*FE11EndlessBattleREALxViPerZ_mvl/mxv
 BYTE   W01
 BYTE   VOL   19*FE11EndlessBattleREALxViPerZ_mvl/mxv
 BYTE   W02
 BYTE   VOL   19*FE11EndlessBattleREALxViPerZ_mvl/mxv
 BYTE   W01
 BYTE   VOL   19*FE11EndlessBattleREALxViPerZ_mvl/mxv
 BYTE   W02
 BYTE   VOL   19*FE11EndlessBattleREALxViPerZ_mvl/mxv
 BYTE   W01
 BYTE   VOL   19*FE11EndlessBattleREALxViPerZ_mvl/mxv
 BYTE   W02
 BYTE   VOL   19*FE11EndlessBattleREALxViPerZ_mvl/mxv
 BYTE   W01
 BYTE   VOL   19*FE11EndlessBattleREALxViPerZ_mvl/mxv
 BYTE   W02
 BYTE   VOL   19*FE11EndlessBattleREALxViPerZ_mvl/mxv
 BYTE   W01
 BYTE   VOL   19*FE11EndlessBattleREALxViPerZ_mvl/mxv
 BYTE   W02
 BYTE   VOL   19*FE11EndlessBattleREALxViPerZ_mvl/mxv
 BYTE   W01
 BYTE   VOL   19*FE11EndlessBattleREALxViPerZ_mvl/mxv
 BYTE   W02
 BYTE   VOL   19*FE11EndlessBattleREALxViPerZ_mvl/mxv
 BYTE   W01
 BYTE   VOL   19*FE11EndlessBattleREALxViPerZ_mvl/mxv
 BYTE   W02
 BYTE   VOL   19*FE11EndlessBattleREALxViPerZ_mvl/mxv
 BYTE   W01
 BYTE   VOL   19*FE11EndlessBattleREALxViPerZ_mvl/mxv
 BYTE   W02
 BYTE   VOL   19*FE11EndlessBattleREALxViPerZ_mvl/mxv
 BYTE   W01
 BYTE   VOL   19*FE11EndlessBattleREALxViPerZ_mvl/mxv
 BYTE   W02
 BYTE   VOL   19*FE11EndlessBattleREALxViPerZ_mvl/mxv
 BYTE   W01
 BYTE   EOT
 BYTE   VOL   19*FE11EndlessBattleREALxViPerZ_mvl/mxv
 BYTE   W02
 BYTE   VOL   19*FE11EndlessBattleREALxViPerZ_mvl/mxv
 BYTE   W01
 BYTE   VOL   19*FE11EndlessBattleREALxViPerZ_mvl/mxv
 BYTE   W02
 BYTE   VOL   19*FE11EndlessBattleREALxViPerZ_mvl/mxv
 BYTE   W01
 BYTE   VOL   19*FE11EndlessBattleREALxViPerZ_mvl/mxv
 BYTE   W02
 BYTE   VOL   19*FE11EndlessBattleREALxViPerZ_mvl/mxv
 BYTE   W01
 BYTE   VOL   19*FE11EndlessBattleREALxViPerZ_mvl/mxv
 BYTE   W01
 BYTE   VOL   19*FE11EndlessBattleREALxViPerZ_mvl/mxv
 BYTE   W01
 BYTE   VOL   19*FE11EndlessBattleREALxViPerZ_mvl/mxv
 BYTE   W01
 BYTE   VOL   19*FE11EndlessBattleREALxViPerZ_mvl/mxv
 BYTE   W01
 BYTE   VOL   19*FE11EndlessBattleREALxViPerZ_mvl/mxv
 BYTE   W01
 BYTE   VOL   19*FE11EndlessBattleREALxViPerZ_mvl/mxv
 BYTE   W01
 BYTE   VOL   19*FE11EndlessBattleREALxViPerZ_mvl/mxv
 BYTE   W01
 BYTE   VOL   19*FE11EndlessBattleREALxViPerZ_mvl/mxv
 BYTE   W01
 BYTE   VOL   19*FE11EndlessBattleREALxViPerZ_mvl/mxv
 BYTE   W01
 BYTE   VOL   19*FE11EndlessBattleREALxViPerZ_mvl/mxv
 BYTE   W01
 BYTE   VOL   19*FE11EndlessBattleREALxViPerZ_mvl/mxv
 BYTE   W01
 BYTE   VOL   19*FE11EndlessBattleREALxViPerZ_mvl/mxv
 BYTE   W01
 BYTE   VOL   19*FE11EndlessBattleREALxViPerZ_mvl/mxv
 BYTE   W01
 BYTE   VOL   19*FE11EndlessBattleREALxViPerZ_mvl/mxv
 BYTE   W01
 BYTE   VOL   19*FE11EndlessBattleREALxViPerZ_mvl/mxv
 BYTE   W01
 BYTE   VOL   20*FE11EndlessBattleREALxViPerZ_mvl/mxv
 BYTE   W01
//  #06 //010   ----------------------------------------
 BYTE   VOL   20*FE11EndlessBattleREALxViPerZ_mvl/mxv
 BYTE   W01
 BYTE   VOL   20*FE11EndlessBattleREALxViPerZ_mvl/mxv
 BYTE   W01
 BYTE   VOL   20*FE11EndlessBattleREALxViPerZ_mvl/mxv
 BYTE   W01
 BYTE   VOL   20*FE11EndlessBattleREALxViPerZ_mvl/mxv
 BYTE   W01
 BYTE   VOL   20*FE11EndlessBattleREALxViPerZ_mvl/mxv
 BYTE   W01
 BYTE   VOL   21*FE11EndlessBattleREALxViPerZ_mvl/mxv
 BYTE   W01
 BYTE   VOL   21*FE11EndlessBattleREALxViPerZ_mvl/mxv
 BYTE   W01
 BYTE   VOL   22*FE11EndlessBattleREALxViPerZ_mvl/mxv
 BYTE   W01
 BYTE   VOL   22*FE11EndlessBattleREALxViPerZ_mvl/mxv
 BYTE   W01
 BYTE   VOL   23*FE11EndlessBattleREALxViPerZ_mvl/mxv
 BYTE   N32  Ds4
 BYTE   W01
 BYTE   VOL   22*FE11EndlessBattleREALxViPerZ_mvl/mxv
 BYTE   W01
 BYTE   VOL   21*FE11EndlessBattleREALxViPerZ_mvl/mxv
 BYTE   W01
 BYTE   VOL   21*FE11EndlessBattleREALxViPerZ_mvl/mxv
 BYTE   W01
 BYTE   VOL   20*FE11EndlessBattleREALxViPerZ_mvl/mxv
 BYTE   W01
 BYTE   VOL   20*FE11EndlessBattleREALxViPerZ_mvl/mxv
 BYTE   W09
 BYTE   VOL   20*FE11EndlessBattleREALxViPerZ_mvl/mxv
 BYTE   W08
 BYTE   VOL   20*FE11EndlessBattleREALxViPerZ_mvl/mxv
 BYTE   W02
 BYTE   VOL   20*FE11EndlessBattleREALxViPerZ_mvl/mxv
 BYTE   W01
 BYTE   VOL   20*FE11EndlessBattleREALxViPerZ_mvl/mxv
 BYTE   W02
 BYTE   VOL   21*FE11EndlessBattleREALxViPerZ_mvl/mxv
 BYTE   W01
 BYTE   VOL   21*FE11EndlessBattleREALxViPerZ_mvl/mxv
 BYTE   W02
 BYTE   VOL   22*FE11EndlessBattleREALxViPerZ_mvl/mxv
 BYTE   W01
 BYTE   VOL   22*FE11EndlessBattleREALxViPerZ_mvl/mxv
 BYTE   W02
 BYTE   VOL   22*FE11EndlessBattleREALxViPerZ_mvl/mxv
 BYTE   W01
 BYTE   VOL   23*FE11EndlessBattleREALxViPerZ_mvl/mxv
 BYTE   W02
 BYTE   N05  Fn4
 BYTE   W01
 BYTE   VOL   23*FE11EndlessBattleREALxViPerZ_mvl/mxv
 BYTE   W03
 BYTE   VOL   23*FE11EndlessBattleREALxViPerZ_mvl/mxv
 BYTE   W02
 BYTE   N05  Gn4
 BYTE   W01
 BYTE   VOL   23*FE11EndlessBattleREALxViPerZ_mvl/mxv
 BYTE   W03
 BYTE   VOL   23*FE11EndlessBattleREALxViPerZ_mvl/mxv
 BYTE   W02
 BYTE   VOL   22*FE11EndlessBattleREALxViPerZ_mvl/mxv
 BYTE   N56  Cn5
 BYTE   W01
 BYTE   VOL   22*FE11EndlessBattleREALxViPerZ_mvl/mxv
 BYTE   W01
 BYTE   VOL   22*FE11EndlessBattleREALxViPerZ_mvl/mxv
 BYTE   W01
 BYTE   VOL   21*FE11EndlessBattleREALxViPerZ_mvl/mxv
 BYTE   W01
 BYTE   VOL   21*FE11EndlessBattleREALxViPerZ_mvl/mxv
 BYTE   W01
 BYTE   VOL   20*FE11EndlessBattleREALxViPerZ_mvl/mxv
 BYTE   W03
 BYTE   VOL   20*FE11EndlessBattleREALxViPerZ_mvl/mxv
 BYTE   W03
 BYTE   VOL   21*FE11EndlessBattleREALxViPerZ_mvl/mxv
 BYTE   W03
 BYTE   VOL   21*FE11EndlessBattleREALxViPerZ_mvl/mxv
 BYTE   W02
 BYTE   VOL   21*FE11EndlessBattleREALxViPerZ_mvl/mxv
 BYTE   W01
 BYTE   VOL   21*FE11EndlessBattleREALxViPerZ_mvl/mxv
 BYTE   W02
 BYTE   VOL   22*FE11EndlessBattleREALxViPerZ_mvl/mxv
 BYTE   W01
 BYTE   VOL   22*FE11EndlessBattleREALxViPerZ_mvl/mxv
 BYTE   W02
 BYTE   VOL   22*FE11EndlessBattleREALxViPerZ_mvl/mxv
 BYTE   W01
 BYTE   VOL   23*FE11EndlessBattleREALxViPerZ_mvl/mxv
 BYTE   W02
 BYTE   VOL   23*FE11EndlessBattleREALxViPerZ_mvl/mxv
 BYTE   W01
 BYTE   VOL   23*FE11EndlessBattleREALxViPerZ_mvl/mxv
 BYTE   W02
 BYTE   VOL   22*FE11EndlessBattleREALxViPerZ_mvl/mxv
 BYTE   W01
 BYTE   VOL   22*FE11EndlessBattleREALxViPerZ_mvl/mxv
 BYTE   W02
 BYTE   VOL   22*FE11EndlessBattleREALxViPerZ_mvl/mxv
 BYTE   W01
 BYTE   VOL   22*FE11EndlessBattleREALxViPerZ_mvl/mxv
 BYTE   W02
 BYTE   VOL   21*FE11EndlessBattleREALxViPerZ_mvl/mxv
 BYTE   W02
 BYTE   VOL   21*FE11EndlessBattleREALxViPerZ_mvl/mxv
 BYTE   W01
 BYTE   VOL   21*FE11EndlessBattleREALxViPerZ_mvl/mxv
 BYTE   W02
//  #06 //011   ----------------------------------------
 BYTE   VOL   20*FE11EndlessBattleREALxViPerZ_mvl/mxv
 BYTE   W01
 BYTE   VOL   20*FE11EndlessBattleREALxViPerZ_mvl/mxv
 BYTE   W02
 BYTE   VOL   20*FE11EndlessBattleREALxViPerZ_mvl/mxv
 BYTE   W01
 BYTE   VOL   20*FE11EndlessBattleREALxViPerZ_mvl/mxv
 BYTE   W02
 BYTE   VOL   20*FE11EndlessBattleREALxViPerZ_mvl/mxv
 BYTE   W01
 BYTE   VOL   20*FE11EndlessBattleREALxViPerZ_mvl/mxv
 BYTE   W01
 BYTE   VOL   20*FE11EndlessBattleREALxViPerZ_mvl/mxv
 BYTE   W01
 BYTE   VOL   20*FE11EndlessBattleREALxViPerZ_mvl/mxv
 BYTE   W02
 BYTE   VOL   20*FE11EndlessBattleREALxViPerZ_mvl/mxv
 BYTE   W01
 BYTE   VOL   20*FE11EndlessBattleREALxViPerZ_mvl/mxv
 BYTE   W02
 BYTE   VOL   20*FE11EndlessBattleREALxViPerZ_mvl/mxv
 BYTE   W01
 BYTE   VOL   20*FE11EndlessBattleREALxViPerZ_mvl/mxv
 BYTE   W02
 BYTE   VOL   21*FE11EndlessBattleREALxViPerZ_mvl/mxv
 BYTE   W01
 BYTE   VOL   21*FE11EndlessBattleREALxViPerZ_mvl/mxv
 BYTE   W01
 BYTE   VOL   21*FE11EndlessBattleREALxViPerZ_mvl/mxv
 BYTE   W02
 BYTE   VOL   21*FE11EndlessBattleREALxViPerZ_mvl/mxv
 BYTE   W01
 BYTE   VOL   22*FE11EndlessBattleREALxViPerZ_mvl/mxv
 BYTE   W02
 BYTE   VOL   22*FE11EndlessBattleREALxViPerZ_mvl/mxv
 BYTE   W09
 BYTE   N23
 BYTE   W01
 BYTE   VOL   22*FE11EndlessBattleREALxViPerZ_mvl/mxv
 BYTE   W01
 BYTE   VOL   22*FE11EndlessBattleREALxViPerZ_mvl/mxv
 BYTE   W02
 BYTE   VOL   21*FE11EndlessBattleREALxViPerZ_mvl/mxv
 BYTE   W01
 BYTE   VOL   21*FE11EndlessBattleREALxViPerZ_mvl/mxv
 BYTE   W02
 BYTE   VOL   20*FE11EndlessBattleREALxViPerZ_mvl/mxv
 BYTE   W01
 BYTE   VOL   20*FE11EndlessBattleREALxViPerZ_mvl/mxv
 BYTE   W01
 BYTE   VOL   20*FE11EndlessBattleREALxViPerZ_mvl/mxv
 BYTE   W02
 BYTE   VOL   20*FE11EndlessBattleREALxViPerZ_mvl/mxv
 BYTE   W01
 BYTE   VOL   20*FE11EndlessBattleREALxViPerZ_mvl/mxv
 BYTE   W02
 BYTE   VOL   20*FE11EndlessBattleREALxViPerZ_mvl/mxv
 BYTE   W01
 BYTE   VOL   20*FE11EndlessBattleREALxViPerZ_mvl/mxv
 BYTE   W02
 BYTE   VOL   20*FE11EndlessBattleREALxViPerZ_mvl/mxv
 BYTE   W01
 BYTE   VOL   21*FE11EndlessBattleREALxViPerZ_mvl/mxv
 BYTE   W02
 BYTE   VOL   21*FE11EndlessBattleREALxViPerZ_mvl/mxv
 BYTE   W01
 BYTE   VOL   21*FE11EndlessBattleREALxViPerZ_mvl/mxv
 BYTE   W02
 BYTE   VOL   21*FE11EndlessBattleREALxViPerZ_mvl/mxv
 BYTE   W01
 BYTE   VOL   21*FE11EndlessBattleREALxViPerZ_mvl/mxv
 BYTE   N17  Dn5  v072
 BYTE   W02
 BYTE   VOL   21*FE11EndlessBattleREALxViPerZ_mvl/mxv
 BYTE   W01
 BYTE   VOL   22*FE11EndlessBattleREALxViPerZ_mvl/mxv
 BYTE   W13
 BYTE   VOL   22*FE11EndlessBattleREALxViPerZ_mvl/mxv
 BYTE   W02
 BYTE   N17  Ds5  v056
 BYTE   W10
 BYTE   VOL   22*FE11EndlessBattleREALxViPerZ_mvl/mxv
 BYTE   W03
 BYTE   VOL   22*FE11EndlessBattleREALxViPerZ_mvl/mxv
 BYTE   W03
 BYTE   VOL   22*FE11EndlessBattleREALxViPerZ_mvl/mxv
 BYTE   W02
 BYTE   N11  Fn5  v048
 BYTE   W01
 BYTE   VOL   22*FE11EndlessBattleREALxViPerZ_mvl/mxv
 BYTE   W02
//  #06 //012   ----------------------------------------
 BYTE   W01
 BYTE   VOL   22*FE11EndlessBattleREALxViPerZ_mvl/mxv
 BYTE   W03
 BYTE   VOL   22*FE11EndlessBattleREALxViPerZ_mvl/mxv
 BYTE   W03
 BYTE   VOL   22*FE11EndlessBattleREALxViPerZ_mvl/mxv
 BYTE   W02
 BYTE   VOL   23*FE11EndlessBattleREALxViPerZ_mvl/mxv
 BYTE   N40  Gn5  v032
 BYTE   W02
 BYTE   VOL   22*FE11EndlessBattleREALxViPerZ_mvl/mxv
 BYTE   W01
 BYTE   VOL   22*FE11EndlessBattleREALxViPerZ_mvl/mxv
 BYTE   W02
 BYTE   VOL   22*FE11EndlessBattleREALxViPerZ_mvl/mxv
 BYTE   W01
 BYTE   VOL   22*FE11EndlessBattleREALxViPerZ_mvl/mxv
 BYTE   W02
 BYTE   VOL   22*FE11EndlessBattleREALxViPerZ_mvl/mxv
 BYTE   W01
 BYTE   VOL   21*FE11EndlessBattleREALxViPerZ_mvl/mxv
 BYTE   W02
 BYTE   VOL   21*FE11EndlessBattleREALxViPerZ_mvl/mxv
 BYTE   W01
 BYTE   VOL   21*FE11EndlessBattleREALxViPerZ_mvl/mxv
 BYTE   W02
 BYTE   VOL   20*FE11EndlessBattleREALxViPerZ_mvl/mxv
 BYTE   W01
 BYTE   VOL   20*FE11EndlessBattleREALxViPerZ_mvl/mxv
 BYTE   W01
 BYTE   VOL   20*FE11EndlessBattleREALxViPerZ_mvl/mxv
 BYTE   W03
 BYTE   VOL   20*FE11EndlessBattleREALxViPerZ_mvl/mxv
 BYTE   W03
 BYTE   VOL   20*FE11EndlessBattleREALxViPerZ_mvl/mxv
 BYTE   W03
 BYTE   VOL   20*FE11EndlessBattleREALxViPerZ_mvl/mxv
 BYTE   W03
 BYTE   VOL   20*FE11EndlessBattleREALxViPerZ_mvl/mxv
 BYTE   W03
 BYTE   VOL   20*FE11EndlessBattleREALxViPerZ_mvl/mxv
 BYTE   W03
 BYTE   VOL   21*FE11EndlessBattleREALxViPerZ_mvl/mxv
 BYTE   W02
 BYTE   VOL   21*FE11EndlessBattleREALxViPerZ_mvl/mxv
 BYTE   W01
 BYTE   VOL   22*FE11EndlessBattleREALxViPerZ_mvl/mxv
 BYTE   W02
 BYTE   VOL   22*FE11EndlessBattleREALxViPerZ_mvl/mxv
 BYTE   W01
 BYTE   VOL   22*FE11EndlessBattleREALxViPerZ_mvl/mxv
 BYTE   W01
 BYTE   VOL   23*FE11EndlessBattleREALxViPerZ_mvl/mxv
 BYTE   W01
 BYTE   N05  Fn5  v048
 BYTE   W06
 BYTE   N44  Cn5  v080
 BYTE   W06
 BYTE   VOL   23*FE11EndlessBattleREALxViPerZ_mvl/mxv
 BYTE   W02
 BYTE   VOL   22*FE11EndlessBattleREALxViPerZ_mvl/mxv
 BYTE   W01
 BYTE   VOL   22*FE11EndlessBattleREALxViPerZ_mvl/mxv
 BYTE   W02
 BYTE   VOL   22*FE11EndlessBattleREALxViPerZ_mvl/mxv
 BYTE   W01
 BYTE   VOL   22*FE11EndlessBattleREALxViPerZ_mvl/mxv
 BYTE   W02
 BYTE   VOL   22*FE11EndlessBattleREALxViPerZ_mvl/mxv
 BYTE   W01
 BYTE   VOL   21*FE11EndlessBattleREALxViPerZ_mvl/mxv
 BYTE   W01
 BYTE   VOL   21*FE11EndlessBattleREALxViPerZ_mvl/mxv
 BYTE   W08
 BYTE   VOL   21*FE11EndlessBattleREALxViPerZ_mvl/mxv
 BYTE   W08
 BYTE   VOL   21*FE11EndlessBattleREALxViPerZ_mvl/mxv
 BYTE   W07
//  #06 //013   ----------------------------------------
 BYTE   W01
 BYTE   VOL   21*FE11EndlessBattleREALxViPerZ_mvl/mxv
 BYTE   W08
 BYTE   VOL   21*FE11EndlessBattleREALxViPerZ_mvl/mxv
 BYTE   W02
 BYTE   VOL   21*FE11EndlessBattleREALxViPerZ_mvl/mxv
 BYTE   W01
 BYTE   VOL   20*FE11EndlessBattleREALxViPerZ_mvl/mxv
 BYTE   W01
 BYTE   VOL   20*FE11EndlessBattleREALxViPerZ_mvl/mxv
 BYTE   W03
 BYTE   VOL   20*FE11EndlessBattleREALxViPerZ_mvl/mxv
 BYTE   W03
 BYTE   VOL   20*FE11EndlessBattleREALxViPerZ_mvl/mxv
 BYTE   W03
 BYTE   VOL   20*FE11EndlessBattleREALxViPerZ_mvl/mxv
 BYTE   W03
 BYTE   VOL   20*FE11EndlessBattleREALxViPerZ_mvl/mxv
 BYTE   W03
 BYTE   VOL   20*FE11EndlessBattleREALxViPerZ_mvl/mxv
 BYTE   W03
 BYTE   VOL   20*FE11EndlessBattleREALxViPerZ_mvl/mxv
 BYTE   W02
 BYTE   VOL   20*FE11EndlessBattleREALxViPerZ_mvl/mxv
 BYTE   N23  Gn4
 BYTE   W02
 BYTE   VOL   20*FE11EndlessBattleREALxViPerZ_mvl/mxv
 BYTE   W01
 BYTE   VOL   20*FE11EndlessBattleREALxViPerZ_mvl/mxv
 BYTE   W02
 BYTE   VOL   20*FE11EndlessBattleREALxViPerZ_mvl/mxv
 BYTE   W01
 BYTE   VOL   20*FE11EndlessBattleREALxViPerZ_mvl/mxv
 BYTE   W02
 BYTE   VOL   20*FE11EndlessBattleREALxViPerZ_mvl/mxv
 BYTE   W01
 BYTE   VOL   20*FE11EndlessBattleREALxViPerZ_mvl/mxv
 BYTE   W02
 BYTE   VOL   21*FE11EndlessBattleREALxViPerZ_mvl/mxv
 BYTE   W01
 BYTE   VOL   21*FE11EndlessBattleREALxViPerZ_mvl/mxv
 BYTE   W02
 BYTE   VOL   21*FE11EndlessBattleREALxViPerZ_mvl/mxv
 BYTE   W01
 BYTE   VOL   21*FE11EndlessBattleREALxViPerZ_mvl/mxv
 BYTE   W02
 BYTE   VOL   22*FE11EndlessBattleREALxViPerZ_mvl/mxv
 BYTE   W01
 BYTE   VOL   22*FE11EndlessBattleREALxViPerZ_mvl/mxv
 BYTE   W02
 BYTE   VOL   22*FE11EndlessBattleREALxViPerZ_mvl/mxv
 BYTE   W01
 BYTE   VOL   22*FE11EndlessBattleREALxViPerZ_mvl/mxv
 BYTE   W02
 BYTE   VOL   22*FE11EndlessBattleREALxViPerZ_mvl/mxv
 BYTE   W01
 BYTE   VOL   22*FE11EndlessBattleREALxViPerZ_mvl/mxv
 BYTE   N23  Ds5  v056
 BYTE   W02
 BYTE   VOL   22*FE11EndlessBattleREALxViPerZ_mvl/mxv
 BYTE   W01
 BYTE   VOL   22*FE11EndlessBattleREALxViPerZ_mvl/mxv
 BYTE   W02
 BYTE   VOL   22*FE11EndlessBattleREALxViPerZ_mvl/mxv
 BYTE   W01
 BYTE   VOL   21*FE11EndlessBattleREALxViPerZ_mvl/mxv
 BYTE   W02
 BYTE   VOL   21*FE11EndlessBattleREALxViPerZ_mvl/mxv
 BYTE   W03
 BYTE   VOL   21*FE11EndlessBattleREALxViPerZ_mvl/mxv
 BYTE   W03
 BYTE   VOL   21*FE11EndlessBattleREALxViPerZ_mvl/mxv
 BYTE   W03
 BYTE   VOL   21*FE11EndlessBattleREALxViPerZ_mvl/mxv
 BYTE   W03
 BYTE   VOL   20*FE11EndlessBattleREALxViPerZ_mvl/mxv
 BYTE   W03
 BYTE   VOL   20*FE11EndlessBattleREALxViPerZ_mvl/mxv
 BYTE   W01
 BYTE   N23  Dn5  v072
 BYTE   W07
 BYTE   VOL   20*FE11EndlessBattleREALxViPerZ_mvl/mxv
 BYTE   W08
//  #06 //014   ----------------------------------------
 BYTE   W01
 BYTE   VOL   20*FE11EndlessBattleREALxViPerZ_mvl/mxv
 BYTE   W01
 BYTE   VOL   21*FE11EndlessBattleREALxViPerZ_mvl/mxv
 BYTE   W02
 BYTE   VOL   21*FE11EndlessBattleREALxViPerZ_mvl/mxv
 BYTE   W01
 BYTE   VOL   21*FE11EndlessBattleREALxViPerZ_mvl/mxv
 BYTE   W02
 BYTE   VOL   21*FE11EndlessBattleREALxViPerZ_mvl/mxv
 BYTE   W01
 BYTE   VOL   22*FE11EndlessBattleREALxViPerZ_mvl/mxv
 BYTE   W01
 BYTE   N40  Cn5  v080
 BYTE   W01
 BYTE   VOL   22*FE11EndlessBattleREALxViPerZ_mvl/mxv
 BYTE   W01
 BYTE   VOL   22*FE11EndlessBattleREALxViPerZ_mvl/mxv
 BYTE   W02
 BYTE   VOL   21*FE11EndlessBattleREALxViPerZ_mvl/mxv
 BYTE   W01
 BYTE   VOL   21*FE11EndlessBattleREALxViPerZ_mvl/mxv
 BYTE   W02
 BYTE   VOL   20*FE11EndlessBattleREALxViPerZ_mvl/mxv
 BYTE   W01
 BYTE   VOL   20*FE11EndlessBattleREALxViPerZ_mvl/mxv
 BYTE   W03
 BYTE   VOL   20*FE11EndlessBattleREALxViPerZ_mvl/mxv
 BYTE   W03
 BYTE   VOL   20*FE11EndlessBattleREALxViPerZ_mvl/mxv
 BYTE   W03
 BYTE   VOL   20*FE11EndlessBattleREALxViPerZ_mvl/mxv
 BYTE   W03
 BYTE   VOL   20*FE11EndlessBattleREALxViPerZ_mvl/mxv
 BYTE   W03
 BYTE   VOL   20*FE11EndlessBattleREALxViPerZ_mvl/mxv
 BYTE   W03
 BYTE   VOL   20*FE11EndlessBattleREALxViPerZ_mvl/mxv
 BYTE   W02
 BYTE   VOL   20*FE11EndlessBattleREALxViPerZ_mvl/mxv
 BYTE   W01
 BYTE   VOL   21*FE11EndlessBattleREALxViPerZ_mvl/mxv
 BYTE   W02
 BYTE   VOL   21*FE11EndlessBattleREALxViPerZ_mvl/mxv
 BYTE   W01
 BYTE   VOL   21*FE11EndlessBattleREALxViPerZ_mvl/mxv
 BYTE   W02
 BYTE   VOL   22*FE11EndlessBattleREALxViPerZ_mvl/mxv
 BYTE   W01
 BYTE   VOL   22*FE11EndlessBattleREALxViPerZ_mvl/mxv
 BYTE   W02
 BYTE   VOL   22*FE11EndlessBattleREALxViPerZ_mvl/mxv
 BYTE   W01
 BYTE   VOL   22*FE11EndlessBattleREALxViPerZ_mvl/mxv
 BYTE   W02
 BYTE   VOL   23*FE11EndlessBattleREALxViPerZ_mvl/mxv
 BYTE   W02
 BYTE   N05  As4
 BYTE   W06
 BYTE   N44  Fn4
 BYTE   W08
 BYTE   VOL   23*FE11EndlessBattleREALxViPerZ_mvl/mxv
 BYTE   W03
 BYTE   VOL   22*FE11EndlessBattleREALxViPerZ_mvl/mxv
 BYTE   W03
 BYTE   VOL   22*FE11EndlessBattleREALxViPerZ_mvl/mxv
 BYTE   W03
 BYTE   VOL   22*FE11EndlessBattleREALxViPerZ_mvl/mxv
 BYTE   W03
 BYTE   VOL   22*FE11EndlessBattleREALxViPerZ_mvl/mxv
 BYTE   W03
 BYTE   VOL   22*FE11EndlessBattleREALxViPerZ_mvl/mxv
 BYTE   W01
 BYTE   VOL   22*FE11EndlessBattleREALxViPerZ_mvl/mxv
 BYTE   W02
 BYTE   VOL   22*FE11EndlessBattleREALxViPerZ_mvl/mxv
 BYTE   W01
 BYTE   VOL   22*FE11EndlessBattleREALxViPerZ_mvl/mxv
 BYTE   W02
 BYTE   VOL   22*FE11EndlessBattleREALxViPerZ_mvl/mxv
 BYTE   W01
 BYTE   VOL   21*FE11EndlessBattleREALxViPerZ_mvl/mxv
 BYTE   W02
 BYTE   VOL   21*FE11EndlessBattleREALxViPerZ_mvl/mxv
 BYTE   W01
 BYTE   VOL   21*FE11EndlessBattleREALxViPerZ_mvl/mxv
 BYTE   W02
 BYTE   VOL   21*FE11EndlessBattleREALxViPerZ_mvl/mxv
 BYTE   W01
 BYTE   VOL   21*FE11EndlessBattleREALxViPerZ_mvl/mxv
 BYTE   W02
 BYTE   VOL   21*FE11EndlessBattleREALxViPerZ_mvl/mxv
 BYTE   W01
//  #06 //015   ----------------------------------------
 BYTE   VOL   20*FE11EndlessBattleREALxViPerZ_mvl/mxv
 BYTE   W02
 BYTE   VOL   20*FE11EndlessBattleREALxViPerZ_mvl/mxv
 BYTE   W01
 BYTE   VOL   20*FE11EndlessBattleREALxViPerZ_mvl/mxv
 BYTE   W02
 BYTE   VOL   20*FE11EndlessBattleREALxViPerZ_mvl/mxv
 BYTE   W01
 BYTE   VOL   20*FE11EndlessBattleREALxViPerZ_mvl/mxv
 BYTE   W02
 BYTE   VOL   20*FE11EndlessBattleREALxViPerZ_mvl/mxv
 BYTE   W01
 BYTE   VOL   20*FE11EndlessBattleREALxViPerZ_mvl/mxv
 BYTE   W02
 BYTE   VOL   20*FE11EndlessBattleREALxViPerZ_mvl/mxv
 BYTE   W01
 BYTE   VOL   20*FE11EndlessBattleREALxViPerZ_mvl/mxv
 BYTE   W02
 BYTE   VOL   20*FE11EndlessBattleREALxViPerZ_mvl/mxv
 BYTE   W03
 BYTE   VOL   20*FE11EndlessBattleREALxViPerZ_mvl/mxv
 BYTE   W03
 BYTE   VOL   20*FE11EndlessBattleREALxViPerZ_mvl/mxv
 BYTE   W03
 BYTE   VOL   20*FE11EndlessBattleREALxViPerZ_mvl/mxv
 BYTE   W03
 BYTE   VOL   20*FE11EndlessBattleREALxViPerZ_mvl/mxv
 BYTE   W03
 BYTE   VOL   20*FE11EndlessBattleREALxViPerZ_mvl/mxv
 BYTE   W01
 BYTE   VOL   20*FE11EndlessBattleREALxViPerZ_mvl/mxv
 BYTE   W02
 BYTE   VOL   20*FE11EndlessBattleREALxViPerZ_mvl/mxv
 BYTE   W01
 BYTE   VOL   20*FE11EndlessBattleREALxViPerZ_mvl/mxv
 BYTE   N23
 BYTE   W02
 BYTE   VOL   20*FE11EndlessBattleREALxViPerZ_mvl/mxv
 BYTE   W01
 BYTE   VOL   21*FE11EndlessBattleREALxViPerZ_mvl/mxv
 BYTE   W02
 BYTE   VOL   21*FE11EndlessBattleREALxViPerZ_mvl/mxv
 BYTE   W01
 BYTE   VOL   21*FE11EndlessBattleREALxViPerZ_mvl/mxv
 BYTE   W02
 BYTE   VOL   21*FE11EndlessBattleREALxViPerZ_mvl/mxv
 BYTE   W01
 BYTE   VOL   22*FE11EndlessBattleREALxViPerZ_mvl/mxv
 BYTE   W02
 BYTE   VOL   22*FE11EndlessBattleREALxViPerZ_mvl/mxv
 BYTE   W01
 BYTE   VOL   22*FE11EndlessBattleREALxViPerZ_mvl/mxv
 BYTE   W01
 BYTE   VOL   22*FE11EndlessBattleREALxViPerZ_mvl/mxv
 BYTE   W03
 BYTE   VOL   22*FE11EndlessBattleREALxViPerZ_mvl/mxv
 BYTE   W03
 BYTE   VOL   22*FE11EndlessBattleREALxViPerZ_mvl/mxv
 BYTE   W03
 BYTE   VOL   22*FE11EndlessBattleREALxViPerZ_mvl/mxv
 BYTE   W02
 BYTE   VOL   22*FE11EndlessBattleREALxViPerZ_mvl/mxv
 BYTE   N17  Gn4
 BYTE   W18
 BYTE   Gs4
 BYTE   W18
 BYTE   N11  As4
 BYTE   W03
//  #06 //016   ----------------------------------------
 BYTE   W09
 BYTE   N17  Gn4
 BYTE   W02
 BYTE   VOL   22*FE11EndlessBattleREALxViPerZ_mvl/mxv
 BYTE   W01
 BYTE   VOL   22*FE11EndlessBattleREALxViPerZ_mvl/mxv
 BYTE   W01
 BYTE   VOL   22*FE11EndlessBattleREALxViPerZ_mvl/mxv
 BYTE   W01
 BYTE   VOL   21*FE11EndlessBattleREALxViPerZ_mvl/mxv
 BYTE   W01
 BYTE   VOL   21*FE11EndlessBattleREALxViPerZ_mvl/mxv
 BYTE   W01
 BYTE   VOL   20*FE11EndlessBattleREALxViPerZ_mvl/mxv
 BYTE   W01
 BYTE   VOL   20*FE11EndlessBattleREALxViPerZ_mvl/mxv
 BYTE   W02
 BYTE   VOL   20*FE11EndlessBattleREALxViPerZ_mvl/mxv
 BYTE   W01
 BYTE   VOL   20*FE11EndlessBattleREALxViPerZ_mvl/mxv
 BYTE   W02
 BYTE   VOL   21*FE11EndlessBattleREALxViPerZ_mvl/mxv
 BYTE   W01
 BYTE   VOL   21*FE11EndlessBattleREALxViPerZ_mvl/mxv
 BYTE   W02
 BYTE   VOL   21*FE11EndlessBattleREALxViPerZ_mvl/mxv
 BYTE   W01
 BYTE   VOL   21*FE11EndlessBattleREALxViPerZ_mvl/mxv
 BYTE   W01
 BYTE   N05  Fn4
 BYTE   W01
 BYTE   VOL   22*FE11EndlessBattleREALxViPerZ_mvl/mxv
 BYTE   W01
 BYTE   VOL   22*FE11EndlessBattleREALxViPerZ_mvl/mxv
 BYTE   W02
 BYTE   VOL   22*FE11EndlessBattleREALxViPerZ_mvl/mxv
 BYTE   W01
 BYTE   VOL   22*FE11EndlessBattleREALxViPerZ_mvl/mxv
 BYTE   W01
 BYTE   TIE  Gn4
 BYTE   W01
 BYTE   VOL   22*FE11EndlessBattleREALxViPerZ_mvl/mxv
 BYTE   W01
 BYTE   VOL   22*FE11EndlessBattleREALxViPerZ_mvl/mxv
 BYTE   W01
 BYTE   VOL   22*FE11EndlessBattleREALxViPerZ_mvl/mxv
 BYTE   W01
 BYTE   VOL   21*FE11EndlessBattleREALxViPerZ_mvl/mxv
 BYTE   W01
 BYTE   VOL   21*FE11EndlessBattleREALxViPerZ_mvl/mxv
 BYTE   W01
 BYTE   VOL   21*FE11EndlessBattleREALxViPerZ_mvl/mxv
 BYTE   W01
 BYTE   VOL   20*FE11EndlessBattleREALxViPerZ_mvl/mxv
 BYTE   W18
 BYTE   VOL   20*FE11EndlessBattleREALxViPerZ_mvl/mxv
 BYTE   W02
 BYTE   VOL   21*FE11EndlessBattleREALxViPerZ_mvl/mxv
 BYTE   W01
 BYTE   VOL   21*FE11EndlessBattleREALxViPerZ_mvl/mxv
 BYTE   W02
 BYTE   VOL   22*FE11EndlessBattleREALxViPerZ_mvl/mxv
 BYTE   W01
 BYTE   VOL   22*FE11EndlessBattleREALxViPerZ_mvl/mxv
 BYTE   W03
 BYTE   VOL   22*FE11EndlessBattleREALxViPerZ_mvl/mxv
 BYTE   W03
 BYTE   VOL   22*FE11EndlessBattleREALxViPerZ_mvl/mxv
 BYTE   W03
 BYTE   VOL   22*FE11EndlessBattleREALxViPerZ_mvl/mxv
 BYTE   W03
 BYTE   VOL   22*FE11EndlessBattleREALxViPerZ_mvl/mxv
 BYTE   W03
 BYTE   VOL   22*FE11EndlessBattleREALxViPerZ_mvl/mxv
 BYTE   W03
 BYTE   VOL   22*FE11EndlessBattleREALxViPerZ_mvl/mxv
 BYTE   W03
 BYTE   VOL   22*FE11EndlessBattleREALxViPerZ_mvl/mxv
 BYTE   W03
 BYTE   VOL   21*FE11EndlessBattleREALxViPerZ_mvl/mxv
 BYTE   W03
 BYTE   VOL   21*FE11EndlessBattleREALxViPerZ_mvl/mxv
 BYTE   W03
 BYTE   VOL   21*FE11EndlessBattleREALxViPerZ_mvl/mxv
 BYTE   W02
//  #06 //017   ----------------------------------------
 BYTE   W01
 BYTE   VOL   21*FE11EndlessBattleREALxViPerZ_mvl/mxv
 BYTE   W03
 BYTE   VOL   21*FE11EndlessBattleREALxViPerZ_mvl/mxv
 BYTE   W03
 BYTE   VOL   21*FE11EndlessBattleREALxViPerZ_mvl/mxv
 BYTE   W03
 BYTE   VOL   21*FE11EndlessBattleREALxViPerZ_mvl/mxv
 BYTE   W03
 BYTE   VOL   21*FE11EndlessBattleREALxViPerZ_mvl/mxv
 BYTE   W03
 BYTE   VOL   21*FE11EndlessBattleREALxViPerZ_mvl/mxv
 BYTE   W03
 BYTE   VOL   20*FE11EndlessBattleREALxViPerZ_mvl/mxv
 BYTE   W03
 BYTE   VOL   20*FE11EndlessBattleREALxViPerZ_mvl/mxv
 BYTE   W01
 BYTE   VOL   20*FE11EndlessBattleREALxViPerZ_mvl/mxv
 BYTE   W03
 BYTE   VOL   20*FE11EndlessBattleREALxViPerZ_mvl/mxv
 BYTE   W03
 BYTE   VOL   20*FE11EndlessBattleREALxViPerZ_mvl/mxv
 BYTE   W03
 BYTE   VOL   20*FE11EndlessBattleREALxViPerZ_mvl/mxv
 BYTE   W03
 BYTE   VOL   20*FE11EndlessBattleREALxViPerZ_mvl/mxv
 BYTE   W03
 BYTE   VOL   20*FE11EndlessBattleREALxViPerZ_mvl/mxv
 BYTE   W03
 BYTE   VOL   20*FE11EndlessBattleREALxViPerZ_mvl/mxv
 BYTE   W03
 BYTE   VOL   20*FE11EndlessBattleREALxViPerZ_mvl/mxv
 BYTE   W03
 BYTE   VOL   20*FE11EndlessBattleREALxViPerZ_mvl/mxv
 BYTE   W03
 BYTE   VOL   19*FE11EndlessBattleREALxViPerZ_mvl/mxv
 BYTE   W03
 BYTE   VOL   19*FE11EndlessBattleREALxViPerZ_mvl/mxv
 BYTE   W03
 BYTE   VOL   19*FE11EndlessBattleREALxViPerZ_mvl/mxv
 BYTE   W03
 BYTE   VOL   19*FE11EndlessBattleREALxViPerZ_mvl/mxv
 BYTE   W03
 BYTE   VOL   19*FE11EndlessBattleREALxViPerZ_mvl/mxv
 BYTE   W03
 BYTE   VOL   19*FE11EndlessBattleREALxViPerZ_mvl/mxv
 BYTE   W03
 BYTE   VOL   19*FE11EndlessBattleREALxViPerZ_mvl/mxv
 BYTE   W03
 BYTE   VOL   19*FE11EndlessBattleREALxViPerZ_mvl/mxv
 BYTE   W03
 BYTE   VOL   19*FE11EndlessBattleREALxViPerZ_mvl/mxv
 BYTE   W03
 BYTE   VOL   19*FE11EndlessBattleREALxViPerZ_mvl/mxv
 BYTE   W03
 BYTE   VOL   19*FE11EndlessBattleREALxViPerZ_mvl/mxv
 BYTE   W03
 BYTE   VOL   19*FE11EndlessBattleREALxViPerZ_mvl/mxv
 BYTE   W03
 BYTE   EOT
 BYTE   VOL   19*FE11EndlessBattleREALxViPerZ_mvl/mxv
 BYTE   W03
 BYTE   VOL   19*FE11EndlessBattleREALxViPerZ_mvl/mxv
 BYTE   W03
 BYTE   VOL   19*FE11EndlessBattleREALxViPerZ_mvl/mxv
 BYTE   W01
 BYTE   VOL   19*FE11EndlessBattleREALxViPerZ_mvl/mxv
 BYTE   W03
//  #06 //018   ----------------------------------------
 BYTE   W72
 BYTE   W02
 BYTE   VOL   19*FE11EndlessBattleREALxViPerZ_mvl/mxv
 BYTE   W22
//  #06 //019   ----------------------------------------
 BYTE   W54
 BYTE   VOL   19*FE11EndlessBattleREALxViPerZ_mvl/mxv
 BYTE   W42
//  #06 //020   ----------------------------------------
 BYTE   W32
 BYTE   W03
 BYTE   VOL   19*FE11EndlessBattleREALxViPerZ_mvl/mxv
 BYTE   W60
 BYTE   W01
//  #06 //021   ----------------------------------------
 BYTE   W16
 BYTE   VOL   19*FE11EndlessBattleREALxViPerZ_mvl/mxv
 BYTE   W76
 BYTE   W01
 BYTE   VOL   19*FE11EndlessBattleREALxViPerZ_mvl/mxv
 BYTE   W03
//  #06 //022   ----------------------------------------
 BYTE   W72
 BYTE   W01
 BYTE   VOL   19*FE11EndlessBattleREALxViPerZ_mvl/mxv
 BYTE   W23
//  #06 //023   ----------------------------------------
 BYTE   W54
 BYTE   VOL   19*FE11EndlessBattleREALxViPerZ_mvl/mxv
 BYTE   W42
//  #06 //024   ----------------------------------------
 BYTE   W32
 BYTE   W03
 BYTE   VOL   19*FE11EndlessBattleREALxViPerZ_mvl/mxv
 BYTE   W01
 BYTE   VOL   19*FE11EndlessBattleREALxViPerZ_mvl/mxv
 BYTE   W01
 BYTE   VOL   19*FE11EndlessBattleREALxViPerZ_mvl/mxv
 BYTE   W01
 BYTE   VOL   19*FE11EndlessBattleREALxViPerZ_mvl/mxv
 BYTE   W01
 BYTE   VOL   19*FE11EndlessBattleREALxViPerZ_mvl/mxv
 BYTE   W01
 BYTE   VOL   19*FE11EndlessBattleREALxViPerZ_mvl/mxv
 BYTE   W01
 BYTE   VOL   19*FE11EndlessBattleREALxViPerZ_mvl/mxv
 BYTE   W01
 BYTE   VOL   19*FE11EndlessBattleREALxViPerZ_mvl/mxv
 BYTE   W01
 BYTE   VOL   19*FE11EndlessBattleREALxViPerZ_mvl/mxv
 BYTE   W01
 BYTE   VOL   20*FE11EndlessBattleREALxViPerZ_mvl/mxv
 BYTE   W01
 BYTE   VOL   20*FE11EndlessBattleREALxViPerZ_mvl/mxv
 BYTE   W01
 BYTE   VOL   20*FE11EndlessBattleREALxViPerZ_mvl/mxv
 BYTE   W01
 BYTE   VOL   20*FE11EndlessBattleREALxViPerZ_mvl/mxv
 BYTE   W01
 BYTE   VOL   20*FE11EndlessBattleREALxViPerZ_mvl/mxv
 BYTE   W01
 BYTE   VOL   21*FE11EndlessBattleREALxViPerZ_mvl/mxv
 BYTE   W01
 BYTE   VOL   21*FE11EndlessBattleREALxViPerZ_mvl/mxv
 BYTE   W01
 BYTE   VOL   22*FE11EndlessBattleREALxViPerZ_mvl/mxv
 BYTE   N02  As4  v036
 BYTE   W01
 BYTE   VOL   22*FE11EndlessBattleREALxViPerZ_mvl/mxv
 BYTE   W02
 BYTE   N02  Bn4
 BYTE   W01
 BYTE   VOL   22*FE11EndlessBattleREALxViPerZ_mvl/mxv
 BYTE   W02
 BYTE   N17  Cn5  v080
 BYTE   W01
 BYTE   VOL   22*FE11EndlessBattleREALxViPerZ_mvl/mxv
 BYTE   W01
 BYTE   VOL   22*FE11EndlessBattleREALxViPerZ_mvl/mxv
 BYTE   W01
 BYTE   VOL   20*FE11EndlessBattleREALxViPerZ_mvl/mxv
 BYTE   W01
 BYTE   VOL   20*FE11EndlessBattleREALxViPerZ_mvl/mxv
 BYTE   W07
 BYTE   VOL   20*FE11EndlessBattleREALxViPerZ_mvl/mxv
 BYTE   W01
 BYTE   VOL   20*FE11EndlessBattleREALxViPerZ_mvl/mxv
 BYTE   W02
 BYTE   VOL   21*FE11EndlessBattleREALxViPerZ_mvl/mxv
 BYTE   W01
 BYTE   VOL   21*FE11EndlessBattleREALxViPerZ_mvl/mxv
 BYTE   W02
 BYTE   VOL   22*FE11EndlessBattleREALxViPerZ_mvl/mxv
 BYTE   W01
 BYTE   VOL   22*FE11EndlessBattleREALxViPerZ_mvl/mxv
 BYTE   N05  Dn5  v076
 BYTE   W06
 BYTE   TIE  Cn5  v080
 BYTE   W02
 BYTE   VOL   22*FE11EndlessBattleREALxViPerZ_mvl/mxv
 BYTE   W01
 BYTE   VOL   22*FE11EndlessBattleREALxViPerZ_mvl/mxv
 BYTE   W02
 BYTE   VOL   22*FE11EndlessBattleREALxViPerZ_mvl/mxv
 BYTE   W01
 BYTE   VOL   22*FE11EndlessBattleREALxViPerZ_mvl/mxv
 BYTE   W02
 BYTE   VOL   21*FE11EndlessBattleREALxViPerZ_mvl/mxv
 BYTE   W01
 BYTE   VOL   21*FE11EndlessBattleREALxViPerZ_mvl/mxv
 BYTE   W02
 BYTE   VOL   21*FE11EndlessBattleREALxViPerZ_mvl/mxv
 BYTE   W01
 BYTE   VOL   20*FE11EndlessBattleREALxViPerZ_mvl/mxv
 BYTE   W02
 BYTE   VOL   20*FE11EndlessBattleREALxViPerZ_mvl/mxv
 BYTE   W01
//  #06 //025   ----------------------------------------
 BYTE   W02
 BYTE   VOL   20*FE11EndlessBattleREALxViPerZ_mvl/mxv
 BYTE   W03
 BYTE   VOL   20*FE11EndlessBattleREALxViPerZ_mvl/mxv
 BYTE   W03
 BYTE   VOL   20*FE11EndlessBattleREALxViPerZ_mvl/mxv
 BYTE   W03
 BYTE   VOL   20*FE11EndlessBattleREALxViPerZ_mvl/mxv
 BYTE   W03
 BYTE   VOL   20*FE11EndlessBattleREALxViPerZ_mvl/mxv
 BYTE   W03
 BYTE   VOL   20*FE11EndlessBattleREALxViPerZ_mvl/mxv
 BYTE   W03
 BYTE   VOL   20*FE11EndlessBattleREALxViPerZ_mvl/mxv
 BYTE   W03
 BYTE   VOL   20*FE11EndlessBattleREALxViPerZ_mvl/mxv
 BYTE   W03
 BYTE   VOL   20*FE11EndlessBattleREALxViPerZ_mvl/mxv
 BYTE   W03
 BYTE   VOL   20*FE11EndlessBattleREALxViPerZ_mvl/mxv
 BYTE   W03
 BYTE   VOL   20*FE11EndlessBattleREALxViPerZ_mvl/mxv
 BYTE   W03
 BYTE   VOL   20*FE11EndlessBattleREALxViPerZ_mvl/mxv
 BYTE   W03
 BYTE   VOL   20*FE11EndlessBattleREALxViPerZ_mvl/mxv
 BYTE   W03
 BYTE   VOL   20*FE11EndlessBattleREALxViPerZ_mvl/mxv
 BYTE   W03
 BYTE   VOL   20*FE11EndlessBattleREALxViPerZ_mvl/mxv
 BYTE   W03
 BYTE   VOL   20*FE11EndlessBattleREALxViPerZ_mvl/mxv
 BYTE   W03
 BYTE   VOL   20*FE11EndlessBattleREALxViPerZ_mvl/mxv
 BYTE   W03
 BYTE   VOL   20*FE11EndlessBattleREALxViPerZ_mvl/mxv
 BYTE   W01
 BYTE   VOL   20*FE11EndlessBattleREALxViPerZ_mvl/mxv
 BYTE   W01
 BYTE   VOL   20*FE11EndlessBattleREALxViPerZ_mvl/mxv
 BYTE   W02
 BYTE   VOL   19*FE11EndlessBattleREALxViPerZ_mvl/mxv
 BYTE   W01
 BYTE   VOL   19*FE11EndlessBattleREALxViPerZ_mvl/mxv
 BYTE   W02
 BYTE   VOL   19*FE11EndlessBattleREALxViPerZ_mvl/mxv
 BYTE   W01
 BYTE   VOL   19*FE11EndlessBattleREALxViPerZ_mvl/mxv
 BYTE   W02
 BYTE   VOL   19*FE11EndlessBattleREALxViPerZ_mvl/mxv
 BYTE   W01
 BYTE   VOL   19*FE11EndlessBattleREALxViPerZ_mvl/mxv
 BYTE   W02
 BYTE   VOL   19*FE11EndlessBattleREALxViPerZ_mvl/mxv
 BYTE   W01
 BYTE   VOL   19*FE11EndlessBattleREALxViPerZ_mvl/mxv
 BYTE   W02
 BYTE   VOL   19*FE11EndlessBattleREALxViPerZ_mvl/mxv
 BYTE   W01
 BYTE   VOL   19*FE11EndlessBattleREALxViPerZ_mvl/mxv
 BYTE   W02
 BYTE   VOL   19*FE11EndlessBattleREALxViPerZ_mvl/mxv
 BYTE   W01
 BYTE   VOL   19*FE11EndlessBattleREALxViPerZ_mvl/mxv
 BYTE   W02
 BYTE   VOL   19*FE11EndlessBattleREALxViPerZ_mvl/mxv
 BYTE   W01
 BYTE   VOL   19*FE11EndlessBattleREALxViPerZ_mvl/mxv
 BYTE   W02
 BYTE   VOL   19*FE11EndlessBattleREALxViPerZ_mvl/mxv
 BYTE   W01
 BYTE   VOL   19*FE11EndlessBattleREALxViPerZ_mvl/mxv
 BYTE   W02
 BYTE   VOL   19*FE11EndlessBattleREALxViPerZ_mvl/mxv
 BYTE   W01
 BYTE   VOL   19*FE11EndlessBattleREALxViPerZ_mvl/mxv
 BYTE   W02
 BYTE   VOL   19*FE11EndlessBattleREALxViPerZ_mvl/mxv
 BYTE   W01
 BYTE   VOL   19*FE11EndlessBattleREALxViPerZ_mvl/mxv
 BYTE   W02
 BYTE   VOL   19*FE11EndlessBattleREALxViPerZ_mvl/mxv
 BYTE   W01
 BYTE   VOL   19*FE11EndlessBattleREALxViPerZ_mvl/mxv
 BYTE   W02
 BYTE   VOL   19*FE11EndlessBattleREALxViPerZ_mvl/mxv
 BYTE   W01
 BYTE   VOL   19*FE11EndlessBattleREALxViPerZ_mvl/mxv
 BYTE   W02
 BYTE   VOL   19*FE11EndlessBattleREALxViPerZ_mvl/mxv
 BYTE   W01
 BYTE   VOL   19*FE11EndlessBattleREALxViPerZ_mvl/mxv
 BYTE   W02
//  #06 //026   ----------------------------------------
 BYTE   VOL   19*FE11EndlessBattleREALxViPerZ_mvl/mxv
 BYTE   W01
 BYTE   VOL   19*FE11EndlessBattleREALxViPerZ_mvl/mxv
 BYTE   W02
 BYTE   VOL   19*FE11EndlessBattleREALxViPerZ_mvl/mxv
 BYTE   W01
 BYTE   EOT
 BYTE   VOL   19*FE11EndlessBattleREALxViPerZ_mvl/mxv
 BYTE   W02
 BYTE   VOL   19*FE11EndlessBattleREALxViPerZ_mvl/mxv
 BYTE   W01
 BYTE   VOL   19*FE11EndlessBattleREALxViPerZ_mvl/mxv
 BYTE   W02
 BYTE   VOL   19*FE11EndlessBattleREALxViPerZ_mvl/mxv
 BYTE   W01
 BYTE   VOL   19*FE11EndlessBattleREALxViPerZ_mvl/mxv
 BYTE   W48
 BYTE   W03
 BYTE   VOL   19*FE11EndlessBattleREALxViPerZ_mvl/mxv
 BYTE   W24
 BYTE   W02
 BYTE   VOL   19*FE11EndlessBattleREALxViPerZ_mvl/mxv
 BYTE   W09
//  #06 //027   ----------------------------------------
Label_01C855BA:
 BYTE   W17
 BYTE   VOL   19*FE11EndlessBattleREALxViPerZ_mvl/mxv
 BYTE   W24
 BYTE   W01
 BYTE   VOL   19*FE11EndlessBattleREALxViPerZ_mvl/mxv
 BYTE   W24
 BYTE   W02
 BYTE   VOL   19*FE11EndlessBattleREALxViPerZ_mvl/mxv
 BYTE   W24
 BYTE   W02
 BYTE   VOL   19*FE11EndlessBattleREALxViPerZ_mvl/mxv
 BYTE   W02
 BYTE   PEND 
//  #06 //028   ----------------------------------------
 BYTE   W23
 BYTE   CnM2
 BYTE   W24
 BYTE   W02
 BYTE   CnM2
 BYTE   W24
 BYTE   W01
 BYTE   CnM2
 BYTE   W22
//  #06 //029   ----------------------------------------
 BYTE   W04
 BYTE   CnM2
 BYTE   W24
 BYTE   W02
 BYTE   CnM2
 BYTE   W24
 BYTE   W01
 BYTE   CnM2
 BYTE   W24
 BYTE   W02
 BYTE   CnM2
 BYTE   W15
//  #06 //030   ----------------------------------------
 BYTE   W10
 BYTE   CnM2
 BYTE   W24
 BYTE   W02
 BYTE   CnM2
 BYTE   W24
 BYTE   W02
 BYTE   CnM2
 BYTE   W24
 BYTE   W01
 BYTE   CnM2
 BYTE   W09
//  #06 //031   ----------------------------------------
 BYTE   PATT
  POIN2 Label_01C855BA
//  #06 //032   ----------------------------------------
 BYTE   W23
 BYTE   VOL   19*FE11EndlessBattleREALxViPerZ_mvl/mxv
 BYTE   W24
 BYTE   W02
 BYTE   VOL   19*FE11EndlessBattleREALxViPerZ_mvl/mxv
 BYTE   W24
 BYTE   W02
 BYTE   VOL   19*FE11EndlessBattleREALxViPerZ_mvl/mxv
 BYTE   W21
//  #06 //033   ----------------------------------------
 BYTE   W04
 BYTE   VOL   19*FE11EndlessBattleREALxViPerZ_mvl/mxv
 BYTE   W24
 BYTE   W02
 BYTE   VOL   19*FE11EndlessBattleREALxViPerZ_mvl/mxv
 BYTE   W24
 BYTE   W01
 BYTE   VOL   19*FE11EndlessBattleREALxViPerZ_mvl/mxv
 BYTE   W24
 BYTE   W02
 BYTE   VOL   22*FE11EndlessBattleREALxViPerZ_mvl/mxv
 BYTE   W15
//  #06 //034   ----------------------------------------
 BYTE   W03
 BYTE   N01  Dn5  v004
 BYTE   W02
 BYTE   Ds5  v016
 BYTE   W02
 BYTE   En5  v024
 BYTE   W02
 BYTE   N17  Fn5  v052
 BYTE   W01
 BYTE   VOL   22*FE11EndlessBattleREALxViPerZ_mvl/mxv
 BYTE   W01
 BYTE   VOL   22*FE11EndlessBattleREALxViPerZ_mvl/mxv
 BYTE   W01
 BYTE   VOL   20*FE11EndlessBattleREALxViPerZ_mvl/mxv
 BYTE   W01
 BYTE   VOL   20*FE11EndlessBattleREALxViPerZ_mvl/mxv
 BYTE   W02
 BYTE   VOL   20*FE11EndlessBattleREALxViPerZ_mvl/mxv
 BYTE   W01
 BYTE   VOL   20*FE11EndlessBattleREALxViPerZ_mvl/mxv
 BYTE   W02
 BYTE   VOL   20*FE11EndlessBattleREALxViPerZ_mvl/mxv
 BYTE   W02
 BYTE   VOL   20*FE11EndlessBattleREALxViPerZ_mvl/mxv
 BYTE   W01
 BYTE   VOL   21*FE11EndlessBattleREALxViPerZ_mvl/mxv
 BYTE   W02
 BYTE   VOL   21*FE11EndlessBattleREALxViPerZ_mvl/mxv
 BYTE   W01
 BYTE   VOL   22*FE11EndlessBattleREALxViPerZ_mvl/mxv
 BYTE   W02
 BYTE   VOL   22*FE11EndlessBattleREALxViPerZ_mvl/mxv
 BYTE   W01
 BYTE   VOL   22*FE11EndlessBattleREALxViPerZ_mvl/mxv
 BYTE   N05  Gn5
 BYTE   W06
 BYTE   N11  Fn5
 BYTE   W12
 BYTE   N23  Ds5  v064
 BYTE   W02
 BYTE   VOL   22*FE11EndlessBattleREALxViPerZ_mvl/mxv
 BYTE   W01
 BYTE   VOL   21*FE11EndlessBattleREALxViPerZ_mvl/mxv
 BYTE   W01
 BYTE   VOL   21*FE11EndlessBattleREALxViPerZ_mvl/mxv
 BYTE   W01
 BYTE   VOL   20*FE11EndlessBattleREALxViPerZ_mvl/mxv
 BYTE   W02
 BYTE   VOL   20*FE11EndlessBattleREALxViPerZ_mvl/mxv
 BYTE   W01
 BYTE   VOL   20*FE11EndlessBattleREALxViPerZ_mvl/mxv
 BYTE   W02
 BYTE   VOL   20*FE11EndlessBattleREALxViPerZ_mvl/mxv
 BYTE   W01
 BYTE   VOL   20*FE11EndlessBattleREALxViPerZ_mvl/mxv
 BYTE   W02
 BYTE   VOL   20*FE11EndlessBattleREALxViPerZ_mvl/mxv
 BYTE   W01
 BYTE   VOL   20*FE11EndlessBattleREALxViPerZ_mvl/mxv
 BYTE   W02
 BYTE   VOL   20*FE11EndlessBattleREALxViPerZ_mvl/mxv
 BYTE   W01
 BYTE   VOL   21*FE11EndlessBattleREALxViPerZ_mvl/mxv
 BYTE   W02
 BYTE   VOL   21*FE11EndlessBattleREALxViPerZ_mvl/mxv
 BYTE   W01
 BYTE   VOL   21*FE11EndlessBattleREALxViPerZ_mvl/mxv
 BYTE   W02
 BYTE   VOL   21*FE11EndlessBattleREALxViPerZ_mvl/mxv
 BYTE   W01
 BYTE   VOL   21*FE11EndlessBattleREALxViPerZ_mvl/mxv
 BYTE   W02
 BYTE   VOL   22*FE11EndlessBattleREALxViPerZ_mvl/mxv
 BYTE   W01
 BYTE   VOL   22*FE11EndlessBattleREALxViPerZ_mvl/mxv
 BYTE   W02
 BYTE   VOL   22*FE11EndlessBattleREALxViPerZ_mvl/mxv
 BYTE   W01
 BYTE   VOL   22*FE11EndlessBattleREALxViPerZ_mvl/mxv
 BYTE   W02
 BYTE   VOL   22*FE11EndlessBattleREALxViPerZ_mvl/mxv
 BYTE   W01
 BYTE   VOL   22*FE11EndlessBattleREALxViPerZ_mvl/mxv
 BYTE   W02
 BYTE   VOL   22*FE11EndlessBattleREALxViPerZ_mvl/mxv
 BYTE   W01
 BYTE   VOL   22*FE11EndlessBattleREALxViPerZ_mvl/mxv
 BYTE   W01
 BYTE   VOL   22*FE11EndlessBattleREALxViPerZ_mvl/mxv
 BYTE   N17  Dn5
 BYTE   W01
 BYTE   VOL   22*FE11EndlessBattleREALxViPerZ_mvl/mxv
 BYTE   W01
 BYTE   VOL   21*FE11EndlessBattleREALxViPerZ_mvl/mxv
 BYTE   W01
 BYTE   VOL   21*FE11EndlessBattleREALxViPerZ_mvl/mxv
 BYTE   W01
 BYTE   VOL   20*FE11EndlessBattleREALxViPerZ_mvl/mxv
 BYTE   W02
 BYTE   VOL   20*FE11EndlessBattleREALxViPerZ_mvl/mxv
 BYTE   W01
 BYTE   VOL   20*FE11EndlessBattleREALxViPerZ_mvl/mxv
 BYTE   W02
 BYTE   VOL   20*FE11EndlessBattleREALxViPerZ_mvl/mxv
 BYTE   W01
 BYTE   VOL   20*FE11EndlessBattleREALxViPerZ_mvl/mxv
 BYTE   W02
 BYTE   VOL   20*FE11EndlessBattleREALxViPerZ_mvl/mxv
 BYTE   W01
 BYTE   VOL   21*FE11EndlessBattleREALxViPerZ_mvl/mxv
 BYTE   W01
 BYTE   VOL   21*FE11EndlessBattleREALxViPerZ_mvl/mxv
 BYTE   W01
//  #06 //035   ----------------------------------------
 BYTE   VOL   22*FE11EndlessBattleREALxViPerZ_mvl/mxv
 BYTE   W01
 BYTE   VOL   22*FE11EndlessBattleREALxViPerZ_mvl/mxv
 BYTE   W01
 BYTE   VOL   22*FE11EndlessBattleREALxViPerZ_mvl/mxv
 BYTE   W01
 BYTE   VOL   23*FE11EndlessBattleREALxViPerZ_mvl/mxv
 BYTE   N05  Ds5
 BYTE   W06
 BYTE   VOL   23*FE11EndlessBattleREALxViPerZ_mvl/mxv
 BYTE   N11  Dn5
 BYTE   W01
 BYTE   VOL   22*FE11EndlessBattleREALxViPerZ_mvl/mxv
 BYTE   W02
 BYTE   VOL   22*FE11EndlessBattleREALxViPerZ_mvl/mxv
 BYTE   W01
 BYTE   VOL   22*FE11EndlessBattleREALxViPerZ_mvl/mxv
 BYTE   W02
 BYTE   VOL   21*FE11EndlessBattleREALxViPerZ_mvl/mxv
 BYTE   W02
 BYTE   VOL   22*FE11EndlessBattleREALxViPerZ_mvl/mxv
 BYTE   W01
 BYTE   VOL   22*FE11EndlessBattleREALxViPerZ_mvl/mxv
 BYTE   W02
 BYTE   VOL   22*FE11EndlessBattleREALxViPerZ_mvl/mxv
 BYTE   W01
 BYTE   VOL   22*FE11EndlessBattleREALxViPerZ_mvl/mxv
 BYTE   N52  Cn5
 BYTE   W02
 BYTE   VOL   23*FE11EndlessBattleREALxViPerZ_mvl/mxv
 BYTE   W02
 BYTE   VOL   22*FE11EndlessBattleREALxViPerZ_mvl/mxv
 BYTE   W01
 BYTE   VOL   22*FE11EndlessBattleREALxViPerZ_mvl/mxv
 BYTE   W02
 BYTE   VOL   21*FE11EndlessBattleREALxViPerZ_mvl/mxv
 BYTE   W01
 BYTE   VOL   21*FE11EndlessBattleREALxViPerZ_mvl/mxv
 BYTE   W03
 BYTE   VOL   21*FE11EndlessBattleREALxViPerZ_mvl/mxv
 BYTE   W03
 BYTE   VOL   20*FE11EndlessBattleREALxViPerZ_mvl/mxv
 BYTE   W03
 BYTE   VOL   20*FE11EndlessBattleREALxViPerZ_mvl/mxv
 BYTE   W03
 BYTE   VOL   20*FE11EndlessBattleREALxViPerZ_mvl/mxv
 BYTE   W03
 BYTE   VOL   20*FE11EndlessBattleREALxViPerZ_mvl/mxv
 BYTE   W03
 BYTE   VOL   20*FE11EndlessBattleREALxViPerZ_mvl/mxv
 BYTE   W03
 BYTE   VOL   20*FE11EndlessBattleREALxViPerZ_mvl/mxv
 BYTE   W01
 BYTE   VOL   20*FE11EndlessBattleREALxViPerZ_mvl/mxv
 BYTE   W02
 BYTE   VOL   20*FE11EndlessBattleREALxViPerZ_mvl/mxv
 BYTE   W01
 BYTE   VOL   20*FE11EndlessBattleREALxViPerZ_mvl/mxv
 BYTE   W02
 BYTE   VOL   20*FE11EndlessBattleREALxViPerZ_mvl/mxv
 BYTE   W01
 BYTE   VOL   20*FE11EndlessBattleREALxViPerZ_mvl/mxv
 BYTE   W02
 BYTE   VOL   19*FE11EndlessBattleREALxViPerZ_mvl/mxv
 BYTE   W01
 BYTE   VOL   19*FE11EndlessBattleREALxViPerZ_mvl/mxv
 BYTE   W02
 BYTE   VOL   19*FE11EndlessBattleREALxViPerZ_mvl/mxv
 BYTE   W01
 BYTE   VOL   19*FE11EndlessBattleREALxViPerZ_mvl/mxv
 BYTE   W02
 BYTE   VOL   19*FE11EndlessBattleREALxViPerZ_mvl/mxv
 BYTE   W01
 BYTE   VOL   19*FE11EndlessBattleREALxViPerZ_mvl/mxv
 BYTE   W02
 BYTE   VOL   19*FE11EndlessBattleREALxViPerZ_mvl/mxv
 BYTE   W01
 BYTE   VOL   19*FE11EndlessBattleREALxViPerZ_mvl/mxv
 BYTE   W02
 BYTE   VOL   19*FE11EndlessBattleREALxViPerZ_mvl/mxv
 BYTE   W01
 BYTE   VOL   19*FE11EndlessBattleREALxViPerZ_mvl/mxv
 BYTE   W02
 BYTE   VOL   19*FE11EndlessBattleREALxViPerZ_mvl/mxv
 BYTE   W01
 BYTE   VOL   19*FE11EndlessBattleREALxViPerZ_mvl/mxv
 BYTE   W02
 BYTE   VOL   19*FE11EndlessBattleREALxViPerZ_mvl/mxv
 BYTE   W01
 BYTE   VOL   19*FE11EndlessBattleREALxViPerZ_mvl/mxv
 BYTE   W01
 BYTE   VOL   19*FE11EndlessBattleREALxViPerZ_mvl/mxv
 BYTE   W01
 BYTE   VOL   20*FE11EndlessBattleREALxViPerZ_mvl/mxv
 BYTE   W01
 BYTE   VOL   21*FE11EndlessBattleREALxViPerZ_mvl/mxv
 BYTE   N11  Dn5
 BYTE   W03
 BYTE   VOL   21*FE11EndlessBattleREALxViPerZ_mvl/mxv
 BYTE   W03
 BYTE   VOL   21*FE11EndlessBattleREALxViPerZ_mvl/mxv
 BYTE   W03
 BYTE   VOL   21*FE11EndlessBattleREALxViPerZ_mvl/mxv
 BYTE   W03
 BYTE   VOL   22*FE11EndlessBattleREALxViPerZ_mvl/mxv
 BYTE   N11  Ds5
 BYTE   W03
//  #06 //036   ----------------------------------------
 BYTE   VOL   22*FE11EndlessBattleREALxViPerZ_mvl/mxv
 BYTE   W03
 BYTE   VOL   22*FE11EndlessBattleREALxViPerZ_mvl/mxv
 BYTE   W03
 BYTE   VOL   22*FE11EndlessBattleREALxViPerZ_mvl/mxv
 BYTE   W03
 BYTE   VOL   22*FE11EndlessBattleREALxViPerZ_mvl/mxv
 BYTE   N17  Fn5  v052
 BYTE   W01
 BYTE   VOL   22*FE11EndlessBattleREALxViPerZ_mvl/mxv
 BYTE   W01
 BYTE   VOL   21*FE11EndlessBattleREALxViPerZ_mvl/mxv
 BYTE   W01
 BYTE   VOL   20*FE11EndlessBattleREALxViPerZ_mvl/mxv
 BYTE   W13
 BYTE   VOL   20*FE11EndlessBattleREALxViPerZ_mvl/mxv
 BYTE   W01
 BYTE   VOL   21*FE11EndlessBattleREALxViPerZ_mvl/mxv
 BYTE   W01
 BYTE   VOL   22*FE11EndlessBattleREALxViPerZ_mvl/mxv
 BYTE   N05  Gn5
 BYTE   W06
 BYTE   VOL   22*FE11EndlessBattleREALxViPerZ_mvl/mxv
 BYTE   N11  Fn5
 BYTE   W03
 BYTE   VOL   22*FE11EndlessBattleREALxViPerZ_mvl/mxv
 BYTE   W03
 BYTE   VOL   22*FE11EndlessBattleREALxViPerZ_mvl/mxv
 BYTE   W03
 BYTE   VOL   22*FE11EndlessBattleREALxViPerZ_mvl/mxv
 BYTE   W03
 BYTE   VOL   22*FE11EndlessBattleREALxViPerZ_mvl/mxv
 BYTE   N28  Ds5  v064
 BYTE   W01
 BYTE   VOL   22*FE11EndlessBattleREALxViPerZ_mvl/mxv
 BYTE   W02
 BYTE   VOL   22*FE11EndlessBattleREALxViPerZ_mvl/mxv
 BYTE   W01
 BYTE   VOL   21*FE11EndlessBattleREALxViPerZ_mvl/mxv
 BYTE   W02
 BYTE   VOL   21*FE11EndlessBattleREALxViPerZ_mvl/mxv
 BYTE   W01
 BYTE   VOL   20*FE11EndlessBattleREALxViPerZ_mvl/mxv
 BYTE   W01
 BYTE   VOL   20*FE11EndlessBattleREALxViPerZ_mvl/mxv
 BYTE   W03
 BYTE   VOL   20*FE11EndlessBattleREALxViPerZ_mvl/mxv
 BYTE   W03
 BYTE   VOL   20*FE11EndlessBattleREALxViPerZ_mvl/mxv
 BYTE   W03
 BYTE   VOL   20*FE11EndlessBattleREALxViPerZ_mvl/mxv
 BYTE   W01
 BYTE   VOL   20*FE11EndlessBattleREALxViPerZ_mvl/mxv
 BYTE   W02
 BYTE   VOL   20*FE11EndlessBattleREALxViPerZ_mvl/mxv
 BYTE   W01
 BYTE   VOL   20*FE11EndlessBattleREALxViPerZ_mvl/mxv
 BYTE   W02
 BYTE   VOL   20*FE11EndlessBattleREALxViPerZ_mvl/mxv
 BYTE   W01
 BYTE   VOL   20*FE11EndlessBattleREALxViPerZ_mvl/mxv
 BYTE   W02
 BYTE   VOL   20*FE11EndlessBattleREALxViPerZ_mvl/mxv
 BYTE   W02
 BYTE   VOL   20*FE11EndlessBattleREALxViPerZ_mvl/mxv
 BYTE   W01
 BYTE   VOL   20*FE11EndlessBattleREALxViPerZ_mvl/mxv
 BYTE   W01
 BYTE   N01  Fn5  v008
 BYTE   W01
 BYTE   VOL   20*FE11EndlessBattleREALxViPerZ_mvl/mxv
 BYTE   W01
 BYTE   VOL   21*FE11EndlessBattleREALxViPerZ_mvl/mxv
 BYTE   N01  Gn5  v020
 BYTE   W02
 BYTE   VOL   22*FE11EndlessBattleREALxViPerZ_mvl/mxv
 BYTE   N01  Gs5  v028
 BYTE   W01
 BYTE   VOL   22*FE11EndlessBattleREALxViPerZ_mvl/mxv
 BYTE   W01
 BYTE   N23  As5  v044
 BYTE   W01
 BYTE   VOL   22*FE11EndlessBattleREALxViPerZ_mvl/mxv
 BYTE   W01
 BYTE   VOL   21*FE11EndlessBattleREALxViPerZ_mvl/mxv
 BYTE   W02
 BYTE   VOL   21*FE11EndlessBattleREALxViPerZ_mvl/mxv
 BYTE   W01
 BYTE   VOL   20*FE11EndlessBattleREALxViPerZ_mvl/mxv
 BYTE   W02
 BYTE   VOL   20*FE11EndlessBattleREALxViPerZ_mvl/mxv
 BYTE   W02
 BYTE   VOL   20*FE11EndlessBattleREALxViPerZ_mvl/mxv
 BYTE   W01
 BYTE   VOL   20*FE11EndlessBattleREALxViPerZ_mvl/mxv
 BYTE   W02
 BYTE   VOL   20*FE11EndlessBattleREALxViPerZ_mvl/mxv
 BYTE   W01
 BYTE   VOL   21*FE11EndlessBattleREALxViPerZ_mvl/mxv
 BYTE   W02
//  #06 //037   ----------------------------------------
 BYTE   VOL   21*FE11EndlessBattleREALxViPerZ_mvl/mxv
 BYTE   W01
 BYTE   VOL   21*FE11EndlessBattleREALxViPerZ_mvl/mxv
 BYTE   W02
 BYTE   VOL   21*FE11EndlessBattleREALxViPerZ_mvl/mxv
 BYTE   W01
 BYTE   VOL   22*FE11EndlessBattleREALxViPerZ_mvl/mxv
 BYTE   W02
 BYTE   VOL   22*FE11EndlessBattleREALxViPerZ_mvl/mxv
 BYTE   W01
 BYTE   VOL   22*FE11EndlessBattleREALxViPerZ_mvl/mxv
 BYTE   W02
 BYTE   VOL   22*FE11EndlessBattleREALxViPerZ_mvl/mxv
 BYTE   N05  Gs5  v056
 BYTE   W06
 BYTE   Gn5
 BYTE   W06
 BYTE   N72  Ds5  v064
 BYTE   W01
 BYTE   VOL   22*FE11EndlessBattleREALxViPerZ_mvl/mxv
 BYTE   W01
 BYTE   VOL   22*FE11EndlessBattleREALxViPerZ_mvl/mxv
 BYTE   W01
 BYTE   VOL   21*FE11EndlessBattleREALxViPerZ_mvl/mxv
 BYTE   W01
 BYTE   VOL   21*FE11EndlessBattleREALxViPerZ_mvl/mxv
 BYTE   W01
 BYTE   VOL   21*FE11EndlessBattleREALxViPerZ_mvl/mxv
 BYTE   W01
 BYTE   VOL   20*FE11EndlessBattleREALxViPerZ_mvl/mxv
 BYTE   W01
 BYTE   VOL   20*FE11EndlessBattleREALxViPerZ_mvl/mxv
 BYTE   W03
 BYTE   VOL   20*FE11EndlessBattleREALxViPerZ_mvl/mxv
 BYTE   W03
 BYTE   VOL   20*FE11EndlessBattleREALxViPerZ_mvl/mxv
 BYTE   W03
 BYTE   VOL   20*FE11EndlessBattleREALxViPerZ_mvl/mxv
 BYTE   W03
 BYTE   VOL   20*FE11EndlessBattleREALxViPerZ_mvl/mxv
 BYTE   W03
 BYTE   VOL   21*FE11EndlessBattleREALxViPerZ_mvl/mxv
 BYTE   W03
 BYTE   VOL   21*FE11EndlessBattleREALxViPerZ_mvl/mxv
 BYTE   W03
 BYTE   VOL   21*FE11EndlessBattleREALxViPerZ_mvl/mxv
 BYTE   W03
 BYTE   VOL   21*FE11EndlessBattleREALxViPerZ_mvl/mxv
 BYTE   W02
 BYTE   VOL   21*FE11EndlessBattleREALxViPerZ_mvl/mxv
 BYTE   W03
 BYTE   VOL   21*FE11EndlessBattleREALxViPerZ_mvl/mxv
 BYTE   W03
 BYTE   VOL   21*FE11EndlessBattleREALxViPerZ_mvl/mxv
 BYTE   W03
 BYTE   VOL   21*FE11EndlessBattleREALxViPerZ_mvl/mxv
 BYTE   W03
 BYTE   VOL   20*FE11EndlessBattleREALxViPerZ_mvl/mxv
 BYTE   W03
 BYTE   VOL   20*FE11EndlessBattleREALxViPerZ_mvl/mxv
 BYTE   W03
 BYTE   VOL   20*FE11EndlessBattleREALxViPerZ_mvl/mxv
 BYTE   W03
 BYTE   VOL   20*FE11EndlessBattleREALxViPerZ_mvl/mxv
 BYTE   W03
 BYTE   VOL   20*FE11EndlessBattleREALxViPerZ_mvl/mxv
 BYTE   W03
 BYTE   VOL   20*FE11EndlessBattleREALxViPerZ_mvl/mxv
 BYTE   W03
 BYTE   VOL   20*FE11EndlessBattleREALxViPerZ_mvl/mxv
 BYTE   W03
 BYTE   VOL   20*FE11EndlessBattleREALxViPerZ_mvl/mxv
 BYTE   W02
 BYTE   VOL   20*FE11EndlessBattleREALxViPerZ_mvl/mxv
 BYTE   W01
 BYTE   VOL   19*FE11EndlessBattleREALxViPerZ_mvl/mxv
 BYTE   W02
 BYTE   VOL   19*FE11EndlessBattleREALxViPerZ_mvl/mxv
 BYTE   W01
 BYTE   VOL   19*FE11EndlessBattleREALxViPerZ_mvl/mxv
 BYTE   W02
 BYTE   VOL   19*FE11EndlessBattleREALxViPerZ_mvl/mxv
 BYTE   W01
//  #06 //038   ----------------------------------------
 BYTE   VOL   19*FE11EndlessBattleREALxViPerZ_mvl/mxv
 BYTE   W02
 BYTE   VOL   19*FE11EndlessBattleREALxViPerZ_mvl/mxv
 BYTE   W01
 BYTE   VOL   19*FE11EndlessBattleREALxViPerZ_mvl/mxv
 BYTE   W02
 BYTE   VOL   19*FE11EndlessBattleREALxViPerZ_mvl/mxv
 BYTE   W01
 BYTE   VOL   19*FE11EndlessBattleREALxViPerZ_mvl/mxv
 BYTE   W02
 BYTE   VOL   19*FE11EndlessBattleREALxViPerZ_mvl/mxv
 BYTE   W01
 BYTE   VOL   19*FE11EndlessBattleREALxViPerZ_mvl/mxv
 BYTE   N44  Gn3  v080
 BYTE   W01
 BYTE   VOL   19*FE11EndlessBattleREALxViPerZ_mvl/mxv
 BYTE   W01
 BYTE   VOL   19*FE11EndlessBattleREALxViPerZ_mvl/mxv
 BYTE   W01
 BYTE   VOL   19*FE11EndlessBattleREALxViPerZ_mvl/mxv
 BYTE   W01
 BYTE   VOL   19*FE11EndlessBattleREALxViPerZ_mvl/mxv
 BYTE   W01
 BYTE   VOL   19*FE11EndlessBattleREALxViPerZ_mvl/mxv
 BYTE   W01
 BYTE   VOL   19*FE11EndlessBattleREALxViPerZ_mvl/mxv
 BYTE   W01
 BYTE   VOL   19*FE11EndlessBattleREALxViPerZ_mvl/mxv
 BYTE   W01
 BYTE   VOL   19*FE11EndlessBattleREALxViPerZ_mvl/mxv
 BYTE   W01
 BYTE   VOL   19*FE11EndlessBattleREALxViPerZ_mvl/mxv
 BYTE   W01
 BYTE   VOL   20*FE11EndlessBattleREALxViPerZ_mvl/mxv
 BYTE   W01
 BYTE   VOL   20*FE11EndlessBattleREALxViPerZ_mvl/mxv
 BYTE   W01
 BYTE   VOL   20*FE11EndlessBattleREALxViPerZ_mvl/mxv
 BYTE   W01
 BYTE   VOL   20*FE11EndlessBattleREALxViPerZ_mvl/mxv
 BYTE   W01
 BYTE   VOL   20*FE11EndlessBattleREALxViPerZ_mvl/mxv
 BYTE   W01
 BYTE   VOL   21*FE11EndlessBattleREALxViPerZ_mvl/mxv
 BYTE   W01
 BYTE   VOL   21*FE11EndlessBattleREALxViPerZ_mvl/mxv
 BYTE   W03
 BYTE   VOL   22*FE11EndlessBattleREALxViPerZ_mvl/mxv
 BYTE   W03
 BYTE   VOL   22*FE11EndlessBattleREALxViPerZ_mvl/mxv
 BYTE   W03
 BYTE   VOL   22*FE11EndlessBattleREALxViPerZ_mvl/mxv
 BYTE   W03
 BYTE   VOL   22*FE11EndlessBattleREALxViPerZ_mvl/mxv
 BYTE   W03
 BYTE   VOL   22*FE11EndlessBattleREALxViPerZ_mvl/mxv
 BYTE   W01
 BYTE   VOL   22*FE11EndlessBattleREALxViPerZ_mvl/mxv
 BYTE   W01
 BYTE   VOL   21*FE11EndlessBattleREALxViPerZ_mvl/mxv
 BYTE   W01
 BYTE   VOL   21*FE11EndlessBattleREALxViPerZ_mvl/mxv
 BYTE   W01
 BYTE   VOL   20*FE11EndlessBattleREALxViPerZ_mvl/mxv
 BYTE   W01
 BYTE   VOL   20*FE11EndlessBattleREALxViPerZ_mvl/mxv
 BYTE   W01
 BYTE   VOL   20*FE11EndlessBattleREALxViPerZ_mvl/mxv
 BYTE   W01
 BYTE   VOL   20*FE11EndlessBattleREALxViPerZ_mvl/mxv
 BYTE   W01
 BYTE   VOL   20*FE11EndlessBattleREALxViPerZ_mvl/mxv
 BYTE   W01
 BYTE   VOL   19*FE11EndlessBattleREALxViPerZ_mvl/mxv
 BYTE   W01
 BYTE   VOL   19*FE11EndlessBattleREALxViPerZ_mvl/mxv
 BYTE   W01
 BYTE   VOL   19*FE11EndlessBattleREALxViPerZ_mvl/mxv
 BYTE   W01
 BYTE   VOL   19*FE11EndlessBattleREALxViPerZ_mvl/mxv
 BYTE   W01
 BYTE   VOL   19*FE11EndlessBattleREALxViPerZ_mvl/mxv
 BYTE   W01
 BYTE   VOL   19*FE11EndlessBattleREALxViPerZ_mvl/mxv
 BYTE   W01
 BYTE   VOL   19*FE11EndlessBattleREALxViPerZ_mvl/mxv
 BYTE   W01
 BYTE   VOL   19*FE11EndlessBattleREALxViPerZ_mvl/mxv
 BYTE   W01
 BYTE   VOL   19*FE11EndlessBattleREALxViPerZ_mvl/mxv
 BYTE   N36  Dn4
 BYTE   W01
 BYTE   VOL   19*FE11EndlessBattleREALxViPerZ_mvl/mxv
 BYTE   W01
 BYTE   VOL   19*FE11EndlessBattleREALxViPerZ_mvl/mxv
 BYTE   W01
 BYTE   VOL   19*FE11EndlessBattleREALxViPerZ_mvl/mxv
 BYTE   W01
 BYTE   VOL   19*FE11EndlessBattleREALxViPerZ_mvl/mxv
 BYTE   W01
 BYTE   VOL   19*FE11EndlessBattleREALxViPerZ_mvl/mxv
 BYTE   W01
 BYTE   VOL   19*FE11EndlessBattleREALxViPerZ_mvl/mxv
 BYTE   W01
 BYTE   VOL   19*FE11EndlessBattleREALxViPerZ_mvl/mxv
 BYTE   W01
 BYTE   VOL   20*FE11EndlessBattleREALxViPerZ_mvl/mxv
 BYTE   W01
 BYTE   VOL   20*FE11EndlessBattleREALxViPerZ_mvl/mxv
 BYTE   W01
 BYTE   VOL   20*FE11EndlessBattleREALxViPerZ_mvl/mxv
 BYTE   W01
 BYTE   VOL   20*FE11EndlessBattleREALxViPerZ_mvl/mxv
 BYTE   W01
 BYTE   VOL   20*FE11EndlessBattleREALxViPerZ_mvl/mxv
 BYTE   W07
 BYTE   VOL   20*FE11EndlessBattleREALxViPerZ_mvl/mxv
 BYTE   W02
 BYTE   VOL   21*FE11EndlessBattleREALxViPerZ_mvl/mxv
 BYTE   W01
 BYTE   VOL   21*FE11EndlessBattleREALxViPerZ_mvl/mxv
 BYTE   W02
 BYTE   VOL   22*FE11EndlessBattleREALxViPerZ_mvl/mxv
 BYTE   W01
 BYTE   VOL   22*FE11EndlessBattleREALxViPerZ_mvl/mxv
 BYTE   W02
 BYTE   VOL   22*FE11EndlessBattleREALxViPerZ_mvl/mxv
 BYTE   W01
 BYTE   VOL   21*FE11EndlessBattleREALxViPerZ_mvl/mxv
 BYTE   W02
 BYTE   VOL   20*FE11EndlessBattleREALxViPerZ_mvl/mxv
 BYTE   W09
//  #06 //039   ----------------------------------------
 BYTE   W01
 BYTE   N03  Cs4
 BYTE   W04
 BYTE   Cn4
 BYTE   W04
 BYTE   N80  Bn3
 BYTE   W04
 BYTE   VOL   20*FE11EndlessBattleREALxViPerZ_mvl/mxv
 BYTE   W03
 BYTE   VOL   20*FE11EndlessBattleREALxViPerZ_mvl/mxv
 BYTE   W03
 BYTE   VOL   20*FE11EndlessBattleREALxViPerZ_mvl/mxv
 BYTE   W03
 BYTE   VOL   20*FE11EndlessBattleREALxViPerZ_mvl/mxv
 BYTE   W03
 BYTE   VOL   20*FE11EndlessBattleREALxViPerZ_mvl/mxv
 BYTE   W03
 BYTE   VOL   20*FE11EndlessBattleREALxViPerZ_mvl/mxv
 BYTE   W03
 BYTE   VOL   20*FE11EndlessBattleREALxViPerZ_mvl/mxv
 BYTE   W03
 BYTE   VOL   20*FE11EndlessBattleREALxViPerZ_mvl/mxv
 BYTE   W03
 BYTE   VOL   20*FE11EndlessBattleREALxViPerZ_mvl/mxv
 BYTE   W03
 BYTE   VOL   20*FE11EndlessBattleREALxViPerZ_mvl/mxv
 BYTE   W03
 BYTE   VOL   20*FE11EndlessBattleREALxViPerZ_mvl/mxv
 BYTE   W03
 BYTE   VOL   20*FE11EndlessBattleREALxViPerZ_mvl/mxv
 BYTE   W03
 BYTE   VOL   20*FE11EndlessBattleREALxViPerZ_mvl/mxv
 BYTE   W03
 BYTE   VOL   19*FE11EndlessBattleREALxViPerZ_mvl/mxv
 BYTE   W03
 BYTE   VOL   19*FE11EndlessBattleREALxViPerZ_mvl/mxv
 BYTE   W01
 BYTE   VOL   19*FE11EndlessBattleREALxViPerZ_mvl/mxv
 BYTE   W02
 BYTE   VOL   19*FE11EndlessBattleREALxViPerZ_mvl/mxv
 BYTE   W01
 BYTE   VOL   19*FE11EndlessBattleREALxViPerZ_mvl/mxv
 BYTE   W02
 BYTE   VOL   19*FE11EndlessBattleREALxViPerZ_mvl/mxv
 BYTE   W01
 BYTE   VOL   19*FE11EndlessBattleREALxViPerZ_mvl/mxv
 BYTE   W02
 BYTE   VOL   19*FE11EndlessBattleREALxViPerZ_mvl/mxv
 BYTE   W01
 BYTE   VOL   19*FE11EndlessBattleREALxViPerZ_mvl/mxv
 BYTE   W02
 BYTE   VOL   19*FE11EndlessBattleREALxViPerZ_mvl/mxv
 BYTE   W01
 BYTE   VOL   19*FE11EndlessBattleREALxViPerZ_mvl/mxv
 BYTE   W02
 BYTE   VOL   19*FE11EndlessBattleREALxViPerZ_mvl/mxv
 BYTE   W01
 BYTE   VOL   19*FE11EndlessBattleREALxViPerZ_mvl/mxv
 BYTE   W02
 BYTE   VOL   19*FE11EndlessBattleREALxViPerZ_mvl/mxv
 BYTE   W01
 BYTE   VOL   19*FE11EndlessBattleREALxViPerZ_mvl/mxv
 BYTE   W02
 BYTE   VOL   19*FE11EndlessBattleREALxViPerZ_mvl/mxv
 BYTE   W01
 BYTE   VOL   19*FE11EndlessBattleREALxViPerZ_mvl/mxv
 BYTE   W02
 BYTE   VOL   19*FE11EndlessBattleREALxViPerZ_mvl/mxv
 BYTE   W01
 BYTE   VOL   19*FE11EndlessBattleREALxViPerZ_mvl/mxv
 BYTE   W02
 BYTE   VOL   19*FE11EndlessBattleREALxViPerZ_mvl/mxv
 BYTE   W01
 BYTE   VOL   19*FE11EndlessBattleREALxViPerZ_mvl/mxv
 BYTE   W02
 BYTE   VOL   19*FE11EndlessBattleREALxViPerZ_mvl/mxv
 BYTE   W01
 BYTE   VOL   19*FE11EndlessBattleREALxViPerZ_mvl/mxv
 BYTE   W02
 BYTE   VOL   19*FE11EndlessBattleREALxViPerZ_mvl/mxv
 BYTE   W01
 BYTE   VOL   19*FE11EndlessBattleREALxViPerZ_mvl/mxv
 BYTE   W02
 BYTE   VOL   19*FE11EndlessBattleREALxViPerZ_mvl/mxv
 BYTE   W01
 BYTE   VOL   19*FE11EndlessBattleREALxViPerZ_mvl/mxv
 BYTE   W02
 BYTE   VOL   19*FE11EndlessBattleREALxViPerZ_mvl/mxv
 BYTE   W01
 BYTE   GoTo
  POIN2 Label_01C84EA0
 BYTE   FINE

//**************** Track 7 (Midi-Chn.6) ****************//

FE11EndlessBattleREALxViPerZ_007:
//  #07 //000   ----------------------------------------
 BYTE   KEYSH   FE11EndlessBattleREALxViPerZ_key+0
 BYTE   VOICE   48
 BYTE   MODT 0
 BYTE   LFOS 44
 BYTE   VOL   87*FE11EndlessBattleREALxViPerZ_mvl/mxv
 BYTE   PAN   c_v-10
 BYTE   VOL   85*FE11EndlessBattleREALxViPerZ_mvl/mxv
 BYTE   BEND   c_v+0
 BYTE   N11  Cn3  v028
 BYTE   W12
 BYTE   Cn3  v004
 BYTE   W24
 BYTE   Cn3  v052
 BYTE   W12
 BYTE   Cn3  v016
 BYTE   W12
 BYTE   Cn3  v004
 BYTE   W12
 BYTE   Cn3  v052
 BYTE   W12
 BYTE   Cn3  v032
 BYTE   W12
//  #07 //001   ----------------------------------------
 BYTE   Cn3  v076
 BYTE   W12
 BYTE   Cn3  v032
 BYTE   W12
 BYTE   Cn3  v012
 BYTE   W12
 BYTE   Cn3  v076
 BYTE   W12
 BYTE   Cn3  v032
 BYTE   W12
 BYTE   Cn3  v012
 BYTE   W12
 BYTE   Cn3  v076
 BYTE   W12
 BYTE   Cn3  v032
 BYTE   W12
//  #07 //002   ----------------------------------------
Label_01C81D02:
 BYTE   VOL   85*FE11EndlessBattleREALxViPerZ_mvl/mxv
 BYTE   W96
//  #07 //003   ----------------------------------------
 BYTE   W96
//  #07 //004   ----------------------------------------
 BYTE   W96
//  #07 //005   ----------------------------------------
 BYTE   W96
//  #07 //006   ----------------------------------------
 BYTE   W96
//  #07 //007   ----------------------------------------
 BYTE   W96
//  #07 //008   ----------------------------------------
 BYTE   W96
//  #07 //009   ----------------------------------------
 BYTE   W96
//  #07 //010   ----------------------------------------
 BYTE   VOL   57*FE11EndlessBattleREALxViPerZ_mvl/mxv
 BYTE   N44  Gn2  v060
 BYTE   W03
 BYTE   VOL   57*FE11EndlessBattleREALxViPerZ_mvl/mxv
 BYTE   W03
 BYTE   VOL   58*FE11EndlessBattleREALxViPerZ_mvl/mxv
 BYTE   W03
 BYTE   VOL   58*FE11EndlessBattleREALxViPerZ_mvl/mxv
 BYTE   W03
 BYTE   VOL   58*FE11EndlessBattleREALxViPerZ_mvl/mxv
 BYTE   W03
 BYTE   VOL   59*FE11EndlessBattleREALxViPerZ_mvl/mxv
 BYTE   W03
 BYTE   VOL   59*FE11EndlessBattleREALxViPerZ_mvl/mxv
 BYTE   W03
 BYTE   VOL   60*FE11EndlessBattleREALxViPerZ_mvl/mxv
 BYTE   W03
 BYTE   VOL   60*FE11EndlessBattleREALxViPerZ_mvl/mxv
 BYTE   W03
 BYTE   VOL   60*FE11EndlessBattleREALxViPerZ_mvl/mxv
 BYTE   W03
 BYTE   VOL   60*FE11EndlessBattleREALxViPerZ_mvl/mxv
 BYTE   W03
 BYTE   VOL   60*FE11EndlessBattleREALxViPerZ_mvl/mxv
 BYTE   W03
 BYTE   VOL   61*FE11EndlessBattleREALxViPerZ_mvl/mxv
 BYTE   W03
 BYTE   VOL   62*FE11EndlessBattleREALxViPerZ_mvl/mxv
 BYTE   W03
 BYTE   VOL   62*FE11EndlessBattleREALxViPerZ_mvl/mxv
 BYTE   W03
 BYTE   VOL   62*FE11EndlessBattleREALxViPerZ_mvl/mxv
 BYTE   W03
 BYTE   VOL   64*FE11EndlessBattleREALxViPerZ_mvl/mxv
 BYTE   N44  Cn3
 BYTE   W03
 BYTE   VOL   64*FE11EndlessBattleREALxViPerZ_mvl/mxv
 BYTE   W03
 BYTE   VOL   64*FE11EndlessBattleREALxViPerZ_mvl/mxv
 BYTE   W03
 BYTE   VOL   65*FE11EndlessBattleREALxViPerZ_mvl/mxv
 BYTE   W03
 BYTE   VOL   65*FE11EndlessBattleREALxViPerZ_mvl/mxv
 BYTE   W03
 BYTE   VOL   65*FE11EndlessBattleREALxViPerZ_mvl/mxv
 BYTE   W03
 BYTE   VOL   66*FE11EndlessBattleREALxViPerZ_mvl/mxv
 BYTE   W03
 BYTE   VOL   67*FE11EndlessBattleREALxViPerZ_mvl/mxv
 BYTE   W03
 BYTE   VOL   68*FE11EndlessBattleREALxViPerZ_mvl/mxv
 BYTE   W03
 BYTE   VOL   68*FE11EndlessBattleREALxViPerZ_mvl/mxv
 BYTE   W03
 BYTE   VOL   68*FE11EndlessBattleREALxViPerZ_mvl/mxv
 BYTE   W03
 BYTE   VOL   69*FE11EndlessBattleREALxViPerZ_mvl/mxv
 BYTE   W03
 BYTE   VOL   70*FE11EndlessBattleREALxViPerZ_mvl/mxv
 BYTE   W03
 BYTE   VOL   71*FE11EndlessBattleREALxViPerZ_mvl/mxv
 BYTE   W03
 BYTE   VOL   71*FE11EndlessBattleREALxViPerZ_mvl/mxv
 BYTE   W03
 BYTE   VOL   72*FE11EndlessBattleREALxViPerZ_mvl/mxv
 BYTE   W03
//  #07 //011   ----------------------------------------
 BYTE   VOL   73*FE11EndlessBattleREALxViPerZ_mvl/mxv
 BYTE   N44  As2
 BYTE   W06
 BYTE   VOL   72*FE11EndlessBattleREALxViPerZ_mvl/mxv
 BYTE   W04
 BYTE   VOL   72*FE11EndlessBattleREALxViPerZ_mvl/mxv
 BYTE   W03
 BYTE   VOL   71*FE11EndlessBattleREALxViPerZ_mvl/mxv
 BYTE   W03
 BYTE   VOL   71*FE11EndlessBattleREALxViPerZ_mvl/mxv
 BYTE   W03
 BYTE   VOL   71*FE11EndlessBattleREALxViPerZ_mvl/mxv
 BYTE   W04
 BYTE   VOL   70*FE11EndlessBattleREALxViPerZ_mvl/mxv
 BYTE   W03
 BYTE   VOL   69*FE11EndlessBattleREALxViPerZ_mvl/mxv
 BYTE   W03
 BYTE   VOL   69*FE11EndlessBattleREALxViPerZ_mvl/mxv
 BYTE   W03
 BYTE   VOL   68*FE11EndlessBattleREALxViPerZ_mvl/mxv
 BYTE   W03
 BYTE   VOL   68*FE11EndlessBattleREALxViPerZ_mvl/mxv
 BYTE   W04
 BYTE   VOL   68*FE11EndlessBattleREALxViPerZ_mvl/mxv
 BYTE   W03
 BYTE   VOL   68*FE11EndlessBattleREALxViPerZ_mvl/mxv
 BYTE   W03
 BYTE   VOL   67*FE11EndlessBattleREALxViPerZ_mvl/mxv
 BYTE   W03
 BYTE   VOL   67*FE11EndlessBattleREALxViPerZ_mvl/mxv
 BYTE   N44  Fn2
 BYTE   W04
 BYTE   VOL   66*FE11EndlessBattleREALxViPerZ_mvl/mxv
 BYTE   W03
 BYTE   VOL   65*FE11EndlessBattleREALxViPerZ_mvl/mxv
 BYTE   W03
 BYTE   VOL   65*FE11EndlessBattleREALxViPerZ_mvl/mxv
 BYTE   W03
 BYTE   VOL   65*FE11EndlessBattleREALxViPerZ_mvl/mxv
 BYTE   W03
 BYTE   VOL   65*FE11EndlessBattleREALxViPerZ_mvl/mxv
 BYTE   W04
 BYTE   VOL   64*FE11EndlessBattleREALxViPerZ_mvl/mxv
 BYTE   W03
 BYTE   VOL   64*FE11EndlessBattleREALxViPerZ_mvl/mxv
 BYTE   W03
 BYTE   VOL   64*FE11EndlessBattleREALxViPerZ_mvl/mxv
 BYTE   W03
 BYTE   VOL   64*FE11EndlessBattleREALxViPerZ_mvl/mxv
 BYTE   W04
 BYTE   VOL   63*FE11EndlessBattleREALxViPerZ_mvl/mxv
 BYTE   W03
 BYTE   VOL   62*FE11EndlessBattleREALxViPerZ_mvl/mxv
 BYTE   W03
 BYTE   VOL   62*FE11EndlessBattleREALxViPerZ_mvl/mxv
 BYTE   W03
 BYTE   VOL   62*FE11EndlessBattleREALxViPerZ_mvl/mxv
 BYTE   W03
 BYTE   VOL   62*FE11EndlessBattleREALxViPerZ_mvl/mxv
 BYTE   W03
//  #07 //012   ----------------------------------------
 BYTE   N32
 BYTE   W01
 BYTE   VOL   61*FE11EndlessBattleREALxViPerZ_mvl/mxv
 BYTE   W03
 BYTE   VOL   60*FE11EndlessBattleREALxViPerZ_mvl/mxv
 BYTE   W03
 BYTE   VOL   60*FE11EndlessBattleREALxViPerZ_mvl/mxv
 BYTE   W03
 BYTE   VOL   60*FE11EndlessBattleREALxViPerZ_mvl/mxv
 BYTE   W04
 BYTE   VOL   60*FE11EndlessBattleREALxViPerZ_mvl/mxv
 BYTE   W01
 BYTE   VOL   60*FE11EndlessBattleREALxViPerZ_mvl/mxv
 BYTE   W02
 BYTE   VOL   60*FE11EndlessBattleREALxViPerZ_mvl/mxv
 BYTE   W01
 BYTE   VOL   62*FE11EndlessBattleREALxViPerZ_mvl/mxv
 BYTE   W02
 BYTE   VOL   62*FE11EndlessBattleREALxViPerZ_mvl/mxv
 BYTE   W01
 BYTE   VOL   63*FE11EndlessBattleREALxViPerZ_mvl/mxv
 BYTE   W02
 BYTE   VOL   64*FE11EndlessBattleREALxViPerZ_mvl/mxv
 BYTE   W01
 BYTE   VOL   64*FE11EndlessBattleREALxViPerZ_mvl/mxv
 BYTE   W02
 BYTE   VOL   65*FE11EndlessBattleREALxViPerZ_mvl/mxv
 BYTE   W01
 BYTE   VOL   65*FE11EndlessBattleREALxViPerZ_mvl/mxv
 BYTE   W02
 BYTE   VOL   67*FE11EndlessBattleREALxViPerZ_mvl/mxv
 BYTE   W01
 BYTE   VOL   68*FE11EndlessBattleREALxViPerZ_mvl/mxv
 BYTE   W02
 BYTE   VOL   68*FE11EndlessBattleREALxViPerZ_mvl/mxv
 BYTE   W01
 BYTE   VOL   69*FE11EndlessBattleREALxViPerZ_mvl/mxv
 BYTE   W02
 BYTE   VOL   70*FE11EndlessBattleREALxViPerZ_mvl/mxv
 BYTE   W01
 BYTE   VOL   71*FE11EndlessBattleREALxViPerZ_mvl/mxv
 BYTE   N02  Gn2
 BYTE   W02
 BYTE   VOL   72*FE11EndlessBattleREALxViPerZ_mvl/mxv
 BYTE   W01
 BYTE   VOL   73*FE11EndlessBattleREALxViPerZ_mvl/mxv
 BYTE   N02  An2
 BYTE   W02
 BYTE   VOL   74*FE11EndlessBattleREALxViPerZ_mvl/mxv
 BYTE   W01
 BYTE   VOL   74*FE11EndlessBattleREALxViPerZ_mvl/mxv
 BYTE   N02  As2
 BYTE   W02
 BYTE   VOL   76*FE11EndlessBattleREALxViPerZ_mvl/mxv
 BYTE   W01
 BYTE   VOL   77*FE11EndlessBattleREALxViPerZ_mvl/mxv
 BYTE   N02  Cn3
 BYTE   W02
 BYTE   VOL   78*FE11EndlessBattleREALxViPerZ_mvl/mxv
 BYTE   W01
 BYTE   VOL   81*FE11EndlessBattleREALxViPerZ_mvl/mxv
 BYTE   N17  Dn3
 BYTE   W18
 BYTE   Ds3
 BYTE   W12
 BYTE   VOL   81*FE11EndlessBattleREALxViPerZ_mvl/mxv
 BYTE   W06
 BYTE   N11  Fn3
 BYTE   W09
 BYTE   VOL   82*FE11EndlessBattleREALxViPerZ_mvl/mxv
 BYTE   W03
//  #07 //013   ----------------------------------------
 BYTE   N17  Gn3
 BYTE   W12
 BYTE   VOL   82*FE11EndlessBattleREALxViPerZ_mvl/mxv
 BYTE   W06
 BYTE   N05  Fn3
 BYTE   W06
 BYTE   N68  Cn3
 BYTE   W03
 BYTE   VOL   83*FE11EndlessBattleREALxViPerZ_mvl/mxv
 BYTE   W03
 BYTE   VOL   82*FE11EndlessBattleREALxViPerZ_mvl/mxv
 BYTE   W03
 BYTE   VOL   82*FE11EndlessBattleREALxViPerZ_mvl/mxv
 BYTE   W03
 BYTE   VOL   81*FE11EndlessBattleREALxViPerZ_mvl/mxv
 BYTE   W03
 BYTE   VOL   81*FE11EndlessBattleREALxViPerZ_mvl/mxv
 BYTE   W03
 BYTE   VOL   78*FE11EndlessBattleREALxViPerZ_mvl/mxv
 BYTE   W03
 BYTE   VOL   77*FE11EndlessBattleREALxViPerZ_mvl/mxv
 BYTE   W03
 BYTE   VOL   77*FE11EndlessBattleREALxViPerZ_mvl/mxv
 BYTE   W03
 BYTE   VOL   76*FE11EndlessBattleREALxViPerZ_mvl/mxv
 BYTE   W03
 BYTE   VOL   76*FE11EndlessBattleREALxViPerZ_mvl/mxv
 BYTE   W03
 BYTE   VOL   74*FE11EndlessBattleREALxViPerZ_mvl/mxv
 BYTE   W03
 BYTE   VOL   74*FE11EndlessBattleREALxViPerZ_mvl/mxv
 BYTE   W03
 BYTE   VOL   73*FE11EndlessBattleREALxViPerZ_mvl/mxv
 BYTE   W03
 BYTE   VOL   72*FE11EndlessBattleREALxViPerZ_mvl/mxv
 BYTE   W01
 BYTE   VOL   72*FE11EndlessBattleREALxViPerZ_mvl/mxv
 BYTE   W02
 BYTE   VOL   71*FE11EndlessBattleREALxViPerZ_mvl/mxv
 BYTE   W01
 BYTE   VOL   69*FE11EndlessBattleREALxViPerZ_mvl/mxv
 BYTE   W02
 BYTE   VOL   68*FE11EndlessBattleREALxViPerZ_mvl/mxv
 BYTE   W01
 BYTE   VOL   68*FE11EndlessBattleREALxViPerZ_mvl/mxv
 BYTE   W02
 BYTE   VOL   67*FE11EndlessBattleREALxViPerZ_mvl/mxv
 BYTE   W01
 BYTE   VOL   65*FE11EndlessBattleREALxViPerZ_mvl/mxv
 BYTE   W02
 BYTE   VOL   65*FE11EndlessBattleREALxViPerZ_mvl/mxv
 BYTE   W01
 BYTE   VOL   64*FE11EndlessBattleREALxViPerZ_mvl/mxv
 BYTE   W02
 BYTE   VOL   63*FE11EndlessBattleREALxViPerZ_mvl/mxv
 BYTE   W01
 BYTE   VOL   62*FE11EndlessBattleREALxViPerZ_mvl/mxv
 BYTE   W02
 BYTE   VOL   61*FE11EndlessBattleREALxViPerZ_mvl/mxv
 BYTE   W01
 BYTE   VOL   60*FE11EndlessBattleREALxViPerZ_mvl/mxv
 BYTE   W02
 BYTE   VOL   60*FE11EndlessBattleREALxViPerZ_mvl/mxv
 BYTE   W01
 BYTE   VOL   59*FE11EndlessBattleREALxViPerZ_mvl/mxv
 BYTE   W02
 BYTE   VOL   59*FE11EndlessBattleREALxViPerZ_mvl/mxv
 BYTE   W01
 BYTE   VOL   58*FE11EndlessBattleREALxViPerZ_mvl/mxv
 BYTE   W02
 BYTE   VOL   58*FE11EndlessBattleREALxViPerZ_mvl/mxv
 BYTE   W01
 BYTE   VOL   57*FE11EndlessBattleREALxViPerZ_mvl/mxv
 BYTE   W02
//  #07 //014   ----------------------------------------
 BYTE   VOL   57*FE11EndlessBattleREALxViPerZ_mvl/mxv
 BYTE   N44  Gs2
 BYTE   W01
 BYTE   VOL   56*FE11EndlessBattleREALxViPerZ_mvl/mxv
 BYTE   W02
 BYTE   VOL   56*FE11EndlessBattleREALxViPerZ_mvl/mxv
 BYTE   W01
 BYTE   VOL   55*FE11EndlessBattleREALxViPerZ_mvl/mxv
 BYTE   W02
 BYTE   VOL   55*FE11EndlessBattleREALxViPerZ_mvl/mxv
 BYTE   W01
 BYTE   VOL   56*FE11EndlessBattleREALxViPerZ_mvl/mxv
 BYTE   W02
 BYTE   VOL   56*FE11EndlessBattleREALxViPerZ_mvl/mxv
 BYTE   W01
 BYTE   VOL   57*FE11EndlessBattleREALxViPerZ_mvl/mxv
 BYTE   W02
 BYTE   VOL   58*FE11EndlessBattleREALxViPerZ_mvl/mxv
 BYTE   W01
 BYTE   VOL   58*FE11EndlessBattleREALxViPerZ_mvl/mxv
 BYTE   W02
 BYTE   VOL   60*FE11EndlessBattleREALxViPerZ_mvl/mxv
 BYTE   W01
 BYTE   VOL   60*FE11EndlessBattleREALxViPerZ_mvl/mxv
 BYTE   W02
 BYTE   VOL   61*FE11EndlessBattleREALxViPerZ_mvl/mxv
 BYTE   W01
 BYTE   VOL   62*FE11EndlessBattleREALxViPerZ_mvl/mxv
 BYTE   W02
 BYTE   VOL   64*FE11EndlessBattleREALxViPerZ_mvl/mxv
 BYTE   W01
 BYTE   VOL   65*FE11EndlessBattleREALxViPerZ_mvl/mxv
 BYTE   W04
 BYTE   VOL   65*FE11EndlessBattleREALxViPerZ_mvl/mxv
 BYTE   W04
 BYTE   VOL   65*FE11EndlessBattleREALxViPerZ_mvl/mxv
 BYTE   W04
 BYTE   VOL   66*FE11EndlessBattleREALxViPerZ_mvl/mxv
 BYTE   W04
 BYTE   VOL   67*FE11EndlessBattleREALxViPerZ_mvl/mxv
 BYTE   W04
 BYTE   VOL   67*FE11EndlessBattleREALxViPerZ_mvl/mxv
 BYTE   W04
 BYTE   VOL   68*FE11EndlessBattleREALxViPerZ_mvl/mxv
 BYTE   W02
 BYTE   N36  Cn3
 BYTE   W08
 BYTE   VOL   68*FE11EndlessBattleREALxViPerZ_mvl/mxv
 BYTE   W06
 BYTE   VOL   68*FE11EndlessBattleREALxViPerZ_mvl/mxv
 BYTE   W05
 BYTE   VOL   68*FE11EndlessBattleREALxViPerZ_mvl/mxv
 BYTE   W06
 BYTE   VOL   69*FE11EndlessBattleREALxViPerZ_mvl/mxv
 BYTE   W05
 BYTE   VOL   69*FE11EndlessBattleREALxViPerZ_mvl/mxv
 BYTE   W06
 BYTE   VOL   70*FE11EndlessBattleREALxViPerZ_mvl/mxv
 BYTE   W03
 BYTE   N02  Dn3  v076
 BYTE   W02
 BYTE   VOL   71*FE11EndlessBattleREALxViPerZ_mvl/mxv
 BYTE   W01
 BYTE   N02  Ds3
 BYTE   W03
 BYTE   En3
 BYTE   W01
 BYTE   VOL   71*FE11EndlessBattleREALxViPerZ_mvl/mxv
 BYTE   W02
//  #07 //015   ----------------------------------------
 BYTE   N44  Fn3  v060
 BYTE   W30
 BYTE   VOL   72*FE11EndlessBattleREALxViPerZ_mvl/mxv
 BYTE   W07
 BYTE   VOL   71*FE11EndlessBattleREALxViPerZ_mvl/mxv
 BYTE   W03
 BYTE   VOL   71*FE11EndlessBattleREALxViPerZ_mvl/mxv
 BYTE   W03
 BYTE   VOL   71*FE11EndlessBattleREALxViPerZ_mvl/mxv
 BYTE   W04
 BYTE   VOL   70*FE11EndlessBattleREALxViPerZ_mvl/mxv
 BYTE   W01
 BYTE   N44  Cn3
 BYTE   W02
 BYTE   VOL   69*FE11EndlessBattleREALxViPerZ_mvl/mxv
 BYTE   W03
 BYTE   VOL   69*FE11EndlessBattleREALxViPerZ_mvl/mxv
 BYTE   W03
 BYTE   VOL   68*FE11EndlessBattleREALxViPerZ_mvl/mxv
 BYTE   W04
 BYTE   VOL   68*FE11EndlessBattleREALxViPerZ_mvl/mxv
 BYTE   W03
 BYTE   VOL   68*FE11EndlessBattleREALxViPerZ_mvl/mxv
 BYTE   W03
 BYTE   VOL   68*FE11EndlessBattleREALxViPerZ_mvl/mxv
 BYTE   W04
 BYTE   VOL   67*FE11EndlessBattleREALxViPerZ_mvl/mxv
 BYTE   W03
 BYTE   VOL   67*FE11EndlessBattleREALxViPerZ_mvl/mxv
 BYTE   W03
 BYTE   VOL   66*FE11EndlessBattleREALxViPerZ_mvl/mxv
 BYTE   W03
 BYTE   VOL   65*FE11EndlessBattleREALxViPerZ_mvl/mxv
 BYTE   W04
 BYTE   VOL   65*FE11EndlessBattleREALxViPerZ_mvl/mxv
 BYTE   W03
 BYTE   VOL   65*FE11EndlessBattleREALxViPerZ_mvl/mxv
 BYTE   W03
 BYTE   VOL   65*FE11EndlessBattleREALxViPerZ_mvl/mxv
 BYTE   W04
 BYTE   VOL   64*FE11EndlessBattleREALxViPerZ_mvl/mxv
 BYTE   W03
//  #07 //016   ----------------------------------------
 BYTE   VOL   64*FE11EndlessBattleREALxViPerZ_mvl/mxv
 BYTE   N44
 BYTE   W03
 BYTE   VOL   64*FE11EndlessBattleREALxViPerZ_mvl/mxv
 BYTE   W09
 BYTE   VOL   64*FE11EndlessBattleREALxViPerZ_mvl/mxv
 BYTE   W04
 BYTE   VOL   64*FE11EndlessBattleREALxViPerZ_mvl/mxv
 BYTE   W04
 BYTE   VOL   64*FE11EndlessBattleREALxViPerZ_mvl/mxv
 BYTE   W04
 BYTE   VOL   65*FE11EndlessBattleREALxViPerZ_mvl/mxv
 BYTE   W04
 BYTE   VOL   65*FE11EndlessBattleREALxViPerZ_mvl/mxv
 BYTE   W04
 BYTE   VOL   65*FE11EndlessBattleREALxViPerZ_mvl/mxv
 BYTE   W04
 BYTE   VOL   65*FE11EndlessBattleREALxViPerZ_mvl/mxv
 BYTE   W04
 BYTE   VOL   66*FE11EndlessBattleREALxViPerZ_mvl/mxv
 BYTE   W05
 BYTE   VOL   67*FE11EndlessBattleREALxViPerZ_mvl/mxv
 BYTE   W03
 BYTE   N17  An2
 BYTE   W01
 BYTE   VOL   67*FE11EndlessBattleREALxViPerZ_mvl/mxv
 BYTE   W04
 BYTE   VOL   68*FE11EndlessBattleREALxViPerZ_mvl/mxv
 BYTE   W04
 BYTE   VOL   68*FE11EndlessBattleREALxViPerZ_mvl/mxv
 BYTE   W04
 BYTE   VOL   68*FE11EndlessBattleREALxViPerZ_mvl/mxv
 BYTE   W04
 BYTE   VOL   68*FE11EndlessBattleREALxViPerZ_mvl/mxv
 BYTE   W01
 BYTE   N02  As2
 BYTE   W03
 BYTE   VOL   69*FE11EndlessBattleREALxViPerZ_mvl/mxv
 BYTE   N02  Bn2
 BYTE   W03
 BYTE   N23  Cn3
 BYTE   W02
 BYTE   VOL   69*FE11EndlessBattleREALxViPerZ_mvl/mxv
 BYTE   W04
 BYTE   VOL   70*FE11EndlessBattleREALxViPerZ_mvl/mxv
 BYTE   W04
 BYTE   VOL   71*FE11EndlessBattleREALxViPerZ_mvl/mxv
 BYTE   W04
 BYTE   VOL   71*FE11EndlessBattleREALxViPerZ_mvl/mxv
 BYTE   W04
 BYTE   VOL   71*FE11EndlessBattleREALxViPerZ_mvl/mxv
 BYTE   W04
 BYTE   VOL   72*FE11EndlessBattleREALxViPerZ_mvl/mxv
 BYTE   W02
//  #07 //017   ----------------------------------------
 BYTE   N48
 BYTE   W02
 BYTE   VOL   73*FE11EndlessBattleREALxViPerZ_mvl/mxv
 BYTE   W06
 BYTE   VOL   72*FE11EndlessBattleREALxViPerZ_mvl/mxv
 BYTE   W06
 BYTE   VOL   72*FE11EndlessBattleREALxViPerZ_mvl/mxv
 BYTE   W06
 BYTE   VOL   71*FE11EndlessBattleREALxViPerZ_mvl/mxv
 BYTE   W05
 BYTE   VOL   71*FE11EndlessBattleREALxViPerZ_mvl/mxv
 BYTE   W06
 BYTE   VOL   71*FE11EndlessBattleREALxViPerZ_mvl/mxv
 BYTE   W06
 BYTE   VOL   70*FE11EndlessBattleREALxViPerZ_mvl/mxv
 BYTE   W06
 BYTE   VOL   69*FE11EndlessBattleREALxViPerZ_mvl/mxv
 BYTE   W05
 BYTE   VOL   69*FE11EndlessBattleREALxViPerZ_mvl/mxv
 BYTE   N30  Bn2
 BYTE   W02
 BYTE   VOL   68*FE11EndlessBattleREALxViPerZ_mvl/mxv
 BYTE   W01
 BYTE   VOL   68*FE11EndlessBattleREALxViPerZ_mvl/mxv
 BYTE   W02
 BYTE   VOL   68*FE11EndlessBattleREALxViPerZ_mvl/mxv
 BYTE   W01
 BYTE   VOL   67*FE11EndlessBattleREALxViPerZ_mvl/mxv
 BYTE   W02
 BYTE   VOL   65*FE11EndlessBattleREALxViPerZ_mvl/mxv
 BYTE   W01
 BYTE   VOL   65*FE11EndlessBattleREALxViPerZ_mvl/mxv
 BYTE   W02
 BYTE   VOL   65*FE11EndlessBattleREALxViPerZ_mvl/mxv
 BYTE   W01
 BYTE   VOL   64*FE11EndlessBattleREALxViPerZ_mvl/mxv
 BYTE   W02
 BYTE   VOL   64*FE11EndlessBattleREALxViPerZ_mvl/mxv
 BYTE   W01
 BYTE   VOL   63*FE11EndlessBattleREALxViPerZ_mvl/mxv
 BYTE   W02
 BYTE   VOL   62*FE11EndlessBattleREALxViPerZ_mvl/mxv
 BYTE   W01
 BYTE   VOL   62*FE11EndlessBattleREALxViPerZ_mvl/mxv
 BYTE   W02
 BYTE   VOL   61*FE11EndlessBattleREALxViPerZ_mvl/mxv
 BYTE   W01
 BYTE   VOL   60*FE11EndlessBattleREALxViPerZ_mvl/mxv
 BYTE   W01
 BYTE   VOL   60*FE11EndlessBattleREALxViPerZ_mvl/mxv
 BYTE   W02
 BYTE   VOL   59*FE11EndlessBattleREALxViPerZ_mvl/mxv
 BYTE   W01
 BYTE   VOL   58*FE11EndlessBattleREALxViPerZ_mvl/mxv
 BYTE   W02
 BYTE   VOL   57*FE11EndlessBattleREALxViPerZ_mvl/mxv
 BYTE   W01
 BYTE   VOL   56*FE11EndlessBattleREALxViPerZ_mvl/mxv
 BYTE   W02
 BYTE   VOL   55*FE11EndlessBattleREALxViPerZ_mvl/mxv
 BYTE   W01
 BYTE   VOL   55*FE11EndlessBattleREALxViPerZ_mvl/mxv
 BYTE   W02
 BYTE   VOL   54*FE11EndlessBattleREALxViPerZ_mvl/mxv
 BYTE   W01
 BYTE   VOL   54*FE11EndlessBattleREALxViPerZ_mvl/mxv
 BYTE   W02
 BYTE   VOL   54*FE11EndlessBattleREALxViPerZ_mvl/mxv
 BYTE   W01
 BYTE   VOL   54*FE11EndlessBattleREALxViPerZ_mvl/mxv
 BYTE   W02
 BYTE   VOL   54*FE11EndlessBattleREALxViPerZ_mvl/mxv
 BYTE   W01
 BYTE   VOL   55*FE11EndlessBattleREALxViPerZ_mvl/mxv
 BYTE   W01
 BYTE   VOL   57*FE11EndlessBattleREALxViPerZ_mvl/mxv
 BYTE   W01
 BYTE   VOL   65*FE11EndlessBattleREALxViPerZ_mvl/mxv
 BYTE   W03
 BYTE   VOL   65*FE11EndlessBattleREALxViPerZ_mvl/mxv
 BYTE   W03
//  #07 //018   ----------------------------------------
 BYTE   VOL   67*FE11EndlessBattleREALxViPerZ_mvl/mxv
 BYTE   N44  Gn2  v127
 BYTE   W03
 BYTE   VOL   68*FE11EndlessBattleREALxViPerZ_mvl/mxv
 BYTE   W03
 BYTE   VOL   69*FE11EndlessBattleREALxViPerZ_mvl/mxv
 BYTE   W03
 BYTE   VOL   71*FE11EndlessBattleREALxViPerZ_mvl/mxv
 BYTE   W03
 BYTE   VOL   72*FE11EndlessBattleREALxViPerZ_mvl/mxv
 BYTE   W03
 BYTE   VOL   73*FE11EndlessBattleREALxViPerZ_mvl/mxv
 BYTE   W03
 BYTE   VOL   74*FE11EndlessBattleREALxViPerZ_mvl/mxv
 BYTE   W03
 BYTE   VOL   77*FE11EndlessBattleREALxViPerZ_mvl/mxv
 BYTE   W03
 BYTE   VOL   78*FE11EndlessBattleREALxViPerZ_mvl/mxv
 BYTE   W03
 BYTE   VOL   81*FE11EndlessBattleREALxViPerZ_mvl/mxv
 BYTE   W03
 BYTE   VOL   82*FE11EndlessBattleREALxViPerZ_mvl/mxv
 BYTE   W03
 BYTE   VOL   84*FE11EndlessBattleREALxViPerZ_mvl/mxv
 BYTE   W03
 BYTE   VOL   86*FE11EndlessBattleREALxViPerZ_mvl/mxv
 BYTE   W12
 BYTE   N44  Cn3
 BYTE   W04
 BYTE   VOL   86*FE11EndlessBattleREALxViPerZ_mvl/mxv
 BYTE   W03
 BYTE   VOL   85*FE11EndlessBattleREALxViPerZ_mvl/mxv
 BYTE   W03
 BYTE   VOL   83*FE11EndlessBattleREALxViPerZ_mvl/mxv
 BYTE   W03
 BYTE   VOL   82*FE11EndlessBattleREALxViPerZ_mvl/mxv
 BYTE   W03
 BYTE   VOL   81*FE11EndlessBattleREALxViPerZ_mvl/mxv
 BYTE   W03
 BYTE   VOL   79*FE11EndlessBattleREALxViPerZ_mvl/mxv
 BYTE   W03
 BYTE   VOL   77*FE11EndlessBattleREALxViPerZ_mvl/mxv
 BYTE   W02
 BYTE   VOL   77*FE11EndlessBattleREALxViPerZ_mvl/mxv
 BYTE   W03
 BYTE   VOL   77*FE11EndlessBattleREALxViPerZ_mvl/mxv
 BYTE   W03
 BYTE   VOL   78*FE11EndlessBattleREALxViPerZ_mvl/mxv
 BYTE   W03
 BYTE   VOL   81*FE11EndlessBattleREALxViPerZ_mvl/mxv
 BYTE   W03
 BYTE   VOL   82*FE11EndlessBattleREALxViPerZ_mvl/mxv
 BYTE   W03
 BYTE   VOL   82*FE11EndlessBattleREALxViPerZ_mvl/mxv
 BYTE   W03
 BYTE   VOL   84*FE11EndlessBattleREALxViPerZ_mvl/mxv
 BYTE   W03
 BYTE   VOL   85*FE11EndlessBattleREALxViPerZ_mvl/mxv
 BYTE   W03
//  #07 //019   ----------------------------------------
 BYTE   VOL   87*FE11EndlessBattleREALxViPerZ_mvl/mxv
 BYTE   W15
 BYTE   VOL   87*FE11EndlessBattleREALxViPerZ_mvl/mxv
 BYTE   W01
 BYTE   VOL   84*FE11EndlessBattleREALxViPerZ_mvl/mxv
 BYTE   W02
 BYTE   VOL   81*FE11EndlessBattleREALxViPerZ_mvl/mxv
 BYTE   W01
 BYTE   VOL   77*FE11EndlessBattleREALxViPerZ_mvl/mxv
 BYTE   W02
 BYTE   VOL   73*FE11EndlessBattleREALxViPerZ_mvl/mxv
 BYTE   W03
 BYTE   VOL   74*FE11EndlessBattleREALxViPerZ_mvl/mxv
 BYTE   N23
 BYTE   W03
 BYTE   VOL   76*FE11EndlessBattleREALxViPerZ_mvl/mxv
 BYTE   W03
 BYTE   VOL   77*FE11EndlessBattleREALxViPerZ_mvl/mxv
 BYTE   W03
 BYTE   VOL   79*FE11EndlessBattleREALxViPerZ_mvl/mxv
 BYTE   W03
 BYTE   VOL   82*FE11EndlessBattleREALxViPerZ_mvl/mxv
 BYTE   W03
 BYTE   VOL   82*FE11EndlessBattleREALxViPerZ_mvl/mxv
 BYTE   W03
 BYTE   VOL   85*FE11EndlessBattleREALxViPerZ_mvl/mxv
 BYTE   W03
 BYTE   VOL   87*FE11EndlessBattleREALxViPerZ_mvl/mxv
 BYTE   W03
 BYTE   N23  Dn3
 BYTE   W24
 BYTE   As2
 BYTE   W24
//  #07 //020   ----------------------------------------
 BYTE   N44  Gn2
 BYTE   W05
 BYTE   VOL   87*FE11EndlessBattleREALxViPerZ_mvl/mxv
 BYTE   W03
 BYTE   VOL   86*FE11EndlessBattleREALxViPerZ_mvl/mxv
 BYTE   W03
 BYTE   VOL   85*FE11EndlessBattleREALxViPerZ_mvl/mxv
 BYTE   W03
 BYTE   VOL   84*FE11EndlessBattleREALxViPerZ_mvl/mxv
 BYTE   W03
 BYTE   VOL   82*FE11EndlessBattleREALxViPerZ_mvl/mxv
 BYTE   W03
 BYTE   VOL   82*FE11EndlessBattleREALxViPerZ_mvl/mxv
 BYTE   W03
 BYTE   VOL   81*FE11EndlessBattleREALxViPerZ_mvl/mxv
 BYTE   W02
 BYTE   VOL   81*FE11EndlessBattleREALxViPerZ_mvl/mxv
 BYTE   W03
 BYTE   VOL   81*FE11EndlessBattleREALxViPerZ_mvl/mxv
 BYTE   W03
 BYTE   VOL   82*FE11EndlessBattleREALxViPerZ_mvl/mxv
 BYTE   W03
 BYTE   VOL   82*FE11EndlessBattleREALxViPerZ_mvl/mxv
 BYTE   W03
 BYTE   VOL   83*FE11EndlessBattleREALxViPerZ_mvl/mxv
 BYTE   W03
 BYTE   VOL   84*FE11EndlessBattleREALxViPerZ_mvl/mxv
 BYTE   W03
 BYTE   VOL   85*FE11EndlessBattleREALxViPerZ_mvl/mxv
 BYTE   W03
 BYTE   VOL   85*FE11EndlessBattleREALxViPerZ_mvl/mxv
 BYTE   W02
 BYTE   N32  Ds2
 BYTE   W01
 BYTE   VOL   87*FE11EndlessBattleREALxViPerZ_mvl/mxv
 BYTE   W32
 BYTE   W03
 BYTE   N05  Fn2
 BYTE   W06
 BYTE   Gn2
 BYTE   W06
//  #07 //021   ----------------------------------------
 BYTE   N44  Fn2
 BYTE   W01
 BYTE   VOL   87*FE11EndlessBattleREALxViPerZ_mvl/mxv
 BYTE   W05
 BYTE   VOL   86*FE11EndlessBattleREALxViPerZ_mvl/mxv
 BYTE   W05
 BYTE   VOL   85*FE11EndlessBattleREALxViPerZ_mvl/mxv
 BYTE   W04
 BYTE   VOL   85*FE11EndlessBattleREALxViPerZ_mvl/mxv
 BYTE   W05
 BYTE   VOL   84*FE11EndlessBattleREALxViPerZ_mvl/mxv
 BYTE   W05
 BYTE   VOL   83*FE11EndlessBattleREALxViPerZ_mvl/mxv
 BYTE   W05
 BYTE   VOL   82*FE11EndlessBattleREALxViPerZ_mvl/mxv
 BYTE   W04
 BYTE   VOL   82*FE11EndlessBattleREALxViPerZ_mvl/mxv
 BYTE   W05
 BYTE   VOL   82*FE11EndlessBattleREALxViPerZ_mvl/mxv
 BYTE   W03
 BYTE   VOL   81*FE11EndlessBattleREALxViPerZ_mvl/mxv
 BYTE   W03
 BYTE   VOL   79*FE11EndlessBattleREALxViPerZ_mvl/mxv
 BYTE   W03
 BYTE   VOL   77*FE11EndlessBattleREALxViPerZ_mvl/mxv
 BYTE   W03
 BYTE   VOL   77*FE11EndlessBattleREALxViPerZ_mvl/mxv
 BYTE   W03
 BYTE   VOL   76*FE11EndlessBattleREALxViPerZ_mvl/mxv
 BYTE   W02
 BYTE   VOL   74*FE11EndlessBattleREALxViPerZ_mvl/mxv
 BYTE   W02
 BYTE   VOL   76*FE11EndlessBattleREALxViPerZ_mvl/mxv
 BYTE   W01
 BYTE   VOL   77*FE11EndlessBattleREALxViPerZ_mvl/mxv
 BYTE   W01
 BYTE   N23  Cn2
 BYTE   W01
 BYTE   VOL   77*FE11EndlessBattleREALxViPerZ_mvl/mxv
 BYTE   W01
 BYTE   VOL   78*FE11EndlessBattleREALxViPerZ_mvl/mxv
 BYTE   W02
 BYTE   VOL   79*FE11EndlessBattleREALxViPerZ_mvl/mxv
 BYTE   W01
 BYTE   VOL   81*FE11EndlessBattleREALxViPerZ_mvl/mxv
 BYTE   W02
 BYTE   VOL   82*FE11EndlessBattleREALxViPerZ_mvl/mxv
 BYTE   W01
 BYTE   VOL   82*FE11EndlessBattleREALxViPerZ_mvl/mxv
 BYTE   W02
 BYTE   VOL   83*FE11EndlessBattleREALxViPerZ_mvl/mxv
 BYTE   W01
 BYTE   VOL   85*FE11EndlessBattleREALxViPerZ_mvl/mxv
 BYTE   W02
 BYTE   VOL   86*FE11EndlessBattleREALxViPerZ_mvl/mxv
 BYTE   W11
 BYTE   N11  Dn2
 BYTE   W12
//  #07 //022   ----------------------------------------
 BYTE   N44  Ds2
 BYTE   W48
 BYTE   N23  Fn2
 BYTE   W24
 BYTE   Gn2
 BYTE   W24
//  #07 //023   ----------------------------------------
 BYTE   N44  As2
 BYTE   W06
 BYTE   VOL   86*FE11EndlessBattleREALxViPerZ_mvl/mxv
 BYTE   W03
 BYTE   VOL   85*FE11EndlessBattleREALxViPerZ_mvl/mxv
 BYTE   W03
 BYTE   VOL   84*FE11EndlessBattleREALxViPerZ_mvl/mxv
 BYTE   W03
 BYTE   VOL   82*FE11EndlessBattleREALxViPerZ_mvl/mxv
 BYTE   W03
 BYTE   VOL   82*FE11EndlessBattleREALxViPerZ_mvl/mxv
 BYTE   W03
 BYTE   VOL   81*FE11EndlessBattleREALxViPerZ_mvl/mxv
 BYTE   W01
 BYTE   VOL   79*FE11EndlessBattleREALxViPerZ_mvl/mxv
 BYTE   W03
 BYTE   VOL   81*FE11EndlessBattleREALxViPerZ_mvl/mxv
 BYTE   W03
 BYTE   VOL   81*FE11EndlessBattleREALxViPerZ_mvl/mxv
 BYTE   W03
 BYTE   VOL   82*FE11EndlessBattleREALxViPerZ_mvl/mxv
 BYTE   W03
 BYTE   VOL   82*FE11EndlessBattleREALxViPerZ_mvl/mxv
 BYTE   W03
 BYTE   VOL   82*FE11EndlessBattleREALxViPerZ_mvl/mxv
 BYTE   W03
 BYTE   VOL   84*FE11EndlessBattleREALxViPerZ_mvl/mxv
 BYTE   W03
 BYTE   VOL   85*FE11EndlessBattleREALxViPerZ_mvl/mxv
 BYTE   W03
 BYTE   VOL   85*FE11EndlessBattleREALxViPerZ_mvl/mxv
 BYTE   W02
 BYTE   N17  Fn2
 BYTE   W01
 BYTE   VOL   86*FE11EndlessBattleREALxViPerZ_mvl/mxv
 BYTE   W01
 BYTE   VOL   87*FE11EndlessBattleREALxViPerZ_mvl/mxv
 BYTE   W16
 BYTE   N17  Gn2
 BYTE   W18
 BYTE   N11  As2
 BYTE   W12
//  #07 //024   ----------------------------------------
 BYTE   N17  Cn3
 BYTE   W18
 BYTE   N05  Dn3
 BYTE   W06
 BYTE   TIE  Cn3
 BYTE   W02
 BYTE   VOL   87*FE11EndlessBattleREALxViPerZ_mvl/mxv
 BYTE   W03
 BYTE   VOL   85*FE11EndlessBattleREALxViPerZ_mvl/mxv
 BYTE   W03
 BYTE   VOL   83*FE11EndlessBattleREALxViPerZ_mvl/mxv
 BYTE   W03
 BYTE   VOL   82*FE11EndlessBattleREALxViPerZ_mvl/mxv
 BYTE   W03
 BYTE   VOL   81*FE11EndlessBattleREALxViPerZ_mvl/mxv
 BYTE   W03
 BYTE   VOL   81*FE11EndlessBattleREALxViPerZ_mvl/mxv
 BYTE   W03
 BYTE   VOL   82*FE11EndlessBattleREALxViPerZ_mvl/mxv
 BYTE   W03
 BYTE   VOL   82*FE11EndlessBattleREALxViPerZ_mvl/mxv
 BYTE   W03
 BYTE   VOL   84*FE11EndlessBattleREALxViPerZ_mvl/mxv
 BYTE   W03
 BYTE   VOL   85*FE11EndlessBattleREALxViPerZ_mvl/mxv
 BYTE   W03
 BYTE   VOL   87*FE11EndlessBattleREALxViPerZ_mvl/mxv
 BYTE   W08
 BYTE   VOL   86*FE11EndlessBattleREALxViPerZ_mvl/mxv
 BYTE   W04
 BYTE   VOL   85*FE11EndlessBattleREALxViPerZ_mvl/mxv
 BYTE   W04
 BYTE   VOL   85*FE11EndlessBattleREALxViPerZ_mvl/mxv
 BYTE   W04
 BYTE   VOL   84*FE11EndlessBattleREALxViPerZ_mvl/mxv
 BYTE   W04
 BYTE   VOL   83*FE11EndlessBattleREALxViPerZ_mvl/mxv
 BYTE   W04
 BYTE   VOL   82*FE11EndlessBattleREALxViPerZ_mvl/mxv
 BYTE   W04
 BYTE   VOL   82*FE11EndlessBattleREALxViPerZ_mvl/mxv
 BYTE   W05
 BYTE   VOL   82*FE11EndlessBattleREALxViPerZ_mvl/mxv
 BYTE   W03
//  #07 //025   ----------------------------------------
 BYTE   W01
 BYTE   VOL   81*FE11EndlessBattleREALxViPerZ_mvl/mxv
 BYTE   W04
 BYTE   VOL   81*FE11EndlessBattleREALxViPerZ_mvl/mxv
 BYTE   W04
 BYTE   VOL   79*FE11EndlessBattleREALxViPerZ_mvl/mxv
 BYTE   W04
 BYTE   VOL   78*FE11EndlessBattleREALxViPerZ_mvl/mxv
 BYTE   W04
 BYTE   VOL   77*FE11EndlessBattleREALxViPerZ_mvl/mxv
 BYTE   W04
 BYTE   VOL   77*FE11EndlessBattleREALxViPerZ_mvl/mxv
 BYTE   W03
 BYTE   VOL   76*FE11EndlessBattleREALxViPerZ_mvl/mxv
 BYTE   W03
 BYTE   VOL   74*FE11EndlessBattleREALxViPerZ_mvl/mxv
 BYTE   W03
 BYTE   VOL   72*FE11EndlessBattleREALxViPerZ_mvl/mxv
 BYTE   W03
 BYTE   VOL   71*FE11EndlessBattleREALxViPerZ_mvl/mxv
 BYTE   W03
 BYTE   VOL   69*FE11EndlessBattleREALxViPerZ_mvl/mxv
 BYTE   W03
 BYTE   VOL   68*FE11EndlessBattleREALxViPerZ_mvl/mxv
 BYTE   W03
 BYTE   VOL   67*FE11EndlessBattleREALxViPerZ_mvl/mxv
 BYTE   W03
 BYTE   VOL   65*FE11EndlessBattleREALxViPerZ_mvl/mxv
 BYTE   W03
 BYTE   VOL   65*FE11EndlessBattleREALxViPerZ_mvl/mxv
 BYTE   W03
 BYTE   VOL   64*FE11EndlessBattleREALxViPerZ_mvl/mxv
 BYTE   W03
 BYTE   VOL   63*FE11EndlessBattleREALxViPerZ_mvl/mxv
 BYTE   W03
 BYTE   VOL   62*FE11EndlessBattleREALxViPerZ_mvl/mxv
 BYTE   W03
 BYTE   VOL   60*FE11EndlessBattleREALxViPerZ_mvl/mxv
 BYTE   W03
 BYTE   VOL   60*FE11EndlessBattleREALxViPerZ_mvl/mxv
 BYTE   W03
 BYTE   VOL   60*FE11EndlessBattleREALxViPerZ_mvl/mxv
 BYTE   W03
 BYTE   VOL   59*FE11EndlessBattleREALxViPerZ_mvl/mxv
 BYTE   W02
 BYTE   EOT
 BYTE   W01
 BYTE   VOL   58*FE11EndlessBattleREALxViPerZ_mvl/mxv
 BYTE   W03
 BYTE   VOL   57*FE11EndlessBattleREALxViPerZ_mvl/mxv
 BYTE   W03
 BYTE   VOL   57*FE11EndlessBattleREALxViPerZ_mvl/mxv
 BYTE   W03
 BYTE   VOL   57*FE11EndlessBattleREALxViPerZ_mvl/mxv
 BYTE   W03
 BYTE   VOL   56*FE11EndlessBattleREALxViPerZ_mvl/mxv
 BYTE   W03
 BYTE   VOL   56*FE11EndlessBattleREALxViPerZ_mvl/mxv
 BYTE   W03
 BYTE   VOL   55*FE11EndlessBattleREALxViPerZ_mvl/mxv
 BYTE   W01
 BYTE   VOL   55*FE11EndlessBattleREALxViPerZ_mvl/mxv
 BYTE   W03
 BYTE   VOL   55*FE11EndlessBattleREALxViPerZ_mvl/mxv
 BYTE   W02
//  #07 //026   ----------------------------------------
 BYTE   N24  Cn2  v076
 BYTE   W01
 BYTE   VOL   55*FE11EndlessBattleREALxViPerZ_mvl/mxv
 BYTE   W03
 BYTE   VOL   56*FE11EndlessBattleREALxViPerZ_mvl/mxv
 BYTE   W03
 BYTE   VOL   56*FE11EndlessBattleREALxViPerZ_mvl/mxv
 BYTE   W03
 BYTE   VOL   57*FE11EndlessBattleREALxViPerZ_mvl/mxv
 BYTE   W03
 BYTE   VOL   57*FE11EndlessBattleREALxViPerZ_mvl/mxv
 BYTE   W03
 BYTE   VOL   58*FE11EndlessBattleREALxViPerZ_mvl/mxv
 BYTE   W03
 BYTE   VOL   58*FE11EndlessBattleREALxViPerZ_mvl/mxv
 BYTE   W03
 BYTE   VOL   59*FE11EndlessBattleREALxViPerZ_mvl/mxv
 BYTE   W02
 BYTE   N24  Ds2
 BYTE   W01
 BYTE   VOL   59*FE11EndlessBattleREALxViPerZ_mvl/mxv
 BYTE   W03
 BYTE   VOL   60*FE11EndlessBattleREALxViPerZ_mvl/mxv
 BYTE   W03
 BYTE   VOL   60*FE11EndlessBattleREALxViPerZ_mvl/mxv
 BYTE   W03
 BYTE   VOL   61*FE11EndlessBattleREALxViPerZ_mvl/mxv
 BYTE   W03
 BYTE   VOL   62*FE11EndlessBattleREALxViPerZ_mvl/mxv
 BYTE   W03
 BYTE   VOL   63*FE11EndlessBattleREALxViPerZ_mvl/mxv
 BYTE   W03
 BYTE   VOL   64*FE11EndlessBattleREALxViPerZ_mvl/mxv
 BYTE   W03
 BYTE   VOL   65*FE11EndlessBattleREALxViPerZ_mvl/mxv
 BYTE   W01
 BYTE   VOL   65*FE11EndlessBattleREALxViPerZ_mvl/mxv
 BYTE   W01
 BYTE   N24  Gs2
 BYTE   W02
 BYTE   VOL   65*FE11EndlessBattleREALxViPerZ_mvl/mxv
 BYTE   W03
 BYTE   VOL   65*FE11EndlessBattleREALxViPerZ_mvl/mxv
 BYTE   W03
 BYTE   VOL   66*FE11EndlessBattleREALxViPerZ_mvl/mxv
 BYTE   W03
 BYTE   VOL   67*FE11EndlessBattleREALxViPerZ_mvl/mxv
 BYTE   W03
 BYTE   VOL   67*FE11EndlessBattleREALxViPerZ_mvl/mxv
 BYTE   W03
 BYTE   VOL   68*FE11EndlessBattleREALxViPerZ_mvl/mxv
 BYTE   W03
 BYTE   VOL   68*FE11EndlessBattleREALxViPerZ_mvl/mxv
 BYTE   W03
 BYTE   VOL   68*FE11EndlessBattleREALxViPerZ_mvl/mxv
 BYTE   W01
 BYTE   N24  Cn3
 BYTE   W02
 BYTE   VOL   69*FE11EndlessBattleREALxViPerZ_mvl/mxv
 BYTE   W03
 BYTE   VOL   69*FE11EndlessBattleREALxViPerZ_mvl/mxv
 BYTE   W03
 BYTE   VOL   70*FE11EndlessBattleREALxViPerZ_mvl/mxv
 BYTE   W03
 BYTE   VOL   71*FE11EndlessBattleREALxViPerZ_mvl/mxv
 BYTE   W03
 BYTE   VOL   71*FE11EndlessBattleREALxViPerZ_mvl/mxv
 BYTE   W03
 BYTE   VOL   71*FE11EndlessBattleREALxViPerZ_mvl/mxv
 BYTE   W03
 BYTE   VOL   72*FE11EndlessBattleREALxViPerZ_mvl/mxv
 BYTE   W04
//  #07 //027   ----------------------------------------
 BYTE   N48  Dn3
 BYTE   W30
 BYTE   VOL   73*FE11EndlessBattleREALxViPerZ_mvl/mxv
 BYTE   W17
 BYTE   VOL   73*FE11EndlessBattleREALxViPerZ_mvl/mxv
 BYTE   W01
 BYTE   N48  As2
 BYTE   W16
 BYTE   VOL   74*FE11EndlessBattleREALxViPerZ_mvl/mxv
 BYTE   W17
 BYTE   VOL   74*FE11EndlessBattleREALxViPerZ_mvl/mxv
 BYTE   W15
//  #07 //028   ----------------------------------------
 BYTE   N48  Gn3
 BYTE   W02
 BYTE   VOL   76*FE11EndlessBattleREALxViPerZ_mvl/mxv
 BYTE   W02
 BYTE   VOL   74*FE11EndlessBattleREALxViPerZ_mvl/mxv
 BYTE   W01
 BYTE   VOL   73*FE11EndlessBattleREALxViPerZ_mvl/mxv
 BYTE   W02
 BYTE   VOL   72*FE11EndlessBattleREALxViPerZ_mvl/mxv
 BYTE   W01
 BYTE   VOL   71*FE11EndlessBattleREALxViPerZ_mvl/mxv
 BYTE   W02
 BYTE   VOL   70*FE11EndlessBattleREALxViPerZ_mvl/mxv
 BYTE   W01
 BYTE   VOL   69*FE11EndlessBattleREALxViPerZ_mvl/mxv
 BYTE   W02
 BYTE   VOL   68*FE11EndlessBattleREALxViPerZ_mvl/mxv
 BYTE   W01
 BYTE   VOL   68*FE11EndlessBattleREALxViPerZ_mvl/mxv
 BYTE   W02
 BYTE   VOL   66*FE11EndlessBattleREALxViPerZ_mvl/mxv
 BYTE   W07
 BYTE   VOL   67*FE11EndlessBattleREALxViPerZ_mvl/mxv
 BYTE   W03
 BYTE   VOL   67*FE11EndlessBattleREALxViPerZ_mvl/mxv
 BYTE   W04
 BYTE   VOL   68*FE11EndlessBattleREALxViPerZ_mvl/mxv
 BYTE   W03
 BYTE   VOL   68*FE11EndlessBattleREALxViPerZ_mvl/mxv
 BYTE   W04
 BYTE   VOL   68*FE11EndlessBattleREALxViPerZ_mvl/mxv
 BYTE   W03
 BYTE   VOL   68*FE11EndlessBattleREALxViPerZ_mvl/mxv
 BYTE   W04
 BYTE   VOL   69*FE11EndlessBattleREALxViPerZ_mvl/mxv
 BYTE   W03
 BYTE   VOL   69*FE11EndlessBattleREALxViPerZ_mvl/mxv
 BYTE   W01
 BYTE   N24  Fn3  v032
 BYTE   W02
 BYTE   VOL   70*FE11EndlessBattleREALxViPerZ_mvl/mxv
 BYTE   W04
 BYTE   VOL   71*FE11EndlessBattleREALxViPerZ_mvl/mxv
 BYTE   W03
 BYTE   VOL   71*FE11EndlessBattleREALxViPerZ_mvl/mxv
 BYTE   W04
 BYTE   VOL   72*FE11EndlessBattleREALxViPerZ_mvl/mxv
 BYTE   W03
 BYTE   VOL   71*FE11EndlessBattleREALxViPerZ_mvl/mxv
 BYTE   W03
 BYTE   VOL   70*FE11EndlessBattleREALxViPerZ_mvl/mxv
 BYTE   W03
 BYTE   VOL   69*FE11EndlessBattleREALxViPerZ_mvl/mxv
 BYTE   W02
 BYTE   N24  Ds3
 BYTE   W01
 BYTE   VOL   68*FE11EndlessBattleREALxViPerZ_mvl/mxv
 BYTE   W03
 BYTE   VOL   68*FE11EndlessBattleREALxViPerZ_mvl/mxv
 BYTE   W03
 BYTE   VOL   67*FE11EndlessBattleREALxViPerZ_mvl/mxv
 BYTE   W03
 BYTE   VOL   65*FE11EndlessBattleREALxViPerZ_mvl/mxv
 BYTE   W03
 BYTE   VOL   65*FE11EndlessBattleREALxViPerZ_mvl/mxv
 BYTE   W03
 BYTE   VOL   64*FE11EndlessBattleREALxViPerZ_mvl/mxv
 BYTE   W03
 BYTE   VOL   64*FE11EndlessBattleREALxViPerZ_mvl/mxv
 BYTE   W03
 BYTE   VOL   63*FE11EndlessBattleREALxViPerZ_mvl/mxv
 BYTE   W02
//  #07 //029   ----------------------------------------
 BYTE   N96  Cn3  v076
 BYTE   W01
 BYTE   VOL   62*FE11EndlessBattleREALxViPerZ_mvl/mxv
 BYTE   W03
 BYTE   VOL   62*FE11EndlessBattleREALxViPerZ_mvl/mxv
 BYTE   W03
 BYTE   VOL   60*FE11EndlessBattleREALxViPerZ_mvl/mxv
 BYTE   W02
 BYTE   VOL   60*FE11EndlessBattleREALxViPerZ_mvl/mxv
 BYTE   W01
 BYTE   VOL   60*FE11EndlessBattleREALxViPerZ_mvl/mxv
 BYTE   W02
 BYTE   VOL   61*FE11EndlessBattleREALxViPerZ_mvl/mxv
 BYTE   W01
 BYTE   VOL   62*FE11EndlessBattleREALxViPerZ_mvl/mxv
 BYTE   W02
 BYTE   VOL   62*FE11EndlessBattleREALxViPerZ_mvl/mxv
 BYTE   W01
 BYTE   VOL   62*FE11EndlessBattleREALxViPerZ_mvl/mxv
 BYTE   W02
 BYTE   VOL   64*FE11EndlessBattleREALxViPerZ_mvl/mxv
 BYTE   W01
 BYTE   VOL   64*FE11EndlessBattleREALxViPerZ_mvl/mxv
 BYTE   W02
 BYTE   VOL   64*FE11EndlessBattleREALxViPerZ_mvl/mxv
 BYTE   W01
 BYTE   VOL   65*FE11EndlessBattleREALxViPerZ_mvl/mxv
 BYTE   W02
 BYTE   VOL   65*FE11EndlessBattleREALxViPerZ_mvl/mxv
 BYTE   W01
 BYTE   VOL   65*FE11EndlessBattleREALxViPerZ_mvl/mxv
 BYTE   W02
 BYTE   VOL   67*FE11EndlessBattleREALxViPerZ_mvl/mxv
 BYTE   W01
 BYTE   VOL   68*FE11EndlessBattleREALxViPerZ_mvl/mxv
 BYTE   W02
 BYTE   VOL   68*FE11EndlessBattleREALxViPerZ_mvl/mxv
 BYTE   W01
 BYTE   VOL   68*FE11EndlessBattleREALxViPerZ_mvl/mxv
 BYTE   W02
 BYTE   VOL   69*FE11EndlessBattleREALxViPerZ_mvl/mxv
 BYTE   W01
 BYTE   VOL   70*FE11EndlessBattleREALxViPerZ_mvl/mxv
 BYTE   W02
 BYTE   VOL   71*FE11EndlessBattleREALxViPerZ_mvl/mxv
 BYTE   W01
 BYTE   VOL   71*FE11EndlessBattleREALxViPerZ_mvl/mxv
 BYTE   W02
 BYTE   VOL   72*FE11EndlessBattleREALxViPerZ_mvl/mxv
 BYTE   W01
 BYTE   VOL   73*FE11EndlessBattleREALxViPerZ_mvl/mxv
 BYTE   W02
 BYTE   VOL   73*FE11EndlessBattleREALxViPerZ_mvl/mxv
 BYTE   W01
 BYTE   VOL   74*FE11EndlessBattleREALxViPerZ_mvl/mxv
 BYTE   W02
 BYTE   VOL   76*FE11EndlessBattleREALxViPerZ_mvl/mxv
 BYTE   W01
 BYTE   VOL   76*FE11EndlessBattleREALxViPerZ_mvl/mxv
 BYTE   W02
 BYTE   VOL   77*FE11EndlessBattleREALxViPerZ_mvl/mxv
 BYTE   W01
 BYTE   VOL   77*FE11EndlessBattleREALxViPerZ_mvl/mxv
 BYTE   W01
 BYTE   VOL   78*FE11EndlessBattleREALxViPerZ_mvl/mxv
 BYTE   W03
 BYTE   VOL   77*FE11EndlessBattleREALxViPerZ_mvl/mxv
 BYTE   W03
 BYTE   VOL   76*FE11EndlessBattleREALxViPerZ_mvl/mxv
 BYTE   W03
 BYTE   VOL   74*FE11EndlessBattleREALxViPerZ_mvl/mxv
 BYTE   W03
 BYTE   VOL   73*FE11EndlessBattleREALxViPerZ_mvl/mxv
 BYTE   W03
 BYTE   VOL   72*FE11EndlessBattleREALxViPerZ_mvl/mxv
 BYTE   W03
 BYTE   VOL   71*FE11EndlessBattleREALxViPerZ_mvl/mxv
 BYTE   W03
 BYTE   VOL   70*FE11EndlessBattleREALxViPerZ_mvl/mxv
 BYTE   W03
 BYTE   VOL   68*FE11EndlessBattleREALxViPerZ_mvl/mxv
 BYTE   W03
 BYTE   VOL   68*FE11EndlessBattleREALxViPerZ_mvl/mxv
 BYTE   W03
 BYTE   VOL   67*FE11EndlessBattleREALxViPerZ_mvl/mxv
 BYTE   W03
 BYTE   VOL   65*FE11EndlessBattleREALxViPerZ_mvl/mxv
 BYTE   W03
 BYTE   VOL   65*FE11EndlessBattleREALxViPerZ_mvl/mxv
 BYTE   W03
 BYTE   VOL   64*FE11EndlessBattleREALxViPerZ_mvl/mxv
 BYTE   W03
 BYTE   VOL   64*FE11EndlessBattleREALxViPerZ_mvl/mxv
 BYTE   W03
 BYTE   VOL   62*FE11EndlessBattleREALxViPerZ_mvl/mxv
 BYTE   W01
//  #07 //030   ----------------------------------------
 BYTE   W02
 BYTE   VOL   62*FE11EndlessBattleREALxViPerZ_mvl/mxv
 BYTE   W03
 BYTE   VOL   60*FE11EndlessBattleREALxViPerZ_mvl/mxv
 BYTE   W03
 BYTE   VOL   60*FE11EndlessBattleREALxViPerZ_mvl/mxv
 BYTE   W02
 BYTE   VOL   60*FE11EndlessBattleREALxViPerZ_mvl/mxv
 BYTE   W03
 BYTE   VOL   60*FE11EndlessBattleREALxViPerZ_mvl/mxv
 BYTE   W03
 BYTE   VOL   60*FE11EndlessBattleREALxViPerZ_mvl/mxv
 BYTE   W03
 BYTE   VOL   60*FE11EndlessBattleREALxViPerZ_mvl/mxv
 BYTE   W03
 BYTE   VOL   61*FE11EndlessBattleREALxViPerZ_mvl/mxv
 BYTE   W02
 BYTE   N48  Ds2
 BYTE   W01
 BYTE   VOL   62*FE11EndlessBattleREALxViPerZ_mvl/mxv
 BYTE   W03
 BYTE   VOL   62*FE11EndlessBattleREALxViPerZ_mvl/mxv
 BYTE   W03
 BYTE   VOL   62*FE11EndlessBattleREALxViPerZ_mvl/mxv
 BYTE   W03
 BYTE   VOL   64*FE11EndlessBattleREALxViPerZ_mvl/mxv
 BYTE   W03
 BYTE   VOL   64*FE11EndlessBattleREALxViPerZ_mvl/mxv
 BYTE   W03
 BYTE   VOL   64*FE11EndlessBattleREALxViPerZ_mvl/mxv
 BYTE   W03
 BYTE   VOL   65*FE11EndlessBattleREALxViPerZ_mvl/mxv
 BYTE   W03
 BYTE   VOL   65*FE11EndlessBattleREALxViPerZ_mvl/mxv
 BYTE   W03
 BYTE   VOL   65*FE11EndlessBattleREALxViPerZ_mvl/mxv
 BYTE   W03
 BYTE   VOL   67*FE11EndlessBattleREALxViPerZ_mvl/mxv
 BYTE   W03
 BYTE   VOL   68*FE11EndlessBattleREALxViPerZ_mvl/mxv
 BYTE   W03
 BYTE   VOL   68*FE11EndlessBattleREALxViPerZ_mvl/mxv
 BYTE   W03
 BYTE   VOL   68*FE11EndlessBattleREALxViPerZ_mvl/mxv
 BYTE   W03
 BYTE   VOL   69*FE11EndlessBattleREALxViPerZ_mvl/mxv
 BYTE   W03
 BYTE   VOL   70*FE11EndlessBattleREALxViPerZ_mvl/mxv
 BYTE   W03
 BYTE   VOL   71*FE11EndlessBattleREALxViPerZ_mvl/mxv
 BYTE   W02
 BYTE   N48  Fn2
 BYTE   W24
//  #07 //031   ----------------------------------------
 BYTE   W10
 BYTE   VOL   71*FE11EndlessBattleREALxViPerZ_mvl/mxv
 BYTE   W14
 BYTE   N24  Gn2
 BYTE   W04
 BYTE   VOL   72*FE11EndlessBattleREALxViPerZ_mvl/mxv
 BYTE   W19
 BYTE   VOL   72*FE11EndlessBattleREALxViPerZ_mvl/mxv
 BYTE   W01
 BYTE   N24  Gs2
 BYTE   W17
 BYTE   VOL   73*FE11EndlessBattleREALxViPerZ_mvl/mxv
 BYTE   W07
 BYTE   N24  Cn3
 BYTE   W11
 BYTE   VOL   73*FE11EndlessBattleREALxViPerZ_mvl/mxv
 BYTE   W13
//  #07 //032   ----------------------------------------
 BYTE   N72  Dn3
 BYTE   W05
 BYTE   VOL   74*FE11EndlessBattleREALxViPerZ_mvl/mxv
 BYTE   W01
 BYTE   VOL   74*FE11EndlessBattleREALxViPerZ_mvl/mxv
 BYTE   W02
 BYTE   VOL   73*FE11EndlessBattleREALxViPerZ_mvl/mxv
 BYTE   W01
 BYTE   VOL   72*FE11EndlessBattleREALxViPerZ_mvl/mxv
 BYTE   W02
 BYTE   VOL   71*FE11EndlessBattleREALxViPerZ_mvl/mxv
 BYTE   W01
 BYTE   VOL   71*FE11EndlessBattleREALxViPerZ_mvl/mxv
 BYTE   W02
 BYTE   VOL   70*FE11EndlessBattleREALxViPerZ_mvl/mxv
 BYTE   W01
 BYTE   VOL   69*FE11EndlessBattleREALxViPerZ_mvl/mxv
 BYTE   W02
 BYTE   VOL   68*FE11EndlessBattleREALxViPerZ_mvl/mxv
 BYTE   W01
 BYTE   VOL   68*FE11EndlessBattleREALxViPerZ_mvl/mxv
 BYTE   W02
 BYTE   VOL   68*FE11EndlessBattleREALxViPerZ_mvl/mxv
 BYTE   W01
 BYTE   VOL   67*FE11EndlessBattleREALxViPerZ_mvl/mxv
 BYTE   W01
 BYTE   VOL   66*FE11EndlessBattleREALxViPerZ_mvl/mxv
 BYTE   W08
 BYTE   VOL   65*FE11EndlessBattleREALxViPerZ_mvl/mxv
 BYTE   W04
 BYTE   VOL   65*FE11EndlessBattleREALxViPerZ_mvl/mxv
 BYTE   W04
 BYTE   VOL   65*FE11EndlessBattleREALxViPerZ_mvl/mxv
 BYTE   W04
 BYTE   VOL   65*FE11EndlessBattleREALxViPerZ_mvl/mxv
 BYTE   W04
 BYTE   VOL   64*FE11EndlessBattleREALxViPerZ_mvl/mxv
 BYTE   W04
 BYTE   VOL   64*FE11EndlessBattleREALxViPerZ_mvl/mxv
 BYTE   W04
 BYTE   VOL   64*FE11EndlessBattleREALxViPerZ_mvl/mxv
 BYTE   W04
 BYTE   VOL   64*FE11EndlessBattleREALxViPerZ_mvl/mxv
 BYTE   W04
 BYTE   VOL   62*FE11EndlessBattleREALxViPerZ_mvl/mxv
 BYTE   W03
 BYTE   VOL   64*FE11EndlessBattleREALxViPerZ_mvl/mxv
 BYTE   W03
 BYTE   VOL   64*FE11EndlessBattleREALxViPerZ_mvl/mxv
 BYTE   W03
 BYTE   VOL   65*FE11EndlessBattleREALxViPerZ_mvl/mxv
 BYTE   W01
 BYTE   N24  Fn3
 BYTE   W02
 BYTE   VOL   66*FE11EndlessBattleREALxViPerZ_mvl/mxv
 BYTE   W03
 BYTE   VOL   68*FE11EndlessBattleREALxViPerZ_mvl/mxv
 BYTE   W02
 BYTE   VOL   68*FE11EndlessBattleREALxViPerZ_mvl/mxv
 BYTE   W03
 BYTE   VOL   69*FE11EndlessBattleREALxViPerZ_mvl/mxv
 BYTE   W03
 BYTE   VOL   70*FE11EndlessBattleREALxViPerZ_mvl/mxv
 BYTE   W03
 BYTE   VOL   71*FE11EndlessBattleREALxViPerZ_mvl/mxv
 BYTE   W03
 BYTE   VOL   72*FE11EndlessBattleREALxViPerZ_mvl/mxv
 BYTE   W03
 BYTE   VOL   73*FE11EndlessBattleREALxViPerZ_mvl/mxv
 BYTE   W02
//  #07 //033   ----------------------------------------
 BYTE   VOL   74*FE11EndlessBattleREALxViPerZ_mvl/mxv
 BYTE   N96  Dn3
 BYTE   W03
 BYTE   VOL   73*FE11EndlessBattleREALxViPerZ_mvl/mxv
 BYTE   W03
 BYTE   VOL   71*FE11EndlessBattleREALxViPerZ_mvl/mxv
 BYTE   W03
 BYTE   VOL   71*FE11EndlessBattleREALxViPerZ_mvl/mxv
 BYTE   W01
 BYTE   VOL   69*FE11EndlessBattleREALxViPerZ_mvl/mxv
 BYTE   W02
 BYTE   VOL   68*FE11EndlessBattleREALxViPerZ_mvl/mxv
 BYTE   W01
 BYTE   VOL   67*FE11EndlessBattleREALxViPerZ_mvl/mxv
 BYTE   W02
 BYTE   VOL   65*FE11EndlessBattleREALxViPerZ_mvl/mxv
 BYTE   W01
 BYTE   VOL   65*FE11EndlessBattleREALxViPerZ_mvl/mxv
 BYTE   W02
 BYTE   VOL   64*FE11EndlessBattleREALxViPerZ_mvl/mxv
 BYTE   W01
 BYTE   VOL   62*FE11EndlessBattleREALxViPerZ_mvl/mxv
 BYTE   W02
 BYTE   VOL   61*FE11EndlessBattleREALxViPerZ_mvl/mxv
 BYTE   W01
 BYTE   VOL   60*FE11EndlessBattleREALxViPerZ_mvl/mxv
 BYTE   W02
 BYTE   VOL   60*FE11EndlessBattleREALxViPerZ_mvl/mxv
 BYTE   W01
 BYTE   VOL   59*FE11EndlessBattleREALxViPerZ_mvl/mxv
 BYTE   W02
 BYTE   VOL   58*FE11EndlessBattleREALxViPerZ_mvl/mxv
 BYTE   W01
 BYTE   VOL   57*FE11EndlessBattleREALxViPerZ_mvl/mxv
 BYTE   W02
 BYTE   VOL   57*FE11EndlessBattleREALxViPerZ_mvl/mxv
 BYTE   W01
 BYTE   VOL   57*FE11EndlessBattleREALxViPerZ_mvl/mxv
 BYTE   W02
 BYTE   VOL   56*FE11EndlessBattleREALxViPerZ_mvl/mxv
 BYTE   W01
 BYTE   VOL   55*FE11EndlessBattleREALxViPerZ_mvl/mxv
 BYTE   W02
 BYTE   VOL   55*FE11EndlessBattleREALxViPerZ_mvl/mxv
 BYTE   W01
 BYTE   VOL   55*FE11EndlessBattleREALxViPerZ_mvl/mxv
 BYTE   W02
 BYTE   VOL   55*FE11EndlessBattleREALxViPerZ_mvl/mxv
 BYTE   W01
 BYTE   VOL   54*FE11EndlessBattleREALxViPerZ_mvl/mxv
 BYTE   W02
 BYTE   VOL   54*FE11EndlessBattleREALxViPerZ_mvl/mxv
 BYTE   W01
 BYTE   VOL   54*FE11EndlessBattleREALxViPerZ_mvl/mxv
 BYTE   W02
 BYTE   VOL   54*FE11EndlessBattleREALxViPerZ_mvl/mxv
 BYTE   W01
 BYTE   VOL   55*FE11EndlessBattleREALxViPerZ_mvl/mxv
 BYTE   W02
 BYTE   VOL   55*FE11EndlessBattleREALxViPerZ_mvl/mxv
 BYTE   W01
 BYTE   VOL   55*FE11EndlessBattleREALxViPerZ_mvl/mxv
 BYTE   W02
 BYTE   VOL   55*FE11EndlessBattleREALxViPerZ_mvl/mxv
 BYTE   W01
 BYTE   VOL   56*FE11EndlessBattleREALxViPerZ_mvl/mxv
 BYTE   W02
 BYTE   VOL   57*FE11EndlessBattleREALxViPerZ_mvl/mxv
 BYTE   W01
 BYTE   VOL   57*FE11EndlessBattleREALxViPerZ_mvl/mxv
 BYTE   W02
 BYTE   VOL   57*FE11EndlessBattleREALxViPerZ_mvl/mxv
 BYTE   W01
 BYTE   VOL   58*FE11EndlessBattleREALxViPerZ_mvl/mxv
 BYTE   W02
 BYTE   VOL   58*FE11EndlessBattleREALxViPerZ_mvl/mxv
 BYTE   W01
 BYTE   VOL   59*FE11EndlessBattleREALxViPerZ_mvl/mxv
 BYTE   W02
 BYTE   VOL   60*FE11EndlessBattleREALxViPerZ_mvl/mxv
 BYTE   W01
 BYTE   VOL   60*FE11EndlessBattleREALxViPerZ_mvl/mxv
 BYTE   W02
 BYTE   VOL   62*FE11EndlessBattleREALxViPerZ_mvl/mxv
 BYTE   W01
 BYTE   VOL   62*FE11EndlessBattleREALxViPerZ_mvl/mxv
 BYTE   W02
 BYTE   VOL   64*FE11EndlessBattleREALxViPerZ_mvl/mxv
 BYTE   W03
 BYTE   VOL   65*FE11EndlessBattleREALxViPerZ_mvl/mxv
 BYTE   W03
 BYTE   VOL   65*FE11EndlessBattleREALxViPerZ_mvl/mxv
 BYTE   W03
 BYTE   VOL   67*FE11EndlessBattleREALxViPerZ_mvl/mxv
 BYTE   W03
 BYTE   VOL   68*FE11EndlessBattleREALxViPerZ_mvl/mxv
 BYTE   W01
 BYTE   VOL   68*FE11EndlessBattleREALxViPerZ_mvl/mxv
 BYTE   W01
 BYTE   VOL   68*FE11EndlessBattleREALxViPerZ_mvl/mxv
 BYTE   W02
 BYTE   VOL   69*FE11EndlessBattleREALxViPerZ_mvl/mxv
 BYTE   W01
 BYTE   VOL   70*FE11EndlessBattleREALxViPerZ_mvl/mxv
 BYTE   W02
 BYTE   VOL   71*FE11EndlessBattleREALxViPerZ_mvl/mxv
 BYTE   W01
 BYTE   VOL   71*FE11EndlessBattleREALxViPerZ_mvl/mxv
 BYTE   W02
 BYTE   VOL   72*FE11EndlessBattleREALxViPerZ_mvl/mxv
 BYTE   W01
 BYTE   VOL   73*FE11EndlessBattleREALxViPerZ_mvl/mxv
 BYTE   W02
 BYTE   VOL   74*FE11EndlessBattleREALxViPerZ_mvl/mxv
 BYTE   W01
 BYTE   VOL   74*FE11EndlessBattleREALxViPerZ_mvl/mxv
 BYTE   W01
//  #07 //034   ----------------------------------------
 BYTE   N36  Fn3
 BYTE   W01
 BYTE   VOL   76*FE11EndlessBattleREALxViPerZ_mvl/mxv
 BYTE   W32
 BYTE   W03
 BYTE   N12  Ds3
 BYTE   W12
 BYTE   Ds3  v016
 BYTE   W12
 BYTE   Ds3  v008
 BYTE   W12
 BYTE   N36  Dn3  v076
 BYTE   W24
//  #07 //035   ----------------------------------------
 BYTE   W12
 BYTE   N72  Cn3
 BYTE   W04
 BYTE   VOL   76*FE11EndlessBattleREALxViPerZ_mvl/mxv
 BYTE   W02
 BYTE   VOL   74*FE11EndlessBattleREALxViPerZ_mvl/mxv
 BYTE   W01
 BYTE   VOL   73*FE11EndlessBattleREALxViPerZ_mvl/mxv
 BYTE   W02
 BYTE   VOL   71*FE11EndlessBattleREALxViPerZ_mvl/mxv
 BYTE   W01
 BYTE   VOL   70*FE11EndlessBattleREALxViPerZ_mvl/mxv
 BYTE   W02
 BYTE   VOL   68*FE11EndlessBattleREALxViPerZ_mvl/mxv
 BYTE   W01
 BYTE   VOL   67*FE11EndlessBattleREALxViPerZ_mvl/mxv
 BYTE   W02
 BYTE   VOL   65*FE11EndlessBattleREALxViPerZ_mvl/mxv
 BYTE   W01
 BYTE   VOL   65*FE11EndlessBattleREALxViPerZ_mvl/mxv
 BYTE   W02
 BYTE   VOL   64*FE11EndlessBattleREALxViPerZ_mvl/mxv
 BYTE   W03
 BYTE   VOL   64*FE11EndlessBattleREALxViPerZ_mvl/mxv
 BYTE   W03
 BYTE   VOL   64*FE11EndlessBattleREALxViPerZ_mvl/mxv
 BYTE   W03
 BYTE   VOL   65*FE11EndlessBattleREALxViPerZ_mvl/mxv
 BYTE   W03
 BYTE   VOL   65*FE11EndlessBattleREALxViPerZ_mvl/mxv
 BYTE   W03
 BYTE   VOL   65*FE11EndlessBattleREALxViPerZ_mvl/mxv
 BYTE   W03
 BYTE   VOL   66*FE11EndlessBattleREALxViPerZ_mvl/mxv
 BYTE   W03
 BYTE   VOL   67*FE11EndlessBattleREALxViPerZ_mvl/mxv
 BYTE   W03
 BYTE   VOL   68*FE11EndlessBattleREALxViPerZ_mvl/mxv
 BYTE   W03
 BYTE   VOL   68*FE11EndlessBattleREALxViPerZ_mvl/mxv
 BYTE   W03
 BYTE   VOL   68*FE11EndlessBattleREALxViPerZ_mvl/mxv
 BYTE   W03
 BYTE   VOL   69*FE11EndlessBattleREALxViPerZ_mvl/mxv
 BYTE   W03
 BYTE   VOL   70*FE11EndlessBattleREALxViPerZ_mvl/mxv
 BYTE   W03
 BYTE   VOL   71*FE11EndlessBattleREALxViPerZ_mvl/mxv
 BYTE   W03
 BYTE   VOL   71*FE11EndlessBattleREALxViPerZ_mvl/mxv
 BYTE   W03
 BYTE   VOL   72*FE11EndlessBattleREALxViPerZ_mvl/mxv
 BYTE   W03
 BYTE   VOL   73*FE11EndlessBattleREALxViPerZ_mvl/mxv
 BYTE   W03
 BYTE   VOL   73*FE11EndlessBattleREALxViPerZ_mvl/mxv
 BYTE   W03
 BYTE   VOL   74*FE11EndlessBattleREALxViPerZ_mvl/mxv
 BYTE   W03
 BYTE   VOL   74*FE11EndlessBattleREALxViPerZ_mvl/mxv
 BYTE   W03
 BYTE   VOL   76*FE11EndlessBattleREALxViPerZ_mvl/mxv
 BYTE   W03
 BYTE   VOL   77*FE11EndlessBattleREALxViPerZ_mvl/mxv
 BYTE   W01
 BYTE   VOL   77*FE11EndlessBattleREALxViPerZ_mvl/mxv
 BYTE   W02
//  #07 //036   ----------------------------------------
 BYTE   N36  Fn3
 BYTE   W36
 BYTE   N12  Ds3
 BYTE   W12
 BYTE   Ds3  v016
 BYTE   W12
 BYTE   Ds3  v008
 BYTE   W12
 BYTE   N36  Dn3  v076
 BYTE   W24
//  #07 //037   ----------------------------------------
 BYTE   W10
 BYTE   VOL   77*FE11EndlessBattleREALxViPerZ_mvl/mxv
 BYTE   W02
 BYTE   N66  Cn3
 BYTE   W01
 BYTE   VOL   77*FE11EndlessBattleREALxViPerZ_mvl/mxv
 BYTE   W03
 BYTE   VOL   79*FE11EndlessBattleREALxViPerZ_mvl/mxv
 BYTE   W02
 BYTE   VOL   81*FE11EndlessBattleREALxViPerZ_mvl/mxv
 BYTE   W03
 BYTE   VOL   79*FE11EndlessBattleREALxViPerZ_mvl/mxv
 BYTE   W03
 BYTE   VOL   77*FE11EndlessBattleREALxViPerZ_mvl/mxv
 BYTE   W03
 BYTE   VOL   77*FE11EndlessBattleREALxViPerZ_mvl/mxv
 BYTE   W03
 BYTE   VOL   74*FE11EndlessBattleREALxViPerZ_mvl/mxv
 BYTE   W03
 BYTE   VOL   74*FE11EndlessBattleREALxViPerZ_mvl/mxv
 BYTE   W03
 BYTE   VOL   73*FE11EndlessBattleREALxViPerZ_mvl/mxv
 BYTE   W03
 BYTE   VOL   71*FE11EndlessBattleREALxViPerZ_mvl/mxv
 BYTE   W03
 BYTE   VOL   71*FE11EndlessBattleREALxViPerZ_mvl/mxv
 BYTE   W03
 BYTE   VOL   69*FE11EndlessBattleREALxViPerZ_mvl/mxv
 BYTE   W03
 BYTE   VOL   68*FE11EndlessBattleREALxViPerZ_mvl/mxv
 BYTE   W03
 BYTE   VOL   68*FE11EndlessBattleREALxViPerZ_mvl/mxv
 BYTE   W03
 BYTE   VOL   67*FE11EndlessBattleREALxViPerZ_mvl/mxv
 BYTE   W03
 BYTE   VOL   65*FE11EndlessBattleREALxViPerZ_mvl/mxv
 BYTE   W03
 BYTE   VOL   65*FE11EndlessBattleREALxViPerZ_mvl/mxv
 BYTE   W03
 BYTE   VOL   64*FE11EndlessBattleREALxViPerZ_mvl/mxv
 BYTE   W03
 BYTE   VOL   63*FE11EndlessBattleREALxViPerZ_mvl/mxv
 BYTE   W01
 BYTE   VOL   62*FE11EndlessBattleREALxViPerZ_mvl/mxv
 BYTE   W02
 BYTE   VOL   62*FE11EndlessBattleREALxViPerZ_mvl/mxv
 BYTE   W01
 BYTE   VOL   60*FE11EndlessBattleREALxViPerZ_mvl/mxv
 BYTE   W02
 BYTE   VOL   60*FE11EndlessBattleREALxViPerZ_mvl/mxv
 BYTE   W01
 BYTE   VOL   60*FE11EndlessBattleREALxViPerZ_mvl/mxv
 BYTE   W02
 BYTE   VOL   59*FE11EndlessBattleREALxViPerZ_mvl/mxv
 BYTE   W01
 BYTE   VOL   58*FE11EndlessBattleREALxViPerZ_mvl/mxv
 BYTE   W02
 BYTE   VOL   57*FE11EndlessBattleREALxViPerZ_mvl/mxv
 BYTE   W01
 BYTE   VOL   57*FE11EndlessBattleREALxViPerZ_mvl/mxv
 BYTE   W02
 BYTE   VOL   57*FE11EndlessBattleREALxViPerZ_mvl/mxv
 BYTE   W01
 BYTE   VOL   56*FE11EndlessBattleREALxViPerZ_mvl/mxv
 BYTE   W02
 BYTE   VOL   55*FE11EndlessBattleREALxViPerZ_mvl/mxv
 BYTE   W01
 BYTE   VOL   55*FE11EndlessBattleREALxViPerZ_mvl/mxv
 BYTE   W02
 BYTE   VOL   55*FE11EndlessBattleREALxViPerZ_mvl/mxv
 BYTE   W01
 BYTE   VOL   55*FE11EndlessBattleREALxViPerZ_mvl/mxv
 BYTE   W02
 BYTE   VOL   54*FE11EndlessBattleREALxViPerZ_mvl/mxv
 BYTE   W01
 BYTE   VOL   54*FE11EndlessBattleREALxViPerZ_mvl/mxv
 BYTE   W02
 BYTE   VOL   54*FE11EndlessBattleREALxViPerZ_mvl/mxv
 BYTE   W01
 BYTE   VOL   54*FE11EndlessBattleREALxViPerZ_mvl/mxv
 BYTE   W01
 BYTE   VOL   60*FE11EndlessBattleREALxViPerZ_mvl/mxv
 BYTE   W01
//  #07 //038   ----------------------------------------
 BYTE   VOL   87*FE11EndlessBattleREALxViPerZ_mvl/mxv
 BYTE   N10  Cn3  v028
 BYTE   W12
 BYTE   Cn3  v004
 BYTE   W23
 BYTE   N11  Cn3  v052
 BYTE   W13
 BYTE   N10  Cn3  v016
 BYTE   W11
 BYTE   N11  Cn3  v004
 BYTE   W13
 BYTE   N10  Cn3  v052
 BYTE   W11
 BYTE   N11  Cn3  v032
 BYTE   W13
//  #07 //039   ----------------------------------------
 BYTE   N10  Cn3  v076
 BYTE   W11
 BYTE   N11  Cn3  v032
 BYTE   W13
 BYTE   N10  Cn3  v012
 BYTE   W11
 BYTE   N11  Cn3  v076
 BYTE   W13
 BYTE   N10  Cn3  v032
 BYTE   W11
 BYTE   N11  Cn3  v012
 BYTE   W13
 BYTE   N10  Cn3  v076
 BYTE   W11
 BYTE   N11  Cn3  v032
 BYTE   W12
 BYTE   GoTo
  POIN2 Label_01C81D02
 BYTE   FINE

//**************** Track 8 (Midi-Chn.7) ****************//

FE11EndlessBattleREALxViPerZ_008:
//  #08 //000   ----------------------------------------
 BYTE   KEYSH   FE11EndlessBattleREALxViPerZ_key+0
 BYTE   VOICE   48
 BYTE   MODT 0
 BYTE   LFOS 44
 BYTE   VOL   85*FE11EndlessBattleREALxViPerZ_mvl/mxv
 BYTE   PAN   c_v-35
 BYTE   VOL   82*FE11EndlessBattleREALxViPerZ_mvl/mxv
 BYTE   BEND   c_v+0
 BYTE   N11  Fn2  v028
 BYTE   W12
 BYTE   Fn2  v004
 BYTE   W24
 BYTE   Fn2  v052
 BYTE   W12
 BYTE   Fn2  v016
 BYTE   W12
 BYTE   Fn2  v004
 BYTE   W12
 BYTE   Fn2  v052
 BYTE   W12
 BYTE   Fn2  v032
 BYTE   W12
//  #08 //001   ----------------------------------------
 BYTE   En2  v076
 BYTE   W12
 BYTE   En2  v032
 BYTE   W12
 BYTE   En2  v012
 BYTE   W12
 BYTE   En2  v076
 BYTE   W12
 BYTE   En2  v032
 BYTE   W12
 BYTE   En2  v012
 BYTE   W12
 BYTE   En2  v076
 BYTE   W12
 BYTE   En2  v032
 BYTE   W12
//  #08 //002   ----------------------------------------
Label_01C83D7E:
 BYTE   VOL   82*FE11EndlessBattleREALxViPerZ_mvl/mxv
 BYTE   W96
//  #08 //003   ----------------------------------------
 BYTE   W96
//  #08 //004   ----------------------------------------
 BYTE   W96
//  #08 //005   ----------------------------------------
 BYTE   W96
//  #08 //006   ----------------------------------------
 BYTE   W96
//  #08 //007   ----------------------------------------
 BYTE   W96
//  #08 //008   ----------------------------------------
 BYTE   W96
//  #08 //009   ----------------------------------------
 BYTE   W96
//  #08 //010   ----------------------------------------
 BYTE   VOL   57*FE11EndlessBattleREALxViPerZ_mvl/mxv
 BYTE   N44  Cn2  v060
 BYTE   W03
 BYTE   VOL   57*FE11EndlessBattleREALxViPerZ_mvl/mxv
 BYTE   W03
 BYTE   VOL   57*FE11EndlessBattleREALxViPerZ_mvl/mxv
 BYTE   W03
 BYTE   VOL   58*FE11EndlessBattleREALxViPerZ_mvl/mxv
 BYTE   W03
 BYTE   VOL   58*FE11EndlessBattleREALxViPerZ_mvl/mxv
 BYTE   W03
 BYTE   VOL   58*FE11EndlessBattleREALxViPerZ_mvl/mxv
 BYTE   W03
 BYTE   VOL   59*FE11EndlessBattleREALxViPerZ_mvl/mxv
 BYTE   W03
 BYTE   VOL   59*FE11EndlessBattleREALxViPerZ_mvl/mxv
 BYTE   W03
 BYTE   VOL   60*FE11EndlessBattleREALxViPerZ_mvl/mxv
 BYTE   W03
 BYTE   VOL   60*FE11EndlessBattleREALxViPerZ_mvl/mxv
 BYTE   W03
 BYTE   VOL   60*FE11EndlessBattleREALxViPerZ_mvl/mxv
 BYTE   W03
 BYTE   VOL   60*FE11EndlessBattleREALxViPerZ_mvl/mxv
 BYTE   W03
 BYTE   VOL   60*FE11EndlessBattleREALxViPerZ_mvl/mxv
 BYTE   W03
 BYTE   VOL   60*FE11EndlessBattleREALxViPerZ_mvl/mxv
 BYTE   W03
 BYTE   VOL   62*FE11EndlessBattleREALxViPerZ_mvl/mxv
 BYTE   W03
 BYTE   VOL   62*FE11EndlessBattleREALxViPerZ_mvl/mxv
 BYTE   W03
 BYTE   VOL   62*FE11EndlessBattleREALxViPerZ_mvl/mxv
 BYTE   N44  Ds2
 BYTE   W03
 BYTE   VOL   63*FE11EndlessBattleREALxViPerZ_mvl/mxv
 BYTE   W03
 BYTE   VOL   64*FE11EndlessBattleREALxViPerZ_mvl/mxv
 BYTE   W03
 BYTE   VOL   64*FE11EndlessBattleREALxViPerZ_mvl/mxv
 BYTE   W03
 BYTE   VOL   64*FE11EndlessBattleREALxViPerZ_mvl/mxv
 BYTE   W03
 BYTE   VOL   65*FE11EndlessBattleREALxViPerZ_mvl/mxv
 BYTE   W03
 BYTE   VOL   65*FE11EndlessBattleREALxViPerZ_mvl/mxv
 BYTE   W03
 BYTE   VOL   65*FE11EndlessBattleREALxViPerZ_mvl/mxv
 BYTE   W03
 BYTE   VOL   66*FE11EndlessBattleREALxViPerZ_mvl/mxv
 BYTE   W03
 BYTE   VOL   67*FE11EndlessBattleREALxViPerZ_mvl/mxv
 BYTE   W03
 BYTE   VOL   68*FE11EndlessBattleREALxViPerZ_mvl/mxv
 BYTE   W03
 BYTE   VOL   68*FE11EndlessBattleREALxViPerZ_mvl/mxv
 BYTE   W03
 BYTE   VOL   69*FE11EndlessBattleREALxViPerZ_mvl/mxv
 BYTE   W03
 BYTE   VOL   69*FE11EndlessBattleREALxViPerZ_mvl/mxv
 BYTE   W03
 BYTE   VOL   71*FE11EndlessBattleREALxViPerZ_mvl/mxv
 BYTE   W03
 BYTE   VOL   71*FE11EndlessBattleREALxViPerZ_mvl/mxv
 BYTE   W03
//  #08 //011   ----------------------------------------
 BYTE   VOL   72*FE11EndlessBattleREALxViPerZ_mvl/mxv
 BYTE   N44  Dn2
 BYTE   W06
 BYTE   VOL   71*FE11EndlessBattleREALxViPerZ_mvl/mxv
 BYTE   W04
 BYTE   VOL   71*FE11EndlessBattleREALxViPerZ_mvl/mxv
 BYTE   W03
 BYTE   VOL   71*FE11EndlessBattleREALxViPerZ_mvl/mxv
 BYTE   W03
 BYTE   VOL   70*FE11EndlessBattleREALxViPerZ_mvl/mxv
 BYTE   W03
 BYTE   VOL   69*FE11EndlessBattleREALxViPerZ_mvl/mxv
 BYTE   W04
 BYTE   VOL   69*FE11EndlessBattleREALxViPerZ_mvl/mxv
 BYTE   W03
 BYTE   VOL   68*FE11EndlessBattleREALxViPerZ_mvl/mxv
 BYTE   W03
 BYTE   VOL   68*FE11EndlessBattleREALxViPerZ_mvl/mxv
 BYTE   W03
 BYTE   VOL   68*FE11EndlessBattleREALxViPerZ_mvl/mxv
 BYTE   W03
 BYTE   VOL   67*FE11EndlessBattleREALxViPerZ_mvl/mxv
 BYTE   W04
 BYTE   VOL   67*FE11EndlessBattleREALxViPerZ_mvl/mxv
 BYTE   W03
 BYTE   VOL   66*FE11EndlessBattleREALxViPerZ_mvl/mxv
 BYTE   W03
 BYTE   VOL   65*FE11EndlessBattleREALxViPerZ_mvl/mxv
 BYTE   W03
 BYTE   VOL   65*FE11EndlessBattleREALxViPerZ_mvl/mxv
 BYTE   N44  As1
 BYTE   W04
 BYTE   VOL   65*FE11EndlessBattleREALxViPerZ_mvl/mxv
 BYTE   W03
 BYTE   VOL   65*FE11EndlessBattleREALxViPerZ_mvl/mxv
 BYTE   W03
 BYTE   VOL   65*FE11EndlessBattleREALxViPerZ_mvl/mxv
 BYTE   W03
 BYTE   VOL   64*FE11EndlessBattleREALxViPerZ_mvl/mxv
 BYTE   W03
 BYTE   VOL   64*FE11EndlessBattleREALxViPerZ_mvl/mxv
 BYTE   W04
 BYTE   VOL   64*FE11EndlessBattleREALxViPerZ_mvl/mxv
 BYTE   W03
 BYTE   VOL   64*FE11EndlessBattleREALxViPerZ_mvl/mxv
 BYTE   W03
 BYTE   VOL   63*FE11EndlessBattleREALxViPerZ_mvl/mxv
 BYTE   W03
 BYTE   VOL   62*FE11EndlessBattleREALxViPerZ_mvl/mxv
 BYTE   W04
 BYTE   VOL   62*FE11EndlessBattleREALxViPerZ_mvl/mxv
 BYTE   W03
 BYTE   VOL   62*FE11EndlessBattleREALxViPerZ_mvl/mxv
 BYTE   W03
 BYTE   VOL   62*FE11EndlessBattleREALxViPerZ_mvl/mxv
 BYTE   W03
 BYTE   VOL   61*FE11EndlessBattleREALxViPerZ_mvl/mxv
 BYTE   W03
 BYTE   VOL   60*FE11EndlessBattleREALxViPerZ_mvl/mxv
 BYTE   W03
//  #08 //012   ----------------------------------------
 BYTE   N32  Cn2
 BYTE   W01
 BYTE   VOL   60*FE11EndlessBattleREALxViPerZ_mvl/mxv
 BYTE   W03
 BYTE   VOL   60*FE11EndlessBattleREALxViPerZ_mvl/mxv
 BYTE   W03
 BYTE   VOL   60*FE11EndlessBattleREALxViPerZ_mvl/mxv
 BYTE   W03
 BYTE   VOL   60*FE11EndlessBattleREALxViPerZ_mvl/mxv
 BYTE   W04
 BYTE   VOL   60*FE11EndlessBattleREALxViPerZ_mvl/mxv
 BYTE   W01
 BYTE   VOL   60*FE11EndlessBattleREALxViPerZ_mvl/mxv
 BYTE   W02
 BYTE   VOL   60*FE11EndlessBattleREALxViPerZ_mvl/mxv
 BYTE   W01
 BYTE   VOL   60*FE11EndlessBattleREALxViPerZ_mvl/mxv
 BYTE   W02
 BYTE   VOL   62*FE11EndlessBattleREALxViPerZ_mvl/mxv
 BYTE   W01
 BYTE   VOL   62*FE11EndlessBattleREALxViPerZ_mvl/mxv
 BYTE   W02
 BYTE   VOL   63*FE11EndlessBattleREALxViPerZ_mvl/mxv
 BYTE   W01
 BYTE   VOL   64*FE11EndlessBattleREALxViPerZ_mvl/mxv
 BYTE   W02
 BYTE   VOL   64*FE11EndlessBattleREALxViPerZ_mvl/mxv
 BYTE   W01
 BYTE   VOL   65*FE11EndlessBattleREALxViPerZ_mvl/mxv
 BYTE   W02
 BYTE   VOL   65*FE11EndlessBattleREALxViPerZ_mvl/mxv
 BYTE   W01
 BYTE   VOL   66*FE11EndlessBattleREALxViPerZ_mvl/mxv
 BYTE   W02
 BYTE   VOL   67*FE11EndlessBattleREALxViPerZ_mvl/mxv
 BYTE   W01
 BYTE   VOL   68*FE11EndlessBattleREALxViPerZ_mvl/mxv
 BYTE   W02
 BYTE   VOL   69*FE11EndlessBattleREALxViPerZ_mvl/mxv
 BYTE   W01
 BYTE   VOL   70*FE11EndlessBattleREALxViPerZ_mvl/mxv
 BYTE   N02  Cs2
 BYTE   W02
 BYTE   VOL   71*FE11EndlessBattleREALxViPerZ_mvl/mxv
 BYTE   W01
 BYTE   VOL   72*FE11EndlessBattleREALxViPerZ_mvl/mxv
 BYTE   N02  Dn2
 BYTE   W02
 BYTE   VOL   73*FE11EndlessBattleREALxViPerZ_mvl/mxv
 BYTE   W01
 BYTE   VOL   73*FE11EndlessBattleREALxViPerZ_mvl/mxv
 BYTE   N02  Ds2
 BYTE   W02
 BYTE   VOL   74*FE11EndlessBattleREALxViPerZ_mvl/mxv
 BYTE   W01
 BYTE   VOL   76*FE11EndlessBattleREALxViPerZ_mvl/mxv
 BYTE   N02  En2
 BYTE   W02
 BYTE   VOL   77*FE11EndlessBattleREALxViPerZ_mvl/mxv
 BYTE   W01
 BYTE   VOL   77*FE11EndlessBattleREALxViPerZ_mvl/mxv
 BYTE   N17  Fn2
 BYTE   W18
 BYTE   Gn2
 BYTE   W12
 BYTE   VOL   78*FE11EndlessBattleREALxViPerZ_mvl/mxv
 BYTE   W06
 BYTE   N11  An2
 BYTE   W09
 BYTE   VOL   79*FE11EndlessBattleREALxViPerZ_mvl/mxv
 BYTE   W03
//  #08 //013   ----------------------------------------
 BYTE   N17  Cn3
 BYTE   W12
 BYTE   VOL   81*FE11EndlessBattleREALxViPerZ_mvl/mxv
 BYTE   W06
 BYTE   N05  Gs2
 BYTE   W06
 BYTE   N68  Ds2
 BYTE   W03
 BYTE   VOL   82*FE11EndlessBattleREALxViPerZ_mvl/mxv
 BYTE   W03
 BYTE   VOL   81*FE11EndlessBattleREALxViPerZ_mvl/mxv
 BYTE   W03
 BYTE   VOL   81*FE11EndlessBattleREALxViPerZ_mvl/mxv
 BYTE   W03
 BYTE   VOL   78*FE11EndlessBattleREALxViPerZ_mvl/mxv
 BYTE   W03
 BYTE   VOL   77*FE11EndlessBattleREALxViPerZ_mvl/mxv
 BYTE   W03
 BYTE   VOL   77*FE11EndlessBattleREALxViPerZ_mvl/mxv
 BYTE   W03
 BYTE   VOL   76*FE11EndlessBattleREALxViPerZ_mvl/mxv
 BYTE   W03
 BYTE   VOL   76*FE11EndlessBattleREALxViPerZ_mvl/mxv
 BYTE   W03
 BYTE   VOL   74*FE11EndlessBattleREALxViPerZ_mvl/mxv
 BYTE   W03
 BYTE   VOL   74*FE11EndlessBattleREALxViPerZ_mvl/mxv
 BYTE   W03
 BYTE   VOL   73*FE11EndlessBattleREALxViPerZ_mvl/mxv
 BYTE   W03
 BYTE   VOL   73*FE11EndlessBattleREALxViPerZ_mvl/mxv
 BYTE   W03
 BYTE   VOL   72*FE11EndlessBattleREALxViPerZ_mvl/mxv
 BYTE   W03
 BYTE   VOL   71*FE11EndlessBattleREALxViPerZ_mvl/mxv
 BYTE   W01
 BYTE   VOL   71*FE11EndlessBattleREALxViPerZ_mvl/mxv
 BYTE   W02
 BYTE   VOL   70*FE11EndlessBattleREALxViPerZ_mvl/mxv
 BYTE   W01
 BYTE   VOL   68*FE11EndlessBattleREALxViPerZ_mvl/mxv
 BYTE   W02
 BYTE   VOL   68*FE11EndlessBattleREALxViPerZ_mvl/mxv
 BYTE   W01
 BYTE   VOL   66*FE11EndlessBattleREALxViPerZ_mvl/mxv
 BYTE   W02
 BYTE   VOL   65*FE11EndlessBattleREALxViPerZ_mvl/mxv
 BYTE   W01
 BYTE   VOL   65*FE11EndlessBattleREALxViPerZ_mvl/mxv
 BYTE   W02
 BYTE   VOL   64*FE11EndlessBattleREALxViPerZ_mvl/mxv
 BYTE   W01
 BYTE   VOL   63*FE11EndlessBattleREALxViPerZ_mvl/mxv
 BYTE   W02
 BYTE   VOL   62*FE11EndlessBattleREALxViPerZ_mvl/mxv
 BYTE   W01
 BYTE   VOL   61*FE11EndlessBattleREALxViPerZ_mvl/mxv
 BYTE   W02
 BYTE   VOL   60*FE11EndlessBattleREALxViPerZ_mvl/mxv
 BYTE   W01
 BYTE   VOL   60*FE11EndlessBattleREALxViPerZ_mvl/mxv
 BYTE   W02
 BYTE   VOL   60*FE11EndlessBattleREALxViPerZ_mvl/mxv
 BYTE   W01
 BYTE   VOL   59*FE11EndlessBattleREALxViPerZ_mvl/mxv
 BYTE   W02
 BYTE   VOL   58*FE11EndlessBattleREALxViPerZ_mvl/mxv
 BYTE   W01
 BYTE   VOL   58*FE11EndlessBattleREALxViPerZ_mvl/mxv
 BYTE   W02
 BYTE   VOL   57*FE11EndlessBattleREALxViPerZ_mvl/mxv
 BYTE   W01
 BYTE   VOL   57*FE11EndlessBattleREALxViPerZ_mvl/mxv
 BYTE   W02
//  #08 //014   ----------------------------------------
 BYTE   VOL   57*FE11EndlessBattleREALxViPerZ_mvl/mxv
 BYTE   N44  Cs2
 BYTE   W01
 BYTE   VOL   56*FE11EndlessBattleREALxViPerZ_mvl/mxv
 BYTE   W02
 BYTE   VOL   56*FE11EndlessBattleREALxViPerZ_mvl/mxv
 BYTE   W01
 BYTE   VOL   55*FE11EndlessBattleREALxViPerZ_mvl/mxv
 BYTE   W02
 BYTE   VOL   55*FE11EndlessBattleREALxViPerZ_mvl/mxv
 BYTE   W01
 BYTE   VOL   55*FE11EndlessBattleREALxViPerZ_mvl/mxv
 BYTE   W02
 BYTE   VOL   56*FE11EndlessBattleREALxViPerZ_mvl/mxv
 BYTE   W01
 BYTE   VOL   57*FE11EndlessBattleREALxViPerZ_mvl/mxv
 BYTE   W02
 BYTE   VOL   57*FE11EndlessBattleREALxViPerZ_mvl/mxv
 BYTE   W01
 BYTE   VOL   58*FE11EndlessBattleREALxViPerZ_mvl/mxv
 BYTE   W02
 BYTE   VOL   59*FE11EndlessBattleREALxViPerZ_mvl/mxv
 BYTE   W01
 BYTE   VOL   60*FE11EndlessBattleREALxViPerZ_mvl/mxv
 BYTE   W02
 BYTE   VOL   60*FE11EndlessBattleREALxViPerZ_mvl/mxv
 BYTE   W01
 BYTE   VOL   62*FE11EndlessBattleREALxViPerZ_mvl/mxv
 BYTE   W02
 BYTE   VOL   64*FE11EndlessBattleREALxViPerZ_mvl/mxv
 BYTE   W01
 BYTE   VOL   64*FE11EndlessBattleREALxViPerZ_mvl/mxv
 BYTE   W04
 BYTE   VOL   65*FE11EndlessBattleREALxViPerZ_mvl/mxv
 BYTE   W04
 BYTE   VOL   65*FE11EndlessBattleREALxViPerZ_mvl/mxv
 BYTE   W04
 BYTE   VOL   65*FE11EndlessBattleREALxViPerZ_mvl/mxv
 BYTE   W04
 BYTE   VOL   65*FE11EndlessBattleREALxViPerZ_mvl/mxv
 BYTE   W04
 BYTE   VOL   65*FE11EndlessBattleREALxViPerZ_mvl/mxv
 BYTE   W04
 BYTE   VOL   66*FE11EndlessBattleREALxViPerZ_mvl/mxv
 BYTE   W02
 BYTE   N40  Fn2
 BYTE   W08
 BYTE   VOL   67*FE11EndlessBattleREALxViPerZ_mvl/mxv
 BYTE   W06
 BYTE   VOL   67*FE11EndlessBattleREALxViPerZ_mvl/mxv
 BYTE   W05
 BYTE   VOL   68*FE11EndlessBattleREALxViPerZ_mvl/mxv
 BYTE   W06
 BYTE   VOL   68*FE11EndlessBattleREALxViPerZ_mvl/mxv
 BYTE   W05
 BYTE   VOL   68*FE11EndlessBattleREALxViPerZ_mvl/mxv
 BYTE   W06
 BYTE   VOL   69*FE11EndlessBattleREALxViPerZ_mvl/mxv
 BYTE   W05
 BYTE   VOL   69*FE11EndlessBattleREALxViPerZ_mvl/mxv
 BYTE   W01
 BYTE   N02  Fs2  v076
 BYTE   W03
 BYTE   Gn2
 BYTE   W01
 BYTE   VOL   71*FE11EndlessBattleREALxViPerZ_mvl/mxv
 BYTE   W02
//  #08 //015   ----------------------------------------
 BYTE   N44  Gs2  v060
 BYTE   W30
 BYTE   VOL   71*FE11EndlessBattleREALxViPerZ_mvl/mxv
 BYTE   W07
 BYTE   VOL   71*FE11EndlessBattleREALxViPerZ_mvl/mxv
 BYTE   W03
 BYTE   VOL   70*FE11EndlessBattleREALxViPerZ_mvl/mxv
 BYTE   W03
 BYTE   VOL   69*FE11EndlessBattleREALxViPerZ_mvl/mxv
 BYTE   W04
 BYTE   VOL   69*FE11EndlessBattleREALxViPerZ_mvl/mxv
 BYTE   W01
 BYTE   N44  Fn2
 BYTE   W02
 BYTE   VOL   68*FE11EndlessBattleREALxViPerZ_mvl/mxv
 BYTE   W03
 BYTE   VOL   68*FE11EndlessBattleREALxViPerZ_mvl/mxv
 BYTE   W03
 BYTE   VOL   68*FE11EndlessBattleREALxViPerZ_mvl/mxv
 BYTE   W04
 BYTE   VOL   67*FE11EndlessBattleREALxViPerZ_mvl/mxv
 BYTE   W03
 BYTE   VOL   67*FE11EndlessBattleREALxViPerZ_mvl/mxv
 BYTE   W03
 BYTE   VOL   66*FE11EndlessBattleREALxViPerZ_mvl/mxv
 BYTE   W04
 BYTE   VOL   65*FE11EndlessBattleREALxViPerZ_mvl/mxv
 BYTE   W03
 BYTE   VOL   65*FE11EndlessBattleREALxViPerZ_mvl/mxv
 BYTE   W03
 BYTE   VOL   65*FE11EndlessBattleREALxViPerZ_mvl/mxv
 BYTE   W03
 BYTE   VOL   65*FE11EndlessBattleREALxViPerZ_mvl/mxv
 BYTE   W04
 BYTE   VOL   65*FE11EndlessBattleREALxViPerZ_mvl/mxv
 BYTE   W03
 BYTE   VOL   64*FE11EndlessBattleREALxViPerZ_mvl/mxv
 BYTE   W03
 BYTE   VOL   64*FE11EndlessBattleREALxViPerZ_mvl/mxv
 BYTE   W04
 BYTE   VOL   64*FE11EndlessBattleREALxViPerZ_mvl/mxv
 BYTE   W03
//  #08 //016   ----------------------------------------
 BYTE   VOL   64*FE11EndlessBattleREALxViPerZ_mvl/mxv
 BYTE   N44
 BYTE   W03
 BYTE   VOL   62*FE11EndlessBattleREALxViPerZ_mvl/mxv
 BYTE   W09
 BYTE   VOL   63*FE11EndlessBattleREALxViPerZ_mvl/mxv
 BYTE   W04
 BYTE   VOL   64*FE11EndlessBattleREALxViPerZ_mvl/mxv
 BYTE   W04
 BYTE   VOL   64*FE11EndlessBattleREALxViPerZ_mvl/mxv
 BYTE   W04
 BYTE   VOL   64*FE11EndlessBattleREALxViPerZ_mvl/mxv
 BYTE   W04
 BYTE   VOL   64*FE11EndlessBattleREALxViPerZ_mvl/mxv
 BYTE   W04
 BYTE   VOL   65*FE11EndlessBattleREALxViPerZ_mvl/mxv
 BYTE   W04
 BYTE   VOL   65*FE11EndlessBattleREALxViPerZ_mvl/mxv
 BYTE   W04
 BYTE   VOL   65*FE11EndlessBattleREALxViPerZ_mvl/mxv
 BYTE   W05
 BYTE   VOL   65*FE11EndlessBattleREALxViPerZ_mvl/mxv
 BYTE   W03
 BYTE   N17  Cn2
 BYTE   W01
 BYTE   VOL   65*FE11EndlessBattleREALxViPerZ_mvl/mxv
 BYTE   W04
 BYTE   VOL   66*FE11EndlessBattleREALxViPerZ_mvl/mxv
 BYTE   W04
 BYTE   VOL   67*FE11EndlessBattleREALxViPerZ_mvl/mxv
 BYTE   W04
 BYTE   VOL   67*FE11EndlessBattleREALxViPerZ_mvl/mxv
 BYTE   W04
 BYTE   VOL   68*FE11EndlessBattleREALxViPerZ_mvl/mxv
 BYTE   W01
 BYTE   N02  Dn2
 BYTE   W03
 BYTE   VOL   68*FE11EndlessBattleREALxViPerZ_mvl/mxv
 BYTE   N02  En2
 BYTE   W03
 BYTE   N23  Fn2
 BYTE   W02
 BYTE   VOL   68*FE11EndlessBattleREALxViPerZ_mvl/mxv
 BYTE   W04
 BYTE   VOL   69*FE11EndlessBattleREALxViPerZ_mvl/mxv
 BYTE   W04
 BYTE   VOL   69*FE11EndlessBattleREALxViPerZ_mvl/mxv
 BYTE   W04
 BYTE   VOL   70*FE11EndlessBattleREALxViPerZ_mvl/mxv
 BYTE   W04
 BYTE   VOL   71*FE11EndlessBattleREALxViPerZ_mvl/mxv
 BYTE   W04
 BYTE   VOL   71*FE11EndlessBattleREALxViPerZ_mvl/mxv
 BYTE   W02
//  #08 //017   ----------------------------------------
 BYTE   N48  Gn2
 BYTE   W02
 BYTE   VOL   72*FE11EndlessBattleREALxViPerZ_mvl/mxv
 BYTE   W06
 BYTE   VOL   71*FE11EndlessBattleREALxViPerZ_mvl/mxv
 BYTE   W06
 BYTE   VOL   71*FE11EndlessBattleREALxViPerZ_mvl/mxv
 BYTE   W06
 BYTE   VOL   71*FE11EndlessBattleREALxViPerZ_mvl/mxv
 BYTE   W05
 BYTE   VOL   70*FE11EndlessBattleREALxViPerZ_mvl/mxv
 BYTE   W06
 BYTE   VOL   69*FE11EndlessBattleREALxViPerZ_mvl/mxv
 BYTE   W06
 BYTE   VOL   69*FE11EndlessBattleREALxViPerZ_mvl/mxv
 BYTE   W06
 BYTE   VOL   68*FE11EndlessBattleREALxViPerZ_mvl/mxv
 BYTE   W05
 BYTE   VOL   68*FE11EndlessBattleREALxViPerZ_mvl/mxv
 BYTE   N30  Dn2
 BYTE   W02
 BYTE   VOL   68*FE11EndlessBattleREALxViPerZ_mvl/mxv
 BYTE   W01
 BYTE   VOL   67*FE11EndlessBattleREALxViPerZ_mvl/mxv
 BYTE   W02
 BYTE   VOL   66*FE11EndlessBattleREALxViPerZ_mvl/mxv
 BYTE   W01
 BYTE   VOL   65*FE11EndlessBattleREALxViPerZ_mvl/mxv
 BYTE   W02
 BYTE   VOL   65*FE11EndlessBattleREALxViPerZ_mvl/mxv
 BYTE   W01
 BYTE   VOL   65*FE11EndlessBattleREALxViPerZ_mvl/mxv
 BYTE   W02
 BYTE   VOL   64*FE11EndlessBattleREALxViPerZ_mvl/mxv
 BYTE   W01
 BYTE   VOL   64*FE11EndlessBattleREALxViPerZ_mvl/mxv
 BYTE   W02
 BYTE   VOL   63*FE11EndlessBattleREALxViPerZ_mvl/mxv
 BYTE   W01
 BYTE   VOL   62*FE11EndlessBattleREALxViPerZ_mvl/mxv
 BYTE   W02
 BYTE   VOL   62*FE11EndlessBattleREALxViPerZ_mvl/mxv
 BYTE   W01
 BYTE   VOL   61*FE11EndlessBattleREALxViPerZ_mvl/mxv
 BYTE   W02
 BYTE   VOL   60*FE11EndlessBattleREALxViPerZ_mvl/mxv
 BYTE   W01
 BYTE   VOL   60*FE11EndlessBattleREALxViPerZ_mvl/mxv
 BYTE   W01
 BYTE   VOL   60*FE11EndlessBattleREALxViPerZ_mvl/mxv
 BYTE   W02
 BYTE   VOL   59*FE11EndlessBattleREALxViPerZ_mvl/mxv
 BYTE   W01
 BYTE   VOL   57*FE11EndlessBattleREALxViPerZ_mvl/mxv
 BYTE   W02
 BYTE   VOL   57*FE11EndlessBattleREALxViPerZ_mvl/mxv
 BYTE   W01
 BYTE   VOL   56*FE11EndlessBattleREALxViPerZ_mvl/mxv
 BYTE   W02
 BYTE   VOL   55*FE11EndlessBattleREALxViPerZ_mvl/mxv
 BYTE   W01
 BYTE   VOL   55*FE11EndlessBattleREALxViPerZ_mvl/mxv
 BYTE   W02
 BYTE   VOL   54*FE11EndlessBattleREALxViPerZ_mvl/mxv
 BYTE   W01
 BYTE   VOL   54*FE11EndlessBattleREALxViPerZ_mvl/mxv
 BYTE   W02
 BYTE   VOL   54*FE11EndlessBattleREALxViPerZ_mvl/mxv
 BYTE   W01
 BYTE   VOL   54*FE11EndlessBattleREALxViPerZ_mvl/mxv
 BYTE   W02
 BYTE   VOL   54*FE11EndlessBattleREALxViPerZ_mvl/mxv
 BYTE   W01
 BYTE   VOL   55*FE11EndlessBattleREALxViPerZ_mvl/mxv
 BYTE   W01
 BYTE   VOL   57*FE11EndlessBattleREALxViPerZ_mvl/mxv
 BYTE   W01
 BYTE   VOL   64*FE11EndlessBattleREALxViPerZ_mvl/mxv
 BYTE   W03
 BYTE   VOL   65*FE11EndlessBattleREALxViPerZ_mvl/mxv
 BYTE   W03
//  #08 //018   ----------------------------------------
 BYTE   VOL   65*FE11EndlessBattleREALxViPerZ_mvl/mxv
 BYTE   W03
 BYTE   VOL   67*FE11EndlessBattleREALxViPerZ_mvl/mxv
 BYTE   W03
 BYTE   VOL   68*FE11EndlessBattleREALxViPerZ_mvl/mxv
 BYTE   W03
 BYTE   VOL   70*FE11EndlessBattleREALxViPerZ_mvl/mxv
 BYTE   W03
 BYTE   VOL   71*FE11EndlessBattleREALxViPerZ_mvl/mxv
 BYTE   W03
 BYTE   VOL   72*FE11EndlessBattleREALxViPerZ_mvl/mxv
 BYTE   W03
 BYTE   VOL   73*FE11EndlessBattleREALxViPerZ_mvl/mxv
 BYTE   W03
 BYTE   VOL   74*FE11EndlessBattleREALxViPerZ_mvl/mxv
 BYTE   W03
 BYTE   VOL   77*FE11EndlessBattleREALxViPerZ_mvl/mxv
 BYTE   W03
 BYTE   VOL   77*FE11EndlessBattleREALxViPerZ_mvl/mxv
 BYTE   W03
 BYTE   VOL   81*FE11EndlessBattleREALxViPerZ_mvl/mxv
 BYTE   W03
 BYTE   VOL   82*FE11EndlessBattleREALxViPerZ_mvl/mxv
 BYTE   W03
 BYTE   VOL   84*FE11EndlessBattleREALxViPerZ_mvl/mxv
 BYTE   W16
 BYTE   VOL   84*FE11EndlessBattleREALxViPerZ_mvl/mxv
 BYTE   W03
 BYTE   VOL   82*FE11EndlessBattleREALxViPerZ_mvl/mxv
 BYTE   W03
 BYTE   VOL   82*FE11EndlessBattleREALxViPerZ_mvl/mxv
 BYTE   W03
 BYTE   VOL   81*FE11EndlessBattleREALxViPerZ_mvl/mxv
 BYTE   W03
 BYTE   VOL   78*FE11EndlessBattleREALxViPerZ_mvl/mxv
 BYTE   W03
 BYTE   VOL   77*FE11EndlessBattleREALxViPerZ_mvl/mxv
 BYTE   W03
 BYTE   VOL   76*FE11EndlessBattleREALxViPerZ_mvl/mxv
 BYTE   W02
 BYTE   VOL   74*FE11EndlessBattleREALxViPerZ_mvl/mxv
 BYTE   W03
 BYTE   VOL   76*FE11EndlessBattleREALxViPerZ_mvl/mxv
 BYTE   W03
 BYTE   VOL   77*FE11EndlessBattleREALxViPerZ_mvl/mxv
 BYTE   W03
 BYTE   VOL   77*FE11EndlessBattleREALxViPerZ_mvl/mxv
 BYTE   W03
 BYTE   VOL   79*FE11EndlessBattleREALxViPerZ_mvl/mxv
 BYTE   W03
 BYTE   VOL   81*FE11EndlessBattleREALxViPerZ_mvl/mxv
 BYTE   W03
 BYTE   VOL   82*FE11EndlessBattleREALxViPerZ_mvl/mxv
 BYTE   W03
 BYTE   VOL   83*FE11EndlessBattleREALxViPerZ_mvl/mxv
 BYTE   W03
//  #08 //019   ----------------------------------------
 BYTE   VOL   85*FE11EndlessBattleREALxViPerZ_mvl/mxv
 BYTE   W15
 BYTE   VOL   85*FE11EndlessBattleREALxViPerZ_mvl/mxv
 BYTE   W01
 BYTE   VOL   82*FE11EndlessBattleREALxViPerZ_mvl/mxv
 BYTE   W02
 BYTE   VOL   78*FE11EndlessBattleREALxViPerZ_mvl/mxv
 BYTE   W01
 BYTE   VOL   76*FE11EndlessBattleREALxViPerZ_mvl/mxv
 BYTE   W02
 BYTE   VOL   72*FE11EndlessBattleREALxViPerZ_mvl/mxv
 BYTE   W03
 BYTE   VOL   73*FE11EndlessBattleREALxViPerZ_mvl/mxv
 BYTE   W03
 BYTE   VOL   74*FE11EndlessBattleREALxViPerZ_mvl/mxv
 BYTE   W03
 BYTE   VOL   76*FE11EndlessBattleREALxViPerZ_mvl/mxv
 BYTE   W03
 BYTE   VOL   77*FE11EndlessBattleREALxViPerZ_mvl/mxv
 BYTE   W03
 BYTE   VOL   79*FE11EndlessBattleREALxViPerZ_mvl/mxv
 BYTE   W03
 BYTE   VOL   81*FE11EndlessBattleREALxViPerZ_mvl/mxv
 BYTE   W03
 BYTE   VOL   82*FE11EndlessBattleREALxViPerZ_mvl/mxv
 BYTE   W03
 BYTE   VOL   85*FE11EndlessBattleREALxViPerZ_mvl/mxv
 BYTE   W48
 BYTE   W03
//  #08 //020   ----------------------------------------
 BYTE   W05
 BYTE   VOL   85*FE11EndlessBattleREALxViPerZ_mvl/mxv
 BYTE   W03
 BYTE   VOL   84*FE11EndlessBattleREALxViPerZ_mvl/mxv
 BYTE   W03
 BYTE   VOL   82*FE11EndlessBattleREALxViPerZ_mvl/mxv
 BYTE   W03
 BYTE   VOL   82*FE11EndlessBattleREALxViPerZ_mvl/mxv
 BYTE   W03
 BYTE   VOL   81*FE11EndlessBattleREALxViPerZ_mvl/mxv
 BYTE   W03
 BYTE   VOL   81*FE11EndlessBattleREALxViPerZ_mvl/mxv
 BYTE   W03
 BYTE   VOL   78*FE11EndlessBattleREALxViPerZ_mvl/mxv
 BYTE   W02
 BYTE   VOL   77*FE11EndlessBattleREALxViPerZ_mvl/mxv
 BYTE   W03
 BYTE   VOL   78*FE11EndlessBattleREALxViPerZ_mvl/mxv
 BYTE   W03
 BYTE   VOL   79*FE11EndlessBattleREALxViPerZ_mvl/mxv
 BYTE   W03
 BYTE   VOL   81*FE11EndlessBattleREALxViPerZ_mvl/mxv
 BYTE   W03
 BYTE   VOL   82*FE11EndlessBattleREALxViPerZ_mvl/mxv
 BYTE   W03
 BYTE   VOL   82*FE11EndlessBattleREALxViPerZ_mvl/mxv
 BYTE   W03
 BYTE   VOL   82*FE11EndlessBattleREALxViPerZ_mvl/mxv
 BYTE   W03
 BYTE   VOL   83*FE11EndlessBattleREALxViPerZ_mvl/mxv
 BYTE   W03
 BYTE   VOL   85*FE11EndlessBattleREALxViPerZ_mvl/mxv
 BYTE   W44
 BYTE   W03
//  #08 //021   ----------------------------------------
 BYTE   W01
 BYTE   VOL   85*FE11EndlessBattleREALxViPerZ_mvl/mxv
 BYTE   W05
 BYTE   VOL   84*FE11EndlessBattleREALxViPerZ_mvl/mxv
 BYTE   W05
 BYTE   VOL   83*FE11EndlessBattleREALxViPerZ_mvl/mxv
 BYTE   W04
 BYTE   VOL   82*FE11EndlessBattleREALxViPerZ_mvl/mxv
 BYTE   W05
 BYTE   VOL   82*FE11EndlessBattleREALxViPerZ_mvl/mxv
 BYTE   W05
 BYTE   VOL   82*FE11EndlessBattleREALxViPerZ_mvl/mxv
 BYTE   W05
 BYTE   VOL   81*FE11EndlessBattleREALxViPerZ_mvl/mxv
 BYTE   W04
 BYTE   VOL   81*FE11EndlessBattleREALxViPerZ_mvl/mxv
 BYTE   W05
 BYTE   VOL   79*FE11EndlessBattleREALxViPerZ_mvl/mxv
 BYTE   W03
 BYTE   VOL   78*FE11EndlessBattleREALxViPerZ_mvl/mxv
 BYTE   W03
 BYTE   VOL   77*FE11EndlessBattleREALxViPerZ_mvl/mxv
 BYTE   W03
 BYTE   VOL   76*FE11EndlessBattleREALxViPerZ_mvl/mxv
 BYTE   W03
 BYTE   VOL   76*FE11EndlessBattleREALxViPerZ_mvl/mxv
 BYTE   W03
 BYTE   VOL   74*FE11EndlessBattleREALxViPerZ_mvl/mxv
 BYTE   W02
 BYTE   VOL   73*FE11EndlessBattleREALxViPerZ_mvl/mxv
 BYTE   W02
 BYTE   VOL   74*FE11EndlessBattleREALxViPerZ_mvl/mxv
 BYTE   W01
 BYTE   VOL   74*FE11EndlessBattleREALxViPerZ_mvl/mxv
 BYTE   W02
 BYTE   VOL   76*FE11EndlessBattleREALxViPerZ_mvl/mxv
 BYTE   W01
 BYTE   VOL   77*FE11EndlessBattleREALxViPerZ_mvl/mxv
 BYTE   W02
 BYTE   VOL   77*FE11EndlessBattleREALxViPerZ_mvl/mxv
 BYTE   W01
 BYTE   VOL   78*FE11EndlessBattleREALxViPerZ_mvl/mxv
 BYTE   W02
 BYTE   VOL   79*FE11EndlessBattleREALxViPerZ_mvl/mxv
 BYTE   W01
 BYTE   VOL   81*FE11EndlessBattleREALxViPerZ_mvl/mxv
 BYTE   W02
 BYTE   VOL   82*FE11EndlessBattleREALxViPerZ_mvl/mxv
 BYTE   W01
 BYTE   VOL   82*FE11EndlessBattleREALxViPerZ_mvl/mxv
 BYTE   W02
 BYTE   VOL   84*FE11EndlessBattleREALxViPerZ_mvl/mxv
 BYTE   W23
//  #08 //022   ----------------------------------------
 BYTE   W96
//  #08 //023   ----------------------------------------
 BYTE   W06
 BYTE   VOL   84*FE11EndlessBattleREALxViPerZ_mvl/mxv
 BYTE   W03
 BYTE   VOL   83*FE11EndlessBattleREALxViPerZ_mvl/mxv
 BYTE   W03
 BYTE   VOL   82*FE11EndlessBattleREALxViPerZ_mvl/mxv
 BYTE   W03
 BYTE   VOL   81*FE11EndlessBattleREALxViPerZ_mvl/mxv
 BYTE   W03
 BYTE   VOL   79*FE11EndlessBattleREALxViPerZ_mvl/mxv
 BYTE   W03
 BYTE   VOL   77*FE11EndlessBattleREALxViPerZ_mvl/mxv
 BYTE   W01
 BYTE   VOL   77*FE11EndlessBattleREALxViPerZ_mvl/mxv
 BYTE   W03
 BYTE   VOL   77*FE11EndlessBattleREALxViPerZ_mvl/mxv
 BYTE   W03
 BYTE   VOL   78*FE11EndlessBattleREALxViPerZ_mvl/mxv
 BYTE   W03
 BYTE   VOL   79*FE11EndlessBattleREALxViPerZ_mvl/mxv
 BYTE   W03
 BYTE   VOL   81*FE11EndlessBattleREALxViPerZ_mvl/mxv
 BYTE   W03
 BYTE   VOL   81*FE11EndlessBattleREALxViPerZ_mvl/mxv
 BYTE   W03
 BYTE   VOL   82*FE11EndlessBattleREALxViPerZ_mvl/mxv
 BYTE   W03
 BYTE   VOL   82*FE11EndlessBattleREALxViPerZ_mvl/mxv
 BYTE   W03
 BYTE   VOL   83*FE11EndlessBattleREALxViPerZ_mvl/mxv
 BYTE   W03
 BYTE   VOL   84*FE11EndlessBattleREALxViPerZ_mvl/mxv
 BYTE   W01
 BYTE   VOL   85*FE11EndlessBattleREALxViPerZ_mvl/mxv
 BYTE   W44
 BYTE   W02
//  #08 //024   ----------------------------------------
 BYTE   W24
 BYTE   W02
 BYTE   VOL   85*FE11EndlessBattleREALxViPerZ_mvl/mxv
 BYTE   W03
 BYTE   VOL   83*FE11EndlessBattleREALxViPerZ_mvl/mxv
 BYTE   W03
 BYTE   VOL   82*FE11EndlessBattleREALxViPerZ_mvl/mxv
 BYTE   W03
 BYTE   VOL   79*FE11EndlessBattleREALxViPerZ_mvl/mxv
 BYTE   W03
 BYTE   VOL   77*FE11EndlessBattleREALxViPerZ_mvl/mxv
 BYTE   W03
 BYTE   VOL   78*FE11EndlessBattleREALxViPerZ_mvl/mxv
 BYTE   W03
 BYTE   VOL   81*FE11EndlessBattleREALxViPerZ_mvl/mxv
 BYTE   W03
 BYTE   VOL   81*FE11EndlessBattleREALxViPerZ_mvl/mxv
 BYTE   W03
 BYTE   VOL   82*FE11EndlessBattleREALxViPerZ_mvl/mxv
 BYTE   W03
 BYTE   VOL   83*FE11EndlessBattleREALxViPerZ_mvl/mxv
 BYTE   W03
 BYTE   VOL   85*FE11EndlessBattleREALxViPerZ_mvl/mxv
 BYTE   W08
 BYTE   VOL   84*FE11EndlessBattleREALxViPerZ_mvl/mxv
 BYTE   W04
 BYTE   VOL   83*FE11EndlessBattleREALxViPerZ_mvl/mxv
 BYTE   W04
 BYTE   VOL   82*FE11EndlessBattleREALxViPerZ_mvl/mxv
 BYTE   W04
 BYTE   VOL   82*FE11EndlessBattleREALxViPerZ_mvl/mxv
 BYTE   W04
 BYTE   VOL   82*FE11EndlessBattleREALxViPerZ_mvl/mxv
 BYTE   W04
 BYTE   VOL   81*FE11EndlessBattleREALxViPerZ_mvl/mxv
 BYTE   W04
 BYTE   VOL   81*FE11EndlessBattleREALxViPerZ_mvl/mxv
 BYTE   W05
 BYTE   VOL   79*FE11EndlessBattleREALxViPerZ_mvl/mxv
 BYTE   W03
//  #08 //025   ----------------------------------------
 BYTE   W01
 BYTE   VOL   78*FE11EndlessBattleREALxViPerZ_mvl/mxv
 BYTE   W04
 BYTE   VOL   77*FE11EndlessBattleREALxViPerZ_mvl/mxv
 BYTE   W04
 BYTE   VOL   77*FE11EndlessBattleREALxViPerZ_mvl/mxv
 BYTE   W04
 BYTE   VOL   77*FE11EndlessBattleREALxViPerZ_mvl/mxv
 BYTE   W04
 BYTE   VOL   76*FE11EndlessBattleREALxViPerZ_mvl/mxv
 BYTE   W04
 BYTE   VOL   74*FE11EndlessBattleREALxViPerZ_mvl/mxv
 BYTE   W03
 BYTE   VOL   74*FE11EndlessBattleREALxViPerZ_mvl/mxv
 BYTE   W03
 BYTE   VOL   73*FE11EndlessBattleREALxViPerZ_mvl/mxv
 BYTE   W03
 BYTE   VOL   71*FE11EndlessBattleREALxViPerZ_mvl/mxv
 BYTE   W03
 BYTE   VOL   70*FE11EndlessBattleREALxViPerZ_mvl/mxv
 BYTE   W03
 BYTE   VOL   68*FE11EndlessBattleREALxViPerZ_mvl/mxv
 BYTE   W03
 BYTE   VOL   67*FE11EndlessBattleREALxViPerZ_mvl/mxv
 BYTE   W03
 BYTE   VOL   65*FE11EndlessBattleREALxViPerZ_mvl/mxv
 BYTE   W03
 BYTE   VOL   65*FE11EndlessBattleREALxViPerZ_mvl/mxv
 BYTE   W03
 BYTE   VOL   64*FE11EndlessBattleREALxViPerZ_mvl/mxv
 BYTE   W03
 BYTE   VOL   64*FE11EndlessBattleREALxViPerZ_mvl/mxv
 BYTE   W03
 BYTE   VOL   62*FE11EndlessBattleREALxViPerZ_mvl/mxv
 BYTE   W03
 BYTE   VOL   61*FE11EndlessBattleREALxViPerZ_mvl/mxv
 BYTE   W03
 BYTE   VOL   60*FE11EndlessBattleREALxViPerZ_mvl/mxv
 BYTE   W03
 BYTE   VOL   60*FE11EndlessBattleREALxViPerZ_mvl/mxv
 BYTE   W03
 BYTE   VOL   59*FE11EndlessBattleREALxViPerZ_mvl/mxv
 BYTE   W03
 BYTE   VOL   58*FE11EndlessBattleREALxViPerZ_mvl/mxv
 BYTE   W03
 BYTE   VOL   58*FE11EndlessBattleREALxViPerZ_mvl/mxv
 BYTE   W03
 BYTE   VOL   57*FE11EndlessBattleREALxViPerZ_mvl/mxv
 BYTE   W03
 BYTE   VOL   57*FE11EndlessBattleREALxViPerZ_mvl/mxv
 BYTE   W03
 BYTE   VOL   56*FE11EndlessBattleREALxViPerZ_mvl/mxv
 BYTE   W03
 BYTE   VOL   56*FE11EndlessBattleREALxViPerZ_mvl/mxv
 BYTE   W03
 BYTE   VOL   55*FE11EndlessBattleREALxViPerZ_mvl/mxv
 BYTE   W03
 BYTE   VOL   55*FE11EndlessBattleREALxViPerZ_mvl/mxv
 BYTE   W01
 BYTE   VOL   55*FE11EndlessBattleREALxViPerZ_mvl/mxv
 BYTE   W03
 BYTE   VOL   55*FE11EndlessBattleREALxViPerZ_mvl/mxv
 BYTE   W02
//  #08 //026   ----------------------------------------
 BYTE   N48  Gs1  v076
 BYTE   W01
 BYTE   VOL   55*FE11EndlessBattleREALxViPerZ_mvl/mxv
 BYTE   W03
 BYTE   VOL   56*FE11EndlessBattleREALxViPerZ_mvl/mxv
 BYTE   W03
 BYTE   VOL   56*FE11EndlessBattleREALxViPerZ_mvl/mxv
 BYTE   W03
 BYTE   VOL   57*FE11EndlessBattleREALxViPerZ_mvl/mxv
 BYTE   W03
 BYTE   VOL   57*FE11EndlessBattleREALxViPerZ_mvl/mxv
 BYTE   W03
 BYTE   VOL   57*FE11EndlessBattleREALxViPerZ_mvl/mxv
 BYTE   W03
 BYTE   VOL   58*FE11EndlessBattleREALxViPerZ_mvl/mxv
 BYTE   W03
 BYTE   VOL   58*FE11EndlessBattleREALxViPerZ_mvl/mxv
 BYTE   W03
 BYTE   VOL   59*FE11EndlessBattleREALxViPerZ_mvl/mxv
 BYTE   W03
 BYTE   VOL   60*FE11EndlessBattleREALxViPerZ_mvl/mxv
 BYTE   W03
 BYTE   VOL   60*FE11EndlessBattleREALxViPerZ_mvl/mxv
 BYTE   W03
 BYTE   VOL   60*FE11EndlessBattleREALxViPerZ_mvl/mxv
 BYTE   W03
 BYTE   VOL   61*FE11EndlessBattleREALxViPerZ_mvl/mxv
 BYTE   W03
 BYTE   VOL   62*FE11EndlessBattleREALxViPerZ_mvl/mxv
 BYTE   W03
 BYTE   VOL   63*FE11EndlessBattleREALxViPerZ_mvl/mxv
 BYTE   W03
 BYTE   VOL   64*FE11EndlessBattleREALxViPerZ_mvl/mxv
 BYTE   W01
 BYTE   VOL   64*FE11EndlessBattleREALxViPerZ_mvl/mxv
 BYTE   W01
 BYTE   N24  Cn2
 BYTE   W02
 BYTE   VOL   65*FE11EndlessBattleREALxViPerZ_mvl/mxv
 BYTE   W03
 BYTE   VOL   65*FE11EndlessBattleREALxViPerZ_mvl/mxv
 BYTE   W03
 BYTE   VOL   65*FE11EndlessBattleREALxViPerZ_mvl/mxv
 BYTE   W03
 BYTE   VOL   65*FE11EndlessBattleREALxViPerZ_mvl/mxv
 BYTE   W03
 BYTE   VOL   65*FE11EndlessBattleREALxViPerZ_mvl/mxv
 BYTE   W03
 BYTE   VOL   66*FE11EndlessBattleREALxViPerZ_mvl/mxv
 BYTE   W03
 BYTE   VOL   67*FE11EndlessBattleREALxViPerZ_mvl/mxv
 BYTE   W03
 BYTE   VOL   68*FE11EndlessBattleREALxViPerZ_mvl/mxv
 BYTE   W01
 BYTE   N24  Ds2
 BYTE   W02
 BYTE   VOL   68*FE11EndlessBattleREALxViPerZ_mvl/mxv
 BYTE   W03
 BYTE   VOL   68*FE11EndlessBattleREALxViPerZ_mvl/mxv
 BYTE   W03
 BYTE   VOL   69*FE11EndlessBattleREALxViPerZ_mvl/mxv
 BYTE   W03
 BYTE   VOL   69*FE11EndlessBattleREALxViPerZ_mvl/mxv
 BYTE   W03
 BYTE   VOL   70*FE11EndlessBattleREALxViPerZ_mvl/mxv
 BYTE   W03
 BYTE   VOL   71*FE11EndlessBattleREALxViPerZ_mvl/mxv
 BYTE   W03
 BYTE   VOL   71*FE11EndlessBattleREALxViPerZ_mvl/mxv
 BYTE   W04
//  #08 //027   ----------------------------------------
 BYTE   N48  Fn2
 BYTE   W30
 BYTE   VOL   72*FE11EndlessBattleREALxViPerZ_mvl/mxv
 BYTE   W17
 BYTE   VOL   72*FE11EndlessBattleREALxViPerZ_mvl/mxv
 BYTE   W01
 BYTE   N48  Dn2
 BYTE   W16
 BYTE   VOL   73*FE11EndlessBattleREALxViPerZ_mvl/mxv
 BYTE   W17
 BYTE   VOL   73*FE11EndlessBattleREALxViPerZ_mvl/mxv
 BYTE   W15
//  #08 //028   ----------------------------------------
 BYTE   N24  Fn3
 BYTE   W02
 BYTE   VOL   74*FE11EndlessBattleREALxViPerZ_mvl/mxv
 BYTE   W02
 BYTE   VOL   73*FE11EndlessBattleREALxViPerZ_mvl/mxv
 BYTE   W01
 BYTE   VOL   72*FE11EndlessBattleREALxViPerZ_mvl/mxv
 BYTE   W02
 BYTE   VOL   71*FE11EndlessBattleREALxViPerZ_mvl/mxv
 BYTE   W01
 BYTE   VOL   71*FE11EndlessBattleREALxViPerZ_mvl/mxv
 BYTE   W02
 BYTE   VOL   69*FE11EndlessBattleREALxViPerZ_mvl/mxv
 BYTE   W01
 BYTE   VOL   68*FE11EndlessBattleREALxViPerZ_mvl/mxv
 BYTE   W02
 BYTE   VOL   67*FE11EndlessBattleREALxViPerZ_mvl/mxv
 BYTE   W01
 BYTE   VOL   66*FE11EndlessBattleREALxViPerZ_mvl/mxv
 BYTE   W02
 BYTE   VOL   65*FE11EndlessBattleREALxViPerZ_mvl/mxv
 BYTE   W07
 BYTE   VOL   65*FE11EndlessBattleREALxViPerZ_mvl/mxv
 BYTE   W01
 BYTE   N24  Ds3
 BYTE   W02
 BYTE   VOL   65*FE11EndlessBattleREALxViPerZ_mvl/mxv
 BYTE   W04
 BYTE   VOL   66*FE11EndlessBattleREALxViPerZ_mvl/mxv
 BYTE   W03
 BYTE   VOL   67*FE11EndlessBattleREALxViPerZ_mvl/mxv
 BYTE   W04
 BYTE   VOL   67*FE11EndlessBattleREALxViPerZ_mvl/mxv
 BYTE   W03
 BYTE   VOL   68*FE11EndlessBattleREALxViPerZ_mvl/mxv
 BYTE   W04
 BYTE   VOL   68*FE11EndlessBattleREALxViPerZ_mvl/mxv
 BYTE   W03
 BYTE   VOL   68*FE11EndlessBattleREALxViPerZ_mvl/mxv
 BYTE   W01
 BYTE   N24  As2
 BYTE   W02
 BYTE   VOL   69*FE11EndlessBattleREALxViPerZ_mvl/mxv
 BYTE   W04
 BYTE   VOL   69*FE11EndlessBattleREALxViPerZ_mvl/mxv
 BYTE   W03
 BYTE   VOL   70*FE11EndlessBattleREALxViPerZ_mvl/mxv
 BYTE   W04
 BYTE   VOL   71*FE11EndlessBattleREALxViPerZ_mvl/mxv
 BYTE   W03
 BYTE   VOL   70*FE11EndlessBattleREALxViPerZ_mvl/mxv
 BYTE   W03
 BYTE   VOL   69*FE11EndlessBattleREALxViPerZ_mvl/mxv
 BYTE   W03
 BYTE   VOL   68*FE11EndlessBattleREALxViPerZ_mvl/mxv
 BYTE   W02
 BYTE   N24  Gn2
 BYTE   W01
 BYTE   VOL   67*FE11EndlessBattleREALxViPerZ_mvl/mxv
 BYTE   W03
 BYTE   VOL   66*FE11EndlessBattleREALxViPerZ_mvl/mxv
 BYTE   W03
 BYTE   VOL   65*FE11EndlessBattleREALxViPerZ_mvl/mxv
 BYTE   W03
 BYTE   VOL   65*FE11EndlessBattleREALxViPerZ_mvl/mxv
 BYTE   W03
 BYTE   VOL   64*FE11EndlessBattleREALxViPerZ_mvl/mxv
 BYTE   W03
 BYTE   VOL   64*FE11EndlessBattleREALxViPerZ_mvl/mxv
 BYTE   W03
 BYTE   VOL   63*FE11EndlessBattleREALxViPerZ_mvl/mxv
 BYTE   W03
 BYTE   VOL   62*FE11EndlessBattleREALxViPerZ_mvl/mxv
 BYTE   W02
//  #08 //029   ----------------------------------------
 BYTE   N48  An2
 BYTE   W01
 BYTE   VOL   62*FE11EndlessBattleREALxViPerZ_mvl/mxv
 BYTE   W03
 BYTE   VOL   60*FE11EndlessBattleREALxViPerZ_mvl/mxv
 BYTE   W03
 BYTE   VOL   60*FE11EndlessBattleREALxViPerZ_mvl/mxv
 BYTE   W02
 BYTE   VOL   60*FE11EndlessBattleREALxViPerZ_mvl/mxv
 BYTE   W01
 BYTE   VOL   60*FE11EndlessBattleREALxViPerZ_mvl/mxv
 BYTE   W02
 BYTE   VOL   60*FE11EndlessBattleREALxViPerZ_mvl/mxv
 BYTE   W01
 BYTE   VOL   60*FE11EndlessBattleREALxViPerZ_mvl/mxv
 BYTE   W02
 BYTE   VOL   62*FE11EndlessBattleREALxViPerZ_mvl/mxv
 BYTE   W01
 BYTE   VOL   62*FE11EndlessBattleREALxViPerZ_mvl/mxv
 BYTE   W02
 BYTE   VOL   62*FE11EndlessBattleREALxViPerZ_mvl/mxv
 BYTE   W01
 BYTE   VOL   63*FE11EndlessBattleREALxViPerZ_mvl/mxv
 BYTE   W02
 BYTE   VOL   64*FE11EndlessBattleREALxViPerZ_mvl/mxv
 BYTE   W01
 BYTE   VOL   64*FE11EndlessBattleREALxViPerZ_mvl/mxv
 BYTE   W02
 BYTE   VOL   65*FE11EndlessBattleREALxViPerZ_mvl/mxv
 BYTE   W01
 BYTE   VOL   65*FE11EndlessBattleREALxViPerZ_mvl/mxv
 BYTE   W02
 BYTE   VOL   65*FE11EndlessBattleREALxViPerZ_mvl/mxv
 BYTE   W01
 BYTE   VOL   66*FE11EndlessBattleREALxViPerZ_mvl/mxv
 BYTE   W02
 BYTE   VOL   67*FE11EndlessBattleREALxViPerZ_mvl/mxv
 BYTE   W01
 BYTE   VOL   68*FE11EndlessBattleREALxViPerZ_mvl/mxv
 BYTE   W02
 BYTE   VOL   68*FE11EndlessBattleREALxViPerZ_mvl/mxv
 BYTE   W01
 BYTE   VOL   69*FE11EndlessBattleREALxViPerZ_mvl/mxv
 BYTE   W02
 BYTE   VOL   69*FE11EndlessBattleREALxViPerZ_mvl/mxv
 BYTE   W01
 BYTE   VOL   71*FE11EndlessBattleREALxViPerZ_mvl/mxv
 BYTE   W02
 BYTE   VOL   71*FE11EndlessBattleREALxViPerZ_mvl/mxv
 BYTE   W01
 BYTE   VOL   72*FE11EndlessBattleREALxViPerZ_mvl/mxv
 BYTE   W02
 BYTE   VOL   72*FE11EndlessBattleREALxViPerZ_mvl/mxv
 BYTE   W01
 BYTE   VOL   73*FE11EndlessBattleREALxViPerZ_mvl/mxv
 BYTE   W02
 BYTE   VOL   74*FE11EndlessBattleREALxViPerZ_mvl/mxv
 BYTE   W01
 BYTE   VOL   74*FE11EndlessBattleREALxViPerZ_mvl/mxv
 BYTE   W02
 BYTE   VOL   76*FE11EndlessBattleREALxViPerZ_mvl/mxv
 BYTE   N48  Fn2
 BYTE   W01
 BYTE   VOL   76*FE11EndlessBattleREALxViPerZ_mvl/mxv
 BYTE   W01
 BYTE   VOL   77*FE11EndlessBattleREALxViPerZ_mvl/mxv
 BYTE   W03
 BYTE   VOL   76*FE11EndlessBattleREALxViPerZ_mvl/mxv
 BYTE   W03
 BYTE   VOL   74*FE11EndlessBattleREALxViPerZ_mvl/mxv
 BYTE   W03
 BYTE   VOL   73*FE11EndlessBattleREALxViPerZ_mvl/mxv
 BYTE   W03
 BYTE   VOL   72*FE11EndlessBattleREALxViPerZ_mvl/mxv
 BYTE   W03
 BYTE   VOL   71*FE11EndlessBattleREALxViPerZ_mvl/mxv
 BYTE   W03
 BYTE   VOL   70*FE11EndlessBattleREALxViPerZ_mvl/mxv
 BYTE   W03
 BYTE   VOL   69*FE11EndlessBattleREALxViPerZ_mvl/mxv
 BYTE   W03
 BYTE   VOL   68*FE11EndlessBattleREALxViPerZ_mvl/mxv
 BYTE   W03
 BYTE   VOL   67*FE11EndlessBattleREALxViPerZ_mvl/mxv
 BYTE   W03
 BYTE   VOL   65*FE11EndlessBattleREALxViPerZ_mvl/mxv
 BYTE   W03
 BYTE   VOL   65*FE11EndlessBattleREALxViPerZ_mvl/mxv
 BYTE   W03
 BYTE   VOL   64*FE11EndlessBattleREALxViPerZ_mvl/mxv
 BYTE   W03
 BYTE   VOL   64*FE11EndlessBattleREALxViPerZ_mvl/mxv
 BYTE   W03
 BYTE   VOL   62*FE11EndlessBattleREALxViPerZ_mvl/mxv
 BYTE   W03
 BYTE   VOL   62*FE11EndlessBattleREALxViPerZ_mvl/mxv
 BYTE   W01
//  #08 //030   ----------------------------------------
 BYTE   W02
 BYTE   VOL   60*FE11EndlessBattleREALxViPerZ_mvl/mxv
 BYTE   W03
 BYTE   VOL   60*FE11EndlessBattleREALxViPerZ_mvl/mxv
 BYTE   W03
 BYTE   VOL   60*FE11EndlessBattleREALxViPerZ_mvl/mxv
 BYTE   W02
 BYTE   VOL   60*FE11EndlessBattleREALxViPerZ_mvl/mxv
 BYTE   W03
 BYTE   VOL   60*FE11EndlessBattleREALxViPerZ_mvl/mxv
 BYTE   W03
 BYTE   VOL   60*FE11EndlessBattleREALxViPerZ_mvl/mxv
 BYTE   W03
 BYTE   VOL   60*FE11EndlessBattleREALxViPerZ_mvl/mxv
 BYTE   W03
 BYTE   VOL   60*FE11EndlessBattleREALxViPerZ_mvl/mxv
 BYTE   W02
 BYTE   N48  Cn2
 BYTE   W01
 BYTE   VOL   60*FE11EndlessBattleREALxViPerZ_mvl/mxv
 BYTE   W03
 BYTE   VOL   62*FE11EndlessBattleREALxViPerZ_mvl/mxv
 BYTE   W03
 BYTE   VOL   62*FE11EndlessBattleREALxViPerZ_mvl/mxv
 BYTE   W03
 BYTE   VOL   62*FE11EndlessBattleREALxViPerZ_mvl/mxv
 BYTE   W03
 BYTE   VOL   63*FE11EndlessBattleREALxViPerZ_mvl/mxv
 BYTE   W03
 BYTE   VOL   64*FE11EndlessBattleREALxViPerZ_mvl/mxv
 BYTE   W03
 BYTE   VOL   64*FE11EndlessBattleREALxViPerZ_mvl/mxv
 BYTE   W03
 BYTE   VOL   65*FE11EndlessBattleREALxViPerZ_mvl/mxv
 BYTE   W03
 BYTE   VOL   65*FE11EndlessBattleREALxViPerZ_mvl/mxv
 BYTE   W03
 BYTE   VOL   65*FE11EndlessBattleREALxViPerZ_mvl/mxv
 BYTE   W03
 BYTE   VOL   66*FE11EndlessBattleREALxViPerZ_mvl/mxv
 BYTE   W03
 BYTE   VOL   67*FE11EndlessBattleREALxViPerZ_mvl/mxv
 BYTE   W03
 BYTE   VOL   68*FE11EndlessBattleREALxViPerZ_mvl/mxv
 BYTE   W03
 BYTE   VOL   68*FE11EndlessBattleREALxViPerZ_mvl/mxv
 BYTE   W03
 BYTE   VOL   69*FE11EndlessBattleREALxViPerZ_mvl/mxv
 BYTE   W03
 BYTE   VOL   70*FE11EndlessBattleREALxViPerZ_mvl/mxv
 BYTE   W02
 BYTE   N48  Dn2
 BYTE   W24
//  #08 //031   ----------------------------------------
 BYTE   W10
 BYTE   VOL   71*FE11EndlessBattleREALxViPerZ_mvl/mxv
 BYTE   W14
 BYTE   N24  Ds2
 BYTE   W04
 BYTE   VOL   71*FE11EndlessBattleREALxViPerZ_mvl/mxv
 BYTE   W19
 BYTE   VOL   71*FE11EndlessBattleREALxViPerZ_mvl/mxv
 BYTE   W01
 BYTE   N24  Cn2
 BYTE   W17
 BYTE   VOL   72*FE11EndlessBattleREALxViPerZ_mvl/mxv
 BYTE   W07
 BYTE   N23  Ds2
 BYTE   W11
 BYTE   VOL   72*FE11EndlessBattleREALxViPerZ_mvl/mxv
 BYTE   W13
//  #08 //032   ----------------------------------------
 BYTE   N72  Fn2
 BYTE   W05
 BYTE   VOL   73*FE11EndlessBattleREALxViPerZ_mvl/mxv
 BYTE   W01
 BYTE   VOL   73*FE11EndlessBattleREALxViPerZ_mvl/mxv
 BYTE   W02
 BYTE   VOL   72*FE11EndlessBattleREALxViPerZ_mvl/mxv
 BYTE   W01
 BYTE   VOL   71*FE11EndlessBattleREALxViPerZ_mvl/mxv
 BYTE   W02
 BYTE   VOL   71*FE11EndlessBattleREALxViPerZ_mvl/mxv
 BYTE   W01
 BYTE   VOL   70*FE11EndlessBattleREALxViPerZ_mvl/mxv
 BYTE   W02
 BYTE   VOL   69*FE11EndlessBattleREALxViPerZ_mvl/mxv
 BYTE   W01
 BYTE   VOL   68*FE11EndlessBattleREALxViPerZ_mvl/mxv
 BYTE   W02
 BYTE   VOL   68*FE11EndlessBattleREALxViPerZ_mvl/mxv
 BYTE   W01
 BYTE   VOL   67*FE11EndlessBattleREALxViPerZ_mvl/mxv
 BYTE   W02
 BYTE   VOL   66*FE11EndlessBattleREALxViPerZ_mvl/mxv
 BYTE   W01
 BYTE   VOL   65*FE11EndlessBattleREALxViPerZ_mvl/mxv
 BYTE   W01
 BYTE   VOL   65*FE11EndlessBattleREALxViPerZ_mvl/mxv
 BYTE   W08
 BYTE   VOL   65*FE11EndlessBattleREALxViPerZ_mvl/mxv
 BYTE   W04
 BYTE   VOL   65*FE11EndlessBattleREALxViPerZ_mvl/mxv
 BYTE   W04
 BYTE   VOL   64*FE11EndlessBattleREALxViPerZ_mvl/mxv
 BYTE   W04
 BYTE   VOL   64*FE11EndlessBattleREALxViPerZ_mvl/mxv
 BYTE   W04
 BYTE   VOL   64*FE11EndlessBattleREALxViPerZ_mvl/mxv
 BYTE   W04
 BYTE   VOL   64*FE11EndlessBattleREALxViPerZ_mvl/mxv
 BYTE   W04
 BYTE   VOL   63*FE11EndlessBattleREALxViPerZ_mvl/mxv
 BYTE   W04
 BYTE   VOL   62*FE11EndlessBattleREALxViPerZ_mvl/mxv
 BYTE   W04
 BYTE   VOL   62*FE11EndlessBattleREALxViPerZ_mvl/mxv
 BYTE   W03
 BYTE   VOL   62*FE11EndlessBattleREALxViPerZ_mvl/mxv
 BYTE   W03
 BYTE   VOL   64*FE11EndlessBattleREALxViPerZ_mvl/mxv
 BYTE   W03
 BYTE   VOL   65*FE11EndlessBattleREALxViPerZ_mvl/mxv
 BYTE   W01
 BYTE   N24  Gs2
 BYTE   W02
 BYTE   VOL   65*FE11EndlessBattleREALxViPerZ_mvl/mxv
 BYTE   W03
 BYTE   VOL   66*FE11EndlessBattleREALxViPerZ_mvl/mxv
 BYTE   W02
 BYTE   VOL   68*FE11EndlessBattleREALxViPerZ_mvl/mxv
 BYTE   W03
 BYTE   VOL   68*FE11EndlessBattleREALxViPerZ_mvl/mxv
 BYTE   W03
 BYTE   VOL   69*FE11EndlessBattleREALxViPerZ_mvl/mxv
 BYTE   W03
 BYTE   VOL   70*FE11EndlessBattleREALxViPerZ_mvl/mxv
 BYTE   W03
 BYTE   VOL   71*FE11EndlessBattleREALxViPerZ_mvl/mxv
 BYTE   W03
 BYTE   VOL   72*FE11EndlessBattleREALxViPerZ_mvl/mxv
 BYTE   W02
//  #08 //033   ----------------------------------------
 BYTE   VOL   73*FE11EndlessBattleREALxViPerZ_mvl/mxv
 BYTE   N96  Fn2
 BYTE   W03
 BYTE   VOL   72*FE11EndlessBattleREALxViPerZ_mvl/mxv
 BYTE   W03
 BYTE   VOL   71*FE11EndlessBattleREALxViPerZ_mvl/mxv
 BYTE   W03
 BYTE   VOL   69*FE11EndlessBattleREALxViPerZ_mvl/mxv
 BYTE   W01
 BYTE   VOL   68*FE11EndlessBattleREALxViPerZ_mvl/mxv
 BYTE   W02
 BYTE   VOL   67*FE11EndlessBattleREALxViPerZ_mvl/mxv
 BYTE   W01
 BYTE   VOL   65*FE11EndlessBattleREALxViPerZ_mvl/mxv
 BYTE   W02
 BYTE   VOL   65*FE11EndlessBattleREALxViPerZ_mvl/mxv
 BYTE   W01
 BYTE   VOL   64*FE11EndlessBattleREALxViPerZ_mvl/mxv
 BYTE   W02
 BYTE   VOL   62*FE11EndlessBattleREALxViPerZ_mvl/mxv
 BYTE   W01
 BYTE   VOL   62*FE11EndlessBattleREALxViPerZ_mvl/mxv
 BYTE   W02
 BYTE   VOL   60*FE11EndlessBattleREALxViPerZ_mvl/mxv
 BYTE   W01
 BYTE   VOL   60*FE11EndlessBattleREALxViPerZ_mvl/mxv
 BYTE   W02
 BYTE   VOL   60*FE11EndlessBattleREALxViPerZ_mvl/mxv
 BYTE   W01
 BYTE   VOL   58*FE11EndlessBattleREALxViPerZ_mvl/mxv
 BYTE   W02
 BYTE   VOL   58*FE11EndlessBattleREALxViPerZ_mvl/mxv
 BYTE   W01
 BYTE   VOL   57*FE11EndlessBattleREALxViPerZ_mvl/mxv
 BYTE   W02
 BYTE   VOL   57*FE11EndlessBattleREALxViPerZ_mvl/mxv
 BYTE   W01
 BYTE   VOL   56*FE11EndlessBattleREALxViPerZ_mvl/mxv
 BYTE   W02
 BYTE   VOL   56*FE11EndlessBattleREALxViPerZ_mvl/mxv
 BYTE   W01
 BYTE   VOL   55*FE11EndlessBattleREALxViPerZ_mvl/mxv
 BYTE   W02
 BYTE   VOL   55*FE11EndlessBattleREALxViPerZ_mvl/mxv
 BYTE   W01
 BYTE   VOL   55*FE11EndlessBattleREALxViPerZ_mvl/mxv
 BYTE   W02
 BYTE   VOL   55*FE11EndlessBattleREALxViPerZ_mvl/mxv
 BYTE   W01
 BYTE   VOL   54*FE11EndlessBattleREALxViPerZ_mvl/mxv
 BYTE   W02
 BYTE   VOL   54*FE11EndlessBattleREALxViPerZ_mvl/mxv
 BYTE   W01
 BYTE   VOL   54*FE11EndlessBattleREALxViPerZ_mvl/mxv
 BYTE   W02
 BYTE   VOL   54*FE11EndlessBattleREALxViPerZ_mvl/mxv
 BYTE   W01
 BYTE   VOL   55*FE11EndlessBattleREALxViPerZ_mvl/mxv
 BYTE   W02
 BYTE   VOL   55*FE11EndlessBattleREALxViPerZ_mvl/mxv
 BYTE   W01
 BYTE   VOL   55*FE11EndlessBattleREALxViPerZ_mvl/mxv
 BYTE   W02
 BYTE   VOL   55*FE11EndlessBattleREALxViPerZ_mvl/mxv
 BYTE   W01
 BYTE   VOL   56*FE11EndlessBattleREALxViPerZ_mvl/mxv
 BYTE   W02
 BYTE   VOL   56*FE11EndlessBattleREALxViPerZ_mvl/mxv
 BYTE   W01
 BYTE   VOL   57*FE11EndlessBattleREALxViPerZ_mvl/mxv
 BYTE   W02
 BYTE   VOL   57*FE11EndlessBattleREALxViPerZ_mvl/mxv
 BYTE   W01
 BYTE   VOL   57*FE11EndlessBattleREALxViPerZ_mvl/mxv
 BYTE   W02
 BYTE   VOL   58*FE11EndlessBattleREALxViPerZ_mvl/mxv
 BYTE   W01
 BYTE   VOL   59*FE11EndlessBattleREALxViPerZ_mvl/mxv
 BYTE   W02
 BYTE   VOL   60*FE11EndlessBattleREALxViPerZ_mvl/mxv
 BYTE   W01
 BYTE   VOL   60*FE11EndlessBattleREALxViPerZ_mvl/mxv
 BYTE   W02
 BYTE   VOL   60*FE11EndlessBattleREALxViPerZ_mvl/mxv
 BYTE   W01
 BYTE   VOL   62*FE11EndlessBattleREALxViPerZ_mvl/mxv
 BYTE   W02
 BYTE   VOL   64*FE11EndlessBattleREALxViPerZ_mvl/mxv
 BYTE   W03
 BYTE   VOL   64*FE11EndlessBattleREALxViPerZ_mvl/mxv
 BYTE   W03
 BYTE   VOL   65*FE11EndlessBattleREALxViPerZ_mvl/mxv
 BYTE   W03
 BYTE   VOL   65*FE11EndlessBattleREALxViPerZ_mvl/mxv
 BYTE   W03
 BYTE   VOL   67*FE11EndlessBattleREALxViPerZ_mvl/mxv
 BYTE   W01
 BYTE   VOL   67*FE11EndlessBattleREALxViPerZ_mvl/mxv
 BYTE   W01
 BYTE   VOL   68*FE11EndlessBattleREALxViPerZ_mvl/mxv
 BYTE   W02
 BYTE   VOL   68*FE11EndlessBattleREALxViPerZ_mvl/mxv
 BYTE   W01
 BYTE   VOL   69*FE11EndlessBattleREALxViPerZ_mvl/mxv
 BYTE   W02
 BYTE   VOL   70*FE11EndlessBattleREALxViPerZ_mvl/mxv
 BYTE   W01
 BYTE   VOL   71*FE11EndlessBattleREALxViPerZ_mvl/mxv
 BYTE   W02
 BYTE   VOL   71*FE11EndlessBattleREALxViPerZ_mvl/mxv
 BYTE   W01
 BYTE   VOL   72*FE11EndlessBattleREALxViPerZ_mvl/mxv
 BYTE   W02
 BYTE   VOL   73*FE11EndlessBattleREALxViPerZ_mvl/mxv
 BYTE   W01
 BYTE   VOL   73*FE11EndlessBattleREALxViPerZ_mvl/mxv
 BYTE   W01
//  #08 //034   ----------------------------------------
 BYTE   N36  Gn2
 BYTE   W01
 BYTE   VOL   74*FE11EndlessBattleREALxViPerZ_mvl/mxv
 BYTE   W32
 BYTE   W03
 BYTE   N12
 BYTE   W12
 BYTE   Gn2  v016
 BYTE   W12
 BYTE   Gn2  v008
 BYTE   W12
 BYTE   N36  Fn2  v076
 BYTE   W24
//  #08 //035   ----------------------------------------
 BYTE   W12
 BYTE   N72  Ds2
 BYTE   W04
 BYTE   VOL   74*FE11EndlessBattleREALxViPerZ_mvl/mxv
 BYTE   W02
 BYTE   VOL   73*FE11EndlessBattleREALxViPerZ_mvl/mxv
 BYTE   W01
 BYTE   VOL   72*FE11EndlessBattleREALxViPerZ_mvl/mxv
 BYTE   W02
 BYTE   VOL   71*FE11EndlessBattleREALxViPerZ_mvl/mxv
 BYTE   W01
 BYTE   VOL   69*FE11EndlessBattleREALxViPerZ_mvl/mxv
 BYTE   W02
 BYTE   VOL   68*FE11EndlessBattleREALxViPerZ_mvl/mxv
 BYTE   W01
 BYTE   VOL   65*FE11EndlessBattleREALxViPerZ_mvl/mxv
 BYTE   W02
 BYTE   VOL   65*FE11EndlessBattleREALxViPerZ_mvl/mxv
 BYTE   W01
 BYTE   VOL   64*FE11EndlessBattleREALxViPerZ_mvl/mxv
 BYTE   W02
 BYTE   VOL   62*FE11EndlessBattleREALxViPerZ_mvl/mxv
 BYTE   W03
 BYTE   VOL   63*FE11EndlessBattleREALxViPerZ_mvl/mxv
 BYTE   W03
 BYTE   VOL   64*FE11EndlessBattleREALxViPerZ_mvl/mxv
 BYTE   W03
 BYTE   VOL   64*FE11EndlessBattleREALxViPerZ_mvl/mxv
 BYTE   W03
 BYTE   VOL   64*FE11EndlessBattleREALxViPerZ_mvl/mxv
 BYTE   W03
 BYTE   VOL   65*FE11EndlessBattleREALxViPerZ_mvl/mxv
 BYTE   W03
 BYTE   VOL   65*FE11EndlessBattleREALxViPerZ_mvl/mxv
 BYTE   W03
 BYTE   VOL   65*FE11EndlessBattleREALxViPerZ_mvl/mxv
 BYTE   W03
 BYTE   VOL   66*FE11EndlessBattleREALxViPerZ_mvl/mxv
 BYTE   W03
 BYTE   VOL   67*FE11EndlessBattleREALxViPerZ_mvl/mxv
 BYTE   W03
 BYTE   VOL   68*FE11EndlessBattleREALxViPerZ_mvl/mxv
 BYTE   W03
 BYTE   VOL   68*FE11EndlessBattleREALxViPerZ_mvl/mxv
 BYTE   W03
 BYTE   VOL   69*FE11EndlessBattleREALxViPerZ_mvl/mxv
 BYTE   W03
 BYTE   VOL   69*FE11EndlessBattleREALxViPerZ_mvl/mxv
 BYTE   W03
 BYTE   VOL   71*FE11EndlessBattleREALxViPerZ_mvl/mxv
 BYTE   W03
 BYTE   VOL   71*FE11EndlessBattleREALxViPerZ_mvl/mxv
 BYTE   W03
 BYTE   VOL   72*FE11EndlessBattleREALxViPerZ_mvl/mxv
 BYTE   W03
 BYTE   VOL   72*FE11EndlessBattleREALxViPerZ_mvl/mxv
 BYTE   W03
 BYTE   VOL   73*FE11EndlessBattleREALxViPerZ_mvl/mxv
 BYTE   W03
 BYTE   VOL   73*FE11EndlessBattleREALxViPerZ_mvl/mxv
 BYTE   W03
 BYTE   VOL   74*FE11EndlessBattleREALxViPerZ_mvl/mxv
 BYTE   W03
 BYTE   VOL   74*FE11EndlessBattleREALxViPerZ_mvl/mxv
 BYTE   W01
 BYTE   VOL   76*FE11EndlessBattleREALxViPerZ_mvl/mxv
 BYTE   W02
//  #08 //036   ----------------------------------------
 BYTE   N36  Gn2
 BYTE   W36
 BYTE   N12
 BYTE   W12
 BYTE   Gn2  v016
 BYTE   W12
 BYTE   Gn2  v008
 BYTE   W12
 BYTE   N36  Fn2  v076
 BYTE   W24
//  #08 //037   ----------------------------------------
 BYTE   W10
 BYTE   VOL   76*FE11EndlessBattleREALxViPerZ_mvl/mxv
 BYTE   W02
 BYTE   N66  Ds2
 BYTE   W01
 BYTE   VOL   76*FE11EndlessBattleREALxViPerZ_mvl/mxv
 BYTE   W03
 BYTE   VOL   77*FE11EndlessBattleREALxViPerZ_mvl/mxv
 BYTE   W02
 BYTE   VOL   78*FE11EndlessBattleREALxViPerZ_mvl/mxv
 BYTE   W03
 BYTE   VOL   77*FE11EndlessBattleREALxViPerZ_mvl/mxv
 BYTE   W03
 BYTE   VOL   76*FE11EndlessBattleREALxViPerZ_mvl/mxv
 BYTE   W03
 BYTE   VOL   74*FE11EndlessBattleREALxViPerZ_mvl/mxv
 BYTE   W03
 BYTE   VOL   73*FE11EndlessBattleREALxViPerZ_mvl/mxv
 BYTE   W03
 BYTE   VOL   73*FE11EndlessBattleREALxViPerZ_mvl/mxv
 BYTE   W03
 BYTE   VOL   72*FE11EndlessBattleREALxViPerZ_mvl/mxv
 BYTE   W03
 BYTE   VOL   71*FE11EndlessBattleREALxViPerZ_mvl/mxv
 BYTE   W03
 BYTE   VOL   69*FE11EndlessBattleREALxViPerZ_mvl/mxv
 BYTE   W03
 BYTE   VOL   68*FE11EndlessBattleREALxViPerZ_mvl/mxv
 BYTE   W03
 BYTE   VOL   67*FE11EndlessBattleREALxViPerZ_mvl/mxv
 BYTE   W03
 BYTE   VOL   66*FE11EndlessBattleREALxViPerZ_mvl/mxv
 BYTE   W03
 BYTE   VOL   65*FE11EndlessBattleREALxViPerZ_mvl/mxv
 BYTE   W03
 BYTE   VOL   65*FE11EndlessBattleREALxViPerZ_mvl/mxv
 BYTE   W03
 BYTE   VOL   64*FE11EndlessBattleREALxViPerZ_mvl/mxv
 BYTE   W03
 BYTE   VOL   64*FE11EndlessBattleREALxViPerZ_mvl/mxv
 BYTE   W03
 BYTE   VOL   62*FE11EndlessBattleREALxViPerZ_mvl/mxv
 BYTE   W01
 BYTE   VOL   62*FE11EndlessBattleREALxViPerZ_mvl/mxv
 BYTE   W02
 BYTE   VOL   61*FE11EndlessBattleREALxViPerZ_mvl/mxv
 BYTE   W01
 BYTE   VOL   60*FE11EndlessBattleREALxViPerZ_mvl/mxv
 BYTE   W02
 BYTE   VOL   60*FE11EndlessBattleREALxViPerZ_mvl/mxv
 BYTE   W01
 BYTE   VOL   59*FE11EndlessBattleREALxViPerZ_mvl/mxv
 BYTE   W02
 BYTE   VOL   58*FE11EndlessBattleREALxViPerZ_mvl/mxv
 BYTE   W01
 BYTE   VOL   58*FE11EndlessBattleREALxViPerZ_mvl/mxv
 BYTE   W02
 BYTE   VOL   57*FE11EndlessBattleREALxViPerZ_mvl/mxv
 BYTE   W01
 BYTE   VOL   57*FE11EndlessBattleREALxViPerZ_mvl/mxv
 BYTE   W02
 BYTE   VOL   56*FE11EndlessBattleREALxViPerZ_mvl/mxv
 BYTE   W01
 BYTE   VOL   56*FE11EndlessBattleREALxViPerZ_mvl/mxv
 BYTE   W02
 BYTE   VOL   55*FE11EndlessBattleREALxViPerZ_mvl/mxv
 BYTE   W01
 BYTE   VOL   55*FE11EndlessBattleREALxViPerZ_mvl/mxv
 BYTE   W02
 BYTE   VOL   55*FE11EndlessBattleREALxViPerZ_mvl/mxv
 BYTE   W01
 BYTE   VOL   55*FE11EndlessBattleREALxViPerZ_mvl/mxv
 BYTE   W02
 BYTE   VOL   54*FE11EndlessBattleREALxViPerZ_mvl/mxv
 BYTE   W01
 BYTE   VOL   54*FE11EndlessBattleREALxViPerZ_mvl/mxv
 BYTE   W02
 BYTE   VOL   54*FE11EndlessBattleREALxViPerZ_mvl/mxv
 BYTE   W01
 BYTE   VOL   54*FE11EndlessBattleREALxViPerZ_mvl/mxv
 BYTE   W01
 BYTE   VOL   60*FE11EndlessBattleREALxViPerZ_mvl/mxv
 BYTE   W01
//  #08 //038   ----------------------------------------
 BYTE   VOL   85*FE11EndlessBattleREALxViPerZ_mvl/mxv
 BYTE   N10  Fn2  v028
 BYTE   W12
 BYTE   Fn2  v004
 BYTE   W23
 BYTE   N11  Fn2  v052
 BYTE   W13
 BYTE   N10  Fn2  v016
 BYTE   W11
 BYTE   N11  Fn2  v004
 BYTE   W13
 BYTE   N10  Fn2  v052
 BYTE   W11
 BYTE   N11  Fn2  v032
 BYTE   W13
//  #08 //039   ----------------------------------------
 BYTE   N10  En2  v076
 BYTE   W11
 BYTE   N11  En2  v032
 BYTE   W13
 BYTE   N10  En2  v012
 BYTE   W11
 BYTE   N11  En2  v076
 BYTE   W13
 BYTE   N10  En2  v032
 BYTE   W11
 BYTE   N11  En2  v012
 BYTE   W13
 BYTE   N10  En2  v076
 BYTE   W11
 BYTE   N11  En2  v032
 BYTE   W12
 BYTE   GoTo
  POIN2 Label_01C83D7E
 BYTE   FINE

//**************** Track 9 (Midi-Chn.8) ****************//

FE11EndlessBattleREALxViPerZ_009:
//  #09 //000   ----------------------------------------
 BYTE   KEYSH   FE11EndlessBattleREALxViPerZ_key+0
 BYTE   VOICE   49
 BYTE   MODT 0
 BYTE   LFOS 44
 BYTE   VOL   38*FE11EndlessBattleREALxViPerZ_mvl/mxv
 BYTE   PAN   c_v+21
 BYTE   BEND   c_v+0
 BYTE   W96
//  #09 //001   ----------------------------------------
 BYTE   W96
//  #09 //002   ----------------------------------------
Label_5466D0:
 BYTE   VOL   38*FE11EndlessBattleREALxViPerZ_mvl/mxv
 BYTE   W96
//  #09 //003   ----------------------------------------
 BYTE   W96
//  #09 //004   ----------------------------------------
 BYTE   W96
//  #09 //005   ----------------------------------------
 BYTE   W96
//  #09 //006   ----------------------------------------
 BYTE   W96
//  #09 //007   ----------------------------------------
 BYTE   W96
//  #09 //008   ----------------------------------------
 BYTE   W96
//  #09 //009   ----------------------------------------
 BYTE   W96
//  #09 //010   ----------------------------------------
 BYTE   W96
//  #09 //011   ----------------------------------------
 BYTE   W96
//  #09 //012   ----------------------------------------
 BYTE   W96
//  #09 //013   ----------------------------------------
 BYTE   W96
//  #09 //014   ----------------------------------------
 BYTE   W96
//  #09 //015   ----------------------------------------
 BYTE   W96
//  #09 //016   ----------------------------------------
 BYTE   W96
//  #09 //017   ----------------------------------------
 BYTE   W96
//  #09 //018   ----------------------------------------
 BYTE   W96
//  #09 //019   ----------------------------------------
 BYTE   W96
//  #09 //020   ----------------------------------------
 BYTE   W96
//  #09 //021   ----------------------------------------
 BYTE   W96
//  #09 //022   ----------------------------------------
 BYTE   W96
//  #09 //023   ----------------------------------------
 BYTE   W96
//  #09 //024   ----------------------------------------
 BYTE   W96
//  #09 //025   ----------------------------------------
 BYTE   VOL   38*FE11EndlessBattleREALxViPerZ_mvl/mxv
 BYTE   W60
 BYTE   W02
 BYTE   VOL   38*FE11EndlessBattleREALxViPerZ_mvl/mxv
 BYTE   W10
 BYTE   N03  Gn2  v080
 BYTE   W04
 BYTE   An2
 BYTE   W03
 BYTE   As2
 BYTE   W04
 BYTE   Cn3
 BYTE   W03
 BYTE   Dn3
 BYTE   W04
 BYTE   Ds3
 BYTE   W03
 BYTE   N02  Fn3
 BYTE   W03
//  #09 //026   ----------------------------------------
 BYTE   N44  Gn3
 BYTE   W07
 BYTE   VOL   38*FE11EndlessBattleREALxViPerZ_mvl/mxv
 BYTE   W02
 BYTE   VOL   38*FE11EndlessBattleREALxViPerZ_mvl/mxv
 BYTE   W01
 BYTE   VOL   38*FE11EndlessBattleREALxViPerZ_mvl/mxv
 BYTE   W02
 BYTE   VOL   37*FE11EndlessBattleREALxViPerZ_mvl/mxv
 BYTE   W01
 BYTE   VOL   36*FE11EndlessBattleREALxViPerZ_mvl/mxv
 BYTE   W02
 BYTE   VOL   36*FE11EndlessBattleREALxViPerZ_mvl/mxv
 BYTE   W01
 BYTE   VOL   36*FE11EndlessBattleREALxViPerZ_mvl/mxv
 BYTE   W02
 BYTE   VOL   35*FE11EndlessBattleREALxViPerZ_mvl/mxv
 BYTE   W01
 BYTE   VOL   34*FE11EndlessBattleREALxViPerZ_mvl/mxv
 BYTE   W02
 BYTE   VOL   34*FE11EndlessBattleREALxViPerZ_mvl/mxv
 BYTE   W01
 BYTE   VOL   34*FE11EndlessBattleREALxViPerZ_mvl/mxv
 BYTE   W02
 BYTE   VOL   34*FE11EndlessBattleREALxViPerZ_mvl/mxv
 BYTE   W01
 BYTE   VOL   34*FE11EndlessBattleREALxViPerZ_mvl/mxv
 BYTE   W01
 BYTE   VOL   34*FE11EndlessBattleREALxViPerZ_mvl/mxv
 BYTE   W06
 BYTE   VOL   34*FE11EndlessBattleREALxViPerZ_mvl/mxv
 BYTE   W04
 BYTE   VOL   34*FE11EndlessBattleREALxViPerZ_mvl/mxv
 BYTE   W03
 BYTE   VOL   34*FE11EndlessBattleREALxViPerZ_mvl/mxv
 BYTE   W03
 BYTE   VOL   34*FE11EndlessBattleREALxViPerZ_mvl/mxv
 BYTE   W03
 BYTE   VOL   34*FE11EndlessBattleREALxViPerZ_mvl/mxv
 BYTE   W03
 BYTE   VOL   34*FE11EndlessBattleREALxViPerZ_mvl/mxv
 BYTE   N44  Ds4
 BYTE   W03
 BYTE   VOL   34*FE11EndlessBattleREALxViPerZ_mvl/mxv
 BYTE   W03
 BYTE   VOL   34*FE11EndlessBattleREALxViPerZ_mvl/mxv
 BYTE   W03
 BYTE   VOL   34*FE11EndlessBattleREALxViPerZ_mvl/mxv
 BYTE   W03
 BYTE   VOL   35*FE11EndlessBattleREALxViPerZ_mvl/mxv
 BYTE   W03
 BYTE   VOL   36*FE11EndlessBattleREALxViPerZ_mvl/mxv
 BYTE   W03
 BYTE   VOL   36*FE11EndlessBattleREALxViPerZ_mvl/mxv
 BYTE   W03
 BYTE   VOL   36*FE11EndlessBattleREALxViPerZ_mvl/mxv
 BYTE   W03
 BYTE   VOL   36*FE11EndlessBattleREALxViPerZ_mvl/mxv
 BYTE   W03
 BYTE   VOL   36*FE11EndlessBattleREALxViPerZ_mvl/mxv
 BYTE   W03
 BYTE   VOL   36*FE11EndlessBattleREALxViPerZ_mvl/mxv
 BYTE   W03
 BYTE   VOL   37*FE11EndlessBattleREALxViPerZ_mvl/mxv
 BYTE   W03
 BYTE   VOL   37*FE11EndlessBattleREALxViPerZ_mvl/mxv
 BYTE   W03
 BYTE   VOL   38*FE11EndlessBattleREALxViPerZ_mvl/mxv
 BYTE   W09
//  #09 //027   ----------------------------------------
 BYTE   W24
 BYTE   N23  Dn4
 BYTE   W24
 BYTE   Cn4
 BYTE   W24
 BYTE   As3
 BYTE   W23
 BYTE   VOL   38*FE11EndlessBattleREALxViPerZ_mvl/mxv
 BYTE   W01
//  #09 //028   ----------------------------------------
 BYTE   N44  Gn3
 BYTE   W02
 BYTE   VOL   37*FE11EndlessBattleREALxViPerZ_mvl/mxv
 BYTE   W03
 BYTE   VOL   36*FE11EndlessBattleREALxViPerZ_mvl/mxv
 BYTE   W03
 BYTE   VOL   36*FE11EndlessBattleREALxViPerZ_mvl/mxv
 BYTE   W03
 BYTE   VOL   35*FE11EndlessBattleREALxViPerZ_mvl/mxv
 BYTE   W03
 BYTE   VOL   34*FE11EndlessBattleREALxViPerZ_mvl/mxv
 BYTE   W03
 BYTE   VOL   34*FE11EndlessBattleREALxViPerZ_mvl/mxv
 BYTE   W02
 BYTE   VOL   34*FE11EndlessBattleREALxViPerZ_mvl/mxv
 BYTE   W03
 BYTE   VOL   34*FE11EndlessBattleREALxViPerZ_mvl/mxv
 BYTE   W03
 BYTE   VOL   34*FE11EndlessBattleREALxViPerZ_mvl/mxv
 BYTE   W03
 BYTE   VOL   34*FE11EndlessBattleREALxViPerZ_mvl/mxv
 BYTE   W03
 BYTE   VOL   34*FE11EndlessBattleREALxViPerZ_mvl/mxv
 BYTE   W03
 BYTE   VOL   36*FE11EndlessBattleREALxViPerZ_mvl/mxv
 BYTE   W03
 BYTE   VOL   36*FE11EndlessBattleREALxViPerZ_mvl/mxv
 BYTE   W03
 BYTE   VOL   36*FE11EndlessBattleREALxViPerZ_mvl/mxv
 BYTE   W03
 BYTE   VOL   36*FE11EndlessBattleREALxViPerZ_mvl/mxv
 BYTE   W03
 BYTE   VOL   37*FE11EndlessBattleREALxViPerZ_mvl/mxv
 BYTE   W02
 BYTE   VOL   38*FE11EndlessBattleREALxViPerZ_mvl/mxv
 BYTE   N17  As3
 BYTE   W18
 BYTE   Ds3
 BYTE   W18
 BYTE   N11  Gn3
 BYTE   W12
//  #09 //029   ----------------------------------------
 BYTE   N44  Fn3
 BYTE   W01
 BYTE   VOL   38*FE11EndlessBattleREALxViPerZ_mvl/mxv
 BYTE   W03
 BYTE   VOL   37*FE11EndlessBattleREALxViPerZ_mvl/mxv
 BYTE   W03
 BYTE   VOL   36*FE11EndlessBattleREALxViPerZ_mvl/mxv
 BYTE   W03
 BYTE   VOL   36*FE11EndlessBattleREALxViPerZ_mvl/mxv
 BYTE   W03
 BYTE   VOL   35*FE11EndlessBattleREALxViPerZ_mvl/mxv
 BYTE   W03
 BYTE   VOL   34*FE11EndlessBattleREALxViPerZ_mvl/mxv
 BYTE   W03
 BYTE   VOL   34*FE11EndlessBattleREALxViPerZ_mvl/mxv
 BYTE   W01
 BYTE   VOL   34*FE11EndlessBattleREALxViPerZ_mvl/mxv
 BYTE   W03
 BYTE   VOL   34*FE11EndlessBattleREALxViPerZ_mvl/mxv
 BYTE   W03
 BYTE   VOL   34*FE11EndlessBattleREALxViPerZ_mvl/mxv
 BYTE   W03
 BYTE   VOL   34*FE11EndlessBattleREALxViPerZ_mvl/mxv
 BYTE   W03
 BYTE   VOL   35*FE11EndlessBattleREALxViPerZ_mvl/mxv
 BYTE   W03
 BYTE   VOL   36*FE11EndlessBattleREALxViPerZ_mvl/mxv
 BYTE   W03
 BYTE   VOL   36*FE11EndlessBattleREALxViPerZ_mvl/mxv
 BYTE   W03
 BYTE   VOL   36*FE11EndlessBattleREALxViPerZ_mvl/mxv
 BYTE   W03
 BYTE   VOL   37*FE11EndlessBattleREALxViPerZ_mvl/mxv
 BYTE   W03
 BYTE   VOL   38*FE11EndlessBattleREALxViPerZ_mvl/mxv
 BYTE   W01
 BYTE   VOL   38*FE11EndlessBattleREALxViPerZ_mvl/mxv
 BYTE   N23  Cn3
 BYTE   W24
 BYTE   Dn3
 BYTE   W24
//  #09 //030   ----------------------------------------
 BYTE   TIE  Ds3
 BYTE   W04
 BYTE   VOL   38*FE11EndlessBattleREALxViPerZ_mvl/mxv
 BYTE   W03
 BYTE   VOL   38*FE11EndlessBattleREALxViPerZ_mvl/mxv
 BYTE   W03
 BYTE   VOL   38*FE11EndlessBattleREALxViPerZ_mvl/mxv
 BYTE   W03
 BYTE   VOL   37*FE11EndlessBattleREALxViPerZ_mvl/mxv
 BYTE   W03
 BYTE   VOL   36*FE11EndlessBattleREALxViPerZ_mvl/mxv
 BYTE   W03
 BYTE   VOL   36*FE11EndlessBattleREALxViPerZ_mvl/mxv
 BYTE   W03
 BYTE   VOL   36*FE11EndlessBattleREALxViPerZ_mvl/mxv
 BYTE   W03
 BYTE   VOL   36*FE11EndlessBattleREALxViPerZ_mvl/mxv
 BYTE   W03
 BYTE   VOL   35*FE11EndlessBattleREALxViPerZ_mvl/mxv
 BYTE   W03
 BYTE   VOL   34*FE11EndlessBattleREALxViPerZ_mvl/mxv
 BYTE   W03
 BYTE   VOL   34*FE11EndlessBattleREALxViPerZ_mvl/mxv
 BYTE   W03
 BYTE   VOL   34*FE11EndlessBattleREALxViPerZ_mvl/mxv
 BYTE   W03
 BYTE   VOL   34*FE11EndlessBattleREALxViPerZ_mvl/mxv
 BYTE   W03
 BYTE   VOL   34*FE11EndlessBattleREALxViPerZ_mvl/mxv
 BYTE   W03
 BYTE   VOL   34*FE11EndlessBattleREALxViPerZ_mvl/mxv
 BYTE   W03
 BYTE   VOL   34*FE11EndlessBattleREALxViPerZ_mvl/mxv
 BYTE   W03
 BYTE   VOL   34*FE11EndlessBattleREALxViPerZ_mvl/mxv
 BYTE   W03
 BYTE   VOL   33*FE11EndlessBattleREALxViPerZ_mvl/mxv
 BYTE   W04
 BYTE   VOL   33*FE11EndlessBattleREALxViPerZ_mvl/mxv
 BYTE   W04
 BYTE   VOL   34*FE11EndlessBattleREALxViPerZ_mvl/mxv
 BYTE   W03
 BYTE   VOL   34*FE11EndlessBattleREALxViPerZ_mvl/mxv
 BYTE   W04
 BYTE   VOL   34*FE11EndlessBattleREALxViPerZ_mvl/mxv
 BYTE   W04
 BYTE   VOL   34*FE11EndlessBattleREALxViPerZ_mvl/mxv
 BYTE   W03
 BYTE   VOL   34*FE11EndlessBattleREALxViPerZ_mvl/mxv
 BYTE   W04
 BYTE   VOL   34*FE11EndlessBattleREALxViPerZ_mvl/mxv
 BYTE   W04
 BYTE   VOL   34*FE11EndlessBattleREALxViPerZ_mvl/mxv
 BYTE   W04
 BYTE   VOL   34*FE11EndlessBattleREALxViPerZ_mvl/mxv
 BYTE   W03
 BYTE   VOL   34*FE11EndlessBattleREALxViPerZ_mvl/mxv
 BYTE   W04
//  #09 //031   ----------------------------------------
 BYTE   VOL   34*FE11EndlessBattleREALxViPerZ_mvl/mxv
 BYTE   W04
 BYTE   VOL   34*FE11EndlessBattleREALxViPerZ_mvl/mxv
 BYTE   W03
 BYTE   VOL   35*FE11EndlessBattleREALxViPerZ_mvl/mxv
 BYTE   W04
 BYTE   VOL   36*FE11EndlessBattleREALxViPerZ_mvl/mxv
 BYTE   W04
 BYTE   VOL   36*FE11EndlessBattleREALxViPerZ_mvl/mxv
 BYTE   W03
 BYTE   VOL   36*FE11EndlessBattleREALxViPerZ_mvl/mxv
 BYTE   W04
 BYTE   VOL   36*FE11EndlessBattleREALxViPerZ_mvl/mxv
 BYTE   W04
 BYTE   VOL   36*FE11EndlessBattleREALxViPerZ_mvl/mxv
 BYTE   W04
 BYTE   VOL   36*FE11EndlessBattleREALxViPerZ_mvl/mxv
 BYTE   W03
 BYTE   VOL   37*FE11EndlessBattleREALxViPerZ_mvl/mxv
 BYTE   W04
 BYTE   VOL   37*FE11EndlessBattleREALxViPerZ_mvl/mxv
 BYTE   W04
 BYTE   VOL   38*FE11EndlessBattleREALxViPerZ_mvl/mxv
 BYTE   W03
 BYTE   VOL   38*FE11EndlessBattleREALxViPerZ_mvl/mxv
 BYTE   W03
 BYTE   EOT
 BYTE   W01
 BYTE   VOL   38*FE11EndlessBattleREALxViPerZ_mvl/mxv
 BYTE   N17  Dn3
 BYTE   W18
 BYTE   Ds3
 BYTE   W18
 BYTE   N11  Fn3
 BYTE   W12
//  #09 //032   ----------------------------------------
 BYTE   N60  Gn3
 BYTE   W01
 BYTE   VOL   38*FE11EndlessBattleREALxViPerZ_mvl/mxv
 BYTE   W03
 BYTE   VOL   37*FE11EndlessBattleREALxViPerZ_mvl/mxv
 BYTE   W03
 BYTE   VOL   36*FE11EndlessBattleREALxViPerZ_mvl/mxv
 BYTE   W03
 BYTE   VOL   36*FE11EndlessBattleREALxViPerZ_mvl/mxv
 BYTE   W03
 BYTE   VOL   36*FE11EndlessBattleREALxViPerZ_mvl/mxv
 BYTE   W03
 BYTE   VOL   34*FE11EndlessBattleREALxViPerZ_mvl/mxv
 BYTE   W03
 BYTE   VOL   34*FE11EndlessBattleREALxViPerZ_mvl/mxv
 BYTE   W01
 BYTE   VOL   34*FE11EndlessBattleREALxViPerZ_mvl/mxv
 BYTE   W03
 BYTE   VOL   34*FE11EndlessBattleREALxViPerZ_mvl/mxv
 BYTE   W03
 BYTE   VOL   34*FE11EndlessBattleREALxViPerZ_mvl/mxv
 BYTE   W03
 BYTE   VOL   34*FE11EndlessBattleREALxViPerZ_mvl/mxv
 BYTE   W03
 BYTE   VOL   34*FE11EndlessBattleREALxViPerZ_mvl/mxv
 BYTE   W03
 BYTE   VOL   35*FE11EndlessBattleREALxViPerZ_mvl/mxv
 BYTE   W03
 BYTE   VOL   36*FE11EndlessBattleREALxViPerZ_mvl/mxv
 BYTE   W03
 BYTE   VOL   36*FE11EndlessBattleREALxViPerZ_mvl/mxv
 BYTE   W03
 BYTE   VOL   36*FE11EndlessBattleREALxViPerZ_mvl/mxv
 BYTE   W03
 BYTE   VOL   36*FE11EndlessBattleREALxViPerZ_mvl/mxv
 BYTE   W03
 BYTE   VOL   36*FE11EndlessBattleREALxViPerZ_mvl/mxv
 BYTE   W03
 BYTE   VOL   36*FE11EndlessBattleREALxViPerZ_mvl/mxv
 BYTE   W03
 BYTE   VOL   37*FE11EndlessBattleREALxViPerZ_mvl/mxv
 BYTE   W03
 BYTE   VOL   37*FE11EndlessBattleREALxViPerZ_mvl/mxv
 BYTE   W03
 BYTE   VOL   38*FE11EndlessBattleREALxViPerZ_mvl/mxv
 BYTE   W10
 BYTE   N17
 BYTE   W18
 BYTE   N05  Gs3
 BYTE   W06
//  #09 //033   ----------------------------------------
 BYTE   N92  Gn3
 BYTE   W06
 BYTE   VOL   38*FE11EndlessBattleREALxViPerZ_mvl/mxv
 BYTE   W09
 BYTE   VOL   37*FE11EndlessBattleREALxViPerZ_mvl/mxv
 BYTE   W04
 BYTE   VOL   37*FE11EndlessBattleREALxViPerZ_mvl/mxv
 BYTE   W05
 BYTE   VOL   36*FE11EndlessBattleREALxViPerZ_mvl/mxv
 BYTE   W04
 BYTE   VOL   36*FE11EndlessBattleREALxViPerZ_mvl/mxv
 BYTE   W05
 BYTE   VOL   36*FE11EndlessBattleREALxViPerZ_mvl/mxv
 BYTE   W04
 BYTE   VOL   36*FE11EndlessBattleREALxViPerZ_mvl/mxv
 BYTE   W05
 BYTE   VOL   36*FE11EndlessBattleREALxViPerZ_mvl/mxv
 BYTE   W04
 BYTE   VOL   35*FE11EndlessBattleREALxViPerZ_mvl/mxv
 BYTE   W03
 BYTE   VOL   34*FE11EndlessBattleREALxViPerZ_mvl/mxv
 BYTE   W03
 BYTE   VOL   34*FE11EndlessBattleREALxViPerZ_mvl/mxv
 BYTE   W03
 BYTE   VOL   34*FE11EndlessBattleREALxViPerZ_mvl/mxv
 BYTE   W03
 BYTE   VOL   34*FE11EndlessBattleREALxViPerZ_mvl/mxv
 BYTE   W03
 BYTE   VOL   34*FE11EndlessBattleREALxViPerZ_mvl/mxv
 BYTE   W03
 BYTE   VOL   34*FE11EndlessBattleREALxViPerZ_mvl/mxv
 BYTE   W03
 BYTE   VOL   34*FE11EndlessBattleREALxViPerZ_mvl/mxv
 BYTE   W03
 BYTE   VOL   33*FE11EndlessBattleREALxViPerZ_mvl/mxv
 BYTE   W03
 BYTE   VOL   33*FE11EndlessBattleREALxViPerZ_mvl/mxv
 BYTE   W03
 BYTE   VOL   33*FE11EndlessBattleREALxViPerZ_mvl/mxv
 BYTE   W03
 BYTE   VOL   33*FE11EndlessBattleREALxViPerZ_mvl/mxv
 BYTE   W03
 BYTE   VOL   32*FE11EndlessBattleREALxViPerZ_mvl/mxv
 BYTE   W03
 BYTE   VOL   32*FE11EndlessBattleREALxViPerZ_mvl/mxv
 BYTE   W03
 BYTE   VOL   32*FE11EndlessBattleREALxViPerZ_mvl/mxv
 BYTE   W03
 BYTE   VOL   31*FE11EndlessBattleREALxViPerZ_mvl/mxv
 BYTE   W03
 BYTE   VOL   31*FE11EndlessBattleREALxViPerZ_mvl/mxv
 BYTE   W02
//  #09 //034   ----------------------------------------
 BYTE   W01
 BYTE   VOL   31*FE11EndlessBattleREALxViPerZ_mvl/mxv
 BYTE   W02
 BYTE   VOL   31*FE11EndlessBattleREALxViPerZ_mvl/mxv
 BYTE   W92
 BYTE   W01
//  #09 //035   ----------------------------------------
 BYTE   W96
//  #09 //036   ----------------------------------------
 BYTE   W96
//  #09 //037   ----------------------------------------
 BYTE   W96
//  #09 //038   ----------------------------------------
 BYTE   W96
//  #09 //039   ----------------------------------------
 BYTE   W92
 BYTE   W03
 BYTE   GoTo
  POIN2 Label_5466D0
 BYTE   FINE

//**************** Track 10 (Midi-Chn.9) ****************//

FE11EndlessBattleREALxViPerZ_010:
//  #10 //000   ----------------------------------------
 BYTE   KEYSH   FE11EndlessBattleREALxViPerZ_key+0
 BYTE   MODT 0
 BYTE   LFOS 44
 BYTE   W96
//  #10 //001   ----------------------------------------
 BYTE   W96
//  #10 //002   ----------------------------------------
Label_01C83944:
 BYTE   PAN   c_v+0
 BYTE   VOL   108*FE11EndlessBattleREALxViPerZ_mvl/mxv
 BYTE   W96
//  #10 //003   ----------------------------------------
 BYTE   W96
//  #10 //004   ----------------------------------------
 BYTE   W96
//  #10 //005   ----------------------------------------
 BYTE   W96
//  #10 //006   ----------------------------------------
 BYTE   W96
//  #10 //007   ----------------------------------------
 BYTE   W96
//  #10 //008   ----------------------------------------
 BYTE   W96
//  #10 //009   ----------------------------------------
 BYTE   W96
//  #10 //010   ----------------------------------------
 BYTE   W96
//  #10 //011   ----------------------------------------
 BYTE   W96
//  #10 //012   ----------------------------------------
 BYTE   W96
//  #10 //013   ----------------------------------------
 BYTE   W96
//  #10 //014   ----------------------------------------
 BYTE   W96
//  #10 //015   ----------------------------------------
 BYTE   VOICE   48
 BYTE   VOL   38*FE11EndlessBattleREALxViPerZ_mvl/mxv
 BYTE   PAN   c_v+34
 BYTE   BEND   c_v+0
 BYTE   W96
//  #10 //016   ----------------------------------------
 BYTE   W96
//  #10 //017   ----------------------------------------
 BYTE   W96
//  #10 //018   ----------------------------------------
 BYTE   W06
 BYTE   VOL   31*FE11EndlessBattleREALxViPerZ_mvl/mxv
 BYTE   W03
 BYTE   VOL   31*FE11EndlessBattleREALxViPerZ_mvl/mxv
 BYTE   W03
 BYTE   VOL   32*FE11EndlessBattleREALxViPerZ_mvl/mxv
 BYTE   N44  Gn2  v116
 BYTE   W03
 BYTE   VOL   32*FE11EndlessBattleREALxViPerZ_mvl/mxv
 BYTE   W03
 BYTE   VOL   33*FE11EndlessBattleREALxViPerZ_mvl/mxv
 BYTE   W03
 BYTE   VOL   33*FE11EndlessBattleREALxViPerZ_mvl/mxv
 BYTE   W03
 BYTE   VOL   34*FE11EndlessBattleREALxViPerZ_mvl/mxv
 BYTE   W03
 BYTE   VOL   34*FE11EndlessBattleREALxViPerZ_mvl/mxv
 BYTE   W03
 BYTE   VOL   34*FE11EndlessBattleREALxViPerZ_mvl/mxv
 BYTE   W03
 BYTE   VOL   34*FE11EndlessBattleREALxViPerZ_mvl/mxv
 BYTE   W03
 BYTE   VOL   36*FE11EndlessBattleREALxViPerZ_mvl/mxv
 BYTE   W03
 BYTE   VOL   36*FE11EndlessBattleREALxViPerZ_mvl/mxv
 BYTE   W03
 BYTE   VOL   36*FE11EndlessBattleREALxViPerZ_mvl/mxv
 BYTE   W03
 BYTE   VOL   38*FE11EndlessBattleREALxViPerZ_mvl/mxv
 BYTE   W03
 BYTE   VOL   38*FE11EndlessBattleREALxViPerZ_mvl/mxv
 BYTE   W12
 BYTE   N44  Cn3
 BYTE   W04
 BYTE   VOL   38*FE11EndlessBattleREALxViPerZ_mvl/mxv
 BYTE   W03
 BYTE   VOL   38*FE11EndlessBattleREALxViPerZ_mvl/mxv
 BYTE   W03
 BYTE   VOL   37*FE11EndlessBattleREALxViPerZ_mvl/mxv
 BYTE   W03
 BYTE   VOL   36*FE11EndlessBattleREALxViPerZ_mvl/mxv
 BYTE   W03
 BYTE   VOL   36*FE11EndlessBattleREALxViPerZ_mvl/mxv
 BYTE   W03
 BYTE   VOL   36*FE11EndlessBattleREALxViPerZ_mvl/mxv
 BYTE   W03
 BYTE   VOL   35*FE11EndlessBattleREALxViPerZ_mvl/mxv
 BYTE   W02
 BYTE   VOL   34*FE11EndlessBattleREALxViPerZ_mvl/mxv
 BYTE   W03
 BYTE   VOL   34*FE11EndlessBattleREALxViPerZ_mvl/mxv
 BYTE   W03
 BYTE   VOL   36*FE11EndlessBattleREALxViPerZ_mvl/mxv
 BYTE   W03
 BYTE   VOL   36*FE11EndlessBattleREALxViPerZ_mvl/mxv
 BYTE   W03
//  #10 //019   ----------------------------------------
 BYTE   VOL   36*FE11EndlessBattleREALxViPerZ_mvl/mxv
 BYTE   W03
 BYTE   VOL   37*FE11EndlessBattleREALxViPerZ_mvl/mxv
 BYTE   W03
 BYTE   VOL   38*FE11EndlessBattleREALxViPerZ_mvl/mxv
 BYTE   W03
 BYTE   VOL   38*FE11EndlessBattleREALxViPerZ_mvl/mxv
 BYTE   W03
 BYTE   VOL   38*FE11EndlessBattleREALxViPerZ_mvl/mxv
 BYTE   W15
 BYTE   VOL   38*FE11EndlessBattleREALxViPerZ_mvl/mxv
 BYTE   W01
 BYTE   VOL   38*FE11EndlessBattleREALxViPerZ_mvl/mxv
 BYTE   W02
 BYTE   VOL   36*FE11EndlessBattleREALxViPerZ_mvl/mxv
 BYTE   W01
 BYTE   VOL   34*FE11EndlessBattleREALxViPerZ_mvl/mxv
 BYTE   W02
 BYTE   VOL   34*FE11EndlessBattleREALxViPerZ_mvl/mxv
 BYTE   W03
 BYTE   VOL   34*FE11EndlessBattleREALxViPerZ_mvl/mxv
 BYTE   N23
 BYTE   W03
 BYTE   VOL   34*FE11EndlessBattleREALxViPerZ_mvl/mxv
 BYTE   W03
 BYTE   VOL   34*FE11EndlessBattleREALxViPerZ_mvl/mxv
 BYTE   W03
 BYTE   VOL   36*FE11EndlessBattleREALxViPerZ_mvl/mxv
 BYTE   W03
 BYTE   VOL   36*FE11EndlessBattleREALxViPerZ_mvl/mxv
 BYTE   W03
 BYTE   VOL   37*FE11EndlessBattleREALxViPerZ_mvl/mxv
 BYTE   W03
 BYTE   VOL   38*FE11EndlessBattleREALxViPerZ_mvl/mxv
 BYTE   W03
 BYTE   VOL   38*FE11EndlessBattleREALxViPerZ_mvl/mxv
 BYTE   W03
 BYTE   N23  Dn3
 BYTE   W24
 BYTE   As2
 BYTE   W12
//  #10 //020   ----------------------------------------
 BYTE   W12
 BYTE   N44  Gn2
 BYTE   W05
 BYTE   VOL   38*FE11EndlessBattleREALxViPerZ_mvl/mxv
 BYTE   W03
 BYTE   VOL   38*FE11EndlessBattleREALxViPerZ_mvl/mxv
 BYTE   W03
 BYTE   VOL   38*FE11EndlessBattleREALxViPerZ_mvl/mxv
 BYTE   W03
 BYTE   VOL   38*FE11EndlessBattleREALxViPerZ_mvl/mxv
 BYTE   W03
 BYTE   VOL   37*FE11EndlessBattleREALxViPerZ_mvl/mxv
 BYTE   W03
 BYTE   VOL   36*FE11EndlessBattleREALxViPerZ_mvl/mxv
 BYTE   W03
 BYTE   VOL   36*FE11EndlessBattleREALxViPerZ_mvl/mxv
 BYTE   W02
 BYTE   VOL   36*FE11EndlessBattleREALxViPerZ_mvl/mxv
 BYTE   W03
 BYTE   VOL   36*FE11EndlessBattleREALxViPerZ_mvl/mxv
 BYTE   W03
 BYTE   VOL   36*FE11EndlessBattleREALxViPerZ_mvl/mxv
 BYTE   W03
 BYTE   VOL   36*FE11EndlessBattleREALxViPerZ_mvl/mxv
 BYTE   W03
 BYTE   VOL   37*FE11EndlessBattleREALxViPerZ_mvl/mxv
 BYTE   W03
 BYTE   VOL   38*FE11EndlessBattleREALxViPerZ_mvl/mxv
 BYTE   W03
 BYTE   VOL   38*FE11EndlessBattleREALxViPerZ_mvl/mxv
 BYTE   W03
 BYTE   VOL   38*FE11EndlessBattleREALxViPerZ_mvl/mxv
 BYTE   W02
 BYTE   N32  Ds2
 BYTE   W01
 BYTE   VOL   38*FE11EndlessBattleREALxViPerZ_mvl/mxv
 BYTE   W32
 BYTE   W03
//  #10 //021   ----------------------------------------
 BYTE   N05  Fn2
 BYTE   W06
 BYTE   Gn2
 BYTE   W06
 BYTE   N44  Fn2
 BYTE   W01
 BYTE   VOL   38*FE11EndlessBattleREALxViPerZ_mvl/mxv
 BYTE   W05
 BYTE   VOL   38*FE11EndlessBattleREALxViPerZ_mvl/mxv
 BYTE   W05
 BYTE   VOL   38*FE11EndlessBattleREALxViPerZ_mvl/mxv
 BYTE   W04
 BYTE   VOL   38*FE11EndlessBattleREALxViPerZ_mvl/mxv
 BYTE   W05
 BYTE   VOL   38*FE11EndlessBattleREALxViPerZ_mvl/mxv
 BYTE   W05
 BYTE   VOL   37*FE11EndlessBattleREALxViPerZ_mvl/mxv
 BYTE   W05
 BYTE   VOL   37*FE11EndlessBattleREALxViPerZ_mvl/mxv
 BYTE   W04
 BYTE   VOL   36*FE11EndlessBattleREALxViPerZ_mvl/mxv
 BYTE   W05
 BYTE   VOL   36*FE11EndlessBattleREALxViPerZ_mvl/mxv
 BYTE   W03
 BYTE   VOL   36*FE11EndlessBattleREALxViPerZ_mvl/mxv
 BYTE   W03
 BYTE   VOL   36*FE11EndlessBattleREALxViPerZ_mvl/mxv
 BYTE   W03
 BYTE   VOL   35*FE11EndlessBattleREALxViPerZ_mvl/mxv
 BYTE   W03
 BYTE   VOL   34*FE11EndlessBattleREALxViPerZ_mvl/mxv
 BYTE   W03
 BYTE   VOL   34*FE11EndlessBattleREALxViPerZ_mvl/mxv
 BYTE   W02
 BYTE   VOL   34*FE11EndlessBattleREALxViPerZ_mvl/mxv
 BYTE   W02
 BYTE   VOL   34*FE11EndlessBattleREALxViPerZ_mvl/mxv
 BYTE   W01
 BYTE   VOL   34*FE11EndlessBattleREALxViPerZ_mvl/mxv
 BYTE   W01
 BYTE   N23  Cn2
 BYTE   W01
 BYTE   VOL   34*FE11EndlessBattleREALxViPerZ_mvl/mxv
 BYTE   W01
 BYTE   VOL   36*FE11EndlessBattleREALxViPerZ_mvl/mxv
 BYTE   W02
 BYTE   VOL   36*FE11EndlessBattleREALxViPerZ_mvl/mxv
 BYTE   W01
 BYTE   VOL   36*FE11EndlessBattleREALxViPerZ_mvl/mxv
 BYTE   W02
 BYTE   VOL   36*FE11EndlessBattleREALxViPerZ_mvl/mxv
 BYTE   W01
 BYTE   VOL   37*FE11EndlessBattleREALxViPerZ_mvl/mxv
 BYTE   W02
 BYTE   VOL   37*FE11EndlessBattleREALxViPerZ_mvl/mxv
 BYTE   W01
 BYTE   VOL   38*FE11EndlessBattleREALxViPerZ_mvl/mxv
 BYTE   W02
 BYTE   VOL   38*FE11EndlessBattleREALxViPerZ_mvl/mxv
 BYTE   W11
//  #10 //022   ----------------------------------------
 BYTE   N11  Dn2
 BYTE   W12
 BYTE   N44  Ds2
 BYTE   W48
 BYTE   N23  Fn2
 BYTE   W24
 BYTE   Gn2
 BYTE   W12
//  #10 //023   ----------------------------------------
 BYTE   W12
 BYTE   N44  As2
 BYTE   W06
 BYTE   VOL   38*FE11EndlessBattleREALxViPerZ_mvl/mxv
 BYTE   W03
 BYTE   VOL   38*FE11EndlessBattleREALxViPerZ_mvl/mxv
 BYTE   W03
 BYTE   VOL   38*FE11EndlessBattleREALxViPerZ_mvl/mxv
 BYTE   W03
 BYTE   VOL   37*FE11EndlessBattleREALxViPerZ_mvl/mxv
 BYTE   W03
 BYTE   VOL   36*FE11EndlessBattleREALxViPerZ_mvl/mxv
 BYTE   W03
 BYTE   VOL   36*FE11EndlessBattleREALxViPerZ_mvl/mxv
 BYTE   W01
 BYTE   VOL   36*FE11EndlessBattleREALxViPerZ_mvl/mxv
 BYTE   W03
 BYTE   VOL   36*FE11EndlessBattleREALxViPerZ_mvl/mxv
 BYTE   W03
 BYTE   VOL   36*FE11EndlessBattleREALxViPerZ_mvl/mxv
 BYTE   W03
 BYTE   VOL   36*FE11EndlessBattleREALxViPerZ_mvl/mxv
 BYTE   W03
 BYTE   VOL   36*FE11EndlessBattleREALxViPerZ_mvl/mxv
 BYTE   W03
 BYTE   VOL   37*FE11EndlessBattleREALxViPerZ_mvl/mxv
 BYTE   W03
 BYTE   VOL   38*FE11EndlessBattleREALxViPerZ_mvl/mxv
 BYTE   W03
 BYTE   VOL   38*FE11EndlessBattleREALxViPerZ_mvl/mxv
 BYTE   W03
 BYTE   VOL   38*FE11EndlessBattleREALxViPerZ_mvl/mxv
 BYTE   W02
 BYTE   N17  Fn2
 BYTE   W01
 BYTE   VOL   38*FE11EndlessBattleREALxViPerZ_mvl/mxv
 BYTE   W01
 BYTE   VOL   38*FE11EndlessBattleREALxViPerZ_mvl/mxv
 BYTE   W16
 BYTE   N17  Gn2
 BYTE   W18
//  #10 //024   ----------------------------------------
 BYTE   N11  As2
 BYTE   W12
 BYTE   N17  Cn3
 BYTE   W18
 BYTE   N05  Dn3
 BYTE   W06
 BYTE   TIE  Cn3
 BYTE   W02
 BYTE   VOL   38*FE11EndlessBattleREALxViPerZ_mvl/mxv
 BYTE   W03
 BYTE   VOL   38*FE11EndlessBattleREALxViPerZ_mvl/mxv
 BYTE   W03
 BYTE   VOL   37*FE11EndlessBattleREALxViPerZ_mvl/mxv
 BYTE   W03
 BYTE   VOL   36*FE11EndlessBattleREALxViPerZ_mvl/mxv
 BYTE   W03
 BYTE   VOL   36*FE11EndlessBattleREALxViPerZ_mvl/mxv
 BYTE   W03
 BYTE   VOL   36*FE11EndlessBattleREALxViPerZ_mvl/mxv
 BYTE   W03
 BYTE   VOL   36*FE11EndlessBattleREALxViPerZ_mvl/mxv
 BYTE   W03
 BYTE   VOL   37*FE11EndlessBattleREALxViPerZ_mvl/mxv
 BYTE   W03
 BYTE   VOL   38*FE11EndlessBattleREALxViPerZ_mvl/mxv
 BYTE   W03
 BYTE   VOL   38*FE11EndlessBattleREALxViPerZ_mvl/mxv
 BYTE   W03
 BYTE   VOL   38*FE11EndlessBattleREALxViPerZ_mvl/mxv
 BYTE   W09
 BYTE   VOL   38*FE11EndlessBattleREALxViPerZ_mvl/mxv
 BYTE   W04
 BYTE   VOL   38*FE11EndlessBattleREALxViPerZ_mvl/mxv
 BYTE   W05
 BYTE   VOL   38*FE11EndlessBattleREALxViPerZ_mvl/mxv
 BYTE   W04
 BYTE   VOL   38*FE11EndlessBattleREALxViPerZ_mvl/mxv
 BYTE   W05
 BYTE   VOL   37*FE11EndlessBattleREALxViPerZ_mvl/mxv
 BYTE   W01
//  #10 //025   ----------------------------------------
 BYTE   W03
 BYTE   VOL   37*FE11EndlessBattleREALxViPerZ_mvl/mxv
 BYTE   W05
 BYTE   VOL   36*FE11EndlessBattleREALxViPerZ_mvl/mxv
 BYTE   W04
 BYTE   VOL   36*FE11EndlessBattleREALxViPerZ_mvl/mxv
 BYTE   W01
 BYTE   VOL   35*FE11EndlessBattleREALxViPerZ_mvl/mxv
 BYTE   W01
 BYTE   VOL   34*FE11EndlessBattleREALxViPerZ_mvl/mxv
 BYTE   W01
 BYTE   VOL   33*FE11EndlessBattleREALxViPerZ_mvl/mxv
 BYTE   W01
 BYTE   VOL   32*FE11EndlessBattleREALxViPerZ_mvl/mxv
 BYTE   W01
 BYTE   VOL   31*FE11EndlessBattleREALxViPerZ_mvl/mxv
 BYTE   W01
 BYTE   VOL   31*FE11EndlessBattleREALxViPerZ_mvl/mxv
 BYTE   W01
 BYTE   VOL   30*FE11EndlessBattleREALxViPerZ_mvl/mxv
 BYTE   W01
 BYTE   VOL   29*FE11EndlessBattleREALxViPerZ_mvl/mxv
 BYTE   W01
 BYTE   VOL   29*FE11EndlessBattleREALxViPerZ_mvl/mxv
 BYTE   W01
 BYTE   VOL   29*FE11EndlessBattleREALxViPerZ_mvl/mxv
 BYTE   W01
 BYTE   VOL   29*FE11EndlessBattleREALxViPerZ_mvl/mxv
 BYTE   W01
 BYTE   VOL   28*FE11EndlessBattleREALxViPerZ_mvl/mxv
 BYTE   W01
 BYTE   VOL   28*FE11EndlessBattleREALxViPerZ_mvl/mxv
 BYTE   W01
 BYTE   VOL   28*FE11EndlessBattleREALxViPerZ_mvl/mxv
 BYTE   W01
 BYTE   VOL   28*FE11EndlessBattleREALxViPerZ_mvl/mxv
 BYTE   W01
 BYTE   VOL   28*FE11EndlessBattleREALxViPerZ_mvl/mxv
 BYTE   W01
 BYTE   VOL   28*FE11EndlessBattleREALxViPerZ_mvl/mxv
 BYTE   W01
 BYTE   VOL   28*FE11EndlessBattleREALxViPerZ_mvl/mxv
 BYTE   W01
 BYTE   VOL   28*FE11EndlessBattleREALxViPerZ_mvl/mxv
 BYTE   W01
 BYTE   VOL   28*FE11EndlessBattleREALxViPerZ_mvl/mxv
 BYTE   W01
 BYTE   VOL   28*FE11EndlessBattleREALxViPerZ_mvl/mxv
 BYTE   W08
 BYTE   EOT
 BYTE   W07
 BYTE   VOICE   49
 BYTE   VOL   28*FE11EndlessBattleREALxViPerZ_mvl/mxv
 BYTE   PAN   c_v-25
 BYTE   BEND   c_v+0
 BYTE   W24
 BYTE   W02
 BYTE   VOL   31*FE11EndlessBattleREALxViPerZ_mvl/mxv
 BYTE   W10
 BYTE   N03  Gn2  v080
 BYTE   W04
 BYTE   An2
 BYTE   W03
 BYTE   As2
 BYTE   W04
 BYTE   Cn3
 BYTE   W01
//  #10 //026   ----------------------------------------
 BYTE   W02
 BYTE   Dn3
 BYTE   W04
 BYTE   Ds3
 BYTE   W03
 BYTE   N02  Fn3
 BYTE   W03
 BYTE   N44  Gn3
 BYTE   W07
 BYTE   VOL   31*FE11EndlessBattleREALxViPerZ_mvl/mxv
 BYTE   W02
 BYTE   VOL   31*FE11EndlessBattleREALxViPerZ_mvl/mxv
 BYTE   W01
 BYTE   VOL   31*FE11EndlessBattleREALxViPerZ_mvl/mxv
 BYTE   W02
 BYTE   VOL   31*FE11EndlessBattleREALxViPerZ_mvl/mxv
 BYTE   W01
 BYTE   VOL   31*FE11EndlessBattleREALxViPerZ_mvl/mxv
 BYTE   W02
 BYTE   VOL   31*FE11EndlessBattleREALxViPerZ_mvl/mxv
 BYTE   W01
 BYTE   VOL   31*FE11EndlessBattleREALxViPerZ_mvl/mxv
 BYTE   W02
 BYTE   VOL   31*FE11EndlessBattleREALxViPerZ_mvl/mxv
 BYTE   W01
 BYTE   VOL   30*FE11EndlessBattleREALxViPerZ_mvl/mxv
 BYTE   W02
 BYTE   VOL   30*FE11EndlessBattleREALxViPerZ_mvl/mxv
 BYTE   W01
 BYTE   VOL   30*FE11EndlessBattleREALxViPerZ_mvl/mxv
 BYTE   W02
 BYTE   VOL   30*FE11EndlessBattleREALxViPerZ_mvl/mxv
 BYTE   W01
 BYTE   VOL   30*FE11EndlessBattleREALxViPerZ_mvl/mxv
 BYTE   W01
 BYTE   VOL   30*FE11EndlessBattleREALxViPerZ_mvl/mxv
 BYTE   W06
 BYTE   VOL   30*FE11EndlessBattleREALxViPerZ_mvl/mxv
 BYTE   W04
 BYTE   VOL   30*FE11EndlessBattleREALxViPerZ_mvl/mxv
 BYTE   W03
 BYTE   VOL   30*FE11EndlessBattleREALxViPerZ_mvl/mxv
 BYTE   W03
 BYTE   VOL   30*FE11EndlessBattleREALxViPerZ_mvl/mxv
 BYTE   W03
 BYTE   VOL   30*FE11EndlessBattleREALxViPerZ_mvl/mxv
 BYTE   W03
 BYTE   VOL   30*FE11EndlessBattleREALxViPerZ_mvl/mxv
 BYTE   N44  Ds4
 BYTE   W03
 BYTE   VOL   30*FE11EndlessBattleREALxViPerZ_mvl/mxv
 BYTE   W03
 BYTE   VOL   30*FE11EndlessBattleREALxViPerZ_mvl/mxv
 BYTE   W03
 BYTE   VOL   30*FE11EndlessBattleREALxViPerZ_mvl/mxv
 BYTE   W03
 BYTE   VOL   31*FE11EndlessBattleREALxViPerZ_mvl/mxv
 BYTE   W03
 BYTE   VOL   31*FE11EndlessBattleREALxViPerZ_mvl/mxv
 BYTE   W03
 BYTE   VOL   31*FE11EndlessBattleREALxViPerZ_mvl/mxv
 BYTE   W03
 BYTE   VOL   31*FE11EndlessBattleREALxViPerZ_mvl/mxv
 BYTE   W03
 BYTE   VOL   31*FE11EndlessBattleREALxViPerZ_mvl/mxv
 BYTE   W03
 BYTE   VOL   31*FE11EndlessBattleREALxViPerZ_mvl/mxv
 BYTE   W03
 BYTE   VOL   31*FE11EndlessBattleREALxViPerZ_mvl/mxv
 BYTE   W03
 BYTE   VOL   31*FE11EndlessBattleREALxViPerZ_mvl/mxv
 BYTE   W03
//  #10 //027   ----------------------------------------
 BYTE   VOL   31*FE11EndlessBattleREALxViPerZ_mvl/mxv
 BYTE   W03
 BYTE   VOL   31*FE11EndlessBattleREALxViPerZ_mvl/mxv
 BYTE   W32
 BYTE   W01
 BYTE   N23  Dn4
 BYTE   W24
 BYTE   Cn4
 BYTE   W24
 BYTE   As3
 BYTE   W12
//  #10 //028   ----------------------------------------
 BYTE   W11
 BYTE   VOL   31*FE11EndlessBattleREALxViPerZ_mvl/mxv
 BYTE   W01
 BYTE   N44  Gn3
 BYTE   W02
 BYTE   VOL   31*FE11EndlessBattleREALxViPerZ_mvl/mxv
 BYTE   W03
 BYTE   VOL   31*FE11EndlessBattleREALxViPerZ_mvl/mxv
 BYTE   W03
 BYTE   VOL   31*FE11EndlessBattleREALxViPerZ_mvl/mxv
 BYTE   W03
 BYTE   VOL   31*FE11EndlessBattleREALxViPerZ_mvl/mxv
 BYTE   W03
 BYTE   VOL   30*FE11EndlessBattleREALxViPerZ_mvl/mxv
 BYTE   W03
 BYTE   VOL   30*FE11EndlessBattleREALxViPerZ_mvl/mxv
 BYTE   W02
 BYTE   VOL   30*FE11EndlessBattleREALxViPerZ_mvl/mxv
 BYTE   W03
 BYTE   VOL   30*FE11EndlessBattleREALxViPerZ_mvl/mxv
 BYTE   W03
 BYTE   VOL   30*FE11EndlessBattleREALxViPerZ_mvl/mxv
 BYTE   W03
 BYTE   VOL   30*FE11EndlessBattleREALxViPerZ_mvl/mxv
 BYTE   W03
 BYTE   VOL   30*FE11EndlessBattleREALxViPerZ_mvl/mxv
 BYTE   W03
 BYTE   VOL   31*FE11EndlessBattleREALxViPerZ_mvl/mxv
 BYTE   W03
 BYTE   VOL   31*FE11EndlessBattleREALxViPerZ_mvl/mxv
 BYTE   W03
 BYTE   VOL   31*FE11EndlessBattleREALxViPerZ_mvl/mxv
 BYTE   W03
 BYTE   VOL   31*FE11EndlessBattleREALxViPerZ_mvl/mxv
 BYTE   W03
 BYTE   VOL   31*FE11EndlessBattleREALxViPerZ_mvl/mxv
 BYTE   W02
 BYTE   VOL   31*FE11EndlessBattleREALxViPerZ_mvl/mxv
 BYTE   N17  As3
 BYTE   W18
 BYTE   Ds3
 BYTE   W18
//  #10 //029   ----------------------------------------
 BYTE   N11  Gn3
 BYTE   W12
 BYTE   N44  Fn3
 BYTE   W01
 BYTE   VOL   31*FE11EndlessBattleREALxViPerZ_mvl/mxv
 BYTE   W03
 BYTE   VOL   31*FE11EndlessBattleREALxViPerZ_mvl/mxv
 BYTE   W03
 BYTE   VOL   31*FE11EndlessBattleREALxViPerZ_mvl/mxv
 BYTE   W03
 BYTE   VOL   31*FE11EndlessBattleREALxViPerZ_mvl/mxv
 BYTE   W03
 BYTE   VOL   31*FE11EndlessBattleREALxViPerZ_mvl/mxv
 BYTE   W03
 BYTE   VOL   30*FE11EndlessBattleREALxViPerZ_mvl/mxv
 BYTE   W03
 BYTE   VOL   30*FE11EndlessBattleREALxViPerZ_mvl/mxv
 BYTE   W01
 BYTE   VOL   30*FE11EndlessBattleREALxViPerZ_mvl/mxv
 BYTE   W03
 BYTE   VOL   30*FE11EndlessBattleREALxViPerZ_mvl/mxv
 BYTE   W03
 BYTE   VOL   30*FE11EndlessBattleREALxViPerZ_mvl/mxv
 BYTE   W03
 BYTE   VOL   30*FE11EndlessBattleREALxViPerZ_mvl/mxv
 BYTE   W03
 BYTE   VOL   31*FE11EndlessBattleREALxViPerZ_mvl/mxv
 BYTE   W03
 BYTE   VOL   31*FE11EndlessBattleREALxViPerZ_mvl/mxv
 BYTE   W03
 BYTE   VOL   31*FE11EndlessBattleREALxViPerZ_mvl/mxv
 BYTE   W03
 BYTE   VOL   31*FE11EndlessBattleREALxViPerZ_mvl/mxv
 BYTE   W03
 BYTE   VOL   31*FE11EndlessBattleREALxViPerZ_mvl/mxv
 BYTE   W03
 BYTE   VOL   31*FE11EndlessBattleREALxViPerZ_mvl/mxv
 BYTE   W01
 BYTE   VOL   31*FE11EndlessBattleREALxViPerZ_mvl/mxv
 BYTE   N23  Cn3
 BYTE   W24
 BYTE   Dn3
 BYTE   W12
//  #10 //030   ----------------------------------------
 BYTE   W12
 BYTE   TIE  Ds3
 BYTE   W04
 BYTE   VOL   31*FE11EndlessBattleREALxViPerZ_mvl/mxv
 BYTE   W03
 BYTE   VOL   31*FE11EndlessBattleREALxViPerZ_mvl/mxv
 BYTE   W03
 BYTE   VOL   31*FE11EndlessBattleREALxViPerZ_mvl/mxv
 BYTE   W03
 BYTE   VOL   31*FE11EndlessBattleREALxViPerZ_mvl/mxv
 BYTE   W03
 BYTE   VOL   31*FE11EndlessBattleREALxViPerZ_mvl/mxv
 BYTE   W03
 BYTE   VOL   31*FE11EndlessBattleREALxViPerZ_mvl/mxv
 BYTE   W03
 BYTE   VOL   31*FE11EndlessBattleREALxViPerZ_mvl/mxv
 BYTE   W03
 BYTE   VOL   31*FE11EndlessBattleREALxViPerZ_mvl/mxv
 BYTE   W03
 BYTE   VOL   31*FE11EndlessBattleREALxViPerZ_mvl/mxv
 BYTE   W03
 BYTE   VOL   30*FE11EndlessBattleREALxViPerZ_mvl/mxv
 BYTE   W03
 BYTE   VOL   30*FE11EndlessBattleREALxViPerZ_mvl/mxv
 BYTE   W03
 BYTE   VOL   30*FE11EndlessBattleREALxViPerZ_mvl/mxv
 BYTE   W03
 BYTE   VOL   30*FE11EndlessBattleREALxViPerZ_mvl/mxv
 BYTE   W03
 BYTE   VOL   30*FE11EndlessBattleREALxViPerZ_mvl/mxv
 BYTE   W03
 BYTE   VOL   30*FE11EndlessBattleREALxViPerZ_mvl/mxv
 BYTE   W03
 BYTE   VOL   30*FE11EndlessBattleREALxViPerZ_mvl/mxv
 BYTE   W03
 BYTE   VOL   30*FE11EndlessBattleREALxViPerZ_mvl/mxv
 BYTE   W03
 BYTE   VOL   29*FE11EndlessBattleREALxViPerZ_mvl/mxv
 BYTE   W04
 BYTE   VOL   29*FE11EndlessBattleREALxViPerZ_mvl/mxv
 BYTE   W04
 BYTE   VOL   30*FE11EndlessBattleREALxViPerZ_mvl/mxv
 BYTE   W03
 BYTE   VOL   30*FE11EndlessBattleREALxViPerZ_mvl/mxv
 BYTE   W04
 BYTE   VOL   30*FE11EndlessBattleREALxViPerZ_mvl/mxv
 BYTE   W04
 BYTE   VOL   30*FE11EndlessBattleREALxViPerZ_mvl/mxv
 BYTE   W03
 BYTE   VOL   30*FE11EndlessBattleREALxViPerZ_mvl/mxv
 BYTE   W04
 BYTE   VOL   30*FE11EndlessBattleREALxViPerZ_mvl/mxv
 BYTE   W03
//  #10 //031   ----------------------------------------
 BYTE   W01
 BYTE   VOL   30*FE11EndlessBattleREALxViPerZ_mvl/mxv
 BYTE   W04
 BYTE   VOL   30*FE11EndlessBattleREALxViPerZ_mvl/mxv
 BYTE   W03
 BYTE   VOL   30*FE11EndlessBattleREALxViPerZ_mvl/mxv
 BYTE   W04
 BYTE   VOL   30*FE11EndlessBattleREALxViPerZ_mvl/mxv
 BYTE   W04
 BYTE   VOL   30*FE11EndlessBattleREALxViPerZ_mvl/mxv
 BYTE   W03
 BYTE   VOL   31*FE11EndlessBattleREALxViPerZ_mvl/mxv
 BYTE   W04
 BYTE   VOL   31*FE11EndlessBattleREALxViPerZ_mvl/mxv
 BYTE   W04
 BYTE   VOL   31*FE11EndlessBattleREALxViPerZ_mvl/mxv
 BYTE   W03
 BYTE   VOL   31*FE11EndlessBattleREALxViPerZ_mvl/mxv
 BYTE   W04
 BYTE   VOL   31*FE11EndlessBattleREALxViPerZ_mvl/mxv
 BYTE   W04
 BYTE   VOL   31*FE11EndlessBattleREALxViPerZ_mvl/mxv
 BYTE   W04
 BYTE   VOL   31*FE11EndlessBattleREALxViPerZ_mvl/mxv
 BYTE   W03
 BYTE   VOL   31*FE11EndlessBattleREALxViPerZ_mvl/mxv
 BYTE   W04
 BYTE   VOL   31*FE11EndlessBattleREALxViPerZ_mvl/mxv
 BYTE   W04
 BYTE   VOL   31*FE11EndlessBattleREALxViPerZ_mvl/mxv
 BYTE   W03
 BYTE   VOL   31*FE11EndlessBattleREALxViPerZ_mvl/mxv
 BYTE   W03
 BYTE   EOT
 BYTE   W01
 BYTE   VOL   31*FE11EndlessBattleREALxViPerZ_mvl/mxv
 BYTE   N17  Dn3
 BYTE   W18
 BYTE   Ds3
 BYTE   W18
//  #10 //032   ----------------------------------------
 BYTE   N11  Fn3
 BYTE   W12
 BYTE   N60  Gn3
 BYTE   W01
 BYTE   VOL   31*FE11EndlessBattleREALxViPerZ_mvl/mxv
 BYTE   W03
 BYTE   VOL   31*FE11EndlessBattleREALxViPerZ_mvl/mxv
 BYTE   W03
 BYTE   VOL   31*FE11EndlessBattleREALxViPerZ_mvl/mxv
 BYTE   W03
 BYTE   VOL   31*FE11EndlessBattleREALxViPerZ_mvl/mxv
 BYTE   W03
 BYTE   VOL   31*FE11EndlessBattleREALxViPerZ_mvl/mxv
 BYTE   W03
 BYTE   VOL   30*FE11EndlessBattleREALxViPerZ_mvl/mxv
 BYTE   W03
 BYTE   VOL   30*FE11EndlessBattleREALxViPerZ_mvl/mxv
 BYTE   W01
 BYTE   VOL   30*FE11EndlessBattleREALxViPerZ_mvl/mxv
 BYTE   W03
 BYTE   VOL   30*FE11EndlessBattleREALxViPerZ_mvl/mxv
 BYTE   W03
 BYTE   VOL   30*FE11EndlessBattleREALxViPerZ_mvl/mxv
 BYTE   W03
 BYTE   VOL   30*FE11EndlessBattleREALxViPerZ_mvl/mxv
 BYTE   W03
 BYTE   VOL   30*FE11EndlessBattleREALxViPerZ_mvl/mxv
 BYTE   W03
 BYTE   VOL   31*FE11EndlessBattleREALxViPerZ_mvl/mxv
 BYTE   W03
 BYTE   VOL   31*FE11EndlessBattleREALxViPerZ_mvl/mxv
 BYTE   W03
 BYTE   VOL   31*FE11EndlessBattleREALxViPerZ_mvl/mxv
 BYTE   W03
 BYTE   VOL   31*FE11EndlessBattleREALxViPerZ_mvl/mxv
 BYTE   W03
 BYTE   VOL   31*FE11EndlessBattleREALxViPerZ_mvl/mxv
 BYTE   W03
 BYTE   VOL   31*FE11EndlessBattleREALxViPerZ_mvl/mxv
 BYTE   W03
 BYTE   VOL   31*FE11EndlessBattleREALxViPerZ_mvl/mxv
 BYTE   W03
 BYTE   VOL   31*FE11EndlessBattleREALxViPerZ_mvl/mxv
 BYTE   W03
 BYTE   VOL   31*FE11EndlessBattleREALxViPerZ_mvl/mxv
 BYTE   W03
 BYTE   VOL   31*FE11EndlessBattleREALxViPerZ_mvl/mxv
 BYTE   W10
 BYTE   N17
 BYTE   W12
//  #10 //033   ----------------------------------------
 BYTE   W06
 BYTE   N05  Gs3
 BYTE   W06
 BYTE   N92  Gn3
 BYTE   W06
 BYTE   VOL   31*FE11EndlessBattleREALxViPerZ_mvl/mxv
 BYTE   W09
 BYTE   VOL   31*FE11EndlessBattleREALxViPerZ_mvl/mxv
 BYTE   W04
 BYTE   VOL   31*FE11EndlessBattleREALxViPerZ_mvl/mxv
 BYTE   W05
 BYTE   VOL   31*FE11EndlessBattleREALxViPerZ_mvl/mxv
 BYTE   W04
 BYTE   VOL   31*FE11EndlessBattleREALxViPerZ_mvl/mxv
 BYTE   W05
 BYTE   VOL   31*FE11EndlessBattleREALxViPerZ_mvl/mxv
 BYTE   W04
 BYTE   VOL   31*FE11EndlessBattleREALxViPerZ_mvl/mxv
 BYTE   W05
 BYTE   VOL   31*FE11EndlessBattleREALxViPerZ_mvl/mxv
 BYTE   W04
 BYTE   VOL   31*FE11EndlessBattleREALxViPerZ_mvl/mxv
 BYTE   W03
 BYTE   VOL   30*FE11EndlessBattleREALxViPerZ_mvl/mxv
 BYTE   W03
 BYTE   VOL   30*FE11EndlessBattleREALxViPerZ_mvl/mxv
 BYTE   W03
 BYTE   VOL   30*FE11EndlessBattleREALxViPerZ_mvl/mxv
 BYTE   W03
 BYTE   VOL   30*FE11EndlessBattleREALxViPerZ_mvl/mxv
 BYTE   W03
 BYTE   VOL   30*FE11EndlessBattleREALxViPerZ_mvl/mxv
 BYTE   W03
 BYTE   VOL   30*FE11EndlessBattleREALxViPerZ_mvl/mxv
 BYTE   W03
 BYTE   VOL   30*FE11EndlessBattleREALxViPerZ_mvl/mxv
 BYTE   W03
 BYTE   VOL   29*FE11EndlessBattleREALxViPerZ_mvl/mxv
 BYTE   W03
 BYTE   VOL   29*FE11EndlessBattleREALxViPerZ_mvl/mxv
 BYTE   W03
 BYTE   VOL   29*FE11EndlessBattleREALxViPerZ_mvl/mxv
 BYTE   W03
 BYTE   VOL   29*FE11EndlessBattleREALxViPerZ_mvl/mxv
 BYTE   W03
 BYTE   VOL   29*FE11EndlessBattleREALxViPerZ_mvl/mxv
 BYTE   W02
//  #10 //034   ----------------------------------------
 BYTE   W01
 BYTE   VOL   29*FE11EndlessBattleREALxViPerZ_mvl/mxv
 BYTE   W03
 BYTE   VOL   29*FE11EndlessBattleREALxViPerZ_mvl/mxv
 BYTE   W03
 BYTE   VOL   29*FE11EndlessBattleREALxViPerZ_mvl/mxv
 BYTE   W03
 BYTE   VOL   29*FE11EndlessBattleREALxViPerZ_mvl/mxv
 BYTE   W84
 BYTE   W02
//  #10 //035   ----------------------------------------
 BYTE   W96
//  #10 //036   ----------------------------------------
 BYTE   W96
//  #10 //037   ----------------------------------------
 BYTE   W96
//  #10 //038   ----------------------------------------
 BYTE   W96
//  #10 //039   ----------------------------------------
 BYTE   W92
 BYTE   W03
 BYTE   GoTo
  POIN2 Label_01C83944
 BYTE   FINE

//**************** Track 11 (Midi-Chn.10) ****************//

FE11EndlessBattleREALxViPerZ_011:
//  #11 //000   ----------------------------------------
 BYTE   KEYSH   FE11EndlessBattleREALxViPerZ_key+0
 BYTE   VOICE   15
 BYTE   MODT 0
 BYTE   LFOS 44
 BYTE   VOL   61*FE11EndlessBattleREALxViPerZ_mvl/mxv
 BYTE   PAN   c_v-24
 BYTE   BEND   c_v+0
 BYTE   N11  Gn2  v104
 BYTE   W12
 BYTE   Gn2  v060
 BYTE   W12
 BYTE   Gn2  v016
 BYTE   W12
 BYTE   Gn2  v104
 BYTE   W12
 BYTE   Gn2  v060
 BYTE   W12
 BYTE   Gn2  v016
 BYTE   W12
 BYTE   Gn2  v104
 BYTE   W12
 BYTE   Gn2  v060
 BYTE   W12
//  #11 //001   ----------------------------------------
Label_547747:
 BYTE   N11  Gn2  v104
 BYTE   W12
 BYTE   Gn2  v060
 BYTE   W12
 BYTE   Gn2  v016
 BYTE   W12
 BYTE   Gn2  v104
 BYTE   W12
 BYTE   Gn2  v060
 BYTE   W12
 BYTE   Gn2  v016
 BYTE   W12
 BYTE   Gn2  v104
 BYTE   W12
 BYTE   Gn2  v060
 BYTE   W12
 BYTE   PEND 
//  #11 //002   ----------------------------------------
Label_547761:
 BYTE   N11  Cn3  v104
 BYTE   W12
 BYTE   Cn3  v060
 BYTE   W12
 BYTE   Cn3  v016
 BYTE   W12
 BYTE   Cn3  v104
 BYTE   W12
 BYTE   Cn3  v060
 BYTE   W12
 BYTE   Cn3  v016
 BYTE   W12
 BYTE   Cn3  v104
 BYTE   W12
 BYTE   Cn3  v060
 BYTE   W12
 BYTE   PEND 
//  #11 //003   ----------------------------------------
Label_54777B:
 BYTE   N11  As2  v104
 BYTE   W12
 BYTE   As2  v060
 BYTE   W12
 BYTE   As2  v016
 BYTE   W12
 BYTE   As2  v104
 BYTE   W12
 BYTE   As2  v060
 BYTE   W12
 BYTE   As2  v016
 BYTE   W12
 BYTE   As2  v104
 BYTE   W12
 BYTE   As2  v060
 BYTE   W12
 BYTE   PEND 
//  #11 //004   ----------------------------------------
Label_547795:
 BYTE   N11  Gs2  v104
 BYTE   W12
 BYTE   Gs2  v060
 BYTE   W12
 BYTE   Gs2  v016
 BYTE   W12
 BYTE   Gs2  v104
 BYTE   W12
 BYTE   Gs2  v060
 BYTE   W12
 BYTE   Gs2  v016
 BYTE   W12
 BYTE   Gs2  v104
 BYTE   W12
 BYTE   Gs2  v060
 BYTE   W12
 BYTE   PEND 
//  #11 //005   ----------------------------------------
 BYTE   PATT
  POIN2 Label_547747
//  #11 //006   ----------------------------------------
 BYTE   N11  Fn2  v104
 BYTE   W12
 BYTE   Fn2  v060
 BYTE   W12
 BYTE   Fn2  v016
 BYTE   W12
 BYTE   Fn2  v104
 BYTE   W12
 BYTE   Fn2  v060
 BYTE   W12
 BYTE   Fn2  v016
 BYTE   W12
 BYTE   Fn2  v104
 BYTE   W12
 BYTE   Fn2  v060
 BYTE   W12
//  #11 //007   ----------------------------------------
 BYTE   Ds2  v104
 BYTE   W12
 BYTE   Ds2  v060
 BYTE   W12
 BYTE   Ds2  v016
 BYTE   W12
 BYTE   Ds2  v104
 BYTE   W12
 BYTE   Ds2  v060
 BYTE   W12
 BYTE   Ds2  v016
 BYTE   W12
 BYTE   Ds2  v104
 BYTE   W12
 BYTE   Ds2  v060
 BYTE   W12
//  #11 //008   ----------------------------------------
Label_5477E5:
 BYTE   N11  Dn3  v104
 BYTE   W12
 BYTE   Dn3  v060
 BYTE   W12
 BYTE   Dn3  v016
 BYTE   W12
 BYTE   Dn3  v104
 BYTE   W12
 BYTE   Dn3  v060
 BYTE   W12
 BYTE   Dn3  v016
 BYTE   W12
 BYTE   Dn3  v104
 BYTE   W12
 BYTE   Dn3  v060
 BYTE   W12
 BYTE   PEND 
//  #11 //009   ----------------------------------------
 BYTE   PATT
  POIN2 Label_547747
//  #11 //010   ----------------------------------------
 BYTE   PATT
  POIN2 Label_547761
//  #11 //011   ----------------------------------------
 BYTE   PATT
  POIN2 Label_54777B
//  #11 //012   ----------------------------------------
 BYTE   N11  An2  v104
 BYTE   W12
 BYTE   An2  v060
 BYTE   W12
 BYTE   An2  v016
 BYTE   W12
 BYTE   An2  v104
 BYTE   W12
 BYTE   An2  v060
 BYTE   W12
 BYTE   An2  v016
 BYTE   W12
 BYTE   An2  v104
 BYTE   W12
 BYTE   An2  v060
 BYTE   W12
//  #11 //013   ----------------------------------------
 BYTE   PATT
  POIN2 Label_547795
//  #11 //014   ----------------------------------------
Label_54782C:
 BYTE   N11  Cs3  v104
 BYTE   W12
 BYTE   Cs3  v060
 BYTE   W12
 BYTE   Cs3  v016
 BYTE   W12
 BYTE   Cs3  v104
 BYTE   W12
 BYTE   Cs3  v060
 BYTE   W12
 BYTE   Cs3  v016
 BYTE   W12
 BYTE   Cs3  v104
 BYTE   W12
 BYTE   Cs3  v060
 BYTE   W12
 BYTE   PEND 
//  #11 //015   ----------------------------------------
 BYTE   PATT
  POIN2 Label_54782C
//  #11 //016   ----------------------------------------
 BYTE   PATT
  POIN2 Label_5477E5
//  #11 //017   ----------------------------------------
 BYTE   PATT
  POIN2 Label_547747
//  #11 //018   ----------------------------------------
 BYTE   N44  Gs0  v032
 BYTE   W48
 BYTE   N22  Ds1
 BYTE   W24
 BYTE   Gs1
 BYTE   W24
//  #11 //019   ----------------------------------------
 BYTE   N24  As1
 BYTE   W24
 BYTE   N52  As0
 BYTE   W60
 BYTE   N05  Cn1
 BYTE   W06
 BYTE   Dn1
 BYTE   W06
//  #11 //020   ----------------------------------------
Label_547869:
 BYTE   N48  Ds1  v032
 BYTE   W48
 BYTE   N24  As0
 BYTE   W24
 BYTE   N23  Ds1
 BYTE   W24
 BYTE   PEND 
//  #11 //021   ----------------------------------------
 BYTE   N48  Fn1
 BYTE   W48
 BYTE   N23  Cn1
 BYTE   W24
 BYTE   An0
 BYTE   W24
//  #11 //022   ----------------------------------------
 BYTE   N68  Gs0
 BYTE   W72
 BYTE   N23  Ds1
 BYTE   W24
//  #11 //023   ----------------------------------------
 BYTE   N24  As0
 BYTE   W24
 BYTE   Fn1
 BYTE   W24
 BYTE   Cn2
 BYTE   W24
 BYTE   N23  As1
 BYTE   W24
//  #11 //024   ----------------------------------------
 BYTE   N48  An1
 BYTE   W48
 BYTE   N44  An0
 BYTE   W48
//  #11 //025   ----------------------------------------
 BYTE   N24  Fn1
 BYTE   W24
 BYTE   Ds1
 BYTE   W24
 BYTE   Cn1
 BYTE   W24
 BYTE   N23  An0
 BYTE   W24
//  #11 //026   ----------------------------------------
 BYTE   N76  Gs0
 BYTE   W84
 BYTE   N05  As0
 BYTE   W06
 BYTE   Cn1
 BYTE   W06
//  #11 //027   ----------------------------------------
 BYTE   N44  As0
 BYTE   W48
 BYTE   N23  Cn1
 BYTE   W24
 BYTE   Dn1
 BYTE   W24
//  #11 //028   ----------------------------------------
 BYTE   PATT
  POIN2 Label_547869
//  #11 //029   ----------------------------------------
 BYTE   N48  Fn1  v032
 BYTE   W48
 BYTE   N44  Fn0
 BYTE   W48
//  #11 //030   ----------------------------------------
 BYTE   Gs0
 BYTE   W48
 BYTE   N23  Ds1
 BYTE   W24
 BYTE   N44  Gs1
 BYTE   W24
//  #11 //031   ----------------------------------------
 BYTE   W24
 BYTE   N48  Gs0
 BYTE   W48
 BYTE   N23  Cn1
 BYTE   W24
//  #11 //032   ----------------------------------------
 BYTE   N24  As2  v060
 BYTE   W24
 BYTE   N24
 BYTE   W24
 BYTE   N24
 BYTE   W24
 BYTE   N23
 BYTE   W24
//  #11 //033   ----------------------------------------
 BYTE   N24  Bn2
 BYTE   W24
 BYTE   N24
 BYTE   W24
 BYTE   Gn2
 BYTE   W24
 BYTE   N23  Bn2
 BYTE   W24
//  #11 //034   ----------------------------------------
Label_5478DB:
 BYTE   N11  Cn3  v104
 BYTE   W12
 BYTE   Cn3  v060
 BYTE   W12
 BYTE   Cn3  v016
 BYTE   W12
 BYTE   As2  v104
 BYTE   W12
 BYTE   As2  v060
 BYTE   W12
 BYTE   As2  v016
 BYTE   W12
 BYTE   Gs2  v104
 BYTE   W12
 BYTE   Gs2  v060
 BYTE   W12
 BYTE   PEND 
//  #11 //035   ----------------------------------------
 BYTE   PATT
  POIN2 Label_547795
//  #11 //036   ----------------------------------------
 BYTE   PATT
  POIN2 Label_5478DB
//  #11 //037   ----------------------------------------
 BYTE   PATT
  POIN2 Label_547795
//  #11 //038   ----------------------------------------
 BYTE   PATT
  POIN2 Label_547747
//  #11 //039   ----------------------------------------
 BYTE   N11  Gn2  v104
 BYTE   W12
 BYTE   Gn2  v060
 BYTE   W12
 BYTE   Gn2  v016
 BYTE   W12
 BYTE   Gn2  v104
 BYTE   W12
 BYTE   Gn2  v060
 BYTE   W12
 BYTE   Gn2  v016
 BYTE   W12
 BYTE   Gn2  v104
 BYTE   W12
 BYTE   Gn2  v060
 BYTE   W11
 BYTE   GoTo
  POIN2 Label_547761
 BYTE   FINE

//**************** Track 12 (Midi-Chn.11) ****************//

FE11EndlessBattleREALxViPerZ_012:
//  #12 //000   ----------------------------------------
 BYTE   KEYSH   FE11EndlessBattleREALxViPerZ_key+0
 BYTE   VOICE   10
 BYTE   MODT 0
 BYTE   LFOS 44
 BYTE   VOL   47*FE11EndlessBattleREALxViPerZ_mvl/mxv
 BYTE   PAN   c_v+0
 BYTE   BEND   c_v+0
 BYTE   W96
//  #12 //001   ----------------------------------------
 BYTE   W96
//  #12 //002   ----------------------------------------
Label_547024:
 BYTE   VOL   47*FE11EndlessBattleREALxViPerZ_mvl/mxv
 BYTE   W96
//  #12 //003   ----------------------------------------
 BYTE   W96
//  #12 //004   ----------------------------------------
 BYTE   W96
//  #12 //005   ----------------------------------------
 BYTE   W96
//  #12 //006   ----------------------------------------
 BYTE   W96
//  #12 //007   ----------------------------------------
 BYTE   W96
//  #12 //008   ----------------------------------------
 BYTE   W96
//  #12 //009   ----------------------------------------
 BYTE   W96
//  #12 //010   ----------------------------------------
 BYTE   W96
//  #12 //011   ----------------------------------------
 BYTE   W96
//  #12 //012   ----------------------------------------
 BYTE   W96
//  #12 //013   ----------------------------------------
 BYTE   W96
//  #12 //014   ----------------------------------------
 BYTE   W96
//  #12 //015   ----------------------------------------
 BYTE   W96
//  #12 //016   ----------------------------------------
 BYTE   W96
//  #12 //017   ----------------------------------------
 BYTE   W60
 BYTE   VOL   35*FE11EndlessBattleREALxViPerZ_mvl/mxv
 BYTE   W32
 BYTE   W01
 BYTE   VOL   35*FE11EndlessBattleREALxViPerZ_mvl/mxv
 BYTE   W03
//  #12 //018   ----------------------------------------
 BYTE   N23  DsM1  v028
 BYTE   N23  Gn2
 BYTE   N23  As5
 BYTE   W05
 BYTE   VOL   36*FE11EndlessBattleREALxViPerZ_mvl/mxv
 BYTE   W04
 BYTE   VOL   36*FE11EndlessBattleREALxViPerZ_mvl/mxv
 BYTE   W03
 BYTE   VOL   36*FE11EndlessBattleREALxViPerZ_mvl/mxv
 BYTE   W04
 BYTE   VOL   36*FE11EndlessBattleREALxViPerZ_mvl/mxv
 BYTE   W04
 BYTE   VOL   36*FE11EndlessBattleREALxViPerZ_mvl/mxv
 BYTE   W04
 BYTE   VOL   37*FE11EndlessBattleREALxViPerZ_mvl/mxv
 BYTE   N23  GnM1
 BYTE   N23  Gs2
 BYTE   N23  Cn6
 BYTE   W04
 BYTE   VOL   38*FE11EndlessBattleREALxViPerZ_mvl/mxv
 BYTE   W04
 BYTE   VOL   38*FE11EndlessBattleREALxViPerZ_mvl/mxv
 BYTE   W04
 BYTE   VOL   38*FE11EndlessBattleREALxViPerZ_mvl/mxv
 BYTE   W04
 BYTE   VOL   38*FE11EndlessBattleREALxViPerZ_mvl/mxv
 BYTE   W03
 BYTE   VOL   38*FE11EndlessBattleREALxViPerZ_mvl/mxv
 BYTE   W04
 BYTE   VOL   39*FE11EndlessBattleREALxViPerZ_mvl/mxv
 BYTE   W01
 BYTE   N23  GnM1
 BYTE   N23  Cn3
 BYTE   N23  Ds6
 BYTE   W03
 BYTE   VOL   39*FE11EndlessBattleREALxViPerZ_mvl/mxv
 BYTE   W04
 BYTE   VOL   39*FE11EndlessBattleREALxViPerZ_mvl/mxv
 BYTE   W04
 BYTE   VOL   39*FE11EndlessBattleREALxViPerZ_mvl/mxv
 BYTE   W04
 BYTE   VOL   39*FE11EndlessBattleREALxViPerZ_mvl/mxv
 BYTE   W04
 BYTE   VOL   40*FE11EndlessBattleREALxViPerZ_mvl/mxv
 BYTE   W03
 BYTE   VOL   41*FE11EndlessBattleREALxViPerZ_mvl/mxv
 BYTE   W02
 BYTE   N23  Cn0
 BYTE   N23  Ds3
 BYTE   N23  Gn6
 BYTE   W02
 BYTE   VOL   41*FE11EndlessBattleREALxViPerZ_mvl/mxv
 BYTE   W04
 BYTE   VOL   41*FE11EndlessBattleREALxViPerZ_mvl/mxv
 BYTE   W04
 BYTE   VOL   42*FE11EndlessBattleREALxViPerZ_mvl/mxv
 BYTE   W04
 BYTE   VOL   42*FE11EndlessBattleREALxViPerZ_mvl/mxv
 BYTE   W04
 BYTE   VOL   42*FE11EndlessBattleREALxViPerZ_mvl/mxv
 BYTE   W04
 BYTE   VOL   43*FE11EndlessBattleREALxViPerZ_mvl/mxv
 BYTE   W02
//  #12 //019   ----------------------------------------
 BYTE   N44  Dn0
 BYTE   N23  Fn3
 BYTE   N44  As6
 BYTE   W04
 BYTE   VOL   43*FE11EndlessBattleREALxViPerZ_mvl/mxv
 BYTE   W06
 BYTE   VOL   42*FE11EndlessBattleREALxViPerZ_mvl/mxv
 BYTE   W07
 BYTE   VOL   42*FE11EndlessBattleREALxViPerZ_mvl/mxv
 BYTE   W06
 BYTE   VOL   42*FE11EndlessBattleREALxViPerZ_mvl/mxv
 BYTE   W01
 BYTE   N23  Gn3
 BYTE   W05
 BYTE   VOL   41*FE11EndlessBattleREALxViPerZ_mvl/mxv
 BYTE   W06
 BYTE   VOL   41*FE11EndlessBattleREALxViPerZ_mvl/mxv
 BYTE   W07
 BYTE   VOL   41*FE11EndlessBattleREALxViPerZ_mvl/mxv
 BYTE   W06
 BYTE   VOL   40*FE11EndlessBattleREALxViPerZ_mvl/mxv
 BYTE   N23  FnM1
 BYTE   N23  As2
 BYTE   N44  Fn6
 BYTE   W24
 BYTE   N23  AsM1
 BYTE   N23  Dn3
 BYTE   W24
//  #12 //020   ----------------------------------------
 BYTE   GnM1
 BYTE   N23  As2
 BYTE   N44  Ds6
 BYTE   W24
 BYTE   N23  FnM1
 BYTE   N80  Gn2
 BYTE   W24
 BYTE   N54  DsM1
 BYTE   N56  As5
 BYTE   W05
 BYTE   VOL   40*FE11EndlessBattleREALxViPerZ_mvl/mxv
 BYTE   W03
 BYTE   VOL   39*FE11EndlessBattleREALxViPerZ_mvl/mxv
 BYTE   W03
 BYTE   VOL   39*FE11EndlessBattleREALxViPerZ_mvl/mxv
 BYTE   W03
 BYTE   VOL   39*FE11EndlessBattleREALxViPerZ_mvl/mxv
 BYTE   W03
 BYTE   VOL   38*FE11EndlessBattleREALxViPerZ_mvl/mxv
 BYTE   W03
 BYTE   VOL   38*FE11EndlessBattleREALxViPerZ_mvl/mxv
 BYTE   W03
 BYTE   VOL   37*FE11EndlessBattleREALxViPerZ_mvl/mxv
 BYTE   W03
 BYTE   VOL   36*FE11EndlessBattleREALxViPerZ_mvl/mxv
 BYTE   W03
 BYTE   VOL   36*FE11EndlessBattleREALxViPerZ_mvl/mxv
 BYTE   W03
 BYTE   VOL   35*FE11EndlessBattleREALxViPerZ_mvl/mxv
 BYTE   W03
 BYTE   VOL   34*FE11EndlessBattleREALxViPerZ_mvl/mxv
 BYTE   W03
 BYTE   VOL   34*FE11EndlessBattleREALxViPerZ_mvl/mxv
 BYTE   W01
 BYTE   VOL   34*FE11EndlessBattleREALxViPerZ_mvl/mxv
 BYTE   W02
 BYTE   VOL   33*FE11EndlessBattleREALxViPerZ_mvl/mxv
 BYTE   W01
 BYTE   VOL   32*FE11EndlessBattleREALxViPerZ_mvl/mxv
 BYTE   W02
 BYTE   VOL   31*FE11EndlessBattleREALxViPerZ_mvl/mxv
 BYTE   W01
 BYTE   VOL   31*FE11EndlessBattleREALxViPerZ_mvl/mxv
 BYTE   W02
 BYTE   VOL   31*FE11EndlessBattleREALxViPerZ_mvl/mxv
 BYTE   W01
//  #12 //021   ----------------------------------------
 BYTE   VOL   30*FE11EndlessBattleREALxViPerZ_mvl/mxv
 BYTE   W02
 BYTE   VOL   29*FE11EndlessBattleREALxViPerZ_mvl/mxv
 BYTE   W01
 BYTE   VOL   29*FE11EndlessBattleREALxViPerZ_mvl/mxv
 BYTE   W02
 BYTE   VOL   29*FE11EndlessBattleREALxViPerZ_mvl/mxv
 BYTE   W01
 BYTE   VOL   29*FE11EndlessBattleREALxViPerZ_mvl/mxv
 BYTE   W02
 BYTE   VOL   28*FE11EndlessBattleREALxViPerZ_mvl/mxv
 BYTE   W01
 BYTE   VOL   28*FE11EndlessBattleREALxViPerZ_mvl/mxv
 BYTE   W01
 BYTE   VOL   28*FE11EndlessBattleREALxViPerZ_mvl/mxv
 BYTE   W01
 BYTE   VOL   29*FE11EndlessBattleREALxViPerZ_mvl/mxv
 BYTE   W01
 BYTE   VOL   29*FE11EndlessBattleREALxViPerZ_mvl/mxv
 BYTE   W01
 BYTE   VOL   29*FE11EndlessBattleREALxViPerZ_mvl/mxv
 BYTE   W01
 BYTE   VOL   30*FE11EndlessBattleREALxViPerZ_mvl/mxv
 BYTE   W01
 BYTE   VOL   31*FE11EndlessBattleREALxViPerZ_mvl/mxv
 BYTE   W01
 BYTE   VOL   31*FE11EndlessBattleREALxViPerZ_mvl/mxv
 BYTE   W01
 BYTE   VOL   32*FE11EndlessBattleREALxViPerZ_mvl/mxv
 BYTE   W01
 BYTE   VOL   34*FE11EndlessBattleREALxViPerZ_mvl/mxv
 BYTE   W01
 BYTE   VOL   34*FE11EndlessBattleREALxViPerZ_mvl/mxv
 BYTE   W01
 BYTE   VOL   36*FE11EndlessBattleREALxViPerZ_mvl/mxv
 BYTE   W01
 BYTE   VOL   36*FE11EndlessBattleREALxViPerZ_mvl/mxv
 BYTE   W01
 BYTE   VOL   38*FE11EndlessBattleREALxViPerZ_mvl/mxv
 BYTE   W01
 BYTE   VOL   40*FE11EndlessBattleREALxViPerZ_mvl/mxv
 BYTE   W01
 BYTE   VOL   42*FE11EndlessBattleREALxViPerZ_mvl/mxv
 BYTE   N23  CnM1
 BYTE   N23  Fn2
 BYTE   N23  An5
 BYTE   W24
 BYTE   FnM1
 BYTE   N23  An2
 BYTE   N23  Cn6
 BYTE   W24
 BYTE   AnM1
 BYTE   N23  Ds3
 BYTE   N44  Fn6
 BYTE   W24
//  #12 //022   ----------------------------------------
 BYTE   GsM1
 BYTE   N44  Cn3
 BYTE   W24
 BYTE   N23  Gn6
 BYTE   W24
 BYTE   FnM1
 BYTE   N44  As2
 BYTE   N23  Dn6
 BYTE   W24
 BYTE   GnM1
 BYTE   N23  Ds6
 BYTE   W24
//  #12 //023   ----------------------------------------
 BYTE   N44  GsM1
 BYTE   N22  Dn3
 BYTE   N44  Fn6
 BYTE   W24
 BYTE   N22  Cn3
 BYTE   W24
 BYTE   N44  FnM1
 BYTE   N44  As2
 BYTE   N44  Dn6
 BYTE   W48
//  #12 //024   ----------------------------------------
 BYTE   FnM1
 BYTE   N23  Gn2
 BYTE   N44  Cn6
 BYTE   W24
 BYTE   N23  An2
 BYTE   W24
 BYTE   AnM1
 BYTE   N23  Cn3
 BYTE   N23  Fn6
 BYTE   W24
 BYTE   Cn0
 BYTE   N23  Ds3
 BYTE   N23  Gn6
 BYTE   W24
//  #12 //025   ----------------------------------------
 BYTE   N44  Ds0
 BYTE   N23  Fn3
 BYTE   N23  An6
 BYTE   W24
 BYTE   An3
 BYTE   N23  Cn7
 BYTE   W24
 BYTE   N44  AnM1
 BYTE   N44  Cn3
 BYTE   N23  Fn6
 BYTE   W48
//  #12 //026   ----------------------------------------
 BYTE   N92  GsM1
 BYTE   W96
//  #12 //027   ----------------------------------------
 BYTE   AsM1
 BYTE   W96
//  #12 //028   ----------------------------------------
 BYTE   DsM1
 BYTE   W96
//  #12 //029   ----------------------------------------
 BYTE   FnM1
 BYTE   W96
//  #12 //030   ----------------------------------------
 BYTE   GsM1
 BYTE   W96
//  #12 //031   ----------------------------------------
 BYTE   Cn0
 BYTE   W96
//  #12 //032   ----------------------------------------
 BYTE   AsM1
 BYTE   W96
//  #12 //033   ----------------------------------------
 BYTE   GnM1
 BYTE   W96
//  #12 //034   ----------------------------------------
 BYTE   N32  Ds3  v024
 BYTE   N32  Gn6  v028
 BYTE   W02
 BYTE   VOL   42*FE11EndlessBattleREALxViPerZ_mvl/mxv
 BYTE   W03
 BYTE   VOL   42*FE11EndlessBattleREALxViPerZ_mvl/mxv
 BYTE   W03
 BYTE   VOL   41*FE11EndlessBattleREALxViPerZ_mvl/mxv
 BYTE   W03
 BYTE   VOL   41*FE11EndlessBattleREALxViPerZ_mvl/mxv
 BYTE   W03
 BYTE   VOL   39*FE11EndlessBattleREALxViPerZ_mvl/mxv
 BYTE   W03
 BYTE   VOL   39*FE11EndlessBattleREALxViPerZ_mvl/mxv
 BYTE   W02
 BYTE   VOL   39*FE11EndlessBattleREALxViPerZ_mvl/mxv
 BYTE   W08
 BYTE   VOL   39*FE11EndlessBattleREALxViPerZ_mvl/mxv
 BYTE   W04
 BYTE   VOL   39*FE11EndlessBattleREALxViPerZ_mvl/mxv
 BYTE   W04
 BYTE   VOL   39*FE11EndlessBattleREALxViPerZ_mvl/mxv
 BYTE   W01
 BYTE   N32  Gn3  v024
 BYTE   N32  As6  v028
 BYTE   W02
 BYTE   VOL   40*FE11EndlessBattleREALxViPerZ_mvl/mxv
 BYTE   W04
 BYTE   VOL   41*FE11EndlessBattleREALxViPerZ_mvl/mxv
 BYTE   W04
 BYTE   VOL   41*FE11EndlessBattleREALxViPerZ_mvl/mxv
 BYTE   W04
 BYTE   VOL   41*FE11EndlessBattleREALxViPerZ_mvl/mxv
 BYTE   W04
 BYTE   VOL   42*FE11EndlessBattleREALxViPerZ_mvl/mxv
 BYTE   W04
 BYTE   VOL   42*FE11EndlessBattleREALxViPerZ_mvl/mxv
 BYTE   W08
 BYTE   VOL   42*FE11EndlessBattleREALxViPerZ_mvl/mxv
 BYTE   W06
 BYTE   N44  Ds3  v024
 BYTE   N44  Gn6  v028
 BYTE   W03
 BYTE   VOL   42*FE11EndlessBattleREALxViPerZ_mvl/mxv
 BYTE   W08
 BYTE   VOL   41*FE11EndlessBattleREALxViPerZ_mvl/mxv
 BYTE   W09
 BYTE   VOL   41*FE11EndlessBattleREALxViPerZ_mvl/mxv
 BYTE   W04
//  #12 //035   ----------------------------------------
 BYTE   W05
 BYTE   VOL   41*FE11EndlessBattleREALxViPerZ_mvl/mxv
 BYTE   W08
 BYTE   VOL   40*FE11EndlessBattleREALxViPerZ_mvl/mxv
 BYTE   W09
 BYTE   VOL   39*FE11EndlessBattleREALxViPerZ_mvl/mxv
 BYTE   W02
 BYTE   N23  Cn3  v024
 BYTE   N23  Fn6  v028
 BYTE   W07
 BYTE   VOL   39*FE11EndlessBattleREALxViPerZ_mvl/mxv
 BYTE   W08
 BYTE   VOL   39*FE11EndlessBattleREALxViPerZ_mvl/mxv
 BYTE   W09
 BYTE   VOL   39*FE11EndlessBattleREALxViPerZ_mvl/mxv
 BYTE   N23  As2  v024
 BYTE   N23  Ds6  v028
 BYTE   W08
 BYTE   VOL   39*FE11EndlessBattleREALxViPerZ_mvl/mxv
 BYTE   W09
 BYTE   VOL   38*FE11EndlessBattleREALxViPerZ_mvl/mxv
 BYTE   W07
 BYTE   N23  Gs2  v024
 BYTE   N23  Cn6  v028
 BYTE   W02
 BYTE   VOL   38*FE11EndlessBattleREALxViPerZ_mvl/mxv
 BYTE   W08
 BYTE   VOL   38*FE11EndlessBattleREALxViPerZ_mvl/mxv
 BYTE   W09
 BYTE   VOL   38*FE11EndlessBattleREALxViPerZ_mvl/mxv
 BYTE   W05
//  #12 //036   ----------------------------------------
 BYTE   N32  As2  v024
 BYTE   N32  Ds6  v028
 BYTE   W04
 BYTE   VOL   38*FE11EndlessBattleREALxViPerZ_mvl/mxv
 BYTE   W03
 BYTE   VOL   38*FE11EndlessBattleREALxViPerZ_mvl/mxv
 BYTE   W03
 BYTE   VOL   38*FE11EndlessBattleREALxViPerZ_mvl/mxv
 BYTE   W04
 BYTE   VOL   38*FE11EndlessBattleREALxViPerZ_mvl/mxv
 BYTE   W03
 BYTE   VOL   38*FE11EndlessBattleREALxViPerZ_mvl/mxv
 BYTE   W03
 BYTE   VOL   39*FE11EndlessBattleREALxViPerZ_mvl/mxv
 BYTE   W04
 BYTE   VOL   39*FE11EndlessBattleREALxViPerZ_mvl/mxv
 BYTE   W03
 BYTE   VOL   39*FE11EndlessBattleREALxViPerZ_mvl/mxv
 BYTE   W04
 BYTE   VOL   39*FE11EndlessBattleREALxViPerZ_mvl/mxv
 BYTE   W03
 BYTE   VOL   39*FE11EndlessBattleREALxViPerZ_mvl/mxv
 BYTE   W02
 BYTE   N32  Ds3  v024
 BYTE   N32  Gn6  v028
 BYTE   W01
 BYTE   VOL   40*FE11EndlessBattleREALxViPerZ_mvl/mxv
 BYTE   W04
 BYTE   VOL   41*FE11EndlessBattleREALxViPerZ_mvl/mxv
 BYTE   W03
 BYTE   VOL   41*FE11EndlessBattleREALxViPerZ_mvl/mxv
 BYTE   W03
 BYTE   VOL   41*FE11EndlessBattleREALxViPerZ_mvl/mxv
 BYTE   W04
 BYTE   VOL   42*FE11EndlessBattleREALxViPerZ_mvl/mxv
 BYTE   W03
 BYTE   VOL   42*FE11EndlessBattleREALxViPerZ_mvl/mxv
 BYTE   W04
 BYTE   VOL   42*FE11EndlessBattleREALxViPerZ_mvl/mxv
 BYTE   W14
 BYTE   N32  Fn3  v024
 BYTE   N32  As6  v028
 BYTE   W24
//  #12 //037   ----------------------------------------
 BYTE   W01
 BYTE   VOL   42*FE11EndlessBattleREALxViPerZ_mvl/mxv
 BYTE   W06
 BYTE   VOL   42*FE11EndlessBattleREALxViPerZ_mvl/mxv
 BYTE   W03
 BYTE   VOL   42*FE11EndlessBattleREALxViPerZ_mvl/mxv
 BYTE   W02
 BYTE   N80  Ds3  v024
 BYTE   N80  Gs6  v028
 BYTE   W01
 BYTE   VOL   41*FE11EndlessBattleREALxViPerZ_mvl/mxv
 BYTE   W04
 BYTE   VOL   41*FE11EndlessBattleREALxViPerZ_mvl/mxv
 BYTE   W03
 BYTE   VOL   41*FE11EndlessBattleREALxViPerZ_mvl/mxv
 BYTE   W03
 BYTE   VOL   40*FE11EndlessBattleREALxViPerZ_mvl/mxv
 BYTE   W03
 BYTE   VOL   39*FE11EndlessBattleREALxViPerZ_mvl/mxv
 BYTE   W03
 BYTE   VOL   39*FE11EndlessBattleREALxViPerZ_mvl/mxv
 BYTE   W03
 BYTE   VOL   39*FE11EndlessBattleREALxViPerZ_mvl/mxv
 BYTE   W03
 BYTE   VOL   39*FE11EndlessBattleREALxViPerZ_mvl/mxv
 BYTE   W03
 BYTE   VOL   39*FE11EndlessBattleREALxViPerZ_mvl/mxv
 BYTE   W03
 BYTE   VOL   38*FE11EndlessBattleREALxViPerZ_mvl/mxv
 BYTE   W03
 BYTE   VOL   38*FE11EndlessBattleREALxViPerZ_mvl/mxv
 BYTE   W03
 BYTE   VOL   38*FE11EndlessBattleREALxViPerZ_mvl/mxv
 BYTE   W03
 BYTE   VOL   38*FE11EndlessBattleREALxViPerZ_mvl/mxv
 BYTE   W03
 BYTE   VOL   38*FE11EndlessBattleREALxViPerZ_mvl/mxv
 BYTE   W03
 BYTE   VOL   36*FE11EndlessBattleREALxViPerZ_mvl/mxv
 BYTE   W02
 BYTE   VOL   36*FE11EndlessBattleREALxViPerZ_mvl/mxv
 BYTE   W01
 BYTE   VOL   36*FE11EndlessBattleREALxViPerZ_mvl/mxv
 BYTE   W02
 BYTE   VOL   35*FE11EndlessBattleREALxViPerZ_mvl/mxv
 BYTE   W01
 BYTE   VOL   34*FE11EndlessBattleREALxViPerZ_mvl/mxv
 BYTE   W02
 BYTE   VOL   34*FE11EndlessBattleREALxViPerZ_mvl/mxv
 BYTE   W01
 BYTE   VOL   34*FE11EndlessBattleREALxViPerZ_mvl/mxv
 BYTE   W02
 BYTE   VOL   34*FE11EndlessBattleREALxViPerZ_mvl/mxv
 BYTE   W01
 BYTE   VOL   33*FE11EndlessBattleREALxViPerZ_mvl/mxv
 BYTE   W02
 BYTE   VOL   32*FE11EndlessBattleREALxViPerZ_mvl/mxv
 BYTE   W01
 BYTE   VOL   32*FE11EndlessBattleREALxViPerZ_mvl/mxv
 BYTE   W02
 BYTE   VOL   32*FE11EndlessBattleREALxViPerZ_mvl/mxv
 BYTE   W01
 BYTE   VOL   31*FE11EndlessBattleREALxViPerZ_mvl/mxv
 BYTE   W02
 BYTE   VOL   31*FE11EndlessBattleREALxViPerZ_mvl/mxv
 BYTE   W01
 BYTE   VOL   31*FE11EndlessBattleREALxViPerZ_mvl/mxv
 BYTE   W02
 BYTE   VOL   31*FE11EndlessBattleREALxViPerZ_mvl/mxv
 BYTE   W01
 BYTE   VOL   30*FE11EndlessBattleREALxViPerZ_mvl/mxv
 BYTE   W02
 BYTE   VOL   30*FE11EndlessBattleREALxViPerZ_mvl/mxv
 BYTE   W01
 BYTE   VOL   30*FE11EndlessBattleREALxViPerZ_mvl/mxv
 BYTE   W02
 BYTE   VOL   29*FE11EndlessBattleREALxViPerZ_mvl/mxv
 BYTE   W01
 BYTE   VOL   29*FE11EndlessBattleREALxViPerZ_mvl/mxv
 BYTE   W02
 BYTE   VOL   29*FE11EndlessBattleREALxViPerZ_mvl/mxv
 BYTE   W01
 BYTE   VOL   29*FE11EndlessBattleREALxViPerZ_mvl/mxv
 BYTE   W02
 BYTE   VOL   29*FE11EndlessBattleREALxViPerZ_mvl/mxv
 BYTE   W01
 BYTE   VOL   29*FE11EndlessBattleREALxViPerZ_mvl/mxv
 BYTE   W02
 BYTE   VOL   29*FE11EndlessBattleREALxViPerZ_mvl/mxv
 BYTE   W01
 BYTE   VOL   28*FE11EndlessBattleREALxViPerZ_mvl/mxv
 BYTE   W01
//  #12 //038   ----------------------------------------
 BYTE   W96
//  #12 //039   ----------------------------------------
 BYTE   W92
 BYTE   W03
 BYTE   GoTo
  POIN2 Label_547024
 BYTE   FINE

//**************** Track 13 (Midi-Chn.12) ****************//

FE11EndlessBattleREALxViPerZ_013:
//  #13 //000   ----------------------------------------
 BYTE   KEYSH   FE11EndlessBattleREALxViPerZ_key+0
 BYTE   VOICE   4
 BYTE   MODT 0
 BYTE   LFOS 44
 BYTE   VOL   80*FE11EndlessBattleREALxViPerZ_mvl/mxv
 BYTE   PAN   c_v+19
 BYTE   BEND   c_v+0
 BYTE   N32  Gn1  v100
 BYTE   W36
 BYTE   Gn1  v048
 BYTE   W36
 BYTE   N23  Gn1  v100
 BYTE   W24
//  #13 //001   ----------------------------------------
 BYTE   N32
 BYTE   W36
 BYTE   Gn1  v048
 BYTE   W36
 BYTE   N11  Gn1  v100
 BYTE   W12
 BYTE   N03  Gn1  v044
 BYTE   W04
 BYTE   Gn1  v056
 BYTE   W04
 BYTE   Gn1  v076
 BYTE   W04
//  #13 //002   ----------------------------------------
Label_546E78:
 BYTE   N32  Cn2  v064
 BYTE   W36
 BYTE   N56  Cn2  v056
 BYTE   W60
 BYTE   PEND 
//  #13 //003   ----------------------------------------
Label_546E81:
 BYTE   N32  As1  v064
 BYTE   W36
 BYTE   N56  As1  v056
 BYTE   W60
 BYTE   PEND 
//  #13 //004   ----------------------------------------
Label_546E8A:
 BYTE   N32  Gs1  v064
 BYTE   W36
 BYTE   N56  Gs1  v056
 BYTE   W60
 BYTE   PEND 
//  #13 //005   ----------------------------------------
Label_546E93:
 BYTE   N32  Gn1  v064
 BYTE   W36
 BYTE   N56  Gn1  v056
 BYTE   W60
 BYTE   PEND 
//  #13 //006   ----------------------------------------
 BYTE   N32  Fn1  v064
 BYTE   W36
 BYTE   N56  Fn1  v056
 BYTE   W60
//  #13 //007   ----------------------------------------
 BYTE   N32  Ds1  v064
 BYTE   W36
 BYTE   N56  Ds1  v056
 BYTE   W60
//  #13 //008   ----------------------------------------
Label_546EAC:
 BYTE   N32  Dn2  v064
 BYTE   W36
 BYTE   N56  Dn2  v056
 BYTE   W60
 BYTE   PEND 
//  #13 //009   ----------------------------------------
 BYTE   PATT
  POIN2 Label_546E93
//  #13 //010   ----------------------------------------
 BYTE   PATT
  POIN2 Label_546E78
//  #13 //011   ----------------------------------------
 BYTE   PATT
  POIN2 Label_546E81
//  #13 //012   ----------------------------------------
 BYTE   N32  An1  v064
 BYTE   W36
 BYTE   N56  An1  v056
 BYTE   W60
//  #13 //013   ----------------------------------------
 BYTE   PATT
  POIN2 Label_546E8A
//  #13 //014   ----------------------------------------
Label_546ED1:
 BYTE   N32  Cs2  v064
 BYTE   W36
 BYTE   N56  Cs2  v056
 BYTE   W60
 BYTE   PEND 
//  #13 //015   ----------------------------------------
 BYTE   PATT
  POIN2 Label_546ED1
//  #13 //016   ----------------------------------------
 BYTE   PATT
  POIN2 Label_546EAC
//  #13 //017   ----------------------------------------
 BYTE   PATT
  POIN2 Label_546E93
//  #13 //018   ----------------------------------------
 BYTE   N92  Gs1  v052
 BYTE   W96
//  #13 //019   ----------------------------------------
 BYTE   As1
 BYTE   W96
//  #13 //020   ----------------------------------------
 BYTE   Ds1
 BYTE   W96
//  #13 //021   ----------------------------------------
 BYTE   Fn1
 BYTE   W96
//  #13 //022   ----------------------------------------
 BYTE   Gs1
 BYTE   W96
//  #13 //023   ----------------------------------------
 BYTE   As1
 BYTE   W96
//  #13 //024   ----------------------------------------
 BYTE   An1
 BYTE   W96
//  #13 //025   ----------------------------------------
 BYTE   N92
 BYTE   W96
//  #13 //026   ----------------------------------------
 BYTE   Gs1
 BYTE   W96
//  #13 //027   ----------------------------------------
 BYTE   As1
 BYTE   W96
//  #13 //028   ----------------------------------------
 BYTE   Ds1
 BYTE   W96
//  #13 //029   ----------------------------------------
 BYTE   Fn1
 BYTE   W96
//  #13 //030   ----------------------------------------
 BYTE   Gs1
 BYTE   W96
//  #13 //031   ----------------------------------------
 BYTE   N92
 BYTE   W96
//  #13 //032   ----------------------------------------
 BYTE   N24  As1  v048
 BYTE   W24
 BYTE   As1  v044
 BYTE   W24
 BYTE   N24
 BYTE   W24
 BYTE   N23
 BYTE   W24
//  #13 //033   ----------------------------------------
 BYTE   N24  Bn1  v100
 BYTE   W24
 BYTE   Bn1  v044
 BYTE   W24
 BYTE   N24
 BYTE   W24
 BYTE   N23
 BYTE   W24
//  #13 //034   ----------------------------------------
 BYTE   N32  Cn4  v100
 BYTE   W36
 BYTE   As1  v076
 BYTE   W36
 BYTE   N92  Gs1
 BYTE   W24
//  #13 //035   ----------------------------------------
 BYTE   W72
 BYTE   N05  Gs1  v028
 BYTE   W06
 BYTE   Gs1  v048
 BYTE   W06
 BYTE   Gs1  v060
 BYTE   W06
 BYTE   Gs1  v100
 BYTE   W06
//  #13 //036   ----------------------------------------
 BYTE   N32  Cn4
 BYTE   W36
 BYTE   As1  v076
 BYTE   W36
 BYTE   N68  Gs1
 BYTE   W24
//  #13 //037   ----------------------------------------
 BYTE   W48
 BYTE   N24  Ds1  v080
 BYTE   W24
 BYTE   Gs1  v100
 BYTE   W24
//  #13 //038   ----------------------------------------
 BYTE   N32  Gn1
 BYTE   W36
 BYTE   Gn1  v048
 BYTE   W36
 BYTE   N23  Gn1  v100
 BYTE   W24
//  #13 //039   ----------------------------------------
 BYTE   N32
 BYTE   W36
 BYTE   Gn1  v048
 BYTE   W36
 BYTE   N11  Gn1  v100
 BYTE   W12
 BYTE   N03  Gn1  v044
 BYTE   W04
 BYTE   Gn1  v056
 BYTE   W04
 BYTE   Gn1  v076
 BYTE   W03
 BYTE   GoTo
  POIN2 Label_546E78
 BYTE   FINE

//**************** Track 14 (Midi-Chn.13) ****************//

FE11EndlessBattleREALxViPerZ_014:
//  #14 //000   ----------------------------------------
 BYTE   KEYSH   FE11EndlessBattleREALxViPerZ_key+0
 BYTE   VOICE   127
 BYTE   MODT 0
 BYTE   LFOS 44
 BYTE   VOL   80*FE11EndlessBattleREALxViPerZ_mvl/mxv
 BYTE   PAN   c_v+0
 BYTE   BEND   c_v+0
 BYTE   N05  Dn1  v088
 BYTE   N13  An2  v008
 BYTE   W06
 BYTE   N05  En1  v032
 BYTE   W06
 BYTE   Dn1  v064
 BYTE   W06
 BYTE   Dn1  v008
 BYTE   W06
 BYTE   Dn1  v004
 BYTE   W06
 BYTE   N05
 BYTE   W06
 BYTE   En1  v056
 BYTE   N13  An2  v008
 BYTE   W06
 BYTE   N05  Dn1  v024
 BYTE   W06
 BYTE   Dn1  v032
 BYTE   W06
 BYTE   En1  v016
 BYTE   W06
 BYTE   Dn1  v044
 BYTE   W06
 BYTE   Dn1  v008
 BYTE   W06
 BYTE   Dn1  v056
 BYTE   N13  An2  v008
 BYTE   W06
 BYTE   N05  Dn1  v004
 BYTE   W06
 BYTE   Dn1  v008
 BYTE   W06
 BYTE   N02  Dn1  v016
 BYTE   W03
 BYTE   En1  v028
 BYTE   W03
//  #14 //001   ----------------------------------------
 BYTE   N05  Dn1  v088
 BYTE   N13  An2  v016
 BYTE   W06
 BYTE   N05  En1  v032
 BYTE   W06
 BYTE   Dn1  v064
 BYTE   W06
 BYTE   Dn1  v008
 BYTE   W06
 BYTE   Dn1  v004
 BYTE   W06
 BYTE   N05
 BYTE   W06
 BYTE   En1  v052
 BYTE   N13  An2  v008
 BYTE   W06
 BYTE   N05  Dn1  v032
 BYTE   W06
 BYTE   Dn1  v056
 BYTE   W06
 BYTE   En1  v016
 BYTE   W06
 BYTE   Dn1  v064
 BYTE   W06
 BYTE   Dn1  v008
 BYTE   W06
 BYTE   N23  Fs1  v052
 BYTE   N13  An2  v008
 BYTE   W24
//  #14 //002   ----------------------------------------
Label_01C82769:
 BYTE   N05  Dn1  v088
 BYTE   N84  Cs2  v008
 BYTE   W06
 BYTE   N05  En1  v032
 BYTE   W06
 BYTE   Dn1  v064
 BYTE   W06
 BYTE   Dn1  v008
 BYTE   W06
 BYTE   Dn1  v004
 BYTE   W06
 BYTE   N05
 BYTE   W06
 BYTE   En1  v028
 BYTE   W06
 BYTE   Dn1  v032
 BYTE   W06
 BYTE   Dn1  v056
 BYTE   W06
 BYTE   En1  v016
 BYTE   W06
 BYTE   Dn1  v064
 BYTE   W06
 BYTE   Dn1  v008
 BYTE   W06
 BYTE   Dn1  v004
 BYTE   W06
 BYTE   N05
 BYTE   W12
 BYTE   N02  Dn1  v016
 BYTE   W03
 BYTE   En1  v028
 BYTE   W03
//  #14 //003   ----------------------------------------
Label_01C8279D:
 BYTE   N05  Dn1  v088
 BYTE   W06
 BYTE   En1  v032
 BYTE   W06
 BYTE   Dn1  v064
 BYTE   W06
 BYTE   Dn1  v008
 BYTE   W06
 BYTE   Dn1  v004
 BYTE   W06
 BYTE   N05
 BYTE   W06
 BYTE   En1  v028
 BYTE   W06
 BYTE   Dn1  v032
 BYTE   W06
 BYTE   Dn1  v056
 BYTE   W06
 BYTE   En1  v016
 BYTE   W06
 BYTE   Dn1  v064
 BYTE   W06
 BYTE   Dn1  v008
 BYTE   W06
 BYTE   N23  Fs1  v036
 BYTE   W24
 BYTE   PEND 
//  #14 //004   ----------------------------------------
Label_01C827C6:
 BYTE   N05  Dn1  v088
 BYTE   W06
 BYTE   En1  v032
 BYTE   W06
 BYTE   Dn1  v064
 BYTE   W06
 BYTE   Dn1  v008
 BYTE   W06
 BYTE   Dn1  v004
 BYTE   W06
 BYTE   N05
 BYTE   W06
 BYTE   En1  v028
 BYTE   W06
 BYTE   Dn1  v032
 BYTE   W06
 BYTE   Dn1  v056
 BYTE   W06
 BYTE   En1  v016
 BYTE   W06
 BYTE   Dn1  v064
 BYTE   W06
 BYTE   Dn1  v008
 BYTE   W06
 BYTE   Dn1  v004
 BYTE   W06
 BYTE   N05
 BYTE   W12
 BYTE   N02  Dn1  v016
 BYTE   W03
 BYTE   En1  v028
 BYTE   W03
 BYTE   PEND 
//  #14 //005   ----------------------------------------
 BYTE   PATT
  POIN2 Label_01C8279D
//  #14 //006   ----------------------------------------
 BYTE   PATT
  POIN2 Label_01C827C6
//  #14 //007   ----------------------------------------
 BYTE   PATT
  POIN2 Label_01C8279D
//  #14 //008   ----------------------------------------
 BYTE   PATT
  POIN2 Label_01C827C6
//  #14 //009   ----------------------------------------
 BYTE   PATT
  POIN2 Label_01C8279D
//  #14 //010   ----------------------------------------
 BYTE   N05  Dn1  v088
 BYTE   N84  Cs2  v004
 BYTE   W06
 BYTE   N05  En1  v032
 BYTE   W06
 BYTE   Dn1  v064
 BYTE   W06
 BYTE   Dn1  v008
 BYTE   W06
 BYTE   Dn1  v004
 BYTE   W06
 BYTE   N05
 BYTE   W06
 BYTE   En1  v028
 BYTE   W06
 BYTE   Dn1  v032
 BYTE   W06
 BYTE   Dn1  v056
 BYTE   W06
 BYTE   En1  v016
 BYTE   W06
 BYTE   Dn1  v064
 BYTE   W06
 BYTE   Dn1  v008
 BYTE   W06
 BYTE   Dn1  v004
 BYTE   W06
 BYTE   N05
 BYTE   W12
 BYTE   N02  Dn1  v016
 BYTE   W03
 BYTE   En1  v028
 BYTE   W03
//  #14 //011   ----------------------------------------
 BYTE   PATT
  POIN2 Label_01C8279D
//  #14 //012   ----------------------------------------
 BYTE   PATT
  POIN2 Label_01C827C6
//  #14 //013   ----------------------------------------
 BYTE   PATT
  POIN2 Label_01C8279D
//  #14 //014   ----------------------------------------
 BYTE   PATT
  POIN2 Label_01C827C6
//  #14 //015   ----------------------------------------
 BYTE   PATT
  POIN2 Label_01C8279D
//  #14 //016   ----------------------------------------
 BYTE   PATT
  POIN2 Label_01C827C6
//  #14 //017   ----------------------------------------
 BYTE   PATT
  POIN2 Label_01C8279D
//  #14 //018   ----------------------------------------
Label_01C82867:
 BYTE   N15  En1  v064
 BYTE   N12  An2  v004
 BYTE   W16
 BYTE   N15  En1  v024
 BYTE   W16
 BYTE   En1  v012
 BYTE   W16
 BYTE   En1  v008
 BYTE   N12  An2  v004
 BYTE   W16
 BYTE   N15  En1
 BYTE   W16
 BYTE   N15
 BYTE   W16
 BYTE   PEND 
//  #14 //019   ----------------------------------------
Label_01C82881:
 BYTE   N15  Dn1  v064
 BYTE   N12  An2  v004
 BYTE   W16
 BYTE   N15  Dn1  v024
 BYTE   W16
 BYTE   Dn1  v012
 BYTE   W16
 BYTE   Dn1  v008
 BYTE   N12  An2  v004
 BYTE   W16
 BYTE   N15  Dn1
 BYTE   W16
 BYTE   N15
 BYTE   W16
 BYTE   PEND 
//  #14 //020   ----------------------------------------
 BYTE   PATT
  POIN2 Label_01C82867
//  #14 //021   ----------------------------------------
 BYTE   PATT
  POIN2 Label_01C82881
//  #14 //022   ----------------------------------------
 BYTE   PATT
  POIN2 Label_01C82867
//  #14 //023   ----------------------------------------
 BYTE   PATT
  POIN2 Label_01C82881
//  #14 //024   ----------------------------------------
 BYTE   PATT
  POIN2 Label_01C82867
//  #14 //025   ----------------------------------------
 BYTE   N15  Dn1  v064
 BYTE   N12  An2  v004
 BYTE   W16
 BYTE   N15  Dn1  v024
 BYTE   W16
 BYTE   Dn1  v012
 BYTE   W16
 BYTE   Dn1  v008
 BYTE   N12  An2  v004
 BYTE   W24
 BYTE   N23  Fs1  v056
 BYTE   W08
 BYTE   N03  Fn2  v004
 BYTE   W04
 BYTE   Fn2  v008
 BYTE   W04
 BYTE   Fn2  v012
 BYTE   W04
 BYTE   Fn2  v016
 BYTE   W04
//  #14 //026   ----------------------------------------
 BYTE   N05  Dn1  v104
 BYTE   TIE  Fn2  v024
 BYTE   W06
 BYTE   N05  En1  v032
 BYTE   W06
 BYTE   Dn1  v080
 BYTE   W06
 BYTE   Dn1  v012
 BYTE   W06
 BYTE   Dn1  v004
 BYTE   W06
 BYTE   N05
 BYTE   W06
 BYTE   En1  v028
 BYTE   W06
 BYTE   Dn1  v048
 BYTE   W06
 BYTE   Dn1  v064
 BYTE   W06
 BYTE   En1  v016
 BYTE   W06
 BYTE   Dn1  v080
 BYTE   W06
 BYTE   Dn1  v012
 BYTE   W06
 BYTE   Dn1  v004
 BYTE   W06
 BYTE   N05
 BYTE   W12
 BYTE   N02  Dn1  v020
 BYTE   W03
 BYTE   En1  v028
 BYTE   W03
//  #14 //027   ----------------------------------------
 BYTE   N05  Dn1  v104
 BYTE   W02
 BYTE   EOT
 BYTE   Fn2
 BYTE   W04
 BYTE   N05  En1  v032
 BYTE   W06
 BYTE   Dn1  v080
 BYTE   W06
 BYTE   Dn1  v012
 BYTE   W06
 BYTE   Dn1  v004
 BYTE   W06
 BYTE   N05
 BYTE   W06
 BYTE   En1  v028
 BYTE   W06
 BYTE   Dn1  v048
 BYTE   W06
 BYTE   Dn1  v064
 BYTE   W06
 BYTE   En1  v016
 BYTE   W06
 BYTE   Dn1  v080
 BYTE   W06
 BYTE   Dn1  v012
 BYTE   W06
 BYTE   N23  Fs1  v052
 BYTE   W24
//  #14 //028   ----------------------------------------
Label_01C82939:
 BYTE   N05  Dn1  v104
 BYTE   W06
 BYTE   En1  v032
 BYTE   W06
 BYTE   Dn1  v080
 BYTE   W06
 BYTE   Dn1  v012
 BYTE   W06
 BYTE   Dn1  v004
 BYTE   W06
 BYTE   N05
 BYTE   W06
 BYTE   En1  v028
 BYTE   W06
 BYTE   Dn1  v048
 BYTE   W06
 BYTE   Dn1  v064
 BYTE   W06
 BYTE   En1  v016
 BYTE   W06
 BYTE   Dn1  v080
 BYTE   W06
 BYTE   Dn1  v012
 BYTE   W06
 BYTE   Dn1  v004
 BYTE   W06
 BYTE   N05
 BYTE   W12
 BYTE   N02  Dn1  v020
 BYTE   W03
 BYTE   En1  v028
 BYTE   W03
 BYTE   PEND 
//  #14 //029   ----------------------------------------
Label_01C8296A:
 BYTE   N05  Dn1  v104
 BYTE   W06
 BYTE   En1  v032
 BYTE   W06
 BYTE   Dn1  v080
 BYTE   W06
 BYTE   Dn1  v012
 BYTE   W06
 BYTE   Dn1  v004
 BYTE   W06
 BYTE   N05
 BYTE   W06
 BYTE   En1  v028
 BYTE   W06
 BYTE   Dn1  v048
 BYTE   W06
 BYTE   Dn1  v064
 BYTE   W06
 BYTE   En1  v016
 BYTE   W06
 BYTE   Dn1  v080
 BYTE   W06
 BYTE   Dn1  v012
 BYTE   W06
 BYTE   N23  Fs1  v052
 BYTE   W24
 BYTE   PEND 
//  #14 //030   ----------------------------------------
 BYTE   PATT
  POIN2 Label_01C82939
//  #14 //031   ----------------------------------------
 BYTE   PATT
  POIN2 Label_01C8296A
//  #14 //032   ----------------------------------------
 BYTE   PATT
  POIN2 Label_01C82939
//  #14 //033   ----------------------------------------
 BYTE   N05  Dn1  v104
 BYTE   W06
 BYTE   En1  v032
 BYTE   W06
 BYTE   Dn1  v080
 BYTE   W06
 BYTE   Dn1  v012
 BYTE   W06
 BYTE   Dn1  v004
 BYTE   W06
 BYTE   N05
 BYTE   W06
 BYTE   En1  v028
 BYTE   W06
 BYTE   Dn1  v048
 BYTE   W06
 BYTE   Dn1  v008
 BYTE   W06
 BYTE   En1  v100
 BYTE   W06
 BYTE   Dn1  v028
 BYTE   W06
 BYTE   En1  v032
 BYTE   W06
 BYTE   N11  Fs1  v072
 BYTE   W12
 BYTE   N05  Dn1  v056
 BYTE   W06
 BYTE   En1
 BYTE   W06
//  #14 //034   ----------------------------------------
 BYTE   N23  Fs1  v060
 BYTE   N92  Cs2  v008
 BYTE   W24
 BYTE   N05  Dn1  v048
 BYTE   W06
 BYTE   En1
 BYTE   W06
 BYTE   Dn1
 BYTE   W06
 BYTE   Dn1  v012
 BYTE   W06
 BYTE   Dn1  v004
 BYTE   W06
 BYTE   N05
 BYTE   W06
 BYTE   En1  v024
 BYTE   W06
 BYTE   Dn1  v060
 BYTE   W06
 BYTE   N23  Fs1
 BYTE   W24
//  #14 //035   ----------------------------------------
 BYTE   N05  Dn1  v048
 BYTE   W06
 BYTE   En1
 BYTE   W06
 BYTE   Dn1
 BYTE   W06
 BYTE   Dn1  v012
 BYTE   W06
 BYTE   Dn1  v004
 BYTE   W06
 BYTE   Dn1  v032
 BYTE   W06
 BYTE   En1  v024
 BYTE   W06
 BYTE   Dn1  v060
 BYTE   W06
 BYTE   En1  v004
 BYTE   W06
 BYTE   Dn1  v036
 BYTE   W06
 BYTE   En1  v024
 BYTE   W06
 BYTE   Dn1  v012
 BYTE   W06
 BYTE   N02  En1  v032
 BYTE   W03
 BYTE   Dn1
 BYTE   W03
 BYTE   N05  En1  v052
 BYTE   W06
 BYTE   Dn1  v024
 BYTE   W06
 BYTE   En1  v012
 BYTE   W06
//  #14 //036   ----------------------------------------
 BYTE   N23  Fs1  v060
 BYTE   N92  En2  v008
 BYTE   W24
 BYTE   N05  Dn1  v048
 BYTE   W06
 BYTE   En1
 BYTE   W06
 BYTE   Dn1
 BYTE   W06
 BYTE   Dn1  v012
 BYTE   W06
 BYTE   Dn1  v004
 BYTE   W06
 BYTE   N05
 BYTE   W06
 BYTE   En1  v024
 BYTE   W06
 BYTE   Dn1  v060
 BYTE   W06
 BYTE   N23  Fs1
 BYTE   W24
//  #14 //037   ----------------------------------------
 BYTE   N05  Dn1  v048
 BYTE   W06
 BYTE   En1
 BYTE   W06
 BYTE   Dn1
 BYTE   W06
 BYTE   Dn1  v012
 BYTE   W06
 BYTE   Dn1  v004
 BYTE   W06
 BYTE   Dn1  v028
 BYTE   W06
 BYTE   En1  v024
 BYTE   W06
 BYTE   Dn1  v060
 BYTE   W06
 BYTE   En1  v004
 BYTE   W06
 BYTE   Dn1  v048
 BYTE   W06
 BYTE   En1  v024
 BYTE   W06
 BYTE   Dn1  v012
 BYTE   W06
 BYTE   N02  En1  v032
 BYTE   W03
 BYTE   Dn1
 BYTE   W03
 BYTE   N05  En1  v052
 BYTE   W06
 BYTE   Dn1  v024
 BYTE   W06
 BYTE   En1  v012
 BYTE   W06
//  #14 //038   ----------------------------------------
 BYTE   Dn1  v088
 BYTE   N32  An2  v008
 BYTE   W06
 BYTE   N05  En1  v032
 BYTE   W06
 BYTE   Dn1  v064
 BYTE   W06
 BYTE   Dn1  v008
 BYTE   W06
 BYTE   Dn1  v004
 BYTE   W06
 BYTE   N05
 BYTE   W06
 BYTE   En1  v056
 BYTE   N13  An2  v008
 BYTE   W06
 BYTE   N05  Dn1  v024
 BYTE   W06
 BYTE   Dn1  v032
 BYTE   W06
 BYTE   En1  v016
 BYTE   W06
 BYTE   Dn1  v044
 BYTE   W06
 BYTE   Dn1  v008
 BYTE   W06
 BYTE   Dn1  v056
 BYTE   N13  An2  v008
 BYTE   W06
 BYTE   N05  Dn1  v004
 BYTE   W06
 BYTE   Dn1  v008
 BYTE   W06
 BYTE   N02  Dn1  v016
 BYTE   W03
 BYTE   En1  v028
 BYTE   W03
//  #14 //039   ----------------------------------------
 BYTE   N05  Dn1  v088
 BYTE   N13  An2  v016
 BYTE   W06
 BYTE   N05  En1  v032
 BYTE   W06
 BYTE   Dn1  v064
 BYTE   W06
 BYTE   Dn1  v008
 BYTE   W06
 BYTE   Dn1  v004
 BYTE   W06
 BYTE   N05
 BYTE   W06
 BYTE   En1  v052
 BYTE   N13  An2  v008
 BYTE   W06
 BYTE   N05  Dn1  v032
 BYTE   W06
 BYTE   Dn1  v056
 BYTE   W06
 BYTE   En1  v016
 BYTE   W06
 BYTE   Dn1  v064
 BYTE   W06
 BYTE   Dn1  v008
 BYTE   W06
 BYTE   N23  Fs1  v052
 BYTE   N13  An2  v008
 BYTE   W23
 BYTE   GoTo
  POIN2 Label_01C82769
 BYTE   FINE

//******************************************************//
	ALIGN 4

FE11EndlessBattleREALxViPerZ:
	BYTE	14	// NumTrks
	BYTE	0	// NumBlks
	BYTE	FE11EndlessBattleREALxViPerZ_pri	// Priority
	BYTE	FE11EndlessBattleREALxViPerZ_rev	// Reverb.
    
	POIN2	FE11EndlessBattleREALxViPerZ_grp
    
	POIN2	FE11EndlessBattleREALxViPerZ_001
	POIN2	FE11EndlessBattleREALxViPerZ_002
	POIN2	FE11EndlessBattleREALxViPerZ_003
	POIN2	FE11EndlessBattleREALxViPerZ_004
	POIN2	FE11EndlessBattleREALxViPerZ_005
	POIN2	FE11EndlessBattleREALxViPerZ_006
	POIN2	FE11EndlessBattleREALxViPerZ_007
	POIN2	FE11EndlessBattleREALxViPerZ_008
	POIN2	FE11EndlessBattleREALxViPerZ_009
	POIN2	FE11EndlessBattleREALxViPerZ_010
	POIN2	FE11EndlessBattleREALxViPerZ_011
	POIN2	FE11EndlessBattleREALxViPerZ_012
	POIN2	FE11EndlessBattleREALxViPerZ_013
	POIN2	FE11EndlessBattleREALxViPerZ_014

	
