//Event file generated from Sappy .s format.
	#include "MPlayDef.event"

	#define	FE11StalwartOppositionAzula_grp  voicegroup000
	#define	FE11StalwartOppositionAzula_pri  10
	#define	FE11StalwartOppositionAzula_rev  148
	#define	FE11StalwartOppositionAzula_mvl  127
	#define	FE11StalwartOppositionAzula_key  0
	#define	FE11StalwartOppositionAzula_tbs  1
	#define	FE11StalwartOppositionAzula_exg  0
	#define	FE11StalwartOppositionAzula_cmp  1

	// .rodata
	//	FE11StalwartOppositionAzula
	ALIGN 4


//**************** Track 1 (Midi-Chn.0) ****************//

FE11StalwartOppositionAzula_001:
//  #01 //000   ----------------------------------------
 BYTE   KEYSH   FE11StalwartOppositionAzula_key+0
 BYTE   TEMPO   162*FE11StalwartOppositionAzula_tbs/2
 BYTE   VOICE   28
 BYTE   MOD 0
 BYTE   VOL   41*FE11StalwartOppositionAzula_mvl/mxv
 BYTE   PAN   c_v+0
 BYTE   BEND   c_v+0
 BYTE   N30  Cn3  v092
 BYTE   W24
Label_55E856:
 BYTE   VOICE   29
 BYTE   VOL   43*FE11StalwartOppositionAzula_mvl/mxv
 BYTE   PAN   c_v+0
 BYTE   N05  En1  v127
 BYTE   W06
 BYTE   N04  En1  v048
 BYTE   W06
 BYTE   Bn1  v127
 BYTE   W06
 BYTE   Bn1  v048
 BYTE   W06
 BYTE   N10  Bn2  v127
 BYTE   W10
 BYTE   N02  Bn2  v096
 BYTE   W02
 BYTE   N05  En1  v127
 BYTE   W06
 BYTE   N04  En1  v048
 BYTE   W06
 BYTE   Bn1  v127
 BYTE   W06
 BYTE   Bn1  v048
 BYTE   W06
 BYTE   N10  Bn2  v127
 BYTE   W10
 BYTE   N02  Bn2  v096
 BYTE   W02
//  #01 //001   ----------------------------------------
 BYTE   N05  En1  v127
 BYTE   W06
 BYTE   N04  En1  v048
 BYTE   W06
 BYTE   Bn1  v127
 BYTE   W06
 BYTE   Bn1  v048
 BYTE   W06
 BYTE   N10  Bn2  v127
 BYTE   W10
 BYTE   N02  Bn2  v096
 BYTE   W02
 BYTE   MOD 5
 BYTE   W24
 BYTE   N24  Bn2  v127
 BYTE   W09
 BYTE   BEND   c_v+0
 BYTE   W01
 BYTE   BEND   c_v+11
 BYTE   W01
 BYTE   MOD 5
 BYTE   BEND   c_v+35
 BYTE   W01
 BYTE   MOD 0
 BYTE   BEND   c_v+43
 BYTE   W01
 BYTE   BEND   c_v+24
 BYTE   W01
 BYTE   BEND   c_v+14
 BYTE   W01
 BYTE   BEND   c_v+0
 BYTE   W01
 BYTE   BEND   c_v+8
 BYTE   W01
 BYTE   BEND   c_v+25
 BYTE   W01
 BYTE   BEND   c_v+33
 BYTE   W01
 BYTE   BEND   c_v+44
 BYTE   W01
 BYTE   BEND   c_v+33
 BYTE   W01
 BYTE   BEND   c_v+11
 BYTE   W01
 BYTE   BEND   c_v+0
 BYTE   W02
 BYTE   N12  An2  v116
 BYTE   W12
//  #01 //002   ----------------------------------------
 BYTE   Gn2
 BYTE   W12
 BYTE   Fs2
 BYTE   W12
 BYTE   N05  En1  v127
 BYTE   W06
 BYTE   N04  En1  v048
 BYTE   W06
 BYTE   Bn1  v127
 BYTE   W06
 BYTE   Bn1  v048
 BYTE   W06
 BYTE   N10  Bn2  v127
 BYTE   W10
 BYTE   N02  Bn2  v096
 BYTE   W02
 BYTE   N05  En1  v127
 BYTE   W06
 BYTE   N04  En1  v048
 BYTE   W06
 BYTE   Bn1  v127
 BYTE   W06
 BYTE   Bn1  v048
 BYTE   W06
 BYTE   N10  Bn2  v127
 BYTE   W10
 BYTE   N02  Bn2  v096
 BYTE   W02
//  #01 //003   ----------------------------------------
 BYTE   N05  En1  v127
 BYTE   W06
 BYTE   N04  En1  v048
 BYTE   W06
 BYTE   Bn1  v127
 BYTE   W06
 BYTE   Bn1  v048
 BYTE   W06
 BYTE   N10  Bn2  v127
 BYTE   W10
 BYTE   N02  Bn2  v096
 BYTE   W01
 BYTE   MOD 0
 BYTE   W01
 BYTE   MOD 5
 BYTE   W24
 BYTE   N24  Bn2  v127
 BYTE   W05
 BYTE   BEND   c_v+0
 BYTE   W01
 BYTE   BEND   c_v+19
 BYTE   W01
 BYTE   BEND   c_v+29
 BYTE   W01
 BYTE   BEND   c_v+43
 BYTE   W01
 BYTE   BEND   c_v+34
 BYTE   W01
 BYTE   BEND   c_v+14
 BYTE   W01
 BYTE   MOD 5
 BYTE   BEND   c_v+4
 BYTE   W01
 BYTE   MOD 0
 BYTE   BEND   c_v+10
 BYTE   W01
 BYTE   BEND   c_v+20
 BYTE   W01
 BYTE   BEND   c_v+30
 BYTE   W01
 BYTE   BEND   c_v+44
 BYTE   W01
 BYTE   BEND   c_v+22
 BYTE   W01
 BYTE   BEND   c_v+11
 BYTE   W01
 BYTE   BEND   c_v+0
 BYTE   W06
 BYTE   N12  An2  v116
 BYTE   W12
//  #01 //004   ----------------------------------------
 BYTE   Gn2
 BYTE   W12
 BYTE   An2
 BYTE   W12
 BYTE   N68  Dn2  v127
 BYTE   W48
 BYTE   W24
//  #01 //005   ----------------------------------------
 BYTE   Cn2
 BYTE   W48
 BYTE   W24
 BYTE   An1
 BYTE   W48
//  #01 //006   ----------------------------------------
 BYTE   W24
 BYTE   Bn1
 BYTE   W23
 BYTE   MOD 0
 BYTE   W01
 BYTE   MOD 5
 BYTE   W23
 BYTE   MOD 5
 BYTE   W01
 BYTE   MOD 0
 BYTE   W24
//  #01 //007   ----------------------------------------
 BYTE   N06  Bn1  v116
 BYTE   W06
 BYTE   An1
 BYTE   W06
 BYTE   Gn1
 BYTE   W06
 BYTE   Fs1
 BYTE   W06
 BYTE   N05  Gn2  v127
 BYTE   W06
 BYTE   N04  Gn2  v048
 BYTE   W06
 BYTE   Dn3  v127
 BYTE   W06
 BYTE   Dn3  v048
 BYTE   W06
 BYTE   N10  Gn3  v127
 BYTE   W10
 BYTE   N02  Gn3  v096
 BYTE   W02
 BYTE   N05  Gn2  v127
 BYTE   W06
 BYTE   N04  Gn2  v048
 BYTE   W06
 BYTE   Dn3  v127
 BYTE   W06
 BYTE   Dn3  v048
 BYTE   W06
 BYTE   N10  Gn3  v127
 BYTE   W10
 BYTE   N02  Gn3  v096
 BYTE   W02
//  #01 //008   ----------------------------------------
 BYTE   N05  Gn2  v127
 BYTE   W06
 BYTE   N04  Gn2  v048
 BYTE   W06
 BYTE   Dn3  v127
 BYTE   W06
 BYTE   Dn3  v048
 BYTE   W06
 BYTE   N10  Gn3  v127
 BYTE   W10
 BYTE   N02  Gn3  v096
 BYTE   W01
 BYTE   MOD 0
 BYTE   W01
 BYTE   MOD 5
 BYTE   W24
 BYTE   N24  Gn3  v127
 BYTE   W03
 BYTE   BEND   c_v+0
 BYTE   W01
 BYTE   BEND   c_v+4
 BYTE   W01
 BYTE   BEND   c_v+9
 BYTE   W01
 BYTE   BEND   c_v+18
 BYTE   W01
 BYTE   BEND   c_v+22
 BYTE   W01
 BYTE   BEND   c_v+27
 BYTE   W01
 BYTE   BEND   c_v+18
 BYTE   W01
 BYTE   BEND   c_v+13
 BYTE   W01
 BYTE   MOD 5
 BYTE   BEND   c_v+8
 BYTE   W01
 BYTE   MOD 0
 BYTE   BEND   c_v+0
 BYTE   W01
 BYTE   BEND   c_v+6
 BYTE   W01
 BYTE   BEND   c_v+19
 BYTE   W01
 BYTE   BEND   c_v+28
 BYTE   W01
 BYTE   BEND   c_v+21
 BYTE   W01
 BYTE   BEND   c_v+14
 BYTE   W01
 BYTE   BEND   c_v+0
 BYTE   W06
 BYTE   N12  Fs3  v116
 BYTE   W12
//  #01 //009   ----------------------------------------
 BYTE   En3
 BYTE   W12
 BYTE   Dn3
 BYTE   W12
 BYTE   N05  Gn2  v127
 BYTE   W06
 BYTE   N04  Gn2  v048
 BYTE   W06
 BYTE   Dn3  v127
 BYTE   W06
 BYTE   Dn3  v048
 BYTE   W06
 BYTE   N10  Gn3  v116
 BYTE   W10
 BYTE   N02  Gn3  v088
 BYTE   W02
 BYTE   N05  Gn2  v127
 BYTE   W06
 BYTE   N04  Gn2  v048
 BYTE   W06
 BYTE   Dn3  v127
 BYTE   W06
 BYTE   Dn3  v048
 BYTE   W06
 BYTE   N10  Gn3  v116
 BYTE   W10
 BYTE   N02  Gn3  v088
 BYTE   W02
//  #01 //010   ----------------------------------------
 BYTE   N05  Gn2  v127
 BYTE   W06
 BYTE   N04  Gn2  v048
 BYTE   W06
 BYTE   Dn3  v127
 BYTE   W06
 BYTE   Dn3  v048
 BYTE   W06
 BYTE   N10  Gn3  v127
 BYTE   W10
 BYTE   N02  Gn3  v096
 BYTE   W01
 BYTE   MOD 0
 BYTE   W01
 BYTE   MOD 5
 BYTE   W24
 BYTE   N24  Gn3  v127
 BYTE   W05
 BYTE   BEND   c_v+0
 BYTE   W01
 BYTE   BEND   c_v+7
 BYTE   W01
 BYTE   BEND   c_v+11
 BYTE   W01
 BYTE   BEND   c_v+15
 BYTE   W01
 BYTE   BEND   c_v+23
 BYTE   W01
 BYTE   BEND   c_v+19
 BYTE   W01
 BYTE   MOD 5
 BYTE   BEND   c_v+15
 BYTE   W01
 BYTE   MOD 0
 BYTE   BEND   c_v+7
 BYTE   W01
 BYTE   BEND   c_v+3
 BYTE   W01
 BYTE   BEND   c_v+5
 BYTE   W01
 BYTE   BEND   c_v+10
 BYTE   W01
 BYTE   BEND   c_v+16
 BYTE   W01
 BYTE   BEND   c_v+24
 BYTE   W01
 BYTE   BEND   c_v+12
 BYTE   W01
 BYTE   BEND   c_v+6
 BYTE   W01
 BYTE   BEND   c_v+0
 BYTE   W04
 BYTE   N12  Fs3  v116
 BYTE   W12
//  #01 //011   ----------------------------------------
 BYTE   En3
 BYTE   W12
 BYTE   Fs3
 BYTE   W12
 BYTE   N44  Fs2  v127
 BYTE   W48
 BYTE   N92  En2
 BYTE   W72
//  #01 //012   ----------------------------------------
 BYTE   W24
 BYTE   N68  Dn2
 BYTE   W48
 BYTE   W24
//  #01 //013   ----------------------------------------
 BYTE   En2
 BYTE   W48
 BYTE   W24
 BYTE   Dn2
 BYTE   W11
 BYTE   MOD 0
 BYTE   W01
 BYTE   MOD 5
 BYTE   W11
 BYTE   MOD 5
 BYTE   W01
//  #01 //014   ----------------------------------------
 BYTE   MOD 0
 BYTE   W24
 BYTE   W24
 BYTE   GoTo
  POIN2 Label_55E856
 BYTE   FINE

//**************** Track 2 (Midi-Chn.1) ****************//

FE11StalwartOppositionAzula_002:
//  #02 //000   ----------------------------------------
 BYTE   KEYSH   FE11StalwartOppositionAzula_key+0
 BYTE   W24
Label_55EA7E:
 BYTE   VOICE   34
 BYTE   VOL   47*FE11StalwartOppositionAzula_mvl/mxv
 BYTE   PAN   c_v+0
 BYTE   N09  En1  v127
 BYTE   W12
 BYTE   En1  v124
 BYTE   W12
 BYTE   Gn1
 BYTE   W12
 BYTE   N21  En1
 BYTE   W24
 BYTE   N09
 BYTE   W12
//  #02 //001   ----------------------------------------
Label_55EA92:
 BYTE   N09  En1  v124
 BYTE   W12
 BYTE   N09
 BYTE   W12
 BYTE   En1  v127
 BYTE   W12
 BYTE   Gn1  v124
 BYTE   W12
 BYTE   En1
 BYTE   W12
 BYTE   N09
 BYTE   W12
 BYTE   Dn2
 BYTE   W12
 BYTE   En1
 BYTE   W12
 BYTE   PEND 
//  #02 //002   ----------------------------------------
Label_55EAA7:
 BYTE   N06  En1  v124
 BYTE   W06
 BYTE   Fs1
 BYTE   W06
 BYTE   Gn1
 BYTE   W06
 BYTE   An1
 BYTE   W06
 BYTE   N09  En1  v127
 BYTE   W12
 BYTE   En1  v124
 BYTE   W12
 BYTE   An1
 BYTE   W12
 BYTE   N21  En1
 BYTE   W24
 BYTE   N09
 BYTE   W12
 BYTE   PEND 
//  #02 //003   ----------------------------------------
Label_55EAC0:
 BYTE   N09  En1  v124
 BYTE   W12
 BYTE   N09
 BYTE   W12
 BYTE   En1  v127
 BYTE   W12
 BYTE   An1  v124
 BYTE   W12
 BYTE   En1
 BYTE   W12
 BYTE   N09
 BYTE   W12
 BYTE   Dn2
 BYTE   W12
 BYTE   En1
 BYTE   W12
 BYTE   PEND 
//  #02 //004   ----------------------------------------
 BYTE   Fs1
 BYTE   W12
 BYTE   Gn1
 BYTE   W12
 BYTE   N21  Dn2  v127
 BYTE   W24
 BYTE   N05  An1  v124
 BYTE   W08
 BYTE   N05
 BYTE   W08
 BYTE   N05
 BYTE   W08
 BYTE   N21  Dn2
 BYTE   W24
//  #02 //005   ----------------------------------------
 BYTE   Cn2  v127
 BYTE   W24
 BYTE   N05  Gn1  v124
 BYTE   W08
 BYTE   N05
 BYTE   W08
 BYTE   N05
 BYTE   W08
 BYTE   N21  Cn2
 BYTE   W24
 BYTE   N09  Cn2  v127
 BYTE   W12
 BYTE   Dn2  v124
 BYTE   W24
//  #02 //006   ----------------------------------------
 BYTE   N08
 BYTE   W12
 BYTE   N09  Cn2  v127
 BYTE   W12
 BYTE   Dn2  v124
 BYTE   W12
 BYTE   N08  En1
 BYTE   W12
 BYTE   Bn1
 BYTE   W12
 BYTE   An1  v127
 BYTE   W12
 BYTE   En2  v124
 BYTE   W12
 BYTE   Dn2
 BYTE   W12
//  #02 //007   ----------------------------------------
 BYTE   Bn1
 BYTE   W12
 BYTE   An1
 BYTE   W12
 BYTE   Bn1
 BYTE   W12
 BYTE   N09  En1  v127
 BYTE   W12
 BYTE   En1  v124
 BYTE   W12
 BYTE   Gn1
 BYTE   W12
 BYTE   N21  En1
 BYTE   W24
//  #02 //008   ----------------------------------------
 BYTE   N09
 BYTE   W12
//  #02 //009   ----------------------------------------
 BYTE   PATT
  POIN2 Label_55EA92
//  #02 //010   ----------------------------------------
 BYTE   PATT
  POIN2 Label_55EAA7
//  #02 //011   ----------------------------------------
 BYTE   PATT
  POIN2 Label_55EAC0
//  #02 //012   ----------------------------------------
 BYTE   N06  En1  v124
 BYTE   W06
 BYTE   Fs1
 BYTE   W06
 BYTE   Gn1
 BYTE   W06
 BYTE   An1
 BYTE   W06
 BYTE   N08  Dn2  v127
 BYTE   W12
 BYTE   An1  v124
 BYTE   W12
 BYTE   Dn2
 BYTE   W12
 BYTE   An1
 BYTE   W12
 BYTE   Dn2
 BYTE   W12
 BYTE   Gn2
 BYTE   W12
//  #02 //013   ----------------------------------------
 BYTE   Cn2  v127
 BYTE   W12
 BYTE   Gn1  v124
 BYTE   W12
 BYTE   Cn2
 BYTE   W12
 BYTE   Gn1
 BYTE   W12
 BYTE   Cn2
 BYTE   W12
 BYTE   Gn1
 BYTE   W12
 BYTE   Ds2  v127
 BYTE   W12
 BYTE   As1  v124
 BYTE   W12
//  #02 //014   ----------------------------------------
 BYTE   Ds2
 BYTE   W12
 BYTE   As1
 BYTE   W12
 BYTE   Ds2
 BYTE   W12
 BYTE   As2
 BYTE   W12
 BYTE   Dn2  v127
 BYTE   W12
 BYTE   An1  v124
 BYTE   W12
 BYTE   Dn2
 BYTE   W12
 BYTE   An1
 BYTE   W12
//  #02 //015   ----------------------------------------
 BYTE   Dn2
 BYTE   W12
 BYTE   An1
 BYTE   W12
 BYTE   N68  Gn1  v127
 BYTE   W48
 BYTE   W24
//  #02 //016   ----------------------------------------
 BYTE   GoTo
  POIN2 Label_55EA7E
 BYTE   FINE

//**************** Track 3 (Midi-Chn.2) ****************//

FE11StalwartOppositionAzula_003:
//  #03 //000   ----------------------------------------
 BYTE   KEYSH   FE11StalwartOppositionAzula_key+0
 BYTE   W24
Label_55EB87:
 BYTE   VOICE   49
 BYTE   VOL   33*FE11StalwartOppositionAzula_mvl/mxv
 BYTE   PAN   c_v+25
 BYTE   W24
 BYTE   N72  En3  v096
 BYTE   W48
//  #03 //001   ----------------------------------------
 BYTE   W24
 BYTE   N48  Fs3
 BYTE   W48
 BYTE   N24  Gn3
 BYTE   W24
//  #03 //002   ----------------------------------------
 BYTE   N06  En3
 BYTE   W06
 BYTE   Fs3
 BYTE   W06
 BYTE   Gn3
 BYTE   W06
 BYTE   An3
 BYTE   W09
 BYTE   An3  v040
 BYTE   W21
 BYTE   N48  Gn3  v096
 BYTE   W48
//  #03 //003   ----------------------------------------
 BYTE   N24  An3
 BYTE   W24
 BYTE   N48  Gn3
 BYTE   W48
 BYTE   N24  Fs3
 BYTE   W24
//  #03 //004   ----------------------------------------
 BYTE   N06  En3
 BYTE   W06
 BYTE   Dn3
 BYTE   W06
 BYTE   Cn3
 BYTE   W06
 BYTE   Bn2
 BYTE   W06
 BYTE   N48  Fs3
 BYTE   W48
 BYTE   N12  En3
 BYTE   W12
 BYTE   Fs3
 BYTE   W12
//  #03 //005   ----------------------------------------
 BYTE   N48  Gn3
 BYTE   W48
 BYTE   N06  Fs3
 BYTE   W06
 BYTE   Gn3
 BYTE   W06
 BYTE   An3
 BYTE   W06
 BYTE   Bn3
 BYTE   W06
 BYTE   N48  An3
 BYTE   W48
//  #03 //006   ----------------------------------------
 BYTE   N06  Gn3
 BYTE   W06
 BYTE   An3
 BYTE   W06
 BYTE   Bn3
 BYTE   W06
 BYTE   Cn4
 BYTE   W06
 BYTE   N72  Bn3
 BYTE   W72
//  #03 //007   ----------------------------------------
 BYTE   N06
 BYTE   W06
 BYTE   An3
 BYTE   W06
 BYTE   Gn3
 BYTE   W06
 BYTE   Fs3
 BYTE   W09
 BYTE   Fs3  v040
 BYTE   W21
 BYTE   N72  Gn3  v096
 BYTE   W48
//  #03 //008   ----------------------------------------
 BYTE   W24
 BYTE   An3
 BYTE   W72
//  #03 //009   ----------------------------------------
 BYTE   N06
 BYTE   W06
 BYTE   Bn3
 BYTE   W06
 BYTE   Cs4
 BYTE   W06
 BYTE   Dn4
 BYTE   W09
 BYTE   Dn4  v040
 BYTE   W21
 BYTE   N72  Bn3  v096
 BYTE   W48
//  #03 //010   ----------------------------------------
 BYTE   W24
 BYTE   N48  Dn4
 BYTE   W48
 BYTE   N06  Bn3
 BYTE   W06
 BYTE   Bn3  v032
 BYTE   W06
 BYTE   An3  v096
 BYTE   W06
 BYTE   An3  v032
 BYTE   W06
//  #03 //011   ----------------------------------------
 BYTE   Gn3  v096
 BYTE   W06
 BYTE   Gn3  v032
 BYTE   W06
 BYTE   Fs3  v096
 BYTE   W06
 BYTE   Fs3  v032
 BYTE   W30
 BYTE   N24  Dn4  v096
 BYTE   W24
 BYTE   N72  Cn4
 BYTE   W72
//  #03 //012   ----------------------------------------
 BYTE   N12  Dn4
 BYTE   W12
 BYTE   Cn4
 BYTE   W12
 BYTE   N72  As3
 BYTE   W48
 BYTE   W24
//  #03 //013   ----------------------------------------
 BYTE   N48  Cn4
 BYTE   W48
 BYTE   N06  As3
 BYTE   W06
 BYTE   Cn4
 BYTE   W06
 BYTE   Dn4
 BYTE   W06
 BYTE   Ds4
 BYTE   W06
 BYTE   N66  Dn4
 BYTE   W48
//  #03 //014   ----------------------------------------
 BYTE   W18
 BYTE   N06  Dn4  v032
 BYTE   W06
 BYTE   GoTo
  POIN2 Label_55EB87
 BYTE   FINE

//**************** Track 4 (Midi-Chn.3) ****************//

FE11StalwartOppositionAzula_004:
//  #04 //000   ----------------------------------------
 BYTE   KEYSH   FE11StalwartOppositionAzula_key+0
 BYTE   W24
Label_55EC48:
 BYTE   VOICE   47
 BYTE   VOL   45*FE11StalwartOppositionAzula_mvl/mxv
 BYTE   PAN   c_v+0
 BYTE   N12  En2  v088
 BYTE   W15
 BYTE   N06  En2  v036
 BYTE   W09
 BYTE   VOICE   49
 BYTE   VOL   37*FE11StalwartOppositionAzula_mvl/mxv
 BYTE   PAN   c_v-25
 BYTE   N72  Bn2  v088
 BYTE   W48
//  #04 //001   ----------------------------------------
 BYTE   W24
 BYTE   N48  Cn3
 BYTE   W48
 BYTE   N24  Dn3
 BYTE   W24
//  #04 //002   ----------------------------------------
 BYTE   N06  Bn2
 BYTE   W06
 BYTE   Cn3
 BYTE   W06
 BYTE   Dn3
 BYTE   W06
 BYTE   En3
 BYTE   W06
 BYTE   VOICE   47
 BYTE   VOL   45*FE11StalwartOppositionAzula_mvl/mxv
 BYTE   PAN   c_v+0
 BYTE   N12  En2
 BYTE   W15
 BYTE   N06  En2  v036
 BYTE   W09
 BYTE   VOICE   49
 BYTE   VOL   37*FE11StalwartOppositionAzula_mvl/mxv
 BYTE   PAN   c_v-25
 BYTE   N48  Dn3  v088
 BYTE   W48
//  #04 //003   ----------------------------------------
 BYTE   N24  En3
 BYTE   W24
 BYTE   N48  Dn3
 BYTE   W48
 BYTE   N24  Cn3
 BYTE   W24
//  #04 //004   ----------------------------------------
 BYTE   N06  Bn2
 BYTE   W06
 BYTE   An2
 BYTE   W06
 BYTE   Gn2
 BYTE   W06
 BYTE   Fs2
 BYTE   W06
 BYTE   N48  Dn3
 BYTE   W48
 BYTE   N12  Cn3
 BYTE   W12
 BYTE   Dn3
 BYTE   W12
//  #04 //005   ----------------------------------------
 BYTE   N48  En3
 BYTE   W48
 BYTE   N06  Dn3
 BYTE   W06
 BYTE   En3
 BYTE   W06
 BYTE   Fs3
 BYTE   W06
 BYTE   Gn3
 BYTE   W06
 BYTE   N72  Fs3
 BYTE   W48
//  #04 //006   ----------------------------------------
 BYTE   W24
 BYTE   En3
 BYTE   W72
//  #04 //007   ----------------------------------------
 BYTE   N06
 BYTE   W06
 BYTE   Dn3
 BYTE   W06
 BYTE   Cn3
 BYTE   W06
 BYTE   Bn2
 BYTE   W06
 BYTE   VOICE   47
 BYTE   VOL   45*FE11StalwartOppositionAzula_mvl/mxv
 BYTE   PAN   c_v+0
 BYTE   N12  En2
 BYTE   W15
 BYTE   N06  En2  v036
 BYTE   W09
 BYTE   VOICE   49
 BYTE   VOL   31*FE11StalwartOppositionAzula_mvl/mxv
 BYTE   PAN   c_v-25
 BYTE   N72  Dn3  v088
 BYTE   W48
//  #04 //008   ----------------------------------------
 BYTE   W24
 BYTE   En3
 BYTE   W72
//  #04 //009   ----------------------------------------
 BYTE   N06
 BYTE   W06
 BYTE   Fs3
 BYTE   W06
 BYTE   Gn3
 BYTE   W06
 BYTE   An3
 BYTE   W06
 BYTE   VOICE   47
 BYTE   VOL   45*FE11StalwartOppositionAzula_mvl/mxv
 BYTE   PAN   c_v+0
 BYTE   N12  En2
 BYTE   W15
 BYTE   N06  En2  v036
 BYTE   W09
 BYTE   VOICE   49
 BYTE   VOL   37*FE11StalwartOppositionAzula_mvl/mxv
 BYTE   PAN   c_v-25
 BYTE   TIE  Fs3  v088
 BYTE   W48
//  #04 //010   ----------------------------------------
 BYTE   W72
 BYTE   EOT
 BYTE   N06  Gn3
 BYTE   W06
 BYTE   Gn3  v036
 BYTE   W06
 BYTE   Fs3  v088
 BYTE   W06
 BYTE   Fs3  v036
 BYTE   W06
//  #04 //011   ----------------------------------------
 BYTE   En3  v088
 BYTE   W06
 BYTE   En3  v036
 BYTE   W06
 BYTE   Dn3  v088
 BYTE   W06
 BYTE   Dn3  v036
 BYTE   W30
 BYTE   N24  An3  v088
 BYTE   W24
 BYTE   N72  Gn3
 BYTE   W72
//  #04 //012   ----------------------------------------
 BYTE   N12  An3
 BYTE   W12
 BYTE   Gn3
 BYTE   W12
 BYTE   N72  Fn3
 BYTE   W48
 BYTE   W24
//  #04 //013   ----------------------------------------
 BYTE   N48  Gn3
 BYTE   W48
 BYTE   N06  Fn3
 BYTE   W06
 BYTE   Gn3
 BYTE   W06
 BYTE   An3
 BYTE   W06
 BYTE   As3
 BYTE   W06
 BYTE   N66  An3
 BYTE   W48
//  #04 //014   ----------------------------------------
 BYTE   W18
 BYTE   N06  An3  v036
 BYTE   W06
 BYTE   GoTo
  POIN2 Label_55EC48
 BYTE   FINE

//**************** Track 5 (Midi-Chn.4) ****************//

FE11StalwartOppositionAzula_005:
//  #05 //000   ----------------------------------------
 BYTE   KEYSH   FE11StalwartOppositionAzula_key+0
 BYTE   VOICE   127
 BYTE   VOL   45*FE11StalwartOppositionAzula_mvl/mxv
 BYTE   PAN   c_v+0
 BYTE   N06  Dn1  v084
 BYTE   W06
 BYTE   Dn1  v092
 BYTE   W06
 BYTE   Dn1  v108
 BYTE   W06
 BYTE   Dn1  v120
 BYTE   W06
Label_55ED4D:
 BYTE   N24  Cs2  v092
 BYTE   W24
 BYTE   N06  Dn1  v096
 BYTE   W12
 BYTE   Cn1
 BYTE   W24
 BYTE   N06
 BYTE   W12
//  #05 //001   ----------------------------------------
 BYTE   Dn1
 BYTE   W12
 BYTE   Fs1  v072
 BYTE   W12
 BYTE   Cn1  v096
 BYTE   W12
 BYTE   N06
 BYTE   W12
 BYTE   Dn1
 BYTE   W12
 BYTE   Cn1
 BYTE   W12
 BYTE   Fs1  v072
 BYTE   W12
 BYTE   Cn1  v096
 BYTE   W06
 BYTE   N06
 BYTE   W06
//  #05 //002   ----------------------------------------
 BYTE   Dn1
 BYTE   W12
 BYTE   Cn1
 BYTE   W12
 BYTE   N24  Cs2  v092
 BYTE   W24
 BYTE   N06  Dn1  v096
 BYTE   W12
 BYTE   Cn1
 BYTE   W12
 BYTE   Fs1  v072
 BYTE   W12
 BYTE   Cn1  v096
 BYTE   W12
//  #05 //003   ----------------------------------------
Label_55ED83:
 BYTE   N06  Dn1  v096
 BYTE   W12
 BYTE   Cn1
 BYTE   W06
 BYTE   N06
 BYTE   W06
 BYTE   Fs1  v072
 BYTE   W12
 BYTE   Cn1  v096
 BYTE   W12
 BYTE   Dn1
 BYTE   W12
 BYTE   Cn1
 BYTE   W12
 BYTE   N06
 BYTE   W12
 BYTE   N12  As1  v068
 BYTE   W12
 BYTE   PEND 
//  #05 //004   ----------------------------------------
 BYTE   N06  Dn1  v112
 BYTE   W12
 BYTE   Cn1
 BYTE   W12
 BYTE   N24  Cs2  v092
 BYTE   W24
 BYTE   N06  Dn1  v112
 BYTE   W08
 BYTE   N06
 BYTE   W08
 BYTE   N06
 BYTE   W08
 BYTE   Fn1
 BYTE   W12
 BYTE   N12  As1  v068
 BYTE   W12
//  #05 //005   ----------------------------------------
 BYTE   N24  Cs2  v092
 BYTE   W24
 BYTE   N06  Dn1  v112
 BYTE   W08
 BYTE   N06
 BYTE   W08
 BYTE   N06
 BYTE   W08
 BYTE   Fn1
 BYTE   W12
 BYTE   N12  As1  v068
 BYTE   W12
 BYTE   N24  Cs2  v092
 BYTE   W24
//  #05 //006   ----------------------------------------
 BYTE   N06  An1  v104
 BYTE   W08
 BYTE   N06
 BYTE   W08
 BYTE   Fn1
 BYTE   W08
 BYTE   Fn1  v112
 BYTE   W12
 BYTE   N12  As1  v068
 BYTE   W12
 BYTE   N24  Cs2  v092
 BYTE   W24
 BYTE   N06  Dn1  v112
 BYTE   W12
 BYTE   Fn1  v104
 BYTE   W12
//  #05 //007   ----------------------------------------
 BYTE   N06
 BYTE   W12
 BYTE   N06
 BYTE   W12
 BYTE   Dn1
 BYTE   W06
 BYTE   Dn1  v076
 BYTE   W06
 BYTE   Dn1  v092
 BYTE   W06
 BYTE   Dn1  v108
 BYTE   W06
 BYTE   N24  Cs2  v092
 BYTE   W24
 BYTE   N06  Dn1  v096
 BYTE   W12
 BYTE   Cn1
 BYTE   W12
//  #05 //008   ----------------------------------------
 BYTE   Fs1  v072
 BYTE   W12
 BYTE   Cn1  v096
 BYTE   W12
 BYTE   Dn1
 BYTE   W12
 BYTE   Cn1
 BYTE   W12
 BYTE   Fs1  v072
 BYTE   W12
 BYTE   Cn1  v096
 BYTE   W12
 BYTE   Dn1
 BYTE   W12
 BYTE   Cn1
 BYTE   W12
//  #05 //009   ----------------------------------------
 BYTE   Fs1  v072
 BYTE   W12
 BYTE   Cn1  v096
 BYTE   W06
 BYTE   N06
 BYTE   W06
 BYTE   Dn1
 BYTE   W12
 BYTE   N12  As1  v068
 BYTE   W12
 BYTE   N24  Cs2  v092
 BYTE   W24
 BYTE   N06  Dn1  v096
 BYTE   W12
 BYTE   Cn1
 BYTE   W12
//  #05 //010   ----------------------------------------
 BYTE   Fs1  v072
 BYTE   W12
 BYTE   Cn1  v096
 BYTE   W12
//  #05 //011   ----------------------------------------
 BYTE   PATT
  POIN2 Label_55ED83
//  #05 //012   ----------------------------------------
 BYTE   N06  Dn1  v096
 BYTE   W12
 BYTE   Cn1
 BYTE   W12
 BYTE   N24  Cs2  v092
 BYTE   W24
 BYTE   N06  An1  v108
 BYTE   W08
 BYTE   N06
 BYTE   W08
 BYTE   Fn1  v104
 BYTE   W08
Label_55EE47:
 BYTE   N06  Dn1  v112
 BYTE   W12
 BYTE   Fn1  v104
 BYTE   W12
//  #05 //013   ----------------------------------------
 BYTE   N24  Cs2  v092
 BYTE   W24
 BYTE   N06  An1  v108
 BYTE   W08
 BYTE   N06
 BYTE   W08
 BYTE   Fn1  v104
 BYTE   W08
 BYTE   PEND 
//  #05 //014   ----------------------------------------
 BYTE   PATT
  POIN2 Label_55EE47
//  #05 //015   ----------------------------------------
 BYTE   PATT
  POIN2 Label_55EE47
//  #05 //016   ----------------------------------------
 BYTE   N06  Fn1  v104
 BYTE   W12
 BYTE   N06
 BYTE   W12
 BYTE   N24  Cs2  v092
 BYTE   W24
 BYTE   N06  An1  v108
 BYTE   W08
 BYTE   N06
 BYTE   W08
 BYTE   Fn1  v104
 BYTE   W08
 BYTE   Dn1  v112
 BYTE   W06
 BYTE   Dn1  v088
 BYTE   W06
 BYTE   Dn1  v104
 BYTE   W06
 BYTE   Dn1  v116
 BYTE   W06
//  #05 //017   ----------------------------------------
 BYTE   GoTo
  POIN2 Label_55ED4D
 BYTE   FINE

//**************** Track 6 (Midi-Chn.5) ****************//

FE11StalwartOppositionAzula_006:
//  #06 //000   ----------------------------------------
 BYTE   KEYSH   FE11StalwartOppositionAzula_key+0
 BYTE   W24
Label_55EE8E:
 BYTE   VOICE   52
 BYTE   VOL   48*FE11StalwartOppositionAzula_mvl/mxv
 BYTE   PAN   c_v+0
 BYTE   W24
 BYTE   N72  En3  v108
 BYTE   W48
//  #06 //001   ----------------------------------------
 BYTE   W24
 BYTE   N48  Fs3
 BYTE   W48
 BYTE   Gn3
 BYTE   W24
//  #06 //002   ----------------------------------------
 BYTE   W24
 BYTE   N12  Gn3  v032
 BYTE   W24
 BYTE   N48  Gn3  v108
 BYTE   W48
//  #06 //003   ----------------------------------------
 BYTE   N24  An3
 BYTE   W24
 BYTE   N48  Gn3
 BYTE   W48
 BYTE   N42  Fs3
 BYTE   W24
//  #06 //004   ----------------------------------------
 BYTE   W18
 BYTE   N06  Fs3  v032
 BYTE   W06
 BYTE   N48  Fs3  v108
 BYTE   W48
 BYTE   N12  En3
 BYTE   W12
 BYTE   Fs3
 BYTE   W12
//  #06 //005   ----------------------------------------
 BYTE   N24  Gn3
 BYTE   W24
 BYTE   N48  Dn4  v092
 BYTE   W24
 BYTE   W24
 BYTE   N24  An3
 BYTE   W24
//  #06 //006   ----------------------------------------
 BYTE   N48  Dn4
 BYTE   W24
 BYTE   W24
 BYTE   N84  Bn3
 BYTE   W72
//  #06 //007   ----------------------------------------
 BYTE   W12
 BYTE   N12  Bn3  v032
 BYTE   W12
 BYTE   N96  En3  v108
 BYTE   W72
//  #06 //008   ----------------------------------------
 BYTE   W24
 BYTE   N48  Bn2
 BYTE   W48
 BYTE   N42  En3
 BYTE   W24
//  #06 //009   ----------------------------------------
 BYTE   W18
 BYTE   N06  En3  v032
 BYTE   W06
 BYTE   N72  En3  v108
 BYTE   W72
//  #06 //010   ----------------------------------------
 BYTE   N24  Fs3
 BYTE   W24
 BYTE   N48  Gn3
 BYTE   W48
 BYTE   N42  An3
 BYTE   W24
//  #06 //011   ----------------------------------------
 BYTE   W18
 BYTE   N06  An3  v032
 BYTE   W06
 BYTE   N48  Fs3  v108
 BYTE   W48
 BYTE   N72  En3
 BYTE   W72
//  #06 //012   ----------------------------------------
 BYTE   N12  Dn4  v092
 BYTE   W12
 BYTE   Cn4
 BYTE   W12
 BYTE   N24  As3
 BYTE   W24
 BYTE   N48  Dn4
 BYTE   W24
 BYTE   W24
//  #06 //013   ----------------------------------------
 BYTE   N24  Cn4
 BYTE   W24
 BYTE   N48  En4
 BYTE   W24
 BYTE   W24
 BYTE   N66  Dn4
 BYTE   W48
//  #06 //014   ----------------------------------------
 BYTE   W18
 BYTE   N06  Dn4  v032
 BYTE   W06
 BYTE   GoTo
  POIN2 Label_55EE8E
 BYTE   FINE

//******************************************************//
	ALIGN 4

FE11StalwartOppositionAzula:
	BYTE	6	// NumTrks
	BYTE	0	// NumBlks
	BYTE	FE11StalwartOppositionAzula_pri	// Priority
	BYTE	FE11StalwartOppositionAzula_rev	// Reverb.
    
	POIN2	FE11StalwartOppositionAzula_grp
    
	POIN2	FE11StalwartOppositionAzula_001
	POIN2	FE11StalwartOppositionAzula_002
	POIN2	FE11StalwartOppositionAzula_003
	POIN2	FE11StalwartOppositionAzula_004
	POIN2	FE11StalwartOppositionAzula_005
	POIN2	FE11StalwartOppositionAzula_006

	
