//Event file generated from Sappy .s format.
	#include "MPlayDef.event"

	#define	FE11FootstepsofFateSme_grp  voicegroup000
	#define	FE11FootstepsofFateSme_pri  0
	#define	FE11FootstepsofFateSme_rev  0
	#define	FE11FootstepsofFateSme_mvl  127
	#define	FE11FootstepsofFateSme_key  0
	#define	FE11FootstepsofFateSme_tbs  1
	#define	FE11FootstepsofFateSme_exg  0
	#define	FE11FootstepsofFateSme_cmp  1

	// .rodata
	//	FE11FootstepsofFateSme
	ALIGN 4

//**************** Track 1 (Midi-Chn.1) ****************//

FE11FootstepsofFateSme_1:
	BYTE	KEYSH   FE11FootstepsofFateSme_key+0
// 000   ----------------------------------------
	BYTE	TEMPO   106*FE11FootstepsofFateSme_tbs/2
	BYTE		VOICE   14
	BYTE		MODT    0
	BYTE		LFOS    44
	BYTE	W24
	BYTE		VOL     112*FE11FootstepsofFateSme_mvl/mxv
	BYTE		PAN     c_v-14
	BYTE		VOL     90*FE11FootstepsofFateSme_mvl/mxv
	BYTE		BEND    c_v+0
	BYTE		N44     En2   v076
	BYTE		N44     Cs3   v084
	BYTE	W06
	BYTE		VOL     91*FE11FootstepsofFateSme_mvl/mxv
	BYTE	W06
	BYTE		        92*FE11FootstepsofFateSme_mvl/mxv
	BYTE	W03
	BYTE		        93*FE11FootstepsofFateSme_mvl/mxv
	BYTE	W06
	BYTE		        94*FE11FootstepsofFateSme_mvl/mxv
	BYTE	W03
	BYTE		        95*FE11FootstepsofFateSme_mvl/mxv
	BYTE	W03
	BYTE		        96*FE11FootstepsofFateSme_mvl/mxv
	BYTE	W03
	BYTE		        97*FE11FootstepsofFateSme_mvl/mxv
	BYTE	W03
	BYTE		        97*FE11FootstepsofFateSme_mvl/mxv
	BYTE	W03
	BYTE		        99*FE11FootstepsofFateSme_mvl/mxv
	BYTE	W03
	BYTE		        100*FE11FootstepsofFateSme_mvl/mxv
	BYTE	W03
	BYTE		        102*FE11FootstepsofFateSme_mvl/mxv
	BYTE	W03
	BYTE		        104*FE11FootstepsofFateSme_mvl/mxv
	BYTE	W03
	BYTE		        105*FE11FootstepsofFateSme_mvl/mxv
	BYTE		N44     Dn2   v092
	BYTE		N44     Bn2   v080
	BYTE	W03
	BYTE		VOL     108*FE11FootstepsofFateSme_mvl/mxv
	BYTE	W03
	BYTE		        112*FE11FootstepsofFateSme_mvl/mxv
	BYTE	W06
	BYTE		        111*FE11FootstepsofFateSme_mvl/mxv
	BYTE	W06
	BYTE		        110*FE11FootstepsofFateSme_mvl/mxv
	BYTE	W03
	BYTE		        109*FE11FootstepsofFateSme_mvl/mxv
	BYTE	W03
// 001   ----------------------------------------
	BYTE		        108*FE11FootstepsofFateSme_mvl/mxv
	BYTE	W03
	BYTE		        107*FE11FootstepsofFateSme_mvl/mxv
	BYTE	W03
	BYTE		        106*FE11FootstepsofFateSme_mvl/mxv
	BYTE	W03
	BYTE		        104*FE11FootstepsofFateSme_mvl/mxv
	BYTE	W03
	BYTE		        103*FE11FootstepsofFateSme_mvl/mxv
	BYTE	W03
	BYTE		        101*FE11FootstepsofFateSme_mvl/mxv
	BYTE	W03
	BYTE		        98*FE11FootstepsofFateSme_mvl/mxv
	BYTE	W03
	BYTE		        95*FE11FootstepsofFateSme_mvl/mxv
	BYTE	W01
	BYTE		        94*FE11FootstepsofFateSme_mvl/mxv
	BYTE	W02
	BYTE		N44     En2   v084
	BYTE		N44     An2   v096
	BYTE		N44     Dn3 
	BYTE	W04
	BYTE		VOL     95*FE11FootstepsofFateSme_mvl/mxv
	BYTE	W03
	BYTE		        96*FE11FootstepsofFateSme_mvl/mxv
	BYTE	W06
	BYTE		        97*FE11FootstepsofFateSme_mvl/mxv
	BYTE	W03
	BYTE		        97*FE11FootstepsofFateSme_mvl/mxv
	BYTE	W03
	BYTE		        98*FE11FootstepsofFateSme_mvl/mxv
	BYTE	W03
	BYTE		        99*FE11FootstepsofFateSme_mvl/mxv
	BYTE	W03
	BYTE		        100*FE11FootstepsofFateSme_mvl/mxv
	BYTE	W03
	BYTE		        102*FE11FootstepsofFateSme_mvl/mxv
	BYTE	W03
	BYTE		        103*FE11FootstepsofFateSme_mvl/mxv
	BYTE	W03
	BYTE		        104*FE11FootstepsofFateSme_mvl/mxv
	BYTE	W03
	BYTE		        105*FE11FootstepsofFateSme_mvl/mxv
	BYTE	W03
	BYTE		        107*FE11FootstepsofFateSme_mvl/mxv
	BYTE	W03
	BYTE		        109*FE11FootstepsofFateSme_mvl/mxv
	BYTE	W03
	BYTE		        112*FE11FootstepsofFateSme_mvl/mxv
	BYTE	W02
	BYTE		N44     Fs2   v100
	BYTE		N23     Cs3   v092
	BYTE	W09
	BYTE		VOL     111*FE11FootstepsofFateSme_mvl/mxv
	BYTE	W08
	BYTE		        110*FE11FootstepsofFateSme_mvl/mxv
	BYTE	W07
// 002   ----------------------------------------
	BYTE		        109*FE11FootstepsofFateSme_mvl/mxv
	BYTE		N23     Bn2   v084
	BYTE	W04
	BYTE		VOL     108*FE11FootstepsofFateSme_mvl/mxv
	BYTE	W04
	BYTE		        107*FE11FootstepsofFateSme_mvl/mxv
	BYTE	W03
	BYTE		        106*FE11FootstepsofFateSme_mvl/mxv
	BYTE	W04
	BYTE		        104*FE11FootstepsofFateSme_mvl/mxv
	BYTE	W04
	BYTE		        103*FE11FootstepsofFateSme_mvl/mxv
	BYTE	W04
	BYTE		        100*FE11FootstepsofFateSme_mvl/mxv
	BYTE	W01
	BYTE		N44     Dn2   v072
	BYTE		N44     En2   v068
	BYTE		N44     An2   v076
	BYTE	W36
	BYTE	W03
	BYTE		VOL     101*FE11FootstepsofFateSme_mvl/mxv
	BYTE	W09
	BYTE		N44     En2   v084
	BYTE		N44     Fs2   v076
	BYTE		N44     Bn2   v080
	BYTE	W18
	BYTE		VOL     102*FE11FootstepsofFateSme_mvl/mxv
	BYTE	W06
// 003   ----------------------------------------
	BYTE	W08
	BYTE		        103*FE11FootstepsofFateSme_mvl/mxv
	BYTE	W16
	BYTE		N44     Bn1 
	BYTE		N44     Dn2   v088
	BYTE		N44     An2   v092
	BYTE	W11
	BYTE		VOL     104*FE11FootstepsofFateSme_mvl/mxv
	BYTE	W13
	BYTE		        104*FE11FootstepsofFateSme_mvl/mxv
	BYTE	W14
	BYTE		        106*FE11FootstepsofFateSme_mvl/mxv
	BYTE	W10
	BYTE		N44     En2   v096
	BYTE		N44     Bn2   v088
	BYTE	W03
	BYTE		VOL     107*FE11FootstepsofFateSme_mvl/mxv
	BYTE	W14
	BYTE		        109*FE11FootstepsofFateSme_mvl/mxv
	BYTE	W07
// 004   ----------------------------------------
	BYTE	W06
	BYTE		        112*FE11FootstepsofFateSme_mvl/mxv
	BYTE	W18
	BYTE		        62*FE11FootstepsofFateSme_mvl/mxv
	BYTE		PAN     c_v-64
	BYTE		VOL     62*FE11FootstepsofFateSme_mvl/mxv
	BYTE	W03
	BYTE		N80     Cs3   v096
	BYTE	W03
	BYTE		VOL     62*FE11FootstepsofFateSme_mvl/mxv
	BYTE	W06
	BYTE		        61*FE11FootstepsofFateSme_mvl/mxv
	BYTE	W03
	BYTE		        61*FE11FootstepsofFateSme_mvl/mxv
	BYTE	W03
	BYTE		        60*FE11FootstepsofFateSme_mvl/mxv
	BYTE	W03
	BYTE		        60*FE11FootstepsofFateSme_mvl/mxv
	BYTE	W03
	BYTE		        59*FE11FootstepsofFateSme_mvl/mxv
	BYTE	W03
	BYTE		        59*FE11FootstepsofFateSme_mvl/mxv
	BYTE	W03
	BYTE		        58*FE11FootstepsofFateSme_mvl/mxv
	BYTE	W03
	BYTE		        58*FE11FootstepsofFateSme_mvl/mxv
	BYTE	W03
	BYTE		        57*FE11FootstepsofFateSme_mvl/mxv
	BYTE	W03
	BYTE		        56*FE11FootstepsofFateSme_mvl/mxv
	BYTE	W03
	BYTE		        56*FE11FootstepsofFateSme_mvl/mxv
	BYTE	W03
	BYTE		        55*FE11FootstepsofFateSme_mvl/mxv
	BYTE	W03
	BYTE		        54*FE11FootstepsofFateSme_mvl/mxv
	BYTE	W03
	BYTE		        54*FE11FootstepsofFateSme_mvl/mxv
	BYTE	W03
	BYTE		        53*FE11FootstepsofFateSme_mvl/mxv
	BYTE	W03
	BYTE		        52*FE11FootstepsofFateSme_mvl/mxv
	BYTE	W03
	BYTE		        51*FE11FootstepsofFateSme_mvl/mxv
	BYTE	W03
	BYTE		        50*FE11FootstepsofFateSme_mvl/mxv
	BYTE	W03
	BYTE		        49*FE11FootstepsofFateSme_mvl/mxv
	BYTE	W03
	BYTE		        48*FE11FootstepsofFateSme_mvl/mxv
	BYTE	W03
// 005   ----------------------------------------
FE11FootstepsofFateSme_1_005:
	BYTE		VOL     47*FE11FootstepsofFateSme_mvl/mxv
	BYTE	W03
	BYTE		        45*FE11FootstepsofFateSme_mvl/mxv
	BYTE	W03
	BYTE		        44*FE11FootstepsofFateSme_mvl/mxv
	BYTE	W03
	BYTE		        42*FE11FootstepsofFateSme_mvl/mxv
	BYTE	W03
	BYTE		        41*FE11FootstepsofFateSme_mvl/mxv
	BYTE		N02     Dn3   v124
	BYTE	W03
	BYTE		VOL     40*FE11FootstepsofFateSme_mvl/mxv
	BYTE		N02     En3 
	BYTE	W03
	BYTE		VOL     38*FE11FootstepsofFateSme_mvl/mxv
	BYTE		N02     Fs3 
	BYTE	W03
	BYTE		VOL     36*FE11FootstepsofFateSme_mvl/mxv
	BYTE		N02     Gs3 
	BYTE	W02
	BYTE		VOL     34*FE11FootstepsofFateSme_mvl/mxv
	BYTE	W01
	BYTE		N02     An3 
	BYTE	W03
	BYTE		N44     Bn3   v120
	BYTE	W02
	BYTE		VOL     34*FE11FootstepsofFateSme_mvl/mxv
	BYTE	W06
	BYTE		        35*FE11FootstepsofFateSme_mvl/mxv
	BYTE	W03
	BYTE		        35*FE11FootstepsofFateSme_mvl/mxv
	BYTE	W06
	BYTE		        36*FE11FootstepsofFateSme_mvl/mxv
	BYTE	W03
	BYTE		        36*FE11FootstepsofFateSme_mvl/mxv
	BYTE	W03
	BYTE		        37*FE11FootstepsofFateSme_mvl/mxv
	BYTE	W06
	BYTE		        37*FE11FootstepsofFateSme_mvl/mxv
	BYTE	W03
	BYTE		        38*FE11FootstepsofFateSme_mvl/mxv
	BYTE	W03
	BYTE		        38*FE11FootstepsofFateSme_mvl/mxv
	BYTE	W03
	BYTE		        39*FE11FootstepsofFateSme_mvl/mxv
	BYTE	W03
	BYTE		        40*FE11FootstepsofFateSme_mvl/mxv
	BYTE	W03
	BYTE		        40*FE11FootstepsofFateSme_mvl/mxv
	BYTE	W03
	BYTE		        41*FE11FootstepsofFateSme_mvl/mxv
	BYTE	W01
	BYTE		N32     Gs3 
	BYTE	W02
	BYTE		VOL     41*FE11FootstepsofFateSme_mvl/mxv
	BYTE	W03
	BYTE		        42*FE11FootstepsofFateSme_mvl/mxv
	BYTE	W03
	BYTE		        43*FE11FootstepsofFateSme_mvl/mxv
	BYTE	W03
	BYTE		        44*FE11FootstepsofFateSme_mvl/mxv
	BYTE	W03
	BYTE		        45*FE11FootstepsofFateSme_mvl/mxv
	BYTE	W03
	BYTE		        46*FE11FootstepsofFateSme_mvl/mxv
	BYTE	W03
	BYTE		        47*FE11FootstepsofFateSme_mvl/mxv
	BYTE	W01
	BYTE	PEND
// 006   ----------------------------------------
	BYTE	W02
	BYTE		        48*FE11FootstepsofFateSme_mvl/mxv
	BYTE	W03
	BYTE		        50*FE11FootstepsofFateSme_mvl/mxv
	BYTE	W03
	BYTE		        52*FE11FootstepsofFateSme_mvl/mxv
	BYTE	W01
	BYTE		        52*FE11FootstepsofFateSme_mvl/mxv
	BYTE	W06
	BYTE		N05     Fs3   v108
	BYTE	W06
	BYTE		        Gs3   v116
	BYTE	W03
FE11FootstepsofFateSme_1_B1:
	BYTE		VOL     52*FE11FootstepsofFateSme_mvl/mxv
	BYTE	W03
	BYTE		N05     Gs3   v104
	BYTE	W03
	BYTE		VOL     52*FE11FootstepsofFateSme_mvl/mxv
	BYTE	W03
	BYTE		N05     An3   v112
	BYTE	W03
	BYTE		VOL     51*FE11FootstepsofFateSme_mvl/mxv
	BYTE	W03
	BYTE		N68     Cs3   v116
	BYTE	W03
	BYTE		VOL     51*FE11FootstepsofFateSme_mvl/mxv
	BYTE	W03
	BYTE		        50*FE11FootstepsofFateSme_mvl/mxv
	BYTE	W06
	BYTE		        50*FE11FootstepsofFateSme_mvl/mxv
	BYTE	W03
	BYTE		        49*FE11FootstepsofFateSme_mvl/mxv
	BYTE	W03
	BYTE		        49*FE11FootstepsofFateSme_mvl/mxv
	BYTE	W06
	BYTE		        48*FE11FootstepsofFateSme_mvl/mxv
	BYTE	W03
	BYTE		        48*FE11FootstepsofFateSme_mvl/mxv
	BYTE	W03
	BYTE		        47*FE11FootstepsofFateSme_mvl/mxv
	BYTE	W03
	BYTE		        47*FE11FootstepsofFateSme_mvl/mxv
	BYTE	W03
	BYTE		        46*FE11FootstepsofFateSme_mvl/mxv
	BYTE	W03
	BYTE		        46*FE11FootstepsofFateSme_mvl/mxv
	BYTE	W03
	BYTE		        45*FE11FootstepsofFateSme_mvl/mxv
	BYTE	W03
	BYTE		        45*FE11FootstepsofFateSme_mvl/mxv
	BYTE	W03
	BYTE		        44*FE11FootstepsofFateSme_mvl/mxv
	BYTE	W03
	BYTE		        43*FE11FootstepsofFateSme_mvl/mxv
	BYTE	W03
	BYTE		        43*FE11FootstepsofFateSme_mvl/mxv
	BYTE	W03
// 007   ----------------------------------------
	BYTE		        42*FE11FootstepsofFateSme_mvl/mxv
	BYTE	W03
	BYTE		        41*FE11FootstepsofFateSme_mvl/mxv
	BYTE	W03
	BYTE		        41*FE11FootstepsofFateSme_mvl/mxv
	BYTE	W03
	BYTE		        40*FE11FootstepsofFateSme_mvl/mxv
	BYTE	W03
	BYTE		        39*FE11FootstepsofFateSme_mvl/mxv
	BYTE		N02     Fs3   v127
	BYTE	W03
	BYTE		VOL     38*FE11FootstepsofFateSme_mvl/mxv
	BYTE		N05     An3   v100
	BYTE	W02
	BYTE		VOL     37*FE11FootstepsofFateSme_mvl/mxv
	BYTE	W04
	BYTE		N05     Gs3   v112
	BYTE	W05
	BYTE		VOL     38*FE11FootstepsofFateSme_mvl/mxv
	BYTE	W01
	BYTE		N44     Bn2   v120
	BYTE	W05
	BYTE		VOL     38*FE11FootstepsofFateSme_mvl/mxv
	BYTE	W06
	BYTE		        39*FE11FootstepsofFateSme_mvl/mxv
	BYTE	W06
	BYTE		        39*FE11FootstepsofFateSme_mvl/mxv
	BYTE	W03
	BYTE		        40*FE11FootstepsofFateSme_mvl/mxv
	BYTE	W06
	BYTE		        40*FE11FootstepsofFateSme_mvl/mxv
	BYTE	W03
	BYTE		        41*FE11FootstepsofFateSme_mvl/mxv
	BYTE	W06
	BYTE		        41*FE11FootstepsofFateSme_mvl/mxv
	BYTE	W03
	BYTE		        41*FE11FootstepsofFateSme_mvl/mxv
	BYTE	W03
	BYTE		        42*FE11FootstepsofFateSme_mvl/mxv
	BYTE	W03
	BYTE		        42*FE11FootstepsofFateSme_mvl/mxv
	BYTE	W03
	BYTE		        43*FE11FootstepsofFateSme_mvl/mxv
	BYTE	W01
	BYTE		N44     En3 
	BYTE	W02
	BYTE		VOL     43*FE11FootstepsofFateSme_mvl/mxv
	BYTE	W03
	BYTE		        44*FE11FootstepsofFateSme_mvl/mxv
	BYTE	W03
	BYTE		        44*FE11FootstepsofFateSme_mvl/mxv
	BYTE	W03
	BYTE		        45*FE11FootstepsofFateSme_mvl/mxv
	BYTE	W03
	BYTE		        46*FE11FootstepsofFateSme_mvl/mxv
	BYTE	W03
	BYTE		        46*FE11FootstepsofFateSme_mvl/mxv
	BYTE	W03
	BYTE		        47*FE11FootstepsofFateSme_mvl/mxv
	BYTE	W01
// 008   ----------------------------------------
	BYTE	W02
	BYTE		        48*FE11FootstepsofFateSme_mvl/mxv
	BYTE	W03
	BYTE		        49*FE11FootstepsofFateSme_mvl/mxv
	BYTE	W03
	BYTE		        50*FE11FootstepsofFateSme_mvl/mxv
	BYTE	W03
	BYTE		        51*FE11FootstepsofFateSme_mvl/mxv
	BYTE	W03
	BYTE		        52*FE11FootstepsofFateSme_mvl/mxv
	BYTE	W11
	BYTE		        52*FE11FootstepsofFateSme_mvl/mxv
	BYTE	W06
	BYTE		        52*FE11FootstepsofFateSme_mvl/mxv
	BYTE	W07
	BYTE		        51*FE11FootstepsofFateSme_mvl/mxv
	BYTE	W07
	BYTE		        51*FE11FootstepsofFateSme_mvl/mxv
	BYTE	W06
	BYTE		        50*FE11FootstepsofFateSme_mvl/mxv
	BYTE	W03
	BYTE		        50*FE11FootstepsofFateSme_mvl/mxv
	BYTE	W04
	BYTE		        49*FE11FootstepsofFateSme_mvl/mxv
	BYTE	W06
	BYTE		        49*FE11FootstepsofFateSme_mvl/mxv
	BYTE	W04
	BYTE		        48*FE11FootstepsofFateSme_mvl/mxv
	BYTE	W03
	BYTE		        48*FE11FootstepsofFateSme_mvl/mxv
	BYTE	W03
	BYTE		        47*FE11FootstepsofFateSme_mvl/mxv
	BYTE	W04
	BYTE		        47*FE11FootstepsofFateSme_mvl/mxv
	BYTE	W03
	BYTE		        46*FE11FootstepsofFateSme_mvl/mxv
	BYTE	W03
	BYTE		        46*FE11FootstepsofFateSme_mvl/mxv
	BYTE	W03
	BYTE		        45*FE11FootstepsofFateSme_mvl/mxv
	BYTE	W04
	BYTE		        45*FE11FootstepsofFateSme_mvl/mxv
	BYTE	W03
	BYTE		        44*FE11FootstepsofFateSme_mvl/mxv
	BYTE	W02
// 009   ----------------------------------------
	BYTE	W01
	BYTE		        44*FE11FootstepsofFateSme_mvl/mxv
	BYTE	W04
	BYTE		        43*FE11FootstepsofFateSme_mvl/mxv
	BYTE	W03
	BYTE		        42*FE11FootstepsofFateSme_mvl/mxv
	BYTE	W03
	BYTE		        41*FE11FootstepsofFateSme_mvl/mxv
	BYTE	W04
	BYTE		        41*FE11FootstepsofFateSme_mvl/mxv
	BYTE	W03
	BYTE		        40*FE11FootstepsofFateSme_mvl/mxv
	BYTE	W03
	BYTE		        39*FE11FootstepsofFateSme_mvl/mxv
	BYTE	W01
	BYTE		        39*FE11FootstepsofFateSme_mvl/mxv
	BYTE	W72
	BYTE	W02
// 010   ----------------------------------------
	BYTE	W96
// 011   ----------------------------------------
	BYTE	W23
	BYTE		        39*FE11FootstepsofFateSme_mvl/mxv
	BYTE	W01
	BYTE		        68*FE11FootstepsofFateSme_mvl/mxv
	BYTE		PAN     c_v+12
	BYTE		VOL     108*FE11FootstepsofFateSme_mvl/mxv
	BYTE	W72
// 012   ----------------------------------------
	BYTE		N05     An2   v088
	BYTE	W06
	BYTE		        Gs2 
	BYTE	W06
	BYTE		        En2 
	BYTE	W06
	BYTE		        Bn1 
	BYTE	W78
// 013   ----------------------------------------
	BYTE	W96
// 014   ----------------------------------------
	BYTE	W96
// 015   ----------------------------------------
	BYTE	W96
// 016   ----------------------------------------
	BYTE	W96
// 017   ----------------------------------------
	BYTE	W96
// 018   ----------------------------------------
	BYTE	W96
// 019   ----------------------------------------
	BYTE	W96
// 020   ----------------------------------------
	BYTE	W24
	BYTE		VOL     112*FE11FootstepsofFateSme_mvl/mxv
	BYTE		PAN     c_v-14
	BYTE		VOL     112*FE11FootstepsofFateSme_mvl/mxv
	BYTE		BEND    c_v+1
	BYTE		TIE     Gn1   v096
	BYTE		TIE     Bn2   v080
	BYTE		N92     Fs3   v064
	BYTE	W32
	BYTE	W01
	BYTE		VOL     112*FE11FootstepsofFateSme_mvl/mxv
	BYTE	W08
	BYTE		        111*FE11FootstepsofFateSme_mvl/mxv
	BYTE	W04
	BYTE		        110*FE11FootstepsofFateSme_mvl/mxv
	BYTE	W04
	BYTE		        109*FE11FootstepsofFateSme_mvl/mxv
	BYTE	W03
	BYTE		        108*FE11FootstepsofFateSme_mvl/mxv
	BYTE	W04
	BYTE		        107*FE11FootstepsofFateSme_mvl/mxv
	BYTE	W04
	BYTE		        106*FE11FootstepsofFateSme_mvl/mxv
	BYTE	W04
	BYTE		        105*FE11FootstepsofFateSme_mvl/mxv
	BYTE	W04
	BYTE		        104*FE11FootstepsofFateSme_mvl/mxv
	BYTE	W04
// 021   ----------------------------------------
	BYTE		        104*FE11FootstepsofFateSme_mvl/mxv
	BYTE	W03
	BYTE		        103*FE11FootstepsofFateSme_mvl/mxv
	BYTE	W04
	BYTE		        102*FE11FootstepsofFateSme_mvl/mxv
	BYTE	W04
	BYTE		        101*FE11FootstepsofFateSme_mvl/mxv
	BYTE	W04
	BYTE		        100*FE11FootstepsofFateSme_mvl/mxv
	BYTE	W04
	BYTE		        99*FE11FootstepsofFateSme_mvl/mxv
	BYTE	W04
	BYTE		        98*FE11FootstepsofFateSme_mvl/mxv
	BYTE	W01
	BYTE		N92     Fs3   v076
	BYTE	W03
	BYTE		VOL     97*FE11FootstepsofFateSme_mvl/mxv
	BYTE	W03
	BYTE		        97*FE11FootstepsofFateSme_mvl/mxv
	BYTE	W04
	BYTE		        96*FE11FootstepsofFateSme_mvl/mxv
	BYTE	W04
	BYTE		        95*FE11FootstepsofFateSme_mvl/mxv
	BYTE	W04
	BYTE		        94*FE11FootstepsofFateSme_mvl/mxv
	BYTE	W04
	BYTE		        93*FE11FootstepsofFateSme_mvl/mxv
	BYTE	W04
	BYTE		        92*FE11FootstepsofFateSme_mvl/mxv
	BYTE	W04
	BYTE		        91*FE11FootstepsofFateSme_mvl/mxv
	BYTE	W03
	BYTE		        90*FE11FootstepsofFateSme_mvl/mxv
	BYTE	W04
	BYTE		        89*FE11FootstepsofFateSme_mvl/mxv
	BYTE	W04
	BYTE		        89*FE11FootstepsofFateSme_mvl/mxv
	BYTE	W04
	BYTE		        88*FE11FootstepsofFateSme_mvl/mxv
	BYTE	W04
	BYTE		        87*FE11FootstepsofFateSme_mvl/mxv
	BYTE	W04
	BYTE		        86*FE11FootstepsofFateSme_mvl/mxv
	BYTE	W03
	BYTE		        85*FE11FootstepsofFateSme_mvl/mxv
	BYTE	W04
	BYTE		        84*FE11FootstepsofFateSme_mvl/mxv
	BYTE	W04
	BYTE		        83*FE11FootstepsofFateSme_mvl/mxv
	BYTE	W04
	BYTE		        82*FE11FootstepsofFateSme_mvl/mxv
	BYTE	W04
// 022   ----------------------------------------
	BYTE		        82*FE11FootstepsofFateSme_mvl/mxv
	BYTE	W04
	BYTE		        81*FE11FootstepsofFateSme_mvl/mxv
	BYTE	W04
	BYTE		        80*FE11FootstepsofFateSme_mvl/mxv
	BYTE	W03
	BYTE		        79*FE11FootstepsofFateSme_mvl/mxv
	BYTE	W04
	BYTE		        78*FE11FootstepsofFateSme_mvl/mxv
	BYTE	W04
	BYTE		        77*FE11FootstepsofFateSme_mvl/mxv
	BYTE	W04
	BYTE		EOT     Gn1 
	BYTE		        Bn2 
	BYTE		VOL     76*FE11FootstepsofFateSme_mvl/mxv
	BYTE	W01
	BYTE		        75*FE11FootstepsofFateSme_mvl/mxv
	BYTE		TIE     Gs1   v092
	BYTE		TIE     Bn2   v076
	BYTE		N92     Fs3   v068
	BYTE	W12
	BYTE		VOL     76*FE11FootstepsofFateSme_mvl/mxv
	BYTE	W09
	BYTE		        77*FE11FootstepsofFateSme_mvl/mxv
	BYTE	W04
	BYTE		        78*FE11FootstepsofFateSme_mvl/mxv
	BYTE	W09
	BYTE		        79*FE11FootstepsofFateSme_mvl/mxv
	BYTE	W08
	BYTE		        80*FE11FootstepsofFateSme_mvl/mxv
	BYTE	W05
	BYTE		        81*FE11FootstepsofFateSme_mvl/mxv
	BYTE	W08
	BYTE		        82*FE11FootstepsofFateSme_mvl/mxv
	BYTE	W04
	BYTE		        82*FE11FootstepsofFateSme_mvl/mxv
	BYTE	W05
	BYTE		        83*FE11FootstepsofFateSme_mvl/mxv
	BYTE	W04
	BYTE		        84*FE11FootstepsofFateSme_mvl/mxv
	BYTE	W04
// 023   ----------------------------------------
	BYTE	W04
	BYTE		        85*FE11FootstepsofFateSme_mvl/mxv
	BYTE	W05
	BYTE		        86*FE11FootstepsofFateSme_mvl/mxv
	BYTE	W04
	BYTE		        87*FE11FootstepsofFateSme_mvl/mxv
	BYTE	W04
	BYTE		        88*FE11FootstepsofFateSme_mvl/mxv
	BYTE	W05
	BYTE		        89*FE11FootstepsofFateSme_mvl/mxv
	BYTE	W02
	BYTE		N92     Fs3   v084
	BYTE	W02
	BYTE		VOL     90*FE11FootstepsofFateSme_mvl/mxv
	BYTE	W04
	BYTE		        91*FE11FootstepsofFateSme_mvl/mxv
	BYTE	W04
	BYTE		        92*FE11FootstepsofFateSme_mvl/mxv
	BYTE	W05
	BYTE		        94*FE11FootstepsofFateSme_mvl/mxv
	BYTE	W04
	BYTE		        95*FE11FootstepsofFateSme_mvl/mxv
	BYTE	W04
	BYTE		        97*FE11FootstepsofFateSme_mvl/mxv
	BYTE	W04
	BYTE		        98*FE11FootstepsofFateSme_mvl/mxv
	BYTE	W05
	BYTE		        99*FE11FootstepsofFateSme_mvl/mxv
	BYTE	W04
	BYTE		        101*FE11FootstepsofFateSme_mvl/mxv
	BYTE	W04
	BYTE		        104*FE11FootstepsofFateSme_mvl/mxv
	BYTE	W03
	BYTE		        103*FE11FootstepsofFateSme_mvl/mxv
	BYTE	W02
	BYTE		        102*FE11FootstepsofFateSme_mvl/mxv
	BYTE	W03
	BYTE		        101*FE11FootstepsofFateSme_mvl/mxv
	BYTE	W01
	BYTE		        100*FE11FootstepsofFateSme_mvl/mxv
	BYTE	W02
	BYTE		        99*FE11FootstepsofFateSme_mvl/mxv
	BYTE	W01
	BYTE		        98*FE11FootstepsofFateSme_mvl/mxv
	BYTE	W02
	BYTE		        97*FE11FootstepsofFateSme_mvl/mxv
	BYTE	W01
	BYTE		        97*FE11FootstepsofFateSme_mvl/mxv
	BYTE	W02
	BYTE		        96*FE11FootstepsofFateSme_mvl/mxv
	BYTE	W01
	BYTE		        95*FE11FootstepsofFateSme_mvl/mxv
	BYTE	W02
	BYTE		        94*FE11FootstepsofFateSme_mvl/mxv
	BYTE	W01
	BYTE		        93*FE11FootstepsofFateSme_mvl/mxv
	BYTE	W02
	BYTE		        92*FE11FootstepsofFateSme_mvl/mxv
	BYTE	W01
	BYTE		        91*FE11FootstepsofFateSme_mvl/mxv
	BYTE	W02
	BYTE		        89*FE11FootstepsofFateSme_mvl/mxv
	BYTE	W01
	BYTE		        89*FE11FootstepsofFateSme_mvl/mxv
	BYTE	W02
	BYTE		        87*FE11FootstepsofFateSme_mvl/mxv
	BYTE	W01
	BYTE		        86*FE11FootstepsofFateSme_mvl/mxv
	BYTE	W02
// 024   ----------------------------------------
	BYTE		        84*FE11FootstepsofFateSme_mvl/mxv
	BYTE	W01
	BYTE		        83*FE11FootstepsofFateSme_mvl/mxv
	BYTE	W02
	BYTE		        82*FE11FootstepsofFateSme_mvl/mxv
	BYTE	W01
	BYTE		        80*FE11FootstepsofFateSme_mvl/mxv
	BYTE	W02
	BYTE		        78*FE11FootstepsofFateSme_mvl/mxv
	BYTE	W01
	BYTE		        76*FE11FootstepsofFateSme_mvl/mxv
	BYTE	W02
	BYTE		        74*FE11FootstepsofFateSme_mvl/mxv
	BYTE	W01
	BYTE		        73*FE11FootstepsofFateSme_mvl/mxv
	BYTE	W02
	BYTE		        70*FE11FootstepsofFateSme_mvl/mxv
	BYTE	W01
	BYTE		        68*FE11FootstepsofFateSme_mvl/mxv
	BYTE	W02
	BYTE		        66*FE11FootstepsofFateSme_mvl/mxv
	BYTE	W01
	BYTE		        63*FE11FootstepsofFateSme_mvl/mxv
	BYTE	W02
	BYTE		        59*FE11FootstepsofFateSme_mvl/mxv
	BYTE	W01
	BYTE		        57*FE11FootstepsofFateSme_mvl/mxv
	BYTE	W02
	BYTE		        52*FE11FootstepsofFateSme_mvl/mxv
	BYTE	W02
	BYTE		EOT     Gs1 
	BYTE		        Bn2 
	BYTE	W01
	BYTE		TIE     Gn1   v116
	BYTE		TIE     Bn2   v100
	BYTE	W03
	BYTE		VOL     53*FE11FootstepsofFateSme_mvl/mxv
	BYTE	W06
	BYTE		        54*FE11FootstepsofFateSme_mvl/mxv
	BYTE	W06
	BYTE		        55*FE11FootstepsofFateSme_mvl/mxv
	BYTE	W06
	BYTE		        56*FE11FootstepsofFateSme_mvl/mxv
	BYTE	W03
	BYTE		        57*FE11FootstepsofFateSme_mvl/mxv
	BYTE	W06
	BYTE		        58*FE11FootstepsofFateSme_mvl/mxv
	BYTE	W06
	BYTE		        59*FE11FootstepsofFateSme_mvl/mxv
	BYTE	W03
	BYTE		        59*FE11FootstepsofFateSme_mvl/mxv
	BYTE	W06
	BYTE		        60*FE11FootstepsofFateSme_mvl/mxv
	BYTE	W03
	BYTE		        61*FE11FootstepsofFateSme_mvl/mxv
	BYTE	W03
	BYTE		        62*FE11FootstepsofFateSme_mvl/mxv
	BYTE	W06
	BYTE		        63*FE11FootstepsofFateSme_mvl/mxv
	BYTE	W03
	BYTE		        64*FE11FootstepsofFateSme_mvl/mxv
	BYTE	W03
	BYTE		        65*FE11FootstepsofFateSme_mvl/mxv
	BYTE	W06
	BYTE		        66*FE11FootstepsofFateSme_mvl/mxv
	BYTE	W03
// 025   ----------------------------------------
	BYTE		        67*FE11FootstepsofFateSme_mvl/mxv
	BYTE	W03
	BYTE		        67*FE11FootstepsofFateSme_mvl/mxv
	BYTE	W03
	BYTE		        68*FE11FootstepsofFateSme_mvl/mxv
	BYTE	W03
	BYTE		        69*FE11FootstepsofFateSme_mvl/mxv
	BYTE	W03
	BYTE		        70*FE11FootstepsofFateSme_mvl/mxv
	BYTE	W03
	BYTE		        71*FE11FootstepsofFateSme_mvl/mxv
	BYTE	W03
	BYTE		        72*FE11FootstepsofFateSme_mvl/mxv
	BYTE	W03
	BYTE		        73*FE11FootstepsofFateSme_mvl/mxv
	BYTE	W03
	BYTE		        74*FE11FootstepsofFateSme_mvl/mxv
	BYTE	W03
	BYTE		        74*FE11FootstepsofFateSme_mvl/mxv
	BYTE	W03
	BYTE		        75*FE11FootstepsofFateSme_mvl/mxv
	BYTE	W03
	BYTE		        76*FE11FootstepsofFateSme_mvl/mxv
	BYTE	W03
	BYTE		        77*FE11FootstepsofFateSme_mvl/mxv
	BYTE	W03
	BYTE		        78*FE11FootstepsofFateSme_mvl/mxv
	BYTE	W03
	BYTE		        79*FE11FootstepsofFateSme_mvl/mxv
	BYTE	W03
	BYTE		        81*FE11FootstepsofFateSme_mvl/mxv
	BYTE	W03
	BYTE		        82*FE11FootstepsofFateSme_mvl/mxv
	BYTE	W03
	BYTE		        82*FE11FootstepsofFateSme_mvl/mxv
	BYTE	W03
	BYTE		        84*FE11FootstepsofFateSme_mvl/mxv
	BYTE	W03
	BYTE		        85*FE11FootstepsofFateSme_mvl/mxv
	BYTE	W03
	BYTE		        87*FE11FootstepsofFateSme_mvl/mxv
	BYTE	W03
	BYTE		        88*FE11FootstepsofFateSme_mvl/mxv
	BYTE	W03
	BYTE		        89*FE11FootstepsofFateSme_mvl/mxv
	BYTE	W03
	BYTE		        90*FE11FootstepsofFateSme_mvl/mxv
	BYTE	W03
	BYTE		        92*FE11FootstepsofFateSme_mvl/mxv
	BYTE	W03
	BYTE		        94*FE11FootstepsofFateSme_mvl/mxv
	BYTE	W03
	BYTE		        95*FE11FootstepsofFateSme_mvl/mxv
	BYTE	W03
	BYTE		        97*FE11FootstepsofFateSme_mvl/mxv
	BYTE	W03
	BYTE		        98*FE11FootstepsofFateSme_mvl/mxv
	BYTE	W03
	BYTE		        100*FE11FootstepsofFateSme_mvl/mxv
	BYTE	W03
	BYTE		        102*FE11FootstepsofFateSme_mvl/mxv
	BYTE	W03
	BYTE		        104*FE11FootstepsofFateSme_mvl/mxv
	BYTE	W03
// 026   ----------------------------------------
	BYTE		        105*FE11FootstepsofFateSme_mvl/mxv
	BYTE	W03
	BYTE		        108*FE11FootstepsofFateSme_mvl/mxv
	BYTE	W03
	BYTE		        110*FE11FootstepsofFateSme_mvl/mxv
	BYTE	W02
	BYTE		        112*FE11FootstepsofFateSme_mvl/mxv
	BYTE	W01
	BYTE		        110*FE11FootstepsofFateSme_mvl/mxv
	BYTE	W01
	BYTE		        109*FE11FootstepsofFateSme_mvl/mxv
	BYTE	W01
	BYTE		        107*FE11FootstepsofFateSme_mvl/mxv
	BYTE	W01
	BYTE		        104*FE11FootstepsofFateSme_mvl/mxv
	BYTE	W01
	BYTE		        103*FE11FootstepsofFateSme_mvl/mxv
	BYTE	W01
	BYTE		        101*FE11FootstepsofFateSme_mvl/mxv
	BYTE	W01
	BYTE		        97*FE11FootstepsofFateSme_mvl/mxv
	BYTE	W01
	BYTE		        96*FE11FootstepsofFateSme_mvl/mxv
	BYTE	W01
	BYTE		        93*FE11FootstepsofFateSme_mvl/mxv
	BYTE	W01
	BYTE		        88*FE11FootstepsofFateSme_mvl/mxv
	BYTE	W01
	BYTE		        85*FE11FootstepsofFateSme_mvl/mxv
	BYTE	W01
	BYTE		        82*FE11FootstepsofFateSme_mvl/mxv
	BYTE	W01
	BYTE		        74*FE11FootstepsofFateSme_mvl/mxv
	BYTE	W01
	BYTE		        70*FE11FootstepsofFateSme_mvl/mxv
	BYTE	W01
	BYTE		EOT     Gn1 
	BYTE		        Bn2 
	BYTE		VOL     65*FE11FootstepsofFateSme_mvl/mxv
	BYTE	W01
	BYTE		        53*FE11FootstepsofFateSme_mvl/mxv
	BYTE		TIE     Gs1   v124
	BYTE		TIE     Bn2   v108
	BYTE	W01
	BYTE		VOL     50*FE11FootstepsofFateSme_mvl/mxv
	BYTE	W09
	BYTE		        51*FE11FootstepsofFateSme_mvl/mxv
	BYTE	W06
	BYTE		        52*FE11FootstepsofFateSme_mvl/mxv
	BYTE	W06
	BYTE		        52*FE11FootstepsofFateSme_mvl/mxv
	BYTE	W06
	BYTE		        53*FE11FootstepsofFateSme_mvl/mxv
	BYTE	W03
	BYTE		        54*FE11FootstepsofFateSme_mvl/mxv
	BYTE	W06
	BYTE		        55*FE11FootstepsofFateSme_mvl/mxv
	BYTE	W06
	BYTE		        56*FE11FootstepsofFateSme_mvl/mxv
	BYTE	W03
	BYTE		        57*FE11FootstepsofFateSme_mvl/mxv
	BYTE	W06
	BYTE		        58*FE11FootstepsofFateSme_mvl/mxv
	BYTE	W06
	BYTE		        59*FE11FootstepsofFateSme_mvl/mxv
	BYTE	W03
	BYTE		        59*FE11FootstepsofFateSme_mvl/mxv
	BYTE	W03
	BYTE		        60*FE11FootstepsofFateSme_mvl/mxv
	BYTE	W06
	BYTE		        61*FE11FootstepsofFateSme_mvl/mxv
	BYTE	W02
// 027   ----------------------------------------
	BYTE	W01
	BYTE		        62*FE11FootstepsofFateSme_mvl/mxv
	BYTE	W03
	BYTE		        63*FE11FootstepsofFateSme_mvl/mxv
	BYTE	W03
	BYTE		        64*FE11FootstepsofFateSme_mvl/mxv
	BYTE	W06
	BYTE		        65*FE11FootstepsofFateSme_mvl/mxv
	BYTE	W03
	BYTE		        66*FE11FootstepsofFateSme_mvl/mxv
	BYTE	W03
	BYTE		        67*FE11FootstepsofFateSme_mvl/mxv
	BYTE	W03
	BYTE		        67*FE11FootstepsofFateSme_mvl/mxv
	BYTE	W03
	BYTE		        68*FE11FootstepsofFateSme_mvl/mxv
	BYTE	W03
	BYTE		        69*FE11FootstepsofFateSme_mvl/mxv
	BYTE	W03
	BYTE		        70*FE11FootstepsofFateSme_mvl/mxv
	BYTE	W03
	BYTE		        71*FE11FootstepsofFateSme_mvl/mxv
	BYTE	W03
	BYTE		        72*FE11FootstepsofFateSme_mvl/mxv
	BYTE	W03
	BYTE		        74*FE11FootstepsofFateSme_mvl/mxv
	BYTE	W03
	BYTE		        74*FE11FootstepsofFateSme_mvl/mxv
	BYTE	W03
	BYTE		        75*FE11FootstepsofFateSme_mvl/mxv
	BYTE	W03
	BYTE		        76*FE11FootstepsofFateSme_mvl/mxv
	BYTE	W03
	BYTE		        78*FE11FootstepsofFateSme_mvl/mxv
	BYTE	W03
	BYTE		        79*FE11FootstepsofFateSme_mvl/mxv
	BYTE	W03
	BYTE		        80*FE11FootstepsofFateSme_mvl/mxv
	BYTE	W03
	BYTE		        82*FE11FootstepsofFateSme_mvl/mxv
	BYTE	W03
	BYTE		        82*FE11FootstepsofFateSme_mvl/mxv
	BYTE	W03
	BYTE		        84*FE11FootstepsofFateSme_mvl/mxv
	BYTE	W03
	BYTE		        86*FE11FootstepsofFateSme_mvl/mxv
	BYTE	W01
	BYTE		EOT     Gs1 
	BYTE		        Bn2 
	BYTE	W01
	BYTE		N23     Gs1   v124
	BYTE		N23     Bn2   v108
	BYTE	W01
	BYTE		VOL     87*FE11FootstepsofFateSme_mvl/mxv
	BYTE	W03
	BYTE		        89*FE11FootstepsofFateSme_mvl/mxv
	BYTE	W03
	BYTE		        90*FE11FootstepsofFateSme_mvl/mxv
	BYTE	W03
	BYTE		        92*FE11FootstepsofFateSme_mvl/mxv
	BYTE	W03
	BYTE		        94*FE11FootstepsofFateSme_mvl/mxv
	BYTE	W03
	BYTE		        96*FE11FootstepsofFateSme_mvl/mxv
	BYTE	W03
	BYTE		        98*FE11FootstepsofFateSme_mvl/mxv
	BYTE	W03
	BYTE		        100*FE11FootstepsofFateSme_mvl/mxv
	BYTE	W02
// 028   ----------------------------------------
	BYTE		N23     Gn1   v124
	BYTE		N23     Bn2   v108
	BYTE	W01
	BYTE		VOL     102*FE11FootstepsofFateSme_mvl/mxv
	BYTE	W03
	BYTE		        104*FE11FootstepsofFateSme_mvl/mxv
	BYTE	W03
	BYTE		        107*FE11FootstepsofFateSme_mvl/mxv
	BYTE	W03
	BYTE		        110*FE11FootstepsofFateSme_mvl/mxv
	BYTE	W02
	BYTE		        112*FE11FootstepsofFateSme_mvl/mxv
	BYTE	W12
	BYTE		N44     Fs2   v104
	BYTE	W48
	BYTE		        Cs3   v116
	BYTE	W24
// 029   ----------------------------------------
	BYTE	W24
	BYTE		        Gs2   v088
	BYTE		N44     Gs3   v100
	BYTE	W48
	BYTE		        An2   v088
	BYTE		N44     An3   v100
	BYTE	W24
// 030   ----------------------------------------
	BYTE	W24
	BYTE		        Gs2   v092
	BYTE		N44     Gs3   v104
	BYTE	W48
	BYTE		        Dn2   v100
	BYTE		N68     Cs3 
	BYTE	W24
// 031   ----------------------------------------
	BYTE	W24
	BYTE		N44     Dn2   v088
	BYTE	W24
	BYTE		N23     An2   v104
	BYTE		N20     Dn3   v108
	BYTE	W24
	BYTE		N44     En2   v104
	BYTE		N44     Gs2   v108
	BYTE		N23     En3   v100
	BYTE	W24
// 032   ----------------------------------------
	BYTE		        Dn3   v108
	BYTE	W24
	BYTE		N48     Cs3   v100
	BYTE	W48
	BYTE		N44     Fs2   v088
	BYTE	W24
// 033   ----------------------------------------
	BYTE	W24
	BYTE		N92     Fs2   v092
	BYTE	W48
	BYTE		N44     Gs2   v072
	BYTE	W24
// 034   ----------------------------------------
	BYTE	W24
	BYTE		N92     Fs2   v100
	BYTE		N44     An2   v096
	BYTE	W48
	BYTE		        Bn2   v084
	BYTE	W24
// 035   ----------------------------------------
	BYTE	W24
	BYTE		N92     En2   v100
	BYTE		N23     Cs3   v088
	BYTE	W24
	BYTE		        Bn2 
	BYTE	W24
	BYTE		        En3 
	BYTE	W24
// 036   ----------------------------------------
	BYTE		        Dn3   v100
	BYTE	W24
	BYTE		VOL     112*FE11FootstepsofFateSme_mvl/mxv
	BYTE		N92     An2   v108
	BYTE		N92     Cs3 
	BYTE	W01
	BYTE		VOL     110*FE11FootstepsofFateSme_mvl/mxv
	BYTE	W02
	BYTE		        108*FE11FootstepsofFateSme_mvl/mxv
	BYTE	W01
	BYTE		        106*FE11FootstepsofFateSme_mvl/mxv
	BYTE	W02
	BYTE		        104*FE11FootstepsofFateSme_mvl/mxv
	BYTE	W01
	BYTE		        103*FE11FootstepsofFateSme_mvl/mxv
	BYTE	W02
	BYTE		        101*FE11FootstepsofFateSme_mvl/mxv
	BYTE	W01
	BYTE		        99*FE11FootstepsofFateSme_mvl/mxv
	BYTE	W02
	BYTE		        97*FE11FootstepsofFateSme_mvl/mxv
	BYTE	W01
	BYTE		        95*FE11FootstepsofFateSme_mvl/mxv
	BYTE	W02
	BYTE		        93*FE11FootstepsofFateSme_mvl/mxv
	BYTE	W01
	BYTE		        91*FE11FootstepsofFateSme_mvl/mxv
	BYTE	W02
	BYTE		        89*FE11FootstepsofFateSme_mvl/mxv
	BYTE	W01
	BYTE		        88*FE11FootstepsofFateSme_mvl/mxv
	BYTE	W02
	BYTE		        86*FE11FootstepsofFateSme_mvl/mxv
	BYTE	W01
	BYTE		        83*FE11FootstepsofFateSme_mvl/mxv
	BYTE	W02
	BYTE		        82*FE11FootstepsofFateSme_mvl/mxv
	BYTE	W01
	BYTE		        80*FE11FootstepsofFateSme_mvl/mxv
	BYTE	W02
	BYTE		        78*FE11FootstepsofFateSme_mvl/mxv
	BYTE	W01
	BYTE		        76*FE11FootstepsofFateSme_mvl/mxv
	BYTE	W02
	BYTE		        74*FE11FootstepsofFateSme_mvl/mxv
	BYTE	W01
	BYTE		        73*FE11FootstepsofFateSme_mvl/mxv
	BYTE	W02
	BYTE		        70*FE11FootstepsofFateSme_mvl/mxv
	BYTE	W01
	BYTE		        68*FE11FootstepsofFateSme_mvl/mxv
	BYTE	W02
	BYTE		        67*FE11FootstepsofFateSme_mvl/mxv
	BYTE	W01
	BYTE		        65*FE11FootstepsofFateSme_mvl/mxv
	BYTE	W02
	BYTE		        63*FE11FootstepsofFateSme_mvl/mxv
	BYTE	W01
	BYTE		        61*FE11FootstepsofFateSme_mvl/mxv
	BYTE	W02
	BYTE		        59*FE11FootstepsofFateSme_mvl/mxv
	BYTE	W01
	BYTE		        57*FE11FootstepsofFateSme_mvl/mxv
	BYTE	W02
	BYTE		        55*FE11FootstepsofFateSme_mvl/mxv
	BYTE	W01
	BYTE		        53*FE11FootstepsofFateSme_mvl/mxv
	BYTE	W02
	BYTE		        52*FE11FootstepsofFateSme_mvl/mxv
	BYTE	W01
	BYTE		        50*FE11FootstepsofFateSme_mvl/mxv
	BYTE	W02
	BYTE		        48*FE11FootstepsofFateSme_mvl/mxv
	BYTE	W01
	BYTE		        46*FE11FootstepsofFateSme_mvl/mxv
	BYTE	W02
	BYTE		        44*FE11FootstepsofFateSme_mvl/mxv
	BYTE	W01
	BYTE		        42*FE11FootstepsofFateSme_mvl/mxv
	BYTE	W02
	BYTE		        40*FE11FootstepsofFateSme_mvl/mxv
	BYTE	W01
	BYTE		        38*FE11FootstepsofFateSme_mvl/mxv
	BYTE	W02
	BYTE		        37*FE11FootstepsofFateSme_mvl/mxv
	BYTE	W01
	BYTE		        35*FE11FootstepsofFateSme_mvl/mxv
	BYTE	W02
	BYTE		        33*FE11FootstepsofFateSme_mvl/mxv
	BYTE	W01
	BYTE		        30*FE11FootstepsofFateSme_mvl/mxv
	BYTE	W02
	BYTE		        29*FE11FootstepsofFateSme_mvl/mxv
	BYTE	W01
	BYTE		        27*FE11FootstepsofFateSme_mvl/mxv
	BYTE	W02
	BYTE		        25*FE11FootstepsofFateSme_mvl/mxv
	BYTE	W01
	BYTE		        23*FE11FootstepsofFateSme_mvl/mxv
	BYTE	W02
// 037   ----------------------------------------
	BYTE		        22*FE11FootstepsofFateSme_mvl/mxv
	BYTE	W01
	BYTE		        20*FE11FootstepsofFateSme_mvl/mxv
	BYTE	W02
	BYTE		        17*FE11FootstepsofFateSme_mvl/mxv
	BYTE	W92
	BYTE	W01
// 038   ----------------------------------------
	BYTE	W01
	BYTE		        17*FE11FootstepsofFateSme_mvl/mxv
	BYTE	W01
	BYTE		        26*FE11FootstepsofFateSme_mvl/mxv
	BYTE	W01
	BYTE		        44*FE11FootstepsofFateSme_mvl/mxv
	BYTE	W01
	BYTE		        53*FE11FootstepsofFateSme_mvl/mxv
	BYTE	W01
	BYTE		        62*FE11FootstepsofFateSme_mvl/mxv
	BYTE	W01
	BYTE		        81*FE11FootstepsofFateSme_mvl/mxv
	BYTE	W01
	BYTE		        89*FE11FootstepsofFateSme_mvl/mxv
	BYTE	W01
	BYTE		        98*FE11FootstepsofFateSme_mvl/mxv
	BYTE	W01
	BYTE		        112*FE11FootstepsofFateSme_mvl/mxv
	BYTE	W15
	BYTE		N44     En2   v076
	BYTE		N44     Cs3   v084
	BYTE	W48
	BYTE		        Dn2   v092
	BYTE		N44     Bn2   v080
	BYTE	W24
// 039   ----------------------------------------
	BYTE	W24
	BYTE		        En2   v084
	BYTE		N44     An2   v096
	BYTE		N44     Dn3 
	BYTE	W48
	BYTE		        Fs2   v100
	BYTE		N23     Cs3   v092
	BYTE	W24
// 040   ----------------------------------------
	BYTE		        Bn2   v084
	BYTE	W24
	BYTE		N44     En2   v068
	BYTE		N44     An2   v076
	BYTE	W48
	BYTE		        Fs2 
	BYTE		N44     Bn2   v080
	BYTE	W24
// 041   ----------------------------------------
	BYTE	W24
	BYTE		        Dn2   v108
	BYTE		N44     An2   v112
	BYTE	W48
	BYTE		        En2   v120
	BYTE		N44     Bn2   v112
	BYTE	W24
// 042   ----------------------------------------
	BYTE	W24
	BYTE		VOL     62*FE11FootstepsofFateSme_mvl/mxv
	BYTE		PAN     c_v-64
	BYTE		VOL     62*FE11FootstepsofFateSme_mvl/mxv
	BYTE		BEND    c_v+0
	BYTE	W03
	BYTE		N80     Cs3   v096
	BYTE	W03
	BYTE		VOL     62*FE11FootstepsofFateSme_mvl/mxv
	BYTE	W06
	BYTE		        61*FE11FootstepsofFateSme_mvl/mxv
	BYTE	W03
	BYTE		        61*FE11FootstepsofFateSme_mvl/mxv
	BYTE	W03
	BYTE		        60*FE11FootstepsofFateSme_mvl/mxv
	BYTE	W03
	BYTE		        60*FE11FootstepsofFateSme_mvl/mxv
	BYTE	W03
	BYTE		        59*FE11FootstepsofFateSme_mvl/mxv
	BYTE	W03
	BYTE		        59*FE11FootstepsofFateSme_mvl/mxv
	BYTE	W03
	BYTE		        58*FE11FootstepsofFateSme_mvl/mxv
	BYTE	W03
	BYTE		        58*FE11FootstepsofFateSme_mvl/mxv
	BYTE	W03
	BYTE		        57*FE11FootstepsofFateSme_mvl/mxv
	BYTE	W03
	BYTE		        56*FE11FootstepsofFateSme_mvl/mxv
	BYTE	W03
	BYTE		        56*FE11FootstepsofFateSme_mvl/mxv
	BYTE	W03
	BYTE		        55*FE11FootstepsofFateSme_mvl/mxv
	BYTE	W03
	BYTE		        54*FE11FootstepsofFateSme_mvl/mxv
	BYTE	W03
	BYTE		        54*FE11FootstepsofFateSme_mvl/mxv
	BYTE	W03
	BYTE		        53*FE11FootstepsofFateSme_mvl/mxv
	BYTE	W03
	BYTE		        52*FE11FootstepsofFateSme_mvl/mxv
	BYTE	W03
	BYTE		        51*FE11FootstepsofFateSme_mvl/mxv
	BYTE	W03
	BYTE		        50*FE11FootstepsofFateSme_mvl/mxv
	BYTE	W03
	BYTE		        49*FE11FootstepsofFateSme_mvl/mxv
	BYTE	W03
	BYTE		        48*FE11FootstepsofFateSme_mvl/mxv
	BYTE	W03
// 043   ----------------------------------------
	BYTE	PATT
	 POIN2	FE11FootstepsofFateSme_1_005
// 044   ----------------------------------------
	BYTE	W02
	BYTE		VOL     48*FE11FootstepsofFateSme_mvl/mxv
	BYTE	W03
	BYTE		        50*FE11FootstepsofFateSme_mvl/mxv
	BYTE	W03
	BYTE		        52*FE11FootstepsofFateSme_mvl/mxv
	BYTE	W01
	BYTE		        52*FE11FootstepsofFateSme_mvl/mxv
	BYTE	W06
	BYTE		N05     Fs3   v108
	BYTE	W08
	BYTE	GoTo
	 POIN2	FE11FootstepsofFateSme_1_B1
FE11FootstepsofFateSme_1_B2:
	BYTE	FINE

//**************** Track 2 (Midi-Chn.2) ****************//

FE11FootstepsofFateSme_2:
	BYTE	KEYSH   FE11FootstepsofFateSme_key+0
// 000   ----------------------------------------
	BYTE		VOICE   34
	BYTE		MODT    0
	BYTE		LFOS    44
	BYTE		VOL     109*FE11FootstepsofFateSme_mvl/mxv
	BYTE	W24
	BYTE		PAN     c_v+0
	BYTE		VOL     109*FE11FootstepsofFateSme_mvl/mxv
	BYTE		N92     Fs1   v127
	BYTE	W72
// 001   ----------------------------------------
	BYTE	W24
	BYTE		N92   
	BYTE	W72
// 002   ----------------------------------------
	BYTE	W24
	BYTE		        Fs1   v124
	BYTE	W72
// 003   ----------------------------------------
	BYTE	W24
	BYTE		N68     Fs1   v096
	BYTE	W72
// 004   ----------------------------------------
FE11FootstepsofFateSme_2_004:
	BYTE		N04     Fs1   v120
	BYTE	W12
	BYTE		N05     Bn1   v100
	BYTE	W06
	BYTE		N03     Cs2   v120
	BYTE	W06
	BYTE		N06     Fs2   v127
	BYTE	W24
	BYTE		N05     Fs1 
	BYTE	W24
	BYTE		N04   
	BYTE	W24
	BYTE	PEND
// 005   ----------------------------------------
FE11FootstepsofFateSme_2_005:
	BYTE		N05     Fs1   v127
	BYTE	W24
	BYTE		N04     Fs2 
	BYTE	W24
	BYTE		N05     Fs1   v124
	BYTE	W24
	BYTE		        Fs1   v108
	BYTE	W24
	BYTE	PEND
// 006   ----------------------------------------
	BYTE		        Fs1   v120
	BYTE	W12
	BYTE		N02     Fs1   v108
	BYTE	W06
	BYTE		N04     Fs1   v100
	BYTE	W06
FE11FootstepsofFateSme_2_B1:
	BYTE		N06     Fs2   v124
	BYTE	W24
	BYTE		N07     Fs1 
	BYTE	W24
	BYTE		N08   
	BYTE	W24
// 007   ----------------------------------------
FE11FootstepsofFateSme_2_007:
	BYTE		N03     Fs1   v104
	BYTE	W06
	BYTE		N02     Fs1   v100
	BYTE	W06
	BYTE		N03     Fs1   v116
	BYTE	W12
	BYTE		N04     Fs2   v096
	BYTE	W24
	BYTE		N08     Fs1   v120
	BYTE	W24
	BYTE		N07     Fs1   v124
	BYTE	W24
	BYTE	PEND
// 008   ----------------------------------------
	BYTE	PATT
	 POIN2	FE11FootstepsofFateSme_2_004
// 009   ----------------------------------------
	BYTE	PATT
	 POIN2	FE11FootstepsofFateSme_2_005
// 010   ----------------------------------------
	BYTE		N05     Fs1   v120
	BYTE	W12
	BYTE		N02     Fs1   v108
	BYTE	W06
	BYTE		N04     Fs1   v100
	BYTE	W06
	BYTE		N06     Dn1   v124
	BYTE	W24
	BYTE		N07   
	BYTE	W24
	BYTE		N08   
	BYTE	W24
// 011   ----------------------------------------
	BYTE		N03     Dn1   v104
	BYTE	W06
	BYTE		N02     Dn1   v100
	BYTE	W06
	BYTE		N03     Dn1   v116
	BYTE	W12
	BYTE		N04     Dn2   v096
	BYTE	W24
	BYTE		N08     Dn2   v120
	BYTE	W24
	BYTE		N07     Dn2   v124
	BYTE	W24
// 012   ----------------------------------------
	BYTE		N04     Dn2   v120
	BYTE	W12
	BYTE		N05     Dn2   v100
	BYTE	W06
	BYTE		N03     En2   v120
	BYTE	W06
	BYTE		N06     Fs2   v127
	BYTE	W24
	BYTE		N05     Fs1 
	BYTE	W24
	BYTE		N04   
	BYTE	W24
// 013   ----------------------------------------
	BYTE	PATT
	 POIN2	FE11FootstepsofFateSme_2_005
// 014   ----------------------------------------
	BYTE		N05     Fs1   v120
	BYTE	W12
	BYTE		N02     Fs1   v108
	BYTE	W06
	BYTE		N04     Fs1   v100
	BYTE	W06
	BYTE		N06     Fs2   v124
	BYTE	W24
	BYTE		N07     Fs1 
	BYTE	W24
	BYTE		N08   
	BYTE	W24
// 015   ----------------------------------------
	BYTE	PATT
	 POIN2	FE11FootstepsofFateSme_2_007
// 016   ----------------------------------------
	BYTE	PATT
	 POIN2	FE11FootstepsofFateSme_2_004
// 017   ----------------------------------------
	BYTE	PATT
	 POIN2	FE11FootstepsofFateSme_2_005
// 018   ----------------------------------------
	BYTE		N05     Fs1   v120
	BYTE	W12
	BYTE		N02     Fs1   v108
	BYTE	W06
	BYTE		N04     Fs1   v100
	BYTE	W06
	BYTE		N06     En1   v124
	BYTE	W24
	BYTE		N07   
	BYTE	W24
	BYTE		N08   
	BYTE	W24
// 019   ----------------------------------------
	BYTE		N03     En1   v104
	BYTE	W06
	BYTE		N02     En1   v100
	BYTE	W06
	BYTE		N03     En1   v116
	BYTE	W06
	BYTE		N05     Fs1   v100
	BYTE	W06
	BYTE		N04     Gs1   v112
	BYTE	W24
	BYTE		N08     Gs1   v120
	BYTE	W24
	BYTE		N07     Gs1   v124
	BYTE	W24
// 020   ----------------------------------------
	BYTE		N04     Gs1   v120
	BYTE	W12
	BYTE		N05     Ds2   v100
	BYTE	W06
	BYTE		N03     Gs2   v104
	BYTE	W06
	BYTE		N80     Gn1   v096
	BYTE	W72
// 021   ----------------------------------------
FE11FootstepsofFateSme_2_021:
	BYTE	W12
	BYTE		N05     Gn1   v096
	BYTE	W12
	BYTE		N03     Gn1   v092
	BYTE	W06
	BYTE		N76   
	BYTE	W66
	BYTE	PEND
// 022   ----------------------------------------
	BYTE	W12
	BYTE		N02     Gn1   v076
	BYTE	W06
	BYTE		N04     Gn1   v064
	BYTE	W06
	BYTE		N80     Gs1   v096
	BYTE	W72
// 023   ----------------------------------------
	BYTE	W12
	BYTE		N05   
	BYTE	W12
	BYTE		N03     Gs1   v092
	BYTE	W06
	BYTE		N76   
	BYTE	W66
// 024   ----------------------------------------
	BYTE	W12
	BYTE		N02     Gs1   v076
	BYTE	W06
	BYTE		N04     Gs1   v064
	BYTE	W06
	BYTE		N80     Gn1   v096
	BYTE	W72
// 025   ----------------------------------------
	BYTE	PATT
	 POIN2	FE11FootstepsofFateSme_2_021
// 026   ----------------------------------------
	BYTE	W12
	BYTE		N02     Gn1   v088
	BYTE	W06
	BYTE		N04     Gn1   v076
	BYTE	W06
	BYTE		N80     Gs1   v116
	BYTE	W72
// 027   ----------------------------------------
	BYTE	W12
	BYTE		N05     Gs1   v112
	BYTE	W12
	BYTE		N03     Gs1   v124
	BYTE	W06
	BYTE		N40   
	BYTE	W42
	BYTE		N23   
	BYTE	W24
// 028   ----------------------------------------
	BYTE		        Gn1 
	BYTE	W24
	BYTE		N24     Fs1   v100
	BYTE	W36
	BYTE		N36     Fs1   v104
	BYTE	W36
// 029   ----------------------------------------
	BYTE	W12
	BYTE		N02     Fs1   v092
	BYTE	W06
	BYTE		        Fs1   v072
	BYTE	W06
	BYTE		N24     Fs1   v096
	BYTE	W36
	BYTE		N42   
	BYTE	W36
// 030   ----------------------------------------
	BYTE	W12
	BYTE		N03   
	BYTE	W12
	BYTE		N24   
	BYTE	W36
	BYTE		N36     Fs1   v100
	BYTE	W36
// 031   ----------------------------------------
	BYTE	W12
	BYTE		N03   
	BYTE	W12
	BYTE		N24   
	BYTE	W36
	BYTE		N40     Fs1   v096
	BYTE	W36
// 032   ----------------------------------------
	BYTE	W12
	BYTE		N02     En1   v084
	BYTE	W12
	BYTE		N24     Fs1   v092
	BYTE	W36
	BYTE		N44     Fs1   v088
	BYTE	W36
// 033   ----------------------------------------
	BYTE	W24
	BYTE		N24     Fs1   v096
	BYTE	W36
	BYTE		N42     Fs1   v088
	BYTE	W36
// 034   ----------------------------------------
	BYTE	W12
	BYTE		N03   
	BYTE	W12
	BYTE		N24     Fs1   v092
	BYTE	W36
	BYTE		N36     Fs1   v096
	BYTE	W36
// 035   ----------------------------------------
	BYTE	W12
	BYTE		N03     Fs1   v088
	BYTE	W12
	BYTE		N24     Fs1   v100
	BYTE	W36
	BYTE		N36   
	BYTE	W36
// 036   ----------------------------------------
	BYTE	W12
	BYTE		N08     Dn1   v108
	BYTE	W06
	BYTE		N06     En1 
	BYTE	W06
	BYTE		N80     Fs1   v127
	BYTE	W72
// 037   ----------------------------------------
	BYTE	W12
	BYTE		N05   
	BYTE	W12
	BYTE		N76   
	BYTE	W72
// 038   ----------------------------------------
	BYTE	W12
	BYTE		N02     Fs1   v108
	BYTE	W06
	BYTE		N04     Fs1   v100
	BYTE	W06
	BYTE		N68     Fs1   v124
	BYTE	W72
// 039   ----------------------------------------
	BYTE		N03     Fs1   v104
	BYTE	W06
	BYTE		N02     Fs1   v100
	BYTE	W06
	BYTE		N03     Fs1   v116
	BYTE	W12
	BYTE		N68     Fs1   v096
	BYTE	W72
// 040   ----------------------------------------
	BYTE		N04     Fs1   v120
	BYTE	W12
	BYTE		N05     Bn1   v100
	BYTE	W06
	BYTE		N03     Cs2   v120
	BYTE	W06
	BYTE		N68     Fs1   v124
	BYTE	W72
// 041   ----------------------------------------
	BYTE	PATT
	 POIN2	FE11FootstepsofFateSme_2_007
// 042   ----------------------------------------
	BYTE	PATT
	 POIN2	FE11FootstepsofFateSme_2_004
// 043   ----------------------------------------
	BYTE	PATT
	 POIN2	FE11FootstepsofFateSme_2_005
// 044   ----------------------------------------
	BYTE		N05     Fs1   v120
	BYTE	W12
	BYTE		N02     Fs1   v108
	BYTE	W06
	BYTE		N04     Fs1   v100
	BYTE	W05
	BYTE	GoTo
	 POIN2	FE11FootstepsofFateSme_2_B1
FE11FootstepsofFateSme_2_B2:
	BYTE	FINE

//**************** Track 3 (Midi-Chn.3) ****************//

FE11FootstepsofFateSme_3:
	BYTE	KEYSH   FE11FootstepsofFateSme_key+0
// 000   ----------------------------------------
	BYTE		MODT    0
	BYTE		LFOS    44
	BYTE	W24
	BYTE		VOICE   127
	BYTE		VOL     115*FE11FootstepsofFateSme_mvl/mxv
	BYTE		PAN     c_v+0
	BYTE		VOL     115*FE11FootstepsofFateSme_mvl/mxv
	BYTE		N06     Dn1   v076
	BYTE	W24
	BYTE		N05     Dn1   v064
	BYTE	W06
	BYTE		        Ds1   v060
	BYTE	W18
	BYTE		N02     Dn1   v084
	BYTE	W03
	BYTE		N06     Ds1   v064
	BYTE	W21
// 001   ----------------------------------------
	BYTE		N04     Dn1   v068
	BYTE	W12
	BYTE		N05     Ds1   v052
	BYTE	W06
	BYTE		        Dn1   v088
	BYTE	W06
	BYTE		        Ds1   v084
	BYTE	W06
	BYTE		N08     Dn1   v072
	BYTE	W12
	BYTE		N05     Dn1   v064
	BYTE	W06
	BYTE		N05   
	BYTE	W06
	BYTE		        Ds1 
	BYTE	W12
	BYTE		N05   
	BYTE	W06
	BYTE		N02     Ds1   v072
	BYTE	W03
	BYTE		N06     Dn1   v068
	BYTE	W09
	BYTE		N06   
	BYTE	W12
// 002   ----------------------------------------
	BYTE		N05     Dn1   v064
	BYTE	W06
	BYTE		        Ds1   v060
	BYTE	W06
	BYTE		        Dn1   v068
	BYTE	W06
	BYTE		        Ds1 
	BYTE	W06
	BYTE		        Dn1   v084
	BYTE	W24
	BYTE		        Ds1   v064
	BYTE	W06
	BYTE		        Dn1 
	BYTE	W18
	BYTE		N09   
	BYTE	W12
	BYTE		N08     Ds1   v056
	BYTE	W12
// 003   ----------------------------------------
	BYTE		N04     Dn1   v068
	BYTE	W06
	BYTE		        Ds1   v080
	BYTE	W06
	BYTE		N05     Dn1   v076
	BYTE	W06
	BYTE		        Ds1   v092
	BYTE	W06
	BYTE		        Dn1   v100
	BYTE	W06
	BYTE		        Ds1   v068
	BYTE	W06
	BYTE		        Dn1   v084
	BYTE	W06
	BYTE		        Ds1 
	BYTE	W06
	BYTE		        Dn1   v100
	BYTE	W06
	BYTE		        Ds1   v084
	BYTE	W18
	BYTE		        Dn1   v108
	BYTE	W06
	BYTE		        Ds1   v084
	BYTE	W06
	BYTE		N02     Ds1   v108
	BYTE	W03
	BYTE		        Dn1   v084
	BYTE	W03
	BYTE		N05     Ds1 
	BYTE	W06
// 004   ----------------------------------------
FE11FootstepsofFateSme_3_004:
	BYTE		N23     En1   v108
	BYTE	W24
	BYTE		N06     Dn1   v124
	BYTE	W24
	BYTE		N04     Dn1   v104
	BYTE	W24
	BYTE		N03     Dn1   v088
	BYTE	W06
	BYTE		N04     Ds1   v072
	BYTE	W18
	BYTE	PEND
// 005   ----------------------------------------
FE11FootstepsofFateSme_3_005:
	BYTE		N03     Dn1   v096
	BYTE	W06
	BYTE		        Ds1   v080
	BYTE	W06
	BYTE		N11     En1   v120
	BYTE	W12
	BYTE		N05     Dn1   v127
	BYTE	W24
	BYTE		        En1   v120
	BYTE	W06
	BYTE		        Dn1   v127
	BYTE	W18
	BYTE		        Dn1   v108
	BYTE	W06
	BYTE		        Ds1   v096
	BYTE	W12
	BYTE		        Dn1   v100
	BYTE	W06
	BYTE	PEND
// 006   ----------------------------------------
	BYTE		        Dn1   v112
	BYTE	W06
	BYTE		        Ds1   v116
	BYTE	W06
	BYTE		N11     En1   v127
	BYTE	W12
FE11FootstepsofFateSme_3_B1:
	BYTE		N06     Dn1   v127
	BYTE	W24
	BYTE		N04     Dn1   v104
	BYTE	W24
	BYTE		N03     Dn1   v088
	BYTE	W06
	BYTE		N04     Ds1   v072
	BYTE	W18
// 007   ----------------------------------------
FE11FootstepsofFateSme_3_007:
	BYTE		N03     Dn1   v096
	BYTE	W06
	BYTE		        Ds1   v080
	BYTE	W06
	BYTE		N11     En1   v108
	BYTE	W12
	BYTE		N06     Dn1   v100
	BYTE	W24
	BYTE		N05     En1   v092
	BYTE	W06
	BYTE		        Dn1   v104
	BYTE	W12
	BYTE		        Ds1   v100
	BYTE	W06
	BYTE		        Dn1   v108
	BYTE	W06
	BYTE		        Ds1   v096
	BYTE	W12
	BYTE		        Dn1   v100
	BYTE	W06
	BYTE	PEND
// 008   ----------------------------------------
FE11FootstepsofFateSme_3_008:
	BYTE		N05     Dn1   v120
	BYTE	W06
	BYTE		        Ds1   v108
	BYTE	W06
	BYTE		N11     En1   v127
	BYTE	W12
	BYTE		N06     Dn1   v124
	BYTE	W24
	BYTE		N04     Dn1   v104
	BYTE	W24
	BYTE		N03     Dn1   v088
	BYTE	W06
	BYTE		N04     Ds1   v072
	BYTE	W18
	BYTE	PEND
// 009   ----------------------------------------
	BYTE	PATT
	 POIN2	FE11FootstepsofFateSme_3_005
// 010   ----------------------------------------
FE11FootstepsofFateSme_3_010:
	BYTE		N05     Dn1   v127
	BYTE	W06
	BYTE		        Ds1 
	BYTE	W06
	BYTE		N11     En1 
	BYTE	W12
	BYTE		N06     Dn1 
	BYTE	W24
	BYTE		N04     Dn1   v104
	BYTE	W24
	BYTE		N03     Dn1   v088
	BYTE	W06
	BYTE		N04     Ds1   v072
	BYTE	W18
	BYTE	PEND
// 011   ----------------------------------------
	BYTE	PATT
	 POIN2	FE11FootstepsofFateSme_3_007
// 012   ----------------------------------------
	BYTE		N23     En1   v120
	BYTE	W24
	BYTE		N06     Dn1   v124
	BYTE	W24
	BYTE		N04     Dn1   v104
	BYTE	W24
	BYTE		N03     Dn1   v088
	BYTE	W06
	BYTE		N04     Ds1   v072
	BYTE	W18
// 013   ----------------------------------------
	BYTE	PATT
	 POIN2	FE11FootstepsofFateSme_3_005
// 014   ----------------------------------------
	BYTE		N05     Dn1   v112
	BYTE	W06
	BYTE		        Ds1   v116
	BYTE	W06
	BYTE		N11     En1   v127
	BYTE	W12
	BYTE		N06     Dn1 
	BYTE	W24
	BYTE		N04     Dn1   v104
	BYTE	W24
	BYTE		N03     Dn1   v088
	BYTE	W06
	BYTE		N04     Ds1   v072
	BYTE	W18
// 015   ----------------------------------------
	BYTE	PATT
	 POIN2	FE11FootstepsofFateSme_3_007
// 016   ----------------------------------------
	BYTE	PATT
	 POIN2	FE11FootstepsofFateSme_3_008
// 017   ----------------------------------------
	BYTE	PATT
	 POIN2	FE11FootstepsofFateSme_3_005
// 018   ----------------------------------------
	BYTE	PATT
	 POIN2	FE11FootstepsofFateSme_3_010
// 019   ----------------------------------------
	BYTE	PATT
	 POIN2	FE11FootstepsofFateSme_3_007
// 020   ----------------------------------------
	BYTE		N23     En1   v120
	BYTE	W24
	BYTE		N06     Dn1   v092
	BYTE	W24
	BYTE		N04     Dn1   v060
	BYTE	W24
	BYTE		        Dn1   v076
	BYTE	W24
// 021   ----------------------------------------
	BYTE		        Dn1   v092
	BYTE	W12
	BYTE		N03     Ds1   v076
	BYTE	W12
	BYTE		N05     Dn1   v084
	BYTE	W06
	BYTE		N08     Ds1   v072
	BYTE	W18
	BYTE		N04     Dn1   v060
	BYTE	W24
	BYTE		        Dn1   v076
	BYTE	W24
// 022   ----------------------------------------
	BYTE		        Dn1   v092
	BYTE	W24
	BYTE		N06     Dn1   v084
	BYTE	W24
	BYTE		N04     Dn1   v060
	BYTE	W24
	BYTE		        Dn1   v076
	BYTE	W24
// 023   ----------------------------------------
	BYTE		        Dn1   v084
	BYTE	W12
	BYTE		        Dn1   v068
	BYTE	W12
	BYTE		N05     Dn1   v060
	BYTE	W06
	BYTE		N06     Ds1   v064
	BYTE	W18
	BYTE		N04     Dn1   v060
	BYTE	W24
	BYTE		        Dn1   v076
	BYTE	W06
	BYTE		        Ds1 
	BYTE	W06
	BYTE		N02     Dn1   v056
	BYTE	W03
	BYTE		        Ds1   v044
	BYTE	W03
	BYTE		        Dn1   v056
	BYTE	W03
	BYTE		        Ds1   v064
	BYTE	W03
// 024   ----------------------------------------
	BYTE		N06     Dn1   v076
	BYTE	W12
	BYTE		N05     Ds1   v084
	BYTE	W06
	BYTE		        Dn1   v068
	BYTE	W06
	BYTE		N03     Dn1   v096
	BYTE	W06
	BYTE		N04     Dn1   v024
	BYTE	W06
	BYTE		N03     Ds1   v064
	BYTE	W06
	BYTE		N04     Dn1   v024
	BYTE	W06
	BYTE		N03     Dn1   v076
	BYTE	W06
	BYTE		N04     Dn1   v024
	BYTE	W06
	BYTE		        Ds1   v060
	BYTE	W06
	BYTE		        Dn1   v024
	BYTE	W06
	BYTE		N02     Dn1   v056
	BYTE	W06
	BYTE		N04     Dn1   v024
	BYTE	W06
	BYTE		N05     Ds1   v044
	BYTE	W06
	BYTE		N04     Dn1   v024
	BYTE	W06
// 025   ----------------------------------------
	BYTE		        Dn1   v068
	BYTE	W06
	BYTE		N05     Ds1   v052
	BYTE	W06
	BYTE		N04     Dn1   v056
	BYTE	W06
	BYTE		N05     Ds1   v060
	BYTE	W06
	BYTE		        Dn1   v080
	BYTE	W06
	BYTE		N04     Dn1   v024
	BYTE	W06
	BYTE		N05     Ds1   v060
	BYTE	W06
	BYTE		N04     Ds1   v024
	BYTE	W06
	BYTE		        Dn1   v080
	BYTE	W06
	BYTE		        Dn1   v024
	BYTE	W06
	BYTE		        Ds1   v064
	BYTE	W06
	BYTE		        Ds1   v024
	BYTE	W06
	BYTE		N05     Dn1   v064
	BYTE	W06
	BYTE		        Ds1   v060
	BYTE	W06
	BYTE		N04     Dn1   v024
	BYTE	W06
	BYTE		N05     Ds1   v068
	BYTE	W06
// 026   ----------------------------------------
	BYTE		        Dn1   v084
	BYTE	W06
	BYTE		        Ds1   v064
	BYTE	W06
	BYTE		N04     Dn1   v056
	BYTE	W06
	BYTE		N05     Ds1   v060
	BYTE	W06
	BYTE		        Dn1   v080
	BYTE	W06
	BYTE		N04     Ds1   v024
	BYTE	W06
	BYTE		N05     Ds1   v072
	BYTE	W06
	BYTE		N04     Dn1   v024
	BYTE	W06
	BYTE		        Dn1   v092
	BYTE	W06
	BYTE		        Dn1   v024
	BYTE	W06
	BYTE		N05     Ds1   v072
	BYTE	W06
	BYTE		N04     Ds1   v032
	BYTE	W06
	BYTE		N03     Dn1   v084
	BYTE	W06
	BYTE		N04     Dn1   v040
	BYTE	W06
	BYTE		        Ds1   v076
	BYTE	W09
	BYTE		N02     Ds1   v044
	BYTE	W03
// 027   ----------------------------------------
	BYTE		N04     Dn1   v076
	BYTE	W06
	BYTE		N05     Ds1   v084
	BYTE	W06
	BYTE		        Dn1   v092
	BYTE	W06
	BYTE		        Ds1   v088
	BYTE	W06
	BYTE		        Dn1   v116
	BYTE	W06
	BYTE		N04     Dn1   v048
	BYTE	W06
	BYTE		        Ds1   v112
	BYTE	W06
	BYTE		        Ds1   v048
	BYTE	W06
	BYTE		        Dn1   v127
	BYTE	W06
	BYTE		        Dn1   v048
	BYTE	W06
	BYTE		        Ds1   v112
	BYTE	W06
	BYTE		        Ds1   v048
	BYTE	W06
	BYTE		N05     Dn1   v127
	BYTE	W06
	BYTE		        Ds1   v104
	BYTE	W06
	BYTE		        Dn1   v116
	BYTE	W06
	BYTE		        Ds1   v100
	BYTE	W06
// 028   ----------------------------------------
	BYTE		N04     Dn1   v127
	BYTE	W06
	BYTE		N05     Ds1   v084
	BYTE	W06
	BYTE		N11     En1   v127
	BYTE	W12
	BYTE		N15     Dn1 
	BYTE		N13     Cs3 
	BYTE	W24
	BYTE		N11     En1   v100
	BYTE	W12
	BYTE		N17     Ds1   v104
	BYTE	W24
	BYTE		N03     Ds1   v112
	BYTE	W12
// 029   ----------------------------------------
	BYTE		N05     Dn1   v120
	BYTE	W06
	BYTE		        Ds1   v088
	BYTE	W06
	BYTE		        Dn1   v104
	BYTE	W12
	BYTE		N23     Dn1   v127
	BYTE		N13     Cn3   v052
	BYTE	W24
	BYTE		N03     Ds1   v072
	BYTE	W12
	BYTE		N18     Ds1   v112
	BYTE	W24
	BYTE		N04     Ds1   v100
	BYTE	W12
// 030   ----------------------------------------
	BYTE		        Dn1   v108
	BYTE	W06
	BYTE		N05     Ds1   v072
	BYTE	W06
	BYTE		        Dn1   v092
	BYTE		N05     Cs3   v108
	BYTE	W06
	BYTE		        Ds1   v084
	BYTE	W06
	BYTE		N23     Dn1   v120
	BYTE		N13     Cs3   v127
	BYTE	W24
	BYTE		N11     En1   v104
	BYTE	W12
	BYTE		N19     Ds1 
	BYTE	W24
	BYTE		N03     Ds1   v100
	BYTE	W12
// 031   ----------------------------------------
	BYTE		N05     Dn1   v104
	BYTE	W06
	BYTE		        Ds1   v072
	BYTE	W06
	BYTE		N04     Dn1   v084
	BYTE	W12
	BYTE		N13     Dn1   v124
	BYTE		N13     Cn3   v052
	BYTE	W24
	BYTE		N03     Ds1   v096
	BYTE	W12
	BYTE		N23     En1   v104
	BYTE	W24
	BYTE		N02     Ds1   v096
	BYTE	W12
// 032   ----------------------------------------
	BYTE		N04     Dn1   v104
	BYTE	W06
	BYTE		N05     Ds1   v084
	BYTE	W06
	BYTE		N04     Dn1 
	BYTE		N05     Cs3   v108
	BYTE	W06
	BYTE		        Ds1   v084
	BYTE	W06
	BYTE		N16     Dn1   v108
	BYTE		N13     Cs3   v127
	BYTE	W24
	BYTE		N03     Dn1   v104
	BYTE	W12
	BYTE		N32     En1 
	BYTE	W36
// 033   ----------------------------------------
	BYTE		N04     Dn1   v108
	BYTE	W06
	BYTE		N05     Ds1   v088
	BYTE	W06
	BYTE		N04     Dn1 
	BYTE	W06
	BYTE		N05     Ds1   v072
	BYTE	W06
	BYTE		N07     Dn1   v104
	BYTE		N13     Cn3   v052
	BYTE	W12
	BYTE		N03     Dn1   v116
	BYTE	W12
	BYTE		        Dn1   v104
	BYTE	W12
	BYTE		N17     Dn1   v116
	BYTE	W24
	BYTE		N03     Ds1   v092
	BYTE	W06
	BYTE		N05     Ds1   v080
	BYTE	W06
// 034   ----------------------------------------
	BYTE		N04     Dn1   v088
	BYTE	W06
	BYTE		N05     Ds1   v084
	BYTE	W06
	BYTE		        Dn1 
	BYTE		N05     Cs3   v108
	BYTE	W06
	BYTE		        Ds1   v072
	BYTE	W06
	BYTE		N13     Dn1   v100
	BYTE		N13     Cs3   v127
	BYTE	W24
	BYTE		N03     Ds1   v096
	BYTE	W12
	BYTE		N16   
	BYTE	W24
	BYTE		N04     Dn1   v092
	BYTE	W12
// 035   ----------------------------------------
	BYTE		        Dn1   v108
	BYTE	W06
	BYTE		N05     Ds1   v036
	BYTE	W06
	BYTE		        Dn1   v092
	BYTE	W06
	BYTE		        Ds1   v068
	BYTE	W06
	BYTE		        Dn1   v104
	BYTE		N13     Cn3   v052
	BYTE	W12
	BYTE		N02     Dn1   v100
	BYTE	W12
	BYTE		N04   
	BYTE	W12
	BYTE		N23     En1   v108
	BYTE	W24
	BYTE		N04     Ds1   v084
	BYTE	W12
// 036   ----------------------------------------
	BYTE		N05     Dn1   v120
	BYTE	W06
	BYTE		        Ds1   v096
	BYTE	W06
	BYTE		        Dn1   v104
	BYTE	W06
	BYTE		N04     Ds1   v100
	BYTE	W06
	BYTE		N80     En1   v096
	BYTE	W04
	BYTE		VOL     115*FE11FootstepsofFateSme_mvl/mxv
	BYTE	W08
	BYTE		        115*FE11FootstepsofFateSme_mvl/mxv
	BYTE	W03
	BYTE		        114*FE11FootstepsofFateSme_mvl/mxv
	BYTE	W03
	BYTE		        112*FE11FootstepsofFateSme_mvl/mxv
	BYTE	W03
	BYTE		        110*FE11FootstepsofFateSme_mvl/mxv
	BYTE	W03
	BYTE		        108*FE11FootstepsofFateSme_mvl/mxv
	BYTE	W03
	BYTE		        106*FE11FootstepsofFateSme_mvl/mxv
	BYTE	W03
	BYTE		        105*FE11FootstepsofFateSme_mvl/mxv
	BYTE	W03
	BYTE		        103*FE11FootstepsofFateSme_mvl/mxv
	BYTE	W03
	BYTE		        101*FE11FootstepsofFateSme_mvl/mxv
	BYTE	W03
	BYTE		        98*FE11FootstepsofFateSme_mvl/mxv
	BYTE	W03
	BYTE		        96*FE11FootstepsofFateSme_mvl/mxv
	BYTE	W03
	BYTE		        94*FE11FootstepsofFateSme_mvl/mxv
	BYTE	W03
	BYTE		        91*FE11FootstepsofFateSme_mvl/mxv
	BYTE	W03
	BYTE		        88*FE11FootstepsofFateSme_mvl/mxv
	BYTE	W03
	BYTE		        86*FE11FootstepsofFateSme_mvl/mxv
	BYTE	W03
	BYTE		        83*FE11FootstepsofFateSme_mvl/mxv
	BYTE	W03
	BYTE		        79*FE11FootstepsofFateSme_mvl/mxv
	BYTE	W03
	BYTE		        76*FE11FootstepsofFateSme_mvl/mxv
	BYTE	W03
	BYTE		        72*FE11FootstepsofFateSme_mvl/mxv
	BYTE	W03
	BYTE		        67*FE11FootstepsofFateSme_mvl/mxv
	BYTE	W03
// 037   ----------------------------------------
	BYTE		        64*FE11FootstepsofFateSme_mvl/mxv
	BYTE	W03
	BYTE		        59*FE11FootstepsofFateSme_mvl/mxv
	BYTE	W09
	BYTE		        115*FE11FootstepsofFateSme_mvl/mxv
	BYTE		N03     Ds1 
	BYTE	W12
	BYTE		N05     Dn1   v100
	BYTE	W06
	BYTE		        Ds1   v092
	BYTE	W06
	BYTE		N68     En1   v056
	BYTE	W03
	BYTE		VOL     115*FE11FootstepsofFateSme_mvl/mxv
	BYTE	W02
	BYTE		        111*FE11FootstepsofFateSme_mvl/mxv
	BYTE	W01
	BYTE		        107*FE11FootstepsofFateSme_mvl/mxv
	BYTE	W02
	BYTE		        104*FE11FootstepsofFateSme_mvl/mxv
	BYTE	W01
	BYTE		        100*FE11FootstepsofFateSme_mvl/mxv
	BYTE	W02
	BYTE		        96*FE11FootstepsofFateSme_mvl/mxv
	BYTE	W01
	BYTE		        93*FE11FootstepsofFateSme_mvl/mxv
	BYTE	W02
	BYTE		        89*FE11FootstepsofFateSme_mvl/mxv
	BYTE	W01
	BYTE		        86*FE11FootstepsofFateSme_mvl/mxv
	BYTE	W02
	BYTE		        82*FE11FootstepsofFateSme_mvl/mxv
	BYTE	W01
	BYTE		        78*FE11FootstepsofFateSme_mvl/mxv
	BYTE	W02
	BYTE		        75*FE11FootstepsofFateSme_mvl/mxv
	BYTE	W01
	BYTE		        71*FE11FootstepsofFateSme_mvl/mxv
	BYTE	W01
	BYTE		        69*FE11FootstepsofFateSme_mvl/mxv
	BYTE	W03
	BYTE		        70*FE11FootstepsofFateSme_mvl/mxv
	BYTE	W01
	BYTE		        71*FE11FootstepsofFateSme_mvl/mxv
	BYTE	W02
	BYTE		        72*FE11FootstepsofFateSme_mvl/mxv
	BYTE	W01
	BYTE		        73*FE11FootstepsofFateSme_mvl/mxv
	BYTE	W02
	BYTE		        74*FE11FootstepsofFateSme_mvl/mxv
	BYTE	W01
	BYTE		        75*FE11FootstepsofFateSme_mvl/mxv
	BYTE	W02
	BYTE		        76*FE11FootstepsofFateSme_mvl/mxv
	BYTE	W01
	BYTE		        76*FE11FootstepsofFateSme_mvl/mxv
	BYTE	W02
	BYTE		        78*FE11FootstepsofFateSme_mvl/mxv
	BYTE	W01
	BYTE		        79*FE11FootstepsofFateSme_mvl/mxv
	BYTE	W02
	BYTE		        80*FE11FootstepsofFateSme_mvl/mxv
	BYTE	W01
	BYTE		        82*FE11FootstepsofFateSme_mvl/mxv
	BYTE	W02
	BYTE		        83*FE11FootstepsofFateSme_mvl/mxv
	BYTE	W01
	BYTE		        85*FE11FootstepsofFateSme_mvl/mxv
	BYTE	W02
	BYTE		        86*FE11FootstepsofFateSme_mvl/mxv
	BYTE	W01
	BYTE		        87*FE11FootstepsofFateSme_mvl/mxv
	BYTE	W02
	BYTE		        89*FE11FootstepsofFateSme_mvl/mxv
	BYTE	W01
	BYTE		        91*FE11FootstepsofFateSme_mvl/mxv
	BYTE	W02
	BYTE		        93*FE11FootstepsofFateSme_mvl/mxv
	BYTE	W01
	BYTE		        95*FE11FootstepsofFateSme_mvl/mxv
	BYTE	W02
	BYTE		        97*FE11FootstepsofFateSme_mvl/mxv
	BYTE	W01
	BYTE		        99*FE11FootstepsofFateSme_mvl/mxv
	BYTE	W02
	BYTE		        102*FE11FootstepsofFateSme_mvl/mxv
	BYTE	W01
	BYTE		        105*FE11FootstepsofFateSme_mvl/mxv
	BYTE	W01
// 038   ----------------------------------------
	BYTE	W01
	BYTE		        107*FE11FootstepsofFateSme_mvl/mxv
	BYTE	W01
	BYTE		        111*FE11FootstepsofFateSme_mvl/mxv
	BYTE	W02
	BYTE		        115*FE11FootstepsofFateSme_mvl/mxv
	BYTE	W08
	BYTE		N11     En1   v096
	BYTE	W12
	BYTE		N06     Dn1   v076
	BYTE	W24
	BYTE		N05     Dn1   v064
	BYTE	W06
	BYTE		        Ds1   v060
	BYTE	W06
	BYTE		N11     En1   v068
	BYTE	W12
	BYTE		N02     Dn1   v084
	BYTE	W03
	BYTE		N06     Ds1   v064
	BYTE	W21
// 039   ----------------------------------------
	BYTE		N04     Dn1   v068
	BYTE	W12
	BYTE		N05     Ds1   v052
	BYTE	W06
	BYTE		        Dn1   v088
	BYTE	W06
	BYTE		        Ds1   v084
	BYTE	W06
	BYTE		N08     Dn1   v072
	BYTE	W12
	BYTE		N05     Dn1   v064
	BYTE	W06
	BYTE		N05   
	BYTE	W06
	BYTE		        Ds1 
	BYTE	W06
	BYTE		        En1   v084
	BYTE	W06
	BYTE		        Ds1   v064
	BYTE	W06
	BYTE		N02     Ds1   v072
	BYTE	W03
	BYTE		N06     Dn1   v068
	BYTE	W09
	BYTE		N06   
	BYTE	W12
// 040   ----------------------------------------
	BYTE		N05     Dn1   v064
	BYTE	W06
	BYTE		        Ds1   v060
	BYTE	W06
	BYTE		        Dn1   v068
	BYTE	W06
	BYTE		        Ds1 
	BYTE	W06
	BYTE		        Dn1   v084
	BYTE	W24
	BYTE		        Ds1   v064
	BYTE	W06
	BYTE		        Dn1 
	BYTE	W06
	BYTE		N11     En1   v068
	BYTE	W12
	BYTE		N09     Dn1   v064
	BYTE	W12
	BYTE		N08     Ds1   v056
	BYTE	W12
// 041   ----------------------------------------
	BYTE		N04     Dn1   v068
	BYTE	W06
	BYTE		        Ds1   v080
	BYTE	W06
	BYTE		N05     Dn1   v076
	BYTE	W06
	BYTE		        Ds1   v092
	BYTE	W06
	BYTE		        Dn1   v100
	BYTE	W06
	BYTE		        Ds1   v068
	BYTE	W06
	BYTE		        Dn1   v084
	BYTE	W06
	BYTE		        Ds1 
	BYTE	W06
	BYTE		        Dn1   v100
	BYTE	W06
	BYTE		        Ds1   v084
	BYTE	W06
	BYTE		N11     En1 
	BYTE	W12
	BYTE		N05     Dn1   v108
	BYTE	W06
	BYTE		        Ds1   v084
	BYTE	W06
	BYTE		N02     Ds1   v108
	BYTE	W03
	BYTE		        Dn1   v084
	BYTE	W03
	BYTE		N05     Ds1 
	BYTE	W06
// 042   ----------------------------------------
	BYTE	PATT
	 POIN2	FE11FootstepsofFateSme_3_004
// 043   ----------------------------------------
	BYTE	PATT
	 POIN2	FE11FootstepsofFateSme_3_005
// 044   ----------------------------------------
	BYTE		N05     Dn1   v112
	BYTE	W06
	BYTE		        Ds1   v116
	BYTE	W06
	BYTE		N11     En1   v127
	BYTE	W11
	BYTE	GoTo
	 POIN2	FE11FootstepsofFateSme_3_B1
FE11FootstepsofFateSme_3_B2:
	BYTE	FINE

//**************** Track 4 (Midi-Chn.4) ****************//

FE11FootstepsofFateSme_4:
	BYTE	KEYSH   FE11FootstepsofFateSme_key+0
// 000   ----------------------------------------
	BYTE		VOICE   4
	BYTE		MODT    0
	BYTE		LFOS    44
	BYTE		VOL     117*FE11FootstepsofFateSme_mvl/mxv
	BYTE		PAN     c_v+0
	BYTE		VOL     117*FE11FootstepsofFateSme_mvl/mxv
	BYTE		N05     Fs1   v028
	BYTE	W06
	BYTE		        Fs1   v072
	BYTE	W06
	BYTE		        Fs1   v068
	BYTE	W06
	BYTE		        Fs1   v108
	BYTE	W06
	BYTE		N52     Fs1   v120
	BYTE	W72
// 001   ----------------------------------------
FE11FootstepsofFateSme_4_001:
	BYTE	W12
	BYTE		N05     Fs1   v104
	BYTE	W06
	BYTE		        Fs1   v080
	BYTE	W06
	BYTE		N23     Fs1   v124
	BYTE	W24
	BYTE		N05     Fs1   v120
	BYTE	W06
	BYTE		N32     Fs1   v116
	BYTE	W42
	BYTE	PEND
// 002   ----------------------------------------
	BYTE	W24
	BYTE		N52     Fs1   v124
	BYTE	W72
// 003   ----------------------------------------
FE11FootstepsofFateSme_4_003:
	BYTE	W12
	BYTE		N05     Fs1   v092
	BYTE	W06
	BYTE		        Fs1   v076
	BYTE	W06
	BYTE		N23     Fs1   v124
	BYTE	W24
	BYTE		N05     Fs1   v116
	BYTE	W06
	BYTE		N11     Fs1   v104
	BYTE	W12
	BYTE		N28   
	BYTE	W30
	BYTE	PEND
// 004   ----------------------------------------
FE11FootstepsofFateSme_4_004:
	BYTE		N23     Fs3   v104
	BYTE	W24
	BYTE		N52     Fs1   v120
	BYTE	W72
	BYTE	PEND
// 005   ----------------------------------------
	BYTE	PATT
	 POIN2	FE11FootstepsofFateSme_4_001
// 006   ----------------------------------------
	BYTE	W24
FE11FootstepsofFateSme_4_B1:
	BYTE		N52     Fs1   v124
	BYTE	W72
// 007   ----------------------------------------
	BYTE	PATT
	 POIN2	FE11FootstepsofFateSme_4_003
// 008   ----------------------------------------
	BYTE	PATT
	 POIN2	FE11FootstepsofFateSme_4_004
// 009   ----------------------------------------
	BYTE	PATT
	 POIN2	FE11FootstepsofFateSme_4_001
// 010   ----------------------------------------
	BYTE	W24
	BYTE		N52     Dn1   v124
	BYTE	W72
// 011   ----------------------------------------
	BYTE	W12
	BYTE		N05     Dn1   v092
	BYTE	W06
	BYTE		        Dn1   v076
	BYTE	W06
	BYTE		N23     Dn1   v124
	BYTE	W24
	BYTE		N05     Dn1   v116
	BYTE	W06
	BYTE		N11     Dn1   v104
	BYTE	W12
	BYTE		N28   
	BYTE	W30
// 012   ----------------------------------------
	BYTE		N23     En3 
	BYTE	W24
	BYTE		N52     Fs1   v120
	BYTE	W72
// 013   ----------------------------------------
	BYTE	PATT
	 POIN2	FE11FootstepsofFateSme_4_001
// 014   ----------------------------------------
	BYTE	W24
	BYTE		N52     Fs1   v124
	BYTE	W72
// 015   ----------------------------------------
	BYTE	PATT
	 POIN2	FE11FootstepsofFateSme_4_003
// 016   ----------------------------------------
	BYTE	PATT
	 POIN2	FE11FootstepsofFateSme_4_004
// 017   ----------------------------------------
	BYTE	PATT
	 POIN2	FE11FootstepsofFateSme_4_001
// 018   ----------------------------------------
	BYTE	W24
	BYTE		N52     En1   v124
	BYTE	W72
// 019   ----------------------------------------
	BYTE	W12
	BYTE		N05     En1   v092
	BYTE	W06
	BYTE		        En1   v076
	BYTE	W06
	BYTE		N23     Gs1   v124
	BYTE	W24
	BYTE		N05     Gs1   v116
	BYTE	W06
	BYTE		N11     Gs1   v104
	BYTE	W12
	BYTE		N28   
	BYTE	W30
// 020   ----------------------------------------
	BYTE	W24
	BYTE		        Gn1   v088
	BYTE	W72
// 021   ----------------------------------------
	BYTE	W96
// 022   ----------------------------------------
	BYTE	W24
	BYTE		VOL     108*FE11FootstepsofFateSme_mvl/mxv
	BYTE		PAN     c_v+9
	BYTE		VOL     108*FE11FootstepsofFateSme_mvl/mxv
	BYTE	W01
	BYTE		        107*FE11FootstepsofFateSme_mvl/mxv
	BYTE	W02
	BYTE		        105*FE11FootstepsofFateSme_mvl/mxv
	BYTE	W01
	BYTE		        103*FE11FootstepsofFateSme_mvl/mxv
	BYTE	W02
	BYTE		        102*FE11FootstepsofFateSme_mvl/mxv
	BYTE	W01
	BYTE		        101*FE11FootstepsofFateSme_mvl/mxv
	BYTE	W02
	BYTE		        99*FE11FootstepsofFateSme_mvl/mxv
	BYTE	W01
	BYTE		        97*FE11FootstepsofFateSme_mvl/mxv
	BYTE	W02
	BYTE		        96*FE11FootstepsofFateSme_mvl/mxv
	BYTE	W01
	BYTE		        95*FE11FootstepsofFateSme_mvl/mxv
	BYTE	W02
	BYTE		        93*FE11FootstepsofFateSme_mvl/mxv
	BYTE	W01
	BYTE		        92*FE11FootstepsofFateSme_mvl/mxv
	BYTE	W02
	BYTE		        90*FE11FootstepsofFateSme_mvl/mxv
	BYTE	W01
	BYTE		        89*FE11FootstepsofFateSme_mvl/mxv
	BYTE	W02
	BYTE		        87*FE11FootstepsofFateSme_mvl/mxv
	BYTE	W01
	BYTE		        86*FE11FootstepsofFateSme_mvl/mxv
	BYTE	W02
	BYTE		        85*FE11FootstepsofFateSme_mvl/mxv
	BYTE		N23     Gs2   v076
	BYTE	W01
	BYTE		VOL     83*FE11FootstepsofFateSme_mvl/mxv
	BYTE	W02
	BYTE		        81*FE11FootstepsofFateSme_mvl/mxv
	BYTE	W01
	BYTE		        80*FE11FootstepsofFateSme_mvl/mxv
	BYTE	W02
	BYTE		        79*FE11FootstepsofFateSme_mvl/mxv
	BYTE	W01
	BYTE		        77*FE11FootstepsofFateSme_mvl/mxv
	BYTE	W02
	BYTE		        76*FE11FootstepsofFateSme_mvl/mxv
	BYTE	W01
	BYTE		        74*FE11FootstepsofFateSme_mvl/mxv
	BYTE	W02
	BYTE		        73*FE11FootstepsofFateSme_mvl/mxv
	BYTE	W01
	BYTE		        71*FE11FootstepsofFateSme_mvl/mxv
	BYTE	W02
	BYTE		        70*FE11FootstepsofFateSme_mvl/mxv
	BYTE	W01
	BYTE		        68*FE11FootstepsofFateSme_mvl/mxv
	BYTE	W02
	BYTE		        67*FE11FootstepsofFateSme_mvl/mxv
	BYTE	W01
	BYTE		        65*FE11FootstepsofFateSme_mvl/mxv
	BYTE	W02
	BYTE		        63*FE11FootstepsofFateSme_mvl/mxv
	BYTE	W03
	BYTE		        64*FE11FootstepsofFateSme_mvl/mxv
	BYTE		N23     An2   v068
	BYTE	W01
	BYTE		VOL     65*FE11FootstepsofFateSme_mvl/mxv
	BYTE	W02
	BYTE		        66*FE11FootstepsofFateSme_mvl/mxv
	BYTE	W03
	BYTE		        67*FE11FootstepsofFateSme_mvl/mxv
	BYTE	W01
	BYTE		        68*FE11FootstepsofFateSme_mvl/mxv
	BYTE	W02
	BYTE		        68*FE11FootstepsofFateSme_mvl/mxv
	BYTE	W01
	BYTE		        69*FE11FootstepsofFateSme_mvl/mxv
	BYTE	W02
	BYTE		        71*FE11FootstepsofFateSme_mvl/mxv
	BYTE	W01
	BYTE		        72*FE11FootstepsofFateSme_mvl/mxv
	BYTE	W02
	BYTE		        73*FE11FootstepsofFateSme_mvl/mxv
	BYTE	W01
	BYTE		        74*FE11FootstepsofFateSme_mvl/mxv
	BYTE	W02
	BYTE		        75*FE11FootstepsofFateSme_mvl/mxv
	BYTE	W01
	BYTE		        77*FE11FootstepsofFateSme_mvl/mxv
	BYTE	W02
	BYTE		        79*FE11FootstepsofFateSme_mvl/mxv
	BYTE	W01
	BYTE		        80*FE11FootstepsofFateSme_mvl/mxv
	BYTE	W02
// 023   ----------------------------------------
	BYTE		        82*FE11FootstepsofFateSme_mvl/mxv
	BYTE		N23     Bn2   v100
	BYTE	W01
	BYTE		VOL     84*FE11FootstepsofFateSme_mvl/mxv
	BYTE	W02
	BYTE		        86*FE11FootstepsofFateSme_mvl/mxv
	BYTE	W01
	BYTE		        88*FE11FootstepsofFateSme_mvl/mxv
	BYTE	W02
	BYTE		        91*FE11FootstepsofFateSme_mvl/mxv
	BYTE	W01
	BYTE		        94*FE11FootstepsofFateSme_mvl/mxv
	BYTE	W02
	BYTE		        97*FE11FootstepsofFateSme_mvl/mxv
	BYTE	W01
	BYTE		        101*FE11FootstepsofFateSme_mvl/mxv
	BYTE	W14
	BYTE		N23     Cs3   v084
	BYTE	W24
	BYTE		        Bn2   v100
	BYTE	W24
	BYTE		        An2   v072
	BYTE	W12
	BYTE		VOL     101*FE11FootstepsofFateSme_mvl/mxv
	BYTE	W03
	BYTE		        100*FE11FootstepsofFateSme_mvl/mxv
	BYTE	W02
	BYTE		        99*FE11FootstepsofFateSme_mvl/mxv
	BYTE	W01
	BYTE		        98*FE11FootstepsofFateSme_mvl/mxv
	BYTE	W02
	BYTE		        97*FE11FootstepsofFateSme_mvl/mxv
	BYTE	W01
	BYTE		        96*FE11FootstepsofFateSme_mvl/mxv
	BYTE	W02
	BYTE		        96*FE11FootstepsofFateSme_mvl/mxv
	BYTE	W01
// 024   ----------------------------------------
	BYTE		        95*FE11FootstepsofFateSme_mvl/mxv
	BYTE		N23     Gs2 
	BYTE	W02
	BYTE		VOL     94*FE11FootstepsofFateSme_mvl/mxv
	BYTE	W01
	BYTE		        93*FE11FootstepsofFateSme_mvl/mxv
	BYTE	W02
	BYTE		        92*FE11FootstepsofFateSme_mvl/mxv
	BYTE	W01
	BYTE		        90*FE11FootstepsofFateSme_mvl/mxv
	BYTE	W02
	BYTE		        90*FE11FootstepsofFateSme_mvl/mxv
	BYTE	W01
	BYTE		        89*FE11FootstepsofFateSme_mvl/mxv
	BYTE	W02
	BYTE		        88*FE11FootstepsofFateSme_mvl/mxv
	BYTE	W01
	BYTE		        86*FE11FootstepsofFateSme_mvl/mxv
	BYTE	W02
	BYTE		        85*FE11FootstepsofFateSme_mvl/mxv
	BYTE	W01
	BYTE		        84*FE11FootstepsofFateSme_mvl/mxv
	BYTE	W02
	BYTE		        83*FE11FootstepsofFateSme_mvl/mxv
	BYTE	W01
	BYTE		        81*FE11FootstepsofFateSme_mvl/mxv
	BYTE	W02
	BYTE		        79*FE11FootstepsofFateSme_mvl/mxv
	BYTE	W01
	BYTE		        79*FE11FootstepsofFateSme_mvl/mxv
	BYTE	W02
	BYTE		        77*FE11FootstepsofFateSme_mvl/mxv
	BYTE	W01
	BYTE		        75*FE11FootstepsofFateSme_mvl/mxv
	BYTE		N54     Gn2   v060
	BYTE	W02
	BYTE		VOL     73*FE11FootstepsofFateSme_mvl/mxv
	BYTE	W01
	BYTE		        72*FE11FootstepsofFateSme_mvl/mxv
	BYTE	W02
	BYTE		        69*FE11FootstepsofFateSme_mvl/mxv
	BYTE	W01
	BYTE		        68*FE11FootstepsofFateSme_mvl/mxv
	BYTE	W02
	BYTE		        66*FE11FootstepsofFateSme_mvl/mxv
	BYTE	W01
	BYTE		        63*FE11FootstepsofFateSme_mvl/mxv
	BYTE	W02
	BYTE		        62*FE11FootstepsofFateSme_mvl/mxv
	BYTE	W01
	BYTE		        59*FE11FootstepsofFateSme_mvl/mxv
	BYTE	W02
	BYTE		        56*FE11FootstepsofFateSme_mvl/mxv
	BYTE	W01
	BYTE		        54*FE11FootstepsofFateSme_mvl/mxv
	BYTE	W02
	BYTE		        51*FE11FootstepsofFateSme_mvl/mxv
	BYTE	W01
	BYTE		        48*FE11FootstepsofFateSme_mvl/mxv
	BYTE	W02
	BYTE		        45*FE11FootstepsofFateSme_mvl/mxv
	BYTE	W01
	BYTE		        42*FE11FootstepsofFateSme_mvl/mxv
	BYTE	W48
	BYTE	W03
// 025   ----------------------------------------
	BYTE	W96
// 026   ----------------------------------------
	BYTE	W96
// 027   ----------------------------------------
	BYTE	W96
// 028   ----------------------------------------
	BYTE	W23
	BYTE		        42*FE11FootstepsofFateSme_mvl/mxv
	BYTE	W01
	BYTE		        46*FE11FootstepsofFateSme_mvl/mxv
	BYTE		PAN     c_v+0
	BYTE		VOL     117*FE11FootstepsofFateSme_mvl/mxv
	BYTE		N17     Fs1   v120
	BYTE	W24
	BYTE		N02     Fs1   v112
	BYTE	W06
	BYTE		N03     Fs1   v092
	BYTE	W06
	BYTE		N52     Fs1   v116
	BYTE	W36
// 029   ----------------------------------------
	BYTE	W24
	BYTE		N19     Fs1   v120
	BYTE	W24
	BYTE		N03     Fs1   v096
	BYTE	W06
	BYTE		N02     Fs1   v084
	BYTE	W06
	BYTE		N40     Fs1   v120
	BYTE	W36
// 030   ----------------------------------------
	BYTE	W12
	BYTE		N06   
	BYTE	W12
	BYTE		N20     Fs1   v127
	BYTE	W24
	BYTE		N03     Fs1   v108
	BYTE	W06
	BYTE		        Fs1   v084
	BYTE	W06
	BYTE		N52     Fs1   v120
	BYTE	W36
// 031   ----------------------------------------
	BYTE	W24
	BYTE		N24   
	BYTE	W36
	BYTE		N24   
	BYTE	W36
// 032   ----------------------------------------
	BYTE		N01     Fs1   v104
	BYTE	W06
	BYTE		N02     Fs1   v092
	BYTE	W06
	BYTE		N03     Fs1   v084
	BYTE	W12
	BYTE		N20     Fs1   v120
	BYTE	W24
	BYTE		N02     Fs1   v104
	BYTE	W06
	BYTE		        Fs1   v084
	BYTE	W06
	BYTE		N54     Fs1   v120
	BYTE	W36
// 033   ----------------------------------------
	BYTE	W24
	BYTE		N16     Fs1   v092
	BYTE	W24
	BYTE		N02   
	BYTE	W06
	BYTE		N03     Fs1   v084
	BYTE	W06
	BYTE		N36     Fs1   v112
	BYTE	W36
// 034   ----------------------------------------
	BYTE	W24
	BYTE		N15   
	BYTE	W18
	BYTE		N02     Fs1   v108
	BYTE	W06
	BYTE		        Fs1   v092
	BYTE	W06
	BYTE		        Fs1   v108
	BYTE	W06
	BYTE		N44     Fs1   v112
	BYTE	W36
// 035   ----------------------------------------
	BYTE	W24
	BYTE		N17     Fs1   v120
	BYTE	W24
	BYTE		N06   
	BYTE	W12
	BYTE		N56   
	BYTE	W36
// 036   ----------------------------------------
	BYTE	W24
	BYTE		N52   
	BYTE	W72
// 037   ----------------------------------------
	BYTE	PATT
	 POIN2	FE11FootstepsofFateSme_4_001
// 038   ----------------------------------------
	BYTE	W24
	BYTE		N52     Fs1   v124
	BYTE	W72
// 039   ----------------------------------------
	BYTE	PATT
	 POIN2	FE11FootstepsofFateSme_4_003
// 040   ----------------------------------------
	BYTE		N23     Fs3   v104
	BYTE	W24
	BYTE		N52     Fs1   v124
	BYTE	W72
// 041   ----------------------------------------
	BYTE	PATT
	 POIN2	FE11FootstepsofFateSme_4_003
// 042   ----------------------------------------
	BYTE	PATT
	 POIN2	FE11FootstepsofFateSme_4_004
// 043   ----------------------------------------
	BYTE	PATT
	 POIN2	FE11FootstepsofFateSme_4_001
// 044   ----------------------------------------
	BYTE	W23
	BYTE	GoTo
	 POIN2	FE11FootstepsofFateSme_4_B1
FE11FootstepsofFateSme_4_B2:
	BYTE	FINE

//**************** Track 5 (Midi-Chn.5) ****************//

FE11FootstepsofFateSme_5:
	BYTE	KEYSH   FE11FootstepsofFateSme_key+0
// 000   ----------------------------------------
	BYTE		VOICE   60
	BYTE		MODT    0
	BYTE		LFOS    44
	BYTE		VOL     127*FE11FootstepsofFateSme_mvl/mxv
	BYTE	W24
	BYTE		PAN     c_v+18
	BYTE		VOL     127*FE11FootstepsofFateSme_mvl/mxv
	BYTE		BEND    c_v+0
	BYTE		N03     Gs2   v080
	BYTE		N03     An2   v072
	BYTE		N03     Cs3   v084
	BYTE	W06
	BYTE		        Gs2   v040
	BYTE		N03     An2   v032
	BYTE		N03     Cs3   v040
	BYTE	W18
	BYTE		        Gs2   v076
	BYTE		N03     An2   v064
	BYTE		N03     Cs3   v072
	BYTE	W06
	BYTE		        Gs2   v032
	BYTE		N03     An2   v024
	BYTE		N03     Cs3   v032
	BYTE	W18
	BYTE		N02     Gs2   v072
	BYTE		N04     An2 
	BYTE		N03     Cs3 
	BYTE	W06
	BYTE		N02     Gs2   v032
	BYTE		N04     An2   v028
	BYTE		N03     Cs3 
	BYTE	W18
// 001   ----------------------------------------
	BYTE		N04     Gs2   v068
	BYTE		N04     An2   v076
	BYTE		N04     Cs3   v084
	BYTE	W06
	BYTE		        Gs2   v028
	BYTE		N04     An2   v032
	BYTE		N04     Cs3   v040
	BYTE	W18
	BYTE		N03     Gs2   v064
	BYTE		N04     An2 
	BYTE		N04     Cs3   v092
	BYTE	W06
	BYTE		N03     Gs2   v020
	BYTE		N04     An2 
	BYTE		N04     Cs3   v052
	BYTE	W18
	BYTE		N02     Gs2   v084
	BYTE		N03     An2   v076
	BYTE		N04     Cs3   v088
	BYTE	W06
	BYTE		N02     Gs2   v040
	BYTE		N03     An2   v032
	BYTE		N04     Cs3   v048
	BYTE	W18
	BYTE		N03     Gs2   v080
	BYTE		N03     An2   v076
	BYTE		N04     Cs3   v100
	BYTE	W06
	BYTE		N03     Gs2   v040
	BYTE		N03     An2   v032
	BYTE		N04     Cs3   v056
	BYTE	W18
// 002   ----------------------------------------
	BYTE		N03     Gs2   v092
	BYTE		N03     An2   v080
	BYTE		N04     Cs3   v100
	BYTE	W06
	BYTE		N03     Gs2   v052
	BYTE		N03     An2   v036
	BYTE		N04     Cs3   v056
	BYTE	W18
	BYTE		N23     An2   v080
	BYTE		N23     Dn3 
	BYTE	W24
	BYTE		        Gs2   v100
	BYTE		N23     Cs3 
	BYTE	W24
	BYTE		        Cs3   v088
	BYTE		N23     Fs3 
	BYTE	W24
// 003   ----------------------------------------
	BYTE		        Bn2 
	BYTE		N23     En3   v096
	BYTE	W24
	BYTE		N05     Gs3   v100
	BYTE	W06
	BYTE		        Fs3   v084
	BYTE	W06
	BYTE		        En3 
	BYTE	W06
	BYTE		        Bn2   v080
	BYTE	W06
	BYTE		        Bn3   v100
	BYTE	W06
	BYTE		        An3   v080
	BYTE	W06
	BYTE		        Gs3 
	BYTE	W06
	BYTE		        En3   v076
	BYTE	W06
	BYTE		        Dn4   v092
	BYTE	W06
	BYTE		        Cs4   v076
	BYTE	W06
	BYTE		        Bn3   v096
	BYTE	W06
	BYTE		        Gs3   v092
	BYTE	W06
// 004   ----------------------------------------
	BYTE		N02     Gs2   v088
	BYTE		N02     Bn2 
	BYTE	W03
	BYTE		        An2   v096
	BYTE		N02     Cs3 
	BYTE	W03
	BYTE		        Bn2   v092
	BYTE		N02     Dn3 
	BYTE	W03
	BYTE		        Cs3   v088
	BYTE		N02     En3 
	BYTE	W03
	BYTE		        Dn3 
	BYTE		N02     Fs3 
	BYTE	W03
	BYTE		        En3   v096
	BYTE		N02     Gs3 
	BYTE	W03
	BYTE		        Fs3   v092
	BYTE		N02     An3 
	BYTE	W03
	BYTE		        Gs3   v088
	BYTE		N02     Bn3 
	BYTE	W03
	BYTE		N80     An3   v076
	BYTE		N92     Cs4   v080
	BYTE	W06
	BYTE		VOL     127*FE11FootstepsofFateSme_mvl/mxv
	BYTE	W06
	BYTE		        126*FE11FootstepsofFateSme_mvl/mxv
	BYTE	W03
	BYTE		        125*FE11FootstepsofFateSme_mvl/mxv
	BYTE	W03
	BYTE		        124*FE11FootstepsofFateSme_mvl/mxv
	BYTE	W03
	BYTE		        123*FE11FootstepsofFateSme_mvl/mxv
	BYTE	W03
	BYTE		        122*FE11FootstepsofFateSme_mvl/mxv
	BYTE	W03
	BYTE		        121*FE11FootstepsofFateSme_mvl/mxv
	BYTE	W03
	BYTE		        120*FE11FootstepsofFateSme_mvl/mxv
	BYTE	W03
	BYTE		        119*FE11FootstepsofFateSme_mvl/mxv
	BYTE	W03
	BYTE		        118*FE11FootstepsofFateSme_mvl/mxv
	BYTE	W03
	BYTE		        116*FE11FootstepsofFateSme_mvl/mxv
	BYTE	W03
	BYTE		        115*FE11FootstepsofFateSme_mvl/mxv
	BYTE	W03
	BYTE		        114*FE11FootstepsofFateSme_mvl/mxv
	BYTE	W03
	BYTE		        112*FE11FootstepsofFateSme_mvl/mxv
	BYTE	W03
	BYTE		        111*FE11FootstepsofFateSme_mvl/mxv
	BYTE	W03
	BYTE		        109*FE11FootstepsofFateSme_mvl/mxv
	BYTE	W03
	BYTE		        107*FE11FootstepsofFateSme_mvl/mxv
	BYTE	W03
	BYTE		        105*FE11FootstepsofFateSme_mvl/mxv
	BYTE	W03
	BYTE		        103*FE11FootstepsofFateSme_mvl/mxv
	BYTE	W03
	BYTE		        101*FE11FootstepsofFateSme_mvl/mxv
	BYTE	W03
	BYTE		        99*FE11FootstepsofFateSme_mvl/mxv
	BYTE	W03
// 005   ----------------------------------------
	BYTE		        97*FE11FootstepsofFateSme_mvl/mxv
	BYTE	W03
	BYTE		        94*FE11FootstepsofFateSme_mvl/mxv
	BYTE	W03
	BYTE		        91*FE11FootstepsofFateSme_mvl/mxv
	BYTE	W03
	BYTE		        88*FE11FootstepsofFateSme_mvl/mxv
	BYTE		N02     Dn3   v104
	BYTE	W03
	BYTE		VOL     85*FE11FootstepsofFateSme_mvl/mxv
	BYTE		N02     En3 
	BYTE	W03
	BYTE		VOL     82*FE11FootstepsofFateSme_mvl/mxv
	BYTE		N02     Fs3 
	BYTE	W03
	BYTE		VOL     78*FE11FootstepsofFateSme_mvl/mxv
	BYTE		N02     Gs3 
	BYTE	W03
	BYTE		VOL     74*FE11FootstepsofFateSme_mvl/mxv
	BYTE		N02     An3 
	BYTE	W02
	BYTE		VOL     70*FE11FootstepsofFateSme_mvl/mxv
	BYTE	W01
	BYTE		N44     Gs3   v092
	BYTE		N44     Bn3   v112
	BYTE	W05
	BYTE		VOL     71*FE11FootstepsofFateSme_mvl/mxv
	BYTE	W03
	BYTE		        72*FE11FootstepsofFateSme_mvl/mxv
	BYTE	W03
	BYTE		        73*FE11FootstepsofFateSme_mvl/mxv
	BYTE	W03
	BYTE		        74*FE11FootstepsofFateSme_mvl/mxv
	BYTE	W03
	BYTE		        75*FE11FootstepsofFateSme_mvl/mxv
	BYTE	W03
	BYTE		        76*FE11FootstepsofFateSme_mvl/mxv
	BYTE	W03
	BYTE		        77*FE11FootstepsofFateSme_mvl/mxv
	BYTE	W03
	BYTE		        79*FE11FootstepsofFateSme_mvl/mxv
	BYTE	W03
	BYTE		        80*FE11FootstepsofFateSme_mvl/mxv
	BYTE	W03
	BYTE		        81*FE11FootstepsofFateSme_mvl/mxv
	BYTE	W03
	BYTE		        83*FE11FootstepsofFateSme_mvl/mxv
	BYTE	W03
	BYTE		        84*FE11FootstepsofFateSme_mvl/mxv
	BYTE	W03
	BYTE		        86*FE11FootstepsofFateSme_mvl/mxv
	BYTE	W03
	BYTE		        88*FE11FootstepsofFateSme_mvl/mxv
	BYTE	W03
	BYTE		        90*FE11FootstepsofFateSme_mvl/mxv
	BYTE	W01
	BYTE		N32     En3   v092
	BYTE		N32     Gs3   v108
	BYTE	W02
	BYTE		VOL     92*FE11FootstepsofFateSme_mvl/mxv
	BYTE	W03
	BYTE		        94*FE11FootstepsofFateSme_mvl/mxv
	BYTE	W03
	BYTE		        96*FE11FootstepsofFateSme_mvl/mxv
	BYTE	W03
	BYTE		        99*FE11FootstepsofFateSme_mvl/mxv
	BYTE	W03
	BYTE		        102*FE11FootstepsofFateSme_mvl/mxv
	BYTE	W03
	BYTE		        105*FE11FootstepsofFateSme_mvl/mxv
	BYTE	W03
	BYTE		        108*FE11FootstepsofFateSme_mvl/mxv
	BYTE	W03
	BYTE		        112*FE11FootstepsofFateSme_mvl/mxv
	BYTE	W01
// 006   ----------------------------------------
	BYTE	W02
	BYTE		        116*FE11FootstepsofFateSme_mvl/mxv
	BYTE	W03
	BYTE		        120*FE11FootstepsofFateSme_mvl/mxv
	BYTE	W03
	BYTE		        125*FE11FootstepsofFateSme_mvl/mxv
	BYTE	W01
	BYTE		        127*FE11FootstepsofFateSme_mvl/mxv
	BYTE	W03
	BYTE		N05     Dn3   v096
	BYTE		N05     Fs3   v108
	BYTE	W06
	BYTE		        En3   v100
	BYTE		N05     Gs3   v116
	BYTE	W06
FE11FootstepsofFateSme_5_B1:
	BYTE		VOL     127*FE11FootstepsofFateSme_mvl/mxv
	BYTE		N05     En3   v092
	BYTE		N05     Gs3   v104
	BYTE	W06
	BYTE		VOL     126*FE11FootstepsofFateSme_mvl/mxv
	BYTE		N05     Fs3   v096
	BYTE		N05     An3   v112
	BYTE	W03
	BYTE		VOL     125*FE11FootstepsofFateSme_mvl/mxv
	BYTE	W03
	BYTE		        124*FE11FootstepsofFateSme_mvl/mxv
	BYTE		N66     An2   v092
	BYTE		N66     Cs3   v108
	BYTE	W03
	BYTE		VOL     123*FE11FootstepsofFateSme_mvl/mxv
	BYTE	W03
	BYTE		        122*FE11FootstepsofFateSme_mvl/mxv
	BYTE	W03
	BYTE		        121*FE11FootstepsofFateSme_mvl/mxv
	BYTE	W03
	BYTE		        120*FE11FootstepsofFateSme_mvl/mxv
	BYTE	W03
	BYTE		        119*FE11FootstepsofFateSme_mvl/mxv
	BYTE	W03
	BYTE		        117*FE11FootstepsofFateSme_mvl/mxv
	BYTE	W03
	BYTE		        116*FE11FootstepsofFateSme_mvl/mxv
	BYTE	W03
	BYTE		        115*FE11FootstepsofFateSme_mvl/mxv
	BYTE	W03
	BYTE		        114*FE11FootstepsofFateSme_mvl/mxv
	BYTE	W03
	BYTE		        112*FE11FootstepsofFateSme_mvl/mxv
	BYTE	W03
	BYTE		        111*FE11FootstepsofFateSme_mvl/mxv
	BYTE	W03
	BYTE		        109*FE11FootstepsofFateSme_mvl/mxv
	BYTE	W03
	BYTE		        107*FE11FootstepsofFateSme_mvl/mxv
	BYTE	W03
	BYTE		        106*FE11FootstepsofFateSme_mvl/mxv
	BYTE	W03
	BYTE		        104*FE11FootstepsofFateSme_mvl/mxv
	BYTE	W03
	BYTE		        102*FE11FootstepsofFateSme_mvl/mxv
	BYTE	W03
	BYTE		        100*FE11FootstepsofFateSme_mvl/mxv
	BYTE	W03
	BYTE		        98*FE11FootstepsofFateSme_mvl/mxv
	BYTE	W03
	BYTE		        96*FE11FootstepsofFateSme_mvl/mxv
	BYTE	W03
// 007   ----------------------------------------
	BYTE		        94*FE11FootstepsofFateSme_mvl/mxv
	BYTE	W03
	BYTE		        91*FE11FootstepsofFateSme_mvl/mxv
	BYTE	W03
	BYTE		        89*FE11FootstepsofFateSme_mvl/mxv
	BYTE	W03
	BYTE		        86*FE11FootstepsofFateSme_mvl/mxv
	BYTE		N02     Cs3   v120
	BYTE		N02     Fs3 
	BYTE	W03
	BYTE		VOL     83*FE11FootstepsofFateSme_mvl/mxv
	BYTE		N05     Fs3   v088
	BYTE		N05     An3   v100
	BYTE	W03
	BYTE		VOL     80*FE11FootstepsofFateSme_mvl/mxv
	BYTE	W02
	BYTE		        77*FE11FootstepsofFateSme_mvl/mxv
	BYTE	W01
	BYTE		N05     En3 
	BYTE		N05     Gs3   v112
	BYTE	W05
	BYTE		VOL     78*FE11FootstepsofFateSme_mvl/mxv
	BYTE	W01
	BYTE		N44     Gs2   v096
	BYTE		N44     Bn2   v116
	BYTE	W02
	BYTE		VOL     79*FE11FootstepsofFateSme_mvl/mxv
	BYTE	W06
	BYTE		        80*FE11FootstepsofFateSme_mvl/mxv
	BYTE	W03
	BYTE		        81*FE11FootstepsofFateSme_mvl/mxv
	BYTE	W03
	BYTE		        82*FE11FootstepsofFateSme_mvl/mxv
	BYTE	W03
	BYTE		        83*FE11FootstepsofFateSme_mvl/mxv
	BYTE	W03
	BYTE		        84*FE11FootstepsofFateSme_mvl/mxv
	BYTE	W03
	BYTE		        85*FE11FootstepsofFateSme_mvl/mxv
	BYTE	W03
	BYTE		        86*FE11FootstepsofFateSme_mvl/mxv
	BYTE	W03
	BYTE		        87*FE11FootstepsofFateSme_mvl/mxv
	BYTE	W03
	BYTE		        88*FE11FootstepsofFateSme_mvl/mxv
	BYTE	W03
	BYTE		        89*FE11FootstepsofFateSme_mvl/mxv
	BYTE	W03
	BYTE		        91*FE11FootstepsofFateSme_mvl/mxv
	BYTE	W03
	BYTE		        92*FE11FootstepsofFateSme_mvl/mxv
	BYTE	W03
	BYTE		        93*FE11FootstepsofFateSme_mvl/mxv
	BYTE	W03
	BYTE		        95*FE11FootstepsofFateSme_mvl/mxv
	BYTE	W01
	BYTE		N44     Bn2   v096
	BYTE		N44     En3   v116
	BYTE	W02
	BYTE		VOL     96*FE11FootstepsofFateSme_mvl/mxv
	BYTE	W03
	BYTE		        98*FE11FootstepsofFateSme_mvl/mxv
	BYTE	W03
	BYTE		        100*FE11FootstepsofFateSme_mvl/mxv
	BYTE	W03
	BYTE		        102*FE11FootstepsofFateSme_mvl/mxv
	BYTE	W03
	BYTE		        104*FE11FootstepsofFateSme_mvl/mxv
	BYTE	W03
	BYTE		        106*FE11FootstepsofFateSme_mvl/mxv
	BYTE	W03
	BYTE		        108*FE11FootstepsofFateSme_mvl/mxv
	BYTE	W03
	BYTE		        111*FE11FootstepsofFateSme_mvl/mxv
	BYTE	W01
// 008   ----------------------------------------
	BYTE	W02
	BYTE		        114*FE11FootstepsofFateSme_mvl/mxv
	BYTE	W03
	BYTE		        116*FE11FootstepsofFateSme_mvl/mxv
	BYTE	W03
	BYTE		        120*FE11FootstepsofFateSme_mvl/mxv
	BYTE	W03
	BYTE		        123*FE11FootstepsofFateSme_mvl/mxv
	BYTE	W03
	BYTE		        127*FE11FootstepsofFateSme_mvl/mxv
	BYTE	W10
	BYTE		N92     An2   v076
	BYTE		N92     Cs3   v096
	BYTE	W01
	BYTE		VOL     127*FE11FootstepsofFateSme_mvl/mxv
	BYTE	W06
	BYTE		        126*FE11FootstepsofFateSme_mvl/mxv
	BYTE	W03
	BYTE		        125*FE11FootstepsofFateSme_mvl/mxv
	BYTE	W03
	BYTE		        124*FE11FootstepsofFateSme_mvl/mxv
	BYTE	W03
	BYTE		        123*FE11FootstepsofFateSme_mvl/mxv
	BYTE	W03
	BYTE		        122*FE11FootstepsofFateSme_mvl/mxv
	BYTE	W03
	BYTE		        121*FE11FootstepsofFateSme_mvl/mxv
	BYTE	W03
	BYTE		        120*FE11FootstepsofFateSme_mvl/mxv
	BYTE	W03
	BYTE		        119*FE11FootstepsofFateSme_mvl/mxv
	BYTE	W03
	BYTE		        118*FE11FootstepsofFateSme_mvl/mxv
	BYTE	W03
	BYTE		        117*FE11FootstepsofFateSme_mvl/mxv
	BYTE	W03
	BYTE		        116*FE11FootstepsofFateSme_mvl/mxv
	BYTE	W03
	BYTE		        115*FE11FootstepsofFateSme_mvl/mxv
	BYTE	W03
	BYTE		        113*FE11FootstepsofFateSme_mvl/mxv
	BYTE	W03
	BYTE		        112*FE11FootstepsofFateSme_mvl/mxv
	BYTE	W03
	BYTE		        111*FE11FootstepsofFateSme_mvl/mxv
	BYTE	W03
	BYTE		        109*FE11FootstepsofFateSme_mvl/mxv
	BYTE	W03
	BYTE		        108*FE11FootstepsofFateSme_mvl/mxv
	BYTE	W03
	BYTE		        106*FE11FootstepsofFateSme_mvl/mxv
	BYTE	W03
	BYTE		        105*FE11FootstepsofFateSme_mvl/mxv
	BYTE	W03
	BYTE		        103*FE11FootstepsofFateSme_mvl/mxv
	BYTE	W03
	BYTE		        101*FE11FootstepsofFateSme_mvl/mxv
	BYTE	W03
	BYTE		        99*FE11FootstepsofFateSme_mvl/mxv
	BYTE	W02
// 009   ----------------------------------------
	BYTE	W01
	BYTE		        97*FE11FootstepsofFateSme_mvl/mxv
	BYTE	W03
	BYTE		        95*FE11FootstepsofFateSme_mvl/mxv
	BYTE	W03
	BYTE		        93*FE11FootstepsofFateSme_mvl/mxv
	BYTE	W03
	BYTE		        91*FE11FootstepsofFateSme_mvl/mxv
	BYTE	W03
	BYTE		        88*FE11FootstepsofFateSme_mvl/mxv
	BYTE	W03
	BYTE		        86*FE11FootstepsofFateSme_mvl/mxv
	BYTE	W03
	BYTE		        83*FE11FootstepsofFateSme_mvl/mxv
	BYTE	W03
	BYTE		        80*FE11FootstepsofFateSme_mvl/mxv
	BYTE	W01
	BYTE		        78*FE11FootstepsofFateSme_mvl/mxv
	BYTE	W01
	BYTE		N92     Gs2   v064
	BYTE		N92     Bn2   v072
	BYTE	W05
	BYTE		VOL     79*FE11FootstepsofFateSme_mvl/mxv
	BYTE	W03
	BYTE		        80*FE11FootstepsofFateSme_mvl/mxv
	BYTE	W03
	BYTE		        81*FE11FootstepsofFateSme_mvl/mxv
	BYTE	W06
	BYTE		        82*FE11FootstepsofFateSme_mvl/mxv
	BYTE	W03
	BYTE		        83*FE11FootstepsofFateSme_mvl/mxv
	BYTE	W03
	BYTE		        84*FE11FootstepsofFateSme_mvl/mxv
	BYTE	W03
	BYTE		        85*FE11FootstepsofFateSme_mvl/mxv
	BYTE	W03
	BYTE		        86*FE11FootstepsofFateSme_mvl/mxv
	BYTE	W03
	BYTE		        87*FE11FootstepsofFateSme_mvl/mxv
	BYTE	W03
	BYTE		        89*FE11FootstepsofFateSme_mvl/mxv
	BYTE	W03
	BYTE		        90*FE11FootstepsofFateSme_mvl/mxv
	BYTE	W03
	BYTE		        91*FE11FootstepsofFateSme_mvl/mxv
	BYTE	W03
	BYTE		        92*FE11FootstepsofFateSme_mvl/mxv
	BYTE	W03
	BYTE		        94*FE11FootstepsofFateSme_mvl/mxv
	BYTE	W03
	BYTE		        95*FE11FootstepsofFateSme_mvl/mxv
	BYTE	W03
	BYTE		        97*FE11FootstepsofFateSme_mvl/mxv
	BYTE	W03
	BYTE		        98*FE11FootstepsofFateSme_mvl/mxv
	BYTE	W03
	BYTE		        100*FE11FootstepsofFateSme_mvl/mxv
	BYTE	W03
	BYTE		        102*FE11FootstepsofFateSme_mvl/mxv
	BYTE	W03
	BYTE		        104*FE11FootstepsofFateSme_mvl/mxv
	BYTE	W03
	BYTE		        106*FE11FootstepsofFateSme_mvl/mxv
	BYTE	W03
	BYTE		        108*FE11FootstepsofFateSme_mvl/mxv
	BYTE	W01
// 010   ----------------------------------------
	BYTE	W02
	BYTE		        110*FE11FootstepsofFateSme_mvl/mxv
	BYTE	W03
	BYTE		        113*FE11FootstepsofFateSme_mvl/mxv
	BYTE	W03
	BYTE		        115*FE11FootstepsofFateSme_mvl/mxv
	BYTE	W03
	BYTE		        118*FE11FootstepsofFateSme_mvl/mxv
	BYTE	W03
	BYTE		        121*FE11FootstepsofFateSme_mvl/mxv
	BYTE	W03
	BYTE		        124*FE11FootstepsofFateSme_mvl/mxv
	BYTE	W02
	BYTE		        127*FE11FootstepsofFateSme_mvl/mxv
	BYTE	W05
	BYTE		N44     An2   v068
	BYTE		N44     Cs3   v088
	BYTE	W01
	BYTE		VOL     126*FE11FootstepsofFateSme_mvl/mxv
	BYTE	W06
	BYTE		        125*FE11FootstepsofFateSme_mvl/mxv
	BYTE	W06
	BYTE		        124*FE11FootstepsofFateSme_mvl/mxv
	BYTE	W06
	BYTE		        123*FE11FootstepsofFateSme_mvl/mxv
	BYTE	W03
	BYTE		        122*FE11FootstepsofFateSme_mvl/mxv
	BYTE	W03
	BYTE		        121*FE11FootstepsofFateSme_mvl/mxv
	BYTE	W06
	BYTE		        120*FE11FootstepsofFateSme_mvl/mxv
	BYTE	W03
	BYTE		        119*FE11FootstepsofFateSme_mvl/mxv
	BYTE	W03
	BYTE		        118*FE11FootstepsofFateSme_mvl/mxv
	BYTE	W03
	BYTE		        117*FE11FootstepsofFateSme_mvl/mxv
	BYTE	W03
	BYTE		        116*FE11FootstepsofFateSme_mvl/mxv
	BYTE	W03
	BYTE		        115*FE11FootstepsofFateSme_mvl/mxv
	BYTE	W02
	BYTE		N23     An2   v064
	BYTE		N23     Cs3   v068
	BYTE	W01
	BYTE		VOL     114*FE11FootstepsofFateSme_mvl/mxv
	BYTE	W03
	BYTE		        113*FE11FootstepsofFateSme_mvl/mxv
	BYTE	W03
	BYTE		        112*FE11FootstepsofFateSme_mvl/mxv
	BYTE	W03
	BYTE		        111*FE11FootstepsofFateSme_mvl/mxv
	BYTE	W03
	BYTE		        109*FE11FootstepsofFateSme_mvl/mxv
	BYTE	W03
	BYTE		        108*FE11FootstepsofFateSme_mvl/mxv
	BYTE	W03
	BYTE		        106*FE11FootstepsofFateSme_mvl/mxv
	BYTE	W03
	BYTE		        105*FE11FootstepsofFateSme_mvl/mxv
	BYTE	W02
// 011   ----------------------------------------
	BYTE		N23     Cs3   v072
	BYTE	W01
	BYTE		VOL     103*FE11FootstepsofFateSme_mvl/mxv
	BYTE	W03
	BYTE		        101*FE11FootstepsofFateSme_mvl/mxv
	BYTE	W03
	BYTE		        99*FE11FootstepsofFateSme_mvl/mxv
	BYTE	W03
	BYTE		        97*FE11FootstepsofFateSme_mvl/mxv
	BYTE	W03
	BYTE		        95*FE11FootstepsofFateSme_mvl/mxv
	BYTE	W03
	BYTE		        92*FE11FootstepsofFateSme_mvl/mxv
	BYTE	W03
	BYTE		        89*FE11FootstepsofFateSme_mvl/mxv
	BYTE	W03
	BYTE		        86*FE11FootstepsofFateSme_mvl/mxv
	BYTE	W02
	BYTE		        84*FE11FootstepsofFateSme_mvl/mxv
	BYTE		N23     Dn3   v100
	BYTE	W06
	BYTE		VOL     85*FE11FootstepsofFateSme_mvl/mxv
	BYTE	W06
	BYTE		        86*FE11FootstepsofFateSme_mvl/mxv
	BYTE	W03
	BYTE		        87*FE11FootstepsofFateSme_mvl/mxv
	BYTE	W03
	BYTE		        88*FE11FootstepsofFateSme_mvl/mxv
	BYTE	W06
	BYTE		        89*FE11FootstepsofFateSme_mvl/mxv
	BYTE		N23     En3   v096
	BYTE	W03
	BYTE		VOL     90*FE11FootstepsofFateSme_mvl/mxv
	BYTE	W03
	BYTE		        91*FE11FootstepsofFateSme_mvl/mxv
	BYTE	W03
	BYTE		        92*FE11FootstepsofFateSme_mvl/mxv
	BYTE	W03
	BYTE		        93*FE11FootstepsofFateSme_mvl/mxv
	BYTE	W03
	BYTE		        94*FE11FootstepsofFateSme_mvl/mxv
	BYTE	W03
	BYTE		        96*FE11FootstepsofFateSme_mvl/mxv
	BYTE	W03
	BYTE		        97*FE11FootstepsofFateSme_mvl/mxv
	BYTE	W03
	BYTE		        99*FE11FootstepsofFateSme_mvl/mxv
	BYTE		N23     Fs3   v100
	BYTE	W03
	BYTE		VOL     100*FE11FootstepsofFateSme_mvl/mxv
	BYTE	W03
	BYTE		        102*FE11FootstepsofFateSme_mvl/mxv
	BYTE	W03
	BYTE		        104*FE11FootstepsofFateSme_mvl/mxv
	BYTE	W03
	BYTE		        106*FE11FootstepsofFateSme_mvl/mxv
	BYTE	W03
	BYTE		        108*FE11FootstepsofFateSme_mvl/mxv
	BYTE	W03
	BYTE		        111*FE11FootstepsofFateSme_mvl/mxv
	BYTE	W03
	BYTE		        114*FE11FootstepsofFateSme_mvl/mxv
	BYTE	W03
// 012   ----------------------------------------
	BYTE		        117*FE11FootstepsofFateSme_mvl/mxv
	BYTE		N23     Bn3 
	BYTE	W03
	BYTE		VOL     120*FE11FootstepsofFateSme_mvl/mxv
	BYTE	W03
	BYTE		        124*FE11FootstepsofFateSme_mvl/mxv
	BYTE	W02
	BYTE		        127*FE11FootstepsofFateSme_mvl/mxv
	BYTE	W03
	BYTE		        126*FE11FootstepsofFateSme_mvl/mxv
	BYTE	W01
	BYTE		        125*FE11FootstepsofFateSme_mvl/mxv
	BYTE	W02
	BYTE		        124*FE11FootstepsofFateSme_mvl/mxv
	BYTE	W01
	BYTE		        123*FE11FootstepsofFateSme_mvl/mxv
	BYTE	W02
	BYTE		        121*FE11FootstepsofFateSme_mvl/mxv
	BYTE	W01
	BYTE		        119*FE11FootstepsofFateSme_mvl/mxv
	BYTE	W02
	BYTE		        117*FE11FootstepsofFateSme_mvl/mxv
	BYTE	W01
	BYTE		        115*FE11FootstepsofFateSme_mvl/mxv
	BYTE	W02
	BYTE		        112*FE11FootstepsofFateSme_mvl/mxv
	BYTE	W01
	BYTE		        108*FE11FootstepsofFateSme_mvl/mxv
	BYTE		N80     Cs4   v084
	BYTE		N80     An4   v064
	BYTE	W02
	BYTE		VOL     103*FE11FootstepsofFateSme_mvl/mxv
	BYTE	W01
	BYTE		        95*FE11FootstepsofFateSme_mvl/mxv
	BYTE	W06
	BYTE		        96*FE11FootstepsofFateSme_mvl/mxv
	BYTE	W06
	BYTE		        97*FE11FootstepsofFateSme_mvl/mxv
	BYTE	W06
	BYTE		        98*FE11FootstepsofFateSme_mvl/mxv
	BYTE	W03
	BYTE		        99*FE11FootstepsofFateSme_mvl/mxv
	BYTE	W03
	BYTE		        100*FE11FootstepsofFateSme_mvl/mxv
	BYTE	W06
	BYTE		        101*FE11FootstepsofFateSme_mvl/mxv
	BYTE	W03
	BYTE		        102*FE11FootstepsofFateSme_mvl/mxv
	BYTE	W03
	BYTE		        103*FE11FootstepsofFateSme_mvl/mxv
	BYTE	W03
	BYTE		        104*FE11FootstepsofFateSme_mvl/mxv
	BYTE	W03
	BYTE		        105*FE11FootstepsofFateSme_mvl/mxv
	BYTE	W03
	BYTE		        107*FE11FootstepsofFateSme_mvl/mxv
	BYTE	W03
	BYTE		        108*FE11FootstepsofFateSme_mvl/mxv
	BYTE	W03
	BYTE		        109*FE11FootstepsofFateSme_mvl/mxv
	BYTE	W03
	BYTE		        111*FE11FootstepsofFateSme_mvl/mxv
	BYTE	W03
	BYTE		        113*FE11FootstepsofFateSme_mvl/mxv
	BYTE	W03
	BYTE		        115*FE11FootstepsofFateSme_mvl/mxv
	BYTE	W03
	BYTE		        117*FE11FootstepsofFateSme_mvl/mxv
	BYTE	W03
	BYTE		        119*FE11FootstepsofFateSme_mvl/mxv
	BYTE	W03
// 013   ----------------------------------------
	BYTE		        122*FE11FootstepsofFateSme_mvl/mxv
	BYTE	W01
	BYTE		        123*FE11FootstepsofFateSme_mvl/mxv
	BYTE	W06
	BYTE		        122*FE11FootstepsofFateSme_mvl/mxv
	BYTE	W05
	BYTE		N05     Bn3   v080
	BYTE		N05     Gs4   v064
	BYTE	W01
	BYTE		VOL     121*FE11FootstepsofFateSme_mvl/mxv
	BYTE	W05
	BYTE		N05     Cs4   v084
	BYTE		N05     An4   v068
	BYTE	W01
	BYTE		VOL     120*FE11FootstepsofFateSme_mvl/mxv
	BYTE	W04
	BYTE		        119*FE11FootstepsofFateSme_mvl/mxv
	BYTE	W01
	BYTE		N44     Bn3   v080
	BYTE		N44     Gs4   v068
	BYTE	W05
	BYTE		VOL     118*FE11FootstepsofFateSme_mvl/mxv
	BYTE	W03
	BYTE		        117*FE11FootstepsofFateSme_mvl/mxv
	BYTE	W03
	BYTE		        116*FE11FootstepsofFateSme_mvl/mxv
	BYTE	W03
	BYTE		        115*FE11FootstepsofFateSme_mvl/mxv
	BYTE	W03
	BYTE		        114*FE11FootstepsofFateSme_mvl/mxv
	BYTE	W03
	BYTE		        113*FE11FootstepsofFateSme_mvl/mxv
	BYTE	W04
	BYTE		        112*FE11FootstepsofFateSme_mvl/mxv
	BYTE	W03
	BYTE		        111*FE11FootstepsofFateSme_mvl/mxv
	BYTE	W03
	BYTE		        109*FE11FootstepsofFateSme_mvl/mxv
	BYTE	W03
	BYTE		        108*FE11FootstepsofFateSme_mvl/mxv
	BYTE	W03
	BYTE		        106*FE11FootstepsofFateSme_mvl/mxv
	BYTE	W03
	BYTE		        105*FE11FootstepsofFateSme_mvl/mxv
	BYTE	W03
	BYTE		        103*FE11FootstepsofFateSme_mvl/mxv
	BYTE	W01
	BYTE		        102*FE11FootstepsofFateSme_mvl/mxv
	BYTE	W03
	BYTE		        103*FE11FootstepsofFateSme_mvl/mxv
	BYTE	W02
	BYTE		N32     En3   v076
	BYTE		N32     Bn3 
	BYTE	W01
	BYTE		VOL     104*FE11FootstepsofFateSme_mvl/mxv
	BYTE	W03
	BYTE		        106*FE11FootstepsofFateSme_mvl/mxv
	BYTE	W03
	BYTE		        107*FE11FootstepsofFateSme_mvl/mxv
	BYTE	W03
	BYTE		        109*FE11FootstepsofFateSme_mvl/mxv
	BYTE	W03
	BYTE		        111*FE11FootstepsofFateSme_mvl/mxv
	BYTE	W03
	BYTE		        114*FE11FootstepsofFateSme_mvl/mxv
	BYTE	W03
	BYTE		        116*FE11FootstepsofFateSme_mvl/mxv
	BYTE	W03
	BYTE		        119*FE11FootstepsofFateSme_mvl/mxv
	BYTE	W02
// 014   ----------------------------------------
	BYTE	W01
	BYTE		        122*FE11FootstepsofFateSme_mvl/mxv
	BYTE	W03
	BYTE		        127*FE11FootstepsofFateSme_mvl/mxv
	BYTE	W08
	BYTE		N05     Bn2   v080
	BYTE		N05     Gs3 
	BYTE	W06
	BYTE		        Cs3 
	BYTE		N05     An3 
	BYTE	W03
	BYTE		VOL     127*FE11FootstepsofFateSme_mvl/mxv
	BYTE	W03
	BYTE		N05     Dn3   v084
	BYTE		N05     Bn3 
	BYTE	W06
	BYTE		        En3   v072
	BYTE		N05     Cs4 
	BYTE	W05
	BYTE		VOL     126*FE11FootstepsofFateSme_mvl/mxv
	BYTE	W01
	BYTE		N68     Fs3   v076
	BYTE		N68     Dn4 
	BYTE	W08
	BYTE		VOL     125*FE11FootstepsofFateSme_mvl/mxv
	BYTE	W10
	BYTE		        124*FE11FootstepsofFateSme_mvl/mxv
	BYTE	W05
	BYTE		        123*FE11FootstepsofFateSme_mvl/mxv
	BYTE	W09
	BYTE		        122*FE11FootstepsofFateSme_mvl/mxv
	BYTE	W10
	BYTE		        121*FE11FootstepsofFateSme_mvl/mxv
	BYTE	W04
	BYTE		        120*FE11FootstepsofFateSme_mvl/mxv
	BYTE	W05
	BYTE		        119*FE11FootstepsofFateSme_mvl/mxv
	BYTE	W09
// 015   ----------------------------------------
	BYTE	W01
	BYTE		        118*FE11FootstepsofFateSme_mvl/mxv
	BYTE	W04
	BYTE		        117*FE11FootstepsofFateSme_mvl/mxv
	BYTE	W05
	BYTE		        116*FE11FootstepsofFateSme_mvl/mxv
	BYTE	W02
	BYTE		N05     Gs3   v080
	BYTE		N05     En4 
	BYTE	W06
	BYTE		        An3   v072
	BYTE		N05     Fs4 
	BYTE	W02
	BYTE		VOL     115*FE11FootstepsofFateSme_mvl/mxv
	BYTE	W04
	BYTE		        114*FE11FootstepsofFateSme_mvl/mxv
	BYTE		N05     Gs3   v076
	BYTE		N05     En4 
	BYTE	W05
	BYTE		VOL     113*FE11FootstepsofFateSme_mvl/mxv
	BYTE	W01
	BYTE		N05     En3 
	BYTE		N05     Bn3 
	BYTE	W04
	BYTE		VOL     112*FE11FootstepsofFateSme_mvl/mxv
	BYTE	W02
	BYTE		N68     Bn2   v084
	BYTE		N68     Gs3 
	BYTE	W03
	BYTE		VOL     111*FE11FootstepsofFateSme_mvl/mxv
	BYTE	W04
	BYTE		        110*FE11FootstepsofFateSme_mvl/mxv
	BYTE	W05
	BYTE		        108*FE11FootstepsofFateSme_mvl/mxv
	BYTE	W05
	BYTE		        107*FE11FootstepsofFateSme_mvl/mxv
	BYTE	W05
	BYTE		        106*FE11FootstepsofFateSme_mvl/mxv
	BYTE	W04
	BYTE		        105*FE11FootstepsofFateSme_mvl/mxv
	BYTE	W05
	BYTE		        103*FE11FootstepsofFateSme_mvl/mxv
	BYTE	W05
	BYTE		        102*FE11FootstepsofFateSme_mvl/mxv
	BYTE	W05
	BYTE		        100*FE11FootstepsofFateSme_mvl/mxv
	BYTE	W04
	BYTE		        98*FE11FootstepsofFateSme_mvl/mxv
	BYTE	W05
	BYTE		        97*FE11FootstepsofFateSme_mvl/mxv
	BYTE	W05
	BYTE		        95*FE11FootstepsofFateSme_mvl/mxv
	BYTE	W05
// 016   ----------------------------------------
	BYTE		        93*FE11FootstepsofFateSme_mvl/mxv
	BYTE	W04
	BYTE		        91*FE11FootstepsofFateSme_mvl/mxv
	BYTE	W01
	BYTE		        90*FE11FootstepsofFateSme_mvl/mxv
	BYTE	W07
	BYTE		N05     Bn2   v044
	BYTE		N05     Gs3 
	BYTE	W11
	BYTE		VOL     90*FE11FootstepsofFateSme_mvl/mxv
	BYTE	W01
	BYTE		N92     Cs3   v068
	BYTE		N44     Gs3   v072
	BYTE	W05
	BYTE		VOL     91*FE11FootstepsofFateSme_mvl/mxv
	BYTE	W03
	BYTE		        92*FE11FootstepsofFateSme_mvl/mxv
	BYTE	W06
	BYTE		        93*FE11FootstepsofFateSme_mvl/mxv
	BYTE	W03
	BYTE		        94*FE11FootstepsofFateSme_mvl/mxv
	BYTE	W03
	BYTE		        95*FE11FootstepsofFateSme_mvl/mxv
	BYTE	W06
	BYTE		        96*FE11FootstepsofFateSme_mvl/mxv
	BYTE	W03
	BYTE		        97*FE11FootstepsofFateSme_mvl/mxv
	BYTE	W03
	BYTE		        98*FE11FootstepsofFateSme_mvl/mxv
	BYTE	W03
	BYTE		        99*FE11FootstepsofFateSme_mvl/mxv
	BYTE	W03
	BYTE		        100*FE11FootstepsofFateSme_mvl/mxv
	BYTE	W03
	BYTE		        101*FE11FootstepsofFateSme_mvl/mxv
	BYTE	W03
	BYTE		        102*FE11FootstepsofFateSme_mvl/mxv
	BYTE	W03
	BYTE		        103*FE11FootstepsofFateSme_mvl/mxv
	BYTE	W01
	BYTE		N44     Fs3   v080
	BYTE	W02
	BYTE		VOL     104*FE11FootstepsofFateSme_mvl/mxv
	BYTE	W03
	BYTE		        105*FE11FootstepsofFateSme_mvl/mxv
	BYTE	W03
	BYTE		        106*FE11FootstepsofFateSme_mvl/mxv
	BYTE	W03
	BYTE		        108*FE11FootstepsofFateSme_mvl/mxv
	BYTE	W03
	BYTE		        109*FE11FootstepsofFateSme_mvl/mxv
	BYTE	W03
	BYTE		        110*FE11FootstepsofFateSme_mvl/mxv
	BYTE	W03
	BYTE		        112*FE11FootstepsofFateSme_mvl/mxv
	BYTE	W03
	BYTE		        113*FE11FootstepsofFateSme_mvl/mxv
	BYTE	W01
// 017   ----------------------------------------
	BYTE	W02
	BYTE		        115*FE11FootstepsofFateSme_mvl/mxv
	BYTE	W03
	BYTE		        116*FE11FootstepsofFateSme_mvl/mxv
	BYTE	W03
	BYTE		        118*FE11FootstepsofFateSme_mvl/mxv
	BYTE	W03
	BYTE		        120*FE11FootstepsofFateSme_mvl/mxv
	BYTE	W03
	BYTE		        121*FE11FootstepsofFateSme_mvl/mxv
	BYTE	W03
	BYTE		        123*FE11FootstepsofFateSme_mvl/mxv
	BYTE	W03
	BYTE		        125*FE11FootstepsofFateSme_mvl/mxv
	BYTE	W02
	BYTE		        127*FE11FootstepsofFateSme_mvl/mxv
	BYTE	W02
	BYTE		N90     Bn2   v084
	BYTE		N92     Gs3   v080
	BYTE	W04
	BYTE		VOL     126*FE11FootstepsofFateSme_mvl/mxv
	BYTE	W03
	BYTE		        125*FE11FootstepsofFateSme_mvl/mxv
	BYTE	W03
	BYTE		        124*FE11FootstepsofFateSme_mvl/mxv
	BYTE	W03
	BYTE		        123*FE11FootstepsofFateSme_mvl/mxv
	BYTE	W06
	BYTE		        122*FE11FootstepsofFateSme_mvl/mxv
	BYTE	W03
	BYTE		        121*FE11FootstepsofFateSme_mvl/mxv
	BYTE	W03
	BYTE		        120*FE11FootstepsofFateSme_mvl/mxv
	BYTE	W03
	BYTE		        119*FE11FootstepsofFateSme_mvl/mxv
	BYTE	W03
	BYTE		        118*FE11FootstepsofFateSme_mvl/mxv
	BYTE	W03
	BYTE		        116*FE11FootstepsofFateSme_mvl/mxv
	BYTE	W03
	BYTE		        115*FE11FootstepsofFateSme_mvl/mxv
	BYTE	W03
	BYTE		        114*FE11FootstepsofFateSme_mvl/mxv
	BYTE	W03
	BYTE		        113*FE11FootstepsofFateSme_mvl/mxv
	BYTE	W03
	BYTE		        111*FE11FootstepsofFateSme_mvl/mxv
	BYTE	W03
	BYTE		        110*FE11FootstepsofFateSme_mvl/mxv
	BYTE	W03
	BYTE		        109*FE11FootstepsofFateSme_mvl/mxv
	BYTE	W03
	BYTE		        107*FE11FootstepsofFateSme_mvl/mxv
	BYTE	W03
	BYTE		        105*FE11FootstepsofFateSme_mvl/mxv
	BYTE	W03
	BYTE		        104*FE11FootstepsofFateSme_mvl/mxv
	BYTE	W03
	BYTE		        102*FE11FootstepsofFateSme_mvl/mxv
	BYTE	W03
	BYTE		        100*FE11FootstepsofFateSme_mvl/mxv
	BYTE	W03
	BYTE		        98*FE11FootstepsofFateSme_mvl/mxv
	BYTE	W02
// 018   ----------------------------------------
	BYTE	W01
	BYTE		        96*FE11FootstepsofFateSme_mvl/mxv
	BYTE	W03
	BYTE		        94*FE11FootstepsofFateSme_mvl/mxv
	BYTE	W03
	BYTE		        91*FE11FootstepsofFateSme_mvl/mxv
	BYTE	W03
	BYTE		        89*FE11FootstepsofFateSme_mvl/mxv
	BYTE	W03
	BYTE		        86*FE11FootstepsofFateSme_mvl/mxv
	BYTE	W03
	BYTE		        83*FE11FootstepsofFateSme_mvl/mxv
	BYTE	W03
	BYTE		        80*FE11FootstepsofFateSme_mvl/mxv
	BYTE	W03
	BYTE		        77*FE11FootstepsofFateSme_mvl/mxv
	BYTE	W02
	BYTE		        74*FE11FootstepsofFateSme_mvl/mxv
	BYTE		N92     Bn2   v084
	BYTE		N92     En3   v080
	BYTE	W14
	BYTE		VOL     75*FE11FootstepsofFateSme_mvl/mxv
	BYTE	W07
	BYTE		        76*FE11FootstepsofFateSme_mvl/mxv
	BYTE	W10
	BYTE		        77*FE11FootstepsofFateSme_mvl/mxv
	BYTE	W11
	BYTE		        78*FE11FootstepsofFateSme_mvl/mxv
	BYTE	W07
	BYTE		        79*FE11FootstepsofFateSme_mvl/mxv
	BYTE	W07
	BYTE		        80*FE11FootstepsofFateSme_mvl/mxv
	BYTE	W06
	BYTE		        81*FE11FootstepsofFateSme_mvl/mxv
	BYTE	W07
	BYTE		        82*FE11FootstepsofFateSme_mvl/mxv
	BYTE	W03
// 019   ----------------------------------------
	BYTE	W04
	BYTE		        83*FE11FootstepsofFateSme_mvl/mxv
	BYTE	W04
	BYTE		        84*FE11FootstepsofFateSme_mvl/mxv
	BYTE	W07
	BYTE		        85*FE11FootstepsofFateSme_mvl/mxv
	BYTE	W03
	BYTE		        86*FE11FootstepsofFateSme_mvl/mxv
	BYTE	W06
	BYTE		N80     Cn3   v076
	BYTE		N44     Fs3   v080
	BYTE	W01
	BYTE		VOL     87*FE11FootstepsofFateSme_mvl/mxv
	BYTE	W04
	BYTE		        88*FE11FootstepsofFateSme_mvl/mxv
	BYTE	W03
	BYTE		        89*FE11FootstepsofFateSme_mvl/mxv
	BYTE	W04
	BYTE		        90*FE11FootstepsofFateSme_mvl/mxv
	BYTE	W07
	BYTE		        91*FE11FootstepsofFateSme_mvl/mxv
	BYTE	W03
	BYTE		        92*FE11FootstepsofFateSme_mvl/mxv
	BYTE	W04
	BYTE		        93*FE11FootstepsofFateSme_mvl/mxv
	BYTE	W03
	BYTE		        94*FE11FootstepsofFateSme_mvl/mxv
	BYTE	W03
	BYTE		        95*FE11FootstepsofFateSme_mvl/mxv
	BYTE	W04
	BYTE		        97*FE11FootstepsofFateSme_mvl/mxv
	BYTE	W03
	BYTE		        98*FE11FootstepsofFateSme_mvl/mxv
	BYTE	W04
	BYTE		        99*FE11FootstepsofFateSme_mvl/mxv
	BYTE	W03
	BYTE		        101*FE11FootstepsofFateSme_mvl/mxv
	BYTE	W02
	BYTE		N23     Gs3 
	BYTE	W02
	BYTE		VOL     102*FE11FootstepsofFateSme_mvl/mxv
	BYTE	W03
	BYTE		        104*FE11FootstepsofFateSme_mvl/mxv
	BYTE	W04
	BYTE		        105*FE11FootstepsofFateSme_mvl/mxv
	BYTE	W03
	BYTE		        107*FE11FootstepsofFateSme_mvl/mxv
	BYTE	W04
	BYTE		        109*FE11FootstepsofFateSme_mvl/mxv
	BYTE	W03
	BYTE		        111*FE11FootstepsofFateSme_mvl/mxv
	BYTE	W04
	BYTE		        113*FE11FootstepsofFateSme_mvl/mxv
	BYTE	W01
// 020   ----------------------------------------
	BYTE		N23     As3 
	BYTE	W02
	BYTE		VOL     115*FE11FootstepsofFateSme_mvl/mxv
	BYTE	W04
	BYTE		        117*FE11FootstepsofFateSme_mvl/mxv
	BYTE	W03
	BYTE		        120*FE11FootstepsofFateSme_mvl/mxv
	BYTE	W04
	BYTE		        123*FE11FootstepsofFateSme_mvl/mxv
	BYTE	W03
	BYTE		        126*FE11FootstepsofFateSme_mvl/mxv
	BYTE	W01
	BYTE		        127*FE11FootstepsofFateSme_mvl/mxv
	BYTE	W03
	BYTE		        126*FE11FootstepsofFateSme_mvl/mxv
	BYTE	W03
	BYTE		        125*FE11FootstepsofFateSme_mvl/mxv
	BYTE	W01
	BYTE		N44     Cs3 
	BYTE		N84     Bn3   v076
	BYTE	W02
	BYTE		VOL     124*FE11FootstepsofFateSme_mvl/mxv
	BYTE	W03
	BYTE		        123*FE11FootstepsofFateSme_mvl/mxv
	BYTE	W03
	BYTE		        121*FE11FootstepsofFateSme_mvl/mxv
	BYTE	W03
	BYTE		        120*FE11FootstepsofFateSme_mvl/mxv
	BYTE	W03
	BYTE		        119*FE11FootstepsofFateSme_mvl/mxv
	BYTE	W03
	BYTE		        117*FE11FootstepsofFateSme_mvl/mxv
	BYTE	W03
	BYTE		        116*FE11FootstepsofFateSme_mvl/mxv
	BYTE	W03
	BYTE		        114*FE11FootstepsofFateSme_mvl/mxv
	BYTE	W03
	BYTE		        113*FE11FootstepsofFateSme_mvl/mxv
	BYTE	W03
	BYTE		        111*FE11FootstepsofFateSme_mvl/mxv
	BYTE	W03
	BYTE		        110*FE11FootstepsofFateSme_mvl/mxv
	BYTE	W03
	BYTE		        108*FE11FootstepsofFateSme_mvl/mxv
	BYTE	W03
	BYTE		        106*FE11FootstepsofFateSme_mvl/mxv
	BYTE	W03
	BYTE		        104*FE11FootstepsofFateSme_mvl/mxv
	BYTE	W03
	BYTE		        102*FE11FootstepsofFateSme_mvl/mxv
	BYTE	W03
	BYTE		        100*FE11FootstepsofFateSme_mvl/mxv
	BYTE	W01
	BYTE		N44     Bn2   v080
	BYTE	W02
	BYTE		VOL     98*FE11FootstepsofFateSme_mvl/mxv
	BYTE	W03
	BYTE		        96*FE11FootstepsofFateSme_mvl/mxv
	BYTE	W03
	BYTE		        94*FE11FootstepsofFateSme_mvl/mxv
	BYTE	W03
	BYTE		        92*FE11FootstepsofFateSme_mvl/mxv
	BYTE	W03
	BYTE		        90*FE11FootstepsofFateSme_mvl/mxv
	BYTE	W03
	BYTE		        87*FE11FootstepsofFateSme_mvl/mxv
	BYTE	W03
	BYTE		        85*FE11FootstepsofFateSme_mvl/mxv
	BYTE	W03
	BYTE		        82*FE11FootstepsofFateSme_mvl/mxv
	BYTE	W01
// 021   ----------------------------------------
	BYTE	W02
	BYTE		        79*FE11FootstepsofFateSme_mvl/mxv
	BYTE	W03
	BYTE		        76*FE11FootstepsofFateSme_mvl/mxv
	BYTE	W03
	BYTE		        73*FE11FootstepsofFateSme_mvl/mxv
	BYTE	W03
	BYTE		        70*FE11FootstepsofFateSme_mvl/mxv
	BYTE	W03
	BYTE		        67*FE11FootstepsofFateSme_mvl/mxv
	BYTE	W03
	BYTE		        63*FE11FootstepsofFateSme_mvl/mxv
	BYTE	W03
	BYTE		        60*FE11FootstepsofFateSme_mvl/mxv
	BYTE	W04
	BYTE		N44     Fs2 
	BYTE	W09
	BYTE		VOL     61*FE11FootstepsofFateSme_mvl/mxv
	BYTE	W13
	BYTE		        62*FE11FootstepsofFateSme_mvl/mxv
	BYTE	W09
	BYTE		        63*FE11FootstepsofFateSme_mvl/mxv
	BYTE	W08
	BYTE		        64*FE11FootstepsofFateSme_mvl/mxv
	BYTE	W09
	BYTE		N44     Bn2 
	BYTE	W04
	BYTE		VOL     65*FE11FootstepsofFateSme_mvl/mxv
	BYTE	W09
	BYTE		        66*FE11FootstepsofFateSme_mvl/mxv
	BYTE	W09
	BYTE		        67*FE11FootstepsofFateSme_mvl/mxv
	BYTE	W02
// 022   ----------------------------------------
	BYTE	W02
	BYTE		        68*FE11FootstepsofFateSme_mvl/mxv
	BYTE	W09
	BYTE		        69*FE11FootstepsofFateSme_mvl/mxv
	BYTE	W09
	BYTE		        70*FE11FootstepsofFateSme_mvl/mxv
	BYTE	W04
	BYTE		        71*FE11FootstepsofFateSme_mvl/mxv
	BYTE		N44     En3 
	BYTE	W09
	BYTE		VOL     72*FE11FootstepsofFateSme_mvl/mxv
	BYTE	W04
	BYTE		        73*FE11FootstepsofFateSme_mvl/mxv
	BYTE	W09
	BYTE		        74*FE11FootstepsofFateSme_mvl/mxv
	BYTE	W04
	BYTE		        75*FE11FootstepsofFateSme_mvl/mxv
	BYTE	W05
	BYTE		        76*FE11FootstepsofFateSme_mvl/mxv
	BYTE	W04
	BYTE		        77*FE11FootstepsofFateSme_mvl/mxv
	BYTE	W09
	BYTE		        78*FE11FootstepsofFateSme_mvl/mxv
	BYTE	W04
	BYTE		        79*FE11FootstepsofFateSme_mvl/mxv
	BYTE		N32     Bn2 
	BYTE	W05
	BYTE		VOL     80*FE11FootstepsofFateSme_mvl/mxv
	BYTE	W04
	BYTE		        81*FE11FootstepsofFateSme_mvl/mxv
	BYTE	W04
	BYTE		        82*FE11FootstepsofFateSme_mvl/mxv
	BYTE	W05
	BYTE		        83*FE11FootstepsofFateSme_mvl/mxv
	BYTE	W04
	BYTE		        85*FE11FootstepsofFateSme_mvl/mxv
	BYTE	W02
// 023   ----------------------------------------
	BYTE	W03
	BYTE		        86*FE11FootstepsofFateSme_mvl/mxv
	BYTE	W04
	BYTE		        87*FE11FootstepsofFateSme_mvl/mxv
	BYTE	W04
	BYTE		        88*FE11FootstepsofFateSme_mvl/mxv
	BYTE	W01
	BYTE		N05     Cs3 
	BYTE	W04
	BYTE		VOL     90*FE11FootstepsofFateSme_mvl/mxv
	BYTE	W02
	BYTE		N05     Dn3 
	BYTE	W02
	BYTE		VOL     91*FE11FootstepsofFateSme_mvl/mxv
	BYTE	W04
	BYTE		        93*FE11FootstepsofFateSme_mvl/mxv
	BYTE		N32     En3 
	BYTE	W05
	BYTE		VOL     94*FE11FootstepsofFateSme_mvl/mxv
	BYTE	W04
	BYTE		        96*FE11FootstepsofFateSme_mvl/mxv
	BYTE	W05
	BYTE		        97*FE11FootstepsofFateSme_mvl/mxv
	BYTE	W04
	BYTE		        99*FE11FootstepsofFateSme_mvl/mxv
	BYTE	W04
	BYTE		        101*FE11FootstepsofFateSme_mvl/mxv
	BYTE	W05
	BYTE		        103*FE11FootstepsofFateSme_mvl/mxv
	BYTE	W04
	BYTE		        105*FE11FootstepsofFateSme_mvl/mxv
	BYTE	W04
	BYTE		        108*FE11FootstepsofFateSme_mvl/mxv
	BYTE	W01
	BYTE		N05   
	BYTE	W04
	BYTE		VOL     110*FE11FootstepsofFateSme_mvl/mxv
	BYTE	W02
	BYTE		N05     Fs3 
	BYTE	W02
	BYTE		VOL     112*FE11FootstepsofFateSme_mvl/mxv
	BYTE	W04
	BYTE		N30     Gs3 
	BYTE	W01
	BYTE		VOL     116*FE11FootstepsofFateSme_mvl/mxv
	BYTE	W06
	BYTE		        114*FE11FootstepsofFateSme_mvl/mxv
	BYTE	W03
	BYTE		        113*FE11FootstepsofFateSme_mvl/mxv
	BYTE	W03
	BYTE		        112*FE11FootstepsofFateSme_mvl/mxv
	BYTE	W03
	BYTE		        111*FE11FootstepsofFateSme_mvl/mxv
	BYTE	W03
	BYTE		        109*FE11FootstepsofFateSme_mvl/mxv
	BYTE	W03
	BYTE		        108*FE11FootstepsofFateSme_mvl/mxv
	BYTE	W02
// 024   ----------------------------------------
	BYTE	W01
	BYTE		        106*FE11FootstepsofFateSme_mvl/mxv
	BYTE	W03
	BYTE		        104*FE11FootstepsofFateSme_mvl/mxv
	BYTE	W03
	BYTE		        102*FE11FootstepsofFateSme_mvl/mxv
	BYTE	W03
	BYTE		        100*FE11FootstepsofFateSme_mvl/mxv
	BYTE	W02
	BYTE		N11     Gs3   v092
	BYTE	W01
	BYTE		VOL     97*FE11FootstepsofFateSme_mvl/mxv
	BYTE	W03
	BYTE		        95*FE11FootstepsofFateSme_mvl/mxv
	BYTE	W03
	BYTE		        91*FE11FootstepsofFateSme_mvl/mxv
	BYTE	W03
	BYTE		        88*FE11FootstepsofFateSme_mvl/mxv
	BYTE	W02
	BYTE		N23     An2   v084
	BYTE		N23     Fs3   v096
	BYTE	W09
	BYTE		VOL     89*FE11FootstepsofFateSme_mvl/mxv
	BYTE	W08
	BYTE		        90*FE11FootstepsofFateSme_mvl/mxv
	BYTE	W07
	BYTE		        91*FE11FootstepsofFateSme_mvl/mxv
	BYTE		N23     Gn2   v072
	BYTE		N23     En3   v088
	BYTE	W08
	BYTE		VOL     92*FE11FootstepsofFateSme_mvl/mxv
	BYTE	W07
	BYTE		        93*FE11FootstepsofFateSme_mvl/mxv
	BYTE	W08
	BYTE		        94*FE11FootstepsofFateSme_mvl/mxv
	BYTE	W01
	BYTE		N23     Dn3   v084
	BYTE		N23     Bn3   v096
	BYTE	W07
	BYTE		VOL     95*FE11FootstepsofFateSme_mvl/mxv
	BYTE	W03
	BYTE		        96*FE11FootstepsofFateSme_mvl/mxv
	BYTE	W08
	BYTE		        97*FE11FootstepsofFateSme_mvl/mxv
	BYTE	W04
	BYTE		        98*FE11FootstepsofFateSme_mvl/mxv
	BYTE	W02
// 025   ----------------------------------------
	BYTE		N23     Cs3   v068
	BYTE		N23     An3   v088
	BYTE	W02
	BYTE		VOL     99*FE11FootstepsofFateSme_mvl/mxv
	BYTE	W03
	BYTE		        100*FE11FootstepsofFateSme_mvl/mxv
	BYTE	W08
	BYTE		        101*FE11FootstepsofFateSme_mvl/mxv
	BYTE	W04
	BYTE		        102*FE11FootstepsofFateSme_mvl/mxv
	BYTE	W04
	BYTE		        103*FE11FootstepsofFateSme_mvl/mxv
	BYTE	W03
	BYTE		        104*FE11FootstepsofFateSme_mvl/mxv
	BYTE		N23     An2   v072
	BYTE		N23     Fs3   v088
	BYTE	W04
	BYTE		VOL     106*FE11FootstepsofFateSme_mvl/mxv
	BYTE	W04
	BYTE		        107*FE11FootstepsofFateSme_mvl/mxv
	BYTE	W04
	BYTE		        108*FE11FootstepsofFateSme_mvl/mxv
	BYTE	W04
	BYTE		        109*FE11FootstepsofFateSme_mvl/mxv
	BYTE	W03
	BYTE		        111*FE11FootstepsofFateSme_mvl/mxv
	BYTE	W04
	BYTE		        112*FE11FootstepsofFateSme_mvl/mxv
	BYTE	W01
	BYTE		N23     Gn2   v064
	BYTE		N23     En3   v084
	BYTE	W03
	BYTE		VOL     114*FE11FootstepsofFateSme_mvl/mxv
	BYTE	W04
	BYTE		        116*FE11FootstepsofFateSme_mvl/mxv
	BYTE	W04
	BYTE		        117*FE11FootstepsofFateSme_mvl/mxv
	BYTE	W03
	BYTE		        119*FE11FootstepsofFateSme_mvl/mxv
	BYTE	W04
	BYTE		        122*FE11FootstepsofFateSme_mvl/mxv
	BYTE	W04
	BYTE		        124*FE11FootstepsofFateSme_mvl/mxv
	BYTE	W02
	BYTE		N32     Dn3   v076
	BYTE		N32     Bn3   v092
	BYTE	W02
	BYTE		VOL     127*FE11FootstepsofFateSme_mvl/mxv
	BYTE	W01
	BYTE		        126*FE11FootstepsofFateSme_mvl/mxv
	BYTE	W02
	BYTE		        125*FE11FootstepsofFateSme_mvl/mxv
	BYTE	W01
	BYTE		        124*FE11FootstepsofFateSme_mvl/mxv
	BYTE	W02
	BYTE		        123*FE11FootstepsofFateSme_mvl/mxv
	BYTE	W01
	BYTE		        122*FE11FootstepsofFateSme_mvl/mxv
	BYTE	W02
	BYTE		        121*FE11FootstepsofFateSme_mvl/mxv
	BYTE	W01
	BYTE		        119*FE11FootstepsofFateSme_mvl/mxv
	BYTE	W02
	BYTE		        118*FE11FootstepsofFateSme_mvl/mxv
	BYTE	W01
	BYTE		        116*FE11FootstepsofFateSme_mvl/mxv
	BYTE	W02
	BYTE		        115*FE11FootstepsofFateSme_mvl/mxv
	BYTE	W01
	BYTE		        113*FE11FootstepsofFateSme_mvl/mxv
	BYTE	W02
	BYTE		        111*FE11FootstepsofFateSme_mvl/mxv
	BYTE	W01
	BYTE		        109*FE11FootstepsofFateSme_mvl/mxv
	BYTE	W02
	BYTE		        107*FE11FootstepsofFateSme_mvl/mxv
	BYTE	W01
// 026   ----------------------------------------
	BYTE		        105*FE11FootstepsofFateSme_mvl/mxv
	BYTE	W02
	BYTE		        102*FE11FootstepsofFateSme_mvl/mxv
	BYTE	W01
	BYTE		        100*FE11FootstepsofFateSme_mvl/mxv
	BYTE	W02
	BYTE		        97*FE11FootstepsofFateSme_mvl/mxv
	BYTE	W01
	BYTE		        94*FE11FootstepsofFateSme_mvl/mxv
	BYTE	W02
	BYTE		        91*FE11FootstepsofFateSme_mvl/mxv
	BYTE	W01
	BYTE		        87*FE11FootstepsofFateSme_mvl/mxv
	BYTE	W02
	BYTE		        83*FE11FootstepsofFateSme_mvl/mxv
	BYTE	W01
	BYTE		        79*FE11FootstepsofFateSme_mvl/mxv
	BYTE		N11     Gn3   v084
	BYTE		N11     En4   v088
	BYTE	W02
	BYTE		VOL     74*FE11FootstepsofFateSme_mvl/mxv
	BYTE	W01
	BYTE		        69*FE11FootstepsofFateSme_mvl/mxv
	BYTE	W01
	BYTE		        68*FE11FootstepsofFateSme_mvl/mxv
	BYTE	W03
	BYTE		        69*FE11FootstepsofFateSme_mvl/mxv
	BYTE	W03
	BYTE		        71*FE11FootstepsofFateSme_mvl/mxv
	BYTE	W02
	BYTE		N23     Dn4   v068
	BYTE		N23     Fs4   v080
	BYTE	W01
	BYTE		VOL     73*FE11FootstepsofFateSme_mvl/mxv
	BYTE	W03
	BYTE		        75*FE11FootstepsofFateSme_mvl/mxv
	BYTE	W03
	BYTE		        77*FE11FootstepsofFateSme_mvl/mxv
	BYTE	W03
	BYTE		        79*FE11FootstepsofFateSme_mvl/mxv
	BYTE	W03
	BYTE		        81*FE11FootstepsofFateSme_mvl/mxv
	BYTE	W03
	BYTE		        83*FE11FootstepsofFateSme_mvl/mxv
	BYTE	W03
	BYTE		        85*FE11FootstepsofFateSme_mvl/mxv
	BYTE	W03
	BYTE		        87*FE11FootstepsofFateSme_mvl/mxv
	BYTE	W02
	BYTE		N23     Cs4   v068
	BYTE		N23     En4   v076
	BYTE	W01
	BYTE		VOL     89*FE11FootstepsofFateSme_mvl/mxv
	BYTE	W01
	BYTE		        90*FE11FootstepsofFateSme_mvl/mxv
	BYTE	W06
	BYTE		        91*FE11FootstepsofFateSme_mvl/mxv
	BYTE	W06
	BYTE		        92*FE11FootstepsofFateSme_mvl/mxv
	BYTE	W03
	BYTE		        93*FE11FootstepsofFateSme_mvl/mxv
	BYTE	W06
	BYTE		        94*FE11FootstepsofFateSme_mvl/mxv
	BYTE	W01
	BYTE		N23     Gn4   v068
	BYTE		N23     Bn4   v080
	BYTE	W02
	BYTE		VOL     95*FE11FootstepsofFateSme_mvl/mxv
	BYTE	W03
	BYTE		        96*FE11FootstepsofFateSme_mvl/mxv
	BYTE	W03
	BYTE		        97*FE11FootstepsofFateSme_mvl/mxv
	BYTE	W03
	BYTE		        98*FE11FootstepsofFateSme_mvl/mxv
	BYTE	W03
	BYTE		        99*FE11FootstepsofFateSme_mvl/mxv
	BYTE	W03
	BYTE		        100*FE11FootstepsofFateSme_mvl/mxv
	BYTE	W03
	BYTE		        102*FE11FootstepsofFateSme_mvl/mxv
	BYTE	W03
	BYTE		        103*FE11FootstepsofFateSme_mvl/mxv
	BYTE	W01
// 027   ----------------------------------------
	BYTE		N23     Fs4   v068
	BYTE		N23     An4   v076
	BYTE	W02
	BYTE		VOL     105*FE11FootstepsofFateSme_mvl/mxv
	BYTE	W03
	BYTE		        107*FE11FootstepsofFateSme_mvl/mxv
	BYTE	W03
	BYTE		        108*FE11FootstepsofFateSme_mvl/mxv
	BYTE	W03
	BYTE		        111*FE11FootstepsofFateSme_mvl/mxv
	BYTE	W03
	BYTE		        113*FE11FootstepsofFateSme_mvl/mxv
	BYTE	W03
	BYTE		        116*FE11FootstepsofFateSme_mvl/mxv
	BYTE	W03
	BYTE		        119*FE11FootstepsofFateSme_mvl/mxv
	BYTE	W03
	BYTE		        122*FE11FootstepsofFateSme_mvl/mxv
	BYTE	W01
	BYTE		N23     Fs4   v056
	BYTE		N92     En5   v068
	BYTE	W02
	BYTE		VOL     127*FE11FootstepsofFateSme_mvl/mxv
	BYTE	W01
	BYTE		        124*FE11FootstepsofFateSme_mvl/mxv
	BYTE	W01
	BYTE		        123*FE11FootstepsofFateSme_mvl/mxv
	BYTE	W01
	BYTE		        121*FE11FootstepsofFateSme_mvl/mxv
	BYTE	W01
	BYTE		        117*FE11FootstepsofFateSme_mvl/mxv
	BYTE	W01
	BYTE		        114*FE11FootstepsofFateSme_mvl/mxv
	BYTE	W01
	BYTE		        112*FE11FootstepsofFateSme_mvl/mxv
	BYTE	W01
	BYTE		        106*FE11FootstepsofFateSme_mvl/mxv
	BYTE	W01
	BYTE		        102*FE11FootstepsofFateSme_mvl/mxv
	BYTE	W01
	BYTE		        98*FE11FootstepsofFateSme_mvl/mxv
	BYTE	W01
	BYTE		        89*FE11FootstepsofFateSme_mvl/mxv
	BYTE	W01
	BYTE		        83*FE11FootstepsofFateSme_mvl/mxv
	BYTE	W01
	BYTE		        76*FE11FootstepsofFateSme_mvl/mxv
	BYTE	W06
	BYTE		        77*FE11FootstepsofFateSme_mvl/mxv
	BYTE	W03
	BYTE		        78*FE11FootstepsofFateSme_mvl/mxv
	BYTE	W01
	BYTE		N23     Bn4   v040
	BYTE	W02
	BYTE		VOL     79*FE11FootstepsofFateSme_mvl/mxv
	BYTE	W06
	BYTE		        80*FE11FootstepsofFateSme_mvl/mxv
	BYTE	W03
	BYTE		        81*FE11FootstepsofFateSme_mvl/mxv
	BYTE	W03
	BYTE		        82*FE11FootstepsofFateSme_mvl/mxv
	BYTE	W03
	BYTE		        84*FE11FootstepsofFateSme_mvl/mxv
	BYTE	W03
	BYTE		        85*FE11FootstepsofFateSme_mvl/mxv
	BYTE	W03
	BYTE		        86*FE11FootstepsofFateSme_mvl/mxv
	BYTE	W01
	BYTE		N23     Bn4   v056
	BYTE	W02
	BYTE		VOL     88*FE11FootstepsofFateSme_mvl/mxv
	BYTE	W03
	BYTE		        89*FE11FootstepsofFateSme_mvl/mxv
	BYTE	W03
	BYTE		        91*FE11FootstepsofFateSme_mvl/mxv
	BYTE	W03
	BYTE		        93*FE11FootstepsofFateSme_mvl/mxv
	BYTE	W03
	BYTE		        95*FE11FootstepsofFateSme_mvl/mxv
	BYTE	W03
	BYTE		        97*FE11FootstepsofFateSme_mvl/mxv
	BYTE	W03
	BYTE		        99*FE11FootstepsofFateSme_mvl/mxv
	BYTE	W03
	BYTE		        102*FE11FootstepsofFateSme_mvl/mxv
	BYTE	W01
// 028   ----------------------------------------
	BYTE	W02
	BYTE		        105*FE11FootstepsofFateSme_mvl/mxv
	BYTE	W03
	BYTE		        109*FE11FootstepsofFateSme_mvl/mxv
	BYTE	W03
	BYTE		        112*FE11FootstepsofFateSme_mvl/mxv
	BYTE	W03
	BYTE		        117*FE11FootstepsofFateSme_mvl/mxv
	BYTE	W03
	BYTE		        122*FE11FootstepsofFateSme_mvl/mxv
	BYTE	W02
	BYTE		        127*FE11FootstepsofFateSme_mvl/mxv
	BYTE	W80
// 029   ----------------------------------------
	BYTE	W24
	BYTE		        127*FE11FootstepsofFateSme_mvl/mxv
	BYTE	W72
// 030   ----------------------------------------
	BYTE		N05     Gs3   v100
	BYTE	W06
	BYTE		        En3 
	BYTE	W06
	BYTE		        Bn2   v104
	BYTE	W06
	BYTE		        Gs2   v108
	BYTE	W78
// 031   ----------------------------------------
	BYTE	W96
// 032   ----------------------------------------
	BYTE	W24
	BYTE		N07     An2   v100
	BYTE		N07     Cs3   v112
	BYTE	W09
	BYTE		N02     An2   v040
	BYTE		N02     Cs3 
	BYTE	W03
	BYTE		N05     Cs3   v100
	BYTE		N05     Fs3   v116
	BYTE	W06
	BYTE		        En3   v096
	BYTE		N05     Gs3   v112
	BYTE	W06
	BYTE		N56     Fs3   v104
	BYTE		N56     An3   v112
	BYTE	W04
	BYTE		VOL     127*FE11FootstepsofFateSme_mvl/mxv
	BYTE	W01
	BYTE		        121*FE11FootstepsofFateSme_mvl/mxv
	BYTE	W01
	BYTE		        114*FE11FootstepsofFateSme_mvl/mxv
	BYTE	W01
	BYTE		        100*FE11FootstepsofFateSme_mvl/mxv
	BYTE	W01
	BYTE		        93*FE11FootstepsofFateSme_mvl/mxv
	BYTE	W01
	BYTE		        86*FE11FootstepsofFateSme_mvl/mxv
	BYTE	W01
	BYTE		        72*FE11FootstepsofFateSme_mvl/mxv
	BYTE	W01
	BYTE		        68*FE11FootstepsofFateSme_mvl/mxv
	BYTE	W01
	BYTE		        69*FE11FootstepsofFateSme_mvl/mxv
	BYTE	W02
	BYTE		        70*FE11FootstepsofFateSme_mvl/mxv
	BYTE	W01
	BYTE		        71*FE11FootstepsofFateSme_mvl/mxv
	BYTE	W02
	BYTE		        72*FE11FootstepsofFateSme_mvl/mxv
	BYTE	W01
	BYTE		        73*FE11FootstepsofFateSme_mvl/mxv
	BYTE	W02
	BYTE		        75*FE11FootstepsofFateSme_mvl/mxv
	BYTE	W01
	BYTE		        76*FE11FootstepsofFateSme_mvl/mxv
	BYTE	W02
	BYTE		        77*FE11FootstepsofFateSme_mvl/mxv
	BYTE	W01
	BYTE		        79*FE11FootstepsofFateSme_mvl/mxv
	BYTE	W02
	BYTE		        80*FE11FootstepsofFateSme_mvl/mxv
	BYTE	W01
	BYTE		        82*FE11FootstepsofFateSme_mvl/mxv
	BYTE	W02
	BYTE		        84*FE11FootstepsofFateSme_mvl/mxv
	BYTE	W01
	BYTE		        85*FE11FootstepsofFateSme_mvl/mxv
	BYTE	W02
	BYTE		        87*FE11FootstepsofFateSme_mvl/mxv
	BYTE	W01
	BYTE		        89*FE11FootstepsofFateSme_mvl/mxv
	BYTE	W02
	BYTE		        91*FE11FootstepsofFateSme_mvl/mxv
	BYTE	W01
	BYTE		        92*FE11FootstepsofFateSme_mvl/mxv
	BYTE	W02
	BYTE		        94*FE11FootstepsofFateSme_mvl/mxv
	BYTE	W01
	BYTE		        97*FE11FootstepsofFateSme_mvl/mxv
	BYTE	W02
	BYTE		        99*FE11FootstepsofFateSme_mvl/mxv
	BYTE	W01
	BYTE		        101*FE11FootstepsofFateSme_mvl/mxv
	BYTE	W02
	BYTE		        103*FE11FootstepsofFateSme_mvl/mxv
	BYTE	W01
	BYTE		        106*FE11FootstepsofFateSme_mvl/mxv
	BYTE	W02
	BYTE		        108*FE11FootstepsofFateSme_mvl/mxv
	BYTE	W01
// 033   ----------------------------------------
	BYTE		        111*FE11FootstepsofFateSme_mvl/mxv
	BYTE	W02
	BYTE		        114*FE11FootstepsofFateSme_mvl/mxv
	BYTE	W01
	BYTE		        117*FE11FootstepsofFateSme_mvl/mxv
	BYTE	W02
	BYTE		        120*FE11FootstepsofFateSme_mvl/mxv
	BYTE	W01
	BYTE		        123*FE11FootstepsofFateSme_mvl/mxv
	BYTE	W02
	BYTE		        127*FE11FootstepsofFateSme_mvl/mxv
	BYTE	W04
	BYTE		N02     Fs3   v100
	BYTE		N02     An3   v108
	BYTE	W03
	BYTE		        Fs3   v040
	BYTE		N02     An3   v032
	BYTE	W03
	BYTE		        Fs3   v096
	BYTE		N02     An3   v104
	BYTE	W03
	BYTE		        Fs3   v040
	BYTE		N02     An3   v032
	BYTE	W03
	BYTE		N16     Fs3   v100
	BYTE		N16     An3   v108
	BYTE	W18
	BYTE		N05     En3   v096
	BYTE		N05     Gs3   v108
	BYTE	W06
	BYTE		VOL     127*FE11FootstepsofFateSme_mvl/mxv
	BYTE		N44     Gs3   v104
	BYTE		N44     Bn3   v112
	BYTE	W01
	BYTE		VOL     122*FE11FootstepsofFateSme_mvl/mxv
	BYTE	W01
	BYTE		        117*FE11FootstepsofFateSme_mvl/mxv
	BYTE	W01
	BYTE		        106*FE11FootstepsofFateSme_mvl/mxv
	BYTE	W01
	BYTE		        101*FE11FootstepsofFateSme_mvl/mxv
	BYTE	W01
	BYTE		        95*FE11FootstepsofFateSme_mvl/mxv
	BYTE	W01
	BYTE		        85*FE11FootstepsofFateSme_mvl/mxv
	BYTE	W01
	BYTE		        79*FE11FootstepsofFateSme_mvl/mxv
	BYTE	W01
	BYTE		        70*FE11FootstepsofFateSme_mvl/mxv
	BYTE	W02
	BYTE		        71*FE11FootstepsofFateSme_mvl/mxv
	BYTE	W01
	BYTE		        72*FE11FootstepsofFateSme_mvl/mxv
	BYTE	W02
	BYTE		        73*FE11FootstepsofFateSme_mvl/mxv
	BYTE	W01
	BYTE		        74*FE11FootstepsofFateSme_mvl/mxv
	BYTE	W02
	BYTE		        75*FE11FootstepsofFateSme_mvl/mxv
	BYTE	W01
	BYTE		        77*FE11FootstepsofFateSme_mvl/mxv
	BYTE	W02
	BYTE		        78*FE11FootstepsofFateSme_mvl/mxv
	BYTE	W01
	BYTE		        80*FE11FootstepsofFateSme_mvl/mxv
	BYTE	W02
	BYTE		        81*FE11FootstepsofFateSme_mvl/mxv
	BYTE	W01
	BYTE		        83*FE11FootstepsofFateSme_mvl/mxv
	BYTE	W02
	BYTE		        84*FE11FootstepsofFateSme_mvl/mxv
	BYTE	W01
	BYTE		        86*FE11FootstepsofFateSme_mvl/mxv
	BYTE	W02
	BYTE		        88*FE11FootstepsofFateSme_mvl/mxv
	BYTE	W01
	BYTE		        90*FE11FootstepsofFateSme_mvl/mxv
	BYTE	W02
	BYTE		        93*FE11FootstepsofFateSme_mvl/mxv
	BYTE	W01
	BYTE		        95*FE11FootstepsofFateSme_mvl/mxv
	BYTE	W02
	BYTE		        97*FE11FootstepsofFateSme_mvl/mxv
	BYTE	W01
	BYTE		        100*FE11FootstepsofFateSme_mvl/mxv
	BYTE	W02
	BYTE		        103*FE11FootstepsofFateSme_mvl/mxv
	BYTE	W01
	BYTE		        106*FE11FootstepsofFateSme_mvl/mxv
	BYTE	W02
	BYTE		        109*FE11FootstepsofFateSme_mvl/mxv
	BYTE	W01
	BYTE		        113*FE11FootstepsofFateSme_mvl/mxv
	BYTE	W02
	BYTE		        117*FE11FootstepsofFateSme_mvl/mxv
	BYTE	W01
	BYTE		        121*FE11FootstepsofFateSme_mvl/mxv
	BYTE	W02
	BYTE		        127*FE11FootstepsofFateSme_mvl/mxv
	BYTE	W02
// 034   ----------------------------------------
	BYTE		N22     Fs3   v100
	BYTE		N22     An3   v108
	BYTE	W24
	BYTE		N18     Gs3   v112
	BYTE	W18
	BYTE		N02     Cs3   v116
	BYTE	W03
	BYTE		        Cs3   v040
	BYTE	W03
	BYTE		N90     Cs3   v116
	BYTE	W07
	BYTE		VOL     127*FE11FootstepsofFateSme_mvl/mxv
	BYTE	W06
	BYTE		        126*FE11FootstepsofFateSme_mvl/mxv
	BYTE	W03
	BYTE		        125*FE11FootstepsofFateSme_mvl/mxv
	BYTE	W03
	BYTE		        124*FE11FootstepsofFateSme_mvl/mxv
	BYTE	W03
	BYTE		        123*FE11FootstepsofFateSme_mvl/mxv
	BYTE	W06
	BYTE		        122*FE11FootstepsofFateSme_mvl/mxv
	BYTE	W03
	BYTE		        120*FE11FootstepsofFateSme_mvl/mxv
	BYTE	W03
	BYTE		        119*FE11FootstepsofFateSme_mvl/mxv
	BYTE	W03
	BYTE		        118*FE11FootstepsofFateSme_mvl/mxv
	BYTE	W03
	BYTE		        117*FE11FootstepsofFateSme_mvl/mxv
	BYTE	W03
	BYTE		        115*FE11FootstepsofFateSme_mvl/mxv
	BYTE	W03
	BYTE		        114*FE11FootstepsofFateSme_mvl/mxv
	BYTE	W02
// 035   ----------------------------------------
	BYTE	W01
	BYTE		        112*FE11FootstepsofFateSme_mvl/mxv
	BYTE	W03
	BYTE		        111*FE11FootstepsofFateSme_mvl/mxv
	BYTE	W03
	BYTE		        109*FE11FootstepsofFateSme_mvl/mxv
	BYTE	W03
	BYTE		        107*FE11FootstepsofFateSme_mvl/mxv
	BYTE	W03
	BYTE		        105*FE11FootstepsofFateSme_mvl/mxv
	BYTE	W03
	BYTE		        102*FE11FootstepsofFateSme_mvl/mxv
	BYTE	W03
	BYTE		        100*FE11FootstepsofFateSme_mvl/mxv
	BYTE	W03
	BYTE		        97*FE11FootstepsofFateSme_mvl/mxv
	BYTE	W03
	BYTE		        94*FE11FootstepsofFateSme_mvl/mxv
	BYTE	W01
	BYTE		        92*FE11FootstepsofFateSme_mvl/mxv
	BYTE	W06
	BYTE		        93*FE11FootstepsofFateSme_mvl/mxv
	BYTE	W03
	BYTE		        94*FE11FootstepsofFateSme_mvl/mxv
	BYTE	W06
	BYTE		        95*FE11FootstepsofFateSme_mvl/mxv
	BYTE	W03
	BYTE		        96*FE11FootstepsofFateSme_mvl/mxv
	BYTE	W01
	BYTE		N02     Cs3   v044
	BYTE	W02
	BYTE		VOL     97*FE11FootstepsofFateSme_mvl/mxv
	BYTE	W01
	BYTE		N23     Dn3   v112
	BYTE	W05
	BYTE		VOL     98*FE11FootstepsofFateSme_mvl/mxv
	BYTE	W03
	BYTE		        99*FE11FootstepsofFateSme_mvl/mxv
	BYTE	W03
	BYTE		        100*FE11FootstepsofFateSme_mvl/mxv
	BYTE	W03
	BYTE		        101*FE11FootstepsofFateSme_mvl/mxv
	BYTE	W03
	BYTE		        102*FE11FootstepsofFateSme_mvl/mxv
	BYTE	W03
	BYTE		        103*FE11FootstepsofFateSme_mvl/mxv
	BYTE	W03
	BYTE		        104*FE11FootstepsofFateSme_mvl/mxv
	BYTE	W01
	BYTE		N23     En3 
	BYTE	W02
	BYTE		VOL     106*FE11FootstepsofFateSme_mvl/mxv
	BYTE	W03
	BYTE		        107*FE11FootstepsofFateSme_mvl/mxv
	BYTE	W03
	BYTE		        108*FE11FootstepsofFateSme_mvl/mxv
	BYTE	W03
	BYTE		        110*FE11FootstepsofFateSme_mvl/mxv
	BYTE	W03
	BYTE		        111*FE11FootstepsofFateSme_mvl/mxv
	BYTE	W03
	BYTE		        113*FE11FootstepsofFateSme_mvl/mxv
	BYTE	W03
	BYTE		        115*FE11FootstepsofFateSme_mvl/mxv
	BYTE	W03
	BYTE		        116*FE11FootstepsofFateSme_mvl/mxv
	BYTE	W01
// 036   ----------------------------------------
	BYTE		N23     Fs3 
	BYTE	W02
	BYTE		VOL     118*FE11FootstepsofFateSme_mvl/mxv
	BYTE	W03
	BYTE		        120*FE11FootstepsofFateSme_mvl/mxv
	BYTE	W03
	BYTE		        122*FE11FootstepsofFateSme_mvl/mxv
	BYTE	W03
	BYTE		        125*FE11FootstepsofFateSme_mvl/mxv
	BYTE	W02
	BYTE		        127*FE11FootstepsofFateSme_mvl/mxv
	BYTE	W11
	BYTE		N03     Cs3   v084
	BYTE	W06
	BYTE		        Cs3   v032
	BYTE	W18
	BYTE		        An2   v064
	BYTE		N03     Cs3   v072
	BYTE	W06
	BYTE		        An2   v016
	BYTE		N03     Cs3   v024
	BYTE	W18
	BYTE		N04     An2   v072
	BYTE		N03     Cs3 
	BYTE	W06
	BYTE		N04     An2   v020
	BYTE		N03     Cs3 
	BYTE	W18
// 037   ----------------------------------------
	BYTE		N04     An2   v076
	BYTE		N04     Cs3   v084
	BYTE	W06
	BYTE		        An2   v024
	BYTE		N04     Cs3   v032
	BYTE	W18
	BYTE		N03     Gs2   v064
	BYTE		N04     An2 
	BYTE		N04     Cs3   v092
	BYTE	W06
	BYTE		N03     Gs2   v004
	BYTE		N04     An2 
	BYTE		N04     Cs3   v032
	BYTE	W18
	BYTE		N02     Gs2   v084
	BYTE		N03     An2   v076
	BYTE		N04     Cs3   v088
	BYTE	W06
	BYTE		N02     Gs2   v024
	BYTE		N03     An2   v016
	BYTE		N04     Cs3   v032
	BYTE	W18
	BYTE		N03     Gs2   v080
	BYTE		N03     An2   v076
	BYTE		N04     Cs3   v100
	BYTE	W06
	BYTE		N03     Gs2   v024
	BYTE		N03     An2   v016
	BYTE		N04     Cs3   v040
	BYTE	W18
// 038   ----------------------------------------
	BYTE		N03     Gs2   v092
	BYTE		N03     An2   v080
	BYTE		N04     Cs3   v100
	BYTE	W06
	BYTE		N03     Gs2   v032
	BYTE		N03     An2   v020
	BYTE		N04     Cs3   v040
	BYTE	W18
	BYTE		N03     Gs2   v080
	BYTE		N03     An2   v072
	BYTE		N03     Cs3   v084
	BYTE	W06
	BYTE		        Gs2   v024
	BYTE		N03     An2   v016
	BYTE		N03     Cs3   v024
	BYTE	W18
	BYTE		        Gs2   v076
	BYTE		N03     An2   v064
	BYTE		N03     Cs3   v072
	BYTE	W06
	BYTE		        Gs2   v016
	BYTE		N03     An2   v008
	BYTE		N03     Cs3   v016
	BYTE	W18
	BYTE		N02     Gs2   v072
	BYTE		N04     An2 
	BYTE		N03     Cs3 
	BYTE	W06
	BYTE		N02     Gs2   v016
	BYTE		N04     An2   v012
	BYTE		N03     Cs3 
	BYTE	W18
// 039   ----------------------------------------
	BYTE		N04     Gs2   v068
	BYTE		N04     An2   v076
	BYTE		N04     Cs3   v084
	BYTE	W06
	BYTE		        Gs2   v008
	BYTE		N04     An2   v016
	BYTE		N04     Cs3   v024
	BYTE	W18
	BYTE		N03     Fs2   v064
	BYTE		N04     Gs2 
	BYTE		N04     Bn2   v092
	BYTE	W06
	BYTE		N03     Fs2   v004
	BYTE		N04     Gs2 
	BYTE		N04     Bn2   v032
	BYTE	W18
	BYTE		N02     Fs2   v084
	BYTE		N03     Gs2   v076
	BYTE		N04     Bn2   v088
	BYTE	W06
	BYTE		N02     Fs2   v024
	BYTE		N03     Gs2   v016
	BYTE		N04     Bn2   v032
	BYTE	W18
	BYTE		N03     Fs2   v080
	BYTE		N03     Gs2   v076
	BYTE		N04     Bn2   v100
	BYTE	W06
	BYTE		N03     Fs2   v024
	BYTE		N03     Gs2   v016
	BYTE		N04     Bn2   v040
	BYTE	W18
// 040   ----------------------------------------
	BYTE		N03     Fs2   v092
	BYTE		N03     Gs2   v080
	BYTE		N04     Bn2   v100
	BYTE	W06
	BYTE		N03     Fs2   v032
	BYTE		N03     Gs2   v020
	BYTE		N04     Bn2   v040
	BYTE	W18
	BYTE		N23     An2   v076
	BYTE		N23     Dn3 
	BYTE	W24
	BYTE		        Gs2   v100
	BYTE		N23     Cs3 
	BYTE	W24
	BYTE		        Cs3   v088
	BYTE		N23     Fs3 
	BYTE	W24
// 041   ----------------------------------------
	BYTE		        Bn2   v072
	BYTE		N23     En3 
	BYTE	W24
	BYTE		N05     Gs3   v064
	BYTE		N05     Bn3   v100
	BYTE	W06
	BYTE		        Fs3   v064
	BYTE		N05     An3   v100
	BYTE	W06
	BYTE		        En3   v064
	BYTE		N05     Gs3   v100
	BYTE	W06
	BYTE		        Bn2   v064
	BYTE		N05     En3   v100
	BYTE	W06
	BYTE		        Bn3   v064
	BYTE		N05     Dn4   v088
	BYTE	W06
	BYTE		        An3   v064
	BYTE		N05     Cs4   v088
	BYTE	W06
	BYTE		        Gs3   v064
	BYTE		N05     Bn3   v100
	BYTE	W06
	BYTE		        En3   v064
	BYTE		N05     Gs3   v100
	BYTE	W06
	BYTE		        Dn4   v052
	BYTE		N05     Fs4   v088
	BYTE	W06
	BYTE		        Cs4   v052
	BYTE		N05     En4   v088
	BYTE	W06
	BYTE		        Bn3   v064
	BYTE		N05     Dn4   v088
	BYTE	W06
	BYTE		        Gs3   v064
	BYTE		N05     Bn3   v100
	BYTE	W06
// 042   ----------------------------------------
	BYTE		N02     Gs2   v080
	BYTE		N02     Bn2 
	BYTE	W03
	BYTE		        An2   v092
	BYTE		N02     Cs3 
	BYTE	W03
	BYTE		        Bn2   v084
	BYTE		N02     Dn3 
	BYTE	W03
	BYTE		        Cs3   v080
	BYTE		N02     En3 
	BYTE	W03
	BYTE		        Dn3 
	BYTE		N02     Fs3 
	BYTE	W03
	BYTE		        En3   v092
	BYTE		N02     Gs3 
	BYTE	W03
	BYTE		        Fs3   v084
	BYTE		N02     An3 
	BYTE	W03
	BYTE		        Gs3   v080
	BYTE		N02     Bn3 
	BYTE	W03
	BYTE		N92     An3   v088
	BYTE		N92     Cs4   v096
	BYTE	W06
	BYTE		VOL     127*FE11FootstepsofFateSme_mvl/mxv
	BYTE	W06
	BYTE		        126*FE11FootstepsofFateSme_mvl/mxv
	BYTE	W03
	BYTE		        125*FE11FootstepsofFateSme_mvl/mxv
	BYTE	W03
	BYTE		        124*FE11FootstepsofFateSme_mvl/mxv
	BYTE	W03
	BYTE		        123*FE11FootstepsofFateSme_mvl/mxv
	BYTE	W03
	BYTE		        122*FE11FootstepsofFateSme_mvl/mxv
	BYTE	W03
	BYTE		        121*FE11FootstepsofFateSme_mvl/mxv
	BYTE	W03
	BYTE		        120*FE11FootstepsofFateSme_mvl/mxv
	BYTE	W03
	BYTE		        119*FE11FootstepsofFateSme_mvl/mxv
	BYTE	W03
	BYTE		        118*FE11FootstepsofFateSme_mvl/mxv
	BYTE	W03
	BYTE		        116*FE11FootstepsofFateSme_mvl/mxv
	BYTE	W03
	BYTE		        115*FE11FootstepsofFateSme_mvl/mxv
	BYTE	W03
	BYTE		        114*FE11FootstepsofFateSme_mvl/mxv
	BYTE	W03
	BYTE		        112*FE11FootstepsofFateSme_mvl/mxv
	BYTE	W03
	BYTE		        111*FE11FootstepsofFateSme_mvl/mxv
	BYTE	W03
	BYTE		        109*FE11FootstepsofFateSme_mvl/mxv
	BYTE	W03
	BYTE		        107*FE11FootstepsofFateSme_mvl/mxv
	BYTE	W03
	BYTE		        105*FE11FootstepsofFateSme_mvl/mxv
	BYTE	W03
	BYTE		        103*FE11FootstepsofFateSme_mvl/mxv
	BYTE	W03
	BYTE		        101*FE11FootstepsofFateSme_mvl/mxv
	BYTE	W03
	BYTE		        99*FE11FootstepsofFateSme_mvl/mxv
	BYTE	W03
// 043   ----------------------------------------
	BYTE		        97*FE11FootstepsofFateSme_mvl/mxv
	BYTE	W03
	BYTE		        94*FE11FootstepsofFateSme_mvl/mxv
	BYTE	W03
	BYTE		        91*FE11FootstepsofFateSme_mvl/mxv
	BYTE	W03
	BYTE		        88*FE11FootstepsofFateSme_mvl/mxv
	BYTE	W03
	BYTE		        85*FE11FootstepsofFateSme_mvl/mxv
	BYTE	W03
	BYTE		        82*FE11FootstepsofFateSme_mvl/mxv
	BYTE	W03
	BYTE		        78*FE11FootstepsofFateSme_mvl/mxv
	BYTE	W03
	BYTE		        74*FE11FootstepsofFateSme_mvl/mxv
	BYTE	W02
	BYTE		        70*FE11FootstepsofFateSme_mvl/mxv
	BYTE	W01
	BYTE		N44     Gs3   v088
	BYTE		N44     Bn3   v104
	BYTE	W05
	BYTE		VOL     71*FE11FootstepsofFateSme_mvl/mxv
	BYTE	W03
	BYTE		        72*FE11FootstepsofFateSme_mvl/mxv
	BYTE	W03
	BYTE		        73*FE11FootstepsofFateSme_mvl/mxv
	BYTE	W03
	BYTE		        74*FE11FootstepsofFateSme_mvl/mxv
	BYTE	W03
	BYTE		        75*FE11FootstepsofFateSme_mvl/mxv
	BYTE	W03
	BYTE		        76*FE11FootstepsofFateSme_mvl/mxv
	BYTE	W03
	BYTE		        77*FE11FootstepsofFateSme_mvl/mxv
	BYTE	W03
	BYTE		        79*FE11FootstepsofFateSme_mvl/mxv
	BYTE	W03
	BYTE		        80*FE11FootstepsofFateSme_mvl/mxv
	BYTE	W03
	BYTE		        81*FE11FootstepsofFateSme_mvl/mxv
	BYTE	W03
	BYTE		        83*FE11FootstepsofFateSme_mvl/mxv
	BYTE	W03
	BYTE		        84*FE11FootstepsofFateSme_mvl/mxv
	BYTE	W03
	BYTE		        86*FE11FootstepsofFateSme_mvl/mxv
	BYTE	W03
	BYTE		        88*FE11FootstepsofFateSme_mvl/mxv
	BYTE	W03
	BYTE		        90*FE11FootstepsofFateSme_mvl/mxv
	BYTE	W01
	BYTE		N32     En3   v088
	BYTE		N32     Gs3   v104
	BYTE	W02
	BYTE		VOL     92*FE11FootstepsofFateSme_mvl/mxv
	BYTE	W03
	BYTE		        94*FE11FootstepsofFateSme_mvl/mxv
	BYTE	W03
	BYTE		        96*FE11FootstepsofFateSme_mvl/mxv
	BYTE	W03
	BYTE		        99*FE11FootstepsofFateSme_mvl/mxv
	BYTE	W03
	BYTE		        102*FE11FootstepsofFateSme_mvl/mxv
	BYTE	W03
	BYTE		        105*FE11FootstepsofFateSme_mvl/mxv
	BYTE	W03
	BYTE		        108*FE11FootstepsofFateSme_mvl/mxv
	BYTE	W03
	BYTE		        112*FE11FootstepsofFateSme_mvl/mxv
	BYTE	W01
// 044   ----------------------------------------
	BYTE	W02
	BYTE		        116*FE11FootstepsofFateSme_mvl/mxv
	BYTE	W03
	BYTE		        120*FE11FootstepsofFateSme_mvl/mxv
	BYTE	W03
	BYTE		        125*FE11FootstepsofFateSme_mvl/mxv
	BYTE	W01
	BYTE		        127*FE11FootstepsofFateSme_mvl/mxv
	BYTE	W03
	BYTE		N05     Dn3   v088
	BYTE		N05     Fs3   v104
	BYTE	W06
	BYTE		        En3   v096
	BYTE		N05     Gs3   v112
	BYTE	W05
	BYTE	GoTo
	 POIN2	FE11FootstepsofFateSme_5_B1
FE11FootstepsofFateSme_5_B2:
	BYTE	FINE

//**************** Track 6 (Midi-Chn.6) ****************//

FE11FootstepsofFateSme_6:
	BYTE	KEYSH   FE11FootstepsofFateSme_key+0
// 000   ----------------------------------------
	BYTE		VOICE   51
	BYTE		MODT    0
	BYTE		LFOS    44
	BYTE	W24
	BYTE		VOL     108*FE11FootstepsofFateSme_mvl/mxv
	BYTE		PAN     c_v+9
	BYTE		VOL     108*FE11FootstepsofFateSme_mvl/mxv
	BYTE	W72
// 001   ----------------------------------------
	BYTE	W96
// 002   ----------------------------------------
	BYTE	W12
	BYTE		N05     Fs2   v068
	BYTE	W06
	BYTE		        Gs2   v088
	BYTE	W06
	BYTE		N23     An2   v060
	BYTE	W24
	BYTE		        Gs2   v068
	BYTE	W24
	BYTE		        Cs3 
	BYTE	W24
// 003   ----------------------------------------
	BYTE		        Bn2 
	BYTE	W24
	BYTE		        Fs3 
	BYTE	W24
	BYTE		        En3 
	BYTE	W24
	BYTE		        Bn3 
	BYTE	W24
// 004   ----------------------------------------
FE11FootstepsofFateSme_6_004:
	BYTE		N23     Gs3   v084
	BYTE	W24
	BYTE		N80     Cs3   v096
	BYTE	W06
	BYTE		VOL     108*FE11FootstepsofFateSme_mvl/mxv
	BYTE	W06
	BYTE		        107*FE11FootstepsofFateSme_mvl/mxv
	BYTE	W03
	BYTE		        106*FE11FootstepsofFateSme_mvl/mxv
	BYTE	W03
	BYTE		        105*FE11FootstepsofFateSme_mvl/mxv
	BYTE	W03
	BYTE		        104*FE11FootstepsofFateSme_mvl/mxv
	BYTE	W03
	BYTE		        103*FE11FootstepsofFateSme_mvl/mxv
	BYTE	W03
	BYTE		        102*FE11FootstepsofFateSme_mvl/mxv
	BYTE	W03
	BYTE		        102*FE11FootstepsofFateSme_mvl/mxv
	BYTE	W03
	BYTE		        101*FE11FootstepsofFateSme_mvl/mxv
	BYTE	W03
	BYTE		        100*FE11FootstepsofFateSme_mvl/mxv
	BYTE	W03
	BYTE		        98*FE11FootstepsofFateSme_mvl/mxv
	BYTE	W03
	BYTE		        97*FE11FootstepsofFateSme_mvl/mxv
	BYTE	W03
	BYTE		        96*FE11FootstepsofFateSme_mvl/mxv
	BYTE	W03
	BYTE		        95*FE11FootstepsofFateSme_mvl/mxv
	BYTE	W03
	BYTE		        94*FE11FootstepsofFateSme_mvl/mxv
	BYTE	W03
	BYTE		        92*FE11FootstepsofFateSme_mvl/mxv
	BYTE	W03
	BYTE		        90*FE11FootstepsofFateSme_mvl/mxv
	BYTE	W03
	BYTE		        89*FE11FootstepsofFateSme_mvl/mxv
	BYTE	W03
	BYTE		        87*FE11FootstepsofFateSme_mvl/mxv
	BYTE	W03
	BYTE		        85*FE11FootstepsofFateSme_mvl/mxv
	BYTE	W03
	BYTE		        84*FE11FootstepsofFateSme_mvl/mxv
	BYTE	W03
	BYTE	PEND
// 005   ----------------------------------------
	BYTE		        82*FE11FootstepsofFateSme_mvl/mxv
	BYTE	W03
	BYTE		        79*FE11FootstepsofFateSme_mvl/mxv
	BYTE	W03
	BYTE		        77*FE11FootstepsofFateSme_mvl/mxv
	BYTE	W03
	BYTE		        74*FE11FootstepsofFateSme_mvl/mxv
	BYTE		N02     Dn3   v124
	BYTE	W03
	BYTE		VOL     72*FE11FootstepsofFateSme_mvl/mxv
	BYTE		N02     En3 
	BYTE	W03
	BYTE		VOL     69*FE11FootstepsofFateSme_mvl/mxv
	BYTE		N02     Fs3 
	BYTE	W03
	BYTE		VOL     66*FE11FootstepsofFateSme_mvl/mxv
	BYTE		N02     Gs3 
	BYTE	W03
	BYTE		VOL     62*FE11FootstepsofFateSme_mvl/mxv
	BYTE		N02     An3 
	BYTE	W02
	BYTE		VOL     59*FE11FootstepsofFateSme_mvl/mxv
	BYTE	W01
	BYTE		N44     Bn3   v112
	BYTE	W05
	BYTE		VOL     60*FE11FootstepsofFateSme_mvl/mxv
	BYTE	W06
	BYTE		        61*FE11FootstepsofFateSme_mvl/mxv
	BYTE	W03
	BYTE		        62*FE11FootstepsofFateSme_mvl/mxv
	BYTE	W06
	BYTE		        62*FE11FootstepsofFateSme_mvl/mxv
	BYTE	W03
	BYTE		        63*FE11FootstepsofFateSme_mvl/mxv
	BYTE	W03
	BYTE		        64*FE11FootstepsofFateSme_mvl/mxv
	BYTE	W03
	BYTE		        65*FE11FootstepsofFateSme_mvl/mxv
	BYTE	W03
	BYTE		        66*FE11FootstepsofFateSme_mvl/mxv
	BYTE	W03
	BYTE		        67*FE11FootstepsofFateSme_mvl/mxv
	BYTE	W03
	BYTE		        68*FE11FootstepsofFateSme_mvl/mxv
	BYTE	W03
	BYTE		        68*FE11FootstepsofFateSme_mvl/mxv
	BYTE	W03
	BYTE		        69*FE11FootstepsofFateSme_mvl/mxv
	BYTE	W03
	BYTE		        70*FE11FootstepsofFateSme_mvl/mxv
	BYTE	W01
	BYTE		N32     Gs3   v108
	BYTE	W02
	BYTE		VOL     72*FE11FootstepsofFateSme_mvl/mxv
	BYTE	W03
	BYTE		        73*FE11FootstepsofFateSme_mvl/mxv
	BYTE	W03
	BYTE		        74*FE11FootstepsofFateSme_mvl/mxv
	BYTE	W03
	BYTE		        76*FE11FootstepsofFateSme_mvl/mxv
	BYTE	W03
	BYTE		        78*FE11FootstepsofFateSme_mvl/mxv
	BYTE	W03
	BYTE		        79*FE11FootstepsofFateSme_mvl/mxv
	BYTE	W03
	BYTE		        81*FE11FootstepsofFateSme_mvl/mxv
	BYTE	W03
	BYTE		        83*FE11FootstepsofFateSme_mvl/mxv
	BYTE	W01
// 006   ----------------------------------------
	BYTE	W02
	BYTE		        85*FE11FootstepsofFateSme_mvl/mxv
	BYTE	W03
	BYTE		        88*FE11FootstepsofFateSme_mvl/mxv
	BYTE	W03
	BYTE		        91*FE11FootstepsofFateSme_mvl/mxv
	BYTE	W01
	BYTE		        92*FE11FootstepsofFateSme_mvl/mxv
	BYTE	W03
	BYTE		N05     Fs3 
	BYTE	W06
	BYTE		        Gs3   v116
	BYTE	W06
FE11FootstepsofFateSme_6_B1:
	BYTE		VOL     92*FE11FootstepsofFateSme_mvl/mxv
	BYTE		N05     Gs3   v104
	BYTE	W06
	BYTE		        An3   v112
	BYTE	W01
	BYTE		VOL     91*FE11FootstepsofFateSme_mvl/mxv
	BYTE	W05
	BYTE		N68     Cs3   v116
	BYTE	W01
	BYTE		VOL     90*FE11FootstepsofFateSme_mvl/mxv
	BYTE	W07
	BYTE		        90*FE11FootstepsofFateSme_mvl/mxv
	BYTE	W03
	BYTE		        89*FE11FootstepsofFateSme_mvl/mxv
	BYTE	W07
	BYTE		        88*FE11FootstepsofFateSme_mvl/mxv
	BYTE	W03
	BYTE		        87*FE11FootstepsofFateSme_mvl/mxv
	BYTE	W07
	BYTE		        86*FE11FootstepsofFateSme_mvl/mxv
	BYTE	W03
	BYTE		        85*FE11FootstepsofFateSme_mvl/mxv
	BYTE	W03
	BYTE		        85*FE11FootstepsofFateSme_mvl/mxv
	BYTE	W03
	BYTE		        84*FE11FootstepsofFateSme_mvl/mxv
	BYTE	W04
	BYTE		        83*FE11FootstepsofFateSme_mvl/mxv
	BYTE	W03
	BYTE		        82*FE11FootstepsofFateSme_mvl/mxv
	BYTE	W03
	BYTE		        81*FE11FootstepsofFateSme_mvl/mxv
	BYTE	W04
	BYTE		        80*FE11FootstepsofFateSme_mvl/mxv
	BYTE	W03
	BYTE		        79*FE11FootstepsofFateSme_mvl/mxv
	BYTE	W03
	BYTE		        78*FE11FootstepsofFateSme_mvl/mxv
	BYTE	W03
// 007   ----------------------------------------
	BYTE	W01
	BYTE		        77*FE11FootstepsofFateSme_mvl/mxv
	BYTE	W03
	BYTE		        76*FE11FootstepsofFateSme_mvl/mxv
	BYTE	W03
	BYTE		        74*FE11FootstepsofFateSme_mvl/mxv
	BYTE	W02
	BYTE		N02     Fs3   v127
	BYTE	W01
	BYTE		VOL     73*FE11FootstepsofFateSme_mvl/mxv
	BYTE	W02
	BYTE		N05     An3   v100
	BYTE	W02
	BYTE		VOL     71*FE11FootstepsofFateSme_mvl/mxv
	BYTE	W03
	BYTE		        69*FE11FootstepsofFateSme_mvl/mxv
	BYTE	W01
	BYTE		N05     Gs3   v112
	BYTE	W06
	BYTE		N44     Bn2   v120
	BYTE	W03
	BYTE		VOL     70*FE11FootstepsofFateSme_mvl/mxv
	BYTE	W07
	BYTE		        71*FE11FootstepsofFateSme_mvl/mxv
	BYTE	W07
	BYTE		        72*FE11FootstepsofFateSme_mvl/mxv
	BYTE	W04
	BYTE		        73*FE11FootstepsofFateSme_mvl/mxv
	BYTE	W06
	BYTE		        73*FE11FootstepsofFateSme_mvl/mxv
	BYTE	W07
	BYTE		        74*FE11FootstepsofFateSme_mvl/mxv
	BYTE	W04
	BYTE		        75*FE11FootstepsofFateSme_mvl/mxv
	BYTE	W03
	BYTE		        76*FE11FootstepsofFateSme_mvl/mxv
	BYTE	W03
	BYTE		        77*FE11FootstepsofFateSme_mvl/mxv
	BYTE	W04
	BYTE		        78*FE11FootstepsofFateSme_mvl/mxv
	BYTE		N44     En3   v108
	BYTE	W03
	BYTE		VOL     79*FE11FootstepsofFateSme_mvl/mxv
	BYTE	W04
	BYTE		        79*FE11FootstepsofFateSme_mvl/mxv
	BYTE	W03
	BYTE		        80*FE11FootstepsofFateSme_mvl/mxv
	BYTE	W04
	BYTE		        81*FE11FootstepsofFateSme_mvl/mxv
	BYTE	W03
	BYTE		        82*FE11FootstepsofFateSme_mvl/mxv
	BYTE	W03
	BYTE		        84*FE11FootstepsofFateSme_mvl/mxv
	BYTE	W04
// 008   ----------------------------------------
	BYTE		        85*FE11FootstepsofFateSme_mvl/mxv
	BYTE	W03
	BYTE		        86*FE11FootstepsofFateSme_mvl/mxv
	BYTE	W04
	BYTE		        88*FE11FootstepsofFateSme_mvl/mxv
	BYTE	W03
	BYTE		        90*FE11FootstepsofFateSme_mvl/mxv
	BYTE	W04
	BYTE		        92*FE11FootstepsofFateSme_mvl/mxv
	BYTE	W10
	BYTE		N92     Cs3   v096
	BYTE	W01
	BYTE		VOL     92*FE11FootstepsofFateSme_mvl/mxv
	BYTE	W06
	BYTE		        91*FE11FootstepsofFateSme_mvl/mxv
	BYTE	W07
	BYTE		        90*FE11FootstepsofFateSme_mvl/mxv
	BYTE	W06
	BYTE		        90*FE11FootstepsofFateSme_mvl/mxv
	BYTE	W06
	BYTE		        89*FE11FootstepsofFateSme_mvl/mxv
	BYTE	W04
	BYTE		        88*FE11FootstepsofFateSme_mvl/mxv
	BYTE	W03
	BYTE		        87*FE11FootstepsofFateSme_mvl/mxv
	BYTE	W06
	BYTE		        86*FE11FootstepsofFateSme_mvl/mxv
	BYTE	W03
	BYTE		        85*FE11FootstepsofFateSme_mvl/mxv
	BYTE	W04
	BYTE		        85*FE11FootstepsofFateSme_mvl/mxv
	BYTE	W03
	BYTE		        84*FE11FootstepsofFateSme_mvl/mxv
	BYTE	W03
	BYTE		        83*FE11FootstepsofFateSme_mvl/mxv
	BYTE	W06
	BYTE		        81*FE11FootstepsofFateSme_mvl/mxv
	BYTE	W04
	BYTE		        80*FE11FootstepsofFateSme_mvl/mxv
	BYTE	W03
	BYTE		        79*FE11FootstepsofFateSme_mvl/mxv
	BYTE	W03
	BYTE		        79*FE11FootstepsofFateSme_mvl/mxv
	BYTE	W03
	BYTE		        78*FE11FootstepsofFateSme_mvl/mxv
	BYTE	W01
// 009   ----------------------------------------
	BYTE	W02
	BYTE		        77*FE11FootstepsofFateSme_mvl/mxv
	BYTE	W04
	BYTE		        75*FE11FootstepsofFateSme_mvl/mxv
	BYTE	W03
	BYTE		        74*FE11FootstepsofFateSme_mvl/mxv
	BYTE	W03
	BYTE		        73*FE11FootstepsofFateSme_mvl/mxv
	BYTE	W03
	BYTE		        71*FE11FootstepsofFateSme_mvl/mxv
	BYTE	W03
	BYTE		        70*FE11FootstepsofFateSme_mvl/mxv
	BYTE	W04
	BYTE		        68*FE11FootstepsofFateSme_mvl/mxv
	BYTE	W72
	BYTE	W02
// 010   ----------------------------------------
	BYTE	W23
	BYTE		        68*FE11FootstepsofFateSme_mvl/mxv
	BYTE	W01
	BYTE		        69*FE11FootstepsofFateSme_mvl/mxv
	BYTE		PAN     c_v-10
	BYTE		VOL     110*FE11FootstepsofFateSme_mvl/mxv
	BYTE	W48
	BYTE		N32     Fs5   v080
	BYTE	W02
	BYTE		VOL     110*FE11FootstepsofFateSme_mvl/mxv
	BYTE	W01
	BYTE		        103*FE11FootstepsofFateSme_mvl/mxv
	BYTE	W01
	BYTE		        90*FE11FootstepsofFateSme_mvl/mxv
	BYTE	W01
	BYTE		        84*FE11FootstepsofFateSme_mvl/mxv
	BYTE	W01
	BYTE		        78*FE11FootstepsofFateSme_mvl/mxv
	BYTE	W01
	BYTE		        65*FE11FootstepsofFateSme_mvl/mxv
	BYTE	W01
	BYTE		        58*FE11FootstepsofFateSme_mvl/mxv
	BYTE	W01
	BYTE		        50*FE11FootstepsofFateSme_mvl/mxv
	BYTE	W01
	BYTE		        51*FE11FootstepsofFateSme_mvl/mxv
	BYTE	W01
	BYTE		        54*FE11FootstepsofFateSme_mvl/mxv
	BYTE	W01
	BYTE		        55*FE11FootstepsofFateSme_mvl/mxv
	BYTE	W01
	BYTE		        58*FE11FootstepsofFateSme_mvl/mxv
	BYTE	W01
	BYTE		        61*FE11FootstepsofFateSme_mvl/mxv
	BYTE	W01
	BYTE		        63*FE11FootstepsofFateSme_mvl/mxv
	BYTE	W01
	BYTE		        65*FE11FootstepsofFateSme_mvl/mxv
	BYTE	W01
	BYTE		        71*FE11FootstepsofFateSme_mvl/mxv
	BYTE	W01
	BYTE		        73*FE11FootstepsofFateSme_mvl/mxv
	BYTE	W01
	BYTE		        77*FE11FootstepsofFateSme_mvl/mxv
	BYTE	W01
	BYTE		        84*FE11FootstepsofFateSme_mvl/mxv
	BYTE	W01
	BYTE		        87*FE11FootstepsofFateSme_mvl/mxv
	BYTE	W01
	BYTE		        92*FE11FootstepsofFateSme_mvl/mxv
	BYTE	W01
	BYTE		        102*FE11FootstepsofFateSme_mvl/mxv
	BYTE	W01
// 011   ----------------------------------------
	BYTE		        110*FE11FootstepsofFateSme_mvl/mxv
	BYTE	W12
	BYTE		N03     Fs5   v072
	BYTE	W04
	BYTE		        Gs5   v076
	BYTE	W04
	BYTE		        An5   v080
	BYTE	W04
	BYTE		N92     Gs5   v096
	BYTE	W01
	BYTE		VOL     110*FE11FootstepsofFateSme_mvl/mxv
	BYTE	W01
	BYTE		        106*FE11FootstepsofFateSme_mvl/mxv
	BYTE	W01
	BYTE		        103*FE11FootstepsofFateSme_mvl/mxv
	BYTE	W01
	BYTE		        102*FE11FootstepsofFateSme_mvl/mxv
	BYTE	W01
	BYTE		        96*FE11FootstepsofFateSme_mvl/mxv
	BYTE	W01
	BYTE		        92*FE11FootstepsofFateSme_mvl/mxv
	BYTE	W01
	BYTE		        88*FE11FootstepsofFateSme_mvl/mxv
	BYTE	W01
	BYTE		        77*FE11FootstepsofFateSme_mvl/mxv
	BYTE	W01
	BYTE		        71*FE11FootstepsofFateSme_mvl/mxv
	BYTE	W01
	BYTE		        64*FE11FootstepsofFateSme_mvl/mxv
	BYTE	W01
	BYTE		        47*FE11FootstepsofFateSme_mvl/mxv
	BYTE	W03
	BYTE		        48*FE11FootstepsofFateSme_mvl/mxv
	BYTE	W03
	BYTE		        49*FE11FootstepsofFateSme_mvl/mxv
	BYTE	W03
	BYTE		        50*FE11FootstepsofFateSme_mvl/mxv
	BYTE	W03
	BYTE		        51*FE11FootstepsofFateSme_mvl/mxv
	BYTE	W03
	BYTE		        52*FE11FootstepsofFateSme_mvl/mxv
	BYTE	W03
	BYTE		        53*FE11FootstepsofFateSme_mvl/mxv
	BYTE	W03
	BYTE		        55*FE11FootstepsofFateSme_mvl/mxv
	BYTE	W03
	BYTE		        57*FE11FootstepsofFateSme_mvl/mxv
	BYTE	W03
	BYTE		        58*FE11FootstepsofFateSme_mvl/mxv
	BYTE	W03
	BYTE		        59*FE11FootstepsofFateSme_mvl/mxv
	BYTE	W03
	BYTE		        61*FE11FootstepsofFateSme_mvl/mxv
	BYTE	W03
	BYTE		        63*FE11FootstepsofFateSme_mvl/mxv
	BYTE	W03
	BYTE		        65*FE11FootstepsofFateSme_mvl/mxv
	BYTE	W03
	BYTE		        67*FE11FootstepsofFateSme_mvl/mxv
	BYTE	W03
	BYTE		        70*FE11FootstepsofFateSme_mvl/mxv
	BYTE	W03
	BYTE		        72*FE11FootstepsofFateSme_mvl/mxv
	BYTE	W03
	BYTE		        75*FE11FootstepsofFateSme_mvl/mxv
	BYTE	W03
	BYTE		        77*FE11FootstepsofFateSme_mvl/mxv
	BYTE	W03
	BYTE		        81*FE11FootstepsofFateSme_mvl/mxv
	BYTE	W03
	BYTE		        84*FE11FootstepsofFateSme_mvl/mxv
	BYTE	W01
// 012   ----------------------------------------
	BYTE	W02
	BYTE		        89*FE11FootstepsofFateSme_mvl/mxv
	BYTE	W03
	BYTE		        93*FE11FootstepsofFateSme_mvl/mxv
	BYTE	W03
	BYTE		        98*FE11FootstepsofFateSme_mvl/mxv
	BYTE	W03
	BYTE		        103*FE11FootstepsofFateSme_mvl/mxv
	BYTE	W03
	BYTE		        110*FE11FootstepsofFateSme_mvl/mxv
	BYTE	W10
	BYTE		N12     Gs5   v060
	BYTE	W24
	BYTE		VOL     52*FE11FootstepsofFateSme_mvl/mxv
	BYTE		PAN     c_v-64
	BYTE	W48
// 013   ----------------------------------------
	BYTE	W12
	BYTE		VOL     52*FE11FootstepsofFateSme_mvl/mxv
	BYTE		MOD     0
	BYTE	W03
	BYTE		N03     Gs4   v116
	BYTE	W06
	BYTE		N04     An4   v112
	BYTE	W03
	BYTE		MOD     0
	BYTE	W01
	BYTE		        1
	BYTE	W02
	BYTE		        2
	BYTE		N44     Gs4 
	BYTE	W01
	BYTE		MOD     4
	BYTE	W01
	BYTE		VOL     52*FE11FootstepsofFateSme_mvl/mxv
	BYTE	W01
	BYTE		MOD     4
	BYTE	W01
	BYTE		        6
	BYTE	W02
	BYTE		        7
	BYTE	W01
	BYTE		        8
	BYTE	W01
	BYTE		VOL     51*FE11FootstepsofFateSme_mvl/mxv
	BYTE	W01
	BYTE		MOD     9
	BYTE	W01
	BYTE		        10
	BYTE	W02
	BYTE		        12
	BYTE	W01
	BYTE		        12
	BYTE	W01
	BYTE		VOL     51*FE11FootstepsofFateSme_mvl/mxv
	BYTE	W01
	BYTE		MOD     14
	BYTE	W02
	BYTE		VOL     50*FE11FootstepsofFateSme_mvl/mxv
	BYTE	W03
	BYTE		        50*FE11FootstepsofFateSme_mvl/mxv
	BYTE	W06
	BYTE		        49*FE11FootstepsofFateSme_mvl/mxv
	BYTE	W03
	BYTE		        49*FE11FootstepsofFateSme_mvl/mxv
	BYTE	W03
	BYTE		        49*FE11FootstepsofFateSme_mvl/mxv
	BYTE	W03
	BYTE		        48*FE11FootstepsofFateSme_mvl/mxv
	BYTE	W03
	BYTE		        48*FE11FootstepsofFateSme_mvl/mxv
	BYTE	W02
	BYTE		MOD     14
	BYTE	W01
	BYTE		VOL     47*FE11FootstepsofFateSme_mvl/mxv
	BYTE		MOD     12
	BYTE	W01
	BYTE		        10
	BYTE	W01
	BYTE		        5
	BYTE	W01
	BYTE		VOL     47*FE11FootstepsofFateSme_mvl/mxv
	BYTE		MOD     2
	BYTE	W01
	BYTE		        0
	BYTE	W02
	BYTE		VOL     47*FE11FootstepsofFateSme_mvl/mxv
	BYTE	W01
	BYTE		MOD     1
	BYTE		N32     Bn3   v116
	BYTE	W02
	BYTE		VOL     46*FE11FootstepsofFateSme_mvl/mxv
	BYTE	W01
	BYTE		MOD     2
	BYTE	W02
	BYTE		VOL     45*FE11FootstepsofFateSme_mvl/mxv
	BYTE	W01
	BYTE		MOD     4
	BYTE	W02
	BYTE		VOL     45*FE11FootstepsofFateSme_mvl/mxv
	BYTE	W01
	BYTE		MOD     5
	BYTE	W02
	BYTE		VOL     44*FE11FootstepsofFateSme_mvl/mxv
	BYTE	W01
	BYTE		MOD     6
	BYTE	W02
	BYTE		VOL     43*FE11FootstepsofFateSme_mvl/mxv
	BYTE	W01
	BYTE		MOD     8
	BYTE	W02
	BYTE		VOL     42*FE11FootstepsofFateSme_mvl/mxv
	BYTE	W01
	BYTE		MOD     9
	BYTE	W02
	BYTE		VOL     42*FE11FootstepsofFateSme_mvl/mxv
	BYTE	W01
// 014   ----------------------------------------
	BYTE		MOD     10
	BYTE	W02
	BYTE		VOL     41*FE11FootstepsofFateSme_mvl/mxv
	BYTE	W01
	BYTE		        40*FE11FootstepsofFateSme_mvl/mxv
	BYTE		MOD     12
	BYTE	W03
	BYTE		VOL     41*FE11FootstepsofFateSme_mvl/mxv
	BYTE		MOD     14
	BYTE	W01
	BYTE		        8
	BYTE	W01
	BYTE		        0
	BYTE	W01
	BYTE		VOL     41*FE11FootstepsofFateSme_mvl/mxv
	BYTE	W03
	BYTE		        42*FE11FootstepsofFateSme_mvl/mxv
	BYTE	W03
	BYTE		        42*FE11FootstepsofFateSme_mvl/mxv
	BYTE		N04     Gs3   v112
	BYTE	W03
	BYTE		VOL     43*FE11FootstepsofFateSme_mvl/mxv
	BYTE	W03
	BYTE		        44*FE11FootstepsofFateSme_mvl/mxv
	BYTE		N03     An3   v116
	BYTE	W03
	BYTE		VOL     45*FE11FootstepsofFateSme_mvl/mxv
	BYTE	W03
	BYTE		        46*FE11FootstepsofFateSme_mvl/mxv
	BYTE		N04     Bn3   v120
	BYTE	W03
	BYTE		VOL     47*FE11FootstepsofFateSme_mvl/mxv
	BYTE	W03
	BYTE		        48*FE11FootstepsofFateSme_mvl/mxv
	BYTE		N04     Cs4   v108
	BYTE	W02
	BYTE		MOD     0
	BYTE	W01
	BYTE		VOL     50*FE11FootstepsofFateSme_mvl/mxv
	BYTE	W01
	BYTE		MOD     2
	BYTE	W01
	BYTE		VOL     52*FE11FootstepsofFateSme_mvl/mxv
	BYTE		MOD     4
	BYTE	W01
	BYTE		VOL     50*FE11FootstepsofFateSme_mvl/mxv
	BYTE		N64     Dn4   v112
	BYTE	W01
	BYTE		MOD     6
	BYTE	W01
	BYTE		VOL     49*FE11FootstepsofFateSme_mvl/mxv
	BYTE		MOD     8
	BYTE	W01
	BYTE		VOL     47*FE11FootstepsofFateSme_mvl/mxv
	BYTE	W01
	BYTE		MOD     10
	BYTE	W01
	BYTE		VOL     46*FE11FootstepsofFateSme_mvl/mxv
	BYTE		MOD     12
	BYTE	W01
	BYTE		VOL     45*FE11FootstepsofFateSme_mvl/mxv
	BYTE	W02
	BYTE		        43*FE11FootstepsofFateSme_mvl/mxv
	BYTE	W01
	BYTE		        42*FE11FootstepsofFateSme_mvl/mxv
	BYTE	W02
	BYTE		        40*FE11FootstepsofFateSme_mvl/mxv
	BYTE	W01
	BYTE		        39*FE11FootstepsofFateSme_mvl/mxv
	BYTE	W06
	BYTE		        39*FE11FootstepsofFateSme_mvl/mxv
	BYTE	W03
	BYTE		        40*FE11FootstepsofFateSme_mvl/mxv
	BYTE	W03
	BYTE		        40*FE11FootstepsofFateSme_mvl/mxv
	BYTE	W03
	BYTE		        41*FE11FootstepsofFateSme_mvl/mxv
	BYTE	W03
	BYTE		        41*FE11FootstepsofFateSme_mvl/mxv
	BYTE	W03
	BYTE		        42*FE11FootstepsofFateSme_mvl/mxv
	BYTE	W03
	BYTE		        42*FE11FootstepsofFateSme_mvl/mxv
	BYTE	W03
	BYTE		        43*FE11FootstepsofFateSme_mvl/mxv
	BYTE	W03
	BYTE		        44*FE11FootstepsofFateSme_mvl/mxv
	BYTE	W03
	BYTE		        44*FE11FootstepsofFateSme_mvl/mxv
	BYTE	W03
	BYTE		        45*FE11FootstepsofFateSme_mvl/mxv
	BYTE	W03
	BYTE		        46*FE11FootstepsofFateSme_mvl/mxv
	BYTE	W03
	BYTE		        47*FE11FootstepsofFateSme_mvl/mxv
	BYTE	W03
// 015   ----------------------------------------
	BYTE		        48*FE11FootstepsofFateSme_mvl/mxv
	BYTE	W03
	BYTE		MOD     8
	BYTE		VOL     49*FE11FootstepsofFateSme_mvl/mxv
	BYTE	W01
	BYTE		MOD     4
	BYTE	W01
	BYTE		        0
	BYTE	W01
	BYTE		VOL     50*FE11FootstepsofFateSme_mvl/mxv
	BYTE	W03
	BYTE		        52*FE11FootstepsofFateSme_mvl/mxv
	BYTE		N01     Bn3   v120
	BYTE	W02
	BYTE		        Cs4 
	BYTE	W02
	BYTE		        Dn4 
	BYTE	W02
	BYTE		N04     En4   v116
	BYTE	W06
	BYTE		        Fs4   v108
	BYTE	W06
	BYTE		MOD     0
	BYTE		N04     En4 
	BYTE	W03
	BYTE		MOD     1
	BYTE	W03
	BYTE		        2
	BYTE		N04     Bn3 
	BYTE	W03
	BYTE		MOD     4
	BYTE	W03
	BYTE		        4
	BYTE		N68     Gs3 
	BYTE	W03
	BYTE		MOD     6
	BYTE	W03
	BYTE		        7
	BYTE	W03
	BYTE		        8
	BYTE	W03
	BYTE		        10
	BYTE	W03
	BYTE		        10
	BYTE	W03
	BYTE		        12
	BYTE		VOL     52*FE11FootstepsofFateSme_mvl/mxv
	BYTE	W03
	BYTE		MOD     13
	BYTE		VOL     51*FE11FootstepsofFateSme_mvl/mxv
	BYTE		MOD     14
	BYTE	W01
	BYTE		VOL     51*FE11FootstepsofFateSme_mvl/mxv
	BYTE	W02
	BYTE		        50*FE11FootstepsofFateSme_mvl/mxv
	BYTE	W01
	BYTE		        50*FE11FootstepsofFateSme_mvl/mxv
	BYTE	W02
	BYTE		        49*FE11FootstepsofFateSme_mvl/mxv
	BYTE	W01
	BYTE		        49*FE11FootstepsofFateSme_mvl/mxv
	BYTE	W02
	BYTE		        49*FE11FootstepsofFateSme_mvl/mxv
	BYTE	W01
	BYTE		        48*FE11FootstepsofFateSme_mvl/mxv
	BYTE	W02
	BYTE		        48*FE11FootstepsofFateSme_mvl/mxv
	BYTE	W01
	BYTE		        47*FE11FootstepsofFateSme_mvl/mxv
	BYTE	W02
	BYTE		        47*FE11FootstepsofFateSme_mvl/mxv
	BYTE	W01
	BYTE		        47*FE11FootstepsofFateSme_mvl/mxv
	BYTE	W02
	BYTE		        46*FE11FootstepsofFateSme_mvl/mxv
	BYTE	W01
	BYTE		        45*FE11FootstepsofFateSme_mvl/mxv
	BYTE	W02
	BYTE		        45*FE11FootstepsofFateSme_mvl/mxv
	BYTE	W01
	BYTE		        44*FE11FootstepsofFateSme_mvl/mxv
	BYTE	W02
	BYTE		        44*FE11FootstepsofFateSme_mvl/mxv
	BYTE	W01
	BYTE		        43*FE11FootstepsofFateSme_mvl/mxv
	BYTE	W02
	BYTE		        42*FE11FootstepsofFateSme_mvl/mxv
	BYTE	W01
	BYTE		        42*FE11FootstepsofFateSme_mvl/mxv
	BYTE	W02
	BYTE		        41*FE11FootstepsofFateSme_mvl/mxv
	BYTE	W01
	BYTE		        40*FE11FootstepsofFateSme_mvl/mxv
	BYTE	W02
	BYTE		        39*FE11FootstepsofFateSme_mvl/mxv
	BYTE	W01
	BYTE		        38*FE11FootstepsofFateSme_mvl/mxv
	BYTE	W02
// 016   ----------------------------------------
	BYTE		        38*FE11FootstepsofFateSme_mvl/mxv
	BYTE	W01
	BYTE		        37*FE11FootstepsofFateSme_mvl/mxv
	BYTE	W02
	BYTE		        36*FE11FootstepsofFateSme_mvl/mxv
	BYTE	W01
	BYTE		        35*FE11FootstepsofFateSme_mvl/mxv
	BYTE	W02
	BYTE		        33*FE11FootstepsofFateSme_mvl/mxv
	BYTE	W01
	BYTE		MOD     14
	BYTE		VOL     32*FE11FootstepsofFateSme_mvl/mxv
	BYTE	W01
	BYTE		MOD     10
	BYTE	W01
	BYTE		        6
	BYTE		VOL     31*FE11FootstepsofFateSme_mvl/mxv
	BYTE	W01
	BYTE		MOD     0
	BYTE		VOL     30*FE11FootstepsofFateSme_mvl/mxv
	BYTE	W01
	BYTE		        31*FE11FootstepsofFateSme_mvl/mxv
	BYTE	W02
	BYTE		        31*FE11FootstepsofFateSme_mvl/mxv
	BYTE	W01
	BYTE		        32*FE11FootstepsofFateSme_mvl/mxv
	BYTE	W01
	BYTE		N05     Fs3   v112
	BYTE	W01
	BYTE		VOL     33*FE11FootstepsofFateSme_mvl/mxv
	BYTE	W01
	BYTE		        33*FE11FootstepsofFateSme_mvl/mxv
	BYTE	W02
	BYTE		        35*FE11FootstepsofFateSme_mvl/mxv
	BYTE	W01
	BYTE		        36*FE11FootstepsofFateSme_mvl/mxv
	BYTE	W01
	BYTE		N05     Gs3   v108
	BYTE	W01
	BYTE		VOL     37*FE11FootstepsofFateSme_mvl/mxv
	BYTE	W01
	BYTE		        38*FE11FootstepsofFateSme_mvl/mxv
	BYTE	W01
	BYTE		MOD     0
	BYTE	W01
	BYTE		VOL     40*FE11FootstepsofFateSme_mvl/mxv
	BYTE	W01
	BYTE		MOD     2
	BYTE		VOL     42*FE11FootstepsofFateSme_mvl/mxv
	BYTE	W01
	BYTE		MOD     4
	BYTE		N88     An3   v100
	BYTE	W01
	BYTE		VOL     45*FE11FootstepsofFateSme_mvl/mxv
	BYTE	W01
	BYTE		MOD     6
	BYTE		VOL     47*FE11FootstepsofFateSme_mvl/mxv
	BYTE	W01
	BYTE		        50*FE11FootstepsofFateSme_mvl/mxv
	BYTE		MOD     8
	BYTE	W02
	BYTE		        10
	BYTE	W01
	BYTE		        12
	BYTE	W02
	BYTE		        14
	BYTE	W01
	BYTE		        14
	BYTE		VOL     49*FE11FootstepsofFateSme_mvl/mxv
	BYTE	W06
	BYTE		        49*FE11FootstepsofFateSme_mvl/mxv
	BYTE	W03
	BYTE		        49*FE11FootstepsofFateSme_mvl/mxv
	BYTE	W03
	BYTE		        48*FE11FootstepsofFateSme_mvl/mxv
	BYTE	W06
	BYTE		        48*FE11FootstepsofFateSme_mvl/mxv
	BYTE	W03
	BYTE		        47*FE11FootstepsofFateSme_mvl/mxv
	BYTE	W03
	BYTE		        47*FE11FootstepsofFateSme_mvl/mxv
	BYTE	W03
	BYTE		        47*FE11FootstepsofFateSme_mvl/mxv
	BYTE	W03
	BYTE		        46*FE11FootstepsofFateSme_mvl/mxv
	BYTE	W03
	BYTE		        46*FE11FootstepsofFateSme_mvl/mxv
	BYTE	W03
	BYTE		        45*FE11FootstepsofFateSme_mvl/mxv
	BYTE	W03
	BYTE		        45*FE11FootstepsofFateSme_mvl/mxv
	BYTE	W03
	BYTE		        45*FE11FootstepsofFateSme_mvl/mxv
	BYTE	W03
	BYTE		        44*FE11FootstepsofFateSme_mvl/mxv
	BYTE	W03
	BYTE		        43*FE11FootstepsofFateSme_mvl/mxv
	BYTE	W03
	BYTE		        43*FE11FootstepsofFateSme_mvl/mxv
	BYTE	W03
	BYTE		        42*FE11FootstepsofFateSme_mvl/mxv
	BYTE	W03
	BYTE		        41*FE11FootstepsofFateSme_mvl/mxv
	BYTE	W03
// 017   ----------------------------------------
	BYTE		        41*FE11FootstepsofFateSme_mvl/mxv
	BYTE	W03
	BYTE		        40*FE11FootstepsofFateSme_mvl/mxv
	BYTE	W03
	BYTE		        39*FE11FootstepsofFateSme_mvl/mxv
	BYTE	W03
	BYTE		        38*FE11FootstepsofFateSme_mvl/mxv
	BYTE	W03
	BYTE		        38*FE11FootstepsofFateSme_mvl/mxv
	BYTE	W03
	BYTE		        36*FE11FootstepsofFateSme_mvl/mxv
	BYTE	W01
	BYTE		MOD     6
	BYTE	W01
	BYTE		        0
	BYTE	W01
	BYTE		VOL     36*FE11FootstepsofFateSme_mvl/mxv
	BYTE	W03
	BYTE		        34*FE11FootstepsofFateSme_mvl/mxv
	BYTE	W01
	BYTE		        34*FE11FootstepsofFateSme_mvl/mxv
	BYTE	W72
	BYTE	W02
// 018   ----------------------------------------
	BYTE	W23
	BYTE		        34*FE11FootstepsofFateSme_mvl/mxv
	BYTE	W01
	BYTE		        71*FE11FootstepsofFateSme_mvl/mxv
	BYTE		PAN     c_v+12
	BYTE		VOL     108*FE11FootstepsofFateSme_mvl/mxv
	BYTE		N23     An1   v104
	BYTE	W24
	BYTE		        An1   v100
	BYTE	W24
	BYTE		        Cn2   v096
	BYTE	W24
// 019   ----------------------------------------
	BYTE		        En2   v100
	BYTE	W24
	BYTE		        Fs2   v096
	BYTE	W24
	BYTE		        Fs2   v104
	BYTE	W24
	BYTE		        As2 
	BYTE	W24
// 020   ----------------------------------------
	BYTE		        Ds2 
	BYTE	W96
// 021   ----------------------------------------
	BYTE	W96
// 022   ----------------------------------------
	BYTE	W96
// 023   ----------------------------------------
	BYTE	W96
// 024   ----------------------------------------
	BYTE	W24
	BYTE		VOL     108*FE11FootstepsofFateSme_mvl/mxv
	BYTE		PAN     c_v+12
	BYTE		VOL     108*FE11FootstepsofFateSme_mvl/mxv
	BYTE		N11     Gn1   v032
	BYTE	W12
	BYTE		        Gn1   v044
	BYTE	W12
	BYTE		        Gn1   v036
	BYTE	W12
	BYTE		        Gn1   v012
	BYTE	W12
	BYTE		        Gn1   v068
	BYTE	W12
	BYTE		        Gn1   v020
	BYTE	W12
// 025   ----------------------------------------
	BYTE		        Gn1   v096
	BYTE	W12
	BYTE		        Gn1   v004
	BYTE	W12
	BYTE		        Gn1   v072
	BYTE		N11     En2   v056
	BYTE	W12
	BYTE		        Gn1   v048
	BYTE		N11     En2   v056
	BYTE	W12
	BYTE		        Gn1   v088
	BYTE		N11     En2   v076
	BYTE	W12
	BYTE		        Gn1   v060
	BYTE		N11     En2 
	BYTE	W12
	BYTE		        Gn1   v108
	BYTE		N11     En2   v088
	BYTE	W12
	BYTE		        Gn1   v076
	BYTE		N11     En2   v072
	BYTE	W12
// 026   ----------------------------------------
	BYTE		        Gn1   v088
	BYTE		N11     En2   v076
	BYTE	W12
	BYTE		        Gn1   v060
	BYTE		N11     En2   v052
	BYTE	W12
	BYTE		        Gs1   v112
	BYTE		N11     Fs2   v096
	BYTE	W12
	BYTE		        Gs1   v056
	BYTE		N11     Fs2   v064
	BYTE	W12
	BYTE		        Gs1   v088
	BYTE		N11     Fs2   v076
	BYTE	W12
	BYTE		        Gs1   v064
	BYTE		N11     Fs2   v056
	BYTE	W12
	BYTE		        Gs1   v096
	BYTE		N11     Fs2   v064
	BYTE	W12
	BYTE		        Gs1   v068
	BYTE		N11     Fs2   v044
	BYTE	W12
// 027   ----------------------------------------
	BYTE		        Gs1   v088
	BYTE		N11     Fs2   v060
	BYTE	W12
	BYTE		        Gs1   v088
	BYTE		N11     Fs2   v016
	BYTE	W12
	BYTE		        Gs1   v088
	BYTE		N11     Fs2   v076
	BYTE	W12
	BYTE		        Gs1   v060
	BYTE		N11     Fs2   v044
	BYTE	W12
	BYTE		        Gs1   v096
	BYTE		N11     Fs2   v088
	BYTE	W12
	BYTE		        Gs1   v080
	BYTE		N11     Fs2   v052
	BYTE	W12
	BYTE		        Gs1   v096
	BYTE		N11     Fs2   v088
	BYTE	W12
	BYTE		        Gs1   v104
	BYTE		N11     Fs2   v084
	BYTE	W12
// 028   ----------------------------------------
	BYTE		        Gn1   v116
	BYTE		N11     Fs2   v088
	BYTE	W12
	BYTE		        Gn1   v096
	BYTE		N11     Fs2   v092
	BYTE	W11
	BYTE		VOL     108*FE11FootstepsofFateSme_mvl/mxv
	BYTE	W01
	BYTE		        108*FE11FootstepsofFateSme_mvl/mxv
	BYTE		PAN     c_v+9
	BYTE		VOL     71*FE11FootstepsofFateSme_mvl/mxv
	BYTE		N44     Fs2   v084
	BYTE	W12
	BYTE		VOL     72*FE11FootstepsofFateSme_mvl/mxv
	BYTE	W09
	BYTE		        73*FE11FootstepsofFateSme_mvl/mxv
	BYTE	W09
	BYTE		        73*FE11FootstepsofFateSme_mvl/mxv
	BYTE	W04
	BYTE		        74*FE11FootstepsofFateSme_mvl/mxv
	BYTE	W09
	BYTE		        75*FE11FootstepsofFateSme_mvl/mxv
	BYTE	W05
	BYTE		N44     Cs3   v072
	BYTE	W03
	BYTE		VOL     76*FE11FootstepsofFateSme_mvl/mxv
	BYTE	W05
	BYTE		        77*FE11FootstepsofFateSme_mvl/mxv
	BYTE	W08
	BYTE		        78*FE11FootstepsofFateSme_mvl/mxv
	BYTE	W05
	BYTE		        79*FE11FootstepsofFateSme_mvl/mxv
	BYTE	W03
// 029   ----------------------------------------
	BYTE	W05
	BYTE		        79*FE11FootstepsofFateSme_mvl/mxv
	BYTE	W05
	BYTE		        80*FE11FootstepsofFateSme_mvl/mxv
	BYTE	W04
	BYTE		        81*FE11FootstepsofFateSme_mvl/mxv
	BYTE	W04
	BYTE		        82*FE11FootstepsofFateSme_mvl/mxv
	BYTE	W06
	BYTE		N44     Gs3 
	BYTE	W03
	BYTE		VOL     83*FE11FootstepsofFateSme_mvl/mxv
	BYTE	W04
	BYTE		        84*FE11FootstepsofFateSme_mvl/mxv
	BYTE	W05
	BYTE		        85*FE11FootstepsofFateSme_mvl/mxv
	BYTE	W04
	BYTE		        85*FE11FootstepsofFateSme_mvl/mxv
	BYTE	W04
	BYTE		        86*FE11FootstepsofFateSme_mvl/mxv
	BYTE	W05
	BYTE		        87*FE11FootstepsofFateSme_mvl/mxv
	BYTE	W04
	BYTE		        88*FE11FootstepsofFateSme_mvl/mxv
	BYTE	W04
	BYTE		        90*FE11FootstepsofFateSme_mvl/mxv
	BYTE	W05
	BYTE		        90*FE11FootstepsofFateSme_mvl/mxv
	BYTE	W04
	BYTE		        91*FE11FootstepsofFateSme_mvl/mxv
	BYTE	W04
	BYTE		        92*FE11FootstepsofFateSme_mvl/mxv
	BYTE	W02
	BYTE		N44     An3   v080
	BYTE	W03
	BYTE		VOL     94*FE11FootstepsofFateSme_mvl/mxv
	BYTE	W04
	BYTE		        95*FE11FootstepsofFateSme_mvl/mxv
	BYTE	W04
	BYTE		        96*FE11FootstepsofFateSme_mvl/mxv
	BYTE	W05
	BYTE		        97*FE11FootstepsofFateSme_mvl/mxv
	BYTE	W04
	BYTE		        99*FE11FootstepsofFateSme_mvl/mxv
	BYTE	W04
// 030   ----------------------------------------
	BYTE		        101*FE11FootstepsofFateSme_mvl/mxv
	BYTE	W05
	BYTE		        102*FE11FootstepsofFateSme_mvl/mxv
	BYTE	W04
	BYTE		        103*FE11FootstepsofFateSme_mvl/mxv
	BYTE	W04
	BYTE		        105*FE11FootstepsofFateSme_mvl/mxv
	BYTE	W04
	BYTE		        107*FE11FootstepsofFateSme_mvl/mxv
	BYTE	W01
	BYTE		        108*FE11FootstepsofFateSme_mvl/mxv
	BYTE	W06
	BYTE		N44     Gs3   v076
	BYTE	W09
	BYTE		VOL     107*FE11FootstepsofFateSme_mvl/mxv
	BYTE	W10
	BYTE		        106*FE11FootstepsofFateSme_mvl/mxv
	BYTE	W10
	BYTE		        105*FE11FootstepsofFateSme_mvl/mxv
	BYTE	W06
	BYTE		        104*FE11FootstepsofFateSme_mvl/mxv
	BYTE	W10
	BYTE		        103*FE11FootstepsofFateSme_mvl/mxv
	BYTE	W03
	BYTE		N68     Cs3   v080
	BYTE	W07
	BYTE		VOL     102*FE11FootstepsofFateSme_mvl/mxv
	BYTE	W05
	BYTE		        102*FE11FootstepsofFateSme_mvl/mxv
	BYTE	W10
	BYTE		        101*FE11FootstepsofFateSme_mvl/mxv
	BYTE	W02
// 031   ----------------------------------------
	BYTE	W04
	BYTE		        100*FE11FootstepsofFateSme_mvl/mxv
	BYTE	W05
	BYTE		        99*FE11FootstepsofFateSme_mvl/mxv
	BYTE	W10
	BYTE		        98*FE11FootstepsofFateSme_mvl/mxv
	BYTE	W05
	BYTE		        97*FE11FootstepsofFateSme_mvl/mxv
	BYTE	W05
	BYTE		        96*FE11FootstepsofFateSme_mvl/mxv
	BYTE	W05
	BYTE		        96*FE11FootstepsofFateSme_mvl/mxv
	BYTE	W05
	BYTE		        95*FE11FootstepsofFateSme_mvl/mxv
	BYTE	W06
	BYTE		        94*FE11FootstepsofFateSme_mvl/mxv
	BYTE	W03
	BYTE		N23     Dn3   v072
	BYTE	W02
	BYTE		VOL     93*FE11FootstepsofFateSme_mvl/mxv
	BYTE	W05
	BYTE		        92*FE11FootstepsofFateSme_mvl/mxv
	BYTE	W05
	BYTE		        91*FE11FootstepsofFateSme_mvl/mxv
	BYTE	W05
	BYTE		        90*FE11FootstepsofFateSme_mvl/mxv
	BYTE	W05
	BYTE		        89*FE11FootstepsofFateSme_mvl/mxv
	BYTE	W02
	BYTE		N23     En3 
	BYTE	W03
	BYTE		VOL     88*FE11FootstepsofFateSme_mvl/mxv
	BYTE	W05
	BYTE		        87*FE11FootstepsofFateSme_mvl/mxv
	BYTE	W06
	BYTE		        85*FE11FootstepsofFateSme_mvl/mxv
	BYTE	W05
	BYTE		        85*FE11FootstepsofFateSme_mvl/mxv
	BYTE	W05
// 032   ----------------------------------------
	BYTE		        83*FE11FootstepsofFateSme_mvl/mxv
	BYTE		N20     Dn3 
	BYTE	W05
	BYTE		VOL     81*FE11FootstepsofFateSme_mvl/mxv
	BYTE	W05
	BYTE		        80*FE11FootstepsofFateSme_mvl/mxv
	BYTE	W05
	BYTE		        79*FE11FootstepsofFateSme_mvl/mxv
	BYTE	W05
	BYTE		        77*FE11FootstepsofFateSme_mvl/mxv
	BYTE	W04
	BYTE		N44     Cs3   v080
	BYTE	W01
	BYTE		VOL     75*FE11FootstepsofFateSme_mvl/mxv
	BYTE	W01
	BYTE		        74*FE11FootstepsofFateSme_mvl/mxv
	BYTE	W24
	BYTE		        75*FE11FootstepsofFateSme_mvl/mxv
	BYTE	W08
	BYTE		        76*FE11FootstepsofFateSme_mvl/mxv
	BYTE	W14
	BYTE		N23     Fs2   v072
	BYTE	W02
	BYTE		VOL     77*FE11FootstepsofFateSme_mvl/mxv
	BYTE	W08
	BYTE		        78*FE11FootstepsofFateSme_mvl/mxv
	BYTE	W08
	BYTE		        79*FE11FootstepsofFateSme_mvl/mxv
	BYTE	W06
// 033   ----------------------------------------
	BYTE		N23     Cs3 
	BYTE	W02
	BYTE		VOL     79*FE11FootstepsofFateSme_mvl/mxv
	BYTE	W08
	BYTE		        81*FE11FootstepsofFateSme_mvl/mxv
	BYTE	W08
	BYTE		        82*FE11FootstepsofFateSme_mvl/mxv
	BYTE	W06
	BYTE		N56     Gs3 
	BYTE	W02
	BYTE		VOL     85*FE11FootstepsofFateSme_mvl/mxv
	BYTE	W07
	BYTE		        85*FE11FootstepsofFateSme_mvl/mxv
	BYTE	W04
	BYTE		        86*FE11FootstepsofFateSme_mvl/mxv
	BYTE	W03
	BYTE		        87*FE11FootstepsofFateSme_mvl/mxv
	BYTE	W03
	BYTE		        88*FE11FootstepsofFateSme_mvl/mxv
	BYTE	W04
	BYTE		        89*FE11FootstepsofFateSme_mvl/mxv
	BYTE	W03
	BYTE		        90*FE11FootstepsofFateSme_mvl/mxv
	BYTE	W04
	BYTE		        90*FE11FootstepsofFateSme_mvl/mxv
	BYTE	W03
	BYTE		        91*FE11FootstepsofFateSme_mvl/mxv
	BYTE	W03
	BYTE		        92*FE11FootstepsofFateSme_mvl/mxv
	BYTE	W04
	BYTE		        93*FE11FootstepsofFateSme_mvl/mxv
	BYTE	W03
	BYTE		        94*FE11FootstepsofFateSme_mvl/mxv
	BYTE	W04
	BYTE		        95*FE11FootstepsofFateSme_mvl/mxv
	BYTE	W03
	BYTE		        96*FE11FootstepsofFateSme_mvl/mxv
	BYTE	W03
	BYTE		        96*FE11FootstepsofFateSme_mvl/mxv
	BYTE	W04
	BYTE		        97*FE11FootstepsofFateSme_mvl/mxv
	BYTE	W03
	BYTE		        98*FE11FootstepsofFateSme_mvl/mxv
	BYTE		N05     Fs3 
	BYTE	W04
	BYTE		VOL     99*FE11FootstepsofFateSme_mvl/mxv
	BYTE	W02
	BYTE		N05     Gs3 
	BYTE	W01
	BYTE		VOL     100*FE11FootstepsofFateSme_mvl/mxv
	BYTE	W03
	BYTE		        101*FE11FootstepsofFateSme_mvl/mxv
	BYTE	W02
// 034   ----------------------------------------
	BYTE		N05     An3   v076
	BYTE	W02
	BYTE		VOL     102*FE11FootstepsofFateSme_mvl/mxv
	BYTE	W03
	BYTE		        102*FE11FootstepsofFateSme_mvl/mxv
	BYTE	W01
	BYTE		N05     Gs3 
	BYTE	W03
	BYTE		VOL     103*FE11FootstepsofFateSme_mvl/mxv
	BYTE	W03
	BYTE		        104*FE11FootstepsofFateSme_mvl/mxv
	BYTE		N05     En3 
	BYTE	W03
	BYTE		VOL     105*FE11FootstepsofFateSme_mvl/mxv
	BYTE	W03
	BYTE		N05     Bn2 
	BYTE	W01
	BYTE		VOL     106*FE11FootstepsofFateSme_mvl/mxv
	BYTE	W03
	BYTE		        108*FE11FootstepsofFateSme_mvl/mxv
	BYTE	W02
	BYTE		N24     Dn3 
	BYTE	W17
	BYTE		VOL     107*FE11FootstepsofFateSme_mvl/mxv
	BYTE	W07
	BYTE		N56     Bn2   v084
	BYTE	W06
	BYTE		VOL     106*FE11FootstepsofFateSme_mvl/mxv
	BYTE	W13
	BYTE		        105*FE11FootstepsofFateSme_mvl/mxv
	BYTE	W12
	BYTE		        104*FE11FootstepsofFateSme_mvl/mxv
	BYTE	W13
	BYTE		        103*FE11FootstepsofFateSme_mvl/mxv
	BYTE	W04
// 035   ----------------------------------------
	BYTE	W09
	BYTE		        102*FE11FootstepsofFateSme_mvl/mxv
	BYTE	W03
	BYTE		N05     An2 
	BYTE	W03
	BYTE		VOL     102*FE11FootstepsofFateSme_mvl/mxv
	BYTE	W03
	BYTE		N05     Bn2 
	BYTE	W03
	BYTE		VOL     101*FE11FootstepsofFateSme_mvl/mxv
	BYTE	W03
	BYTE		N22     Cs3   v076
	BYTE	W10
	BYTE		VOL     100*FE11FootstepsofFateSme_mvl/mxv
	BYTE	W06
	BYTE		        99*FE11FootstepsofFateSme_mvl/mxv
	BYTE	W06
	BYTE		        98*FE11FootstepsofFateSme_mvl/mxv
	BYTE	W02
	BYTE		N44     Dn3   v072
	BYTE	W05
	BYTE		VOL     97*FE11FootstepsofFateSme_mvl/mxv
	BYTE	W06
	BYTE		        96*FE11FootstepsofFateSme_mvl/mxv
	BYTE	W06
	BYTE		        96*FE11FootstepsofFateSme_mvl/mxv
	BYTE	W07
	BYTE		        95*FE11FootstepsofFateSme_mvl/mxv
	BYTE	W06
	BYTE		        93*FE11FootstepsofFateSme_mvl/mxv
	BYTE	W06
	BYTE		        92*FE11FootstepsofFateSme_mvl/mxv
	BYTE	W07
	BYTE		        91*FE11FootstepsofFateSme_mvl/mxv
	BYTE	W05
// 036   ----------------------------------------
	BYTE		N20     En3 
	BYTE	W01
	BYTE		VOL     90*FE11FootstepsofFateSme_mvl/mxv
	BYTE	W06
	BYTE		        88*FE11FootstepsofFateSme_mvl/mxv
	BYTE	W07
	BYTE		        86*FE11FootstepsofFateSme_mvl/mxv
	BYTE	W06
	BYTE		        85*FE11FootstepsofFateSme_mvl/mxv
	BYTE	W04
	BYTE		N90     Cs3   v068
	BYTE	W02
	BYTE		VOL     83*FE11FootstepsofFateSme_mvl/mxv
	BYTE	W07
	BYTE		        80*FE11FootstepsofFateSme_mvl/mxv
	BYTE	W03
	BYTE		        79*FE11FootstepsofFateSme_mvl/mxv
	BYTE	W03
	BYTE		        79*FE11FootstepsofFateSme_mvl/mxv
	BYTE	W03
	BYTE		        78*FE11FootstepsofFateSme_mvl/mxv
	BYTE	W03
	BYTE		        76*FE11FootstepsofFateSme_mvl/mxv
	BYTE	W03
	BYTE		        75*FE11FootstepsofFateSme_mvl/mxv
	BYTE	W03
	BYTE		        74*FE11FootstepsofFateSme_mvl/mxv
	BYTE	W03
	BYTE		        73*FE11FootstepsofFateSme_mvl/mxv
	BYTE	W03
	BYTE		        71*FE11FootstepsofFateSme_mvl/mxv
	BYTE	W03
	BYTE		        70*FE11FootstepsofFateSme_mvl/mxv
	BYTE	W03
	BYTE		        68*FE11FootstepsofFateSme_mvl/mxv
	BYTE	W03
	BYTE		        67*FE11FootstepsofFateSme_mvl/mxv
	BYTE	W03
	BYTE		        65*FE11FootstepsofFateSme_mvl/mxv
	BYTE	W03
	BYTE		        63*FE11FootstepsofFateSme_mvl/mxv
	BYTE	W03
	BYTE		        62*FE11FootstepsofFateSme_mvl/mxv
	BYTE	W03
	BYTE		        60*FE11FootstepsofFateSme_mvl/mxv
	BYTE	W03
	BYTE		        58*FE11FootstepsofFateSme_mvl/mxv
	BYTE	W03
	BYTE		        56*FE11FootstepsofFateSme_mvl/mxv
	BYTE	W03
	BYTE		        54*FE11FootstepsofFateSme_mvl/mxv
	BYTE	W03
	BYTE		        51*FE11FootstepsofFateSme_mvl/mxv
	BYTE	W03
	BYTE		        50*FE11FootstepsofFateSme_mvl/mxv
	BYTE	W03
// 037   ----------------------------------------
	BYTE		        47*FE11FootstepsofFateSme_mvl/mxv
	BYTE	W03
	BYTE		        44*FE11FootstepsofFateSme_mvl/mxv
	BYTE	W03
	BYTE		        41*FE11FootstepsofFateSme_mvl/mxv
	BYTE	W03
	BYTE		        38*FE11FootstepsofFateSme_mvl/mxv
	BYTE	W03
	BYTE		        35*FE11FootstepsofFateSme_mvl/mxv
	BYTE	W03
	BYTE		        32*FE11FootstepsofFateSme_mvl/mxv
	BYTE	W03
	BYTE		        28*FE11FootstepsofFateSme_mvl/mxv
	BYTE	W02
	BYTE		        25*FE11FootstepsofFateSme_mvl/mxv
	BYTE	W76
// 038   ----------------------------------------
	BYTE	W96
// 039   ----------------------------------------
	BYTE	W96
// 040   ----------------------------------------
	BYTE	W23
	BYTE		        25*FE11FootstepsofFateSme_mvl/mxv
	BYTE	W01
	BYTE		        108*FE11FootstepsofFateSme_mvl/mxv
	BYTE	W72
// 041   ----------------------------------------
	BYTE	W24
	BYTE		N23     Fs3 
	BYTE	W24
	BYTE		        En3 
	BYTE	W24
	BYTE		        Bn3   v080
	BYTE	W24
// 042   ----------------------------------------
	BYTE	PATT
	 POIN2	FE11FootstepsofFateSme_6_004
// 043   ----------------------------------------
	BYTE		VOL     82*FE11FootstepsofFateSme_mvl/mxv
	BYTE	W03
	BYTE		        79*FE11FootstepsofFateSme_mvl/mxv
	BYTE	W03
	BYTE		        77*FE11FootstepsofFateSme_mvl/mxv
	BYTE	W03
	BYTE		        74*FE11FootstepsofFateSme_mvl/mxv
	BYTE		N02     Dn3   v124
	BYTE	W03
	BYTE		VOL     72*FE11FootstepsofFateSme_mvl/mxv
	BYTE		N02     En3 
	BYTE	W03
	BYTE		VOL     69*FE11FootstepsofFateSme_mvl/mxv
	BYTE		N02     Fs3 
	BYTE	W03
	BYTE		VOL     66*FE11FootstepsofFateSme_mvl/mxv
	BYTE		N02     Gs3 
	BYTE	W03
	BYTE		VOL     62*FE11FootstepsofFateSme_mvl/mxv
	BYTE		N02     An3 
	BYTE	W02
	BYTE		VOL     59*FE11FootstepsofFateSme_mvl/mxv
	BYTE	W01
	BYTE		N44     Bn3   v120
	BYTE	W05
	BYTE		VOL     60*FE11FootstepsofFateSme_mvl/mxv
	BYTE	W06
	BYTE		        61*FE11FootstepsofFateSme_mvl/mxv
	BYTE	W06
	BYTE		        62*FE11FootstepsofFateSme_mvl/mxv
	BYTE	W03
	BYTE		        62*FE11FootstepsofFateSme_mvl/mxv
	BYTE	W03
	BYTE		        63*FE11FootstepsofFateSme_mvl/mxv
	BYTE	W06
	BYTE		        64*FE11FootstepsofFateSme_mvl/mxv
	BYTE	W03
	BYTE		        65*FE11FootstepsofFateSme_mvl/mxv
	BYTE	W03
	BYTE		        66*FE11FootstepsofFateSme_mvl/mxv
	BYTE	W03
	BYTE		        67*FE11FootstepsofFateSme_mvl/mxv
	BYTE	W03
	BYTE		        68*FE11FootstepsofFateSme_mvl/mxv
	BYTE	W03
	BYTE		        68*FE11FootstepsofFateSme_mvl/mxv
	BYTE	W03
	BYTE		        70*FE11FootstepsofFateSme_mvl/mxv
	BYTE	W01
	BYTE		N32     Gs3 
	BYTE	W02
	BYTE		VOL     71*FE11FootstepsofFateSme_mvl/mxv
	BYTE	W03
	BYTE		        72*FE11FootstepsofFateSme_mvl/mxv
	BYTE	W03
	BYTE		        73*FE11FootstepsofFateSme_mvl/mxv
	BYTE	W03
	BYTE		        75*FE11FootstepsofFateSme_mvl/mxv
	BYTE	W03
	BYTE		        76*FE11FootstepsofFateSme_mvl/mxv
	BYTE	W03
	BYTE		        78*FE11FootstepsofFateSme_mvl/mxv
	BYTE	W03
	BYTE		        80*FE11FootstepsofFateSme_mvl/mxv
	BYTE	W03
	BYTE		        82*FE11FootstepsofFateSme_mvl/mxv
	BYTE	W01
// 044   ----------------------------------------
	BYTE	W02
	BYTE		        85*FE11FootstepsofFateSme_mvl/mxv
	BYTE	W03
	BYTE		        87*FE11FootstepsofFateSme_mvl/mxv
	BYTE	W03
	BYTE		        90*FE11FootstepsofFateSme_mvl/mxv
	BYTE	W01
	BYTE		        90*FE11FootstepsofFateSme_mvl/mxv
	BYTE	W03
	BYTE		N05     Fs3   v108
	BYTE	W06
	BYTE		        Gs3   v116
	BYTE	W05
	BYTE	GoTo
	 POIN2	FE11FootstepsofFateSme_6_B1
FE11FootstepsofFateSme_6_B2:
	BYTE	FINE

//**************** Track 7 (Midi-Chn.7) ****************//

FE11FootstepsofFateSme_7:
	BYTE	KEYSH   FE11FootstepsofFateSme_key+0
// 000   ----------------------------------------
	BYTE		VOICE   49
	BYTE		MODT    0
	BYTE		LFOS    44
	BYTE	W96
// 001   ----------------------------------------
	BYTE	W96
// 002   ----------------------------------------
	BYTE	W96
// 003   ----------------------------------------
	BYTE	W24
	BYTE		VOL     102*FE11FootstepsofFateSme_mvl/mxv
	BYTE		PAN     c_v-23
	BYTE		VOL     12*FE11FootstepsofFateSme_mvl/mxv
	BYTE		BEND    c_v+0
	BYTE	W01
	BYTE		VOL     12*FE11FootstepsofFateSme_mvl/mxv
	BYTE		N96     Ds2   v088
	BYTE	W02
	BYTE		VOL     13*FE11FootstepsofFateSme_mvl/mxv
	BYTE	W01
	BYTE		        14*FE11FootstepsofFateSme_mvl/mxv
	BYTE	W02
	BYTE		        15*FE11FootstepsofFateSme_mvl/mxv
	BYTE	W01
	BYTE		        16*FE11FootstepsofFateSme_mvl/mxv
	BYTE	W02
	BYTE		        16*FE11FootstepsofFateSme_mvl/mxv
	BYTE	W01
	BYTE		        17*FE11FootstepsofFateSme_mvl/mxv
	BYTE	W02
	BYTE		        18*FE11FootstepsofFateSme_mvl/mxv
	BYTE	W01
	BYTE		        19*FE11FootstepsofFateSme_mvl/mxv
	BYTE	W02
	BYTE		        20*FE11FootstepsofFateSme_mvl/mxv
	BYTE	W01
	BYTE		        21*FE11FootstepsofFateSme_mvl/mxv
	BYTE	W02
	BYTE		        22*FE11FootstepsofFateSme_mvl/mxv
	BYTE	W01
	BYTE		        23*FE11FootstepsofFateSme_mvl/mxv
	BYTE	W02
	BYTE		        24*FE11FootstepsofFateSme_mvl/mxv
	BYTE	W01
	BYTE		        25*FE11FootstepsofFateSme_mvl/mxv
	BYTE	W02
	BYTE		        26*FE11FootstepsofFateSme_mvl/mxv
	BYTE	W01
	BYTE		        28*FE11FootstepsofFateSme_mvl/mxv
	BYTE	W02
	BYTE		        28*FE11FootstepsofFateSme_mvl/mxv
	BYTE	W01
	BYTE		        30*FE11FootstepsofFateSme_mvl/mxv
	BYTE	W02
	BYTE		        31*FE11FootstepsofFateSme_mvl/mxv
	BYTE	W01
	BYTE		        32*FE11FootstepsofFateSme_mvl/mxv
	BYTE	W02
	BYTE		        33*FE11FootstepsofFateSme_mvl/mxv
	BYTE	W01
	BYTE		        35*FE11FootstepsofFateSme_mvl/mxv
	BYTE	W02
	BYTE		        36*FE11FootstepsofFateSme_mvl/mxv
	BYTE	W01
	BYTE		        37*FE11FootstepsofFateSme_mvl/mxv
	BYTE	W02
	BYTE		        39*FE11FootstepsofFateSme_mvl/mxv
	BYTE	W01
	BYTE		        40*FE11FootstepsofFateSme_mvl/mxv
	BYTE	W02
	BYTE		        41*FE11FootstepsofFateSme_mvl/mxv
	BYTE	W01
	BYTE		        43*FE11FootstepsofFateSme_mvl/mxv
	BYTE	W02
	BYTE		        44*FE11FootstepsofFateSme_mvl/mxv
	BYTE	W01
	BYTE		        46*FE11FootstepsofFateSme_mvl/mxv
	BYTE	W02
	BYTE		        48*FE11FootstepsofFateSme_mvl/mxv
	BYTE	W01
	BYTE		        49*FE11FootstepsofFateSme_mvl/mxv
	BYTE	W02
	BYTE		        51*FE11FootstepsofFateSme_mvl/mxv
	BYTE	W01
	BYTE		        53*FE11FootstepsofFateSme_mvl/mxv
	BYTE	W02
	BYTE		        54*FE11FootstepsofFateSme_mvl/mxv
	BYTE	W01
	BYTE		        56*FE11FootstepsofFateSme_mvl/mxv
	BYTE	W02
	BYTE		        58*FE11FootstepsofFateSme_mvl/mxv
	BYTE	W01
	BYTE		        60*FE11FootstepsofFateSme_mvl/mxv
	BYTE	W02
	BYTE		        61*FE11FootstepsofFateSme_mvl/mxv
	BYTE	W01
	BYTE		        64*FE11FootstepsofFateSme_mvl/mxv
	BYTE	W02
	BYTE		        65*FE11FootstepsofFateSme_mvl/mxv
	BYTE	W01
	BYTE		        68*FE11FootstepsofFateSme_mvl/mxv
	BYTE	W02
	BYTE		        70*FE11FootstepsofFateSme_mvl/mxv
	BYTE	W01
	BYTE		        73*FE11FootstepsofFateSme_mvl/mxv
	BYTE	W02
	BYTE		        75*FE11FootstepsofFateSme_mvl/mxv
	BYTE	W01
	BYTE		        77*FE11FootstepsofFateSme_mvl/mxv
	BYTE	W02
// 004   ----------------------------------------
	BYTE		        80*FE11FootstepsofFateSme_mvl/mxv
	BYTE	W01
	BYTE		        82*FE11FootstepsofFateSme_mvl/mxv
	BYTE	W02
	BYTE		        85*FE11FootstepsofFateSme_mvl/mxv
	BYTE	W01
	BYTE		        87*FE11FootstepsofFateSme_mvl/mxv
	BYTE	W02
	BYTE		        90*FE11FootstepsofFateSme_mvl/mxv
	BYTE	W01
	BYTE		        93*FE11FootstepsofFateSme_mvl/mxv
	BYTE	W02
	BYTE		        96*FE11FootstepsofFateSme_mvl/mxv
	BYTE	W01
	BYTE		        99*FE11FootstepsofFateSme_mvl/mxv
	BYTE	W01
	BYTE		        102*FE11FootstepsofFateSme_mvl/mxv
	BYTE	W84
	BYTE	W01
// 005   ----------------------------------------
	BYTE	W96
// 006   ----------------------------------------
	BYTE	W24
FE11FootstepsofFateSme_7_B1:
	BYTE		PAN     c_v-23
	BYTE		VOL     102*FE11FootstepsofFateSme_mvl/mxv
	BYTE	W72
// 007   ----------------------------------------
	BYTE	W96
// 008   ----------------------------------------
	BYTE	W24
	BYTE		        124*FE11FootstepsofFateSme_mvl/mxv
	BYTE		PAN     c_v-10
	BYTE		VOL     121*FE11FootstepsofFateSme_mvl/mxv
	BYTE		BEND    c_v+2
	BYTE		N72     An2   v108
	BYTE	W01
	BYTE		VOL     117*FE11FootstepsofFateSme_mvl/mxv
	BYTE	W01
	BYTE		        113*FE11FootstepsofFateSme_mvl/mxv
	BYTE	W01
	BYTE		        105*FE11FootstepsofFateSme_mvl/mxv
	BYTE	W01
	BYTE		        101*FE11FootstepsofFateSme_mvl/mxv
	BYTE	W01
	BYTE		        97*FE11FootstepsofFateSme_mvl/mxv
	BYTE	W01
	BYTE		        89*FE11FootstepsofFateSme_mvl/mxv
	BYTE	W01
	BYTE		        85*FE11FootstepsofFateSme_mvl/mxv
	BYTE	W01
	BYTE		        82*FE11FootstepsofFateSme_mvl/mxv
	BYTE	W01
	BYTE		        75*FE11FootstepsofFateSme_mvl/mxv
	BYTE	W03
	BYTE		        76*FE11FootstepsofFateSme_mvl/mxv
	BYTE	W03
	BYTE		        77*FE11FootstepsofFateSme_mvl/mxv
	BYTE	W03
	BYTE		        79*FE11FootstepsofFateSme_mvl/mxv
	BYTE	W03
	BYTE		        80*FE11FootstepsofFateSme_mvl/mxv
	BYTE	W03
	BYTE		        82*FE11FootstepsofFateSme_mvl/mxv
	BYTE	W03
	BYTE		        83*FE11FootstepsofFateSme_mvl/mxv
	BYTE	W03
	BYTE		        85*FE11FootstepsofFateSme_mvl/mxv
	BYTE	W03
	BYTE		        87*FE11FootstepsofFateSme_mvl/mxv
	BYTE	W03
	BYTE		        89*FE11FootstepsofFateSme_mvl/mxv
	BYTE	W03
	BYTE		        91*FE11FootstepsofFateSme_mvl/mxv
	BYTE	W03
	BYTE		        94*FE11FootstepsofFateSme_mvl/mxv
	BYTE	W03
	BYTE		        97*FE11FootstepsofFateSme_mvl/mxv
	BYTE	W03
	BYTE		        100*FE11FootstepsofFateSme_mvl/mxv
	BYTE	W03
	BYTE		        103*FE11FootstepsofFateSme_mvl/mxv
	BYTE	W03
	BYTE		        106*FE11FootstepsofFateSme_mvl/mxv
	BYTE	W03
	BYTE		        110*FE11FootstepsofFateSme_mvl/mxv
	BYTE	W03
	BYTE		        114*FE11FootstepsofFateSme_mvl/mxv
	BYTE	W03
	BYTE		        119*FE11FootstepsofFateSme_mvl/mxv
	BYTE	W03
	BYTE		        124*FE11FootstepsofFateSme_mvl/mxv
	BYTE	W06
// 009   ----------------------------------------
	BYTE	W06
	BYTE		N05     An2   v092
	BYTE		N05     Cs3   v108
	BYTE	W06
	BYTE		        Cs3   v092
	BYTE		N05     Fs3   v108
	BYTE	W06
	BYTE		        En3   v092
	BYTE		N05     Gs3   v112
	BYTE	W06
	BYTE		        En3   v092
	BYTE		N05     Gs3   v108
	BYTE	W06
	BYTE		        Fs3   v088
	BYTE		N05     An3   v108
	BYTE	W06
	BYTE		N32     Gs3   v096
	BYTE		N32     Bn3   v112
	BYTE	W01
	BYTE		VOL     124*FE11FootstepsofFateSme_mvl/mxv
	BYTE	W01
	BYTE		        118*FE11FootstepsofFateSme_mvl/mxv
	BYTE	W01
	BYTE		        112*FE11FootstepsofFateSme_mvl/mxv
	BYTE	W01
	BYTE		        100*FE11FootstepsofFateSme_mvl/mxv
	BYTE	W01
	BYTE		        94*FE11FootstepsofFateSme_mvl/mxv
	BYTE	W01
	BYTE		        88*FE11FootstepsofFateSme_mvl/mxv
	BYTE	W01
	BYTE		        77*FE11FootstepsofFateSme_mvl/mxv
	BYTE	W03
	BYTE		        78*FE11FootstepsofFateSme_mvl/mxv
	BYTE	W03
	BYTE		        79*FE11FootstepsofFateSme_mvl/mxv
	BYTE	W03
	BYTE		        81*FE11FootstepsofFateSme_mvl/mxv
	BYTE	W03
	BYTE		        82*FE11FootstepsofFateSme_mvl/mxv
	BYTE	W03
	BYTE		        83*FE11FootstepsofFateSme_mvl/mxv
	BYTE	W03
	BYTE		        85*FE11FootstepsofFateSme_mvl/mxv
	BYTE	W03
	BYTE		        87*FE11FootstepsofFateSme_mvl/mxv
	BYTE	W03
	BYTE		        89*FE11FootstepsofFateSme_mvl/mxv
	BYTE	W03
	BYTE		        91*FE11FootstepsofFateSme_mvl/mxv
	BYTE	W02
	BYTE		N32     Cs4   v088
	BYTE		N32     Fs4   v104
	BYTE	W01
	BYTE		VOL     93*FE11FootstepsofFateSme_mvl/mxv
	BYTE	W03
	BYTE		        96*FE11FootstepsofFateSme_mvl/mxv
	BYTE	W03
	BYTE		        99*FE11FootstepsofFateSme_mvl/mxv
	BYTE	W03
	BYTE		        102*FE11FootstepsofFateSme_mvl/mxv
	BYTE	W03
	BYTE		        105*FE11FootstepsofFateSme_mvl/mxv
	BYTE	W03
	BYTE		        109*FE11FootstepsofFateSme_mvl/mxv
	BYTE	W03
	BYTE		        112*FE11FootstepsofFateSme_mvl/mxv
	BYTE	W03
	BYTE		        117*FE11FootstepsofFateSme_mvl/mxv
	BYTE	W02
// 010   ----------------------------------------
	BYTE	W01
	BYTE		        121*FE11FootstepsofFateSme_mvl/mxv
	BYTE	W02
	BYTE		        124*FE11FootstepsofFateSme_mvl/mxv
	BYTE	W06
	BYTE		N03     Fs4   v100
	BYTE	W03
	BYTE		N04     En4   v092
	BYTE		N04     Gs4   v108
	BYTE	W06
	BYTE		N05     Fs4   v084
	BYTE		N05     An4   v100
	BYTE	W06
	BYTE		        En4   v084
	BYTE		N05     Gs4   v104
	BYTE	W06
	BYTE		        Gs3   v084
	BYTE		N05     Bn3   v104
	BYTE	W06
	BYTE		N32     An3   v084
	BYTE		TIE     Cs4   v104
	BYTE	W01
	BYTE		VOL     124*FE11FootstepsofFateSme_mvl/mxv
	BYTE	W01
	BYTE		        119*FE11FootstepsofFateSme_mvl/mxv
	BYTE	W01
	BYTE		        113*FE11FootstepsofFateSme_mvl/mxv
	BYTE	W01
	BYTE		        101*FE11FootstepsofFateSme_mvl/mxv
	BYTE	W01
	BYTE		        95*FE11FootstepsofFateSme_mvl/mxv
	BYTE	W01
	BYTE		        89*FE11FootstepsofFateSme_mvl/mxv
	BYTE	W01
	BYTE		        78*FE11FootstepsofFateSme_mvl/mxv
	BYTE	W09
	BYTE		        79*FE11FootstepsofFateSme_mvl/mxv
	BYTE	W06
	BYTE		        80*FE11FootstepsofFateSme_mvl/mxv
	BYTE	W06
	BYTE		        81*FE11FootstepsofFateSme_mvl/mxv
	BYTE	W06
	BYTE		        82*FE11FootstepsofFateSme_mvl/mxv
	BYTE	W02
	BYTE		N23     Gs3   v084
	BYTE	W04
	BYTE		VOL     82*FE11FootstepsofFateSme_mvl/mxv
	BYTE	W03
	BYTE		        83*FE11FootstepsofFateSme_mvl/mxv
	BYTE	W06
	BYTE		        84*FE11FootstepsofFateSme_mvl/mxv
	BYTE	W03
	BYTE		        85*FE11FootstepsofFateSme_mvl/mxv
	BYTE	W06
	BYTE		        86*FE11FootstepsofFateSme_mvl/mxv
	BYTE	W02
// 011   ----------------------------------------
	BYTE		N23     Fs3 
	BYTE	W01
	BYTE		VOL     87*FE11FootstepsofFateSme_mvl/mxv
	BYTE	W03
	BYTE		        88*FE11FootstepsofFateSme_mvl/mxv
	BYTE	W03
	BYTE		        89*FE11FootstepsofFateSme_mvl/mxv
	BYTE	W03
	BYTE		        90*FE11FootstepsofFateSme_mvl/mxv
	BYTE	W03
	BYTE		        91*FE11FootstepsofFateSme_mvl/mxv
	BYTE	W03
	BYTE		        92*FE11FootstepsofFateSme_mvl/mxv
	BYTE	W03
	BYTE		        93*FE11FootstepsofFateSme_mvl/mxv
	BYTE	W03
	BYTE		        94*FE11FootstepsofFateSme_mvl/mxv
	BYTE	W02
	BYTE		N23     Dn3 
	BYTE	W01
	BYTE		VOL     95*FE11FootstepsofFateSme_mvl/mxv
	BYTE	W03
	BYTE		        96*FE11FootstepsofFateSme_mvl/mxv
	BYTE	W03
	BYTE		        98*FE11FootstepsofFateSme_mvl/mxv
	BYTE	W03
	BYTE		        99*FE11FootstepsofFateSme_mvl/mxv
	BYTE	W03
	BYTE		        101*FE11FootstepsofFateSme_mvl/mxv
	BYTE	W03
	BYTE		        103*FE11FootstepsofFateSme_mvl/mxv
	BYTE	W03
	BYTE		        105*FE11FootstepsofFateSme_mvl/mxv
	BYTE	W03
	BYTE		        107*FE11FootstepsofFateSme_mvl/mxv
	BYTE	W01
	BYTE		EOT     Cs4 
	BYTE	W01
	BYTE		N23     En3 
	BYTE		N23     Cs4   v104
	BYTE	W01
	BYTE		VOL     109*FE11FootstepsofFateSme_mvl/mxv
	BYTE	W03
	BYTE		        111*FE11FootstepsofFateSme_mvl/mxv
	BYTE	W03
	BYTE		        114*FE11FootstepsofFateSme_mvl/mxv
	BYTE	W03
	BYTE		        116*FE11FootstepsofFateSme_mvl/mxv
	BYTE	W03
	BYTE		        119*FE11FootstepsofFateSme_mvl/mxv
	BYTE	W03
	BYTE		        123*FE11FootstepsofFateSme_mvl/mxv
	BYTE	W01
	BYTE		        124*FE11FootstepsofFateSme_mvl/mxv
	BYTE	W07
	BYTE		N04     An3   v084
	BYTE		N04     An4   v104
	BYTE	W06
	BYTE		        Gs3   v084
	BYTE		N04     Gs4   v104
	BYTE	W06
	BYTE		        Fs3   v084
	BYTE		N04     Fs4   v104
	BYTE	W06
	BYTE		        Cs3   v084
	BYTE		N04     Cs4   v104
	BYTE	W06
// 012   ----------------------------------------
	BYTE		        An2   v084
	BYTE		N04     An3   v104
	BYTE	W06
	BYTE		        Gs2   v084
	BYTE		N04     Gs3   v104
	BYTE	W06
	BYTE		        En2   v084
	BYTE		N04     En3   v104
	BYTE	W06
	BYTE		        Bn1   v084
	BYTE		N04     Bn2   v104
	BYTE	W06
	BYTE		MOD     0
	BYTE		VOL     94*FE11FootstepsofFateSme_mvl/mxv
	BYTE		PAN     c_v+6
	BYTE		BEND    c_v+0
	BYTE		N80     Cs4   v108
	BYTE		N80     An4   v092
	BYTE	W01
	BYTE		VOL     94*FE11FootstepsofFateSme_mvl/mxv
	BYTE	W06
	BYTE		MOD     0
	BYTE	W01
	BYTE		VOL     91*FE11FootstepsofFateSme_mvl/mxv
	BYTE	W01
	BYTE		        89*FE11FootstepsofFateSme_mvl/mxv
	BYTE	W01
	BYTE		        86*FE11FootstepsofFateSme_mvl/mxv
	BYTE		MOD     0
	BYTE	W01
	BYTE		VOL     82*FE11FootstepsofFateSme_mvl/mxv
	BYTE	W01
	BYTE		        79*FE11FootstepsofFateSme_mvl/mxv
	BYTE	W01
	BYTE		        76*FE11FootstepsofFateSme_mvl/mxv
	BYTE		MOD     1
	BYTE	W01
	BYTE		VOL     71*FE11FootstepsofFateSme_mvl/mxv
	BYTE	W02
	BYTE		MOD     2
	BYTE	W03
	BYTE		        2
	BYTE	W02
	BYTE		VOL     70*FE11FootstepsofFateSme_mvl/mxv
	BYTE	W01
	BYTE		MOD     2
	BYTE	W02
	BYTE		VOL     71*FE11FootstepsofFateSme_mvl/mxv
	BYTE	W01
	BYTE		MOD     3
	BYTE	W02
	BYTE		VOL     71*FE11FootstepsofFateSme_mvl/mxv
	BYTE	W01
	BYTE		MOD     4
	BYTE	W02
	BYTE		VOL     72*FE11FootstepsofFateSme_mvl/mxv
	BYTE	W01
	BYTE		MOD     4
	BYTE	W02
	BYTE		VOL     73*FE11FootstepsofFateSme_mvl/mxv
	BYTE	W01
	BYTE		MOD     5
	BYTE	W02
	BYTE		VOL     74*FE11FootstepsofFateSme_mvl/mxv
	BYTE	W01
	BYTE		MOD     6
	BYTE	W02
	BYTE		VOL     75*FE11FootstepsofFateSme_mvl/mxv
	BYTE	W01
	BYTE		MOD     6
	BYTE	W02
	BYTE		VOL     76*FE11FootstepsofFateSme_mvl/mxv
	BYTE	W01
	BYTE		MOD     6
	BYTE	W02
	BYTE		VOL     76*FE11FootstepsofFateSme_mvl/mxv
	BYTE	W01
	BYTE		MOD     7
	BYTE	W02
	BYTE		VOL     78*FE11FootstepsofFateSme_mvl/mxv
	BYTE	W01
	BYTE		MOD     8
	BYTE	W02
	BYTE		VOL     79*FE11FootstepsofFateSme_mvl/mxv
	BYTE	W01
	BYTE		MOD     8
	BYTE	W02
	BYTE		VOL     79*FE11FootstepsofFateSme_mvl/mxv
	BYTE	W01
	BYTE		MOD     9
	BYTE	W02
	BYTE		VOL     81*FE11FootstepsofFateSme_mvl/mxv
	BYTE	W01
	BYTE		MOD     10
	BYTE	W02
	BYTE		VOL     82*FE11FootstepsofFateSme_mvl/mxv
	BYTE	W01
	BYTE		MOD     10
	BYTE	W02
	BYTE		VOL     83*FE11FootstepsofFateSme_mvl/mxv
	BYTE	W01
	BYTE		MOD     10
	BYTE	W02
	BYTE		VOL     85*FE11FootstepsofFateSme_mvl/mxv
	BYTE	W01
	BYTE		MOD     11
	BYTE	W02
	BYTE		VOL     85*FE11FootstepsofFateSme_mvl/mxv
	BYTE	W01
	BYTE		MOD     12
	BYTE	W02
// 013   ----------------------------------------
	BYTE		VOL     87*FE11FootstepsofFateSme_mvl/mxv
	BYTE	W01
	BYTE		MOD     12
	BYTE	W02
	BYTE		VOL     88*FE11FootstepsofFateSme_mvl/mxv
	BYTE	W01
	BYTE		MOD     13
	BYTE	W02
	BYTE		        10
	BYTE		VOL     90*FE11FootstepsofFateSme_mvl/mxv
	BYTE	W01
	BYTE		MOD     8
	BYTE	W02
	BYTE		        6
	BYTE		VOL     91*FE11FootstepsofFateSme_mvl/mxv
	BYTE	W01
	BYTE		MOD     3
	BYTE	W02
	BYTE		VOL     94*FE11FootstepsofFateSme_mvl/mxv
	BYTE		MOD     0
	BYTE		N03     Bn3   v096
	BYTE		N03     Gs4   v084
	BYTE	W06
	BYTE		N04     Cs4   v100
	BYTE		N04     An4   v084
	BYTE	W06
	BYTE		MOD     0
	BYTE		N44     Bn3   v100
	BYTE		N44     Gs4   v080
	BYTE	W01
	BYTE		MOD     1
	BYTE	W02
	BYTE		        2
	BYTE	W01
	BYTE		        4
	BYTE	W01
	BYTE		VOL     94*FE11FootstepsofFateSme_mvl/mxv
	BYTE	W01
	BYTE		MOD     4
	BYTE	W01
	BYTE		        6
	BYTE	W02
	BYTE		        7
	BYTE	W01
	BYTE		        8
	BYTE	W01
	BYTE		VOL     93*FE11FootstepsofFateSme_mvl/mxv
	BYTE	W01
	BYTE		MOD     9
	BYTE	W01
	BYTE		        10
	BYTE	W02
	BYTE		        12
	BYTE	W01
	BYTE		        12
	BYTE	W01
	BYTE		VOL     92*FE11FootstepsofFateSme_mvl/mxv
	BYTE	W01
	BYTE		MOD     14
	BYTE	W02
	BYTE		VOL     91*FE11FootstepsofFateSme_mvl/mxv
	BYTE	W03
	BYTE		        91*FE11FootstepsofFateSme_mvl/mxv
	BYTE	W06
	BYTE		        90*FE11FootstepsofFateSme_mvl/mxv
	BYTE	W03
	BYTE		        89*FE11FootstepsofFateSme_mvl/mxv
	BYTE	W03
	BYTE		        88*FE11FootstepsofFateSme_mvl/mxv
	BYTE	W03
	BYTE		        88*FE11FootstepsofFateSme_mvl/mxv
	BYTE	W03
	BYTE		        87*FE11FootstepsofFateSme_mvl/mxv
	BYTE	W02
	BYTE		MOD     14
	BYTE	W01
	BYTE		VOL     86*FE11FootstepsofFateSme_mvl/mxv
	BYTE		MOD     12
	BYTE	W01
	BYTE		        10
	BYTE	W01
	BYTE		        5
	BYTE	W01
	BYTE		VOL     85*FE11FootstepsofFateSme_mvl/mxv
	BYTE		MOD     2
	BYTE	W01
	BYTE		        0
	BYTE		N32     En3   v116
	BYTE		N32     Bn3 
	BYTE	W02
	BYTE		VOL     85*FE11FootstepsofFateSme_mvl/mxv
	BYTE	W01
	BYTE		MOD     1
	BYTE	W02
	BYTE		VOL     83*FE11FootstepsofFateSme_mvl/mxv
	BYTE	W01
	BYTE		MOD     2
	BYTE	W02
	BYTE		VOL     82*FE11FootstepsofFateSme_mvl/mxv
	BYTE	W01
	BYTE		MOD     4
	BYTE	W02
	BYTE		VOL     81*FE11FootstepsofFateSme_mvl/mxv
	BYTE	W01
	BYTE		MOD     5
	BYTE	W02
	BYTE		VOL     80*FE11FootstepsofFateSme_mvl/mxv
	BYTE	W01
	BYTE		MOD     6
	BYTE	W02
	BYTE		VOL     79*FE11FootstepsofFateSme_mvl/mxv
	BYTE	W01
	BYTE		MOD     8
	BYTE	W02
	BYTE		VOL     77*FE11FootstepsofFateSme_mvl/mxv
	BYTE	W01
	BYTE		MOD     9
	BYTE	W02
	BYTE		VOL     76*FE11FootstepsofFateSme_mvl/mxv
	BYTE	W01
// 014   ----------------------------------------
	BYTE		MOD     10
	BYTE	W02
	BYTE		VOL     74*FE11FootstepsofFateSme_mvl/mxv
	BYTE	W01
	BYTE		        74*FE11FootstepsofFateSme_mvl/mxv
	BYTE		MOD     12
	BYTE	W03
	BYTE		VOL     74*FE11FootstepsofFateSme_mvl/mxv
	BYTE		MOD     14
	BYTE	W01
	BYTE		        8
	BYTE	W01
	BYTE		        0
	BYTE	W01
	BYTE		VOL     75*FE11FootstepsofFateSme_mvl/mxv
	BYTE	W03
	BYTE		        76*FE11FootstepsofFateSme_mvl/mxv
	BYTE		N04     Gs3   v112
	BYTE	W03
	BYTE		VOL     77*FE11FootstepsofFateSme_mvl/mxv
	BYTE	W03
	BYTE		        79*FE11FootstepsofFateSme_mvl/mxv
	BYTE		N03     An3   v116
	BYTE	W03
	BYTE		VOL     80*FE11FootstepsofFateSme_mvl/mxv
	BYTE	W03
	BYTE		        82*FE11FootstepsofFateSme_mvl/mxv
	BYTE		N04     Bn3   v120
	BYTE	W03
	BYTE		VOL     83*FE11FootstepsofFateSme_mvl/mxv
	BYTE	W03
	BYTE		        85*FE11FootstepsofFateSme_mvl/mxv
	BYTE		N04     Cs4   v108
	BYTE	W03
	BYTE		VOL     88*FE11FootstepsofFateSme_mvl/mxv
	BYTE	W02
	BYTE		MOD     0
	BYTE	W01
	BYTE		VOL     91*FE11FootstepsofFateSme_mvl/mxv
	BYTE		N64     Dn4   v112
	BYTE	W01
	BYTE		MOD     2
	BYTE	W01
	BYTE		VOL     94*FE11FootstepsofFateSme_mvl/mxv
	BYTE		MOD     4
	BYTE	W01
	BYTE		VOL     91*FE11FootstepsofFateSme_mvl/mxv
	BYTE	W01
	BYTE		MOD     6
	BYTE	W01
	BYTE		VOL     89*FE11FootstepsofFateSme_mvl/mxv
	BYTE		MOD     8
	BYTE	W01
	BYTE		VOL     86*FE11FootstepsofFateSme_mvl/mxv
	BYTE	W01
	BYTE		MOD     10
	BYTE	W01
	BYTE		VOL     84*FE11FootstepsofFateSme_mvl/mxv
	BYTE		MOD     12
	BYTE	W01
	BYTE		VOL     81*FE11FootstepsofFateSme_mvl/mxv
	BYTE	W02
	BYTE		        79*FE11FootstepsofFateSme_mvl/mxv
	BYTE	W01
	BYTE		        76*FE11FootstepsofFateSme_mvl/mxv
	BYTE	W02
	BYTE		        74*FE11FootstepsofFateSme_mvl/mxv
	BYTE	W01
	BYTE		        71*FE11FootstepsofFateSme_mvl/mxv
	BYTE	W06
	BYTE		        71*FE11FootstepsofFateSme_mvl/mxv
	BYTE	W03
	BYTE		        72*FE11FootstepsofFateSme_mvl/mxv
	BYTE	W03
	BYTE		        73*FE11FootstepsofFateSme_mvl/mxv
	BYTE	W03
	BYTE		        74*FE11FootstepsofFateSme_mvl/mxv
	BYTE	W03
	BYTE		        75*FE11FootstepsofFateSme_mvl/mxv
	BYTE	W03
	BYTE		        76*FE11FootstepsofFateSme_mvl/mxv
	BYTE	W03
	BYTE		        77*FE11FootstepsofFateSme_mvl/mxv
	BYTE	W03
	BYTE		        78*FE11FootstepsofFateSme_mvl/mxv
	BYTE	W03
	BYTE		        79*FE11FootstepsofFateSme_mvl/mxv
	BYTE	W03
	BYTE		        80*FE11FootstepsofFateSme_mvl/mxv
	BYTE	W03
	BYTE		        82*FE11FootstepsofFateSme_mvl/mxv
	BYTE	W03
	BYTE		        83*FE11FootstepsofFateSme_mvl/mxv
	BYTE	W03
	BYTE		        85*FE11FootstepsofFateSme_mvl/mxv
	BYTE	W03
// 015   ----------------------------------------
	BYTE		        87*FE11FootstepsofFateSme_mvl/mxv
	BYTE	W03
	BYTE		MOD     8
	BYTE		VOL     89*FE11FootstepsofFateSme_mvl/mxv
	BYTE	W01
	BYTE		MOD     4
	BYTE	W01
	BYTE		        0
	BYTE	W01
	BYTE		VOL     91*FE11FootstepsofFateSme_mvl/mxv
	BYTE		N01     Bn3   v120
	BYTE	W02
	BYTE		        Cs4 
	BYTE	W01
	BYTE		VOL     94*FE11FootstepsofFateSme_mvl/mxv
	BYTE	W01
	BYTE		N01     Dn4 
	BYTE	W02
	BYTE		N04     En4   v116
	BYTE	W06
	BYTE		        Fs4   v108
	BYTE	W06
	BYTE		        En4 
	BYTE	W03
	BYTE		MOD     0
	BYTE	W03
	BYTE		        1
	BYTE		N04     Bn3 
	BYTE	W03
	BYTE		MOD     2
	BYTE	W03
	BYTE		        4
	BYTE		N68     Gs3 
	BYTE	W03
	BYTE		MOD     4
	BYTE	W03
	BYTE		        6
	BYTE	W03
	BYTE		        7
	BYTE	W03
	BYTE		        8
	BYTE	W03
	BYTE		        10
	BYTE	W03
	BYTE		        10
	BYTE	W03
	BYTE		        12
	BYTE		VOL     94*FE11FootstepsofFateSme_mvl/mxv
	BYTE	W03
	BYTE		MOD     13
	BYTE		VOL     93*FE11FootstepsofFateSme_mvl/mxv
	BYTE		MOD     14
	BYTE	W01
	BYTE		VOL     92*FE11FootstepsofFateSme_mvl/mxv
	BYTE	W02
	BYTE		        91*FE11FootstepsofFateSme_mvl/mxv
	BYTE	W01
	BYTE		        91*FE11FootstepsofFateSme_mvl/mxv
	BYTE	W02
	BYTE		        90*FE11FootstepsofFateSme_mvl/mxv
	BYTE	W01
	BYTE		        89*FE11FootstepsofFateSme_mvl/mxv
	BYTE	W02
	BYTE		        88*FE11FootstepsofFateSme_mvl/mxv
	BYTE	W01
	BYTE		        88*FE11FootstepsofFateSme_mvl/mxv
	BYTE	W02
	BYTE		        87*FE11FootstepsofFateSme_mvl/mxv
	BYTE	W01
	BYTE		        86*FE11FootstepsofFateSme_mvl/mxv
	BYTE	W02
	BYTE		        85*FE11FootstepsofFateSme_mvl/mxv
	BYTE	W01
	BYTE		        85*FE11FootstepsofFateSme_mvl/mxv
	BYTE	W02
	BYTE		        83*FE11FootstepsofFateSme_mvl/mxv
	BYTE	W01
	BYTE		        82*FE11FootstepsofFateSme_mvl/mxv
	BYTE	W02
	BYTE		        82*FE11FootstepsofFateSme_mvl/mxv
	BYTE	W01
	BYTE		        80*FE11FootstepsofFateSme_mvl/mxv
	BYTE	W02
	BYTE		        79*FE11FootstepsofFateSme_mvl/mxv
	BYTE	W01
	BYTE		        78*FE11FootstepsofFateSme_mvl/mxv
	BYTE	W02
	BYTE		        76*FE11FootstepsofFateSme_mvl/mxv
	BYTE	W01
	BYTE		        76*FE11FootstepsofFateSme_mvl/mxv
	BYTE	W02
	BYTE		        74*FE11FootstepsofFateSme_mvl/mxv
	BYTE	W01
	BYTE		        73*FE11FootstepsofFateSme_mvl/mxv
	BYTE	W02
	BYTE		        71*FE11FootstepsofFateSme_mvl/mxv
	BYTE	W01
	BYTE		        70*FE11FootstepsofFateSme_mvl/mxv
	BYTE	W02
// 016   ----------------------------------------
	BYTE		        68*FE11FootstepsofFateSme_mvl/mxv
	BYTE	W01
	BYTE		        67*FE11FootstepsofFateSme_mvl/mxv
	BYTE	W02
	BYTE		        65*FE11FootstepsofFateSme_mvl/mxv
	BYTE	W01
	BYTE		        63*FE11FootstepsofFateSme_mvl/mxv
	BYTE	W02
	BYTE		        61*FE11FootstepsofFateSme_mvl/mxv
	BYTE	W01
	BYTE		MOD     14
	BYTE		VOL     59*FE11FootstepsofFateSme_mvl/mxv
	BYTE	W01
	BYTE		MOD     10
	BYTE	W01
	BYTE		        6
	BYTE		VOL     56*FE11FootstepsofFateSme_mvl/mxv
	BYTE	W01
	BYTE		MOD     0
	BYTE		VOL     55*FE11FootstepsofFateSme_mvl/mxv
	BYTE	W01
	BYTE		        56*FE11FootstepsofFateSme_mvl/mxv
	BYTE	W01
	BYTE		N05     Fs3   v112
	BYTE	W01
	BYTE		VOL     56*FE11FootstepsofFateSme_mvl/mxv
	BYTE	W01
	BYTE		        58*FE11FootstepsofFateSme_mvl/mxv
	BYTE	W02
	BYTE		        59*FE11FootstepsofFateSme_mvl/mxv
	BYTE	W01
	BYTE		        61*FE11FootstepsofFateSme_mvl/mxv
	BYTE	W01
	BYTE		N05     Gs3   v108
	BYTE	W01
	BYTE		VOL     63*FE11FootstepsofFateSme_mvl/mxv
	BYTE	W01
	BYTE		        65*FE11FootstepsofFateSme_mvl/mxv
	BYTE	W02
	BYTE		        68*FE11FootstepsofFateSme_mvl/mxv
	BYTE	W01
	BYTE		        70*FE11FootstepsofFateSme_mvl/mxv
	BYTE	W01
	BYTE		MOD     0
	BYTE		N88     An3   v100
	BYTE	W01
	BYTE		VOL     73*FE11FootstepsofFateSme_mvl/mxv
	BYTE	W01
	BYTE		MOD     2
	BYTE		VOL     76*FE11FootstepsofFateSme_mvl/mxv
	BYTE	W01
	BYTE		MOD     4
	BYTE	W01
	BYTE		VOL     81*FE11FootstepsofFateSme_mvl/mxv
	BYTE	W01
	BYTE		MOD     6
	BYTE		VOL     86*FE11FootstepsofFateSme_mvl/mxv
	BYTE	W01
	BYTE		        91*FE11FootstepsofFateSme_mvl/mxv
	BYTE		MOD     8
	BYTE	W02
	BYTE		        10
	BYTE	W01
	BYTE		        12
	BYTE	W02
	BYTE		        14
	BYTE	W01
	BYTE		        14
	BYTE		VOL     90*FE11FootstepsofFateSme_mvl/mxv
	BYTE	W06
	BYTE		        89*FE11FootstepsofFateSme_mvl/mxv
	BYTE	W03
	BYTE		        88*FE11FootstepsofFateSme_mvl/mxv
	BYTE	W03
	BYTE		        88*FE11FootstepsofFateSme_mvl/mxv
	BYTE	W06
	BYTE		        87*FE11FootstepsofFateSme_mvl/mxv
	BYTE	W03
	BYTE		        86*FE11FootstepsofFateSme_mvl/mxv
	BYTE	W03
	BYTE		        85*FE11FootstepsofFateSme_mvl/mxv
	BYTE	W03
	BYTE		        85*FE11FootstepsofFateSme_mvl/mxv
	BYTE	W03
	BYTE		        84*FE11FootstepsofFateSme_mvl/mxv
	BYTE	W03
	BYTE		        83*FE11FootstepsofFateSme_mvl/mxv
	BYTE	W03
	BYTE		        82*FE11FootstepsofFateSme_mvl/mxv
	BYTE	W03
	BYTE		        82*FE11FootstepsofFateSme_mvl/mxv
	BYTE	W03
	BYTE		        81*FE11FootstepsofFateSme_mvl/mxv
	BYTE	W03
	BYTE		        79*FE11FootstepsofFateSme_mvl/mxv
	BYTE	W03
	BYTE		        79*FE11FootstepsofFateSme_mvl/mxv
	BYTE	W03
	BYTE		        78*FE11FootstepsofFateSme_mvl/mxv
	BYTE	W03
	BYTE		        76*FE11FootstepsofFateSme_mvl/mxv
	BYTE	W03
	BYTE		        75*FE11FootstepsofFateSme_mvl/mxv
	BYTE	W03
// 017   ----------------------------------------
	BYTE		        74*FE11FootstepsofFateSme_mvl/mxv
	BYTE	W03
	BYTE		        73*FE11FootstepsofFateSme_mvl/mxv
	BYTE	W03
	BYTE		        71*FE11FootstepsofFateSme_mvl/mxv
	BYTE	W03
	BYTE		        70*FE11FootstepsofFateSme_mvl/mxv
	BYTE	W03
	BYTE		        68*FE11FootstepsofFateSme_mvl/mxv
	BYTE	W03
	BYTE		        66*FE11FootstepsofFateSme_mvl/mxv
	BYTE	W01
	BYTE		MOD     6
	BYTE	W01
	BYTE		        0
	BYTE	W01
	BYTE		VOL     65*FE11FootstepsofFateSme_mvl/mxv
	BYTE		N02     Gs3 
	BYTE	W03
	BYTE		VOL     62*FE11FootstepsofFateSme_mvl/mxv
	BYTE		N02     An3 
	BYTE	W01
	BYTE		VOL     62*FE11FootstepsofFateSme_mvl/mxv
	BYTE	W02
	BYTE		N76     Gs3 
	BYTE	W03
	BYTE		MOD     0
	BYTE	W01
	BYTE		VOL     62*FE11FootstepsofFateSme_mvl/mxv
	BYTE		MOD     1
	BYTE	W02
	BYTE		        2
	BYTE	W01
	BYTE		VOL     63*FE11FootstepsofFateSme_mvl/mxv
	BYTE		MOD     4
	BYTE	W02
	BYTE		        5
	BYTE	W01
	BYTE		VOL     64*FE11FootstepsofFateSme_mvl/mxv
	BYTE		MOD     6
	BYTE	W02
	BYTE		        8
	BYTE	W01
	BYTE		VOL     65*FE11FootstepsofFateSme_mvl/mxv
	BYTE		MOD     8
	BYTE	W02
	BYTE		        10
	BYTE	W01
	BYTE		VOL     65*FE11FootstepsofFateSme_mvl/mxv
	BYTE		MOD     11
	BYTE	W02
	BYTE		        12
	BYTE	W01
	BYTE		VOL     66*FE11FootstepsofFateSme_mvl/mxv
	BYTE		MOD     14
	BYTE	W03
	BYTE		VOL     67*FE11FootstepsofFateSme_mvl/mxv
	BYTE	W03
	BYTE		        68*FE11FootstepsofFateSme_mvl/mxv
	BYTE	W03
	BYTE		        68*FE11FootstepsofFateSme_mvl/mxv
	BYTE	W03
	BYTE		        69*FE11FootstepsofFateSme_mvl/mxv
	BYTE	W03
	BYTE		        70*FE11FootstepsofFateSme_mvl/mxv
	BYTE	W03
	BYTE		        71*FE11FootstepsofFateSme_mvl/mxv
	BYTE	W03
	BYTE		        71*FE11FootstepsofFateSme_mvl/mxv
	BYTE	W03
	BYTE		        73*FE11FootstepsofFateSme_mvl/mxv
	BYTE	W03
	BYTE		        74*FE11FootstepsofFateSme_mvl/mxv
	BYTE	W03
	BYTE		        74*FE11FootstepsofFateSme_mvl/mxv
	BYTE	W03
	BYTE		        76*FE11FootstepsofFateSme_mvl/mxv
	BYTE	W03
	BYTE		        76*FE11FootstepsofFateSme_mvl/mxv
	BYTE	W03
	BYTE		        78*FE11FootstepsofFateSme_mvl/mxv
	BYTE	W03
	BYTE		        79*FE11FootstepsofFateSme_mvl/mxv
	BYTE	W03
	BYTE		        80*FE11FootstepsofFateSme_mvl/mxv
	BYTE	W03
	BYTE		        82*FE11FootstepsofFateSme_mvl/mxv
	BYTE	W03
	BYTE		        83*FE11FootstepsofFateSme_mvl/mxv
	BYTE	W02
// 018   ----------------------------------------
	BYTE	W01
	BYTE		        85*FE11FootstepsofFateSme_mvl/mxv
	BYTE	W03
	BYTE		        86*FE11FootstepsofFateSme_mvl/mxv
	BYTE	W03
	BYTE		        88*FE11FootstepsofFateSme_mvl/mxv
	BYTE	W01
	BYTE		MOD     14
	BYTE	W01
	BYTE		        9
	BYTE	W01
	BYTE		VOL     89*FE11FootstepsofFateSme_mvl/mxv
	BYTE		MOD     6
	BYTE	W01
	BYTE		        4
	BYTE	W01
	BYTE		        0
	BYTE	W01
	BYTE		VOL     91*FE11FootstepsofFateSme_mvl/mxv
	BYTE	W03
	BYTE		        94*FE11FootstepsofFateSme_mvl/mxv
	BYTE	W80
// 019   ----------------------------------------
	BYTE	W24
	BYTE		        110*FE11FootstepsofFateSme_mvl/mxv
	BYTE		PAN     c_v-10
	BYTE		VOL     83*FE11FootstepsofFateSme_mvl/mxv
	BYTE	W72
// 020   ----------------------------------------
	BYTE		N05     Gs4 
	BYTE	W01
	BYTE		VOL     83*FE11FootstepsofFateSme_mvl/mxv
	BYTE	W01
	BYTE		        84*FE11FootstepsofFateSme_mvl/mxv
	BYTE	W02
	BYTE		        84*FE11FootstepsofFateSme_mvl/mxv
	BYTE	W01
	BYTE		        85*FE11FootstepsofFateSme_mvl/mxv
	BYTE	W01
	BYTE		N05     As4   v104
	BYTE	W01
	BYTE		VOL     86*FE11FootstepsofFateSme_mvl/mxv
	BYTE	W01
	BYTE		        87*FE11FootstepsofFateSme_mvl/mxv
	BYTE	W02
	BYTE		        88*FE11FootstepsofFateSme_mvl/mxv
	BYTE	W01
	BYTE		        90*FE11FootstepsofFateSme_mvl/mxv
	BYTE	W01
	BYTE		N05     Cn5   v076
	BYTE	W01
	BYTE		VOL     90*FE11FootstepsofFateSme_mvl/mxv
	BYTE	W01
	BYTE		        92*FE11FootstepsofFateSme_mvl/mxv
	BYTE	W02
	BYTE		        93*FE11FootstepsofFateSme_mvl/mxv
	BYTE	W01
	BYTE		        95*FE11FootstepsofFateSme_mvl/mxv
	BYTE	W01
	BYTE		N05     Dn5   v084
	BYTE	W01
	BYTE		VOL     96*FE11FootstepsofFateSme_mvl/mxv
	BYTE	W01
	BYTE		        97*FE11FootstepsofFateSme_mvl/mxv
	BYTE	W02
	BYTE		        99*FE11FootstepsofFateSme_mvl/mxv
	BYTE	W01
	BYTE		        101*FE11FootstepsofFateSme_mvl/mxv
	BYTE	W01
	BYTE		N44     En5   v092
	BYTE	W01
	BYTE		VOL     103*FE11FootstepsofFateSme_mvl/mxv
	BYTE	W01
	BYTE		        104*FE11FootstepsofFateSme_mvl/mxv
	BYTE	W02
	BYTE		        107*FE11FootstepsofFateSme_mvl/mxv
	BYTE	W01
	BYTE		        109*FE11FootstepsofFateSme_mvl/mxv
	BYTE	W01
	BYTE		        110*FE11FootstepsofFateSme_mvl/mxv
	BYTE	W10
	BYTE		        109*FE11FootstepsofFateSme_mvl/mxv
	BYTE	W10
	BYTE		        108*FE11FootstepsofFateSme_mvl/mxv
	BYTE	W10
	BYTE		        107*FE11FootstepsofFateSme_mvl/mxv
	BYTE	W10
	BYTE		        106*FE11FootstepsofFateSme_mvl/mxv
	BYTE	W02
	BYTE		N32     Bn4   v072
	BYTE	W03
	BYTE		VOL     105*FE11FootstepsofFateSme_mvl/mxv
	BYTE	W11
	BYTE		        104*FE11FootstepsofFateSme_mvl/mxv
	BYTE	W05
	BYTE		        103*FE11FootstepsofFateSme_mvl/mxv
	BYTE	W05
// 021   ----------------------------------------
	BYTE	W05
	BYTE		        103*FE11FootstepsofFateSme_mvl/mxv
	BYTE	W05
	BYTE		        102*FE11FootstepsofFateSme_mvl/mxv
	BYTE	W02
	BYTE		N05     An4   v064
	BYTE	W03
	BYTE		VOL     101*FE11FootstepsofFateSme_mvl/mxv
	BYTE	W03
	BYTE		N05     Gn4   v052
	BYTE	W02
	BYTE		VOL     100*FE11FootstepsofFateSme_mvl/mxv
	BYTE	W04
	BYTE		N44     Fs4   v084
	BYTE	W01
	BYTE		VOL     99*FE11FootstepsofFateSme_mvl/mxv
	BYTE	W05
	BYTE		        98*FE11FootstepsofFateSme_mvl/mxv
	BYTE	W11
	BYTE		        97*FE11FootstepsofFateSme_mvl/mxv
	BYTE	W05
	BYTE		        96*FE11FootstepsofFateSme_mvl/mxv
	BYTE	W05
	BYTE		        95*FE11FootstepsofFateSme_mvl/mxv
	BYTE	W05
	BYTE		        94*FE11FootstepsofFateSme_mvl/mxv
	BYTE	W05
	BYTE		        93*FE11FootstepsofFateSme_mvl/mxv
	BYTE	W05
	BYTE		        92*FE11FootstepsofFateSme_mvl/mxv
	BYTE	W05
	BYTE		        91*FE11FootstepsofFateSme_mvl/mxv
	BYTE	W01
	BYTE		N44     En4   v076
	BYTE	W04
	BYTE		VOL     90*FE11FootstepsofFateSme_mvl/mxv
	BYTE	W05
	BYTE		        89*FE11FootstepsofFateSme_mvl/mxv
	BYTE	W06
	BYTE		        87*FE11FootstepsofFateSme_mvl/mxv
	BYTE	W05
	BYTE		        86*FE11FootstepsofFateSme_mvl/mxv
	BYTE	W04
// 022   ----------------------------------------
	BYTE	W01
	BYTE		        84*FE11FootstepsofFateSme_mvl/mxv
	BYTE	W05
	BYTE		        83*FE11FootstepsofFateSme_mvl/mxv
	BYTE	W05
	BYTE		        82*FE11FootstepsofFateSme_mvl/mxv
	BYTE	W05
	BYTE		        79*FE11FootstepsofFateSme_mvl/mxv
	BYTE	W03
	BYTE		        80*FE11FootstepsofFateSme_mvl/mxv
	BYTE	W03
	BYTE		        81*FE11FootstepsofFateSme_mvl/mxv
	BYTE	W02
	BYTE		N92     Fs4 
	BYTE	W01
	BYTE		VOL     82*FE11FootstepsofFateSme_mvl/mxv
	BYTE	W03
	BYTE		        83*FE11FootstepsofFateSme_mvl/mxv
	BYTE	W03
	BYTE		        84*FE11FootstepsofFateSme_mvl/mxv
	BYTE	W03
	BYTE		        85*FE11FootstepsofFateSme_mvl/mxv
	BYTE	W03
	BYTE		        87*FE11FootstepsofFateSme_mvl/mxv
	BYTE	W03
	BYTE		        89*FE11FootstepsofFateSme_mvl/mxv
	BYTE	W03
	BYTE		        90*FE11FootstepsofFateSme_mvl/mxv
	BYTE	W03
	BYTE		        92*FE11FootstepsofFateSme_mvl/mxv
	BYTE	W03
	BYTE		        94*FE11FootstepsofFateSme_mvl/mxv
	BYTE	W03
	BYTE		        97*FE11FootstepsofFateSme_mvl/mxv
	BYTE	W03
	BYTE		        98*FE11FootstepsofFateSme_mvl/mxv
	BYTE	W03
	BYTE		        102*FE11FootstepsofFateSme_mvl/mxv
	BYTE	W03
	BYTE		        104*FE11FootstepsofFateSme_mvl/mxv
	BYTE	W03
	BYTE		        108*FE11FootstepsofFateSme_mvl/mxv
	BYTE	W02
	BYTE		        110*FE11FootstepsofFateSme_mvl/mxv
	BYTE	W03
	BYTE		        109*FE11FootstepsofFateSme_mvl/mxv
	BYTE	W03
	BYTE		        108*FE11FootstepsofFateSme_mvl/mxv
	BYTE	W03
	BYTE		        107*FE11FootstepsofFateSme_mvl/mxv
	BYTE	W03
	BYTE		        106*FE11FootstepsofFateSme_mvl/mxv
	BYTE	W03
	BYTE		        105*FE11FootstepsofFateSme_mvl/mxv
	BYTE	W03
	BYTE		        104*FE11FootstepsofFateSme_mvl/mxv
	BYTE	W03
	BYTE		        103*FE11FootstepsofFateSme_mvl/mxv
	BYTE	W03
	BYTE		        102*FE11FootstepsofFateSme_mvl/mxv
	BYTE	W03
	BYTE		        100*FE11FootstepsofFateSme_mvl/mxv
	BYTE	W03
// 023   ----------------------------------------
	BYTE		        99*FE11FootstepsofFateSme_mvl/mxv
	BYTE	W03
	BYTE		        97*FE11FootstepsofFateSme_mvl/mxv
	BYTE	W03
	BYTE		        97*FE11FootstepsofFateSme_mvl/mxv
	BYTE	W03
	BYTE		        95*FE11FootstepsofFateSme_mvl/mxv
	BYTE	W03
	BYTE		        93*FE11FootstepsofFateSme_mvl/mxv
	BYTE	W03
	BYTE		        91*FE11FootstepsofFateSme_mvl/mxv
	BYTE	W03
	BYTE		        90*FE11FootstepsofFateSme_mvl/mxv
	BYTE	W03
	BYTE		        88*FE11FootstepsofFateSme_mvl/mxv
	BYTE	W03
	BYTE		        85*FE11FootstepsofFateSme_mvl/mxv
	BYTE	W03
	BYTE		        84*FE11FootstepsofFateSme_mvl/mxv
	BYTE	W03
	BYTE		        81*FE11FootstepsofFateSme_mvl/mxv
	BYTE	W03
	BYTE		        79*FE11FootstepsofFateSme_mvl/mxv
	BYTE	W03
	BYTE		        77*FE11FootstepsofFateSme_mvl/mxv
	BYTE	W03
	BYTE		        74*FE11FootstepsofFateSme_mvl/mxv
	BYTE	W03
	BYTE		        71*FE11FootstepsofFateSme_mvl/mxv
	BYTE	W03
	BYTE		        68*FE11FootstepsofFateSme_mvl/mxv
	BYTE	W03
	BYTE		        64*FE11FootstepsofFateSme_mvl/mxv
	BYTE	W03
	BYTE		        61*FE11FootstepsofFateSme_mvl/mxv
	BYTE	W03
	BYTE		        57*FE11FootstepsofFateSme_mvl/mxv
	BYTE	W02
	BYTE		        53*FE11FootstepsofFateSme_mvl/mxv
	BYTE	W40
// 024   ----------------------------------------
	BYTE	W96
// 025   ----------------------------------------
	BYTE	W96
// 026   ----------------------------------------
	BYTE	W96
// 027   ----------------------------------------
	BYTE	W07
	BYTE		        58*FE11FootstepsofFateSme_mvl/mxv
	BYTE	W01
	BYTE		        64*FE11FootstepsofFateSme_mvl/mxv
	BYTE	W01
	BYTE		        69*FE11FootstepsofFateSme_mvl/mxv
	BYTE	W01
	BYTE		        79*FE11FootstepsofFateSme_mvl/mxv
	BYTE	W01
	BYTE		        84*FE11FootstepsofFateSme_mvl/mxv
	BYTE	W01
	BYTE		        87*FE11FootstepsofFateSme_mvl/mxv
	BYTE	W07
	BYTE		        88*FE11FootstepsofFateSme_mvl/mxv
	BYTE	W05
	BYTE		N05     En4 
	BYTE	W03
	BYTE		VOL     89*FE11FootstepsofFateSme_mvl/mxv
	BYTE	W03
	BYTE		N05     Fs4   v060
	BYTE	W01
	BYTE		VOL     90*FE11FootstepsofFateSme_mvl/mxv
	BYTE	W05
	BYTE		N05     Gn4   v064
	BYTE	W03
	BYTE		VOL     90*FE11FootstepsofFateSme_mvl/mxv
	BYTE	W03
	BYTE		N05     Fs4 
	BYTE	W01
	BYTE		VOL     91*FE11FootstepsofFateSme_mvl/mxv
	BYTE	W05
	BYTE		N05     En4   v080
	BYTE	W02
	BYTE		VOL     92*FE11FootstepsofFateSme_mvl/mxv
	BYTE	W04
	BYTE		        93*FE11FootstepsofFateSme_mvl/mxv
	BYTE		N05     Fs4   v068
	BYTE	W04
	BYTE		VOL     94*FE11FootstepsofFateSme_mvl/mxv
	BYTE	W02
	BYTE		N05     Gn4   v076
	BYTE	W02
	BYTE		VOL     95*FE11FootstepsofFateSme_mvl/mxv
	BYTE	W04
	BYTE		        96*FE11FootstepsofFateSme_mvl/mxv
	BYTE		N05     Fs4   v068
	BYTE	W04
	BYTE		VOL     97*FE11FootstepsofFateSme_mvl/mxv
	BYTE	W02
	BYTE		N05     En4   v072
	BYTE	W02
	BYTE		VOL     97*FE11FootstepsofFateSme_mvl/mxv
	BYTE	W03
	BYTE		        98*FE11FootstepsofFateSme_mvl/mxv
	BYTE	W01
	BYTE		N05     Fs4   v060
	BYTE	W03
	BYTE		VOL     99*FE11FootstepsofFateSme_mvl/mxv
	BYTE	W03
	BYTE		N05     Gn4   v056
	BYTE	W01
	BYTE		VOL     100*FE11FootstepsofFateSme_mvl/mxv
	BYTE	W04
	BYTE		        101*FE11FootstepsofFateSme_mvl/mxv
	BYTE	W01
	BYTE		N05     Fs4   v040
	BYTE	W03
	BYTE		VOL     103*FE11FootstepsofFateSme_mvl/mxv
	BYTE	W03
// 028   ----------------------------------------
	BYTE		N05     Fs4   v072
	BYTE	W01
	BYTE		VOL     103*FE11FootstepsofFateSme_mvl/mxv
	BYTE	W04
	BYTE		        105*FE11FootstepsofFateSme_mvl/mxv
	BYTE	W01
	BYTE		N05     Bn4 
	BYTE	W03
	BYTE		VOL     106*FE11FootstepsofFateSme_mvl/mxv
	BYTE	W03
	BYTE		        108*FE11FootstepsofFateSme_mvl/mxv
	BYTE		N05     En5   v052
	BYTE	W04
	BYTE		VOL     110*FE11FootstepsofFateSme_mvl/mxv
	BYTE	W02
	BYTE		N05     An5   v068
	BYTE	W06
	BYTE		N76     Gs5   v100
	BYTE	W03
	BYTE		VOL     97*FE11FootstepsofFateSme_mvl/mxv
	BYTE	W01
	BYTE		        84*FE11FootstepsofFateSme_mvl/mxv
	BYTE	W01
	BYTE		        72*FE11FootstepsofFateSme_mvl/mxv
	BYTE	W01
	BYTE		        47*FE11FootstepsofFateSme_mvl/mxv
	BYTE	W01
	BYTE		        29*FE11FootstepsofFateSme_mvl/mxv
	BYTE	W03
	BYTE		        30*FE11FootstepsofFateSme_mvl/mxv
	BYTE	W02
	BYTE		        31*FE11FootstepsofFateSme_mvl/mxv
	BYTE	W01
	BYTE		        32*FE11FootstepsofFateSme_mvl/mxv
	BYTE	W02
	BYTE		        32*FE11FootstepsofFateSme_mvl/mxv
	BYTE	W01
	BYTE		        33*FE11FootstepsofFateSme_mvl/mxv
	BYTE	W02
	BYTE		        35*FE11FootstepsofFateSme_mvl/mxv
	BYTE	W01
	BYTE		        36*FE11FootstepsofFateSme_mvl/mxv
	BYTE	W02
	BYTE		        37*FE11FootstepsofFateSme_mvl/mxv
	BYTE	W01
	BYTE		        38*FE11FootstepsofFateSme_mvl/mxv
	BYTE	W02
	BYTE		        39*FE11FootstepsofFateSme_mvl/mxv
	BYTE	W01
	BYTE		        40*FE11FootstepsofFateSme_mvl/mxv
	BYTE	W02
	BYTE		        41*FE11FootstepsofFateSme_mvl/mxv
	BYTE	W01
	BYTE		        43*FE11FootstepsofFateSme_mvl/mxv
	BYTE	W02
	BYTE		        45*FE11FootstepsofFateSme_mvl/mxv
	BYTE	W01
	BYTE		        45*FE11FootstepsofFateSme_mvl/mxv
	BYTE	W02
	BYTE		        47*FE11FootstepsofFateSme_mvl/mxv
	BYTE	W01
	BYTE		        49*FE11FootstepsofFateSme_mvl/mxv
	BYTE	W02
	BYTE		        51*FE11FootstepsofFateSme_mvl/mxv
	BYTE	W01
	BYTE		        52*FE11FootstepsofFateSme_mvl/mxv
	BYTE	W02
	BYTE		        55*FE11FootstepsofFateSme_mvl/mxv
	BYTE	W01
	BYTE		        57*FE11FootstepsofFateSme_mvl/mxv
	BYTE	W02
	BYTE		        59*FE11FootstepsofFateSme_mvl/mxv
	BYTE	W01
	BYTE		        61*FE11FootstepsofFateSme_mvl/mxv
	BYTE	W02
	BYTE		        64*FE11FootstepsofFateSme_mvl/mxv
	BYTE	W01
	BYTE		        67*FE11FootstepsofFateSme_mvl/mxv
	BYTE	W02
	BYTE		        70*FE11FootstepsofFateSme_mvl/mxv
	BYTE	W01
	BYTE		        73*FE11FootstepsofFateSme_mvl/mxv
	BYTE	W02
	BYTE		        77*FE11FootstepsofFateSme_mvl/mxv
	BYTE	W01
	BYTE		        80*FE11FootstepsofFateSme_mvl/mxv
	BYTE	W02
	BYTE		        84*FE11FootstepsofFateSme_mvl/mxv
	BYTE	W01
	BYTE		        89*FE11FootstepsofFateSme_mvl/mxv
	BYTE	W02
	BYTE		        94*FE11FootstepsofFateSme_mvl/mxv
	BYTE	W01
	BYTE		        99*FE11FootstepsofFateSme_mvl/mxv
	BYTE	W02
	BYTE		        105*FE11FootstepsofFateSme_mvl/mxv
	BYTE	W01
	BYTE		        110*FE11FootstepsofFateSme_mvl/mxv
	BYTE	W11
// 029   ----------------------------------------
	BYTE	W06
	BYTE		N05     Gs5   v064
	BYTE	W06
	BYTE		N03     Bn4   v100
	BYTE	W04
	BYTE		        Cs5   v088
	BYTE	W04
	BYTE		        Dn5 
	BYTE	W04
	BYTE		VOL     110*FE11FootstepsofFateSme_mvl/mxv
	BYTE		N88     Cs5   v076
	BYTE	W72
// 030   ----------------------------------------
	BYTE	W01
	BYTE		VOL     110*FE11FootstepsofFateSme_mvl/mxv
	BYTE	W06
	BYTE		        109*FE11FootstepsofFateSme_mvl/mxv
	BYTE	W06
	BYTE		        108*FE11FootstepsofFateSme_mvl/mxv
	BYTE	W06
	BYTE		        107*FE11FootstepsofFateSme_mvl/mxv
	BYTE	W03
	BYTE		        106*FE11FootstepsofFateSme_mvl/mxv
	BYTE	W02
	BYTE		N78     Cs4   v088
	BYTE	W01
	BYTE		VOL     105*FE11FootstepsofFateSme_mvl/mxv
	BYTE	W06
	BYTE		        104*FE11FootstepsofFateSme_mvl/mxv
	BYTE	W03
	BYTE		        103*FE11FootstepsofFateSme_mvl/mxv
	BYTE	W03
	BYTE		        103*FE11FootstepsofFateSme_mvl/mxv
	BYTE	W03
	BYTE		        102*FE11FootstepsofFateSme_mvl/mxv
	BYTE	W03
	BYTE		        101*FE11FootstepsofFateSme_mvl/mxv
	BYTE	W03
	BYTE		        100*FE11FootstepsofFateSme_mvl/mxv
	BYTE	W03
	BYTE		        99*FE11FootstepsofFateSme_mvl/mxv
	BYTE	W03
	BYTE		        98*FE11FootstepsofFateSme_mvl/mxv
	BYTE	W03
	BYTE		        97*FE11FootstepsofFateSme_mvl/mxv
	BYTE	W03
	BYTE		        96*FE11FootstepsofFateSme_mvl/mxv
	BYTE	W03
	BYTE		        95*FE11FootstepsofFateSme_mvl/mxv
	BYTE	W03
	BYTE		        93*FE11FootstepsofFateSme_mvl/mxv
	BYTE	W03
	BYTE		        92*FE11FootstepsofFateSme_mvl/mxv
	BYTE	W03
	BYTE		        90*FE11FootstepsofFateSme_mvl/mxv
	BYTE	W03
	BYTE		        89*FE11FootstepsofFateSme_mvl/mxv
	BYTE	W03
	BYTE		        87*FE11FootstepsofFateSme_mvl/mxv
	BYTE	W03
	BYTE		        85*FE11FootstepsofFateSme_mvl/mxv
	BYTE	W03
	BYTE		        83*FE11FootstepsofFateSme_mvl/mxv
	BYTE	W03
	BYTE		        81*FE11FootstepsofFateSme_mvl/mxv
	BYTE	W03
	BYTE		        78*FE11FootstepsofFateSme_mvl/mxv
	BYTE	W03
	BYTE		        76*FE11FootstepsofFateSme_mvl/mxv
	BYTE	W02
	BYTE		        73*FE11FootstepsofFateSme_mvl/mxv
	BYTE	W03
// 031   ----------------------------------------
	BYTE	W03
	BYTE		        74*FE11FootstepsofFateSme_mvl/mxv
	BYTE	W06
	BYTE		        75*FE11FootstepsofFateSme_mvl/mxv
	BYTE	W03
	BYTE		N05     Bn3   v092
	BYTE		N05     Dn4   v100
	BYTE	W03
	BYTE		VOL     76*FE11FootstepsofFateSme_mvl/mxv
	BYTE	W03
	BYTE		        77*FE11FootstepsofFateSme_mvl/mxv
	BYTE		N05     Cs4   v092
	BYTE		N05     En4   v104
	BYTE	W06
	BYTE		VOL     77*FE11FootstepsofFateSme_mvl/mxv
	BYTE		N05     Dn4   v088
	BYTE		N05     Fs4   v100
	BYTE	W03
	BYTE		VOL     78*FE11FootstepsofFateSme_mvl/mxv
	BYTE	W03
	BYTE		        79*FE11FootstepsofFateSme_mvl/mxv
	BYTE		N05     Cs4   v096
	BYTE		N05     En4   v104
	BYTE	W06
	BYTE		VOL     80*FE11FootstepsofFateSme_mvl/mxv
	BYTE		N32     Gs4   v092
	BYTE		N32     Bn4   v100
	BYTE	W03
	BYTE		VOL     81*FE11FootstepsofFateSme_mvl/mxv
	BYTE	W03
	BYTE		        82*FE11FootstepsofFateSme_mvl/mxv
	BYTE	W03
	BYTE		        83*FE11FootstepsofFateSme_mvl/mxv
	BYTE	W03
	BYTE		        84*FE11FootstepsofFateSme_mvl/mxv
	BYTE	W03
	BYTE		        84*FE11FootstepsofFateSme_mvl/mxv
	BYTE	W03
	BYTE		        85*FE11FootstepsofFateSme_mvl/mxv
	BYTE	W03
	BYTE		        86*FE11FootstepsofFateSme_mvl/mxv
	BYTE	W03
	BYTE		        87*FE11FootstepsofFateSme_mvl/mxv
	BYTE	W03
	BYTE		        89*FE11FootstepsofFateSme_mvl/mxv
	BYTE	W03
	BYTE		        90*FE11FootstepsofFateSme_mvl/mxv
	BYTE	W03
	BYTE		        90*FE11FootstepsofFateSme_mvl/mxv
	BYTE	W03
	BYTE		        92*FE11FootstepsofFateSme_mvl/mxv
	BYTE		N05     Gs4   v092
	BYTE		N05     Bn4   v100
	BYTE	W03
	BYTE		VOL     93*FE11FootstepsofFateSme_mvl/mxv
	BYTE	W03
	BYTE		        95*FE11FootstepsofFateSme_mvl/mxv
	BYTE		N05     Fs4   v088
	BYTE		N05     An4   v096
	BYTE	W03
	BYTE		VOL     96*FE11FootstepsofFateSme_mvl/mxv
	BYTE	W03
	BYTE		        97*FE11FootstepsofFateSme_mvl/mxv
	BYTE		N22     Cs5   v092
	BYTE		N22     En5   v100
	BYTE	W03
	BYTE		VOL     99*FE11FootstepsofFateSme_mvl/mxv
	BYTE	W03
	BYTE		        101*FE11FootstepsofFateSme_mvl/mxv
	BYTE	W03
	BYTE		        103*FE11FootstepsofFateSme_mvl/mxv
	BYTE	W03
// 032   ----------------------------------------
	BYTE		        104*FE11FootstepsofFateSme_mvl/mxv
	BYTE	W03
	BYTE		        106*FE11FootstepsofFateSme_mvl/mxv
	BYTE	W03
	BYTE		        109*FE11FootstepsofFateSme_mvl/mxv
	BYTE	W01
	BYTE		        110*FE11FootstepsofFateSme_mvl/mxv
	BYTE	W05
	BYTE		N03     Bn4   v088
	BYTE		N03     Dn5   v096
	BYTE	W04
	BYTE		        Cs5   v092
	BYTE		N03     En5   v100
	BYTE	W04
	BYTE		        Bn4   v088
	BYTE		N03     Dn5   v100
	BYTE	W04
	BYTE		N90     Cs5   v096
	BYTE	W08
	BYTE		VOL     110*FE11FootstepsofFateSme_mvl/mxv
	BYTE	W03
	BYTE		        109*FE11FootstepsofFateSme_mvl/mxv
	BYTE	W03
	BYTE		        108*FE11FootstepsofFateSme_mvl/mxv
	BYTE	W03
	BYTE		        107*FE11FootstepsofFateSme_mvl/mxv
	BYTE	W03
	BYTE		        106*FE11FootstepsofFateSme_mvl/mxv
	BYTE	W03
	BYTE		        105*FE11FootstepsofFateSme_mvl/mxv
	BYTE	W03
	BYTE		        103*FE11FootstepsofFateSme_mvl/mxv
	BYTE	W03
	BYTE		        103*FE11FootstepsofFateSme_mvl/mxv
	BYTE	W03
	BYTE		        101*FE11FootstepsofFateSme_mvl/mxv
	BYTE	W03
	BYTE		        99*FE11FootstepsofFateSme_mvl/mxv
	BYTE	W03
	BYTE		        98*FE11FootstepsofFateSme_mvl/mxv
	BYTE	W03
	BYTE		        97*FE11FootstepsofFateSme_mvl/mxv
	BYTE	W03
	BYTE		        95*FE11FootstepsofFateSme_mvl/mxv
	BYTE	W03
	BYTE		        93*FE11FootstepsofFateSme_mvl/mxv
	BYTE	W03
	BYTE		        91*FE11FootstepsofFateSme_mvl/mxv
	BYTE	W03
	BYTE		        89*FE11FootstepsofFateSme_mvl/mxv
	BYTE	W03
	BYTE		        87*FE11FootstepsofFateSme_mvl/mxv
	BYTE	W03
	BYTE		        84*FE11FootstepsofFateSme_mvl/mxv
	BYTE	W03
	BYTE		        82*FE11FootstepsofFateSme_mvl/mxv
	BYTE	W03
	BYTE		        79*FE11FootstepsofFateSme_mvl/mxv
	BYTE	W03
	BYTE		        77*FE11FootstepsofFateSme_mvl/mxv
	BYTE	W03
	BYTE		        73*FE11FootstepsofFateSme_mvl/mxv
	BYTE	W01
// 033   ----------------------------------------
	BYTE	W02
	BYTE		        70*FE11FootstepsofFateSme_mvl/mxv
	BYTE	W03
	BYTE		        66*FE11FootstepsofFateSme_mvl/mxv
	BYTE	W03
	BYTE		        62*FE11FootstepsofFateSme_mvl/mxv
	BYTE	W03
	BYTE		        58*FE11FootstepsofFateSme_mvl/mxv
	BYTE	W02
	BYTE		        52*FE11FootstepsofFateSme_mvl/mxv
	BYTE	W80
	BYTE	W03
// 034   ----------------------------------------
	BYTE	W96
// 035   ----------------------------------------
	BYTE	W96
// 036   ----------------------------------------
	BYTE	W24
	BYTE		        52*FE11FootstepsofFateSme_mvl/mxv
	BYTE		PAN     c_v-10
	BYTE		VOL     83*FE11FootstepsofFateSme_mvl/mxv
	BYTE	W72
// 037   ----------------------------------------
	BYTE	W08
	BYTE		        110*FE11FootstepsofFateSme_mvl/mxv
	BYTE	W10
	BYTE		N02     Gs5   v092
	BYTE	W03
	BYTE		        An5   v104
	BYTE	W03
	BYTE		TIE     Gs5   v084
	BYTE	W04
	BYTE		VOL     107*FE11FootstepsofFateSme_mvl/mxv
	BYTE	W01
	BYTE		        103*FE11FootstepsofFateSme_mvl/mxv
	BYTE	W01
	BYTE		        100*FE11FootstepsofFateSme_mvl/mxv
	BYTE	W01
	BYTE		        93*FE11FootstepsofFateSme_mvl/mxv
	BYTE	W01
	BYTE		        90*FE11FootstepsofFateSme_mvl/mxv
	BYTE	W01
	BYTE		        86*FE11FootstepsofFateSme_mvl/mxv
	BYTE	W01
	BYTE		        79*FE11FootstepsofFateSme_mvl/mxv
	BYTE	W01
	BYTE		        76*FE11FootstepsofFateSme_mvl/mxv
	BYTE	W01
	BYTE		        73*FE11FootstepsofFateSme_mvl/mxv
	BYTE	W01
	BYTE		        66*FE11FootstepsofFateSme_mvl/mxv
	BYTE	W06
	BYTE		        67*FE11FootstepsofFateSme_mvl/mxv
	BYTE	W03
	BYTE		        68*FE11FootstepsofFateSme_mvl/mxv
	BYTE	W03
	BYTE		        69*FE11FootstepsofFateSme_mvl/mxv
	BYTE	W03
	BYTE		        70*FE11FootstepsofFateSme_mvl/mxv
	BYTE	W03
	BYTE		        71*FE11FootstepsofFateSme_mvl/mxv
	BYTE	W03
	BYTE		        71*FE11FootstepsofFateSme_mvl/mxv
	BYTE	W03
	BYTE		        72*FE11FootstepsofFateSme_mvl/mxv
	BYTE	W03
	BYTE		        74*FE11FootstepsofFateSme_mvl/mxv
	BYTE	W03
	BYTE		        75*FE11FootstepsofFateSme_mvl/mxv
	BYTE	W03
	BYTE		        76*FE11FootstepsofFateSme_mvl/mxv
	BYTE	W03
	BYTE		        77*FE11FootstepsofFateSme_mvl/mxv
	BYTE	W03
	BYTE		        79*FE11FootstepsofFateSme_mvl/mxv
	BYTE	W03
	BYTE		        81*FE11FootstepsofFateSme_mvl/mxv
	BYTE	W03
	BYTE		        83*FE11FootstepsofFateSme_mvl/mxv
	BYTE	W03
	BYTE		        85*FE11FootstepsofFateSme_mvl/mxv
	BYTE	W03
	BYTE		        88*FE11FootstepsofFateSme_mvl/mxv
	BYTE	W03
	BYTE		        90*FE11FootstepsofFateSme_mvl/mxv
	BYTE	W03
	BYTE		        93*FE11FootstepsofFateSme_mvl/mxv
	BYTE	W02
// 038   ----------------------------------------
	BYTE	W01
	BYTE		        97*FE11FootstepsofFateSme_mvl/mxv
	BYTE	W03
	BYTE		        101*FE11FootstepsofFateSme_mvl/mxv
	BYTE	W03
	BYTE		        105*FE11FootstepsofFateSme_mvl/mxv
	BYTE	W02
	BYTE		        110*FE11FootstepsofFateSme_mvl/mxv
	BYTE	W16
	BYTE		EOT   
	BYTE	W68
	BYTE	W03
// 039   ----------------------------------------
	BYTE	W96
// 040   ----------------------------------------
	BYTE	W96
// 041   ----------------------------------------
	BYTE	W96
// 042   ----------------------------------------
	BYTE	W96
// 043   ----------------------------------------
	BYTE	W96
// 044   ----------------------------------------
	BYTE	W23
	BYTE	GoTo
	 POIN2	FE11FootstepsofFateSme_7_B1
FE11FootstepsofFateSme_7_B2:
	BYTE	FINE

//**************** Track 8 (Midi-Chn.8) ****************//

FE11FootstepsofFateSme_8:
	BYTE	KEYSH   FE11FootstepsofFateSme_key+0
// 000   ----------------------------------------
	BYTE		VOICE   50
	BYTE		MODT    0
	BYTE		LFOS    44
	BYTE	W24
	BYTE		VOL     82*FE11FootstepsofFateSme_mvl/mxv
	BYTE		PAN     c_v+63
	BYTE		VOL     66*FE11FootstepsofFateSme_mvl/mxv
	BYTE		BEND    c_v+1
	BYTE	W03
	BYTE		VOL     67*FE11FootstepsofFateSme_mvl/mxv
	BYTE		N44     En2   v076
	BYTE		N44     Cs3   v084
	BYTE	W03
	BYTE		VOL     67*FE11FootstepsofFateSme_mvl/mxv
	BYTE	W03
	BYTE		        68*FE11FootstepsofFateSme_mvl/mxv
	BYTE	W03
	BYTE		        69*FE11FootstepsofFateSme_mvl/mxv
	BYTE	W03
	BYTE		        69*FE11FootstepsofFateSme_mvl/mxv
	BYTE	W03
	BYTE		        71*FE11FootstepsofFateSme_mvl/mxv
	BYTE	W03
	BYTE		        72*FE11FootstepsofFateSme_mvl/mxv
	BYTE	W03
	BYTE		        72*FE11FootstepsofFateSme_mvl/mxv
	BYTE	W03
	BYTE		        74*FE11FootstepsofFateSme_mvl/mxv
	BYTE	W03
	BYTE		        75*FE11FootstepsofFateSme_mvl/mxv
	BYTE	W03
	BYTE		        77*FE11FootstepsofFateSme_mvl/mxv
	BYTE	W03
	BYTE		        78*FE11FootstepsofFateSme_mvl/mxv
	BYTE	W03
	BYTE		        80*FE11FootstepsofFateSme_mvl/mxv
	BYTE	W01
	BYTE		        82*FE11FootstepsofFateSme_mvl/mxv
	BYTE	W06
	BYTE		        81*FE11FootstepsofFateSme_mvl/mxv
	BYTE	W05
	BYTE		N44     Dn2   v092
	BYTE		N44     Bn2   v080
	BYTE	W01
	BYTE		VOL     80*FE11FootstepsofFateSme_mvl/mxv
	BYTE	W06
	BYTE		        80*FE11FootstepsofFateSme_mvl/mxv
	BYTE	W03
	BYTE		        79*FE11FootstepsofFateSme_mvl/mxv
	BYTE	W03
	BYTE		        78*FE11FootstepsofFateSme_mvl/mxv
	BYTE	W03
	BYTE		        78*FE11FootstepsofFateSme_mvl/mxv
	BYTE	W03
	BYTE		        77*FE11FootstepsofFateSme_mvl/mxv
	BYTE	W02
// 001   ----------------------------------------
	BYTE	W01
	BYTE		        76*FE11FootstepsofFateSme_mvl/mxv
	BYTE	W03
	BYTE		        76*FE11FootstepsofFateSme_mvl/mxv
	BYTE	W03
	BYTE		        75*FE11FootstepsofFateSme_mvl/mxv
	BYTE	W03
	BYTE		        74*FE11FootstepsofFateSme_mvl/mxv
	BYTE	W03
	BYTE		        73*FE11FootstepsofFateSme_mvl/mxv
	BYTE	W03
	BYTE		        72*FE11FootstepsofFateSme_mvl/mxv
	BYTE	W03
	BYTE		        71*FE11FootstepsofFateSme_mvl/mxv
	BYTE	W03
	BYTE		        69*FE11FootstepsofFateSme_mvl/mxv
	BYTE	W03
	BYTE		        67*FE11FootstepsofFateSme_mvl/mxv
	BYTE	W02
	BYTE		        65*FE11FootstepsofFateSme_mvl/mxv
	BYTE		N44     En2   v084
	BYTE		N44     An2   v096
	BYTE		N44     Dn3 
	BYTE	W06
	BYTE		VOL     66*FE11FootstepsofFateSme_mvl/mxv
	BYTE	W03
	BYTE		        67*FE11FootstepsofFateSme_mvl/mxv
	BYTE	W03
	BYTE		        67*FE11FootstepsofFateSme_mvl/mxv
	BYTE	W03
	BYTE		        69*FE11FootstepsofFateSme_mvl/mxv
	BYTE	W03
	BYTE		        69*FE11FootstepsofFateSme_mvl/mxv
	BYTE	W03
	BYTE		        71*FE11FootstepsofFateSme_mvl/mxv
	BYTE	W03
	BYTE		        72*FE11FootstepsofFateSme_mvl/mxv
	BYTE	W03
	BYTE		        73*FE11FootstepsofFateSme_mvl/mxv
	BYTE	W03
	BYTE		        75*FE11FootstepsofFateSme_mvl/mxv
	BYTE	W03
	BYTE		        78*FE11FootstepsofFateSme_mvl/mxv
	BYTE	W03
	BYTE		        82*FE11FootstepsofFateSme_mvl/mxv
	BYTE	W06
	BYTE		        81*FE11FootstepsofFateSme_mvl/mxv
	BYTE	W03
	BYTE		        80*FE11FootstepsofFateSme_mvl/mxv
	BYTE	W03
	BYTE		        80*FE11FootstepsofFateSme_mvl/mxv
	BYTE		N44     Fs2   v100
	BYTE		N23     Cs3   v092
	BYTE	W03
	BYTE		VOL     79*FE11FootstepsofFateSme_mvl/mxv
	BYTE	W03
	BYTE		        78*FE11FootstepsofFateSme_mvl/mxv
	BYTE	W03
	BYTE		        78*FE11FootstepsofFateSme_mvl/mxv
	BYTE	W03
	BYTE		        76*FE11FootstepsofFateSme_mvl/mxv
	BYTE	W03
	BYTE		        76*FE11FootstepsofFateSme_mvl/mxv
	BYTE	W03
	BYTE		        75*FE11FootstepsofFateSme_mvl/mxv
	BYTE	W03
// 002   ----------------------------------------
	BYTE		        74*FE11FootstepsofFateSme_mvl/mxv
	BYTE	W03
	BYTE		        73*FE11FootstepsofFateSme_mvl/mxv
	BYTE		N23     Bn2   v084
	BYTE	W03
	BYTE		VOL     72*FE11FootstepsofFateSme_mvl/mxv
	BYTE	W03
	BYTE		        71*FE11FootstepsofFateSme_mvl/mxv
	BYTE	W03
	BYTE		        69*FE11FootstepsofFateSme_mvl/mxv
	BYTE	W03
	BYTE		        68*FE11FootstepsofFateSme_mvl/mxv
	BYTE	W03
	BYTE		        67*FE11FootstepsofFateSme_mvl/mxv
	BYTE	W03
	BYTE		        65*FE11FootstepsofFateSme_mvl/mxv
	BYTE	W03
	BYTE		        63*FE11FootstepsofFateSme_mvl/mxv
	BYTE	W72
// 003   ----------------------------------------
	BYTE	W96
// 004   ----------------------------------------
	BYTE	W24
	BYTE		        79*FE11FootstepsofFateSme_mvl/mxv
	BYTE		PAN     c_v-21
	BYTE		VOL     102*FE11FootstepsofFateSme_mvl/mxv
	BYTE		BEND    c_v+0
	BYTE		N92     Fs2   v104
	BYTE		N92     An2   v088
	BYTE	W72
// 005   ----------------------------------------
FE11FootstepsofFateSme_8_005:
	BYTE	W24
	BYTE		N88     En2   v100
	BYTE		N88     Gs2   v084
	BYTE	W72
	BYTE	PEND
// 006   ----------------------------------------
	BYTE	W24
FE11FootstepsofFateSme_8_B1:
	BYTE		N90     Fs2   v088
	BYTE		N92     An2   v080
	BYTE	W72
// 007   ----------------------------------------
	BYTE	W24
	BYTE		N18     En2 
	BYTE		N23     Gs2   v088
	BYTE	W24
	BYTE		N22     Fs2 
	BYTE		N20     An2   v084
	BYTE	W24
	BYTE		        Gs2   v096
	BYTE		N15     Bn2   v104
	BYTE	W24
// 008   ----------------------------------------
	BYTE		N22     Bn2   v108
	BYTE		N20     En3   v096
	BYTE	W24
	BYTE		N92     Fs2   v104
	BYTE		N92     An2   v088
	BYTE	W72
// 009   ----------------------------------------
	BYTE	PATT
	 POIN2	FE11FootstepsofFateSme_8_005
// 010   ----------------------------------------
	BYTE	W24
	BYTE		N90     Fs2   v088
	BYTE		N92     An2   v080
	BYTE	W72
// 011   ----------------------------------------
	BYTE	W24
	BYTE		N44   
	BYTE	W24
	BYTE		N21     Fs3 
	BYTE	W24
	BYTE		N18     Gs2   v088
	BYTE		N21     En3   v080
	BYTE	W24
// 012   ----------------------------------------
	BYTE		N05     An2   v088
	BYTE	W06
	BYTE		        Gs2 
	BYTE	W06
	BYTE		        En2 
	BYTE	W06
	BYTE		        Bn1 
	BYTE	W06
	BYTE		N11     Fs4   v108
	BYTE		N11     An4   v088
	BYTE	W12
	BYTE		        Fs4   v056
	BYTE		N11     An4   v048
	BYTE	W12
	BYTE		        Fs4   v088
	BYTE		N11     An4   v076
	BYTE	W12
	BYTE		        Fs4   v048
	BYTE		N11     An4   v040
	BYTE	W12
	BYTE		        Fs4   v088
	BYTE		N11     An4   v072
	BYTE	W12
	BYTE		        Fs4   v048
	BYTE		N11     An4   v040
	BYTE	W12
// 013   ----------------------------------------
	BYTE		        Fs4   v096
	BYTE		N11     An4   v084
	BYTE	W12
	BYTE		        Fs4   v052
	BYTE		N11     An4   v044
	BYTE	W12
	BYTE		        En4   v096
	BYTE		N11     Gs4   v088
	BYTE	W12
	BYTE		        En4   v052
	BYTE		N11     Gs4   v048
	BYTE	W12
	BYTE		        En4   v080
	BYTE		N11     Gs4   v068
	BYTE	W12
	BYTE		        En4   v044
	BYTE		N11     Gs4   v040
	BYTE	W12
	BYTE		        En4   v084
	BYTE		N11     Gs4   v068
	BYTE	W12
	BYTE		        En4   v044
	BYTE		N11     Gs4   v036
	BYTE	W12
// 014   ----------------------------------------
	BYTE		        En4   v080
	BYTE		N11     Gs4   v072
	BYTE	W12
	BYTE		        En4   v044
	BYTE		N11     Gs4   v040
	BYTE	W12
	BYTE		        Fs4   v092
	BYTE		N11     An4   v080
	BYTE	W12
	BYTE		        Fs4   v052
	BYTE		N11     An4   v044
	BYTE	W12
	BYTE		        Fs4   v080
	BYTE		N11     An4   v064
	BYTE	W12
	BYTE		        Fs4   v044
	BYTE		N11     An4   v036
	BYTE	W12
	BYTE		        Fs4   v084
	BYTE		N11     An4   v068
	BYTE	W12
	BYTE		        Fs4   v044
	BYTE		N11     An4   v036
	BYTE	W12
// 015   ----------------------------------------
	BYTE		        Fs4   v084
	BYTE		N11     An4   v072
	BYTE	W12
	BYTE		        Fs4   v044
	BYTE		N11     An4   v040
	BYTE	W12
	BYTE		N17     En2   v096
	BYTE		N17     Gs2   v088
	BYTE	W18
	BYTE		N02     Fs4   v072
	BYTE	W03
	BYTE		        Gs4   v088
	BYTE	W03
	BYTE		N17     Fs2   v092
	BYTE		N17     An2   v100
	BYTE	W18
	BYTE		N02     En4   v076
	BYTE		N02     Gs4 
	BYTE	W03
	BYTE		        Fs4   v104
	BYTE		N02     An4   v100
	BYTE	W03
	BYTE		N17     Gs2   v092
	BYTE		N17     Bn2   v104
	BYTE	W18
	BYTE		N02     Fs4   v068
	BYTE		N02     An4 
	BYTE	W03
	BYTE		        Gs4 
	BYTE		N02     Bn4   v076
	BYTE	W03
// 016   ----------------------------------------
	BYTE		N04     En4   v084
	BYTE		N04     Gs4   v088
	BYTE	W06
	BYTE		N02   
	BYTE		N02     Bn4   v084
	BYTE	W06
	BYTE		N03     Cs5   v088
	BYTE		N03     En5 
	BYTE	W06
	BYTE		N05   
	BYTE		N05     Gs5 
	BYTE	W06
	BYTE		N11     Fs4   v104
	BYTE		N11     An4   v088
	BYTE	W12
	BYTE		        Fs4   v056
	BYTE		N11     An4   v048
	BYTE	W12
	BYTE		        Fs4   v088
	BYTE		N11     An4   v076
	BYTE	W12
	BYTE		        Fs4   v048
	BYTE		N11     An4   v044
	BYTE	W12
	BYTE		        Fs4   v092
	BYTE		N11     An4   v072
	BYTE	W12
	BYTE		        Fs4   v048
	BYTE		N11     An4   v040
	BYTE	W12
// 017   ----------------------------------------
	BYTE		        Fs4   v088
	BYTE		N11     An4   v080
	BYTE	W12
	BYTE		        Fs4   v048
	BYTE		N11     An4   v044
	BYTE	W12
	BYTE		        En4   v104
	BYTE		N11     Gs4   v084
	BYTE	W12
	BYTE		        En4   v056
	BYTE		N11     Gs4   v048
	BYTE	W12
	BYTE		        En4   v088
	BYTE		N11     Gs4   v076
	BYTE	W12
	BYTE		        En4   v048
	BYTE		N11     Gs4   v044
	BYTE	W12
	BYTE		        En4   v092
	BYTE		N11     Gs4   v076
	BYTE	W12
	BYTE		        En4   v052
	BYTE		N11     Gs4   v040
	BYTE	W12
// 018   ----------------------------------------
	BYTE		        En4   v092
	BYTE		N11     Gs4   v076
	BYTE	W12
	BYTE		        En4   v048
	BYTE		N11     Gs4   v040
	BYTE	W12
	BYTE		        Cn5   v084
	BYTE		N11     En5   v092
	BYTE	W12
	BYTE		        Cn5   v044
	BYTE		N11     En5   v048
	BYTE	W12
	BYTE		        Cn5   v072
	BYTE		N11     En5   v076
	BYTE	W12
	BYTE		        Cn5   v040
	BYTE		N11     En5 
	BYTE	W12
	BYTE		        Cn5   v064
	BYTE		N11     En5   v076
	BYTE	W12
	BYTE		        Cn5   v036
	BYTE		N11     En5   v040
	BYTE	W12
// 019   ----------------------------------------
	BYTE		        Cn5   v068
	BYTE		N11     En5   v080
	BYTE	W12
	BYTE		        Cn5   v036
	BYTE		N11     En5   v044
	BYTE	W12
	BYTE		        Cn5   v088
	BYTE		N11     Ds5   v076
	BYTE	W12
	BYTE		        Cn5   v048
	BYTE		N11     Ds5   v040
	BYTE	W12
	BYTE		        Cn5   v076
	BYTE		N11     Ds5   v064
	BYTE	W12
	BYTE		        Cn5   v044
	BYTE		N11     Ds5   v032
	BYTE	W12
	BYTE		        Cn5   v072
	BYTE		N11     Ds5   v068
	BYTE	W12
	BYTE		        Cn5   v040
	BYTE		N11     Ds5 
	BYTE	W12
// 020   ----------------------------------------
	BYTE		        Cn5   v076
	BYTE		N11     Ds5   v064
	BYTE	W12
	BYTE		        Cn5   v044
	BYTE		N11     Ds5   v036
	BYTE	W84
// 021   ----------------------------------------
	BYTE	W96
// 022   ----------------------------------------
	BYTE	W48
	BYTE		N24     Gs2   v068
	BYTE	W24
	BYTE		N23     Fs2   v080
	BYTE		N23     An2   v084
	BYTE	W24
// 023   ----------------------------------------
	BYTE		N19     Gs2   v092
	BYTE		N19     Bn2   v076
	BYTE	W24
	BYTE		N21     An2   v084
	BYTE		N20     Cs3   v080
	BYTE	W24
	BYTE		N23     Gs2   v088
	BYTE		N23     Bn2   v092
	BYTE	W24
	BYTE		        Fs2 
	BYTE		N23     An2   v080
	BYTE	W24
// 024   ----------------------------------------
	BYTE		        Gs2   v084
	BYTE	W24
	BYTE		N96     Dn2   v072
	BYTE		N96     Gn2 
	BYTE	W72
// 025   ----------------------------------------
	BYTE	W96
// 026   ----------------------------------------
	BYTE	W96
// 027   ----------------------------------------
	BYTE	W96
// 028   ----------------------------------------
	BYTE	W24
	BYTE		VOL     67*FE11FootstepsofFateSme_mvl/mxv
	BYTE		N44     Fs2   v096
	BYTE	W12
	BYTE		VOL     68*FE11FootstepsofFateSme_mvl/mxv
	BYTE	W09
	BYTE		        69*FE11FootstepsofFateSme_mvl/mxv
	BYTE	W09
	BYTE		        69*FE11FootstepsofFateSme_mvl/mxv
	BYTE	W04
	BYTE		        70*FE11FootstepsofFateSme_mvl/mxv
	BYTE	W09
	BYTE		        71*FE11FootstepsofFateSme_mvl/mxv
	BYTE	W05
	BYTE		N44     Cs3   v080
	BYTE	W03
	BYTE		VOL     72*FE11FootstepsofFateSme_mvl/mxv
	BYTE	W05
	BYTE		        73*FE11FootstepsofFateSme_mvl/mxv
	BYTE	W08
	BYTE		        73*FE11FootstepsofFateSme_mvl/mxv
	BYTE	W05
	BYTE		        74*FE11FootstepsofFateSme_mvl/mxv
	BYTE	W03
// 029   ----------------------------------------
	BYTE	W05
	BYTE		        75*FE11FootstepsofFateSme_mvl/mxv
	BYTE	W05
	BYTE		        76*FE11FootstepsofFateSme_mvl/mxv
	BYTE	W04
	BYTE		        77*FE11FootstepsofFateSme_mvl/mxv
	BYTE	W04
	BYTE		        77*FE11FootstepsofFateSme_mvl/mxv
	BYTE	W06
	BYTE		N44     Gs3   v084
	BYTE	W03
	BYTE		VOL     78*FE11FootstepsofFateSme_mvl/mxv
	BYTE	W04
	BYTE		        79*FE11FootstepsofFateSme_mvl/mxv
	BYTE	W05
	BYTE		        80*FE11FootstepsofFateSme_mvl/mxv
	BYTE	W04
	BYTE		        81*FE11FootstepsofFateSme_mvl/mxv
	BYTE	W04
	BYTE		        81*FE11FootstepsofFateSme_mvl/mxv
	BYTE	W05
	BYTE		        82*FE11FootstepsofFateSme_mvl/mxv
	BYTE	W04
	BYTE		        83*FE11FootstepsofFateSme_mvl/mxv
	BYTE	W04
	BYTE		        85*FE11FootstepsofFateSme_mvl/mxv
	BYTE	W05
	BYTE		        85*FE11FootstepsofFateSme_mvl/mxv
	BYTE	W04
	BYTE		        86*FE11FootstepsofFateSme_mvl/mxv
	BYTE	W04
	BYTE		        87*FE11FootstepsofFateSme_mvl/mxv
	BYTE	W02
	BYTE		N44     An3   v092
	BYTE	W03
	BYTE		VOL     89*FE11FootstepsofFateSme_mvl/mxv
	BYTE	W04
	BYTE		        89*FE11FootstepsofFateSme_mvl/mxv
	BYTE	W04
	BYTE		        91*FE11FootstepsofFateSme_mvl/mxv
	BYTE	W05
	BYTE		        92*FE11FootstepsofFateSme_mvl/mxv
	BYTE	W04
	BYTE		        93*FE11FootstepsofFateSme_mvl/mxv
	BYTE	W04
// 030   ----------------------------------------
	BYTE		        95*FE11FootstepsofFateSme_mvl/mxv
	BYTE	W05
	BYTE		        96*FE11FootstepsofFateSme_mvl/mxv
	BYTE	W04
	BYTE		        97*FE11FootstepsofFateSme_mvl/mxv
	BYTE	W04
	BYTE		        99*FE11FootstepsofFateSme_mvl/mxv
	BYTE	W04
	BYTE		        101*FE11FootstepsofFateSme_mvl/mxv
	BYTE	W01
	BYTE		        102*FE11FootstepsofFateSme_mvl/mxv
	BYTE	W06
	BYTE		N44     Gs3   v084
	BYTE	W09
	BYTE		VOL     101*FE11FootstepsofFateSme_mvl/mxv
	BYTE	W10
	BYTE		        100*FE11FootstepsofFateSme_mvl/mxv
	BYTE	W10
	BYTE		        99*FE11FootstepsofFateSme_mvl/mxv
	BYTE	W06
	BYTE		        98*FE11FootstepsofFateSme_mvl/mxv
	BYTE	W10
	BYTE		        97*FE11FootstepsofFateSme_mvl/mxv
	BYTE	W03
	BYTE		N68     Cs3   v088
	BYTE	W07
	BYTE		VOL     97*FE11FootstepsofFateSme_mvl/mxv
	BYTE	W05
	BYTE		        96*FE11FootstepsofFateSme_mvl/mxv
	BYTE	W10
	BYTE		        95*FE11FootstepsofFateSme_mvl/mxv
	BYTE	W02
// 031   ----------------------------------------
	BYTE	W04
	BYTE		        94*FE11FootstepsofFateSme_mvl/mxv
	BYTE	W05
	BYTE		        93*FE11FootstepsofFateSme_mvl/mxv
	BYTE	W10
	BYTE		        93*FE11FootstepsofFateSme_mvl/mxv
	BYTE	W05
	BYTE		        92*FE11FootstepsofFateSme_mvl/mxv
	BYTE	W05
	BYTE		        91*FE11FootstepsofFateSme_mvl/mxv
	BYTE	W05
	BYTE		        90*FE11FootstepsofFateSme_mvl/mxv
	BYTE	W05
	BYTE		        89*FE11FootstepsofFateSme_mvl/mxv
	BYTE	W06
	BYTE		        89*FE11FootstepsofFateSme_mvl/mxv
	BYTE	W03
	BYTE		N23     Dn3   v080
	BYTE	W02
	BYTE		VOL     88*FE11FootstepsofFateSme_mvl/mxv
	BYTE	W05
	BYTE		        87*FE11FootstepsofFateSme_mvl/mxv
	BYTE	W05
	BYTE		        86*FE11FootstepsofFateSme_mvl/mxv
	BYTE	W05
	BYTE		        85*FE11FootstepsofFateSme_mvl/mxv
	BYTE	W05
	BYTE		        84*FE11FootstepsofFateSme_mvl/mxv
	BYTE	W02
	BYTE		N23     En3   v084
	BYTE	W03
	BYTE		VOL     83*FE11FootstepsofFateSme_mvl/mxv
	BYTE	W05
	BYTE		        82*FE11FootstepsofFateSme_mvl/mxv
	BYTE	W06
	BYTE		        81*FE11FootstepsofFateSme_mvl/mxv
	BYTE	W05
	BYTE		        80*FE11FootstepsofFateSme_mvl/mxv
	BYTE	W05
// 032   ----------------------------------------
	BYTE		        78*FE11FootstepsofFateSme_mvl/mxv
	BYTE		N20     Dn3   v080
	BYTE	W05
	BYTE		VOL     77*FE11FootstepsofFateSme_mvl/mxv
	BYTE	W05
	BYTE		        76*FE11FootstepsofFateSme_mvl/mxv
	BYTE	W05
	BYTE		        74*FE11FootstepsofFateSme_mvl/mxv
	BYTE	W05
	BYTE		        73*FE11FootstepsofFateSme_mvl/mxv
	BYTE	W04
	BYTE		N44     Cs3   v092
	BYTE	W01
	BYTE		VOL     71*FE11FootstepsofFateSme_mvl/mxv
	BYTE	W01
	BYTE		        70*FE11FootstepsofFateSme_mvl/mxv
	BYTE	W14
	BYTE		        71*FE11FootstepsofFateSme_mvl/mxv
	BYTE	W10
	BYTE		        72*FE11FootstepsofFateSme_mvl/mxv
	BYTE	W10
	BYTE		        73*FE11FootstepsofFateSme_mvl/mxv
	BYTE	W05
	BYTE		        73*FE11FootstepsofFateSme_mvl/mxv
	BYTE	W09
	BYTE		        74*FE11FootstepsofFateSme_mvl/mxv
	BYTE	W10
	BYTE		        75*FE11FootstepsofFateSme_mvl/mxv
	BYTE	W05
	BYTE		        76*FE11FootstepsofFateSme_mvl/mxv
	BYTE	W07
// 033   ----------------------------------------
	BYTE	W02
	BYTE		        77*FE11FootstepsofFateSme_mvl/mxv
	BYTE	W05
	BYTE		        77*FE11FootstepsofFateSme_mvl/mxv
	BYTE	W05
	BYTE		        78*FE11FootstepsofFateSme_mvl/mxv
	BYTE	W10
	BYTE		        79*FE11FootstepsofFateSme_mvl/mxv
	BYTE	W72
	BYTE	W02
// 034   ----------------------------------------
	BYTE	W96
// 035   ----------------------------------------
	BYTE	W96
// 036   ----------------------------------------
	BYTE	W24
	BYTE		        49*FE11FootstepsofFateSme_mvl/mxv
	BYTE		PAN     c_v+63
	BYTE		VOL     47*FE11FootstepsofFateSme_mvl/mxv
	BYTE	W72
// 037   ----------------------------------------
	BYTE	W08
	BYTE		        63*FE11FootstepsofFateSme_mvl/mxv
	BYTE	W13
	BYTE		N02     Gs5 
	BYTE	W03
	BYTE		        An5   v104
	BYTE	W03
	BYTE		TIE     Gs5   v084
	BYTE	W01
	BYTE		VOL     61*FE11FootstepsofFateSme_mvl/mxv
	BYTE	W01
	BYTE		        59*FE11FootstepsofFateSme_mvl/mxv
	BYTE	W01
	BYTE		        57*FE11FootstepsofFateSme_mvl/mxv
	BYTE	W01
	BYTE		        53*FE11FootstepsofFateSme_mvl/mxv
	BYTE	W01
	BYTE		        51*FE11FootstepsofFateSme_mvl/mxv
	BYTE	W01
	BYTE		        49*FE11FootstepsofFateSme_mvl/mxv
	BYTE	W01
	BYTE		        45*FE11FootstepsofFateSme_mvl/mxv
	BYTE	W01
	BYTE		        43*FE11FootstepsofFateSme_mvl/mxv
	BYTE	W01
	BYTE		        42*FE11FootstepsofFateSme_mvl/mxv
	BYTE	W01
	BYTE		        38*FE11FootstepsofFateSme_mvl/mxv
	BYTE	W06
	BYTE		        38*FE11FootstepsofFateSme_mvl/mxv
	BYTE	W03
	BYTE		        39*FE11FootstepsofFateSme_mvl/mxv
	BYTE	W03
	BYTE		        39*FE11FootstepsofFateSme_mvl/mxv
	BYTE	W03
	BYTE		        40*FE11FootstepsofFateSme_mvl/mxv
	BYTE	W03
	BYTE		        40*FE11FootstepsofFateSme_mvl/mxv
	BYTE	W03
	BYTE		        41*FE11FootstepsofFateSme_mvl/mxv
	BYTE	W03
	BYTE		        41*FE11FootstepsofFateSme_mvl/mxv
	BYTE	W03
	BYTE		        42*FE11FootstepsofFateSme_mvl/mxv
	BYTE	W03
	BYTE		        43*FE11FootstepsofFateSme_mvl/mxv
	BYTE	W03
	BYTE		        43*FE11FootstepsofFateSme_mvl/mxv
	BYTE	W03
	BYTE		        44*FE11FootstepsofFateSme_mvl/mxv
	BYTE	W03
	BYTE		        45*FE11FootstepsofFateSme_mvl/mxv
	BYTE	W03
	BYTE		        46*FE11FootstepsofFateSme_mvl/mxv
	BYTE	W03
	BYTE		        47*FE11FootstepsofFateSme_mvl/mxv
	BYTE	W03
	BYTE		        49*FE11FootstepsofFateSme_mvl/mxv
	BYTE	W03
	BYTE		        50*FE11FootstepsofFateSme_mvl/mxv
	BYTE	W03
	BYTE		        52*FE11FootstepsofFateSme_mvl/mxv
	BYTE	W03
	BYTE		        53*FE11FootstepsofFateSme_mvl/mxv
	BYTE	W02
// 038   ----------------------------------------
	BYTE	W01
	BYTE		        55*FE11FootstepsofFateSme_mvl/mxv
	BYTE	W03
	BYTE		        58*FE11FootstepsofFateSme_mvl/mxv
	BYTE	W03
	BYTE		        60*FE11FootstepsofFateSme_mvl/mxv
	BYTE	W02
	BYTE		        63*FE11FootstepsofFateSme_mvl/mxv
	BYTE	W19
	BYTE		EOT   
	BYTE	W68
// 039   ----------------------------------------
	BYTE	W96
// 040   ----------------------------------------
	BYTE	W96
// 041   ----------------------------------------
	BYTE	W96
// 042   ----------------------------------------
	BYTE	W24
	BYTE		VOL     102*FE11FootstepsofFateSme_mvl/mxv
	BYTE		PAN     c_v-21
	BYTE		VOL     102*FE11FootstepsofFateSme_mvl/mxv
	BYTE		N92     Fs2   v104
	BYTE		N92     An2   v088
	BYTE	W72
// 043   ----------------------------------------
	BYTE	PATT
	 POIN2	FE11FootstepsofFateSme_8_005
// 044   ----------------------------------------
	BYTE	W23
	BYTE	GoTo
	 POIN2	FE11FootstepsofFateSme_8_B1
FE11FootstepsofFateSme_8_B2:
	BYTE	FINE

//**************** Track 9 (Midi-Chn.9) ****************//

FE11FootstepsofFateSme_9:
	BYTE	KEYSH   FE11FootstepsofFateSme_key+0
// 000   ----------------------------------------
	BYTE		VOICE   67
	BYTE		MODT    0
	BYTE		LFOS    44
	BYTE	W24
	BYTE		VOL     122*FE11FootstepsofFateSme_mvl/mxv
	BYTE		PAN     c_v-17
	BYTE		VOL     36*FE11FootstepsofFateSme_mvl/mxv
	BYTE	W72
// 001   ----------------------------------------
	BYTE	W96
// 002   ----------------------------------------
	BYTE	W22
	BYTE		        36*FE11FootstepsofFateSme_mvl/mxv
	BYTE	W02
	BYTE		N92     Cs2   v084
	BYTE	W04
	BYTE		VOL     37*FE11FootstepsofFateSme_mvl/mxv
	BYTE	W03
	BYTE		        38*FE11FootstepsofFateSme_mvl/mxv
	BYTE	W03
	BYTE		        39*FE11FootstepsofFateSme_mvl/mxv
	BYTE	W03
	BYTE		        40*FE11FootstepsofFateSme_mvl/mxv
	BYTE	W03
	BYTE		        41*FE11FootstepsofFateSme_mvl/mxv
	BYTE	W03
	BYTE		        42*FE11FootstepsofFateSme_mvl/mxv
	BYTE	W03
	BYTE		        43*FE11FootstepsofFateSme_mvl/mxv
	BYTE	W03
	BYTE		        45*FE11FootstepsofFateSme_mvl/mxv
	BYTE	W03
	BYTE		        46*FE11FootstepsofFateSme_mvl/mxv
	BYTE	W03
	BYTE		        47*FE11FootstepsofFateSme_mvl/mxv
	BYTE	W03
	BYTE		        48*FE11FootstepsofFateSme_mvl/mxv
	BYTE	W03
	BYTE		        50*FE11FootstepsofFateSme_mvl/mxv
	BYTE	W03
	BYTE		        52*FE11FootstepsofFateSme_mvl/mxv
	BYTE	W03
	BYTE		        53*FE11FootstepsofFateSme_mvl/mxv
	BYTE	W03
	BYTE		        56*FE11FootstepsofFateSme_mvl/mxv
	BYTE	W03
	BYTE		        58*FE11FootstepsofFateSme_mvl/mxv
	BYTE	W03
	BYTE		        60*FE11FootstepsofFateSme_mvl/mxv
	BYTE	W03
	BYTE		        63*FE11FootstepsofFateSme_mvl/mxv
	BYTE	W03
	BYTE		        66*FE11FootstepsofFateSme_mvl/mxv
	BYTE	W03
	BYTE		        69*FE11FootstepsofFateSme_mvl/mxv
	BYTE	W03
	BYTE		        73*FE11FootstepsofFateSme_mvl/mxv
	BYTE	W03
	BYTE		        76*FE11FootstepsofFateSme_mvl/mxv
	BYTE	W03
	BYTE		        81*FE11FootstepsofFateSme_mvl/mxv
	BYTE	W02
// 003   ----------------------------------------
	BYTE	W01
	BYTE		        86*FE11FootstepsofFateSme_mvl/mxv
	BYTE	W03
	BYTE		        92*FE11FootstepsofFateSme_mvl/mxv
	BYTE	W03
	BYTE		        98*FE11FootstepsofFateSme_mvl/mxv
	BYTE	W03
	BYTE		        106*FE11FootstepsofFateSme_mvl/mxv
	BYTE	W03
	BYTE		        115*FE11FootstepsofFateSme_mvl/mxv
	BYTE	W02
	BYTE		        122*FE11FootstepsofFateSme_mvl/mxv
	BYTE	W01
	BYTE		        119*FE11FootstepsofFateSme_mvl/mxv
	BYTE	W02
	BYTE		        115*FE11FootstepsofFateSme_mvl/mxv
	BYTE	W01
	BYTE		        111*FE11FootstepsofFateSme_mvl/mxv
	BYTE	W02
	BYTE		        108*FE11FootstepsofFateSme_mvl/mxv
	BYTE	W01
	BYTE		        104*FE11FootstepsofFateSme_mvl/mxv
	BYTE	W02
	BYTE		        100*FE11FootstepsofFateSme_mvl/mxv
	BYTE		N05     Bn2 
	BYTE	W06
	BYTE		        An2 
	BYTE	W01
	BYTE		VOL     101*FE11FootstepsofFateSme_mvl/mxv
	BYTE	W04
	BYTE		        102*FE11FootstepsofFateSme_mvl/mxv
	BYTE	W01
	BYTE		N05     Gs2   v088
	BYTE	W03
	BYTE		VOL     103*FE11FootstepsofFateSme_mvl/mxv
	BYTE	W03
	BYTE		N05     En2   v080
	BYTE	W01
	BYTE		VOL     104*FE11FootstepsofFateSme_mvl/mxv
	BYTE	W04
	BYTE		        105*FE11FootstepsofFateSme_mvl/mxv
	BYTE	W01
	BYTE		N05     Dn3   v076
	BYTE	W02
	BYTE		VOL     106*FE11FootstepsofFateSme_mvl/mxv
	BYTE	W04
	BYTE		        107*FE11FootstepsofFateSme_mvl/mxv
	BYTE		N05     Cs3   v080
	BYTE	W04
	BYTE		VOL     108*FE11FootstepsofFateSme_mvl/mxv
	BYTE	W02
	BYTE		N05     Bn2 
	BYTE	W02
	BYTE		VOL     109*FE11FootstepsofFateSme_mvl/mxv
	BYTE	W04
	BYTE		        110*FE11FootstepsofFateSme_mvl/mxv
	BYTE		N05     Gs2   v088
	BYTE	W04
	BYTE		VOL     111*FE11FootstepsofFateSme_mvl/mxv
	BYTE	W02
	BYTE		N05     Fs3   v072
	BYTE	W02
	BYTE		VOL     112*FE11FootstepsofFateSme_mvl/mxv
	BYTE	W03
	BYTE		        113*FE11FootstepsofFateSme_mvl/mxv
	BYTE	W01
	BYTE		N05     En3   v068
	BYTE	W03
	BYTE		VOL     114*FE11FootstepsofFateSme_mvl/mxv
	BYTE	W03
	BYTE		N05     Dn3   v080
	BYTE	W01
	BYTE		VOL     115*FE11FootstepsofFateSme_mvl/mxv
	BYTE	W04
	BYTE		        116*FE11FootstepsofFateSme_mvl/mxv
	BYTE	W01
	BYTE		N05     Bn2 
	BYTE	W03
	BYTE		VOL     117*FE11FootstepsofFateSme_mvl/mxv
	BYTE	W03
// 004   ----------------------------------------
	BYTE		N05     An3   v072
	BYTE	W01
	BYTE		VOL     118*FE11FootstepsofFateSme_mvl/mxv
	BYTE	W04
	BYTE		        119*FE11FootstepsofFateSme_mvl/mxv
	BYTE	W01
	BYTE		N05     Gs3 
	BYTE	W02
	BYTE		VOL     120*FE11FootstepsofFateSme_mvl/mxv
	BYTE	W04
	BYTE		        121*FE11FootstepsofFateSme_mvl/mxv
	BYTE		N05     En3 
	BYTE	W01
	BYTE		VOL     122*FE11FootstepsofFateSme_mvl/mxv
	BYTE	W05
	BYTE		N05     Bn2   v084
	BYTE	W06
	BYTE		N92     Cs3   v068
	BYTE	W07
	BYTE		VOL     122*FE11FootstepsofFateSme_mvl/mxv
	BYTE	W03
	BYTE		        121*FE11FootstepsofFateSme_mvl/mxv
	BYTE	W01
	BYTE		        120*FE11FootstepsofFateSme_mvl/mxv
	BYTE	W02
	BYTE		        119*FE11FootstepsofFateSme_mvl/mxv
	BYTE	W01
	BYTE		        118*FE11FootstepsofFateSme_mvl/mxv
	BYTE	W02
	BYTE		        117*FE11FootstepsofFateSme_mvl/mxv
	BYTE	W01
	BYTE		        116*FE11FootstepsofFateSme_mvl/mxv
	BYTE	W02
	BYTE		        115*FE11FootstepsofFateSme_mvl/mxv
	BYTE	W01
	BYTE		        114*FE11FootstepsofFateSme_mvl/mxv
	BYTE	W02
	BYTE		        113*FE11FootstepsofFateSme_mvl/mxv
	BYTE	W01
	BYTE		        112*FE11FootstepsofFateSme_mvl/mxv
	BYTE	W02
	BYTE		        111*FE11FootstepsofFateSme_mvl/mxv
	BYTE	W01
	BYTE		        110*FE11FootstepsofFateSme_mvl/mxv
	BYTE	W02
	BYTE		        109*FE11FootstepsofFateSme_mvl/mxv
	BYTE	W01
	BYTE		        108*FE11FootstepsofFateSme_mvl/mxv
	BYTE	W02
	BYTE		        107*FE11FootstepsofFateSme_mvl/mxv
	BYTE	W01
	BYTE		        106*FE11FootstepsofFateSme_mvl/mxv
	BYTE	W02
	BYTE		        104*FE11FootstepsofFateSme_mvl/mxv
	BYTE	W01
	BYTE		        103*FE11FootstepsofFateSme_mvl/mxv
	BYTE	W02
	BYTE		        102*FE11FootstepsofFateSme_mvl/mxv
	BYTE	W01
	BYTE		        100*FE11FootstepsofFateSme_mvl/mxv
	BYTE	W02
	BYTE		        99*FE11FootstepsofFateSme_mvl/mxv
	BYTE	W01
	BYTE		        98*FE11FootstepsofFateSme_mvl/mxv
	BYTE	W02
	BYTE		        97*FE11FootstepsofFateSme_mvl/mxv
	BYTE	W01
	BYTE		        96*FE11FootstepsofFateSme_mvl/mxv
	BYTE	W02
	BYTE		        94*FE11FootstepsofFateSme_mvl/mxv
	BYTE	W01
	BYTE		        93*FE11FootstepsofFateSme_mvl/mxv
	BYTE	W02
	BYTE		        91*FE11FootstepsofFateSme_mvl/mxv
	BYTE	W01
	BYTE		        90*FE11FootstepsofFateSme_mvl/mxv
	BYTE	W02
	BYTE		        88*FE11FootstepsofFateSme_mvl/mxv
	BYTE	W01
	BYTE		        86*FE11FootstepsofFateSme_mvl/mxv
	BYTE	W02
	BYTE		        85*FE11FootstepsofFateSme_mvl/mxv
	BYTE	W01
	BYTE		        83*FE11FootstepsofFateSme_mvl/mxv
	BYTE	W02
	BYTE		        81*FE11FootstepsofFateSme_mvl/mxv
	BYTE	W01
	BYTE		        79*FE11FootstepsofFateSme_mvl/mxv
	BYTE	W02
	BYTE		        77*FE11FootstepsofFateSme_mvl/mxv
	BYTE	W01
	BYTE		        75*FE11FootstepsofFateSme_mvl/mxv
	BYTE	W02
	BYTE		        73*FE11FootstepsofFateSme_mvl/mxv
	BYTE	W01
	BYTE		        72*FE11FootstepsofFateSme_mvl/mxv
	BYTE	W02
	BYTE		        69*FE11FootstepsofFateSme_mvl/mxv
	BYTE	W01
	BYTE		        67*FE11FootstepsofFateSme_mvl/mxv
	BYTE	W02
	BYTE		        65*FE11FootstepsofFateSme_mvl/mxv
	BYTE	W01
	BYTE		        62*FE11FootstepsofFateSme_mvl/mxv
	BYTE	W01
// 005   ----------------------------------------
	BYTE	W01
	BYTE		        60*FE11FootstepsofFateSme_mvl/mxv
	BYTE	W01
	BYTE		        57*FE11FootstepsofFateSme_mvl/mxv
	BYTE	W02
	BYTE		        54*FE11FootstepsofFateSme_mvl/mxv
	BYTE	W01
	BYTE		        51*FE11FootstepsofFateSme_mvl/mxv
	BYTE	W02
	BYTE		        48*FE11FootstepsofFateSme_mvl/mxv
	BYTE	W01
	BYTE		        46*FE11FootstepsofFateSme_mvl/mxv
	BYTE	W02
	BYTE		        43*FE11FootstepsofFateSme_mvl/mxv
	BYTE	W01
	BYTE		        40*FE11FootstepsofFateSme_mvl/mxv
	BYTE	W02
	BYTE		        36*FE11FootstepsofFateSme_mvl/mxv
	BYTE	W01
	BYTE		        32*FE11FootstepsofFateSme_mvl/mxv
	BYTE	W02
	BYTE		        29*FE11FootstepsofFateSme_mvl/mxv
	BYTE	W01
	BYTE		        25*FE11FootstepsofFateSme_mvl/mxv
	BYTE	W78
	BYTE	W01
// 006   ----------------------------------------
	BYTE	W24
FE11FootstepsofFateSme_9_B1:
	BYTE		PAN     c_v-17
	BYTE		VOL     25*FE11FootstepsofFateSme_mvl/mxv
	BYTE	W72
// 007   ----------------------------------------
	BYTE	W96
// 008   ----------------------------------------
	BYTE	W96
// 009   ----------------------------------------
	BYTE	W96
// 010   ----------------------------------------
	BYTE	W96
// 011   ----------------------------------------
	BYTE	W96
// 012   ----------------------------------------
	BYTE	W96
// 013   ----------------------------------------
	BYTE	W96
// 014   ----------------------------------------
	BYTE	W96
// 015   ----------------------------------------
	BYTE	W96
// 016   ----------------------------------------
	BYTE	W96
// 017   ----------------------------------------
	BYTE	W96
// 018   ----------------------------------------
	BYTE	W96
// 019   ----------------------------------------
	BYTE	W96
// 020   ----------------------------------------
	BYTE	W96
// 021   ----------------------------------------
	BYTE	W96
// 022   ----------------------------------------
	BYTE	W96
// 023   ----------------------------------------
	BYTE	W96
// 024   ----------------------------------------
	BYTE	W96
// 025   ----------------------------------------
	BYTE	W96
// 026   ----------------------------------------
	BYTE	W96
// 027   ----------------------------------------
	BYTE	W23
	BYTE		        25*FE11FootstepsofFateSme_mvl/mxv
	BYTE	W01
	BYTE		        21*FE11FootstepsofFateSme_mvl/mxv
	BYTE		PAN     c_v-23
	BYTE		VOL     12*FE11FootstepsofFateSme_mvl/mxv
	BYTE	W01
	BYTE		        12*FE11FootstepsofFateSme_mvl/mxv
	BYTE		N96     Ds2   v116
	BYTE	W02
	BYTE		VOL     13*FE11FootstepsofFateSme_mvl/mxv
	BYTE	W01
	BYTE		        14*FE11FootstepsofFateSme_mvl/mxv
	BYTE	W02
	BYTE		        15*FE11FootstepsofFateSme_mvl/mxv
	BYTE	W01
	BYTE		        16*FE11FootstepsofFateSme_mvl/mxv
	BYTE	W02
	BYTE		        16*FE11FootstepsofFateSme_mvl/mxv
	BYTE	W01
	BYTE		        17*FE11FootstepsofFateSme_mvl/mxv
	BYTE	W02
	BYTE		        18*FE11FootstepsofFateSme_mvl/mxv
	BYTE	W01
	BYTE		        19*FE11FootstepsofFateSme_mvl/mxv
	BYTE	W02
	BYTE		        20*FE11FootstepsofFateSme_mvl/mxv
	BYTE	W01
	BYTE		        21*FE11FootstepsofFateSme_mvl/mxv
	BYTE	W02
	BYTE		        22*FE11FootstepsofFateSme_mvl/mxv
	BYTE	W01
	BYTE		        23*FE11FootstepsofFateSme_mvl/mxv
	BYTE	W02
	BYTE		        24*FE11FootstepsofFateSme_mvl/mxv
	BYTE	W01
	BYTE		        25*FE11FootstepsofFateSme_mvl/mxv
	BYTE	W02
	BYTE		        26*FE11FootstepsofFateSme_mvl/mxv
	BYTE	W01
	BYTE		        28*FE11FootstepsofFateSme_mvl/mxv
	BYTE	W02
	BYTE		        28*FE11FootstepsofFateSme_mvl/mxv
	BYTE	W01
	BYTE		        30*FE11FootstepsofFateSme_mvl/mxv
	BYTE	W02
	BYTE		        31*FE11FootstepsofFateSme_mvl/mxv
	BYTE	W01
	BYTE		        32*FE11FootstepsofFateSme_mvl/mxv
	BYTE	W02
	BYTE		        33*FE11FootstepsofFateSme_mvl/mxv
	BYTE	W01
	BYTE		        35*FE11FootstepsofFateSme_mvl/mxv
	BYTE	W02
	BYTE		        36*FE11FootstepsofFateSme_mvl/mxv
	BYTE	W01
	BYTE		        37*FE11FootstepsofFateSme_mvl/mxv
	BYTE	W02
	BYTE		        39*FE11FootstepsofFateSme_mvl/mxv
	BYTE	W01
	BYTE		        40*FE11FootstepsofFateSme_mvl/mxv
	BYTE	W02
	BYTE		        41*FE11FootstepsofFateSme_mvl/mxv
	BYTE	W01
	BYTE		        43*FE11FootstepsofFateSme_mvl/mxv
	BYTE	W02
	BYTE		        44*FE11FootstepsofFateSme_mvl/mxv
	BYTE	W01
	BYTE		        46*FE11FootstepsofFateSme_mvl/mxv
	BYTE	W02
	BYTE		        48*FE11FootstepsofFateSme_mvl/mxv
	BYTE	W01
	BYTE		        49*FE11FootstepsofFateSme_mvl/mxv
	BYTE	W02
	BYTE		        51*FE11FootstepsofFateSme_mvl/mxv
	BYTE	W01
	BYTE		        53*FE11FootstepsofFateSme_mvl/mxv
	BYTE	W02
	BYTE		        54*FE11FootstepsofFateSme_mvl/mxv
	BYTE	W01
	BYTE		        56*FE11FootstepsofFateSme_mvl/mxv
	BYTE	W02
	BYTE		        58*FE11FootstepsofFateSme_mvl/mxv
	BYTE	W01
	BYTE		        60*FE11FootstepsofFateSme_mvl/mxv
	BYTE	W02
	BYTE		        61*FE11FootstepsofFateSme_mvl/mxv
	BYTE	W01
	BYTE		        64*FE11FootstepsofFateSme_mvl/mxv
	BYTE	W02
	BYTE		        65*FE11FootstepsofFateSme_mvl/mxv
	BYTE	W01
	BYTE		        68*FE11FootstepsofFateSme_mvl/mxv
	BYTE	W02
	BYTE		        70*FE11FootstepsofFateSme_mvl/mxv
	BYTE	W01
	BYTE		        73*FE11FootstepsofFateSme_mvl/mxv
	BYTE	W02
	BYTE		        75*FE11FootstepsofFateSme_mvl/mxv
	BYTE	W01
	BYTE		        77*FE11FootstepsofFateSme_mvl/mxv
	BYTE	W02
// 028   ----------------------------------------
FE11FootstepsofFateSme_9_028:
	BYTE		VOL     80*FE11FootstepsofFateSme_mvl/mxv
	BYTE	W01
	BYTE		        82*FE11FootstepsofFateSme_mvl/mxv
	BYTE	W02
	BYTE		        85*FE11FootstepsofFateSme_mvl/mxv
	BYTE	W01
	BYTE		        87*FE11FootstepsofFateSme_mvl/mxv
	BYTE	W02
	BYTE		        90*FE11FootstepsofFateSme_mvl/mxv
	BYTE	W01
	BYTE		        93*FE11FootstepsofFateSme_mvl/mxv
	BYTE	W02
	BYTE		        96*FE11FootstepsofFateSme_mvl/mxv
	BYTE	W01
	BYTE		        99*FE11FootstepsofFateSme_mvl/mxv
	BYTE	W01
	BYTE		        102*FE11FootstepsofFateSme_mvl/mxv
	BYTE	W84
	BYTE	W01
	BYTE	PEND
// 029   ----------------------------------------
	BYTE	W96
// 030   ----------------------------------------
	BYTE	W96
// 031   ----------------------------------------
	BYTE	W96
// 032   ----------------------------------------
	BYTE	W96
// 033   ----------------------------------------
	BYTE	W96
// 034   ----------------------------------------
	BYTE	W96
// 035   ----------------------------------------
	BYTE	W96
// 036   ----------------------------------------
	BYTE	W96
// 037   ----------------------------------------
	BYTE	W96
// 038   ----------------------------------------
	BYTE	W96
// 039   ----------------------------------------
	BYTE	W96
// 040   ----------------------------------------
	BYTE	W96
// 041   ----------------------------------------
	BYTE	W23
	BYTE		        102*FE11FootstepsofFateSme_mvl/mxv
	BYTE	W01
	BYTE		        102*FE11FootstepsofFateSme_mvl/mxv
	BYTE		PAN     c_v-23
	BYTE		VOL     12*FE11FootstepsofFateSme_mvl/mxv
	BYTE	W01
	BYTE		        12*FE11FootstepsofFateSme_mvl/mxv
	BYTE		N96     Ds2   v096
	BYTE	W02
	BYTE		VOL     13*FE11FootstepsofFateSme_mvl/mxv
	BYTE	W01
	BYTE		        14*FE11FootstepsofFateSme_mvl/mxv
	BYTE	W02
	BYTE		        15*FE11FootstepsofFateSme_mvl/mxv
	BYTE	W01
	BYTE		        16*FE11FootstepsofFateSme_mvl/mxv
	BYTE	W02
	BYTE		        16*FE11FootstepsofFateSme_mvl/mxv
	BYTE	W01
	BYTE		        17*FE11FootstepsofFateSme_mvl/mxv
	BYTE	W02
	BYTE		        18*FE11FootstepsofFateSme_mvl/mxv
	BYTE	W01
	BYTE		        19*FE11FootstepsofFateSme_mvl/mxv
	BYTE	W02
	BYTE		        20*FE11FootstepsofFateSme_mvl/mxv
	BYTE	W01
	BYTE		        21*FE11FootstepsofFateSme_mvl/mxv
	BYTE	W02
	BYTE		        22*FE11FootstepsofFateSme_mvl/mxv
	BYTE	W01
	BYTE		        23*FE11FootstepsofFateSme_mvl/mxv
	BYTE	W02
	BYTE		        24*FE11FootstepsofFateSme_mvl/mxv
	BYTE	W01
	BYTE		        25*FE11FootstepsofFateSme_mvl/mxv
	BYTE	W02
	BYTE		        26*FE11FootstepsofFateSme_mvl/mxv
	BYTE	W01
	BYTE		        28*FE11FootstepsofFateSme_mvl/mxv
	BYTE	W02
	BYTE		        28*FE11FootstepsofFateSme_mvl/mxv
	BYTE	W01
	BYTE		        30*FE11FootstepsofFateSme_mvl/mxv
	BYTE	W02
	BYTE		        31*FE11FootstepsofFateSme_mvl/mxv
	BYTE	W01
	BYTE		        32*FE11FootstepsofFateSme_mvl/mxv
	BYTE	W02
	BYTE		        33*FE11FootstepsofFateSme_mvl/mxv
	BYTE	W01
	BYTE		        35*FE11FootstepsofFateSme_mvl/mxv
	BYTE	W02
	BYTE		        36*FE11FootstepsofFateSme_mvl/mxv
	BYTE	W01
	BYTE		        37*FE11FootstepsofFateSme_mvl/mxv
	BYTE	W02
	BYTE		        39*FE11FootstepsofFateSme_mvl/mxv
	BYTE	W01
	BYTE		        40*FE11FootstepsofFateSme_mvl/mxv
	BYTE	W02
	BYTE		        41*FE11FootstepsofFateSme_mvl/mxv
	BYTE	W01
	BYTE		        43*FE11FootstepsofFateSme_mvl/mxv
	BYTE	W02
	BYTE		        44*FE11FootstepsofFateSme_mvl/mxv
	BYTE	W01
	BYTE		        46*FE11FootstepsofFateSme_mvl/mxv
	BYTE	W02
	BYTE		        48*FE11FootstepsofFateSme_mvl/mxv
	BYTE	W01
	BYTE		        49*FE11FootstepsofFateSme_mvl/mxv
	BYTE	W02
	BYTE		        51*FE11FootstepsofFateSme_mvl/mxv
	BYTE	W01
	BYTE		        53*FE11FootstepsofFateSme_mvl/mxv
	BYTE	W02
	BYTE		        54*FE11FootstepsofFateSme_mvl/mxv
	BYTE	W01
	BYTE		        56*FE11FootstepsofFateSme_mvl/mxv
	BYTE	W02
	BYTE		        58*FE11FootstepsofFateSme_mvl/mxv
	BYTE	W01
	BYTE		        60*FE11FootstepsofFateSme_mvl/mxv
	BYTE	W02
	BYTE		        61*FE11FootstepsofFateSme_mvl/mxv
	BYTE	W01
	BYTE		        64*FE11FootstepsofFateSme_mvl/mxv
	BYTE	W02
	BYTE		        65*FE11FootstepsofFateSme_mvl/mxv
	BYTE	W01
	BYTE		        68*FE11FootstepsofFateSme_mvl/mxv
	BYTE	W02
	BYTE		        70*FE11FootstepsofFateSme_mvl/mxv
	BYTE	W01
	BYTE		        73*FE11FootstepsofFateSme_mvl/mxv
	BYTE	W02
	BYTE		        75*FE11FootstepsofFateSme_mvl/mxv
	BYTE	W01
	BYTE		        77*FE11FootstepsofFateSme_mvl/mxv
	BYTE	W02
// 042   ----------------------------------------
	BYTE	PATT
	 POIN2	FE11FootstepsofFateSme_9_028
// 043   ----------------------------------------
	BYTE	W96
// 044   ----------------------------------------
	BYTE	W23
	BYTE	GoTo
	 POIN2	FE11FootstepsofFateSme_9_B1
FE11FootstepsofFateSme_9_B2:
	BYTE	FINE

//**************** Track 10 (Midi-Chn.11) ****************//

FE11FootstepsofFateSme_10:
	BYTE	KEYSH   FE11FootstepsofFateSme_key+0
// 000   ----------------------------------------
	BYTE		VOICE   61
	BYTE		MODT    0
	BYTE		LFOS    44
	BYTE	W24
	BYTE		VOL     72*FE11FootstepsofFateSme_mvl/mxv
	BYTE		PAN     c_v+63
	BYTE		VOL     21*FE11FootstepsofFateSme_mvl/mxv
	BYTE		BEND    c_v+1
	BYTE	W72
// 001   ----------------------------------------
	BYTE	W96
// 002   ----------------------------------------
	BYTE	W22
	BYTE		VOL     21*FE11FootstepsofFateSme_mvl/mxv
	BYTE	W06
	BYTE		        22*FE11FootstepsofFateSme_mvl/mxv
	BYTE	W02
	BYTE		N92     Cs2   v072
	BYTE	W01
	BYTE		VOL     22*FE11FootstepsofFateSme_mvl/mxv
	BYTE	W03
	BYTE		        23*FE11FootstepsofFateSme_mvl/mxv
	BYTE	W03
	BYTE		        23*FE11FootstepsofFateSme_mvl/mxv
	BYTE	W03
	BYTE		        24*FE11FootstepsofFateSme_mvl/mxv
	BYTE	W03
	BYTE		        24*FE11FootstepsofFateSme_mvl/mxv
	BYTE	W03
	BYTE		        25*FE11FootstepsofFateSme_mvl/mxv
	BYTE	W03
	BYTE		        26*FE11FootstepsofFateSme_mvl/mxv
	BYTE	W03
	BYTE		        27*FE11FootstepsofFateSme_mvl/mxv
	BYTE	W03
	BYTE		        27*FE11FootstepsofFateSme_mvl/mxv
	BYTE	W03
	BYTE		        28*FE11FootstepsofFateSme_mvl/mxv
	BYTE	W03
	BYTE		        30*FE11FootstepsofFateSme_mvl/mxv
	BYTE	W03
	BYTE		        31*FE11FootstepsofFateSme_mvl/mxv
	BYTE	W03
	BYTE		        31*FE11FootstepsofFateSme_mvl/mxv
	BYTE	W03
	BYTE		        33*FE11FootstepsofFateSme_mvl/mxv
	BYTE	W03
	BYTE		        34*FE11FootstepsofFateSme_mvl/mxv
	BYTE	W03
	BYTE		        35*FE11FootstepsofFateSme_mvl/mxv
	BYTE	W03
	BYTE		        37*FE11FootstepsofFateSme_mvl/mxv
	BYTE	W03
	BYTE		        39*FE11FootstepsofFateSme_mvl/mxv
	BYTE	W03
	BYTE		        40*FE11FootstepsofFateSme_mvl/mxv
	BYTE	W03
	BYTE		        43*FE11FootstepsofFateSme_mvl/mxv
	BYTE	W03
	BYTE		        45*FE11FootstepsofFateSme_mvl/mxv
	BYTE	W03
	BYTE		        48*FE11FootstepsofFateSme_mvl/mxv
	BYTE	W02
// 003   ----------------------------------------
	BYTE	W01
	BYTE		        51*FE11FootstepsofFateSme_mvl/mxv
	BYTE	W03
	BYTE		        54*FE11FootstepsofFateSme_mvl/mxv
	BYTE	W03
	BYTE		        58*FE11FootstepsofFateSme_mvl/mxv
	BYTE	W03
	BYTE		        62*FE11FootstepsofFateSme_mvl/mxv
	BYTE	W03
	BYTE		        68*FE11FootstepsofFateSme_mvl/mxv
	BYTE	W02
	BYTE		        72*FE11FootstepsofFateSme_mvl/mxv
	BYTE	W01
	BYTE		        70*FE11FootstepsofFateSme_mvl/mxv
	BYTE	W02
	BYTE		        68*FE11FootstepsofFateSme_mvl/mxv
	BYTE	W01
	BYTE		        65*FE11FootstepsofFateSme_mvl/mxv
	BYTE	W02
	BYTE		        64*FE11FootstepsofFateSme_mvl/mxv
	BYTE	W01
	BYTE		        61*FE11FootstepsofFateSme_mvl/mxv
	BYTE	W02
	BYTE		        59*FE11FootstepsofFateSme_mvl/mxv
	BYTE	W06
	BYTE		N05     Bn2   v068
	BYTE	W01
	BYTE		VOL     60*FE11FootstepsofFateSme_mvl/mxv
	BYTE	W03
	BYTE		        60*FE11FootstepsofFateSme_mvl/mxv
	BYTE	W02
	BYTE		N05     An2 
	BYTE	W02
	BYTE		VOL     61*FE11FootstepsofFateSme_mvl/mxv
	BYTE	W03
	BYTE		        61*FE11FootstepsofFateSme_mvl/mxv
	BYTE	W01
	BYTE		N05     Gs2   v072
	BYTE	W03
	BYTE		VOL     62*FE11FootstepsofFateSme_mvl/mxv
	BYTE	W03
	BYTE		        62*FE11FootstepsofFateSme_mvl/mxv
	BYTE		N05     En2   v064
	BYTE	W04
	BYTE		VOL     63*FE11FootstepsofFateSme_mvl/mxv
	BYTE	W02
	BYTE		N05     Dn3   v052
	BYTE	W01
	BYTE		VOL     64*FE11FootstepsofFateSme_mvl/mxv
	BYTE	W04
	BYTE		        64*FE11FootstepsofFateSme_mvl/mxv
	BYTE	W01
	BYTE		N05     Cs3   v056
	BYTE	W02
	BYTE		VOL     65*FE11FootstepsofFateSme_mvl/mxv
	BYTE	W04
	BYTE		        65*FE11FootstepsofFateSme_mvl/mxv
	BYTE		N05     Bn2   v064
	BYTE	W03
	BYTE		VOL     66*FE11FootstepsofFateSme_mvl/mxv
	BYTE	W03
	BYTE		N05     Gs2   v072
	BYTE	W01
	BYTE		VOL     66*FE11FootstepsofFateSme_mvl/mxv
	BYTE	W03
	BYTE		        67*FE11FootstepsofFateSme_mvl/mxv
	BYTE	W02
	BYTE		N05     Fs3   v056
	BYTE	W02
	BYTE		VOL     68*FE11FootstepsofFateSme_mvl/mxv
	BYTE	W03
	BYTE		        68*FE11FootstepsofFateSme_mvl/mxv
	BYTE	W01
	BYTE		N05     En3   v052
	BYTE	W03
	BYTE		VOL     69*FE11FootstepsofFateSme_mvl/mxv
	BYTE	W03
	BYTE		        69*FE11FootstepsofFateSme_mvl/mxv
	BYTE		N05     Dn3   v056
	BYTE	W04
	BYTE		VOL     70*FE11FootstepsofFateSme_mvl/mxv
	BYTE	W02
// 004   ----------------------------------------
	BYTE		N05     Bn2   v064
	BYTE	W01
	BYTE		VOL     70*FE11FootstepsofFateSme_mvl/mxv
	BYTE	W04
	BYTE		        72*FE11FootstepsofFateSme_mvl/mxv
	BYTE	W01
	BYTE		N05     An3   v056
	BYTE	W06
	BYTE		        Gs3 
	BYTE	W06
	BYTE		        En3   v064
	BYTE	W06
	BYTE		        Bn2   v068
	BYTE	W07
	BYTE		VOL     72*FE11FootstepsofFateSme_mvl/mxv
	BYTE	W03
	BYTE		        71*FE11FootstepsofFateSme_mvl/mxv
	BYTE	W01
	BYTE		        70*FE11FootstepsofFateSme_mvl/mxv
	BYTE	W02
	BYTE		        70*FE11FootstepsofFateSme_mvl/mxv
	BYTE	W01
	BYTE		        69*FE11FootstepsofFateSme_mvl/mxv
	BYTE	W02
	BYTE		        69*FE11FootstepsofFateSme_mvl/mxv
	BYTE	W01
	BYTE		        68*FE11FootstepsofFateSme_mvl/mxv
	BYTE	W02
	BYTE		        68*FE11FootstepsofFateSme_mvl/mxv
	BYTE	W01
	BYTE		        67*FE11FootstepsofFateSme_mvl/mxv
	BYTE	W02
	BYTE		        66*FE11FootstepsofFateSme_mvl/mxv
	BYTE	W01
	BYTE		        66*FE11FootstepsofFateSme_mvl/mxv
	BYTE	W02
	BYTE		        65*FE11FootstepsofFateSme_mvl/mxv
	BYTE	W01
	BYTE		        65*FE11FootstepsofFateSme_mvl/mxv
	BYTE	W02
	BYTE		        64*FE11FootstepsofFateSme_mvl/mxv
	BYTE	W01
	BYTE		        64*FE11FootstepsofFateSme_mvl/mxv
	BYTE	W02
	BYTE		        63*FE11FootstepsofFateSme_mvl/mxv
	BYTE	W01
	BYTE		        62*FE11FootstepsofFateSme_mvl/mxv
	BYTE	W02
	BYTE		        61*FE11FootstepsofFateSme_mvl/mxv
	BYTE	W01
	BYTE		        61*FE11FootstepsofFateSme_mvl/mxv
	BYTE	W02
	BYTE		        60*FE11FootstepsofFateSme_mvl/mxv
	BYTE	W01
	BYTE		        59*FE11FootstepsofFateSme_mvl/mxv
	BYTE	W02
	BYTE		        58*FE11FootstepsofFateSme_mvl/mxv
	BYTE	W01
	BYTE		        58*FE11FootstepsofFateSme_mvl/mxv
	BYTE	W02
	BYTE		        57*FE11FootstepsofFateSme_mvl/mxv
	BYTE	W01
	BYTE		        56*FE11FootstepsofFateSme_mvl/mxv
	BYTE	W02
	BYTE		        55*FE11FootstepsofFateSme_mvl/mxv
	BYTE	W01
	BYTE		        54*FE11FootstepsofFateSme_mvl/mxv
	BYTE	W02
	BYTE		        53*FE11FootstepsofFateSme_mvl/mxv
	BYTE	W01
	BYTE		        53*FE11FootstepsofFateSme_mvl/mxv
	BYTE	W02
	BYTE		        52*FE11FootstepsofFateSme_mvl/mxv
	BYTE	W01
	BYTE		        51*FE11FootstepsofFateSme_mvl/mxv
	BYTE	W02
	BYTE		        50*FE11FootstepsofFateSme_mvl/mxv
	BYTE	W01
	BYTE		        49*FE11FootstepsofFateSme_mvl/mxv
	BYTE	W02
	BYTE		        48*FE11FootstepsofFateSme_mvl/mxv
	BYTE	W01
	BYTE		        47*FE11FootstepsofFateSme_mvl/mxv
	BYTE	W02
	BYTE		        45*FE11FootstepsofFateSme_mvl/mxv
	BYTE	W01
	BYTE		        44*FE11FootstepsofFateSme_mvl/mxv
	BYTE	W02
	BYTE		        43*FE11FootstepsofFateSme_mvl/mxv
	BYTE	W01
	BYTE		        42*FE11FootstepsofFateSme_mvl/mxv
	BYTE	W02
	BYTE		        40*FE11FootstepsofFateSme_mvl/mxv
	BYTE	W01
	BYTE		        39*FE11FootstepsofFateSme_mvl/mxv
	BYTE	W02
	BYTE		        38*FE11FootstepsofFateSme_mvl/mxv
	BYTE	W01
	BYTE		        36*FE11FootstepsofFateSme_mvl/mxv
	BYTE	W01
// 005   ----------------------------------------
	BYTE	W01
	BYTE		        35*FE11FootstepsofFateSme_mvl/mxv
	BYTE	W01
	BYTE		        34*FE11FootstepsofFateSme_mvl/mxv
	BYTE	W02
	BYTE		        32*FE11FootstepsofFateSme_mvl/mxv
	BYTE	W01
	BYTE		        30*FE11FootstepsofFateSme_mvl/mxv
	BYTE	W02
	BYTE		        28*FE11FootstepsofFateSme_mvl/mxv
	BYTE	W01
	BYTE		        27*FE11FootstepsofFateSme_mvl/mxv
	BYTE	W02
	BYTE		        25*FE11FootstepsofFateSme_mvl/mxv
	BYTE	W01
	BYTE		        23*FE11FootstepsofFateSme_mvl/mxv
	BYTE	W02
	BYTE		        21*FE11FootstepsofFateSme_mvl/mxv
	BYTE	W01
	BYTE		        19*FE11FootstepsofFateSme_mvl/mxv
	BYTE	W02
	BYTE		        17*FE11FootstepsofFateSme_mvl/mxv
	BYTE	W01
	BYTE		        15*FE11FootstepsofFateSme_mvl/mxv
	BYTE	W78
	BYTE	W01
// 006   ----------------------------------------
	BYTE	W24
FE11FootstepsofFateSme_10_B1:
	BYTE		PAN     c_v+63
	BYTE		VOL     15*FE11FootstepsofFateSme_mvl/mxv
	BYTE	W72
// 007   ----------------------------------------
	BYTE	W96
// 008   ----------------------------------------
	BYTE	W96
// 009   ----------------------------------------
	BYTE	W96
// 010   ----------------------------------------
	BYTE	W96
// 011   ----------------------------------------
	BYTE	W96
// 012   ----------------------------------------
	BYTE	W96
// 013   ----------------------------------------
	BYTE	W96
// 014   ----------------------------------------
	BYTE	W96
// 015   ----------------------------------------
	BYTE	W96
// 016   ----------------------------------------
	BYTE	W23
	BYTE		        15*FE11FootstepsofFateSme_mvl/mxv
	BYTE	W01
	BYTE		        25*FE11FootstepsofFateSme_mvl/mxv
	BYTE		PAN     c_v-17
	BYTE		VOL     78*FE11FootstepsofFateSme_mvl/mxv
	BYTE		N48     An1   v088
	BYTE	W01
	BYTE		VOL     51*FE11FootstepsofFateSme_mvl/mxv
	BYTE	W02
	BYTE		        52*FE11FootstepsofFateSme_mvl/mxv
	BYTE	W01
	BYTE		        53*FE11FootstepsofFateSme_mvl/mxv
	BYTE	W02
	BYTE		        54*FE11FootstepsofFateSme_mvl/mxv
	BYTE	W01
	BYTE		        55*FE11FootstepsofFateSme_mvl/mxv
	BYTE	W02
	BYTE		        56*FE11FootstepsofFateSme_mvl/mxv
	BYTE	W01
	BYTE		        58*FE11FootstepsofFateSme_mvl/mxv
	BYTE	W02
	BYTE		        59*FE11FootstepsofFateSme_mvl/mxv
	BYTE	W01
	BYTE		        61*FE11FootstepsofFateSme_mvl/mxv
	BYTE	W02
	BYTE		        62*FE11FootstepsofFateSme_mvl/mxv
	BYTE	W01
	BYTE		        64*FE11FootstepsofFateSme_mvl/mxv
	BYTE	W02
	BYTE		        65*FE11FootstepsofFateSme_mvl/mxv
	BYTE	W01
	BYTE		        67*FE11FootstepsofFateSme_mvl/mxv
	BYTE	W02
	BYTE		        69*FE11FootstepsofFateSme_mvl/mxv
	BYTE	W01
	BYTE		        71*FE11FootstepsofFateSme_mvl/mxv
	BYTE	W02
	BYTE		        73*FE11FootstepsofFateSme_mvl/mxv
	BYTE	W01
	BYTE		        75*FE11FootstepsofFateSme_mvl/mxv
	BYTE	W02
	BYTE		        77*FE11FootstepsofFateSme_mvl/mxv
	BYTE	W01
	BYTE		        80*FE11FootstepsofFateSme_mvl/mxv
	BYTE	W02
	BYTE		        82*FE11FootstepsofFateSme_mvl/mxv
	BYTE	W01
	BYTE		        85*FE11FootstepsofFateSme_mvl/mxv
	BYTE	W02
	BYTE		        88*FE11FootstepsofFateSme_mvl/mxv
	BYTE	W01
	BYTE		        92*FE11FootstepsofFateSme_mvl/mxv
	BYTE	W02
	BYTE		        95*FE11FootstepsofFateSme_mvl/mxv
	BYTE	W01
	BYTE		        98*FE11FootstepsofFateSme_mvl/mxv
	BYTE	W02
	BYTE		        102*FE11FootstepsofFateSme_mvl/mxv
	BYTE	W01
	BYTE		        107*FE11FootstepsofFateSme_mvl/mxv
	BYTE	W02
	BYTE		        112*FE11FootstepsofFateSme_mvl/mxv
	BYTE	W01
	BYTE		        117*FE11FootstepsofFateSme_mvl/mxv
	BYTE	W01
	BYTE		        122*FE11FootstepsofFateSme_mvl/mxv
	BYTE	W10
	BYTE		N03     An1   v092
	BYTE	W06
	BYTE		        Cs2   v088
	BYTE	W06
	BYTE		N23     An2   v068
	BYTE	W06
// 017   ----------------------------------------
	BYTE	W18
	BYTE		N02     Gs2   v096
	BYTE	W03
	BYTE		        An2 
	BYTE	W03
	BYTE		N23     Gs2   v080
	BYTE	W12
	BYTE		VOL     122*FE11FootstepsofFateSme_mvl/mxv
	BYTE	W01
	BYTE		        121*FE11FootstepsofFateSme_mvl/mxv
	BYTE	W02
	BYTE		        119*FE11FootstepsofFateSme_mvl/mxv
	BYTE	W01
	BYTE		        117*FE11FootstepsofFateSme_mvl/mxv
	BYTE	W02
	BYTE		        115*FE11FootstepsofFateSme_mvl/mxv
	BYTE	W01
	BYTE		        113*FE11FootstepsofFateSme_mvl/mxv
	BYTE	W02
	BYTE		        110*FE11FootstepsofFateSme_mvl/mxv
	BYTE	W01
	BYTE		        107*FE11FootstepsofFateSme_mvl/mxv
	BYTE	W02
	BYTE		        103*FE11FootstepsofFateSme_mvl/mxv
	BYTE		N23     En2   v088
	BYTE	W01
	BYTE		VOL     99*FE11FootstepsofFateSme_mvl/mxv
	BYTE	W02
	BYTE		        96*FE11FootstepsofFateSme_mvl/mxv
	BYTE	W01
	BYTE		        90*FE11FootstepsofFateSme_mvl/mxv
	BYTE	W02
	BYTE		        84*FE11FootstepsofFateSme_mvl/mxv
	BYTE	W01
	BYTE		        76*FE11FootstepsofFateSme_mvl/mxv
	BYTE	W01
	BYTE		        69*FE11FootstepsofFateSme_mvl/mxv
	BYTE	W03
	BYTE		        70*FE11FootstepsofFateSme_mvl/mxv
	BYTE	W02
	BYTE		        71*FE11FootstepsofFateSme_mvl/mxv
	BYTE	W01
	BYTE		        72*FE11FootstepsofFateSme_mvl/mxv
	BYTE	W02
	BYTE		        73*FE11FootstepsofFateSme_mvl/mxv
	BYTE	W01
	BYTE		        74*FE11FootstepsofFateSme_mvl/mxv
	BYTE	W02
	BYTE		        75*FE11FootstepsofFateSme_mvl/mxv
	BYTE	W01
	BYTE		        76*FE11FootstepsofFateSme_mvl/mxv
	BYTE	W02
	BYTE		        77*FE11FootstepsofFateSme_mvl/mxv
	BYTE	W01
	BYTE		        78*FE11FootstepsofFateSme_mvl/mxv
	BYTE	W01
	BYTE		N32     Bn1   v096
	BYTE	W01
	BYTE		VOL     80*FE11FootstepsofFateSme_mvl/mxv
	BYTE	W01
	BYTE		        81*FE11FootstepsofFateSme_mvl/mxv
	BYTE	W02
	BYTE		        82*FE11FootstepsofFateSme_mvl/mxv
	BYTE	W01
	BYTE		        84*FE11FootstepsofFateSme_mvl/mxv
	BYTE	W02
	BYTE		        85*FE11FootstepsofFateSme_mvl/mxv
	BYTE	W01
	BYTE		        87*FE11FootstepsofFateSme_mvl/mxv
	BYTE	W02
	BYTE		        89*FE11FootstepsofFateSme_mvl/mxv
	BYTE	W01
	BYTE		        91*FE11FootstepsofFateSme_mvl/mxv
	BYTE	W02
	BYTE		        92*FE11FootstepsofFateSme_mvl/mxv
	BYTE	W01
	BYTE		        94*FE11FootstepsofFateSme_mvl/mxv
	BYTE	W02
	BYTE		        96*FE11FootstepsofFateSme_mvl/mxv
	BYTE	W01
	BYTE		        98*FE11FootstepsofFateSme_mvl/mxv
	BYTE	W02
	BYTE		        100*FE11FootstepsofFateSme_mvl/mxv
	BYTE	W01
	BYTE		        102*FE11FootstepsofFateSme_mvl/mxv
	BYTE	W02
	BYTE		        105*FE11FootstepsofFateSme_mvl/mxv
	BYTE	W01
	BYTE		        107*FE11FootstepsofFateSme_mvl/mxv
	BYTE	W01
// 018   ----------------------------------------
	BYTE	W01
	BYTE		        110*FE11FootstepsofFateSme_mvl/mxv
	BYTE	W01
	BYTE		        113*FE11FootstepsofFateSme_mvl/mxv
	BYTE	W02
	BYTE		        116*FE11FootstepsofFateSme_mvl/mxv
	BYTE	W01
	BYTE		        120*FE11FootstepsofFateSme_mvl/mxv
	BYTE	W01
	BYTE		        122*FE11FootstepsofFateSme_mvl/mxv
	BYTE	W06
	BYTE		N05     En1   v080
	BYTE		N05     Cs2 
	BYTE	W06
	BYTE		        Fs1   v084
	BYTE		N05     Dn2   v080
	BYTE	W06
	BYTE		N23     Gn1   v076
	BYTE		N23     En2   v084
	BYTE	W19
	BYTE		VOL     122*FE11FootstepsofFateSme_mvl/mxv
	BYTE	W05
	BYTE		N23     Bn1   v076
	BYTE		N23     Gn2   v092
	BYTE	W01
	BYTE		VOL     121*FE11FootstepsofFateSme_mvl/mxv
	BYTE	W03
	BYTE		        120*FE11FootstepsofFateSme_mvl/mxv
	BYTE	W06
	BYTE		        119*FE11FootstepsofFateSme_mvl/mxv
	BYTE	W03
	BYTE		        118*FE11FootstepsofFateSme_mvl/mxv
	BYTE	W03
	BYTE		        117*FE11FootstepsofFateSme_mvl/mxv
	BYTE	W03
	BYTE		        116*FE11FootstepsofFateSme_mvl/mxv
	BYTE	W03
	BYTE		        115*FE11FootstepsofFateSme_mvl/mxv
	BYTE	W02
	BYTE		N44     En2   v076
	BYTE		N32     Bn2 
	BYTE	W01
	BYTE		VOL     114*FE11FootstepsofFateSme_mvl/mxv
	BYTE	W03
	BYTE		        113*FE11FootstepsofFateSme_mvl/mxv
	BYTE	W03
	BYTE		        111*FE11FootstepsofFateSme_mvl/mxv
	BYTE	W03
	BYTE		        110*FE11FootstepsofFateSme_mvl/mxv
	BYTE	W03
	BYTE		        109*FE11FootstepsofFateSme_mvl/mxv
	BYTE	W03
	BYTE		        107*FE11FootstepsofFateSme_mvl/mxv
	BYTE	W03
	BYTE		        105*FE11FootstepsofFateSme_mvl/mxv
	BYTE	W03
	BYTE		        103*FE11FootstepsofFateSme_mvl/mxv
	BYTE	W02
// 019   ----------------------------------------
	BYTE	W01
	BYTE		        101*FE11FootstepsofFateSme_mvl/mxv
	BYTE	W03
	BYTE		        99*FE11FootstepsofFateSme_mvl/mxv
	BYTE	W03
	BYTE		        97*FE11FootstepsofFateSme_mvl/mxv
	BYTE	W03
	BYTE		        95*FE11FootstepsofFateSme_mvl/mxv
	BYTE	W02
	BYTE		N05     An2   v080
	BYTE	W01
	BYTE		VOL     92*FE11FootstepsofFateSme_mvl/mxv
	BYTE	W03
	BYTE		        89*FE11FootstepsofFateSme_mvl/mxv
	BYTE	W02
	BYTE		N05     Gn2   v096
	BYTE	W01
	BYTE		VOL     85*FE11FootstepsofFateSme_mvl/mxv
	BYTE	W03
	BYTE		        80*FE11FootstepsofFateSme_mvl/mxv
	BYTE	W02
	BYTE		        77*FE11FootstepsofFateSme_mvl/mxv
	BYTE		N23     Gs1   v072
	BYTE		N05     Gs2   v080
	BYTE	W06
	BYTE		VOL     78*FE11FootstepsofFateSme_mvl/mxv
	BYTE		N06     As2   v096
	BYTE	W06
	BYTE		VOL     79*FE11FootstepsofFateSme_mvl/mxv
	BYTE		N17     Cn3   v076
	BYTE	W03
	BYTE		VOL     80*FE11FootstepsofFateSme_mvl/mxv
	BYTE	W06
	BYTE		        81*FE11FootstepsofFateSme_mvl/mxv
	BYTE	W03
	BYTE		        82*FE11FootstepsofFateSme_mvl/mxv
	BYTE		N23     As1 
	BYTE	W03
	BYTE		VOL     83*FE11FootstepsofFateSme_mvl/mxv
	BYTE	W03
	BYTE		        84*FE11FootstepsofFateSme_mvl/mxv
	BYTE		N05     As2   v092
	BYTE	W03
	BYTE		VOL     85*FE11FootstepsofFateSme_mvl/mxv
	BYTE	W03
	BYTE		        86*FE11FootstepsofFateSme_mvl/mxv
	BYTE		N05     Cn3   v072
	BYTE	W03
	BYTE		VOL     87*FE11FootstepsofFateSme_mvl/mxv
	BYTE	W03
	BYTE		        88*FE11FootstepsofFateSme_mvl/mxv
	BYTE		N05     Dn3 
	BYTE	W03
	BYTE		VOL     89*FE11FootstepsofFateSme_mvl/mxv
	BYTE	W03
	BYTE		        90*FE11FootstepsofFateSme_mvl/mxv
	BYTE		N23     Cn2   v080
	BYTE		N44     Ds3   v068
	BYTE	W03
	BYTE		VOL     92*FE11FootstepsofFateSme_mvl/mxv
	BYTE	W03
	BYTE		        93*FE11FootstepsofFateSme_mvl/mxv
	BYTE	W03
	BYTE		        95*FE11FootstepsofFateSme_mvl/mxv
	BYTE	W03
	BYTE		        96*FE11FootstepsofFateSme_mvl/mxv
	BYTE	W03
	BYTE		        97*FE11FootstepsofFateSme_mvl/mxv
	BYTE	W03
	BYTE		        99*FE11FootstepsofFateSme_mvl/mxv
	BYTE	W03
	BYTE		        101*FE11FootstepsofFateSme_mvl/mxv
	BYTE	W03
// 020   ----------------------------------------
	BYTE		        104*FE11FootstepsofFateSme_mvl/mxv
	BYTE		N05     Gs1   v076
	BYTE	W03
	BYTE		VOL     106*FE11FootstepsofFateSme_mvl/mxv
	BYTE	W03
	BYTE		        109*FE11FootstepsofFateSme_mvl/mxv
	BYTE		N05     As1 
	BYTE	W03
	BYTE		VOL     113*FE11FootstepsofFateSme_mvl/mxv
	BYTE	W03
	BYTE		        116*FE11FootstepsofFateSme_mvl/mxv
	BYTE		N05     Cn2   v072
	BYTE	W03
	BYTE		VOL     120*FE11FootstepsofFateSme_mvl/mxv
	BYTE	W01
	BYTE		        122*FE11FootstepsofFateSme_mvl/mxv
	BYTE	W02
	BYTE		N05     Dn2 
	BYTE	W01
	BYTE		VOL     121*FE11FootstepsofFateSme_mvl/mxv
	BYTE	W01
	BYTE		        120*FE11FootstepsofFateSme_mvl/mxv
	BYTE	W02
	BYTE		        119*FE11FootstepsofFateSme_mvl/mxv
	BYTE	W01
	BYTE		        118*FE11FootstepsofFateSme_mvl/mxv
	BYTE	W01
	BYTE		N68     En2   v048
	BYTE		N11     Ds3   v036
	BYTE	W02
	BYTE		VOL     117*FE11FootstepsofFateSme_mvl/mxv
	BYTE	W02
	BYTE		        116*FE11FootstepsofFateSme_mvl/mxv
	BYTE	W01
	BYTE		        115*FE11FootstepsofFateSme_mvl/mxv
	BYTE	W02
	BYTE		        114*FE11FootstepsofFateSme_mvl/mxv
	BYTE	W01
	BYTE		        113*FE11FootstepsofFateSme_mvl/mxv
	BYTE	W02
	BYTE		        112*FE11FootstepsofFateSme_mvl/mxv
	BYTE	W01
	BYTE		        111*FE11FootstepsofFateSme_mvl/mxv
	BYTE	W02
	BYTE		        110*FE11FootstepsofFateSme_mvl/mxv
	BYTE	W01
	BYTE		        109*FE11FootstepsofFateSme_mvl/mxv
	BYTE	W02
	BYTE		        108*FE11FootstepsofFateSme_mvl/mxv
	BYTE	W01
	BYTE		        107*FE11FootstepsofFateSme_mvl/mxv
	BYTE	W02
	BYTE		        106*FE11FootstepsofFateSme_mvl/mxv
	BYTE	W01
	BYTE		        104*FE11FootstepsofFateSme_mvl/mxv
	BYTE	W02
	BYTE		        103*FE11FootstepsofFateSme_mvl/mxv
	BYTE	W01
	BYTE		        102*FE11FootstepsofFateSme_mvl/mxv
	BYTE	W02
	BYTE		        101*FE11FootstepsofFateSme_mvl/mxv
	BYTE	W01
	BYTE		        99*FE11FootstepsofFateSme_mvl/mxv
	BYTE	W02
	BYTE		        98*FE11FootstepsofFateSme_mvl/mxv
	BYTE	W01
	BYTE		        97*FE11FootstepsofFateSme_mvl/mxv
	BYTE	W02
	BYTE		        96*FE11FootstepsofFateSme_mvl/mxv
	BYTE	W01
	BYTE		        95*FE11FootstepsofFateSme_mvl/mxv
	BYTE	W02
	BYTE		        93*FE11FootstepsofFateSme_mvl/mxv
	BYTE	W01
	BYTE		        92*FE11FootstepsofFateSme_mvl/mxv
	BYTE	W02
	BYTE		        90*FE11FootstepsofFateSme_mvl/mxv
	BYTE	W01
	BYTE		        89*FE11FootstepsofFateSme_mvl/mxv
	BYTE	W02
	BYTE		        87*FE11FootstepsofFateSme_mvl/mxv
	BYTE	W01
	BYTE		        85*FE11FootstepsofFateSme_mvl/mxv
	BYTE	W02
	BYTE		        83*FE11FootstepsofFateSme_mvl/mxv
	BYTE	W01
	BYTE		        82*FE11FootstepsofFateSme_mvl/mxv
	BYTE	W02
	BYTE		        80*FE11FootstepsofFateSme_mvl/mxv
	BYTE	W01
	BYTE		        78*FE11FootstepsofFateSme_mvl/mxv
	BYTE	W02
	BYTE		        76*FE11FootstepsofFateSme_mvl/mxv
	BYTE	W01
	BYTE		        73*FE11FootstepsofFateSme_mvl/mxv
	BYTE	W02
	BYTE		        72*FE11FootstepsofFateSme_mvl/mxv
	BYTE	W01
	BYTE		        70*FE11FootstepsofFateSme_mvl/mxv
	BYTE	W02
	BYTE		        68*FE11FootstepsofFateSme_mvl/mxv
	BYTE	W01
	BYTE		        65*FE11FootstepsofFateSme_mvl/mxv
	BYTE	W02
	BYTE		        63*FE11FootstepsofFateSme_mvl/mxv
	BYTE	W01
	BYTE		        60*FE11FootstepsofFateSme_mvl/mxv
	BYTE	W02
	BYTE		        57*FE11FootstepsofFateSme_mvl/mxv
	BYTE	W01
	BYTE		        54*FE11FootstepsofFateSme_mvl/mxv
	BYTE	W02
	BYTE		        51*FE11FootstepsofFateSme_mvl/mxv
	BYTE	W01
	BYTE		        48*FE11FootstepsofFateSme_mvl/mxv
	BYTE	W02
	BYTE		        46*FE11FootstepsofFateSme_mvl/mxv
	BYTE	W01
	BYTE		        43*FE11FootstepsofFateSme_mvl/mxv
	BYTE	W02
	BYTE		        39*FE11FootstepsofFateSme_mvl/mxv
	BYTE	W01
	BYTE		        35*FE11FootstepsofFateSme_mvl/mxv
	BYTE	W01
// 021   ----------------------------------------
	BYTE	W01
	BYTE		        31*FE11FootstepsofFateSme_mvl/mxv
	BYTE	W01
	BYTE		        27*FE11FootstepsofFateSme_mvl/mxv
	BYTE	W02
	BYTE		        24*FE11FootstepsofFateSme_mvl/mxv
	BYTE	W20
	BYTE		        61*FE11FootstepsofFateSme_mvl/mxv
	BYTE		N44     Fs1   v088
	BYTE	W01
	BYTE		VOL     64*FE11FootstepsofFateSme_mvl/mxv
	BYTE	W02
	BYTE		        68*FE11FootstepsofFateSme_mvl/mxv
	BYTE	W01
	BYTE		        72*FE11FootstepsofFateSme_mvl/mxv
	BYTE	W02
	BYTE		        75*FE11FootstepsofFateSme_mvl/mxv
	BYTE	W01
	BYTE		        79*FE11FootstepsofFateSme_mvl/mxv
	BYTE	W02
	BYTE		        83*FE11FootstepsofFateSme_mvl/mxv
	BYTE	W01
	BYTE		        87*FE11FootstepsofFateSme_mvl/mxv
	BYTE	W02
	BYTE		        91*FE11FootstepsofFateSme_mvl/mxv
	BYTE	W01
	BYTE		        95*FE11FootstepsofFateSme_mvl/mxv
	BYTE	W01
	BYTE		        97*FE11FootstepsofFateSme_mvl/mxv
	BYTE	W06
	BYTE		        96*FE11FootstepsofFateSme_mvl/mxv
	BYTE	W06
	BYTE		        95*FE11FootstepsofFateSme_mvl/mxv
	BYTE	W07
	BYTE		        94*FE11FootstepsofFateSme_mvl/mxv
	BYTE	W03
	BYTE		        93*FE11FootstepsofFateSme_mvl/mxv
	BYTE	W06
	BYTE		        92*FE11FootstepsofFateSme_mvl/mxv
	BYTE	W03
	BYTE		        91*FE11FootstepsofFateSme_mvl/mxv
	BYTE	W03
	BYTE		N44     Bn1 
	BYTE	W03
	BYTE		VOL     90*FE11FootstepsofFateSme_mvl/mxv
	BYTE	W04
	BYTE		        89*FE11FootstepsofFateSme_mvl/mxv
	BYTE	W03
	BYTE		        88*FE11FootstepsofFateSme_mvl/mxv
	BYTE	W03
	BYTE		        87*FE11FootstepsofFateSme_mvl/mxv
	BYTE	W03
	BYTE		        86*FE11FootstepsofFateSme_mvl/mxv
	BYTE	W03
	BYTE		        85*FE11FootstepsofFateSme_mvl/mxv
	BYTE	W03
	BYTE		        84*FE11FootstepsofFateSme_mvl/mxv
	BYTE	W02
// 022   ----------------------------------------
	BYTE	W01
	BYTE		        83*FE11FootstepsofFateSme_mvl/mxv
	BYTE	W04
	BYTE		        81*FE11FootstepsofFateSme_mvl/mxv
	BYTE	W03
	BYTE		        80*FE11FootstepsofFateSme_mvl/mxv
	BYTE	W03
	BYTE		        78*FE11FootstepsofFateSme_mvl/mxv
	BYTE	W03
	BYTE		        77*FE11FootstepsofFateSme_mvl/mxv
	BYTE	W03
	BYTE		        75*FE11FootstepsofFateSme_mvl/mxv
	BYTE	W03
	BYTE		        73*FE11FootstepsofFateSme_mvl/mxv
	BYTE	W04
	BYTE		        72*FE11FootstepsofFateSme_mvl/mxv
	BYTE		N44     Cs2 
	BYTE	W06
	BYTE		VOL     71*FE11FootstepsofFateSme_mvl/mxv
	BYTE	W03
	BYTE		        70*FE11FootstepsofFateSme_mvl/mxv
	BYTE	W03
	BYTE		        69*FE11FootstepsofFateSme_mvl/mxv
	BYTE	W03
	BYTE		        68*FE11FootstepsofFateSme_mvl/mxv
	BYTE	W03
	BYTE		        66*FE11FootstepsofFateSme_mvl/mxv
	BYTE	W03
	BYTE		        65*FE11FootstepsofFateSme_mvl/mxv
	BYTE	W03
	BYTE		        64*FE11FootstepsofFateSme_mvl/mxv
	BYTE	W03
	BYTE		        62*FE11FootstepsofFateSme_mvl/mxv
	BYTE	W03
	BYTE		        60*FE11FootstepsofFateSme_mvl/mxv
	BYTE	W03
	BYTE		        59*FE11FootstepsofFateSme_mvl/mxv
	BYTE	W03
	BYTE		        56*FE11FootstepsofFateSme_mvl/mxv
	BYTE	W03
	BYTE		        54*FE11FootstepsofFateSme_mvl/mxv
	BYTE	W03
	BYTE		        51*FE11FootstepsofFateSme_mvl/mxv
	BYTE	W03
	BYTE		        48*FE11FootstepsofFateSme_mvl/mxv
	BYTE	W03
	BYTE		        49*FE11FootstepsofFateSme_mvl/mxv
	BYTE		N44     Bn1 
	BYTE	W01
	BYTE		VOL     50*FE11FootstepsofFateSme_mvl/mxv
	BYTE	W03
	BYTE		        51*FE11FootstepsofFateSme_mvl/mxv
	BYTE	W02
	BYTE		        52*FE11FootstepsofFateSme_mvl/mxv
	BYTE	W01
	BYTE		        53*FE11FootstepsofFateSme_mvl/mxv
	BYTE	W02
	BYTE		        54*FE11FootstepsofFateSme_mvl/mxv
	BYTE	W01
	BYTE		        55*FE11FootstepsofFateSme_mvl/mxv
	BYTE	W02
	BYTE		        56*FE11FootstepsofFateSme_mvl/mxv
	BYTE	W01
	BYTE		        57*FE11FootstepsofFateSme_mvl/mxv
	BYTE	W02
	BYTE		        58*FE11FootstepsofFateSme_mvl/mxv
	BYTE	W01
	BYTE		        59*FE11FootstepsofFateSme_mvl/mxv
	BYTE	W02
	BYTE		        60*FE11FootstepsofFateSme_mvl/mxv
	BYTE	W01
	BYTE		        61*FE11FootstepsofFateSme_mvl/mxv
	BYTE	W02
	BYTE		        63*FE11FootstepsofFateSme_mvl/mxv
	BYTE	W01
	BYTE		        64*FE11FootstepsofFateSme_mvl/mxv
	BYTE	W02
// 023   ----------------------------------------
	BYTE		        66*FE11FootstepsofFateSme_mvl/mxv
	BYTE	W01
	BYTE		        67*FE11FootstepsofFateSme_mvl/mxv
	BYTE	W02
	BYTE		        69*FE11FootstepsofFateSme_mvl/mxv
	BYTE	W01
	BYTE		        71*FE11FootstepsofFateSme_mvl/mxv
	BYTE	W02
	BYTE		        72*FE11FootstepsofFateSme_mvl/mxv
	BYTE	W01
	BYTE		        73*FE11FootstepsofFateSme_mvl/mxv
	BYTE	W02
	BYTE		        75*FE11FootstepsofFateSme_mvl/mxv
	BYTE	W01
	BYTE		        78*FE11FootstepsofFateSme_mvl/mxv
	BYTE	W02
	BYTE		        80*FE11FootstepsofFateSme_mvl/mxv
	BYTE	W01
	BYTE		        83*FE11FootstepsofFateSme_mvl/mxv
	BYTE	W02
	BYTE		        85*FE11FootstepsofFateSme_mvl/mxv
	BYTE	W01
	BYTE		        88*FE11FootstepsofFateSme_mvl/mxv
	BYTE	W02
	BYTE		        92*FE11FootstepsofFateSme_mvl/mxv
	BYTE	W01
	BYTE		        95*FE11FootstepsofFateSme_mvl/mxv
	BYTE	W01
	BYTE		        97*FE11FootstepsofFateSme_mvl/mxv
	BYTE	W04
	BYTE		N44     Fs2 
	BYTE	W02
	BYTE		VOL     97*FE11FootstepsofFateSme_mvl/mxv
	BYTE	W06
	BYTE		        96*FE11FootstepsofFateSme_mvl/mxv
	BYTE	W06
	BYTE		        95*FE11FootstepsofFateSme_mvl/mxv
	BYTE	W03
	BYTE		        94*FE11FootstepsofFateSme_mvl/mxv
	BYTE	W06
	BYTE		        93*FE11FootstepsofFateSme_mvl/mxv
	BYTE	W03
	BYTE		        92*FE11FootstepsofFateSme_mvl/mxv
	BYTE	W03
	BYTE		        91*FE11FootstepsofFateSme_mvl/mxv
	BYTE	W03
	BYTE		        90*FE11FootstepsofFateSme_mvl/mxv
	BYTE	W06
	BYTE		        89*FE11FootstepsofFateSme_mvl/mxv
	BYTE	W03
	BYTE		        88*FE11FootstepsofFateSme_mvl/mxv
	BYTE	W03
	BYTE		        87*FE11FootstepsofFateSme_mvl/mxv
	BYTE	W03
	BYTE		        86*FE11FootstepsofFateSme_mvl/mxv
	BYTE	W01
	BYTE		N44     En2 
	BYTE	W02
	BYTE		VOL     85*FE11FootstepsofFateSme_mvl/mxv
	BYTE	W03
	BYTE		        83*FE11FootstepsofFateSme_mvl/mxv
	BYTE	W03
	BYTE		        82*FE11FootstepsofFateSme_mvl/mxv
	BYTE	W03
	BYTE		        81*FE11FootstepsofFateSme_mvl/mxv
	BYTE	W03
	BYTE		        80*FE11FootstepsofFateSme_mvl/mxv
	BYTE	W03
	BYTE		        78*FE11FootstepsofFateSme_mvl/mxv
	BYTE	W03
	BYTE		        77*FE11FootstepsofFateSme_mvl/mxv
	BYTE	W03
	BYTE		        75*FE11FootstepsofFateSme_mvl/mxv
	BYTE	W01
// 024   ----------------------------------------
	BYTE	W02
	BYTE		        73*FE11FootstepsofFateSme_mvl/mxv
	BYTE	W03
	BYTE		        72*FE11FootstepsofFateSme_mvl/mxv
	BYTE	W03
	BYTE		        70*FE11FootstepsofFateSme_mvl/mxv
	BYTE	W03
	BYTE		        68*FE11FootstepsofFateSme_mvl/mxv
	BYTE	W03
	BYTE		        66*FE11FootstepsofFateSme_mvl/mxv
	BYTE	W03
	BYTE		        64*FE11FootstepsofFateSme_mvl/mxv
	BYTE	W03
	BYTE		        61*FE11FootstepsofFateSme_mvl/mxv
	BYTE	W03
	BYTE		        58*FE11FootstepsofFateSme_mvl/mxv
	BYTE	W01
	BYTE		        101*FE11FootstepsofFateSme_mvl/mxv
	BYTE		N05     En2   v056
	BYTE	W06
	BYTE		        Fs2   v052
	BYTE	W06
	BYTE		        Gn2   v060
	BYTE	W06
	BYTE		        Fs2   v036
	BYTE	W06
	BYTE		        En2   v056
	BYTE	W06
	BYTE		        Fs2   v040
	BYTE	W06
	BYTE		VOL     102*FE11FootstepsofFateSme_mvl/mxv
	BYTE		N05     Gn2   v044
	BYTE	W06
	BYTE		        Fs2   v052
	BYTE	W06
	BYTE		        En2   v060
	BYTE	W06
	BYTE		VOL     103*FE11FootstepsofFateSme_mvl/mxv
	BYTE		N05     Fs2   v056
	BYTE	W06
	BYTE		        Gn2   v068
	BYTE	W06
	BYTE		        Fs2   v056
	BYTE	W06
// 025   ----------------------------------------
	BYTE		        En2   v072
	BYTE	W01
	BYTE		VOL     104*FE11FootstepsofFateSme_mvl/mxv
	BYTE	W05
	BYTE		N05     Fs2   v064
	BYTE	W06
	BYTE		        Gn2   v072
	BYTE	W06
	BYTE		        Fs2   v060
	BYTE	W01
	BYTE		VOL     105*FE11FootstepsofFateSme_mvl/mxv
	BYTE	W05
	BYTE		N05     En2   v076
	BYTE	W06
	BYTE		        Fs2   v064
	BYTE	W06
	BYTE		        Gn2 
	BYTE	W01
	BYTE		VOL     106*FE11FootstepsofFateSme_mvl/mxv
	BYTE	W05
	BYTE		N05     Fs2   v056
	BYTE	W06
	BYTE		        En2   v076
	BYTE	W06
	BYTE		        Fs2   v056
	BYTE	W01
	BYTE		VOL     107*FE11FootstepsofFateSme_mvl/mxv
	BYTE	W05
	BYTE		N05     Gn2   v080
	BYTE	W06
	BYTE		        Fs2   v072
	BYTE	W06
	BYTE		        En2   v088
	BYTE	W02
	BYTE		VOL     108*FE11FootstepsofFateSme_mvl/mxv
	BYTE	W04
	BYTE		N05     Fs2   v068
	BYTE	W06
	BYTE		        Gn2   v084
	BYTE	W06
	BYTE		        Fs2   v076
	BYTE	W02
	BYTE		VOL     109*FE11FootstepsofFateSme_mvl/mxv
	BYTE	W04
// 026   ----------------------------------------
	BYTE		N05     En2   v088
	BYTE	W06
	BYTE		        Fs2   v084
	BYTE	W06
	BYTE		        Gn2   v092
	BYTE	W02
	BYTE		VOL     110*FE11FootstepsofFateSme_mvl/mxv
	BYTE	W04
	BYTE		N05     Fs2   v088
	BYTE	W06
	BYTE		        En2   v108
	BYTE	W06
	BYTE		        Fs2   v112
	BYTE	W03
	BYTE		VOL     111*FE11FootstepsofFateSme_mvl/mxv
	BYTE	W03
	BYTE		N05     Gn2   v092
	BYTE	W06
	BYTE		        Fs2   v100
	BYTE	W06
	BYTE		        En2   v108
	BYTE	W03
	BYTE		VOL     112*FE11FootstepsofFateSme_mvl/mxv
	BYTE	W03
	BYTE		N05     Fs2   v096
	BYTE	W06
	BYTE		        Gn2   v104
	BYTE	W06
	BYTE		        Fs2   v092
	BYTE	W03
	BYTE		VOL     113*FE11FootstepsofFateSme_mvl/mxv
	BYTE	W03
	BYTE		N05     En2   v104
	BYTE	W06
	BYTE		        Fs2   v092
	BYTE	W06
	BYTE		        Gn2 
	BYTE	W03
	BYTE		VOL     114*FE11FootstepsofFateSme_mvl/mxv
	BYTE	W03
	BYTE		N05     Fs2   v088
	BYTE	W06
// 027   ----------------------------------------
	BYTE		        En2   v100
	BYTE	W06
	BYTE		        Fs2   v092
	BYTE	W04
	BYTE		VOL     115*FE11FootstepsofFateSme_mvl/mxv
	BYTE	W02
	BYTE		N05     Gn2 
	BYTE	W06
	BYTE		        Fs2   v088
	BYTE	W06
	BYTE		        En2   v104
	BYTE	W04
	BYTE		VOL     116*FE11FootstepsofFateSme_mvl/mxv
	BYTE	W02
	BYTE		N05     Fs2   v084
	BYTE	W06
	BYTE		        Gn2   v088
	BYTE	W06
	BYTE		        Fs2   v092
	BYTE	W04
	BYTE		VOL     117*FE11FootstepsofFateSme_mvl/mxv
	BYTE	W02
	BYTE		N05     En2   v104
	BYTE	W06
	BYTE		        Fs2   v096
	BYTE	W06
	BYTE		        Gn2   v104
	BYTE	W04
	BYTE		VOL     118*FE11FootstepsofFateSme_mvl/mxv
	BYTE	W02
	BYTE		N05     Fs2   v096
	BYTE	W06
	BYTE		        En2   v100
	BYTE	W06
	BYTE		        Fs2   v084
	BYTE	W05
	BYTE		VOL     119*FE11FootstepsofFateSme_mvl/mxv
	BYTE	W01
	BYTE		N05     Gn2 
	BYTE	W06
	BYTE		        Fs2   v064
	BYTE	W06
// 028   ----------------------------------------
	BYTE		        Fs2   v100
	BYTE	W05
	BYTE		VOL     120*FE11FootstepsofFateSme_mvl/mxv
	BYTE	W01
	BYTE		N05     Bn2   v084
	BYTE	W06
	BYTE		        En3   v064
	BYTE	W06
	BYTE		        An3   v080
	BYTE	W05
	BYTE		VOL     121*FE11FootstepsofFateSme_mvl/mxv
	BYTE	W01
	BYTE		        122*FE11FootstepsofFateSme_mvl/mxv
	BYTE		TIE     Fs2   v068
	BYTE		TIE     Cs3   v064
	BYTE		N05     Gs3   v080
	BYTE	W04
	BYTE		VOL     122*FE11FootstepsofFateSme_mvl/mxv
	BYTE	W01
	BYTE		        117*FE11FootstepsofFateSme_mvl/mxv
	BYTE	W01
	BYTE		        107*FE11FootstepsofFateSme_mvl/mxv
	BYTE	W01
	BYTE		        102*FE11FootstepsofFateSme_mvl/mxv
	BYTE	W01
	BYTE		        97*FE11FootstepsofFateSme_mvl/mxv
	BYTE	W01
	BYTE		        88*FE11FootstepsofFateSme_mvl/mxv
	BYTE	W01
	BYTE		        83*FE11FootstepsofFateSme_mvl/mxv
	BYTE	W01
	BYTE		        78*FE11FootstepsofFateSme_mvl/mxv
	BYTE	W01
	BYTE		        69*FE11FootstepsofFateSme_mvl/mxv
	BYTE	W01
	BYTE		        64*FE11FootstepsofFateSme_mvl/mxv
	BYTE	W01
	BYTE		        58*FE11FootstepsofFateSme_mvl/mxv
	BYTE	W09
	BYTE		        59*FE11FootstepsofFateSme_mvl/mxv
	BYTE	W06
	BYTE		        60*FE11FootstepsofFateSme_mvl/mxv
	BYTE	W06
	BYTE		        61*FE11FootstepsofFateSme_mvl/mxv
	BYTE	W06
	BYTE		        62*FE11FootstepsofFateSme_mvl/mxv
	BYTE	W03
	BYTE		        63*FE11FootstepsofFateSme_mvl/mxv
	BYTE	W03
	BYTE		        64*FE11FootstepsofFateSme_mvl/mxv
	BYTE	W06
	BYTE		        65*FE11FootstepsofFateSme_mvl/mxv
	BYTE	W03
	BYTE		        66*FE11FootstepsofFateSme_mvl/mxv
	BYTE	W03
	BYTE		        68*FE11FootstepsofFateSme_mvl/mxv
	BYTE	W03
	BYTE		        69*FE11FootstepsofFateSme_mvl/mxv
	BYTE	W03
	BYTE		        70*FE11FootstepsofFateSme_mvl/mxv
	BYTE	W03
	BYTE		        72*FE11FootstepsofFateSme_mvl/mxv
	BYTE	W03
	BYTE		        73*FE11FootstepsofFateSme_mvl/mxv
	BYTE	W01
// 029   ----------------------------------------
	BYTE	W02
	BYTE		        75*FE11FootstepsofFateSme_mvl/mxv
	BYTE	W03
	BYTE		        77*FE11FootstepsofFateSme_mvl/mxv
	BYTE	W03
	BYTE		        79*FE11FootstepsofFateSme_mvl/mxv
	BYTE	W03
	BYTE		        83*FE11FootstepsofFateSme_mvl/mxv
	BYTE	W03
	BYTE		        86*FE11FootstepsofFateSme_mvl/mxv
	BYTE	W03
	BYTE		        91*FE11FootstepsofFateSme_mvl/mxv
	BYTE	W03
	BYTE		        96*FE11FootstepsofFateSme_mvl/mxv
	BYTE	W03
	BYTE		        102*FE11FootstepsofFateSme_mvl/mxv
	BYTE	W03
	BYTE		        111*FE11FootstepsofFateSme_mvl/mxv
	BYTE	W03
	BYTE		        122*FE11FootstepsofFateSme_mvl/mxv
	BYTE	W30
	BYTE		EOT     Fs2 
	BYTE		        Cs3 
	BYTE	W01
	BYTE		N05     Fs2   v092
	BYTE	W06
	BYTE		        An2 
	BYTE	W06
	BYTE		        Gs2 
	BYTE	W06
	BYTE		        En2   v096
	BYTE	W06
	BYTE		N32     Bn1 
	BYTE	W12
// 030   ----------------------------------------
	BYTE	W24
	BYTE		N92     Cs2   v100
	BYTE	W06
	BYTE		VOL     122*FE11FootstepsofFateSme_mvl/mxv
	BYTE	W03
	BYTE		        121*FE11FootstepsofFateSme_mvl/mxv
	BYTE	W03
	BYTE		        120*FE11FootstepsofFateSme_mvl/mxv
	BYTE	W03
	BYTE		        118*FE11FootstepsofFateSme_mvl/mxv
	BYTE	W03
	BYTE		        117*FE11FootstepsofFateSme_mvl/mxv
	BYTE	W03
	BYTE		        115*FE11FootstepsofFateSme_mvl/mxv
	BYTE	W03
	BYTE		        114*FE11FootstepsofFateSme_mvl/mxv
	BYTE	W03
	BYTE		        112*FE11FootstepsofFateSme_mvl/mxv
	BYTE	W03
	BYTE		        110*FE11FootstepsofFateSme_mvl/mxv
	BYTE	W03
	BYTE		        109*FE11FootstepsofFateSme_mvl/mxv
	BYTE	W03
	BYTE		        107*FE11FootstepsofFateSme_mvl/mxv
	BYTE	W03
	BYTE		        105*FE11FootstepsofFateSme_mvl/mxv
	BYTE	W03
	BYTE		        103*FE11FootstepsofFateSme_mvl/mxv
	BYTE	W03
	BYTE		        101*FE11FootstepsofFateSme_mvl/mxv
	BYTE	W03
	BYTE		        99*FE11FootstepsofFateSme_mvl/mxv
	BYTE	W03
	BYTE		        97*FE11FootstepsofFateSme_mvl/mxv
	BYTE	W03
	BYTE		        95*FE11FootstepsofFateSme_mvl/mxv
	BYTE	W03
	BYTE		        93*FE11FootstepsofFateSme_mvl/mxv
	BYTE	W03
	BYTE		        91*FE11FootstepsofFateSme_mvl/mxv
	BYTE	W03
	BYTE		        88*FE11FootstepsofFateSme_mvl/mxv
	BYTE	W03
	BYTE		        85*FE11FootstepsofFateSme_mvl/mxv
	BYTE	W03
	BYTE		        83*FE11FootstepsofFateSme_mvl/mxv
	BYTE	W03
// 031   ----------------------------------------
	BYTE		        80*FE11FootstepsofFateSme_mvl/mxv
	BYTE	W03
	BYTE		        77*FE11FootstepsofFateSme_mvl/mxv
	BYTE	W03
	BYTE		        73*FE11FootstepsofFateSme_mvl/mxv
	BYTE	W03
	BYTE		        71*FE11FootstepsofFateSme_mvl/mxv
	BYTE	W03
	BYTE		        68*FE11FootstepsofFateSme_mvl/mxv
	BYTE	W03
	BYTE		        64*FE11FootstepsofFateSme_mvl/mxv
	BYTE	W03
	BYTE		        60*FE11FootstepsofFateSme_mvl/mxv
	BYTE	W03
	BYTE		        56*FE11FootstepsofFateSme_mvl/mxv
	BYTE	W03
	BYTE		        51*FE11FootstepsofFateSme_mvl/mxv
	BYTE	W72
// 032   ----------------------------------------
	BYTE	W23
	BYTE		        117*FE11FootstepsofFateSme_mvl/mxv
	BYTE	W01
	BYTE		        122*FE11FootstepsofFateSme_mvl/mxv
	BYTE	W72
// 033   ----------------------------------------
	BYTE	W96
// 034   ----------------------------------------
	BYTE	W96
// 035   ----------------------------------------
	BYTE	W01
	BYTE		        122*FE11FootstepsofFateSme_mvl/mxv
	BYTE	W11
	BYTE		N05     An2   v076
	BYTE	W06
	BYTE		        Bn2 
	BYTE	W06
	BYTE		        Cs3 
	BYTE	W06
	BYTE		        Bn2 
	BYTE	W06
	BYTE		N56     En3 
	BYTE	W02
	BYTE		VOL     122*FE11FootstepsofFateSme_mvl/mxv
	BYTE	W01
	BYTE		        114*FE11FootstepsofFateSme_mvl/mxv
	BYTE	W01
	BYTE		        110*FE11FootstepsofFateSme_mvl/mxv
	BYTE	W01
	BYTE		        106*FE11FootstepsofFateSme_mvl/mxv
	BYTE	W01
	BYTE		        97*FE11FootstepsofFateSme_mvl/mxv
	BYTE	W01
	BYTE		        94*FE11FootstepsofFateSme_mvl/mxv
	BYTE	W01
	BYTE		        90*FE11FootstepsofFateSme_mvl/mxv
	BYTE	W01
	BYTE		        81*FE11FootstepsofFateSme_mvl/mxv
	BYTE	W01
	BYTE		        77*FE11FootstepsofFateSme_mvl/mxv
	BYTE	W01
	BYTE		        73*FE11FootstepsofFateSme_mvl/mxv
	BYTE	W01
	BYTE		        65*FE11FootstepsofFateSme_mvl/mxv
	BYTE	W01
	BYTE		        63*FE11FootstepsofFateSme_mvl/mxv
	BYTE	W03
	BYTE		        64*FE11FootstepsofFateSme_mvl/mxv
	BYTE	W03
	BYTE		        65*FE11FootstepsofFateSme_mvl/mxv
	BYTE	W03
	BYTE		        66*FE11FootstepsofFateSme_mvl/mxv
	BYTE	W03
	BYTE		        67*FE11FootstepsofFateSme_mvl/mxv
	BYTE	W03
	BYTE		        68*FE11FootstepsofFateSme_mvl/mxv
	BYTE	W03
	BYTE		        70*FE11FootstepsofFateSme_mvl/mxv
	BYTE	W03
	BYTE		        71*FE11FootstepsofFateSme_mvl/mxv
	BYTE	W03
	BYTE		        73*FE11FootstepsofFateSme_mvl/mxv
	BYTE	W03
	BYTE		        74*FE11FootstepsofFateSme_mvl/mxv
	BYTE	W03
	BYTE		        75*FE11FootstepsofFateSme_mvl/mxv
	BYTE	W03
	BYTE		        77*FE11FootstepsofFateSme_mvl/mxv
	BYTE	W03
	BYTE		        79*FE11FootstepsofFateSme_mvl/mxv
	BYTE	W03
	BYTE		        82*FE11FootstepsofFateSme_mvl/mxv
	BYTE	W03
	BYTE		        84*FE11FootstepsofFateSme_mvl/mxv
	BYTE	W03
	BYTE		        87*FE11FootstepsofFateSme_mvl/mxv
	BYTE	W02
// 036   ----------------------------------------
	BYTE		N23     Fs3 
	BYTE	W01
	BYTE		VOL     90*FE11FootstepsofFateSme_mvl/mxv
	BYTE	W03
	BYTE		        93*FE11FootstepsofFateSme_mvl/mxv
	BYTE	W03
	BYTE		        97*FE11FootstepsofFateSme_mvl/mxv
	BYTE	W03
	BYTE		        99*FE11FootstepsofFateSme_mvl/mxv
	BYTE	W03
	BYTE		        104*FE11FootstepsofFateSme_mvl/mxv
	BYTE	W02
	BYTE		        108*FE11FootstepsofFateSme_mvl/mxv
	BYTE	W09
	BYTE		TIE     Fs3   v060
	BYTE		TIE     Gs3   v080
	BYTE	W04
	BYTE		VOL     104*FE11FootstepsofFateSme_mvl/mxv
	BYTE	W01
	BYTE		        100*FE11FootstepsofFateSme_mvl/mxv
	BYTE	W01
	BYTE		        97*FE11FootstepsofFateSme_mvl/mxv
	BYTE	W01
	BYTE		        89*FE11FootstepsofFateSme_mvl/mxv
	BYTE	W01
	BYTE		        85*FE11FootstepsofFateSme_mvl/mxv
	BYTE	W01
	BYTE		        81*FE11FootstepsofFateSme_mvl/mxv
	BYTE	W01
	BYTE		        73*FE11FootstepsofFateSme_mvl/mxv
	BYTE	W01
	BYTE		        70*FE11FootstepsofFateSme_mvl/mxv
	BYTE	W01
	BYTE		        66*FE11FootstepsofFateSme_mvl/mxv
	BYTE	W01
	BYTE		        58*FE11FootstepsofFateSme_mvl/mxv
	BYTE	W01
	BYTE		        54*FE11FootstepsofFateSme_mvl/mxv
	BYTE	W01
	BYTE		        50*FE11FootstepsofFateSme_mvl/mxv
	BYTE	W01
	BYTE		        42*FE11FootstepsofFateSme_mvl/mxv
	BYTE	W01
	BYTE		        38*FE11FootstepsofFateSme_mvl/mxv
	BYTE	W01
	BYTE		        33*FE11FootstepsofFateSme_mvl/mxv
	BYTE	W21
	BYTE		        34*FE11FootstepsofFateSme_mvl/mxv
	BYTE	W15
	BYTE		        35*FE11FootstepsofFateSme_mvl/mxv
	BYTE	W12
	BYTE		        36*FE11FootstepsofFateSme_mvl/mxv
	BYTE	W06
// 037   ----------------------------------------
	BYTE	W06
	BYTE		        37*FE11FootstepsofFateSme_mvl/mxv
	BYTE	W09
	BYTE		        38*FE11FootstepsofFateSme_mvl/mxv
	BYTE	W06
	BYTE		        39*FE11FootstepsofFateSme_mvl/mxv
	BYTE	W06
	BYTE		        40*FE11FootstepsofFateSme_mvl/mxv
	BYTE	W06
	BYTE		        41*FE11FootstepsofFateSme_mvl/mxv
	BYTE	W06
	BYTE		        42*FE11FootstepsofFateSme_mvl/mxv
	BYTE	W06
	BYTE		        43*FE11FootstepsofFateSme_mvl/mxv
	BYTE	W03
	BYTE		        44*FE11FootstepsofFateSme_mvl/mxv
	BYTE	W06
	BYTE		        45*FE11FootstepsofFateSme_mvl/mxv
	BYTE	W03
	BYTE		        46*FE11FootstepsofFateSme_mvl/mxv
	BYTE	W03
	BYTE		        47*FE11FootstepsofFateSme_mvl/mxv
	BYTE	W03
	BYTE		        48*FE11FootstepsofFateSme_mvl/mxv
	BYTE	W03
	BYTE		        49*FE11FootstepsofFateSme_mvl/mxv
	BYTE	W03
	BYTE		        50*FE11FootstepsofFateSme_mvl/mxv
	BYTE	W03
	BYTE		        51*FE11FootstepsofFateSme_mvl/mxv
	BYTE	W03
	BYTE		        53*FE11FootstepsofFateSme_mvl/mxv
	BYTE	W03
	BYTE		        55*FE11FootstepsofFateSme_mvl/mxv
	BYTE	W03
	BYTE		        57*FE11FootstepsofFateSme_mvl/mxv
	BYTE	W03
	BYTE		        59*FE11FootstepsofFateSme_mvl/mxv
	BYTE	W03
	BYTE		        62*FE11FootstepsofFateSme_mvl/mxv
	BYTE	W03
	BYTE		        65*FE11FootstepsofFateSme_mvl/mxv
	BYTE	W03
	BYTE		        69*FE11FootstepsofFateSme_mvl/mxv
	BYTE	W03
// 038   ----------------------------------------
	BYTE		        73*FE11FootstepsofFateSme_mvl/mxv
	BYTE	W03
	BYTE		        78*FE11FootstepsofFateSme_mvl/mxv
	BYTE	W03
	BYTE		        85*FE11FootstepsofFateSme_mvl/mxv
	BYTE	W03
	BYTE		        93*FE11FootstepsofFateSme_mvl/mxv
	BYTE	W03
	BYTE		        104*FE11FootstepsofFateSme_mvl/mxv
	BYTE	W01
	BYTE		        108*FE11FootstepsofFateSme_mvl/mxv
	BYTE	W10
	BYTE		EOT     Fs3 
	BYTE		        Gs3 
	BYTE	W01
	BYTE		N92     Dn3   v064
	BYTE		TIE     En3   v068
	BYTE	W02
	BYTE		VOL     108*FE11FootstepsofFateSme_mvl/mxv
	BYTE	W02
	BYTE		        103*FE11FootstepsofFateSme_mvl/mxv
	BYTE	W01
	BYTE		        97*FE11FootstepsofFateSme_mvl/mxv
	BYTE	W02
	BYTE		        92*FE11FootstepsofFateSme_mvl/mxv
	BYTE	W01
	BYTE		        86*FE11FootstepsofFateSme_mvl/mxv
	BYTE	W02
	BYTE		        80*FE11FootstepsofFateSme_mvl/mxv
	BYTE	W01
	BYTE		        75*FE11FootstepsofFateSme_mvl/mxv
	BYTE	W02
	BYTE		        70*FE11FootstepsofFateSme_mvl/mxv
	BYTE	W01
	BYTE		        64*FE11FootstepsofFateSme_mvl/mxv
	BYTE	W02
	BYTE		        58*FE11FootstepsofFateSme_mvl/mxv
	BYTE	W01
	BYTE		        52*FE11FootstepsofFateSme_mvl/mxv
	BYTE	W02
	BYTE		        48*FE11FootstepsofFateSme_mvl/mxv
	BYTE	W01
	BYTE		        42*FE11FootstepsofFateSme_mvl/mxv
	BYTE	W02
	BYTE		        35*FE11FootstepsofFateSme_mvl/mxv
	BYTE	W24
	BYTE	W03
	BYTE		        36*FE11FootstepsofFateSme_mvl/mxv
	BYTE	W21
	BYTE		        37*FE11FootstepsofFateSme_mvl/mxv
	BYTE	W02
// 039   ----------------------------------------
	BYTE	W13
	BYTE		        38*FE11FootstepsofFateSme_mvl/mxv
	BYTE	W11
	BYTE		N44     Dn3   v076
	BYTE	W01
	BYTE		VOL     39*FE11FootstepsofFateSme_mvl/mxv
	BYTE	W09
	BYTE		        40*FE11FootstepsofFateSme_mvl/mxv
	BYTE	W09
	BYTE		        41*FE11FootstepsofFateSme_mvl/mxv
	BYTE	W06
	BYTE		        42*FE11FootstepsofFateSme_mvl/mxv
	BYTE	W06
	BYTE		        43*FE11FootstepsofFateSme_mvl/mxv
	BYTE	W03
	BYTE		        44*FE11FootstepsofFateSme_mvl/mxv
	BYTE	W06
	BYTE		        45*FE11FootstepsofFateSme_mvl/mxv
	BYTE	W03
	BYTE		        46*FE11FootstepsofFateSme_mvl/mxv
	BYTE	W03
	BYTE		        47*FE11FootstepsofFateSme_mvl/mxv
	BYTE	W02
	BYTE		TIE     Fs3 
	BYTE	W01
	BYTE		VOL     48*FE11FootstepsofFateSme_mvl/mxv
	BYTE	W03
	BYTE		        48*FE11FootstepsofFateSme_mvl/mxv
	BYTE	W03
	BYTE		        49*FE11FootstepsofFateSme_mvl/mxv
	BYTE	W03
	BYTE		        51*FE11FootstepsofFateSme_mvl/mxv
	BYTE	W03
	BYTE		        53*FE11FootstepsofFateSme_mvl/mxv
	BYTE	W03
	BYTE		        55*FE11FootstepsofFateSme_mvl/mxv
	BYTE	W03
	BYTE		        57*FE11FootstepsofFateSme_mvl/mxv
	BYTE	W03
	BYTE		        60*FE11FootstepsofFateSme_mvl/mxv
	BYTE	W02
// 040   ----------------------------------------
	BYTE	W01
	BYTE		        64*FE11FootstepsofFateSme_mvl/mxv
	BYTE	W03
	BYTE		        68*FE11FootstepsofFateSme_mvl/mxv
	BYTE	W03
	BYTE		        73*FE11FootstepsofFateSme_mvl/mxv
	BYTE	W03
	BYTE		        81*FE11FootstepsofFateSme_mvl/mxv
	BYTE	W02
	BYTE		        87*FE11FootstepsofFateSme_mvl/mxv
	BYTE	W01
	BYTE		        86*FE11FootstepsofFateSme_mvl/mxv
	BYTE	W02
	BYTE		        85*FE11FootstepsofFateSme_mvl/mxv
	BYTE	W01
	BYTE		        84*FE11FootstepsofFateSme_mvl/mxv
	BYTE	W02
	BYTE		        82*FE11FootstepsofFateSme_mvl/mxv
	BYTE	W01
	BYTE		        80*FE11FootstepsofFateSme_mvl/mxv
	BYTE	W02
	BYTE		        77*FE11FootstepsofFateSme_mvl/mxv
	BYTE	W01
	BYTE		        74*FE11FootstepsofFateSme_mvl/mxv
	BYTE	W01
	BYTE		EOT     En3 
	BYTE	W01
	BYTE		VOL     70*FE11FootstepsofFateSme_mvl/mxv
	BYTE		TIE     En3   v072
	BYTE	W09
	BYTE		VOL     71*FE11FootstepsofFateSme_mvl/mxv
	BYTE	W03
	BYTE		        72*FE11FootstepsofFateSme_mvl/mxv
	BYTE	W06
	BYTE		        73*FE11FootstepsofFateSme_mvl/mxv
	BYTE	W06
	BYTE		        73*FE11FootstepsofFateSme_mvl/mxv
	BYTE	W03
	BYTE		        74*FE11FootstepsofFateSme_mvl/mxv
	BYTE	W06
	BYTE		        75*FE11FootstepsofFateSme_mvl/mxv
	BYTE	W03
	BYTE		        76*FE11FootstepsofFateSme_mvl/mxv
	BYTE	W03
	BYTE		        77*FE11FootstepsofFateSme_mvl/mxv
	BYTE	W03
	BYTE		        78*FE11FootstepsofFateSme_mvl/mxv
	BYTE	W03
	BYTE		        79*FE11FootstepsofFateSme_mvl/mxv
	BYTE	W03
	BYTE		        80*FE11FootstepsofFateSme_mvl/mxv
	BYTE	W03
	BYTE		        81*FE11FootstepsofFateSme_mvl/mxv
	BYTE	W03
	BYTE		        82*FE11FootstepsofFateSme_mvl/mxv
	BYTE	W03
	BYTE		        83*FE11FootstepsofFateSme_mvl/mxv
	BYTE	W03
	BYTE		        85*FE11FootstepsofFateSme_mvl/mxv
	BYTE	W03
	BYTE		        86*FE11FootstepsofFateSme_mvl/mxv
	BYTE	W03
	BYTE		        88*FE11FootstepsofFateSme_mvl/mxv
	BYTE	W03
	BYTE		        90*FE11FootstepsofFateSme_mvl/mxv
	BYTE	W03
// 041   ----------------------------------------
	BYTE		        92*FE11FootstepsofFateSme_mvl/mxv
	BYTE	W03
	BYTE		        94*FE11FootstepsofFateSme_mvl/mxv
	BYTE	W03
	BYTE		        96*FE11FootstepsofFateSme_mvl/mxv
	BYTE	W03
	BYTE		        98*FE11FootstepsofFateSme_mvl/mxv
	BYTE	W03
	BYTE		        100*FE11FootstepsofFateSme_mvl/mxv
	BYTE	W03
	BYTE		        104*FE11FootstepsofFateSme_mvl/mxv
	BYTE	W01
	BYTE		        106*FE11FootstepsofFateSme_mvl/mxv
	BYTE	W01
	BYTE		        105*FE11FootstepsofFateSme_mvl/mxv
	BYTE	W01
	BYTE		        103*FE11FootstepsofFateSme_mvl/mxv
	BYTE	W01
	BYTE		        102*FE11FootstepsofFateSme_mvl/mxv
	BYTE	W01
	BYTE		        101*FE11FootstepsofFateSme_mvl/mxv
	BYTE	W01
	BYTE		        98*FE11FootstepsofFateSme_mvl/mxv
	BYTE	W01
	BYTE		        97*FE11FootstepsofFateSme_mvl/mxv
	BYTE	W01
	BYTE		        96*FE11FootstepsofFateSme_mvl/mxv
	BYTE	W01
	BYTE		        93*FE11FootstepsofFateSme_mvl/mxv
	BYTE	W01
	BYTE		        91*FE11FootstepsofFateSme_mvl/mxv
	BYTE	W01
	BYTE		        90*FE11FootstepsofFateSme_mvl/mxv
	BYTE	W01
	BYTE		        86*FE11FootstepsofFateSme_mvl/mxv
	BYTE	W01
	BYTE		        83*FE11FootstepsofFateSme_mvl/mxv
	BYTE	W01
	BYTE		        81*FE11FootstepsofFateSme_mvl/mxv
	BYTE	W01
	BYTE		        76*FE11FootstepsofFateSme_mvl/mxv
	BYTE	W01
	BYTE		        73*FE11FootstepsofFateSme_mvl/mxv
	BYTE	W01
	BYTE		        71*FE11FootstepsofFateSme_mvl/mxv
	BYTE	W01
	BYTE		        64*FE11FootstepsofFateSme_mvl/mxv
	BYTE	W01
	BYTE		        60*FE11FootstepsofFateSme_mvl/mxv
	BYTE	W01
	BYTE		        56*FE11FootstepsofFateSme_mvl/mxv
	BYTE	W01
	BYTE		        48*FE11FootstepsofFateSme_mvl/mxv
	BYTE	W01
	BYTE		        42*FE11FootstepsofFateSme_mvl/mxv
	BYTE	W01
	BYTE		        36*FE11FootstepsofFateSme_mvl/mxv
	BYTE	W01
	BYTE		        23*FE11FootstepsofFateSme_mvl/mxv
	BYTE	W01
	BYTE		        15*FE11FootstepsofFateSme_mvl/mxv
	BYTE	W01
	BYTE		        2*FE11FootstepsofFateSme_mvl/mxv
	BYTE	W06
	BYTE		EOT   
	BYTE		EOT     Fs3 
	BYTE	W48
	BYTE	W01
// 042   ----------------------------------------
	BYTE	W96
// 043   ----------------------------------------
	BYTE	W96
// 044   ----------------------------------------
	BYTE	W23
	BYTE	GoTo
	 POIN2	FE11FootstepsofFateSme_10_B1
FE11FootstepsofFateSme_10_B2:
	BYTE	FINE

//******************************************************//
	ALIGN 4

FE11FootstepsofFateSme:
	BYTE	10	// NumTrks
	BYTE	0	// NumBlks
	BYTE	FE11FootstepsofFateSme_pri	// Priority
	BYTE	FE11FootstepsofFateSme_rev	// Reverb.

	POIN2	FE11FootstepsofFateSme_grp

	POIN2	FE11FootstepsofFateSme_1
	POIN2	FE11FootstepsofFateSme_2
	POIN2	FE11FootstepsofFateSme_3
	POIN2	FE11FootstepsofFateSme_4
	POIN2	FE11FootstepsofFateSme_5
	POIN2	FE11FootstepsofFateSme_6
	POIN2	FE11FootstepsofFateSme_7
	POIN2	FE11FootstepsofFateSme_8
	POIN2	FE11FootstepsofFateSme_9
	POIN2	FE11FootstepsofFateSme_10

	
