//Event file generated from Sappy .s format.
	#include "MPlayDef.event"

	#define	FE12LiberationGratedShtick_grp  voicegroup000
	#define	FE12LiberationGratedShtick_pri  0
	#define	FE12LiberationGratedShtick_rev  0
	#define	FE12LiberationGratedShtick_mvl  127
	#define	FE12LiberationGratedShtick_key  0
	#define	FE12LiberationGratedShtick_tbs  1
	#define	FE12LiberationGratedShtick_exg  0
	#define	FE12LiberationGratedShtick_cmp  1

	// .rodata
	//	FE12LiberationGratedShtick
	ALIGN 4


//**************** Track 1 (Midi-Chn.0) ****************//

FE12LiberationGratedShtick_001:
// 000   ----------------------------------------
 BYTE   KEYSH   FE12LiberationGratedShtick_key+0
Label_0_0101B666:
 BYTE   TEMPO   116*FE12LiberationGratedShtick_tbs/2
 BYTE   VOICE   63
 BYTE   VOL   57*FE12LiberationGratedShtick_mvl/mxv
 BYTE   PAN   c_v+0
 BYTE   BEND   c_v+0
 BYTE   N23  Fn2  v124
 BYTE   N23  Cn3
 BYTE   W23
 BYTE   W01
 BYTE   An2
 BYTE   N23  Fn3
 BYTE   W02
 BYTE   W03
 BYTE   W03
 BYTE   W03
 BYTE   W03
 BYTE   W03
 BYTE   W03
 BYTE   W01
 BYTE   W03
 BYTE   As2
 BYTE   N23  Gn3
 BYTE   W03
 BYTE   W03
 BYTE   W03
 BYTE   W03
 BYTE   W03
 BYTE   W03
 BYTE   W03
 BYTE   W03
 BYTE   Ds3
 BYTE   N23  As3
 BYTE   W03
 BYTE   W03
 BYTE   W03
 BYTE   W03
 BYTE   W03
 BYTE   W03
 BYTE   W03
 BYTE   W03
// 001   ----------------------------------------
 BYTE   N30  Cn3
 BYTE   N30  An3
 BYTE   W01
 BYTE   W01
 BYTE   W02
 BYTE   W01
 BYTE   W02
 BYTE   W01
 BYTE   W02
 BYTE   W01
 BYTE   W01
 BYTE   W20
 BYTE   N07  As2
 BYTE   N07  Gn3
 BYTE   W08
 BYTE   An2
 BYTE   N07  Fn3
 BYTE   W08
 BYTE   As2
 BYTE   N07  Gn3
 BYTE   W21
 BYTE   W01
 BYTE   W01
 BYTE   W01
 BYTE   N23  Gn2
 BYTE   N23  Ds3
 BYTE   W02
 BYTE   W01
 BYTE   W02
 BYTE   W01
 BYTE   W02
 BYTE   W16
// 002   ----------------------------------------
 BYTE   Fn2
 BYTE   N23  Cn3
 BYTE   W02
 BYTE   W09
 BYTE   W09
 BYTE   W04
 BYTE   An2
 BYTE   N23  Fn3
 BYTE   W05
 BYTE   W09
 BYTE   W10
 BYTE   As2
 BYTE   N23  Gn3
 BYTE   W09
 BYTE   W09
 BYTE   W06
 BYTE   Ds3
 BYTE   N23  As3
 BYTE   W03
 BYTE   W03
 BYTE   W03
 BYTE   W03
 BYTE   W03
 BYTE   W03
 BYTE   W03
 BYTE   W03
// 003   ----------------------------------------
 BYTE   N68  Fn3
 BYTE   N68  Cn4
 BYTE   W01
 BYTE   W02
 BYTE   W01
 BYTE   W02
 BYTE   W01
 BYTE   W01
 BYTE   W28
 BYTE   W01
 BYTE   W03
 BYTE   W03
 BYTE   W03
 BYTE   W03
 BYTE   W03
 BYTE   W03
 BYTE   W03
 BYTE   W03
 BYTE   W03
 BYTE   W03
 BYTE   W03
 BYTE   W03
 BYTE   W03
 BYTE   W02
 BYTE   W18
// 004   ----------------------------------------
 BYTE   W66
 BYTE   W30
// 005   ----------------------------------------
 BYTE   W13
 BYTE   W42
 BYTE   W40
 BYTE   W01
// 006   ----------------------------------------
 BYTE   W02
 BYTE   W42
 BYTE   W42
 BYTE   W01
 BYTE   W09
// 007   ----------------------------------------
 BYTE   W32
 BYTE   W01
 BYTE   W42
 BYTE   W01
 BYTE   W03
 BYTE   W03
 BYTE   W03
 BYTE   W03
 BYTE   W03
 BYTE   W03
 BYTE   W02
// 008   ----------------------------------------
Label_0_0101B710:
 BYTE   N23  Fn2  v127
 BYTE   N23  Cn3
 BYTE   W24
 BYTE   An2
 BYTE   N23  Fn3
 BYTE   W24
 BYTE   As2
 BYTE   N23  Gn3
 BYTE   W24
 BYTE   Ds3
 BYTE   N23  As3
 BYTE   W24
 BYTE   PEND 
// 009   ----------------------------------------
 BYTE   N30  Cn3
 BYTE   N30  An3
 BYTE   W32
 BYTE   N07  As2
 BYTE   N07  Gn3
 BYTE   W08
 BYTE   An2
 BYTE   N07  Fn3
 BYTE   W08
 BYTE   N23  As2
 BYTE   N23  Gn3
 BYTE   W24
 BYTE   Gn2
 BYTE   N23  Ds3
 BYTE   W24
 BYTE   PATT
  POIN2 Label_0_0101B710
// 010   ----------------------------------------
 BYTE   N68  Fn3  v127
 BYTE   N68  Cn4
 BYTE   W12
 BYTE   W07
 BYTE   W04
 BYTE   W04
 BYTE   W04
 BYTE   W04
 BYTE   W04
 BYTE   W04
 BYTE   W03
 BYTE   W04
 BYTE   W04
 BYTE   W04
 BYTE   W04
 BYTE   W04
 BYTE   W04
 BYTE   W04
 BYTE   W04
 BYTE   W18
// 011   ----------------------------------------
 BYTE   W96
// 012   ----------------------------------------
 BYTE   W96
// 013   ----------------------------------------
 BYTE   W96
// 014   ----------------------------------------
 BYTE   W96
// 015   ----------------------------------------
 BYTE   W96
// 016   ----------------------------------------
 BYTE   W96
// 017   ----------------------------------------
 BYTE   W96
// 018   ----------------------------------------
 BYTE   W96
// 019   ----------------------------------------
 BYTE   TIE  En2  v100
 BYTE   W03
 BYTE   W03
 BYTE   W03
 BYTE   W03
 BYTE   W03
 BYTE   W03
 BYTE   W03
 BYTE   W03
 BYTE   W03
 BYTE   W03
 BYTE   W03
 BYTE   W03
 BYTE   W03
 BYTE   W03
 BYTE   W03
 BYTE   W03
 BYTE   W03
 BYTE   W03
 BYTE   W03
 BYTE   W03
 BYTE   W03
 BYTE   W03
 BYTE   W03
 BYTE   W03
 BYTE   W03
 BYTE   W03
 BYTE   W03
 BYTE   W03
 BYTE   W03
 BYTE   W03
 BYTE   W03
 BYTE   W03
// 020   ----------------------------------------
 BYTE   W03
 BYTE   W03
 BYTE   W03
 BYTE   W03
 BYTE   W03
 BYTE   W03
 BYTE   W03
 BYTE   W03
 BYTE   W03
 BYTE   W03
 BYTE   W03
 BYTE   W03
 BYTE   W03
 BYTE   W03
 BYTE   W03
 BYTE   W01
 BYTE   EOT
 BYTE   W02
 BYTE   N44  Ds2
 BYTE   W03
 BYTE   W03
 BYTE   W03
 BYTE   W03
 BYTE   W03
 BYTE   W03
 BYTE   W03
 BYTE   W03
 BYTE   W03
 BYTE   W03
 BYTE   W03
 BYTE   W03
 BYTE   W03
 BYTE   W03
 BYTE   W03
 BYTE   W03
// 021   ----------------------------------------
 BYTE   Cs2
 BYTE   W03
 BYTE   W03
 BYTE   W03
 BYTE   W03
 BYTE   W03
 BYTE   W03
 BYTE   W03
 BYTE   W03
 BYTE   W03
 BYTE   W03
 BYTE   W03
 BYTE   W03
 BYTE   W03
 BYTE   W03
 BYTE   W03
 BYTE   W03
 BYTE   Ds2
 BYTE   W03
 BYTE   W03
 BYTE   W03
 BYTE   W03
 BYTE   W03
 BYTE   W03
 BYTE   W03
 BYTE   W03
 BYTE   W03
 BYTE   W03
 BYTE   W03
 BYTE   W03
 BYTE   W03
 BYTE   W03
 BYTE   W03
 BYTE   W03
// 022   ----------------------------------------
 BYTE   N92  En2
 BYTE   W02
 BYTE   W03
 BYTE   W03
 BYTE   W03
 BYTE   W03
 BYTE   W03
 BYTE   W03
 BYTE   W03
 BYTE   W03
 BYTE   W03
 BYTE   W03
 BYTE   W03
 BYTE   W03
 BYTE   W03
 BYTE   W03
 BYTE   W03
 BYTE   W03
 BYTE   W03
 BYTE   W03
 BYTE   W03
 BYTE   W03
 BYTE   W03
 BYTE   W03
 BYTE   W03
 BYTE   W03
 BYTE   W03
 BYTE   W03
 BYTE   W01
 BYTE   W02
 BYTE   W01
 BYTE   W02
 BYTE   W01
 BYTE   W02
 BYTE   W01
 BYTE   W02
 BYTE   W01
 BYTE   W02
 BYTE   W01
// 023   ----------------------------------------
 BYTE   Fs2
 BYTE   W02
 BYTE   W01
 BYTE   W02
 BYTE   W01
 BYTE   W02
 BYTE   W01
 BYTE   W02
 BYTE   W01
 BYTE   W02
 BYTE   W01
 BYTE   W02
 BYTE   W01
 BYTE   W02
 BYTE   W01
 BYTE   W02
 BYTE   W01
 BYTE   W02
 BYTE   W01
 BYTE   W02
 BYTE   W01
 BYTE   W02
 BYTE   W01
 BYTE   W02
 BYTE   W01
 BYTE   W03
 BYTE   W03
 BYTE   W03
 BYTE   W03
 BYTE   W03
 BYTE   W03
 BYTE   W03
 BYTE   W03
 BYTE   W03
 BYTE   W03
 BYTE   W03
 BYTE   W03
 BYTE   W01
 BYTE   W02
 BYTE   W01
 BYTE   W02
 BYTE   W01
 BYTE   W02
 BYTE   W01
 BYTE   W02
 BYTE   W01
 BYTE   W02
 BYTE   W01
 BYTE   W02
 BYTE   W01
 BYTE   W02
 BYTE   W01
 BYTE   W02
// 024   ----------------------------------------
 BYTE   W01
 BYTE   W02
 BYTE   W01
 BYTE   W02
 BYTE   W01
 BYTE   W88
 BYTE   W01
// 025   ----------------------------------------
 BYTE   W96
// 026   ----------------------------------------
 BYTE   W96
// 027   ----------------------------------------
 BYTE   W96
// 028   ----------------------------------------
 BYTE   W96
// 029   ----------------------------------------
 BYTE   W96
// 030   ----------------------------------------
 BYTE   W96
// 031   ----------------------------------------
 BYTE   W90
 BYTE   GoTo
  POIN2 Label_0_0101B666
// 032   ----------------------------------------
 BYTE   W05
 BYTE   FINE

//**************** Track 2 (Midi-Chn.1) ****************//

FE12LiberationGratedShtick_002:
// 000   ----------------------------------------
 BYTE   KEYSH   FE12LiberationGratedShtick_key+0
Label_1_0101B83E:
 BYTE   VOICE   46
 BYTE   VOL   46*FE12LiberationGratedShtick_mvl/mxv
 BYTE   PAN   c_v-64
 BYTE   BEND   c_v+0
 BYTE   N44  Cn2  v116
 BYTE   W03
 BYTE   W03
 BYTE   W03
 BYTE   W03
 BYTE   W03
 BYTE   W03
 BYTE   W03
 BYTE   W03
 BYTE   W03
 BYTE   W03
 BYTE   W03
 BYTE   W03
 BYTE   W03
 BYTE   W03
 BYTE   W03
 BYTE   W03
 BYTE   As1
 BYTE   W03
 BYTE   W03
 BYTE   W03
 BYTE   W03
 BYTE   W03
 BYTE   W03
 BYTE   W03
 BYTE   W03
 BYTE   W03
 BYTE   W03
 BYTE   W03
 BYTE   W03
 BYTE   W03
 BYTE   W03
 BYTE   W03
 BYTE   W01
 BYTE   W02
// 001   ----------------------------------------
Label_1_0101B86B:
 BYTE   N44  Cn2  v116
 BYTE   W01
 BYTE   W03
 BYTE   W03
 BYTE   W03
 BYTE   W03
 BYTE   W03
 BYTE   W03
 BYTE   W03
 BYTE   W03
 BYTE   W03
 BYTE   W03
 BYTE   W03
 BYTE   W03
 BYTE   W03
 BYTE   W03
 BYTE   W03
 BYTE   W02
 BYTE   As1
 BYTE   W01
 BYTE   W03
 BYTE   W03
 BYTE   W03
 BYTE   W03
 BYTE   W03
 BYTE   W03
 BYTE   W03
 BYTE   W03
 BYTE   W03
 BYTE   W03
 BYTE   W03
 BYTE   W03
 BYTE   W03
 BYTE   W03
 BYTE   W03
 BYTE   W02
 BYTE   PEND 
// 002   ----------------------------------------
 BYTE   Cn2
 BYTE   W01
 BYTE   W03
 BYTE   W03
 BYTE   W03
 BYTE   W03
 BYTE   W03
 BYTE   W03
 BYTE   W03
 BYTE   W03
 BYTE   W03
 BYTE   W03
 BYTE   W03
 BYTE   W03
 BYTE   W03
 BYTE   W03
 BYTE   W03
 BYTE   W02
 BYTE   As1
 BYTE   W01
 BYTE   W03
 BYTE   W03
 BYTE   W03
 BYTE   W03
 BYTE   W03
 BYTE   W03
 BYTE   W03
 BYTE   W03
 BYTE   W03
 BYTE   W03
 BYTE   W03
 BYTE   W03
 BYTE   W03
 BYTE   W03
 BYTE   W03
 BYTE   W02
// 003   ----------------------------------------
 BYTE   N92  Cn2
 BYTE   W01
 BYTE   W01
 BYTE   W01
 BYTE   W02
 BYTE   W01
 BYTE   W02
 BYTE   W01
 BYTE   W02
 BYTE   W01
 BYTE   W02
 BYTE   W01
 BYTE   W02
 BYTE   W01
 BYTE   W02
 BYTE   W01
 BYTE   W02
 BYTE   W01
 BYTE   W02
 BYTE   W03
 BYTE   W03
 BYTE   W03
 BYTE   W03
 BYTE   W03
 BYTE   W03
 BYTE   W03
 BYTE   W03
 BYTE   W03
 BYTE   W03
 BYTE   W03
 BYTE   W03
 BYTE   W03
 BYTE   W03
 BYTE   W03
 BYTE   W03
 BYTE   W03
 BYTE   W03
 BYTE   W03
 BYTE   W03
 BYTE   W03
 BYTE   W03
 BYTE   W03
 BYTE   W01
// 004   ----------------------------------------
 BYTE   W01
 BYTE   W02
 BYTE   W01
 BYTE   W02
 BYTE   W01
 BYTE   W02
 BYTE   W01
 BYTE   W02
 BYTE   W01
 BYTE   W02
 BYTE   W01
 BYTE   W02
 BYTE   W01
 BYTE   W02
 BYTE   W01
 BYTE   W02
 BYTE   N23  Fn2
 BYTE   W03
 BYTE   W04
 BYTE   W05
 BYTE   W04
 BYTE   W05
 BYTE   W03
 BYTE   Gn2
 BYTE   W01
 BYTE   W05
 BYTE   W04
 BYTE   W05
 BYTE   W04
 BYTE   W05
 BYTE   As2
 BYTE   W04
 BYTE   W05
 BYTE   W04
 BYTE   W05
 BYTE   W04
 BYTE   W02
// 005   ----------------------------------------
 BYTE   W01
 BYTE   W03
 BYTE   W03
 BYTE   W03
 BYTE   W03
 BYTE   W03
 BYTE   W03
 BYTE   W03
 BYTE   W02
 BYTE   Fn2
 BYTE   W01
 BYTE   W03
 BYTE   W03
 BYTE   W03
 BYTE   W03
 BYTE   W03
 BYTE   W03
 BYTE   W03
 BYTE   W02
 BYTE   Gn2
 BYTE   W01
 BYTE   W03
 BYTE   W03
 BYTE   W03
 BYTE   W02
 BYTE   W12
 BYTE   Ds2
 BYTE   W19
 BYTE   W05
// 006   ----------------------------------------
 BYTE   N07  Cs4
 BYTE   W08
 BYTE   Ds4
 BYTE   W08
 BYTE   N30  Fn2
 BYTE   W03
 BYTE   W01
 BYTE   W02
 BYTE   W01
 BYTE   W02
 BYTE   W01
 BYTE   W02
 BYTE   W01
 BYTE   W01
 BYTE   W01
 BYTE   W02
 BYTE   W01
 BYTE   W02
 BYTE   W01
 BYTE   W02
 BYTE   W01
 BYTE   W02
 BYTE   W01
 BYTE   W02
 BYTE   W01
 BYTE   W02
 BYTE   N07  Ds4
 BYTE   W08
 BYTE   Fn4
 BYTE   W08
 BYTE   N30  Gn2
 BYTE   W02
 BYTE   W01
 BYTE   W02
 BYTE   W01
 BYTE   W02
 BYTE   W01
 BYTE   W01
 BYTE   W03
 BYTE   W03
 BYTE   W03
 BYTE   W03
 BYTE   W03
 BYTE   W03
 BYTE   W03
 BYTE   W01
// 007   ----------------------------------------
 BYTE   N07  Fn4
 BYTE   W08
 BYTE   Gn4
 BYTE   W08
 BYTE   N30  Gs2
 BYTE   W01
 BYTE   W01
 BYTE   W02
 BYTE   W01
 BYTE   W02
 BYTE   W01
 BYTE   W01
 BYTE   W02
 BYTE   W01
 BYTE   W02
 BYTE   W01
 BYTE   W02
 BYTE   W01
 BYTE   W02
 BYTE   W01
 BYTE   W02
 BYTE   W01
 BYTE   W02
 BYTE   W01
 BYTE   W02
 BYTE   W01
 BYTE   W01
 BYTE   W01
 BYTE   N07  Ds4
 BYTE   W08
 BYTE   Ds4  v068
 BYTE   W08
 BYTE   Ds4  v052
 BYTE   W08
 BYTE   N23  As1  v116
 BYTE   W02
 BYTE   W02
 BYTE   W01
 BYTE   W02
 BYTE   W01
 BYTE   W02
 BYTE   W01
 BYTE   W02
 BYTE   W01
 BYTE   W02
 BYTE   W01
 BYTE   W02
 BYTE   W01
 BYTE   W02
 BYTE   W01
 BYTE   W01
// 008   ----------------------------------------
 BYTE   N44  Cn2
 BYTE   W03
 BYTE   W03
 BYTE   W03
 BYTE   W03
 BYTE   W03
 BYTE   W03
 BYTE   W03
 BYTE   W03
 BYTE   W03
 BYTE   W03
 BYTE   W03
 BYTE   W03
 BYTE   W03
 BYTE   W03
 BYTE   W03
 BYTE   W03
 BYTE   As1
 BYTE   W03
 BYTE   W03
 BYTE   W03
 BYTE   W03
 BYTE   W03
 BYTE   W03
 BYTE   W03
 BYTE   W03
 BYTE   W03
 BYTE   W03
 BYTE   W03
 BYTE   W03
 BYTE   W03
 BYTE   W03
 BYTE   W03
 BYTE   W01
 BYTE   W02
 BYTE   PATT
  POIN2 Label_1_0101B86B
// 009   ----------------------------------------
 BYTE   N44  Cn2  v116
 BYTE   W01
 BYTE   W03
 BYTE   W03
 BYTE   W03
 BYTE   W03
 BYTE   W03
 BYTE   W03
 BYTE   W03
 BYTE   W03
 BYTE   W03
 BYTE   W03
 BYTE   W03
 BYTE   W03
 BYTE   W03
 BYTE   W03
 BYTE   W03
 BYTE   W02
 BYTE   As1
 BYTE   W01
 BYTE   W03
 BYTE   W03
 BYTE   W03
 BYTE   W03
 BYTE   W03
 BYTE   W03
 BYTE   W03
 BYTE   W03
 BYTE   W03
 BYTE   W03
 BYTE   W03
 BYTE   W03
 BYTE   W03
 BYTE   W03
 BYTE   W03
 BYTE   W02
// 010   ----------------------------------------
 BYTE   N92  Cn2
 BYTE   W01
 BYTE   W01
 BYTE   W01
 BYTE   W02
 BYTE   W01
 BYTE   W02
 BYTE   W01
 BYTE   W02
 BYTE   W01
 BYTE   W02
 BYTE   W01
 BYTE   W02
 BYTE   W01
 BYTE   W02
 BYTE   W01
 BYTE   W02
 BYTE   W01
 BYTE   W02
 BYTE   W03
 BYTE   W03
 BYTE   W03
 BYTE   W03
 BYTE   W03
 BYTE   W03
 BYTE   W03
 BYTE   W03
 BYTE   W03
 BYTE   W03
 BYTE   W03
 BYTE   W03
 BYTE   W03
 BYTE   W03
 BYTE   W03
 BYTE   W03
 BYTE   W03
 BYTE   W03
 BYTE   W03
 BYTE   W03
 BYTE   W03
 BYTE   W03
 BYTE   W01
 BYTE   W02
 BYTE   W01
// 011   ----------------------------------------
 BYTE   W02
 BYTE   W01
 BYTE   W02
 BYTE   W01
 BYTE   W02
 BYTE   W01
 BYTE   W01
 BYTE   W02
 BYTE   W01
 BYTE   W02
 BYTE   W01
 BYTE   W02
 BYTE   W06
 BYTE   N23  Fn2
 BYTE   W05
 BYTE   W06
 BYTE   W06
 BYTE   W05
 BYTE   W02
 BYTE   Gn2
 BYTE   W04
 BYTE   W05
 BYTE   W06
 BYTE   W06
 BYTE   W03
 BYTE   As2
 BYTE   W02
 BYTE   W06
 BYTE   W06
 BYTE   W05
 BYTE   W05
// 012   ----------------------------------------
 BYTE   W01
 BYTE   W03
 BYTE   W03
 BYTE   W03
 BYTE   W03
 BYTE   W03
 BYTE   W03
 BYTE   W03
 BYTE   W02
 BYTE   Fn2
 BYTE   W01
 BYTE   W03
 BYTE   W03
 BYTE   W03
 BYTE   W03
 BYTE   W03
 BYTE   W03
 BYTE   W03
 BYTE   W02
 BYTE   Gn2
 BYTE   W01
 BYTE   W03
 BYTE   W20
 BYTE   Ds2
 BYTE   N23  As2
 BYTE   W24
// 013   ----------------------------------------
 BYTE   N44  Fn2
 BYTE   W02
 BYTE   W03
 BYTE   W03
 BYTE   W03
 BYTE   W03
 BYTE   W03
 BYTE   W03
 BYTE   W03
 BYTE   W03
 BYTE   W03
 BYTE   W03
 BYTE   W03
 BYTE   W03
 BYTE   W03
 BYTE   W03
 BYTE   W01
 BYTE   W03
 BYTE   En2
 BYTE   W03
 BYTE   W03
 BYTE   W03
 BYTE   W03
 BYTE   W03
 BYTE   W03
 BYTE   W03
 BYTE   W03
 BYTE   W03
 BYTE   W03
 BYTE   W03
 BYTE   W03
 BYTE   W03
 BYTE   W03
 BYTE   W03
 BYTE   W01
 BYTE   W02
// 014   ----------------------------------------
 BYTE   N23  Ds2
 BYTE   W03
 BYTE   W05
 BYTE   W06
 BYTE   W05
 BYTE   W05
 BYTE   N06  Ds4  v072
 BYTE   W05
 BYTE   W03
 BYTE   N03  Ds4  v088
 BYTE   W03
 BYTE   W01
 BYTE   N03
 BYTE   W04
 BYTE   N06  Gs4  v116
 BYTE   W08
 BYTE   Cn5
 BYTE   W08
 BYTE   Gs4
 BYTE   W07
 BYTE   W01
 BYTE   Ds4  v104
 BYTE   W08
 BYTE   Gs4
 BYTE   W08
 BYTE   Ds4  v084
 BYTE   W05
 BYTE   W03
 BYTE   Cn4  v072
 BYTE   W08
// 015   ----------------------------------------
 BYTE   W12
 BYTE   W84
// 016   ----------------------------------------
 BYTE   W96
// 017   ----------------------------------------
 BYTE   W96
// 018   ----------------------------------------
 BYTE   W96
// 019   ----------------------------------------
 BYTE   W96
// 020   ----------------------------------------
 BYTE   W96
// 021   ----------------------------------------
 BYTE   W96
// 022   ----------------------------------------
 BYTE   W96
// 023   ----------------------------------------
 BYTE   W96
// 024   ----------------------------------------
 BYTE   W96
// 025   ----------------------------------------
 BYTE   W96
// 026   ----------------------------------------
Label_1_0101BAA1:
 BYTE   N05  Bn4  v104
 BYTE   W06
 BYTE   N05
 BYTE   W06
 BYTE   N11  Bn4  v124
 BYTE   W84
 BYTE   PEND 
// 027   ----------------------------------------
 BYTE   W96
 BYTE   PATT
  POIN2 Label_1_0101BAA1
// 028   ----------------------------------------
 BYTE   W96
// 029   ----------------------------------------
 BYTE   N11  Cn5  v104
 BYTE   W12
 BYTE   N05  Cn5  v076
 BYTE   W06
 BYTE   N05
 BYTE   W06
 BYTE   N11  Cn5  v104
 BYTE   W12
 BYTE   N05  Cn5  v076
 BYTE   W06
 BYTE   N05
 BYTE   W06
 BYTE   N11  Cn5  v104
 BYTE   W12
 BYTE   N05  Cn5  v076
 BYTE   W06
 BYTE   N05
 BYTE   W06
 BYTE   N11  Cn5  v104
 BYTE   W12
 BYTE   N05  Cn5  v076
 BYTE   W06
 BYTE   N05
 BYTE   W06
// 030   ----------------------------------------
 BYTE   N11  Cn5  v104
 BYTE   W12
 BYTE   N05  Cn5  v076
 BYTE   W06
 BYTE   N05
 BYTE   W06
 BYTE   N11  Cn5  v104
 BYTE   W12
 BYTE   N05  Cn5  v076
 BYTE   W06
 BYTE   N05
 BYTE   W06
 BYTE   N11  Cn5  v104
 BYTE   W12
 BYTE   N05  Cn5  v076
 BYTE   W06
 BYTE   N05
 BYTE   W06
 BYTE   N11  Cn5  v104
 BYTE   W12
 BYTE   N05  Cn5  v076
 BYTE   W06
 BYTE   GoTo
  POIN2 Label_1_0101B83E
// 031   ----------------------------------------
 BYTE   N05  Cn5  v076
 BYTE   W05
 BYTE   FINE

//**************** Track 3 (Midi-Chn.2) ****************//

FE12LiberationGratedShtick_003:
// 000   ----------------------------------------
 BYTE   KEYSH   FE12LiberationGratedShtick_key+0
Label_2_0101BB0E:
 BYTE   VOICE   46
 BYTE   VOL   46*FE12LiberationGratedShtick_mvl/mxv
 BYTE   PAN   c_v+63
 BYTE   BEND   c_v+0
 BYTE   N44  Fn2  v116
 BYTE   W03
 BYTE   W03
 BYTE   W03
 BYTE   W03
 BYTE   W03
 BYTE   W03
 BYTE   W03
 BYTE   W03
 BYTE   W03
 BYTE   W03
 BYTE   W03
 BYTE   W03
 BYTE   W03
 BYTE   W03
 BYTE   W03
 BYTE   W03
 BYTE   Ds2
 BYTE   W03
 BYTE   W03
 BYTE   W03
 BYTE   W03
 BYTE   W03
 BYTE   W03
 BYTE   W03
 BYTE   W03
 BYTE   W03
 BYTE   W03
 BYTE   W03
 BYTE   W03
 BYTE   W03
 BYTE   W03
 BYTE   W03
 BYTE   W01
 BYTE   W02
// 001   ----------------------------------------
Label_2_0101BB3B:
 BYTE   N44  Fn2  v116
 BYTE   W01
 BYTE   W03
 BYTE   W03
 BYTE   W03
 BYTE   W03
 BYTE   W03
 BYTE   W03
 BYTE   W03
 BYTE   W03
 BYTE   W03
 BYTE   W03
 BYTE   W03
 BYTE   W03
 BYTE   W03
 BYTE   W03
 BYTE   W03
 BYTE   W02
 BYTE   Ds2
 BYTE   W01
 BYTE   W03
 BYTE   W03
 BYTE   W03
 BYTE   W03
 BYTE   W03
 BYTE   W03
 BYTE   W03
 BYTE   W03
 BYTE   W03
 BYTE   W03
 BYTE   W03
 BYTE   W03
 BYTE   W03
 BYTE   W03
 BYTE   W03
 BYTE   W02
 BYTE   PEND 
// 002   ----------------------------------------
Label_2_0101BB62:
 BYTE   N44  Fn2  v116
 BYTE   W01
 BYTE   W03
 BYTE   W03
 BYTE   W03
 BYTE   W03
 BYTE   W03
 BYTE   W03
 BYTE   W03
 BYTE   W03
 BYTE   W03
 BYTE   W03
 BYTE   W03
 BYTE   W03
 BYTE   W03
 BYTE   W03
 BYTE   W03
 BYTE   W02
 BYTE   Ds2
 BYTE   W01
 BYTE   W03
 BYTE   W03
 BYTE   W03
 BYTE   W03
 BYTE   W03
 BYTE   W03
 BYTE   W03
 BYTE   W03
 BYTE   W03
 BYTE   W03
 BYTE   W03
 BYTE   W03
 BYTE   W03
 BYTE   W03
 BYTE   W03
 BYTE   W02
 BYTE   PEND 
// 003   ----------------------------------------
 BYTE   N92  Fn2
 BYTE   W01
 BYTE   W01
 BYTE   W01
 BYTE   W02
 BYTE   W01
 BYTE   W02
 BYTE   W01
 BYTE   W02
 BYTE   W01
 BYTE   W02
 BYTE   W01
 BYTE   W02
 BYTE   W01
 BYTE   W02
 BYTE   W01
 BYTE   W02
 BYTE   W01
 BYTE   W02
 BYTE   W03
 BYTE   W03
 BYTE   W03
 BYTE   W03
 BYTE   W03
 BYTE   W03
 BYTE   W03
 BYTE   W03
 BYTE   W03
 BYTE   W03
 BYTE   W03
 BYTE   W03
 BYTE   W03
 BYTE   W03
 BYTE   W03
 BYTE   W03
 BYTE   W03
 BYTE   W03
 BYTE   W03
 BYTE   W03
 BYTE   W03
 BYTE   W03
 BYTE   W03
 BYTE   W01
// 004   ----------------------------------------
 BYTE   W01
 BYTE   W02
 BYTE   W01
 BYTE   W02
 BYTE   W01
 BYTE   W02
 BYTE   W01
 BYTE   W02
 BYTE   W01
 BYTE   W02
 BYTE   W01
 BYTE   W02
 BYTE   W01
 BYTE   W02
 BYTE   W01
 BYTE   W02
 BYTE   N23  Gs2
 BYTE   W03
 BYTE   W04
 BYTE   W05
 BYTE   W04
 BYTE   W05
 BYTE   W03
 BYTE   Ds3
 BYTE   W01
 BYTE   W05
 BYTE   W04
 BYTE   W05
 BYTE   W04
 BYTE   W05
 BYTE   Gn3
 BYTE   W04
 BYTE   W05
 BYTE   W04
 BYTE   W05
 BYTE   W04
 BYTE   W02
// 005   ----------------------------------------
 BYTE   W01
 BYTE   W03
 BYTE   W03
 BYTE   W03
 BYTE   W03
 BYTE   W03
 BYTE   W03
 BYTE   W03
 BYTE   W02
 BYTE   Gs2
 BYTE   W01
 BYTE   W03
 BYTE   W03
 BYTE   W03
 BYTE   W03
 BYTE   W03
 BYTE   W03
 BYTE   W03
 BYTE   W02
 BYTE   Ds3
 BYTE   W01
 BYTE   W03
 BYTE   W03
 BYTE   W03
 BYTE   W02
 BYTE   W12
 BYTE   As2
 BYTE   W19
 BYTE   W05
// 006   ----------------------------------------
 BYTE   N07  Fn4
 BYTE   W08
 BYTE   Gn4
 BYTE   W08
 BYTE   N30  Gs2
 BYTE   W03
 BYTE   W01
 BYTE   W02
 BYTE   W01
 BYTE   W02
 BYTE   W01
 BYTE   W02
 BYTE   W01
 BYTE   W01
 BYTE   W01
 BYTE   W02
 BYTE   W01
 BYTE   W02
 BYTE   W01
 BYTE   W02
 BYTE   W01
 BYTE   W02
 BYTE   W01
 BYTE   W02
 BYTE   W01
 BYTE   W02
 BYTE   N07  Gn4
 BYTE   W08
 BYTE   Gs4
 BYTE   W08
 BYTE   N30  As2
 BYTE   W02
 BYTE   W01
 BYTE   W02
 BYTE   W01
 BYTE   W02
 BYTE   W01
 BYTE   W01
 BYTE   W03
 BYTE   W03
 BYTE   W03
 BYTE   W03
 BYTE   W03
 BYTE   W03
 BYTE   W03
 BYTE   W01
// 007   ----------------------------------------
 BYTE   N07  Gs4
 BYTE   W08
 BYTE   As4
 BYTE   W08
 BYTE   N30  Cn3
 BYTE   W01
 BYTE   W01
 BYTE   W02
 BYTE   W01
 BYTE   W02
 BYTE   W01
 BYTE   W01
 BYTE   W02
 BYTE   W01
 BYTE   W02
 BYTE   W01
 BYTE   W02
 BYTE   W01
 BYTE   W02
 BYTE   W01
 BYTE   W02
 BYTE   W01
 BYTE   W02
 BYTE   W01
 BYTE   W02
 BYTE   W01
 BYTE   W01
 BYTE   W01
 BYTE   N07  As4
 BYTE   W08
 BYTE   As4  v068
 BYTE   W08
 BYTE   As4  v052
 BYTE   W08
 BYTE   N23  Ds2  v116
 BYTE   W02
 BYTE   W02
 BYTE   W01
 BYTE   W02
 BYTE   W01
 BYTE   W02
 BYTE   W01
 BYTE   W02
 BYTE   W01
 BYTE   W02
 BYTE   W01
 BYTE   W02
 BYTE   W01
 BYTE   W02
 BYTE   W01
 BYTE   W01
// 008   ----------------------------------------
 BYTE   N44  Fn2
 BYTE   W03
 BYTE   W03
 BYTE   W03
 BYTE   W03
 BYTE   W03
 BYTE   W03
 BYTE   W03
 BYTE   W03
 BYTE   W03
 BYTE   W03
 BYTE   W03
 BYTE   W03
 BYTE   W03
 BYTE   W03
 BYTE   W03
 BYTE   W03
 BYTE   Ds2
 BYTE   W03
 BYTE   W03
 BYTE   W03
 BYTE   W03
 BYTE   W03
 BYTE   W03
 BYTE   W03
 BYTE   W03
 BYTE   W03
 BYTE   W03
 BYTE   W03
 BYTE   W03
 BYTE   W03
 BYTE   W03
 BYTE   W03
 BYTE   W01
 BYTE   W02
 BYTE   PATT
  POIN2 Label_2_0101BB3B
 BYTE   PATT
  POIN2 Label_2_0101BB62
// 009   ----------------------------------------
 BYTE   N92  Fn2  v116
 BYTE   W01
 BYTE   W01
 BYTE   W01
 BYTE   W02
 BYTE   W01
 BYTE   W02
 BYTE   W01
 BYTE   W02
 BYTE   W01
 BYTE   W02
 BYTE   W01
 BYTE   W02
 BYTE   W01
 BYTE   W02
 BYTE   W01
 BYTE   W02
 BYTE   W01
 BYTE   W02
 BYTE   W03
 BYTE   W03
 BYTE   W03
 BYTE   W03
 BYTE   W03
 BYTE   W03
 BYTE   W03
 BYTE   W03
 BYTE   W03
 BYTE   W03
 BYTE   W03
 BYTE   W03
 BYTE   W03
 BYTE   W03
 BYTE   W03
 BYTE   W03
 BYTE   W03
 BYTE   W03
 BYTE   W03
 BYTE   W03
 BYTE   W03
 BYTE   W03
 BYTE   W01
 BYTE   W02
 BYTE   W01
// 010   ----------------------------------------
 BYTE   W02
 BYTE   W01
 BYTE   W02
 BYTE   W01
 BYTE   W02
 BYTE   W01
 BYTE   W01
 BYTE   W02
 BYTE   W01
 BYTE   W02
 BYTE   W01
 BYTE   W02
 BYTE   W06
 BYTE   N23  Gs2
 BYTE   W05
 BYTE   W06
 BYTE   W06
 BYTE   W05
 BYTE   W02
 BYTE   Ds3
 BYTE   W04
 BYTE   W05
 BYTE   W06
 BYTE   W06
 BYTE   W03
 BYTE   Gn3
 BYTE   W02
 BYTE   W06
 BYTE   W06
 BYTE   W05
 BYTE   W05
// 011   ----------------------------------------
 BYTE   W01
 BYTE   W03
 BYTE   W03
 BYTE   W03
 BYTE   W03
 BYTE   W03
 BYTE   W03
 BYTE   W03
 BYTE   W02
 BYTE   Gs2
 BYTE   W01
 BYTE   W03
 BYTE   W03
 BYTE   W03
 BYTE   W03
 BYTE   W03
 BYTE   W03
 BYTE   W03
 BYTE   W02
 BYTE   Ds3
 BYTE   W01
 BYTE   W03
 BYTE   W20
 BYTE   As2
 BYTE   W24
// 012   ----------------------------------------
 BYTE   N44  Cs3
 BYTE   W02
 BYTE   W03
 BYTE   W03
 BYTE   W03
 BYTE   W03
 BYTE   W03
 BYTE   W03
 BYTE   W03
 BYTE   W03
 BYTE   W03
 BYTE   W03
 BYTE   W03
 BYTE   W03
 BYTE   W03
 BYTE   W03
 BYTE   W01
 BYTE   W03
 BYTE   N07
 BYTE   W03
 BYTE   W03
 BYTE   W02
 BYTE   Ds3
 BYTE   W01
 BYTE   W03
 BYTE   W03
 BYTE   W01
 BYTE   Cs3
 BYTE   W02
 BYTE   W03
 BYTE   W03
 BYTE   N23
 BYTE   W03
 BYTE   W03
 BYTE   W03
 BYTE   W03
 BYTE   W03
 BYTE   W03
 BYTE   W03
 BYTE   W01
 BYTE   W02
// 013   ----------------------------------------
 BYTE   Cn3
 BYTE   W03
 BYTE   W05
 BYTE   W06
 BYTE   W05
 BYTE   W05
 BYTE   N06  Cn5  v072
 BYTE   W05
 BYTE   W03
 BYTE   N03  Cn5  v088
 BYTE   W03
 BYTE   W01
 BYTE   N03
 BYTE   W04
 BYTE   N06  Ds5  v116
 BYTE   W08
 BYTE   Gs5
 BYTE   W08
 BYTE   Ds5
 BYTE   W07
 BYTE   W01
 BYTE   Cn5  v104
 BYTE   W08
 BYTE   Ds5
 BYTE   W08
 BYTE   Cn5  v084
 BYTE   W05
 BYTE   W03
 BYTE   Gs4  v072
 BYTE   W08
// 014   ----------------------------------------
 BYTE   W12
 BYTE   W84
// 015   ----------------------------------------
 BYTE   W96
// 016   ----------------------------------------
 BYTE   W96
// 017   ----------------------------------------
 BYTE   W96
// 018   ----------------------------------------
 BYTE   W96
// 019   ----------------------------------------
 BYTE   W96
// 020   ----------------------------------------
 BYTE   W96
// 021   ----------------------------------------
 BYTE   W96
// 022   ----------------------------------------
 BYTE   W96
// 023   ----------------------------------------
 BYTE   W96
// 024   ----------------------------------------
 BYTE   W96
// 025   ----------------------------------------
Label_2_0101BD56:
 BYTE   N05  En5  v104
 BYTE   W06
 BYTE   N05
 BYTE   W06
 BYTE   N11  En5  v124
 BYTE   W84
 BYTE   PEND 
// 026   ----------------------------------------
 BYTE   W96
 BYTE   PATT
  POIN2 Label_2_0101BD56
// 027   ----------------------------------------
 BYTE   W96
// 028   ----------------------------------------
 BYTE   N11  Gn5  v104
 BYTE   W12
 BYTE   N05  Gn5  v076
 BYTE   W06
 BYTE   N05
 BYTE   W06
 BYTE   N11  Gn5  v104
 BYTE   W12
 BYTE   N05  Gn5  v076
 BYTE   W06
 BYTE   N05
 BYTE   W06
 BYTE   N11  Gn5  v104
 BYTE   W12
 BYTE   N05  Gn5  v076
 BYTE   W06
 BYTE   N05
 BYTE   W06
 BYTE   N11  Gn5  v104
 BYTE   W12
 BYTE   N05  Gn5  v076
 BYTE   W06
 BYTE   N05
 BYTE   W06
// 029   ----------------------------------------
 BYTE   N11  Gn5  v104
 BYTE   W12
 BYTE   N05  Gn5  v076
 BYTE   W06
 BYTE   N05
 BYTE   W06
 BYTE   N11  Gn5  v104
 BYTE   W12
 BYTE   N05  Gn5  v076
 BYTE   W06
 BYTE   N05
 BYTE   W06
 BYTE   N11  Gn5  v104
 BYTE   W12
 BYTE   N05  Gn5  v076
 BYTE   W06
 BYTE   N05
 BYTE   W06
 BYTE   N11  Gn5  v104
 BYTE   W12
 BYTE   N05  Gn5  v076
 BYTE   W06
 BYTE   GoTo
  POIN2 Label_2_0101BB0E
// 030   ----------------------------------------
 BYTE   N05  Gn5  v076
 BYTE   W05
 BYTE   FINE

//**************** Track 4 (Midi-Chn.3) ****************//

FE12LiberationGratedShtick_004:
// 000   ----------------------------------------
 BYTE   KEYSH   FE12LiberationGratedShtick_key+0
Label_3_0101BDC2:
 BYTE   VOICE   73
 BYTE   W96
// 001   ----------------------------------------
 BYTE   VOL   50*FE12LiberationGratedShtick_mvl/mxv
 BYTE   PAN   c_v+32
 BYTE   BEND   c_v+0
 BYTE   W96
// 002   ----------------------------------------
 BYTE   W96
// 003   ----------------------------------------
 BYTE   W42
 BYTE   W01
 BYTE   W01
 BYTE   W02
 BYTE   W01
 BYTE   W02
 BYTE   W01
 BYTE   W02
 BYTE   W01
 BYTE   W02
 BYTE   W01
 BYTE   W02
 BYTE   W01
 BYTE   W02
 BYTE   W01
 BYTE   W02
 BYTE   W01
 BYTE   W02
 BYTE   W03
 BYTE   W02
 BYTE   N03  Dn3  v116
 BYTE   W01
 BYTE   W03
 BYTE   Ds3
 BYTE   W03
 BYTE   W01
 BYTE   Fn3
 BYTE   W02
 BYTE   W02
 BYTE   Gn3
 BYTE   W01
 BYTE   W03
 BYTE   Gs3
 BYTE   W03
 BYTE   W01
 BYTE   As3
 BYTE   W02
 BYTE   W02
// 004   ----------------------------------------
 BYTE   N30  Cn4  v104
 BYTE   W01
 BYTE   W01
 BYTE   W01
 BYTE   W01
 BYTE   W01
 BYTE   W01
 BYTE   W01
 BYTE   W01
 BYTE   W01
 BYTE   W02
 BYTE   W01
 BYTE   W02
 BYTE   W01
 BYTE   W02
 BYTE   W01
 BYTE   W02
 BYTE   W01
 BYTE   W02
 BYTE   W01
 BYTE   W02
 BYTE   W01
 BYTE   W01
 BYTE   W04
 BYTE   N07  As3
 BYTE   W08
 BYTE   Cn4
 BYTE   W08
 BYTE   N23  As3
 BYTE   W01
 BYTE   W02
 BYTE   W01
 BYTE   W02
 BYTE   W01
 BYTE   W02
 BYTE   W01
 BYTE   W02
 BYTE   W01
 BYTE   W04
 BYTE   W05
 BYTE   W02
 BYTE   Ds4
 BYTE   W03
 BYTE   W05
 BYTE   W05
 BYTE   W01
 BYTE   W02
 BYTE   W01
 BYTE   W02
 BYTE   W01
 BYTE   W02
 BYTE   W01
 BYTE   W01
// 005   ----------------------------------------
 BYTE   N30  Cn4
 BYTE   W01
 BYTE   W02
 BYTE   W01
 BYTE   W02
 BYTE   W01
 BYTE   W02
 BYTE   W01
 BYTE   W02
 BYTE   W01
 BYTE   W02
 BYTE   W01
 BYTE   W02
 BYTE   W01
 BYTE   W02
 BYTE   W01
 BYTE   W02
 BYTE   W01
 BYTE   W02
 BYTE   W01
 BYTE   W02
 BYTE   W02
 BYTE   N07  As3
 BYTE   W06
 BYTE   W02
 BYTE   Cn4
 BYTE   W07
 BYTE   W01
 BYTE   N23  As3
 BYTE   W02
 BYTE   W01
 BYTE   W02
 BYTE   W01
 BYTE   W02
 BYTE   W01
 BYTE   W01
 BYTE   W02
 BYTE   W01
 BYTE   W02
 BYTE   W01
 BYTE   W02
 BYTE   W01
 BYTE   W02
 BYTE   W01
 BYTE   W02
 BYTE   N11  Gn3
 BYTE   W01
 BYTE   W02
 BYTE   W01
 BYTE   W01
 BYTE   W02
 BYTE   W01
 BYTE   W02
 BYTE   W01
 BYTE   W01
 BYTE   N03  Gn3  v124
 BYTE   W04
 BYTE   Gs3
 BYTE   W04
 BYTE   As3
 BYTE   W04
// 006   ----------------------------------------
 BYTE   N30  Cn4  v104
 BYTE   W02
 BYTE   W01
 BYTE   W02
 BYTE   W01
 BYTE   W02
 BYTE   W03
 BYTE   W03
 BYTE   W03
 BYTE   W03
 BYTE   W03
 BYTE   W03
 BYTE   W03
 BYTE   W02
 BYTE   W01
 BYTE   N05  As3  v124
 BYTE   W05
 BYTE   W03
 BYTE   Gs3
 BYTE   W01
 BYTE   W03
 BYTE   W03
 BYTE   W01
 BYTE   N30  As3  v104
 BYTE   W01
 BYTE   W01
 BYTE   W02
 BYTE   W01
 BYTE   W02
 BYTE   W01
 BYTE   W02
 BYTE   W01
 BYTE   W02
 BYTE   W01
 BYTE   W02
 BYTE   W01
 BYTE   W02
 BYTE   W01
 BYTE   W02
 BYTE   W01
 BYTE   W02
 BYTE   W01
 BYTE   W02
 BYTE   W01
 BYTE   W02
 BYTE   W01
 BYTE   N05  Gs3  v124
 BYTE   W07
 BYTE   W01
 BYTE   Gn3
 BYTE   W07
 BYTE   W01
// 007   ----------------------------------------
 BYTE   N30  Gs3  v104
 BYTE   W01
 BYTE   W01
 BYTE   W01
 BYTE   W01
 BYTE   W01
 BYTE   W01
 BYTE   W01
 BYTE   W02
 BYTE   W01
 BYTE   W02
 BYTE   W01
 BYTE   W02
 BYTE   W01
 BYTE   W02
 BYTE   W01
 BYTE   W02
 BYTE   W01
 BYTE   W02
 BYTE   W01
 BYTE   W02
 BYTE   W01
 BYTE   W01
 BYTE   W03
 BYTE   N05  Gn3  v124
 BYTE   W04
 BYTE   W04
 BYTE   Fn3
 BYTE   W04
 BYTE   W03
 BYTE   W01
 BYTE   N30  Gn3  v104
 BYTE   W01
 BYTE   W01
 BYTE   W02
 BYTE   W01
 BYTE   W02
 BYTE   W01
 BYTE   W01
 BYTE   W02
 BYTE   W01
 BYTE   W02
 BYTE   W01
 BYTE   W02
 BYTE   W01
 BYTE   W02
 BYTE   W01
 BYTE   W02
 BYTE   W01
 BYTE   W02
 BYTE   W01
 BYTE   W02
 BYTE   W01
 BYTE   W02
 BYTE   N05  Fn3  v124
 BYTE   W01
 BYTE   W02
 BYTE   W01
 BYTE   W02
 BYTE   W01
 BYTE   W01
 BYTE   Ds3
 BYTE   W02
 BYTE   W03
 BYTE   W03
// 008   ----------------------------------------
 BYTE   N92  Cn3  v112
 BYTE   W02
 BYTE   W03
 BYTE   W03
 BYTE   W03
 BYTE   W03
 BYTE   W03
 BYTE   W03
 BYTE   W03
 BYTE   W03
 BYTE   W03
 BYTE   W03
 BYTE   W03
 BYTE   W03
 BYTE   W03
 BYTE   W03
 BYTE   W03
 BYTE   W03
 BYTE   W03
 BYTE   W03
 BYTE   W03
 BYTE   W03
 BYTE   W03
 BYTE   W03
 BYTE   W03
 BYTE   W03
 BYTE   W03
 BYTE   W03
 BYTE   W03
 BYTE   W03
 BYTE   W03
 BYTE   W03
 BYTE   W03
 BYTE   W01
// 009   ----------------------------------------
 BYTE   W01
 BYTE   W92
 BYTE   W03
// 010   ----------------------------------------
 BYTE   W96
// 011   ----------------------------------------
 BYTE   W66
 BYTE   W01
 BYTE   W01
 BYTE   W01
 BYTE   W01
 BYTE   W01
 BYTE   W01
 BYTE   N03  Dn3  v116
 BYTE   W02
 BYTE   W02
 BYTE   Ds3
 BYTE   W01
 BYTE   W03
 BYTE   Fn3
 BYTE   W03
 BYTE   W01
 BYTE   Gn3
 BYTE   W02
 BYTE   W02
 BYTE   Gs3
 BYTE   W01
 BYTE   W03
 BYTE   As3
 BYTE   W03
 BYTE   W01
// 012   ----------------------------------------
 BYTE   N30  Cn4  v104
 BYTE   W02
 BYTE   W01
 BYTE   W01
 BYTE   W01
 BYTE   W01
 BYTE   W01
 BYTE   W01
 BYTE   W01
 BYTE   W01
 BYTE   W01
 BYTE   W02
 BYTE   W01
 BYTE   W02
 BYTE   W01
 BYTE   W02
 BYTE   W01
 BYTE   W02
 BYTE   W01
 BYTE   W02
 BYTE   W01
 BYTE   W02
 BYTE   W01
 BYTE   W03
 BYTE   N07  As3
 BYTE   W08
 BYTE   Cn4
 BYTE   W06
 BYTE   W01
 BYTE   W01
 BYTE   N23  As3
 BYTE   W01
 BYTE   W01
 BYTE   W02
 BYTE   W01
 BYTE   W02
 BYTE   W01
 BYTE   W02
 BYTE   W01
 BYTE   W04
 BYTE   W03
 BYTE   W03
 BYTE   W03
 BYTE   Ds4
 BYTE   W03
 BYTE   W04
 BYTE   W03
 BYTE   W03
 BYTE   W03
 BYTE   W02
 BYTE   W01
 BYTE   W02
 BYTE   W01
 BYTE   W01
 BYTE   W01
// 013   ----------------------------------------
 BYTE   N30  Cn4
 BYTE   W01
 BYTE   W01
 BYTE   W02
 BYTE   W01
 BYTE   W02
 BYTE   W01
 BYTE   W02
 BYTE   W01
 BYTE   W01
 BYTE   W02
 BYTE   W01
 BYTE   W02
 BYTE   W01
 BYTE   W02
 BYTE   W01
 BYTE   W02
 BYTE   W01
 BYTE   W02
 BYTE   W01
 BYTE   W02
 BYTE   W01
 BYTE   W02
 BYTE   N07  As3
 BYTE   W01
 BYTE   W07
 BYTE   Cn4
 BYTE   W08
 BYTE   N23  As3
 BYTE   W08
 BYTE   W07
 BYTE   W04
 BYTE   W04
 BYTE   W01
 BYTE   Gn3
 BYTE   W02
 BYTE   W04
 BYTE   W04
 BYTE   W01
 BYTE   W02
 BYTE   W01
 BYTE   W02
 BYTE   W01
 BYTE   W02
 BYTE   W01
 BYTE   W02
 BYTE   W01
 BYTE   W01
// 014   ----------------------------------------
 BYTE   N30  Gs3
 BYTE   W02
 BYTE   W01
 BYTE   W02
 BYTE   W01
 BYTE   W02
 BYTE   W01
 BYTE   W02
 BYTE   W01
 BYTE   W02
 BYTE   W01
 BYTE   W02
 BYTE   W01
 BYTE   W02
 BYTE   W01
 BYTE   W02
 BYTE   W01
 BYTE   W01
 BYTE   W01
 BYTE   W02
 BYTE   W01
 BYTE   W02
 BYTE   W01
 BYTE   N06  Gn3  v116
 BYTE   W02
 BYTE   W01
 BYTE   W02
 BYTE   W01
 BYTE   W02
 BYTE   Fn3
 BYTE   W01
 BYTE   W02
 BYTE   W01
 BYTE   W02
 BYTE   W01
 BYTE   W01
 BYTE   N30  Gs3  v104
 BYTE   W01
 BYTE   W01
 BYTE   W02
 BYTE   W01
 BYTE   W02
 BYTE   W01
 BYTE   W02
 BYTE   W01
 BYTE   W02
 BYTE   W01
 BYTE   W02
 BYTE   W01
 BYTE   W02
 BYTE   W01
 BYTE   W02
 BYTE   W01
 BYTE   W01
 BYTE   W02
 BYTE   W01
 BYTE   W02
 BYTE   W01
 BYTE   W02
 BYTE   N06  Fs3  v116
 BYTE   W01
 BYTE   W02
 BYTE   W01
 BYTE   W02
 BYTE   W01
 BYTE   W01
 BYTE   En3
 BYTE   W01
 BYTE   W01
 BYTE   W02
 BYTE   W01
 BYTE   W02
 BYTE   W01
// 015   ----------------------------------------
 BYTE   N80  Gs3  v104
 BYTE   W01
 BYTE   W02
 BYTE   W01
 BYTE   W02
 BYTE   W01
 BYTE   W02
 BYTE   W01
 BYTE   W02
 BYTE   W01
 BYTE   W02
 BYTE   W01
 BYTE   W01
 BYTE   W05
 BYTE   W05
 BYTE   W03
 BYTE   W03
 BYTE   W03
 BYTE   W03
 BYTE   W03
 BYTE   W03
 BYTE   W03
 BYTE   W03
 BYTE   W03
 BYTE   W03
 BYTE   W03
 BYTE   W03
 BYTE   W03
 BYTE   W03
 BYTE   W03
 BYTE   W03
 BYTE   W03
 BYTE   W03
 BYTE   W02
 BYTE   W02
 BYTE   W01
 BYTE   W02
 BYTE   W01
 BYTE   W02
 BYTE   W01
 BYTE   W02
 BYTE   W01
 BYTE   VOL   38*FE12LiberationGratedShtick_mvl/mxv
 BYTE   PAN   c_v-32
 BYTE   BEND   c_v+0
 BYTE   W01
// 016   ----------------------------------------
 BYTE   N44  Fs3
 BYTE   W01
 BYTE   W02
 BYTE   W03
 BYTE   W03
 BYTE   W03
 BYTE   W03
 BYTE   W03
 BYTE   W03
 BYTE   W03
 BYTE   W03
 BYTE   W03
 BYTE   W03
 BYTE   W03
 BYTE   W03
 BYTE   W03
 BYTE   W03
 BYTE   W03
 BYTE   En3
 BYTE   W03
 BYTE   W03
 BYTE   W03
 BYTE   W03
 BYTE   W03
 BYTE   W03
 BYTE   W03
 BYTE   W03
 BYTE   W03
 BYTE   W03
 BYTE   W03
 BYTE   W03
 BYTE   W03
 BYTE   W03
 BYTE   W03
 BYTE   W03
// 017   ----------------------------------------
 BYTE   Fs3
 BYTE   W03
 BYTE   W03
 BYTE   W03
 BYTE   W03
 BYTE   W03
 BYTE   W03
 BYTE   W03
 BYTE   W03
 BYTE   W01
 BYTE   W13
 BYTE   W10
 BYTE   Ds3
 BYTE   W03
 BYTE   W03
 BYTE   W03
 BYTE   W03
 BYTE   W03
 BYTE   W03
 BYTE   W03
 BYTE   W03
 BYTE   W03
 BYTE   W03
 BYTE   W03
 BYTE   W03
 BYTE   W03
 BYTE   W03
 BYTE   W01
 BYTE   W05
// 018   ----------------------------------------
 BYTE   N23  Cs3
 BYTE   W02
 BYTE   W03
 BYTE   W03
 BYTE   W03
 BYTE   W03
 BYTE   W03
 BYTE   W03
 BYTE   W03
 BYTE   W01
 BYTE   N44  An2
 BYTE   W02
 BYTE   W03
 BYTE   W04
 BYTE   W03
 BYTE   W03
 BYTE   W03
 BYTE   W03
 BYTE   W03
 BYTE   W03
 BYTE   W03
 BYTE   W03
 BYTE   W03
 BYTE   W04
 BYTE   W03
 BYTE   W03
 BYTE   W02
 BYTE   N23  En2
 BYTE   W01
 BYTE   W03
 BYTE   W03
 BYTE   W03
 BYTE   W03
 BYTE   W03
 BYTE   W04
 BYTE   W04
// 019   ----------------------------------------
 BYTE   Fs2
 BYTE   W24
 BYTE   Gs2
 BYTE   W19
 BYTE   W05
 BYTE   Fs2
 BYTE   W24
 BYTE   Ds2
 BYTE   W18
 BYTE   W02
 BYTE   W01
 BYTE   W02
 BYTE   W01
// 020   ----------------------------------------
 BYTE   En2
 BYTE   W02
 BYTE   W01
 BYTE   W02
 BYTE   W01
 BYTE   W02
 BYTE   W01
 BYTE   W02
 BYTE   W01
 BYTE   W02
 BYTE   W01
 BYTE   W02
 BYTE   W01
 BYTE   W02
 BYTE   W01
 BYTE   W02
 BYTE   W01
 BYTE   N44  An2
 BYTE   W01
 BYTE   W06
 BYTE   W03
 BYTE   W03
 BYTE   W03
 BYTE   W03
 BYTE   W03
 BYTE   W03
 BYTE   W03
 BYTE   W03
 BYTE   W03
 BYTE   W03
 BYTE   W03
 BYTE   W03
 BYTE   W04
 BYTE   W01
 BYTE   N23  Cs3
 BYTE   W02
 BYTE   W03
 BYTE   W03
 BYTE   W03
 BYTE   W03
 BYTE   W03
 BYTE   W03
 BYTE   W03
 BYTE   W01
// 021   ----------------------------------------
 BYTE   N44  Fs3
 BYTE   W09
 BYTE   W05
 BYTE   W05
 BYTE   W05
 BYTE   W05
 BYTE   W05
 BYTE   W05
 BYTE   W05
 BYTE   W04
 BYTE   Ds3
 BYTE   W01
 BYTE   W05
 BYTE   W05
 BYTE   W05
 BYTE   W05
 BYTE   W05
 BYTE   W05
 BYTE   W05
 BYTE   W05
 BYTE   W05
 BYTE   W02
// 022   ----------------------------------------
 BYTE   N48  Cs3
 BYTE   W04
 BYTE   W03
 BYTE   W03
 BYTE   W03
 BYTE   W03
 BYTE   W03
 BYTE   W03
 BYTE   W03
 BYTE   W03
 BYTE   W03
 BYTE   W03
 BYTE   W03
 BYTE   W03
 BYTE   W03
 BYTE   W03
 BYTE   W02
 BYTE   N44  Bn2
 BYTE   W01
 BYTE   W03
 BYTE   W03
 BYTE   W03
 BYTE   W03
 BYTE   W03
 BYTE   W03
 BYTE   W03
 BYTE   W03
 BYTE   W03
 BYTE   W03
 BYTE   W03
 BYTE   W03
 BYTE   W03
 BYTE   W03
 BYTE   W03
 BYTE   W02
// 023   ----------------------------------------
 BYTE   An2
 BYTE   W07
 BYTE   W04
 BYTE   W03
 BYTE   W04
 BYTE   W03
 BYTE   W04
 BYTE   W03
 BYTE   W04
 BYTE   W03
 BYTE   W04
 BYTE   W03
 BYTE   W04
 BYTE   W02
 BYTE   Gs2
 BYTE   W01
 BYTE   W04
 BYTE   W03
 BYTE   W04
 BYTE   W03
 BYTE   W04
 BYTE   W03
 BYTE   W04
 BYTE   W03
 BYTE   W04
 BYTE   W03
 BYTE   W04
 BYTE   W03
 BYTE   W04
 BYTE   W01
// 024   ----------------------------------------
 BYTE   N23  As2
 BYTE   W17
 BYTE   W07
 BYTE   N44  Fs2
 BYTE   W02
 BYTE   W09
 BYTE   W08
 BYTE   W09
 BYTE   W09
 BYTE   W09
 BYTE   W09
 BYTE   W09
 BYTE   W08
// 025   ----------------------------------------
 BYTE   N44
 BYTE   W01
 BYTE   W44
 BYTE   W03
 BYTE   An2
 BYTE   W48
// 026   ----------------------------------------
 BYTE   N92  Bn2
 BYTE   W03
 BYTE   W03
 BYTE   W03
 BYTE   W03
 BYTE   W03
 BYTE   W03
 BYTE   W03
 BYTE   W03
 BYTE   W03
 BYTE   W03
 BYTE   W03
 BYTE   W03
 BYTE   W03
 BYTE   W03
 BYTE   W03
 BYTE   W03
 BYTE   W03
 BYTE   W03
 BYTE   W01
 BYTE   W02
 BYTE   W01
 BYTE   W02
 BYTE   W01
 BYTE   W02
 BYTE   W01
 BYTE   W02
 BYTE   W01
 BYTE   W02
 BYTE   W01
 BYTE   W02
 BYTE   W01
 BYTE   W02
 BYTE   W01
 BYTE   W02
 BYTE   W01
 BYTE   W02
 BYTE   W01
 BYTE   W02
 BYTE   W01
 BYTE   W02
 BYTE   W01
 BYTE   W02
 BYTE   W01
 BYTE   W02
 BYTE   W01
 BYTE   W02
// 027   ----------------------------------------
 BYTE   W01
 BYTE   W02
 BYTE   W01
 BYTE   W02
 BYTE   W01
 BYTE   W88
 BYTE   W01
// 028   ----------------------------------------
 BYTE   W96
// 029   ----------------------------------------
 BYTE   W96
// 030   ----------------------------------------
 BYTE   W96
// 031   ----------------------------------------
 BYTE   W96
// 032   ----------------------------------------
 BYTE   W90
 BYTE   GoTo
  POIN2 Label_3_0101BDC2
// 033   ----------------------------------------
 BYTE   W05
 BYTE   FINE

//**************** Track 5 (Midi-Chn.4) ****************//

FE12LiberationGratedShtick_005:
// 000   ----------------------------------------
 BYTE   KEYSH   FE12LiberationGratedShtick_key+0
Label_4_0101C182:
 BYTE   VOICE   73
 BYTE   W96
// 001   ----------------------------------------
 BYTE   VOL   34*FE12LiberationGratedShtick_mvl/mxv
 BYTE   PAN   c_v-32
 BYTE   BEND   c_v+0
 BYTE   W96
// 002   ----------------------------------------
 BYTE   W96
// 003   ----------------------------------------
 BYTE   W48
 BYTE   W01
 BYTE   W01
 BYTE   W02
 BYTE   W01
 BYTE   W02
 BYTE   W01
 BYTE   W02
 BYTE   W01
 BYTE   W02
 BYTE   W01
 BYTE   W02
 BYTE   W01
 BYTE   W02
 BYTE   W01
 BYTE   W02
 BYTE   W01
 BYTE   W02
 BYTE   W03
 BYTE   W02
 BYTE   N03  Dn3  v116
 BYTE   W01
 BYTE   W03
 BYTE   Ds3
 BYTE   W03
 BYTE   W01
 BYTE   Fn3
 BYTE   W02
 BYTE   W02
 BYTE   Gn3
 BYTE   W01
 BYTE   W03
 BYTE   Gs3
 BYTE   W02
// 004   ----------------------------------------
 BYTE   W01
 BYTE   W01
 BYTE   As3
 BYTE   W02
 BYTE   W02
 BYTE   N30  Cn4  v104
 BYTE   W01
 BYTE   W01
 BYTE   W01
 BYTE   W01
 BYTE   W01
 BYTE   W01
 BYTE   W01
 BYTE   W01
 BYTE   W01
 BYTE   W02
 BYTE   W01
 BYTE   W02
 BYTE   W01
 BYTE   W02
 BYTE   W01
 BYTE   W02
 BYTE   W01
 BYTE   W02
 BYTE   W01
 BYTE   W02
 BYTE   W01
 BYTE   W01
 BYTE   W04
 BYTE   N07  As3
 BYTE   W08
 BYTE   Cn4
 BYTE   W08
 BYTE   N23  As3
 BYTE   W01
 BYTE   W02
 BYTE   W01
 BYTE   W02
 BYTE   W01
 BYTE   W02
 BYTE   W01
 BYTE   W02
 BYTE   W01
 BYTE   W04
 BYTE   W05
 BYTE   W02
 BYTE   Ds4
 BYTE   W03
 BYTE   W05
 BYTE   W05
 BYTE   W01
 BYTE   W02
 BYTE   W01
 BYTE   W01
// 005   ----------------------------------------
 BYTE   W01
 BYTE   W01
 BYTE   W02
 BYTE   W01
 BYTE   W01
 BYTE   N30  Cn4
 BYTE   W01
 BYTE   W02
 BYTE   W01
 BYTE   W02
 BYTE   W01
 BYTE   W02
 BYTE   W01
 BYTE   W02
 BYTE   W01
 BYTE   W02
 BYTE   W01
 BYTE   W02
 BYTE   W01
 BYTE   W02
 BYTE   W01
 BYTE   W02
 BYTE   W01
 BYTE   W02
 BYTE   W01
 BYTE   W02
 BYTE   W02
 BYTE   N07  As3
 BYTE   W06
 BYTE   W02
 BYTE   Cn4
 BYTE   W07
 BYTE   W01
 BYTE   N23  As3
 BYTE   W02
 BYTE   W01
 BYTE   W02
 BYTE   W01
 BYTE   W02
 BYTE   W01
 BYTE   W01
 BYTE   W02
 BYTE   W01
 BYTE   W02
 BYTE   W01
 BYTE   W02
 BYTE   W01
 BYTE   W02
 BYTE   W01
 BYTE   W02
 BYTE   N11  Gn3
 BYTE   W01
 BYTE   W02
 BYTE   W01
 BYTE   W01
 BYTE   W02
 BYTE   W01
 BYTE   W02
 BYTE   W01
 BYTE   W01
 BYTE   N03  Gn3  v124
 BYTE   W04
 BYTE   Gs3
 BYTE   W02
// 006   ----------------------------------------
 BYTE   W02
 BYTE   As3
 BYTE   W04
 BYTE   N30  Cn4  v104
 BYTE   W02
 BYTE   W01
 BYTE   W02
 BYTE   W01
 BYTE   W02
 BYTE   W03
 BYTE   W03
 BYTE   W03
 BYTE   W03
 BYTE   W03
 BYTE   W03
 BYTE   W03
 BYTE   W02
 BYTE   W01
 BYTE   N05  As3  v124
 BYTE   W05
 BYTE   W03
 BYTE   Gs3
 BYTE   W01
 BYTE   W03
 BYTE   W03
 BYTE   W01
 BYTE   N30  As3  v104
 BYTE   W01
 BYTE   W01
 BYTE   W02
 BYTE   W01
 BYTE   W02
 BYTE   W01
 BYTE   W02
 BYTE   W01
 BYTE   W02
 BYTE   W01
 BYTE   W02
 BYTE   W01
 BYTE   W02
 BYTE   W01
 BYTE   W02
 BYTE   W01
 BYTE   W02
 BYTE   W01
 BYTE   W02
 BYTE   W01
 BYTE   W02
 BYTE   W01
 BYTE   N05  Gs3  v124
 BYTE   W07
 BYTE   W01
 BYTE   Gn3
 BYTE   W02
// 007   ----------------------------------------
 BYTE   W05
 BYTE   W01
 BYTE   N30  Gs3  v104
 BYTE   W01
 BYTE   W01
 BYTE   W01
 BYTE   W01
 BYTE   W01
 BYTE   W01
 BYTE   W01
 BYTE   W02
 BYTE   W01
 BYTE   W02
 BYTE   W01
 BYTE   W02
 BYTE   W01
 BYTE   W02
 BYTE   W01
 BYTE   W02
 BYTE   W01
 BYTE   W02
 BYTE   W01
 BYTE   W02
 BYTE   W01
 BYTE   W01
 BYTE   W03
 BYTE   N05  Gn3  v124
 BYTE   W04
 BYTE   W04
 BYTE   Fn3
 BYTE   W04
 BYTE   W03
 BYTE   W01
 BYTE   N30  Gn3  v104
 BYTE   W01
 BYTE   W01
 BYTE   W02
 BYTE   W01
 BYTE   W02
 BYTE   W01
 BYTE   W01
 BYTE   W02
 BYTE   W01
 BYTE   W02
 BYTE   W01
 BYTE   W02
 BYTE   W01
 BYTE   W02
 BYTE   W01
 BYTE   W02
 BYTE   W01
 BYTE   W02
 BYTE   W01
 BYTE   W02
 BYTE   W01
 BYTE   W02
 BYTE   N05  Fn3  v124
 BYTE   W01
 BYTE   W02
 BYTE   W01
 BYTE   W02
 BYTE   W01
 BYTE   W03
// 008   ----------------------------------------
 BYTE   W03
 BYTE   W03
 BYTE   W02
 BYTE   W03
 BYTE   W03
 BYTE   W03
 BYTE   W03
 BYTE   W03
 BYTE   W03
 BYTE   W03
 BYTE   W03
 BYTE   W03
 BYTE   W03
 BYTE   W03
 BYTE   W03
 BYTE   W03
 BYTE   W03
 BYTE   W03
 BYTE   W03
 BYTE   W03
 BYTE   W03
 BYTE   W03
 BYTE   W03
 BYTE   W03
 BYTE   W03
 BYTE   W03
 BYTE   W03
 BYTE   W03
 BYTE   W03
 BYTE   W03
 BYTE   W03
 BYTE   W03
 BYTE   W01
// 009   ----------------------------------------
 BYTE   W02
 BYTE   W03
 BYTE   W02
 BYTE   W88
 BYTE   W01
// 010   ----------------------------------------
 BYTE   W96
// 011   ----------------------------------------
 BYTE   W72
 BYTE   W01
 BYTE   W01
 BYTE   W01
 BYTE   W01
 BYTE   W01
 BYTE   W01
 BYTE   N03  Dn3  v116
 BYTE   W02
 BYTE   W02
 BYTE   Ds3
 BYTE   W01
 BYTE   W03
 BYTE   Fn3
 BYTE   W03
 BYTE   W01
 BYTE   Gn3
 BYTE   W02
 BYTE   W02
 BYTE   Gs3
 BYTE   W01
 BYTE   W01
// 012   ----------------------------------------
 BYTE   W02
 BYTE   As3
 BYTE   W03
 BYTE   W01
 BYTE   N30  Cn4  v104
 BYTE   W02
 BYTE   W01
 BYTE   W01
 BYTE   W01
 BYTE   W01
 BYTE   W01
 BYTE   W01
 BYTE   W01
 BYTE   W01
 BYTE   W01
 BYTE   W02
 BYTE   W01
 BYTE   W02
 BYTE   W01
 BYTE   W02
 BYTE   W01
 BYTE   W02
 BYTE   W01
 BYTE   W02
 BYTE   W01
 BYTE   W02
 BYTE   W01
 BYTE   W03
 BYTE   N07  As3
 BYTE   W08
 BYTE   Cn4
 BYTE   W06
 BYTE   W01
 BYTE   W01
 BYTE   N23  As3
 BYTE   W01
 BYTE   W01
 BYTE   W02
 BYTE   W01
 BYTE   W02
 BYTE   W01
 BYTE   W02
 BYTE   W01
 BYTE   W04
 BYTE   W03
 BYTE   W03
 BYTE   W03
 BYTE   Ds4
 BYTE   W03
 BYTE   W04
 BYTE   W03
 BYTE   W03
 BYTE   W03
 BYTE   W02
// 013   ----------------------------------------
 BYTE   W01
 BYTE   W02
 BYTE   W01
 BYTE   W01
 BYTE   W01
 BYTE   N30  Cn4
 BYTE   W01
 BYTE   W01
 BYTE   W02
 BYTE   W01
 BYTE   W02
 BYTE   W01
 BYTE   W02
 BYTE   W01
 BYTE   W01
 BYTE   W02
 BYTE   W01
 BYTE   W02
 BYTE   W01
 BYTE   W02
 BYTE   W01
 BYTE   W02
 BYTE   W01
 BYTE   W02
 BYTE   W01
 BYTE   W02
 BYTE   W01
 BYTE   W02
 BYTE   N07  As3
 BYTE   W01
 BYTE   W07
 BYTE   Cn4
 BYTE   W08
 BYTE   N23  As3
 BYTE   W08
 BYTE   W07
 BYTE   W04
 BYTE   W04
 BYTE   W01
 BYTE   Gn3
 BYTE   W02
 BYTE   W04
 BYTE   W04
 BYTE   W01
 BYTE   W02
 BYTE   W01
 BYTE   W02
 BYTE   W01
 BYTE   W01
// 014   ----------------------------------------
 BYTE   W01
 BYTE   W01
 BYTE   W02
 BYTE   W01
 BYTE   W01
 BYTE   N30  Gs3
 BYTE   W02
 BYTE   W01
 BYTE   W02
 BYTE   W01
 BYTE   W02
 BYTE   W01
 BYTE   W02
 BYTE   W01
 BYTE   W02
 BYTE   W01
 BYTE   W02
 BYTE   W01
 BYTE   W02
 BYTE   W01
 BYTE   W02
 BYTE   W01
 BYTE   W01
 BYTE   W01
 BYTE   W02
 BYTE   W01
 BYTE   W02
 BYTE   W01
 BYTE   N06  Gn3  v116
 BYTE   W02
 BYTE   W01
 BYTE   W02
 BYTE   W01
 BYTE   W02
 BYTE   Fn3
 BYTE   W01
 BYTE   W02
 BYTE   W01
 BYTE   W02
 BYTE   W01
 BYTE   W01
 BYTE   N30  Gs3  v104
 BYTE   W01
 BYTE   W01
 BYTE   W02
 BYTE   W01
 BYTE   W02
 BYTE   W01
 BYTE   W02
 BYTE   W01
 BYTE   W02
 BYTE   W01
 BYTE   W02
 BYTE   W01
 BYTE   W02
 BYTE   W01
 BYTE   W02
 BYTE   W01
 BYTE   W01
 BYTE   W02
 BYTE   W01
 BYTE   W02
 BYTE   W01
 BYTE   W02
 BYTE   N06  Fs3  v116
 BYTE   W01
 BYTE   W02
 BYTE   W01
 BYTE   W02
 BYTE   W01
 BYTE   W01
 BYTE   En3
 BYTE   W01
 BYTE   W01
// 015   ----------------------------------------
 BYTE   W02
 BYTE   W01
 BYTE   W02
 BYTE   W01
 BYTE   N60  Gs3  v104
 BYTE   W01
 BYTE   W02
 BYTE   W01
 BYTE   W02
 BYTE   W01
 BYTE   W02
 BYTE   W01
 BYTE   W02
 BYTE   W01
 BYTE   W02
 BYTE   W01
 BYTE   W01
 BYTE   W05
 BYTE   W05
 BYTE   W02
 BYTE   W01
 BYTE   W02
 BYTE   W01
 BYTE   W02
 BYTE   W01
 BYTE   W02
 BYTE   W01
 BYTE   W02
 BYTE   W01
 BYTE   W02
 BYTE   W01
 BYTE   W02
 BYTE   W01
 BYTE   W02
 BYTE   W01
 BYTE   W02
 BYTE   W01
 BYTE   W02
 BYTE   W01
 BYTE   W02
 BYTE   W01
 BYTE   W02
 BYTE   W01
 BYTE   W02
 BYTE   W24
 BYTE   VOL   42*FE12LiberationGratedShtick_mvl/mxv
 BYTE   PAN   c_v+32
 BYTE   BEND   c_v+0
 BYTE   W01
// 016   ----------------------------------------
 BYTE   N72  Bn3
 BYTE   W03
 BYTE   W03
 BYTE   W03
 BYTE   W03
 BYTE   W03
 BYTE   W03
 BYTE   W03
 BYTE   W03
 BYTE   W03
 BYTE   W03
 BYTE   W03
 BYTE   W03
 BYTE   W03
 BYTE   W03
 BYTE   W03
 BYTE   W03
 BYTE   W03
 BYTE   W03
 BYTE   W03
 BYTE   W03
 BYTE   W03
 BYTE   W03
 BYTE   W03
 BYTE   W03
 BYTE   N23  An3
 BYTE   W03
 BYTE   W03
 BYTE   W03
 BYTE   W03
 BYTE   W03
 BYTE   W03
 BYTE   W03
 BYTE   W03
// 017   ----------------------------------------
 BYTE   N44  Bn3
 BYTE   W03
 BYTE   W03
 BYTE   W03
 BYTE   W03
 BYTE   W03
 BYTE   W03
 BYTE   W03
 BYTE   W03
 BYTE   W01
 BYTE   W13
 BYTE   W10
 BYTE   N92  Fs3
 BYTE   W03
 BYTE   W03
 BYTE   W03
 BYTE   W03
 BYTE   W03
 BYTE   W03
 BYTE   W03
 BYTE   W03
 BYTE   W03
 BYTE   W03
 BYTE   W03
 BYTE   W03
 BYTE   W03
 BYTE   W03
 BYTE   W01
 BYTE   W05
// 018   ----------------------------------------
 BYTE   W02
 BYTE   W03
 BYTE   W03
 BYTE   W03
 BYTE   W03
 BYTE   W03
 BYTE   W03
 BYTE   W03
 BYTE   W03
 BYTE   W03
 BYTE   W04
 BYTE   W03
 BYTE   W03
 BYTE   W03
 BYTE   W03
 BYTE   W03
 BYTE   N44  Cs3
 BYTE   W03
 BYTE   W03
 BYTE   W03
 BYTE   W03
 BYTE   W04
 BYTE   W03
 BYTE   W03
 BYTE   W03
 BYTE   W03
 BYTE   W03
 BYTE   W03
 BYTE   W03
 BYTE   W03
 BYTE   W04
 BYTE   W04
// 019   ----------------------------------------
 BYTE   N23  Ds3
 BYTE   W24
 BYTE   En3
 BYTE   W19
 BYTE   W05
 BYTE   Ds3
 BYTE   W24
 BYTE   Bn2
 BYTE   W18
 BYTE   W02
 BYTE   W01
 BYTE   W02
 BYTE   W01
// 020   ----------------------------------------
 BYTE   Cs3
 BYTE   W02
 BYTE   W01
 BYTE   W02
 BYTE   W01
 BYTE   W02
 BYTE   W01
 BYTE   W02
 BYTE   W01
 BYTE   W02
 BYTE   W01
 BYTE   W02
 BYTE   W01
 BYTE   W02
 BYTE   W01
 BYTE   W02
 BYTE   W01
 BYTE   N44  En3
 BYTE   W01
 BYTE   W03
 BYTE   W03
 BYTE   W03
 BYTE   W03
 BYTE   W03
 BYTE   W03
 BYTE   W03
 BYTE   W03
 BYTE   W03
 BYTE   W03
 BYTE   W03
 BYTE   W03
 BYTE   W03
 BYTE   W03
 BYTE   W03
 BYTE   W02
 BYTE   N24  An3
 BYTE   W01
 BYTE   W03
 BYTE   W03
 BYTE   W03
 BYTE   W03
 BYTE   W03
 BYTE   W03
 BYTE   W03
 BYTE   W01
 BYTE   W01
// 021   ----------------------------------------
 BYTE   N44  Bn3
 BYTE   W06
 BYTE   W04
 BYTE   W04
 BYTE   W04
 BYTE   W03
 BYTE   W04
 BYTE   W04
 BYTE   W03
 BYTE   W04
 BYTE   W04
 BYTE   W04
 BYTE   W03
 BYTE   W01
 BYTE   Fs3
 BYTE   W03
 BYTE   W04
 BYTE   W04
 BYTE   W03
 BYTE   W04
 BYTE   W04
 BYTE   W03
 BYTE   W04
 BYTE   W04
 BYTE   W04
 BYTE   W03
 BYTE   W04
 BYTE   W04
// 022   ----------------------------------------
 BYTE   N92  En3
 BYTE   W04
 BYTE   W01
 BYTE   W02
 BYTE   W01
 BYTE   W02
 BYTE   W01
 BYTE   W02
 BYTE   W03
 BYTE   W03
 BYTE   W03
 BYTE   W03
 BYTE   W03
 BYTE   W03
 BYTE   W03
 BYTE   W03
 BYTE   W03
 BYTE   W03
 BYTE   W03
 BYTE   W03
 BYTE   W03
 BYTE   W03
 BYTE   W03
 BYTE   W03
 BYTE   W03
 BYTE   W03
 BYTE   W03
 BYTE   W03
 BYTE   W03
 BYTE   W03
 BYTE   W03
 BYTE   W03
 BYTE   W03
 BYTE   W03
 BYTE   W03
 BYTE   W02
// 023   ----------------------------------------
 BYTE   Cs3
 BYTE   W03
 BYTE   W03
 BYTE   W03
 BYTE   W03
 BYTE   W03
 BYTE   W03
 BYTE   W03
 BYTE   W03
 BYTE   W03
 BYTE   W03
 BYTE   W03
 BYTE   W03
 BYTE   W03
 BYTE   W03
 BYTE   W03
 BYTE   W03
 BYTE   W03
 BYTE   W03
 BYTE   W03
 BYTE   W03
 BYTE   W03
 BYTE   W03
 BYTE   W02
 BYTE   W03
 BYTE   W03
 BYTE   W03
 BYTE   W03
 BYTE   W03
 BYTE   W03
 BYTE   W03
 BYTE   W03
 BYTE   W03
 BYTE   W01
// 024   ----------------------------------------
 BYTE   N44
 BYTE   W17
 BYTE   W09
 BYTE   W09
 BYTE   W08
 BYTE   W05
 BYTE   As2
 BYTE   W04
 BYTE   W09
 BYTE   W09
 BYTE   W09
 BYTE   W09
 BYTE   W08
// 025   ----------------------------------------
 BYTE   N22  An2
 BYTE   W01
 BYTE   W23
 BYTE   N44  Cs3
 BYTE   W24
 BYTE   W24
 BYTE   N22  En3
 BYTE   W24
// 026   ----------------------------------------
 BYTE   N92  Ds3
 BYTE   W06
 BYTE   W03
 BYTE   W03
 BYTE   W03
 BYTE   W03
 BYTE   W03
 BYTE   W03
 BYTE   W03
 BYTE   W03
 BYTE   W04
 BYTE   W03
 BYTE   W03
 BYTE   W03
 BYTE   W03
 BYTE   W01
 BYTE   W02
 BYTE   W01
 BYTE   W02
 BYTE   W01
 BYTE   W02
 BYTE   W01
 BYTE   W02
 BYTE   W01
 BYTE   W02
 BYTE   W01
 BYTE   W02
 BYTE   W01
 BYTE   W02
 BYTE   W01
 BYTE   W02
 BYTE   W01
 BYTE   W02
 BYTE   W01
 BYTE   W02
 BYTE   W01
 BYTE   W02
 BYTE   W01
 BYTE   W02
 BYTE   W01
 BYTE   W02
 BYTE   W01
 BYTE   W02
 BYTE   W01
 BYTE   W02
 BYTE   W01
 BYTE   W02
 BYTE   W01
 BYTE   W01
// 027   ----------------------------------------
 BYTE   W01
 BYTE   W01
 BYTE   W01
 BYTE   W92
 BYTE   W01
// 028   ----------------------------------------
 BYTE   W96
// 029   ----------------------------------------
 BYTE   W96
// 030   ----------------------------------------
 BYTE   W96
// 031   ----------------------------------------
 BYTE   W96
// 032   ----------------------------------------
 BYTE   W90
 BYTE   GoTo
  POIN2 Label_4_0101C182
// 033   ----------------------------------------
 BYTE   W05
 BYTE   FINE

//**************** Track 6 (Midi-Chn.5) ****************//

FE12LiberationGratedShtick_006:
// 000   ----------------------------------------
 BYTE   KEYSH   FE12LiberationGratedShtick_key+0
Label_5_0101C54E:
 BYTE   VOICE   8
 BYTE   VOL   29*FE12LiberationGratedShtick_mvl/mxv
 BYTE   PAN   c_v+0
 BYTE   BEND   c_v+0
 BYTE   W96
// 001   ----------------------------------------
 BYTE   W96
// 002   ----------------------------------------
 BYTE   W96
// 003   ----------------------------------------
 BYTE   W96
// 004   ----------------------------------------
Label_5_0101C55A:
 BYTE   W12
 BYTE   N03  As2  v127
 BYTE   W04
 BYTE   Ds3
 BYTE   W04
 BYTE   Fn3
 BYTE   W04
 BYTE   As3
 BYTE   W04
 BYTE   Ds4
 BYTE   W04
 BYTE   Fn4
 BYTE   W04
 BYTE   As4
 BYTE   W04
 BYTE   Ds5
 BYTE   W04
 BYTE   Fn5
 BYTE   W04
 BYTE   As5
 BYTE   W04
 BYTE   Gn5
 BYTE   W04
 BYTE   Ds5
 BYTE   W04
 BYTE   As4
 BYTE   W04
 BYTE   Gn4
 BYTE   W04
 BYTE   Ds4
 BYTE   W04
 BYTE   As3
 BYTE   W04
 BYTE   Gn3
 BYTE   W04
 BYTE   Ds3
 BYTE   W16
 BYTE   PEND 
// 005   ----------------------------------------
Label_5_0101C582:
 BYTE   W12
 BYTE   N03  Cn3  v127
 BYTE   W04
 BYTE   Fn3
 BYTE   W04
 BYTE   As3
 BYTE   W04
 BYTE   Cn4
 BYTE   W04
 BYTE   Fn4
 BYTE   W04
 BYTE   As4
 BYTE   W04
 BYTE   Cn5
 BYTE   W04
 BYTE   Fn5
 BYTE   W04
 BYTE   As5
 BYTE   W04
 BYTE   Cn6
 BYTE   W04
 BYTE   Gn5
 BYTE   W04
 BYTE   Fn5
 BYTE   W04
 BYTE   Cn5
 BYTE   W04
 BYTE   Gn4
 BYTE   W04
 BYTE   Fn4
 BYTE   W04
 BYTE   Cn4
 BYTE   W04
 BYTE   Gn3
 BYTE   W04
 BYTE   Fn3
 BYTE   W16
 BYTE   PEND 
// 006   ----------------------------------------
 BYTE   W96
// 007   ----------------------------------------
 BYTE   W96
// 008   ----------------------------------------
 BYTE   W96
// 009   ----------------------------------------
 BYTE   W96
// 010   ----------------------------------------
 BYTE   W96
// 011   ----------------------------------------
 BYTE   W96
 BYTE   PATT
  POIN2 Label_5_0101C55A
 BYTE   PATT
  POIN2 Label_5_0101C582
// 012   ----------------------------------------
 BYTE   W96
// 013   ----------------------------------------
 BYTE   W96
// 014   ----------------------------------------
 BYTE   W96
// 015   ----------------------------------------
 BYTE   W96
// 016   ----------------------------------------
 BYTE   W96
// 017   ----------------------------------------
 BYTE   W96
// 018   ----------------------------------------
 BYTE   W96
// 019   ----------------------------------------
 BYTE   W96
// 020   ----------------------------------------
 BYTE   W96
// 021   ----------------------------------------
 BYTE   W96
// 022   ----------------------------------------
 BYTE   W96
// 023   ----------------------------------------
 BYTE   W96
// 024   ----------------------------------------
 BYTE   W96
// 025   ----------------------------------------
 BYTE   W96
// 026   ----------------------------------------
 BYTE   W96
// 027   ----------------------------------------
 BYTE   W96
// 028   ----------------------------------------
 BYTE   W96
// 029   ----------------------------------------
 BYTE   W96
// 030   ----------------------------------------
 BYTE   W90
 BYTE   GoTo
  POIN2 Label_5_0101C54E
// 031   ----------------------------------------
 BYTE   W05
 BYTE   FINE

//**************** Track 7 (Midi-Chn.6) ****************//

FE12LiberationGratedShtick_007:
// 000   ----------------------------------------
 BYTE   KEYSH   FE12LiberationGratedShtick_key+0
Label_6_0101C5D6:
 BYTE   VOICE   14
 BYTE   VOL   43*FE12LiberationGratedShtick_mvl/mxv
 BYTE   PAN   c_v-23
 BYTE   BEND   c_v+0
 BYTE   N23  Cn2  v104
 BYTE   W01
 BYTE   W02
 BYTE   W01
 BYTE   W02
 BYTE   W01
 BYTE   W01
 BYTE   W01
 BYTE   W02
 BYTE   W01
 BYTE   W02
 BYTE   W01
 BYTE   W02
 BYTE   W01
 BYTE   W02
 BYTE   W01
 BYTE   W02
 BYTE   W01
 BYTE   Fn2
 BYTE   W04
 BYTE   W04
 BYTE   W03
 BYTE   W04
 BYTE   W04
 BYTE   W04
 BYTE   W01
 BYTE   Gn2
 BYTE   W03
 BYTE   W04
 BYTE   W06
 BYTE   W04
 BYTE   W03
 BYTE   W04
 BYTE   As2
 BYTE   W01
 BYTE   W02
 BYTE   W01
 BYTE   W02
 BYTE   W01
 BYTE   W01
 BYTE   W02
 BYTE   W01
 BYTE   W02
 BYTE   W01
 BYTE   W02
 BYTE   W01
 BYTE   W02
 BYTE   W01
 BYTE   W02
 BYTE   W01
 BYTE   W01
// 001   ----------------------------------------
Label_6_0101C613:
 BYTE   N30  An2  v104
 BYTE   W03
 BYTE   W03
 BYTE   W02
 BYTE   W01
 BYTE   W01
 BYTE   W01
 BYTE   W08
 BYTE   W04
 BYTE   W04
 BYTE   W04
 BYTE   W01
 BYTE   N07  Gn2
 BYTE   W03
 BYTE   W05
 BYTE   Fn2
 BYTE   W04
 BYTE   W04
 BYTE   N23  Gn5  v124
 BYTE   W04
 BYTE   W04
 BYTE   W04
 BYTE   W04
 BYTE   W04
 BYTE   W01
 BYTE   W02
 BYTE   W01
 BYTE   Ds2  v104
 BYTE   W02
 BYTE   W01
 BYTE   W01
 BYTE   W03
 BYTE   W03
 BYTE   W03
 BYTE   W03
 BYTE   W03
 BYTE   W03
 BYTE   W02
 BYTE   PEND 
// 002   ----------------------------------------
Label_6_0101C640:
 BYTE   N23  Cn2  v104
 BYTE   W01
 BYTE   W03
 BYTE   W01
 BYTE   W01
 BYTE   W01
 BYTE   W01
 BYTE   W01
 BYTE   W01
 BYTE   W01
 BYTE   W01
 BYTE   W02
 BYTE   W01
 BYTE   W02
 BYTE   W01
 BYTE   W02
 BYTE   W01
 BYTE   W02
 BYTE   W01
 BYTE   Fn2
 BYTE   W02
 BYTE   W01
 BYTE   W01
 BYTE   W13
 BYTE   W07
 BYTE   Gn2
 BYTE   W07
 BYTE   W07
 BYTE   W07
 BYTE   W02
 BYTE   W01
 BYTE   As2
 BYTE   W02
 BYTE   W01
 BYTE   W02
 BYTE   W02
 BYTE   W01
 BYTE   W02
 BYTE   W01
 BYTE   W02
 BYTE   W01
 BYTE   W02
 BYTE   W01
 BYTE   W02
 BYTE   W01
 BYTE   W02
 BYTE   W01
 BYTE   W01
 BYTE   PEND 
// 003   ----------------------------------------
Label_6_0101C673:
 BYTE   N92  Cn3  v104
 BYTE   W03
 BYTE   W03
 BYTE   W01
 BYTE   W01
 BYTE   W02
 BYTE   W01
 BYTE   W02
 BYTE   W01
 BYTE   W02
 BYTE   W05
 BYTE   W05
 BYTE   W04
 BYTE   W05
 BYTE   W03
 BYTE   W03
 BYTE   W03
 BYTE   W03
 BYTE   W03
 BYTE   W03
 BYTE   W03
 BYTE   W02
 BYTE   W01
 BYTE   W02
 BYTE   W01
 BYTE   W02
 BYTE   W01
 BYTE   W02
 BYTE   W01
 BYTE   W02
 BYTE   W01
 BYTE   W02
 BYTE   W01
 BYTE   W02
 BYTE   W01
 BYTE   W01
 BYTE   W01
 BYTE   W02
 BYTE   W01
 BYTE   W02
 BYTE   W01
 BYTE   W02
 BYTE   W01
 BYTE   W02
 BYTE   W01
 BYTE   W02
 BYTE   W01
 BYTE   W02
 BYTE   PEND 
// 004   ----------------------------------------
Label_6_0101C6A6:
 BYTE   W03
 BYTE   W03
 BYTE   W03
 BYTE   W03
 BYTE   W03
 BYTE   W03
 BYTE   W03
 BYTE   W03
 BYTE   W03
 BYTE   W03
 BYTE   W02
 BYTE   W64
 BYTE   PEND 
// 005   ----------------------------------------
 BYTE   W96
// 006   ----------------------------------------
 BYTE   W96
// 007   ----------------------------------------
 BYTE   W96
// 008   ----------------------------------------
 BYTE   N23  Cn2  v104
 BYTE   W01
 BYTE   W02
 BYTE   W01
 BYTE   W02
 BYTE   W01
 BYTE   W01
 BYTE   W01
 BYTE   W02
 BYTE   W01
 BYTE   W02
 BYTE   W01
 BYTE   W02
 BYTE   W01
 BYTE   W02
 BYTE   W01
 BYTE   W02
 BYTE   W01
 BYTE   Fn2
 BYTE   W04
 BYTE   W04
 BYTE   W03
 BYTE   W04
 BYTE   W04
 BYTE   W04
 BYTE   W01
 BYTE   Gn2
 BYTE   W03
 BYTE   W04
 BYTE   W06
 BYTE   W04
 BYTE   W03
 BYTE   W04
 BYTE   As2
 BYTE   W01
 BYTE   W02
 BYTE   W01
 BYTE   W02
 BYTE   W01
 BYTE   W01
 BYTE   W02
 BYTE   W01
 BYTE   W02
 BYTE   W01
 BYTE   W02
 BYTE   W01
 BYTE   W02
 BYTE   W01
 BYTE   W02
 BYTE   W01
 BYTE   W01
 BYTE   PATT
  POIN2 Label_6_0101C613
 BYTE   PATT
  POIN2 Label_6_0101C640
 BYTE   PATT
  POIN2 Label_6_0101C673
 BYTE   PATT
  POIN2 Label_6_0101C6A6
// 009   ----------------------------------------
 BYTE   W96
// 010   ----------------------------------------
 BYTE   W96
// 011   ----------------------------------------
 BYTE   W96
// 012   ----------------------------------------
 BYTE   W96
// 013   ----------------------------------------
 BYTE   W96
// 014   ----------------------------------------
 BYTE   W96
// 015   ----------------------------------------
 BYTE   W96
// 016   ----------------------------------------
 BYTE   W96
// 017   ----------------------------------------
 BYTE   W96
// 018   ----------------------------------------
 BYTE   W96
// 019   ----------------------------------------
 BYTE   W96
// 020   ----------------------------------------
 BYTE   W96
// 021   ----------------------------------------
 BYTE   W96
// 022   ----------------------------------------
 BYTE   W20
 BYTE   W76
// 023   ----------------------------------------
Label_6_0101C70E:
 BYTE   N05  Gs5  v104
 BYTE   N05  En6
 BYTE   W06
 BYTE   Gs5
 BYTE   N05  En6
 BYTE   W06
 BYTE   N11  Gs5  v116
 BYTE   N11  En6
 BYTE   W12
 BYTE   Gs5  v052
 BYTE   N11  En6
 BYTE   W12
 BYTE   Gs5  v044
 BYTE   N11  En6  v040
 BYTE   W12
 BYTE   Gs5  v036
 BYTE   N11  En6
 BYTE   W48
 BYTE   PEND 
// 024   ----------------------------------------
 BYTE   W12
 BYTE   Fs2  v092
 BYTE   N11  Dn3
 BYTE   W12
 BYTE   Fs2  v040
 BYTE   N11  Dn3
 BYTE   W12
 BYTE   An2  v092
 BYTE   N11  Fs3
 BYTE   W12
 BYTE   An2  v040
 BYTE   N11  Fs3
 BYTE   W12
 BYTE   Bn2  v092
 BYTE   N11  Gs3
 BYTE   W12
 BYTE   Bn2  v040
 BYTE   N11  Gs3
 BYTE   W12
 BYTE   An2  v092
 BYTE   N11  Fs3
 BYTE   W12
 BYTE   PATT
  POIN2 Label_6_0101C70E
// 025   ----------------------------------------
 BYTE   W12
 BYTE   N11  Fs2  v092
 BYTE   N11  Dn3
 BYTE   W12
 BYTE   Fs2  v040
 BYTE   N11  Dn3
 BYTE   W12
 BYTE   An2  v092
 BYTE   N11  Fs3
 BYTE   W12
 BYTE   An2  v040
 BYTE   N11  Fs3
 BYTE   W12
 BYTE   Bn2  v092
 BYTE   N11  Gs3
 BYTE   W12
 BYTE   Bn2  v040
 BYTE   N11  Gs3
 BYTE   W12
 BYTE   Fs2  v092
 BYTE   N11  En3
 BYTE   W12
// 026   ----------------------------------------
 BYTE   Gn5  v120
 BYTE   N11  Fn6  v116
 BYTE   W12
 BYTE   N05  Gn5  v080
 BYTE   N05  Fn6
 BYTE   W06
 BYTE   Gn5  v092
 BYTE   N05  Fn6
 BYTE   W06
 BYTE   N11  Gn5  v104
 BYTE   N11  Fn6
 BYTE   W12
 BYTE   N05  Gn5  v080
 BYTE   N05  Fn6
 BYTE   W06
 BYTE   Gn5  v092
 BYTE   N05  Fn6
 BYTE   W06
 BYTE   N11  Gn5  v104
 BYTE   N11  Fn6
 BYTE   W12
 BYTE   N05  Gn5  v080
 BYTE   N05  Fn6
 BYTE   W06
 BYTE   Gn5  v092
 BYTE   N05  Fn6
 BYTE   W06
 BYTE   N11  Gn5  v104
 BYTE   N11  Fn6
 BYTE   W12
 BYTE   N05  Gn5  v080
 BYTE   N05  Fn6
 BYTE   W06
 BYTE   Gn5  v092
 BYTE   N05  Fn6
 BYTE   W06
// 027   ----------------------------------------
 BYTE   N11  Gn5  v120
 BYTE   N11  En6  v116
 BYTE   W12
 BYTE   N05  Gn5  v080
 BYTE   N05  En6
 BYTE   W06
 BYTE   Gn5  v092
 BYTE   N05  En6
 BYTE   W06
 BYTE   N11  Gn5  v104
 BYTE   N11  En6
 BYTE   W12
 BYTE   N05  Gn5  v080
 BYTE   N05  En6
 BYTE   W06
 BYTE   Gn5  v092
 BYTE   N05  En6
 BYTE   W06
 BYTE   N11  Gn5  v104
 BYTE   N11  En6
 BYTE   W12
 BYTE   N05  Gn5  v080
 BYTE   N05  En6
 BYTE   W06
 BYTE   Gn5  v092
 BYTE   N05  En6
 BYTE   W06
 BYTE   N11  Gn5  v104
 BYTE   N11  En6
 BYTE   W12
 BYTE   N05  Gn5  v080
 BYTE   N05  En6
 BYTE   W06
 BYTE   GoTo
  POIN2 Label_6_0101C5D6
// 028   ----------------------------------------
 BYTE   N05  Gn5  v092
 BYTE   N05  En6
 BYTE   W05
 BYTE   FINE

//**************** Track 8 (Midi-Chn.7) ****************//

FE12LiberationGratedShtick_008:
// 000   ----------------------------------------
 BYTE   KEYSH   FE12LiberationGratedShtick_key+0
Label_7_0101C812:
 BYTE   VOICE   14
 BYTE   VOL   43*FE12LiberationGratedShtick_mvl/mxv
 BYTE   PAN   c_v+49
 BYTE   BEND   c_v+0
 BYTE   W09
 BYTE   N23  Cn2  v072
 BYTE   W01
 BYTE   W02
 BYTE   W01
 BYTE   W02
 BYTE   W01
 BYTE   W01
 BYTE   W01
 BYTE   W02
 BYTE   W01
 BYTE   W02
 BYTE   W01
 BYTE   W02
 BYTE   W01
 BYTE   W02
 BYTE   W01
 BYTE   W02
 BYTE   W01
 BYTE   Fn2
 BYTE   W04
 BYTE   W04
 BYTE   W03
 BYTE   W04
 BYTE   W04
 BYTE   W04
 BYTE   W01
 BYTE   Gn2
 BYTE   W03
 BYTE   W04
 BYTE   W06
 BYTE   W04
 BYTE   W03
 BYTE   W04
 BYTE   As2
 BYTE   W01
 BYTE   W02
 BYTE   W01
 BYTE   W02
 BYTE   W01
 BYTE   W01
 BYTE   W02
 BYTE   W01
 BYTE   W02
 BYTE   W01
 BYTE   W01
// 001   ----------------------------------------
Label_7_0101C84A:
 BYTE   W01
 BYTE   W01
 BYTE   W02
 BYTE   W01
 BYTE   W02
 BYTE   W01
 BYTE   W01
 BYTE   N30  An2  v072
 BYTE   W03
 BYTE   W03
 BYTE   W02
 BYTE   W01
 BYTE   W01
 BYTE   W01
 BYTE   W08
 BYTE   W04
 BYTE   W04
 BYTE   W04
 BYTE   W01
 BYTE   N07  Gn2
 BYTE   W03
 BYTE   W05
 BYTE   Fn2
 BYTE   W04
 BYTE   W04
 BYTE   N23  Gn5  v088
 BYTE   W04
 BYTE   W04
 BYTE   W04
 BYTE   W04
 BYTE   W04
 BYTE   W01
 BYTE   W02
 BYTE   W01
 BYTE   Ds2  v072
 BYTE   W02
 BYTE   W01
 BYTE   W01
 BYTE   W03
 BYTE   W03
 BYTE   W03
 BYTE   W02
 BYTE   PEND 
// 002   ----------------------------------------
Label_7_0101C87B:
 BYTE   W01
 BYTE   W03
 BYTE   W03
 BYTE   W02
 BYTE   N23  Cn2  v072
 BYTE   W01
 BYTE   W03
 BYTE   W01
 BYTE   W01
 BYTE   W01
 BYTE   W01
 BYTE   W01
 BYTE   W01
 BYTE   W01
 BYTE   W01
 BYTE   W02
 BYTE   W01
 BYTE   W02
 BYTE   W01
 BYTE   W02
 BYTE   W01
 BYTE   W02
 BYTE   W01
 BYTE   Fn2
 BYTE   W02
 BYTE   W01
 BYTE   W01
 BYTE   W13
 BYTE   W07
 BYTE   Gn2
 BYTE   W07
 BYTE   W07
 BYTE   W07
 BYTE   W02
 BYTE   W01
 BYTE   As2
 BYTE   W02
 BYTE   W01
 BYTE   W02
 BYTE   W02
 BYTE   W01
 BYTE   W02
 BYTE   W01
 BYTE   W02
 BYTE   W01
 BYTE   W01
 BYTE   PEND 
// 003   ----------------------------------------
Label_7_0101C8AC:
 BYTE   W01
 BYTE   W01
 BYTE   W02
 BYTE   W01
 BYTE   W02
 BYTE   W01
 BYTE   W01
 BYTE   N92  Cn3  v072
 BYTE   W03
 BYTE   W03
 BYTE   W01
 BYTE   W01
 BYTE   W02
 BYTE   W01
 BYTE   W02
 BYTE   W01
 BYTE   W02
 BYTE   W05
 BYTE   W05
 BYTE   W04
 BYTE   W05
 BYTE   W03
 BYTE   W03
 BYTE   W03
 BYTE   W03
 BYTE   W03
 BYTE   W03
 BYTE   W03
 BYTE   W02
 BYTE   W01
 BYTE   W02
 BYTE   W01
 BYTE   W02
 BYTE   W01
 BYTE   W02
 BYTE   W01
 BYTE   W02
 BYTE   W01
 BYTE   W02
 BYTE   W01
 BYTE   W02
 BYTE   W01
 BYTE   W01
 BYTE   W01
 BYTE   W02
 BYTE   W01
 BYTE   W02
 BYTE   W01
 BYTE   W02
 BYTE   PEND 
// 004   ----------------------------------------
Label_7_0101C8E0:
 BYTE   W01
 BYTE   W02
 BYTE   W01
 BYTE   W02
 BYTE   W01
 BYTE   W02
 BYTE   W03
 BYTE   W03
 BYTE   W03
 BYTE   W03
 BYTE   W03
 BYTE   W03
 BYTE   W03
 BYTE   W03
 BYTE   W03
 BYTE   W03
 BYTE   W02
 BYTE   W54
 BYTE   W01
 BYTE   PEND 
// 005   ----------------------------------------
 BYTE   W96
// 006   ----------------------------------------
 BYTE   W96
// 007   ----------------------------------------
 BYTE   W96
// 008   ----------------------------------------
 BYTE   W09
 BYTE   N23  Cn2  v072
 BYTE   W01
 BYTE   W02
 BYTE   W01
 BYTE   W02
 BYTE   W01
 BYTE   W01
 BYTE   W01
 BYTE   W02
 BYTE   W01
 BYTE   W02
 BYTE   W01
 BYTE   W02
 BYTE   W01
 BYTE   W02
 BYTE   W01
 BYTE   W02
 BYTE   W01
 BYTE   Fn2
 BYTE   W04
 BYTE   W04
 BYTE   W03
 BYTE   W04
 BYTE   W04
 BYTE   W04
 BYTE   W01
 BYTE   Gn2
 BYTE   W03
 BYTE   W04
 BYTE   W06
 BYTE   W04
 BYTE   W03
 BYTE   W04
 BYTE   As2
 BYTE   W01
 BYTE   W02
 BYTE   W01
 BYTE   W02
 BYTE   W01
 BYTE   W01
 BYTE   W02
 BYTE   W01
 BYTE   W02
 BYTE   W01
 BYTE   W01
 BYTE   PATT
  POIN2 Label_7_0101C84A
 BYTE   PATT
  POIN2 Label_7_0101C87B
 BYTE   PATT
  POIN2 Label_7_0101C8AC
 BYTE   PATT
  POIN2 Label_7_0101C8E0
// 009   ----------------------------------------
 BYTE   W96
// 010   ----------------------------------------
 BYTE   W96
// 011   ----------------------------------------
 BYTE   W96
// 012   ----------------------------------------
 BYTE   W96
// 013   ----------------------------------------
 BYTE   W96
// 014   ----------------------------------------
 BYTE   W96
// 015   ----------------------------------------
 BYTE   W96
// 016   ----------------------------------------
 BYTE   W96
// 017   ----------------------------------------
 BYTE   W96
// 018   ----------------------------------------
 BYTE   W96
// 019   ----------------------------------------
 BYTE   W96
// 020   ----------------------------------------
 BYTE   W96
// 021   ----------------------------------------
 BYTE   W96
// 022   ----------------------------------------
 BYTE   W20
 BYTE   W76
// 023   ----------------------------------------
Label_7_0101C94A:
 BYTE   N05  Bn5  v104
 BYTE   W06
 BYTE   N05
 BYTE   W06
 BYTE   N11  Bn5  v116
 BYTE   W12
 BYTE   Bn5  v052
 BYTE   W12
 BYTE   Bn5  v044
 BYTE   W12
 BYTE   Bn5  v036
 BYTE   W48
 BYTE   PEND 
// 024   ----------------------------------------
 BYTE   W12
 BYTE   An2  v092
 BYTE   W12
 BYTE   An2  v040
 BYTE   W12
 BYTE   Dn3  v092
 BYTE   W12
 BYTE   Dn3  v040
 BYTE   W12
 BYTE   En3  v092
 BYTE   W12
 BYTE   En3  v040
 BYTE   W12
 BYTE   Dn3  v092
 BYTE   W12
 BYTE   PATT
  POIN2 Label_7_0101C94A
// 025   ----------------------------------------
 BYTE   W12
 BYTE   N11  An2  v092
 BYTE   W12
 BYTE   An2  v040
 BYTE   W12
 BYTE   Dn3  v092
 BYTE   W12
 BYTE   Dn3  v040
 BYTE   W12
 BYTE   En3  v092
 BYTE   W12
 BYTE   En3  v040
 BYTE   W12
 BYTE   An2  v092
 BYTE   W12
// 026   ----------------------------------------
 BYTE   As5  v120
 BYTE   W12
 BYTE   N05  As5  v080
 BYTE   W06
 BYTE   As5  v092
 BYTE   W06
 BYTE   N11  As5  v104
 BYTE   W12
 BYTE   N05  As5  v080
 BYTE   W06
 BYTE   As5  v092
 BYTE   W06
 BYTE   N11  As5  v104
 BYTE   W12
 BYTE   N05  As5  v080
 BYTE   W06
 BYTE   As5  v092
 BYTE   W06
 BYTE   N11  As5  v104
 BYTE   W12
 BYTE   N05  As5  v080
 BYTE   W06
 BYTE   As5  v092
 BYTE   W06
// 027   ----------------------------------------
 BYTE   N11  As5  v120
 BYTE   W24
 BYTE   As5  v104
 BYTE   W24
 BYTE   N11
 BYTE   W24
 BYTE   N11
 BYTE   W18
 BYTE   GoTo
  POIN2 Label_7_0101C812
// 028   ----------------------------------------
 BYTE   W05
 BYTE   FINE

//**************** Track 9 (Midi-Chn.8) ****************//

FE12LiberationGratedShtick_009:
// 000   ----------------------------------------
 BYTE   KEYSH   FE12LiberationGratedShtick_key+0
Label_8_0101C9D2:
 BYTE   VOICE   2
 BYTE   VOL   51*FE12LiberationGratedShtick_mvl/mxv
 BYTE   PAN   c_v+0
 BYTE   BEND   c_v+0
 BYTE   N10  Fn0  v104
 BYTE   W12
 BYTE   Fn0  v116
 BYTE   W24
 BYTE   Fn0  v104
 BYTE   W24
 BYTE   N14
 BYTE   W24
 BYTE   N05  Cn1
 BYTE   W06
 BYTE   Fn1
 BYTE   W06
// 001   ----------------------------------------
Label_8_0101C9EB:
 BYTE   W06
 BYTE   N01  Cn1  v104
 BYTE   W06
 BYTE   N10  Fn0
 BYTE   W12
 BYTE   Fn0  v116
 BYTE   W18
 BYTE   N05  Fn0  v104
 BYTE   W06
 BYTE   As0
 BYTE   W06
 BYTE   Cn1
 BYTE   W06
 BYTE   N14  Fn0
 BYTE   W24
 BYTE   N10  Ds0
 BYTE   W12
 BYTE   PEND 
// 002   ----------------------------------------
Label_8_0101CA05:
 BYTE   N10  Fn0  v104
 BYTE   W12
 BYTE   Fn0  v116
 BYTE   W24
 BYTE   Fn0  v104
 BYTE   W24
 BYTE   N14
 BYTE   W24
 BYTE   N05  Cn1
 BYTE   W06
 BYTE   Fn1
 BYTE   W06
 BYTE   PEND 
// 003   ----------------------------------------
Label_8_0101CA17:
 BYTE   W06
 BYTE   N01  Cn1  v104
 BYTE   W06
 BYTE   N10  Fn0
 BYTE   W12
 BYTE   Fn0  v116
 BYTE   W18
 BYTE   N05  Fn0  v104
 BYTE   W06
 BYTE   As0
 BYTE   W06
 BYTE   Cn1
 BYTE   W06
 BYTE   N11  Fn0
 BYTE   W12
 BYTE   N06  Fn1
 BYTE   W08
 BYTE   En1
 BYTE   W08
 BYTE   Ds1
 BYTE   W08
 BYTE   PEND 
// 004   ----------------------------------------
Label_8_0101CA35:
 BYTE   W24
 BYTE   N22  Cs1  v124
 BYTE   W24
 BYTE   N06  Cn1
 BYTE   W08
 BYTE   Cn1  v096
 BYTE   W08
 BYTE   Cn1  v076
 BYTE   W08
 BYTE   N22  Cn1  v124
 BYTE   W24
 BYTE   PEND 
// 005   ----------------------------------------
Label_8_0101CA48:
 BYTE   W24
 BYTE   N22  Cs0  v124
 BYTE   W24
 BYTE   N06  Cn0
 BYTE   W08
 BYTE   Cn0  v096
 BYTE   W08
 BYTE   Cn0  v076
 BYTE   W08
 BYTE   N22  Cn1  v124
 BYTE   W24
 BYTE   PEND 
// 006   ----------------------------------------
 BYTE   N30  Cs1
 BYTE   W36
 BYTE   N04  Cs1  v104
 BYTE   W06
 BYTE   N04
 BYTE   W06
 BYTE   N30  Cn1  v127
 BYTE   W36
 BYTE   N04  Cn1  v104
 BYTE   W06
 BYTE   Cn1  v108
 BYTE   W06
// 007   ----------------------------------------
 BYTE   N30  Cs1  v124
 BYTE   W36
 BYTE   N04  Gs0  v108
 BYTE   W06
 BYTE   N04
 BYTE   W06
 BYTE   N10  Ds0  v116
 BYTE   W12
 BYTE   N01  Ds0  v104
 BYTE   W06
 BYTE   N05
 BYTE   W06
 BYTE   As0
 BYTE   W06
 BYTE   Fn1
 BYTE   W06
 BYTE   Ds1
 BYTE   W06
 BYTE   Ds0
 BYTE   W06
 BYTE   PATT
  POIN2 Label_8_0101CA05
 BYTE   PATT
  POIN2 Label_8_0101C9EB
 BYTE   PATT
  POIN2 Label_8_0101CA05
 BYTE   PATT
  POIN2 Label_8_0101CA17
 BYTE   PATT
  POIN2 Label_8_0101CA35
 BYTE   PATT
  POIN2 Label_8_0101CA48
// 008   ----------------------------------------
 BYTE   N22  As0  v116
 BYTE   W24
 BYTE   As0  v104
 BYTE   W24
 BYTE   An0  v116
 BYTE   W24
 BYTE   An0  v104
 BYTE   W24
// 009   ----------------------------------------
 BYTE   Gs0  v112
 BYTE   W24
 BYTE   Gs0  v104
 BYTE   W24
 BYTE   Gs0  v116
 BYTE   W24
 BYTE   Gs0  v104
 BYTE   W24
// 010   ----------------------------------------
 BYTE   N07  An0  v116
 BYTE   W08
 BYTE   An0  v072
 BYTE   W08
 BYTE   An0  v052
 BYTE   W08
 BYTE   An0  v116
 BYTE   W08
 BYTE   N07
 BYTE   W08
 BYTE   N07
 BYTE   W08
 BYTE   N07
 BYTE   W08
 BYTE   An0  v072
 BYTE   W08
 BYTE   An0  v052
 BYTE   W08
 BYTE   An0  v116
 BYTE   W08
 BYTE   N07
 BYTE   W08
 BYTE   N07
 BYTE   W08
// 011   ----------------------------------------
Label_8_0101CAE2:
 BYTE   N07  Gs0  v116
 BYTE   W08
 BYTE   Gs0  v072
 BYTE   W08
 BYTE   Gs0  v052
 BYTE   W08
 BYTE   Gs0  v116
 BYTE   W08
 BYTE   N07
 BYTE   W08
 BYTE   N07
 BYTE   W08
 BYTE   N07
 BYTE   W08
 BYTE   Gs0  v072
 BYTE   W08
 BYTE   Gs0  v052
 BYTE   W08
 BYTE   Gs0  v116
 BYTE   W08
 BYTE   N07
 BYTE   W08
 BYTE   N07
 BYTE   W08
 BYTE   PEND 
// 012   ----------------------------------------
 BYTE   Fs0
 BYTE   W08
 BYTE   Fs0  v072
 BYTE   W08
 BYTE   Fs0  v052
 BYTE   W08
 BYTE   Fs0  v116
 BYTE   W08
 BYTE   N07
 BYTE   W08
 BYTE   N07
 BYTE   W08
 BYTE   N07
 BYTE   W08
 BYTE   Fs0  v072
 BYTE   W08
 BYTE   Fs0  v052
 BYTE   W08
 BYTE   Fs0  v116
 BYTE   W08
 BYTE   N07
 BYTE   W08
 BYTE   N07
 BYTE   W08
 BYTE   PATT
  POIN2 Label_8_0101CAE2
// 013   ----------------------------------------
Label_8_0101CB26:
 BYTE   N11  An0  v104
 BYTE   W12
 BYTE   N17  An0  v112
 BYTE   W24
 BYTE   N05  En0  v104
 BYTE   W06
 BYTE   An0
 BYTE   W12
 BYTE   N03
 BYTE   W06
 BYTE   N16
 BYTE   W18
 BYTE   N02  En1
 BYTE   W06
 BYTE   N10  An0
 BYTE   W12
 BYTE   PEND 
// 014   ----------------------------------------
 BYTE   N11  Gs0
 BYTE   W12
 BYTE   N17  Gs0  v112
 BYTE   W24
 BYTE   N05  En1  v104
 BYTE   W06
 BYTE   Gs0
 BYTE   W12
 BYTE   N03
 BYTE   W06
 BYTE   N10
 BYTE   W12
 BYTE   N05  Gs1
 BYTE   W06
 BYTE   Fs1
 BYTE   W06
 BYTE   Ds1
 BYTE   W06
 BYTE   Bn0
 BYTE   W06
// 015   ----------------------------------------
 BYTE   N11  Fs0
 BYTE   W12
 BYTE   N17  Fs0  v112
 BYTE   W24
 BYTE   N05  Fs0  v104
 BYTE   W06
 BYTE   N05
 BYTE   W06
 BYTE   N11  Gs0
 BYTE   W12
 BYTE   N17  Gs0  v112
 BYTE   W24
 BYTE   N05  Gs0  v104
 BYTE   W06
 BYTE   N05
 BYTE   W06
 BYTE   PATT
  POIN2 Label_8_0101CB26
// 016   ----------------------------------------
 BYTE   N11  As0  v104
 BYTE   W12
 BYTE   N17  As0  v112
 BYTE   W24
 BYTE   N05  Fs0  v104
 BYTE   W06
 BYTE   As0
 BYTE   W12
 BYTE   N03
 BYTE   W06
 BYTE   N10
 BYTE   W12
 BYTE   N05
 BYTE   W08
 BYTE   N05
 BYTE   W08
 BYTE   N05
 BYTE   W08
// 017   ----------------------------------------
Label_8_0101CB90:
 BYTE   N20  Bn0  v104
 BYTE   W24
 BYTE   N04
 BYTE   W08
 BYTE   N04
 BYTE   W08
 BYTE   N04
 BYTE   W08
 BYTE   N20
 BYTE   W24
 BYTE   N04
 BYTE   W08
 BYTE   N04
 BYTE   W08
 BYTE   N04
 BYTE   W08
 BYTE   PEND 
 BYTE   PATT
  POIN2 Label_8_0101CB90
// 018   ----------------------------------------
 BYTE   W96
// 019   ----------------------------------------
Label_8_0101CBA9:
 BYTE   W12
 BYTE   N05  Bn0  v100
 BYTE   W06
 BYTE   Bn0  v064
 BYTE   W06
 BYTE   Bn0  v100
 BYTE   W06
 BYTE   Bn0  v064
 BYTE   W06
 BYTE   Bn0  v100
 BYTE   W06
 BYTE   Bn0  v064
 BYTE   W06
 BYTE   Bn0  v100
 BYTE   W06
 BYTE   Bn0  v064
 BYTE   W06
 BYTE   Bn0  v100
 BYTE   W06
 BYTE   Bn0  v064
 BYTE   W06
 BYTE   Bn0  v100
 BYTE   W06
 BYTE   Bn0  v064
 BYTE   W06
 BYTE   Bn0  v100
 BYTE   W06
 BYTE   Bn0  v064
 BYTE   W06
 BYTE   PEND 
// 020   ----------------------------------------
 BYTE   W96
 BYTE   PATT
  POIN2 Label_8_0101CBA9
// 021   ----------------------------------------
 BYTE   N23  Cn1  v104
 BYTE   W96
// 022   ----------------------------------------
 BYTE   N23
 BYTE   W24
 BYTE   N23
 BYTE   W24
 BYTE   N23
 BYTE   W24
 BYTE   N07
 BYTE   W08
 BYTE   N07
 BYTE   W08
 BYTE   N07
 BYTE   W02
 BYTE   GoTo
  POIN2 Label_8_0101C9D2
// 023   ----------------------------------------
 BYTE   W05
 BYTE   FINE

//**************** Track 10 (Midi-Chn.9) ****************//

FE12LiberationGratedShtick_010:
// 000   ----------------------------------------
 BYTE   KEYSH   FE12LiberationGratedShtick_key+0
Label_9_0101CBF6:
 BYTE   VOICE   118
 BYTE   VOL   46*FE12LiberationGratedShtick_mvl/mxv
 BYTE   PAN   c_v+0
 BYTE   BEND   c_v+0
 BYTE   N05  Dn1  v084
 BYTE   N44  Cs2  v048
 BYTE   W06
 BYTE   N05  Dn1  v012
 BYTE   W06
 BYTE   En1  v104
 BYTE   W06
 BYTE   En1  v032
 BYTE   W06
 BYTE   En1  v012
 BYTE   W06
 BYTE   Dn1  v040
 BYTE   W06
 BYTE   En1  v064
 BYTE   W06
 BYTE   Dn1  v084
 BYTE   W06
 BYTE   En1  v048
 BYTE   W06
 BYTE   Dn1  v028
 BYTE   W06
 BYTE   Dn1  v068
 BYTE   W06
 BYTE   Dn1  v028
 BYTE   W06
 BYTE   En1  v076
 BYTE   W06
 BYTE   Dn1  v028
 BYTE   W06
 BYTE   N03  Dn1  v032
 BYTE   W04
 BYTE   En1  v044
 BYTE   W04
 BYTE   Dn1  v080
 BYTE   W04
// 001   ----------------------------------------
Label_9_0101CC37:
 BYTE   N05  En1  v036
 BYTE   W06
 BYTE   Dn1  v032
 BYTE   W06
 BYTE   Dn1  v084
 BYTE   W06
 BYTE   Dn1  v012
 BYTE   W06
 BYTE   En1  v104
 BYTE   W06
 BYTE   En1  v032
 BYTE   W06
 BYTE   En1  v064
 BYTE   W06
 BYTE   Dn1  v084
 BYTE   W06
 BYTE   En1  v076
 BYTE   W06
 BYTE   Dn1  v028
 BYTE   W06
 BYTE   N03  Dn1  v032
 BYTE   W04
 BYTE   En1  v044
 BYTE   W04
 BYTE   Dn1  v080
 BYTE   W04
 BYTE   N05  En1  v076
 BYTE   W06
 BYTE   Dn1  v036
 BYTE   W06
 BYTE   En1  v044
 BYTE   W06
 BYTE   Dn1  v092
 BYTE   W06
 BYTE   PEND 
// 002   ----------------------------------------
Label_9_0101CC6E:
 BYTE   N05  Dn1  v084
 BYTE   W06
 BYTE   Dn1  v012
 BYTE   W06
 BYTE   En1  v104
 BYTE   W06
 BYTE   En1  v032
 BYTE   W06
 BYTE   En1  v012
 BYTE   W06
 BYTE   Dn1  v040
 BYTE   W06
 BYTE   En1  v064
 BYTE   W06
 BYTE   Dn1  v084
 BYTE   W06
 BYTE   En1  v048
 BYTE   W06
 BYTE   Dn1  v028
 BYTE   W06
 BYTE   Dn1  v068
 BYTE   W06
 BYTE   Dn1  v028
 BYTE   W06
 BYTE   En1  v076
 BYTE   W06
 BYTE   Dn1  v028
 BYTE   W06
 BYTE   N03  Dn1  v032
 BYTE   W04
 BYTE   En1  v044
 BYTE   W04
 BYTE   Dn1  v080
 BYTE   W04
 BYTE   PEND 
// 003   ----------------------------------------
Label_9_0101CCA4:
 BYTE   N05  En1  v036
 BYTE   W06
 BYTE   Dn1  v032
 BYTE   W06
 BYTE   Dn1  v084
 BYTE   W06
 BYTE   Dn1  v012
 BYTE   W06
 BYTE   En1  v104
 BYTE   W06
 BYTE   En1  v032
 BYTE   W06
 BYTE   En1  v064
 BYTE   W06
 BYTE   Dn1  v084
 BYTE   W06
 BYTE   En1  v076
 BYTE   W06
 BYTE   Dn1  v028
 BYTE   W06
 BYTE   N03  Dn1  v032
 BYTE   W04
 BYTE   En1  v044
 BYTE   W04
 BYTE   Dn1  v080
 BYTE   W04
 BYTE   N05  En1  v076
 BYTE   W08
 BYTE   Dn1  v092
 BYTE   W08
 BYTE   En1  v100
 BYTE   W08
 BYTE   PEND 
// 004   ----------------------------------------
 BYTE   Dn1  v084
 BYTE   N44  Cs2  v068
 BYTE   W06
 BYTE   N05  Dn1  v036
 BYTE   W06
 BYTE   Dn1  v024
 BYTE   W12
 BYTE   Dn1  v088
 BYTE   W08
 BYTE   En1  v084
 BYTE   W08
 BYTE   Dn1
 BYTE   W08
 BYTE   En1  v076
 BYTE   W06
 BYTE   Dn1  v032
 BYTE   W06
 BYTE   Dn1  v084
 BYTE   W06
 BYTE   Dn1  v012
 BYTE   W06
 BYTE   N03  Dn1  v032
 BYTE   W04
 BYTE   En1  v044
 BYTE   W04
 BYTE   Dn1  v056
 BYTE   W04
 BYTE   N03
 BYTE   W04
 BYTE   En1  v076
 BYTE   W04
 BYTE   Dn1  v084
 BYTE   W04
// 005   ----------------------------------------
 BYTE   N05  En1  v036
 BYTE   N44  En2  v068
 BYTE   W06
 BYTE   N05  Dn1  v032
 BYTE   W06
 BYTE   Dn1  v084
 BYTE   W06
 BYTE   Dn1  v012
 BYTE   W06
 BYTE   En1  v104
 BYTE   W08
 BYTE   En1  v064
 BYTE   W08
 BYTE   Dn1  v084
 BYTE   W08
 BYTE   En1  v076
 BYTE   W06
 BYTE   Dn1  v028
 BYTE   W06
 BYTE   N03  Dn1  v032
 BYTE   W04
 BYTE   En1  v044
 BYTE   W04
 BYTE   Dn1  v080
 BYTE   W04
 BYTE   N05  En1  v092
 BYTE   W06
 BYTE   Dn1  v036
 BYTE   W06
 BYTE   En1  v044
 BYTE   W06
 BYTE   Dn1  v092
 BYTE   W06
 BYTE   PATT
  POIN2 Label_9_0101CC6E
// 006   ----------------------------------------
 BYTE   N05  En1  v036
 BYTE   W06
 BYTE   Dn1  v032
 BYTE   W06
 BYTE   Dn1  v084
 BYTE   W06
 BYTE   Dn1  v012
 BYTE   W06
 BYTE   En1  v104
 BYTE   W06
 BYTE   En1  v032
 BYTE   W06
 BYTE   En1  v064
 BYTE   W06
 BYTE   Dn1  v084
 BYTE   W06
 BYTE   En1  v076
 BYTE   W06
 BYTE   Dn1  v028
 BYTE   W06
 BYTE   Dn1  v020
 BYTE   W06
 BYTE   En1  v096
 BYTE   W06
 BYTE   En1  v028
 BYTE   W06
 BYTE   Dn1  v096
 BYTE   W06
 BYTE   En1  v112
 BYTE   W06
 BYTE   Dn1  v036
 BYTE   W06
// 007   ----------------------------------------
 BYTE   Dn1  v084
 BYTE   N44  Cs2  v048
 BYTE   W06
 BYTE   N05  Dn1  v012
 BYTE   W06
 BYTE   En1  v104
 BYTE   W06
 BYTE   En1  v032
 BYTE   W06
 BYTE   En1  v012
 BYTE   W06
 BYTE   Dn1  v040
 BYTE   W06
 BYTE   En1  v064
 BYTE   W06
 BYTE   Dn1  v084
 BYTE   W06
 BYTE   En1  v048
 BYTE   W06
 BYTE   Dn1  v028
 BYTE   W06
 BYTE   Dn1  v068
 BYTE   W06
 BYTE   Dn1  v028
 BYTE   W06
 BYTE   En1  v076
 BYTE   W06
 BYTE   Dn1  v028
 BYTE   W06
 BYTE   N03  Dn1  v032
 BYTE   W04
 BYTE   En1  v044
 BYTE   W04
 BYTE   Dn1  v080
 BYTE   W04
 BYTE   PATT
  POIN2 Label_9_0101CC37
 BYTE   PATT
  POIN2 Label_9_0101CC6E
 BYTE   PATT
  POIN2 Label_9_0101CCA4
// 008   ----------------------------------------
 BYTE   N05  Dn1  v084
 BYTE   W06
 BYTE   Dn1  v036
 BYTE   W06
 BYTE   Dn1  v024
 BYTE   W12
 BYTE   Dn1  v088
 BYTE   W08
 BYTE   En1  v084
 BYTE   W08
 BYTE   Dn1
 BYTE   W08
 BYTE   En1  v076
 BYTE   W06
 BYTE   Dn1  v032
 BYTE   W06
 BYTE   Dn1  v084
 BYTE   W06
 BYTE   Dn1  v012
 BYTE   W06
 BYTE   N03  Dn1  v032
 BYTE   W04
 BYTE   En1  v044
 BYTE   W04
 BYTE   Dn1  v056
 BYTE   W04
 BYTE   N03
 BYTE   W04
 BYTE   En1  v076
 BYTE   W04
 BYTE   Dn1  v084
 BYTE   W04
// 009   ----------------------------------------
 BYTE   N05  En1  v036
 BYTE   W06
 BYTE   Dn1  v032
 BYTE   W06
 BYTE   Dn1  v084
 BYTE   W06
 BYTE   Dn1  v012
 BYTE   W06
 BYTE   En1  v104
 BYTE   W08
 BYTE   En1  v064
 BYTE   W08
 BYTE   Dn1  v084
 BYTE   W08
 BYTE   En1  v076
 BYTE   W06
 BYTE   Dn1  v028
 BYTE   W06
 BYTE   N03  Dn1  v032
 BYTE   W04
 BYTE   En1  v044
 BYTE   W04
 BYTE   Dn1  v080
 BYTE   W04
 BYTE   N05  En1  v092
 BYTE   W06
 BYTE   Dn1  v036
 BYTE   W06
 BYTE   En1  v044
 BYTE   W06
 BYTE   Dn1  v092
 BYTE   W06
 BYTE   PATT
  POIN2 Label_9_0101CC6E
// 010   ----------------------------------------
 BYTE   N05  En1  v036
 BYTE   W06
 BYTE   Dn1  v032
 BYTE   W06
 BYTE   Dn1  v084
 BYTE   W06
 BYTE   Dn1  v012
 BYTE   W06
 BYTE   En1  v104
 BYTE   W06
 BYTE   En1  v032
 BYTE   W06
 BYTE   En1  v064
 BYTE   W06
 BYTE   Dn1  v084
 BYTE   W06
 BYTE   En1  v076
 BYTE   W06
 BYTE   Dn1  v028
 BYTE   W06
 BYTE   Dn1  v020
 BYTE   W06
 BYTE   En1  v096
 BYTE   W06
 BYTE   En1  v028
 BYTE   W06
 BYTE   Dn1  v096
 BYTE   W03
 BYTE   N02  Cs2  v008
 BYTE   W03
 BYTE   N05  En1  v112
 BYTE   N02  Cs2  v024
 BYTE   W03
 BYTE   Cs2  v032
 BYTE   W03
 BYTE   N05  Dn1  v036
 BYTE   N02  Cs2  v040
 BYTE   W03
 BYTE   Cs2  v056
 BYTE   W03
// 011   ----------------------------------------
 BYTE   N05  Dn1  v064
 BYTE   TIE  Cs2  v068
 BYTE   W01
 BYTE   N05  En1  v064
 BYTE   W23
 BYTE   Dn1
 BYTE   W01
 BYTE   En1
 BYTE   W07
 BYTE   Dn1  v048
 BYTE   W01
 BYTE   En1
 BYTE   W07
 BYTE   Dn1  v040
 BYTE   W01
 BYTE   En1
 BYTE   W07
 BYTE   Dn1  v064
 BYTE   W01
 BYTE   En1
 BYTE   W23
 BYTE   Dn1
 BYTE   W01
 BYTE   En1
 BYTE   W07
 BYTE   Dn1  v048
 BYTE   W01
 BYTE   En1
 BYTE   W07
 BYTE   Dn1  v040
 BYTE   W01
 BYTE   En1
 BYTE   W07
// 012   ----------------------------------------
 BYTE   Dn1  v064
 BYTE   W01
 BYTE   En1
 BYTE   W23
 BYTE   Dn1
 BYTE   W01
 BYTE   En1
 BYTE   W07
 BYTE   Dn1  v048
 BYTE   W01
 BYTE   En1
 BYTE   W07
 BYTE   EOT
 BYTE   Cs2
 BYTE   N05  Dn1  v040
 BYTE   W01
 BYTE   En1
 BYTE   W07
 BYTE   Dn1  v064
 BYTE   W01
 BYTE   En1
 BYTE   W23
 BYTE   Dn1
 BYTE   W01
 BYTE   En1
 BYTE   W07
 BYTE   Dn1  v048
 BYTE   W01
 BYTE   En1
 BYTE   W07
 BYTE   Dn1  v040
 BYTE   W01
 BYTE   En1
 BYTE   W07
// 013   ----------------------------------------
Label_9_0101CEBF:
 BYTE   N05  Dn1  v064
 BYTE   W01
 BYTE   En1
 BYTE   W23
 BYTE   Dn1
 BYTE   W01
 BYTE   En1
 BYTE   W07
 BYTE   Dn1  v048
 BYTE   W01
 BYTE   En1
 BYTE   W07
 BYTE   Dn1  v040
 BYTE   W01
 BYTE   En1
 BYTE   W07
 BYTE   Dn1  v064
 BYTE   W01
 BYTE   En1
 BYTE   W23
 BYTE   Dn1
 BYTE   W01
 BYTE   En1
 BYTE   W07
 BYTE   Dn1  v048
 BYTE   W01
 BYTE   En1
 BYTE   W07
 BYTE   Dn1  v040
 BYTE   W01
 BYTE   En1
 BYTE   W07
 BYTE   PEND 
 BYTE   PATT
  POIN2 Label_9_0101CEBF
// 014   ----------------------------------------
 BYTE   N05  Dn1  v084
 BYTE   N44  En2  v060
 BYTE   W06
 BYTE   N05  En1  v088
 BYTE   W06
 BYTE   Dn1  v104
 BYTE   W06
 BYTE   En1  v032
 BYTE   W06
 BYTE   N02  Dn1  v076
 BYTE   W03
 BYTE   En1  v064
 BYTE   W03
 BYTE   Dn1  v060
 BYTE   W03
 BYTE   En1  v052
 BYTE   W03
 BYTE   N05  En1  v064
 BYTE   W06
 BYTE   Dn1  v084
 BYTE   W06
 BYTE   En1  v048
 BYTE   W06
 BYTE   Dn1  v028
 BYTE   W06
 BYTE   Dn1  v068
 BYTE   W06
 BYTE   Dn1  v028
 BYTE   W06
 BYTE   En1  v076
 BYTE   W06
 BYTE   En1  v032
 BYTE   W06
 BYTE   Dn1  v072
 BYTE   W06
 BYTE   En1
 BYTE   W06
// 015   ----------------------------------------
 BYTE   En1  v036
 BYTE   W06
 BYTE   Dn1  v032
 BYTE   W06
 BYTE   Dn1  v084
 BYTE   W06
 BYTE   Dn1  v012
 BYTE   W06
 BYTE   En1  v104
 BYTE   W06
 BYTE   En1  v032
 BYTE   W06
 BYTE   En1  v064
 BYTE   W06
 BYTE   Dn1  v084
 BYTE   W06
 BYTE   En1  v076
 BYTE   W06
 BYTE   Dn1  v028
 BYTE   W06
 BYTE   N03  Dn1  v032
 BYTE   W04
 BYTE   En1  v044
 BYTE   W04
 BYTE   Dn1  v080
 BYTE   W04
 BYTE   N05  En1  v092
 BYTE   W06
 BYTE   Dn1  v052
 BYTE   W06
 BYTE   En1  v084
 BYTE   W06
 BYTE   Dn1
 BYTE   W06
// 016   ----------------------------------------
 BYTE   En1  v072
 BYTE   W06
 BYTE   Dn1  v088
 BYTE   W06
 BYTE   Dn1  v048
 BYTE   W06
 BYTE   En1  v052
 BYTE   W06
 BYTE   Dn1  v032
 BYTE   W06
 BYTE   En1  v048
 BYTE   W06
 BYTE   Dn1  v080
 BYTE   W06
 BYTE   En1  v016
 BYTE   W06
 BYTE   Dn1  v044
 BYTE   W06
 BYTE   En1  v108
 BYTE   W06
 BYTE   Dn1  v080
 BYTE   W06
 BYTE   En1  v036
 BYTE   W06
 BYTE   En1  v076
 BYTE   W06
 BYTE   Dn1  v036
 BYTE   W06
 BYTE   En1  v044
 BYTE   W06
 BYTE   Dn1  v092
 BYTE   W06
// 017   ----------------------------------------
 BYTE   En1  v096
 BYTE   W06
 BYTE   Dn1
 BYTE   W06
 BYTE   En1
 BYTE   W06
 BYTE   Dn1  v040
 BYTE   W06
 BYTE   En1  v100
 BYTE   W06
 BYTE   Dn1  v060
 BYTE   W06
 BYTE   En1  v040
 BYTE   W06
 BYTE   Dn1
 BYTE   W06
 BYTE   En1  v088
 BYTE   W06
 BYTE   Dn1
 BYTE   W06
 BYTE   En1  v052
 BYTE   W06
 BYTE   Dn1  v048
 BYTE   W06
 BYTE   N02  En1  v028
 BYTE   W04
 BYTE   Dn1  v044
 BYTE   W04
 BYTE   En1  v056
 BYTE   W04
 BYTE   Dn1  v060
 BYTE   W04
 BYTE   En1  v064
 BYTE   W04
 BYTE   Dn1  v080
 BYTE   W04
// 018   ----------------------------------------
 BYTE   N05  Dn1  v084
 BYTE   W06
 BYTE   En1  v088
 BYTE   W06
 BYTE   Dn1  v104
 BYTE   W06
 BYTE   En1  v032
 BYTE   W06
 BYTE   N02  Dn1  v044
 BYTE   W03
 BYTE   En1
 BYTE   W03
 BYTE   Dn1
 BYTE   W03
 BYTE   En1
 BYTE   W03
 BYTE   N05  En1  v064
 BYTE   W06
 BYTE   Dn1  v084
 BYTE   W06
 BYTE   En1  v048
 BYTE   W06
 BYTE   Dn1  v028
 BYTE   W06
 BYTE   Dn1  v068
 BYTE   W06
 BYTE   Dn1  v028
 BYTE   W06
 BYTE   En1  v076
 BYTE   W08
 BYTE   Dn1  v084
 BYTE   W08
 BYTE   En1  v108
 BYTE   W08
// 019   ----------------------------------------
 BYTE   N07  En1  v100
 BYTE   W08
 BYTE   Dn1  v052
 BYTE   W08
 BYTE   En1  v040
 BYTE   W08
 BYTE   Dn1  v088
 BYTE   W08
 BYTE   En1  v076
 BYTE   W08
 BYTE   Dn1  v092
 BYTE   W08
 BYTE   En1  v100
 BYTE   W08
 BYTE   Dn1  v052
 BYTE   W08
 BYTE   En1  v040
 BYTE   W08
 BYTE   Dn1  v088
 BYTE   W08
 BYTE   En1  v076
 BYTE   W08
 BYTE   Dn1  v092
 BYTE   W08
// 020   ----------------------------------------
 BYTE   En1  v100
 BYTE   W08
 BYTE   Dn1  v052
 BYTE   W08
 BYTE   En1  v040
 BYTE   W08
 BYTE   Dn1  v088
 BYTE   W08
 BYTE   En1  v076
 BYTE   W08
 BYTE   Dn1  v092
 BYTE   W08
 BYTE   En1  v100
 BYTE   W08
 BYTE   Dn1  v052
 BYTE   W08
 BYTE   En1  v040
 BYTE   W08
 BYTE   N02  En1  v028
 BYTE   W04
 BYTE   Dn1  v044
 BYTE   W04
 BYTE   En1  v056
 BYTE   W04
 BYTE   Dn1  v060
 BYTE   W04
 BYTE   En1  v064
 BYTE   W04
 BYTE   Dn1  v080
 BYTE   W04
// 021   ----------------------------------------
Label_9_0101D045:
 BYTE   N05  Dn1  v084
 BYTE   W06
 BYTE   En1  v088
 BYTE   W06
 BYTE   Dn1  v116
 BYTE   N19  An2  v056
 BYTE   W06
 BYTE   N05  En1  v032
 BYTE   W06
 BYTE   En1  v076
 BYTE   W06
 BYTE   Dn1  v048
 BYTE   W06
 BYTE   En1  v068
 BYTE   N19  An2  v040
 BYTE   W06
 BYTE   N05  Dn1
 BYTE   W06
 BYTE   En1  v032
 BYTE   W06
 BYTE   Dn1  v024
 BYTE   W06
 BYTE   Dn1  v068
 BYTE   N19  An2  v052
 BYTE   W06
 BYTE   N05  Dn1  v028
 BYTE   W06
 BYTE   N02  En1  v072
 BYTE   W03
 BYTE   Dn1  v044
 BYTE   W03
 BYTE   En1
 BYTE   W03
 BYTE   Dn1
 BYTE   W03
 BYTE   N05  En1  v076
 BYTE   N19  An2  v028
 BYTE   W06
 BYTE   N05  Dn1  v080
 BYTE   W06
 BYTE   PEND 
// 022   ----------------------------------------
 BYTE   En1  v056
 BYTE   W06
 BYTE   Dn1  v032
 BYTE   W06
 BYTE   Dn1  v084
 BYTE   N19  An2  v056
 BYTE   W06
 BYTE   N05  Dn1  v012
 BYTE   W06
 BYTE   En1  v056
 BYTE   W06
 BYTE   Dn1  v032
 BYTE   W06
 BYTE   Dn1  v084
 BYTE   N19  An2  v040
 BYTE   W06
 BYTE   N05  Dn1  v012
 BYTE   W06
 BYTE   En1  v040
 BYTE   W06
 BYTE   Dn1  v092
 BYTE   W06
 BYTE   En1  v036
 BYTE   N19  An2  v052
 BYTE   W06
 BYTE   N05  Dn1  v044
 BYTE   W06
 BYTE   N02  En1  v076
 BYTE   W03
 BYTE   Dn1  v056
 BYTE   W03
 BYTE   En1
 BYTE   W03
 BYTE   Dn1
 BYTE   W03
 BYTE   N05  En1  v044
 BYTE   N19  An2  v028
 BYTE   W06
 BYTE   N05  Dn1  v092
 BYTE   W06
 BYTE   PATT
  POIN2 Label_9_0101D045
// 023   ----------------------------------------
 BYTE   N05  En1  v056
 BYTE   W06
 BYTE   Dn1  v032
 BYTE   W06
 BYTE   Dn1  v084
 BYTE   N19  An2  v056
 BYTE   W06
 BYTE   N05  Dn1  v012
 BYTE   W06
 BYTE   En1  v056
 BYTE   W06
 BYTE   Dn1  v032
 BYTE   W06
 BYTE   Dn1  v084
 BYTE   N19  An2  v040
 BYTE   W06
 BYTE   N05  Dn1  v012
 BYTE   W06
 BYTE   En1  v040
 BYTE   W06
 BYTE   Dn1  v092
 BYTE   W06
 BYTE   En1  v036
 BYTE   N19  An2  v052
 BYTE   W06
 BYTE   N05  Dn1  v044
 BYTE   W06
 BYTE   N02  En1  v076
 BYTE   W03
 BYTE   Dn1  v056
 BYTE   W03
 BYTE   En1
 BYTE   W03
 BYTE   Dn1
 BYTE   W03
 BYTE   N05  En1  v044
 BYTE   N11  An2  v028
 BYTE   W06
 BYTE   N05  Dn1  v092
 BYTE   W06
// 024   ----------------------------------------
 BYTE   Dn1  v104
 BYTE   N76  Cs2  v052
 BYTE   W06
 BYTE   N05  Dn1  v012
 BYTE   W06
 BYTE   En1  v080
 BYTE   W06
 BYTE   Dn1  v064
 BYTE   W06
 BYTE   En1  v012
 BYTE   W06
 BYTE   Dn1  v040
 BYTE   W06
 BYTE   En1  v064
 BYTE   W06
 BYTE   Dn1  v084
 BYTE   W06
 BYTE   En1  v048
 BYTE   W06
 BYTE   Dn1  v028
 BYTE   W06
 BYTE   Dn1  v068
 BYTE   W06
 BYTE   Dn1  v028
 BYTE   W06
 BYTE   En1  v076
 BYTE   W06
 BYTE   Dn1  v028
 BYTE   W06
 BYTE   N03  Dn1  v032
 BYTE   W04
 BYTE   En1  v044
 BYTE   W04
 BYTE   Dn1  v080
 BYTE   W04
// 025   ----------------------------------------
 BYTE   N05  En1  v036
 BYTE   N76  En2  v040
 BYTE   W06
 BYTE   N05  Dn1  v032
 BYTE   W06
 BYTE   Dn1  v084
 BYTE   W06
 BYTE   Dn1  v012
 BYTE   W06
 BYTE   En1  v104
 BYTE   W06
 BYTE   En1  v032
 BYTE   W06
 BYTE   En1  v064
 BYTE   W06
 BYTE   Dn1  v084
 BYTE   W06
 BYTE   En1  v076
 BYTE   W06
 BYTE   Dn1  v028
 BYTE   W06
 BYTE   N03  Dn1  v032
 BYTE   W04
 BYTE   En1  v044
 BYTE   W04
 BYTE   Dn1  v080
 BYTE   W04
 BYTE   N05  En1  v084
 BYTE   W08
 BYTE   Dn1  v096
 BYTE   W08
 BYTE   En1  v116
 BYTE   W02
 BYTE   GoTo
  POIN2 Label_9_0101CBF6
// 026   ----------------------------------------
 BYTE   W05
 BYTE   FINE

//**************** Track 11 (Midi-Chn.10) ****************//

FE12LiberationGratedShtick_011:
// 000   ----------------------------------------
 BYTE   KEYSH   FE12LiberationGratedShtick_key+0
Label_10_0101D196:
 BYTE   VOICE   58
 BYTE   VOL   46*FE12LiberationGratedShtick_mvl/mxv
 BYTE   PAN   c_v-32
 BYTE   BEND   c_v+0
 BYTE   W96
// 001   ----------------------------------------
 BYTE   W96
// 002   ----------------------------------------
 BYTE   W96
// 003   ----------------------------------------
 BYTE   W96
// 004   ----------------------------------------
 BYTE   W96
// 005   ----------------------------------------
 BYTE   W96
// 006   ----------------------------------------
 BYTE   W96
// 007   ----------------------------------------
 BYTE   W96
// 008   ----------------------------------------
 BYTE   W96
// 009   ----------------------------------------
 BYTE   W96
// 010   ----------------------------------------
 BYTE   W96
// 011   ----------------------------------------
 BYTE   W96
// 012   ----------------------------------------
 BYTE   W96
// 013   ----------------------------------------
 BYTE   W96
// 014   ----------------------------------------
 BYTE   W96
// 015   ----------------------------------------
 BYTE   W96
// 016   ----------------------------------------
 BYTE   N44  Ds4  v104
 BYTE   W03
 BYTE   W03
 BYTE   W03
 BYTE   W03
 BYTE   W03
 BYTE   W03
 BYTE   W03
 BYTE   W03
 BYTE   W03
 BYTE   W03
 BYTE   W03
 BYTE   W03
 BYTE   W03
 BYTE   W03
 BYTE   W03
 BYTE   W03
 BYTE   Cs4
 BYTE   W03
 BYTE   W03
 BYTE   W03
 BYTE   W03
 BYTE   W03
 BYTE   W03
 BYTE   W03
 BYTE   W03
 BYTE   W03
 BYTE   W03
 BYTE   W03
 BYTE   W03
 BYTE   W03
 BYTE   W03
 BYTE   W03
 BYTE   W01
 BYTE   W02
// 017   ----------------------------------------
 BYTE   En4
 BYTE   W01
 BYTE   W03
 BYTE   W03
 BYTE   W03
 BYTE   W03
 BYTE   W03
 BYTE   W03
 BYTE   W03
 BYTE   W03
 BYTE   W03
 BYTE   W03
 BYTE   W03
 BYTE   W03
 BYTE   W03
 BYTE   W03
 BYTE   W02
 BYTE   W03
 BYTE   Bn3
 BYTE   W03
 BYTE   W03
 BYTE   W03
 BYTE   W03
 BYTE   W03
 BYTE   W03
 BYTE   W03
 BYTE   W03
 BYTE   W03
 BYTE   W03
 BYTE   W03
 BYTE   W03
 BYTE   W03
 BYTE   W03
 BYTE   W03
 BYTE   W03
// 018   ----------------------------------------
 BYTE   N44
 BYTE   W03
 BYTE   W01
 BYTE   W03
 BYTE   W03
 BYTE   W03
 BYTE   W03
 BYTE   W03
 BYTE   W03
 BYTE   W03
 BYTE   W03
 BYTE   W03
 BYTE   W03
 BYTE   W03
 BYTE   W03
 BYTE   W03
 BYTE   W03
 BYTE   W02
 BYTE   An3
 BYTE   W01
 BYTE   W01
 BYTE   W03
 BYTE   W03
 BYTE   W03
 BYTE   W03
 BYTE   W03
 BYTE   W03
 BYTE   W03
 BYTE   W02
 BYTE   W03
 BYTE   W03
 BYTE   W03
 BYTE   W03
 BYTE   W03
 BYTE   W03
 BYTE   W03
 BYTE   W02
// 019   ----------------------------------------
 BYTE   N68  Gs3
 BYTE   W03
 BYTE   W03
 BYTE   W03
 BYTE   W03
 BYTE   W03
 BYTE   W03
 BYTE   W03
 BYTE   W03
 BYTE   W03
 BYTE   W03
 BYTE   W03
 BYTE   W03
 BYTE   W03
 BYTE   W03
 BYTE   W03
 BYTE   W03
 BYTE   W03
 BYTE   W03
 BYTE   W03
 BYTE   W03
 BYTE   W03
 BYTE   W03
 BYTE   W01
 BYTE   W02
 BYTE   W01
 BYTE   W02
 BYTE   W01
 BYTE   W02
 BYTE   W01
 BYTE   N03  Fs3  v120
 BYTE   W02
 BYTE   W01
 BYTE   W01
 BYTE   Gs3
 BYTE   W01
 BYTE   W01
 BYTE   W02
 BYTE   An3
 BYTE   W01
 BYTE   W02
 BYTE   W01
 BYTE   Bn3
 BYTE   W02
 BYTE   W01
 BYTE   W01
 BYTE   Cs4
 BYTE   W01
 BYTE   W01
 BYTE   W02
// 020   ----------------------------------------
 BYTE   N44  Ds4  v104
 BYTE   W03
 BYTE   W03
 BYTE   W03
 BYTE   W03
 BYTE   W03
 BYTE   W03
 BYTE   W03
 BYTE   W03
 BYTE   W03
 BYTE   W03
 BYTE   W03
 BYTE   W03
 BYTE   W03
 BYTE   W03
 BYTE   W03
 BYTE   W03
 BYTE   Cs4
 BYTE   W07
 BYTE   W04
 BYTE   W03
 BYTE   W04
 BYTE   W04
 BYTE   W03
 BYTE   W04
 BYTE   W04
 BYTE   W04
 BYTE   W03
 BYTE   W04
 BYTE   W04
// 021   ----------------------------------------
 BYTE   En4
 BYTE   W03
 BYTE   W04
 BYTE   W04
 BYTE   W03
 BYTE   W04
 BYTE   W04
 BYTE   W03
 BYTE   W04
 BYTE   W04
 BYTE   W04
 BYTE   W03
 BYTE   W04
 BYTE   W03
 BYTE   W01
 BYTE   Bn3
 BYTE   W02
 BYTE   W03
 BYTE   W03
 BYTE   W03
 BYTE   W03
 BYTE   W03
 BYTE   W03
 BYTE   W03
 BYTE   W03
 BYTE   W03
 BYTE   W03
 BYTE   W03
 BYTE   W03
 BYTE   W03
 BYTE   W03
 BYTE   W03
 BYTE   W01
// 022   ----------------------------------------
 BYTE   N23
 BYTE   W01
 BYTE   W03
 BYTE   W03
 BYTE   W03
 BYTE   W03
 BYTE   W03
 BYTE   W03
 BYTE   W03
 BYTE   W02
 BYTE   An3
 BYTE   W01
 BYTE   W02
 BYTE   W03
 BYTE   W03
 BYTE   W03
 BYTE   W03
 BYTE   W03
 BYTE   W03
 BYTE   W03
 BYTE   N23
 BYTE   W03
 BYTE   W02
 BYTE   W01
 BYTE   W02
 BYTE   W01
 BYTE   W02
 BYTE   W01
 BYTE   W02
 BYTE   W01
 BYTE   W02
 BYTE   W01
 BYTE   W02
 BYTE   W01
 BYTE   W02
 BYTE   W01
 BYTE   Gs3
 BYTE   W01
 BYTE   W01
 BYTE   W02
 BYTE   W01
 BYTE   W02
 BYTE   W01
 BYTE   W02
 BYTE   W01
 BYTE   W02
 BYTE   W01
 BYTE   W02
 BYTE   W01
 BYTE   W02
 BYTE   W01
 BYTE   W02
 BYTE   W01
 BYTE   W01
// 023   ----------------------------------------
 BYTE   N44  Fs3
 BYTE   W03
 BYTE   W03
 BYTE   W03
 BYTE   W03
 BYTE   W03
 BYTE   W03
 BYTE   W03
 BYTE   W03
 BYTE   W03
 BYTE   W03
 BYTE   W03
 BYTE   W03
 BYTE   W03
 BYTE   W03
 BYTE   W03
 BYTE   W03
 BYTE   En3
 BYTE   W01
 BYTE   W03
 BYTE   W03
 BYTE   W03
 BYTE   W03
 BYTE   W03
 BYTE   W03
 BYTE   W03
 BYTE   W03
 BYTE   W03
 BYTE   W03
 BYTE   W03
 BYTE   W03
 BYTE   W03
 BYTE   W03
 BYTE   W03
 BYTE   W02
// 024   ----------------------------------------
 BYTE   N44
 BYTE   W01
 BYTE   W01
 BYTE   W03
 BYTE   W03
 BYTE   W03
 BYTE   W03
 BYTE   W03
 BYTE   W03
 BYTE   W03
 BYTE   W03
 BYTE   W03
 BYTE   W03
 BYTE   W03
 BYTE   W03
 BYTE   W03
 BYTE   W03
 BYTE   W03
 BYTE   W01
 BYTE   N23  Ds3
 BYTE   W02
 BYTE   W03
 BYTE   W01
 BYTE   W05
 BYTE   W06
 BYTE   W06
 BYTE   W01
 BYTE   En3
 BYTE   W04
 BYTE   W06
 BYTE   W06
 BYTE   W05
 BYTE   W03
// 025   ----------------------------------------
 BYTE   N92  Gs3
 BYTE   W03
 BYTE   W07
 BYTE   W03
 BYTE   W03
 BYTE   W03
 BYTE   W04
 BYTE   W03
 BYTE   W03
 BYTE   W03
 BYTE   W04
 BYTE   W03
 BYTE   W03
 BYTE   W03
 BYTE   W04
 BYTE   W03
 BYTE   W03
 BYTE   W03
 BYTE   W04
 BYTE   W03
 BYTE   W03
 BYTE   W04
 BYTE   W03
 BYTE   W03
 BYTE   W03
 BYTE   W04
 BYTE   W03
 BYTE   W03
 BYTE   W03
 BYTE   W02
// 026   ----------------------------------------
 BYTE   Fs3
 BYTE   W01
 BYTE   W03
 BYTE   W03
 BYTE   W03
 BYTE   W03
 BYTE   W03
 BYTE   W03
 BYTE   W03
 BYTE   W03
 BYTE   W02
 BYTE   W06
 BYTE   W06
 BYTE   W05
 BYTE   W06
 BYTE   W06
 BYTE   W05
 BYTE   W06
 BYTE   W06
 BYTE   W01
 BYTE   W02
 BYTE   W01
 BYTE   W02
 BYTE   W01
 BYTE   W02
 BYTE   W01
 BYTE   W02
 BYTE   W01
 BYTE   W02
 BYTE   W01
 BYTE   W02
 BYTE   W01
 BYTE   W02
 BYTE   W01
 BYTE   W01
// 027   ----------------------------------------
 BYTE   W01
 BYTE   W01
 BYTE   W92
 BYTE   W02
// 028   ----------------------------------------
 BYTE   W96
// 029   ----------------------------------------
 BYTE   W96
// 030   ----------------------------------------
 BYTE   W96
// 031   ----------------------------------------
 BYTE   W96
// 032   ----------------------------------------
 BYTE   W90
 BYTE   GoTo
  POIN2 Label_10_0101D196
// 033   ----------------------------------------
 BYTE   W05
 BYTE   FINE

//**************** Track 12 (Midi-Chn.11) ****************//

FE12LiberationGratedShtick_012:
// 000   ----------------------------------------
 BYTE   KEYSH   FE12LiberationGratedShtick_key+0
Label_11_0101D362:
 BYTE   VOICE   58
 BYTE   VOL   32*FE12LiberationGratedShtick_mvl/mxv
 BYTE   PAN   c_v+34
 BYTE   BEND   c_v+0
 BYTE   W96
// 001   ----------------------------------------
 BYTE   W96
// 002   ----------------------------------------
 BYTE   W96
// 003   ----------------------------------------
 BYTE   W96
// 004   ----------------------------------------
 BYTE   W96
// 005   ----------------------------------------
 BYTE   W96
// 006   ----------------------------------------
 BYTE   W96
// 007   ----------------------------------------
 BYTE   W96
// 008   ----------------------------------------
 BYTE   W96
// 009   ----------------------------------------
 BYTE   W96
// 010   ----------------------------------------
 BYTE   W96
// 011   ----------------------------------------
 BYTE   W96
// 012   ----------------------------------------
 BYTE   W96
// 013   ----------------------------------------
 BYTE   W96
// 014   ----------------------------------------
 BYTE   W96
// 015   ----------------------------------------
 BYTE   W96
// 016   ----------------------------------------
 BYTE   W12
 BYTE   N44  Ds4  v104
 BYTE   W03
 BYTE   W03
 BYTE   W03
 BYTE   W03
 BYTE   W03
 BYTE   W03
 BYTE   W03
 BYTE   W03
 BYTE   W03
 BYTE   W03
 BYTE   W03
 BYTE   W03
 BYTE   W03
 BYTE   W03
 BYTE   W03
 BYTE   W03
 BYTE   Cs4
 BYTE   W03
 BYTE   W03
 BYTE   W03
 BYTE   W03
 BYTE   W03
 BYTE   W03
 BYTE   W03
 BYTE   W03
 BYTE   W03
 BYTE   W03
 BYTE   W03
 BYTE   W03
// 017   ----------------------------------------
 BYTE   W03
 BYTE   W03
 BYTE   W03
 BYTE   W01
 BYTE   W02
 BYTE   En4
 BYTE   W01
 BYTE   W03
 BYTE   W03
 BYTE   W03
 BYTE   W03
 BYTE   W03
 BYTE   W03
 BYTE   W03
 BYTE   W03
 BYTE   W03
 BYTE   W03
 BYTE   W03
 BYTE   W03
 BYTE   W03
 BYTE   W03
 BYTE   W02
 BYTE   W03
 BYTE   Bn3
 BYTE   W03
 BYTE   W03
 BYTE   W03
 BYTE   W03
 BYTE   W03
 BYTE   W03
 BYTE   W03
 BYTE   W03
 BYTE   W03
 BYTE   W03
 BYTE   W03
 BYTE   W03
// 018   ----------------------------------------
 BYTE   W03
 BYTE   W03
 BYTE   W03
 BYTE   W03
 BYTE   N44
 BYTE   W03
 BYTE   W01
 BYTE   W03
 BYTE   W03
 BYTE   W03
 BYTE   W03
 BYTE   W03
 BYTE   W03
 BYTE   W03
 BYTE   W03
 BYTE   W03
 BYTE   W03
 BYTE   W03
 BYTE   W03
 BYTE   W03
 BYTE   W03
 BYTE   W02
 BYTE   An3
 BYTE   W01
 BYTE   W01
 BYTE   W03
 BYTE   W03
 BYTE   W03
 BYTE   W03
 BYTE   W03
 BYTE   W03
 BYTE   W03
 BYTE   W02
 BYTE   W03
 BYTE   W03
 BYTE   W03
 BYTE   W02
// 019   ----------------------------------------
 BYTE   W01
 BYTE   W03
 BYTE   W03
 BYTE   W03
 BYTE   W02
 BYTE   N68  Gs3
 BYTE   W03
 BYTE   W03
 BYTE   W03
 BYTE   W03
 BYTE   W03
 BYTE   W03
 BYTE   W03
 BYTE   W03
 BYTE   W03
 BYTE   W03
 BYTE   W03
 BYTE   W03
 BYTE   W03
 BYTE   W03
 BYTE   W03
 BYTE   W03
 BYTE   W03
 BYTE   W03
 BYTE   W03
 BYTE   W03
 BYTE   W03
 BYTE   W03
 BYTE   W01
 BYTE   W02
 BYTE   W01
 BYTE   W02
 BYTE   W01
 BYTE   W02
 BYTE   W01
 BYTE   N03  Fs3  v120
 BYTE   W02
 BYTE   W01
 BYTE   W01
 BYTE   Gs3
 BYTE   W01
 BYTE   W01
 BYTE   W02
// 020   ----------------------------------------
 BYTE   An3
 BYTE   W01
 BYTE   W02
 BYTE   W01
 BYTE   Bn3
 BYTE   W02
 BYTE   W01
 BYTE   W01
 BYTE   Cs4
 BYTE   W01
 BYTE   W01
 BYTE   W02
 BYTE   N44  Ds4  v104
 BYTE   W03
 BYTE   W03
 BYTE   W03
 BYTE   W03
 BYTE   W03
 BYTE   W03
 BYTE   W03
 BYTE   W03
 BYTE   W03
 BYTE   W03
 BYTE   W03
 BYTE   W03
 BYTE   W03
 BYTE   W03
 BYTE   W03
 BYTE   W03
 BYTE   Cs4
 BYTE   W07
 BYTE   W04
 BYTE   W03
 BYTE   W04
 BYTE   W04
 BYTE   W03
 BYTE   W04
 BYTE   W04
 BYTE   W03
// 021   ----------------------------------------
 BYTE   W01
 BYTE   W03
 BYTE   W04
 BYTE   W04
 BYTE   En4
 BYTE   W03
 BYTE   W04
 BYTE   W04
 BYTE   W03
 BYTE   W04
 BYTE   W04
 BYTE   W03
 BYTE   W04
 BYTE   W04
 BYTE   W04
 BYTE   W03
 BYTE   W04
 BYTE   W03
 BYTE   W01
 BYTE   Bn3
 BYTE   W02
 BYTE   W03
 BYTE   W03
 BYTE   W03
 BYTE   W03
 BYTE   W03
 BYTE   W03
 BYTE   W03
 BYTE   W03
 BYTE   W03
 BYTE   W03
 BYTE   W03
 BYTE   W01
// 022   ----------------------------------------
 BYTE   W02
 BYTE   W03
 BYTE   W03
 BYTE   W03
 BYTE   W01
 BYTE   N23
 BYTE   W01
 BYTE   W03
 BYTE   W03
 BYTE   W03
 BYTE   W03
 BYTE   W03
 BYTE   W03
 BYTE   W03
 BYTE   W02
 BYTE   An3
 BYTE   W01
 BYTE   W02
 BYTE   W03
 BYTE   W03
 BYTE   W03
 BYTE   W03
 BYTE   W03
 BYTE   W03
 BYTE   W03
 BYTE   N23
 BYTE   W03
 BYTE   W02
 BYTE   W01
 BYTE   W02
 BYTE   W01
 BYTE   W02
 BYTE   W01
 BYTE   W02
 BYTE   W01
 BYTE   W02
 BYTE   W01
 BYTE   W02
 BYTE   W01
 BYTE   W02
 BYTE   W01
 BYTE   Gs3
 BYTE   W01
 BYTE   W01
 BYTE   W02
 BYTE   W01
 BYTE   W02
 BYTE   W01
 BYTE   W02
 BYTE   W01
 BYTE   W01
// 023   ----------------------------------------
 BYTE   W01
 BYTE   W01
 BYTE   W02
 BYTE   W01
 BYTE   W02
 BYTE   W01
 BYTE   W02
 BYTE   W01
 BYTE   W01
 BYTE   N44  Fs3
 BYTE   W03
 BYTE   W03
 BYTE   W03
 BYTE   W03
 BYTE   W03
 BYTE   W03
 BYTE   W03
 BYTE   W03
 BYTE   W03
 BYTE   W03
 BYTE   W03
 BYTE   W03
 BYTE   W03
 BYTE   W03
 BYTE   W03
 BYTE   W03
 BYTE   En3
 BYTE   W01
 BYTE   W03
 BYTE   W03
 BYTE   W03
 BYTE   W03
 BYTE   W03
 BYTE   W03
 BYTE   W03
 BYTE   W03
 BYTE   W03
 BYTE   W03
 BYTE   W03
 BYTE   W02
// 024   ----------------------------------------
 BYTE   W01
 BYTE   W03
 BYTE   W03
 BYTE   W03
 BYTE   W02
 BYTE   N44
 BYTE   W01
 BYTE   W01
 BYTE   W03
 BYTE   W03
 BYTE   W03
 BYTE   W03
 BYTE   W03
 BYTE   W03
 BYTE   W03
 BYTE   W03
 BYTE   W03
 BYTE   W03
 BYTE   W03
 BYTE   W03
 BYTE   W03
 BYTE   W03
 BYTE   W03
 BYTE   W01
 BYTE   N23  Ds3
 BYTE   W02
 BYTE   W03
 BYTE   W01
 BYTE   W05
 BYTE   W06
 BYTE   W06
 BYTE   W01
 BYTE   En3
 BYTE   W04
 BYTE   W06
 BYTE   W02
// 025   ----------------------------------------
 BYTE   W04
 BYTE   W05
 BYTE   W03
 BYTE   N92  Gs3
 BYTE   W03
 BYTE   W07
 BYTE   W03
 BYTE   W03
 BYTE   W03
 BYTE   W04
 BYTE   W03
 BYTE   W03
 BYTE   W03
 BYTE   W04
 BYTE   W03
 BYTE   W03
 BYTE   W03
 BYTE   W04
 BYTE   W03
 BYTE   W03
 BYTE   W03
 BYTE   W04
 BYTE   W03
 BYTE   W03
 BYTE   W04
 BYTE   W03
 BYTE   W03
 BYTE   W03
 BYTE   W03
// 026   ----------------------------------------
 BYTE   W01
 BYTE   W03
 BYTE   W03
 BYTE   W03
 BYTE   W02
 BYTE   Fs3
 BYTE   W01
 BYTE   W03
 BYTE   W03
 BYTE   W03
 BYTE   W03
 BYTE   W03
 BYTE   W03
 BYTE   W03
 BYTE   W03
 BYTE   W02
 BYTE   W06
 BYTE   W06
 BYTE   W05
 BYTE   W06
 BYTE   W06
 BYTE   W05
 BYTE   W06
 BYTE   W06
 BYTE   W01
 BYTE   W02
 BYTE   W01
 BYTE   W02
 BYTE   W01
 BYTE   W02
 BYTE   W01
 BYTE   W01
// 027   ----------------------------------------
 BYTE   W01
 BYTE   W01
 BYTE   W02
 BYTE   W01
 BYTE   W02
 BYTE   W01
 BYTE   W02
 BYTE   W01
 BYTE   W02
 BYTE   W01
 BYTE   W80
 BYTE   W02
// 028   ----------------------------------------
 BYTE   W96
// 029   ----------------------------------------
 BYTE   W96
// 030   ----------------------------------------
 BYTE   W96
// 031   ----------------------------------------
 BYTE   W96
// 032   ----------------------------------------
 BYTE   W90
 BYTE   GoTo
  POIN2 Label_11_0101D362
// 033   ----------------------------------------
 BYTE   W05
 BYTE   FINE

//**************** Track 13 (Midi-Chn.12) ****************//

FE12LiberationGratedShtick_013:
// 000   ----------------------------------------
 BYTE   KEYSH   FE12LiberationGratedShtick_key+0
Label_12_0101D536:
 BYTE   VOICE   116
 BYTE   VOL   41*FE12LiberationGratedShtick_mvl/mxv
 BYTE   PAN   c_v+24
 BYTE   BEND   c_v+0
 BYTE   W96
// 001   ----------------------------------------
 BYTE   W96
// 002   ----------------------------------------
 BYTE   W96
// 003   ----------------------------------------
 BYTE   W96
// 004   ----------------------------------------
 BYTE   W96
// 005   ----------------------------------------
 BYTE   W96
// 006   ----------------------------------------
 BYTE   W96
// 007   ----------------------------------------
 BYTE   W30
 BYTE   W01
 BYTE   W01
 BYTE   W02
 BYTE   W01
 BYTE   W02
 BYTE   W01
 BYTE   W01
 BYTE   N02  Ds5  v127
 BYTE   W01
 BYTE   W01
 BYTE   W01
 BYTE   Fn5
 BYTE   W01
 BYTE   W01
 BYTE   W01
 BYTE   Ds5
 BYTE   W01
 BYTE   W01
 BYTE   W01
 BYTE   Fn5
 BYTE   W01
 BYTE   W01
 BYTE   W01
 BYTE   Ds5
 BYTE   W01
 BYTE   W01
 BYTE   W01
 BYTE   Fn5
 BYTE   W01
 BYTE   W01
 BYTE   W01
 BYTE   Ds5
 BYTE   W01
 BYTE   W01
 BYTE   W01
 BYTE   Fn5
 BYTE   W01
 BYTE   W01
 BYTE   W01
 BYTE   Ds5
 BYTE   W01
 BYTE   W01
 BYTE   W01
 BYTE   Fn5
 BYTE   W01
 BYTE   W01
 BYTE   W01
 BYTE   Ds5
 BYTE   W01
 BYTE   W01
 BYTE   W01
 BYTE   Fn5
 BYTE   W01
 BYTE   W01
 BYTE   W01
 BYTE   Ds5
 BYTE   W01
 BYTE   W01
 BYTE   W01
 BYTE   Fn5
 BYTE   W01
 BYTE   W01
 BYTE   W01
 BYTE   Ds5
 BYTE   W01
 BYTE   W01
 BYTE   W01
 BYTE   Fn5
 BYTE   W01
 BYTE   W01
 BYTE   W01
 BYTE   Ds5
 BYTE   W01
 BYTE   W01
 BYTE   W01
 BYTE   Fn5
 BYTE   W01
 BYTE   W01
 BYTE   W01
 BYTE   Ds5
 BYTE   W01
 BYTE   W01
 BYTE   W01
// 008   ----------------------------------------
 BYTE   N04  Fn5
 BYTE   W06
 BYTE   Fn5  v080
 BYTE   W06
 BYTE   Fn5  v060
 BYTE   W06
 BYTE   Fn5  v044
 BYTE   W78
// 009   ----------------------------------------
 BYTE   W96
// 010   ----------------------------------------
 BYTE   W96
// 011   ----------------------------------------
 BYTE   W96
// 012   ----------------------------------------
 BYTE   W96
// 013   ----------------------------------------
 BYTE   W96
// 014   ----------------------------------------
 BYTE   W96
// 015   ----------------------------------------
 BYTE   W96
// 016   ----------------------------------------
 BYTE   W96
// 017   ----------------------------------------
 BYTE   W13
 BYTE   W07
 BYTE   W07
 BYTE   W06
 BYTE   W07
 BYTE   W07
 BYTE   W07
 BYTE   W06
 BYTE   W07
 BYTE   W03
 BYTE   W02
 BYTE   N07  Fs3  v127
 BYTE   W01
 BYTE   W03
 BYTE   W03
 BYTE   W01
 BYTE   Bn3
 BYTE   W02
 BYTE   W03
 BYTE   W03
 BYTE   Ds4
 BYTE   W03
 BYTE   W03
 BYTE   W02
// 018   ----------------------------------------
 BYTE   N23  Fs4
 BYTE   W01
 BYTE   W01
 BYTE   W22
 BYTE   Cs4
 BYTE   W24
 BYTE   N32  Cs5
 BYTE   W02
 BYTE   W03
 BYTE   W03
 BYTE   W03
 BYTE   W03
 BYTE   W03
 BYTE   W03
 BYTE   W03
 BYTE   W03
 BYTE   W03
 BYTE   W03
 BYTE   W03
 BYTE   W01
 BYTE   N03  Bn4
 BYTE   W04
 BYTE   As4
 BYTE   W04
 BYTE   An4
 BYTE   W01
 BYTE   W03
// 019   ----------------------------------------
 BYTE   Gs4
 BYTE   W02
 BYTE   W01
 BYTE   An4
 BYTE   W03
 BYTE   N88  Gs4
 BYTE   W02
 BYTE   W03
 BYTE   W03
 BYTE   W03
 BYTE   W03
 BYTE   W03
 BYTE   W01
 BYTE   W03
 BYTE   W03
 BYTE   W03
 BYTE   W03
 BYTE   W03
 BYTE   W03
 BYTE   W03
 BYTE   W03
 BYTE   W03
 BYTE   W03
 BYTE   W03
 BYTE   W03
 BYTE   W03
 BYTE   W03
 BYTE   W03
 BYTE   W03
 BYTE   W03
 BYTE   W03
 BYTE   W03
 BYTE   W03
 BYTE   W03
 BYTE   W03
 BYTE   W03
 BYTE   W03
// 020   ----------------------------------------
 BYTE   W03
 BYTE   W03
 BYTE   W03
 BYTE   W03
 BYTE   W03
 BYTE   W03
 BYTE   W03
 BYTE   W03
 BYTE   W03
 BYTE   W03
 BYTE   W03
 BYTE   W03
 BYTE   W03
 BYTE   W03
 BYTE   W03
 BYTE   W01
 BYTE   W48
 BYTE   W02
// 021   ----------------------------------------
 BYTE   W96
// 022   ----------------------------------------
 BYTE   W96
// 023   ----------------------------------------
 BYTE   W42
 BYTE   W01
 BYTE   W01
 BYTE   W02
 BYTE   W01
 BYTE   W02
 BYTE   W01
 BYTE   W02
 BYTE   W01
 BYTE   W02
 BYTE   W01
 BYTE   W02
 BYTE   W01
 BYTE   W02
 BYTE   W01
 BYTE   W02
 BYTE   W01
 BYTE   W02
 BYTE   W01
 BYTE   W02
 BYTE   W01
 BYTE   W02
 BYTE   W01
 BYTE   W02
 BYTE   W01
 BYTE   W02
 BYTE   W01
 BYTE   W03
 BYTE   W01
 BYTE   N02  Fs3
 BYTE   W02
 BYTE   W01
 BYTE   Gn3
 BYTE   W02
 BYTE   W01
 BYTE   Gs3
 BYTE   W02
 BYTE   W01
 BYTE   An3
 BYTE   W02
 BYTE   W01
// 024   ----------------------------------------
 BYTE   N44  As3
 BYTE   W01
 BYTE   W03
 BYTE   W06
 BYTE   W03
 BYTE   W03
 BYTE   W03
 BYTE   W03
 BYTE   W03
 BYTE   W03
 BYTE   W04
 BYTE   W03
 BYTE   W03
 BYTE   W03
 BYTE   W03
 BYTE   W03
 BYTE   W01
 BYTE   Fs3
 BYTE   W02
 BYTE   W03
 BYTE   W03
 BYTE   W03
 BYTE   W03
 BYTE   W03
 BYTE   W04
 BYTE   W03
 BYTE   W03
 BYTE   W03
 BYTE   W03
 BYTE   W03
 BYTE   W03
 BYTE   W03
 BYTE   W03
 BYTE   W03
// 025   ----------------------------------------
 BYTE   N23  Bn3
 BYTE   W03
 BYTE   W03
 BYTE   W03
 BYTE   W03
 BYTE   W03
 BYTE   W03
 BYTE   W03
 BYTE   W03
 BYTE   Fs3
 BYTE   W03
 BYTE   W03
 BYTE   W03
 BYTE   W03
 BYTE   W03
 BYTE   W03
 BYTE   W03
 BYTE   W03
 BYTE   Bn3
 BYTE   W03
 BYTE   W03
 BYTE   W03
 BYTE   W03
 BYTE   W03
 BYTE   W03
 BYTE   W03
 BYTE   W03
 BYTE   En4
 BYTE   W03
 BYTE   W03
 BYTE   W03
 BYTE   W03
 BYTE   W03
 BYTE   W03
 BYTE   W03
 BYTE   W03
// 026   ----------------------------------------
 BYTE   N44  Ds4
 BYTE   W01
 BYTE   W01
 BYTE   W02
 BYTE   W01
 BYTE   W02
 BYTE   W01
 BYTE   W02
 BYTE   W01
 BYTE   W02
 BYTE   W01
 BYTE   W02
 BYTE   W01
 BYTE   W01
 BYTE   W03
 BYTE   W03
 BYTE   W03
 BYTE   W03
 BYTE   W03
 BYTE   W03
 BYTE   W03
 BYTE   W03
 BYTE   W03
 BYTE   W03
 BYTE   N02  Bn4
 BYTE   W02
 BYTE   W01
 BYTE   Ds5
 BYTE   W02
 BYTE   W01
 BYTE   Bn4
 BYTE   W02
 BYTE   W01
 BYTE   Bn4  v076
 BYTE   W02
 BYTE   W01
 BYTE   Fs4  v127
 BYTE   W02
 BYTE   W01
 BYTE   Fs4  v076
 BYTE   W02
 BYTE   W01
 BYTE   Ds4  v127
 BYTE   W02
 BYTE   W01
 BYTE   Ds4  v076
 BYTE   W02
 BYTE   W01
 BYTE   Fs4  v127
 BYTE   W02
 BYTE   W01
 BYTE   Bn4
 BYTE   W02
 BYTE   W01
 BYTE   Fs4
 BYTE   W02
 BYTE   W01
 BYTE   Fs4  v076
 BYTE   W02
 BYTE   W01
 BYTE   Ds4  v127
 BYTE   W02
 BYTE   W01
 BYTE   Ds4  v076
 BYTE   W02
 BYTE   W01
 BYTE   Bn3  v127
 BYTE   W02
 BYTE   W01
 BYTE   Bn3  v076
 BYTE   W02
 BYTE   W01
// 027   ----------------------------------------
 BYTE   W02
 BYTE   W02
 BYTE   W92
// 028   ----------------------------------------
 BYTE   W96
// 029   ----------------------------------------
 BYTE   W96
// 030   ----------------------------------------
 BYTE   W96
// 031   ----------------------------------------
 BYTE   W96
// 032   ----------------------------------------
 BYTE   W90
 BYTE   GoTo
  POIN2 Label_12_0101D536
// 033   ----------------------------------------
 BYTE   W05
 BYTE   FINE

//******************************************************//
	ALIGN 4

FE12LiberationGratedShtick:
	BYTE	13	// NumTrks
	BYTE	0	// NumBlks
	BYTE	FE12LiberationGratedShtick_pri	// Priority
	BYTE	FE12LiberationGratedShtick_rev	// Reverb.
    
	POIN2	FE12LiberationGratedShtick_grp
    
	POIN2	FE12LiberationGratedShtick_001
	POIN2	FE12LiberationGratedShtick_002
	POIN2	FE12LiberationGratedShtick_003
	POIN2	FE12LiberationGratedShtick_004
	POIN2	FE12LiberationGratedShtick_005
	POIN2	FE12LiberationGratedShtick_006
	POIN2	FE12LiberationGratedShtick_007
	POIN2	FE12LiberationGratedShtick_008
	POIN2	FE12LiberationGratedShtick_009
	POIN2	FE12LiberationGratedShtick_010
	POIN2	FE12LiberationGratedShtick_011
	POIN2	FE12LiberationGratedShtick_012
	POIN2	FE12LiberationGratedShtick_013

	
