//Event file generated from Sappy .s format.
	#include "MPlayDef.event"

	#define	FE12ExpeditionSwiftSaturn_grp  voicegroup000
	#define	FE12ExpeditionSwiftSaturn_pri  0
	#define	FE12ExpeditionSwiftSaturn_rev  0
	#define	FE12ExpeditionSwiftSaturn_mvl  127
	#define	FE12ExpeditionSwiftSaturn_key  0
	#define	FE12ExpeditionSwiftSaturn_tbs  1
	#define	FE12ExpeditionSwiftSaturn_exg  0
	#define	FE12ExpeditionSwiftSaturn_cmp  1

	// .rodata
	//	FE12ExpeditionSwiftSaturn
	ALIGN 4


//**************** Track 1 (Midi-Chn.0) ****************//

FE12ExpeditionSwiftSaturn_001:
// 000   ----------------------------------------
 BYTE   KEYSH   FE12ExpeditionSwiftSaturn_key+0
Label_0_017FF45A:
 BYTE   TEMPO   116*FE12ExpeditionSwiftSaturn_tbs/2
 BYTE   VOICE   0
 BYTE   VOL   110*FE12ExpeditionSwiftSaturn_mvl/mxv
 BYTE   PAN   c_v+10
 BYTE   N03  As1  v072
 BYTE   W01
 BYTE   W11
 BYTE   N05  As1  v076
 BYTE   W06
 BYTE   N06  Cn2  v068
 BYTE   W06
 BYTE   N03  Dn2  v084
 BYTE   W13
 BYTE   N05  Cn2  v072
 BYTE   W06
 BYTE   Dn2  v068
 BYTE   W06
 BYTE   N06  En2  v060
 BYTE   W06
 BYTE   N05  Fn2  v064
 BYTE   W06
 BYTE   En2  v052
 BYTE   W06
 BYTE   Dn2  v064
 BYTE   W06
 BYTE   Cn2  v068
 BYTE   W06
 BYTE   As1
 BYTE   W06
 BYTE   An1  v072
 BYTE   W06
 BYTE   Cn2  v060
 BYTE   W05
// 001   ----------------------------------------
Label_0_017FF493:
 BYTE   N03  As1  v076
 BYTE   W13
 BYTE   N05  Fn1  v072
 BYTE   W06
 BYTE   N06  Gn1  v056
 BYTE   W06
 BYTE   N03  An1  v076
 BYTE   W12
 BYTE   N05  En1  v072
 BYTE   W06
 BYTE   Fn1  v056
 BYTE   W06
 BYTE   N06  Gn1
 BYTE   W06
 BYTE   An1  v060
 BYTE   W06
 BYTE   N05  Gn1  v052
 BYTE   W06
 BYTE   Fn1  v060
 BYTE   W06
 BYTE   En1  v064
 BYTE   W06
 BYTE   Dn1  v068
 BYTE   W06
 BYTE   Cn1
 BYTE   W06
 BYTE   En1
 BYTE   W05
 BYTE   PEND 
// 002   ----------------------------------------
 BYTE   N03  Dn1  v072
 BYTE   W01
 BYTE   W11
 BYTE   N05  As1  v068
 BYTE   W06
 BYTE   N06  Cn2  v060
 BYTE   W06
 BYTE   N03  Dn2  v084
 BYTE   W13
 BYTE   N05  Cn2  v072
 BYTE   W06
 BYTE   Dn2  v068
 BYTE   W06
 BYTE   N06  En2  v060
 BYTE   W06
 BYTE   N05  Fn2  v064
 BYTE   W06
 BYTE   En2  v052
 BYTE   W06
 BYTE   Dn2  v064
 BYTE   W06
 BYTE   Cn2  v068
 BYTE   W06
 BYTE   As1
 BYTE   W06
 BYTE   An1  v072
 BYTE   W06
 BYTE   Cn2  v060
 BYTE   W05
 BYTE   PATT
  POIN2 Label_0_017FF493
// 003   ----------------------------------------
Label_0_017FF4F8:
 BYTE   N03  Dn1  v072
 BYTE   W12
 BYTE   N05  Dn1  v088
 BYTE   W06
 BYTE   N06  En1  v068
 BYTE   W06
 BYTE   N03  Fn1  v084
 BYTE   W13
 BYTE   N05  En1  v072
 BYTE   W06
 BYTE   Fn1  v068
 BYTE   W06
 BYTE   N06  Gn1  v060
 BYTE   W12
 BYTE   N05  Fn1  v052
 BYTE   W06
 BYTE   Gn1  v064
 BYTE   W06
 BYTE   An1  v068
 BYTE   W12
 BYTE   An1  v072
 BYTE   W06
 BYTE   Dn2  v076
 BYTE   W05
 BYTE   PEND 
// 004   ----------------------------------------
Label_0_017FF524:
 BYTE   N03  Dn2  v076
 BYTE   W13
 BYTE   N05  Fn2  v072
 BYTE   W06
 BYTE   N06  En2  v056
 BYTE   W06
 BYTE   N03  Dn2  v076
 BYTE   W12
 BYTE   N05  An1  v072
 BYTE   W06
 BYTE   Gn1  v056
 BYTE   W06
 BYTE   N06  An1
 BYTE   W12
 BYTE   N05  An1  v060
 BYTE   W06
 BYTE   Cn2
 BYTE   W06
 BYTE   Dn2  v064
 BYTE   W06
 BYTE   Cn2  v068
 BYTE   W06
 BYTE   As1
 BYTE   W06
 BYTE   N04  An1
 BYTE   W05
 BYTE   PEND 
// 005   ----------------------------------------
 BYTE   N03  Gs1  v072
 BYTE   W12
 BYTE   N05  Gs1  v076
 BYTE   W06
 BYTE   N06  As1  v068
 BYTE   W06
 BYTE   N03  Cn2  v084
 BYTE   W13
 BYTE   N05  As1  v080
 BYTE   W06
 BYTE   Cn2  v072
 BYTE   W06
 BYTE   N06  Dn2  v064
 BYTE   W12
 BYTE   N05  Cn2  v080
 BYTE   W06
 BYTE   Dn2  v084
 BYTE   W06
 BYTE   Ds2
 BYTE   W12
 BYTE   Dn2  v096
 BYTE   W06
 BYTE   Ds2  v080
 BYTE   W05
// 006   ----------------------------------------
 BYTE   N03  Fn2  v092
 BYTE   W13
 BYTE   N05  Ds2  v096
 BYTE   W06
 BYTE   N06  Fn2  v080
 BYTE   W06
 BYTE   N03  Gn2  v100
 BYTE   W12
 BYTE   N05  Fn2  v096
 BYTE   W06
 BYTE   Gn2  v080
 BYTE   W06
 BYTE   N04  Gs2
 BYTE   W12
 BYTE   N06  As2  v088
 BYTE   W06
 BYTE   N05  Gs2  v064
 BYTE   W06
 BYTE   Gn2  v076
 BYTE   W06
 BYTE   Fn2  v080
 BYTE   W06
 BYTE   Ds2
 BYTE   W06
 BYTE   Dn2
 BYTE   W05
// 007   ----------------------------------------
 BYTE   N03  Cn2  v072
 BYTE   W12
 BYTE   N05  Gs1  v080
 BYTE   W06
 BYTE   N06  As1  v068
 BYTE   W06
 BYTE   N03  Cn2  v084
 BYTE   W13
 BYTE   N05  Fn1  v096
 BYTE   W06
 BYTE   Gn1  v084
 BYTE   W06
 BYTE   N06  Gs1  v076
 BYTE   W12
 BYTE   N05  Gn1  v084
 BYTE   W06
 BYTE   Gs1  v064
 BYTE   W06
 BYTE   As1  v088
 BYTE   W06
 BYTE   Cn2  v076
 BYTE   W06
 BYTE   Dn2
 BYTE   W06
 BYTE   N04  Ds2
 BYTE   W05
// 008   ----------------------------------------
 BYTE   N03  Fn2
 BYTE   W13
 BYTE   N05  Ds2  v072
 BYTE   W06
 BYTE   N06  Fn2  v056
 BYTE   W06
 BYTE   N03  Gn2  v076
 BYTE   W12
 BYTE   N05  Fn2  v072
 BYTE   W06
 BYTE   Gn2  v056
 BYTE   W06
 BYTE   Gs2
 BYTE   W06
 BYTE   Gn2  v068
 BYTE   W06
 BYTE   Fn2
 BYTE   W06
 BYTE   N04  Ds2
 BYTE   W06
 BYTE   N05  Dn2  v064
 BYTE   W06
 BYTE   Cn2  v068
 BYTE   W06
 BYTE   As1
 BYTE   W06
 BYTE   N04  Gs1
 BYTE   W05
// 009   ----------------------------------------
 BYTE   N03  Gn1  v072
 BYTE   W12
 BYTE   N05  As1  v088
 BYTE   W06
 BYTE   N06  Cn2  v068
 BYTE   W06
 BYTE   N03  Dn2  v084
 BYTE   W13
 BYTE   N05  Cn2  v072
 BYTE   W06
 BYTE   Dn2  v068
 BYTE   W06
 BYTE   N06  En2  v060
 BYTE   W06
 BYTE   N05  Fn2  v064
 BYTE   W06
 BYTE   En2  v052
 BYTE   W06
 BYTE   Dn2  v064
 BYTE   W06
 BYTE   Cn2  v068
 BYTE   W06
 BYTE   As1
 BYTE   W06
 BYTE   An1  v072
 BYTE   W06
 BYTE   Cn2  v060
 BYTE   W05
 BYTE   PATT
  POIN2 Label_0_017FF493
// 010   ----------------------------------------
 BYTE   N03  Dn1  v072
 BYTE   W12
 BYTE   N05  Dn1  v088
 BYTE   W06
 BYTE   N06  En1  v068
 BYTE   W06
 BYTE   N03  Fn1  v084
 BYTE   W13
 BYTE   N05  Fn1  v072
 BYTE   W06
 BYTE   Gn1  v068
 BYTE   W06
 BYTE   N06  An1  v060
 BYTE   W12
 BYTE   N05  As1  v084
 BYTE   W06
 BYTE   Cn2  v064
 BYTE   W06
 BYTE   Dn2  v068
 BYTE   W12
 BYTE   Dn2  v076
 BYTE   W06
 BYTE   En2
 BYTE   W05
// 011   ----------------------------------------
 BYTE   N03  Fn2
 BYTE   W13
 BYTE   N05  An2  v072
 BYTE   W06
 BYTE   N06  Gn2  v056
 BYTE   W06
 BYTE   N03  Fn2  v076
 BYTE   W12
 BYTE   N05  Gn2  v072
 BYTE   W06
 BYTE   Fn2  v056
 BYTE   W06
 BYTE   N06  En2
 BYTE   W12
 BYTE   N05  Fn2  v060
 BYTE   W06
 BYTE   En2
 BYTE   W06
 BYTE   Dn2  v064
 BYTE   W06
 BYTE   Cn2  v068
 BYTE   W06
 BYTE   As1
 BYTE   W06
 BYTE   N04  Gn1
 BYTE   W05
// 012   ----------------------------------------
 BYTE   N03  Gs1  v072
 BYTE   W12
 BYTE   N05  Fn1  v076
 BYTE   W06
 BYTE   N06  Gn1  v068
 BYTE   W06
 BYTE   N03  Gs1  v084
 BYTE   W13
 BYTE   N05  Gs1  v080
 BYTE   W06
 BYTE   As1  v072
 BYTE   W06
 BYTE   N06  Cn2  v064
 BYTE   W12
 BYTE   N05  As1  v080
 BYTE   W06
 BYTE   Cn2  v084
 BYTE   W06
 BYTE   Dn2
 BYTE   W12
 BYTE   Dn2  v096
 BYTE   W06
 BYTE   Ds2  v080
 BYTE   W05
// 013   ----------------------------------------
 BYTE   N03  Fn2  v092
 BYTE   W13
 BYTE   N05  Cn3  v096
 BYTE   W06
 BYTE   N06  As2  v080
 BYTE   W06
 BYTE   N03  Gs2  v100
 BYTE   W12
 BYTE   N05  Gn2  v096
 BYTE   W06
 BYTE   Fn2  v080
 BYTE   W06
 BYTE   N04  Ds2
 BYTE   W12
 BYTE   N06  Dn2  v088
 BYTE   W06
 BYTE   N05  Cn2  v064
 BYTE   W06
 BYTE   N06  As1  v076
 BYTE   W06
 BYTE   N05  Cn2  v080
 BYTE   W06
 BYTE   Dn2
 BYTE   W06
 BYTE   N05
 BYTE   W05
// 014   ----------------------------------------
 BYTE   N03  Gs1
 BYTE   W03
 BYTE   W01
 BYTE   W01
 BYTE   W01
 BYTE   N05  Cn1  v088
 BYTE   W01
 BYTE   W01
 BYTE   W01
 BYTE   W01
 BYTE   W01
 BYTE   W01
 BYTE   Ds1  v076
 BYTE   W01
 BYTE   W05
 BYTE   N06  Fn1  v064
 BYTE   W06
 BYTE   N03  Gn1  v092
 BYTE   W02
 BYTE   W05
 BYTE   N05  Ds1  v104
 BYTE   W06
 BYTE   Fn1  v092
 BYTE   W03
 BYTE   W02
 BYTE   N06  Gn1  v064
 BYTE   W07
 BYTE   Gs1  v084
 BYTE   W06
 BYTE   N05  Gn1  v092
 BYTE   W04
 BYTE   W02
 BYTE   Gs1  v072
 BYTE   W06
 BYTE   As1
 BYTE   W01
 BYTE   W05
 BYTE   Cn2  v096
 BYTE   W04
 BYTE   W02
 BYTE   As1  v084
 BYTE   W03
 BYTE   W03
 BYTE   Cn2
 BYTE   W06
 BYTE   N04  Dn2
 BYTE   W05
// 015   ----------------------------------------
 BYTE   N03  Ds2  v080
 BYTE   W06
 BYTE   N05  Dn2  v088
 BYTE   W03
 BYTE   W03
 BYTE   Ds2  v076
 BYTE   W01
 BYTE   W05
 BYTE   N06  Fn2  v064
 BYTE   W05
 BYTE   W01
 BYTE   N03  Gn2  v092
 BYTE   W03
 BYTE   W04
 BYTE   N05  Ds2  v104
 BYTE   W01
 BYTE   W05
 BYTE   Fn2  v092
 BYTE   W04
 BYTE   W01
 BYTE   N06  Gn2  v064
 BYTE   W04
 BYTE   W03
 BYTE   Gs2  v084
 BYTE   W01
 BYTE   W05
 BYTE   N05  Gn2  v092
 BYTE   W05
 BYTE   W01
 BYTE   Gs2  v072
 BYTE   W03
 BYTE   W03
 BYTE   As2  v064
 BYTE   W02
 BYTE   W04
 BYTE   Cn3  v088
 BYTE   W05
 BYTE   W01
 BYTE   Dn3  v076
 BYTE   W04
 BYTE   W02
 BYTE   Ds3
 BYTE   W02
 BYTE   W04
 BYTE   N04  Fn3
 BYTE   W01
 BYTE   W04
// 016   ----------------------------------------
 BYTE   N09  Gn3
 BYTE   W01
 BYTE   W11
 BYTE   N05  As1
 BYTE   W06
 BYTE   N06  Cn2  v068
 BYTE   W06
 BYTE   N03  Dn2  v084
 BYTE   W13
 BYTE   N05  Cn2  v072
 BYTE   W06
 BYTE   Dn2  v068
 BYTE   W06
 BYTE   N06  En2  v060
 BYTE   W06
 BYTE   N05  Fn2  v064
 BYTE   W06
 BYTE   En2  v052
 BYTE   W06
 BYTE   Dn2  v064
 BYTE   W06
 BYTE   Cn2  v068
 BYTE   W06
 BYTE   As1
 BYTE   W06
 BYTE   An1  v072
 BYTE   W06
 BYTE   Cn2  v060
 BYTE   W05
 BYTE   PATT
  POIN2 Label_0_017FF493
 BYTE   PATT
  POIN2 Label_0_017FF4F8
 BYTE   PATT
  POIN2 Label_0_017FF524
// 017   ----------------------------------------
 BYTE   W96
// 018   ----------------------------------------
 BYTE   W96
// 019   ----------------------------------------
 BYTE   W01
 BYTE   W11
 BYTE   N05  As1  v076
 BYTE   W06
 BYTE   N06  Cn2  v068
 BYTE   W06
 BYTE   N03  Dn2  v084
 BYTE   W13
 BYTE   N05  Cn2  v072
 BYTE   W06
 BYTE   Dn2  v068
 BYTE   W06
 BYTE   N06  En2  v060
 BYTE   W06
 BYTE   N05  Fn2  v064
 BYTE   W06
 BYTE   En2  v052
 BYTE   W06
 BYTE   Dn2  v064
 BYTE   W06
 BYTE   Cn2  v068
 BYTE   W06
 BYTE   As1
 BYTE   W06
 BYTE   An1  v072
 BYTE   W06
 BYTE   Cn2  v060
 BYTE   W05
 BYTE   PATT
  POIN2 Label_0_017FF493
// 020   ----------------------------------------
 BYTE   W01
 BYTE   N06  En1  v068
 BYTE   W92
 BYTE   W03
// 021   ----------------------------------------
 BYTE   W96
// 022   ----------------------------------------
 BYTE   W01
 BYTE   W11
 BYTE   N05  Dn2  v072
 BYTE   W06
 BYTE   N06  Fn2  v060
 BYTE   W06
 BYTE   N03  Gn2  v076
 BYTE   W13
 BYTE   N05  Fn2  v068
 BYTE   W06
 BYTE   Gn2  v064
 BYTE   W06
 BYTE   N06  An2  v052
 BYTE   W06
 BYTE   N05  As2  v060
 BYTE   W06
 BYTE   An2  v044
 BYTE   W06
 BYTE   Gn2  v060
 BYTE   W06
 BYTE   Fn2  v064
 BYTE   W06
 BYTE   En2  v060
 BYTE   W06
 BYTE   Dn2  v068
 BYTE   W06
 BYTE   Fn2  v056
 BYTE   W05
// 023   ----------------------------------------
 BYTE   N03  En2  v072
 BYTE   W13
 BYTE   N05  As1  v068
 BYTE   W06
 BYTE   N06  Cn2  v052
 BYTE   W06
 BYTE   N03  Dn2  v072
 BYTE   W12
 BYTE   N05  Cn2  v068
 BYTE   W06
 BYTE   Dn2  v052
 BYTE   W06
 BYTE   N06  En2
 BYTE   W06
 BYTE   Fn2  v056
 BYTE   W06
 BYTE   N05  En2  v048
 BYTE   W06
 BYTE   Dn2  v056
 BYTE   W06
 BYTE   Cn2  v060
 BYTE   W06
 BYTE   As1  v064
 BYTE   W06
 BYTE   An1  v060
 BYTE   W06
 BYTE   Cn2
 BYTE   W05
// 024   ----------------------------------------
 BYTE   W01
 BYTE   Dn1  v104
 BYTE   W06
 BYTE   An0  v088
 BYTE   W06
 BYTE   As0  v076
 BYTE   W06
 BYTE   Cn1  v084
 BYTE   W05
 BYTE   W01
 BYTE   Dn1  v088
 BYTE   W06
 BYTE   Cn1  v092
 BYTE   W05
 BYTE   N06  Dn1  v080
 BYTE   W07
 BYTE   N05  En1  v096
 BYTE   W04
 BYTE   W02
 BYTE   Fn1  v088
 BYTE   W05
 BYTE   Dn1  v076
 BYTE   W06
 BYTE   En1  v084
 BYTE   W02
 BYTE   W04
 BYTE   Fn1  v080
 BYTE   W06
 BYTE   Gn1
 BYTE   W05
 BYTE   W01
 BYTE   N06  Fn1  v064
 BYTE   W06
 BYTE   Gn1  v084
 BYTE   W06
 BYTE   N05  An1
 BYTE   W03
 BYTE   W03
// 025   ----------------------------------------
 BYTE   As1  v076
 BYTE   W04
 BYTE   W02
 BYTE   N04  Gn1  v092
 BYTE   W06
 BYTE   N06  An1  v080
 BYTE   W06
 BYTE   N05  As1  v088
 BYTE   W06
 BYTE   Cn2
 BYTE   W03
 BYTE   W03
 BYTE   N06  As1  v072
 BYTE   W05
 BYTE   W01
 BYTE   N05  Cn2  v084
 BYTE   W06
 BYTE   Dn2  v080
 BYTE   W01
 BYTE   W05
 BYTE   En2  v084
 BYTE   W02
 BYTE   W03
 BYTE   N06  Dn2  v072
 BYTE   W05
 BYTE   W02
 BYTE   En2  v084
 BYTE   W06
 BYTE   N05  Fn2
 BYTE   W06
 BYTE   Gn2  v080
 BYTE   W02
 BYTE   W04
 BYTE   An2  v092
 BYTE   W03
 BYTE   W03
 BYTE   As2  v096
 BYTE   W05
 BYTE   N06  An2
 BYTE   W07
// 026   ----------------------------------------
 BYTE   N04  As2  v116
 BYTE   W01
 BYTE   W03
 BYTE   W02
 BYTE   GoTo
  POIN2 Label_0_017FF45A
// 027   ----------------------------------------
 BYTE   W01
 BYTE   W01
 BYTE   W04
 BYTE   N05  As1  v076
 BYTE   W06
 BYTE   N06  Cn2  v068
 BYTE   W06
 BYTE   N03  Dn2  v084
 BYTE   W13
 BYTE   N05  Cn2  v072
 BYTE   W06
 BYTE   Dn2  v068
 BYTE   W06
 BYTE   N06  En2  v060
 BYTE   W06
 BYTE   N05  Fn2  v064
 BYTE   W06
 BYTE   En2  v052
 BYTE   W06
 BYTE   Dn2  v064
 BYTE   W06
 BYTE   Cn2  v068
 BYTE   W06
 BYTE   As1
 BYTE   W06
 BYTE   An1  v072
 BYTE   W06
 BYTE   Cn2  v060
 BYTE   W05
 BYTE   PATT
  POIN2 Label_0_017FF493
 BYTE   FINE

//**************** Track 2 (Midi-Chn.1) ****************//

FE12ExpeditionSwiftSaturn_002:
// 000   ----------------------------------------
 BYTE   KEYSH   FE12ExpeditionSwiftSaturn_key+0
Label_1_017FF8FA:
 BYTE   VOICE   122
 BYTE   VOL   69*FE12ExpeditionSwiftSaturn_mvl/mxv
 BYTE   PAN   c_v+2
 BYTE   N04  Fn1  v080
 BYTE   W01
 BYTE   W11
 BYTE   N05
 BYTE   W06
 BYTE   N06  Gn1  v076
 BYTE   W07
 BYTE   N03  An1  v088
 BYTE   W12
 BYTE   N05  Gn1  v076
 BYTE   W06
 BYTE   An1  v060
 BYTE   W06
 BYTE   N06  As1
 BYTE   W06
 BYTE   N05  Cn2  v064
 BYTE   W06
 BYTE   As1  v060
 BYTE   W06
 BYTE   N06  An1  v064
 BYTE   W06
 BYTE   N05  Gn1  v072
 BYTE   W06
 BYTE   Fn1  v060
 BYTE   W06
 BYTE   En1  v072
 BYTE   W06
 BYTE   Gn1  v064
 BYTE   W05
// 001   ----------------------------------------
Label_1_017FF931:
 BYTE   W01
 BYTE   N03  Fn1  v080
 BYTE   W13
 BYTE   N05  Dn1  v068
 BYTE   W05
 BYTE   N06  En1  v060
 BYTE   W07
 BYTE   N03  Fn1  v080
 BYTE   W12
 BYTE   N05  Cn1  v072
 BYTE   W06
 BYTE   Dn1  v052
 BYTE   W05
 BYTE   En1  v056
 BYTE   W06
 BYTE   Fn1  v072
 BYTE   W06
 BYTE   En1  v052
 BYTE   W06
 BYTE   N06  Dn1  v056
 BYTE   W06
 BYTE   N05  Cn1  v072
 BYTE   W06
 BYTE   As0  v068
 BYTE   W06
 BYTE   An0
 BYTE   W06
 BYTE   Cn1
 BYTE   W05
 BYTE   PEND 
// 002   ----------------------------------------
 BYTE   W96
// 003   ----------------------------------------
 BYTE   W96
// 004   ----------------------------------------
 BYTE   W96
// 005   ----------------------------------------
 BYTE   W96
// 006   ----------------------------------------
 BYTE   W96
// 007   ----------------------------------------
 BYTE   W96
// 008   ----------------------------------------
 BYTE   W96
// 009   ----------------------------------------
 BYTE   W96
// 010   ----------------------------------------
 BYTE   W01
 BYTE   VOL   56*FE12ExpeditionSwiftSaturn_mvl/mxv
 BYTE   PAN   c_v+30
 BYTE   W24
 BYTE   W03
 BYTE   N06  Gn3  v100
 BYTE   W23
 BYTE   W02
 BYTE   N66  Dn3  v112
 BYTE   W01
 BYTE   W01
 BYTE   W02
 BYTE   W24
 BYTE   W03
 BYTE   W12
// 011   ----------------------------------------
 BYTE   W02
 BYTE   W03
 BYTE   W03
 BYTE   W01
 BYTE   W02
 BYTE   W01
 BYTE   W02
 BYTE   W01
 BYTE   W02
 BYTE   W01
 BYTE   W01
 BYTE   W01
 BYTE   W01
 BYTE   W01
 BYTE   W01
 BYTE   W01
 BYTE   W05
 BYTE   N21  Fn3  v104
 BYTE   W06
 BYTE   W05
 BYTE   W05
 BYTE   W06
 BYTE   W01
 BYTE   N20  En3  v108
 BYTE   W04
 BYTE   W05
 BYTE   W06
 BYTE   W05
 BYTE   W03
 BYTE   Cn3  v100
 BYTE   W03
 BYTE   W05
 BYTE   W05
 BYTE   W06
 BYTE   W02
// 012   ----------------------------------------
 BYTE   W01
 BYTE   W02
 BYTE   N44  Dn3  v104
 BYTE   W01
 BYTE   W03
 BYTE   W01
 BYTE   W15
 BYTE   W08
 BYTE   W07
 BYTE   W08
 BYTE   W02
 BYTE   W01
 BYTE   W02
 BYTE   W01
 BYTE   W01
 BYTE   N28  Gn3
 BYTE   W01
 BYTE   W01
 BYTE   W01
 BYTE   W02
 BYTE   W01
 BYTE   W02
 BYTE   W01
 BYTE   W02
 BYTE   W01
 BYTE   W02
 BYTE   W01
 BYTE   W02
 BYTE   W01
 BYTE   W02
 BYTE   W01
 BYTE   W02
 BYTE   W01
 BYTE   W02
 BYTE   W01
 BYTE   W02
 BYTE   W01
 BYTE   W01
 BYTE   W01
 BYTE   W01
 BYTE   W01
 BYTE   W01
 BYTE   W01
 BYTE   W01
 BYTE   W01
 BYTE   W01
 BYTE   W01
 BYTE   W01
 BYTE   W01
 BYTE   W01
// 013   ----------------------------------------
 BYTE   W01
 BYTE   W01
 BYTE   W01
 BYTE   W01
 BYTE   W01
 BYTE   W01
 BYTE   W01
 BYTE   W01
 BYTE   W01
 BYTE   W05
 BYTE   W05
 BYTE   W05
 BYTE   W05
 BYTE   W05
 BYTE   W05
 BYTE   W05
 BYTE   W05
 BYTE   W01
 BYTE   W02
 BYTE   W01
 BYTE   W02
 BYTE   W04
 BYTE   W04
 BYTE   W04
 BYTE   W04
 BYTE   W05
 BYTE   W04
 BYTE   W04
 BYTE   W04
 BYTE   W04
 BYTE   W04
// 014   ----------------------------------------
 BYTE   W01
 BYTE   W03
 BYTE   W03
 BYTE   W03
 BYTE   W03
 BYTE   W03
 BYTE   W01
 BYTE   W03
 BYTE   W03
 BYTE   W03
 BYTE   W03
 BYTE   W03
 BYTE   W03
 BYTE   W01
 BYTE   W05
 BYTE   N01  Gs3  v124
 BYTE   W05
 BYTE   Gs3  v108
 BYTE   W04
 BYTE   N90  Gs3  v096
 BYTE   W03
 BYTE   W01
 BYTE   W02
 BYTE   W01
 BYTE   W02
 BYTE   W01
 BYTE   W01
 BYTE   W07
 BYTE   W06
 BYTE   W05
 BYTE   W04
 BYTE   W05
 BYTE   W03
 BYTE   W03
 BYTE   W02
// 015   ----------------------------------------
 BYTE   W01
 BYTE   W03
 BYTE   W01
 BYTE   W03
 BYTE   W02
 BYTE   W03
 BYTE   W01
 BYTE   W02
 BYTE   W01
 BYTE   W02
 BYTE   W01
 BYTE   W02
 BYTE   W01
 BYTE   W02
 BYTE   W01
 BYTE   W02
 BYTE   W01
 BYTE   W02
 BYTE   W01
 BYTE   W02
 BYTE   W01
 BYTE   W02
 BYTE   W01
 BYTE   W02
 BYTE   W01
 BYTE   W02
 BYTE   W01
 BYTE   W02
 BYTE   W01
 BYTE   W02
 BYTE   W01
 BYTE   W01
 BYTE   W01
 BYTE   N44  Cn3  v108
 BYTE   W02
 BYTE   W01
 BYTE   W02
 BYTE   W01
 BYTE   W08
 BYTE   W04
 BYTE   W04
 BYTE   W03
 BYTE   W04
 BYTE   W04
 BYTE   W04
 BYTE   W04
 BYTE   W03
// 016   ----------------------------------------
 BYTE   W01
 BYTE   W04
 BYTE   Gn3
 BYTE   W02
 BYTE   W03
 BYTE   W03
 BYTE   W03
 BYTE   W03
 BYTE   W03
 BYTE   W03
 BYTE   W03
 BYTE   W03
 BYTE   W03
 BYTE   W03
 BYTE   W03
 BYTE   W07
 BYTE   W04
 BYTE   W02
 BYTE   N42  Fn3  v104
 BYTE   W01
 BYTE   W04
 BYTE   W03
 BYTE   W03
 BYTE   W04
 BYTE   W03
 BYTE   W04
 BYTE   W03
 BYTE   W03
 BYTE   W03
 BYTE   W03
 BYTE   W03
 BYTE   W03
 BYTE   W02
 BYTE   W01
// 017   ----------------------------------------
 BYTE   W02
 BYTE   W01
 BYTE   N48  Cn4  v096
 BYTE   W02
 BYTE   W01
 BYTE   W02
 BYTE   W01
 BYTE   W02
 BYTE   W01
 BYTE   W02
 BYTE   W01
 BYTE   W02
 BYTE   W01
 BYTE   W02
 BYTE   W01
 BYTE   W02
 BYTE   W01
 BYTE   W02
 BYTE   W01
 BYTE   W02
 BYTE   W01
 BYTE   W02
 BYTE   W01
 BYTE   W02
 BYTE   W01
 BYTE   W02
 BYTE   W01
 BYTE   W02
 BYTE   W01
 BYTE   W02
 BYTE   W01
 BYTE   W02
 BYTE   W01
 BYTE   W02
 BYTE   W01
 BYTE   W02
 BYTE   W01
 BYTE   W01
 BYTE   W40
 BYTE   W01
// 018   ----------------------------------------
 BYTE   W96
// 019   ----------------------------------------
 BYTE   W96
// 020   ----------------------------------------
 BYTE   W96
// 021   ----------------------------------------
 BYTE   W48
 BYTE   W01
 BYTE   VOL   62*FE12ExpeditionSwiftSaturn_mvl/mxv
 BYTE   PAN   c_v+20
 BYTE   W44
 BYTE   W03
// 022   ----------------------------------------
 BYTE   W24
 BYTE   W01
 BYTE   N04  Gn1  v092
 BYTE   W11
 BYTE   N03  As1  v096
 BYTE   W02
 BYTE   W09
 BYTE   W01
 BYTE   N23  Cn2  v088
 BYTE   W01
 BYTE   W01
 BYTE   W01
 BYTE   W01
 BYTE   W01
 BYTE   W02
 BYTE   W01
 BYTE   W02
 BYTE   W01
 BYTE   W02
 BYTE   W01
 BYTE   W02
 BYTE   W01
 BYTE   W02
 BYTE   W01
 BYTE   W02
 BYTE   W01
 BYTE   W02
 BYTE   W01
 BYTE   W02
 BYTE   W03
 BYTE   W03
 BYTE   W01
 BYTE   N12  Cn2  v116
 BYTE   W01
 BYTE   W01
 BYTE   W02
 BYTE   W02
 BYTE   W01
 BYTE   W02
 BYTE   W01
 BYTE   W02
 BYTE   N03  Gn1  v108
 BYTE   W01
// 023   ----------------------------------------
 BYTE   W11
 BYTE   Gn1  v112
 BYTE   W12
 BYTE   N24  En1  v124
 BYTE   W03
 BYTE   W01
 BYTE   W01
 BYTE   W03
 BYTE   W01
 BYTE   W02
 BYTE   W01
 BYTE   W02
 BYTE   W01
 BYTE   W02
 BYTE   W01
 BYTE   W02
 BYTE   W01
 BYTE   W02
 BYTE   W01
 BYTE   W02
 BYTE   W01
 BYTE   W10
 BYTE   N11  Gn1  v108
 BYTE   W11
 BYTE   N03  Dn1  v092
 BYTE   W12
 BYTE   Dn1  v104
 BYTE   W12
 BYTE   N05  Gn1
 BYTE   W01
// 024   ----------------------------------------
 BYTE   W01
 BYTE   VOL   69*FE12ExpeditionSwiftSaturn_mvl/mxv
 BYTE   PAN   c_v+2
 BYTE   W11
 BYTE   N05  Fn1  v080
 BYTE   W06
 BYTE   N06  Gn1  v076
 BYTE   W07
 BYTE   N03  An1  v088
 BYTE   W12
 BYTE   N05  Gn1  v076
 BYTE   W06
 BYTE   An1  v060
 BYTE   W06
 BYTE   N06  As1
 BYTE   W06
 BYTE   N05  Cn2  v064
 BYTE   W06
 BYTE   As1  v060
 BYTE   W06
 BYTE   N06  An1  v064
 BYTE   W06
 BYTE   N05  Gn1  v072
 BYTE   W06
 BYTE   Fn1  v060
 BYTE   W06
 BYTE   En1  v072
 BYTE   W06
 BYTE   Gn1  v064
 BYTE   W05
 BYTE   PATT
  POIN2 Label_1_017FF931
// 025   ----------------------------------------
 BYTE   W01
 BYTE   N05  Cn1  v068
 BYTE   W24
 BYTE   VOL   62*FE12ExpeditionSwiftSaturn_mvl/mxv
 BYTE   PAN   c_v+20
 BYTE   N04  Cn1  v092
 BYTE   W11
 BYTE   N03  En1  v096
 BYTE   W12
 BYTE   N23  Fn1  v088
 BYTE   W01
 BYTE   W01
 BYTE   W01
 BYTE   W01
 BYTE   W01
 BYTE   W01
 BYTE   W01
 BYTE   W01
 BYTE   W02
 BYTE   W01
 BYTE   W02
 BYTE   W01
 BYTE   W02
 BYTE   W01
 BYTE   W02
 BYTE   W01
 BYTE   W02
 BYTE   W01
 BYTE   W02
 BYTE   W01
 BYTE   W02
 BYTE   W01
 BYTE   W01
 BYTE   W03
 BYTE   W02
 BYTE   N13  Fn1  v116
 BYTE   W01
 BYTE   W01
 BYTE   W01
 BYTE   W02
 BYTE   W02
 BYTE   W01
 BYTE   W02
 BYTE   W01
 BYTE   W01
 BYTE   N03  En1  v112
 BYTE   W01
// 026   ----------------------------------------
 BYTE   W01
 BYTE   W01
 BYTE   W09
 BYTE   As0
 BYTE   W12
 BYTE   N24  Cn1  v120
 BYTE   W04
 BYTE   W01
 BYTE   W01
 BYTE   W03
 BYTE   W01
 BYTE   W02
 BYTE   W01
 BYTE   W02
 BYTE   W01
 BYTE   W02
 BYTE   W01
 BYTE   W02
 BYTE   W01
 BYTE   W02
 BYTE   W01
 BYTE   W02
 BYTE   W01
 BYTE   W09
 BYTE   N04  Gn1  v108
 BYTE   W11
 BYTE   N03  Gn1  v092
 BYTE   W12
 BYTE   Gn1  v104
 BYTE   W12
 BYTE   N05  Cn1  v096
 BYTE   W01
// 027   ----------------------------------------
 BYTE   W01
 BYTE   VOL   69*FE12ExpeditionSwiftSaturn_mvl/mxv
 BYTE   PAN   c_v+2
 BYTE   W11
 BYTE   N05  As1  v076
 BYTE   W06
 BYTE   N06  Cn2  v068
 BYTE   W07
 BYTE   N03  Dn2  v084
 BYTE   W12
 BYTE   N05  Cn2  v072
 BYTE   W06
 BYTE   Dn2  v052
 BYTE   W06
 BYTE   N06  En2  v056
 BYTE   W06
 BYTE   N05  Fn2  v060
 BYTE   W06
 BYTE   En2  v052
 BYTE   W06
 BYTE   N06  Dn2  v060
 BYTE   W06
 BYTE   N05  Cn2  v068
 BYTE   W06
 BYTE   As1  v052
 BYTE   W06
 BYTE   An1  v064
 BYTE   W06
 BYTE   Cn2  v056
 BYTE   W05
// 028   ----------------------------------------
 BYTE   W01
 BYTE   N03  As1  v076
 BYTE   W13
 BYTE   N05  Gn1  v064
 BYTE   W05
 BYTE   N06  An1  v052
 BYTE   W07
 BYTE   N03  As1  v072
 BYTE   W12
 BYTE   N05  Fn1  v068
 BYTE   W06
 BYTE   Gn1  v048
 BYTE   W05
 BYTE   An1  v052
 BYTE   W06
 BYTE   As1  v068
 BYTE   W06
 BYTE   An1  v044
 BYTE   W06
 BYTE   N06  Gn1  v052
 BYTE   W06
 BYTE   N05  Fn1  v068
 BYTE   W06
 BYTE   En1  v064
 BYTE   W06
 BYTE   Dn1
 BYTE   W06
 BYTE   Fn1  v060
 BYTE   W05
// 029   ----------------------------------------
 BYTE   W96
// 030   ----------------------------------------
 BYTE   W96
// 031   ----------------------------------------
 BYTE   W01
 BYTE   W05
 BYTE   GoTo
  POIN2 Label_1_017FF8FA
// 032   ----------------------------------------
 BYTE   W06
 BYTE   N05  Fn1  v080
 BYTE   W06
 BYTE   N06  Gn1  v076
 BYTE   W07
 BYTE   N03  An1  v088
 BYTE   W12
 BYTE   N05  Gn1  v076
 BYTE   W06
 BYTE   An1  v060
 BYTE   W06
 BYTE   N06  As1
 BYTE   W06
 BYTE   N05  Cn2  v064
 BYTE   W06
 BYTE   As1  v060
 BYTE   W06
 BYTE   N06  An1  v064
 BYTE   W06
 BYTE   N05  Gn1  v072
 BYTE   W06
 BYTE   Fn1  v060
 BYTE   W06
 BYTE   En1  v072
 BYTE   W06
 BYTE   Gn1  v064
 BYTE   W05
 BYTE   PATT
  POIN2 Label_1_017FF931
 BYTE   FINE

//**************** Track 3 (Midi-Chn.2) ****************//

FE12ExpeditionSwiftSaturn_003:
// 000   ----------------------------------------
 BYTE   KEYSH   FE12ExpeditionSwiftSaturn_key+0
Label_2_017FFC4E:
 BYTE   VOICE   69
 BYTE   VOL   74*FE12ExpeditionSwiftSaturn_mvl/mxv
 BYTE   PAN   c_v+0
 BYTE   N03  Dn2  v088
 BYTE   W01
 BYTE   W11
 BYTE   N05  Dn2  v092
 BYTE   W06
 BYTE   En2  v084
 BYTE   W06
 BYTE   N04  Fn2  v080
 BYTE   W13
 BYTE   En2  v084
 BYTE   W05
 BYTE   N05  Fn2  v072
 BYTE   W06
 BYTE   N06  Gn2  v080
 BYTE   W07
 BYTE   N05  An2  v072
 BYTE   W06
 BYTE   Gn2
 BYTE   W05
 BYTE   Fn2  v080
 BYTE   W06
 BYTE   En2  v076
 BYTE   W06
 BYTE   Dn2  v064
 BYTE   W06
 BYTE   Cn2  v080
 BYTE   W06
 BYTE   En2  v064
 BYTE   W06
// 001   ----------------------------------------
Label_2_017FFC84:
 BYTE   N03  Dn2  v080
 BYTE   W12
 BYTE   N05  As1  v084
 BYTE   W06
 BYTE   N06  Cn2  v072
 BYTE   W07
 BYTE   N03  Dn2  v084
 BYTE   W12
 BYTE   N05  An1
 BYTE   W06
 BYTE   As1  v068
 BYTE   W06
 BYTE   N06  Cn2  v080
 BYTE   W06
 BYTE   Dn2  v092
 BYTE   W06
 BYTE   N03  Cn2  v076
 BYTE   W05
 BYTE   N05  As1  v088
 BYTE   W06
 BYTE   An1  v084
 BYTE   W06
 BYTE   Gn1
 BYTE   W06
 BYTE   Fn1  v080
 BYTE   W06
 BYTE   An1  v076
 BYTE   W06
 BYTE   PEND 
// 002   ----------------------------------------
 BYTE   N03  Gn1  v088
 BYTE   W12
 BYTE   N05  Dn2  v084
 BYTE   W06
 BYTE   En2  v072
 BYTE   W06
 BYTE   N04  Fn2  v080
 BYTE   W13
 BYTE   En2  v084
 BYTE   W05
 BYTE   N05  Fn2  v072
 BYTE   W06
 BYTE   N06  Gn2  v076
 BYTE   W07
 BYTE   N05  An2  v072
 BYTE   W06
 BYTE   Gn2
 BYTE   W05
 BYTE   Fn2  v080
 BYTE   W06
 BYTE   En2  v076
 BYTE   W06
 BYTE   Dn2  v064
 BYTE   W06
 BYTE   Cn2  v080
 BYTE   W06
 BYTE   En2  v064
 BYTE   W06
// 003   ----------------------------------------
 BYTE   N03  Dn2  v080
 BYTE   W12
 BYTE   N05  As1  v084
 BYTE   W06
 BYTE   N06  Cn2  v072
 BYTE   W02
 BYTE   W05
 BYTE   N03  Dn2  v084
 BYTE   W12
 BYTE   N05  An1
 BYTE   W06
 BYTE   As1  v068
 BYTE   W06
 BYTE   N06  Cn2  v080
 BYTE   W06
 BYTE   Dn2  v092
 BYTE   W06
 BYTE   N03  Cn2  v076
 BYTE   W05
 BYTE   N05  As1  v088
 BYTE   W06
 BYTE   An1  v084
 BYTE   W06
 BYTE   Gn1
 BYTE   W06
 BYTE   Fn1  v080
 BYTE   W06
 BYTE   An1  v076
 BYTE   W06
// 004   ----------------------------------------
 BYTE   N03  Gn1  v088
 BYTE   W12
 BYTE   N05  Gn1  v104
 BYTE   W06
 BYTE   An1  v084
 BYTE   W06
 BYTE   N04  As1  v080
 BYTE   W13
 BYTE   An1  v084
 BYTE   W05
 BYTE   N05  As1  v072
 BYTE   W06
 BYTE   N06  Cn2  v076
 BYTE   W13
 BYTE   N05  As1  v072
 BYTE   W05
 BYTE   Cn2  v080
 BYTE   W06
 BYTE   Dn2  v076
 BYTE   W12
 BYTE   Dn2  v080
 BYTE   W06
 BYTE   An2  v064
 BYTE   W06
// 005   ----------------------------------------
 BYTE   N03  Gn2
 BYTE   W12
 BYTE   N05  As2  v068
 BYTE   W06
 BYTE   N06  An2  v056
 BYTE   W07
 BYTE   N03  Gn2  v072
 BYTE   W12
 BYTE   N05  Dn2  v084
 BYTE   W06
 BYTE   Cn2  v068
 BYTE   W06
 BYTE   N06  Dn2  v080
 BYTE   W12
 BYTE   N05  Dn2  v092
 BYTE   W05
 BYTE   En2  v088
 BYTE   W06
 BYTE   Fn2  v084
 BYTE   W06
 BYTE   En2
 BYTE   W06
 BYTE   Dn2  v080
 BYTE   W06
 BYTE   Cn2  v076
 BYTE   W06
// 006   ----------------------------------------
 BYTE   N03  Cn2  v088
 BYTE   W12
 BYTE   N05  Cn2  v092
 BYTE   W06
 BYTE   Dn2  v084
 BYTE   W06
 BYTE   N04  Ds2  v080
 BYTE   W13
 BYTE   Dn2  v084
 BYTE   W02
 BYTE   W03
 BYTE   N05  Ds2  v072
 BYTE   W06
 BYTE   N06  Fn2  v076
 BYTE   W13
 BYTE   N05  Ds2  v084
 BYTE   W05
 BYTE   Fn2  v080
 BYTE   W06
 BYTE   Gn2  v076
 BYTE   W12
 BYTE   Fn2  v088
 BYTE   W06
 BYTE   Gn2  v064
 BYTE   W06
// 007   ----------------------------------------
 BYTE   N03  Gs2  v080
 BYTE   W12
 BYTE   N05  Gn2  v084
 BYTE   W06
 BYTE   N06  Gs2  v072
 BYTE   W07
 BYTE   N03  As2  v084
 BYTE   W12
 BYTE   N05  Gs2
 BYTE   W06
 BYTE   As2  v064
 BYTE   W06
 BYTE   N03  Cn3  v076
 BYTE   W12
 BYTE   N06  Dn3  v072
 BYTE   W06
 BYTE   N05  Cn3
 BYTE   W05
 BYTE   As2  v080
 BYTE   W06
 BYTE   Gs2  v084
 BYTE   W06
 BYTE   Gn2  v080
 BYTE   W06
 BYTE   Fn2  v076
 BYTE   W06
// 008   ----------------------------------------
 BYTE   N03  Ds2  v088
 BYTE   W12
 BYTE   N05  Cn2  v100
 BYTE   W06
 BYTE   Dn2  v084
 BYTE   W06
 BYTE   N04  Ds2  v080
 BYTE   W13
 BYTE   Gs1  v108
 BYTE   W05
 BYTE   N05  As1  v088
 BYTE   W06
 BYTE   N06  Cn2  v092
 BYTE   W13
 BYTE   N05  As1  v104
 BYTE   W05
 BYTE   Cn2  v080
 BYTE   W06
 BYTE   Dn2  v092
 BYTE   W06
 BYTE   Ds2  v096
 BYTE   W06
 BYTE   Fn2  v092
 BYTE   W06
 BYTE   Gn2  v088
 BYTE   W06
// 009   ----------------------------------------
 BYTE   N03  Gs2  v080
 BYTE   W12
 BYTE   N05  Gn2  v084
 BYTE   W06
 BYTE   N06  Gs2  v072
 BYTE   W07
 BYTE   N03  As2  v084
 BYTE   W12
 BYTE   N05  Gs2
 BYTE   W06
 BYTE   As2  v068
 BYTE   W06
 BYTE   Cn3  v080
 BYTE   W05
 BYTE   As2  v084
 BYTE   W04
 BYTE   W02
 BYTE   Gs2  v080
 BYTE   W06
 BYTE   Gn2  v076
 BYTE   W06
 BYTE   Fn2  v084
 BYTE   W06
 BYTE   Ds2
 BYTE   W06
 BYTE   Dn2  v080
 BYTE   W06
 BYTE   Cn2  v076
 BYTE   W06
// 010   ----------------------------------------
 BYTE   N03  As1  v064
 BYTE   W12
 BYTE   N05  Dn2  v080
 BYTE   W06
 BYTE   En2  v084
 BYTE   W06
 BYTE   N04  Fn2  v080
 BYTE   W13
 BYTE   En2  v084
 BYTE   W05
 BYTE   N05  Fn2  v072
 BYTE   W06
 BYTE   N06  Gn2  v076
 BYTE   W07
 BYTE   N05  An2  v072
 BYTE   W06
 BYTE   Gn2
 BYTE   W05
 BYTE   Fn2  v080
 BYTE   W06
 BYTE   En2  v076
 BYTE   W06
 BYTE   Dn2  v064
 BYTE   W06
 BYTE   Cn2  v080
 BYTE   W06
 BYTE   En2  v064
 BYTE   W06
 BYTE   PATT
  POIN2 Label_2_017FFC84
// 011   ----------------------------------------
 BYTE   N03  Gn1  v088
 BYTE   W12
 BYTE   N05  Gn1  v104
 BYTE   W06
 BYTE   An1  v084
 BYTE   W06
 BYTE   N04  As1  v080
 BYTE   W13
 BYTE   As1  v084
 BYTE   W05
 BYTE   N05  Cn2  v072
 BYTE   W06
 BYTE   N06  Dn2  v076
 BYTE   W13
 BYTE   N05  Dn2  v088
 BYTE   W05
 BYTE   En2  v080
 BYTE   W06
 BYTE   Fn2  v076
 BYTE   W05
 BYTE   W07
 BYTE   Fn2  v084
 BYTE   W06
 BYTE   Gn2  v064
 BYTE   W06
// 012   ----------------------------------------
 BYTE   N03  An2
 BYTE   W12
 BYTE   N05  Cn3  v068
 BYTE   W06
 BYTE   N06  As2  v056
 BYTE   W07
 BYTE   N03  An2  v072
 BYTE   W12
 BYTE   N05  As2  v084
 BYTE   W06
 BYTE   An2  v068
 BYTE   W06
 BYTE   N06  Gn2  v080
 BYTE   W12
 BYTE   N05  An2  v092
 BYTE   W05
 BYTE   Gn2  v088
 BYTE   W06
 BYTE   Fn2  v084
 BYTE   W06
 BYTE   En2
 BYTE   W06
 BYTE   Dn2  v080
 BYTE   W06
 BYTE   Cn2  v076
 BYTE   W06
// 013   ----------------------------------------
 BYTE   N03  Cn2  v088
 BYTE   W12
 BYTE   N05  Gs1  v092
 BYTE   W06
 BYTE   As1  v084
 BYTE   W06
 BYTE   N04  Cn2  v080
 BYTE   W13
 BYTE   Cn2  v084
 BYTE   W05
 BYTE   N05  Dn2  v072
 BYTE   W06
 BYTE   N06  Ds2  v076
 BYTE   W13
 BYTE   N05  Dn2  v084
 BYTE   W05
 BYTE   Ds2  v080
 BYTE   W06
 BYTE   Fn2  v076
 BYTE   W12
 BYTE   Fn2  v088
 BYTE   W06
 BYTE   Gn2  v064
 BYTE   W06
// 014   ----------------------------------------
 BYTE   N03  Gs2  v080
 BYTE   W12
 BYTE   N05  Ds3  v084
 BYTE   W06
 BYTE   N06  Dn3  v072
 BYTE   W07
 BYTE   N03  Cn3  v084
 BYTE   W12
 BYTE   N05  As2
 BYTE   W06
 BYTE   Gs2  v064
 BYTE   W06
 BYTE   N03  Gn2  v076
 BYTE   W11
 BYTE   N06  Fn2  v072
 BYTE   W07
 BYTE   N05  Ds2
 BYTE   W05
 BYTE   Dn2  v080
 BYTE   W06
 BYTE   Ds2  v084
 BYTE   W06
 BYTE   Fn2  v080
 BYTE   W06
 BYTE   As1  v076
 BYTE   W06
// 015   ----------------------------------------
 BYTE   N03  Cn2  v096
 BYTE   W01
 BYTE   W01
 BYTE   W02
 BYTE   W01
 BYTE   W01
 BYTE   N05  Fn1  v108
 BYTE   W01
 BYTE   W01
 BYTE   W02
 BYTE   W01
 BYTE   W01
 BYTE   Gn1  v092
 BYTE   W01
 BYTE   W01
 BYTE   W04
 BYTE   Gs1  v080
 BYTE   W06
 BYTE   N04  As1  v096
 BYTE   W07
 BYTE   Gn1  v100
 BYTE   W04
 BYTE   W01
 BYTE   N05  Gs1  v096
 BYTE   W06
 BYTE   As1  v080
 BYTE   W06
 BYTE   N06  Cn2  v100
 BYTE   W02
 BYTE   W05
 BYTE   N05  As1  v112
 BYTE   W05
 BYTE   Cn2  v088
 BYTE   W04
 BYTE   W02
 BYTE   Dn2
 BYTE   W06
 BYTE   Ds2  v100
 BYTE   W06
 BYTE   Dn2  v104
 BYTE   W06
 BYTE   Ds2  v100
 BYTE   W01
 BYTE   W05
 BYTE   Fn2  v096
 BYTE   W06
// 016   ----------------------------------------
 BYTE   N03  Gn2
 BYTE   W04
 BYTE   W02
 BYTE   N05  Fn2  v108
 BYTE   W05
 BYTE   W01
 BYTE   Gn2  v092
 BYTE   W06
 BYTE   Gs2  v080
 BYTE   W06
 BYTE   N04  As2  v096
 BYTE   W01
 BYTE   W06
 BYTE   Gn2  v100
 BYTE   W01
 BYTE   W04
 BYTE   N05  Gs2  v096
 BYTE   W03
 BYTE   W03
 BYTE   As2  v080
 BYTE   W04
 BYTE   W02
 BYTE   N06  Cn3  v100
 BYTE   W06
 BYTE   W01
 BYTE   N05  As2  v112
 BYTE   W05
 BYTE   Cn3  v088
 BYTE   W01
 BYTE   W05
 BYTE   Dn3  v080
 BYTE   W02
 BYTE   W04
 BYTE   Ds3  v092
 BYTE   W03
 BYTE   W03
 BYTE   Fn3  v096
 BYTE   W04
 BYTE   W02
 BYTE   Gn3  v092
 BYTE   W05
 BYTE   W01
 BYTE   Gs3  v088
 BYTE   W06
// 017   ----------------------------------------
 BYTE   N04  As3  v048
 BYTE   W01
 BYTE   W11
 BYTE   N05  Dn2  v092
 BYTE   W06
 BYTE   En2  v084
 BYTE   W06
 BYTE   N04  Fn2  v080
 BYTE   W13
 BYTE   En2  v084
 BYTE   W05
 BYTE   N05  Fn2  v072
 BYTE   W06
 BYTE   N06  Gn2  v076
 BYTE   W07
 BYTE   N05  An2  v072
 BYTE   W06
 BYTE   Gn2
 BYTE   W05
 BYTE   Fn2  v080
 BYTE   W06
 BYTE   En2  v076
 BYTE   W06
 BYTE   Dn2  v064
 BYTE   W06
 BYTE   Cn2  v080
 BYTE   W06
 BYTE   En2  v064
 BYTE   W06
 BYTE   PATT
  POIN2 Label_2_017FFC84
// 018   ----------------------------------------
 BYTE   N03  Gn1  v088
 BYTE   W01
 BYTE   W11
 BYTE   N05  Gn1  v104
 BYTE   W06
 BYTE   An1  v084
 BYTE   W06
 BYTE   N04  As1  v080
 BYTE   W13
 BYTE   An1  v084
 BYTE   W05
 BYTE   N05  As1  v072
 BYTE   W06
 BYTE   N06  Cn2  v076
 BYTE   W13
 BYTE   N05  As1  v072
 BYTE   W05
 BYTE   Cn2  v080
 BYTE   W06
 BYTE   Dn2  v076
 BYTE   W12
 BYTE   Dn2  v080
 BYTE   W06
 BYTE   An2  v064
 BYTE   W06
// 019   ----------------------------------------
 BYTE   N03  Gn2
 BYTE   W12
 BYTE   N05  As2  v068
 BYTE   W06
 BYTE   N06  An2  v056
 BYTE   W07
 BYTE   N03  Gn2  v072
 BYTE   W12
 BYTE   N05  Dn2  v084
 BYTE   W06
 BYTE   Cn2  v068
 BYTE   W06
 BYTE   N06  Dn2  v080
 BYTE   W09
 BYTE   W03
 BYTE   N05  Dn2  v092
 BYTE   W05
 BYTE   En2  v088
 BYTE   W06
 BYTE   Fn2  v084
 BYTE   W06
 BYTE   En2
 BYTE   W06
 BYTE   Dn2  v080
 BYTE   W06
 BYTE   Cn2  v076
 BYTE   W06
// 020   ----------------------------------------
 BYTE   W36
 BYTE   W03
 BYTE   W56
 BYTE   W01
// 021   ----------------------------------------
 BYTE   W20
 BYTE   W76
// 022   ----------------------------------------
 BYTE   W12
 BYTE   Dn2  v092
 BYTE   W06
 BYTE   En2  v084
 BYTE   W06
 BYTE   N04  Fn2  v080
 BYTE   W13
 BYTE   En2  v084
 BYTE   W05
 BYTE   N05  Fn2  v072
 BYTE   W06
 BYTE   N06  Gn2  v080
 BYTE   W07
 BYTE   N05  An2  v072
 BYTE   W06
 BYTE   Gn2
 BYTE   W05
 BYTE   Fn2  v080
 BYTE   W06
 BYTE   En2  v076
 BYTE   W06
 BYTE   Dn2  v064
 BYTE   W06
 BYTE   Cn2  v080
 BYTE   W06
 BYTE   En2  v064
 BYTE   W06
 BYTE   PATT
  POIN2 Label_2_017FFC84
// 023   ----------------------------------------
 BYTE   N05  Gn1  v076
 BYTE   W96
// 024   ----------------------------------------
 BYTE   W96
// 025   ----------------------------------------
 BYTE   W01
 BYTE   W11
 BYTE   Gn2  v084
 BYTE   W06
 BYTE   An2  v072
 BYTE   W05
 BYTE   W01
 BYTE   N04  As2  v068
 BYTE   W10
 BYTE   W03
 BYTE   An2  v076
 BYTE   W05
 BYTE   N05  As2  v060
 BYTE   W04
 BYTE   W02
 BYTE   N06  Cn3  v072
 BYTE   W07
 BYTE   N05  Dn3  v064
 BYTE   W02
 BYTE   W04
 BYTE   Cn3
 BYTE   W05
 BYTE   As2  v072
 BYTE   W02
 BYTE   W04
 BYTE   An2  v068
 BYTE   W06
 BYTE   Gn2  v056
 BYTE   W02
 BYTE   W04
 BYTE   Fn2  v072
 BYTE   W06
 BYTE   An2  v052
 BYTE   W01
 BYTE   W05
// 026   ----------------------------------------
 BYTE   N03  Gn2  v068
 BYTE   W06
 BYTE   W06
 BYTE   N05  Dn2  v072
 BYTE   W05
 BYTE   W01
 BYTE   N06  En2  v060
 BYTE   W07
 BYTE   N03  Fn2  v076
 BYTE   W04
 BYTE   W08
 BYTE   N05  En2  v072
 BYTE   W03
 BYTE   W03
 BYTE   Fn2  v060
 BYTE   W06
 BYTE   N06  Gn2  v072
 BYTE   W02
 BYTE   W04
 BYTE   An2  v080
 BYTE   W06
 BYTE   N03  Gn2  v064
 BYTE   W02
 BYTE   W03
 BYTE   N05  Fn2  v080
 BYTE   W06
 BYTE   En2  v072
 BYTE   W02
 BYTE   W04
 BYTE   Dn2  v076
 BYTE   W06
 BYTE   Cn2  v072
 BYTE   W01
 BYTE   W05
 BYTE   En2  v068
 BYTE   W06
// 027   ----------------------------------------
 BYTE   Dn2
 BYTE   W07
 BYTE   An1  v080
 BYTE   W05
 BYTE   As1
 BYTE   W06
 BYTE   Cn2  v076
 BYTE   W03
 BYTE   W03
 BYTE   Dn2  v080
 BYTE   W06
 BYTE   Cn2  v084
 BYTE   W01
 BYTE   W05
 BYTE   N06  Dn2  v076
 BYTE   W05
 BYTE   W02
 BYTE   N05  En2  v080
 BYTE   W06
 BYTE   Fn2
 BYTE   W02
 BYTE   W04
 BYTE   Dn2  v084
 BYTE   W05
 BYTE   En2
 BYTE   W01
 BYTE   W05
 BYTE   Fn2  v080
 BYTE   W05
 BYTE   W01
 BYTE   Gn2  v076
 BYTE   W06
 BYTE   Fn2  v080
 BYTE   W03
 BYTE   W03
 BYTE   Gn2
 BYTE   W06
 BYTE   An2  v076
 BYTE   W01
 BYTE   W05
// 028   ----------------------------------------
 BYTE   N03  As2  v080
 BYTE   W06
 BYTE   N05  Gn2  v092
 BYTE   W06
 BYTE   An2
 BYTE   W04
 BYTE   W02
 BYTE   As2  v084
 BYTE   W06
 BYTE   Cn3
 BYTE   W02
 BYTE   W04
 BYTE   As2  v072
 BYTE   W06
 BYTE   Cn3  v084
 BYTE   W06
 BYTE   Dn3  v080
 BYTE   W04
 BYTE   W02
 BYTE   En3  v068
 BYTE   W06
 BYTE   N06  Dn3  v064
 BYTE   W02
 BYTE   W04
 BYTE   N05  En3  v072
 BYTE   W06
 BYTE   N06  Fn3  v076
 BYTE   W07
 BYTE   N05  Gn3
 BYTE   W03
 BYTE   W03
 BYTE   An3  v064
 BYTE   W06
 BYTE   As3  v068
 BYTE   W01
 BYTE   W05
 BYTE   Cn4  v080
 BYTE   W05
// 029   ----------------------------------------
 BYTE   W01
 BYTE   Dn4  v056
 BYTE   W02
 BYTE   W03
 BYTE   GoTo
  POIN2 Label_2_017FFC4E
// 030   ----------------------------------------
 BYTE   W06
 BYTE   N05  Dn2  v092
 BYTE   W06
 BYTE   En2  v084
 BYTE   W06
 BYTE   N04  Fn2  v080
 BYTE   W13
 BYTE   En2  v084
 BYTE   W05
 BYTE   N05  Fn2  v072
 BYTE   W06
 BYTE   N06  Gn2  v080
 BYTE   W07
 BYTE   N05  An2  v072
 BYTE   W06
 BYTE   Gn2
 BYTE   W05
 BYTE   Fn2  v080
 BYTE   W06
 BYTE   En2  v076
 BYTE   W06
 BYTE   Dn2  v064
 BYTE   W06
 BYTE   Cn2  v080
 BYTE   W06
 BYTE   En2  v064
 BYTE   W06
 BYTE   PATT
  POIN2 Label_2_017FFC84
 BYTE   FINE

//**************** Track 4 (Midi-Chn.3) ****************//

FE12ExpeditionSwiftSaturn_004:
// 000   ----------------------------------------
 BYTE   KEYSH   FE12ExpeditionSwiftSaturn_key+0
Label_3_01800166:
 BYTE   VOICE   73
 BYTE   VOL   66*FE12ExpeditionSwiftSaturn_mvl/mxv
 BYTE   PAN   c_v+0
 BYTE   N03  As1  v072
 BYTE   W01
 BYTE   W11
 BYTE   N05  As1  v080
 BYTE   W06
 BYTE   N06  Cn2  v072
 BYTE   W06
 BYTE   N03  Dn2  v084
 BYTE   W13
 BYTE   N05  Cn2  v076
 BYTE   W06
 BYTE   Dn2  v072
 BYTE   W06
 BYTE   N06  En2
 BYTE   W06
 BYTE   N05  Fn2  v080
 BYTE   W06
 BYTE   En2  v064
 BYTE   W06
 BYTE   Dn2  v080
 BYTE   W06
 BYTE   Cn2  v072
 BYTE   W06
 BYTE   As1
 BYTE   W06
 BYTE   An1  v076
 BYTE   W06
 BYTE   Cn2  v068
 BYTE   W05
// 001   ----------------------------------------
Label_3_0180019C:
 BYTE   N03  As1  v076
 BYTE   W13
 BYTE   N05  Fn1
 BYTE   W06
 BYTE   N06  Gn1  v060
 BYTE   W06
 BYTE   N03  An1  v076
 BYTE   W12
 BYTE   N05  En1
 BYTE   W06
 BYTE   Fn1  v060
 BYTE   W06
 BYTE   N06  Gn1  v076
 BYTE   W06
 BYTE   An1  v080
 BYTE   W06
 BYTE   N05  Gn1  v072
 BYTE   W06
 BYTE   Fn1  v068
 BYTE   W06
 BYTE   En1
 BYTE   W06
 BYTE   Dn1  v072
 BYTE   W06
 BYTE   Cn1
 BYTE   W06
 BYTE   En1
 BYTE   W05
 BYTE   PEND 
// 002   ----------------------------------------
 BYTE   W01
 BYTE   VOL   40*FE12ExpeditionSwiftSaturn_mvl/mxv
 BYTE   PAN   c_v-44
 BYTE   W24
 BYTE   W01
 BYTE   W01
 BYTE   N20  Gn4  v088
 BYTE   W01
 BYTE   W01
 BYTE   W03
 BYTE   W03
 BYTE   W03
 BYTE   W03
 BYTE   W03
 BYTE   W03
 BYTE   W01
 BYTE   N01  An4
 BYTE   W01
 BYTE   N02  As4
 BYTE   W01
 BYTE   W01
 BYTE   Cn5  v084
 BYTE   W02
 BYTE   W01
 BYTE   N64  Dn5  v088
 BYTE   W02
 BYTE   W01
 BYTE   W01
 BYTE   W08
 BYTE   W04
 BYTE   W04
 BYTE   W03
 BYTE   W04
 BYTE   W04
 BYTE   W04
 BYTE   W04
 BYTE   W03
// 003   ----------------------------------------
 BYTE   W03
 BYTE   W03
 BYTE   W03
 BYTE   W01
 BYTE   W02
 BYTE   W01
 BYTE   W02
 BYTE   W01
 BYTE   W02
 BYTE   W01
 BYTE   W01
 BYTE   W01
 BYTE   W01
 BYTE   W01
 BYTE   W01
 BYTE   W01
 BYTE   W01
 BYTE   W01
 BYTE   W01
 BYTE   N19  Fn5
 BYTE   W02
 BYTE   W01
 BYTE   W02
 BYTE   W01
 BYTE   W02
 BYTE   W01
 BYTE   W02
 BYTE   W01
 BYTE   W02
 BYTE   W06
 BYTE   N02  En5  v084
 BYTE   W01
 BYTE   W02
 BYTE   N03  Fn5  v092
 BYTE   W01
 BYTE   W02
 BYTE   N22  En5  v084
 BYTE   W01
 BYTE   W03
 BYTE   W03
 BYTE   W04
 BYTE   W03
 BYTE   W03
 BYTE   W03
 BYTE   W03
 BYTE   N23  Cn5  v080
 BYTE   W04
 BYTE   W04
 BYTE   W03
 BYTE   W04
 BYTE   W04
// 004   ----------------------------------------
 BYTE   W03
 BYTE   W01
 BYTE   N28  Dn5  v084
 BYTE   W03
 BYTE   W03
 BYTE   W04
 BYTE   W03
 BYTE   W04
 BYTE   W04
 BYTE   W03
 BYTE   W02
 BYTE   W01
 BYTE   W02
 BYTE   W01
 BYTE   W02
 BYTE   W01
 BYTE   W02
 BYTE   W01
 BYTE   W02
 BYTE   W01
 BYTE   W02
 BYTE   W01
 BYTE   W02
 BYTE   N01  Gn4
 BYTE   W01
 BYTE   W01
 BYTE   N03  An4  v088
 BYTE   W02
 BYTE   W01
 BYTE   W01
 BYTE   N68  Gn4  v076
 BYTE   W05
 BYTE   W05
 BYTE   W05
 BYTE   W05
 BYTE   W06
 BYTE   W05
 BYTE   W01
 BYTE   W02
 BYTE   W01
 BYTE   W02
 BYTE   W01
 BYTE   W02
 BYTE   W01
 BYTE   W01
// 005   ----------------------------------------
 BYTE   W01
 BYTE   W05
 BYTE   W06
 BYTE   W01
 BYTE   W02
 BYTE   W01
 BYTE   W02
 BYTE   W01
 BYTE   W02
 BYTE   W01
 BYTE   W02
 BYTE   W01
 BYTE   W01
 BYTE   W03
 BYTE   W01
 BYTE   N22
 BYTE   W02
 BYTE   W03
 BYTE   W03
 BYTE   W03
 BYTE   W03
 BYTE   W03
 BYTE   W03
 BYTE   W01
 BYTE   W01
 BYTE   Fn4  v072
 BYTE   W08
 BYTE   W04
 BYTE   W04
 BYTE   W04
 BYTE   W02
 BYTE   N01  Gn4  v084
 BYTE   W02
 BYTE   N07  An4  v072
 BYTE   W01
 BYTE   W04
 BYTE   W04
 BYTE   W04
 BYTE   W05
 BYTE   W02
// 006   ----------------------------------------
 BYTE   W02
 BYTE   W03
 BYTE   N32  Gn4  v084
 BYTE   W01
 BYTE   W04
 BYTE   W03
 BYTE   W02
 BYTE   W01
 BYTE   W02
 BYTE   W01
 BYTE   W02
 BYTE   W01
 BYTE   W02
 BYTE   W01
 BYTE   W02
 BYTE   W01
 BYTE   W02
 BYTE   W01
 BYTE   W02
 BYTE   W01
 BYTE   W02
 BYTE   W01
 BYTE   W01
 BYTE   W01
 BYTE   W01
 BYTE   W01
 BYTE   W01
 BYTE   W01
 BYTE   W01
 BYTE   W01
 BYTE   W01
 BYTE   W01
 BYTE   N02  Fn4  v092
 BYTE   W01
 BYTE   W01
 BYTE   W01
 BYTE   N03  Gn4  v084
 BYTE   W01
 BYTE   W02
 BYTE   N66  Fn4  v060
 BYTE   W01
 BYTE   W02
 BYTE   W01
 BYTE   W02
 BYTE   W01
 BYTE   W01
 BYTE   W11
 BYTE   W06
 BYTE   W05
 BYTE   W06
 BYTE   W06
 BYTE   W01
// 007   ----------------------------------------
 BYTE   W04
 BYTE   W02
 BYTE   W01
 BYTE   W02
 BYTE   W01
 BYTE   W02
 BYTE   W01
 BYTE   W02
 BYTE   W01
 BYTE   W02
 BYTE   W01
 BYTE   W02
 BYTE   W01
 BYTE   W01
 BYTE   W01
 BYTE   W01
 BYTE   W03
 BYTE   W01
 BYTE   N19  Gn4  v084
 BYTE   W02
 BYTE   W03
 BYTE   W03
 BYTE   W03
 BYTE   W03
 BYTE   W03
 BYTE   W03
 BYTE   N01  An4
 BYTE   W02
 BYTE   N02  As4  v080
 BYTE   W01
 BYTE   W01
 BYTE   N23  Cn5  v088
 BYTE   W02
 BYTE   W03
 BYTE   W10
 BYTE   W09
 BYTE   As4  v084
 BYTE   W01
 BYTE   W10
 BYTE   W08
// 008   ----------------------------------------
 BYTE   W03
 BYTE   W02
 BYTE   N32  Gn4
 BYTE   W08
 BYTE   W10
 BYTE   W10
 BYTE   W08
 BYTE   N06  Gs4  v088
 BYTE   W02
 BYTE   W04
 BYTE   Gn4  v080
 BYTE   W07
 BYTE   N60  Fn4  v072
 BYTE   W01
 BYTE   W01
 BYTE   W01
 BYTE   W01
 BYTE   W01
 BYTE   W01
 BYTE   W14
 BYTE   W07
 BYTE   W08
 BYTE   W07
// 009   ----------------------------------------
 BYTE   W03
 BYTE   W03
 BYTE   W03
 BYTE   W03
 BYTE   W03
 BYTE   W03
 BYTE   W01
 BYTE   W03
 BYTE   W03
 BYTE   W03
 BYTE   W01
 BYTE   N24  Gn4  v084
 BYTE   W02
 BYTE   W03
 BYTE   W03
 BYTE   W03
 BYTE   W03
 BYTE   W03
 BYTE   W03
 BYTE   W03
 BYTE   W02
 BYTE   N22  Cn4
 BYTE   W01
 BYTE   W03
 BYTE   W03
 BYTE   W03
 BYTE   W03
 BYTE   W03
 BYTE   W03
 BYTE   W03
 BYTE   W01
 BYTE   N23  Fn4  v076
 BYTE   W02
 BYTE   W03
 BYTE   W03
 BYTE   W03
 BYTE   W03
 BYTE   W03
 BYTE   W02
// 010   ----------------------------------------
 BYTE   W01
 BYTE   W03
 BYTE   W01
 BYTE   N20  Gn4
 BYTE   W01
 BYTE   W01
 BYTE   W02
 BYTE   W01
 BYTE   W02
 BYTE   W01
 BYTE   W02
 BYTE   W01
 BYTE   W02
 BYTE   W01
 BYTE   W02
 BYTE   W01
 BYTE   W02
 BYTE   W02
 BYTE   W01
 BYTE   W02
 BYTE   W01
 BYTE   W02
 BYTE   W01
 BYTE   W02
 BYTE   W01
 BYTE   W02
 BYTE   W56
 BYTE   W02
// 011   ----------------------------------------
 BYTE   W96
// 012   ----------------------------------------
 BYTE   W90
 BYTE   W01
 BYTE   W03
 BYTE   W02
// 013   ----------------------------------------
 BYTE   N01  An4  v068
 BYTE   W01
 BYTE   W01
 BYTE   As4  v080
 BYTE   W01
 BYTE   N03  Cn5  v068
 BYTE   W01
 BYTE   W03
 BYTE   N40  Dn5  v076
 BYTE   W03
 BYTE   W01
 BYTE   W07
 BYTE   W03
 BYTE   W03
 BYTE   W04
 BYTE   W03
 BYTE   W03
 BYTE   W04
 BYTE   W03
 BYTE   W03
 BYTE   W04
 BYTE   W01
 BYTE   N01  En5  v072
 BYTE   W01
 BYTE   N02  Fn5  v076
 BYTE   W01
 BYTE   W01
 BYTE   W01
 BYTE   N84  Gn5
 BYTE   W01
 BYTE   W01
 BYTE   W01
 BYTE   W08
 BYTE   W04
 BYTE   W04
 BYTE   W04
 BYTE   W04
 BYTE   W04
 BYTE   W04
 BYTE   W05
 BYTE   W03
// 014   ----------------------------------------
 BYTE   W01
 BYTE   W03
 BYTE   W03
 BYTE   W03
 BYTE   W01
 BYTE   W03
 BYTE   W03
 BYTE   W03
 BYTE   W03
 BYTE   W03
 BYTE   W03
 BYTE   W03
 BYTE   W01
 BYTE   W60
 BYTE   W03
// 015   ----------------------------------------
 BYTE   W01
 BYTE   W01
 BYTE   W02
 BYTE   W01
 BYTE   W04
 BYTE   W03
 BYTE   W03
 BYTE   W03
 BYTE   W03
 BYTE   W03
 BYTE   W02
 BYTE   W03
 BYTE   W03
 BYTE   W01
 BYTE   W02
 BYTE   W03
 BYTE   W01
 BYTE   W02
 BYTE   W01
 BYTE   W03
 BYTE   W02
 BYTE   W01
 BYTE   W02
 BYTE   W01
 BYTE   W02
 BYTE   W01
 BYTE   W02
 BYTE   W01
 BYTE   W02
 BYTE   W01
 BYTE   W02
 BYTE   W01
 BYTE   W02
 BYTE   W01
 BYTE   W02
 BYTE   W01
 BYTE   W02
 BYTE   W01
 BYTE   W02
 BYTE   W01
 BYTE   W02
 BYTE   W01
 BYTE   W02
 BYTE   W01
 BYTE   W02
 BYTE   W01
 BYTE   W02
 BYTE   W01
 BYTE   W02
 BYTE   W01
 BYTE   W02
 BYTE   W01
 BYTE   W02
 BYTE   W01
// 016   ----------------------------------------
 BYTE   W02
 BYTE   W01
 BYTE   W03
 BYTE   W03
 BYTE   W03
 BYTE   W03
 BYTE   W03
 BYTE   W03
 BYTE   W03
 BYTE   W03
 BYTE   W03
 BYTE   W03
 BYTE   W03
 BYTE   W03
 BYTE   W03
 BYTE   W03
 BYTE   W03
 BYTE   W03
 BYTE   W03
 BYTE   W03
 BYTE   W03
 BYTE   W03
 BYTE   W03
 BYTE   W03
 BYTE   W03
 BYTE   W03
 BYTE   W03
 BYTE   W03
 BYTE   W03
 BYTE   W03
 BYTE   W03
 BYTE   W03
 BYTE   W03
// 017   ----------------------------------------
 BYTE   W03
 BYTE   W03
 BYTE   W03
 BYTE   W03
 BYTE   W03
 BYTE   W03
 BYTE   W03
 BYTE   W03
 BYTE   W03
 BYTE   W03
 BYTE   W03
 BYTE   W03
 BYTE   W03
 BYTE   W03
 BYTE   W03
 BYTE   W03
 BYTE   W03
 BYTE   W03
 BYTE   W03
 BYTE   W03
 BYTE   W03
 BYTE   W03
 BYTE   W03
 BYTE   W03
 BYTE   W03
 BYTE   W03
 BYTE   W03
 BYTE   W03
 BYTE   W03
 BYTE   W03
 BYTE   W03
 BYTE   W03
// 018   ----------------------------------------
 BYTE   W01
 BYTE   W06
 BYTE   W04
 BYTE   W03
 BYTE   W03
 BYTE   W04
 BYTE   W06
 BYTE   N20  Gn4  v080
 BYTE   W03
 BYTE   W05
 BYTE   W04
 BYTE   W05
 BYTE   W04
 BYTE   N01  An4
 BYTE   W01
 BYTE   N02  As4  v084
 BYTE   W01
 BYTE   W01
 BYTE   Cn5  v080
 BYTE   W01
 BYTE   W02
 BYTE   N64  Dn5
 BYTE   W10
 BYTE   W07
 BYTE   W06
 BYTE   W06
 BYTE   W06
 BYTE   W06
 BYTE   W01
// 019   ----------------------------------------
 BYTE   W02
 BYTE   W03
 BYTE   W03
 BYTE   W03
 BYTE   W03
 BYTE   W03
 BYTE   W03
 BYTE   W01
 BYTE   W01
 BYTE   W01
 BYTE   W05
 BYTE   N19  Fn5  v084
 BYTE   W07
 BYTE   W06
 BYTE   W06
 BYTE   W01
 BYTE   N02  En5  v080
 BYTE   W03
 BYTE   N03  Fn5  v084
 BYTE   W02
 BYTE   W01
 BYTE   N22  En5
 BYTE   W05
 BYTE   W06
 BYTE   W07
 BYTE   W04
 BYTE   W01
 BYTE   N23  Cn5  v080
 BYTE   W02
 BYTE   W04
 BYTE   W04
 BYTE   W03
 BYTE   W06
// 020   ----------------------------------------
 BYTE   W04
 BYTE   N28  Dn5
 BYTE   W04
 BYTE   W06
 BYTE   W07
 BYTE   W07
 BYTE   W07
 BYTE   W06
 BYTE   W07
 BYTE   N01  Gn5
 BYTE   W02
 BYTE   N03  An5
 BYTE   W02
 BYTE   W01
 BYTE   W01
 BYTE   N68  Gn5  v064
 BYTE   W01
 BYTE   W01
 BYTE   W01
 BYTE   W11
 BYTE   W06
 BYTE   W06
 BYTE   W06
 BYTE   W06
 BYTE   W04
// 021   ----------------------------------------
 BYTE   W02
 BYTE   W04
 BYTE   W03
 BYTE   W02
 BYTE   W01
 BYTE   W02
 BYTE   W01
 BYTE   W02
 BYTE   W01
 BYTE   W02
 BYTE   W01
 BYTE   W02
 BYTE   W01
 BYTE   W02
 BYTE   W01
 BYTE   W02
 BYTE   W01
 BYTE   W01
 BYTE   W02
 BYTE   VOL   44*FE12ExpeditionSwiftSaturn_mvl/mxv
 BYTE   PAN   c_v+0
 BYTE   W04
 BYTE   N01  Gn4  v124
 BYTE   W04
 BYTE   Gn4  v084
 BYTE   W04
 BYTE   Gn4  v088
 BYTE   W04
 BYTE   N04
 BYTE   W06
 BYTE   Gn4  v048
 BYTE   W07
 BYTE   N15  Gn4  v088
 BYTE   W17
 BYTE   N04  Gn4  v044
 BYTE   W07
 BYTE   N02  Gn4  v100
 BYTE   W05
 BYTE   N04  Gn4  v048
 BYTE   W05
// 022   ----------------------------------------
 BYTE   W01
 BYTE   Gn4  v108
 BYTE   W06
 BYTE   Gn4  v052
 BYTE   W06
 BYTE   Gn4  v036
 BYTE   W06
 BYTE   Gn4  v020
 BYTE   W06
 BYTE   N03  Gn4  v108
 BYTE   W06
 BYTE   Gn4  v064
 BYTE   W06
 BYTE   Dn4  v096
 BYTE   W06
 BYTE   Dn4  v052
 BYTE   W04
 BYTE   W01
 BYTE   W01
 BYTE   N28  Fn4  v116
 BYTE   W01
 BYTE   W01
 BYTE   W01
 BYTE   W01
 BYTE   W01
 BYTE   W01
 BYTE   W02
 BYTE   W01
 BYTE   W02
 BYTE   W01
 BYTE   W02
 BYTE   W01
 BYTE   W02
 BYTE   W01
 BYTE   W02
 BYTE   W01
 BYTE   W02
 BYTE   W01
 BYTE   W02
 BYTE   W01
 BYTE   W01
 BYTE   W02
 BYTE   N03  Fn4  v052
 BYTE   W01
 BYTE   W03
 BYTE   W01
 BYTE   W01
 BYTE   N11  En4  v108
 BYTE   W01
 BYTE   W01
 BYTE   W02
 BYTE   W01
 BYTE   W02
 BYTE   W01
 BYTE   W02
 BYTE   W01
// 023   ----------------------------------------
 BYTE   N03  Dn4
 BYTE   W01
 BYTE   W05
 BYTE   Dn4  v060
 BYTE   W06
 BYTE   Gn3  v104
 BYTE   W06
 BYTE   Gn3  v056
 BYTE   W06
 BYTE   N28  Cn4  v124
 BYTE   W02
 BYTE   W01
 BYTE   W01
 BYTE   W03
 BYTE   W01
 BYTE   W02
 BYTE   W01
 BYTE   W02
 BYTE   W01
 BYTE   W02
 BYTE   W01
 BYTE   W02
 BYTE   W01
 BYTE   W02
 BYTE   W01
 BYTE   W02
 BYTE   W01
 BYTE   W05
 BYTE   N03  Cn4  v052
 BYTE   W05
 BYTE   N11  As3  v092
 BYTE   W12
 BYTE   N03  An3  v100
 BYTE   W06
 BYTE   An3  v056
 BYTE   W05
 BYTE   N04  Fn3  v096
 BYTE   W06
 BYTE   Fn3  v052
 BYTE   W06
 BYTE   N05  Gn3  v096
 BYTE   W01
// 024   ----------------------------------------
 BYTE   W05
 BYTE   Gn3  v052
 BYTE   W90
 BYTE   W01
// 025   ----------------------------------------
 BYTE   W96
// 026   ----------------------------------------
 BYTE   W21
 BYTE   W04
 BYTE   N03  Cn4  v108
 BYTE   N03  Cn5  v092
 BYTE   W06
 BYTE   Cn4  v060
 BYTE   N03  Cn5  v048
 BYTE   W06
 BYTE   Gn3  v096
 BYTE   N03  Gn4  v080
 BYTE   W06
 BYTE   Gn3  v048
 BYTE   N03  Gn4  v036
 BYTE   W04
 BYTE   W01
 BYTE   W01
 BYTE   N28  As3  v112
 BYTE   N28  As4  v100
 BYTE   W01
 BYTE   W01
 BYTE   W01
 BYTE   W01
 BYTE   W01
 BYTE   W03
 BYTE   W01
 BYTE   W02
 BYTE   W01
 BYTE   W02
 BYTE   W01
 BYTE   W02
 BYTE   W01
 BYTE   W02
 BYTE   W01
 BYTE   W02
 BYTE   W01
 BYTE   W02
 BYTE   W02
 BYTE   W08
 BYTE   N11  An3  v108
 BYTE   N11  An4  v092
 BYTE   W11
// 027   ----------------------------------------
 BYTE   N03  Gn3  v112
 BYTE   N03  Gn4  v096
 BYTE   W06
 BYTE   Gn3  v064
 BYTE   N03  Gn4  v048
 BYTE   W06
 BYTE   Dn3  v100
 BYTE   N03  Dn4  v088
 BYTE   W06
 BYTE   Dn3  v056
 BYTE   N03  Dn4  v040
 BYTE   W06
 BYTE   N28  Fn3  v120
 BYTE   N28  Fn4  v100
 BYTE   W02
 BYTE   W01
 BYTE   W01
 BYTE   W01
 BYTE   W02
 BYTE   W01
 BYTE   W02
 BYTE   W01
 BYTE   W02
 BYTE   W01
 BYTE   W02
 BYTE   W01
 BYTE   W02
 BYTE   W01
 BYTE   W02
 BYTE   W01
 BYTE   W02
 BYTE   W11
 BYTE   N11  En3  v092
 BYTE   N11  En4  v076
 BYTE   W12
 BYTE   N03  Dn3  v100
 BYTE   N03  Dn4  v088
 BYTE   W06
 BYTE   Dn3  v056
 BYTE   N03  Dn4  v040
 BYTE   W05
 BYTE   N04  As2  v096
 BYTE   N04  As3  v080
 BYTE   W06
 BYTE   As2  v052
 BYTE   N04  As3  v036
 BYTE   W06
 BYTE   N05  Cn3  v096
 BYTE   N05  Cn4  v084
 BYTE   W01
// 028   ----------------------------------------
 BYTE   W05
 BYTE   Cn3  v052
 BYTE   N05  Cn4  v036
 BYTE   W90
 BYTE   W01
// 029   ----------------------------------------
 BYTE   W96
// 030   ----------------------------------------
 BYTE   W96
// 031   ----------------------------------------
 BYTE   W96
// 032   ----------------------------------------
 BYTE   W01
 BYTE   VOL   66*FE12ExpeditionSwiftSaturn_mvl/mxv
 BYTE   PAN   c_v+0
 BYTE   W05
 BYTE   GoTo
  POIN2 Label_3_01800166
// 033   ----------------------------------------
 BYTE   W06
 BYTE   N05  As1  v080
 BYTE   W06
 BYTE   N06  Cn2  v072
 BYTE   W06
 BYTE   N03  Dn2  v084
 BYTE   W13
 BYTE   N05  Cn2  v076
 BYTE   W06
 BYTE   Dn2  v072
 BYTE   W06
 BYTE   N06  En2
 BYTE   W06
 BYTE   N05  Fn2  v080
 BYTE   W06
 BYTE   En2  v064
 BYTE   W06
 BYTE   Dn2  v080
 BYTE   W06
 BYTE   Cn2  v072
 BYTE   W06
 BYTE   As1
 BYTE   W06
 BYTE   An1  v076
 BYTE   W06
 BYTE   Cn2  v068
 BYTE   W05
 BYTE   PATT
  POIN2 Label_3_0180019C
 BYTE   FINE

//**************** Track 5 (Midi-Chn.4) ****************//

FE12ExpeditionSwiftSaturn_005:
// 000   ----------------------------------------
 BYTE   KEYSH   FE12ExpeditionSwiftSaturn_key+0
Label_4_01800636:
 BYTE   VOICE   73
 BYTE   W96
// 001   ----------------------------------------
 BYTE   W96
// 002   ----------------------------------------
 BYTE   W01
 BYTE   VOL   52*FE12ExpeditionSwiftSaturn_mvl/mxv
 BYTE   PAN   c_v+22
 BYTE   W22
 BYTE   N20  Gn4  v088
 BYTE   W02
 BYTE   W01
 BYTE   W02
 BYTE   W01
 BYTE   W03
 BYTE   W03
 BYTE   W03
 BYTE   W03
 BYTE   W03
 BYTE   N01  An4
 BYTE   W01
 BYTE   N02  As4
 BYTE   W02
 BYTE   Cn5  v084
 BYTE   W03
 BYTE   N64  Dn5  v088
 BYTE   W01
 BYTE   W02
 BYTE   W01
 BYTE   W02
 BYTE   W01
 BYTE   W01
 BYTE   W08
 BYTE   W04
 BYTE   W04
 BYTE   W03
 BYTE   W04
 BYTE   W04
 BYTE   W04
 BYTE   W04
 BYTE   W03
// 003   ----------------------------------------
 BYTE   W03
 BYTE   W03
 BYTE   W03
 BYTE   W01
 BYTE   W02
 BYTE   W01
 BYTE   W02
 BYTE   W01
 BYTE   W02
 BYTE   W01
 BYTE   W01
 BYTE   W01
 BYTE   W01
 BYTE   W01
 BYTE   W01
 BYTE   N19  Fn5
 BYTE   W01
 BYTE   W01
 BYTE   W01
 BYTE   W01
 BYTE   W02
 BYTE   W01
 BYTE   W02
 BYTE   W01
 BYTE   W02
 BYTE   W01
 BYTE   W02
 BYTE   W01
 BYTE   W02
 BYTE   W02
 BYTE   N02  En5  v084
 BYTE   W03
 BYTE   N03  Fn5  v092
 BYTE   W02
 BYTE   W01
 BYTE   N22  En5  v088
 BYTE   W02
 BYTE   W03
 BYTE   W03
 BYTE   W03
 BYTE   W04
 BYTE   W03
 BYTE   W03
 BYTE   W02
 BYTE   N23  Cn5  v084
 BYTE   W01
 BYTE   W03
 BYTE   W03
 BYTE   W03
 BYTE   W03
 BYTE   W03
 BYTE   W03
 BYTE   W03
 BYTE   W01
// 004   ----------------------------------------
 BYTE   N28  Dn5
 BYTE   W01
 BYTE   W01
 BYTE   W01
 BYTE   W03
 BYTE   W03
 BYTE   W03
 BYTE   W03
 BYTE   W03
 BYTE   W03
 BYTE   W03
 BYTE   W03
 BYTE   W01
 BYTE   W02
 BYTE   W01
 BYTE   W02
 BYTE   W01
 BYTE   W02
 BYTE   W01
 BYTE   W02
 BYTE   W01
 BYTE   W02
 BYTE   W01
 BYTE   W01
 BYTE   N01  Gn4
 BYTE   W01
 BYTE   W01
 BYTE   N03  An4  v088
 BYTE   W02
 BYTE   W01
 BYTE   W01
 BYTE   N68  Gn4  v076
 BYTE   W02
 BYTE   W01
 BYTE   W01
 BYTE   W05
 BYTE   W05
 BYTE   W05
 BYTE   W05
 BYTE   W06
 BYTE   W05
 BYTE   W01
 BYTE   W02
 BYTE   W01
 BYTE   W02
 BYTE   W01
 BYTE   W02
 BYTE   W01
 BYTE   W01
// 005   ----------------------------------------
 BYTE   W01
 BYTE   W05
 BYTE   W06
 BYTE   W01
 BYTE   W02
 BYTE   W01
 BYTE   W02
 BYTE   W01
 BYTE   W02
 BYTE   W01
 BYTE   W02
 BYTE   W01
 BYTE   W01
 BYTE   N22
 BYTE   W03
 BYTE   W03
 BYTE   W03
 BYTE   W03
 BYTE   W03
 BYTE   W03
 BYTE   W03
 BYTE   W01
 BYTE   Fn4  v072
 BYTE   W02
 BYTE   W01
 BYTE   W09
 BYTE   W04
 BYTE   W04
 BYTE   W02
 BYTE   N01  Gn4  v084
 BYTE   W02
 BYTE   N24  An4
 BYTE   W05
 BYTE   W04
 BYTE   W04
 BYTE   W04
 BYTE   W05
 BYTE   W02
// 006   ----------------------------------------
 BYTE   W01
 BYTE   N32  Gn4
 BYTE   W01
 BYTE   W04
 BYTE   W04
 BYTE   W03
 BYTE   W02
 BYTE   W01
 BYTE   W02
 BYTE   W01
 BYTE   W02
 BYTE   W01
 BYTE   W02
 BYTE   W01
 BYTE   W02
 BYTE   W01
 BYTE   W02
 BYTE   W01
 BYTE   W02
 BYTE   W01
 BYTE   W02
 BYTE   W01
 BYTE   W01
 BYTE   W01
 BYTE   W01
 BYTE   W01
 BYTE   W01
 BYTE   W01
 BYTE   N02  Fn4  v092
 BYTE   W01
 BYTE   W01
 BYTE   W01
 BYTE   N03  Gn4  v084
 BYTE   W01
 BYTE   W01
 BYTE   W01
 BYTE   N66  Fn4  v060
 BYTE   W01
 BYTE   W01
 BYTE   W02
 BYTE   W01
 BYTE   W02
 BYTE   W01
 BYTE   W02
 BYTE   W01
 BYTE   W01
 BYTE   W11
 BYTE   W06
 BYTE   W05
 BYTE   W06
 BYTE   W06
 BYTE   W01
// 007   ----------------------------------------
 BYTE   W04
 BYTE   W02
 BYTE   W01
 BYTE   W02
 BYTE   W01
 BYTE   W02
 BYTE   W01
 BYTE   W02
 BYTE   W01
 BYTE   W02
 BYTE   W01
 BYTE   W02
 BYTE   W01
 BYTE   W01
 BYTE   W01
 BYTE   W01
 BYTE   N19  Gn4  v084
 BYTE   W03
 BYTE   W03
 BYTE   W03
 BYTE   W03
 BYTE   W03
 BYTE   W03
 BYTE   W02
 BYTE   N01  An4
 BYTE   W01
 BYTE   W01
 BYTE   N02  As4  v080
 BYTE   W02
 BYTE   N23  Cn5  v088
 BYTE   W03
 BYTE   W03
 BYTE   W03
 BYTE   W10
 BYTE   W05
 BYTE   As4  v084
 BYTE   W05
 BYTE   W10
 BYTE   W08
// 008   ----------------------------------------
 BYTE   W01
 BYTE   N32  Gn4
 BYTE   W02
 BYTE   W10
 BYTE   W10
 BYTE   W10
 BYTE   W04
 BYTE   N06  Gs4  v088
 BYTE   W06
 BYTE   Gn4  v080
 BYTE   W07
 BYTE   N60  Fn4  v072
 BYTE   W04
 BYTE   W01
 BYTE   W01
 BYTE   W01
 BYTE   W01
 BYTE   W01
 BYTE   W01
 BYTE   W14
 BYTE   W07
 BYTE   W08
 BYTE   W07
// 009   ----------------------------------------
 BYTE   W03
 BYTE   W03
 BYTE   W03
 BYTE   W03
 BYTE   W03
 BYTE   W03
 BYTE   W01
 BYTE   W03
 BYTE   W03
 BYTE   N24  Gn4  v084
 BYTE   W03
 BYTE   W03
 BYTE   W03
 BYTE   W03
 BYTE   W03
 BYTE   W03
 BYTE   W03
 BYTE   W03
 BYTE   W01
 BYTE   N22  Cn4
 BYTE   W02
 BYTE   W03
 BYTE   W03
 BYTE   W03
 BYTE   W03
 BYTE   W03
 BYTE   W03
 BYTE   W03
 BYTE   N23  Fn4  v076
 BYTE   W03
 BYTE   W03
 BYTE   W03
 BYTE   W03
 BYTE   W03
 BYTE   W03
 BYTE   W03
 BYTE   W02
// 010   ----------------------------------------
 BYTE   W01
 BYTE   N20  Gn4
 BYTE   W03
 BYTE   W02
 BYTE   W01
 BYTE   W02
 BYTE   W01
 BYTE   W02
 BYTE   W01
 BYTE   W02
 BYTE   W01
 BYTE   W02
 BYTE   W01
 BYTE   W02
 BYTE   W01
 BYTE   W02
 BYTE   W02
 BYTE   W01
 BYTE   W02
 BYTE   W01
 BYTE   W02
 BYTE   W01
 BYTE   W02
 BYTE   W01
 BYTE   W02
 BYTE   W56
 BYTE   W02
// 011   ----------------------------------------
 BYTE   W96
// 012   ----------------------------------------
 BYTE   W90
 BYTE   W01
 BYTE   W01
 BYTE   N01  An4  v068
 BYTE   W02
 BYTE   As4  v080
 BYTE   W01
 BYTE   N03  Cn5  v068
 BYTE   W01
// 013   ----------------------------------------
 BYTE   W01
 BYTE   W02
 BYTE   N40  Dn5  v076
 BYTE   W01
 BYTE   W03
 BYTE   W03
 BYTE   W01
 BYTE   W07
 BYTE   W03
 BYTE   W03
 BYTE   W04
 BYTE   W03
 BYTE   W03
 BYTE   W04
 BYTE   W03
 BYTE   W03
 BYTE   W01
 BYTE   N01  En5  v072
 BYTE   W01
 BYTE   N02  Fn5  v076
 BYTE   W02
 BYTE   W01
 BYTE   N84  Gn5
 BYTE   W02
 BYTE   W01
 BYTE   W02
 BYTE   W01
 BYTE   W01
 BYTE   W08
 BYTE   W04
 BYTE   W04
 BYTE   W04
 BYTE   W04
 BYTE   W04
 BYTE   W04
 BYTE   W05
 BYTE   W03
// 014   ----------------------------------------
 BYTE   W01
 BYTE   W03
 BYTE   W03
 BYTE   W03
 BYTE   W01
 BYTE   W03
 BYTE   W03
 BYTE   W03
 BYTE   W03
 BYTE   W03
 BYTE   W03
 BYTE   W03
 BYTE   W01
 BYTE   W07
 BYTE   N02  Fn5  v084
 BYTE   W03
 BYTE   N03  Gn5  v088
 BYTE   W04
 BYTE   N48  Fn5  v076
 BYTE   W48
 BYTE   W01
// 015   ----------------------------------------
 BYTE   W01
 BYTE   N92  Cn5
 BYTE   W01
 BYTE   W02
 BYTE   W01
 BYTE   W14
 BYTE   W11
 BYTE   W11
 BYTE   W07
 BYTE   W08
 BYTE   W03
 BYTE   W04
 BYTE   W03
 BYTE   W04
 BYTE   W04
 BYTE   W03
 BYTE   W04
 BYTE   W03
 BYTE   W04
 BYTE   W04
 BYTE   W03
 BYTE   W01
// 016   ----------------------------------------
 BYTE   W01
 BYTE   N48  Gn4  v080
 BYTE   W02
 BYTE   W09
 BYTE   W04
 BYTE   W05
 BYTE   W04
 BYTE   W04
 BYTE   W05
 BYTE   W04
 BYTE   W05
 BYTE   W04
 BYTE   W03
 BYTE   N44  Fn4  v068
 BYTE   W02
 BYTE   W04
 BYTE   W04
 BYTE   W05
 BYTE   W04
 BYTE   W05
 BYTE   W04
 BYTE   W04
 BYTE   W05
 BYTE   W04
 BYTE   W05
// 017   ----------------------------------------
 BYTE   W02
 BYTE   N90  Cn4  v060
 BYTE   W02
 BYTE   W05
 BYTE   W04
 BYTE   W04
 BYTE   W05
 BYTE   W04
 BYTE   W05
 BYTE   W04
 BYTE   W04
 BYTE   W05
 BYTE   W04
 BYTE   W05
 BYTE   W04
 BYTE   W05
 BYTE   W04
 BYTE   W04
 BYTE   W05
 BYTE   W04
 BYTE   W05
 BYTE   W04
 BYTE   W05
 BYTE   W03
// 018   ----------------------------------------
 BYTE   W01
 BYTE   W06
 BYTE   W04
 BYTE   W03
 BYTE   W03
 BYTE   W04
 BYTE   W02
 BYTE   N20  Gn4  v080
 BYTE   W07
 BYTE   W05
 BYTE   W04
 BYTE   W05
 BYTE   N01  An4
 BYTE   W01
 BYTE   N02  As4  v084
 BYTE   W02
 BYTE   Cn5  v080
 BYTE   W02
 BYTE   W01
 BYTE   N64  Dn5
 BYTE   W01
 BYTE   W01
 BYTE   W12
 BYTE   W07
 BYTE   W06
 BYTE   W06
 BYTE   W06
 BYTE   W06
 BYTE   W01
// 019   ----------------------------------------
 BYTE   W02
 BYTE   W03
 BYTE   W03
 BYTE   W03
 BYTE   W03
 BYTE   W03
 BYTE   W03
 BYTE   W01
 BYTE   W01
 BYTE   W01
 BYTE   W01
 BYTE   N19  Fn5  v084
 BYTE   W11
 BYTE   W06
 BYTE   W03
 BYTE   N02  En5  v080
 BYTE   W03
 BYTE   N03  Fn5  v084
 BYTE   W03
 BYTE   N22  En5
 BYTE   W03
 BYTE   W06
 BYTE   W06
 BYTE   W07
 BYTE   W01
 BYTE   N23  Cn5  v080
 BYTE   W03
 BYTE   W03
 BYTE   W04
 BYTE   W04
 BYTE   W03
 BYTE   W06
// 020   ----------------------------------------
 BYTE   N28  Dn5
 BYTE   W08
 BYTE   W06
 BYTE   W07
 BYTE   W07
 BYTE   W07
 BYTE   W06
 BYTE   W03
 BYTE   N01  Gn5
 BYTE   W02
 BYTE   N03  An5
 BYTE   W04
 BYTE   N68  Gn5  v064
 BYTE   W02
 BYTE   W01
 BYTE   W02
 BYTE   W01
 BYTE   W01
 BYTE   W11
 BYTE   W06
 BYTE   W06
 BYTE   W06
 BYTE   W06
 BYTE   W04
// 021   ----------------------------------------
 BYTE   W02
 BYTE   W04
 BYTE   W03
 BYTE   W02
 BYTE   W01
 BYTE   W02
 BYTE   W01
 BYTE   W02
 BYTE   W01
 BYTE   W02
 BYTE   W01
 BYTE   W02
 BYTE   W01
 BYTE   W02
 BYTE   W01
 BYTE   W02
 BYTE   W02
 BYTE   W01
 BYTE   W02
 BYTE   W01
 BYTE   W02
 BYTE   W01
 BYTE   W02
 BYTE   W01
 BYTE   W02
 BYTE   W01
 BYTE   W01
 BYTE   W01
 BYTE   W03
 BYTE   VOL   47*FE12ExpeditionSwiftSaturn_mvl/mxv
 BYTE   PAN   c_v+0
 BYTE   W44
 BYTE   W03
// 022   ----------------------------------------
 BYTE   W24
 BYTE   W01
 BYTE   N03  Dn4  v092
 BYTE   W12
 BYTE   N04  Gn3
 BYTE   W12
 BYTE   N24  Cn4  v100
 BYTE   W01
 BYTE   W01
 BYTE   W01
 BYTE   W03
 BYTE   W01
 BYTE   W02
 BYTE   W01
 BYTE   W02
 BYTE   W01
 BYTE   W02
 BYTE   W01
 BYTE   W02
 BYTE   W01
 BYTE   W02
 BYTE   W01
 BYTE   W01
 BYTE   W13
 BYTE   N13  Cn4  v096
 BYTE   W11
// 023   ----------------------------------------
 BYTE   W01
 BYTE   N03  Gn3  v100
 BYTE   W12
 BYTE   N04  Dn3  v104
 BYTE   W12
 BYTE   N24  Gn3  v112
 BYTE   W01
 BYTE   W01
 BYTE   W02
 BYTE   W01
 BYTE   W02
 BYTE   W01
 BYTE   W02
 BYTE   W01
 BYTE   W02
 BYTE   W01
 BYTE   W02
 BYTE   W01
 BYTE   W02
 BYTE   W01
 BYTE   W02
 BYTE   W01
 BYTE   W02
 BYTE   W11
 BYTE   N11  Gn3  v092
 BYTE   W11
 BYTE   N03  Fn3  v096
 BYTE   W11
 BYTE   N04  Cn3  v092
 BYTE   W13
// 024   ----------------------------------------
 BYTE   Dn3  v084
 BYTE   W96
// 025   ----------------------------------------
 BYTE   W48
 BYTE   W01
 BYTE   VOL   50*FE12ExpeditionSwiftSaturn_mvl/mxv
 BYTE   PAN   c_v+0
 BYTE   W44
 BYTE   W03
// 026   ----------------------------------------
 BYTE   W24
 BYTE   W01
 BYTE   N03  Gn4  v092
 BYTE   W06
 BYTE   Gn4  v044
 BYTE   W06
 BYTE   N04  Cn4  v092
 BYTE   W06
 BYTE   Cn4  v044
 BYTE   W06
 BYTE   N24  Fn4  v096
 BYTE   W01
 BYTE   W01
 BYTE   W01
 BYTE   W03
 BYTE   W01
 BYTE   W02
 BYTE   W01
 BYTE   W02
 BYTE   W01
 BYTE   W02
 BYTE   W01
 BYTE   W02
 BYTE   W01
 BYTE   W03
 BYTE   W01
 BYTE   W07
 BYTE   N04  Fn4  v044
 BYTE   W06
 BYTE   N13  Fn4  v100
 BYTE   W11
// 027   ----------------------------------------
 BYTE   W01
 BYTE   N03  Cn4  v104
 BYTE   W06
 BYTE   Cn4  v052
 BYTE   W06
 BYTE   N04  As3  v104
 BYTE   W06
 BYTE   As3  v056
 BYTE   W06
 BYTE   N24  Cn4  v112
 BYTE   W01
 BYTE   W01
 BYTE   W03
 BYTE   W02
 BYTE   W01
 BYTE   W02
 BYTE   W01
 BYTE   W02
 BYTE   W01
 BYTE   W02
 BYTE   W01
 BYTE   W02
 BYTE   W01
 BYTE   W02
 BYTE   W01
 BYTE   W02
 BYTE   W11
 BYTE   N11  Gn3  v092
 BYTE   W11
 BYTE   N03  Fn3  v096
 BYTE   W06
 BYTE   Fn3  v044
 BYTE   W05
 BYTE   N04  Fn3  v092
 BYTE   W06
 BYTE   Fn3  v040
 BYTE   W07
// 028   ----------------------------------------
 BYTE   En3  v088
 BYTE   W06
 BYTE   En3  v036
 BYTE   W90
// 029   ----------------------------------------
 BYTE   W96
// 030   ----------------------------------------
 BYTE   W01
 BYTE   VOL   49*FE12ExpeditionSwiftSaturn_mvl/mxv
 BYTE   PAN   c_v+0
 BYTE   W12
 BYTE   W12
 BYTE   N05  An2  v092
 BYTE   N07  Dn3  v076
 BYTE   W11
 BYTE   N05  An2  v048
 BYTE   N07  Dn3  v036
 BYTE   W14
 BYTE   N54  An2  v076
 BYTE   N54  Dn3  v092
 BYTE   W44
 BYTE   W02
// 031   ----------------------------------------
 BYTE   W24
 BYTE   N12  As2  v104
 BYTE   N14  Fn3  v096
 BYTE   W15
 BYTE   N06  As2  v040
 BYTE   N08  Fn3  v048
 BYTE   W09
 BYTE   N13  An2  v092
 BYTE   N13  En3
 BYTE   W16
 BYTE   N07  An2  v048
 BYTE   N07  En3  v044
 BYTE   W08
 BYTE   N12  Fn2  v092
 BYTE   N13  Cn3
 BYTE   W16
 BYTE   N04  Fn2  v044
 BYTE   N05  Cn3
 BYTE   W08
// 032   ----------------------------------------
 BYTE   N08  Gn2  v092
 BYTE   N08  Dn3  v100
 BYTE   W06
 BYTE   GoTo
  POIN2 Label_4_01800636
// 033   ----------------------------------------
 BYTE   W05
 BYTE   N08  Gn2  v052
 BYTE   N08  Dn3  v060
 BYTE   W84
 BYTE   W01
 BYTE   W96
 BYTE   FINE

//**************** Track 6 (Midi-Chn.5) ****************//

FE12ExpeditionSwiftSaturn_006:
// 000   ----------------------------------------
 BYTE   KEYSH   FE12ExpeditionSwiftSaturn_key+0
Label_5_01800A22:
 BYTE   VOICE   73
 BYTE   W96
// 001   ----------------------------------------
 BYTE   W96
// 002   ----------------------------------------
 BYTE   W01
 BYTE   VOL   53*FE12ExpeditionSwiftSaturn_mvl/mxv
 BYTE   PAN   c_v+2
 BYTE   W07
 BYTE   W16
 BYTE   N20  Dn4  v092
 BYTE   W01
 BYTE   W02
 BYTE   W01
 BYTE   W03
 BYTE   W03
 BYTE   W03
 BYTE   W03
 BYTE   W03
 BYTE   W01
 BYTE   N02  En4
 BYTE   W02
 BYTE   W01
 BYTE   N03  Fn4  v084
 BYTE   W02
 BYTE   W01
 BYTE   N66  Gn4
 BYTE   W02
 BYTE   W01
 BYTE   W02
 BYTE   W01
 BYTE   W01
 BYTE   W08
 BYTE   W04
 BYTE   W04
 BYTE   W03
 BYTE   W04
 BYTE   W04
 BYTE   W04
 BYTE   W04
 BYTE   W04
// 003   ----------------------------------------
 BYTE   W02
 BYTE   W03
 BYTE   W03
 BYTE   W01
 BYTE   W02
 BYTE   W01
 BYTE   W02
 BYTE   W01
 BYTE   W02
 BYTE   W01
 BYTE   W01
 BYTE   W01
 BYTE   W01
 BYTE   W01
 BYTE   W01
 BYTE   W01
 BYTE   N19  Dn5  v088
 BYTE   W01
 BYTE   W01
 BYTE   W01
 BYTE   W02
 BYTE   W01
 BYTE   W02
 BYTE   W01
 BYTE   W02
 BYTE   W01
 BYTE   W02
 BYTE   W01
 BYTE   W02
 BYTE   W04
 BYTE   N02  Cn5
 BYTE   W02
 BYTE   N03  Dn5  v092
 BYTE   W04
 BYTE   N20  Cn5  v072
 BYTE   W03
 BYTE   W06
 BYTE   W07
 BYTE   W04
 BYTE   N24  An4  v092
 BYTE   W02
 BYTE   W09
 BYTE   W05
 BYTE   W04
 BYTE   W05
// 004   ----------------------------------------
 BYTE   N30  Gn4  v080
 BYTE   W01
 BYTE   W01
 BYTE   W03
 BYTE   W03
 BYTE   W03
 BYTE   W03
 BYTE   W03
 BYTE   W03
 BYTE   W03
 BYTE   W03
 BYTE   W01
 BYTE   W02
 BYTE   W01
 BYTE   W02
 BYTE   W01
 BYTE   W02
 BYTE   W01
 BYTE   W02
 BYTE   W01
 BYTE   W02
 BYTE   W01
 BYTE   W02
 BYTE   W01
 BYTE   N01  Dn4  v088
 BYTE   W02
 BYTE   N03  En4
 BYTE   W01
 BYTE   W01
 BYTE   W02
 BYTE   N66  Dn4  v068
 BYTE   W01
 BYTE   W01
 BYTE   W05
 BYTE   W05
 BYTE   W05
 BYTE   W05
 BYTE   W06
 BYTE   W05
 BYTE   W01
 BYTE   W02
 BYTE   W01
 BYTE   W02
 BYTE   W01
 BYTE   W02
 BYTE   W01
 BYTE   W02
// 005   ----------------------------------------
 BYTE   W05
 BYTE   W06
 BYTE   W01
 BYTE   W02
 BYTE   W01
 BYTE   W02
 BYTE   W01
 BYTE   W02
 BYTE   W01
 BYTE   W02
 BYTE   W01
 BYTE   W01
 BYTE   N23  Dn4  v076
 BYTE   W23
 BYTE   N19  Cn4  v084
 BYTE   W02
 BYTE   W09
 BYTE   W04
 BYTE   W04
 BYTE   W04
 BYTE   W01
 BYTE   N21  Cn4  v088
 BYTE   W04
 BYTE   W04
 BYTE   W04
 BYTE   W04
 BYTE   W05
 BYTE   W03
// 006   ----------------------------------------
 BYTE   W01
 BYTE   N30  Cn4  v084
 BYTE   W04
 BYTE   W04
 BYTE   W03
 BYTE   W02
 BYTE   W01
 BYTE   W02
 BYTE   W01
 BYTE   W02
 BYTE   W01
 BYTE   W02
 BYTE   W01
 BYTE   W02
 BYTE   W01
 BYTE   W02
 BYTE   W01
 BYTE   W02
 BYTE   W01
 BYTE   W02
 BYTE   W01
 BYTE   W01
 BYTE   W01
 BYTE   W01
 BYTE   W01
 BYTE   W01
 BYTE   N02
 BYTE   W01
 BYTE   W01
 BYTE   W01
 BYTE   N03  Dn4  v088
 BYTE   W01
 BYTE   W01
 BYTE   W01
 BYTE   W01
 BYTE   N72  Cn4  v084
 BYTE   W01
 BYTE   W01
 BYTE   W02
 BYTE   W01
 BYTE   W02
 BYTE   W01
 BYTE   W02
 BYTE   W01
 BYTE   W01
 BYTE   W11
 BYTE   W06
 BYTE   W05
 BYTE   W06
 BYTE   W06
 BYTE   W02
// 007   ----------------------------------------
 BYTE   W03
 BYTE   W02
 BYTE   W01
 BYTE   W02
 BYTE   W01
 BYTE   W02
 BYTE   W01
 BYTE   W02
 BYTE   W01
 BYTE   W02
 BYTE   W01
 BYTE   W02
 BYTE   W01
 BYTE   W01
 BYTE   W01
 BYTE   W01
 BYTE   W01
 BYTE   N17  Dn4  v076
 BYTE   W02
 BYTE   W03
 BYTE   W03
 BYTE   W03
 BYTE   W03
 BYTE   W03
 BYTE   W03
 BYTE   N02  Dn4  v092
 BYTE   W03
 BYTE   N24  Ds4  v088
 BYTE   W03
 BYTE   W03
 BYTE   W03
 BYTE   W10
 BYTE   W06
 BYTE   N22  Dn4  v092
 BYTE   W04
 BYTE   W10
 BYTE   W09
// 008   ----------------------------------------
 BYTE   N32  Cn4  v080
 BYTE   W02
 BYTE   W10
 BYTE   W10
 BYTE   W10
 BYTE   W05
 BYTE   N06  Ds4  v088
 BYTE   W05
 BYTE   W01
 BYTE   Dn4
 BYTE   W07
 BYTE   N64  Cn4  v080
 BYTE   W03
 BYTE   W01
 BYTE   W01
 BYTE   W01
 BYTE   W01
 BYTE   W01
 BYTE   W01
 BYTE   W14
 BYTE   W07
 BYTE   W08
 BYTE   W07
 BYTE   W01
// 009   ----------------------------------------
 BYTE   W02
 BYTE   W03
 BYTE   W03
 BYTE   W03
 BYTE   W03
 BYTE   W03
 BYTE   W01
 BYTE   W01
 BYTE   W01
 BYTE   W01
 BYTE   W01
 BYTE   W01
 BYTE   W01
 BYTE   W01
 BYTE   N24  Cn4  v072
 BYTE   W24
 BYTE   N22  Gs3  v092
 BYTE   W23
 BYTE   N24  Cn4
 BYTE   W24
// 010   ----------------------------------------
 BYTE   W01
 BYTE   N20  As3  v084
 BYTE   W02
 BYTE   W02
 BYTE   W01
 BYTE   W02
 BYTE   W01
 BYTE   W02
 BYTE   W01
 BYTE   W02
 BYTE   W01
 BYTE   W02
 BYTE   W01
 BYTE   W02
 BYTE   W01
 BYTE   W02
 BYTE   W02
 BYTE   W01
 BYTE   W02
 BYTE   W01
 BYTE   W02
 BYTE   W01
 BYTE   W02
 BYTE   W01
 BYTE   W02
 BYTE   W56
 BYTE   W03
// 011   ----------------------------------------
 BYTE   W96
// 012   ----------------------------------------
 BYTE   W96
// 013   ----------------------------------------
 BYTE   W96
// 014   ----------------------------------------
 BYTE   W96
// 015   ----------------------------------------
 BYTE   W96
// 016   ----------------------------------------
 BYTE   W96
// 017   ----------------------------------------
 BYTE   W96
// 018   ----------------------------------------
 BYTE   W01
 BYTE   W06
 BYTE   W04
 BYTE   W03
 BYTE   W03
 BYTE   W04
 BYTE   W02
 BYTE   N21  Dn4  v076
 BYTE   W07
 BYTE   W05
 BYTE   W04
 BYTE   W05
 BYTE   N02  En4  v080
 BYTE   W03
 BYTE   N03  Fn4  v072
 BYTE   W02
 BYTE   W01
 BYTE   N66  Gn4  v068
 BYTE   W01
 BYTE   W01
 BYTE   W12
 BYTE   W07
 BYTE   W06
 BYTE   W06
 BYTE   W06
 BYTE   W06
 BYTE   W01
// 019   ----------------------------------------
 BYTE   W02
 BYTE   W03
 BYTE   W03
 BYTE   W03
 BYTE   W03
 BYTE   W03
 BYTE   W03
 BYTE   W01
 BYTE   W01
 BYTE   W01
 BYTE   W01
 BYTE   N19  Dn5  v072
 BYTE   W11
 BYTE   W06
 BYTE   W04
 BYTE   N02  Cn5  v076
 BYTE   W02
 BYTE   N03  Dn5  v080
 BYTE   W04
 BYTE   N20  Cn5  v040
 BYTE   W02
 BYTE   W06
 BYTE   W06
 BYTE   W06
 BYTE   N24  An4  v076
 BYTE   W01
 BYTE   W04
 BYTE   W03
 BYTE   W04
 BYTE   W04
 BYTE   W03
 BYTE   W06
// 020   ----------------------------------------
 BYTE   N30  Gn4  v068
 BYTE   W08
 BYTE   W06
 BYTE   W07
 BYTE   W07
 BYTE   W07
 BYTE   W06
 BYTE   W04
 BYTE   N01  Dn5  v072
 BYTE   W02
 BYTE   N03  En5  v076
 BYTE   W04
 BYTE   N68  Dn5  v056
 BYTE   W01
 BYTE   W01
 BYTE   W02
 BYTE   W01
 BYTE   W01
 BYTE   W11
 BYTE   W06
 BYTE   W06
 BYTE   W06
 BYTE   W06
 BYTE   W04
// 021   ----------------------------------------
 BYTE   W02
 BYTE   W04
 BYTE   W03
 BYTE   W02
 BYTE   W01
 BYTE   W02
 BYTE   W01
 BYTE   W02
 BYTE   W01
 BYTE   W02
 BYTE   W01
 BYTE   W02
 BYTE   W01
 BYTE   W02
 BYTE   W01
 BYTE   W02
 BYTE   W02
 BYTE   W01
 BYTE   W02
 BYTE   W01
 BYTE   W02
 BYTE   W01
 BYTE   W02
 BYTE   W01
 BYTE   W02
 BYTE   W01
 BYTE   W01
 BYTE   W01
 BYTE   W03
 BYTE   VOL   62*FE12ExpeditionSwiftSaturn_mvl/mxv
 BYTE   PAN   c_v+20
 BYTE   W44
 BYTE   W03
// 022   ----------------------------------------
 BYTE   W01
 BYTE   W23
 BYTE   N03  As2  v108
 BYTE   W13
 BYTE   As2  v100
 BYTE   W10
 BYTE   W01
 BYTE   W01
 BYTE   N24  An2  v112
 BYTE   W01
 BYTE   W01
 BYTE   W01
 BYTE   W01
 BYTE   W01
 BYTE   W01
 BYTE   W02
 BYTE   W01
 BYTE   W02
 BYTE   W01
 BYTE   W02
 BYTE   W01
 BYTE   W02
 BYTE   W01
 BYTE   W02
 BYTE   W01
 BYTE   W02
 BYTE   W01
 BYTE   W02
 BYTE   W01
 BYTE   W01
 BYTE   W03
 BYTE   W03
 BYTE   W01
 BYTE   N11  Gn2  v104
 BYTE   W02
 BYTE   W01
 BYTE   W02
 BYTE   W01
 BYTE   W02
 BYTE   W01
 BYTE   W02
 BYTE   N03  As2  v100
 BYTE   W01
// 023   ----------------------------------------
 BYTE   W01
 BYTE   W10
 BYTE   N04  As1
 BYTE   W12
 BYTE   N24  Cn2  v120
 BYTE   W03
 BYTE   W01
 BYTE   W01
 BYTE   W03
 BYTE   W01
 BYTE   W02
 BYTE   W01
 BYTE   W02
 BYTE   W01
 BYTE   W02
 BYTE   W01
 BYTE   W02
 BYTE   W01
 BYTE   W02
 BYTE   W01
 BYTE   W02
 BYTE   W01
 BYTE   W09
 BYTE   N11  Dn2  v112
 BYTE   W12
 BYTE   N04  Cn2  v104
 BYTE   W12
 BYTE   N05  An1  v100
 BYTE   W11
 BYTE   N07  As1  v096
 BYTE   W02
// 024   ----------------------------------------
 BYTE   W96
// 025   ----------------------------------------
 BYTE   W96
// 026   ----------------------------------------
 BYTE   W01
 BYTE   W22
 BYTE   W01
 BYTE   N03  En3  v108
 BYTE   W13
 BYTE   En3  v100
 BYTE   W10
 BYTE   W01
 BYTE   W01
 BYTE   N24  Dn3  v108
 BYTE   W01
 BYTE   W01
 BYTE   W01
 BYTE   W01
 BYTE   W01
 BYTE   W01
 BYTE   W02
 BYTE   W01
 BYTE   W02
 BYTE   W01
 BYTE   W02
 BYTE   W01
 BYTE   W02
 BYTE   W01
 BYTE   W02
 BYTE   W01
 BYTE   W02
 BYTE   W01
 BYTE   W02
 BYTE   W01
 BYTE   W01
 BYTE   W03
 BYTE   W03
 BYTE   W01
 BYTE   N11  Cn3  v104
 BYTE   W02
 BYTE   W01
 BYTE   W02
 BYTE   W01
 BYTE   W02
 BYTE   W01
 BYTE   W02
 BYTE   N03  En3
 BYTE   W01
// 027   ----------------------------------------
 BYTE   W01
 BYTE   W10
 BYTE   N04  Fn2  v100
 BYTE   W12
 BYTE   N24  An2  v120
 BYTE   W03
 BYTE   W01
 BYTE   W01
 BYTE   W03
 BYTE   W01
 BYTE   W02
 BYTE   W01
 BYTE   W02
 BYTE   W01
 BYTE   W02
 BYTE   W01
 BYTE   W02
 BYTE   W01
 BYTE   W02
 BYTE   W01
 BYTE   W02
 BYTE   W01
 BYTE   W09
 BYTE   N11  Cn3  v112
 BYTE   W12
 BYTE   N04  As2  v104
 BYTE   W12
 BYTE   N05  Gn2  v100
 BYTE   W11
 BYTE   N07
 BYTE   W02
// 028   ----------------------------------------
 BYTE   W96
// 029   ----------------------------------------
 BYTE   W01
 BYTE   VOL   49*FE12ExpeditionSwiftSaturn_mvl/mxv
 BYTE   PAN   c_v-24
 BYTE   W92
 BYTE   W03
// 030   ----------------------------------------
 BYTE   W01
 BYTE   W09
 BYTE   N02  Dn0  v080
 BYTE   W06
 BYTE   Dn0  v076
 BYTE   W06
 BYTE   Dn0  v052
 BYTE   W06
 BYTE   Dn0  v072
 BYTE   W06
 BYTE   Dn0  v064
 BYTE   W02
 BYTE   W04
 BYTE   Dn0  v072
 BYTE   W06
 BYTE   Dn0  v060
 BYTE   W06
 BYTE   Dn0  v088
 BYTE   W05
 BYTE   Dn0  v080
 BYTE   W07
 BYTE   Dn0  v076
 BYTE   W06
 BYTE   Dn0  v052
 BYTE   W02
 BYTE   W04
 BYTE   Dn0  v072
 BYTE   W06
 BYTE   Dn0  v064
 BYTE   W06
 BYTE   Dn0  v072
 BYTE   W05
 BYTE   W01
 BYTE   N02
 BYTE   W02
// 031   ----------------------------------------
 BYTE   W04
 BYTE   Dn0  v084
 BYTE   W06
 BYTE   Dn0  v080
 BYTE   W06
 BYTE   Dn0  v076
 BYTE   W02
 BYTE   W04
 BYTE   Dn0  v052
 BYTE   W04
 BYTE   W02
 BYTE   Dn0  v072
 BYTE   W05
 BYTE   W01
 BYTE   Dn0  v064
 BYTE   W06
 BYTE   Dn0  v072
 BYTE   W06
 BYTE   Dn0  v060
 BYTE   W01
 BYTE   W05
 BYTE   Dn0  v088
 BYTE   W02
 BYTE   W04
 BYTE   Dn0  v080
 BYTE   W03
 BYTE   W03
 BYTE   Dn0  v076
 BYTE   W04
 BYTE   W02
 BYTE   Dn0  v056
 BYTE   W05
 BYTE   W01
 BYTE   Dn0  v080
 BYTE   W06
 BYTE   Dn0  v068
 BYTE   W01
 BYTE   W05
 BYTE   Dn0  v080
 BYTE   W02
 BYTE   W04
 BYTE   Dn0  v068
 BYTE   W02
// 032   ----------------------------------------
 BYTE   W01
 BYTE   W05
 BYTE   GoTo
  POIN2 Label_5_01800A22
// 033   ----------------------------------------
 BYTE   W90
 BYTE   W96
 BYTE   FINE

//**************** Track 7 (Midi-Chn.6) ****************//

FE12ExpeditionSwiftSaturn_007:
// 000   ----------------------------------------
 BYTE   KEYSH   FE12ExpeditionSwiftSaturn_key+0
Label_6_01800D72:
 BYTE   VOICE   73
 BYTE   W96
// 001   ----------------------------------------
 BYTE   W96
// 002   ----------------------------------------
 BYTE   W01
 BYTE   VOL   56*FE12ExpeditionSwiftSaturn_mvl/mxv
 BYTE   PAN   c_v-14
 BYTE   W07
 BYTE   W16
 BYTE   N19  Gn3  v080
 BYTE   W01
 BYTE   W02
 BYTE   W01
 BYTE   W03
 BYTE   W03
 BYTE   W03
 BYTE   W03
 BYTE   W03
 BYTE   W01
 BYTE   N01  An3  v076
 BYTE   W01
 BYTE   N03  As3  v080
 BYTE   W01
 BYTE   W02
 BYTE   N02  Cn4  v072
 BYTE   W01
 BYTE   W01
 BYTE   W01
 BYTE   N60  Dn4
 BYTE   W01
 BYTE   W01
 BYTE   W02
 BYTE   W01
 BYTE   W01
 BYTE   W14
 BYTE   W07
 BYTE   W07
 BYTE   W07
 BYTE   W04
// 003   ----------------------------------------
 BYTE   W02
 BYTE   W03
 BYTE   W01
 BYTE   W02
 BYTE   W01
 BYTE   W02
 BYTE   W01
 BYTE   W02
 BYTE   W01
 BYTE   W02
 BYTE   W01
 BYTE   W01
 BYTE   W01
 BYTE   W01
 BYTE   W01
 BYTE   W01
 BYTE   W01
 BYTE   N19  Fn4
 BYTE   W01
 BYTE   W01
 BYTE   W01
 BYTE   W02
 BYTE   W01
 BYTE   W02
 BYTE   W01
 BYTE   W02
 BYTE   W01
 BYTE   W02
 BYTE   W01
 BYTE   W02
 BYTE   W04
 BYTE   N01  En4  v068
 BYTE   W02
 BYTE   N02  Fn4  v080
 BYTE   W03
 BYTE   N21  En4  v076
 BYTE   W04
 BYTE   W06
 BYTE   W07
 BYTE   W05
 BYTE   N23  Cn4  v072
 BYTE   W01
 BYTE   W09
 BYTE   W05
 BYTE   W04
 BYTE   W05
// 004   ----------------------------------------
 BYTE   N28  Dn4  v076
 BYTE   W01
 BYTE   W01
 BYTE   W03
 BYTE   W03
 BYTE   W03
 BYTE   W04
 BYTE   W03
 BYTE   W03
 BYTE   W03
 BYTE   W03
 BYTE   W03
 BYTE   W03
 BYTE   W03
 BYTE   W03
 BYTE   W03
 BYTE   W02
 BYTE   N01  Gn3  v080
 BYTE   W01
 BYTE   W01
 BYTE   N03  An3
 BYTE   W02
 BYTE   W01
 BYTE   N66  Gn3  v056
 BYTE   W02
 BYTE   W01
 BYTE   W01
 BYTE   W05
 BYTE   W05
 BYTE   W05
 BYTE   W05
 BYTE   W06
 BYTE   W05
 BYTE   W01
 BYTE   W02
 BYTE   W01
 BYTE   W02
 BYTE   W01
 BYTE   W02
 BYTE   W01
 BYTE   W02
// 005   ----------------------------------------
 BYTE   W05
 BYTE   W06
 BYTE   W01
 BYTE   W02
 BYTE   W01
 BYTE   W02
 BYTE   W01
 BYTE   W02
 BYTE   W01
 BYTE   W02
 BYTE   W01
 BYTE   W01
 BYTE   N23  Gn3  v072
 BYTE   W12
 BYTE   W06
 BYTE   W05
 BYTE   N21  Fn3  v076
 BYTE   W01
 BYTE   W07
 BYTE   W06
 BYTE   W06
 BYTE   W02
 BYTE   N03  Gn3  v080
 BYTE   W03
 BYTE   N23  An3
 BYTE   W01
 BYTE   W06
 BYTE   W07
 BYTE   W06
 BYTE   W03
// 006   ----------------------------------------
 BYTE   W01
 BYTE   N24  Gn3
 BYTE   W02
 BYTE   W06
 BYTE   W05
 BYTE   W03
 BYTE   W01
 BYTE   W03
 BYTE   W02
 BYTE   W01
 BYTE   W02
 BYTE   W01
 BYTE   W02
 BYTE   W01
 BYTE   W02
 BYTE   W01
 BYTE   W02
 BYTE   W01
 BYTE   W02
 BYTE   W01
 BYTE   W02
 BYTE   W01
 BYTE   W01
 BYTE   N01  Fn3
 BYTE   W01
 BYTE   W01
 BYTE   N03  Gn3
 BYTE   W02
 BYTE   W01
 BYTE   N66  Fn3  v060
 BYTE   W01
 BYTE   W01
 BYTE   W02
 BYTE   W01
 BYTE   W02
 BYTE   W01
 BYTE   W02
 BYTE   W01
 BYTE   W01
 BYTE   W09
 BYTE   W04
 BYTE   W05
 BYTE   W04
 BYTE   W04
 BYTE   W05
 BYTE   W04
 BYTE   W01
// 007   ----------------------------------------
 BYTE   W03
 BYTE   W02
 BYTE   W01
 BYTE   W02
 BYTE   W01
 BYTE   W02
 BYTE   W01
 BYTE   W02
 BYTE   W01
 BYTE   W02
 BYTE   W01
 BYTE   W02
 BYTE   W01
 BYTE   W01
 BYTE   W01
 BYTE   N20  Gn3  v080
 BYTE   W01
 BYTE   W09
 BYTE   W05
 BYTE   W05
 BYTE   W01
 BYTE   N01  An3  v076
 BYTE   W02
 BYTE   N02  As3  v060
 BYTE   W01
 BYTE   W02
 BYTE   N22  Cn4  v076
 BYTE   W03
 BYTE   W05
 BYTE   W10
 BYTE   W04
 BYTE   N24  As3  v084
 BYTE   W06
 BYTE   W10
 BYTE   W09
// 008   ----------------------------------------
 BYTE   N32  Gn3  v080
 BYTE   W02
 BYTE   W10
 BYTE   W10
 BYTE   W10
 BYTE   W05
 BYTE   N06  Gs3  v076
 BYTE   W05
 BYTE   W01
 BYTE   Gn3  v064
 BYTE   W07
 BYTE   N64  Fn3  v068
 BYTE   W03
 BYTE   W01
 BYTE   W02
 BYTE   W01
 BYTE   W02
 BYTE   W12
 BYTE   W06
 BYTE   W06
 BYTE   W06
 BYTE   W06
 BYTE   W01
// 009   ----------------------------------------
 BYTE   W02
 BYTE   W03
 BYTE   W03
 BYTE   W03
 BYTE   W03
 BYTE   W03
 BYTE   W01
 BYTE   W02
 BYTE   W01
 BYTE   W02
 BYTE   W01
 BYTE   N24  Gn3  v072
 BYTE   W01
 BYTE   W24
 BYTE   W01
 BYTE   N22  Cn3  v060
 BYTE   W23
 BYTE   Fn3  v064
 BYTE   W23
// 010   ----------------------------------------
 BYTE   Gn3
 BYTE   W03
 BYTE   W02
 BYTE   W03
 BYTE   W01
 BYTE   W02
 BYTE   W01
 BYTE   W02
 BYTE   W01
 BYTE   W02
 BYTE   W01
 BYTE   W02
 BYTE   W01
 BYTE   W02
 BYTE   W02
 BYTE   W01
 BYTE   W02
 BYTE   W01
 BYTE   W02
 BYTE   W01
 BYTE   W02
 BYTE   W01
 BYTE   W02
 BYTE   W56
 BYTE   W03
// 011   ----------------------------------------
 BYTE   W96
// 012   ----------------------------------------
 BYTE   W96
// 013   ----------------------------------------
 BYTE   W96
// 014   ----------------------------------------
 BYTE   W96
// 015   ----------------------------------------
 BYTE   W96
// 016   ----------------------------------------
 BYTE   W96
// 017   ----------------------------------------
 BYTE   W96
// 018   ----------------------------------------
 BYTE   W01
 BYTE   W06
 BYTE   W04
 BYTE   W03
 BYTE   W03
 BYTE   W04
 BYTE   W03
 BYTE   N19  Gn3  v080
 BYTE   W06
 BYTE   W05
 BYTE   W04
 BYTE   W05
 BYTE   N01  An3  v076
 BYTE   W01
 BYTE   N03  As3  v080
 BYTE   W03
 BYTE   N02  Cn4  v072
 BYTE   W01
 BYTE   W01
 BYTE   W01
 BYTE   N60  Dn4
 BYTE   W01
 BYTE   W12
 BYTE   W07
 BYTE   W06
 BYTE   W06
 BYTE   W06
 BYTE   W06
 BYTE   W01
// 019   ----------------------------------------
 BYTE   W02
 BYTE   W03
 BYTE   W03
 BYTE   W03
 BYTE   W03
 BYTE   W03
 BYTE   W03
 BYTE   W01
 BYTE   W01
 BYTE   W01
 BYTE   W01
 BYTE   N19  Fn4
 BYTE   W11
 BYTE   W06
 BYTE   W04
 BYTE   N01  En4  v068
 BYTE   W02
 BYTE   N02  Fn4  v080
 BYTE   W03
 BYTE   N21  En4  v076
 BYTE   W03
 BYTE   W06
 BYTE   W06
 BYTE   W07
 BYTE   N23  Cn4  v072
 BYTE   W04
 BYTE   W03
 BYTE   W04
 BYTE   W04
 BYTE   W03
 BYTE   W06
// 020   ----------------------------------------
 BYTE   N28  Dn4  v076
 BYTE   W08
 BYTE   W06
 BYTE   W07
 BYTE   W07
 BYTE   W07
 BYTE   W06
 BYTE   W03
 BYTE   N01  Gn4  v080
 BYTE   W02
 BYTE   N03  An4
 BYTE   W03
 BYTE   N68  Gn4  v056
 BYTE   W03
 BYTE   W01
 BYTE   W02
 BYTE   W01
 BYTE   W01
 BYTE   W11
 BYTE   W06
 BYTE   W06
 BYTE   W06
 BYTE   W06
 BYTE   W04
// 021   ----------------------------------------
 BYTE   W02
 BYTE   W04
 BYTE   W03
 BYTE   W02
 BYTE   W01
 BYTE   W02
 BYTE   W01
 BYTE   W02
 BYTE   W01
 BYTE   W02
 BYTE   W01
 BYTE   W02
 BYTE   W01
 BYTE   W02
 BYTE   W01
 BYTE   W02
 BYTE   W02
 BYTE   W01
 BYTE   W02
 BYTE   W01
 BYTE   W02
 BYTE   W01
 BYTE   W02
 BYTE   W01
 BYTE   W02
 BYTE   W01
 BYTE   W01
 BYTE   W01
 BYTE   W48
 BYTE   W02
// 022   ----------------------------------------
 BYTE   W24
 BYTE   W01
 BYTE   N01  As2  v076
 BYTE   W11
 BYTE   N02
 BYTE   W09
 BYTE   W01
 BYTE   W01
 BYTE   W01
 BYTE   W01
 BYTE   N24  An2  v084
 BYTE   W01
 BYTE   W01
 BYTE   W05
 BYTE   W01
 BYTE   W02
 BYTE   W01
 BYTE   W02
 BYTE   W01
 BYTE   W02
 BYTE   W01
 BYTE   W02
 BYTE   W01
 BYTE   W03
 BYTE   W02
 BYTE   W03
 BYTE   W03
 BYTE   W02
 BYTE   W01
 BYTE   W01
 BYTE   N11  Gn2  v076
 BYTE   W01
 BYTE   W01
 BYTE   W02
 BYTE   W01
 BYTE   W02
 BYTE   W01
 BYTE   W02
 BYTE   W02
// 023   ----------------------------------------
 BYTE   N03  As2  v084
 BYTE   W12
 BYTE   N03
 BYTE   W12
 BYTE   N30  Cn3  v096
 BYTE   W01
 BYTE   W01
 BYTE   W01
 BYTE   W02
 BYTE   W01
 BYTE   W02
 BYTE   W01
 BYTE   W02
 BYTE   W01
 BYTE   W02
 BYTE   W01
 BYTE   W02
 BYTE   W01
 BYTE   W02
 BYTE   W01
 BYTE   W02
 BYTE   W01
 BYTE   W13
 BYTE   N10  Dn3  v092
 BYTE   W11
 BYTE   N03  Cn3  v080
 BYTE   W11
 BYTE   An2  v084
 BYTE   W12
 BYTE   N05  Gn2
 BYTE   W01
// 024   ----------------------------------------
 BYTE   W96
// 025   ----------------------------------------
 BYTE   W96
// 026   ----------------------------------------
 BYTE   W01
 BYTE   W24
 BYTE   N01  En3  v076
 BYTE   W11
 BYTE   N02
 BYTE   W11
 BYTE   W01
 BYTE   W01
 BYTE   N24  Dn3  v080
 BYTE   W01
 BYTE   W01
 BYTE   W01
 BYTE   W01
 BYTE   W01
 BYTE   W01
 BYTE   W02
 BYTE   W01
 BYTE   W02
 BYTE   W01
 BYTE   W02
 BYTE   W01
 BYTE   W02
 BYTE   W01
 BYTE   W02
 BYTE   W01
 BYTE   W02
 BYTE   W01
 BYTE   W02
 BYTE   W01
 BYTE   W01
 BYTE   W03
 BYTE   W03
 BYTE   W01
 BYTE   N11  Cn3  v076
 BYTE   W02
 BYTE   W01
 BYTE   W02
 BYTE   W01
 BYTE   W02
 BYTE   W01
 BYTE   W02
 BYTE   W01
// 027   ----------------------------------------
 BYTE   N03  En3  v088
 BYTE   W01
 BYTE   W11
 BYTE   N01  Fn2  v108
 BYTE   W12
 BYTE   N30  An2  v100
 BYTE   W02
 BYTE   W01
 BYTE   W01
 BYTE   W01
 BYTE   W02
 BYTE   W01
 BYTE   W02
 BYTE   W01
 BYTE   W02
 BYTE   W01
 BYTE   W02
 BYTE   W01
 BYTE   W02
 BYTE   W01
 BYTE   W02
 BYTE   W01
 BYTE   W02
 BYTE   W01
 BYTE   W11
 BYTE   N10  Cn3  v092
 BYTE   W11
 BYTE   N03  As2  v080
 BYTE   W11
 BYTE   Gn2  v084
 BYTE   W12
 BYTE   N05
 BYTE   W01
// 028   ----------------------------------------
 BYTE   W96
// 029   ----------------------------------------
 BYTE   W96
// 030   ----------------------------------------
 BYTE   W01
 BYTE   W24
 BYTE   N04  An2  v092
 BYTE   N05  Dn3  v096
 BYTE   W24
 BYTE   N48  An2  v080
 BYTE   N48  Dn3  v088
 BYTE   W44
 BYTE   W03
// 031   ----------------------------------------
 BYTE   W24
 BYTE   W01
 BYTE   N07  As2  v104
 BYTE   N09  Fn3  v096
 BYTE   W23
 BYTE   N10  An2  v088
 BYTE   N12  En3  v084
 BYTE   W24
 BYTE   W01
 BYTE   N14  Cn3  v092
 BYTE   W23
// 032   ----------------------------------------
 BYTE   W01
 BYTE   N07  Dn3
 BYTE   W05
 BYTE   GoTo
  POIN2 Label_6_01800D72
// 033   ----------------------------------------
 BYTE   W90
 BYTE   W96
 BYTE   FINE

//**************** Track 8 (Midi-Chn.7) ****************//

FE12ExpeditionSwiftSaturn_008:
// 000   ----------------------------------------
 BYTE   KEYSH   FE12ExpeditionSwiftSaturn_key+0
Label_7_0180105E:
 BYTE   VOICE   122
 BYTE   VOL   69*FE12ExpeditionSwiftSaturn_mvl/mxv
 BYTE   PAN   c_v-17
 BYTE   N03  Dn2  v084
 BYTE   W01
 BYTE   W11
 BYTE   N05
 BYTE   W06
 BYTE   En2  v072
 BYTE   W06
 BYTE   N06  Fn2  v076
 BYTE   W13
 BYTE   N04  En2
 BYTE   W05
 BYTE   N05  Fn2  v060
 BYTE   W06
 BYTE   N06  Gn2  v056
 BYTE   W07
 BYTE   N05  An2  v064
 BYTE   W06
 BYTE   Gn2  v052
 BYTE   W05
 BYTE   Fn2  v064
 BYTE   W06
 BYTE   En2  v068
 BYTE   W06
 BYTE   Dn2  v056
 BYTE   W06
 BYTE   Cn2  v072
 BYTE   W06
 BYTE   En2  v052
 BYTE   W06
// 001   ----------------------------------------
Label_7_01801093:
 BYTE   N04  Dn2  v072
 BYTE   W12
 BYTE   N05  As1
 BYTE   W06
 BYTE   N06  Cn2  v060
 BYTE   W07
 BYTE   N04  Dn2  v080
 BYTE   W12
 BYTE   N05  An1  v072
 BYTE   W06
 BYTE   As1  v060
 BYTE   W06
 BYTE   N06  Cn2  v056
 BYTE   W06
 BYTE   Dn2  v068
 BYTE   W06
 BYTE   N03  Cn2  v048
 BYTE   W05
 BYTE   N05  As1  v072
 BYTE   W06
 BYTE   An1
 BYTE   W06
 BYTE   Gn1  v076
 BYTE   W06
 BYTE   Fn1  v072
 BYTE   W06
 BYTE   An1  v068
 BYTE   W06
 BYTE   PEND 
// 002   ----------------------------------------
 BYTE   N03  Gn1  v088
 BYTE   W12
 BYTE   N05  Dn2  v080
 BYTE   W06
 BYTE   En2  v072
 BYTE   W06
 BYTE   N06  Fn2  v080
 BYTE   W13
 BYTE   N04  En2
 BYTE   W05
 BYTE   N05  Fn2  v068
 BYTE   W06
 BYTE   N06  Gn2  v060
 BYTE   W07
 BYTE   N05  An2  v068
 BYTE   W06
 BYTE   Gn2  v060
 BYTE   W05
 BYTE   Fn2  v068
 BYTE   W06
 BYTE   En2  v072
 BYTE   W06
 BYTE   Dn2  v060
 BYTE   W06
 BYTE   Cn2  v076
 BYTE   W06
 BYTE   En2  v060
 BYTE   W06
// 003   ----------------------------------------
Label_7_018010F4:
 BYTE   N04  Dn2  v080
 BYTE   W12
 BYTE   N05  As1  v076
 BYTE   W06
 BYTE   N06  Cn2  v068
 BYTE   W07
 BYTE   N04  Dn2  v084
 BYTE   W12
 BYTE   N05  An1  v076
 BYTE   W06
 BYTE   As1  v064
 BYTE   W06
 BYTE   N06  Cn2  v060
 BYTE   W06
 BYTE   Dn2  v072
 BYTE   W06
 BYTE   N03  Cn2  v056
 BYTE   W05
 BYTE   N05  As1  v076
 BYTE   W06
 BYTE   An1
 BYTE   W06
 BYTE   Gn1  v080
 BYTE   W06
 BYTE   Fn1  v076
 BYTE   W06
 BYTE   An1  v072
 BYTE   W06
 BYTE   PEND 
// 004   ----------------------------------------
Label_7_01801126:
 BYTE   N03  Gn1  v088
 BYTE   W12
 BYTE   N05  Gn1  v100
 BYTE   W06
 BYTE   An1  v076
 BYTE   W06
 BYTE   N06  As1  v080
 BYTE   W13
 BYTE   N04  An1
 BYTE   W05
 BYTE   N05  As1  v068
 BYTE   W06
 BYTE   N06  Cn2  v060
 BYTE   W13
 BYTE   N05  As1
 BYTE   W05
 BYTE   Cn2  v068
 BYTE   W06
 BYTE   Dn2  v072
 BYTE   W12
 BYTE   Dn2  v076
 BYTE   W06
 BYTE   An2  v072
 BYTE   W06
 BYTE   PEND 
// 005   ----------------------------------------
Label_7_01801150:
 BYTE   N04  Gn2  v080
 BYTE   W12
 BYTE   N05  As2  v076
 BYTE   W06
 BYTE   N06  An2  v068
 BYTE   W07
 BYTE   N04  Gn2  v084
 BYTE   W12
 BYTE   N05  Dn2  v076
 BYTE   W06
 BYTE   Cn2  v064
 BYTE   W06
 BYTE   N06  Dn2  v060
 BYTE   W12
 BYTE   N05  Dn2  v072
 BYTE   W05
 BYTE   En2  v076
 BYTE   W06
 BYTE   Fn2
 BYTE   W06
 BYTE   En2  v080
 BYTE   W06
 BYTE   Dn2  v076
 BYTE   W06
 BYTE   Cn2  v072
 BYTE   W06
 BYTE   PEND 
// 006   ----------------------------------------
 BYTE   N03  Cn2  v088
 BYTE   W12
 BYTE   N05
 BYTE   W06
 BYTE   Dn2  v076
 BYTE   W06
 BYTE   N06  Ds2  v080
 BYTE   W13
 BYTE   N04  Dn2  v088
 BYTE   W05
 BYTE   N05  Ds2  v072
 BYTE   W06
 BYTE   N06  Fn2  v068
 BYTE   W13
 BYTE   N05  Ds2  v088
 BYTE   W05
 BYTE   Fn2  v084
 BYTE   W06
 BYTE   Gn2  v088
 BYTE   W12
 BYTE   Fn2  v100
 BYTE   W06
 BYTE   Gn2  v076
 BYTE   W06
// 007   ----------------------------------------
 BYTE   N04  Gs2  v096
 BYTE   W12
 BYTE   N05  Gn2  v100
 BYTE   W06
 BYTE   N06  Gs2  v088
 BYTE   W07
 BYTE   N04  As2  v108
 BYTE   W12
 BYTE   N05  Gs2  v100
 BYTE   W06
 BYTE   As2  v088
 BYTE   W06
 BYTE   N04  Cn3  v084
 BYTE   W12
 BYTE   N06  Dn3  v096
 BYTE   W06
 BYTE   N05  Cn3  v068
 BYTE   W05
 BYTE   As2  v088
 BYTE   W06
 BYTE   Gs2  v092
 BYTE   W06
 BYTE   Gn2  v088
 BYTE   W06
 BYTE   Fn2  v084
 BYTE   W06
// 008   ----------------------------------------
 BYTE   N03  Ds2  v088
 BYTE   W12
 BYTE   N05  Cn2  v092
 BYTE   W06
 BYTE   Dn2  v076
 BYTE   W06
 BYTE   N06  Ds2  v080
 BYTE   W13
 BYTE   N04  Gs1  v104
 BYTE   W05
 BYTE   N05  As1  v084
 BYTE   W06
 BYTE   N06  Cn2  v080
 BYTE   W13
 BYTE   N05  As1  v092
 BYTE   W05
 BYTE   Cn2  v064
 BYTE   W06
 BYTE   Dn2  v088
 BYTE   W06
 BYTE   Ds2  v092
 BYTE   W06
 BYTE   Fn2  v084
 BYTE   W06
 BYTE   Gn2  v080
 BYTE   W06
// 009   ----------------------------------------
 BYTE   N04  Gs2
 BYTE   W12
 BYTE   N05  Gn2  v076
 BYTE   W06
 BYTE   N06  Gs2  v068
 BYTE   W07
 BYTE   N04  As2  v084
 BYTE   W12
 BYTE   N05  Gs2  v076
 BYTE   W06
 BYTE   As2  v064
 BYTE   W06
 BYTE   Cn3  v060
 BYTE   W05
 BYTE   As2  v080
 BYTE   W06
 BYTE   Gs2  v076
 BYTE   W06
 BYTE   Gn2  v072
 BYTE   W06
 BYTE   Fn2  v076
 BYTE   W06
 BYTE   Ds2  v080
 BYTE   W06
 BYTE   Dn2  v076
 BYTE   W06
 BYTE   Cn2  v072
 BYTE   W06
// 010   ----------------------------------------
 BYTE   N03  As1  v064
 BYTE   W12
 BYTE   N05  Dn2  v092
 BYTE   W06
 BYTE   En2  v076
 BYTE   W06
 BYTE   N06  Fn2  v080
 BYTE   W13
 BYTE   N04  En2
 BYTE   W05
 BYTE   N05  Fn2  v068
 BYTE   W06
 BYTE   N06  Gn2  v060
 BYTE   W07
 BYTE   N05  An2  v068
 BYTE   W06
 BYTE   Gn2  v060
 BYTE   W05
 BYTE   Fn2  v068
 BYTE   W06
 BYTE   En2  v072
 BYTE   W06
 BYTE   Dn2  v060
 BYTE   W06
 BYTE   Cn2  v076
 BYTE   W06
 BYTE   En2  v060
 BYTE   W06
 BYTE   PATT
  POIN2 Label_7_018010F4
// 011   ----------------------------------------
 BYTE   N03  Gn1  v088
 BYTE   W12
 BYTE   N05  Gn1  v100
 BYTE   W06
 BYTE   An1  v076
 BYTE   W06
 BYTE   N06  As1  v080
 BYTE   W13
 BYTE   N04
 BYTE   W05
 BYTE   N05  Cn2  v068
 BYTE   W06
 BYTE   N06  Dn2  v060
 BYTE   W13
 BYTE   N05  Dn2  v076
 BYTE   W05
 BYTE   En2  v068
 BYTE   W06
 BYTE   Fn2  v072
 BYTE   W12
 BYTE   Fn2  v080
 BYTE   W06
 BYTE   Gn2  v072
 BYTE   W06
// 012   ----------------------------------------
 BYTE   N04  An2  v080
 BYTE   W12
 BYTE   N05  Cn3  v076
 BYTE   W06
 BYTE   N06  As2  v068
 BYTE   W07
 BYTE   N04  An2  v084
 BYTE   W12
 BYTE   N05  As2  v076
 BYTE   W06
 BYTE   An2  v064
 BYTE   W06
 BYTE   N06  Gn2  v060
 BYTE   W12
 BYTE   N05  An2  v072
 BYTE   W05
 BYTE   Gn2  v076
 BYTE   W06
 BYTE   Fn2
 BYTE   W06
 BYTE   En2  v080
 BYTE   W06
 BYTE   Dn2  v076
 BYTE   W06
 BYTE   Cn2  v072
 BYTE   W06
// 013   ----------------------------------------
 BYTE   N03  Cn2  v088
 BYTE   W12
 BYTE   N05  Gs1
 BYTE   W06
 BYTE   As1  v076
 BYTE   W06
 BYTE   N06  Cn2  v080
 BYTE   W13
 BYTE   N04  Cn2  v088
 BYTE   W05
 BYTE   N05  Dn2  v072
 BYTE   W06
 BYTE   N06  Ds2  v068
 BYTE   W13
 BYTE   N05  Dn2  v088
 BYTE   W05
 BYTE   Ds2  v084
 BYTE   W06
 BYTE   Fn2  v088
 BYTE   W12
 BYTE   Fn2  v100
 BYTE   W06
 BYTE   Gn2  v076
 BYTE   W06
// 014   ----------------------------------------
 BYTE   N04  Gs2  v096
 BYTE   W12
 BYTE   N05  Ds3  v100
 BYTE   W06
 BYTE   N06  Dn3  v088
 BYTE   W07
 BYTE   N04  Cn3  v108
 BYTE   W12
 BYTE   N05  As2  v100
 BYTE   W06
 BYTE   Gs2  v088
 BYTE   W06
 BYTE   N04  Gn2  v084
 BYTE   W11
 BYTE   N06  Fn2  v096
 BYTE   W07
 BYTE   N05  Ds2  v068
 BYTE   W05
 BYTE   Dn2  v088
 BYTE   W06
 BYTE   Ds2  v092
 BYTE   W06
 BYTE   Fn2  v088
 BYTE   W06
 BYTE   As1  v084
 BYTE   W06
// 015   ----------------------------------------
 BYTE   N03  Cn2  v096
 BYTE   W02
 BYTE   W01
 BYTE   W02
 BYTE   W01
 BYTE   N05  Fn1  v100
 BYTE   W02
 BYTE   W01
 BYTE   W02
 BYTE   W01
 BYTE   Gn1  v084
 BYTE   W02
 BYTE   W01
 BYTE   W02
 BYTE   W01
 BYTE   Gs1  v072
 BYTE   W01
 BYTE   W05
 BYTE   As1  v096
 BYTE   W07
 BYTE   N04  Gn1
 BYTE   W05
 BYTE   N05  Gs1  v092
 BYTE   W06
 BYTE   As1  v072
 BYTE   W06
 BYTE   N06  Cn2  v088
 BYTE   W07
 BYTE   N05  As1  v100
 BYTE   W01
 BYTE   W04
 BYTE   Cn2  v072
 BYTE   W06
 BYTE   Dn2
 BYTE   W04
 BYTE   W02
 BYTE   Ds2  v096
 BYTE   W06
 BYTE   Dn2  v100
 BYTE   W02
 BYTE   W04
 BYTE   Ds2  v092
 BYTE   W06
 BYTE   Fn2  v088
 BYTE   W04
 BYTE   W02
// 016   ----------------------------------------
 BYTE   N03  Gn2  v096
 BYTE   W06
 BYTE   N05  Fn2  v100
 BYTE   W01
 BYTE   W05
 BYTE   Gn2  v084
 BYTE   W06
 BYTE   Gs2  v072
 BYTE   W03
 BYTE   W04
 BYTE   As2  v096
 BYTE   W01
 BYTE   W05
 BYTE   N04  Gn2
 BYTE   W05
 BYTE   N05  Gs2  v092
 BYTE   W04
 BYTE   W02
 BYTE   As2  v072
 BYTE   W03
 BYTE   W03
 BYTE   N06  Cn3  v088
 BYTE   W02
 BYTE   W04
 BYTE   W01
 BYTE   N05  As2  v100
 BYTE   W04
 BYTE   W01
 BYTE   Cn3  v072
 BYTE   W04
 BYTE   W02
 BYTE   Dn3  v064
 BYTE   W02
 BYTE   W04
 BYTE   Ds3  v088
 BYTE   W01
 BYTE   W05
 BYTE   Fn3  v092
 BYTE   W04
 BYTE   W02
 BYTE   Gn3  v084
 BYTE   W03
 BYTE   W03
 BYTE   Gs3  v080
 BYTE   W02
 BYTE   W04
// 017   ----------------------------------------
 BYTE   N10  As3  v072
 BYTE   W01
 BYTE   W11
 BYTE   N05  Dn2  v088
 BYTE   W06
 BYTE   En2  v076
 BYTE   W06
 BYTE   N06  Fn2  v080
 BYTE   W13
 BYTE   N04  En2
 BYTE   W05
 BYTE   N05  Fn2  v068
 BYTE   W06
 BYTE   N06  Gn2  v060
 BYTE   W07
 BYTE   N05  An2  v068
 BYTE   W06
 BYTE   Gn2  v060
 BYTE   W05
 BYTE   Fn2  v068
 BYTE   W06
 BYTE   En2  v072
 BYTE   W06
 BYTE   Dn2  v060
 BYTE   W06
 BYTE   Cn2  v076
 BYTE   W06
 BYTE   En2  v060
 BYTE   W06
 BYTE   PATT
  POIN2 Label_7_018010F4
 BYTE   PATT
  POIN2 Label_7_01801126
 BYTE   PATT
  POIN2 Label_7_01801150
// 018   ----------------------------------------
 BYTE   W96
// 019   ----------------------------------------
 BYTE   W96
// 020   ----------------------------------------
 BYTE   W12
 BYTE   N05  Dn2  v084
 BYTE   W06
 BYTE   En2  v072
 BYTE   W06
 BYTE   N06  Fn2  v076
 BYTE   W13
 BYTE   N04  En2
 BYTE   W05
 BYTE   N05  Fn2  v060
 BYTE   W06
 BYTE   N06  Gn2  v056
 BYTE   W07
 BYTE   N05  An2  v064
 BYTE   W06
 BYTE   Gn2  v052
 BYTE   W05
 BYTE   Fn2  v064
 BYTE   W06
 BYTE   En2  v068
 BYTE   W06
 BYTE   Dn2  v056
 BYTE   W06
 BYTE   Cn2  v072
 BYTE   W06
 BYTE   En2  v052
 BYTE   W06
 BYTE   PATT
  POIN2 Label_7_01801093
// 021   ----------------------------------------
 BYTE   N05  Gn1  v080
 BYTE   W96
// 022   ----------------------------------------
 BYTE   W96
// 023   ----------------------------------------
 BYTE   W01
 BYTE   W11
 BYTE   Gn2  v072
 BYTE   W06
 BYTE   An2  v064
 BYTE   W06
 BYTE   N06  As2
 BYTE   W13
 BYTE   N04  An2
 BYTE   W05
 BYTE   N05  As2  v052
 BYTE   W06
 BYTE   N06  Cn3  v048
 BYTE   W07
 BYTE   N05  Dn3  v056
 BYTE   W06
 BYTE   Cn3  v044
 BYTE   W05
 BYTE   As2  v052
 BYTE   W06
 BYTE   An2  v056
 BYTE   W06
 BYTE   Gn2  v044
 BYTE   W06
 BYTE   Fn2  v060
 BYTE   W06
 BYTE   An2  v044
 BYTE   W06
// 024   ----------------------------------------
 BYTE   N04  Gn2  v064
 BYTE   W12
 BYTE   N05  Dn2
 BYTE   W06
 BYTE   N06  En2  v052
 BYTE   W07
 BYTE   N04  Fn2  v072
 BYTE   W12
 BYTE   N05  En2  v064
 BYTE   W06
 BYTE   Fn2  v048
 BYTE   W06
 BYTE   N06  Gn2  v044
 BYTE   W06
 BYTE   An2  v056
 BYTE   W06
 BYTE   N03  Gn2  v040
 BYTE   W05
 BYTE   N05  Fn2  v060
 BYTE   W06
 BYTE   En2  v064
 BYTE   W06
 BYTE   Dn2
 BYTE   W06
 BYTE   Cn2  v060
 BYTE   W06
 BYTE   En2  v056
 BYTE   W06
// 025   ----------------------------------------
 BYTE   Dn2  v072
 BYTE   W07
 BYTE   An1  v088
 BYTE   W05
 BYTE   As1  v084
 BYTE   W06
 BYTE   Cn2  v080
 BYTE   W06
 BYTE   Dn2  v084
 BYTE   W06
 BYTE   Cn2  v092
 BYTE   W05
 BYTE   W01
 BYTE   N06  Dn2  v080
 BYTE   W07
 BYTE   N05  En2  v088
 BYTE   W06
 BYTE   Fn2  v084
 BYTE   W06
 BYTE   Dn2  v092
 BYTE   W05
 BYTE   En2  v088
 BYTE   W02
 BYTE   W04
 BYTE   Fn2  v084
 BYTE   W06
 BYTE   Gn2  v080
 BYTE   W06
 BYTE   Fn2  v084
 BYTE   W01
 BYTE   W05
 BYTE   Gn2
 BYTE   W06
 BYTE   An2
 BYTE   W06
// 026   ----------------------------------------
 BYTE   N03  As2  v088
 BYTE   W01
 BYTE   W05
 BYTE   N05  Gn2  v096
 BYTE   W03
 BYTE   W03
 BYTE   An2
 BYTE   W06
 BYTE   As2  v088
 BYTE   W06
 BYTE   Cn3
 BYTE   W06
 BYTE   As2  v080
 BYTE   W05
 BYTE   W01
 BYTE   Cn3  v088
 BYTE   W06
 BYTE   Dn3  v084
 BYTE   W02
 BYTE   W04
 BYTE   En3  v076
 BYTE   W05
 BYTE   W01
 BYTE   N06  Dn3  v068
 BYTE   W07
 BYTE   N05  En3  v080
 BYTE   W01
 BYTE   W04
 BYTE   N06  Fn3
 BYTE   W04
 BYTE   W03
 BYTE   N05  Gn3
 BYTE   W06
 BYTE   An3  v072
 BYTE   W06
 BYTE   As3
 BYTE   W03
 BYTE   W03
 BYTE   Cn4  v084
 BYTE   W05
// 027   ----------------------------------------
 BYTE   W01
 BYTE   Dn4  v096
 BYTE   W03
 BYTE   W02
 BYTE   GoTo
  POIN2 Label_7_0180105E
// 028   ----------------------------------------
 BYTE   W01
 BYTE   W05
 BYTE   N05  Dn2  v084
 BYTE   W06
 BYTE   En2  v072
 BYTE   W06
 BYTE   N06  Fn2  v076
 BYTE   W13
 BYTE   N04  En2
 BYTE   W05
 BYTE   N05  Fn2  v060
 BYTE   W06
 BYTE   N06  Gn2  v056
 BYTE   W07
 BYTE   N05  An2  v064
 BYTE   W06
 BYTE   Gn2  v052
 BYTE   W05
 BYTE   Fn2  v064
 BYTE   W06
 BYTE   En2  v068
 BYTE   W06
 BYTE   Dn2  v056
 BYTE   W06
 BYTE   Cn2  v072
 BYTE   W06
 BYTE   En2  v052
 BYTE   W06
 BYTE   PATT
  POIN2 Label_7_01801093
 BYTE   FINE

//**************** Track 9 (Midi-Chn.8) ****************//

FE12ExpeditionSwiftSaturn_009:
// 000   ----------------------------------------
 BYTE   KEYSH   FE12ExpeditionSwiftSaturn_key+0
Label_8_0180151E:
 BYTE   VOICE   69
 BYTE   W96
// 001   ----------------------------------------
 BYTE   W96
// 002   ----------------------------------------
 BYTE   W96
// 003   ----------------------------------------
 BYTE   W96
// 004   ----------------------------------------
 BYTE   W96
// 005   ----------------------------------------
 BYTE   W96
// 006   ----------------------------------------
 BYTE   W96
// 007   ----------------------------------------
 BYTE   W96
// 008   ----------------------------------------
 BYTE   W96
// 009   ----------------------------------------
 BYTE   W96
// 010   ----------------------------------------
 BYTE   W01
 BYTE   VOL   69*FE12ExpeditionSwiftSaturn_mvl/mxv
 BYTE   PAN   c_v-34
 BYTE   W23
 BYTE   N06  Gn3  v100
 BYTE   W24
 BYTE   W01
 BYTE   N66  Dn3  v112
 BYTE   W02
 BYTE   W03
 BYTE   W01
 BYTE   W02
 BYTE   W24
 BYTE   W03
 BYTE   W12
// 011   ----------------------------------------
 BYTE   W02
 BYTE   W03
 BYTE   W03
 BYTE   W01
 BYTE   W02
 BYTE   W01
 BYTE   W02
 BYTE   W01
 BYTE   W02
 BYTE   W01
 BYTE   W01
 BYTE   W01
 BYTE   W01
 BYTE   W01
 BYTE   W01
 BYTE   W01
 BYTE   W01
 BYTE   N21  Fn3  v104
 BYTE   W10
 BYTE   W05
 BYTE   W05
 BYTE   W03
 BYTE   N20  En3  v108
 BYTE   W03
 BYTE   W05
 BYTE   W05
 BYTE   W06
 BYTE   W04
 BYTE   Cn3  v100
 BYTE   W01
 BYTE   W06
 BYTE   W05
 BYTE   W05
 BYTE   W06
 BYTE   W01
 BYTE   N44  Dn3  v104
 BYTE   W01
// 012   ----------------------------------------
 BYTE   W01
 BYTE   W03
 BYTE   W03
 BYTE   W01
 BYTE   W15
 BYTE   W08
 BYTE   W07
 BYTE   W08
 BYTE   W02
 BYTE   W01
 BYTE   N48  Gn3
 BYTE   W02
 BYTE   W01
 BYTE   W02
 BYTE   W01
 BYTE   W03
 BYTE   W03
 BYTE   W03
 BYTE   W03
 BYTE   W03
 BYTE   W03
 BYTE   W03
 BYTE   W03
 BYTE   W03
 BYTE   W03
 BYTE   W03
 BYTE   W03
 BYTE   W03
 BYTE   W01
 BYTE   W01
// 013   ----------------------------------------
 BYTE   W02
 BYTE   N44  An3  v092
 BYTE   W03
 BYTE   W03
 BYTE   W01
 BYTE   W05
 BYTE   W05
 BYTE   W05
 BYTE   W05
 BYTE   W05
 BYTE   W05
 BYTE   W05
 BYTE   W05
 BYTE   As3  v072
 BYTE   W01
 BYTE   W02
 BYTE   W01
 BYTE   W02
 BYTE   W04
 BYTE   W04
 BYTE   W04
 BYTE   W04
 BYTE   W05
 BYTE   W04
 BYTE   W04
 BYTE   W04
 BYTE   W04
 BYTE   W04
// 014   ----------------------------------------
 BYTE   W01
 BYTE   N15  Gs3  v088
 BYTE   W03
 BYTE   W03
 BYTE   W03
 BYTE   W03
 BYTE   W03
 BYTE   W01
 BYTE   W03
 BYTE   W03
 BYTE   W03
 BYTE   W03
 BYTE   W03
 BYTE   W03
 BYTE   W01
 BYTE   W01
 BYTE   N01  Gs3  v124
 BYTE   W05
 BYTE   Gs3  v108
 BYTE   W04
 BYTE   N90  Gs3  v096
 BYTE   W07
 BYTE   W01
 BYTE   W02
 BYTE   W01
 BYTE   W02
 BYTE   W01
 BYTE   W01
 BYTE   W06
 BYTE   W03
 BYTE   W03
 BYTE   W03
 BYTE   W03
 BYTE   W03
 BYTE   W03
 BYTE   W03
 BYTE   W03
 BYTE   W03
 BYTE   W02
// 015   ----------------------------------------
 BYTE   W01
 BYTE   W04
 BYTE   W03
 BYTE   W03
 BYTE   W03
 BYTE   W03
 BYTE   W03
 BYTE   W03
 BYTE   W03
 BYTE   W03
 BYTE   W03
 BYTE   W16
 BYTE   N44  Cn3  v108
 BYTE   W04
 BYTE   W02
 BYTE   W01
 BYTE   W02
 BYTE   W01
 BYTE   W08
 BYTE   W04
 BYTE   W04
 BYTE   W03
 BYTE   W04
 BYTE   W04
 BYTE   W04
 BYTE   W04
 BYTE   W03
// 016   ----------------------------------------
 BYTE   W01
 BYTE   Gn3
 BYTE   W06
 BYTE   W03
 BYTE   W03
 BYTE   W03
 BYTE   W03
 BYTE   W03
 BYTE   W03
 BYTE   W03
 BYTE   W03
 BYTE   W03
 BYTE   W03
 BYTE   W03
 BYTE   W07
 BYTE   W02
 BYTE   N42  Fn3  v104
 BYTE   W02
 BYTE   W03
 BYTE   W04
 BYTE   W03
 BYTE   W03
 BYTE   W04
 BYTE   W03
 BYTE   W04
 BYTE   W07
 BYTE   W07
 BYTE   W06
 BYTE   W01
// 017   ----------------------------------------
 BYTE   W01
 BYTE   N44  Cn4  v096
 BYTE   W05
 BYTE   W07
 BYTE   W07
 BYTE   W07
 BYTE   W13
 BYTE   W07
 BYTE   W02
 BYTE   Cn3  v092
 BYTE   W05
 BYTE   W07
 BYTE   W07
 BYTE   W06
 BYTE   W07
 BYTE   W07
 BYTE   W07
 BYTE   W01
// 018   ----------------------------------------
 BYTE   W96
// 019   ----------------------------------------
 BYTE   W96
// 020   ----------------------------------------
 BYTE   W96
// 021   ----------------------------------------
 BYTE   W01
 BYTE   W36
 BYTE   N01  Gn3  v127
 BYTE   W04
 BYTE   Gn3  v100
 BYTE   W04
 BYTE   Gn3  v104
 BYTE   W04
 BYTE   N03  Gn3  v100
 BYTE   W12
 BYTE   N17  Gn3  v104
 BYTE   W24
 BYTE   N03  Gn3  v108
 BYTE   W11
// 022   ----------------------------------------
 BYTE   W01
 BYTE   W01
 BYTE   N05  Gn3  v116
 BYTE   W22
 BYTE   N03  Gn3  v100
 BYTE   W12
 BYTE   Dn3  v092
 BYTE   W13
 BYTE   N28  Fn3  v108
 BYTE   W01
 BYTE   W01
 BYTE   W01
 BYTE   W03
 BYTE   W01
 BYTE   W02
 BYTE   W01
 BYTE   W02
 BYTE   W01
 BYTE   W02
 BYTE   W01
 BYTE   W02
 BYTE   W01
 BYTE   W02
 BYTE   W01
 BYTE   W02
 BYTE   W12
 BYTE   N11  En3  v104
 BYTE   W11
// 023   ----------------------------------------
 BYTE   W01
 BYTE   N03  Dn3
 BYTE   W12
 BYTE   Gn2  v100
 BYTE   W11
 BYTE   N28  Cn3  v120
 BYTE   W02
 BYTE   W01
 BYTE   W03
 BYTE   W03
 BYTE   W03
 BYTE   W03
 BYTE   W03
 BYTE   W03
 BYTE   W03
 BYTE   W03
 BYTE   W02
 BYTE   W07
 BYTE   N11  As2  v100
 BYTE   W12
 BYTE   N03  An2  v104
 BYTE   W11
 BYTE   N04  Fn2  v100
 BYTE   W12
 BYTE   Gn2
 BYTE   W01
// 024   ----------------------------------------
 BYTE   W96
// 025   ----------------------------------------
 BYTE   W96
// 026   ----------------------------------------
 BYTE   W01
 BYTE   W23
 BYTE   N03  Cn4  v084
 BYTE   W12
 BYTE   Gn3  v080
 BYTE   W13
 BYTE   N28  As3  v092
 BYTE   W01
 BYTE   W01
 BYTE   W01
 BYTE   W01
 BYTE   W02
 BYTE   W01
 BYTE   W02
 BYTE   W01
 BYTE   W02
 BYTE   W01
 BYTE   W02
 BYTE   W01
 BYTE   W02
 BYTE   W01
 BYTE   W02
 BYTE   W01
 BYTE   W02
 BYTE   W12
 BYTE   N11  An3
 BYTE   W11
// 027   ----------------------------------------
 BYTE   W01
 BYTE   N03  Gn3
 BYTE   W12
 BYTE   Dn3  v088
 BYTE   W11
 BYTE   N28  Fn3  v108
 BYTE   W02
 BYTE   W01
 BYTE   W06
 BYTE   W03
 BYTE   W03
 BYTE   W03
 BYTE   W03
 BYTE   W03
 BYTE   W03
 BYTE   W02
 BYTE   W07
 BYTE   N11  En3  v084
 BYTE   W12
 BYTE   N03  Dn3  v088
 BYTE   W11
 BYTE   N04  As2  v084
 BYTE   W12
 BYTE   Cn3  v088
 BYTE   W01
// 028   ----------------------------------------
 BYTE   W96
// 029   ----------------------------------------
 BYTE   W96
// 030   ----------------------------------------
 BYTE   W01
 BYTE   W24
 BYTE   N07  Dn3  v092
 BYTE   W24
 BYTE   N54  Dn3  v112
 BYTE   W44
 BYTE   W03
// 031   ----------------------------------------
 BYTE   W24
 BYTE   N18  Fn3  v108
 BYTE   W24
 BYTE   W01
 BYTE   En3
 BYTE   W24
 BYTE   N14  Cn3  v116
 BYTE   W23
// 032   ----------------------------------------
 BYTE   W01
 BYTE   N06  Dn3
 BYTE   W05
 BYTE   GoTo
  POIN2 Label_8_0180151E
// 033   ----------------------------------------
 BYTE   W90
 BYTE   W96
 BYTE   FINE

//**************** Track 10 (Midi-Chn.9) ****************//

FE12ExpeditionSwiftSaturn_010:
// 000   ----------------------------------------
 BYTE   KEYSH   FE12ExpeditionSwiftSaturn_key+0
Label_9_018016FA:
 BYTE   VOICE   69
 BYTE   W96
// 001   ----------------------------------------
 BYTE   W96
// 002   ----------------------------------------
 BYTE   W96
// 003   ----------------------------------------
 BYTE   W96
// 004   ----------------------------------------
 BYTE   W96
// 005   ----------------------------------------
 BYTE   W96
// 006   ----------------------------------------
 BYTE   W96
// 007   ----------------------------------------
 BYTE   W96
// 008   ----------------------------------------
 BYTE   W96
// 009   ----------------------------------------
 BYTE   W96
// 010   ----------------------------------------
 BYTE   W01
 BYTE   VOL   69*FE12ExpeditionSwiftSaturn_mvl/mxv
 BYTE   PAN   c_v-8
 BYTE   W23
 BYTE   N07  Dn3  v092
 BYTE   W24
 BYTE   N66  Gn2  v096
 BYTE   W01
 BYTE   W01
 BYTE   W02
 BYTE   W01
 BYTE   W01
 BYTE   W18
 BYTE   W09
 BYTE   W09
 BYTE   W06
// 011   ----------------------------------------
 BYTE   W03
 BYTE   W01
 BYTE   W02
 BYTE   W01
 BYTE   W02
 BYTE   W01
 BYTE   W02
 BYTE   W01
 BYTE   W02
 BYTE   W01
 BYTE   W02
 BYTE   W01
 BYTE   W02
 BYTE   W01
 BYTE   W01
 BYTE   W01
 BYTE   N21  Dn3
 BYTE   W01
 BYTE   W09
 BYTE   W05
 BYTE   W04
 BYTE   W05
 BYTE   Cn3  v104
 BYTE   W05
 BYTE   W03
 BYTE   W03
 BYTE   W03
 BYTE   W03
 BYTE   W03
 BYTE   W03
 BYTE   W01
 BYTE   N20  An2  v108
 BYTE   W02
 BYTE   W03
 BYTE   W03
 BYTE   W03
 BYTE   W03
 BYTE   W03
 BYTE   W03
 BYTE   W01
 BYTE   W02
 BYTE   N44  Gn2  v104
 BYTE   W01
// 012   ----------------------------------------
 BYTE   W05
 BYTE   W04
 BYTE   W04
 BYTE   W05
 BYTE   W04
 BYTE   W04
 BYTE   W05
 BYTE   W04
 BYTE   W05
 BYTE   W04
 BYTE   W04
 BYTE   N48  Dn3  v096
 BYTE   W05
 BYTE   W04
 BYTE   W04
 BYTE   W05
 BYTE   W04
 BYTE   W05
 BYTE   W08
 BYTE   W04
 BYTE   W04
 BYTE   W04
 BYTE   W01
// 013   ----------------------------------------
 BYTE   W01
 BYTE   N42
 BYTE   W03
 BYTE   W04
 BYTE   W11
 BYTE   W06
 BYTE   W05
 BYTE   W06
 BYTE   W11
 BYTE   W02
 BYTE   N44
 BYTE   W08
 BYTE   W11
 BYTE   W11
 BYTE   W10
 BYTE   W07
// 014   ----------------------------------------
 BYTE   N14  Ds3  v092
 BYTE   W04
 BYTE   W03
 BYTE   W03
 BYTE   W03
 BYTE   W03
 BYTE   W03
 BYTE   W03
 BYTE   W01
 BYTE   W02
 BYTE   W01
 BYTE   W02
 BYTE   W01
 BYTE   W02
 BYTE   W01
 BYTE   W02
 BYTE   W03
 BYTE   N02  Ds3  v124
 BYTE   W05
 BYTE   Ds3  v116
 BYTE   W04
 BYTE   N84  Ds3  v088
 BYTE   W02
 BYTE   W01
 BYTE   W01
 BYTE   W01
 BYTE   W01
 BYTE   W01
 BYTE   W01
 BYTE   W01
 BYTE   W03
 BYTE   W03
 BYTE   W03
 BYTE   W03
 BYTE   W03
 BYTE   W03
 BYTE   W03
 BYTE   W03
 BYTE   W03
 BYTE   W03
 BYTE   W03
 BYTE   W03
 BYTE   W03
 BYTE   W02
// 015   ----------------------------------------
 BYTE   W01
 BYTE   W03
 BYTE   W03
 BYTE   W03
 BYTE   W03
 BYTE   W03
 BYTE   W03
 BYTE   W03
 BYTE   W03
 BYTE   W03
 BYTE   W03
 BYTE   W03
 BYTE   W03
 BYTE   W03
 BYTE   W03
 BYTE   W02
 BYTE   W03
 BYTE   N48  Fn2  v100
 BYTE   W13
 BYTE   W08
 BYTE   W08
 BYTE   W07
 BYTE   W08
 BYTE   W04
// 016   ----------------------------------------
 BYTE   W01
 BYTE   N44  Cn3
 BYTE   W03
 BYTE   W08
 BYTE   W08
 BYTE   W08
 BYTE   W08
 BYTE   W06
 BYTE   W03
 BYTE   W03
 BYTE   Gs2  v096
 BYTE   W01
 BYTE   W03
 BYTE   W03
 BYTE   W03
 BYTE   W04
 BYTE   W03
 BYTE   W03
 BYTE   W03
 BYTE   W03
 BYTE   W04
 BYTE   W08
 BYTE   W04
 BYTE   W04
 BYTE   W02
// 017   ----------------------------------------
 BYTE   W01
 BYTE   N48  Ds3  v092
 BYTE   W01
 BYTE   W04
 BYTE   W04
 BYTE   W04
 BYTE   W04
 BYTE   W04
 BYTE   W04
 BYTE   W04
 BYTE   W04
 BYTE   W04
 BYTE   W05
 BYTE   W06
 BYTE   N44  Gs2
 BYTE   W06
 BYTE   W06
 BYTE   W06
 BYTE   W06
 BYTE   W07
 BYTE   W06
 BYTE   W03
 BYTE   W03
 BYTE   W03
 BYTE   W01
// 018   ----------------------------------------
 BYTE   W96
// 019   ----------------------------------------
 BYTE   W96
// 020   ----------------------------------------
 BYTE   W96
// 021   ----------------------------------------
 BYTE   W24
 BYTE   W01
 BYTE   W12
 BYTE   N01  Gn2  v127
 BYTE   W04
 BYTE   Gn2  v104
 BYTE   W04
 BYTE   N01
 BYTE   W03
 BYTE   N04
 BYTE   W14
 BYTE   N16  Gn2  v092
 BYTE   W24
 BYTE   N02  Gn2  v108
 BYTE   W10
// 022   ----------------------------------------
 BYTE   W01
 BYTE   N04  Gn2  v112
 BYTE   W22
 BYTE   W02
 BYTE   Dn3  v100
 BYTE   W12
 BYTE   Gn2  v092
 BYTE   W13
 BYTE   N24  Cn3  v100
 BYTE   W01
 BYTE   W01
 BYTE   W01
 BYTE   W04
 BYTE   W02
 BYTE   W01
 BYTE   W02
 BYTE   W01
 BYTE   W02
 BYTE   W01
 BYTE   W02
 BYTE   W01
 BYTE   W02
 BYTE   W01
 BYTE   W03
 BYTE   W09
 BYTE   N13
 BYTE   W12
// 023   ----------------------------------------
 BYTE   N04  Gn2  v104
 BYTE   W12
 BYTE   Dn2  v088
 BYTE   W12
 BYTE   N24  Gn2  v108
 BYTE   W02
 BYTE   W01
 BYTE   W01
 BYTE   W03
 BYTE   W03
 BYTE   W01
 BYTE   W02
 BYTE   W01
 BYTE   W02
 BYTE   W01
 BYTE   W02
 BYTE   W01
 BYTE   W02
 BYTE   W01
 BYTE   W02
 BYTE   W11
 BYTE   N11  Gn2  v096
 BYTE   W11
 BYTE   N04  Fn2  v092
 BYTE   W12
 BYTE   Cn2  v096
 BYTE   W12
 BYTE   Dn2  v088
 BYTE   W01
// 024   ----------------------------------------
 BYTE   W96
// 025   ----------------------------------------
 BYTE   W96
// 026   ----------------------------------------
 BYTE   W23
 BYTE   W02
 BYTE   Gn3  v100
 BYTE   W12
 BYTE   Cn3  v092
 BYTE   W13
 BYTE   N24  Fn3  v100
 BYTE   W01
 BYTE   W01
 BYTE   W01
 BYTE   W03
 BYTE   W01
 BYTE   W02
 BYTE   W01
 BYTE   W02
 BYTE   W01
 BYTE   W02
 BYTE   W01
 BYTE   W02
 BYTE   W01
 BYTE   W02
 BYTE   W01
 BYTE   W02
 BYTE   W01
 BYTE   W09
 BYTE   N13
 BYTE   W12
// 027   ----------------------------------------
 BYTE   N04  Cn3  v108
 BYTE   W12
 BYTE   As2  v088
 BYTE   W12
 BYTE   N24  Cn3  v112
 BYTE   W02
 BYTE   W01
 BYTE   W01
 BYTE   W01
 BYTE   W02
 BYTE   W01
 BYTE   W02
 BYTE   W01
 BYTE   W02
 BYTE   W01
 BYTE   W02
 BYTE   W01
 BYTE   W02
 BYTE   W01
 BYTE   W02
 BYTE   W01
 BYTE   W02
 BYTE   W11
 BYTE   N11  Gn2  v096
 BYTE   W11
 BYTE   N04  Fn2  v092
 BYTE   W12
 BYTE   Fn2  v096
 BYTE   W12
 BYTE   En2  v080
 BYTE   W01
// 028   ----------------------------------------
 BYTE   W96
// 029   ----------------------------------------
 BYTE   W96
// 030   ----------------------------------------
 BYTE   W24
 BYTE   W01
 BYTE   N05  An2  v092
 BYTE   W24
 BYTE   N56
 BYTE   W44
 BYTE   W03
// 031   ----------------------------------------
 BYTE   W24
 BYTE   N17  As2
 BYTE   W24
 BYTE   W01
 BYTE   An2  v088
 BYTE   W24
 BYTE   N15  Fn2  v096
 BYTE   W23
// 032   ----------------------------------------
 BYTE   W01
 BYTE   N06  Gn2  v092
 BYTE   W05
 BYTE   GoTo
  POIN2 Label_9_018016FA
// 033   ----------------------------------------
 BYTE   W90
 BYTE   W96
 BYTE   FINE

//**************** Track 11 (Midi-Chn.10) ****************//

FE12ExpeditionSwiftSaturn_011:
// 000   ----------------------------------------
 BYTE   KEYSH   FE12ExpeditionSwiftSaturn_key+0
Label_10_018018CE:
 BYTE   VOICE   71
 BYTE   VOL   74*FE12ExpeditionSwiftSaturn_mvl/mxv
 BYTE   PAN   c_v+26
 BYTE   N11  Gn0  v116
 BYTE   W01
 BYTE   W11
 BYTE   Gn0  v056
 BYTE   W12
 BYTE   Gn0  v100
 BYTE   W12
 BYTE   Gn0  v060
 BYTE   W12
 BYTE   Gn0  v108
 BYTE   W12
 BYTE   Gn0  v056
 BYTE   W12
 BYTE   Gn0  v088
 BYTE   W12
 BYTE   Gn0  v048
 BYTE   W12
// 001   ----------------------------------------
Label_10_018018EE:
 BYTE   N11  Gn0  v108
 BYTE   W12
 BYTE   Gn0  v048
 BYTE   W12
 BYTE   Gn0  v092
 BYTE   W12
 BYTE   Gn0  v052
 BYTE   W12
 BYTE   Gn0  v100
 BYTE   W12
 BYTE   Gn0  v052
 BYTE   W12
 BYTE   Gn0  v080
 BYTE   W12
 BYTE   N12  Gn0  v044
 BYTE   W12
 BYTE   PEND 
// 002   ----------------------------------------
 BYTE   N11  Gn0  v124
 BYTE   W01
 BYTE   W11
 BYTE   Gn0  v064
 BYTE   W12
 BYTE   Gn0  v108
 BYTE   W12
 BYTE   Gn0  v068
 BYTE   W12
 BYTE   Gn0  v116
 BYTE   W12
 BYTE   Gn0  v068
 BYTE   W12
 BYTE   Gn0  v096
 BYTE   W12
 BYTE   Gn0  v060
 BYTE   W12
 BYTE   PATT
  POIN2 Label_10_018018EE
// 003   ----------------------------------------
Label_10_01801928:
 BYTE   N11  Gn0  v116
 BYTE   W12
 BYTE   Gn0  v056
 BYTE   W12
 BYTE   Gn0  v100
 BYTE   W12
 BYTE   Gn0  v060
 BYTE   W12
 BYTE   Gn0  v108
 BYTE   W12
 BYTE   Gn0  v056
 BYTE   W12
 BYTE   Gn0  v088
 BYTE   W12
 BYTE   Gn0  v048
 BYTE   W12
 BYTE   PEND 
 BYTE   PATT
  POIN2 Label_10_018018EE
// 004   ----------------------------------------
Label_10_01801947:
 BYTE   N11  Gs0  v116
 BYTE   W12
 BYTE   Gs0  v056
 BYTE   W12
 BYTE   Gs0  v100
 BYTE   W12
 BYTE   Gs0  v060
 BYTE   W12
 BYTE   Gs0  v108
 BYTE   W12
 BYTE   Gs0  v056
 BYTE   W12
 BYTE   Gs0  v088
 BYTE   W12
 BYTE   Gs0  v048
 BYTE   W12
 BYTE   PEND 
// 005   ----------------------------------------
Label_10_01801961:
 BYTE   N11  Gs0  v108
 BYTE   W12
 BYTE   Gs0  v048
 BYTE   W12
 BYTE   Gs0  v092
 BYTE   W12
 BYTE   Gs0  v052
 BYTE   W12
 BYTE   Gs0  v100
 BYTE   W12
 BYTE   Gs0  v052
 BYTE   W12
 BYTE   Gs0  v080
 BYTE   W12
 BYTE   N12  Gs0  v044
 BYTE   W12
 BYTE   PEND 
 BYTE   PATT
  POIN2 Label_10_01801947
 BYTE   PATT
  POIN2 Label_10_01801961
 BYTE   PATT
  POIN2 Label_10_01801928
 BYTE   PATT
  POIN2 Label_10_018018EE
 BYTE   PATT
  POIN2 Label_10_01801928
 BYTE   PATT
  POIN2 Label_10_018018EE
// 006   ----------------------------------------
Label_10_0180199A:
 BYTE   N11  Fn0  v116
 BYTE   W12
 BYTE   Fn0  v056
 BYTE   W12
 BYTE   Fn0  v100
 BYTE   W12
 BYTE   Fn0  v060
 BYTE   W12
 BYTE   Fn0  v108
 BYTE   W12
 BYTE   Fn0  v056
 BYTE   W12
 BYTE   Fn0  v088
 BYTE   W12
 BYTE   Fn0  v048
 BYTE   W12
 BYTE   PEND 
// 007   ----------------------------------------
Label_10_018019B4:
 BYTE   N11  Fn0  v108
 BYTE   W12
 BYTE   Fn0  v048
 BYTE   W12
 BYTE   Fn0  v092
 BYTE   W12
 BYTE   Fn0  v052
 BYTE   W12
 BYTE   Fn0  v100
 BYTE   W12
 BYTE   Fn0  v052
 BYTE   W12
 BYTE   Fn0  v080
 BYTE   W12
 BYTE   N12  Fn0  v044
 BYTE   W12
 BYTE   PEND 
 BYTE   PATT
  POIN2 Label_10_0180199A
 BYTE   PATT
  POIN2 Label_10_018019B4
 BYTE   PATT
  POIN2 Label_10_01801928
 BYTE   PATT
  POIN2 Label_10_018018EE
 BYTE   PATT
  POIN2 Label_10_01801928
// 008   ----------------------------------------
 BYTE   N11  Gn0  v108
 BYTE   W12
 BYTE   Gn0  v048
 BYTE   W12
 BYTE   Gn0  v092
 BYTE   W12
 BYTE   Gn0  v052
 BYTE   W12
 BYTE   Gn0  v100
 BYTE   W12
 BYTE   Gn0  v052
 BYTE   W12
 BYTE   Gn0  v080
 BYTE   W12
 BYTE   N13  Gn0  v044
 BYTE   W12
// 009   ----------------------------------------
 BYTE   W01
 BYTE   W06
 BYTE   W04
 BYTE   W03
 BYTE   W04
 BYTE   W03
 BYTE   W04
 BYTE   N04  Gn0  v116
 BYTE   W06
 BYTE   Gn0  v052
 BYTE   W06
 BYTE   N03  As0  v112
 BYTE   W05
 BYTE   W01
 BYTE   As0  v048
 BYTE   W06
 BYTE   N24  Cn1  v108
 BYTE   W15
 BYTE   W20
 BYTE   N12  Cn1  v120
 BYTE   W01
 BYTE   W11
// 010   ----------------------------------------
 BYTE   W01
 BYTE   N03  Gn0  v116
 BYTE   W06
 BYTE   Gn0  v056
 BYTE   W04
 BYTE   W01
 BYTE   N04  Gn0  v112
 BYTE   W06
 BYTE   Gn0  v052
 BYTE   W06
 BYTE   N28  En0  v124
 BYTE   W08
 BYTE   W22
 BYTE   W07
 BYTE   N11  Gn0  v116
 BYTE   W11
 BYTE   N03  Dn0  v104
 BYTE   W03
 BYTE   W03
 BYTE   Dn0  v044
 BYTE   W06
 BYTE   Dn0  v116
 BYTE   W06
 BYTE   Dn0  v056
 BYTE   W06
// 011   ----------------------------------------
 BYTE   N11  Gn0  v116
 BYTE   W12
 BYTE   Gn0  v056
 BYTE   W12
 BYTE   Gn0  v100
 BYTE   W12
 BYTE   Gn0  v060
 BYTE   W12
 BYTE   Gn0  v108
 BYTE   W12
 BYTE   Gn0  v056
 BYTE   W12
 BYTE   Gn0  v088
 BYTE   W12
 BYTE   Gn0  v048
 BYTE   W12
// 012   ----------------------------------------
 BYTE   Gn0  v108
 BYTE   W12
 BYTE   Gn0  v048
 BYTE   W12
 BYTE   Gn0  v092
 BYTE   W09
 BYTE   W03
 BYTE   Gn0  v052
 BYTE   W12
 BYTE   Gn0  v100
 BYTE   W12
 BYTE   Gn0  v052
 BYTE   W12
 BYTE   Gn0  v080
 BYTE   W12
 BYTE   N13  Gn0  v044
 BYTE   W12
// 013   ----------------------------------------
 BYTE   W24
 BYTE   W01
 BYTE   N04  Cn0  v116
 BYTE   W06
 BYTE   Cn0  v060
 BYTE   W06
 BYTE   N03  En0  v112
 BYTE   W06
 BYTE   En0  v056
 BYTE   W06
 BYTE   N24  Fn0  v108
 BYTE   W32
 BYTE   W03
 BYTE   N12  Fn0  v120
 BYTE   W12
// 014   ----------------------------------------
 BYTE   W01
 BYTE   N03  En0  v116
 BYTE   W06
 BYTE   En0  v060
 BYTE   W05
 BYTE   N04  AsM1  v112
 BYTE   W06
 BYTE   AsM1  v060
 BYTE   W06
 BYTE   N28  Cn0  v124
 BYTE   W09
 BYTE   W28
 BYTE   N11  Gn0  v116
 BYTE   W11
 BYTE   N03  Gn0  v104
 BYTE   W06
 BYTE   Gn0  v052
 BYTE   W06
 BYTE   Gn0  v116
 BYTE   W06
 BYTE   Gn0  v060
 BYTE   W06
// 015   ----------------------------------------
 BYTE   N11  Cn0  v120
 BYTE   W12
 BYTE   Cn0  v068
 BYTE   W12
 BYTE   Cn0  v096
 BYTE   W11
 BYTE   W01
 BYTE   Cn0  v044
 BYTE   W11
 BYTE   W01
 BYTE   Cn0  v104
 BYTE   W10
 BYTE   W02
 BYTE   Cn0  v052
 BYTE   W10
 BYTE   W02
 BYTE   Cn0  v076
 BYTE   W09
 BYTE   W03
 BYTE   Cn0  v028
 BYTE   W09
 BYTE   W03
// 016   ----------------------------------------
 BYTE   Cn1  v096
 BYTE   W08
 BYTE   W04
 BYTE   Cn1  v048
 BYTE   W08
 BYTE   W04
 BYTE   Cn1  v068
 BYTE   W07
 BYTE   W05
 BYTE   Cn1  v036
 BYTE   W07
 BYTE   W05
 BYTE   Cn1  v076
 BYTE   W07
 BYTE   W05
 BYTE   Cn1  v044
 BYTE   W06
 BYTE   W06
 BYTE   Cn1  v064
 BYTE   W06
 BYTE   W06
 BYTE   N12  Cn1  v020
 BYTE   W12
// 017   ----------------------------------------
 BYTE   W01
 BYTE   N05  Dn0  v116
 BYTE   W06
 BYTE   AnM1  v100
 BYTE   W06
 BYTE   AsM1  v088
 BYTE   W06
 BYTE   Cn0  v096
 BYTE   W01
 BYTE   W05
 BYTE   Dn0  v104
 BYTE   W06
 BYTE   Cn0  v108
 BYTE   W04
 BYTE   W01
 BYTE   N06  Dn0  v092
 BYTE   W07
 BYTE   N05  En0  v108
 BYTE   W06
 BYTE   Fn0  v100
 BYTE   W01
 BYTE   W04
 BYTE   Dn0  v088
 BYTE   W06
 BYTE   En0  v096
 BYTE   W06
 BYTE   Fn0  v092
 BYTE   W03
 BYTE   W03
 BYTE   Gn0
 BYTE   W06
 BYTE   N06  Fn0  v076
 BYTE   W01
 BYTE   W05
 BYTE   Gn0  v096
 BYTE   W05
 BYTE   W01
 BYTE   N05  An0
 BYTE   W04
 BYTE   W02
// 018   ----------------------------------------
 BYTE   As0  v088
 BYTE   W06
 BYTE   N04  Gn0  v108
 BYTE   W02
 BYTE   W04
 BYTE   N06  An0  v092
 BYTE   W01
 BYTE   W05
 BYTE   N05  As0  v100
 BYTE   W06
 BYTE   Cn1
 BYTE   W04
 BYTE   W02
 BYTE   N06  As0  v088
 BYTE   W03
 BYTE   W03
 BYTE   N05  Cn1  v096
 BYTE   W01
 BYTE   W05
 BYTE   Dn1
 BYTE   W05
 BYTE   W01
 BYTE   En1  v100
 BYTE   W04
 BYTE   W01
 BYTE   N06  Dn1  v088
 BYTE   W04
 BYTE   W03
 BYTE   En1  v100
 BYTE   W02
 BYTE   W04
 BYTE   N05  Fn1
 BYTE   W01
 BYTE   W05
 BYTE   Gn1  v096
 BYTE   W05
 BYTE   W01
 BYTE   An0  v104
 BYTE   W04
 BYTE   W02
 BYTE   As0  v112
 BYTE   W03
 BYTE   W02
 BYTE   N06  An0  v108
 BYTE   W03
 BYTE   W04
// 019   ----------------------------------------
 BYTE   N11  Gn0  v116
 BYTE   W01
 BYTE   W01
 BYTE   W02
 BYTE   W01
 BYTE   W01
 BYTE   GoTo
  POIN2 Label_10_018018CE
// 020   ----------------------------------------
 BYTE   W01
 BYTE   W01
 BYTE   W02
 BYTE   W01
 BYTE   W01
 BYTE   N11  Gn0  v056
 BYTE   W12
 BYTE   Gn0  v100
 BYTE   W12
 BYTE   Gn0  v060
 BYTE   W12
 BYTE   Gn0  v108
 BYTE   W12
 BYTE   Gn0  v056
 BYTE   W12
 BYTE   Gn0  v088
 BYTE   W12
 BYTE   Gn0  v048
 BYTE   W12
 BYTE   PATT
  POIN2 Label_10_018018EE
 BYTE   FINE

//**************** Track 12 (Midi-Chn.11) ****************//

FE12ExpeditionSwiftSaturn_012:
// 000   ----------------------------------------
 BYTE   KEYSH   FE12ExpeditionSwiftSaturn_key+0
Label_11_01801BAA:
 BYTE   VOICE   2
 BYTE   VOL   80*FE12ExpeditionSwiftSaturn_mvl/mxv
 BYTE   PAN   c_v+0
 BYTE   N11  Gn0  v088
 BYTE   W01
 BYTE   W12
 BYTE   N01  Gn0  v112
 BYTE   W06
 BYTE   Gn0  v084
 BYTE   W05
 BYTE   N11  Gn0  v124
 BYTE   W13
 BYTE   N01  Gn0  v116
 BYTE   W06
 BYTE   Gn0  v088
 BYTE   W05
 BYTE   N11
 BYTE   W13
 BYTE   N01  Gn0  v112
 BYTE   W06
 BYTE   Gn0  v084
 BYTE   W05
 BYTE   N11  Gn0  v124
 BYTE   W13
 BYTE   N01  Gn0  v116
 BYTE   W06
 BYTE   Gn0  v088
 BYTE   W05
// 001   ----------------------------------------
 BYTE   N11
 BYTE   W13
 BYTE   N01  Gn0  v112
 BYTE   W06
 BYTE   Gn0  v084
 BYTE   W05
 BYTE   N11  Gn0  v124
 BYTE   W13
 BYTE   N01  Gn0  v116
 BYTE   W06
 BYTE   Gn0  v088
 BYTE   W05
 BYTE   N11
 BYTE   W13
 BYTE   N01  Gn0  v112
 BYTE   W06
 BYTE   Gn0  v084
 BYTE   W05
 BYTE   N11  Gn0  v124
 BYTE   W13
 BYTE   N03  Dn0  v116
 BYTE   W06
 BYTE   Dn1  v088
 BYTE   W05
// 002   ----------------------------------------
Label_11_01801C03:
 BYTE   N11  Gn0  v088
 BYTE   W01
 BYTE   W12
 BYTE   N01  Gn0  v112
 BYTE   W06
 BYTE   Gn0  v084
 BYTE   W05
 BYTE   N11  Gn0  v124
 BYTE   W13
 BYTE   N01  Gn0  v116
 BYTE   W06
 BYTE   Gn0  v088
 BYTE   W05
 BYTE   N11
 BYTE   W13
 BYTE   N01  Gn0  v112
 BYTE   W06
 BYTE   Gn0  v084
 BYTE   W05
 BYTE   N11  Gn0  v124
 BYTE   W13
 BYTE   N01  Gn0  v116
 BYTE   W06
 BYTE   Gn0  v088
 BYTE   W05
 BYTE   PEND 
// 003   ----------------------------------------
Label_11_01801C2F:
 BYTE   N11  Gn0  v088
 BYTE   W13
 BYTE   N01  Gn0  v112
 BYTE   W06
 BYTE   Gn0  v084
 BYTE   W05
 BYTE   N11  Gn0  v124
 BYTE   W13
 BYTE   N01  Gn0  v116
 BYTE   W06
 BYTE   Gn0  v088
 BYTE   W05
 BYTE   N11
 BYTE   W13
 BYTE   N01  Gn0  v112
 BYTE   W06
 BYTE   Gn0  v084
 BYTE   W05
 BYTE   N11  Gn0  v124
 BYTE   W13
 BYTE   N01  Gn0  v116
 BYTE   W06
 BYTE   Gn0  v088
 BYTE   W05
 BYTE   PEND 
 BYTE   PATT
  POIN2 Label_11_01801C2F
// 004   ----------------------------------------
 BYTE   N11  Gn0  v088
 BYTE   W13
 BYTE   N01  Gn0  v112
 BYTE   W06
 BYTE   Gn0  v084
 BYTE   W05
 BYTE   N11  Gn0  v124
 BYTE   W13
 BYTE   N01  Gn0  v116
 BYTE   W06
 BYTE   Gn0  v088
 BYTE   W05
 BYTE   N11
 BYTE   W13
 BYTE   N01  Gn0  v112
 BYTE   W06
 BYTE   Gn0  v084
 BYTE   W05
 BYTE   N11  Gn0  v124
 BYTE   W13
 BYTE   N04  Gn1  v116
 BYTE   W06
 BYTE   N01  Gn0  v088
 BYTE   W05
// 005   ----------------------------------------
Label_11_01801C8A:
 BYTE   N11  Gs0  v088
 BYTE   W13
 BYTE   N01  Gs0  v112
 BYTE   W06
 BYTE   Gs0  v084
 BYTE   W05
 BYTE   N11  Gs0  v124
 BYTE   W13
 BYTE   N01  Gs0  v116
 BYTE   W06
 BYTE   Gs0  v088
 BYTE   W05
 BYTE   N11
 BYTE   W13
 BYTE   N01  Gs0  v112
 BYTE   W06
 BYTE   Gs0  v084
 BYTE   W05
 BYTE   N11  Gs0  v124
 BYTE   W13
 BYTE   N01  Gs0  v116
 BYTE   W06
 BYTE   Gs0  v088
 BYTE   W05
 BYTE   PEND 
 BYTE   PATT
  POIN2 Label_11_01801C8A
 BYTE   PATT
  POIN2 Label_11_01801C8A
// 006   ----------------------------------------
 BYTE   N11  Gs0  v088
 BYTE   W13
 BYTE   N01  Gs0  v112
 BYTE   W06
 BYTE   Gs0  v084
 BYTE   W05
 BYTE   N11  Gs0  v124
 BYTE   W13
 BYTE   N01  Gs0  v116
 BYTE   W06
 BYTE   Gs0  v088
 BYTE   W05
 BYTE   N11
 BYTE   W13
 BYTE   N01  Gs0  v112
 BYTE   W06
 BYTE   Gs0  v084
 BYTE   W05
 BYTE   N11  Gs0  v124
 BYTE   W13
 BYTE   N05  As0  v116
 BYTE   W06
 BYTE   Gs0  v112
 BYTE   W05
 BYTE   PATT
  POIN2 Label_11_01801C2F
 BYTE   PATT
  POIN2 Label_11_01801C2F
 BYTE   PATT
  POIN2 Label_11_01801C2F
// 007   ----------------------------------------
 BYTE   N11  Gn0  v088
 BYTE   W13
 BYTE   N01  Gn0  v112
 BYTE   W06
 BYTE   Gn0  v084
 BYTE   W05
 BYTE   N11  Gn0  v124
 BYTE   W13
 BYTE   N01  Gn0  v116
 BYTE   W06
 BYTE   Gn0  v088
 BYTE   W05
 BYTE   N11
 BYTE   W13
 BYTE   N01  Gn0  v112
 BYTE   W06
 BYTE   Gn0  v084
 BYTE   W05
 BYTE   N11  Gn0  v124
 BYTE   W13
 BYTE   N04  Gn0  v116
 BYTE   W06
 BYTE   Fs0  v104
 BYTE   W05
// 008   ----------------------------------------
Label_11_01801D22:
 BYTE   N11  Fn0  v088
 BYTE   W13
 BYTE   N01  Fn0  v112
 BYTE   W06
 BYTE   Fn0  v084
 BYTE   W05
 BYTE   N11  Fn0  v124
 BYTE   W13
 BYTE   N01  Fn0  v116
 BYTE   W06
 BYTE   Fn0  v088
 BYTE   W05
 BYTE   N11
 BYTE   W13
 BYTE   N01  Fn0  v112
 BYTE   W06
 BYTE   Fn0  v084
 BYTE   W05
 BYTE   N11  Fn0  v124
 BYTE   W13
 BYTE   N01  Fn0  v116
 BYTE   W06
 BYTE   Fn0  v088
 BYTE   W05
 BYTE   PEND 
 BYTE   PATT
  POIN2 Label_11_01801D22
 BYTE   PATT
  POIN2 Label_11_01801D22
// 009   ----------------------------------------
 BYTE   N11  Fn0  v088
 BYTE   W13
 BYTE   N01  Fn0  v112
 BYTE   W06
 BYTE   Fn0  v084
 BYTE   W05
 BYTE   N11  Fn0  v124
 BYTE   W13
 BYTE   N01  Fn0  v116
 BYTE   W06
 BYTE   Fn0  v088
 BYTE   W05
 BYTE   N11
 BYTE   W13
 BYTE   N01  Fn0  v112
 BYTE   W06
 BYTE   Fn0  v084
 BYTE   W06
 BYTE   N04  Cn1  v108
 BYTE   W06
 BYTE   N01  Fn1  v088
 BYTE   W05
 BYTE   N11  Fn0  v124
 BYTE   W12
 BYTE   PATT
  POIN2 Label_11_01801C2F
 BYTE   PATT
  POIN2 Label_11_01801C2F
 BYTE   PATT
  POIN2 Label_11_01801C2F
// 010   ----------------------------------------
 BYTE   N11  Gn0  v088
 BYTE   W13
 BYTE   N01  Gn0  v112
 BYTE   W06
 BYTE   Gn0  v084
 BYTE   W05
 BYTE   N11  Gn0  v124
 BYTE   W13
 BYTE   N01  Gn0  v116
 BYTE   W06
 BYTE   Gn0  v088
 BYTE   W05
 BYTE   N11
 BYTE   W13
 BYTE   N05  Dn1  v112
 BYTE   W06
 BYTE   N02  Gn1  v084
 BYTE   W06
 BYTE   N05  Gn1  v092
 BYTE   W06
 BYTE   N02  Gn0  v112
 BYTE   W06
 BYTE   Fn0
 BYTE   W06
 BYTE   An0
 BYTE   W05
// 011   ----------------------------------------
 BYTE   W01
 BYTE   N11  Gn0  v127
 BYTE   W92
 BYTE   W03
// 012   ----------------------------------------
 BYTE   W96
 BYTE   PATT
  POIN2 Label_11_01801C03
 BYTE   PATT
  POIN2 Label_11_01801C2F
// 013   ----------------------------------------
 BYTE   W01
 BYTE   N11  Cn1  v127
 BYTE   W92
 BYTE   W03
// 014   ----------------------------------------
 BYTE   W96
// 015   ----------------------------------------
 BYTE   Cn1  v088
 BYTE   W01
 BYTE   W12
 BYTE   N01  Cn1  v112
 BYTE   W06
 BYTE   Cn1  v084
 BYTE   W05
 BYTE   N11  Cn1  v124
 BYTE   W13
 BYTE   N01  Cn1  v116
 BYTE   W06
 BYTE   Cn1  v088
 BYTE   W05
 BYTE   N11
 BYTE   W13
 BYTE   N01  Cn1  v112
 BYTE   W06
 BYTE   Cn1  v084
 BYTE   W05
 BYTE   N11  Cn1  v124
 BYTE   W13
 BYTE   N01  Cn1  v116
 BYTE   W06
 BYTE   Cn1  v088
 BYTE   W05
// 016   ----------------------------------------
 BYTE   N11
 BYTE   W13
 BYTE   N01  Cn1  v112
 BYTE   W06
 BYTE   Cn1  v084
 BYTE   W05
 BYTE   N11  Cn1  v124
 BYTE   W13
 BYTE   N01  Cn1  v116
 BYTE   W06
 BYTE   Cn1  v088
 BYTE   W05
 BYTE   N11
 BYTE   W13
 BYTE   N01  Cn1  v112
 BYTE   W06
 BYTE   Cn1  v084
 BYTE   W05
 BYTE   N11  Cn1  v124
 BYTE   W13
 BYTE   N01  Cn1  v116
 BYTE   W06
 BYTE   Cn1  v088
 BYTE   W05
// 017   ----------------------------------------
 BYTE   W96
// 018   ----------------------------------------
 BYTE   W96
// 019   ----------------------------------------
 BYTE   N11  Gn0
 BYTE   W01
 BYTE   W05
 BYTE   GoTo
  POIN2 Label_11_01801BAA
// 020   ----------------------------------------
 BYTE   W07
 BYTE   N01  Gn0  v112
 BYTE   W06
 BYTE   Gn0  v084
 BYTE   W05
 BYTE   N11  Gn0  v124
 BYTE   W13
 BYTE   N01  Gn0  v116
 BYTE   W06
 BYTE   Gn0  v088
 BYTE   W05
 BYTE   N11
 BYTE   W13
 BYTE   N01  Gn0  v112
 BYTE   W06
 BYTE   Gn0  v084
 BYTE   W05
 BYTE   N11  Gn0  v124
 BYTE   W13
 BYTE   N01  Gn0  v116
 BYTE   W06
 BYTE   Gn0  v088
 BYTE   W05
 BYTE   N11
 BYTE   W13
// 021   ----------------------------------------
 BYTE   N01  Gn0  v112
 BYTE   W06
 BYTE   Gn0  v084
 BYTE   W05
 BYTE   N11  Gn0  v124
 BYTE   W13
 BYTE   N01  Gn0  v116
 BYTE   W06
 BYTE   Gn0  v088
 BYTE   W05
 BYTE   N11
 BYTE   W13
 BYTE   N01  Gn0  v112
 BYTE   W06
 BYTE   Gn0  v084
 BYTE   W05
 BYTE   N11  Gn0  v124
 BYTE   W13
 BYTE   N01  Fn0  v116
 BYTE   W06
 BYTE   Fs0  v088
 BYTE   W05
 BYTE   FINE

//**************** Track 13 (Midi-Chn.12) ****************//

FE12ExpeditionSwiftSaturn_013:
// 000   ----------------------------------------
 BYTE   KEYSH   FE12ExpeditionSwiftSaturn_key+0
Label_12_01801E86:
 BYTE   VOICE   71
 BYTE   VOL   80*FE12ExpeditionSwiftSaturn_mvl/mxv
 BYTE   PAN   c_v-16
 BYTE   W01
 BYTE   N01  Gn1  v100
 BYTE   W12
 BYTE   N17  Gn1  v096
 BYTE   W24
 BYTE   N18  Gn1  v084
 BYTE   W24
 BYTE   N17  Gn1  v080
 BYTE   W24
 BYTE   N16  Gn1  v084
 BYTE   W11
// 001   ----------------------------------------
 BYTE   W13
 BYTE   N17
 BYTE   W24
 BYTE   N16
 BYTE   W24
 BYTE   Gn1  v088
 BYTE   W24
 BYTE   N03  Dn1  v104
 BYTE   W11
// 002   ----------------------------------------
 BYTE   W01
 BYTE   N02  Gn1  v096
 BYTE   W12
 BYTE   N17  Gn1  v092
 BYTE   W24
 BYTE   N15  Gn1  v096
 BYTE   W24
 BYTE   N16
 BYTE   W24
 BYTE   N15  Gn1  v088
 BYTE   W11
// 003   ----------------------------------------
 BYTE   W13
 BYTE   N16  Gn1  v084
 BYTE   W24
 BYTE   N17  Gn1  v088
 BYTE   W24
 BYTE   N17
 BYTE   W24
 BYTE   N14  Gn1  v084
 BYTE   W11
// 004   ----------------------------------------
 BYTE   W13
 BYTE   N16  Gn1  v092
 BYTE   W24
 BYTE   Gn1  v096
 BYTE   W24
 BYTE   Gn1  v092
 BYTE   W24
 BYTE   N17  Gn1  v088
 BYTE   W11
// 005   ----------------------------------------
 BYTE   W13
 BYTE   Gn1  v096
 BYTE   W24
 BYTE   N16
 BYTE   W24
 BYTE   N17  Gn1  v092
 BYTE   W24
 BYTE   N11  Gn1  v104
 BYTE   W11
// 006   ----------------------------------------
 BYTE   W01
 BYTE   N02  Gs1  v096
 BYTE   W12
 BYTE   N17  Gs1  v092
 BYTE   W24
 BYTE   N17
 BYTE   W24
 BYTE   N18  Gs1  v084
 BYTE   W23
 BYTE   N19  Gs1  v080
 BYTE   W12
// 007   ----------------------------------------
 BYTE   W13
 BYTE   N18  Gs1  v088
 BYTE   W24
 BYTE   N18
 BYTE   W24
 BYTE   N17
 BYTE   W24
 BYTE   N16  Gs1  v084
 BYTE   W11
// 008   ----------------------------------------
 BYTE   W13
 BYTE   N17  Gs1  v092
 BYTE   W24
 BYTE   Gs1  v088
 BYTE   W24
 BYTE   Gs1  v096
 BYTE   W24
 BYTE   Gs1  v088
 BYTE   W11
// 009   ----------------------------------------
 BYTE   W13
 BYTE   N18  Gs1  v092
 BYTE   W24
 BYTE   N17  Gs1  v088
 BYTE   W24
 BYTE   N18  Gs1  v084
 BYTE   W24
 BYTE   N03  Gs1  v104
 BYTE   W11
// 010   ----------------------------------------
 BYTE   W01
 BYTE   Gn1  v100
 BYTE   W12
 BYTE   N18  Gn1  v092
 BYTE   W24
 BYTE   N16  Gn1  v088
 BYTE   W24
 BYTE   N17
 BYTE   W24
 BYTE   Gn1  v092
 BYTE   W11
// 011   ----------------------------------------
 BYTE   W13
 BYTE   N16
 BYTE   W24
 BYTE   N17
 BYTE   W24
 BYTE   N16
 BYTE   W24
 BYTE   N15  Gn1  v096
 BYTE   W11
// 012   ----------------------------------------
 BYTE   W13
 BYTE   N16  Gn1  v088
 BYTE   W24
 BYTE   N16
 BYTE   W24
 BYTE   N14
 BYTE   W24
 BYTE   N17  Gn1  v092
 BYTE   W11
// 013   ----------------------------------------
 BYTE   W13
 BYTE   N16  Gn1  v088
 BYTE   W24
 BYTE   N17  Gn1  v092
 BYTE   W24
 BYTE   N16  Gn1  v096
 BYTE   W24
 BYTE   N11  Gn1  v112
 BYTE   W11
// 014   ----------------------------------------
 BYTE   W01
 BYTE   N04  Fn1  v104
 BYTE   W12
 BYTE   N17  Fn1  v096
 BYTE   W24
 BYTE   N16  Fn1  v084
 BYTE   W24
 BYTE   Fn1  v088
 BYTE   W24
 BYTE   N17  Fn1  v092
 BYTE   W11
// 015   ----------------------------------------
 BYTE   W13
 BYTE   N16  Fn1  v084
 BYTE   W24
 BYTE   N15
 BYTE   W24
 BYTE   N16  Fn1  v088
 BYTE   W24
 BYTE   N15  Fn1  v084
 BYTE   W11
// 016   ----------------------------------------
 BYTE   W13
 BYTE   N16
 BYTE   W24
 BYTE   N15  Fn1  v088
 BYTE   W24
 BYTE   N15
 BYTE   W24
 BYTE   N15
 BYTE   W11
// 017   ----------------------------------------
 BYTE   W13
 BYTE   N16  Fn1  v092
 BYTE   W24
 BYTE   N16
 BYTE   W24
 BYTE   N15  Fn1  v096
 BYTE   W24
 BYTE   N06  Dn1  v104
 BYTE   W11
// 018   ----------------------------------------
 BYTE   W01
 BYTE   N03  Gn1  v108
 BYTE   W12
 BYTE   N16  Gn1  v088
 BYTE   W24
 BYTE   Gn1  v092
 BYTE   W24
 BYTE   N18  Gn1  v088
 BYTE   W24
 BYTE   N16  Gn1  v076
 BYTE   W11
// 019   ----------------------------------------
 BYTE   W13
 BYTE   Gn1  v084
 BYTE   W23
 BYTE   Gn1  v088
 BYTE   W24
 BYTE   W01
 BYTE   N15  Gn1  v084
 BYTE   W23
 BYTE   Gn1  v088
 BYTE   W12
// 020   ----------------------------------------
 BYTE   W13
 BYTE   N15
 BYTE   W24
 BYTE   N16  Gn1  v080
 BYTE   W24
 BYTE   N15  Gn1  v084
 BYTE   W24
 BYTE   N14
 BYTE   W11
// 021   ----------------------------------------
 BYTE   W13
 BYTE   N15
 BYTE   W30
 BYTE   W05
 BYTE   N48  Gn3  v112
 BYTE   W01
 BYTE   W01
 BYTE   W01
 BYTE   W01
 BYTE   W01
 BYTE   W01
 BYTE   W06
 BYTE   W03
 BYTE   W03
 BYTE   W03
 BYTE   W03
 BYTE   W03
 BYTE   W03
 BYTE   W03
 BYTE   W03
 BYTE   W03
 BYTE   W03
 BYTE   W03
 BYTE   W03
// 022   ----------------------------------------
 BYTE   W01
 BYTE   N24  Gn1  v127
 BYTE   W01
 BYTE   W32
 BYTE   W03
 BYTE   N18  Dn1  v116
 BYTE   W24
 BYTE   N32  Gn3
 BYTE   W01
 BYTE   W01
 BYTE   W01
 BYTE   W03
 BYTE   W03
 BYTE   W03
 BYTE   W03
 BYTE   W03
 BYTE   W03
 BYTE   W03
 BYTE   W03
 BYTE   W03
 BYTE   W03
 BYTE   W02
// 023   ----------------------------------------
 BYTE   N03  Gn1  v108
 BYTE   W01
 BYTE   W02
 BYTE   W09
 BYTE   N03
 BYTE   W12
 BYTE   N36  Cn1  v116
 BYTE   W36
 BYTE   N03  Dn1  v092
 BYTE   W11
 BYTE   Dn1  v108
 BYTE   W13
 BYTE   Dn1  v100
 BYTE   W11
 BYTE   N48  Gn1  v120
 BYTE   W01
// 024   ----------------------------------------
 BYTE   W96
// 025   ----------------------------------------
 BYTE   W42
 BYTE   W01
 BYTE   W05
 BYTE   Gn3  v112
 BYTE   W01
 BYTE   W01
 BYTE   W01
 BYTE   W01
 BYTE   W01
 BYTE   W01
 BYTE   W06
 BYTE   W03
 BYTE   W03
 BYTE   W03
 BYTE   W03
 BYTE   W03
 BYTE   W03
 BYTE   W03
 BYTE   W03
 BYTE   W03
 BYTE   W03
 BYTE   W03
 BYTE   W03
// 026   ----------------------------------------
 BYTE   W01
 BYTE   N32  Cn2  v096
 BYTE   W01
 BYTE   W32
 BYTE   W03
 BYTE   N18  Cn1  v116
 BYTE   W24
 BYTE   N32  Fn3
 BYTE   W02
 BYTE   W01
 BYTE   W01
 BYTE   W03
 BYTE   W03
 BYTE   W02
 BYTE   W01
 BYTE   W02
 BYTE   W03
 BYTE   W01
 BYTE   W02
 BYTE   W01
 BYTE   W02
 BYTE   W01
 BYTE   W02
 BYTE   W01
 BYTE   W02
 BYTE   W01
 BYTE   W02
 BYTE   W01
 BYTE   W01
// 027   ----------------------------------------
 BYTE   N03  Cn2  v108
 BYTE   W01
 BYTE   W01
 BYTE   W01
 BYTE   W09
 BYTE   Fn1
 BYTE   W12
 BYTE   N36  Cn1  v116
 BYTE   W36
 BYTE   N03  Gn1  v092
 BYTE   W11
 BYTE   Gn1  v108
 BYTE   W13
 BYTE   Gn1  v100
 BYTE   W11
 BYTE   N11  Cn2  v104
 BYTE   W01
// 028   ----------------------------------------
 BYTE   W12
 BYTE   N19  Cn2  v072
 BYTE   W24
 BYTE   W01
 BYTE   Cn2  v080
 BYTE   W24
 BYTE   Cn2  v076
 BYTE   W24
 BYTE   N18  Cn2  v064
 BYTE   W11
// 029   ----------------------------------------
 BYTE   W12
 BYTE   Cn2  v048
 BYTE   W24
 BYTE   Cn2  v052
 BYTE   W24
 BYTE   W02
 BYTE   N17  Cn2  v068
 BYTE   W24
 BYTE   N08  Cn2  v060
 BYTE   W10
// 030   ----------------------------------------
 BYTE   W01
 BYTE   TIE  Dn1  v072
 BYTE   W92
 BYTE   W03
// 031   ----------------------------------------
 BYTE   W01
 BYTE   W42
 BYTE   W01
 BYTE   EOT
 BYTE   W28
 BYTE   W01
 BYTE   N22  Dn3  v100
 BYTE   W01
 BYTE   W01
 BYTE   W01
 BYTE   W02
 BYTE   W01
 BYTE   W02
 BYTE   W01
 BYTE   W02
 BYTE   W01
 BYTE   W02
 BYTE   W01
 BYTE   W02
 BYTE   W01
 BYTE   W02
 BYTE   W01
 BYTE   W01
 BYTE   N10  Gn1  v104
 BYTE   W01
// 032   ----------------------------------------
 BYTE   W01
 BYTE   W05
 BYTE   GoTo
  POIN2 Label_12_01801E86
// 033   ----------------------------------------
 BYTE   W07
 BYTE   N17  Gn1  v092
 BYTE   W24
 BYTE   N18  Gn1  v084
 BYTE   W24
 BYTE   N17  Gn1  v080
 BYTE   W24
 BYTE   N16  Gn1  v084
 BYTE   W11
 BYTE   W13
// 034   ----------------------------------------
 BYTE   N17
 BYTE   W24
 BYTE   N16
 BYTE   W24
 BYTE   Gn1  v088
 BYTE   W24
 BYTE   N11  Dn1  v104
 BYTE   W11
 BYTE   FINE

//******************************************************//
	ALIGN 4

FE12ExpeditionSwiftSaturn:
	BYTE	13	// NumTrks
	BYTE	0	// NumBlks
	BYTE	FE12ExpeditionSwiftSaturn_pri	// Priority
	BYTE	FE12ExpeditionSwiftSaturn_rev	// Reverb.
    
	POIN2	FE12ExpeditionSwiftSaturn_grp
    
	POIN2	FE12ExpeditionSwiftSaturn_001
	POIN2	FE12ExpeditionSwiftSaturn_002
	POIN2	FE12ExpeditionSwiftSaturn_003
	POIN2	FE12ExpeditionSwiftSaturn_004
	POIN2	FE12ExpeditionSwiftSaturn_005
	POIN2	FE12ExpeditionSwiftSaturn_006
	POIN2	FE12ExpeditionSwiftSaturn_007
	POIN2	FE12ExpeditionSwiftSaturn_008
	POIN2	FE12ExpeditionSwiftSaturn_009
	POIN2	FE12ExpeditionSwiftSaturn_010
	POIN2	FE12ExpeditionSwiftSaturn_011
	POIN2	FE12ExpeditionSwiftSaturn_012
	POIN2	FE12ExpeditionSwiftSaturn_013

	
