//Event file generated from Sappy .s format.
	#include "MPlayDef.event"

	#define	FE12TearfulShadowsRSflame_grp  voicegroup000
	#define	FE12TearfulShadowsRSflame_pri  0
	#define	FE12TearfulShadowsRSflame_rev  0
	#define	FE12TearfulShadowsRSflame_mvl  127
	#define	FE12TearfulShadowsRSflame_key  0
	#define	FE12TearfulShadowsRSflame_tbs  1
	#define	FE12TearfulShadowsRSflame_exg  0
	#define	FE12TearfulShadowsRSflame_cmp  1

	// .rodata
	//	FE12TearfulShadowsRSflame
	ALIGN 4


//**************** Track 1 (Midi-Chn.0) ****************//

FE12TearfulShadowsRSflame_001:
// 000   ----------------------------------------
 BYTE   KEYSH   FE12TearfulShadowsRSflame_key+0
 BYTE   TEMPO   184*FE12TearfulShadowsRSflame_tbs/2
 BYTE   VOICE   45
 BYTE   VOL   41*FE12TearfulShadowsRSflame_mvl/mxv
 BYTE   PAN   c_v+0
 BYTE   BEND   c_v+0
 BYTE   W24
 BYTE   En3
 BYTE   N22  Fs3  v112
 BYTE   W24
 BYTE   N05
 BYTE   W06
 BYTE   N05
 BYTE   W06
 BYTE   N05
 BYTE   W06
 BYTE   N05
 BYTE   W06
 BYTE   N05
 BYTE   W24
// 001   ----------------------------------------
 BYTE   Cn3
 BYTE   W07
 BYTE   W01
 BYTE   W01
 BYTE   W01
 BYTE   W01
 BYTE   W01
 BYTE   Fs4  v127
 BYTE   W06
 BYTE   W06
 BYTE   Gn4
 BYTE   W06
 BYTE   W03
 BYTE   W03
 BYTE   Cn5
 BYTE   W03
 BYTE   W03
 BYTE   W03
 BYTE   W03
 BYTE   Fs4
 BYTE   W03
 BYTE   W03
 BYTE   W03
 BYTE   W03
 BYTE   Gn4
 BYTE   W03
 BYTE   W03
 BYTE   W03
 BYTE   W03
 BYTE   Cn5
 BYTE   W03
 BYTE   W03
 BYTE   W03
 BYTE   W03
 BYTE   Fs4
 BYTE   W03
 BYTE   W03
 BYTE   W03
 BYTE   W03
// 002   ----------------------------------------
 BYTE   Gn4
 BYTE   W03
 BYTE   W03
 BYTE   W03
 BYTE   W03
 BYTE   Cn5
 BYTE   W12
 BYTE   N22  Fs3  v112
 BYTE   W24
 BYTE   N05
 BYTE   W06
 BYTE   N05
 BYTE   W06
 BYTE   N05
 BYTE   W06
 BYTE   N05
 BYTE   W06
 BYTE   N05
 BYTE   W24
// 003   ----------------------------------------
 BYTE   Cn3
 BYTE   W09
 BYTE   W01
 BYTE   W01
 BYTE   W01
 BYTE   Fs4  v127
 BYTE   W09
 BYTE   W03
 BYTE   Gn4
 BYTE   W03
 BYTE   W03
 BYTE   W06
 BYTE   Cn5
 BYTE   W06
 BYTE   W03
 BYTE   W03
 BYTE   Fs4
 BYTE   W03
 BYTE   W03
 BYTE   W03
 BYTE   W03
 BYTE   Gn4
 BYTE   W03
 BYTE   W03
 BYTE   W03
 BYTE   W03
 BYTE   Cn5
 BYTE   W03
 BYTE   W03
 BYTE   W03
 BYTE   W03
 BYTE   Fs4
 BYTE   W03
 BYTE   W03
 BYTE   W03
 BYTE   W03
// 004   ----------------------------------------
 BYTE   Gn4
 BYTE   W03
 BYTE   W03
 BYTE   W03
 BYTE   W03
 BYTE   Cn5
 BYTE   W11
 BYTE   N06  Bn3  v112
 BYTE   W07
 BYTE   W01
 BYTE   W01
 BYTE   W01
 BYTE   W01
 BYTE   W01
 BYTE   Cn5  v127
 BYTE   W07
 BYTE   W03
 BYTE   W02
 BYTE   Bn4
 BYTE   W04
 BYTE   W02
 BYTE   W04
 BYTE   W02
 BYTE   Fs4
 BYTE   W04
 BYTE   W02
 BYTE   W04
 BYTE   W02
 BYTE   Cn5
 BYTE   W04
 BYTE   W02
 BYTE   W04
 BYTE   W02
 BYTE   Bn4
 BYTE   W04
 BYTE   W02
 BYTE   W04
 BYTE   W02
 BYTE   Fs4
 BYTE   W01
// 005   ----------------------------------------
 BYTE   W03
 BYTE   W02
 BYTE   W04
 BYTE   W02
 BYTE   Cn5
 BYTE   W04
 BYTE   W02
 BYTE   W04
 BYTE   W02
 BYTE   Bn4
 BYTE   W04
 BYTE   W02
 BYTE   W04
 BYTE   W02
 BYTE   Fs4
 BYTE   W04
 BYTE   W02
 BYTE   W04
 BYTE   W02
 BYTE   Cn5
 BYTE   W04
 BYTE   W02
 BYTE   W04
 BYTE   W02
 BYTE   Bn4
 BYTE   W36
 BYTE   W01
// 006   ----------------------------------------
Label_0_01027C8C:
 BYTE   W23
 BYTE   W01
 BYTE   BEND   c_v+0
 BYTE   N24  Bn3  v112
 BYTE   W07
 BYTE   W07
 BYTE   W03
 BYTE   W04
 BYTE   W03
 BYTE   Fs4
 BYTE   W04
 BYTE   W03
 BYTE   W04
 BYTE   W04
 BYTE   W07
 BYTE   W02
 BYTE   Gn4
 BYTE   W01
 BYTE   W04
 BYTE   W03
 BYTE   W04
 BYTE   W03
 BYTE   W04
 BYTE   W04
 BYTE   W01
// 007   ----------------------------------------
 BYTE   Cn5
 BYTE   W02
 BYTE   W04
 BYTE   W03
 BYTE   W04
 BYTE   W03
 BYTE   W04
 BYTE   W04
 BYTE   BEND   c_v+0
 BYTE   N72  Bn4
 BYTE   W03
 BYTE   W03
 BYTE   BEND   c_v-1
 BYTE   W03
 BYTE   W03
 BYTE   Dn3
 BYTE   W03
 BYTE   W03
 BYTE   Cs3
 BYTE   W03
 BYTE   Cn3
 BYTE   W03
 BYTE   Bn2
 BYTE   W03
 BYTE   As2
 BYTE   W03
 BYTE   An2
 BYTE   W03
 BYTE   Gs2
 BYTE   W03
 BYTE   Gn2
 BYTE   W03
 BYTE   Fs2
 BYTE   W03
 BYTE   Fn2
 BYTE   W03
 BYTE   Ds2
 BYTE   W03
 BYTE   Cs2
 BYTE   W03
 BYTE   Cn2
 BYTE   W03
 BYTE   As1
 BYTE   W03
 BYTE   Gn1
 BYTE   W03
 BYTE   Fn1
 BYTE   W03
 BYTE   Dn1
 BYTE   W03
 BYTE   As0
 BYTE   W03
 BYTE   Fs0
 BYTE   W02
 BYTE   Cs0
 BYTE   W01
// 008   ----------------------------------------
 BYTE   En3
 BYTE   N12  Fs4
 BYTE   W01
 BYTE   W02
 BYTE   W01
 BYTE   W02
 BYTE   W01
 BYTE   W02
 BYTE   W01
 BYTE   W02
 BYTE   Gn4
 BYTE   W01
 BYTE   W02
 BYTE   W01
 BYTE   W02
 BYTE   W01
 BYTE   W02
 BYTE   W01
 BYTE   W02
 BYTE   N36  An4
 BYTE   W01
 BYTE   W01
 BYTE   W01
 BYTE   W01
 BYTE   W01
 BYTE   W01
 BYTE   W01
 BYTE   W02
 BYTE   W01
 BYTE   W02
 BYTE   W01
 BYTE   W02
 BYTE   W01
 BYTE   W02
 BYTE   W01
 BYTE   W02
 BYTE   W01
 BYTE   W02
 BYTE   W01
 BYTE   W02
 BYTE   W01
 BYTE   W02
 BYTE   W06
 BYTE   N12  Bn4
 BYTE   W11
 BYTE   W01
 BYTE   N24  Gn4
 BYTE   W01
 BYTE   W01
 BYTE   W02
 BYTE   W01
 BYTE   W02
 BYTE   W01
 BYTE   W02
 BYTE   W01
 BYTE   W02
 BYTE   W01
 BYTE   W02
 BYTE   W01
 BYTE   W02
 BYTE   W01
 BYTE   W02
 BYTE   W01
 BYTE   W01
// 009   ----------------------------------------
 BYTE   N12  En4
 BYTE   W01
 BYTE   W02
 BYTE   W01
 BYTE   W02
 BYTE   W01
 BYTE   W02
 BYTE   W01
 BYTE   W02
 BYTE   Fs4
 BYTE   W01
 BYTE   W02
 BYTE   W01
 BYTE   W02
 BYTE   W01
 BYTE   W02
 BYTE   W01
 BYTE   W02
 BYTE   N36  Gn4
 BYTE   W01
 BYTE   W01
 BYTE   W01
 BYTE   W01
 BYTE   W01
 BYTE   W01
 BYTE   W01
 BYTE   W02
 BYTE   W01
 BYTE   W02
 BYTE   W01
 BYTE   W02
 BYTE   W01
 BYTE   W02
 BYTE   W01
 BYTE   W02
 BYTE   W01
 BYTE   W02
 BYTE   W01
 BYTE   W02
 BYTE   W01
 BYTE   W02
 BYTE   W06
 BYTE   N12  An4
 BYTE   W12
 BYTE   BEND   c_v+0
 BYTE   N48  Fs4
 BYTE   W06
 BYTE   BEND   c_v-1
 BYTE   W03
 BYTE   Dn3
 BYTE   W03
 BYTE   Cs3
 BYTE   W03
 BYTE   Cn3
 BYTE   W03
 BYTE   Bn2
 BYTE   W03
 BYTE   An2
 BYTE   W03
// 010   ----------------------------------------
 BYTE   Gs2
 BYTE   W03
 BYTE   Fs2
 BYTE   W03
 BYTE   En2
 BYTE   W03
 BYTE   Cs2
 BYTE   W03
 BYTE   As1
 BYTE   W03
 BYTE   Gn1
 BYTE   W03
 BYTE   Dn1
 BYTE   W03
 BYTE   An0
 BYTE   W03
 BYTE   En3
 BYTE   N96  En4
 BYTE   W04
 BYTE   W05
 BYTE   W05
 BYTE   W05
 BYTE   W05
 BYTE   W04
 BYTE   W05
 BYTE   W05
 BYTE   W05
 BYTE   W05
 BYTE   W04
 BYTE   W05
 BYTE   W05
 BYTE   W05
 BYTE   W05
// 011   ----------------------------------------
 BYTE   W04
 BYTE   W05
 BYTE   W05
 BYTE   W05
 BYTE   W05
 BYTE   W72
// 012   ----------------------------------------
 BYTE   W96
// 013   ----------------------------------------
 BYTE   W96
// 014   ----------------------------------------
 BYTE   W96
// 015   ----------------------------------------
 BYTE   W96
// 016   ----------------------------------------
 BYTE   W96
// 017   ----------------------------------------
 BYTE   W24
 BYTE   TEMPO   154*FE12TearfulShadowsRSflame_tbs/2
 BYTE   W44
 BYTE   W01
 BYTE   W01
 BYTE   W01
 BYTE   N05  Dn6  v088
 BYTE   W01
 BYTE   TEMPO   184*FE12TearfulShadowsRSflame_tbs/2
 BYTE   W07
 BYTE   Gn5
 BYTE   W08
 BYTE   Fs5
 BYTE   W08
 BYTE   Cs6
 BYTE   W01
// 018   ----------------------------------------
 BYTE   W07
 BYTE   Fs5
 BYTE   W08
 BYTE   Fn5
 BYTE   W08
 BYTE   En4
 BYTE   W08
 BYTE   En5
 BYTE   W08
 BYTE   En4
 BYTE   W08
 BYTE   En5
 BYTE   W08
 BYTE   En4
 BYTE   W08
 BYTE   En5
 BYTE   W08
 BYTE   N24  Fs5
 BYTE   N24  Gn5
 BYTE   N24  Bn5
 BYTE   W24
 BYTE   N05  En4
 BYTE   W01
// 019   ----------------------------------------
Label_0_01027DC4:
 BYTE   W07
 BYTE   N05  En5  v088
 BYTE   W08
 BYTE   En4
 BYTE   W08
 BYTE   En5
 BYTE   W08
 BYTE   En4
 BYTE   W08
 BYTE   En5
 BYTE   W08
 BYTE   N24  An5
 BYTE   N24  As5
 BYTE   N24  Dn6
 BYTE   W24
 BYTE   N05  En4
 BYTE   W08
 BYTE   En5
 BYTE   W08
 BYTE   En4
 BYTE   W08
 BYTE   En5
 BYTE   W01
 BYTE   PEND 
// 020   ----------------------------------------
Label_0_01027DE2:
 BYTE   W07
 BYTE   N05  En4  v088
 BYTE   W08
 BYTE   En5
 BYTE   W08
 BYTE   N24
 BYTE   N24  Fn5
 BYTE   N24  As5
 BYTE   W24
 BYTE   N05  En4
 BYTE   W08
 BYTE   En5
 BYTE   W08
 BYTE   En4
 BYTE   W08
 BYTE   En5
 BYTE   W08
 BYTE   En4
 BYTE   W08
 BYTE   En5
 BYTE   W08
 BYTE   N24  Fs5
 BYTE   N24  Gn5
 BYTE   N24  Bn5
 BYTE   W01
 BYTE   PEND 
// 021   ----------------------------------------
 BYTE   W23
 BYTE   N05  En4
 BYTE   W08
 BYTE   En5
 BYTE   W08
 BYTE   En4
 BYTE   W08
 BYTE   En5
 BYTE   W08
 BYTE   En4
 BYTE   W08
 BYTE   En5
 BYTE   W08
 BYTE   As5
 BYTE   W08
 BYTE   Ds5
 BYTE   W08
 BYTE   Dn5
 BYTE   W08
 BYTE   An5
 BYTE   W01
// 022   ----------------------------------------
 BYTE   W07
 BYTE   Dn5
 BYTE   W08
 BYTE   Cs5
 BYTE   W08
 BYTE   En4
 BYTE   W08
 BYTE   En5
 BYTE   W08
 BYTE   En4
 BYTE   W08
 BYTE   En5
 BYTE   W08
 BYTE   En4
 BYTE   W08
 BYTE   En5
 BYTE   W08
 BYTE   N24  Fs5
 BYTE   N24  Gn5
 BYTE   N24  Bn5
 BYTE   W24
 BYTE   N05  En4
 BYTE   W01
// 023   ----------------------------------------
 BYTE   PATT
  POIN2 Label_0_01027DC4
// 024   ----------------------------------------
 BYTE   PATT
  POIN2 Label_0_01027DE2
// 025   ----------------------------------------
 BYTE   W23
 BYTE   N05  En4  v088
 BYTE   W08
 BYTE   En5
 BYTE   W08
 BYTE   En4
 BYTE   W08
 BYTE   En5
 BYTE   W08
 BYTE   En4
 BYTE   W08
 BYTE   En5
 BYTE   W32
 BYTE   W01
// 026   ----------------------------------------
 BYTE   W23
 BYTE   GoTo
  POIN2 Label_0_01027C8C
 BYTE   FINE

//**************** Track 2 (Midi-Chn.1) ****************//

FE12TearfulShadowsRSflame_002:
// 000   ----------------------------------------
 BYTE   KEYSH   FE12TearfulShadowsRSflame_key+0
 BYTE   VOICE   28
 BYTE   VOL   33*FE12TearfulShadowsRSflame_mvl/mxv
 BYTE   PAN   c_v+0
 BYTE   BEND   c_v+0
 BYTE   W24
 BYTE   N22  Fs1  v120
 BYTE   W24
 BYTE   N05
 BYTE   W06
 BYTE   N05
 BYTE   W06
 BYTE   N05
 BYTE   W06
 BYTE   N05
 BYTE   W06
 BYTE   N05
 BYTE   W24
// 001   ----------------------------------------
Label_1_560C59:
 BYTE   N11  Cn2  v120
 BYTE   W12
 BYTE   N11
 BYTE   W24
 BYTE   N11
 BYTE   W12
 BYTE   N11
 BYTE   W24
 BYTE   N11
 BYTE   W24
 BYTE   PEND 
// 002   ----------------------------------------
 BYTE   N11
 BYTE   W24
 BYTE   N22  Fs1
 BYTE   W24
 BYTE   N05
 BYTE   W06
 BYTE   N05
 BYTE   W06
 BYTE   N05
 BYTE   W06
 BYTE   N05
 BYTE   W06
 BYTE   N05
 BYTE   W24
// 003   ----------------------------------------
 BYTE   PATT
  POIN2 Label_1_560C59
// 004   ----------------------------------------
 BYTE   N11  Cn2  v120
 BYTE   W24
 BYTE   N12  Bn1  v127
 BYTE   W72
// 005   ----------------------------------------
 BYTE   W72
 BYTE   N04
 BYTE   W06
 BYTE   N04
 BYTE   W06
 BYTE   N04
 BYTE   W06
 BYTE   N04
 BYTE   W06
// 006   ----------------------------------------
Label_1_560C8B:
 BYTE   N04  Bn1  v127
 BYTE   W24
 BYTE   N22
 BYTE   W24
 BYTE   N05
 BYTE   W06
 BYTE   Bn1  v096
 BYTE   W06
 BYTE   Bn2  v112
 BYTE   W06
 BYTE   Bn2  v080
 BYTE   W06
 BYTE   Cn2  v127
 BYTE   W06
 BYTE   Cn2  v096
 BYTE   W06
 BYTE   Cn3  v112
 BYTE   W06
 BYTE   Cn3  v080
 BYTE   W06
// 007   ----------------------------------------
Label_1_560CA8:
 BYTE   N05  An1  v127
 BYTE   W06
 BYTE   An1  v096
 BYTE   W06
 BYTE   An2  v112
 BYTE   W06
 BYTE   An2  v080
 BYTE   W06
 BYTE   Bn1  v127
 BYTE   W06
 BYTE   Bn1  v096
 BYTE   W06
 BYTE   Bn2  v112
 BYTE   W06
 BYTE   Bn2  v080
 BYTE   W06
 BYTE   Cn2  v127
 BYTE   W06
 BYTE   Cn2  v096
 BYTE   W06
 BYTE   Cn3  v112
 BYTE   W06
 BYTE   Cn3  v080
 BYTE   W06
 BYTE   An1  v127
 BYTE   W06
 BYTE   An1  v096
 BYTE   W06
 BYTE   An2  v112
 BYTE   W06
 BYTE   An2  v080
 BYTE   W06
 BYTE   PEND 
// 008   ----------------------------------------
 BYTE   Bn1  v127
 BYTE   W06
 BYTE   Bn1  v096
 BYTE   W06
 BYTE   Bn2  v112
 BYTE   W06
 BYTE   Bn2  v080
 BYTE   W06
 BYTE   N22  Bn1  v127
 BYTE   W24
 BYTE   N05
 BYTE   W06
 BYTE   Bn1  v096
 BYTE   W06
 BYTE   Bn2  v112
 BYTE   W06
 BYTE   Bn2  v080
 BYTE   W06
 BYTE   Cn2  v127
 BYTE   W06
 BYTE   Cn2  v096
 BYTE   W06
 BYTE   Cn3  v112
 BYTE   W06
 BYTE   Cn3  v080
 BYTE   W06
// 009   ----------------------------------------
 BYTE   PATT
  POIN2 Label_1_560CA8
// 010   ----------------------------------------
 BYTE   N05  Bn1  v127
 BYTE   W06
 BYTE   Bn1  v096
 BYTE   W06
 BYTE   Bn2  v112
 BYTE   W06
 BYTE   Bn2  v080
 BYTE   W06
 BYTE   N10  Cn3  v127
 BYTE   W12
 BYTE   N10
 BYTE   W24
 BYTE   Cn2
 BYTE   W24
 BYTE   N10
 BYTE   W12
// 011   ----------------------------------------
Label_1_560D1D:
 BYTE   N10  Cn3  v127
 BYTE   W24
 BYTE   An1
 BYTE   W24
 BYTE   An2
 BYTE   W24
 BYTE   An1
 BYTE   W12
 BYTE   N24  An2
 BYTE   W12
 BYTE   PEND 
// 012   ----------------------------------------
Label_1_560D2B:
 BYTE   W12
 BYTE   N06  Gn2  v127
 BYTE   W06
 BYTE   Fs2
 BYTE   W06
 BYTE   N10  En2
 BYTE   W12
 BYTE   N10
 BYTE   W24
 BYTE   En1
 BYTE   W24
 BYTE   N10
 BYTE   W12
 BYTE   PEND 
// 013   ----------------------------------------
 BYTE   En2
 BYTE   W24
 BYTE   N10
 BYTE   W24
 BYTE   En1
 BYTE   W24
 BYTE   En2
 BYTE   W12
 BYTE   N32  En1
 BYTE   W12
// 014   ----------------------------------------
 BYTE   W24
 BYTE   N10  Cn3
 BYTE   W12
 BYTE   N10
 BYTE   W24
 BYTE   Cn2
 BYTE   W24
 BYTE   N10
 BYTE   W12
// 015   ----------------------------------------
 BYTE   PATT
  POIN2 Label_1_560D1D
// 016   ----------------------------------------
 BYTE   PATT
  POIN2 Label_1_560D2B
// 017   ----------------------------------------
 BYTE   N10  En2  v127
 BYTE   W24
 BYTE   N15
 BYTE   W18
 BYTE   N06  En1
 BYTE   W18
 BYTE   N06
 BYTE   W12
 BYTE   N10  En2
 BYTE   W24
// 018   ----------------------------------------
 BYTE   W24
 BYTE   N08  En1
 BYTE   W16
 BYTE   N08
 BYTE   W24
 BYTE   N08
 BYTE   W16
 BYTE   N08
 BYTE   W08
 BYTE   N08
 BYTE   W08
// 019   ----------------------------------------
Label_1_560D75:
 BYTE   N08  En1  v127
 BYTE   W16
 BYTE   N08
 BYTE   W16
 BYTE   N08
 BYTE   W16
 BYTE   N08
 BYTE   W16
 BYTE   N08
 BYTE   W24
 BYTE   N08
 BYTE   W08
 BYTE   PEND 
// 020   ----------------------------------------
 BYTE   W08
 BYTE   N08
 BYTE   W08
 BYTE   N08
 BYTE   W08
 BYTE   N08
 BYTE   W16
 BYTE   N08
 BYTE   W16
 BYTE   N08
 BYTE   W16
 BYTE   N08
 BYTE   W16
 BYTE   N08
 BYTE   W08
// 021   ----------------------------------------
 BYTE   W08
 BYTE   N08
 BYTE   W16
 BYTE   N08
 BYTE   W16
 BYTE   N08
 BYTE   W16
 BYTE   N08
 BYTE   W16
 BYTE   As2  v100
 BYTE   W08
 BYTE   Ds2
 BYTE   W08
 BYTE   Dn2
 BYTE   W08
// 022   ----------------------------------------
 BYTE   An2
 BYTE   W08
 BYTE   Dn2
 BYTE   W08
 BYTE   Cs2
 BYTE   W08
 BYTE   En1  v127
 BYTE   W16
 BYTE   N08
 BYTE   W16
 BYTE   N08
 BYTE   W08
 BYTE   N08
 BYTE   W24
 BYTE   N08
 BYTE   W08
// 023   ----------------------------------------
 BYTE   PATT
  POIN2 Label_1_560D75
// 024   ----------------------------------------
 BYTE   W08
 BYTE   N08  En1  v127
 BYTE   W08
 BYTE   N08
 BYTE   W08
 BYTE   N08
 BYTE   W16
 BYTE   N08
 BYTE   W08
 BYTE   N08
 BYTE   W08
 BYTE   N08
 BYTE   W08
 BYTE   N08
 BYTE   W08
 BYTE   N08
 BYTE   W16
 BYTE   N08
 BYTE   W08
// 025   ----------------------------------------
 BYTE   N08
 BYTE   W08
 BYTE   N08
 BYTE   W08
 BYTE   N08
 BYTE   W08
 BYTE   N08
 BYTE   W24
 BYTE   N08
 BYTE   W24
 BYTE   N05  Bn1
 BYTE   W06
 BYTE   N05
 BYTE   W06
 BYTE   N05
 BYTE   W06
 BYTE   N05
 BYTE   W06
// 026   ----------------------------------------
 BYTE   N05
 BYTE   W23
 BYTE   GoTo
  POIN2 Label_1_560C8B
 BYTE   FINE

//**************** Track 3 (Midi-Chn.2) ****************//

FE12TearfulShadowsRSflame_003:
// 000   ----------------------------------------
 BYTE   KEYSH   FE12TearfulShadowsRSflame_key+0
 BYTE   VOICE   40
 BYTE   VOL   16*FE12TearfulShadowsRSflame_mvl/mxv
 BYTE   PAN   c_v+0
 BYTE   BEND   c_v+0
 BYTE   W96
// 001   ----------------------------------------
 BYTE   W96
// 002   ----------------------------------------
 BYTE   W96
// 003   ----------------------------------------
 BYTE   W96
// 004   ----------------------------------------
 BYTE   W96
// 005   ----------------------------------------
 BYTE   W96
// 006   ----------------------------------------
Label_2_01027E68:
 BYTE   W22
 BYTE   W02
 BYTE   BEND   c_v+0
 BYTE   N23  Bn3  v116
 BYTE   N23  Bn4
 BYTE   W05
 BYTE   W03
 BYTE   W04
 BYTE   W03
 BYTE   W03
 BYTE   W04
 BYTE   W01
 BYTE   N24  Fs4
 BYTE   N24  Fs5
 BYTE   W02
 BYTE   W03
 BYTE   W04
 BYTE   W03
 BYTE   W03
 BYTE   W04
 BYTE   W03
 BYTE   W03
 BYTE   N23  Gn4
 BYTE   N23  Gn5
 BYTE   W04
 BYTE   W03
 BYTE   W03
 BYTE   W04
 BYTE   W03
 BYTE   W03
 BYTE   W03
 BYTE   N24  Cn5
 BYTE   N24  Cn6
 BYTE   W01
// 007   ----------------------------------------
 BYTE   W03
 BYTE   W04
 BYTE   W03
 BYTE   W03
 BYTE   W04
 BYTE   W03
 BYTE   W03
 BYTE   BEND   c_v+0
 BYTE   N72  Bn4
 BYTE   N72  Bn5
 BYTE   W03
 BYTE   W03
 BYTE   W01
 BYTE   BEND   c_v-1
 BYTE   W02
 BYTE   W03
 BYTE   W01
 BYTE   Dn3
 BYTE   W02
 BYTE   W03
 BYTE   W01
 BYTE   Cs3
 BYTE   W02
 BYTE   W01
 BYTE   Cn3
 BYTE   W02
 BYTE   W01
 BYTE   Bn2
 BYTE   W02
 BYTE   W01
 BYTE   As2
 BYTE   W02
 BYTE   W01
 BYTE   An2
 BYTE   W02
 BYTE   W01
 BYTE   Gs2
 BYTE   W02
 BYTE   W01
 BYTE   Gn2
 BYTE   W02
 BYTE   W01
 BYTE   Fs2
 BYTE   W02
 BYTE   W01
 BYTE   Fn2
 BYTE   W02
 BYTE   W01
 BYTE   Ds2
 BYTE   W02
 BYTE   W01
 BYTE   Cs2
 BYTE   W02
 BYTE   W01
 BYTE   Cn2
 BYTE   W02
 BYTE   W01
 BYTE   As1
 BYTE   W02
 BYTE   W01
 BYTE   Gn1
 BYTE   W02
 BYTE   W01
 BYTE   Fn1
 BYTE   W02
 BYTE   W01
 BYTE   Dn1
 BYTE   W02
 BYTE   W01
 BYTE   As0
 BYTE   W02
 BYTE   W01
 BYTE   Fs0
 BYTE   W02
 BYTE   En3
 BYTE   N12  Fs4
 BYTE   N12  Fs5
 BYTE   W01
// 008   ----------------------------------------
 BYTE   W02
 BYTE   W01
 BYTE   W02
 BYTE   W01
 BYTE   W02
 BYTE   W01
 BYTE   W02
 BYTE   Gn4
 BYTE   N12  Gn5
 BYTE   W01
 BYTE   W02
 BYTE   W01
 BYTE   W02
 BYTE   W01
 BYTE   W01
 BYTE   W01
 BYTE   W01
 BYTE   W01
 BYTE   W01
 BYTE   N36  An4
 BYTE   N36  An5
 BYTE   W01
 BYTE   W02
 BYTE   W01
 BYTE   W02
 BYTE   W01
 BYTE   W02
 BYTE   W01
 BYTE   W02
 BYTE   W01
 BYTE   W02
 BYTE   W01
 BYTE   W02
 BYTE   W01
 BYTE   W02
 BYTE   W01
 BYTE   W02
 BYTE   W12
 BYTE   N12  Bn4
 BYTE   N12  Bn5
 BYTE   W05
 BYTE   W02
 BYTE   W01
 BYTE   W02
 BYTE   W01
 BYTE   W01
 BYTE   N24  Gn4
 BYTE   N24  Gn5
 BYTE   W01
 BYTE   W01
 BYTE   W02
 BYTE   W01
 BYTE   W02
 BYTE   W01
 BYTE   W02
 BYTE   W01
 BYTE   W02
 BYTE   W01
 BYTE   W02
 BYTE   W01
 BYTE   W01
 BYTE   W01
 BYTE   W02
 BYTE   W01
 BYTE   W02
 BYTE   N12  En4
 BYTE   N12  En5
 BYTE   W01
// 009   ----------------------------------------
 BYTE   W02
 BYTE   W01
 BYTE   W02
 BYTE   W01
 BYTE   W02
 BYTE   W01
 BYTE   W02
 BYTE   Fs4
 BYTE   N12  Fs5
 BYTE   W01
 BYTE   W02
 BYTE   W01
 BYTE   W02
 BYTE   W01
 BYTE   W01
 BYTE   W01
 BYTE   W01
 BYTE   W01
 BYTE   W01
 BYTE   N36  Gn4
 BYTE   N36  Gn5
 BYTE   W01
 BYTE   W02
 BYTE   W01
 BYTE   W02
 BYTE   W01
 BYTE   W02
 BYTE   W01
 BYTE   W02
 BYTE   W01
 BYTE   W02
 BYTE   W01
 BYTE   W02
 BYTE   W01
 BYTE   W02
 BYTE   W01
 BYTE   W02
 BYTE   W12
 BYTE   N12  An4
 BYTE   N12  An5
 BYTE   W12
 BYTE   BEND   c_v+0
 BYTE   N48  Fs4
 BYTE   N48  Fs5
 BYTE   W03
 BYTE   W03
 BYTE   W01
 BYTE   BEND   c_v-1
 BYTE   W02
 BYTE   W01
 BYTE   Dn3
 BYTE   W02
 BYTE   W01
 BYTE   Cs3
 BYTE   W02
 BYTE   W01
 BYTE   Cn3
 BYTE   W02
 BYTE   W01
 BYTE   Bn2
 BYTE   W02
 BYTE   W01
 BYTE   An2
 BYTE   W02
 BYTE   W01
// 010   ----------------------------------------
 BYTE   Gs2
 BYTE   W02
 BYTE   W01
 BYTE   Fs2
 BYTE   W02
 BYTE   W01
 BYTE   En2
 BYTE   W02
 BYTE   W01
 BYTE   Cs2
 BYTE   W02
 BYTE   W01
 BYTE   As1
 BYTE   W02
 BYTE   W01
 BYTE   Gn1
 BYTE   W02
 BYTE   W01
 BYTE   Dn1
 BYTE   W03
 BYTE   An0
 BYTE   W02
 BYTE   Cs0
 BYTE   N96  En4
 BYTE   N96  En5
 BYTE   W01
 BYTE   BEND   c_v+0
 BYTE   W02
 BYTE   W05
 BYTE   W05
 BYTE   W05
 BYTE   W04
 BYTE   W05
 BYTE   W05
 BYTE   W05
 BYTE   W05
 BYTE   W04
 BYTE   W05
 BYTE   W05
 BYTE   W05
 BYTE   W05
 BYTE   W04
 BYTE   W03
// 011   ----------------------------------------
 BYTE   W02
 BYTE   W05
 BYTE   W05
 BYTE   W05
 BYTE   W78
 BYTE   W01
// 012   ----------------------------------------
 BYTE   W96
// 013   ----------------------------------------
 BYTE   W96
// 014   ----------------------------------------
 BYTE   W96
// 015   ----------------------------------------
 BYTE   W96
// 016   ----------------------------------------
 BYTE   W96
// 017   ----------------------------------------
 BYTE   W96
// 018   ----------------------------------------
 BYTE   W96
// 019   ----------------------------------------
 BYTE   W96
// 020   ----------------------------------------
 BYTE   W96
// 021   ----------------------------------------
 BYTE   W96
// 022   ----------------------------------------
 BYTE   W96
// 023   ----------------------------------------
 BYTE   W96
// 024   ----------------------------------------
 BYTE   W96
// 025   ----------------------------------------
 BYTE   W96
// 026   ----------------------------------------
 BYTE   W23
 BYTE   GoTo
  POIN2 Label_2_01027E68
 BYTE   FINE

//**************** Track 4 (Midi-Chn.3) ****************//

FE12TearfulShadowsRSflame_004:
// 000   ----------------------------------------
 BYTE   KEYSH   FE12TearfulShadowsRSflame_key+0
 BYTE   VOICE   47
 BYTE   VOL   32*FE12TearfulShadowsRSflame_mvl/mxv
 BYTE   PAN   c_v+0
 BYTE   BEND   c_v+0
 BYTE   W24
 BYTE   N96  Cn5  v127
 BYTE   W06
 BYTE   N90  Cn4  v068
 BYTE   W06
 BYTE   Cn6  v056
 BYTE   W60
// 001   ----------------------------------------
 BYTE   W96
// 002   ----------------------------------------
 BYTE   W21
 BYTE   N96  Cn5  v127
 BYTE   W06
 BYTE   N90  Cn4  v068
 BYTE   W06
 BYTE   Cn6  v056
 BYTE   W60
 BYTE   W03
// 003   ----------------------------------------
 BYTE   W96
// 004   ----------------------------------------
 BYTE   W96
// 005   ----------------------------------------
 BYTE   W96
// 006   ----------------------------------------
Label_3_01027FEF:
 BYTE   W96
// 007   ----------------------------------------
 BYTE   W96
// 008   ----------------------------------------
 BYTE   W96
// 009   ----------------------------------------
 BYTE   W24
 BYTE   PAN   c_v+20
 BYTE   BEND   c_v+0
 BYTE   W72
// 010   ----------------------------------------
 BYTE   W19
 BYTE   W01
 BYTE   W01
 BYTE   W01
 BYTE   W01
 BYTE   W01
 BYTE   N11  Cn5  v120
 BYTE   W02
 BYTE   W03
 BYTE   W03
 BYTE   W03
 BYTE   N12  Fs5  v108
 BYTE   W03
 BYTE   W03
 BYTE   W03
 BYTE   W03
 BYTE   Gn5
 BYTE   W03
 BYTE   W03
 BYTE   W03
 BYTE   W03
 BYTE   N24  Dn6
 BYTE   W02
 BYTE   W02
 BYTE   W01
 BYTE   W01
 BYTE   W03
 BYTE   W03
 BYTE   W03
 BYTE   W03
 BYTE   W03
 BYTE   W01
 BYTE   W02
 BYTE   N12  Gn5
 BYTE   W01
 BYTE   W02
 BYTE   W01
 BYTE   W02
 BYTE   W01
 BYTE   W02
 BYTE   W01
 BYTE   W02
 BYTE   Fs5
 BYTE   W01
// 011   ----------------------------------------
 BYTE   W02
 BYTE   W01
 BYTE   W02
 BYTE   W01
 BYTE   W02
 BYTE   W01
 BYTE   W02
 BYTE   Gn5
 BYTE   W01
 BYTE   W03
 BYTE   W03
 BYTE   W03
 BYTE   W02
 BYTE   Dn6
 BYTE   W01
 BYTE   W03
 BYTE   W03
 BYTE   W03
 BYTE   W03
 BYTE   W03
 BYTE   W03
 BYTE   W03
 BYTE   W02
 BYTE   Gn6  v088
 BYTE   W13
 BYTE   N22  Fs6  v108
 BYTE   W01
 BYTE   W01
 BYTE   W01
 BYTE   W01
 BYTE   W02
 BYTE   W01
 BYTE   W02
 BYTE   W01
 BYTE   W02
 BYTE   W01
 BYTE   W02
 BYTE   W01
 BYTE   W02
 BYTE   W05
 BYTE   N12  Dn6
 BYTE   W01
 BYTE   W02
 BYTE   W01
 BYTE   W02
 BYTE   W01
 BYTE   W02
 BYTE   W01
 BYTE   W02
 BYTE   An5
 BYTE   W01
// 012   ----------------------------------------
 BYTE   W02
 BYTE   W01
 BYTE   W02
 BYTE   W01
 BYTE   W02
 BYTE   W01
 BYTE   W02
 BYTE   Gn5
 BYTE   W01
 BYTE   W02
 BYTE   W01
 BYTE   W02
 BYTE   W01
 BYTE   W02
 BYTE   W01
 BYTE   W02
 BYTE   W04
 BYTE   W01
 BYTE   W02
 BYTE   W01
 BYTE   W02
 BYTE   W01
 BYTE   W01
 BYTE   Fs5
 BYTE   W02
 BYTE   W02
 BYTE   W01
 BYTE   W02
 BYTE   W01
 BYTE   W02
 BYTE   W01
 BYTE   W01
 BYTE   Gn5
 BYTE   W02
 BYTE   W02
 BYTE   W01
 BYTE   W02
 BYTE   W01
 BYTE   W02
 BYTE   W01
 BYTE   W01
 BYTE   N24  Dn6
 BYTE   W01
 BYTE   W01
 BYTE   W01
 BYTE   W03
 BYTE   W03
 BYTE   W03
 BYTE   W03
 BYTE   W03
 BYTE   W01
 BYTE   W02
 BYTE   W01
 BYTE   W02
 BYTE   N12  Gn5
 BYTE   W01
 BYTE   W02
 BYTE   W01
 BYTE   W02
 BYTE   W01
 BYTE   W02
 BYTE   W01
 BYTE   W02
 BYTE   Fs5
 BYTE   W01
// 013   ----------------------------------------
 BYTE   W02
 BYTE   W01
 BYTE   W02
 BYTE   W01
 BYTE   W02
 BYTE   W01
 BYTE   W02
 BYTE   Gn5
 BYTE   W01
 BYTE   W03
 BYTE   W03
 BYTE   W03
 BYTE   W02
 BYTE   Dn6
 BYTE   W01
 BYTE   W03
 BYTE   W03
 BYTE   W03
 BYTE   W03
 BYTE   W03
 BYTE   W03
 BYTE   W03
 BYTE   W02
 BYTE   Cn6
 BYTE   W11
 BYTE   W01
 BYTE   N24  Bn5
 BYTE   W01
 BYTE   W01
 BYTE   W02
 BYTE   W01
 BYTE   W02
 BYTE   W01
 BYTE   W02
 BYTE   W01
 BYTE   W02
 BYTE   W01
 BYTE   W02
 BYTE   W05
 BYTE   W01
 BYTE   W02
 BYTE   N12  Dn5
 BYTE   W01
 BYTE   W02
 BYTE   W01
 BYTE   W02
 BYTE   W01
 BYTE   W02
 BYTE   W01
 BYTE   W02
 BYTE   An5
 BYTE   W01
// 014   ----------------------------------------
 BYTE   W02
 BYTE   W01
 BYTE   W02
 BYTE   W01
 BYTE   W02
 BYTE   W01
 BYTE   W02
 BYTE   Gn5
 BYTE   W01
 BYTE   W02
 BYTE   W01
 BYTE   W02
 BYTE   W01
 BYTE   W02
 BYTE   W01
 BYTE   W02
 BYTE   Cn5  v120
 BYTE   W02
 BYTE   W02
 BYTE   W03
 BYTE   W01
 BYTE   W03
 BYTE   W01
 BYTE   Fs5  v108
 BYTE   W01
 BYTE   W01
 BYTE   W02
 BYTE   W01
 BYTE   W02
 BYTE   W01
 BYTE   W02
 BYTE   W01
 BYTE   W01
 BYTE   Gn5
 BYTE   W01
 BYTE   W01
 BYTE   W02
 BYTE   W01
 BYTE   W02
 BYTE   W01
 BYTE   W02
 BYTE   W01
 BYTE   W01
 BYTE   N24  Dn6
 BYTE   W01
 BYTE   W01
 BYTE   W01
 BYTE   W03
 BYTE   W03
 BYTE   W03
 BYTE   W03
 BYTE   W03
 BYTE   W01
 BYTE   W02
 BYTE   W01
 BYTE   W02
 BYTE   N12  Gn5
 BYTE   W01
 BYTE   W02
 BYTE   W01
 BYTE   W02
 BYTE   W01
 BYTE   W02
 BYTE   W01
 BYTE   W02
 BYTE   Fs5
 BYTE   W01
// 015   ----------------------------------------
 BYTE   W02
 BYTE   W01
 BYTE   W02
 BYTE   W01
 BYTE   W02
 BYTE   W01
 BYTE   W02
 BYTE   Gn5
 BYTE   W01
 BYTE   W03
 BYTE   W03
 BYTE   W03
 BYTE   W02
 BYTE   Dn6
 BYTE   W01
 BYTE   W03
 BYTE   W03
 BYTE   W03
 BYTE   W03
 BYTE   W03
 BYTE   W03
 BYTE   W03
 BYTE   W02
 BYTE   Gn6
 BYTE   W11
 BYTE   W01
 BYTE   N23  Fs6
 BYTE   W01
 BYTE   W01
 BYTE   W02
 BYTE   W01
 BYTE   W02
 BYTE   W01
 BYTE   W02
 BYTE   W01
 BYTE   W02
 BYTE   W01
 BYTE   W02
 BYTE   W05
 BYTE   W01
 BYTE   W02
 BYTE   N12  Dn6
 BYTE   W01
 BYTE   W02
 BYTE   W01
 BYTE   W02
 BYTE   W01
 BYTE   W02
 BYTE   W01
 BYTE   W02
 BYTE   An5
 BYTE   W01
// 016   ----------------------------------------
 BYTE   W02
 BYTE   W01
 BYTE   W02
 BYTE   W01
 BYTE   W02
 BYTE   W01
 BYTE   W02
 BYTE   Gn5
 BYTE   W01
 BYTE   W02
 BYTE   W01
 BYTE   W02
 BYTE   W01
 BYTE   W02
 BYTE   W01
 BYTE   W03
 BYTE   W03
 BYTE   W01
 BYTE   W02
 BYTE   W03
 BYTE   W01
 BYTE   W01
 BYTE   Fs5
 BYTE   W01
 BYTE   W01
 BYTE   W02
 BYTE   W01
 BYTE   W02
 BYTE   W01
 BYTE   W02
 BYTE   W01
 BYTE   W01
 BYTE   Gn5
 BYTE   W01
 BYTE   W01
 BYTE   W02
 BYTE   W01
 BYTE   W02
 BYTE   W01
 BYTE   W02
 BYTE   W01
 BYTE   W01
 BYTE   N24  Dn6
 BYTE   W01
 BYTE   W01
 BYTE   W01
 BYTE   W03
 BYTE   W03
 BYTE   W03
 BYTE   W03
 BYTE   W03
 BYTE   W01
 BYTE   W03
 BYTE   W02
 BYTE   N12  Gn5
 BYTE   W01
 BYTE   W03
 BYTE   W03
 BYTE   W03
 BYTE   W02
 BYTE   Fs5
 BYTE   W01
// 017   ----------------------------------------
 BYTE   W03
 BYTE   W03
 BYTE   W03
 BYTE   W02
 BYTE   Gn5
 BYTE   W01
 BYTE   W03
 BYTE   W03
 BYTE   W03
 BYTE   W02
 BYTE   W72
 BYTE   W01
// 018   ----------------------------------------
 BYTE   W96
// 019   ----------------------------------------
 BYTE   W96
// 020   ----------------------------------------
 BYTE   W96
// 021   ----------------------------------------
 BYTE   W96
// 022   ----------------------------------------
 BYTE   W96
// 023   ----------------------------------------
 BYTE   W96
// 024   ----------------------------------------
 BYTE   W96
// 025   ----------------------------------------
 BYTE   W96
// 026   ----------------------------------------
 BYTE   W23
 BYTE   GoTo
  POIN2 Label_3_01027FEF
 BYTE   FINE

//**************** Track 5 (Midi-Chn.4) ****************//

FE12TearfulShadowsRSflame_005:
// 000   ----------------------------------------
 BYTE   KEYSH   FE12TearfulShadowsRSflame_key+0
 BYTE   VOICE   30
 BYTE   VOL   24*FE12TearfulShadowsRSflame_mvl/mxv
 BYTE   PAN   c_v+0
 BYTE   BEND   c_v+0
 BYTE   W23
 BYTE   N72  Cn3  v116
 BYTE   N72  Cn5  v108
 BYTE   W72
 BYTE   N12  Cs5
 BYTE   W01
// 001   ----------------------------------------
 BYTE   Cs3  v116
 BYTE   W11
 BYTE   N24  Cs5  v108
 BYTE   W01
 BYTE   Cs3  v116
 BYTE   W23
 BYTE   N12  Cs5  v108
 BYTE   W01
 BYTE   Cs3  v116
 BYTE   W11
 BYTE   N24  Cs5  v108
 BYTE   W01
 BYTE   Cs3  v116
 BYTE   W23
 BYTE   Cs5  v108
 BYTE   W01
 BYTE   Cs3  v116
 BYTE   W23
 BYTE   N22  Cs5  v108
 BYTE   W01
// 002   ----------------------------------------
 BYTE   Cs3  v116
 BYTE   W21
 BYTE   N72  Cn5  v108
 BYTE   W01
 BYTE   Cn3  v116
 BYTE   W72
 BYTE   W01
 BYTE   N12  Cs5  v108
 BYTE   W01
// 003   ----------------------------------------
 BYTE   Cs3  v116
 BYTE   W11
 BYTE   N24  Cs5  v108
 BYTE   W01
 BYTE   Cs3  v116
 BYTE   W23
 BYTE   N12  Cs5  v108
 BYTE   W01
 BYTE   Cs3  v116
 BYTE   W11
 BYTE   N24  Cs5  v108
 BYTE   W01
 BYTE   Cs3  v116
 BYTE   W23
 BYTE   Cs5  v108
 BYTE   W01
 BYTE   Cs3  v116
 BYTE   W23
 BYTE   Cs5  v108
 BYTE   W01
// 004   ----------------------------------------
 BYTE   Cs3  v116
 BYTE   W23
 BYTE   N96  Dn5  v100
 BYTE   W01
 BYTE   Dn3  v112
 BYTE   W72
// 005   ----------------------------------------
 BYTE   W68
 BYTE   W03
 BYTE   N48  Ds5  v108
 BYTE   W01
 BYTE   Ds3  v116
 BYTE   W24
// 006   ----------------------------------------
Label_4_0102822E:
 BYTE   W96
// 007   ----------------------------------------
 BYTE   W96
// 008   ----------------------------------------
 BYTE   W96
// 009   ----------------------------------------
 BYTE   W96
// 010   ----------------------------------------
Label_4_01028232:
 BYTE   W23
 BYTE   N36  Fn5  v100
 BYTE   W01
 BYTE   Fn3  v112
 BYTE   W32
 BYTE   W03
 BYTE   N24  Fs5  v100
 BYTE   W01
 BYTE   Fs3  v112
 BYTE   W23
 BYTE   N36  Fn5  v100
 BYTE   W01
 BYTE   Fn3  v112
 BYTE   W12
 BYTE   PEND 
// 011   ----------------------------------------
Label_4_0102824A:
 BYTE   W23
 BYTE   N24  Gn5  v100
 BYTE   W01
 BYTE   Gn3  v112
 BYTE   W23
 BYTE   Gn5  v100
 BYTE   W01
 BYTE   Gn3  v112
 BYTE   W23
 BYTE   N48  Gs5  v100
 BYTE   W01
 BYTE   Gs3  v112
 BYTE   W24
 BYTE   PEND 
// 012   ----------------------------------------
 BYTE   W23
 BYTE   N36  An5  v100
 BYTE   W01
 BYTE   An3  v112
 BYTE   W32
 BYTE   W03
 BYTE   N24  As5  v100
 BYTE   W01
 BYTE   As3  v112
 BYTE   W23
 BYTE   N36  An5  v100
 BYTE   W01
 BYTE   An3  v112
 BYTE   W12
// 013   ----------------------------------------
 BYTE   W23
 BYTE   N24  As5  v100
 BYTE   W01
 BYTE   As3  v112
 BYTE   W23
 BYTE   As5  v100
 BYTE   W01
 BYTE   As3  v112
 BYTE   W23
 BYTE   N48  Bn5  v100
 BYTE   W01
 BYTE   Bn3  v112
 BYTE   W24
// 014   ----------------------------------------
 BYTE   PATT
  POIN2 Label_4_01028232
// 015   ----------------------------------------
 BYTE   PATT
  POIN2 Label_4_0102824A
// 016   ----------------------------------------
 BYTE   W23
 BYTE   N36  An5  v100
 BYTE   W01
 BYTE   An3  v112
 BYTE   W32
 BYTE   W03
 BYTE   N24  As5  v100
 BYTE   W01
 BYTE   As3  v112
 BYTE   W23
 BYTE   N32  An5  v100
 BYTE   W01
 BYTE   An3  v112
 BYTE   W12
// 017   ----------------------------------------
 BYTE   W21
 BYTE   N72  Ds6  v108
 BYTE   W01
 BYTE   Cs4  v120
 BYTE   W48
 BYTE   W02
 BYTE   N48  Cs6  v127
 BYTE   W24
// 018   ----------------------------------------
Label_4_010282BA:
 BYTE   W23
 BYTE   N72  Cn6  v100
 BYTE   W01
 BYTE   Cn4  v112
 BYTE   W68
 BYTE   W03
 BYTE   Cn6  v100
 BYTE   W01
 BYTE   PEND 
// 019   ----------------------------------------
Label_4_010282C7:
 BYTE   N72  Cn4  v112
 BYTE   W68
 BYTE   W03
 BYTE   Cn6  v100
 BYTE   W01
 BYTE   Cn4  v112
 BYTE   W24
 BYTE   PEND 
// 020   ----------------------------------------
Label_4_010282D3:
 BYTE   W44
 BYTE   W03
 BYTE   N72  Cn6  v100
 BYTE   W01
 BYTE   Cn4  v112
 BYTE   W48
 BYTE   PEND 
// 021   ----------------------------------------
 BYTE   W23
 BYTE   N48  Cn6  v100
 BYTE   W01
 BYTE   Cn4  v112
 BYTE   W48
 BYTE   Dn6  v127
 BYTE   W24
// 022   ----------------------------------------
 BYTE   PATT
  POIN2 Label_4_010282BA
// 023   ----------------------------------------
 BYTE   PATT
  POIN2 Label_4_010282C7
// 024   ----------------------------------------
 BYTE   PATT
  POIN2 Label_4_010282D3
// 025   ----------------------------------------
 BYTE   W23
 BYTE   N48  Cn6  v100
 BYTE   W01
 BYTE   Cn4  v112
 BYTE   W44
 BYTE   W03
 BYTE   Ds5  v108
 BYTE   W01
 BYTE   N44  Ds3  v116
 BYTE   W24
// 026   ----------------------------------------
 BYTE   W23
 BYTE   GoTo
  POIN2 Label_4_0102822E
 BYTE   FINE

//**************** Track 6 (Midi-Chn.5) ****************//

FE12TearfulShadowsRSflame_006:
// 000   ----------------------------------------
 BYTE   KEYSH   FE12TearfulShadowsRSflame_key+0
 BYTE   VOICE   40
 BYTE   VOL   20*FE12TearfulShadowsRSflame_mvl/mxv
 BYTE   PAN   c_v-64
 BYTE   BEND   c_v+0
 BYTE   W96
// 001   ----------------------------------------
 BYTE   W96
// 002   ----------------------------------------
 BYTE   W96
// 003   ----------------------------------------
 BYTE   W96
// 004   ----------------------------------------
 BYTE   W96
// 005   ----------------------------------------
 BYTE   W96
// 006   ----------------------------------------
Label_5_0102853C:
 BYTE   W23
 BYTE   PAN   c_v-64
 BYTE   W01
 BYTE   VOL   56*FE12TearfulShadowsRSflame_mvl/mxv
 BYTE   PAN   c_v+0
 BYTE   Ds3
 BYTE   N21  Bn3  v100
 BYTE   W01
 BYTE   PAN   c_v-2
 BYTE   W01
 BYTE   Cs3
 BYTE   W01
 BYTE   Bn2
 BYTE   W01
 BYTE   As2
 BYTE   W01
 BYTE   An2
 BYTE   W01
 BYTE   Gn2
 BYTE   W01
 BYTE   Fs2
 BYTE   W01
 BYTE   Fn2
 BYTE   W01
 BYTE   Ds2
 BYTE   W01
 BYTE   Dn2
 BYTE   W01
 BYTE   Cs2
 BYTE   W01
 BYTE   Bn1
 BYTE   W01
 BYTE   As1
 BYTE   W01
 BYTE   An1
 BYTE   W01
 BYTE   Gn1
 BYTE   W01
 BYTE   Fs1
 BYTE   W01
 BYTE   Fn1
 BYTE   W01
 BYTE   Ds1
 BYTE   W01
 BYTE   Dn1
 BYTE   W01
 BYTE   Cs1
 BYTE   W01
 BYTE   Bn0
 BYTE   W01
 BYTE   As0
 BYTE   W01
 BYTE   An0
 BYTE   W01
 BYTE   Gn0
 BYTE   N03
 BYTE   W01
 BYTE   PAN   c_v-34
 BYTE   W01
 BYTE   Fn0
 BYTE   W01
 BYTE   Ds0
 BYTE   W01
 BYTE   Dn0
 BYTE   W01
 BYTE   Cs0
 BYTE   W01
 BYTE   BnM1
 BYTE   N03  Bn3  v088
 BYTE   W01
 BYTE   PAN   c_v-42
 BYTE   W01
 BYTE   AnM1
 BYTE   W01
 BYTE   GnM1
 BYTE   W01
 BYTE   FsM1
 BYTE   W01
 BYTE   FnM1
 BYTE   W01
 BYTE   DsM1
 BYTE   N03
 BYTE   W01
 BYTE   PAN   c_v-50
 BYTE   W01
 BYTE   CsM1
 BYTE   W01
 BYTE   BnM2
 BYTE   W01
 BYTE   AsM2
 BYTE   W01
 BYTE   AnM2
 BYTE   W01
 BYTE   GnM2
 BYTE   N03
 BYTE   W01
 BYTE   PAN   c_v-58
 BYTE   W01
 BYTE   FnM2
 BYTE   W01
 BYTE   DsM2
 BYTE   W01
 BYTE   DnM2
 BYTE   W01
 BYTE   CsM2
 BYTE   W01
 BYTE   CnM2
 BYTE   N03  Cn4  v100
 BYTE   W01
 BYTE   PAN   c_v-63
 BYTE   W01
 BYTE   DnM2
 BYTE   W01
 BYTE   EnM2
 BYTE   W01
 BYTE   FnM2
 BYTE   W01
 BYTE   FsM2
 BYTE   W01
 BYTE   GsM2
 BYTE   N03  Cn4  v088
 BYTE   W01
 BYTE   PAN   c_v-55
 BYTE   W01
 BYTE   AsM2
 BYTE   W01
 BYTE   CnM1
 BYTE   W01
 BYTE   CsM1
 BYTE   W01
 BYTE   DnM1
 BYTE   W01
 BYTE   EnM1
 BYTE   N03
 BYTE   W01
 BYTE   PAN   c_v-47
 BYTE   W01
 BYTE   FsM1
 BYTE   W01
 BYTE   GsM1
 BYTE   W01
 BYTE   AnM1
 BYTE   W01
 BYTE   AsM1
 BYTE   W01
 BYTE   Cn0
 BYTE   N03
 BYTE   W01
 BYTE   PAN   c_v-39
 BYTE   W01
 BYTE   Dn0
 BYTE   W01
 BYTE   En0
 BYTE   W01
 BYTE   Fn0
 BYTE   W01
 BYTE   Fs0
 BYTE   W01
// 007   ----------------------------------------
 BYTE   Gs0
 BYTE   N03  An3  v100
 BYTE   W01
 BYTE   PAN   c_v-31
 BYTE   W01
 BYTE   As0
 BYTE   W01
 BYTE   Cn1
 BYTE   W01
 BYTE   Cs1
 BYTE   W01
 BYTE   Dn1
 BYTE   W01
 BYTE   Ds1
 BYTE   N03  An3  v088
 BYTE   W01
 BYTE   PAN   c_v-23
 BYTE   W01
 BYTE   Fs1
 BYTE   W01
 BYTE   Gn1
 BYTE   W01
 BYTE   An1
 BYTE   W01
 BYTE   As1
 BYTE   W01
 BYTE   Bn1
 BYTE   N03
 BYTE   W01
 BYTE   PAN   c_v-15
 BYTE   W01
 BYTE   Dn2
 BYTE   W01
 BYTE   Ds2
 BYTE   W01
 BYTE   Fn2
 BYTE   W01
 BYTE   Fs2
 BYTE   W01
 BYTE   Gn2
 BYTE   N03
 BYTE   W01
 BYTE   PAN   c_v-7
 BYTE   W01
 BYTE   As2
 BYTE   W01
 BYTE   Bn2
 BYTE   W01
 BYTE   Cs3
 BYTE   W01
 BYTE   Dn3
 BYTE   W01
 BYTE   Ds3
 BYTE   N03  Bn3  v100
 BYTE   W01
 BYTE   PAN   c_v+1
 BYTE   W01
 BYTE   Fs3
 BYTE   W01
 BYTE   Gn3
 BYTE   W01
 BYTE   An3
 BYTE   W01
 BYTE   As3
 BYTE   W01
 BYTE   Bn3
 BYTE   N03  Bn3  v088
 BYTE   W01
 BYTE   PAN   c_v+9
 BYTE   W01
 BYTE   Dn4
 BYTE   W01
 BYTE   Ds4
 BYTE   W01
 BYTE   Fn4
 BYTE   W01
 BYTE   Fs4
 BYTE   W01
 BYTE   Gn4
 BYTE   N03
 BYTE   W01
 BYTE   PAN   c_v+16
 BYTE   W01
 BYTE   As4
 BYTE   W01
 BYTE   Bn4
 BYTE   W01
 BYTE   Cn5
 BYTE   W01
 BYTE   Dn5
 BYTE   W01
 BYTE   Ds5
 BYTE   N03
 BYTE   W01
 BYTE   PAN   c_v+24
 BYTE   W01
 BYTE   Fs5
 BYTE   W01
 BYTE   Gn5
 BYTE   W01
 BYTE   Gs5
 BYTE   W01
 BYTE   As5
 BYTE   W01
 BYTE   Bn5
 BYTE   N03  Cn4  v100
 BYTE   W01
 BYTE   PAN   c_v+32
 BYTE   W01
 BYTE   Dn6
 BYTE   W01
 BYTE   Ds6
 BYTE   W01
 BYTE   En6
 BYTE   W01
 BYTE   Fs6
 BYTE   W01
 BYTE   Gn6
 BYTE   N03  Cn4  v088
 BYTE   W01
 BYTE   PAN   c_v+40
 BYTE   W01
 BYTE   As6
 BYTE   W01
 BYTE   Bn6
 BYTE   W01
 BYTE   Cn7
 BYTE   W01
 BYTE   Dn7
 BYTE   W01
 BYTE   Ds7
 BYTE   N03
 BYTE   W01
 BYTE   PAN   c_v+48
 BYTE   W01
 BYTE   Fs7
 BYTE   W01
 BYTE   Gn7
 BYTE   W01
 BYTE   Gs7
 BYTE   W01
 BYTE   As7
 BYTE   N03
 BYTE   W01
 BYTE   PAN   c_v+55
 BYTE   W01
 BYTE   Cn8
 BYTE   W01
 BYTE   Cs8
 BYTE   W01
 BYTE   Ds8
 BYTE   W01
 BYTE   En8
 BYTE   W01
 BYTE   Fn8
 BYTE   W01
 BYTE   Gn8
 BYTE   N03  An3  v100
 BYTE   W01
 BYTE   PAN   c_v+62
 BYTE   W01
 BYTE   Fn8
 BYTE   W01
 BYTE   Ds8
 BYTE   W01
 BYTE   Dn8
 BYTE   W01
 BYTE   Cs8
 BYTE   W01
 BYTE   Bn7
 BYTE   N03  An3  v088
 BYTE   W01
 BYTE   PAN   c_v+54
 BYTE   W01
 BYTE   An7
 BYTE   W01
 BYTE   Gn7
 BYTE   W01
 BYTE   Fs7
 BYTE   W01
 BYTE   Fn7
 BYTE   W01
 BYTE   Ds7
 BYTE   N03
 BYTE   W01
 BYTE   PAN   c_v+46
 BYTE   W01
 BYTE   Cs7
 BYTE   W01
 BYTE   Cn7
 BYTE   W01
 BYTE   As6
 BYTE   W01
 BYTE   An6
 BYTE   W01
 BYTE   Gs6
 BYTE   N03
 BYTE   W01
 BYTE   PAN   c_v+38
 BYTE   W01
 BYTE   Fn6
 BYTE   W01
 BYTE   En6
 BYTE   W01
 BYTE   Dn6
 BYTE   W01
 BYTE   Cs6
 BYTE   W01
// 008   ----------------------------------------
 BYTE   Cn6
 BYTE   N03  Bn3  v100
 BYTE   W01
 BYTE   PAN   c_v+30
 BYTE   W01
 BYTE   An5
 BYTE   W01
 BYTE   Gs5
 BYTE   W01
 BYTE   Fs5
 BYTE   W01
 BYTE   Fn5
 BYTE   W01
 BYTE   En5
 BYTE   N03  Bn3  v088
 BYTE   W01
 BYTE   PAN   c_v+23
 BYTE   W01
 BYTE   Cs5
 BYTE   W01
 BYTE   Cn5
 BYTE   W01
 BYTE   Bn4
 BYTE   W01
 BYTE   An4
 BYTE   W01
 BYTE   Gs4
 BYTE   N03
 BYTE   W01
 BYTE   PAN   c_v+15
 BYTE   W01
 BYTE   Fn4
 BYTE   W01
 BYTE   En4
 BYTE   W01
 BYTE   Ds4
 BYTE   W01
 BYTE   Cs4
 BYTE   W01
 BYTE   Cn4
 BYTE   N02
 BYTE   W01
 BYTE   PAN   c_v+7
 BYTE   W01
 BYTE   An3
 BYTE   W01
 BYTE   Gs3
 BYTE   W01
 BYTE   Gn3
 BYTE   W01
 BYTE   Fs3
 BYTE   W01
 BYTE   Dn3
 BYTE   N03  Bn5  v072
 BYTE   W01
 BYTE   PAN   c_v-5
 BYTE   W01
 BYTE   An2
 BYTE   W01
 BYTE   Fs2
 BYTE   W01
 BYTE   Ds2
 BYTE   W01
 BYTE   Cs2
 BYTE   W01
 BYTE   As1
 BYTE   N03  An5
 BYTE   W01
 BYTE   PAN   c_v-21
 BYTE   W01
 BYTE   Fn1
 BYTE   W01
 BYTE   Dn1
 BYTE   W01
 BYTE   Bn0
 BYTE   W01
 BYTE   An0
 BYTE   W01
 BYTE   Fs0
 BYTE   N03  Gn5
 BYTE   W01
 BYTE   PAN   c_v-37
 BYTE   W01
 BYTE   Cs0
 BYTE   W01
 BYTE   AsM1
 BYTE   W01
 BYTE   GnM1
 BYTE   W01
 BYTE   FnM1
 BYTE   W01
 BYTE   DnM1
 BYTE   N03  Fs5
 BYTE   W01
 BYTE   PAN   c_v-53
 BYTE   W01
 BYTE   AnM2
 BYTE   W01
 BYTE   FsM2
 BYTE   W01
 BYTE   DsM2
 BYTE   W01
 BYTE   CsM2
 BYTE   W01
 BYTE   CsM2
 BYTE   N03  An5
 BYTE   W01
 BYTE   PAN   c_v-60
 BYTE   W01
 BYTE   FsM2
 BYTE   W01
 BYTE   AnM2
 BYTE   W01
 BYTE   CnM1
 BYTE   W01
 BYTE   DnM1
 BYTE   W01
 BYTE   FnM1
 BYTE   N03  Gn5  v076
 BYTE   W01
 BYTE   PAN   c_v-44
 BYTE   W01
 BYTE   AsM1
 BYTE   W01
 BYTE   Cs0
 BYTE   W01
 BYTE   En0
 BYTE   W01
 BYTE   Fs0
 BYTE   W01
 BYTE   An0
 BYTE   N03  Fs5
 BYTE   W01
 BYTE   PAN   c_v-29
 BYTE   W01
 BYTE   Dn1
 BYTE   W01
 BYTE   Fn1
 BYTE   W01
 BYTE   Gn1
 BYTE   W01
 BYTE   As1
 BYTE   W01
 BYTE   Cs2
 BYTE   N03  En5
 BYTE   W01
 BYTE   PAN   c_v-13
 BYTE   W01
 BYTE   Fs2
 BYTE   W01
 BYTE   An2
 BYTE   W01
 BYTE   Bn2
 BYTE   W01
 BYTE   Dn3
 BYTE   W01
 BYTE   Fn3
 BYTE   N03  Gn5
 BYTE   W01
 BYTE   PAN   c_v+3
 BYTE   W01
 BYTE   As3
 BYTE   W01
 BYTE   Cs4
 BYTE   W01
 BYTE   Ds4
 BYTE   W01
 BYTE   Fs4
 BYTE   W01
 BYTE   Gs4
 BYTE   N03  Fs5
 BYTE   W01
 BYTE   PAN   c_v+19
 BYTE   W01
 BYTE   Dn5
 BYTE   W01
 BYTE   En5
 BYTE   W01
 BYTE   Gn5
 BYTE   W01
 BYTE   As5
 BYTE   W01
 BYTE   Cn6
 BYTE   N03  En5  v080
 BYTE   W01
 BYTE   PAN   c_v+35
 BYTE   W01
 BYTE   Fs6
 BYTE   W01
 BYTE   Gs6
 BYTE   W01
 BYTE   Bn6
 BYTE   W01
 BYTE   Cs7
 BYTE   W01
 BYTE   En7
 BYTE   N03  Dn5
 BYTE   W01
 BYTE   PAN   c_v+51
 BYTE   W01
 BYTE   An7
 BYTE   W01
 BYTE   Cn8
 BYTE   W01
 BYTE   Ds8
 BYTE   W01
 BYTE   Fn8
 BYTE   W01
// 009   ----------------------------------------
 BYTE   Fs8
 BYTE   N03  Fs5
 BYTE   W01
 BYTE   PAN   c_v+59
 BYTE   W01
 BYTE   Cs8
 BYTE   W01
 BYTE   As7
 BYTE   W01
 BYTE   Gn7
 BYTE   W01
 BYTE   Fn7
 BYTE   W01
 BYTE   Dn7
 BYTE   N03  En5
 BYTE   W01
 BYTE   PAN   c_v+43
 BYTE   W01
 BYTE   An6
 BYTE   W01
 BYTE   Fs6
 BYTE   W01
 BYTE   Ds6
 BYTE   W01
 BYTE   Cs6
 BYTE   W01
 BYTE   As5
 BYTE   N03  Dn5
 BYTE   W01
 BYTE   PAN   c_v+28
 BYTE   W01
 BYTE   Fn5
 BYTE   W01
 BYTE   Dn5
 BYTE   W01
 BYTE   Cn5
 BYTE   W01
 BYTE   An4
 BYTE   W01
 BYTE   Fs4
 BYTE   N03  Cn5  v084
 BYTE   W01
 BYTE   PAN   c_v+12
 BYTE   W01
 BYTE   Cs4
 BYTE   W01
 BYTE   As3
 BYTE   W01
 BYTE   Gs3
 BYTE   W01
 BYTE   Fn3
 BYTE   W01
 BYTE   Dn3
 BYTE   N03  En5
 BYTE   W01
 BYTE   PAN   c_v-4
 BYTE   W01
 BYTE   An2
 BYTE   W01
 BYTE   Fs2
 BYTE   W01
 BYTE   En2
 BYTE   W01
 BYTE   Cs2
 BYTE   W01
 BYTE   Bn1
 BYTE   N03  Dn5
 BYTE   W01
 BYTE   PAN   c_v-20
 BYTE   W01
 BYTE   Fn1
 BYTE   W01
 BYTE   Ds1
 BYTE   W01
 BYTE   Cn1
 BYTE   W01
 BYTE   An0
 BYTE   W01
 BYTE   Gn0
 BYTE   N03  Cn5  v088
 BYTE   W01
 BYTE   PAN   c_v-36
 BYTE   W01
 BYTE   Cs0
 BYTE   W01
 BYTE   BnM1
 BYTE   W01
 BYTE   GsM1
 BYTE   W01
 BYTE   FsM1
 BYTE   W01
 BYTE   DsM1
 BYTE   N03  Bn4
 BYTE   W01
 BYTE   PAN   c_v-52
 BYTE   W01
 BYTE   AsM2
 BYTE   W01
 BYTE   GnM2
 BYTE   W01
 BYTE   EnM2
 BYTE   W01
 BYTE   DnM2
 BYTE   W01
 BYTE   CnM2
 BYTE   N03  Dn5  v092
 BYTE   W02
 BYTE   PAN   c_v-63
 BYTE   W01
 BYTE   DnM2
 BYTE   W01
 BYTE   DsM2
 BYTE   W01
 BYTE   EnM2
 BYTE   W01
 BYTE   FnM2
 BYTE   N03  Cn5
 BYTE   W01
 BYTE   PAN   c_v-58
 BYTE   W01
 BYTE   GnM2
 BYTE   W01
 BYTE   GsM2
 BYTE   W01
 BYTE   AnM2
 BYTE   W01
 BYTE   AsM2
 BYTE   W01
 BYTE   BnM2
 BYTE   N03  Bn4  v096
 BYTE   W01
 BYTE   PAN   c_v-52
 BYTE   W01
 BYTE   CsM1
 BYTE   W01
 BYTE   DnM1
 BYTE   W01
 BYTE   DsM1
 BYTE   W01
 BYTE   EnM1
 BYTE   W01
 BYTE   FnM1
 BYTE   N03  An4
 BYTE   W01
 BYTE   PAN   c_v-46
 BYTE   W01
 BYTE   GnM1
 BYTE   W01
 BYTE   GsM1
 BYTE   W01
 BYTE   AnM1
 BYTE   W01
 BYTE   AsM1
 BYTE   W01
 BYTE   BnM1
 BYTE   N03  Cn5  v100
 BYTE   W01
 BYTE   PAN   c_v-40
 BYTE   W01
 BYTE   Cs0
 BYTE   W01
 BYTE   Dn0
 BYTE   W01
 BYTE   Ds0
 BYTE   W01
 BYTE   En0
 BYTE   W01
 BYTE   Fn0
 BYTE   N03  Bn4
 BYTE   W01
 BYTE   PAN   c_v-34
 BYTE   W01
 BYTE   Gn0
 BYTE   W01
 BYTE   Gs0
 BYTE   W01
 BYTE   An0
 BYTE   W02
 BYTE   As0
 BYTE   N03  An4  v104
 BYTE   W01
 BYTE   PAN   c_v-29
 BYTE   W01
 BYTE   Cn1
 BYTE   W01
 BYTE   Cs1
 BYTE   W01
 BYTE   Dn1
 BYTE   W01
 BYTE   Ds1
 BYTE   W01
 BYTE   En1
 BYTE   N03  Gn4
 BYTE   W01
 BYTE   PAN   c_v-23
 BYTE   W01
 BYTE   Fs1
 BYTE   W01
 BYTE   Gn1
 BYTE   W01
 BYTE   Gs1
 BYTE   W01
 BYTE   An1
 BYTE   W01
// 010   ----------------------------------------
 BYTE   As1
 BYTE   N03  Bn4
 BYTE   W01
 BYTE   PAN   c_v-17
 BYTE   W01
 BYTE   Cn2
 BYTE   W01
 BYTE   Cs2
 BYTE   W01
 BYTE   Dn2
 BYTE   W01
 BYTE   Ds2
 BYTE   W01
 BYTE   En2
 BYTE   N03  An4  v108
 BYTE   W01
 BYTE   PAN   c_v-11
 BYTE   W01
 BYTE   Fs2
 BYTE   W01
 BYTE   Gs2
 BYTE   W03
 BYTE   An2
 BYTE   N03  Gn4
 BYTE   W02
 BYTE   PAN   c_v-6
 BYTE   W03
 BYTE   Bn2
 BYTE   W01
 BYTE   N03  Fs4  v112
 BYTE   W01
 BYTE   PAN   c_v-4
 BYTE   W03
 BYTE   Cs3
 BYTE   W02
 BYTE   Dn3
 BYTE   N03  En4
 BYTE   W03
 BYTE   PAN   c_v-1
 BYTE   W02
 BYTE   En3
 BYTE   VOL   20*FE12TearfulShadowsRSflame_mvl/mxv
 BYTE   PAN   c_v-64
 BYTE   W02
 BYTE   W01
 BYTE   W01
 BYTE   W01
 BYTE   W01
 BYTE   N12  Cn5  v108
 BYTE   W03
 BYTE   W03
 BYTE   W03
 BYTE   W03
 BYTE   Fs5  v092
 BYTE   W03
 BYTE   W03
 BYTE   W03
 BYTE   W03
 BYTE   Gn5
 BYTE   W03
 BYTE   W03
 BYTE   W03
 BYTE   W03
 BYTE   N24  Dn6
 BYTE   W02
 BYTE   W02
 BYTE   W01
 BYTE   W01
 BYTE   W03
 BYTE   W03
 BYTE   W03
 BYTE   W03
 BYTE   W03
 BYTE   W01
 BYTE   W02
 BYTE   N12  Gn5
 BYTE   W01
// 011   ----------------------------------------
 BYTE   W02
 BYTE   W01
 BYTE   W02
 BYTE   W01
 BYTE   W02
 BYTE   W01
 BYTE   W02
 BYTE   Fs5
 BYTE   W01
 BYTE   W02
 BYTE   W01
 BYTE   W02
 BYTE   W01
 BYTE   W02
 BYTE   W01
 BYTE   W02
 BYTE   Gn5
 BYTE   W01
 BYTE   W03
 BYTE   W03
 BYTE   W03
 BYTE   W02
 BYTE   Dn6
 BYTE   W01
 BYTE   W03
 BYTE   W03
 BYTE   W03
 BYTE   W02
 BYTE   Gn5
 BYTE   W01
 BYTE   W03
 BYTE   W03
 BYTE   W03
 BYTE   W02
 BYTE   Gn6  v076
 BYTE   W13
 BYTE   N22  Fs6  v092
 BYTE   W01
 BYTE   W01
 BYTE   W01
 BYTE   W01
 BYTE   W02
 BYTE   W01
 BYTE   W02
 BYTE   W01
 BYTE   W02
 BYTE   W01
 BYTE   W02
 BYTE   W01
 BYTE   W02
 BYTE   W05
 BYTE   N12  Dn6
 BYTE   W01
// 012   ----------------------------------------
 BYTE   W02
 BYTE   W01
 BYTE   W02
 BYTE   W01
 BYTE   W02
 BYTE   W01
 BYTE   W02
 BYTE   An5
 BYTE   W01
 BYTE   W02
 BYTE   W01
 BYTE   W02
 BYTE   W01
 BYTE   W02
 BYTE   W01
 BYTE   W02
 BYTE   Gn5
 BYTE   W01
 BYTE   W02
 BYTE   W01
 BYTE   W02
 BYTE   W01
 BYTE   W02
 BYTE   W01
 BYTE   W02
 BYTE   En5  v108
 BYTE   W04
 BYTE   W01
 BYTE   W02
 BYTE   W01
 BYTE   W02
 BYTE   W01
 BYTE   W01
 BYTE   Fs5  v092
 BYTE   W02
 BYTE   W02
 BYTE   W01
 BYTE   W02
 BYTE   W01
 BYTE   W02
 BYTE   W01
 BYTE   W01
 BYTE   Gn5
 BYTE   W02
 BYTE   W02
 BYTE   W01
 BYTE   W02
 BYTE   W01
 BYTE   W02
 BYTE   W01
 BYTE   W01
 BYTE   N24  Dn6
 BYTE   W01
 BYTE   W01
 BYTE   W01
 BYTE   W03
 BYTE   W03
 BYTE   W03
 BYTE   W03
 BYTE   W03
 BYTE   W01
 BYTE   W02
 BYTE   W01
 BYTE   W02
 BYTE   N12  Gn5
 BYTE   W01
// 013   ----------------------------------------
 BYTE   W02
 BYTE   W01
 BYTE   W02
 BYTE   W01
 BYTE   W02
 BYTE   W01
 BYTE   W02
 BYTE   Fs5
 BYTE   W01
 BYTE   W02
 BYTE   W01
 BYTE   W02
 BYTE   W01
 BYTE   W02
 BYTE   W01
 BYTE   W02
 BYTE   Gn5
 BYTE   W01
 BYTE   W03
 BYTE   W03
 BYTE   W03
 BYTE   W02
 BYTE   Dn6
 BYTE   W01
 BYTE   W03
 BYTE   W03
 BYTE   W03
 BYTE   W02
 BYTE   En5
 BYTE   W01
 BYTE   W03
 BYTE   W03
 BYTE   W03
 BYTE   W02
 BYTE   Cn6
 BYTE   W11
 BYTE   W01
 BYTE   N24  Bn5
 BYTE   W01
 BYTE   W01
 BYTE   W02
 BYTE   W01
 BYTE   W02
 BYTE   W01
 BYTE   W02
 BYTE   W01
 BYTE   W02
 BYTE   W01
 BYTE   W02
 BYTE   W05
 BYTE   W01
 BYTE   W02
 BYTE   N12  Dn5
 BYTE   W01
// 014   ----------------------------------------
 BYTE   W02
 BYTE   W01
 BYTE   W02
 BYTE   W01
 BYTE   W02
 BYTE   W01
 BYTE   W02
 BYTE   An5
 BYTE   W01
 BYTE   W02
 BYTE   W01
 BYTE   W02
 BYTE   W01
 BYTE   W02
 BYTE   W01
 BYTE   W02
 BYTE   Gn5
 BYTE   W01
 BYTE   W02
 BYTE   W01
 BYTE   W02
 BYTE   W01
 BYTE   W02
 BYTE   W01
 BYTE   W02
 BYTE   Cn5  v108
 BYTE   W02
 BYTE   W02
 BYTE   W03
 BYTE   W01
 BYTE   W03
 BYTE   W01
 BYTE   Fs5  v092
 BYTE   W01
 BYTE   W01
 BYTE   W02
 BYTE   W01
 BYTE   W02
 BYTE   W01
 BYTE   W02
 BYTE   W01
 BYTE   W01
 BYTE   Gn5
 BYTE   W01
 BYTE   W01
 BYTE   W02
 BYTE   W01
 BYTE   W02
 BYTE   W01
 BYTE   W02
 BYTE   W01
 BYTE   W01
 BYTE   N24  Dn6
 BYTE   W01
 BYTE   W01
 BYTE   W01
 BYTE   W03
 BYTE   W03
 BYTE   W03
 BYTE   W03
 BYTE   W03
 BYTE   W01
 BYTE   W02
 BYTE   W01
 BYTE   W02
 BYTE   N12  Gn5
 BYTE   W01
// 015   ----------------------------------------
 BYTE   W02
 BYTE   W01
 BYTE   W02
 BYTE   W01
 BYTE   W02
 BYTE   W01
 BYTE   W02
 BYTE   Fs5
 BYTE   W01
 BYTE   W02
 BYTE   W01
 BYTE   W02
 BYTE   W01
 BYTE   W02
 BYTE   W01
 BYTE   W02
 BYTE   Gn5
 BYTE   W01
 BYTE   W03
 BYTE   W03
 BYTE   W03
 BYTE   W02
 BYTE   Dn6
 BYTE   W01
 BYTE   W03
 BYTE   W03
 BYTE   W03
 BYTE   W02
 BYTE   Gn5
 BYTE   W01
 BYTE   W03
 BYTE   W03
 BYTE   W03
 BYTE   W02
 BYTE   Gn6
 BYTE   W11
 BYTE   W01
 BYTE   N23  Fs6
 BYTE   W01
 BYTE   W01
 BYTE   W02
 BYTE   W01
 BYTE   W02
 BYTE   W01
 BYTE   W02
 BYTE   W01
 BYTE   W02
 BYTE   W01
 BYTE   W02
 BYTE   W05
 BYTE   W01
 BYTE   W02
 BYTE   N12  Dn6
 BYTE   W01
// 016   ----------------------------------------
 BYTE   W02
 BYTE   W01
 BYTE   W02
 BYTE   W01
 BYTE   W02
 BYTE   W01
 BYTE   W02
 BYTE   An5
 BYTE   W01
 BYTE   W02
 BYTE   W01
 BYTE   W02
 BYTE   W01
 BYTE   W02
 BYTE   W01
 BYTE   W02
 BYTE   Gn5
 BYTE   W01
 BYTE   W02
 BYTE   W01
 BYTE   W02
 BYTE   W01
 BYTE   W02
 BYTE   W01
 BYTE   W02
 BYTE   En5  v108
 BYTE   W01
 BYTE   W03
 BYTE   W01
 BYTE   W02
 BYTE   W03
 BYTE   W01
 BYTE   W01
 BYTE   Fs5  v092
 BYTE   W01
 BYTE   W01
 BYTE   W02
 BYTE   W01
 BYTE   W02
 BYTE   W01
 BYTE   W02
 BYTE   W01
 BYTE   W01
 BYTE   Gn5
 BYTE   W01
 BYTE   W01
 BYTE   W02
 BYTE   W01
 BYTE   W02
 BYTE   W01
 BYTE   W02
 BYTE   W01
 BYTE   W01
 BYTE   N24  Dn6
 BYTE   W01
 BYTE   W01
 BYTE   W01
 BYTE   W03
 BYTE   W03
 BYTE   W03
 BYTE   W03
 BYTE   W03
 BYTE   W01
 BYTE   W03
 BYTE   W02
 BYTE   N12  Gn5
 BYTE   W01
// 017   ----------------------------------------
 BYTE   W03
 BYTE   W03
 BYTE   W03
 BYTE   W02
 BYTE   Fs5
 BYTE   W01
 BYTE   W03
 BYTE   W03
 BYTE   W03
 BYTE   W02
 BYTE   Gn5
 BYTE   W01
 BYTE   W03
 BYTE   W03
 BYTE   W03
 BYTE   W02
 BYTE   W56
 BYTE   W03
 BYTE   W01
 BYTE   W01
// 018   ----------------------------------------
 BYTE   W96
// 019   ----------------------------------------
 BYTE   W96
// 020   ----------------------------------------
 BYTE   W96
// 021   ----------------------------------------
 BYTE   W96
// 022   ----------------------------------------
 BYTE   W96
// 023   ----------------------------------------
 BYTE   W96
// 024   ----------------------------------------
 BYTE   W96
// 025   ----------------------------------------
 BYTE   W96
// 026   ----------------------------------------
 BYTE   W23
 BYTE   GoTo
  POIN2 Label_5_0102853C
 BYTE   FINE

//**************** Track 7 (Midi-Chn.6) ****************//

FE12TearfulShadowsRSflame_007:
// 000   ----------------------------------------
 BYTE   KEYSH   FE12TearfulShadowsRSflame_key+0
 BYTE   VOICE   11
 BYTE   VOL   19*FE12TearfulShadowsRSflame_mvl/mxv
 BYTE   PAN   c_v-64
 BYTE   BEND   c_v+0
 BYTE   W96
// 001   ----------------------------------------
 BYTE   W96
// 002   ----------------------------------------
 BYTE   W96
// 003   ----------------------------------------
 BYTE   W96
// 004   ----------------------------------------
 BYTE   W96
// 005   ----------------------------------------
 BYTE   W96
// 006   ----------------------------------------
Label_6_010292A0:
 BYTE   W32
 BYTE   W02
 BYTE   W01
 BYTE   BEND   c_v+0
 BYTE   N24  Bn4  v116
 BYTE   W06
 BYTE   W03
 BYTE   W04
 BYTE   W03
 BYTE   W03
 BYTE   W04
 BYTE   W01
 BYTE   Fs5
 BYTE   W02
 BYTE   W03
 BYTE   W04
 BYTE   W03
 BYTE   W03
 BYTE   W04
 BYTE   W03
 BYTE   W03
 BYTE   N23  Gn5
 BYTE   W04
 BYTE   W03
 BYTE   W03
 BYTE   W02
// 007   ----------------------------------------
 BYTE   W02
 BYTE   W03
 BYTE   W03
 BYTE   W03
 BYTE   N24  Cn6
 BYTE   W01
 BYTE   W03
 BYTE   W04
 BYTE   W03
 BYTE   W03
 BYTE   W04
 BYTE   W03
 BYTE   W03
 BYTE   BEND   c_v+0
 BYTE   N72  Bn5
 BYTE   W03
 BYTE   W03
 BYTE   W01
 BYTE   BEND   c_v-1
 BYTE   W02
 BYTE   W03
 BYTE   W01
 BYTE   Dn3
 BYTE   W02
 BYTE   W03
 BYTE   W01
 BYTE   Cs3
 BYTE   W02
 BYTE   W01
 BYTE   Cn3
 BYTE   W02
 BYTE   W01
 BYTE   Bn2
 BYTE   W02
 BYTE   W01
 BYTE   As2
 BYTE   W02
 BYTE   W01
 BYTE   An2
 BYTE   W02
 BYTE   W01
 BYTE   Gs2
 BYTE   W02
 BYTE   W01
 BYTE   Gn2
 BYTE   W02
 BYTE   W01
 BYTE   Fs2
 BYTE   W02
 BYTE   W01
 BYTE   Fn2
 BYTE   W02
 BYTE   W01
 BYTE   Ds2
 BYTE   W02
 BYTE   W01
 BYTE   Cs2
 BYTE   W02
 BYTE   W01
 BYTE   Cn2
 BYTE   W02
 BYTE   W01
 BYTE   As1
 BYTE   W02
 BYTE   W01
 BYTE   Gn1
 BYTE   W02
 BYTE   W01
// 008   ----------------------------------------
 BYTE   Fn1
 BYTE   W02
 BYTE   W01
 BYTE   Dn1
 BYTE   W02
 BYTE   W01
 BYTE   As0
 BYTE   W02
 BYTE   W01
 BYTE   Fs0
 BYTE   W02
 BYTE   En3
 BYTE   N12  Fs5
 BYTE   W01
 BYTE   W02
 BYTE   W01
 BYTE   W02
 BYTE   W01
 BYTE   W02
 BYTE   W01
 BYTE   W02
 BYTE   Gn5
 BYTE   W01
 BYTE   W02
 BYTE   W01
 BYTE   W02
 BYTE   W01
 BYTE   W01
 BYTE   W01
 BYTE   W01
 BYTE   W01
 BYTE   W01
 BYTE   N36  An5
 BYTE   W01
 BYTE   W02
 BYTE   W01
 BYTE   W02
 BYTE   W01
 BYTE   W02
 BYTE   W01
 BYTE   W02
 BYTE   W01
 BYTE   W02
 BYTE   W01
 BYTE   W02
 BYTE   W01
 BYTE   W02
 BYTE   W01
 BYTE   W02
 BYTE   W12
 BYTE   N12  Bn5
 BYTE   W05
 BYTE   W02
 BYTE   W01
 BYTE   W02
 BYTE   W01
 BYTE   W01
 BYTE   N24  Gn5
 BYTE   W01
 BYTE   W01
 BYTE   W02
 BYTE   W01
 BYTE   W02
 BYTE   W01
 BYTE   W02
 BYTE   W01
 BYTE   W02
// 009   ----------------------------------------
 BYTE   W01
 BYTE   W02
 BYTE   W01
 BYTE   W01
 BYTE   W01
 BYTE   W02
 BYTE   W01
 BYTE   W02
 BYTE   N12  En5
 BYTE   W01
 BYTE   W02
 BYTE   W01
 BYTE   W02
 BYTE   W01
 BYTE   W02
 BYTE   W01
 BYTE   W02
 BYTE   Fs5
 BYTE   W01
 BYTE   W02
 BYTE   W01
 BYTE   W02
 BYTE   W01
 BYTE   W01
 BYTE   W01
 BYTE   W01
 BYTE   W01
 BYTE   W01
 BYTE   N36  Gn5
 BYTE   W01
 BYTE   W02
 BYTE   W01
 BYTE   W02
 BYTE   W01
 BYTE   W02
 BYTE   W01
 BYTE   W02
 BYTE   W01
 BYTE   W02
 BYTE   W01
 BYTE   W02
 BYTE   W01
 BYTE   W02
 BYTE   W01
 BYTE   W02
 BYTE   W12
 BYTE   N12  An5
 BYTE   W12
 BYTE   BEND   c_v+0
 BYTE   N48  Fs5
 BYTE   W03
 BYTE   W03
 BYTE   W01
 BYTE   BEND   c_v-1
 BYTE   W02
 BYTE   W01
 BYTE   Dn3
 BYTE   W02
 BYTE   W01
// 010   ----------------------------------------
 BYTE   Cs3
 BYTE   W02
 BYTE   W01
 BYTE   Cn3
 BYTE   W02
 BYTE   W01
 BYTE   Bn2
 BYTE   W02
 BYTE   W01
 BYTE   An2
 BYTE   W02
 BYTE   W01
 BYTE   Gs2
 BYTE   W02
 BYTE   W01
 BYTE   Fs2
 BYTE   W02
 BYTE   W01
 BYTE   En2
 BYTE   W02
 BYTE   W01
 BYTE   Cs2
 BYTE   W02
 BYTE   W01
 BYTE   As1
 BYTE   W02
 BYTE   W01
 BYTE   Gn1
 BYTE   W02
 BYTE   W01
 BYTE   Dn1
 BYTE   W03
 BYTE   An0
 BYTE   W02
 BYTE   Cs0
 BYTE   W01
 BYTE   En3
 BYTE   W02
 BYTE   W05
 BYTE   W05
 BYTE   W05
 BYTE   W04
 BYTE   W05
 BYTE   W05
 BYTE   W05
 BYTE   W05
 BYTE   W04
 BYTE   W05
 BYTE   W05
 BYTE   W05
// 011   ----------------------------------------
 BYTE   W05
 BYTE   W04
 BYTE   W05
 BYTE   W05
 BYTE   W05
 BYTE   W05
 BYTE   W66
 BYTE   W01
// 012   ----------------------------------------
 BYTE   W96
// 013   ----------------------------------------
 BYTE   W96
// 014   ----------------------------------------
 BYTE   W96
// 015   ----------------------------------------
 BYTE   W96
// 016   ----------------------------------------
 BYTE   W96
// 017   ----------------------------------------
 BYTE   W96
// 018   ----------------------------------------
 BYTE   W96
// 019   ----------------------------------------
 BYTE   W96
// 020   ----------------------------------------
 BYTE   W96
// 021   ----------------------------------------
 BYTE   W96
// 022   ----------------------------------------
 BYTE   W96
// 023   ----------------------------------------
 BYTE   W96
// 024   ----------------------------------------
 BYTE   W96
// 025   ----------------------------------------
 BYTE   W96
// 026   ----------------------------------------
 BYTE   W23
 BYTE   GoTo
  POIN2 Label_6_010292A0
 BYTE   FINE

//**************** Track 8 (Midi-Chn.7) ****************//

FE12TearfulShadowsRSflame_008:
// 000   ----------------------------------------
 BYTE   KEYSH   FE12TearfulShadowsRSflame_key+0
 BYTE   VOICE   117
 BYTE   VOL   41*FE12TearfulShadowsRSflame_mvl/mxv
 BYTE   PAN   c_v+0
 BYTE   BEND   c_v+0
 BYTE   N04  En2  v024
 BYTE   W04
 BYTE   Dn2  v028
 BYTE   W04
 BYTE   En2  v040
 BYTE   W04
 BYTE   Dn2  v068
 BYTE   W04
 BYTE   En2  v080
 BYTE   W04
 BYTE   Dn2  v100
 BYTE   W04
 BYTE   N24  Cn2  v127
 BYTE   N72  Cn3  v080
 BYTE   W24
 BYTE   N06  En2  v112
 BYTE   W06
 BYTE   Dn2  v100
 BYTE   W06
 BYTE   En2  v116
 BYTE   W06
 BYTE   Dn2  v108
 BYTE   W06
 BYTE   En2  v120
 BYTE   W06
 BYTE   Gn2  v100
 BYTE   W06
 BYTE   Fn2  v096
 BYTE   W06
 BYTE   Cn2  v116
 BYTE   W06
// 001   ----------------------------------------
 BYTE   Gn2  v100
 BYTE   W01
 BYTE   N07  Fn2
 BYTE   W11
 BYTE   N06  Cn2  v116
 BYTE   W12
 BYTE   En2  v120
 BYTE   W12
 BYTE   Cn2  v127
 BYTE   W12
 BYTE   Gn2  v100
 BYTE   W01
 BYTE   Fn2  v096
 BYTE   W11
 BYTE   Cn2  v112
 BYTE   W12
 BYTE   Gn2  v096
 BYTE   W06
 BYTE   Fn2  v100
 BYTE   W06
 BYTE   Cn2  v112
 BYTE   W06
 BYTE   Cn2  v127
 BYTE   W06
// 002   ----------------------------------------
 BYTE   En2  v120
 BYTE   W01
 BYTE   Dn2  v116
 BYTE   W11
 BYTE   Cn2  v120
 BYTE   W12
 BYTE   N24  Cn2  v127
 BYTE   N72  Bn2  v080
 BYTE   W24
 BYTE   N06  En2  v112
 BYTE   W06
 BYTE   Dn2  v100
 BYTE   W06
 BYTE   En2  v116
 BYTE   W06
 BYTE   Dn2  v108
 BYTE   W06
 BYTE   En2  v116
 BYTE   W06
 BYTE   Cn2  v108
 BYTE   W06
 BYTE   Gn2  v096
 BYTE   W06
 BYTE   Fn2  v092
 BYTE   W06
// 003   ----------------------------------------
 BYTE   Cn2  v127
 BYTE   N96  Cn3  v080
 BYTE   W12
 BYTE   N06  Cn2  v112
 BYTE   W12
 BYTE   Fs2  v080
 BYTE   W12
 BYTE   Dn2  v120
 BYTE   W12
 BYTE   En2
 BYTE   W02
 BYTE   Dn2  v116
 BYTE   W10
 BYTE   Cn2  v127
 BYTE   W12
 BYTE   Gn2  v100
 BYTE   W02
 BYTE   Fn2  v096
 BYTE   W10
 BYTE   Cn2  v116
 BYTE   W12
// 004   ----------------------------------------
 BYTE   En2  v124
 BYTE   W02
 BYTE   Dn2  v120
 BYTE   W10
 BYTE   Cn2  v127
 BYTE   W12
 BYTE   N24
 BYTE   N12  As2  v084
 BYTE   W12
 BYTE   N04  Fs2  v032
 BYTE   W06
 BYTE   Fs2  v048
 BYTE   W06
 BYTE   Gs2  v056
 BYTE   W12
 BYTE   Fs2  v020
 BYTE   W06
 BYTE   Fs2  v036
 BYTE   W06
 BYTE   Gs2  v064
 BYTE   W12
 BYTE   Fs2  v028
 BYTE   W06
 BYTE   Fs2  v044
 BYTE   W06
// 005   ----------------------------------------
 BYTE   Gs2  v068
 BYTE   W12
 BYTE   Fs2  v032
 BYTE   W06
 BYTE   Fs2  v048
 BYTE   W06
 BYTE   Gs2  v076
 BYTE   W12
 BYTE   Fs2  v040
 BYTE   W06
 BYTE   Fs2  v056
 BYTE   W06
 BYTE   Gs2  v076
 BYTE   W12
 BYTE   N06  Cn2  v127
 BYTE   N04  Fs2  v040
 BYTE   W06
 BYTE   Fs2  v056
 BYTE   W06
 BYTE   N06  En2  v112
 BYTE   W06
 BYTE   Gn2  v100
 BYTE   W06
 BYTE   Fs2  v072
 BYTE   W06
 BYTE   Dn2  v108
 BYTE   W06
// 006   ----------------------------------------
Label_7_01028EF3:
 BYTE   N06  En2  v120
 BYTE   W06
 BYTE   Gn2  v100
 BYTE   W06
 BYTE   Fn2  v092
 BYTE   W06
 BYTE   Cn2  v104
 BYTE   W06
 BYTE   Cn2  v127
 BYTE   N96  Bn2  v080
 BYTE   W06
 BYTE   N06  En2  v056
 BYTE   W06
 BYTE   Dn2  v068
 BYTE   W06
 BYTE   En2  v064
 BYTE   W06
 BYTE   Cn2  v127
 BYTE   N12  As2  v080
 BYTE   W06
 BYTE   N06  En2  v060
 BYTE   W06
 BYTE   Cn2  v120
 BYTE   N12  As2  v072
 BYTE   W06
 BYTE   N06  Dn2  v068
 BYTE   W06
 BYTE   Cn2  v127
 BYTE   N12  As2  v076
 BYTE   W06
 BYTE   N06  En2  v064
 BYTE   W06
 BYTE   Cn2  v120
 BYTE   N12  As2  v068
 BYTE   W06
 BYTE   N06  Dn2  v072
 BYTE   W06
// 007   ----------------------------------------
 BYTE   Cn2  v124
 BYTE   N12  As2  v080
 BYTE   W06
 BYTE   N06  En2  v068
 BYTE   W06
 BYTE   Cn2  v120
 BYTE   N12  As2  v072
 BYTE   W06
 BYTE   N06  Dn2  v076
 BYTE   W06
 BYTE   Cn2  v127
 BYTE   N12  As2  v084
 BYTE   W06
 BYTE   N06  En2  v068
 BYTE   W06
 BYTE   Cn2  v120
 BYTE   N12  As2  v072
 BYTE   W06
 BYTE   N06  Dn2  v076
 BYTE   W06
 BYTE   Cn2  v124
 BYTE   N12  As2  v080
 BYTE   W06
 BYTE   N06  En2  v072
 BYTE   W06
 BYTE   Cn2  v120
 BYTE   N12  As2  v068
 BYTE   W06
 BYTE   N06  Dn2  v076
 BYTE   W06
 BYTE   Cn2  v127
 BYTE   N12  As2  v076
 BYTE   W06
 BYTE   N06  En2
 BYTE   W06
 BYTE   Cn2  v120
 BYTE   N12  As2  v072
 BYTE   W06
 BYTE   N06  Dn2  v080
 BYTE   W06
// 008   ----------------------------------------
 BYTE   En2  v120
 BYTE   W06
 BYTE   Dn2  v108
 BYTE   W06
 BYTE   Fs2  v068
 BYTE   W06
 BYTE   Cn2  v116
 BYTE   W06
 BYTE   En2  v120
 BYTE   N96  Cn3  v080
 BYTE   W06
 BYTE   N06  Dn2  v092
 BYTE   W06
 BYTE   Cn2  v116
 BYTE   W06
 BYTE   Dn2  v060
 BYTE   W06
 BYTE   Cn2  v127
 BYTE   W12
 BYTE   Gn2  v100
 BYTE   W02
 BYTE   Fn2  v096
 BYTE   W10
 BYTE   Cn2  v116
 BYTE   W06
 BYTE   Dn2  v060
 BYTE   W06
 BYTE   Cn2  v127
 BYTE   W12
// 009   ----------------------------------------
 BYTE   Dn2  v124
 BYTE   N06  Fn2  v100
 BYTE   W12
 BYTE   Cn2  v116
 BYTE   W06
 BYTE   Gs2  v060
 BYTE   W06
 BYTE   Gn2  v100
 BYTE   W06
 BYTE   Fn2  v096
 BYTE   W06
 BYTE   Cn2  v116
 BYTE   W12
 BYTE   Dn2  v120
 BYTE   W12
 BYTE   Cn2  v116
 BYTE   W12
 BYTE   En2  v120
 BYTE   W06
 BYTE   Dn2  v112
 BYTE   W06
 BYTE   En2  v120
 BYTE   W06
 BYTE   Dn2  v112
 BYTE   W06
// 010   ----------------------------------------
 BYTE   Cn2  v127
 BYTE   W04
 BYTE   N04  Dn2  v020
 BYTE   W04
 BYTE   En2  v036
 BYTE   W04
 BYTE   Dn2  v068
 BYTE   W04
 BYTE   En2  v080
 BYTE   W04
 BYTE   Dn2  v100
 BYTE   W04
 BYTE   N06  Cn2  v127
 BYTE   N96  Bn2  v092
 BYTE   W12
 BYTE   N06  Cn2  v112
 BYTE   W12
 BYTE   N24  As2  v076
 BYTE   W12
 BYTE   N06  Dn2  v120
 BYTE   W12
 BYTE   N24  As2  v080
 BYTE   W12
 BYTE   N06  Cn2  v112
 BYTE   W12
// 011   ----------------------------------------
 BYTE   En2  v120
 BYTE   N24  As2  v072
 BYTE   W24
 BYTE   N06  Cn2  v120
 BYTE   N24  As2  v084
 BYTE   W12
 BYTE   N06  Cn2  v112
 BYTE   W12
 BYTE   Dn2  v120
 BYTE   N24  As2  v072
 BYTE   W12
 BYTE   N06  Cn2  v108
 BYTE   W06
 BYTE   Cn2  v120
 BYTE   W06
 BYTE   En2  v127
 BYTE   N24  As2  v080
 BYTE   W12
 BYTE   N06  Cn2  v127
 BYTE   W12
// 012   ----------------------------------------
 BYTE   N24  As2  v072
 BYTE   W24
 BYTE   N06  Cn2  v127
 BYTE   N24  As2  v080
 BYTE   W12
 BYTE   N06  Cn2  v116
 BYTE   W12
 BYTE   N24  As2  v072
 BYTE   W12
 BYTE   N06  Dn2  v120
 BYTE   W12
 BYTE   N24  As2  v080
 BYTE   W12
 BYTE   N06  Cn2  v116
 BYTE   W12
// 013   ----------------------------------------
 BYTE   En2  v127
 BYTE   N24  As2  v068
 BYTE   W12
 BYTE   N06  Cn2  v112
 BYTE   W12
 BYTE   N24  As2  v080
 BYTE   W12
 BYTE   N06  Cn2  v116
 BYTE   W06
 BYTE   Cn2  v127
 BYTE   W06
 BYTE   Dn2  v120
 BYTE   N12  As2  v096
 BYTE   W12
 BYTE   N06  Cn2  v127
 BYTE   N06  Gs2  v088
 BYTE   W12
 BYTE   Gn2  v100
 BYTE   W02
 BYTE   Fn2  v092
 BYTE   W10
 BYTE   Cn2  v127
 BYTE   N60  Bn2  v084
 BYTE   W12
// 014   ----------------------------------------
 BYTE   W24
 BYTE   N06  Cn2  v127
 BYTE   N96  Cn3  v080
 BYTE   W12
 BYTE   N06  Cn2  v120
 BYTE   W12
 BYTE   N24  As2  v080
 BYTE   W12
 BYTE   N06  Dn2  v120
 BYTE   W12
 BYTE   N24  As2  v080
 BYTE   W12
 BYTE   N06  Cn2  v120
 BYTE   W12
// 015   ----------------------------------------
 BYTE   En2  v127
 BYTE   N24  As2  v080
 BYTE   W24
 BYTE   N06  Cn2  v120
 BYTE   N24  As2  v080
 BYTE   W12
 BYTE   N06  Cn2  v116
 BYTE   W12
 BYTE   Dn2  v120
 BYTE   N48  As2  v080
 BYTE   W12
 BYTE   N06  Cn2  v120
 BYTE   W12
 BYTE   En2
 BYTE   W06
 BYTE   Gn2  v100
 BYTE   W06
 BYTE   Fn2
 BYTE   W06
 BYTE   Cn2  v120
 BYTE   W06
// 016   ----------------------------------------
 BYTE   Dn2
 BYTE   N24  As2  v080
 BYTE   W24
 BYTE   N06  Cn2  v127
 BYTE   N24  As2  v080
 BYTE   W12
 BYTE   N06  Cn2  v120
 BYTE   W12
 BYTE   N24  As2  v080
 BYTE   W12
 BYTE   N06  Dn2  v120
 BYTE   W12
 BYTE   N24  As2  v080
 BYTE   W12
 BYTE   N06  Cn2  v120
 BYTE   W12
// 017   ----------------------------------------
 BYTE   En2  v127
 BYTE   N24  As2  v080
 BYTE   W12
 BYTE   N06  Cn2  v116
 BYTE   W12
 BYTE   En2  v127
 BYTE   W01
 BYTE   Dn2
 BYTE   W17
 BYTE   Gn2  v100
 BYTE   W01
 BYTE   Fn2  v092
 BYTE   W17
 BYTE   Gn2  v096
 BYTE   W01
 BYTE   Fn2  v088
 BYTE   W11
 BYTE   En2  v127
 BYTE   W08
 BYTE   Cn2  v104
 BYTE   W08
 BYTE   Cn2  v112
 BYTE   W08
// 018   ----------------------------------------
 BYTE   Gn2  v100
 BYTE   W02
 BYTE   N05  Fn2
 BYTE   W06
 BYTE   N06  Cn2  v108
 BYTE   W08
 BYTE   Cn2  v112
 BYTE   W08
 BYTE   Cn2  v124
 BYTE   N96  Bn2  v080
 BYTE   W16
 BYTE   N06  Cn2  v112
 BYTE   W08
 BYTE   Dn2  v120
 BYTE   W08
 BYTE   Fs2  v076
 BYTE   W08
 BYTE   Cn2  v116
 BYTE   N06  Fs2  v056
 BYTE   W08
 BYTE   En2  v120
 BYTE   N08  As2  v092
 BYTE   W08
 BYTE   N06  Cn2  v112
 BYTE   N06  Gs2  v076
 BYTE   W08
 BYTE   Gn2  v100
 BYTE   W08
// 019   ----------------------------------------
 BYTE   Cn2  v124
 BYTE   W08
 BYTE   Dn2  v104
 BYTE   W08
 BYTE   En2  v112
 BYTE   W08
 BYTE   Cn2
 BYTE   W08
 BYTE   Dn2
 BYTE   N06  Fs2  v076
 BYTE   W08
 BYTE   Cn2  v108
 BYTE   N06  Fs2  v056
 BYTE   W08
 BYTE   En2  v120
 BYTE   N08  As2  v092
 BYTE   W08
 BYTE   N06  Fs2  v056
 BYTE   W08
 BYTE   Dn2  v096
 BYTE   W08
 BYTE   Cn2  v124
 BYTE   N24  As2  v084
 BYTE   W16
 BYTE   N06  Cn2  v112
 BYTE   W08
// 020   ----------------------------------------
 BYTE   Dn2  v120
 BYTE   W08
 BYTE   Cn2  v112
 BYTE   N06  Fs2  v076
 BYTE   W08
 BYTE   Cn2  v116
 BYTE   N06  Fs2  v056
 BYTE   W08
 BYTE   En2  v120
 BYTE   N08  As2  v092
 BYTE   W08
 BYTE   N06  Fs2  v056
 BYTE   W08
 BYTE   Dn2  v104
 BYTE   N06  Fs2  v076
 BYTE   W08
 BYTE   Cn2  v124
 BYTE   N24  As2  v084
 BYTE   W16
 BYTE   N06  Cn2  v112
 BYTE   W08
 BYTE   Dn2  v120
 BYTE   W08
 BYTE   Fs2  v076
 BYTE   W08
 BYTE   Cn2  v116
 BYTE   N06  Fs2  v056
 BYTE   W08
// 021   ----------------------------------------
 BYTE   En2  v120
 BYTE   N08  As2  v092
 BYTE   W08
 BYTE   N06  Fs2  v056
 BYTE   W08
 BYTE   Dn2  v104
 BYTE   N06  Fs2  v076
 BYTE   W08
 BYTE   Cn2  v124
 BYTE   N24  As2  v080
 BYTE   W16
 BYTE   N06  Cn2  v112
 BYTE   W08
 BYTE   Dn2  v120
 BYTE   W08
 BYTE   Cn2  v124
 BYTE   W08
 BYTE   Gn2  v108
 BYTE   W08
 BYTE   Fn2  v104
 BYTE   N16  As2  v096
 BYTE   W08
 BYTE   N06  Cn2  v127
 BYTE   W08
 BYTE   Dn2  v104
 BYTE   W08
// 022   ----------------------------------------
 BYTE   En2  v116
 BYTE   W08
 BYTE   Gn2  v108
 BYTE   W08
 BYTE   Fn2
 BYTE   W08
 BYTE   Cn2  v124
 BYTE   N96  Bn2  v080
 BYTE   W16
 BYTE   N06  Cn2  v112
 BYTE   W08
 BYTE   Dn2  v120
 BYTE   W08
 BYTE   Fs2  v076
 BYTE   W08
 BYTE   Cn2  v116
 BYTE   N06  Fs2  v056
 BYTE   W08
 BYTE   En2  v120
 BYTE   N08  As2  v092
 BYTE   W08
 BYTE   N06  Cn2  v112
 BYTE   N06  Gs2  v076
 BYTE   W08
 BYTE   Gn2  v100
 BYTE   W08
// 023   ----------------------------------------
 BYTE   Cn2  v124
 BYTE   W08
 BYTE   Dn2  v104
 BYTE   W08
 BYTE   En2  v112
 BYTE   W08
 BYTE   Cn2
 BYTE   W08
 BYTE   Dn2
 BYTE   N06  Fs2  v076
 BYTE   W08
 BYTE   Cn2  v112
 BYTE   N06  Fs2  v056
 BYTE   W08
 BYTE   En2  v120
 BYTE   N08  As2  v092
 BYTE   W08
 BYTE   N06  Fs2  v056
 BYTE   W08
 BYTE   Dn2  v096
 BYTE   W08
 BYTE   Cn2  v108
 BYTE   N24  As2  v084
 BYTE   W08
 BYTE   N06  Cn2  v104
 BYTE   W08
 BYTE   Cn2  v124
 BYTE   W08
// 024   ----------------------------------------
 BYTE   Dn2  v120
 BYTE   W08
 BYTE   Fs2  v076
 BYTE   W08
 BYTE   Cn2  v116
 BYTE   N06  Fs2  v056
 BYTE   W08
 BYTE   Cn2  v124
 BYTE   N96  Cn3  v080
 BYTE   W16
 BYTE   N06  Cn2  v096
 BYTE   W08
 BYTE   Dn2  v120
 BYTE   N16  As2  v076
 BYTE   W16
 BYTE   N08  Fs2  v056
 BYTE   W08
 BYTE   N06  Cn2  v092
 BYTE   N21  As2  v080
 BYTE   W08
 BYTE   N06  Cn2  v100
 BYTE   W08
 BYTE   Cn2  v120
 BYTE   W08
// 025   ----------------------------------------
 BYTE   En2
 BYTE   N22  As2  v072
 BYTE   W16
 BYTE   N06  Cn2  v100
 BYTE   W08
 BYTE   Gn2
 BYTE   N21  As2  v084
 BYTE   W16
 BYTE   N06  Fn2  v100
 BYTE   W08
 BYTE   Cn2  v127
 BYTE   N24  As2  v084
 BYTE   W16
 BYTE   N06  Cn2  v108
 BYTE   W08
 BYTE   En2  v120
 BYTE   W06
 BYTE   Dn2  v112
 BYTE   W06
 BYTE   En2  v120
 BYTE   W06
 BYTE   Dn2  v116
 BYTE   W06
// 026   ----------------------------------------
 BYTE   En2  v120
 BYTE   W06
 BYTE   Gn2  v100
 BYTE   W06
 BYTE   Fn2  v080
 BYTE   W06
 BYTE   N05  Cn2  v100
 BYTE   W05
 BYTE   GoTo
  POIN2 Label_7_01028EF3
 BYTE   FINE

//**************** Track 9 (Midi-Chn.8) ****************//

FE12TearfulShadowsRSflame_009:
// 000   ----------------------------------------
 BYTE   KEYSH   FE12TearfulShadowsRSflame_key+0
 BYTE   VOICE   30
 BYTE   VOL   29*FE12TearfulShadowsRSflame_mvl/mxv
 BYTE   PAN   c_v-64
 BYTE   BEND   c_v+0
 BYTE   W36
 BYTE   En3
 BYTE   N22  Fs3  v112
 BYTE   W24
 BYTE   N05
 BYTE   W06
 BYTE   N05
 BYTE   W06
 BYTE   N05
 BYTE   W24
// 001   ----------------------------------------
 BYTE   W12
 BYTE   Cn3
 BYTE   W07
 BYTE   W01
 BYTE   W01
 BYTE   W01
 BYTE   W01
 BYTE   W01
 BYTE   Fs4  v127
 BYTE   W06
 BYTE   W06
 BYTE   Gn4
 BYTE   W06
 BYTE   W03
 BYTE   W03
 BYTE   Cn5
 BYTE   W03
 BYTE   W03
 BYTE   W03
 BYTE   W03
 BYTE   Fs4
 BYTE   W03
 BYTE   W03
 BYTE   W03
 BYTE   W03
 BYTE   Gn4
 BYTE   W03
 BYTE   W03
 BYTE   W03
 BYTE   W03
 BYTE   Cn5
 BYTE   W03
 BYTE   W03
 BYTE   W03
 BYTE   W03
// 002   ----------------------------------------
 BYTE   Fs4
 BYTE   W03
 BYTE   W03
 BYTE   W03
 BYTE   W03
 BYTE   Gn4
 BYTE   W03
 BYTE   W03
 BYTE   W03
 BYTE   W03
 BYTE   Cn5
 BYTE   W12
 BYTE   N22  Fs3  v112
 BYTE   W24
 BYTE   N05
 BYTE   W06
 BYTE   N05
 BYTE   W06
 BYTE   N05
 BYTE   W24
// 003   ----------------------------------------
 BYTE   W12
 BYTE   Cn3
 BYTE   W09
 BYTE   W01
 BYTE   W01
 BYTE   W01
 BYTE   Fs4  v127
 BYTE   W09
 BYTE   W03
 BYTE   Gn4
 BYTE   W03
 BYTE   W03
 BYTE   W06
 BYTE   Cn5
 BYTE   W06
 BYTE   W03
 BYTE   W03
 BYTE   Fs4
 BYTE   W03
 BYTE   W03
 BYTE   W03
 BYTE   W03
 BYTE   Gn4
 BYTE   W03
 BYTE   W03
 BYTE   W03
 BYTE   W03
 BYTE   Cn5
 BYTE   W03
 BYTE   W03
 BYTE   W03
 BYTE   W03
// 004   ----------------------------------------
 BYTE   Fs4
 BYTE   W03
 BYTE   W03
 BYTE   W03
 BYTE   W03
 BYTE   Gn4
 BYTE   W03
 BYTE   W03
 BYTE   W03
 BYTE   W03
 BYTE   Cn5
 BYTE   W11
 BYTE   N06  Bn3  v112
 BYTE   W07
 BYTE   W01
 BYTE   W01
 BYTE   W01
 BYTE   W01
 BYTE   W01
 BYTE   Cn5  v127
 BYTE   W07
 BYTE   W03
 BYTE   W02
 BYTE   Bn4
 BYTE   W04
 BYTE   W02
 BYTE   W04
 BYTE   W02
 BYTE   Fs4
 BYTE   W04
 BYTE   W02
 BYTE   W04
 BYTE   W02
 BYTE   Cn5
 BYTE   W04
 BYTE   W02
 BYTE   W04
 BYTE   W02
 BYTE   Bn4
 BYTE   W01
// 005   ----------------------------------------
 BYTE   W03
 BYTE   W02
 BYTE   W04
 BYTE   W02
 BYTE   Fs4
 BYTE   W04
 BYTE   W02
 BYTE   W04
 BYTE   W02
 BYTE   Cn5
 BYTE   W04
 BYTE   W02
 BYTE   W04
 BYTE   W02
 BYTE   Bn4
 BYTE   W04
 BYTE   W02
 BYTE   W04
 BYTE   W02
 BYTE   Fs4
 BYTE   W04
 BYTE   W02
 BYTE   W04
 BYTE   W02
 BYTE   Cn5
 BYTE   W04
 BYTE   W02
 BYTE   W04
 BYTE   W02
 BYTE   Bn4
 BYTE   W24
 BYTE   W01
// 006   ----------------------------------------
Label_8_0102949C:
 BYTE   W32
 BYTE   W03
 BYTE   W01
 BYTE   BEND   c_v+0
 BYTE   W07
 BYTE   W07
 BYTE   W03
 BYTE   W04
 BYTE   W07
 BYTE   W03
 BYTE   W04
 BYTE   W04
 BYTE   W07
 BYTE   W03
 BYTE   W04
 BYTE   W03
 BYTE   W04
// 007   ----------------------------------------
 BYTE   W03
 BYTE   W04
 BYTE   W04
 BYTE   W03
 BYTE   W04
 BYTE   W03
 BYTE   W04
 BYTE   W03
 BYTE   W04
 BYTE   W04
 BYTE   En3
 BYTE   W03
 BYTE   W03
 BYTE   Ds3
 BYTE   W03
 BYTE   W03
 BYTE   Dn3
 BYTE   W03
 BYTE   W03
 BYTE   Cs3
 BYTE   W03
 BYTE   Cn3
 BYTE   W03
 BYTE   Bn2
 BYTE   W03
 BYTE   As2
 BYTE   W03
 BYTE   An2
 BYTE   W03
 BYTE   Gs2
 BYTE   W03
 BYTE   Gn2
 BYTE   W03
 BYTE   Fs2
 BYTE   W03
 BYTE   Fn2
 BYTE   W03
 BYTE   Ds2
 BYTE   W03
 BYTE   Cs2
 BYTE   W03
 BYTE   Cn2
 BYTE   W03
 BYTE   As1
 BYTE   W03
 BYTE   Gn1
 BYTE   W03
// 008   ----------------------------------------
 BYTE   Fn1
 BYTE   W03
 BYTE   Dn1
 BYTE   W03
 BYTE   As0
 BYTE   W03
 BYTE   Fs0
 BYTE   W02
 BYTE   Cs0
 BYTE   W01
 BYTE   En3
 BYTE   W01
 BYTE   W02
 BYTE   W01
 BYTE   W02
 BYTE   W01
 BYTE   W02
 BYTE   W01
 BYTE   W02
 BYTE   W01
 BYTE   W02
 BYTE   W01
 BYTE   W02
 BYTE   W01
 BYTE   W02
 BYTE   W01
 BYTE   W02
 BYTE   W01
 BYTE   W01
 BYTE   W01
 BYTE   W01
 BYTE   W01
 BYTE   W01
 BYTE   W01
 BYTE   W02
 BYTE   W01
 BYTE   W02
 BYTE   W01
 BYTE   W02
 BYTE   W01
 BYTE   W02
 BYTE   W01
 BYTE   W02
 BYTE   W01
 BYTE   W02
 BYTE   W01
 BYTE   W02
 BYTE   W01
 BYTE   W02
 BYTE   W17
 BYTE   W02
 BYTE   W01
 BYTE   W02
 BYTE   W01
 BYTE   W02
 BYTE   W01
 BYTE   W02
 BYTE   W01
 BYTE   W01
// 009   ----------------------------------------
 BYTE   W01
 BYTE   W01
 BYTE   W02
 BYTE   W01
 BYTE   W02
 BYTE   W01
 BYTE   W02
 BYTE   W01
 BYTE   W01
 BYTE   W01
 BYTE   W02
 BYTE   W01
 BYTE   W02
 BYTE   W01
 BYTE   W02
 BYTE   W01
 BYTE   W02
 BYTE   W01
 BYTE   W02
 BYTE   W01
 BYTE   W02
 BYTE   W01
 BYTE   W02
 BYTE   W01
 BYTE   W02
 BYTE   W01
 BYTE   W01
 BYTE   W01
 BYTE   W01
 BYTE   W01
 BYTE   W01
 BYTE   W01
 BYTE   W02
 BYTE   W01
 BYTE   W02
 BYTE   W01
 BYTE   W02
 BYTE   W01
 BYTE   W02
 BYTE   W01
 BYTE   W02
 BYTE   W01
 BYTE   W02
 BYTE   W01
 BYTE   W02
 BYTE   W01
 BYTE   W02
 BYTE   W18
 BYTE   En3
 BYTE   W06
 BYTE   Ds3
 BYTE   W03
 BYTE   Dn3
 BYTE   W03
// 010   ----------------------------------------
 BYTE   Cs3
 BYTE   W03
 BYTE   Cn3
 BYTE   W03
 BYTE   Bn2
 BYTE   W03
 BYTE   An2
 BYTE   W03
 BYTE   Gs2
 BYTE   W03
 BYTE   Fs2
 BYTE   W03
 BYTE   En2
 BYTE   W03
 BYTE   Cs2
 BYTE   W03
 BYTE   As1
 BYTE   W03
 BYTE   Gn1
 BYTE   W03
 BYTE   Dn1
 BYTE   W03
 BYTE   An0
 BYTE   W03
 BYTE   En3
 BYTE   W04
 BYTE   W05
 BYTE   W05
 BYTE   W05
 BYTE   W05
 BYTE   W04
 BYTE   W05
 BYTE   W05
 BYTE   W05
 BYTE   W05
 BYTE   W04
 BYTE   W05
 BYTE   W03
// 011   ----------------------------------------
 BYTE   W02
 BYTE   W05
 BYTE   W05
 BYTE   W04
 BYTE   W05
 BYTE   W05
 BYTE   W05
 BYTE   W05
 BYTE   W60
// 012   ----------------------------------------
 BYTE   W96
// 013   ----------------------------------------
 BYTE   W96
// 014   ----------------------------------------
 BYTE   W96
// 015   ----------------------------------------
 BYTE   W96
// 016   ----------------------------------------
 BYTE   W96
// 017   ----------------------------------------
 BYTE   W80
 BYTE   W01
 BYTE   W01
 BYTE   W01
 BYTE   N05  Dn6  v088
 BYTE   W08
 BYTE   Gn5
 BYTE   W05
// 018   ----------------------------------------
 BYTE   W03
 BYTE   Fs5
 BYTE   W08
 BYTE   Cs6
 BYTE   W08
 BYTE   Fs5
 BYTE   W08
 BYTE   Fn5
 BYTE   W08
 BYTE   En4
 BYTE   W08
 BYTE   En5
 BYTE   W08
 BYTE   En4
 BYTE   W08
 BYTE   En5
 BYTE   W08
 BYTE   En4
 BYTE   W08
 BYTE   En5
 BYTE   W21
// 019   ----------------------------------------
Label_8_010295A1:
 BYTE   W11
 BYTE   N05  En4  v088
 BYTE   W08
 BYTE   En5
 BYTE   W08
 BYTE   En4
 BYTE   W08
 BYTE   En5
 BYTE   W08
 BYTE   En4
 BYTE   W08
 BYTE   En5
 BYTE   W32
 BYTE   En4
 BYTE   W08
 BYTE   En5
 BYTE   W05
 BYTE   PEND 
// 020   ----------------------------------------
Label_8_010295B5:
 BYTE   W03
 BYTE   N05  En4  v088
 BYTE   W08
 BYTE   En5
 BYTE   W08
 BYTE   En4
 BYTE   W08
 BYTE   En5
 BYTE   W32
 BYTE   En4
 BYTE   W08
 BYTE   En5
 BYTE   W08
 BYTE   En4
 BYTE   W08
 BYTE   En5
 BYTE   W08
 BYTE   En4
 BYTE   W05
 BYTE   PEND 
// 021   ----------------------------------------
 BYTE   W03
 BYTE   En5
 BYTE   W32
 BYTE   En4
 BYTE   W08
 BYTE   En5
 BYTE   W08
 BYTE   En4
 BYTE   W08
 BYTE   En5
 BYTE   W08
 BYTE   En4
 BYTE   W08
 BYTE   En5
 BYTE   W08
 BYTE   As5
 BYTE   W08
 BYTE   Ds5
 BYTE   W05
// 022   ----------------------------------------
 BYTE   W03
 BYTE   Dn5
 BYTE   W08
 BYTE   An5
 BYTE   W08
 BYTE   Dn5
 BYTE   W08
 BYTE   Cs5
 BYTE   W08
 BYTE   En4
 BYTE   W08
 BYTE   En5
 BYTE   W08
 BYTE   En4
 BYTE   W08
 BYTE   En5
 BYTE   W08
 BYTE   En4
 BYTE   W08
 BYTE   En5
 BYTE   W21
// 023   ----------------------------------------
 BYTE   PATT
  POIN2 Label_8_010295A1
// 024   ----------------------------------------
 BYTE   PATT
  POIN2 Label_8_010295B5
// 025   ----------------------------------------
 BYTE   W03
 BYTE   N05  En5  v088
 BYTE   W32
 BYTE   En4
 BYTE   W08
 BYTE   En5
 BYTE   W08
 BYTE   En4
 BYTE   W08
 BYTE   En5
 BYTE   W08
 BYTE   En4
 BYTE   W08
 BYTE   En5
 BYTE   W21
// 026   ----------------------------------------
 BYTE   W23
 BYTE   GoTo
  POIN2 Label_8_0102949C
 BYTE   FINE

//******************************************************//
	ALIGN 4

FE12TearfulShadowsRSflame:
	BYTE	9	// NumTrks
	BYTE	0	// NumBlks
	BYTE	FE12TearfulShadowsRSflame_pri	// Priority
	BYTE	FE12TearfulShadowsRSflame_rev	// Reverb.
    
	POIN2	FE12TearfulShadowsRSflame_grp
    
	POIN2	FE12TearfulShadowsRSflame_001
	POIN2	FE12TearfulShadowsRSflame_002
	POIN2	FE12TearfulShadowsRSflame_003
	POIN2	FE12TearfulShadowsRSflame_004
	POIN2	FE12TearfulShadowsRSflame_005
	POIN2	FE12TearfulShadowsRSflame_006
	POIN2	FE12TearfulShadowsRSflame_007
	POIN2	FE12TearfulShadowsRSflame_008
	POIN2	FE12TearfulShadowsRSflame_009

	
