//Event file generated from Sappy .s format.
	#include "MPlayDef.event"

	#define	FE12ReignofDespairAzula_grp  voicegroup000
	#define	FE12ReignofDespairAzula_pri  0
	#define	FE12ReignofDespairAzula_rev  0
	#define	FE12ReignofDespairAzula_mvl  127
	#define	FE12ReignofDespairAzula_key  0
	#define	FE12ReignofDespairAzula_tbs  1
	#define	FE12ReignofDespairAzula_exg  0
	#define	FE12ReignofDespairAzula_cmp  1

	// .rodata
	//	FE12ReignofDespairAzula
	ALIGN 4


//**************** Track 1 (Midi-Chn.0) ****************//

FE12ReignofDespairAzula_001:
//  #01 //000   ----------------------------------------
 BYTE   KEYSH   FE12ReignofDespairAzula_key+0
 BYTE   TEMPO   148*FE12ReignofDespairAzula_tbs/2
 BYTE   VOICE   61
 BYTE   MODT 0
 BYTE   LFOS 44
 BYTE   PAN   c_v-23
 BYTE   VOL   1*FE12ReignofDespairAzula_mvl/mxv
 BYTE   BEND   c_v+0
 BYTE   W48
 BYTE   TIE  An3  v088
 BYTE   W03
 BYTE   VOL   1*FE12ReignofDespairAzula_mvl/mxv
 BYTE   W03
 BYTE   VOL   1*FE12ReignofDespairAzula_mvl/mxv
 BYTE   W03
 BYTE   VOL   1*FE12ReignofDespairAzula_mvl/mxv
 BYTE   W03
 BYTE   VOL   2*FE12ReignofDespairAzula_mvl/mxv
 BYTE   W03
 BYTE   VOL   2*FE12ReignofDespairAzula_mvl/mxv
 BYTE   W03
 BYTE   VOL   2*FE12ReignofDespairAzula_mvl/mxv
 BYTE   W03
 BYTE   VOL   2*FE12ReignofDespairAzula_mvl/mxv
 BYTE   W03
 BYTE   VOL   2*FE12ReignofDespairAzula_mvl/mxv
 BYTE   W03
 BYTE   VOL   2*FE12ReignofDespairAzula_mvl/mxv
 BYTE   W03
 BYTE   VOL   3*FE12ReignofDespairAzula_mvl/mxv
 BYTE   W03
 BYTE   VOL   3*FE12ReignofDespairAzula_mvl/mxv
 BYTE   W03
 BYTE   VOL   3*FE12ReignofDespairAzula_mvl/mxv
 BYTE   W03
 BYTE   VOL   3*FE12ReignofDespairAzula_mvl/mxv
 BYTE   W03
 BYTE   VOL   3*FE12ReignofDespairAzula_mvl/mxv
 BYTE   W03
 BYTE   VOL   3*FE12ReignofDespairAzula_mvl/mxv
 BYTE   W03
//  #01 //001   ----------------------------------------
 BYTE   VOL   4*FE12ReignofDespairAzula_mvl/mxv
 BYTE   W03
 BYTE   VOL   4*FE12ReignofDespairAzula_mvl/mxv
 BYTE   W03
 BYTE   VOL   4*FE12ReignofDespairAzula_mvl/mxv
 BYTE   W03
 BYTE   VOL   5*FE12ReignofDespairAzula_mvl/mxv
 BYTE   W03
 BYTE   VOL   5*FE12ReignofDespairAzula_mvl/mxv
 BYTE   W03
 BYTE   VOL   5*FE12ReignofDespairAzula_mvl/mxv
 BYTE   W03
 BYTE   VOL   5*FE12ReignofDespairAzula_mvl/mxv
 BYTE   W03
 BYTE   VOL   6*FE12ReignofDespairAzula_mvl/mxv
 BYTE   W03
 BYTE   VOL   6*FE12ReignofDespairAzula_mvl/mxv
 BYTE   W03
 BYTE   VOL   6*FE12ReignofDespairAzula_mvl/mxv
 BYTE   W03
 BYTE   VOL   6*FE12ReignofDespairAzula_mvl/mxv
 BYTE   W03
 BYTE   VOL   6*FE12ReignofDespairAzula_mvl/mxv
 BYTE   W03
 BYTE   VOL   7*FE12ReignofDespairAzula_mvl/mxv
 BYTE   W03
 BYTE   VOL   8*FE12ReignofDespairAzula_mvl/mxv
 BYTE   W03
 BYTE   VOL   8*FE12ReignofDespairAzula_mvl/mxv
 BYTE   W03
 BYTE   VOL   8*FE12ReignofDespairAzula_mvl/mxv
 BYTE   W03
 BYTE   VOL   8*FE12ReignofDespairAzula_mvl/mxv
 BYTE   W03
 BYTE   VOL   9*FE12ReignofDespairAzula_mvl/mxv
 BYTE   W03
 BYTE   VOL   10*FE12ReignofDespairAzula_mvl/mxv
 BYTE   W03
 BYTE   VOL   10*FE12ReignofDespairAzula_mvl/mxv
 BYTE   W03
 BYTE   VOL   10*FE12ReignofDespairAzula_mvl/mxv
 BYTE   W03
 BYTE   VOL   11*FE12ReignofDespairAzula_mvl/mxv
 BYTE   W03
 BYTE   VOL   11*FE12ReignofDespairAzula_mvl/mxv
 BYTE   W03
 BYTE   VOL   11*FE12ReignofDespairAzula_mvl/mxv
 BYTE   W03
 BYTE   VOL   11*FE12ReignofDespairAzula_mvl/mxv
 BYTE   W03
 BYTE   VOL   12*FE12ReignofDespairAzula_mvl/mxv
 BYTE   W03
 BYTE   VOL   13*FE12ReignofDespairAzula_mvl/mxv
 BYTE   W03
 BYTE   VOL   14*FE12ReignofDespairAzula_mvl/mxv
 BYTE   W03
 BYTE   VOL   14*FE12ReignofDespairAzula_mvl/mxv
 BYTE   W03
 BYTE   VOL   15*FE12ReignofDespairAzula_mvl/mxv
 BYTE   W03
 BYTE   VOL   15*FE12ReignofDespairAzula_mvl/mxv
 BYTE   W03
 BYTE   VOL   16*FE12ReignofDespairAzula_mvl/mxv
 BYTE   W03
//  #01 //002   ----------------------------------------
 BYTE   VOL   17*FE12ReignofDespairAzula_mvl/mxv
 BYTE   W03
 BYTE   VOL   17*FE12ReignofDespairAzula_mvl/mxv
 BYTE   W03
 BYTE   VOL   18*FE12ReignofDespairAzula_mvl/mxv
 BYTE   W03
 BYTE   VOL   18*FE12ReignofDespairAzula_mvl/mxv
 BYTE   W03
 BYTE   VOL   19*FE12ReignofDespairAzula_mvl/mxv
 BYTE   W03
 BYTE   VOL   19*FE12ReignofDespairAzula_mvl/mxv
 BYTE   W03
 BYTE   VOL   20*FE12ReignofDespairAzula_mvl/mxv
 BYTE   W03
 BYTE   VOL   21*FE12ReignofDespairAzula_mvl/mxv
 BYTE   W03
 BYTE   VOL   22*FE12ReignofDespairAzula_mvl/mxv
 BYTE   W03
 BYTE   VOL   22*FE12ReignofDespairAzula_mvl/mxv
 BYTE   W03
 BYTE   VOL   23*FE12ReignofDespairAzula_mvl/mxv
 BYTE   W03
 BYTE   VOL   24*FE12ReignofDespairAzula_mvl/mxv
 BYTE   W03
 BYTE   VOL   26*FE12ReignofDespairAzula_mvl/mxv
 BYTE   W07
 BYTE   VOL   25*FE12ReignofDespairAzula_mvl/mxv
 BYTE   W05
 BYTE   VOL   25*FE12ReignofDespairAzula_mvl/mxv
 BYTE   W03
 BYTE   VOL   24*FE12ReignofDespairAzula_mvl/mxv
 BYTE   W04
 BYTE   VOL   24*FE12ReignofDespairAzula_mvl/mxv
 BYTE   W04
 BYTE   VOL   23*FE12ReignofDespairAzula_mvl/mxv
 BYTE   W04
 BYTE   VOL   23*FE12ReignofDespairAzula_mvl/mxv
 BYTE   W04
 BYTE   VOL   23*FE12ReignofDespairAzula_mvl/mxv
 BYTE   W04
 BYTE   VOL   22*FE12ReignofDespairAzula_mvl/mxv
 BYTE   W04
 BYTE   VOL   22*FE12ReignofDespairAzula_mvl/mxv
 BYTE   W04
 BYTE   VOL   22*FE12ReignofDespairAzula_mvl/mxv
 BYTE   W04
 BYTE   VOL   22*FE12ReignofDespairAzula_mvl/mxv
 BYTE   W04
 BYTE   VOL   21*FE12ReignofDespairAzula_mvl/mxv
 BYTE   W04
 BYTE   VOL   21*FE12ReignofDespairAzula_mvl/mxv
 BYTE   W04
 BYTE   VOL   20*FE12ReignofDespairAzula_mvl/mxv
 BYTE   W01
//  #01 //003   ----------------------------------------
 BYTE   W03
 BYTE   VOL   20*FE12ReignofDespairAzula_mvl/mxv
 BYTE   W04
 BYTE   VOL   20*FE12ReignofDespairAzula_mvl/mxv
 BYTE   W04
 BYTE   VOL   19*FE12ReignofDespairAzula_mvl/mxv
 BYTE   W04
 BYTE   VOL   19*FE12ReignofDespairAzula_mvl/mxv
 BYTE   W04
 BYTE   VOL   19*FE12ReignofDespairAzula_mvl/mxv
 BYTE   W04
 BYTE   VOL   19*FE12ReignofDespairAzula_mvl/mxv
 BYTE   W04
 BYTE   VOL   18*FE12ReignofDespairAzula_mvl/mxv
 BYTE   W04
 BYTE   VOL   18*FE12ReignofDespairAzula_mvl/mxv
 BYTE   W04
 BYTE   VOL   18*FE12ReignofDespairAzula_mvl/mxv
 BYTE   W04
 BYTE   VOL   18*FE12ReignofDespairAzula_mvl/mxv
 BYTE   W04
 BYTE   VOL   17*FE12ReignofDespairAzula_mvl/mxv
 BYTE   W04
 BYTE   VOL   17*FE12ReignofDespairAzula_mvl/mxv
 BYTE   W04
 BYTE   VOL   17*FE12ReignofDespairAzula_mvl/mxv
 BYTE   W04
 BYTE   VOL   16*FE12ReignofDespairAzula_mvl/mxv
 BYTE   W04
 BYTE   VOL   16*FE12ReignofDespairAzula_mvl/mxv
 BYTE   W04
 BYTE   VOL   15*FE12ReignofDespairAzula_mvl/mxv
 BYTE   W04
 BYTE   VOL   15*FE12ReignofDespairAzula_mvl/mxv
 BYTE   W04
 BYTE   VOL   15*FE12ReignofDespairAzula_mvl/mxv
 BYTE   W04
 BYTE   VOL   15*FE12ReignofDespairAzula_mvl/mxv
 BYTE   W04
 BYTE   VOL   14*FE12ReignofDespairAzula_mvl/mxv
 BYTE   W04
 BYTE   VOL   14*FE12ReignofDespairAzula_mvl/mxv
 BYTE   W04
 BYTE   VOL   14*FE12ReignofDespairAzula_mvl/mxv
 BYTE   W04
 BYTE   VOL   14*FE12ReignofDespairAzula_mvl/mxv
 BYTE   W04
 BYTE   VOL   13*FE12ReignofDespairAzula_mvl/mxv
 BYTE   W01
//  #01 //004   ----------------------------------------
 BYTE   W03
 BYTE   VOL   13*FE12ReignofDespairAzula_mvl/mxv
 BYTE   W04
 BYTE   VOL   13*FE12ReignofDespairAzula_mvl/mxv
 BYTE   W04
 BYTE   VOL   12*FE12ReignofDespairAzula_mvl/mxv
 BYTE   W04
 BYTE   VOL   12*FE12ReignofDespairAzula_mvl/mxv
 BYTE   W04
 BYTE   VOL   11*FE12ReignofDespairAzula_mvl/mxv
 BYTE   W04
 BYTE   VOL   11*FE12ReignofDespairAzula_mvl/mxv
 BYTE   W01
 BYTE   EOT
 BYTE   VOL   28*FE12ReignofDespairAzula_mvl/mxv
 BYTE   W24
Label_0103CA10:
 BYTE   W03
 BYTE   VOL   28*FE12ReignofDespairAzula_mvl/mxv
 BYTE   N12  Dn3  v108
 BYTE   W12
 BYTE   An3  v100
 BYTE   W12
 BYTE   Gn3  v096
 BYTE   W12
 BYTE   Fn3  v092
 BYTE   W09
//  #01 //005   ----------------------------------------
 BYTE   W03
 BYTE   En3  v088
 BYTE   W12
 BYTE   Dn3  v084
 BYTE   W12
 BYTE   Cs3  v080
 BYTE   W12
 BYTE   Dn3  v084
 BYTE   W12
 BYTE   Dn3  v108
 BYTE   W12
 BYTE   An3  v096
 BYTE   W12
 BYTE   Gn3  v092
 BYTE   W12
 BYTE   Fn3  v088
 BYTE   W09
//  #01 //006   ----------------------------------------
 BYTE   W03
 BYTE   En3  v084
 BYTE   W12
 BYTE   Dn3  v080
 BYTE   W12
 BYTE   Cs3
 BYTE   W12
 BYTE   Dn3  v088
 BYTE   W12
 BYTE   En3  v112
 BYTE   W12
 BYTE   Dn3  v088
 BYTE   W12
 BYTE   Gn3  v100
 BYTE   W12
 BYTE   Fn3  v092
 BYTE   W09
//  #01 //007   ----------------------------------------
 BYTE   W03
 BYTE   En3  v084
 BYTE   W12
 BYTE   Dn3  v076
 BYTE   W12
 BYTE   Cn3  v068
 BYTE   W12
 BYTE   As2  v060
 BYTE   W12
 BYTE   VOL   28*FE12ReignofDespairAzula_mvl/mxv
 BYTE   N08  Cn3  v108
 BYTE   W06
 BYTE   Gs2  v056
 BYTE   W06
 BYTE   Cn3  v064
 BYTE   W06
 BYTE   Ds3  v088
 BYTE   W05
 BYTE   VOL   28*FE12ReignofDespairAzula_mvl/mxv
 BYTE   W01
 BYTE   VOL   14*FE12ReignofDespairAzula_mvl/mxv
 BYTE   N08  Cn3  v108
 BYTE   W03
 BYTE   VOL   15*FE12ReignofDespairAzula_mvl/mxv
 BYTE   W03
 BYTE   VOL   15*FE12ReignofDespairAzula_mvl/mxv
 BYTE   N08  Gs2  v056
 BYTE   W03
 BYTE   VOL   16*FE12ReignofDespairAzula_mvl/mxv
 BYTE   W03
 BYTE   VOL   17*FE12ReignofDespairAzula_mvl/mxv
 BYTE   N08  Cn3  v064
 BYTE   W03
 BYTE   VOL   18*FE12ReignofDespairAzula_mvl/mxv
 BYTE   W03
 BYTE   VOL   19*FE12ReignofDespairAzula_mvl/mxv
 BYTE   N08  Ds3  v088
 BYTE   W03
//  #01 //008   ----------------------------------------
 BYTE   VOL   19*FE12ReignofDespairAzula_mvl/mxv
 BYTE   W03
 BYTE   VOL   20*FE12ReignofDespairAzula_mvl/mxv
 BYTE   N08  Cn3  v108
 BYTE   W03
 BYTE   VOL   21*FE12ReignofDespairAzula_mvl/mxv
 BYTE   W03
 BYTE   VOL   22*FE12ReignofDespairAzula_mvl/mxv
 BYTE   N08  Gs2  v056
 BYTE   W03
 BYTE   VOL   23*FE12ReignofDespairAzula_mvl/mxv
 BYTE   W03
 BYTE   VOL   24*FE12ReignofDespairAzula_mvl/mxv
 BYTE   N08  Cn3  v064
 BYTE   W03
 BYTE   VOL   25*FE12ReignofDespairAzula_mvl/mxv
 BYTE   W03
 BYTE   VOL   26*FE12ReignofDespairAzula_mvl/mxv
 BYTE   N08  Ds3  v088
 BYTE   W03
 BYTE   VOL   27*FE12ReignofDespairAzula_mvl/mxv
 BYTE   W03
 BYTE   VOL   28*FE12ReignofDespairAzula_mvl/mxv
 BYTE   N08  Cn3  v108
 BYTE   W06
 BYTE   Gs2  v056
 BYTE   W06
 BYTE   Cn3  v064
 BYTE   W06
 BYTE   Ds3  v088
 BYTE   W06
 BYTE   Bn2  v104
 BYTE   W07
 BYTE   VOL   28*FE12ReignofDespairAzula_mvl/mxv
 BYTE   W01
 BYTE   VOL   27*FE12ReignofDespairAzula_mvl/mxv
 BYTE   W01
 BYTE   VOL   26*FE12ReignofDespairAzula_mvl/mxv
 BYTE   W03
 BYTE   N09  Gs2  v052
 BYTE   W06
 BYTE   An2  v056
 BYTE   W06
 BYTE   N08  As2
 BYTE   W11
 BYTE   VOL   26*FE12ReignofDespairAzula_mvl/mxv
 BYTE   W01
 BYTE   N08
 BYTE   W06
 BYTE   Bn2  v060
 BYTE   W03
//  #01 //009   ----------------------------------------
 BYTE   W03
 BYTE   Cn3
 BYTE   W12
 BYTE   Cn3  v064
 BYTE   W02
 BYTE   VOL   27*FE12ReignofDespairAzula_mvl/mxv
 BYTE   W04
 BYTE   N08  Cs3
 BYTE   W06
 BYTE   Dn3
 BYTE   W12
 BYTE   Dn3  v068
 BYTE   W04
 BYTE   VOL   27*FE12ReignofDespairAzula_mvl/mxv
 BYTE   W02
 BYTE   N08  Ds3
 BYTE   W06
 BYTE   En3  v116
 BYTE   W12
 BYTE   En3  v072
 BYTE   W06
 BYTE   VOL   27*FE12ReignofDespairAzula_mvl/mxv
 BYTE   N08  Fn3
 BYTE   W06
 BYTE   Fs3  v076
 BYTE   W12
 BYTE   N08
 BYTE   W06
 BYTE   Gn3  v080
 BYTE   W02
 BYTE   VOL   27*FE12ReignofDespairAzula_mvl/mxv
 BYTE   W01
//  #01 //010   ----------------------------------------
 BYTE   W03
 BYTE   N08  Gs3
 BYTE   W12
 BYTE   Gs3  v084
 BYTE   W06
 BYTE   An3
 BYTE   W04
 BYTE   VOL   28*FE12ReignofDespairAzula_mvl/mxv
 BYTE   W02
 BYTE   N08  As3
 BYTE   W12
 BYTE   As3  v088
 BYTE   W06
 BYTE   Bn3
 BYTE   W06
 BYTE   VOL   28*FE12ReignofDespairAzula_mvl/mxv
 BYTE   N08  As3  v112
 BYTE   W12
 BYTE   As3  v056
 BYTE   W06
 BYTE   Gs3  v040
 BYTE   W06
 BYTE   As3  v072
 BYTE   W06
 BYTE   Ds4  v100
 BYTE   W06
 BYTE   As3  v056
 BYTE   W06
 BYTE   Gs3  v028
 BYTE   W03
//  #01 //011   ----------------------------------------
 BYTE   W03
 BYTE   As3  v112
 BYTE   W12
 BYTE   As3  v056
 BYTE   W06
 BYTE   Gs3  v040
 BYTE   W06
 BYTE   As3  v072
 BYTE   W06
 BYTE   Ds4  v100
 BYTE   W06
 BYTE   As3  v056
 BYTE   W06
 BYTE   Gs3  v028
 BYTE   W05
 BYTE   VOL   28*FE12ReignofDespairAzula_mvl/mxv
 BYTE   W01
 BYTE   VOL   19*FE12ReignofDespairAzula_mvl/mxv
 BYTE   N08  As3  v124
 BYTE   W07
 BYTE   VOL   19*FE12ReignofDespairAzula_mvl/mxv
 BYTE   W05
 BYTE   N08  As3  v056
 BYTE   W02
 BYTE   VOL   19*FE12ReignofDespairAzula_mvl/mxv
 BYTE   W04
 BYTE   VOL   19*FE12ReignofDespairAzula_mvl/mxv
 BYTE   N08  Gs3  v040
 BYTE   W06
 BYTE   As3  v124
 BYTE   W01
 BYTE   VOL   20*FE12ReignofDespairAzula_mvl/mxv
 BYTE   W03
 BYTE   VOL   20*FE12ReignofDespairAzula_mvl/mxv
 BYTE   W08
 BYTE   VOL   20*FE12ReignofDespairAzula_mvl/mxv
 BYTE   N08  As3  v056
 BYTE   W03
 BYTE   VOL   21*FE12ReignofDespairAzula_mvl/mxv
 BYTE   W03
 BYTE   N08  Gs3  v040
 BYTE   W01
 BYTE   VOL   21*FE12ReignofDespairAzula_mvl/mxv
 BYTE   W02
//  #01 //012   ----------------------------------------
 BYTE   W01
 BYTE   VOL   22*FE12ReignofDespairAzula_mvl/mxv
 BYTE   W02
 BYTE   N08  As3  v124
 BYTE   W02
 BYTE   VOL   22*FE12ReignofDespairAzula_mvl/mxv
 BYTE   W03
 BYTE   VOL   22*FE12ReignofDespairAzula_mvl/mxv
 BYTE   W04
 BYTE   VOL   22*FE12ReignofDespairAzula_mvl/mxv
 BYTE   W03
 BYTE   VOL   23*FE12ReignofDespairAzula_mvl/mxv
 BYTE   N08  As3  v056
 BYTE   W04
 BYTE   VOL   23*FE12ReignofDespairAzula_mvl/mxv
 BYTE   W02
 BYTE   N08  Gs3  v040
 BYTE   W02
 BYTE   VOL   23*FE12ReignofDespairAzula_mvl/mxv
 BYTE   W03
 BYTE   VOL   24*FE12ReignofDespairAzula_mvl/mxv
 BYTE   W01
 BYTE   N08  As3  v124
 BYTE   W03
 BYTE   VOL   24*FE12ReignofDespairAzula_mvl/mxv
 BYTE   W03
 BYTE   VOL   25*FE12ReignofDespairAzula_mvl/mxv
 BYTE   W04
 BYTE   VOL   26*FE12ReignofDespairAzula_mvl/mxv
 BYTE   W02
 BYTE   N08  As3  v056
 BYTE   W01
 BYTE   VOL   27*FE12ReignofDespairAzula_mvl/mxv
 BYTE   W04
 BYTE   VOL   27*FE12ReignofDespairAzula_mvl/mxv
 BYTE   W01
 BYTE   N08  Gs3  v040
 BYTE   W02
 BYTE   VOL   27*FE12ReignofDespairAzula_mvl/mxv
 BYTE   W04
 BYTE   VOL   28*FE12ReignofDespairAzula_mvl/mxv
 BYTE   N08  As3  v120
 BYTE   W06
 BYTE   Gs3  v064
 BYTE   W06
 BYTE   Ds3  v044
 BYTE   W06
 BYTE   Gs3  v060
 BYTE   W06
 BYTE   As3  v104
 BYTE   W12
 BYTE   Gs3  v072
 BYTE   W06
 BYTE   Ds4  v088
 BYTE   W03
//  #01 //013   ----------------------------------------
 BYTE   W03
 BYTE   VOL   19*FE12ReignofDespairAzula_mvl/mxv
 BYTE   N08  As3  v112
 BYTE   W03
 BYTE   VOL   19*FE12ReignofDespairAzula_mvl/mxv
 BYTE   W03
 BYTE   VOL   19*FE12ReignofDespairAzula_mvl/mxv
 BYTE   N08  Ds4  v072
 BYTE   W03
 BYTE   VOL   20*FE12ReignofDespairAzula_mvl/mxv
 BYTE   W03
 BYTE   VOL   20*FE12ReignofDespairAzula_mvl/mxv
 BYTE   N08  As3  v052
 BYTE   W03
 BYTE   VOL   21*FE12ReignofDespairAzula_mvl/mxv
 BYTE   W03
 BYTE   VOL   22*FE12ReignofDespairAzula_mvl/mxv
 BYTE   N08  Ds4  v036
 BYTE   W03
 BYTE   VOL   22*FE12ReignofDespairAzula_mvl/mxv
 BYTE   W03
 BYTE   VOL   23*FE12ReignofDespairAzula_mvl/mxv
 BYTE   N08  As3  v084
 BYTE   W03
 BYTE   VOL   24*FE12ReignofDespairAzula_mvl/mxv
 BYTE   W03
 BYTE   VOL   25*FE12ReignofDespairAzula_mvl/mxv
 BYTE   N08  Ds4  v060
 BYTE   W03
 BYTE   VOL   27*FE12ReignofDespairAzula_mvl/mxv
 BYTE   W03
 BYTE   VOL   28*FE12ReignofDespairAzula_mvl/mxv
 BYTE   N08  As3  v124
 BYTE   W06
 BYTE   Ds4  v080
 BYTE   W06
 BYTE   En4  v108
 BYTE   W12
 BYTE   Dn4  v072
 BYTE   W06
 BYTE   Cn4  v056
 BYTE   W06
 BYTE   Dn4  v104
 BYTE   W12
 BYTE   Cn4  v076
 BYTE   W06
 BYTE   Bn3  v056
 BYTE   W03
//  #01 //014   ----------------------------------------
 BYTE   W03
 BYTE   Cn4  v108
 BYTE   W12
 BYTE   Bn3  v080
 BYTE   W06
 BYTE   An3  v060
 BYTE   W06
 BYTE   Bn3  v108
 BYTE   W12
 BYTE   An3  v076
 BYTE   W06
 BYTE   Gn3  v056
 BYTE   W06
 BYTE   An3  v108
 BYTE   W12
 BYTE   Gn3  v072
 BYTE   W06
 BYTE   Fn3  v048
 BYTE   W06
 BYTE   Gn3  v108
 BYTE   W12
 BYTE   Fn3  v076
 BYTE   W06
 BYTE   En3  v056
 BYTE   W03
//  #01 //015   ----------------------------------------
 BYTE   W03
 BYTE   Fn3  v108
 BYTE   W12
 BYTE   En3  v072
 BYTE   W06
 BYTE   Dn3  v052
 BYTE   W06
 BYTE   En3  v112
 BYTE   W12
 BYTE   Dn3  v072
 BYTE   W06
 BYTE   N04  Cn3  v052
 BYTE   W06
 BYTE   Cn3  v112
 BYTE   W12
 BYTE   An2  v056
 BYTE   W06
 BYTE   Bn2  v072
 BYTE   W06
 BYTE   Dn3  v092
 BYTE   W12
 BYTE   Bn2  v072
 BYTE   W06
 BYTE   An2  v052
 BYTE   W03
//  #01 //016   ----------------------------------------
 BYTE   W03
 BYTE   Bn2  v108
 BYTE   W12
 BYTE   Cn3  v048
 BYTE   W06
 BYTE   Dn3  v056
 BYTE   W06
 BYTE   En3  v064
 BYTE   W06
 BYTE   Fn3  v076
 BYTE   W06
 BYTE   Fs3  v084
 BYTE   W06
 BYTE   Gn3  v092
 BYTE   W06
 BYTE   An3  v104
 BYTE   W12
 BYTE   Gn3  v072
 BYTE   W06
 BYTE   Fn3  v056
 BYTE   W06
 BYTE   Gn3  v088
 BYTE   W12
 BYTE   Dn4  v068
 BYTE   W06
 BYTE   Cs4  v048
 BYTE   W03
//  #01 //017   ----------------------------------------
 BYTE   W03
 BYTE   Dn4  v108
 BYTE   W12
 BYTE   An3  v064
 BYTE   W06
 BYTE   Gn3  v048
 BYTE   W06
 BYTE   An3  v104
 BYTE   W12
 BYTE   Fn3  v056
 BYTE   W12
 BYTE   En3  v108
 BYTE   W12
 BYTE   Dn3  v048
 BYTE   W06
 BYTE   En3  v064
 BYTE   W06
 BYTE   Gn3  v096
 BYTE   W12
 BYTE   Fn3  v048
 BYTE   W06
 BYTE   Gn3  v072
 BYTE   W03
//  #01 //018   ----------------------------------------
 BYTE   W03
 BYTE   En3  v104
 BYTE   W12
 BYTE   An3  v060
 BYTE   W06
 BYTE   En3  v044
 BYTE   W06
 BYTE   Gn3  v104
 BYTE   W12
 BYTE   Fn3  v044
 BYTE   W06
 BYTE   En3  v060
 BYTE   W06
 BYTE   Dn3  v100
 BYTE   W12
 BYTE   Ds3  v036
 BYTE   W06
 BYTE   En3  v040
 BYTE   W06
 BYTE   Fn3  v044
 BYTE   W12
 BYTE   Fs3  v052
 BYTE   W06
 BYTE   Gn3  v056
 BYTE   W03
//  #01 //019   ----------------------------------------
 BYTE   W03
 BYTE   Gs3  v060
 BYTE   W12
 BYTE   An3  v068
 BYTE   W06
 BYTE   As3  v072
 BYTE   W06
 BYTE   Bn3  v076
 BYTE   W12
 BYTE   Cn4  v088
 BYTE   W06
 BYTE   Cs4  v092
 BYTE   W06
 BYTE   Cn4  v108
 BYTE   W12
 BYTE   Bn3  v092
 BYTE   W06
 BYTE   As3  v088
 BYTE   W06
 BYTE   An3  v084
 BYTE   W12
 BYTE   Gs3  v076
 BYTE   W06
 BYTE   Gn3  v072
 BYTE   W03
//  #01 //020   ----------------------------------------
 BYTE   W03
 BYTE   Fs3  v068
 BYTE   W12
 BYTE   Fn3  v060
 BYTE   W06
 BYTE   En3  v056
 BYTE   W06
 BYTE   Ds3  v052
 BYTE   W12
 BYTE   Dn3  v044
 BYTE   W06
 BYTE   Cs3  v040
 BYTE   W06
 BYTE   Dn3  v088
 BYTE   W12
 BYTE   Ds3  v056
 BYTE   W06
 BYTE   En3
 BYTE   W06
 BYTE   Fn3  v060
 BYTE   W12
 BYTE   Fs3  v068
 BYTE   W06
 BYTE   Gn3  v072
 BYTE   W03
//  #01 //021   ----------------------------------------
 BYTE   W03
 BYTE   Gs3  v076
 BYTE   W12
 BYTE   An3  v084
 BYTE   W06
 BYTE   As3  v088
 BYTE   W06
 BYTE   Bn3  v092
 BYTE   W12
 BYTE   Cn4  v100
 BYTE   W06
 BYTE   Cs4  v108
 BYTE   W06
 BYTE   Cn4  v116
 BYTE   W06
 BYTE   Bn3  v112
 BYTE   W06
 BYTE   As3  v108
 BYTE   W06
 BYTE   An3  v100
 BYTE   W06
 BYTE   Gs3  v096
 BYTE   W06
 BYTE   Gn3  v092
 BYTE   W06
 BYTE   Fs3  v088
 BYTE   W06
 BYTE   Fn3  v084
 BYTE   W03
//  #01 //022   ----------------------------------------
 BYTE   W03
 BYTE   En3  v080
 BYTE   W06
 BYTE   Ds3  v072
 BYTE   W06
 BYTE   Dn3  v068
 BYTE   W06
 BYTE   Cs3  v064
 BYTE   W06
 BYTE   Cn3  v060
 BYTE   W06
 BYTE   Bn2  v056
 BYTE   W06
 BYTE   As2  v052
 BYTE   W06
 BYTE   An2  v048
 BYTE   W03
 BYTE   GoTo
  POIN2 Label_0103CA10
//  #01 //023   ----------------------------------------
 BYTE   W01
 BYTE   FINE

//**************** Track 2 (Midi-Chn.1) ****************//

FE12ReignofDespairAzula_002:
//  #02 //000   ----------------------------------------
 BYTE   KEYSH   FE12ReignofDespairAzula_key+0
 BYTE   VOICE   61
 BYTE   MODT 0
 BYTE   LFOS 44
 BYTE   PAN   c_v+14
 BYTE   VOL   39*FE12ReignofDespairAzula_mvl/mxv
 BYTE   BEND   c_v+0
 BYTE   W36
 BYTE   W03
 BYTE   VOL   39*FE12ReignofDespairAzula_mvl/mxv
 BYTE   W02
 BYTE   VOL   37*FE12ReignofDespairAzula_mvl/mxv
 BYTE   W01
 BYTE   VOL   35*FE12ReignofDespairAzula_mvl/mxv
 BYTE   W02
 BYTE   VOL   33*FE12ReignofDespairAzula_mvl/mxv
 BYTE   W01
 BYTE   VOL   30*FE12ReignofDespairAzula_mvl/mxv
 BYTE   W02
 BYTE   VOL   29*FE12ReignofDespairAzula_mvl/mxv
 BYTE   W01
 BYTE   VOL   28*FE12ReignofDespairAzula_mvl/mxv
 BYTE   N06  Dn3  v048
 BYTE   W06
 BYTE   Dn3  v068
 BYTE   W04
 BYTE   VOL   28*FE12ReignofDespairAzula_mvl/mxv
 BYTE   W02
 BYTE   N06  Dn3  v020
 BYTE   W06
 BYTE   Dn3  v092
 BYTE   W01
 BYTE   VOL   28*FE12ReignofDespairAzula_mvl/mxv
 BYTE   W05
 BYTE   N06  Dn3  v036
 BYTE   W03
 BYTE   VOL   29*FE12ReignofDespairAzula_mvl/mxv
 BYTE   W03
 BYTE   N06  Dn3  v060
 BYTE   W05
 BYTE   VOL   29*FE12ReignofDespairAzula_mvl/mxv
 BYTE   W01
 BYTE   N06  Dn3  v016
 BYTE   W06
 BYTE   Dn3  v100
 BYTE   W02
 BYTE   VOL   30*FE12ReignofDespairAzula_mvl/mxv
 BYTE   W04
//  #02 //001   ----------------------------------------
 BYTE   N06  Dn3  v044
 BYTE   W04
 BYTE   VOL   30*FE12ReignofDespairAzula_mvl/mxv
 BYTE   W02
 BYTE   N06  Dn3  v064
 BYTE   W06
 BYTE   VOL   31*FE12ReignofDespairAzula_mvl/mxv
 BYTE   N06  Dn3  v016
 BYTE   W06
 BYTE   Dn3  v088
 BYTE   W03
 BYTE   VOL   31*FE12ReignofDespairAzula_mvl/mxv
 BYTE   W03
 BYTE   N06  Dn3  v036
 BYTE   W05
 BYTE   VOL   32*FE12ReignofDespairAzula_mvl/mxv
 BYTE   W01
 BYTE   N06  Dn3  v056
 BYTE   W06
 BYTE   Dn3  v012
 BYTE   W01
 BYTE   VOL   33*FE12ReignofDespairAzula_mvl/mxv
 BYTE   W05
 BYTE   N06  Dn3  v108
 BYTE   W04
 BYTE   VOL   33*FE12ReignofDespairAzula_mvl/mxv
 BYTE   W02
 BYTE   N06  Dn3  v048
 BYTE   W06
 BYTE   VOL   34*FE12ReignofDespairAzula_mvl/mxv
 BYTE   N06  Dn3  v068
 BYTE   W06
 BYTE   Dn3  v020
 BYTE   W02
 BYTE   VOL   34*FE12ReignofDespairAzula_mvl/mxv
 BYTE   W04
 BYTE   N06  Dn3  v092
 BYTE   W05
 BYTE   VOL   35*FE12ReignofDespairAzula_mvl/mxv
 BYTE   W01
 BYTE   N06  Dn3  v036
 BYTE   W06
 BYTE   Dn3  v060
 BYTE   W01
 BYTE   VOL   35*FE12ReignofDespairAzula_mvl/mxv
 BYTE   W05
 BYTE   N06  Dn3  v016
 BYTE   W03
 BYTE   VOL   36*FE12ReignofDespairAzula_mvl/mxv
 BYTE   W03
 BYTE   N06  Dn3  v100
 BYTE   W06
//  #02 //002   ----------------------------------------
 BYTE   VOL   37*FE12ReignofDespairAzula_mvl/mxv
 BYTE   N06  Dn3  v044
 BYTE   W06
 BYTE   Dn3  v064
 BYTE   W02
 BYTE   VOL   37*FE12ReignofDespairAzula_mvl/mxv
 BYTE   W04
 BYTE   N06  Dn3  v016
 BYTE   W04
 BYTE   VOL   37*FE12ReignofDespairAzula_mvl/mxv
 BYTE   W02
 BYTE   N06  Dn3  v088
 BYTE   W06
 BYTE   Dn3  v036
 BYTE   W01
 BYTE   VOL   38*FE12ReignofDespairAzula_mvl/mxv
 BYTE   W05
 BYTE   N06  Dn3  v056
 BYTE   W03
 BYTE   VOL   39*FE12ReignofDespairAzula_mvl/mxv
 BYTE   W03
 BYTE   N06  Dn3  v012
 BYTE   W06
 BYTE   VOL   40*FE12ReignofDespairAzula_mvl/mxv
 BYTE   N06  Dn3  v108
 BYTE   W06
 BYTE   VOL   39*FE12ReignofDespairAzula_mvl/mxv
 BYTE   N06  Dn3  v048
 BYTE   W04
 BYTE   VOL   39*FE12ReignofDespairAzula_mvl/mxv
 BYTE   W02
 BYTE   N06  Dn3  v068
 BYTE   W01
 BYTE   VOL   38*FE12ReignofDespairAzula_mvl/mxv
 BYTE   W04
 BYTE   VOL   37*FE12ReignofDespairAzula_mvl/mxv
 BYTE   W01
 BYTE   N06  Dn3  v020
 BYTE   W02
 BYTE   VOL   37*FE12ReignofDespairAzula_mvl/mxv
 BYTE   W04
 BYTE   VOL   37*FE12ReignofDespairAzula_mvl/mxv
 BYTE   N06  Dn3  v092
 BYTE   W03
 BYTE   VOL   36*FE12ReignofDespairAzula_mvl/mxv
 BYTE   W03
 BYTE   VOL   35*FE12ReignofDespairAzula_mvl/mxv
 BYTE   N06  Dn3  v036
 BYTE   W04
 BYTE   VOL   35*FE12ReignofDespairAzula_mvl/mxv
 BYTE   W02
 BYTE   N06  Dn3  v060
 BYTE   W01
 BYTE   VOL   34*FE12ReignofDespairAzula_mvl/mxv
 BYTE   W04
 BYTE   VOL   34*FE12ReignofDespairAzula_mvl/mxv
 BYTE   W01
 BYTE   N06  Dn3  v016
 BYTE   W02
 BYTE   VOL   33*FE12ReignofDespairAzula_mvl/mxv
 BYTE   W04
 BYTE   VOL   33*FE12ReignofDespairAzula_mvl/mxv
 BYTE   N06  Dn3  v100
 BYTE   W03
 BYTE   VOL   32*FE12ReignofDespairAzula_mvl/mxv
 BYTE   W03
//  #02 //003   ----------------------------------------
 BYTE   VOL   31*FE12ReignofDespairAzula_mvl/mxv
 BYTE   N06  Dn3  v044
 BYTE   W04
 BYTE   VOL   31*FE12ReignofDespairAzula_mvl/mxv
 BYTE   W02
 BYTE   N06  Dn3  v064
 BYTE   W01
 BYTE   VOL   30*FE12ReignofDespairAzula_mvl/mxv
 BYTE   W04
 BYTE   VOL   30*FE12ReignofDespairAzula_mvl/mxv
 BYTE   W01
 BYTE   N06  Dn3  v016
 BYTE   W02
 BYTE   VOL   29*FE12ReignofDespairAzula_mvl/mxv
 BYTE   W04
 BYTE   VOL   29*FE12ReignofDespairAzula_mvl/mxv
 BYTE   N06  Dn3  v088
 BYTE   W03
 BYTE   VOL   28*FE12ReignofDespairAzula_mvl/mxv
 BYTE   W03
 BYTE   VOL   28*FE12ReignofDespairAzula_mvl/mxv
 BYTE   N06  Dn3  v036
 BYTE   W04
 BYTE   VOL   28*FE12ReignofDespairAzula_mvl/mxv
 BYTE   W02
 BYTE   N06  Dn3  v056
 BYTE   W01
 BYTE   VOL   27*FE12ReignofDespairAzula_mvl/mxv
 BYTE   W04
 BYTE   VOL   27*FE12ReignofDespairAzula_mvl/mxv
 BYTE   W01
 BYTE   N06  Dn3  v012
 BYTE   W02
 BYTE   VOL   26*FE12ReignofDespairAzula_mvl/mxv
 BYTE   W04
 BYTE   VOL   25*FE12ReignofDespairAzula_mvl/mxv
 BYTE   N06  Cs3  v108
 BYTE   W03
 BYTE   VOL   26*FE12ReignofDespairAzula_mvl/mxv
 BYTE   W03
 BYTE   VOL   26*FE12ReignofDespairAzula_mvl/mxv
 BYTE   N06  Cs3  v048
 BYTE   W03
 BYTE   VOL   27*FE12ReignofDespairAzula_mvl/mxv
 BYTE   W03
 BYTE   VOL   28*FE12ReignofDespairAzula_mvl/mxv
 BYTE   N06  Cs3  v068
 BYTE   W03
 BYTE   VOL   28*FE12ReignofDespairAzula_mvl/mxv
 BYTE   W03
 BYTE   VOL   28*FE12ReignofDespairAzula_mvl/mxv
 BYTE   N06  Cs3  v020
 BYTE   W03
 BYTE   VOL   29*FE12ReignofDespairAzula_mvl/mxv
 BYTE   W03
 BYTE   VOL   30*FE12ReignofDespairAzula_mvl/mxv
 BYTE   N06  Cs3  v092
 BYTE   W03
 BYTE   VOL   30*FE12ReignofDespairAzula_mvl/mxv
 BYTE   W03
 BYTE   VOL   31*FE12ReignofDespairAzula_mvl/mxv
 BYTE   N06  Cs3  v036
 BYTE   W03
 BYTE   VOL   32*FE12ReignofDespairAzula_mvl/mxv
 BYTE   W03
 BYTE   VOL   33*FE12ReignofDespairAzula_mvl/mxv
 BYTE   N06  Cs3  v060
 BYTE   W03
 BYTE   VOL   34*FE12ReignofDespairAzula_mvl/mxv
 BYTE   W03
 BYTE   VOL   34*FE12ReignofDespairAzula_mvl/mxv
 BYTE   N06  Cs3  v016
 BYTE   W03
 BYTE   VOL   35*FE12ReignofDespairAzula_mvl/mxv
 BYTE   W03
 BYTE   VOL   36*FE12ReignofDespairAzula_mvl/mxv
 BYTE   N06  Cs3  v100
 BYTE   W03
 BYTE   VOL   37*FE12ReignofDespairAzula_mvl/mxv
 BYTE   W03
//  #02 //004   ----------------------------------------
 BYTE   VOL   37*FE12ReignofDespairAzula_mvl/mxv
 BYTE   N06  Cs3  v044
 BYTE   W03
 BYTE   VOL   38*FE12ReignofDespairAzula_mvl/mxv
 BYTE   W03
 BYTE   VOL   39*FE12ReignofDespairAzula_mvl/mxv
 BYTE   N06  Cs3  v064
 BYTE   W03
 BYTE   VOL   39*FE12ReignofDespairAzula_mvl/mxv
 BYTE   W03
 BYTE   VOL   40*FE12ReignofDespairAzula_mvl/mxv
 BYTE   N06  Cs3  v016
 BYTE   W03
 BYTE   VOL   40*FE12ReignofDespairAzula_mvl/mxv
 BYTE   W03
 BYTE   VOL   41*FE12ReignofDespairAzula_mvl/mxv
 BYTE   N06  Cs3  v088
 BYTE   W03
 BYTE   VOL   43*FE12ReignofDespairAzula_mvl/mxv
 BYTE   W03
 BYTE   VOL   43*FE12ReignofDespairAzula_mvl/mxv
 BYTE   N06  Cs3  v036
 BYTE   W03
 BYTE   VOL   44*FE12ReignofDespairAzula_mvl/mxv
 BYTE   W03
 BYTE   VOL   45*FE12ReignofDespairAzula_mvl/mxv
 BYTE   N06  Cs3  v056
 BYTE   W06
 BYTE   Cs3  v012
 BYTE   W06
 BYTE   VOL   20*FE12ReignofDespairAzula_mvl/mxv
 BYTE   W05
 BYTE   VOL   20*FE12ReignofDespairAzula_mvl/mxv
 BYTE   W01
Label_0103D575:
 BYTE   VOL   45*FE12ReignofDespairAzula_mvl/mxv
 BYTE   N12  Dn3  v108
 BYTE   W12
 BYTE   An3  v100
 BYTE   W12
 BYTE   Gn3  v096
 BYTE   W12
 BYTE   Fn3  v092
 BYTE   W12
//  #02 //005   ----------------------------------------
 BYTE   En3  v088
 BYTE   W12
 BYTE   Dn3  v084
 BYTE   W12
 BYTE   Cs3  v080
 BYTE   W12
 BYTE   Dn3  v084
 BYTE   W12
 BYTE   Dn3  v108
 BYTE   W12
 BYTE   An3  v096
 BYTE   W12
 BYTE   Gn3  v092
 BYTE   W12
 BYTE   Fn3  v088
 BYTE   W12
//  #02 //006   ----------------------------------------
 BYTE   En3  v084
 BYTE   W12
 BYTE   Dn3  v080
 BYTE   W12
 BYTE   Cs3
 BYTE   W12
 BYTE   Dn3  v088
 BYTE   W12
 BYTE   En3  v112
 BYTE   W12
 BYTE   Dn3  v088
 BYTE   W12
 BYTE   Gn3  v100
 BYTE   W12
 BYTE   Fn3  v092
 BYTE   W12
//  #02 //007   ----------------------------------------
 BYTE   En3  v084
 BYTE   W12
 BYTE   Dn3  v076
 BYTE   W12
 BYTE   Cn3  v068
 BYTE   W12
 BYTE   As2  v060
 BYTE   W12
 BYTE   VOL   45*FE12ReignofDespairAzula_mvl/mxv
 BYTE   N08  Cn3  v108
 BYTE   W06
 BYTE   Gs2  v056
 BYTE   W06
 BYTE   Cn3  v064
 BYTE   W06
 BYTE   Ds3  v088
 BYTE   W05
 BYTE   VOL   45*FE12ReignofDespairAzula_mvl/mxv
 BYTE   W01
 BYTE   VOL   22*FE12ReignofDespairAzula_mvl/mxv
 BYTE   N08  Cn3  v108
 BYTE   W03
 BYTE   VOL   23*FE12ReignofDespairAzula_mvl/mxv
 BYTE   W03
 BYTE   VOL   25*FE12ReignofDespairAzula_mvl/mxv
 BYTE   N08  Gs2  v056
 BYTE   W03
 BYTE   VOL   26*FE12ReignofDespairAzula_mvl/mxv
 BYTE   W03
 BYTE   VOL   28*FE12ReignofDespairAzula_mvl/mxv
 BYTE   N08  Cn3  v064
 BYTE   W03
 BYTE   VOL   29*FE12ReignofDespairAzula_mvl/mxv
 BYTE   W03
 BYTE   VOL   30*FE12ReignofDespairAzula_mvl/mxv
 BYTE   N08  Ds3  v088
 BYTE   W03
 BYTE   VOL   31*FE12ReignofDespairAzula_mvl/mxv
 BYTE   W03
//  #02 //008   ----------------------------------------
 BYTE   VOL   33*FE12ReignofDespairAzula_mvl/mxv
 BYTE   N08  Cn3  v108
 BYTE   W03
 BYTE   VOL   34*FE12ReignofDespairAzula_mvl/mxv
 BYTE   W03
 BYTE   VOL   36*FE12ReignofDespairAzula_mvl/mxv
 BYTE   N08  Gs2  v056
 BYTE   W03
 BYTE   VOL   37*FE12ReignofDespairAzula_mvl/mxv
 BYTE   W03
 BYTE   VOL   39*FE12ReignofDespairAzula_mvl/mxv
 BYTE   N08  Cn3  v064
 BYTE   W03
 BYTE   VOL   40*FE12ReignofDespairAzula_mvl/mxv
 BYTE   W03
 BYTE   VOL   41*FE12ReignofDespairAzula_mvl/mxv
 BYTE   N08  Ds3  v088
 BYTE   W03
 BYTE   VOL   43*FE12ReignofDespairAzula_mvl/mxv
 BYTE   W03
 BYTE   VOL   45*FE12ReignofDespairAzula_mvl/mxv
 BYTE   N08  Cn3  v108
 BYTE   W06
 BYTE   Gs2  v056
 BYTE   W06
 BYTE   Cn3  v064
 BYTE   W06
 BYTE   Ds3  v088
 BYTE   W06
 BYTE   Bn2  v104
 BYTE   W07
 BYTE   VOL   45*FE12ReignofDespairAzula_mvl/mxv
 BYTE   W01
 BYTE   VOL   43*FE12ReignofDespairAzula_mvl/mxv
 BYTE   W01
 BYTE   VOL   40*FE12ReignofDespairAzula_mvl/mxv
 BYTE   W03
 BYTE   N09  Gs2  v052
 BYTE   W06
 BYTE   An2  v056
 BYTE   W06
 BYTE   N08  As2
 BYTE   W11
 BYTE   VOL   41*FE12ReignofDespairAzula_mvl/mxv
 BYTE   W01
 BYTE   N08
 BYTE   W06
 BYTE   Bn2  v060
 BYTE   W06
//  #02 //009   ----------------------------------------
 BYTE   Cn3
 BYTE   W12
 BYTE   Cn3  v064
 BYTE   W02
 BYTE   VOL   42*FE12ReignofDespairAzula_mvl/mxv
 BYTE   W04
 BYTE   N08  Cs3
 BYTE   W06
 BYTE   Dn3
 BYTE   W12
 BYTE   Dn3  v068
 BYTE   W04
 BYTE   VOL   43*FE12ReignofDespairAzula_mvl/mxv
 BYTE   W02
 BYTE   N08  Ds3
 BYTE   W06
 BYTE   En3  v116
 BYTE   W12
 BYTE   En3  v072
 BYTE   W06
 BYTE   VOL   43*FE12ReignofDespairAzula_mvl/mxv
 BYTE   N08  Fn3
 BYTE   W06
 BYTE   Fs3  v076
 BYTE   W12
 BYTE   N08
 BYTE   W06
 BYTE   Gn3  v080
 BYTE   W02
 BYTE   VOL   44*FE12ReignofDespairAzula_mvl/mxv
 BYTE   W04
//  #02 //010   ----------------------------------------
 BYTE   N08  Gs3
 BYTE   W12
 BYTE   Gs3  v084
 BYTE   W06
 BYTE   An3
 BYTE   W04
 BYTE   VOL   45*FE12ReignofDespairAzula_mvl/mxv
 BYTE   W02
 BYTE   N08  As3
 BYTE   W12
 BYTE   As3  v088
 BYTE   W06
 BYTE   Bn3
 BYTE   W06
 BYTE   VOL   45*FE12ReignofDespairAzula_mvl/mxv
 BYTE   N08  As3  v112
 BYTE   W12
 BYTE   As3  v056
 BYTE   W06
 BYTE   Gs3  v040
 BYTE   W06
 BYTE   As3  v072
 BYTE   W06
 BYTE   Ds4  v100
 BYTE   W06
 BYTE   As3  v056
 BYTE   W06
 BYTE   Gs3  v028
 BYTE   W06
//  #02 //011   ----------------------------------------
 BYTE   As3  v112
 BYTE   W12
 BYTE   As3  v056
 BYTE   W06
 BYTE   Gs3  v040
 BYTE   W06
 BYTE   As3  v072
 BYTE   W06
 BYTE   Ds4  v100
 BYTE   W06
 BYTE   As3  v056
 BYTE   W06
 BYTE   Gs3  v028
 BYTE   W05
 BYTE   VOL   45*FE12ReignofDespairAzula_mvl/mxv
 BYTE   W01
 BYTE   VOL   30*FE12ReignofDespairAzula_mvl/mxv
 BYTE   N08  As3  v124
 BYTE   W07
 BYTE   VOL   30*FE12ReignofDespairAzula_mvl/mxv
 BYTE   W05
 BYTE   N08  As3  v056
 BYTE   W02
 BYTE   VOL   31*FE12ReignofDespairAzula_mvl/mxv
 BYTE   W04
 BYTE   VOL   31*FE12ReignofDespairAzula_mvl/mxv
 BYTE   N08  Gs3  v040
 BYTE   W06
 BYTE   As3  v124
 BYTE   W01
 BYTE   VOL   32*FE12ReignofDespairAzula_mvl/mxv
 BYTE   W03
 BYTE   VOL   33*FE12ReignofDespairAzula_mvl/mxv
 BYTE   W08
 BYTE   VOL   33*FE12ReignofDespairAzula_mvl/mxv
 BYTE   N08  As3  v056
 BYTE   W03
 BYTE   VOL   34*FE12ReignofDespairAzula_mvl/mxv
 BYTE   W03
 BYTE   N08  Gs3  v040
 BYTE   W01
 BYTE   VOL   34*FE12ReignofDespairAzula_mvl/mxv
 BYTE   W03
 BYTE   VOL   35*FE12ReignofDespairAzula_mvl/mxv
 BYTE   W02
//  #02 //012   ----------------------------------------
 BYTE   N08  As3  v124
 BYTE   W02
 BYTE   VOL   35*FE12ReignofDespairAzula_mvl/mxv
 BYTE   W03
 BYTE   VOL   36*FE12ReignofDespairAzula_mvl/mxv
 BYTE   W04
 BYTE   VOL   37*FE12ReignofDespairAzula_mvl/mxv
 BYTE   W03
 BYTE   VOL   37*FE12ReignofDespairAzula_mvl/mxv
 BYTE   N08  As3  v056
 BYTE   W04
 BYTE   VOL   37*FE12ReignofDespairAzula_mvl/mxv
 BYTE   W02
 BYTE   N08  Gs3  v040
 BYTE   W02
 BYTE   VOL   38*FE12ReignofDespairAzula_mvl/mxv
 BYTE   W03
 BYTE   VOL   39*FE12ReignofDespairAzula_mvl/mxv
 BYTE   W01
 BYTE   N08  As3  v124
 BYTE   W03
 BYTE   VOL   39*FE12ReignofDespairAzula_mvl/mxv
 BYTE   W03
 BYTE   VOL   40*FE12ReignofDespairAzula_mvl/mxv
 BYTE   W04
 BYTE   VOL   40*FE12ReignofDespairAzula_mvl/mxv
 BYTE   W02
 BYTE   N08  As3  v056
 BYTE   W01
 BYTE   VOL   42*FE12ReignofDespairAzula_mvl/mxv
 BYTE   W04
 BYTE   VOL   43*FE12ReignofDespairAzula_mvl/mxv
 BYTE   W01
 BYTE   N08  Gs3  v040
 BYTE   W02
 BYTE   VOL   44*FE12ReignofDespairAzula_mvl/mxv
 BYTE   W04
 BYTE   VOL   45*FE12ReignofDespairAzula_mvl/mxv
 BYTE   N08  As3  v120
 BYTE   W06
 BYTE   Gs3  v064
 BYTE   W06
 BYTE   Ds3  v044
 BYTE   W06
 BYTE   Gs3  v060
 BYTE   W06
 BYTE   As3  v104
 BYTE   W12
 BYTE   Gs3  v072
 BYTE   W06
 BYTE   Ds4  v088
 BYTE   W06
//  #02 //013   ----------------------------------------
 BYTE   VOL   30*FE12ReignofDespairAzula_mvl/mxv
 BYTE   N08  As3  v112
 BYTE   W03
 BYTE   VOL   30*FE12ReignofDespairAzula_mvl/mxv
 BYTE   W03
 BYTE   VOL   31*FE12ReignofDespairAzula_mvl/mxv
 BYTE   N08  Ds4  v072
 BYTE   W03
 BYTE   VOL   32*FE12ReignofDespairAzula_mvl/mxv
 BYTE   W03
 BYTE   VOL   33*FE12ReignofDespairAzula_mvl/mxv
 BYTE   N08  As3  v052
 BYTE   W03
 BYTE   VOL   34*FE12ReignofDespairAzula_mvl/mxv
 BYTE   W03
 BYTE   VOL   35*FE12ReignofDespairAzula_mvl/mxv
 BYTE   N08  Ds4  v036
 BYTE   W03
 BYTE   VOL   36*FE12ReignofDespairAzula_mvl/mxv
 BYTE   W03
 BYTE   VOL   37*FE12ReignofDespairAzula_mvl/mxv
 BYTE   N08  As3  v084
 BYTE   W03
 BYTE   VOL   39*FE12ReignofDespairAzula_mvl/mxv
 BYTE   W03
 BYTE   VOL   40*FE12ReignofDespairAzula_mvl/mxv
 BYTE   N08  Ds4  v060
 BYTE   W03
 BYTE   VOL   42*FE12ReignofDespairAzula_mvl/mxv
 BYTE   W03
 BYTE   VOL   45*FE12ReignofDespairAzula_mvl/mxv
 BYTE   N08  As3  v124
 BYTE   W06
 BYTE   Ds4  v080
 BYTE   W06
 BYTE   En4  v108
 BYTE   W12
 BYTE   Dn4  v072
 BYTE   W06
 BYTE   Cn4  v056
 BYTE   W06
 BYTE   Dn4  v104
 BYTE   W12
 BYTE   Cn4  v076
 BYTE   W06
 BYTE   Bn3  v056
 BYTE   W06
//  #02 //014   ----------------------------------------
 BYTE   Cn4  v108
 BYTE   W12
 BYTE   Bn3  v080
 BYTE   W06
 BYTE   An3  v060
 BYTE   W06
 BYTE   Bn3  v108
 BYTE   W12
 BYTE   An3  v076
 BYTE   W06
 BYTE   Gn3  v056
 BYTE   W06
 BYTE   An3  v108
 BYTE   W12
 BYTE   Gn3  v072
 BYTE   W06
 BYTE   Fn3  v048
 BYTE   W06
 BYTE   Gn3  v108
 BYTE   W12
 BYTE   Fn3  v076
 BYTE   W06
 BYTE   En3  v056
 BYTE   W06
//  #02 //015   ----------------------------------------
 BYTE   Fn3  v108
 BYTE   W12
 BYTE   En3  v072
 BYTE   W06
 BYTE   Dn3  v052
 BYTE   W06
 BYTE   En3  v112
 BYTE   W12
 BYTE   Dn3  v072
 BYTE   W06
 BYTE   N04  Cn3  v052
 BYTE   W06
 BYTE   Cn3  v112
 BYTE   W12
 BYTE   An2  v056
 BYTE   W06
 BYTE   Bn2  v072
 BYTE   W06
 BYTE   Dn3  v092
 BYTE   W12
 BYTE   Bn2  v072
 BYTE   W06
 BYTE   An2  v052
 BYTE   W06
//  #02 //016   ----------------------------------------
 BYTE   Bn2  v108
 BYTE   W12
 BYTE   Cn3  v048
 BYTE   W06
 BYTE   Dn3  v056
 BYTE   W06
 BYTE   En3  v064
 BYTE   W06
 BYTE   Fn3  v076
 BYTE   W06
 BYTE   Fs3  v084
 BYTE   W06
 BYTE   Gn3  v092
 BYTE   W06
 BYTE   An3  v104
 BYTE   W12
 BYTE   Gn3  v072
 BYTE   W06
 BYTE   Fn3  v056
 BYTE   W06
 BYTE   Gn3  v088
 BYTE   W12
 BYTE   Dn4  v068
 BYTE   W06
 BYTE   Cs4  v048
 BYTE   W06
//  #02 //017   ----------------------------------------
 BYTE   Dn4  v108
 BYTE   W12
 BYTE   An3  v064
 BYTE   W06
 BYTE   Gn3  v048
 BYTE   W06
 BYTE   An3  v104
 BYTE   W12
 BYTE   Fn3  v056
 BYTE   W12
 BYTE   En3  v108
 BYTE   W12
 BYTE   Dn3  v048
 BYTE   W06
 BYTE   En3  v064
 BYTE   W06
 BYTE   Gn3  v096
 BYTE   W12
 BYTE   Fn3  v048
 BYTE   W06
 BYTE   Gn3  v072
 BYTE   W06
//  #02 //018   ----------------------------------------
 BYTE   En3  v104
 BYTE   W12
 BYTE   An3  v060
 BYTE   W06
 BYTE   En3  v044
 BYTE   W06
 BYTE   Gn3  v104
 BYTE   W12
 BYTE   Fn3  v044
 BYTE   W06
 BYTE   En3  v060
 BYTE   W06
 BYTE   Dn3  v100
 BYTE   W12
 BYTE   Ds3  v036
 BYTE   W06
 BYTE   En3  v040
 BYTE   W06
 BYTE   Fn3  v044
 BYTE   W12
 BYTE   Fs3  v052
 BYTE   W06
 BYTE   Gn3  v056
 BYTE   W06
//  #02 //019   ----------------------------------------
 BYTE   Gs3  v060
 BYTE   W12
 BYTE   An3  v068
 BYTE   W06
 BYTE   As3  v072
 BYTE   W06
 BYTE   Bn3  v076
 BYTE   W12
 BYTE   Cn4  v088
 BYTE   W06
 BYTE   Cs4  v092
 BYTE   W06
 BYTE   Cn4  v108
 BYTE   W12
 BYTE   Bn3  v092
 BYTE   W06
 BYTE   As3  v088
 BYTE   W06
 BYTE   An3  v084
 BYTE   W12
 BYTE   Gs3  v076
 BYTE   W06
 BYTE   Gn3  v072
 BYTE   W06
//  #02 //020   ----------------------------------------
 BYTE   Fs3  v068
 BYTE   W12
 BYTE   Fn3  v060
 BYTE   W06
 BYTE   En3  v056
 BYTE   W06
 BYTE   Ds3  v052
 BYTE   W12
 BYTE   Dn3  v044
 BYTE   W06
 BYTE   Cs3  v040
 BYTE   W06
 BYTE   Dn3  v088
 BYTE   W12
 BYTE   Ds3  v056
 BYTE   W06
 BYTE   En3
 BYTE   W06
 BYTE   Fn3  v060
 BYTE   W12
 BYTE   Fs3  v068
 BYTE   W06
 BYTE   Gn3  v072
 BYTE   W06
//  #02 //021   ----------------------------------------
 BYTE   Gs3  v076
 BYTE   W12
 BYTE   An3  v084
 BYTE   W06
 BYTE   As3  v088
 BYTE   W06
 BYTE   Bn3  v092
 BYTE   W12
 BYTE   Cn4  v100
 BYTE   W06
 BYTE   Cs4  v108
 BYTE   W06
 BYTE   Cn4  v116
 BYTE   W06
 BYTE   Bn3  v112
 BYTE   W06
 BYTE   As3  v108
 BYTE   W06
 BYTE   An3  v100
 BYTE   W06
 BYTE   Gs3  v096
 BYTE   W06
 BYTE   Gn3  v092
 BYTE   W06
 BYTE   Fs3  v088
 BYTE   W06
 BYTE   Fn3  v084
 BYTE   W06
//  #02 //022   ----------------------------------------
 BYTE   En3  v080
 BYTE   W06
 BYTE   Ds3  v072
 BYTE   W06
 BYTE   Dn3  v068
 BYTE   W06
 BYTE   Cs3  v064
 BYTE   W06
 BYTE   Cn3  v060
 BYTE   W06
 BYTE   Bn2  v056
 BYTE   W06
 BYTE   As2  v052
 BYTE   W06
 BYTE   An2  v048
 BYTE   W04
 BYTE   VOL   45*FE12ReignofDespairAzula_mvl/mxv
 BYTE   W02
 BYTE   GoTo
  POIN2 Label_0103D575
//  #02 //023   ----------------------------------------
 BYTE   W01
 BYTE   FINE

//**************** Track 3 (Midi-Chn.2) ****************//

FE12ReignofDespairAzula_003:
//  #03 //000   ----------------------------------------
 BYTE   KEYSH   FE12ReignofDespairAzula_key+0
 BYTE   VOICE   48
 BYTE   MODT 0
 BYTE   LFOS 44
 BYTE   PAN   c_v+0
 BYTE   VOL   38*FE12ReignofDespairAzula_mvl/mxv
 BYTE   BEND   c_v+0
 BYTE   W44
 BYTE   W01
 BYTE   VOL   38*FE12ReignofDespairAzula_mvl/mxv
 BYTE   W01
 BYTE   VOL   38*FE12ReignofDespairAzula_mvl/mxv
 BYTE   W02
 BYTE   N06  Fn3  v108
 BYTE   W06
 BYTE   VOL   38*FE12ReignofDespairAzula_mvl/mxv
 BYTE   N06  Fn3  v048
 BYTE   W01
 BYTE   VOL   35*FE12ReignofDespairAzula_mvl/mxv
 BYTE   W01
 BYTE   VOL   33*FE12ReignofDespairAzula_mvl/mxv
 BYTE   W01
 BYTE   VOL   28*FE12ReignofDespairAzula_mvl/mxv
 BYTE   W03
 BYTE   N06  Fn3  v068
 BYTE   W06
 BYTE   Fn3  v020
 BYTE   W06
 BYTE   Fn3  v092
 BYTE   W03
 BYTE   VOL   28*FE12ReignofDespairAzula_mvl/mxv
 BYTE   W03
 BYTE   N06  Fn3  v036
 BYTE   W06
 BYTE   VOL   29*FE12ReignofDespairAzula_mvl/mxv
 BYTE   N06  Fn3  v060
 BYTE   W06
 BYTE   Fn3  v016
 BYTE   W04
 BYTE   VOL   30*FE12ReignofDespairAzula_mvl/mxv
 BYTE   W02
//  #03 //001   ----------------------------------------
 BYTE   N06  Fn3  v100
 BYTE   W06
 BYTE   Fn3  v044
 BYTE   W01
 BYTE   VOL   30*FE12ReignofDespairAzula_mvl/mxv
 BYTE   W05
 BYTE   N06  Fn3  v064
 BYTE   W04
 BYTE   VOL   30*FE12ReignofDespairAzula_mvl/mxv
 BYTE   W02
 BYTE   N06  Fn3  v016
 BYTE   W06
 BYTE   Fn3  v088
 BYTE   W01
 BYTE   VOL   30*FE12ReignofDespairAzula_mvl/mxv
 BYTE   W05
 BYTE   N06  Fn3  v036
 BYTE   W04
 BYTE   VOL   31*FE12ReignofDespairAzula_mvl/mxv
 BYTE   W02
 BYTE   N06  Fn3  v056
 BYTE   W06
 BYTE   Fn3  v012
 BYTE   W01
 BYTE   VOL   32*FE12ReignofDespairAzula_mvl/mxv
 BYTE   W05
 BYTE   N06  Gn3  v108
 BYTE   W04
 BYTE   VOL   32*FE12ReignofDespairAzula_mvl/mxv
 BYTE   W02
 BYTE   N06  Gn3  v048
 BYTE   W06
 BYTE   Gn3  v068
 BYTE   W01
 BYTE   VOL   33*FE12ReignofDespairAzula_mvl/mxv
 BYTE   W05
 BYTE   N06  Gn3  v020
 BYTE   W05
 BYTE   VOL   34*FE12ReignofDespairAzula_mvl/mxv
 BYTE   W01
 BYTE   N06  Gn3  v092
 BYTE   W06
 BYTE   Gn3  v036
 BYTE   W02
 BYTE   VOL   34*FE12ReignofDespairAzula_mvl/mxv
 BYTE   W04
 BYTE   N06  Gn3  v060
 BYTE   W05
 BYTE   VOL   34*FE12ReignofDespairAzula_mvl/mxv
 BYTE   W01
 BYTE   N06  Gn3  v016
 BYTE   W06
//  #03 //002   ----------------------------------------
 BYTE   Gn3  v100
 BYTE   W02
 BYTE   VOL   35*FE12ReignofDespairAzula_mvl/mxv
 BYTE   W04
 BYTE   N06  Gn3  v044
 BYTE   W05
 BYTE   VOL   35*FE12ReignofDespairAzula_mvl/mxv
 BYTE   W01
 BYTE   N06  Gn3  v064
 BYTE   W06
 BYTE   Gn3  v016
 BYTE   W02
 BYTE   VOL   36*FE12ReignofDespairAzula_mvl/mxv
 BYTE   W04
 BYTE   N06  Gn3  v088
 BYTE   W05
 BYTE   VOL   37*FE12ReignofDespairAzula_mvl/mxv
 BYTE   W01
 BYTE   N06  Gn3  v036
 BYTE   W06
 BYTE   Gn3  v056
 BYTE   W02
 BYTE   VOL   37*FE12ReignofDespairAzula_mvl/mxv
 BYTE   W04
 BYTE   N06  Gn3  v012
 BYTE   W06
 BYTE   VOL   38*FE12ReignofDespairAzula_mvl/mxv
 BYTE   N06  En3  v108
 BYTE   W06
 BYTE   En3  v048
 BYTE   W02
 BYTE   VOL   37*FE12ReignofDespairAzula_mvl/mxv
 BYTE   W04
 BYTE   N06  En3  v068
 BYTE   W01
 BYTE   VOL   37*FE12ReignofDespairAzula_mvl/mxv
 BYTE   W04
 BYTE   VOL   37*FE12ReignofDespairAzula_mvl/mxv
 BYTE   W01
 BYTE   N06  En3  v020
 BYTE   W03
 BYTE   VOL   36*FE12ReignofDespairAzula_mvl/mxv
 BYTE   W03
 BYTE   N06  En3  v092
 BYTE   W02
 BYTE   VOL   35*FE12ReignofDespairAzula_mvl/mxv
 BYTE   W04
 BYTE   VOL   35*FE12ReignofDespairAzula_mvl/mxv
 BYTE   N06  En3  v036
 BYTE   W04
 BYTE   VOL   34*FE12ReignofDespairAzula_mvl/mxv
 BYTE   W02
 BYTE   N06  En3  v060
 BYTE   W03
 BYTE   VOL   34*FE12ReignofDespairAzula_mvl/mxv
 BYTE   W03
 BYTE   N06  En3  v016
 BYTE   W01
 BYTE   VOL   34*FE12ReignofDespairAzula_mvl/mxv
 BYTE   W05
//  #03 //003   ----------------------------------------
 BYTE   VOL   33*FE12ReignofDespairAzula_mvl/mxv
 BYTE   N06  En3  v100
 BYTE   W04
 BYTE   VOL   32*FE12ReignofDespairAzula_mvl/mxv
 BYTE   W02
 BYTE   N06  En3  v044
 BYTE   W02
 BYTE   VOL   32*FE12ReignofDespairAzula_mvl/mxv
 BYTE   W04
 BYTE   N06  En3  v064
 BYTE   W01
 BYTE   VOL   31*FE12ReignofDespairAzula_mvl/mxv
 BYTE   W04
 BYTE   VOL   30*FE12ReignofDespairAzula_mvl/mxv
 BYTE   W01
 BYTE   N06  En3  v016
 BYTE   W03
 BYTE   VOL   30*FE12ReignofDespairAzula_mvl/mxv
 BYTE   W03
 BYTE   N06  En3  v088
 BYTE   W02
 BYTE   VOL   30*FE12ReignofDespairAzula_mvl/mxv
 BYTE   W04
 BYTE   VOL   30*FE12ReignofDespairAzula_mvl/mxv
 BYTE   N06  En3  v036
 BYTE   W04
 BYTE   VOL   29*FE12ReignofDespairAzula_mvl/mxv
 BYTE   W02
 BYTE   N06  En3  v056
 BYTE   W03
 BYTE   VOL   28*FE12ReignofDespairAzula_mvl/mxv
 BYTE   W03
 BYTE   N06  En3  v012
 BYTE   W01
 BYTE   VOL   28*FE12ReignofDespairAzula_mvl/mxv
 BYTE   W05
 BYTE   VOL   27*FE12ReignofDespairAzula_mvl/mxv
 BYTE   N06  En3  v108
 BYTE   W06
 BYTE   VOL   28*FE12ReignofDespairAzula_mvl/mxv
 BYTE   N06  En3  v048
 BYTE   W03
 BYTE   VOL   28*FE12ReignofDespairAzula_mvl/mxv
 BYTE   W03
 BYTE   N06  En3  v068
 BYTE   W01
 BYTE   VOL   28*FE12ReignofDespairAzula_mvl/mxv
 BYTE   W03
 BYTE   VOL   29*FE12ReignofDespairAzula_mvl/mxv
 BYTE   W02
 BYTE   N06  En3  v020
 BYTE   W01
 BYTE   VOL   30*FE12ReignofDespairAzula_mvl/mxv
 BYTE   W04
 BYTE   VOL   30*FE12ReignofDespairAzula_mvl/mxv
 BYTE   W01
 BYTE   N06  En3  v092
 BYTE   W02
 BYTE   VOL   30*FE12ReignofDespairAzula_mvl/mxv
 BYTE   W03
 BYTE   VOL   30*FE12ReignofDespairAzula_mvl/mxv
 BYTE   W01
 BYTE   N06  En3  v036
 BYTE   W03
 BYTE   VOL   31*FE12ReignofDespairAzula_mvl/mxv
 BYTE   W03
 BYTE   VOL   32*FE12ReignofDespairAzula_mvl/mxv
 BYTE   N06  En3  v060
 BYTE   W03
 BYTE   VOL   32*FE12ReignofDespairAzula_mvl/mxv
 BYTE   W03
 BYTE   N06  En3  v016
 BYTE   W01
 BYTE   VOL   33*FE12ReignofDespairAzula_mvl/mxv
 BYTE   W03
 BYTE   VOL   34*FE12ReignofDespairAzula_mvl/mxv
 BYTE   W02
//  #03 //004   ----------------------------------------
 BYTE   N06  En3  v100
 BYTE   W01
 BYTE   VOL   34*FE12ReignofDespairAzula_mvl/mxv
 BYTE   W03
 BYTE   VOL   34*FE12ReignofDespairAzula_mvl/mxv
 BYTE   W02
 BYTE   N06  En3  v044
 BYTE   W02
 BYTE   VOL   35*FE12ReignofDespairAzula_mvl/mxv
 BYTE   W03
 BYTE   VOL   35*FE12ReignofDespairAzula_mvl/mxv
 BYTE   W01
 BYTE   N06  En3  v064
 BYTE   W02
 BYTE   VOL   36*FE12ReignofDespairAzula_mvl/mxv
 BYTE   W04
 BYTE   VOL   37*FE12ReignofDespairAzula_mvl/mxv
 BYTE   N06  En3  v016
 BYTE   W03
 BYTE   VOL   37*FE12ReignofDespairAzula_mvl/mxv
 BYTE   W03
 BYTE   VOL   38*FE12ReignofDespairAzula_mvl/mxv
 BYTE   N06  En3  v088
 BYTE   W06
 BYTE   En3  v036
 BYTE   W06
 BYTE   En3  v056
 BYTE   W06
 BYTE   En3  v012
 BYTE   W06
Label_0103BD25:
 BYTE   N06  An3  v108
 BYTE   W06
 BYTE   An3  v044
 BYTE   W06
 BYTE   An3  v068
 BYTE   W06
 BYTE   An3  v016
 BYTE   W06
 BYTE   An3  v048
 BYTE   W06
 BYTE   An3  v008
 BYTE   W06
 BYTE   An3  v108
 BYTE   W06
 BYTE   An3  v044
 BYTE   W06
//  #03 //005   ----------------------------------------
 BYTE   An3  v064
 BYTE   W06
 BYTE   An3  v016
 BYTE   W06
 BYTE   An3  v048
 BYTE   W06
 BYTE   An3  v008
 BYTE   W06
 BYTE   An3  v104
 BYTE   W06
 BYTE   An3  v040
 BYTE   W06
 BYTE   An3  v048
 BYTE   W06
 BYTE   An3  v008
 BYTE   W06
 BYTE   As3  v108
 BYTE   W06
 BYTE   As3  v044
 BYTE   W06
 BYTE   As3  v068
 BYTE   W06
 BYTE   As3  v016
 BYTE   W06
 BYTE   As3  v048
 BYTE   W06
 BYTE   As3  v008
 BYTE   W06
 BYTE   As3  v108
 BYTE   W06
 BYTE   As3  v044
 BYTE   W06
//  #03 //006   ----------------------------------------
 BYTE   As3  v064
 BYTE   W06
 BYTE   As3  v016
 BYTE   W06
 BYTE   As3  v048
 BYTE   W06
 BYTE   As3  v008
 BYTE   W06
 BYTE   As3  v104
 BYTE   W06
 BYTE   As3  v040
 BYTE   W06
 BYTE   As3  v048
 BYTE   W06
 BYTE   As3  v008
 BYTE   W06
 BYTE   As3  v108
 BYTE   W06
 BYTE   As3  v044
 BYTE   W06
 BYTE   As3  v068
 BYTE   W06
 BYTE   As3  v016
 BYTE   W06
 BYTE   As3  v048
 BYTE   W06
 BYTE   As3  v008
 BYTE   W06
 BYTE   As3  v108
 BYTE   W06
 BYTE   As3  v044
 BYTE   W06
//  #03 //007   ----------------------------------------
 BYTE   As3  v064
 BYTE   W06
 BYTE   As3  v016
 BYTE   W06
 BYTE   As3  v048
 BYTE   W06
 BYTE   As3  v008
 BYTE   W06
 BYTE   As3  v104
 BYTE   W06
 BYTE   As3  v040
 BYTE   W06
 BYTE   As3  v048
 BYTE   W06
 BYTE   As3  v008
 BYTE   W06
 BYTE   Cn4  v108
 BYTE   W06
 BYTE   Cn4  v044
 BYTE   W06
 BYTE   Cn4  v068
 BYTE   W06
 BYTE   Cn4  v016
 BYTE   W06
 BYTE   Cn4  v048
 BYTE   W06
 BYTE   Cn4  v008
 BYTE   W06
 BYTE   Cn4  v108
 BYTE   W06
 BYTE   Cn4  v044
 BYTE   W06
//  #03 //008   ----------------------------------------
 BYTE   Cn4  v064
 BYTE   W06
 BYTE   Cn4  v016
 BYTE   W06
 BYTE   Cn4  v048
 BYTE   W06
 BYTE   Cn4  v008
 BYTE   W06
 BYTE   Cn4  v104
 BYTE   W06
 BYTE   Cn4  v040
 BYTE   W06
 BYTE   Cn4  v048
 BYTE   W06
 BYTE   Cn4  v008
 BYTE   W06
 BYTE   Bn3  v108
 BYTE   W06
 BYTE   Bn3  v044
 BYTE   W06
 BYTE   Bn3  v068
 BYTE   W06
 BYTE   Bn3  v016
 BYTE   W06
 BYTE   Bn3  v048
 BYTE   W06
 BYTE   Bn3  v008
 BYTE   W06
 BYTE   Bn3  v108
 BYTE   W06
 BYTE   Bn3  v044
 BYTE   W06
//  #03 //009   ----------------------------------------
Label_0103BDFE:
 BYTE   N06  Bn3  v064
 BYTE   W06
 BYTE   Bn3  v016
 BYTE   W06
 BYTE   Bn3  v048
 BYTE   W06
 BYTE   Bn3  v008
 BYTE   W06
 BYTE   Bn3  v104
 BYTE   W06
 BYTE   Bn3  v040
 BYTE   W06
 BYTE   Bn3  v048
 BYTE   W06
 BYTE   Bn3  v008
 BYTE   W06
 BYTE   Gs3  v108
 BYTE   W06
 BYTE   Gs3  v044
 BYTE   W06
 BYTE   Gs3  v068
 BYTE   W06
 BYTE   Gs3  v016
 BYTE   W06
 BYTE   Gs3  v048
 BYTE   W06
 BYTE   Gs3  v008
 BYTE   W06
 BYTE   Gs3  v108
 BYTE   W06
 BYTE   Gs3  v044
 BYTE   W06
 BYTE   PEND 
//  #03 //010   ----------------------------------------
Label_0103BE30:
 BYTE   N06  Gs3  v064
 BYTE   W06
 BYTE   Gs3  v016
 BYTE   W06
 BYTE   Gs3  v048
 BYTE   W06
 BYTE   Gs3  v008
 BYTE   W06
 BYTE   Gs3  v104
 BYTE   W06
 BYTE   Gs3  v040
 BYTE   W06
 BYTE   Gs3  v048
 BYTE   W06
 BYTE   Gs3  v008
 BYTE   W06
 BYTE   Bn3  v108
 BYTE   W06
 BYTE   Bn3  v044
 BYTE   W06
 BYTE   Bn3  v068
 BYTE   W06
 BYTE   Bn3  v016
 BYTE   W06
 BYTE   Bn3  v048
 BYTE   W06
 BYTE   Bn3  v008
 BYTE   W06
 BYTE   Bn3  v108
 BYTE   W06
 BYTE   Bn3  v044
 BYTE   W06
 BYTE   PEND 
//  #03 //011   ----------------------------------------
 BYTE   PATT
  POIN2 Label_0103BDFE
//  #03 //012   ----------------------------------------
 BYTE   PATT
  POIN2 Label_0103BE30
//  #03 //013   ----------------------------------------
 BYTE   N06  Bn3  v064
 BYTE   W06
 BYTE   Bn3  v016
 BYTE   W06
 BYTE   Bn3  v048
 BYTE   W06
 BYTE   Bn3  v008
 BYTE   W06
 BYTE   Bn3  v104
 BYTE   W06
 BYTE   Bn3  v040
 BYTE   W06
 BYTE   Bn3  v048
 BYTE   W06
 BYTE   Bn3  v008
 BYTE   W06
 BYTE   Cn4  v108
 BYTE   W06
 BYTE   Cn4  v044
 BYTE   W06
 BYTE   Cn4  v068
 BYTE   W06
 BYTE   Cn4  v016
 BYTE   W06
 BYTE   Cn4  v048
 BYTE   W06
 BYTE   Cn4  v008
 BYTE   W06
 BYTE   Cn4  v108
 BYTE   W06
 BYTE   Cn4  v044
 BYTE   W06
//  #03 //014   ----------------------------------------
Label_0103BE9D:
 BYTE   N06  Cn4  v064
 BYTE   W06
 BYTE   Cn4  v016
 BYTE   W06
 BYTE   Cn4  v048
 BYTE   W06
 BYTE   Cn4  v008
 BYTE   W06
 BYTE   Cn4  v104
 BYTE   W06
 BYTE   Cn4  v040
 BYTE   W06
 BYTE   Cn4  v048
 BYTE   W06
 BYTE   Cn4  v008
 BYTE   W06
 BYTE   An3  v108
 BYTE   W06
 BYTE   An3  v044
 BYTE   W06
 BYTE   An3  v068
 BYTE   W06
 BYTE   An3  v016
 BYTE   W06
 BYTE   An3  v048
 BYTE   W06
 BYTE   An3  v008
 BYTE   W06
 BYTE   An3  v108
 BYTE   W06
 BYTE   An3  v044
 BYTE   W06
 BYTE   PEND 
//  #03 //015   ----------------------------------------
Label_0103BECF:
 BYTE   N06  An3  v064
 BYTE   W06
 BYTE   An3  v016
 BYTE   W06
 BYTE   An3  v048
 BYTE   W06
 BYTE   An3  v008
 BYTE   W06
 BYTE   An3  v104
 BYTE   W06
 BYTE   An3  v040
 BYTE   W06
 BYTE   An3  v048
 BYTE   W06
 BYTE   An3  v008
 BYTE   W06
 BYTE   Cn4  v108
 BYTE   W06
 BYTE   Cn4  v044
 BYTE   W06
 BYTE   Cn4  v068
 BYTE   W06
 BYTE   Cn4  v016
 BYTE   W06
 BYTE   Cn4  v048
 BYTE   W06
 BYTE   Cn4  v008
 BYTE   W06
 BYTE   Cn4  v108
 BYTE   W06
 BYTE   Cn4  v044
 BYTE   W06
 BYTE   PEND 
//  #03 //016   ----------------------------------------
 BYTE   PATT
  POIN2 Label_0103BE9D
//  #03 //017   ----------------------------------------
 BYTE   PATT
  POIN2 Label_0103BECF
//  #03 //018   ----------------------------------------
 BYTE   N06  Cn4  v064
 BYTE   W06
 BYTE   Cn4  v016
 BYTE   W06
 BYTE   Cn4  v048
 BYTE   W06
 BYTE   Cn4  v008
 BYTE   W06
 BYTE   Cn4  v104
 BYTE   W06
 BYTE   Cn4  v040
 BYTE   W06
 BYTE   Cn4  v048
 BYTE   W06
 BYTE   Cn4  v008
 BYTE   W06
 BYTE   Dn4  v108
 BYTE   W06
 BYTE   Dn4  v044
 BYTE   W06
 BYTE   Dn4  v068
 BYTE   W06
 BYTE   Dn4  v016
 BYTE   W06
 BYTE   Dn4  v048
 BYTE   W06
 BYTE   Dn4  v008
 BYTE   W06
 BYTE   Dn4  v108
 BYTE   W06
 BYTE   Dn4  v044
 BYTE   W06
//  #03 //019   ----------------------------------------
Label_0103BF3C:
 BYTE   N06  Dn4  v064
 BYTE   W06
 BYTE   Dn4  v016
 BYTE   W06
 BYTE   Dn4  v048
 BYTE   W06
 BYTE   Dn4  v008
 BYTE   W06
 BYTE   Dn4  v104
 BYTE   W06
 BYTE   Dn4  v040
 BYTE   W06
 BYTE   Dn4  v048
 BYTE   W06
 BYTE   Dn4  v008
 BYTE   W06
 BYTE   Dn4  v108
 BYTE   W06
 BYTE   Dn4  v044
 BYTE   W06
 BYTE   Dn4  v068
 BYTE   W06
 BYTE   Dn4  v016
 BYTE   W06
 BYTE   Dn4  v048
 BYTE   W06
 BYTE   Dn4  v008
 BYTE   W06
 BYTE   Dn4  v108
 BYTE   W06
 BYTE   Dn4  v044
 BYTE   W06
 BYTE   PEND 
//  #03 //020   ----------------------------------------
 BYTE   PATT
  POIN2 Label_0103BF3C
//  #03 //021   ----------------------------------------
 BYTE   N06  Dn4  v064
 BYTE   W06
 BYTE   Dn4  v016
 BYTE   W06
 BYTE   Dn4  v048
 BYTE   W06
 BYTE   Dn4  v008
 BYTE   W06
 BYTE   Dn4  v104
 BYTE   W06
 BYTE   Dn4  v040
 BYTE   W06
 BYTE   Dn4  v048
 BYTE   W06
 BYTE   Dn4  v008
 BYTE   W06
 BYTE   Cs4  v108
 BYTE   W06
 BYTE   Cs4  v044
 BYTE   W06
 BYTE   Cs4  v068
 BYTE   W06
 BYTE   Cs4  v016
 BYTE   W06
 BYTE   Cs4  v048
 BYTE   W06
 BYTE   Cs4  v008
 BYTE   W06
 BYTE   Cs4  v108
 BYTE   W06
 BYTE   Cs4  v044
 BYTE   W06
//  #03 //022   ----------------------------------------
 BYTE   Cs4  v064
 BYTE   W06
 BYTE   Cs4  v016
 BYTE   W06
 BYTE   Cs4  v048
 BYTE   W06
 BYTE   Cs4  v008
 BYTE   W06
 BYTE   Cs4  v104
 BYTE   W06
 BYTE   Cs4  v040
 BYTE   W06
 BYTE   Cs4  v048
 BYTE   W06
 BYTE   Cs4  v008
 BYTE   W06
 BYTE   GoTo
  POIN2 Label_0103BD25
//  #03 //023   ----------------------------------------
 BYTE   W01
 BYTE   FINE

//**************** Track 4 (Midi-Chn.3) ****************//

FE12ReignofDespairAzula_004:
//  #04 //000   ----------------------------------------
 BYTE   KEYSH   FE12ReignofDespairAzula_key+0
 BYTE   VOICE   40
 BYTE   MODT 0
 BYTE   LFOS 44
 BYTE   VOL   45*FE12ReignofDespairAzula_mvl/mxv
 BYTE   PAN   c_v+0
 BYTE   W36
 BYTE   N06  An2  v127
 BYTE   W12
 BYTE   N96  Dn3  v088
 BYTE   W48
//  #04 //001   ----------------------------------------
 BYTE   W48
 BYTE   As2
 BYTE   W48
//  #04 //002   ----------------------------------------
 BYTE   W48
 BYTE   TIE  An2
 BYTE   W48
//  #04 //003   ----------------------------------------
 BYTE   W96
//  #04 //004   ----------------------------------------
 BYTE   W48
 BYTE   EOT
Label_0103CD8F:
 BYTE   N06  Fn3  v108
 BYTE   W06
 BYTE   Fn3  v048
 BYTE   W06
 BYTE   Fn3  v068
 BYTE   W06
 BYTE   Fn3  v020
 BYTE   W06
 BYTE   Fn3  v048
 BYTE   W06
 BYTE   Fn3  v012
 BYTE   W06
 BYTE   Fn3  v108
 BYTE   W06
 BYTE   Fn3  v048
 BYTE   W06
//  #04 //005   ----------------------------------------
 BYTE   Fn3  v064
 BYTE   W06
 BYTE   Fn3  v020
 BYTE   W06
 BYTE   Fn3  v048
 BYTE   W06
 BYTE   Fn3  v008
 BYTE   W06
 BYTE   Fn3  v104
 BYTE   W06
 BYTE   Fn3  v048
 BYTE   W06
 BYTE   N06
 BYTE   W06
 BYTE   Fn3  v012
 BYTE   W06
 BYTE   Dn3  v108
 BYTE   W06
 BYTE   Dn3  v048
 BYTE   W06
 BYTE   Dn3  v068
 BYTE   W06
 BYTE   Dn3  v020
 BYTE   W06
 BYTE   Dn3  v048
 BYTE   W06
 BYTE   Dn3  v012
 BYTE   W06
 BYTE   Dn3  v108
 BYTE   W06
 BYTE   Dn3  v048
 BYTE   W06
//  #04 //006   ----------------------------------------
 BYTE   Dn3  v064
 BYTE   W06
 BYTE   Dn3  v020
 BYTE   W06
 BYTE   Dn3  v048
 BYTE   W06
 BYTE   Dn3  v008
 BYTE   W06
 BYTE   Dn3  v104
 BYTE   W06
 BYTE   Dn3  v048
 BYTE   W06
 BYTE   N06
 BYTE   W06
 BYTE   Dn3  v012
 BYTE   W06
 BYTE   Dn3  v108
 BYTE   W06
 BYTE   Dn3  v048
 BYTE   W06
 BYTE   Dn3  v068
 BYTE   W06
 BYTE   Dn3  v020
 BYTE   W06
 BYTE   Dn3  v048
 BYTE   W06
 BYTE   Dn3  v012
 BYTE   W06
 BYTE   Dn3  v108
 BYTE   W06
 BYTE   Dn3  v048
 BYTE   W06
//  #04 //007   ----------------------------------------
 BYTE   Dn3  v064
 BYTE   W06
 BYTE   Dn3  v020
 BYTE   W06
 BYTE   Dn3  v048
 BYTE   W06
 BYTE   Dn3  v008
 BYTE   W06
 BYTE   Dn3  v104
 BYTE   W06
 BYTE   Dn3  v048
 BYTE   W06
 BYTE   N06
 BYTE   W06
 BYTE   Dn3  v012
 BYTE   W06
 BYTE   Ds3  v108
 BYTE   W06
 BYTE   Ds3  v048
 BYTE   W06
 BYTE   Ds3  v068
 BYTE   W06
 BYTE   Ds3  v020
 BYTE   W06
 BYTE   Ds3  v048
 BYTE   W06
 BYTE   Ds3  v012
 BYTE   W06
 BYTE   Ds3  v108
 BYTE   W06
 BYTE   Ds3  v048
 BYTE   W06
//  #04 //008   ----------------------------------------
 BYTE   Ds3  v064
 BYTE   W06
 BYTE   Ds3  v020
 BYTE   W06
 BYTE   Ds3  v048
 BYTE   W06
 BYTE   Ds3  v008
 BYTE   W06
 BYTE   Ds3  v104
 BYTE   W06
 BYTE   Ds3  v048
 BYTE   W06
 BYTE   N06
 BYTE   W06
 BYTE   Ds3  v012
 BYTE   W06
 BYTE   Ds3  v108
 BYTE   W06
 BYTE   Ds3  v048
 BYTE   W06
 BYTE   Ds3  v068
 BYTE   W06
 BYTE   Ds3  v020
 BYTE   W06
 BYTE   Ds3  v048
 BYTE   W06
 BYTE   Ds3  v012
 BYTE   W06
 BYTE   Ds3  v108
 BYTE   W06
 BYTE   Ds3  v048
 BYTE   W06
//  #04 //009   ----------------------------------------
Label_0103CE64:
 BYTE   N06  Ds3  v064
 BYTE   W06
 BYTE   Ds3  v020
 BYTE   W06
 BYTE   Ds3  v048
 BYTE   W06
 BYTE   Ds3  v008
 BYTE   W06
 BYTE   Ds3  v104
 BYTE   W06
 BYTE   Ds3  v048
 BYTE   W06
 BYTE   N06
 BYTE   W06
 BYTE   Ds3  v012
 BYTE   W06
 BYTE   Bn2  v108
 BYTE   W06
 BYTE   Bn2  v048
 BYTE   W06
 BYTE   Bn2  v068
 BYTE   W06
 BYTE   Bn2  v020
 BYTE   W06
 BYTE   Bn2  v048
 BYTE   W06
 BYTE   Bn2  v012
 BYTE   W06
 BYTE   Bn2  v108
 BYTE   W06
 BYTE   Bn2  v048
 BYTE   W06
 BYTE   PEND 
//  #04 //010   ----------------------------------------
Label_0103CE95:
 BYTE   N06  Bn2  v064
 BYTE   W06
 BYTE   Bn2  v020
 BYTE   W06
 BYTE   Bn2  v048
 BYTE   W06
 BYTE   Bn2  v008
 BYTE   W06
 BYTE   Bn2  v104
 BYTE   W06
 BYTE   Bn2  v048
 BYTE   W06
 BYTE   N06
 BYTE   W06
 BYTE   Bn2  v012
 BYTE   W06
 BYTE   Ds3  v108
 BYTE   W06
 BYTE   Ds3  v048
 BYTE   W06
 BYTE   Ds3  v068
 BYTE   W06
 BYTE   Ds3  v020
 BYTE   W06
 BYTE   Ds3  v048
 BYTE   W06
 BYTE   Ds3  v012
 BYTE   W06
 BYTE   Ds3  v108
 BYTE   W06
 BYTE   Ds3  v048
 BYTE   W06
 BYTE   PEND 
//  #04 //011   ----------------------------------------
 BYTE   PATT
  POIN2 Label_0103CE64
//  #04 //012   ----------------------------------------
 BYTE   PATT
  POIN2 Label_0103CE95
//  #04 //013   ----------------------------------------
 BYTE   N06  Ds3  v064
 BYTE   W06
 BYTE   Ds3  v020
 BYTE   W06
 BYTE   Ds3  v048
 BYTE   W06
 BYTE   Ds3  v008
 BYTE   W06
 BYTE   Ds3  v104
 BYTE   W06
 BYTE   Ds3  v048
 BYTE   W06
 BYTE   N06
 BYTE   W06
 BYTE   Ds3  v012
 BYTE   W06
 BYTE   En3  v108
 BYTE   W06
 BYTE   En3  v048
 BYTE   W06
 BYTE   En3  v068
 BYTE   W06
 BYTE   En3  v020
 BYTE   W06
 BYTE   En3  v048
 BYTE   W06
 BYTE   En3  v012
 BYTE   W06
 BYTE   En3  v108
 BYTE   W06
 BYTE   En3  v048
 BYTE   W06
//  #04 //014   ----------------------------------------
Label_0103CF00:
 BYTE   N06  En3  v064
 BYTE   W06
 BYTE   En3  v020
 BYTE   W06
 BYTE   En3  v048
 BYTE   W06
 BYTE   En3  v008
 BYTE   W06
 BYTE   En3  v104
 BYTE   W06
 BYTE   En3  v048
 BYTE   W06
 BYTE   N06
 BYTE   W06
 BYTE   En3  v012
 BYTE   W06
 BYTE   Fn3  v108
 BYTE   W06
 BYTE   Fn3  v048
 BYTE   W06
 BYTE   Fn3  v068
 BYTE   W06
 BYTE   Fn3  v020
 BYTE   W06
 BYTE   Fn3  v048
 BYTE   W06
 BYTE   Fn3  v012
 BYTE   W06
 BYTE   Fn3  v108
 BYTE   W06
 BYTE   Fn3  v048
 BYTE   W06
 BYTE   PEND 
//  #04 //015   ----------------------------------------
Label_0103CF31:
 BYTE   N06  Fn3  v064
 BYTE   W06
 BYTE   Fn3  v020
 BYTE   W06
 BYTE   Fn3  v048
 BYTE   W06
 BYTE   Fn3  v008
 BYTE   W06
 BYTE   Fn3  v104
 BYTE   W06
 BYTE   Fn3  v048
 BYTE   W06
 BYTE   N06
 BYTE   W06
 BYTE   Fn3  v012
 BYTE   W06
 BYTE   En3  v108
 BYTE   W06
 BYTE   En3  v048
 BYTE   W06
 BYTE   En3  v068
 BYTE   W06
 BYTE   En3  v020
 BYTE   W06
 BYTE   En3  v048
 BYTE   W06
 BYTE   En3  v012
 BYTE   W06
 BYTE   En3  v108
 BYTE   W06
 BYTE   En3  v048
 BYTE   W06
 BYTE   PEND 
//  #04 //016   ----------------------------------------
 BYTE   PATT
  POIN2 Label_0103CF00
//  #04 //017   ----------------------------------------
 BYTE   PATT
  POIN2 Label_0103CF31
//  #04 //018   ----------------------------------------
 BYTE   PATT
  POIN2 Label_0103CF00
//  #04 //019   ----------------------------------------
 BYTE   N06  Fn3  v064
 BYTE   W06
 BYTE   Fn3  v020
 BYTE   W06
 BYTE   Fn3  v048
 BYTE   W06
 BYTE   Fn3  v008
 BYTE   W06
 BYTE   Fn3  v104
 BYTE   W06
 BYTE   Fn3  v048
 BYTE   W06
 BYTE   N06
 BYTE   W06
 BYTE   Fn3  v012
 BYTE   W06
 BYTE   Gn3  v108
 BYTE   W06
 BYTE   Gn3  v048
 BYTE   W06
 BYTE   Gn3  v068
 BYTE   W06
 BYTE   Gn3  v020
 BYTE   W06
 BYTE   Gn3  v048
 BYTE   W06
 BYTE   Gn3  v012
 BYTE   W06
 BYTE   Gn3  v108
 BYTE   W06
 BYTE   Gn3  v048
 BYTE   W06
//  #04 //020   ----------------------------------------
 BYTE   Gn3  v064
 BYTE   W06
 BYTE   Gn3  v020
 BYTE   W06
 BYTE   Gn3  v048
 BYTE   W06
 BYTE   Gn3  v008
 BYTE   W06
 BYTE   Gn3  v104
 BYTE   W06
 BYTE   Gn3  v048
 BYTE   W06
 BYTE   N06
 BYTE   W06
 BYTE   Gn3  v012
 BYTE   W06
 BYTE   En3  v108
 BYTE   W06
 BYTE   En3  v048
 BYTE   W06
 BYTE   En3  v068
 BYTE   W06
 BYTE   En3  v020
 BYTE   W06
 BYTE   En3  v048
 BYTE   W06
 BYTE   En3  v012
 BYTE   W06
 BYTE   En3  v108
 BYTE   W06
 BYTE   En3  v048
 BYTE   W06
//  #04 //021   ----------------------------------------
 BYTE   En3  v064
 BYTE   W06
 BYTE   En3  v020
 BYTE   W06
 BYTE   En3  v048
 BYTE   W06
 BYTE   En3  v008
 BYTE   W06
 BYTE   En3  v104
 BYTE   W06
 BYTE   En3  v048
 BYTE   W06
 BYTE   N06
 BYTE   W06
 BYTE   En3  v012
 BYTE   W06
 BYTE   En3  v108
 BYTE   W06
 BYTE   En3  v048
 BYTE   W06
 BYTE   En3  v068
 BYTE   W06
 BYTE   En3  v020
 BYTE   W06
 BYTE   En3  v048
 BYTE   W06
 BYTE   En3  v012
 BYTE   W06
 BYTE   En3  v108
 BYTE   W06
 BYTE   En3  v048
 BYTE   W06
//  #04 //022   ----------------------------------------
 BYTE   En3  v064
 BYTE   W06
 BYTE   En3  v020
 BYTE   W06
 BYTE   En3  v048
 BYTE   W06
 BYTE   En3  v008
 BYTE   W06
 BYTE   En3  v104
 BYTE   W06
 BYTE   En3  v048
 BYTE   W06
 BYTE   N06
 BYTE   W06
 BYTE   En3  v012
 BYTE   W06
 BYTE   GoTo
  POIN2 Label_0103CD8F
//  #04 //023   ----------------------------------------
 BYTE   W01
 BYTE   FINE

//**************** Track 5 (Midi-Chn.4) ****************//

FE12ReignofDespairAzula_005:
//  #05 //000   ----------------------------------------
 BYTE   KEYSH   FE12ReignofDespairAzula_key+0
 BYTE   VOICE   34
 BYTE   MODT 0
 BYTE   LFOS 44
 BYTE   VOL   56*FE12ReignofDespairAzula_mvl/mxv
 BYTE   PAN   c_v+0
 BYTE   VOL   56*FE12ReignofDespairAzula_mvl/mxv
 BYTE   BEND   c_v+0
 BYTE   W48
 BYTE   VOL   56*FE12ReignofDespairAzula_mvl/mxv
 BYTE   N20  Dn1  v116
 BYTE   W01
 BYTE   VOL   54*FE12ReignofDespairAzula_mvl/mxv
 BYTE   W02
 BYTE   VOL   52*FE12ReignofDespairAzula_mvl/mxv
 BYTE   W01
 BYTE   VOL   51*FE12ReignofDespairAzula_mvl/mxv
 BYTE   W02
 BYTE   VOL   49*FE12ReignofDespairAzula_mvl/mxv
 BYTE   W01
 BYTE   VOL   48*FE12ReignofDespairAzula_mvl/mxv
 BYTE   W02
 BYTE   VOL   46*FE12ReignofDespairAzula_mvl/mxv
 BYTE   W01
 BYTE   VOL   45*FE12ReignofDespairAzula_mvl/mxv
 BYTE   W02
 BYTE   VOL   43*FE12ReignofDespairAzula_mvl/mxv
 BYTE   W01
 BYTE   VOL   41*FE12ReignofDespairAzula_mvl/mxv
 BYTE   W02
 BYTE   VOL   40*FE12ReignofDespairAzula_mvl/mxv
 BYTE   W01
 BYTE   VOL   38*FE12ReignofDespairAzula_mvl/mxv
 BYTE   W02
 BYTE   VOL   37*FE12ReignofDespairAzula_mvl/mxv
 BYTE   W01
 BYTE   VOL   35*FE12ReignofDespairAzula_mvl/mxv
 BYTE   W02
 BYTE   VOL   34*FE12ReignofDespairAzula_mvl/mxv
 BYTE   W01
 BYTE   VOL   33*FE12ReignofDespairAzula_mvl/mxv
 BYTE   W01
 BYTE   N20  Dn1  v076
 BYTE   W01
 BYTE   VOL   30*FE12ReignofDespairAzula_mvl/mxv
 BYTE   W16
 BYTE   VOL   31*FE12ReignofDespairAzula_mvl/mxv
 BYTE   W07
 BYTE   N20  Dn1  v088
 BYTE   W01
//  #05 //001   ----------------------------------------
 BYTE   W09
 BYTE   VOL   32*FE12ReignofDespairAzula_mvl/mxv
 BYTE   W14
 BYTE   N20  Dn1  v076
 BYTE   W03
 BYTE   VOL   33*FE12ReignofDespairAzula_mvl/mxv
 BYTE   W09
 BYTE   VOL   34*FE12ReignofDespairAzula_mvl/mxv
 BYTE   W10
 BYTE   N20  As1  v116
 BYTE   W07
 BYTE   VOL   34*FE12ReignofDespairAzula_mvl/mxv
 BYTE   W08
 BYTE   VOL   34*FE12ReignofDespairAzula_mvl/mxv
 BYTE   W09
 BYTE   VOL   35*FE12ReignofDespairAzula_mvl/mxv
 BYTE   N20  As1  v076
 BYTE   W16
 BYTE   VOL   36*FE12ReignofDespairAzula_mvl/mxv
 BYTE   W08
 BYTE   N20  As1  v088
 BYTE   W01
 BYTE   VOL   37*FE12ReignofDespairAzula_mvl/mxv
 BYTE   W02
//  #05 //002   ----------------------------------------
 BYTE   W06
 BYTE   VOL   37*FE12ReignofDespairAzula_mvl/mxv
 BYTE   W09
 BYTE   VOL   37*FE12ReignofDespairAzula_mvl/mxv
 BYTE   W06
 BYTE   N20  As1  v076
 BYTE   W11
 BYTE   VOL   38*FE12ReignofDespairAzula_mvl/mxv
 BYTE   W08
 BYTE   VOL   39*FE12ReignofDespairAzula_mvl/mxv
 BYTE   W05
 BYTE   N20  An1  v116
 BYTE   W04
 BYTE   VOL   40*FE12ReignofDespairAzula_mvl/mxv
 BYTE   W08
 BYTE   VOL   40*FE12ReignofDespairAzula_mvl/mxv
 BYTE   W09
 BYTE   VOL   40*FE12ReignofDespairAzula_mvl/mxv
 BYTE   W03
 BYTE   N20  An1  v076
 BYTE   W05
 BYTE   VOL   41*FE12ReignofDespairAzula_mvl/mxv
 BYTE   W09
 BYTE   VOL   42*FE12ReignofDespairAzula_mvl/mxv
 BYTE   W08
 BYTE   VOL   43*FE12ReignofDespairAzula_mvl/mxv
 BYTE   W02
 BYTE   N20  An1  v088
 BYTE   W03
//  #05 //003   ----------------------------------------
 BYTE   W03
 BYTE   VOL   45*FE12ReignofDespairAzula_mvl/mxv
 BYTE   W09
 BYTE   VOL   45*FE12ReignofDespairAzula_mvl/mxv
 BYTE   W08
 BYTE   VOL   45*FE12ReignofDespairAzula_mvl/mxv
 BYTE   W01
 BYTE   N20  An1  v076
 BYTE   W08
 BYTE   VOL   46*FE12ReignofDespairAzula_mvl/mxv
 BYTE   W08
 BYTE   VOL   48*FE12ReignofDespairAzula_mvl/mxv
 BYTE   W08
 BYTE   N20  An1  v116
 BYTE   W01
 BYTE   VOL   48*FE12ReignofDespairAzula_mvl/mxv
 BYTE   W08
 BYTE   VOL   49*FE12ReignofDespairAzula_mvl/mxv
 BYTE   W09
 BYTE   VOL   51*FE12ReignofDespairAzula_mvl/mxv
 BYTE   W06
 BYTE   N20  An1  v076
 BYTE   W02
 BYTE   VOL   51*FE12ReignofDespairAzula_mvl/mxv
 BYTE   W09
 BYTE   VOL   52*FE12ReignofDespairAzula_mvl/mxv
 BYTE   W08
 BYTE   VOL   54*FE12ReignofDespairAzula_mvl/mxv
 BYTE   W05
 BYTE   N20  An1  v088
 BYTE   W03
//  #05 //004   ----------------------------------------
 BYTE   W01
 BYTE   VOL   56*FE12ReignofDespairAzula_mvl/mxv
 BYTE   W20
 BYTE   N20  An1  v076
 BYTE   W24
 BYTE   W03
Label_55FEEC:
 BYTE   N17  Dn2  v127
 BYTE   W21
 BYTE   N20  Dn2  v100
 BYTE   W24
 BYTE   Dn2  v108
 BYTE   W03
//  #05 //005   ----------------------------------------
 BYTE   W21
 BYTE   Dn2  v100
 BYTE   W24
 BYTE   As1  v127
 BYTE   W24
 BYTE   As1  v100
 BYTE   W24
 BYTE   As1  v108
 BYTE   W03
//  #05 //006   ----------------------------------------
Label_55FF04:
 BYTE   W21
 BYTE   N20  As1  v100
 BYTE   W24
 BYTE   Gn1  v127
 BYTE   W24
 BYTE   Gn1  v100
 BYTE   W24
 BYTE   Gn1  v108
 BYTE   W03
 BYTE   PEND 
//  #05 //007   ----------------------------------------
 BYTE   W21
 BYTE   Gn1  v100
 BYTE   W24
 BYTE   Gs1  v127
 BYTE   W24
 BYTE   Gs1  v100
 BYTE   W24
 BYTE   Gs1  v108
 BYTE   W03
//  #05 //008   ----------------------------------------
 BYTE   W21
 BYTE   Gs1  v100
 BYTE   W24
 BYTE   Gs1  v127
 BYTE   W24
 BYTE   Gs1  v100
 BYTE   W24
 BYTE   Gs1  v108
 BYTE   W03
//  #05 //009   ----------------------------------------
Label_55FF2D:
 BYTE   W21
 BYTE   N20  Gs1  v100
 BYTE   W24
 BYTE   En1  v127
 BYTE   W24
 BYTE   En1  v100
 BYTE   W24
 BYTE   En1  v108
 BYTE   W03
 BYTE   PEND 
//  #05 //010   ----------------------------------------
Label_55FF3C:
 BYTE   W21
 BYTE   N20  En1  v100
 BYTE   W24
 BYTE   Gs1  v127
 BYTE   W24
 BYTE   Gs1  v100
 BYTE   W24
 BYTE   Gs1  v108
 BYTE   W03
 BYTE   PEND 
//  #05 //011   ----------------------------------------
 BYTE   PATT
  POIN2 Label_55FF2D
//  #05 //012   ----------------------------------------
 BYTE   PATT
  POIN2 Label_55FF3C
//  #05 //013   ----------------------------------------
 BYTE   W21
 BYTE   N20  Gs1  v100
 BYTE   W24
 BYTE   An1  v127
 BYTE   W24
 BYTE   An1  v100
 BYTE   W24
 BYTE   An1  v108
 BYTE   W03
//  #05 //014   ----------------------------------------
Label_55FF63:
 BYTE   W21
 BYTE   N20  An1  v100
 BYTE   W24
 BYTE   Fn1  v127
 BYTE   W24
 BYTE   Fn1  v100
 BYTE   W24
 BYTE   Fn1  v108
 BYTE   W03
 BYTE   PEND 
//  #05 //015   ----------------------------------------
Label_55FF72:
 BYTE   W21
 BYTE   N20  Fn1  v100
 BYTE   W24
 BYTE   An1  v127
 BYTE   W24
 BYTE   An1  v100
 BYTE   W24
 BYTE   An1  v108
 BYTE   W03
 BYTE   PEND 
//  #05 //016   ----------------------------------------
 BYTE   PATT
  POIN2 Label_55FF63
//  #05 //017   ----------------------------------------
 BYTE   PATT
  POIN2 Label_55FF72
//  #05 //018   ----------------------------------------
 BYTE   W21
 BYTE   N20  An1  v100
 BYTE   W24
 BYTE   As1  v127
 BYTE   W24
 BYTE   As1  v100
 BYTE   W24
 BYTE   As1  v108
 BYTE   W03
//  #05 //019   ----------------------------------------
 BYTE   PATT
  POIN2 Label_55FF04
//  #05 //020   ----------------------------------------
 BYTE   W21
 BYTE   N20  Gn1  v100
 BYTE   W24
 BYTE   An1  v127
 BYTE   W24
 BYTE   An1  v100
 BYTE   W24
 BYTE   An1  v108
 BYTE   W03
//  #05 //021   ----------------------------------------
 BYTE   W21
 BYTE   An1  v100
 BYTE   W24
 BYTE   An1  v127
 BYTE   W24
 BYTE   An1  v100
 BYTE   W24
 BYTE   An1  v108
 BYTE   W03
//  #05 //022   ----------------------------------------
 BYTE   W21
 BYTE   An1  v100
 BYTE   W24
 BYTE   W03
 BYTE   GoTo
  POIN2 Label_55FEEC
//  #05 //023   ----------------------------------------
 BYTE   W01
 BYTE   FINE

//**************** Track 6 (Midi-Chn.5) ****************//

FE12ReignofDespairAzula_006:
//  #06 //000   ----------------------------------------
 BYTE   KEYSH   FE12ReignofDespairAzula_key+0
 BYTE   VOICE   127
 BYTE   MODT 0
 BYTE   LFOS 44
 BYTE   VOL   36*FE12ReignofDespairAzula_mvl/mxv
 BYTE   PAN   c_v+0
 BYTE   VOL   36*FE12ReignofDespairAzula_mvl/mxv
 BYTE   BEND   c_v+0
 BYTE   N03  Cn1  v127
 BYTE   W03
 BYTE   N03
 BYTE   W03
 BYTE   N03
 BYTE   W03
 BYTE   N03
 BYTE   W03
 BYTE   N03
 BYTE   W03
 BYTE   N03
 BYTE   W03
 BYTE   N03
 BYTE   W03
 BYTE   N03
 BYTE   W03
 BYTE   N03
 BYTE   W03
 BYTE   N03
 BYTE   W03
 BYTE   N03
 BYTE   W03
 BYTE   N03
 BYTE   W03
 BYTE   N03
 BYTE   N12  Cs2  v104
 BYTE   W03
 BYTE   N03  Cn1  v127
 BYTE   W03
 BYTE   N03
 BYTE   W03
 BYTE   N03
 BYTE   W03
 BYTE   N24  Cs2  v104
 BYTE   W48
//  #06 //001   ----------------------------------------
Label_0103C453:
 BYTE   W36
 BYTE   N04  Dn1  v127
 BYTE   W04
 BYTE   N04
 BYTE   W04
 BYTE   N04
 BYTE   W04
 BYTE   N12  Cn1
 BYTE   N04  Dn1
 BYTE   W12
 BYTE   N12  Cn1
 BYTE   W36
 BYTE   PEND 
//  #06 //002   ----------------------------------------
 BYTE   W36
 BYTE   N04  Dn1
 BYTE   W04
 BYTE   N04
 BYTE   W04
 BYTE   N04
 BYTE   W04
 BYTE   N06  Cn1
 BYTE   N04  Dn1
 BYTE   W48
//  #06 //003   ----------------------------------------
 BYTE   PATT
  POIN2 Label_0103C453
//  #06 //004   ----------------------------------------
 BYTE   N24  Dn1  v127
 BYTE   N48  An2
 BYTE   W48
Label_0103C47D:
 BYTE   N36  Cn1  v127
 BYTE   N48  Cs2
 BYTE   W36
 BYTE   N36  Cn1
 BYTE   N36  Dn1
 BYTE   W12
//  #06 //005   ----------------------------------------
 BYTE   W24
 BYTE   N12  Cn1
 BYTE   W12
 BYTE   N12
 BYTE   N12  Dn1
 BYTE   W12
 BYTE   N36  Cn1
 BYTE   N36  Dn1
 BYTE   W36
 BYTE   Cn1
 BYTE   N36  Dn1
 BYTE   W12
//  #06 //006   ----------------------------------------
Label_0103C499:
 BYTE   W24
 BYTE   N12  Cn1  v127
 BYTE   W12
 BYTE   N12
 BYTE   N12  Dn1
 BYTE   W12
 BYTE   VOL   36*FE12ReignofDespairAzula_mvl/mxv
 BYTE   N36  Cn1
 BYTE   N36  Dn1
 BYTE   W36
 BYTE   Cn1
 BYTE   N36  Dn1
 BYTE   W12
 BYTE   PEND 
//  #06 //007   ----------------------------------------
 BYTE   PATT
  POIN2 Label_0103C499
//  #06 //008   ----------------------------------------
 BYTE   W24
 BYTE   VOL   36*FE12ReignofDespairAzula_mvl/mxv
 BYTE   N12  Dn1  v127
 BYTE   W12
 BYTE   N06
 BYTE   W06
 BYTE   N06
 BYTE   W06
 BYTE   VOL   36*FE12ReignofDespairAzula_mvl/mxv
 BYTE   N24  Cn1
 BYTE   W24
 BYTE   N12  Dn1
 BYTE   W12
 BYTE   N18  Cn1
 BYTE   W12
//  #06 //009   ----------------------------------------
 BYTE   W06
 BYTE   N18
 BYTE   W18
 BYTE   N12  Dn1
 BYTE   W12
 BYTE   Cn1
 BYTE   W12
 BYTE   VOL   36*FE12ReignofDespairAzula_mvl/mxv
 BYTE   N24
 BYTE   W24
 BYTE   N12  Dn1
 BYTE   W12
 BYTE   N18  Cn1
 BYTE   W12
//  #06 //010   ----------------------------------------
 BYTE   W06
 BYTE   N18
 BYTE   W18
 BYTE   N12  Dn1
 BYTE   W12
 BYTE   Cn1
 BYTE   W12
 BYTE   VOL   36*FE12ReignofDespairAzula_mvl/mxv
 BYTE   N12
 BYTE   W12
 BYTE   N06
 BYTE   W06
 BYTE   N06
 BYTE   W06
 BYTE   Dn1
 BYTE   W06
 BYTE   N06
 BYTE   W06
 BYTE   Cn1
 BYTE   W06
 BYTE   N06
 BYTE   W06
//  #06 //011   ----------------------------------------
 BYTE   N06
 BYTE   W06
 BYTE   N06
 BYTE   W06
 BYTE   N06
 BYTE   W06
 BYTE   N06
 BYTE   W06
 BYTE   Dn1
 BYTE   W06
 BYTE   N06
 BYTE   W06
 BYTE   Cn1
 BYTE   W06
 BYTE   N06
 BYTE   W06
 BYTE   Dn1
 BYTE   W06
 BYTE   N06
 BYTE   W06
 BYTE   Cn1
 BYTE   W06
 BYTE   N06
 BYTE   W06
 BYTE   Dn1
 BYTE   W06
 BYTE   N06
 BYTE   W06
 BYTE   Cn1
 BYTE   W06
 BYTE   N06
 BYTE   W06
//  #06 //012   ----------------------------------------
 BYTE   Dn1
 BYTE   W06
 BYTE   N06
 BYTE   W06
 BYTE   Cn1
 BYTE   W06
 BYTE   N06
 BYTE   W06
 BYTE   Dn1
 BYTE   W06
 BYTE   N06
 BYTE   W06
 BYTE   Cn1
 BYTE   W06
 BYTE   N06
 BYTE   W06
 BYTE   Dn1
 BYTE   W06
 BYTE   N06
 BYTE   W06
 BYTE   N06
 BYTE   W06
 BYTE   Cn1
 BYTE   W06
 BYTE   Dn1
 BYTE   W06
 BYTE   N06
 BYTE   W06
 BYTE   Cn1
 BYTE   W06
 BYTE   Dn1
 BYTE   W06
//  #06 //013   ----------------------------------------
 BYTE   N06
 BYTE   W06
 BYTE   N06
 BYTE   W06
 BYTE   N06
 BYTE   W06
 BYTE   N06
 BYTE   W06
 BYTE   N06
 BYTE   W06
 BYTE   N06
 BYTE   W06
 BYTE   N06
 BYTE   W06
 BYTE   N06
 BYTE   W06
 BYTE   N12
 BYTE   W12
 BYTE   N06  Cn1
 BYTE   W06
 BYTE   N06
 BYTE   W06
 BYTE   N12  Dn1
 BYTE   W12
 BYTE   N06  Cn1
 BYTE   W06
 BYTE   N06
 BYTE   W06
//  #06 //014   ----------------------------------------
Label_0103C552:
 BYTE   N12  Dn1  v127
 BYTE   W12
 BYTE   N06  Cn1
 BYTE   W06
 BYTE   N06
 BYTE   W06
 BYTE   N12  Dn1
 BYTE   W12
 BYTE   N06  Cn1
 BYTE   W06
 BYTE   N06
 BYTE   W06
 BYTE   N12  Dn1
 BYTE   W12
 BYTE   N06  Cn1
 BYTE   W06
 BYTE   N06
 BYTE   W06
 BYTE   N12  Dn1
 BYTE   W12
 BYTE   N06  Cn1
 BYTE   W06
 BYTE   N06
 BYTE   W06
 BYTE   PEND 
//  #06 //015   ----------------------------------------
 BYTE   PATT
  POIN2 Label_0103C552
//  #06 //016   ----------------------------------------
 BYTE   PATT
  POIN2 Label_0103C552
//  #06 //017   ----------------------------------------
 BYTE   PATT
  POIN2 Label_0103C552
//  #06 //018   ----------------------------------------
 BYTE   PATT
  POIN2 Label_0103C552
//  #06 //019   ----------------------------------------
 BYTE   PATT
  POIN2 Label_0103C552
//  #06 //020   ----------------------------------------
 BYTE   PATT
  POIN2 Label_0103C552
//  #06 //021   ----------------------------------------
 BYTE   PATT
  POIN2 Label_0103C552
//  #06 //022   ----------------------------------------
 BYTE   N12  Dn1  v127
 BYTE   W12
 BYTE   N06  Cn1
 BYTE   W06
 BYTE   N06
 BYTE   W06
 BYTE   N12  Dn1
 BYTE   W12
 BYTE   N06
 BYTE   W06
 BYTE   N06
 BYTE   W06
 BYTE   GoTo
  POIN2 Label_0103C47D
//  #06 //023   ----------------------------------------
 BYTE   W01
 BYTE   FINE

//******************************************************//
	ALIGN 4

FE12ReignofDespairAzula:
	BYTE	6	// NumTrks
	BYTE	0	// NumBlks
	BYTE	FE12ReignofDespairAzula_pri	// Priority
	BYTE	FE12ReignofDespairAzula_rev	// Reverb.
    
	POIN2	FE12ReignofDespairAzula_grp
    
	POIN2	FE12ReignofDespairAzula_001
	POIN2	FE12ReignofDespairAzula_002
	POIN2	FE12ReignofDespairAzula_003
	POIN2	FE12ReignofDespairAzula_004
	POIN2	FE12ReignofDespairAzula_005
	POIN2	FE12ReignofDespairAzula_006

	
