//Event file generated from Sappy .s format.
	#include "MPlayDef.event"

	#define	FE13WedBestPrepareForCombatJustToBeSafeAzulaAlice_grp  voicegroup000
	#define	FE13WedBestPrepareForCombatJustToBeSafeAzulaAlice_pri  0
	#define	FE13WedBestPrepareForCombatJustToBeSafeAzulaAlice_rev  0
	#define	FE13WedBestPrepareForCombatJustToBeSafeAzulaAlice_mvl  127
	#define	FE13WedBestPrepareForCombatJustToBeSafeAzulaAlice_key  0
	#define	FE13WedBestPrepareForCombatJustToBeSafeAzulaAlice_tbs  1
	#define	FE13WedBestPrepareForCombatJustToBeSafeAzulaAlice_exg  0
	#define	FE13WedBestPrepareForCombatJustToBeSafeAzulaAlice_cmp  1

	// .rodata
	//	FE13WedBestPrepareForCombatJustToBeSafeAzulaAlice
	ALIGN 4


//**************** Track 1 (Midi-Chn.0) ****************//

FE13WedBestPrepareForCombatJustToBeSafeAzulaAlice_001:
//  #01 //000   ----------------------------------------
 BYTE   KEYSH   FE13WedBestPrepareForCombatJustToBeSafeAzulaAlice_key+0
 BYTE   TEMPO   102*FE13WedBestPrepareForCombatJustToBeSafeAzulaAlice_tbs/2
 BYTE   VOICE   67
 BYTE   MODT 0
 BYTE   LFOS 44
 BYTE   VOL   43*FE13WedBestPrepareForCombatJustToBeSafeAzulaAlice_mvl/mxv
 BYTE   PAN   c_v+26
 BYTE   W12
Label_010002AB:
 BYTE   W84
//  #01 //001   ----------------------------------------
 BYTE   W96
//  #01 //002   ----------------------------------------
 BYTE   W96
//  #01 //003   ----------------------------------------
 BYTE   W96
//  #01 //004   ----------------------------------------
 BYTE   W96
//  #01 //005   ----------------------------------------
 BYTE   W96
//  #01 //006   ----------------------------------------
 BYTE   W96
//  #01 //007   ----------------------------------------
 BYTE   W96
//  #01 //008   ----------------------------------------
 BYTE   W96
//  #01 //009   ----------------------------------------
 BYTE   W96
//  #01 //010   ----------------------------------------
 BYTE   W96
//  #01 //011   ----------------------------------------
 BYTE   W96
//  #01 //012   ----------------------------------------
 BYTE   W96
//  #01 //013   ----------------------------------------
 BYTE   W96
//  #01 //014   ----------------------------------------
 BYTE   W96
//  #01 //015   ----------------------------------------
 BYTE   W96
//  #01 //016   ----------------------------------------
 BYTE   W96
//  #01 //017   ----------------------------------------
 BYTE   W96
//  #01 //018   ----------------------------------------
 BYTE   W96
//  #01 //019   ----------------------------------------
 BYTE   W96
//  #01 //020   ----------------------------------------
 BYTE   W36
 BYTE   N24  Gs2  v056
 BYTE   W24
 BYTE   Cs3
 BYTE   W24
 BYTE   Fs3
 BYTE   W12
//  #01 //021   ----------------------------------------
 BYTE   W12
 BYTE   N14  Fn3
 BYTE   W12
 BYTE   Fs3
 BYTE   W12
 BYTE   N48  Gs3
 BYTE   W48
 BYTE   N13  Fn3
 BYTE   W12
//  #01 //022   ----------------------------------------
 BYTE   Cs3
 BYTE   W12
 BYTE   N92  Ds3  v048
 BYTE   W84
//  #01 //023   ----------------------------------------
 BYTE   W96
//  #01 //024   ----------------------------------------
 BYTE   W96
//  #01 //025   ----------------------------------------
 BYTE   W96
//  #01 //026   ----------------------------------------
 BYTE   W96
//  #01 //027   ----------------------------------------
 BYTE   W96
//  #01 //028   ----------------------------------------
 BYTE   W96
//  #01 //029   ----------------------------------------
 BYTE   W96
//  #01 //030   ----------------------------------------
 BYTE   W84
 BYTE   N06  Ds4  v052
 BYTE   W06
 BYTE   Cs4  v056
 BYTE   W06
//  #01 //031   ----------------------------------------
 BYTE   N05  Ds4
 BYTE   W06
 BYTE   N06  Gs4
 BYTE   W42
 BYTE   N05  As3
 BYTE   W05
 BYTE   N06  Bn3
 BYTE   W07
 BYTE   Cs4  v060
 BYTE   W06
 BYTE   Fs4  v056
 BYTE   W30
//  #01 //032   ----------------------------------------
 BYTE   W06
 BYTE   Fs3
 BYTE   W06
 BYTE   Gs3
 BYTE   W06
 BYTE   Ds4
 BYTE   W06
 BYTE   N05  Cs4
 BYTE   W06
 BYTE   Ds4
 BYTE   W66
//  #01 //033   ----------------------------------------
 BYTE   W96
//  #01 //034   ----------------------------------------
 BYTE   W36
 BYTE   N06
 BYTE   W06
 BYTE   Cs4
 BYTE   W06
 BYTE   N05  Ds4
 BYTE   W06
 BYTE   N06  Gs4
 BYTE   W42
//  #01 //035   ----------------------------------------
 BYTE   N05  As3
 BYTE   W05
 BYTE   N06  Bn3
 BYTE   W07
 BYTE   Cs4  v060
 BYTE   W06
 BYTE   Fs4  v056
 BYTE   W36
 BYTE   Fs3
 BYTE   W06
 BYTE   Gs3
 BYTE   W06
 BYTE   Ds4
 BYTE   W06
 BYTE   N05  Cs4
 BYTE   W06
 BYTE   Ds4
 BYTE   W18
//  #01 //036   ----------------------------------------
 BYTE   W40
 BYTE   W01
 BYTE   TEMPO   100*FE13WedBestPrepareForCombatJustToBeSafeAzulaAlice_tbs/2
 BYTE   W19
 BYTE   TEMPO   102*FE13WedBestPrepareForCombatJustToBeSafeAzulaAlice_tbs/2
 BYTE   W36
//  #01 //037   ----------------------------------------
 BYTE   W78
 BYTE   N06  Bn3
 BYTE   W06
 BYTE   En4
 BYTE   W06
 BYTE   Dn4
 BYTE   W06
//  #01 //038   ----------------------------------------
 BYTE   N05  En4
 BYTE   W06
 BYTE   N06  An4
 BYTE   W42
 BYTE   N05  Bn3
 BYTE   W05
 BYTE   N06  Cn4
 BYTE   W07
 BYTE   Dn4  v060
 BYTE   W06
 BYTE   Gn4  v056
 BYTE   W24
 BYTE   Fn3
 BYTE   W06
//  #01 //039   ----------------------------------------
 BYTE   W06
 BYTE   Gn3
 BYTE   W06
 BYTE   An3
 BYTE   W06
 BYTE   En4
 BYTE   W06
 BYTE   N05  Dn4
 BYTE   W06
 BYTE   En4
 BYTE   W66
//  #01 //040   ----------------------------------------
 BYTE   W96
//  #01 //041   ----------------------------------------
 BYTE   W30
 BYTE   N06  Bn3
 BYTE   W06
 BYTE   En4
 BYTE   W06
 BYTE   Dn4
 BYTE   W06
 BYTE   N05  En4
 BYTE   W06
 BYTE   N06  An4
 BYTE   W42
//  #01 //042   ----------------------------------------
 BYTE   N05  Bn3
 BYTE   W05
 BYTE   N06  Cn4
 BYTE   W07
 BYTE   Dn4  v060
 BYTE   W06
 BYTE   Gn4  v056
 BYTE   W24
 BYTE   Fn3
 BYTE   W12
 BYTE   Gn3
 BYTE   W06
 BYTE   An3
 BYTE   W06
 BYTE   En4
 BYTE   W06
 BYTE   N05  Dn4
 BYTE   W06
 BYTE   En4
 BYTE   W18
//  #01 //043   ----------------------------------------
 BYTE   W40
 BYTE   W01
 BYTE   TEMPO   100*FE13WedBestPrepareForCombatJustToBeSafeAzulaAlice_tbs/2
 BYTE   W10
 BYTE   TEMPO   98*FE13WedBestPrepareForCombatJustToBeSafeAzulaAlice_tbs/2
 BYTE   W15
 BYTE   TEMPO   102*FE13WedBestPrepareForCombatJustToBeSafeAzulaAlice_tbs/2
 BYTE   W30
//  #01 //044   ----------------------------------------
 BYTE   W96
//  #01 //045   ----------------------------------------
 BYTE   W96
//  #01 //046   ----------------------------------------
 BYTE   W96
//  #01 //047   ----------------------------------------
 BYTE   W96
//  #01 //048   ----------------------------------------
 BYTE   W96
//  #01 //049   ----------------------------------------
 BYTE   W96
//  #01 //050   ----------------------------------------
 BYTE   W96
//  #01 //051   ----------------------------------------
 BYTE   W96
//  #01 //052   ----------------------------------------
 BYTE   W60
 BYTE   GoTo
  POIN2 Label_010002AB
//  #01 //053   ----------------------------------------
 BYTE   W12
 BYTE   FINE

//**************** Track 2 (Midi-Chn.1) ****************//

FE13WedBestPrepareForCombatJustToBeSafeAzulaAlice_002:
//  #02 //000   ----------------------------------------
 BYTE   KEYSH   FE13WedBestPrepareForCombatJustToBeSafeAzulaAlice_key+0
 BYTE   VOICE   48
 BYTE   MODT 0
 BYTE   LFOS 44
 BYTE   VOL   76*FE13WedBestPrepareForCombatJustToBeSafeAzulaAlice_mvl/mxv
 BYTE   PAN   c_v-26
 BYTE   W12
Label_01000F81:
 BYTE   W84
//  #02 //001   ----------------------------------------
Label_01000F82:
 BYTE   W18
 BYTE   N18  Cs3  v040
 BYTE   W18
 BYTE   N12  Fs3
 BYTE   W12
 BYTE   En3
 BYTE   W06
 BYTE   N18  Cs3
 BYTE   W12
 BYTE   Bn2
 BYTE   W06
 BYTE   Bn3
 BYTE   W18
 BYTE   N12  Cs3
 BYTE   W06
 BYTE   PEND 
//  #02 //002   ----------------------------------------
Label_01000F97:
 BYTE   W12
 BYTE   N18  An3  v044
 BYTE   W06
 BYTE   Fs3  v040
 BYTE   W12
 BYTE   Cs3
 BYTE   W18
 BYTE   N24  Gs3
 BYTE   W18
 BYTE   N18  En3
 BYTE   W18
 BYTE   Fs3
 BYTE   W12
 BYTE   PEND 
//  #02 //003   ----------------------------------------
Label_01000FAA:
 BYTE   W05
 BYTE   N24  Cs3  v040
 BYTE   W90
 BYTE   W01
 BYTE   PEND 
//  #02 //004   ----------------------------------------
 BYTE   PATT
  POIN2 Label_01000F82
//  #02 //005   ----------------------------------------
 BYTE   PATT
  POIN2 Label_01000F97
//  #02 //006   ----------------------------------------
Label_01000FBB:
 BYTE   W05
 BYTE   N18  Cs3  v040
 BYTE   W78
 BYTE   W01
 BYTE   En3
 BYTE   W12
 BYTE   PEND 
//  #02 //007   ----------------------------------------
Label_01000FC4:
 BYTE   W05
 BYTE   N18  Fs3  v040
 BYTE   W19
 BYTE   Cs3
 BYTE   W72
 BYTE   PEND 
//  #02 //008   ----------------------------------------
Label_01000FCC:
 BYTE   W05
 BYTE   N18  Cs3  v040
 BYTE   W90
 BYTE   W01
 BYTE   PEND 
//  #02 //009   ----------------------------------------
 BYTE   W96
//  #02 //010   ----------------------------------------
 BYTE   PATT
  POIN2 Label_01000F82
//  #02 //011   ----------------------------------------
 BYTE   PATT
  POIN2 Label_01000F97
//  #02 //012   ----------------------------------------
 BYTE   PATT
  POIN2 Label_01000FAA
//  #02 //013   ----------------------------------------
 BYTE   PATT
  POIN2 Label_01000F82
//  #02 //014   ----------------------------------------
 BYTE   PATT
  POIN2 Label_01000F97
//  #02 //015   ----------------------------------------
 BYTE   PATT
  POIN2 Label_01000FBB
//  #02 //016   ----------------------------------------
 BYTE   PATT
  POIN2 Label_01000FC4
//  #02 //017   ----------------------------------------
 BYTE   PATT
  POIN2 Label_01000FCC
//  #02 //018   ----------------------------------------
 BYTE   W54
 BYTE   N12  Fs2  v024
 BYTE   N12  Fs3  v032
 BYTE   W12
 BYTE   Bn2  v024
 BYTE   N12  Bn3  v032
 BYTE   W12
 BYTE   N10  Cs3  v024
 BYTE   N12  Cs4  v036
 BYTE   W12
 BYTE   N10  En3  v028
 BYTE   N12  En4  v036
 BYTE   W06
//  #02 //019   ----------------------------------------
 BYTE   W05
 BYTE   Fs3  v028
 BYTE   N12  Fs4  v036
 BYTE   W07
 BYTE   Gs3  v048
 BYTE   N12  Gs4  v056
 BYTE   W84
//  #02 //020   ----------------------------------------
 BYTE   W96
//  #02 //021   ----------------------------------------
 BYTE   W96
//  #02 //022   ----------------------------------------
 BYTE   W96
//  #02 //023   ----------------------------------------
 BYTE   W24
 BYTE   N09  Gs2  v040
 BYTE   W06
 BYTE   Gs3
 BYTE   W12
 BYTE   Gs2
 BYTE   W12
 BYTE   Fs3
 BYTE   W42
//  #02 //024   ----------------------------------------
 BYTE   W05
 BYTE   Gs3
 BYTE   W07
 BYTE   Cs3  v044
 BYTE   W06
 BYTE   Gs2  v040
 BYTE   W12
 BYTE   Fs3
 BYTE   W66
//  #02 //025   ----------------------------------------
 BYTE   W18
 BYTE   Ds3
 BYTE   W06
 BYTE   Cs3
 BYTE   W18
 BYTE   As3
 BYTE   W06
 BYTE   Cs3
 BYTE   W18
 BYTE   Ds3
 BYTE   W06
 BYTE   Cs3
 BYTE   W18
 BYTE   As3
 BYTE   W06
//  #02 //026   ----------------------------------------
Label_0100104D:
 BYTE   N09  Cs3  v040
 BYTE   W18
 BYTE   Ds3
 BYTE   W06
 BYTE   Cs3
 BYTE   W18
 BYTE   As3
 BYTE   W06
 BYTE   Cs3
 BYTE   W18
 BYTE   Ds3
 BYTE   W06
 BYTE   Cs3
 BYTE   W18
 BYTE   As3
 BYTE   W06
 BYTE   PEND 
//  #02 //027   ----------------------------------------
 BYTE   PATT
  POIN2 Label_0100104D
//  #02 //028   ----------------------------------------
 BYTE   PATT
  POIN2 Label_0100104D
//  #02 //029   ----------------------------------------
 BYTE   PATT
  POIN2 Label_0100104D
//  #02 //030   ----------------------------------------
 BYTE   N09  Cs3  v040
 BYTE   W18
 BYTE   Ds3
 BYTE   W06
 BYTE   Cs3
 BYTE   W18
 BYTE   As3
 BYTE   W06
 BYTE   Cs3
 BYTE   W48
//  #02 //031   ----------------------------------------
 BYTE   W24
 BYTE   Bn2  v056
 BYTE   W06
 BYTE   En3
 BYTE   W66
//  #02 //032   ----------------------------------------
 BYTE   W60
 BYTE   Gs2  v060
 BYTE   W12
 BYTE   Cs3  v056
 BYTE   W12
 BYTE   Gs2
 BYTE   W12
//  #02 //033   ----------------------------------------
 BYTE   Cs3
 BYTE   W12
 BYTE   Gs2  v060
 BYTE   W12
 BYTE   Cs3  v056
 BYTE   W12
 BYTE   Gs2
 BYTE   W12
 BYTE   Cs3
 BYTE   W12
 BYTE   Gs2
 BYTE   W12
 BYTE   Cs3
 BYTE   W12
 BYTE   Gs2
 BYTE   W12
//  #02 //034   ----------------------------------------
 BYTE   Cs3
 BYTE   W72
 BYTE   Bn2
 BYTE   W06
 BYTE   En3
 BYTE   W18
//  #02 //035   ----------------------------------------
 BYTE   W96
//  #02 //036   ----------------------------------------
 BYTE   W12
 BYTE   Gs2  v060
 BYTE   W12
 BYTE   Cs3  v056
 BYTE   W12
 BYTE   Gs2
 BYTE   W12
 BYTE   Cs3
 BYTE   W12
 BYTE   Gs2  v060
 BYTE   W12
 BYTE   Cs3  v056
 BYTE   W12
 BYTE   Gs2
 BYTE   W12
//  #02 //037   ----------------------------------------
 BYTE   Cs3
 BYTE   W12
 BYTE   Gs2
 BYTE   W12
 BYTE   Cs3
 BYTE   W12
 BYTE   Gs2
 BYTE   W12
 BYTE   Cs3
 BYTE   W48
//  #02 //038   ----------------------------------------
 BYTE   W18
 BYTE   Gn2
 BYTE   W06
 BYTE   Cn3
 BYTE   W06
 BYTE   Fn3
 BYTE   W66
//  #02 //039   ----------------------------------------
 BYTE   Cn3
 BYTE   W48
 BYTE   Dn3
 BYTE   W05
 BYTE   En3
 BYTE   W07
 BYTE   An2  v060
 BYTE   W12
 BYTE   Dn3  v056
 BYTE   W12
 BYTE   An2
 BYTE   W12
//  #02 //040   ----------------------------------------
 BYTE   Dn3
 BYTE   W12
 BYTE   An2  v060
 BYTE   W12
 BYTE   Dn3  v056
 BYTE   W12
 BYTE   An2
 BYTE   W12
 BYTE   Dn3
 BYTE   W12
 BYTE   An2
 BYTE   W12
 BYTE   Dn3
 BYTE   W12
 BYTE   An2
 BYTE   W12
//  #02 //041   ----------------------------------------
 BYTE   Dn3
 BYTE   W66
 BYTE   Gn2
 BYTE   W06
 BYTE   Cn3
 BYTE   W06
 BYTE   Fn3
 BYTE   W18
//  #02 //042   ----------------------------------------
 BYTE   W48
 BYTE   Cn3
 BYTE   W48
//  #02 //043   ----------------------------------------
 BYTE   Dn3
 BYTE   W05
 BYTE   En3
 BYTE   W07
 BYTE   An2  v060
 BYTE   W12
 BYTE   Dn3  v056
 BYTE   W12
 BYTE   An2
 BYTE   W12
 BYTE   Dn3
 BYTE   W12
 BYTE   An2  v060
 BYTE   W12
 BYTE   Dn3  v056
 BYTE   W12
 BYTE   An2
 BYTE   W12
//  #02 //044   ----------------------------------------
 BYTE   Dn3
 BYTE   W12
 BYTE   An2
 BYTE   W12
 BYTE   Dn3
 BYTE   W12
 BYTE   An2
 BYTE   W12
 BYTE   Dn3
 BYTE   W12
 BYTE   N12  En3  v036
 BYTE   N12  Fs3  v044
 BYTE   W12
 BYTE   En3  v036
 BYTE   N12  Fs3  v044
 BYTE   W22
 BYTE   Bn3  v024
 BYTE   W02
//  #02 //045   ----------------------------------------
 BYTE   Fs4  v032
 BYTE   W48
 BYTE   Dn3  v036
 BYTE   N12  En3  v044
 BYTE   W24
 BYTE   En3  v036
 BYTE   N12  Fs3  v044
 BYTE   W24
//  #02 //046   ----------------------------------------
 BYTE   W24
 BYTE   Dn3  v036
 BYTE   N12  En3  v044
 BYTE   W24
 BYTE   Bn2  v036
 BYTE   N12  Cs3  v044
 BYTE   W12
 BYTE   En3  v036
 BYTE   N12  Fs3  v044
 BYTE   W12
 BYTE   En3  v036
 BYTE   N12  Fs3  v044
 BYTE   W22
 BYTE   Bn3  v024
 BYTE   W02
//  #02 //047   ----------------------------------------
 BYTE   Fs4  v032
 BYTE   W24
 BYTE   En3  v036
 BYTE   N12  Fs3  v044
 BYTE   W24
 BYTE   Dn3  v036
 BYTE   N12  En3  v044
 BYTE   W24
 BYTE   En3  v036
 BYTE   N12  Fs3  v044
 BYTE   W12
 BYTE   En3  v036
 BYTE   N12  Fs3  v044
 BYTE   W12
//  #02 //048   ----------------------------------------
 BYTE   W48
 BYTE   Bn2  v036
 BYTE   N12  Cs3  v044
 BYTE   W12
 BYTE   En3  v036
 BYTE   N12  Fs3  v044
 BYTE   W12
 BYTE   En3  v036
 BYTE   N12  Fs3  v044
 BYTE   W24
//  #02 //049   ----------------------------------------
 BYTE   W48
 BYTE   Dn3  v036
 BYTE   N12  En3  v044
 BYTE   W24
 BYTE   En3  v036
 BYTE   N12  Fs3  v044
 BYTE   W24
//  #02 //050   ----------------------------------------
 BYTE   W24
 BYTE   Dn3  v036
 BYTE   N12  En3  v044
 BYTE   W24
 BYTE   Bn2  v036
 BYTE   N12  Cs3  v044
 BYTE   W12
 BYTE   En3  v036
 BYTE   N12  Fs3  v044
 BYTE   W12
 BYTE   En3  v036
 BYTE   N12  Fs3  v040
 BYTE   W24
//  #02 //051   ----------------------------------------
 BYTE   W24
 BYTE   En3  v036
 BYTE   N12  Fs3  v044
 BYTE   W24
 BYTE   Dn3  v036
 BYTE   N12  En3  v044
 BYTE   W24
 BYTE   En3  v036
 BYTE   N12  Fs3  v044
 BYTE   W12
 BYTE   En3  v036
 BYTE   N12  Fs3  v040
 BYTE   W12
//  #02 //052   ----------------------------------------
 BYTE   W24
 BYTE   En3  v036
 BYTE   N12  Fs3  v044
 BYTE   W24
 BYTE   Fs3  v036
 BYTE   N12  Gs3  v044
 BYTE   W12
 BYTE   GoTo
  POIN2 Label_01000F81
//  #02 //053   ----------------------------------------
 BYTE   W12
 BYTE   FINE

//**************** Track 3 (Midi-Chn.2) ****************//

FE13WedBestPrepareForCombatJustToBeSafeAzulaAlice_003:
//  #03 //000   ----------------------------------------
 BYTE   KEYSH   FE13WedBestPrepareForCombatJustToBeSafeAzulaAlice_key+0
 BYTE   VOICE   46
 BYTE   MODT 0
 BYTE   LFOS 44
 BYTE   VOL   70*FE13WedBestPrepareForCombatJustToBeSafeAzulaAlice_mvl/mxv
 BYTE   N05  Fs2  v048
 BYTE   N05  Fs3  v064
 BYTE   W12
Label_01001201:
 BYTE   N06  Bn2  v056
 BYTE   N06  Bn3  v072
 BYTE   W12
 BYTE   N05  Bn3  v040
 BYTE   W12
 BYTE   N05
 BYTE   W12
 BYTE   N05
 BYTE   W12
 BYTE   Bn3  v044
 BYTE   W12
 BYTE   Bn3  v036
 BYTE   W12
 BYTE   N04
 BYTE   W12
//  #03 //001   ----------------------------------------
Label_01001218:
 BYTE   N04  Bn3  v032
 BYTE   W12
 BYTE   N05
 BYTE   W12
 BYTE   Bn3  v028
 BYTE   W12
 BYTE   N05
 BYTE   W12
 BYTE   N05
 BYTE   W12
 BYTE   Bn3  v032
 BYTE   W12
 BYTE   Bn3  v028
 BYTE   W12
 BYTE   N04
 BYTE   W12
 BYTE   PEND 
//  #03 //002   ----------------------------------------
Label_0100122E:
 BYTE   N04  Bn3  v028
 BYTE   W12
 BYTE   N05  Bn3  v032
 BYTE   W12
 BYTE   Bn3  v028
 BYTE   W12
 BYTE   N05
 BYTE   W12
 BYTE   N05
 BYTE   W12
 BYTE   Bn3  v032
 BYTE   W12
 BYTE   Bn3  v028
 BYTE   W12
 BYTE   N04
 BYTE   W12
 BYTE   PEND 
//  #03 //003   ----------------------------------------
 BYTE   PATT
  POIN2 Label_0100122E
//  #03 //004   ----------------------------------------
Label_0100124B:
 BYTE   N05  Fs2  v048
 BYTE   N05  Fs3  v064
 BYTE   W12
 BYTE   N06  Bn2  v056
 BYTE   N06  Bn3  v072
 BYTE   W12
 BYTE   N05  Bn3  v040
 BYTE   W12
 BYTE   Bn3  v036
 BYTE   W12
 BYTE   Bn3  v032
 BYTE   W12
 BYTE   N05
 BYTE   W12
 BYTE   Bn3  v028
 BYTE   W12
 BYTE   N04
 BYTE   W12
 BYTE   PEND 
//  #03 //005   ----------------------------------------
 BYTE   PATT
  POIN2 Label_0100122E
//  #03 //006   ----------------------------------------
 BYTE   PATT
  POIN2 Label_0100122E
//  #03 //007   ----------------------------------------
 BYTE   PATT
  POIN2 Label_0100122E
//  #03 //008   ----------------------------------------
 BYTE   PATT
  POIN2 Label_0100122E
//  #03 //009   ----------------------------------------
 BYTE   N05  Fs2  v048
 BYTE   N05  Fs3  v064
 BYTE   W12
 BYTE   N06  Bn2  v056
 BYTE   N06  Bn3  v072
 BYTE   W12
 BYTE   N05  Bn3  v040
 BYTE   W12
 BYTE   N05
 BYTE   W12
 BYTE   N05
 BYTE   W12
 BYTE   Bn3  v044
 BYTE   W12
 BYTE   Bn3  v036
 BYTE   W12
 BYTE   N04
 BYTE   W12
//  #03 //010   ----------------------------------------
 BYTE   PATT
  POIN2 Label_01001218
//  #03 //011   ----------------------------------------
 BYTE   PATT
  POIN2 Label_0100122E
//  #03 //012   ----------------------------------------
 BYTE   PATT
  POIN2 Label_0100122E
//  #03 //013   ----------------------------------------
 BYTE   PATT
  POIN2 Label_0100124B
//  #03 //014   ----------------------------------------
 BYTE   PATT
  POIN2 Label_0100122E
//  #03 //015   ----------------------------------------
 BYTE   PATT
  POIN2 Label_0100122E
//  #03 //016   ----------------------------------------
 BYTE   PATT
  POIN2 Label_0100122E
//  #03 //017   ----------------------------------------
 BYTE   PATT
  POIN2 Label_0100122E
//  #03 //018   ----------------------------------------
 BYTE   N04  Bn3  v028
 BYTE   W12
 BYTE   N05
 BYTE   W12
 BYTE   Bn3  v032
 BYTE   W12
 BYTE   N05
 BYTE   W12
 BYTE   Bn3  v036
 BYTE   W12
 BYTE   Bn3  v040
 BYTE   W12
 BYTE   Bn3  v044
 BYTE   W12
 BYTE   N04
 BYTE   W12
//  #03 //019   ----------------------------------------
 BYTE   Bn3  v048
 BYTE   W12
 BYTE   N06  Gs2  v056
 BYTE   N06  Gs3  v076
 BYTE   W12
 BYTE   N05  Gs3  v040
 BYTE   W12
 BYTE   N05
 BYTE   W12
 BYTE   N05
 BYTE   W12
 BYTE   Gs3  v044
 BYTE   W12
 BYTE   Gs3  v040
 BYTE   W12
 BYTE   N04
 BYTE   W12
//  #03 //020   ----------------------------------------
Label_010012F5:
 BYTE   N04  Gs3  v040
 BYTE   W12
 BYTE   N05  Gs3  v044
 BYTE   W12
 BYTE   Gs3  v040
 BYTE   W12
 BYTE   N05
 BYTE   W12
 BYTE   N05
 BYTE   W12
 BYTE   Gs3  v044
 BYTE   W12
 BYTE   Gs3  v040
 BYTE   W12
 BYTE   N04
 BYTE   W12
 BYTE   PEND 
//  #03 //021   ----------------------------------------
 BYTE   PATT
  POIN2 Label_010012F5
//  #03 //022   ----------------------------------------
 BYTE   PATT
  POIN2 Label_010012F5
//  #03 //023   ----------------------------------------
 BYTE   PATT
  POIN2 Label_010012F5
//  #03 //024   ----------------------------------------
 BYTE   PATT
  POIN2 Label_010012F5
//  #03 //025   ----------------------------------------
 BYTE   N04  Gs3  v040
 BYTE   W12
 BYTE   N05  Gs3  v032
 BYTE   W12
 BYTE   Fs3  v028
 BYTE   W12
 BYTE   Gs3
 BYTE   W12
 BYTE   As3
 BYTE   W12
 BYTE   Gs3  v032
 BYTE   W12
 BYTE   Fs3  v028
 BYTE   W12
 BYTE   N04  Gs3
 BYTE   W12
//  #03 //026   ----------------------------------------
 BYTE   As3
 BYTE   W12
 BYTE   N05  Gs3  v032
 BYTE   W12
 BYTE   Fs3  v028
 BYTE   W12
 BYTE   Gs3
 BYTE   W12
 BYTE   As3
 BYTE   W12
 BYTE   Gs3  v032
 BYTE   W12
 BYTE   Fs3  v028
 BYTE   W12
 BYTE   N04  Gs3
 BYTE   W12
//  #03 //027   ----------------------------------------
 BYTE   As3
 BYTE   W12
 BYTE   N09  En3  v048
 BYTE   N05  Gs3  v044
 BYTE   W12
 BYTE   Fs3  v040
 BYTE   W12
 BYTE   Gs3
 BYTE   W12
 BYTE   N01  As3  v048
 BYTE   W12
 BYTE   N05  Gs3  v044
 BYTE   W12
 BYTE   Fs3  v040
 BYTE   W12
 BYTE   N09  Cs3  v048
 BYTE   N04  Gs3  v040
 BYTE   W12
//  #03 //028   ----------------------------------------
 BYTE   As3
 BYTE   W12
 BYTE   N05  Gs3  v044
 BYTE   W12
 BYTE   N01  Fs3  v048
 BYTE   W12
 BYTE   N05  Gs3  v040
 BYTE   W12
 BYTE   Cs4
 BYTE   W12
 BYTE   N09  En3  v048
 BYTE   N05  Gs3  v044
 BYTE   W12
 BYTE   Fs3  v040
 BYTE   W12
 BYTE   N04  Gs3
 BYTE   W12
//  #03 //029   ----------------------------------------
 BYTE   N01  As3  v048
 BYTE   W12
 BYTE   N05  Gs3  v044
 BYTE   W12
 BYTE   N09  Bn2  v048
 BYTE   N05  Fs3  v040
 BYTE   W12
 BYTE   Gs3  v044
 BYTE   W12
 BYTE   N04  Cs4  v040
 BYTE   W12
 BYTE   N96  Cs3
 BYTE   N05  Gs3  v044
 BYTE   W24
 BYTE   Gs3  v040
 BYTE   W12
//  #03 //030   ----------------------------------------
 BYTE   W12
 BYTE   Gs3  v044
 BYTE   W24
 BYTE   N04  Gs3  v040
 BYTE   W24
 BYTE   N09  En3  v048
 BYTE   N05  Gs3  v044
 BYTE   W12
 BYTE   Cs4  v040
 BYTE   W12
 BYTE   Gs3
 BYTE   W12
//  #03 //031   ----------------------------------------
 BYTE   N09  As3  v048
 BYTE   N05  Cs4  v040
 BYTE   W12
 BYTE   Gs3  v044
 BYTE   W12
 BYTE   Bn3  v040
 BYTE   W12
 BYTE   N09  Cs3  v048
 BYTE   N04  Gs3  v040
 BYTE   W12
 BYTE   Cs4
 BYTE   W12
 BYTE   N05  Gs3  v044
 BYTE   W12
 BYTE   N09  Fs3  v048
 BYTE   N05  Cs4  v040
 BYTE   W12
 BYTE   Gs3
 BYTE   W12
//  #03 //032   ----------------------------------------
 BYTE   Cs4
 BYTE   W12
 BYTE   N09  En3  v048
 BYTE   N05  Gs3  v044
 BYTE   W12
 BYTE   Cs4  v040
 BYTE   W12
 BYTE   N04  Gs3
 BYTE   W12
 BYTE   N09  As3  v048
 BYTE   N04  Cs4  v040
 BYTE   W24
 BYTE   N08  Bn2  v048
 BYTE   W24
//  #03 //033   ----------------------------------------
 BYTE   W36
 BYTE   N24  Gs2  v040
 BYTE   W24
 BYTE   Cs3  v044
 BYTE   W24
 BYTE   N23  Fs3  v040
 BYTE   W12
//  #03 //034   ----------------------------------------
 BYTE   W12
 BYTE   N24  Ds3
 BYTE   N05  Gs3  v044
 BYTE   W12
 BYTE   Cs4  v040
 BYTE   W12
 BYTE   Gs3
 BYTE   W12
 BYTE   N09  As3  v048
 BYTE   N05  Cs4  v040
 BYTE   W12
 BYTE   Gs3  v044
 BYTE   W12
 BYTE   Bn3  v040
 BYTE   W12
 BYTE   N09  Cs3  v048
 BYTE   N04  Gs3  v040
 BYTE   W12
//  #03 //035   ----------------------------------------
 BYTE   Cs4
 BYTE   W12
 BYTE   N05  Gs3  v044
 BYTE   W12
 BYTE   N09  Fs3  v048
 BYTE   N05  Cs4  v040
 BYTE   W12
 BYTE   Gs3
 BYTE   W12
 BYTE   Cs4
 BYTE   W12
 BYTE   N09  En3  v048
 BYTE   N05  Gs3  v044
 BYTE   W12
 BYTE   Cs4  v040
 BYTE   W12
 BYTE   N04  Gs3
 BYTE   W12
//  #03 //036   ----------------------------------------
 BYTE   N09  As3  v048
 BYTE   N04  Cs4  v040
 BYTE   W24
 BYTE   N08  Bn2  v048
 BYTE   W36
 BYTE   N24  Fs2  v044
 BYTE   W24
 BYTE   En2  v040
 BYTE   W12
//  #03 //037   ----------------------------------------
 BYTE   W12
 BYTE   Gs2  v044
 BYTE   W24
 BYTE   N23  Bn2  v040
 BYTE   W24
 BYTE   N09  Fn3  v048
 BYTE   N05  An3  v044
 BYTE   W12
 BYTE   Dn4  v040
 BYTE   W12
 BYTE   An3
 BYTE   W12
//  #03 //038   ----------------------------------------
 BYTE   N01  Bn3  v048
 BYTE   W12
 BYTE   N05  An3  v044
 BYTE   W12
 BYTE   Cn4  v040
 BYTE   W12
 BYTE   N09  Dn3  v048
 BYTE   N04  An3  v040
 BYTE   W12
 BYTE   Dn4
 BYTE   W12
 BYTE   N05  An3  v044
 BYTE   W12
 BYTE   N09  Gn3  v048
 BYTE   N05  Dn4  v040
 BYTE   W12
 BYTE   An3
 BYTE   W12
//  #03 //039   ----------------------------------------
 BYTE   Cn4
 BYTE   W12
 BYTE   N09  Fn3  v048
 BYTE   N05  An3  v044
 BYTE   W12
 BYTE   Dn4  v040
 BYTE   W12
 BYTE   N04  An3
 BYTE   W12
 BYTE   N09  Bn3  v048
 BYTE   N04  Dn4  v040
 BYTE   W24
 BYTE   N08  Cn3  v048
 BYTE   W24
//  #03 //040   ----------------------------------------
 BYTE   W12
 BYTE   N24  Cn3  v040
 BYTE   W24
 BYTE   Dn3
 BYTE   W24
 BYTE   Bn2
 BYTE   W24
 BYTE   N23  Gn2  v036
 BYTE   W12
//  #03 //041   ----------------------------------------
 BYTE   W12
 BYTE   N09  Fn3  v048
 BYTE   N05  An3  v044
 BYTE   W12
 BYTE   Dn4  v040
 BYTE   W12
 BYTE   An3
 BYTE   W12
 BYTE   N09  Bn3  v048
 BYTE   N05  Dn4  v040
 BYTE   W12
 BYTE   An3  v044
 BYTE   W12
 BYTE   Cn4  v040
 BYTE   W12
 BYTE   N09  Dn3  v048
 BYTE   N04  An3  v040
 BYTE   W12
//  #03 //042   ----------------------------------------
 BYTE   Dn4
 BYTE   W12
 BYTE   N05  An3  v044
 BYTE   W12
 BYTE   N09  Gn3  v048
 BYTE   N05  Dn4  v040
 BYTE   W12
 BYTE   An3
 BYTE   W12
 BYTE   Cn4
 BYTE   W12
 BYTE   N09  Fn3  v048
 BYTE   N05  An3  v044
 BYTE   W12
 BYTE   Dn4  v040
 BYTE   W12
 BYTE   N04  An3
 BYTE   W12
//  #03 //043   ----------------------------------------
 BYTE   N09  Bn3  v048
 BYTE   N04  Dn4  v040
 BYTE   W24
 BYTE   N08  Cn3  v048
 BYTE   W36
 BYTE   N92  Fn2  v040
 BYTE   W36
//  #03 //044   ----------------------------------------
 BYTE   W60
 BYTE   N06  En2  v096
 BYTE   N06  En3  v112
 BYTE   W12
 BYTE   En2  v088
 BYTE   N05  En3  v112
 BYTE   W24
//  #03 //045   ----------------------------------------
 BYTE   W48
 BYTE   Dn2  v088
 BYTE   N05  Dn3  v112
 BYTE   W24
 BYTE   N06  En2  v088
 BYTE   N06  En3  v112
 BYTE   W18
 BYTE   En3  v072
 BYTE   W06
//  #03 //046   ----------------------------------------
 BYTE   N05  Fs3
 BYTE   W06
 BYTE   N06  Bn2
 BYTE   W18
 BYTE   Dn2  v088
 BYTE   N06  Dn3  v112
 BYTE   W24
 BYTE   N05  Bn1  v088
 BYTE   N05  Bn2  v112
 BYTE   W12
 BYTE   N06  En2  v096
 BYTE   N06  En3  v120
 BYTE   W12
 BYTE   En2  v088
 BYTE   N05  En3  v104
 BYTE   W24
//  #03 //047   ----------------------------------------
 BYTE   W24
 BYTE   N06  En2  v088
 BYTE   N06  En3  v112
 BYTE   W24
 BYTE   N05  Dn2  v088
 BYTE   N05  Dn3  v112
 BYTE   W24
 BYTE   N06  En2  v088
 BYTE   N06  En3  v112
 BYTE   W12
 BYTE   En2  v088
 BYTE   N06  En3  v108
 BYTE   W12
//  #03 //048   ----------------------------------------
 BYTE   W06
 BYTE   En3  v072
 BYTE   W06
 BYTE   Fs3  v076
 BYTE   W06
 BYTE   Bn2  v072
 BYTE   W06
 BYTE   N05  An2
 BYTE   W06
 BYTE   An3
 BYTE   W18
 BYTE   Bn1  v088
 BYTE   N05  Bn2  v112
 BYTE   W12
 BYTE   N06  En2  v096
 BYTE   N06  En3  v120
 BYTE   W12
 BYTE   En2  v088
 BYTE   N06  En3  v104
 BYTE   W12
 BYTE   Bn2  v072
 BYTE   W06
 BYTE   Fs3  v060
 BYTE   N06  Bn3  v080
 BYTE   W06
//  #03 //049   ----------------------------------------
 BYTE   N05  En3  v072
 BYTE   W06
 BYTE   N06  Gn2
 BYTE   W06
 BYTE   Dn3  v076
 BYTE   W06
 BYTE   An3  v060
 BYTE   N06  Dn4  v080
 BYTE   W06
 BYTE   N05  Gn3  v072
 BYTE   W06
 BYTE   Cn3
 BYTE   W06
 BYTE   Gn3
 BYTE   W06
 BYTE   Dn4  v060
 BYTE   N06  Gn4  v080
 BYTE   W06
 BYTE   N05  Dn3  v072
 BYTE   W05
 BYTE   N06  En3
 BYTE   W07
 BYTE   Fs3  v068
 BYTE   N06  Bn3  v084
 BYTE   W06
 BYTE   Bn2  v072
 BYTE   W06
 BYTE   En3
 BYTE   W06
 BYTE   Fs3  v060
 BYTE   N06  Cs4  v080
 BYTE   W06
 BYTE   Bn3  v072
 BYTE   W06
 BYTE   Fs3
 BYTE   W06
//  #03 //050   ----------------------------------------
 BYTE   N05  Bn2
 BYTE   W06
 BYTE   N03  En3
 BYTE   W03
 BYTE   Fs3
 BYTE   W03
 BYTE   N06  Bn3  v076
 BYTE   W06
 BYTE   Fs3  v072
 BYTE   W06
 BYTE   N05  En3
 BYTE   W06
 BYTE   Bn2
 BYTE   W06
 BYTE   N11  Dn3
 BYTE   W12
 BYTE   Bn1  v056
 BYTE   N11  Bn2  v080
 BYTE   W12
 BYTE   N06  En2  v096
 BYTE   N06  En3  v120
 BYTE   W12
 BYTE   En2  v088
 BYTE   N06  En3  v104
 BYTE   W12
 BYTE   N03  Bn2  v072
 BYTE   W03
 BYTE   En3
 BYTE   W03
 BYTE   N06  Fs3
 BYTE   W06
//  #03 //051   ----------------------------------------
 BYTE   N05  En3
 BYTE   W06
 BYTE   N06  An3
 BYTE   W06
 BYTE   Bn3  v076
 BYTE   W06
 BYTE   En4  v072
 BYTE   W06
 BYTE   N03  An3
 BYTE   W03
 BYTE   Gn3
 BYTE   W03
 BYTE   N05  Dn3
 BYTE   W06
 BYTE   Cn3
 BYTE   W06
 BYTE   Gn2
 BYTE   W06
 BYTE   An2
 BYTE   W05
 BYTE   N06  Dn3
 BYTE   W07
 BYTE   N03  Bn3  v076
 BYTE   W04
 BYTE   N02  An3  v072
 BYTE   W02
 BYTE   N06  En3
 BYTE   W06
 BYTE   N03  Fs3
 BYTE   W03
 BYTE   En3
 BYTE   W03
 BYTE   N06  An2
 BYTE   W06
 BYTE   Bn2
 BYTE   W06
 BYTE   Bn3
 BYTE   W06
//  #03 //052   ----------------------------------------
 BYTE   W12
 BYTE   Bn2  v076
 BYTE   W06
 BYTE   Bn3  v072
 BYTE   W06
 BYTE   N05  En3
 BYTE   W06
 BYTE   N06  Bn2
 BYTE   W06
 BYTE   N05  En3  v092
 BYTE   N06  Bn3  v112
 BYTE   W12
 BYTE   N05  Fs3  v088
 BYTE   N05  Cs4  v112
 BYTE   W12
 BYTE   GoTo
  POIN2 Label_01001201
//  #03 //053   ----------------------------------------
 BYTE   W12
 BYTE   FINE

//**************** Track 4 (Midi-Chn.3) ****************//

FE13WedBestPrepareForCombatJustToBeSafeAzulaAlice_004:
//  #04 //000   ----------------------------------------
 BYTE   KEYSH   FE13WedBestPrepareForCombatJustToBeSafeAzulaAlice_key+0
 BYTE   VOICE   58
 BYTE   MODT 0
 BYTE   LFOS 44
 BYTE   VOL   54*FE13WedBestPrepareForCombatJustToBeSafeAzulaAlice_mvl/mxv
 BYTE   PAN   c_v-26
 BYTE   W12
Label_01000881:
 BYTE   W84
//  #04 //001   ----------------------------------------
 BYTE   W96
//  #04 //002   ----------------------------------------
 BYTE   W96
//  #04 //003   ----------------------------------------
 BYTE   W96
//  #04 //004   ----------------------------------------
 BYTE   W96
//  #04 //005   ----------------------------------------
 BYTE   W96
//  #04 //006   ----------------------------------------
 BYTE   W96
//  #04 //007   ----------------------------------------
 BYTE   W96
//  #04 //008   ----------------------------------------
 BYTE   W96
//  #04 //009   ----------------------------------------
 BYTE   W96
//  #04 //010   ----------------------------------------
 BYTE   W96
//  #04 //011   ----------------------------------------
 BYTE   W96
//  #04 //012   ----------------------------------------
 BYTE   W96
//  #04 //013   ----------------------------------------
 BYTE   W96
//  #04 //014   ----------------------------------------
 BYTE   W96
//  #04 //015   ----------------------------------------
 BYTE   W96
//  #04 //016   ----------------------------------------
 BYTE   W96
//  #04 //017   ----------------------------------------
 BYTE   W96
//  #04 //018   ----------------------------------------
 BYTE   W96
//  #04 //019   ----------------------------------------
 BYTE   W96
//  #04 //020   ----------------------------------------
 BYTE   W36
 BYTE   N72  Gs1  v040
 BYTE   W60
//  #04 //021   ----------------------------------------
 BYTE   W12
 BYTE   N48
 BYTE   W48
 BYTE   TIE  Cs2
 BYTE   W36
//  #04 //022   ----------------------------------------
 BYTE   W72
 BYTE   EOT
 BYTE   N12  Fn2
 BYTE   W12
 BYTE   Cs2
 BYTE   W12
//  #04 //023   ----------------------------------------
 BYTE   TIE  Ds2
 BYTE   W96
//  #04 //024   ----------------------------------------
 BYTE   W12
 BYTE   EOT
 BYTE   W84
//  #04 //025   ----------------------------------------
 BYTE   W96
//  #04 //026   ----------------------------------------
 BYTE   W96
//  #04 //027   ----------------------------------------
 BYTE   W96
//  #04 //028   ----------------------------------------
 BYTE   W96
//  #04 //029   ----------------------------------------
 BYTE   W96
//  #04 //030   ----------------------------------------
 BYTE   W96
//  #04 //031   ----------------------------------------
 BYTE   W96
//  #04 //032   ----------------------------------------
 BYTE   W96
//  #04 //033   ----------------------------------------
 BYTE   W96
//  #04 //034   ----------------------------------------
 BYTE   W96
//  #04 //035   ----------------------------------------
 BYTE   W96
//  #04 //036   ----------------------------------------
 BYTE   W96
//  #04 //037   ----------------------------------------
 BYTE   W96
//  #04 //038   ----------------------------------------
 BYTE   W96
//  #04 //039   ----------------------------------------
 BYTE   W96
//  #04 //040   ----------------------------------------
 BYTE   W96
//  #04 //041   ----------------------------------------
 BYTE   W96
//  #04 //042   ----------------------------------------
 BYTE   W96
//  #04 //043   ----------------------------------------
 BYTE   W96
//  #04 //044   ----------------------------------------
 BYTE   W96
//  #04 //045   ----------------------------------------
 BYTE   W96
//  #04 //046   ----------------------------------------
 BYTE   W96
//  #04 //047   ----------------------------------------
 BYTE   W96
//  #04 //048   ----------------------------------------
 BYTE   W96
//  #04 //049   ----------------------------------------
 BYTE   W96
//  #04 //050   ----------------------------------------
 BYTE   W96
//  #04 //051   ----------------------------------------
 BYTE   W96
//  #04 //052   ----------------------------------------
 BYTE   W60
 BYTE   GoTo
  POIN2 Label_01000881
//  #04 //053   ----------------------------------------
 BYTE   W12
 BYTE   FINE

//**************** Track 5 (Midi-Chn.4) ****************//

FE13WedBestPrepareForCombatJustToBeSafeAzulaAlice_005:
//  #05 //000   ----------------------------------------
 BYTE   KEYSH   FE13WedBestPrepareForCombatJustToBeSafeAzulaAlice_key+0
 BYTE   VOICE   40
 BYTE   MODT 0
 BYTE   LFOS 44
 BYTE   VOL   76*FE13WedBestPrepareForCombatJustToBeSafeAzulaAlice_mvl/mxv
 BYTE   PAN   c_v+24
 BYTE   W12
Label_01000A8D:
 BYTE   W84
//  #05 //001   ----------------------------------------
Label_01000A8E:
 BYTE   W18
 BYTE   N18  Cs3  v040
 BYTE   W18
 BYTE   N12  Fs3
 BYTE   W12
 BYTE   En3
 BYTE   W06
 BYTE   N18  Cs3
 BYTE   W12
 BYTE   Bn2
 BYTE   W06
 BYTE   Bn3
 BYTE   W18
 BYTE   N12  Cs3
 BYTE   W06
 BYTE   PEND 
//  #05 //002   ----------------------------------------
Label_01000AA3:
 BYTE   W12
 BYTE   N18  An3  v044
 BYTE   W06
 BYTE   Fs3  v040
 BYTE   W12
 BYTE   Cs3
 BYTE   W18
 BYTE   N24  Gs3
 BYTE   W18
 BYTE   N18  En3
 BYTE   W18
 BYTE   Fs3
 BYTE   W12
 BYTE   PEND 
//  #05 //003   ----------------------------------------
Label_01000AB6:
 BYTE   W05
 BYTE   N24  Cs3  v040
 BYTE   W90
 BYTE   W01
 BYTE   PEND 
//  #05 //004   ----------------------------------------
 BYTE   PATT
  POIN2 Label_01000A8E
//  #05 //005   ----------------------------------------
 BYTE   PATT
  POIN2 Label_01000AA3
//  #05 //006   ----------------------------------------
Label_01000AC7:
 BYTE   W05
 BYTE   N18  Cs3  v040
 BYTE   W78
 BYTE   W01
 BYTE   En3
 BYTE   W12
 BYTE   PEND 
//  #05 //007   ----------------------------------------
Label_01000AD0:
 BYTE   W05
 BYTE   N18  Fs3  v040
 BYTE   W19
 BYTE   Cs3
 BYTE   W72
 BYTE   PEND 
//  #05 //008   ----------------------------------------
Label_01000AD8:
 BYTE   W05
 BYTE   N18  Cs3  v040
 BYTE   W90
 BYTE   W01
 BYTE   PEND 
//  #05 //009   ----------------------------------------
 BYTE   PAN   c_v+24
 BYTE   W96
//  #05 //010   ----------------------------------------
 BYTE   PATT
  POIN2 Label_01000A8E
//  #05 //011   ----------------------------------------
 BYTE   PATT
  POIN2 Label_01000AA3
//  #05 //012   ----------------------------------------
 BYTE   PATT
  POIN2 Label_01000AB6
//  #05 //013   ----------------------------------------
 BYTE   PATT
  POIN2 Label_01000A8E
//  #05 //014   ----------------------------------------
 BYTE   PATT
  POIN2 Label_01000AA3
//  #05 //015   ----------------------------------------
 BYTE   PATT
  POIN2 Label_01000AC7
//  #05 //016   ----------------------------------------
 BYTE   PATT
  POIN2 Label_01000AD0
//  #05 //017   ----------------------------------------
 BYTE   PATT
  POIN2 Label_01000AD8
//  #05 //018   ----------------------------------------
 BYTE   W54
 BYTE   N12  Fs2  v024
 BYTE   N12  Fs3  v032
 BYTE   W12
 BYTE   Bn2  v024
 BYTE   N12  Bn3  v032
 BYTE   W12
 BYTE   N10  Cs3  v024
 BYTE   N12  Cs4  v036
 BYTE   W12
 BYTE   N10  En3  v028
 BYTE   N12  En4  v036
 BYTE   W06
//  #05 //019   ----------------------------------------
 BYTE   W05
 BYTE   Fs3  v028
 BYTE   N12  Fs4  v036
 BYTE   W07
 BYTE   Gs3  v048
 BYTE   N12  Gs4  v056
 BYTE   W84
//  #05 //020   ----------------------------------------
 BYTE   W96
//  #05 //021   ----------------------------------------
 BYTE   W96
//  #05 //022   ----------------------------------------
 BYTE   W96
//  #05 //023   ----------------------------------------
 BYTE   W24
 BYTE   N09  Gs2  v040
 BYTE   W06
 BYTE   Gs3
 BYTE   W12
 BYTE   Gs2
 BYTE   W12
 BYTE   Fs3
 BYTE   W42
//  #05 //024   ----------------------------------------
 BYTE   W05
 BYTE   Gs3
 BYTE   W07
 BYTE   Cs3  v044
 BYTE   W06
 BYTE   Gs2  v040
 BYTE   W12
 BYTE   Fs3
 BYTE   W66
//  #05 //025   ----------------------------------------
 BYTE   W18
 BYTE   Ds3
 BYTE   W06
 BYTE   Cs3
 BYTE   W18
 BYTE   As3
 BYTE   W06
 BYTE   Cs3
 BYTE   W18
 BYTE   Ds3
 BYTE   W06
 BYTE   Cs3
 BYTE   W18
 BYTE   As3
 BYTE   W06
//  #05 //026   ----------------------------------------
Label_01000B5B:
 BYTE   N09  Cs3  v040
 BYTE   W18
 BYTE   Ds3
 BYTE   W06
 BYTE   Cs3
 BYTE   W18
 BYTE   As3
 BYTE   W06
 BYTE   Cs3
 BYTE   W18
 BYTE   Ds3
 BYTE   W06
 BYTE   Cs3
 BYTE   W18
 BYTE   As3
 BYTE   W06
 BYTE   PEND 
//  #05 //027   ----------------------------------------
 BYTE   PATT
  POIN2 Label_01000B5B
//  #05 //028   ----------------------------------------
 BYTE   PATT
  POIN2 Label_01000B5B
//  #05 //029   ----------------------------------------
 BYTE   PATT
  POIN2 Label_01000B5B
//  #05 //030   ----------------------------------------
 BYTE   N09  Cs3  v040
 BYTE   W18
 BYTE   Ds3
 BYTE   W06
 BYTE   Cs3
 BYTE   W18
 BYTE   As3
 BYTE   W06
 BYTE   Cs3
 BYTE   W48
//  #05 //031   ----------------------------------------
 BYTE   W24
 BYTE   Bn2  v056
 BYTE   W06
 BYTE   En3
 BYTE   W66
//  #05 //032   ----------------------------------------
 BYTE   W60
 BYTE   Gs2  v060
 BYTE   W12
 BYTE   Cs3  v056
 BYTE   W12
 BYTE   Gs2
 BYTE   W12
//  #05 //033   ----------------------------------------
 BYTE   Cs3
 BYTE   W12
 BYTE   Gs2  v060
 BYTE   W12
 BYTE   Cs3  v056
 BYTE   W12
 BYTE   Gs2
 BYTE   W12
 BYTE   Cs3
 BYTE   W12
 BYTE   Gs2
 BYTE   W12
 BYTE   Cs3
 BYTE   W12
 BYTE   Gs2
 BYTE   W12
//  #05 //034   ----------------------------------------
 BYTE   Cs3
 BYTE   W72
 BYTE   Bn2
 BYTE   W06
 BYTE   En3
 BYTE   W18
//  #05 //035   ----------------------------------------
 BYTE   W96
//  #05 //036   ----------------------------------------
 BYTE   W12
 BYTE   Gs2  v060
 BYTE   W12
 BYTE   Cs3  v056
 BYTE   W12
 BYTE   Gs2
 BYTE   W12
 BYTE   Cs3
 BYTE   W12
 BYTE   Gs2  v060
 BYTE   W12
 BYTE   Cs3  v056
 BYTE   W12
 BYTE   Gs2
 BYTE   W12
//  #05 //037   ----------------------------------------
 BYTE   Cs3
 BYTE   W12
 BYTE   Gs2
 BYTE   W12
 BYTE   Cs3
 BYTE   W12
 BYTE   Gs2
 BYTE   W12
 BYTE   Cs3
 BYTE   W48
//  #05 //038   ----------------------------------------
 BYTE   W18
 BYTE   Gn2
 BYTE   W06
 BYTE   Cn3
 BYTE   W06
 BYTE   Fn3
 BYTE   W66
//  #05 //039   ----------------------------------------
 BYTE   Cn3
 BYTE   W48
 BYTE   Dn3
 BYTE   W05
 BYTE   En3
 BYTE   W07
 BYTE   An2  v060
 BYTE   W12
 BYTE   Dn3  v056
 BYTE   W12
 BYTE   An2
 BYTE   W12
//  #05 //040   ----------------------------------------
 BYTE   Dn3
 BYTE   W12
 BYTE   An2  v060
 BYTE   W12
 BYTE   Dn3  v056
 BYTE   W12
 BYTE   An2
 BYTE   W12
 BYTE   Dn3
 BYTE   W12
 BYTE   An2
 BYTE   W12
 BYTE   Dn3
 BYTE   W12
 BYTE   An2
 BYTE   W12
//  #05 //041   ----------------------------------------
 BYTE   Dn3
 BYTE   W66
 BYTE   Gn2
 BYTE   W06
 BYTE   Cn3
 BYTE   W06
 BYTE   Fn3
 BYTE   W18
//  #05 //042   ----------------------------------------
 BYTE   W48
 BYTE   Cn3
 BYTE   W48
//  #05 //043   ----------------------------------------
 BYTE   Dn3
 BYTE   W05
 BYTE   En3
 BYTE   W07
 BYTE   An2  v060
 BYTE   W12
 BYTE   Dn3  v056
 BYTE   W12
 BYTE   An2
 BYTE   W12
 BYTE   Dn3
 BYTE   W12
 BYTE   An2  v060
 BYTE   W12
 BYTE   Dn3  v056
 BYTE   W12
 BYTE   An2
 BYTE   W12
//  #05 //044   ----------------------------------------
 BYTE   Dn3
 BYTE   W12
 BYTE   An2
 BYTE   W12
 BYTE   Dn3
 BYTE   W12
 BYTE   An2
 BYTE   W12
 BYTE   Dn3
 BYTE   W12
 BYTE   N12  Bn2  v036
 BYTE   N12  Fs3  v044
 BYTE   W12
 BYTE   Bn2  v036
 BYTE   N12  Fs3  v044
 BYTE   W24
//  #05 //045   ----------------------------------------
Label_01000C2D:
 BYTE   W48
 BYTE   N12  An2  v036
 BYTE   N12  En3  v044
 BYTE   W24
 BYTE   Bn2  v036
 BYTE   N12  Fs3  v044
 BYTE   W24
 BYTE   PEND 
//  #05 //046   ----------------------------------------
 BYTE   W24
 BYTE   An2  v036
 BYTE   N12  En3  v044
 BYTE   W24
 BYTE   Fs2  v036
 BYTE   N12  Cs3  v044
 BYTE   W12
 BYTE   Bn2  v036
 BYTE   N12  Fs3  v044
 BYTE   W12
 BYTE   Bn2  v036
 BYTE   N12  Fs3  v044
 BYTE   W24
//  #05 //047   ----------------------------------------
 BYTE   W24
 BYTE   Bn2  v036
 BYTE   N12  Fs3  v044
 BYTE   W24
 BYTE   An2  v036
 BYTE   N12  En3  v044
 BYTE   W24
 BYTE   Bn2  v036
 BYTE   N12  Fs3  v044
 BYTE   W12
 BYTE   Bn2  v036
 BYTE   N12  Fs3  v044
 BYTE   W12
//  #05 //048   ----------------------------------------
 BYTE   W48
 BYTE   Fs2  v036
 BYTE   N12  Cs3  v044
 BYTE   W12
 BYTE   Bn2  v036
 BYTE   N12  Fs3  v044
 BYTE   W12
 BYTE   Bn2  v036
 BYTE   N12  Fs3  v044
 BYTE   W24
//  #05 //049   ----------------------------------------
 BYTE   PATT
  POIN2 Label_01000C2D
//  #05 //050   ----------------------------------------
 BYTE   W24
 BYTE   N12  An2  v036
 BYTE   N12  En3  v044
 BYTE   W24
 BYTE   Fs2  v036
 BYTE   N12  Cs3  v044
 BYTE   W12
 BYTE   Bn2  v036
 BYTE   N12  Fs3  v044
 BYTE   W12
 BYTE   Bn2  v036
 BYTE   N12  Fs3  v040
 BYTE   W24
//  #05 //051   ----------------------------------------
 BYTE   W24
 BYTE   Bn2  v036
 BYTE   N12  Fs3  v044
 BYTE   W24
 BYTE   An2  v036
 BYTE   N12  En3  v044
 BYTE   W24
 BYTE   Bn2  v036
 BYTE   N12  Fs3  v044
 BYTE   W12
 BYTE   Bn2  v036
 BYTE   N12  Fs3  v040
 BYTE   W12
//  #05 //052   ----------------------------------------
 BYTE   W24
 BYTE   Bn2  v036
 BYTE   N12  Fs3  v044
 BYTE   W24
 BYTE   Cs3  v036
 BYTE   N12  Gs3  v044
 BYTE   W12
 BYTE   GoTo
  POIN2 Label_01000A8D
//  #05 //053   ----------------------------------------
 BYTE   W12
 BYTE   FINE

//**************** Track 6 (Midi-Chn.5) ****************//

FE13WedBestPrepareForCombatJustToBeSafeAzulaAlice_006:
//  #06 //000   ----------------------------------------
 BYTE   KEYSH   FE13WedBestPrepareForCombatJustToBeSafeAzulaAlice_key+0
 BYTE   VOICE   34
 BYTE   MODT 0
 BYTE   LFOS 44
 BYTE   VOL   64*FE13WedBestPrepareForCombatJustToBeSafeAzulaAlice_mvl/mxv
 BYTE   N07  Fs1  v048
 BYTE   N07  Fs2  v064
 BYTE   W12
Label_0100165D:
 BYTE   N09  Bn1  v056
 BYTE   N09  Bn2  v072
 BYTE   W12
 BYTE   N07  Bn2  v040
 BYTE   W12
 BYTE   N07
 BYTE   W12
 BYTE   N07
 BYTE   W12
 BYTE   Bn2  v044
 BYTE   W12
 BYTE   Bn2  v036
 BYTE   W12
 BYTE   N05
 BYTE   W12
//  #06 //001   ----------------------------------------
Label_01001674:
 BYTE   N05  Bn2  v032
 BYTE   W12
 BYTE   N07
 BYTE   W12
 BYTE   Bn2  v028
 BYTE   W12
 BYTE   N07
 BYTE   W12
 BYTE   N07
 BYTE   W12
 BYTE   Bn2  v032
 BYTE   W12
 BYTE   Bn2  v028
 BYTE   W12
 BYTE   N05
 BYTE   W12
 BYTE   PEND 
//  #06 //002   ----------------------------------------
Label_0100168A:
 BYTE   N05  Bn2  v028
 BYTE   W12
 BYTE   N07  Bn2  v032
 BYTE   W12
 BYTE   Bn2  v028
 BYTE   W12
 BYTE   N07
 BYTE   W12
 BYTE   N07
 BYTE   W12
 BYTE   Bn2  v032
 BYTE   W12
 BYTE   Bn2  v028
 BYTE   W12
 BYTE   N05
 BYTE   W12
 BYTE   PEND 
//  #06 //003   ----------------------------------------
 BYTE   PATT
  POIN2 Label_0100168A
//  #06 //004   ----------------------------------------
Label_010016A7:
 BYTE   N07  Fs1  v048
 BYTE   N07  Fs2  v064
 BYTE   W12
 BYTE   N09  Bn1  v056
 BYTE   N09  Bn2  v072
 BYTE   W12
 BYTE   N07  Bn2  v040
 BYTE   W12
 BYTE   Bn2  v036
 BYTE   W12
 BYTE   Bn2  v032
 BYTE   W12
 BYTE   N07
 BYTE   W12
 BYTE   Bn2  v028
 BYTE   W12
 BYTE   N05
 BYTE   W12
 BYTE   PEND 
//  #06 //005   ----------------------------------------
 BYTE   PATT
  POIN2 Label_0100168A
//  #06 //006   ----------------------------------------
 BYTE   PATT
  POIN2 Label_0100168A
//  #06 //007   ----------------------------------------
 BYTE   PATT
  POIN2 Label_0100168A
//  #06 //008   ----------------------------------------
 BYTE   PATT
  POIN2 Label_0100168A
//  #06 //009   ----------------------------------------
 BYTE   N07  Fs1  v048
 BYTE   N07  Fs2  v064
 BYTE   W12
 BYTE   N09  Bn1  v056
 BYTE   N09  Bn2  v072
 BYTE   W12
 BYTE   N07  Bn2  v040
 BYTE   W12
 BYTE   N07
 BYTE   W12
 BYTE   N07
 BYTE   W12
 BYTE   Bn2  v044
 BYTE   W12
 BYTE   Bn2  v036
 BYTE   W12
 BYTE   N05
 BYTE   W12
//  #06 //010   ----------------------------------------
 BYTE   PATT
  POIN2 Label_01001674
//  #06 //011   ----------------------------------------
 BYTE   PATT
  POIN2 Label_0100168A
//  #06 //012   ----------------------------------------
 BYTE   PATT
  POIN2 Label_0100168A
//  #06 //013   ----------------------------------------
 BYTE   PATT
  POIN2 Label_010016A7
//  #06 //014   ----------------------------------------
 BYTE   PATT
  POIN2 Label_0100168A
//  #06 //015   ----------------------------------------
 BYTE   PATT
  POIN2 Label_0100168A
//  #06 //016   ----------------------------------------
 BYTE   PATT
  POIN2 Label_0100168A
//  #06 //017   ----------------------------------------
 BYTE   PATT
  POIN2 Label_0100168A
//  #06 //018   ----------------------------------------
 BYTE   N05  Bn2  v028
 BYTE   W12
 BYTE   N07
 BYTE   W12
 BYTE   Bn2  v032
 BYTE   W12
 BYTE   N07
 BYTE   W12
 BYTE   Bn2  v036
 BYTE   W12
 BYTE   Bn2  v040
 BYTE   W12
 BYTE   Bn2  v044
 BYTE   W12
 BYTE   N05
 BYTE   W12
//  #06 //019   ----------------------------------------
 BYTE   Bn2  v048
 BYTE   W12
 BYTE   N09  Gs1  v056
 BYTE   N09  Gs2  v076
 BYTE   W12
 BYTE   N07  Gs2  v040
 BYTE   W12
 BYTE   N07
 BYTE   W12
 BYTE   N07
 BYTE   W12
 BYTE   Gs2  v044
 BYTE   W12
 BYTE   Gs2  v040
 BYTE   W12
 BYTE   N05
 BYTE   W12
//  #06 //020   ----------------------------------------
Label_01001751:
 BYTE   N05  Gs2  v040
 BYTE   W12
 BYTE   N07  Gs2  v044
 BYTE   W12
 BYTE   Gs2  v040
 BYTE   W12
 BYTE   N07
 BYTE   W12
 BYTE   N07
 BYTE   W12
 BYTE   Gs2  v044
 BYTE   W12
 BYTE   Gs2  v040
 BYTE   W12
 BYTE   N05
 BYTE   W12
 BYTE   PEND 
//  #06 //021   ----------------------------------------
 BYTE   PATT
  POIN2 Label_01001751
//  #06 //022   ----------------------------------------
 BYTE   PATT
  POIN2 Label_01001751
//  #06 //023   ----------------------------------------
 BYTE   PATT
  POIN2 Label_01001751
//  #06 //024   ----------------------------------------
 BYTE   PATT
  POIN2 Label_01001751
//  #06 //025   ----------------------------------------
 BYTE   N05  Gs2  v040
 BYTE   W12
 BYTE   N07  Gs2  v032
 BYTE   W12
 BYTE   Fs2  v028
 BYTE   W12
 BYTE   Gs2
 BYTE   W12
 BYTE   As2
 BYTE   W12
 BYTE   Gs2  v032
 BYTE   W12
 BYTE   Fs2  v028
 BYTE   W12
 BYTE   N05  Gs2
 BYTE   W12
//  #06 //026   ----------------------------------------
 BYTE   As2
 BYTE   W12
 BYTE   N07  Gs2  v032
 BYTE   W12
 BYTE   Fs2  v028
 BYTE   W12
 BYTE   Gs2
 BYTE   W12
 BYTE   As2
 BYTE   W12
 BYTE   Gs2  v032
 BYTE   W12
 BYTE   Fs2  v028
 BYTE   W12
 BYTE   N05  Gs2
 BYTE   W12
//  #06 //027   ----------------------------------------
 BYTE   As2
 BYTE   W12
 BYTE   N12  En2  v048
 BYTE   N07  Gs2  v044
 BYTE   W12
 BYTE   Fs2  v040
 BYTE   W12
 BYTE   Gs2
 BYTE   W12
 BYTE   N03  As2  v048
 BYTE   W12
 BYTE   N07  Gs2  v044
 BYTE   W12
 BYTE   Fs2  v040
 BYTE   W12
 BYTE   N12  Cs2  v048
 BYTE   N05  Gs2  v040
 BYTE   W12
//  #06 //028   ----------------------------------------
 BYTE   As2
 BYTE   W12
 BYTE   N07  Gs2  v044
 BYTE   W12
 BYTE   N03  Fs2  v048
 BYTE   W12
 BYTE   N07  Gs2  v040
 BYTE   W12
 BYTE   Cs3
 BYTE   W12
 BYTE   N12  En2  v048
 BYTE   N07  Gs2  v044
 BYTE   W12
 BYTE   Fs2  v040
 BYTE   W12
 BYTE   N05  Gs2
 BYTE   W12
//  #06 //029   ----------------------------------------
 BYTE   N03  As2  v048
 BYTE   W12
 BYTE   N07  Gs2  v044
 BYTE   W12
 BYTE   N12  Bn1  v048
 BYTE   N07  Fs2  v040
 BYTE   W12
 BYTE   Gs2  v044
 BYTE   W12
 BYTE   N05  Cs3  v040
 BYTE   W12
 BYTE   N96  Cs2
 BYTE   N05  Gs2  v044
 BYTE   W24
 BYTE   Gs2  v040
 BYTE   W12
//  #06 //030   ----------------------------------------
 BYTE   W12
 BYTE   Gs2  v044
 BYTE   W24
 BYTE   N04  Gs2  v040
 BYTE   W24
 BYTE   N09  En2  v048
 BYTE   N05  Gs2  v044
 BYTE   W12
 BYTE   Cs3  v040
 BYTE   W12
 BYTE   Gs2
 BYTE   W12
//  #06 //031   ----------------------------------------
 BYTE   N09  As2  v048
 BYTE   N05  Cs3  v040
 BYTE   W12
 BYTE   Gs2  v044
 BYTE   W12
 BYTE   Bn2  v040
 BYTE   W12
 BYTE   N09  Cs2  v048
 BYTE   N04  Gs2  v040
 BYTE   W12
 BYTE   Cs3
 BYTE   W12
 BYTE   N05  Gs2  v044
 BYTE   W12
 BYTE   N09  Fs2  v048
 BYTE   N05  Cs3  v040
 BYTE   W12
 BYTE   Gs2
 BYTE   W12
//  #06 //032   ----------------------------------------
 BYTE   Cs3
 BYTE   W12
 BYTE   N09  En2  v048
 BYTE   N05  Gs2  v044
 BYTE   W12
 BYTE   Cs3  v040
 BYTE   W12
 BYTE   N04  Gs2
 BYTE   W12
 BYTE   N09  As2  v048
 BYTE   N04  Cs3  v040
 BYTE   W24
 BYTE   N08  Bn1  v048
 BYTE   W24
//  #06 //033   ----------------------------------------
 BYTE   W36
 BYTE   N24  Gs1  v040
 BYTE   W24
 BYTE   Cs2  v044
 BYTE   W24
 BYTE   N23  Fs2  v040
 BYTE   W12
//  #06 //034   ----------------------------------------
 BYTE   W12
 BYTE   N24  Ds2
 BYTE   N05  Gs2  v044
 BYTE   W12
 BYTE   Cs3  v040
 BYTE   W12
 BYTE   Gs2
 BYTE   W12
 BYTE   N09  As2  v048
 BYTE   N05  Cs3  v040
 BYTE   W12
 BYTE   Gs2  v044
 BYTE   W12
 BYTE   Bn2  v040
 BYTE   W12
 BYTE   N09  Cs2  v048
 BYTE   N04  Gs2  v040
 BYTE   W12
//  #06 //035   ----------------------------------------
 BYTE   Cs3
 BYTE   W12
 BYTE   N05  Gs2  v044
 BYTE   W12
 BYTE   N09  Fs2  v048
 BYTE   N05  Cs3  v040
 BYTE   W12
 BYTE   Gs2
 BYTE   W12
 BYTE   Cs3
 BYTE   W12
 BYTE   N09  En2  v048
 BYTE   N05  Gs2  v044
 BYTE   W12
 BYTE   Cs3  v040
 BYTE   W12
 BYTE   N04  Gs2
 BYTE   W12
//  #06 //036   ----------------------------------------
 BYTE   N09  As2  v048
 BYTE   N04  Cs3  v040
 BYTE   W24
 BYTE   N08  Bn1  v048
 BYTE   W36
 BYTE   N24  Fs1  v044
 BYTE   W24
 BYTE   En1  v040
 BYTE   W12
//  #06 //037   ----------------------------------------
 BYTE   W12
 BYTE   Gs1  v044
 BYTE   W24
 BYTE   N23  Bn1  v040
 BYTE   W24
 BYTE   N09  Fn2  v048
 BYTE   N05  An2  v044
 BYTE   W12
 BYTE   Dn3  v040
 BYTE   W12
 BYTE   An2
 BYTE   W12
//  #06 //038   ----------------------------------------
 BYTE   N01  Bn2  v048
 BYTE   W12
 BYTE   N05  An2  v044
 BYTE   W12
 BYTE   Cn3  v040
 BYTE   W12
 BYTE   N09  Dn2  v048
 BYTE   N04  An2  v040
 BYTE   W12
 BYTE   Dn3
 BYTE   W12
 BYTE   N05  An2  v044
 BYTE   W12
 BYTE   N09  Gn2  v048
 BYTE   N05  Dn3  v040
 BYTE   W12
 BYTE   An2
 BYTE   W12
//  #06 //039   ----------------------------------------
 BYTE   Cn3
 BYTE   W12
 BYTE   N09  Fn2  v048
 BYTE   N05  An2  v044
 BYTE   W12
 BYTE   Dn3  v040
 BYTE   W12
 BYTE   N04  An2
 BYTE   W12
 BYTE   N09  Bn2  v048
 BYTE   N04  Dn3  v040
 BYTE   W24
 BYTE   N08  Cn2  v048
 BYTE   W24
//  #06 //040   ----------------------------------------
 BYTE   W12
 BYTE   N24  Cn2  v040
 BYTE   W24
 BYTE   Dn2
 BYTE   W24
 BYTE   Bn1
 BYTE   W24
 BYTE   N23  Gn1  v036
 BYTE   W12
//  #06 //041   ----------------------------------------
 BYTE   W12
 BYTE   N09  Fn2  v048
 BYTE   N05  An2  v044
 BYTE   W12
 BYTE   Dn3  v040
 BYTE   W12
 BYTE   An2
 BYTE   W12
 BYTE   N09  Bn2  v048
 BYTE   N05  Dn3  v040
 BYTE   W12
 BYTE   An2  v044
 BYTE   W12
 BYTE   Cn3  v040
 BYTE   W12
 BYTE   N09  Dn2  v048
 BYTE   N04  An2  v040
 BYTE   W12
//  #06 //042   ----------------------------------------
 BYTE   Dn3
 BYTE   W12
 BYTE   N05  An2  v044
 BYTE   W12
 BYTE   N09  Gn2  v048
 BYTE   N05  Dn3  v040
 BYTE   W12
 BYTE   An2
 BYTE   W12
 BYTE   Cn3
 BYTE   W12
 BYTE   N09  Fn2  v048
 BYTE   N05  An2  v044
 BYTE   W12
 BYTE   Dn3  v040
 BYTE   W12
 BYTE   N04  An2
 BYTE   W12
//  #06 //043   ----------------------------------------
 BYTE   N09  Bn2  v048
 BYTE   N04  Dn3  v040
 BYTE   W24
 BYTE   N08  Cn2  v048
 BYTE   W36
 BYTE   N92  Fn1  v040
 BYTE   W36
//  #06 //044   ----------------------------------------
 BYTE   W60
 BYTE   N06  En1  v096
 BYTE   N06  En2  v112
 BYTE   W12
 BYTE   En1  v088
 BYTE   N05  En2  v112
 BYTE   W24
//  #06 //045   ----------------------------------------
 BYTE   W48
 BYTE   Dn1  v088
 BYTE   N05  Dn2  v112
 BYTE   W24
 BYTE   N06  En1  v088
 BYTE   N06  En2  v112
 BYTE   W18
 BYTE   En2  v072
 BYTE   W06
//  #06 //046   ----------------------------------------
 BYTE   N05  Fs2
 BYTE   W06
 BYTE   N06  Bn1
 BYTE   W18
 BYTE   Dn1  v088
 BYTE   N06  Dn2  v112
 BYTE   W24
 BYTE   N05  Bn0  v088
 BYTE   N05  Bn1  v112
 BYTE   W12
 BYTE   N06  En1  v096
 BYTE   N06  En2  v120
 BYTE   W12
 BYTE   En1  v088
 BYTE   N05  En2  v104
 BYTE   W24
//  #06 //047   ----------------------------------------
 BYTE   W24
 BYTE   N06  En1  v088
 BYTE   N06  En2  v112
 BYTE   W24
 BYTE   N05  Dn1  v088
 BYTE   N05  Dn2  v112
 BYTE   W24
 BYTE   N06  En1  v088
 BYTE   N06  En2  v112
 BYTE   W12
 BYTE   En1  v088
 BYTE   N06  En2  v108
 BYTE   W12
//  #06 //048   ----------------------------------------
 BYTE   W06
 BYTE   En2  v072
 BYTE   W06
 BYTE   Fs2  v076
 BYTE   W06
 BYTE   Bn1  v072
 BYTE   W06
 BYTE   N05  An1
 BYTE   W06
 BYTE   An2
 BYTE   W18
 BYTE   Bn0  v088
 BYTE   N05  Bn1  v112
 BYTE   W12
 BYTE   N06  En1  v096
 BYTE   N06  En2  v120
 BYTE   W12
 BYTE   En1  v088
 BYTE   N06  En2  v104
 BYTE   W12
 BYTE   Bn1  v072
 BYTE   W06
 BYTE   Fs2  v060
 BYTE   N06  Bn2  v080
 BYTE   W06
//  #06 //049   ----------------------------------------
 BYTE   N05  En2  v072
 BYTE   W06
 BYTE   N06  Gn1
 BYTE   W06
 BYTE   Dn2  v076
 BYTE   W06
 BYTE   An2  v060
 BYTE   N06  Dn3  v080
 BYTE   W06
 BYTE   N05  Gn2  v072
 BYTE   W06
 BYTE   Cn2
 BYTE   W06
 BYTE   Gn2
 BYTE   W06
 BYTE   Dn3  v060
 BYTE   N06  Gn3  v080
 BYTE   W06
 BYTE   N05  Dn2  v072
 BYTE   W05
 BYTE   N06  En2
 BYTE   W07
 BYTE   Fs2  v068
 BYTE   N06  Bn2  v084
 BYTE   W06
 BYTE   Bn1  v072
 BYTE   W06
 BYTE   En2
 BYTE   W06
 BYTE   Fs2  v060
 BYTE   N06  Cs3  v080
 BYTE   W06
 BYTE   Bn2  v072
 BYTE   W06
 BYTE   Fs2
 BYTE   W06
//  #06 //050   ----------------------------------------
 BYTE   N05  Bn1
 BYTE   W06
 BYTE   N03  En2
 BYTE   W03
 BYTE   Fs2
 BYTE   W03
 BYTE   N06  Bn2  v076
 BYTE   W06
 BYTE   Fs2  v072
 BYTE   W06
 BYTE   N05  En2
 BYTE   W06
 BYTE   Bn1
 BYTE   W06
 BYTE   N11  Dn2
 BYTE   W12
 BYTE   Bn0  v056
 BYTE   N11  Bn1  v080
 BYTE   W12
 BYTE   N06  En1  v096
 BYTE   N06  En2  v120
 BYTE   W12
 BYTE   En1  v088
 BYTE   N06  En2  v104
 BYTE   W12
 BYTE   N03  Bn1  v072
 BYTE   W03
 BYTE   En2
 BYTE   W03
 BYTE   N06  Fs2
 BYTE   W06
//  #06 //051   ----------------------------------------
 BYTE   N05  En2
 BYTE   W06
 BYTE   N06  An2
 BYTE   W06
 BYTE   Bn2  v076
 BYTE   W06
 BYTE   En3  v072
 BYTE   W06
 BYTE   N03  An2
 BYTE   W03
 BYTE   Gn2
 BYTE   W03
 BYTE   N05  Dn2
 BYTE   W06
 BYTE   Cn2
 BYTE   W06
 BYTE   Gn1
 BYTE   W06
 BYTE   An1
 BYTE   W05
 BYTE   N06  Dn2
 BYTE   W07
 BYTE   N03  Bn2  v076
 BYTE   W04
 BYTE   N02  An2  v072
 BYTE   W02
 BYTE   N06  En2
 BYTE   W06
 BYTE   N03  Fs2
 BYTE   W03
 BYTE   En2
 BYTE   W03
 BYTE   N06  An1
 BYTE   W06
 BYTE   Bn1
 BYTE   W06
 BYTE   Bn2
 BYTE   W06
//  #06 //052   ----------------------------------------
 BYTE   W12
 BYTE   Bn1  v076
 BYTE   W06
 BYTE   Bn2  v072
 BYTE   W06
 BYTE   N05  En2
 BYTE   W06
 BYTE   N06  Bn1
 BYTE   W06
 BYTE   N05  En2  v092
 BYTE   N06  Bn2  v112
 BYTE   W12
 BYTE   N05  Fs2  v088
 BYTE   N05  Cs3  v112
 BYTE   W12
 BYTE   GoTo
  POIN2 Label_0100165D
//  #06 //053   ----------------------------------------
 BYTE   W12
 BYTE   FINE

//**************** Track 7 (Midi-Chn.6) ****************//

FE13WedBestPrepareForCombatJustToBeSafeAzulaAlice_007:
//  #07 //000   ----------------------------------------
 BYTE   KEYSH   FE13WedBestPrepareForCombatJustToBeSafeAzulaAlice_key+0
 BYTE   VOICE   68
 BYTE   MODT 0
 BYTE   LFOS 44
 BYTE   VOL   59*FE13WedBestPrepareForCombatJustToBeSafeAzulaAlice_mvl/mxv
 BYTE   W12
Label_5471E7:
 BYTE   W84
//  #07 //001   ----------------------------------------
 BYTE   W96
//  #07 //002   ----------------------------------------
 BYTE   W96
//  #07 //003   ----------------------------------------
 BYTE   W96
//  #07 //004   ----------------------------------------
 BYTE   W96
//  #07 //005   ----------------------------------------
 BYTE   W96
//  #07 //006   ----------------------------------------
 BYTE   W96
//  #07 //007   ----------------------------------------
 BYTE   W96
//  #07 //008   ----------------------------------------
 BYTE   W96
//  #07 //009   ----------------------------------------
 BYTE   W96
//  #07 //010   ----------------------------------------
 BYTE   W96
//  #07 //011   ----------------------------------------
 BYTE   W96
//  #07 //012   ----------------------------------------
 BYTE   W96
//  #07 //013   ----------------------------------------
 BYTE   W96
//  #07 //014   ----------------------------------------
 BYTE   W96
//  #07 //015   ----------------------------------------
 BYTE   W96
//  #07 //016   ----------------------------------------
 BYTE   W96
//  #07 //017   ----------------------------------------
 BYTE   W96
//  #07 //018   ----------------------------------------
 BYTE   W96
//  #07 //019   ----------------------------------------
 BYTE   W96
//  #07 //020   ----------------------------------------
 BYTE   W36
 BYTE   N24  Gs2  v056
 BYTE   W24
 BYTE   Cs3
 BYTE   W24
 BYTE   Fs3
 BYTE   W12
//  #07 //021   ----------------------------------------
 BYTE   W12
 BYTE   N14  Fn3
 BYTE   W12
 BYTE   Fs3
 BYTE   W12
 BYTE   N48  Gs3
 BYTE   W48
 BYTE   N13  Fn3
 BYTE   W12
//  #07 //022   ----------------------------------------
 BYTE   Cs3
 BYTE   W12
 BYTE   N92  Ds3  v048
 BYTE   W84
//  #07 //023   ----------------------------------------
 BYTE   W96
//  #07 //024   ----------------------------------------
 BYTE   W96
//  #07 //025   ----------------------------------------
 BYTE   W96
//  #07 //026   ----------------------------------------
 BYTE   W96
//  #07 //027   ----------------------------------------
 BYTE   W96
//  #07 //028   ----------------------------------------
 BYTE   W96
//  #07 //029   ----------------------------------------
 BYTE   W96
//  #07 //030   ----------------------------------------
 BYTE   W96
//  #07 //031   ----------------------------------------
 BYTE   W96
//  #07 //032   ----------------------------------------
 BYTE   W96
//  #07 //033   ----------------------------------------
 BYTE   W96
//  #07 //034   ----------------------------------------
 BYTE   W96
//  #07 //035   ----------------------------------------
 BYTE   W96
//  #07 //036   ----------------------------------------
 BYTE   W96
//  #07 //037   ----------------------------------------
 BYTE   W96
//  #07 //038   ----------------------------------------
 BYTE   W96
//  #07 //039   ----------------------------------------
 BYTE   W96
//  #07 //040   ----------------------------------------
 BYTE   W96
//  #07 //041   ----------------------------------------
 BYTE   W96
//  #07 //042   ----------------------------------------
 BYTE   W96
//  #07 //043   ----------------------------------------
 BYTE   W96
//  #07 //044   ----------------------------------------
 BYTE   W96
//  #07 //045   ----------------------------------------
 BYTE   W96
//  #07 //046   ----------------------------------------
 BYTE   W96
//  #07 //047   ----------------------------------------
 BYTE   W96
//  #07 //048   ----------------------------------------
 BYTE   W96
//  #07 //049   ----------------------------------------
 BYTE   W96
//  #07 //050   ----------------------------------------
 BYTE   W96
//  #07 //051   ----------------------------------------
 BYTE   W96
//  #07 //052   ----------------------------------------
 BYTE   W60
 BYTE   GoTo
  POIN2 Label_5471E7
//  #07 //053   ----------------------------------------
 BYTE   W12
 BYTE   FINE

//**************** Track 8 (Midi-Chn.7) ****************//

FE13WedBestPrepareForCombatJustToBeSafeAzulaAlice_008:
//  #08 //000   ----------------------------------------
 BYTE   KEYSH   FE13WedBestPrepareForCombatJustToBeSafeAzulaAlice_key+0
 BYTE   VOICE   127
 BYTE   MODT 0
 BYTE   LFOS 44
 BYTE   VOL   45*FE13WedBestPrepareForCombatJustToBeSafeAzulaAlice_mvl/mxv
 BYTE   W12
Label_01001AB3:
 BYTE   N12  En4  v052
 BYTE   W12
 BYTE   N06  Fs1
 BYTE   N12  Fn4
 BYTE   W06
 BYTE   N06  Fs1
 BYTE   W06
 BYTE   N12  En4
 BYTE   W12
 BYTE   N06  Fs1
 BYTE   N12  Fn4
 BYTE   W06
 BYTE   N06  Fs1
 BYTE   W06
 BYTE   N12  En4
 BYTE   W12
 BYTE   N06  Fs1
 BYTE   N12  Fn4
 BYTE   W06
 BYTE   N06  Fs1
 BYTE   W06
 BYTE   N12  En4
 BYTE   W12
//  #08 //001   ----------------------------------------
Label_01001AD8:
 BYTE   N06  Fs1  v052
 BYTE   N12  Fn4
 BYTE   W06
 BYTE   N06  Fs1
 BYTE   W06
 BYTE   N12  En4
 BYTE   W12
 BYTE   N06  Fs1
 BYTE   N12  Fn4
 BYTE   W06
 BYTE   N06  Fs1
 BYTE   W06
 BYTE   N12  En4
 BYTE   W12
 BYTE   N06  Fs1
 BYTE   N12  Fn4
 BYTE   W06
 BYTE   N06  Fs1
 BYTE   W06
 BYTE   N12  En4
 BYTE   W12
 BYTE   N06  Fs1
 BYTE   N12  Fn4
 BYTE   W06
 BYTE   N06  Fs1
 BYTE   W06
 BYTE   N12  En4
 BYTE   W12
 BYTE   PEND 
//  #08 //002   ----------------------------------------
 BYTE   PATT
  POIN2 Label_01001AD8
//  #08 //003   ----------------------------------------
Label_01001B0B:
 BYTE   N06  Fs1  v052
 BYTE   N12  Fn4
 BYTE   W06
 BYTE   N06  Fs1
 BYTE   W06
 BYTE   N12  En4
 BYTE   W12
 BYTE   N06  Fs1
 BYTE   N12  Fn4
 BYTE   W06
 BYTE   N06  Fs1
 BYTE   W06
 BYTE   N12  En4
 BYTE   W12
 BYTE   N06  Dn1  v084
 BYTE   N06  Fs1  v052
 BYTE   N12  Fn4
 BYTE   W06
 BYTE   N06  Dn1  v084
 BYTE   N06  Fs1  v052
 BYTE   W06
 BYTE   Dn1  v084
 BYTE   N12  En4  v052
 BYTE   W12
 BYTE   N06  Fs1
 BYTE   N12  Fn4
 BYTE   W06
 BYTE   N06  Fs1
 BYTE   W06
 BYTE   N12  En4
 BYTE   W12
 BYTE   PEND 
//  #08 //004   ----------------------------------------
 BYTE   PATT
  POIN2 Label_01001AD8
//  #08 //005   ----------------------------------------
 BYTE   PATT
  POIN2 Label_01001AD8
//  #08 //006   ----------------------------------------
 BYTE   PATT
  POIN2 Label_01001B0B
//  #08 //007   ----------------------------------------
Label_01001B53:
 BYTE   N06  Fs1  v052
 BYTE   N12  Fn4
 BYTE   W06
 BYTE   N06  Fs1
 BYTE   W06
 BYTE   N12  En4
 BYTE   W12
 BYTE   N06  Fs1
 BYTE   N12  Fn4
 BYTE   W06
 BYTE   N06  Fs1
 BYTE   W06
 BYTE   N12  En4
 BYTE   W12
 BYTE   N06  Dn1  v084
 BYTE   N06  Fs1  v052
 BYTE   N12  Fn4
 BYTE   W06
 BYTE   N06  Dn1  v084
 BYTE   N06  Fs1  v052
 BYTE   W06
 BYTE   Dn1  v084
 BYTE   N12  En4  v052
 BYTE   W06
 BYTE   N06  Dn1  v084
 BYTE   W06
 BYTE   N06
 BYTE   N06  Fs1  v052
 BYTE   N12  Fn4
 BYTE   W06
 BYTE   N06  Fs1
 BYTE   W06
 BYTE   N12  En4
 BYTE   W12
 BYTE   PEND 
//  #08 //008   ----------------------------------------
Label_01001B92:
 BYTE   N06  Fs1  v052
 BYTE   N12  Fn4
 BYTE   W06
 BYTE   N06  Fs1
 BYTE   W06
 BYTE   N12  En4
 BYTE   W12
 BYTE   N06  Fs1
 BYTE   N12  Fn4
 BYTE   W06
 BYTE   N06  Fs1
 BYTE   W06
 BYTE   N12  En4
 BYTE   W12
 BYTE   N06  Fs1
 BYTE   N12  Fn4
 BYTE   W06
 BYTE   N06  Dn1  v084
 BYTE   N06  Fs1  v052
 BYTE   W06
 BYTE   Dn1  v084
 BYTE   N12  En4  v052
 BYTE   W12
 BYTE   N06  Fs1
 BYTE   N12  Fn4
 BYTE   W06
 BYTE   N06  Fs1
 BYTE   W06
 BYTE   N12  En4
 BYTE   W12
 BYTE   PEND 
//  #08 //009   ----------------------------------------
 BYTE   PATT
  POIN2 Label_01001AD8
//  #08 //010   ----------------------------------------
 BYTE   PATT
  POIN2 Label_01001AD8
//  #08 //011   ----------------------------------------
 BYTE   PATT
  POIN2 Label_01001AD8
//  #08 //012   ----------------------------------------
 BYTE   PATT
  POIN2 Label_01001B0B
//  #08 //013   ----------------------------------------
 BYTE   PATT
  POIN2 Label_01001AD8
//  #08 //014   ----------------------------------------
 BYTE   PATT
  POIN2 Label_01001AD8
//  #08 //015   ----------------------------------------
 BYTE   PATT
  POIN2 Label_01001B0B
//  #08 //016   ----------------------------------------
 BYTE   PATT
  POIN2 Label_01001B53
//  #08 //017   ----------------------------------------
 BYTE   PATT
  POIN2 Label_01001B92
//  #08 //018   ----------------------------------------
 BYTE   PATT
  POIN2 Label_01001AD8
//  #08 //019   ----------------------------------------
 BYTE   N06  Fs1  v052
 BYTE   N24  Ds2  v084
 BYTE   N12  Fn4  v052
 BYTE   W06
 BYTE   N06  Fs1
 BYTE   W06
 BYTE   N12  Fn4
 BYTE   W12
 BYTE   N06  Fs1
 BYTE   N12  En4
 BYTE   W06
 BYTE   N06  Fs1
 BYTE   W06
 BYTE   N12  Fn4
 BYTE   W12
 BYTE   N06  Fs1
 BYTE   N12  En4
 BYTE   W06
 BYTE   N06  Fs1
 BYTE   W06
 BYTE   N12  Fn4
 BYTE   W12
 BYTE   N06  Fs1
 BYTE   N12  En4
 BYTE   W06
 BYTE   N06  Fs1
 BYTE   W06
 BYTE   N12  Fn4
 BYTE   W12
//  #08 //020   ----------------------------------------
Label_01001C2A:
 BYTE   N06  Fs1  v052
 BYTE   N12  En4
 BYTE   W06
 BYTE   N06  Fs1
 BYTE   W06
 BYTE   N12  Fn4
 BYTE   W12
 BYTE   N06  Fs1
 BYTE   N12  En4
 BYTE   W06
 BYTE   N06  Fs1
 BYTE   W06
 BYTE   N12  Fn4
 BYTE   W12
 BYTE   N06  Fs1
 BYTE   N12  En4
 BYTE   W06
 BYTE   N06  Fs1
 BYTE   W06
 BYTE   N12  Fn4
 BYTE   W12
 BYTE   N06  Fs1
 BYTE   N12  En4
 BYTE   W06
 BYTE   N06  Fs1
 BYTE   W06
 BYTE   N12  Fn4
 BYTE   W12
 BYTE   PEND 
//  #08 //021   ----------------------------------------
 BYTE   PATT
  POIN2 Label_01001C2A
//  #08 //022   ----------------------------------------
 BYTE   PATT
  POIN2 Label_01001C2A
//  #08 //023   ----------------------------------------
 BYTE   PATT
  POIN2 Label_01001C2A
//  #08 //024   ----------------------------------------
 BYTE   PATT
  POIN2 Label_01001C2A
//  #08 //025   ----------------------------------------
 BYTE   PATT
  POIN2 Label_01001C2A
//  #08 //026   ----------------------------------------
 BYTE   PATT
  POIN2 Label_01001C2A
//  #08 //027   ----------------------------------------
Label_01001C76:
 BYTE   N12  Dn1  v084
 BYTE   N06  Fs1  v052
 BYTE   N12  En4
 BYTE   W06
 BYTE   N06  Fs1
 BYTE   W06
 BYTE   Dn1  v084
 BYTE   N12  Fn4  v052
 BYTE   W06
 BYTE   N06  Dn1  v084
 BYTE   W06
 BYTE   N12
 BYTE   N06  Fs1  v052
 BYTE   N12  En4
 BYTE   W06
 BYTE   N06  Fs1
 BYTE   W06
 BYTE   N12  Dn1  v084
 BYTE   N12  Fn4  v052
 BYTE   W12
 BYTE   N06  Dn1  v084
 BYTE   N06  Fs1  v052
 BYTE   N12  En4
 BYTE   W06
 BYTE   N06  Dn1  v084
 BYTE   N06  Fs1  v052
 BYTE   W06
 BYTE   N03  Dn1  v084
 BYTE   N12  Fn4  v052
 BYTE   W03
 BYTE   N03  Dn1  v084
 BYTE   W03
 BYTE   N03
 BYTE   W03
 BYTE   N03
 BYTE   W03
 BYTE   N12
 BYTE   N06  Fs1  v052
 BYTE   N12  En4
 BYTE   W06
 BYTE   N06  Fs1
 BYTE   W06
 BYTE   N12  Dn1  v084
 BYTE   N12  Fn4  v052
 BYTE   W12
 BYTE   PEND 
//  #08 //028   ----------------------------------------
 BYTE   PATT
  POIN2 Label_01001C76
//  #08 //029   ----------------------------------------
 BYTE   PATT
  POIN2 Label_01001C76
//  #08 //030   ----------------------------------------
 BYTE   PATT
  POIN2 Label_01001C76
//  #08 //031   ----------------------------------------
 BYTE   PATT
  POIN2 Label_01001C76
//  #08 //032   ----------------------------------------
 BYTE   PATT
  POIN2 Label_01001C76
//  #08 //033   ----------------------------------------
 BYTE   PATT
  POIN2 Label_01001C76
//  #08 //034   ----------------------------------------
 BYTE   PATT
  POIN2 Label_01001C76
//  #08 //035   ----------------------------------------
 BYTE   PATT
  POIN2 Label_01001C76
//  #08 //036   ----------------------------------------
 BYTE   PATT
  POIN2 Label_01001C76
//  #08 //037   ----------------------------------------
 BYTE   PATT
  POIN2 Label_01001C76
//  #08 //038   ----------------------------------------
 BYTE   PATT
  POIN2 Label_01001C76
//  #08 //039   ----------------------------------------
 BYTE   PATT
  POIN2 Label_01001C76
//  #08 //040   ----------------------------------------
 BYTE   PATT
  POIN2 Label_01001C76
//  #08 //041   ----------------------------------------
 BYTE   PATT
  POIN2 Label_01001C76
//  #08 //042   ----------------------------------------
 BYTE   PATT
  POIN2 Label_01001C76
//  #08 //043   ----------------------------------------
 BYTE   PATT
  POIN2 Label_01001C76
//  #08 //044   ----------------------------------------
 BYTE   N12  Dn1  v084
 BYTE   N06  Fs1  v052
 BYTE   N12  En4
 BYTE   W06
 BYTE   N06  Fs1
 BYTE   W06
 BYTE   Dn1  v084
 BYTE   N12  Fn4  v052
 BYTE   W06
 BYTE   N06  Dn1  v084
 BYTE   W06
 BYTE   N12
 BYTE   N06  Fs1  v052
 BYTE   N12  En4
 BYTE   W06
 BYTE   N06  Fs1
 BYTE   W06
 BYTE   N12  Dn1  v084
 BYTE   N12  Fn4  v052
 BYTE   W12
 BYTE   N06  Dn1  v084
 BYTE   N06  Fs1  v052
 BYTE   N12  En4
 BYTE   W06
 BYTE   N06  Dn1  v084
 BYTE   N06  Fs1  v052
 BYTE   W06
 BYTE   N12  Dn1  v084
 BYTE   N12  Cs2  v052
 BYTE   W12
 BYTE   Dn1  v084
 BYTE   N12  Cs2  v052
 BYTE   W24
//  #08 //045   ----------------------------------------
 BYTE   N06  Dn1  v084
 BYTE   W06
 BYTE   N06
 BYTE   W06
 BYTE   N06
 BYTE   W06
 BYTE   N06
 BYTE   W06
 BYTE   N06
 BYTE   W24
 BYTE   N24
 BYTE   N24  An2  v052
 BYTE   W24
 BYTE   Dn1  v084
 BYTE   N12  Cs2  v052
 BYTE   W24
//  #08 //046   ----------------------------------------
 BYTE   N06  Dn1  v084
 BYTE   W06
 BYTE   N06
 BYTE   W06
 BYTE   N24
 BYTE   W12
 BYTE   An2  v052
 BYTE   W12
 BYTE   N12  Dn1  v084
 BYTE   W12
 BYTE   N12
 BYTE   N12  Cs2  v052
 BYTE   W12
 BYTE   Dn1  v084
 BYTE   N12  Cs2  v052
 BYTE   W12
 BYTE   Dn1  v084
 BYTE   N12  Cs2  v052
 BYTE   W24
//  #08 //047   ----------------------------------------
Label_01001D99:
 BYTE   N06  Dn1  v084
 BYTE   W06
 BYTE   N06
 BYTE   W06
 BYTE   N06
 BYTE   W06
 BYTE   N06
 BYTE   W06
 BYTE   N24
 BYTE   N24  An2  v052
 BYTE   W24
 BYTE   Dn1  v084
 BYTE   N24  An2  v052
 BYTE   W24
 BYTE   N12  Dn1  v084
 BYTE   N12  Cs2  v052
 BYTE   W12
 BYTE   Dn1  v084
 BYTE   N12  Cs2  v052
 BYTE   W12
 BYTE   PEND 
//  #08 //048   ----------------------------------------
 BYTE   N06  Dn1  v084
 BYTE   W06
 BYTE   N06
 BYTE   W18
 BYTE   N06
 BYTE   W06
 BYTE   N06
 BYTE   W18
 BYTE   N12
 BYTE   N12  Cs2  v052
 BYTE   W12
 BYTE   Dn1  v084
 BYTE   N12  Cs2  v052
 BYTE   W12
 BYTE   Dn1  v084
 BYTE   N12  Cs2  v052
 BYTE   W24
//  #08 //049   ----------------------------------------
 BYTE   N06  Dn1  v084
 BYTE   W06
 BYTE   N06
 BYTE   W06
 BYTE   N06
 BYTE   W06
 BYTE   N06
 BYTE   W06
 BYTE   N06
 BYTE   W24
 BYTE   N24
 BYTE   N24  An2  v052
 BYTE   W24
 BYTE   N12  Dn1  v084
 BYTE   N12  Cs2  v052
 BYTE   W24
//  #08 //050   ----------------------------------------
 BYTE   N06  Dn1  v084
 BYTE   W06
 BYTE   N06
 BYTE   W18
 BYTE   N24
 BYTE   N24  An2  v052
 BYTE   W24
 BYTE   N12  Dn1  v084
 BYTE   N12  Cs2  v052
 BYTE   W12
 BYTE   Dn1  v084
 BYTE   N12  Cs2  v052
 BYTE   W12
 BYTE   Dn1  v084
 BYTE   N12  Cs2  v052
 BYTE   W24
//  #08 //051   ----------------------------------------
 BYTE   PATT
  POIN2 Label_01001D99
//  #08 //052   ----------------------------------------
 BYTE   W24
 BYTE   N06  Dn1  v084
 BYTE   N24  An2  v052
 BYTE   W06
 BYTE   N06  Dn1  v084
 BYTE   W18
 BYTE   N24
 BYTE   N24  An2  v052
 BYTE   W12
 BYTE   GoTo
  POIN2 Label_01001AB3
//  #08 //053   ----------------------------------------
 BYTE   W12
 BYTE   FINE

//******************************************************//
	ALIGN 4

FE13WedBestPrepareForCombatJustToBeSafeAzulaAlice:
	BYTE	8	// NumTrks
	BYTE	0	// NumBlks
	BYTE	FE13WedBestPrepareForCombatJustToBeSafeAzulaAlice_pri	// Priority
	BYTE	FE13WedBestPrepareForCombatJustToBeSafeAzulaAlice_rev	// Reverb.
    
	POIN2	FE13WedBestPrepareForCombatJustToBeSafeAzulaAlice_grp
    
	POIN2	FE13WedBestPrepareForCombatJustToBeSafeAzulaAlice_001
	POIN2	FE13WedBestPrepareForCombatJustToBeSafeAzulaAlice_002
	POIN2	FE13WedBestPrepareForCombatJustToBeSafeAzulaAlice_003
	POIN2	FE13WedBestPrepareForCombatJustToBeSafeAzulaAlice_004
	POIN2	FE13WedBestPrepareForCombatJustToBeSafeAzulaAlice_005
	POIN2	FE13WedBestPrepareForCombatJustToBeSafeAzulaAlice_006
	POIN2	FE13WedBestPrepareForCombatJustToBeSafeAzulaAlice_007
	POIN2	FE13WedBestPrepareForCombatJustToBeSafeAzulaAlice_008

	
