//Event file generated from Sappy .s format.
	#include "MPlayDef.event"

	#define	FE13YouMayCallMeMarthMysteriousDancer_grp  voicegroup000
	#define	FE13YouMayCallMeMarthMysteriousDancer_pri  0
	#define	FE13YouMayCallMeMarthMysteriousDancer_rev  0
	#define	FE13YouMayCallMeMarthMysteriousDancer_mvl  127
	#define	FE13YouMayCallMeMarthMysteriousDancer_key  0
	#define	FE13YouMayCallMeMarthMysteriousDancer_tbs  1
	#define	FE13YouMayCallMeMarthMysteriousDancer_exg  0
	#define	FE13YouMayCallMeMarthMysteriousDancer_cmp  1

	// .rodata
	//	FE13YouMayCallMeMarthMysteriousDancer
	ALIGN 4

//**************** Track 1 (Midi-Chn.1) ****************//

FE13YouMayCallMeMarthMysteriousDancer_1:
	BYTE	KEYSH   FE13YouMayCallMeMarthMysteriousDancer_key+0
FE13YouMayCallMeMarthMysteriousDancer_1_B1:
// 000   ----------------------------------------
	BYTE	TEMPO   79*FE13YouMayCallMeMarthMysteriousDancer_tbs/2
	BYTE		VOICE   0
	BYTE		VOL     102*FE13YouMayCallMeMarthMysteriousDancer_mvl/mxv
	BYTE		PAN     c_v+0
	BYTE		VOL     111*FE13YouMayCallMeMarthMysteriousDancer_mvl/mxv
	BYTE		        111*FE13YouMayCallMeMarthMysteriousDancer_mvl/mxv
	BYTE		N24     An2   v064
	BYTE		N36     En4 
	BYTE	W24
	BYTE		N24     Cn3   v044
	BYTE		N24     Fn3 
	BYTE		N23     An3   v056
	BYTE	W12
	BYTE		N13     Dn4   v052
	BYTE	W12
	BYTE		N24     Dn3   v044
	BYTE		N24     Gn3 
	BYTE		N23     Bn3   v056
	BYTE		N36     En4   v052
	BYTE	W24
	BYTE		N24     En2 
	BYTE	W12
	BYTE		N13     Dn4 
	BYTE	W12
// 001   ----------------------------------------
	BYTE		N24     Bn2   v044
	BYTE		N24     En3 
	BYTE		N24     Gn3   v056
	BYTE		N14     En4   v052
	BYTE	W12
	BYTE		N13     An4 
	BYTE	W12
	BYTE		N68     Cn3   v036
	BYTE		N68     Fn3 
	BYTE		N68     An3   v052
	BYTE		N32     En4 
	BYTE	W36
	BYTE		N13     Dn4 
	BYTE	W12
	BYTE		        Gn4 
	BYTE	W12
	BYTE		        Cn5 
	BYTE	W12
// 002   ----------------------------------------
	BYTE		N24     An2 
	BYTE		N24     En4   v056
	BYTE		N14     Bn4   v052
	BYTE	W12
	BYTE		N13     Cn5 
	BYTE	W12
	BYTE		N24     Cn3   v044
	BYTE		N24     Fn3 
	BYTE		N23     An3   v056
	BYTE		N32     Gn4   v052
	BYTE		N48     Dn5 
	BYTE	W24
	BYTE		N24     Dn3   v044
	BYTE		N23     Gn3 
	BYTE		N23     Bn3   v056
	BYTE	W12
	BYTE		N11     Fn4   v052
	BYTE	W12
	BYTE		N44     Bn2   v044
	BYTE		N44     En3 
	BYTE		N01     Gn3   v056
	BYTE		N11     En4   v052
	BYTE		N13     Bn4 
	BYTE	W12
	BYTE		N36     Dn4 
	BYTE		N11     Gn4 
	BYTE	W12
// 003   ----------------------------------------
	BYTE		N24   
	BYTE	W21
	BYTE		N72     En4   v036
	BYTE	W03
	BYTE		N68     Cs3   v052
	BYTE		N68     Cs4 
	BYTE		N68     An4 
	BYTE	W72
// 004   ----------------------------------------
	BYTE		N24     Gn2 
	BYTE		N36     Dn4 
	BYTE	W24
	BYTE		N24     As2   v044
	BYTE		N24     Ds3 
	BYTE		N23     Gn3   v056
	BYTE	W12
	BYTE		N13     Cn4   v052
	BYTE	W12
	BYTE		N24     Cn3   v044
	BYTE		N24     Fn3 
	BYTE		N23     An3   v056
	BYTE		N36     Dn4   v052
	BYTE	W24
	BYTE		N24     Dn2 
	BYTE	W12
	BYTE		N13     Cn4 
	BYTE	W12
// 005   ----------------------------------------
	BYTE		N24     An2   v044
	BYTE		N24     Dn3 
	BYTE		N24     Fn3   v056
	BYTE		N14     Dn4   v052
	BYTE	W12
	BYTE		N13     Gn4 
	BYTE	W12
	BYTE		N68     As2   v036
	BYTE		N68     Ds3 
	BYTE		N68     Gn3   v052
	BYTE		N32     Dn4 
	BYTE	W36
	BYTE		N13     Cn4 
	BYTE	W12
	BYTE		        Fn4 
	BYTE	W12
	BYTE		        As4 
	BYTE	W12
// 006   ----------------------------------------
	BYTE		N14     An4 
	BYTE	W05
	BYTE		VOL     103*FE13YouMayCallMeMarthMysteriousDancer_mvl/mxv
	BYTE	W07
	BYTE		N13     As4 
	BYTE	W09
	BYTE		N48     Gn4   v044
	BYTE	W03
	BYTE		N24     Ds3   v052
	BYTE		N23     Dn4 
	BYTE		N44     Cn5 
	BYTE	W24
	BYTE		N24     Fn3 
	BYTE		N44     Cn4 
	BYTE	W24
	BYTE		N24     Dn3 
	BYTE		N13     An4 
	BYTE	W12
	BYTE		N11     Fn4 
	BYTE	W12
// 007   ----------------------------------------
	BYTE		N24     As2   v044
	BYTE		N24     Ds3 
	BYTE		N24     Gn3   v056
	BYTE		N24     Fn4   v052
	BYTE	W24
	BYTE		N23     An2   v036
	BYTE		N23     Dn3 
	BYTE		N23     Fs3   v052
	BYTE		N68     Dn4   v044
	BYTE	W24
	BYTE		N44     Dn1   v052
	BYTE	W48
// 008   ----------------------------------------
	BYTE		N24     Fn1   v044
	BYTE		N24     Gs2   v056
	BYTE		N72     Gs3   v052
	BYTE		N48     Cs4 
	BYTE	W24
	BYTE		N13     Cs2 
	BYTE	W12
	BYTE		        Fn2 
	BYTE	W12
	BYTE		        Gs2 
	BYTE		N24     Ds4 
	BYTE	W12
	BYTE		N13     Cs3 
	BYTE	W12
// 009   ----------------------------------------
	BYTE		N24     En3 
	BYTE		TIE     Gn3 
	BYTE		N68     Cn4   v044
	BYTE	W24
	BYTE		N44     Gn2 
	BYTE	W48
// 010   ----------------------------------------
	BYTE		N48     Ds3   v052
	BYTE		TIE     As3 
	BYTE	W24
	BYTE		N24     Fs3 
	BYTE	W01
	BYTE		EOT     Gn3 
	BYTE	W23
	BYTE		N24     As2 
	BYTE		N13     Gs3 
	BYTE	W12
	BYTE		        Fs3 
	BYTE	W12
// 011   ----------------------------------------
	BYTE		N14     Cn3 
	BYTE		N68     Fn3   v044
	BYTE	W12
	BYTE		N13     Dn3   v052
	BYTE	W12
	BYTE		N44     Fn2   v044
	BYTE	W44
	BYTE	W01
	BYTE		N02     Fn3   v056
	BYTE	W02
	BYTE		EOT     As3 
	BYTE	W01
// 012   ----------------------------------------
	BYTE		N14     Fs2   v068
	BYTE		N12     As2   v084
	BYTE		N48     Fn4   v100
	BYTE	W12
	BYTE		N13     Gs2   v068
	BYTE		N11     Cn3   v084
	BYTE	W12
	BYTE		N13     As2   v068
	BYTE		N11     Cs3   v084
	BYTE	W12
	BYTE		N13     Fn3   v076
	BYTE	W12
	BYTE		        Gs3 
	BYTE		N13     Cn4   v068
	BYTE		N11     Ds4   v084
	BYTE	W12
	BYTE		N13     Fs3   v076
	BYTE		N13     As3   v068
	BYTE		N11     Cs4   v084
	BYTE	W12
	BYTE		N22     Fn3   v072
	BYTE		N22     Gs3   v064
	BYTE		N23     Cn4   v076
	BYTE	W24
// 013   ----------------------------------------
	BYTE		N24     Bn2   v052
	BYTE		N72     An3   v044
	BYTE		N72     Cs4   v056
	BYTE		N48     Gs4   v052
	BYTE	W24
	BYTE		N44     Fs3   v044
	BYTE	W24
	BYTE		N23     Fs4 
	BYTE	W24
	BYTE		        An2   v052
	BYTE		N23     Gn3   v044
	BYTE		N23     Bn3   v056
	BYTE		N13     Fn4   v052
	BYTE	W12
	BYTE		        Ds4 
	BYTE	W12
// 014   ----------------------------------------
	BYTE		N68     Gs2 
	BYTE		N14     Fs3 
	BYTE		TIE     As3   v044
	BYTE		TIE     Cs4   v052
	BYTE	W12
	BYTE		N13     Fn3 
	BYTE	W12
	BYTE		        Fs3 
	BYTE	W12
	BYTE		        Fn3 
	BYTE	W12
	BYTE		        Gs3 
	BYTE	W12
	BYTE		N10     Fs3   v044
	BYTE	W12
// 015   ----------------------------------------
	BYTE		N68     Ds2   v052
	BYTE	W12
	BYTE		N13     Fn3 
	BYTE	W12
	BYTE		        Fs3 
	BYTE	W12
	BYTE		        Fn3 
	BYTE	W12
	BYTE		        Gs3 
	BYTE	W12
	BYTE		N10     Fs3   v044
	BYTE	W09
	BYTE		N14     Fn4   v048
	BYTE	W02
	BYTE		EOT     As3 
	BYTE		        Cs4 
	BYTE	W01
// 016   ----------------------------------------
	BYTE		N96     Gs1   v064
	BYTE		N12     Fn5   v076
	BYTE	W12
	BYTE		N13     Fn3   v064
	BYTE	W12
	BYTE		        Fs3 
	BYTE	W12
	BYTE		        Fn3 
	BYTE	W12
	BYTE		        Gs3 
	BYTE	W12
	BYTE		N10     Fs3   v060
	BYTE	W09
	BYTE		N14     Ds4 
	BYTE	W03
// 017   ----------------------------------------
	BYTE		N12     Ds5   v076
	BYTE	W12
	BYTE		N13     Fn3   v064
	BYTE	W12
	BYTE		N68     Gs2 
	BYTE		N13     Fs3 
	BYTE	W12
	BYTE		        Fn3 
	BYTE	W12
	BYTE		        Gs3 
	BYTE	W12
	BYTE		N10     Fs3   v060
	BYTE	W09
	BYTE		N14     Cn4 
	BYTE	W03
// 018   ----------------------------------------
	BYTE		N12     Cn5   v076
	BYTE	W12
	BYTE		N13     Fn3   v064
	BYTE	W12
	BYTE		N24     Cn2 
	BYTE		N13     Fs3 
	BYTE	W12
	BYTE		        Fn3 
	BYTE	W12
	BYTE		N24     Cs2 
	BYTE		N13     Gs3 
	BYTE	W12
	BYTE		N10     Fs3   v060
	BYTE	W09
	BYTE		N14     As3 
	BYTE	W03
// 019   ----------------------------------------
	BYTE		N24     Ds2   v064
	BYTE		N12     As4   v076
	BYTE	W12
	BYTE		N13     Fn3   v064
	BYTE	W12
	BYTE		N44     Fn2   v060
	BYTE		N13     Fs3   v064
	BYTE	W12
	BYTE		        Fn3 
	BYTE	W12
	BYTE		        Gs3 
	BYTE	W12
	BYTE		N10     Fs3   v060
	BYTE	W09
	BYTE		N14     Fn4 
	BYTE	W03
// 020   ----------------------------------------
	BYTE		N68     Gs1   v064
	BYTE		N12     Fn5   v076
	BYTE	W12
	BYTE		N13     Fn3   v064
	BYTE	W12
	BYTE		        Fs3 
	BYTE	W12
	BYTE		        Fn3 
	BYTE	W12
	BYTE		        Gs3 
	BYTE	W12
	BYTE		N10     Fs3   v060
	BYTE	W09
	BYTE		N14     Ds4 
	BYTE	W03
// 021   ----------------------------------------
	BYTE		N12     Ds5   v076
	BYTE	W12
	BYTE		N13     Fn3   v064
	BYTE	W12
	BYTE		N24     Gs2 
	BYTE		N13     Fs3 
	BYTE	W12
	BYTE		        Fn3 
	BYTE	W12
	BYTE		N22     As2   v060
	BYTE		N13     Gs3   v064
	BYTE	W12
	BYTE		N10     Fs3   v060
	BYTE	W09
	BYTE		N14     Cn4 
	BYTE	W03
// 022   ----------------------------------------
	BYTE		N12     Cn5   v076
	BYTE	W12
	BYTE		N13     Fn3   v064
	BYTE	W12
	BYTE		N24     Fs2 
	BYTE		N13     Fs3 
	BYTE	W12
	BYTE		        Fn3 
	BYTE	W12
	BYTE		N24     Fn2 
	BYTE		N13     Gs3 
	BYTE	W12
	BYTE		N10     Fs3   v060
	BYTE	W09
	BYTE		N14     As3 
	BYTE	W03
// 023   ----------------------------------------
	BYTE		N24     Ds2   v064
	BYTE		N12     As4   v076
	BYTE	W12
	BYTE		N13     Fn3   v064
	BYTE	W12
	BYTE		N24     Cn2 
	BYTE		N13     Fs3 
	BYTE	W12
	BYTE		        Fn3 
	BYTE	W12
	BYTE		N22     As1   v060
	BYTE		N13     Gs3   v064
	BYTE	W12
	BYTE		N10     Fs3   v060
	BYTE	W09
	BYTE		N14     Fs4 
	BYTE	W03
// 024   ----------------------------------------
	BYTE		TIE     An0   v064
	BYTE		TIE     An1   v080
	BYTE		N12     Fs5   v088
	BYTE	W12
	BYTE		N13     Fs3   v076
	BYTE	W12
	BYTE		        Gn3 
	BYTE	W12
	BYTE		        Fs3 
	BYTE	W12
	BYTE		        An3 
	BYTE	W12
	BYTE		N10     Gn3   v072
	BYTE	W09
	BYTE		N14     En4 
	BYTE	W03
// 025   ----------------------------------------
	BYTE		N12     En5   v088
	BYTE	W12
	BYTE		N13     Fs3   v076
	BYTE	W12
	BYTE		        Gn3 
	BYTE	W12
	BYTE		        Fs3 
	BYTE	W12
	BYTE		EOT     An0 
	BYTE		        An1 
	BYTE		N48     En2 
	BYTE		N13     An3 
	BYTE	W12
	BYTE		N10     Gn3   v072
	BYTE	W09
	BYTE		N14     Cs4 
	BYTE	W03
// 026   ----------------------------------------
	BYTE		N12     Cs5   v088
	BYTE	W12
	BYTE		N13     Fs3   v076
	BYTE	W12
	BYTE		N48     Fs2 
	BYTE		N13     Gn3 
	BYTE	W12
	BYTE		        Fs3 
	BYTE	W12
	BYTE		        An3 
	BYTE	W12
	BYTE		N10     Gn3   v072
	BYTE	W09
	BYTE		N14     Bn3 
	BYTE	W03
// 027   ----------------------------------------
	BYTE		N48     Dn2   v076
	BYTE		N12     Bn4   v088
	BYTE	W12
	BYTE		N13     Fs3   v076
	BYTE	W12
	BYTE		        Gn3 
	BYTE	W12
	BYTE		        Fs3 
	BYTE	W12
	BYTE		N22     Cs2   v072
	BYTE		N13     An3   v076
	BYTE	W12
	BYTE		N10     Gn3   v072
	BYTE	W09
	BYTE		N14     Fs4 
	BYTE	W03
// 028   ----------------------------------------
	BYTE		TIE     An0 
	BYTE		N12     Fs5   v088
	BYTE	W12
	BYTE		N13     Fs3   v076
	BYTE	W12
	BYTE		        Gn3 
	BYTE	W12
	BYTE		        Fs3 
	BYTE	W12
	BYTE		        An3 
	BYTE	W12
	BYTE		N10     Gn3   v072
	BYTE	W09
	BYTE		N14     En4 
	BYTE	W03
// 029   ----------------------------------------
	BYTE		N12     En5   v088
	BYTE	W12
	BYTE		N13     Fs3   v076
	BYTE	W12
	BYTE		        Gn3 
	BYTE	W12
	BYTE	TEMPO   79*FE13YouMayCallMeMarthMysteriousDancer_tbs/2
	BYTE		        Fs3 
	BYTE	W04
	BYTE	TEMPO   79*FE13YouMayCallMeMarthMysteriousDancer_tbs/2
	BYTE	W04
	BYTE	TEMPO   78*FE13YouMayCallMeMarthMysteriousDancer_tbs/2
	BYTE	W04
	BYTE		EOT     An0 
	BYTE	TEMPO   78*FE13YouMayCallMeMarthMysteriousDancer_tbs/2
	BYTE		N48     Bn1 
	BYTE		N13     An3 
	BYTE	W05
	BYTE	TEMPO   77*FE13YouMayCallMeMarthMysteriousDancer_tbs/2
	BYTE	W04
	BYTE	TEMPO   77*FE13YouMayCallMeMarthMysteriousDancer_tbs/2
	BYTE	W03
	BYTE		N10     Gn3   v072
	BYTE	W01
	BYTE	TEMPO   76*FE13YouMayCallMeMarthMysteriousDancer_tbs/2
	BYTE	W04
	BYTE	TEMPO   76*FE13YouMayCallMeMarthMysteriousDancer_tbs/2
	BYTE	W04
	BYTE		N14     Cs4 
	BYTE	W03
// 030   ----------------------------------------
	BYTE		N12     Cs5   v088
	BYTE	W06
	BYTE	TEMPO   79*FE13YouMayCallMeMarthMysteriousDancer_tbs/2
	BYTE	W06
	BYTE		N13     Fs3   v076
	BYTE	W12
	BYTE		N44     Cs2   v072
	BYTE		N13     Gn3   v076
	BYTE	W12
	BYTE		        Fs3 
	BYTE	W12
	BYTE		        An3 
	BYTE	W12
	BYTE		N10     Gn3   v072
	BYTE	W09
	BYTE		N14     Bn3 
	BYTE	W03
// 031   ----------------------------------------
	BYTE		N48     Fs1   v076
	BYTE		N12     Bn4   v088
	BYTE	W12
	BYTE		N13     Fs3   v076
	BYTE	W12
	BYTE		        Gn3 
	BYTE	W12
	BYTE		        Fs3 
	BYTE	W12
	BYTE		TIE     En1 
	BYTE		N13     An3 
	BYTE	W12
	BYTE		N10     Gn3   v072
	BYTE	W12
// 032   ----------------------------------------
	BYTE	W12
	BYTE		N13     Fs3   v076
	BYTE	W12
	BYTE		        Gn3 
	BYTE	W12
	BYTE		        Fs3 
	BYTE	W12
	BYTE		        An3 
	BYTE	W12
	BYTE		N10     Gn3   v072
	BYTE	W12
// 033   ----------------------------------------
	BYTE	W12
	BYTE		N13     Fs3   v076
	BYTE	W12
	BYTE		        Gn3 
	BYTE	W12
	BYTE		        Fs3 
	BYTE	W12
	BYTE		        An3 
	BYTE	W10
	BYTE		EOT     En1 
	BYTE	W02
	BYTE		N08     Gn3   v072
	BYTE	W12
	BYTE	GoTo
	 POIN2	FE13YouMayCallMeMarthMysteriousDancer_1_B1
FE13YouMayCallMeMarthMysteriousDancer_1_B2:
// 034   ----------------------------------------
	BYTE	FINE

//******************************************************//
	ALIGN 4

FE13YouMayCallMeMarthMysteriousDancer:
	BYTE	1	// NumTrks
	BYTE	0	// NumBlks
	BYTE	FE13YouMayCallMeMarthMysteriousDancer_pri	// Priority
	BYTE	FE13YouMayCallMeMarthMysteriousDancer_rev	// Reverb.

	POIN2	FE13YouMayCallMeMarthMysteriousDancer_grp

	POIN2	FE13YouMayCallMeMarthMysteriousDancer_1

	
