//Event file generated from Sappy .s format.
	#include "MPlayDef.event"

	#define	FE14ADarkFallFireMycahel_grp  voicegroup000
	#define	FE14ADarkFallFireMycahel_pri  0
	#define	FE14ADarkFallFireMycahel_rev  0
	#define	FE14ADarkFallFireMycahel_mvl  127
	#define	FE14ADarkFallFireMycahel_key  0
	#define	FE14ADarkFallFireMycahel_tbs  1
	#define	FE14ADarkFallFireMycahel_exg  0
	#define	FE14ADarkFallFireMycahel_cmp  1

	// .rodata
	//	FE14ADarkFallFireMycahel
	ALIGN 4


//**************** Track 1 (Midi-Chn.0) ****************//

FE14ADarkFallFireMycahel_001:
// 000   ----------------------------------------
 BYTE   VOL   25*FE14ADarkFallFireMycahel_mvl/mxv
 BYTE   KEYSH   FE14ADarkFallFireMycahel_key+0
Label_0_0139C604:
 BYTE   TEMPO   88*FE14ADarkFallFireMycahel_tbs/2
 BYTE   VOICE   40
 BYTE   W12
 BYTE   N06  Gs3  v124
 BYTE   N06  Ds5
 BYTE   W06
 BYTE   Gs3
 BYTE   N06  Ds5
 BYTE   W06
 BYTE   Gs3
 BYTE   N06  Ds5
 BYTE   W06
 BYTE   Gs3
 BYTE   N06  Cs5
 BYTE   W18
 BYTE   An3
 BYTE   N06  En5
 BYTE   W06
 BYTE   An3
 BYTE   N06  En5
 BYTE   W06
 BYTE   An3
 BYTE   N06  En5
 BYTE   W06
 BYTE   An3
 BYTE   N06  Ds5
 BYTE   W18
 BYTE   Bn3
 BYTE   N06  Fs5
 BYTE   W06
 BYTE   Bn3
 BYTE   N06  Fs5
 BYTE   W06
// 001   ----------------------------------------
Label_0_0139C633:
 BYTE   N06  Bn3  v124
 BYTE   N06  Fs5
 BYTE   W06
 BYTE   Bn3
 BYTE   N06  En5
 BYTE   W18
 BYTE   Cs4
 BYTE   N06  Gs5
 BYTE   W06
 BYTE   Cs4
 BYTE   N06  Gs5
 BYTE   W06
 BYTE   Cs4
 BYTE   N06  Fs5
 BYTE   W12
 BYTE   Ds4
 BYTE   N06  An5
 BYTE   W06
 BYTE   Ds4
 BYTE   N06  An5
 BYTE   W06
 BYTE   En4
 BYTE   N06  Gs5
 BYTE   W12
 BYTE   Fs4
 BYTE   N06  Cs5
 BYTE   W12
 BYTE   Gs4
 BYTE   N06  Ds5
 BYTE   W12
 BYTE   PEND 
// 002   ----------------------------------------
Label_0_0139C65E:
 BYTE   W12
 BYTE   N06  Gs3  v124
 BYTE   N06  Ds5
 BYTE   W06
 BYTE   Gs3
 BYTE   N06  Ds5
 BYTE   W06
 BYTE   Gs3
 BYTE   N06  Ds5
 BYTE   W06
 BYTE   Gs3
 BYTE   N06  Cs5
 BYTE   W18
 BYTE   An3
 BYTE   N06  En5
 BYTE   W06
 BYTE   An3
 BYTE   N06  En5
 BYTE   W06
 BYTE   An3
 BYTE   N06  En5
 BYTE   W06
 BYTE   An3
 BYTE   N06  Ds5
 BYTE   W18
 BYTE   Bn3
 BYTE   N06  Fs5
 BYTE   W06
 BYTE   Bn3
 BYTE   N06  Fs5
 BYTE   W06
 BYTE   PEND 
 BYTE   PATT
  POIN2 Label_0_0139C633
 BYTE   PATT
  POIN2 Label_0_0139C65E
 BYTE   PATT
  POIN2 Label_0_0139C633
 BYTE   PATT
  POIN2 Label_0_0139C65E
 BYTE   PATT
  POIN2 Label_0_0139C633
// 003   ----------------------------------------
 BYTE   W96
// 004   ----------------------------------------
 BYTE   W96
// 005   ----------------------------------------
 BYTE   W96
// 006   ----------------------------------------
 BYTE   W96
// 007   ----------------------------------------
 BYTE   W96
// 008   ----------------------------------------
 BYTE   W96
// 009   ----------------------------------------
 BYTE   W96
// 010   ----------------------------------------
 BYTE   W96
// 011   ----------------------------------------
 BYTE   W96
// 012   ----------------------------------------
 BYTE   W96
// 013   ----------------------------------------
 BYTE   W96
// 014   ----------------------------------------
 BYTE   W96
// 015   ----------------------------------------
 BYTE   W96
// 016   ----------------------------------------
 BYTE   W96
// 017   ----------------------------------------
 BYTE   W96
// 018   ----------------------------------------
 BYTE   W96
// 019   ----------------------------------------
 BYTE   W96
// 020   ----------------------------------------
 BYTE   W96
// 021   ----------------------------------------
 BYTE   W96
// 022   ----------------------------------------
 BYTE   W96
// 023   ----------------------------------------
 BYTE   W12
 BYTE   N06  Gs2  v124
 BYTE   N06  Ds4
 BYTE   W06
 BYTE   Gs2
 BYTE   N06  Ds4
 BYTE   W06
 BYTE   Gs2
 BYTE   N06  Ds4
 BYTE   W06
 BYTE   Gs2
 BYTE   N06  Cs4
 BYTE   W18
 BYTE   An2
 BYTE   N06  En4
 BYTE   W06
 BYTE   An2
 BYTE   N06  En4
 BYTE   W06
 BYTE   An2
 BYTE   N06  En4
 BYTE   W06
 BYTE   An2
 BYTE   N06  Ds4
 BYTE   W30
// 024   ----------------------------------------
 BYTE   W12
 BYTE   An2
 BYTE   N06  Ds4
 BYTE   W06
 BYTE   An2
 BYTE   N06  Ds4
 BYTE   W06
 BYTE   An2
 BYTE   N06  Ds4
 BYTE   W06
 BYTE   An2
 BYTE   N06  Cs4
 BYTE   W18
 BYTE   Bn2
 BYTE   N06  En4
 BYTE   W06
 BYTE   Bn2
 BYTE   N06  En4
 BYTE   W06
 BYTE   Bn2
 BYTE   N06  En4
 BYTE   W06
 BYTE   Bn2
 BYTE   N06  Ds4
 BYTE   W30
// 025   ----------------------------------------
 BYTE   W12
 BYTE   Bn2
 BYTE   N06  Ds4
 BYTE   W06
 BYTE   Bn2
 BYTE   N06  Ds4
 BYTE   W06
 BYTE   Bn2
 BYTE   N06  Ds4
 BYTE   W06
 BYTE   Bn2
 BYTE   N06  Cs4
 BYTE   W18
 BYTE   Cn3
 BYTE   N06  En4
 BYTE   W06
 BYTE   Cn3
 BYTE   N06  En4
 BYTE   W06
 BYTE   Cn3
 BYTE   N06  En4
 BYTE   W06
 BYTE   Cn3
 BYTE   N06  Ds4
 BYTE   W30
// 026   ----------------------------------------
 BYTE   W12
 BYTE   Cn3
 BYTE   N06  Ds4
 BYTE   W06
 BYTE   Cn3
 BYTE   N06  Ds4
 BYTE   W06
 BYTE   Cn3
 BYTE   N06  Ds4
 BYTE   W06
 BYTE   Cn3
 BYTE   N06  Cs4
 BYTE   W18
 BYTE   Ds3
 BYTE   N06  Fs4
 BYTE   W06
 BYTE   Cs3
 BYTE   N06  Fs4
 BYTE   W06
 BYTE   Ds3
 BYTE   N06  En4
 BYTE   W06
 BYTE   En3
 BYTE   W06
 BYTE   Ds4
 BYTE   W12
 BYTE   Cs4
 BYTE   W12
// 027   ----------------------------------------
 BYTE   W12
 BYTE   Gs2
 BYTE   N06  Fs4
 BYTE   W06
 BYTE   Gs2
 BYTE   N06  Fs4
 BYTE   W06
 BYTE   Gs2
 BYTE   N06  Fs4
 BYTE   W06
 BYTE   Gs2
 BYTE   N06  En4
 BYTE   W18
 BYTE   An2
 BYTE   N06  Gs4
 BYTE   W06
 BYTE   An2
 BYTE   N06  Gs4
 BYTE   W06
 BYTE   An2
 BYTE   N06  Gs4
 BYTE   W06
 BYTE   An2
 BYTE   N06  Fs4
 BYTE   W30
// 028   ----------------------------------------
 BYTE   W12
 BYTE   An2
 BYTE   N06  Fs4
 BYTE   W06
 BYTE   An2
 BYTE   N06  Fs4
 BYTE   W06
 BYTE   An2
 BYTE   N06  Fs4
 BYTE   W06
 BYTE   An2
 BYTE   N06  En4
 BYTE   W18
 BYTE   Bn2
 BYTE   N06  Gs4
 BYTE   W06
 BYTE   Bn2
 BYTE   N06  Gs4
 BYTE   W06
 BYTE   Bn2
 BYTE   N06  Gs4
 BYTE   W06
 BYTE   Bn2
 BYTE   N06  Fs4
 BYTE   W30
// 029   ----------------------------------------
 BYTE   W12
 BYTE   Bn2
 BYTE   N06  Fs4
 BYTE   W06
 BYTE   Bn2
 BYTE   N06  Fs4
 BYTE   W06
 BYTE   Bn2
 BYTE   N06  Fs4
 BYTE   W06
 BYTE   Bn2
 BYTE   N06  En4
 BYTE   W18
 BYTE   Cn3
 BYTE   N06  Gs4
 BYTE   W06
 BYTE   Cn3
 BYTE   N06  Gs4
 BYTE   W06
 BYTE   Cn3
 BYTE   N06  Gs4
 BYTE   W06
 BYTE   Cn3
 BYTE   N06  Fs4
 BYTE   W30
// 030   ----------------------------------------
 BYTE   W12
 BYTE   Gn3
 BYTE   N06  Gn4
 BYTE   W06
 BYTE   Gn3
 BYTE   N06  Gn4
 BYTE   W06
 BYTE   Gn3
 BYTE   N06  Gn4
 BYTE   W06
 BYTE   Gn3
 BYTE   N06  Fn4
 BYTE   W18
 BYTE   As3
 BYTE   N06  Gn4
 BYTE   W12
 BYTE   Gs3
 BYTE   N06  Gs4
 BYTE   W12
 BYTE   Gn3
 BYTE   N06  Gn4
 BYTE   W12
 BYTE   Ds3
 BYTE   N06  Ds4
 BYTE   W12
// 031   ----------------------------------------
 BYTE   N96  Ds3  v100
 BYTE   W96
// 032   ----------------------------------------
 BYTE   En3
 BYTE   W96
// 033   ----------------------------------------
 BYTE   Fs3
 BYTE   W96
// 034   ----------------------------------------
 BYTE   Gs3
 BYTE   W96
// 035   ----------------------------------------
 BYTE   N96
 BYTE   W96
// 036   ----------------------------------------
 BYTE   An3
 BYTE   W96
// 037   ----------------------------------------
 BYTE   Bn3
 BYTE   W96
// 038   ----------------------------------------
 BYTE   Cs4
 BYTE   W96
// 039   ----------------------------------------
Label_0_0139C7D5:
 BYTE   N06  En3  v100
 BYTE   N06  Gs4
 BYTE   W06
 BYTE   En3
 BYTE   N06  Gs4
 BYTE   W06
 BYTE   En3
 BYTE   N06  Gs4
 BYTE   W06
 BYTE   En3
 BYTE   N06  Gs4
 BYTE   W06
 BYTE   En3
 BYTE   N06  Gs4
 BYTE   W06
 BYTE   En3
 BYTE   N06  Gs4
 BYTE   W06
 BYTE   En3
 BYTE   N06  Gs4
 BYTE   W06
 BYTE   En3
 BYTE   N06  Gs4
 BYTE   W06
 BYTE   En3
 BYTE   N06  Gs4
 BYTE   W06
 BYTE   En3
 BYTE   N06  Gs4
 BYTE   W06
 BYTE   En3
 BYTE   N06  Gs4
 BYTE   W06
 BYTE   En3
 BYTE   N06  Gs4
 BYTE   W06
 BYTE   En3
 BYTE   N06  Gs4
 BYTE   W06
 BYTE   En3
 BYTE   N06  Gs4
 BYTE   W06
 BYTE   En3
 BYTE   N06  Gs4
 BYTE   W06
 BYTE   En3
 BYTE   N06  Gs4
 BYTE   W06
 BYTE   PEND 
// 040   ----------------------------------------
Label_0_0139C818:
 BYTE   N06  Fs3  v100
 BYTE   N06  An4
 BYTE   W06
 BYTE   Fs3
 BYTE   N06  An4
 BYTE   W06
 BYTE   Fs3
 BYTE   N06  An4
 BYTE   W06
 BYTE   Fs3
 BYTE   N06  An4
 BYTE   W06
 BYTE   Fs3
 BYTE   N06  An4
 BYTE   W06
 BYTE   Fs3
 BYTE   N06  An4
 BYTE   W06
 BYTE   Fs3
 BYTE   N06  An4
 BYTE   W06
 BYTE   Fs3
 BYTE   N06  An4
 BYTE   W06
 BYTE   Fs3
 BYTE   N06  An4
 BYTE   W06
 BYTE   Fs3
 BYTE   N06  An4
 BYTE   W06
 BYTE   Fs3
 BYTE   N06  An4
 BYTE   W06
 BYTE   Fs3
 BYTE   N06  An4
 BYTE   W06
 BYTE   Fs3
 BYTE   N06  An4
 BYTE   W06
 BYTE   Fs3
 BYTE   N06  An4
 BYTE   W06
 BYTE   Fs3
 BYTE   N06  An4
 BYTE   W06
 BYTE   Fs3
 BYTE   N06  An4
 BYTE   W06
 BYTE   PEND 
 BYTE   PATT
  POIN2 Label_0_0139C7D5
// 041   ----------------------------------------
Label_0_0139C860:
 BYTE   N06  Ds3  v100
 BYTE   N06  Gs4
 BYTE   W06
 BYTE   Ds3
 BYTE   N06  Gs4
 BYTE   W06
 BYTE   Ds3
 BYTE   N06  Gs4
 BYTE   W06
 BYTE   Ds3
 BYTE   N06  Gs4
 BYTE   W06
 BYTE   Ds3
 BYTE   N06  Gs4
 BYTE   W06
 BYTE   Ds3
 BYTE   N06  Gs4
 BYTE   W06
 BYTE   Ds3
 BYTE   N06  Gs4
 BYTE   W06
 BYTE   Ds3
 BYTE   N06  Gs4
 BYTE   W06
 BYTE   Ds3
 BYTE   N06  Gs4
 BYTE   W06
 BYTE   Ds3
 BYTE   N06  Gs4
 BYTE   W06
 BYTE   Ds3
 BYTE   N06  Gs4
 BYTE   W06
 BYTE   Ds3
 BYTE   N06  Gs4
 BYTE   W06
 BYTE   Ds3
 BYTE   N06  Gs4
 BYTE   W06
 BYTE   Ds3
 BYTE   N06  Gs4
 BYTE   W06
 BYTE   Ds3
 BYTE   N06  Gs4
 BYTE   W06
 BYTE   Ds3
 BYTE   N06  Gs4
 BYTE   W06
 BYTE   PEND 
 BYTE   PATT
  POIN2 Label_0_0139C7D5
 BYTE   PATT
  POIN2 Label_0_0139C818
 BYTE   PATT
  POIN2 Label_0_0139C7D5
 BYTE   PATT
  POIN2 Label_0_0139C860
// 042   ----------------------------------------
 BYTE   GoTo
  POIN2 Label_0_0139C604
 BYTE   FINE

//**************** Track 2 (Midi-Chn.1) ****************//

FE14ADarkFallFireMycahel_002:
// 000   ----------------------------------------
 BYTE   VOL   38*FE14ADarkFallFireMycahel_mvl/mxv
 BYTE   KEYSH   FE14ADarkFallFireMycahel_key+0
Label_1_0139C8C4:
 BYTE   VOICE   40
 BYTE   N12  Gs1  v096
 BYTE   N12  Cs2
 BYTE   W24
 BYTE   Gs1
 BYTE   N12  Cs2
 BYTE   W24
 BYTE   Gs1
 BYTE   N12  Cs2
 BYTE   W24
 BYTE   Gs1
 BYTE   N12  Cs2
 BYTE   W24
// 001   ----------------------------------------
Label_1_0139C8D8:
 BYTE   N12  Gs1  v096
 BYTE   N12  Cs2
 BYTE   W24
 BYTE   Gs1
 BYTE   N12  Cs2
 BYTE   W24
 BYTE   Gs1
 BYTE   N12  Cs2
 BYTE   W24
 BYTE   Gs1
 BYTE   N12  Cs2
 BYTE   W24
 BYTE   PEND 
 BYTE   PATT
  POIN2 Label_1_0139C8D8
 BYTE   PATT
  POIN2 Label_1_0139C8D8
// 002   ----------------------------------------
Label_1_0139C8F5:
 BYTE   N12  Fs1  v096
 BYTE   N12  An1
 BYTE   W24
 BYTE   Fs1
 BYTE   N12  An1
 BYTE   W24
 BYTE   Fs1
 BYTE   N12  An1
 BYTE   W24
 BYTE   Fs1
 BYTE   N12  An1
 BYTE   W24
 BYTE   PEND 
 BYTE   PATT
  POIN2 Label_1_0139C8F5
// 003   ----------------------------------------
Label_1_0139C90D:
 BYTE   N12  Fs1  v096
 BYTE   N12  Bn1
 BYTE   W24
 BYTE   Fs1
 BYTE   N12  Bn1
 BYTE   W24
 BYTE   Fs1
 BYTE   N12  Bn1
 BYTE   W24
 BYTE   Fs1
 BYTE   N12  Bn1
 BYTE   W24
 BYTE   PEND 
// 004   ----------------------------------------
Label_1_0139C920:
 BYTE   N12  Fs1  v096
 BYTE   N12  Cn2
 BYTE   W24
 BYTE   Fs1
 BYTE   N12  Cn2
 BYTE   W24
 BYTE   Fs1
 BYTE   N12  Cn2
 BYTE   W24
 BYTE   Fs1
 BYTE   N12  Cn2
 BYTE   W24
 BYTE   PEND 
 BYTE   PATT
  POIN2 Label_1_0139C8D8
 BYTE   PATT
  POIN2 Label_1_0139C8D8
 BYTE   PATT
  POIN2 Label_1_0139C8D8
 BYTE   PATT
  POIN2 Label_1_0139C8D8
 BYTE   PATT
  POIN2 Label_1_0139C8F5
 BYTE   PATT
  POIN2 Label_1_0139C8F5
 BYTE   PATT
  POIN2 Label_1_0139C90D
 BYTE   PATT
  POIN2 Label_1_0139C920
// 005   ----------------------------------------
 BYTE   W96
// 006   ----------------------------------------
 BYTE   W96
// 007   ----------------------------------------
 BYTE   W96
// 008   ----------------------------------------
 BYTE   W96
 BYTE   PATT
  POIN2 Label_1_0139C8D8
 BYTE   PATT
  POIN2 Label_1_0139C8D8
// 009   ----------------------------------------
Label_1_0139C969:
 BYTE   N12  Gn1  v096
 BYTE   N12  Cs2
 BYTE   W24
 BYTE   Gn1
 BYTE   N12  Cs2
 BYTE   W24
 BYTE   Gn1
 BYTE   N12  Cs2
 BYTE   W24
 BYTE   Gn1
 BYTE   N12  Cs2
 BYTE   W24
 BYTE   PEND 
 BYTE   PATT
  POIN2 Label_1_0139C969
 BYTE   PATT
  POIN2 Label_1_0139C8D8
 BYTE   PATT
  POIN2 Label_1_0139C8D8
 BYTE   PATT
  POIN2 Label_1_0139C969
 BYTE   PATT
  POIN2 Label_1_0139C969
// 010   ----------------------------------------
Label_1_0139C995:
 BYTE   N12  An1  v096
 BYTE   N12  Ds2
 BYTE   W24
 BYTE   An1
 BYTE   N12  Ds2
 BYTE   W24
 BYTE   An1
 BYTE   N12  Ds2
 BYTE   W24
 BYTE   An1
 BYTE   N12  Ds2
 BYTE   W24
 BYTE   PEND 
 BYTE   PATT
  POIN2 Label_1_0139C995
 BYTE   PATT
  POIN2 Label_1_0139C8D8
// 011   ----------------------------------------
 BYTE   N12  Gs1  v096
 BYTE   N12  Bn1
 BYTE   W24
 BYTE   Gs1
 BYTE   N12  Bn1
 BYTE   W24
 BYTE   Gs1
 BYTE   N12  Bn1
 BYTE   W24
 BYTE   Gs1
 BYTE   N12  Bn1
 BYTE   W24
// 012   ----------------------------------------
 BYTE   An1
 BYTE   N12  Dn2
 BYTE   W24
 BYTE   An1
 BYTE   N12  Dn2
 BYTE   W24
 BYTE   An1
 BYTE   N12  Dn2
 BYTE   W24
 BYTE   An1
 BYTE   N12  Dn2
 BYTE   W24
 BYTE   PATT
  POIN2 Label_1_0139C969
// 013   ----------------------------------------
 BYTE   N12  Ds1  v096
 BYTE   N12  Cn2
 BYTE   W24
 BYTE   Ds1
 BYTE   N12  Cn2
 BYTE   W24
 BYTE   Ds1
 BYTE   N12  Cn2
 BYTE   W24
 BYTE   Ds1
 BYTE   N12  Cn2
 BYTE   W24
// 014   ----------------------------------------
 BYTE   Gn1
 BYTE   N12  Cn2
 BYTE   W24
 BYTE   Gn1
 BYTE   N12  Cn2
 BYTE   W24
 BYTE   Gn1
 BYTE   N12  Cn2
 BYTE   W24
 BYTE   Gn1
 BYTE   N12  Cn2
 BYTE   W24
// 015   ----------------------------------------
 BYTE   N96  Gs2  v100
 BYTE   W96
// 016   ----------------------------------------
 BYTE   An2
 BYTE   W96
// 017   ----------------------------------------
 BYTE   Bn2
 BYTE   W96
// 018   ----------------------------------------
 BYTE   Cs3
 BYTE   W96
// 019   ----------------------------------------
 BYTE   N96
 BYTE   W96
// 020   ----------------------------------------
 BYTE   Dn3
 BYTE   W96
// 021   ----------------------------------------
 BYTE   Ds3
 BYTE   W96
// 022   ----------------------------------------
 BYTE   En3
 BYTE   W96
// 023   ----------------------------------------
 BYTE   En2  v108
 BYTE   W96
// 024   ----------------------------------------
 BYTE   Fs2
 BYTE   W96
// 025   ----------------------------------------
 BYTE   Gs2
 BYTE   W96
// 026   ----------------------------------------
 BYTE   An2  v104
 BYTE   W96
// 027   ----------------------------------------
 BYTE   En2  v108
 BYTE   W96
// 028   ----------------------------------------
 BYTE   Fs2
 BYTE   W96
// 029   ----------------------------------------
 BYTE   Gs2
 BYTE   W96
// 030   ----------------------------------------
 BYTE   An2  v104
 BYTE   W96
// 031   ----------------------------------------
 BYTE   GoTo
  POIN2 Label_1_0139C8C4
 BYTE   FINE

//**************** Track 3 (Midi-Chn.2) ****************//

FE14ADarkFallFireMycahel_003:
// 000   ----------------------------------------
 BYTE   VOL   38*FE14ADarkFallFireMycahel_mvl/mxv
 BYTE   KEYSH   FE14ADarkFallFireMycahel_key+0
Label_2_0139CA2C:
 BYTE   VOICE   14
 BYTE   N24  Gs3  v127
 BYTE   W96
// 001   ----------------------------------------
 BYTE   W96
// 002   ----------------------------------------
 BYTE   N24
 BYTE   W96
// 003   ----------------------------------------
 BYTE   W96
// 004   ----------------------------------------
 BYTE   N24
 BYTE   W96
// 005   ----------------------------------------
 BYTE   W96
// 006   ----------------------------------------
 BYTE   N24
 BYTE   W96
// 007   ----------------------------------------
 BYTE   W96
// 008   ----------------------------------------
 BYTE   N24
 BYTE   W96
// 009   ----------------------------------------
 BYTE   W96
// 010   ----------------------------------------
 BYTE   N24
 BYTE   W96
// 011   ----------------------------------------
 BYTE   W96
// 012   ----------------------------------------
 BYTE   N24
 BYTE   W96
// 013   ----------------------------------------
 BYTE   W96
// 014   ----------------------------------------
 BYTE   N24
 BYTE   W96
// 015   ----------------------------------------
 BYTE   W96
// 016   ----------------------------------------
 BYTE   W96
// 017   ----------------------------------------
 BYTE   W96
// 018   ----------------------------------------
 BYTE   W96
// 019   ----------------------------------------
 BYTE   W96
// 020   ----------------------------------------
 BYTE   W96
// 021   ----------------------------------------
 BYTE   W96
// 022   ----------------------------------------
 BYTE   W96
// 023   ----------------------------------------
 BYTE   W96
// 024   ----------------------------------------
 BYTE   W96
// 025   ----------------------------------------
 BYTE   W96
// 026   ----------------------------------------
 BYTE   W96
// 027   ----------------------------------------
 BYTE   W96
// 028   ----------------------------------------
 BYTE   W96
// 029   ----------------------------------------
 BYTE   W96
// 030   ----------------------------------------
 BYTE   W96
// 031   ----------------------------------------
 BYTE   W96
// 032   ----------------------------------------
 BYTE   W96
// 033   ----------------------------------------
 BYTE   W96
// 034   ----------------------------------------
 BYTE   W96
// 035   ----------------------------------------
 BYTE   W96
// 036   ----------------------------------------
 BYTE   W24
 BYTE   N72  Gs3  v096
 BYTE   W72
// 037   ----------------------------------------
 BYTE   W72
 BYTE   N48  Cs4
 BYTE   W24
// 038   ----------------------------------------
 BYTE   W24
 BYTE   N72  Gs3
 BYTE   W72
// 039   ----------------------------------------
 BYTE   W48
 BYTE   N48  Cs4
 BYTE   W48
// 040   ----------------------------------------
 BYTE   W24
 BYTE   N72  Gs3
 BYTE   W72
// 041   ----------------------------------------
 BYTE   W72
 BYTE   N48  Cs4
 BYTE   W24
// 042   ----------------------------------------
 BYTE   W24
 BYTE   N72  Gs3
 BYTE   W72
// 043   ----------------------------------------
 BYTE   W48
 BYTE   N48  Cs4
 BYTE   W48
// 044   ----------------------------------------
 BYTE   W48
 BYTE   Gs3
 BYTE   W48
// 045   ----------------------------------------
 BYTE   W48
 BYTE   N48
 BYTE   W48
// 046   ----------------------------------------
 BYTE   W48
 BYTE   N48
 BYTE   W48
// 047   ----------------------------------------
 BYTE   W48
 BYTE   N48
 BYTE   W48
// 048   ----------------------------------------
 BYTE   W48
 BYTE   N48
 BYTE   W48
// 049   ----------------------------------------
 BYTE   W48
 BYTE   N48
 BYTE   W48
// 050   ----------------------------------------
 BYTE   W48
 BYTE   N48
 BYTE   W48
// 051   ----------------------------------------
 BYTE   W96
// 052   ----------------------------------------
 BYTE   GoTo
  POIN2 Label_2_0139CA2C
 BYTE   FINE

//**************** Track 4 (Midi-Chn.3) ****************//

FE14ADarkFallFireMycahel_004:
// 000   ----------------------------------------
 BYTE   VOL   40*FE14ADarkFallFireMycahel_mvl/mxv
 BYTE   KEYSH   FE14ADarkFallFireMycahel_key+0
Label_3_0139CAA0:
 BYTE   VOICE   127
 BYTE   N06  Cn1  v116
 BYTE   N06  Dn2  v127
 BYTE   W06
 BYTE   Cn1  v116
 BYTE   W06
 BYTE   N12
 BYTE   N06  Dn2  v127
 BYTE   W06
 BYTE   N06
 BYTE   W06
 BYTE   N12  Cn1  v116
 BYTE   W12
 BYTE   N06
 BYTE   N06  Dn2  v127
 BYTE   W06
 BYTE   Cn1  v116
 BYTE   N06  Dn2  v127
 BYTE   W06
 BYTE   N12  Cn1  v116
 BYTE   N06  Dn2  v127
 BYTE   N72  Cs3  v116
 BYTE   W12
 BYTE   N12  Cn1
 BYTE   N06  Dn2  v127
 BYTE   W12
 BYTE   N12  Cn1  v116
 BYTE   W12
 BYTE   N12
 BYTE   N06  Dn2  v127
 BYTE   W12
// 001   ----------------------------------------
Label_3_0139CADB:
 BYTE   N06  Cn1  v116
 BYTE   N06  Dn2  v127
 BYTE   W06
 BYTE   Cn1  v116
 BYTE   N06  Dn2  v127
 BYTE   W06
 BYTE   N12  Cn1  v116
 BYTE   W06
 BYTE   N06  Dn2  v127
 BYTE   W06
 BYTE   N12  Cn1  v116
 BYTE   W06
 BYTE   N06  Dn2  v127
 BYTE   W06
 BYTE   Cn1  v116
 BYTE   N06  Dn2  v127
 BYTE   W06
 BYTE   Cn1  v116
 BYTE   W06
 BYTE   N12
 BYTE   N06  Dn2  v127
 BYTE   W12
 BYTE   N12  Cn1  v116
 BYTE   N06  Dn2  v127
 BYTE   W06
 BYTE   N06
 BYTE   W06
 BYTE   N12  Cn1  v116
 BYTE   W06
 BYTE   N06  Dn2  v127
 BYTE   W06
 BYTE   N12  Cn1  v116
 BYTE   N06  Dn2  v127
 BYTE   W12
 BYTE   PEND 
// 002   ----------------------------------------
Label_3_0139CB1F:
 BYTE   N06  Cn1  v116
 BYTE   N06  Dn2  v127
 BYTE   W06
 BYTE   Cn1  v116
 BYTE   W06
 BYTE   N12
 BYTE   N06  Dn2  v127
 BYTE   W06
 BYTE   N06
 BYTE   W06
 BYTE   N12  Cn1  v116
 BYTE   W12
 BYTE   N06
 BYTE   N06  Dn2  v127
 BYTE   W06
 BYTE   Cn1  v116
 BYTE   N06  Dn2  v127
 BYTE   W06
 BYTE   N12  Cn1  v116
 BYTE   N06  Dn2  v127
 BYTE   N72  Cs3  v116
 BYTE   W12
 BYTE   N12  Cn1
 BYTE   N06  Dn2  v127
 BYTE   W12
 BYTE   N12  Cn1  v116
 BYTE   W12
 BYTE   N12
 BYTE   N06  Dn2  v127
 BYTE   W12
 BYTE   PEND 
 BYTE   PATT
  POIN2 Label_3_0139CADB
 BYTE   PATT
  POIN2 Label_3_0139CB1F
 BYTE   PATT
  POIN2 Label_3_0139CADB
 BYTE   PATT
  POIN2 Label_3_0139CB1F
 BYTE   PATT
  POIN2 Label_3_0139CADB
 BYTE   PATT
  POIN2 Label_3_0139CB1F
 BYTE   PATT
  POIN2 Label_3_0139CADB
 BYTE   PATT
  POIN2 Label_3_0139CB1F
 BYTE   PATT
  POIN2 Label_3_0139CADB
 BYTE   PATT
  POIN2 Label_3_0139CB1F
 BYTE   PATT
  POIN2 Label_3_0139CADB
 BYTE   PATT
  POIN2 Label_3_0139CB1F
 BYTE   PATT
  POIN2 Label_3_0139CADB
 BYTE   PATT
  POIN2 Label_3_0139CB1F
 BYTE   PATT
  POIN2 Label_3_0139CADB
 BYTE   PATT
  POIN2 Label_3_0139CB1F
 BYTE   PATT
  POIN2 Label_3_0139CADB
 BYTE   PATT
  POIN2 Label_3_0139CB1F
 BYTE   PATT
  POIN2 Label_3_0139CADB
 BYTE   PATT
  POIN2 Label_3_0139CB1F
 BYTE   PATT
  POIN2 Label_3_0139CADB
 BYTE   PATT
  POIN2 Label_3_0139CB1F
 BYTE   PATT
  POIN2 Label_3_0139CADB
 BYTE   PATT
  POIN2 Label_3_0139CB1F
 BYTE   PATT
  POIN2 Label_3_0139CADB
 BYTE   PATT
  POIN2 Label_3_0139CB1F
 BYTE   PATT
  POIN2 Label_3_0139CADB
 BYTE   PATT
  POIN2 Label_3_0139CB1F
 BYTE   PATT
  POIN2 Label_3_0139CADB
 BYTE   PATT
  POIN2 Label_3_0139CB1F
 BYTE   PATT
  POIN2 Label_3_0139CADB
 BYTE   PATT
  POIN2 Label_3_0139CB1F
 BYTE   PATT
  POIN2 Label_3_0139CADB
 BYTE   PATT
  POIN2 Label_3_0139CB1F
 BYTE   PATT
  POIN2 Label_3_0139CADB
 BYTE   PATT
  POIN2 Label_3_0139CB1F
 BYTE   PATT
  POIN2 Label_3_0139CADB
 BYTE   PATT
  POIN2 Label_3_0139CB1F
 BYTE   PATT
  POIN2 Label_3_0139CADB
 BYTE   PATT
  POIN2 Label_3_0139CB1F
 BYTE   PATT
  POIN2 Label_3_0139CADB
 BYTE   PATT
  POIN2 Label_3_0139CB1F
 BYTE   PATT
  POIN2 Label_3_0139CADB
 BYTE   PATT
  POIN2 Label_3_0139CB1F
 BYTE   PATT
  POIN2 Label_3_0139CADB
 BYTE   PATT
  POIN2 Label_3_0139CB1F
 BYTE   PATT
  POIN2 Label_3_0139CADB
 BYTE   PATT
  POIN2 Label_3_0139CB1F
 BYTE   PATT
  POIN2 Label_3_0139CADB
// 003   ----------------------------------------
 BYTE   GoTo
  POIN2 Label_3_0139CAA0
 BYTE   FINE

//**************** Track 5 (Midi-Chn.4) ****************//

FE14ADarkFallFireMycahel_005:
// 000   ----------------------------------------
 BYTE   VOL   40*FE14ADarkFallFireMycahel_mvl/mxv
 BYTE   KEYSH   FE14ADarkFallFireMycahel_key+0
Label_4_0139CC58:
 BYTE   VOICE   116
 BYTE   N24  Cn1  v116
 BYTE   N06  Dn2  v127
 BYTE   N06  Gs2
 BYTE   W06
 BYTE   N06
 BYTE   W06
 BYTE   Dn2
 BYTE   W06
 BYTE   N06
 BYTE   W18
 BYTE   N24  Cn1  v116
 BYTE   N06  Gs2  v127
 BYTE   W06
 BYTE   N06
 BYTE   W06
 BYTE   N06
 BYTE   W12
 BYTE   N12  Cn1  v116
 BYTE   N06  Gs2  v127
 BYTE   W12
 BYTE   N12  Cn1  v116
 BYTE   N72  Gn2
 BYTE   W12
 BYTE   N24  Cn1
 BYTE   W12
// 001   ----------------------------------------
Label_4_0139CC84:
 BYTE   N06  Gs2  v127
 BYTE   W06
 BYTE   N06
 BYTE   W06
 BYTE   N12  Cn1  v116
 BYTE   W12
 BYTE   N12
 BYTE   W24
 BYTE   N06  Dn2  v127
 BYTE   W12
 BYTE   N12  Cn1  v116
 BYTE   N06  Dn2  v127
 BYTE   W06
 BYTE   N06
 BYTE   W06
 BYTE   N12  Cn1  v116
 BYTE   N06  Gs2  v127
 BYTE   W06
 BYTE   Dn2
 BYTE   N06  Gs2
 BYTE   W06
 BYTE   Dn2
 BYTE   W12
 BYTE   PEND 
// 002   ----------------------------------------
Label_4_0139CCAB:
 BYTE   N24  Cn1  v116
 BYTE   N06  Dn2  v127
 BYTE   N06  Gs2
 BYTE   W06
 BYTE   N06
 BYTE   W06
 BYTE   Dn2
 BYTE   W06
 BYTE   N06
 BYTE   W18
 BYTE   N24  Cn1  v116
 BYTE   N06  Gs2  v127
 BYTE   W06
 BYTE   N06
 BYTE   W06
 BYTE   N06
 BYTE   W12
 BYTE   N12  Cn1  v116
 BYTE   N06  Gs2  v127
 BYTE   W12
 BYTE   N12  Cn1  v116
 BYTE   N72  Gn2
 BYTE   W12
 BYTE   N24  Cn1
 BYTE   W12
 BYTE   PEND 
 BYTE   PATT
  POIN2 Label_4_0139CC84
 BYTE   PATT
  POIN2 Label_4_0139CCAB
 BYTE   PATT
  POIN2 Label_4_0139CC84
 BYTE   PATT
  POIN2 Label_4_0139CCAB
 BYTE   PATT
  POIN2 Label_4_0139CC84
 BYTE   PATT
  POIN2 Label_4_0139CCAB
 BYTE   PATT
  POIN2 Label_4_0139CC84
 BYTE   PATT
  POIN2 Label_4_0139CCAB
 BYTE   PATT
  POIN2 Label_4_0139CC84
 BYTE   PATT
  POIN2 Label_4_0139CCAB
 BYTE   PATT
  POIN2 Label_4_0139CC84
 BYTE   PATT
  POIN2 Label_4_0139CCAB
 BYTE   PATT
  POIN2 Label_4_0139CC84
// 003   ----------------------------------------
 BYTE   W96
// 004   ----------------------------------------
 BYTE   W96
// 005   ----------------------------------------
 BYTE   W96
// 006   ----------------------------------------
 BYTE   W12
 BYTE   N06  Gs2  v127
 BYTE   W06
 BYTE   N06
 BYTE   W06
 BYTE   N06
 BYTE   W12
 BYTE   N06
 BYTE   W12
 BYTE   N06
 BYTE   W18
 BYTE   N06
 BYTE   W18
 BYTE   N06
 BYTE   W12
// 007   ----------------------------------------
Label_4_0139CD2B:
 BYTE   N24  Cn1  v116
 BYTE   N06  Dn2  v127
 BYTE   W12
 BYTE   N06
 BYTE   W06
 BYTE   N06
 BYTE   W18
 BYTE   N24  Cn1  v116
 BYTE   N06  Gs2  v127
 BYTE   W06
 BYTE   N06
 BYTE   W06
 BYTE   N06
 BYTE   W12
 BYTE   N12  Cn1  v116
 BYTE   N06  Gs2  v127
 BYTE   W12
 BYTE   N12  Cn1  v116
 BYTE   N72  Gn2
 BYTE   W12
 BYTE   N24  Cn1
 BYTE   N06  Dn2  v127
 BYTE   W12
 BYTE   PEND 
// 008   ----------------------------------------
Label_4_0139CD55:
 BYTE   N06  Dn2  v127
 BYTE   W06
 BYTE   N06
 BYTE   W06
 BYTE   N12  Cn1  v116
 BYTE   W06
 BYTE   N06  Dn2  v127
 BYTE   W06
 BYTE   N12  Cn1  v116
 BYTE   W06
 BYTE   N06  Gs2  v127
 BYTE   W06
 BYTE   N06
 BYTE   W12
 BYTE   Dn2
 BYTE   W12
 BYTE   N12  Cn1  v116
 BYTE   N06  Dn2  v127
 BYTE   W06
 BYTE   N06
 BYTE   W06
 BYTE   N12  Cn1  v116
 BYTE   W06
 BYTE   N06  Dn2  v127
 BYTE   W06
 BYTE   N06
 BYTE   W12
 BYTE   PEND 
 BYTE   PATT
  POIN2 Label_4_0139CD2B
 BYTE   PATT
  POIN2 Label_4_0139CD55
 BYTE   PATT
  POIN2 Label_4_0139CD2B
 BYTE   PATT
  POIN2 Label_4_0139CD55
 BYTE   PATT
  POIN2 Label_4_0139CD2B
 BYTE   PATT
  POIN2 Label_4_0139CD55
 BYTE   PATT
  POIN2 Label_4_0139CD2B
 BYTE   PATT
  POIN2 Label_4_0139CD55
 BYTE   PATT
  POIN2 Label_4_0139CD2B
 BYTE   PATT
  POIN2 Label_4_0139CD55
 BYTE   PATT
  POIN2 Label_4_0139CD2B
 BYTE   PATT
  POIN2 Label_4_0139CD55
 BYTE   PATT
  POIN2 Label_4_0139CD2B
 BYTE   PATT
  POIN2 Label_4_0139CD55
 BYTE   PATT
  POIN2 Label_4_0139CD2B
 BYTE   PATT
  POIN2 Label_4_0139CD55
 BYTE   PATT
  POIN2 Label_4_0139CD2B
 BYTE   PATT
  POIN2 Label_4_0139CD55
 BYTE   PATT
  POIN2 Label_4_0139CD2B
 BYTE   PATT
  POIN2 Label_4_0139CD55
 BYTE   PATT
  POIN2 Label_4_0139CD2B
 BYTE   PATT
  POIN2 Label_4_0139CD55
// 009   ----------------------------------------
 BYTE   W96
// 010   ----------------------------------------
 BYTE   W96
// 011   ----------------------------------------
 BYTE   W96
// 012   ----------------------------------------
 BYTE   W96
// 013   ----------------------------------------
 BYTE   W96
// 014   ----------------------------------------
 BYTE   W96
// 015   ----------------------------------------
 BYTE   W96
// 016   ----------------------------------------
 BYTE   W96
// 017   ----------------------------------------
 BYTE   GoTo
  POIN2 Label_4_0139CC58
 BYTE   FINE

//**************** Track 6 (Midi-Chn.5) ****************//

FE14ADarkFallFireMycahel_006:
// 000   ----------------------------------------
 BYTE   VOL   23*FE14ADarkFallFireMycahel_mvl/mxv
 BYTE   KEYSH   FE14ADarkFallFireMycahel_key+0
Label_5_0139CE04:
 BYTE   VOICE   21
 BYTE   W96
// 001   ----------------------------------------
 BYTE   W96
// 002   ----------------------------------------
 BYTE   W96
// 003   ----------------------------------------
 BYTE   W96
// 004   ----------------------------------------
 BYTE   W96
// 005   ----------------------------------------
 BYTE   W96
// 006   ----------------------------------------
 BYTE   W96
// 007   ----------------------------------------
 BYTE   W96
// 008   ----------------------------------------
Label_5_0139CE0E:
 BYTE   N24  Gs3  v104
 BYTE   W24
 BYTE   N18  Cs4
 BYTE   W18
 BYTE   N06  Bn3
 BYTE   W06
 BYTE   N18  Cs4
 BYTE   W18
 BYTE   N06  Ds4
 BYTE   W06
 BYTE   N18  En4
 BYTE   W18
 BYTE   N06  Fs4
 BYTE   W06
 BYTE   PEND 
// 009   ----------------------------------------
Label_5_0139CE25:
 BYTE   N24  Gs4  v104
 BYTE   W24
 BYTE   N18
 BYTE   W18
 BYTE   N06  Fs4
 BYTE   W06
 BYTE   N18  An4
 BYTE   W18
 BYTE   N06  Gs4
 BYTE   W06
 BYTE   N18  Fs4
 BYTE   W18
 BYTE   N06  En4
 BYTE   W06
 BYTE   PEND 
// 010   ----------------------------------------
Label_5_0139CE3B:
 BYTE   N24  Cs4  v104
 BYTE   W24
 BYTE   N18
 BYTE   W18
 BYTE   N06  Bn3
 BYTE   W06
 BYTE   N18  Cs4
 BYTE   W18
 BYTE   N06  Ds4
 BYTE   W06
 BYTE   N18  En4
 BYTE   W18
 BYTE   N06  Fs4
 BYTE   W06
 BYTE   PEND 
// 011   ----------------------------------------
Label_5_0139CE51:
 BYTE   N24  Gs4  v104
 BYTE   W24
 BYTE   N18
 BYTE   W18
 BYTE   N06  Bn4
 BYTE   W06
 BYTE   N18  An4
 BYTE   W18
 BYTE   N06  Gs4
 BYTE   W06
 BYTE   N18  Fs4
 BYTE   W18
 BYTE   N06  En4
 BYTE   W06
 BYTE   PEND 
 BYTE   PATT
  POIN2 Label_5_0139CE3B
 BYTE   PATT
  POIN2 Label_5_0139CE25
// 012   ----------------------------------------
Label_5_0139CE71:
 BYTE   N24  Gs3  v088
 BYTE   N24  Ds4  v104
 BYTE   W24
 BYTE   N18  An3  v088
 BYTE   N18  En4  v104
 BYTE   W18
 BYTE   N06  Gs3  v088
 BYTE   N06  Ds4  v104
 BYTE   W06
 BYTE   N18  An3  v088
 BYTE   N18  En4  v104
 BYTE   W18
 BYTE   N06  Gs3  v088
 BYTE   N06  Ds4  v104
 BYTE   W06
 BYTE   N18  Ds4  v088
 BYTE   N18  Gs4  v104
 BYTE   W18
 BYTE   N06  En4  v088
 BYTE   N06  An4  v104
 BYTE   W06
 BYTE   PEND 
// 013   ----------------------------------------
 BYTE   N24  Fs4  v088
 BYTE   N24  Bn4  v104
 BYTE   W24
 BYTE   N18  Fs4  v088
 BYTE   N18  Bn4  v104
 BYTE   W18
 BYTE   N06  En4  v080
 BYTE   N06  An4  v100
 BYTE   W06
 BYTE   N18  Gs4  v088
 BYTE   N18  Cs5  v104
 BYTE   W18
 BYTE   N06  Fs4  v088
 BYTE   N06  Bn4  v104
 BYTE   W06
 BYTE   N18  En4  v088
 BYTE   N18  An4  v104
 BYTE   W16
 BYTE   TIE  Gs3  v068
 BYTE   W02
 BYTE   N12  Gs4  v104
 BYTE   W06
// 014   ----------------------------------------
 BYTE   W96
// 015   ----------------------------------------
 BYTE   W96
// 016   ----------------------------------------
 BYTE   W96
// 017   ----------------------------------------
 BYTE   W92
 BYTE   W02
 BYTE   EOT
 BYTE   Gs3
 BYTE   W02
// 018   ----------------------------------------
 BYTE   W96
// 019   ----------------------------------------
 BYTE   W96
// 020   ----------------------------------------
 BYTE   W96
// 021   ----------------------------------------
 BYTE   W96
// 022   ----------------------------------------
 BYTE   W96
// 023   ----------------------------------------
 BYTE   W96
// 024   ----------------------------------------
 BYTE   W96
// 025   ----------------------------------------
 BYTE   W96
// 026   ----------------------------------------
 BYTE   W96
// 027   ----------------------------------------
 BYTE   W96
// 028   ----------------------------------------
 BYTE   W96
// 029   ----------------------------------------
 BYTE   W96
// 030   ----------------------------------------
 BYTE   W96
// 031   ----------------------------------------
 BYTE   W96
// 032   ----------------------------------------
 BYTE   W96
// 033   ----------------------------------------
 BYTE   W96
// 034   ----------------------------------------
 BYTE   N12  Ds3  v096
 BYTE   W12
 BYTE   Gs2
 BYTE   W12
 BYTE   An2
 BYTE   W12
 BYTE   Fs3
 BYTE   W12
 BYTE   Ds3
 BYTE   W12
 BYTE   En3
 BYTE   W12
 BYTE   Bn3
 BYTE   W12
 BYTE   Fs4
 BYTE   W12
// 035   ----------------------------------------
 BYTE   En4
 BYTE   W12
 BYTE   An3
 BYTE   W12
 BYTE   Gs3
 BYTE   W12
 BYTE   Ds4
 BYTE   W12
 BYTE   Fs3
 BYTE   W12
 BYTE   En3
 BYTE   W12
 BYTE   Cs4
 BYTE   W12
 BYTE   En3
 BYTE   W12
// 036   ----------------------------------------
 BYTE   Ds3
 BYTE   W12
 BYTE   Gs2
 BYTE   W12
 BYTE   An2
 BYTE   W12
 BYTE   Fs3
 BYTE   W12
 BYTE   Ds3
 BYTE   W12
 BYTE   En3
 BYTE   W12
 BYTE   Bn3
 BYTE   W12
 BYTE   Bn4
 BYTE   W12
// 037   ----------------------------------------
 BYTE   An4
 BYTE   W12
 BYTE   Ds4
 BYTE   W12
 BYTE   Cs4
 BYTE   W12
 BYTE   Gs4
 BYTE   W12
 BYTE   Bn3
 BYTE   W12
 BYTE   An3
 BYTE   W12
 BYTE   Fs4
 BYTE   W12
 BYTE   An3
 BYTE   W12
// 038   ----------------------------------------
 BYTE   Gs3
 BYTE   W12
 BYTE   An3
 BYTE   W12
 BYTE   Bn3
 BYTE   W12
 BYTE   Fs4
 BYTE   W12
 BYTE   Cs4
 BYTE   W12
 BYTE   Ds4
 BYTE   W12
 BYTE   Gs4
 BYTE   W12
 BYTE   Ds5
 BYTE   W12
// 039   ----------------------------------------
 BYTE   Cs5
 BYTE   W12
 BYTE   Ds4
 BYTE   W12
 BYTE   Cs4
 BYTE   W12
 BYTE   An4
 BYTE   W12
 BYTE   Bn3
 BYTE   W12
 BYTE   An3
 BYTE   W12
 BYTE   Fs4
 BYTE   W12
 BYTE   An3
 BYTE   W12
// 040   ----------------------------------------
 BYTE   Gs3
 BYTE   W12
 BYTE   An3
 BYTE   W12
 BYTE   Bn3
 BYTE   W12
 BYTE   Fs4
 BYTE   W12
 BYTE   Ds4
 BYTE   W12
 BYTE   En4
 BYTE   W12
 BYTE   Gs4
 BYTE   W12
 BYTE   En5
 BYTE   W12
// 041   ----------------------------------------
 BYTE   Ds5
 BYTE   W12
 BYTE   Fs4
 BYTE   W12
 BYTE   En4
 BYTE   W12
 BYTE   Cs5
 BYTE   W12
 BYTE   Ds4
 BYTE   W12
 BYTE   Cs4
 BYTE   W12
 BYTE   An4
 BYTE   W12
 BYTE   Bn3
 BYTE   W12
 BYTE   PATT
  POIN2 Label_5_0139CE0E
 BYTE   PATT
  POIN2 Label_5_0139CE25
 BYTE   PATT
  POIN2 Label_5_0139CE3B
 BYTE   PATT
  POIN2 Label_5_0139CE51
 BYTE   PATT
  POIN2 Label_5_0139CE3B
 BYTE   PATT
  POIN2 Label_5_0139CE25
 BYTE   PATT
  POIN2 Label_5_0139CE71
// 042   ----------------------------------------
 BYTE   N24  Fs4  v088
 BYTE   N24  Bn4  v104
 BYTE   W24
 BYTE   N18  Fs4  v088
 BYTE   N18  Bn4  v104
 BYTE   W18
 BYTE   N06  En4  v080
 BYTE   N06  An4  v100
 BYTE   W06
 BYTE   N18  Gs4  v088
 BYTE   N18  Cs5  v104
 BYTE   W18
 BYTE   N06  Fs4  v088
 BYTE   N06  Bn4  v104
 BYTE   W06
 BYTE   N18  En4  v088
 BYTE   N18  An4  v104
 BYTE   W16
 BYTE   N07  Gs3  v068
 BYTE   W02
 BYTE   N06  Gs4  v104
 BYTE   W06
// 043   ----------------------------------------
 BYTE   GoTo
  POIN2 Label_5_0139CE04
 BYTE   FINE

//**************** Track 7 (Midi-Chn.6) ****************//

FE14ADarkFallFireMycahel_007:
// 000   ----------------------------------------
 BYTE   VOL   48*FE14ADarkFallFireMycahel_mvl/mxv
 BYTE   KEYSH   FE14ADarkFallFireMycahel_key+0
Label_6_0139CFD0:
 BYTE   VOICE   60
 BYTE   N36  Gs2  v096
 BYTE   N36  Cs3
 BYTE   W36
 BYTE   N06  Gs2
 BYTE   N06  Cs3
 BYTE   W06
 BYTE   Bn2
 BYTE   N06  Ds3
 BYTE   W06
 BYTE   N96  Cs3
 BYTE   N96  En3
 BYTE   W48
// 001   ----------------------------------------
Label_6_0139CFE6:
 BYTE   W48
 BYTE   N24  Bn2  v096
 BYTE   N24  Ds3
 BYTE   W24
 BYTE   Fs2
 BYTE   N24  Bn2
 BYTE   W24
 BYTE   PEND 
// 002   ----------------------------------------
Label_6_0139CFF2:
 BYTE   N36  Gs2  v096
 BYTE   N36  Cs3
 BYTE   W36
 BYTE   N06
 BYTE   N06  Gs3
 BYTE   W06
 BYTE   Bn2
 BYTE   N06  Fs3
 BYTE   W06
 BYTE   N96  Cs3
 BYTE   N96  Gs3
 BYTE   W48
 BYTE   PEND 
// 003   ----------------------------------------
 BYTE   W48
 BYTE   N24  Bn2
 BYTE   N24  Fs3
 BYTE   W24
 BYTE   Fs2
 BYTE   N24  En3
 BYTE   W24
// 004   ----------------------------------------
 BYTE   N36  Gs2
 BYTE   N36  Cs3
 BYTE   W36
 BYTE   N06  Gs2
 BYTE   N06  Cs3
 BYTE   W06
 BYTE   Bn2
 BYTE   N06  Ds3
 BYTE   W06
 BYTE   N96  Cs3
 BYTE   N96  En3
 BYTE   W48
 BYTE   PATT
  POIN2 Label_6_0139CFE6
 BYTE   PATT
  POIN2 Label_6_0139CFF2
// 005   ----------------------------------------
 BYTE   W48
 BYTE   N24  Cn3  v096
 BYTE   N24  Fs3
 BYTE   W24
 BYTE   Gs2  v104
 BYTE   N24  En3  v096
 BYTE   W24
// 006   ----------------------------------------
Label_6_0139D03A:
 BYTE   N36  Gs2  v096
 BYTE   N36  Cs3
 BYTE   N36  Cs4  v120
 BYTE   W36
 BYTE   N06  Gs2  v096
 BYTE   N06  Cs3
 BYTE   N06  Cs4  v120
 BYTE   W06
 BYTE   Bn2  v096
 BYTE   N06  Ds3
 BYTE   N06  Ds4  v120
 BYTE   W06
 BYTE   N96  Cs3  v096
 BYTE   N96  En3
 BYTE   N96  En4  v120
 BYTE   W48
 BYTE   PEND 
// 007   ----------------------------------------
Label_6_0139D05E:
 BYTE   W48
 BYTE   N24  Bn2  v096
 BYTE   N24  Ds3
 BYTE   N24  Ds4  v120
 BYTE   W24
 BYTE   Fs2  v096
 BYTE   N24  Bn2
 BYTE   N24  Bn3  v120
 BYTE   W24
 BYTE   PEND 
// 008   ----------------------------------------
Label_6_0139D071:
 BYTE   N36  Gs2  v096
 BYTE   N36  Cs3
 BYTE   N36  Cs4  v120
 BYTE   W36
 BYTE   N06  Cs3  v096
 BYTE   N06  Gs3
 BYTE   N06  En4  v120
 BYTE   W06
 BYTE   Bn2  v096
 BYTE   N06  Fs3
 BYTE   N06  Ds4  v120
 BYTE   W06
 BYTE   N96  Cs3  v096
 BYTE   N96  Gs3
 BYTE   N96  En4  v120
 BYTE   W48
 BYTE   PEND 
// 009   ----------------------------------------
 BYTE   W48
 BYTE   N24  Bn2  v096
 BYTE   N24  Fs3
 BYTE   N24  Ds4  v120
 BYTE   W24
 BYTE   Fs2  v096
 BYTE   N24  En3
 BYTE   N24  Cn4  v120
 BYTE   W24
 BYTE   PATT
  POIN2 Label_6_0139D03A
 BYTE   PATT
  POIN2 Label_6_0139D05E
 BYTE   PATT
  POIN2 Label_6_0139D071
// 010   ----------------------------------------
 BYTE   W48
 BYTE   N24  Cn3  v096
 BYTE   N24  Fs3
 BYTE   N24  Ds4  v120
 BYTE   W24
 BYTE   Gs2  v104
 BYTE   N24  En3  v096
 BYTE   N24  Cn4  v120
 BYTE   W24
// 011   ----------------------------------------
 BYTE   N36  Ds2  v096
 BYTE   N36  Gs2
 BYTE   W36
 BYTE   N06
 BYTE   N06  Ds3
 BYTE   W06
 BYTE   Fs2
 BYTE   N06  Cs3
 BYTE   W06
 BYTE   N84  Gs2
 BYTE   N84  Ds3
 BYTE   W48
// 012   ----------------------------------------
 BYTE   W36
 BYTE   N06  Fs2
 BYTE   N06  Cs3
 BYTE   W06
 BYTE   Gs2
 BYTE   N06  Ds3
 BYTE   W06
 BYTE   N18  Bn2
 BYTE   N18  Fs3
 BYTE   W18
 BYTE   An2
 BYTE   N18  En3
 BYTE   W18
 BYTE   N06  Gs2
 BYTE   N06  Ds3
 BYTE   W06
 BYTE   Fs2
 BYTE   N06  Cs3
 BYTE   W06
// 013   ----------------------------------------
 BYTE   N36  Gs2
 BYTE   N36  Ds3
 BYTE   W36
 BYTE   N06
 BYTE   N06  Gs3
 BYTE   W06
 BYTE   Cs3
 BYTE   N06  Fs3
 BYTE   W06
 BYTE   TIE  Ds3
 BYTE   TIE  Gs3
 BYTE   W36
 BYTE   N06  Ds4  v112
 BYTE   W06
 BYTE   Cs4
 BYTE   W06
// 014   ----------------------------------------
 BYTE   N96  Ds4
 BYTE   W96
// 015   ----------------------------------------
 BYTE   EOT
 BYTE   Ds3  v068
Label_6_0139D116:
 BYTE   W24
 BYTE   N18  Cs3  v127
 BYTE   W18
 BYTE   N06  Bn2
 BYTE   W06
 BYTE   N18  Cs3
 BYTE   W18
 BYTE   N06  Ds3
 BYTE   W06
 BYTE   N18  En3
 BYTE   W18
 BYTE   N06  Fs3
 BYTE   W06
 BYTE   PEND 
// 016   ----------------------------------------
 BYTE   N90  Gs3
 BYTE   W90
 BYTE   N03  Fs3
 BYTE   W03
 BYTE   En3
 BYTE   W03
// 017   ----------------------------------------
 BYTE   N72  Ds3
 BYTE   W72
 BYTE   N24  Cs3
 BYTE   W24
// 018   ----------------------------------------
 BYTE   N90  Ds3
 BYTE   W96
 BYTE   PATT
  POIN2 Label_6_0139D116
// 019   ----------------------------------------
 BYTE   N72  Gs3  v127
 BYTE   W72
 BYTE   N24  Bn3
 BYTE   W24
// 020   ----------------------------------------
 BYTE   N90  As3
 BYTE   W90
 BYTE   N03  Bn3
 BYTE   W03
 BYTE   Cs4
 BYTE   W03
// 021   ----------------------------------------
 BYTE   N96  Fs3
 BYTE   W96
// 022   ----------------------------------------
 BYTE   W96
// 023   ----------------------------------------
 BYTE   W96
// 024   ----------------------------------------
 BYTE   W24
 BYTE   N24  Gs2
 BYTE   W24
 BYTE   Cs3
 BYTE   W24
 BYTE   Fs3
 BYTE   W24
// 025   ----------------------------------------
 BYTE   En3
 BYTE   W24
 BYTE   Ds3
 BYTE   W24
 BYTE   Cs3
 BYTE   W24
 BYTE   Bn2
 BYTE   W24
// 026   ----------------------------------------
 BYTE   W96
// 027   ----------------------------------------
 BYTE   W96
// 028   ----------------------------------------
 BYTE   W24
 BYTE   Cs3
 BYTE   W24
 BYTE   Fs3
 BYTE   W24
 BYTE   Bn3
 BYTE   W24
// 029   ----------------------------------------
 BYTE   As3
 BYTE   W24
 BYTE   Gs3
 BYTE   W24
 BYTE   Gn3
 BYTE   W24
 BYTE   Ds3
 BYTE   W24
// 030   ----------------------------------------
 BYTE   N96  Ds2  v116
 BYTE   W36
 BYTE   N06  Gs2
 BYTE   W06
 BYTE   Fs2
 BYTE   W06
 BYTE   N84  Gs2
 BYTE   W48
// 031   ----------------------------------------
 BYTE   N96  En2
 BYTE   W36
 BYTE   N06  Fs2
 BYTE   W06
 BYTE   Gs2
 BYTE   W06
 BYTE   N18  Bn2
 BYTE   W18
 BYTE   An2
 BYTE   W18
 BYTE   N06  Gs2
 BYTE   W06
 BYTE   Fs2
 BYTE   W06
// 032   ----------------------------------------
 BYTE   N96
 BYTE   N36  Gs2
 BYTE   W36
 BYTE   N06  Ds3
 BYTE   W06
 BYTE   Cs3
 BYTE   W06
 BYTE   N84  Ds3
 BYTE   W48
// 033   ----------------------------------------
 BYTE   N96  Gs2
 BYTE   W36
 BYTE   N06  Cs3
 BYTE   W06
 BYTE   Ds3
 BYTE   W06
 BYTE   N24  Fs3
 BYTE   W24
 BYTE   N12  En3
 BYTE   W12
 BYTE   N06  Ds3
 BYTE   W06
 BYTE   Cs3
 BYTE   W06
// 034   ----------------------------------------
 BYTE   N96  As2
 BYTE   N36  Ds3
 BYTE   W36
 BYTE   N06  Gs3
 BYTE   W06
 BYTE   Fs3
 BYTE   W06
 BYTE   N84  Gs3
 BYTE   W48
// 035   ----------------------------------------
 BYTE   N96  Bn2
 BYTE   W36
 BYTE   N06  Fs3
 BYTE   W06
 BYTE   Gs3
 BYTE   W06
 BYTE   N18  Bn3
 BYTE   W18
 BYTE   An3
 BYTE   W18
 BYTE   N06  Gs3
 BYTE   W06
 BYTE   Fs3
 BYTE   W06
// 036   ----------------------------------------
 BYTE   N96  Cs3
 BYTE   N36  Gs3
 BYTE   W36
 BYTE   N06  Ds4
 BYTE   W06
 BYTE   Cs4
 BYTE   W06
 BYTE   TIE  Ds4
 BYTE   W48
// 037   ----------------------------------------
 BYTE   N96  Ds3
 BYTE   W96
// 038   ----------------------------------------
 BYTE   EOT
 BYTE   Ds4
Label_6_0139D1E4:
 BYTE   N36  Cs4  v116
 BYTE   W36
 BYTE   N06  En4
 BYTE   W06
 BYTE   N06
 BYTE   W06
 BYTE   TIE
 BYTE   W48
 BYTE   PEND 
// 039   ----------------------------------------
 BYTE   W72
 BYTE   EOT
 BYTE   N12  Ds4
 BYTE   W12
 BYTE   Bn3
 BYTE   W12
 BYTE   PATT
  POIN2 Label_6_0139D1E4
// 040   ----------------------------------------
 BYTE   W72
 BYTE   EOT
 BYTE   En4
 BYTE   N12  Ds4  v116
 BYTE   W12
 BYTE   Bn3
 BYTE   W12
 BYTE   PATT
  POIN2 Label_6_0139D1E4
// 041   ----------------------------------------
 BYTE   W72
 BYTE   EOT
 BYTE   En4
 BYTE   N12  Ds4  v116
 BYTE   W12
 BYTE   Bn3
 BYTE   W12
 BYTE   PATT
  POIN2 Label_6_0139D1E4
// 042   ----------------------------------------
 BYTE   W72
 BYTE   EOT
 BYTE   En4
 BYTE   N12  Ds4  v116
 BYTE   W12
 BYTE   Cn4
 BYTE   W12
// 043   ----------------------------------------
 BYTE   GoTo
  POIN2 Label_6_0139CFD0
 BYTE   FINE

//**************** Track 8 (Midi-Chn.7) ****************//

FE14ADarkFallFireMycahel_008:
// 000   ----------------------------------------
 BYTE   VOL   38*FE14ADarkFallFireMycahel_mvl/mxv
 BYTE   KEYSH   FE14ADarkFallFireMycahel_key+0
Label_7_0139D22C:
 BYTE   VOICE   119
 BYTE   N96  Cn3  v100
 BYTE   W96
// 001   ----------------------------------------
 BYTE   W72
 BYTE   N96
 BYTE   W24
// 002   ----------------------------------------
 BYTE   W96
// 003   ----------------------------------------
 BYTE   W72
 BYTE   N96
 BYTE   W24
// 004   ----------------------------------------
 BYTE   W96
// 005   ----------------------------------------
 BYTE   W72
 BYTE   N96
 BYTE   W24
// 006   ----------------------------------------
 BYTE   W96
// 007   ----------------------------------------
 BYTE   W72
 BYTE   N96
 BYTE   W24
// 008   ----------------------------------------
 BYTE   W96
// 009   ----------------------------------------
 BYTE   W72
 BYTE   N96
 BYTE   W24
// 010   ----------------------------------------
 BYTE   W96
// 011   ----------------------------------------
 BYTE   W72
 BYTE   N96
 BYTE   W24
// 012   ----------------------------------------
 BYTE   W96
// 013   ----------------------------------------
 BYTE   W72
 BYTE   N96
 BYTE   W24
// 014   ----------------------------------------
 BYTE   W96
// 015   ----------------------------------------
 BYTE   W72
 BYTE   N96
 BYTE   W24
// 016   ----------------------------------------
 BYTE   W96
// 017   ----------------------------------------
 BYTE   W72
 BYTE   N96
 BYTE   W24
// 018   ----------------------------------------
 BYTE   W96
// 019   ----------------------------------------
 BYTE   W96
// 020   ----------------------------------------
 BYTE   W96
// 021   ----------------------------------------
 BYTE   W96
// 022   ----------------------------------------
 BYTE   W96
// 023   ----------------------------------------
 BYTE   W96
// 024   ----------------------------------------
 BYTE   W96
// 025   ----------------------------------------
 BYTE   W96
// 026   ----------------------------------------
 BYTE   W96
// 027   ----------------------------------------
 BYTE   W96
// 028   ----------------------------------------
 BYTE   W96
// 029   ----------------------------------------
 BYTE   W96
// 030   ----------------------------------------
 BYTE   W96
// 031   ----------------------------------------
 BYTE   W96
// 032   ----------------------------------------
 BYTE   W96
// 033   ----------------------------------------
 BYTE   W96
// 034   ----------------------------------------
 BYTE   W96
// 035   ----------------------------------------
 BYTE   W72
 BYTE   N96
 BYTE   W24
// 036   ----------------------------------------
 BYTE   W96
// 037   ----------------------------------------
 BYTE   W96
// 038   ----------------------------------------
 BYTE   W96
// 039   ----------------------------------------
 BYTE   W96
// 040   ----------------------------------------
 BYTE   W96
// 041   ----------------------------------------
 BYTE   W96
// 042   ----------------------------------------
 BYTE   W96
// 043   ----------------------------------------
 BYTE   W96
// 044   ----------------------------------------
 BYTE   W96
// 045   ----------------------------------------
 BYTE   W96
// 046   ----------------------------------------
 BYTE   W96
// 047   ----------------------------------------
 BYTE   W96
// 048   ----------------------------------------
 BYTE   W96
// 049   ----------------------------------------
 BYTE   W96
// 050   ----------------------------------------
 BYTE   W96
// 051   ----------------------------------------
 BYTE   W96
// 052   ----------------------------------------
 BYTE   GoTo
  POIN2 Label_7_0139D22C
 BYTE   FINE

//**************** Track 9 (Midi-Chn.8) ****************//

FE14ADarkFallFireMycahel_009:
// 000   ----------------------------------------
 BYTE   VOL   33*FE14ADarkFallFireMycahel_mvl/mxv
 BYTE   KEYSH   FE14ADarkFallFireMycahel_key+0
Label_8_0139D284:
 BYTE   VOICE   1
 BYTE   W96
// 001   ----------------------------------------
 BYTE   W96
// 002   ----------------------------------------
 BYTE   W96
// 003   ----------------------------------------
 BYTE   W96
// 004   ----------------------------------------
 BYTE   W96
// 005   ----------------------------------------
 BYTE   W96
// 006   ----------------------------------------
 BYTE   W96
// 007   ----------------------------------------
 BYTE   W96
// 008   ----------------------------------------
 BYTE   W96
// 009   ----------------------------------------
 BYTE   W96
// 010   ----------------------------------------
 BYTE   W96
// 011   ----------------------------------------
 BYTE   W96
// 012   ----------------------------------------
 BYTE   W96
// 013   ----------------------------------------
 BYTE   W96
// 014   ----------------------------------------
 BYTE   W96
// 015   ----------------------------------------
 BYTE   W96
// 016   ----------------------------------------
Label_8_0139D296:
 BYTE   N06  Ds3  v127
 BYTE   W06
 BYTE   Gs2
 BYTE   W06
 BYTE   An2
 BYTE   W06
 BYTE   En3
 BYTE   W06
 BYTE   Cs3
 BYTE   W06
 BYTE   Ds3
 BYTE   W06
 BYTE   Bn3
 BYTE   W06
 BYTE   Gs3
 BYTE   W06
 BYTE   An3
 BYTE   W06
 BYTE   En4
 BYTE   W06
 BYTE   Cs4
 BYTE   W06
 BYTE   Ds4
 BYTE   W06
 BYTE   Bn4
 BYTE   W06
 BYTE   Gs4
 BYTE   W06
 BYTE   An4
 BYTE   W06
 BYTE   En5
 BYTE   W06
 BYTE   PEND 
// 017   ----------------------------------------
Label_8_0139D2B9:
 BYTE   N06  Ds5  v127
 BYTE   W06
 BYTE   Fs4
 BYTE   W06
 BYTE   En4
 BYTE   W06
 BYTE   Cs5
 BYTE   W06
 BYTE   Ds4
 BYTE   W06
 BYTE   Cs4
 BYTE   W06
 BYTE   An4
 BYTE   W06
 BYTE   Cs4
 BYTE   W06
 BYTE   Bn3
 BYTE   W06
 BYTE   Gs4
 BYTE   W06
 BYTE   Bn3
 BYTE   W06
 BYTE   An3
 BYTE   W06
 BYTE   Fs4
 BYTE   W06
 BYTE   An3
 BYTE   W06
 BYTE   Gs3
 BYTE   W06
 BYTE   En4
 BYTE   W06
 BYTE   PEND 
 BYTE   PATT
  POIN2 Label_8_0139D296
 BYTE   PATT
  POIN2 Label_8_0139D2B9
// 018   ----------------------------------------
 BYTE   W96
// 019   ----------------------------------------
 BYTE   W96
// 020   ----------------------------------------
 BYTE   W96
// 021   ----------------------------------------
 BYTE   W96
// 022   ----------------------------------------
 BYTE   W96
// 023   ----------------------------------------
 BYTE   W96
// 024   ----------------------------------------
 BYTE   W96
// 025   ----------------------------------------
 BYTE   W96
// 026   ----------------------------------------
 BYTE   W96
// 027   ----------------------------------------
 BYTE   W96
// 028   ----------------------------------------
 BYTE   W96
// 029   ----------------------------------------
 BYTE   W96
// 030   ----------------------------------------
 BYTE   W96
// 031   ----------------------------------------
 BYTE   W96
// 032   ----------------------------------------
 BYTE   W96
// 033   ----------------------------------------
 BYTE   W96
// 034   ----------------------------------------
 BYTE   W96
// 035   ----------------------------------------
 BYTE   W96
// 036   ----------------------------------------
 BYTE   W96
// 037   ----------------------------------------
 BYTE   W96
 BYTE   PATT
  POIN2 Label_8_0139D296
 BYTE   PATT
  POIN2 Label_8_0139D2B9
 BYTE   PATT
  POIN2 Label_8_0139D296
 BYTE   PATT
  POIN2 Label_8_0139D2B9
// 038   ----------------------------------------
 BYTE   W96
// 039   ----------------------------------------
 BYTE   W96
// 040   ----------------------------------------
 BYTE   W96
// 041   ----------------------------------------
 BYTE   W96
// 042   ----------------------------------------
 BYTE   W96
// 043   ----------------------------------------
 BYTE   W96
// 044   ----------------------------------------
 BYTE   W96
// 045   ----------------------------------------
 BYTE   W96
// 046   ----------------------------------------
 BYTE   GoTo
  POIN2 Label_8_0139D284
 BYTE   FINE

//**************** Track 10 (Midi-Chn.9) ****************//

FE14ADarkFallFireMycahel_010:
// 000   ----------------------------------------
 BYTE   VOL   44*FE14ADarkFallFireMycahel_mvl/mxv
 BYTE   KEYSH   FE14ADarkFallFireMycahel_key+0
Label_9_0139D320:
 BYTE   VOICE   73
 BYTE   W96
// 001   ----------------------------------------
 BYTE   W96
// 002   ----------------------------------------
 BYTE   W96
// 003   ----------------------------------------
 BYTE   W96
// 004   ----------------------------------------
 BYTE   W96
// 005   ----------------------------------------
 BYTE   W96
// 006   ----------------------------------------
 BYTE   W96
// 007   ----------------------------------------
 BYTE   W96
// 008   ----------------------------------------
 BYTE   W96
// 009   ----------------------------------------
 BYTE   W96
// 010   ----------------------------------------
 BYTE   W96
// 011   ----------------------------------------
 BYTE   W96
// 012   ----------------------------------------
 BYTE   W96
// 013   ----------------------------------------
 BYTE   W96
// 014   ----------------------------------------
 BYTE   W96
// 015   ----------------------------------------
 BYTE   W96
// 016   ----------------------------------------
 BYTE   N03  Fs4  v127
 BYTE   W03
 BYTE   TIE  Gs4
 BYTE   W92
 BYTE   W01
// 017   ----------------------------------------
 BYTE   W36
 BYTE   W03
 BYTE   EOT
 BYTE   N03
 BYTE   W03
 BYTE   N06  Bn4
 BYTE   W06
 BYTE   N42  An4
 BYTE   W42
 BYTE   N03  Gs4
 BYTE   W03
 BYTE   Fs4
 BYTE   W03
// 018   ----------------------------------------
 BYTE   N42  Gs4
 BYTE   W42
 BYTE   N03  Fs4
 BYTE   W03
 BYTE   En4
 BYTE   W03
 BYTE   TIE  Ds4
 BYTE   W48
// 019   ----------------------------------------
 BYTE   W96
// 020   ----------------------------------------
 BYTE   EOT
 BYTE   W96
// 021   ----------------------------------------
 BYTE   W96
// 022   ----------------------------------------
 BYTE   W96
// 023   ----------------------------------------
 BYTE   W96
// 024   ----------------------------------------
 BYTE   W96
// 025   ----------------------------------------
 BYTE   W96
// 026   ----------------------------------------
 BYTE   W96
// 027   ----------------------------------------
 BYTE   W96
// 028   ----------------------------------------
 BYTE   W96
// 029   ----------------------------------------
 BYTE   W96
// 030   ----------------------------------------
 BYTE   W96
// 031   ----------------------------------------
 BYTE   W96
// 032   ----------------------------------------
 BYTE   W96
// 033   ----------------------------------------
 BYTE   W96
// 034   ----------------------------------------
 BYTE   W96
// 035   ----------------------------------------
 BYTE   W96
// 036   ----------------------------------------
 BYTE   W96
// 037   ----------------------------------------
 BYTE   W96
// 038   ----------------------------------------
 BYTE   W96
// 039   ----------------------------------------
 BYTE   W96
// 040   ----------------------------------------
 BYTE   W96
// 041   ----------------------------------------
 BYTE   W96
// 042   ----------------------------------------
 BYTE   W96
// 043   ----------------------------------------
 BYTE   W96
// 044   ----------------------------------------
 BYTE   W96
// 045   ----------------------------------------
 BYTE   W96
// 046   ----------------------------------------
 BYTE   W96
// 047   ----------------------------------------
 BYTE   W96
// 048   ----------------------------------------
 BYTE   W96
// 049   ----------------------------------------
 BYTE   W96
// 050   ----------------------------------------
 BYTE   W96
// 051   ----------------------------------------
 BYTE   W96
// 052   ----------------------------------------
 BYTE   GoTo
  POIN2 Label_9_0139D320
 BYTE   FINE

//**************** Track 11 (Midi-Chn.10) ****************//

FE14ADarkFallFireMycahel_011:
// 000   ----------------------------------------
 BYTE   VOL   33*FE14ADarkFallFireMycahel_mvl/mxv
 BYTE   KEYSH   FE14ADarkFallFireMycahel_key+0
Label_10_0139D384:
 BYTE   VOICE   29
 BYTE   W96
// 001   ----------------------------------------
 BYTE   W96
// 002   ----------------------------------------
 BYTE   W96
// 003   ----------------------------------------
 BYTE   W96
// 004   ----------------------------------------
 BYTE   W96
// 005   ----------------------------------------
 BYTE   W96
// 006   ----------------------------------------
 BYTE   W96
// 007   ----------------------------------------
 BYTE   W96
// 008   ----------------------------------------
 BYTE   W96
// 009   ----------------------------------------
 BYTE   W96
// 010   ----------------------------------------
 BYTE   W96
// 011   ----------------------------------------
 BYTE   W96
// 012   ----------------------------------------
 BYTE   W96
// 013   ----------------------------------------
 BYTE   W96
// 014   ----------------------------------------
 BYTE   W96
// 015   ----------------------------------------
 BYTE   W96
// 016   ----------------------------------------
 BYTE   W96
// 017   ----------------------------------------
 BYTE   W96
// 018   ----------------------------------------
 BYTE   W96
// 019   ----------------------------------------
 BYTE   W96
// 020   ----------------------------------------
Label_10_0139D39A:
 BYTE   N18  Gs3  v076
 BYTE   W18
 BYTE   N12
 BYTE   W12
 BYTE   N18
 BYTE   W24
 BYTE   N18
 BYTE   W18
 BYTE   N12
 BYTE   W12
 BYTE   N12
 BYTE   W12
 BYTE   PEND 
// 021   ----------------------------------------
Label_10_0139D3A9:
 BYTE   N18  Bn3  v088
 BYTE   W18
 BYTE   N12
 BYTE   W12
 BYTE   N18
 BYTE   W24
 BYTE   N18
 BYTE   W18
 BYTE   N12
 BYTE   W12
 BYTE   N12
 BYTE   W12
 BYTE   PEND 
// 022   ----------------------------------------
Label_10_0139D3B8:
 BYTE   N18  As3  v088
 BYTE   W18
 BYTE   N12
 BYTE   W12
 BYTE   N18
 BYTE   W24
 BYTE   N18
 BYTE   W18
 BYTE   N12
 BYTE   W12
 BYTE   N12
 BYTE   W12
 BYTE   PEND 
// 023   ----------------------------------------
Label_10_0139D3C7:
 BYTE   N18  Fs3  v088
 BYTE   W18
 BYTE   N12
 BYTE   W12
 BYTE   N18
 BYTE   W24
 BYTE   N18
 BYTE   W18
 BYTE   N12
 BYTE   W12
 BYTE   N12
 BYTE   W12
 BYTE   PEND 
 BYTE   PATT
  POIN2 Label_10_0139D39A
 BYTE   PATT
  POIN2 Label_10_0139D3A9
 BYTE   PATT
  POIN2 Label_10_0139D3B8
 BYTE   PATT
  POIN2 Label_10_0139D3C7
 BYTE   PATT
  POIN2 Label_10_0139D39A
 BYTE   PATT
  POIN2 Label_10_0139D39A
 BYTE   PATT
  POIN2 Label_10_0139D39A
 BYTE   PATT
  POIN2 Label_10_0139D39A
// 024   ----------------------------------------
 BYTE   N18  An3  v076
 BYTE   W18
 BYTE   N12
 BYTE   W12
 BYTE   N18
 BYTE   W24
 BYTE   N18
 BYTE   W18
 BYTE   N12
 BYTE   W12
 BYTE   N12
 BYTE   W12
// 025   ----------------------------------------
 BYTE   N18  As3
 BYTE   W18
 BYTE   N12
 BYTE   W12
 BYTE   N18
 BYTE   W24
 BYTE   N18
 BYTE   W18
 BYTE   N12
 BYTE   W12
 BYTE   N12
 BYTE   W12
// 026   ----------------------------------------
Label_10_0139D419:
 BYTE   N18  Cn4  v076
 BYTE   W18
 BYTE   N12
 BYTE   W12
 BYTE   N18
 BYTE   W24
 BYTE   N18
 BYTE   W18
 BYTE   N12
 BYTE   W12
 BYTE   N12
 BYTE   W12
 BYTE   PEND 
 BYTE   PATT
  POIN2 Label_10_0139D419
// 027   ----------------------------------------
 BYTE   W96
// 028   ----------------------------------------
 BYTE   W96
// 029   ----------------------------------------
 BYTE   W96
// 030   ----------------------------------------
 BYTE   W96
// 031   ----------------------------------------
 BYTE   W96
// 032   ----------------------------------------
 BYTE   W96
// 033   ----------------------------------------
 BYTE   W96
// 034   ----------------------------------------
 BYTE   W96
// 035   ----------------------------------------
 BYTE   W96
// 036   ----------------------------------------
 BYTE   W96
// 037   ----------------------------------------
 BYTE   W96
// 038   ----------------------------------------
 BYTE   W96
// 039   ----------------------------------------
 BYTE   W96
// 040   ----------------------------------------
 BYTE   W96
// 041   ----------------------------------------
 BYTE   W96
// 042   ----------------------------------------
 BYTE   W96
// 043   ----------------------------------------
 BYTE   GoTo
  POIN2 Label_10_0139D384
 BYTE   FINE

//**************** Track 12 (Midi-Chn.11) ****************//

FE14ADarkFallFireMycahel_012:
// 000   ----------------------------------------
 BYTE   VOL   33*FE14ADarkFallFireMycahel_mvl/mxv
 BYTE   KEYSH   FE14ADarkFallFireMycahel_key+0
Label_11_0139D448:
 BYTE   VOICE   41
 BYTE   W96
// 001   ----------------------------------------
 BYTE   W96
// 002   ----------------------------------------
 BYTE   W96
// 003   ----------------------------------------
 BYTE   W96
// 004   ----------------------------------------
 BYTE   W96
// 005   ----------------------------------------
 BYTE   W96
// 006   ----------------------------------------
 BYTE   W96
// 007   ----------------------------------------
 BYTE   W96
// 008   ----------------------------------------
 BYTE   W96
// 009   ----------------------------------------
 BYTE   W96
// 010   ----------------------------------------
 BYTE   W96
// 011   ----------------------------------------
 BYTE   W96
// 012   ----------------------------------------
 BYTE   W96
// 013   ----------------------------------------
 BYTE   W96
// 014   ----------------------------------------
 BYTE   W96
// 015   ----------------------------------------
 BYTE   W96
// 016   ----------------------------------------
 BYTE   W96
// 017   ----------------------------------------
 BYTE   W96
// 018   ----------------------------------------
 BYTE   W96
// 019   ----------------------------------------
 BYTE   W96
// 020   ----------------------------------------
 BYTE   W96
// 021   ----------------------------------------
 BYTE   W96
// 022   ----------------------------------------
 BYTE   W96
// 023   ----------------------------------------
 BYTE   W96
// 024   ----------------------------------------
 BYTE   W96
// 025   ----------------------------------------
 BYTE   W96
// 026   ----------------------------------------
 BYTE   W96
// 027   ----------------------------------------
 BYTE   W96
// 028   ----------------------------------------
 BYTE   TIE  Cs2  v096
 BYTE   N96  Cs3
 BYTE   N72  En3
 BYTE   W72
 BYTE   N12  Bn2
 BYTE   W12
 BYTE   En3
 BYTE   W12
// 029   ----------------------------------------
 BYTE   N96  Cn3
 BYTE   N72  Gs3
 BYTE   W72
 BYTE   N12  Ds3
 BYTE   W12
 BYTE   An3
 BYTE   W12
// 030   ----------------------------------------
 BYTE   EOT
 BYTE   Cs2
 BYTE   TIE  En2
 BYTE   N96  Bn2
 BYTE   TIE  Bn3
 BYTE   W96
// 031   ----------------------------------------
 BYTE   N96  An2
 BYTE   W96
// 032   ----------------------------------------
 BYTE   EOT
 BYTE   En2  v071
 BYTE   TIE  An2
 BYTE   N96  Fs3
 BYTE   N72  Cs4
 BYTE   W72
 BYTE   N12  Gs3
 BYTE   W12
 BYTE   Cs4
 BYTE   W12
// 033   ----------------------------------------
 BYTE   N96  Gs3
 BYTE   N72  Fs4
 BYTE   W72
 BYTE   N12  Cn4
 BYTE   W12
 BYTE   Fs4
 BYTE   W12
// 034   ----------------------------------------
 BYTE   EOT
 BYTE   An2
 BYTE   TIE  Cn3
 BYTE   N96  Cn4
 BYTE   TIE  Gs4
 BYTE   W96
// 035   ----------------------------------------
 BYTE   N96  Ds4
 BYTE   W96
// 036   ----------------------------------------
 BYTE   EOT
 BYTE   Cn3  v080
 BYTE   N12  Ds3
 BYTE   W12
 BYTE   Gs2
 BYTE   W12
 BYTE   An2
 BYTE   W12
 BYTE   Fs3
 BYTE   W12
 BYTE   Ds3
 BYTE   W12
 BYTE   En3
 BYTE   W12
 BYTE   Bn3
 BYTE   W12
 BYTE   Fs4
 BYTE   W12
// 037   ----------------------------------------
 BYTE   En4
 BYTE   W12
 BYTE   An3
 BYTE   W12
 BYTE   Gs3
 BYTE   W12
 BYTE   Ds4
 BYTE   W12
 BYTE   Fs3
 BYTE   W12
 BYTE   En3
 BYTE   W12
 BYTE   Cs4
 BYTE   W12
 BYTE   En3
 BYTE   W12
// 038   ----------------------------------------
 BYTE   Ds3
 BYTE   W12
 BYTE   Gs2
 BYTE   W12
 BYTE   An2
 BYTE   W12
 BYTE   Fs3
 BYTE   W12
 BYTE   Ds3
 BYTE   W12
 BYTE   En3
 BYTE   W12
 BYTE   Bn3
 BYTE   W12
 BYTE   Bn4
 BYTE   W12
// 039   ----------------------------------------
 BYTE   An4
 BYTE   W12
 BYTE   Ds4
 BYTE   W12
 BYTE   Cs4
 BYTE   W12
 BYTE   Gs4
 BYTE   W12
 BYTE   Bn3
 BYTE   W12
 BYTE   An3
 BYTE   W12
 BYTE   Fs4
 BYTE   W12
 BYTE   An3
 BYTE   W12
// 040   ----------------------------------------
 BYTE   Gs3
 BYTE   W12
 BYTE   An3
 BYTE   W12
 BYTE   Bn3
 BYTE   W12
 BYTE   Fs4
 BYTE   W12
 BYTE   Cs4
 BYTE   W12
 BYTE   Ds4
 BYTE   W12
 BYTE   Gs4
 BYTE   W12
 BYTE   Ds5
 BYTE   W12
// 041   ----------------------------------------
 BYTE   Cs5
 BYTE   W12
 BYTE   Ds4
 BYTE   W12
 BYTE   Cs4
 BYTE   W12
 BYTE   An4
 BYTE   W12
 BYTE   Bn3
 BYTE   W12
 BYTE   An3
 BYTE   W12
 BYTE   Fs4
 BYTE   W12
 BYTE   An3
 BYTE   W12
// 042   ----------------------------------------
 BYTE   Gs3
 BYTE   W12
 BYTE   An3
 BYTE   W12
 BYTE   Bn3
 BYTE   W12
 BYTE   Fs4
 BYTE   W12
 BYTE   Ds4
 BYTE   W12
 BYTE   En4
 BYTE   W12
 BYTE   Gs4
 BYTE   W12
 BYTE   En5
 BYTE   W12
// 043   ----------------------------------------
 BYTE   Ds5
 BYTE   W12
 BYTE   Fs4
 BYTE   W12
 BYTE   En4
 BYTE   W12
 BYTE   Cs5
 BYTE   W12
 BYTE   Ds4
 BYTE   W12
 BYTE   Cs4
 BYTE   W12
 BYTE   An4
 BYTE   W12
 BYTE   Bn3
 BYTE   W12
// 044   ----------------------------------------
 BYTE   W96
// 045   ----------------------------------------
 BYTE   W96
// 046   ----------------------------------------
 BYTE   W96
// 047   ----------------------------------------
 BYTE   W96
// 048   ----------------------------------------
 BYTE   W96
// 049   ----------------------------------------
 BYTE   W96
// 050   ----------------------------------------
 BYTE   W96
// 051   ----------------------------------------
 BYTE   W96
// 052   ----------------------------------------
 BYTE   GoTo
  POIN2 Label_11_0139D448
 BYTE   FINE

//**************** Track 13 (Midi-Chn.12) ****************//

FE14ADarkFallFireMycahel_013:
// 000   ----------------------------------------
 BYTE   VOL   33*FE14ADarkFallFireMycahel_mvl/mxv
 BYTE   KEYSH   FE14ADarkFallFireMycahel_key+0
Label_12_0139D544:
 BYTE   VOICE   52
 BYTE   W96
// 001   ----------------------------------------
 BYTE   W96
// 002   ----------------------------------------
 BYTE   W96
// 003   ----------------------------------------
 BYTE   W96
// 004   ----------------------------------------
 BYTE   W96
// 005   ----------------------------------------
 BYTE   W96
// 006   ----------------------------------------
 BYTE   W96
// 007   ----------------------------------------
 BYTE   W96
// 008   ----------------------------------------
 BYTE   W96
// 009   ----------------------------------------
 BYTE   W96
// 010   ----------------------------------------
 BYTE   W96
// 011   ----------------------------------------
 BYTE   W96
// 012   ----------------------------------------
 BYTE   W96
// 013   ----------------------------------------
 BYTE   W96
// 014   ----------------------------------------
 BYTE   W96
// 015   ----------------------------------------
 BYTE   W96
// 016   ----------------------------------------
 BYTE   W96
// 017   ----------------------------------------
 BYTE   W96
// 018   ----------------------------------------
 BYTE   W96
// 019   ----------------------------------------
 BYTE   W96
// 020   ----------------------------------------
 BYTE   W96
// 021   ----------------------------------------
 BYTE   W96
// 022   ----------------------------------------
 BYTE   W96
// 023   ----------------------------------------
 BYTE   W96
// 024   ----------------------------------------
 BYTE   W96
// 025   ----------------------------------------
 BYTE   W96
// 026   ----------------------------------------
 BYTE   W96
// 027   ----------------------------------------
 BYTE   W96
// 028   ----------------------------------------
 BYTE   W96
// 029   ----------------------------------------
 BYTE   W96
// 030   ----------------------------------------
 BYTE   W96
// 031   ----------------------------------------
 BYTE   W96
// 032   ----------------------------------------
 BYTE   W96
// 033   ----------------------------------------
 BYTE   W96
// 034   ----------------------------------------
 BYTE   W96
// 035   ----------------------------------------
 BYTE   W96
// 036   ----------------------------------------
 BYTE   W96
// 037   ----------------------------------------
 BYTE   W96
// 038   ----------------------------------------
 BYTE   W96
// 039   ----------------------------------------
 BYTE   W96
// 040   ----------------------------------------
 BYTE   W96
// 041   ----------------------------------------
 BYTE   W96
// 042   ----------------------------------------
 BYTE   W96
// 043   ----------------------------------------
 BYTE   W96
// 044   ----------------------------------------
Label_12_0139D572:
 BYTE   N48  Ds2  v127
 BYTE   W48
 BYTE   Cs2
 BYTE   W48
 BYTE   PEND 
// 045   ----------------------------------------
Label_12_0139D579:
 BYTE   N48  En2  v127
 BYTE   W48
 BYTE   Ds2
 BYTE   W48
 BYTE   PEND 
// 046   ----------------------------------------
Label_12_0139D580:
 BYTE   N48  Fs2  v127
 BYTE   W48
 BYTE   En2
 BYTE   W48
 BYTE   PEND 
 BYTE   PATT
  POIN2 Label_12_0139D579
 BYTE   PATT
  POIN2 Label_12_0139D572
 BYTE   PATT
  POIN2 Label_12_0139D579
 BYTE   PATT
  POIN2 Label_12_0139D580
 BYTE   PATT
  POIN2 Label_12_0139D579
// 047   ----------------------------------------
 BYTE   GoTo
  POIN2 Label_12_0139D544
 BYTE   FINE

//**************** Track 14 (Midi-Chn.13) ****************//

FE14ADarkFallFireMycahel_014:
// 000   ----------------------------------------
 BYTE   VOL   33*FE14ADarkFallFireMycahel_mvl/mxv
 BYTE   KEYSH   FE14ADarkFallFireMycahel_key+0
Label_13_0139D5AC:
 BYTE   VOICE   52
 BYTE   W96
// 001   ----------------------------------------
 BYTE   W96
// 002   ----------------------------------------
 BYTE   W96
// 003   ----------------------------------------
 BYTE   W96
// 004   ----------------------------------------
 BYTE   W96
// 005   ----------------------------------------
 BYTE   W96
// 006   ----------------------------------------
 BYTE   W96
// 007   ----------------------------------------
 BYTE   W96
// 008   ----------------------------------------
 BYTE   W96
// 009   ----------------------------------------
 BYTE   W96
// 010   ----------------------------------------
 BYTE   W96
// 011   ----------------------------------------
 BYTE   W96
// 012   ----------------------------------------
 BYTE   W96
// 013   ----------------------------------------
 BYTE   W96
// 014   ----------------------------------------
 BYTE   W96
// 015   ----------------------------------------
 BYTE   W96
// 016   ----------------------------------------
 BYTE   W96
// 017   ----------------------------------------
 BYTE   W96
// 018   ----------------------------------------
 BYTE   W96
// 019   ----------------------------------------
 BYTE   W96
// 020   ----------------------------------------
 BYTE   W96
// 021   ----------------------------------------
 BYTE   W96
// 022   ----------------------------------------
 BYTE   W96
// 023   ----------------------------------------
 BYTE   W96
// 024   ----------------------------------------
 BYTE   W96
// 025   ----------------------------------------
 BYTE   W96
// 026   ----------------------------------------
 BYTE   W96
// 027   ----------------------------------------
 BYTE   W96
// 028   ----------------------------------------
 BYTE   W96
// 029   ----------------------------------------
 BYTE   W96
// 030   ----------------------------------------
 BYTE   W96
// 031   ----------------------------------------
 BYTE   W96
// 032   ----------------------------------------
 BYTE   W96
// 033   ----------------------------------------
 BYTE   W96
// 034   ----------------------------------------
 BYTE   W96
// 035   ----------------------------------------
 BYTE   W96
// 036   ----------------------------------------
 BYTE   W96
// 037   ----------------------------------------
 BYTE   W96
// 038   ----------------------------------------
 BYTE   W96
// 039   ----------------------------------------
 BYTE   W96
// 040   ----------------------------------------
 BYTE   W96
// 041   ----------------------------------------
 BYTE   W96
// 042   ----------------------------------------
 BYTE   W96
// 043   ----------------------------------------
 BYTE   W96
// 044   ----------------------------------------
 BYTE   N96  Gs4  v100
 BYTE   W96
// 045   ----------------------------------------
 BYTE   An4
 BYTE   W96
// 046   ----------------------------------------
 BYTE   Gs4
 BYTE   W96
// 047   ----------------------------------------
 BYTE   Fs4
 BYTE   W96
// 048   ----------------------------------------
 BYTE   Gs4
 BYTE   W96
// 049   ----------------------------------------
 BYTE   An4
 BYTE   W96
// 050   ----------------------------------------
 BYTE   Gs4
 BYTE   W96
// 051   ----------------------------------------
 BYTE   Fs4
 BYTE   W96
// 052   ----------------------------------------
 BYTE   GoTo
  POIN2 Label_13_0139D5AC
 BYTE   FINE

//******************************************************//
	ALIGN 4

FE14ADarkFallFireMycahel:
	BYTE	14	// NumTrks
	BYTE	0	// NumBlks
	BYTE	FE14ADarkFallFireMycahel_pri	// Priority
	BYTE	FE14ADarkFallFireMycahel_rev	// Reverb.
    
	POIN2	FE14ADarkFallFireMycahel_grp
    
	POIN2	FE14ADarkFallFireMycahel_001
	POIN2	FE14ADarkFallFireMycahel_002
	POIN2	FE14ADarkFallFireMycahel_003
	POIN2	FE14ADarkFallFireMycahel_004
	POIN2	FE14ADarkFallFireMycahel_005
	POIN2	FE14ADarkFallFireMycahel_006
	POIN2	FE14ADarkFallFireMycahel_007
	POIN2	FE14ADarkFallFireMycahel_008
	POIN2	FE14ADarkFallFireMycahel_009
	POIN2	FE14ADarkFallFireMycahel_010
	POIN2	FE14ADarkFallFireMycahel_011
	POIN2	FE14ADarkFallFireMycahel_012
	POIN2	FE14ADarkFallFireMycahel_013
	POIN2	FE14ADarkFallFireMycahel_014

	
