//Event file generated from Sappy .s format.
	#include "MPlayDef.event"

	#define	FE14AlightStormMysteriousDancer_grp  voicegroup000
	#define	FE14AlightStormMysteriousDancer_pri  0
	#define	FE14AlightStormMysteriousDancer_rev  0
	#define	FE14AlightStormMysteriousDancer_mvl  127
	#define	FE14AlightStormMysteriousDancer_key  0
	#define	FE14AlightStormMysteriousDancer_tbs  1
	#define	FE14AlightStormMysteriousDancer_exg  0
	#define	FE14AlightStormMysteriousDancer_cmp  1

	// .rodata
	//	FE14AlightStormMysteriousDancer
	ALIGN 4

//**************** Track 1 (Midi-Chn.1) ****************//

FE14AlightStormMysteriousDancer_1:
	BYTE	KEYSH   FE14AlightStormMysteriousDancer_key+0
FE14AlightStormMysteriousDancer_1_B1:
// 000   ----------------------------------------
	BYTE	TEMPO   137*FE14AlightStormMysteriousDancer_tbs/2
	BYTE		VOICE   1
	BYTE		VOL     88*FE14AlightStormMysteriousDancer_mvl/mxv
	BYTE		PAN     c_v+0
	BYTE	W30
	BYTE		N02     Bn3   v080
	BYTE	W03
	BYTE		        Cn4 
	BYTE	W03
	BYTE		N11     En1 
	BYTE		N02     Dn4 
	BYTE	W03
	BYTE		        En4 
	BYTE	W03
	BYTE		        Fs4 
	BYTE	W03
	BYTE		        Gs4 
	BYTE	W03
// 001   ----------------------------------------
	BYTE		N05     An1 
	BYTE		N05     En2 
	BYTE		N05     An2 
	BYTE		N11     An4   v096
	BYTE	W12
	BYTE		N05     Cn2   v080
	BYTE		N05     Gn3 
	BYTE	W12
	BYTE		        An1 
	BYTE		N05     En2 
	BYTE		N05     An2 
	BYTE		N05     An3 
	BYTE	W12
	BYTE		        Gn2 
	BYTE		N05     En4 
	BYTE	W12
	BYTE		N08     An1 
	BYTE		N08     En2 
	BYTE		N08     An2 
	BYTE		N05     Dn4 
	BYTE	W06
	BYTE		        Bn3 
	BYTE	W12
	BYTE		N08     An1 
	BYTE		N08     En2 
	BYTE		N08     An2 
	BYTE		N05     Gn3 
	BYTE	W12
	BYTE		        An3 
	BYTE	W06
	BYTE		        En1 
	BYTE	W06
	BYTE		        En4 
	BYTE	W06
// 002   ----------------------------------------
	BYTE		        An1 
	BYTE		N05     En2 
	BYTE		N05     An2 
	BYTE	W12
	BYTE		        Cn2 
	BYTE		N05     En3 
	BYTE	W12
	BYTE		        An1 
	BYTE		N05     En2 
	BYTE		N05     An2 
	BYTE		N05     An3 
	BYTE	W12
	BYTE		        Gn2 
	BYTE		N05     En4 
	BYTE	W12
	BYTE		N08     An1 
	BYTE		N08     En2 
	BYTE		N08     An2 
	BYTE		N05     Dn4 
	BYTE	W06
	BYTE		        Bn3 
	BYTE	W12
	BYTE		N02     An1 
	BYTE		N02     En2 
	BYTE		N02     An2 
	BYTE		N05     Gn3 
	BYTE	W06
	BYTE		        Gn2 
	BYTE	W06
	BYTE		        En2 
	BYTE		N05     An3 
	BYTE	W06
	BYTE		        Gn1 
	BYTE	W06
	BYTE		        En3 
	BYTE	W06
// 003   ----------------------------------------
	BYTE		        Fn1 
	BYTE		N05     Cn2 
	BYTE		N05     Fn2 
	BYTE	W12
	BYTE		        Cn2 
	BYTE		N05     Gn3 
	BYTE	W12
	BYTE		        Fn1 
	BYTE		N05     Cn2 
	BYTE		N05     Fn2 
	BYTE		N05     An3 
	BYTE	W12
	BYTE		        Gn2 
	BYTE		N05     En4 
	BYTE	W12
	BYTE		N08     Fn1 
	BYTE		N08     Cn2 
	BYTE		N08     Fn2 
	BYTE		N05     Dn4 
	BYTE	W06
	BYTE		        Bn3 
	BYTE	W12
	BYTE		N02     Fn1 
	BYTE		N02     Cn2 
	BYTE		N02     Fn2 
	BYTE		N05     Gn3 
	BYTE	W06
	BYTE		N02     En2 
	BYTE	W06
	BYTE		        Cn2 
	BYTE		N05     An3 
	BYTE	W06
	BYTE		        Gn1 
	BYTE	W06
	BYTE		        En4 
	BYTE	W06
// 004   ----------------------------------------
	BYTE		        Dn1 
	BYTE		N05     An1 
	BYTE		N05     Dn2 
	BYTE		N05     An3 
	BYTE	W12
	BYTE		        Cn2 
	BYTE		N05     Gn3 
	BYTE	W12
	BYTE		        Dn1 
	BYTE		N05     An1 
	BYTE		N05     Dn2 
	BYTE		N05     An3 
	BYTE	W12
	BYTE		        An1 
	BYTE		N05     En4 
	BYTE	W12
	BYTE		N08     Dn1 
	BYTE		N08     An1 
	BYTE		N08     Dn2 
	BYTE		N05     En4 
	BYTE		N05     En5 
	BYTE	W12
	BYTE		N02     Dn4 
	BYTE		N02     Dn5 
	BYTE	W06
	BYTE		N08     Dn1 
	BYTE		N08     An1 
	BYTE		N08     Dn2 
	BYTE		N05     Cn4 
	BYTE		N05     Cn5 
	BYTE	W12
	BYTE		N08     Dn4 
	BYTE		N08     Dn5 
	BYTE	W06
	BYTE		N05     Dn2 
	BYTE	W12
// 005   ----------------------------------------
	BYTE		        An1 
	BYTE		N05     En2 
	BYTE		N05     An2 
	BYTE		N24     An3 
	BYTE		N68     An4 
	BYTE	W12
	BYTE		N05     Cn2 
	BYTE		N05     Gn3 
	BYTE	W12
	BYTE		        An1 
	BYTE		N05     En2 
	BYTE		N05     An2 
	BYTE		N05     An3 
	BYTE	W12
	BYTE		        Gn2 
	BYTE		N05     En4 
	BYTE	W12
	BYTE		N08     An1 
	BYTE		N08     En2 
	BYTE		N08     An2 
	BYTE		N05     Dn4 
	BYTE	W06
	BYTE		        Bn3 
	BYTE	W12
	BYTE		N08     An1 
	BYTE		N08     En2 
	BYTE		N08     An2 
	BYTE		N05     Gn3 
	BYTE	W06
	BYTE		N22     Bn3 
	BYTE		N22     Bn4 
	BYTE	W06
	BYTE		N05     An3 
	BYTE	W06
	BYTE		        Gn1 
	BYTE	W06
	BYTE		        En4 
	BYTE	W06
// 006   ----------------------------------------
	BYTE		        Cn2 
	BYTE		N05     Gn2 
	BYTE		N05     Cn3 
	BYTE		N44     Cn4 
	BYTE		N44     Cn5 
	BYTE	W12
	BYTE		N05     Gn2 
	BYTE		N05     En3 
	BYTE	W12
	BYTE		        Cn2 
	BYTE		N05     Gn2 
	BYTE		N05     Cn3 
	BYTE		N05     An3 
	BYTE	W12
	BYTE		        Bn2 
	BYTE		N05     En4 
	BYTE	W12
	BYTE		N08     Cn2 
	BYTE		N08     Gn2 
	BYTE		N08     Cn3 
	BYTE		N06     Bn3 
	BYTE		N05     Dn4 
	BYTE		N44     Bn4 
	BYTE	W06
	BYTE		N05     Bn3 
	BYTE	W12
	BYTE		N08     Cn2 
	BYTE		N08     Gn2 
	BYTE		N08     Cn3 
	BYTE		N05     Gn3 
	BYTE	W12
	BYTE		N02     An3 
	BYTE	W03
	BYTE		        Cn4 
	BYTE	W03
	BYTE		N05     Bn1 
	BYTE		N02     Dn4 
	BYTE	W03
	BYTE		        En4 
	BYTE	W03
	BYTE		        Fn4 
	BYTE	W03
	BYTE		        Gn4 
	BYTE	W03
// 007   ----------------------------------------
	BYTE		N05     Fs1 
	BYTE		N05     Fs2 
	BYTE		N12     An3 
	BYTE		N90     An4 
	BYTE	W12
	BYTE		N05     Cn2 
	BYTE		N05     An3 
	BYTE	W12
	BYTE		        Fs1 
	BYTE		N05     Fs2 
	BYTE		N05     Cn4 
	BYTE	W12
	BYTE		        An1 
	BYTE		N05     An3 
	BYTE	W12
	BYTE		N08     Fs1 
	BYTE		N08     Fs2 
	BYTE		N02     Dn4 
	BYTE	W06
	BYTE		        Cn4 
	BYTE	W12
	BYTE		N08     Fs1 
	BYTE		N08     Fs2 
	BYTE		N02     Bn3 
	BYTE	W12
	BYTE		        Cn4 
	BYTE	W06
	BYTE		N05     Fs1 
	BYTE	W06
	BYTE		N02     En4 
	BYTE	W06
// 008   ----------------------------------------
	BYTE		N05     Fn1 
	BYTE		N05     Fn2 
	BYTE		N24     An3 
	BYTE		N44     An4 
	BYTE	W12
	BYTE		N05     Cn2 
	BYTE		N05     En3 
	BYTE	W12
	BYTE		        Fn1 
	BYTE		N05     Fn2 
	BYTE		N05     An3 
	BYTE	W12
	BYTE		        An1 
	BYTE		N05     En3 
	BYTE	W12
	BYTE		N08     Fn1 
	BYTE		N08     Fn2 
	BYTE		N05     Dn4 
	BYTE	W12
	BYTE		N02     Cn4 
	BYTE	W06
	BYTE		N08     Fn1 
	BYTE		N08     Fn2 
	BYTE		N02     Bn3 
	BYTE	W12
	BYTE		        Cn4 
	BYTE	W06
	BYTE		N05     Fn1 
	BYTE	W06
	BYTE		N02     En4 
	BYTE	W06
// 009   ----------------------------------------
FE14AlightStormMysteriousDancer_1_009:
	BYTE		N05     An1   v080
	BYTE		N05     En2 
	BYTE		N05     An2 
	BYTE	W12
	BYTE		        Cn2 
	BYTE	W12
	BYTE		        An1 
	BYTE		N05     En2 
	BYTE		N05     An2 
	BYTE	W12
	BYTE		        Gn2 
	BYTE	W12
	BYTE		N08     Bn1 
	BYTE		N08     En2 
	BYTE		N08     Bn2 
	BYTE	W18
	BYTE		        Bn1 
	BYTE		N08     En2 
	BYTE		N08     Bn2 
	BYTE	W18
	BYTE		N05     Cn2 
	BYTE		N05     Gn2 
	BYTE		N05     Cn3 
	BYTE	W12
	BYTE	PEND
// 010   ----------------------------------------
FE14AlightStormMysteriousDancer_1_010:
	BYTE		N05     Cn2   v080
	BYTE	W12
	BYTE		        Gn2 
	BYTE	W12
	BYTE		        Cn2 
	BYTE		N05     Gn2 
	BYTE		N05     Cn3 
	BYTE	W12
	BYTE		        Bn2 
	BYTE	W12
	BYTE		N08     Gn1 
	BYTE		N08     Dn2 
	BYTE		N08     Gn2 
	BYTE	W18
	BYTE		        Gn1 
	BYTE		N08     Dn2 
	BYTE		N08     Gn2 
	BYTE	W18
	BYTE		N05     Bn1 
	BYTE	W12
	BYTE	PEND
// 011   ----------------------------------------
FE14AlightStormMysteriousDancer_1_011:
	BYTE		N05     Fn1   v080
	BYTE		N05     Fn2 
	BYTE	W12
	BYTE		        Cn2 
	BYTE	W12
	BYTE		        Fn1 
	BYTE		N05     Fn2 
	BYTE	W12
	BYTE		        An1 
	BYTE	W12
	BYTE		N08     Dn1 
	BYTE		N08     Dn2 
	BYTE	W18
	BYTE		        Dn1 
	BYTE		N08     Dn2 
	BYTE	W18
	BYTE		N05     An1 
	BYTE	W12
	BYTE	PEND
// 012   ----------------------------------------
	BYTE	PATT
	 POIN2	FE14AlightStormMysteriousDancer_1_009
// 013   ----------------------------------------
	BYTE	PATT
	 POIN2	FE14AlightStormMysteriousDancer_1_010
// 014   ----------------------------------------
	BYTE	PATT
	 POIN2	FE14AlightStormMysteriousDancer_1_011
// 015   ----------------------------------------
	BYTE		N02     En1   v064
	BYTE		N17     Fs2 
	BYTE	W02
	BYTE		N02     En2 
	BYTE	W03
	BYTE		        En1 
	BYTE	W03
	BYTE		        En2 
	BYTE	W03
	BYTE		        En1 
	BYTE	W03
	BYTE		        En2 
	BYTE	W03
	BYTE		        En1 
	BYTE	W01
	BYTE		N17     Gn2 
	BYTE	W02
	BYTE		N02     En2 
	BYTE	W03
	BYTE		        En1 
	BYTE	W03
	BYTE		        En2 
	BYTE	W03
	BYTE		        En1 
	BYTE	W03
	BYTE		        En2 
	BYTE	W03
	BYTE		        En1 
	BYTE	W01
	BYTE		N11     Dn3 
	BYTE	W02
	BYTE		N02     En2 
	BYTE	W03
	BYTE		        En1 
	BYTE	W03
	BYTE		        En2 
	BYTE	W03
	BYTE		        En1 
	BYTE	W01
	BYTE		N17     Fs3 
	BYTE	W02
	BYTE		N02     En2 
	BYTE	W03
	BYTE		        En1 
	BYTE	W03
	BYTE		        En2 
	BYTE	W03
	BYTE		        En1 
	BYTE	W03
	BYTE		        En2 
	BYTE	W03
	BYTE		        En1 
	BYTE	W01
	BYTE		N17     Gn3 
	BYTE	W02
	BYTE		N02     En2 
	BYTE	W03
	BYTE		        En1 
	BYTE	W03
	BYTE		        En2 
	BYTE	W03
	BYTE		        En1 
	BYTE	W03
	BYTE		        En2 
	BYTE	W03
	BYTE		        En1 
	BYTE	W01
	BYTE		N11     Dn4 
	BYTE	W02
	BYTE		N02     En2 
	BYTE	W03
	BYTE		        En1 
	BYTE	W03
	BYTE		        En2 
	BYTE	W04
// 016   ----------------------------------------
	BYTE		N17     En1 
	BYTE		N17     En2 
	BYTE		N17     Fs3 
	BYTE		N17     Fs4 
	BYTE	W18
	BYTE		        En1 
	BYTE		N17     En2 
	BYTE		N17     Gn3 
	BYTE		N17     Gn4 
	BYTE	W18
	BYTE		N05     En1 
	BYTE		N05     En2 
	BYTE		N05     Dn4 
	BYTE		N05     Dn5 
	BYTE	W24
	BYTE		N07     An2   v076
	BYTE		N07     An3 
	BYTE	W12
	BYTE		        Cn3 
	BYTE		N07     Cn4 
	BYTE	W12
	BYTE		        Dn3 
	BYTE		N07     Dn4 
	BYTE	W12
// 017   ----------------------------------------
FE14AlightStormMysteriousDancer_1_017:
	BYTE		N05     Fn1   v096
	BYTE		N05     Cn2 
	BYTE		N05     Fn2 
	BYTE		N11     En3 
	BYTE		N11     An3 
	BYTE		N11     En4 
	BYTE	W12
	BYTE		N05     Cn2 
	BYTE		N11     Dn3 
	BYTE		N11     Gn3 
	BYTE		N11     Dn4 
	BYTE	W12
	BYTE		N05     Fn2 
	BYTE		N11     En3 
	BYTE		N11     An3 
	BYTE		N11     En4 
	BYTE	W12
	BYTE		N05     Fn1 
	BYTE		N05     Cn2 
	BYTE		N05     Fn2 
	BYTE		N11     An3 
	BYTE		N11     Cn4 
	BYTE		N11     An4 
	BYTE	W12
	BYTE		N05     Cn2 
	BYTE		N32     En3 
	BYTE		N32     An3 
	BYTE		N32     En4 
	BYTE	W12
	BYTE		N05     Fn2 
	BYTE	W12
	BYTE		        Fn1 
	BYTE		N05     Cn2 
	BYTE		N05     Fn2 
	BYTE	W12
	BYTE		        An1 
	BYTE		N11     Cn3 
	BYTE		N11     Gn3 
	BYTE		N11     Cn4 
	BYTE	W12
	BYTE	PEND
// 018   ----------------------------------------
FE14AlightStormMysteriousDancer_1_018:
	BYTE		N05     Gn1   v096
	BYTE		N05     Dn2 
	BYTE		N05     Gn2 
	BYTE		N11     Dn3 
	BYTE		N11     An3 
	BYTE		N11     Dn4 
	BYTE	W12
	BYTE		N05     Dn2 
	BYTE		N11     Cn3 
	BYTE		N11     Gn3 
	BYTE		N11     Cn4 
	BYTE	W12
	BYTE		N05     Gn2 
	BYTE		N11     Dn3 
	BYTE		N11     An3 
	BYTE		N11     Dn4 
	BYTE	W12
	BYTE		N05     Gn1 
	BYTE		N05     Dn2 
	BYTE		N05     Gn2 
	BYTE		N11     Gn3 
	BYTE		N11     Cn4 
	BYTE		N11     Gn4 
	BYTE	W12
	BYTE		N05     Dn2 
	BYTE		N32     Dn3 
	BYTE		N32     Gn3 
	BYTE		N32     Dn4 
	BYTE	W12
	BYTE		N05     Gn2 
	BYTE	W12
	BYTE		        Gn1 
	BYTE		N05     Dn2 
	BYTE		N05     Gn2 
	BYTE	W12
	BYTE		        Bn1 
	BYTE		N11     Cn3 
	BYTE		N11     Gn3 
	BYTE		N11     Cn4 
	BYTE	W12
	BYTE	PEND
// 019   ----------------------------------------
FE14AlightStormMysteriousDancer_1_019:
	BYTE		N05     An1   v096
	BYTE		N05     En2 
	BYTE		N05     An2 
	BYTE		N17     Dn3 
	BYTE		N17     Gn3 
	BYTE		N17     Bn3 
	BYTE	W12
	BYTE		N05     En2 
	BYTE	W06
	BYTE		N17     Dn3 
	BYTE		N17     Gn3 
	BYTE		N17     Bn3 
	BYTE	W06
	BYTE		N05     An2 
	BYTE	W12
	BYTE		        An1 
	BYTE		N05     En2 
	BYTE		N05     An2 
	BYTE		N11     En3 
	BYTE		N11     An3 
	BYTE		N11     Cn4 
	BYTE	W12
	BYTE		N05     En2 
	BYTE		N32     En3 
	BYTE		N32     An3 
	BYTE		N32     Cn4 
	BYTE	W12
	BYTE		N05     An2 
	BYTE	W12
	BYTE		        An1 
	BYTE		N05     En2 
	BYTE		N05     An2 
	BYTE	W12
	BYTE		        En2 
	BYTE		N11     Gn3 
	BYTE		N11     Bn3 
	BYTE		N11     Dn4 
	BYTE	W12
	BYTE	PEND
// 020   ----------------------------------------
	BYTE		N05     Bn1 
	BYTE		N05     Gn2 
	BYTE		N05     Bn2 
	BYTE		N56     Gn3 
	BYTE		N56     Bn3 
	BYTE		N56     Dn4 
	BYTE	W12
	BYTE		N05     Dn2 
	BYTE	W12
	BYTE		        Gn2 
	BYTE	W12
	BYTE		        Bn1 
	BYTE		N05     Gn2 
	BYTE		N05     Bn2 
	BYTE	W12
	BYTE		        Dn2 
	BYTE	W12
	BYTE		        Gn2 
	BYTE		N11     An2 
	BYTE		N11     An3 
	BYTE	W12
	BYTE		N05     Bn1 
	BYTE		N05     Gn2 
	BYTE		N05     Bn2 
	BYTE		N11     Cn3 
	BYTE		N11     Cn4 
	BYTE	W12
	BYTE		N05     Dn2 
	BYTE		N11     Dn3 
	BYTE		N11     Dn4 
	BYTE	W12
// 021   ----------------------------------------
	BYTE		N05     Fn1 
	BYTE		N05     Cn2 
	BYTE		N05     Fn2 
	BYTE		N11     En3 
	BYTE		N11     An3 
	BYTE		N11     En4 
	BYTE	W12
	BYTE		N05     Cn2 
	BYTE		N11     Dn3 
	BYTE		N11     Gn3 
	BYTE		N11     Dn4 
	BYTE	W12
	BYTE		N05     Fn2 
	BYTE		N11     En3 
	BYTE		N11     An3 
	BYTE		N11     En4 
	BYTE	W12
	BYTE		N05     Fn1 
	BYTE		N05     Cn2 
	BYTE		N05     Fn2 
	BYTE		N32     An3 
	BYTE		N32     Cn4 
	BYTE		N32     An4 
	BYTE	W12
	BYTE		N05     Cn2 
	BYTE	W12
	BYTE		        Fn2 
	BYTE	W12
	BYTE		        Fn1 
	BYTE		N05     Cn2 
	BYTE		N05     Fn2 
	BYTE		N11     An3 
	BYTE		N11     Cn4 
	BYTE		N11     An4 
	BYTE	W12
	BYTE		N05     An1 
	BYTE		N11     Bn3 
	BYTE		N11     Gn4 
	BYTE		N11     Bn4 
	BYTE	W12
// 022   ----------------------------------------
	BYTE		N05     Gn1 
	BYTE		N05     Dn2 
	BYTE		N05     Gn2 
	BYTE		N22     Cn4 
	BYTE		N22     Gn4 
	BYTE		N22     Cn5 
	BYTE	W12
	BYTE		N05     Dn2 
	BYTE	W12
	BYTE		        Gn2 
	BYTE		N22     Bn3 
	BYTE		N22     Gn4 
	BYTE		N22     Bn4 
	BYTE	W12
	BYTE		N05     Gn1 
	BYTE		N05     Dn2 
	BYTE		N05     Gn2 
	BYTE	W12
	BYTE		        Dn2 
	BYTE		N17     Gn3 
	BYTE		N17     Dn4 
	BYTE		N17     Gn4 
	BYTE	W12
	BYTE		N05     Gn2 
	BYTE	W06
	BYTE		N17     En3 
	BYTE		N17     An3 
	BYTE		N17     En4 
	BYTE	W06
	BYTE		N05     Gn1 
	BYTE		N05     Dn2 
	BYTE		N05     Gn2 
	BYTE	W12
	BYTE		        Bn1 
	BYTE		N11     Gn3 
	BYTE		N11     Cn4 
	BYTE		N11     Gn4 
	BYTE	W12
// 023   ----------------------------------------
	BYTE		N05     An1 
	BYTE		N05     En2 
	BYTE		N05     An2 
	BYTE		N32     Dn4 
	BYTE		N32     Gn4 
	BYTE		N32     Dn5 
	BYTE	W12
	BYTE		N05     En2 
	BYTE	W12
	BYTE		        An2 
	BYTE	W12
	BYTE		        An1 
	BYTE		N05     En2 
	BYTE		N05     An2 
	BYTE		N11     Cn4 
	BYTE		N11     An4 
	BYTE		N11     Cn5 
	BYTE	W12
	BYTE		N05     En2 
	BYTE		N44     Cn4 
	BYTE		N44     An4 
	BYTE		N44     Cn5 
	BYTE	W12
	BYTE		N05     An2 
	BYTE	W12
	BYTE		        An1 
	BYTE		N05     En2 
	BYTE		N05     An2 
	BYTE	W12
	BYTE		        En2 
	BYTE	W12
// 024   ----------------------------------------
	BYTE		        Cn2 
	BYTE		N05     Gn2 
	BYTE		N05     Cn3 
	BYTE	W12
	BYTE		        Gn2 
	BYTE	W12
	BYTE		        Cn2 
	BYTE	W12
	BYTE		N05   
	BYTE		N05     Gn2 
	BYTE		N05     Cn3 
	BYTE	W12
	BYTE		N02     Cn1 
	BYTE	W06
	BYTE		        Gn1 
	BYTE	W06
	BYTE		        As1 
	BYTE		N11     An2 
	BYTE		N11     An3 
	BYTE	W06
	BYTE		N02     Cn2 
	BYTE	W06
	BYTE		        En2 
	BYTE		N11     Cn3 
	BYTE		N11     Cn4 
	BYTE	W06
	BYTE		N02     Gn2 
	BYTE	W06
	BYTE		        As2 
	BYTE		N11     Dn3 
	BYTE		N11     Dn4 
	BYTE	W06
	BYTE		N02     Cn3 
	BYTE	W06
// 025   ----------------------------------------
	BYTE	PATT
	 POIN2	FE14AlightStormMysteriousDancer_1_017
// 026   ----------------------------------------
	BYTE	PATT
	 POIN2	FE14AlightStormMysteriousDancer_1_018
// 027   ----------------------------------------
	BYTE	PATT
	 POIN2	FE14AlightStormMysteriousDancer_1_019
// 028   ----------------------------------------
	BYTE		N05     Bn1   v096
	BYTE		N05     Gn2 
	BYTE		N05     Bn2 
	BYTE		N44     Gn3 
	BYTE		N44     Bn3 
	BYTE		N44     Dn4 
	BYTE	W12
	BYTE		N05     Dn2 
	BYTE	W12
	BYTE		        Gn2 
	BYTE	W12
	BYTE		        Bn1 
	BYTE		N05     Gn2 
	BYTE		N05     Bn2 
	BYTE	W12
	BYTE		        Dn2 
	BYTE		N11     Cn3 
	BYTE		N11     Cn4 
	BYTE	W12
	BYTE		N05     Gn2 
	BYTE		N11     Dn3 
	BYTE		N11     Dn4 
	BYTE	W12
	BYTE		N05     Bn1 
	BYTE		N05     Gn2 
	BYTE		N05     Bn2 
	BYTE		N11     En3 
	BYTE		N11     En4 
	BYTE	W12
	BYTE		N05     Dn2 
	BYTE		N11     Fn3 
	BYTE		N11     Fn4 
	BYTE	W12
// 029   ----------------------------------------
	BYTE		N05     Fn1 
	BYTE		N05     Cn2 
	BYTE		N05     Fn2 
	BYTE		N22     Gn3 
	BYTE		N22     Gn4 
	BYTE	W12
	BYTE		N05     Cn2 
	BYTE	W12
	BYTE		        Fn2 
	BYTE		N22     Cn3 
	BYTE		N22     Cn4 
	BYTE	W12
	BYTE		N05     Fn1 
	BYTE		N05     Cn2 
	BYTE		N05     Fn2 
	BYTE	W12
	BYTE		        Cn2 
	BYTE		N17     Bn2 
	BYTE		N17     Bn3 
	BYTE	W12
	BYTE		N05     Fn2 
	BYTE	W06
	BYTE		N17     Cn3 
	BYTE		N17     Cn4 
	BYTE	W06
	BYTE		N05     Fn1 
	BYTE		N05     Cn2 
	BYTE		N05     Fn2 
	BYTE	W12
	BYTE		        An1 
	BYTE		N11     En3 
	BYTE		N11     En4 
	BYTE	W12
// 030   ----------------------------------------
	BYTE		N05     Gn1 
	BYTE		N05     Dn2 
	BYTE		N05     Gn2 
	BYTE		N44     Cn4 
	BYTE		N44     Gn4 
	BYTE		N44     Cn5 
	BYTE	W12
	BYTE		N05     Dn2 
	BYTE	W12
	BYTE		        Gn2 
	BYTE	W12
	BYTE		        Gn1 
	BYTE		N05     Dn2 
	BYTE		N05     Gn2 
	BYTE	W12
	BYTE		N12     Gn1   v116
	BYTE		N12     Gn2 
	BYTE		N12     Bn3 
	BYTE		N12     Gn4 
	BYTE		N12     Bn4 
	BYTE	W18
	BYTE		        Gn1 
	BYTE		N12     Gn2 
	BYTE		N12     Gn3 
	BYTE		N12     Dn4 
	BYTE		N12     Gn4 
	BYTE	W18
	BYTE		N07     Gn1 
	BYTE		N07     Gn2 
	BYTE		N07     Dn4 
	BYTE		N07     Gn4 
	BYTE		N07     Dn5 
	BYTE	W12
// 031   ----------------------------------------
FE14AlightStormMysteriousDancer_1_031:
	BYTE		N08     An0   v080
	BYTE		N08     An1 
	BYTE	W18
	BYTE		        Cn1 
	BYTE		N08     Cn2 
	BYTE	W18
	BYTE		        En1 
	BYTE		N08     En2 
	BYTE	W18
	BYTE		        Gn1 
	BYTE		N08     Gn2 
	BYTE	W18
	BYTE		        An0 
	BYTE		N08     An1 
	BYTE	W18
	BYTE		        Cn1 
	BYTE		N08     Cn2 
	BYTE	W06
	BYTE	PEND
// 032   ----------------------------------------
FE14AlightStormMysteriousDancer_1_032:
	BYTE	W12
	BYTE		N08     Dn1   v080
	BYTE		N08     Dn2 
	BYTE	W18
	BYTE		        Bn0 
	BYTE		N08     Bn1 
	BYTE	W18
	BYTE		N05     Gn0 
	BYTE		N05     Gn1 
	BYTE	W12
	BYTE		        An0 
	BYTE		N05     An1 
	BYTE	W12
	BYTE		        Cn1 
	BYTE		N05     Cn2 
	BYTE	W12
	BYTE		        Dn1 
	BYTE		N05     Dn2 
	BYTE	W12
	BYTE	PEND
// 033   ----------------------------------------
	BYTE	PATT
	 POIN2	FE14AlightStormMysteriousDancer_1_031
// 034   ----------------------------------------
	BYTE	PATT
	 POIN2	FE14AlightStormMysteriousDancer_1_032
// 035   ----------------------------------------
FE14AlightStormMysteriousDancer_1_035:
	BYTE		N08     Cn1   v080
	BYTE		N08     Cn2 
	BYTE	W18
	BYTE		        Ds1 
	BYTE		N08     Ds2 
	BYTE	W18
	BYTE		        Gn1 
	BYTE		N08     Gn2 
	BYTE	W18
	BYTE		        As1 
	BYTE		N08     As2 
	BYTE	W18
	BYTE		        Cn1 
	BYTE		N08     Cn2 
	BYTE	W18
	BYTE		        Ds1 
	BYTE		N08     Ds2 
	BYTE	W06
	BYTE	PEND
// 036   ----------------------------------------
FE14AlightStormMysteriousDancer_1_036:
	BYTE	W12
	BYTE		N08     Fn1   v080
	BYTE		N08     Fn2 
	BYTE	W18
	BYTE		        Cn1 
	BYTE		N08     Cn2 
	BYTE	W18
	BYTE		N05     Gn1 
	BYTE		N05     Gn2 
	BYTE	W12
	BYTE		        Cn1 
	BYTE		N05     Cn2 
	BYTE	W12
	BYTE		        As0 
	BYTE		N05     As1 
	BYTE	W12
	BYTE		        Cn1 
	BYTE		N05     Cn2 
	BYTE	W12
	BYTE	PEND
// 037   ----------------------------------------
	BYTE	PATT
	 POIN2	FE14AlightStormMysteriousDancer_1_035
// 038   ----------------------------------------
	BYTE	PATT
	 POIN2	FE14AlightStormMysteriousDancer_1_036
// 039   ----------------------------------------
FE14AlightStormMysteriousDancer_1_039:
	BYTE		N23     Gs0   v080
	BYTE		N08     Gs1 
	BYTE		N22     Gn3 
	BYTE		N22     Cn4 
	BYTE		N22     Gn4 
	BYTE	W18
	BYTE		N08     Gs1 
	BYTE	W06
	BYTE		N23     Gs0 
	BYTE		N11     As3 
	BYTE		N11     As4 
	BYTE	W12
	BYTE		N08     Gn1 
	BYTE		N11     Gn3 
	BYTE		N11     Gn4 
	BYTE	W12
	BYTE		N23     Gs0 
	BYTE		N22     Fn3 
	BYTE		N22     Fn4 
	BYTE	W06
	BYTE		N08     Gs1 
	BYTE	W18
	BYTE	PEND
// 040   ----------------------------------------
	BYTE		N23     Gs0 
	BYTE		N08     Gs1 
	BYTE		N22     Gn3 
	BYTE		N22     Cn4 
	BYTE		N22     Gn4 
	BYTE	W18
	BYTE		N08     Gn1 
	BYTE	W06
	BYTE		N23     Gs0 
	BYTE		N11     Ds3 
	BYTE		N11     Ds4 
	BYTE	W12
	BYTE		N08     Gs1 
	BYTE		N11     Fn3 
	BYTE		N11     Fn4 
	BYTE	W12
	BYTE		N23     Gs0 
	BYTE		N22     Cn3 
	BYTE		N22     Cn4 
	BYTE	W06
	BYTE		N08     Gs1 
	BYTE	W18
	BYTE		N05     Gs0 
	BYTE		N05     Gs1 
	BYTE		N11     Dn3 
	BYTE		N11     Dn4 
	BYTE	W12
	BYTE		N05     Gs0 
	BYTE		N05     Gs1 
	BYTE		N11     Ds3 
	BYTE		N11     Ds4 
	BYTE	W12
	BYTE		N05     As0 
	BYTE		N05     As1 
	BYTE		N11     Fn3 
	BYTE		N11     Cn4 
	BYTE		N11     Fn4 
	BYTE	W12
	BYTE		N05     As0 
	BYTE		N05     As1 
	BYTE		N11     Gn3 
	BYTE		N11     Gn4 
	BYTE	W12
// 041   ----------------------------------------
	BYTE		N23     Cn1 
	BYTE		N08     Cn2 
	BYTE		N22     Gn3 
	BYTE		N22     Cn4 
	BYTE		N22     Gn4 
	BYTE	W18
	BYTE		N08     Cn2 
	BYTE	W06
	BYTE		N11     Cn1 
	BYTE		N11     As3 
	BYTE		N11     As4 
	BYTE	W12
	BYTE		        Cn1 
	BYTE		N08     Cn2 
	BYTE		N11     Gn3 
	BYTE		N11     Gn4 
	BYTE	W12
	BYTE		        As0 
	BYTE		N22     Fn3 
	BYTE		N22     Fn4 
	BYTE	W06
	BYTE		N08     Cn2 
	BYTE	W06
	BYTE		N11     Ds1 
	BYTE	W12
// 042   ----------------------------------------
	BYTE		N23     Cn1 
	BYTE		N08     Cn2 
	BYTE		N22     Gn3 
	BYTE		N22     Cn4 
	BYTE		N22     Gn4 
	BYTE	W18
	BYTE		N08     Cn2 
	BYTE	W06
	BYTE		N23     Cn1 
	BYTE		N11     Ds3 
	BYTE		N11     Ds4 
	BYTE	W12
	BYTE		N08     Cn2 
	BYTE		N11     Fn3 
	BYTE		N11     Fn4 
	BYTE	W12
	BYTE		N23     Cn1 
	BYTE		N22     Cn3 
	BYTE		N22     Cn4 
	BYTE	W06
	BYTE		N08     Cn2 
	BYTE	W18
	BYTE		N05     Cn1 
	BYTE		N05     Cn2 
	BYTE		N11     Cn4 
	BYTE		N11     Cn5 
	BYTE	W12
	BYTE		N05     Cn1 
	BYTE		N05     Cn2 
	BYTE		N11     As3 
	BYTE		N11     As4 
	BYTE	W12
	BYTE		N05     Fn0 
	BYTE		N05     Fn1 
	BYTE		N11     Fn3 
	BYTE		N11     Cn4 
	BYTE		N11     Fn4 
	BYTE	W12
	BYTE		N05     Fn0 
	BYTE		N05     Fn1 
	BYTE		N11     As3 
	BYTE		N11     As4 
	BYTE	W12
// 043   ----------------------------------------
	BYTE	PATT
	 POIN2	FE14AlightStormMysteriousDancer_1_039
// 044   ----------------------------------------
	BYTE		N23     Gs0   v080
	BYTE		N08     Gs1 
	BYTE		N22     Gn3 
	BYTE		N22     Cn4 
	BYTE		N22     Gn4 
	BYTE	W18
	BYTE		N08     Gn1 
	BYTE	W06
	BYTE		N23     Gs0 
	BYTE		N11     Ds3 
	BYTE		N11     Ds4 
	BYTE	W12
	BYTE		N08     Gs1 
	BYTE		N11     Fn3 
	BYTE		N11     Fn4 
	BYTE	W12
	BYTE		N23     Gs0 
	BYTE		N22     Cn3 
	BYTE		N22     Cn4 
	BYTE	W06
	BYTE		N08     Gs1 
	BYTE	W18
// 045   ----------------------------------------
	BYTE		N05     Gs0 
	BYTE		N05     Gs1 
	BYTE		N11     Dn3 
	BYTE		N11     Dn4 
	BYTE	W12
	BYTE		N05     Gs0 
	BYTE		N05     Gs1 
	BYTE		N11     Ds3 
	BYTE		N11     Ds4 
	BYTE	W12
	BYTE		N05     As0 
	BYTE		N05     As1 
	BYTE		N11     Fn3 
	BYTE		N11     Cn4 
	BYTE		N11     Fn4 
	BYTE	W12
	BYTE		N05     As0 
	BYTE		N05     As1 
	BYTE		N11     Gn3 
	BYTE		N11     Gn4 
	BYTE	W12
// 046   ----------------------------------------
	BYTE		N08     Cn1 
	BYTE		N08     Cn2 
	BYTE		N44     Gn3 
	BYTE		N02     Gn4 
	BYTE	W06
	BYTE		        As4 
	BYTE	W12
	BYTE		N08     Ds1 
	BYTE		N08     Ds2 
	BYTE		N02     Fn4 
	BYTE	W06
	BYTE		N05     Gn4 
	BYTE	W12
	BYTE		N08     Gn1 
	BYTE		N08     Gn2 
	BYTE		N05     Cn4 
	BYTE	W12
	BYTE		        Dn4 
	BYTE	W06
	BYTE		N08     As1 
	BYTE		N08     As2 
	BYTE	W06
	BYTE		N05     Ds4 
	BYTE	W12
	BYTE		N08     Cn1 
	BYTE		N08     Cn2 
	BYTE		N05     Fn4 
	BYTE	W12
	BYTE		        Gn4 
	BYTE	W06
	BYTE		N08     Ds1 
	BYTE		N08     Ds2 
	BYTE	W06
// 047   ----------------------------------------
	BYTE		N02     Gn4 
	BYTE	W06
	BYTE		        As4 
	BYTE	W06
	BYTE		N08     Fn1 
	BYTE		N08     Fn2 
	BYTE	W06
	BYTE		N02     Fn4 
	BYTE	W06
	BYTE		N05     Gn4 
	BYTE	W06
	BYTE		N08     Cn1 
	BYTE		N08     Cn2 
	BYTE	W06
	BYTE		N05     Cn4 
	BYTE	W12
// 048   ----------------------------------------
	BYTE		        Gn1 
	BYTE		N05     Gn2 
	BYTE		N05     Dn4 
	BYTE	W12
	BYTE		        Cn1 
	BYTE		N05     Cn2 
	BYTE		N05     Ds4 
	BYTE	W12
	BYTE		        As0 
	BYTE		N05     As1 
	BYTE		N05     Fn4 
	BYTE	W12
	BYTE		        Cn1 
	BYTE		N05     Cn2 
	BYTE		N05     Gn4 
	BYTE	W12
// 049   ----------------------------------------
FE14AlightStormMysteriousDancer_1_049:
	BYTE		N05     Gs0   v080
	BYTE	W06
	BYTE		        Ds1 
	BYTE	W06
	BYTE		        Gs1 
	BYTE	W06
	BYTE		        Cn2 
	BYTE	W06
	BYTE		        Ds2 
	BYTE	W06
	BYTE		        Gn2 
	BYTE	W06
	BYTE		        Gs2 
	BYTE	W06
	BYTE		        Gn2 
	BYTE	W06
	BYTE		        Ds2 
	BYTE	W06
	BYTE		        Cn2 
	BYTE	W06
	BYTE		        Gs1 
	BYTE	W06
	BYTE		        Ds1 
	BYTE	W06
	BYTE	PEND
// 050   ----------------------------------------
	BYTE	PATT
	 POIN2	FE14AlightStormMysteriousDancer_1_049
// 051   ----------------------------------------
FE14AlightStormMysteriousDancer_1_051:
	BYTE		N05     Fn0   v080
	BYTE	W06
	BYTE		        Cn1 
	BYTE	W06
	BYTE		        Fn1 
	BYTE	W06
	BYTE		        Gs1 
	BYTE	W06
	BYTE		        Cn2 
	BYTE	W06
	BYTE		        Ds2 
	BYTE	W06
	BYTE		        Fn2 
	BYTE	W06
	BYTE		        Ds2 
	BYTE	W06
	BYTE		        Cn2 
	BYTE	W06
	BYTE		        Gs1 
	BYTE	W06
	BYTE		        Fn1 
	BYTE	W06
	BYTE		        Cn1 
	BYTE	W06
	BYTE	PEND
// 052   ----------------------------------------
	BYTE	PATT
	 POIN2	FE14AlightStormMysteriousDancer_1_051
// 053   ----------------------------------------
	BYTE		N05     Cn1   v080
	BYTE	W06
	BYTE		        Gn1 
	BYTE	W06
	BYTE		        Cn2 
	BYTE	W06
	BYTE		        En2 
	BYTE	W06
	BYTE		        Gn2 
	BYTE	W06
	BYTE		        Dn3 
	BYTE	W06
	BYTE		        Cn3 
	BYTE	W06
	BYTE		        Gn2 
	BYTE	W06
	BYTE		        En2 
	BYTE	W06
	BYTE		        Cn2 
	BYTE	W06
	BYTE		        Gn1 
	BYTE	W06
	BYTE		        Cn1 
	BYTE	W06
// 054   ----------------------------------------
	BYTE		N07     Dn1 
	BYTE	W08
	BYTE		        Dn2 
	BYTE	W08
	BYTE		        Dn1 
	BYTE	W08
	BYTE		        Cn1 
	BYTE	W08
	BYTE		        Cn2 
	BYTE	W08
	BYTE		        Cn1 
	BYTE	W08
	BYTE		        As0 
	BYTE	W08
	BYTE		        As1 
	BYTE	W08
	BYTE		        As0 
	BYTE	W08
// 055   ----------------------------------------
	BYTE		N05     Fn0 
	BYTE	W06
	BYTE		        Cn1 
	BYTE	W06
	BYTE		        Fn1 
	BYTE	W06
	BYTE		        An1 
	BYTE	W06
	BYTE		        Cn2 
	BYTE	W06
	BYTE		        Ds2 
	BYTE	W06
	BYTE		        Fn2 
	BYTE	W06
	BYTE		        Ds2 
	BYTE	W06
	BYTE		        Cn2 
	BYTE	W06
	BYTE		        An1 
	BYTE	W06
	BYTE		        Fn1 
	BYTE	W06
	BYTE		        Cn1 
	BYTE	W06
// 056   ----------------------------------------
	BYTE	PATT
	 POIN2	FE14AlightStormMysteriousDancer_1_051
// 057   ----------------------------------------
	BYTE	PATT
	 POIN2	FE14AlightStormMysteriousDancer_1_051
// 058   ----------------------------------------
	BYTE	PATT
	 POIN2	FE14AlightStormMysteriousDancer_1_051
// 059   ----------------------------------------
FE14AlightStormMysteriousDancer_1_059:
	BYTE		N05     Gn0   v080
	BYTE	W06
	BYTE		        Dn1 
	BYTE	W06
	BYTE		        Gn1 
	BYTE	W06
	BYTE		        As1 
	BYTE	W06
	BYTE		        Dn2 
	BYTE	W06
	BYTE		        Fn2 
	BYTE	W06
	BYTE		        Gn2 
	BYTE	W06
	BYTE		        Fn2 
	BYTE	W06
	BYTE		        Dn2 
	BYTE	W06
	BYTE		        As1 
	BYTE	W06
	BYTE		        Gn1 
	BYTE	W06
	BYTE		        Dn1 
	BYTE	W06
	BYTE	PEND
// 060   ----------------------------------------
	BYTE	PATT
	 POIN2	FE14AlightStormMysteriousDancer_1_059
// 061   ----------------------------------------
	BYTE	PATT
	 POIN2	FE14AlightStormMysteriousDancer_1_049
// 062   ----------------------------------------
	BYTE	PATT
	 POIN2	FE14AlightStormMysteriousDancer_1_049
// 063   ----------------------------------------
	BYTE		N05     As0   v080
	BYTE	W06
	BYTE		        Fn1 
	BYTE	W06
	BYTE		        As1 
	BYTE	W06
	BYTE		        Dn2 
	BYTE	W06
	BYTE		        Fn2 
	BYTE	W06
	BYTE		        Gs2 
	BYTE	W06
	BYTE		        As2 
	BYTE	W06
	BYTE		        Gs2 
	BYTE	W06
	BYTE		        Fn2 
	BYTE	W06
	BYTE		        Dn2 
	BYTE	W06
	BYTE		        As1 
	BYTE	W06
	BYTE		        Fn1 
	BYTE	W06
// 064   ----------------------------------------
	BYTE		        Bn0 
	BYTE	W06
	BYTE		        Fn1 
	BYTE	W06
	BYTE		        Bn1 
	BYTE	W06
	BYTE		        Dn2 
	BYTE	W06
	BYTE		        Fn2 
	BYTE	W06
	BYTE		        Gs2 
	BYTE	W06
	BYTE		        Bn2 
	BYTE	W06
	BYTE		        Gs2 
	BYTE	W06
	BYTE		        Fn2 
	BYTE	W06
	BYTE		        Dn2 
	BYTE	W06
	BYTE		        Bn1 
	BYTE	W06
	BYTE		        Fn1 
	BYTE	W06
// 065   ----------------------------------------
FE14AlightStormMysteriousDancer_1_065:
	BYTE		N11     Ds1   v112
	BYTE		N11     Ds2 
	BYTE	W12
	BYTE		        As1 
	BYTE	W12
	BYTE		        Ds2 
	BYTE	W12
	BYTE		        Fs2 
	BYTE	W12
	BYTE		        As2 
	BYTE	W12
	BYTE		        Ds3 
	BYTE	W12
	BYTE	PEND
// 066   ----------------------------------------
FE14AlightStormMysteriousDancer_1_066:
	BYTE		N11     Cs1   v112
	BYTE		N11     Cs2 
	BYTE	W12
	BYTE		        Gs1 
	BYTE	W12
	BYTE		        Cs2 
	BYTE	W12
	BYTE		        Fn2 
	BYTE	W12
	BYTE		        Gs2 
	BYTE	W12
	BYTE		        Cs3 
	BYTE	W12
	BYTE	PEND
// 067   ----------------------------------------
FE14AlightStormMysteriousDancer_1_067:
	BYTE		N11     Bn0   v112
	BYTE		N11     Bn1 
	BYTE	W12
	BYTE		        Fs1 
	BYTE	W12
	BYTE		        Bn1 
	BYTE	W12
	BYTE		        Ds2 
	BYTE	W12
	BYTE		        Fs2 
	BYTE	W12
	BYTE		        Bn2 
	BYTE	W12
	BYTE	PEND
// 068   ----------------------------------------
FE14AlightStormMysteriousDancer_1_068:
	BYTE		N11     As0   v112
	BYTE		N11     As1 
	BYTE	W12
	BYTE		        Fs1 
	BYTE	W12
	BYTE		        As1 
	BYTE	W12
	BYTE		        Ds2 
	BYTE	W12
	BYTE		        Fs2 
	BYTE	W12
	BYTE		        As2 
	BYTE	W12
	BYTE	PEND
// 069   ----------------------------------------
FE14AlightStormMysteriousDancer_1_069:
	BYTE		N11     Gs0   v112
	BYTE		N11     Gs1 
	BYTE	W12
	BYTE		        Ds1 
	BYTE	W12
	BYTE		        Gs1 
	BYTE	W12
	BYTE		        Bn1 
	BYTE	W12
	BYTE		        Ds2 
	BYTE	W12
	BYTE		        Gs2 
	BYTE	W12
	BYTE	PEND
// 070   ----------------------------------------
FE14AlightStormMysteriousDancer_1_070:
	BYTE		N11     Fs0   v112
	BYTE		N11     Fs1 
	BYTE	W12
	BYTE		        Cs1 
	BYTE	W12
	BYTE		        Fs1 
	BYTE	W12
	BYTE		        As1 
	BYTE	W12
	BYTE		        Cs2 
	BYTE	W12
	BYTE		        Fs2 
	BYTE	W12
	BYTE	PEND
// 071   ----------------------------------------
	BYTE	PATT
	 POIN2	FE14AlightStormMysteriousDancer_1_067
// 072   ----------------------------------------
	BYTE		N11     As0   v112
	BYTE		N11     As1 
	BYTE	W12
	BYTE		        Fn1 
	BYTE	W12
	BYTE		        As1 
	BYTE	W12
	BYTE		        Dn2 
	BYTE	W12
	BYTE		        Fn2 
	BYTE	W12
	BYTE		        As2 
	BYTE	W12
// 073   ----------------------------------------
	BYTE	PATT
	 POIN2	FE14AlightStormMysteriousDancer_1_065
// 074   ----------------------------------------
	BYTE	PATT
	 POIN2	FE14AlightStormMysteriousDancer_1_066
// 075   ----------------------------------------
	BYTE	PATT
	 POIN2	FE14AlightStormMysteriousDancer_1_067
// 076   ----------------------------------------
	BYTE	PATT
	 POIN2	FE14AlightStormMysteriousDancer_1_068
// 077   ----------------------------------------
	BYTE	PATT
	 POIN2	FE14AlightStormMysteriousDancer_1_069
// 078   ----------------------------------------
	BYTE	PATT
	 POIN2	FE14AlightStormMysteriousDancer_1_070
// 079   ----------------------------------------
	BYTE		N11     Fn1   v112
	BYTE		N11     Fn2 
	BYTE	W12
	BYTE		        Gs1 
	BYTE	W12
	BYTE		        Bn1 
	BYTE	W12
	BYTE		        Dn2 
	BYTE	W12
	BYTE		        Fn2 
	BYTE	W12
	BYTE		        Gs2 
	BYTE	W12
// 080   ----------------------------------------
	BYTE		N68     As0 
	BYTE		N68     As1 
	BYTE	W72
// 081   ----------------------------------------
	BYTE		        Fs1 
	BYTE		N24     Fs2 
	BYTE	W24
	BYTE		N22     Cs2 
	BYTE		N22     Fs2 
	BYTE		N22     An2 
	BYTE	W24
	BYTE		N20     Fs2 
	BYTE		N22     An2 
	BYTE		N22     Cs3 
	BYTE	W24
// 082   ----------------------------------------
	BYTE		N68     En1 
	BYTE		N24     En2 
	BYTE	W24
	BYTE		N22     Bn1 
	BYTE		N22     En2 
	BYTE		N22     Gs2 
	BYTE	W24
	BYTE		N20     En2 
	BYTE		N22     Gs2 
	BYTE		N22     Bn2 
	BYTE	W24
// 083   ----------------------------------------
FE14AlightStormMysteriousDancer_1_083:
	BYTE		N68     Dn1   v112
	BYTE		N24     Dn2 
	BYTE	W24
	BYTE		N22     An1 
	BYTE		N22     Dn2 
	BYTE		N22     Fs2 
	BYTE	W24
	BYTE		N20     Dn2 
	BYTE		N22     Fs2 
	BYTE		N22     An2 
	BYTE	W24
	BYTE	PEND
// 084   ----------------------------------------
FE14AlightStormMysteriousDancer_1_084:
	BYTE		N68     Cs1   v112
	BYTE		N24     Cs2 
	BYTE	W24
	BYTE		N22     Gs1 
	BYTE		N22     Cs2 
	BYTE		N22     En2 
	BYTE	W24
	BYTE		N20     Cs2 
	BYTE		N22     En2 
	BYTE		N22     Gs2 
	BYTE	W24
	BYTE	PEND
// 085   ----------------------------------------
FE14AlightStormMysteriousDancer_1_085:
	BYTE		N68     Bn0   v112
	BYTE		N24     Bn1 
	BYTE	W24
	BYTE		N22     Fs1 
	BYTE		N22     Bn1 
	BYTE		N22     Dn2 
	BYTE	W24
	BYTE		N20     Bn1 
	BYTE		N22     Dn2 
	BYTE		N22     Fs2 
	BYTE	W24
	BYTE	PEND
// 086   ----------------------------------------
FE14AlightStormMysteriousDancer_1_086:
	BYTE		N68     An0   v112
	BYTE		N24     An1 
	BYTE	W24
	BYTE		N22     En1 
	BYTE		N22     An1 
	BYTE		N22     Cs2 
	BYTE	W24
	BYTE		N20     An1 
	BYTE		N22     Cs2 
	BYTE		N22     En2 
	BYTE	W24
	BYTE	PEND
// 087   ----------------------------------------
	BYTE	PATT
	 POIN2	FE14AlightStormMysteriousDancer_1_083
// 088   ----------------------------------------
	BYTE		N68     Cs1   v112
	BYTE		N24     Cs2 
	BYTE	W24
	BYTE		N22     Gs1 
	BYTE		N22     Cs2 
	BYTE		N22     Fn2 
	BYTE	W24
	BYTE		        Bn1 
	BYTE		N20     Cs2 
	BYTE		N22     Fn2 
	BYTE		N22     Gs2 
	BYTE	W24
// 089   ----------------------------------------
	BYTE		N44     Fs1 
	BYTE		N24     Fs2 
	BYTE	W24
	BYTE		N22     Cs2 
	BYTE		N21     Fs2 
	BYTE		N22     An2 
	BYTE	W24
	BYTE		        Gs1 
	BYTE		N22     Gs2 
	BYTE	W24
// 090   ----------------------------------------
	BYTE		N68     An1 
	BYTE		N24     An2 
	BYTE	W24
	BYTE		N22     En2 
	BYTE		N22     Gn2 
	BYTE		N22     An2 
	BYTE		N22     Cs3 
	BYTE	W24
	BYTE		N20     An2 
	BYTE		N22     Cs3 
	BYTE		N22     En3 
	BYTE	W24
// 091   ----------------------------------------
	BYTE	PATT
	 POIN2	FE14AlightStormMysteriousDancer_1_083
// 092   ----------------------------------------
	BYTE	PATT
	 POIN2	FE14AlightStormMysteriousDancer_1_084
// 093   ----------------------------------------
	BYTE	PATT
	 POIN2	FE14AlightStormMysteriousDancer_1_085
// 094   ----------------------------------------
	BYTE	PATT
	 POIN2	FE14AlightStormMysteriousDancer_1_086
// 095   ----------------------------------------
	BYTE		N48     Fn1   v112
	BYTE		N11     Cn2 
	BYTE		N48     Fn2 
	BYTE		N11     Cn3 
	BYTE	W12
	BYTE		        Bn1 
	BYTE		N11     Bn2 
	BYTE	W12
	BYTE		        An1 
	BYTE		N11     An2 
	BYTE	W12
	BYTE		        Gn1 
	BYTE		N11     Gn2 
	BYTE	W12
	BYTE		        Fn1 
	BYTE		N11     Fn2 
	BYTE	W12
	BYTE		        En1 
	BYTE		N11     En2 
	BYTE	W12
// 096   ----------------------------------------
	BYTE		        Dn1 
	BYTE		N11     Dn2 
	BYTE	W12
	BYTE		        Cn1 
	BYTE		N11     Cn2 
	BYTE	W12
	BYTE		        Bn0 
	BYTE		N11     Bn1 
	BYTE	W12
	BYTE		        An0 
	BYTE		N11     An1 
	BYTE	W12
	BYTE		        Gn0 
	BYTE		N11     Gn1 
	BYTE	W12
	BYTE		        Fn0 
	BYTE		N04     Fn1 
	BYTE	W12
// 097   ----------------------------------------
	BYTE		N72     Dn1 
	BYTE		N11     Cn2 
	BYTE		N72     Dn2 
	BYTE		N11     Cn3 
	BYTE	W12
	BYTE		        Bn1 
	BYTE		N11     Bn2 
	BYTE	W12
	BYTE		        An1 
	BYTE		N11     An2 
	BYTE	W12
	BYTE		        Gn1 
	BYTE		N11     Gn2 
	BYTE	W12
	BYTE		        Fn1 
	BYTE		N11     Fn2 
	BYTE	W12
	BYTE		        En1 
	BYTE		N11     En2 
	BYTE	W12
// 098   ----------------------------------------
	BYTE		        Dn1 
	BYTE		N11     Dn2 
	BYTE	W12
	BYTE		        Cn1 
	BYTE		N11     Cn2 
	BYTE	W12
	BYTE		        Bn0 
	BYTE		N11     Bn1 
	BYTE	W12
	BYTE		        An0 
	BYTE		N11     An1 
	BYTE	W12
	BYTE		        Gn0 
	BYTE		N11     Gn1 
	BYTE	W12
	BYTE		        Fn0 
	BYTE		N11     Fn1 
	BYTE	W12
// 099   ----------------------------------------
	BYTE		N24     An1   v096
	BYTE		N68     Bn1 
	BYTE		N68     En2 
	BYTE		N17     An2 
	BYTE		N05     Gn4   v116
	BYTE	W06
	BYTE		        Fs4 
	BYTE	W06
	BYTE		        Bn3   v096
	BYTE	W06
	BYTE		N17     An2 
	BYTE		N05     Fs4 
	BYTE	W06
	BYTE		N22     An1 
	BYTE		N05     En4 
	BYTE	W06
	BYTE		        An3 
	BYTE	W06
	BYTE		N17     An2 
	BYTE		N05     Gn4   v116
	BYTE	W06
	BYTE		        Fs4 
	BYTE	W06
	BYTE		N20     An1   v096
	BYTE		N05     Bn3 
	BYTE	W06
	BYTE		N17     An2 
	BYTE		N05     Fs4 
	BYTE	W06
	BYTE		        En4 
	BYTE	W06
	BYTE		        An3 
	BYTE	W06
// 100   ----------------------------------------
	BYTE		N17     An1 
	BYTE		N68     Cn2 
	BYTE		N68     Gn2 
	BYTE		N05     An4   v116
	BYTE	W06
	BYTE		        Gn4 
	BYTE	W06
	BYTE		        Cn4   v096
	BYTE	W06
	BYTE		N17     An2 
	BYTE		N05     Gn4 
	BYTE	W06
	BYTE		N22     An1 
	BYTE		N05     Fs4 
	BYTE	W06
	BYTE		        Bn3 
	BYTE	W06
	BYTE		N17     An2 
	BYTE		N05     An4   v116
	BYTE	W06
	BYTE		        Gn4 
	BYTE	W06
	BYTE		N22     An1   v096
	BYTE		N05     Cn4 
	BYTE	W06
	BYTE		N17     An2 
	BYTE		N05     Gn4 
	BYTE	W06
	BYTE		        Fs4 
	BYTE	W06
	BYTE		        Bn3 
	BYTE	W06
// 101   ----------------------------------------
	BYTE		N56     An1 
	BYTE		N56     Bn1 
	BYTE		N56     Dn2 
	BYTE		N56     Gn2 
	BYTE		N48     Dn4 
	BYTE		N36     Gn4 
	BYTE		N24     Bn4 
	BYTE		N11     Dn5 
	BYTE	W12
	BYTE		        Cn4 
	BYTE		N11     Cn5 
	BYTE	W12
	BYTE		        Bn3 
	BYTE		N11     Bn4 
	BYTE	W12
	BYTE		        Gn3 
	BYTE		N11     Gn4 
	BYTE	W12
	BYTE		        Dn3 
	BYTE		N11     Dn4 
	BYTE	W12
	BYTE		N02     An1 
	BYTE		N11     Cn3 
	BYTE		N11     Cn4 
	BYTE	W06
	BYTE		N02     An1 
	BYTE	W06
// 102   ----------------------------------------
	BYTE		N17     En1 
	BYTE		N17     En2 
	BYTE		N11     Gn3 
	BYTE		N11     Bn3 
	BYTE	W12
	BYTE		        An3 
	BYTE		N11     Cn4 
	BYTE	W06
	BYTE		N17     En1 
	BYTE		N17     En2 
	BYTE	W06
	BYTE		N11     Gn3 
	BYTE		N11     Bn3 
	BYTE	W12
	BYTE		        En1 
	BYTE		N11     En2 
	BYTE		N11     Dn3 
	BYTE		N11     Dn4 
	BYTE	W12
	BYTE		N02     En1 
	BYTE		N05     Gn3 
	BYTE		N05     Gn4 
	BYTE	W03
	BYTE		N02     En2 
	BYTE	W03
	BYTE		        En1 
	BYTE		N02     Bn3 
	BYTE	W03
	BYTE		        En2 
	BYTE		N02     Cn4 
	BYTE	W03
	BYTE		        En1 
	BYTE		N02     Dn4 
	BYTE	W03
	BYTE		        En2 
	BYTE		N02     En4 
	BYTE	W03
	BYTE		        En1 
	BYTE		N02     Fs4 
	BYTE	W03
	BYTE		        En2 
	BYTE		N02     Gs4 
	BYTE	W03
// 103   ----------------------------------------
	BYTE		N05     An1   v080
	BYTE		N05     En2 
	BYTE		N05     An2 
	BYTE	W12
	BYTE	GoTo
	 POIN2	FE14AlightStormMysteriousDancer_1_B1
FE14AlightStormMysteriousDancer_1_B2:
	BYTE	FINE

//**************** Track 2 (Midi-Chn.2) ****************//

FE14AlightStormMysteriousDancer_2:
	BYTE	KEYSH   FE14AlightStormMysteriousDancer_key+0
FE14AlightStormMysteriousDancer_2_B1:
// 000   ----------------------------------------
	BYTE		VOICE   57
	BYTE		VOL     88*FE14AlightStormMysteriousDancer_mvl/mxv
	BYTE		PAN     c_v+0
	BYTE	W48
// 001   ----------------------------------------
	BYTE	W96
// 002   ----------------------------------------
	BYTE	W96
// 003   ----------------------------------------
	BYTE	W96
// 004   ----------------------------------------
	BYTE	W96
// 005   ----------------------------------------
	BYTE	W96
// 006   ----------------------------------------
	BYTE	W96
// 007   ----------------------------------------
	BYTE	W96
// 008   ----------------------------------------
	BYTE	W96
// 009   ----------------------------------------
FE14AlightStormMysteriousDancer_2_009:
	BYTE		N22     An3   v080
	BYTE		N22     Dn4 
	BYTE	W24
	BYTE		N11     Gn3 
	BYTE		N11     Cn4 
	BYTE	W12
	BYTE		        An3 
	BYTE		N11     Dn4 
	BYTE	W12
	BYTE		N32     En3 
	BYTE		N32     An3 
	BYTE	W36
	BYTE		N11     Gn3 
	BYTE	W12
	BYTE	PEND
// 010   ----------------------------------------
FE14AlightStormMysteriousDancer_2_010:
	BYTE		N11     En3   v080
	BYTE		N11     An3 
	BYTE	W12
	BYTE		N11   
	BYTE		N11     Cn4 
	BYTE	W12
	BYTE		N32     En3 
	BYTE		N32     An3 
	BYTE	W36
	BYTE		N11     En3 
	BYTE		N11     Gn3 
	BYTE	W12
	BYTE		        En3 
	BYTE		N11     An3 
	BYTE	W12
	BYTE		N11   
	BYTE		N11     Cn4 
	BYTE	W12
	BYTE	PEND
// 011   ----------------------------------------
	BYTE		N22     Dn4 
	BYTE		N22     Gn4 
	BYTE	W24
	BYTE		        An3 
	BYTE		N22     Dn4 
	BYTE	W24
	BYTE		        Bn3 
	BYTE		N22     En4 
	BYTE	W24
	BYTE		        Gn3 
	BYTE		N22     Bn3 
	BYTE	W24
// 012   ----------------------------------------
	BYTE	PATT
	 POIN2	FE14AlightStormMysteriousDancer_2_009
// 013   ----------------------------------------
	BYTE	PATT
	 POIN2	FE14AlightStormMysteriousDancer_2_010
// 014   ----------------------------------------
	BYTE		N32     Cn4   v080
	BYTE		N32     Gn4 
	BYTE	W36
	BYTE		N05   
	BYTE	W06
	BYTE		        Gs4 
	BYTE	W06
	BYTE		N44     Dn4 
	BYTE		N44     An4 
	BYTE	W48
// 015   ----------------------------------------
	BYTE	W96
// 016   ----------------------------------------
	BYTE	W60
	BYTE		N07     An2   v076
	BYTE		N07     An3 
	BYTE	W12
	BYTE		        Cn3 
	BYTE		N07     Cn4 
	BYTE	W12
	BYTE		        Dn3 
	BYTE		N07     Dn4 
	BYTE	W12
// 017   ----------------------------------------
FE14AlightStormMysteriousDancer_2_017:
	BYTE		N11     En3   v096
	BYTE		N11     An3 
	BYTE		N11     En4 
	BYTE	W12
	BYTE		        Dn3 
	BYTE		N11     Gn3 
	BYTE		N11     Dn4 
	BYTE	W12
	BYTE		        En3 
	BYTE		N11     An3 
	BYTE		N11     En4 
	BYTE	W12
	BYTE		        An3 
	BYTE		N11     Cn4 
	BYTE		N11     An4 
	BYTE	W12
	BYTE		N32     En3 
	BYTE		N32     An3 
	BYTE		N32     En4 
	BYTE	W36
	BYTE		N11     Cn3 
	BYTE		N11     Gn3 
	BYTE		N11     Cn4 
	BYTE	W12
	BYTE	PEND
// 018   ----------------------------------------
FE14AlightStormMysteriousDancer_2_018:
	BYTE		N11     Dn3   v096
	BYTE		N11     An3 
	BYTE		N11     Dn4 
	BYTE	W12
	BYTE		        Cn3 
	BYTE		N11     Gn3 
	BYTE		N11     Cn4 
	BYTE	W12
	BYTE		        Dn3 
	BYTE		N11     An3 
	BYTE		N11     Dn4 
	BYTE	W12
	BYTE		        Gn3 
	BYTE		N11     Cn4 
	BYTE		N11     Gn4 
	BYTE	W12
	BYTE		N32     Dn3 
	BYTE		N32     Gn3 
	BYTE		N32     Dn4 
	BYTE	W36
	BYTE		N11     Cn3 
	BYTE		N11     Gn3 
	BYTE		N11     Cn4 
	BYTE	W12
	BYTE	PEND
// 019   ----------------------------------------
FE14AlightStormMysteriousDancer_2_019:
	BYTE		N17     Dn3   v096
	BYTE		N17     Gn3 
	BYTE		N17     Bn3 
	BYTE	W18
	BYTE		        Dn3 
	BYTE		N17     Gn3 
	BYTE		N17     Bn3 
	BYTE	W18
	BYTE		N11     En3 
	BYTE		N11     An3 
	BYTE		N11     Cn4 
	BYTE	W12
	BYTE		N32     En3 
	BYTE		N32     An3 
	BYTE		N32     Cn4 
	BYTE	W36
	BYTE		N11     Gn3 
	BYTE		N11     Bn3 
	BYTE		N11     Dn4 
	BYTE	W12
	BYTE	PEND
// 020   ----------------------------------------
	BYTE		N56     Gn3 
	BYTE		N56     Bn3 
	BYTE		N56     Dn4 
	BYTE	W60
	BYTE		N11     An2 
	BYTE		N11     An3 
	BYTE	W12
	BYTE		        Cn3 
	BYTE		N11     Cn4 
	BYTE	W12
	BYTE		        Dn3 
	BYTE		N11     Dn4 
	BYTE	W12
// 021   ----------------------------------------
	BYTE		        En3 
	BYTE		N11     An3 
	BYTE		N11     En4 
	BYTE	W12
	BYTE		        Dn3 
	BYTE		N11     Gn3 
	BYTE		N11     Dn4 
	BYTE	W12
	BYTE		        En3 
	BYTE		N11     An3 
	BYTE		N11     En4 
	BYTE	W12
	BYTE		N32     An3 
	BYTE		N32     Cn4 
	BYTE		N32     An4 
	BYTE	W36
	BYTE		N11     An3 
	BYTE		N11     Cn4 
	BYTE		N11     An4 
	BYTE	W12
	BYTE		        Bn3 
	BYTE		N11     Gn4 
	BYTE		N11     Bn4 
	BYTE	W12
// 022   ----------------------------------------
	BYTE		N22     Cn4 
	BYTE		N22     Gn4 
	BYTE		N22     Cn5 
	BYTE	W24
	BYTE		        Bn3 
	BYTE		N22     Gn4 
	BYTE		N22     Bn4 
	BYTE	W24
	BYTE		N17     Gn3 
	BYTE		N17     Dn4 
	BYTE		N17     Gn4 
	BYTE	W18
	BYTE		        En3 
	BYTE		N17     An3 
	BYTE		N17     En4 
	BYTE	W18
	BYTE		N11     Gn3 
	BYTE		N11     Cn4 
	BYTE		N11     Gn4 
	BYTE	W12
// 023   ----------------------------------------
	BYTE		N32     Dn4 
	BYTE		N32     Gn4 
	BYTE		N32     Dn5 
	BYTE	W36
	BYTE		N11     Cn4 
	BYTE		N11     An4 
	BYTE		N11     Cn5 
	BYTE	W12
	BYTE		N44     Cn4 
	BYTE		N44     An4 
	BYTE		N44     Cn5 
	BYTE	W48
// 024   ----------------------------------------
	BYTE	W60
	BYTE		N11     An2 
	BYTE		N11     An3 
	BYTE	W12
	BYTE		        Cn3 
	BYTE		N11     Cn4 
	BYTE	W12
	BYTE		        Dn3 
	BYTE		N11     Dn4 
	BYTE	W12
// 025   ----------------------------------------
	BYTE	PATT
	 POIN2	FE14AlightStormMysteriousDancer_2_017
// 026   ----------------------------------------
	BYTE	PATT
	 POIN2	FE14AlightStormMysteriousDancer_2_018
// 027   ----------------------------------------
	BYTE	PATT
	 POIN2	FE14AlightStormMysteriousDancer_2_019
// 028   ----------------------------------------
	BYTE		N44     Gn3   v096
	BYTE		N44     Bn3 
	BYTE		N44     Dn4 
	BYTE	W48
	BYTE		N11     Cn3 
	BYTE		N11     Cn4 
	BYTE	W12
	BYTE		        Dn3 
	BYTE		N11     Dn4 
	BYTE	W12
	BYTE		        En3 
	BYTE		N11     En4 
	BYTE	W12
	BYTE		        Fn3 
	BYTE		N11     Fn4 
	BYTE	W12
// 029   ----------------------------------------
	BYTE		N22     Gn3 
	BYTE		N22     Gn4 
	BYTE	W24
	BYTE		        Cn3 
	BYTE		N22     Cn4 
	BYTE	W24
	BYTE		N17     Bn2 
	BYTE		N17     Bn3 
	BYTE	W18
	BYTE		        Cn3 
	BYTE		N17     Cn4 
	BYTE	W18
	BYTE		N11     En3 
	BYTE		N11     En4 
	BYTE	W12
// 030   ----------------------------------------
	BYTE		N44     Cn4 
	BYTE		N44     Gn4 
	BYTE		N44     Cn5 
	BYTE	W48
	BYTE		N12     Bn3   v116
	BYTE		N12     Gn4 
	BYTE		N12     Bn4 
	BYTE	W18
	BYTE		        Gn3 
	BYTE		N12     Dn4 
	BYTE		N12     Gn4 
	BYTE	W18
	BYTE		N07     Dn4 
	BYTE		N07     Gn4 
	BYTE		N07     Dn5 
	BYTE	W12
// 031   ----------------------------------------
	BYTE	W96
// 032   ----------------------------------------
	BYTE	W96
// 033   ----------------------------------------
	BYTE	W96
// 034   ----------------------------------------
	BYTE	W96
// 035   ----------------------------------------
	BYTE	W96
// 036   ----------------------------------------
	BYTE	W96
// 037   ----------------------------------------
	BYTE	W96
// 038   ----------------------------------------
	BYTE	W96
// 039   ----------------------------------------
FE14AlightStormMysteriousDancer_2_039:
	BYTE		N22     Gn3   v080
	BYTE		N22     Cn4 
	BYTE		N22     Gn4 
	BYTE	W24
	BYTE		N11     As3 
	BYTE		N11     As4 
	BYTE	W12
	BYTE		        Gn3 
	BYTE		N11     Gn4 
	BYTE	W12
	BYTE		N22     Fn3 
	BYTE		N22     Fn4 
	BYTE	W24
	BYTE	PEND
// 040   ----------------------------------------
	BYTE		        Gn3 
	BYTE		N22     Cn4 
	BYTE		N22     Gn4 
	BYTE	W24
	BYTE		N11     Ds3 
	BYTE		N11     Ds4 
	BYTE	W12
	BYTE		        Fn3 
	BYTE		N11     Fn4 
	BYTE	W12
	BYTE		N22     Cn3 
	BYTE		N22     Cn4 
	BYTE	W24
	BYTE		N11     Dn3 
	BYTE		N11     Dn4 
	BYTE	W12
	BYTE		        Ds3 
	BYTE		N11     Ds4 
	BYTE	W12
	BYTE		        Fn3 
	BYTE		N11     Cn4 
	BYTE		N11     Fn4 
	BYTE	W12
	BYTE		        Gn3 
	BYTE		N11     Gn4 
	BYTE	W12
// 041   ----------------------------------------
	BYTE	PATT
	 POIN2	FE14AlightStormMysteriousDancer_2_039
// 042   ----------------------------------------
	BYTE		N22     Gn3   v080
	BYTE		N22     Cn4 
	BYTE		N22     Gn4 
	BYTE	W24
	BYTE		N11     Ds3 
	BYTE		N11     Ds4 
	BYTE	W12
	BYTE		        Fn3 
	BYTE		N11     Fn4 
	BYTE	W12
	BYTE		N22     Cn3 
	BYTE		N22     Cn4 
	BYTE	W24
	BYTE		N11   
	BYTE		N11     Cn5 
	BYTE	W12
	BYTE		        As3 
	BYTE		N11     As4 
	BYTE	W12
	BYTE		        Fn3 
	BYTE		N11     Cn4 
	BYTE		N11     Fn4 
	BYTE	W12
	BYTE		        As3 
	BYTE		N11     As4 
	BYTE	W12
// 043   ----------------------------------------
	BYTE	PATT
	 POIN2	FE14AlightStormMysteriousDancer_2_039
// 044   ----------------------------------------
	BYTE		N22     Gn3   v080
	BYTE		N22     Cn4 
	BYTE		N22     Gn4 
	BYTE	W24
	BYTE		N11     Ds3 
	BYTE		N11     Ds4 
	BYTE	W12
	BYTE		        Fn3 
	BYTE		N11     Fn4 
	BYTE	W12
	BYTE		N22     Cn3 
	BYTE		N22     Cn4 
	BYTE	W24
// 045   ----------------------------------------
	BYTE		N11     Dn3 
	BYTE		N11     Dn4 
	BYTE	W12
	BYTE		        Ds3 
	BYTE		N11     Ds4 
	BYTE	W12
	BYTE		        Fn3 
	BYTE		N11     Cn4 
	BYTE		N11     Fn4 
	BYTE	W12
	BYTE		        Gn3 
	BYTE		N11     Gn4 
	BYTE	W12
// 046   ----------------------------------------
	BYTE	W96
// 047   ----------------------------------------
	BYTE	W48
// 048   ----------------------------------------
	BYTE	W48
// 049   ----------------------------------------
	BYTE	W72
// 050   ----------------------------------------
	BYTE	W72
// 051   ----------------------------------------
	BYTE	W72
// 052   ----------------------------------------
	BYTE	W72
// 053   ----------------------------------------
	BYTE	W72
// 054   ----------------------------------------
	BYTE	W72
// 055   ----------------------------------------
	BYTE	W72
// 056   ----------------------------------------
	BYTE	W72
// 057   ----------------------------------------
	BYTE	W72
// 058   ----------------------------------------
	BYTE	W72
// 059   ----------------------------------------
	BYTE	W72
// 060   ----------------------------------------
	BYTE	W72
// 061   ----------------------------------------
	BYTE	W72
// 062   ----------------------------------------
	BYTE	W72
// 063   ----------------------------------------
	BYTE	W72
// 064   ----------------------------------------
	BYTE	W72
// 065   ----------------------------------------
	BYTE	W72
// 066   ----------------------------------------
	BYTE	W72
// 067   ----------------------------------------
	BYTE	W72
// 068   ----------------------------------------
	BYTE	W72
// 069   ----------------------------------------
	BYTE	W72
// 070   ----------------------------------------
	BYTE	W72
// 071   ----------------------------------------
	BYTE	W72
// 072   ----------------------------------------
	BYTE	W72
// 073   ----------------------------------------
	BYTE	W72
// 074   ----------------------------------------
	BYTE	W72
// 075   ----------------------------------------
	BYTE	W72
// 076   ----------------------------------------
	BYTE	W72
// 077   ----------------------------------------
	BYTE	W72
// 078   ----------------------------------------
	BYTE	W72
// 079   ----------------------------------------
	BYTE	W72
// 080   ----------------------------------------
	BYTE	W72
// 081   ----------------------------------------
FE14AlightStormMysteriousDancer_2_081:
	BYTE		N22     An4   v112
	BYTE		N22     Cs5 
	BYTE	W24
	BYTE		N22   
	BYTE		N22     Fs5 
	BYTE	W24
	BYTE		        Gs4 
	BYTE		N22     Bn4 
	BYTE	W24
	BYTE	PEND
// 082   ----------------------------------------
	BYTE		N68     An4 
	BYTE		N68     Cs5 
	BYTE	W72
// 083   ----------------------------------------
	BYTE	PATT
	 POIN2	FE14AlightStormMysteriousDancer_2_081
// 084   ----------------------------------------
	BYTE		N68     An4   v112
	BYTE		N68     Cs5 
	BYTE	W72
// 085   ----------------------------------------
	BYTE	PATT
	 POIN2	FE14AlightStormMysteriousDancer_2_081
// 086   ----------------------------------------
FE14AlightStormMysteriousDancer_2_086:
	BYTE		N22     An4   v112
	BYTE		N22     Cs5 
	BYTE	W24
	BYTE		N22   
	BYTE		N22     Fs5 
	BYTE	W24
	BYTE		        En5 
	BYTE		N22     Gs5 
	BYTE	W24
	BYTE	PEND
// 087   ----------------------------------------
	BYTE		        Fs5 
	BYTE		N22     An5 
	BYTE	W24
	BYTE		        En5 
	BYTE		N22     Gs5 
	BYTE	W24
	BYTE		        Cs5 
	BYTE		N22     En5 
	BYTE	W24
// 088   ----------------------------------------
	BYTE		N68     Gs4 
	BYTE		N68     Cs5 
	BYTE	W72
// 089   ----------------------------------------
	BYTE	PATT
	 POIN2	FE14AlightStormMysteriousDancer_2_081
// 090   ----------------------------------------
	BYTE		N68     An4   v112
	BYTE		N68     Cs5 
	BYTE	W72
// 091   ----------------------------------------
	BYTE	PATT
	 POIN2	FE14AlightStormMysteriousDancer_2_081
// 092   ----------------------------------------
	BYTE		N68     An4   v112
	BYTE		N68     Cs5 
	BYTE	W72
// 093   ----------------------------------------
	BYTE	PATT
	 POIN2	FE14AlightStormMysteriousDancer_2_081
// 094   ----------------------------------------
	BYTE	PATT
	 POIN2	FE14AlightStormMysteriousDancer_2_086
// 095   ----------------------------------------
FE14AlightStormMysteriousDancer_2_095:
	BYTE	W12
	BYTE		N02     Cn4   v112
	BYTE		N02     Fn4 
	BYTE		N02     An4 
	BYTE	W06
	BYTE		        Cn4 
	BYTE		N02     Fn4 
	BYTE		N02     An4 
	BYTE	W06
	BYTE		N11     Cn4 
	BYTE		N11     Fn4 
	BYTE		N11     An4 
	BYTE	W24
	BYTE		N02     Cn4 
	BYTE		N02     Fn4 
	BYTE		N02     An4 
	BYTE	W06
	BYTE		        Cn4 
	BYTE		N02     Fn4 
	BYTE		N02     An4 
	BYTE	W06
	BYTE		N05     Cn4 
	BYTE		N05     Fn4 
	BYTE		N05     An4 
	BYTE	W12
	BYTE	PEND
// 096   ----------------------------------------
FE14AlightStormMysteriousDancer_2_096:
	BYTE	W12
	BYTE		N02     Cn4   v112
	BYTE		N02     Fn4 
	BYTE		N02     An4 
	BYTE	W06
	BYTE		        Cn4 
	BYTE		N02     Fn4 
	BYTE		N02     An4 
	BYTE	W06
	BYTE		N05     Cn4 
	BYTE		N05     Fn4 
	BYTE		N05     An4 
	BYTE	W12
	BYTE		        Cn4 
	BYTE		N05     Fn4 
	BYTE		N05     An4 
	BYTE	W12
	BYTE		        Dn4 
	BYTE		N05     Gn4 
	BYTE		N05     Bn4 
	BYTE	W12
	BYTE		        En4 
	BYTE		N05     An4 
	BYTE		N05     Cn5 
	BYTE	W12
	BYTE	PEND
// 097   ----------------------------------------
	BYTE	PATT
	 POIN2	FE14AlightStormMysteriousDancer_2_095
// 098   ----------------------------------------
	BYTE	PATT
	 POIN2	FE14AlightStormMysteriousDancer_2_096
// 099   ----------------------------------------
	BYTE	W72
// 100   ----------------------------------------
	BYTE	W72
// 101   ----------------------------------------
	BYTE	W72
// 102   ----------------------------------------
	BYTE	W72
// 103   ----------------------------------------
	BYTE	W12
	BYTE	GoTo
	 POIN2	FE14AlightStormMysteriousDancer_2_B1
FE14AlightStormMysteriousDancer_2_B2:
	BYTE	FINE

//**************** Track 3 (Midi-Chn.3) ****************//

FE14AlightStormMysteriousDancer_3:
	BYTE	KEYSH   FE14AlightStormMysteriousDancer_key+0
FE14AlightStormMysteriousDancer_3_B1:
// 000   ----------------------------------------
	BYTE		VOICE   10
	BYTE		VOL     88*FE14AlightStormMysteriousDancer_mvl/mxv
	BYTE		PAN     c_v+0
	BYTE	W48
// 001   ----------------------------------------
	BYTE	W96
// 002   ----------------------------------------
	BYTE	W96
// 003   ----------------------------------------
	BYTE	W96
// 004   ----------------------------------------
	BYTE	W96
// 005   ----------------------------------------
	BYTE	W96
// 006   ----------------------------------------
	BYTE	W96
// 007   ----------------------------------------
	BYTE	W96
// 008   ----------------------------------------
	BYTE	W96
// 009   ----------------------------------------
	BYTE	W96
// 010   ----------------------------------------
	BYTE	W96
// 011   ----------------------------------------
	BYTE	W96
// 012   ----------------------------------------
	BYTE	W96
// 013   ----------------------------------------
	BYTE	W96
// 014   ----------------------------------------
	BYTE	W96
// 015   ----------------------------------------
	BYTE	W96
// 016   ----------------------------------------
	BYTE	W96
// 017   ----------------------------------------
	BYTE	W96
// 018   ----------------------------------------
	BYTE	W96
// 019   ----------------------------------------
	BYTE	W96
// 020   ----------------------------------------
	BYTE	W96
// 021   ----------------------------------------
	BYTE	W96
// 022   ----------------------------------------
	BYTE	W96
// 023   ----------------------------------------
	BYTE	W96
// 024   ----------------------------------------
	BYTE		N44     As4   v096
	BYTE	W96
// 025   ----------------------------------------
	BYTE	W96
// 026   ----------------------------------------
	BYTE	W96
// 027   ----------------------------------------
	BYTE	W96
// 028   ----------------------------------------
	BYTE	W96
// 029   ----------------------------------------
	BYTE	W96
// 030   ----------------------------------------
	BYTE	W96
// 031   ----------------------------------------
	BYTE	W96
// 032   ----------------------------------------
	BYTE	W96
// 033   ----------------------------------------
	BYTE	W96
// 034   ----------------------------------------
	BYTE	W96
// 035   ----------------------------------------
	BYTE	W96
// 036   ----------------------------------------
	BYTE	W96
// 037   ----------------------------------------
	BYTE	W96
// 038   ----------------------------------------
	BYTE	W96
// 039   ----------------------------------------
	BYTE	W72
// 040   ----------------------------------------
	BYTE	W96
	BYTE	W24
// 041   ----------------------------------------
	BYTE	W72
// 042   ----------------------------------------
	BYTE	W96
	BYTE	W24
// 043   ----------------------------------------
	BYTE	W72
// 044   ----------------------------------------
	BYTE	W72
// 045   ----------------------------------------
	BYTE	W48
// 046   ----------------------------------------
	BYTE	W96
// 047   ----------------------------------------
	BYTE	W48
// 048   ----------------------------------------
	BYTE	W48
// 049   ----------------------------------------
	BYTE	W72
// 050   ----------------------------------------
	BYTE	W72
// 051   ----------------------------------------
	BYTE	W72
// 052   ----------------------------------------
	BYTE	W72
// 053   ----------------------------------------
	BYTE	W72
// 054   ----------------------------------------
	BYTE	W72
// 055   ----------------------------------------
	BYTE	W72
// 056   ----------------------------------------
	BYTE	W72
// 057   ----------------------------------------
	BYTE	W72
// 058   ----------------------------------------
	BYTE	W72
// 059   ----------------------------------------
	BYTE	W72
// 060   ----------------------------------------
	BYTE	W72
// 061   ----------------------------------------
	BYTE	W72
// 062   ----------------------------------------
	BYTE	W72
// 063   ----------------------------------------
	BYTE	W72
// 064   ----------------------------------------
	BYTE	W72
// 065   ----------------------------------------
	BYTE	W72
// 066   ----------------------------------------
	BYTE	W72
// 067   ----------------------------------------
	BYTE	W72
// 068   ----------------------------------------
	BYTE	W72
// 069   ----------------------------------------
	BYTE	W72
// 070   ----------------------------------------
	BYTE	W72
// 071   ----------------------------------------
	BYTE	W72
// 072   ----------------------------------------
	BYTE	W72
// 073   ----------------------------------------
	BYTE	W72
// 074   ----------------------------------------
	BYTE	W72
// 075   ----------------------------------------
	BYTE	W72
// 076   ----------------------------------------
	BYTE	W72
// 077   ----------------------------------------
	BYTE	W72
// 078   ----------------------------------------
	BYTE	W72
// 079   ----------------------------------------
	BYTE	W72
// 080   ----------------------------------------
	BYTE	W72
// 081   ----------------------------------------
	BYTE	W72
// 082   ----------------------------------------
	BYTE	W72
// 083   ----------------------------------------
	BYTE	W72
// 084   ----------------------------------------
	BYTE	W72
// 085   ----------------------------------------
	BYTE	W72
// 086   ----------------------------------------
	BYTE	W72
// 087   ----------------------------------------
	BYTE	W72
// 088   ----------------------------------------
	BYTE	W72
// 089   ----------------------------------------
	BYTE	W72
// 090   ----------------------------------------
	BYTE	W72
// 091   ----------------------------------------
	BYTE	W72
// 092   ----------------------------------------
	BYTE	W72
// 093   ----------------------------------------
	BYTE	W72
// 094   ----------------------------------------
	BYTE	W72
// 095   ----------------------------------------
	BYTE	W72
// 096   ----------------------------------------
	BYTE	W72
// 097   ----------------------------------------
	BYTE	W72
// 098   ----------------------------------------
	BYTE	W72
// 099   ----------------------------------------
	BYTE	W72
// 100   ----------------------------------------
	BYTE	W72
// 101   ----------------------------------------
	BYTE	W72
// 102   ----------------------------------------
	BYTE	W72
// 103   ----------------------------------------
	BYTE	W12
	BYTE	GoTo
	 POIN2	FE14AlightStormMysteriousDancer_3_B1
FE14AlightStormMysteriousDancer_3_B2:
	BYTE	FINE

//**************** Track 4 (Midi-Chn.4) ****************//

FE14AlightStormMysteriousDancer_4:
	BYTE	KEYSH   FE14AlightStormMysteriousDancer_key+0
FE14AlightStormMysteriousDancer_4_B1:
// 000   ----------------------------------------
	BYTE		VOICE   40
	BYTE		VOL     88*FE14AlightStormMysteriousDancer_mvl/mxv
	BYTE		PAN     c_v+0
	BYTE	W48
// 001   ----------------------------------------
	BYTE	W96
// 002   ----------------------------------------
	BYTE	W96
// 003   ----------------------------------------
	BYTE	W96
// 004   ----------------------------------------
	BYTE	W96
// 005   ----------------------------------------
	BYTE	W96
// 006   ----------------------------------------
	BYTE	W96
// 007   ----------------------------------------
	BYTE	W96
// 008   ----------------------------------------
	BYTE	W96
// 009   ----------------------------------------
	BYTE	W96
// 010   ----------------------------------------
	BYTE	W96
// 011   ----------------------------------------
	BYTE	W96
// 012   ----------------------------------------
	BYTE	W96
// 013   ----------------------------------------
	BYTE	W96
// 014   ----------------------------------------
	BYTE	W96
// 015   ----------------------------------------
	BYTE	W96
// 016   ----------------------------------------
	BYTE	W96
// 017   ----------------------------------------
	BYTE	W96
// 018   ----------------------------------------
	BYTE	W96
// 019   ----------------------------------------
	BYTE	W96
// 020   ----------------------------------------
	BYTE	W96
// 021   ----------------------------------------
	BYTE	W96
// 022   ----------------------------------------
	BYTE	W96
// 023   ----------------------------------------
	BYTE	W96
// 024   ----------------------------------------
	BYTE	W96
// 025   ----------------------------------------
	BYTE	W96
// 026   ----------------------------------------
	BYTE	W96
// 027   ----------------------------------------
	BYTE	W96
// 028   ----------------------------------------
	BYTE	W96
// 029   ----------------------------------------
	BYTE	W96
// 030   ----------------------------------------
	BYTE	W96
// 031   ----------------------------------------
FE14AlightStormMysteriousDancer_4_031:
	BYTE		N11     En3   v080
	BYTE		N11     An3 
	BYTE		N11     Cn4 
	BYTE	W12
	BYTE		        Dn3 
	BYTE	W12
	BYTE		N17     En3 
	BYTE		N17     An3 
	BYTE		N17     Cn4 
	BYTE	W18
	BYTE		        Gn3 
	BYTE	W18
	BYTE		N11     An3 
	BYTE	W12
	BYTE		        En3 
	BYTE	W12
	BYTE		        Dn3 
	BYTE	W12
	BYTE	PEND
// 032   ----------------------------------------
	BYTE		N17     En3 
	BYTE	W18
	BYTE		        Gn3 
	BYTE	W18
	BYTE		N11     An3 
	BYTE	W12
	BYTE		N05     Gn3 
	BYTE	W12
	BYTE		        An3 
	BYTE	W12
	BYTE		        Cn4 
	BYTE	W12
	BYTE		        Dn4 
	BYTE	W12
// 033   ----------------------------------------
	BYTE	PATT
	 POIN2	FE14AlightStormMysteriousDancer_4_031
// 034   ----------------------------------------
	BYTE		N05     En3   v080
	BYTE		N05     En4 
	BYTE	W06
	BYTE		        En3 
	BYTE		N05     En4 
	BYTE	W12
	BYTE		        En3 
	BYTE		N05     En4 
	BYTE	W12
	BYTE		        En3 
	BYTE		N05     En4 
	BYTE	W12
	BYTE		        En3 
	BYTE		N05     En4 
	BYTE	W12
	BYTE		        En3 
	BYTE		N05     En4 
	BYTE	W18
	BYTE		        En3 
	BYTE		N05     En4 
	BYTE	W12
	BYTE		        En3 
	BYTE		N05     En4 
	BYTE	W12
// 035   ----------------------------------------
	BYTE		        Dn4   v096
	BYTE	W06
	BYTE		        Ds4 
	BYTE	W06
	BYTE		        Dn4   v080
	BYTE	W06
	BYTE		        As4   v096
	BYTE	W06
	BYTE		        Ds4   v080
	BYTE	W06
	BYTE		        Fn4 
	BYTE	W06
	BYTE		        Dn4   v096
	BYTE	W06
	BYTE		        Ds4 
	BYTE	W06
	BYTE		        Fn4   v080
	BYTE	W06
	BYTE		        As4   v096
	BYTE	W06
	BYTE		        Fn4   v080
	BYTE	W06
	BYTE		        Ds4   v096
	BYTE	W06
	BYTE		        Fn4 
	BYTE	W06
	BYTE		        Ds4   v080
	BYTE	W06
	BYTE		        Fn4 
	BYTE	W06
	BYTE		        As4   v096
	BYTE	W06
// 036   ----------------------------------------
	BYTE		        Cn5 
	BYTE	W06
	BYTE		        Fn4   v080
	BYTE	W06
	BYTE		        Ds4   v096
	BYTE	W06
	BYTE		        Fn4 
	BYTE	W06
	BYTE		        Ds4   v080
	BYTE	W06
	BYTE		        As4   v096
	BYTE	W06
	BYTE		        Dn5 
	BYTE	W06
	BYTE		        Fn4   v080
	BYTE	W06
	BYTE		        Ds4   v096
	BYTE	W06
	BYTE		        Fn4 
	BYTE	W06
	BYTE		        Ds4   v080
	BYTE	W06
	BYTE		        As4   v096
	BYTE	W06
	BYTE		N11     Ds5 
	BYTE	W12
	BYTE		        Ds4 
	BYTE	W12
// 037   ----------------------------------------
	BYTE		N05   
	BYTE	W06
	BYTE		        Fn4 
	BYTE	W06
	BYTE		        Fn5 
	BYTE	W06
	BYTE		        Fn4   v080
	BYTE	W06
	BYTE		        Ds4   v096
	BYTE	W06
	BYTE		        Fn4 
	BYTE	W06
	BYTE		        Ds4   v080
	BYTE	W06
	BYTE		        As4   v096
	BYTE	W06
	BYTE		        Gn5 
	BYTE	W06
	BYTE		        As4   v080
	BYTE	W06
	BYTE		        Fn4 
	BYTE	W06
	BYTE		        Ds4   v096
	BYTE	W06
	BYTE		        Fn4 
	BYTE	W06
	BYTE		        As4   v080
	BYTE	W06
	BYTE		        Gn5   v096
	BYTE	W06
	BYTE		        As4   v080
	BYTE	W06
// 038   ----------------------------------------
	BYTE		N44     As5   v096
	BYTE	W48
	BYTE		N11     Cn6   v080
	BYTE	W12
	BYTE		N02     Dn6 
	BYTE	W03
	BYTE		        Cn6 
	BYTE	W03
	BYTE		        As5 
	BYTE	W03
	BYTE		        Gs5 
	BYTE	W03
	BYTE		        Gn5 
	BYTE	W03
	BYTE		        Fn5 
	BYTE	W03
	BYTE		        Ds5 
	BYTE	W03
	BYTE		        Dn5 
	BYTE	W03
	BYTE		        Cn5 
	BYTE	W03
	BYTE		        As4 
	BYTE	W03
	BYTE		        Gs4 
	BYTE	W03
	BYTE		        Gn4 
	BYTE	W03
// 039   ----------------------------------------
	BYTE	W72
// 040   ----------------------------------------
	BYTE	W96
	BYTE	W24
// 041   ----------------------------------------
	BYTE	W72
// 042   ----------------------------------------
	BYTE	W96
	BYTE	W24
// 043   ----------------------------------------
	BYTE	W72
// 044   ----------------------------------------
	BYTE	W72
// 045   ----------------------------------------
	BYTE	W48
// 046   ----------------------------------------
	BYTE	W96
// 047   ----------------------------------------
	BYTE	W48
// 048   ----------------------------------------
	BYTE	W48
// 049   ----------------------------------------
	BYTE	W72
// 050   ----------------------------------------
	BYTE	W72
// 051   ----------------------------------------
	BYTE	W72
// 052   ----------------------------------------
	BYTE	W72
// 053   ----------------------------------------
	BYTE	W72
// 054   ----------------------------------------
	BYTE	W72
// 055   ----------------------------------------
	BYTE	W72
// 056   ----------------------------------------
	BYTE	W72
// 057   ----------------------------------------
	BYTE	W72
// 058   ----------------------------------------
	BYTE	W72
// 059   ----------------------------------------
	BYTE	W72
// 060   ----------------------------------------
	BYTE	W72
// 061   ----------------------------------------
	BYTE	W72
// 062   ----------------------------------------
	BYTE	W72
// 063   ----------------------------------------
	BYTE	W72
// 064   ----------------------------------------
	BYTE	W72
// 065   ----------------------------------------
	BYTE	W72
// 066   ----------------------------------------
	BYTE	W72
// 067   ----------------------------------------
	BYTE	W72
// 068   ----------------------------------------
	BYTE	W72
// 069   ----------------------------------------
	BYTE	W72
// 070   ----------------------------------------
	BYTE	W72
// 071   ----------------------------------------
	BYTE	W72
// 072   ----------------------------------------
	BYTE	W72
// 073   ----------------------------------------
	BYTE	W72
// 074   ----------------------------------------
	BYTE	W72
// 075   ----------------------------------------
	BYTE	W72
// 076   ----------------------------------------
	BYTE	W72
// 077   ----------------------------------------
	BYTE	W72
// 078   ----------------------------------------
	BYTE	W72
// 079   ----------------------------------------
	BYTE	W72
// 080   ----------------------------------------
	BYTE	W72
// 081   ----------------------------------------
	BYTE	W72
// 082   ----------------------------------------
	BYTE	W72
// 083   ----------------------------------------
	BYTE	W72
// 084   ----------------------------------------
	BYTE	W72
// 085   ----------------------------------------
	BYTE	W72
// 086   ----------------------------------------
	BYTE	W72
// 087   ----------------------------------------
	BYTE	W72
// 088   ----------------------------------------
	BYTE	W72
// 089   ----------------------------------------
	BYTE	W72
// 090   ----------------------------------------
	BYTE	W72
// 091   ----------------------------------------
	BYTE	W72
// 092   ----------------------------------------
	BYTE	W72
// 093   ----------------------------------------
	BYTE	W72
// 094   ----------------------------------------
	BYTE	W72
// 095   ----------------------------------------
	BYTE	W72
// 096   ----------------------------------------
	BYTE	W72
// 097   ----------------------------------------
	BYTE	W72
// 098   ----------------------------------------
	BYTE	W72
// 099   ----------------------------------------
	BYTE	W72
// 100   ----------------------------------------
	BYTE	W72
// 101   ----------------------------------------
	BYTE	W72
// 102   ----------------------------------------
	BYTE	W24
	BYTE		PAN     c_v+0
	BYTE	W48
// 103   ----------------------------------------
	BYTE	W12
	BYTE	GoTo
	 POIN2	FE14AlightStormMysteriousDancer_4_B1
FE14AlightStormMysteriousDancer_4_B2:
	BYTE	FINE

//**************** Track 5 (Midi-Chn.5) ****************//

FE14AlightStormMysteriousDancer_5:
	BYTE	KEYSH   FE14AlightStormMysteriousDancer_key+0
FE14AlightStormMysteriousDancer_5_B1:
// 000   ----------------------------------------
	BYTE		VOICE   49
	BYTE		VOL     56*FE14AlightStormMysteriousDancer_mvl/mxv
	BYTE		PAN     c_v+0
	BYTE	W48
// 001   ----------------------------------------
	BYTE	W96
// 002   ----------------------------------------
	BYTE	W96
// 003   ----------------------------------------
	BYTE	W96
// 004   ----------------------------------------
	BYTE	W96
// 005   ----------------------------------------
	BYTE	W96
// 006   ----------------------------------------
	BYTE	W96
// 007   ----------------------------------------
	BYTE	W96
// 008   ----------------------------------------
	BYTE	W96
// 009   ----------------------------------------
	BYTE	W96
// 010   ----------------------------------------
	BYTE	W96
// 011   ----------------------------------------
	BYTE	W96
// 012   ----------------------------------------
	BYTE	W96
// 013   ----------------------------------------
	BYTE	W96
// 014   ----------------------------------------
	BYTE	W96
// 015   ----------------------------------------
	BYTE	W96
// 016   ----------------------------------------
	BYTE	W96
// 017   ----------------------------------------
	BYTE	W96
// 018   ----------------------------------------
	BYTE	W96
// 019   ----------------------------------------
	BYTE	W96
// 020   ----------------------------------------
	BYTE	W96
// 021   ----------------------------------------
	BYTE	W96
// 022   ----------------------------------------
	BYTE	W96
// 023   ----------------------------------------
	BYTE	W96
// 024   ----------------------------------------
	BYTE	W96
// 025   ----------------------------------------
	BYTE	W96
// 026   ----------------------------------------
	BYTE	W96
// 027   ----------------------------------------
	BYTE	W96
// 028   ----------------------------------------
	BYTE	W96
// 029   ----------------------------------------
	BYTE	W96
// 030   ----------------------------------------
	BYTE	W96
// 031   ----------------------------------------
	BYTE	W96
// 032   ----------------------------------------
	BYTE	W96
// 033   ----------------------------------------
	BYTE	W96
// 034   ----------------------------------------
	BYTE	W96
// 035   ----------------------------------------
	BYTE	W96
// 036   ----------------------------------------
	BYTE	W96
// 037   ----------------------------------------
	BYTE	W96
// 038   ----------------------------------------
	BYTE	W96
// 039   ----------------------------------------
	BYTE	W72
// 040   ----------------------------------------
	BYTE	W96
	BYTE	W24
// 041   ----------------------------------------
	BYTE	W72
// 042   ----------------------------------------
	BYTE	W96
	BYTE	W24
// 043   ----------------------------------------
	BYTE	W72
// 044   ----------------------------------------
	BYTE	W72
// 045   ----------------------------------------
	BYTE	W48
// 046   ----------------------------------------
	BYTE	W96
// 047   ----------------------------------------
	BYTE	W48
// 048   ----------------------------------------
	BYTE	W48
// 049   ----------------------------------------
	BYTE		N44     Ds3   v080
	BYTE		N44     Gs3 
	BYTE		N44     Dn4 
	BYTE	W48
	BYTE		N11     Gs3 
	BYTE		N11     Cn4 
	BYTE	W12
	BYTE		        As3 
	BYTE		N11     Dn4 
	BYTE	W12
// 050   ----------------------------------------
	BYTE		N32     Gs3 
	BYTE		N32     Fn4 
	BYTE	W36
	BYTE		N11     Cn4 
	BYTE		N11     Ds4 
	BYTE	W12
	BYTE		N22     Dn3 
	BYTE		N22     Dn4 
	BYTE	W24
// 051   ----------------------------------------
	BYTE		N44     Gn3 
	BYTE		N44     Ds4 
	BYTE	W48
	BYTE		N11     As3 
	BYTE		N11     Dn4 
	BYTE	W12
	BYTE		        Cn4 
	BYTE		N11     Ds4 
	BYTE	W12
// 052   ----------------------------------------
	BYTE		N22     Gs3 
	BYTE		N22     Fn4 
	BYTE	W24
	BYTE		        Gn3 
	BYTE		N22     As3 
	BYTE	W24
	BYTE		        Dn4 
	BYTE		N22     As4 
	BYTE	W24
// 053   ----------------------------------------
	BYTE		N32     Gn3 
	BYTE		N32     Bn3 
	BYTE		N90     Gn4 
	BYTE	W36
	BYTE		N32     An3 
	BYTE		N32     Cn4 
	BYTE	W36
// 054   ----------------------------------------
	BYTE		        Bn3 
	BYTE		N32     Dn4 
	BYTE	W24
	BYTE		N22     Fn4 
	BYTE	W12
	BYTE		N32     An3 
	BYTE		N32     Cn4 
	BYTE	W12
	BYTE		N22     Ds4 
	BYTE	W24
// 055   ----------------------------------------
	BYTE		N44     An3 
	BYTE		N44     Dn4 
	BYTE	W48
	BYTE		N22     Cn4 
	BYTE		N22     Ds4 
	BYTE	W24
// 056   ----------------------------------------
	BYTE		N11     Gs3 
	BYTE		N11     Cn4 
	BYTE	W12
	BYTE		        Ds3 
	BYTE	W12
	BYTE		        As3 
	BYTE		N11     Dn4 
	BYTE	W12
	BYTE		        Fn3 
	BYTE	W12
	BYTE		        Cn4 
	BYTE		N11     Ds4 
	BYTE	W12
	BYTE		        Gn3 
	BYTE	W12
// 057   ----------------------------------------
	BYTE		N32     Cn4 
	BYTE		N32     Ds4 
	BYTE	W36
	BYTE		N11     Ds3 
	BYTE		N11     Gn3 
	BYTE	W12
	BYTE		        Fn3 
	BYTE		N11     Gs3 
	BYTE	W12
	BYTE		        Cn4 
	BYTE		N11     Ds4 
	BYTE	W12
// 058   ----------------------------------------
	BYTE		N44     Cn4 
	BYTE		N44     Ds4 
	BYTE	W48
	BYTE		N11     Gn3 
	BYTE		N11     Dn4 
	BYTE	W12
	BYTE		        Cn4 
	BYTE		N11     Ds4 
	BYTE	W12
// 059   ----------------------------------------
	BYTE		N32     As3 
	BYTE		N32     Fn4 
	BYTE	W36
	BYTE		N11     Gn3 
	BYTE		N11     An3 
	BYTE	W12
	BYTE		        Gn3 
	BYTE		N11     As3 
	BYTE	W12
	BYTE		N11   
	BYTE		N11     Fn4 
	BYTE	W12
// 060   ----------------------------------------
	BYTE		N22     Dn4 
	BYTE		N22     Fn4 
	BYTE	W24
	BYTE		        Cn4 
	BYTE		N22     Ds4 
	BYTE	W24
	BYTE		        Dn4 
	BYTE		N22     Fn4 
	BYTE	W24
// 061   ----------------------------------------
	BYTE		N32     Ds4 
	BYTE		N32     Gn4 
	BYTE	W36
	BYTE		N11     Gs3 
	BYTE		N11     Cn4 
	BYTE	W12
	BYTE		        Gn3 
	BYTE		N11     Bn3 
	BYTE	W12
	BYTE		N32     Gs3 
	BYTE		N32     Cn4 
	BYTE	W12
// 062   ----------------------------------------
	BYTE	W24
	BYTE		N22   
	BYTE		N22     Ds4 
	BYTE	W24
	BYTE		        Dn4 
	BYTE		N22     Fn4 
	BYTE	W24
// 063   ----------------------------------------
	BYTE		N44     Dn4 
	BYTE		N44     Gn4 
	BYTE	W48
	BYTE		N22     Fn4 
	BYTE		N22     Gs4 
	BYTE	W24
// 064   ----------------------------------------
	BYTE		        Ds4 
	BYTE		N22     Gn4 
	BYTE	W24
	BYTE		N32     Dn4 
	BYTE		N32     Fn4 
	BYTE	W36
	BYTE		N02     Gs4 
	BYTE	W03
	BYTE		        As4 
	BYTE	W03
	BYTE		        Cn5 
	BYTE	W03
	BYTE		        Dn5 
	BYTE	W03
// 065   ----------------------------------------
	BYTE		N68     Ds4   v112
	BYTE		N22     Ds5 
	BYTE	W24
	BYTE		        Fs4 
	BYTE		N22     As4 
	BYTE	W24
	BYTE		        Fn4 
	BYTE		N22     Gs4 
	BYTE	W24
// 066   ----------------------------------------
	BYTE		        Ds3 
	BYTE		N22     As3 
	BYTE		N68     As4 
	BYTE	W24
	BYTE		N22     Cs3 
	BYTE		N22     Fn3 
	BYTE	W24
	BYTE		N05     Ds3 
	BYTE		N05     Fs3 
	BYTE	W12
	BYTE		        Fn3 
	BYTE		N05     Gs3 
	BYTE	W12
// 067   ----------------------------------------
	BYTE		N44     Fs3 
	BYTE		N44     As3 
	BYTE		N22     Ds4 
	BYTE	W24
	BYTE		        Fs4 
	BYTE		N22     As4 
	BYTE	W24
	BYTE		        Gs3 
	BYTE		N22     Cs4 
	BYTE		N22     Fn4 
	BYTE		N22     Gs4 
	BYTE	W24
// 068   ----------------------------------------
	BYTE		        As3 
	BYTE		N22     Ds4 
	BYTE		N68     Fs4 
	BYTE		N68     As4 
	BYTE	W24
	BYTE		N22     Gs3 
	BYTE		N22     Cs4 
	BYTE	W24
	BYTE		N05     As3 
	BYTE		N05     Ds4 
	BYTE	W12
	BYTE		        Bn3 
	BYTE		N05     Ds4 
	BYTE	W12
// 069   ----------------------------------------
	BYTE		N44     As3 
	BYTE		N22     Ds4 
	BYTE	W24
	BYTE		        Fs4 
	BYTE		N22     As4 
	BYTE	W24
	BYTE		        Ds4 
	BYTE		N22     Fn4 
	BYTE		N22     Gs4 
	BYTE	W24
// 070   ----------------------------------------
	BYTE		        Ds4 
	BYTE		N22     Fs4 
	BYTE		N22     As4 
	BYTE	W24
	BYTE		        Ds4 
	BYTE		N22     Fs4 
	BYTE		N22     As4 
	BYTE		N22     Ds5 
	BYTE	W24
	BYTE		        Fn4 
	BYTE		N22     Gs4 
	BYTE		N22     Cs5 
	BYTE		N22     Fn5 
	BYTE	W24
// 071   ----------------------------------------
	BYTE		        Fs4 
	BYTE		N22     As4 
	BYTE		N22     Ds5 
	BYTE		N22     Fs5 
	BYTE	W24
	BYTE		        Fn4 
	BYTE		N22     Gs4 
	BYTE		N22     Cs5 
	BYTE		N22     Fn5 
	BYTE	W24
	BYTE		N11     Fs4 
	BYTE		N11     As4 
	BYTE		N22     Cs5 
	BYTE	W12
	BYTE		N11     Gs4 
	BYTE		N11     Bn4 
	BYTE	W12
// 072   ----------------------------------------
	BYTE		N68     Dn4 
	BYTE		N68     Fn4 
	BYTE		N68     As4 
	BYTE	W72
// 073   ----------------------------------------
	BYTE		N44     Ds4 
	BYTE		N44     Fs4 
	BYTE		N22     As4 
	BYTE	W24
	BYTE		N22   
	BYTE		N22     Ds5 
	BYTE	W24
	BYTE		        Cs4 
	BYTE		N22     Fn4 
	BYTE		N22     Gs4 
	BYTE	W24
// 074   ----------------------------------------
	BYTE		        Ds4 
	BYTE		N22     Fs4 
	BYTE		N48     As4 
	BYTE	W24
	BYTE		N22     Fn4 
	BYTE		N22     Gs4 
	BYTE	W24
	BYTE		N11     Fs4 
	BYTE		N11     As4 
	BYTE	W12
	BYTE		        Gs4 
	BYTE		N11     Bn4 
	BYTE	W12
// 075   ----------------------------------------
	BYTE		N44     Fs4 
	BYTE		N44     As4 
	BYTE		N22     Ds5 
	BYTE	W24
	BYTE		        Cs5 
	BYTE		N22     Fn5 
	BYTE	W24
	BYTE		        Fn4 
	BYTE		N22     Gs4 
	BYTE		N22     Ds5 
	BYTE		N22     Fs5 
	BYTE	W24
// 076   ----------------------------------------
	BYTE		        Fs4 
	BYTE		N22     As4 
	BYTE		N44     Fn5 
	BYTE		N44     Gs5 
	BYTE	W24
	BYTE		N22     Gs4 
	BYTE		N22     Bn4 
	BYTE	W24
	BYTE		N11     As4 
	BYTE		N11     Cs5 
	BYTE	W12
	BYTE		        As4 
	BYTE		N11     Dn5 
	BYTE	W12
// 077   ----------------------------------------
	BYTE		N90     As4 
	BYTE		N48     Ds5 
	BYTE		N44     Fs5 
	BYTE		N44     As5 
	BYTE	W48
	BYTE		N22     Bn4 
	BYTE		N22     Ds5 
	BYTE	W24
// 078   ----------------------------------------
	BYTE		N19   
	BYTE	W24
	BYTE		N11     Cs5 
	BYTE		N22     Fs5 
	BYTE		N22     As5 
	BYTE	W12
	BYTE		N11     Bn4 
	BYTE	W12
	BYTE		        As4 
	BYTE		N22     Ds5 
	BYTE	W12
	BYTE		N11     Fn4 
	BYTE	W12
// 079   ----------------------------------------
	BYTE		N56     Gs4 
	BYTE		N22     Fn5 
	BYTE		N22     Gs5 
	BYTE	W24
	BYTE		        Bn4 
	BYTE		N22     Dn5 
	BYTE	W24
	BYTE		        Bn4 
	BYTE		N22     Ds5 
	BYTE	W12
	BYTE		N05     Gs4 
	BYTE	W06
	BYTE		        An4 
	BYTE	W06
// 080   ----------------------------------------
	BYTE		N68     As4 
	BYTE		N68     Dn5 
	BYTE		N44     Fs5 
	BYTE	W48
	BYTE		N22     Fn5 
	BYTE	W24
// 081   ----------------------------------------
	BYTE	W72
// 082   ----------------------------------------
	BYTE	W72
// 083   ----------------------------------------
	BYTE	W72
// 084   ----------------------------------------
	BYTE	W72
// 085   ----------------------------------------
	BYTE	W72
// 086   ----------------------------------------
	BYTE	W72
// 087   ----------------------------------------
	BYTE	W72
// 088   ----------------------------------------
	BYTE	W72
// 089   ----------------------------------------
	BYTE	W72
// 090   ----------------------------------------
	BYTE	W72
// 091   ----------------------------------------
	BYTE	W72
// 092   ----------------------------------------
	BYTE	W72
// 093   ----------------------------------------
	BYTE	W72
// 094   ----------------------------------------
	BYTE	W72
// 095   ----------------------------------------
	BYTE	W72
// 096   ----------------------------------------
	BYTE	W72
// 097   ----------------------------------------
	BYTE	W72
// 098   ----------------------------------------
	BYTE	W72
// 099   ----------------------------------------
	BYTE		N05     Gn4   v116
	BYTE	W06
	BYTE		        Fs4 
	BYTE	W06
	BYTE		        Bn3   v096
	BYTE	W06
	BYTE		        Fs4 
	BYTE	W06
	BYTE		        En4 
	BYTE	W06
	BYTE		        An3 
	BYTE	W06
	BYTE		        Gn4   v116
	BYTE	W06
	BYTE		        Fs4 
	BYTE	W06
	BYTE		        Bn3   v096
	BYTE	W06
	BYTE		        Fs4 
	BYTE	W06
	BYTE		        En4 
	BYTE	W06
	BYTE		        An3 
	BYTE	W06
// 100   ----------------------------------------
	BYTE		        An4   v116
	BYTE	W06
	BYTE		        Gn4 
	BYTE	W06
	BYTE		        Cn4   v096
	BYTE	W06
	BYTE		        Gn4 
	BYTE	W06
	BYTE		        Fs4 
	BYTE	W06
	BYTE		        Bn3 
	BYTE	W06
	BYTE		        An4   v116
	BYTE	W06
	BYTE		        Gn4 
	BYTE	W06
	BYTE		        Cn4   v096
	BYTE	W06
	BYTE		        Gn4 
	BYTE	W06
	BYTE		        Fs4 
	BYTE	W06
	BYTE		        Bn3 
	BYTE	W06
// 101   ----------------------------------------
	BYTE		N48     Dn4 
	BYTE		N36     Gn4 
	BYTE		N24     Bn4 
	BYTE		N11     Dn5 
	BYTE	W12
	BYTE		        Cn4 
	BYTE		N11     Cn5 
	BYTE	W12
	BYTE		        Bn3 
	BYTE		N11     Bn4 
	BYTE	W12
	BYTE		        Gn3 
	BYTE		N11     Gn4 
	BYTE	W12
	BYTE		        Dn3 
	BYTE		N11     Dn4 
	BYTE	W12
	BYTE		        Cn3 
	BYTE		N11     Cn4 
	BYTE	W12
// 102   ----------------------------------------
	BYTE		        Gn3 
	BYTE		N11     Bn3 
	BYTE	W12
	BYTE		        An3 
	BYTE		N11     Cn4 
	BYTE	W12
	BYTE		        Gn3 
	BYTE		N11     Bn3 
	BYTE	W12
	BYTE		        Dn3 
	BYTE		N11     Dn4 
	BYTE	W12
	BYTE		N05     Gn3 
	BYTE		N05     Gn4 
	BYTE	W06
	BYTE		N02     Bn3 
	BYTE	W03
	BYTE		        Cn4 
	BYTE	W03
	BYTE		        Dn4 
	BYTE	W03
	BYTE		        En4 
	BYTE	W03
	BYTE		        Fs4 
	BYTE	W06
// 103   ----------------------------------------
	BYTE		PAN     c_v+0
	BYTE	W12
	BYTE	GoTo
	 POIN2	FE14AlightStormMysteriousDancer_5_B1
FE14AlightStormMysteriousDancer_5_B2:
	BYTE	FINE

//******************************************************//
	ALIGN 4

FE14AlightStormMysteriousDancer:
	BYTE	5	// NumTrks
	BYTE	0	// NumBlks
	BYTE	FE14AlightStormMysteriousDancer_pri	// Priority
	BYTE	FE14AlightStormMysteriousDancer_rev	// Reverb.

	POIN2	FE14AlightStormMysteriousDancer_grp

	POIN2	FE14AlightStormMysteriousDancer_1
	POIN2	FE14AlightStormMysteriousDancer_2
	POIN2	FE14AlightStormMysteriousDancer_3
	POIN2	FE14AlightStormMysteriousDancer_4
	POIN2	FE14AlightStormMysteriousDancer_5

	
