//Event file generated from Sappy .s format.
	#include "MPlayDef.event"

	#define	ThornInYou(Roar)_grp  voicegroup000
	#define	ThornInYou(Roar)_pri  0
	#define	ThornInYou(Roar)_rev  0
	#define	ThornInYou(Roar)_mvl  127
	#define	ThornInYou(Roar)_key  0
	#define	ThornInYou(Roar)_tbs  1
	#define	ThornInYou(Roar)_exg  0
	#define	ThornInYou(Roar)_cmp  1

	// .rodata
	//	ThornInYou(Roar)
	ALIGN 4

//**************** Track 1 (Midi-Chn.1) ****************//

ThornInYou(Roar)_1:
	BYTE		VOL     127*ThornInYou(Roar)_mvl/mxv
	BYTE	KEYSH   ThornInYou(Roar)_key+0
ThornInYou(Roar)_1_B1:
// 000   ----------------------------------------
	BYTE	TEMPO   94*ThornInYou(Roar)_tbs/2
	BYTE		VOICE   1
	BYTE	W01
	BYTE		N24     En3   v100
	BYTE		N24     Cn4   v072
	BYTE		N24     En4   v100
	BYTE	W24
	BYTE		        Fn3 
	BYTE		N24     An3 
	BYTE		N24     Fn4 
	BYTE	W24
	BYTE		N12     En3 
	BYTE		N12     An3 
	BYTE	W12
	BYTE		        Cn3   v080
	BYTE	W12
	BYTE		N24     Dn3   v100
	BYTE		N24     Fn3 
	BYTE		N24     Dn4 
	BYTE	W24
	BYTE		        En3 
	BYTE		N24     An3   v072
	BYTE		N24     En4   v100
	BYTE	W24
	BYTE		        Fn3 
	BYTE		N24     Cn4   v072
	BYTE		N24     Fn4   v100
	BYTE	W23
// 001   ----------------------------------------
	BYTE	W01
	BYTE		        En3 
	BYTE		N24     Cn4   v072
	BYTE		N24     En4   v100
	BYTE	W24
	BYTE		        Fn3 
	BYTE		N24     Dn4   v072
	BYTE		N24     Fn4   v100
	BYTE	W24
	BYTE		N12     En3   v072
	BYTE		N12     An3   v100
	BYTE	W12
	BYTE		        Cn3   v072
	BYTE	W12
	BYTE		N24     Dn3   v100
	BYTE		N24     Fn3 
	BYTE		N24     Dn4 
	BYTE	W24
	BYTE		        En3 
	BYTE		N24     Gn3   v072
	BYTE		N24     En4   v100
	BYTE	W24
	BYTE		        Fn3 
	BYTE		N24     An3   v072
	BYTE		N24     Fn4   v100
	BYTE	W23
// 002   ----------------------------------------
	BYTE	W01
	BYTE		        Fn3 
	BYTE		N24     Cn4   v072
	BYTE		N24     Fn4   v100
	BYTE	W24
	BYTE		        Gn3 
	BYTE		N24     Cn4   v072
	BYTE		N24     Gn4   v100
	BYTE	W24
	BYTE		N12     Cn3 
	BYTE		N12     Fn3   v072
	BYTE		N12     Cn4   v100
	BYTE	W12
	BYTE		        Cn3   v072
	BYTE	W12
	BYTE		N24     En3   v100
	BYTE		N24     Gn3 
	BYTE		N24     En4 
	BYTE	W24
	BYTE		        Fn3 
	BYTE		N24     An3   v072
	BYTE		N24     Fn4   v100
	BYTE	W24
	BYTE		        Gn3 
	BYTE		N24     Cn4   v072
	BYTE		N24     Gn4   v100
	BYTE	W23
// 003   ----------------------------------------
	BYTE	W01
	BYTE		        Gn3 
	BYTE		N24     Cn4   v072
	BYTE		N24     Gn4   v100
	BYTE	W24
	BYTE		        An3 
	BYTE		N24     Cn4   v072
	BYTE		N24     An4   v100
	BYTE	W24
	BYTE		        Cn3 
	BYTE		N24     Gn3   v072
	BYTE		N24     Cn4   v100
	BYTE	W24
	BYTE		        En3 
	BYTE		N24     Gn3   v080
	BYTE		N24     En4   v100
	BYTE	W24
	BYTE		        Fn3 
	BYTE		N24     An3   v080
	BYTE		N24     Fn4   v100
	BYTE	W24
	BYTE		        Cn4 
	BYTE		N24     En4   v080
	BYTE		N24     Cn5   v100
	BYTE	W23
// 004   ----------------------------------------
	BYTE	W01
	BYTE		N48     Dn4 
	BYTE		N48     Dn5 
	BYTE	W48
	BYTE		N24     An3 
	BYTE		N24     An4 
	BYTE	W24
	BYTE		        As3 
	BYTE		N24     As4 
	BYTE	W24
	BYTE		N36     Fn4 
	BYTE		N36     Fn5 
	BYTE	W36
	BYTE		N12     Gn4 
	BYTE		N12     Gn5 
	BYTE	W11
// 005   ----------------------------------------
	BYTE	W01
	BYTE		N36     En4 
	BYTE		N36     En5 
	BYTE	W48
	BYTE		N12     Dn4 
	BYTE		N12     Dn5 
	BYTE	W12
	BYTE		        En4 
	BYTE		N12     En5 
	BYTE	W12
	BYTE		N24     Cn4 
	BYTE		N24     Cn5 
	BYTE	W24
	BYTE		N36     An4 
	BYTE		N36     An5 
	BYTE	W36
	BYTE		N12     Cn5 
	BYTE		N12     Cn6 
	BYTE	W11
// 006   ----------------------------------------
	BYTE	W01
	BYTE		N36     Fn4 
	BYTE		N36     Fn5 
	BYTE	W48
	BYTE		N12     En4 
	BYTE		N12     En5 
	BYTE	W12
	BYTE		        Fn4 
	BYTE		N12     Fn5 
	BYTE	W12
	BYTE		N24     As3 
	BYTE		N24     As4 
	BYTE	W24
	BYTE		N36     An4 
	BYTE		N36     An5 
	BYTE	W36
	BYTE		N12     Gn4 
	BYTE		N12     Gn5 
	BYTE	W11
// 007   ----------------------------------------
	BYTE	W01
	BYTE		N24     Fn4 
	BYTE		N24     Fn5 
	BYTE	W24
	BYTE		N48     En4 
	BYTE		N48     En5 
	BYTE	W48
	BYTE		N24     Dn4 
	BYTE		N24     Fn4 
	BYTE		N24     Dn5 
	BYTE	W24
	BYTE		N48     Cn4 
	BYTE		N48     En4 
	BYTE		N48     Cn5 
	BYTE	W44
	BYTE	W03
// 008   ----------------------------------------
	BYTE	W01
	BYTE		N24     Dn4 
	BYTE		N24     An4 
	BYTE		N24     Dn5 
	BYTE	W24
	BYTE		        Gn4 
	BYTE	W24
	BYTE		        An3 
	BYTE		N24     Fn4 
	BYTE		N24     An4 
	BYTE	W24
	BYTE		        As3 
	BYTE		N24     Fn4 
	BYTE		N24     As4 
	BYTE	W24
	BYTE		N36     Fn4 
	BYTE		N36     As4 
	BYTE		N36     Fn5 
	BYTE	W36
	BYTE		N12     Gn4 
	BYTE		N12     As4 
	BYTE		N12     Gn5 
	BYTE	W11
// 009   ----------------------------------------
	BYTE	W01
	BYTE		N24     En4 
	BYTE		N24     Gn4 
	BYTE		N24     En5 
	BYTE	W24
	BYTE		        Fn4 
	BYTE	W24
	BYTE		N12     Dn4 
	BYTE		N12     Gn4 
	BYTE		N12     Dn5 
	BYTE	W12
	BYTE		        En4 
	BYTE		N12     Gn4 
	BYTE		N12     En5 
	BYTE	W12
	BYTE		N24     Cn4 
	BYTE		N24     An4 
	BYTE		N24     Cn5 
	BYTE	W24
	BYTE		N36     An4 
	BYTE		N36     Cn5 
	BYTE		N36     An5 
	BYTE	W36
	BYTE		N12     Cn5 
	BYTE		N12     Cn6 
	BYTE	W11
// 010   ----------------------------------------
	BYTE	W01
	BYTE		N24     Fn4 
	BYTE		N24     Dn5 
	BYTE		N24     Fn5 
	BYTE	W24
	BYTE		        En4 
	BYTE	W24
	BYTE		N12   
	BYTE		N12     Cn5 
	BYTE		N12     En5 
	BYTE	W12
	BYTE		        Fn4 
	BYTE		N12     Dn5 
	BYTE		N12     Fn5 
	BYTE	W12
	BYTE		N24     As3 
	BYTE		N24     Gn4 
	BYTE		N24     As4 
	BYTE	W24
	BYTE		N36     An4 
	BYTE		N36     Fn5 
	BYTE		N36     An5 
	BYTE	W36
	BYTE		N12     Gn4 
	BYTE		N12     En5 
	BYTE		N12     Gn5 
	BYTE	W11
// 011   ----------------------------------------
	BYTE	W01
	BYTE		N24     Fn4 
	BYTE		N24     Cn5 
	BYTE		N24     Fn5 
	BYTE	W24
	BYTE		        En4 
	BYTE		N24     Cn5 
	BYTE		N24     En5 
	BYTE	W24
	BYTE		        Fn4 
	BYTE		N24     Dn5 
	BYTE		N24     Fn5 
	BYTE	W24
	BYTE		        Gn4 
	BYTE		N24     En5 
	BYTE		N24     Gn5 
	BYTE	W24
	BYTE		        An4 
	BYTE		N24     Fn5 
	BYTE		N24     An5 
	BYTE	W24
	BYTE		        As4 
	BYTE		N24     Gn5 
	BYTE		N24     As5 
	BYTE	W23
// 012   ----------------------------------------
	BYTE	W01
	BYTE		        Gn3   v092
	BYTE		N24     As3 
	BYTE		N24     Gn4 
	BYTE	W24
	BYTE		N12     Cn4 
	BYTE	W12
	BYTE		        Fn3 
	BYTE		N12     Fn4 
	BYTE	W12
	BYTE		        Gn3 
	BYTE		N12     Gn4 
	BYTE	W12
	BYTE		        Gs3 
	BYTE		N12     Gs4 
	BYTE	W12
	BYTE		N24     As3 
	BYTE		N24     Ds4 
	BYTE		N24     As4 
	BYTE	W24
	BYTE		        Gn4 
	BYTE	W24
	BYTE		N12     Gs3 
	BYTE		N12     Fn4 
	BYTE		N12     Gs4 
	BYTE	W12
	BYTE		        As3 
	BYTE		N12     As4 
	BYTE	W11
// 013   ----------------------------------------
	BYTE	W01
	BYTE		N24     Cn4 
	BYTE		N24     Gn4 
	BYTE		N24     Cn5 
	BYTE	W24
	BYTE		N12     Gs4 
	BYTE	W12
	BYTE		        As3 
	BYTE		N12     As4 
	BYTE	W12
	BYTE		        Cn4 
	BYTE		N12     Ds4 
	BYTE		N12     Cn5 
	BYTE	W12
	BYTE		        Cs4 
	BYTE		N12     Cs5 
	BYTE	W12
	BYTE		N36     Ds4 
	BYTE		N36     Ds5 
	BYTE	W36
	BYTE		N12     Gs3 
	BYTE		N12     As3 
	BYTE		N12     Gs4 
	BYTE	W12
	BYTE		        Gn3 
	BYTE		N12     Cn4 
	BYTE		N12     Gn4 
	BYTE	W12
	BYTE		        Gs3 
	BYTE		N12     Gs4 
	BYTE	W11
// 014   ----------------------------------------
	BYTE	W01
	BYTE		        Ds4 
	BYTE		N12     Gs4 
	BYTE		N12     Ds5 
	BYTE	W12
	BYTE		        Fn4 
	BYTE		N12     Fn5 
	BYTE	W12
	BYTE		        Cs4 
	BYTE		N12     Cs5 
	BYTE	W12
	BYTE		N24     Gn4 
	BYTE	W24
	BYTE		N12     Cn4 
	BYTE		N12     Cn5 
	BYTE	W12
	BYTE		        Cs4 
	BYTE		N12     En4 
	BYTE		N12     Cs5 
	BYTE	W12
	BYTE		        Ds4 
	BYTE		N12     Ds5 
	BYTE	W12
	BYTE		N24     Cn4 
	BYTE		N24     Gn4 
	BYTE		N24     Cn5 
	BYTE	W24
	BYTE		N08     Fn4 
	BYTE	W08
	BYTE		        As3 
	BYTE		N08     As4 
	BYTE	W08
	BYTE		        Gs3 
	BYTE		N08     Gs4 
	BYTE	W07
// 015   ----------------------------------------
	BYTE	W01
	BYTE		N48     As3 
	BYTE		N48     Cs4 
	BYTE		N48     As4 
	BYTE	W48
	BYTE		N12     Fn3 
	BYTE		N12     Fn4 
	BYTE	W12
	BYTE		        As3 
	BYTE		N12     As4 
	BYTE	W12
	BYTE		N24     Cn4 
	BYTE		N24     Fn4 
	BYTE		N24     Gs4 
	BYTE		N24     Cn5 
	BYTE	W24
	BYTE		N48     En4 
	BYTE		N48     Gn4 
	BYTE	W44
	BYTE	W03
// 016   ----------------------------------------
	BYTE	W01
	BYTE		N03     As4   v100
	BYTE	W04
	BYTE		        Ds4   v072
	BYTE	W05
	BYTE		        As3 
	BYTE	W03
	BYTE		        Ds4 
	BYTE	W04
	BYTE		        As3 
	BYTE	W04
	BYTE		        Gs3 
	BYTE	W04
	BYTE		        As4 
	BYTE	W04
	BYTE		N04     Ds4 
	BYTE	W05
	BYTE		N03     Bn3 
	BYTE	W03
	BYTE		        Gs4   v100
	BYTE	W04
	BYTE		N04     Ds4   v072
	BYTE	W05
	BYTE		N03     Bn3 
	BYTE	W03
	BYTE		        As4   v100
	BYTE	W04
	BYTE		N04     Ds4   v072
	BYTE	W05
	BYTE		N03     Bn3 
	BYTE	W03
	BYTE		        Bn4   v100
	BYTE	W04
	BYTE		N04     Ds4   v072
	BYTE	W05
	BYTE		N03     Bn3 
	BYTE	W03
	BYTE		        Cs5   v100
	BYTE	W04
	BYTE		N04     As4   v072
	BYTE	W05
	BYTE		N03     Fs4 
	BYTE	W03
	BYTE		        As4 
	BYTE	W04
	BYTE		N04     Fs4 
	BYTE	W05
	BYTE		N03     Cs4 
	BYTE	W03
	BYTE		        As4 
	BYTE	W04
	BYTE		N04     Fs4 
	BYTE	W05
	BYTE		N03     Cs4 
	BYTE	W03
	BYTE		        Fs4 
	BYTE	W04
	BYTE		N04     Cs4 
	BYTE	W05
	BYTE		N03     As3 
	BYTE	W03
	BYTE		        Bn4   v100
	BYTE	W04
	BYTE		N04     Fs4   v072
	BYTE	W05
	BYTE		N03     Cs4 
	BYTE	W03
	BYTE		        Cs5   v100
	BYTE	W04
	BYTE		N04     Fs4   v072
	BYTE	W05
	BYTE		N03     Cs4 
	BYTE	W02
// 017   ----------------------------------------
	BYTE	W01
	BYTE		        Ds5   v100
	BYTE	W04
	BYTE		        Gs4   v072
	BYTE	W04
	BYTE		        En4 
	BYTE	W04
	BYTE		        En5   v100
	BYTE	W04
	BYTE		        Gs4   v072
	BYTE	W04
	BYTE		        En4 
	BYTE	W04
	BYTE		        Ds5   v100
	BYTE	W04
	BYTE		        Gs4   v072
	BYTE	W04
	BYTE		        En4 
	BYTE	W04
	BYTE		        Cs5   v100
	BYTE	W04
	BYTE		        Gs4   v072
	BYTE	W04
	BYTE		        En4 
	BYTE	W04
	BYTE		        Ds5   v100
	BYTE	W04
	BYTE		N04     Gs4   v072
	BYTE	W05
	BYTE		N03     En4 
	BYTE	W03
	BYTE		        En5   v100
	BYTE	W04
	BYTE		N04     Gs4   v072
	BYTE	W05
	BYTE		N03     En4 
	BYTE	W03
	BYTE		        Fs5   v100
	BYTE	W04
	BYTE		N04     Cs5   v072
	BYTE	W05
	BYTE		N03     As4 
	BYTE	W03
	BYTE		        Cs5   v092
	BYTE	W04
	BYTE		N04     As4   v072
	BYTE	W05
	BYTE		N03     Fs4 
	BYTE	W03
	BYTE		        Cs5   v092
	BYTE	W04
	BYTE		        As4   v072
	BYTE	W05
	BYTE		        Fs4 
	BYTE	W03
	BYTE		        Bn4   v092
	BYTE	W04
	BYTE		N04     Fs4   v072
	BYTE	W05
	BYTE		N03     Cs4 
	BYTE	W03
	BYTE		        As4   v092
	BYTE	W04
	BYTE		        Fs4   v072
	BYTE	W04
	BYTE		N04     Cs4 
	BYTE	W04
	BYTE		N03     Bn4   v092
	BYTE	W04
	BYTE		        Fs4 
	BYTE	W04
	BYTE		        Cs4   v072
	BYTE	W03
// 018   ----------------------------------------
	BYTE	W01
	BYTE		        Fs5   v100
	BYTE	W04
	BYTE		N04     En5   v072
	BYTE	W05
	BYTE		N03     Cs5 
	BYTE	W03
	BYTE		        Gs5   v100
	BYTE	W04
	BYTE		N04     En5   v072
	BYTE	W05
	BYTE		N03     Cs5 
	BYTE	W03
	BYTE		        En5   v100
	BYTE	W04
	BYTE		        Cs5   v072
	BYTE	W05
	BYTE		        Gs4 
	BYTE	W03
	BYTE		        Cs5 
	BYTE	W04
	BYTE		N04     Gs4 
	BYTE	W05
	BYTE		N03     En4 
	BYTE	W03
	BYTE		        Gs4 
	BYTE	W04
	BYTE		N04     En4 
	BYTE	W05
	BYTE		N03     Cs4 
	BYTE	W03
	BYTE		        Ds5   v100
	BYTE	W04
	BYTE		        Bn4   v072
	BYTE	W05
	BYTE		        Gs4 
	BYTE	W03
	BYTE		        En5   v100
	BYTE	W04
	BYTE		N04     Bn4   v072
	BYTE	W05
	BYTE		N03     Fs4 
	BYTE	W03
	BYTE		        Fs5   v100
	BYTE	W04
	BYTE		N04     Bn4   v072
	BYTE	W05
	BYTE		N03     Fs4 
	BYTE	W03
	BYTE		        Ds5   v100
	BYTE	W04
	BYTE		N04     Bn4   v072
	BYTE	W04
	BYTE		        Fs4 
	BYTE	W04
	BYTE		N03     Bn4 
	BYTE	W04
	BYTE		N04     Fs4 
	BYTE	W04
	BYTE		N03     Cs4 
	BYTE	W04
	BYTE		        Fs4 
	BYTE	W04
	BYTE		N04     Cs4 
	BYTE	W05
	BYTE		N03     Bn3 
	BYTE	W03
	BYTE		        Cs4 
	BYTE	W04
	BYTE		        Bn3 
	BYTE	W05
	BYTE		        Fs3 
	BYTE	W02
// 019   ----------------------------------------
	BYTE	W01
	BYTE		        Gs4   v092
	BYTE		N03     Cs5   v100
	BYTE	W04
	BYTE		        Ds4   v092
	BYTE	W04
	BYTE		        Gs3 
	BYTE	W04
	BYTE		N06     As3 
	BYTE	W06
	BYTE		        Bn3 
	BYTE	W06
	BYTE		        Cs4 
	BYTE	W06
	BYTE		        Ds4 
	BYTE	W06
	BYTE		        En4 
	BYTE	W06
	BYTE		        Fs4 
	BYTE	W06
	BYTE		        Gs4 
	BYTE	W06
	BYTE		        As4 
	BYTE	W06
	BYTE		        Bn4 
	BYTE	W06
	BYTE		        Cs5 
	BYTE	W06
	BYTE		        Ds5   v100
	BYTE	W06
	BYTE		        Ds4   v092
	BYTE	W06
	BYTE		        Fn4 
	BYTE	W06
	BYTE		        Gn4 
	BYTE	W06
	BYTE		        Gs4 
	BYTE	W06
	BYTE		        As4 
	BYTE	W06
	BYTE		        Bn4 
	BYTE	W06
	BYTE		        Cs5 
	BYTE	W06
	BYTE		N03     Ds5 
	BYTE	W04
	BYTE		N04     Cs4 
	BYTE	W05
	BYTE		N03     Ds4 
	BYTE	W03
	BYTE		        Gn4 
	BYTE	W04
	BYTE		N04     As4 
	BYTE	W05
	BYTE		N03     Ds5 
	BYTE	W02
// 020   ----------------------------------------
	BYTE	W01
	BYTE		N12     Bn3 
	BYTE		N12     Bn4 
	BYTE	W12
	BYTE		        As3 
	BYTE		N12     As4 
	BYTE	W12
	BYTE		        Fs3 
	BYTE		N12     Fs4 
	BYTE	W12
	BYTE		        Gs3 
	BYTE		N12     Gs4 
	BYTE	W12
	BYTE		        Cs3 
	BYTE		N12     Cs4 
	BYTE	W12
	BYTE		N12   
	BYTE		N12     Cs5 
	BYTE	W12
	BYTE		        Bn3 
	BYTE		N12     Bn4 
	BYTE	W12
	BYTE		        As3 
	BYTE		N12     As4 
	BYTE	W12
	BYTE		        Gs3 
	BYTE		N12     Cs4 
	BYTE		N12     Gs4 
	BYTE	W12
	BYTE		        As3 
	BYTE		N12     As4 
	BYTE	W12
	BYTE		        Ds4 
	BYTE		N12     Ds5 
	BYTE	W12
	BYTE		        Cs4 
	BYTE		N12     Cs5 
	BYTE	W11
// 021   ----------------------------------------
	BYTE	W01
	BYTE		        Bn3 
	BYTE		N12     Bn4 
	BYTE	W12
	BYTE		        As3 
	BYTE		N12     As4 
	BYTE	W12
	BYTE		        Gs3 
	BYTE		N12     Gs4 
	BYTE	W12
	BYTE		        As3 
	BYTE		N12     As4 
	BYTE	W12
	BYTE		        Cs3 
	BYTE		N12     Cs4 
	BYTE	W12
	BYTE		        Fs3 
	BYTE		N12     Fs4 
	BYTE	W12
	BYTE		        Bn3 
	BYTE		N12     Bn4 
	BYTE	W12
	BYTE		        As3 
	BYTE		N12     As4 
	BYTE	W12
	BYTE		        Gs3 
	BYTE		N12     En4 
	BYTE		N12     Gs4 
	BYTE	W12
	BYTE		        Cs4 
	BYTE		N12     Cs5 
	BYTE	W12
	BYTE		        As3 
	BYTE		N12     As4 
	BYTE	W12
	BYTE		        Ds4 
	BYTE		N12     Ds5 
	BYTE	W11
// 022   ----------------------------------------
	BYTE	W01
	BYTE		        Bn3 
	BYTE		N12     Fs4 
	BYTE		N12     Bn4 
	BYTE	W12
	BYTE		        As3 
	BYTE		N12     As4 
	BYTE	W12
	BYTE		        Fs3 
	BYTE		N12     Fs4 
	BYTE	W12
	BYTE		        Gs3 
	BYTE		N12     Gs4 
	BYTE	W12
	BYTE		        Cs3 
	BYTE		N12     Cs4 
	BYTE	W12
	BYTE		N12   
	BYTE		N12     Cs5 
	BYTE	W12
	BYTE		        Bn3 
	BYTE		N12     Bn4 
	BYTE	W12
	BYTE		        As3 
	BYTE		N12     As4 
	BYTE	W12
	BYTE		        Gs3 
	BYTE		N12     Gs4 
	BYTE	W12
	BYTE		        As3 
	BYTE		N12     As4 
	BYTE	W12
	BYTE		        Ds4 
	BYTE		N12     Ds5 
	BYTE	W12
	BYTE		        Cs4 
	BYTE		N12     Cs5 
	BYTE	W11
// 023   ----------------------------------------
	BYTE	W01
	BYTE		        Bn3 
	BYTE		N12     Bn4 
	BYTE	W12
	BYTE		        As3 
	BYTE		N12     As4 
	BYTE	W12
	BYTE		        Gs3 
	BYTE		N12     Gs4 
	BYTE	W12
	BYTE		        As3 
	BYTE		N12     As4 
	BYTE	W12
	BYTE		        Cs3 
	BYTE		N12     As3 
	BYTE		N12     Cs4 
	BYTE	W12
	BYTE		        Fs3 
	BYTE		N12     Fs4 
	BYTE	W12
	BYTE		        Bn3 
	BYTE		N12     Bn4 
	BYTE	W12
	BYTE		        As3 
	BYTE		N12     As4 
	BYTE	W12
	BYTE		        Gs3 
	BYTE		N12     Bn3 
	BYTE		N12     Gs4 
	BYTE	W12
	BYTE		        Cs4 
	BYTE		N12     Cs5 
	BYTE	W12
	BYTE		        As3 
	BYTE		N12     As4 
	BYTE	W12
	BYTE		        Ds4 
	BYTE		N12     Ds5 
	BYTE	W11
// 024   ----------------------------------------
	BYTE	W01
	BYTE		        Bn3 
	BYTE		N12     Bn4 
	BYTE	W12
	BYTE		        As3 
	BYTE		N12     As4 
	BYTE	W12
	BYTE		        Fs3 
	BYTE		N12     Fs4 
	BYTE	W12
	BYTE		        Gs3 
	BYTE		N12     Gs4 
	BYTE	W12
	BYTE		        Cs3 
	BYTE		N12     Cs4 
	BYTE	W12
	BYTE		N12   
	BYTE		N12     Cs5 
	BYTE	W12
	BYTE		        Bn3 
	BYTE		N12     Bn4 
	BYTE	W12
	BYTE		        As3 
	BYTE		N12     As4 
	BYTE	W12
	BYTE		        Gs3 
	BYTE		N12     Gs4 
	BYTE	W12
	BYTE		        As3 
	BYTE		N12     As4 
	BYTE	W12
	BYTE		        Ds4 
	BYTE		N12     Ds5 
	BYTE	W12
	BYTE		        Cs4 
	BYTE		N12     Cs5 
	BYTE	W11
// 025   ----------------------------------------
	BYTE	W01
	BYTE		        Bn3 
	BYTE		N12     Ds4 
	BYTE		N12     Bn4 
	BYTE	W12
	BYTE		        As3 
	BYTE		N12     As4 
	BYTE	W12
	BYTE		        Gs3 
	BYTE		N12     Gs4 
	BYTE	W12
	BYTE		        As3 
	BYTE		N12     As4 
	BYTE	W12
	BYTE		        Cs3 
	BYTE		N12     Cs4 
	BYTE		N12     En4 
	BYTE	W12
	BYTE		        Fs3 
	BYTE		N12     Fs4 
	BYTE	W12
	BYTE		        Bn3 
	BYTE		N12     Bn4 
	BYTE	W12
	BYTE		        As3 
	BYTE		N12     As4 
	BYTE	W12
	BYTE		        Gs3 
	BYTE		N12     Fs4 
	BYTE		N12     Gs4 
	BYTE	W12
	BYTE		        Cs4 
	BYTE		N12     Cs5 
	BYTE	W12
	BYTE		        As3 
	BYTE		N12     As4 
	BYTE	W12
	BYTE		        Ds4 
	BYTE		N12     Ds5 
	BYTE	W11
// 026   ----------------------------------------
	BYTE	W01
	BYTE		N06     Gs2   v080
	BYTE	W12
	BYTE		N03   
	BYTE	W04
	BYTE		N04   
	BYTE	W05
	BYTE		N03   
	BYTE	W03
	BYTE		N06   
	BYTE	W12
	BYTE		N06   
	BYTE		N06     As2 
	BYTE	W12
	BYTE		N03     Gs2 
	BYTE		N03     As2 
	BYTE	W04
	BYTE		        Gs2 
	BYTE		N03     As2 
	BYTE	W08
	BYTE		N06     Gs2 
	BYTE		N06     As2 
	BYTE	W12
	BYTE		        Gs2 
	BYTE		N06     Bn2 
	BYTE	W12
	BYTE		N03     Gs2 
	BYTE		N03     Bn2 
	BYTE	W04
	BYTE		N04     Gs2 
	BYTE		N03     Bn2 
	BYTE	W05
	BYTE		        Gs2 
	BYTE	W03
	BYTE		N06   
	BYTE		N06     Bn2 
	BYTE	W12
	BYTE		        Gs2 
	BYTE		N06     Cs3 
	BYTE	W12
	BYTE		N03     Gs2 
	BYTE		N03     Cs3 
	BYTE	W04
	BYTE		N04     Gs2 
	BYTE		N03     Cs3 
	BYTE	W05
	BYTE		        Gs2 
	BYTE	W03
	BYTE		N06   
	BYTE		N06     Cs3 
	BYTE	W11
// 027   ----------------------------------------
	BYTE	W01
	BYTE		        Bn2 
	BYTE		N06     Ds3 
	BYTE	W12
	BYTE		N03     Bn2 
	BYTE		N03     Ds3 
	BYTE	W04
	BYTE		        Bn2 
	BYTE		N03     Ds3 
	BYTE	W08
	BYTE		N06     Bn2 
	BYTE		N06     Ds3 
	BYTE	W12
	BYTE		        Cs3 
	BYTE		N06     En3 
	BYTE	W12
	BYTE		N03     Cs3 
	BYTE		N03     En3 
	BYTE	W04
	BYTE		        Cs3 
	BYTE		N03     En3 
	BYTE	W08
	BYTE		N06     Cs3 
	BYTE		N06     En3 
	BYTE	W12
	BYTE		        Ds3 
	BYTE		N06     Fs3 
	BYTE	W12
	BYTE		N03     Ds3 
	BYTE		N03     Fs3 
	BYTE	W04
	BYTE		        Ds3 
	BYTE		N03     Fs3 
	BYTE	W08
	BYTE		N06     Ds3 
	BYTE		N06     Fs3 
	BYTE	W12
	BYTE		        En3 
	BYTE		N06     Gs3 
	BYTE	W12
	BYTE		        Bn2 
	BYTE		N06     Gs3 
	BYTE	W06
	BYTE		        Cs3 
	BYTE		N06     As3 
	BYTE	W06
	BYTE		        Ds3 
	BYTE		N06     Bn3 
	BYTE	W06
	BYTE		        En3 
	BYTE		N06     Cs4 
	BYTE	W05
// 028   ----------------------------------------
	BYTE	W01
	BYTE		N48     Gs4   v092
	BYTE	W02
	BYTE		N44     Bn4 
	BYTE	W01
	BYTE		        Ds5 
	BYTE	W02
	BYTE		N42     Gs5 
	BYTE	W42
	BYTE	W01
	BYTE		N36     Gs4 
	BYTE	W02
	BYTE		        Cn5 
	BYTE	W01
	BYTE		        Fn5 
	BYTE	W02
	BYTE		N32     Gs5 
	BYTE	W36
	BYTE	W01
	BYTE		N01   
	BYTE	W02
	BYTE		        As5 
	BYTE	W01
	BYTE		        Cn6 
	BYTE	W02
	BYTE		        Ds6 
	BYTE	W01
	BYTE		N02     Fn6 
	BYTE	W44
	BYTE	W03
// 029   ----------------------------------------
	BYTE	W19
	BYTE	TEMPO   94*ThornInYou(Roar)_tbs/2
	BYTE		N03     Bn4 
	BYTE	W04
	BYTE		N04     As4 
	BYTE	W05
	BYTE		N03     Gs4 
	BYTE	W03
	BYTE		        As4 
	BYTE	W04
	BYTE		N04     Gs4 
	BYTE	W05
	BYTE		N03     Gn4 
	BYTE	W03
	BYTE		        Fn4 
	BYTE	W04
	BYTE		N04     Gn4 
	BYTE	W01
// 030   ----------------------------------------
	BYTE	W04
	BYTE		N03     Gs4 
	BYTE	W03
	BYTE		        As4 
	BYTE	W04
	BYTE		N04     Gs4 
	BYTE	W05
	BYTE		N03     Gn4 
	BYTE	W03
	BYTE	TEMPO   94*ThornInYou(Roar)_tbs/2
	BYTE	W12
	BYTE		N02     Cn4 
	BYTE	W03
	BYTE		N03     Gs3 
	BYTE	W03
	BYTE		N02     Gn3 
	BYTE	W03
	BYTE		N03     Gs3 
	BYTE	W08
// 031   ----------------------------------------
	BYTE	W07
	BYTE		N02     Cn3 
	BYTE	W03
	BYTE		        Gs2 
	BYTE	W03
	BYTE		        Gn2 
	BYTE	W03
	BYTE		        Gs2 
	BYTE	W15
	BYTE		        Cn2 
	BYTE	W03
	BYTE		        Gs1 
	BYTE	W03
	BYTE		        Gn1 
	BYTE	W06
	BYTE		N30     An4 
	BYTE	W28
	BYTE	W01
// 032   ----------------------------------------
	BYTE	W01
	BYTE		N06     An3 
	BYTE	W06
	BYTE		        Dn4 
	BYTE	W06
	BYTE		        An4 
	BYTE	W06
	BYTE		N30     As4 
	BYTE	W28
	BYTE	W01
// 033   ----------------------------------------
	BYTE	W01
	BYTE		N06     As3 
	BYTE	W06
	BYTE		        Fn4 
	BYTE	W06
	BYTE		        As4 
	BYTE	W06
	BYTE		        An4 
	BYTE	W06
	BYTE		        An3 
	BYTE	W06
	BYTE		        Dn4 
	BYTE	W06
	BYTE		        An4 
	BYTE	W06
	BYTE	TEMPO   94*ThornInYou(Roar)_tbs/2
	BYTE		        As4 
	BYTE	W06
	BYTE		        As3 
	BYTE	W06
	BYTE		        Fn4 
	BYTE	W06
	BYTE		        As4 
	BYTE	W06
	BYTE		N78     Cn5 
	BYTE	W76
	BYTE	W01
// 034   ----------------------------------------
	BYTE	W01
	BYTE		N06     Cn4 
	BYTE	W06
	BYTE		        Gn4 
	BYTE	W06
	BYTE		        Cn5 
	BYTE	W06
	BYTE		        As4 
	BYTE	W06
	BYTE		        As3 
	BYTE	W06
	BYTE		        Fn4 
	BYTE	W06
	BYTE		        As4 
	BYTE	W06
	BYTE	TEMPO   94*ThornInYou(Roar)_tbs/2
	BYTE		        Cn5 
	BYTE	W06
	BYTE		        Cn4 
	BYTE	W06
	BYTE		        Gn4 
	BYTE	W06
	BYTE		        Cn5 
	BYTE	W06
	BYTE		        Dn5 
	BYTE	W05
// 035   ----------------------------------------
	BYTE	W01
	BYTE		        Dn4 
	BYTE	W06
	BYTE		        An4 
	BYTE	W06
	BYTE		        Dn5 
	BYTE	W06
	BYTE		        Cn5 
	BYTE	W06
	BYTE		        Cn4 
	BYTE	W06
	BYTE		        Gn4 
	BYTE	W06
	BYTE		        Cn5 
	BYTE	W06
	BYTE		N06   
	BYTE	W06
	BYTE		        Cn4 
	BYTE	W06
	BYTE		        An4 
	BYTE	W06
	BYTE		        Cn4 
	BYTE	W06
	BYTE		N03     As4 
	BYTE	W04
	BYTE		N04     Fn4 
	BYTE	W05
	BYTE		N03     As3 
	BYTE	W03
	BYTE		        Cn5 
	BYTE	W04
	BYTE		        Gn4 
	BYTE	W05
	BYTE		        Cn4 
	BYTE	W03
	BYTE		        Dn5 
	BYTE	W04
	BYTE		        Gn4 
	BYTE	W05
	BYTE		        Dn4 
	BYTE	W03
	BYTE		        Ds5 
	BYTE	W04
	BYTE		N04     As4 
	BYTE	W05
	BYTE		N03     Ds4 
	BYTE	W03
	BYTE		N06     Dn5 
	BYTE	W06
	BYTE		        Dn4 
	BYTE	W06
	BYTE		        An4 
	BYTE	W06
	BYTE		        Dn5 
	BYTE	W06
	BYTE		        Ds5 
	BYTE	W05
// 036   ----------------------------------------
	BYTE	W01
	BYTE		        Ds4 
	BYTE	W06
	BYTE		        As4 
	BYTE	W06
	BYTE		        Ds5 
	BYTE	W06
	BYTE		        Dn5 
	BYTE	W06
	BYTE		        Dn4 
	BYTE	W06
	BYTE		        An4 
	BYTE	W06
	BYTE		        Dn5 
	BYTE	W06
	BYTE		        Ds5 
	BYTE	W06
	BYTE		        Ds4 
	BYTE	W06
	BYTE		        As4 
	BYTE	W06
	BYTE		        Ds5 
	BYTE	W06
	BYTE		        Fn5 
	BYTE	W06
	BYTE		        Fn4 
	BYTE	W06
	BYTE		        Cn5 
	BYTE	W06
	BYTE		        Fn5 
	BYTE	W06
	BYTE		        Ds5 
	BYTE	W06
	BYTE		        Ds4 
	BYTE	W06
	BYTE		        Fn5 
	BYTE	W06
	BYTE		        Fn4 
	BYTE	W06
	BYTE		        Gn5 
	BYTE	W06
	BYTE		        Gn4 
	BYTE	W06
	BYTE		        Cn5 
	BYTE	W06
	BYTE		        Gn4 
	BYTE	W06
	BYTE		        Fn4 
	BYTE	W05
// 037   ----------------------------------------
	BYTE	W01
	BYTE		        Dn4 
	BYTE	W06
	BYTE		        Cn5 
	BYTE	W06
	BYTE		        Gn4 
	BYTE	W06
	BYTE		        Fn4 
	BYTE	W06
	BYTE		        Dn4 
	BYTE	W06
	BYTE		        Cn4 
	BYTE	W06
	BYTE		        Gn3 
	BYTE	W06
	BYTE		        Fn4 
	BYTE	W06
	BYTE		        Dn4 
	BYTE	W06
	BYTE		        Cn4 
	BYTE	W06
	BYTE		        Gn3 
	BYTE	W06
	BYTE		        Gn4 
	BYTE	W06
	BYTE		        Gs4 
	BYTE	W06
	BYTE		        As4 
	BYTE	W06
	BYTE		        Cn5 
	BYTE	W06
	BYTE		        Dn5 
	BYTE	W06
	BYTE		        Ds5 
	BYTE	W06
	BYTE		        Fn5 
	BYTE	W06
	BYTE		        Gn5 
	BYTE	W06
	BYTE		N48     Gn4 
	BYTE		N48     Cn5 
	BYTE		N48     Gn5 
	BYTE	W28
	BYTE	W01
// 038   ----------------------------------------
	BYTE	W19
	BYTE		N12     Fn4 
	BYTE		N12     As4 
	BYTE		N12     Fn5 
	BYTE	W12
	BYTE		        Ds5 
	BYTE	W12
	BYTE		N48     Ds4 
	BYTE		N48     Cn5 
	BYTE		N48     Ds5 
	BYTE	W48
	BYTE		N24     Cs4 
	BYTE		N24     Cs5 
	BYTE	W24
	BYTE		N48     Cn4 
	BYTE		N48     Cn5 
	BYTE	W28
	BYTE	W01
// 039   ----------------------------------------
	BYTE	W19
	BYTE		N12     As4 
	BYTE	W12
	BYTE		        Fn5 
	BYTE	W12
	BYTE		        Cn5 
	BYTE	W12
	BYTE		        Fn3 
	BYTE		N12     Fn4 
	BYTE	W12
	BYTE		        Gn3 
	BYTE		N12     Gn4 
	BYTE	W12
	BYTE		        Gs3 
	BYTE		N12     Gs4 
	BYTE	W12
	BYTE		        As3 
	BYTE		N12     As4 
	BYTE	W12
	BYTE		        Cn4 
	BYTE		N12     Cn5 
	BYTE	W12
	BYTE		N48     Gn4 
	BYTE		N48     Cn5 
	BYTE		N48     Gn5 
	BYTE	W28
	BYTE	W01
// 040   ----------------------------------------
	BYTE	W19
	BYTE		N12     Fn4 
	BYTE		N12     As4 
	BYTE		N12     Fn5 
	BYTE	W12
	BYTE		        Gn4 
	BYTE		N12     Ds5 
	BYTE		N12     Gn5 
	BYTE	W12
	BYTE		N24     As4 
	BYTE		N24     Gn5 
	BYTE		N24     As5 
	BYTE	W24
	BYTE		        Gs4 
	BYTE		N24     Fn5 
	BYTE		N24     Gs5 
	BYTE	W24
	BYTE		        Gn4 
	BYTE	W24
	BYTE		N03     As3 
	BYTE		N03     Cs4 
	BYTE		N03     Gn4 
	BYTE	W04
	BYTE		        As3 
	BYTE		N03     Cs4 
	BYTE		N03     Gn4 
	BYTE	W04
	BYTE		        As3 
	BYTE		N03     Cs4 
	BYTE	W01
	BYTE		        Gn4 
	BYTE	W03
	BYTE		N06     As3 
	BYTE		N06     Cs4 
	BYTE		N06     Gn4 
	BYTE	W17
// 041   ----------------------------------------
	BYTE	W07
	BYTE		N03     As3 
	BYTE		N03     Cn4 
	BYTE		N03     Fn4 
	BYTE	W04
	BYTE		        As3 
	BYTE		N03     Cn4 
	BYTE		N03     Fn4 
	BYTE	W04
	BYTE		        As3 
	BYTE		N03     Cn4 
	BYTE		N03     Fn4 
	BYTE	W04
	BYTE		N06     As3 
	BYTE		N06     Cn4 
	BYTE		N06     Fn4 
	BYTE	W24
	BYTE		N03     As3 
	BYTE		N03     Cs4 
	BYTE		N03     Gn4 
	BYTE	W04
	BYTE		        As3 
	BYTE		N03     Cs4 
	BYTE		N03     Gn4 
	BYTE	W04
	BYTE		        As3 
	BYTE		N03     Cs4 
	BYTE	W01
	BYTE		        Gn4 
	BYTE	W03
	BYTE		N06     As3 
	BYTE		N06     Cs4 
	BYTE		N06     Gn4 
	BYTE	W24
	BYTE		N03     As3 
	BYTE		N03     Cn4 
	BYTE		N03     Fn4 
	BYTE	W04
	BYTE		        As3 
	BYTE		N03     Cn4 
	BYTE		N03     Fn4 
	BYTE	W04
	BYTE		        As3 
	BYTE		N03     Cn4 
	BYTE		N03     Fn4 
	BYTE	W04
	BYTE		N06     As3 
	BYTE		N06     Cn4 
	BYTE		N06     Fn4 
	BYTE	W24
	BYTE		N12   
	BYTE		N12     An4 
	BYTE		N12     Dn5 
	BYTE		N12     Fn5 
	BYTE	W12
	BYTE		        En4 
	BYTE		N12     En5 
	BYTE	W12
	BYTE		        Dn4 
	BYTE		N12     Dn5 
	BYTE	W05
// 042   ----------------------------------------
	BYTE	W07
	BYTE		N24     Cn4 
	BYTE	W02
	BYTE		N22     Dn4 
	BYTE		N22     Fn4 
	BYTE	W01
	BYTE		N21     Cn5 
	BYTE	W21
	BYTE		N12     As3 
	BYTE		N12     As4 
	BYTE	W12
	BYTE		N48     Cn4 
	BYTE		N48     Cn5 
	BYTE	W48
	BYTE		N24     Fn3 
	BYTE		N24     Fn4 
	BYTE	W24
	BYTE		N12     Cn4 
	BYTE		N12     Dn4 
	BYTE	W02
	BYTE		N10     Gn4 
	BYTE	W01
	BYTE		N09     Cn5 
	BYTE	W09
	BYTE		N12     As3 
	BYTE		N12     As4 
	BYTE	W12
	BYTE		        An3 
	BYTE		N12     An4 
	BYTE	W05
// 043   ----------------------------------------
	BYTE	W07
	BYTE		N24     Fn3 
	BYTE		N24     Fn4 
	BYTE	W24
	BYTE		N12     Dn3 
	BYTE		N12     Dn4 
	BYTE	W12
	BYTE		N24     An3 
	BYTE		N24     Cs4 
	BYTE	W02
	BYTE		N22     En4 
	BYTE	W01
	BYTE		N20     An4 
	BYTE	W21
	BYTE		N24     Dn4 
	BYTE	W24
	BYTE		N12     An3 
	BYTE		N12     An4 
	BYTE	W12
	BYTE		        As3 
	BYTE		N12     As4 
	BYTE	W12
	BYTE		        An3 
	BYTE		N12     Dn4 
	BYTE	W03
	BYTE		N09     An4 
	BYTE	W09
	BYTE		N12     Gn3 
	BYTE		N12     Gn4 
	BYTE	W12
	BYTE		        Fs3 
	BYTE		N12     Fs4 
	BYTE	W05
// 044   ----------------------------------------
	BYTE	W07
	BYTE		        Gn3 
	BYTE		N12     Gn4 
	BYTE	W12
	BYTE		        As3 
	BYTE		N12     As4 
	BYTE	W12
	BYTE		        An3 
	BYTE		N12     An4 
	BYTE	W12
	BYTE		N24     Gn3 
	BYTE		N24     An3 
	BYTE	W02
	BYTE		N22     Cs4 
	BYTE	W01
	BYTE		N21     Gn4 
	BYTE	W21
	BYTE		N36     Fn3 
	BYTE		N36     Fn4 
	BYTE	W36
	BYTE		N12     En3 
	BYTE		N12     En4 
	BYTE	W12
	BYTE		N24     Dn3 
	BYTE		N24     Fn3 
	BYTE		N24     An3 
	BYTE		N24     Dn4 
	BYTE	W24
	BYTE		N36     En3 
	BYTE		N36     En4 
	BYTE	W05
// 045   ----------------------------------------
	BYTE	W30
	BYTE	W01
	BYTE		N12     Fn3 
	BYTE		N12     Fn4 
	BYTE	W12
	BYTE		N24     Gn3 
	BYTE		N24     Bn3 
	BYTE		N24     Dn4 
	BYTE		N24     Gn4 
	BYTE	W24
	BYTE		N48     An3 
	BYTE		N48     An4 
	BYTE	W48
	BYTE		N12     Fn4 
	BYTE		N12     An4 
	BYTE	W02
	BYTE		N10     Dn5 
	BYTE	W01
	BYTE		N09     Fn5 
	BYTE	W09
	BYTE		N12     Gn4 
	BYTE		N12     En5 
	BYTE	W12
	BYTE		        Fn4 
	BYTE		N12     Dn5 
	BYTE	W05
// 046   ----------------------------------------
	BYTE	W07
	BYTE		N24     Dn4 
	BYTE	W02
	BYTE		N22     Fn4 
	BYTE	W01
	BYTE		N21     Cn5 
	BYTE	W21
	BYTE		N12     En4 
	BYTE		N12     As4 
	BYTE	W12
	BYTE		N48     Cn4 
	BYTE	W02
	BYTE		N44     Gn4 
	BYTE	W01
	BYTE		        Cn5 
	BYTE	W44
	BYTE	W01
	BYTE		N24     Cn4 
	BYTE		N24     Fn4 
	BYTE	W24
	BYTE		N12     Dn4 
	BYTE	W02
	BYTE		N10     Gn4 
	BYTE	W01
	BYTE		N09     Cn5 
	BYTE	W09
	BYTE		N12     As3 
	BYTE		N12     As4 
	BYTE	W12
	BYTE		        Dn4 
	BYTE		N12     An4 
	BYTE	W05
// 047   ----------------------------------------
	BYTE	W07
	BYTE		N24     Dn4 
	BYTE		N24     Fn4 
	BYTE	W24
	BYTE		N12     Dn4 
	BYTE	W12
	BYTE		N24     Cs4 
	BYTE	W02
	BYTE		N22     En4 
	BYTE	W01
	BYTE		N20     An4 
	BYTE	W21
	BYTE		N24     Dn4 
	BYTE	W24
	BYTE		N12   
	BYTE		N12     An4 
	BYTE	W12
	BYTE		        As4 
	BYTE	W12
	BYTE		        As3 
	BYTE	W02
	BYTE		N10     Dn4 
	BYTE	W01
	BYTE		N09     An4 
	BYTE	W09
	BYTE		N12     Gn4 
	BYTE	W12
	BYTE		        En4 
	BYTE		N12     Fs4 
	BYTE	W05
// 048   ----------------------------------------
	BYTE	W07
	BYTE		        Dn4 
	BYTE		N12     Gn4 
	BYTE	W12
	BYTE		        As4 
	BYTE	W12
	BYTE		        An4 
	BYTE	W12
	BYTE		N24     Dn4 
	BYTE		N24     Gn4 
	BYTE	W24
	BYTE		N36     Cs4 
	BYTE		N36     Fn4 
	BYTE	W36
	BYTE		N12     En4 
	BYTE	W12
	BYTE		N72     Fn3 
	BYTE		N72     An3 
	BYTE		N72     Dn4 
	BYTE	W28
	BYTE	W01
// 049   ----------------------------------------
	BYTE	W42
	BYTE	W01
	BYTE		N48     Dn3 
	BYTE		N48     Fn3 
	BYTE		N48     As3 
	BYTE	W72
	BYTE		N12     Dn3 
	BYTE		N12     Fn3 
	BYTE		N12     An3 
	BYTE	W12
	BYTE		N03     Dn3 
	BYTE		N03     Fn3 
	BYTE		N03     An3 
	BYTE	W04
	BYTE		        Dn3 
	BYTE		N03     Fn3 
	BYTE		N03     An3 
	BYTE	W05
	BYTE		        Dn3 
	BYTE		N03     Fn3 
	BYTE		N03     An3 
	BYTE	W03
	BYTE		N12     Dn3 
	BYTE		N12     Fn3 
	BYTE		N12     An3 
	BYTE	W05
// 050   ----------------------------------------
	BYTE	W07
	BYTE		        Dn3 
	BYTE		N12     Fn3 
	BYTE		N12     An3 
	BYTE	W36
	BYTE		        Dn3 
	BYTE		N12     Fn3 
	BYTE		N12     Gn3 
	BYTE	W12
	BYTE		N03     Dn3 
	BYTE		N03     Fn3 
	BYTE		N03     Gn3 
	BYTE	W04
	BYTE		        Dn3 
	BYTE		N03     Fn3 
	BYTE		N03     Gn3 
	BYTE	W04
	BYTE		N03   
	BYTE	W01
	BYTE		        Dn3 
	BYTE		N03     Fn3 
	BYTE	W03
	BYTE		N12     Dn3 
	BYTE		N12     Fn3 
	BYTE		N12     Gn3 
	BYTE	W12
	BYTE		        Dn3 
	BYTE		N12     Fn3 
	BYTE		N12     Gn3 
	BYTE	W36
	BYTE	GoTo
	 POIN2	ThornInYou(Roar)_1_B1
ThornInYou(Roar)_1_B2:
	BYTE	FINE

//**************** Track 2 (Midi-Chn.2) ****************//

ThornInYou(Roar)_2:
	BYTE		VOL     127*ThornInYou(Roar)_mvl/mxv
	BYTE	KEYSH   ThornInYou(Roar)_key+0
ThornInYou(Roar)_2_B1:
// 000   ----------------------------------------
	BYTE		VOICE   1
	BYTE	W01
	BYTE		N12     Dn0   v092
	BYTE		N12     Dn1 
	BYTE	W12
	BYTE		N03     An1 
	BYTE	W04
	BYTE		N04     Dn2 
	BYTE	W05
	BYTE		N03     Fn2 
	BYTE	W03
	BYTE		        An2 
	BYTE	W04
	BYTE		N04     Fn2 
	BYTE	W05
	BYTE		N03     Dn2 
	BYTE	W03
	BYTE		        Gn2 
	BYTE	W04
	BYTE		N04     Dn2 
	BYTE	W05
	BYTE		N03     An1 
	BYTE	W03
	BYTE		        Fn2 
	BYTE	W04
	BYTE		N04     Dn2 
	BYTE	W05
	BYTE		N03     An1 
	BYTE	W03
	BYTE		N12     Dn1   v080
	BYTE	W12
	BYTE		        Dn0   v092
	BYTE		N12     Dn1 
	BYTE	W12
	BYTE		N03     An1 
	BYTE	W04
	BYTE		        Dn2 
	BYTE	W04
	BYTE		        Fn2 
	BYTE	W04
	BYTE		        An2 
	BYTE	W04
	BYTE		        Fn2 
	BYTE	W04
	BYTE		        Dn2 
	BYTE	W04
	BYTE		        Gn2 
	BYTE	W04
	BYTE		        Dn2 
	BYTE	W04
	BYTE		        An1 
	BYTE	W04
	BYTE		        Cn1 
	BYTE	W04
	BYTE		        Gn1 
	BYTE	W04
	BYTE		        Cn2 
	BYTE	W04
	BYTE		N12     En2 
	BYTE	W11
// 001   ----------------------------------------
	BYTE	W01
	BYTE		        AsM1
	BYTE		N12     As0 
	BYTE	W12
	BYTE		N03     As1 
	BYTE	W04
	BYTE		        Dn2 
	BYTE	W04
	BYTE		        Fn2 
	BYTE	W04
	BYTE		        As2 
	BYTE	W04
	BYTE		        Fn2 
	BYTE	W04
	BYTE		        Dn2 
	BYTE	W04
	BYTE		        Gn2 
	BYTE	W04
	BYTE		        Dn2 
	BYTE	W04
	BYTE		        As1 
	BYTE	W04
	BYTE		        Fn2 
	BYTE	W04
	BYTE		        Dn2 
	BYTE	W04
	BYTE		        As1 
	BYTE	W04
	BYTE		N12     As0   v080
	BYTE	W12
	BYTE		        AsM1  v092
	BYTE		N12     As0 
	BYTE	W12
	BYTE		N03     As1 
	BYTE	W04
	BYTE		        Dn2 
	BYTE	W04
	BYTE		        Fn2 
	BYTE	W04
	BYTE		        As2 
	BYTE	W04
	BYTE		        Fn2 
	BYTE	W04
	BYTE		        Dn2 
	BYTE	W04
	BYTE		        Gn2 
	BYTE	W04
	BYTE		        Dn2 
	BYTE	W04
	BYTE		        Fn1 
	BYTE	W04
	BYTE		        As0 
	BYTE	W04
	BYTE		        Fn1 
	BYTE	W04
	BYTE		        As1 
	BYTE	W04
	BYTE		N12     Dn2 
	BYTE	W11
// 002   ----------------------------------------
	BYTE	W01
	BYTE		        Cn1 
	BYTE	W12
	BYTE		N03     Cn2 
	BYTE	W04
	BYTE		        En2 
	BYTE	W04
	BYTE		        Gn2 
	BYTE	W04
	BYTE		        Cn3 
	BYTE	W04
	BYTE		        Gn2 
	BYTE	W04
	BYTE		        En2 
	BYTE	W04
	BYTE		        An2 
	BYTE	W04
	BYTE		        En2 
	BYTE	W04
	BYTE		        Cn2 
	BYTE	W04
	BYTE		        Gn2 
	BYTE	W04
	BYTE		        En2 
	BYTE	W04
	BYTE		        Cn2 
	BYTE	W04
	BYTE		N12     Cn1   v080
	BYTE	W12
	BYTE		        Cn1   v092
	BYTE	W12
	BYTE		N03     Cn2 
	BYTE	W04
	BYTE		        En2 
	BYTE	W04
	BYTE		        Gn2 
	BYTE	W04
	BYTE		        Cn3 
	BYTE	W04
	BYTE		        Gn2 
	BYTE	W04
	BYTE		        En2 
	BYTE	W04
	BYTE		        An2 
	BYTE	W04
	BYTE		        En2 
	BYTE	W04
	BYTE		        Gn1 
	BYTE	W04
	BYTE		        Cn1 
	BYTE	W04
	BYTE		        Gn1 
	BYTE	W04
	BYTE		        Cn2 
	BYTE	W04
	BYTE		N12     En2 
	BYTE	W11
// 003   ----------------------------------------
	BYTE	W01
	BYTE		        An0 
	BYTE	W12
	BYTE		N03     An1 
	BYTE	W04
	BYTE		        Cn2 
	BYTE	W04
	BYTE		        En2 
	BYTE	W04
	BYTE		        An2 
	BYTE	W04
	BYTE		        En2 
	BYTE	W04
	BYTE		        Cn2 
	BYTE	W04
	BYTE		        Gn2 
	BYTE	W04
	BYTE		        Cn2 
	BYTE	W04
	BYTE		        An1 
	BYTE	W04
	BYTE		        En2 
	BYTE	W04
	BYTE		        Cn2 
	BYTE	W04
	BYTE		        An1 
	BYTE	W04
	BYTE		N12     An0   v080
	BYTE	W12
	BYTE		        An0   v092
	BYTE	W12
	BYTE		N03     An1 
	BYTE	W04
	BYTE		        Cn2 
	BYTE	W04
	BYTE		        En2 
	BYTE	W04
	BYTE		        An2 
	BYTE	W04
	BYTE		        En2 
	BYTE	W04
	BYTE		        Cn2 
	BYTE	W04
	BYTE		        Gn2 
	BYTE	W04
	BYTE		        Cn2 
	BYTE	W04
	BYTE		        An1 
	BYTE	W04
	BYTE		        En1 
	BYTE	W04
	BYTE		        An1 
	BYTE	W04
	BYTE		        Cn2 
	BYTE	W04
	BYTE		        En2 
	BYTE	W04
	BYTE		N04     Cn2 
	BYTE	W05
	BYTE		N03     An1 
	BYTE	W02
// 004   ----------------------------------------
	BYTE	W01
	BYTE		N12     Dn1 
	BYTE		N12     Dn2 
	BYTE	W12
	BYTE		N03   
	BYTE	W04
	BYTE		        Fn2 
	BYTE	W04
	BYTE		        An2 
	BYTE	W04
	BYTE		N24     Dn3 
	BYTE		N12     Fn3 
	BYTE	W12
	BYTE		        An2 
	BYTE	W12
	BYTE		        Dn2 
	BYTE		N12     Fn2 
	BYTE	W12
	BYTE		N03     An2 
	BYTE	W04
	BYTE		N04     Fn2 
	BYTE	W04
	BYTE		N03     An1 
	BYTE	W04
	BYTE		N12     Dn1 
	BYTE		N12     Dn2 
	BYTE	W12
	BYTE		N03   
	BYTE	W04
	BYTE		        Fn2 
	BYTE	W04
	BYTE		        An2 
	BYTE	W04
	BYTE		        Dn3 
	BYTE	W04
	BYTE		N04     An2 
	BYTE	W05
	BYTE		N03     Fn2 
	BYTE	W03
	BYTE		        An2 
	BYTE	W04
	BYTE		N04     Fn2 
	BYTE	W05
	BYTE		N03     Dn2 
	BYTE	W03
	BYTE		        Fn2 
	BYTE	W04
	BYTE		N04     Dn2 
	BYTE	W05
	BYTE		N03     An1 
	BYTE	W03
	BYTE		N12     Dn1 
	BYTE		N12     Dn2 
	BYTE	W11
// 005   ----------------------------------------
	BYTE	W01
	BYTE		        Cn1 
	BYTE		N12     Cn2 
	BYTE	W12
	BYTE		N03   
	BYTE	W04
	BYTE		        En2 
	BYTE	W04
	BYTE		        Gn2 
	BYTE	W04
	BYTE		N12     Cn3 
	BYTE		N12     En3 
	BYTE	W12
	BYTE		        Gn2 
	BYTE		N12     Cn3 
	BYTE	W12
	BYTE		        Cn2 
	BYTE		N12     En2 
	BYTE	W12
	BYTE		N03     Gn2 
	BYTE	W04
	BYTE		        En2 
	BYTE	W04
	BYTE		        Gn1 
	BYTE	W04
	BYTE		N12     Cn1 
	BYTE		N12     Cn2 
	BYTE	W12
	BYTE		N03   
	BYTE	W04
	BYTE		        En2 
	BYTE	W04
	BYTE		        Gn2 
	BYTE	W04
	BYTE		        Cn3 
	BYTE	W04
	BYTE		        Gn2 
	BYTE	W04
	BYTE		        En2 
	BYTE	W04
	BYTE		        Gn2 
	BYTE	W04
	BYTE		        En2 
	BYTE	W04
	BYTE		        Cn2 
	BYTE	W04
	BYTE		        En2 
	BYTE	W04
	BYTE		        Cn2 
	BYTE	W04
	BYTE		        Gn1 
	BYTE	W04
	BYTE		N12     Cn1 
	BYTE		N12     Cn2 
	BYTE	W11
// 006   ----------------------------------------
	BYTE	W01
	BYTE		        As0 
	BYTE		N12     As1 
	BYTE	W12
	BYTE		N03   
	BYTE	W04
	BYTE		        Dn2 
	BYTE	W04
	BYTE		        Fn2 
	BYTE	W04
	BYTE		N12     As2 
	BYTE		N12     Dn3 
	BYTE	W12
	BYTE		        Fn2 
	BYTE		N12     As2 
	BYTE	W12
	BYTE		        As1 
	BYTE		N12     Dn2 
	BYTE	W12
	BYTE		N03     Fn2 
	BYTE	W04
	BYTE		        Dn2 
	BYTE	W04
	BYTE		        Fn1 
	BYTE	W04
	BYTE		N12     Gn0 
	BYTE		N12     Gn1 
	BYTE	W12
	BYTE		N03   
	BYTE	W04
	BYTE		        As1 
	BYTE	W04
	BYTE		        Dn2 
	BYTE	W04
	BYTE		        Gn2 
	BYTE	W04
	BYTE		        Dn2 
	BYTE	W04
	BYTE		        As1 
	BYTE	W04
	BYTE		        Dn2 
	BYTE	W04
	BYTE		        As1 
	BYTE	W04
	BYTE		        Gn1 
	BYTE	W04
	BYTE		        As1 
	BYTE	W04
	BYTE		        Gn1 
	BYTE	W04
	BYTE		        Dn1 
	BYTE	W04
	BYTE		N12     Gn0 
	BYTE		N12     Gn1 
	BYTE	W11
// 007   ----------------------------------------
	BYTE	W01
	BYTE		        An0 
	BYTE		N12     An1 
	BYTE	W12
	BYTE		N03   
	BYTE	W04
	BYTE		        Cn2 
	BYTE	W04
	BYTE		        En2 
	BYTE	W04
	BYTE		N12     An2 
	BYTE		N12     Cn3 
	BYTE	W12
	BYTE		        En2 
	BYTE		N12     An2 
	BYTE	W12
	BYTE		        An1 
	BYTE		N12     Cn2 
	BYTE	W12
	BYTE		N03     En2 
	BYTE	W04
	BYTE		        Cn2 
	BYTE	W04
	BYTE		        En1 
	BYTE	W04
	BYTE		N12     An0 
	BYTE		N12     An1 
	BYTE	W12
	BYTE		N03   
	BYTE	W04
	BYTE		        Cn2 
	BYTE	W04
	BYTE		        En2 
	BYTE	W04
	BYTE		        An2 
	BYTE	W04
	BYTE		        En2 
	BYTE	W04
	BYTE		        Cn2 
	BYTE	W04
	BYTE		        En2 
	BYTE	W04
	BYTE		        Cn2 
	BYTE	W04
	BYTE		        An1 
	BYTE	W04
	BYTE		        Cn2 
	BYTE	W04
	BYTE		        An1 
	BYTE	W04
	BYTE		        En1 
	BYTE	W04
	BYTE		N12     An0 
	BYTE		N12     An1 
	BYTE	W11
// 008   ----------------------------------------
	BYTE	W01
	BYTE		        Dn1 
	BYTE		N12     Dn2 
	BYTE	W12
	BYTE		N03   
	BYTE	W04
	BYTE		        Fn2 
	BYTE	W04
	BYTE		        An2 
	BYTE	W04
	BYTE		N12     Dn3 
	BYTE		N12     Fn3 
	BYTE	W12
	BYTE		N03     An2 
	BYTE	W04
	BYTE		        Dn2 
	BYTE	W04
	BYTE		        An1 
	BYTE	W04
	BYTE		N12     Dn2 
	BYTE		N12     Fn2 
	BYTE	W12
	BYTE		N03     An2 
	BYTE	W04
	BYTE		        Fn2 
	BYTE	W04
	BYTE		        An1 
	BYTE	W04
	BYTE		N12     Dn1 
	BYTE		N12     Dn2 
	BYTE	W12
	BYTE		N03   
	BYTE	W04
	BYTE		        Fn2 
	BYTE	W04
	BYTE		        An2 
	BYTE	W04
	BYTE		        Dn3 
	BYTE	W04
	BYTE		        An2 
	BYTE	W04
	BYTE		        Fn2 
	BYTE	W04
	BYTE		        An2 
	BYTE	W04
	BYTE		        Fn2 
	BYTE	W04
	BYTE		        Dn2 
	BYTE	W04
	BYTE		        Fn2 
	BYTE	W04
	BYTE		        Dn2 
	BYTE	W04
	BYTE		        An1 
	BYTE	W04
	BYTE		N12     Dn1 
	BYTE		N12     Dn2 
	BYTE	W11
// 009   ----------------------------------------
	BYTE	W01
	BYTE		        Cn1 
	BYTE		N12     Cn2 
	BYTE	W12
	BYTE		N03   
	BYTE	W04
	BYTE		        En2 
	BYTE	W04
	BYTE		        Gn2 
	BYTE	W04
	BYTE		N12     Cn3 
	BYTE		N12     En3 
	BYTE	W12
	BYTE		N03     Gn2 
	BYTE	W04
	BYTE		N04     Cn2 
	BYTE	W05
	BYTE		N03     Gn1 
	BYTE	W03
	BYTE		N12     Cn2 
	BYTE		N12     En2 
	BYTE	W12
	BYTE		N03     Gn2 
	BYTE	W04
	BYTE		        En2 
	BYTE	W04
	BYTE		        Gn1 
	BYTE	W04
	BYTE		N12     Cn1 
	BYTE		N12     Cn2 
	BYTE	W12
	BYTE		N03   
	BYTE	W04
	BYTE		        En2 
	BYTE	W04
	BYTE		        Gn2 
	BYTE	W04
	BYTE		        Cn3 
	BYTE	W04
	BYTE		        Gn2 
	BYTE	W04
	BYTE		        En2 
	BYTE	W04
	BYTE		        Gn2 
	BYTE	W04
	BYTE		        En2 
	BYTE	W04
	BYTE		        Cn2 
	BYTE	W04
	BYTE		        En2 
	BYTE	W04
	BYTE		        Cn2 
	BYTE	W04
	BYTE		        Gn1 
	BYTE	W04
	BYTE		N12     Cn1 
	BYTE		N12     Cn2 
	BYTE	W11
// 010   ----------------------------------------
	BYTE	W01
	BYTE		        As0 
	BYTE		N12     As1 
	BYTE	W12
	BYTE		N03   
	BYTE	W04
	BYTE		        Dn2 
	BYTE	W04
	BYTE		        Fn2 
	BYTE	W04
	BYTE		N12     As2 
	BYTE		N12     Dn3 
	BYTE	W12
	BYTE		N03     Fn2 
	BYTE	W04
	BYTE		        As1 
	BYTE	W05
	BYTE		        Fn1 
	BYTE	W03
	BYTE		N12     As1 
	BYTE		N12     Dn2 
	BYTE	W12
	BYTE		N03     Fn2 
	BYTE	W04
	BYTE		        Dn2 
	BYTE	W04
	BYTE		        Fn1 
	BYTE	W04
	BYTE		N12     Gn0 
	BYTE		N12     Gn1 
	BYTE	W12
	BYTE		N03   
	BYTE	W04
	BYTE		        As1 
	BYTE	W04
	BYTE		        Dn2 
	BYTE	W04
	BYTE		        Gn2 
	BYTE	W04
	BYTE		        Dn2 
	BYTE	W04
	BYTE		        As1 
	BYTE	W04
	BYTE		        Dn2 
	BYTE	W04
	BYTE		        As1 
	BYTE	W04
	BYTE		        Gn1 
	BYTE	W04
	BYTE		        As1 
	BYTE	W04
	BYTE		        Gn1 
	BYTE	W04
	BYTE		        Dn1 
	BYTE	W04
	BYTE		N12     Gn0 
	BYTE		N12     Gn1 
	BYTE	W11
// 011   ----------------------------------------
	BYTE	W01
	BYTE		        An0 
	BYTE		N12     An1 
	BYTE	W12
	BYTE		N03   
	BYTE	W04
	BYTE		        Cn2 
	BYTE	W04
	BYTE		        En2 
	BYTE	W04
	BYTE		N12     An2 
	BYTE		N12     Cn3 
	BYTE	W12
	BYTE		N03     En2 
	BYTE	W04
	BYTE		N04     An1 
	BYTE	W05
	BYTE		N03     En1 
	BYTE	W03
	BYTE		N12     An1 
	BYTE		N12     Cn2 
	BYTE	W12
	BYTE		N03     En2 
	BYTE	W04
	BYTE		        Cn2 
	BYTE	W04
	BYTE		        En1 
	BYTE	W04
	BYTE		N12     Gn0 
	BYTE		N12     Gn1 
	BYTE	W12
	BYTE		N03   
	BYTE	W04
	BYTE		        As1 
	BYTE	W04
	BYTE		        Dn2 
	BYTE	W04
	BYTE		        Gn2 
	BYTE	W04
	BYTE		        Dn2 
	BYTE	W04
	BYTE		        As1 
	BYTE	W04
	BYTE		        Dn2 
	BYTE	W04
	BYTE		        As1 
	BYTE	W04
	BYTE		        Gn1 
	BYTE	W04
	BYTE		        Cn1 
	BYTE	W04
	BYTE		N04     Gn1 
	BYTE	W05
	BYTE		N03     Cn2 
	BYTE	W03
	BYTE		N12     En2 
	BYTE		N12     Gn2 
	BYTE	W11
// 012   ----------------------------------------
	BYTE	W01
	BYTE		        Fn1 
	BYTE		N12     Fn2 
	BYTE	W12
	BYTE		N03   
	BYTE	W04
	BYTE		        Gs2 
	BYTE	W04
	BYTE		        Cn3 
	BYTE	W04
	BYTE		N12     Fn3 
	BYTE		N12     Gs3 
	BYTE	W12
	BYTE		N03     Cn3 
	BYTE	W04
	BYTE		N04     Fn2 
	BYTE	W05
	BYTE		N03     Cn2 
	BYTE	W03
	BYTE		N12     Fn2 
	BYTE		N12     Gs2 
	BYTE	W12
	BYTE		N03     Cn3 
	BYTE	W04
	BYTE		        Gs2 
	BYTE	W04
	BYTE		        Cn2 
	BYTE	W04
	BYTE		N12     Ds1 
	BYTE		N12     Ds2 
	BYTE	W12
	BYTE		N03   
	BYTE	W04
	BYTE		        Gn2 
	BYTE	W04
	BYTE		        As2 
	BYTE	W04
	BYTE		        Ds3 
	BYTE	W04
	BYTE		        As2 
	BYTE	W04
	BYTE		        Gn2 
	BYTE	W04
	BYTE		        As2 
	BYTE	W04
	BYTE		        Gn2 
	BYTE	W04
	BYTE		        Ds2 
	BYTE	W04
	BYTE		        Gn2 
	BYTE	W04
	BYTE		        Ds2 
	BYTE	W04
	BYTE		        As1 
	BYTE	W04
	BYTE		N12     Ds1 
	BYTE		N12     Ds2 
	BYTE	W11
// 013   ----------------------------------------
	BYTE	W01
	BYTE		        Cs1 
	BYTE		N12     Cs2 
	BYTE	W12
	BYTE		N03   
	BYTE	W04
	BYTE		        Fn2 
	BYTE	W04
	BYTE		        Gs2 
	BYTE	W04
	BYTE		N12     Cs3 
	BYTE		N12     Fn3 
	BYTE	W12
	BYTE		N03     Gs2 
	BYTE	W04
	BYTE		N04     Cs2 
	BYTE	W05
	BYTE		N03     Gs1 
	BYTE	W03
	BYTE		N12     Cs2 
	BYTE		N12     Fn2 
	BYTE	W12
	BYTE		N03     Gs2 
	BYTE	W04
	BYTE		        Fn2 
	BYTE	W04
	BYTE		        Gs1 
	BYTE	W04
	BYTE		N12     Cn1 
	BYTE		N12     Cn2 
	BYTE	W12
	BYTE		N03   
	BYTE	W04
	BYTE		        Ds2 
	BYTE	W04
	BYTE		        Gs2 
	BYTE	W04
	BYTE		        Cn3 
	BYTE	W04
	BYTE		        Gs2 
	BYTE	W04
	BYTE		        Ds2 
	BYTE	W04
	BYTE		        Gs2 
	BYTE	W04
	BYTE		        Ds2 
	BYTE	W04
	BYTE		        Cn2 
	BYTE	W04
	BYTE		        Ds2 
	BYTE	W04
	BYTE		        Cn2 
	BYTE	W04
	BYTE		        Gn1 
	BYTE	W04
	BYTE		N12     Cn1 
	BYTE		N12     Cn2 
	BYTE	W11
// 014   ----------------------------------------
	BYTE	W01
	BYTE		        As0 
	BYTE		N12     As1 
	BYTE	W12
	BYTE		N03   
	BYTE	W04
	BYTE		        Cs2 
	BYTE	W04
	BYTE		        Fn2 
	BYTE	W04
	BYTE		N12     As2 
	BYTE		N12     Cs3 
	BYTE	W12
	BYTE		N03     Fn2 
	BYTE	W04
	BYTE		        As1 
	BYTE	W04
	BYTE		        Fn1 
	BYTE	W04
	BYTE		N12     As1 
	BYTE		N12     Cs2 
	BYTE	W12
	BYTE		N03     Fn2 
	BYTE	W04
	BYTE		        Cs2 
	BYTE	W04
	BYTE		        Fn1 
	BYTE	W04
	BYTE		N12     Gs0 
	BYTE		N12     Gs1 
	BYTE	W12
	BYTE		N03   
	BYTE	W04
	BYTE		        Cn2 
	BYTE	W04
	BYTE		        Fn2 
	BYTE	W04
	BYTE		        An2 
	BYTE	W04
	BYTE		        Fn2 
	BYTE	W04
	BYTE		        Cn2 
	BYTE	W04
	BYTE		        Fn2 
	BYTE	W04
	BYTE		        Cn2 
	BYTE	W04
	BYTE		        Gs1 
	BYTE	W04
	BYTE		        Cn2 
	BYTE	W04
	BYTE		        Gs1 
	BYTE	W04
	BYTE		        Ds1 
	BYTE	W04
	BYTE		N12     Gs0 
	BYTE		N12     Gs1 
	BYTE	W11
// 015   ----------------------------------------
	BYTE	W01
	BYTE		        Gn0 
	BYTE		N12     Gn1 
	BYTE	W12
	BYTE		N03   
	BYTE	W04
	BYTE		        As1 
	BYTE	W04
	BYTE		        Dn2 
	BYTE	W04
	BYTE		N12     Gn2 
	BYTE		N12     As2 
	BYTE	W12
	BYTE		N03     Dn2 
	BYTE	W04
	BYTE		        Gn1 
	BYTE	W04
	BYTE		        Dn1 
	BYTE	W04
	BYTE		N12     Gn1 
	BYTE		N12     As1 
	BYTE	W12
	BYTE		N03     Dn2 
	BYTE	W04
	BYTE		        As1 
	BYTE	W04
	BYTE		        Dn1 
	BYTE	W04
	BYTE		N12     Cn1 
	BYTE		N12     Cn2 
	BYTE	W12
	BYTE		N03   
	BYTE	W04
	BYTE		        En2 
	BYTE	W04
	BYTE		        Gn2 
	BYTE	W04
	BYTE		        Cn3 
	BYTE	W04
	BYTE		        Gn2 
	BYTE	W04
	BYTE		        En2 
	BYTE	W04
	BYTE		        Gn2 
	BYTE	W04
	BYTE		        En2 
	BYTE	W04
	BYTE		        Cn2 
	BYTE	W04
	BYTE		        En2 
	BYTE	W04
	BYTE		        Cn2 
	BYTE	W04
	BYTE		        Gn1 
	BYTE	W04
	BYTE		N12     Cn1 
	BYTE		N12     Cn2 
	BYTE	W11
// 016   ----------------------------------------
	BYTE	W01
	BYTE		        Gs1 
	BYTE		N12     Gs2 
	BYTE	W12
	BYTE		N03   
	BYTE	W04
	BYTE		        Bn2 
	BYTE	W04
	BYTE		        Ds3 
	BYTE	W04
	BYTE		N12     Gs3 
	BYTE		N12     Bn3 
	BYTE	W12
	BYTE		N03     Ds3 
	BYTE	W04
	BYTE		        Gs2 
	BYTE	W04
	BYTE		        Ds2 
	BYTE	W04
	BYTE		N12     Gs2 
	BYTE		N12     Bn2 
	BYTE	W12
	BYTE		        Gs1 
	BYTE		N12     Ds2 
	BYTE	W12
	BYTE		        Fs1 
	BYTE		N12     Fs2 
	BYTE	W12
	BYTE		N03   
	BYTE	W04
	BYTE		        As2 
	BYTE	W04
	BYTE		        Cs3 
	BYTE	W04
	BYTE		N12     Fs3 
	BYTE		N12     As3 
	BYTE	W12
	BYTE		N03     Cs3 
	BYTE	W04
	BYTE		N04     Fs2 
	BYTE	W04
	BYTE		N03     Cs2 
	BYTE	W04
	BYTE		        Fs1 
	BYTE	W04
	BYTE		        Cs2 
	BYTE	W04
	BYTE		        Fs2 
	BYTE	W04
	BYTE		N12     As2 
	BYTE	W11
// 017   ----------------------------------------
	BYTE	W01
	BYTE		        En1 
	BYTE		N12     En2 
	BYTE	W12
	BYTE		N03   
	BYTE	W04
	BYTE		        Gs2 
	BYTE	W04
	BYTE		        Bn2 
	BYTE	W04
	BYTE		N12     En3 
	BYTE		N12     Gs3 
	BYTE	W12
	BYTE		N03     Bn2 
	BYTE	W04
	BYTE		        En2 
	BYTE	W04
	BYTE		        Bn1 
	BYTE	W04
	BYTE		N12     En2 
	BYTE		N12     Gs2 
	BYTE	W12
	BYTE		        En1 
	BYTE		N12     Bn1 
	BYTE	W12
	BYTE		        Ds1 
	BYTE		N12     Ds2 
	BYTE	W12
	BYTE		N03   
	BYTE	W04
	BYTE		        Fs2 
	BYTE	W04
	BYTE		        As2 
	BYTE	W04
	BYTE		N12     Ds3 
	BYTE		N12     Fs3 
	BYTE	W12
	BYTE		N03     As2 
	BYTE	W04
	BYTE		        Ds2 
	BYTE	W04
	BYTE		        As1 
	BYTE	W04
	BYTE		        Ds1 
	BYTE	W04
	BYTE		        As1 
	BYTE	W04
	BYTE		        Ds2 
	BYTE	W04
	BYTE		N12     Fs2 
	BYTE	W11
// 018   ----------------------------------------
	BYTE	W01
	BYTE		        Cs1 
	BYTE		N12     Cs2 
	BYTE	W12
	BYTE		N03   
	BYTE	W04
	BYTE		        En2 
	BYTE	W04
	BYTE		        Gs2 
	BYTE	W04
	BYTE		N12     Cs3 
	BYTE		N12     En3 
	BYTE	W12
	BYTE		N03     Gs2 
	BYTE	W04
	BYTE		        Cs2 
	BYTE	W04
	BYTE		        Gs1 
	BYTE	W04
	BYTE		N12     Cs2 
	BYTE		N12     En2 
	BYTE	W12
	BYTE		        Cs1 
	BYTE		N12     Gs1 
	BYTE	W12
	BYTE		        Bn0 
	BYTE		N12     Bn1 
	BYTE	W12
	BYTE		N03   
	BYTE	W04
	BYTE		        Ds2 
	BYTE	W04
	BYTE		        Fs2 
	BYTE	W04
	BYTE		N12     Bn2 
	BYTE		N12     Ds3 
	BYTE	W12
	BYTE		N03     Fs2 
	BYTE	W04
	BYTE		        Bn1 
	BYTE	W04
	BYTE		        Fs1 
	BYTE	W04
	BYTE		        Bn0 
	BYTE	W04
	BYTE		        Fs1 
	BYTE	W04
	BYTE		        Bn1 
	BYTE	W04
	BYTE		N12     Ds2 
	BYTE	W11
// 019   ----------------------------------------
	BYTE	W01
	BYTE		        As0 
	BYTE		N12     As1 
	BYTE	W12
	BYTE		N03   
	BYTE	W04
	BYTE		        Cs2 
	BYTE	W04
	BYTE		        Fn2 
	BYTE	W04
	BYTE		N12     As2 
	BYTE		N12     Cs3 
	BYTE	W12
	BYTE		N03     Fn2 
	BYTE	W04
	BYTE		        As1 
	BYTE	W04
	BYTE		        Fn1 
	BYTE	W04
	BYTE		N12     As1 
	BYTE		N12     Cs2 
	BYTE	W12
	BYTE		        As0 
	BYTE		N12     Fn1 
	BYTE	W12
	BYTE		        Ds1 
	BYTE		N12     Ds2 
	BYTE	W12
	BYTE		N03   
	BYTE	W04
	BYTE		        Gn2 
	BYTE	W04
	BYTE		        As2 
	BYTE	W04
	BYTE		N12     Ds3 
	BYTE		N12     Gn3 
	BYTE	W12
	BYTE		N03     As2 
	BYTE	W04
	BYTE		        Ds2 
	BYTE	W04
	BYTE		        As1 
	BYTE	W04
	BYTE		        Ds1 
	BYTE	W04
	BYTE		        As1 
	BYTE	W04
	BYTE		        Ds2 
	BYTE	W04
	BYTE		N12     Gn2 
	BYTE	W11
// 020   ----------------------------------------
	BYTE	W01
	BYTE		        En1 
	BYTE		N12     En2 
	BYTE	W12
	BYTE		N03   
	BYTE	W04
	BYTE		N04     Gs2 
	BYTE	W04
	BYTE		N03     Bn2 
	BYTE	W04
	BYTE		N12     En3 
	BYTE	W12
	BYTE		        En2 
	BYTE	W12
	BYTE		N03   
	BYTE	W04
	BYTE		        Gs2 
	BYTE	W04
	BYTE		        Bn2 
	BYTE	W04
	BYTE		N12     En3 
	BYTE	W12
	BYTE		        En1 
	BYTE		N12     En2 
	BYTE	W12
	BYTE		N03   
	BYTE	W04
	BYTE		        Bn2 
	BYTE		N04     En3 
	BYTE	W04
	BYTE		N03     En2 
	BYTE	W04
	BYTE		N12     Bn2 
	BYTE		N12     En3 
	BYTE	W12
	BYTE		        En1 
	BYTE		N12     En2 
	BYTE	W12
	BYTE		N03   
	BYTE	W04
	BYTE		        Bn2 
	BYTE		N04     En3 
	BYTE	W04
	BYTE		N03     En2 
	BYTE	W04
	BYTE		N12     Bn2 
	BYTE		N12     En3 
	BYTE	W11
// 021   ----------------------------------------
ThornInYou(Roar)_2_021:
	BYTE	W01
	BYTE		N12     Cs1   v092
	BYTE		N12     Cs2 
	BYTE	W12
	BYTE		N03   
	BYTE	W04
	BYTE		        En2 
	BYTE	W04
	BYTE		        Gs2 
	BYTE	W04
	BYTE		N12     Cs3 
	BYTE	W12
	BYTE		        Cs2 
	BYTE	W12
	BYTE		N03   
	BYTE	W04
	BYTE		        En2 
	BYTE	W04
	BYTE		        Gs2 
	BYTE	W04
	BYTE		N12     Cs3 
	BYTE	W12
	BYTE		        Cs1 
	BYTE		N12     Cs2 
	BYTE	W12
	BYTE		N03   
	BYTE	W04
	BYTE		        Gs2 
	BYTE		N03     Cs3 
	BYTE	W04
	BYTE		        Cs2 
	BYTE	W04
	BYTE		N12     Gs2 
	BYTE		N12     Cs3 
	BYTE	W12
	BYTE		        Cs1 
	BYTE		N12     Cs2 
	BYTE	W12
	BYTE		N03   
	BYTE	W04
	BYTE		        Gs2 
	BYTE		N03     Cs3 
	BYTE	W04
	BYTE		        Cs2 
	BYTE	W04
	BYTE		N12     Gs2 
	BYTE		N12     Cs3 
	BYTE	W11
	BYTE	PEND
// 022   ----------------------------------------
	BYTE	W01
	BYTE		        Gs0 
	BYTE		N12     Gs1 
	BYTE	W12
	BYTE		N03   
	BYTE	W04
	BYTE		        Bn1 
	BYTE	W04
	BYTE		        Ds2 
	BYTE	W04
	BYTE		N12     Gs2 
	BYTE	W12
	BYTE		        Gs1 
	BYTE	W12
	BYTE		N03   
	BYTE	W04
	BYTE		        Bn1 
	BYTE	W04
	BYTE		        Ds2 
	BYTE	W04
	BYTE		N12     Gs2 
	BYTE	W12
	BYTE		        Gs0 
	BYTE		N12     Gs1 
	BYTE	W12
	BYTE		N03   
	BYTE	W04
	BYTE		        Ds2 
	BYTE		N03     Gs2 
	BYTE	W04
	BYTE		        Gs1 
	BYTE	W04
	BYTE		N12     Ds2 
	BYTE		N12     Gs2 
	BYTE	W12
	BYTE		        Gs0 
	BYTE		N12     Gs1 
	BYTE	W12
	BYTE		N03   
	BYTE	W04
	BYTE		        Ds2 
	BYTE		N03     Gs2 
	BYTE	W04
	BYTE		        Gs1 
	BYTE	W04
	BYTE		N12     Ds2 
	BYTE		N12     Gs2 
	BYTE	W11
// 023   ----------------------------------------
	BYTE	W01
	BYTE		        Bn0 
	BYTE		N12     Bn1 
	BYTE	W12
	BYTE		N03   
	BYTE	W04
	BYTE		        Ds2 
	BYTE	W04
	BYTE		        Fs2 
	BYTE	W04
	BYTE		N12     Bn2 
	BYTE	W12
	BYTE		        Bn1 
	BYTE	W12
	BYTE		N03   
	BYTE	W04
	BYTE		        Ds2 
	BYTE	W04
	BYTE		        Fs2 
	BYTE	W04
	BYTE		N12     Bn2 
	BYTE	W12
	BYTE		        Bn0 
	BYTE		N12     Bn1 
	BYTE	W12
	BYTE		N03   
	BYTE	W04
	BYTE		        Fs2 
	BYTE		N03     Bn2 
	BYTE	W04
	BYTE		        Bn1 
	BYTE	W04
	BYTE		N12     Fs2 
	BYTE		N12     Bn2 
	BYTE	W12
	BYTE		        Bn0 
	BYTE		N12     Bn1 
	BYTE	W12
	BYTE		N03   
	BYTE	W04
	BYTE		        Fs2 
	BYTE		N03     Bn2 
	BYTE	W04
	BYTE		        Bn1 
	BYTE	W04
	BYTE		N12     Fs2 
	BYTE		N12     Bn2 
	BYTE	W11
// 024   ----------------------------------------
	BYTE	W01
	BYTE		        En1 
	BYTE		N12     En2 
	BYTE	W12
	BYTE		N03   
	BYTE	W04
	BYTE		        Gs2 
	BYTE	W04
	BYTE		        Bn2 
	BYTE	W04
	BYTE		N12     En3 
	BYTE	W12
	BYTE		        En2 
	BYTE	W12
	BYTE		N03   
	BYTE	W04
	BYTE		        Gs2 
	BYTE	W04
	BYTE		        Bn2 
	BYTE	W04
	BYTE		N12     En3 
	BYTE	W12
	BYTE		        En1 
	BYTE		N12     En2 
	BYTE	W12
	BYTE		N03   
	BYTE	W04
	BYTE		        Bn2 
	BYTE		N03     En3 
	BYTE	W04
	BYTE		        En2 
	BYTE	W04
	BYTE		N12     Bn2 
	BYTE		N12     En3 
	BYTE	W12
	BYTE		        En1 
	BYTE		N12     En2 
	BYTE	W12
	BYTE		N03   
	BYTE	W04
	BYTE		        Bn2 
	BYTE		N03     En3 
	BYTE	W04
	BYTE		        En2 
	BYTE	W04
	BYTE		N12     Bn2 
	BYTE		N12     En3 
	BYTE	W11
// 025   ----------------------------------------
	BYTE	PATT
	 POIN2	ThornInYou(Roar)_2_021
// 026   ----------------------------------------
	BYTE	W01
	BYTE		N12     Gs0   v092
	BYTE		N12     Gs1 
	BYTE	W12
	BYTE		N03   
	BYTE	W04
	BYTE		        Bn1 
	BYTE	W04
	BYTE		        Ds2 
	BYTE	W16
	BYTE		N12     Gs0 
	BYTE		N12     Gs1 
	BYTE	W12
	BYTE		N03   
	BYTE	W04
	BYTE		        Bn1 
	BYTE	W04
	BYTE		        Ds2 
	BYTE	W16
	BYTE		N12     Gs0 
	BYTE		N12     Gs1 
	BYTE	W12
	BYTE		N03   
	BYTE	W04
	BYTE		        Bn1 
	BYTE	W04
	BYTE		        Ds2 
	BYTE	W16
	BYTE		N12     Gs0 
	BYTE		N12     Gs1 
	BYTE	W12
	BYTE		N03   
	BYTE	W04
	BYTE		        Bn1 
	BYTE	W04
	BYTE		        Ds2 
	BYTE	W15
// 027   ----------------------------------------
	BYTE	W01
	BYTE		N12     Gs0 
	BYTE		N12     Gs1 
	BYTE	W12
	BYTE		N03   
	BYTE	W04
	BYTE		        Ds2 
	BYTE		N03     Gs2 
	BYTE	W04
	BYTE		        Gs1 
	BYTE	W04
	BYTE		N12     Ds2 
	BYTE		N12     Gs2 
	BYTE	W12
	BYTE		        Gs0 
	BYTE		N12     Gs1 
	BYTE	W12
	BYTE		N03   
	BYTE	W04
	BYTE		        Ds2 
	BYTE		N03     Gs2 
	BYTE	W04
	BYTE		        Gs1 
	BYTE	W04
	BYTE		N12     Ds2 
	BYTE		N12     Gs2 
	BYTE	W12
	BYTE		        Gs0 
	BYTE		N12     Gs1 
	BYTE	W12
	BYTE		N03   
	BYTE	W04
	BYTE		        Ds2 
	BYTE		N03     Gs2 
	BYTE	W04
	BYTE		        Gs1 
	BYTE	W04
	BYTE		N12     Ds2 
	BYTE		N12     Gs2 
	BYTE	W12
	BYTE		        Gs1 
	BYTE		N12     Ds2 
	BYTE		N12     Gs2 
	BYTE	W12
	BYTE		N06     Gs0 
	BYTE		N06     Gs1 
	BYTE	W06
	BYTE		N06   
	BYTE	W06
	BYTE		        Gs0 
	BYTE		N06     Gs1 
	BYTE	W06
	BYTE		N06   
	BYTE	W05
// 028   ----------------------------------------
	BYTE	W01
	BYTE		N24     Gs0 
	BYTE		N24     Gs1 
	BYTE	W24
	BYTE		N12     Gs0 
	BYTE		N12     Gs1 
	BYTE	W12
	BYTE		N24     Fn1 
	BYTE	W24
	BYTE		        Fn0 
	BYTE		N24     Fn1 
	BYTE	W24
	BYTE		N12   
	BYTE	W12
	BYTE		N24   
	BYTE	W24
	BYTE		N42     Fn0 
	BYTE		N42     Fn1 
	BYTE	W23
// 029   ----------------------------------------
	BYTE	W48
// 030   ----------------------------------------
	BYTE	W19
	BYTE		N02     Gn4   v080
	BYTE	W03
	BYTE		N03     Gs4 
	BYTE	W03
	BYTE		N02     Gn4 
	BYTE	W03
	BYTE		N03     Fn4 
	BYTE	W15
	BYTE		N02     Gn3 
	BYTE	W03
	BYTE		        Gs3 
	BYTE	W02
// 031   ----------------------------------------
	BYTE	W01
	BYTE		        Gn3 
	BYTE	W03
	BYTE		        Fn3 
	BYTE	W15
	BYTE		        Gn2 
	BYTE	W03
	BYTE		        Gs2 
	BYTE	W03
	BYTE		        Gn2 
	BYTE	W03
	BYTE		        Fn2 
	BYTE	W15
	BYTE		N03     Dn1   v092
	BYTE	W04
	BYTE		N28     An1 
	BYTE	W24
	BYTE	W01
// 032   ----------------------------------------
	BYTE	W04
	BYTE		N03     Dn2 
	BYTE	W03
	BYTE		N12     Fn2 
	BYTE	W12
	BYTE		N03     Dn1 
	BYTE	W04
	BYTE		N24     An1 
	BYTE	W24
	BYTE	W01
// 033   ----------------------------------------
	BYTE	W03
	BYTE		N03     Dn2 
	BYTE	W04
	BYTE		N12     Fn2 
	BYTE	W12
	BYTE		N03     Dn1 
	BYTE	W04
	BYTE		        An1 
	BYTE	W04
	BYTE		        Dn2 
	BYTE	W04
	BYTE		N12     Fn2 
	BYTE	W12
	BYTE		N03     Ds1 
	BYTE	W04
	BYTE		        As1 
	BYTE	W04
	BYTE		        Ds2 
	BYTE	W04
	BYTE		N12     Gn2 
	BYTE	W12
	BYTE		N03     Ds1 
	BYTE	W04
	BYTE		N72     As1 
	BYTE	W72
	BYTE	W01
// 034   ----------------------------------------
	BYTE	W03
	BYTE		N03     Ds2 
	BYTE	W04
	BYTE		N12     Gn2 
	BYTE	W12
	BYTE		N03     Ds1 
	BYTE	W04
	BYTE		        As1 
	BYTE	W04
	BYTE		        Ds2 
	BYTE	W04
	BYTE		N12     Gn2 
	BYTE	W12
	BYTE		N03     Fn1 
	BYTE	W04
	BYTE		        Cn2 
	BYTE	W04
	BYTE		        Fn2 
	BYTE	W04
	BYTE		N12     An2 
	BYTE	W12
	BYTE		N03     Fn1 
	BYTE	W04
	BYTE		        Cn2 
	BYTE	W01
// 035   ----------------------------------------
	BYTE	W03
	BYTE		        Fn2 
	BYTE	W04
	BYTE		N12     An2 
	BYTE	W12
	BYTE		N03     Fn1 
	BYTE	W04
	BYTE		        Cn2 
	BYTE	W04
	BYTE		        Fn2 
	BYTE	W04
	BYTE		N12     An2 
	BYTE	W12
	BYTE		N03     Gn1 
	BYTE	W04
	BYTE		        Dn2 
	BYTE	W04
	BYTE		        Gn2 
	BYTE	W04
	BYTE		N12     As2 
	BYTE	W12
	BYTE		N03     Gn1 
	BYTE	W04
	BYTE		        Dn2 
	BYTE	W04
	BYTE		        Gn2 
	BYTE	W04
	BYTE		N12     As2 
	BYTE	W12
	BYTE		N03     Gn1 
	BYTE	W04
	BYTE		        Dn2 
	BYTE	W04
	BYTE		        Gn2 
	BYTE	W04
	BYTE		N12     As2 
	BYTE	W12
	BYTE		N03     Gs1 
	BYTE	W04
	BYTE		        Ds2 
	BYTE	W04
	BYTE		        Gs2 
	BYTE	W04
	BYTE		N12     Cn3 
	BYTE	W12
	BYTE		N03     Gs1 
	BYTE	W04
	BYTE		        Ds2 
	BYTE	W01
// 036   ----------------------------------------
	BYTE	W03
	BYTE		        Gs2 
	BYTE	W04
	BYTE		N12     Cn3 
	BYTE	W12
	BYTE		N03     Gs1 
	BYTE	W04
	BYTE		        Ds2 
	BYTE	W04
	BYTE		        Gs2 
	BYTE	W04
	BYTE		N12     Cn3 
	BYTE	W12
	BYTE		N03     As1 
	BYTE	W04
	BYTE		        Fn2 
	BYTE	W04
	BYTE		        As2 
	BYTE	W04
	BYTE		N12     Dn3 
	BYTE	W12
	BYTE		N03     As1 
	BYTE	W04
	BYTE		        Fn2 
	BYTE	W04
	BYTE		        As2 
	BYTE	W04
	BYTE		N12     Dn3 
	BYTE	W12
	BYTE		N03     As1 
	BYTE	W04
	BYTE		        Fn2 
	BYTE	W04
	BYTE		        As2 
	BYTE	W04
	BYTE		N12     Dn3 
	BYTE	W12
	BYTE		N03     Cn2 
	BYTE	W04
	BYTE		        Gn2 
	BYTE	W04
	BYTE		        Cn3 
	BYTE	W04
	BYTE		N12     Ds3 
	BYTE	W12
	BYTE		N12   
	BYTE		N12     Gn3 
	BYTE	W05
// 037   ----------------------------------------
	BYTE	W07
	BYTE		N03     Cn2 
	BYTE	W04
	BYTE		        Gn2 
	BYTE	W04
	BYTE		        Cn3 
	BYTE	W04
	BYTE		N12     Ds3 
	BYTE	W12
	BYTE		N12   
	BYTE		N12     Fn3 
	BYTE	W12
	BYTE		N03     Cn2 
	BYTE	W04
	BYTE		        Gn2 
	BYTE	W04
	BYTE		        Cn3 
	BYTE	W04
	BYTE		N12     Ds3 
	BYTE	W12
	BYTE		N12   
	BYTE		N12     Gn3 
	BYTE	W12
	BYTE		        Cn2 
	BYTE		N12     Cn3 
	BYTE	W12
	BYTE		        Gn1 
	BYTE		N12     Gn2 
	BYTE	W12
	BYTE		        Cn1 
	BYTE		N12     Cn2 
	BYTE	W12
	BYTE		        Cs1 
	BYTE		N12     Cs2 
	BYTE	W12
	BYTE		        Gs1 
	BYTE	W12
	BYTE		        Ds2 
	BYTE	W05
// 038   ----------------------------------------
	BYTE	W07
	BYTE		        Fn1 
	BYTE		N12     Fn2 
	BYTE	W12
	BYTE		        Cn2 
	BYTE	W12
	BYTE		N03     Fn2 
	BYTE	W04
	BYTE		N04     Cn2 
	BYTE	W05
	BYTE		N03     Fn1 
	BYTE	W03
	BYTE		N12     Cs1 
	BYTE		N12     Cs2 
	BYTE	W12
	BYTE		        Gs1 
	BYTE	W12
	BYTE		        Ds2 
	BYTE	W12
	BYTE		        Fn1 
	BYTE		N12     Fn2 
	BYTE	W12
	BYTE		        Cn2 
	BYTE	W12
	BYTE		N03     Fn2 
	BYTE	W04
	BYTE		        Cn2 
	BYTE	W04
	BYTE		        Fn1 
	BYTE	W04
	BYTE		N12   
	BYTE		N12     Fn2 
	BYTE	W12
	BYTE		        Cn2 
	BYTE	W12
	BYTE		        Gn2 
	BYTE	W05
// 039   ----------------------------------------
	BYTE	W07
	BYTE		        Gs1 
	BYTE		N12     Gs2 
	BYTE	W12
	BYTE		        Fn2 
	BYTE	W12
	BYTE		N03     Gs2 
	BYTE	W04
	BYTE		        Fn2 
	BYTE	W04
	BYTE		        Gs1 
	BYTE	W04
	BYTE		N12     Fn1 
	BYTE		N12     Fn2 
	BYTE	W12
	BYTE		        Cn2 
	BYTE	W12
	BYTE		        As2 
	BYTE	W12
	BYTE		        Gs1 
	BYTE		N12     Gs2 
	BYTE	W12
	BYTE		        Gn1 
	BYTE		N12     Gn2 
	BYTE	W12
	BYTE		N03     Ds2 
	BYTE	W04
	BYTE		        As1 
	BYTE	W04
	BYTE		        Gn1 
	BYTE	W04
	BYTE		N12     Cs1 
	BYTE		N12     Cs2 
	BYTE	W12
	BYTE		        Gs1 
	BYTE	W12
	BYTE		        Ds2 
	BYTE	W05
// 040   ----------------------------------------
	BYTE	W07
	BYTE		        Fn1 
	BYTE		N12     Fn2 
	BYTE	W12
	BYTE		        Cn2 
	BYTE	W12
	BYTE		N03     Fn2 
	BYTE	W04
	BYTE		N04     Cn2 
	BYTE	W05
	BYTE		N03     Fn1 
	BYTE	W03
	BYTE		N12     Ds1 
	BYTE		N12     Ds2 
	BYTE	W12
	BYTE		        As1 
	BYTE	W12
	BYTE		        Gn2 
	BYTE	W12
	BYTE		        Fn1 
	BYTE		N12     Fn2 
	BYTE	W12
	BYTE		        Ds1 
	BYTE		N12     Ds2 
	BYTE	W12
	BYTE		        As1 
	BYTE	W12
	BYTE		        Fn0 
	BYTE	W12
	BYTE		N12   
	BYTE		N12     Fn1 
	BYTE	W12
	BYTE		N03   
	BYTE	W04
	BYTE		N04     Fn0 
	BYTE	W01
// 041   ----------------------------------------
	BYTE	W04
	BYTE		N03     Fn1 
	BYTE	W03
	BYTE		N12     Fn0 
	BYTE	W12
	BYTE		N12   
	BYTE		N12     Fn1 
	BYTE	W12
	BYTE		N03   
	BYTE	W04
	BYTE		N04     Fn0 
	BYTE	W05
	BYTE		N03     Fn1 
	BYTE	W03
	BYTE		N12     Fn0 
	BYTE	W12
	BYTE		N12   
	BYTE		N12     Fn1 
	BYTE	W12
	BYTE		N03   
	BYTE	W04
	BYTE		N04     Fn0 
	BYTE	W05
	BYTE		N03     Fn1 
	BYTE	W03
	BYTE		N12     Fn0 
	BYTE	W12
	BYTE		N12   
	BYTE		N12     Fn1 
	BYTE	W12
	BYTE		N03   
	BYTE	W04
	BYTE		N04     Fn0 
	BYTE	W05
	BYTE		N03     Fn1 
	BYTE	W03
	BYTE		N12     As0   v080
	BYTE	W12
	BYTE		N03     As1 
	BYTE	W04
	BYTE		        Dn2 
	BYTE	W04
	BYTE		        Fn2 
	BYTE	W04
	BYTE		N12     As2 
	BYTE	W05
// 042   ----------------------------------------
	BYTE	W07
	BYTE		        As0 
	BYTE	W12
	BYTE		N03     As1 
	BYTE	W04
	BYTE		        Dn2 
	BYTE	W04
	BYTE		        Fn2 
	BYTE	W04
	BYTE		        As2 
	BYTE	W04
	BYTE		        Fn2 
	BYTE	W04
	BYTE		        Dn2 
	BYTE	W04
	BYTE		N12     An0 
	BYTE	W12
	BYTE		N03     An1 
	BYTE	W04
	BYTE		        Cn2 
	BYTE	W04
	BYTE		        Fn2 
	BYTE	W04
	BYTE		N12     An2 
	BYTE	W12
	BYTE		        An0 
	BYTE	W12
	BYTE		N03     An1 
	BYTE	W04
	BYTE		        Cn2 
	BYTE	W04
	BYTE		        Fn2 
	BYTE	W04
	BYTE		        An2 
	BYTE	W04
	BYTE		        Fn2 
	BYTE	W04
	BYTE		        Cn2 
	BYTE	W04
	BYTE		N12     Gn0 
	BYTE	W12
	BYTE		N03     Gn1 
	BYTE	W04
	BYTE		        As1 
	BYTE	W04
	BYTE		        Dn2 
	BYTE	W04
	BYTE		N12     Gn2 
	BYTE	W05
// 043   ----------------------------------------
	BYTE	W07
	BYTE		        Gn0 
	BYTE	W12
	BYTE		N03     Gn1 
	BYTE	W04
	BYTE		        As1 
	BYTE	W04
	BYTE		        Dn2 
	BYTE	W04
	BYTE		        Gn2 
	BYTE	W04
	BYTE		        Dn2 
	BYTE	W04
	BYTE		        As1 
	BYTE	W04
	BYTE		N12     Fn0 
	BYTE	W12
	BYTE		N03     Fn1 
	BYTE	W04
	BYTE		        An1 
	BYTE	W04
	BYTE		        Cn2 
	BYTE	W04
	BYTE		N12     Fn2 
	BYTE	W12
	BYTE		        Fn0 
	BYTE	W12
	BYTE		N03     Fn1 
	BYTE	W04
	BYTE		        An1 
	BYTE	W04
	BYTE		        Cn2 
	BYTE	W04
	BYTE		        Fn2 
	BYTE	W04
	BYTE		        Cn2 
	BYTE	W04
	BYTE		        An1 
	BYTE	W04
	BYTE		N12     En0 
	BYTE	W12
	BYTE		N03     En1 
	BYTE	W04
	BYTE		        Gn1 
	BYTE	W04
	BYTE		        As1 
	BYTE	W04
	BYTE		N12     En2 
	BYTE	W05
// 044   ----------------------------------------
	BYTE	W07
	BYTE		        En0 
	BYTE	W12
	BYTE		N03     En1 
	BYTE	W04
	BYTE		        Gn1 
	BYTE	W04
	BYTE		        As1 
	BYTE	W04
	BYTE		        En2 
	BYTE	W04
	BYTE		        As1 
	BYTE	W04
	BYTE		        Gn1 
	BYTE	W04
	BYTE		N12     An0 
	BYTE	W12
	BYTE		N03     An1 
	BYTE	W04
	BYTE		        Cs2 
	BYTE	W04
	BYTE		        En2 
	BYTE	W04
	BYTE		N12     An2 
	BYTE	W12
	BYTE		        An0 
	BYTE	W12
	BYTE		N03     An1 
	BYTE	W04
	BYTE		        Cs2 
	BYTE	W04
	BYTE		        En2 
	BYTE	W04
	BYTE		        An2 
	BYTE	W04
	BYTE		        En2 
	BYTE	W04
	BYTE		        Cs2 
	BYTE	W04
	BYTE		N12     Dn0 
	BYTE	W12
	BYTE		N03     Dn1 
	BYTE	W04
	BYTE		        Fn1 
	BYTE	W04
	BYTE		        An1 
	BYTE	W04
	BYTE		N12     Dn2 
	BYTE	W05
// 045   ----------------------------------------
	BYTE	W07
	BYTE		        Dn0 
	BYTE	W12
	BYTE		N03     Dn1 
	BYTE	W04
	BYTE		        Fn1 
	BYTE	W04
	BYTE		        An1 
	BYTE	W04
	BYTE		        Dn2 
	BYTE	W04
	BYTE		        An1 
	BYTE	W04
	BYTE		        Fn1 
	BYTE	W04
	BYTE		N12     Gn0 
	BYTE	W12
	BYTE		N03     Gn1 
	BYTE	W04
	BYTE		        Bn1 
	BYTE	W04
	BYTE		        Dn2 
	BYTE	W04
	BYTE		N12     Gn2 
	BYTE	W12
	BYTE		        Gn0 
	BYTE	W12
	BYTE		N03     Dn2 
	BYTE	W04
	BYTE		        Cn2 
	BYTE	W04
	BYTE		        As1 
	BYTE	W04
	BYTE		        An1 
	BYTE	W04
	BYTE		        Gn1 
	BYTE	W04
	BYTE		        Fn1 
	BYTE	W04
	BYTE		N12     As0 
	BYTE	W12
	BYTE		N08     Fn1 
	BYTE		N08     As1 
	BYTE	W08
	BYTE		N03     Fn2 
	BYTE	W04
	BYTE		N12     As2 
	BYTE	W05
// 046   ----------------------------------------
	BYTE	W07
	BYTE		        As0 
	BYTE	W12
	BYTE		N08     Fn1 
	BYTE		N08     As1 
	BYTE	W08
	BYTE		N03     Fn2 
	BYTE	W04
	BYTE		        As2 
	BYTE	W04
	BYTE		        Fn2 
	BYTE	W04
	BYTE		        Dn2 
	BYTE	W04
	BYTE		N12     An0 
	BYTE	W12
	BYTE		N03     An1 
	BYTE	W04
	BYTE		        Cn2 
	BYTE	W04
	BYTE		        Fn2 
	BYTE	W04
	BYTE		N12     An2 
	BYTE	W12
	BYTE		        An0 
	BYTE	W12
	BYTE		N03     An1 
	BYTE	W04
	BYTE		        Cn2 
	BYTE	W04
	BYTE		        Fn2 
	BYTE	W04
	BYTE		        An2 
	BYTE	W04
	BYTE		        Fn2 
	BYTE	W04
	BYTE		        Cn2 
	BYTE	W04
	BYTE		N12     Gn0 
	BYTE	W12
	BYTE		N08     Dn1 
	BYTE		N08     Gn1 
	BYTE	W08
	BYTE		N03     Dn2 
	BYTE	W04
	BYTE		N12     Gn2 
	BYTE	W05
// 047   ----------------------------------------
	BYTE	W07
	BYTE		        Gn0 
	BYTE	W12
	BYTE		N08     Dn1 
	BYTE		N08     Gn1 
	BYTE	W08
	BYTE		N03     Dn2 
	BYTE	W04
	BYTE		        Gn2 
	BYTE	W04
	BYTE		        Dn2 
	BYTE	W04
	BYTE		        As1 
	BYTE	W04
	BYTE		N12     Fn0 
	BYTE	W12
	BYTE		N03     Fn1 
	BYTE	W04
	BYTE		        An1 
	BYTE	W04
	BYTE		        Cn2 
	BYTE	W04
	BYTE		N12     Fn2 
	BYTE	W12
	BYTE		        Fn0 
	BYTE	W12
	BYTE		N03     Fn1 
	BYTE	W04
	BYTE		        An1 
	BYTE	W04
	BYTE		        Cn2 
	BYTE	W04
	BYTE		        Fn2 
	BYTE	W04
	BYTE		        Cn2 
	BYTE	W04
	BYTE		        An1 
	BYTE	W04
	BYTE		N12     En0 
	BYTE	W12
	BYTE		N08     En1 
	BYTE		N08     Gn1 
	BYTE	W08
	BYTE		N03     As1 
	BYTE	W04
	BYTE		N12     En2 
	BYTE	W05
// 048   ----------------------------------------
	BYTE	W07
	BYTE		        En0 
	BYTE	W12
	BYTE		N08     En1 
	BYTE		N08     Gn1 
	BYTE	W08
	BYTE		N03     As1 
	BYTE	W04
	BYTE		        En2 
	BYTE	W04
	BYTE		        As1 
	BYTE	W04
	BYTE		        Gn1 
	BYTE	W04
	BYTE		N12     An0 
	BYTE	W12
	BYTE		N03     An1 
	BYTE	W04
	BYTE		        Cs2 
	BYTE	W04
	BYTE		        En2 
	BYTE	W04
	BYTE		N12     An2 
	BYTE	W12
	BYTE		        An0 
	BYTE	W12
	BYTE		N03     An1 
	BYTE	W04
	BYTE		        Cs2 
	BYTE	W04
	BYTE		        En2 
	BYTE	W04
	BYTE		        An2 
	BYTE	W04
	BYTE		        En2 
	BYTE	W04
	BYTE		        Cs2 
	BYTE	W04
	BYTE		N12     Dn0 
	BYTE	W12
	BYTE		N03     Dn1 
	BYTE	W04
	BYTE		        Fn1 
	BYTE	W04
	BYTE		        An1 
	BYTE	W04
	BYTE		N12     Dn2 
	BYTE	W05
// 049   ----------------------------------------
	BYTE	W07
	BYTE		        Dn0 
	BYTE	W12
	BYTE		N03     Dn1 
	BYTE	W04
	BYTE		        Fn1 
	BYTE	W04
	BYTE		        An1 
	BYTE	W04
	BYTE		        Dn2 
	BYTE	W04
	BYTE		        An1 
	BYTE	W04
	BYTE		        Fn1 
	BYTE	W04
	BYTE		N12     Dn0 
	BYTE	W12
	BYTE		N03     Dn1 
	BYTE	W04
	BYTE		        Fn1 
	BYTE	W04
	BYTE		        As1 
	BYTE	W04
	BYTE		N12     Dn2 
	BYTE	W12
	BYTE		        Dn0 
	BYTE	W12
	BYTE		N03     Dn1 
	BYTE	W04
	BYTE		        Fn1 
	BYTE	W04
	BYTE		        As1 
	BYTE	W04
	BYTE		        Dn2 
	BYTE	W04
	BYTE		        As1 
	BYTE	W04
	BYTE		        Fn1 
	BYTE	W04
	BYTE		N12     Dn0 
	BYTE	W12
	BYTE		N03     Dn1 
	BYTE	W04
	BYTE		        Fn1 
	BYTE	W04
	BYTE		        An1 
	BYTE	W04
	BYTE		N12     Dn2 
	BYTE	W05
// 050   ----------------------------------------
	BYTE	W07
	BYTE		        Dn0 
	BYTE	W12
	BYTE		N03     Dn1 
	BYTE	W04
	BYTE		        Fn1 
	BYTE	W04
	BYTE		        An1 
	BYTE	W04
	BYTE		        Dn2 
	BYTE	W04
	BYTE		        An1 
	BYTE	W04
	BYTE		        Fn1 
	BYTE	W04
	BYTE		N12     Dn0 
	BYTE	W12
	BYTE		N03     Dn1 
	BYTE	W04
	BYTE		        Fn1 
	BYTE	W04
	BYTE		        As1 
	BYTE	W04
	BYTE		N12     Dn2 
	BYTE	W12
	BYTE		        Dn0 
	BYTE	W12
	BYTE		N03     Dn1 
	BYTE	W04
	BYTE		        Fn1 
	BYTE	W04
	BYTE		        As1 
	BYTE	W04
	BYTE		        Dn2 
	BYTE	W04
	BYTE		        As1 
	BYTE	W04
	BYTE		        Fn1 
	BYTE	W04
	BYTE	GoTo
	 POIN2	ThornInYou(Roar)_2_B1
ThornInYou(Roar)_2_B2:
	BYTE	FINE

//******************************************************//
	ALIGN 4

ThornInYou(Roar):
	BYTE	2	// NumTrks
	BYTE	0	// NumBlks
	BYTE	ThornInYou(Roar)_pri	// Priority
	BYTE	ThornInYou(Roar)_rev	// Reverb.

	POIN2	ThornInYou(Roar)_grp

	POIN2	ThornInYou(Roar)_1
	POIN2	ThornInYou(Roar)_2

	
