//Event file generated from Sappy .s format.
	#include "MPlayDef.event"

	#define	FE15TruthMysteriousDancer_grp  voicegroup000
	#define	FE15TruthMysteriousDancer_pri  0
	#define	FE15TruthMysteriousDancer_rev  0
	#define	FE15TruthMysteriousDancer_mvl  127
	#define	FE15TruthMysteriousDancer_key  0
	#define	FE15TruthMysteriousDancer_tbs  1
	#define	FE15TruthMysteriousDancer_exg  0
	#define	FE15TruthMysteriousDancer_cmp  1

	// .rodata
	//	FE15TruthMysteriousDancer
	ALIGN 4

//**************** Track 1 (Midi-Chn.1) ****************//

FE15TruthMysteriousDancer_1:
	BYTE	KEYSH   FE15TruthMysteriousDancer_key+0
FE15TruthMysteriousDancer_1_B1:
// 000   ----------------------------------------
	BYTE	TEMPO   85*FE15TruthMysteriousDancer_tbs/2
	BYTE		VOICE   40
	BYTE		VOL     100*FE15TruthMysteriousDancer_mvl/mxv
	BYTE		PAN     c_v+0
	BYTE	W72
// 001   ----------------------------------------
	BYTE	W72
// 002   ----------------------------------------
	BYTE	W72
// 003   ----------------------------------------
	BYTE	W72
// 004   ----------------------------------------
FE15TruthMysteriousDancer_1_004:
	BYTE	W48
	BYTE		N11     Fn3   v076
	BYTE	W12
	BYTE		        Cn4 
	BYTE	W12
	BYTE	PEND
// 005   ----------------------------------------
FE15TruthMysteriousDancer_1_005:
	BYTE		N44     Gn3   v076
	BYTE	W48
	BYTE		N22     Fn3 
	BYTE	W24
	BYTE	PEND
// 006   ----------------------------------------
FE15TruthMysteriousDancer_1_006:
	BYTE		N44     Cn3   v076
	BYTE	W48
	BYTE		N11     As2 
	BYTE	W12
	BYTE		        Cs3 
	BYTE	W12
	BYTE	PEND
// 007   ----------------------------------------
FE15TruthMysteriousDancer_1_007:
	BYTE		N44     Ds3   v076
	BYTE	W48
	BYTE		N11     Cs3 
	BYTE	W12
	BYTE		        As2 
	BYTE	W12
	BYTE	PEND
// 008   ----------------------------------------
FE15TruthMysteriousDancer_1_008:
	BYTE		N44     Cn3   v076
	BYTE	W48
	BYTE		N11     Fn3 
	BYTE	W12
	BYTE		        Cn4 
	BYTE	W12
	BYTE	PEND
// 009   ----------------------------------------
FE15TruthMysteriousDancer_1_009:
	BYTE		N44     As3   v076
	BYTE	W48
	BYTE		N22     Gs3 
	BYTE	W24
	BYTE	PEND
// 010   ----------------------------------------
FE15TruthMysteriousDancer_1_010:
	BYTE		N44     Gn3   v076
	BYTE	W48
	BYTE		N11     Fn3 
	BYTE	W12
	BYTE		        Gn3 
	BYTE	W12
	BYTE	PEND
// 011   ----------------------------------------
FE15TruthMysteriousDancer_1_011:
	BYTE		N22     Gs3   v076
	BYTE	W24
	BYTE		        Gn3 
	BYTE	W24
	BYTE		        Fn3 
	BYTE	W24
	BYTE	PEND
// 012   ----------------------------------------
FE15TruthMysteriousDancer_1_012:
	BYTE		N44     Cn4   v084
	BYTE	W48
	BYTE		N11     As3   v088
	BYTE	W12
	BYTE		        Cn4 
	BYTE	W12
	BYTE	PEND
// 013   ----------------------------------------
FE15TruthMysteriousDancer_1_013:
	BYTE		N22     Cs4   v092
	BYTE	W24
	BYTE		        Ds4 
	BYTE	W24
	BYTE		        Fn4   v096
	BYTE	W24
	BYTE	PEND
// 014   ----------------------------------------
FE15TruthMysteriousDancer_1_014:
	BYTE		N44     Gn4   v096
	BYTE	W48
	BYTE		N11     Fn4 
	BYTE	W12
	BYTE		        Cn4 
	BYTE	W12
	BYTE	PEND
// 015   ----------------------------------------
	BYTE		N68     Gn4 
	BYTE	W72
// 016   ----------------------------------------
FE15TruthMysteriousDancer_1_016:
	BYTE		N44     Cn4   v076
	BYTE		N44     Cn5 
	BYTE	W48
	BYTE		N11     As3 
	BYTE		N11     As4 
	BYTE	W12
	BYTE		        Cn4 
	BYTE		N11     Cn5 
	BYTE	W12
	BYTE	PEND
// 017   ----------------------------------------
FE15TruthMysteriousDancer_1_017:
	BYTE		N22     Cs4   v076
	BYTE		N22     Cs5 
	BYTE	W24
	BYTE		N32     Ds4 
	BYTE		N32     Ds5 
	BYTE	W36
	BYTE		N11     Cs4 
	BYTE		N11     Cs5 
	BYTE	W12
	BYTE	PEND
// 018   ----------------------------------------
	BYTE		N68     Cn4 
	BYTE	W72
// 019   ----------------------------------------
	BYTE		        Gs2   v072
	BYTE	W72
// 020   ----------------------------------------
FE15TruthMysteriousDancer_1_020:
	BYTE	TEMPO   82*FE15TruthMysteriousDancer_tbs/2
	BYTE	W24
	BYTE	TEMPO   80*FE15TruthMysteriousDancer_tbs/2
	BYTE	W24
	BYTE	TEMPO   76*FE15TruthMysteriousDancer_tbs/2
	BYTE	W24
	BYTE	PEND
// 021   ----------------------------------------
FE15TruthMysteriousDancer_1_021:
	BYTE	TEMPO   73*FE15TruthMysteriousDancer_tbs/2
	BYTE	W24
	BYTE	TEMPO   69*FE15TruthMysteriousDancer_tbs/2
	BYTE	W24
	BYTE	TEMPO   64*FE15TruthMysteriousDancer_tbs/2
	BYTE	W24
	BYTE	PEND
// 022   ----------------------------------------
	BYTE	TEMPO   85*FE15TruthMysteriousDancer_tbs/2
	BYTE	W72
// 023   ----------------------------------------
	BYTE	W72
// 024   ----------------------------------------
	BYTE	W72
// 025   ----------------------------------------
	BYTE	W72
// 026   ----------------------------------------
	BYTE	W72
// 027   ----------------------------------------
	BYTE	W72
// 028   ----------------------------------------
	BYTE	W72
// 029   ----------------------------------------
	BYTE	W72
// 030   ----------------------------------------
	BYTE	W72
// 031   ----------------------------------------
	BYTE	W72
// 032   ----------------------------------------
	BYTE	W72
// 033   ----------------------------------------
	BYTE	W72
// 034   ----------------------------------------
	BYTE	W72
// 035   ----------------------------------------
	BYTE	W72
// 036   ----------------------------------------
	BYTE	W72
// 037   ----------------------------------------
	BYTE	W72
// 038   ----------------------------------------
	BYTE	W72
// 039   ----------------------------------------
	BYTE	W72
// 040   ----------------------------------------
FE15TruthMysteriousDancer_1_040:
	BYTE	W24
	BYTE		N02     Gn3   v072
	BYTE	W02
	BYTE		        Gs3 
	BYTE	W04
	BYTE		        Gn3 
	BYTE	W02
	BYTE		        Gs3 
	BYTE	W04
	BYTE		        Gn3 
	BYTE	W02
	BYTE		        Gs3 
	BYTE	W04
	BYTE		        Gn3 
	BYTE	W02
	BYTE		        Gs3 
	BYTE	W04
	BYTE		        Gn3 
	BYTE	W02
	BYTE		        Gs3 
	BYTE	W04
	BYTE		        Gn3 
	BYTE	W02
	BYTE		        Gs3 
	BYTE	W04
	BYTE		        Gn3 
	BYTE	W02
	BYTE		        Gs3 
	BYTE	W04
	BYTE		        Gn3 
	BYTE	W02
	BYTE		        Gs3 
	BYTE	W04
	BYTE	PEND
// 041   ----------------------------------------
FE15TruthMysteriousDancer_1_041:
	BYTE	W24
	BYTE		N02     As3   v072
	BYTE	W02
	BYTE		        Cn4 
	BYTE	W04
	BYTE		        As3 
	BYTE	W02
	BYTE		        Cn4 
	BYTE	W04
	BYTE		        As3 
	BYTE	W02
	BYTE		        Cn4 
	BYTE	W04
	BYTE		        As3 
	BYTE	W02
	BYTE		        Cn4 
	BYTE	W04
	BYTE		        As3 
	BYTE	W02
	BYTE		        Cn4 
	BYTE	W04
	BYTE		        As3 
	BYTE	W02
	BYTE		        Cn4 
	BYTE	W04
	BYTE		        As3 
	BYTE	W02
	BYTE		        Cn4 
	BYTE	W04
	BYTE		        As3 
	BYTE	W02
	BYTE		        Cn4 
	BYTE	W04
	BYTE	PEND
// 042   ----------------------------------------
	BYTE	PATT
	 POIN2	FE15TruthMysteriousDancer_1_040
// 043   ----------------------------------------
	BYTE	PATT
	 POIN2	FE15TruthMysteriousDancer_1_041
// 044   ----------------------------------------
FE15TruthMysteriousDancer_1_044:
	BYTE	W24
	BYTE		N02     Gn3   v068
	BYTE	W02
	BYTE		        Gs3 
	BYTE	W04
	BYTE		        Gn3 
	BYTE	W02
	BYTE		        Gs3 
	BYTE	W04
	BYTE		        Gn3 
	BYTE	W02
	BYTE		        Gs3 
	BYTE	W04
	BYTE		        Gn3 
	BYTE	W02
	BYTE		        Gs3 
	BYTE	W04
	BYTE		        Gn3 
	BYTE	W02
	BYTE		        Gs3 
	BYTE	W04
	BYTE		        Gn3 
	BYTE	W02
	BYTE		        Gs3 
	BYTE	W04
	BYTE		        Gn3 
	BYTE	W02
	BYTE		        Gs3 
	BYTE	W04
	BYTE		        Gn3 
	BYTE	W02
	BYTE		        Gs3 
	BYTE	W04
	BYTE	PEND
// 045   ----------------------------------------
FE15TruthMysteriousDancer_1_045:
	BYTE	W24
	BYTE		N02     As3   v068
	BYTE	W02
	BYTE		        Cn4 
	BYTE	W04
	BYTE		        As3 
	BYTE	W02
	BYTE		        Cn4 
	BYTE	W04
	BYTE		        As3 
	BYTE	W02
	BYTE		        Cn4 
	BYTE	W04
	BYTE		        As3 
	BYTE	W02
	BYTE		        Cn4 
	BYTE	W04
	BYTE		        As3 
	BYTE	W02
	BYTE		        Cn4 
	BYTE	W04
	BYTE		        As3 
	BYTE	W02
	BYTE		        Cn4 
	BYTE	W04
	BYTE		        As3 
	BYTE	W02
	BYTE		        Cn4 
	BYTE	W04
	BYTE		        As3 
	BYTE	W02
	BYTE		        Cn4 
	BYTE	W04
	BYTE	PEND
// 046   ----------------------------------------
FE15TruthMysteriousDancer_1_046:
	BYTE	W24
	BYTE		N02     Gn3   v064
	BYTE	W02
	BYTE		        Gs3 
	BYTE	W04
	BYTE		        Gn3 
	BYTE	W02
	BYTE		        Gs3 
	BYTE	W04
	BYTE		        Gn3 
	BYTE	W02
	BYTE		        Gs3 
	BYTE	W04
	BYTE		        Gn3 
	BYTE	W02
	BYTE		        Gs3 
	BYTE	W04
	BYTE		        Gn3 
	BYTE	W02
	BYTE		        Gs3 
	BYTE	W04
	BYTE		        Gn3 
	BYTE	W02
	BYTE		        Gs3 
	BYTE	W04
	BYTE		        Gn3 
	BYTE	W02
	BYTE		        Gs3 
	BYTE	W04
	BYTE		        Gn3 
	BYTE	W02
	BYTE		        Gs3 
	BYTE	W04
	BYTE	PEND
// 047   ----------------------------------------
FE15TruthMysteriousDancer_1_047:
	BYTE	W24
	BYTE		N02     Fn3   v064
	BYTE	W02
	BYTE		        Gn3 
	BYTE	W04
	BYTE		        Fn3 
	BYTE	W02
	BYTE		        Gn3 
	BYTE	W04
	BYTE		        Fn3 
	BYTE	W02
	BYTE		        Gn3 
	BYTE	W04
	BYTE		        Fn3 
	BYTE	W02
	BYTE		        Gn3 
	BYTE	W04
	BYTE		        Fn3 
	BYTE	W02
	BYTE		        Gn3 
	BYTE	W04
	BYTE		        Fn3 
	BYTE	W02
	BYTE		        Gn3 
	BYTE	W04
	BYTE		        Fn3 
	BYTE	W02
	BYTE		        Gn3 
	BYTE	W04
	BYTE		        Fn3 
	BYTE	W02
	BYTE		        Gn3 
	BYTE	W04
	BYTE	PEND
// 048   ----------------------------------------
	BYTE	PATT
	 POIN2	FE15TruthMysteriousDancer_1_004
// 049   ----------------------------------------
	BYTE	PATT
	 POIN2	FE15TruthMysteriousDancer_1_005
// 050   ----------------------------------------
	BYTE	PATT
	 POIN2	FE15TruthMysteriousDancer_1_006
// 051   ----------------------------------------
	BYTE	PATT
	 POIN2	FE15TruthMysteriousDancer_1_007
// 052   ----------------------------------------
	BYTE	PATT
	 POIN2	FE15TruthMysteriousDancer_1_008
// 053   ----------------------------------------
	BYTE	PATT
	 POIN2	FE15TruthMysteriousDancer_1_009
// 054   ----------------------------------------
	BYTE	PATT
	 POIN2	FE15TruthMysteriousDancer_1_010
// 055   ----------------------------------------
	BYTE	PATT
	 POIN2	FE15TruthMysteriousDancer_1_011
// 056   ----------------------------------------
	BYTE	PATT
	 POIN2	FE15TruthMysteriousDancer_1_012
// 057   ----------------------------------------
	BYTE	PATT
	 POIN2	FE15TruthMysteriousDancer_1_013
// 058   ----------------------------------------
	BYTE	PATT
	 POIN2	FE15TruthMysteriousDancer_1_014
// 059   ----------------------------------------
	BYTE		N68     Gn4   v096
	BYTE	W72
// 060   ----------------------------------------
	BYTE	PATT
	 POIN2	FE15TruthMysteriousDancer_1_016
// 061   ----------------------------------------
	BYTE	PATT
	 POIN2	FE15TruthMysteriousDancer_1_017
// 062   ----------------------------------------
	BYTE		N68     Cn4   v076
	BYTE		N68     Cn5 
	BYTE	W72
// 063   ----------------------------------------
	BYTE	W72
// 064   ----------------------------------------
	BYTE	PATT
	 POIN2	FE15TruthMysteriousDancer_1_020
// 065   ----------------------------------------
	BYTE	PATT
	 POIN2	FE15TruthMysteriousDancer_1_021
// 066   ----------------------------------------
	BYTE	TEMPO   85*FE15TruthMysteriousDancer_tbs/2
	BYTE	W72
// 067   ----------------------------------------
	BYTE	W72
// 068   ----------------------------------------
	BYTE	W72
// 069   ----------------------------------------
	BYTE	W72
// 070   ----------------------------------------
	BYTE	W72
// 071   ----------------------------------------
	BYTE	W72
// 072   ----------------------------------------
	BYTE	W72
// 073   ----------------------------------------
	BYTE	W72
// 074   ----------------------------------------
	BYTE	W72
// 075   ----------------------------------------
	BYTE	W72
// 076   ----------------------------------------
	BYTE	W72
// 077   ----------------------------------------
	BYTE	W72
// 078   ----------------------------------------
	BYTE	W72
// 079   ----------------------------------------
	BYTE	W72
// 080   ----------------------------------------
	BYTE	W72
// 081   ----------------------------------------
	BYTE	W72
// 082   ----------------------------------------
	BYTE	W72
// 083   ----------------------------------------
	BYTE	W72
// 084   ----------------------------------------
	BYTE	PATT
	 POIN2	FE15TruthMysteriousDancer_1_040
// 085   ----------------------------------------
	BYTE	PATT
	 POIN2	FE15TruthMysteriousDancer_1_041
// 086   ----------------------------------------
	BYTE	PATT
	 POIN2	FE15TruthMysteriousDancer_1_040
// 087   ----------------------------------------
	BYTE	PATT
	 POIN2	FE15TruthMysteriousDancer_1_041
// 088   ----------------------------------------
	BYTE	PATT
	 POIN2	FE15TruthMysteriousDancer_1_044
// 089   ----------------------------------------
	BYTE	PATT
	 POIN2	FE15TruthMysteriousDancer_1_045
// 090   ----------------------------------------
	BYTE	PATT
	 POIN2	FE15TruthMysteriousDancer_1_046
// 091   ----------------------------------------
	BYTE	PATT
	 POIN2	FE15TruthMysteriousDancer_1_047
	BYTE	GoTo
	 POIN2	FE15TruthMysteriousDancer_1_B1
FE15TruthMysteriousDancer_1_B2:
// 092   ----------------------------------------
	BYTE	FINE

//**************** Track 2 (Midi-Chn.2) ****************//

FE15TruthMysteriousDancer_2:
	BYTE		VOL     127*FE15TruthMysteriousDancer_mvl/mxv
	BYTE	KEYSH   FE15TruthMysteriousDancer_key+0
FE15TruthMysteriousDancer_2_B1:
// 000   ----------------------------------------
	BYTE		VOICE   0
	BYTE		N11     Fn1   v088
	BYTE	W12
	BYTE		        Cn2   v080
	BYTE	W12
	BYTE		N22     Ds2 
	BYTE		N22     Gs2 
	BYTE	W24
	BYTE		        Fn1   v084
	BYTE	W24
// 001   ----------------------------------------
	BYTE		N11     Fn1   v088
	BYTE	W12
	BYTE		        Cn2   v080
	BYTE	W12
	BYTE		N22     Cs2 
	BYTE		N22     As2 
	BYTE	W24
	BYTE		        Fn1   v084
	BYTE	W24
// 002   ----------------------------------------
	BYTE		N11     Fn1   v088
	BYTE	W12
	BYTE		        Cn2   v080
	BYTE	W12
	BYTE		N22     Ds2 
	BYTE		N22     Gs2 
	BYTE	W24
	BYTE		        Fn1   v084
	BYTE	W24
// 003   ----------------------------------------
	BYTE		N11     Fn1   v088
	BYTE	W12
	BYTE		        Cn2   v080
	BYTE	W12
	BYTE		N22     Cs2   v076
	BYTE		N22     As2 
	BYTE	W24
	BYTE		        Fn1 
	BYTE	W24
// 004   ----------------------------------------
FE15TruthMysteriousDancer_2_004:
	BYTE		N11     Fn1   v072
	BYTE	W12
	BYTE		        Cn2   v064
	BYTE	W12
	BYTE		N44     Gn2 
	BYTE		N44     Gs2 
	BYTE		N44     Ds3 
	BYTE	W48
	BYTE	PEND
// 005   ----------------------------------------
FE15TruthMysteriousDancer_2_005:
	BYTE		N11     Fn1   v072
	BYTE	W12
	BYTE		        Cs2   v064
	BYTE	W12
	BYTE		N44     Fn2 
	BYTE		N44     As2 
	BYTE		N44     Cs3 
	BYTE	W48
	BYTE	PEND
// 006   ----------------------------------------
	BYTE	PATT
	 POIN2	FE15TruthMysteriousDancer_2_004
// 007   ----------------------------------------
	BYTE	PATT
	 POIN2	FE15TruthMysteriousDancer_2_005
// 008   ----------------------------------------
	BYTE	PATT
	 POIN2	FE15TruthMysteriousDancer_2_004
// 009   ----------------------------------------
	BYTE	PATT
	 POIN2	FE15TruthMysteriousDancer_2_005
// 010   ----------------------------------------
	BYTE	PATT
	 POIN2	FE15TruthMysteriousDancer_2_004
// 011   ----------------------------------------
FE15TruthMysteriousDancer_2_011:
	BYTE		N11     Fn1   v072
	BYTE	W12
	BYTE		        Cn2   v064
	BYTE	W12
	BYTE		N44     Fn2 
	BYTE		N44     As2 
	BYTE		N44     Dn3 
	BYTE	W48
	BYTE	PEND
// 012   ----------------------------------------
FE15TruthMysteriousDancer_2_012:
	BYTE		N11     Fs1   v072
	BYTE	W12
	BYTE		        Cs2   v064
	BYTE	W12
	BYTE		N44     Fs2   v068
	BYTE		N44     As2 
	BYTE	W48
	BYTE	PEND
// 013   ----------------------------------------
FE15TruthMysteriousDancer_2_013:
	BYTE		N11     Fs1   v076
	BYTE	W12
	BYTE		        Cs2   v072
	BYTE	W12
	BYTE		N44     Fs2 
	BYTE		N44     As2 
	BYTE		N44     Cn3 
	BYTE	W48
	BYTE	PEND
// 014   ----------------------------------------
FE15TruthMysteriousDancer_2_014:
	BYTE		N11     Fn1   v084
	BYTE	W12
	BYTE		        Cn2   v076
	BYTE	W12
	BYTE		N44     Gs2 
	BYTE		N44     Cn3 
	BYTE	W48
	BYTE	PEND
// 015   ----------------------------------------
FE15TruthMysteriousDancer_2_015:
	BYTE		N11     Fn1   v088
	BYTE	W12
	BYTE		        Cn2   v080
	BYTE	W12
	BYTE		N44     Gs2 
	BYTE		N44     Cn3 
	BYTE	W48
	BYTE	PEND
// 016   ----------------------------------------
FE15TruthMysteriousDancer_2_016:
	BYTE		N11     Fs1   v072
	BYTE		N44     Fn2 
	BYTE	W12
	BYTE		N11     Cs2   v064
	BYTE	W12
	BYTE		N44     As2 
	BYTE		N44     Cn3 
	BYTE	W24
	BYTE		N11     Fs2   v072
	BYTE	W12
	BYTE		        Gs2 
	BYTE	W12
	BYTE	PEND
// 017   ----------------------------------------
FE15TruthMysteriousDancer_2_017:
	BYTE		N11     Fs1   v072
	BYTE		N22     As2 
	BYTE	W12
	BYTE		N11     Cs2   v064
	BYTE	W12
	BYTE		N44     Fn2 
	BYTE		N22     Cn3   v072
	BYTE	W24
	BYTE		        As2 
	BYTE	W24
	BYTE	PEND
// 018   ----------------------------------------
FE15TruthMysteriousDancer_2_018:
	BYTE		N11     Fn1   v072
	BYTE		N24     Gn2 
	BYTE	W12
	BYTE		N11     Cn2   v064
	BYTE	W12
	BYTE		N44     Gn2 
	BYTE		N44     Cn3 
	BYTE	W48
	BYTE	PEND
// 019   ----------------------------------------
FE15TruthMysteriousDancer_2_019:
	BYTE		N11     Fn1   v072
	BYTE	W12
	BYTE		        Cn2   v064
	BYTE	W12
	BYTE		N44     Fn2 
	BYTE		N44     Cn3 
	BYTE	W48
	BYTE	PEND
// 020   ----------------------------------------
FE15TruthMysteriousDancer_2_020:
	BYTE		N11     Cs1   v072
	BYTE	W12
	BYTE		        Fn1 
	BYTE	W12
	BYTE		        Cn2 
	BYTE	W12
	BYTE		        Cs2 
	BYTE	W12
	BYTE		        Fn2 
	BYTE	W12
	BYTE		        Gn2 
	BYTE	W12
	BYTE	PEND
// 021   ----------------------------------------
FE15TruthMysteriousDancer_2_021:
	BYTE		N11     Gs2   v072
	BYTE	W12
	BYTE		        As2 
	BYTE	W12
	BYTE		N22     Cn3 
	BYTE	W24
	BYTE		        Cs3 
	BYTE	W24
	BYTE	PEND
// 022   ----------------------------------------
FE15TruthMysteriousDancer_2_022:
	BYTE		N11     Fn2   v072
	BYTE	W12
	BYTE		        Cn3   v064
	BYTE	W12
	BYTE		        Gn3 
	BYTE	W12
	BYTE		N32     Gs3 
	BYTE	W36
	BYTE	PEND
// 023   ----------------------------------------
	BYTE	PATT
	 POIN2	FE15TruthMysteriousDancer_2_022
// 024   ----------------------------------------
	BYTE	PATT
	 POIN2	FE15TruthMysteriousDancer_2_022
// 025   ----------------------------------------
	BYTE	PATT
	 POIN2	FE15TruthMysteriousDancer_2_022
// 026   ----------------------------------------
FE15TruthMysteriousDancer_2_026:
	BYTE		N11     Ds2   v072
	BYTE	W12
	BYTE		        Cn3   v064
	BYTE	W12
	BYTE		        Gn3 
	BYTE	W12
	BYTE		N32     Gs3 
	BYTE	W36
	BYTE	PEND
// 027   ----------------------------------------
	BYTE	PATT
	 POIN2	FE15TruthMysteriousDancer_2_026
// 028   ----------------------------------------
FE15TruthMysteriousDancer_2_028:
	BYTE		N11     Cs2   v072
	BYTE	W12
	BYTE		        Gs2   v064
	BYTE	W12
	BYTE		        Cn3 
	BYTE	W12
	BYTE		N32     Cs3 
	BYTE	W36
	BYTE	PEND
// 029   ----------------------------------------
	BYTE	PATT
	 POIN2	FE15TruthMysteriousDancer_2_028
// 030   ----------------------------------------
FE15TruthMysteriousDancer_2_030:
	BYTE		N11     Cn2   v072
	BYTE	W12
	BYTE		        Gn2   v064
	BYTE	W12
	BYTE		        Dn3 
	BYTE	W12
	BYTE		N32     Ds3 
	BYTE	W36
	BYTE	PEND
// 031   ----------------------------------------
FE15TruthMysteriousDancer_2_031:
	BYTE		N22     Gn2   v076
	BYTE	W24
	BYTE		N11     Gn2   v080
	BYTE	W12
	BYTE		        Fn2   v088
	BYTE	W12
	BYTE		        Ds2   v092
	BYTE	W12
	BYTE		        Cn2   v100
	BYTE	W12
	BYTE	PEND
// 032   ----------------------------------------
FE15TruthMysteriousDancer_2_032:
	BYTE		N11     Fn1   v127
	BYTE	W12
	BYTE		        Cn2   v108
	BYTE	W12
	BYTE		        Gn2 
	BYTE	W12
	BYTE		        Gs2 
	BYTE	W12
	BYTE		        Cn3 
	BYTE	W12
	BYTE		        Gs2 
	BYTE	W12
	BYTE	PEND
// 033   ----------------------------------------
	BYTE	PATT
	 POIN2	FE15TruthMysteriousDancer_2_032
// 034   ----------------------------------------
FE15TruthMysteriousDancer_2_034:
	BYTE		N11     Ds1   v127
	BYTE	W12
	BYTE		        Cn2   v108
	BYTE	W12
	BYTE		        Gn2 
	BYTE	W12
	BYTE		        Gs2 
	BYTE	W12
	BYTE		        Cn3 
	BYTE	W12
	BYTE		        Gs2 
	BYTE	W12
	BYTE	PEND
// 035   ----------------------------------------
	BYTE	PATT
	 POIN2	FE15TruthMysteriousDancer_2_034
// 036   ----------------------------------------
FE15TruthMysteriousDancer_2_036:
	BYTE		N11     Cs1   v127
	BYTE	W12
	BYTE		        Gs1   v108
	BYTE	W12
	BYTE		        Gn2 
	BYTE	W12
	BYTE		        Gs2 
	BYTE	W12
	BYTE		        Cn3 
	BYTE	W12
	BYTE		        Gs2 
	BYTE	W12
	BYTE	PEND
// 037   ----------------------------------------
	BYTE	PATT
	 POIN2	FE15TruthMysteriousDancer_2_036
// 038   ----------------------------------------
FE15TruthMysteriousDancer_2_038:
	BYTE		N11     Cn1   v127
	BYTE	W12
	BYTE		        Gn1   v108
	BYTE	W12
	BYTE		        Gn2 
	BYTE	W12
	BYTE		        As2 
	BYTE	W12
	BYTE		        Cn3 
	BYTE	W12
	BYTE		        As2 
	BYTE	W12
	BYTE	PEND
// 039   ----------------------------------------
FE15TruthMysteriousDancer_2_039:
	BYTE	W12
	BYTE		N11     As0   v116
	BYTE		N11     As1   v108
	BYTE	W12
	BYTE		        Ds1   v116
	BYTE		N11     Ds2   v108
	BYTE	W12
	BYTE		        Fn1   v116
	BYTE		N11     Fn2   v108
	BYTE	W12
	BYTE		        Gn1   v116
	BYTE		N11     Gn2   v108
	BYTE	W12
	BYTE		        Gs1   v116
	BYTE		N11     Gs2   v108
	BYTE	W12
	BYTE	PEND
// 040   ----------------------------------------
FE15TruthMysteriousDancer_2_040:
	BYTE		N11     Fn1   v092
	BYTE	W12
	BYTE		        Cn2   v080
	BYTE	W12
	BYTE		N22     Gn2 
	BYTE		N22     Gs2 
	BYTE		N22     Ds3 
	BYTE	W24
	BYTE		        Fn1   v088
	BYTE	W24
	BYTE	PEND
// 041   ----------------------------------------
FE15TruthMysteriousDancer_2_041:
	BYTE		N11     Fn1   v092
	BYTE	W12
	BYTE		        Cn2   v080
	BYTE	W12
	BYTE		N22     As2 
	BYTE		N22     Ds3 
	BYTE		N22     Gn3 
	BYTE	W24
	BYTE		        Fn1   v088
	BYTE	W24
	BYTE	PEND
// 042   ----------------------------------------
	BYTE	PATT
	 POIN2	FE15TruthMysteriousDancer_2_040
// 043   ----------------------------------------
FE15TruthMysteriousDancer_2_043:
	BYTE		N11     Fn1   v092
	BYTE	W12
	BYTE		        Cs2   v080
	BYTE	W12
	BYTE		N22     Fn2 
	BYTE		N22     As2 
	BYTE		N22     Cs3 
	BYTE	W24
	BYTE		        Fn1   v088
	BYTE	W24
	BYTE	PEND
// 044   ----------------------------------------
FE15TruthMysteriousDancer_2_044:
	BYTE		N11     Fn1   v092
	BYTE	W12
	BYTE		        Cn2   v080
	BYTE	W12
	BYTE		N22     Gn2 
	BYTE		N22     Gs2 
	BYTE		N22     Ds3 
	BYTE	W24
	BYTE		        Fn1   v084
	BYTE	W24
	BYTE	PEND
// 045   ----------------------------------------
FE15TruthMysteriousDancer_2_045:
	BYTE		N11     Fn1   v088
	BYTE	W12
	BYTE		        Cn2   v076
	BYTE	W12
	BYTE		N22     As2 
	BYTE		N22     Ds3 
	BYTE		N22     Gn3 
	BYTE	W24
	BYTE		        Fn1   v080
	BYTE	W24
	BYTE	PEND
// 046   ----------------------------------------
FE15TruthMysteriousDancer_2_046:
	BYTE		N11     Fn1   v080
	BYTE	W12
	BYTE		        Cn2   v072
	BYTE	W12
	BYTE		N22     Gn2   v068
	BYTE		N22     Gs2 
	BYTE		N22     Ds3 
	BYTE	W24
	BYTE		        Fn1   v072
	BYTE	W24
	BYTE	PEND
// 047   ----------------------------------------
FE15TruthMysteriousDancer_2_047:
	BYTE		N11     Fn1   v076
	BYTE	W12
	BYTE		        Cn2   v064
	BYTE	W12
	BYTE		N22     Fn2 
	BYTE		N22     As2 
	BYTE		N22     Dn3 
	BYTE	W24
	BYTE		        Fn1   v072
	BYTE	W24
	BYTE	PEND
// 048   ----------------------------------------
	BYTE	PATT
	 POIN2	FE15TruthMysteriousDancer_2_004
// 049   ----------------------------------------
	BYTE	PATT
	 POIN2	FE15TruthMysteriousDancer_2_005
// 050   ----------------------------------------
	BYTE	PATT
	 POIN2	FE15TruthMysteriousDancer_2_004
// 051   ----------------------------------------
	BYTE	PATT
	 POIN2	FE15TruthMysteriousDancer_2_005
// 052   ----------------------------------------
	BYTE	PATT
	 POIN2	FE15TruthMysteriousDancer_2_004
// 053   ----------------------------------------
	BYTE	PATT
	 POIN2	FE15TruthMysteriousDancer_2_005
// 054   ----------------------------------------
	BYTE	PATT
	 POIN2	FE15TruthMysteriousDancer_2_004
// 055   ----------------------------------------
	BYTE	PATT
	 POIN2	FE15TruthMysteriousDancer_2_011
// 056   ----------------------------------------
	BYTE	PATT
	 POIN2	FE15TruthMysteriousDancer_2_012
// 057   ----------------------------------------
	BYTE	PATT
	 POIN2	FE15TruthMysteriousDancer_2_013
// 058   ----------------------------------------
	BYTE	PATT
	 POIN2	FE15TruthMysteriousDancer_2_014
// 059   ----------------------------------------
	BYTE	PATT
	 POIN2	FE15TruthMysteriousDancer_2_015
// 060   ----------------------------------------
	BYTE	PATT
	 POIN2	FE15TruthMysteriousDancer_2_016
// 061   ----------------------------------------
	BYTE	PATT
	 POIN2	FE15TruthMysteriousDancer_2_017
// 062   ----------------------------------------
	BYTE	PATT
	 POIN2	FE15TruthMysteriousDancer_2_018
// 063   ----------------------------------------
	BYTE	PATT
	 POIN2	FE15TruthMysteriousDancer_2_019
// 064   ----------------------------------------
	BYTE	PATT
	 POIN2	FE15TruthMysteriousDancer_2_020
// 065   ----------------------------------------
	BYTE	PATT
	 POIN2	FE15TruthMysteriousDancer_2_021
// 066   ----------------------------------------
	BYTE	PATT
	 POIN2	FE15TruthMysteriousDancer_2_022
// 067   ----------------------------------------
	BYTE	PATT
	 POIN2	FE15TruthMysteriousDancer_2_022
// 068   ----------------------------------------
	BYTE	PATT
	 POIN2	FE15TruthMysteriousDancer_2_022
// 069   ----------------------------------------
	BYTE	PATT
	 POIN2	FE15TruthMysteriousDancer_2_022
// 070   ----------------------------------------
	BYTE	PATT
	 POIN2	FE15TruthMysteriousDancer_2_026
// 071   ----------------------------------------
	BYTE	PATT
	 POIN2	FE15TruthMysteriousDancer_2_026
// 072   ----------------------------------------
	BYTE	PATT
	 POIN2	FE15TruthMysteriousDancer_2_028
// 073   ----------------------------------------
	BYTE	PATT
	 POIN2	FE15TruthMysteriousDancer_2_028
// 074   ----------------------------------------
	BYTE	PATT
	 POIN2	FE15TruthMysteriousDancer_2_030
// 075   ----------------------------------------
	BYTE	PATT
	 POIN2	FE15TruthMysteriousDancer_2_031
// 076   ----------------------------------------
	BYTE	PATT
	 POIN2	FE15TruthMysteriousDancer_2_032
// 077   ----------------------------------------
	BYTE	PATT
	 POIN2	FE15TruthMysteriousDancer_2_032
// 078   ----------------------------------------
	BYTE	PATT
	 POIN2	FE15TruthMysteriousDancer_2_034
// 079   ----------------------------------------
	BYTE	PATT
	 POIN2	FE15TruthMysteriousDancer_2_034
// 080   ----------------------------------------
	BYTE	PATT
	 POIN2	FE15TruthMysteriousDancer_2_036
// 081   ----------------------------------------
	BYTE	PATT
	 POIN2	FE15TruthMysteriousDancer_2_036
// 082   ----------------------------------------
	BYTE	PATT
	 POIN2	FE15TruthMysteriousDancer_2_038
// 083   ----------------------------------------
	BYTE	PATT
	 POIN2	FE15TruthMysteriousDancer_2_039
// 084   ----------------------------------------
	BYTE	PATT
	 POIN2	FE15TruthMysteriousDancer_2_040
// 085   ----------------------------------------
	BYTE	PATT
	 POIN2	FE15TruthMysteriousDancer_2_041
// 086   ----------------------------------------
	BYTE	PATT
	 POIN2	FE15TruthMysteriousDancer_2_040
// 087   ----------------------------------------
	BYTE	PATT
	 POIN2	FE15TruthMysteriousDancer_2_043
// 088   ----------------------------------------
	BYTE	PATT
	 POIN2	FE15TruthMysteriousDancer_2_044
// 089   ----------------------------------------
	BYTE	PATT
	 POIN2	FE15TruthMysteriousDancer_2_045
// 090   ----------------------------------------
	BYTE	PATT
	 POIN2	FE15TruthMysteriousDancer_2_046
// 091   ----------------------------------------
	BYTE	PATT
	 POIN2	FE15TruthMysteriousDancer_2_047
	BYTE	GoTo
	 POIN2	FE15TruthMysteriousDancer_2_B1
FE15TruthMysteriousDancer_2_B2:
// 092   ----------------------------------------
	BYTE	FINE

//**************** Track 3 (Midi-Chn.3) ****************//

FE15TruthMysteriousDancer_3:
	BYTE	KEYSH   FE15TruthMysteriousDancer_key+0
FE15TruthMysteriousDancer_3_B1:
// 000   ----------------------------------------
	BYTE		VOICE   0
	BYTE		PAN     c_v+0
	BYTE		VOL     100*FE15TruthMysteriousDancer_mvl/mxv
	BYTE	W72
// 001   ----------------------------------------
	BYTE	W72
// 002   ----------------------------------------
	BYTE	W72
// 003   ----------------------------------------
	BYTE	W72
// 004   ----------------------------------------
	BYTE	W72
// 005   ----------------------------------------
	BYTE	W72
// 006   ----------------------------------------
	BYTE	W72
// 007   ----------------------------------------
	BYTE	W72
// 008   ----------------------------------------
	BYTE	W72
// 009   ----------------------------------------
	BYTE	W72
// 010   ----------------------------------------
	BYTE	W72
// 011   ----------------------------------------
	BYTE	W72
// 012   ----------------------------------------
	BYTE	W72
// 013   ----------------------------------------
	BYTE	W72
// 014   ----------------------------------------
	BYTE	W72
// 015   ----------------------------------------
	BYTE	W72
// 016   ----------------------------------------
	BYTE	W72
// 017   ----------------------------------------
	BYTE	W72
// 018   ----------------------------------------
	BYTE	W72
// 019   ----------------------------------------
	BYTE	W72
// 020   ----------------------------------------
FE15TruthMysteriousDancer_3_020:
	BYTE		N68     Cn4   v064
	BYTE	W03
	BYTE		        Cn5 
	BYTE	W68
	BYTE	W01
	BYTE	PEND
// 021   ----------------------------------------
FE15TruthMysteriousDancer_3_021:
	BYTE		N11     Gs3   v064
	BYTE	W12
	BYTE		        As3 
	BYTE	W12
	BYTE		N22     Cn4 
	BYTE	W24
	BYTE		        Cs4 
	BYTE	W24
	BYTE	PEND
// 022   ----------------------------------------
	BYTE		N68     Cn4   v072
	BYTE	W72
// 023   ----------------------------------------
FE15TruthMysteriousDancer_3_023:
	BYTE	W48
	BYTE		N11     Fn4   v076
	BYTE	W12
	BYTE		        Cn5 
	BYTE	W12
	BYTE	PEND
// 024   ----------------------------------------
FE15TruthMysteriousDancer_3_024:
	BYTE		N44     Gn4   v076
	BYTE	W48
	BYTE		N11     Gs4 
	BYTE	W12
	BYTE		        As4 
	BYTE	W12
	BYTE	PEND
// 025   ----------------------------------------
FE15TruthMysteriousDancer_3_025:
	BYTE		N22     Gs4   v076
	BYTE	W24
	BYTE		        Gn4 
	BYTE	W24
	BYTE		        Fn4 
	BYTE	W24
	BYTE	PEND
// 026   ----------------------------------------
FE15TruthMysteriousDancer_3_026:
	BYTE		N68     Cn4   v076
	BYTE	W24
	BYTE		N22     As3   v072
	BYTE	W24
	BYTE		        Gs3 
	BYTE	W24
	BYTE	PEND
// 027   ----------------------------------------
FE15TruthMysteriousDancer_3_027:
	BYTE		N22     Gn3   v072
	BYTE		N22     Cn4   v076
	BYTE	W24
	BYTE		        Gs3   v072
	BYTE		N22     Cs4   v076
	BYTE	W24
	BYTE		N44     Gn3   v072
	BYTE		N22     Ds4   v076
	BYTE	W24
	BYTE	PEND
// 028   ----------------------------------------
FE15TruthMysteriousDancer_3_028:
	BYTE		N68     Fn4   v076
	BYTE	W24
	BYTE		N22     Fn3   v072
	BYTE	W24
	BYTE		        Cs4 
	BYTE	W24
	BYTE	PEND
// 029   ----------------------------------------
FE15TruthMysteriousDancer_3_029:
	BYTE		N22     Cs4   v072
	BYTE	W24
	BYTE		        Cn4 
	BYTE		N22     Gn4   v076
	BYTE	W24
	BYTE		        As3   v072
	BYTE		N22     Gs4   v076
	BYTE	W24
	BYTE	PEND
// 030   ----------------------------------------
FE15TruthMysteriousDancer_3_030:
	BYTE		N44     As3   v072
	BYTE		N68     Ds4   v076
	BYTE	W48
	BYTE		N22     Gs3   v072
	BYTE	W24
	BYTE	PEND
// 031   ----------------------------------------
FE15TruthMysteriousDancer_3_031:
	BYTE		N11     Cn3   v064
	BYTE		N11     Gn3   v072
	BYTE	W12
	BYTE		        As2   v088
	BYTE	W12
	BYTE		        Ds3   v096
	BYTE	W12
	BYTE		        Fn3   v108
	BYTE	W12
	BYTE		        Gn3   v120
	BYTE	W12
	BYTE		        Gs3   v127
	BYTE	W12
	BYTE	PEND
// 032   ----------------------------------------
FE15TruthMysteriousDancer_3_032:
	BYTE		N44     Gn3   v127
	BYTE	W24
	BYTE		N22     Gs4   v116
	BYTE		N22     Cn5 
	BYTE		N22     Ds5 
	BYTE	W24
	BYTE		N11     Gs3   v127
	BYTE		N11     Ds4   v108
	BYTE	W12
	BYTE		        As3   v127
	BYTE		N11     Cn4   v108
	BYTE	W12
	BYTE	PEND
// 033   ----------------------------------------
FE15TruthMysteriousDancer_3_033:
	BYTE		N22     Gs3   v127
	BYTE		N22     Ds4   v108
	BYTE	W24
	BYTE		        Gn3   v127
	BYTE		N22     Cn4   v108
	BYTE	W24
	BYTE		        Fn3   v127
	BYTE		N22     Gs3   v108
	BYTE	W24
	BYTE	PEND
// 034   ----------------------------------------
FE15TruthMysteriousDancer_3_034:
	BYTE		N90     Cn3   v127
	BYTE		N11     Cn4   v108
	BYTE	W12
	BYTE		        Ds3 
	BYTE	W12
	BYTE		N11   
	BYTE	W12
	BYTE		        Gs3 
	BYTE	W12
	BYTE		        Fn4   v116
	BYTE	W12
	BYTE		        Cn4   v108
	BYTE	W12
	BYTE	PEND
// 035   ----------------------------------------
FE15TruthMysteriousDancer_3_035:
	BYTE		N11     Gs4   v116
	BYTE	W12
	BYTE		        Gn4 
	BYTE	W12
	BYTE		N22     Cs3   v127
	BYTE		N22     Fn4   v116
	BYTE	W24
	BYTE		        Ds3   v127
	BYTE		N11     Cs4   v108
	BYTE	W12
	BYTE		        Cn4 
	BYTE	W12
	BYTE	PEND
// 036   ----------------------------------------
FE15TruthMysteriousDancer_3_036:
	BYTE		N90     Fn3   v127
	BYTE		N22     Cn4   v108
	BYTE	W24
	BYTE		N11     Fn4   v116
	BYTE		N11     Gs4 
	BYTE		N11     Cn5 
	BYTE	W12
	BYTE		        Cn4   v108
	BYTE	W12
	BYTE		        Fn4 
	BYTE	W12
	BYTE		        Cn4 
	BYTE	W12
	BYTE	PEND
// 037   ----------------------------------------
FE15TruthMysteriousDancer_3_037:
	BYTE		N22     Ds4   v108
	BYTE	W24
	BYTE		        Gn3   v127
	BYTE		N22     Cs4   v108
	BYTE	W24
	BYTE		        Gs3   v127
	BYTE		N22     Cn4   v108
	BYTE	W24
	BYTE	PEND
// 038   ----------------------------------------
FE15TruthMysteriousDancer_3_038:
	BYTE		N68     Ds3   v127
	BYTE		N11     Cn4   v108
	BYTE	W12
	BYTE		        As3 
	BYTE	W12
	BYTE		        Cn4 
	BYTE	W12
	BYTE		        As3 
	BYTE	W12
	BYTE		N22     Gn3 
	BYTE	W24
	BYTE	PEND
// 039   ----------------------------------------
FE15TruthMysteriousDancer_3_039:
	BYTE	W12
	BYTE		N11     As2   v108
	BYTE	W12
	BYTE		        Ds3 
	BYTE	W12
	BYTE		        Fn3 
	BYTE	W12
	BYTE		        Gn3 
	BYTE	W12
	BYTE		        Gs3 
	BYTE	W12
	BYTE	PEND
// 040   ----------------------------------------
	BYTE	W72
// 041   ----------------------------------------
	BYTE	W72
// 042   ----------------------------------------
	BYTE	W72
// 043   ----------------------------------------
	BYTE	W72
// 044   ----------------------------------------
	BYTE	W72
// 045   ----------------------------------------
	BYTE	W72
// 046   ----------------------------------------
	BYTE	W72
// 047   ----------------------------------------
	BYTE	W72
// 048   ----------------------------------------
	BYTE	W72
// 049   ----------------------------------------
	BYTE	W72
// 050   ----------------------------------------
	BYTE	W72
// 051   ----------------------------------------
	BYTE	W72
// 052   ----------------------------------------
	BYTE	W72
// 053   ----------------------------------------
	BYTE	W72
// 054   ----------------------------------------
	BYTE	W72
// 055   ----------------------------------------
	BYTE	W72
// 056   ----------------------------------------
	BYTE	W72
// 057   ----------------------------------------
	BYTE	W72
// 058   ----------------------------------------
	BYTE	W72
// 059   ----------------------------------------
	BYTE	W72
// 060   ----------------------------------------
	BYTE	W72
// 061   ----------------------------------------
	BYTE	W72
// 062   ----------------------------------------
	BYTE	W72
// 063   ----------------------------------------
	BYTE	W72
// 064   ----------------------------------------
	BYTE	PATT
	 POIN2	FE15TruthMysteriousDancer_3_020
// 065   ----------------------------------------
	BYTE	PATT
	 POIN2	FE15TruthMysteriousDancer_3_021
// 066   ----------------------------------------
	BYTE		N68     Cn4   v072
	BYTE	W72
// 067   ----------------------------------------
	BYTE	PATT
	 POIN2	FE15TruthMysteriousDancer_3_023
// 068   ----------------------------------------
	BYTE	PATT
	 POIN2	FE15TruthMysteriousDancer_3_024
// 069   ----------------------------------------
	BYTE	PATT
	 POIN2	FE15TruthMysteriousDancer_3_025
// 070   ----------------------------------------
	BYTE	PATT
	 POIN2	FE15TruthMysteriousDancer_3_026
// 071   ----------------------------------------
	BYTE	PATT
	 POIN2	FE15TruthMysteriousDancer_3_027
// 072   ----------------------------------------
	BYTE	PATT
	 POIN2	FE15TruthMysteriousDancer_3_028
// 073   ----------------------------------------
	BYTE	PATT
	 POIN2	FE15TruthMysteriousDancer_3_029
// 074   ----------------------------------------
	BYTE	PATT
	 POIN2	FE15TruthMysteriousDancer_3_030
// 075   ----------------------------------------
	BYTE	PATT
	 POIN2	FE15TruthMysteriousDancer_3_031
// 076   ----------------------------------------
	BYTE	PATT
	 POIN2	FE15TruthMysteriousDancer_3_032
// 077   ----------------------------------------
	BYTE	PATT
	 POIN2	FE15TruthMysteriousDancer_3_033
// 078   ----------------------------------------
	BYTE	PATT
	 POIN2	FE15TruthMysteriousDancer_3_034
// 079   ----------------------------------------
	BYTE	PATT
	 POIN2	FE15TruthMysteriousDancer_3_035
// 080   ----------------------------------------
	BYTE	PATT
	 POIN2	FE15TruthMysteriousDancer_3_036
// 081   ----------------------------------------
	BYTE	PATT
	 POIN2	FE15TruthMysteriousDancer_3_037
// 082   ----------------------------------------
	BYTE	PATT
	 POIN2	FE15TruthMysteriousDancer_3_038
// 083   ----------------------------------------
	BYTE	PATT
	 POIN2	FE15TruthMysteriousDancer_3_039
// 084   ----------------------------------------
FE15TruthMysteriousDancer_3_084:
	BYTE	W24
	BYTE		N02     Gn3   v072
	BYTE	W02
	BYTE		        Gs3 
	BYTE	W04
	BYTE		        Gn3 
	BYTE	W02
	BYTE		        Gs3 
	BYTE	W04
	BYTE		        Gn3 
	BYTE	W02
	BYTE		        Gs3 
	BYTE	W04
	BYTE		        Gn3 
	BYTE	W02
	BYTE		        Gs3 
	BYTE	W04
	BYTE		        Gn3 
	BYTE	W02
	BYTE		        Gs3 
	BYTE	W04
	BYTE		        Gn3 
	BYTE	W02
	BYTE		        Gs3 
	BYTE	W04
	BYTE		        Gn3 
	BYTE	W02
	BYTE		        Gs3 
	BYTE	W04
	BYTE		        Gn3 
	BYTE	W02
	BYTE		        Gs3 
	BYTE	W04
	BYTE	PEND
// 085   ----------------------------------------
FE15TruthMysteriousDancer_3_085:
	BYTE	W24
	BYTE		N02     As3   v072
	BYTE	W02
	BYTE		        Cn4 
	BYTE	W04
	BYTE		        As3 
	BYTE	W02
	BYTE		        Cn4 
	BYTE	W04
	BYTE		        As3 
	BYTE	W02
	BYTE		        Cn4 
	BYTE	W04
	BYTE		        As3 
	BYTE	W02
	BYTE		        Cn4 
	BYTE	W04
	BYTE		        As3 
	BYTE	W02
	BYTE		        Cn4 
	BYTE	W04
	BYTE		        As3 
	BYTE	W02
	BYTE		        Cn4 
	BYTE	W04
	BYTE		        As3 
	BYTE	W02
	BYTE		        Cn4 
	BYTE	W04
	BYTE		        As3 
	BYTE	W02
	BYTE		        Cn4 
	BYTE	W04
	BYTE	PEND
// 086   ----------------------------------------
	BYTE	PATT
	 POIN2	FE15TruthMysteriousDancer_3_084
// 087   ----------------------------------------
	BYTE	PATT
	 POIN2	FE15TruthMysteriousDancer_3_085
// 088   ----------------------------------------
	BYTE	W24
	BYTE		N02     Gn3   v068
	BYTE	W02
	BYTE		        Gs3 
	BYTE	W04
	BYTE		        Gn3 
	BYTE	W02
	BYTE		        Gs3 
	BYTE	W04
	BYTE		        Gn3 
	BYTE	W02
	BYTE		        Gs3 
	BYTE	W04
	BYTE		        Gn3 
	BYTE	W02
	BYTE		        Gs3 
	BYTE	W04
	BYTE		        Gn3 
	BYTE	W02
	BYTE		        Gs3 
	BYTE	W04
	BYTE		        Gn3 
	BYTE	W02
	BYTE		        Gs3 
	BYTE	W04
	BYTE		        Gn3 
	BYTE	W02
	BYTE		        Gs3 
	BYTE	W04
	BYTE		        Gn3 
	BYTE	W02
	BYTE		        Gs3 
	BYTE	W04
// 089   ----------------------------------------
	BYTE	W24
	BYTE		        As3 
	BYTE	W02
	BYTE		        Cn4 
	BYTE	W04
	BYTE		        As3 
	BYTE	W02
	BYTE		        Cn4 
	BYTE	W04
	BYTE		        As3 
	BYTE	W02
	BYTE		        Cn4 
	BYTE	W04
	BYTE		        As3 
	BYTE	W02
	BYTE		        Cn4 
	BYTE	W04
	BYTE		        As3 
	BYTE	W02
	BYTE		        Cn4 
	BYTE	W04
	BYTE		        As3 
	BYTE	W02
	BYTE		        Cn4 
	BYTE	W04
	BYTE		        As3 
	BYTE	W02
	BYTE		        Cn4 
	BYTE	W04
	BYTE		        As3 
	BYTE	W02
	BYTE		        Cn4 
	BYTE	W04
// 090   ----------------------------------------
	BYTE	W24
	BYTE		        Gn3   v064
	BYTE	W02
	BYTE		        Gs3 
	BYTE	W04
	BYTE		        Gn3 
	BYTE	W02
	BYTE		        Gs3 
	BYTE	W04
	BYTE		        Gn3 
	BYTE	W02
	BYTE		        Gs3 
	BYTE	W04
	BYTE		        Gn3 
	BYTE	W02
	BYTE		        Gs3 
	BYTE	W04
	BYTE		        Gn3 
	BYTE	W02
	BYTE		        Gs3 
	BYTE	W04
	BYTE		        Gn3 
	BYTE	W02
	BYTE		        Gs3 
	BYTE	W04
	BYTE		        Gn3 
	BYTE	W02
	BYTE		        Gs3 
	BYTE	W04
	BYTE		        Gn3 
	BYTE	W02
	BYTE		        Gs3 
	BYTE	W04
// 091   ----------------------------------------
	BYTE	W24
	BYTE		        Fn3 
	BYTE	W02
	BYTE		        Gn3 
	BYTE	W04
	BYTE		        Fn3 
	BYTE	W02
	BYTE		        Gn3 
	BYTE	W04
	BYTE		        Fn3 
	BYTE	W02
	BYTE		        Gn3 
	BYTE	W04
	BYTE		        Fn3 
	BYTE	W02
	BYTE		        Gn3 
	BYTE	W04
	BYTE		        Fn3 
	BYTE	W02
	BYTE		        Gn3 
	BYTE	W04
	BYTE		        Fn3 
	BYTE	W02
	BYTE		        Gn3 
	BYTE	W04
	BYTE		        Fn3 
	BYTE	W02
	BYTE		        Gn3 
	BYTE	W04
	BYTE		        Fn3 
	BYTE	W02
	BYTE		        Gn3 
	BYTE	W04
	BYTE	GoTo
	 POIN2	FE15TruthMysteriousDancer_3_B1
FE15TruthMysteriousDancer_3_B2:
// 092   ----------------------------------------
	BYTE	FINE

//******************************************************//
	ALIGN 4

FE15TruthMysteriousDancer:
	BYTE	3	// NumTrks
	BYTE	0	// NumBlks
	BYTE	FE15TruthMysteriousDancer_pri	// Priority
	BYTE	FE15TruthMysteriousDancer_rev	// Reverb.

	POIN2	FE15TruthMysteriousDancer_grp

	POIN2	FE15TruthMysteriousDancer_1
	POIN2	FE15TruthMysteriousDancer_2
	POIN2	FE15TruthMysteriousDancer_3

	
