	.include "MPlayDef.s"

	.equ	FE15TwilightOfTheGodsSme_grp, voicegroup000
	.equ	FE15TwilightOfTheGodsSme_pri, 0
	.equ	FE15TwilightOfTheGodsSme_rev, 0
	.equ	FE15TwilightOfTheGodsSme_mvl, 75
	.equ	FE15TwilightOfTheGodsSme_key, 0
	.equ	FE15TwilightOfTheGodsSme_tbs, 1
	.equ	FE15TwilightOfTheGodsSme_exg, 0
	.equ	FE15TwilightOfTheGodsSme_cmp, 1

	.section .rodata
	.global	FE15TwilightOfTheGodsSme
	.align	2

@**************** Track 1 (Midi-Chn.1) ****************@

FE15TwilightOfTheGodsSme_1:
	.byte	KEYSH , FE15TwilightOfTheGodsSme_key+0
@ 000   ----------------------------------------
	.byte	TEMPO , 160*FE15TwilightOfTheGodsSme_tbs/2
	.byte		VOICE , 48
	.byte		VOL   , 49*FE15TwilightOfTheGodsSme_mvl/mxv
	.byte		N08   , En3 , v104
	.byte	W16
	.byte		        Gn3 
	.byte	W08
	.byte		        Fs3 
	.byte	W08
	.byte		        Gn3 
	.byte	W08
	.byte		        Fs3 
	.byte	W08
	.byte		        En3 
	.byte	W16
	.byte		        Gn3 
	.byte	W08
	.byte		        Fs3 
	.byte	W08
	.byte		        Gn3 
	.byte	W08
	.byte		        Fs3 
	.byte	W08
@ 001   ----------------------------------------
FE15TwilightOfTheGodsSme_1_001:
	.byte		N08   , En3 , v104
	.byte	W16
	.byte		        Gn3 
	.byte	W08
	.byte		        Fs3 
	.byte	W08
	.byte		        Gn3 
	.byte	W08
	.byte		        Fs3 
	.byte	W08
	.byte		        En3 
	.byte	W08
	.byte		        Fs3 
	.byte	W08
	.byte		        Gn3 
	.byte	W08
	.byte		        An3 
	.byte	W08
	.byte		        Gn3 
	.byte	W08
	.byte		        Fs3 
	.byte	W08
	.byte	PEND
@ 002   ----------------------------------------
FE15TwilightOfTheGodsSme_1_002:
	.byte		N08   , En3 , v104
	.byte	W16
	.byte		        Gn3 
	.byte	W08
	.byte		        Fs3 
	.byte	W08
	.byte		        Gn3 
	.byte	W08
	.byte		        Fs3 
	.byte	W08
	.byte		        En3 
	.byte	W16
	.byte		        Gn3 
	.byte	W08
	.byte		        Fs3 
	.byte	W08
	.byte		        Gn3 
	.byte	W08
	.byte		        Fs3 
	.byte	W08
	.byte	PEND
@ 003   ----------------------------------------
	.byte	PATT
	 .word	FE15TwilightOfTheGodsSme_1_001
@ 004   ----------------------------------------
	.byte	PATT
	 .word	FE15TwilightOfTheGodsSme_1_002
@ 005   ----------------------------------------
	.byte	PATT
	 .word	FE15TwilightOfTheGodsSme_1_001
@ 006   ----------------------------------------
	.byte	PATT
	 .word	FE15TwilightOfTheGodsSme_1_002
@ 007   ----------------------------------------
	.byte	PATT
	 .word	FE15TwilightOfTheGodsSme_1_001
@ 008   ----------------------------------------
	.byte	PATT
	 .word	FE15TwilightOfTheGodsSme_1_002
@ 009   ----------------------------------------
	.byte	PATT
	 .word	FE15TwilightOfTheGodsSme_1_001
@ 010   ----------------------------------------
	.byte	PATT
	 .word	FE15TwilightOfTheGodsSme_1_002
@ 011   ----------------------------------------
	.byte	PATT
	 .word	FE15TwilightOfTheGodsSme_1_001
@ 012   ----------------------------------------
	.byte	PATT
	 .word	FE15TwilightOfTheGodsSme_1_002
@ 013   ----------------------------------------
	.byte	PATT
	 .word	FE15TwilightOfTheGodsSme_1_001
@ 014   ----------------------------------------
	.byte	PATT
	 .word	FE15TwilightOfTheGodsSme_1_002
@ 015   ----------------------------------------
	.byte	PATT
	 .word	FE15TwilightOfTheGodsSme_1_001
@ 016   ----------------------------------------
	.byte	PATT
	 .word	FE15TwilightOfTheGodsSme_1_002
@ 017   ----------------------------------------
	.byte	PATT
	 .word	FE15TwilightOfTheGodsSme_1_001
@ 018   ----------------------------------------
	.byte	PATT
	 .word	FE15TwilightOfTheGodsSme_1_002
@ 019   ----------------------------------------
	.byte	PATT
	 .word	FE15TwilightOfTheGodsSme_1_001
@ 020   ----------------------------------------
	.byte	PATT
	 .word	FE15TwilightOfTheGodsSme_1_002
@ 021   ----------------------------------------
	.byte	PATT
	 .word	FE15TwilightOfTheGodsSme_1_001
@ 022   ----------------------------------------
	.byte	PATT
	 .word	FE15TwilightOfTheGodsSme_1_002
@ 023   ----------------------------------------
	.byte	PATT
	 .word	FE15TwilightOfTheGodsSme_1_001
@ 024   ----------------------------------------
	.byte	PATT
	 .word	FE15TwilightOfTheGodsSme_1_002
@ 025   ----------------------------------------
	.byte	PATT
	 .word	FE15TwilightOfTheGodsSme_1_001
@ 026   ----------------------------------------
	.byte	PATT
	 .word	FE15TwilightOfTheGodsSme_1_002
@ 027   ----------------------------------------
	.byte	PATT
	 .word	FE15TwilightOfTheGodsSme_1_001
@ 028   ----------------------------------------
	.byte	PATT
	 .word	FE15TwilightOfTheGodsSme_1_002
@ 029   ----------------------------------------
	.byte	PATT
	 .word	FE15TwilightOfTheGodsSme_1_001
@ 030   ----------------------------------------
	.byte	PATT
	 .word	FE15TwilightOfTheGodsSme_1_002
@ 031   ----------------------------------------
	.byte	PATT
	 .word	FE15TwilightOfTheGodsSme_1_001
@ 032   ----------------------------------------
	.byte	TEMPO , 104*FE15TwilightOfTheGodsSme_tbs/2
	.byte	W96
@ 033   ----------------------------------------
	.byte	W96
@ 034   ----------------------------------------
	.byte	W96
@ 035   ----------------------------------------
	.byte	W96
@ 036   ----------------------------------------
	.byte	W48
FE15TwilightOfTheGodsSme_1_B1:
@ 037   ----------------------------------------
	.byte	TEMPO , 160*FE15TwilightOfTheGodsSme_tbs/2
	.byte		N08   , En3 , v104
	.byte	W16
	.byte		        Gn3 
	.byte	W08
	.byte		        Fs3 
	.byte	W08
	.byte		        Gn3 
	.byte	W08
	.byte		        Fs3 
	.byte	W08
	.byte		        En3 
	.byte	W16
	.byte		        Gn3 
	.byte	W08
	.byte		        Fs3 
	.byte	W08
	.byte		        Gn3 
	.byte	W08
	.byte		        Fs3 
	.byte	W08
@ 038   ----------------------------------------
	.byte	PATT
	 .word	FE15TwilightOfTheGodsSme_1_001
@ 039   ----------------------------------------
	.byte	PATT
	 .word	FE15TwilightOfTheGodsSme_1_002
@ 040   ----------------------------------------
	.byte	PATT
	 .word	FE15TwilightOfTheGodsSme_1_001
@ 041   ----------------------------------------
	.byte	PATT
	 .word	FE15TwilightOfTheGodsSme_1_002
@ 042   ----------------------------------------
	.byte	PATT
	 .word	FE15TwilightOfTheGodsSme_1_001
@ 043   ----------------------------------------
	.byte	PATT
	 .word	FE15TwilightOfTheGodsSme_1_002
@ 044   ----------------------------------------
	.byte		N08   , En3 , v104
	.byte	W16
	.byte		        Bn2 
	.byte	W08
	.byte		        En3 
	.byte	W08
	.byte		        Fs3 
	.byte	W08
	.byte		        En3 
	.byte	W08
	.byte		N48   , Ds3 
	.byte	W48
@ 045   ----------------------------------------
	.byte		N96   , En3 
	.byte	W96
@ 046   ----------------------------------------
	.byte		        Dn3 
	.byte	W96
@ 047   ----------------------------------------
	.byte		        Bn2 
	.byte	W96
@ 048   ----------------------------------------
	.byte		N96   
	.byte	W96
@ 049   ----------------------------------------
	.byte		        En3 
	.byte	W96
@ 050   ----------------------------------------
	.byte		        Bn2 
	.byte	W96
@ 051   ----------------------------------------
	.byte		        An2 
	.byte	W96
@ 052   ----------------------------------------
	.byte		        Bn2 
	.byte	W96
@ 053   ----------------------------------------
	.byte		        En3 
	.byte	W96
@ 054   ----------------------------------------
	.byte		        Bn2 
	.byte	W96
@ 055   ----------------------------------------
	.byte		N96   
	.byte	W96
@ 056   ----------------------------------------
	.byte		N96   
	.byte	W96
@ 057   ----------------------------------------
	.byte		        En3 
	.byte	W96
@ 058   ----------------------------------------
	.byte		        Bn2 
	.byte	W96
@ 059   ----------------------------------------
	.byte		        An2 
	.byte	W96
@ 060   ----------------------------------------
	.byte		        Bn2 
	.byte	W96
@ 061   ----------------------------------------
	.byte	W96
@ 062   ----------------------------------------
	.byte	W96
@ 063   ----------------------------------------
	.byte	W96
@ 064   ----------------------------------------
	.byte	W96
@ 065   ----------------------------------------
	.byte	W96
@ 066   ----------------------------------------
	.byte	W96
@ 067   ----------------------------------------
	.byte	W96
@ 068   ----------------------------------------
	.byte	W96
@ 069   ----------------------------------------
	.byte	W96
@ 070   ----------------------------------------
	.byte	W96
@ 071   ----------------------------------------
	.byte	W96
@ 072   ----------------------------------------
	.byte	W96
@ 073   ----------------------------------------
	.byte	W96
@ 074   ----------------------------------------
	.byte	W96
@ 075   ----------------------------------------
	.byte	W96
@ 076   ----------------------------------------
	.byte	W96
@ 077   ----------------------------------------
	.byte	W96
@ 078   ----------------------------------------
	.byte	W96
@ 079   ----------------------------------------
	.byte	W96
@ 080   ----------------------------------------
	.byte	W96
	.byte	GOTO
	 .word	FE15TwilightOfTheGodsSme_1_B1
FE15TwilightOfTheGodsSme_1_B2:
@ 081   ----------------------------------------
	.byte	FINE

@**************** Track 2 (Midi-Chn.2) ****************@

FE15TwilightOfTheGodsSme_2:
	.byte	KEYSH , FE15TwilightOfTheGodsSme_key+0
@ 000   ----------------------------------------
	.byte		VOICE , 51
	.byte		VOL   , 59*FE15TwilightOfTheGodsSme_mvl/mxv
	.byte		TIE   , En1 , v104
	.byte	W96
@ 001   ----------------------------------------
	.byte	W96
@ 002   ----------------------------------------
	.byte	W96
@ 003   ----------------------------------------
	.byte	W96
	.byte		EOT   
@ 004   ----------------------------------------
	.byte		TIE   , Cn1 
	.byte	W96
@ 005   ----------------------------------------
	.byte	W96
@ 006   ----------------------------------------
	.byte	W96
@ 007   ----------------------------------------
	.byte	W96
	.byte		EOT   
@ 008   ----------------------------------------
	.byte		TIE   , An0 
	.byte	W96
@ 009   ----------------------------------------
	.byte	W96
@ 010   ----------------------------------------
	.byte	W96
@ 011   ----------------------------------------
	.byte	W96
	.byte		EOT   
@ 012   ----------------------------------------
	.byte		TIE   , Bn0 
	.byte	W96
@ 013   ----------------------------------------
	.byte	W96
@ 014   ----------------------------------------
	.byte	W96
@ 015   ----------------------------------------
	.byte	W96
	.byte		EOT   
@ 016   ----------------------------------------
	.byte		VOL   , 59*FE15TwilightOfTheGodsSme_mvl/mxv
	.byte		TIE   , En1 
	.byte	W96
@ 017   ----------------------------------------
	.byte	W96
@ 018   ----------------------------------------
	.byte	W96
@ 019   ----------------------------------------
	.byte	W96
	.byte		EOT   
@ 020   ----------------------------------------
	.byte		TIE   , Cn1 
	.byte	W96
@ 021   ----------------------------------------
	.byte	W96
@ 022   ----------------------------------------
	.byte	W96
@ 023   ----------------------------------------
	.byte	W96
	.byte		EOT   
@ 024   ----------------------------------------
	.byte		TIE   , An0 
	.byte	W96
@ 025   ----------------------------------------
	.byte	W96
@ 026   ----------------------------------------
	.byte	W96
@ 027   ----------------------------------------
	.byte	W96
	.byte		EOT   
@ 028   ----------------------------------------
	.byte		TIE   , Bn0 
	.byte	W96
@ 029   ----------------------------------------
	.byte	W96
@ 030   ----------------------------------------
	.byte	W96
@ 031   ----------------------------------------
	.byte	W96
	.byte		EOT   
@ 032   ----------------------------------------
FE15TwilightOfTheGodsSme_2_032:
	.byte		N12   , En1 , v104
	.byte	W48
	.byte		        Gn1 
	.byte	W24
	.byte		        Fs1 
	.byte	W24
	.byte	PEND
@ 033   ----------------------------------------
	.byte	PATT
	 .word	FE15TwilightOfTheGodsSme_2_032
@ 034   ----------------------------------------
	.byte	PATT
	 .word	FE15TwilightOfTheGodsSme_2_032
@ 035   ----------------------------------------
	.byte	PATT
	 .word	FE15TwilightOfTheGodsSme_2_032
@ 036   ----------------------------------------
	.byte	W48
FE15TwilightOfTheGodsSme_2_B1:
@ 037   ----------------------------------------
	.byte		TIE   , En1 , v104
	.byte	W96
@ 038   ----------------------------------------
	.byte	W96
	.byte		EOT   
@ 039   ----------------------------------------
	.byte		TIE   , Dn1 
	.byte	W96
@ 040   ----------------------------------------
	.byte	W96
	.byte		EOT   
@ 041   ----------------------------------------
	.byte		TIE   , Cn1 
	.byte	W96
@ 042   ----------------------------------------
	.byte	W96
	.byte		EOT   
@ 043   ----------------------------------------
	.byte		N96   , Dn1 
	.byte	W96
@ 044   ----------------------------------------
	.byte		N48   
	.byte	W48
	.byte		        Ds1 
	.byte	W48
@ 045   ----------------------------------------
	.byte		TIE   , En1 
	.byte	W96
@ 046   ----------------------------------------
	.byte	W96
@ 047   ----------------------------------------
	.byte	W96
@ 048   ----------------------------------------
	.byte	W96
	.byte		EOT   
@ 049   ----------------------------------------
	.byte		TIE   , Cn1 
	.byte	W96
@ 050   ----------------------------------------
	.byte	W96
@ 051   ----------------------------------------
	.byte	W96
@ 052   ----------------------------------------
	.byte	W96
	.byte		EOT   
@ 053   ----------------------------------------
	.byte		TIE   , An0 
	.byte	W96
@ 054   ----------------------------------------
	.byte	W96
@ 055   ----------------------------------------
	.byte	W96
@ 056   ----------------------------------------
	.byte	W96
	.byte		EOT   
@ 057   ----------------------------------------
	.byte		TIE   , Bn0 
	.byte	W96
@ 058   ----------------------------------------
	.byte	W96
@ 059   ----------------------------------------
	.byte	W96
@ 060   ----------------------------------------
	.byte	W96
	.byte		EOT   
@ 061   ----------------------------------------
	.byte		VOL   , 59*FE15TwilightOfTheGodsSme_mvl/mxv
	.byte		TIE   , An0 
	.byte	W96
@ 062   ----------------------------------------
	.byte	W96
@ 063   ----------------------------------------
	.byte	W96
@ 064   ----------------------------------------
	.byte	W96
	.byte		EOT   
@ 065   ----------------------------------------
	.byte		TIE   , Bn0 
	.byte	W96
@ 066   ----------------------------------------
	.byte	W96
@ 067   ----------------------------------------
	.byte	W96
@ 068   ----------------------------------------
	.byte	W96
	.byte		EOT   
@ 069   ----------------------------------------
	.byte		N96   , En1 
	.byte	W96
@ 070   ----------------------------------------
	.byte		        Dn1 
	.byte	W96
@ 071   ----------------------------------------
	.byte		        Cn1 
	.byte	W96
@ 072   ----------------------------------------
	.byte		        Bn0 
	.byte	W96
@ 073   ----------------------------------------
	.byte		        En1 
	.byte	W96
@ 074   ----------------------------------------
	.byte		        Dn1 
	.byte	W96
@ 075   ----------------------------------------
	.byte		        Cn1 
	.byte	W96
@ 076   ----------------------------------------
	.byte		        Bn0 
	.byte	W96
@ 077   ----------------------------------------
	.byte		        En1 
	.byte	W96
@ 078   ----------------------------------------
	.byte		N96   
	.byte	W96
@ 079   ----------------------------------------
	.byte		N96   
	.byte	W96
@ 080   ----------------------------------------
	.byte		        Dn1 
	.byte	W96
	.byte	GOTO
	 .word	FE15TwilightOfTheGodsSme_2_B1
FE15TwilightOfTheGodsSme_2_B2:
@ 081   ----------------------------------------
	.byte	FINE

@**************** Track 3 (Midi-Chn.3) ****************@

FE15TwilightOfTheGodsSme_3:
	.byte	KEYSH , FE15TwilightOfTheGodsSme_key+0
@ 000   ----------------------------------------
	.byte		VOICE , 79
	.byte		VOL   , 55*FE15TwilightOfTheGodsSme_mvl/mxv
	.byte	W96
@ 001   ----------------------------------------
	.byte		TIE   , Bn3 , v104
	.byte		TIE   , Fs4 
	.byte	W96
@ 002   ----------------------------------------
	.byte	W96
@ 003   ----------------------------------------
	.byte	W96
	.byte		EOT   , Bn3 
	.byte		        Fs4 
@ 004   ----------------------------------------
	.byte	W96
@ 005   ----------------------------------------
FE15TwilightOfTheGodsSme_3_005:
	.byte		TIE   , Bn3 , v104
	.byte		TIE   , En4 
	.byte	W96
	.byte	PEND
@ 006   ----------------------------------------
	.byte	W96
@ 007   ----------------------------------------
	.byte	W96
	.byte		EOT   , Bn3 
	.byte		        En4 
@ 008   ----------------------------------------
	.byte	W96
@ 009   ----------------------------------------
	.byte	PATT
	 .word	FE15TwilightOfTheGodsSme_3_005
@ 010   ----------------------------------------
	.byte	W96
@ 011   ----------------------------------------
	.byte	W96
	.byte		EOT   , Bn3 
	.byte		        En4 
@ 012   ----------------------------------------
	.byte	W96
@ 013   ----------------------------------------
	.byte	PATT
	 .word	FE15TwilightOfTheGodsSme_3_005
@ 014   ----------------------------------------
	.byte	W96
@ 015   ----------------------------------------
	.byte	W96
	.byte		EOT   , Bn3 
	.byte		        En4 
@ 016   ----------------------------------------
	.byte	W96
@ 017   ----------------------------------------
	.byte	W96
@ 018   ----------------------------------------
	.byte	W96
@ 019   ----------------------------------------
	.byte	W96
@ 020   ----------------------------------------
	.byte	W96
@ 021   ----------------------------------------
	.byte	W96
@ 022   ----------------------------------------
	.byte	W96
@ 023   ----------------------------------------
	.byte	W96
@ 024   ----------------------------------------
	.byte	W96
@ 025   ----------------------------------------
	.byte	W96
@ 026   ----------------------------------------
	.byte	W96
@ 027   ----------------------------------------
	.byte	W96
@ 028   ----------------------------------------
	.byte	W96
@ 029   ----------------------------------------
	.byte	W96
@ 030   ----------------------------------------
	.byte	W96
@ 031   ----------------------------------------
	.byte	W96
@ 032   ----------------------------------------
	.byte	W96
@ 033   ----------------------------------------
	.byte	W96
@ 034   ----------------------------------------
	.byte	W96
@ 035   ----------------------------------------
	.byte	W96
@ 036   ----------------------------------------
	.byte	W48
FE15TwilightOfTheGodsSme_3_B1:
@ 037   ----------------------------------------
	.byte	W96
@ 038   ----------------------------------------
	.byte	W96
@ 039   ----------------------------------------
	.byte	W96
@ 040   ----------------------------------------
	.byte	W96
@ 041   ----------------------------------------
	.byte	W96
@ 042   ----------------------------------------
	.byte	W96
@ 043   ----------------------------------------
	.byte	W96
@ 044   ----------------------------------------
	.byte	W96
@ 045   ----------------------------------------
	.byte	W96
@ 046   ----------------------------------------
	.byte	W96
@ 047   ----------------------------------------
	.byte	W96
@ 048   ----------------------------------------
	.byte	W96
@ 049   ----------------------------------------
	.byte	W96
@ 050   ----------------------------------------
	.byte	W96
@ 051   ----------------------------------------
	.byte	W96
@ 052   ----------------------------------------
	.byte	W96
@ 053   ----------------------------------------
	.byte	W96
@ 054   ----------------------------------------
	.byte	W96
@ 055   ----------------------------------------
	.byte	W96
@ 056   ----------------------------------------
	.byte	W96
@ 057   ----------------------------------------
	.byte	W96
@ 058   ----------------------------------------
	.byte	W96
@ 059   ----------------------------------------
	.byte	W96
@ 060   ----------------------------------------
	.byte	W96
@ 061   ----------------------------------------
	.byte	W96
@ 062   ----------------------------------------
	.byte	W96
@ 063   ----------------------------------------
	.byte	W96
@ 064   ----------------------------------------
	.byte	W96
@ 065   ----------------------------------------
	.byte	W96
@ 066   ----------------------------------------
	.byte	W96
@ 067   ----------------------------------------
	.byte	W96
@ 068   ----------------------------------------
	.byte	W96
@ 069   ----------------------------------------
	.byte	W96
@ 070   ----------------------------------------
	.byte	W96
@ 071   ----------------------------------------
	.byte	W96
@ 072   ----------------------------------------
	.byte	W96
@ 073   ----------------------------------------
	.byte	W96
@ 074   ----------------------------------------
	.byte	W96
@ 075   ----------------------------------------
	.byte	W96
@ 076   ----------------------------------------
	.byte	W96
@ 077   ----------------------------------------
	.byte	W96
@ 078   ----------------------------------------
	.byte	W96
@ 079   ----------------------------------------
	.byte	W96
@ 080   ----------------------------------------
	.byte	W96
	.byte	GOTO
	 .word	FE15TwilightOfTheGodsSme_3_B1
FE15TwilightOfTheGodsSme_3_B2:
@ 081   ----------------------------------------
	.byte	FINE

@**************** Track 4 (Midi-Chn.4) ****************@

FE15TwilightOfTheGodsSme_4:
	.byte	KEYSH , FE15TwilightOfTheGodsSme_key+0
@ 000   ----------------------------------------
	.byte		VOICE , 52
	.byte		VOL   , 80*FE15TwilightOfTheGodsSme_mvl/mxv
	.byte	W96
@ 001   ----------------------------------------
	.byte	W96
@ 002   ----------------------------------------
	.byte	W96
@ 003   ----------------------------------------
	.byte	W96
@ 004   ----------------------------------------
	.byte	W96
@ 005   ----------------------------------------
	.byte	W96
@ 006   ----------------------------------------
	.byte	W96
@ 007   ----------------------------------------
	.byte	W96
@ 008   ----------------------------------------
	.byte	W96
@ 009   ----------------------------------------
	.byte	W96
@ 010   ----------------------------------------
	.byte	W96
@ 011   ----------------------------------------
	.byte	W96
@ 012   ----------------------------------------
	.byte	W96
@ 013   ----------------------------------------
	.byte	W96
@ 014   ----------------------------------------
	.byte	W96
@ 015   ----------------------------------------
	.byte	W96
@ 016   ----------------------------------------
FE15TwilightOfTheGodsSme_4_016:
	.byte	W24
	.byte		N24   , En4 , v104
	.byte	W24
	.byte		        Dn4 
	.byte	W24
	.byte		        An3 
	.byte	W24
	.byte	PEND
@ 017   ----------------------------------------
FE15TwilightOfTheGodsSme_4_017:
	.byte		N48   , Bn3 , v104
	.byte	W48
	.byte		N24   , Gn2 
	.byte	W24
	.byte		        An2 
	.byte	W24
	.byte	PEND
@ 018   ----------------------------------------
FE15TwilightOfTheGodsSme_4_018:
	.byte		N48   , Bn2 , v104
	.byte	W48
	.byte		        Gn3 
	.byte	W48
	.byte	PEND
@ 019   ----------------------------------------
FE15TwilightOfTheGodsSme_4_019:
	.byte		N48   , Fs3 , v104
	.byte	W48
	.byte		        Dn3 
	.byte	W48
	.byte	PEND
@ 020   ----------------------------------------
	.byte	PATT
	 .word	FE15TwilightOfTheGodsSme_4_016
@ 021   ----------------------------------------
	.byte	PATT
	 .word	FE15TwilightOfTheGodsSme_4_017
@ 022   ----------------------------------------
	.byte		N48   , Bn2 , v104
	.byte	W48
	.byte		        Cn3 
	.byte	W48
@ 023   ----------------------------------------
	.byte		        Bn2 
	.byte	W48
	.byte		        Gn2 
	.byte	W48
@ 024   ----------------------------------------
	.byte	PATT
	 .word	FE15TwilightOfTheGodsSme_4_016
@ 025   ----------------------------------------
	.byte	PATT
	 .word	FE15TwilightOfTheGodsSme_4_017
@ 026   ----------------------------------------
	.byte	PATT
	 .word	FE15TwilightOfTheGodsSme_4_018
@ 027   ----------------------------------------
	.byte	PATT
	 .word	FE15TwilightOfTheGodsSme_4_019
@ 028   ----------------------------------------
	.byte	PATT
	 .word	FE15TwilightOfTheGodsSme_4_016
@ 029   ----------------------------------------
	.byte	PATT
	 .word	FE15TwilightOfTheGodsSme_4_017
@ 030   ----------------------------------------
	.byte		N48   , Bn2 , v104
	.byte	W48
	.byte		        En3 
	.byte	W48
@ 031   ----------------------------------------
	.byte		        Ds3 
	.byte	W48
	.byte		        Bn2 
	.byte	W48
@ 032   ----------------------------------------
	.byte		TIE   , En4 
	.byte	W96
@ 033   ----------------------------------------
	.byte	W96
@ 034   ----------------------------------------
	.byte	W12
	.byte		EOT   
	.byte	W84
@ 035   ----------------------------------------
	.byte	W96
@ 036   ----------------------------------------
	.byte	W48
FE15TwilightOfTheGodsSme_4_B1:
@ 037   ----------------------------------------
	.byte	W96
@ 038   ----------------------------------------
	.byte	W96
@ 039   ----------------------------------------
	.byte	W96
@ 040   ----------------------------------------
	.byte	W96
@ 041   ----------------------------------------
	.byte	W96
@ 042   ----------------------------------------
	.byte	W96
@ 043   ----------------------------------------
	.byte	W96
@ 044   ----------------------------------------
	.byte	W96
@ 045   ----------------------------------------
	.byte	PATT
	 .word	FE15TwilightOfTheGodsSme_4_016
@ 046   ----------------------------------------
FE15TwilightOfTheGodsSme_4_046:
	.byte		N48   , Bn3 , v104
	.byte	W48
	.byte		N24   , Gn3 
	.byte	W24
	.byte		        An3 
	.byte	W24
	.byte	PEND
@ 047   ----------------------------------------
FE15TwilightOfTheGodsSme_4_047:
	.byte		N48   , Bn3 , v104
	.byte	W48
	.byte		        Gn4 
	.byte	W48
	.byte	PEND
@ 048   ----------------------------------------
FE15TwilightOfTheGodsSme_4_048:
	.byte		N48   , Fs4 , v104
	.byte	W48
	.byte		        Dn4 
	.byte	W48
	.byte	PEND
@ 049   ----------------------------------------
	.byte	PATT
	 .word	FE15TwilightOfTheGodsSme_4_016
@ 050   ----------------------------------------
	.byte	PATT
	 .word	FE15TwilightOfTheGodsSme_4_046
@ 051   ----------------------------------------
FE15TwilightOfTheGodsSme_4_051:
	.byte		N48   , Bn3 , v104
	.byte	W48
	.byte		        Cn4 
	.byte	W48
	.byte	PEND
@ 052   ----------------------------------------
	.byte		        Bn3 
	.byte	W48
	.byte		        Gn3 
	.byte	W48
@ 053   ----------------------------------------
	.byte	PATT
	 .word	FE15TwilightOfTheGodsSme_4_016
@ 054   ----------------------------------------
	.byte	PATT
	 .word	FE15TwilightOfTheGodsSme_4_046
@ 055   ----------------------------------------
	.byte	PATT
	 .word	FE15TwilightOfTheGodsSme_4_047
@ 056   ----------------------------------------
	.byte	PATT
	 .word	FE15TwilightOfTheGodsSme_4_048
@ 057   ----------------------------------------
	.byte	PATT
	 .word	FE15TwilightOfTheGodsSme_4_016
@ 058   ----------------------------------------
	.byte	PATT
	 .word	FE15TwilightOfTheGodsSme_4_046
@ 059   ----------------------------------------
	.byte	PATT
	 .word	FE15TwilightOfTheGodsSme_4_051
@ 060   ----------------------------------------
FE15TwilightOfTheGodsSme_4_060:
	.byte		N48   , Bn3 , v104
	.byte	W48
	.byte		        An3 
	.byte	W48
	.byte	PEND
@ 061   ----------------------------------------
FE15TwilightOfTheGodsSme_4_061:
	.byte		N48   , An3 , v104
	.byte	W48
	.byte		N96   , Gn3 
	.byte	W48
	.byte	PEND
@ 062   ----------------------------------------
FE15TwilightOfTheGodsSme_4_062:
	.byte	W48
	.byte		N16   , En3 , v104
	.byte	W16
	.byte		        Fs3 
	.byte	W16
	.byte		        Gn3 
	.byte	W16
	.byte	PEND
@ 063   ----------------------------------------
	.byte		N48   , An3 
	.byte	W48
	.byte		        Gn3 
	.byte	W48
@ 064   ----------------------------------------
	.byte	PATT
	 .word	FE15TwilightOfTheGodsSme_4_019
@ 065   ----------------------------------------
	.byte	PATT
	 .word	FE15TwilightOfTheGodsSme_4_061
@ 066   ----------------------------------------
	.byte	PATT
	 .word	FE15TwilightOfTheGodsSme_4_062
@ 067   ----------------------------------------
	.byte	PATT
	 .word	FE15TwilightOfTheGodsSme_4_060
@ 068   ----------------------------------------
	.byte		N48   , Bn3 , v104
	.byte	W48
	.byte		N16   , Gn3 
	.byte	W16
	.byte		        An3 
	.byte	W16
	.byte		        Bn3 
	.byte	W16
@ 069   ----------------------------------------
FE15TwilightOfTheGodsSme_4_069:
	.byte		N48   , En4 , v104
	.byte	W48
	.byte		N16   , Gn3 
	.byte	W16
	.byte		        An3 
	.byte	W16
	.byte		        Bn3 
	.byte	W16
	.byte	PEND
@ 070   ----------------------------------------
FE15TwilightOfTheGodsSme_4_070:
	.byte		N48   , Dn4 , v104
	.byte	W48
	.byte		N16   , En3 
	.byte	W16
	.byte		        Gn3 
	.byte	W16
	.byte		        An3 
	.byte	W16
	.byte	PEND
@ 071   ----------------------------------------
FE15TwilightOfTheGodsSme_4_071:
	.byte		N48   , Dn4 , v104
	.byte	W48
	.byte		N16   , Dn3 
	.byte	W16
	.byte		        Fs3 
	.byte	W16
	.byte		        An3 
	.byte	W16
	.byte	PEND
@ 072   ----------------------------------------
	.byte		N24   , En4 
	.byte	W24
	.byte		        Dn4 
	.byte	W24
	.byte		N16   , Gn3 
	.byte	W16
	.byte		        An3 
	.byte	W16
	.byte		        Bn3 
	.byte	W16
@ 073   ----------------------------------------
	.byte	PATT
	 .word	FE15TwilightOfTheGodsSme_4_069
@ 074   ----------------------------------------
	.byte	PATT
	 .word	FE15TwilightOfTheGodsSme_4_070
@ 075   ----------------------------------------
	.byte	PATT
	 .word	FE15TwilightOfTheGodsSme_4_071
@ 076   ----------------------------------------
	.byte		N24   , En4 , v104
	.byte	W24
	.byte		        Dn4 
	.byte	W24
	.byte		N16   , Dn3 
	.byte	W16
	.byte		        Fs3 
	.byte	W16
	.byte		        An3 
	.byte	W16
@ 077   ----------------------------------------
	.byte		N24   , En4 
	.byte	W96
@ 078   ----------------------------------------
	.byte		N24   
	.byte	W96
@ 079   ----------------------------------------
	.byte		N24   
	.byte	W96
@ 080   ----------------------------------------
	.byte		N24   
	.byte	W96
	.byte	GOTO
	 .word	FE15TwilightOfTheGodsSme_4_B1
FE15TwilightOfTheGodsSme_4_B2:
@ 081   ----------------------------------------
	.byte	FINE

@**************** Track 5 (Midi-Chn.5) ****************@

FE15TwilightOfTheGodsSme_5:
	.byte	KEYSH , FE15TwilightOfTheGodsSme_key+0
@ 000   ----------------------------------------
	.byte		VOICE , 1
	.byte		VOL   , 68*FE15TwilightOfTheGodsSme_mvl/mxv
	.byte		N96   , En2 , v104
	.byte	W96
@ 001   ----------------------------------------
	.byte		TIE   , Bn2 
	.byte		TIE   , Dn3 
	.byte	W96
@ 002   ----------------------------------------
	.byte	W96
@ 003   ----------------------------------------
	.byte	W96
	.byte		EOT   , Bn2 
	.byte		        Dn3 
@ 004   ----------------------------------------
	.byte		N96   , Cn2 
	.byte	W96
@ 005   ----------------------------------------
FE15TwilightOfTheGodsSme_5_005:
	.byte		TIE   , Gn2 , v104
	.byte		TIE   , Bn2 
	.byte	W96
	.byte	PEND
@ 006   ----------------------------------------
	.byte	W96
@ 007   ----------------------------------------
	.byte	W96
	.byte		EOT   , Gn2 
	.byte		        Bn2 
@ 008   ----------------------------------------
	.byte		N96   , An1 
	.byte	W96
@ 009   ----------------------------------------
	.byte	PATT
	 .word	FE15TwilightOfTheGodsSme_5_005
@ 010   ----------------------------------------
	.byte	W96
@ 011   ----------------------------------------
	.byte	W96
	.byte		EOT   , Gn2 
	.byte		        Bn2 
@ 012   ----------------------------------------
	.byte		N96   , Bn1 , v104
	.byte	W96
@ 013   ----------------------------------------
	.byte	PATT
	 .word	FE15TwilightOfTheGodsSme_5_005
@ 014   ----------------------------------------
	.byte	W96
@ 015   ----------------------------------------
	.byte	W96
	.byte		EOT   , Gn2 
	.byte		        Bn2 
@ 016   ----------------------------------------
	.byte	W96
@ 017   ----------------------------------------
	.byte	W96
@ 018   ----------------------------------------
	.byte	W96
@ 019   ----------------------------------------
	.byte	W96
@ 020   ----------------------------------------
	.byte	W96
@ 021   ----------------------------------------
	.byte	W96
@ 022   ----------------------------------------
	.byte	W96
@ 023   ----------------------------------------
	.byte	W96
@ 024   ----------------------------------------
	.byte	W96
@ 025   ----------------------------------------
	.byte	W96
@ 026   ----------------------------------------
	.byte	W96
@ 027   ----------------------------------------
	.byte	W96
@ 028   ----------------------------------------
	.byte	W96
@ 029   ----------------------------------------
	.byte	W96
@ 030   ----------------------------------------
	.byte	W96
@ 031   ----------------------------------------
	.byte	W96
@ 032   ----------------------------------------
	.byte	W96
@ 033   ----------------------------------------
	.byte	W96
@ 034   ----------------------------------------
	.byte	W96
@ 035   ----------------------------------------
	.byte	W96
@ 036   ----------------------------------------
	.byte	W48
FE15TwilightOfTheGodsSme_5_B1:
@ 037   ----------------------------------------
	.byte	W96
@ 038   ----------------------------------------
	.byte	W96
@ 039   ----------------------------------------
	.byte	W96
@ 040   ----------------------------------------
	.byte	W96
@ 041   ----------------------------------------
	.byte	W96
@ 042   ----------------------------------------
	.byte	W96
@ 043   ----------------------------------------
	.byte	W96
@ 044   ----------------------------------------
	.byte	W96
@ 045   ----------------------------------------
	.byte	W96
@ 046   ----------------------------------------
	.byte	W96
@ 047   ----------------------------------------
	.byte	W96
@ 048   ----------------------------------------
	.byte	W96
@ 049   ----------------------------------------
	.byte	W96
@ 050   ----------------------------------------
	.byte	W96
@ 051   ----------------------------------------
	.byte	W96
@ 052   ----------------------------------------
	.byte	W96
@ 053   ----------------------------------------
	.byte	W96
@ 054   ----------------------------------------
	.byte	W96
@ 055   ----------------------------------------
	.byte	W96
@ 056   ----------------------------------------
	.byte	W96
@ 057   ----------------------------------------
	.byte	W96
@ 058   ----------------------------------------
	.byte	W96
@ 059   ----------------------------------------
	.byte	W96
@ 060   ----------------------------------------
	.byte	W96
@ 061   ----------------------------------------
	.byte	W96
@ 062   ----------------------------------------
	.byte	W96
@ 063   ----------------------------------------
	.byte	W96
@ 064   ----------------------------------------
	.byte	W96
@ 065   ----------------------------------------
	.byte	W96
@ 066   ----------------------------------------
	.byte	W96
@ 067   ----------------------------------------
	.byte	W96
@ 068   ----------------------------------------
	.byte	W96
@ 069   ----------------------------------------
	.byte	W96
@ 070   ----------------------------------------
	.byte	W96
@ 071   ----------------------------------------
	.byte	W96
@ 072   ----------------------------------------
	.byte	W96
@ 073   ----------------------------------------
	.byte	W96
@ 074   ----------------------------------------
	.byte	W96
@ 075   ----------------------------------------
	.byte	W96
@ 076   ----------------------------------------
	.byte	W96
@ 077   ----------------------------------------
	.byte	W96
@ 078   ----------------------------------------
	.byte	W96
@ 079   ----------------------------------------
	.byte	W96
@ 080   ----------------------------------------
	.byte	W96
	.byte	GOTO
	 .word	FE15TwilightOfTheGodsSme_5_B1
FE15TwilightOfTheGodsSme_5_B2:
@ 081   ----------------------------------------
	.byte	FINE

@**************** Track 6 (Midi-Chn.6) ****************@

FE15TwilightOfTheGodsSme_6:
	.byte	KEYSH , FE15TwilightOfTheGodsSme_key+0
@ 000   ----------------------------------------
	.byte		VOICE , 123
	.byte		VOL   , 78*FE15TwilightOfTheGodsSme_mvl/mxv
	.byte		N96   , En2 , v104
	.byte	W96
@ 001   ----------------------------------------
	.byte	W96
@ 002   ----------------------------------------
	.byte	W96
@ 003   ----------------------------------------
	.byte	W96
@ 004   ----------------------------------------
	.byte	W96
@ 005   ----------------------------------------
	.byte	W96
@ 006   ----------------------------------------
	.byte	W96
@ 007   ----------------------------------------
	.byte	W96
@ 008   ----------------------------------------
	.byte	W96
@ 009   ----------------------------------------
	.byte	W96
@ 010   ----------------------------------------
	.byte	W96
@ 011   ----------------------------------------
	.byte	W96
@ 012   ----------------------------------------
	.byte	W96
@ 013   ----------------------------------------
	.byte	W96
@ 014   ----------------------------------------
	.byte	W96
@ 015   ----------------------------------------
	.byte	W48
	.byte		N03   , Cn1 , v016
	.byte	W03
	.byte		        Cn1 , v020
	.byte	W03
	.byte		        Cn1 , v028
	.byte	W03
	.byte		        Cn1 , v032
	.byte	W03
	.byte		        Cn1 , v040
	.byte	W03
	.byte		        Cn1 , v048
	.byte	W03
	.byte		        Cn1 , v052
	.byte	W03
	.byte		        Cn1 , v060
	.byte	W03
	.byte		        Cn1 , v064
	.byte	W03
	.byte		        Cn1 , v072
	.byte	W03
	.byte		        Cn1 , v076
	.byte	W03
	.byte		        Cn1 , v084
	.byte	W03
	.byte		        Cn1 , v092
	.byte	W03
	.byte		        Cn1 , v096
	.byte	W03
	.byte		        Cn1 , v104
	.byte	W03
	.byte		N03   
	.byte	W03
@ 016   ----------------------------------------
FE15TwilightOfTheGodsSme_6_016:
	.byte		N48   , Cn1 , v104
	.byte		N48   , Cs2 
	.byte	W48
	.byte		N16   , Dn1 , v064
	.byte	W16
	.byte		        Dn1 , v040
	.byte	W32
	.byte	PEND
@ 017   ----------------------------------------
FE15TwilightOfTheGodsSme_6_017:
	.byte	W48
	.byte		N16   , Dn1 , v064
	.byte	W16
	.byte		        Dn1 , v040
	.byte	W32
	.byte	PEND
@ 018   ----------------------------------------
	.byte	PATT
	 .word	FE15TwilightOfTheGodsSme_6_017
@ 019   ----------------------------------------
FE15TwilightOfTheGodsSme_6_019:
	.byte	W48
	.byte		N16   , Dn1 , v064
	.byte	W16
	.byte		        Dn1 , v040
	.byte	W16
	.byte		        Ds1 , v064
	.byte	W16
	.byte	PEND
@ 020   ----------------------------------------
	.byte	PATT
	 .word	FE15TwilightOfTheGodsSme_6_016
@ 021   ----------------------------------------
	.byte	PATT
	 .word	FE15TwilightOfTheGodsSme_6_017
@ 022   ----------------------------------------
	.byte	PATT
	 .word	FE15TwilightOfTheGodsSme_6_017
@ 023   ----------------------------------------
	.byte	PATT
	 .word	FE15TwilightOfTheGodsSme_6_019
@ 024   ----------------------------------------
	.byte	PATT
	 .word	FE15TwilightOfTheGodsSme_6_016
@ 025   ----------------------------------------
	.byte	PATT
	 .word	FE15TwilightOfTheGodsSme_6_017
@ 026   ----------------------------------------
	.byte	PATT
	 .word	FE15TwilightOfTheGodsSme_6_017
@ 027   ----------------------------------------
	.byte	PATT
	 .word	FE15TwilightOfTheGodsSme_6_019
@ 028   ----------------------------------------
	.byte	PATT
	 .word	FE15TwilightOfTheGodsSme_6_016
@ 029   ----------------------------------------
	.byte	PATT
	 .word	FE15TwilightOfTheGodsSme_6_017
@ 030   ----------------------------------------
	.byte	PATT
	 .word	FE15TwilightOfTheGodsSme_6_017
@ 031   ----------------------------------------
	.byte	PATT
	 .word	FE15TwilightOfTheGodsSme_6_019
@ 032   ----------------------------------------
	.byte		N48   , Cn1 , v104
	.byte		N48   , Cs2 
	.byte	W96
@ 033   ----------------------------------------
	.byte	W96
@ 034   ----------------------------------------
	.byte	W96
@ 035   ----------------------------------------
	.byte	W96
@ 036   ----------------------------------------
	.byte		        En2 
	.byte	W48
FE15TwilightOfTheGodsSme_6_B1:
@ 037   ----------------------------------------
FE15TwilightOfTheGodsSme_6_037:
	.byte		N48   , Cn1 , v104
	.byte		N96   , Cs2 
	.byte	W48
	.byte		N48   , Cn1 
	.byte	W48
	.byte	PEND
@ 038   ----------------------------------------
FE15TwilightOfTheGodsSme_6_038:
	.byte		N48   , Cn1 , v104
	.byte	W48
	.byte		N48   
	.byte	W48
	.byte	PEND
@ 039   ----------------------------------------
	.byte	PATT
	 .word	FE15TwilightOfTheGodsSme_6_037
@ 040   ----------------------------------------
	.byte	PATT
	 .word	FE15TwilightOfTheGodsSme_6_038
@ 041   ----------------------------------------
	.byte	PATT
	 .word	FE15TwilightOfTheGodsSme_6_037
@ 042   ----------------------------------------
	.byte	PATT
	 .word	FE15TwilightOfTheGodsSme_6_038
@ 043   ----------------------------------------
	.byte	PATT
	 .word	FE15TwilightOfTheGodsSme_6_037
@ 044   ----------------------------------------
	.byte		N48   , Cn1 , v104
	.byte	W24
	.byte		N96   , En2 
	.byte	W24
	.byte		N48   , Cn1 
	.byte	W48
@ 045   ----------------------------------------
	.byte	W24
	.byte		N96   , Cs2 
	.byte	W72
@ 046   ----------------------------------------
	.byte	W96
@ 047   ----------------------------------------
	.byte	W96
@ 048   ----------------------------------------
	.byte	W96
@ 049   ----------------------------------------
	.byte		N96   
	.byte	W96
@ 050   ----------------------------------------
	.byte	W96
@ 051   ----------------------------------------
	.byte	W96
@ 052   ----------------------------------------
	.byte	W96
@ 053   ----------------------------------------
	.byte		N96   
	.byte	W96
@ 054   ----------------------------------------
	.byte	W96
@ 055   ----------------------------------------
	.byte	W96
@ 056   ----------------------------------------
	.byte	W96
@ 057   ----------------------------------------
	.byte		N96   
	.byte	W96
@ 058   ----------------------------------------
	.byte	W96
@ 059   ----------------------------------------
	.byte	W96
@ 060   ----------------------------------------
	.byte	W96
@ 061   ----------------------------------------
FE15TwilightOfTheGodsSme_6_061:
	.byte		N24   , Cn1 , v104
	.byte	W24
	.byte		N24   
	.byte	W24
	.byte		N24   
	.byte	W24
	.byte		N24   
	.byte	W24
	.byte	PEND
@ 062   ----------------------------------------
	.byte	PATT
	 .word	FE15TwilightOfTheGodsSme_6_061
@ 063   ----------------------------------------
	.byte	PATT
	 .word	FE15TwilightOfTheGodsSme_6_061
@ 064   ----------------------------------------
	.byte	PATT
	 .word	FE15TwilightOfTheGodsSme_6_061
@ 065   ----------------------------------------
	.byte	PATT
	 .word	FE15TwilightOfTheGodsSme_6_061
@ 066   ----------------------------------------
	.byte	PATT
	 .word	FE15TwilightOfTheGodsSme_6_061
@ 067   ----------------------------------------
	.byte	PATT
	 .word	FE15TwilightOfTheGodsSme_6_061
@ 068   ----------------------------------------
	.byte	PATT
	 .word	FE15TwilightOfTheGodsSme_6_061
@ 069   ----------------------------------------
	.byte	PATT
	 .word	FE15TwilightOfTheGodsSme_6_037
@ 070   ----------------------------------------
	.byte	PATT
	 .word	FE15TwilightOfTheGodsSme_6_037
@ 071   ----------------------------------------
	.byte	PATT
	 .word	FE15TwilightOfTheGodsSme_6_037
@ 072   ----------------------------------------
	.byte	PATT
	 .word	FE15TwilightOfTheGodsSme_6_037
@ 073   ----------------------------------------
	.byte	PATT
	 .word	FE15TwilightOfTheGodsSme_6_037
@ 074   ----------------------------------------
	.byte	PATT
	 .word	FE15TwilightOfTheGodsSme_6_037
@ 075   ----------------------------------------
	.byte	PATT
	 .word	FE15TwilightOfTheGodsSme_6_037
@ 076   ----------------------------------------
	.byte	PATT
	 .word	FE15TwilightOfTheGodsSme_6_037
@ 077   ----------------------------------------
	.byte		N48   , Cn1 , v104
	.byte		N48   , Cs2 
	.byte	W96
@ 078   ----------------------------------------
	.byte		        Cn1 
	.byte		N48   , Cs2 
	.byte	W96
@ 079   ----------------------------------------
	.byte		        Cn1 
	.byte		N48   , Cs2 
	.byte	W96
@ 080   ----------------------------------------
	.byte		        Cn1 
	.byte		N48   , Cs2 
	.byte	W96
	.byte	GOTO
	 .word	FE15TwilightOfTheGodsSme_6_B1
FE15TwilightOfTheGodsSme_6_B2:
@ 081   ----------------------------------------
	.byte	FINE

@**************** Track 7 (Midi-Chn.7) ****************@

FE15TwilightOfTheGodsSme_7:
	.byte	KEYSH , FE15TwilightOfTheGodsSme_key+0
@ 000   ----------------------------------------
	.byte		VOICE , 1
	.byte		VOL   , 71*FE15TwilightOfTheGodsSme_mvl/mxv
	.byte	W96
@ 001   ----------------------------------------
	.byte	W96
@ 002   ----------------------------------------
	.byte	W96
@ 003   ----------------------------------------
	.byte	W96
@ 004   ----------------------------------------
	.byte	W96
@ 005   ----------------------------------------
	.byte	W96
@ 006   ----------------------------------------
	.byte	W96
@ 007   ----------------------------------------
	.byte	W96
@ 008   ----------------------------------------
	.byte	W96
@ 009   ----------------------------------------
	.byte	W96
@ 010   ----------------------------------------
	.byte	W96
@ 011   ----------------------------------------
	.byte	W96
@ 012   ----------------------------------------
	.byte	W96
@ 013   ----------------------------------------
	.byte	W96
@ 014   ----------------------------------------
	.byte	W96
@ 015   ----------------------------------------
	.byte	W96
@ 016   ----------------------------------------
	.byte	W96
@ 017   ----------------------------------------
	.byte	W96
@ 018   ----------------------------------------
	.byte	W96
@ 019   ----------------------------------------
	.byte	W96
@ 020   ----------------------------------------
	.byte	W96
@ 021   ----------------------------------------
	.byte	W96
@ 022   ----------------------------------------
	.byte	W96
@ 023   ----------------------------------------
	.byte	W96
@ 024   ----------------------------------------
	.byte	W96
@ 025   ----------------------------------------
	.byte	W96
@ 026   ----------------------------------------
	.byte	W96
@ 027   ----------------------------------------
	.byte	W96
@ 028   ----------------------------------------
	.byte	W96
@ 029   ----------------------------------------
	.byte	W96
@ 030   ----------------------------------------
	.byte	W96
@ 031   ----------------------------------------
	.byte	W96
@ 032   ----------------------------------------
FE15TwilightOfTheGodsSme_7_032:
	.byte		N04   , Bn2 , v104
	.byte	W04
	.byte		        En3 
	.byte	W04
	.byte		        Fs3 
	.byte	W04
	.byte		        Gn3 
	.byte	W04
	.byte		        Dn4 
	.byte	W04
	.byte		        An3 
	.byte	W04
	.byte		        Gn3 
	.byte	W04
	.byte		        Fs3 
	.byte	W04
	.byte		        Gn3 
	.byte	W04
	.byte		        Fs3 
	.byte	W04
	.byte		        En3 
	.byte	W04
	.byte		        Fs3 
	.byte	W04
	.byte		        En3 
	.byte	W04
	.byte		        An2 
	.byte	W04
	.byte		        En3 
	.byte	W04
	.byte		        Fs3 
	.byte	W04
	.byte		        Bn2 
	.byte	W04
	.byte		        Fs3 
	.byte	W04
	.byte		        Gn3 
	.byte	W04
	.byte		        An2 
	.byte	W04
	.byte		        Gn3 
	.byte	W04
	.byte		N04   
	.byte	W04
	.byte		        Fs3 
	.byte	W04
	.byte		        Dn3 
	.byte	W04
	.byte	PEND
@ 033   ----------------------------------------
	.byte	PATT
	 .word	FE15TwilightOfTheGodsSme_7_032
@ 034   ----------------------------------------
	.byte	PATT
	 .word	FE15TwilightOfTheGodsSme_7_032
@ 035   ----------------------------------------
	.byte	PATT
	 .word	FE15TwilightOfTheGodsSme_7_032
@ 036   ----------------------------------------
	.byte		N04   , Fs5 , v104
	.byte	W04
	.byte		        An4 
	.byte	W04
	.byte		        Dn5 
	.byte	W04
	.byte		        Dn4 
	.byte	W04
	.byte		        En4 
	.byte	W04
	.byte		        An3 
	.byte	W04
	.byte		        Dn4 
	.byte	W04
	.byte		        Gn3 
	.byte	W04
	.byte		        Fs3 
	.byte	W04
	.byte		        An2 
	.byte	W04
	.byte		N04   
	.byte	W04
	.byte		N04   
	.byte	W04
FE15TwilightOfTheGodsSme_7_B1:
@ 037   ----------------------------------------
	.byte	W96
@ 038   ----------------------------------------
	.byte	W96
@ 039   ----------------------------------------
	.byte	W96
@ 040   ----------------------------------------
	.byte	W96
@ 041   ----------------------------------------
	.byte	W96
@ 042   ----------------------------------------
	.byte	W96
@ 043   ----------------------------------------
	.byte	W96
@ 044   ----------------------------------------
	.byte	W96
@ 045   ----------------------------------------
FE15TwilightOfTheGodsSme_7_045:
	.byte	W24
	.byte		N24   , En3 , v064
	.byte	W24
	.byte		        Dn3 
	.byte	W24
	.byte		        An2 
	.byte	W24
	.byte	PEND
@ 046   ----------------------------------------
FE15TwilightOfTheGodsSme_7_046:
	.byte		N48   , Bn2 , v064
	.byte	W48
	.byte		N24   , Gn2 
	.byte	W24
	.byte		        An2 
	.byte	W24
	.byte	PEND
@ 047   ----------------------------------------
FE15TwilightOfTheGodsSme_7_047:
	.byte		N48   , Bn2 , v064
	.byte	W48
	.byte		        Gn3 
	.byte	W48
	.byte	PEND
@ 048   ----------------------------------------
FE15TwilightOfTheGodsSme_7_048:
	.byte		N48   , Fs3 , v064
	.byte	W48
	.byte		        Dn3 
	.byte	W48
	.byte	PEND
@ 049   ----------------------------------------
	.byte	PATT
	 .word	FE15TwilightOfTheGodsSme_7_045
@ 050   ----------------------------------------
	.byte	PATT
	 .word	FE15TwilightOfTheGodsSme_7_046
@ 051   ----------------------------------------
FE15TwilightOfTheGodsSme_7_051:
	.byte		N48   , Bn2 , v064
	.byte	W48
	.byte		        Cn3 
	.byte	W48
	.byte	PEND
@ 052   ----------------------------------------
	.byte		        Bn2 
	.byte	W48
	.byte		        Gn2 
	.byte	W48
@ 053   ----------------------------------------
	.byte	PATT
	 .word	FE15TwilightOfTheGodsSme_7_045
@ 054   ----------------------------------------
	.byte	PATT
	 .word	FE15TwilightOfTheGodsSme_7_046
@ 055   ----------------------------------------
	.byte	PATT
	 .word	FE15TwilightOfTheGodsSme_7_047
@ 056   ----------------------------------------
	.byte	PATT
	 .word	FE15TwilightOfTheGodsSme_7_048
@ 057   ----------------------------------------
	.byte	PATT
	 .word	FE15TwilightOfTheGodsSme_7_045
@ 058   ----------------------------------------
	.byte	PATT
	 .word	FE15TwilightOfTheGodsSme_7_046
@ 059   ----------------------------------------
	.byte	PATT
	 .word	FE15TwilightOfTheGodsSme_7_051
@ 060   ----------------------------------------
	.byte		N48   , Bn2 , v064
	.byte	W48
	.byte		        An2 
	.byte	W48
@ 061   ----------------------------------------
	.byte	W96
@ 062   ----------------------------------------
	.byte	W96
@ 063   ----------------------------------------
	.byte	W96
@ 064   ----------------------------------------
	.byte	W96
@ 065   ----------------------------------------
	.byte	W96
@ 066   ----------------------------------------
	.byte	W96
@ 067   ----------------------------------------
	.byte	W96
@ 068   ----------------------------------------
	.byte	W96
@ 069   ----------------------------------------
	.byte	W96
@ 070   ----------------------------------------
	.byte	W96
@ 071   ----------------------------------------
	.byte	W96
@ 072   ----------------------------------------
	.byte	W96
@ 073   ----------------------------------------
	.byte	W96
@ 074   ----------------------------------------
	.byte	W96
@ 075   ----------------------------------------
	.byte	W96
@ 076   ----------------------------------------
	.byte	W96
@ 077   ----------------------------------------
	.byte	W96
@ 078   ----------------------------------------
	.byte	W96
@ 079   ----------------------------------------
	.byte	W96
@ 080   ----------------------------------------
	.byte	W96
	.byte	GOTO
	 .word	FE15TwilightOfTheGodsSme_7_B1
FE15TwilightOfTheGodsSme_7_B2:
@ 081   ----------------------------------------
	.byte	FINE

@**************** Track 8 (Midi-Chn.8) ****************@

FE15TwilightOfTheGodsSme_8:
	.byte	KEYSH , FE15TwilightOfTheGodsSme_key+0
@ 000   ----------------------------------------
	.byte		VOICE , 61
	.byte		VOL   , 63*FE15TwilightOfTheGodsSme_mvl/mxv
	.byte	W96
@ 001   ----------------------------------------
	.byte	W96
@ 002   ----------------------------------------
	.byte	W96
@ 003   ----------------------------------------
	.byte	W96
@ 004   ----------------------------------------
	.byte	W96
@ 005   ----------------------------------------
	.byte	W96
@ 006   ----------------------------------------
	.byte	W96
@ 007   ----------------------------------------
	.byte	W96
@ 008   ----------------------------------------
	.byte	W96
@ 009   ----------------------------------------
	.byte	W96
@ 010   ----------------------------------------
	.byte	W96
@ 011   ----------------------------------------
	.byte	W96
@ 012   ----------------------------------------
	.byte	W96
@ 013   ----------------------------------------
	.byte	W96
@ 014   ----------------------------------------
	.byte	W96
@ 015   ----------------------------------------
	.byte	W96
@ 016   ----------------------------------------
	.byte	W96
@ 017   ----------------------------------------
	.byte	W96
@ 018   ----------------------------------------
	.byte	W96
@ 019   ----------------------------------------
	.byte	W96
@ 020   ----------------------------------------
	.byte	W96
@ 021   ----------------------------------------
	.byte	W96
@ 022   ----------------------------------------
	.byte	W96
@ 023   ----------------------------------------
	.byte	W96
@ 024   ----------------------------------------
	.byte	W96
@ 025   ----------------------------------------
	.byte	W96
@ 026   ----------------------------------------
	.byte	W96
@ 027   ----------------------------------------
	.byte	W96
@ 028   ----------------------------------------
	.byte	W96
@ 029   ----------------------------------------
	.byte	W96
@ 030   ----------------------------------------
	.byte	W96
@ 031   ----------------------------------------
	.byte	W96
@ 032   ----------------------------------------
	.byte	W96
@ 033   ----------------------------------------
	.byte	W96
@ 034   ----------------------------------------
	.byte	W96
@ 035   ----------------------------------------
	.byte	W96
@ 036   ----------------------------------------
	.byte	W48
FE15TwilightOfTheGodsSme_8_B1:
@ 037   ----------------------------------------
FE15TwilightOfTheGodsSme_8_037:
	.byte		N08   , En4 , v104
	.byte	W16
	.byte		        Gn4 
	.byte	W08
	.byte		        Fs4 
	.byte	W08
	.byte		        Gn4 
	.byte	W08
	.byte		        Fs4 
	.byte	W08
	.byte		        En4 
	.byte	W16
	.byte		        Gn4 
	.byte	W08
	.byte		        Fs4 
	.byte	W08
	.byte		        Gn4 
	.byte	W08
	.byte		        Fs4 
	.byte	W08
	.byte	PEND
@ 038   ----------------------------------------
FE15TwilightOfTheGodsSme_8_038:
	.byte		N08   , En4 , v104
	.byte	W16
	.byte		        Gn4 
	.byte	W08
	.byte		        Fs4 
	.byte	W08
	.byte		        Gn4 
	.byte	W08
	.byte		        Fs4 
	.byte	W08
	.byte		        En4 
	.byte	W08
	.byte		        Fs4 
	.byte	W08
	.byte		        Gn4 
	.byte	W08
	.byte		        An4 
	.byte	W08
	.byte		        Gn4 
	.byte	W08
	.byte		        Fs4 
	.byte	W08
	.byte	PEND
@ 039   ----------------------------------------
	.byte	PATT
	 .word	FE15TwilightOfTheGodsSme_8_037
@ 040   ----------------------------------------
	.byte	PATT
	 .word	FE15TwilightOfTheGodsSme_8_038
@ 041   ----------------------------------------
	.byte	PATT
	 .word	FE15TwilightOfTheGodsSme_8_037
@ 042   ----------------------------------------
	.byte	PATT
	 .word	FE15TwilightOfTheGodsSme_8_038
@ 043   ----------------------------------------
	.byte	PATT
	 .word	FE15TwilightOfTheGodsSme_8_037
@ 044   ----------------------------------------
	.byte		N08   , En4 , v104
	.byte	W16
	.byte		        Bn3 
	.byte	W08
	.byte		        En4 
	.byte	W08
	.byte		        Fs4 
	.byte	W08
	.byte		        En4 
	.byte	W08
	.byte		N48   , Ds4 
	.byte	W48
@ 045   ----------------------------------------
	.byte	W96
@ 046   ----------------------------------------
	.byte	W96
@ 047   ----------------------------------------
	.byte	W96
@ 048   ----------------------------------------
	.byte	W96
@ 049   ----------------------------------------
	.byte	W96
@ 050   ----------------------------------------
	.byte	W96
@ 051   ----------------------------------------
	.byte	W96
@ 052   ----------------------------------------
	.byte	W96
@ 053   ----------------------------------------
	.byte	W96
@ 054   ----------------------------------------
	.byte	W96
@ 055   ----------------------------------------
	.byte	W96
@ 056   ----------------------------------------
	.byte	W96
@ 057   ----------------------------------------
	.byte	W96
@ 058   ----------------------------------------
	.byte	W96
@ 059   ----------------------------------------
	.byte	W96
@ 060   ----------------------------------------
	.byte	W96
@ 061   ----------------------------------------
FE15TwilightOfTheGodsSme_8_061:
	.byte		N16   , En2 , v104
	.byte	W24
	.byte		N16   
	.byte	W24
	.byte		N16   
	.byte	W16
	.byte		N16   
	.byte	W16
	.byte		N16   
	.byte	W16
	.byte	PEND
@ 062   ----------------------------------------
	.byte	PATT
	 .word	FE15TwilightOfTheGodsSme_8_061
@ 063   ----------------------------------------
	.byte	PATT
	 .word	FE15TwilightOfTheGodsSme_8_061
@ 064   ----------------------------------------
	.byte	PATT
	 .word	FE15TwilightOfTheGodsSme_8_061
@ 065   ----------------------------------------
FE15TwilightOfTheGodsSme_8_065:
	.byte		N16   , Cn2 , v104
	.byte	W24
	.byte		N16   
	.byte	W24
	.byte		N16   
	.byte	W16
	.byte		N16   
	.byte	W16
	.byte		N16   
	.byte	W16
	.byte	PEND
@ 066   ----------------------------------------
	.byte	PATT
	 .word	FE15TwilightOfTheGodsSme_8_065
@ 067   ----------------------------------------
FE15TwilightOfTheGodsSme_8_067:
	.byte		N16   , Dn2 , v104
	.byte	W24
	.byte		N16   
	.byte	W24
	.byte		N16   
	.byte	W16
	.byte		N16   
	.byte	W16
	.byte		N16   
	.byte	W16
	.byte	PEND
@ 068   ----------------------------------------
	.byte	PATT
	 .word	FE15TwilightOfTheGodsSme_8_067
@ 069   ----------------------------------------
	.byte	W96
@ 070   ----------------------------------------
	.byte	W96
@ 071   ----------------------------------------
	.byte	W96
@ 072   ----------------------------------------
	.byte	W96
@ 073   ----------------------------------------
	.byte	W96
@ 074   ----------------------------------------
	.byte	W96
@ 075   ----------------------------------------
	.byte	W96
@ 076   ----------------------------------------
	.byte	W96
@ 077   ----------------------------------------
	.byte	W96
@ 078   ----------------------------------------
	.byte	W96
@ 079   ----------------------------------------
	.byte	W96
@ 080   ----------------------------------------
	.byte	W96
	.byte	GOTO
	 .word	FE15TwilightOfTheGodsSme_8_B1
FE15TwilightOfTheGodsSme_8_B2:
@ 081   ----------------------------------------
	.byte	FINE

@**************** Track 9 (Midi-Chn.9) ****************@

FE15TwilightOfTheGodsSme_9:
	.byte	KEYSH , FE15TwilightOfTheGodsSme_key+0
@ 000   ----------------------------------------
	.byte		VOICE , 116
	.byte		VOL   , 66*FE15TwilightOfTheGodsSme_mvl/mxv
	.byte	W96
@ 001   ----------------------------------------
	.byte	W96
@ 002   ----------------------------------------
	.byte	W96
@ 003   ----------------------------------------
	.byte	W96
@ 004   ----------------------------------------
	.byte	W96
@ 005   ----------------------------------------
	.byte	W96
@ 006   ----------------------------------------
	.byte	W96
@ 007   ----------------------------------------
	.byte	W96
@ 008   ----------------------------------------
	.byte	W96
@ 009   ----------------------------------------
	.byte	W96
@ 010   ----------------------------------------
	.byte	W96
@ 011   ----------------------------------------
	.byte	W96
@ 012   ----------------------------------------
	.byte	W96
@ 013   ----------------------------------------
	.byte	W96
@ 014   ----------------------------------------
	.byte	W96
@ 015   ----------------------------------------
	.byte	W96
@ 016   ----------------------------------------
	.byte	W96
@ 017   ----------------------------------------
	.byte	W96
@ 018   ----------------------------------------
	.byte	W96
@ 019   ----------------------------------------
	.byte	W96
@ 020   ----------------------------------------
	.byte	W96
@ 021   ----------------------------------------
	.byte	W96
@ 022   ----------------------------------------
	.byte	W96
@ 023   ----------------------------------------
	.byte	W96
@ 024   ----------------------------------------
	.byte	W96
@ 025   ----------------------------------------
	.byte	W96
@ 026   ----------------------------------------
	.byte	W96
@ 027   ----------------------------------------
	.byte	W96
@ 028   ----------------------------------------
	.byte	W96
@ 029   ----------------------------------------
	.byte	W96
@ 030   ----------------------------------------
	.byte	W96
@ 031   ----------------------------------------
	.byte	W96
@ 032   ----------------------------------------
	.byte	W96
@ 033   ----------------------------------------
	.byte	W96
@ 034   ----------------------------------------
	.byte	W96
@ 035   ----------------------------------------
	.byte	W96
@ 036   ----------------------------------------
	.byte	W48
FE15TwilightOfTheGodsSme_9_B1:
@ 037   ----------------------------------------
FE15TwilightOfTheGodsSme_9_037:
	.byte		N16   , Cn2 , v104
	.byte		N08   , Cn3 
	.byte	W16
	.byte		N16   , Cn2 
	.byte	W16
	.byte		N16   
	.byte	W08
	.byte		N08   , Cn3 
	.byte	W08
	.byte		N16   , Cn2 
	.byte		N08   , Cn3 
	.byte	W16
	.byte		N16   , Cn2 
	.byte	W16
	.byte		N16   
	.byte		N08   , Cn3 
	.byte	W16
	.byte	PEND
@ 038   ----------------------------------------
	.byte	PATT
	 .word	FE15TwilightOfTheGodsSme_9_037
@ 039   ----------------------------------------
	.byte	PATT
	 .word	FE15TwilightOfTheGodsSme_9_037
@ 040   ----------------------------------------
	.byte	PATT
	 .word	FE15TwilightOfTheGodsSme_9_037
@ 041   ----------------------------------------
	.byte	PATT
	 .word	FE15TwilightOfTheGodsSme_9_037
@ 042   ----------------------------------------
	.byte	PATT
	 .word	FE15TwilightOfTheGodsSme_9_037
@ 043   ----------------------------------------
	.byte	PATT
	 .word	FE15TwilightOfTheGodsSme_9_037
@ 044   ----------------------------------------
	.byte	PATT
	 .word	FE15TwilightOfTheGodsSme_9_037
@ 045   ----------------------------------------
	.byte	PATT
	 .word	FE15TwilightOfTheGodsSme_9_037
@ 046   ----------------------------------------
	.byte	PATT
	 .word	FE15TwilightOfTheGodsSme_9_037
@ 047   ----------------------------------------
	.byte	PATT
	 .word	FE15TwilightOfTheGodsSme_9_037
@ 048   ----------------------------------------
	.byte	PATT
	 .word	FE15TwilightOfTheGodsSme_9_037
@ 049   ----------------------------------------
	.byte	PATT
	 .word	FE15TwilightOfTheGodsSme_9_037
@ 050   ----------------------------------------
	.byte	PATT
	 .word	FE15TwilightOfTheGodsSme_9_037
@ 051   ----------------------------------------
	.byte	PATT
	 .word	FE15TwilightOfTheGodsSme_9_037
@ 052   ----------------------------------------
	.byte	PATT
	 .word	FE15TwilightOfTheGodsSme_9_037
@ 053   ----------------------------------------
	.byte	PATT
	 .word	FE15TwilightOfTheGodsSme_9_037
@ 054   ----------------------------------------
	.byte	PATT
	 .word	FE15TwilightOfTheGodsSme_9_037
@ 055   ----------------------------------------
	.byte	PATT
	 .word	FE15TwilightOfTheGodsSme_9_037
@ 056   ----------------------------------------
	.byte	PATT
	 .word	FE15TwilightOfTheGodsSme_9_037
@ 057   ----------------------------------------
	.byte	PATT
	 .word	FE15TwilightOfTheGodsSme_9_037
@ 058   ----------------------------------------
	.byte	PATT
	 .word	FE15TwilightOfTheGodsSme_9_037
@ 059   ----------------------------------------
	.byte	PATT
	 .word	FE15TwilightOfTheGodsSme_9_037
@ 060   ----------------------------------------
	.byte	PATT
	 .word	FE15TwilightOfTheGodsSme_9_037
@ 061   ----------------------------------------
	.byte	PATT
	 .word	FE15TwilightOfTheGodsSme_9_037
@ 062   ----------------------------------------
	.byte	PATT
	 .word	FE15TwilightOfTheGodsSme_9_037
@ 063   ----------------------------------------
	.byte	PATT
	 .word	FE15TwilightOfTheGodsSme_9_037
@ 064   ----------------------------------------
	.byte	PATT
	 .word	FE15TwilightOfTheGodsSme_9_037
@ 065   ----------------------------------------
	.byte	PATT
	 .word	FE15TwilightOfTheGodsSme_9_037
@ 066   ----------------------------------------
	.byte	PATT
	 .word	FE15TwilightOfTheGodsSme_9_037
@ 067   ----------------------------------------
	.byte	PATT
	 .word	FE15TwilightOfTheGodsSme_9_037
@ 068   ----------------------------------------
	.byte	PATT
	 .word	FE15TwilightOfTheGodsSme_9_037
@ 069   ----------------------------------------
	.byte	PATT
	 .word	FE15TwilightOfTheGodsSme_9_037
@ 070   ----------------------------------------
	.byte	PATT
	 .word	FE15TwilightOfTheGodsSme_9_037
@ 071   ----------------------------------------
	.byte	PATT
	 .word	FE15TwilightOfTheGodsSme_9_037
@ 072   ----------------------------------------
	.byte	PATT
	 .word	FE15TwilightOfTheGodsSme_9_037
@ 073   ----------------------------------------
	.byte	PATT
	 .word	FE15TwilightOfTheGodsSme_9_037
@ 074   ----------------------------------------
	.byte	PATT
	 .word	FE15TwilightOfTheGodsSme_9_037
@ 075   ----------------------------------------
	.byte	PATT
	 .word	FE15TwilightOfTheGodsSme_9_037
@ 076   ----------------------------------------
	.byte	PATT
	 .word	FE15TwilightOfTheGodsSme_9_037
@ 077   ----------------------------------------
	.byte	PATT
	 .word	FE15TwilightOfTheGodsSme_9_037
@ 078   ----------------------------------------
	.byte	PATT
	 .word	FE15TwilightOfTheGodsSme_9_037
@ 079   ----------------------------------------
	.byte	PATT
	 .word	FE15TwilightOfTheGodsSme_9_037
@ 080   ----------------------------------------
	.byte	PATT
	 .word	FE15TwilightOfTheGodsSme_9_037
	.byte	GOTO
	 .word	FE15TwilightOfTheGodsSme_9_B1
FE15TwilightOfTheGodsSme_9_B2:
@ 081   ----------------------------------------
	.byte	FINE

@******************************************************@
	.align	2

FE15TwilightOfTheGodsSme:
	.byte	9	@ NumTrks
	.byte	0	@ NumBlks
	.byte	FE15TwilightOfTheGodsSme_pri	@ Priority
	.byte	FE15TwilightOfTheGodsSme_rev	@ Reverb.

	.word	FE15TwilightOfTheGodsSme_grp

	.word	FE15TwilightOfTheGodsSme_1
	.word	FE15TwilightOfTheGodsSme_2
	.word	FE15TwilightOfTheGodsSme_3
	.word	FE15TwilightOfTheGodsSme_4
	.word	FE15TwilightOfTheGodsSme_5
	.word	FE15TwilightOfTheGodsSme_6
	.word	FE15TwilightOfTheGodsSme_7
	.word	FE15TwilightOfTheGodsSme_8
	.word	FE15TwilightOfTheGodsSme_9

	.end
