//Event file generated from Sappy .s format.
	#include "MPlayDef.event"

	#define	FE16PathsThatWillNeverCrossAzula_grp  voicegroup000
	#define	FE16PathsThatWillNeverCrossAzula_pri  0
	#define	FE16PathsThatWillNeverCrossAzula_rev  0
	#define	FE16PathsThatWillNeverCrossAzula_mvl  127
	#define	FE16PathsThatWillNeverCrossAzula_key  0
	#define	FE16PathsThatWillNeverCrossAzula_tbs  1
	#define	FE16PathsThatWillNeverCrossAzula_exg  0
	#define	FE16PathsThatWillNeverCrossAzula_cmp  1

	// .rodata
	//	FE16PathsThatWillNeverCrossAzula
	ALIGN 4


//**************** Track 1 (Midi-Chn.0) ****************//

FE16PathsThatWillNeverCrossAzula_001:
//  #01 //000   ----------------------------------------
 BYTE   KEYSH   FE16PathsThatWillNeverCrossAzula_key+0
Label_0159FF26:
 BYTE   TEMPO   150*FE16PathsThatWillNeverCrossAzula_tbs/2
 BYTE   VOICE   48
 BYTE   MODT 0
 BYTE   LFOS 44
 BYTE   PAN   c_v-17
 BYTE   VOL   34*FE16PathsThatWillNeverCrossAzula_mvl/mxv
 BYTE   W12
 BYTE   N05  Fs3  v056
 BYTE   W06
 BYTE   Cs3
 BYTE   W12
 BYTE   Cs4  v060
 BYTE   W06
 BYTE   An3  v064
 BYTE   W12
 BYTE   En4  v072
 BYTE   W06
 BYTE   Cs4
 BYTE   W12
 BYTE   An2  v076
 BYTE   W06
 BYTE   Bn2  v080
 BYTE   W06
 BYTE   Cs3
 BYTE   W06
 BYTE   Gs3  v088
 BYTE   W06
 BYTE   En3
 BYTE   W06
//  #01 //001   ----------------------------------------
 BYTE   W24
 BYTE   N23  Gs3  v092
 BYTE   W24
 BYTE   Fs3
 BYTE   W24
 BYTE   N22  Bn3
 BYTE   W24
//  #01 //002   ----------------------------------------
 BYTE   N23  Gs3
 BYTE   W24
 BYTE   An3
 BYTE   W24
 BYTE   Cs3
 BYTE   W24
 BYTE   N22  Gs3
 BYTE   W24
//  #01 //003   ----------------------------------------
 BYTE   N44  Fs3
 BYTE   W48
 BYTE   N68  En3
 BYTE   W48
//  #01 //004   ----------------------------------------
 BYTE   W24
 BYTE   N23  Bn2
 BYTE   W24
 BYTE   En3
 BYTE   W24
 BYTE   N22  Dn3
 BYTE   W24
//  #01 //005   ----------------------------------------
 BYTE   N23  Cs3
 BYTE   W24
 BYTE   Gs2
 BYTE   W24
 BYTE   An2
 BYTE   W24
 BYTE   N22  En3
 BYTE   W24
//  #01 //006   ----------------------------------------
 BYTE   N44  Gs3
 BYTE   W48
 BYTE   N23  Fs3
 BYTE   W24
 BYTE   En3
 BYTE   W24
//  #01 //007   ----------------------------------------
 BYTE   N44  Cs3
 BYTE   W48
 BYTE   TIE  Bn2
 BYTE   W48
//  #01 //008   ----------------------------------------
 BYTE   W88
 BYTE   EOT
 BYTE   W08
//  #01 //009   ----------------------------------------
 BYTE   W24
 BYTE   N23  Gs3  v072
 BYTE   N23  Gs4
 BYTE   W24
 BYTE   Fs3
 BYTE   N23  Fs4
 BYTE   W24
 BYTE   N22  Bn3
 BYTE   N22  Bn4
 BYTE   W24
//  #01 //010   ----------------------------------------
 BYTE   N23  Gs3
 BYTE   N23  Gs4
 BYTE   W24
 BYTE   An3
 BYTE   N23  An4
 BYTE   W24
 BYTE   Cs4
 BYTE   W24
 BYTE   N22  Gs3
 BYTE   N22  Gs4
 BYTE   W24
//  #01 //011   ----------------------------------------
 BYTE   N44  Fs3
 BYTE   N44  Fs4
 BYTE   W48
 BYTE   N68  En3
 BYTE   N68  En4
 BYTE   W48
//  #01 //012   ----------------------------------------
 BYTE   W24
 BYTE   N23  Bn2
 BYTE   N23  Gs3
 BYTE   N23  Bn3
 BYTE   W24
 BYTE   En3
 BYTE   N23  An3
 BYTE   N23  En4
 BYTE   W24
 BYTE   N22  Dn3
 BYTE   N22  Bn3
 BYTE   N22  Dn4
 BYTE   W24
//  #01 //013   ----------------------------------------
 BYTE   N23  Cs3
 BYTE   N23  An3
 BYTE   N23  Cs4
 BYTE   W24
 BYTE   Gs2
 BYTE   N23  En3
 BYTE   N23  Gs3
 BYTE   W24
 BYTE   An2
 BYTE   N23  Fs3
 BYTE   N23  An3
 BYTE   W24
 BYTE   N22  En3
 BYTE   N22  Gs3
 BYTE   N22  En4
 BYTE   W24
//  #01 //014   ----------------------------------------
 BYTE   N68  Fs3
 BYTE   N68  Fs4
 BYTE   W72
 BYTE   N23  En3
 BYTE   N23  En4
 BYTE   W24
//  #01 //015   ----------------------------------------
 BYTE   N90  Gs3
 BYTE   TIE  Gs4
 BYTE   W96
//  #01 //016   ----------------------------------------
 BYTE   N44  Fs3
 BYTE   W48
 BYTE   En3
 BYTE   W36
 BYTE   W02
 BYTE   EOT
 BYTE   Gs4
 BYTE   W10
//  #01 //017   ----------------------------------------
 BYTE   W24
 BYTE   N22  Fs3
 BYTE   W24
 BYTE   N17  Fs4
 BYTE   W18
 BYTE   Gs4
 BYTE   W18
 BYTE   N11  An4
 BYTE   W12
//  #01 //018   ----------------------------------------
 BYTE   N17  Bn4
 BYTE   W18
 BYTE   Fs4
 BYTE   W18
 BYTE   N11  Bn4
 BYTE   W12
 BYTE   N17  An4
 BYTE   W18
 BYTE   Gs4
 BYTE   W18
 BYTE   N11  En4
 BYTE   W12
//  #01 //019   ----------------------------------------
 BYTE   N17  Fs4
 BYTE   W18
 BYTE   An4
 BYTE   W18
 BYTE   N11  Cs5
 BYTE   W12
 BYTE   N17  Gs5
 BYTE   W18
 BYTE   An5
 BYTE   W18
 BYTE   N11  Gs5
 BYTE   W12
//  #01 //020   ----------------------------------------
 BYTE   N17  Fs5
 BYTE   W18
 BYTE   Cs5
 BYTE   W18
 BYTE   N11  Bn4
 BYTE   W12
 BYTE   N17  An3
 BYTE   N17  An4
 BYTE   W18
 BYTE   Bn3
 BYTE   N17  Bn4
 BYTE   W18
 BYTE   N11  Gs3
 BYTE   N11  Gs4
 BYTE   W12
//  #01 //021   ----------------------------------------
 BYTE   TIE  Fs3
 BYTE   TIE  Fs4
 BYTE   W96
//  #01 //022   ----------------------------------------
 BYTE   W40
 BYTE   EOT
 BYTE   W08
 BYTE   EOT
 BYTE   Fs3
 BYTE   N32
 BYTE   N17  Fs4
 BYTE   W18
 BYTE   Gs3
 BYTE   N17  Gs4
 BYTE   W18
 BYTE   N11  An3
 BYTE   N11  An4
 BYTE   W12
//  #01 //023   ----------------------------------------
 BYTE   N32  Gs3
 BYTE   N32  Gs4
 BYTE   W36
 BYTE   Cs3
 BYTE   N32  Cs4
 BYTE   W36
 BYTE   Bn3
 BYTE   N32  Bn4
 BYTE   W24
//  #01 //024   ----------------------------------------
 BYTE   W12
 BYTE   N78  Fn3
 BYTE   N32  Fn4
 BYTE   W36
 BYTE   N22  Cs4
 BYTE   N22  Cs5
 BYTE   W24
 BYTE   Gs4
 BYTE   N22  Gs5
 BYTE   W24
//  #01 //025   ----------------------------------------
Label_015A0075:
 BYTE   TIE  Fs4  v056
 BYTE   TIE  Fs5
 BYTE   W96
 BYTE   PEND 
//  #01 //026   ----------------------------------------
 BYTE   W84
 BYTE   W02
 BYTE   EOT
 BYTE   Fs4  v090
 BYTE   W10
//  #01 //027   ----------------------------------------
 BYTE   PATT
  POIN2 Label_015A0075
//  #01 //028   ----------------------------------------
 BYTE   W40
 BYTE   EOT
 BYTE   Fs4  v090
 BYTE   W08
 BYTE   N22  Cs4  v056
 BYTE   N22  Cs5
 BYTE   W24
 BYTE   Gs4
 BYTE   N22  Gs5
 BYTE   W24
//  #01 //029   ----------------------------------------
 BYTE   PATT
  POIN2 Label_015A0075
//  #01 //030   ----------------------------------------
 BYTE   W84
 BYTE   W02
 BYTE   EOT
 BYTE   Fs4  v090
 BYTE   W10
//  #01 //031   ----------------------------------------
 BYTE   PATT
  POIN2 Label_015A0075
//  #01 //032   ----------------------------------------
 BYTE   W40
 BYTE   EOT
 BYTE   Fs4  v090
 BYTE   W56
//  #01 //033   ----------------------------------------
 BYTE   N22  Bn4  v100
 BYTE   W24
 BYTE   N16  Bn4  v064
 BYTE   W24
 BYTE   Bn3
 BYTE   W24
 BYTE   N16
 BYTE   W24
//  #01 //034   ----------------------------------------
 BYTE   N16
 BYTE   W24
 BYTE   Bn4  v072
 BYTE   W24
 BYTE   Bn3
 BYTE   W24
 BYTE   N16
 BYTE   W24
//  #01 //035   ----------------------------------------
 BYTE   N16
 BYTE   W24
 BYTE   Bn4
 BYTE   W24
 BYTE   Bn4  v076
 BYTE   W24
 BYTE   Bn3
 BYTE   W24
//  #01 //036   ----------------------------------------
 BYTE   N16
 BYTE   W24
 BYTE   Bn4
 BYTE   W24
 BYTE   N16
 BYTE   W24
 BYTE   Bn4  v080
 BYTE   W24
//  #01 //037   ----------------------------------------
 BYTE   Bn3
 BYTE   W24
 BYTE   Bn4
 BYTE   W24
 BYTE   Bn3
 BYTE   W24
 BYTE   N16
 BYTE   W24
//  #01 //038   ----------------------------------------
 BYTE   N16
 BYTE   W24
 BYTE   Bn4  v088
 BYTE   W24
 BYTE   N16
 BYTE   W24
 BYTE   N16
 BYTE   W24
//  #01 //039   ----------------------------------------
 BYTE   Bn3
 BYTE   W24
 BYTE   Bn4
 BYTE   W24
 BYTE   Bn4  v092
 BYTE   W24
 BYTE   Bn3
 BYTE   W24
//  #01 //040   ----------------------------------------
 BYTE   N16
 BYTE   W24
 BYTE   N16
 BYTE   W24
 BYTE   Bn4
 BYTE   W24
 BYTE   Bn4  v100
 BYTE   W24
//  #01 //041   ----------------------------------------
 BYTE   GoTo
  POIN2 Label_0159FF26
//  #01 //042   ----------------------------------------
 BYTE   TEMPO   150*FE16PathsThatWillNeverCrossAzula_tbs/2
 BYTE   FINE

//**************** Track 2 (Midi-Chn.1) ****************//

FE16PathsThatWillNeverCrossAzula_002:
//  #02 //000   ----------------------------------------
 BYTE   KEYSH   FE16PathsThatWillNeverCrossAzula_key+0
Label_01BCEF0A:
 BYTE   VOICE   40
 BYTE   MODT 0
 BYTE   LFOS 44
 BYTE   VOL   35*FE16PathsThatWillNeverCrossAzula_mvl/mxv
 BYTE   PAN   c_v+18
 BYTE   W06
 BYTE   N17  En2  v052
 BYTE   W18
 BYTE   An2  v060
 BYTE   W18
 BYTE   Bn2  v064
 BYTE   W18
 BYTE   En3  v076
 BYTE   W18
 BYTE   An3  v080
 BYTE   W18
//  #02 //001   ----------------------------------------
 BYTE   W24
 BYTE   N23  Gs2  v092
 BYTE   W24
 BYTE   Fs2
 BYTE   W24
 BYTE   N22  Bn2
 BYTE   W24
//  #02 //002   ----------------------------------------
 BYTE   N23  Gs2
 BYTE   W24
 BYTE   An2
 BYTE   W24
 BYTE   Cs2
 BYTE   W24
 BYTE   N22  Gs2
 BYTE   W24
//  #02 //003   ----------------------------------------
 BYTE   N44  Fs2
 BYTE   W48
 BYTE   N68  En2
 BYTE   W48
//  #02 //004   ----------------------------------------
 BYTE   W24
 BYTE   N23  Bn1
 BYTE   W24
 BYTE   En2
 BYTE   W24
 BYTE   N22  Dn2
 BYTE   W24
//  #02 //005   ----------------------------------------
 BYTE   N23  Cs2
 BYTE   W24
 BYTE   Gs1
 BYTE   W24
 BYTE   An1
 BYTE   W24
 BYTE   N22  En2
 BYTE   W24
//  #02 //006   ----------------------------------------
 BYTE   N44  Gs2
 BYTE   W48
 BYTE   N23  Fs2
 BYTE   W24
 BYTE   En2
 BYTE   W24
//  #02 //007   ----------------------------------------
 BYTE   N44  Cs2
 BYTE   W48
 BYTE   TIE  Bn1
 BYTE   W48
//  #02 //008   ----------------------------------------
 BYTE   W88
 BYTE   EOT
 BYTE   W08
//  #02 //009   ----------------------------------------
 BYTE   W24
 BYTE   N23  Gs2  v072
 BYTE   N23  En3
 BYTE   W24
 BYTE   Fs2
 BYTE   N23  Cs3
 BYTE   W24
 BYTE   N22  Bn2
 BYTE   N22  En3
 BYTE   W24
//  #02 //010   ----------------------------------------
 BYTE   N23  Gs2
 BYTE   N23  Cs3
 BYTE   W24
 BYTE   An2
 BYTE   N23  Bn2
 BYTE   W24
 BYTE   Cs2
 BYTE   N23  Cs3
 BYTE   W24
 BYTE   N22  Gs2
 BYTE   N22  Bn2
 BYTE   W24
//  #02 //011   ----------------------------------------
 BYTE   N44  Fs2
 BYTE   N44  Cs3
 BYTE   W48
 BYTE   N68  En2
 BYTE   N68  Bn2
 BYTE   W48
//  #02 //012   ----------------------------------------
 BYTE   W24
 BYTE   N23  Bn1
 BYTE   W24
 BYTE   En2
 BYTE   W24
 BYTE   N22  Dn2
 BYTE   W24
//  #02 //013   ----------------------------------------
 BYTE   N23  Cs2
 BYTE   W24
 BYTE   Gs1
 BYTE   W24
 BYTE   An1
 BYTE   W24
 BYTE   N22  En2
 BYTE   W24
//  #02 //014   ----------------------------------------
 BYTE   N68  Fs2
 BYTE   N68  Cs3
 BYTE   W72
 BYTE   N23  En2
 BYTE   N23  Bn2
 BYTE   W24
//  #02 //015   ----------------------------------------
 BYTE   TIE  Gs2
 BYTE   N90  En3
 BYTE   W96
//  #02 //016   ----------------------------------------
 BYTE   N44  Cs3
 BYTE   W48
 BYTE   Bn2
 BYTE   W36
 BYTE   W02
 BYTE   EOT
 BYTE   Gs2
 BYTE   W10
//  #02 //017   ----------------------------------------
 BYTE   W24
 BYTE   N22  Fs2
 BYTE   W24
 BYTE   N17  Fs3
 BYTE   W18
 BYTE   Gs3
 BYTE   W18
 BYTE   N11  An3
 BYTE   W12
//  #02 //018   ----------------------------------------
 BYTE   N17  Bn3
 BYTE   W18
 BYTE   Fs3
 BYTE   W18
 BYTE   N11  Bn3
 BYTE   W12
 BYTE   N17  An3
 BYTE   W18
 BYTE   Gs3
 BYTE   W18
 BYTE   N11  En3
 BYTE   W12
//  #02 //019   ----------------------------------------
 BYTE   N17  Fs3
 BYTE   W18
 BYTE   An3
 BYTE   W18
 BYTE   N11  Cs4
 BYTE   W12
 BYTE   N17  Gs4
 BYTE   W18
 BYTE   An4
 BYTE   W18
 BYTE   N11  Gs4
 BYTE   W12
//  #02 //020   ----------------------------------------
 BYTE   N17  Fs4
 BYTE   W18
 BYTE   Cs4
 BYTE   W18
 BYTE   N11  Bn3
 BYTE   W12
 BYTE   TIE  Bn2
 BYTE   N48  Fs3
 BYTE   W48
//  #02 //021   ----------------------------------------
 BYTE   W88
 BYTE   EOT
 BYTE   Bn2
 BYTE   W08
//  #02 //022   ----------------------------------------
 BYTE   N90  An2
 BYTE   W96
//  #02 //023   ----------------------------------------
 BYTE   W96
//  #02 //024   ----------------------------------------
 BYTE   Bn2
 BYTE   N90  Cs3
 BYTE   N12  Fn3
 BYTE   W96
//  #02 //025   ----------------------------------------
Label_01BCF001:
 BYTE   TIE  Fs3  v072
 BYTE   N32  An3
 BYTE   W36
 BYTE   Cs4
 BYTE   W36
 BYTE   N44
 BYTE   W24
 BYTE   PEND 
//  #02 //026   ----------------------------------------
Label_01BCF00C:
 BYTE   W24
 BYTE   N44  Bn3  v072
 BYTE   W44
 BYTE   W01
 BYTE   PEND 
 BYTE   EOT
 BYTE   Fs3
 BYTE   W03
 BYTE   N11
 BYTE   W12
 BYTE   Gs3
 BYTE   W12
//  #02 //027   ----------------------------------------
 BYTE   N68  Fs3
 BYTE   N32  An3
 BYTE   W36
 BYTE   Bn3
 BYTE   W36
 BYTE   N44  Gs3
 BYTE   W24
//  #02 //028   ----------------------------------------
 BYTE   W24
 BYTE   N68  En3
 BYTE   W72
//  #02 //029   ----------------------------------------
 BYTE   PATT
  POIN2 Label_01BCF001
//  #02 //030   ----------------------------------------
 BYTE   PATT
  POIN2 Label_01BCF00C
//  #02 //031   ----------------------------------------
 BYTE   EOT
 BYTE   Fs3
 BYTE   W03
 BYTE   N11  Bn3  v072
 BYTE   W12
 BYTE   Cs4
 BYTE   W12
 BYTE   N32  Fs3
 BYTE   N32  Bn3
 BYTE   N32  Dn4
 BYTE   W36
 BYTE   Dn3
 BYTE   N32  Gn3
 BYTE   W36
//  #02 //032   ----------------------------------------
 BYTE   N32
 BYTE   N32  Cn4
 BYTE   N32  En4
 BYTE   W24
 BYTE   W12
 BYTE   Gn3
 BYTE   N32  Cn4
 BYTE   W36
 BYTE   N44  An3
 BYTE   N44  Cn4
 BYTE   N23  En4
 BYTE   W24
//  #02 //033   ----------------------------------------
 BYTE   N22  An4
 BYTE   W24
 BYTE   N05  En4  v048
 BYTE   W06
 BYTE   Fs4
 BYTE   W06
 BYTE   Bn3
 BYTE   W06
 BYTE   An3
 BYTE   W06
 BYTE   En4
 BYTE   W06
 BYTE   Fs4
 BYTE   W06
 BYTE   Bn3
 BYTE   W06
 BYTE   An3
 BYTE   W06
 BYTE   En4
 BYTE   W06
 BYTE   Fs4
 BYTE   W06
 BYTE   Bn3
 BYTE   W06
 BYTE   An3
 BYTE   W06
//  #02 //034   ----------------------------------------
 BYTE   En4
 BYTE   W06
 BYTE   Fs4
 BYTE   W06
 BYTE   Bn3
 BYTE   W06
 BYTE   En4
 BYTE   W06
 BYTE   Fs4
 BYTE   W12
 BYTE   An3
 BYTE   W06
 BYTE   Bn3
 BYTE   W06
 BYTE   En4
 BYTE   W06
 BYTE   Fs4
 BYTE   W06
 BYTE   Bn3
 BYTE   W06
 BYTE   An3
 BYTE   W06
 BYTE   En4  v052
 BYTE   W06
 BYTE   Fs4
 BYTE   W06
 BYTE   Bn3
 BYTE   W06
 BYTE   An3
 BYTE   W06
//  #02 //035   ----------------------------------------
 BYTE   En4
 BYTE   W06
 BYTE   Fs4
 BYTE   W06
 BYTE   Bn3
 BYTE   W06
 BYTE   An3
 BYTE   W06
 BYTE   En4
 BYTE   W06
 BYTE   Fs4
 BYTE   W06
 BYTE   Bn3
 BYTE   W06
 BYTE   An3
 BYTE   W06
 BYTE   En4
 BYTE   W06
 BYTE   Fs4
 BYTE   W06
 BYTE   Bn3
 BYTE   W06
 BYTE   An3
 BYTE   W06
 BYTE   En4
 BYTE   W06
 BYTE   Fs4
 BYTE   W06
 BYTE   Bn3
 BYTE   W06
 BYTE   An3
 BYTE   W06
//  #02 //036   ----------------------------------------
 BYTE   En4
 BYTE   W06
 BYTE   Fs4
 BYTE   W06
 BYTE   Bn3
 BYTE   W06
 BYTE   En4
 BYTE   W06
 BYTE   Fs4
 BYTE   W12
 BYTE   An3
 BYTE   W06
 BYTE   Bn3
 BYTE   W06
 BYTE   En4
 BYTE   W06
 BYTE   Fs4
 BYTE   W06
 BYTE   Bn3
 BYTE   W06
 BYTE   An3
 BYTE   W06
 BYTE   En4  v056
 BYTE   W06
 BYTE   Fs4
 BYTE   W06
 BYTE   Bn3
 BYTE   W06
 BYTE   An3
 BYTE   W06
//  #02 //037   ----------------------------------------
 BYTE   En4
 BYTE   W06
 BYTE   Fs4
 BYTE   W06
 BYTE   Bn3
 BYTE   W06
 BYTE   An3
 BYTE   W06
 BYTE   En4
 BYTE   W06
 BYTE   Fs4
 BYTE   W06
 BYTE   Bn3
 BYTE   W06
 BYTE   An3
 BYTE   W06
 BYTE   En4
 BYTE   W06
 BYTE   Fs4
 BYTE   W06
 BYTE   Bn3
 BYTE   W06
 BYTE   An3
 BYTE   W06
 BYTE   En4
 BYTE   W06
 BYTE   Fs4
 BYTE   W06
 BYTE   Bn3
 BYTE   W06
 BYTE   An3
 BYTE   W06
//  #02 //038   ----------------------------------------
 BYTE   En4
 BYTE   W06
 BYTE   Fs4
 BYTE   W06
 BYTE   Bn3
 BYTE   W06
 BYTE   En4
 BYTE   W06
 BYTE   Fs4
 BYTE   W12
 BYTE   An3
 BYTE   W06
 BYTE   Bn3
 BYTE   W06
 BYTE   En4
 BYTE   W06
 BYTE   Fs4
 BYTE   W06
 BYTE   Bn3
 BYTE   W06
 BYTE   An3
 BYTE   W06
 BYTE   En4  v060
 BYTE   W06
 BYTE   Fs4
 BYTE   W06
 BYTE   Bn3
 BYTE   W06
 BYTE   An3
 BYTE   W06
//  #02 //039   ----------------------------------------
 BYTE   En4
 BYTE   W06
 BYTE   Fs4
 BYTE   W06
 BYTE   Bn3
 BYTE   W06
 BYTE   An3
 BYTE   W06
 BYTE   En4
 BYTE   W06
 BYTE   Fs4
 BYTE   W06
 BYTE   Bn3
 BYTE   W06
 BYTE   An3
 BYTE   W06
 BYTE   En4
 BYTE   W06
 BYTE   Fs4
 BYTE   W06
 BYTE   Bn3
 BYTE   W06
 BYTE   An3
 BYTE   W06
 BYTE   En4
 BYTE   W06
 BYTE   Fs4
 BYTE   W06
 BYTE   Bn3
 BYTE   W06
 BYTE   An3
 BYTE   W06
//  #02 //040   ----------------------------------------
 BYTE   En4
 BYTE   W06
 BYTE   Fs4
 BYTE   W06
 BYTE   Bn3
 BYTE   W06
 BYTE   En4
 BYTE   W06
 BYTE   Fs4
 BYTE   W12
 BYTE   An3
 BYTE   W06
 BYTE   Bn3
 BYTE   W06
 BYTE   En4
 BYTE   W06
 BYTE   Fs4
 BYTE   W06
 BYTE   Bn3
 BYTE   W06
 BYTE   An3
 BYTE   W06
 BYTE   En4  v064
 BYTE   W06
 BYTE   Fs4
 BYTE   W06
 BYTE   Bn3
 BYTE   W06
 BYTE   An3
 BYTE   W06
//  #02 //041   ----------------------------------------
 BYTE   En4
 BYTE   W06
 BYTE   Fs4
 BYTE   W06
 BYTE   Bn3
 BYTE   W06
 BYTE   An3
 BYTE   W06
 BYTE   GoTo
  POIN2 Label_01BCEF0A
 BYTE   FINE

//**************** Track 3 (Midi-Chn.2) ****************//

FE16PathsThatWillNeverCrossAzula_003:
//  #03 //000   ----------------------------------------
 BYTE   KEYSH   FE16PathsThatWillNeverCrossAzula_key+0
Label_01BCF1CA:
 BYTE   VOICE   61
 BYTE   MODT 0
 BYTE   LFOS 44
 BYTE   VOL   36*FE16PathsThatWillNeverCrossAzula_mvl/mxv
 BYTE   PAN   c_v+0
 BYTE   W12
 BYTE   N05  Fs2  v060
 BYTE   W06
 BYTE   Cs2
 BYTE   W12
 BYTE   Cs3
 BYTE   W06
 BYTE   An2
 BYTE   W12
 BYTE   En3
 BYTE   W06
 BYTE   Cs3
 BYTE   W12
 BYTE   An1
 BYTE   W06
 BYTE   Bn1
 BYTE   W06
 BYTE   Cs2
 BYTE   W06
 BYTE   Gs2
 BYTE   W06
 BYTE   En2
 BYTE   W06
//  #03 //001   ----------------------------------------
 BYTE   An2  v056
 BYTE   W06
 BYTE   En3
 BYTE   W06
 BYTE   Cs3
 BYTE   W24
 BYTE   N11  Fs2
 BYTE   N11  Bn2
 BYTE   W18
 BYTE   Gs2
 BYTE   N11  Cs3
 BYTE   W18
 BYTE   N05  An2
 BYTE   N05  En3
 BYTE   W12
 BYTE   Bn2
 BYTE   N05  Fs3
 BYTE   W12
//  #03 //002   ----------------------------------------
Label_01BCF206:
 BYTE   W12
 BYTE   N05  En3  v056
 BYTE   N05  Gs3
 BYTE   W24
 BYTE   Cs3
 BYTE   W12
 BYTE   N05
 BYTE   N05  Gs3
 BYTE   W06
 BYTE   En3
 BYTE   W06
 BYTE   Cs3
 BYTE   W06
 BYTE   Dn3
 BYTE   N05  An3
 BYTE   W18
 BYTE   N11  En3
 BYTE   N11  Bn3
 BYTE   W12
 BYTE   PEND 
//  #03 //003   ----------------------------------------
 BYTE   N05  Gs2
 BYTE   W06
 BYTE   En3
 BYTE   W06
 BYTE   Cs3
 BYTE   W24
 BYTE   N11  Fs2
 BYTE   N11  Bn2
 BYTE   W18
 BYTE   Gs2
 BYTE   N11  Cs3
 BYTE   W18
 BYTE   N05  An2
 BYTE   N05  En3
 BYTE   W12
 BYTE   Bn2
 BYTE   N05  Fs3
 BYTE   W12
//  #03 //004   ----------------------------------------
 BYTE   PATT
  POIN2 Label_01BCF206
//  #03 //005   ----------------------------------------
 BYTE   N05  En3  v056
 BYTE   N05  Gs3
 BYTE   W06
 BYTE   An3
 BYTE   W06
 BYTE   Gs3
 BYTE   W24
 BYTE   N11  Bn2
 BYTE   N11  Fs3
 BYTE   W18
 BYTE   Cs3
 BYTE   N11  Gs3
 BYTE   W18
 BYTE   N05  En3
 BYTE   N05  An3
 BYTE   W12
 BYTE   Fs3
 BYTE   N05  Bn3
 BYTE   W12
//  #03 //006   ----------------------------------------
 BYTE   W12
 BYTE   En3
 BYTE   N05  Bn3
 BYTE   W24
 BYTE   Cs3
 BYTE   W12
 BYTE   N05
 BYTE   N05  Gs3
 BYTE   W06
 BYTE   En3
 BYTE   W06
 BYTE   Cs3
 BYTE   W06
 BYTE   Dn3
 BYTE   N05  An3
 BYTE   W18
 BYTE   N11  En3
 BYTE   N11  Gs3
 BYTE   W12
//  #03 //007   ----------------------------------------
 BYTE   N05  En3
 BYTE   N05  Gs3
 BYTE   W06
 BYTE   An3
 BYTE   W06
 BYTE   Fs3
 BYTE   N05  Gs3
 BYTE   W24
 BYTE   N11  Bn2
 BYTE   N11  Fs3
 BYTE   W18
 BYTE   Cs3
 BYTE   N11  Gs3
 BYTE   W18
 BYTE   N05  En3
 BYTE   N05  An3
 BYTE   W12
 BYTE   Fs3
 BYTE   N05  Bn3
 BYTE   W12
//  #03 //008   ----------------------------------------
 BYTE   W12
 BYTE   En3
 BYTE   N05  Bn3
 BYTE   W24
 BYTE   Cs3
 BYTE   W12
 BYTE   N05
 BYTE   N05  Gs3
 BYTE   W06
 BYTE   En3
 BYTE   W06
 BYTE   Cs3
 BYTE   W06
 BYTE   Dn3
 BYTE   N05  An3
 BYTE   W06
 BYTE   Gs3
 BYTE   W06
 BYTE   Bn3
 BYTE   W06
 BYTE   En4
 BYTE   W06
 BYTE   Bn3
 BYTE   W06
//  #03 //009   ----------------------------------------
 BYTE   An3
 BYTE   W06
 BYTE   En4
 BYTE   W06
 BYTE   Cs4
 BYTE   W24
 BYTE   N11  Fs3
 BYTE   N11  Bn3
 BYTE   W18
 BYTE   Gs3
 BYTE   N11  Cs4
 BYTE   W18
 BYTE   N05  An3
 BYTE   N05  En4
 BYTE   W12
 BYTE   Bn3
 BYTE   N05  Fs4
 BYTE   W12
//  #03 //010   ----------------------------------------
 BYTE   W12
 BYTE   En4
 BYTE   N05  Gs4
 BYTE   W24
 BYTE   Cs4
 BYTE   W12
 BYTE   N05
 BYTE   N05  Fs4
 BYTE   W06
 BYTE   En4
 BYTE   W06
 BYTE   Cs4
 BYTE   W06
 BYTE   Dn4
 BYTE   N05  Gs4
 BYTE   W18
 BYTE   N11  En4
 BYTE   N11  An4
 BYTE   W12
//  #03 //011   ----------------------------------------
 BYTE   N05  Gs3
 BYTE   W06
 BYTE   En4
 BYTE   W06
 BYTE   Cs4
 BYTE   W24
 BYTE   N11  Fs3
 BYTE   N11  Bn3
 BYTE   W18
 BYTE   Gs3
 BYTE   N11  Cs4
 BYTE   W18
 BYTE   N05  An3
 BYTE   N05  En4
 BYTE   W12
 BYTE   Bn3
 BYTE   N05  Fs4
 BYTE   W12
//  #03 //012   ----------------------------------------
 BYTE   W12
 BYTE   En4
 BYTE   N05  Gs4
 BYTE   W24
 BYTE   Cs4
 BYTE   W12
 BYTE   N05
 BYTE   N05  Gs4
 BYTE   W06
 BYTE   En4
 BYTE   W06
 BYTE   Cs4
 BYTE   W06
 BYTE   Dn4
 BYTE   N05  An4
 BYTE   W18
 BYTE   N11  En4
 BYTE   N11  Bn4
 BYTE   W12
//  #03 //013   ----------------------------------------
 BYTE   N05  En4
 BYTE   N05  Gs4
 BYTE   W06
 BYTE   An4
 BYTE   W06
 BYTE   Gs4
 BYTE   W24
 BYTE   N11  Bn3
 BYTE   N11  Fs4
 BYTE   W18
 BYTE   Cs4
 BYTE   N11  Gs4
 BYTE   W18
 BYTE   N05  En4
 BYTE   N05  An4
 BYTE   W12
 BYTE   Fs4
 BYTE   N05  Bn4
 BYTE   W12
//  #03 //014   ----------------------------------------
 BYTE   W12
 BYTE   Fs4
 BYTE   N05  Cs5
 BYTE   W24
 BYTE   Cs4
 BYTE   W12
 BYTE   N05
 BYTE   N05  Bn4
 BYTE   W06
 BYTE   En4
 BYTE   W06
 BYTE   Cs4
 BYTE   W06
 BYTE   Dn4
 BYTE   N05  An4
 BYTE   W18
 BYTE   N11  En4
 BYTE   N11  Gs4
 BYTE   W12
//  #03 //015   ----------------------------------------
 BYTE   N05  En4
 BYTE   N05  Gs4
 BYTE   W06
 BYTE   An4
 BYTE   W06
 BYTE   Fs4
 BYTE   N05  Gs4
 BYTE   W24
 BYTE   N11  Bn3
 BYTE   N11  Fs4
 BYTE   W18
 BYTE   Cs4
 BYTE   N11  Gs4
 BYTE   W18
 BYTE   N05  En4
 BYTE   N05  An4
 BYTE   W12
 BYTE   Fs4
 BYTE   N05  Bn4
 BYTE   W12
//  #03 //016   ----------------------------------------
 BYTE   W12
 BYTE   Fs4
 BYTE   N05  Cs5
 BYTE   W24
 BYTE   Cs4
 BYTE   W12
 BYTE   N05
 BYTE   N05  Gs4
 BYTE   W06
 BYTE   En4
 BYTE   W06
 BYTE   Cs4
 BYTE   W06
 BYTE   Dn4
 BYTE   N05  An4
 BYTE   W12
 BYTE   Cs4
 BYTE   W06
 BYTE   Bn4
 BYTE   W06
 BYTE   Fs4
 BYTE   W06
//  #03 //017   ----------------------------------------
 BYTE   N90  An2  v064
 BYTE   N90  Dn3
 BYTE   N90  Fs3
 BYTE   W96
//  #03 //018   ----------------------------------------
 BYTE   N44  Bn2
 BYTE   N44  Fs3
 BYTE   W48
 BYTE   Dn3
 BYTE   N44  Gs3
 BYTE   N44  Bn3
 BYTE   W48
//  #03 //019   ----------------------------------------
 BYTE   TIE  Cs3
 BYTE   TIE  An3
 BYTE   W96
//  #03 //020   ----------------------------------------
 BYTE   W17
 BYTE   EOT
 BYTE   W07
 BYTE   N22  Gs3
 BYTE   W16
 BYTE   EOT
 BYTE   Cs3
 BYTE   W56
//  #03 //021   ----------------------------------------
 BYTE   W48
 BYTE   N05  Gs3  v048
 BYTE   W06
 BYTE   Fs3
 BYTE   W06
 BYTE   Gs3
 BYTE   W06
 BYTE   An3
 BYTE   W06
 BYTE   Dn4
 BYTE   W12
 BYTE   Gs3
 BYTE   W06
 BYTE   Fs3
 BYTE   W06
//  #03 //022   ----------------------------------------
 BYTE   Gs3
 BYTE   W06
 BYTE   An3
 BYTE   W06
 BYTE   Dn4
 BYTE   W12
 BYTE   N44  An3
 BYTE   W72
//  #03 //023   ----------------------------------------
 BYTE   N90  Fs2  v056
 BYTE   N90  Gs2
 BYTE   N90  Cs3
 BYTE   W96
//  #03 //024   ----------------------------------------
 BYTE   N05  Cs5  v052
 BYTE   W06
 BYTE   Bn4
 BYTE   W06
 BYTE   Gs4
 BYTE   W06
 BYTE   Fn4
 BYTE   W06
 BYTE   Cs4
 BYTE   W06
 BYTE   Bn3
 BYTE   W06
 BYTE   Gs3
 BYTE   W06
 BYTE   Fn3
 BYTE   W06
 BYTE   N44  Cs3
 BYTE   W48
//  #03 //025   ----------------------------------------
Label_01BCF3CD:
 BYTE   N32  Cs3  v100
 BYTE   W36
 BYTE   En3
 BYTE   W36
 BYTE   N44
 BYTE   W24
 BYTE   PEND 
//  #03 //026   ----------------------------------------
 BYTE   W24
 BYTE   N68  Ds3
 BYTE   W72
//  #03 //027   ----------------------------------------
 BYTE   N32  Cs3
 BYTE   W36
 BYTE   En3
 BYTE   W36
 BYTE   N44  Bn2
 BYTE   N44  En3
 BYTE   W24
//  #03 //028   ----------------------------------------
 BYTE   W24
 BYTE   N68  Bn2
 BYTE   W72
//  #03 //029   ----------------------------------------
 BYTE   PATT
  POIN2 Label_01BCF3CD
//  #03 //030   ----------------------------------------
 BYTE   W24
 BYTE   N68  Ds3  v100
 BYTE   W72
//  #03 //031   ----------------------------------------
 BYTE   Dn3
 BYTE   W72
 BYTE   En3
 BYTE   W24
//  #03 //032   ----------------------------------------
 BYTE   W48
 BYTE   N44
 BYTE   W48
//  #03 //033   ----------------------------------------
 BYTE   N17  Fs3
 BYTE   N90  Fs4
 BYTE   W36
 BYTE   N17  Gn3
 BYTE   W18
 BYTE   An3
 BYTE   W18
 BYTE   En3
 BYTE   W24
//  #03 //034   ----------------------------------------
Label_01BCF405:
 BYTE   W06
 BYTE   N17  Fs3  v100
 BYTE   W36
 BYTE   An3
 BYTE   W18
 BYTE   Cn4
 BYTE   W18
 BYTE   Gn3
 BYTE   W18
 BYTE   PEND 
//  #03 //035   ----------------------------------------
 BYTE   Fs3
 BYTE   W36
 BYTE   Gn3
 BYTE   W18
 BYTE   An3
 BYTE   W18
 BYTE   En3
 BYTE   W24
//  #03 //036   ----------------------------------------
 BYTE   PATT
  POIN2 Label_01BCF405
//  #03 //037   ----------------------------------------
Label_01BCF41E:
 BYTE   N17  Fs3  v060
 BYTE   N17  Bn3
 BYTE   N17  Fs4
 BYTE   W36
 BYTE   Gn3
 BYTE   N17  Cn4
 BYTE   N17  Gn4
 BYTE   W18
 BYTE   An3
 BYTE   N17  Dn4
 BYTE   N17  An4
 BYTE   W18
 BYTE   En3
 BYTE   N17  An3
 BYTE   N17  En4
 BYTE   W24
 BYTE   PEND 
//  #03 //038   ----------------------------------------
Label_01BCF439:
 BYTE   W06
 BYTE   N17  Fs3  v060
 BYTE   N17  Bn3
 BYTE   N17  Fs4
 BYTE   W36
 BYTE   An3
 BYTE   N17  Dn4
 BYTE   N17  An4
 BYTE   W18
 BYTE   Cn4
 BYTE   N17  Fn4
 BYTE   N17  Cn5
 BYTE   W18
 BYTE   Gn3
 BYTE   N17  Cn4
 BYTE   N17  Gn4
 BYTE   W18
 BYTE   PEND 
//  #03 //039   ----------------------------------------
 BYTE   PATT
  POIN2 Label_01BCF41E
//  #03 //040   ----------------------------------------
 BYTE   PATT
  POIN2 Label_01BCF439
//  #03 //041   ----------------------------------------
 BYTE   GoTo
  POIN2 Label_01BCF1CA
//  #03 //042   ----------------------------------------
 BYTE   PAN   c_v+0
 BYTE   FINE

//**************** Track 4 (Midi-Chn.3) ****************//

FE16PathsThatWillNeverCrossAzula_004:
//  #04 //000   ----------------------------------------
 BYTE   KEYSH   FE16PathsThatWillNeverCrossAzula_key+0
Label_018B6CB2:
 BYTE   VOICE   34
 BYTE   MODT 0
 BYTE   LFOS 44
 BYTE   VOL   60*FE16PathsThatWillNeverCrossAzula_mvl/mxv
 BYTE   W06
 BYTE   N17  En1  v080
 BYTE   N17  En2
 BYTE   W18
 BYTE   An1
 BYTE   N17  An2
 BYTE   W18
 BYTE   Bn1
 BYTE   N17  Bn2
 BYTE   W18
 BYTE   En2
 BYTE   N17  En3
 BYTE   W18
 BYTE   An2
 BYTE   N17  An3
 BYTE   W18
//  #04 //001   ----------------------------------------
Label_018B6CD1:
 BYTE   N17  Fs1  v080
 BYTE   N17  Fs2
 BYTE   W36
 BYTE   Gs1
 BYTE   N17  Gs2
 BYTE   W18
 BYTE   An1
 BYTE   N17  An2
 BYTE   W18
 BYTE   N12  An1
 BYTE   N12  An2
 BYTE   W12
 BYTE   N17  Fs1
 BYTE   N17  Fs2
 BYTE   W12
 BYTE   PEND 
//  #04 //002   ----------------------------------------
Label_018B6CEA:
 BYTE   W12
 BYTE   N17  Bn1  v080
 BYTE   N17  Bn2
 BYTE   W18
 BYTE   Bn1
 BYTE   N17  Bn2
 BYTE   W30
 BYTE   En1
 BYTE   N17  En2
 BYTE   W18
 BYTE   En1
 BYTE   N17  En2
 BYTE   W18
 BYTE   PEND 
//  #04 //003   ----------------------------------------
Label_018B6CFE:
 BYTE   N17  Dn1  v080
 BYTE   N17  Dn2
 BYTE   W36
 BYTE   Gs1
 BYTE   N17  Gs2
 BYTE   W18
 BYTE   An1
 BYTE   N17  An2
 BYTE   W18
 BYTE   N12  An1
 BYTE   N12  An2
 BYTE   W12
 BYTE   N17  Dn1
 BYTE   N17  Dn2
 BYTE   W12
 BYTE   PEND 
//  #04 //004   ----------------------------------------
Label_018B6D17:
 BYTE   W12
 BYTE   N17  En1  v080
 BYTE   N17  En2
 BYTE   W18
 BYTE   En1
 BYTE   N17  En2
 BYTE   W30
 BYTE   Bn1
 BYTE   N17  Bn2
 BYTE   W18
 BYTE   Bn1
 BYTE   N17  Bn2
 BYTE   W18
 BYTE   PEND 
//  #04 //005   ----------------------------------------
 BYTE   PATT
  POIN2 Label_018B6CD1
//  #04 //006   ----------------------------------------
 BYTE   PATT
  POIN2 Label_018B6CEA
//  #04 //007   ----------------------------------------
Label_018B6D35:
 BYTE   N17  Dn1  v080
 BYTE   N17  Dn2
 BYTE   W36
 BYTE   En1
 BYTE   N17  En2
 BYTE   W18
 BYTE   Fs1
 BYTE   N17  Fs2
 BYTE   W30
 BYTE   Gs1
 BYTE   N17  Gs2
 BYTE   W12
 BYTE   PEND 
//  #04 //008   ----------------------------------------
 BYTE   PATT
  POIN2 Label_018B6D17
//  #04 //009   ----------------------------------------
 BYTE   PATT
  POIN2 Label_018B6CD1
//  #04 //010   ----------------------------------------
 BYTE   PATT
  POIN2 Label_018B6CEA
//  #04 //011   ----------------------------------------
 BYTE   PATT
  POIN2 Label_018B6CFE
//  #04 //012   ----------------------------------------
 BYTE   PATT
  POIN2 Label_018B6D17
//  #04 //013   ----------------------------------------
 BYTE   PATT
  POIN2 Label_018B6CD1
//  #04 //014   ----------------------------------------
 BYTE   PATT
  POIN2 Label_018B6CEA
//  #04 //015   ----------------------------------------
 BYTE   PATT
  POIN2 Label_018B6D35
//  #04 //016   ----------------------------------------
 BYTE   PATT
  POIN2 Label_018B6D17
//  #04 //017   ----------------------------------------
Label_018B6D75:
 BYTE   N22  Dn2  v080
 BYTE   N22  Dn3
 BYTE   W24
 BYTE   Dn2
 BYTE   N22  Dn3
 BYTE   W24
 BYTE   Dn2
 BYTE   N22  Dn3
 BYTE   W24
 BYTE   Dn2
 BYTE   N22  Dn3
 BYTE   W24
 BYTE   PEND 
//  #04 //018   ----------------------------------------
 BYTE   Ds2
 BYTE   N22  Ds3
 BYTE   W24
 BYTE   Ds2
 BYTE   N22  Ds3
 BYTE   W24
 BYTE   En2
 BYTE   N22  En3
 BYTE   W24
 BYTE   En2
 BYTE   N22  En3
 BYTE   W24
//  #04 //019   ----------------------------------------
 BYTE   Fs2
 BYTE   N22  Fs3
 BYTE   W24
 BYTE   Fs2
 BYTE   N22  Fs3
 BYTE   W24
 BYTE   Fn2
 BYTE   N22  Fn3
 BYTE   W24
 BYTE   Fn2
 BYTE   N22  Fn3
 BYTE   W24
//  #04 //020   ----------------------------------------
 BYTE   En2
 BYTE   N22  En3
 BYTE   W24
 BYTE   En2
 BYTE   N22  En3
 BYTE   W24
 BYTE   Ds2
 BYTE   N22  Ds3
 BYTE   W24
 BYTE   Ds2
 BYTE   N22  Ds3
 BYTE   W24
//  #04 //021   ----------------------------------------
 BYTE   PATT
  POIN2 Label_018B6D75
//  #04 //022   ----------------------------------------
 BYTE   PATT
  POIN2 Label_018B6D75
//  #04 //023   ----------------------------------------
 BYTE   N22  Cs2  v080
 BYTE   N22  Cs3
 BYTE   W24
 BYTE   Cs2
 BYTE   N22  Cs3
 BYTE   W24
 BYTE   Cs2
 BYTE   N22  Cs3
 BYTE   W24
 BYTE   Cs2
 BYTE   N22  Cs3
 BYTE   W24
//  #04 //024   ----------------------------------------
 BYTE   Cs1
 BYTE   N22  Cs2
 BYTE   W24
 BYTE   Cs1
 BYTE   N22  Cs2
 BYTE   W24
 BYTE   N44  Cs1
 BYTE   N44  Cs2
 BYTE   W48
//  #04 //025   ----------------------------------------
Label_018B6DE1:
 BYTE   N68  Fs1  v080
 BYTE   N68  Fs2
 BYTE   W72
 BYTE   TIE  Bn1
 BYTE   TIE  Bn2
 BYTE   W24
 BYTE   PEND 
//  #04 //026   ----------------------------------------
 BYTE   W88
 BYTE   W01
 BYTE   EOT
 BYTE   Bn1  v059
 BYTE   W07
//  #04 //027   ----------------------------------------
 BYTE   N68  Dn1
 BYTE   N68  Dn2
 BYTE   W72
 BYTE   TIE  En1
 BYTE   TIE  En2
 BYTE   W24
//  #04 //028   ----------------------------------------
 BYTE   W88
 BYTE   W01
 BYTE   EOT
 BYTE   En1  v052
 BYTE   W07
//  #04 //029   ----------------------------------------
 BYTE   PATT
  POIN2 Label_018B6DE1
//  #04 //030   ----------------------------------------
 BYTE   W88
 BYTE   W01
 BYTE   EOT
 BYTE   Bn1  v059
 BYTE   W07
//  #04 //031   ----------------------------------------
 BYTE   N68  Dn1  v080
 BYTE   N68  Dn2
 BYTE   W72
 BYTE   Gn1
 BYTE   N68  Gn2
 BYTE   W24
//  #04 //032   ----------------------------------------
 BYTE   W48
 BYTE   N44  Cn2
 BYTE   N44  Cn3
 BYTE   W48
//  #04 //033   ----------------------------------------
Label_018B6E1E:
 BYTE   N17  Bn1  v080
 BYTE   N17  Bn2
 BYTE   W36
 BYTE   Cn2
 BYTE   N17  Cn3
 BYTE   W18
 BYTE   Dn2
 BYTE   N17  Dn3
 BYTE   W18
 BYTE   An1
 BYTE   N17  An2
 BYTE   W24
 BYTE   PEND 
//  #04 //034   ----------------------------------------
Label_018B6E31:
 BYTE   W06
 BYTE   N17  Bn1  v080
 BYTE   N17  Bn2
 BYTE   W36
 BYTE   Dn2
 BYTE   N17  Dn3
 BYTE   W18
 BYTE   Fn2
 BYTE   N17  Fn3
 BYTE   W18
 BYTE   Cn2
 BYTE   N17  Cn3
 BYTE   W18
 BYTE   PEND 
//  #04 //035   ----------------------------------------
 BYTE   PATT
  POIN2 Label_018B6E1E
//  #04 //036   ----------------------------------------
 BYTE   PATT
  POIN2 Label_018B6E31
//  #04 //037   ----------------------------------------
 BYTE   PATT
  POIN2 Label_018B6E1E
//  #04 //038   ----------------------------------------
 BYTE   PATT
  POIN2 Label_018B6E31
//  #04 //039   ----------------------------------------
 BYTE   PATT
  POIN2 Label_018B6E1E
//  #04 //040   ----------------------------------------
 BYTE   PATT
  POIN2 Label_018B6E31
//  #04 //041   ----------------------------------------
 BYTE   GoTo
  POIN2 Label_018B6CB2
 BYTE   FINE

//**************** Track 5 (Midi-Chn.4) ****************//

FE16PathsThatWillNeverCrossAzula_005:
//  #05 //000   ----------------------------------------
 BYTE   KEYSH   FE16PathsThatWillNeverCrossAzula_key+0
Label_018B64DA:
 BYTE   VOICE   119
 BYTE   MODT 0
 BYTE   LFOS 44
 BYTE   VOL   50*FE16PathsThatWillNeverCrossAzula_mvl/mxv
 BYTE   W84
 BYTE   N96  Cn3  v080
 BYTE   W12
//  #05 //001   ----------------------------------------
 BYTE   W96
//  #05 //002   ----------------------------------------
 BYTE   W96
//  #05 //003   ----------------------------------------
 BYTE   W96
//  #05 //004   ----------------------------------------
 BYTE   W96
//  #05 //005   ----------------------------------------
 BYTE   W96
//  #05 //006   ----------------------------------------
 BYTE   W96
//  #05 //007   ----------------------------------------
 BYTE   W96
//  #05 //008   ----------------------------------------
 BYTE   W84
 BYTE   N96
 BYTE   W12
//  #05 //009   ----------------------------------------
 BYTE   W96
//  #05 //010   ----------------------------------------
 BYTE   W96
//  #05 //011   ----------------------------------------
 BYTE   W96
//  #05 //012   ----------------------------------------
 BYTE   W96
//  #05 //013   ----------------------------------------
 BYTE   W96
//  #05 //014   ----------------------------------------
 BYTE   W96
//  #05 //015   ----------------------------------------
 BYTE   W96
//  #05 //016   ----------------------------------------
 BYTE   W84
 BYTE   N96
 BYTE   W12
//  #05 //017   ----------------------------------------
 BYTE   W96
//  #05 //018   ----------------------------------------
 BYTE   W96
//  #05 //019   ----------------------------------------
 BYTE   W96
//  #05 //020   ----------------------------------------
 BYTE   W96
//  #05 //021   ----------------------------------------
 BYTE   W96
//  #05 //022   ----------------------------------------
 BYTE   W96
//  #05 //023   ----------------------------------------
 BYTE   W96
//  #05 //024   ----------------------------------------
 BYTE   W84
 BYTE   N96
 BYTE   W12
//  #05 //025   ----------------------------------------
 BYTE   W96
//  #05 //026   ----------------------------------------
 BYTE   W96
//  #05 //027   ----------------------------------------
 BYTE   W96
//  #05 //028   ----------------------------------------
 BYTE   W96
//  #05 //029   ----------------------------------------
 BYTE   W96
//  #05 //030   ----------------------------------------
 BYTE   W96
//  #05 //031   ----------------------------------------
 BYTE   W96
//  #05 //032   ----------------------------------------
 BYTE   W84
 BYTE   N96
 BYTE   W12
//  #05 //033   ----------------------------------------
 BYTE   W96
//  #05 //034   ----------------------------------------
 BYTE   W96
//  #05 //035   ----------------------------------------
 BYTE   W96
//  #05 //036   ----------------------------------------
 BYTE   W96
//  #05 //037   ----------------------------------------
 BYTE   W96
//  #05 //038   ----------------------------------------
 BYTE   W96
//  #05 //039   ----------------------------------------
 BYTE   W96
//  #05 //040   ----------------------------------------
 BYTE   W96
//  #05 //041   ----------------------------------------
 BYTE   GoTo
  POIN2 Label_018B64DA
 BYTE   FINE

//**************** Track 6 (Midi-Chn.5) ****************//

FE16PathsThatWillNeverCrossAzula_006:
//  #06 //000   ----------------------------------------
 BYTE   KEYSH   FE16PathsThatWillNeverCrossAzula_key+0
Label_01BCF46A:
 BYTE   VOICE   127
 BYTE   MODT 0
 BYTE   LFOS 44
 BYTE   VOL   55*FE16PathsThatWillNeverCrossAzula_mvl/mxv
 BYTE   N06  Cn1  v108
 BYTE   W06
 BYTE   Dn1
 BYTE   W12
 BYTE   Cn1
 BYTE   W06
 BYTE   Dn1
 BYTE   W12
 BYTE   Cn1
 BYTE   W06
 BYTE   Dn1
 BYTE   W12
 BYTE   Cn1
 BYTE   W06
 BYTE   Dn1
 BYTE   W06
 BYTE   N06
 BYTE   W06
 BYTE   N06
 BYTE   W06
 BYTE   N06
 BYTE   W06
 BYTE   N06
 BYTE   W06
 BYTE   N06
 BYTE   W06
//  #06 //001   ----------------------------------------
Label_01BCF48E:
 BYTE   N24  Cn1  v108
 BYTE   N06  Fs1  v060
 BYTE   N24  Cs2
 BYTE   W06
 BYTE   N06  Fs1
 BYTE   W06
 BYTE   N06
 BYTE   W06
 BYTE   N06
 BYTE   W06
 BYTE   Dn1  v108
 BYTE   N03  Fs1  v060
 BYTE   W03
 BYTE   N03
 BYTE   W03
 BYTE   N03
 BYTE   W06
 BYTE   N12  Cn1  v108
 BYTE   N06  Fs1  v060
 BYTE   W06
 BYTE   N06
 BYTE   W06
 BYTE   N06
 BYTE   W06
 BYTE   N12  Cn1  v108
 BYTE   N06  Fs1  v060
 BYTE   W06
 BYTE   N06
 BYTE   W06
 BYTE   N06
 BYTE   W06
 BYTE   N12  Dn1  v108
 BYTE   N06  Fs1  v060
 BYTE   W06
 BYTE   N06
 BYTE   W06
 BYTE   N12  Cn1  v108
 BYTE   N12  As1  v060
 BYTE   W12
 BYTE   PEND 
//  #06 //002   ----------------------------------------
Label_01BCF4CF:
 BYTE   N06  Fs1  v060
 BYTE   W06
 BYTE   N06
 BYTE   W06
 BYTE   Cn1  v108
 BYTE   N06  Fs1  v060
 BYTE   W06
 BYTE   N06
 BYTE   W06
 BYTE   Dn1  v108
 BYTE   W12
 BYTE   N12  Cn1
 BYTE   N06  Fs1  v060
 BYTE   W06
 BYTE   N06
 BYTE   W06
 BYTE   N06
 BYTE   W06
 BYTE   N12  Cn1  v108
 BYTE   N06  Fs1  v060
 BYTE   W06
 BYTE   N03
 BYTE   W03
 BYTE   N03
 BYTE   W03
 BYTE   N03
 BYTE   W03
 BYTE   N03
 BYTE   W03
 BYTE   N12  Dn1  v108
 BYTE   W12
 BYTE   Cn1
 BYTE   N06  Fs1  v060
 BYTE   W12
 BYTE   PEND 
//  #06 //003   ----------------------------------------
Label_01BCF503:
 BYTE   N24  Cn1  v108
 BYTE   N06  Fs1  v060
 BYTE   W06
 BYTE   N06
 BYTE   W06
 BYTE   N03
 BYTE   W03
 BYTE   N03
 BYTE   W03
 BYTE   N03
 BYTE   W06
 BYTE   N06  Dn1  v108
 BYTE   N06  Fs1  v060
 BYTE   W06
 BYTE   N06
 BYTE   W06
 BYTE   N12  Cn1  v108
 BYTE   N06  Fs1  v060
 BYTE   W06
 BYTE   N06
 BYTE   W06
 BYTE   N06
 BYTE   W06
 BYTE   N12  Cn1  v108
 BYTE   N06  Fs1  v060
 BYTE   W06
 BYTE   N06
 BYTE   W06
 BYTE   N06
 BYTE   W06
 BYTE   N12  Dn1  v108
 BYTE   N06  Fs1  v060
 BYTE   W06
 BYTE   N06
 BYTE   W06
 BYTE   N12  Cn1  v108
 BYTE   N12  As1  v060
 BYTE   W12
 BYTE   PEND 
//  #06 //004   ----------------------------------------
Label_01BCF542:
 BYTE   W12
 BYTE   N06  Dn1  v108
 BYTE   W06
 BYTE   N06
 BYTE   W06
 BYTE   N12  Cn1
 BYTE   W15
 BYTE   N12
 BYTE   W09
 BYTE   N48  Ds2  v060
 BYTE   W03
 BYTE   N12  Dn1  v108
 BYTE   W15
 BYTE   N12
 BYTE   W18
 BYTE   N12
 BYTE   W12
 BYTE   PEND 
//  #06 //005   ----------------------------------------
 BYTE   PATT
  POIN2 Label_01BCF48E
//  #06 //006   ----------------------------------------
 BYTE   PATT
  POIN2 Label_01BCF4CF
//  #06 //007   ----------------------------------------
 BYTE   PATT
  POIN2 Label_01BCF503
//  #06 //008   ----------------------------------------
Label_01BCF56A:
 BYTE   N06  Cn1  v108
 BYTE   W06
 BYTE   Dn1
 BYTE   W12
 BYTE   Cn1
 BYTE   W06
 BYTE   Dn1
 BYTE   W12
 BYTE   Cn1
 BYTE   W06
 BYTE   Dn1
 BYTE   W06
 BYTE   N48  Ds2  v060
 BYTE   W06
 BYTE   N06  Cn1  v108
 BYTE   W06
 BYTE   Dn1
 BYTE   W06
 BYTE   N06
 BYTE   W06
 BYTE   N06
 BYTE   W06
 BYTE   N06
 BYTE   W06
 BYTE   N06
 BYTE   W06
 BYTE   N06
 BYTE   W06
 BYTE   PEND 
//  #06 //009   ----------------------------------------
 BYTE   PATT
  POIN2 Label_01BCF48E
//  #06 //010   ----------------------------------------
 BYTE   PATT
  POIN2 Label_01BCF4CF
//  #06 //011   ----------------------------------------
 BYTE   PATT
  POIN2 Label_01BCF503
//  #06 //012   ----------------------------------------
 BYTE   PATT
  POIN2 Label_01BCF542
//  #06 //013   ----------------------------------------
 BYTE   PATT
  POIN2 Label_01BCF48E
//  #06 //014   ----------------------------------------
 BYTE   PATT
  POIN2 Label_01BCF4CF
//  #06 //015   ----------------------------------------
 BYTE   PATT
  POIN2 Label_01BCF503
//  #06 //016   ----------------------------------------
 BYTE   PATT
  POIN2 Label_01BCF56A
//  #06 //017   ----------------------------------------
 BYTE   N06  Cn1  v108
 BYTE   N48  Gs1  v060
 BYTE   N48  Cs2
 BYTE   W06
 BYTE   N06  Cn1  v108
 BYTE   W18
 BYTE   N24  Dn1
 BYTE   W24
 BYTE   N06  Cn1
 BYTE   N48  Gs1  v060
 BYTE   W06
 BYTE   N06  Cn1  v108
 BYTE   W18
 BYTE   N24  Dn1
 BYTE   W24
//  #06 //018   ----------------------------------------
Label_01BCF5D2:
 BYTE   N06  Cn1  v108
 BYTE   N48  Gs1  v060
 BYTE   W06
 BYTE   N06  Cn1  v108
 BYTE   W18
 BYTE   N24  Dn1
 BYTE   W24
 BYTE   N06  Cn1
 BYTE   N48  Gs1  v060
 BYTE   W06
 BYTE   N06  Cn1  v108
 BYTE   W18
 BYTE   N24  Dn1
 BYTE   W24
 BYTE   PEND 
//  #06 //019   ----------------------------------------
 BYTE   PATT
  POIN2 Label_01BCF5D2
//  #06 //020   ----------------------------------------
 BYTE   PATT
  POIN2 Label_01BCF5D2
//  #06 //021   ----------------------------------------
 BYTE   PATT
  POIN2 Label_01BCF5D2
//  #06 //022   ----------------------------------------
 BYTE   PATT
  POIN2 Label_01BCF5D2
//  #06 //023   ----------------------------------------
 BYTE   PATT
  POIN2 Label_01BCF5D2
//  #06 //024   ----------------------------------------
 BYTE   N06  Cn1  v108
 BYTE   N48  Gs1  v060
 BYTE   W06
 BYTE   N06  Cn1  v108
 BYTE   W18
 BYTE   N24  Dn1
 BYTE   W24
 BYTE   N06  Cn1
 BYTE   N48  Ds2  v060
 BYTE   W06
 BYTE   N06  Cn1  v108
 BYTE   W18
 BYTE   N24  Dn1
 BYTE   W24
//  #06 //025   ----------------------------------------
 BYTE   N48  Gs1  v060
 BYTE   N24  Cs2
 BYTE   W48
 BYTE   N48  Gs1
 BYTE   W48
//  #06 //026   ----------------------------------------
Label_01BCF62B:
 BYTE   N48  Gs1  v060
 BYTE   W48
 BYTE   N48
 BYTE   W48
 BYTE   PEND 
//  #06 //027   ----------------------------------------
 BYTE   PATT
  POIN2 Label_01BCF62B
//  #06 //028   ----------------------------------------
 BYTE   PATT
  POIN2 Label_01BCF62B
//  #06 //029   ----------------------------------------
 BYTE   PATT
  POIN2 Label_01BCF62B
//  #06 //030   ----------------------------------------
 BYTE   PATT
  POIN2 Label_01BCF62B
//  #06 //031   ----------------------------------------
 BYTE   PATT
  POIN2 Label_01BCF62B
//  #06 //032   ----------------------------------------
 BYTE   W96
//  #06 //033   ----------------------------------------
 BYTE   W96
//  #06 //034   ----------------------------------------
 BYTE   W96
//  #06 //035   ----------------------------------------
 BYTE   W96
//  #06 //036   ----------------------------------------
 BYTE   W96
//  #06 //037   ----------------------------------------
 BYTE   W96
//  #06 //038   ----------------------------------------
 BYTE   W96
//  #06 //039   ----------------------------------------
 BYTE   W96
//  #06 //040   ----------------------------------------
 BYTE   W96
//  #06 //041   ----------------------------------------
 BYTE   GoTo
  POIN2 Label_01BCF46A
//  #06 //042   ----------------------------------------
 BYTE   VOICE   127
 BYTE   FINE

//******************************************************//
	ALIGN 4

FE16PathsThatWillNeverCrossAzula:
	BYTE	6	// NumTrks
	BYTE	0	// NumBlks
	BYTE	FE16PathsThatWillNeverCrossAzula_pri	// Priority
	BYTE	FE16PathsThatWillNeverCrossAzula_rev	// Reverb.
    
	POIN2	FE16PathsThatWillNeverCrossAzula_grp
    
	POIN2	FE16PathsThatWillNeverCrossAzula_001
	POIN2	FE16PathsThatWillNeverCrossAzula_002
	POIN2	FE16PathsThatWillNeverCrossAzula_003
	POIN2	FE16PathsThatWillNeverCrossAzula_004
	POIN2	FE16PathsThatWillNeverCrossAzula_005
	POIN2	FE16PathsThatWillNeverCrossAzula_006

	
