//Event file generated from Sappy .s format.
	#include "MPlayDef.event"

	#define	FE16AFuneralofFlowersThunderMrGreen3339_grp  voicegroup000
	#define	FE16AFuneralofFlowersThunderMrGreen3339_pri  0
	#define	FE16AFuneralofFlowersThunderMrGreen3339_rev  0
	#define	FE16AFuneralofFlowersThunderMrGreen3339_mvl  127
	#define	FE16AFuneralofFlowersThunderMrGreen3339_key  0
	#define	FE16AFuneralofFlowersThunderMrGreen3339_tbs  1
	#define	FE16AFuneralofFlowersThunderMrGreen3339_exg  0
	#define	FE16AFuneralofFlowersThunderMrGreen3339_cmp  1

	// .rodata
	//	FE16AFuneralofFlowersThunderMrGreen3339
	ALIGN 4


//**************** Track 1 (Midi-Chn.0) ****************//

FE16AFuneralofFlowersThunderMrGreen3339_001:
// 000   ----------------------------------------
 BYTE   KEYSH   FE16AFuneralofFlowersThunderMrGreen3339_key+0
Label_0_01262EF2:
 BYTE   TEMPO   76*FE16AFuneralofFlowersThunderMrGreen3339_tbs/2
 BYTE   VOICE   0
 BYTE   VOL   51*FE16AFuneralofFlowersThunderMrGreen3339_mvl/mxv
 BYTE   PAN   c_v+0
 BYTE   W06
 BYTE   N02  Bn0  v080
 BYTE   W03
 BYTE   N02
 BYTE   W03
 BYTE   N11
 BYTE   N23  Bn3
 BYTE   W02
 BYTE   N21  Dn4
 BYTE   W02
 BYTE   N19  Fs4
 BYTE   W08
 BYTE   N05  Cs2
 BYTE   W06
 BYTE   Dn2
 BYTE   W06
 BYTE   Fs2
 BYTE   W06
 BYTE   Bn2
 BYTE   W06
 BYTE   Dn3
 BYTE   W06
 BYTE   Fs3
 BYTE   W06
 BYTE   Bn3
 BYTE   W06
 BYTE   Dn4
 BYTE   W06
 BYTE   En3
 BYTE   N05  En4
 BYTE   W06
 BYTE   Fs3
 BYTE   N05  Fs4
 BYTE   W06
 BYTE   N11  Bn0
 BYTE   N22  Gn3
 BYTE   N22  Gn4
 BYTE   W12
// 001   ----------------------------------------
 BYTE   N05  Dn2
 BYTE   W06
 BYTE   Gn2
 BYTE   W06
 BYTE   Bn2
 BYTE   W06
 BYTE   Dn3
 BYTE   W06
 BYTE   Gn3
 BYTE   W06
 BYTE   Dn3
 BYTE   W06
 BYTE   Gn3
 BYTE   W06
 BYTE   Bn3
 BYTE   W06
 BYTE   Cs4
 BYTE   W06
 BYTE   Dn4
 BYTE   W06
 BYTE   An0
 BYTE   N23  Gn3
 BYTE   W02
 BYTE   N21  Cs4
 BYTE   W02
 BYTE   N19  Gn4
 BYTE   W02
 BYTE   N05  Cs1
 BYTE   W06
 BYTE   Bn1
 BYTE   W06
 BYTE   Cs2
 BYTE   W06
 BYTE   En2
 BYTE   W06
 BYTE   An2
 BYTE   W06
// 002   ----------------------------------------
 BYTE   N11  Cs3
 BYTE   N05  An3
 BYTE   N05  Cs4
 BYTE   N05  An4
 BYTE   W06
 BYTE   En3
 BYTE   W06
 BYTE   An3
 BYTE   W06
 BYTE   Cs4
 BYTE   W06
 BYTE   En4
 BYTE   W06
 BYTE   An4
 BYTE   W06
 BYTE   An0
 BYTE   N22  Fs3
 BYTE   N22  Fs4
 BYTE   W06
 BYTE   N05  An1
 BYTE   W06
 BYTE   Cs2
 BYTE   W06
 BYTE   En2
 BYTE   W06
 BYTE   An2
 BYTE   W06
 BYTE   Bn2
 BYTE   W06
 BYTE   N11  Cs3
 BYTE   W06
 BYTE   N05  En3
 BYTE   W06
 BYTE   Fs3
 BYTE   W06
 BYTE   An3
 BYTE   W06
// 003   ----------------------------------------
 BYTE   Dn4
 BYTE   N05  Dn5
 BYTE   W06
 BYTE   En4
 BYTE   N05  En5
 BYTE   W06
 BYTE   Gn1
 BYTE   N32  Fs4
 BYTE   W02
 BYTE   Bn4
 BYTE   W02
 BYTE   N30  Dn5
 BYTE   W02
 BYTE   N05  Dn2
 BYTE   N28  Fs5
 BYTE   W06
 BYTE   N05  Gn2
 BYTE   W06
 BYTE   An2
 BYTE   W06
 BYTE   Bn2
 BYTE   W06
 BYTE   Dn3
 BYTE   W06
 BYTE   N05
 BYTE   N32  Gn4
 BYTE   N32  Gn5
 BYTE   W06
 BYTE   N05  Cs3
 BYTE   W06
 BYTE   Bn2
 BYTE   W06
 BYTE   An2
 BYTE   W06
 BYTE   Gn2
 BYTE   W06
 BYTE   Dn2
 BYTE   W06
 BYTE   Gn1
 BYTE   N32  Bn4
 BYTE   N32  Bn5
 BYTE   W06
 BYTE   N05  Dn2
 BYTE   W06
// 004   ----------------------------------------
 BYTE   Gn2
 BYTE   W06
 BYTE   An2
 BYTE   W06
 BYTE   Cs3
 BYTE   W06
 BYTE   En3
 BYTE   W06
 BYTE   N05
 BYTE   N32  An4
 BYTE   N32  An5
 BYTE   W06
 BYTE   N05  Dn3
 BYTE   W06
 BYTE   Cs3
 BYTE   W06
 BYTE   An2
 BYTE   W06
 BYTE   Gn2
 BYTE   W06
 BYTE   Dn2
 BYTE   W06
 BYTE   Fs1
 BYTE   N32  An4
 BYTE   N32  An5
 BYTE   W06
 BYTE   N05  Dn2
 BYTE   W06
 BYTE   Fs2
 BYTE   W06
 BYTE   An2
 BYTE   W06
 BYTE   Cs3
 BYTE   W06
 BYTE   Dn3
 BYTE   W06
// 005   ----------------------------------------
 BYTE   En3
 BYTE   N32  Gn4
 BYTE   N32  Gn5
 BYTE   W06
 BYTE   N05  Dn3
 BYTE   W06
 BYTE   Cs3
 BYTE   W06
 BYTE   An2
 BYTE   W06
 BYTE   Dn2
 BYTE   W06
 BYTE   Fs1
 BYTE   W06
 BYTE   Cn1
 BYTE   N32  Fs4
 BYTE   N32  Fs5
 BYTE   W06
 BYTE   N05  Cn2
 BYTE   W06
 BYTE   En2
 BYTE   W06
 BYTE   Gn2
 BYTE   W06
 BYTE   Cn3
 BYTE   W06
 BYTE   Dn3
 BYTE   W06
 BYTE   N17  En3
 BYTE   N22  En4
 BYTE   N22  En5
 BYTE   W18
 BYTE   N17  Cn3
 BYTE   W06
// 006   ----------------------------------------
 BYTE   N05  Dn4  v064
 BYTE   W06
 BYTE   En4
 BYTE   W06
 BYTE   N11  Bn1
 BYTE   N05  Bn3
 BYTE   N05  Fs4
 BYTE   W01
 BYTE   N04  Bn4
 BYTE   W05
 BYTE   N05  Bn3
 BYTE   W06
 BYTE   N11  Fs2
 BYTE   N05  Cs4
 BYTE   W06
 BYTE   Dn4
 BYTE   W06
 BYTE   N11  Bn2
 BYTE   N05  En4
 BYTE   W06
 BYTE   Fs4
 BYTE   W06
 BYTE   N11  Cs3
 BYTE   N05  Bn4
 BYTE   W06
 BYTE   Bn3
 BYTE   W06
 BYTE   N22  Dn3
 BYTE   N05  Cs4
 BYTE   W06
 BYTE   Dn4
 BYTE   W06
 BYTE   En4
 BYTE   W06
 BYTE   Fs4
 BYTE   W06
 BYTE   N11  Bn1
 BYTE   N05  Bn4
 BYTE   W06
 BYTE   Dn4
 BYTE   W06
// 007   ----------------------------------------
 BYTE   N11  Gn2
 BYTE   N05  Fs4
 BYTE   W06
 BYTE   Cs5
 BYTE   W06
 BYTE   N11  Bn2
 BYTE   N05  Cs4
 BYTE   W06
 BYTE   Fs4
 BYTE   W06
 BYTE   N11  En3
 BYTE   N05  Cs5
 BYTE   W06
 BYTE   Cs4
 BYTE   W06
 BYTE   N11  Fs3
 BYTE   N05  Fs4
 BYTE   W06
 BYTE   Dn5
 BYTE   W06
 BYTE   N11  En3
 BYTE   N05  Dn4
 BYTE   W06
 BYTE   Fs4
 BYTE   W06
 BYTE   N11  Bn1
 BYTE   N05  Dn5
 BYTE   W06
 BYTE   Dn4
 BYTE   W06
 BYTE   N11  Fs2
 BYTE   N05  Fs4
 BYTE   W06
 BYTE   Cs5
 BYTE   W06
 BYTE   N11  Bn2
 BYTE   N05  Dn4
 BYTE   W06
 BYTE   Fs4
 BYTE   W06
// 008   ----------------------------------------
 BYTE   N11  Dn3
 BYTE   N05  Bn4
 BYTE   W06
 BYTE   Bn3
 BYTE   W06
 BYTE   N22  Fs3
 BYTE   N05  Dn4
 BYTE   W06
 BYTE   Fs4
 BYTE   W06
 BYTE   Bn3
 BYTE   W06
 BYTE   Dn4
 BYTE   W06
 BYTE   N11  Bn1
 BYTE   N05  En4
 BYTE   W06
 BYTE   Gn3
 BYTE   W06
 BYTE   N11  Gn2
 BYTE   N05  Bn3
 BYTE   W06
 BYTE   Gn3
 BYTE   N05  Fs4
 BYTE   W06
 BYTE   N11  Bn2
 BYTE   N05  Bn3
 BYTE   W06
 BYTE   Gn3
 BYTE   W06
 BYTE   Dn4
 BYTE   W06
 BYTE   Fs3
 BYTE   N05  Bn3
 BYTE   W06
 BYTE   N22  En3
 BYTE   N05  Dn4
 BYTE   W06
 BYTE   En4
 BYTE   W06
// 009   ----------------------------------------
 BYTE   Bn3
 BYTE   W06
 BYTE   En4
 BYTE   W06
 BYTE   N11  Bn0
 BYTE   N05  Bn3
 BYTE   N05  Fs4
 BYTE   W01
 BYTE   N04  Bn4
 BYTE   W05
 BYTE   N05  Bn3
 BYTE   W06
 BYTE   N11  Fs1
 BYTE   N05  Cs4
 BYTE   W06
 BYTE   Dn4
 BYTE   W06
 BYTE   N11  Bn1
 BYTE   N05  En4
 BYTE   W06
 BYTE   Fs4
 BYTE   W06
 BYTE   N11  Dn2
 BYTE   N05  Bn4
 BYTE   W06
 BYTE   Bn3
 BYTE   W06
 BYTE   N11  Fs2
 BYTE   N05  Cs4
 BYTE   W06
 BYTE   Dn4
 BYTE   W06
 BYTE   N11  Bn2
 BYTE   N05  En4
 BYTE   W06
 BYTE   Fs4
 BYTE   W06
 BYTE   N11  Gn0
 BYTE   N05  Bn4
 BYTE   W06
 BYTE   Dn4
 BYTE   W06
// 010   ----------------------------------------
 BYTE   N11  Dn1
 BYTE   N05  Fs4
 BYTE   W06
 BYTE   Cs5
 BYTE   W06
 BYTE   N11  Gn1
 BYTE   N05  Dn4
 BYTE   W06
 BYTE   Fs4
 BYTE   W06
 BYTE   N11  Bn1
 BYTE   N05  Cs5
 BYTE   W06
 BYTE   En4
 BYTE   W06
 BYTE   N11  Dn2
 BYTE   N05  Fs4
 BYTE   W06
 BYTE   Dn5
 BYTE   W06
 BYTE   N11  Gn2
 BYTE   N05  En4
 BYTE   W06
 BYTE   Fs4
 BYTE   W06
 BYTE   N11  An0
 BYTE   N05  En4
 BYTE   N05  An4
 BYTE   W01
 BYTE   N04  Dn5
 BYTE   W05
 BYTE   N05  En4
 BYTE   W06
 BYTE   N11  En1
 BYTE   N05  An4
 BYTE   W06
 BYTE   Cs5
 BYTE   W06
 BYTE   N11  An1
 BYTE   N05  En4
 BYTE   W06
 BYTE   An4
 BYTE   W06
// 011   ----------------------------------------
 BYTE   N11  Cs2
 BYTE   N05  Cs5
 BYTE   W06
 BYTE   En4
 BYTE   W06
 BYTE   N22  En2
 BYTE   N05  Fs4
 BYTE   W06
 BYTE   N03  An4  v076
 BYTE   W03
 BYTE   W01
 BYTE   W01
 BYTE   W01
 BYTE   N05  Cs4  v064
 BYTE   W06
 BYTE   En4
 BYTE   W06
 BYTE   N11  Fs0
 BYTE   N05  En5
 BYTE   W06
 BYTE   Fs4
 BYTE   W06
 BYTE   N11  Fs1
 BYTE   N05  An4
 BYTE   W06
 BYTE   En5
 BYTE   W06
 BYTE   N11  An1
 BYTE   N05  Fs4
 BYTE   W06
 BYTE   An4
 BYTE   W06
 BYTE   N11  Cs2
 BYTE   N05  Fs5
 BYTE   W06
 BYTE   Fs4
 BYTE   W06
 BYTE   N22  Fs2
 BYTE   N05  An4
 BYTE   W06
 BYTE   Fs5
 BYTE   W06
// 012   ----------------------------------------
 BYTE   Fs4
 BYTE   W06
 BYTE   An4
 BYTE   W06
 BYTE   En1  v080
 BYTE   N11  Fs4
 BYTE   N11  Fs5
 BYTE   W06
 BYTE   N05  Bn1
 BYTE   W06
 BYTE   En2
 BYTE   N11  Gn4
 BYTE   N11  Gn5
 BYTE   W06
 BYTE   N05  Gn2
 BYTE   W06
 BYTE   Bn2
 BYTE   N22  An4
 BYTE   N22  An5
 BYTE   W06
 BYTE   N05  En3
 BYTE   W06
 BYTE   N32  Gn3
 BYTE   W12
 BYTE   N11  Gn4
 BYTE   N11  Gn5
 BYTE   W12
 BYTE   Fs4
 BYTE   N11  Fs5
 BYTE   W12
 BYTE   N05  Fs1
 BYTE   N11  En4
 BYTE   N11  En5
 BYTE   W06
 BYTE   N05  Dn2
 BYTE   W06
// 013   ----------------------------------------
 BYTE   Fs2
 BYTE   N22  Fs4
 BYTE   N22  Fs5
 BYTE   W06
 BYTE   N05  An2
 BYTE   W06
 BYTE   Cs3
 BYTE   W06
 BYTE   En3
 BYTE   W06
 BYTE   N32  Fs3
 BYTE   N11  En4
 BYTE   N11  En5
 BYTE   W12
 BYTE   Dn4
 BYTE   N11  Dn5
 BYTE   W12
 BYTE   Cs4
 BYTE   N11  Cs5
 BYTE   W12
 BYTE   N05  Bn0
 BYTE   N05  Cs4
 BYTE   N05  Cs5
 BYTE   W06
 BYTE   Fs1
 BYTE   N05  Dn4
 BYTE   N05  Dn5
 BYTE   W06
 BYTE   Bn1
 BYTE   N11  Bn3
 BYTE   N11  Bn4
 BYTE   W06
 BYTE   N05  Dn2
 BYTE   W06
 BYTE   Fs2
 BYTE   W06
 BYTE   Bn2
 BYTE   W06
// 014   ----------------------------------------
 BYTE   Cs3
 BYTE   W06
 BYTE   Dn3
 BYTE   W06
 BYTE   Fs3
 BYTE   W06
 BYTE   N17  Bn3
 BYTE   W18
 BYTE   N05  Bn0
 BYTE   N05  Gn3
 BYTE   W01
 BYTE   N04  Cs4
 BYTE   W05
 BYTE   N05  Bn0
 BYTE   N05  Dn4
 BYTE   W06
 BYTE   Dn2
 BYTE   N11  Bn3
 BYTE   W06
 BYTE   N05  Gn2
 BYTE   W06
 BYTE   Bn2
 BYTE   W06
 BYTE   Gn2
 BYTE   W06
 BYTE   Bn2
 BYTE   W06
 BYTE   Dn3
 BYTE   W06
 BYTE   Gn3
 BYTE   W06
 BYTE   N17  Bn3
 BYTE   W18
// 015   ----------------------------------------
 BYTE   N03  Dn3  v096
 BYTE   N03  Fn3
 BYTE   N03  An3
 BYTE   N03  Dn4
 BYTE   W04
 BYTE   Fn4
 BYTE   W04
 BYTE   An4
 BYTE   W04
 BYTE   N11  En1
 BYTE   N11  En2
 BYTE   N03  Dn5
 BYTE   W04
 BYTE   Fn4
 BYTE   W04
 BYTE   An4
 BYTE   W04
 BYTE   N11  Fn1
 BYTE   N11  Fn2
 BYTE   N03  Fn4
 BYTE   W04
 BYTE   An4
 BYTE   W04
 BYTE   Dn5
 BYTE   W04
 BYTE   N11  Dn1
 BYTE   N11  Dn2
 BYTE   N03  An4
 BYTE   W04
 BYTE   Dn5
 BYTE   W04
 BYTE   Fn5
 BYTE   W04
 BYTE   N07  An0
 BYTE   N07  An1
 BYTE   N03  An5
 BYTE   W04
 BYTE   Fn5
 BYTE   W04
 BYTE   N07  Fn0
 BYTE   N07  Fn1
 BYTE   N03  Dn5
 BYTE   W04
 BYTE   An4
 BYTE   W04
 BYTE   N07  Dn0
 BYTE   N07  Dn1
 BYTE   N03  Fn4
 BYTE   W04
 BYTE   Dn4
 BYTE   W04
 BYTE   Fn3
 BYTE   N03  Gs3
 BYTE   N03  Cn4
 BYTE   W04
 BYTE   N03
 BYTE   W04
 BYTE   Fn4
 BYTE   W04
 BYTE   N11  Fn0
 BYTE   N11  Fn1
 BYTE   N03  Cn4
 BYTE   W04
 BYTE   Fn4
 BYTE   W04
 BYTE   Gs4
 BYTE   W04
// 016   ----------------------------------------
 BYTE   N11  Cn1
 BYTE   N11  Cn2
 BYTE   N03  Fn4
 BYTE   W04
 BYTE   Gs4
 BYTE   W04
 BYTE   Cn5
 BYTE   W04
 BYTE   N11  Fn1
 BYTE   N11  Fn2
 BYTE   N03  Gs4
 BYTE   W04
 BYTE   Cn5
 BYTE   W04
 BYTE   Fn5
 BYTE   W04
 BYTE   N07  Gn1
 BYTE   N07  Gn2
 BYTE   N03  Ds5
 BYTE   N03  Gs5
 BYTE   W04
 BYTE   Cn5
 BYTE   N03  Fn5
 BYTE   W04
 BYTE   N07  Gs1
 BYTE   N07  Gs2
 BYTE   N03  Gs4
 BYTE   N03  Cn5
 BYTE   W04
 BYTE   N11  Fn4
 BYTE   N11  Gs4
 BYTE   W04
 BYTE   N07  As1
 BYTE   N07  As2
 BYTE   W08
 BYTE   N03  Ds3
 BYTE   N03  Gs3
 BYTE   N03  Bn3
 BYTE   W04
 BYTE   Ds4
 BYTE   W04
 BYTE   Gs4
 BYTE   W04
 BYTE   N11  As1
 BYTE   N11  As2
 BYTE   N03  Ds4
 BYTE   W04
 BYTE   Gs4
 BYTE   W04
 BYTE   Bn4
 BYTE   W04
 BYTE   N11  Bn1
 BYTE   N11  Bn2
 BYTE   N03  Gs4
 BYTE   W04
 BYTE   Bn4
 BYTE   W04
 BYTE   Ds5
 BYTE   W04
 BYTE   N11  Gs1
 BYTE   N11  Gs2
 BYTE   N03  Ds4
 BYTE   N03  Bn4
 BYTE   W04
 BYTE   Gs4
 BYTE   N03  Ds5
 BYTE   W04
 BYTE   Bn4
 BYTE   N03  Gs5
 BYTE   W04
// 017   ----------------------------------------
 BYTE   N07  Ds1
 BYTE   N07  Ds2
 BYTE   N03  Ds5
 BYTE   N03  Bn5
 BYTE   W04
 BYTE   Bn4
 BYTE   N03  Gs5
 BYTE   W04
 BYTE   N07  Bn0
 BYTE   N07  Bn1
 BYTE   N03  Gs4
 BYTE   N03  Ds5
 BYTE   W04
 BYTE   Bn4
 BYTE   N03  Gs5
 BYTE   W04
 BYTE   N07  Ds0
 BYTE   N07  Ds1
 BYTE   N03  Gs4
 BYTE   N03  Ds5
 BYTE   W04
 BYTE   Ds4
 BYTE   N03  Bn4
 BYTE   W04
 BYTE   N07  En0
 BYTE   N03  En5
 BYTE   W02
 BYTE   W02
 BYTE   Bn4
 BYTE   W02
 BYTE   W02
 BYTE   N07  Bn1
 BYTE   N03  Gs4
 BYTE   W01
 BYTE   W02
 BYTE   W01
 BYTE   En4  v092
 BYTE   W01
 BYTE   W02
 BYTE   W01
 BYTE   N07  En2
 BYTE   N03  Gs4
 BYTE   W02
 BYTE   W02
 BYTE   Bn4  v088
 BYTE   W02
 BYTE   W02
 BYTE   N07  Fs2
 BYTE   N03  Ds5
 BYTE   W03
 BYTE   W01
 BYTE   Bn4  v084
 BYTE   W01
 BYTE   W02
 BYTE   W01
 BYTE   N07  Gs2
 BYTE   N03  Gs4
 BYTE   W01
 BYTE   W03
 BYTE   En4  v080
 BYTE   W02
 BYTE   W02
 BYTE   N07  Bn2
 BYTE   N03  Gs4
 BYTE   W02
 BYTE   W02
 BYTE   En4
 BYTE   W01
 BYTE   W02
 BYTE   W01
 BYTE   N22  En3  v076
 BYTE   N03  Bn4
 BYTE   W01
 BYTE   W02
 BYTE   W01
 BYTE   Gs4
 BYTE   W02
 BYTE   W02
 BYTE   En4  v072
 BYTE   W02
 BYTE   W02
 BYTE   Bn3
 BYTE   W03
 BYTE   W01
 BYTE   Gs3  v068
 BYTE   W01
 BYTE   W02
 BYTE   W01
 BYTE   Bn3
 BYTE   W01
 BYTE   W03
// 018   ----------------------------------------
 BYTE   N07  En0  v064
 BYTE   N03  Gs4
 BYTE   W04
 BYTE   Ds4
 BYTE   W04
 BYTE   N07  Bn0
 BYTE   N03  Bn3
 BYTE   W04
 BYTE   Gs3
 BYTE   W04
 BYTE   N07  En1
 BYTE   N03  Bn3
 BYTE   W04
 BYTE   Ds4
 BYTE   W04
 BYTE   N07  Gs1
 BYTE   N03  Gs4
 BYTE   W04
 BYTE   Ds4
 BYTE   W04
 BYTE   N07  Bn1
 BYTE   N03  Bn3
 BYTE   W04
 BYTE   Gs3
 BYTE   W04
 BYTE   N07  En2
 BYTE   N03  Bn3
 BYTE   W04
 BYTE   Ds4
 BYTE   W04
 BYTE   N22  Gs2
 BYTE   N03  Bn4
 BYTE   W04
 BYTE   Gs4
 BYTE   W04
 BYTE   Ds4
 BYTE   W04
 BYTE   Bn3
 BYTE   W04
 BYTE   Gs3
 BYTE   W04
 BYTE   Bn3
 BYTE   W04
 BYTE   Cs4
 BYTE   W01
 BYTE   W01
 BYTE   W01
 BYTE   W01
 BYTE   Bn3  v072
 BYTE   W01
 BYTE   W01
 BYTE   W01
 BYTE   W01
 BYTE   As3  v076
 BYTE   W01
 BYTE   W01
 BYTE   W01
 BYTE   W01
 BYTE   Gs3  v084
 BYTE   W01
 BYTE   W01
 BYTE   W01
 BYTE   W01
 BYTE   Ds3  v088
 BYTE   W02
 BYTE   W01
 BYTE   W01
 BYTE   Bn2  v096
 BYTE   W01
 BYTE   W01
 BYTE   W01
 BYTE   W01
// 019   ----------------------------------------
 BYTE   Gs2  v104
 BYTE   W01
 BYTE   W01
 BYTE   W01
 BYTE   W01
 BYTE   Ds2  v108
 BYTE   W01
 BYTE   W01
 BYTE   W01
 BYTE   W01
 BYTE   Bn1  v116
 BYTE   W01
 BYTE   W01
 BYTE   W01
 BYTE   W01
 BYTE   Gs1  v120
 BYTE   W01
 BYTE   W01
 BYTE   W01
 BYTE   W01
 BYTE   Ds1  v127
 BYTE   W02
 BYTE   N02  Bn4  v064
 BYTE   W02
 BYTE   N03  Bn0
 BYTE   W01
 BYTE   N02  Cs5
 BYTE   W03
 BYTE   TEMPO   156*FE16AFuneralofFlowersThunderMrGreen3339_tbs/2
 BYTE   N11  Ds5
 BYTE   W12
 BYTE   Ds4
 BYTE   W12
 BYTE   Gs4
 BYTE   W12
 BYTE   Bn4
 BYTE   W12
 BYTE   Ds4
 BYTE   W12
 BYTE   Gs4
 BYTE   W12
// 020   ----------------------------------------
 BYTE   Cs5
 BYTE   W12
 BYTE   Ds4
 BYTE   W12
 BYTE   Gs4
 BYTE   W12
 BYTE   As4
 BYTE   W12
 BYTE   Ds4
 BYTE   W12
 BYTE   Gs4
 BYTE   W12
 BYTE   Gs1
 BYTE   N11  Bn4
 BYTE   W12
 BYTE   En2
 BYTE   N11  Bn3
 BYTE   W12
// 021   ----------------------------------------
 BYTE   Gs2
 BYTE   N11  En4
 BYTE   W12
 BYTE   N32  Bn2
 BYTE   N11  Gs4
 BYTE   W12
 BYTE   Bn3
 BYTE   W12
 BYTE   En4
 BYTE   W12
 BYTE   As4
 BYTE   W12
 BYTE   Bn3
 BYTE   W12
 BYTE   En4
 BYTE   W12
 BYTE   N32  Bn4
 BYTE   W36
// 022   ----------------------------------------
 BYTE   N11  Gs1
 BYTE   W12
 BYTE   Ds2
 BYTE   W12
 BYTE   Gs2
 BYTE   W12
 BYTE   As2
 BYTE   N32  Bn3  v076
 BYTE   W03
 BYTE   W01
 BYTE   N30  Ds4
 BYTE   W01
 BYTE   W03
 BYTE   N24  Gs4
 BYTE   W04
 BYTE   N11  Bn2  v064
 BYTE   N23  Bn4  v076
 BYTE   W12
 BYTE   N11  Ds3  v064
 BYTE   W12
 BYTE   N11
 BYTE   N24  Cs4  v076
 BYTE   N24  Cs5
 BYTE   W03
 BYTE   W01
 BYTE   W01
 BYTE   W07
 BYTE   N11  Bn2  v064
 BYTE   W12
// 023   ----------------------------------------
 BYTE   As2
 BYTE   W12
 BYTE   Gs2
 BYTE   N24  As3  v076
 BYTE   N24  As4
 BYTE   W03
 BYTE   W01
 BYTE   W01
 BYTE   W07
 BYTE   N11  Fs2  v064
 BYTE   W12
 BYTE   En2
 BYTE   W12
 BYTE   Gs1
 BYTE   N24  Bn3  v076
 BYTE   N24  Bn4
 BYTE   W03
 BYTE   W01
 BYTE   W01
 BYTE   W07
 BYTE   N11  Ds2  v064
 BYTE   W12
 BYTE   Gs2
 BYTE   W12
 BYTE   As2
 BYTE   W12
// 024   ----------------------------------------
 BYTE   Bn2
 BYTE   W12
 BYTE   Ds3
 BYTE   W12
 BYTE   N11
 BYTE   W12
 BYTE   Bn2
 BYTE   W12
 BYTE   As2
 BYTE   W12
 BYTE   Gs2
 BYTE   W12
 BYTE   Ds2
 BYTE   W12
 BYTE   Gs1
 BYTE   W12
// 025   ----------------------------------------
 BYTE   En1
 BYTE   W12
 BYTE   Bn1
 BYTE   W12
 BYTE   En2
 BYTE   W12
 BYTE   Fs2
 BYTE   N24  Bn3  v076
 BYTE   N24  Bn4
 BYTE   W03
 BYTE   W01
 BYTE   W01
 BYTE   W07
 BYTE   N11  Gs2  v064
 BYTE   W12
 BYTE   Bn2
 BYTE   W12
 BYTE   N11
 BYTE   N24  Cs4  v076
 BYTE   N24  Cs5
 BYTE   W03
 BYTE   W01
 BYTE   W01
 BYTE   W07
 BYTE   N11  Gs2  v064
 BYTE   W12
// 026   ----------------------------------------
 BYTE   Fs2
 BYTE   W12
 BYTE   N32  En2
 BYTE   N24  As3  v076
 BYTE   N24  As4
 BYTE   W03
 BYTE   W01
 BYTE   W01
 BYTE   W30
 BYTE   W01
 BYTE   N11  En1  v064
 BYTE   N24  Fs3  v076
 BYTE   N24  Fs4
 BYTE   W03
 BYTE   W01
 BYTE   W01
 BYTE   W07
 BYTE   N11  Bn1  v064
 BYTE   W12
 BYTE   En2
 BYTE   W12
 BYTE   Fs2
 BYTE   W12
// 027   ----------------------------------------
 BYTE   Gs2
 BYTE   W12
 BYTE   Bn2
 BYTE   W12
 BYTE   N11
 BYTE   W12
 BYTE   Gs2
 BYTE   W12
 BYTE   Fs2
 BYTE   W12
 BYTE   N22  En2
 BYTE   W24
 BYTE   N11  Bn1
 BYTE   W12
// 028   ----------------------------------------
 BYTE   Fs1
 BYTE   W12
 BYTE   Cs2
 BYTE   W12
 BYTE   Fs2
 BYTE   W12
 BYTE   As2
 BYTE   N24  Bn3  v076
 BYTE   N24  Bn4
 BYTE   W03
 BYTE   W01
 BYTE   W01
 BYTE   W07
 BYTE   N11  Bn2  v064
 BYTE   W12
 BYTE   Cs3
 BYTE   W12
 BYTE   N11
 BYTE   N24  Cs4  v076
 BYTE   N24  Cs5
 BYTE   W03
 BYTE   W01
 BYTE   W01
 BYTE   W07
 BYTE   N11  As2  v064
 BYTE   W12
// 029   ----------------------------------------
 BYTE   Gs2
 BYTE   W12
 BYTE   N22  Fs2
 BYTE   N24  As3  v076
 BYTE   N24  As4
 BYTE   W03
 BYTE   W01
 BYTE   W01
 BYTE   W19
 BYTE   N11  Cs2  v064
 BYTE   W12
 BYTE   Fs1
 BYTE   N48  Bn3  v076
 BYTE   N48  Bn4
 BYTE   W03
 BYTE   W01
 BYTE   W01
 BYTE   W07
 BYTE   N11  Cs2  v064
 BYTE   W12
 BYTE   Fs2
 BYTE   W12
 BYTE   As2
 BYTE   W12
// 030   ----------------------------------------
 BYTE   Bn2
 BYTE   W12
 BYTE   Cs3
 BYTE   W12
 BYTE   N11
 BYTE   N48  Fs4  v076
 BYTE   N48  Fs5
 BYTE   W03
 BYTE   W01
 BYTE   W01
 BYTE   W07
 BYTE   N11  As2  v064
 BYTE   W12
 BYTE   Gs2
 BYTE   W12
 BYTE   N22  Fs2
 BYTE   W24
 BYTE   N11  Cs2
 BYTE   W12
// 031   ----------------------------------------
 BYTE   Ds1
 BYTE   N32  Fs4  v076
 BYTE   W03
 BYTE   W01
 BYTE   N30  As4
 BYTE   W01
 BYTE   W03
 BYTE   N24  Ds5
 BYTE   W04
 BYTE   N11  As1  v064
 BYTE   N23  Fs5  v076
 BYTE   W12
 BYTE   N11  Ds2  v064
 BYTE   W12
 BYTE   Fn2
 BYTE   N24  En4  v076
 BYTE   N24  En5
 BYTE   W03
 BYTE   W01
 BYTE   W01
 BYTE   W07
 BYTE   N11  Fs2  v064
 BYTE   W12
 BYTE   Gs2
 BYTE   W12
 BYTE   As2
 BYTE   N24  Ds4  v076
 BYTE   N24  Ds5
 BYTE   W03
 BYTE   W01
 BYTE   W01
 BYTE   W07
 BYTE   N11  Gs2  v064
 BYTE   W12
// 032   ----------------------------------------
 BYTE   Fs2
 BYTE   W12
 BYTE   N22  Fn2
 BYTE   N24  Cs4  v076
 BYTE   N24  Cs5
 BYTE   W03
 BYTE   W01
 BYTE   W01
 BYTE   W19
 BYTE   N11  As1  v064
 BYTE   W12
 BYTE   Ds1
 BYTE   W12
 BYTE   As1
 BYTE   W12
 BYTE   Ds2
 BYTE   W12
 BYTE   Fn2
 BYTE   N24  Ds4  v076
 BYTE   N24  Ds5
 BYTE   W03
 BYTE   W01
 BYTE   W01
 BYTE   W07
// 033   ----------------------------------------
 BYTE   N11  Fs2  v064
 BYTE   W12
 BYTE   As2
 BYTE   W12
 BYTE   Cs3
 BYTE   W12
 BYTE   As2
 BYTE   W12
 BYTE   Fs2
 BYTE   W12
 BYTE   N22  Fn2
 BYTE   N24  As3  v076
 BYTE   N24  As4
 BYTE   W03
 BYTE   W01
 BYTE   W01
 BYTE   W19
 BYTE   N11  As1  v064
 BYTE   W12
// 034   ----------------------------------------
 BYTE   En1
 BYTE   N23  Gs3
 BYTE   W04
 BYTE   N19  Ds4
 BYTE   W04
 BYTE   N15  Gs4
 BYTE   W04
 BYTE   N11  Bn1
 BYTE   W12
 BYTE   En2
 BYTE   N11  Ds3
 BYTE   W12
 BYTE   Fs2
 BYTE   N11  Gs3
 BYTE   W12
 BYTE   N22  Gs2
 BYTE   N11  Bn3
 BYTE   W12
 BYTE   Gs3
 BYTE   W12
 BYTE   En1
 BYTE   N11  Ds3
 BYTE   W12
 BYTE   Bn1
 BYTE   N11  Gs3
 BYTE   W12
// 035   ----------------------------------------
 BYTE   En2
 BYTE   N11  Cs4
 BYTE   W12
 BYTE   Fs2
 BYTE   N11  Gs3
 BYTE   W12
 BYTE   N22  Gs2
 BYTE   N11  Ds3
 BYTE   W12
 BYTE   Gs3
 BYTE   W12
 BYTE   En1
 BYTE   N11  Ds4
 BYTE   W12
 BYTE   Bn1
 BYTE   N11  Gs3
 BYTE   W12
 BYTE   En2
 BYTE   N11  Ds3
 BYTE   W12
 BYTE   Fs2
 BYTE   N11  Gs3
 BYTE   W12
// 036   ----------------------------------------
 BYTE   N22  Gs2
 BYTE   N11  As3
 BYTE   W12
 BYTE   Gs3
 BYTE   W12
 BYTE   En1
 BYTE   N11  Ds3
 BYTE   W12
 BYTE   Bn1
 BYTE   N11  Gs3
 BYTE   W12
 BYTE   En2
 BYTE   N11  Bn3
 BYTE   W12
 BYTE   Fs2
 BYTE   N11  Gs3
 BYTE   W12
 BYTE   N22  Gs2
 BYTE   N11  Ds3
 BYTE   W12
 BYTE   Gs3
 BYTE   W12
// 037   ----------------------------------------
 BYTE   En1
 BYTE   N11  As3
 BYTE   W12
 BYTE   Bn1
 BYTE   N11  Gs3
 BYTE   W12
 BYTE   En2
 BYTE   N11  Ds3
 BYTE   W12
 BYTE   En1
 BYTE   N11  As3
 BYTE   W12
 BYTE   Bn1
 BYTE   N11  Gs3
 BYTE   W12
 BYTE   En2
 BYTE   N11  Ds3
 BYTE   W12
 BYTE   En1
 BYTE   N11  Bn3
 BYTE   W12
 BYTE   Bn1
 BYTE   N11  Gs3
 BYTE   W12
// 038   ----------------------------------------
 BYTE   En2
 BYTE   N11  Ds3
 BYTE   W12
 BYTE   En1
 BYTE   N11  Cs4
 BYTE   W12
 BYTE   Bn1
 BYTE   N11  Ds3
 BYTE   W12
 BYTE   En2
 BYTE   N11  Gs3
 BYTE   W12
 BYTE   En1
 BYTE   N11  Ds4
 BYTE   W12
 BYTE   Bn1
 BYTE   N11  Ds3
 BYTE   W12
 BYTE   En2
 BYTE   N11  Gs3
 BYTE   W12
 BYTE   En1
 BYTE   N11  As3
 BYTE   W12
// 039   ----------------------------------------
 BYTE   Bn1
 BYTE   N11  Bn3
 BYTE   W12
 BYTE   En1
 BYTE   N11  Cs4
 BYTE   W12
 BYTE   Bn1
 BYTE   N05  Ds4
 BYTE   W02
 BYTE   W02
 BYTE   W02
 BYTE   Gs3  v068
 BYTE   W03
 BYTE   W02
 BYTE   W01
 BYTE   N11  En1  v072
 BYTE   N05  As3
 BYTE   W01
 BYTE   W02
 BYTE   W03
 BYTE   Bn3
 BYTE   W02
 BYTE   W02
 BYTE   W02
 BYTE   N11  Bn1  v076
 BYTE   N05  Cs4
 BYTE   W03
 BYTE   W02
 BYTE   W01
 BYTE   Ds4  v080
 BYTE   W01
 BYTE   W02
 BYTE   W03
 BYTE   N11  En1
 BYTE   N05  En4
 BYTE   W02
 BYTE   W02
 BYTE   W02
 BYTE   Fs4  v084
 BYTE   W03
 BYTE   W02
 BYTE   W01
 BYTE   N11  Bn1  v088
 BYTE   N05  Gs4
 BYTE   W01
 BYTE   W02
 BYTE   W03
 BYTE   As4
 BYTE   W02
 BYTE   W02
 BYTE   W02
 BYTE   N11  En1  v092
 BYTE   N05  Bn4
 BYTE   W03
 BYTE   W02
 BYTE   W01
 BYTE   Cs5  v096
 BYTE   W01
 BYTE   W02
 BYTE   W03
// 040   ----------------------------------------
 BYTE   Gs5
 BYTE   W06
 BYTE   Gs4
 BYTE   W06
 BYTE   Fs5
 BYTE   W06
 BYTE   Fs4
 BYTE   W06
 BYTE   As4
 BYTE   W06
 BYTE   As3
 BYTE   W06
 BYTE   Bn4
 BYTE   W06
 BYTE   Bn3
 BYTE   W06
 BYTE   Fs5
 BYTE   W06
 BYTE   Fs4
 BYTE   W06
 BYTE   En5
 BYTE   W06
 BYTE   En4
 BYTE   W06
 BYTE   Gs4
 BYTE   W06
 BYTE   Gs3
 BYTE   W06
 BYTE   En5
 BYTE   W06
 BYTE   En4
 BYTE   W06
// 041   ----------------------------------------
 BYTE   Ds5
 BYTE   W06
 BYTE   Ds4
 BYTE   W06
 BYTE   Bn4
 BYTE   W06
 BYTE   Bn3
 BYTE   W06
 BYTE   Gs4
 BYTE   W06
 BYTE   Gs3
 BYTE   W06
 BYTE   Ds4
 BYTE   W06
 BYTE   Ds3
 BYTE   W06
 BYTE   TEMPO   76*FE16AFuneralofFlowersThunderMrGreen3339_tbs/2
 BYTE   N07  En0
 BYTE   W03
 BYTE   W01
 BYTE   W01
 BYTE   W07
 BYTE   N05  Gs2  v080
 BYTE   W06
 BYTE   As2
 BYTE   W06
 BYTE   Bn2
 BYTE   W06
 BYTE   Cs3
 BYTE   W06
 BYTE   Ds3
 BYTE   N11  Ds5  v096
 BYTE   W01
 BYTE   N10  Gs5
 BYTE   W01
 BYTE   N09  Bn5
 BYTE   W01
 BYTE   W01
 BYTE   N07  Ds6
 BYTE   W01
 BYTE   W01
 BYTE   N05  Gs3  v080
 BYTE   W06
// 042   ----------------------------------------
 BYTE   As3
 BYTE   W06
 BYTE   Bn3
 BYTE   W06
 BYTE   Ds4
 BYTE   W06
 BYTE   Gs4
 BYTE   W06
 BYTE   N11  En1
 BYTE   N05  Bn3  v096
 BYTE   N05  Ds4
 BYTE   W01
 BYTE   N04  Gs4
 BYTE   W01
 BYTE   N03  As4
 BYTE   W01
 BYTE   W01
 BYTE   W01
 BYTE   W01
 BYTE   N05  Bn3  v080
 BYTE   W06
 BYTE   N11  Bn1
 BYTE   N05  Cs4
 BYTE   W06
 BYTE   Ds4
 BYTE   W06
 BYTE   N11  En2
 BYTE   N03  Ds4  v096
 BYTE   N03  Gs4
 BYTE   W03
 BYTE   W01
 BYTE   W01
 BYTE   W01
 BYTE   N05  Gs3  v080
 BYTE   W06
 BYTE   N11  Fs2
 BYTE   N03  Ds4  v096
 BYTE   W03
 BYTE   W01
 BYTE   W01
 BYTE   W01
 BYTE   N05  Gs3  v080
 BYTE   W06
 BYTE   N11  Gs2
 BYTE   N05  Bn3
 BYTE   W06
 BYTE   Cs4
 BYTE   W06
 BYTE   N11  Bn2
 BYTE   N05  Ds4
 BYTE   W06
 BYTE   Gs3
 BYTE   W06
// 043   ----------------------------------------
 BYTE   N11  Fs1
 BYTE   N05  Ds4
 BYTE   W06
 BYTE   As3
 BYTE   W06
 BYTE   N11  Cs2
 BYTE   N05  As3  v096
 BYTE   N05  Ds4
 BYTE   W01
 BYTE   N04  As4
 BYTE   W02
 BYTE   W01
 BYTE   W01
 BYTE   W01
 BYTE   N05  As3  v080
 BYTE   W06
 BYTE   N11  Gs2
 BYTE   N03  Gs4  v096
 BYTE   W03
 BYTE   W01
 BYTE   W01
 BYTE   W01
 BYTE   N05  As3  v080
 BYTE   W06
 BYTE   N32  As2
 BYTE   N03  Ds4  v096
 BYTE   W03
 BYTE   W01
 BYTE   W01
 BYTE   W01
 BYTE   N05  Fs3  v080
 BYTE   W06
 BYTE   Gs3
 BYTE   W06
 BYTE   As3
 BYTE   W06
 BYTE   N03  Fs3  v096
 BYTE   N03  Cs4
 BYTE   W03
 BYTE   W01
 BYTE   W01
 BYTE   W01
 BYTE   N05  As3  v080
 BYTE   W06
 BYTE   N11  Gs1
 BYTE   N03  Bn3  v096
 BYTE   N03  Ds4
 BYTE   W03
 BYTE   W01
 BYTE   W01
 BYTE   W01
 BYTE   N05  Gs3  v080
 BYTE   W06
 BYTE   N11  Ds2
 BYTE   N03  Bn3  v096
 BYTE   N03  Fs4
 BYTE   W03
 BYTE   W01
 BYTE   W01
 BYTE   W01
 BYTE   N05  Gs3  v080
 BYTE   W06
// 044   ----------------------------------------
 BYTE   N11  Gs2
 BYTE   N03  Bn3  v096
 BYTE   N03  Gs4
 BYTE   W03
 BYTE   W01
 BYTE   W01
 BYTE   W01
 BYTE   N05  Gs3  v080
 BYTE   W06
 BYTE   N11  As2
 BYTE   N03  Bn3  v096
 BYTE   N03  Ds4
 BYTE   W03
 BYTE   W01
 BYTE   W01
 BYTE   W01
 BYTE   N05  Gs3  v080
 BYTE   W06
 BYTE   N11  Bn2
 BYTE   N05  Bn3
 BYTE   W06
 BYTE   Gs3
 BYTE   W06
 BYTE   N11  Gs2
 BYTE   N03  Bn3  v096
 BYTE   N03  Cs4
 BYTE   W03
 BYTE   W01
 BYTE   W01
 BYTE   W01
 BYTE   N05  Gs3  v080
 BYTE   W06
 BYTE   N11  Bn0
 BYTE   N03  Ds4  v096
 BYTE   W03
 BYTE   W01
 BYTE   W01
 BYTE   W01
 BYTE   N05  Fs3  v080
 BYTE   W06
 BYTE   N11  Fs1
 BYTE   N05  Bn3
 BYTE   W06
 BYTE   Cs4
 BYTE   W06
 BYTE   N11  Bn1
 BYTE   N05  Ds4
 BYTE   W06
 BYTE   Fs3
 BYTE   W06
 BYTE   N11  Cs2
 BYTE   N05  Bn3
 BYTE   W06
 BYTE   Cs4
 BYTE   W06
// 045   ----------------------------------------
 BYTE   N11  Ds2
 BYTE   N05  Ds4
 BYTE   W06
 BYTE   Fs3
 BYTE   W06
 BYTE   N11  Fs2
 BYTE   N05  Bn3
 BYTE   W06
 BYTE   Cs4
 BYTE   W06
 BYTE   N11  Cs1
 BYTE   N03  As3  v096
 BYTE   N03  En4
 BYTE   N03  As4
 BYTE   W03
 BYTE   W01
 BYTE   W01
 BYTE   W01
 BYTE   N05  En4  v080
 BYTE   W06
 BYTE   N11  Gs1
 BYTE   N05  Cs4
 BYTE   W06
 BYTE   En4
 BYTE   W06
 BYTE   N11  Cs2
 BYTE   N03  Gs3  v096
 BYTE   N03  En4
 BYTE   N03  Gs4
 BYTE   W03
 BYTE   W01
 BYTE   W01
 BYTE   W01
 BYTE   N05  Cs4  v080
 BYTE   W06
 BYTE   N11  En2
 BYTE   N03  Ds3  v096
 BYTE   N03  Ds4
 BYTE   N03  En4
 BYTE   W03
 BYTE   W01
 BYTE   W01
 BYTE   W01
 BYTE   N05  Cs4  v080
 BYTE   W06
 BYTE   N22  Gs2
 BYTE   N05  Gs3
 BYTE   W06
 BYTE   As3
 BYTE   W06
 BYTE   Bn3
 BYTE   W06
 BYTE   Ds4
 BYTE   W06
// 046   ----------------------------------------
 BYTE   N11  Ds1
 BYTE   N05  Ds4
 BYTE   W06
 BYTE   As3
 BYTE   W06
 BYTE   N11  As1
 BYTE   N03  Ds4  v096
 BYTE   N03  As4
 BYTE   W03
 BYTE   W01
 BYTE   W01
 BYTE   W01
 BYTE   N05  As3  v080
 BYTE   W06
 BYTE   N11  Ds2
 BYTE   N03  Ds4  v096
 BYTE   N03  Gs4
 BYTE   W03
 BYTE   W01
 BYTE   W01
 BYTE   W01
 BYTE   N05  As3  v080
 BYTE   W06
 BYTE   N11  Fs2
 BYTE   N03  Ds4  v096
 BYTE   W03
 BYTE   W01
 BYTE   W01
 BYTE   W01
 BYTE   N05  Fs3  v080
 BYTE   W06
 BYTE   N22  As2
 BYTE   N05  Gs3
 BYTE   W06
 BYTE   As3
 BYTE   W06
 BYTE   N03  Cs4  v096
 BYTE   W03
 BYTE   W01
 BYTE   W01
 BYTE   W01
 BYTE   N05  As3  v080
 BYTE   W06
 BYTE   N11  En1
 BYTE   N03  Gs3  v096
 BYTE   N03  Ds4
 BYTE   W03
 BYTE   W01
 BYTE   W01
 BYTE   W01
 BYTE   N05  Gs3  v080
 BYTE   W06
 BYTE   N11  Bn1
 BYTE   N03  Ds4  v096
 BYTE   N03  Fs4
 BYTE   W03
 BYTE   W01
 BYTE   W01
 BYTE   W01
 BYTE   N05  Gs3  v080
 BYTE   W06
// 047   ----------------------------------------
 BYTE   N11  En2
 BYTE   N03  Ds4  v096
 BYTE   N03  Gs4
 BYTE   W03
 BYTE   W01
 BYTE   W01
 BYTE   W01
 BYTE   N05  Gs3  v080
 BYTE   W06
 BYTE   N11  Fs2
 BYTE   N03  Ds4  v096
 BYTE   W03
 BYTE   W01
 BYTE   W01
 BYTE   W01
 BYTE   N05  Gs3  v080
 BYTE   W06
 BYTE   N22  Gs2
 BYTE   N05  As3
 BYTE   W06
 BYTE   Bn3
 BYTE   W06
 BYTE   N03  Cs4  v096
 BYTE   W03
 BYTE   W01
 BYTE   W01
 BYTE   W01
 BYTE   N05  Gs3  v080
 BYTE   W06
 BYTE   N11  Fs1
 BYTE   N03  Ds4  v096
 BYTE   W03
 BYTE   W01
 BYTE   W01
 BYTE   W01
 BYTE   N05  Fs3  v080
 BYTE   W06
 BYTE   N11  Cs2
 BYTE   N05  As3
 BYTE   W06
 BYTE   Bn3
 BYTE   W06
 BYTE   N11  Fs2
 BYTE   N05  Cs4
 BYTE   W06
 BYTE   Ds4
 BYTE   W06
 BYTE   N11  Gs2
 BYTE   N05  Fs4
 BYTE   W06
 BYTE   Cs4
 BYTE   W06
// 048   ----------------------------------------
 BYTE   N22  As2
 BYTE   N05  Ds4
 BYTE   W06
 BYTE   Fs4
 BYTE   W06
 BYTE   N02  Fs4  v096
 BYTE   W03
 BYTE   Gs4
 BYTE   W03
 BYTE   An4
 BYTE   W03
 BYTE   Bn4
 BYTE   W03
 BYTE   N07  Gn0  v116
 BYTE   N07  Gn1
 BYTE   N05  Cs4
 BYTE   N05  Fs4
 BYTE   W01
 BYTE   N04  Cs5
 BYTE   W02
 BYTE   W01
 BYTE   W01
 BYTE   W01
 BYTE   N05  Dn4  v096
 BYTE   W06
 BYTE   N11  Dn2
 BYTE   N11  Gn2
 BYTE   N05  En4
 BYTE   W06
 BYTE   Fs4
 BYTE   W06
 BYTE   N11  Fs2
 BYTE   N11  Bn2
 BYTE   N03  Fs4  v116
 BYTE   N03  Bn4
 BYTE   W03
 BYTE   W01
 BYTE   W01
 BYTE   W01
 BYTE   N05  En4  v096
 BYTE   W06
 BYTE   N11  Bn2
 BYTE   N11  Dn3
 BYTE   N03  Fs4  v116
 BYTE   W03
 BYTE   W01
 BYTE   W01
 BYTE   W01
 BYTE   N05  Bn3  v096
 BYTE   W06
 BYTE   N11  Fs2
 BYTE   N11  Bn2
 BYTE   N05  Cs4
 BYTE   W06
 BYTE   Dn4
 BYTE   W06
 BYTE   N11  Dn2
 BYTE   N11  Fs2
 BYTE   N05  Fs4
 BYTE   W06
 BYTE   Bn3
 BYTE   W06
// 049   ----------------------------------------
 BYTE   N07  An0  v116
 BYTE   N07  An1
 BYTE   N05  Fs4  v096
 BYTE   W03
 BYTE   W01
 BYTE   W01
 BYTE   W01
 BYTE   En4
 BYTE   W06
 BYTE   N11  En2
 BYTE   N11  An2
 BYTE   N05  En4  v116
 BYTE   N05  An4
 BYTE   W01
 BYTE   N04  Cs5
 BYTE   W02
 BYTE   W01
 BYTE   W01
 BYTE   W01
 BYTE   N05  En4  v096
 BYTE   W06
 BYTE   N11  An2
 BYTE   N11  Cs3
 BYTE   N03  Bn4  v116
 BYTE   W03
 BYTE   W01
 BYTE   W01
 BYTE   W01
 BYTE   N05  En4  v096
 BYTE   W06
 BYTE   N11  Cs3
 BYTE   N11  En3
 BYTE   N03  Fs4  v116
 BYTE   W03
 BYTE   W01
 BYTE   W01
 BYTE   W01
 BYTE   N05  Cs4  v096
 BYTE   W06
 BYTE   N11  An2
 BYTE   N11  Cs3
 BYTE   N05  Bn3
 BYTE   W06
 BYTE   Cs4
 BYTE   W06
 BYTE   N11  En2
 BYTE   N11  An2
 BYTE   N03  En4  v116
 BYTE   W03
 BYTE   W01
 BYTE   W01
 BYTE   W01
 BYTE   N05  Cs4  v096
 BYTE   W06
 BYTE   N11  Bn0
 BYTE   N11  Bn1
 BYTE   N05  Bn3  v116
 BYTE   N05  Dn4
 BYTE   W01
 BYTE   N04  Fs4
 BYTE   W02
 BYTE   W01
 BYTE   W01
 BYTE   W01
 BYTE   N05  Bn3  v096
 BYTE   W06
 BYTE   N11  Fs2
 BYTE   N11  Bn2
 BYTE   N03  An4  v116
 BYTE   W03
 BYTE   W01
 BYTE   W01
 BYTE   W01
 BYTE   N05  Bn3  v096
 BYTE   W06
// 050   ----------------------------------------
 BYTE   N11  Bn2
 BYTE   N11  Dn3
 BYTE   N03  Bn4  v116
 BYTE   W03
 BYTE   W01
 BYTE   W01
 BYTE   W01
 BYTE   N05  Bn3  v096
 BYTE   W06
 BYTE   N11  Dn3
 BYTE   N11  Fs3
 BYTE   N03  Fs4  v116
 BYTE   W03
 BYTE   W01
 BYTE   W01
 BYTE   W01
 BYTE   N05  Bn3  v096
 BYTE   W06
 BYTE   N11  Bn2
 BYTE   N11  Dn3
 BYTE   N05  Cs4
 BYTE   W06
 BYTE   Dn4
 BYTE   W06
 BYTE   N11  Fs2
 BYTE   N11  Bn2
 BYTE   N03  En4  v116
 BYTE   W03
 BYTE   W01
 BYTE   W01
 BYTE   W01
 BYTE   N05  Bn3  v096
 BYTE   W06
 BYTE   N11  Dn1
 BYTE   N11  Dn2
 BYTE   N05  Fs4
 BYTE   W06
 BYTE   An3
 BYTE   W06
 BYTE   N11  Fs2
 BYTE   N11  An2
 BYTE   N05  Bn3
 BYTE   W06
 BYTE   Cs4
 BYTE   W06
 BYTE   N11  An2
 BYTE   N11  Cs3
 BYTE   N05  Fs4
 BYTE   W06
 BYTE   An3
 BYTE   W06
 BYTE   N11  Cs3
 BYTE   N04  Fs3
 BYTE   N03  Fs4
 BYTE   W04
 BYTE   N07  Fs3
 BYTE   W04
 BYTE   N03  Fs4
 BYTE   W04
// 051   ----------------------------------------
 BYTE   N11  An2
 BYTE   N11  Cs3
 BYTE   N03  Gn4
 BYTE   W04
 BYTE   Gn3
 BYTE   W04
 BYTE   Gn4
 BYTE   W04
 BYTE   N11  Fs2
 BYTE   N11  An2
 BYTE   N03  An4
 BYTE   W04
 BYTE   An3
 BYTE   W04
 BYTE   An4
 BYTE   W04
 BYTE   N07  En0  v116
 BYTE   N07  En1
 BYTE   N05  Cs4
 BYTE   N05  Fs4
 BYTE   W01
 BYTE   N04  Cs5
 BYTE   W02
 BYTE   W01
 BYTE   W01
 BYTE   W01
 BYTE   N05  Dn4  v096
 BYTE   W06
 BYTE   N11  Bn1
 BYTE   N11  Gn2
 BYTE   N05  En4
 BYTE   W06
 BYTE   Fs4
 BYTE   W06
 BYTE   N11  Dn2
 BYTE   N11  Bn2
 BYTE   N03  Fs4  v116
 BYTE   N03  Bn4
 BYTE   W03
 BYTE   W01
 BYTE   W01
 BYTE   W01
 BYTE   N05  En4  v096
 BYTE   W06
 BYTE   N07  Gn2  v116
 BYTE   N07  Dn3
 BYTE   N03  Fs4
 BYTE   W03
 BYTE   W01
 BYTE   W01
 BYTE   W01
 BYTE   N05  Bn3  v096
 BYTE   W06
 BYTE   N11  Dn2
 BYTE   N11  Bn2
 BYTE   N05  Cs4
 BYTE   W06
 BYTE   Dn4
 BYTE   W06
 BYTE   N11  Bn1
 BYTE   N11  Gn2
 BYTE   N05  Fs4
 BYTE   W06
 BYTE   Bn3
 BYTE   W06
// 052   ----------------------------------------
 BYTE   N07  Fs0  v116
 BYTE   N07  Fs1
 BYTE   N05  Fs4  v096
 BYTE   W03
 BYTE   W01
 BYTE   W01
 BYTE   W01
 BYTE   En4
 BYTE   W06
 BYTE   N11  Cs2
 BYTE   N11  An2
 BYTE   N02  Dn5  v116
 BYTE   W03
 BYTE   W01
 BYTE   Dn4
 BYTE   W01
 BYTE   W02
 BYTE   W01
 BYTE   Dn5
 BYTE   W01
 BYTE   W02
 BYTE   W01
 BYTE   N11  En2  v096
 BYTE   N11  Cs3
 BYTE   N02  Cs5  v116
 BYTE   W01
 BYTE   W02
 BYTE   W01
 BYTE   Cs4
 BYTE   W01
 BYTE   W02
 BYTE   W01
 BYTE   Cs5
 BYTE   W01
 BYTE   W02
 BYTE   W01
 BYTE   N11  An2  v096
 BYTE   N11  En3
 BYTE   N02  En5  v116
 BYTE   W01
 BYTE   W02
 BYTE   W01
 BYTE   En4
 BYTE   W01
 BYTE   W02
 BYTE   W01
 BYTE   En5
 BYTE   W01
 BYTE   W02
 BYTE   W01
 BYTE   N11  En2  v096
 BYTE   N11  Cs3
 BYTE   N02  Dn5  v116
 BYTE   W01
 BYTE   W02
 BYTE   W01
 BYTE   Dn4
 BYTE   W01
 BYTE   W02
 BYTE   W01
 BYTE   Dn5
 BYTE   W01
 BYTE   W02
 BYTE   W01
 BYTE   N11  Cs2  v096
 BYTE   N11  An2
 BYTE   N02  Cs5  v116
 BYTE   W01
 BYTE   W02
 BYTE   W01
 BYTE   Cs4
 BYTE   W01
 BYTE   W02
 BYTE   W01
 BYTE   Cs5
 BYTE   W01
 BYTE   W02
 BYTE   W01
 BYTE   N07  Gn0
 BYTE   N07  Gn1
 BYTE   N03  Cs5
 BYTE   W01
 BYTE   W02
 BYTE   W01
 BYTE   W01
 BYTE   W01
 BYTE   N05  Dn4  v096
 BYTE   W06
 BYTE   N11  Dn2
 BYTE   N11  Gn2
 BYTE   N05  Fs4
 BYTE   W06
 BYTE   Dn4
 BYTE   W06
// 053   ----------------------------------------
 BYTE   N11  Fs2
 BYTE   N11  Bn2
 BYTE   N03  Bn4  v116
 BYTE   W03
 BYTE   W01
 BYTE   W01
 BYTE   W01
 BYTE   N05  Dn4  v096
 BYTE   W06
 BYTE   N11  Bn2
 BYTE   N11  Dn3
 BYTE   N05  An4
 BYTE   W06
 BYTE   Dn4
 BYTE   W06
 BYTE   N11  Fs2
 BYTE   N11  Bn2
 BYTE   N05  Cs5
 BYTE   W06
 BYTE   Dn4
 BYTE   W06
 BYTE   N11  Dn2
 BYTE   N11  Fs2
 BYTE   N05  Dn5
 BYTE   W06
 BYTE   Dn4
 BYTE   W06
 BYTE   N07  Gn0  v116
 BYTE   N07  Gn1
 BYTE   N05  En5  v096
 BYTE   W03
 BYTE   W01
 BYTE   W01
 BYTE   W01
 BYTE   An4
 BYTE   W06
 BYTE   N11  Dn2
 BYTE   N11  Gn2
 BYTE   N05  Bn4
 BYTE   W06
 BYTE   Cs5
 BYTE   W06
 BYTE   N11  Fs2
 BYTE   N11  Bn2
 BYTE   N05  Dn5
 BYTE   W06
 BYTE   En5
 BYTE   W06
 BYTE   Bn2
 BYTE   N05  Dn3
 BYTE   N11  Cs5
 BYTE   W02
 BYTE   N09  En5
 BYTE   W02
 BYTE   N07  Fs5
 BYTE   W02
 BYTE   N05  Bn2
 BYTE   W06
// 054   ----------------------------------------
 BYTE   Dn3
 BYTE   W06
 BYTE   Fs3
 BYTE   W06
 BYTE   N11  Bn3
 BYTE   W12
 BYTE   TEMPO   78*FE16AFuneralofFlowersThunderMrGreen3339_tbs/2
 BYTE   N05  Bn1
 BYTE   N23  Fs4
 BYTE   W02
 BYTE   N21  Bn4
 BYTE   W02
 BYTE   N19  Dn5
 BYTE   W02
 BYTE   N05  Fs2
 BYTE   N17  Fs5
 BYTE   W06
 BYTE   N05  Bn2
 BYTE   W06
 BYTE   Cs3
 BYTE   W06
 BYTE   N11  Dn3
 BYTE   W12
 BYTE   N05  An1
 BYTE   W06
 BYTE   An2
 BYTE   W06
 BYTE   Bn2
 BYTE   N11  En4
 BYTE   N11  En5
 BYTE   W06
 BYTE   N05  Cs3
 BYTE   W06
 BYTE   N11  En3
 BYTE   N05  Dn4
 BYTE   N05  Dn5
 BYTE   W06
 BYTE   Cs4
 BYTE   N05  Cs5
 BYTE   W06
// 055   ----------------------------------------
 BYTE   Gs1
 BYTE   N11  Bn3
 BYTE   W01
 BYTE   N10  Dn4
 BYTE   W01
 BYTE   N09  Fs4
 BYTE   W02
 BYTE   N07  Bn4
 BYTE   W02
 BYTE   N05  Gs2
 BYTE   W06
 BYTE   Bn2
 BYTE   W06
 BYTE   Dn3
 BYTE   W06
 BYTE   N11  Fs3
 BYTE   W12
 BYTE   N05  Cs1
 BYTE   N05  Bn3
 BYTE   N05  Bn4
 BYTE   W06
 BYTE   Cs2
 BYTE   N05  Cs4
 BYTE   N05  Cs5
 BYTE   W06
 BYTE   Fn2
 BYTE   N05  Bn3
 BYTE   N05  Bn4
 BYTE   W06
 BYTE   Gs2
 BYTE   N05  An3
 BYTE   N05  An4
 BYTE   W06
 BYTE   Bn2
 BYTE   N05  Gs3
 BYTE   N05  Gs4
 BYTE   W06
 BYTE   Cs3
 BYTE   N05  Cs4
 BYTE   W06
 BYTE   Fs1
 BYTE   N05  Cs4
 BYTE   W06
 BYTE   Cs2
 BYTE   N05  Ds4
 BYTE   W06
 BYTE   Fs2
 BYTE   N05  Fn4
 BYTE   W06
 BYTE   An2
 BYTE   N05  Fs4
 BYTE   W06
// 056   ----------------------------------------
 BYTE   N11  Cs3
 BYTE   N05  An4
 BYTE   W06
 BYTE   Gs4
 BYTE   W06
 BYTE   En1
 BYTE   N05  Fs4
 BYTE   W06
 BYTE   Cs2
 BYTE   N05  Cs4
 BYTE   W06
 BYTE   En2
 BYTE   N05  Gs4
 BYTE   W06
 BYTE   Gs2
 BYTE   N05  An4
 BYTE   W06
 BYTE   An2
 BYTE   N05  Bn4
 BYTE   W06
 BYTE   Cs3
 BYTE   N05  Cs5
 BYTE   W06
 BYTE   Ds1
 BYTE   N05  Bn4
 BYTE   W06
 BYTE   Ds2
 BYTE   N05  An4
 BYTE   W06
 BYTE   Fs2
 BYTE   N05  Gs4
 BYTE   W06
 BYTE   An2
 BYTE   N05  An4
 BYTE   W06
 BYTE   N11  Cs3
 BYTE   N05  Gs4
 BYTE   W06
 BYTE   Fs4
 BYTE   W06
 BYTE   Ds1
 BYTE   N05  Gs4
 BYTE   W06
 BYTE   Ds2
 BYTE   N05  Dn4
 BYTE   W06
// 057   ----------------------------------------
 BYTE   Gs2
 BYTE   N05  Ds4
 BYTE   W06
 BYTE   Cn3
 BYTE   N05  En4
 BYTE   W06
 BYTE   N11  Ds3
 BYTE   N05  Fs4
 BYTE   W06
 BYTE   Gs4
 BYTE   W06
 BYTE   Cs1
 BYTE   N05  Cs2
 BYTE   N05  Cs4
 BYTE   N05  En4
 BYTE   W01
 BYTE   N04  Gs4
 BYTE   W05
 BYTE   N05  Gs0
 BYTE   N05  Gs1
 BYTE   N05  Cn4
 BYTE   W06
 BYTE   Cs1
 BYTE   N05  Cs2
 BYTE   N05  Cs4
 BYTE   W06
 BYTE   Gs1
 BYTE   N05  Ds4
 BYTE   W06
 BYTE   En2
 BYTE   N05  En4
 BYTE   W06
 BYTE   Gs1
 BYTE   N05  Fs4
 BYTE   W06
 BYTE   Bn0
 BYTE   N03  Gs4
 BYTE   W04
 BYTE   Gs3
 BYTE   W02
 BYTE   N05  Bn1
 BYTE   W02
 BYTE   N03  Gs4
 BYTE   W04
 BYTE   N05  Ds2
 BYTE   N03  An4
 BYTE   W04
 BYTE   An3
 BYTE   W02
 BYTE   N05  En2
 BYTE   W02
 BYTE   N03  An4
 BYTE   W04
 BYTE   N05  Fs2
 BYTE   N03  Bn4
 BYTE   W04
 BYTE   Bn3
 BYTE   W02
 BYTE   N05  Bn1
 BYTE   W02
 BYTE   N03  Bn4
 BYTE   W04
// 058   ----------------------------------------
 BYTE   N05  As0
 BYTE   N05  As1
 BYTE   N05  Cs5
 BYTE   W06
 BYTE   Gs1
 BYTE   N05  Cn5
 BYTE   W06
 BYTE   Cs2
 BYTE   N05  Cs5
 BYTE   W06
 BYTE   En2
 BYTE   N05  Ds5
 BYTE   W06
 BYTE   N11  Gs2
 BYTE   N05  En5
 BYTE   W06
 BYTE   Fs5
 BYTE   W06
 BYTE   Ds1
 BYTE   N05  Gn4
 BYTE   N05  Gn5
 BYTE   W06
 BYTE   Ds2
 BYTE   N05  Dn4
 BYTE   N05  Dn5
 BYTE   W06
 BYTE   Gn2
 BYTE   N05  Ds4
 BYTE   N05  Ds5
 BYTE   W06
 BYTE   Gs2
 BYTE   N05  Fn4
 BYTE   N05  Fn5
 BYTE   W06
 BYTE   N11  As2
 BYTE   N05  Fs4
 BYTE   N05  Fs5
 BYTE   W06
 BYTE   Gn4
 BYTE   N05  Gn5
 BYTE   W06
 BYTE   N48  En1  v116
 BYTE   N02  Gs5  v096
 BYTE   W03
 BYTE   Gs4
 BYTE   W01
 BYTE   W01
 BYTE   W01
 BYTE   En5
 BYTE   W03
 BYTE   En4
 BYTE   W03
 BYTE   Ds5
 BYTE   W03
 BYTE   Ds4
 BYTE   W03
 BYTE   Bn4
 BYTE   W03
 BYTE   Bn3
 BYTE   W03
// 059   ----------------------------------------
 BYTE   As4
 BYTE   W03
 BYTE   As3
 BYTE   W03
 BYTE   Gs4
 BYTE   W03
 BYTE   Gs3
 BYTE   W03
 BYTE   Bn4
 BYTE   W03
 BYTE   Bn3
 BYTE   W03
 BYTE   As4
 BYTE   W03
 BYTE   As3
 BYTE   W03
 BYTE   Gs4
 BYTE   W03
 BYTE   Gs3
 BYTE   W03
 BYTE   En4
 BYTE   W03
 BYTE   En3
 BYTE   W03
 BYTE   Ds4
 BYTE   W03
 BYTE   Ds3
 BYTE   W03
 BYTE   Cs4
 BYTE   W03
 BYTE   Cs3
 BYTE   W03
 BYTE   En4
 BYTE   W03
 BYTE   En3
 BYTE   W03
 BYTE   Ds4
 BYTE   W03
 BYTE   Ds3
 BYTE   W03
 BYTE   Bn3
 BYTE   W03
 BYTE   Bn2
 BYTE   W03
 BYTE   Gs3
 BYTE   W03
 BYTE   Gs2
 BYTE   W03
 BYTE   En3
 BYTE   W03
 BYTE   En2
 BYTE   W03
 BYTE   Ds3
 BYTE   W03
 BYTE   Ds2
 BYTE   W03
 BYTE   N11
 BYTE   W12
// 060   ----------------------------------------
 BYTE   As0
 BYTE   N11  As1
 BYTE   N11  Gs4
 BYTE   N11  Gs5
 BYTE   W12
 BYTE   As0
 BYTE   N11  As1
 BYTE   N11  As4
 BYTE   N11  As5
 BYTE   W12
 BYTE   Cs2
 BYTE   N22  Bn4
 BYTE   N22  Bn5
 BYTE   W12
 BYTE   N11  Gs2
 BYTE   W12
 BYTE   Cs3
 BYTE   N22  As4
 BYTE   N22  As5
 BYTE   W12
 BYTE   N32  En3
 BYTE   W12
 BYTE   N11  Gs4
 BYTE   N11  Gs5
 BYTE   W12
 BYTE   Fs4
 BYTE   N11  Fs5
 BYTE   W12
// 061   ----------------------------------------
 BYTE   Ds2
 BYTE   N22  Gs4
 BYTE   N22  Gs5
 BYTE   W12
 BYTE   N11  As2
 BYTE   W12
 BYTE   Ds3
 BYTE   N22  Fs4
 BYTE   N22  Fs5
 BYTE   W12
 BYTE   N32  Fs3
 BYTE   W12
 BYTE   N11  En4
 BYTE   N11  En5
 BYTE   W12
 BYTE   Ds4
 BYTE   N11  Ds5
 BYTE   W12
 BYTE   En2
 BYTE   N22  Cs4
 BYTE   N22  Cs5
 BYTE   W12
 BYTE   N11  Bn2
 BYTE   W12
// 062   ----------------------------------------
 BYTE   En3
 BYTE   N44  Ds4
 BYTE   N44  Ds5
 BYTE   W12
 BYTE   N22  Gs3
 BYTE   W24
 BYTE   N11  Bn2
 BYTE   W12
 BYTE   Fs2
 BYTE   W12
 BYTE   Cs3
 BYTE   W12
 BYTE   Fs3
 BYTE   W12
 BYTE   N32  As3
 BYTE   W12
// 063   ----------------------------------------
 BYTE   N11  Gs4
 BYTE   W12
 BYTE   As4
 BYTE   W12
 BYTE   N05  Gs0
 BYTE   N05  Bn4
 BYTE   W06
 BYTE   Ds1
 BYTE   N05  Bn3
 BYTE   W06
 BYTE   Gs1
 BYTE   N05  Ds4
 BYTE   W06
 BYTE   As1
 BYTE   N05  Bn4
 BYTE   W06
 BYTE   Bn1
 BYTE   N05  As4
 BYTE   W06
 BYTE   Ds2
 BYTE   N05  Bn3
 BYTE   W06
 BYTE   N32  Gs2
 BYTE   N05  Ds4
 BYTE   W06
 BYTE   As4
 BYTE   W06
 BYTE   Gs4
 BYTE   W06
 BYTE   Bn3
 BYTE   W06
 BYTE   Fs4
 BYTE   W06
 BYTE   Bn3
 BYTE   W06
// 064   ----------------------------------------
 BYTE   As0
 BYTE   N05  Gs4
 BYTE   W06
 BYTE   As1
 BYTE   N05  Gs3
 BYTE   W06
 BYTE   Cs2
 BYTE   N05  As3
 BYTE   W06
 BYTE   Fs2
 BYTE   N05  Ds4
 BYTE   W06
 BYTE   As2
 BYTE   N05  Fs4
 BYTE   W06
 BYTE   Fs2
 BYTE   N05  Fs3
 BYTE   W06
 BYTE   N32  Cs3
 BYTE   N05  Fs3
 BYTE   W06
 BYTE   Cs4
 BYTE   W06
 BYTE   N11  En4
 BYTE   W12
 BYTE   Ds4
 BYTE   W12
 BYTE   N05  Bn0
 BYTE   N05  Cs4
 BYTE   W06
 BYTE   Fs1
 BYTE   N05  En3
 BYTE   W06
 BYTE   Bn1
 BYTE   N05  Fs3
 BYTE   W06
 BYTE   Cs2
 BYTE   N05  Bn3
 BYTE   W06
// 065   ----------------------------------------
 BYTE   Ds2
 BYTE   N05  Ds4
 BYTE   W06
 BYTE   Fs2
 BYTE   N05  Cs3
 BYTE   W06
 BYTE   N11  Bn2
 BYTE   N05  Ds3
 BYTE   W06
 BYTE   Fs3
 BYTE   N05  Bn3
 BYTE   W06
 BYTE   N11  Fs2
 BYTE   N05  Bn3
 BYTE   N05  Ds4
 BYTE   W06
 BYTE   Ds3
 BYTE   W06
 BYTE   N11  Ds2
 BYTE   N05  Fs3
 BYTE   W06
 BYTE   Bn3
 BYTE   W06
 BYTE   Cn1
 BYTE   N05  Ds4
 BYTE   N05  Gs4
 BYTE   W01
 BYTE   N04  Ds5
 BYTE   W05
 BYTE   N05  Cn2
 BYTE   N05  Ds4
 BYTE   W06
 BYTE   Ds2
 BYTE   N05  Gs4
 BYTE   W06
 BYTE   Gs2
 BYTE   N05  Ds5
 BYTE   W06
 BYTE   As2
 BYTE   N05  Ds4
 BYTE   W06
 BYTE   Cn3
 BYTE   N05  Gs4
 BYTE   W06
 BYTE   Cn3
 BYTE   N05  En5
 BYTE   W06
 BYTE   Gs2
 BYTE   N05  En4
 BYTE   W06
// 066   ----------------------------------------
 BYTE   Fs2
 BYTE   N05  Gs4
 BYTE   W06
 BYTE   Ds2
 BYTE   N05  Fs5
 BYTE   W06
 BYTE   N11  Cn2
 BYTE   N05  Fs4
 BYTE   W06
 BYTE   An4
 BYTE   W06
 BYTE   Cs1
 BYTE   N05  Fs5
 BYTE   W06
 BYTE   Gs0
 BYTE   N05  Fs4
 BYTE   W06
 BYTE   Cs1
 BYTE   N05  Bn4
 BYTE   W06
 BYTE   Ds2
 BYTE   N05  En5
 BYTE   W06
 BYTE   N11  En2
 BYTE   N05  En4
 BYTE   W06
 BYTE   Gs4
 BYTE   W06
 BYTE   Cs1
 BYTE   N05  Gs4
 BYTE   W06
 BYTE   Gs0
 BYTE   N05  Cs4
 BYTE   W06
 BYTE   Cs1
 BYTE   N05  En4
 BYTE   W06
 BYTE   Ds2
 BYTE   N05  Gs4
 BYTE   W06
 BYTE   N11  En2
 BYTE   N05  Cs4
 BYTE   W06
 BYTE   En4
 BYTE   W06
// 067   ----------------------------------------
 BYTE   Ds1
 BYTE   N05  Ds4
 BYTE   N05  Gn4
 BYTE   W01
 BYTE   N04  As4
 BYTE   W05
 BYTE   N05  Ds2
 BYTE   N05  Gn4
 BYTE   W06
 BYTE   Fn2
 BYTE   N05  Gn4
 BYTE   W06
 BYTE   Gn2
 BYTE   N05  Cs5
 BYTE   W06
 BYTE   N11  As2
 BYTE   N05  Ds4
 BYTE   W06
 BYTE   Gn4
 BYTE   W06
 BYTE   Ds1
 BYTE   N05  Ds5
 BYTE   W06
 BYTE   Ds2
 BYTE   N05  Gn4
 BYTE   W06
 BYTE   Fn2
 BYTE   N05  As4
 BYTE   W06
 BYTE   Gn2
 BYTE   N05  En5
 BYTE   W06
 BYTE   N11  As2
 BYTE   N05  Gn4
 BYTE   W06
 BYTE   As4
 BYTE   W06
 BYTE   Bn0
 BYTE   N05  En5
 BYTE   W06
 BYTE   Bn1
 BYTE   N05  Gn4
 BYTE   W06
 BYTE   Ds2
 BYTE   N05  As4
 BYTE   W06
 BYTE   Gn2
 BYTE   N05  Ds5
 BYTE   W06
// 068   ----------------------------------------
 BYTE   N11  As2
 BYTE   N05  Ds4
 BYTE   W06
 BYTE   Gn4
 BYTE   W06
 BYTE   Bn0
 BYTE   N05  Gs4
 BYTE   W06
 BYTE   Bn1
 BYTE   N05  Bn3
 BYTE   W06
 BYTE   Ds2
 BYTE   N05  As4
 BYTE   W06
 BYTE   Gs2
 BYTE   N05  Ds4
 BYTE   W06
 BYTE   N11  Bn2
 BYTE   N05  Bn4
 BYTE   W06
 BYTE   En4
 BYTE   W06
 BYTE   En1
 BYTE   N05  En4
 BYTE   N05  Gs4
 BYTE   W01
 BYTE   N04  Ds5
 BYTE   W05
 BYTE   N05  Bn0
 BYTE   N05  En4
 BYTE   W06
 BYTE   En1
 BYTE   N05  Gs4
 BYTE   W06
 BYTE   Gs2
 BYTE   N05  Ds5
 BYTE   W06
 BYTE   N11  Bn2
 BYTE   N05  En4
 BYTE   W06
 BYTE   Gs4
 BYTE   W06
 BYTE   En1
 BYTE   N11  Cs5
 BYTE   W06
 BYTE   N05  Bn0
 BYTE   W06
// 069   ----------------------------------------
 BYTE   En1
 BYTE   N11  Bn4
 BYTE   W06
 BYTE   N05  Gs2
 BYTE   W06
 BYTE   Bn2
 BYTE   N11  As4
 BYTE   W06
 BYTE   N05  Gs2
 BYTE   W06
 BYTE   N23  Bn3
 BYTE   W02
 BYTE   N21  Dn4
 BYTE   W02
 BYTE   N19  Fs4
 BYTE   W02
 BYTE   N17  Bn4
 BYTE   W06
 BYTE   N11  Dn1
 BYTE   N11  Dn2
 BYTE   W12
 BYTE   Cs1
 BYTE   N11  Cs2
 BYTE   N11  An3
 BYTE   N11  An4
 BYTE   W12
 BYTE   Bn0
 BYTE   N11  Bn1
 BYTE   N11  Gs3
 BYTE   N11  Gs4
 BYTE   W12
 BYTE   An0
 BYTE   N11  An1
 BYTE   N11  An3
 BYTE   N11  An4
 BYTE   W12
 BYTE   Fs0
 BYTE   N11  Fs1
 BYTE   N11  Bn3
 BYTE   N11  Bn4
 BYTE   W12
// 070   ----------------------------------------
 BYTE   N32  Gs0
 BYTE   N32  Gs1
 BYTE   W12
 BYTE   N11  Cs4
 BYTE   N11  Cs5
 BYTE   W12
 BYTE   Bn3
 BYTE   N11  Bn4
 BYTE   W12
 BYTE   N32  Gn0
 BYTE   N32  Gn1
 BYTE   N11  Cs4
 BYTE   N11  Cs5
 BYTE   W12
 BYTE   Dn4
 BYTE   N11  Dn5
 BYTE   W12
 BYTE   En4
 BYTE   N11  En5
 BYTE   W12
 BYTE   N05  En1  v080
 BYTE   N05  En2
 BYTE   W06
 BYTE   Bn1
 BYTE   W06
 BYTE   En2
 BYTE   N11  Bn4
 BYTE   W02
 BYTE   N09  Dn5
 BYTE   W02
 BYTE   N07  Fs5
 BYTE   W02
 BYTE   N05  Fs2
 BYTE   W06
// 071   ----------------------------------------
 BYTE   N11  Gn2
 BYTE   N11  En5
 BYTE   W12
 BYTE   N05  En1
 BYTE   N05  En2
 BYTE   N11  Bn4
 BYTE   N11  Dn5
 BYTE   N11  An5
 BYTE   W06
 BYTE   N05  Bn1
 BYTE   W06
 BYTE   En2
 BYTE   N11  Fs5
 BYTE   W06
 BYTE   N05  Fs2
 BYTE   W06
 BYTE   N11  Gn2
 BYTE   N11  Dn5
 BYTE   W12
 BYTE   N05  En1
 BYTE   N05  En2
 BYTE   N11  En4
 BYTE   W02
 BYTE   N09  An4
 BYTE   W02
 BYTE   N07  Cs5
 BYTE   W02
 BYTE   N05  Bn1
 BYTE   W06
 BYTE   En2
 BYTE   N11  Bn4
 BYTE   W06
 BYTE   N05  Fs2
 BYTE   W06
 BYTE   N11  Gn2
 BYTE   N11  En5
 BYTE   W12
 BYTE   N05  En1
 BYTE   N05  En2
 BYTE   N11  En4
 BYTE   N11  Cs5
 BYTE   W06
 BYTE   N05  Bn1
 BYTE   W06
// 072   ----------------------------------------
 BYTE   En2
 BYTE   N11  Cs4
 BYTE   N11  An4
 BYTE   W06
 BYTE   N05  Fs2
 BYTE   W06
 BYTE   En1
 BYTE   N05  En2
 BYTE   W06
 BYTE   Bn1
 BYTE   W06
 BYTE   En2
 BYTE   N11  Bn3
 BYTE   W02
 BYTE   N09  En4
 BYTE   W02
 BYTE   N07  Fs4
 BYTE   W02
 BYTE   N05  Fs2
 BYTE   W06
 BYTE   N11  Gn2
 BYTE   N11  En4
 BYTE   W12
 BYTE   N05  En1
 BYTE   N05  En2
 BYTE   N11  Dn4
 BYTE   N11  Fs4
 BYTE   N11  An4
 BYTE   W06
 BYTE   N05  Bn1
 BYTE   W06
 BYTE   En2
 BYTE   N11  Fs4
 BYTE   W06
 BYTE   N05  Fs2
 BYTE   W06
 BYTE   N11  Gn2
 BYTE   N11  Dn4
 BYTE   W12
 BYTE   N05  En1
 BYTE   N05  En2
 BYTE   N11  Fs3
 BYTE   W02
 BYTE   N09  An3
 BYTE   W02
 BYTE   N07  Cs4
 BYTE   W02
 BYTE   N05  Bn1
 BYTE   W06
// 073   ----------------------------------------
 BYTE   En2
 BYTE   N11  Bn3
 BYTE   W06
 BYTE   N05  Fs2
 BYTE   W06
 BYTE   N11  Gn2
 BYTE   N11  En4
 BYTE   W12
 BYTE   N05  En1
 BYTE   N05  En2
 BYTE   N11  En3
 BYTE   N11  An3
 BYTE   N11  Cs4
 BYTE   W06
 BYTE   N05  Bn1
 BYTE   W06
 BYTE   N05
 BYTE   W06
 BYTE   Fs2
 BYTE   W06
 BYTE   Bn2
 BYTE   N11  Bn4
 BYTE   W02
 BYTE   N09  Dn5
 BYTE   W02
 BYTE   N07  Fs5
 BYTE   W02
 BYTE   N05  Cs3
 BYTE   W06
 BYTE   N11  Dn3
 BYTE   N11  En5
 BYTE   W12
 BYTE   N05  Bn1
 BYTE   N11  Bn4
 BYTE   N11  Dn5
 BYTE   N11  An5
 BYTE   W06
 BYTE   N05  Fs2
 BYTE   W06
 BYTE   Bn2
 BYTE   N11  Fs5
 BYTE   W06
 BYTE   N05  Cs3
 BYTE   W06
// 074   ----------------------------------------
 BYTE   N11  Dn3
 BYTE   N11  Dn5
 BYTE   W12
 BYTE   N05  Bn1
 BYTE   N11  En4
 BYTE   W02
 BYTE   N09  An4
 BYTE   W02
 BYTE   N07  Cs5
 BYTE   W02
 BYTE   N05  Fs2
 BYTE   W06
 BYTE   Bn2
 BYTE   N11  Bn4
 BYTE   W06
 BYTE   N05  Cs3
 BYTE   W06
 BYTE   N11  Dn3
 BYTE   N11  En5
 BYTE   W12
 BYTE   N05  Bn1
 BYTE   N11  En4
 BYTE   N11  Cs5
 BYTE   W06
 BYTE   N05  Fs2
 BYTE   W06
 BYTE   Bn1
 BYTE   W06
 BYTE   Fs2
 BYTE   W06
 BYTE   Bn2
 BYTE   N11  Bn3
 BYTE   W02
 BYTE   N09  En4
 BYTE   W02
 BYTE   N07  Fs4
 BYTE   W02
 BYTE   N05  Dn3
 BYTE   W06
 BYTE   N11  En3
 BYTE   N11  En4
 BYTE   W12
// 075   ----------------------------------------
 BYTE   N05  Bn1
 BYTE   N11  Dn4
 BYTE   N11  Fs4
 BYTE   N11  An4
 BYTE   W06
 BYTE   N05  Fs2
 BYTE   W06
 BYTE   Bn2
 BYTE   N11  Fs4
 BYTE   W06
 BYTE   N05  Dn3
 BYTE   W06
 BYTE   N11  En3
 BYTE   N11  Dn4
 BYTE   W12
 BYTE   N05  Bn1
 BYTE   N11  Fs3
 BYTE   W02
 BYTE   N09  An3
 BYTE   W02
 BYTE   N07  Cs4
 BYTE   W02
 BYTE   N05  Fs2
 BYTE   W06
 BYTE   Bn2
 BYTE   N11  Bn3
 BYTE   W06
 BYTE   N05  Dn3
 BYTE   W06
 BYTE   N11  En3
 BYTE   N11  En4
 BYTE   W12
 BYTE   N05  Bn1
 BYTE   N11  Cs4
 BYTE   W06
 BYTE   N05  Fs2
 BYTE   W06
 BYTE   Bn2
 BYTE   N11  An3
 BYTE   W06
 BYTE   N05  Dn3
 BYTE   W06
// 076   ----------------------------------------
 BYTE   N03  Bn0  v096
 BYTE   N03  Bn1
 BYTE   W03
 BYTE   W01
 BYTE   W01
 BYTE   W01
 BYTE   N05  Fs1  v080
 BYTE   W06
 BYTE   N44  Bn1
 BYTE   N02  Cs3
 BYTE   W03
 BYTE   Dn3
 BYTE   W03
 BYTE   En3
 BYTE   W03
 BYTE   Fs3
 BYTE   W03
 BYTE   Gn3
 BYTE   W03
 BYTE   An3
 BYTE   W03
 BYTE   Bn3
 BYTE   W03
 BYTE   Cs4
 BYTE   W03
 BYTE   Dn4
 BYTE   W03
 BYTE   En4
 BYTE   W03
 BYTE   Fs4
 BYTE   W03
 BYTE   Gn4
 BYTE   W03
 BYTE   An4
 BYTE   W03
 BYTE   Bn4
 BYTE   W03
 BYTE   Cs5
 BYTE   W03
 BYTE   N01  Dn5
 BYTE   W01
 BYTE   N02  Cs5
 BYTE   W03
 BYTE   N01  Dn5
 BYTE   W02
 BYTE   Cs5
 BYTE   W01
 BYTE   Dn5
 BYTE   W02
 BYTE   Cs5
 BYTE   W01
 BYTE   Dn5
 BYTE   W02
 BYTE   Cs5
 BYTE   W01
 BYTE   Dn5
 BYTE   W02
 BYTE   N05  Bn0
 BYTE   N02  Cs5
 BYTE   W03
 BYTE   Dn5
 BYTE   W03
 BYTE   N05  Gn1
 BYTE   N02  Cs5
 BYTE   W03
 BYTE   Dn5
 BYTE   W03
 BYTE   N44  Bn1
 BYTE   N02  Cs5
 BYTE   W03
 BYTE   Dn5
 BYTE   W03
 BYTE   Cs5
 BYTE   W03
 BYTE   Dn5
 BYTE   W03
// 077   ----------------------------------------
 BYTE   Cs5
 BYTE   W03
 BYTE   Dn5
 BYTE   W03
 BYTE   N04  Cs5
 BYTE   W04
 BYTE   Bn4
 BYTE   W05
 BYTE   Fs4
 BYTE   W05
 BYTE   Bn4
 BYTE   W04
 BYTE   Cs5
 BYTE   W05
 BYTE   Dn5
 BYTE   W05
 BYTE   En5
 BYTE   W04
 BYTE   Fs5
 BYTE   W05
 BYTE   Gn5
 BYTE   W05
 BYTE   N05  Bn0
 BYTE   N02  Bn5
 BYTE   W03
 BYTE   Gn5
 BYTE   W03
 BYTE   N05  Fs1
 BYTE   N02  Fs5
 BYTE   W03
 BYTE   En5
 BYTE   W03
 BYTE   N44  Bn1
 BYTE   N02  Dn5
 BYTE   W03
 BYTE   Cs5
 BYTE   W03
 BYTE   Bn4
 BYTE   W03
 BYTE   An4
 BYTE   W03
 BYTE   Gn4
 BYTE   W03
 BYTE   Fs4
 BYTE   W03
 BYTE   En4
 BYTE   W03
 BYTE   Dn4
 BYTE   W03
 BYTE   Cs4
 BYTE   W03
 BYTE   Bn3
 BYTE   W03
 BYTE   An3
 BYTE   W03
 BYTE   Gn3
 BYTE   W03
// 078   ----------------------------------------
 BYTE   Fs3
 BYTE   W03
 BYTE   Gn3
 BYTE   W03
 BYTE   An3
 BYTE   W03
 BYTE   Gn3
 BYTE   W03
 BYTE   Fs3
 BYTE   W03
 BYTE   En3
 BYTE   W03
 BYTE   Dn3
 BYTE   W03
 BYTE   Cs3
 BYTE   W03
 BYTE   N05  Cn1
 BYTE   N05  Cn3
 BYTE   W06
 BYTE   Bn1
 BYTE   N02  En3
 BYTE   W03
 BYTE   Fs3
 BYTE   W03
 BYTE   N44  En2
 BYTE   N02  Gn3
 BYTE   W03
 BYTE   An3
 BYTE   W03
 BYTE   Bn3
 BYTE   W03
 BYTE   Cn4
 BYTE   W03
 BYTE   Dn4
 BYTE   W03
 BYTE   En4
 BYTE   W03
 BYTE   Fs4
 BYTE   W03
 BYTE   Gn4
 BYTE   W03
 BYTE   An4
 BYTE   W03
 BYTE   Bn4
 BYTE   W03
 BYTE   Cs5
 BYTE   W03
 BYTE   Dn5
 BYTE   W03
 BYTE   En5
 BYTE   W03
 BYTE   Fs5
 BYTE   W03
 BYTE   N05  Gn5
 BYTE   W24
// 079   ----------------------------------------
 BYTE   N02  Bn0
 BYTE   W03
 BYTE   N02
 BYTE   W02
 BYTE   GoTo
  POIN2 Label_0_01262EF2
 BYTE   FINE

//******************************************************//
	ALIGN 4

FE16AFuneralofFlowersThunderMrGreen3339:
	BYTE	1	// NumTrks
	BYTE	0	// NumBlks
	BYTE	FE16AFuneralofFlowersThunderMrGreen3339_pri	// Priority
	BYTE	FE16AFuneralofFlowersThunderMrGreen3339_rev	// Reverb.
    
	POIN2	FE16AFuneralofFlowersThunderMrGreen3339_grp
    
	POIN2	FE16AFuneralofFlowersThunderMrGreen3339_001

	
