//Event file generated from Sappy .s format.
	#include "MPlayDef.event"

	#define	FE16TheNightoftheBallMysteriousDancer_grp  voicegroup000
	#define	FE16TheNightoftheBallMysteriousDancer_pri  0
	#define	FE16TheNightoftheBallMysteriousDancer_rev  0
	#define	FE16TheNightoftheBallMysteriousDancer_mvl  127
	#define	FE16TheNightoftheBallMysteriousDancer_key  0
	#define	FE16TheNightoftheBallMysteriousDancer_tbs  1
	#define	FE16TheNightoftheBallMysteriousDancer_exg  0
	#define	FE16TheNightoftheBallMysteriousDancer_cmp  1

	// .rodata
	//	FE16TheNightoftheBallMysteriousDancer
	ALIGN 4

//**************** Track 1 (Midi-Chn.1) ****************//

FE16TheNightoftheBallMysteriousDancer_1:
	BYTE	KEYSH   FE16TheNightoftheBallMysteriousDancer_key+0
FE16TheNightoftheBallMysteriousDancer_1_B1:
// 000   ----------------------------------------
	BYTE	TEMPO   60*FE16TheNightoftheBallMysteriousDancer_tbs/2
	BYTE		VOICE   40
	BYTE		VOL     63*FE16TheNightoftheBallMysteriousDancer_mvl/mxv
	BYTE	W60
	BYTE		N12     Bn3   v127
	BYTE	W12
// 001   ----------------------------------------
	BYTE		N24     Cs4 
	BYTE	W12
	BYTE		        Fs4 
	BYTE	W12
	BYTE		N12     En4 
	BYTE	W12
	BYTE		N24     Cs4 
	BYTE	W24
	BYTE		N12     Ds4 
	BYTE	W12
// 002   ----------------------------------------
FE16TheNightoftheBallMysteriousDancer_1_002:
	BYTE		N48     Bn3   v127
	BYTE	W60
	BYTE		N12   
	BYTE	W12
	BYTE	PEND
// 003   ----------------------------------------
	BYTE		N24     Cs4 
	BYTE	W12
	BYTE		        An4 
	BYTE	W12
	BYTE		N12     Gs4 
	BYTE	W12
	BYTE		N24     Fs4 
	BYTE	W12
	BYTE		        Ds4 
	BYTE	W12
	BYTE		N12     Cs4 
	BYTE	W12
// 004   ----------------------------------------
	BYTE	PATT
	 POIN2	FE16TheNightoftheBallMysteriousDancer_1_002
// 005   ----------------------------------------
	BYTE		N24     An3   v127
	BYTE	W12
	BYTE		        Bn3 
	BYTE	W12
	BYTE		N12     Cs4 
	BYTE	W12
	BYTE		N24     En4 
	BYTE	W24
	BYTE		N12   
	BYTE	W12
// 006   ----------------------------------------
	BYTE		N24     Ds4 
	BYTE	W24
	BYTE		N12     Cs4 
	BYTE	W12
	BYTE		N24     Gs3 
	BYTE	W24
	BYTE		N12     Fs3 
	BYTE	W12
// 007   ----------------------------------------
	BYTE		N24     Gs3 
	BYTE	W12
	BYTE		        Cs4 
	BYTE	W12
	BYTE		N12     Gs3 
	BYTE	W12
	BYTE		N24     Gn3 
	BYTE	W12
	BYTE		        Cs4 
	BYTE	W12
	BYTE		N12     Gn3 
	BYTE	W12
// 008   ----------------------------------------
	BYTE		N48     Fs3 
	BYTE	W72
// 009   ----------------------------------------
	BYTE	W72
// 010   ----------------------------------------
	BYTE	W72
// 011   ----------------------------------------
	BYTE	W72
// 012   ----------------------------------------
	BYTE	W72
// 013   ----------------------------------------
	BYTE	W72
// 014   ----------------------------------------
	BYTE	W72
// 015   ----------------------------------------
	BYTE	W72
// 016   ----------------------------------------
	BYTE	W60
	BYTE		N12     Cs4 
	BYTE	W06
	BYTE		N06     Ds4 
	BYTE	W06
// 017   ----------------------------------------
	BYTE		N18     En4 
	BYTE	W18
	BYTE		N12     Ds4 
	BYTE	W06
	BYTE		        Cs4 
	BYTE	W06
	BYTE		N06     Bn3 
	BYTE	W06
	BYTE		N18     Cs4 
	BYTE	W18
	BYTE		N12     Bn3 
	BYTE	W06
	BYTE		        An3 
	BYTE	W06
	BYTE		N06     Gs3 
	BYTE	W06
// 018   ----------------------------------------
	BYTE		N12     Fs3 
	BYTE	W12
	BYTE		N36     Gs3 
	BYTE	W48
	BYTE		N12     Bn3 
	BYTE	W06
	BYTE		N06     Cs4 
	BYTE	W06
// 019   ----------------------------------------
	BYTE		N18     Dn4 
	BYTE	W18
	BYTE		N12     Cs4 
	BYTE	W06
	BYTE		        Bn3 
	BYTE	W06
	BYTE		N06     An3 
	BYTE	W06
	BYTE		N18     Bn3 
	BYTE	W18
	BYTE		N12     An3 
	BYTE	W06
	BYTE		        Gn3 
	BYTE	W06
	BYTE		N06     Fs3 
	BYTE	W06
// 020   ----------------------------------------
	BYTE		N12     En3 
	BYTE	W12
	BYTE		N36     Fs3 
	BYTE	W60
// 021   ----------------------------------------
	BYTE	W72
// 022   ----------------------------------------
	BYTE	W72
// 023   ----------------------------------------
	BYTE	W72
// 024   ----------------------------------------
	BYTE	W72
// 025   ----------------------------------------
	BYTE	W72
	BYTE	GoTo
	 POIN2	FE16TheNightoftheBallMysteriousDancer_1_B1
FE16TheNightoftheBallMysteriousDancer_1_B2:
// 026   ----------------------------------------
	BYTE	FINE

//**************** Track 2 (Midi-Chn.2) ****************//

FE16TheNightoftheBallMysteriousDancer_2:
	BYTE	KEYSH   FE16TheNightoftheBallMysteriousDancer_key+0
FE16TheNightoftheBallMysteriousDancer_2_B1:
// 000   ----------------------------------------
	BYTE		VOICE   1
	BYTE		VOL     64*FE16TheNightoftheBallMysteriousDancer_mvl/mxv
	BYTE	W72
// 001   ----------------------------------------
	BYTE		N36     En2   v127
	BYTE	W36
	BYTE		        Gn2 
	BYTE	W36
// 002   ----------------------------------------
FE16TheNightoftheBallMysteriousDancer_2_002:
	BYTE		N36     Fs2   v127
	BYTE	W36
	BYTE		        Bn1 
	BYTE	W36
	BYTE	PEND
// 003   ----------------------------------------
	BYTE	PATT
	 POIN2	FE16TheNightoftheBallMysteriousDancer_2_002
// 004   ----------------------------------------
	BYTE		N36     En2   v127
	BYTE	W36
	BYTE		        Bn1 
	BYTE	W36
// 005   ----------------------------------------
FE16TheNightoftheBallMysteriousDancer_2_005:
	BYTE		N36     Cs2   v127
	BYTE	W36
	BYTE		        Cn2 
	BYTE	W36
	BYTE	PEND
// 006   ----------------------------------------
FE16TheNightoftheBallMysteriousDancer_2_006:
	BYTE		N36     Bn1   v127
	BYTE	W36
	BYTE		        As1 
	BYTE	W36
	BYTE	PEND
// 007   ----------------------------------------
FE16TheNightoftheBallMysteriousDancer_2_007:
	BYTE		N36     Fs1   v127
	BYTE	W36
	BYTE		        Bn1 
	BYTE	W36
	BYTE	PEND
// 008   ----------------------------------------
	BYTE		        En2 
	BYTE	W72
// 009   ----------------------------------------
	BYTE		        Bn1 
	BYTE	W36
	BYTE		        Cs2 
	BYTE	W36
// 010   ----------------------------------------
	BYTE	PATT
	 POIN2	FE16TheNightoftheBallMysteriousDancer_2_007
// 011   ----------------------------------------
	BYTE	PATT
	 POIN2	FE16TheNightoftheBallMysteriousDancer_2_007
// 012   ----------------------------------------
	BYTE		N36     Ds2   v127
	BYTE	W36
	BYTE		        Bn1 
	BYTE	W36
// 013   ----------------------------------------
	BYTE	PATT
	 POIN2	FE16TheNightoftheBallMysteriousDancer_2_005
// 014   ----------------------------------------
	BYTE	PATT
	 POIN2	FE16TheNightoftheBallMysteriousDancer_2_006
// 015   ----------------------------------------
	BYTE	PATT
	 POIN2	FE16TheNightoftheBallMysteriousDancer_2_007
// 016   ----------------------------------------
	BYTE		N36     En1   v127
	BYTE	W72
// 017   ----------------------------------------
	BYTE		        En2 
	BYTE	W36
	BYTE		        Cs2 
	BYTE	W36
// 018   ----------------------------------------
	BYTE		        En2 
	BYTE	W72
// 019   ----------------------------------------
	BYTE		        Dn2 
	BYTE	W36
	BYTE		        Bn1 
	BYTE	W36
// 020   ----------------------------------------
	BYTE		        En2 
	BYTE	W72
// 021   ----------------------------------------
	BYTE		        Cn2 
	BYTE	W36
	BYTE		        An1 
	BYTE	W36
// 022   ----------------------------------------
	BYTE		        Bn1 
	BYTE	W72
// 023   ----------------------------------------
	BYTE		        En2 
	BYTE	W36
	BYTE		        An1 
	BYTE	W36
// 024   ----------------------------------------
	BYTE	W72
// 025   ----------------------------------------
	BYTE	W72
	BYTE	GoTo
	 POIN2	FE16TheNightoftheBallMysteriousDancer_2_B1
FE16TheNightoftheBallMysteriousDancer_2_B2:
// 026   ----------------------------------------
	BYTE	FINE

//**************** Track 3 (Midi-Chn.3) ****************//

FE16TheNightoftheBallMysteriousDancer_3:
	BYTE	KEYSH   FE16TheNightoftheBallMysteriousDancer_key+0
FE16TheNightoftheBallMysteriousDancer_3_B1:
// 000   ----------------------------------------
	BYTE		VOICE   73
	BYTE		VOL     64*FE16TheNightoftheBallMysteriousDancer_mvl/mxv
	BYTE	W72
// 001   ----------------------------------------
	BYTE	W72
// 002   ----------------------------------------
	BYTE	W72
// 003   ----------------------------------------
	BYTE	W72
// 004   ----------------------------------------
	BYTE	W72
// 005   ----------------------------------------
	BYTE	W72
// 006   ----------------------------------------
	BYTE	W72
// 007   ----------------------------------------
	BYTE	W72
// 008   ----------------------------------------
	BYTE	W60
	BYTE		N12     Bn3   v127
	BYTE	W12
// 009   ----------------------------------------
	BYTE		N24     Cs4 
	BYTE	W12
	BYTE		        Fs4 
	BYTE	W12
	BYTE		N12     En4 
	BYTE	W12
	BYTE		N24     Cs4 
	BYTE	W24
	BYTE		N12     Ds4 
	BYTE	W12
// 010   ----------------------------------------
FE16TheNightoftheBallMysteriousDancer_3_010:
	BYTE		N48     Bn3   v127
	BYTE	W60
	BYTE		N12   
	BYTE	W12
	BYTE	PEND
// 011   ----------------------------------------
	BYTE		N24     Cs4 
	BYTE	W12
	BYTE		        An4 
	BYTE	W12
	BYTE		N12     Gs4 
	BYTE	W12
	BYTE		N24     Fs4 
	BYTE	W12
	BYTE		        Ds4 
	BYTE	W12
	BYTE		N12     Cs4 
	BYTE	W12
// 012   ----------------------------------------
	BYTE	PATT
	 POIN2	FE16TheNightoftheBallMysteriousDancer_3_010
// 013   ----------------------------------------
	BYTE		N24     An3   v127
	BYTE	W12
	BYTE		        Bn3 
	BYTE	W12
	BYTE		N12     Cs4 
	BYTE	W12
	BYTE		N24     En4 
	BYTE	W24
	BYTE		N12   
	BYTE	W12
// 014   ----------------------------------------
	BYTE		N24     Ds4 
	BYTE	W24
	BYTE		N12     Cs4 
	BYTE	W12
	BYTE		N24     Gs3 
	BYTE	W24
	BYTE		N12     Fs3 
	BYTE	W12
// 015   ----------------------------------------
	BYTE		N24     Gs3 
	BYTE	W12
	BYTE		        Cs4 
	BYTE	W12
	BYTE		N12     Gs3 
	BYTE	W12
	BYTE		N24     Gn3 
	BYTE	W12
	BYTE		        Cs4 
	BYTE	W12
	BYTE		N12     Gn3 
	BYTE	W12
// 016   ----------------------------------------
	BYTE		N48     Fs3 
	BYTE	W72
// 017   ----------------------------------------
	BYTE	W72
// 018   ----------------------------------------
	BYTE	W72
// 019   ----------------------------------------
	BYTE	W72
// 020   ----------------------------------------
	BYTE	W60
	BYTE		N12     An3 
	BYTE	W06
	BYTE		N06     Bn3 
	BYTE	W06
// 021   ----------------------------------------
	BYTE		N18     Cn4 
	BYTE	W18
	BYTE		N12     Bn3 
	BYTE	W06
	BYTE		        An3 
	BYTE	W06
	BYTE		N06     Gn3 
	BYTE	W06
	BYTE		N18     An3 
	BYTE	W18
	BYTE		N12     Gn3 
	BYTE	W06
	BYTE		        Fn3 
	BYTE	W06
	BYTE		N06     En3 
	BYTE	W06
// 022   ----------------------------------------
	BYTE		N12     Ds3 
	BYTE	W06
	BYTE		N06     En3 
	BYTE	W06
	BYTE		N48     Bn3 
	BYTE	W48
	BYTE		N12     An3 
	BYTE	W06
	BYTE		N06     Ds4 
	BYTE	W06
// 023   ----------------------------------------
	BYTE		N18     En4 
	BYTE	W18
	BYTE		N12     Ds4 
	BYTE	W06
	BYTE		        Cs4 
	BYTE	W06
	BYTE		N06     Bn3 
	BYTE	W06
	BYTE		N36     An3 
	BYTE	W36
// 024   ----------------------------------------
	BYTE	W72
// 025   ----------------------------------------
	BYTE	W72
	BYTE	GoTo
	 POIN2	FE16TheNightoftheBallMysteriousDancer_3_B1
FE16TheNightoftheBallMysteriousDancer_3_B2:
// 026   ----------------------------------------
	BYTE	FINE

//**************** Track 4 (Midi-Chn.4) ****************//

FE16TheNightoftheBallMysteriousDancer_4:
	BYTE	KEYSH   FE16TheNightoftheBallMysteriousDancer_key+0
FE16TheNightoftheBallMysteriousDancer_4_B1:
// 000   ----------------------------------------
	BYTE		VOICE   0
	BYTE		VOL     64*FE16TheNightoftheBallMysteriousDancer_mvl/mxv
	BYTE	W60
	BYTE		N12     Bn3   v127
	BYTE	W12
// 001   ----------------------------------------
	BYTE		        En1 
	BYTE		N12     Gs3 
	BYTE		N12     Cs4 
	BYTE	W12
	BYTE		        En2 
	BYTE		N12     Gs2 
	BYTE		N12     Cs3 
	BYTE		N12     Cs4 
	BYTE		N12     Fs4 
	BYTE	W12
	BYTE		        En2 
	BYTE		N12     Gs2 
	BYTE		N12     Cs3 
	BYTE		N12     Cs4 
	BYTE		N12     En4 
	BYTE	W12
	BYTE		        Gn1 
	BYTE		N24     Gn3 
	BYTE		N24     As3 
	BYTE		N24     Cs4 
	BYTE	W12
	BYTE		        Gn2 
	BYTE		N24     As2 
	BYTE		N24     Cs3 
	BYTE		N24     En3 
	BYTE	W12
	BYTE		N12     Ds4 
	BYTE	W12
// 002   ----------------------------------------
	BYTE		        Fs1 
	BYTE		N48     Fs3 
	BYTE		N48     Bn3 
	BYTE	W12
	BYTE		N12     Fs2 
	BYTE		N12     An2 
	BYTE		N12     Ds3 
	BYTE	W12
	BYTE		        Fs2 
	BYTE		N12     An2 
	BYTE		N12     En3 
	BYTE	W12
	BYTE		        Bn1 
	BYTE	W12
	BYTE		N24     An2 
	BYTE		N24     Bn2 
	BYTE		N24     Dn3 
	BYTE	W12
	BYTE		N12     Bn3 
	BYTE	W12
// 003   ----------------------------------------
	BYTE		        Fs1 
	BYTE		N12     An3 
	BYTE		N12     Cs4 
	BYTE	W12
	BYTE		        Fs2 
	BYTE		N12     An2 
	BYTE		N12     En3 
	BYTE		N12     An4 
	BYTE	W12
	BYTE		        Fs2 
	BYTE		N12     An2 
	BYTE		N12     En3 
	BYTE		N12     Gs4 
	BYTE	W12
	BYTE		        Bn1 
	BYTE		N12     An3 
	BYTE		N12     Fs4 
	BYTE	W12
	BYTE		        An2 
	BYTE		N12     Bn2 
	BYTE		N12     Fs3 
	BYTE		N12     Ds4 
	BYTE	W12
	BYTE		        An2 
	BYTE		N12     Bn2 
	BYTE		N12     Ds3 
	BYTE		N12     Fs3 
	BYTE		N12     Cs4 
	BYTE	W12
// 004   ----------------------------------------
	BYTE		        En1 
	BYTE		N48     Bn3 
	BYTE	W12
	BYTE		N12     En2 
	BYTE		N12     Gs2 
	BYTE		N12     Ds3 
	BYTE	W12
	BYTE		        En2 
	BYTE		N12     Gs2 
	BYTE		N12     Cs3 
	BYTE	W12
	BYTE		        Bn1 
	BYTE	W12
	BYTE		N24     Fs2 
	BYTE		N24     An2 
	BYTE		N24     Bn2 
	BYTE	W12
	BYTE		N12     Bn3 
	BYTE	W12
// 005   ----------------------------------------
	BYTE		        Cs2 
	BYTE		N12     Cs3 
	BYTE		N12     An3 
	BYTE	W12
	BYTE		        An2 
	BYTE		N12     Cs3 
	BYTE		N12     Ds3 
	BYTE		N12     Bn3 
	BYTE	W12
	BYTE		        An2 
	BYTE		N12     Cs3 
	BYTE		N12     En3 
	BYTE		N12     Cs4 
	BYTE	W12
	BYTE		        Cn2 
	BYTE		N24     En3 
	BYTE		N24     An3 
	BYTE		N24     Cn4 
	BYTE		N24     En4 
	BYTE	W12
	BYTE		N12     An2 
	BYTE		N12     Cn3 
	BYTE		N12     Fs3 
	BYTE	W12
	BYTE		        An2 
	BYTE		N12     Cn3 
	BYTE		N12     En3 
	BYTE		N12     En4 
	BYTE	W12
// 006   ----------------------------------------
	BYTE		        Bn1 
	BYTE		N24     Fs3 
	BYTE		N24     An3 
	BYTE		N24     Ds4 
	BYTE	W12
	BYTE		N12     Gs2 
	BYTE		N12     Bn2 
	BYTE		N12     Ds3 
	BYTE	W12
	BYTE		        Gs2 
	BYTE		N12     Bn2 
	BYTE		N12     En3 
	BYTE		N12     Cs4 
	BYTE	W12
	BYTE		        As1 
	BYTE		N24     Ds3 
	BYTE		N24     Fs3 
	BYTE		N24     Gs3 
	BYTE	W12
	BYTE		        Fs2 
	BYTE		N24     As2 
	BYTE		N24     Cs3 
	BYTE	W12
	BYTE		N12     Fs3 
	BYTE	W12
// 007   ----------------------------------------
	BYTE		        Fs1 
	BYTE		N12     En3 
	BYTE		N12     Gs3 
	BYTE	W12
	BYTE		        Fs2 
	BYTE		N12     An2 
	BYTE		N12     Cn3 
	BYTE		N12     Cs4 
	BYTE	W12
	BYTE		        Fs2 
	BYTE		N12     An2 
	BYTE		N12     Cs3 
	BYTE		N12     Gs3 
	BYTE	W12
	BYTE		        Bn1 
	BYTE		N12     En3 
	BYTE		N12     Gn3 
	BYTE	W12
	BYTE		        An2 
	BYTE		N12     Bn2 
	BYTE		N12     Ds3 
	BYTE		N12     Cs4 
	BYTE	W12
	BYTE		        An2 
	BYTE		N12     Bn2 
	BYTE		N12     Cs3 
	BYTE		N12     Gn3 
	BYTE	W12
// 008   ----------------------------------------
	BYTE		        En1 
	BYTE		N24     Ds3 
	BYTE		N24     Fs3 
	BYTE	W12
	BYTE		N12     En2 
	BYTE		N12     Gs2 
	BYTE		N12     Bn2 
	BYTE	W12
	BYTE		        En2 
	BYTE		N12     Gs2 
	BYTE		N12     Bn2 
	BYTE		N12     Cs3 
	BYTE		N02     Cs4 
	BYTE	W02
	BYTE		        Ds4 
	BYTE	W02
	BYTE		        En4 
	BYTE	W02
	BYTE		        Fs4 
	BYTE	W02
	BYTE		        Gs4 
	BYTE	W02
	BYTE		        An4 
	BYTE	W02
	BYTE		N12     Bn1 
	BYTE		N24     Cs4 
	BYTE		N24     En4 
	BYTE		N24     Bn4 
	BYTE	W12
	BYTE		        Gn2 
	BYTE		N24     Bn2 
	BYTE		N24     Ds3 
	BYTE	W12
	BYTE		N12     Bn3 
	BYTE	W12
// 009   ----------------------------------------
	BYTE		        En1 
	BYTE		N12     Gs3 
	BYTE		N12     Bn3 
	BYTE		N12     Cs4 
	BYTE	W12
	BYTE		        En2 
	BYTE		N12     Gs2 
	BYTE		N12     Cs3 
	BYTE		N06     Cs4 
	BYTE		N06     Fs4 
	BYTE	W06
	BYTE		        Fs3 
	BYTE		N06     Gs3 
	BYTE	W06
	BYTE		N12     En2 
	BYTE		N12     Gs2 
	BYTE		N12     Cs3 
	BYTE		N12     Cs4 
	BYTE		N12     En4 
	BYTE	W12
	BYTE		        Gn1 
	BYTE		N12     Gn3 
	BYTE		N12     As3 
	BYTE		N12     Cs4 
	BYTE	W12
	BYTE		N06     Gn2 
	BYTE		N06     As2 
	BYTE		N06     Cs3 
	BYTE		N06     En3 
	BYTE		N06     Gn3 
	BYTE		N06     As3 
	BYTE	W06
	BYTE		        Gn2 
	BYTE		N06     As2 
	BYTE		N06     Cs3 
	BYTE		N06     En3 
	BYTE		N06     Gn3 
	BYTE		N06     As3 
	BYTE	W06
	BYTE		N12     Gn2 
	BYTE		N12     As2 
	BYTE		N12     Cs3 
	BYTE		N12     En3 
	BYTE		N12     Ds4 
	BYTE	W12
// 010   ----------------------------------------
	BYTE		        Fs1 
	BYTE		N03     Ds3 
	BYTE	W03
	BYTE		N03   
	BYTE	W03
	BYTE		        En3 
	BYTE	W03
	BYTE		        Gs3 
	BYTE	W03
	BYTE		N12     Fs2 
	BYTE		N12     An2 
	BYTE		N12     Ds3 
	BYTE		N03     Bn3 
	BYTE	W03
	BYTE		N03   
	BYTE	W03
	BYTE		        Ds4 
	BYTE	W03
	BYTE		        An4 
	BYTE	W03
	BYTE		N12     Fs2 
	BYTE		N12     An2 
	BYTE		N12     En3 
	BYTE		N03     An4 
	BYTE	W03
	BYTE		N42     Bn3 
	BYTE		N42     Fs4 
	BYTE		N42     Bn4 
	BYTE	W09
	BYTE		N12     Bn1 
	BYTE	W12
	BYTE		        An2 
	BYTE		N12     Bn2 
	BYTE		N12     Dn3 
	BYTE	W12
	BYTE		        An2 
	BYTE		N12     Bn2 
	BYTE		N12     Ds3 
	BYTE	W12
// 011   ----------------------------------------
	BYTE		        Fs1 
	BYTE		N12     Fs3 
	BYTE		N12     An3 
	BYTE		N12     Cs4 
	BYTE	W12
	BYTE		        Fs2 
	BYTE		N12     An2 
	BYTE		N12     En3 
	BYTE		N06     Fs4 
	BYTE		N06     An4 
	BYTE	W06
	BYTE		        An3 
	BYTE		N06     Bn3 
	BYTE	W06
	BYTE		N12     Fs2 
	BYTE		N12     An2 
	BYTE		N12     En3 
	BYTE		N12     En4 
	BYTE		N12     Gs4 
	BYTE	W12
	BYTE		        Bn1 
	BYTE		N06     An3 
	BYTE		N06     Fs4 
	BYTE	W06
	BYTE		        Gs3 
	BYTE		N06     En4 
	BYTE	W06
	BYTE		N12     An2 
	BYTE		N12     Bn2 
	BYTE		N12     Dn3 
	BYTE		N06     Fs3 
	BYTE		N06     Ds4 
	BYTE	W06
	BYTE		        Fn3 
	BYTE		N06     Dn4 
	BYTE	W06
	BYTE		N12     An2 
	BYTE		N12     Bn2 
	BYTE		N06     Ds3 
	BYTE		N06     En3 
	BYTE		N06     Cs4 
	BYTE	W06
	BYTE		        Ds3 
	BYTE		N06     Cn4 
	BYTE	W06
// 012   ----------------------------------------
	BYTE		N12     En1 
	BYTE		N12     Ds3 
	BYTE		N48     Gs3 
	BYTE		N48     Bn3 
	BYTE	W12
	BYTE		N12     En2 
	BYTE		N12     Gs2 
	BYTE		N12     Ds3 
	BYTE	W12
	BYTE		        En2 
	BYTE		N12     Gs2 
	BYTE		N12     Cs3 
	BYTE	W12
	BYTE		        Bn1 
	BYTE	W12
	BYTE		        Gs2 
	BYTE		N12     Bn2 
	BYTE		N12     Cn3 
	BYTE	W12
	BYTE		        Gs2 
	BYTE		N12     Bn2 
	BYTE		N12     Cs3 
	BYTE		N12     Bn3 
	BYTE		N12     Cs4 
	BYTE		N12     En4 
	BYTE		N12     Bn4 
	BYTE	W12
// 013   ----------------------------------------
	BYTE		        Cs2 
	BYTE		N06     An3 
	BYTE		N06     Cs4 
	BYTE		N06     An4 
	BYTE	W06
	BYTE		        En4 
	BYTE	W06
	BYTE		N12     An2 
	BYTE		N12     Cs3 
	BYTE		N12     Ds3 
	BYTE		N06     Bn3 
	BYTE		N06     Ds4 
	BYTE		N06     Bn4 
	BYTE	W06
	BYTE		        Fs4 
	BYTE	W06
	BYTE		N12     An2 
	BYTE		N12     Cs3 
	BYTE		N12     En3 
	BYTE		N06     Cs4 
	BYTE		N06     En4 
	BYTE		N06     Cs5 
	BYTE	W06
	BYTE		        An4 
	BYTE	W06
	BYTE		        Cn2 
	BYTE		N24     En4 
	BYTE		N24     An4 
	BYTE		N24     Cn5 
	BYTE		N24     En5 
	BYTE	W06
	BYTE		N06     En2 
	BYTE	W06
	BYTE		        Fs2 
	BYTE		N06     An2 
	BYTE	W06
	BYTE		N06   
	BYTE		N06     Cn3 
	BYTE	W06
	BYTE		N12   
	BYTE		N12     En3 
	BYTE		N12     En4 
	BYTE		N12     En5 
	BYTE	W12
// 014   ----------------------------------------
	BYTE		        Bn1 
	BYTE		N24     Ds4 
	BYTE		N24     An4 
	BYTE		N24     Ds5 
	BYTE	W12
	BYTE		N12     Gs2 
	BYTE		N12     Bn2 
	BYTE		N12     Ds3 
	BYTE	W12
	BYTE		        Gs2 
	BYTE		N12     Bn2 
	BYTE		N12     En3 
	BYTE		N12     Cs4 
	BYTE		N12     Cs5 
	BYTE	W12
	BYTE		        As1 
	BYTE		N24     Gs3 
	BYTE		N24     Ds4 
	BYTE		N24     Fs4 
	BYTE		N24     Gs4 
	BYTE	W12
	BYTE		N06     Fs2 
	BYTE		N06     As2 
	BYTE		N06     Ds3 
	BYTE	W06
	BYTE		        Fs2 
	BYTE		N06     As2 
	BYTE		N06     Ds3 
	BYTE	W06
	BYTE		N12     Fs2 
	BYTE		N12     As2 
	BYTE		N12     Cs3 
	BYTE		N12     Fs3 
	BYTE		N12     Fs4 
	BYTE	W12
// 015   ----------------------------------------
	BYTE		        Fs1 
	BYTE		N06     Gs3 
	BYTE		N06     Gs4 
	BYTE	W06
	BYTE		        En4 
	BYTE	W06
	BYTE		N12     Fs2 
	BYTE		N12     An2 
	BYTE		N12     Cn3 
	BYTE		N12     Cs4 
	BYTE		N12     Cs5 
	BYTE	W12
	BYTE		        Fs2 
	BYTE		N12     An2 
	BYTE		N12     Cs3 
	BYTE		N12     Gs4 
	BYTE	W12
	BYTE		        Bn1 
	BYTE		N06     Gn3 
	BYTE		N06     Gn4 
	BYTE	W06
	BYTE		        En4 
	BYTE	W06
	BYTE		N12     An2 
	BYTE		N12     Bn2 
	BYTE		N12     Ds3 
	BYTE		N12     Cs4 
	BYTE		N12     Cs5 
	BYTE	W12
	BYTE		        An2 
	BYTE		N12     Bn2 
	BYTE		N12     Cs3 
	BYTE		N12     Gn4 
	BYTE	W12
// 016   ----------------------------------------
	BYTE		        En1 
	BYTE		N12     En2 
	BYTE		N36     Gs3 
	BYTE		N48     Bn3 
	BYTE		N48     Fs4 
	BYTE	W12
	BYTE		N12     Gs2 
	BYTE		N12     Bn2 
	BYTE	W12
	BYTE		N12   
	BYTE		N12     En3 
	BYTE	W12
	BYTE		N24   
	BYTE		N12     Gs3 
	BYTE	W24
	BYTE		N06     An3 
	BYTE		N06     Cs4 
	BYTE	W06
	BYTE		        Bn3 
	BYTE		N06     Ds4 
	BYTE	W06
// 017   ----------------------------------------
	BYTE		        An1 
	BYTE		N18     An3 
	BYTE		N18     Bn3 
	BYTE		N18     En4 
	BYTE	W06
	BYTE		N06     En2 
	BYTE	W06
	BYTE		        An2 
	BYTE	W06
	BYTE		        En2 
	BYTE		N06     Ds4 
	BYTE	W06
	BYTE		        An2 
	BYTE		N06     Bn2 
	BYTE		N06     Cs4 
	BYTE	W06
	BYTE		        En2 
	BYTE		N06     Bn3 
	BYTE	W06
	BYTE		N24     An2 
	BYTE		N24     Cs3 
	BYTE		N18     Gs3 
	BYTE		N18     Cs4 
	BYTE	W18
	BYTE		N06     Bn3 
	BYTE	W06
	BYTE		        An3 
	BYTE	W06
	BYTE		        Gs3 
	BYTE	W06
// 018   ----------------------------------------
	BYTE		        En1 
	BYTE		N12     Ds3 
	BYTE		N12     Fs3 
	BYTE	W06
	BYTE		N06     Bn1 
	BYTE	W06
	BYTE		        En2 
	BYTE		N12     En3 
	BYTE		N12     Gs3 
	BYTE	W06
	BYTE		N06     Bn1 
	BYTE	W06
	BYTE		        En2 
	BYTE		N06     Fs2 
	BYTE		N03     En3 
	BYTE		N03     Gs3 
	BYTE	W03
	BYTE		        Bn2 
	BYTE	W03
	BYTE		N06     Bn1 
	BYTE		N03     En3 
	BYTE	W03
	BYTE		N03   
	BYTE	W03
	BYTE		N24     En2 
	BYTE		N24     Gs2 
	BYTE		N03     Gs3 
	BYTE		N03     Bn3 
	BYTE	W03
	BYTE		        En4 
	BYTE	W03
	BYTE		N03   
	BYTE	W03
	BYTE		        Gs4 
	BYTE		N03     Bn4 
	BYTE	W03
	BYTE		N06     En5 
	BYTE	W12
	BYTE		        Bn3 
	BYTE	W06
	BYTE		        Cs4 
	BYTE	W06
// 019   ----------------------------------------
	BYTE		        Gn1 
	BYTE		N18     Gn3 
	BYTE		N18     An3 
	BYTE		N18     Dn4 
	BYTE	W06
	BYTE		N06     Dn2 
	BYTE	W06
	BYTE		        Gn2 
	BYTE	W06
	BYTE		        Dn2 
	BYTE		N06     Cs4 
	BYTE	W06
	BYTE		        Gn2 
	BYTE		N06     An2 
	BYTE		N06     Bn3 
	BYTE	W06
	BYTE		        Dn2 
	BYTE		N06     An3 
	BYTE	W06
	BYTE		N24     Gn2 
	BYTE		N24     Bn2 
	BYTE		N18     Fs3 
	BYTE		N18     Bn3 
	BYTE	W18
	BYTE		N06     An3 
	BYTE	W06
	BYTE		        Gn3 
	BYTE	W06
	BYTE		        Fs3 
	BYTE	W06
// 020   ----------------------------------------
	BYTE		        Dn1 
	BYTE		N12     Cs3 
	BYTE		N12     En3 
	BYTE	W06
	BYTE		N06     An1 
	BYTE	W06
	BYTE		        Dn2 
	BYTE		N12     Dn3 
	BYTE		N12     Fs3 
	BYTE	W06
	BYTE		N06     An1 
	BYTE	W06
	BYTE		        Dn2 
	BYTE		N06     En2 
	BYTE		N03     Dn3 
	BYTE		N03     Fs3 
	BYTE	W03
	BYTE		        An2 
	BYTE	W03
	BYTE		N06     An1 
	BYTE		N03     Dn3 
	BYTE	W03
	BYTE		N03   
	BYTE	W03
	BYTE		N24     Dn2 
	BYTE		N24     Fs2 
	BYTE		N03     Fs3 
	BYTE		N03     An3 
	BYTE	W03
	BYTE		        Dn4 
	BYTE	W03
	BYTE		N03   
	BYTE	W03
	BYTE		        Fs4 
	BYTE		N03     An4 
	BYTE	W03
	BYTE		N06     Dn5 
	BYTE	W12
	BYTE		        Cn4 
	BYTE		N06     An4 
	BYTE	W06
	BYTE		        Dn4 
	BYTE		N06     Bn4 
	BYTE	W06
// 021   ----------------------------------------
	BYTE		N12     Fn1 
	BYTE		N06     Cn4 
	BYTE		N06     Fn4 
	BYTE		N06     Gn4 
	BYTE		N06     Cn5 
	BYTE	W06
	BYTE		        Fn4 
	BYTE	W06
	BYTE		N12     Cn2 
	BYTE		N12     Fn2 
	BYTE		N12     An2 
	BYTE		N06     En4 
	BYTE	W06
	BYTE		        Dn4 
	BYTE	W06
	BYTE		N12     An2 
	BYTE		N12     Cn3 
	BYTE		N12     Fn3 
	BYTE		N06     Cn4 
	BYTE	W06
	BYTE		        Bn3 
	BYTE	W06
	BYTE		        An3 
	BYTE		N06     Fn4 
	BYTE		N06     An4 
	BYTE	W06
	BYTE		        Gn3 
	BYTE		N06     Bn3 
	BYTE	W06
	BYTE		        Fn3 
	BYTE		N06     Cn4 
	BYTE	W06
	BYTE		        En3 
	BYTE		N06     Dn4 
	BYTE		N06     Gn4 
	BYTE	W06
	BYTE		        Dn3 
	BYTE		N06     En4 
	BYTE		N06     Gn4 
	BYTE	W06
	BYTE		        Cn3 
	BYTE		N06     En4 
	BYTE	W06
// 022   ----------------------------------------
	BYTE		        Bn1 
	BYTE		N06     Ds4 
	BYTE	W06
	BYTE		        Fs2 
	BYTE		N06     En4 
	BYTE	W06
	BYTE		        Bn2 
	BYTE		N24     Bn4 
	BYTE	W06
	BYTE		N06     Fs2 
	BYTE	W06
	BYTE		        Bn2 
	BYTE		N06     Cs3 
	BYTE	W06
	BYTE		        Fs2 
	BYTE	W06
	BYTE		        Ds3 
	BYTE		N03     Bn3 
	BYTE	W03
	BYTE		        Cs4 
	BYTE	W03
	BYTE		N06     Fs3 
	BYTE		N03     Ds4 
	BYTE	W03
	BYTE		        En4 
	BYTE	W03
	BYTE		N06     Fs3 
	BYTE		N03     Fs4 
	BYTE	W03
	BYTE		        Gs4 
	BYTE	W03
	BYTE		N06     Bn2 
	BYTE		N03     An4 
	BYTE	W03
	BYTE		        Bn4 
	BYTE	W03
	BYTE		N06     Bn2 
	BYTE		N06     En4 
	BYTE		N06     Cs5 
	BYTE	W06
	BYTE		        Fs2 
	BYTE		N06     Fs4 
	BYTE		N06     Ds5 
	BYTE	W06
// 023   ----------------------------------------
	BYTE		N12     An1 
	BYTE		N06     En4 
	BYTE		N06     An4 
	BYTE		N06     Bn4 
	BYTE		N06     En5 
	BYTE	W06
	BYTE		        An4 
	BYTE	W06
	BYTE		N12     Cs2 
	BYTE		N12     En2 
	BYTE		N12     An2 
	BYTE		N06     Gs4 
	BYTE	W06
	BYTE		        Fs4 
	BYTE		N06     Ds5 
	BYTE	W06
	BYTE		N12     En2 
	BYTE		N12     An2 
	BYTE		N12     Cs3 
	BYTE		N06     En4 
	BYTE		N06     Cs5 
	BYTE	W06
	BYTE		        Ds4 
	BYTE		N06     Bn4 
	BYTE	W06
	BYTE		        An2 
	BYTE		N06     Cs3 
	BYTE		N06     En3 
	BYTE		N06     An4 
	BYTE		N06     Cs5 
	BYTE	W06
	BYTE		        Bn2 
	BYTE		N06     Ds4 
	BYTE	W06
	BYTE		        An2 
	BYTE		N06     En4 
	BYTE	W06
	BYTE		        Gs2 
	BYTE		N06     Ds4 
	BYTE		N06     Bn4 
	BYTE	W06
	BYTE		        Fs2 
	BYTE		N06     Cs4 
	BYTE		N06     An4 
	BYTE	W06
	BYTE		        En2 
	BYTE		N06     Bn3 
	BYTE		N06     Gs4 
	BYTE	W06
// 024   ----------------------------------------
	BYTE		        Bn1 
	BYTE		N36     Fs3 
	BYTE		N36     Bn3 
	BYTE		N36     Fs4 
	BYTE	W06
	BYTE		N06     Fs2 
	BYTE	W06
	BYTE		N24     Ds3 
	BYTE	W24
	BYTE		N06     Cs2 
	BYTE		N36     En3 
	BYTE		N36     Gs3 
	BYTE		N36     En4 
	BYTE	W06
	BYTE		N06     Fs2 
	BYTE	W06
	BYTE		N24     Cs3 
	BYTE	W24
// 025   ----------------------------------------
	BYTE		N06     Bn1 
	BYTE		N36     Ds3 
	BYTE		N36     Fs3 
	BYTE		N36     An3 
	BYTE		N36     Ds4 
	BYTE	W06
	BYTE		N06     Fs2 
	BYTE	W06
	BYTE		N12     Bn2 
	BYTE	W12
	BYTE		N48   
	BYTE	W12
	BYTE		N36     Bn3 
	BYTE		N36     Bn4 
	BYTE	W36
	BYTE	GoTo
	 POIN2	FE16TheNightoftheBallMysteriousDancer_4_B1
FE16TheNightoftheBallMysteriousDancer_4_B2:
// 026   ----------------------------------------
	BYTE	FINE

//******************************************************//
	ALIGN 4

FE16TheNightoftheBallMysteriousDancer:
	BYTE	4	// NumTrks
	BYTE	0	// NumBlks
	BYTE	FE16TheNightoftheBallMysteriousDancer_pri	// Priority
	BYTE	FE16TheNightoftheBallMysteriousDancer_rev	// Reverb.

	POIN2	FE16TheNightoftheBallMysteriousDancer_grp

	POIN2	FE16TheNightoftheBallMysteriousDancer_1
	POIN2	FE16TheNightoftheBallMysteriousDancer_2
	POIN2	FE16TheNightoftheBallMysteriousDancer_3
	POIN2	FE16TheNightoftheBallMysteriousDancer_4

	
