//Event file generated from Sappy .s format.
	#include "MPlayDef.event"

	#define	FE16IndomitableWillAzula_grp  voicegroup000
	#define	FE16IndomitableWillAzula_pri  0
	#define	FE16IndomitableWillAzula_rev  0
	#define	FE16IndomitableWillAzula_mvl  127
	#define	FE16IndomitableWillAzula_key  0
	#define	FE16IndomitableWillAzula_tbs  1
	#define	FE16IndomitableWillAzula_exg  0
	#define	FE16IndomitableWillAzula_cmp  1

	// .rodata
	//	FE16IndomitableWillAzula
	ALIGN 4


//**************** Track 1 (Midi-Chn.0) ****************//

FE16IndomitableWillAzula_001:
//  #01 //000   ----------------------------------------
 BYTE   KEYSH   FE16IndomitableWillAzula_key+0
Label_01944666:
 BYTE   TEMPO   222*FE16IndomitableWillAzula_tbs/2
 BYTE   VOICE   48
 BYTE   MODT 0
 BYTE   LFOS 44
 BYTE   VOL   42*FE16IndomitableWillAzula_mvl/mxv
 BYTE   TIE  Fn3  v068
 BYTE   TIE  Cs4
 BYTE   W96
//  #01 //001   ----------------------------------------
 BYTE   W92
 BYTE   W03
 BYTE   EOT
 BYTE   Fn3  v073
 BYTE   W01
//  #01 //002   ----------------------------------------
Label_0194467C:
 BYTE   TIE  Ds3  v068
 BYTE   TIE  Cn4
 BYTE   W96
 BYTE   PEND 
//  #01 //003   ----------------------------------------
 BYTE   W92
 BYTE   W03
 BYTE   EOT
 BYTE   Ds3  v072
 BYTE   W01
//  #01 //004   ----------------------------------------
Label_01944689:
 BYTE   TIE  Cs3  v068
 BYTE   TIE  As3
 BYTE   W96
 BYTE   PEND 
//  #01 //005   ----------------------------------------
 BYTE   W68
 BYTE   W03
 BYTE   EOT
 BYTE   Cs3  v070
 BYTE   W01
 BYTE   N23  Gs3
 BYTE   W24
//  #01 //006   ----------------------------------------
 BYTE   PAN   c_v+0
 BYTE   W24
 BYTE   N23  Fs3
 BYTE   W72
//  #01 //007   ----------------------------------------
Label_0194469F:
 BYTE   N23  An3  v068
 BYTE   W48
 BYTE   Cn4
 BYTE   W48
 BYTE   PEND 
//  #01 //008   ----------------------------------------
 BYTE   TIE  Fn3
 BYTE   TIE  Cs4
 BYTE   W96
//  #01 //009   ----------------------------------------
 BYTE   W92
 BYTE   W03
 BYTE   EOT
 BYTE   Fn3  v073
 BYTE   W01
//  #01 //010   ----------------------------------------
 BYTE   PATT
  POIN2 Label_0194467C
//  #01 //011   ----------------------------------------
 BYTE   W92
 BYTE   W03
 BYTE   EOT
 BYTE   Ds3  v072
 BYTE   W01
//  #01 //012   ----------------------------------------
 BYTE   PATT
  POIN2 Label_01944689
//  #01 //013   ----------------------------------------
 BYTE   W68
 BYTE   W03
 BYTE   EOT
 BYTE   Cs3  v070
 BYTE   W01
 BYTE   N23  Gs3  v068
 BYTE   W24
//  #01 //014   ----------------------------------------
 BYTE   W24
 BYTE   Fs3
 BYTE   W72
//  #01 //015   ----------------------------------------
 BYTE   PATT
  POIN2 Label_0194469F
//  #01 //016   ----------------------------------------
 BYTE   W96
//  #01 //017   ----------------------------------------
 BYTE   W96
//  #01 //018   ----------------------------------------
 BYTE   W96
//  #01 //019   ----------------------------------------
 BYTE   W96
//  #01 //020   ----------------------------------------
Label_019446D7:
 BYTE   W48
 BYTE   N11  Fn3  v044
 BYTE   W24
 BYTE   N11
 BYTE   W24
 BYTE   PEND 
//  #01 //021   ----------------------------------------
Label_019446DF:
 BYTE   N11  Fn3  v044
 BYTE   W24
 BYTE   N11
 BYTE   W24
 BYTE   N11
 BYTE   W24
 BYTE   Ds3
 BYTE   W24
 BYTE   PEND 
//  #01 //022   ----------------------------------------
Label_019446EA:
 BYTE   N11  Ds3  v044
 BYTE   W24
 BYTE   N11
 BYTE   W24
 BYTE   N11
 BYTE   W24
 BYTE   N11
 BYTE   W24
 BYTE   PEND 
//  #01 //023   ----------------------------------------
 BYTE   PATT
  POIN2 Label_019446EA
//  #01 //024   ----------------------------------------
 BYTE   W48
 BYTE   N11  Ds3  v044
 BYTE   W24
 BYTE   N11
 BYTE   W24
//  #01 //025   ----------------------------------------
 BYTE   PATT
  POIN2 Label_019446EA
//  #01 //026   ----------------------------------------
 BYTE   PATT
  POIN2 Label_019446EA
//  #01 //027   ----------------------------------------
Label_0194470B:
 BYTE   N11  Fn3  v044
 BYTE   W24
 BYTE   N11
 BYTE   W24
 BYTE   N11
 BYTE   W24
 BYTE   N11
 BYTE   W24
 BYTE   PEND 
//  #01 //028   ----------------------------------------
 BYTE   W48
 BYTE   Gs3
 BYTE   W24
 BYTE   N11
 BYTE   W24
//  #01 //029   ----------------------------------------
 BYTE   N11
 BYTE   W24
 BYTE   N11
 BYTE   W24
 BYTE   N11
 BYTE   W24
 BYTE   Fs3
 BYTE   W24
//  #01 //030   ----------------------------------------
Label_01944723:
 BYTE   N11  Fs3  v044
 BYTE   W24
 BYTE   N11
 BYTE   W24
 BYTE   N11
 BYTE   W24
 BYTE   N11
 BYTE   W24
 BYTE   PEND 
//  #01 //031   ----------------------------------------
 BYTE   PATT
  POIN2 Label_01944723
//  #01 //032   ----------------------------------------
 BYTE   W96
//  #01 //033   ----------------------------------------
 BYTE   W96
//  #01 //034   ----------------------------------------
 BYTE   W96
//  #01 //035   ----------------------------------------
 BYTE   W96
//  #01 //036   ----------------------------------------
 BYTE   PATT
  POIN2 Label_019446D7
//  #01 //037   ----------------------------------------
 BYTE   PATT
  POIN2 Label_019446DF
//  #01 //038   ----------------------------------------
 BYTE   PATT
  POIN2 Label_019446EA
//  #01 //039   ----------------------------------------
 BYTE   PATT
  POIN2 Label_019446EA
//  #01 //040   ----------------------------------------
 BYTE   W48
 BYTE   TIE  Ds3  v044
 BYTE   W48
//  #01 //041   ----------------------------------------
 BYTE   W92
 BYTE   W03
 BYTE   EOT
 BYTE   W01
//  #01 //042   ----------------------------------------
 BYTE   PATT
  POIN2 Label_019446EA
//  #01 //043   ----------------------------------------
 BYTE   PATT
  POIN2 Label_0194470B
//  #01 //044   ----------------------------------------
 BYTE   N92  Cs3  v044
 BYTE   W96
//  #01 //045   ----------------------------------------
 BYTE   Fn3
 BYTE   W96
//  #01 //046   ----------------------------------------
 BYTE   Ds3
 BYTE   W96
//  #01 //047   ----------------------------------------
 BYTE   Cs4
 BYTE   W96
//  #01 //048   ----------------------------------------
 BYTE   N23  Cn4
 BYTE   W24
 BYTE   TIE  As3
 BYTE   W72
//  #01 //049   ----------------------------------------
 BYTE   W96
//  #01 //050   ----------------------------------------
 BYTE   W96
//  #01 //051   ----------------------------------------
 BYTE   W92
 BYTE   W03
 BYTE   EOT
 BYTE   W01
//  #01 //052   ----------------------------------------
 BYTE   W96
//  #01 //053   ----------------------------------------
 BYTE   W96
//  #01 //054   ----------------------------------------
 BYTE   W96
//  #01 //055   ----------------------------------------
 BYTE   W96
//  #01 //056   ----------------------------------------
 BYTE   W96
//  #01 //057   ----------------------------------------
 BYTE   W96
//  #01 //058   ----------------------------------------
 BYTE   W96
//  #01 //059   ----------------------------------------
 BYTE   W48
 BYTE   N44  Cs3  v080
 BYTE   W48
//  #01 //060   ----------------------------------------
 BYTE   N68  Gs3
 BYTE   W72
 BYTE   N23  Fs3
 BYTE   W24
//  #01 //061   ----------------------------------------
 BYTE   N68  Fn3
 BYTE   W72
 BYTE   N23  Fs3
 BYTE   W24
//  #01 //062   ----------------------------------------
 BYTE   Fn3
 BYTE   W24
 BYTE   N44  Ds3
 BYTE   W48
 BYTE   N23  Fn3
 BYTE   W24
//  #01 //063   ----------------------------------------
 BYTE   Fs3
 BYTE   W24
 BYTE   Fn3
 BYTE   W24
 BYTE   Ds3
 BYTE   W24
 BYTE   Cs3
 BYTE   W24
//  #01 //064   ----------------------------------------
 BYTE   Ds3
 BYTE   W24
 BYTE   TIE  Fn3
 BYTE   W72
//  #01 //065   ----------------------------------------
 BYTE   W44
 BYTE   W03
 BYTE   EOT
 BYTE   W01
 BYTE   N44  Cn3
 BYTE   W48
//  #01 //066   ----------------------------------------
 BYTE   N23
 BYTE   W24
 BYTE   TIE  Cs3
 BYTE   W72
//  #01 //067   ----------------------------------------
 BYTE   W44
 BYTE   W03
 BYTE   EOT
 BYTE   W01
 BYTE   N23  Ds3
 BYTE   W24
 BYTE   Fn3
 BYTE   W24
//  #01 //068   ----------------------------------------
 BYTE   TIE  Fs3
 BYTE   W96
//  #01 //069   ----------------------------------------
 BYTE   W23
 BYTE   EOT
 BYTE   W01
 BYTE   N23  Fn3
 BYTE   W24
 BYTE   Ds3
 BYTE   W24
 BYTE   Cs3
 BYTE   W24
//  #01 //070   ----------------------------------------
 BYTE   TIE  Ds3
 BYTE   W96
//  #01 //071   ----------------------------------------
 BYTE   W23
 BYTE   EOT
 BYTE   W01
 BYTE   N23  Fn3
 BYTE   W24
 BYTE   Fs3
 BYTE   W24
 BYTE   Gs3
 BYTE   W24
//  #01 //072   ----------------------------------------
 BYTE   N92  Fn3
 BYTE   W96
//  #01 //073   ----------------------------------------
 BYTE   Ds3
 BYTE   W96
//  #01 //074   ----------------------------------------
 BYTE   Cn3
 BYTE   W96
//  #01 //075   ----------------------------------------
Label_019447D7:
 BYTE   N23  Cn3  v080
 BYTE   W24
 BYTE   Cs3
 BYTE   W24
 BYTE   Fn3
 BYTE   W24
 BYTE   Gs3
 BYTE   W24
 BYTE   PEND 
//  #01 //076   ----------------------------------------
Label_019447E2:
 BYTE   N68  Cn4  v080
 BYTE   W72
 BYTE   N23  Cs4
 BYTE   W24
 BYTE   PEND 
//  #01 //077   ----------------------------------------
 BYTE   TIE  As3
 BYTE   W96
//  #01 //078   ----------------------------------------
 BYTE   W44
 BYTE   W03
 BYTE   EOT
 BYTE   W01
 BYTE   N23  Fn3
 BYTE   W24
 BYTE   Fn4
 BYTE   W24
//  #01 //079   ----------------------------------------
Label_019447F6:
 BYTE   N11  Ds4  v080
 BYTE   W12
 BYTE   Cs4
 BYTE   W12
 BYTE   N44  Cn4
 BYTE   W48
 BYTE   N23  Gs3
 BYTE   W24
 BYTE   PEND 
//  #01 //080   ----------------------------------------
 BYTE   N32  Cn4
 BYTE   W36
 BYTE   Cs4
 BYTE   W36
 BYTE   TIE  As3
 BYTE   W24
//  #01 //081   ----------------------------------------
 BYTE   W96
//  #01 //082   ----------------------------------------
 BYTE   W92
 BYTE   W03
 BYTE   EOT
 BYTE   W01
//  #01 //083   ----------------------------------------
 BYTE   PATT
  POIN2 Label_019447D7
//  #01 //084   ----------------------------------------
 BYTE   PATT
  POIN2 Label_019447E2
//  #01 //085   ----------------------------------------
 BYTE   TIE  As3  v080
 BYTE   W96
//  #01 //086   ----------------------------------------
 BYTE   W44
 BYTE   W03
 BYTE   EOT
 BYTE   W01
 BYTE   N23  Fn3
 BYTE   W24
 BYTE   Fn4
 BYTE   W24
//  #01 //087   ----------------------------------------
 BYTE   PATT
  POIN2 Label_019447F6
//  #01 //088   ----------------------------------------
 BYTE   N32  Cn4  v080
 BYTE   W36
 BYTE   Cs4
 BYTE   W36
 BYTE   TIE  Gs4
 BYTE   W24
//  #01 //089   ----------------------------------------
 BYTE   W96
//  #01 //090   ----------------------------------------
 BYTE   W92
 BYTE   W03
 BYTE   EOT
 BYTE   W01
//  #01 //091   ----------------------------------------
 BYTE   N92  Gs3
 BYTE   W96
//  #01 //092   ----------------------------------------
 BYTE   GoTo
  POIN2 Label_01944666
//  #01 //093   ----------------------------------------
 BYTE   PAN   c_v+0
 BYTE   FINE

//**************** Track 2 (Midi-Chn.1) ****************//

FE16IndomitableWillAzula_002:
//  #02 //000   ----------------------------------------
 BYTE   KEYSH   FE16IndomitableWillAzula_key+0
Label_0193359E:
 BYTE   VOICE   61
 BYTE   MODT 0
 BYTE   LFOS 44
 BYTE   VOL   53*FE16IndomitableWillAzula_mvl/mxv
 BYTE   PAN   c_v+0
 BYTE   N23  Fn3  v080
 BYTE   N23  As3
 BYTE   W96
//  #02 //001   ----------------------------------------
Label_019335AE:
 BYTE   W72
 BYTE   N23  Fn3  v080
 BYTE   N23  As3
 BYTE   W24
 BYTE   PEND 
//  #02 //002   ----------------------------------------
Label_019335B6:
 BYTE   W24
 BYTE   N23  Ds3  v080
 BYTE   N23  As3
 BYTE   W72
 BYTE   PEND 
//  #02 //003   ----------------------------------------
Label_019335BE:
 BYTE   W72
 BYTE   N23  Ds3  v080
 BYTE   N23  As3
 BYTE   W24
 BYTE   PEND 
//  #02 //004   ----------------------------------------
 BYTE   Fn3
 BYTE   W96
//  #02 //005   ----------------------------------------
Label_019335C8:
 BYTE   W72
 BYTE   N23  Cs3  v080
 BYTE   N23  Gs3
 BYTE   W24
 BYTE   PEND 
//  #02 //006   ----------------------------------------
Label_019335D0:
 BYTE   W24
 BYTE   N23  Cs3  v080
 BYTE   N23  Fs3
 BYTE   W72
 BYTE   PEND 
//  #02 //007   ----------------------------------------
Label_019335D8:
 BYTE   N23  Cn3  v080
 BYTE   N23  Ds3
 BYTE   W48
 BYTE   N23
 BYTE   N23  Fs3
 BYTE   W48
 BYTE   PEND 
//  #02 //008   ----------------------------------------
 BYTE   Fn3
 BYTE   N23  As3
 BYTE   W96
//  #02 //009   ----------------------------------------
 BYTE   PATT
  POIN2 Label_019335AE
//  #02 //010   ----------------------------------------
 BYTE   PATT
  POIN2 Label_019335B6
//  #02 //011   ----------------------------------------
 BYTE   PATT
  POIN2 Label_019335BE
//  #02 //012   ----------------------------------------
 BYTE   N23  Fn3  v080
 BYTE   W96
//  #02 //013   ----------------------------------------
 BYTE   PATT
  POIN2 Label_019335C8
//  #02 //014   ----------------------------------------
 BYTE   PATT
  POIN2 Label_019335D0
//  #02 //015   ----------------------------------------
 BYTE   PATT
  POIN2 Label_019335D8
//  #02 //016   ----------------------------------------
 BYTE   W96
//  #02 //017   ----------------------------------------
 BYTE   W96
//  #02 //018   ----------------------------------------
 BYTE   W96
//  #02 //019   ----------------------------------------
 BYTE   W96
//  #02 //020   ----------------------------------------
Label_0193360D:
 BYTE   W48
 BYTE   N11  As2  v044
 BYTE   W24
 BYTE   N11
 BYTE   W24
 BYTE   PEND 
//  #02 //021   ----------------------------------------
Label_01933615:
 BYTE   N11  As2  v044
 BYTE   W24
 BYTE   N11
 BYTE   W24
 BYTE   N11
 BYTE   W24
 BYTE   An2
 BYTE   W24
 BYTE   PEND 
//  #02 //022   ----------------------------------------
Label_01933620:
 BYTE   N11  An2  v044
 BYTE   W24
 BYTE   N11
 BYTE   W24
 BYTE   N11
 BYTE   W24
 BYTE   N11
 BYTE   W24
 BYTE   PEND 
//  #02 //023   ----------------------------------------
 BYTE   PATT
  POIN2 Label_01933620
//  #02 //024   ----------------------------------------
 BYTE   W48
 BYTE   N11  An2  v044
 BYTE   W24
 BYTE   N11
 BYTE   W24
//  #02 //025   ----------------------------------------
 BYTE   N11
 BYTE   W24
 BYTE   N11
 BYTE   W24
 BYTE   N44  Cs3
 BYTE   W48
//  #02 //026   ----------------------------------------
 BYTE   N68  Cn3
 BYTE   W72
 BYTE   N23  As2
 BYTE   W24
//  #02 //027   ----------------------------------------
 BYTE   N92  Fn2
 BYTE   W96
//  #02 //028   ----------------------------------------
 BYTE   PATT
  POIN2 Label_0193360D
//  #02 //029   ----------------------------------------
 BYTE   N11  As2  v044
 BYTE   W24
 BYTE   N11
 BYTE   W24
 BYTE   N11
 BYTE   W24
 BYTE   Ds3
 BYTE   W24
//  #02 //030   ----------------------------------------
Label_01933656:
 BYTE   N11  Ds3  v044
 BYTE   W24
 BYTE   N11
 BYTE   W24
 BYTE   N11
 BYTE   W24
 BYTE   N11
 BYTE   W24
 BYTE   PEND 
//  #02 //031   ----------------------------------------
 BYTE   PATT
  POIN2 Label_01933656
//  #02 //032   ----------------------------------------
 BYTE   N92  Cn3  v044
 BYTE   W96
//  #02 //033   ----------------------------------------
 BYTE   As2
 BYTE   W96
//  #02 //034   ----------------------------------------
 BYTE   Cn3
 BYTE   W96
//  #02 //035   ----------------------------------------
 BYTE   Cs3
 BYTE   W96
//  #02 //036   ----------------------------------------
 BYTE   PATT
  POIN2 Label_0193360D
//  #02 //037   ----------------------------------------
 BYTE   PATT
  POIN2 Label_01933615
//  #02 //038   ----------------------------------------
 BYTE   PATT
  POIN2 Label_01933620
//  #02 //039   ----------------------------------------
 BYTE   PATT
  POIN2 Label_01933620
//  #02 //040   ----------------------------------------
 BYTE   W48
 BYTE   TIE  Cn3  v044
 BYTE   W48
//  #02 //041   ----------------------------------------
 BYTE   W92
 BYTE   W03
 BYTE   EOT
 BYTE   W01
//  #02 //042   ----------------------------------------
 BYTE   N11
 BYTE   W24
 BYTE   N11
 BYTE   W24
 BYTE   N11
 BYTE   W24
 BYTE   N11
 BYTE   W24
//  #02 //043   ----------------------------------------
 BYTE   As2
 BYTE   W24
 BYTE   N11
 BYTE   W24
 BYTE   N11
 BYTE   W24
 BYTE   N11
 BYTE   W24
//  #02 //044   ----------------------------------------
 BYTE   N92  Cs3
 BYTE   W96
//  #02 //045   ----------------------------------------
 BYTE   Fn3
 BYTE   W96
//  #02 //046   ----------------------------------------
 BYTE   Ds3
 BYTE   W96
//  #02 //047   ----------------------------------------
 BYTE   Fn3
 BYTE   W96
//  #02 //048   ----------------------------------------
 BYTE   N23  Ds3
 BYTE   W24
 BYTE   TIE  Cs3
 BYTE   W72
//  #02 //049   ----------------------------------------
 BYTE   W96
//  #02 //050   ----------------------------------------
 BYTE   W96
//  #02 //051   ----------------------------------------
 BYTE   W92
 BYTE   W03
 BYTE   EOT
 BYTE   W01
//  #02 //052   ----------------------------------------
 BYTE   N68  Cn3
 BYTE   W96
//  #02 //053   ----------------------------------------
 BYTE   Cs3
 BYTE   W96
//  #02 //054   ----------------------------------------
 BYTE   Ds3
 BYTE   W96
//  #02 //055   ----------------------------------------
 BYTE   Fn3
 BYTE   W96
//  #02 //056   ----------------------------------------
 BYTE   Cn3
 BYTE   W96
//  #02 //057   ----------------------------------------
 BYTE   Cs3
 BYTE   W96
//  #02 //058   ----------------------------------------
 BYTE   Ds3
 BYTE   W96
//  #02 //059   ----------------------------------------
 BYTE   Fn3
 BYTE   W96
//  #02 //060   ----------------------------------------
 BYTE   Cn3
 BYTE   W96
//  #02 //061   ----------------------------------------
 BYTE   Cs3
 BYTE   W96
//  #02 //062   ----------------------------------------
 BYTE   Ds3
 BYTE   W96
//  #02 //063   ----------------------------------------
 BYTE   Fn3
 BYTE   W96
//  #02 //064   ----------------------------------------
 BYTE   N68
 BYTE   W96
//  #02 //065   ----------------------------------------
 BYTE   As3
 BYTE   W96
//  #02 //066   ----------------------------------------
 BYTE   Ds3
 BYTE   W96
//  #02 //067   ----------------------------------------
 BYTE   Gs3
 BYTE   W96
//  #02 //068   ----------------------------------------
 BYTE   As3
 BYTE   W96
//  #02 //069   ----------------------------------------
 BYTE   Gs3
 BYTE   W96
//  #02 //070   ----------------------------------------
 BYTE   As3
 BYTE   W96
//  #02 //071   ----------------------------------------
 BYTE   Bn3
 BYTE   W96
//  #02 //072   ----------------------------------------
 BYTE   W96
//  #02 //073   ----------------------------------------
 BYTE   W96
//  #02 //074   ----------------------------------------
 BYTE   W96
//  #02 //075   ----------------------------------------
 BYTE   W96
//  #02 //076   ----------------------------------------
 BYTE   W48
 BYTE   N44  As2
 BYTE   W48
//  #02 //077   ----------------------------------------
Label_019336E3:
 BYTE   N68  Cn3  v044
 BYTE   W72
 BYTE   TIE  Cs3
 BYTE   W24
 BYTE   PEND 
//  #02 //078   ----------------------------------------
 BYTE   W92
 BYTE   W03
 BYTE   EOT
 BYTE   W01
//  #02 //079   ----------------------------------------
 BYTE   N92  Cn3
 BYTE   W96
//  #02 //080   ----------------------------------------
 BYTE   W48
 BYTE   N44  Fn3
 BYTE   W48
//  #02 //081   ----------------------------------------
Label_019336F6:
 BYTE   N32  Ds3  v044
 BYTE   W36
 BYTE   Cs3
 BYTE   W36
 BYTE   TIE  Cn3
 BYTE   W24
 BYTE   PEND 
//  #02 //082   ----------------------------------------
 BYTE   W96
//  #02 //083   ----------------------------------------
 BYTE   W92
 BYTE   W03
 BYTE   EOT
 BYTE   W01
//  #02 //084   ----------------------------------------
 BYTE   W48
 BYTE   N44  Gs2
 BYTE   W48
//  #02 //085   ----------------------------------------
 BYTE   PATT
  POIN2 Label_019336E3
//  #02 //086   ----------------------------------------
 BYTE   W92
 BYTE   W03
 BYTE   EOT
 BYTE   Cs3
 BYTE   W01
//  #02 //087   ----------------------------------------
 BYTE   N44  Ds3  v044
 BYTE   W48
 BYTE   TIE  Fn3
 BYTE   W48
//  #02 //088   ----------------------------------------
 BYTE   W92
 BYTE   W03
 BYTE   EOT
 BYTE   W01
//  #02 //089   ----------------------------------------
 BYTE   PATT
  POIN2 Label_019336F6
//  #02 //090   ----------------------------------------
 BYTE   W92
 BYTE   W03
 BYTE   EOT
 BYTE   Cn3
 BYTE   W01
//  #02 //091   ----------------------------------------
 BYTE   N92  Cn3  v044
 BYTE   N92  Ds3
 BYTE   W96
//  #02 //092   ----------------------------------------
 BYTE   GoTo
  POIN2 Label_0193359E
//  #02 //093   ----------------------------------------
 BYTE   VOICE   61
 BYTE   PAN   c_v+0
 BYTE   FINE

//**************** Track 3 (Midi-Chn.2) ****************//

FE16IndomitableWillAzula_003:
//  #03 //000   ----------------------------------------
 BYTE   KEYSH   FE16IndomitableWillAzula_key+0
Label_01932D6E:
 BYTE   VOICE   68
 BYTE   MODT 0
 BYTE   LFOS 44
 BYTE   PAN   c_v+12
 BYTE   VOL   49*FE16IndomitableWillAzula_mvl/mxv
 BYTE   W96
//  #03 //001   ----------------------------------------
 BYTE   W96
//  #03 //002   ----------------------------------------
 BYTE   W96
//  #03 //003   ----------------------------------------
 BYTE   W96
//  #03 //004   ----------------------------------------
 BYTE   W96
//  #03 //005   ----------------------------------------
 BYTE   W96
//  #03 //006   ----------------------------------------
 BYTE   W96
//  #03 //007   ----------------------------------------
 BYTE   W96
//  #03 //008   ----------------------------------------
 BYTE   W96
//  #03 //009   ----------------------------------------
 BYTE   W96
//  #03 //010   ----------------------------------------
 BYTE   W96
//  #03 //011   ----------------------------------------
 BYTE   W96
//  #03 //012   ----------------------------------------
 BYTE   W96
//  #03 //013   ----------------------------------------
 BYTE   W96
//  #03 //014   ----------------------------------------
 BYTE   W96
//  #03 //015   ----------------------------------------
 BYTE   W96
//  #03 //016   ----------------------------------------
 BYTE   W96
//  #03 //017   ----------------------------------------
 BYTE   W96
//  #03 //018   ----------------------------------------
 BYTE   W96
//  #03 //019   ----------------------------------------
 BYTE   W96
//  #03 //020   ----------------------------------------
 BYTE   W96
//  #03 //021   ----------------------------------------
 BYTE   W96
//  #03 //022   ----------------------------------------
 BYTE   W96
//  #03 //023   ----------------------------------------
 BYTE   W96
//  #03 //024   ----------------------------------------
 BYTE   W96
//  #03 //025   ----------------------------------------
 BYTE   W48
 BYTE   N44  Cs3  v060
 BYTE   W48
//  #03 //026   ----------------------------------------
 BYTE   N68  Cn3
 BYTE   W72
 BYTE   N23  As2
 BYTE   W24
//  #03 //027   ----------------------------------------
 BYTE   N92  Fn2
 BYTE   W96
//  #03 //028   ----------------------------------------
 BYTE   W96
//  #03 //029   ----------------------------------------
 BYTE   W96
//  #03 //030   ----------------------------------------
 BYTE   W96
//  #03 //031   ----------------------------------------
 BYTE   W96
//  #03 //032   ----------------------------------------
 BYTE   W96
//  #03 //033   ----------------------------------------
 BYTE   W96
//  #03 //034   ----------------------------------------
 BYTE   W96
//  #03 //035   ----------------------------------------
 BYTE   W96
//  #03 //036   ----------------------------------------
 BYTE   N68  Gs3  v080
 BYTE   W72
 BYTE   N23  Fs3
 BYTE   W24
//  #03 //037   ----------------------------------------
 BYTE   Cn3
 BYTE   W24
 BYTE   Cs3
 BYTE   W24
 BYTE   N68  Fs3
 BYTE   W48
//  #03 //038   ----------------------------------------
 BYTE   W24
 BYTE   N23  Fn3
 BYTE   W24
 BYTE   Ds3
 BYTE   W24
 BYTE   Cs3
 BYTE   W24
//  #03 //039   ----------------------------------------
 BYTE   Cn3
 BYTE   W48
 BYTE   N44  Cs4
 BYTE   W48
//  #03 //040   ----------------------------------------
 BYTE   N68  Cn4
 BYTE   W72
 BYTE   N23  As3
 BYTE   W24
//  #03 //041   ----------------------------------------
 BYTE   N68  Fn3
 BYTE   W72
 BYTE   N23  Cs3
 BYTE   W24
//  #03 //042   ----------------------------------------
 BYTE   Ds3
 BYTE   W24
 BYTE   TIE  Fn3
 BYTE   W72
//  #03 //043   ----------------------------------------
 BYTE   W92
 BYTE   W03
 BYTE   EOT
 BYTE   W01
//  #03 //044   ----------------------------------------
 BYTE   N92  Cs3
 BYTE   W96
//  #03 //045   ----------------------------------------
 BYTE   Fn3
 BYTE   W96
//  #03 //046   ----------------------------------------
 BYTE   Ds3
 BYTE   W96
//  #03 //047   ----------------------------------------
 BYTE   Cs4
 BYTE   W96
//  #03 //048   ----------------------------------------
 BYTE   N23  Cn4
 BYTE   W24
 BYTE   TIE  As3
 BYTE   W72
//  #03 //049   ----------------------------------------
 BYTE   W96
//  #03 //050   ----------------------------------------
 BYTE   W96
//  #03 //051   ----------------------------------------
 BYTE   W92
 BYTE   W03
 BYTE   EOT
 BYTE   W01
//  #03 //052   ----------------------------------------
 BYTE   W96
//  #03 //053   ----------------------------------------
 BYTE   W96
//  #03 //054   ----------------------------------------
 BYTE   W96
//  #03 //055   ----------------------------------------
 BYTE   W96
//  #03 //056   ----------------------------------------
 BYTE   W96
//  #03 //057   ----------------------------------------
 BYTE   W96
//  #03 //058   ----------------------------------------
 BYTE   W96
//  #03 //059   ----------------------------------------
 BYTE   W96
//  #03 //060   ----------------------------------------
 BYTE   W96
//  #03 //061   ----------------------------------------
 BYTE   W96
//  #03 //062   ----------------------------------------
 BYTE   W96
//  #03 //063   ----------------------------------------
 BYTE   W96
//  #03 //064   ----------------------------------------
 BYTE   W96
//  #03 //065   ----------------------------------------
 BYTE   W96
//  #03 //066   ----------------------------------------
 BYTE   W96
//  #03 //067   ----------------------------------------
 BYTE   W48
 BYTE   N23  Ds3  v060
 BYTE   W24
 BYTE   Fn3  v072
 BYTE   W24
//  #03 //068   ----------------------------------------
 BYTE   TIE  Fs3  v080
 BYTE   W96
//  #03 //069   ----------------------------------------
 BYTE   W23
 BYTE   EOT
 BYTE   W01
 BYTE   N23  Fn3
 BYTE   W24
 BYTE   Ds3
 BYTE   W24
 BYTE   Cs3
 BYTE   W24
//  #03 //070   ----------------------------------------
 BYTE   TIE  Ds3
 BYTE   W96
//  #03 //071   ----------------------------------------
 BYTE   W23
 BYTE   EOT
 BYTE   W01
 BYTE   N23  Fn3
 BYTE   W24
 BYTE   Fs3
 BYTE   W24
 BYTE   Gs3
 BYTE   W24
//  #03 //072   ----------------------------------------
 BYTE   N92  Fn3
 BYTE   W96
//  #03 //073   ----------------------------------------
 BYTE   Ds3
 BYTE   W96
//  #03 //074   ----------------------------------------
 BYTE   Cn3
 BYTE   W96
//  #03 //075   ----------------------------------------
Label_01932E25:
 BYTE   N23  Cn3  v052
 BYTE   W24
 BYTE   Cs3
 BYTE   W24
 BYTE   Fn3
 BYTE   W24
 BYTE   Gs3
 BYTE   W24
 BYTE   PEND 
//  #03 //076   ----------------------------------------
Label_01932E30:
 BYTE   N68  Cn4  v052
 BYTE   W72
 BYTE   N23  Cs4
 BYTE   W24
 BYTE   PEND 
//  #03 //077   ----------------------------------------
 BYTE   TIE  As3
 BYTE   W96
//  #03 //078   ----------------------------------------
 BYTE   W44
 BYTE   W03
 BYTE   EOT
 BYTE   W01
 BYTE   N23  Fn3
 BYTE   W24
 BYTE   Fn4  v032
 BYTE   W24
//  #03 //079   ----------------------------------------
Label_01932E45:
 BYTE   N11  Ds4  v032
 BYTE   W12
 BYTE   Cs4  v052
 BYTE   W12
 BYTE   N44  Cn4
 BYTE   W48
 BYTE   N23  Gs3
 BYTE   W24
 BYTE   PEND 
//  #03 //080   ----------------------------------------
 BYTE   N32  Cn4
 BYTE   W36
 BYTE   Cs4
 BYTE   W36
 BYTE   TIE  As3
 BYTE   W24
//  #03 //081   ----------------------------------------
 BYTE   W96
//  #03 //082   ----------------------------------------
 BYTE   W92
 BYTE   W03
 BYTE   EOT
 BYTE   W01
//  #03 //083   ----------------------------------------
 BYTE   PATT
  POIN2 Label_01932E25
//  #03 //084   ----------------------------------------
 BYTE   PATT
  POIN2 Label_01932E30
//  #03 //085   ----------------------------------------
 BYTE   TIE  As3  v052
 BYTE   W96
//  #03 //086   ----------------------------------------
 BYTE   W44
 BYTE   W03
 BYTE   EOT
 BYTE   W01
 BYTE   N23  Fn3
 BYTE   W24
 BYTE   Fn4  v032
 BYTE   W24
//  #03 //087   ----------------------------------------
 BYTE   PATT
  POIN2 Label_01932E45
//  #03 //088   ----------------------------------------
 BYTE   N32  Cn4  v052
 BYTE   W36
 BYTE   Cs4
 BYTE   W36
 BYTE   TIE  Gs3
 BYTE   W24
//  #03 //089   ----------------------------------------
 BYTE   W96
//  #03 //090   ----------------------------------------
 BYTE   W96
//  #03 //091   ----------------------------------------
 BYTE   W92
 BYTE   W03
 BYTE   EOT
 BYTE   W01
//  #03 //092   ----------------------------------------
 BYTE   GoTo
  POIN2 Label_01932D6E
//  #03 //093   ----------------------------------------
 BYTE   VOICE   68
 BYTE   FINE

//**************** Track 4 (Midi-Chn.3) ****************//

FE16IndomitableWillAzula_004:
//  #04 //000   ----------------------------------------
 BYTE   KEYSH   FE16IndomitableWillAzula_key+0
Label_015F6E8A:
 BYTE   VOICE   58
 BYTE   MODT 0
 BYTE   LFOS 44
 BYTE   VOL   35*FE16IndomitableWillAzula_mvl/mxv
 BYTE   PAN   c_v+0
 BYTE   N23  As1  v080
 BYTE   W96
//  #04 //001   ----------------------------------------
 BYTE   W72
 BYTE   N23
 BYTE   W24
//  #04 //002   ----------------------------------------
 BYTE   W24
 BYTE   N23
 BYTE   W72
//  #04 //003   ----------------------------------------
 BYTE   W72
 BYTE   N23
 BYTE   W24
//  #04 //004   ----------------------------------------
 BYTE   Fs1
 BYTE   W96
//  #04 //005   ----------------------------------------
 BYTE   W72
 BYTE   Ds1
 BYTE   W24
//  #04 //006   ----------------------------------------
 BYTE   W24
 BYTE   N23
 BYTE   W72
//  #04 //007   ----------------------------------------
Label_015F6EA9:
 BYTE   N23  Fn1  v080
 BYTE   W48
 BYTE   An1
 BYTE   W48
 BYTE   PEND 
//  #04 //008   ----------------------------------------
 BYTE   As1
 BYTE   W96
//  #04 //009   ----------------------------------------
 BYTE   W72
 BYTE   N23
 BYTE   W24
//  #04 //010   ----------------------------------------
 BYTE   W24
 BYTE   N23
 BYTE   W72
//  #04 //011   ----------------------------------------
 BYTE   W72
 BYTE   N23
 BYTE   W24
//  #04 //012   ----------------------------------------
 BYTE   Fs1
 BYTE   W96
//  #04 //013   ----------------------------------------
 BYTE   W72
 BYTE   Ds1
 BYTE   W24
//  #04 //014   ----------------------------------------
 BYTE   W24
 BYTE   N23
 BYTE   W72
//  #04 //015   ----------------------------------------
 BYTE   PATT
  POIN2 Label_015F6EA9
//  #04 //016   ----------------------------------------
 BYTE   W96
//  #04 //017   ----------------------------------------
 BYTE   W96
//  #04 //018   ----------------------------------------
 BYTE   W96
//  #04 //019   ----------------------------------------
 BYTE   W96
//  #04 //020   ----------------------------------------
Label_015F6ECC:
 BYTE   W48
 BYTE   TIE  Fs1  v060
 BYTE   W48
 BYTE   PEND 
//  #04 //021   ----------------------------------------
 BYTE   W68
 BYTE   W03
 BYTE   EOT
 BYTE   W01
 BYTE   TIE  An1
 BYTE   W24
//  #04 //022   ----------------------------------------
 BYTE   W96
//  #04 //023   ----------------------------------------
 BYTE   W92
 BYTE   W03
 BYTE   EOT
 BYTE   W01
//  #04 //024   ----------------------------------------
 BYTE   TIE  As1
 BYTE   W96
//  #04 //025   ----------------------------------------
 BYTE   W68
 BYTE   W03
 BYTE   EOT
 BYTE   W01
 BYTE   TIE  Gn1
 BYTE   W24
//  #04 //026   ----------------------------------------
 BYTE   W96
//  #04 //027   ----------------------------------------
 BYTE   W92
 BYTE   W03
 BYTE   EOT
 BYTE   W01
//  #04 //028   ----------------------------------------
 BYTE   PATT
  POIN2 Label_015F6ECC
//  #04 //029   ----------------------------------------
 BYTE   W68
 BYTE   W03
 BYTE   EOT
 BYTE   Fs1
 BYTE   W01
 BYTE   TIE  An1  v060
 BYTE   W24
//  #04 //030   ----------------------------------------
 BYTE   W96
//  #04 //031   ----------------------------------------
 BYTE   W92
 BYTE   W03
 BYTE   EOT
 BYTE   W01
//  #04 //032   ----------------------------------------
 BYTE   TIE  As1
 BYTE   W96
//  #04 //033   ----------------------------------------
 BYTE   W96
//  #04 //034   ----------------------------------------
 BYTE   W96
//  #04 //035   ----------------------------------------
 BYTE   W92
 BYTE   W03
 BYTE   EOT
 BYTE   W01
//  #04 //036   ----------------------------------------
 BYTE   PATT
  POIN2 Label_015F6ECC
//  #04 //037   ----------------------------------------
 BYTE   W68
 BYTE   W03
 BYTE   EOT
 BYTE   Fs1
 BYTE   W01
 BYTE   TIE  An1  v060
 BYTE   W24
//  #04 //038   ----------------------------------------
 BYTE   W96
//  #04 //039   ----------------------------------------
 BYTE   W92
 BYTE   W03
 BYTE   EOT
 BYTE   W01
//  #04 //040   ----------------------------------------
 BYTE   TIE  As1
 BYTE   W96
//  #04 //041   ----------------------------------------
 BYTE   W68
 BYTE   W03
 BYTE   EOT
 BYTE   W01
 BYTE   TIE  Gn1
 BYTE   W24
//  #04 //042   ----------------------------------------
 BYTE   W96
//  #04 //043   ----------------------------------------
 BYTE   W92
 BYTE   W03
 BYTE   EOT
 BYTE   W01
//  #04 //044   ----------------------------------------
 BYTE   W48
 BYTE   TIE  Ds1
 BYTE   W48
//  #04 //045   ----------------------------------------
 BYTE   W68
 BYTE   W03
 BYTE   EOT
 BYTE   W01
 BYTE   TIE  Fn1
 BYTE   W24
//  #04 //046   ----------------------------------------
 BYTE   W92
 BYTE   W03
 BYTE   EOT
 BYTE   W01
//  #04 //047   ----------------------------------------
 BYTE   N92  An1
 BYTE   W96
//  #04 //048   ----------------------------------------
 BYTE   TIE  As1
 BYTE   W96
//  #04 //049   ----------------------------------------
 BYTE   W96
//  #04 //050   ----------------------------------------
 BYTE   W96
//  #04 //051   ----------------------------------------
 BYTE   W92
 BYTE   W03
 BYTE   EOT
 BYTE   W01
//  #04 //052   ----------------------------------------
 BYTE   W96
//  #04 //053   ----------------------------------------
 BYTE   W96
//  #04 //054   ----------------------------------------
 BYTE   W96
//  #04 //055   ----------------------------------------
 BYTE   W96
//  #04 //056   ----------------------------------------
 BYTE   W96
//  #04 //057   ----------------------------------------
 BYTE   W96
//  #04 //058   ----------------------------------------
 BYTE   W96
//  #04 //059   ----------------------------------------
 BYTE   W96
//  #04 //060   ----------------------------------------
 BYTE   W96
//  #04 //061   ----------------------------------------
 BYTE   W96
//  #04 //062   ----------------------------------------
 BYTE   W96
//  #04 //063   ----------------------------------------
 BYTE   W96
//  #04 //064   ----------------------------------------
 BYTE   W96
//  #04 //065   ----------------------------------------
 BYTE   W96
//  #04 //066   ----------------------------------------
 BYTE   W96
//  #04 //067   ----------------------------------------
 BYTE   W96
//  #04 //068   ----------------------------------------
 BYTE   W96
//  #04 //069   ----------------------------------------
 BYTE   W96
//  #04 //070   ----------------------------------------
 BYTE   W96
//  #04 //071   ----------------------------------------
 BYTE   W96
//  #04 //072   ----------------------------------------
 BYTE   W96
//  #04 //073   ----------------------------------------
 BYTE   W96
//  #04 //074   ----------------------------------------
 BYTE   W96
//  #04 //075   ----------------------------------------
 BYTE   W96
//  #04 //076   ----------------------------------------
 BYTE   W48
 BYTE   N44  Fs0
 BYTE   W48
//  #04 //077   ----------------------------------------
Label_015F6F62:
 BYTE   N68  Gs0  v060
 BYTE   W72
 BYTE   TIE  As0
 BYTE   W24
 BYTE   PEND 
//  #04 //078   ----------------------------------------
 BYTE   W96
//  #04 //079   ----------------------------------------
 BYTE   W92
 BYTE   W03
 BYTE   EOT
 BYTE   W01
//  #04 //080   ----------------------------------------
 BYTE   W48
 BYTE   N44  Ds0
 BYTE   W48
//  #04 //081   ----------------------------------------
Label_015F6F73:
 BYTE   N68  Fn0  v060
 BYTE   W72
 BYTE   TIE  As0
 BYTE   W24
 BYTE   PEND 
//  #04 //082   ----------------------------------------
 BYTE   W96
//  #04 //083   ----------------------------------------
 BYTE   W92
 BYTE   W03
 BYTE   EOT
 BYTE   W01
//  #04 //084   ----------------------------------------
 BYTE   W48
 BYTE   N44  Fs0
 BYTE   W48
//  #04 //085   ----------------------------------------
 BYTE   PATT
  POIN2 Label_015F6F62
//  #04 //086   ----------------------------------------
 BYTE   W96
//  #04 //087   ----------------------------------------
 BYTE   W92
 BYTE   W03
 BYTE   EOT
 BYTE   As0
 BYTE   W01
//  #04 //088   ----------------------------------------
 BYTE   W48
 BYTE   N44  Ds0  v060
 BYTE   W48
//  #04 //089   ----------------------------------------
 BYTE   PATT
  POIN2 Label_015F6F73
//  #04 //090   ----------------------------------------
 BYTE   W96
//  #04 //091   ----------------------------------------
 BYTE   W92
 BYTE   W03
 BYTE   EOT
 BYTE   As0
 BYTE   W01
//  #04 //092   ----------------------------------------
 BYTE   GoTo
  POIN2 Label_015F6E8A
//  #04 //093   ----------------------------------------
 BYTE   VOICE   58
 BYTE   PAN   c_v+0
 BYTE   FINE

//**************** Track 5 (Midi-Chn.4) ****************//

FE16IndomitableWillAzula_005:
//  #05 //000   ----------------------------------------
 BYTE   KEYSH   FE16IndomitableWillAzula_key+0
Label_0193324A:
 BYTE   VOICE   52
 BYTE   MODT 0
 BYTE   LFOS 44
 BYTE   PAN   c_v-13
 BYTE   VOL   42*FE16IndomitableWillAzula_mvl/mxv
 BYTE   N36  Cs4  v080
 BYTE   W96
//  #05 //001   ----------------------------------------
 BYTE   W72
 BYTE   N36
 BYTE   W24
//  #05 //002   ----------------------------------------
 BYTE   W24
 BYTE   Cn4
 BYTE   W72
//  #05 //003   ----------------------------------------
Label_0193325E:
 BYTE   W72
 BYTE   N07  Cs4  v080
 BYTE   W08
 BYTE   Cn4
 BYTE   W08
 BYTE   Bn3
 BYTE   W08
 BYTE   PEND 
//  #05 //004   ----------------------------------------
 BYTE   N36  As3
 BYTE   W96
//  #05 //005   ----------------------------------------
 BYTE   W72
 BYTE   Gs3
 BYTE   W24
//  #05 //006   ----------------------------------------
 BYTE   W24
 BYTE   Fs3
 BYTE   W72
//  #05 //007   ----------------------------------------
Label_01933271:
 BYTE   N36  Ds3  v080
 BYTE   N36  An3
 BYTE   W48
 BYTE   Fs3
 BYTE   N36  Cn4
 BYTE   W48
 BYTE   PEND 
//  #05 //008   ----------------------------------------
 BYTE   Cs4
 BYTE   W96
//  #05 //009   ----------------------------------------
 BYTE   W72
 BYTE   N36
 BYTE   W24
//  #05 //010   ----------------------------------------
 BYTE   W24
 BYTE   Cn4
 BYTE   W72
//  #05 //011   ----------------------------------------
 BYTE   PATT
  POIN2 Label_0193325E
//  #05 //012   ----------------------------------------
 BYTE   N36  As3  v080
 BYTE   W96
//  #05 //013   ----------------------------------------
 BYTE   W72
 BYTE   Gs3
 BYTE   W24
//  #05 //014   ----------------------------------------
 BYTE   W24
 BYTE   Fs3
 BYTE   W72
//  #05 //015   ----------------------------------------
 BYTE   PATT
  POIN2 Label_01933271
//  #05 //016   ----------------------------------------
 BYTE   W96
//  #05 //017   ----------------------------------------
 BYTE   W96
//  #05 //018   ----------------------------------------
 BYTE   W96
//  #05 //019   ----------------------------------------
 BYTE   W96
//  #05 //020   ----------------------------------------
 BYTE   N68  Gs4  v080
 BYTE   W72
 BYTE   N23  Fs4
 BYTE   W24
//  #05 //021   ----------------------------------------
 BYTE   Cn4
 BYTE   W24
 BYTE   Cs4
 BYTE   W24
 BYTE   N68  Fs4
 BYTE   W48
//  #05 //022   ----------------------------------------
Label_019332AA:
 BYTE   W24
 BYTE   N23  Fn4  v080
 BYTE   W24
 BYTE   Ds4
 BYTE   W24
 BYTE   Cs4
 BYTE   W24
 BYTE   PEND 
//  #05 //023   ----------------------------------------
Label_019332B4:
 BYTE   N23  Cn4  v080
 BYTE   W48
 BYTE   N44  Cs5
 BYTE   W48
 BYTE   PEND 
//  #05 //024   ----------------------------------------
 BYTE   N68  Cn5
 BYTE   W72
 BYTE   N23  As4
 BYTE   W24
//  #05 //025   ----------------------------------------
 BYTE   TIE  Fn4
 BYTE   W96
//  #05 //026   ----------------------------------------
 BYTE   W92
 BYTE   W03
 BYTE   EOT
 BYTE   W01
//  #05 //027   ----------------------------------------
 BYTE   W96
//  #05 //028   ----------------------------------------
 BYTE   N68  Ds4
 BYTE   W72
 BYTE   N23  Cs4
 BYTE   W24
//  #05 //029   ----------------------------------------
 BYTE   Cn4
 BYTE   W24
 BYTE   As3
 BYTE   W24
 BYTE   N68  Fs4
 BYTE   W48
//  #05 //030   ----------------------------------------
 BYTE   PATT
  POIN2 Label_019332AA
//  #05 //031   ----------------------------------------
 BYTE   PATT
  POIN2 Label_019332B4
//  #05 //032   ----------------------------------------
 BYTE   N92  Cn3  v080
 BYTE   N92  Cn5
 BYTE   W96
//  #05 //033   ----------------------------------------
 BYTE   As2
 BYTE   N92  As4
 BYTE   W96
//  #05 //034   ----------------------------------------
 BYTE   Cn3
 BYTE   N92  Cn5
 BYTE   W96
//  #05 //035   ----------------------------------------
 BYTE   Cs3
 BYTE   N92  Cs5
 BYTE   W96
//  #05 //036   ----------------------------------------
 BYTE   W96
//  #05 //037   ----------------------------------------
 BYTE   W96
//  #05 //038   ----------------------------------------
 BYTE   W96
//  #05 //039   ----------------------------------------
 BYTE   W96
//  #05 //040   ----------------------------------------
 BYTE   W96
//  #05 //041   ----------------------------------------
 BYTE   W96
//  #05 //042   ----------------------------------------
 BYTE   W96
//  #05 //043   ----------------------------------------
 BYTE   W96
//  #05 //044   ----------------------------------------
 BYTE   Cs4
 BYTE   W96
//  #05 //045   ----------------------------------------
 BYTE   Fn4
 BYTE   W96
//  #05 //046   ----------------------------------------
 BYTE   Ds4
 BYTE   W96
//  #05 //047   ----------------------------------------
 BYTE   Cs5
 BYTE   W96
//  #05 //048   ----------------------------------------
 BYTE   N23  Cn5
 BYTE   W24
 BYTE   TIE  As4
 BYTE   W72
//  #05 //049   ----------------------------------------
 BYTE   W96
//  #05 //050   ----------------------------------------
 BYTE   W96
//  #05 //051   ----------------------------------------
 BYTE   W92
 BYTE   W03
 BYTE   EOT
 BYTE   W01
//  #05 //052   ----------------------------------------
Label_0193330F:
 BYTE   N23  Cn4  v044
 BYTE   W24
 BYTE   N23
 BYTE   W24
 BYTE   N23
 BYTE   W24
 BYTE   N07
 BYTE   W08
 BYTE   As3
 BYTE   W08
 BYTE   Cn4
 BYTE   W08
 BYTE   PEND 
//  #05 //053   ----------------------------------------
Label_0193331E:
 BYTE   N23  Cs4  v044
 BYTE   W24
 BYTE   N23
 BYTE   W24
 BYTE   N23
 BYTE   W24
 BYTE   N07
 BYTE   W08
 BYTE   Cn4
 BYTE   W08
 BYTE   Cs4
 BYTE   W08
 BYTE   PEND 
//  #05 //054   ----------------------------------------
Label_0193332D:
 BYTE   N23  Ds4  v044
 BYTE   W24
 BYTE   N23
 BYTE   W24
 BYTE   N23
 BYTE   W24
 BYTE   N07
 BYTE   W08
 BYTE   Cs4
 BYTE   W08
 BYTE   Ds4
 BYTE   W08
 BYTE   PEND 
//  #05 //055   ----------------------------------------
Label_0193333C:
 BYTE   N23  Fn4  v044
 BYTE   W24
 BYTE   N23
 BYTE   W24
 BYTE   N23
 BYTE   W24
 BYTE   N07
 BYTE   W08
 BYTE   Ds4
 BYTE   W08
 BYTE   Cs4
 BYTE   W08
 BYTE   PEND 
//  #05 //056   ----------------------------------------
 BYTE   PATT
  POIN2 Label_0193330F
//  #05 //057   ----------------------------------------
 BYTE   PATT
  POIN2 Label_0193331E
//  #05 //058   ----------------------------------------
 BYTE   PATT
  POIN2 Label_0193332D
//  #05 //059   ----------------------------------------
 BYTE   PATT
  POIN2 Label_0193333C
//  #05 //060   ----------------------------------------
 BYTE   PATT
  POIN2 Label_0193330F
//  #05 //061   ----------------------------------------
 BYTE   PATT
  POIN2 Label_0193331E
//  #05 //062   ----------------------------------------
 BYTE   PATT
  POIN2 Label_0193332D
//  #05 //063   ----------------------------------------
 BYTE   PATT
  POIN2 Label_0193333C
//  #05 //064   ----------------------------------------
 BYTE   PATT
  POIN2 Label_0193330F
//  #05 //065   ----------------------------------------
 BYTE   PATT
  POIN2 Label_0193331E
//  #05 //066   ----------------------------------------
 BYTE   PATT
  POIN2 Label_0193332D
//  #05 //067   ----------------------------------------
 BYTE   PATT
  POIN2 Label_0193333C
//  #05 //068   ----------------------------------------
 BYTE   N68  Ds4  v044
 BYTE   W72
 BYTE   N07
 BYTE   W08
 BYTE   Cs4
 BYTE   W08
 BYTE   Ds4
 BYTE   W08
//  #05 //069   ----------------------------------------
 BYTE   N68  Fn4
 BYTE   W72
 BYTE   N07
 BYTE   W08
 BYTE   Ds4
 BYTE   W08
 BYTE   Fn4
 BYTE   W08
//  #05 //070   ----------------------------------------
 BYTE   N68  Fs4
 BYTE   W72
 BYTE   N07
 BYTE   W08
 BYTE   Fn4
 BYTE   W08
 BYTE   Fs4
 BYTE   W08
//  #05 //071   ----------------------------------------
 BYTE   N92  Gs4
 BYTE   W96
//  #05 //072   ----------------------------------------
 BYTE   Fn4
 BYTE   W96
//  #05 //073   ----------------------------------------
 BYTE   Ds4
 BYTE   W96
//  #05 //074   ----------------------------------------
 BYTE   Fn4
 BYTE   W96
//  #05 //075   ----------------------------------------
 BYTE   N23  Fn4  v028
 BYTE   W24
 BYTE   Ds4  v032
 BYTE   W24
 BYTE   Cn4  v036
 BYTE   W24
 BYTE   Fn3  v044
 BYTE   W24
//  #05 //076   ----------------------------------------
Label_019333B9:
 BYTE   N68  Cn5  v052
 BYTE   W72
 BYTE   N23  Cs5
 BYTE   W24
 BYTE   PEND 
//  #05 //077   ----------------------------------------
 BYTE   TIE  As4
 BYTE   W96
//  #05 //078   ----------------------------------------
 BYTE   W44
 BYTE   W03
 BYTE   EOT
 BYTE   W01
 BYTE   N23  Fn4
 BYTE   W24
 BYTE   Fn5  v032
 BYTE   W24
//  #05 //079   ----------------------------------------
Label_019333CE:
 BYTE   N11  Ds5  v032
 BYTE   W12
 BYTE   Cs5  v052
 BYTE   W12
 BYTE   N44  Cn5
 BYTE   W48
 BYTE   N23  Gs4
 BYTE   W24
 BYTE   PEND 
//  #05 //080   ----------------------------------------
 BYTE   N32  Cn5
 BYTE   W36
 BYTE   Cs5
 BYTE   W36
 BYTE   TIE  As4
 BYTE   W24
//  #05 //081   ----------------------------------------
 BYTE   W96
//  #05 //082   ----------------------------------------
 BYTE   W92
 BYTE   W03
 BYTE   EOT
 BYTE   W01
//  #05 //083   ----------------------------------------
 BYTE   N23  Cn4
 BYTE   W24
 BYTE   Cs4
 BYTE   W24
 BYTE   Fn4
 BYTE   W24
 BYTE   Gs4
 BYTE   W24
//  #05 //084   ----------------------------------------
 BYTE   PATT
  POIN2 Label_019333B9
//  #05 //085   ----------------------------------------
 BYTE   TIE  As4  v052
 BYTE   W96
//  #05 //086   ----------------------------------------
 BYTE   W44
 BYTE   W03
 BYTE   EOT
 BYTE   W01
 BYTE   N23  Fn4
 BYTE   W24
 BYTE   Fn5  v032
 BYTE   W24
//  #05 //087   ----------------------------------------
 BYTE   PATT
  POIN2 Label_019333CE
//  #05 //088   ----------------------------------------
 BYTE   N32  Cn5  v052
 BYTE   W36
 BYTE   Cs5
 BYTE   W36
 BYTE   TIE  Gs5  v028
 BYTE   W24
//  #05 //089   ----------------------------------------
 BYTE   W96
//  #05 //090   ----------------------------------------
 BYTE   W96
//  #05 //091   ----------------------------------------
 BYTE   W92
 BYTE   W03
 BYTE   EOT
 BYTE   W01
//  #05 //092   ----------------------------------------
 BYTE   GoTo
  POIN2 Label_0193324A
 BYTE   FINE

//**************** Track 6 (Midi-Chn.5) ****************//

FE16IndomitableWillAzula_006:
//  #06 //000   ----------------------------------------
 BYTE   KEYSH   FE16IndomitableWillAzula_key+0
Label_01932F0A:
 BYTE   VOICE   1
 BYTE   MODT 0
 BYTE   LFOS 44
 BYTE   VOL   53*FE16IndomitableWillAzula_mvl/mxv
 BYTE   PAN   c_v+0
 BYTE   N24  Cs5  v080
 BYTE   W24
 BYTE   N32
 BYTE   W24
 BYTE   N24  Cn5
 BYTE   W24
 BYTE   N24
 BYTE   W24
//  #06 //001   ----------------------------------------
Label_01932F1F:
 BYTE   N24  Ds4  v080
 BYTE   W24
 BYTE   N32
 BYTE   W24
 BYTE   N24  Fn4
 BYTE   W24
 BYTE   N24
 BYTE   W24
 BYTE   PEND 
//  #06 //002   ----------------------------------------
Label_01932F2B:
 BYTE   N24  Cs5  v080
 BYTE   W24
 BYTE   N32
 BYTE   W24
 BYTE   N24  Cn5
 BYTE   W24
 BYTE   N24
 BYTE   W24
 BYTE   PEND 
//  #06 //003   ----------------------------------------
 BYTE   PATT
  POIN2 Label_01932F1F
//  #06 //004   ----------------------------------------
Label_01932F3C:
 BYTE   N24  As4  v080
 BYTE   W24
 BYTE   N32
 BYTE   W24
 BYTE   N24  Gs4
 BYTE   W24
 BYTE   N24
 BYTE   W24
 BYTE   PEND 
//  #06 //005   ----------------------------------------
Label_01932F48:
 BYTE   N24  Cn4  v080
 BYTE   W24
 BYTE   N32
 BYTE   W24
 BYTE   N24  Cs4
 BYTE   W24
 BYTE   Gs4
 BYTE   W24
 BYTE   PEND 
//  #06 //006   ----------------------------------------
Label_01932F54:
 BYTE   N24  Gs4  v080
 BYTE   W24
 BYTE   N48  Fs4
 BYTE   W72
 BYTE   PEND 
//  #06 //007   ----------------------------------------
Label_01932F5C:
 BYTE   N24  Ds4  v080
 BYTE   W24
 BYTE   N24
 BYTE   W24
 BYTE   Fs4
 BYTE   W24
 BYTE   N24
 BYTE   W24
 BYTE   PEND 
//  #06 //008   ----------------------------------------
 BYTE   VOL   53*FE16IndomitableWillAzula_mvl/mxv
 BYTE   PAN   c_v+0
 BYTE   N24  Cs5
 BYTE   W24
 BYTE   N32
 BYTE   W24
 BYTE   N24  Cn5
 BYTE   W24
 BYTE   N24
 BYTE   W24
//  #06 //009   ----------------------------------------
 BYTE   PATT
  POIN2 Label_01932F1F
//  #06 //010   ----------------------------------------
 BYTE   PATT
  POIN2 Label_01932F2B
//  #06 //011   ----------------------------------------
 BYTE   PATT
  POIN2 Label_01932F1F
//  #06 //012   ----------------------------------------
 BYTE   PATT
  POIN2 Label_01932F3C
//  #06 //013   ----------------------------------------
 BYTE   PATT
  POIN2 Label_01932F48
//  #06 //014   ----------------------------------------
 BYTE   PATT
  POIN2 Label_01932F54
//  #06 //015   ----------------------------------------
 BYTE   PATT
  POIN2 Label_01932F5C
//  #06 //016   ----------------------------------------
 BYTE   VOL   53*FE16IndomitableWillAzula_mvl/mxv
 BYTE   PAN   c_v+0
 BYTE   En3  v064
 BYTE   N22  Fn4  v096
 BYTE   W24
 BYTE   N24
 BYTE   W24
 BYTE   N22  Ds4
 BYTE   W24
 BYTE   N24
 BYTE   W24
//  #06 //017   ----------------------------------------
 BYTE   N22  Cn4
 BYTE   W24
 BYTE   N24
 BYTE   W24
 BYTE   N22  Cs4
 BYTE   W24
 BYTE   N24
 BYTE   W24
//  #06 //018   ----------------------------------------
 BYTE   N22  Ds4
 BYTE   W24
 BYTE   N24
 BYTE   W24
 BYTE   N22  Fn4
 BYTE   W24
 BYTE   N24
 BYTE   W24
//  #06 //019   ----------------------------------------
 BYTE   N07  Ds5  v127
 BYTE   W08
 BYTE   N07
 BYTE   W16
 BYTE   N24
 BYTE   W24
 BYTE   N07  Fn5
 BYTE   W08
 BYTE   N07
 BYTE   W16
 BYTE   N24
 BYTE   W24
//  #06 //020   ----------------------------------------
 BYTE   W96
//  #06 //021   ----------------------------------------
 BYTE   W96
//  #06 //022   ----------------------------------------
 BYTE   W96
//  #06 //023   ----------------------------------------
 BYTE   W96
//  #06 //024   ----------------------------------------
 BYTE   W96
//  #06 //025   ----------------------------------------
 BYTE   W96
//  #06 //026   ----------------------------------------
 BYTE   W96
//  #06 //027   ----------------------------------------
 BYTE   W96
//  #06 //028   ----------------------------------------
 BYTE   W96
//  #06 //029   ----------------------------------------
 BYTE   W96
//  #06 //030   ----------------------------------------
 BYTE   W96
//  #06 //031   ----------------------------------------
 BYTE   W96
//  #06 //032   ----------------------------------------
 BYTE   W96
//  #06 //033   ----------------------------------------
 BYTE   W96
//  #06 //034   ----------------------------------------
 BYTE   W96
//  #06 //035   ----------------------------------------
 BYTE   W96
//  #06 //036   ----------------------------------------
 BYTE   W96
//  #06 //037   ----------------------------------------
 BYTE   W96
//  #06 //038   ----------------------------------------
 BYTE   W96
//  #06 //039   ----------------------------------------
 BYTE   W96
//  #06 //040   ----------------------------------------
 BYTE   W96
//  #06 //041   ----------------------------------------
 BYTE   W96
//  #06 //042   ----------------------------------------
 BYTE   W96
//  #06 //043   ----------------------------------------
 BYTE   W96
//  #06 //044   ----------------------------------------
 BYTE   W96
//  #06 //045   ----------------------------------------
 BYTE   W96
//  #06 //046   ----------------------------------------
 BYTE   W96
//  #06 //047   ----------------------------------------
 BYTE   W96
//  #06 //048   ----------------------------------------
 BYTE   W96
//  #06 //049   ----------------------------------------
 BYTE   W96
//  #06 //050   ----------------------------------------
 BYTE   W96
//  #06 //051   ----------------------------------------
 BYTE   W96
//  #06 //052   ----------------------------------------
 BYTE   W96
//  #06 //053   ----------------------------------------
 BYTE   W96
//  #06 //054   ----------------------------------------
 BYTE   W96
//  #06 //055   ----------------------------------------
 BYTE   W96
//  #06 //056   ----------------------------------------
 BYTE   W96
//  #06 //057   ----------------------------------------
 BYTE   W96
//  #06 //058   ----------------------------------------
 BYTE   W96
//  #06 //059   ----------------------------------------
 BYTE   W96
//  #06 //060   ----------------------------------------
 BYTE   W96
//  #06 //061   ----------------------------------------
 BYTE   W96
//  #06 //062   ----------------------------------------
 BYTE   W96
//  #06 //063   ----------------------------------------
 BYTE   W96
//  #06 //064   ----------------------------------------
 BYTE   W96
//  #06 //065   ----------------------------------------
 BYTE   W96
//  #06 //066   ----------------------------------------
 BYTE   W96
//  #06 //067   ----------------------------------------
 BYTE   W96
//  #06 //068   ----------------------------------------
 BYTE   W96
//  #06 //069   ----------------------------------------
 BYTE   W96
//  #06 //070   ----------------------------------------
 BYTE   W96
//  #06 //071   ----------------------------------------
 BYTE   W96
//  #06 //072   ----------------------------------------
 BYTE   W96
//  #06 //073   ----------------------------------------
 BYTE   W96
//  #06 //074   ----------------------------------------
 BYTE   W96
//  #06 //075   ----------------------------------------
 BYTE   W96
//  #06 //076   ----------------------------------------
 BYTE   W96
//  #06 //077   ----------------------------------------
 BYTE   W96
//  #06 //078   ----------------------------------------
 BYTE   W96
//  #06 //079   ----------------------------------------
 BYTE   W96
//  #06 //080   ----------------------------------------
 BYTE   W96
//  #06 //081   ----------------------------------------
 BYTE   W96
//  #06 //082   ----------------------------------------
 BYTE   W96
//  #06 //083   ----------------------------------------
 BYTE   W96
//  #06 //084   ----------------------------------------
 BYTE   W96
//  #06 //085   ----------------------------------------
 BYTE   W96
//  #06 //086   ----------------------------------------
 BYTE   W96
//  #06 //087   ----------------------------------------
 BYTE   W96
//  #06 //088   ----------------------------------------
 BYTE   W96
//  #06 //089   ----------------------------------------
 BYTE   W96
//  #06 //090   ----------------------------------------
 BYTE   W96
//  #06 //091   ----------------------------------------
 BYTE   W96
//  #06 //092   ----------------------------------------
 BYTE   GoTo
  POIN2 Label_01932F0A
//  #06 //093   ----------------------------------------
 BYTE   VOICE   1
 BYTE   PAN   c_v+0
 BYTE   FINE

//**************** Track 7 (Midi-Chn.6) ****************//

FE16IndomitableWillAzula_007:
//  #07 //000   ----------------------------------------
 BYTE   KEYSH   FE16IndomitableWillAzula_key+0
Label_01BCBD96:
 BYTE   VOICE   40
 BYTE   MODT 0
 BYTE   LFOS 44
 BYTE   PAN   c_v-1
 BYTE   VOL   59*FE16IndomitableWillAzula_mvl/mxv
 BYTE   W96
//  #07 //001   ----------------------------------------
 BYTE   W96
//  #07 //002   ----------------------------------------
 BYTE   W96
//  #07 //003   ----------------------------------------
 BYTE   W96
//  #07 //004   ----------------------------------------
 BYTE   W96
//  #07 //005   ----------------------------------------
 BYTE   W96
//  #07 //006   ----------------------------------------
 BYTE   W96
//  #07 //007   ----------------------------------------
 BYTE   W96
//  #07 //008   ----------------------------------------
 BYTE   W96
//  #07 //009   ----------------------------------------
 BYTE   W96
//  #07 //010   ----------------------------------------
 BYTE   W96
//  #07 //011   ----------------------------------------
 BYTE   W96
//  #07 //012   ----------------------------------------
 BYTE   W96
//  #07 //013   ----------------------------------------
 BYTE   W96
//  #07 //014   ----------------------------------------
 BYTE   W96
//  #07 //015   ----------------------------------------
 BYTE   W96
//  #07 //016   ----------------------------------------
 BYTE   W96
//  #07 //017   ----------------------------------------
 BYTE   W96
//  #07 //018   ----------------------------------------
 BYTE   TIE  Cs3  v032
 BYTE   W96
//  #07 //019   ----------------------------------------
 BYTE   W92
 BYTE   W03
 BYTE   EOT
 BYTE   W01
//  #07 //020   ----------------------------------------
 BYTE   N68  Gs3  v044
 BYTE   W72
 BYTE   N23  Fs3
 BYTE   W24
//  #07 //021   ----------------------------------------
 BYTE   Cn3
 BYTE   W24
 BYTE   Cs3
 BYTE   W24
 BYTE   N68  Fs3
 BYTE   W48
//  #07 //022   ----------------------------------------
Label_01BCBDC8:
 BYTE   W24
 BYTE   N23  Fn3  v044
 BYTE   W24
 BYTE   Ds3
 BYTE   W24
 BYTE   Cs3
 BYTE   W24
 BYTE   PEND 
//  #07 //023   ----------------------------------------
Label_01BCBDD2:
 BYTE   N23  Cn3  v044
 BYTE   W48
 BYTE   N44  Cs4
 BYTE   W48
 BYTE   PEND 
//  #07 //024   ----------------------------------------
 BYTE   N68  Cn4
 BYTE   W72
 BYTE   N23  As3
 BYTE   W24
//  #07 //025   ----------------------------------------
 BYTE   TIE  Fn3
 BYTE   W96
//  #07 //026   ----------------------------------------
 BYTE   W92
 BYTE   W03
 BYTE   EOT
 BYTE   W01
//  #07 //027   ----------------------------------------
 BYTE   W96
//  #07 //028   ----------------------------------------
 BYTE   N68  Ds3
 BYTE   W72
 BYTE   N23  Cs3
 BYTE   W24
//  #07 //029   ----------------------------------------
 BYTE   Cn3
 BYTE   W24
 BYTE   As2
 BYTE   W24
 BYTE   N68  Fs3
 BYTE   W48
//  #07 //030   ----------------------------------------
 BYTE   PATT
  POIN2 Label_01BCBDC8
//  #07 //031   ----------------------------------------
 BYTE   PATT
  POIN2 Label_01BCBDD2
//  #07 //032   ----------------------------------------
 BYTE   N92  Cn3  v044
 BYTE   N92  Cn4
 BYTE   W96
//  #07 //033   ----------------------------------------
 BYTE   As2
 BYTE   N92  As3
 BYTE   W96
//  #07 //034   ----------------------------------------
 BYTE   Cn3
 BYTE   N92  Cn4
 BYTE   W96
//  #07 //035   ----------------------------------------
 BYTE   Cs3
 BYTE   N92  Cs4
 BYTE   W96
//  #07 //036   ----------------------------------------
 BYTE   W96
//  #07 //037   ----------------------------------------
 BYTE   W96
//  #07 //038   ----------------------------------------
 BYTE   W96
//  #07 //039   ----------------------------------------
 BYTE   W96
//  #07 //040   ----------------------------------------
 BYTE   W96
//  #07 //041   ----------------------------------------
 BYTE   W96
//  #07 //042   ----------------------------------------
 BYTE   W96
//  #07 //043   ----------------------------------------
 BYTE   W96
//  #07 //044   ----------------------------------------
 BYTE   Cs2
 BYTE   N92  Cs3
 BYTE   W96
//  #07 //045   ----------------------------------------
 BYTE   Fn2
 BYTE   N92  Fn3
 BYTE   W96
//  #07 //046   ----------------------------------------
 BYTE   Ds2
 BYTE   N92  Ds3
 BYTE   W96
//  #07 //047   ----------------------------------------
 BYTE   Cs3
 BYTE   N92  Cs4
 BYTE   W96
//  #07 //048   ----------------------------------------
 BYTE   N23  Cn3
 BYTE   N23  Cn4
 BYTE   W24
 BYTE   TIE  As2
 BYTE   TIE  As3
 BYTE   W72
//  #07 //049   ----------------------------------------
 BYTE   W96
//  #07 //050   ----------------------------------------
 BYTE   W96
//  #07 //051   ----------------------------------------
 BYTE   W92
 BYTE   W03
 BYTE   EOT
 BYTE   As2  v070
 BYTE   W01
//  #07 //052   ----------------------------------------
Label_01BCBE3B:
 BYTE   N07  Cn3  v044
 BYTE   W24
 BYTE   N07
 BYTE   W24
 BYTE   N07
 BYTE   W24
 BYTE   N07
 BYTE   W08
 BYTE   As2
 BYTE   W08
 BYTE   Cn3
 BYTE   W08
 BYTE   PEND 
//  #07 //053   ----------------------------------------
Label_01BCBE4A:
 BYTE   N07  Cs3  v044
 BYTE   W24
 BYTE   N07
 BYTE   W24
 BYTE   N07
 BYTE   W24
 BYTE   N07
 BYTE   W08
 BYTE   Cn3
 BYTE   W08
 BYTE   Cs3
 BYTE   W08
 BYTE   PEND 
//  #07 //054   ----------------------------------------
Label_01BCBE59:
 BYTE   N07  Ds3  v044
 BYTE   W24
 BYTE   N07
 BYTE   W24
 BYTE   N07
 BYTE   W24
 BYTE   N07
 BYTE   W08
 BYTE   Cs3
 BYTE   W08
 BYTE   Ds3
 BYTE   W08
 BYTE   PEND 
//  #07 //055   ----------------------------------------
 BYTE   Fn3
 BYTE   W24
 BYTE   N07
 BYTE   W24
 BYTE   N07
 BYTE   W24
 BYTE   N07
 BYTE   W08
 BYTE   Ds3
 BYTE   W08
 BYTE   Cs3
 BYTE   W08
//  #07 //056   ----------------------------------------
 BYTE   PATT
  POIN2 Label_01BCBE3B
//  #07 //057   ----------------------------------------
 BYTE   PATT
  POIN2 Label_01BCBE4A
//  #07 //058   ----------------------------------------
 BYTE   PATT
  POIN2 Label_01BCBE59
//  #07 //059   ----------------------------------------
 BYTE   N07  Fn3  v044
 BYTE   W24
 BYTE   N07
 BYTE   W24
 BYTE   N44  Cs2  v060
 BYTE   N07  Fn3  v044
 BYTE   W24
 BYTE   N07
 BYTE   W08
 BYTE   Ds3
 BYTE   W08
 BYTE   Cs3
 BYTE   W08
//  #07 //060   ----------------------------------------
 BYTE   N68  Gs2  v060
 BYTE   N07  Cn3  v044
 BYTE   W24
 BYTE   N07
 BYTE   W24
 BYTE   N07
 BYTE   W24
 BYTE   N23  Fs2  v060
 BYTE   N07  Cn3  v044
 BYTE   W08
 BYTE   As2
 BYTE   W08
 BYTE   Cn3
 BYTE   W08
//  #07 //061   ----------------------------------------
 BYTE   N68  Fn2  v060
 BYTE   N07  Cs3  v044
 BYTE   W24
 BYTE   N07
 BYTE   W24
 BYTE   N07
 BYTE   W24
 BYTE   N23  Fs2  v060
 BYTE   N07  Cs3  v044
 BYTE   W08
 BYTE   Cn3
 BYTE   W08
 BYTE   Cs3
 BYTE   W08
//  #07 //062   ----------------------------------------
 BYTE   N23  Fn2  v060
 BYTE   N07  Ds3  v044
 BYTE   W24
 BYTE   N44  Ds2  v060
 BYTE   N07  Ds3  v044
 BYTE   W24
 BYTE   N07
 BYTE   W24
 BYTE   N23  Fn2  v060
 BYTE   N07  Ds3  v044
 BYTE   W08
 BYTE   Cs3
 BYTE   W08
 BYTE   Ds3
 BYTE   W08
//  #07 //063   ----------------------------------------
 BYTE   N23  Fs2  v060
 BYTE   N07  Fn3  v044
 BYTE   W24
 BYTE   N23  Fn2  v060
 BYTE   N07  Fn3  v044
 BYTE   W24
 BYTE   N23  Ds2  v060
 BYTE   N07  Fn3  v044
 BYTE   W24
 BYTE   N23  Cs2  v060
 BYTE   N07  Fn3  v044
 BYTE   W08
 BYTE   Ds3
 BYTE   W08
 BYTE   Cs3
 BYTE   W08
//  #07 //064   ----------------------------------------
 BYTE   N23  Ds2  v060
 BYTE   N07  Cn3  v044
 BYTE   W24
 BYTE   TIE  Fn2  v060
 BYTE   N07  Cn3  v044
 BYTE   W24
 BYTE   N07
 BYTE   W24
 BYTE   N07
 BYTE   W08
 BYTE   As2
 BYTE   W08
 BYTE   Cn3
 BYTE   W08
//  #07 //065   ----------------------------------------
 BYTE   Cs3
 BYTE   W24
 BYTE   N07
 BYTE   W23
 BYTE   EOT
 BYTE   Fn2
 BYTE   W01
 BYTE   N44  Cn2  v060
 BYTE   N07  Cs3  v044
 BYTE   W24
 BYTE   N07
 BYTE   W08
 BYTE   Cn3
 BYTE   W08
 BYTE   Cs3
 BYTE   W08
//  #07 //066   ----------------------------------------
 BYTE   N23  Cn2  v060
 BYTE   N07  Ds3  v044
 BYTE   W24
 BYTE   TIE  Cs2  v060
 BYTE   N07  Ds3  v044
 BYTE   W24
 BYTE   N07
 BYTE   W24
 BYTE   N07
 BYTE   W08
 BYTE   Cs3
 BYTE   W08
 BYTE   Ds3
 BYTE   W08
//  #07 //067   ----------------------------------------
 BYTE   Fn3
 BYTE   W24
 BYTE   N07
 BYTE   W23
 BYTE   EOT
 BYTE   Cs2
 BYTE   W01
 BYTE   N23  Ds2  v060
 BYTE   N07  Fn3  v044
 BYTE   W24
 BYTE   N23  Fn2  v060
 BYTE   N07  Fn3  v044
 BYTE   W08
 BYTE   Ds3
 BYTE   W08
 BYTE   Cs3
 BYTE   W08
//  #07 //068   ----------------------------------------
 BYTE   TIE  Fs2  v060
 BYTE   N07  Ds3  v044
 BYTE   W24
 BYTE   N07
 BYTE   W24
 BYTE   N07
 BYTE   W24
 BYTE   N07
 BYTE   W08
 BYTE   Cs3
 BYTE   W08
 BYTE   Ds3
 BYTE   W08
//  #07 //069   ----------------------------------------
 BYTE   Fn3
 BYTE   W23
 BYTE   EOT
 BYTE   Fs2
 BYTE   W01
 BYTE   N23  Fn2  v060
 BYTE   N07  Fn3  v044
 BYTE   W24
 BYTE   N23  Ds2  v060
 BYTE   N07  Fn3  v044
 BYTE   W24
 BYTE   N23  Cs2  v060
 BYTE   N07  Fn3  v044
 BYTE   W08
 BYTE   Ds3
 BYTE   W08
 BYTE   Fn3
 BYTE   W08
//  #07 //070   ----------------------------------------
 BYTE   TIE  Ds2  v060
 BYTE   N07  Fs3  v044
 BYTE   W24
 BYTE   N07
 BYTE   W24
 BYTE   N07
 BYTE   W24
 BYTE   N07
 BYTE   W08
 BYTE   Fn3
 BYTE   W08
 BYTE   Fs3
 BYTE   W08
//  #07 //071   ----------------------------------------
 BYTE   Gs3
 BYTE   W23
 BYTE   EOT
 BYTE   Ds2
 BYTE   W01
 BYTE   N23  Fn2  v060
 BYTE   N07  Gs3  v044
 BYTE   W24
 BYTE   N23  Fs2  v060
 BYTE   N07  Gs3  v044
 BYTE   W24
 BYTE   N23  Gs2  v060
 BYTE   N07  Gs3  v044
 BYTE   W24
//  #07 //072   ----------------------------------------
 BYTE   N92  Fn2  v060
 BYTE   N07  Fn3  v044
 BYTE   W24
 BYTE   N07
 BYTE   W24
 BYTE   N07
 BYTE   W24
 BYTE   N07
 BYTE   W24
//  #07 //073   ----------------------------------------
 BYTE   N92  Ds2  v060
 BYTE   N07  Fn3  v044
 BYTE   W24
 BYTE   N07
 BYTE   W24
 BYTE   N07
 BYTE   W24
 BYTE   N07
 BYTE   W24
//  #07 //074   ----------------------------------------
 BYTE   N92  Cn2  v060
 BYTE   N07  Fn3  v044
 BYTE   W24
 BYTE   N07
 BYTE   W24
 BYTE   N07
 BYTE   W24
 BYTE   N07
 BYTE   W24
//  #07 //075   ----------------------------------------
 BYTE   N23  Cn2  v060
 BYTE   N23  Cn3  v044
 BYTE   W24
 BYTE   Cs2  v060
 BYTE   N23  Cs3  v052
 BYTE   W24
 BYTE   Fn2  v060
 BYTE   N23  Fn3
 BYTE   W24
 BYTE   Gs2
 BYTE   N23  Gs3  v072
 BYTE   W24
//  #07 //076   ----------------------------------------
Label_01BCBFEE:
 BYTE   N68  Cn3  v060
 BYTE   N68  Cn4  v080
 BYTE   W72
 BYTE   N23  Cs3  v060
 BYTE   N23  Cs4  v080
 BYTE   W24
 BYTE   PEND 
//  #07 //077   ----------------------------------------
Label_01BCBFFD:
 BYTE   TIE  As2  v060
 BYTE   TIE  As3  v080
 BYTE   W96
 BYTE   PEND 
//  #07 //078   ----------------------------------------
 BYTE   W44
 BYTE   W03
 BYTE   EOT
 BYTE   As2  v070
 BYTE   W01
 BYTE   N23  Fn2  v060
 BYTE   N23  Fn3  v080
 BYTE   W24
 BYTE   Fn3  v060
 BYTE   N23  Fn4  v080
 BYTE   W24
//  #07 //079   ----------------------------------------
Label_01BCC018:
 BYTE   N11  Ds3  v060
 BYTE   N11  Ds4  v080
 BYTE   W12
 BYTE   Cs3  v060
 BYTE   N11  Cs4  v080
 BYTE   W12
 BYTE   N44  Cn3  v060
 BYTE   N44  Cn4  v080
 BYTE   W48
 BYTE   N23  Gs2  v060
 BYTE   N23  Gs3  v080
 BYTE   W24
 BYTE   PEND 
//  #07 //080   ----------------------------------------
 BYTE   N32  Cn3  v060
 BYTE   N32  Cn4  v080
 BYTE   W36
 BYTE   Cs3  v060
 BYTE   N32  Cs4  v080
 BYTE   W36
 BYTE   TIE  As2  v060
 BYTE   TIE  As3  v080
 BYTE   W24
//  #07 //081   ----------------------------------------
 BYTE   W96
//  #07 //082   ----------------------------------------
 BYTE   W92
 BYTE   W03
 BYTE   EOT
 BYTE   As2  v070
 BYTE   W01
//  #07 //083   ----------------------------------------
 BYTE   N23  Cn2  v060
 BYTE   N23  Cn3  v080
 BYTE   W24
 BYTE   Cs2  v060
 BYTE   N23  Cs3  v080
 BYTE   W24
 BYTE   Fn2  v060
 BYTE   N23  Fn3  v080
 BYTE   W24
 BYTE   Gs2  v060
 BYTE   N23  Gs3  v080
 BYTE   W24
//  #07 //084   ----------------------------------------
 BYTE   PATT
  POIN2 Label_01BCBFEE
//  #07 //085   ----------------------------------------
 BYTE   PATT
  POIN2 Label_01BCBFFD
//  #07 //086   ----------------------------------------
 BYTE   W44
 BYTE   W03
 BYTE   EOT
 BYTE   As2  v070
 BYTE   W01
 BYTE   N23  Fn2  v060
 BYTE   N23  Fn3  v080
 BYTE   W24
 BYTE   Fn3  v060
 BYTE   N23  Fn4  v080
 BYTE   W24
//  #07 //087   ----------------------------------------
 BYTE   PATT
  POIN2 Label_01BCC018
//  #07 //088   ----------------------------------------
 BYTE   N32  Cn3  v060
 BYTE   N32  Cn4  v080
 BYTE   W36
 BYTE   Cs3  v060
 BYTE   N32  Cs4  v080
 BYTE   W36
 BYTE   N23  Gs3  v060
 BYTE   TIE  Gs4  v080
 BYTE   W24
//  #07 //089   ----------------------------------------
Label_01BCC09E:
 BYTE   N07  Gs3  v060
 BYTE   W24
 BYTE   N07
 BYTE   W24
 BYTE   N07
 BYTE   W24
 BYTE   N07
 BYTE   W24
 BYTE   PEND 
//  #07 //090   ----------------------------------------
 BYTE   PATT
  POIN2 Label_01BCC09E
//  #07 //091   ----------------------------------------
 BYTE   N07  Gs3  v060
 BYTE   W24
 BYTE   N07
 BYTE   W24
 BYTE   N07
 BYTE   W24
 BYTE   N07
 BYTE   W23
 BYTE   EOT
 BYTE   Gs4
 BYTE   W01
//  #07 //092   ----------------------------------------
 BYTE   GoTo
  POIN2 Label_01BCBD96
 BYTE   FINE

//**************** Track 8 (Midi-Chn.7) ****************//

FE16IndomitableWillAzula_008:
//  #08 //000   ----------------------------------------
 BYTE   KEYSH   FE16IndomitableWillAzula_key+0
Label_01BCCBF6:
 BYTE   VOICE   34
 BYTE   MODT 0
 BYTE   LFOS 44
 BYTE   VOL   59*FE16IndomitableWillAzula_mvl/mxv
 BYTE   PAN   c_v+0
 BYTE   N32  As2  v080
 BYTE   W96
//  #08 //001   ----------------------------------------
 BYTE   W72
 BYTE   N32
 BYTE   W24
//  #08 //002   ----------------------------------------
 BYTE   W24
 BYTE   N32
 BYTE   W72
//  #08 //003   ----------------------------------------
 BYTE   W72
 BYTE   N32
 BYTE   W24
//  #08 //004   ----------------------------------------
 BYTE   Fs2
 BYTE   W96
//  #08 //005   ----------------------------------------
 BYTE   W72
 BYTE   Ds2
 BYTE   W24
//  #08 //006   ----------------------------------------
 BYTE   W24
 BYTE   N32
 BYTE   W72
//  #08 //007   ----------------------------------------
Label_01BCCC15:
 BYTE   N32  Fn2  v080
 BYTE   W48
 BYTE   An2
 BYTE   W48
 BYTE   PEND 
//  #08 //008   ----------------------------------------
 BYTE   As2
 BYTE   W96
//  #08 //009   ----------------------------------------
 BYTE   W72
 BYTE   N32
 BYTE   W24
//  #08 //010   ----------------------------------------
 BYTE   W24
 BYTE   N32
 BYTE   W72
//  #08 //011   ----------------------------------------
 BYTE   W72
 BYTE   N32
 BYTE   W24
//  #08 //012   ----------------------------------------
 BYTE   Fs2
 BYTE   W96
//  #08 //013   ----------------------------------------
 BYTE   W72
 BYTE   Ds2
 BYTE   W24
//  #08 //014   ----------------------------------------
 BYTE   W24
 BYTE   N32
 BYTE   W72
//  #08 //015   ----------------------------------------
 BYTE   PATT
  POIN2 Label_01BCCC15
//  #08 //016   ----------------------------------------
 BYTE   W96
//  #08 //017   ----------------------------------------
 BYTE   W96
//  #08 //018   ----------------------------------------
 BYTE   W96
//  #08 //019   ----------------------------------------
 BYTE   W96
//  #08 //020   ----------------------------------------
Label_01BCCC38:
 BYTE   W48
 BYTE   N16  Fs2  v056
 BYTE   W24
 BYTE   N16
 BYTE   W24
 BYTE   PEND 
//  #08 //021   ----------------------------------------
Label_01BCCC40:
 BYTE   N16  Fs2  v056
 BYTE   W24
 BYTE   N16
 BYTE   W24
 BYTE   N16
 BYTE   W24
 BYTE   An2
 BYTE   W24
 BYTE   PEND 
//  #08 //022   ----------------------------------------
Label_01BCCC4B:
 BYTE   N16  An2  v056
 BYTE   W24
 BYTE   N16
 BYTE   W24
 BYTE   N16
 BYTE   W24
 BYTE   N16
 BYTE   W24
 BYTE   PEND 
//  #08 //023   ----------------------------------------
 BYTE   PATT
  POIN2 Label_01BCCC4B
//  #08 //024   ----------------------------------------
Label_01BCCC5B:
 BYTE   W48
 BYTE   N16  As2  v056
 BYTE   W24
 BYTE   N16
 BYTE   W24
 BYTE   PEND 
//  #08 //025   ----------------------------------------
Label_01BCCC63:
 BYTE   N16  As2  v056
 BYTE   W24
 BYTE   N16
 BYTE   W24
 BYTE   N16
 BYTE   W24
 BYTE   Gn2
 BYTE   W24
 BYTE   PEND 
//  #08 //026   ----------------------------------------
Label_01BCCC6E:
 BYTE   N16  Gn2  v056
 BYTE   W24
 BYTE   N16
 BYTE   W24
 BYTE   N16
 BYTE   W24
 BYTE   N16
 BYTE   W24
 BYTE   PEND 
//  #08 //027   ----------------------------------------
 BYTE   PATT
  POIN2 Label_01BCCC6E
//  #08 //028   ----------------------------------------
 BYTE   PATT
  POIN2 Label_01BCCC38
//  #08 //029   ----------------------------------------
 BYTE   PATT
  POIN2 Label_01BCCC40
//  #08 //030   ----------------------------------------
 BYTE   PATT
  POIN2 Label_01BCCC4B
//  #08 //031   ----------------------------------------
 BYTE   PATT
  POIN2 Label_01BCCC4B
//  #08 //032   ----------------------------------------
Label_01BCCC92:
 BYTE   N16  As2  v056
 BYTE   W24
 BYTE   N16
 BYTE   W24
 BYTE   N16
 BYTE   W24
 BYTE   N16
 BYTE   W24
 BYTE   PEND 
//  #08 //033   ----------------------------------------
 BYTE   PATT
  POIN2 Label_01BCCC92
//  #08 //034   ----------------------------------------
 BYTE   PATT
  POIN2 Label_01BCCC92
//  #08 //035   ----------------------------------------
 BYTE   PATT
  POIN2 Label_01BCCC92
//  #08 //036   ----------------------------------------
 BYTE   PATT
  POIN2 Label_01BCCC38
//  #08 //037   ----------------------------------------
 BYTE   PATT
  POIN2 Label_01BCCC40
//  #08 //038   ----------------------------------------
 BYTE   PATT
  POIN2 Label_01BCCC4B
//  #08 //039   ----------------------------------------
 BYTE   PATT
  POIN2 Label_01BCCC4B
//  #08 //040   ----------------------------------------
 BYTE   PATT
  POIN2 Label_01BCCC5B
//  #08 //041   ----------------------------------------
 BYTE   PATT
  POIN2 Label_01BCCC63
//  #08 //042   ----------------------------------------
 BYTE   PATT
  POIN2 Label_01BCCC6E
//  #08 //043   ----------------------------------------
 BYTE   PATT
  POIN2 Label_01BCCC6E
//  #08 //044   ----------------------------------------
Label_01BCCCD4:
 BYTE   W48
 BYTE   N16  Ds2  v056
 BYTE   W24
 BYTE   N16
 BYTE   W24
 BYTE   PEND 
//  #08 //045   ----------------------------------------
 BYTE   N16
 BYTE   W24
 BYTE   N16
 BYTE   W24
 BYTE   N16
 BYTE   W24
 BYTE   Fn2
 BYTE   W24
//  #08 //046   ----------------------------------------
Label_01BCCCE4:
 BYTE   N16  Fn2  v056
 BYTE   W24
 BYTE   N16
 BYTE   W24
 BYTE   N16
 BYTE   W24
 BYTE   N16
 BYTE   W24
 BYTE   PEND 
//  #08 //047   ----------------------------------------
 BYTE   PATT
  POIN2 Label_01BCCC4B
//  #08 //048   ----------------------------------------
 BYTE   PATT
  POIN2 Label_01BCCC92
//  #08 //049   ----------------------------------------
 BYTE   PATT
  POIN2 Label_01BCCC92
//  #08 //050   ----------------------------------------
 BYTE   PATT
  POIN2 Label_01BCCC92
//  #08 //051   ----------------------------------------
 BYTE   PATT
  POIN2 Label_01BCCC92
//  #08 //052   ----------------------------------------
Label_01BCCD08:
 BYTE   N16  Fs2  v056
 BYTE   W24
 BYTE   N16
 BYTE   W24
 BYTE   N16
 BYTE   W24
 BYTE   N16
 BYTE   W24
 BYTE   PEND 
//  #08 //053   ----------------------------------------
 BYTE   PATT
  POIN2 Label_01BCCD08
//  #08 //054   ----------------------------------------
 BYTE   PATT
  POIN2 Label_01BCCD08
//  #08 //055   ----------------------------------------
 BYTE   PATT
  POIN2 Label_01BCCD08
//  #08 //056   ----------------------------------------
 BYTE   PATT
  POIN2 Label_01BCCC92
//  #08 //057   ----------------------------------------
 BYTE   PATT
  POIN2 Label_01BCCC92
//  #08 //058   ----------------------------------------
 BYTE   PATT
  POIN2 Label_01BCCC92
//  #08 //059   ----------------------------------------
 BYTE   PATT
  POIN2 Label_01BCCC92
//  #08 //060   ----------------------------------------
Label_01BCCD36:
 BYTE   N16  Ds2  v056
 BYTE   W24
 BYTE   N16
 BYTE   W24
 BYTE   N16
 BYTE   W24
 BYTE   N16
 BYTE   W24
 BYTE   PEND 
//  #08 //061   ----------------------------------------
 BYTE   PATT
  POIN2 Label_01BCCD36
//  #08 //062   ----------------------------------------
 BYTE   PATT
  POIN2 Label_01BCCCE4
//  #08 //063   ----------------------------------------
 BYTE   PATT
  POIN2 Label_01BCCC4B
//  #08 //064   ----------------------------------------
 BYTE   PATT
  POIN2 Label_01BCCC92
//  #08 //065   ----------------------------------------
 BYTE   PATT
  POIN2 Label_01BCCC92
//  #08 //066   ----------------------------------------
 BYTE   PATT
  POIN2 Label_01BCCC92
//  #08 //067   ----------------------------------------
 BYTE   PATT
  POIN2 Label_01BCCC92
//  #08 //068   ----------------------------------------
Label_01BCCD64:
 BYTE   N16  Bn2  v056
 BYTE   W24
 BYTE   N16
 BYTE   W24
 BYTE   N16
 BYTE   W24
 BYTE   N16
 BYTE   W24
 BYTE   PEND 
//  #08 //069   ----------------------------------------
 BYTE   PATT
  POIN2 Label_01BCCD64
//  #08 //070   ----------------------------------------
 BYTE   PATT
  POIN2 Label_01BCCD64
//  #08 //071   ----------------------------------------
 BYTE   PATT
  POIN2 Label_01BCCD64
//  #08 //072   ----------------------------------------
Label_01BCCD7E:
 BYTE   N16  Cn3  v056
 BYTE   W24
 BYTE   N16
 BYTE   W24
 BYTE   N16
 BYTE   W24
 BYTE   N16
 BYTE   W24
 BYTE   PEND 
//  #08 //073   ----------------------------------------
 BYTE   PATT
  POIN2 Label_01BCCD7E
//  #08 //074   ----------------------------------------
 BYTE   PATT
  POIN2 Label_01BCCCE4
//  #08 //075   ----------------------------------------
 BYTE   PATT
  POIN2 Label_01BCCCE4
//  #08 //076   ----------------------------------------
 BYTE   PATT
  POIN2 Label_01BCCC38
//  #08 //077   ----------------------------------------
Label_01BCCD9D:
 BYTE   N16  Gs2  v056
 BYTE   W24
 BYTE   N16
 BYTE   W24
 BYTE   N16
 BYTE   W24
 BYTE   As2
 BYTE   W24
 BYTE   PEND 
//  #08 //078   ----------------------------------------
 BYTE   PATT
  POIN2 Label_01BCCC92
//  #08 //079   ----------------------------------------
 BYTE   PATT
  POIN2 Label_01BCCC92
//  #08 //080   ----------------------------------------
 BYTE   PATT
  POIN2 Label_01BCCCD4
//  #08 //081   ----------------------------------------
Label_01BCCDB7:
 BYTE   N16  Fn2  v056
 BYTE   W24
 BYTE   N16
 BYTE   W24
 BYTE   N16
 BYTE   W24
 BYTE   As2
 BYTE   W24
 BYTE   PEND 
//  #08 //082   ----------------------------------------
 BYTE   PATT
  POIN2 Label_01BCCC92
//  #08 //083   ----------------------------------------
 BYTE   PATT
  POIN2 Label_01BCCC92
//  #08 //084   ----------------------------------------
 BYTE   PATT
  POIN2 Label_01BCCC38
//  #08 //085   ----------------------------------------
 BYTE   PATT
  POIN2 Label_01BCCD9D
//  #08 //086   ----------------------------------------
 BYTE   PATT
  POIN2 Label_01BCCC92
//  #08 //087   ----------------------------------------
 BYTE   PATT
  POIN2 Label_01BCCC92
//  #08 //088   ----------------------------------------
 BYTE   PATT
  POIN2 Label_01BCCCD4
//  #08 //089   ----------------------------------------
 BYTE   PATT
  POIN2 Label_01BCCDB7
//  #08 //090   ----------------------------------------
 BYTE   PATT
  POIN2 Label_01BCCC92
//  #08 //091   ----------------------------------------
 BYTE   PATT
  POIN2 Label_01BCCC92
//  #08 //092   ----------------------------------------
 BYTE   GoTo
  POIN2 Label_01BCCBF6
//  #08 //093   ----------------------------------------
 BYTE   VOICE   34
 BYTE   PAN   c_v+0
 BYTE   FINE

//**************** Track 9 (Midi-Chn.8) ****************//

FE16IndomitableWillAzula_009:
//  #09 //000   ----------------------------------------
 BYTE   KEYSH   FE16IndomitableWillAzula_key+0
Label_01BCC9EA:
 BYTE   VOICE   47
 BYTE   MODT 0
 BYTE   LFOS 44
 BYTE   VOL   80*FE16IndomitableWillAzula_mvl/mxv
 BYTE   PAN   c_v+0
 BYTE   N32  As2  v080
 BYTE   W96
//  #09 //001   ----------------------------------------
 BYTE   W72
 BYTE   N32
 BYTE   W24
//  #09 //002   ----------------------------------------
 BYTE   W24
 BYTE   N32
 BYTE   W72
//  #09 //003   ----------------------------------------
 BYTE   W72
 BYTE   N32
 BYTE   W24
//  #09 //004   ----------------------------------------
 BYTE   Fs2
 BYTE   W96
//  #09 //005   ----------------------------------------
 BYTE   W72
 BYTE   Ds2
 BYTE   W24
//  #09 //006   ----------------------------------------
 BYTE   W24
 BYTE   N32
 BYTE   W72
//  #09 //007   ----------------------------------------
Label_01BCCA09:
 BYTE   N32  Fn2  v080
 BYTE   W48
 BYTE   An2
 BYTE   W48
 BYTE   PEND 
//  #09 //008   ----------------------------------------
 BYTE   PAN   c_v+0
 BYTE   N32  As2
 BYTE   W96
//  #09 //009   ----------------------------------------
 BYTE   W72
 BYTE   N32
 BYTE   W24
//  #09 //010   ----------------------------------------
 BYTE   W24
 BYTE   N32
 BYTE   W72
//  #09 //011   ----------------------------------------
 BYTE   W72
 BYTE   N32
 BYTE   W24
//  #09 //012   ----------------------------------------
 BYTE   Fs2
 BYTE   W96
//  #09 //013   ----------------------------------------
 BYTE   W72
 BYTE   Ds2
 BYTE   W24
//  #09 //014   ----------------------------------------
 BYTE   W24
 BYTE   N32
 BYTE   W72
//  #09 //015   ----------------------------------------
 BYTE   PATT
  POIN2 Label_01BCCA09
//  #09 //016   ----------------------------------------
 BYTE   W96
//  #09 //017   ----------------------------------------
 BYTE   W96
//  #09 //018   ----------------------------------------
 BYTE   W96
//  #09 //019   ----------------------------------------
 BYTE   W96
//  #09 //020   ----------------------------------------
Label_01BCCA2F:
 BYTE   W48
 BYTE   N16  Fs2  v056
 BYTE   W24
 BYTE   N16
 BYTE   W24
 BYTE   PEND 
//  #09 //021   ----------------------------------------
Label_01BCCA37:
 BYTE   N16  Fs2  v056
 BYTE   W24
 BYTE   N16
 BYTE   W24
 BYTE   N16
 BYTE   W24
 BYTE   An2
 BYTE   W24
 BYTE   PEND 
//  #09 //022   ----------------------------------------
Label_01BCCA42:
 BYTE   N16  An2  v056
 BYTE   W24
 BYTE   N16
 BYTE   W24
 BYTE   N16
 BYTE   W24
 BYTE   N16
 BYTE   W24
 BYTE   PEND 
//  #09 //023   ----------------------------------------
 BYTE   PATT
  POIN2 Label_01BCCA42
//  #09 //024   ----------------------------------------
Label_01BCCA52:
 BYTE   W48
 BYTE   N16  As2  v056
 BYTE   W24
 BYTE   N16
 BYTE   W24
 BYTE   PEND 
//  #09 //025   ----------------------------------------
Label_01BCCA5A:
 BYTE   N16  As2  v056
 BYTE   W24
 BYTE   N16
 BYTE   W24
 BYTE   N16
 BYTE   W24
 BYTE   Gn2
 BYTE   W24
 BYTE   PEND 
//  #09 //026   ----------------------------------------
Label_01BCCA65:
 BYTE   N16  Gn2  v056
 BYTE   W24
 BYTE   N16
 BYTE   W24
 BYTE   N16
 BYTE   W24
 BYTE   N16
 BYTE   W24
 BYTE   PEND 
//  #09 //027   ----------------------------------------
 BYTE   PATT
  POIN2 Label_01BCCA65
//  #09 //028   ----------------------------------------
 BYTE   PATT
  POIN2 Label_01BCCA2F
//  #09 //029   ----------------------------------------
 BYTE   PATT
  POIN2 Label_01BCCA37
//  #09 //030   ----------------------------------------
 BYTE   PATT
  POIN2 Label_01BCCA42
//  #09 //031   ----------------------------------------
 BYTE   PATT
  POIN2 Label_01BCCA42
//  #09 //032   ----------------------------------------
Label_01BCCA89:
 BYTE   N16  As2  v056
 BYTE   W24
 BYTE   N16
 BYTE   W24
 BYTE   N16
 BYTE   W24
 BYTE   N16
 BYTE   W24
 BYTE   PEND 
//  #09 //033   ----------------------------------------
 BYTE   PATT
  POIN2 Label_01BCCA89
//  #09 //034   ----------------------------------------
 BYTE   PATT
  POIN2 Label_01BCCA89
//  #09 //035   ----------------------------------------
 BYTE   PATT
  POIN2 Label_01BCCA89
//  #09 //036   ----------------------------------------
 BYTE   PATT
  POIN2 Label_01BCCA2F
//  #09 //037   ----------------------------------------
 BYTE   PATT
  POIN2 Label_01BCCA37
//  #09 //038   ----------------------------------------
 BYTE   PATT
  POIN2 Label_01BCCA42
//  #09 //039   ----------------------------------------
 BYTE   PATT
  POIN2 Label_01BCCA42
//  #09 //040   ----------------------------------------
 BYTE   PATT
  POIN2 Label_01BCCA52
//  #09 //041   ----------------------------------------
 BYTE   PATT
  POIN2 Label_01BCCA5A
//  #09 //042   ----------------------------------------
 BYTE   PATT
  POIN2 Label_01BCCA65
//  #09 //043   ----------------------------------------
 BYTE   PATT
  POIN2 Label_01BCCA65
//  #09 //044   ----------------------------------------
 BYTE   W48
 BYTE   N16  Ds2  v056
 BYTE   W24
 BYTE   N16
 BYTE   W24
//  #09 //045   ----------------------------------------
 BYTE   N16
 BYTE   W24
 BYTE   N16
 BYTE   W24
 BYTE   N16
 BYTE   W24
 BYTE   Fn2
 BYTE   W24
//  #09 //046   ----------------------------------------
Label_01BCCADA:
 BYTE   N16  Fn2  v056
 BYTE   W24
 BYTE   N16
 BYTE   W24
 BYTE   N16
 BYTE   W24
 BYTE   N16
 BYTE   W24
 BYTE   PEND 
//  #09 //047   ----------------------------------------
 BYTE   PATT
  POIN2 Label_01BCCA42
//  #09 //048   ----------------------------------------
 BYTE   PATT
  POIN2 Label_01BCCA89
//  #09 //049   ----------------------------------------
 BYTE   PATT
  POIN2 Label_01BCCA89
//  #09 //050   ----------------------------------------
 BYTE   PATT
  POIN2 Label_01BCCA89
//  #09 //051   ----------------------------------------
 BYTE   PATT
  POIN2 Label_01BCCA89
//  #09 //052   ----------------------------------------
Label_01BCCAFE:
 BYTE   N16  Fs2  v056
 BYTE   W24
 BYTE   N16
 BYTE   W24
 BYTE   N16
 BYTE   W24
 BYTE   N16
 BYTE   W24
 BYTE   PEND 
//  #09 //053   ----------------------------------------
 BYTE   PATT
  POIN2 Label_01BCCAFE
//  #09 //054   ----------------------------------------
 BYTE   PATT
  POIN2 Label_01BCCAFE
//  #09 //055   ----------------------------------------
 BYTE   PATT
  POIN2 Label_01BCCAFE
//  #09 //056   ----------------------------------------
 BYTE   PATT
  POIN2 Label_01BCCA89
//  #09 //057   ----------------------------------------
 BYTE   PATT
  POIN2 Label_01BCCA89
//  #09 //058   ----------------------------------------
 BYTE   PATT
  POIN2 Label_01BCCA89
//  #09 //059   ----------------------------------------
 BYTE   PATT
  POIN2 Label_01BCCA89
//  #09 //060   ----------------------------------------
Label_01BCCB2C:
 BYTE   N16  Ds2  v056
 BYTE   W24
 BYTE   N16
 BYTE   W24
 BYTE   N16
 BYTE   W24
 BYTE   N16
 BYTE   W24
 BYTE   PEND 
//  #09 //061   ----------------------------------------
 BYTE   PATT
  POIN2 Label_01BCCB2C
//  #09 //062   ----------------------------------------
 BYTE   PATT
  POIN2 Label_01BCCADA
//  #09 //063   ----------------------------------------
 BYTE   PATT
  POIN2 Label_01BCCA42
//  #09 //064   ----------------------------------------
 BYTE   PATT
  POIN2 Label_01BCCA89
//  #09 //065   ----------------------------------------
 BYTE   PATT
  POIN2 Label_01BCCA89
//  #09 //066   ----------------------------------------
 BYTE   PATT
  POIN2 Label_01BCCA89
//  #09 //067   ----------------------------------------
 BYTE   PATT
  POIN2 Label_01BCCA89
//  #09 //068   ----------------------------------------
Label_01BCCB5A:
 BYTE   N16  Bn2  v056
 BYTE   W24
 BYTE   N16
 BYTE   W24
 BYTE   N16
 BYTE   W24
 BYTE   N16
 BYTE   W24
 BYTE   PEND 
//  #09 //069   ----------------------------------------
 BYTE   PATT
  POIN2 Label_01BCCB5A
//  #09 //070   ----------------------------------------
 BYTE   PATT
  POIN2 Label_01BCCB5A
//  #09 //071   ----------------------------------------
 BYTE   PATT
  POIN2 Label_01BCCB5A
//  #09 //072   ----------------------------------------
Label_01BCCB74:
 BYTE   N16  Cn3  v056
 BYTE   W24
 BYTE   N16
 BYTE   W24
 BYTE   N16
 BYTE   W24
 BYTE   N16
 BYTE   W24
 BYTE   PEND 
//  #09 //073   ----------------------------------------
 BYTE   PATT
  POIN2 Label_01BCCB74
//  #09 //074   ----------------------------------------
 BYTE   PATT
  POIN2 Label_01BCCADA
//  #09 //075   ----------------------------------------
 BYTE   PATT
  POIN2 Label_01BCCADA
//  #09 //076   ----------------------------------------
 BYTE   W48
 BYTE   N32  Fs2  v056
 BYTE   W48
//  #09 //077   ----------------------------------------
Label_01BCCB93:
 BYTE   N72  Gs2  v056
 BYTE   W72
 BYTE   As2
 BYTE   W24
 BYTE   PEND 
//  #09 //078   ----------------------------------------
 BYTE   W96
//  #09 //079   ----------------------------------------
 BYTE   W96
//  #09 //080   ----------------------------------------
 BYTE   W48
 BYTE   N32  Ds2
 BYTE   W48
//  #09 //081   ----------------------------------------
 BYTE   N72  Fn2
 BYTE   W72
 BYTE   As2
 BYTE   W24
//  #09 //082   ----------------------------------------
 BYTE   W96
//  #09 //083   ----------------------------------------
 BYTE   W96
//  #09 //084   ----------------------------------------
 BYTE   W48
 BYTE   N32  Fs2
 BYTE   W48
//  #09 //085   ----------------------------------------
 BYTE   PATT
  POIN2 Label_01BCCB93
//  #09 //086   ----------------------------------------
 BYTE   W96
//  #09 //087   ----------------------------------------
 BYTE   W96
//  #09 //088   ----------------------------------------
 BYTE   W48
 BYTE   N32  Ds2  v056
 BYTE   W48
//  #09 //089   ----------------------------------------
 BYTE   N72  Fn2
 BYTE   W72
 BYTE   N16  As2
 BYTE   W24
//  #09 //090   ----------------------------------------
 BYTE   PATT
  POIN2 Label_01BCCA89
//  #09 //091   ----------------------------------------
 BYTE   PATT
  POIN2 Label_01BCCA89
//  #09 //092   ----------------------------------------
 BYTE   GoTo
  POIN2 Label_01BCC9EA
//  #09 //093   ----------------------------------------
 BYTE   PAN   c_v+0
 BYTE   FINE

//**************** Track 10 (Midi-Chn.9) ****************//

FE16IndomitableWillAzula_010:
//  #10 //000   ----------------------------------------
 BYTE   KEYSH   FE16IndomitableWillAzula_key+0
Label_01BCCE02:
 BYTE   VOICE   127
 BYTE   MODT 0
 BYTE   LFOS 44
 BYTE   VOL   61*FE16IndomitableWillAzula_mvl/mxv
 BYTE   N24  Dn1  v080
 BYTE   N12  As1
 BYTE   W72
 BYTE   N08  Dn1
 BYTE   N24  Fs1
 BYTE   W08
 BYTE   N08  Dn1
 BYTE   W08
 BYTE   N08
 BYTE   W08
//  #10 //001   ----------------------------------------
Label_01BCCE1A:
 BYTE   N24  Cn1  v080
 BYTE   N24  Dn1
 BYTE   W24
 BYTE   N24
 BYTE   N24  Fs1
 BYTE   W24
 BYTE   Dn1
 BYTE   N24  Fs1
 BYTE   W24
 BYTE   Dn1
 BYTE   W24
 BYTE   PEND 
//  #10 //002   ----------------------------------------
Label_01BCCE2B:
 BYTE   W72
 BYTE   N08  Dn1  v080
 BYTE   N24  Fs1
 BYTE   W08
 BYTE   N08  Dn1
 BYTE   W08
 BYTE   N08
 BYTE   W08
 BYTE   PEND 
//  #10 //003   ----------------------------------------
Label_01BCCE38:
 BYTE   N24  Cn1  v080
 BYTE   N24  Dn1
 BYTE   W48
 BYTE   N24
 BYTE   N24  Fs1
 BYTE   W24
 BYTE   Dn1
 BYTE   N24  Fs1
 BYTE   W24
 BYTE   PEND 
//  #10 //004   ----------------------------------------
Label_01BCCE47:
 BYTE   N24  Dn1  v080
 BYTE   W72
 BYTE   N08
 BYTE   N24  Fs1
 BYTE   W08
 BYTE   N08  Dn1
 BYTE   W08
 BYTE   N08
 BYTE   W08
 BYTE   PEND 
//  #10 //005   ----------------------------------------
 BYTE   PATT
  POIN2 Label_01BCCE1A
//  #10 //006   ----------------------------------------
Label_01BCCE5A:
 BYTE   W72
 BYTE   N08  Dn1  v080
 BYTE   N12  Fs1
 BYTE   W08
 BYTE   N08  Dn1
 BYTE   W04
 BYTE   N12  Fs1
 BYTE   W04
 BYTE   N08  Dn1
 BYTE   W08
 BYTE   PEND 
//  #10 //007   ----------------------------------------
Label_01BCCE6B:
 BYTE   N24  Cn1  v080
 BYTE   N24  Dn1
 BYTE   W48
 BYTE   Cn1
 BYTE   N24  Dn1
 BYTE   W48
 BYTE   PEND 
//  #10 //008   ----------------------------------------
 BYTE   N12  As1
 BYTE   W72
 BYTE   N08  Dn1
 BYTE   N24  Fs1
 BYTE   W08
 BYTE   N08  Dn1
 BYTE   W08
 BYTE   N08
 BYTE   W08
//  #10 //009   ----------------------------------------
 BYTE   PATT
  POIN2 Label_01BCCE1A
//  #10 //010   ----------------------------------------
 BYTE   PATT
  POIN2 Label_01BCCE2B
//  #10 //011   ----------------------------------------
 BYTE   PATT
  POIN2 Label_01BCCE38
//  #10 //012   ----------------------------------------
 BYTE   PATT
  POIN2 Label_01BCCE47
//  #10 //013   ----------------------------------------
 BYTE   PATT
  POIN2 Label_01BCCE1A
//  #10 //014   ----------------------------------------
 BYTE   PATT
  POIN2 Label_01BCCE5A
//  #10 //015   ----------------------------------------
 BYTE   PATT
  POIN2 Label_01BCCE6B
//  #10 //016   ----------------------------------------
 BYTE   W96
//  #10 //017   ----------------------------------------
 BYTE   W96
//  #10 //018   ----------------------------------------
 BYTE   W96
//  #10 //019   ----------------------------------------
 BYTE   W96
//  #10 //020   ----------------------------------------
Label_01BCCEAA:
 BYTE   W44
 BYTE   W03
 BYTE   N36  Cn1  v080
 BYTE   N36  Cs2
 BYTE   W48
 BYTE   W01
 BYTE   PEND 
//  #10 //021   ----------------------------------------
Label_01BCCEB4:
 BYTE   N08  Dn1  v080
 BYTE   W08
 BYTE   N08
 BYTE   W08
 BYTE   N08
 BYTE   W08
 BYTE   N24
 BYTE   W24
 BYTE   N24
 BYTE   W24
 BYTE   N24
 BYTE   W24
 BYTE   PEND 
//  #10 //022   ----------------------------------------
Label_01BCCEC3:
 BYTE   N24  Dn1  v080
 BYTE   W48
 BYTE   N24
 BYTE   W24
 BYTE   N12
 BYTE   W12
 BYTE   N12
 BYTE   W12
 BYTE   PEND 
//  #10 //023   ----------------------------------------
 BYTE   N24
 BYTE   W44
 BYTE   W03
 BYTE   N23
 BYTE   W24
 BYTE   Cn1
 BYTE   N23  Dn1
 BYTE   W24
 BYTE   W01
//  #10 //024   ----------------------------------------
 BYTE   PATT
  POIN2 Label_01BCCEAA
//  #10 //025   ----------------------------------------
 BYTE   PATT
  POIN2 Label_01BCCEB4
//  #10 //026   ----------------------------------------
Label_01BCCEE2:
 BYTE   N24  Cn1  v080
 BYTE   N24  Dn1
 BYTE   W24
 BYTE   Cn1
 BYTE   N24  Dn1
 BYTE   W24
 BYTE   Cn1
 BYTE   N24  Dn1
 BYTE   W24
 BYTE   N08
 BYTE   W08
 BYTE   N08
 BYTE   W08
 BYTE   N08
 BYTE   W08
 BYTE   PEND 
//  #10 //027   ----------------------------------------
Label_01BCCEF7:
 BYTE   N24  Cn1  v080
 BYTE   N24  Dn1
 BYTE   W24
 BYTE   Cn1
 BYTE   N24  Dn1
 BYTE   W24
 BYTE   Cn1
 BYTE   N24  Dn1
 BYTE   W24
 BYTE   Cn1
 BYTE   N12  Dn1
 BYTE   W12
 BYTE   N12
 BYTE   W12
 BYTE   PEND 
//  #10 //028   ----------------------------------------
 BYTE   PATT
  POIN2 Label_01BCCEAA
//  #10 //029   ----------------------------------------
 BYTE   PATT
  POIN2 Label_01BCCEB4
//  #10 //030   ----------------------------------------
 BYTE   PATT
  POIN2 Label_01BCCEC3
//  #10 //031   ----------------------------------------
Label_01BCCF1B:
 BYTE   N24  Dn1  v080
 BYTE   W24
 BYTE   N24
 BYTE   W24
 BYTE   N24
 BYTE   W24
 BYTE   N08
 BYTE   W08
 BYTE   N08
 BYTE   W08
 BYTE   N08
 BYTE   W08
 BYTE   PEND 
//  #10 //032   ----------------------------------------
Label_01BCCF2A:
 BYTE   W01
 BYTE   N12  Dn1  v080
 BYTE   W12
 BYTE   N24
 BYTE   W32
 BYTE   W03
 BYTE   N24
 BYTE   W24
 BYTE   N12
 BYTE   W12
 BYTE   N12
 BYTE   W12
 BYTE   PEND 
//  #10 //033   ----------------------------------------
Label_01BCCF39:
 BYTE   N12  Dn1  v080
 BYTE   W12
 BYTE   N24
 BYTE   W36
 BYTE   N24
 BYTE   W24
 BYTE   N12
 BYTE   W12
 BYTE   N12
 BYTE   W12
 BYTE   PEND 
//  #10 //034   ----------------------------------------
 BYTE   PATT
  POIN2 Label_01BCCF39
//  #10 //035   ----------------------------------------
 BYTE   PATT
  POIN2 Label_01BCCF39
//  #10 //036   ----------------------------------------
 BYTE   PATT
  POIN2 Label_01BCCEAA
//  #10 //037   ----------------------------------------
 BYTE   PATT
  POIN2 Label_01BCCEB4
//  #10 //038   ----------------------------------------
 BYTE   PATT
  POIN2 Label_01BCCEC3
//  #10 //039   ----------------------------------------
 BYTE   N24  Dn1  v080
 BYTE   W44
 BYTE   W03
 BYTE   N24
 BYTE   W24
 BYTE   Cn1
 BYTE   N24  Dn1
 BYTE   W24
 BYTE   W01
//  #10 //040   ----------------------------------------
 BYTE   PATT
  POIN2 Label_01BCCEAA
//  #10 //041   ----------------------------------------
 BYTE   PATT
  POIN2 Label_01BCCEB4
//  #10 //042   ----------------------------------------
 BYTE   PATT
  POIN2 Label_01BCCEE2
//  #10 //043   ----------------------------------------
 BYTE   PATT
  POIN2 Label_01BCCEF7
//  #10 //044   ----------------------------------------
 BYTE   PATT
  POIN2 Label_01BCCEAA
//  #10 //045   ----------------------------------------
 BYTE   PATT
  POIN2 Label_01BCCEB4
//  #10 //046   ----------------------------------------
 BYTE   PATT
  POIN2 Label_01BCCEC3
//  #10 //047   ----------------------------------------
 BYTE   PATT
  POIN2 Label_01BCCF1B
//  #10 //048   ----------------------------------------
 BYTE   PATT
  POIN2 Label_01BCCF2A
//  #10 //049   ----------------------------------------
 BYTE   PATT
  POIN2 Label_01BCCF39
//  #10 //050   ----------------------------------------
 BYTE   PATT
  POIN2 Label_01BCCF39
//  #10 //051   ----------------------------------------
 BYTE   PATT
  POIN2 Label_01BCCF39
//  #10 //052   ----------------------------------------
 BYTE   PATT
  POIN2 Label_01BCCF1B
//  #10 //053   ----------------------------------------
 BYTE   PATT
  POIN2 Label_01BCCF1B
//  #10 //054   ----------------------------------------
 BYTE   PATT
  POIN2 Label_01BCCF1B
//  #10 //055   ----------------------------------------
 BYTE   PATT
  POIN2 Label_01BCCF1B
//  #10 //056   ----------------------------------------
 BYTE   PATT
  POIN2 Label_01BCCF1B
//  #10 //057   ----------------------------------------
 BYTE   PATT
  POIN2 Label_01BCCF1B
//  #10 //058   ----------------------------------------
 BYTE   PATT
  POIN2 Label_01BCCF1B
//  #10 //059   ----------------------------------------
 BYTE   PATT
  POIN2 Label_01BCCF1B
//  #10 //060   ----------------------------------------
 BYTE   PATT
  POIN2 Label_01BCCF1B
//  #10 //061   ----------------------------------------
 BYTE   PATT
  POIN2 Label_01BCCF1B
//  #10 //062   ----------------------------------------
 BYTE   PATT
  POIN2 Label_01BCCF1B
//  #10 //063   ----------------------------------------
 BYTE   PATT
  POIN2 Label_01BCCF1B
//  #10 //064   ----------------------------------------
 BYTE   PATT
  POIN2 Label_01BCCF1B
//  #10 //065   ----------------------------------------
 BYTE   PATT
  POIN2 Label_01BCCF1B
//  #10 //066   ----------------------------------------
 BYTE   PATT
  POIN2 Label_01BCCF1B
//  #10 //067   ----------------------------------------
 BYTE   PATT
  POIN2 Label_01BCCF1B
//  #10 //068   ----------------------------------------
 BYTE   PATT
  POIN2 Label_01BCCF1B
//  #10 //069   ----------------------------------------
 BYTE   PATT
  POIN2 Label_01BCCF1B
//  #10 //070   ----------------------------------------
 BYTE   PATT
  POIN2 Label_01BCCF1B
//  #10 //071   ----------------------------------------
 BYTE   PATT
  POIN2 Label_01BCCF1B
//  #10 //072   ----------------------------------------
 BYTE   PATT
  POIN2 Label_01BCCF1B
//  #10 //073   ----------------------------------------
 BYTE   PATT
  POIN2 Label_01BCCF1B
//  #10 //074   ----------------------------------------
 BYTE   PATT
  POIN2 Label_01BCCF1B
//  #10 //075   ----------------------------------------
 BYTE   PATT
  POIN2 Label_01BCCF1B
//  #10 //076   ----------------------------------------
 BYTE   W48
 BYTE   N48  Cs2  v080
 BYTE   W48
//  #10 //077   ----------------------------------------
Label_01BCD024:
 BYTE   N72  An2  v080
 BYTE   W72
 BYTE   N48  Cs2
 BYTE   W24
 BYTE   PEND 
//  #10 //078   ----------------------------------------
Label_01BCD02C:
 BYTE   W48
 BYTE   N08  Dn1  v080
 BYTE   W08
 BYTE   N08
 BYTE   W08
 BYTE   N08
 BYTE   W08
 BYTE   N24
 BYTE   W24
 BYTE   PEND 
//  #10 //079   ----------------------------------------
Label_01BCD038:
 BYTE   N24  Dn1  v080
 BYTE   W24
 BYTE   N24
 BYTE   W24
 BYTE   N24
 BYTE   W24
 BYTE   N24
 BYTE   W24
 BYTE   PEND 
//  #10 //080   ----------------------------------------
 BYTE   W48
 BYTE   N48  An2
 BYTE   W48
//  #10 //081   ----------------------------------------
 BYTE   N72  Cs2
 BYTE   W72
 BYTE   N48  An2
 BYTE   W24
//  #10 //082   ----------------------------------------
 BYTE   PAN   c_v+0
 BYTE   W48
 BYTE   N08  Dn1
 BYTE   W08
 BYTE   N08
 BYTE   W08
 BYTE   N08
 BYTE   W08
 BYTE   N24
 BYTE   W24
//  #10 //083   ----------------------------------------
 BYTE   PATT
  POIN2 Label_01BCD038
//  #10 //084   ----------------------------------------
 BYTE   W48
 BYTE   N48  Cs2  v080
 BYTE   W48
//  #10 //085   ----------------------------------------
 BYTE   PATT
  POIN2 Label_01BCD024
//  #10 //086   ----------------------------------------
 BYTE   PATT
  POIN2 Label_01BCD02C
//  #10 //087   ----------------------------------------
 BYTE   PATT
  POIN2 Label_01BCD038
//  #10 //088   ----------------------------------------
 BYTE   W48
 BYTE   N48  An2  v080
 BYTE   W48
//  #10 //089   ----------------------------------------
 BYTE   N72  Cs2
 BYTE   W72
 BYTE   N08  Dn1
 BYTE   N48  An2
 BYTE   W08
 BYTE   N08  Dn1
 BYTE   W08
 BYTE   N08
 BYTE   W08
//  #10 //090   ----------------------------------------
Label_01BCD084:
 BYTE   N24  Dn1  v080
 BYTE   W24
 BYTE   N08
 BYTE   W08
 BYTE   N08
 BYTE   W08
 BYTE   N08
 BYTE   W08
 BYTE   N24
 BYTE   W24
 BYTE   N08
 BYTE   W08
 BYTE   N08
 BYTE   W08
 BYTE   N08
 BYTE   W08
 BYTE   PEND 
//  #10 //091   ----------------------------------------
 BYTE   PATT
  POIN2 Label_01BCD084
//  #10 //092   ----------------------------------------
 BYTE   GoTo
  POIN2 Label_01BCCE02
 BYTE   FINE

//******************************************************//
	ALIGN 4

FE16IndomitableWillAzula:
	BYTE	10	// NumTrks
	BYTE	0	// NumBlks
	BYTE	FE16IndomitableWillAzula_pri	// Priority
	BYTE	FE16IndomitableWillAzula_rev	// Reverb.
    
	POIN2	FE16IndomitableWillAzula_grp
    
	POIN2	FE16IndomitableWillAzula_001
	POIN2	FE16IndomitableWillAzula_002
	POIN2	FE16IndomitableWillAzula_003
	POIN2	FE16IndomitableWillAzula_004
	POIN2	FE16IndomitableWillAzula_005
	POIN2	FE16IndomitableWillAzula_006
	POIN2	FE16IndomitableWillAzula_007
	POIN2	FE16IndomitableWillAzula_008
	POIN2	FE16IndomitableWillAzula_009
	POIN2	FE16IndomitableWillAzula_010

	
