//Event file generated from Sappy .s format.
	#include "MPlayDef.event"

	#define	FE16RespiteandSunlightMikeySeregon_grp  voicegroup000
	#define	FE16RespiteandSunlightMikeySeregon_pri  0
	#define	FE16RespiteandSunlightMikeySeregon_rev  0
	#define	FE16RespiteandSunlightMikeySeregon_mvl  127
	#define	FE16RespiteandSunlightMikeySeregon_key  0
	#define	FE16RespiteandSunlightMikeySeregon_tbs  1
	#define	FE16RespiteandSunlightMikeySeregon_exg  0
	#define	FE16RespiteandSunlightMikeySeregon_cmp  1

	// .rodata
	//	FE16RespiteandSunlightMikeySeregon
	ALIGN 4


//**************** Track 1 (Midi-Chn.0) ****************//

FE16RespiteandSunlightMikeySeregon_001:
// 000   ----------------------------------------
 BYTE   KEYSH   FE16RespiteandSunlightMikeySeregon_key+0
 BYTE   TEMPO   110*FE16RespiteandSunlightMikeySeregon_tbs/2
 BYTE   VOICE   73
 BYTE   PAN   c_v-2
 BYTE   W96
// 001   ----------------------------------------
 BYTE   W96
// 002   ----------------------------------------
 BYTE   W96
// 003   ----------------------------------------
 BYTE   W96
// 004   ----------------------------------------
 BYTE   W96
// 005   ----------------------------------------
 BYTE   W96
// 006   ----------------------------------------
 BYTE   W96
// 007   ----------------------------------------
 BYTE   W84
Label_0_0105C6EC:
 BYTE   W12
// 008   ----------------------------------------
 BYTE   W96
// 009   ----------------------------------------
 BYTE   W84
 BYTE   VOL   40*FE16RespiteandSunlightMikeySeregon_mvl/mxv
 BYTE   PAN   c_v-2
 BYTE   BEND   c_v+0
 BYTE   N06  Fn4  v076
 BYTE   W06
 BYTE   Fs4
 BYTE   W06
// 010   ----------------------------------------
Label_0_0105C6FB:
 BYTE   N30  Gs4  v076
 BYTE   W30
 BYTE   N06  Fs4
 BYTE   W06
 BYTE   Fn4
 BYTE   W06
 BYTE   Ds4
 BYTE   W06
 BYTE   N30  Fn4
 BYTE   W30
 BYTE   N06  Ds4
 BYTE   W06
 BYTE   Cs4
 BYTE   W06
 BYTE   Cn4
 BYTE   W06
 BYTE   PEND 
// 011   ----------------------------------------
 BYTE   N12  As3
 BYTE   W12
 BYTE   N06  Cn4
 BYTE   W06
 BYTE   Cs4
 BYTE   W06
 BYTE   N12  Ds4
 BYTE   W12
 BYTE   N06  Cs4
 BYTE   W06
 BYTE   Cn4
 BYTE   W06
 BYTE   N12  As3
 BYTE   W12
 BYTE   N06  Gs3
 BYTE   W06
 BYTE   Fs3
 BYTE   W06
 BYTE   N24  Fn3  v032
 BYTE   W24
// 012   ----------------------------------------
 BYTE   W96
// 013   ----------------------------------------
 BYTE   W84
 BYTE   N06  Fn5  v076
 BYTE   W06
 BYTE   Fs5
 BYTE   W06
// 014   ----------------------------------------
Label_0_0105C735:
 BYTE   N30  Gs5  v076
 BYTE   W30
 BYTE   N06  Fs5
 BYTE   W06
 BYTE   Fn5
 BYTE   W06
 BYTE   Ds5
 BYTE   W06
 BYTE   N30  Fn5
 BYTE   W30
 BYTE   N06  Ds5
 BYTE   W06
 BYTE   Cs5
 BYTE   W06
 BYTE   Cn5
 BYTE   W06
 BYTE   PEND 
// 015   ----------------------------------------
Label_0_0105C74B:
 BYTE   N12  As4  v076
 BYTE   W12
 BYTE   N06  Cn5
 BYTE   W06
 BYTE   Cs5
 BYTE   W06
 BYTE   N12  Ds5
 BYTE   W12
 BYTE   N06  Cs5
 BYTE   W06
 BYTE   Cn5
 BYTE   W06
 BYTE   N12  As4
 BYTE   W12
 BYTE   N06  Gs4
 BYTE   W06
 BYTE   Fs4
 BYTE   W06
 BYTE   N24  Fn4  v032
 BYTE   W24
 BYTE   PEND 
// 016   ----------------------------------------
 BYTE   W96
// 017   ----------------------------------------
 BYTE   W96
// 018   ----------------------------------------
 BYTE   W96
// 019   ----------------------------------------
 BYTE   W84
 BYTE   N06  Fn4  v076
 BYTE   W06
 BYTE   Fs4
 BYTE   W06
// 020   ----------------------------------------
 BYTE   PATT
  POIN2 Label_0_0105C6FB
// 021   ----------------------------------------
 BYTE   N24  As3  v064
 BYTE   W84
 BYTE   N06  Fn4  v076
 BYTE   W06
 BYTE   Fs4
 BYTE   W06
// 022   ----------------------------------------
 BYTE   PATT
  POIN2 Label_0_0105C6FB
// 023   ----------------------------------------
 BYTE   N12  As3  v076
 BYTE   W12
 BYTE   N06  Cn4
 BYTE   W06
 BYTE   Cs4
 BYTE   W06
 BYTE   N12  Ds4
 BYTE   W12
 BYTE   N06  Cs4
 BYTE   W06
 BYTE   Cn4
 BYTE   W06
 BYTE   N12  As3
 BYTE   W12
 BYTE   N06  Gs3
 BYTE   W06
 BYTE   Fs3
 BYTE   W06
 BYTE   N12  Fn3
 BYTE   W12
 BYTE   N06  Fn4
 BYTE   W06
 BYTE   Fs4
 BYTE   W06
// 024   ----------------------------------------
 BYTE   PATT
  POIN2 Label_0_0105C6FB
// 025   ----------------------------------------
 BYTE   N24  As3  v064
 BYTE   W84
 BYTE   N06  Fn5  v076
 BYTE   W06
 BYTE   Fs5
 BYTE   W06
// 026   ----------------------------------------
 BYTE   PATT
  POIN2 Label_0_0105C735
// 027   ----------------------------------------
 BYTE   PATT
  POIN2 Label_0_0105C74B
// 028   ----------------------------------------
 BYTE   W96
// 029   ----------------------------------------
 BYTE   W96
// 030   ----------------------------------------
 BYTE   W96
// 031   ----------------------------------------
 BYTE   W96
// 032   ----------------------------------------
 BYTE   W96
// 033   ----------------------------------------
 BYTE   W96
// 034   ----------------------------------------
 BYTE   W96
// 035   ----------------------------------------
 BYTE   W96
// 036   ----------------------------------------
 BYTE   W96
// 037   ----------------------------------------
 BYTE   W96
// 038   ----------------------------------------
 BYTE   W96
// 039   ----------------------------------------
 BYTE   W96
// 040   ----------------------------------------
 BYTE   W96
// 041   ----------------------------------------
 BYTE   W96
// 042   ----------------------------------------
 BYTE   W96
// 043   ----------------------------------------
 BYTE   W96
// 044   ----------------------------------------
 BYTE   W84
 BYTE   GoTo
  POIN2 Label_0_0105C6EC
// 045   ----------------------------------------
 BYTE   W12
 BYTE   W96
 BYTE   FINE

//**************** Track 2 (Midi-Chn.1) ****************//

FE16RespiteandSunlightMikeySeregon_002:
// 000   ----------------------------------------
 BYTE   KEYSH   FE16RespiteandSunlightMikeySeregon_key+0
 BYTE   VOICE   68
 BYTE   PAN   c_v-2
 BYTE   W96
// 001   ----------------------------------------
 BYTE   W96
// 002   ----------------------------------------
 BYTE   W96
// 003   ----------------------------------------
 BYTE   W96
// 004   ----------------------------------------
 BYTE   W96
// 005   ----------------------------------------
 BYTE   W96
// 006   ----------------------------------------
 BYTE   W96
// 007   ----------------------------------------
 BYTE   W84
Label_1_0105CF66:
 BYTE   VOL   40*FE16RespiteandSunlightMikeySeregon_mvl/mxv
 BYTE   PAN   c_v-2
 BYTE   BEND   c_v+0
 BYTE   N06  Cn5  v064
 BYTE   W06
 BYTE   Cs5
 BYTE   W06
// 008   ----------------------------------------
 BYTE   N30  Ds5
 BYTE   W30
 BYTE   N06  Cs5
 BYTE   W06
 BYTE   Cn5
 BYTE   W06
 BYTE   As4
 BYTE   W06
 BYTE   N30  Cn5
 BYTE   W30
 BYTE   N06  As4
 BYTE   W06
 BYTE   Gs4
 BYTE   W06
 BYTE   Fs4
 BYTE   W06
// 009   ----------------------------------------
 BYTE   N12  Fn4
 BYTE   W12
 BYTE   N03  Cn5  v100
 BYTE   W12
 BYTE   N12  Ds4  v064
 BYTE   W12
 BYTE   N03  As4  v100
 BYTE   W12
 BYTE   N12  Cs4  v064
 BYTE   W12
 BYTE   N05  Gs4  v100
 BYTE   W36
// 010   ----------------------------------------
 BYTE   N12  Fn4  v064
 BYTE   W12
 BYTE   N03  As3  v100
 BYTE   W12
 BYTE   N42  Ds4  v064
 BYTE   W42
 BYTE   N06  Cs4
 BYTE   W06
 BYTE   Cn4
 BYTE   W06
 BYTE   Cs4
 BYTE   W06
 BYTE   Cn4
 BYTE   W06
 BYTE   As3
 BYTE   W06
// 011   ----------------------------------------
Label_1_0105CFB4:
 BYTE   N72  Gs3  v064
 BYTE   W84
 BYTE   N06  Cn5  v076
 BYTE   W06
 BYTE   Cs5
 BYTE   W06
 BYTE   PEND 
// 012   ----------------------------------------
Label_1_0105CFBF:
 BYTE   N30  Ds5  v076
 BYTE   W30
 BYTE   N06  Cs5
 BYTE   W06
 BYTE   Cn5
 BYTE   W06
 BYTE   As4
 BYTE   W06
 BYTE   N30  Cn5
 BYTE   W30
 BYTE   N06  As4
 BYTE   W06
 BYTE   Gs4
 BYTE   W06
 BYTE   Fs4
 BYTE   W06
 BYTE   PEND 
// 013   ----------------------------------------
Label_1_0105CFD5:
 BYTE   N12  Fn4  v076
 BYTE   W12
 BYTE   N03  Cn5  v120
 BYTE   W12
 BYTE   N12  Ds4  v076
 BYTE   W12
 BYTE   N03  As4  v120
 BYTE   W12
 BYTE   N12  Cs4  v076
 BYTE   W12
 BYTE   N05  Gs4  v120
 BYTE   W36
 BYTE   PEND 
// 014   ----------------------------------------
Label_1_0105CFEE:
 BYTE   N12  Fn4  v076
 BYTE   W12
 BYTE   N03  As3  v120
 BYTE   W12
 BYTE   N42  Ds4  v076
 BYTE   W42
 BYTE   N06  Cs4
 BYTE   W06
 BYTE   Cn4
 BYTE   W06
 BYTE   Cs4
 BYTE   W06
 BYTE   Cn4
 BYTE   W06
 BYTE   As3
 BYTE   W06
 BYTE   PEND 
// 015   ----------------------------------------
 BYTE   N72  Gs3  v064
 BYTE   W96
// 016   ----------------------------------------
 BYTE   W96
// 017   ----------------------------------------
 BYTE   W96
// 018   ----------------------------------------
 BYTE   W96
// 019   ----------------------------------------
 BYTE   W84
 BYTE   N06  Cn5  v076
 BYTE   W06
 BYTE   Cs5
 BYTE   W06
// 020   ----------------------------------------
 BYTE   PATT
  POIN2 Label_1_0105CFBF
// 021   ----------------------------------------
 BYTE   N12  Fn4  v076
 BYTE   W12
 BYTE   N03  Cn5  v120
 BYTE   W12
 BYTE   N12  Ds4  v076
 BYTE   W12
 BYTE   N03  As4  v120
 BYTE   W12
 BYTE   N12  Cs4  v076
 BYTE   W12
 BYTE   N03  Gs4  v120
 BYTE   W12
 BYTE   N01  Gs4  v076
 BYTE   W01
 BYTE   N10  Fs4
 BYTE   W11
 BYTE   N06  Fn4
 BYTE   W06
 BYTE   Ds4
 BYTE   W06
// 022   ----------------------------------------
 BYTE   PATT
  POIN2 Label_1_0105CFEE
// 023   ----------------------------------------
 BYTE   PATT
  POIN2 Label_1_0105CFB4
// 024   ----------------------------------------
 BYTE   PATT
  POIN2 Label_1_0105CFBF
// 025   ----------------------------------------
 BYTE   PATT
  POIN2 Label_1_0105CFD5
// 026   ----------------------------------------
 BYTE   PATT
  POIN2 Label_1_0105CFEE
// 027   ----------------------------------------
 BYTE   N72  Gs3  v064
 BYTE   W96
// 028   ----------------------------------------
 BYTE   W96
// 029   ----------------------------------------
 BYTE   W96
// 030   ----------------------------------------
 BYTE   W96
// 031   ----------------------------------------
 BYTE   W96
// 032   ----------------------------------------
 BYTE   W96
// 033   ----------------------------------------
 BYTE   W96
// 034   ----------------------------------------
 BYTE   W96
// 035   ----------------------------------------
 BYTE   W96
// 036   ----------------------------------------
 BYTE   W96
// 037   ----------------------------------------
 BYTE   W96
// 038   ----------------------------------------
 BYTE   W96
// 039   ----------------------------------------
 BYTE   W96
// 040   ----------------------------------------
 BYTE   W96
// 041   ----------------------------------------
 BYTE   W96
// 042   ----------------------------------------
 BYTE   W96
// 043   ----------------------------------------
 BYTE   W96
// 044   ----------------------------------------
 BYTE   W84
 BYTE   GoTo
  POIN2 Label_1_0105CF66
// 045   ----------------------------------------
 BYTE   N06  Cn5  v032
 BYTE   W06
 BYTE   Cs5
 BYTE   W06
 BYTE   N30  Ds5
 BYTE   W30
 BYTE   N06  Cs5
 BYTE   W06
 BYTE   Cn5
 BYTE   W06
 BYTE   As4
 BYTE   W06
 BYTE   N30  Cn5
 BYTE   W30
 BYTE   N06  As4
 BYTE   W06
// 046   ----------------------------------------
 BYTE   Gs4
 BYTE   W06
 BYTE   Fs4
 BYTE   W06
 BYTE   FINE

//**************** Track 3 (Midi-Chn.2) ****************//

FE16RespiteandSunlightMikeySeregon_003:
// 000   ----------------------------------------
 BYTE   KEYSH   FE16RespiteandSunlightMikeySeregon_key+0
 BYTE   VOICE   13
 BYTE   PAN   c_v-2
 BYTE   W96
// 001   ----------------------------------------
 BYTE   W96
// 002   ----------------------------------------
 BYTE   W96
// 003   ----------------------------------------
 BYTE   W96
// 004   ----------------------------------------
 BYTE   W96
// 005   ----------------------------------------
 BYTE   W96
// 006   ----------------------------------------
 BYTE   W96
// 007   ----------------------------------------
 BYTE   W84
Label_2_0105C94E:
 BYTE   W12
// 008   ----------------------------------------
 BYTE   W96
// 009   ----------------------------------------
 BYTE   W96
// 010   ----------------------------------------
 BYTE   W96
// 011   ----------------------------------------
 BYTE   W96
// 012   ----------------------------------------
 BYTE   W96
// 013   ----------------------------------------
 BYTE   W96
// 014   ----------------------------------------
 BYTE   W96
// 015   ----------------------------------------
 BYTE   W96
// 016   ----------------------------------------
 BYTE   W12
 BYTE   VOL   40*FE16RespiteandSunlightMikeySeregon_mvl/mxv
 BYTE   PAN   c_v-2
 BYTE   BEND   c_v+0
 BYTE   N06  Ds4  v064
 BYTE   W06
 BYTE   N06
 BYTE   W06
 BYTE   Fn4
 BYTE   W06
 BYTE   Ds4
 BYTE   W06
 BYTE   As4
 BYTE   W06
 BYTE   N18  Fn4
 BYTE   W18
 BYTE   N06  Gs3
 BYTE   W06
 BYTE   N24  As3
 BYTE   W24
 BYTE   N06  Cn4
 BYTE   W06
// 017   ----------------------------------------
 BYTE   As4
 BYTE   W06
 BYTE   Cn5
 BYTE   W06
 BYTE   N24  Fn4
 BYTE   W24
 BYTE   N06  Ds4
 BYTE   W06
 BYTE   N24
 BYTE   W24
 BYTE   N12  Fn4
 BYTE   W12
 BYTE   N06
 BYTE   W06
 BYTE   Ds4
 BYTE   W06
 BYTE   As4
 BYTE   W06
// 018   ----------------------------------------
 BYTE   W36
 BYTE   Gs4
 BYTE   W06
 BYTE   N06
 BYTE   W06
 BYTE   Fn4
 BYTE   W06
 BYTE   As4
 BYTE   W06
 BYTE   N24  Ds4
 BYTE   W24
 BYTE   N06  Gs3
 BYTE   W06
 BYTE   N18  As3
 BYTE   W06
// 019   ----------------------------------------
 BYTE   W12
 BYTE   N06  Ds4
 BYTE   W06
 BYTE   N18
 BYTE   W18
 BYTE   N06  Fn4
 BYTE   W06
 BYTE   N18
 BYTE   W18
 BYTE   N06  Ds4
 BYTE   W06
 BYTE   Gs3
 BYTE   W06
 BYTE   As3
 BYTE   W06
 BYTE   N18  Fn4
 BYTE   W18
// 020   ----------------------------------------
 BYTE   W96
// 021   ----------------------------------------
 BYTE   W96
// 022   ----------------------------------------
 BYTE   W96
// 023   ----------------------------------------
 BYTE   W96
// 024   ----------------------------------------
 BYTE   W96
// 025   ----------------------------------------
 BYTE   W96
// 026   ----------------------------------------
 BYTE   W96
// 027   ----------------------------------------
 BYTE   W96
// 028   ----------------------------------------
 BYTE   W96
// 029   ----------------------------------------
 BYTE   W96
// 030   ----------------------------------------
 BYTE   W96
// 031   ----------------------------------------
 BYTE   W96
// 032   ----------------------------------------
 BYTE   W96
// 033   ----------------------------------------
 BYTE   W96
// 034   ----------------------------------------
 BYTE   W96
// 035   ----------------------------------------
 BYTE   W96
// 036   ----------------------------------------
 BYTE   W12
 BYTE   N06  Dn4
 BYTE   W06
 BYTE   N06
 BYTE   W06
 BYTE   En4
 BYTE   W06
 BYTE   Dn4
 BYTE   W06
 BYTE   An4
 BYTE   W06
 BYTE   N18  En4
 BYTE   W18
 BYTE   N06  Gn3
 BYTE   W06
 BYTE   N24  An3
 BYTE   W24
 BYTE   N06  Bn3
 BYTE   W06
// 037   ----------------------------------------
 BYTE   An4
 BYTE   W06
 BYTE   Bn4
 BYTE   W06
 BYTE   N24  En4
 BYTE   W24
 BYTE   N06  Dn4
 BYTE   W06
 BYTE   N24
 BYTE   W24
 BYTE   N12  En4
 BYTE   W12
 BYTE   N06
 BYTE   W06
 BYTE   Dn4
 BYTE   W06
 BYTE   An4
 BYTE   W06
// 038   ----------------------------------------
 BYTE   W36
 BYTE   Gn4
 BYTE   W06
 BYTE   N06
 BYTE   W06
 BYTE   En4
 BYTE   W06
 BYTE   An4
 BYTE   W06
 BYTE   N24  Dn4
 BYTE   W24
 BYTE   N06  Gn3
 BYTE   W06
 BYTE   N18  An3
 BYTE   W06
// 039   ----------------------------------------
 BYTE   W12
 BYTE   N06  Dn4
 BYTE   W06
 BYTE   N18
 BYTE   W18
 BYTE   N06  En4
 BYTE   W06
 BYTE   N18
 BYTE   W18
 BYTE   N06  Dn4
 BYTE   W06
 BYTE   Gn3
 BYTE   W06
 BYTE   An3
 BYTE   W06
 BYTE   N18  En4
 BYTE   W18
// 040   ----------------------------------------
 BYTE   W96
// 041   ----------------------------------------
 BYTE   W96
// 042   ----------------------------------------
 BYTE   W96
// 043   ----------------------------------------
 BYTE   W96
// 044   ----------------------------------------
 BYTE   W84
 BYTE   GoTo
  POIN2 Label_2_0105C94E
// 045   ----------------------------------------
 BYTE   W12
 BYTE   W96
 BYTE   FINE

//**************** Track 4 (Midi-Chn.3) ****************//

FE16RespiteandSunlightMikeySeregon_004:
// 000   ----------------------------------------
 BYTE   KEYSH   FE16RespiteandSunlightMikeySeregon_key+0
 BYTE   VOICE   1
 BYTE   PAN   c_v-2
 BYTE   W96
// 001   ----------------------------------------
 BYTE   W60
 BYTE   VOL   40*FE16RespiteandSunlightMikeySeregon_mvl/mxv
 BYTE   PAN   c_v-2
 BYTE   BEND   c_v+0
 BYTE   N01  Ds4  v120
 BYTE   W06
 BYTE   N02
 BYTE   W06
 BYTE   N03  As4
 BYTE   W24
// 002   ----------------------------------------
 BYTE   W96
// 003   ----------------------------------------
Label_3_0105CA4C:
 BYTE   W60
 BYTE   N12  Fn3  v120
 BYTE   W12
 BYTE   Cn4
 BYTE   W12
 BYTE   Fn4
 BYTE   W12
 BYTE   PEND 
// 004   ----------------------------------------
 BYTE   W96
// 005   ----------------------------------------
Label_3_0105CA57:
 BYTE   W60
 BYTE   N02  Ds4  v120
 BYTE   W06
 BYTE   N01
 BYTE   W06
 BYTE   N03  As4
 BYTE   W24
 BYTE   PEND 
// 006   ----------------------------------------
 BYTE   W96
// 007   ----------------------------------------
 BYTE   W84
Label_3_0105CA64:
 BYTE   N06  Cn5  v076
 BYTE   W06
 BYTE   Cs5
 BYTE   W06
// 008   ----------------------------------------
Label_3_0105CA6A:
 BYTE   N24  Ds5  v076
 BYTE   W24
 BYTE   N06
 BYTE   W06
 BYTE   Cs5
 BYTE   W06
 BYTE   Cn5
 BYTE   W06
 BYTE   As4
 BYTE   W06
 BYTE   N30  Cn5
 BYTE   W30
 BYTE   N06  As4
 BYTE   W06
 BYTE   Gs4
 BYTE   W06
 BYTE   Fs4
 BYTE   W06
 BYTE   PEND 
// 009   ----------------------------------------
Label_3_0105CA81:
 BYTE   N12  Fn4  v076
 BYTE   W12
 BYTE   N03  Cn5  v120
 BYTE   W12
 BYTE   N12  Ds4  v076
 BYTE   W12
 BYTE   N03  As4  v120
 BYTE   W12
 BYTE   N12  Cs4  v076
 BYTE   W12
 BYTE   N05  Gs4  v120
 BYTE   W36
 BYTE   PEND 
// 010   ----------------------------------------
Label_3_0105CA9A:
 BYTE   N12  Fn4  v076
 BYTE   W12
 BYTE   N03  As3  v120
 BYTE   W12
 BYTE   N36  Ds4  v076
 BYTE   W36
 BYTE   N06
 BYTE   W06
 BYTE   Cs4
 BYTE   W06
 BYTE   Cn4
 BYTE   W06
 BYTE   Cs4
 BYTE   W06
 BYTE   Cn4
 BYTE   W06
 BYTE   As3
 BYTE   W06
 BYTE   PEND 
// 011   ----------------------------------------
Label_3_0105CAB3:
 BYTE   N72  Gs3  v076
 BYTE   W84
 BYTE   N06  Cn5
 BYTE   W06
 BYTE   Cs5
 BYTE   W06
 BYTE   PEND 
// 012   ----------------------------------------
 BYTE   PATT
  POIN2 Label_3_0105CA6A
// 013   ----------------------------------------
 BYTE   PATT
  POIN2 Label_3_0105CA81
// 014   ----------------------------------------
 BYTE   PATT
  POIN2 Label_3_0105CA9A
// 015   ----------------------------------------
 BYTE   N72  Gs3  v076
 BYTE   W96
// 016   ----------------------------------------
 BYTE   W96
// 017   ----------------------------------------
 BYTE   W96
// 018   ----------------------------------------
 BYTE   W96
// 019   ----------------------------------------
 BYTE   W84
 BYTE   N06  Cn5
 BYTE   W06
 BYTE   Cs5
 BYTE   W06
// 020   ----------------------------------------
Label_3_0105CAD9:
 BYTE   N30  Ds5  v076
 BYTE   W30
 BYTE   N06  Cs5
 BYTE   W06
 BYTE   Cn5
 BYTE   W06
 BYTE   As4
 BYTE   W06
 BYTE   N30  Cn5
 BYTE   W30
 BYTE   N06  As4
 BYTE   W06
 BYTE   Gs4
 BYTE   W06
 BYTE   Fs4
 BYTE   W06
 BYTE   PEND 
// 021   ----------------------------------------
 BYTE   PATT
  POIN2 Label_3_0105CA81
// 022   ----------------------------------------
 BYTE   PATT
  POIN2 Label_3_0105CA9A
// 023   ----------------------------------------
 BYTE   PATT
  POIN2 Label_3_0105CAB3
// 024   ----------------------------------------
 BYTE   PATT
  POIN2 Label_3_0105CAD9
// 025   ----------------------------------------
 BYTE   PATT
  POIN2 Label_3_0105CA81
// 026   ----------------------------------------
 BYTE   PATT
  POIN2 Label_3_0105CA9A
// 027   ----------------------------------------
 BYTE   N72  Gs3  v076
 BYTE   W96
// 028   ----------------------------------------
 BYTE   W96
// 029   ----------------------------------------
 BYTE   W96
// 030   ----------------------------------------
 BYTE   W96
// 031   ----------------------------------------
 BYTE   W96
// 032   ----------------------------------------
 BYTE   W96
// 033   ----------------------------------------
 BYTE   W96
// 034   ----------------------------------------
 BYTE   W96
// 035   ----------------------------------------
 BYTE   W96
// 036   ----------------------------------------
 BYTE   W96
// 037   ----------------------------------------
 BYTE   W96
// 038   ----------------------------------------
 BYTE   PATT
  POIN2 Label_3_0105CA57
// 039   ----------------------------------------
 BYTE   W96
// 040   ----------------------------------------
 BYTE   PATT
  POIN2 Label_3_0105CA4C
// 041   ----------------------------------------
 BYTE   W96
// 042   ----------------------------------------
 BYTE   W60
 BYTE   N01  Ds4  v120
 BYTE   W06
 BYTE   N01
 BYTE   W06
 BYTE   N03  As4
 BYTE   W24
// 043   ----------------------------------------
 BYTE   W96
// 044   ----------------------------------------
 BYTE   W84
 BYTE   GoTo
  POIN2 Label_3_0105CA64
// 045   ----------------------------------------
 BYTE   N06  Cn5  v076
 BYTE   W06
 BYTE   Cs5
 BYTE   W06
// 046   ----------------------------------------
 BYTE   PATT
  POIN2 Label_3_0105CA6A
 BYTE   FINE

//**************** Track 5 (Midi-Chn.4) ****************//

FE16RespiteandSunlightMikeySeregon_005:
// 000   ----------------------------------------
 BYTE   KEYSH   FE16RespiteandSunlightMikeySeregon_key+0
 BYTE   VOICE   40
 BYTE   VOL   40*FE16RespiteandSunlightMikeySeregon_mvl/mxv
 BYTE   PAN   c_v-2
 BYTE   W12
 BYTE   Dn3
 BYTE   BEND   c_v+0
 BYTE   N03  As3  v120
 BYTE   W12
 BYTE   N03
 BYTE   W36
 BYTE   Gs3
 BYTE   W36
// 001   ----------------------------------------
Label_4_0105C800:
 BYTE   N03  As3  v120
 BYTE   W12
 BYTE   N03
 BYTE   W24
 BYTE   Gs3
 BYTE   W60
 BYTE   PEND 
// 002   ----------------------------------------
Label_4_0105C809:
 BYTE   W12
 BYTE   N03  As3  v120
 BYTE   W12
 BYTE   N03
 BYTE   W36
 BYTE   Gs3
 BYTE   W36
 BYTE   PEND 
// 003   ----------------------------------------
 BYTE   PATT
  POIN2 Label_4_0105C800
// 004   ----------------------------------------
 BYTE   PATT
  POIN2 Label_4_0105C809
// 005   ----------------------------------------
 BYTE   PATT
  POIN2 Label_4_0105C800
// 006   ----------------------------------------
 BYTE   PATT
  POIN2 Label_4_0105C809
// 007   ----------------------------------------
 BYTE   N03  Fn3  v120
 BYTE   W12
 BYTE   N03
 BYTE   W24
 BYTE   Gs3
 BYTE   W48
Label_4_0105C82F:
 BYTE   W12
// 008   ----------------------------------------
 BYTE   PATT
  POIN2 Label_4_0105C809
// 009   ----------------------------------------
 BYTE   PATT
  POIN2 Label_4_0105C800
// 010   ----------------------------------------
 BYTE   PATT
  POIN2 Label_4_0105C809
// 011   ----------------------------------------
 BYTE   PATT
  POIN2 Label_4_0105C800
// 012   ----------------------------------------
 BYTE   PATT
  POIN2 Label_4_0105C809
// 013   ----------------------------------------
 BYTE   PATT
  POIN2 Label_4_0105C800
// 014   ----------------------------------------
 BYTE   PATT
  POIN2 Label_4_0105C809
// 015   ----------------------------------------
 BYTE   PATT
  POIN2 Label_4_0105C800
// 016   ----------------------------------------
 BYTE   PATT
  POIN2 Label_4_0105C809
// 017   ----------------------------------------
 BYTE   PATT
  POIN2 Label_4_0105C800
// 018   ----------------------------------------
 BYTE   PATT
  POIN2 Label_4_0105C809
// 019   ----------------------------------------
 BYTE   N03  Fn3  v120
 BYTE   W12
 BYTE   N03
 BYTE   W24
 BYTE   Gs3
 BYTE   W60
// 020   ----------------------------------------
 BYTE   PATT
  POIN2 Label_4_0105C809
// 021   ----------------------------------------
 BYTE   PATT
  POIN2 Label_4_0105C800
// 022   ----------------------------------------
 BYTE   PATT
  POIN2 Label_4_0105C809
// 023   ----------------------------------------
 BYTE   PATT
  POIN2 Label_4_0105C800
// 024   ----------------------------------------
 BYTE   PATT
  POIN2 Label_4_0105C809
// 025   ----------------------------------------
 BYTE   PATT
  POIN2 Label_4_0105C800
// 026   ----------------------------------------
 BYTE   PATT
  POIN2 Label_4_0105C809
// 027   ----------------------------------------
 BYTE   PATT
  POIN2 Label_4_0105C800
// 028   ----------------------------------------
 BYTE   W24
 BYTE   N12  Ds4  v076
 BYTE   W12
 BYTE   Fn4
 BYTE   W12
 BYTE   N24  Fs4
 BYTE   W24
 BYTE   Gs4
 BYTE   W24
// 029   ----------------------------------------
 BYTE   Fs4
 BYTE   W24
 BYTE   N12  Fn4
 BYTE   W12
 BYTE   Ds4
 BYTE   W12
 BYTE   N24  Cs4
 BYTE   W24
 BYTE   Cs5
 BYTE   W24
// 030   ----------------------------------------
 BYTE   W24
 BYTE   N12  Bn4
 BYTE   W12
 BYTE   An4
 BYTE   W12
 BYTE   N24  Gs4
 BYTE   W24
 BYTE   Fs4
 BYTE   W24
// 031   ----------------------------------------
 BYTE   Gs4
 BYTE   W24
 BYTE   En4
 BYTE   W48
 BYTE   N24
 BYTE   W24
// 032   ----------------------------------------
 BYTE   N12  Fs4
 BYTE   W12
 BYTE   Gs4
 BYTE   W12
 BYTE   As4
 BYTE   W12
 BYTE   Gs4
 BYTE   W12
 BYTE   N12
 BYTE   W12
 BYTE   As4
 BYTE   W12
 BYTE   N72  Fs4
 BYTE   W24
// 033   ----------------------------------------
 BYTE   W72
 BYTE   N24  Cs4  v064
 BYTE   W24
// 034   ----------------------------------------
 BYTE   N11  Dn4
 BYTE   W12
 BYTE   N12  En4
 BYTE   W12
 BYTE   Fs4
 BYTE   W12
 BYTE   En4
 BYTE   W12
 BYTE   N12
 BYTE   W12
 BYTE   Fs4
 BYTE   W12
 BYTE   N72  Dn4
 BYTE   W24
// 035   ----------------------------------------
 BYTE   W48
 BYTE   N24  Gn3  v040
 BYTE   W24
 BYTE   Cn4  v032
 BYTE   W24
// 036   ----------------------------------------
 BYTE   TIE  Dn4
 BYTE   W96
// 037   ----------------------------------------
 BYTE   W72
 BYTE   EOT
 BYTE   W24
// 038   ----------------------------------------
 BYTE   W96
// 039   ----------------------------------------
 BYTE   PATT
  POIN2 Label_4_0105C809
// 040   ----------------------------------------
 BYTE   PATT
  POIN2 Label_4_0105C800
// 041   ----------------------------------------
 BYTE   PATT
  POIN2 Label_4_0105C809
// 042   ----------------------------------------
 BYTE   PATT
  POIN2 Label_4_0105C800
// 043   ----------------------------------------
 BYTE   PATT
  POIN2 Label_4_0105C809
// 044   ----------------------------------------
 BYTE   N03  As3  v120
 BYTE   W12
 BYTE   N03
 BYTE   W24
 BYTE   Gs3
 BYTE   W48
 BYTE   GoTo
  POIN2 Label_4_0105C82F
// 045   ----------------------------------------
 BYTE   W12
// 046   ----------------------------------------
 BYTE   PATT
  POIN2 Label_4_0105C809
 BYTE   FINE

//**************** Track 6 (Midi-Chn.5) ****************//

FE16RespiteandSunlightMikeySeregon_006:
// 000   ----------------------------------------
 BYTE   KEYSH   FE16RespiteandSunlightMikeySeregon_key+0
 BYTE   VOICE   40
 BYTE   VOL   40*FE16RespiteandSunlightMikeySeregon_mvl/mxv
 BYTE   PAN   c_v-2
 BYTE   W12
 BYTE   Dn3
 BYTE   BEND   c_v+0
 BYTE   N03  Fs3  v120
 BYTE   W12
 BYTE   N03
 BYTE   W36
 BYTE   Ds3
 BYTE   W36
// 001   ----------------------------------------
Label_5_0105D194:
 BYTE   N03  Fs3  v120
 BYTE   W12
 BYTE   N03
 BYTE   W24
 BYTE   Ds3
 BYTE   W60
 BYTE   PEND 
// 002   ----------------------------------------
Label_5_0105D19D:
 BYTE   W12
 BYTE   N03  Fs3  v120
 BYTE   W12
 BYTE   N03
 BYTE   W36
 BYTE   Ds3
 BYTE   W36
 BYTE   PEND 
// 003   ----------------------------------------
 BYTE   PATT
  POIN2 Label_5_0105D194
// 004   ----------------------------------------
 BYTE   PATT
  POIN2 Label_5_0105D19D
// 005   ----------------------------------------
 BYTE   PATT
  POIN2 Label_5_0105D194
// 006   ----------------------------------------
 BYTE   PATT
  POIN2 Label_5_0105D19D
// 007   ----------------------------------------
 BYTE   N03  Ds3  v120
 BYTE   W12
 BYTE   N03
 BYTE   W24
 BYTE   N03
 BYTE   W48
Label_5_0105D1C3:
 BYTE   W12
// 008   ----------------------------------------
 BYTE   PATT
  POIN2 Label_5_0105D19D
// 009   ----------------------------------------
 BYTE   PATT
  POIN2 Label_5_0105D194
// 010   ----------------------------------------
 BYTE   PATT
  POIN2 Label_5_0105D19D
// 011   ----------------------------------------
 BYTE   PATT
  POIN2 Label_5_0105D194
// 012   ----------------------------------------
 BYTE   PATT
  POIN2 Label_5_0105D19D
// 013   ----------------------------------------
 BYTE   PATT
  POIN2 Label_5_0105D194
// 014   ----------------------------------------
 BYTE   PATT
  POIN2 Label_5_0105D19D
// 015   ----------------------------------------
 BYTE   PATT
  POIN2 Label_5_0105D194
// 016   ----------------------------------------
 BYTE   PATT
  POIN2 Label_5_0105D19D
// 017   ----------------------------------------
 BYTE   PATT
  POIN2 Label_5_0105D194
// 018   ----------------------------------------
 BYTE   PATT
  POIN2 Label_5_0105D19D
// 019   ----------------------------------------
 BYTE   N03  Ds3  v120
 BYTE   W12
 BYTE   N03
 BYTE   W24
 BYTE   N03
 BYTE   W60
// 020   ----------------------------------------
 BYTE   PATT
  POIN2 Label_5_0105D19D
// 021   ----------------------------------------
 BYTE   PATT
  POIN2 Label_5_0105D194
// 022   ----------------------------------------
 BYTE   PATT
  POIN2 Label_5_0105D19D
// 023   ----------------------------------------
 BYTE   PATT
  POIN2 Label_5_0105D194
// 024   ----------------------------------------
 BYTE   PATT
  POIN2 Label_5_0105D19D
// 025   ----------------------------------------
 BYTE   PATT
  POIN2 Label_5_0105D194
// 026   ----------------------------------------
 BYTE   PATT
  POIN2 Label_5_0105D19D
// 027   ----------------------------------------
 BYTE   PATT
  POIN2 Label_5_0105D194
// 028   ----------------------------------------
 BYTE   N96  Ds3  v076
 BYTE   W24
 BYTE   N24  Fs3
 BYTE   W24
 BYTE   Fn3
 BYTE   W48
// 029   ----------------------------------------
 BYTE   N72  Cs3
 BYTE   W72
 BYTE   N12  Ds3
 BYTE   W12
 BYTE   Fn3
 BYTE   W12
// 030   ----------------------------------------
 BYTE   N60  Fs3
 BYTE   W60
 BYTE   N24  An3
 BYTE   W24
 BYTE   N12
 BYTE   W12
// 031   ----------------------------------------
 BYTE   N24  Bn3
 BYTE   W24
 BYTE   Gs3
 BYTE   W24
 BYTE   Fs3
 BYTE   W24
 BYTE   N12  En3
 BYTE   W12
 BYTE   Fs3
 BYTE   W12
// 032   ----------------------------------------
 BYTE   N36  As3
 BYTE   W36
 BYTE   Bn3
 BYTE   W36
 BYTE   N48  As3
 BYTE   W24
// 033   ----------------------------------------
 BYTE   W24
 BYTE   Gs3
 BYTE   W48
 BYTE   N60  Fs3
 BYTE   W24
// 034   ----------------------------------------
 BYTE   W36
 BYTE   N36  Gn3
 BYTE   W36
 BYTE   N48  Fs3
 BYTE   W24
// 035   ----------------------------------------
 BYTE   W24
 BYTE   En3
 BYTE   W48
 BYTE   N24  Dn3
 BYTE   W24
// 036   ----------------------------------------
Label_5_0105D26B:
 BYTE   W12
 BYTE   N03  En3  v120
 BYTE   N12  An3  v076
 BYTE   W12
 BYTE   N03  En3  v120
 BYTE   N12  An3  v076
 BYTE   W36
 BYTE   N03  Dn3  v120
 BYTE   N12  Gn3  v076
 BYTE   W36
 BYTE   PEND 
// 037   ----------------------------------------
Label_5_0105D282:
 BYTE   N03  En3  v120
 BYTE   N12  An3  v076
 BYTE   W12
 BYTE   N03  En3  v120
 BYTE   N12  An3  v076
 BYTE   W24
 BYTE   N03  Dn3  v120
 BYTE   N12  Gn3  v076
 BYTE   W60
 BYTE   PEND 
// 038   ----------------------------------------
 BYTE   PATT
  POIN2 Label_5_0105D26B
// 039   ----------------------------------------
 BYTE   PATT
  POIN2 Label_5_0105D282
// 040   ----------------------------------------
 BYTE   PATT
  POIN2 Label_5_0105D19D
// 041   ----------------------------------------
 BYTE   PATT
  POIN2 Label_5_0105D194
// 042   ----------------------------------------
 BYTE   PATT
  POIN2 Label_5_0105D19D
// 043   ----------------------------------------
 BYTE   PATT
  POIN2 Label_5_0105D194
// 044   ----------------------------------------
 BYTE   W12
 BYTE   N03  Fs3  v120
 BYTE   W12
 BYTE   N03
 BYTE   W36
 BYTE   Ds3
 BYTE   W24
 BYTE   GoTo
  POIN2 Label_5_0105D1C3
// 045   ----------------------------------------
 BYTE   W12
// 046   ----------------------------------------
 BYTE   PATT
  POIN2 Label_5_0105D194
 BYTE   FINE

//**************** Track 7 (Midi-Chn.6) ****************//

FE16RespiteandSunlightMikeySeregon_007:
// 000   ----------------------------------------
 BYTE   KEYSH   FE16RespiteandSunlightMikeySeregon_key+0
 BYTE   VOICE   41
 BYTE   VOL   40*FE16RespiteandSunlightMikeySeregon_mvl/mxv
 BYTE   PAN   c_v-2
 BYTE   W12
 BYTE   Dn3
 BYTE   BEND   c_v+0
 BYTE   N03  Cs3  v120
 BYTE   W12
 BYTE   N03
 BYTE   W36
 BYTE   Cn3
 BYTE   W36
// 001   ----------------------------------------
Label_6_0105CE2C:
 BYTE   N03  Cs3  v120
 BYTE   W12
 BYTE   N03
 BYTE   W24
 BYTE   Cn3
 BYTE   W60
 BYTE   PEND 
// 002   ----------------------------------------
Label_6_0105CE35:
 BYTE   W12
 BYTE   N03  Cs3  v120
 BYTE   W12
 BYTE   N03
 BYTE   W36
 BYTE   Cn3
 BYTE   W36
 BYTE   PEND 
// 003   ----------------------------------------
 BYTE   PATT
  POIN2 Label_6_0105CE2C
// 004   ----------------------------------------
 BYTE   PATT
  POIN2 Label_6_0105CE35
// 005   ----------------------------------------
 BYTE   PATT
  POIN2 Label_6_0105CE2C
// 006   ----------------------------------------
 BYTE   PATT
  POIN2 Label_6_0105CE35
// 007   ----------------------------------------
 BYTE   N03  Cs3  v120
 BYTE   W12
 BYTE   N03
 BYTE   W24
 BYTE   Cn3
 BYTE   W48
Label_6_0105CE5B:
 BYTE   W12
// 008   ----------------------------------------
 BYTE   PATT
  POIN2 Label_6_0105CE35
// 009   ----------------------------------------
 BYTE   PATT
  POIN2 Label_6_0105CE2C
// 010   ----------------------------------------
 BYTE   PATT
  POIN2 Label_6_0105CE35
// 011   ----------------------------------------
 BYTE   PATT
  POIN2 Label_6_0105CE2C
// 012   ----------------------------------------
 BYTE   PATT
  POIN2 Label_6_0105CE35
// 013   ----------------------------------------
 BYTE   PATT
  POIN2 Label_6_0105CE2C
// 014   ----------------------------------------
 BYTE   PATT
  POIN2 Label_6_0105CE35
// 015   ----------------------------------------
 BYTE   PATT
  POIN2 Label_6_0105CE2C
// 016   ----------------------------------------
 BYTE   PATT
  POIN2 Label_6_0105CE35
// 017   ----------------------------------------
 BYTE   PATT
  POIN2 Label_6_0105CE2C
// 018   ----------------------------------------
 BYTE   PATT
  POIN2 Label_6_0105CE35
// 019   ----------------------------------------
 BYTE   PATT
  POIN2 Label_6_0105CE2C
// 020   ----------------------------------------
 BYTE   PATT
  POIN2 Label_6_0105CE35
// 021   ----------------------------------------
 BYTE   PATT
  POIN2 Label_6_0105CE2C
// 022   ----------------------------------------
 BYTE   PATT
  POIN2 Label_6_0105CE35
// 023   ----------------------------------------
 BYTE   PATT
  POIN2 Label_6_0105CE2C
// 024   ----------------------------------------
 BYTE   PATT
  POIN2 Label_6_0105CE35
// 025   ----------------------------------------
 BYTE   PATT
  POIN2 Label_6_0105CE2C
// 026   ----------------------------------------
 BYTE   PATT
  POIN2 Label_6_0105CE35
// 027   ----------------------------------------
 BYTE   PATT
  POIN2 Label_6_0105CE2C
// 028   ----------------------------------------
 BYTE   N24  Fs2  v076
 BYTE   W24
 BYTE   As2
 BYTE   W24
 BYTE   N96  Gs2
 BYTE   W48
// 029   ----------------------------------------
 BYTE   W48
 BYTE   N36  Fs2
 BYTE   W36
 BYTE   N12  Gs2
 BYTE   W12
// 030   ----------------------------------------
 BYTE   An2
 BYTE   W12
 BYTE   Bn2
 BYTE   W12
 BYTE   Cs3
 BYTE   W12
 BYTE   Dn3
 BYTE   W12
 BYTE   N72  Cs3
 BYTE   W48
// 031   ----------------------------------------
 BYTE   W24
 BYTE   N24  Bn2
 BYTE   W24
 BYTE   An2
 BYTE   W24
 BYTE   N12  Gs2
 BYTE   W12
 BYTE   An2
 BYTE   W12
// 032   ----------------------------------------
 BYTE   N36  Cs3
 BYTE   W36
 BYTE   N36
 BYTE   W36
 BYTE   N48
 BYTE   W24
// 033   ----------------------------------------
 BYTE   W24
 BYTE   N72  Bn2
 BYTE   W72
// 034   ----------------------------------------
 BYTE   N32  An2
 BYTE   W36
 BYTE   N36
 BYTE   W36
 BYTE   N48
 BYTE   W24
// 035   ----------------------------------------
 BYTE   W24
 BYTE   N72  Gn2
 BYTE   W72
// 036   ----------------------------------------
Label_6_0105CEFC:
 BYTE   W12
 BYTE   N03  Dn3  v120
 BYTE   W12
 BYTE   N03
 BYTE   W36
 BYTE   Cn3
 BYTE   W36
 BYTE   PEND 
// 037   ----------------------------------------
Label_6_0105CF06:
 BYTE   N03  Dn3  v120
 BYTE   W12
 BYTE   N03
 BYTE   W24
 BYTE   Cn3
 BYTE   W60
 BYTE   PEND 
// 038   ----------------------------------------
 BYTE   PATT
  POIN2 Label_6_0105CEFC
// 039   ----------------------------------------
 BYTE   PATT
  POIN2 Label_6_0105CF06
// 040   ----------------------------------------
 BYTE   PATT
  POIN2 Label_6_0105CE35
// 041   ----------------------------------------
 BYTE   PATT
  POIN2 Label_6_0105CE2C
// 042   ----------------------------------------
 BYTE   PATT
  POIN2 Label_6_0105CE35
// 043   ----------------------------------------
 BYTE   PATT
  POIN2 Label_6_0105CE2C
// 044   ----------------------------------------
 BYTE   W12
 BYTE   N03  Cs3  v120
 BYTE   W12
 BYTE   N03
 BYTE   W36
 BYTE   Cn3
 BYTE   W24
 BYTE   GoTo
  POIN2 Label_6_0105CE5B
// 045   ----------------------------------------
 BYTE   W12
// 046   ----------------------------------------
 BYTE   PATT
  POIN2 Label_6_0105CE2C
 BYTE   FINE

//**************** Track 8 (Midi-Chn.7) ****************//

FE16RespiteandSunlightMikeySeregon_008:
// 000   ----------------------------------------
 BYTE   KEYSH   FE16RespiteandSunlightMikeySeregon_key+0
 BYTE   VOICE   42
 BYTE   VOL   40*FE16RespiteandSunlightMikeySeregon_mvl/mxv
 BYTE   PAN   c_v-2
 BYTE   Dn3
 BYTE   BEND   c_v+0
 BYTE   N03  Gs1  v120
 BYTE   W12
 BYTE   Ds2
 BYTE   W12
 BYTE   Gs2
 BYTE   W12
 BYTE   As1
 BYTE   W24
 BYTE   As2
 BYTE   W24
 BYTE   Gs1
 BYTE   W12
// 001   ----------------------------------------
Label_7_0105CCD1:
 BYTE   N03  Ds2  v120
 BYTE   W12
 BYTE   Gs2
 BYTE   W12
 BYTE   Fn2
 BYTE   W12
 BYTE   As2
 BYTE   W60
 BYTE   PEND 
// 002   ----------------------------------------
Label_7_0105CCDC:
 BYTE   N03  Gs1  v120
 BYTE   W12
 BYTE   Ds2
 BYTE   W12
 BYTE   Gs2
 BYTE   W12
 BYTE   As1
 BYTE   W24
 BYTE   As2
 BYTE   W24
 BYTE   Gs1
 BYTE   W12
 BYTE   PEND 
// 003   ----------------------------------------
 BYTE   PATT
  POIN2 Label_7_0105CCD1
// 004   ----------------------------------------
 BYTE   PATT
  POIN2 Label_7_0105CCDC
// 005   ----------------------------------------
 BYTE   PATT
  POIN2 Label_7_0105CCD1
// 006   ----------------------------------------
Label_7_0105CCFA:
 BYTE   N03  Gs1  v120
 BYTE   W12
 BYTE   Ds2
 BYTE   W12
 BYTE   Gs2
 BYTE   W12
 BYTE   As1
 BYTE   W24
 BYTE   As2
 BYTE   W24
 BYTE   Bn1
 BYTE   W12
 BYTE   PEND 
// 007   ----------------------------------------
 BYTE   Fs2
 BYTE   W12
 BYTE   As2
 BYTE   W12
 BYTE   Cs2
 BYTE   W12
 BYTE   Gs2
 BYTE   W48
Label_7_0105CD11:
 BYTE   W12
// 008   ----------------------------------------
 BYTE   PATT
  POIN2 Label_7_0105CCDC
// 009   ----------------------------------------
 BYTE   PATT
  POIN2 Label_7_0105CCD1
// 010   ----------------------------------------
 BYTE   PATT
  POIN2 Label_7_0105CCDC
// 011   ----------------------------------------
 BYTE   PATT
  POIN2 Label_7_0105CCD1
// 012   ----------------------------------------
 BYTE   PATT
  POIN2 Label_7_0105CCDC
// 013   ----------------------------------------
 BYTE   PATT
  POIN2 Label_7_0105CCD1
// 014   ----------------------------------------
 BYTE   PATT
  POIN2 Label_7_0105CCDC
// 015   ----------------------------------------
 BYTE   PATT
  POIN2 Label_7_0105CCD1
// 016   ----------------------------------------
 BYTE   PATT
  POIN2 Label_7_0105CCDC
// 017   ----------------------------------------
 BYTE   PATT
  POIN2 Label_7_0105CCD1
// 018   ----------------------------------------
 BYTE   PATT
  POIN2 Label_7_0105CCFA
// 019   ----------------------------------------
 BYTE   N03  Fs2  v120
 BYTE   W12
 BYTE   As2
 BYTE   W12
 BYTE   Cs2
 BYTE   W12
 BYTE   Gs2
 BYTE   W60
// 020   ----------------------------------------
 BYTE   PATT
  POIN2 Label_7_0105CCDC
// 021   ----------------------------------------
 BYTE   PATT
  POIN2 Label_7_0105CCD1
// 022   ----------------------------------------
 BYTE   PATT
  POIN2 Label_7_0105CCDC
// 023   ----------------------------------------
 BYTE   PATT
  POIN2 Label_7_0105CCD1
// 024   ----------------------------------------
 BYTE   PATT
  POIN2 Label_7_0105CCDC
// 025   ----------------------------------------
 BYTE   PATT
  POIN2 Label_7_0105CCD1
// 026   ----------------------------------------
 BYTE   PATT
  POIN2 Label_7_0105CCDC
// 027   ----------------------------------------
 BYTE   PATT
  POIN2 Label_7_0105CCD1
// 028   ----------------------------------------
 BYTE   N96  Bn1  v076
 BYTE   W96
// 029   ----------------------------------------
 BYTE   As1
 BYTE   W96
// 030   ----------------------------------------
 BYTE   Dn2
 BYTE   W96
// 031   ----------------------------------------
 BYTE   N72  En2
 BYTE   W72
 BYTE   N24  Bn1
 BYTE   W24
// 032   ----------------------------------------
 BYTE   N36  Fs2
 BYTE   W36
 BYTE   En2
 BYTE   W36
 BYTE   N96  Dn2
 BYTE   W24
// 033   ----------------------------------------
 BYTE   W72
 BYTE   N60
 BYTE   W24
// 034   ----------------------------------------
 BYTE   W36
 BYTE   N36  Cn2
 BYTE   W36
 BYTE   N72  As1
 BYTE   W24
// 035   ----------------------------------------
 BYTE   W48
 BYTE   N48  Gs1
 BYTE   W48
// 036   ----------------------------------------
Label_7_0105CD9F:
 BYTE   N03  Gn1  v120
 BYTE   W12
 BYTE   Dn2
 BYTE   W12
 BYTE   Gn2
 BYTE   W12
 BYTE   Fn1
 BYTE   W24
 BYTE   Fn2
 BYTE   W24
 BYTE   Gn1
 BYTE   W12
 BYTE   PEND 
// 037   ----------------------------------------
Label_7_0105CDAE:
 BYTE   N03  Dn2  v120
 BYTE   W12
 BYTE   Gn2
 BYTE   W12
 BYTE   En2
 BYTE   W12
 BYTE   An2
 BYTE   W60
 BYTE   PEND 
// 038   ----------------------------------------
 BYTE   PATT
  POIN2 Label_7_0105CD9F
// 039   ----------------------------------------
 BYTE   PATT
  POIN2 Label_7_0105CDAE
// 040   ----------------------------------------
 BYTE   PATT
  POIN2 Label_7_0105CCDC
// 041   ----------------------------------------
 BYTE   PATT
  POIN2 Label_7_0105CCD1
// 042   ----------------------------------------
 BYTE   PATT
  POIN2 Label_7_0105CCDC
// 043   ----------------------------------------
 BYTE   PATT
  POIN2 Label_7_0105CCD1
// 044   ----------------------------------------
 BYTE   N03  Gs1  v120
 BYTE   W12
 BYTE   Ds2
 BYTE   W12
 BYTE   Gs2
 BYTE   W12
 BYTE   As1
 BYTE   W24
 BYTE   As2
 BYTE   W24
 BYTE   GoTo
  POIN2 Label_7_0105CD11
// 045   ----------------------------------------
 BYTE   N03  Gs1  v120
 BYTE   W12
// 046   ----------------------------------------
 BYTE   PATT
  POIN2 Label_7_0105CCD1
 BYTE   FINE

//**************** Track 9 (Midi-Chn.8) ****************//

FE16RespiteandSunlightMikeySeregon_009:
// 000   ----------------------------------------
 BYTE   KEYSH   FE16RespiteandSunlightMikeySeregon_key+0
 BYTE   VOICE   45
 BYTE   VOL   40*FE16RespiteandSunlightMikeySeregon_mvl/mxv
 BYTE   PAN   c_v-2
 BYTE   Dn3
 BYTE   BEND   c_v+0
 BYTE   N03  Gs2  v120
 BYTE   W36
 BYTE   As2
 BYTE   W48
 BYTE   Gs2
 BYTE   W12
// 001   ----------------------------------------
 BYTE   W96
// 002   ----------------------------------------
Label_8_0105D0BC:
 BYTE   N03  Gs2  v120
 BYTE   W36
 BYTE   As2
 BYTE   W48
 BYTE   Gs2
 BYTE   W12
 BYTE   PEND 
// 003   ----------------------------------------
 BYTE   W96
// 004   ----------------------------------------
Label_8_0105D0C6:
 BYTE   N03  Gs1  v120
 BYTE   W36
 BYTE   As1
 BYTE   W48
 BYTE   Gs1
 BYTE   W12
 BYTE   PEND 
// 005   ----------------------------------------
 BYTE   W96
// 006   ----------------------------------------
Label_8_0105D0D0:
 BYTE   N03  Gs1  v120
 BYTE   W36
 BYTE   As1
 BYTE   W48
 BYTE   Bn1
 BYTE   W12
 BYTE   PEND 
// 007   ----------------------------------------
 BYTE   W24
 BYTE   Cs2
 BYTE   W60
Label_8_0105D0DC:
 BYTE   W12
// 008   ----------------------------------------
 BYTE   PATT
  POIN2 Label_8_0105D0C6
// 009   ----------------------------------------
 BYTE   W96
// 010   ----------------------------------------
 BYTE   PATT
  POIN2 Label_8_0105D0C6
// 011   ----------------------------------------
 BYTE   W96
// 012   ----------------------------------------
 BYTE   PATT
  POIN2 Label_8_0105D0C6
// 013   ----------------------------------------
 BYTE   W96
// 014   ----------------------------------------
 BYTE   PATT
  POIN2 Label_8_0105D0C6
// 015   ----------------------------------------
 BYTE   W96
// 016   ----------------------------------------
 BYTE   PATT
  POIN2 Label_8_0105D0C6
// 017   ----------------------------------------
 BYTE   W96
// 018   ----------------------------------------
 BYTE   PATT
  POIN2 Label_8_0105D0D0
// 019   ----------------------------------------
 BYTE   W24
 BYTE   N03  Cs2  v120
 BYTE   W72
// 020   ----------------------------------------
 BYTE   PATT
  POIN2 Label_8_0105D0C6
// 021   ----------------------------------------
 BYTE   W96
// 022   ----------------------------------------
 BYTE   PATT
  POIN2 Label_8_0105D0C6
// 023   ----------------------------------------
 BYTE   W96
// 024   ----------------------------------------
 BYTE   PATT
  POIN2 Label_8_0105D0C6
// 025   ----------------------------------------
 BYTE   W96
// 026   ----------------------------------------
 BYTE   PATT
  POIN2 Label_8_0105D0C6
// 027   ----------------------------------------
 BYTE   W96
// 028   ----------------------------------------
 BYTE   N96  Bn2  v076
 BYTE   W96
// 029   ----------------------------------------
 BYTE   As2
 BYTE   W96
// 030   ----------------------------------------
 BYTE   Dn3
 BYTE   W96
// 031   ----------------------------------------
 BYTE   N72  En3
 BYTE   W72
 BYTE   N24  Bn2
 BYTE   W24
// 032   ----------------------------------------
 BYTE   N36  Fs2
 BYTE   W36
 BYTE   En2
 BYTE   W36
 BYTE   N96  Dn2
 BYTE   W24
// 033   ----------------------------------------
 BYTE   W72
 BYTE   N60
 BYTE   W24
// 034   ----------------------------------------
 BYTE   W36
 BYTE   N36  Cn2
 BYTE   W36
 BYTE   N72  As1
 BYTE   W24
// 035   ----------------------------------------
 BYTE   W48
 BYTE   N48  Gs1
 BYTE   W48
// 036   ----------------------------------------
Label_8_0105D141:
 BYTE   N03  Gn1  v120
 BYTE   W36
 BYTE   Fn1
 BYTE   W48
 BYTE   Gn1
 BYTE   W12
 BYTE   PEND 
// 037   ----------------------------------------
 BYTE   W96
// 038   ----------------------------------------
 BYTE   PATT
  POIN2 Label_8_0105D141
// 039   ----------------------------------------
 BYTE   W96
// 040   ----------------------------------------
 BYTE   PATT
  POIN2 Label_8_0105D0BC
// 041   ----------------------------------------
 BYTE   W96
// 042   ----------------------------------------
 BYTE   PATT
  POIN2 Label_8_0105D0BC
// 043   ----------------------------------------
 BYTE   W96
// 044   ----------------------------------------
 BYTE   N03  Gs1  v120
 BYTE   W36
 BYTE   As1
 BYTE   W48
 BYTE   GoTo
  POIN2 Label_8_0105D0DC
// 045   ----------------------------------------
 BYTE   N03  Gs1  v120
 BYTE   W12
 BYTE   W96
 BYTE   FINE

//**************** Track 10 (Midi-Chn.9) ****************//

FE16RespiteandSunlightMikeySeregon_010:
// 000   ----------------------------------------
 BYTE   KEYSH   FE16RespiteandSunlightMikeySeregon_key+0
 BYTE   VOICE   127
 BYTE   VOL   39*FE16RespiteandSunlightMikeySeregon_mvl/mxv
 BYTE   PAN   c_v-2
 BYTE   VOL   39*FE16RespiteandSunlightMikeySeregon_mvl/mxv
 BYTE   W96
// 001   ----------------------------------------
 BYTE   W96
// 002   ----------------------------------------
 BYTE   W96
// 003   ----------------------------------------
 BYTE   W96
// 004   ----------------------------------------
 BYTE   PAN   c_v-2
 BYTE   BEND   c_v+0
 BYTE   N24  Fn4  v064
 BYTE   W24
 BYTE   N24
 BYTE   W24
 BYTE   N24
 BYTE   W24
 BYTE   N24
 BYTE   W24
// 005   ----------------------------------------
Label_9_0105D554:
 BYTE   N24  Fn4  v064
 BYTE   W24
 BYTE   N24
 BYTE   W24
 BYTE   N24
 BYTE   W24
 BYTE   N24
 BYTE   W24
 BYTE   PEND 
// 006   ----------------------------------------
 BYTE   PATT
  POIN2 Label_9_0105D554
// 007   ----------------------------------------
Label_9_0105D564:
 BYTE   N24  Fn4  v064
 BYTE   W24
 BYTE   N24
 BYTE   W24
 BYTE   N24
 BYTE   W24
 BYTE   N24
 BYTE   W12
 BYTE   PEND 
Label_9_0105D56F:
 BYTE   W12
// 008   ----------------------------------------
 BYTE   PATT
  POIN2 Label_9_0105D554
// 009   ----------------------------------------
 BYTE   PATT
  POIN2 Label_9_0105D554
// 010   ----------------------------------------
 BYTE   PATT
  POIN2 Label_9_0105D554
// 011   ----------------------------------------
 BYTE   PATT
  POIN2 Label_9_0105D554
// 012   ----------------------------------------
 BYTE   PATT
  POIN2 Label_9_0105D554
// 013   ----------------------------------------
 BYTE   PATT
  POIN2 Label_9_0105D554
// 014   ----------------------------------------
 BYTE   PATT
  POIN2 Label_9_0105D554
// 015   ----------------------------------------
 BYTE   PATT
  POIN2 Label_9_0105D554
// 016   ----------------------------------------
 BYTE   PATT
  POIN2 Label_9_0105D554
// 017   ----------------------------------------
 BYTE   PATT
  POIN2 Label_9_0105D554
// 018   ----------------------------------------
 BYTE   PATT
  POIN2 Label_9_0105D554
// 019   ----------------------------------------
 BYTE   PATT
  POIN2 Label_9_0105D554
// 020   ----------------------------------------
Label_9_0105D5AC:
 BYTE   N24  Fn4  v064
 BYTE   W12
 BYTE   N12  As4
 BYTE   W12
 BYTE   N24  Fn4
 BYTE   W12
 BYTE   N12  As4
 BYTE   W12
 BYTE   N24  Fn4
 BYTE   W12
 BYTE   N12  As4
 BYTE   W12
 BYTE   N24  Fn4
 BYTE   W12
 BYTE   N12  As4
 BYTE   W12
 BYTE   PEND 
// 021   ----------------------------------------
Label_9_0105D5C6:
 BYTE   N24  Fn4  v064
 BYTE   W12
 BYTE   N12  As4
 BYTE   W12
 BYTE   N24  Fn4
 BYTE   W12
 BYTE   N12  As4
 BYTE   W12
 BYTE   N18  Fn4
 BYTE   W12
 BYTE   N12  As4
 BYTE   W06
 BYTE   N06  Fn4
 BYTE   W06
 BYTE   N06
 BYTE   W06
 BYTE   N18
 BYTE   W06
 BYTE   N12  As4
 BYTE   W12
 BYTE   PEND 
// 022   ----------------------------------------
Label_9_0105D5E4:
 BYTE   N24  Fn4  v064
 BYTE   W12
 BYTE   N12  As4
 BYTE   W12
 BYTE   N18  Fn4
 BYTE   W12
 BYTE   N12  As4
 BYTE   W06
 BYTE   N06  Fn4
 BYTE   W06
 BYTE   N06
 BYTE   W06
 BYTE   N18
 BYTE   W06
 BYTE   N12  As4
 BYTE   W12
 BYTE   N24  Fn4
 BYTE   W12
 BYTE   N12  As4
 BYTE   W12
 BYTE   PEND 
// 023   ----------------------------------------
 BYTE   PATT
  POIN2 Label_9_0105D5AC
// 024   ----------------------------------------
 BYTE   PATT
  POIN2 Label_9_0105D5AC
// 025   ----------------------------------------
 BYTE   PATT
  POIN2 Label_9_0105D5C6
// 026   ----------------------------------------
 BYTE   PATT
  POIN2 Label_9_0105D5E4
// 027   ----------------------------------------
 BYTE   PATT
  POIN2 Label_9_0105D5AC
// 028   ----------------------------------------
 BYTE   W96
// 029   ----------------------------------------
 BYTE   W96
// 030   ----------------------------------------
 BYTE   W96
// 031   ----------------------------------------
 BYTE   W96
// 032   ----------------------------------------
 BYTE   W12
 BYTE   N12  Gs4  v064
 BYTE   W12
 BYTE   N12
 BYTE   W12
 BYTE   N12
 BYTE   W12
 BYTE   An4
 BYTE   W12
 BYTE   Gs4
 BYTE   W12
 BYTE   N12
 BYTE   W12
 BYTE   N06
 BYTE   W06
 BYTE   N06
 BYTE   W06
// 033   ----------------------------------------
Label_9_0105D632:
 BYTE   N12  An4  v064
 BYTE   W12
 BYTE   Gs4
 BYTE   W12
 BYTE   N12
 BYTE   W12
 BYTE   N12
 BYTE   W12
 BYTE   An4
 BYTE   W12
 BYTE   Gs4
 BYTE   W12
 BYTE   N24
 BYTE   W24
 BYTE   PEND 
// 034   ----------------------------------------
 BYTE   N12  An4
 BYTE   W12
 BYTE   Gs4
 BYTE   W12
 BYTE   N12
 BYTE   W12
 BYTE   N12
 BYTE   W12
 BYTE   An4
 BYTE   W12
 BYTE   Gs4
 BYTE   W12
 BYTE   N12
 BYTE   W12
 BYTE   N06
 BYTE   W06
 BYTE   N06
 BYTE   W06
// 035   ----------------------------------------
 BYTE   PATT
  POIN2 Label_9_0105D632
// 036   ----------------------------------------
 BYTE   W96
// 037   ----------------------------------------
 BYTE   W96
// 038   ----------------------------------------
 BYTE   W96
// 039   ----------------------------------------
 BYTE   W96
// 040   ----------------------------------------
 BYTE   PATT
  POIN2 Label_9_0105D554
// 041   ----------------------------------------
 BYTE   PATT
  POIN2 Label_9_0105D554
// 042   ----------------------------------------
 BYTE   PATT
  POIN2 Label_9_0105D554
// 043   ----------------------------------------
 BYTE   PATT
  POIN2 Label_9_0105D554
// 044   ----------------------------------------
 BYTE   PATT
  POIN2 Label_9_0105D564
// 045   ----------------------------------------
 BYTE   GoTo
  POIN2 Label_9_0105D56F
// 046   ----------------------------------------
 BYTE   W12
// 047   ----------------------------------------
 BYTE   PATT
  POIN2 Label_9_0105D554
 BYTE   FINE

//**************** Track 11 (Midi-Chn.10) ****************//

FE16RespiteandSunlightMikeySeregon_011:
// 000   ----------------------------------------
 BYTE   KEYSH   FE16RespiteandSunlightMikeySeregon_key+0
 BYTE   VOICE   68
 BYTE   VOL   40*FE16RespiteandSunlightMikeySeregon_mvl/mxv
 BYTE   W96
// 001   ----------------------------------------
 BYTE   W96
// 002   ----------------------------------------
 BYTE   W96
// 003   ----------------------------------------
 BYTE   W96
// 004   ----------------------------------------
 BYTE   W96
// 005   ----------------------------------------
 BYTE   W96
// 006   ----------------------------------------
 BYTE   W96
// 007   ----------------------------------------
 BYTE   W84
Label_10_0105D6D2:
 BYTE   W12
// 008   ----------------------------------------
 BYTE   W96
// 009   ----------------------------------------
 BYTE   W60
 BYTE   N12  Cn5  v064
 BYTE   W12
 BYTE   Fs4
 BYTE   W12
 BYTE   N06  Fn4
 BYTE   W06
 BYTE   Ds4
 BYTE   W06
// 010   ----------------------------------------
 BYTE   W96
// 011   ----------------------------------------
 BYTE   W96
// 012   ----------------------------------------
 BYTE   W96
// 013   ----------------------------------------
Label_10_0105D6E3:
 BYTE   W60
 BYTE   N12  Cn5  v076
 BYTE   W12
 BYTE   Fs4
 BYTE   W12
 BYTE   N06  Fn4
 BYTE   W06
 BYTE   Ds4
 BYTE   W06
 BYTE   PEND 
// 014   ----------------------------------------
 BYTE   W96
// 015   ----------------------------------------
 BYTE   W96
// 016   ----------------------------------------
 BYTE   W96
// 017   ----------------------------------------
 BYTE   W96
// 018   ----------------------------------------
 BYTE   W96
// 019   ----------------------------------------
 BYTE   W96
// 020   ----------------------------------------
 BYTE   W96
// 021   ----------------------------------------
 BYTE   W96
// 022   ----------------------------------------
 BYTE   W96
// 023   ----------------------------------------
 BYTE   W96
// 024   ----------------------------------------
 BYTE   W96
// 025   ----------------------------------------
 BYTE   PATT
  POIN2 Label_10_0105D6E3
// 026   ----------------------------------------
 BYTE   W96
// 027   ----------------------------------------
 BYTE   W96
// 028   ----------------------------------------
 BYTE   W96
// 029   ----------------------------------------
 BYTE   W96
// 030   ----------------------------------------
 BYTE   W96
// 031   ----------------------------------------
 BYTE   W96
// 032   ----------------------------------------
 BYTE   W96
// 033   ----------------------------------------
 BYTE   W96
// 034   ----------------------------------------
 BYTE   W96
// 035   ----------------------------------------
 BYTE   W96
// 036   ----------------------------------------
 BYTE   W96
// 037   ----------------------------------------
 BYTE   W96
// 038   ----------------------------------------
 BYTE   W96
// 039   ----------------------------------------
 BYTE   W96
// 040   ----------------------------------------
 BYTE   W96
// 041   ----------------------------------------
 BYTE   W96
// 042   ----------------------------------------
 BYTE   W96
// 043   ----------------------------------------
 BYTE   W96
// 044   ----------------------------------------
 BYTE   W84
 BYTE   GoTo
  POIN2 Label_10_0105D6D2
// 045   ----------------------------------------
 BYTE   W12
 BYTE   W96
 BYTE   FINE

//**************** Track 12 (Midi-Chn.11) ****************//

FE16RespiteandSunlightMikeySeregon_012:
// 000   ----------------------------------------
 BYTE   KEYSH   FE16RespiteandSunlightMikeySeregon_key+0
 BYTE   VOICE   1
 BYTE   VOL   40*FE16RespiteandSunlightMikeySeregon_mvl/mxv
 BYTE   W96
// 001   ----------------------------------------
 BYTE   W96
// 002   ----------------------------------------
 BYTE   W96
// 003   ----------------------------------------
 BYTE   W96
// 004   ----------------------------------------
 BYTE   W96
// 005   ----------------------------------------
 BYTE   W96
// 006   ----------------------------------------
 BYTE   W96
// 007   ----------------------------------------
 BYTE   W84
Label_11_0105D73A:
 BYTE   W12
// 008   ----------------------------------------
 BYTE   W96
// 009   ----------------------------------------
Label_11_0105D73C:
 BYTE   W60
 BYTE   N12  Cn5  v076
 BYTE   W12
 BYTE   Fs4
 BYTE   W12
 BYTE   N06  Fn4
 BYTE   W06
 BYTE   Ds4
 BYTE   W06
 BYTE   PEND 
// 010   ----------------------------------------
 BYTE   W96
// 011   ----------------------------------------
 BYTE   W96
// 012   ----------------------------------------
 BYTE   W96
// 013   ----------------------------------------
 BYTE   PATT
  POIN2 Label_11_0105D73C
// 014   ----------------------------------------
 BYTE   W96
// 015   ----------------------------------------
 BYTE   W96
// 016   ----------------------------------------
 BYTE   W96
// 017   ----------------------------------------
 BYTE   W96
// 018   ----------------------------------------
 BYTE   W96
// 019   ----------------------------------------
 BYTE   W96
// 020   ----------------------------------------
 BYTE   W96
// 021   ----------------------------------------
 BYTE   PATT
  POIN2 Label_11_0105D73C
// 022   ----------------------------------------
 BYTE   W96
// 023   ----------------------------------------
 BYTE   W96
// 024   ----------------------------------------
 BYTE   W96
// 025   ----------------------------------------
 BYTE   PATT
  POIN2 Label_11_0105D73C
// 026   ----------------------------------------
 BYTE   W96
// 027   ----------------------------------------
 BYTE   W96
// 028   ----------------------------------------
 BYTE   W96
// 029   ----------------------------------------
 BYTE   W96
// 030   ----------------------------------------
 BYTE   W96
// 031   ----------------------------------------
 BYTE   W96
// 032   ----------------------------------------
 BYTE   W96
// 033   ----------------------------------------
 BYTE   W96
// 034   ----------------------------------------
 BYTE   W96
// 035   ----------------------------------------
 BYTE   W96
// 036   ----------------------------------------
 BYTE   W96
// 037   ----------------------------------------
 BYTE   W96
// 038   ----------------------------------------
 BYTE   W96
// 039   ----------------------------------------
 BYTE   W96
// 040   ----------------------------------------
 BYTE   W96
// 041   ----------------------------------------
 BYTE   W96
// 042   ----------------------------------------
 BYTE   W96
// 043   ----------------------------------------
 BYTE   W96
// 044   ----------------------------------------
 BYTE   W84
 BYTE   GoTo
  POIN2 Label_11_0105D73A
// 045   ----------------------------------------
 BYTE   W12
 BYTE   W96
 BYTE   FINE

//******************************************************//
	ALIGN 4

FE16RespiteandSunlightMikeySeregon:
	BYTE	12	// NumTrks
	BYTE	0	// NumBlks
	BYTE	FE16RespiteandSunlightMikeySeregon_pri	// Priority
	BYTE	FE16RespiteandSunlightMikeySeregon_rev	// Reverb.
    
	POIN2	FE16RespiteandSunlightMikeySeregon_grp
    
	POIN2	FE16RespiteandSunlightMikeySeregon_001
	POIN2	FE16RespiteandSunlightMikeySeregon_002
	POIN2	FE16RespiteandSunlightMikeySeregon_003
	POIN2	FE16RespiteandSunlightMikeySeregon_004
	POIN2	FE16RespiteandSunlightMikeySeregon_005
	POIN2	FE16RespiteandSunlightMikeySeregon_006
	POIN2	FE16RespiteandSunlightMikeySeregon_007
	POIN2	FE16RespiteandSunlightMikeySeregon_008
	POIN2	FE16RespiteandSunlightMikeySeregon_009
	POIN2	FE16RespiteandSunlightMikeySeregon_010
	POIN2	FE16RespiteandSunlightMikeySeregon_011
	POIN2	FE16RespiteandSunlightMikeySeregon_012

	
