//Event file generated from Sappy .s format.
	#include "MPlayDef.event"

	#define	FE17BrightSandstormKaidras_grp  voicegroup000
	#define	FE17BrightSandstormKaidras_pri  0
	#define	FE17BrightSandstormKaidras_rev  0
	#define	FE17BrightSandstormKaidras_mvl  127
	#define	FE17BrightSandstormKaidras_key  0
	#define	FE17BrightSandstormKaidras_tbs  1
	#define	FE17BrightSandstormKaidras_exg  0
	#define	FE17BrightSandstormKaidras_cmp  1

	// .rodata
	//	FE17BrightSandstormKaidras
	ALIGN 4


//**************** Track 1 (Midi-Chn.0) ****************//

FE17BrightSandstormKaidras_001:
//  #01 //000   ----------------------------------------
 BYTE   VOL   75*FE17BrightSandstormKaidras_mvl/mxv
 BYTE   KEYSH   FE17BrightSandstormKaidras_key+0
 BYTE   TEMPO   134*FE17BrightSandstormKaidras_tbs/2
 BYTE   VOICE   34
 BYTE   MODT 0
 BYTE   LFOS 44
 BYTE   W96
//  #01 //001   ----------------------------------------
Label_01009021:
 BYTE   N07  Bn1  v124
 BYTE   W16
 BYTE   N10  Bn1  v120
 BYTE   W32
 BYTE   N07  Bn1  v124
 BYTE   W16
 BYTE   N08  Bn1  v120
 BYTE   W32
 BYTE   PEND 
//  #01 //002   ----------------------------------------
Label_01009032:
 BYTE   N07  Bn1  v127
 BYTE   W16
 BYTE   N08  Bn1  v124
 BYTE   W32
 BYTE   N06
 BYTE   W14
 BYTE   N09
 BYTE   W32
 BYTE   W02
 BYTE   PEND 
//  #01 //003   ----------------------------------------
Label_01009040:
 BYTE   N07  Bn1  v124
 BYTE   W16
 BYTE   N09
 BYTE   W32
 BYTE   N07
 BYTE   W16
 BYTE   N09
 BYTE   W30
 BYTE   W01
 BYTE   N08
 BYTE   W01
 BYTE   PEND 
//  #01 //004   ----------------------------------------
Label_0100904E:
 BYTE   W16
 BYTE   N11  Bn1  v124
 BYTE   W32
 BYTE   N07
 BYTE   W16
 BYTE   N11  Bn1  v120
 BYTE   W32
 BYTE   PEND 
//  #01 //005   ----------------------------------------
Label_0100905A:
 BYTE   N08  Bn1  v124
 BYTE   W16
 BYTE   N13  Bn1  v120
 BYTE   W32
 BYTE   N07
 BYTE   W16
 BYTE   N10
 BYTE   W30
 BYTE   W01
 BYTE   N08  Bn1  v124
 BYTE   W01
//  #01 //006   ----------------------------------------
 BYTE   W16
 BYTE   N10
 BYTE   W32
 BYTE   N10
 BYTE   W16
 BYTE   N12  Bn1  v120
 BYTE   W32
//  #01 //007   ----------------------------------------
 BYTE   N08  An1
 BYTE   W16
 BYTE   N11  An1  v124
 BYTE   W32
 BYTE   N08
 BYTE   W16
 BYTE   An1  v120
 BYTE   W32
//  #01 //008   ----------------------------------------
 BYTE   An1  v124
 BYTE   W16
 BYTE   N09  An1  v120
 BYTE   W32
 BYTE   An1  v124
 BYTE   W16
 BYTE   N10
 BYTE   W32
//  #01 //009   ----------------------------------------
 BYTE   PATT
  POIN2 Label_01009021
//  #01 //010   ----------------------------------------
 BYTE   PATT
  POIN2 Label_01009032
//  #01 //011   ----------------------------------------
Label_01009096:
 BYTE   N07  An1  v124
 BYTE   W16
 BYTE   N09
 BYTE   W32
 BYTE   N07
 BYTE   W16
 BYTE   N09
 BYTE   W30
 BYTE   W01
 BYTE   N08
 BYTE   W01
 BYTE   PEND 
//  #01 //012   ----------------------------------------
Label_010090A4:
 BYTE   W16
 BYTE   N11  An1  v124
 BYTE   W32
 BYTE   N07
 BYTE   W16
 BYTE   N11  An1  v120
 BYTE   W32
 BYTE   PEND 
//  #01 //013   ----------------------------------------
 BYTE   PATT
  POIN2 Label_01009021
//  #01 //014   ----------------------------------------
 BYTE   PATT
  POIN2 Label_01009032
//  #01 //015   ----------------------------------------
 BYTE   PATT
  POIN2 Label_01009096
//  #01 //016   ----------------------------------------
 BYTE   PATT
  POIN2 Label_010090A4
//  #01 //017   ----------------------------------------
Label_010090C4:
 BYTE   N07  Gn1  v124
 BYTE   W16
 BYTE   N10  Gn1  v120
 BYTE   W32
 BYTE   N07  Gn1  v124
 BYTE   W16
 BYTE   N08  Gn1  v120
 BYTE   W32
 BYTE   PEND 
//  #01 //018   ----------------------------------------
 BYTE   N07  Gn1  v127
 BYTE   W16
 BYTE   N08  Gn1  v124
 BYTE   W20
 BYTE   N12  Gn1  v072
 BYTE   W12
 BYTE   N06  Gn1  v124
 BYTE   W14
 BYTE   N09
 BYTE   W32
 BYTE   W02
//  #01 //019   ----------------------------------------
Label_010090E8:
 BYTE   N07  En1  v124
 BYTE   W16
 BYTE   N09
 BYTE   W32
 BYTE   N07
 BYTE   W16
 BYTE   N09
 BYTE   W30
 BYTE   W01
 BYTE   N08
 BYTE   W01
 BYTE   PEND 
//  #01 //020   ----------------------------------------
 BYTE   W16
 BYTE   N11
 BYTE   W20
 BYTE   N12  En1  v080
 BYTE   W12
 BYTE   N07  En1  v124
 BYTE   W16
 BYTE   N11  En1  v120
 BYTE   W32
//  #01 //021   ----------------------------------------
 BYTE   N07  Gn1  v124
 BYTE   W16
 BYTE   N10  Gn1  v120
 BYTE   W20
 BYTE   N12  Gn1  v080
 BYTE   W12
 BYTE   N07  Gn1  v124
 BYTE   W16
 BYTE   N08  Gn1  v120
 BYTE   W32
//  #01 //022   ----------------------------------------
 BYTE   N07  An1  v127
 BYTE   W16
 BYTE   N08  An1  v124
 BYTE   W20
 BYTE   N12  An1  v080
 BYTE   W12
 BYTE   N06  An1  v124
 BYTE   W14
 BYTE   N09
 BYTE   W32
 BYTE   W02
//  #01 //023   ----------------------------------------
 BYTE   PATT
  POIN2 Label_01009040
//  #01 //024   ----------------------------------------
Label_01009131:
 BYTE   W16
 BYTE   N11  Bn1  v124
 BYTE   W32
 BYTE   N07  An1
 BYTE   W16
 BYTE   N11  An1  v120
 BYTE   W32
 BYTE   PEND 
//  #01 //025   ----------------------------------------
 BYTE   PATT
  POIN2 Label_01009021
//  #01 //026   ----------------------------------------
 BYTE   PATT
  POIN2 Label_01009032
//  #01 //027   ----------------------------------------
 BYTE   PATT
  POIN2 Label_01009096
//  #01 //028   ----------------------------------------
 BYTE   PATT
  POIN2 Label_010090A4
//  #01 //029   ----------------------------------------
 BYTE   PATT
  POIN2 Label_01009021
//  #01 //030   ----------------------------------------
 BYTE   PATT
  POIN2 Label_01009032
//  #01 //031   ----------------------------------------
 BYTE   PATT
  POIN2 Label_01009096
//  #01 //032   ----------------------------------------
 BYTE   PATT
  POIN2 Label_010090A4
//  #01 //033   ----------------------------------------
 BYTE   PATT
  POIN2 Label_010090C4
//  #01 //034   ----------------------------------------
 BYTE   N07  Gn1  v127
 BYTE   W16
 BYTE   N08  Gn1  v124
 BYTE   W32
 BYTE   N06
 BYTE   W14
 BYTE   N09
 BYTE   W32
 BYTE   W02
//  #01 //035   ----------------------------------------
 BYTE   PATT
  POIN2 Label_010090E8
//  #01 //036   ----------------------------------------
 BYTE   W16
 BYTE   N11  En1  v124
 BYTE   W32
 BYTE   N07
 BYTE   W16
 BYTE   N11  En1  v120
 BYTE   W32
//  #01 //037   ----------------------------------------
 BYTE   PATT
  POIN2 Label_010090C4
//  #01 //038   ----------------------------------------
 BYTE   N07  An1  v127
 BYTE   W16
 BYTE   N08  An1  v124
 BYTE   W32
 BYTE   N06
 BYTE   W14
 BYTE   N09
 BYTE   W32
 BYTE   W02
//  #01 //039   ----------------------------------------
 BYTE   PATT
  POIN2 Label_01009040
//  #01 //040   ----------------------------------------
 BYTE   PATT
  POIN2 Label_01009131
//  #01 //041   ----------------------------------------
 BYTE   N05  Bn1  v084
 BYTE   W16
 BYTE   N08
 BYTE   W16
 BYTE   N14  Fs1  v076
 BYTE   W16
 BYTE   N07  Bn1  v080
 BYTE   W16
 BYTE   N05  Bn1  v084
 BYTE   W16
 BYTE   N12  Fs1  v080
 BYTE   W16
//  #01 //042   ----------------------------------------
 BYTE   N05  Bn1  v072
 BYTE   W16
 BYTE   N06  Bn1  v080
 BYTE   W16
 BYTE   N12  Fs1
 BYTE   W16
 BYTE   N05  Bn1  v068
 BYTE   W16
 BYTE   N06  Bn1  v084
 BYTE   W16
 BYTE   N12  Fs1
 BYTE   W16
//  #01 //043   ----------------------------------------
 BYTE   N06  Bn1  v072
 BYTE   W16
 BYTE   Bn1  v084
 BYTE   W16
 BYTE   N11  Fs1
 BYTE   W16
 BYTE   N06  Bn1  v076
 BYTE   W16
 BYTE   N05  Bn1  v084
 BYTE   W16
 BYTE   N11  Fs1
 BYTE   W16
//  #01 //044   ----------------------------------------
 BYTE   N06  Bn1
 BYTE   W16
 BYTE   N05
 BYTE   W16
 BYTE   N12  Fs1
 BYTE   W16
 BYTE   N06  Bn1  v080
 BYTE   W16
 BYTE   N05  Bn1  v084
 BYTE   W16
 BYTE   N11  Fs1
 BYTE   W16
//  #01 //045   ----------------------------------------
 BYTE   N07  Bn1
 BYTE   W16
 BYTE   N05
 BYTE   W16
 BYTE   N11  Fs1  v088
 BYTE   W16
 BYTE   N06  Bn1  v084
 BYTE   W16
 BYTE   Bn1  v080
 BYTE   W16
 BYTE   N12  Fs1  v088
 BYTE   W16
//  #01 //046   ----------------------------------------
 BYTE   N06  Bn1  v084
 BYTE   W16
 BYTE   Bn1  v080
 BYTE   W16
 BYTE   N11  Fs1  v088
 BYTE   W16
 BYTE   N05  Bn1  v080
 BYTE   W16
 BYTE   N07  Bn1  v084
 BYTE   W16
 BYTE   N12  Fs1
 BYTE   W16
//  #01 //047   ----------------------------------------
 BYTE   N06  Bn1
 BYTE   W16
 BYTE   N05
 BYTE   W16
 BYTE   N12  Fs1
 BYTE   W16
 BYTE   N05  Bn1  v080
 BYTE   W16
 BYTE   N06  Bn1  v084
 BYTE   W16
 BYTE   N13
 BYTE   W16
//  #01 //048   ----------------------------------------
 BYTE   W96
//  #01 //049   ----------------------------------------
Label_01009235:
 BYTE   N07  Gs1  v124
 BYTE   W16
 BYTE   N10  Gs1  v120
 BYTE   W32
 BYTE   N07  Gs1  v124
 BYTE   W16
 BYTE   N10
 BYTE   W32
 BYTE   PEND 
//  #01 //050   ----------------------------------------
Label_01009244:
 BYTE   N07  Gs1  v127
 BYTE   W16
 BYTE   N12  Gs1  v120
 BYTE   W32
 BYTE   N07  Gs1  v104
 BYTE   W16
 BYTE   N15  Gs1  v127
 BYTE   W32
 BYTE   PEND 
//  #01 //051   ----------------------------------------
Label_01009255:
 BYTE   N08  Ds1  v127
 BYTE   W16
 BYTE   N11  Ds1  v124
 BYTE   W32
 BYTE   N07  Ds1  v127
 BYTE   W16
 BYTE   N11  Ds1  v124
 BYTE   W32
 BYTE   PEND 
//  #01 //052   ----------------------------------------
Label_01009266:
 BYTE   N07  Fn1  v116
 BYTE   W16
 BYTE   N08  Fn1  v120
 BYTE   W32
 BYTE   N09
 BYTE   W16
 BYTE   N08
 BYTE   W32
 BYTE   PEND 
//  #01 //053   ----------------------------------------
 BYTE   PATT
  POIN2 Label_01009235
//  #01 //054   ----------------------------------------
 BYTE   PATT
  POIN2 Label_01009244
//  #01 //055   ----------------------------------------
 BYTE   PATT
  POIN2 Label_01009255
//  #01 //056   ----------------------------------------
 BYTE   PATT
  POIN2 Label_01009266
//  #01 //057   ----------------------------------------
Label_01009287:
 BYTE   W02
 BYTE   N07  An1  v124
 BYTE   W16
 BYTE   N10  An1  v120
 BYTE   W32
 BYTE   N07  An1  v124
 BYTE   W16
 BYTE   N10
 BYTE   W30
 BYTE   PEND 
//  #01 //058   ----------------------------------------
Label_01009297:
 BYTE   W02
 BYTE   N07  An1  v127
 BYTE   W16
 BYTE   N12  An1  v120
 BYTE   W32
 BYTE   N07  An1  v104
 BYTE   W16
 BYTE   N15  An1  v127
 BYTE   W30
 BYTE   PEND 
//  #01 //059   ----------------------------------------
Label_010092A9:
 BYTE   W02
 BYTE   N08  En1  v127
 BYTE   W16
 BYTE   N11  En1  v124
 BYTE   W32
 BYTE   N07  En1  v127
 BYTE   W16
 BYTE   N11  En1  v124
 BYTE   W30
 BYTE   PEND 
//  #01 //060   ----------------------------------------
Label_010092BB:
 BYTE   W02
 BYTE   N07  Fs1  v116
 BYTE   W16
 BYTE   N08  Fs1  v120
 BYTE   W32
 BYTE   N09
 BYTE   W16
 BYTE   N08
 BYTE   W30
 BYTE   PEND 
//  #01 //061   ----------------------------------------
 BYTE   PATT
  POIN2 Label_01009287
//  #01 //062   ----------------------------------------
 BYTE   PATT
  POIN2 Label_01009297
//  #01 //063   ----------------------------------------
 BYTE   PATT
  POIN2 Label_010092A9
//  #01 //064   ----------------------------------------
 BYTE   PATT
  POIN2 Label_010092BB
//  #01 //065   ----------------------------------------
 BYTE   W02
 BYTE   N14  As1  v076
 BYTE   W16
 BYTE   N05  Fn1  v096
 BYTE   W16
 BYTE   N04  Fn1  v100
 BYTE   W16
 BYTE   N15  As1  v092
 BYTE   W16
 BYTE   N08  Fn1
 BYTE   W16
 BYTE   As1
 BYTE   W14
//  #01 //066   ----------------------------------------
 BYTE   W02
 BYTE   N16  Fn1  v096
 BYTE   W92
 BYTE   W02
//  #01 //067   ----------------------------------------
Label_010092F9:
 BYTE   N08  Dn1  v072
 BYTE   W16
 BYTE   Dn1  v068
 BYTE   W32
 BYTE   Dn1  v072
 BYTE   W16
 BYTE   Dn1  v068
 BYTE   W32
 BYTE   PEND 
//  #01 //068   ----------------------------------------
Label_01009307:
 BYTE   N08  Cn1  v072
 BYTE   W16
 BYTE   Cn1  v068
 BYTE   W32
 BYTE   Cn1  v072
 BYTE   W16
 BYTE   Cn1  v068
 BYTE   W32
 BYTE   PEND 
//  #01 //069   ----------------------------------------
Label_01009315:
 BYTE   N08  Fn1  v072
 BYTE   W16
 BYTE   Fn1  v068
 BYTE   W32
 BYTE   Fn1  v072
 BYTE   W16
 BYTE   Fn1  v068
 BYTE   W32
 BYTE   PEND 
//  #01 //070   ----------------------------------------
Label_01009323:
 BYTE   N08  Dn1  v068
 BYTE   W16
 BYTE   N08
 BYTE   W32
 BYTE   N08
 BYTE   W16
 BYTE   N08
 BYTE   W32
 BYTE   PEND 
//  #01 //071   ----------------------------------------
 BYTE   PATT
  POIN2 Label_010092F9
//  #01 //072   ----------------------------------------
 BYTE   PATT
  POIN2 Label_01009315
//  #01 //073   ----------------------------------------
 BYTE   N08  Gn1  v072
 BYTE   W16
 BYTE   Gn1  v068
 BYTE   W32
 BYTE   Gn1  v072
 BYTE   W16
 BYTE   Gn1  v068
 BYTE   W32
//  #01 //074   ----------------------------------------
 BYTE   Fn1
 BYTE   W16
 BYTE   N08
 BYTE   W32
 BYTE   N08
 BYTE   W16
 BYTE   N08
 BYTE   W32
//  #01 //075   ----------------------------------------
 BYTE   PATT
  POIN2 Label_010092F9
//  #01 //076   ----------------------------------------
 BYTE   PATT
  POIN2 Label_01009307
//  #01 //077   ----------------------------------------
 BYTE   PATT
  POIN2 Label_01009315
//  #01 //078   ----------------------------------------
 BYTE   N08  Gn1  v068
 BYTE   W16
 BYTE   N08
 BYTE   W32
 BYTE   N08
 BYTE   W16
 BYTE   N08
 BYTE   W32
//  #01 //079   ----------------------------------------
Label_01009366:
 BYTE   N08  Ds1  v072
 BYTE   W16
 BYTE   Ds1  v068
 BYTE   W32
 BYTE   Ds1  v072
 BYTE   W16
 BYTE   Ds1  v068
 BYTE   W32
 BYTE   PEND 
//  #01 //080   ----------------------------------------
 BYTE   PATT
  POIN2 Label_010092F9
//  #01 //081   ----------------------------------------
 BYTE   N72  Gn1  v072
 BYTE   W96
//  #01 //082   ----------------------------------------
 BYTE   Fn1  v068
 BYTE   W96
//  #01 //083   ----------------------------------------
Label_01009380:
 BYTE   N24  Ds1  v072
 BYTE   W48
 BYTE   Dn1
 BYTE   W48
 BYTE   PEND 
//  #01 //084   ----------------------------------------
 BYTE   Cn1
 BYTE   W48
 BYTE   Gn1
 BYTE   W48
//  #01 //085   ----------------------------------------
 BYTE   PATT
  POIN2 Label_01009366
//  #01 //086   ----------------------------------------
 BYTE   PATT
  POIN2 Label_01009323
//  #01 //087   ----------------------------------------
 BYTE   PATT
  POIN2 Label_01009380
//  #01 //088   ----------------------------------------
 BYTE   N72  Gn1  v072
 BYTE   W96
//  #01 //089   ----------------------------------------
 BYTE   N72
 BYTE   W96
//  #01 //090   ----------------------------------------
 BYTE   N40  An1  v064
 BYTE   W96
//  #01 //091   ----------------------------------------
 BYTE   N72
 BYTE   W96
//  #01 //092   ----------------------------------------
 BYTE   PATT
  POIN2 Label_01009021
//  #01 //093   ----------------------------------------
 BYTE   PATT
  POIN2 Label_01009032
//  #01 //094   ----------------------------------------
 BYTE   PATT
  POIN2 Label_01009040
//  #01 //095   ----------------------------------------
 BYTE   PATT
  POIN2 Label_0100904E
//  #01 //096   ----------------------------------------
 BYTE   GoTo
  POIN2 Label_0100905A
 BYTE   FINE

//**************** Track 2 (Midi-Chn.1) ****************//

FE17BrightSandstormKaidras_002:
//  #02 //000   ----------------------------------------
 BYTE   KEYSH   FE17BrightSandstormKaidras_key+0
 BYTE   VOICE   50
 BYTE   MODT 0
 BYTE   LFOS 44
 BYTE   VOL   75*FE17BrightSandstormKaidras_mvl/mxv
 BYTE   PAN   c_v-20
 BYTE   W96
//  #02 //001   ----------------------------------------
Label_0101AA6D:
 BYTE   N07  Dn3  v048
 BYTE   W16
 BYTE   N10
 BYTE   W32
 BYTE   N07
 BYTE   W16
 BYTE   N08  Dn3  v044
 BYTE   W32
 BYTE   PEND 
//  #02 //002   ----------------------------------------
Label_0101AA7A:
 BYTE   N07  Dn3  v048
 BYTE   W16
 BYTE   N08
 BYTE   W32
 BYTE   N06
 BYTE   W14
 BYTE   N09
 BYTE   W32
 BYTE   W02
 BYTE   PEND 
//  #02 //003   ----------------------------------------
Label_0101AA86:
 BYTE   N07  Dn3  v048
 BYTE   W16
 BYTE   N09
 BYTE   W32
 BYTE   N07
 BYTE   W16
 BYTE   N09
 BYTE   W30
 BYTE   W01
 BYTE   N08
 BYTE   W01
 BYTE   PEND 
//  #02 //004   ----------------------------------------
Label_0101AA94:
 BYTE   W16
 BYTE   N11  Dn3  v048
 BYTE   W32
 BYTE   N07
 BYTE   W16
 BYTE   N11
 BYTE   W32
 BYTE   PEND 
//  #02 //005   ----------------------------------------
Label_0101AA9E:
//  #02 //006   ----------------------------------------
 BYTE   PATT
  POIN2 Label_0101AA6D
//  #02 //007   ----------------------------------------
 BYTE   PATT
  POIN2 Label_0101AA7A
//  #02 //008   ----------------------------------------
Label_0101AAA8:
 BYTE   N07  Cs3  v048
 BYTE   W16
 BYTE   N09
 BYTE   W32
 BYTE   N07
 BYTE   W16
 BYTE   N09
 BYTE   W30
 BYTE   W01
 BYTE   N08
 BYTE   W01
 BYTE   PEND 
//  #02 //009   ----------------------------------------
Label_0101AAB6:
 BYTE   W16
 BYTE   N11  Cs3  v048
 BYTE   W32
 BYTE   N07
 BYTE   W16
 BYTE   N11
 BYTE   W32
 BYTE   PEND 
//  #02 //010   ----------------------------------------
 BYTE   PATT
  POIN2 Label_0101AA6D
//  #02 //011   ----------------------------------------
 BYTE   PATT
  POIN2 Label_0101AA7A
//  #02 //012   ----------------------------------------
 BYTE   PATT
  POIN2 Label_0101AAA8
//  #02 //013   ----------------------------------------
 BYTE   PATT
  POIN2 Label_0101AAB6
//  #02 //014   ----------------------------------------
 BYTE   PATT
  POIN2 Label_0101AA6D
//  #02 //015   ----------------------------------------
 BYTE   PATT
  POIN2 Label_0101AA7A
//  #02 //016   ----------------------------------------
 BYTE   PATT
  POIN2 Label_0101AAA8
//  #02 //017   ----------------------------------------
 BYTE   PATT
  POIN2 Label_0101AAB6
//  #02 //018   ----------------------------------------
Label_0101AAE8:
 BYTE   N07  Bn2  v028
 BYTE   W16
 BYTE   N10
 BYTE   W32
 BYTE   N07
 BYTE   W16
 BYTE   N08  Bn2  v024
 BYTE   W32
 BYTE   PEND 
//  #02 //019   ----------------------------------------
Label_0101AAF5:
 BYTE   N07  Bn2  v028
 BYTE   W16
 BYTE   N08
 BYTE   W20
 BYTE   N12  Bn2  v008
 BYTE   W12
 BYTE   N06  Bn2  v028
 BYTE   W14
 BYTE   N09
 BYTE   W32
 BYTE   W02
 BYTE   PEND 
//  #02 //020   ----------------------------------------
Label_0101AB07:
 BYTE   N07  Bn2  v028
 BYTE   W16
 BYTE   N09
 BYTE   W32
 BYTE   N07
 BYTE   W16
 BYTE   N09
 BYTE   W30
 BYTE   W01
 BYTE   N08
 BYTE   W01
 BYTE   PEND 
//  #02 //021   ----------------------------------------
Label_0101AB15:
 BYTE   W16
 BYTE   N11  Bn2  v028
 BYTE   W20
 BYTE   N12  Bn2  v008
 BYTE   W12
 BYTE   N07  Bn2  v028
 BYTE   W16
 BYTE   N11
 BYTE   W32
 BYTE   PEND 
//  #02 //022   ----------------------------------------
Label_0101AB25:
 BYTE   N07  Bn2  v036
 BYTE   W16
 BYTE   N10
 BYTE   W20
 BYTE   N12  Bn2  v012
 BYTE   W12
 BYTE   N07  Bn2  v036
 BYTE   W16
 BYTE   N08  Bn2  v032
 BYTE   W32
 BYTE   PEND 
//  #02 //023   ----------------------------------------
Label_0101AB38:
 BYTE   N07  Cs3  v036
 BYTE   W16
 BYTE   N08
 BYTE   W20
 BYTE   N12  Cs3  v012
 BYTE   W12
 BYTE   N06  Cs3  v036
 BYTE   W14
 BYTE   N09
 BYTE   W32
 BYTE   W02
 BYTE   PEND 
//  #02 //024   ----------------------------------------
Label_0101AB4A:
 BYTE   N07  Bn3  v036
 BYTE   W16
 BYTE   N09
 BYTE   W32
 BYTE   N07
 BYTE   W16
 BYTE   N09
 BYTE   W30
 BYTE   W01
 BYTE   N08
 BYTE   W01
 BYTE   PEND 
//  #02 //025   ----------------------------------------
Label_0101AB58:
 BYTE   W16
 BYTE   N11  Bn3  v036
 BYTE   W32
 BYTE   N07  Cs3  v020
 BYTE   W16
 BYTE   N11
 BYTE   W32
 BYTE   PEND 
//  #02 //026   ----------------------------------------
 BYTE   PATT
  POIN2 Label_0101AA6D
//  #02 //027   ----------------------------------------
 BYTE   PATT
  POIN2 Label_0101AA7A
//  #02 //028   ----------------------------------------
 BYTE   PATT
  POIN2 Label_0101AAA8
//  #02 //029   ----------------------------------------
 BYTE   PATT
  POIN2 Label_0101AAB6
//  #02 //030   ----------------------------------------
 BYTE   PATT
  POIN2 Label_0101AA6D
//  #02 //031   ----------------------------------------
 BYTE   PATT
  POIN2 Label_0101AA7A
//  #02 //032   ----------------------------------------
 BYTE   PATT
  POIN2 Label_0101AAA8
//  #02 //033   ----------------------------------------
 BYTE   PATT
  POIN2 Label_0101AAB6
//  #02 //034   ----------------------------------------
 BYTE   PATT
  POIN2 Label_0101AAE8
//  #02 //035   ----------------------------------------
 BYTE   PATT
  POIN2 Label_0101AAF5
//  #02 //036   ----------------------------------------
 BYTE   PATT
  POIN2 Label_0101AB07
//  #02 //037   ----------------------------------------
 BYTE   PATT
  POIN2 Label_0101AB15
//  #02 //038   ----------------------------------------
 BYTE   PATT
  POIN2 Label_0101AB25
//  #02 //039   ----------------------------------------
 BYTE   PATT
  POIN2 Label_0101AB38
//  #02 //040   ----------------------------------------
 BYTE   PATT
  POIN2 Label_0101AB4A
//  #02 //041   ----------------------------------------
 BYTE   PATT
  POIN2 Label_0101AB58
//  #02 //042   ----------------------------------------
 BYTE   N07  Fs3  v064
 BYTE   W18
 BYTE   N08  Fs3  v068
 BYTE   W18
 BYTE   N06  Fs3  v080
 BYTE   W12
 BYTE   N07  Fs3  v068
 BYTE   W18
 BYTE   N05  Fs3  v072
 BYTE   W18
 BYTE   N24  Fs3  v084
 BYTE   W12
//  #02 //043   ----------------------------------------
 BYTE   W96
//  #02 //044   ----------------------------------------
 BYTE   N08
 BYTE   W18
 BYTE   Fs3  v072
 BYTE   W18
 BYTE   N06  Fs3  v084
 BYTE   W12
 BYTE   N08  Fs3  v080
 BYTE   W18
 BYTE   N07  Fs3  v084
 BYTE   W18
 BYTE   N24
 BYTE   W12
//  #02 //045   ----------------------------------------
 BYTE   W96
//  #02 //046   ----------------------------------------
 BYTE   N08
 BYTE   W18
 BYTE   Fs3  v080
 BYTE   W18
 BYTE   N08
 BYTE   W12
 BYTE   N07  Fs3  v084
 BYTE   W18
 BYTE   N08  Fs3  v076
 BYTE   W18
 BYTE   N24  Fs3  v080
 BYTE   W12
//  #02 //047   ----------------------------------------
 BYTE   W96
//  #02 //048   ----------------------------------------
 BYTE   N08  Fs4  v088
 BYTE   W18
 BYTE   N07  Fs4  v080
 BYTE   W18
 BYTE   N06  Fs4  v084
 BYTE   W12
 BYTE   N07
 BYTE   W18
 BYTE   N07
 BYTE   W18
 BYTE   N24
 BYTE   W12
//  #02 //049   ----------------------------------------
 BYTE   W96
//  #02 //050   ----------------------------------------
Label_0101AC08:
 BYTE   N07  Gs3  v052
 BYTE   W16
 BYTE   N10
 BYTE   W32
 BYTE   N07
 BYTE   W16
 BYTE   N10
 BYTE   W32
 BYTE   PEND 
//  #02 //051   ----------------------------------------
Label_0101AC13:
 BYTE   N07  Gs3  v056
 BYTE   W16
 BYTE   N12  Gs3  v052
 BYTE   W32
 BYTE   N07  Gs3  v040
 BYTE   W16
 BYTE   N15  Gs3  v056
 BYTE   W32
 BYTE   PEND 
//  #02 //052   ----------------------------------------
Label_0101AC24:
 BYTE   N08  Ds3  v056
 BYTE   W16
 BYTE   N11
 BYTE   W32
 BYTE   N07
 BYTE   W16
 BYTE   N11
 BYTE   W32
 BYTE   PEND 
//  #02 //053   ----------------------------------------
Label_0101AC2F:
 BYTE   N07  Fn3  v048
 BYTE   W16
 BYTE   N08  Fn3  v052
 BYTE   W32
 BYTE   N09
 BYTE   W16
 BYTE   N08
 BYTE   W32
 BYTE   PEND 
//  #02 //054   ----------------------------------------
 BYTE   PATT
  POIN2 Label_0101AC08
//  #02 //055   ----------------------------------------
 BYTE   PATT
  POIN2 Label_0101AC13
//  #02 //056   ----------------------------------------
 BYTE   PATT
  POIN2 Label_0101AC24
//  #02 //057   ----------------------------------------
 BYTE   PATT
  POIN2 Label_0101AC2F
//  #02 //058   ----------------------------------------
Label_0101AC50:
 BYTE   W02
 BYTE   N07  An3  v052
 BYTE   W16
 BYTE   N10
 BYTE   W32
 BYTE   N07
 BYTE   W16
 BYTE   N10
 BYTE   W30
 BYTE   PEND 
//  #02 //059   ----------------------------------------
Label_0101AC5C:
 BYTE   W02
 BYTE   N07  An3  v056
 BYTE   W16
 BYTE   N12  An3  v052
 BYTE   W32
 BYTE   N07  An3  v040
 BYTE   W16
 BYTE   N15  An3  v056
 BYTE   W30
 BYTE   PEND 
//  #02 //060   ----------------------------------------
Label_0101AC6E:
 BYTE   W02
 BYTE   N08  En3  v056
 BYTE   W16
 BYTE   N11
 BYTE   W32
 BYTE   N07
 BYTE   W16
 BYTE   N11
 BYTE   W30
 BYTE   PEND 
//  #02 //061   ----------------------------------------
Label_0101AC7A:
 BYTE   W02
 BYTE   N07  Fs3  v048
 BYTE   W16
 BYTE   N08  Fs3  v052
 BYTE   W32
 BYTE   N09
 BYTE   W16
 BYTE   N08
 BYTE   W30
 BYTE   PEND 
//  #02 //062   ----------------------------------------
 BYTE   PATT
  POIN2 Label_0101AC50
//  #02 //063   ----------------------------------------
 BYTE   PATT
  POIN2 Label_0101AC5C
//  #02 //064   ----------------------------------------
 BYTE   PATT
  POIN2 Label_0101AC6E
//  #02 //065   ----------------------------------------
 BYTE   PATT
  POIN2 Label_0101AC7A
//  #02 //066   ----------------------------------------
 BYTE   N14  As3  v100
 BYTE   W16
 BYTE   N08  Fn3  v096
 BYTE   W16
 BYTE   N05  Fn3  v056
 BYTE   W16
 BYTE   N15  As3  v080
 BYTE   W16
 BYTE   N08  Fn3  v100
 BYTE   W16
 BYTE   As3
 BYTE   W16
//  #02 //067   ----------------------------------------
 BYTE   N14  Fn3
 BYTE   W96
//  #02 //068   ----------------------------------------
 BYTE   N15  As3  v092
 BYTE   W15
 BYTE   N06  An3  v096
 BYTE   W32
 BYTE   N16  As3  v084
 BYTE   W16
 BYTE   N06  An3  v092
 BYTE   W32
 BYTE   N16  As3  v088
 BYTE   W01
//  #02 //069   ----------------------------------------
 BYTE   W15
 BYTE   N06  An3
 BYTE   W32
 BYTE   N16  As3  v084
 BYTE   W16
 BYTE   N06  An3  v080
 BYTE   W32
 BYTE   N16  As3  v076
 BYTE   W01
//  #02 //070   ----------------------------------------
 BYTE   W15
 BYTE   N06  An3  v024
 BYTE   W32
 BYTE   N16  As3  v068
 BYTE   W16
 BYTE   N06  An3  v084
 BYTE   W32
 BYTE   N16  As3  v072
 BYTE   W01
//  #02 //071   ----------------------------------------
 BYTE   W15
 BYTE   N06  An3
 BYTE   W32
 BYTE   N16  As3  v080
 BYTE   W16
 BYTE   N06  An3
 BYTE   W32
 BYTE   W01
//  #02 //072   ----------------------------------------
 BYTE   N16  As2  v056
 BYTE   W16
 BYTE   N06  An2  v044
 BYTE   W32
 BYTE   N16  As2  v052
 BYTE   W16
 BYTE   N09  An2  v044
 BYTE   W32
//  #02 //073   ----------------------------------------
 BYTE   N16  Cn3  v056
 BYTE   W16
 BYTE   N07  An2  v040
 BYTE   W32
 BYTE   N16  Cn3  v052
 BYTE   W16
 BYTE   N07  An2  v044
 BYTE   W32
//  #02 //074   ----------------------------------------
 BYTE   N16  Dn3  v056
 BYTE   W16
 BYTE   N04  As2  v052
 BYTE   W32
 BYTE   N16  Dn3  v056
 BYTE   W16
 BYTE   N06  As2  v016
 BYTE   W32
//  #02 //075   ----------------------------------------
 BYTE   N16  Cn3  v056
 BYTE   W16
 BYTE   N09  An2  v040
 BYTE   W32
 BYTE   N16  As2  v024
 BYTE   W16
 BYTE   N12  An2  v012
 BYTE   W32
//  #02 //076   ----------------------------------------
 BYTE   N16  As2  v056
 BYTE   W16
 BYTE   N06  An2  v032
 BYTE   W32
 BYTE   N16  As2  v048
 BYTE   W16
 BYTE   N07  An2  v040
 BYTE   W32
//  #02 //077   ----------------------------------------
 BYTE   N16  Cn3  v052
 BYTE   W16
 BYTE   N08  An2  v036
 BYTE   W32
 BYTE   N16  Cn3  v052
 BYTE   W16
 BYTE   N10  An2  v024
 BYTE   W32
//  #02 //078   ----------------------------------------
 BYTE   N16  Cn3  v052
 BYTE   W16
 BYTE   N09  An2  v012
 BYTE   W32
 BYTE   N16  Cn3  v056
 BYTE   W16
 BYTE   N10  An2  v020
 BYTE   W32
//  #02 //079   ----------------------------------------
 BYTE   N16  Dn3  v056
 BYTE   W16
 BYTE   N08  As2  v048
 BYTE   W32
 BYTE   N16  Dn3  v056
 BYTE   W16
 BYTE   N09  As2  v044
 BYTE   W32
//  #02 //080   ----------------------------------------
 BYTE   N16  Ds3  v056
 BYTE   W16
 BYTE   N05  As2  v028
 BYTE   W32
 BYTE   N16  Ds3  v048
 BYTE   W16
 BYTE   N06  As2  v044
 BYTE   W32
//  #02 //081   ----------------------------------------
 BYTE   N16  Fn3  v048
 BYTE   W16
 BYTE   N07  Cn3  v052
 BYTE   W32
 BYTE   N16  Fn3  v056
 BYTE   W16
 BYTE   N09  Cn3  v044
 BYTE   W32
//  #02 //082   ----------------------------------------
 BYTE   N16  Gn3  v048
 BYTE   W16
 BYTE   N07  Dn3
 BYTE   W32
 BYTE   N16  Gn3
 BYTE   W16
 BYTE   N08  Dn3  v044
 BYTE   W32
//  #02 //083   ----------------------------------------
 BYTE   N16  Fn3  v048
 BYTE   W16
 BYTE   N13  Cn3  v040
 BYTE   W32
 BYTE   N16  Fn3  v056
 BYTE   W16
 BYTE   N09  Cn3  v044
 BYTE   W32
//  #02 //084   ----------------------------------------
 BYTE   N16  Ds3  v052
 BYTE   W16
 BYTE   N06  As2  v036
 BYTE   W32
 BYTE   N16  Dn3  v048
 BYTE   W16
 BYTE   N08  An2  v040
 BYTE   W32
//  #02 //085   ----------------------------------------
 BYTE   N24  Cn3  v052
 BYTE   W48
 BYTE   Gn2  v044
 BYTE   W48
//  #02 //086   ----------------------------------------
 BYTE   N15  Ds3  v052
 BYTE   W16
 BYTE   N07  As2  v048
 BYTE   W32
 BYTE   N16  Ds3  v056
 BYTE   W16
 BYTE   N07  As2  v052
 BYTE   W32
//  #02 //087   ----------------------------------------
 BYTE   N14  Dn3  v048
 BYTE   W16
 BYTE   N09  An2  v044
 BYTE   W32
 BYTE   N16  Dn3  v056
 BYTE   W16
 BYTE   N07  An2  v044
 BYTE   W32
//  #02 //088   ----------------------------------------
 BYTE   N16  Ds3  v036
 BYTE   W16
 BYTE   N05  As2  v052
 BYTE   W32
 BYTE   N32  Dn3  v048
 BYTE   W48
//  #02 //089   ----------------------------------------
 BYTE   N88  Cn3
 BYTE   W96
//  #02 //090   ----------------------------------------
 BYTE   Bn2  v052
 BYTE   W96
//  #02 //091   ----------------------------------------
 BYTE   N54  An2  v048
 BYTE   W96
//  #02 //092   ----------------------------------------
 BYTE   N88  An2  v052
 BYTE   W96
//  #02 //093   ----------------------------------------
 BYTE   PATT
  POIN2 Label_0101AA6D
//  #02 //094   ----------------------------------------
 BYTE   PATT
  POIN2 Label_0101AA7A
//  #02 //095   ----------------------------------------
 BYTE   PATT
  POIN2 Label_0101AA86
//  #02 //096   ----------------------------------------
 BYTE   PATT
  POIN2 Label_0101AA94
//  #02 //097   ----------------------------------------
 BYTE   GoTo
  POIN2 Label_0101AA9E
 BYTE   FINE

//**************** Track 3 (Midi-Chn.2) ****************//

FE17BrightSandstormKaidras_003:
//  #03 //000   ----------------------------------------
 BYTE   KEYSH   FE17BrightSandstormKaidras_key+0
 BYTE   VOICE   51
 BYTE   MODT 0
 BYTE   LFOS 44
 BYTE   PAN   c_v+19
 BYTE   VOL   75*FE17BrightSandstormKaidras_mvl/mxv
 BYTE   W96
//  #03 //001   ----------------------------------------
Label_0101AE2D:
 BYTE   N07  Bn2  v124
 BYTE   W16
 BYTE   N10  Bn2  v120
 BYTE   W32
 BYTE   N07  Bn2  v124
 BYTE   W16
 BYTE   N08  Bn2  v120
 BYTE   W32
 BYTE   PEND 
//  #03 //002   ----------------------------------------
Label_0101AE3E:
 BYTE   N07  Bn2  v127
 BYTE   W16
 BYTE   N08  Bn2  v124
 BYTE   W32
 BYTE   N06
 BYTE   W14
 BYTE   N09
 BYTE   W32
 BYTE   W02
 BYTE   PEND 
//  #03 //003   ----------------------------------------
Label_0101AE4C:
 BYTE   N07  Bn2  v124
 BYTE   W16
 BYTE   N09
 BYTE   W32
 BYTE   N07
 BYTE   W16
 BYTE   N09
 BYTE   W30
 BYTE   W01
 BYTE   N08
 BYTE   W01
 BYTE   PEND 
//  #03 //004   ----------------------------------------
Label_0101AE5A:
 BYTE   W16
 BYTE   N11  Bn2  v124
 BYTE   W32
 BYTE   N07
 BYTE   W16
 BYTE   N11  Bn2  v120
 BYTE   W32
 BYTE   PEND 
//  #03 //005   ----------------------------------------
Label_0101AE66:
 BYTE   N08  Bn2  v124
 BYTE   W16
 BYTE   N13  Bn2  v120
 BYTE   W32
 BYTE   N07
 BYTE   W16
 BYTE   N10
 BYTE   W30
 BYTE   W01
 BYTE   N08  Bn2  v124
 BYTE   W01
//  #03 //006   ----------------------------------------
 BYTE   W16
 BYTE   N10
 BYTE   W32
 BYTE   N10
 BYTE   W16
 BYTE   N12  Bn2  v120
 BYTE   W32
//  #03 //007   ----------------------------------------
 BYTE   N08  An2
 BYTE   W16
 BYTE   N11  An2  v124
 BYTE   W32
 BYTE   N08
 BYTE   W16
 BYTE   An2  v120
 BYTE   W32
//  #03 //008   ----------------------------------------
 BYTE   An2  v124
 BYTE   W16
 BYTE   N09  An2  v120
 BYTE   W32
 BYTE   An2  v124
 BYTE   W16
 BYTE   N10
 BYTE   W32
//  #03 //009   ----------------------------------------
 BYTE   PATT
  POIN2 Label_0101AE2D
//  #03 //010   ----------------------------------------
 BYTE   PATT
  POIN2 Label_0101AE3E
//  #03 //011   ----------------------------------------
Label_0101AEA2:
 BYTE   N07  An2  v124
 BYTE   W16
 BYTE   N09
 BYTE   W32
 BYTE   N07
 BYTE   W16
 BYTE   N09
 BYTE   W30
 BYTE   W01
 BYTE   N08
 BYTE   W01
 BYTE   PEND 
//  #03 //012   ----------------------------------------
Label_0101AEB0:
 BYTE   W16
 BYTE   N11  An2  v124
 BYTE   W32
 BYTE   N07
 BYTE   W16
 BYTE   N11  An2  v120
 BYTE   W32
 BYTE   PEND 
//  #03 //013   ----------------------------------------
 BYTE   PATT
  POIN2 Label_0101AE2D
//  #03 //014   ----------------------------------------
 BYTE   PATT
  POIN2 Label_0101AE3E
//  #03 //015   ----------------------------------------
 BYTE   PATT
  POIN2 Label_0101AEA2
//  #03 //016   ----------------------------------------
 BYTE   PATT
  POIN2 Label_0101AEB0
//  #03 //017   ----------------------------------------
Label_0101AED0:
 BYTE   N07  Gn2  v124
 BYTE   W16
 BYTE   N10  Gn2  v120
 BYTE   W32
 BYTE   N07  Gn2  v124
 BYTE   W16
 BYTE   N08  Gn2  v120
 BYTE   W32
 BYTE   PEND 
//  #03 //018   ----------------------------------------
 BYTE   N07  Gn2  v127
 BYTE   W16
 BYTE   N08  Gn2  v124
 BYTE   W20
 BYTE   N12  Gn2  v080
 BYTE   W12
 BYTE   N06  Gn2  v124
 BYTE   W14
 BYTE   N09
 BYTE   W32
 BYTE   W02
//  #03 //019   ----------------------------------------
Label_0101AEF4:
 BYTE   N07  En2  v124
 BYTE   W16
 BYTE   N09
 BYTE   W32
 BYTE   N07
 BYTE   W16
 BYTE   N09
 BYTE   W30
 BYTE   W01
 BYTE   N08
 BYTE   W01
 BYTE   PEND 
//  #03 //020   ----------------------------------------
 BYTE   W16
 BYTE   N11
 BYTE   W20
 BYTE   N12  En2  v080
 BYTE   W12
 BYTE   N07  En2  v124
 BYTE   W16
 BYTE   N11  En2  v120
 BYTE   W32
//  #03 //021   ----------------------------------------
 BYTE   N07  Gn2  v124
 BYTE   W16
 BYTE   N10  Gn2  v120
 BYTE   W20
 BYTE   N12  Gn2  v080
 BYTE   W12
 BYTE   N07  Gn2  v124
 BYTE   W16
 BYTE   N08  Gn2  v120
 BYTE   W32
//  #03 //022   ----------------------------------------
 BYTE   N07  An2  v127
 BYTE   W16
 BYTE   N08  An2  v124
 BYTE   W20
 BYTE   N12  An2  v080
 BYTE   W12
 BYTE   N06  An2  v124
 BYTE   W14
 BYTE   N09
 BYTE   W32
 BYTE   W02
//  #03 //023   ----------------------------------------
 BYTE   PATT
  POIN2 Label_0101AE4C
//  #03 //024   ----------------------------------------
Label_0101AF3D:
 BYTE   W16
 BYTE   N11  Bn2  v124
 BYTE   W32
 BYTE   N07  An2
 BYTE   W16
 BYTE   N11  An2  v120
 BYTE   W32
 BYTE   PEND 
//  #03 //025   ----------------------------------------
 BYTE   PATT
  POIN2 Label_0101AE2D
//  #03 //026   ----------------------------------------
 BYTE   PATT
  POIN2 Label_0101AE3E
//  #03 //027   ----------------------------------------
 BYTE   PATT
  POIN2 Label_0101AEA2
//  #03 //028   ----------------------------------------
 BYTE   PATT
  POIN2 Label_0101AEB0
//  #03 //029   ----------------------------------------
 BYTE   PATT
  POIN2 Label_0101AE2D
//  #03 //030   ----------------------------------------
 BYTE   PATT
  POIN2 Label_0101AE3E
//  #03 //031   ----------------------------------------
 BYTE   PATT
  POIN2 Label_0101AEA2
//  #03 //032   ----------------------------------------
 BYTE   PATT
  POIN2 Label_0101AEB0
//  #03 //033   ----------------------------------------
 BYTE   PATT
  POIN2 Label_0101AED0
//  #03 //034   ----------------------------------------
 BYTE   N07  Gn2  v127
 BYTE   W16
 BYTE   N08  Gn2  v124
 BYTE   W32
 BYTE   N06
 BYTE   W14
 BYTE   N09
 BYTE   W32
 BYTE   W02
//  #03 //035   ----------------------------------------
 BYTE   PATT
  POIN2 Label_0101AEF4
//  #03 //036   ----------------------------------------
 BYTE   W16
 BYTE   N11  En2  v124
 BYTE   W32
 BYTE   N07
 BYTE   W16
 BYTE   N11  En2  v120
 BYTE   W32
//  #03 //037   ----------------------------------------
 BYTE   PATT
  POIN2 Label_0101AED0
//  #03 //038   ----------------------------------------
 BYTE   N07  An2  v127
 BYTE   W16
 BYTE   N08  An2  v124
 BYTE   W32
 BYTE   N06
 BYTE   W14
 BYTE   N09
 BYTE   W32
 BYTE   W02
//  #03 //039   ----------------------------------------
 BYTE   PATT
  POIN2 Label_0101AE4C
//  #03 //040   ----------------------------------------
 BYTE   PATT
  POIN2 Label_0101AF3D
//  #03 //041   ----------------------------------------
 BYTE   N05  Bn3  v120
 BYTE   W16
 BYTE   N08
 BYTE   W16
 BYTE   N14  Fs3  v112
 BYTE   W16
 BYTE   N07  Bn3  v116
 BYTE   W16
 BYTE   N05  Bn3  v120
 BYTE   W16
 BYTE   N12  Fs3  v112
 BYTE   W16
//  #03 //042   ----------------------------------------
 BYTE   N05  Bn3  v104
 BYTE   W16
 BYTE   N06  Bn3  v116
 BYTE   W16
 BYTE   N12  Fs3  v112
 BYTE   W16
 BYTE   N05  Bn3  v100
 BYTE   W16
 BYTE   N06  Bn3  v120
 BYTE   W16
 BYTE   N12  Fs3
 BYTE   W16
//  #03 //043   ----------------------------------------
 BYTE   N06  Bn3  v108
 BYTE   W16
 BYTE   Bn3  v120
 BYTE   W16
 BYTE   N11  Fs3
 BYTE   W16
 BYTE   N06  Bn3  v112
 BYTE   W16
 BYTE   N05  Bn3  v120
 BYTE   W16
 BYTE   N11  Fs3
 BYTE   W16
//  #03 //044   ----------------------------------------
 BYTE   N06  Bn3
 BYTE   W16
 BYTE   N05
 BYTE   W16
 BYTE   N12  Fs3
 BYTE   W16
 BYTE   N06  Bn3  v116
 BYTE   W16
 BYTE   N05  Bn3  v120
 BYTE   W16
 BYTE   N11  Fs3
 BYTE   W16
//  #03 //045   ----------------------------------------
 BYTE   N07  Bn3
 BYTE   W16
 BYTE   N05
 BYTE   W16
 BYTE   N11  Fs3  v124
 BYTE   W16
 BYTE   N06  Bn3  v120
 BYTE   W16
 BYTE   Bn3  v116
 BYTE   W16
 BYTE   N12  Fs3  v124
 BYTE   W16
//  #03 //046   ----------------------------------------
 BYTE   N06  Bn3  v120
 BYTE   W16
 BYTE   Bn3  v116
 BYTE   W16
 BYTE   N11  Fs3  v124
 BYTE   W16
 BYTE   N05  Bn3  v116
 BYTE   W16
 BYTE   N07  Bn3  v120
 BYTE   W16
 BYTE   N12  Fs3
 BYTE   W16
//  #03 //047   ----------------------------------------
 BYTE   N06  Bn3
 BYTE   W16
 BYTE   N05
 BYTE   W16
 BYTE   N12  Fs3
 BYTE   W16
 BYTE   N05  Bn3  v116
 BYTE   W16
 BYTE   N06  Bn3  v120
 BYTE   W16
 BYTE   N13
 BYTE   W16
//  #03 //048   ----------------------------------------
 BYTE   W92
 BYTE   W01
 BYTE   N07  Cs2  v112
 BYTE   W03
//  #03 //049   ----------------------------------------
 BYTE   W13
 BYTE   N08  Cs2  v127
 BYTE   W32
 BYTE   N06  Cs2  v116
 BYTE   W16
 BYTE   N08  Cs2  v127
 BYTE   W32
 BYTE   N06
 BYTE   W03
//  #03 //050   ----------------------------------------
 BYTE   W13
 BYTE   N09  Cs2  v124
 BYTE   W32
 BYTE   N07  Cs2  v120
 BYTE   W16
 BYTE   N14  Cs2  v124
 BYTE   W32
 BYTE   N09  Gs1  v092
 BYTE   W03
//  #03 //051   ----------------------------------------
 BYTE   W13
 BYTE   N10  Gs1  v104
 BYTE   W32
 BYTE   N07  Gs1  v124
 BYTE   W16
 BYTE   N10  Gs1  v120
 BYTE   W32
 BYTE   N07  As1  v124
 BYTE   W03
//  #03 //052   ----------------------------------------
 BYTE   W13
 BYTE   N07
 BYTE   W32
 BYTE   N08  As1  v120
 BYTE   W16
 BYTE   N09  As1  v124
 BYTE   W32
 BYTE   W03
//  #03 //053   ----------------------------------------
 BYTE   N07  Cs2  v112
 BYTE   W16
 BYTE   N08  Cs2  v127
 BYTE   W32
 BYTE   N06  Cs2  v116
 BYTE   W16
 BYTE   N08  Cs2  v127
 BYTE   W32
//  #03 //054   ----------------------------------------
 BYTE   N07
 BYTE   W16
 BYTE   N09  Cs2  v124
 BYTE   W32
 BYTE   N07  Cs2  v120
 BYTE   W16
 BYTE   N14  Cs2  v124
 BYTE   W32
//  #03 //055   ----------------------------------------
 BYTE   N09  Gs1  v092
 BYTE   W16
 BYTE   N10  Gs1  v104
 BYTE   W32
 BYTE   N07  Gs1  v124
 BYTE   W16
 BYTE   N10  Gs1  v120
 BYTE   W32
//  #03 //056   ----------------------------------------
 BYTE   N07  As1  v124
 BYTE   W16
 BYTE   N07
 BYTE   W32
 BYTE   N08  As1  v120
 BYTE   W16
 BYTE   As1  v124
 BYTE   W32
//  #03 //057   ----------------------------------------
 BYTE   N07  Dn2  v112
 BYTE   W16
 BYTE   N08  Dn2  v127
 BYTE   W32
 BYTE   N06  Dn2  v116
 BYTE   W16
 BYTE   N08  Dn2  v127
 BYTE   W32
//  #03 //058   ----------------------------------------
 BYTE   N07
 BYTE   W16
 BYTE   N09  Dn2  v124
 BYTE   W32
 BYTE   N07  Dn2  v120
 BYTE   W16
 BYTE   N14  Dn2  v124
 BYTE   W32
//  #03 //059   ----------------------------------------
 BYTE   N09  An1  v092
 BYTE   W16
 BYTE   N10  An1  v104
 BYTE   W32
 BYTE   N07  An1  v124
 BYTE   W16
 BYTE   N10  An1  v120
 BYTE   W32
//  #03 //060   ----------------------------------------
 BYTE   N07  Bn1  v124
 BYTE   W16
 BYTE   N07
 BYTE   W32
 BYTE   N08  Bn1  v120
 BYTE   W16
 BYTE   N09  Bn1  v124
 BYTE   W32
//  #03 //061   ----------------------------------------
 BYTE   W02
 BYTE   N07  Dn2  v112
 BYTE   W16
 BYTE   N08  Dn2  v127
 BYTE   W32
 BYTE   N06  Dn2  v116
 BYTE   W16
 BYTE   N08  Dn2  v127
 BYTE   W30
//  #03 //062   ----------------------------------------
 BYTE   W02
 BYTE   N07
 BYTE   W16
 BYTE   N09  Dn2  v124
 BYTE   W32
 BYTE   N07  Dn2  v120
 BYTE   W16
 BYTE   N14  Dn2  v124
 BYTE   W30
//  #03 //063   ----------------------------------------
 BYTE   W02
 BYTE   N09  An1  v092
 BYTE   W16
 BYTE   N10  An1  v104
 BYTE   W32
 BYTE   N07  An1  v124
 BYTE   W16
 BYTE   N10  An1  v120
 BYTE   W30
//  #03 //064   ----------------------------------------
 BYTE   W02
 BYTE   N07  Bn1  v124
 BYTE   W16
 BYTE   N07
 BYTE   W32
 BYTE   N08  Bn1  v120
 BYTE   W16
 BYTE   Bn1  v124
 BYTE   W30
//  #03 //065   ----------------------------------------
 BYTE   N14  As2  v076
 BYTE   W16
 BYTE   N05  Fn2  v096
 BYTE   W16
 BYTE   N04  Fn2  v100
 BYTE   W16
 BYTE   N15  As2  v092
 BYTE   W16
 BYTE   N08  Fn2
 BYTE   W16
 BYTE   As2
 BYTE   W16
//  #03 //066   ----------------------------------------
 BYTE   N16  Fn2  v096
 BYTE   W96
//  #03 //067   ----------------------------------------
 BYTE   Dn2  v048
 BYTE   W16
 BYTE   N18  Fn2
 BYTE   W32
 BYTE   N16  Dn2  v052
 BYTE   W16
 BYTE   N18  Fn2  v044
 BYTE   W32
//  #03 //068   ----------------------------------------
Label_0101B161:
 BYTE   N16  Cn2  v032
 BYTE   W16
 BYTE   N18  Fn2  v052
 BYTE   W32
 BYTE   N16  Cn2  v024
 BYTE   W16
 BYTE   N18  Fn2  v052
 BYTE   W32
 BYTE   PEND 
//  #03 //069   ----------------------------------------
 BYTE   N16  Dn2  v048
 BYTE   W16
 BYTE   N18  Fn2  v040
 BYTE   W32
 BYTE   N16  Dn2  v048
 BYTE   W16
 BYTE   N18  Fn2  v044
 BYTE   W32
//  #03 //070   ----------------------------------------
 BYTE   N16  Cn2  v032
 BYTE   W16
 BYTE   N18  Fn2  v044
 BYTE   W32
 BYTE   N16  Cn2  v040
 BYTE   W16
 BYTE   N18  Fn2  v028
 BYTE   W32
//  #03 //071   ----------------------------------------
 BYTE   N16  Dn2  v092
 BYTE   W16
 BYTE   N18  Fn2  v080
 BYTE   W32
 BYTE   N16  Dn2  v092
 BYTE   W16
 BYTE   Fn2  v072
 BYTE   W32
//  #03 //072   ----------------------------------------
Label_0101B1A1:
 BYTE   N15  Dn2  v092
 BYTE   W16
 BYTE   N08  An2
 BYTE   W32
 BYTE   N16  Dn2
 BYTE   W16
 BYTE   N07  An2  v096
 BYTE   W32
 BYTE   PEND 
//  #03 //073   ----------------------------------------
Label_0101B1B0:
 BYTE   N16  Dn2  v092
 BYTE   W16
 BYTE   N08  Gn2
 BYTE   W32
 BYTE   N16  Dn2  v080
 BYTE   W16
 BYTE   N12  Gn2  v084
 BYTE   W32
 BYTE   PEND 
//  #03 //074   ----------------------------------------
 BYTE   N18  Cn2
 BYTE   W18
 BYTE   N06  Fn2  v088
 BYTE   W30
 BYTE   N18  Fn2  v104
 BYTE   W18
 BYTE   N06  Gs2  v100
 BYTE   W30
//  #03 //075   ----------------------------------------
 BYTE   N16  Dn2  v048
 BYTE   W16
 BYTE   N18  Gn2
 BYTE   W32
 BYTE   N16  Dn2  v052
 BYTE   W16
 BYTE   N18  Gn2  v044
 BYTE   W32
//  #03 //076   ----------------------------------------
 BYTE   PATT
  POIN2 Label_0101B161
//  #03 //077   ----------------------------------------
 BYTE   N16  An1  v048
 BYTE   W16
 BYTE   Fn2  v040
 BYTE   W16
 BYTE   N08  An1
 BYTE   W16
 BYTE   N16  An1  v048
 BYTE   W16
 BYTE   Fn2  v044
 BYTE   W32
//  #03 //078   ----------------------------------------
 BYTE   Dn2  v032
 BYTE   W16
 BYTE   N18  Gn2  v044
 BYTE   W32
 BYTE   N16  Dn2  v040
 BYTE   W16
 BYTE   N18  Gn2  v028
 BYTE   W32
//  #03 //079   ----------------------------------------
 BYTE   N16  Ds2  v092
 BYTE   W16
 BYTE   N18  Gn2  v080
 BYTE   W32
 BYTE   N16  Ds2  v092
 BYTE   W16
 BYTE   Gn2  v072
 BYTE   W32
//  #03 //080   ----------------------------------------
 BYTE   PATT
  POIN2 Label_0101B1A1
//  #03 //081   ----------------------------------------
 BYTE   PATT
  POIN2 Label_0101B1B0
//  #03 //082   ----------------------------------------
 BYTE   N18  Cn2  v084
 BYTE   W18
 BYTE   N06  Fn2  v088
 BYTE   W30
 BYTE   N18  Cn2  v104
 BYTE   W18
 BYTE   N06  Fn2  v100
 BYTE   W30
//  #03 //083   ----------------------------------------
 BYTE   N48  Ds3  v048
 BYTE   W48
 BYTE   N44  Fn3
 BYTE   W48
//  #03 //084   ----------------------------------------
 BYTE   N48
 BYTE   W48
 BYTE   Gn3  v036
 BYTE   W48
//  #03 //085   ----------------------------------------
 BYTE   N08  Gn2  v048
 BYTE   W16
 BYTE   N08
 BYTE   W32
 BYTE   N08
 BYTE   W16
 BYTE   N08
 BYTE   W32
//  #03 //086   ----------------------------------------
 BYTE   An2
 BYTE   W16
 BYTE   N08
 BYTE   W32
 BYTE   N08
 BYTE   W16
 BYTE   N08
 BYTE   W32
//  #03 //087   ----------------------------------------
 BYTE   N24  As2
 BYTE   W48
 BYTE   N32  Cn3  v032
 BYTE   W48
//  #03 //088   ----------------------------------------
 BYTE   N72  Cn3  v064
 BYTE   W96
//  #03 //089   ----------------------------------------
 BYTE   Dn3
 BYTE   W96
//  #03 //090   ----------------------------------------
 BYTE   N84  An1  v056
 BYTE   W96
//  #03 //091   ----------------------------------------
 BYTE   N88  An1  v060
 BYTE   W96
//  #03 //092   ----------------------------------------
 BYTE   PATT
  POIN2 Label_0101AE2D
//  #03 //093   ----------------------------------------
 BYTE   PATT
  POIN2 Label_0101AE3E
//  #03 //094   ----------------------------------------
 BYTE   PATT
  POIN2 Label_0101AE4C
//  #03 //095   ----------------------------------------
 BYTE   PATT
  POIN2 Label_0101AE5A
//  #03 //096   ----------------------------------------
 BYTE   GoTo
  POIN2 Label_0101AE66
 BYTE   FINE

//**************** Track 4 (Midi-Chn.3) ****************//

FE17BrightSandstormKaidras_004:
//  #04 //000   ----------------------------------------
 BYTE   KEYSH   FE17BrightSandstormKaidras_key+0
 BYTE   VOICE   40
 BYTE   MODT 0
 BYTE   LFOS 44
 BYTE   VOL   75*FE17BrightSandstormKaidras_mvl/mxv
 BYTE   PAN   c_v-30
 BYTE   W96
//  #04 //001   ----------------------------------------
Label_0101B289:
 BYTE   N12  Bn3  v068
 BYTE   W18
 BYTE   An3  v088
 BYTE   W18
 BYTE   N18  Dn4  v072
 BYTE   W24
 BYTE   N06  Cs4  v064
 BYTE   W06
 BYTE   Dn4  v056
 BYTE   W06
 BYTE   Cs4
 BYTE   W06
 BYTE   Bn3
 BYTE   W06
 BYTE   An3  v076
 BYTE   W12
 BYTE   PEND 
//  #04 //002   ----------------------------------------
Label_0101B2A3:
 BYTE   N12  Bn3  v088
 BYTE   W18
 BYTE   Fs3  v060
 BYTE   W18
 BYTE   An3  v088
 BYTE   W12
 BYTE   N06  En3  v068
 BYTE   W12
 BYTE   En3  v064
 BYTE   W06
 BYTE   Fs3
 BYTE   W06
 BYTE   En3  v056
 BYTE   W06
 BYTE   Dn3  v036
 BYTE   W06
 BYTE   Cs3  v052
 BYTE   W12
 BYTE   PEND 
//  #04 //003   ----------------------------------------
 BYTE   PATT
  POIN2 Label_0101B289
//  #04 //004   ----------------------------------------
 BYTE   PATT
  POIN2 Label_0101B2A3
//  #04 //005   ----------------------------------------
Label_0101B2CA:
//  #04 //006   ----------------------------------------
 BYTE   PATT
  POIN2 Label_0101B289
//  #04 //007   ----------------------------------------
 BYTE   PATT
  POIN2 Label_0101B2A3
//  #04 //008   ----------------------------------------
 BYTE   N13  An3  v068
 BYTE   W18
 BYTE   N10  En3  v064
 BYTE   W18
 BYTE   N12  Cs4  v088
 BYTE   W24
 BYTE   N06  Cs4  v084
 BYTE   W06
 BYTE   Dn4  v052
 BYTE   W06
 BYTE   En4  v064
 BYTE   W06
 BYTE   Dn4  v068
 BYTE   W06
 BYTE   N09  Cs4  v092
 BYTE   W12
//  #04 //009   ----------------------------------------
 BYTE   N15  An3  v076
 BYTE   W18
 BYTE   N10  En3  v064
 BYTE   W18
 BYTE   N08  Fs3  v080
 BYTE   W12
 BYTE   N07  En3  v068
 BYTE   W12
 BYTE   N06  En3  v064
 BYTE   W06
 BYTE   Fs3
 BYTE   W06
 BYTE   En3  v068
 BYTE   W06
 BYTE   Dn3  v020
 BYTE   W06
 BYTE   N12  Cs3  v068
 BYTE   W12
//  #04 //010   ----------------------------------------
 BYTE   PATT
  POIN2 Label_0101B289
//  #04 //011   ----------------------------------------
 BYTE   PATT
  POIN2 Label_0101B2A3
//  #04 //012   ----------------------------------------
 BYTE   PATT
  POIN2 Label_0101B289
//  #04 //013   ----------------------------------------
 BYTE   PATT
  POIN2 Label_0101B2A3
//  #04 //014   ----------------------------------------
 BYTE   PATT
  POIN2 Label_0101B289
//  #04 //015   ----------------------------------------
 BYTE   PATT
  POIN2 Label_0101B2A3
//  #04 //016   ----------------------------------------
Label_0101B32F:
 BYTE   N12  An3  v068
 BYTE   W18
 BYTE   En3  v088
 BYTE   W18
 BYTE   N18  Cs4  v072
 BYTE   W24
 BYTE   N06  Cs4  v064
 BYTE   W06
 BYTE   Dn4  v056
 BYTE   W06
 BYTE   En4
 BYTE   W06
 BYTE   Dn4
 BYTE   W06
 BYTE   Cs4  v076
 BYTE   W12
 BYTE   PEND 
//  #04 //017   ----------------------------------------
Label_0101B349:
 BYTE   N12  An3  v088
 BYTE   W18
 BYTE   En3  v060
 BYTE   W18
 BYTE   An3  v088
 BYTE   W12
 BYTE   N06  En3  v068
 BYTE   W12
 BYTE   En3  v064
 BYTE   W06
 BYTE   Fs3
 BYTE   W06
 BYTE   En3  v056
 BYTE   W06
 BYTE   Dn3  v036
 BYTE   W06
 BYTE   Cs3  v052
 BYTE   W12
 BYTE   PEND 
//  #04 //018   ----------------------------------------
Label_0101B366:
 BYTE   N08  An3  v104
 BYTE   W16
 BYTE   Fs3  v088
 BYTE   W20
 BYTE   N11  Dn4  v100
 BYTE   W24
 BYTE   N13  Cs4  v092
 BYTE   W36
 BYTE   PEND 
//  #04 //019   ----------------------------------------
 BYTE   N08  An3  v100
 BYTE   W16
 BYTE   N16  En3  v088
 BYTE   W16
 BYTE   Fs3  v092
 BYTE   W16
 BYTE   N06  Dn3
 BYTE   W12
 BYTE   Dn3  v068
 BYTE   W06
 BYTE   En3  v088
 BYTE   W06
 BYTE   Dn3  v068
 BYTE   W06
 BYTE   Cs3  v108
 BYTE   W06
 BYTE   N11  Bn2  v100
 BYTE   W12
//  #04 //020   ----------------------------------------
 BYTE   PATT
  POIN2 Label_0101B366
//  #04 //021   ----------------------------------------
 BYTE   N08  An3  v100
 BYTE   W16
 BYTE   N16  En3  v088
 BYTE   W16
 BYTE   Fs3  v092
 BYTE   W16
 BYTE   N06  Dn3
 BYTE   W12
 BYTE   Dn3  v068
 BYTE   W06
 BYTE   En3  v088
 BYTE   W06
 BYTE   Dn3  v068
 BYTE   W06
 BYTE   Cs3  v108
 BYTE   W06
 BYTE   N12  Bn2  v100
 BYTE   W12
//  #04 //022   ----------------------------------------
 BYTE   N08  Fs3  v104
 BYTE   W16
 BYTE   An3  v088
 BYTE   W20
 BYTE   N11  Dn4  v100
 BYTE   W24
 BYTE   N13  Cs4  v092
 BYTE   W36
//  #04 //023   ----------------------------------------
 BYTE   N08  Fs3  v100
 BYTE   W16
 BYTE   N16  Fs3  v088
 BYTE   W16
 BYTE   An3  v092
 BYTE   W16
 BYTE   N06  Dn3
 BYTE   W12
 BYTE   Dn3  v068
 BYTE   W06
 BYTE   En3  v088
 BYTE   W06
 BYTE   Dn3  v068
 BYTE   W06
 BYTE   Cs3  v108
 BYTE   W06
 BYTE   N12  Bn2  v100
 BYTE   W12
//  #04 //024   ----------------------------------------
 BYTE   PATT
  POIN2 Label_0101B32F
//  #04 //025   ----------------------------------------
 BYTE   PATT
  POIN2 Label_0101B349
//  #04 //026   ----------------------------------------
Label_0101B3EE:
 BYTE   N24  Bn2  v100
 BYTE   W24
 BYTE   N12  Fs3  v124
 BYTE   W24
 BYTE   N24
 BYTE   W24
 BYTE   N12  Bn2  v088
 BYTE   W12
 BYTE   An2  v084
 BYTE   W12
 BYTE   PEND 
//  #04 //027   ----------------------------------------
Label_0101B400:
 BYTE   N48  Bn2  v100
 BYTE   W60
 BYTE   N12
 BYTE   W12
 BYTE   Cs3  v096
 BYTE   W12
 BYTE   Dn3  v068
 BYTE   W12
 BYTE   PEND 
//  #04 //028   ----------------------------------------
Label_0101B40D:
 BYTE   N12  Cs3  v116
 BYTE   W12
 BYTE   Dn3  v068
 BYTE   W12
 BYTE   N48  An3  v092
 BYTE   W48
 BYTE   N24  Bn3  v104
 BYTE   W24
 BYTE   PEND 
//  #04 //029   ----------------------------------------
 BYTE   N96  Fs3  v060
 BYTE   W96
//  #04 //030   ----------------------------------------
 BYTE   N24  Bn2  v100
 BYTE   W24
 BYTE   N12  Fs3  v127
 BYTE   W24
 BYTE   N24  Fs3  v124
 BYTE   W24
 BYTE   N12  Bn2  v092
 BYTE   W12
 BYTE   An2  v064
 BYTE   W12
//  #04 //031   ----------------------------------------
 BYTE   N60  Bn2  v092
 BYTE   W60
 BYTE   N12  Bn2  v096
 BYTE   W12
 BYTE   Cs3  v084
 BYTE   W12
 BYTE   Dn3  v092
 BYTE   W12
//  #04 //032   ----------------------------------------
 BYTE   Cs3  v120
 BYTE   W12
 BYTE   Dn3  v088
 BYTE   W12
 BYTE   N48  An3  v096
 BYTE   W48
 BYTE   N24  Gn3  v088
 BYTE   W24
//  #04 //033   ----------------------------------------
 BYTE   N80  Fs3  v096
 BYTE   W96
//  #04 //034   ----------------------------------------
 BYTE   PATT
  POIN2 Label_0101B3EE
//  #04 //035   ----------------------------------------
 BYTE   PATT
  POIN2 Label_0101B400
//  #04 //036   ----------------------------------------
 BYTE   PATT
  POIN2 Label_0101B40D
//  #04 //037   ----------------------------------------
 BYTE   N92  Fs3  v060
 BYTE   W96
//  #04 //038   ----------------------------------------
 BYTE   N24  En3  v088
 BYTE   W24
 BYTE   Fs3  v096
 BYTE   W24
 BYTE   Cs4  v092
 BYTE   W24
 BYTE   N12  Fs3  v080
 BYTE   W12
 BYTE   En3  v064
 BYTE   W12
//  #04 //039   ----------------------------------------
 BYTE   N60  Fs3  v108
 BYTE   W60
 BYTE   N12  Fs3  v092
 BYTE   W12
 BYTE   An3  v088
 BYTE   W12
 BYTE   Cs4  v056
 BYTE   W12
//  #04 //040   ----------------------------------------
 BYTE   TIE  Bn3  v100
 BYTE   W96
//  #04 //041   ----------------------------------------
 BYTE   W88
 BYTE   EOT
 BYTE   W08
//  #04 //042   ----------------------------------------
 BYTE   N07  Bn3  v092
 BYTE   W18
 BYTE   N08  Bn3  v100
 BYTE   W18
 BYTE   N06  Bn3  v112
 BYTE   W12
 BYTE   N07  Bn3  v100
 BYTE   W18
 BYTE   N05  Bn3  v104
 BYTE   W18
 BYTE   N24  Bn3  v120
 BYTE   W12
//  #04 //043   ----------------------------------------
 BYTE   W96
//  #04 //044   ----------------------------------------
 BYTE   N08
 BYTE   W18
 BYTE   Bn3  v108
 BYTE   W18
 BYTE   N06  Bn3  v120
 BYTE   W12
 BYTE   N08  Bn3  v116
 BYTE   W18
 BYTE   N07
 BYTE   W18
 BYTE   N24  Bn3  v120
 BYTE   W12
//  #04 //045   ----------------------------------------
 BYTE   W96
//  #04 //046   ----------------------------------------
 BYTE   N08
 BYTE   W18
 BYTE   Bn3  v112
 BYTE   W18
 BYTE   Bn3  v116
 BYTE   W12
 BYTE   N07
 BYTE   W18
 BYTE   N08  Bn3  v108
 BYTE   W18
 BYTE   N24  Bn3  v112
 BYTE   W12
//  #04 //047   ----------------------------------------
 BYTE   W96
//  #04 //048   ----------------------------------------
 BYTE   N08  Bn4  v120
 BYTE   W18
 BYTE   N07  Bn4  v112
 BYTE   W18
 BYTE   N06  Bn4  v120
 BYTE   W12
 BYTE   N07  Bn4  v116
 BYTE   W18
 BYTE   N07
 BYTE   W18
 BYTE   N24
 BYTE   W12
//  #04 //049   ----------------------------------------
 BYTE   W96
//  #04 //050   ----------------------------------------
Label_0101B4E2:
 BYTE   N07  Gs2  v124
 BYTE   W16
 BYTE   N10  Gs2  v120
 BYTE   W32
 BYTE   N07  Gs2  v124
 BYTE   W16
 BYTE   N10
 BYTE   W32
 BYTE   PEND 
//  #04 //051   ----------------------------------------
Label_0101B4F1:
 BYTE   N07  Gs2  v127
 BYTE   W16
 BYTE   N12  Gs2  v120
 BYTE   W32
 BYTE   N07  Gs2  v104
 BYTE   W16
 BYTE   N15  Gs2  v127
 BYTE   W32
 BYTE   PEND 
//  #04 //052   ----------------------------------------
Label_0101B502:
 BYTE   N08  Ds2  v127
 BYTE   W16
 BYTE   N11  Ds2  v124
 BYTE   W32
 BYTE   N07  Ds2  v127
 BYTE   W16
 BYTE   N11  Ds2  v124
 BYTE   W32
 BYTE   PEND 
//  #04 //053   ----------------------------------------
Label_0101B513:
 BYTE   N07  Fn2  v116
 BYTE   W16
 BYTE   N08  Fn2  v120
 BYTE   W32
 BYTE   N09
 BYTE   W16
 BYTE   N08
 BYTE   W32
 BYTE   PEND 
//  #04 //054   ----------------------------------------
 BYTE   PATT
  POIN2 Label_0101B4E2
//  #04 //055   ----------------------------------------
 BYTE   PATT
  POIN2 Label_0101B4F1
//  #04 //056   ----------------------------------------
 BYTE   PATT
  POIN2 Label_0101B502
//  #04 //057   ----------------------------------------
 BYTE   PATT
  POIN2 Label_0101B513
//  #04 //058   ----------------------------------------
Label_0101B534:
 BYTE   W02
 BYTE   N07  An2  v124
 BYTE   W16
 BYTE   N10  An2  v120
 BYTE   W32
 BYTE   N07  An2  v124
 BYTE   W16
 BYTE   N10
 BYTE   W30
 BYTE   PEND 
//  #04 //059   ----------------------------------------
Label_0101B544:
 BYTE   W02
 BYTE   N07  An2  v127
 BYTE   W16
 BYTE   N12  An2  v120
 BYTE   W32
 BYTE   N07  An2  v104
 BYTE   W16
 BYTE   N15  An2  v127
 BYTE   W30
 BYTE   PEND 
//  #04 //060   ----------------------------------------
Label_0101B556:
 BYTE   W02
 BYTE   N08  En2  v127
 BYTE   W16
 BYTE   N11  En2  v124
 BYTE   W32
 BYTE   N07  En2  v127
 BYTE   W16
 BYTE   N11  En2  v124
 BYTE   W30
 BYTE   PEND 
//  #04 //061   ----------------------------------------
Label_0101B568:
 BYTE   W02
 BYTE   N07  Fs2  v116
 BYTE   W16
 BYTE   N08  Fs2  v120
 BYTE   W32
 BYTE   N09
 BYTE   W16
 BYTE   N08
 BYTE   W30
 BYTE   PEND 
//  #04 //062   ----------------------------------------
 BYTE   PATT
  POIN2 Label_0101B534
//  #04 //063   ----------------------------------------
 BYTE   PATT
  POIN2 Label_0101B544
//  #04 //064   ----------------------------------------
 BYTE   PATT
  POIN2 Label_0101B556
//  #04 //065   ----------------------------------------
 BYTE   PATT
  POIN2 Label_0101B568
//  #04 //066   ----------------------------------------
 BYTE   N14  Fn3  v096
 BYTE   W16
 BYTE   N04  Cn3  v092
 BYTE   W16
 BYTE   N02  Cn3  v084
 BYTE   W16
 BYTE   N15  Fn3  v108
 BYTE   W16
 BYTE   N07  Cn3  v092
 BYTE   W16
 BYTE   N06  Fn3  v100
 BYTE   W16
//  #04 //067   ----------------------------------------
 BYTE   N15  Cn3  v084
 BYTE   W96
//  #04 //068   ----------------------------------------
 BYTE   N04  Dn4  v056
 BYTE   W16
 BYTE   N05
 BYTE   W16
 BYTE   N04
 BYTE   W16
 BYTE   N07  Dn4  v048
 BYTE   W16
 BYTE   N05  Dn4  v004
 BYTE   W16
 BYTE   Dn4  v044
 BYTE   W16
//  #04 //069   ----------------------------------------
 BYTE   N06  Cn4  v052
 BYTE   W16
 BYTE   N05  Cn4  v032
 BYTE   W16
 BYTE   Cn4  v048
 BYTE   W16
 BYTE   N06  Cn4  v060
 BYTE   W16
 BYTE   Cn4  v052
 BYTE   W16
 BYTE   Cn4  v056
 BYTE   W16
//  #04 //070   ----------------------------------------
 BYTE   Fn4  v048
 BYTE   W16
 BYTE   N05  Fn4  v036
 BYTE   W16
 BYTE   Fn4  v032
 BYTE   W16
 BYTE   N06  Fn4  v048
 BYTE   W16
 BYTE   N04  Fn4  v036
 BYTE   W16
 BYTE   N05
 BYTE   W16
//  #04 //071   ----------------------------------------
 BYTE   N07  Cn4  v060
 BYTE   W16
 BYTE   N06  Cn4  v032
 BYTE   W16
 BYTE   Cn4  v048
 BYTE   W16
 BYTE   N07  Cn4  v060
 BYTE   W16
 BYTE   N05  Cn4  v044
 BYTE   W16
 BYTE   Cn4  v052
 BYTE   W16
//  #04 //072   ----------------------------------------
 BYTE   Dn4  v068
 BYTE   W16
 BYTE   Dn4  v048
 BYTE   W16
 BYTE   Dn4  v060
 BYTE   W16
 BYTE   N07  Dn4  v056
 BYTE   W16
 BYTE   N05
 BYTE   W16
 BYTE   Dn4  v048
 BYTE   W16
//  #04 //073   ----------------------------------------
 BYTE   N07  An4  v056
 BYTE   W16
 BYTE   N05
 BYTE   W16
 BYTE   N06  An4  v060
 BYTE   W16
 BYTE   N08
 BYTE   W16
 BYTE   N07  An4  v036
 BYTE   W16
 BYTE   N06  An4  v048
 BYTE   W16
//  #04 //074   ----------------------------------------
 BYTE   As4  v044
 BYTE   W16
 BYTE   N05
 BYTE   W16
 BYTE   N07
 BYTE   W16
 BYTE   N06  Gn4  v048
 BYTE   W16
 BYTE   N06
 BYTE   W16
 BYTE   N08
 BYTE   W16
//  #04 //075   ----------------------------------------
 BYTE   Fn4
 BYTE   W16
 BYTE   N05
 BYTE   W16
 BYTE   N05
 BYTE   W16
 BYTE   N07  Gn4  v040
 BYTE   W16
 BYTE   N06  Gn4  v048
 BYTE   W16
 BYTE   Gn4  v040
 BYTE   W16
//  #04 //076   ----------------------------------------
 BYTE   Dn4  v060
 BYTE   W16
 BYTE   Dn4  v036
 BYTE   W16
 BYTE   Dn4  v048
 BYTE   W16
 BYTE   N07  Dn4  v052
 BYTE   W16
 BYTE   N05  Dn4  v040
 BYTE   W16
 BYTE   N06  Dn4  v020
 BYTE   W16
//  #04 //077   ----------------------------------------
 BYTE   N07  Cn4  v048
 BYTE   W16
 BYTE   N06  Cn4  v032
 BYTE   W16
 BYTE   Cn4  v044
 BYTE   W16
 BYTE   N05  Cn4  v048
 BYTE   W16
 BYTE   N05
 BYTE   W16
 BYTE   N06  Cn4  v044
 BYTE   W16
//  #04 //078   ----------------------------------------
 BYTE   Fn4  v052
 BYTE   W16
 BYTE   N05  Fn4  v024
 BYTE   W16
 BYTE   Fn4  v044
 BYTE   W16
 BYTE   N06  Fn4  v048
 BYTE   W16
 BYTE   N05  Fn4  v024
 BYTE   W16
 BYTE   N04  Fn4  v048
 BYTE   W16
//  #04 //079   ----------------------------------------
 BYTE   N06  Gn4
 BYTE   W16
 BYTE   N05  Gn4  v032
 BYTE   W16
 BYTE   Gn4  v040
 BYTE   W16
 BYTE   N06
 BYTE   W16
 BYTE   N05  Gn4  v044
 BYTE   W16
 BYTE   Gn4  v036
 BYTE   W16
//  #04 //080   ----------------------------------------
 BYTE   N06  Gn4  v032
 BYTE   W16
 BYTE   N05  Gn4  v008
 BYTE   W16
 BYTE   Gn4  v032
 BYTE   W16
 BYTE   N06  Gn4  v056
 BYTE   W16
 BYTE   N05  Gn4  v024
 BYTE   W16
 BYTE   Gn4  v032
 BYTE   W16
//  #04 //081   ----------------------------------------
 BYTE   N08  Cn4  v052
 BYTE   W16
 BYTE   N05  Cn4  v048
 BYTE   W16
 BYTE   N07  Cn4  v052
 BYTE   W16
 BYTE   N08
 BYTE   W16
 BYTE   N05  Cn4  v032
 BYTE   W16
 BYTE   N09  Cn4  v016
 BYTE   W16
//  #04 //082   ----------------------------------------
 BYTE   N07  Dn4  v068
 BYTE   W18
 BYTE   N06  Gn3  v048
 BYTE   W18
 BYTE   Dn4  v036
 BYTE   W12
 BYTE   Dn4  v044
 BYTE   W12
 BYTE   As3  v040
 BYTE   W06
 BYTE   Cn4  v032
 BYTE   W06
 BYTE   N04  Dn4  v052
 BYTE   W04
 BYTE   Cn4
 BYTE   W04
 BYTE   As3  v044
 BYTE   W16
//  #04 //083   ----------------------------------------
 BYTE   N06  Cn4  v084
 BYTE   W18
 BYTE   Fn3  v044
 BYTE   W18
 BYTE   Cn4  v068
 BYTE   W12
 BYTE   Cn4  v080
 BYTE   W18
 BYTE   Fn3  v036
 BYTE   W30
//  #04 //084   ----------------------------------------
 BYTE   N07  Fn3  v048
 BYTE   W16
 BYTE   N05  Fn3  v040
 BYTE   W16
 BYTE   Fn3  v020
 BYTE   W16
 BYTE   N06  Fn3  v052
 BYTE   W16
 BYTE   N05  Fn3  v040
 BYTE   W16
 BYTE   Fn3  v036
 BYTE   W16
//  #04 //085   ----------------------------------------
 BYTE   N07  Cn3  v048
 BYTE   W16
 BYTE   N06  Cn3  v028
 BYTE   W16
 BYTE   Cn3  v036
 BYTE   W16
 BYTE   Bn2
 BYTE   W16
 BYTE   N07  Bn2  v032
 BYTE   W16
 BYTE   N06  Bn2  v044
 BYTE   W16
//  #04 //086   ----------------------------------------
 BYTE   N07  Dn4  v088
 BYTE   W18
 BYTE   N06  Gn3  v064
 BYTE   W18
 BYTE   Dn4  v052
 BYTE   W12
 BYTE   Dn4  v056
 BYTE   W12
 BYTE   As3
 BYTE   W06
 BYTE   Cn4  v044
 BYTE   W06
 BYTE   N04  Dn4  v068
 BYTE   W04
 BYTE   Cn4
 BYTE   W04
 BYTE   As3  v056
 BYTE   W16
//  #04 //087   ----------------------------------------
 BYTE   N06  Cn4  v108
 BYTE   W18
 BYTE   Fn3  v060
 BYTE   W18
 BYTE   Cn4  v084
 BYTE   W12
 BYTE   Cn4  v100
 BYTE   W18
 BYTE   Fn3  v052
 BYTE   W30
//  #04 //088   ----------------------------------------
 BYTE   N07  Gn3  v064
 BYTE   W15
 BYTE   Gn3  v052
 BYTE   W16
 BYTE   N07
 BYTE   W16
 BYTE   N07
 BYTE   W16
 BYTE   N06  Gn3  v028
 BYTE   W16
 BYTE   N06
 BYTE   W16
 BYTE   N80  Gn3  v072
 BYTE   W01
//  #04 //089   ----------------------------------------
 BYTE   W92
 BYTE   W03
 BYTE   Gn3  v080
 BYTE   W01
//  #04 //090   ----------------------------------------
 BYTE   W96
//  #04 //091   ----------------------------------------
 BYTE   N84  En2  v044
 BYTE   W96
//  #04 //092   ----------------------------------------
 BYTE   N88  En2  v048
 BYTE   W96
//  #04 //093   ----------------------------------------
 BYTE   PATT
  POIN2 Label_0101B289
//  #04 //094   ----------------------------------------
 BYTE   PATT
  POIN2 Label_0101B2A3
//  #04 //095   ----------------------------------------
 BYTE   PATT
  POIN2 Label_0101B289
//  #04 //096   ----------------------------------------
 BYTE   PATT
  POIN2 Label_0101B2A3
//  #04 //097   ----------------------------------------
 BYTE   GoTo
  POIN2 Label_0101B2CA
 BYTE   FINE

//**************** Track 5 (Midi-Chn.4) ****************//

FE17BrightSandstormKaidras_005:
//  #05 //000   ----------------------------------------
 BYTE   KEYSH   FE17BrightSandstormKaidras_key+0
 BYTE   VOICE   41
 BYTE   MODT 0
 BYTE   LFOS 44
 BYTE   PAN   c_v+3
 BYTE   VOL   75*FE17BrightSandstormKaidras_mvl/mxv
 BYTE   W96
//  #05 //001   ----------------------------------------
 BYTE   W96
//  #05 //002   ----------------------------------------
 BYTE   W96
//  #05 //003   ----------------------------------------
 BYTE   W96
//  #05 //004   ----------------------------------------
 BYTE   W96
//  #05 //005   ----------------------------------------
Label_01000789:
 BYTE   W96
//  #05 //006   ----------------------------------------
 BYTE   W96
//  #05 //007   ----------------------------------------
 BYTE   W96
//  #05 //008   ----------------------------------------
 BYTE   W96
//  #05 //009   ----------------------------------------
 BYTE   W96
//  #05 //010   ----------------------------------------
 BYTE   W96
//  #05 //011   ----------------------------------------
 BYTE   W96
//  #05 //012   ----------------------------------------
 BYTE   W96
//  #05 //013   ----------------------------------------
 BYTE   W96
//  #05 //014   ----------------------------------------
 BYTE   W96
//  #05 //015   ----------------------------------------
 BYTE   W96
//  #05 //016   ----------------------------------------
 BYTE   W96
//  #05 //017   ----------------------------------------
 BYTE   W96
//  #05 //018   ----------------------------------------
 BYTE   W96
//  #05 //019   ----------------------------------------
 BYTE   W96
//  #05 //020   ----------------------------------------
 BYTE   W96
//  #05 //021   ----------------------------------------
 BYTE   W96
//  #05 //022   ----------------------------------------
 BYTE   W96
//  #05 //023   ----------------------------------------
 BYTE   W96
//  #05 //024   ----------------------------------------
 BYTE   W96
//  #05 //025   ----------------------------------------
Label_0100079D:
 BYTE   N24  Bn3  v100
 BYTE   W24
 BYTE   N12  Fs4  v124
 BYTE   W24
 BYTE   N24
 BYTE   W24
 BYTE   N12  Bn3  v088
 BYTE   W12
 BYTE   An3  v084
 BYTE   W12
 BYTE   PEND 
//  #05 //026   ----------------------------------------
Label_010007AF:
 BYTE   N48  Bn3  v100
 BYTE   W60
 BYTE   N12
 BYTE   W12
 BYTE   Cs4  v096
 BYTE   W12
 BYTE   Dn4  v068
 BYTE   W12
 BYTE   PEND 
//  #05 //027   ----------------------------------------
Label_010007BC:
 BYTE   N12  Cs4  v116
 BYTE   W12
 BYTE   Dn4  v068
 BYTE   W12
 BYTE   N48  An4  v092
 BYTE   W48
 BYTE   N24  Bn4  v104
 BYTE   W24
 BYTE   PEND 
//  #05 //028   ----------------------------------------
 BYTE   N96  Fs4  v060
 BYTE   W96
//  #05 //029   ----------------------------------------
 BYTE   N24  Bn3  v100
 BYTE   W24
 BYTE   N12  Fs4  v127
 BYTE   W24
 BYTE   N24  Fs4  v124
 BYTE   W24
 BYTE   N12  Bn3  v092
 BYTE   W12
 BYTE   An3  v064
 BYTE   W12
//  #05 //030   ----------------------------------------
 BYTE   N60  Bn3  v092
 BYTE   W60
 BYTE   N12  Bn3  v096
 BYTE   W12
 BYTE   Cs4  v084
 BYTE   W12
 BYTE   Dn4  v092
 BYTE   W12
//  #05 //031   ----------------------------------------
 BYTE   Cs4  v120
 BYTE   W12
 BYTE   Dn4  v088
 BYTE   W12
 BYTE   N48  An4  v096
 BYTE   W48
 BYTE   N24  Gn4  v088
 BYTE   W24
//  #05 //032   ----------------------------------------
 BYTE   N80  Fs4  v096
 BYTE   W96
//  #05 //033   ----------------------------------------
 BYTE   PATT
  POIN2 Label_0100079D
//  #05 //034   ----------------------------------------
 BYTE   PATT
  POIN2 Label_010007AF
//  #05 //035   ----------------------------------------
 BYTE   PATT
  POIN2 Label_010007BC
//  #05 //036   ----------------------------------------
 BYTE   N92  Fs4  v060
 BYTE   W96
//  #05 //037   ----------------------------------------
 BYTE   N24  En4  v088
 BYTE   W24
 BYTE   Fs4  v096
 BYTE   W24
 BYTE   Cs5  v092
 BYTE   W24
 BYTE   N12  Fs4  v080
 BYTE   W12
 BYTE   En4  v064
 BYTE   W12
//  #05 //038   ----------------------------------------
 BYTE   N60  Fs4  v108
 BYTE   W60
 BYTE   N12  Fs4  v092
 BYTE   W12
 BYTE   An4  v088
 BYTE   W12
 BYTE   Cs5  v056
 BYTE   W12
//  #05 //039   ----------------------------------------
 BYTE   TIE  Bn4  v100
 BYTE   W96
//  #05 //040   ----------------------------------------
 BYTE   W88
 BYTE   EOT
 BYTE   W08
//  #05 //041   ----------------------------------------
 BYTE   W96
//  #05 //042   ----------------------------------------
 BYTE   W96
//  #05 //043   ----------------------------------------
 BYTE   W96
//  #05 //044   ----------------------------------------
 BYTE   W96
//  #05 //045   ----------------------------------------
 BYTE   W96
//  #05 //046   ----------------------------------------
 BYTE   W96
//  #05 //047   ----------------------------------------
 BYTE   W96
//  #05 //048   ----------------------------------------
 BYTE   W96
//  #05 //049   ----------------------------------------
 BYTE   W96
//  #05 //050   ----------------------------------------
 BYTE   W96
//  #05 //051   ----------------------------------------
 BYTE   W96
//  #05 //052   ----------------------------------------
 BYTE   W96
//  #05 //053   ----------------------------------------
 BYTE   W96
//  #05 //054   ----------------------------------------
 BYTE   W96
//  #05 //055   ----------------------------------------
 BYTE   W96
//  #05 //056   ----------------------------------------
 BYTE   W96
//  #05 //057   ----------------------------------------
 BYTE   W48
 BYTE   N13  An4
 BYTE   W12
 BYTE   N12  Dn4  v092
 BYTE   W12
 BYTE   N15  Cs4  v048
 BYTE   W12
 BYTE   N09  Dn4  v088
 BYTE   W12
//  #05 //058   ----------------------------------------
 BYTE   N72  An4  v108
 BYTE   W84
 BYTE   N06  An4  v100
 BYTE   W06
 BYTE   Bn4  v112
 BYTE   W06
//  #05 //059   ----------------------------------------
 BYTE   N12  An4  v100
 BYTE   W12
 BYTE   Dn4  v088
 BYTE   W12
 BYTE   Cs4  v068
 BYTE   W12
 BYTE   Dn4
 BYTE   W12
 BYTE   N32  An4  v108
 BYTE   W32
 BYTE   N08  Gn4  v080
 BYTE   W08
 BYTE   Fs4  v116
 BYTE   W08
//  #05 //060   ----------------------------------------
 BYTE   N12  En4  v072
 BYTE   W12
 BYTE   Fs4  v088
 BYTE   W12
 BYTE   Dn4  v092
 BYTE   W12
 BYTE   Cs4  v088
 BYTE   W12
 BYTE   N48  Dn4
 BYTE   W48
//  #05 //061   ----------------------------------------
 BYTE   N24  Bn3  v104
 BYTE   W24
 BYTE   N12  Fs4  v088
 BYTE   W24
 BYTE   N24  Fs4  v076
 BYTE   W24
 BYTE   N12  Bn3  v104
 BYTE   W12
 BYTE   An3  v076
 BYTE   W12
//  #05 //062   ----------------------------------------
 BYTE   N48  Bn3  v100
 BYTE   W60
 BYTE   N12  Bn3  v108
 BYTE   W12
 BYTE   Cs4  v104
 BYTE   W12
 BYTE   Dn4  v084
 BYTE   W12
//  #05 //063   ----------------------------------------
 BYTE   Cs4  v100
 BYTE   W12
 BYTE   Dn4  v088
 BYTE   W12
 BYTE   TIE  An4  v100
 BYTE   W72
//  #05 //064   ----------------------------------------
 BYTE   W76
 BYTE   EOT
 BYTE   W20
//  #05 //065   ----------------------------------------
 BYTE   N14  As3
 BYTE   W16
 BYTE   N08  Fn3  v096
 BYTE   W16
 BYTE   N05  Fn3  v056
 BYTE   W16
 BYTE   N15  As3  v080
 BYTE   W16
 BYTE   N08  Fn3  v100
 BYTE   W16
 BYTE   As3
 BYTE   W16
//  #05 //066   ----------------------------------------
 BYTE   N17  An3  v127
 BYTE   W48
 BYTE   N08  Cn4  v104
 BYTE   W12
 BYTE   Dn4  v116
 BYTE   W12
 BYTE   As4  v112
 BYTE   W12
 BYTE   N12  An4  v108
 BYTE   W12
//  #05 //067   ----------------------------------------
 BYTE   N44  Dn4  v127
 BYTE   W48
 BYTE   N12  Cn4  v092
 BYTE   W12
 BYTE   Dn4  v112
 BYTE   W12
 BYTE   As4  v092
 BYTE   W12
 BYTE   An4  v108
 BYTE   W12
//  #05 //068   ----------------------------------------
 BYTE   N44  Cn4  v116
 BYTE   W48
 BYTE   N14  Cn4  v120
 BYTE   W12
 BYTE   N09  Dn4  v112
 BYTE   W12
 BYTE   N13  As4  v100
 BYTE   W12
 BYTE   N12  An4  v112
 BYTE   W12
//  #05 //069   ----------------------------------------
 BYTE   N32  Fn4  v108
 BYTE   W36
 BYTE   N11  Dn4  v112
 BYTE   W12
 BYTE   N12  Fn4  v104
 BYTE   W12
 BYTE   N11  Dn4  v120
 BYTE   W12
 BYTE   N24  Cn4  v112
 BYTE   W24
//  #05 //070   ----------------------------------------
 BYTE   Cn4  v120
 BYTE   W24
 BYTE   N20  Dn4
 BYTE   W24
 BYTE   N12  Cn4  v108
 BYTE   W12
 BYTE   N13  Dn4  v096
 BYTE   W12
 BYTE   N08  As4  v088
 BYTE   W12
 BYTE   N17  An4
 BYTE   W12
//  #05 //071   ----------------------------------------
 BYTE   N30  Dn4  v120
 BYTE   W48
 BYTE   N13  Dn4  v108
 BYTE   W12
 BYTE   Gn4  v100
 BYTE   W12
 BYTE   N10  An4  v092
 BYTE   W12
 BYTE   N13  As4  v096
 BYTE   W12
//  #05 //072   ----------------------------------------
 BYTE   N24  Cn5  v108
 BYTE   W24
 BYTE   N11  As4  v100
 BYTE   W12
 BYTE   N24  An4  v096
 BYTE   W24
 BYTE   N11  Gn4  v092
 BYTE   W12
 BYTE   N09  An4  v104
 BYTE   W12
 BYTE   N08  As4  v127
 BYTE   W12
//  #05 //073   ----------------------------------------
 BYTE   N96
 BYTE   W96
//  #05 //074   ----------------------------------------
 BYTE   W48
 BYTE   N13  Gn4  v116
 BYTE   W12
 BYTE   N10  Fn4  v108
 BYTE   W12
 BYTE   N12  Dn4  v104
 BYTE   W12
 BYTE   Cn4  v100
 BYTE   W12
//  #05 //075   ----------------------------------------
 BYTE   N24  Dn4  v116
 BYTE   W48
 BYTE   N12  Cn4  v084
 BYTE   W12
 BYTE   N11  Dn4  v100
 BYTE   W12
 BYTE   As4  v088
 BYTE   W12
 BYTE   N13  An4  v112
 BYTE   W12
//  #05 //076   ----------------------------------------
 BYTE   N24  Cn4  v120
 BYTE   W48
 BYTE   N11  Cn4  v092
 BYTE   W12
 BYTE   N10  Dn4
 BYTE   W12
 BYTE   As4  v052
 BYTE   W12
 BYTE   N14  An4  v100
 BYTE   W12
//  #05 //077   ----------------------------------------
 BYTE   N24  Fn4  v104
 BYTE   W36
 BYTE   N11  Dn4  v120
 BYTE   W12
 BYTE   N12  Fn4  v112
 BYTE   W12
 BYTE   Cn5  v120
 BYTE   W12
 BYTE   An4  v127
 BYTE   W24
//  #05 //078   ----------------------------------------
 BYTE   N24
 BYTE   W24
 BYTE   N22  As4
 BYTE   W24
 BYTE   N11  As4  v108
 BYTE   W12
 BYTE   N12  An4  v100
 BYTE   W12
 BYTE   N11  Gn4  v084
 BYTE   W12
 BYTE   N12  Fn4  v048
 BYTE   W12
//  #05 //079   ----------------------------------------
 BYTE   N44  Gn4  v127
 BYTE   W48
 BYTE   N12  Dn4  v100
 BYTE   W12
 BYTE   Gn4  v096
 BYTE   W12
 BYTE   N10  An4  v064
 BYTE   W12
 BYTE   N12  As4  v127
 BYTE   W12
//  #05 //080   ----------------------------------------
 BYTE   N24  An4
 BYTE   W24
 BYTE   N11  Fs4  v088
 BYTE   W12
 BYTE   N32  Cn5  v124
 BYTE   W36
 BYTE   N11  An4  v120
 BYTE   W12
 BYTE   TIE  As4  v127
 BYTE   W12
//  #05 //081   ----------------------------------------
 BYTE   W96
//  #05 //082   ----------------------------------------
 BYTE   EOT
 BYTE   W60
 BYTE   N09  As4  v108
 BYTE   W12
 BYTE   N14  An4  v068
 BYTE   W12
 BYTE   N11  Gn4  v060
 BYTE   W12
//  #05 //083   ----------------------------------------
 BYTE   Fn4  v120
 BYTE   W12
 BYTE   N12  As3  v100
 BYTE   W12
 BYTE   N11  An3  v104
 BYTE   W12
 BYTE   N17  As3  v127
 BYTE   W12
 BYTE   N28  Fn4
 BYTE   W36
 BYTE   N06  Ds4  v104
 BYTE   W06
 BYTE   Dn4
 BYTE   W06
//  #05 //084   ----------------------------------------
 BYTE   N11  Cn4  v100
 BYTE   W12
 BYTE   Dn4  v120
 BYTE   W12
 BYTE   As3  v092
 BYTE   W12
 BYTE   N13  An3
 BYTE   W12
 BYTE   N42  Gn3  v112
 BYTE   W48
//  #05 //085   ----------------------------------------
 BYTE   W96
//  #05 //086   ----------------------------------------
 BYTE   W96
//  #05 //087   ----------------------------------------
 BYTE   N17
 BYTE   W24
 BYTE   N15  Dn4  v127
 BYTE   W24
 BYTE   N20
 BYTE   W24
 BYTE   N12  Gn3  v112
 BYTE   W12
 BYTE   Fn3  v104
 BYTE   W12
//  #05 //088   ----------------------------------------
 BYTE   TIE  Gn3  v127
 BYTE   W96
//  #05 //089   ----------------------------------------
 BYTE   W96
//  #05 //090   ----------------------------------------
 BYTE   EOT
 BYTE   N84  Dn4  v024
 BYTE   W96
//  #05 //091   ----------------------------------------
 BYTE   N88  Cs4  v028
 BYTE   W96
//  #05 //092   ----------------------------------------
 BYTE   W96
//  #05 //093   ----------------------------------------
 BYTE   W96
//  #05 //094   ----------------------------------------
 BYTE   W96
//  #05 //095   ----------------------------------------
 BYTE   W96
//  #05 //096   ----------------------------------------
 BYTE   GoTo
  POIN2 Label_01000789
 BYTE   FINE

//**************** Track 6 (Midi-Chn.5) ****************//

FE17BrightSandstormKaidras_006:
//  #06 //000   ----------------------------------------
 BYTE   KEYSH   FE17BrightSandstormKaidras_key+0
 BYTE   VOICE   46
 BYTE   MODT 0
 BYTE   LFOS 44
 BYTE   VOL   58*FE17BrightSandstormKaidras_mvl/mxv
 BYTE   PAN   c_v-34
 BYTE   W96
//  #06 //001   ----------------------------------------
 BYTE   N16  Bn2  v052
 BYTE   W16
 BYTE   Dn3  v044
 BYTE   W16
 BYTE   Fs3  v024
 BYTE   W16
 BYTE   Bn2  v048
 BYTE   W16
 BYTE   Dn3
 BYTE   W16
 BYTE   Fs3  v036
 BYTE   W16
//  #06 //002   ----------------------------------------
 BYTE   Bn2  v044
 BYTE   W16
 BYTE   Fs3  v036
 BYTE   W16
 BYTE   An3  v032
 BYTE   W16
 BYTE   Bn2  v048
 BYTE   W16
 BYTE   Fs3  v032
 BYTE   W16
 BYTE   An3  v024
 BYTE   W16
//  #06 //003   ----------------------------------------
 BYTE   Bn2  v048
 BYTE   W16
 BYTE   Dn3  v036
 BYTE   W16
 BYTE   Fs3  v060
 BYTE   W16
 BYTE   Bn2  v048
 BYTE   W16
 BYTE   Dn3
 BYTE   W16
 BYTE   Fs3  v068
 BYTE   W16
//  #06 //004   ----------------------------------------
 BYTE   Bn2  v048
 BYTE   W16
 BYTE   Fs3  v080
 BYTE   W16
 BYTE   An3  v036
 BYTE   W16
 BYTE   Bn2  v044
 BYTE   W16
 BYTE   Fs3
 BYTE   W16
 BYTE   An3  v040
 BYTE   W16
//  #06 //005   ----------------------------------------
Label_0101B7D3:
 BYTE   N16  Bn2  v048
 BYTE   W16
 BYTE   Dn3  v044
 BYTE   W16
 BYTE   Fs3  v024
 BYTE   W16
 BYTE   Bn2  v048
 BYTE   W16
 BYTE   Dn3  v036
 BYTE   W16
 BYTE   Fs3  v048
 BYTE   W16
//  #06 //006   ----------------------------------------
 BYTE   Bn2
 BYTE   W16
 BYTE   Fs3  v056
 BYTE   W16
 BYTE   An3  v036
 BYTE   W16
 BYTE   Bn2  v048
 BYTE   W16
 BYTE   Fs3  v028
 BYTE   W16
 BYTE   An3  v036
 BYTE   W16
//  #06 //007   ----------------------------------------
 BYTE   An2  v044
 BYTE   W16
 BYTE   Cs3  v032
 BYTE   W16
 BYTE   En3  v040
 BYTE   W16
 BYTE   An2  v044
 BYTE   W16
 BYTE   Cs3
 BYTE   W16
 BYTE   En3
 BYTE   W16
//  #06 //008   ----------------------------------------
 BYTE   An2  v048
 BYTE   W16
 BYTE   Cs3
 BYTE   W16
 BYTE   En3  v044
 BYTE   W16
 BYTE   An2  v048
 BYTE   W16
 BYTE   Cs3
 BYTE   W16
 BYTE   En3  v044
 BYTE   W16
//  #06 //009   ----------------------------------------
 BYTE   W96
//  #06 //010   ----------------------------------------
 BYTE   W96
//  #06 //011   ----------------------------------------
 BYTE   W96
//  #06 //012   ----------------------------------------
 BYTE   W96
//  #06 //013   ----------------------------------------
 BYTE   W96
//  #06 //014   ----------------------------------------
 BYTE   W96
//  #06 //015   ----------------------------------------
 BYTE   W96
//  #06 //016   ----------------------------------------
 BYTE   W96
//  #06 //017   ----------------------------------------
 BYTE   W96
//  #06 //018   ----------------------------------------
 BYTE   W96
//  #06 //019   ----------------------------------------
 BYTE   W96
//  #06 //020   ----------------------------------------
 BYTE   W96
//  #06 //021   ----------------------------------------
 BYTE   W96
//  #06 //022   ----------------------------------------
 BYTE   W96
//  #06 //023   ----------------------------------------
 BYTE   W96
//  #06 //024   ----------------------------------------
 BYTE   W96
//  #06 //025   ----------------------------------------
 BYTE   W96
//  #06 //026   ----------------------------------------
 BYTE   W96
//  #06 //027   ----------------------------------------
 BYTE   W96
//  #06 //028   ----------------------------------------
 BYTE   W96
//  #06 //029   ----------------------------------------
 BYTE   W96
//  #06 //030   ----------------------------------------
 BYTE   W96
//  #06 //031   ----------------------------------------
 BYTE   W96
//  #06 //032   ----------------------------------------
 BYTE   W96
//  #06 //033   ----------------------------------------
 BYTE   W96
//  #06 //034   ----------------------------------------
 BYTE   W96
//  #06 //035   ----------------------------------------
 BYTE   W96
//  #06 //036   ----------------------------------------
 BYTE   W96
//  #06 //037   ----------------------------------------
 BYTE   W96
//  #06 //038   ----------------------------------------
 BYTE   W96
//  #06 //039   ----------------------------------------
 BYTE   W96
//  #06 //040   ----------------------------------------
 BYTE   W96
//  #06 //041   ----------------------------------------
 BYTE   W40
 BYTE   N08  Fs4  v127
 BYTE   W08
 BYTE   N06  Fs4  v116
 BYTE   W06
 BYTE   N24  Fs4  v120
 BYTE   W24
 BYTE   W02
 BYTE   N10  En4  v116
 BYTE   W10
 BYTE   N06  En4  v092
 BYTE   W06
//  #06 //042   ----------------------------------------
 BYTE   N32  En4  v120
 BYTE   W32
 BYTE   W02
 BYTE   N08  Dn4
 BYTE   W08
 BYTE   N06  En4  v108
 BYTE   W06
 BYTE   N08  Dn4  v120
 BYTE   W08
 BYTE   N04  En4  v116
 BYTE   W04
 BYTE   N08  Dn4  v112
 BYTE   W08
 BYTE   N60  Cs4  v124
 BYTE   W28
//  #06 //043   ----------------------------------------
 BYTE   W32
 BYTE   W02
 BYTE   N12  Dn4  v108
 BYTE   W12
 BYTE   N04  Bn3  v104
 BYTE   W04
 BYTE   N56  Cs4  v124
 BYTE   W44
 BYTE   W02
//  #06 //044   ----------------------------------------
 BYTE   W12
 BYTE   N10  An3  v116
 BYTE   W10
 BYTE   N06  An3  v100
 BYTE   W06
 BYTE   N08  An3  v076
 BYTE   W08
 BYTE   An3  v084
 BYTE   W08
 BYTE   An3  v092
 BYTE   W08
 BYTE   N08
 BYTE   W08
 BYTE   N06  An3  v072
 BYTE   W06
 BYTE   TIE  Bn3  v080
 BYTE   W30
//  #06 //045   ----------------------------------------
 BYTE   W96
//  #06 //046   ----------------------------------------
 BYTE   W16
 BYTE   EOT
 BYTE   N06  Fs3  v092
 BYTE   W06
 BYTE   N04  Gs3  v088
 BYTE   W04
 BYTE   An3  v076
 BYTE   W04
 BYTE   N06  Bn3  v080
 BYTE   W06
 BYTE   N04  An3
 BYTE   W04
 BYTE   N22  Gs3  v092
 BYTE   W22
 BYTE   N04  En3  v108
 BYTE   W04
 BYTE   N92  Fs3  v068
 BYTE   W30
//  #06 //047   ----------------------------------------
 BYTE   W60
 BYTE   W02
 BYTE   N10  An3  v088
 BYTE   W10
 BYTE   N06  An3  v084
 BYTE   W06
 BYTE   N08  An3  v080
 BYTE   W08
 BYTE   An3  v084
 BYTE   W08
 BYTE   An3  v072
 BYTE   W02
//  #06 //048   ----------------------------------------
 BYTE   W06
 BYTE   N44  Bn3  v104
 BYTE   W44
 BYTE   W02
 BYTE   N02  An2  v080
 BYTE   W02
 BYTE   N42  Bn2
 BYTE   W42
//  #06 //049   ----------------------------------------
 BYTE   W96
//  #06 //050   ----------------------------------------
 BYTE   W96
//  #06 //051   ----------------------------------------
 BYTE   W96
//  #06 //052   ----------------------------------------
 BYTE   W96
//  #06 //053   ----------------------------------------
 BYTE   W96
//  #06 //054   ----------------------------------------
 BYTE   W96
//  #06 //055   ----------------------------------------
 BYTE   W96
//  #06 //056   ----------------------------------------
 BYTE   W96
//  #06 //057   ----------------------------------------
 BYTE   W96
//  #06 //058   ----------------------------------------
 BYTE   W96
//  #06 //059   ----------------------------------------
 BYTE   W96
//  #06 //060   ----------------------------------------
 BYTE   W96
//  #06 //061   ----------------------------------------
 BYTE   W96
//  #06 //062   ----------------------------------------
 BYTE   W96
//  #06 //063   ----------------------------------------
 BYTE   W96
//  #06 //064   ----------------------------------------
 BYTE   W96
//  #06 //065   ----------------------------------------
 BYTE   W96
//  #06 //066   ----------------------------------------
 BYTE   W96
//  #06 //067   ----------------------------------------
Label_0101B8E9:
 BYTE   N06  Gn3  v076
 BYTE   W06
 BYTE   N08  As3
 BYTE   W08
 BYTE   N06  Dn4  v080
 BYTE   W06
 BYTE   N04  Gn4  v056
 BYTE   W04
 BYTE   N08  As4  v076
 BYTE   W08
 BYTE   An4  v048
 BYTE   W08
 BYTE   Fn4  v052
 BYTE   W08
 BYTE   N06  Gn3  v076
 BYTE   W06
 BYTE   As3
 BYTE   W06
 BYTE   Dn4  v080
 BYTE   W06
 BYTE   Gn4  v056
 BYTE   W06
 BYTE   N08  As4  v076
 BYTE   W08
 BYTE   An4  v048
 BYTE   W08
 BYTE   Dn4  v052
 BYTE   W08
 BYTE   PEND 
//  #06 //068   ----------------------------------------
Label_0101B919:
 BYTE   N06  Fn3  v076
 BYTE   W06
 BYTE   An3
 BYTE   W06
 BYTE   Cn4  v080
 BYTE   W06
 BYTE   Gn4  v056
 BYTE   W06
 BYTE   N08  As4  v076
 BYTE   W08
 BYTE   An4  v048
 BYTE   W08
 BYTE   Cn4  v052
 BYTE   W08
 BYTE   N06  Fn3  v076
 BYTE   W06
 BYTE   An3
 BYTE   W06
 BYTE   Cn4  v080
 BYTE   W06
 BYTE   Gn4  v056
 BYTE   W06
 BYTE   N08  As4  v076
 BYTE   W08
 BYTE   An4  v048
 BYTE   W08
 BYTE   Cn4  v052
 BYTE   W08
 BYTE   PEND 
//  #06 //069   ----------------------------------------
Label_0101B946:
 BYTE   N06  Dn3  v076
 BYTE   W06
 BYTE   An3
 BYTE   W06
 BYTE   Cn4  v080
 BYTE   W06
 BYTE   Gn4  v056
 BYTE   W06
 BYTE   N08  As4  v076
 BYTE   W08
 BYTE   An4  v048
 BYTE   W08
 BYTE   Cn4  v052
 BYTE   W08
 BYTE   N06  Dn3  v076
 BYTE   W06
 BYTE   An3
 BYTE   W06
 BYTE   Cn4  v080
 BYTE   W06
 BYTE   Gn4  v056
 BYTE   W06
 BYTE   N08  As4  v076
 BYTE   W08
 BYTE   An4  v048
 BYTE   W08
 BYTE   Cn4  v052
 BYTE   W08
 BYTE   PEND 
//  #06 //070   ----------------------------------------
 BYTE   N06  Dn3  v076
 BYTE   W06
 BYTE   An3
 BYTE   W06
 BYTE   Cn4  v080
 BYTE   W06
 BYTE   Gn4  v056
 BYTE   W06
 BYTE   N08  Bn4  v076
 BYTE   W08
 BYTE   As4  v048
 BYTE   W08
 BYTE   Cn4  v052
 BYTE   W08
 BYTE   N06  Dn3  v076
 BYTE   W06
 BYTE   An3
 BYTE   W06
 BYTE   Cn4  v080
 BYTE   W06
 BYTE   Gn4  v056
 BYTE   W06
 BYTE   N08  As4  v076
 BYTE   W08
 BYTE   An4  v048
 BYTE   W08
 BYTE   Cn4  v052
 BYTE   W08
//  #06 //071   ----------------------------------------
 BYTE   N12  Dn3  v076
 BYTE   W12
 BYTE   As3
 BYTE   W12
 BYTE   N24  As4
 BYTE   W24
 BYTE   N12  Dn3
 BYTE   W12
 BYTE   As3  v080
 BYTE   W12
 BYTE   N24  As4  v076
 BYTE   W24
//  #06 //072   ----------------------------------------
 BYTE   N12  Fn3
 BYTE   W12
 BYTE   Cn4  v080
 BYTE   W12
 BYTE   N24  As4  v076
 BYTE   W24
 BYTE   N12  Fn3
 BYTE   W12
 BYTE   Cn4  v080
 BYTE   W12
 BYTE   N24  As4  v076
 BYTE   W24
//  #06 //073   ----------------------------------------
 BYTE   N12  Gn3
 BYTE   W12
 BYTE   Dn4  v080
 BYTE   W12
 BYTE   N24  As4  v076
 BYTE   W24
 BYTE   N12  Gn3
 BYTE   W12
 BYTE   Dn4  v080
 BYTE   W12
 BYTE   N24  As4  v076
 BYTE   W24
//  #06 //074   ----------------------------------------
 BYTE   N12  Fn3
 BYTE   W12
 BYTE   Cn4  v080
 BYTE   W12
 BYTE   N24  Gn4  v076
 BYTE   W24
 BYTE   N12  Fn3
 BYTE   W12
 BYTE   Cn4  v080
 BYTE   W12
 BYTE   N24  Fn4  v076
 BYTE   W24
//  #06 //075   ----------------------------------------
 BYTE   PATT
  POIN2 Label_0101B8E9
//  #06 //076   ----------------------------------------
 BYTE   PATT
  POIN2 Label_0101B919
//  #06 //077   ----------------------------------------
 BYTE   PATT
  POIN2 Label_0101B946
//  #06 //078   ----------------------------------------
 BYTE   N06  Gn3  v076
 BYTE   W06
 BYTE   As3
 BYTE   W06
 BYTE   Dn4  v080
 BYTE   W06
 BYTE   Gn4  v056
 BYTE   W06
 BYTE   N08  As4  v076
 BYTE   W08
 BYTE   An4  v048
 BYTE   W08
 BYTE   Dn4  v052
 BYTE   W08
 BYTE   N06  Gn3  v076
 BYTE   W06
 BYTE   As3
 BYTE   W06
 BYTE   Dn4  v080
 BYTE   W06
 BYTE   Gn4  v056
 BYTE   W06
 BYTE   N08  As4  v076
 BYTE   W08
 BYTE   An4  v048
 BYTE   W08
 BYTE   As3  v052
 BYTE   W08
//  #06 //079   ----------------------------------------
 BYTE   N12  Ds3  v076
 BYTE   W12
 BYTE   Ds4
 BYTE   W12
 BYTE   N24  Gn4
 BYTE   W24
 BYTE   N12  Ds3
 BYTE   W12
 BYTE   Ds4  v080
 BYTE   W12
 BYTE   N24  Gn4  v076
 BYTE   W24
//  #06 //080   ----------------------------------------
 BYTE   N12  Dn3
 BYTE   W12
 BYTE   Cn4  v080
 BYTE   W12
 BYTE   N24  Fs4  v076
 BYTE   W24
 BYTE   N12  Dn3
 BYTE   W12
 BYTE   Fs3  v080
 BYTE   W12
 BYTE   N24  An3  v076
 BYTE   W24
//  #06 //081   ----------------------------------------
 BYTE   As3
 BYTE   W96
//  #06 //082   ----------------------------------------
 BYTE   W96
//  #06 //083   ----------------------------------------
 BYTE   W96
//  #06 //084   ----------------------------------------
 BYTE   W96
//  #06 //085   ----------------------------------------
 BYTE   W96
//  #06 //086   ----------------------------------------
 BYTE   W96
//  #06 //087   ----------------------------------------
 BYTE   W96
//  #06 //088   ----------------------------------------
 BYTE   W96
//  #06 //089   ----------------------------------------
 BYTE   W96
//  #06 //090   ----------------------------------------
 BYTE   W96
//  #06 //091   ----------------------------------------
 BYTE   W96
//  #06 //092   ----------------------------------------
 BYTE   N16  Bn2  v052
 BYTE   W16
 BYTE   Dn3  v044
 BYTE   W16
 BYTE   Fs3  v024
 BYTE   W16
 BYTE   Bn2  v048
 BYTE   W16
 BYTE   Dn3
 BYTE   W16
 BYTE   Fs3  v028
 BYTE   W16
//  #06 //093   ----------------------------------------
 BYTE   Bn2  v044
 BYTE   W16
 BYTE   Fs3  v028
 BYTE   W16
 BYTE   An3  v032
 BYTE   W16
 BYTE   Bn2  v048
 BYTE   W16
 BYTE   Fs3  v024
 BYTE   W16
 BYTE   An3
 BYTE   W16
//  #06 //094   ----------------------------------------
 BYTE   Bn2  v048
 BYTE   W16
 BYTE   Dn3  v036
 BYTE   W16
 BYTE   Fs3  v052
 BYTE   W16
 BYTE   Bn2  v048
 BYTE   W16
 BYTE   Dn3
 BYTE   W16
 BYTE   Fs3  v056
 BYTE   W16
//  #06 //095   ----------------------------------------
 BYTE   Bn2  v048
 BYTE   W16
 BYTE   Fs3  v068
 BYTE   W16
 BYTE   An3  v036
 BYTE   W16
 BYTE   Bn2  v044
 BYTE   W16
 BYTE   Fs3  v036
 BYTE   W16
 BYTE   An3  v040
 BYTE   W16
//  #06 //096   ----------------------------------------
 BYTE   GoTo
  POIN2 Label_0101B7D3
 BYTE   FINE

//**************** Track 7 (Midi-Chn.6) ****************//

FE17BrightSandstormKaidras_007:
//  #07 //000   ----------------------------------------
 BYTE   KEYSH   FE17BrightSandstormKaidras_key+0
 BYTE   VOICE   61
 BYTE   MODT 0
 BYTE   LFOS 44
 BYTE   VOL   75*FE17BrightSandstormKaidras_mvl/mxv
 BYTE   PAN   c_v+4
 BYTE   W96
//  #07 //001   ----------------------------------------
 BYTE   W96
//  #07 //002   ----------------------------------------
 BYTE   W96
//  #07 //003   ----------------------------------------
 BYTE   W96
//  #07 //004   ----------------------------------------
 BYTE   W96
//  #07 //005   ----------------------------------------
Label_0101BAB9:
 BYTE   W96
//  #07 //006   ----------------------------------------
 BYTE   W96
//  #07 //007   ----------------------------------------
 BYTE   W96
//  #07 //008   ----------------------------------------
 BYTE   W96
//  #07 //009   ----------------------------------------
Label_0101BABD:
 BYTE   N24  Bn3  v100
 BYTE   W24
 BYTE   N12  Fs4  v124
 BYTE   W24
 BYTE   N12
 BYTE   W24
 BYTE   Bn3  v088
 BYTE   W12
 BYTE   An3  v084
 BYTE   W12
 BYTE   PEND 
//  #07 //010   ----------------------------------------
Label_0101BACE:
 BYTE   N48  Bn3  v100
 BYTE   W60
 BYTE   N12
 BYTE   W12
 BYTE   Cs4  v096
 BYTE   W12
 BYTE   Dn4  v068
 BYTE   W12
 BYTE   PEND 
//  #07 //011   ----------------------------------------
Label_0101BADB:
 BYTE   N12  Cs4  v116
 BYTE   W12
 BYTE   Dn4  v068
 BYTE   W12
 BYTE   N48  An4  v092
 BYTE   W48
 BYTE   N24  Bn4  v104
 BYTE   W24
 BYTE   PEND 
//  #07 //012   ----------------------------------------
 BYTE   N96  Fs4  v084
 BYTE   W96
//  #07 //013   ----------------------------------------
 BYTE   N24  Bn3  v100
 BYTE   W24
 BYTE   N12  Fs4  v127
 BYTE   W24
 BYTE   Fs4  v124
 BYTE   W24
 BYTE   Bn3  v092
 BYTE   W12
 BYTE   An3  v064
 BYTE   W12
//  #07 //014   ----------------------------------------
 BYTE   N60  Bn3  v092
 BYTE   W60
 BYTE   N12  Bn3  v096
 BYTE   W12
 BYTE   Cs4  v084
 BYTE   W12
 BYTE   Dn4  v092
 BYTE   W12
//  #07 //015   ----------------------------------------
 BYTE   Cs4  v120
 BYTE   W12
 BYTE   Dn4  v088
 BYTE   W12
 BYTE   N48  An4  v096
 BYTE   W48
 BYTE   N24  Gn4  v088
 BYTE   W24
//  #07 //016   ----------------------------------------
 BYTE   N80  Fs4  v096
 BYTE   W96
//  #07 //017   ----------------------------------------
 BYTE   PATT
  POIN2 Label_0101BABD
//  #07 //018   ----------------------------------------
 BYTE   PATT
  POIN2 Label_0101BACE
//  #07 //019   ----------------------------------------
 BYTE   PATT
  POIN2 Label_0101BADB
//  #07 //020   ----------------------------------------
 BYTE   N92  Fs4  v060
 BYTE   W96
//  #07 //021   ----------------------------------------
 BYTE   N24  En4  v088
 BYTE   W24
 BYTE   Fs4  v096
 BYTE   W24
 BYTE   Cs5  v092
 BYTE   W24
 BYTE   N12  Fs4  v080
 BYTE   W12
 BYTE   En4  v064
 BYTE   W12
//  #07 //022   ----------------------------------------
 BYTE   N60  Fs4  v108
 BYTE   W60
 BYTE   N12  Fs4  v092
 BYTE   W12
 BYTE   An4  v088
 BYTE   W12
 BYTE   Cs5  v056
 BYTE   W12
//  #07 //023   ----------------------------------------
 BYTE   TIE  Bn4  v100
 BYTE   W96
//  #07 //024   ----------------------------------------
 BYTE   W88
 BYTE   EOT
 BYTE   W08
//  #07 //025   ----------------------------------------
 BYTE   W96
//  #07 //026   ----------------------------------------
 BYTE   W96
//  #07 //027   ----------------------------------------
 BYTE   W96
//  #07 //028   ----------------------------------------
 BYTE   W96
//  #07 //029   ----------------------------------------
 BYTE   W96
//  #07 //030   ----------------------------------------
 BYTE   W96
//  #07 //031   ----------------------------------------
 BYTE   W96
//  #07 //032   ----------------------------------------
 BYTE   W96
//  #07 //033   ----------------------------------------
 BYTE   W96
//  #07 //034   ----------------------------------------
 BYTE   W96
//  #07 //035   ----------------------------------------
 BYTE   W96
//  #07 //036   ----------------------------------------
 BYTE   W96
//  #07 //037   ----------------------------------------
 BYTE   W96
//  #07 //038   ----------------------------------------
 BYTE   W96
//  #07 //039   ----------------------------------------
 BYTE   W96
//  #07 //040   ----------------------------------------
 BYTE   W96
//  #07 //041   ----------------------------------------
 BYTE   W96
//  #07 //042   ----------------------------------------
 BYTE   W96
//  #07 //043   ----------------------------------------
 BYTE   W96
//  #07 //044   ----------------------------------------
 BYTE   W96
//  #07 //045   ----------------------------------------
 BYTE   W96
//  #07 //046   ----------------------------------------
 BYTE   W96
//  #07 //047   ----------------------------------------
 BYTE   W96
//  #07 //048   ----------------------------------------
 BYTE   W96
//  #07 //049   ----------------------------------------
 BYTE   W48
 BYTE   N12  Gs3  v088
 BYTE   W12
 BYTE   Cs3  v100
 BYTE   W12
 BYTE   Cn3  v060
 BYTE   W12
 BYTE   Cs3  v068
 BYTE   W12
//  #07 //050   ----------------------------------------
 BYTE   N72  Gs3  v092
 BYTE   W84
 BYTE   N06  Gs3  v076
 BYTE   W06
 BYTE   As3  v072
 BYTE   W06
//  #07 //051   ----------------------------------------
 BYTE   N12  Gs3  v092
 BYTE   W12
 BYTE   Cs3  v084
 BYTE   W12
 BYTE   Cn3  v080
 BYTE   W12
 BYTE   Cs3  v104
 BYTE   W12
 BYTE   N30  Gs3  v080
 BYTE   W32
 BYTE   N06  Fs3  v048
 BYTE   W08
 BYTE   Fn3  v088
 BYTE   W08
//  #07 //052   ----------------------------------------
 BYTE   N12  Ds3  v064
 BYTE   W12
 BYTE   Fn3  v092
 BYTE   W12
 BYTE   Cs3  v116
 BYTE   W12
 BYTE   Cn3  v092
 BYTE   W12
 BYTE   N40  Cs3  v120
 BYTE   W48
//  #07 //053   ----------------------------------------
 BYTE   W48
 BYTE   N12  Gs3  v076
 BYTE   W12
 BYTE   Cs3  v100
 BYTE   W12
 BYTE   Cn3  v040
 BYTE   W12
 BYTE   Cs3  v076
 BYTE   W12
//  #07 //054   ----------------------------------------
 BYTE   N80  Gs3  v092
 BYTE   W80
 BYTE   N08  Fs3  v060
 BYTE   W08
 BYTE   Fn3  v080
 BYTE   W08
//  #07 //055   ----------------------------------------
 BYTE   N12  Ds3  v084
 BYTE   W12
 BYTE   Fn3  v072
 BYTE   W12
 BYTE   Cs3  v108
 BYTE   W12
 BYTE   Cn3  v072
 BYTE   W12
 BYTE   N44  Cs3  v108
 BYTE   W48
//  #07 //056   ----------------------------------------
 BYTE   N12  Gs3  v076
 BYTE   W12
 BYTE   Fs3
 BYTE   W12
 BYTE   Fn3  v060
 BYTE   W12
 BYTE   Fs3  v092
 BYTE   W12
 BYTE   N42  Gs3  v096
 BYTE   W48
//  #07 //057   ----------------------------------------
 BYTE   W96
//  #07 //058   ----------------------------------------
 BYTE   W96
//  #07 //059   ----------------------------------------
 BYTE   W96
//  #07 //060   ----------------------------------------
 BYTE   W96
//  #07 //061   ----------------------------------------
 BYTE   N24  Bn3  v104
 BYTE   W24
 BYTE   N12  Fs4  v088
 BYTE   W24
 BYTE   N24  Fs4  v076
 BYTE   W24
 BYTE   N12  Bn3  v104
 BYTE   W12
 BYTE   An3  v076
 BYTE   W12
//  #07 //062   ----------------------------------------
 BYTE   N48  Bn3  v100
 BYTE   W60
 BYTE   N12  Bn3  v108
 BYTE   W12
 BYTE   Cs4  v104
 BYTE   W12
 BYTE   Dn4  v084
 BYTE   W12
//  #07 //063   ----------------------------------------
 BYTE   Cs4  v100
 BYTE   W12
 BYTE   Dn4  v088
 BYTE   W12
 BYTE   TIE  An4  v100
 BYTE   W72
//  #07 //064   ----------------------------------------
 BYTE   W76
 BYTE   EOT
 BYTE   W20
//  #07 //065   ----------------------------------------
 BYTE   W96
//  #07 //066   ----------------------------------------
 BYTE   W48
 BYTE   N08  Cn3  v096
 BYTE   W12
 BYTE   Dn3  v108
 BYTE   W12
 BYTE   As3  v104
 BYTE   W12
 BYTE   N12  An3  v100
 BYTE   W12
//  #07 //067   ----------------------------------------
 BYTE   N44  Dn3  v124
 BYTE   W48
 BYTE   N12  Cn3  v084
 BYTE   W12
 BYTE   Dn3  v104
 BYTE   W12
 BYTE   As3  v088
 BYTE   W12
 BYTE   An3  v100
 BYTE   W12
//  #07 //068   ----------------------------------------
 BYTE   N44  Cn3  v108
 BYTE   W48
 BYTE   N14  Cn3  v112
 BYTE   W12
 BYTE   N09  Dn3  v104
 BYTE   W12
 BYTE   N13  As3  v092
 BYTE   W12
 BYTE   N12  An3  v104
 BYTE   W12
//  #07 //069   ----------------------------------------
 BYTE   N32  Fn3  v100
 BYTE   W36
 BYTE   N11  Dn3  v104
 BYTE   W12
 BYTE   N12  Fn3  v096
 BYTE   W12
 BYTE   N11  Dn3  v112
 BYTE   W12
 BYTE   N24  Cn3  v104
 BYTE   W24
//  #07 //070   ----------------------------------------
 BYTE   Cn3  v112
 BYTE   W24
 BYTE   N20  Dn3
 BYTE   W24
 BYTE   N12  Cn3  v100
 BYTE   W12
 BYTE   N13  Dn3  v088
 BYTE   W12
 BYTE   N08  As3  v084
 BYTE   W12
 BYTE   N17  An3
 BYTE   W12
//  #07 //071   ----------------------------------------
 BYTE   N30  Dn3  v112
 BYTE   W48
 BYTE   N13  Dn3  v100
 BYTE   W12
 BYTE   Gn3  v092
 BYTE   W12
 BYTE   N10  An3  v084
 BYTE   W12
 BYTE   N13  As3  v088
 BYTE   W12
//  #07 //072   ----------------------------------------
 BYTE   N24  Cn4  v100
 BYTE   W24
 BYTE   N11  As3  v092
 BYTE   W12
 BYTE   N24  An3  v088
 BYTE   W24
 BYTE   N11  Gn3  v084
 BYTE   W12
 BYTE   N09  An3  v096
 BYTE   W12
 BYTE   N08  As3  v124
 BYTE   W12
//  #07 //073   ----------------------------------------
 BYTE   N96  As3  v127
 BYTE   W96
//  #07 //074   ----------------------------------------
 BYTE   W48
 BYTE   N13  Gn3  v116
 BYTE   W12
 BYTE   N10  Fn3  v108
 BYTE   W12
 BYTE   N12  Dn3  v104
 BYTE   W12
 BYTE   Cn3  v100
 BYTE   W12
//  #07 //075   ----------------------------------------
 BYTE   N24  Dn3  v116
 BYTE   W48
 BYTE   N12  Cn3  v084
 BYTE   W12
 BYTE   N11  Dn3  v100
 BYTE   W12
 BYTE   As3  v088
 BYTE   W12
 BYTE   N13  An3  v112
 BYTE   W12
//  #07 //076   ----------------------------------------
 BYTE   N24  Cn3  v120
 BYTE   W48
 BYTE   N11  Cn3  v092
 BYTE   W12
 BYTE   N10  Dn3
 BYTE   W12
 BYTE   As3  v052
 BYTE   W12
 BYTE   N14  An3  v100
 BYTE   W12
//  #07 //077   ----------------------------------------
 BYTE   N24  Fn3  v104
 BYTE   W36
 BYTE   N11  Dn3  v120
 BYTE   W12
 BYTE   N12  Fn3  v112
 BYTE   W12
 BYTE   Cn4  v120
 BYTE   W12
 BYTE   N24  An3  v092
 BYTE   W24
//  #07 //078   ----------------------------------------
 BYTE   An3  v120
 BYTE   W24
 BYTE   N22  As3  v124
 BYTE   W24
 BYTE   N11  As3  v100
 BYTE   W12
 BYTE   N12  An3  v088
 BYTE   W12
 BYTE   N11  Gn3  v076
 BYTE   W12
 BYTE   N12  Fn3  v040
 BYTE   W12
//  #07 //079   ----------------------------------------
 BYTE   N44  Gn3  v116
 BYTE   W48
 BYTE   N12  Dn3  v088
 BYTE   W12
 BYTE   Gn3
 BYTE   W12
 BYTE   N10  An3  v056
 BYTE   W12
 BYTE   N12  As3  v116
 BYTE   W12
//  #07 //080   ----------------------------------------
 BYTE   N24  An3  v120
 BYTE   W24
 BYTE   N11  Fs3  v076
 BYTE   W12
 BYTE   N32  Cn4  v112
 BYTE   W36
 BYTE   N11  An3
 BYTE   W12
 BYTE   TIE  As3  v124
 BYTE   W12
//  #07 //081   ----------------------------------------
 BYTE   W96
//  #07 //082   ----------------------------------------
 BYTE   EOT
 BYTE   W60
 BYTE   N09  As3  v096
 BYTE   W12
 BYTE   N14  An3  v060
 BYTE   W12
 BYTE   N11  Gn3  v052
 BYTE   W12
//  #07 //083   ----------------------------------------
 BYTE   Fn3  v108
 BYTE   W12
 BYTE   N12  As2  v088
 BYTE   W12
 BYTE   N11  An2  v092
 BYTE   W12
 BYTE   N17  As2  v120
 BYTE   W12
 BYTE   N24  Fn3  v116
 BYTE   W36
 BYTE   N06  Ds3  v092
 BYTE   W06
 BYTE   Dn3
 BYTE   W06
//  #07 //084   ----------------------------------------
 BYTE   N11  Cn3  v088
 BYTE   W12
 BYTE   Dn3  v112
 BYTE   W12
 BYTE   As2  v084
 BYTE   W12
 BYTE   N12  An2
 BYTE   W12
 BYTE   N42  Gn2  v100
 BYTE   W48
//  #07 //085   ----------------------------------------
 BYTE   W96
//  #07 //086   ----------------------------------------
 BYTE   W96
//  #07 //087   ----------------------------------------
 BYTE   N17  Gn2  v104
 BYTE   W24
 BYTE   N15  Dn3  v120
 BYTE   W24
 BYTE   N20
 BYTE   W24
 BYTE   N12  Gn2  v100
 BYTE   W12
 BYTE   Fn2  v092
 BYTE   W12
//  #07 //088   ----------------------------------------
 BYTE   TIE  Gn2  v120
 BYTE   W96
//  #07 //089   ----------------------------------------
 BYTE   W96
//  #07 //090   ----------------------------------------
 BYTE   EOT
 BYTE   N54  Dn3  v084
 BYTE   W60
 BYTE   N08  An2  v056
 BYTE   W12
 BYTE   N06  Dn3  v080
 BYTE   W12
 BYTE   Dn3  v076
 BYTE   W12
//  #07 //091   ----------------------------------------
 BYTE   N24  Cs3
 BYTE   W24
 BYTE   En3
 BYTE   W24
 BYTE   N44  An3
 BYTE   W48
//  #07 //092   ----------------------------------------
 BYTE   W96
//  #07 //093   ----------------------------------------
 BYTE   W96
//  #07 //094   ----------------------------------------
 BYTE   W96
//  #07 //095   ----------------------------------------
 BYTE   W96
//  #07 //096   ----------------------------------------
 BYTE   GoTo
  POIN2 Label_0101BAB9
 BYTE   FINE

//**************** Track 8 (Midi-Chn.7) ****************//

FE17BrightSandstormKaidras_008:
//  #08 //000   ----------------------------------------
 BYTE   KEYSH   FE17BrightSandstormKaidras_key+0
 BYTE   VOICE   60
 BYTE   MODT 0
 BYTE   LFOS 44
 BYTE   VOL   75*FE17BrightSandstormKaidras_mvl/mxv
 BYTE   PAN   c_v-31
 BYTE   W96
//  #08 //001   ----------------------------------------
 BYTE   W96
//  #08 //002   ----------------------------------------
 BYTE   W96
//  #08 //003   ----------------------------------------
 BYTE   W96
//  #08 //004   ----------------------------------------
 BYTE   W96
//  #08 //005   ----------------------------------------
Label_0100B6A9:
 BYTE   W96
//  #08 //006   ----------------------------------------
 BYTE   W96
//  #08 //007   ----------------------------------------
 BYTE   W96
//  #08 //008   ----------------------------------------
 BYTE   W96
//  #08 //009   ----------------------------------------
 BYTE   W96
//  #08 //010   ----------------------------------------
 BYTE   W96
//  #08 //011   ----------------------------------------
 BYTE   W96
//  #08 //012   ----------------------------------------
 BYTE   W96
//  #08 //013   ----------------------------------------
 BYTE   W96
//  #08 //014   ----------------------------------------
 BYTE   W96
//  #08 //015   ----------------------------------------
 BYTE   W96
//  #08 //016   ----------------------------------------
 BYTE   W96
//  #08 //017   ----------------------------------------
 BYTE   W96
//  #08 //018   ----------------------------------------
 BYTE   W96
//  #08 //019   ----------------------------------------
 BYTE   W96
//  #08 //020   ----------------------------------------
 BYTE   W96
//  #08 //021   ----------------------------------------
 BYTE   W96
//  #08 //022   ----------------------------------------
 BYTE   W96
//  #08 //023   ----------------------------------------
 BYTE   W96
//  #08 //024   ----------------------------------------
 BYTE   W96
//  #08 //025   ----------------------------------------
 BYTE   W96
//  #08 //026   ----------------------------------------
 BYTE   W96
//  #08 //027   ----------------------------------------
 BYTE   W96
//  #08 //028   ----------------------------------------
 BYTE   W96
//  #08 //029   ----------------------------------------
 BYTE   W96
//  #08 //030   ----------------------------------------
 BYTE   W96
//  #08 //031   ----------------------------------------
 BYTE   W96
//  #08 //032   ----------------------------------------
 BYTE   W96
//  #08 //033   ----------------------------------------
 BYTE   W96
//  #08 //034   ----------------------------------------
 BYTE   W96
//  #08 //035   ----------------------------------------
 BYTE   W96
//  #08 //036   ----------------------------------------
 BYTE   W96
//  #08 //037   ----------------------------------------
 BYTE   W96
//  #08 //038   ----------------------------------------
 BYTE   W96
//  #08 //039   ----------------------------------------
 BYTE   W96
//  #08 //040   ----------------------------------------
 BYTE   W96
//  #08 //041   ----------------------------------------
 BYTE   N07  Bn2  v108
 BYTE   W18
 BYTE   N08  Bn2  v112
 BYTE   W18
 BYTE   N06  Bn2  v127
 BYTE   W12
 BYTE   N07  Bn2  v116
 BYTE   W18
 BYTE   N05  Bn2  v120
 BYTE   W18
 BYTE   N24  Bn2  v127
 BYTE   W12
//  #08 //042   ----------------------------------------
 BYTE   W96
//  #08 //043   ----------------------------------------
 BYTE   N08
 BYTE   W18
 BYTE   Bn2  v120
 BYTE   W18
 BYTE   N06  Bn2  v127
 BYTE   W12
 BYTE   N08
 BYTE   W18
 BYTE   N07
 BYTE   W18
 BYTE   N24
 BYTE   W12
//  #08 //044   ----------------------------------------
 BYTE   W96
//  #08 //045   ----------------------------------------
 BYTE   N08
 BYTE   W18
 BYTE   N08
 BYTE   W18
 BYTE   N08
 BYTE   W12
 BYTE   N07
 BYTE   W18
 BYTE   N08  Bn2  v124
 BYTE   W18
 BYTE   N24  Bn2  v127
 BYTE   W12
//  #08 //046   ----------------------------------------
 BYTE   W96
//  #08 //047   ----------------------------------------
 BYTE   N08  Bn3
 BYTE   W18
 BYTE   N07
 BYTE   W18
 BYTE   N06
 BYTE   W12
 BYTE   N07
 BYTE   W18
 BYTE   N07
 BYTE   W18
 BYTE   N24
 BYTE   W12
//  #08 //048   ----------------------------------------
 BYTE   W96
//  #08 //049   ----------------------------------------
 BYTE   N96  Gs2  v076
 BYTE   W96
//  #08 //050   ----------------------------------------
 BYTE   N48  Ds3  v072
 BYTE   W48
 BYTE   Fn3  v056
 BYTE   W48
//  #08 //051   ----------------------------------------
 BYTE   N96  Gs2  v060
 BYTE   W96
//  #08 //052   ----------------------------------------
 BYTE   N48  Ds3  v064
 BYTE   W48
 BYTE   Fn3  v052
 BYTE   W48
//  #08 //053   ----------------------------------------
 BYTE   N80  As2  v060
 BYTE   W96
//  #08 //054   ----------------------------------------
 BYTE   N24  Ds3  v064
 BYTE   W24
 BYTE   Fn3
 BYTE   W24
 BYTE   N36  Ds3  v052
 BYTE   W48
//  #08 //055   ----------------------------------------
 BYTE   N96  Gs2  v076
 BYTE   W96
//  #08 //056   ----------------------------------------
 BYTE   N48  Ds3  v072
 BYTE   W48
 BYTE   Fn3  v044
 BYTE   W48
//  #08 //057   ----------------------------------------
 BYTE   N96  An2  v076
 BYTE   W96
//  #08 //058   ----------------------------------------
 BYTE   N48  Fs3  v072
 BYTE   W48
 BYTE   En3  v056
 BYTE   W48
//  #08 //059   ----------------------------------------
 BYTE   Cs3  v060
 BYTE   W48
 BYTE   En3
 BYTE   W48
//  #08 //060   ----------------------------------------
 BYTE   En3  v064
 BYTE   W48
 BYTE   Dn3  v052
 BYTE   W48
//  #08 //061   ----------------------------------------
 BYTE   N24  Bn2  v072
 BYTE   W24
 BYTE   N12  Fs3  v060
 BYTE   W24
 BYTE   N24  Fs3  v048
 BYTE   W24
 BYTE   N12  Bn2  v072
 BYTE   W12
 BYTE   An2  v048
 BYTE   W12
//  #08 //062   ----------------------------------------
 BYTE   N48  Bn2  v068
 BYTE   W60
 BYTE   N12  Bn2  v076
 BYTE   W12
 BYTE   Cs3  v072
 BYTE   W12
 BYTE   Dn3  v056
 BYTE   W12
//  #08 //063   ----------------------------------------
 BYTE   Cs3  v072
 BYTE   W12
 BYTE   Dn3  v060
 BYTE   W12
 BYTE   TIE  An3  v068
 BYTE   W72
//  #08 //064   ----------------------------------------
 BYTE   W76
 BYTE   EOT
 BYTE   W20
//  #08 //065   ----------------------------------------
 BYTE   W96
//  #08 //066   ----------------------------------------
 BYTE   W96
//  #08 //067   ----------------------------------------
 BYTE   N96  Dn2  v044
 BYTE   W96
//  #08 //068   ----------------------------------------
 BYTE   Cn2  v040
 BYTE   W96
//  #08 //069   ----------------------------------------
 BYTE   Fn2  v044
 BYTE   W96
//  #08 //070   ----------------------------------------
 BYTE   N90  Cn2
 BYTE   W96
//  #08 //071   ----------------------------------------
 BYTE   N96  Dn2
 BYTE   W96
//  #08 //072   ----------------------------------------
 BYTE   An2
 BYTE   W96
//  #08 //073   ----------------------------------------
 BYTE   N48  As2  v052
 BYTE   W48
 BYTE   Gn2  v064
 BYTE   W48
//  #08 //074   ----------------------------------------
 BYTE   Fn2
 BYTE   W48
 BYTE   Gn2
 BYTE   W48
//  #08 //075   ----------------------------------------
 BYTE   N96  Dn2  v044
 BYTE   W96
//  #08 //076   ----------------------------------------
 BYTE   Cn2  v040
 BYTE   W96
//  #08 //077   ----------------------------------------
 BYTE   N90  Fn2  v044
 BYTE   W96
//  #08 //078   ----------------------------------------
 BYTE   N90
 BYTE   W96
//  #08 //079   ----------------------------------------
 BYTE   N96  Gn2
 BYTE   W96
//  #08 //080   ----------------------------------------
 BYTE   An2
 BYTE   W96
//  #08 //081   ----------------------------------------
 BYTE   N48  Gn3  v052
 BYTE   W48
 BYTE   Dn3  v064
 BYTE   W48
//  #08 //082   ----------------------------------------
 BYTE   Cn3
 BYTE   W48
 BYTE   Fn3  v040
 BYTE   W48
//  #08 //083   ----------------------------------------
 BYTE   As2  v044
 BYTE   W48
 BYTE   Fn3
 BYTE   W48
//  #08 //084   ----------------------------------------
 BYTE   Cn3
 BYTE   W48
 BYTE   N44  Bn2
 BYTE   W48
//  #08 //085   ----------------------------------------
 BYTE   W01
 BYTE   As2
 BYTE   W44
 BYTE   W03
 BYTE   N24  Fn3  v036
 BYTE   W24
 BYTE   Dn3  v020
 BYTE   W24
//  #08 //086   ----------------------------------------
 BYTE   N48  Cn3  v044
 BYTE   W48
 BYTE   N32  An2
 BYTE   W48
//  #08 //087   ----------------------------------------
 BYTE   N84  Gn2  v032
 BYTE   W96
//  #08 //088   ----------------------------------------
 BYTE   N92  Gn2  v028
 BYTE   W96
//  #08 //089   ----------------------------------------
 BYTE   N96  Bn2
 BYTE   W96
//  #08 //090   ----------------------------------------
 BYTE   N84  An1  v040
 BYTE   W96
//  #08 //091   ----------------------------------------
 BYTE   N88  An1  v044
 BYTE   W96
//  #08 //092   ----------------------------------------
 BYTE   W96
//  #08 //093   ----------------------------------------
 BYTE   W96
//  #08 //094   ----------------------------------------
 BYTE   W96
//  #08 //095   ----------------------------------------
 BYTE   W96
//  #08 //096   ----------------------------------------
 BYTE   GoTo
  POIN2 Label_0100B6A9
 BYTE   FINE

//**************** Track 9 (Midi-Chn.8) ****************//

FE17BrightSandstormKaidras_009:
//  #09 //000   ----------------------------------------
 BYTE   KEYSH   FE17BrightSandstormKaidras_key+0
 BYTE   VOICE   127
 BYTE   MODT 0
 BYTE   LFOS 44
 BYTE   VOL   75*FE17BrightSandstormKaidras_mvl/mxv
 BYTE   PAN   c_v+5
 BYTE   W72
 BYTE   N96  Fn2  v127
 BYTE   W24
//  #09 //001   ----------------------------------------
Label_0101BDB5:
 BYTE   N12  Cn1  v096
 BYTE   N30  Cs2  v080
 BYTE   W12
 BYTE   N06  Cn2  v064
 BYTE   W06
 BYTE   N12  An1  v100
 BYTE   W12
 BYTE   N06  Cn2  v072
 BYTE   W06
 BYTE   N12  An1  v112
 BYTE   W12
 BYTE   Cn1  v092
 BYTE   W12
 BYTE   N06  Cn2  v100
 BYTE   W06
 BYTE   N12  An1  v092
 BYTE   W12
 BYTE   N06  Cn2
 BYTE   W06
 BYTE   N12  An1  v100
 BYTE   W12
 BYTE   PEND 
//  #09 //002   ----------------------------------------
Label_0101BDDF:
 BYTE   N12  Cn1  v096
 BYTE   W12
 BYTE   N06  Cn2  v088
 BYTE   W06
 BYTE   N12  An1  v072
 BYTE   W12
 BYTE   N06  Cn2  v076
 BYTE   W06
 BYTE   N12  An1  v104
 BYTE   W12
 BYTE   Cn1  v092
 BYTE   W12
 BYTE   N06  Cn2  v108
 BYTE   W06
 BYTE   N12  An1
 BYTE   W12
 BYTE   N06  Cn2  v092
 BYTE   W06
 BYTE   N12  An1  v104
 BYTE   W12
 BYTE   PEND 
//  #09 //003   ----------------------------------------
Label_0101BE06:
 BYTE   N12  Cn1  v096
 BYTE   W12
 BYTE   N06  Cn2  v100
 BYTE   W06
 BYTE   N12  An1  v104
 BYTE   W12
 BYTE   N06  Cn2  v092
 BYTE   W06
 BYTE   N12  An1  v108
 BYTE   W12
 BYTE   Cn1  v092
 BYTE   W12
 BYTE   N06  Cn2  v096
 BYTE   W06
 BYTE   N12  An1  v100
 BYTE   W12
 BYTE   N06  Cn2  v084
 BYTE   W06
 BYTE   N12  An1  v100
 BYTE   W12
 BYTE   PEND 
//  #09 //004   ----------------------------------------
Label_0101BE2E:
 BYTE   N12  Cn1  v088
 BYTE   W12
 BYTE   N06  Cn2  v100
 BYTE   W06
 BYTE   N12  An1  v092
 BYTE   W12
 BYTE   N06  Cn2  v060
 BYTE   W06
 BYTE   N12  An1  v092
 BYTE   W12
 BYTE   N06  Cn2  v108
 BYTE   W06
 BYTE   Dn3  v096
 BYTE   W12
 BYTE   An1  v116
 BYTE   W06
 BYTE   An1  v108
 BYTE   W12
 BYTE   N10  Fn1
 BYTE   W12
 BYTE   PEND 
//  #09 //005   ----------------------------------------
Label_0101BE53:
 BYTE   N12  Cn1  v096
 BYTE   N96  An2  v127
 BYTE   W12
 BYTE   N06  Cn2  v064
 BYTE   W06
 BYTE   N12  An1  v100
 BYTE   W12
 BYTE   N06  Cn2  v072
 BYTE   W06
 BYTE   N12  An1  v112
 BYTE   W12
 BYTE   Cn1  v092
 BYTE   W12
 BYTE   N06  Cn2  v100
 BYTE   W06
 BYTE   N12  An1  v092
 BYTE   W12
 BYTE   N06  Cn2
 BYTE   W06
 BYTE   N12  An1  v100
 BYTE   W12
 BYTE   PEND 
//  #09 //006   ----------------------------------------
 BYTE   PATT
  POIN2 Label_0101BDDF
//  #09 //007   ----------------------------------------
 BYTE   PATT
  POIN2 Label_0101BE06
//  #09 //008   ----------------------------------------
 BYTE   PATT
  POIN2 Label_0101BE2E
//  #09 //009   ----------------------------------------
 BYTE   PATT
  POIN2 Label_0101BE53
//  #09 //010   ----------------------------------------
 BYTE   PATT
  POIN2 Label_0101BDDF
//  #09 //011   ----------------------------------------
 BYTE   PATT
  POIN2 Label_0101BE06
//  #09 //012   ----------------------------------------
 BYTE   PATT
  POIN2 Label_0101BE2E
//  #09 //013   ----------------------------------------
 BYTE   PATT
  POIN2 Label_0101BE53
//  #09 //014   ----------------------------------------
 BYTE   PATT
  POIN2 Label_0101BDDF
//  #09 //015   ----------------------------------------
 BYTE   PATT
  POIN2 Label_0101BE06
//  #09 //016   ----------------------------------------
 BYTE   N12  Cn1  v088
 BYTE   W12
 BYTE   N06  Cn2  v100
 BYTE   W06
 BYTE   N12  An1  v092
 BYTE   W12
 BYTE   N06  Cn2  v060
 BYTE   W06
 BYTE   N12  An1  v092
 BYTE   W12
 BYTE   N06  Cn2  v108
 BYTE   W06
 BYTE   Cn2  v096
 BYTE   W12
 BYTE   An1  v116
 BYTE   W06
 BYTE   An1  v108
 BYTE   W12
 BYTE   N10  Fn1
 BYTE   W12
//  #09 //017   ----------------------------------------
 BYTE   PATT
  POIN2 Label_0101BE53
//  #09 //018   ----------------------------------------
 BYTE   PATT
  POIN2 Label_0101BDDF
//  #09 //019   ----------------------------------------
 BYTE   PATT
  POIN2 Label_0101BE06
//  #09 //020   ----------------------------------------
 BYTE   PATT
  POIN2 Label_0101BE2E
//  #09 //021   ----------------------------------------
 BYTE   PATT
  POIN2 Label_0101BE53
//  #09 //022   ----------------------------------------
 BYTE   PATT
  POIN2 Label_0101BDDF
//  #09 //023   ----------------------------------------
 BYTE   PATT
  POIN2 Label_0101BE06
//  #09 //024   ----------------------------------------
 BYTE   PATT
  POIN2 Label_0101BE2E
//  #09 //025   ----------------------------------------
Label_0101BEFB:
 BYTE   N12  Cn1  v096
 BYTE   N96  An2  v127
 BYTE   W18
 BYTE   N12  Dn1  v100
 BYTE   W18
 BYTE   Dn1  v112
 BYTE   W12
 BYTE   Cn1  v092
 BYTE   W12
 BYTE   N06  Cn2  v100
 BYTE   W06
 BYTE   N12  An1  v092
 BYTE   W12
 BYTE   N06  Cn2
 BYTE   W06
 BYTE   N12  An1  v100
 BYTE   W12
 BYTE   PEND 
//  #09 //026   ----------------------------------------
Label_0101BF1C:
 BYTE   N12  Cn1  v096
 BYTE   W18
 BYTE   Dn1  v072
 BYTE   W18
 BYTE   Dn1  v104
 BYTE   W12
 BYTE   N06  Cn1  v092
 BYTE   W06
 BYTE   Cn2  v112
 BYTE   W06
 BYTE   An1  v108
 BYTE   W06
 BYTE   N12  Fn1
 BYTE   W12
 BYTE   N06  An1  v092
 BYTE   W06
 BYTE   N12  Fn1  v104
 BYTE   W12
 BYTE   PEND 
//  #09 //027   ----------------------------------------
Label_0101BF3C:
 BYTE   N12  Cn1  v096
 BYTE   W18
 BYTE   Dn1  v104
 BYTE   W18
 BYTE   Dn1  v108
 BYTE   W12
 BYTE   Cn1  v092
 BYTE   W12
 BYTE   N06  Cn2  v096
 BYTE   W06
 BYTE   N12  An1  v100
 BYTE   W12
 BYTE   N06  Cn2  v084
 BYTE   W06
 BYTE   N12  An1  v100
 BYTE   W12
 BYTE   PEND 
//  #09 //028   ----------------------------------------
Label_0101BF5A:
 BYTE   N12  Cn1  v088
 BYTE   W18
 BYTE   Dn1  v092
 BYTE   W18
 BYTE   N12
 BYTE   W12
 BYTE   N06  Cn2  v108
 BYTE   W06
 BYTE   Dn3  v096
 BYTE   W12
 BYTE   An1  v116
 BYTE   W06
 BYTE   An1  v108
 BYTE   W12
 BYTE   N10  Fn1
 BYTE   W12
 BYTE   PEND 
//  #09 //029   ----------------------------------------
Label_0101BF74:
 BYTE   N12  Cn1  v096
 BYTE   W18
 BYTE   Dn1  v100
 BYTE   W18
 BYTE   Dn1  v112
 BYTE   W12
 BYTE   Cn1  v092
 BYTE   W12
 BYTE   N06  Cn2  v100
 BYTE   W06
 BYTE   N12  An1  v092
 BYTE   W12
 BYTE   N06  Cn2
 BYTE   W06
 BYTE   N12  An1  v100
 BYTE   W12
 BYTE   PEND 
//  #09 //030   ----------------------------------------
 BYTE   PATT
  POIN2 Label_0101BF1C
//  #09 //031   ----------------------------------------
 BYTE   PATT
  POIN2 Label_0101BF3C
//  #09 //032   ----------------------------------------
 BYTE   PATT
  POIN2 Label_0101BF5A
//  #09 //033   ----------------------------------------
 BYTE   PATT
  POIN2 Label_0101BF74
//  #09 //034   ----------------------------------------
 BYTE   PATT
  POIN2 Label_0101BF1C
//  #09 //035   ----------------------------------------
 BYTE   PATT
  POIN2 Label_0101BF3C
//  #09 //036   ----------------------------------------
 BYTE   PATT
  POIN2 Label_0101BF5A
//  #09 //037   ----------------------------------------
 BYTE   PATT
  POIN2 Label_0101BF74
//  #09 //038   ----------------------------------------
 BYTE   PATT
  POIN2 Label_0101BF1C
//  #09 //039   ----------------------------------------
 BYTE   PATT
  POIN2 Label_0101BF3C
//  #09 //040   ----------------------------------------
 BYTE   PATT
  POIN2 Label_0101BF5A
//  #09 //041   ----------------------------------------
 BYTE   PATT
  POIN2 Label_0101BEFB
//  #09 //042   ----------------------------------------
 BYTE   PATT
  POIN2 Label_0101BF1C
//  #09 //043   ----------------------------------------
 BYTE   PATT
  POIN2 Label_0101BF3C
//  #09 //044   ----------------------------------------
 BYTE   PATT
  POIN2 Label_0101BF5A
//  #09 //045   ----------------------------------------
 BYTE   PATT
  POIN2 Label_0101BEFB
//  #09 //046   ----------------------------------------
 BYTE   PATT
  POIN2 Label_0101BF1C
//  #09 //047   ----------------------------------------
 BYTE   PATT
  POIN2 Label_0101BF3C
//  #09 //048   ----------------------------------------
 BYTE   N12  Cn1  v088
 BYTE   W18
 BYTE   Ds1  v092
 BYTE   W18
 BYTE   Dn1
 BYTE   W12
 BYTE   N06  Cn2  v108
 BYTE   W06
 BYTE   Dn3  v096
 BYTE   W12
 BYTE   An1  v116
 BYTE   W06
 BYTE   An1  v108
 BYTE   W12
 BYTE   N10  Fn1
 BYTE   W12
//  #09 //049   ----------------------------------------
Label_0101C004:
 BYTE   N12  Cn1  v096
 BYTE   N96  An2  v127
 BYTE   W12
 BYTE   N12  Fs2  v080
 BYTE   W12
 BYTE   Fs1
 BYTE   W12
 BYTE   Fs2
 BYTE   W12
 BYTE   Cn1  v092
 BYTE   W12
 BYTE   Fs2  v080
 BYTE   W12
 BYTE   Fs1
 BYTE   W12
 BYTE   Fs2
 BYTE   W12
 BYTE   PEND 
//  #09 //050   ----------------------------------------
Label_0101C01E:
 BYTE   N12  Cn1  v096
 BYTE   W12
 BYTE   Fs2  v080
 BYTE   W12
 BYTE   Fs1
 BYTE   W12
 BYTE   Fs2
 BYTE   W12
 BYTE   N06  Cn1  v092
 BYTE   W12
 BYTE   N12  Fs2  v080
 BYTE   W12
 BYTE   Fs1
 BYTE   W12
 BYTE   Fs2
 BYTE   W12
 BYTE   PEND 
//  #09 //051   ----------------------------------------
Label_0101C036:
 BYTE   N12  Cn1  v096
 BYTE   W12
 BYTE   Fs2  v080
 BYTE   W12
 BYTE   Fs1
 BYTE   W12
 BYTE   Fs2
 BYTE   W12
 BYTE   Cn1  v092
 BYTE   W12
 BYTE   Fs2  v080
 BYTE   W12
 BYTE   Fs1
 BYTE   W12
 BYTE   Fs2
 BYTE   W12
 BYTE   PEND 
//  #09 //052   ----------------------------------------
Label_0101C04C:
 BYTE   N12  Cn1  v088
 BYTE   W12
 BYTE   Fs2  v080
 BYTE   W12
 BYTE   Fs1
 BYTE   W12
 BYTE   Fs2
 BYTE   W12
 BYTE   Cn1
 BYTE   W12
 BYTE   Fs2
 BYTE   W12
 BYTE   Fs1
 BYTE   W12
 BYTE   Fs2
 BYTE   W12
 BYTE   PEND 
//  #09 //053   ----------------------------------------
 BYTE   PATT
  POIN2 Label_0101C004
//  #09 //054   ----------------------------------------
 BYTE   PATT
  POIN2 Label_0101C01E
//  #09 //055   ----------------------------------------
 BYTE   PATT
  POIN2 Label_0101C036
//  #09 //056   ----------------------------------------
 BYTE   PATT
  POIN2 Label_0101C04C
//  #09 //057   ----------------------------------------
 BYTE   PATT
  POIN2 Label_0101BEFB
//  #09 //058   ----------------------------------------
 BYTE   PATT
  POIN2 Label_0101BF1C
//  #09 //059   ----------------------------------------
 BYTE   PATT
  POIN2 Label_0101BF3C
//  #09 //060   ----------------------------------------
 BYTE   PATT
  POIN2 Label_0101BF5A
//  #09 //061   ----------------------------------------
 BYTE   PATT
  POIN2 Label_0101BF74
//  #09 //062   ----------------------------------------
 BYTE   PATT
  POIN2 Label_0101BF1C
//  #09 //063   ----------------------------------------
 BYTE   PATT
  POIN2 Label_0101BF3C
//  #09 //064   ----------------------------------------
 BYTE   PATT
  POIN2 Label_0101BF5A
//  #09 //065   ----------------------------------------
 BYTE   N96  An2  v127
 BYTE   N06  Dn3  v096
 BYTE   W08
 BYTE   N08  Cn2  v108
 BYTE   W08
 BYTE   N08
 BYTE   W08
 BYTE   An1
 BYTE   W08
 BYTE   N08
 BYTE   W08
 BYTE   Fn1
 BYTE   W08
 BYTE   N06  An1
 BYTE   W16
 BYTE   N12
 BYTE   W16
 BYTE   N08
 BYTE   W16
//  #09 //066   ----------------------------------------
 BYTE   Dn1
 BYTE   N48  An2
 BYTE   W96
//  #09 //067   ----------------------------------------
 BYTE   N06  Fs1  v127
 BYTE   N96  An2
 BYTE   N14  Cn5  v120
 BYTE   W12
 BYTE   N12  Fs2  v127
 BYTE   W06
 BYTE   N05  Dn5  v120
 BYTE   W06
 BYTE   N12  Fs1  v127
 BYTE   W12
 BYTE   Fs2
 BYTE   N05  Dn5  v120
 BYTE   W12
 BYTE   N12  Fs1  v127
 BYTE   N08  Dn5  v124
 BYTE   W12
 BYTE   N12  Fs2  v127
 BYTE   W06
 BYTE   N06  Dn5  v120
 BYTE   W06
 BYTE   N12  Fs1  v127
 BYTE   W12
 BYTE   Fs2
 BYTE   N07  Dn5  v120
 BYTE   W12
//  #09 //068   ----------------------------------------
 BYTE   N06  Fs1  v127
 BYTE   N11  Cn5  v116
 BYTE   N18  Dn6  v120
 BYTE   W12
 BYTE   N12  Fs2  v127
 BYTE   W06
 BYTE   N04  Dn5  v120
 BYTE   W06
 BYTE   N12  Fs1  v127
 BYTE   W12
 BYTE   Fs2
 BYTE   N04  Dn5  v116
 BYTE   W12
 BYTE   N12  Fs1  v127
 BYTE   N07  Dn5  v124
 BYTE   W12
 BYTE   N12  Fs2  v127
 BYTE   W06
 BYTE   N05  Dn5  v120
 BYTE   W06
 BYTE   N12  Fn1  v127
 BYTE   N12  Fs1
 BYTE   W12
 BYTE   Fn1
 BYTE   N12  Fs2
 BYTE   N06  Dn5  v120
 BYTE   W12
//  #09 //069   ----------------------------------------
 BYTE   N12  Fn1  v127
 BYTE   N06  Fs1
 BYTE   N08  Cn5  v120
 BYTE   N18  Dn6
 BYTE   W12
 BYTE   N12  Fs2  v127
 BYTE   W06
 BYTE   N04  Dn5  v124
 BYTE   W06
 BYTE   N12  Fs1  v127
 BYTE   W12
 BYTE   Fs2
 BYTE   N05  Dn5  v120
 BYTE   W12
 BYTE   N12  Fs1  v127
 BYTE   N08  Dn5  v124
 BYTE   W12
 BYTE   N12  Fs2  v127
 BYTE   W06
 BYTE   N05  Dn5  v120
 BYTE   W06
 BYTE   N12  Fn1  v127
 BYTE   N12  Fs1
 BYTE   W12
 BYTE   Fn1
 BYTE   N12  Fs2
 BYTE   N06  Dn5  v120
 BYTE   W12
//  #09 //070   ----------------------------------------
 BYTE   N12  Fn1  v127
 BYTE   N06  Fs1
 BYTE   N08  Cn5  v124
 BYTE   N18  Dn6  v120
 BYTE   W12
 BYTE   N12  Fs2  v127
 BYTE   W06
 BYTE   N05  Dn5  v120
 BYTE   W06
 BYTE   N12  Fs1  v127
 BYTE   W12
 BYTE   Fs2
 BYTE   N05  Dn5  v124
 BYTE   W12
 BYTE   N12  Fs1  v127
 BYTE   N07  Dn5  v124
 BYTE   W12
 BYTE   N12  Fs2  v127
 BYTE   W06
 BYTE   N06  Dn5  v120
 BYTE   W06
 BYTE   N12  Fs1  v127
 BYTE   W12
 BYTE   N06  Fn1
 BYTE   N12  Fs2
 BYTE   N04  Dn5  v124
 BYTE   W12
//  #09 //071   ----------------------------------------
 BYTE   N06  Fs1  v127
 BYTE   N96  An2
 BYTE   N11  Cn5
 BYTE   W12
 BYTE   N12  Fs2
 BYTE   W06
 BYTE   N05  Dn5  v124
 BYTE   W06
 BYTE   N12  Fs1  v127
 BYTE   W12
 BYTE   Fs2
 BYTE   N04  Dn5  v120
 BYTE   W12
 BYTE   N12  Fs1  v127
 BYTE   N07  Dn5  v124
 BYTE   W12
 BYTE   N12  Fs2  v127
 BYTE   W06
 BYTE   N05  Dn5  v120
 BYTE   W06
 BYTE   N12  Fs1  v127
 BYTE   W12
 BYTE   Fs2
 BYTE   N05  Dn5  v124
 BYTE   W12
//  #09 //072   ----------------------------------------
 BYTE   N06  Fs1  v127
 BYTE   N08  Cn5  v120
 BYTE   N18  Dn6
 BYTE   W12
 BYTE   N12  Fs2  v127
 BYTE   W06
 BYTE   N05  Dn5  v120
 BYTE   W06
 BYTE   N12  Fs1  v127
 BYTE   W12
 BYTE   Fs2
 BYTE   N04  Dn5  v120
 BYTE   W12
 BYTE   N12  Fs1  v127
 BYTE   N07  Dn5
 BYTE   W12
 BYTE   N12  Fs2
 BYTE   W06
 BYTE   N04  Dn5  v120
 BYTE   W06
 BYTE   N12  Fn1  v127
 BYTE   N12  Fs1
 BYTE   W06
 BYTE   N06  Dn5  v120
 BYTE   W06
 BYTE   N12  Fn1  v127
 BYTE   N12  Fs2
 BYTE   W12
//  #09 //073   ----------------------------------------
 BYTE   Fn1
 BYTE   N06  Fs1
 BYTE   N08  Cn5  v124
 BYTE   N18  Dn6  v120
 BYTE   W12
 BYTE   N12  Fs2  v127
 BYTE   W06
 BYTE   N04  Dn5  v124
 BYTE   W06
 BYTE   N12  Fs1  v127
 BYTE   W12
 BYTE   Fs2
 BYTE   N04  Dn5  v120
 BYTE   W12
 BYTE   N12  Fs1  v127
 BYTE   N08  Dn5  v124
 BYTE   W12
 BYTE   N12  Fs2  v127
 BYTE   W06
 BYTE   N05  Dn5  v120
 BYTE   W06
 BYTE   N12  Fn1  v127
 BYTE   N12  Fs1
 BYTE   W12
 BYTE   Fn1
 BYTE   N12  Fs2
 BYTE   N07  Dn5  v124
 BYTE   W12
//  #09 //074   ----------------------------------------
 BYTE   N12  Fn1  v127
 BYTE   N06  Fs1
 BYTE   N09  Cn5  v120
 BYTE   N18  Dn6
 BYTE   W12
 BYTE   N12  Fs2  v127
 BYTE   W06
 BYTE   N04  Dn5  v120
 BYTE   W06
 BYTE   N12  Fs1  v127
 BYTE   W12
 BYTE   Fs2
 BYTE   N04  Dn5  v120
 BYTE   W12
 BYTE   N12  Fs1  v127
 BYTE   N07  Dn5  v124
 BYTE   W12
 BYTE   N12  Fs2  v127
 BYTE   W06
 BYTE   N05  Dn5  v120
 BYTE   W06
 BYTE   N12  Fs1  v127
 BYTE   W12
 BYTE   N06  Fn1
 BYTE   N12  Fs2
 BYTE   N06  Dn5  v120
 BYTE   W12
//  #09 //075   ----------------------------------------
 BYTE   Fs1  v127
 BYTE   N60  An2
 BYTE   N10  Cn5  v124
 BYTE   W12
 BYTE   N12  Fs2  v127
 BYTE   W06
 BYTE   N04  Dn5  v120
 BYTE   W06
 BYTE   N12  Fs1  v127
 BYTE   W12
 BYTE   Fs2
 BYTE   N05  Dn5  v120
 BYTE   W12
 BYTE   N12  Fs1  v127
 BYTE   N08  Dn5  v124
 BYTE   W12
 BYTE   N12  Fs2  v127
 BYTE   W06
 BYTE   N05  Dn5  v120
 BYTE   W06
 BYTE   N12  Fs1  v127
 BYTE   W12
 BYTE   Fs2
 BYTE   N06  Dn5  v120
 BYTE   W12
//  #09 //076   ----------------------------------------
 BYTE   Fs1  v127
 BYTE   N08  Cn5  v124
 BYTE   W12
 BYTE   N12  Fs2  v127
 BYTE   W06
 BYTE   N05  Dn5  v120
 BYTE   W06
 BYTE   N12  Fs1  v127
 BYTE   W12
 BYTE   Fs2
 BYTE   N05  Dn5  v120
 BYTE   W12
 BYTE   N12  Fs1  v127
 BYTE   N07  Dn5  v120
 BYTE   W12
 BYTE   N12  Fs2  v127
 BYTE   W06
 BYTE   N05  Dn5  v120
 BYTE   W06
 BYTE   N12  Fn1  v127
 BYTE   N12  Fs1
 BYTE   W12
 BYTE   Fn1
 BYTE   N12  Fs2
 BYTE   N05  Dn5  v120
 BYTE   W12
//  #09 //077   ----------------------------------------
 BYTE   N12  Fn1  v127
 BYTE   N06  Fs1
 BYTE   N08  Cn5  v124
 BYTE   W12
 BYTE   N12  Fs2  v127
 BYTE   W06
 BYTE   N05  Dn5  v120
 BYTE   W06
 BYTE   N12  Fs1  v127
 BYTE   W12
 BYTE   Fs2
 BYTE   N04  Dn5  v116
 BYTE   W12
 BYTE   N12  Fs1  v127
 BYTE   N08  Dn5  v124
 BYTE   W12
 BYTE   N12  Fs2  v127
 BYTE   W06
 BYTE   N05  Dn5  v120
 BYTE   W06
 BYTE   N12  Fn1  v127
 BYTE   N12  Fs1
 BYTE   W12
 BYTE   Fn1
 BYTE   N12  Fs2
 BYTE   N05  Dn5  v124
 BYTE   W12
//  #09 //078   ----------------------------------------
 BYTE   N12  Fn1  v127
 BYTE   N06  Fs1
 BYTE   N09  Cn5  v120
 BYTE   W12
 BYTE   N12  Fs2  v127
 BYTE   W06
 BYTE   N06  Dn5  v116
 BYTE   W06
 BYTE   N12  Fs1  v127
 BYTE   W12
 BYTE   Fs2
 BYTE   N05  Dn5  v120
 BYTE   W12
 BYTE   N12  Fs1  v127
 BYTE   N09  Dn5  v124
 BYTE   W12
 BYTE   N12  Fs2  v127
 BYTE   W06
 BYTE   N05  Dn5  v120
 BYTE   W06
 BYTE   N12  Fs1  v127
 BYTE   W12
 BYTE   Fs2
 BYTE   N06  Dn5  v120
 BYTE   W12
//  #09 //079   ----------------------------------------
 BYTE   Fs1  v127
 BYTE   N08  Cn5  v124
 BYTE   W12
 BYTE   N12  Fs2  v127
 BYTE   W06
 BYTE   N05  Dn5  v116
 BYTE   W06
 BYTE   N12  Fs1  v127
 BYTE   W12
 BYTE   Fs2
 BYTE   N05  Dn5  v124
 BYTE   W12
 BYTE   N12  Fs1  v127
 BYTE   N08  Dn5  v124
 BYTE   W12
 BYTE   N12  Fs2  v127
 BYTE   W06
 BYTE   N05  Dn5  v120
 BYTE   W06
 BYTE   N12  Fs1  v127
 BYTE   W12
 BYTE   Fs2
 BYTE   N05  Dn5  v120
 BYTE   W12
//  #09 //080   ----------------------------------------
 BYTE   N06  Fs1  v127
 BYTE   N07  Cn5  v124
 BYTE   W12
 BYTE   N12  Fs2  v127
 BYTE   W06
 BYTE   N04  Cn5  v120
 BYTE   W06
 BYTE   N12  Fs1  v127
 BYTE   W12
 BYTE   Fs2
 BYTE   N04  Cn5  v120
 BYTE   W12
 BYTE   N12  Fs1  v127
 BYTE   N07  Dn5  v124
 BYTE   W12
 BYTE   N12  Fs2  v127
 BYTE   W06
 BYTE   N05  Dn5  v120
 BYTE   W06
 BYTE   N12  Fs1  v127
 BYTE   W12
 BYTE   Fs2
 BYTE   N05  Dn5  v120
 BYTE   W12
//  #09 //081   ----------------------------------------
Label_0101C393:
 BYTE   N12  Cn5  v120
 BYTE   W12
 BYTE   Fs1
 BYTE   W12
 BYTE   N12
 BYTE   W12
 BYTE   Cn5
 BYTE   W12
 BYTE   Fs1
 BYTE   W12
 BYTE   N12
 BYTE   W12
 BYTE   Cn5
 BYTE   W12
 BYTE   Fs2
 BYTE   W12
 BYTE   PEND 
//  #09 //082   ----------------------------------------
 BYTE   N06  Dn5
 BYTE   N36  Cs6
 BYTE   W48
 BYTE   N12  Ds1
 BYTE   W12
 BYTE   Dn5
 BYTE   W12
 BYTE   Ds1
 BYTE   W12
 BYTE   Dn5
 BYTE   W12
//  #09 //083   ----------------------------------------
 BYTE   PATT
  POIN2 Label_0101C393
//  #09 //084   ----------------------------------------
 BYTE   N06  Dn5  v120
 BYTE   N36  Cs6
 BYTE   W24
 BYTE   N12  Fs2
 BYTE   W24
 BYTE   N06  Cn2
 BYTE   W06
 BYTE   N06
 BYTE   W06
 BYTE   An1
 BYTE   W06
 BYTE   N06
 BYTE   W06
 BYTE   Fn1
 BYTE   W06
 BYTE   N06
 BYTE   W06
 BYTE   N12  Ds1
 BYTE   W12
//  #09 //085   ----------------------------------------
 BYTE   N42  An2
 BYTE   N12  Cn5
 BYTE   W12
 BYTE   Fs1
 BYTE   W12
 BYTE   N12
 BYTE   W12
 BYTE   Cn5
 BYTE   W12
 BYTE   Fs1
 BYTE   W12
 BYTE   N12
 BYTE   W12
 BYTE   Cn5
 BYTE   W12
 BYTE   Fs2
 BYTE   W12
//  #09 //086   ----------------------------------------
 BYTE   N24  Dn5
 BYTE   N24  Gn6
 BYTE   W24
 BYTE   N12  Fs2
 BYTE   W24
 BYTE   N12
 BYTE   W24
 BYTE   An1
 BYTE   N12  Fs2
 BYTE   W12
 BYTE   Ds1
 BYTE   W12
//  #09 //087   ----------------------------------------
 BYTE   N24  An2
 BYTE   N12  Cn5
 BYTE   W36
 BYTE   N12
 BYTE   W12
 BYTE   Dn5
 BYTE   W24
 BYTE   Cn5
 BYTE   W24
//  #09 //088   ----------------------------------------
 BYTE   N12
 BYTE   N24  Cs6
 BYTE   W84
 BYTE   N12  Ds1
 BYTE   W12
//  #09 //089   ----------------------------------------
 BYTE   N24  Gn2
 BYTE   W24
 BYTE   N18  Dn5
 BYTE   W24
 BYTE   N24
 BYTE   W24
 BYTE   Ds1
 BYTE   W24
//  #09 //090   ----------------------------------------
 BYTE   Cn5
 BYTE   N24  Cs6
 BYTE   W24
 BYTE   N18  Fs2
 BYTE   W24
 BYTE   N18
 BYTE   W24
 BYTE   N12  Cn5
 BYTE   W12
 BYTE   N12
 BYTE   W12
//  #09 //091   ----------------------------------------
 BYTE   N30  An2
 BYTE   N12  Cn5
 BYTE   W48
 BYTE   Ds1
 BYTE   W12
 BYTE   An5
 BYTE   W12
 BYTE   N96  Fn2  v127
 BYTE   N12  Fn5  v120
 BYTE   W12
 BYTE   Cn5
 BYTE   W12
//  #09 //092   ----------------------------------------
 BYTE   PATT
  POIN2 Label_0101BDB5
//  #09 //093   ----------------------------------------
 BYTE   PATT
  POIN2 Label_0101BDDF
//  #09 //094   ----------------------------------------
 BYTE   PATT
  POIN2 Label_0101BE06
//  #09 //095   ----------------------------------------
 BYTE   PATT
  POIN2 Label_0101BE2E
//  #09 //096   ----------------------------------------
 BYTE   GoTo
  POIN2 Label_0101BE53
 BYTE   FINE

//******************************************************//
	ALIGN 4

FE17BrightSandstormKaidras:
	BYTE	9	// NumTrks
	BYTE	0	// NumBlks
	BYTE	FE17BrightSandstormKaidras_pri	// Priority
	BYTE	FE17BrightSandstormKaidras_rev	// Reverb.
    
	POIN2	FE17BrightSandstormKaidras_grp
    
	POIN2	FE17BrightSandstormKaidras_001
	POIN2	FE17BrightSandstormKaidras_002
	POIN2	FE17BrightSandstormKaidras_003
	POIN2	FE17BrightSandstormKaidras_004
	POIN2	FE17BrightSandstormKaidras_005
	POIN2	FE17BrightSandstormKaidras_006
	POIN2	FE17BrightSandstormKaidras_007
	POIN2	FE17BrightSandstormKaidras_008
	POIN2	FE17BrightSandstormKaidras_009

	
