//Event file generated from Sappy .s format.
	#include "MPlayDef.event"

	#define	FireEmblemEngageEnjoytheEveningDivineOneSurfingKyogre1_grp  voicegroup000
	#define	FireEmblemEngageEnjoytheEveningDivineOneSurfingKyogre1_pri  0
	#define	FireEmblemEngageEnjoytheEveningDivineOneSurfingKyogre1_rev  0
	#define	FireEmblemEngageEnjoytheEveningDivineOneSurfingKyogre1_mvl  127
	#define	FireEmblemEngageEnjoytheEveningDivineOneSurfingKyogre1_key  0
	#define	FireEmblemEngageEnjoytheEveningDivineOneSurfingKyogre1_tbs  1
	#define	FireEmblemEngageEnjoytheEveningDivineOneSurfingKyogre1_exg  0
	#define	FireEmblemEngageEnjoytheEveningDivineOneSurfingKyogre1_cmp  1

	// .rodata
	//	FireEmblemEngageEnjoytheEveningDivineOneSurfingKyogre1
	ALIGN 4


//**************** Track 1 (Midi-Chn.0) ****************//

FireEmblemEngageEnjoytheEveningDivineOneSurfingKyogre1_001:
//  #01 //000   ----------------------------------------
 BYTE   KEYSH   FireEmblemEngageEnjoytheEveningDivineOneSurfingKyogre1_key+0
 BYTE   TEMPO   84*FireEmblemEngageEnjoytheEveningDivineOneSurfingKyogre1_tbs/2
 BYTE   VOICE   71
 BYTE   PAN   c_v-2
 BYTE   VOL   62*FireEmblemEngageEnjoytheEveningDivineOneSurfingKyogre1_mvl/mxv
 BYTE   VOL   62*FireEmblemEngageEnjoytheEveningDivineOneSurfingKyogre1_mvl/mxv
 BYTE   W72
 BYTE   N68  Fs1  v064
 BYTE   W04
 BYTE   W05
 BYTE   W04
 BYTE   W05
 BYTE   W04
 BYTE   W02
//  #01 //001   ----------------------------------------
 BYTE   W03
 BYTE   W04
 BYTE   W05
 BYTE   W04
 BYTE   W05
 BYTE   W04
 BYTE   W05
 BYTE   W04
 BYTE   W05
 BYTE   W04
 BYTE   W05
 BYTE   TIE  Fn1  v080
 BYTE   W48
//  #01 //002   ----------------------------------------
 BYTE   W24
 BYTE   W68
 BYTE   W03
 BYTE   EOT
 BYTE   W01
//  #01 //003   ----------------------------------------
 BYTE   N68  Ds1
 BYTE   W18
 BYTE   W18
 BYTE   W18
 BYTE   W18
 BYTE   Fn1  v084
 BYTE   W18
 BYTE   W06
//  #01 //004   ----------------------------------------
 BYTE   W12
 BYTE   W18
 BYTE   W18
 BYTE   Fs1  v088
 BYTE   W18
 BYTE   W18
 BYTE   W12
//  #01 //005   ----------------------------------------
 BYTE   W06
 BYTE   W18
 BYTE   Gs1  v092
 BYTE   W18
 BYTE   W18
 BYTE   W18
 BYTE   W06
 BYTE   N11  Gs3  v112
 BYTE   W12
//  #01 //006   ----------------------------------------
 BYTE   N32  Ds1  v096
 BYTE   N17  Cs4  v112
 BYTE   W18
 BYTE   N05  Cn4
 BYTE   W06
 BYTE   N11  As3
 BYTE   W12
 BYTE   TIE  Fn1  v096
 BYTE   N52  Gs3  v112
 BYTE   W36
 BYTE   W18
 BYTE   N05  Fn3
 BYTE   W06
//  #01 //007   ----------------------------------------
 BYTE   N11  Fs3
 BYTE   W12
 BYTE   N23  Gs3
 BYTE   W24
 BYTE   N11  As3
 BYTE   W11
 BYTE   EOT
 BYTE   Fn1
 BYTE   W01
 BYTE   N68  Gs1  v096
 BYTE   N52  Ds3  v112
 BYTE   W36
 BYTE   W12
//  #01 //008   ----------------------------------------
 BYTE   W06
 BYTE   N05  Bn2
 BYTE   W06
 BYTE   N11  Cs3
 BYTE   W12
 BYTE   N68  Cs1  v096
 BYTE   N17  Ds3  v112
 BYTE   W18
 BYTE   N05  Cs3
 BYTE   W06
 BYTE   N11  Ds3
 BYTE   W12
 BYTE   N17  Bn2
 BYTE   W18
 BYTE   N05  As2
 BYTE   W06
 BYTE   N11  Gs2
 BYTE   W12
//  #01 //009   ----------------------------------------
 BYTE   N68  Fs1  v096
 BYTE   N32  As2  v112
 BYTE   W36
 BYTE   N44  Fn3
 BYTE   W36
 BYTE   N68  Bn0  v096
 BYTE   W18
 BYTE   N05  Ds3  v112
 BYTE   W06
//  #01 //010   ----------------------------------------
 BYTE   N11  Fn3
 BYTE   W12
 BYTE   N17  Gs3
 BYTE   W18
 BYTE   N05  Fs3
 BYTE   W06
 BYTE   N11  Fn3
 BYTE   W12
 BYTE   N32  Cn1  v096
 BYTE   N17  Ds3  v112
 BYTE   W18
 BYTE   N05  Cs3
 BYTE   W06
 BYTE   N11  Ds3
 BYTE   W12
 BYTE   N32  Fn1  v096
 BYTE   N23  Cn3  v112
 BYTE   W12
//  #01 //011   ----------------------------------------
 BYTE   W12
 BYTE   N11  Gs2
 BYTE   W12
 BYTE   TIE  As0  v096
 BYTE   N68  As2  v112
 BYTE   W72
//  #01 //012   ----------------------------------------
Label_01160F46:
 BYTE   W32
 BYTE   W03
 BYTE   PEND 
 BYTE   EOT
 BYTE   As0
 BYTE   W13
Label_01160F4C:
 BYTE   W24
 BYTE   N68  Fs1  v112
 BYTE   W24
//  #01 //013   ----------------------------------------
Label_01160F51:
 BYTE   W48
 BYTE   N68  Fn1  v112
 BYTE   W48
 BYTE   PEND 
//  #01 //014   ----------------------------------------
 BYTE   W24
 BYTE   N32  Ds1
 BYTE   W36
 BYTE   Gs1
 BYTE   W36
//  #01 //015   ----------------------------------------
 BYTE   N68  Cs1
 BYTE   W72
 BYTE   Fn1
 BYTE   W24
//  #01 //016   ----------------------------------------
 BYTE   W48
 BYTE   As0
 BYTE   W48
//  #01 //017   ----------------------------------------
 BYTE   W24
 BYTE   Cn1
 BYTE   W72
//  #01 //018   ----------------------------------------
 BYTE   Fn1
 BYTE   W72
 BYTE   Fs1
 BYTE   W24
//  #01 //019   ----------------------------------------
 BYTE   PATT
  POIN2 Label_01160F51
//  #01 //020   ----------------------------------------
 BYTE   W24
 BYTE   N32  Ds1  v112
 BYTE   W36
 BYTE   Gs0
 BYTE   W36
//  #01 //021   ----------------------------------------
Label_01160F78:
 BYTE   N32  Cs1  v112
 BYTE   W48
 BYTE   N11  As2
 BYTE   W12
 BYTE   Cn3
 BYTE   W12
 BYTE   PEND 
Label_01160F82:
 BYTE   TIE  Fs1  v096
 BYTE   N11  Ds3  v112
 BYTE   W18
 BYTE   N05  Cs3
 BYTE   W06
//  #01 //022   ----------------------------------------
 BYTE   Ds3
 BYTE   W12
 BYTE   N52  Gs2
 BYTE   W36
 BYTE   W18
 BYTE   N05  As2
 BYTE   W06
 BYTE   N08  Bn2
 BYTE   W11
 BYTE   PEND 
 BYTE   EOT
 BYTE   Fs1
 BYTE   W01
Label_01160F9C:
 BYTE   N80  Fs1  v096
 BYTE   N80  Cs3  v112
 BYTE   W72
//  #01 //023   ----------------------------------------
 BYTE   W36
 BYTE   PEND 
 BYTE   W72
//  #01 //024   ----------------------------------------
Label_01160FA6:
 BYTE   N68  As0  v096
 BYTE   W72
 BYTE   PEND 
Label_01160FAB:
 BYTE   N68  Cn1  v096
 BYTE   W72
 BYTE   PEND 
//  #01 //025   ----------------------------------------
Label_01160FB0:
 BYTE   W36
 BYTE   N32  As0  v096
 BYTE   W06
 BYTE   W07
 BYTE   W07
 BYTE   W07
 BYTE   W06
 BYTE   W03
 BYTE   PEND 
Label_01160FBB:
 BYTE   N32  Cn1  v104
 BYTE   W04
 BYTE   W07
 BYTE   W07
 BYTE   W06
//  #01 //026   ----------------------------------------
 BYTE   W07
 BYTE   W05
 BYTE   Fn1  v108
 BYTE   W02
 BYTE   W07
 BYTE   W06
 BYTE   W07
 BYTE   W07
 BYTE   W07
 BYTE   PEND 
Label_01160FCD:
 BYTE   N68  Ds1  v112
 BYTE   W72
 BYTE   PEND 
//  #01 //027   ----------------------------------------
Label_01160FD2:
 BYTE   TIE  Cs1  v112
 BYTE   W36
 BYTE   N32  Fn3
 BYTE   W36
 BYTE   PEND 
Label_01160FDA:
 BYTE   N32  Ds3  v112
 BYTE   W32
//  #01 //028   ----------------------------------------
 BYTE   W03
 BYTE   PEND 
 BYTE   EOT
 BYTE   Cs1
 BYTE   W01
 BYTE   N32  Gs2
 BYTE   W36
 BYTE   W72
//  #01 //029   ----------------------------------------
Label_01160FE7:
 BYTE   N23  Fn1  v096
 BYTE   W72
 BYTE   PEND 
Label_01160FEC:
 BYTE   N23  Fs1  v096
 BYTE   W72
 BYTE   PEND 
//  #01 //030   ----------------------------------------
Label_01160FF1:
 BYTE   N23  Gs1  v096
 BYTE   W72
 BYTE   PEND 
Label_01160FF6:
 BYTE   N23  As1  v096
 BYTE   W72
 BYTE   PEND 
//  #01 //031   ----------------------------------------
Label_01160FFB:
 BYTE   N23  Fn1  v080
 BYTE   N23  Ds3  v112
 BYTE   W24
 BYTE   N11  Cs3
 BYTE   W12
 BYTE   N23  Fn1  v080
 BYTE   N23  Ds3  v112
 BYTE   W24
 BYTE   N11  Fn3
 BYTE   W12
 BYTE   PEND 
Label_01161010:
 BYTE   N23  Fs1  v080
 BYTE   N11  Ds3  v112
 BYTE   W12
 BYTE   Cs3
 BYTE   W12
//  #01 //032   ----------------------------------------
 BYTE   N32  As2
 BYTE   W12
 BYTE   N23  Fs1  v080
 BYTE   W36
 BYTE   PEND 
Label_01161021:
 BYTE   N23  Gs1  v080
 BYTE   N23  Ds3  v112
 BYTE   W24
 BYTE   N11  Cs3
 BYTE   W12
 BYTE   N23  Gs0  v080
 BYTE   N23  Ds3  v112
 BYTE   W24
//  #01 //033   ----------------------------------------
 BYTE   N11  Fn3
 BYTE   W12
 BYTE   PEND 
Label_01161036:
 BYTE   N23  As0  v080
 BYTE   N56  Gs3  v112
 BYTE   W36
 BYTE   N23  As0  v080
 BYTE   W36
 BYTE   PEND 
Label_01161042:
 BYTE   N23  An1  v096
 BYTE   W36
//  #01 //034   ----------------------------------------
 BYTE   En1
 BYTE   W24
 BYTE   N11
 BYTE   W12
 BYTE   PEND 
Label_0116104B:
 BYTE   N11  An1  v096
 BYTE   W24
 BYTE   Ds1
 BYTE   W12
 BYTE   N23  An0
 BYTE   W24
//  #01 //035   ----------------------------------------
 BYTE   N11  An1
 BYTE   W12
 BYTE   PEND 
Label_01161058:
 BYTE   N23  Gn1  v096
 BYTE   W36
 BYTE   Dn1
 BYTE   W24
 BYTE   N11
 BYTE   W12
 BYTE   PEND 
Label_01161061:
 BYTE   N11  Gn0  v096
 BYTE   W36
//  #01 //036   ----------------------------------------
 BYTE   Gn1
 BYTE   W24
 BYTE   Gn0
 BYTE   W12
 BYTE   PEND 
Label_0116106A:
 BYTE   N11  An1  v096
 BYTE   N32  Ds4
 BYTE   W36
 BYTE   Gs4
 BYTE   W36
 BYTE   PEND 
//  #01 //037   ----------------------------------------
Label_01161073:
 BYTE   N23  An2  v096
 BYTE   N56  Ds4
 BYTE   W36
 BYTE   N23  An1
 BYTE   W36
 BYTE   PEND 
Label_0116107D:
 BYTE   N23  Gs1  v096
 BYTE   N32  Ds4
 BYTE   W36
//  #01 //038   ----------------------------------------
 BYTE   Gs4
 BYTE   W36
 BYTE   PEND 
Label_01161086:
 BYTE   N23  Gs2  v096
 BYTE   N56  Ds4
 BYTE   W36
 BYTE   N23  Gs1
 BYTE   W36
 BYTE   PEND 
//  #01 //039   ----------------------------------------
Label_01161090:
 BYTE   N23  As0  v096
 BYTE   W36
 BYTE   Cn1
 BYTE   W36
 BYTE   PEND 
//  #01 //040   ----------------------------------------
 BYTE   PATT
  POIN2 Label_01160FE7
//  #01 //041   ----------------------------------------
Label_0116109C:
 BYTE   W36
 BYTE   N23  As0  v096
 BYTE   W36
 BYTE   PEND 
Label_011610A2:
 BYTE   N23  Cn1  v096
 BYTE   W36
//  #01 //042   ----------------------------------------
 BYTE   Fn1
 BYTE   W36
 BYTE   PEND 
Label_011610A9:
 BYTE   N23  Ds1  v096
 BYTE   W72
 BYTE   PEND 
//  #01 //043   ----------------------------------------
Label_011610AE:
 BYTE   N23  Cs1  v096
 BYTE   W72
 BYTE   PEND 
Label_011610B3:
 BYTE   TIE  Bn0  v096
 BYTE   W72
 BYTE   PEND 
//  #01 //044   ----------------------------------------
Label_011610B8:
 BYTE   W68
 BYTE   W03
 BYTE   PEND 
 BYTE   EOT
 BYTE   Bn0
 BYTE   W01
Label_011610BE:
 BYTE   TIE  Gs0  v096
 BYTE   W72
 BYTE   PEND 
//  #01 //045   ----------------------------------------
 BYTE   PATT
  POIN2 Label_01160F46
//  #01 //046   ----------------------------------------
 BYTE   EOT
 BYTE   Gs0
 BYTE   W01
 BYTE   N32  As0  v096
 BYTE   W36
Label_011610CF:
 BYTE   TIE  As0  v096
 BYTE   N68  Gs2  v052
 BYTE   W72
 BYTE   PEND 
//  #01 //047   ----------------------------------------
Label_011610D7:
 BYTE   N32  Cs3  v052
 BYTE   W36
 BYTE   Fn3
 BYTE   W36
 BYTE   PEND 
Label_011610DE:
 BYTE   N68  Fn3  v052
 BYTE   W68
//  #01 //048   ----------------------------------------
 BYTE   W03
 BYTE   PEND 
 BYTE   EOT
 BYTE   As0
 BYTE   W01
 BYTE   W72
 BYTE   TEMPO   84*FireEmblemEngageEnjoytheEveningDivineOneSurfingKyogre1_tbs/2
 BYTE   W72
//  #01 //049   ----------------------------------------
 BYTE   N68  Fs1  v064
 BYTE   W04
 BYTE   W05
 BYTE   W04
 BYTE   W05
 BYTE   W04
 BYTE   W05
 BYTE   W04
 BYTE   W05
 BYTE   W04
 BYTE   W05
 BYTE   W04
 BYTE   W05
 BYTE   W04
 BYTE   W05
 BYTE   W04
 BYTE   W05
 BYTE   TIE  Fn1  v080
 BYTE   W72
//  #01 //050   ----------------------------------------
 BYTE   W68
 BYTE   W03
 BYTE   EOT
 BYTE   W01
 BYTE   N68  Ds1
 BYTE   W18
 BYTE   W18
//  #01 //051   ----------------------------------------
 BYTE   W18
 BYTE   W18
 BYTE   Fn1  v084
 BYTE   W18
 BYTE   W18
 BYTE   W18
 BYTE   W18
//  #01 //052   ----------------------------------------
 BYTE   Fs1  v088
 BYTE   W18
 BYTE   W18
 BYTE   W18
 BYTE   W18
 BYTE   Gs1  v092
 BYTE   W18
 BYTE   W18
//  #01 //053   ----------------------------------------
 BYTE   W18
 BYTE   W06
 BYTE   N11  Gs3  v112
 BYTE   W12
 BYTE   N32  Ds1  v096
 BYTE   N17  Cs4  v112
 BYTE   W18
 BYTE   N05  Cn4
 BYTE   W06
 BYTE   N11  As3
 BYTE   W12
 BYTE   TIE  Fn1  v096
 BYTE   N52  Gs3  v112
 BYTE   W36
//  #01 //054   ----------------------------------------
 BYTE   W18
 BYTE   N05  Fn3
 BYTE   W06
 BYTE   N11  Fs3
 BYTE   W12
 BYTE   N23  Gs3
 BYTE   W24
 BYTE   N11  As3
 BYTE   W11
 BYTE   EOT
 BYTE   Fn1
 BYTE   W01
 BYTE   N68  Gs1  v096
 BYTE   N52  Ds3  v112
 BYTE   W36
//  #01 //055   ----------------------------------------
 BYTE   W18
 BYTE   N05  Bn2
 BYTE   W06
 BYTE   N11  Cs3
 BYTE   W12
 BYTE   N68  Cs1  v096
 BYTE   N17  Ds3  v112
 BYTE   W18
 BYTE   N05  Cs3
 BYTE   W06
 BYTE   N11  Ds3
 BYTE   W12
 BYTE   N17  Bn2
 BYTE   W18
 BYTE   N05  As2
 BYTE   W06
//  #01 //056   ----------------------------------------
 BYTE   N11  Gs2
 BYTE   W12
 BYTE   N68  Fs1  v096
 BYTE   N32  As2  v112
 BYTE   W36
 BYTE   N44  Fn3
 BYTE   W36
 BYTE   N68  Bn0  v096
 BYTE   W18
//  #01 //057   ----------------------------------------
 BYTE   N05  Ds3  v112
 BYTE   W06
 BYTE   N11  Fn3
 BYTE   W12
 BYTE   N17  Gs3
 BYTE   W18
 BYTE   N05  Fs3
 BYTE   W06
 BYTE   N11  Fn3
 BYTE   W12
 BYTE   N32  Cn1  v096
 BYTE   N17  Ds3  v112
 BYTE   W18
 BYTE   N05  Cs3
 BYTE   W06
 BYTE   N11  Ds3
 BYTE   W12
 BYTE   N32  Fn1  v096
 BYTE   N23  Cn3  v112
 BYTE   W24
//  #01 //058   ----------------------------------------
 BYTE   N11  Gs2
 BYTE   W12
 BYTE   TIE  As0  v096
 BYTE   N68  As2  v112
 BYTE   W72
//  #01 //059   ----------------------------------------
 BYTE   PATT
  POIN2 Label_01160F46
//  #01 //060   ----------------------------------------
 BYTE   EOT
 BYTE   As0
 BYTE   W13
 BYTE   GoTo
  POIN2 Label_01160F4C
//  #01 //061   ----------------------------------------
 BYTE   W24
Label_011611B4:
 BYTE   N68  Fs1  v112
 BYTE   W72
 BYTE   PEND 
//  #01 //062   ----------------------------------------
Label_011611B9:
 BYTE   N68  Fn1  v112
 BYTE   W72
 BYTE   PEND 
 BYTE   N32  Ds1
 BYTE   W36
//  #01 //063   ----------------------------------------
 BYTE   Gs1
 BYTE   W36
 BYTE   N68  Cs1
 BYTE   W72
//  #01 //064   ----------------------------------------
 BYTE   PATT
  POIN2 Label_011611B9
//  #01 //065   ----------------------------------------
 BYTE   N68  As0  v112
 BYTE   W72
 BYTE   Cn1
 BYTE   W72
//  #01 //066   ----------------------------------------
 BYTE   PATT
  POIN2 Label_011611B9
//  #01 //067   ----------------------------------------
 BYTE   PATT
  POIN2 Label_011611B4
//  #01 //068   ----------------------------------------
 BYTE   PATT
  POIN2 Label_011611B9
//  #01 //069   ----------------------------------------
 BYTE   N32  Ds1  v112
 BYTE   W36
 BYTE   Gs0
 BYTE   W36
//  #01 //070   ----------------------------------------
 BYTE   PATT
  POIN2 Label_01160F78
//  #01 //071   ----------------------------------------
 BYTE   PATT
  POIN2 Label_01160F82
//  #01 //072   ----------------------------------------
 BYTE   EOT
 BYTE   Fs1
 BYTE   W01
//  #01 //073   ----------------------------------------
 BYTE   PATT
  POIN2 Label_01160F9C
//  #01 //074   ----------------------------------------
 BYTE   W72
//  #01 //075   ----------------------------------------
 BYTE   PATT
  POIN2 Label_01160FA6
//  #01 //076   ----------------------------------------
 BYTE   PATT
  POIN2 Label_01160FAB
//  #01 //077   ----------------------------------------
 BYTE   PATT
  POIN2 Label_01160FB0
//  #01 //078   ----------------------------------------
 BYTE   PATT
  POIN2 Label_01160FBB
//  #01 //079   ----------------------------------------
 BYTE   PATT
  POIN2 Label_01160FCD
//  #01 //080   ----------------------------------------
 BYTE   PATT
  POIN2 Label_01160FD2
//  #01 //081   ----------------------------------------
 BYTE   PATT
  POIN2 Label_01160FDA
//  #01 //082   ----------------------------------------
 BYTE   EOT
 BYTE   Cs1
 BYTE   W01
 BYTE   N32  Gs2  v112
 BYTE   W36
 BYTE   W72
//  #01 //083   ----------------------------------------
 BYTE   PATT
  POIN2 Label_01160FE7
//  #01 //084   ----------------------------------------
 BYTE   PATT
  POIN2 Label_01160FEC
//  #01 //085   ----------------------------------------
 BYTE   PATT
  POIN2 Label_01160FF1
//  #01 //086   ----------------------------------------
 BYTE   PATT
  POIN2 Label_01160FF6
//  #01 //087   ----------------------------------------
 BYTE   PATT
  POIN2 Label_01160FFB
//  #01 //088   ----------------------------------------
 BYTE   PATT
  POIN2 Label_01161010
//  #01 //089   ----------------------------------------
 BYTE   PATT
  POIN2 Label_01161021
//  #01 //090   ----------------------------------------
 BYTE   PATT
  POIN2 Label_01161036
//  #01 //091   ----------------------------------------
 BYTE   PATT
  POIN2 Label_01161042
//  #01 //092   ----------------------------------------
 BYTE   PATT
  POIN2 Label_0116104B
//  #01 //093   ----------------------------------------
 BYTE   PATT
  POIN2 Label_01161058
//  #01 //094   ----------------------------------------
 BYTE   PATT
  POIN2 Label_01161061
//  #01 //095   ----------------------------------------
 BYTE   PATT
  POIN2 Label_0116106A
//  #01 //096   ----------------------------------------
 BYTE   PATT
  POIN2 Label_01161073
//  #01 //097   ----------------------------------------
 BYTE   PATT
  POIN2 Label_0116107D
//  #01 //098   ----------------------------------------
 BYTE   PATT
  POIN2 Label_01161086
//  #01 //099   ----------------------------------------
 BYTE   PATT
  POIN2 Label_01161090
//  #01 //100   ----------------------------------------
 BYTE   PATT
  POIN2 Label_01160FE7
//  #01 //101   ----------------------------------------
 BYTE   PATT
  POIN2 Label_0116109C
//  #01 //102   ----------------------------------------
 BYTE   PATT
  POIN2 Label_011610A2
//  #01 //103   ----------------------------------------
 BYTE   PATT
  POIN2 Label_011610A9
//  #01 //104   ----------------------------------------
 BYTE   PATT
  POIN2 Label_011610AE
//  #01 //105   ----------------------------------------
 BYTE   PATT
  POIN2 Label_011610B3
//  #01 //106   ----------------------------------------
 BYTE   PATT
  POIN2 Label_011610B8
//  #01 //107   ----------------------------------------
 BYTE   EOT
 BYTE   Bn0
 BYTE   W01
//  #01 //108   ----------------------------------------
 BYTE   PATT
  POIN2 Label_011610BE
//  #01 //109   ----------------------------------------
 BYTE   PATT
  POIN2 Label_01160F46
//  #01 //110   ----------------------------------------
 BYTE   EOT
 BYTE   Gs0
 BYTE   W01
 BYTE   N32  As0  v096
 BYTE   W36
//  #01 //111   ----------------------------------------
 BYTE   PATT
  POIN2 Label_011610CF
//  #01 //112   ----------------------------------------
 BYTE   PATT
  POIN2 Label_011610D7
//  #01 //113   ----------------------------------------
 BYTE   PATT
  POIN2 Label_011610DE
//  #01 //114   ----------------------------------------
 BYTE   EOT
 BYTE   As0
 BYTE   W01
 BYTE   W68
 BYTE   W03
 BYTE   FINE

//**************** Track 2 (Midi-Chn.1) ****************//

FireEmblemEngageEnjoytheEveningDivineOneSurfingKyogre1_002:
//  #02 //000   ----------------------------------------
 BYTE   KEYSH   FireEmblemEngageEnjoytheEveningDivineOneSurfingKyogre1_key+0
 BYTE   VOICE   68
 BYTE   PAN   c_v-5
 BYTE   VOL   62*FireEmblemEngageEnjoytheEveningDivineOneSurfingKyogre1_mvl/mxv
 BYTE   VOL   62*FireEmblemEngageEnjoytheEveningDivineOneSurfingKyogre1_mvl/mxv
 BYTE   N17  Fn3  v096
 BYTE   W18
 BYTE   N05  Fs3
 BYTE   W06
 BYTE   N11  Gs3
 BYTE   W12
 BYTE   N17  Fn3
 BYTE   W18
 BYTE   N05  Ds3
 BYTE   W06
 BYTE   N11  Cs3
 BYTE   W12
 BYTE   N32  Fn3
 BYTE   W24
//  #02 //001   ----------------------------------------
 BYTE   W24
 BYTE   N11  Gs2
 BYTE   W12
 BYTE   Fn3
 BYTE   W12
 BYTE   N32  Ds3
 BYTE   W36
 BYTE   Gs3
 BYTE   W12
//  #02 //002   ----------------------------------------
 BYTE   W24
 BYTE   Ds3
 BYTE   W54
 BYTE   N05  Cs3
 BYTE   W06
 BYTE   N11  Cn3
 BYTE   W12
//  #02 //003   ----------------------------------------
 BYTE   N17  Gs2
 BYTE   W18
 BYTE   N05  As2
 BYTE   W06
 BYTE   N11  Cn3
 BYTE   W12
 BYTE   N44  Cs3
 BYTE   W36
 BYTE   W18
 BYTE   N05  Ds3
 BYTE   W06
//  #02 //004   ----------------------------------------
 BYTE   N11  Fn3
 BYTE   W12
 BYTE   N23  Cn3
 BYTE   W24
 BYTE   N11  Gs2
 BYTE   W12
 BYTE   N32  As2
 BYTE   W36
 BYTE   Fn3
 BYTE   W12
//  #02 //005   ----------------------------------------
 BYTE   W24
 BYTE   Ds3
 BYTE   W36
 BYTE   Cn3
 BYTE   W36
//  #02 //006   ----------------------------------------
 BYTE   W96
//  #02 //007   ----------------------------------------
 BYTE   W84
 BYTE   N68  Fs2  v052
 BYTE   W02
 BYTE   W02
 BYTE   W03
 BYTE   W02
 BYTE   W02
 BYTE   W01
//  #02 //008   ----------------------------------------
 BYTE   W01
 BYTE   W03
 BYTE   W02
 BYTE   W02
 BYTE   W03
 BYTE   W02
 BYTE   W02
 BYTE   W03
 BYTE   W02
 BYTE   W02
 BYTE   W02
 BYTE   W01
 BYTE   W02
 BYTE   W02
 BYTE   W03
 BYTE   W02
 BYTE   W02
 BYTE   W03
 BYTE   W02
 BYTE   W02
 BYTE   W03
 BYTE   W02
 BYTE   W02
 BYTE   W03
 BYTE   W02
 BYTE   W02
 BYTE   W03
 BYTE   N17  Fn2  v080
 BYTE   W18
 BYTE   N05  Fs2
 BYTE   W06
 BYTE   N11  Gs2
 BYTE   W12
//  #02 //009   ----------------------------------------
 BYTE   N32  Fs2
 BYTE   W36
 BYTE   As2
 BYTE   W36
 BYTE   N68  An2
 BYTE   W24
//  #02 //010   ----------------------------------------
 BYTE   W48
 BYTE   N32  Fs2
 BYTE   W36
 BYTE   Gs2
 BYTE   W12
//  #02 //011   ----------------------------------------
 BYTE   W24
 BYTE   N68  Fn2
 BYTE   W72
//  #02 //012   ----------------------------------------
 BYTE   W48
Label_01132446:
 BYTE   W48
//  #02 //013   ----------------------------------------
 BYTE   W96
//  #02 //014   ----------------------------------------
 BYTE   W96
//  #02 //015   ----------------------------------------
 BYTE   W96
//  #02 //016   ----------------------------------------
 BYTE   W96
//  #02 //017   ----------------------------------------
 BYTE   W96
//  #02 //018   ----------------------------------------
 BYTE   N32  Cs3  v080
 BYTE   W36
 BYTE   Cn3
 BYTE   W36
 BYTE   N17  Ds4  v112
 BYTE   W18
 BYTE   N05  Cs4
 BYTE   W06
//  #02 //019   ----------------------------------------
 BYTE   N11  Cn4
 BYTE   W12
 BYTE   N17  As3
 BYTE   W18
 BYTE   N05  Gs3
 BYTE   W06
 BYTE   N11  Cs4
 BYTE   W12
 BYTE   N32  Cn4
 BYTE   W36
 BYTE   N44  Fn3
 BYTE   W12
//  #02 //020   ----------------------------------------
 BYTE   W24
 BYTE   W18
 BYTE   N05  Fs3
 BYTE   W06
 BYTE   N11  Gs3
 BYTE   W12
 BYTE   N17  Fn3
 BYTE   W18
 BYTE   N05  Ds3
 BYTE   W06
 BYTE   N11  Fn3
 BYTE   W12
//  #02 //021   ----------------------------------------
Label_0113247C:
 BYTE   N32  Cn3  v112
 BYTE   W72
 BYTE   PEND 
 BYTE   W96
//  #02 //022   ----------------------------------------
 BYTE   W12
 BYTE   W96
//  #02 //023   ----------------------------------------
 BYTE   W12
 BYTE   W72
 BYTE   W72
//  #02 //024   ----------------------------------------
 BYTE   W72
 BYTE   W72
//  #02 //025   ----------------------------------------
 BYTE   W72
 BYTE   W72
//  #02 //026   ----------------------------------------
 BYTE   W72
 BYTE   W72
//  #02 //027   ----------------------------------------
 BYTE   W72
 BYTE   W72
//  #02 //028   ----------------------------------------
 BYTE   W72
 BYTE   W72
//  #02 //029   ----------------------------------------
 BYTE   W72
 BYTE   W72
//  #02 //030   ----------------------------------------
 BYTE   W72
 BYTE   W72
//  #02 //031   ----------------------------------------
 BYTE   W72
 BYTE   W72
//  #02 //032   ----------------------------------------
 BYTE   W72
 BYTE   W72
//  #02 //033   ----------------------------------------
 BYTE   W72
 BYTE   W72
//  #02 //034   ----------------------------------------
 BYTE   W72
 BYTE   W72
//  #02 //035   ----------------------------------------
 BYTE   W72
 BYTE   W72
//  #02 //036   ----------------------------------------
 BYTE   W72
 BYTE   W72
//  #02 //037   ----------------------------------------
 BYTE   W72
 BYTE   W72
//  #02 //038   ----------------------------------------
 BYTE   W72
 BYTE   W72
//  #02 //039   ----------------------------------------
 BYTE   W72
 BYTE   W72
//  #02 //040   ----------------------------------------
 BYTE   W72
Label_011324A8:
 BYTE   N68  Gs2  v052
 BYTE   W72
 BYTE   PEND 
//  #02 //041   ----------------------------------------
Label_011324AD:
 BYTE   N32  Cs3  v052
 BYTE   W36
 BYTE   Fn3
 BYTE   W36
 BYTE   PEND 
Label_011324B4:
 BYTE   N68  Fn3  v052
 BYTE   W72
 BYTE   PEND 
//  #02 //042   ----------------------------------------
 BYTE   W72
 BYTE   N17  Fn3  v096
 BYTE   W18
 BYTE   N05  Fs3
 BYTE   W06
//  #02 //043   ----------------------------------------
 BYTE   N11  Gs3
 BYTE   W12
 BYTE   N17  Fn3
 BYTE   W18
 BYTE   N05  Ds3
 BYTE   W06
 BYTE   N11  Cs3
 BYTE   W12
 BYTE   N32  Fn3
 BYTE   W48
//  #02 //044   ----------------------------------------
 BYTE   N11  Gs2
 BYTE   W12
 BYTE   Fn3
 BYTE   W12
 BYTE   N32  Ds3
 BYTE   W36
 BYTE   Gs3
 BYTE   W36
//  #02 //045   ----------------------------------------
 BYTE   Ds3
 BYTE   W54
 BYTE   N05  Cs3
 BYTE   W06
 BYTE   N11  Cn3
 BYTE   W12
 BYTE   N17  Gs2
 BYTE   W18
 BYTE   N05  As2
 BYTE   W06
//  #02 //046   ----------------------------------------
 BYTE   N11  Cn3
 BYTE   W12
 BYTE   N44  Cs3
 BYTE   W36
 BYTE   W18
 BYTE   N05  Ds3
 BYTE   W06
 BYTE   N11  Fn3
 BYTE   W12
 BYTE   N23  Cn3
 BYTE   W24
//  #02 //047   ----------------------------------------
 BYTE   N11  Gs2
 BYTE   W12
 BYTE   N32  As2
 BYTE   W36
 BYTE   Fn3
 BYTE   W36
 BYTE   Ds3
 BYTE   W36
//  #02 //048   ----------------------------------------
 BYTE   Cn3
 BYTE   W36
 BYTE   W72
//  #02 //049   ----------------------------------------
 BYTE   W72
 BYTE   W36
//  #02 //050   ----------------------------------------
 BYTE   N68  Fs2  v052
 BYTE   W02
 BYTE   W02
 BYTE   W03
 BYTE   W02
 BYTE   W02
 BYTE   W02
 BYTE   W03
 BYTE   W02
 BYTE   W02
 BYTE   W03
 BYTE   W02
 BYTE   W02
 BYTE   W03
 BYTE   W02
 BYTE   W02
 BYTE   W02
 BYTE   W01
 BYTE   W02
 BYTE   W02
 BYTE   W03
 BYTE   W02
 BYTE   W02
 BYTE   W03
 BYTE   W02
 BYTE   W02
 BYTE   W03
 BYTE   W02
 BYTE   W02
 BYTE   W03
 BYTE   W02
 BYTE   W02
 BYTE   W03
 BYTE   N17  Fn2  v080
 BYTE   W18
 BYTE   N05  Fs2
 BYTE   W06
//  #02 //051   ----------------------------------------
 BYTE   N11  Gs2
 BYTE   W12
 BYTE   N32  Fs2
 BYTE   W36
 BYTE   As2
 BYTE   W36
 BYTE   N68  An2
 BYTE   W72
//  #02 //052   ----------------------------------------
 BYTE   N32  Fs2
 BYTE   W36
 BYTE   Gs2
 BYTE   W36
 BYTE   N68  Fn2
 BYTE   W72
//  #02 //053   ----------------------------------------
 BYTE   W48
 BYTE   GoTo
  POIN2 Label_01132446
//  #02 //054   ----------------------------------------
 BYTE   W24
 BYTE   W72
//  #02 //055   ----------------------------------------
 BYTE   W72
 BYTE   W72
//  #02 //056   ----------------------------------------
 BYTE   W72
 BYTE   W72
//  #02 //057   ----------------------------------------
 BYTE   W72
 BYTE   W72
//  #02 //058   ----------------------------------------
 BYTE   N32  Cs3  v080
 BYTE   W36
 BYTE   Cn3
 BYTE   W36
 BYTE   N17  Ds4  v112
 BYTE   W18
 BYTE   N05  Cs4
 BYTE   W06
//  #02 //059   ----------------------------------------
 BYTE   N11  Cn4
 BYTE   W12
 BYTE   N17  As3
 BYTE   W18
 BYTE   N05  Gs3
 BYTE   W06
 BYTE   N11  Cs4
 BYTE   W12
 BYTE   N32  Cn4
 BYTE   W36
 BYTE   N44  Fn3
 BYTE   W36
//  #02 //060   ----------------------------------------
 BYTE   W18
 BYTE   N05  Fs3
 BYTE   W06
 BYTE   N11  Gs3
 BYTE   W12
 BYTE   N17  Fn3
 BYTE   W18
 BYTE   N05  Ds3
 BYTE   W06
 BYTE   N11  Fn3
 BYTE   W12
//  #02 //061   ----------------------------------------
 BYTE   PATT
  POIN2 Label_0113247C
//  #02 //062   ----------------------------------------
 BYTE   W96
//  #02 //063   ----------------------------------------
 BYTE   W12
 BYTE   W96
//  #02 //064   ----------------------------------------
 BYTE   W12
 BYTE   W72
 BYTE   W72
//  #02 //065   ----------------------------------------
 BYTE   W72
 BYTE   W72
//  #02 //066   ----------------------------------------
 BYTE   W72
 BYTE   W72
//  #02 //067   ----------------------------------------
 BYTE   W72
 BYTE   W72
//  #02 //068   ----------------------------------------
 BYTE   W72
 BYTE   W72
//  #02 //069   ----------------------------------------
 BYTE   W72
 BYTE   W72
//  #02 //070   ----------------------------------------
 BYTE   W72
 BYTE   W72
//  #02 //071   ----------------------------------------
 BYTE   W72
 BYTE   W72
//  #02 //072   ----------------------------------------
 BYTE   W72
 BYTE   W72
//  #02 //073   ----------------------------------------
 BYTE   W72
 BYTE   W72
//  #02 //074   ----------------------------------------
 BYTE   W72
 BYTE   W72
//  #02 //075   ----------------------------------------
 BYTE   W72
 BYTE   W72
//  #02 //076   ----------------------------------------
 BYTE   W72
 BYTE   W72
//  #02 //077   ----------------------------------------
 BYTE   W72
 BYTE   W72
//  #02 //078   ----------------------------------------
 BYTE   W72
 BYTE   W72
//  #02 //079   ----------------------------------------
 BYTE   W72
 BYTE   W72
//  #02 //080   ----------------------------------------
 BYTE   W72
 BYTE   W72
//  #02 //081   ----------------------------------------
 BYTE   W72
//  #02 //082   ----------------------------------------
 BYTE   PATT
  POIN2 Label_011324A8
//  #02 //083   ----------------------------------------
 BYTE   PATT
  POIN2 Label_011324AD
//  #02 //084   ----------------------------------------
 BYTE   PATT
  POIN2 Label_011324B4
//  #02 //085   ----------------------------------------
 BYTE   W68
 BYTE   W03
 BYTE   FINE

//**************** Track 3 (Midi-Chn.2) ****************//

FireEmblemEngageEnjoytheEveningDivineOneSurfingKyogre1_003:
//  #03 //000   ----------------------------------------
 BYTE   KEYSH   FireEmblemEngageEnjoytheEveningDivineOneSurfingKyogre1_key+0
 BYTE   VOICE   24
 BYTE   PAN   c_v-1
 BYTE   VOL   42*FireEmblemEngageEnjoytheEveningDivineOneSurfingKyogre1_mvl/mxv
 BYTE   VOL   42*FireEmblemEngageEnjoytheEveningDivineOneSurfingKyogre1_mvl/mxv
 BYTE   N11  Cs2  v064
 BYTE   W12
 BYTE   Gs2
 BYTE   W12
 BYTE   Ds3
 BYTE   W12
 BYTE   N32  Gs2
 BYTE   W36
 BYTE   N11  Fs1
 BYTE   W12
 BYTE   Cs2
 BYTE   W12
//  #03 //001   ----------------------------------------
 BYTE   Fs2
 BYTE   W12
 BYTE   N32  As2
 BYTE   W36
 BYTE   N11  Fn1
 BYTE   W12
 BYTE   Cn2
 BYTE   W12
 BYTE   Gs2
 BYTE   W12
 BYTE   N32  Cn3
 BYTE   W12
//  #03 //002   ----------------------------------------
 BYTE   W24
 BYTE   N11  As1
 BYTE   W12
 BYTE   Fn2
 BYTE   W12
 BYTE   Gs2
 BYTE   W12
 BYTE   N32  Cn3
 BYTE   W36
//  #03 //003   ----------------------------------------
 BYTE   N11  Ds2
 BYTE   W12
 BYTE   Fs2
 BYTE   W12
 BYTE   As2
 BYTE   W12
 BYTE   N32  Cs3
 BYTE   W36
 BYTE   N11  Fn1
 BYTE   W12
 BYTE   Fn2
 BYTE   W12
//  #03 //004   ----------------------------------------
 BYTE   Gs2
 BYTE   W12
 BYTE   N32  Cn3
 BYTE   W36
 BYTE   N11  Fs1
 BYTE   W12
 BYTE   Fs2
 BYTE   W12
 BYTE   As2
 BYTE   W12
 BYTE   N32  Cs3
 BYTE   W12
//  #03 //005   ----------------------------------------
 BYTE   W24
 BYTE   N32
 BYTE   W36
 BYTE   Cn3
 BYTE   W36
//  #03 //006   ----------------------------------------
 BYTE   Ds3
 BYTE   W02
 BYTE   Fs3
 BYTE   W32
 BYTE   W02
 BYTE   N11  Fn1
 BYTE   W12
 BYTE   Ds2
 BYTE   W12
 BYTE   Gs2
 BYTE   W12
 BYTE   Cn3
 BYTE   W24
//  #03 //007   ----------------------------------------
 BYTE   W48
 BYTE   Cs2
 BYTE   W12
 BYTE   Fs2
 BYTE   W12
 BYTE   Bn2
 BYTE   W12
 BYTE   N32  Ds3
 BYTE   W12
//  #03 //008   ----------------------------------------
 BYTE   W24
 BYTE   N11  Cs2
 BYTE   W12
 BYTE   Fs2
 BYTE   W12
 BYTE   Bn2
 BYTE   W12
 BYTE   N32  Ds3
 BYTE   W36
//  #03 //009   ----------------------------------------
 BYTE   N11  Fs1
 BYTE   W12
 BYTE   Cs2
 BYTE   W12
 BYTE   Fs2
 BYTE   W12
 BYTE   N32  As2
 BYTE   N32  Cs3
 BYTE   W36
 BYTE   N11  Bn1
 BYTE   W12
 BYTE   Ds2
 BYTE   W12
//  #03 //010   ----------------------------------------
 BYTE   An2
 BYTE   W12
 BYTE   N32  Cs3
 BYTE   W36
 BYTE   Fs2
 BYTE   W02
 BYTE   As2
 BYTE   W02
 BYTE   N30  Ds3
 BYTE   W32
 BYTE   N32  Fn2
 BYTE   W02
 BYTE   Gs2
 BYTE   W02
 BYTE   N30  Cn3
 BYTE   W08
//  #03 //011   ----------------------------------------
 BYTE   W24
 BYTE   N11  As1
 BYTE   W12
 BYTE   Fn2
 BYTE   W12
 BYTE   Gs2
 BYTE   W12
 BYTE   Ds3
 BYTE   W12
 BYTE   Gs2
 BYTE   W12
 BYTE   Fn2
 BYTE   W12
//  #03 //012   ----------------------------------------
Label_01160951:
 BYTE   N32  Fn2  v064
 BYTE   W02
 BYTE   Cs3
 BYTE   W44
 BYTE   W02
 BYTE   PEND 
Label_01160959:
 BYTE   W24
 BYTE   N11  Fs1  v080
 BYTE   W12
 BYTE   Cs2
 BYTE   W12
//  #03 //013   ----------------------------------------
 BYTE   Fn2
 BYTE   W12
 BYTE   N32  As2
 BYTE   W36
 BYTE   N11  Fn1
 BYTE   W12
 BYTE   Ds2
 BYTE   W12
 BYTE   Gs2
 BYTE   W12
 BYTE   N32  Cn3
 BYTE   W12
//  #03 //014   ----------------------------------------
 BYTE   W24
 BYTE   N11  Ds2
 BYTE   W12
 BYTE   Gs2
 BYTE   W12
 BYTE   Cn3
 BYTE   W12
 BYTE   N32  Fn3
 BYTE   W36
//  #03 //015   ----------------------------------------
 BYTE   N11  Fn2
 BYTE   W12
 BYTE   Gs2
 BYTE   W12
 BYTE   Cn3
 BYTE   W12
 BYTE   N32  Fn3
 BYTE   W36
 BYTE   N11  Fs1
 BYTE   W12
 BYTE   Cs2
 BYTE   W12
//  #03 //016   ----------------------------------------
 BYTE   Fn2
 BYTE   W12
 BYTE   N32  As2
 BYTE   W36
 BYTE   N11  As1
 BYTE   W12
 BYTE   Fn2
 BYTE   W12
 BYTE   Gs2
 BYTE   W12
 BYTE   N32  Cn3
 BYTE   W12
//  #03 //017   ----------------------------------------
 BYTE   W24
 BYTE   N11  Cn2
 BYTE   W12
 BYTE   Fs2
 BYTE   W12
 BYTE   As2
 BYTE   W12
 BYTE   N32  Ds3
 BYTE   W36
//  #03 //018   ----------------------------------------
 BYTE   Fn2
 BYTE   N02  As2
 BYTE   N04  Cs3
 BYTE   W02
 BYTE   N32  As2
 BYTE   W02
 BYTE   N30  Cs3
 BYTE   W32
 BYTE   N32  Cn3
 BYTE   W36
 BYTE   N11  Fs1  v096
 BYTE   W12
 BYTE   Cs2
 BYTE   W12
//  #03 //019   ----------------------------------------
 BYTE   Fs2
 BYTE   W12
 BYTE   N32  As2
 BYTE   W36
 BYTE   N11  Fn1
 BYTE   W12
 BYTE   Ds2
 BYTE   W12
 BYTE   Gs2
 BYTE   W12
 BYTE   N32  Cn3
 BYTE   W12
//  #03 //020   ----------------------------------------
 BYTE   W24
 BYTE   N11  Ds2
 BYTE   W12
 BYTE   Gs2
 BYTE   W12
 BYTE   Cn3
 BYTE   W12
 BYTE   Gs1
 BYTE   W12
 BYTE   Fn2
 BYTE   W12
 BYTE   Gs2
 BYTE   W12
//  #03 //021   ----------------------------------------
Label_011609D5:
 BYTE   N11  Cs2  v096
 BYTE   W12
 BYTE   Fn2
 BYTE   W12
 BYTE   Gs2
 BYTE   W12
 BYTE   N32  Cn3
 BYTE   W36
 BYTE   PEND 
Label_011609E1:
 BYTE   N11  Fs1  v096
 BYTE   W12
 BYTE   Cs2
 BYTE   W12
//  #03 //022   ----------------------------------------
 BYTE   Fn2
 BYTE   W12
 BYTE   N32  As2
 BYTE   W72
 BYTE   PEND 
Label_011609ED:
 BYTE   N11  Fs1  v096
 BYTE   W12
//  #03 //023   ----------------------------------------
 BYTE   As1
 BYTE   W12
 BYTE   Cs2
 BYTE   W12
 BYTE   Gs2
 BYTE   W12
 BYTE   As2
 BYTE   W12
 BYTE   Cs3
 BYTE   W12
 BYTE   N32  Gs3
 BYTE   W36
 BYTE   PEND 
//  #03 //024   ----------------------------------------
 BYTE   W72
Label_01160A00:
 BYTE   N11  Cs3  v096
 BYTE   W12
 BYTE   Gs3
 BYTE   W12
//  #03 //025   ----------------------------------------
 BYTE   Cs3
 BYTE   W12
 BYTE   Gs2
 BYTE   W12
 BYTE   Cs3
 BYTE   W12
 BYTE   Gs3
 BYTE   W12
 BYTE   PEND 
Label_01160A0F:
 BYTE   N11  Cn3  v096
 BYTE   W12
 BYTE   Gs2
 BYTE   W12
 BYTE   Cn3
 BYTE   W12
 BYTE   N23  Gs3
 BYTE   W24
//  #03 //026   ----------------------------------------
 BYTE   N11  Gs2
 BYTE   W12
 BYTE   PEND 
Label_01160A1E:
 BYTE   W12
 BYTE   N11  Gs2  v096
 BYTE   W12
 BYTE   Cn3
 BYTE   W12
 BYTE   Cs3
 BYTE   W12
 BYTE   Gs3
 BYTE   W12
 BYTE   Cs3
 BYTE   W12
 BYTE   PEND 
Label_01160A2C:
 BYTE   N23  Gs2  v096
 BYTE   W24
//  #03 //027   ----------------------------------------
 BYTE   N11  Gs3
 BYTE   W12
 BYTE   Cn3
 BYTE   W12
 BYTE   Gs2
 BYTE   W12
 BYTE   Cn3
 BYTE   W12
 BYTE   PEND 
Label_01160A3A:
 BYTE   N23  Fn3  v096
 BYTE   W24
 BYTE   N11  Fs2
 BYTE   W12
 BYTE   N23  Ds3
 BYTE   W24
//  #03 //028   ----------------------------------------
 BYTE   N11  Fs2
 BYTE   W12
 BYTE   PEND 
Label_01160A48:
 BYTE   W12
 BYTE   N11  Gs2  v096
 BYTE   W12
 BYTE   Cs3
 BYTE   W12
 BYTE   N23  Gs3
 BYTE   W24
 BYTE   N11  Gs2
 BYTE   W12
 BYTE   PEND 
//  #03 //029   ----------------------------------------
 BYTE   PATT
  POIN2 Label_01160A48
//  #03 //030   ----------------------------------------
Label_01160A5B:
 BYTE   N23  Ds3  v096
 BYTE   W24
 BYTE   N11  Gs2
 BYTE   W12
 BYTE   N23  Cs3
 BYTE   W24
 BYTE   N11  Gs2
 BYTE   W12
 BYTE   PEND 
 BYTE   W72
//  #03 //031   ----------------------------------------
 BYTE   W72
 BYTE   W72
//  #03 //032   ----------------------------------------
 BYTE   W72
Label_01160A6D:
 BYTE   N11  Fn1  v096
 BYTE   W12
 BYTE   Cs2
 BYTE   W12
//  #03 //033   ----------------------------------------
 BYTE   Fn2
 BYTE   W12
 BYTE   N32  Gs2
 BYTE   W36
 BYTE   PEND 
Label_01160A79:
 BYTE   N11  Fs1  v096
 BYTE   W12
 BYTE   Cs2
 BYTE   W12
 BYTE   Fn2
 BYTE   W12
 BYTE   N32  As2
 BYTE   W36
 BYTE   PEND 
//  #03 //034   ----------------------------------------
Label_01160A85:
 BYTE   N11  As1  v096
 BYTE   W12
 BYTE   Fn2
 BYTE   W12
 BYTE   Gs2
 BYTE   W12
 BYTE   N32  Cn3
 BYTE   W36
 BYTE   PEND 
Label_01160A91:
 BYTE   N11  Cs2  v096
 BYTE   W12
 BYTE   Fs2
 BYTE   W12
//  #03 //035   ----------------------------------------
 BYTE   Gs2
 BYTE   W12
 BYTE   N32  Cs3
 BYTE   W36
 BYTE   PEND 
 BYTE   W72
//  #03 //036   ----------------------------------------
 BYTE   W72
 BYTE   W72
//  #03 //037   ----------------------------------------
 BYTE   W72
 BYTE   W72
//  #03 //038   ----------------------------------------
 BYTE   W72
 BYTE   W72
//  #03 //039   ----------------------------------------
 BYTE   W72
Label_01160AA5:
 BYTE   N11  Cs3  v096
 BYTE   W12
 BYTE   Gs3
 BYTE   W12
//  #03 //040   ----------------------------------------
 BYTE   Cs3
 BYTE   W12
 BYTE   N23  Gs2
 BYTE   W24
 BYTE   N11  Gs3
 BYTE   W12
 BYTE   PEND 
//  #03 //041   ----------------------------------------
 BYTE   PATT
  POIN2 Label_01160A0F
//  #03 //042   ----------------------------------------
 BYTE   PATT
  POIN2 Label_01160A1E
//  #03 //043   ----------------------------------------
 BYTE   PATT
  POIN2 Label_01160A2C
//  #03 //044   ----------------------------------------
 BYTE   PATT
  POIN2 Label_01160A3A
//  #03 //045   ----------------------------------------
 BYTE   PATT
  POIN2 Label_01160A48
//  #03 //046   ----------------------------------------
 BYTE   PATT
  POIN2 Label_01160A48
//  #03 //047   ----------------------------------------
 BYTE   PATT
  POIN2 Label_01160A5B
//  #03 //048   ----------------------------------------
 BYTE   PATT
  POIN2 Label_01160A48
//  #03 //049   ----------------------------------------
 BYTE   PATT
  POIN2 Label_01160A5B
//  #03 //050   ----------------------------------------
 BYTE   PATT
  POIN2 Label_01160A48
//  #03 //051   ----------------------------------------
 BYTE   PATT
  POIN2 Label_01160A5B
//  #03 //052   ----------------------------------------
Label_01160AEB:
 BYTE   W12
 BYTE   N11  Gs2  v096
 BYTE   W12
 BYTE   Cs3
 BYTE   W12
 BYTE   N23  Ds3
 BYTE   W24
 BYTE   N11  Gs2
 BYTE   W12
 BYTE   PEND 
 BYTE   N68  Gs3
 BYTE   W72
//  #03 //053   ----------------------------------------
 BYTE   N11  Cs2  v064
 BYTE   W12
 BYTE   Gs2
 BYTE   W12
 BYTE   Ds3
 BYTE   W12
 BYTE   N32  Gs2
 BYTE   W36
 BYTE   N11  Fs1
 BYTE   W12
 BYTE   Cs2
 BYTE   W12
//  #03 //054   ----------------------------------------
 BYTE   Fs2
 BYTE   W12
 BYTE   N32  As2
 BYTE   W36
 BYTE   N11  Fn1
 BYTE   W12
 BYTE   Cn2
 BYTE   W12
 BYTE   Gs2
 BYTE   W12
 BYTE   N32  Cn3
 BYTE   W36
//  #03 //055   ----------------------------------------
 BYTE   N11  As1
 BYTE   W12
 BYTE   Fn2
 BYTE   W12
 BYTE   Gs2
 BYTE   W12
 BYTE   N32  Cn3
 BYTE   W36
 BYTE   N11  Ds2
 BYTE   W12
 BYTE   Fs2
 BYTE   W12
//  #03 //056   ----------------------------------------
 BYTE   As2
 BYTE   W12
 BYTE   N32  Cs3
 BYTE   W36
 BYTE   N11  Fn1
 BYTE   W12
 BYTE   Fn2
 BYTE   W12
 BYTE   Gs2
 BYTE   W12
 BYTE   N32  Cn3
 BYTE   W36
//  #03 //057   ----------------------------------------
 BYTE   N11  Fs1
 BYTE   W12
 BYTE   Fs2
 BYTE   W12
 BYTE   As2
 BYTE   W12
 BYTE   N32  Cs3
 BYTE   W36
 BYTE   N32
 BYTE   W36
//  #03 //058   ----------------------------------------
 BYTE   Cn3
 BYTE   W36
 BYTE   Ds3
 BYTE   W02
 BYTE   Fs3
 BYTE   W32
 BYTE   W02
 BYTE   N11  Fn1
 BYTE   W12
 BYTE   Ds2
 BYTE   W12
//  #03 //059   ----------------------------------------
 BYTE   Gs2
 BYTE   W12
 BYTE   Cn3
 BYTE   W72
Label_01160B55:
 BYTE   N11  Cs2  v064
 BYTE   W12
//  #03 //060   ----------------------------------------
 BYTE   Fs2
 BYTE   W12
 BYTE   Bn2
 BYTE   W12
 BYTE   N32  Ds3
 BYTE   W36
 BYTE   PEND 
//  #03 //061   ----------------------------------------
 BYTE   PATT
  POIN2 Label_01160B55
//  #03 //062   ----------------------------------------
 BYTE   N11  Fs1  v064
 BYTE   W12
 BYTE   Cs2
 BYTE   W12
 BYTE   Fs2
 BYTE   W12
 BYTE   N32  As2
 BYTE   N32  Cs3
 BYTE   W36
 BYTE   N11  Bn1
 BYTE   W12
 BYTE   Ds2
 BYTE   W12
//  #03 //063   ----------------------------------------
 BYTE   An2
 BYTE   W12
 BYTE   N32  Cs3
 BYTE   W36
 BYTE   Fs2
 BYTE   W02
 BYTE   As2
 BYTE   W02
 BYTE   N30  Ds3
 BYTE   W32
 BYTE   N32  Fn2
 BYTE   W02
 BYTE   Gs2
 BYTE   W02
 BYTE   N30  Cn3
 BYTE   W32
//  #03 //064   ----------------------------------------
 BYTE   N11  As1
 BYTE   W12
 BYTE   Fn2
 BYTE   W12
 BYTE   Gs2
 BYTE   W12
 BYTE   Ds3
 BYTE   W12
 BYTE   Gs2
 BYTE   W12
 BYTE   Fn2
 BYTE   W12
//  #03 //065   ----------------------------------------
 BYTE   PATT
  POIN2 Label_01160951
//  #03 //066   ----------------------------------------
 BYTE   GoTo
  POIN2 Label_01160959
//  #03 //067   ----------------------------------------
 BYTE   W24
Label_01160BA4:
 BYTE   N11  Fs1  v080
 BYTE   W12
 BYTE   Cs2
 BYTE   W12
 BYTE   Fn2
 BYTE   W12
 BYTE   N32  As2
 BYTE   W36
 BYTE   PEND 
//  #03 //068   ----------------------------------------
 BYTE   N11  Fn1
 BYTE   W12
 BYTE   Ds2
 BYTE   W12
 BYTE   Gs2
 BYTE   W12
 BYTE   N32  Cn3
 BYTE   W36
 BYTE   N11  Ds2
 BYTE   W12
 BYTE   Gs2
 BYTE   W12
//  #03 //069   ----------------------------------------
 BYTE   Cn3
 BYTE   W12
 BYTE   N32  Fn3
 BYTE   W36
 BYTE   N11  Fn2
 BYTE   W12
 BYTE   Gs2
 BYTE   W12
 BYTE   Cn3
 BYTE   W12
 BYTE   N32  Fn3
 BYTE   W36
//  #03 //070   ----------------------------------------
 BYTE   PATT
  POIN2 Label_01160BA4
//  #03 //071   ----------------------------------------
 BYTE   N11  As1  v080
 BYTE   W12
 BYTE   Fn2
 BYTE   W12
 BYTE   Gs2
 BYTE   W12
 BYTE   N32  Cn3
 BYTE   W36
 BYTE   N11  Cn2
 BYTE   W12
 BYTE   Fs2
 BYTE   W12
//  #03 //072   ----------------------------------------
 BYTE   As2
 BYTE   W12
 BYTE   N32  Ds3
 BYTE   W36
 BYTE   Fn2
 BYTE   N02  As2
 BYTE   N04  Cs3
 BYTE   W02
 BYTE   N32  As2
 BYTE   W02
 BYTE   N30  Cs3
 BYTE   W32
 BYTE   N32  Cn3
 BYTE   W36
//  #03 //073   ----------------------------------------
 BYTE   N11  Fs1  v096
 BYTE   W12
 BYTE   Cs2
 BYTE   W12
 BYTE   Fs2
 BYTE   W12
 BYTE   N32  As2
 BYTE   W36
 BYTE   N11  Fn1
 BYTE   W12
 BYTE   Ds2
 BYTE   W12
//  #03 //074   ----------------------------------------
 BYTE   Gs2
 BYTE   W12
 BYTE   N32  Cn3
 BYTE   W36
 BYTE   N11  Ds2
 BYTE   W12
 BYTE   Gs2
 BYTE   W12
 BYTE   Cn3
 BYTE   W12
 BYTE   Gs1
 BYTE   W12
//  #03 //075   ----------------------------------------
 BYTE   Fn2
 BYTE   W12
 BYTE   Gs2
 BYTE   W12
//  #03 //076   ----------------------------------------
 BYTE   PATT
  POIN2 Label_011609D5
//  #03 //077   ----------------------------------------
 BYTE   PATT
  POIN2 Label_011609E1
//  #03 //078   ----------------------------------------
 BYTE   PATT
  POIN2 Label_011609ED
//  #03 //079   ----------------------------------------
 BYTE   W72
//  #03 //080   ----------------------------------------
 BYTE   PATT
  POIN2 Label_01160A00
//  #03 //081   ----------------------------------------
 BYTE   PATT
  POIN2 Label_01160A0F
//  #03 //082   ----------------------------------------
 BYTE   PATT
  POIN2 Label_01160A1E
//  #03 //083   ----------------------------------------
 BYTE   PATT
  POIN2 Label_01160A2C
//  #03 //084   ----------------------------------------
 BYTE   PATT
  POIN2 Label_01160A3A
//  #03 //085   ----------------------------------------
 BYTE   PATT
  POIN2 Label_01160A48
//  #03 //086   ----------------------------------------
 BYTE   PATT
  POIN2 Label_01160A48
//  #03 //087   ----------------------------------------
 BYTE   PATT
  POIN2 Label_01160A5B
//  #03 //088   ----------------------------------------
 BYTE   W72
 BYTE   W72
//  #03 //089   ----------------------------------------
 BYTE   W72
 BYTE   W72
//  #03 //090   ----------------------------------------
 BYTE   PATT
  POIN2 Label_01160A6D
//  #03 //091   ----------------------------------------
 BYTE   PATT
  POIN2 Label_01160A79
//  #03 //092   ----------------------------------------
 BYTE   PATT
  POIN2 Label_01160A85
//  #03 //093   ----------------------------------------
 BYTE   PATT
  POIN2 Label_01160A91
//  #03 //094   ----------------------------------------
 BYTE   W72
 BYTE   W72
//  #03 //095   ----------------------------------------
 BYTE   W72
 BYTE   W72
//  #03 //096   ----------------------------------------
 BYTE   W72
 BYTE   W72
//  #03 //097   ----------------------------------------
 BYTE   W72
 BYTE   W72
//  #03 //098   ----------------------------------------
 BYTE   PATT
  POIN2 Label_01160AA5
//  #03 //099   ----------------------------------------
 BYTE   PATT
  POIN2 Label_01160A0F
//  #03 //100   ----------------------------------------
 BYTE   PATT
  POIN2 Label_01160A1E
//  #03 //101   ----------------------------------------
 BYTE   PATT
  POIN2 Label_01160A2C
//  #03 //102   ----------------------------------------
 BYTE   PATT
  POIN2 Label_01160A3A
//  #03 //103   ----------------------------------------
 BYTE   PATT
  POIN2 Label_01160A48
//  #03 //104   ----------------------------------------
 BYTE   PATT
  POIN2 Label_01160A48
//  #03 //105   ----------------------------------------
 BYTE   PATT
  POIN2 Label_01160A5B
//  #03 //106   ----------------------------------------
 BYTE   PATT
  POIN2 Label_01160A48
//  #03 //107   ----------------------------------------
 BYTE   PATT
  POIN2 Label_01160A5B
//  #03 //108   ----------------------------------------
 BYTE   PATT
  POIN2 Label_01160A48
//  #03 //109   ----------------------------------------
 BYTE   PATT
  POIN2 Label_01160A5B
//  #03 //110   ----------------------------------------
 BYTE   PATT
  POIN2 Label_01160AEB
//  #03 //111   ----------------------------------------
 BYTE   N68  Gs3  v096
 BYTE   W68
 BYTE   W03
 BYTE   FINE

//**************** Track 4 (Midi-Chn.3) ****************//

FireEmblemEngageEnjoytheEveningDivineOneSurfingKyogre1_004:
//  #04 //000   ----------------------------------------
 BYTE   KEYSH   FireEmblemEngageEnjoytheEveningDivineOneSurfingKyogre1_key+0
 BYTE   VOICE   10
 BYTE   VOL   27*FireEmblemEngageEnjoytheEveningDivineOneSurfingKyogre1_mvl/mxv
 BYTE   PAN   c_v+0
 BYTE   VOL   27*FireEmblemEngageEnjoytheEveningDivineOneSurfingKyogre1_mvl/mxv
 BYTE   PAN   c_v+0
 BYTE   W96
//  #04 //001   ----------------------------------------
 BYTE   W96
//  #04 //002   ----------------------------------------
Label_011302C2:
 BYTE   W24
 BYTE   N11  Gs5  v052
 BYTE   W72
 BYTE   PEND 
//  #04 //003   ----------------------------------------
Label_011302C8:
 BYTE   W72
 BYTE   N11  Gs5  v052
 BYTE   W24
 BYTE   PEND 
//  #04 //004   ----------------------------------------
 BYTE   W96
//  #04 //005   ----------------------------------------
 BYTE   W24
 BYTE   N11
 BYTE   W36
 BYTE   Ds5
 BYTE   W36
//  #04 //006   ----------------------------------------
 BYTE   PATT
  POIN2 Label_011302C8
//  #04 //007   ----------------------------------------
 BYTE   W96
//  #04 //008   ----------------------------------------
 BYTE   PATT
  POIN2 Label_011302C2
//  #04 //009   ----------------------------------------
 BYTE   PATT
  POIN2 Label_011302C8
//  #04 //010   ----------------------------------------
 BYTE   W96
//  #04 //011   ----------------------------------------
 BYTE   W96
//  #04 //012   ----------------------------------------
Label_011302E6:
 BYTE   N11  Gs5  v052
 BYTE   W36
 BYTE   Cs5
 BYTE   W12
 BYTE   PEND 
Label_011302ED:
 BYTE   W24
 BYTE   N11  Ds5  v052
 BYTE   W24
//  #04 //013   ----------------------------------------
 BYTE   W96
//  #04 //014   ----------------------------------------
 BYTE   W96
//  #04 //015   ----------------------------------------
 BYTE   PATT
  POIN2 Label_011302C8
//  #04 //016   ----------------------------------------
 BYTE   W96
//  #04 //017   ----------------------------------------
 BYTE   W96
//  #04 //018   ----------------------------------------
 BYTE   W96
//  #04 //019   ----------------------------------------
 BYTE   W96
//  #04 //020   ----------------------------------------
 BYTE   W96
//  #04 //021   ----------------------------------------
 BYTE   W72
 BYTE   W96
//  #04 //022   ----------------------------------------
 BYTE   W12
 BYTE   W96
//  #04 //023   ----------------------------------------
 BYTE   W12
Label_01130303:
 BYTE   N11  Fn4  v052
 BYTE   W36
 BYTE   Gs4
 BYTE   W36
 BYTE   PEND 
Label_0113030A:
 BYTE   N11  Cs5  v052
 BYTE   W72
 BYTE   PEND 
//  #04 //024   ----------------------------------------
 BYTE   W72
 BYTE   W72
//  #04 //025   ----------------------------------------
 BYTE   W72
 BYTE   W72
//  #04 //026   ----------------------------------------
 BYTE   W72
 BYTE   W72
//  #04 //027   ----------------------------------------
 BYTE   W72
 BYTE   W72
//  #04 //028   ----------------------------------------
Label_01130317:
 BYTE   W36
 BYTE   N11  Gs4  v052
 BYTE   W36
 BYTE   PEND 
Label_0113031D:
 BYTE   N11  Gs5  v052
 BYTE   W72
 BYTE   PEND 
//  #04 //029   ----------------------------------------
 BYTE   W72
 BYTE   W72
//  #04 //030   ----------------------------------------
 BYTE   PATT
  POIN2 Label_01130317
//  #04 //031   ----------------------------------------
 BYTE   PATT
  POIN2 Label_0113031D
//  #04 //032   ----------------------------------------
 BYTE   W72
 BYTE   W72
//  #04 //033   ----------------------------------------
 BYTE   W72
 BYTE   W72
//  #04 //034   ----------------------------------------
 BYTE   W72
 BYTE   W72
//  #04 //035   ----------------------------------------
 BYTE   W72
Label_01130335:
 BYTE   N11  Ds5  v052
 BYTE   W72
 BYTE   PEND 
//  #04 //036   ----------------------------------------
Label_0113033A:
 BYTE   W36
 BYTE   N11  Gs5  v052
 BYTE   W36
 BYTE   PEND 
 BYTE   W72
//  #04 //037   ----------------------------------------
 BYTE   PATT
  POIN2 Label_01130317
//  #04 //038   ----------------------------------------
 BYTE   PATT
  POIN2 Label_0113031D
//  #04 //039   ----------------------------------------
 BYTE   W72
//  #04 //040   ----------------------------------------
 BYTE   PATT
  POIN2 Label_01130317
//  #04 //041   ----------------------------------------
 BYTE   PATT
  POIN2 Label_0113031D
//  #04 //042   ----------------------------------------
Label_01130356:
 BYTE   N11  Fn5  v052
 BYTE   W72
 BYTE   PEND 
//  #04 //043   ----------------------------------------
 BYTE   PATT
  POIN2 Label_01130317
//  #04 //044   ----------------------------------------
 BYTE   PATT
  POIN2 Label_0113031D
//  #04 //045   ----------------------------------------
 BYTE   W72
 BYTE   W72
//  #04 //046   ----------------------------------------
 BYTE   W72
//  #04 //047   ----------------------------------------
 BYTE   PATT
  POIN2 Label_01130317
//  #04 //048   ----------------------------------------
 BYTE   PATT
  POIN2 Label_0113031D
//  #04 //049   ----------------------------------------
 BYTE   W72
 BYTE   W72
//  #04 //050   ----------------------------------------
 BYTE   W72
//  #04 //051   ----------------------------------------
 BYTE   PATT
  POIN2 Label_0113031D
//  #04 //052   ----------------------------------------
 BYTE   W72
//  #04 //053   ----------------------------------------
 BYTE   PATT
  POIN2 Label_0113031D
//  #04 //054   ----------------------------------------
 BYTE   W72
 BYTE   N11  Gs5  v052
 BYTE   W36
//  #04 //055   ----------------------------------------
 BYTE   Ds5
 BYTE   W36
 BYTE   W72
//  #04 //056   ----------------------------------------
 BYTE   PATT
  POIN2 Label_0113031D
//  #04 //057   ----------------------------------------
 BYTE   W72
//  #04 //058   ----------------------------------------
 BYTE   PATT
  POIN2 Label_0113031D
//  #04 //059   ----------------------------------------
 BYTE   W72
//  #04 //060   ----------------------------------------
 BYTE   PATT
  POIN2 Label_0113031D
//  #04 //061   ----------------------------------------
 BYTE   W72
 BYTE   W72
//  #04 //062   ----------------------------------------
 BYTE   PATT
  POIN2 Label_011302E6
//  #04 //063   ----------------------------------------
 BYTE   GoTo
  POIN2 Label_011302ED
//  #04 //064   ----------------------------------------
 BYTE   W24
//  #04 //065   ----------------------------------------
 BYTE   PATT
  POIN2 Label_01130335
//  #04 //066   ----------------------------------------
 BYTE   W72
 BYTE   W72
//  #04 //067   ----------------------------------------
 BYTE   W72
//  #04 //068   ----------------------------------------
 BYTE   PATT
  POIN2 Label_0113031D
//  #04 //069   ----------------------------------------
 BYTE   W72
 BYTE   W72
//  #04 //070   ----------------------------------------
 BYTE   W72
 BYTE   W72
//  #04 //071   ----------------------------------------
 BYTE   W72
 BYTE   W72
//  #04 //072   ----------------------------------------
 BYTE   W72
 BYTE   W96
//  #04 //073   ----------------------------------------
 BYTE   W12
 BYTE   W96
//  #04 //074   ----------------------------------------
 BYTE   W12
//  #04 //075   ----------------------------------------
 BYTE   PATT
  POIN2 Label_01130303
//  #04 //076   ----------------------------------------
 BYTE   PATT
  POIN2 Label_0113030A
//  #04 //077   ----------------------------------------
 BYTE   W72
 BYTE   W72
//  #04 //078   ----------------------------------------
 BYTE   W72
 BYTE   W72
//  #04 //079   ----------------------------------------
 BYTE   W72
 BYTE   W72
//  #04 //080   ----------------------------------------
 BYTE   W72
 BYTE   W72
//  #04 //081   ----------------------------------------
 BYTE   PATT
  POIN2 Label_01130317
//  #04 //082   ----------------------------------------
 BYTE   PATT
  POIN2 Label_0113031D
//  #04 //083   ----------------------------------------
 BYTE   W72
 BYTE   W72
//  #04 //084   ----------------------------------------
 BYTE   PATT
  POIN2 Label_01130317
//  #04 //085   ----------------------------------------
 BYTE   PATT
  POIN2 Label_0113031D
//  #04 //086   ----------------------------------------
 BYTE   W72
 BYTE   W72
//  #04 //087   ----------------------------------------
 BYTE   W72
 BYTE   W72
//  #04 //088   ----------------------------------------
 BYTE   W72
 BYTE   W72
//  #04 //089   ----------------------------------------
 BYTE   W72
//  #04 //090   ----------------------------------------
 BYTE   PATT
  POIN2 Label_01130335
//  #04 //091   ----------------------------------------
 BYTE   PATT
  POIN2 Label_0113033A
//  #04 //092   ----------------------------------------
 BYTE   W72
//  #04 //093   ----------------------------------------
 BYTE   PATT
  POIN2 Label_01130317
//  #04 //094   ----------------------------------------
 BYTE   PATT
  POIN2 Label_0113031D
//  #04 //095   ----------------------------------------
 BYTE   W72
//  #04 //096   ----------------------------------------
 BYTE   PATT
  POIN2 Label_01130317
//  #04 //097   ----------------------------------------
 BYTE   PATT
  POIN2 Label_0113031D
//  #04 //098   ----------------------------------------
 BYTE   PATT
  POIN2 Label_01130356
//  #04 //099   ----------------------------------------
 BYTE   PATT
  POIN2 Label_01130317
//  #04 //100   ----------------------------------------
 BYTE   PATT
  POIN2 Label_0113031D
//  #04 //101   ----------------------------------------
 BYTE   W72
 BYTE   W72
//  #04 //102   ----------------------------------------
 BYTE   W72
//  #04 //103   ----------------------------------------
 BYTE   PATT
  POIN2 Label_01130317
//  #04 //104   ----------------------------------------
 BYTE   N11  Gs5  v052
 BYTE   W68
 BYTE   W03
 BYTE   FINE

//**************** Track 5 (Midi-Chn.4) ****************//

FireEmblemEngageEnjoytheEveningDivineOneSurfingKyogre1_005:
//  #05 //000   ----------------------------------------
 BYTE   KEYSH   FireEmblemEngageEnjoytheEveningDivineOneSurfingKyogre1_key+0
 BYTE   VOICE   40
 BYTE   PAN   c_v+3
 BYTE   VOL   42*FireEmblemEngageEnjoytheEveningDivineOneSurfingKyogre1_mvl/mxv
 BYTE   VOL   42*FireEmblemEngageEnjoytheEveningDivineOneSurfingKyogre1_mvl/mxv
 BYTE   W96
//  #05 //001   ----------------------------------------
 BYTE   W96
//  #05 //002   ----------------------------------------
 BYTE   W96
//  #05 //003   ----------------------------------------
 BYTE   W96
//  #05 //004   ----------------------------------------
 BYTE   W96
//  #05 //005   ----------------------------------------
 BYTE   W96
//  #05 //006   ----------------------------------------
 BYTE   W96
//  #05 //007   ----------------------------------------
 BYTE   W96
//  #05 //008   ----------------------------------------
 BYTE   W96
//  #05 //009   ----------------------------------------
 BYTE   W96
//  #05 //010   ----------------------------------------
 BYTE   W96
//  #05 //011   ----------------------------------------
 BYTE   W96
//  #05 //012   ----------------------------------------
 BYTE   W48
Label_0112B5BF:
 BYTE   W24
 BYTE   N17  As2  v080
 BYTE   W18
 BYTE   N05  Cn3
 BYTE   W06
//  #05 //013   ----------------------------------------
 BYTE   N11  Cs3
 BYTE   W12
 BYTE   N17  Ds3
 BYTE   W18
 BYTE   N05  Cs3
 BYTE   W06
 BYTE   N11  Ds3
 BYTE   W12
 BYTE   N32  Gs2
 BYTE   W36
 BYTE   Cn3
 BYTE   W12
//  #05 //014   ----------------------------------------
 BYTE   W24
 BYTE   Cs3
 BYTE   W36
 BYTE   N17  Fn3
 BYTE   W18
 BYTE   N05  Ds3
 BYTE   W06
 BYTE   N11  Cs3
 BYTE   W12
//  #05 //015   ----------------------------------------
 BYTE   N56  Fn3
 BYTE   W36
 BYTE   W36
 BYTE   N17
 BYTE   W18
 BYTE   N05  Fs3
 BYTE   W06
//  #05 //016   ----------------------------------------
 BYTE   N11  Gs3
 BYTE   W12
 BYTE   N52  Fn3
 BYTE   W36
 BYTE   W18
 BYTE   N05  Fs3
 BYTE   W06
 BYTE   N11  Gs3
 BYTE   W12
 BYTE   N17  Fn3
 BYTE   W12
//  #05 //017   ----------------------------------------
 BYTE   W06
 BYTE   N05  Ds3
 BYTE   W06
 BYTE   N11  Cs3
 BYTE   W12
 BYTE   N44  Ds3
 BYTE   W36
 BYTE   W12
 BYTE   N11  As2
 BYTE   W12
 BYTE   Ds3
 BYTE   W12
//  #05 //018   ----------------------------------------
 BYTE   N56  Fn3
 BYTE   W36
 BYTE   W60
//  #05 //019   ----------------------------------------
 BYTE   W96
//  #05 //020   ----------------------------------------
 BYTE   W96
//  #05 //021   ----------------------------------------
 BYTE   W72
 BYTE   W96
//  #05 //022   ----------------------------------------
 BYTE   W12
 BYTE   W96
//  #05 //023   ----------------------------------------
 BYTE   W12
Label_0112B618:
 BYTE   N32  Fn3  v080
 BYTE   W36
 BYTE   Gs3
 BYTE   W36
 BYTE   PEND 
Label_0112B61F:
 BYTE   N68  Cs4  v080
 BYTE   W72
 BYTE   PEND 
//  #05 //024   ----------------------------------------
Label_0112B624:
 BYTE   N32  Cn4  v080
 BYTE   W36
 BYTE   Ds3
 BYTE   W36
 BYTE   PEND 
Label_0112B62B:
 BYTE   N32  Gs3  v080
 BYTE   W36
//  #05 //025   ----------------------------------------
 BYTE   Ds3
 BYTE   W36
 BYTE   PEND 
Label_0112B632:
 BYTE   N32  Fn3  v080
 BYTE   W36
 BYTE   Cn3
 BYTE   W36
 BYTE   PEND 
//  #05 //026   ----------------------------------------
Label_0112B639:
 BYTE   TIE  As2  v080
 BYTE   W72
 BYTE   PEND 
Label_0112B63E:
 BYTE   W32
//  #05 //027   ----------------------------------------
 BYTE   W03
 BYTE   PEND 
 BYTE   EOT
 BYTE   As2
 BYTE   W01
 BYTE   N32  Fn3  v080
 BYTE   W36
Label_0112B648:
 BYTE   N32  Ds3  v080
 BYTE   W36
 BYTE   Gs2
 BYTE   W36
 BYTE   PEND 
//  #05 //028   ----------------------------------------
Label_0112B64F:
 BYTE   N32  Gs2  v080
 BYTE   W72
 BYTE   PEND 
 BYTE   W72
//  #05 //029   ----------------------------------------
 BYTE   W72
 BYTE   W72
//  #05 //030   ----------------------------------------
 BYTE   W72
Label_0112B658:
 BYTE   N68  Gs2  v064
 BYTE   W72
 BYTE   PEND 
//  #05 //031   ----------------------------------------
Label_0112B65D:
 BYTE   N68  As2  v064
 BYTE   W72
 BYTE   PEND 
Label_0112B662:
 BYTE   N68  Cn3  v064
 BYTE   W72
 BYTE   PEND 
//  #05 //032   ----------------------------------------
Label_0112B667:
 BYTE   N32  Cs3  v064
 BYTE   W36
 BYTE   Cs4
 BYTE   W36
 BYTE   PEND 
Label_0112B66E:
 BYTE   N56  Fs3  v080
 BYTE   W36
//  #05 //033   ----------------------------------------
 BYTE   W24
 BYTE   N11  En3
 BYTE   W12
 BYTE   PEND 
Label_0112B677:
 BYTE   N23  Fs3  v080
 BYTE   W24
 BYTE   N11  Gs3
 BYTE   W24
 BYTE   Bn2
 BYTE   W12
//  #05 //034   ----------------------------------------
 BYTE   Bn3
 BYTE   W12
 BYTE   PEND 
//  #05 //035   ----------------------------------------
 BYTE   PATT
  POIN2 Label_0112B66E
//  #05 //036   ----------------------------------------
Label_0112B688:
 BYTE   N23  Fs3  v080
 BYTE   W24
 BYTE   Gn3
 BYTE   W12
 BYTE   W12
 BYTE   An3
 BYTE   W24
 BYTE   PEND 
Label_0112B692:
 BYTE   TIE  Bn3  v080
 BYTE   W04
 BYTE   W05
 BYTE   W04
 BYTE   W05
 BYTE   W05
 BYTE   W04
//  #05 //037   ----------------------------------------
 BYTE   W05
 BYTE   W05
 BYTE   W04
 BYTE   W05
 BYTE   W05
 BYTE   W04
 BYTE   W05
 BYTE   W05
 BYTE   W04
 BYTE   W03
 BYTE   PEND 
Label_0112B6A6:
 BYTE   W02
 BYTE   W05
 BYTE   W04
 BYTE   W05
 BYTE   W04
 BYTE   W05
 BYTE   W05
 BYTE   W04
 BYTE   W05
 BYTE   W05
 BYTE   W04
 BYTE   W05
//  #05 //038   ----------------------------------------
 BYTE   W05
 BYTE   W04
 BYTE   W05
 BYTE   W04
 BYTE   PEND 
 BYTE   EOT
 BYTE   Bn3
 BYTE   W01
Label_0112B6BA:
 BYTE   TIE  Bn3  v052
 BYTE   W72
 BYTE   PEND 
Label_0112B6BF:
 BYTE   W32
//  #05 //039   ----------------------------------------
 BYTE   W03
 BYTE   PEND 
 BYTE   EOT
 BYTE   Bn3
 BYTE   W19
 BYTE   N05  Cs4  v052
 BYTE   W06
 BYTE   N11  Bn3
 BYTE   W12
Label_0112B6CC:
 BYTE   N32  Cs4  v052
 BYTE   W36
 BYTE   Ds4
 BYTE   W36
 BYTE   PEND 
//  #05 //040   ----------------------------------------
Label_0112B6D3:
 BYTE   N68  Gs3  v052
 BYTE   W72
 BYTE   PEND 
Label_0112B6D8:
 BYTE   W36
//  #05 //041   ----------------------------------------
 BYTE   N32  Fs3  v052
 BYTE   W36
 BYTE   PEND 
Label_0112B6DE:
 BYTE   N32  Gs3  v052
 BYTE   W36
 BYTE   Cn4
 BYTE   W36
 BYTE   PEND 
//  #05 //042   ----------------------------------------
Label_0112B6E5:
 BYTE   N92  As3  v052
 BYTE   W72
 BYTE   PEND 
Label_0112B6EA:
 BYTE   W36
//  #05 //043   ----------------------------------------
 BYTE   N32  Ds3  v052
 BYTE   W36
 BYTE   PEND 
Label_0112B6F0:
 BYTE   TIE  Fn3  v052
 BYTE   W72
 BYTE   PEND 
//  #05 //044   ----------------------------------------
Label_0112B6F5:
 BYTE   W68
 BYTE   W03
 BYTE   PEND 
 BYTE   EOT
 BYTE   Fn3
 BYTE   W01
Label_0112B6FB:
 BYTE   TIE  Cs3  v052
 BYTE   W72
 BYTE   PEND 
//  #05 //045   ----------------------------------------
 BYTE   PATT
  POIN2 Label_0112B6F5
//  #05 //046   ----------------------------------------
 BYTE   EOT
 BYTE   Cs3
 BYTE   W01
Label_0112B708:
 BYTE   N68  Gs2  v052
 BYTE   W72
 BYTE   PEND 
Label_0112B70D:
 BYTE   N32  Cs3  v052
 BYTE   W36
//  #05 //047   ----------------------------------------
 BYTE   Fn3
 BYTE   W36
 BYTE   PEND 
Label_0112B714:
 BYTE   N68  Fn3  v052
 BYTE   W72
 BYTE   PEND 
//  #05 //048   ----------------------------------------
 BYTE   W72
 BYTE   W72
//  #05 //049   ----------------------------------------
 BYTE   W72
 BYTE   W72
//  #05 //050   ----------------------------------------
 BYTE   W72
 BYTE   W72
//  #05 //051   ----------------------------------------
 BYTE   W72
 BYTE   W72
//  #05 //052   ----------------------------------------
 BYTE   W72
 BYTE   W72
//  #05 //053   ----------------------------------------
 BYTE   W72
 BYTE   W72
//  #05 //054   ----------------------------------------
 BYTE   W72
 BYTE   W72
//  #05 //055   ----------------------------------------
 BYTE   W72
 BYTE   W72
//  #05 //056   ----------------------------------------
 BYTE   W72
 BYTE   W48
//  #05 //057   ----------------------------------------
 BYTE   GoTo
  POIN2 Label_0112B5BF
//  #05 //058   ----------------------------------------
 BYTE   W24
 BYTE   N17  As2  v080
 BYTE   W18
 BYTE   N05  Cn3
 BYTE   W06
 BYTE   N11  Cs3
 BYTE   W12
 BYTE   N17  Ds3
 BYTE   W18
 BYTE   N05  Cs3
 BYTE   W06
 BYTE   N11  Ds3
 BYTE   W12
//  #05 //059   ----------------------------------------
 BYTE   N32  Gs2
 BYTE   W36
 BYTE   Cn3
 BYTE   W36
 BYTE   Cs3
 BYTE   W36
//  #05 //060   ----------------------------------------
 BYTE   N17  Fn3
 BYTE   W18
 BYTE   N05  Ds3
 BYTE   W06
 BYTE   N11  Cs3
 BYTE   W12
Label_0112B754:
 BYTE   N56  Fn3  v080
 BYTE   W36
 BYTE   W36
 BYTE   PEND 
//  #05 //061   ----------------------------------------
 BYTE   N17
 BYTE   W18
 BYTE   N05  Fs3
 BYTE   W06
 BYTE   N11  Gs3
 BYTE   W12
 BYTE   N52  Fn3
 BYTE   W36
 BYTE   W18
 BYTE   N05  Fs3
 BYTE   W06
//  #05 //062   ----------------------------------------
 BYTE   N11  Gs3
 BYTE   W12
 BYTE   N17  Fn3
 BYTE   W18
 BYTE   N05  Ds3
 BYTE   W06
 BYTE   N11  Cs3
 BYTE   W12
 BYTE   N44  Ds3
 BYTE   W36
 BYTE   W12
//  #05 //063   ----------------------------------------
 BYTE   N11  As2
 BYTE   W12
 BYTE   Ds3
 BYTE   W12
//  #05 //064   ----------------------------------------
 BYTE   PATT
  POIN2 Label_0112B754
//  #05 //065   ----------------------------------------
 BYTE   W72
 BYTE   W72
//  #05 //066   ----------------------------------------
 BYTE   W72
 BYTE   W72
//  #05 //067   ----------------------------------------
 BYTE   W96
//  #05 //068   ----------------------------------------
 BYTE   W12
 BYTE   W96
//  #05 //069   ----------------------------------------
 BYTE   W12
//  #05 //070   ----------------------------------------
 BYTE   PATT
  POIN2 Label_0112B618
//  #05 //071   ----------------------------------------
 BYTE   PATT
  POIN2 Label_0112B61F
//  #05 //072   ----------------------------------------
 BYTE   PATT
  POIN2 Label_0112B624
//  #05 //073   ----------------------------------------
 BYTE   PATT
  POIN2 Label_0112B62B
//  #05 //074   ----------------------------------------
 BYTE   PATT
  POIN2 Label_0112B632
//  #05 //075   ----------------------------------------
 BYTE   PATT
  POIN2 Label_0112B639
//  #05 //076   ----------------------------------------
 BYTE   PATT
  POIN2 Label_0112B63E
//  #05 //077   ----------------------------------------
 BYTE   EOT
 BYTE   As2
 BYTE   W01
 BYTE   N32  Fn3  v080
 BYTE   W36
//  #05 //078   ----------------------------------------
 BYTE   PATT
  POIN2 Label_0112B648
//  #05 //079   ----------------------------------------
 BYTE   PATT
  POIN2 Label_0112B64F
//  #05 //080   ----------------------------------------
 BYTE   W72
 BYTE   W72
//  #05 //081   ----------------------------------------
 BYTE   W72
 BYTE   W72
//  #05 //082   ----------------------------------------
 BYTE   PATT
  POIN2 Label_0112B658
//  #05 //083   ----------------------------------------
 BYTE   PATT
  POIN2 Label_0112B65D
//  #05 //084   ----------------------------------------
 BYTE   PATT
  POIN2 Label_0112B662
//  #05 //085   ----------------------------------------
 BYTE   PATT
  POIN2 Label_0112B667
//  #05 //086   ----------------------------------------
 BYTE   PATT
  POIN2 Label_0112B66E
//  #05 //087   ----------------------------------------
 BYTE   PATT
  POIN2 Label_0112B677
//  #05 //088   ----------------------------------------
 BYTE   PATT
  POIN2 Label_0112B66E
//  #05 //089   ----------------------------------------
 BYTE   PATT
  POIN2 Label_0112B688
//  #05 //090   ----------------------------------------
 BYTE   PATT
  POIN2 Label_0112B692
//  #05 //091   ----------------------------------------
 BYTE   PATT
  POIN2 Label_0112B6A6
//  #05 //092   ----------------------------------------
 BYTE   EOT
 BYTE   Bn3
 BYTE   W01
//  #05 //093   ----------------------------------------
 BYTE   PATT
  POIN2 Label_0112B6BA
//  #05 //094   ----------------------------------------
 BYTE   PATT
  POIN2 Label_0112B6BF
//  #05 //095   ----------------------------------------
 BYTE   EOT
 BYTE   Bn3
 BYTE   W19
 BYTE   N05  Cs4  v052
 BYTE   W06
 BYTE   N11  Bn3
 BYTE   W12
//  #05 //096   ----------------------------------------
 BYTE   PATT
  POIN2 Label_0112B6CC
//  #05 //097   ----------------------------------------
 BYTE   PATT
  POIN2 Label_0112B6D3
//  #05 //098   ----------------------------------------
 BYTE   PATT
  POIN2 Label_0112B6D8
//  #05 //099   ----------------------------------------
 BYTE   PATT
  POIN2 Label_0112B6DE
//  #05 //100   ----------------------------------------
 BYTE   PATT
  POIN2 Label_0112B6E5
//  #05 //101   ----------------------------------------
 BYTE   PATT
  POIN2 Label_0112B6EA
//  #05 //102   ----------------------------------------
 BYTE   PATT
  POIN2 Label_0112B6F0
//  #05 //103   ----------------------------------------
 BYTE   PATT
  POIN2 Label_0112B6F5
//  #05 //104   ----------------------------------------
 BYTE   EOT
 BYTE   Fn3
 BYTE   W01
//  #05 //105   ----------------------------------------
 BYTE   PATT
  POIN2 Label_0112B6FB
//  #05 //106   ----------------------------------------
 BYTE   PATT
  POIN2 Label_0112B6F5
//  #05 //107   ----------------------------------------
 BYTE   EOT
 BYTE   Cs3
 BYTE   W01
//  #05 //108   ----------------------------------------
 BYTE   PATT
  POIN2 Label_0112B708
//  #05 //109   ----------------------------------------
 BYTE   PATT
  POIN2 Label_0112B70D
//  #05 //110   ----------------------------------------
 BYTE   PATT
  POIN2 Label_0112B714
//  #05 //111   ----------------------------------------
 BYTE   W68
 BYTE   W03
 BYTE   FINE

//**************** Track 6 (Midi-Chn.5) ****************//

FireEmblemEngageEnjoytheEveningDivineOneSurfingKyogre1_006:
//  #06 //000   ----------------------------------------
 BYTE   KEYSH   FireEmblemEngageEnjoytheEveningDivineOneSurfingKyogre1_key+0
 BYTE   VOICE   79
 BYTE   VOL   42*FireEmblemEngageEnjoytheEveningDivineOneSurfingKyogre1_mvl/mxv
 BYTE   PAN   c_v+0
 BYTE   W96
//  #06 //001   ----------------------------------------
 BYTE   W96
//  #06 //002   ----------------------------------------
 BYTE   W96
//  #06 //003   ----------------------------------------
 BYTE   W96
//  #06 //004   ----------------------------------------
 BYTE   W96
//  #06 //005   ----------------------------------------
 BYTE   W96
//  #06 //006   ----------------------------------------
 BYTE   W96
//  #06 //007   ----------------------------------------
 BYTE   W12
 BYTE   N32  Cs5  v052
 BYTE   W36
 BYTE   TIE  Ds5
 BYTE   W48
//  #06 //008   ----------------------------------------
 BYTE   W24
 BYTE   W32
 BYTE   W03
 BYTE   EOT
 BYTE   W01
 BYTE   N32  Fn5
 BYTE   W36
//  #06 //009   ----------------------------------------
 BYTE   N68  As4
 BYTE   W72
 BYTE   Cs5
 BYTE   W24
//  #06 //010   ----------------------------------------
 BYTE   W48
 BYTE   N32  Ds5
 BYTE   W36
 BYTE   Gs4
 BYTE   W12
//  #06 //011   ----------------------------------------
 BYTE   W24
 BYTE   TIE  As4
 BYTE   W72
//  #06 //012   ----------------------------------------
Label_01131436:
 BYTE   W32
 BYTE   W03
 BYTE   PEND 
 BYTE   EOT
 BYTE   As4
 BYTE   W13
Label_0113143C:
 BYTE   W48
//  #06 //013   ----------------------------------------
 BYTE   W96
//  #06 //014   ----------------------------------------
 BYTE   W96
//  #06 //015   ----------------------------------------
 BYTE   W96
//  #06 //016   ----------------------------------------
 BYTE   W96
//  #06 //017   ----------------------------------------
 BYTE   W96
//  #06 //018   ----------------------------------------
 BYTE   W96
//  #06 //019   ----------------------------------------
 BYTE   W96
//  #06 //020   ----------------------------------------
 BYTE   W96
//  #06 //021   ----------------------------------------
 BYTE   W72
 BYTE   W96
//  #06 //022   ----------------------------------------
 BYTE   W12
 BYTE   W96
//  #06 //023   ----------------------------------------
 BYTE   W12
Label_0113144A:
 BYTE   N32  Fn4  v064
 BYTE   W36
 BYTE   Gs4
 BYTE   W36
 BYTE   PEND 
Label_01131451:
 BYTE   N68  Cs5  v064
 BYTE   W72
 BYTE   PEND 
//  #06 //024   ----------------------------------------
Label_01131456:
 BYTE   N32  Cn5  v064
 BYTE   W36
 BYTE   Ds4
 BYTE   W36
 BYTE   PEND 
Label_0113145D:
 BYTE   N32  Gs4  v064
 BYTE   W36
//  #06 //025   ----------------------------------------
 BYTE   Ds4
 BYTE   W36
 BYTE   PEND 
Label_01131464:
 BYTE   N32  Fn4  v064
 BYTE   W36
 BYTE   Cn4
 BYTE   W36
 BYTE   PEND 
//  #06 //026   ----------------------------------------
Label_0113146B:
 BYTE   TIE  As3  v064
 BYTE   W72
 BYTE   PEND 
Label_01131470:
 BYTE   W32
//  #06 //027   ----------------------------------------
 BYTE   W03
 BYTE   PEND 
 BYTE   EOT
 BYTE   As3
 BYTE   W01
 BYTE   N32  Fn4  v064
 BYTE   W36
Label_0113147A:
 BYTE   N32  Ds4  v064
 BYTE   W36
 BYTE   Gs3
 BYTE   W36
 BYTE   PEND 
//  #06 //028   ----------------------------------------
Label_01131481:
 BYTE   N32  Gs3  v064
 BYTE   W72
 BYTE   PEND 
 BYTE   W72
//  #06 //029   ----------------------------------------
 BYTE   W72
 BYTE   W72
//  #06 //030   ----------------------------------------
 BYTE   W72
 BYTE   W72
//  #06 //031   ----------------------------------------
 BYTE   W72
 BYTE   W72
//  #06 //032   ----------------------------------------
 BYTE   W72
 BYTE   W72
//  #06 //033   ----------------------------------------
 BYTE   W72
Label_01131490:
 BYTE   W36
//  #06 //034   ----------------------------------------
 BYTE   N17  Bn4  v080
 BYTE   W18
 BYTE   N05  Cn5
 BYTE   W06
 BYTE   N11  Dn5
 BYTE   W12
 BYTE   PEND 
Label_0113149C:
 BYTE   N32  Bn4  v080
 BYTE   W36
 BYTE   En5
 BYTE   W36
 BYTE   PEND 
//  #06 //035   ----------------------------------------
Label_011314A3:
 BYTE   TIE  Ds5  v080
 BYTE   W04
 BYTE   W05
 BYTE   W04
 BYTE   W05
 BYTE   W05
 BYTE   W04
 BYTE   W05
 BYTE   W04
 BYTE   W05
 BYTE   W05
 BYTE   W04
 BYTE   W05
 BYTE   W04
 BYTE   W05
 BYTE   W04
 BYTE   W04
 BYTE   PEND 
Label_011314B7:
 BYTE   W01
 BYTE   W05
 BYTE   W04
 BYTE   W05
 BYTE   W04
 BYTE   W05
//  #06 //036   ----------------------------------------
 BYTE   W05
 BYTE   W04
 BYTE   W05
 BYTE   W04
 BYTE   W05
 BYTE   W05
 BYTE   W04
 BYTE   W05
 BYTE   W04
 BYTE   W05
 BYTE   W02
 BYTE   PEND 
Label_011314C9:
 BYTE   W03
 BYTE   W04
 BYTE   W05
 BYTE   W04
 BYTE   W05
 BYTE   W05
 BYTE   W04
 BYTE   W05
 BYTE   W04
 BYTE   W05
 BYTE   W05
//  #06 //037   ----------------------------------------
 BYTE   W04
 BYTE   W05
 BYTE   W04
 BYTE   W05
 BYTE   W05
 BYTE   PEND 
Label_011314DA:
 BYTE   W32
 BYTE   W03
 BYTE   PEND 
 BYTE   EOT
 BYTE   Ds5
 BYTE   W19
 BYTE   N05  Cs5  v052
 BYTE   W06
 BYTE   N11  Bn4
 BYTE   W12
Label_011314E7:
 BYTE   N32  Cs5  v052
 BYTE   W36
//  #06 //038   ----------------------------------------
 BYTE   Ds5
 BYTE   W36
 BYTE   PEND 
Label_011314EE:
 BYTE   N68  Gs4  v052
 BYTE   W72
 BYTE   PEND 
//  #06 //039   ----------------------------------------
Label_011314F3:
 BYTE   W36
 BYTE   N32  Fs4  v052
 BYTE   W36
 BYTE   PEND 
Label_011314F9:
 BYTE   N32  Gs4  v052
 BYTE   W36
//  #06 //040   ----------------------------------------
 BYTE   Cn5
 BYTE   W36
 BYTE   PEND 
Label_01131500:
 BYTE   N92  As4  v052
 BYTE   W72
 BYTE   PEND 
//  #06 //041   ----------------------------------------
Label_01131505:
 BYTE   W36
 BYTE   N32  Ds4  v052
 BYTE   W36
 BYTE   PEND 
Label_0113150B:
 BYTE   TIE  Fn4  v052
 BYTE   W72
 BYTE   PEND 
//  #06 //042   ----------------------------------------
Label_01131510:
 BYTE   W68
 BYTE   W03
 BYTE   PEND 
 BYTE   EOT
 BYTE   Fn4
 BYTE   W01
 BYTE   W72
//  #06 //043   ----------------------------------------
 BYTE   W72
 BYTE   W72
//  #06 //044   ----------------------------------------
 BYTE   W72
 BYTE   W72
//  #06 //045   ----------------------------------------
 BYTE   W72
 BYTE   W72
//  #06 //046   ----------------------------------------
 BYTE   W72
 BYTE   W72
//  #06 //047   ----------------------------------------
 BYTE   W72
 BYTE   W72
//  #06 //048   ----------------------------------------
 BYTE   W72
 BYTE   W72
//  #06 //049   ----------------------------------------
 BYTE   W72
 BYTE   W72
//  #06 //050   ----------------------------------------
 BYTE   W36
 BYTE   N32  Cs5  v052
 BYTE   W36
 BYTE   TIE  Ds5
 BYTE   W72
//  #06 //051   ----------------------------------------
 BYTE   PATT
  POIN2 Label_01131436
//  #06 //052   ----------------------------------------
 BYTE   EOT
 BYTE   Ds5
 BYTE   W01
 BYTE   N32  Fn5  v052
 BYTE   W36
 BYTE   N68  As4
 BYTE   W72
//  #06 //053   ----------------------------------------
 BYTE   Cs5
 BYTE   W72
 BYTE   N32  Ds5
 BYTE   W36
//  #06 //054   ----------------------------------------
 BYTE   Gs4
 BYTE   W36
 BYTE   TIE  As4
 BYTE   W72
//  #06 //055   ----------------------------------------
 BYTE   PATT
  POIN2 Label_01131436
//  #06 //056   ----------------------------------------
 BYTE   EOT
 BYTE   As4
 BYTE   W13
 BYTE   GoTo
  POIN2 Label_0113143C
//  #06 //057   ----------------------------------------
 BYTE   W24
 BYTE   W72
//  #06 //058   ----------------------------------------
 BYTE   W72
 BYTE   W72
//  #06 //059   ----------------------------------------
 BYTE   W72
 BYTE   W72
//  #06 //060   ----------------------------------------
 BYTE   W72
 BYTE   W72
//  #06 //061   ----------------------------------------
 BYTE   W72
 BYTE   W72
//  #06 //062   ----------------------------------------
 BYTE   W72
 BYTE   W72
//  #06 //063   ----------------------------------------
 BYTE   W72
 BYTE   W96
//  #06 //064   ----------------------------------------
 BYTE   W12
 BYTE   W96
//  #06 //065   ----------------------------------------
 BYTE   W12
//  #06 //066   ----------------------------------------
 BYTE   PATT
  POIN2 Label_0113144A
//  #06 //067   ----------------------------------------
 BYTE   PATT
  POIN2 Label_01131451
//  #06 //068   ----------------------------------------
 BYTE   PATT
  POIN2 Label_01131456
//  #06 //069   ----------------------------------------
 BYTE   PATT
  POIN2 Label_0113145D
//  #06 //070   ----------------------------------------
 BYTE   PATT
  POIN2 Label_01131464
//  #06 //071   ----------------------------------------
 BYTE   PATT
  POIN2 Label_0113146B
//  #06 //072   ----------------------------------------
 BYTE   PATT
  POIN2 Label_01131470
//  #06 //073   ----------------------------------------
 BYTE   EOT
 BYTE   As3
 BYTE   W01
 BYTE   N32  Fn4  v064
 BYTE   W36
//  #06 //074   ----------------------------------------
 BYTE   PATT
  POIN2 Label_0113147A
//  #06 //075   ----------------------------------------
 BYTE   PATT
  POIN2 Label_01131481
//  #06 //076   ----------------------------------------
 BYTE   W72
 BYTE   W72
//  #06 //077   ----------------------------------------
 BYTE   W72
 BYTE   W72
//  #06 //078   ----------------------------------------
 BYTE   W72
 BYTE   W72
//  #06 //079   ----------------------------------------
 BYTE   W72
 BYTE   W72
//  #06 //080   ----------------------------------------
 BYTE   W72
 BYTE   W72
//  #06 //081   ----------------------------------------
 BYTE   PATT
  POIN2 Label_01131490
//  #06 //082   ----------------------------------------
 BYTE   PATT
  POIN2 Label_0113149C
//  #06 //083   ----------------------------------------
 BYTE   PATT
  POIN2 Label_011314A3
//  #06 //084   ----------------------------------------
 BYTE   PATT
  POIN2 Label_011314B7
//  #06 //085   ----------------------------------------
 BYTE   PATT
  POIN2 Label_011314C9
//  #06 //086   ----------------------------------------
 BYTE   PATT
  POIN2 Label_011314DA
//  #06 //087   ----------------------------------------
 BYTE   EOT
 BYTE   Ds5
 BYTE   W19
 BYTE   N05  Cs5  v052
 BYTE   W06
 BYTE   N11  Bn4
 BYTE   W12
//  #06 //088   ----------------------------------------
 BYTE   PATT
  POIN2 Label_011314E7
//  #06 //089   ----------------------------------------
 BYTE   PATT
  POIN2 Label_011314EE
//  #06 //090   ----------------------------------------
 BYTE   PATT
  POIN2 Label_011314F3
//  #06 //091   ----------------------------------------
 BYTE   PATT
  POIN2 Label_011314F9
//  #06 //092   ----------------------------------------
 BYTE   PATT
  POIN2 Label_01131500
//  #06 //093   ----------------------------------------
 BYTE   PATT
  POIN2 Label_01131505
//  #06 //094   ----------------------------------------
 BYTE   PATT
  POIN2 Label_0113150B
//  #06 //095   ----------------------------------------
 BYTE   PATT
  POIN2 Label_01131510
//  #06 //096   ----------------------------------------
 BYTE   EOT
 BYTE   Fn4
 BYTE   W01
 BYTE   W72
 BYTE   W72
//  #06 //097   ----------------------------------------
 BYTE   W72
 BYTE   W72
//  #06 //098   ----------------------------------------
 BYTE   W72
 BYTE   W68
//  #06 //099   ----------------------------------------
 BYTE   W03
 BYTE   FINE

//**************** Track 7 (Midi-Chn.6) ****************//

FireEmblemEngageEnjoytheEveningDivineOneSurfingKyogre1_007:
//  #07 //000   ----------------------------------------
 BYTE   KEYSH   FireEmblemEngageEnjoytheEveningDivineOneSurfingKyogre1_key+0
 BYTE   VOICE   49
 BYTE   PAN   c_v-2
 BYTE   VOL   32*FireEmblemEngageEnjoytheEveningDivineOneSurfingKyogre1_mvl/mxv
 BYTE   VOL   32*FireEmblemEngageEnjoytheEveningDivineOneSurfingKyogre1_mvl/mxv
 BYTE   N68  Gs2  v080
 BYTE   W72
 BYTE   As2
 BYTE   W24
//  #07 //001   ----------------------------------------
 BYTE   W48
 BYTE   Cn3
 BYTE   W48
//  #07 //002   ----------------------------------------
 BYTE   W24
 BYTE   N32
 BYTE   W36
 BYTE   Gs2
 BYTE   W36
//  #07 //003   ----------------------------------------
 BYTE   N32
 BYTE   W11
 BYTE   W11
 BYTE   W11
 BYTE   W03
 BYTE   As2  v084
 BYTE   W09
 BYTE   W11
 BYTE   W11
 BYTE   W05
 BYTE   As2  v088
 BYTE   W06
 BYTE   W12
 BYTE   W06
//  #07 //004   ----------------------------------------
 BYTE   W05
 BYTE   W07
 BYTE   Cn3  v092
 BYTE   W04
 BYTE   W11
 BYTE   W12
 BYTE   W09
 BYTE   N32
 BYTE   W02
 BYTE   W11
 BYTE   W11
 BYTE   W12
 BYTE   Cs3  v096
 BYTE   W06
 BYTE   W06
//  #07 //005   ----------------------------------------
 BYTE   W01
 BYTE   W07
 BYTE   W07
 BYTE   W06
 BYTE   W03
 BYTE   Cs3  v092
 BYTE   W04
 BYTE   W07
 BYTE   W07
 BYTE   W06
 BYTE   W07
 BYTE   W05
 BYTE   Cn3  v088
 BYTE   W02
 BYTE   W07
 BYTE   W06
 BYTE   W07
 BYTE   W07
 BYTE   W07
//  #07 //006   ----------------------------------------
 BYTE   N68  As2  v080
 BYTE   W09
 BYTE   W09
 BYTE   W09
 BYTE   W09
 BYTE   W09
 BYTE   W09
 BYTE   W09
 BYTE   W09
 BYTE   N32  Cn3  v088
 BYTE   W09
 BYTE   W09
 BYTE   W06
//  #07 //007   ----------------------------------------
 BYTE   W03
 BYTE   W09
 BYTE   Fn3  v092
 BYTE   W09
 BYTE   W09
 BYTE   W09
 BYTE   W09
 BYTE   TIE  Fs3  v096
 BYTE   W48
//  #07 //008   ----------------------------------------
Label_0113166B:
 BYTE   W24
 BYTE   W32
 BYTE   W03
 BYTE   PEND 
 BYTE   EOT
 BYTE   Fs3
 BYTE   W01
 BYTE   N32  Fn3  v096
 BYTE   W06
 BYTE   W07
 BYTE   W07
 BYTE   W07
 BYTE   W06
 BYTE   W03
//  #07 //009   ----------------------------------------
 BYTE   Fn3  v092
 BYTE   W04
 BYTE   W07
 BYTE   W07
 BYTE   W06
 BYTE   W07
 BYTE   W05
 BYTE   Cs3  v088
 BYTE   W02
 BYTE   W07
 BYTE   W06
 BYTE   W07
 BYTE   W07
 BYTE   W07
 BYTE   TIE  Ds3  v080
 BYTE   W24
//  #07 //010   ----------------------------------------
 BYTE   W48
 BYTE   W48
//  #07 //011   ----------------------------------------
 BYTE   W24
 BYTE   W68
 BYTE   W03
 BYTE   EOT
 BYTE   W01
//  #07 //012   ----------------------------------------
Label_01131696:
 BYTE   N32  Cs3  v080
 BYTE   W48
 BYTE   PEND 
Label_0113169B:
 BYTE   N05  Cs4  v112
 BYTE   W06
 BYTE   Ds4
 BYTE   W06
 BYTE   Fn4
 BYTE   W06
 BYTE   Fs4
 BYTE   W06
 BYTE   N68  Gs4
 BYTE   W24
//  #07 //013   ----------------------------------------
 BYTE   W48
 BYTE   N23
 BYTE   W24
 BYTE   N11  As4
 BYTE   W12
 BYTE   N52  Cn5
 BYTE   W12
//  #07 //014   ----------------------------------------
 BYTE   W24
 BYTE   W18
 BYTE   N05  Cs5
 BYTE   W06
 BYTE   N11  Ds5
 BYTE   W12
 BYTE   N52  Cn5
 BYTE   W36
//  #07 //015   ----------------------------------------
 BYTE   W18
 BYTE   N05  As4
 BYTE   W06
 BYTE   N11  Gs4
 BYTE   W12
 BYTE   N32  Cn5
 BYTE   W36
 BYTE   N68  Fn4
 BYTE   W24
//  #07 //016   ----------------------------------------
 BYTE   W48
 BYTE   N32  As4
 BYTE   W36
 BYTE   Fn5
 BYTE   W12
//  #07 //017   ----------------------------------------
 BYTE   W24
 BYTE   N44  Ds5
 BYTE   W36
 BYTE   W12
 BYTE   N11  As4
 BYTE   W12
 BYTE   Ds5
 BYTE   W12
//  #07 //018   ----------------------------------------
 BYTE   N68  Fn5
 BYTE   W96
//  #07 //019   ----------------------------------------
 BYTE   W48
 BYTE   TIE  Gs3  v096
 BYTE   W48
//  #07 //020   ----------------------------------------
 BYTE   PATT
  POIN2 Label_0113166B
//  #07 //021   ----------------------------------------
 BYTE   EOT
 BYTE   Gs3
 BYTE   W01
 BYTE   N32  Fn3  v096
 BYTE   W36
Label_011316ED:
 BYTE   N32  Cn3  v096
 BYTE   W72
 BYTE   PEND 
//  #07 //022   ----------------------------------------
Label_011316F2:
 BYTE   W36
 BYTE   N32  As2  v096
 BYTE   W36
 BYTE   Fn3
 BYTE   W36
 BYTE   PEND 
//  #07 //023   ----------------------------------------
Label_011316FA:
 BYTE   N68  En3  v096
 BYTE   W96
//  #07 //024   ----------------------------------------
 BYTE   W12
 BYTE   PEND 
 BYTE   W72
Label_01131701:
 BYTE   N68  Cs3  v080
 BYTE   W72
 BYTE   PEND 
//  #07 //025   ----------------------------------------
Label_01131706:
 BYTE   N68  Ds3  v080
 BYTE   W72
 BYTE   PEND 
Label_0113170B:
 BYTE   W36
//  #07 //026   ----------------------------------------
 BYTE   N32  Cs3  v080
 BYTE   W06
 BYTE   W07
 BYTE   W07
 BYTE   W07
 BYTE   W06
 BYTE   W03
 BYTE   PEND 
Label_01131716:
 BYTE   N32  Ds3  v088
 BYTE   W04
 BYTE   W07
 BYTE   W07
 BYTE   W06
 BYTE   W07
 BYTE   W05
 BYTE   Gs3  v092
 BYTE   W02
 BYTE   W07
 BYTE   W06
 BYTE   W07
 BYTE   W07
//  #07 //027   ----------------------------------------
 BYTE   W07
 BYTE   PEND 
Label_01131728:
 BYTE   N32  Fn3  v096
 BYTE   W36
 BYTE   Fs3
 BYTE   W36
 BYTE   PEND 
Label_0113172F:
 BYTE   TIE  Fn3  v096
 BYTE   W72
 BYTE   PEND 
//  #07 //028   ----------------------------------------
Label_01131734:
 BYTE   W01
 BYTE   W01
 BYTE   W01
 BYTE   W01
 BYTE   W01
 BYTE   W01
 BYTE   W01
 BYTE   W01
 BYTE   W01
 BYTE   W01
 BYTE   W01
 BYTE   W01
 BYTE   W01
 BYTE   W01
 BYTE   W01
 BYTE   W01
 BYTE   W01
 BYTE   W01
 BYTE   W01
 BYTE   W01
 BYTE   W01
 BYTE   W01
 BYTE   W01
 BYTE   W01
 BYTE   W01
 BYTE   W01
 BYTE   W01
 BYTE   W01
 BYTE   W01
 BYTE   W01
 BYTE   W01
 BYTE   W01
 BYTE   W01
 BYTE   W01
 BYTE   W01
 BYTE   PEND 
 BYTE   EOT
 BYTE   Fn3
 BYTE   W01
 BYTE   W36
Label_0113175C:
 BYTE   N32  Gs2  v096
 BYTE   W36
//  #07 //029   ----------------------------------------
 BYTE   Gs3
 BYTE   W36
 BYTE   PEND 
Label_01131763:
 BYTE   N56  Ds3  v096
 BYTE   W36
 BYTE   W24
//  #07 //030   ----------------------------------------
 BYTE   N11  Cs3
 BYTE   W12
 BYTE   PEND 
Label_0113176C:
 BYTE   N23  Ds3  v096
 BYTE   W24
 BYTE   N32  Fn3
 BYTE   W12
 BYTE   W36
 BYTE   PEND 
//  #07 //031   ----------------------------------------
 BYTE   PATT
  POIN2 Label_01131763
//  #07 //032   ----------------------------------------
 BYTE   PATT
  POIN2 Label_0113176C
//  #07 //033   ----------------------------------------
Label_0113177F:
 BYTE   N23  Ds3  v096
 BYTE   W24
 BYTE   N11  Cs3
 BYTE   W12
 BYTE   N23  Ds3
 BYTE   W24
 BYTE   N11  Fn3
 BYTE   W12
 BYTE   PEND 
Label_0113178D:
 BYTE   N11  Ds3  v096
 BYTE   W12
 BYTE   Cs3
 BYTE   W12
//  #07 //034   ----------------------------------------
 BYTE   N32  As2
 BYTE   W12
 BYTE   W36
 BYTE   PEND 
//  #07 //035   ----------------------------------------
 BYTE   PATT
  POIN2 Label_0113177F
//  #07 //036   ----------------------------------------
Label_0113179D:
 BYTE   N56  Gs3  v096
 BYTE   W36
 BYTE   W36
 BYTE   PEND 
Label_011317A3:
 BYTE   W12
 BYTE   N05  En3  v096
 BYTE   W06
 BYTE   Fs3
 BYTE   W06
//  #07 //037   ----------------------------------------
 BYTE   N11  En3
 BYTE   W12
 BYTE   N05  Bn3
 BYTE   W06
 BYTE   Cs4
 BYTE   W06
 BYTE   N11  Bn3
 BYTE   W12
 BYTE   En3
 BYTE   W12
 BYTE   PEND 
Label_011317B8:
 BYTE   W12
 BYTE   N05  En3  v096
 BYTE   W06
 BYTE   Fs3
 BYTE   W06
 BYTE   En3
 BYTE   W06
 BYTE   Bn3
 BYTE   W06
 BYTE   N11  En4
 BYTE   W12
//  #07 //038   ----------------------------------------
 BYTE   Bn3
 BYTE   W12
 BYTE   En3
 BYTE   W12
 BYTE   PEND 
//  #07 //039   ----------------------------------------
 BYTE   PATT
  POIN2 Label_011317A3
//  #07 //040   ----------------------------------------
 BYTE   PATT
  POIN2 Label_011317B8
//  #07 //041   ----------------------------------------
Label_011317D5:
 BYTE   TIE  Bn3  v080
 BYTE   W72
 BYTE   PEND 
Label_011317DA:
 BYTE   W68
//  #07 //042   ----------------------------------------
 BYTE   W03
 BYTE   PEND 
 BYTE   EOT
 BYTE   Bn3
 BYTE   W01
//  #07 //043   ----------------------------------------
 BYTE   PATT
  POIN2 Label_011317D5
//  #07 //044   ----------------------------------------
Label_011317E5:
 BYTE   W32
 BYTE   W03
 BYTE   PEND 
 BYTE   EOT
 BYTE   Bn3
 BYTE   W36
 BYTE   W01
Label_011317EC:
 BYTE   N32  Cs3  v096
 BYTE   W36
//  #07 //045   ----------------------------------------
 BYTE   Ds3
 BYTE   W36
 BYTE   PEND 
Label_011317F3:
 BYTE   N68  Gs2  v096
 BYTE   W72
 BYTE   PEND 
//  #07 //046   ----------------------------------------
Label_011317F8:
 BYTE   W36
 BYTE   N32  Cs3  v096
 BYTE   W36
 BYTE   PEND 
Label_011317FE:
 BYTE   N32  Ds3  v096
 BYTE   W36
//  #07 //047   ----------------------------------------
 BYTE   Gs3
 BYTE   W36
 BYTE   PEND 
//  #07 //048   ----------------------------------------
 BYTE   PATT
  POIN2 Label_01131728
//  #07 //049   ----------------------------------------
Label_0113180A:
 BYTE   N68  Fn3  v096
 BYTE   W72
 BYTE   PEND 
Label_0113180F:
 BYTE   TIE  Cs3  v096
 BYTE   W72
 BYTE   PEND 
//  #07 //050   ----------------------------------------
Label_01131814:
 BYTE   W68
 BYTE   W03
 BYTE   PEND 
 BYTE   EOT
 BYTE   Cs3
 BYTE   W01
//  #07 //051   ----------------------------------------
 BYTE   PATT
  POIN2 Label_0113180F
//  #07 //052   ----------------------------------------
Label_0113181F:
 BYTE   W32
 BYTE   W03
 BYTE   PEND 
 BYTE   EOT
 BYTE   Cs3
 BYTE   W36
 BYTE   W01
//  #07 //053   ----------------------------------------
 BYTE   PATT
  POIN2 Label_011317F3
//  #07 //054   ----------------------------------------
Label_0113182B:
 BYTE   N32  Cs3  v096
 BYTE   W36
 BYTE   Fn3
 BYTE   W36
 BYTE   PEND 
//  #07 //055   ----------------------------------------
 BYTE   PATT
  POIN2 Label_0113180A
//  #07 //056   ----------------------------------------
 BYTE   W72
 BYTE   N68  Gs2  v080
 BYTE   W72
//  #07 //057   ----------------------------------------
 BYTE   As2
 BYTE   W72
 BYTE   Cn3
 BYTE   W72
//  #07 //058   ----------------------------------------
 BYTE   N32
 BYTE   W36
 BYTE   Gs2
 BYTE   W36
 BYTE   N32
 BYTE   W11
 BYTE   W11
 BYTE   W11
//  #07 //059   ----------------------------------------
 BYTE   W03
 BYTE   As2  v084
 BYTE   W09
 BYTE   W11
 BYTE   W11
 BYTE   W05
 BYTE   As2  v088
 BYTE   W06
 BYTE   W12
 BYTE   W11
 BYTE   W07
 BYTE   Cn3  v092
 BYTE   W04
 BYTE   W11
 BYTE   W12
//  #07 //060   ----------------------------------------
 BYTE   W09
 BYTE   N32
 BYTE   W02
 BYTE   W11
 BYTE   W11
 BYTE   W12
 BYTE   Cs3  v096
 BYTE   W06
 BYTE   W07
 BYTE   W07
 BYTE   W07
 BYTE   W06
 BYTE   W03
 BYTE   Cs3  v092
 BYTE   W04
 BYTE   W07
 BYTE   W07
//  #07 //061   ----------------------------------------
 BYTE   W06
 BYTE   W07
 BYTE   W05
 BYTE   Cn3  v088
 BYTE   W02
 BYTE   W07
 BYTE   W06
 BYTE   W07
 BYTE   W07
 BYTE   W07
 BYTE   N68  As2  v080
 BYTE   W09
 BYTE   W09
 BYTE   W09
 BYTE   W09
 BYTE   W09
//  #07 //062   ----------------------------------------
 BYTE   W09
 BYTE   W09
 BYTE   W09
 BYTE   N32  Cn3  v088
 BYTE   W09
 BYTE   W09
 BYTE   W09
 BYTE   W09
 BYTE   Fn3  v092
 BYTE   W09
 BYTE   W09
 BYTE   W09
 BYTE   W09
//  #07 //063   ----------------------------------------
 BYTE   TIE  Fs3  v096
 BYTE   W72
//  #07 //064   ----------------------------------------
 BYTE   PATT
  POIN2 Label_0113181F
//  #07 //065   ----------------------------------------
 BYTE   EOT
 BYTE   Fs3
 BYTE   W01
 BYTE   N32  Fn3  v096
 BYTE   W06
 BYTE   W07
 BYTE   W07
 BYTE   W07
 BYTE   W06
 BYTE   W03
 BYTE   Fn3  v092
 BYTE   W04
 BYTE   W07
 BYTE   W07
 BYTE   W06
 BYTE   W07
 BYTE   W05
 BYTE   Cs3  v088
 BYTE   W02
 BYTE   W07
 BYTE   W06
 BYTE   W07
 BYTE   W07
//  #07 //066   ----------------------------------------
 BYTE   W07
 BYTE   TIE  Ds3  v080
 BYTE   W72
 BYTE   W72
//  #07 //067   ----------------------------------------
 BYTE   PATT
  POIN2 Label_011317DA
//  #07 //068   ----------------------------------------
 BYTE   EOT
 BYTE   Ds3
 BYTE   W01
//  #07 //069   ----------------------------------------
 BYTE   PATT
  POIN2 Label_01131696
//  #07 //070   ----------------------------------------
 BYTE   GoTo
  POIN2 Label_0113169B
//  #07 //071   ----------------------------------------
 BYTE   N05  Cs4  v112
 BYTE   W06
 BYTE   Ds4
 BYTE   W06
 BYTE   Fn4
 BYTE   W06
 BYTE   Fs4
 BYTE   W06
 BYTE   N68  Gs4
 BYTE   W72
//  #07 //072   ----------------------------------------
 BYTE   N23
 BYTE   W24
 BYTE   N11  As4
 BYTE   W12
 BYTE   N52  Cn5
 BYTE   W36
 BYTE   W18
 BYTE   N05  Cs5
 BYTE   W06
//  #07 //073   ----------------------------------------
 BYTE   N11  Ds5
 BYTE   W12
 BYTE   N52  Cn5
 BYTE   W36
 BYTE   W18
 BYTE   N05  As4
 BYTE   W06
 BYTE   N11  Gs4
 BYTE   W12
 BYTE   N32  Cn5
 BYTE   W36
//  #07 //074   ----------------------------------------
 BYTE   N68  Fn4
 BYTE   W72
 BYTE   N32  As4
 BYTE   W36
//  #07 //075   ----------------------------------------
 BYTE   Fn5
 BYTE   W36
 BYTE   N44  Ds5
 BYTE   W36
 BYTE   W12
 BYTE   N11  As4
 BYTE   W12
//  #07 //076   ----------------------------------------
 BYTE   Ds5
 BYTE   W12
 BYTE   N68  Fn5
 BYTE   W72
 BYTE   W72
//  #07 //077   ----------------------------------------
 BYTE   TIE  Gs3  v096
 BYTE   W72
//  #07 //078   ----------------------------------------
 BYTE   PATT
  POIN2 Label_0113181F
//  #07 //079   ----------------------------------------
 BYTE   EOT
 BYTE   Gs3
 BYTE   W01
 BYTE   N32  Fn3  v096
 BYTE   W36
//  #07 //080   ----------------------------------------
 BYTE   PATT
  POIN2 Label_011316ED
//  #07 //081   ----------------------------------------
 BYTE   PATT
  POIN2 Label_011316F2
//  #07 //082   ----------------------------------------
 BYTE   PATT
  POIN2 Label_011316FA
//  #07 //083   ----------------------------------------
 BYTE   W72
//  #07 //084   ----------------------------------------
 BYTE   PATT
  POIN2 Label_01131701
//  #07 //085   ----------------------------------------
 BYTE   PATT
  POIN2 Label_01131706
//  #07 //086   ----------------------------------------
 BYTE   PATT
  POIN2 Label_0113170B
//  #07 //087   ----------------------------------------
 BYTE   PATT
  POIN2 Label_01131716
//  #07 //088   ----------------------------------------
 BYTE   PATT
  POIN2 Label_01131728
//  #07 //089   ----------------------------------------
 BYTE   PATT
  POIN2 Label_0113172F
//  #07 //090   ----------------------------------------
 BYTE   PATT
  POIN2 Label_01131734
//  #07 //091   ----------------------------------------
 BYTE   EOT
 BYTE   Fn3
 BYTE   W01
 BYTE   W36
//  #07 //092   ----------------------------------------
 BYTE   PATT
  POIN2 Label_0113175C
//  #07 //093   ----------------------------------------
 BYTE   PATT
  POIN2 Label_01131763
//  #07 //094   ----------------------------------------
 BYTE   PATT
  POIN2 Label_0113176C
//  #07 //095   ----------------------------------------
 BYTE   PATT
  POIN2 Label_01131763
//  #07 //096   ----------------------------------------
 BYTE   PATT
  POIN2 Label_0113176C
//  #07 //097   ----------------------------------------
 BYTE   PATT
  POIN2 Label_0113177F
//  #07 //098   ----------------------------------------
 BYTE   PATT
  POIN2 Label_0113178D
//  #07 //099   ----------------------------------------
 BYTE   PATT
  POIN2 Label_0113177F
//  #07 //100   ----------------------------------------
 BYTE   PATT
  POIN2 Label_0113179D
//  #07 //101   ----------------------------------------
 BYTE   PATT
  POIN2 Label_011317A3
//  #07 //102   ----------------------------------------
 BYTE   PATT
  POIN2 Label_011317B8
//  #07 //103   ----------------------------------------
 BYTE   PATT
  POIN2 Label_011317A3
//  #07 //104   ----------------------------------------
 BYTE   PATT
  POIN2 Label_011317B8
//  #07 //105   ----------------------------------------
 BYTE   PATT
  POIN2 Label_011317D5
//  #07 //106   ----------------------------------------
 BYTE   PATT
  POIN2 Label_011317DA
//  #07 //107   ----------------------------------------
 BYTE   EOT
 BYTE   Bn3
 BYTE   W01
//  #07 //108   ----------------------------------------
 BYTE   PATT
  POIN2 Label_011317D5
//  #07 //109   ----------------------------------------
 BYTE   PATT
  POIN2 Label_011317E5
//  #07 //110   ----------------------------------------
 BYTE   EOT
 BYTE   Bn3
 BYTE   W36
 BYTE   W01
//  #07 //111   ----------------------------------------
 BYTE   PATT
  POIN2 Label_011317EC
//  #07 //112   ----------------------------------------
 BYTE   PATT
  POIN2 Label_011317F3
//  #07 //113   ----------------------------------------
 BYTE   PATT
  POIN2 Label_011317F8
//  #07 //114   ----------------------------------------
 BYTE   PATT
  POIN2 Label_011317FE
//  #07 //115   ----------------------------------------
 BYTE   PATT
  POIN2 Label_01131728
//  #07 //116   ----------------------------------------
 BYTE   PATT
  POIN2 Label_0113180A
//  #07 //117   ----------------------------------------
 BYTE   PATT
  POIN2 Label_0113180F
//  #07 //118   ----------------------------------------
 BYTE   PATT
  POIN2 Label_01131814
//  #07 //119   ----------------------------------------
 BYTE   EOT
 BYTE   Cs3
 BYTE   W01
//  #07 //120   ----------------------------------------
 BYTE   PATT
  POIN2 Label_0113180F
//  #07 //121   ----------------------------------------
 BYTE   PATT
  POIN2 Label_0113181F
//  #07 //122   ----------------------------------------
 BYTE   EOT
 BYTE   Cs3
 BYTE   W36
 BYTE   W01
//  #07 //123   ----------------------------------------
 BYTE   PATT
  POIN2 Label_011317F3
//  #07 //124   ----------------------------------------
 BYTE   PATT
  POIN2 Label_0113182B
//  #07 //125   ----------------------------------------
 BYTE   PATT
  POIN2 Label_0113180A
//  #07 //126   ----------------------------------------
 BYTE   W68
 BYTE   W03
 BYTE   FINE

//**************** Track 8 (Midi-Chn.7) ****************//

FireEmblemEngageEnjoytheEveningDivineOneSurfingKyogre1_008:
//  #08 //000   ----------------------------------------
 BYTE   KEYSH   FireEmblemEngageEnjoytheEveningDivineOneSurfingKyogre1_key+0
 BYTE   VOICE   45
 BYTE   VOL   42*FireEmblemEngageEnjoytheEveningDivineOneSurfingKyogre1_mvl/mxv
 BYTE   PAN   c_v+0
 BYTE   VOL   42*FireEmblemEngageEnjoytheEveningDivineOneSurfingKyogre1_mvl/mxv
 BYTE   PAN   c_v+0
 BYTE   N68  Gs2  v064
 BYTE   W72
 BYTE   As2
 BYTE   W24
//  #08 //001   ----------------------------------------
 BYTE   W48
 BYTE   Cn3
 BYTE   W48
//  #08 //002   ----------------------------------------
 BYTE   W24
 BYTE   N32
 BYTE   W36
 BYTE   Gs2
 BYTE   W36
//  #08 //003   ----------------------------------------
 BYTE   N32
 BYTE   W36
 BYTE   As2
 BYTE   W36
 BYTE   N32
 BYTE   W24
//  #08 //004   ----------------------------------------
 BYTE   W12
 BYTE   Cn3
 BYTE   W36
 BYTE   N32
 BYTE   W36
 BYTE   Cs3
 BYTE   W12
//  #08 //005   ----------------------------------------
 BYTE   W24
 BYTE   N32
 BYTE   W36
 BYTE   Cn3
 BYTE   W36
//  #08 //006   ----------------------------------------
 BYTE   N68  As2  v080
 BYTE   W09
 BYTE   W09
 BYTE   W09
 BYTE   W09
 BYTE   W09
 BYTE   W09
 BYTE   W09
 BYTE   W09
 BYTE   N32  Cn3  v088
 BYTE   W09
 BYTE   W09
 BYTE   W06
//  #08 //007   ----------------------------------------
 BYTE   W03
 BYTE   W09
 BYTE   Fn3  v092
 BYTE   W09
 BYTE   W09
 BYTE   W09
 BYTE   W09
 BYTE   TIE  Fs3  v096
 BYTE   W48
//  #08 //008   ----------------------------------------
 BYTE   W24
 BYTE   W32
 BYTE   W03
 BYTE   EOT
 BYTE   W01
 BYTE   N32  Fn3
 BYTE   W06
 BYTE   W07
 BYTE   W07
 BYTE   W07
 BYTE   W06
 BYTE   W03
//  #08 //009   ----------------------------------------
 BYTE   Fn3  v092
 BYTE   W04
 BYTE   W07
 BYTE   W07
 BYTE   W06
 BYTE   W07
 BYTE   W05
 BYTE   Cs3  v088
 BYTE   W02
 BYTE   W07
 BYTE   W06
 BYTE   W07
 BYTE   W07
 BYTE   W07
 BYTE   TIE  Ds3  v080
 BYTE   W24
//  #08 //010   ----------------------------------------
 BYTE   W48
 BYTE   W48
//  #08 //011   ----------------------------------------
 BYTE   W24
 BYTE   W68
 BYTE   W03
 BYTE   EOT
 BYTE   W01
//  #08 //012   ----------------------------------------
Label_01162CFD:
 BYTE   N32  Cs3  v080
 BYTE   W48
 BYTE   PEND 
Label_01162D02:
 BYTE   W24
 BYTE   N68  As2  v096
 BYTE   W24
//  #08 //013   ----------------------------------------
 BYTE   W48
 BYTE   Cn3
 BYTE   W48
//  #08 //014   ----------------------------------------
 BYTE   W24
 BYTE   N32  Cs3
 BYTE   W36
 BYTE   Cn3
 BYTE   W36
//  #08 //015   ----------------------------------------
 BYTE   N68
 BYTE   W72
 BYTE   Cs3
 BYTE   W24
//  #08 //016   ----------------------------------------
 BYTE   W48
 BYTE   N32  Ds3
 BYTE   W36
 BYTE   Cs3
 BYTE   W12
//  #08 //017   ----------------------------------------
 BYTE   W24
 BYTE   N68  Cn3
 BYTE   W72
//  #08 //018   ----------------------------------------
 BYTE   An2
 BYTE   W96
//  #08 //019   ----------------------------------------
 BYTE   W48
 BYTE   Fn3
 BYTE   W48
//  #08 //020   ----------------------------------------
 BYTE   W24
 BYTE   N17  Cs3
 BYTE   W18
 BYTE   N05  Ds3
 BYTE   W06
 BYTE   N11  Fn3
 BYTE   W12
 BYTE   N32  Cn3
 BYTE   W36
//  #08 //021   ----------------------------------------
Label_01162D30:
 BYTE   N32  Gs2  v096
 BYTE   W72
 BYTE   PEND 
Label_01162D35:
 BYTE   W72
//  #08 //022   ----------------------------------------
 BYTE   N32  Cs3  v096
 BYTE   W36
 BYTE   PEND 
Label_01162D3B:
 BYTE   N68  Cs3  v096
 BYTE   W96
//  #08 //023   ----------------------------------------
 BYTE   W12
 BYTE   PEND 
 BYTE   W72
Label_01162D42:
 BYTE   N68  Cs3  v080
 BYTE   W72
 BYTE   PEND 
//  #08 //024   ----------------------------------------
Label_01162D47:
 BYTE   N68  Ds3  v080
 BYTE   W72
 BYTE   PEND 
Label_01162D4C:
 BYTE   W36
//  #08 //025   ----------------------------------------
 BYTE   N32  As2  v080
 BYTE   W06
 BYTE   W07
 BYTE   W07
 BYTE   W07
 BYTE   W06
 BYTE   W03
 BYTE   PEND 
Label_01162D57:
 BYTE   N32  Cn3  v088
 BYTE   W04
 BYTE   W07
 BYTE   W07
 BYTE   W06
 BYTE   W07
 BYTE   W05
 BYTE   Fn3  v092
 BYTE   W02
 BYTE   W07
 BYTE   W06
 BYTE   W07
 BYTE   W07
//  #08 //026   ----------------------------------------
 BYTE   W07
 BYTE   PEND 
Label_01162D69:
 BYTE   N32  Ds3  v096
 BYTE   W36
 BYTE   N32
 BYTE   W36
 BYTE   PEND 
Label_01162D70:
 BYTE   N68  Fn3  v096
 BYTE   W72
 BYTE   PEND 
//  #08 //027   ----------------------------------------
Label_01162D75:
 BYTE   N32  Cs3  v096
 BYTE   W36
 BYTE   N11  Gs3  v127
 BYTE   W12
 BYTE   Cs4
 BYTE   W12
 BYTE   Cn4
 BYTE   W12
 BYTE   PEND 
Label_01162D82:
 BYTE   N11  Gs3  v127
 BYTE   W36
//  #08 //028   ----------------------------------------
 BYTE   Fn3
 BYTE   W36
 BYTE   PEND 
Label_01162D89:
 BYTE   N56  Ds3  v127
 BYTE   W36
 BYTE   W24
//  #08 //029   ----------------------------------------
 BYTE   N11  Cs3
 BYTE   W12
 BYTE   PEND 
Label_01162D92:
 BYTE   N23  Ds3  v127
 BYTE   W24
 BYTE   N32  Fn3
 BYTE   W12
 BYTE   W36
 BYTE   PEND 
//  #08 //030   ----------------------------------------
 BYTE   PATT
  POIN2 Label_01162D89
//  #08 //031   ----------------------------------------
 BYTE   PATT
  POIN2 Label_01162D92
//  #08 //032   ----------------------------------------
Label_01162DA5:
 BYTE   N23  Ds3  v127
 BYTE   W24
 BYTE   N11  Cs3
 BYTE   W12
 BYTE   N23  Ds3
 BYTE   W24
 BYTE   N11  Fn3
 BYTE   W12
 BYTE   PEND 
Label_01162DB3:
 BYTE   N11  Ds3  v127
 BYTE   W12
 BYTE   Cs3
 BYTE   W12
//  #08 //033   ----------------------------------------
 BYTE   N32  As2
 BYTE   W12
 BYTE   W36
 BYTE   PEND 
//  #08 //034   ----------------------------------------
 BYTE   PATT
  POIN2 Label_01162DA5
//  #08 //035   ----------------------------------------
Label_01162DC3:
 BYTE   N56  Gs3  v127
 BYTE   W36
 BYTE   W36
 BYTE   PEND 
Label_01162DC9:
 BYTE   W12
 BYTE   N05  En3  v096
 BYTE   W06
 BYTE   Fs3
 BYTE   W06
//  #08 //036   ----------------------------------------
 BYTE   N11  En3
 BYTE   W12
 BYTE   N05  Bn3
 BYTE   W06
 BYTE   Cs4
 BYTE   W06
 BYTE   N11  Bn3
 BYTE   W12
 BYTE   En3
 BYTE   W12
 BYTE   PEND 
Label_01162DDE:
 BYTE   W12
 BYTE   N05  En3  v096
 BYTE   W06
 BYTE   Fs3
 BYTE   W06
 BYTE   En3
 BYTE   W06
 BYTE   Bn3
 BYTE   W06
 BYTE   N11  En4
 BYTE   W12
//  #08 //037   ----------------------------------------
 BYTE   Bn3
 BYTE   W12
 BYTE   En3
 BYTE   W12
 BYTE   PEND 
//  #08 //038   ----------------------------------------
 BYTE   PATT
  POIN2 Label_01162DC9
//  #08 //039   ----------------------------------------
 BYTE   PATT
  POIN2 Label_01162DDE
//  #08 //040   ----------------------------------------
 BYTE   W72
Label_01162DFC:
 BYTE   N17  Ds4  v127
 BYTE   W18
 BYTE   N05  En4
 BYTE   W06
//  #08 //041   ----------------------------------------
 BYTE   N11  Fs4
 BYTE   W12
 BYTE   Ds4
 BYTE   W12
 BYTE   Bn3
 BYTE   W12
 BYTE   Gs3
 BYTE   W12
 BYTE   PEND 
Label_01162E0D:
 BYTE   N23  Ds4  v127
 BYTE   W72
 BYTE   PEND 
//  #08 //042   ----------------------------------------
Label_01162E12:
 BYTE   N17  Ds4  v127
 BYTE   W18
 BYTE   N05  En4
 BYTE   W06
 BYTE   N11  Fs4
 BYTE   W12
 BYTE   N23  Bn4
 BYTE   W36
 BYTE   PEND 
Label_01162E20:
 BYTE   N32  Cs3  v080
 BYTE   W36
//  #08 //043   ----------------------------------------
 BYTE   Ds3
 BYTE   W36
 BYTE   PEND 
Label_01162E27:
 BYTE   N68  Gs2  v080
 BYTE   W72
 BYTE   PEND 
//  #08 //044   ----------------------------------------
Label_01162E2C:
 BYTE   W36
 BYTE   N32  Cs3  v080
 BYTE   W36
 BYTE   PEND 
Label_01162E32:
 BYTE   N32  Ds3  v080
 BYTE   W36
//  #08 //045   ----------------------------------------
 BYTE   Gs2
 BYTE   W36
 BYTE   PEND 
//  #08 //046   ----------------------------------------
 BYTE   PATT
  POIN2 Label_01162D42
//  #08 //047   ----------------------------------------
 BYTE   PATT
  POIN2 Label_01162D42
//  #08 //048   ----------------------------------------
Label_01162E43:
 BYTE   TIE  Gs2  v080
 BYTE   W72
 BYTE   PEND 
Label_01162E48:
 BYTE   W68
//  #08 //049   ----------------------------------------
 BYTE   W03
 BYTE   PEND 
 BYTE   EOT
 BYTE   Gs2
 BYTE   W01
Label_01162E4E:
 BYTE   TIE  As2  v080
 BYTE   W72
 BYTE   PEND 
Label_01162E53:
 BYTE   W32
//  #08 //050   ----------------------------------------
 BYTE   W03
 BYTE   PEND 
 BYTE   EOT
 BYTE   As2
 BYTE   W01
 BYTE   N32  As2  v080
 BYTE   W36
Label_01162E5D:
 BYTE   N68  Gs2  v096
 BYTE   W72
 BYTE   PEND 
//  #08 //051   ----------------------------------------
Label_01162E62:
 BYTE   N32  Cs3  v096
 BYTE   W36
 BYTE   Fn3
 BYTE   W36
 BYTE   PEND 
//  #08 //052   ----------------------------------------
 BYTE   PATT
  POIN2 Label_01162D70
//  #08 //053   ----------------------------------------
 BYTE   W72
 BYTE   N68  Gs2  v064
 BYTE   W72
//  #08 //054   ----------------------------------------
 BYTE   As2
 BYTE   W72
 BYTE   Cn3
 BYTE   W72
//  #08 //055   ----------------------------------------
 BYTE   N32
 BYTE   W36
 BYTE   Gs2
 BYTE   W36
 BYTE   N32
 BYTE   W36
//  #08 //056   ----------------------------------------
 BYTE   As2
 BYTE   W36
 BYTE   N32
 BYTE   W36
 BYTE   Cn3
 BYTE   W36
//  #08 //057   ----------------------------------------
 BYTE   N32
 BYTE   W36
 BYTE   Cs3
 BYTE   W36
 BYTE   N32
 BYTE   W36
//  #08 //058   ----------------------------------------
 BYTE   Cn3
 BYTE   W36
 BYTE   N68  As2  v080
 BYTE   W09
 BYTE   W09
 BYTE   W09
 BYTE   W09
 BYTE   W09
 BYTE   W09
 BYTE   W09
//  #08 //059   ----------------------------------------
 BYTE   W09
 BYTE   N32  Cn3  v088
 BYTE   W09
 BYTE   W09
 BYTE   W09
 BYTE   W09
 BYTE   Fn3  v092
 BYTE   W09
 BYTE   W09
 BYTE   W09
 BYTE   W09
 BYTE   TIE  Fs3  v096
 BYTE   W72
//  #08 //060   ----------------------------------------
 BYTE   W32
 BYTE   W03
 BYTE   EOT
 BYTE   W01
 BYTE   N32  Fn3
 BYTE   W06
 BYTE   W07
 BYTE   W07
 BYTE   W07
 BYTE   W06
 BYTE   W03
 BYTE   Fn3  v092
 BYTE   W04
 BYTE   W07
 BYTE   W07
 BYTE   W06
//  #08 //061   ----------------------------------------
 BYTE   W07
 BYTE   W05
 BYTE   Cs3  v088
 BYTE   W02
 BYTE   W07
 BYTE   W06
 BYTE   W07
 BYTE   W07
 BYTE   W07
 BYTE   TIE  Ds3  v080
 BYTE   W72
//  #08 //062   ----------------------------------------
 BYTE   W72
//  #08 //063   ----------------------------------------
 BYTE   PATT
  POIN2 Label_01162E48
//  #08 //064   ----------------------------------------
 BYTE   EOT
 BYTE   Ds3
 BYTE   W01
//  #08 //065   ----------------------------------------
 BYTE   PATT
  POIN2 Label_01162CFD
//  #08 //066   ----------------------------------------
 BYTE   GoTo
  POIN2 Label_01162D02
//  #08 //067   ----------------------------------------
 BYTE   W24
 BYTE   N68  As2  v096
 BYTE   W72
//  #08 //068   ----------------------------------------
Label_01162EDF:
 BYTE   N68  Cn3  v096
 BYTE   W72
 BYTE   PEND 
 BYTE   N32  Cs3
 BYTE   W36
//  #08 //069   ----------------------------------------
 BYTE   Cn3
 BYTE   W36
//  #08 //070   ----------------------------------------
 BYTE   PATT
  POIN2 Label_01162EDF
//  #08 //071   ----------------------------------------
 BYTE   N68  Cs3  v096
 BYTE   W72
 BYTE   N32  Ds3
 BYTE   W36
//  #08 //072   ----------------------------------------
 BYTE   Cs3
 BYTE   W36
//  #08 //073   ----------------------------------------
 BYTE   PATT
  POIN2 Label_01162EDF
//  #08 //074   ----------------------------------------
 BYTE   N68  An2  v096
 BYTE   W72
 BYTE   W72
//  #08 //075   ----------------------------------------
 BYTE   PATT
  POIN2 Label_01162D70
//  #08 //076   ----------------------------------------
 BYTE   N17  Cs3  v096
 BYTE   W18
 BYTE   N05  Ds3
 BYTE   W06
 BYTE   N11  Fn3
 BYTE   W12
 BYTE   N32  Cn3
 BYTE   W36
//  #08 //077   ----------------------------------------
 BYTE   PATT
  POIN2 Label_01162D30
//  #08 //078   ----------------------------------------
 BYTE   PATT
  POIN2 Label_01162D35
//  #08 //079   ----------------------------------------
 BYTE   PATT
  POIN2 Label_01162D3B
//  #08 //080   ----------------------------------------
 BYTE   W72
//  #08 //081   ----------------------------------------
 BYTE   PATT
  POIN2 Label_01162D42
//  #08 //082   ----------------------------------------
 BYTE   PATT
  POIN2 Label_01162D47
//  #08 //083   ----------------------------------------
 BYTE   PATT
  POIN2 Label_01162D4C
//  #08 //084   ----------------------------------------
 BYTE   PATT
  POIN2 Label_01162D57
//  #08 //085   ----------------------------------------
 BYTE   PATT
  POIN2 Label_01162D69
//  #08 //086   ----------------------------------------
 BYTE   PATT
  POIN2 Label_01162D70
//  #08 //087   ----------------------------------------
 BYTE   PATT
  POIN2 Label_01162D75
//  #08 //088   ----------------------------------------
 BYTE   PATT
  POIN2 Label_01162D82
//  #08 //089   ----------------------------------------
 BYTE   PATT
  POIN2 Label_01162D89
//  #08 //090   ----------------------------------------
 BYTE   PATT
  POIN2 Label_01162D92
//  #08 //091   ----------------------------------------
 BYTE   PATT
  POIN2 Label_01162D89
//  #08 //092   ----------------------------------------
 BYTE   PATT
  POIN2 Label_01162D92
//  #08 //093   ----------------------------------------
 BYTE   PATT
  POIN2 Label_01162DA5
//  #08 //094   ----------------------------------------
 BYTE   PATT
  POIN2 Label_01162DB3
//  #08 //095   ----------------------------------------
 BYTE   PATT
  POIN2 Label_01162DA5
//  #08 //096   ----------------------------------------
 BYTE   PATT
  POIN2 Label_01162DC3
//  #08 //097   ----------------------------------------
 BYTE   PATT
  POIN2 Label_01162DC9
//  #08 //098   ----------------------------------------
 BYTE   PATT
  POIN2 Label_01162DDE
//  #08 //099   ----------------------------------------
 BYTE   PATT
  POIN2 Label_01162DC9
//  #08 //100   ----------------------------------------
 BYTE   PATT
  POIN2 Label_01162DDE
//  #08 //101   ----------------------------------------
 BYTE   W72
//  #08 //102   ----------------------------------------
 BYTE   PATT
  POIN2 Label_01162DFC
//  #08 //103   ----------------------------------------
 BYTE   PATT
  POIN2 Label_01162E0D
//  #08 //104   ----------------------------------------
 BYTE   PATT
  POIN2 Label_01162E12
//  #08 //105   ----------------------------------------
 BYTE   PATT
  POIN2 Label_01162E20
//  #08 //106   ----------------------------------------
 BYTE   PATT
  POIN2 Label_01162E27
//  #08 //107   ----------------------------------------
 BYTE   PATT
  POIN2 Label_01162E2C
//  #08 //108   ----------------------------------------
 BYTE   PATT
  POIN2 Label_01162E32
//  #08 //109   ----------------------------------------
 BYTE   PATT
  POIN2 Label_01162D42
//  #08 //110   ----------------------------------------
 BYTE   PATT
  POIN2 Label_01162D42
//  #08 //111   ----------------------------------------
 BYTE   PATT
  POIN2 Label_01162E43
//  #08 //112   ----------------------------------------
 BYTE   PATT
  POIN2 Label_01162E48
//  #08 //113   ----------------------------------------
 BYTE   EOT
 BYTE   Gs2
 BYTE   W01
//  #08 //114   ----------------------------------------
 BYTE   PATT
  POIN2 Label_01162E4E
//  #08 //115   ----------------------------------------
 BYTE   PATT
  POIN2 Label_01162E53
//  #08 //116   ----------------------------------------
 BYTE   EOT
 BYTE   As2
 BYTE   W01
 BYTE   N32  As2  v080
 BYTE   W36
//  #08 //117   ----------------------------------------
 BYTE   PATT
  POIN2 Label_01162E5D
//  #08 //118   ----------------------------------------
 BYTE   PATT
  POIN2 Label_01162E62
//  #08 //119   ----------------------------------------
 BYTE   PATT
  POIN2 Label_01162D70
//  #08 //120   ----------------------------------------
 BYTE   W68
 BYTE   W03
 BYTE   FINE

//**************** Track 9 (Midi-Chn.8) ****************//

FireEmblemEngageEnjoytheEveningDivineOneSurfingKyogre1_009:
//  #09 //000   ----------------------------------------
 BYTE   KEYSH   FireEmblemEngageEnjoytheEveningDivineOneSurfingKyogre1_key+0
 BYTE   VOICE   121
 BYTE   VOL   42*FireEmblemEngageEnjoytheEveningDivineOneSurfingKyogre1_mvl/mxv
 BYTE   PAN   c_v+0
 BYTE   VOL   42*FireEmblemEngageEnjoytheEveningDivineOneSurfingKyogre1_mvl/mxv
 BYTE   PAN   c_v+0
 BYTE   W96
//  #09 //001   ----------------------------------------
 BYTE   W96
//  #09 //002   ----------------------------------------
 BYTE   W96
//  #09 //003   ----------------------------------------
 BYTE   W96
//  #09 //004   ----------------------------------------
 BYTE   W96
//  #09 //005   ----------------------------------------
 BYTE   W96
//  #09 //006   ----------------------------------------
 BYTE   W96
//  #09 //007   ----------------------------------------
 BYTE   W96
//  #09 //008   ----------------------------------------
 BYTE   W96
//  #09 //009   ----------------------------------------
 BYTE   W96
//  #09 //010   ----------------------------------------
 BYTE   W96
//  #09 //011   ----------------------------------------
 BYTE   W96
//  #09 //012   ----------------------------------------
 BYTE   W48
Label_011613F5:
 BYTE   W06
 BYTE   N54  Dn1  v080
 BYTE   W06
 BYTE   N12  Bn0
 BYTE   W12
 BYTE   N72
 BYTE   W12
 BYTE   N12  Ds0  v052
 BYTE   W12
//  #09 //013   ----------------------------------------
Label_01161403:
 BYTE   N24  Ds0  v052
 BYTE   W12
 BYTE   N72  Dn1  v080
 BYTE   W12
 BYTE   N12  Ds0  v052
 BYTE   W12
 BYTE   N24
 BYTE   W12
 BYTE   N72  Bn0  v080
 BYTE   W12
 BYTE   N12  Ds0  v052
 BYTE   W12
 BYTE   N24
 BYTE   W12
 BYTE   N72  Dn1  v080
 BYTE   W12
 BYTE   PEND 
//  #09 //014   ----------------------------------------
Label_01161420:
 BYTE   N12  Ds0  v052
 BYTE   W12
 BYTE   N24
 BYTE   W12
 BYTE   N72  Bn0  v080
 BYTE   W12
 BYTE   N12  Ds0  v052
 BYTE   W12
 BYTE   N24
 BYTE   W12
 BYTE   N72  Dn1  v080
 BYTE   W12
 BYTE   N12  Ds0  v052
 BYTE   W12
 BYTE   N24
 BYTE   W12
 BYTE   PEND 
//  #09 //015   ----------------------------------------
 BYTE   Bn0  v080
 BYTE   W12
 BYTE   N12  Ds0  v052
 BYTE   W12
 BYTE   N24
 BYTE   N48  Bn0  v080
 BYTE   W12
 BYTE   N24  Dn1
 BYTE   W12
 BYTE   N12  Ds0  v052
 BYTE   W12
 BYTE   N24
 BYTE   N48  Dn1  v080
 BYTE   W12
 BYTE   N72  Bn0
 BYTE   W12
 BYTE   N12  Ds0  v052
 BYTE   W12
//  #09 //016   ----------------------------------------
 BYTE   PATT
  POIN2 Label_01161403
//  #09 //017   ----------------------------------------
 BYTE   PATT
  POIN2 Label_01161420
//  #09 //018   ----------------------------------------
 BYTE   N72  Bn0  v080
 BYTE   W12
 BYTE   N12  Ds0  v052
 BYTE   W12
 BYTE   N24
 BYTE   W12
 BYTE   N18  Dn1  v080
 BYTE   W12
 BYTE   N12  Ds0  v052
 BYTE   W06
 BYTE   Dn1  v080
 BYTE   W06
 BYTE   N24  Ds0  v052
 BYTE   W06
 BYTE   N06  Dn1  v080
 BYTE   W06
 BYTE   N72  Bn0
 BYTE   TIE  Dn1
 BYTE   W12
 BYTE   N12  Ds0  v052
 BYTE   W12
//  #09 //019   ----------------------------------------
 BYTE   N12
 BYTE   W12
 BYTE   N12
 BYTE   W12
 BYTE   N12
 BYTE   W12
 BYTE   N24
 BYTE   W12
 BYTE   N72  Bn0  v080
 BYTE   W12
 BYTE   N12  Ds0  v052
 BYTE   W12
 BYTE   N12
 BYTE   W12
 BYTE   N12
 BYTE   W12
//  #09 //020   ----------------------------------------
 BYTE   N12
 BYTE   W12
 BYTE   N24
 BYTE   W12
 BYTE   N36  Bn0  v080
 BYTE   W12
 BYTE   N12  Ds0  v052
 BYTE   W12
 BYTE   N12
 BYTE   W12
 BYTE   N12
 BYTE   N36  Bn0  v080
 BYTE   W12
 BYTE   N12  Ds0  v052
 BYTE   W12
 BYTE   N24
 BYTE   W12
//  #09 //021   ----------------------------------------
Label_011614B7:
 BYTE   N72  Bn0  v080
 BYTE   W12
 BYTE   N12  Ds0  v052
 BYTE   W12
 BYTE   N12
 BYTE   W12
 BYTE   N12
 BYTE   W12
 BYTE   N12
 BYTE   W12
 BYTE   N24
 BYTE   W12
 BYTE   PEND 
Label_011614C8:
 BYTE   TIE  Bn0  v080
 BYTE   W12
 BYTE   N12  Ds0  v052
 BYTE   W12
//  #09 //022   ----------------------------------------
 BYTE   N24
 BYTE   W12
 BYTE   PEND 
 BYTE   EOT
 BYTE   Dn1
 BYTE   TIE  Dn1  v080
 BYTE   W12
 BYTE   N12  Ds0  v052
 BYTE   W12
 BYTE   N12
 BYTE   W12
 BYTE   N12
 BYTE   W12
 BYTE   N12
 BYTE   W12
 BYTE   N24
 BYTE   W12
 BYTE   EOT
 BYTE   Bn0
//  #09 //023   ----------------------------------------
 BYTE   PATT
  POIN2 Label_011614C8
//  #09 //024   ----------------------------------------
 BYTE   EOT
 BYTE   Dn1
 BYTE   TIE  Dn1  v080
 BYTE   W12
 BYTE   N12  Ds0  v052
 BYTE   W12
 BYTE   N12
 BYTE   W12
 BYTE   N12
 BYTE   W12
 BYTE   N12
 BYTE   W12
 BYTE   TIE
 BYTE   W12
 BYTE   W72
//  #09 //025   ----------------------------------------
 BYTE   W72
 BYTE   W72
//  #09 //026   ----------------------------------------
 BYTE   W72
 BYTE   W72
//  #09 //027   ----------------------------------------
 BYTE   W72
 BYTE   W72
//  #09 //028   ----------------------------------------
 BYTE   W72
 BYTE   W54
//  #09 //029   ----------------------------------------
 BYTE   En1  v080
 BYTE   W06
 BYTE   EOT
 BYTE   Dn1
 BYTE   N48
 BYTE   W12
 BYTE   N72  Cn1  v096
 BYTE   W12
 BYTE   EOT
 BYTE   Ds0
 BYTE   N12  Ds0  v052
 BYTE   W12
 BYTE   N24
 BYTE   W12
 BYTE   N72  Dn1  v096
 BYTE   W12
 BYTE   N12  Ds0  v052
 BYTE   W12
 BYTE   N24
 BYTE   W12
Label_01161524:
 BYTE   N72  Cn1  v096
 BYTE   W12
//  #09 //030   ----------------------------------------
 BYTE   N12  Ds0  v052
 BYTE   W12
 BYTE   N12
 BYTE   W12
 BYTE   N12
 BYTE   N24  Dn1  v096
 BYTE   W12
 BYTE   N12  Ds0  v052
 BYTE   W06
 BYTE   PEND 
 BYTE   EOT
 BYTE   En1
 BYTE   TIE  En1  v096
 BYTE   W06
 BYTE   N24  Ds0  v052
 BYTE   N48  Dn1  v096
 BYTE   W12
Label_01161545:
 BYTE   N72  Cn1  v096
 BYTE   W12
 BYTE   N12  Ds0  v052
 BYTE   W12
 BYTE   N24
 BYTE   W12
//  #09 //031   ----------------------------------------
 BYTE   N72  Dn1  v096
 BYTE   W12
 BYTE   N12  Ds0  v052
 BYTE   W12
 BYTE   N24
 BYTE   W12
 BYTE   PEND 
Label_0116155A:
 BYTE   N72  Cn1  v096
 BYTE   W12
 BYTE   N12  Ds0  v052
 BYTE   W12
 BYTE   PEND 
 BYTE   EOT
 BYTE   Bn0
 BYTE   N12  Ds0
 BYTE   N12  Bn0  v096
 BYTE   W12
 BYTE   Ds0  v052
 BYTE   TIE  Bn0  v096
 BYTE   N18  Dn1
 BYTE   W12
 BYTE   N12  Ds0  v052
 BYTE   W06
 BYTE   Dn1  v096
 BYTE   W06
//  #09 //032   ----------------------------------------
 BYTE   N24  Ds0  v052
 BYTE   W06
 BYTE   N42  Dn1  v096
 BYTE   W06
//  #09 //033   ----------------------------------------
 BYTE   PATT
  POIN2 Label_01161545
//  #09 //034   ----------------------------------------
 BYTE   PATT
  POIN2 Label_01161524
//  #09 //035   ----------------------------------------
 BYTE   EOT
 BYTE   En1
 BYTE   TIE  En1  v096
 BYTE   W06
 BYTE   N24  Ds0  v052
 BYTE   N48  Dn1  v096
 BYTE   W12
//  #09 //036   ----------------------------------------
 BYTE   PATT
  POIN2 Label_01161545
//  #09 //037   ----------------------------------------
 BYTE   PATT
  POIN2 Label_0116155A
//  #09 //038   ----------------------------------------
 BYTE   EOT
 BYTE   Bn0
 BYTE   N12  Ds0  v052
 BYTE   N12  Bn0  v096
 BYTE   W12
 BYTE   Ds0  v052
 BYTE   TIE  Bn0  v096
 BYTE   N18  Dn1
 BYTE   W12
 BYTE   N12  Ds0  v052
 BYTE   W06
 BYTE   Dn1  v096
 BYTE   W06
 BYTE   N24  Ds0  v052
 BYTE   W06
 BYTE   N42  Dn1  v096
 BYTE   W06
Label_011615C3:
 BYTE   N72  Cn1  v080
 BYTE   TIE  Cs2
 BYTE   W12
 BYTE   N12  Ds0  v052
 BYTE   W12
 BYTE   N24
 BYTE   W12
 BYTE   N72  Dn1  v080
 BYTE   W12
//  #09 //039   ----------------------------------------
 BYTE   N12  Ds0  v052
 BYTE   W12
 BYTE   N24
 BYTE   W12
 BYTE   PEND 
Label_011615DA:
 BYTE   N72  Cn1  v080
 BYTE   W12
 BYTE   N12  Ds0  v052
 BYTE   W12
 BYTE   N12
 BYTE   W12
 BYTE   N12
 BYTE   N24  Dn1  v080
 BYTE   W12
 BYTE   N12  Ds0  v052
 BYTE   W06
 BYTE   PEND 
 BYTE   EOT
 BYTE   En1
 BYTE   TIE  En1  v080
 BYTE   W06
 BYTE   N24  Ds0  v052
 BYTE   N48  Dn1  v080
 BYTE   W12
//  #09 //040   ----------------------------------------
Label_011615FB:
 BYTE   N72  Cn1  v080
 BYTE   W12
 BYTE   N12  Ds0  v052
 BYTE   W12
 BYTE   N24
 BYTE   W12
 BYTE   N72  Dn1  v080
 BYTE   W12
 BYTE   N12  Ds0  v052
 BYTE   W12
 BYTE   N24
 BYTE   W12
 BYTE   PEND 
 BYTE   TIE  Cn1  v080
 BYTE   W12
 BYTE   N12  Ds0  v052
 BYTE   W12
//  #09 //041   ----------------------------------------
 BYTE   EOT
 BYTE   Bn0
 BYTE   N12  Ds0
 BYTE   N12  Bn0  v080
 BYTE   W12
 BYTE   Ds0  v052
 BYTE   TIE  Bn0  v080
 BYTE   N18  Dn1
 BYTE   W12
 BYTE   N12  Ds0  v052
 BYTE   W06
 BYTE   Dn1  v080
 BYTE   W06
 BYTE   TIE  Ds0  v052
 BYTE   W06
 BYTE   Dn1  v080
 BYTE   W06
 BYTE   EOT
 BYTE   Cs2
Label_01161638:
 BYTE   TIE  Cs2  v080
 BYTE   W72
 BYTE   PEND 
//  #09 //042   ----------------------------------------
 BYTE   W72
 BYTE   W72
//  #09 //043   ----------------------------------------
 BYTE   W72
 BYTE   EOT
 BYTE   Bn0
 BYTE   N72
 BYTE   W12
 BYTE   EOT
 BYTE   Ds0
 BYTE   N12  Ds0  v052
 BYTE   W12
//  #09 //044   ----------------------------------------
 BYTE   N12
 BYTE   W12
 BYTE   EOT
 BYTE   Dn1
 BYTE   N12  Ds0
 BYTE   N72  Dn1  v080
 BYTE   W12
 BYTE   N12  Ds0  v052
 BYTE   W12
 BYTE   N24
 BYTE   W12
Label_0116165A:
 BYTE   N72  Bn0  v080
 BYTE   W12
 BYTE   N12  Ds0  v052
 BYTE   W12
 BYTE   N12
 BYTE   W12
 BYTE   N12
 BYTE   N30  Dn1  v080
 BYTE   W12
//  #09 //045   ----------------------------------------
 BYTE   N12  Ds0  v052
 BYTE   W12
 BYTE   N24
 BYTE   W06
 BYTE   N42  Dn1  v080
 BYTE   W06
 BYTE   PEND 
Label_01161674:
 BYTE   N72  Bn0  v080
 BYTE   W12
 BYTE   N12  Ds0  v052
 BYTE   W12
 BYTE   N12
 BYTE   W12
 BYTE   N12
 BYTE   N72  Dn1  v080
 BYTE   W12
 BYTE   N12  Ds0  v052
 BYTE   W12
 BYTE   N24
 BYTE   W12
 BYTE   PEND 
//  #09 //046   ----------------------------------------
 BYTE   PATT
  POIN2 Label_01161674
//  #09 //047   ----------------------------------------
Label_0116168F:
 BYTE   N72  Bn0  v080
 BYTE   W12
 BYTE   N12  Ds0  v052
 BYTE   W12
 BYTE   N12
 BYTE   W12
 BYTE   N12
 BYTE   N24  Dn1  v080
 BYTE   W12
 BYTE   N12  Ds0  v052
 BYTE   W12
 BYTE   N24
 BYTE   N48  Dn1  v080
 BYTE   W12
 BYTE   PEND 
Label_011616A8:
 BYTE   N72  Bn0  v080
 BYTE   W12
 BYTE   N12  Ds0  v052
 BYTE   W12
//  #09 //048   ----------------------------------------
 BYTE   N12
 BYTE   W12
 BYTE   N12
 BYTE   N18  Dn1  v080
 BYTE   W12
 BYTE   N12  Ds0  v052
 BYTE   W06
 BYTE   N06  Dn1  v080
 BYTE   W06
 BYTE   N24  Ds0  v052
 BYTE   N48  Dn1  v080
 BYTE   W12
 BYTE   PEND 
 BYTE   EOT
 BYTE   Cs2
 BYTE   N72  Bn0
 BYTE   TIE  Cs2
 BYTE   W12
 BYTE   N12  Ds0  v052
 BYTE   W12
 BYTE   N12
 BYTE   W12
 BYTE   N12
 BYTE   N72  Dn1  v080
 BYTE   W12
//  #09 //049   ----------------------------------------
 BYTE   N12  Ds0  v052
 BYTE   W12
 BYTE   N12
 BYTE   W12
Label_011616DF:
 BYTE   N12  Ds0  v052
 BYTE   N72  Bn0  v080
 BYTE   W12
 BYTE   N12  Ds0  v052
 BYTE   W12
 BYTE   N12
 BYTE   W12
 BYTE   N12
 BYTE   N30  Dn1  v080
 BYTE   W12
 BYTE   N12  Ds0  v052
 BYTE   W12
 BYTE   N24
 BYTE   W06
 BYTE   N42  Dn1  v080
 BYTE   W06
 BYTE   PEND 
//  #09 //050   ----------------------------------------
Label_011616FC:
 BYTE   N72  Bn0  v080
 BYTE   W12
 BYTE   N12  Ds0  v052
 BYTE   W12
 BYTE   N12
 BYTE   W12
 BYTE   N12
 BYTE   N96  Dn1  v080
 BYTE   W12
 BYTE   N12  Ds0  v052
 BYTE   W12
 BYTE   N12
 BYTE   W12
 BYTE   PEND 
Label_01161712:
 BYTE   N12  Ds0  v052
 BYTE   N36  Bn0  v080
 BYTE   W12
 BYTE   N12  Ds0  v052
 BYTE   W12
//  #09 //051   ----------------------------------------
 BYTE   N12
 BYTE   W12
 BYTE   N12
 BYTE   N36  Bn0  v080
 BYTE   W12
 BYTE   N12  Ds0  v052
 BYTE   W12
 BYTE   N24
 BYTE   N06  Dn1  v080
 BYTE   W06
 BYTE   N42
 BYTE   W06
 BYTE   PEND 
Label_01161730:
 BYTE   N72  Bn0  v080
 BYTE   W12
 BYTE   N12  Ds0  v052
 BYTE   W12
 BYTE   N12
 BYTE   W12
 BYTE   N12
 BYTE   N72  Dn1  v080
 BYTE   W12
//  #09 //052   ----------------------------------------
 BYTE   N12  Ds0  v052
 BYTE   W12
 BYTE   N12
 BYTE   W12
 BYTE   PEND 
//  #09 //053   ----------------------------------------
 BYTE   PATT
  POIN2 Label_011616DF
//  #09 //054   ----------------------------------------
Label_0116174B:
 BYTE   N72  Bn0  v080
 BYTE   W12
 BYTE   N12  Ds0  v052
 BYTE   W12
 BYTE   N12
 BYTE   W12
 BYTE   N12
 BYTE   N24  Dn1  v080
 BYTE   W12
 BYTE   N12  Ds0  v052
 BYTE   W12
 BYTE   N12
 BYTE   N12  Dn1  v080
 BYTE   W12
 BYTE   PEND 
 BYTE   Ds0  v052
 BYTE   TIE  Bn0  v080
 BYTE   TIE  Dn1
 BYTE   W01
 BYTE   W02
 BYTE   W02
 BYTE   W02
 BYTE   W02
 BYTE   W01
 BYTE   W02
 BYTE   N12  Ds0  v044
 BYTE   W02
 BYTE   W02
 BYTE   W02
 BYTE   W02
 BYTE   W01
 BYTE   W02
 BYTE   W01
//  #09 //055   ----------------------------------------
 BYTE   Ds0  v036
 BYTE   W01
 BYTE   W02
 BYTE   W02
 BYTE   W01
 BYTE   W02
 BYTE   W02
 BYTE   W02
 BYTE   Ds0  v032
 BYTE   W02
 BYTE   W02
 BYTE   W01
 BYTE   W02
 BYTE   W02
 BYTE   W02
 BYTE   W01
 BYTE   Ds0  v024
 BYTE   W01
 BYTE   W01
 BYTE   W02
 BYTE   W02
 BYTE   W02
 BYTE   W02
 BYTE   W02
 BYTE   TIE  Ds0  v016
 BYTE   W12
 BYTE   W72
//  #09 //056   ----------------------------------------
 BYTE   W72
 BYTE   W72
//  #09 //057   ----------------------------------------
 BYTE   W72
 BYTE   W72
//  #09 //058   ----------------------------------------
 BYTE   W72
 BYTE   W72
//  #09 //059   ----------------------------------------
 BYTE   W72
 BYTE   W72
//  #09 //060   ----------------------------------------
 BYTE   W72
 BYTE   W72
//  #09 //061   ----------------------------------------
 BYTE   W72
 BYTE   W72
//  #09 //062   ----------------------------------------
 BYTE   W72
 BYTE   W72
//  #09 //063   ----------------------------------------
 BYTE   W72
 BYTE   W48
//  #09 //064   ----------------------------------------
 BYTE   GoTo
  POIN2 Label_011613F5
//  #09 //065   ----------------------------------------
 BYTE   W06
 BYTE   EOT
 BYTE   Dn1
 BYTE   N54  Dn1  v080
 BYTE   W06
 BYTE   EOT
 BYTE   Bn0
 BYTE   N12
 BYTE   W12
 BYTE   N72
 BYTE   W12
 BYTE   EOT
 BYTE   Ds0
 BYTE   N12  Ds0  v052
 BYTE   W12
 BYTE   N24
 BYTE   W12
 BYTE   N72  Dn1  v080
 BYTE   W12
 BYTE   N12  Ds0  v052
 BYTE   W12
 BYTE   N24
 BYTE   W12
//  #09 //066   ----------------------------------------
Label_011617D0:
 BYTE   N72  Bn0  v080
 BYTE   W12
 BYTE   N12  Ds0  v052
 BYTE   W12
 BYTE   N24
 BYTE   W12
 BYTE   N72  Dn1  v080
 BYTE   W12
 BYTE   N12  Ds0  v052
 BYTE   W12
 BYTE   N24
 BYTE   W12
 BYTE   PEND 
//  #09 //067   ----------------------------------------
 BYTE   PATT
  POIN2 Label_011617D0
//  #09 //068   ----------------------------------------
 BYTE   N24  Bn0  v080
 BYTE   W12
 BYTE   N12  Ds0  v052
 BYTE   W12
 BYTE   N24
 BYTE   N48  Bn0  v080
 BYTE   W12
 BYTE   N24  Dn1
 BYTE   W12
 BYTE   N12  Ds0  v052
 BYTE   W12
 BYTE   N24
 BYTE   N48  Dn1  v080
 BYTE   W12
//  #09 //069   ----------------------------------------
 BYTE   PATT
  POIN2 Label_011617D0
//  #09 //070   ----------------------------------------
 BYTE   PATT
  POIN2 Label_011617D0
//  #09 //071   ----------------------------------------
 BYTE   PATT
  POIN2 Label_011617D0
//  #09 //072   ----------------------------------------
 BYTE   N72  Bn0  v080
 BYTE   W12
 BYTE   N12  Ds0  v052
 BYTE   W12
 BYTE   N24
 BYTE   W12
 BYTE   N18  Dn1  v080
 BYTE   W12
 BYTE   N12  Ds0  v052
 BYTE   W06
 BYTE   Dn1  v080
 BYTE   W06
 BYTE   N24  Ds0  v052
 BYTE   W06
 BYTE   N06  Dn1  v080
 BYTE   W06
 BYTE   N72  Bn0
 BYTE   TIE  Dn1
 BYTE   W12
 BYTE   N12  Ds0  v052
 BYTE   W12
//  #09 //073   ----------------------------------------
 BYTE   N12
 BYTE   W12
 BYTE   N12
 BYTE   W12
 BYTE   N12
 BYTE   W12
 BYTE   N24
 BYTE   W12
//  #09 //074   ----------------------------------------
 BYTE   PATT
  POIN2 Label_011614B7
//  #09 //075   ----------------------------------------
 BYTE   N36  Bn0  v080
 BYTE   W12
 BYTE   N12  Ds0  v052
 BYTE   W12
 BYTE   N12
 BYTE   W12
 BYTE   N12
 BYTE   N36  Bn0  v080
 BYTE   W12
 BYTE   N12  Ds0  v052
 BYTE   W12
 BYTE   N24
 BYTE   W12
//  #09 //076   ----------------------------------------
 BYTE   PATT
  POIN2 Label_011614B7
//  #09 //077   ----------------------------------------
 BYTE   PATT
  POIN2 Label_011614C8
//  #09 //078   ----------------------------------------
 BYTE   EOT
 BYTE   Dn1
 BYTE   TIE  Dn1  v080
 BYTE   W12
 BYTE   N12  Ds0  v052
 BYTE   W12
 BYTE   N12
 BYTE   W12
 BYTE   N12
 BYTE   W12
 BYTE   N12
 BYTE   W12
 BYTE   N24
 BYTE   W12
 BYTE   EOT
 BYTE   Bn0
//  #09 //079   ----------------------------------------
 BYTE   PATT
  POIN2 Label_011614C8
//  #09 //080   ----------------------------------------
 BYTE   EOT
 BYTE   Dn1
 BYTE   TIE  Dn1  v080
 BYTE   W12
 BYTE   N12  Ds0  v052
 BYTE   W12
 BYTE   N12
 BYTE   W12
 BYTE   N12
 BYTE   W12
 BYTE   N12
 BYTE   W12
 BYTE   TIE
 BYTE   W12
 BYTE   W72
//  #09 //081   ----------------------------------------
 BYTE   W72
 BYTE   W72
//  #09 //082   ----------------------------------------
 BYTE   W72
 BYTE   W72
//  #09 //083   ----------------------------------------
 BYTE   W72
 BYTE   W72
//  #09 //084   ----------------------------------------
 BYTE   W72
 BYTE   W54
//  #09 //085   ----------------------------------------
 BYTE   EOT
 BYTE   En1
 BYTE   TIE  En1  v080
 BYTE   W06
 BYTE   EOT
 BYTE   Dn1
 BYTE   N48
 BYTE   W12
 BYTE   EOT
 BYTE   Cn1
 BYTE   N72  Cn1  v096
 BYTE   W12
 BYTE   EOT
 BYTE   Ds0
 BYTE   N12  Ds0  v052
 BYTE   W12
 BYTE   N24
 BYTE   W12
 BYTE   N72  Dn1  v096
 BYTE   W12
 BYTE   N12  Ds0  v052
 BYTE   W12
 BYTE   N24
 BYTE   W12
//  #09 //086   ----------------------------------------
 BYTE   PATT
  POIN2 Label_01161524
//  #09 //087   ----------------------------------------
 BYTE   EOT
 BYTE   En1
 BYTE   TIE  En1  v096
 BYTE   W06
 BYTE   N24  Ds0  v052
 BYTE   N48  Dn1  v096
 BYTE   W12
//  #09 //088   ----------------------------------------
 BYTE   PATT
  POIN2 Label_01161545
//  #09 //089   ----------------------------------------
 BYTE   PATT
  POIN2 Label_0116155A
//  #09 //090   ----------------------------------------
 BYTE   EOT
 BYTE   Bn0
 BYTE   N12  Ds0  v052
 BYTE   N12  Bn0  v096
 BYTE   W12
 BYTE   Ds0  v052
 BYTE   TIE  Bn0  v096
 BYTE   N18  Dn1
 BYTE   W12
 BYTE   N12  Ds0  v052
 BYTE   W06
 BYTE   Dn1  v096
 BYTE   W06
 BYTE   N24  Ds0  v052
 BYTE   W06
 BYTE   N42  Dn1  v096
 BYTE   W06
//  #09 //091   ----------------------------------------
 BYTE   PATT
  POIN2 Label_01161545
//  #09 //092   ----------------------------------------
 BYTE   PATT
  POIN2 Label_01161524
//  #09 //093   ----------------------------------------
 BYTE   EOT
 BYTE   En1
 BYTE   TIE  En1  v096
 BYTE   W06
 BYTE   N24  Ds0  v052
 BYTE   N48  Dn1  v096
 BYTE   W12
//  #09 //094   ----------------------------------------
 BYTE   PATT
  POIN2 Label_01161545
//  #09 //095   ----------------------------------------
 BYTE   PATT
  POIN2 Label_0116155A
//  #09 //096   ----------------------------------------
 BYTE   EOT
 BYTE   Bn0
 BYTE   N12  Ds0  v052
 BYTE   N12  Bn0  v096
 BYTE   W12
 BYTE   Ds0  v052
 BYTE   TIE  Bn0  v096
 BYTE   N18  Dn1
 BYTE   W12
 BYTE   N12  Ds0  v052
 BYTE   W06
 BYTE   Dn1  v096
 BYTE   W06
 BYTE   N24  Ds0  v052
 BYTE   W06
 BYTE   N42  Dn1  v096
 BYTE   W06
 BYTE   EOT
 BYTE   Cs2
//  #09 //097   ----------------------------------------
 BYTE   PATT
  POIN2 Label_011615C3
//  #09 //098   ----------------------------------------
 BYTE   PATT
  POIN2 Label_011615DA
//  #09 //099   ----------------------------------------
 BYTE   EOT
 BYTE   En1
 BYTE   W06
 BYTE   N24  Ds0  v052
 BYTE   N48  Dn1  v080
 BYTE   W12
//  #09 //100   ----------------------------------------
 BYTE   PATT
  POIN2 Label_011615FB
//  #09 //101   ----------------------------------------
 BYTE   W12
 BYTE   N12  Ds0  v052
 BYTE   W12
 BYTE   EOT
 BYTE   Bn0
 BYTE   N12  Ds0
 BYTE   N12  Bn0  v080
 BYTE   W12
 BYTE   Ds0  v052
 BYTE   TIE  Bn0  v080
 BYTE   N18  Dn1
 BYTE   W12
 BYTE   N12  Ds0  v052
 BYTE   W06
 BYTE   Dn1  v080
 BYTE   W06
 BYTE   TIE  Ds0  v052
 BYTE   W06
 BYTE   Dn1  v080
 BYTE   W06
 BYTE   EOT
 BYTE   Cs2
//  #09 //102   ----------------------------------------
 BYTE   PATT
  POIN2 Label_01161638
//  #09 //103   ----------------------------------------
 BYTE   W72
 BYTE   W72
//  #09 //104   ----------------------------------------
 BYTE   W72
 BYTE   EOT
 BYTE   Bn0
 BYTE   N72  Bn0  v080
 BYTE   W12
 BYTE   EOT
 BYTE   Ds0
 BYTE   N12  Ds0  v052
 BYTE   W12
//  #09 //105   ----------------------------------------
 BYTE   N12
 BYTE   W12
 BYTE   EOT
 BYTE   Dn1
 BYTE   N12  Ds0
 BYTE   N72  Dn1  v080
 BYTE   W12
 BYTE   N12  Ds0  v052
 BYTE   W12
 BYTE   N24
 BYTE   W12
//  #09 //106   ----------------------------------------
 BYTE   PATT
  POIN2 Label_0116165A
//  #09 //107   ----------------------------------------
 BYTE   PATT
  POIN2 Label_01161674
//  #09 //108   ----------------------------------------
 BYTE   PATT
  POIN2 Label_01161674
//  #09 //109   ----------------------------------------
 BYTE   PATT
  POIN2 Label_0116168F
//  #09 //110   ----------------------------------------
 BYTE   PATT
  POIN2 Label_011616A8
//  #09 //111   ----------------------------------------
 BYTE   EOT
 BYTE   Cs2
//  #09 //112   ----------------------------------------
 BYTE   PATT
  POIN2 Label_01161730
//  #09 //113   ----------------------------------------
 BYTE   PATT
  POIN2 Label_011616DF
//  #09 //114   ----------------------------------------
 BYTE   PATT
  POIN2 Label_011616FC
//  #09 //115   ----------------------------------------
 BYTE   PATT
  POIN2 Label_01161712
//  #09 //116   ----------------------------------------
 BYTE   PATT
  POIN2 Label_01161730
//  #09 //117   ----------------------------------------
 BYTE   PATT
  POIN2 Label_011616DF
//  #09 //118   ----------------------------------------
 BYTE   PATT
  POIN2 Label_0116174B
//  #09 //119   ----------------------------------------
 BYTE   N12  Ds0  v052
 BYTE   W01
 BYTE   W02
 BYTE   W02
 BYTE   W02
 BYTE   W02
 BYTE   W01
 BYTE   W02
 BYTE   Ds0  v044
 BYTE   W02
 BYTE   W02
 BYTE   W02
 BYTE   W02
 BYTE   W01
 BYTE   W02
 BYTE   W01
 BYTE   Ds0  v036
 BYTE   W01
 BYTE   W02
 BYTE   W02
 BYTE   W01
 BYTE   W02
 BYTE   W02
 BYTE   W02
 BYTE   Ds0  v032
 BYTE   W02
 BYTE   W02
 BYTE   W01
 BYTE   W02
 BYTE   W02
 BYTE   W02
 BYTE   W01
 BYTE   Ds0  v024
 BYTE   W01
 BYTE   W01
 BYTE   W02
 BYTE   W02
 BYTE   W02
 BYTE   W02
 BYTE   W02
 BYTE   W11
 BYTE   FINE

//**************** Track 10 (Midi-Chn.9) ****************//

FireEmblemEngageEnjoytheEveningDivineOneSurfingKyogre1_010:
//  #10 //000   ----------------------------------------
 BYTE   KEYSH   FireEmblemEngageEnjoytheEveningDivineOneSurfingKyogre1_key+0
 BYTE   VOICE   46
 BYTE   VOL   42*FireEmblemEngageEnjoytheEveningDivineOneSurfingKyogre1_mvl/mxv
 BYTE   PAN   c_v+0
 BYTE   VOL   42*FireEmblemEngageEnjoytheEveningDivineOneSurfingKyogre1_mvl/mxv
 BYTE   PAN   c_v+0
 BYTE   W96
//  #10 //001   ----------------------------------------
 BYTE   W96
//  #10 //002   ----------------------------------------
 BYTE   W96
//  #10 //003   ----------------------------------------
 BYTE   N68  Fs2  v096
 BYTE   W72
 BYTE   Gs2
 BYTE   W24
//  #10 //004   ----------------------------------------
 BYTE   W48
 BYTE   As2
 BYTE   W48
//  #10 //005   ----------------------------------------
 BYTE   W24
 BYTE   Gs2
 BYTE   W72
//  #10 //006   ----------------------------------------
 BYTE   Fs2  v080
 BYTE   W72
 BYTE   Gs2
 BYTE   W24
//  #10 //007   ----------------------------------------
 BYTE   W48
 BYTE   Ds3
 BYTE   W48
//  #10 //008   ----------------------------------------
 BYTE   W24
 BYTE   Cs3
 BYTE   W72
//  #10 //009   ----------------------------------------
 BYTE   N68
 BYTE   W72
 BYTE   An2
 BYTE   W24
//  #10 //010   ----------------------------------------
 BYTE   W48
 BYTE   N32  Fs2
 BYTE   W36
 BYTE   Gs2
 BYTE   W12
//  #10 //011   ----------------------------------------
 BYTE   W24
 BYTE   TIE  Fn2
 BYTE   W72
//  #10 //012   ----------------------------------------
Label_0116301C:
 BYTE   W32
 BYTE   W03
 BYTE   PEND 
 BYTE   EOT
 BYTE   Fn2
 BYTE   W13
Label_01163022:
 BYTE   W24
 BYTE   N68  Fs2  v112
 BYTE   W24
//  #10 //013   ----------------------------------------
 BYTE   W48
 BYTE   Gs2
 BYTE   W48
//  #10 //014   ----------------------------------------
 BYTE   W24
 BYTE   N32  As2
 BYTE   W36
 BYTE   Gs2
 BYTE   W36
//  #10 //015   ----------------------------------------
 BYTE   N68
 BYTE   W72
 BYTE   As2
 BYTE   W24
//  #10 //016   ----------------------------------------
 BYTE   W48
 BYTE   N32  Cn3
 BYTE   W36
 BYTE   Gs2
 BYTE   W12
//  #10 //017   ----------------------------------------
 BYTE   W24
 BYTE   N68  Fs2
 BYTE   W72
//  #10 //018   ----------------------------------------
 BYTE   Fn2
 BYTE   W96
//  #10 //019   ----------------------------------------
 BYTE   W12
 BYTE   N32  Cs3
 BYTE   W36
 BYTE   N68  Ds3
 BYTE   W48
//  #10 //020   ----------------------------------------
 BYTE   W24
 BYTE   N32  As2
 BYTE   W36
 BYTE   Cn3
 BYTE   W36
//  #10 //021   ----------------------------------------
Label_0116304D:
 BYTE   N32  Fn2  v112
 BYTE   W72
 BYTE   PEND 
Label_01163052:
 BYTE   W72
//  #10 //022   ----------------------------------------
 BYTE   N32  Fn3  v112
 BYTE   W36
 BYTE   PEND 
Label_01163058:
 BYTE   N68  En3  v112
 BYTE   W96
//  #10 //023   ----------------------------------------
 BYTE   W12
 BYTE   PEND 
 BYTE   W72
Label_0116305F:
 BYTE   N68  As2  v096
 BYTE   W72
 BYTE   PEND 
//  #10 //024   ----------------------------------------
Label_01163064:
 BYTE   N68  Cn3  v096
 BYTE   W72
 BYTE   PEND 
Label_01163069:
 BYTE   W36
//  #10 //025   ----------------------------------------
 BYTE   N32  As2  v096
 BYTE   W36
 BYTE   PEND 
Label_0116306F:
 BYTE   N32  Cn3  v096
 BYTE   W36
 BYTE   Fn3
 BYTE   W36
 BYTE   PEND 
//  #10 //026   ----------------------------------------
Label_01163076:
 BYTE   N68  Cs3  v096
 BYTE   W72
 BYTE   PEND 
Label_0116307B:
 BYTE   TIE  Cs3  v096
 BYTE   W72
 BYTE   PEND 
//  #10 //027   ----------------------------------------
Label_01163080:
 BYTE   W32
 BYTE   W03
 BYTE   PEND 
 BYTE   EOT
 BYTE   Cs3
 BYTE   W36
 BYTE   W01
Label_01163087:
 BYTE   N32  Gs2  v112
 BYTE   W36
//  #10 //028   ----------------------------------------
 BYTE   Gs3
 BYTE   W36
 BYTE   PEND 
Label_0116308E:
 BYTE   N11  Gs2  v112
 BYTE   W12
 BYTE   N11
 BYTE   W24
 BYTE   N11
 BYTE   W24
//  #10 //029   ----------------------------------------
 BYTE   N11
 BYTE   W12
 BYTE   PEND 
Label_01163099:
 BYTE   N11  As2  v112
 BYTE   W12
 BYTE   N11
 BYTE   W24
 BYTE   N11
 BYTE   W24
 BYTE   N11
 BYTE   W12
 BYTE   PEND 
Label_011630A4:
 BYTE   N11  Cn3  v112
 BYTE   W12
//  #10 //030   ----------------------------------------
 BYTE   N11
 BYTE   W24
 BYTE   N11
 BYTE   W24
 BYTE   N11
 BYTE   W12
 BYTE   PEND 
Label_011630AF:
 BYTE   N11  Cs3  v112
 BYTE   W12
 BYTE   N11
 BYTE   W24
//  #10 //031   ----------------------------------------
 BYTE   N11
 BYTE   W24
 BYTE   N11
 BYTE   W12
 BYTE   PEND 
//  #10 //032   ----------------------------------------
 BYTE   PATT
  POIN2 Label_0116308E
//  #10 //033   ----------------------------------------
 BYTE   PATT
  POIN2 Label_01163099
//  #10 //034   ----------------------------------------
 BYTE   PATT
  POIN2 Label_011630A4
//  #10 //035   ----------------------------------------
 BYTE   PATT
  POIN2 Label_011630AF
//  #10 //036   ----------------------------------------
 BYTE   W72
 BYTE   W72
//  #10 //037   ----------------------------------------
 BYTE   W72
 BYTE   W72
//  #10 //038   ----------------------------------------
Label_011630D2:
 BYTE   TIE  Cs3  v064
 BYTE   W72
 BYTE   PEND 
Label_011630D7:
 BYTE   W68
//  #10 //039   ----------------------------------------
 BYTE   W03
 BYTE   PEND 
 BYTE   EOT
 BYTE   Cs3
 BYTE   W01
Label_011630DD:
 BYTE   TIE  Bn2  v064
 BYTE   W72
 BYTE   PEND 
//  #10 //040   ----------------------------------------
 BYTE   PATT
  POIN2 Label_011630D7
//  #10 //041   ----------------------------------------
 BYTE   EOT
 BYTE   Bn2
 BYTE   W01
Label_011630EA:
 BYTE   N32  Fs2  v096
 BYTE   W36
 BYTE   Gs2
 BYTE   W36
 BYTE   PEND 
Label_011630F1:
 BYTE   N68  Gs2  v096
 BYTE   W72
 BYTE   PEND 
//  #10 //042   ----------------------------------------
Label_011630F6:
 BYTE   W36
 BYTE   N32  Fs2  v096
 BYTE   W36
 BYTE   PEND 
Label_011630FC:
 BYTE   N32  Gs2  v096
 BYTE   W36
//  #10 //043   ----------------------------------------
 BYTE   Fn2
 BYTE   W36
 BYTE   PEND 
Label_01163103:
 BYTE   N68  Ds2  v096
 BYTE   W72
 BYTE   PEND 
//  #10 //044   ----------------------------------------
Label_01163108:
 BYTE   N68  Cs2  v096
 BYTE   W72
 BYTE   PEND 
Label_0116310D:
 BYTE   TIE  Fn2  v096
 BYTE   W72
 BYTE   PEND 
//  #10 //045   ----------------------------------------
Label_01163112:
 BYTE   W68
 BYTE   W03
 BYTE   PEND 
 BYTE   EOT
 BYTE   Fn2
 BYTE   W01
Label_01163118:
 BYTE   TIE  Ds2  v096
 BYTE   W72
 BYTE   PEND 
//  #10 //046   ----------------------------------------
 BYTE   PATT
  POIN2 Label_01163080
//  #10 //047   ----------------------------------------
 BYTE   EOT
 BYTE   Ds2
 BYTE   W01
 BYTE   N32  Ds2  v096
 BYTE   W36
Label_01163129:
 BYTE   TIE  Gs2  v096
 BYTE   W72
 BYTE   PEND 
//  #10 //048   ----------------------------------------
 BYTE   W72
//  #10 //049   ----------------------------------------
 BYTE   PATT
  POIN2 Label_01163112
//  #10 //050   ----------------------------------------
 BYTE   EOT
 BYTE   Gs2
 BYTE   W01
 BYTE   W72
 BYTE   W72
//  #10 //051   ----------------------------------------
 BYTE   W72
 BYTE   W72
//  #10 //052   ----------------------------------------
 BYTE   W72
 BYTE   N68  Fs2  v096
 BYTE   W72
//  #10 //053   ----------------------------------------
 BYTE   PATT
  POIN2 Label_011630F1
//  #10 //054   ----------------------------------------
 BYTE   PATT
  POIN2 Label_0116305F
//  #10 //055   ----------------------------------------
 BYTE   PATT
  POIN2 Label_011630F1
//  #10 //056   ----------------------------------------
 BYTE   N68  Fs2  v080
 BYTE   W72
 BYTE   Gs2
 BYTE   W72
//  #10 //057   ----------------------------------------
 BYTE   Ds3
 BYTE   W72
Label_01163157:
 BYTE   N68  Cs3  v080
 BYTE   W72
 BYTE   PEND 
//  #10 //058   ----------------------------------------
 BYTE   PATT
  POIN2 Label_01163157
//  #10 //059   ----------------------------------------
 BYTE   N68  An2  v080
 BYTE   W72
 BYTE   N32  Fs2
 BYTE   W36
//  #10 //060   ----------------------------------------
 BYTE   Gs2
 BYTE   W36
 BYTE   TIE  Fn2
 BYTE   W72
//  #10 //061   ----------------------------------------
 BYTE   PATT
  POIN2 Label_0116301C
//  #10 //062   ----------------------------------------
 BYTE   EOT
 BYTE   Fn2
 BYTE   W13
 BYTE   GoTo
  POIN2 Label_01163022
//  #10 //063   ----------------------------------------
 BYTE   W24
Label_0116317B:
 BYTE   N68  Fs2  v112
 BYTE   W72
 BYTE   PEND 
//  #10 //064   ----------------------------------------
Label_01163180:
 BYTE   N68  Gs2  v112
 BYTE   W72
 BYTE   PEND 
 BYTE   N32  As2
 BYTE   W36
//  #10 //065   ----------------------------------------
 BYTE   Gs2
 BYTE   W36
//  #10 //066   ----------------------------------------
 BYTE   PATT
  POIN2 Label_01163180
//  #10 //067   ----------------------------------------
 BYTE   N68  As2  v112
 BYTE   W72
 BYTE   N32  Cn3
 BYTE   W36
//  #10 //068   ----------------------------------------
 BYTE   Gs2
 BYTE   W36
//  #10 //069   ----------------------------------------
 BYTE   PATT
  POIN2 Label_0116317B
//  #10 //070   ----------------------------------------
 BYTE   N68  Fn2  v112
 BYTE   W72
 BYTE   W36
//  #10 //071   ----------------------------------------
 BYTE   N32  Cs3
 BYTE   W36
 BYTE   N68  Ds3
 BYTE   W72
//  #10 //072   ----------------------------------------
 BYTE   N32  As2
 BYTE   W36
 BYTE   Cn3
 BYTE   W36
//  #10 //073   ----------------------------------------
 BYTE   PATT
  POIN2 Label_0116304D
//  #10 //074   ----------------------------------------
 BYTE   PATT
  POIN2 Label_01163052
//  #10 //075   ----------------------------------------
 BYTE   PATT
  POIN2 Label_01163058
//  #10 //076   ----------------------------------------
 BYTE   W72
//  #10 //077   ----------------------------------------
 BYTE   PATT
  POIN2 Label_0116305F
//  #10 //078   ----------------------------------------
 BYTE   PATT
  POIN2 Label_01163064
//  #10 //079   ----------------------------------------
 BYTE   PATT
  POIN2 Label_01163069
//  #10 //080   ----------------------------------------
 BYTE   PATT
  POIN2 Label_0116306F
//  #10 //081   ----------------------------------------
 BYTE   PATT
  POIN2 Label_01163076
//  #10 //082   ----------------------------------------
 BYTE   PATT
  POIN2 Label_0116307B
//  #10 //083   ----------------------------------------
 BYTE   PATT
  POIN2 Label_01163080
//  #10 //084   ----------------------------------------
 BYTE   EOT
 BYTE   Cs3
 BYTE   W36
 BYTE   W01
//  #10 //085   ----------------------------------------
 BYTE   PATT
  POIN2 Label_01163087
//  #10 //086   ----------------------------------------
 BYTE   PATT
  POIN2 Label_0116308E
//  #10 //087   ----------------------------------------
 BYTE   PATT
  POIN2 Label_01163099
//  #10 //088   ----------------------------------------
 BYTE   PATT
  POIN2 Label_011630A4
//  #10 //089   ----------------------------------------
 BYTE   PATT
  POIN2 Label_011630AF
//  #10 //090   ----------------------------------------
 BYTE   PATT
  POIN2 Label_0116308E
//  #10 //091   ----------------------------------------
 BYTE   PATT
  POIN2 Label_01163099
//  #10 //092   ----------------------------------------
 BYTE   PATT
  POIN2 Label_011630A4
//  #10 //093   ----------------------------------------
 BYTE   PATT
  POIN2 Label_011630AF
//  #10 //094   ----------------------------------------
 BYTE   W72
 BYTE   W72
//  #10 //095   ----------------------------------------
 BYTE   W72
 BYTE   W72
//  #10 //096   ----------------------------------------
 BYTE   PATT
  POIN2 Label_011630D2
//  #10 //097   ----------------------------------------
 BYTE   PATT
  POIN2 Label_011630D7
//  #10 //098   ----------------------------------------
 BYTE   EOT
 BYTE   Cs3
 BYTE   W01
//  #10 //099   ----------------------------------------
 BYTE   PATT
  POIN2 Label_011630DD
//  #10 //100   ----------------------------------------
 BYTE   PATT
  POIN2 Label_011630D7
//  #10 //101   ----------------------------------------
 BYTE   EOT
 BYTE   Bn2
 BYTE   W01
//  #10 //102   ----------------------------------------
 BYTE   PATT
  POIN2 Label_011630EA
//  #10 //103   ----------------------------------------
 BYTE   PATT
  POIN2 Label_011630F1
//  #10 //104   ----------------------------------------
 BYTE   PATT
  POIN2 Label_011630F6
//  #10 //105   ----------------------------------------
 BYTE   PATT
  POIN2 Label_011630FC
//  #10 //106   ----------------------------------------
 BYTE   PATT
  POIN2 Label_01163103
//  #10 //107   ----------------------------------------
 BYTE   PATT
  POIN2 Label_01163108
//  #10 //108   ----------------------------------------
 BYTE   PATT
  POIN2 Label_0116310D
//  #10 //109   ----------------------------------------
 BYTE   PATT
  POIN2 Label_01163112
//  #10 //110   ----------------------------------------
 BYTE   EOT
 BYTE   Fn2
 BYTE   W01
//  #10 //111   ----------------------------------------
 BYTE   PATT
  POIN2 Label_01163118
//  #10 //112   ----------------------------------------
 BYTE   PATT
  POIN2 Label_01163080
//  #10 //113   ----------------------------------------
 BYTE   EOT
 BYTE   Ds2
 BYTE   W01
 BYTE   N32  Ds2  v096
 BYTE   W36
//  #10 //114   ----------------------------------------
 BYTE   PATT
  POIN2 Label_01163129
//  #10 //115   ----------------------------------------
 BYTE   W72
//  #10 //116   ----------------------------------------
 BYTE   PATT
  POIN2 Label_01163112
//  #10 //117   ----------------------------------------
 BYTE   EOT
 BYTE   Gs2
 BYTE   W01
 BYTE   W68
 BYTE   W03
 BYTE   FINE

//**************** Track 11 (Midi-Chn.10) ****************//

FireEmblemEngageEnjoytheEveningDivineOneSurfingKyogre1_011:
//  #11 //000   ----------------------------------------
 BYTE   KEYSH   FireEmblemEngageEnjoytheEveningDivineOneSurfingKyogre1_key+0
 BYTE   VOICE   57
 BYTE   VOL   42*FireEmblemEngageEnjoytheEveningDivineOneSurfingKyogre1_mvl/mxv
 BYTE   PAN   c_v+0
 BYTE   VOL   42*FireEmblemEngageEnjoytheEveningDivineOneSurfingKyogre1_mvl/mxv
 BYTE   PAN   c_v+0
 BYTE   W96
//  #11 //001   ----------------------------------------
 BYTE   W96
//  #11 //002   ----------------------------------------
 BYTE   W96
//  #11 //003   ----------------------------------------
 BYTE   W96
//  #11 //004   ----------------------------------------
 BYTE   W96
//  #11 //005   ----------------------------------------
 BYTE   W96
//  #11 //006   ----------------------------------------
 BYTE   W96
//  #11 //007   ----------------------------------------
 BYTE   W96
//  #11 //008   ----------------------------------------
 BYTE   W96
//  #11 //009   ----------------------------------------
 BYTE   W96
//  #11 //010   ----------------------------------------
 BYTE   W96
//  #11 //011   ----------------------------------------
 BYTE   W96
//  #11 //012   ----------------------------------------
 BYTE   W48
Label_01161A25:
 BYTE   W24
 BYTE   N17  As2  v080
 BYTE   W18
 BYTE   N05  Cn3
 BYTE   W06
//  #11 //013   ----------------------------------------
 BYTE   N11  Cs3
 BYTE   W12
 BYTE   N17  Ds3
 BYTE   W18
 BYTE   N05  Cs3
 BYTE   W06
 BYTE   N11  Ds3
 BYTE   W12
 BYTE   N32  Gs2
 BYTE   W36
 BYTE   Cn3
 BYTE   W12
//  #11 //014   ----------------------------------------
 BYTE   W24
 BYTE   Cs3
 BYTE   W36
 BYTE   N17  Fn3
 BYTE   W18
 BYTE   N05  Ds3
 BYTE   W06
 BYTE   N11  Cs3
 BYTE   W12
//  #11 //015   ----------------------------------------
 BYTE   N56  Fn3
 BYTE   W36
 BYTE   W36
 BYTE   N17
 BYTE   W18
 BYTE   N05  Fs3
 BYTE   W06
//  #11 //016   ----------------------------------------
 BYTE   N11  Gs3
 BYTE   W12
 BYTE   N52  Fn3
 BYTE   W36
 BYTE   W18
 BYTE   N05  Fs3
 BYTE   W06
 BYTE   N11  Gs3
 BYTE   W12
 BYTE   N17  Fn3
 BYTE   W12
//  #11 //017   ----------------------------------------
 BYTE   W06
 BYTE   N05  Ds3
 BYTE   W06
 BYTE   N11  Cs3
 BYTE   W12
 BYTE   N44  Ds3
 BYTE   W36
 BYTE   W12
 BYTE   N11  As2
 BYTE   W12
 BYTE   Ds3
 BYTE   W12
//  #11 //018   ----------------------------------------
 BYTE   N56  Fn3
 BYTE   W36
 BYTE   W60
//  #11 //019   ----------------------------------------
 BYTE   W96
//  #11 //020   ----------------------------------------
 BYTE   W96
//  #11 //021   ----------------------------------------
 BYTE   W72
 BYTE   W96
//  #11 //022   ----------------------------------------
 BYTE   W12
 BYTE   W96
//  #11 //023   ----------------------------------------
 BYTE   W12
Label_01161A7E:
 BYTE   N32  Fn3  v080
 BYTE   W36
 BYTE   Gs3
 BYTE   W36
 BYTE   PEND 
Label_01161A85:
 BYTE   N68  Cs4  v080
 BYTE   W72
 BYTE   PEND 
//  #11 //024   ----------------------------------------
Label_01161A8A:
 BYTE   N32  Cn4  v080
 BYTE   W36
 BYTE   Ds3
 BYTE   W36
 BYTE   PEND 
Label_01161A91:
 BYTE   N32  Gs3  v080
 BYTE   W36
//  #11 //025   ----------------------------------------
 BYTE   Ds3
 BYTE   W36
 BYTE   PEND 
Label_01161A98:
 BYTE   N32  Fn3  v080
 BYTE   W36
 BYTE   Cn3
 BYTE   W36
 BYTE   PEND 
//  #11 //026   ----------------------------------------
Label_01161A9F:
 BYTE   TIE  As2  v080
 BYTE   W72
 BYTE   PEND 
Label_01161AA4:
 BYTE   W32
//  #11 //027   ----------------------------------------
 BYTE   W03
 BYTE   PEND 
 BYTE   EOT
 BYTE   As2
 BYTE   W01
 BYTE   N32  Fn3  v080
 BYTE   W36
Label_01161AAE:
 BYTE   N32  Ds3  v080
 BYTE   W36
 BYTE   Gs2
 BYTE   W36
 BYTE   PEND 
//  #11 //028   ----------------------------------------
Label_01161AB5:
 BYTE   N32  Gs2  v080
 BYTE   W72
 BYTE   PEND 
 BYTE   W72
//  #11 //029   ----------------------------------------
 BYTE   W72
 BYTE   W72
//  #11 //030   ----------------------------------------
 BYTE   W72
Label_01161ABE:
 BYTE   N68  Gs2  v080
 BYTE   W72
 BYTE   PEND 
//  #11 //031   ----------------------------------------
Label_01161AC3:
 BYTE   N68  As2  v080
 BYTE   W72
 BYTE   PEND 
Label_01161AC8:
 BYTE   N68  Cn3  v080
 BYTE   W72
 BYTE   PEND 
//  #11 //032   ----------------------------------------
Label_01161ACD:
 BYTE   N32  Cs3  v080
 BYTE   W36
 BYTE   Cs4
 BYTE   W36
 BYTE   PEND 
Label_01161AD4:
 BYTE   N56  Fs3  v080
 BYTE   W36
//  #11 //033   ----------------------------------------
 BYTE   W24
 BYTE   N11  En3
 BYTE   W12
 BYTE   PEND 
Label_01161ADD:
 BYTE   N23  Fs3  v080
 BYTE   W24
 BYTE   N11  Gs3
 BYTE   W24
 BYTE   Bn2
 BYTE   W12
//  #11 //034   ----------------------------------------
 BYTE   Bn3
 BYTE   W12
 BYTE   PEND 
//  #11 //035   ----------------------------------------
 BYTE   PATT
  POIN2 Label_01161AD4
//  #11 //036   ----------------------------------------
Label_01161AEE:
 BYTE   N23  Fs3  v080
 BYTE   W24
 BYTE   Gn3
 BYTE   W12
 BYTE   W12
 BYTE   An3
 BYTE   W24
 BYTE   PEND 
Label_01161AF8:
 BYTE   TIE  Bn3  v080
 BYTE   W04
 BYTE   W05
 BYTE   W04
 BYTE   W05
 BYTE   W05
 BYTE   W04
//  #11 //037   ----------------------------------------
 BYTE   W05
 BYTE   W05
 BYTE   W04
 BYTE   W05
 BYTE   W05
 BYTE   W04
 BYTE   W05
 BYTE   W05
 BYTE   W04
 BYTE   W03
 BYTE   PEND 
Label_01161B0C:
 BYTE   W02
 BYTE   W05
 BYTE   W04
 BYTE   W05
 BYTE   W04
 BYTE   W05
 BYTE   W05
 BYTE   W04
 BYTE   W05
 BYTE   W05
 BYTE   W04
 BYTE   W05
//  #11 //038   ----------------------------------------
 BYTE   W05
 BYTE   W04
 BYTE   W05
 BYTE   W04
 BYTE   PEND 
 BYTE   EOT
 BYTE   Bn3
 BYTE   W01
Label_01161B20:
 BYTE   TIE  Bn3  v052
 BYTE   W72
 BYTE   PEND 
Label_01161B25:
 BYTE   W32
//  #11 //039   ----------------------------------------
 BYTE   W03
 BYTE   PEND 
 BYTE   EOT
 BYTE   Bn3
 BYTE   W19
 BYTE   N05  Cs4  v080
 BYTE   W06
 BYTE   N11  Bn3
 BYTE   W12
Label_01161B32:
 BYTE   N32  Cs4  v080
 BYTE   W36
 BYTE   Ds4
 BYTE   W36
 BYTE   PEND 
//  #11 //040   ----------------------------------------
Label_01161B39:
 BYTE   N68  Gs3  v080
 BYTE   W72
 BYTE   PEND 
Label_01161B3E:
 BYTE   W36
//  #11 //041   ----------------------------------------
 BYTE   N32  Fs3  v080
 BYTE   W36
 BYTE   PEND 
Label_01161B44:
 BYTE   N32  Gs3  v080
 BYTE   W36
 BYTE   Cn4
 BYTE   W36
 BYTE   PEND 
//  #11 //042   ----------------------------------------
Label_01161B4B:
 BYTE   N92  As3  v080
 BYTE   W72
 BYTE   PEND 
Label_01161B50:
 BYTE   W36
//  #11 //043   ----------------------------------------
 BYTE   N32  Ds3  v080
 BYTE   W36
 BYTE   PEND 
Label_01161B56:
 BYTE   TIE  Fn3  v080
 BYTE   W72
 BYTE   PEND 
//  #11 //044   ----------------------------------------
Label_01161B5B:
 BYTE   W68
 BYTE   W03
 BYTE   PEND 
 BYTE   EOT
 BYTE   Fn3
 BYTE   W01
Label_01161B61:
 BYTE   TIE  Cs3  v080
 BYTE   W72
 BYTE   PEND 
//  #11 //045   ----------------------------------------
 BYTE   PATT
  POIN2 Label_01161B5B
//  #11 //046   ----------------------------------------
 BYTE   EOT
 BYTE   Cs3
 BYTE   W01
Label_01161B6E:
 BYTE   N68  Gs2  v052
 BYTE   W72
 BYTE   PEND 
Label_01161B73:
 BYTE   N32  Cs3  v052
 BYTE   W36
//  #11 //047   ----------------------------------------
 BYTE   Fn3
 BYTE   W36
 BYTE   PEND 
Label_01161B7A:
 BYTE   N68  Fn3  v052
 BYTE   W72
 BYTE   PEND 
//  #11 //048   ----------------------------------------
 BYTE   W72
 BYTE   W72
//  #11 //049   ----------------------------------------
 BYTE   W72
 BYTE   W72
//  #11 //050   ----------------------------------------
 BYTE   W72
 BYTE   W72
//  #11 //051   ----------------------------------------
 BYTE   W72
 BYTE   W72
//  #11 //052   ----------------------------------------
 BYTE   W72
 BYTE   W72
//  #11 //053   ----------------------------------------
 BYTE   W72
 BYTE   W72
//  #11 //054   ----------------------------------------
 BYTE   W72
 BYTE   W72
//  #11 //055   ----------------------------------------
 BYTE   W72
 BYTE   W72
//  #11 //056   ----------------------------------------
 BYTE   W72
 BYTE   W48
//  #11 //057   ----------------------------------------
 BYTE   GoTo
  POIN2 Label_01161A25
//  #11 //058   ----------------------------------------
 BYTE   W24
 BYTE   N17  As2  v080
 BYTE   W18
 BYTE   N05  Cn3
 BYTE   W06
 BYTE   N11  Cs3
 BYTE   W12
 BYTE   N17  Ds3
 BYTE   W18
 BYTE   N05  Cs3
 BYTE   W06
 BYTE   N11  Ds3
 BYTE   W12
//  #11 //059   ----------------------------------------
 BYTE   N32  Gs2
 BYTE   W36
 BYTE   Cn3
 BYTE   W36
 BYTE   Cs3
 BYTE   W36
//  #11 //060   ----------------------------------------
 BYTE   N17  Fn3
 BYTE   W18
 BYTE   N05  Ds3
 BYTE   W06
 BYTE   N11  Cs3
 BYTE   W12
Label_01161BBA:
 BYTE   N56  Fn3  v080
 BYTE   W36
 BYTE   W36
 BYTE   PEND 
//  #11 //061   ----------------------------------------
 BYTE   N17
 BYTE   W18
 BYTE   N05  Fs3
 BYTE   W06
 BYTE   N11  Gs3
 BYTE   W12
 BYTE   N52  Fn3
 BYTE   W36
 BYTE   W18
 BYTE   N05  Fs3
 BYTE   W06
//  #11 //062   ----------------------------------------
 BYTE   N11  Gs3
 BYTE   W12
 BYTE   N17  Fn3
 BYTE   W18
 BYTE   N05  Ds3
 BYTE   W06
 BYTE   N11  Cs3
 BYTE   W12
 BYTE   N44  Ds3
 BYTE   W36
 BYTE   W12
//  #11 //063   ----------------------------------------
 BYTE   N11  As2
 BYTE   W12
 BYTE   Ds3
 BYTE   W12
//  #11 //064   ----------------------------------------
 BYTE   PATT
  POIN2 Label_01161BBA
//  #11 //065   ----------------------------------------
 BYTE   W72
 BYTE   W72
//  #11 //066   ----------------------------------------
 BYTE   W72
 BYTE   W72
//  #11 //067   ----------------------------------------
 BYTE   W96
//  #11 //068   ----------------------------------------
 BYTE   W12
 BYTE   W96
//  #11 //069   ----------------------------------------
 BYTE   W12
//  #11 //070   ----------------------------------------
 BYTE   PATT
  POIN2 Label_01161A7E
//  #11 //071   ----------------------------------------
 BYTE   PATT
  POIN2 Label_01161A85
//  #11 //072   ----------------------------------------
 BYTE   PATT
  POIN2 Label_01161A8A
//  #11 //073   ----------------------------------------
 BYTE   PATT
  POIN2 Label_01161A91
//  #11 //074   ----------------------------------------
 BYTE   PATT
  POIN2 Label_01161A98
//  #11 //075   ----------------------------------------
 BYTE   PATT
  POIN2 Label_01161A9F
//  #11 //076   ----------------------------------------
 BYTE   PATT
  POIN2 Label_01161AA4
//  #11 //077   ----------------------------------------
 BYTE   EOT
 BYTE   As2
 BYTE   W01
 BYTE   N32  Fn3  v080
 BYTE   W36
//  #11 //078   ----------------------------------------
 BYTE   PATT
  POIN2 Label_01161AAE
//  #11 //079   ----------------------------------------
 BYTE   PATT
  POIN2 Label_01161AB5
//  #11 //080   ----------------------------------------
 BYTE   W72
 BYTE   W72
//  #11 //081   ----------------------------------------
 BYTE   W72
 BYTE   W72
//  #11 //082   ----------------------------------------
 BYTE   PATT
  POIN2 Label_01161ABE
//  #11 //083   ----------------------------------------
 BYTE   PATT
  POIN2 Label_01161AC3
//  #11 //084   ----------------------------------------
 BYTE   PATT
  POIN2 Label_01161AC8
//  #11 //085   ----------------------------------------
 BYTE   PATT
  POIN2 Label_01161ACD
//  #11 //086   ----------------------------------------
 BYTE   PATT
  POIN2 Label_01161AD4
//  #11 //087   ----------------------------------------
 BYTE   PATT
  POIN2 Label_01161ADD
//  #11 //088   ----------------------------------------
 BYTE   PATT
  POIN2 Label_01161AD4
//  #11 //089   ----------------------------------------
 BYTE   PATT
  POIN2 Label_01161AEE
//  #11 //090   ----------------------------------------
 BYTE   PATT
  POIN2 Label_01161AF8
//  #11 //091   ----------------------------------------
 BYTE   PATT
  POIN2 Label_01161B0C
//  #11 //092   ----------------------------------------
 BYTE   EOT
 BYTE   Bn3
 BYTE   W01
//  #11 //093   ----------------------------------------
 BYTE   PATT
  POIN2 Label_01161B20
//  #11 //094   ----------------------------------------
 BYTE   PATT
  POIN2 Label_01161B25
//  #11 //095   ----------------------------------------
 BYTE   EOT
 BYTE   Bn3
 BYTE   W19
 BYTE   N05  Cs4  v080
 BYTE   W06
 BYTE   N11  Bn3
 BYTE   W12
//  #11 //096   ----------------------------------------
 BYTE   PATT
  POIN2 Label_01161B32
//  #11 //097   ----------------------------------------
 BYTE   PATT
  POIN2 Label_01161B39
//  #11 //098   ----------------------------------------
 BYTE   PATT
  POIN2 Label_01161B3E
//  #11 //099   ----------------------------------------
 BYTE   PATT
  POIN2 Label_01161B44
//  #11 //100   ----------------------------------------
 BYTE   PATT
  POIN2 Label_01161B4B
//  #11 //101   ----------------------------------------
 BYTE   PATT
  POIN2 Label_01161B50
//  #11 //102   ----------------------------------------
 BYTE   PATT
  POIN2 Label_01161B56
//  #11 //103   ----------------------------------------
 BYTE   PATT
  POIN2 Label_01161B5B
//  #11 //104   ----------------------------------------
 BYTE   EOT
 BYTE   Fn3
 BYTE   W01
//  #11 //105   ----------------------------------------
 BYTE   PATT
  POIN2 Label_01161B61
//  #11 //106   ----------------------------------------
 BYTE   PATT
  POIN2 Label_01161B5B
//  #11 //107   ----------------------------------------
 BYTE   EOT
 BYTE   Cs3
 BYTE   W01
//  #11 //108   ----------------------------------------
 BYTE   PATT
  POIN2 Label_01161B6E
//  #11 //109   ----------------------------------------
 BYTE   PATT
  POIN2 Label_01161B73
//  #11 //110   ----------------------------------------
 BYTE   PATT
  POIN2 Label_01161B7A
//  #11 //111   ----------------------------------------
 BYTE   W68
 BYTE   W03
 BYTE   FINE

//**************** Track 12 (Midi-Chn.11) ****************//

FireEmblemEngageEnjoytheEveningDivineOneSurfingKyogre1_012:
//  #12 //000   ----------------------------------------
 BYTE   KEYSH   FireEmblemEngageEnjoytheEveningDivineOneSurfingKyogre1_key+0
 BYTE   VOICE   49
 BYTE   VOL   42*FireEmblemEngageEnjoytheEveningDivineOneSurfingKyogre1_mvl/mxv
 BYTE   PAN   c_v+0
 BYTE   N68  Cs2  v080
 BYTE   W72
 BYTE   Fs1
 BYTE   W24
//  #12 //001   ----------------------------------------
 BYTE   W48
 BYTE   Fn1
 BYTE   W48
//  #12 //002   ----------------------------------------
 BYTE   W24
 BYTE   As1
 BYTE   W72
//  #12 //003   ----------------------------------------
 BYTE   Ds1  v064
 BYTE   W72
 BYTE   Fn1
 BYTE   W24
//  #12 //004   ----------------------------------------
 BYTE   W48
 BYTE   Fs1
 BYTE   W48
//  #12 //005   ----------------------------------------
 BYTE   W24
 BYTE   Gs1
 BYTE   W72
//  #12 //006   ----------------------------------------
 BYTE   N32  Ds1
 BYTE   W36
 BYTE   TIE  Fn1
 BYTE   W36
 BYTE   W24
//  #12 //007   ----------------------------------------
 BYTE   W44
 BYTE   W03
 BYTE   EOT
 BYTE   W01
 BYTE   N68  Gs1
 BYTE   W48
//  #12 //008   ----------------------------------------
 BYTE   W24
 BYTE   Cs2
 BYTE   W72
//  #12 //009   ----------------------------------------
 BYTE   Fs1
 BYTE   W72
 BYTE   Bn1
 BYTE   W24
//  #12 //010   ----------------------------------------
 BYTE   W48
 BYTE   N32  Cn2
 BYTE   W36
 BYTE   Fn2
 BYTE   W12
//  #12 //011   ----------------------------------------
 BYTE   W24
 BYTE   TIE  As1
 BYTE   W72
//  #12 //012   ----------------------------------------
Label_01161D7A:
 BYTE   W32
 BYTE   W03
 BYTE   PEND 
 BYTE   EOT
 BYTE   As1
 BYTE   W13
Label_01161D80:
 BYTE   W24
 BYTE   N68  Cs2  v080
 BYTE   W24
//  #12 //013   ----------------------------------------
 BYTE   W48
 BYTE   Ds2
 BYTE   W48
//  #12 //014   ----------------------------------------
 BYTE   W24
 BYTE   N32  Fn2
 BYTE   W36
 BYTE   Ds2
 BYTE   W36
//  #12 //015   ----------------------------------------
 BYTE   N68  Fn2
 BYTE   W72
 BYTE   Cs2
 BYTE   W24
//  #12 //016   ----------------------------------------
 BYTE   W48
 BYTE   N32
 BYTE   W36
 BYTE   As1
 BYTE   W12
//  #12 //017   ----------------------------------------
 BYTE   W24
 BYTE   N68  Cn2
 BYTE   W72
//  #12 //018   ----------------------------------------
 BYTE   Fn2
 BYTE   W96
//  #12 //019   ----------------------------------------
 BYTE   W12
 BYTE   N32  Cs2
 BYTE   W36
 BYTE   N68  Cn2
 BYTE   W48
//  #12 //020   ----------------------------------------
 BYTE   W24
 BYTE   N32  Cs2
 BYTE   W36
 BYTE   Gs1
 BYTE   W36
//  #12 //021   ----------------------------------------
Label_01161DAB:
 BYTE   N32  Cs2  v080
 BYTE   W72
 BYTE   PEND 
Label_01161DB0:
 BYTE   TIE  Fn2  v080
 BYTE   W72
//  #12 //022   ----------------------------------------
 BYTE   W32
 BYTE   W03
 BYTE   PEND 
 BYTE   EOT
 BYTE   W01
Label_01161DB9:
 BYTE   N80  En2  v080
 BYTE   W72
//  #12 //023   ----------------------------------------
 BYTE   W36
 BYTE   PEND 
 BYTE   W72
//  #12 //024   ----------------------------------------
Label_01161DC0:
 BYTE   N68  Fn1  v080
 BYTE   W72
 BYTE   PEND 
Label_01161DC5:
 BYTE   N68  Gs1  v080
 BYTE   W72
 BYTE   PEND 
//  #12 //025   ----------------------------------------
Label_01161DCA:
 BYTE   W36
 BYTE   N32  Fn2  v080
 BYTE   W36
 BYTE   PEND 
Label_01161DD0:
 BYTE   N32  Gs2  v080
 BYTE   W36
//  #12 //026   ----------------------------------------
 BYTE   Cn2
 BYTE   W36
 BYTE   PEND 
Label_01161DD7:
 BYTE   N68  Ds2  v080
 BYTE   W72
 BYTE   PEND 
//  #12 //027   ----------------------------------------
Label_01161DDC:
 BYTE   TIE  Cs2  v080
 BYTE   W72
 BYTE   PEND 
Label_01161DE1:
 BYTE   W01
 BYTE   W01
 BYTE   W01
 BYTE   W01
 BYTE   W01
 BYTE   W02
 BYTE   W01
 BYTE   W01
 BYTE   W01
 BYTE   W01
 BYTE   W01
 BYTE   W01
 BYTE   W02
 BYTE   W01
 BYTE   W01
 BYTE   W01
 BYTE   W01
 BYTE   W01
 BYTE   W02
 BYTE   W01
 BYTE   W01
//  #12 //028   ----------------------------------------
 BYTE   W01
 BYTE   W01
 BYTE   W01
 BYTE   W02
 BYTE   W01
 BYTE   W01
 BYTE   W01
 BYTE   W01
 BYTE   W01
 BYTE   W01
 BYTE   PEND 
 BYTE   EOT
 BYTE   Cs2
 BYTE   W01
 BYTE   W36
 BYTE   W72
//  #12 //029   ----------------------------------------
Label_01161E06:
 BYTE   N11  Fn2  v096
 BYTE   W12
 BYTE   N11
 BYTE   W24
 BYTE   N11
 BYTE   W24
 BYTE   N11
 BYTE   W12
 BYTE   PEND 
Label_01161E11:
 BYTE   N11  Fs2  v096
 BYTE   W12
 BYTE   N11
 BYTE   W24
//  #12 //030   ----------------------------------------
 BYTE   N11
 BYTE   W24
 BYTE   N11
 BYTE   W12
 BYTE   PEND 
Label_01161E1C:
 BYTE   N11  As2  v096
 BYTE   W12
 BYTE   N11
 BYTE   W24
 BYTE   N11
 BYTE   W24
//  #12 //031   ----------------------------------------
 BYTE   N11
 BYTE   W12
 BYTE   PEND 
Label_01161E27:
 BYTE   N11  Gs2  v096
 BYTE   W12
 BYTE   N11
 BYTE   W24
 BYTE   N11
 BYTE   W24
 BYTE   N11
 BYTE   W12
 BYTE   PEND 
//  #12 //032   ----------------------------------------
 BYTE   PATT
  POIN2 Label_01161E06
//  #12 //033   ----------------------------------------
 BYTE   PATT
  POIN2 Label_01161E11
//  #12 //034   ----------------------------------------
 BYTE   PATT
  POIN2 Label_01161E1C
//  #12 //035   ----------------------------------------
 BYTE   PATT
  POIN2 Label_01161E27
//  #12 //036   ----------------------------------------
Label_01161E46:
 BYTE   N56  Fs2  v080
 BYTE   W36
 BYTE   W24
 BYTE   N11  En2
 BYTE   W12
 BYTE   PEND 
Label_01161E4F:
 BYTE   N23  Fs2  v080
 BYTE   W24
//  #12 //037   ----------------------------------------
 BYTE   Gs2
 BYTE   W24
 BYTE   N11  Bn1
 BYTE   W12
 BYTE   Bn2
 BYTE   W12
 BYTE   PEND 
//  #12 //038   ----------------------------------------
 BYTE   PATT
  POIN2 Label_01161E46
//  #12 //039   ----------------------------------------
Label_01161E60:
 BYTE   N23  Fs2  v080
 BYTE   W24
 BYTE   Gn2
 BYTE   W12
 BYTE   W12
 BYTE   An2
 BYTE   W24
 BYTE   PEND 
Label_01161E6A:
 BYTE   N72  An2  v096
 BYTE   W72
 BYTE   PEND 
//  #12 //040   ----------------------------------------
Label_01161E6F:
 BYTE   N68  An2  v096
 BYTE   W72
 BYTE   PEND 
Label_01161E74:
 BYTE   N72  Gs2  v096
 BYTE   W72
 BYTE   PEND 
//  #12 //041   ----------------------------------------
Label_01161E79:
 BYTE   N32  Gs2  v096
 BYTE   W72
 BYTE   PEND 
Label_01161E7E:
 BYTE   N32  As1  v096
 BYTE   W36
//  #12 //042   ----------------------------------------
 BYTE   Cn2
 BYTE   W36
 BYTE   PEND 
Label_01161E85:
 BYTE   N68  Fn1  v096
 BYTE   W72
 BYTE   PEND 
//  #12 //043   ----------------------------------------
Label_01161E8A:
 BYTE   W36
 BYTE   N32  As1  v096
 BYTE   W36
 BYTE   PEND 
Label_01161E90:
 BYTE   N32  Cn2  v096
 BYTE   W36
//  #12 //044   ----------------------------------------
 BYTE   Fn1
 BYTE   W36
 BYTE   PEND 
Label_01161E97:
 BYTE   N68  Ds2  v096
 BYTE   W72
 BYTE   PEND 
//  #12 //045   ----------------------------------------
Label_01161E9C:
 BYTE   N68  Cs2  v096
 BYTE   W72
 BYTE   PEND 
Label_01161EA1:
 BYTE   TIE  Ds2  v096
 BYTE   W72
 BYTE   PEND 
//  #12 //046   ----------------------------------------
Label_01161EA6:
 BYTE   W68
 BYTE   W03
 BYTE   PEND 
 BYTE   EOT
 BYTE   Ds2
 BYTE   W01
//  #12 //047   ----------------------------------------
 BYTE   PATT
  POIN2 Label_01161EA1
//  #12 //048   ----------------------------------------
Label_01161EB1:
 BYTE   W32
 BYTE   W03
 BYTE   PEND 
 BYTE   EOT
 BYTE   Ds2
 BYTE   W01
 BYTE   N32  As1  v096
 BYTE   W36
Label_01161EBB:
 BYTE   TIE  Cs2  v096
 BYTE   W72
 BYTE   PEND 
//  #12 //049   ----------------------------------------
 BYTE   W72
//  #12 //050   ----------------------------------------
 BYTE   PATT
  POIN2 Label_01161EA6
//  #12 //051   ----------------------------------------
 BYTE   EOT
 BYTE   Cs2
 BYTE   W01
 BYTE   W72
Label_01161ECA:
 BYTE   N68  Cs2  v080
 BYTE   W72
 BYTE   PEND 
//  #12 //052   ----------------------------------------
 BYTE   Fs1
 BYTE   W72
//  #12 //053   ----------------------------------------
 BYTE   PATT
  POIN2 Label_01161DC0
//  #12 //054   ----------------------------------------
 BYTE   N68  As1  v080
 BYTE   W72
 BYTE   Ds1  v064
 BYTE   W72
//  #12 //055   ----------------------------------------
 BYTE   Fn1
 BYTE   W72
Label_01161EDF:
 BYTE   N68  Fs1  v064
 BYTE   W72
 BYTE   PEND 
//  #12 //056   ----------------------------------------
Label_01161EE4:
 BYTE   N68  Gs1  v064
 BYTE   W72
 BYTE   PEND 
 BYTE   N32  Ds1
 BYTE   W36
//  #12 //057   ----------------------------------------
 BYTE   TIE  Fn1
 BYTE   W36
 BYTE   W68
//  #12 //058   ----------------------------------------
 BYTE   W03
 BYTE   EOT
 BYTE   W01
//  #12 //059   ----------------------------------------
 BYTE   PATT
  POIN2 Label_01161EE4
//  #12 //060   ----------------------------------------
 BYTE   N68  Cs2  v064
 BYTE   W72
//  #12 //061   ----------------------------------------
 BYTE   PATT
  POIN2 Label_01161EDF
//  #12 //062   ----------------------------------------
 BYTE   N68  Bn1  v064
 BYTE   W72
 BYTE   N32  Cn2
 BYTE   W36
//  #12 //063   ----------------------------------------
 BYTE   Fn2
 BYTE   W36
 BYTE   TIE  As1
 BYTE   W72
//  #12 //064   ----------------------------------------
 BYTE   PATT
  POIN2 Label_01161D7A
//  #12 //065   ----------------------------------------
 BYTE   EOT
 BYTE   As1
 BYTE   W13
 BYTE   GoTo
  POIN2 Label_01161D80
//  #12 //066   ----------------------------------------
 BYTE   W24
//  #12 //067   ----------------------------------------
 BYTE   PATT
  POIN2 Label_01161ECA
//  #12 //068   ----------------------------------------
 BYTE   PATT
  POIN2 Label_01161DD7
//  #12 //069   ----------------------------------------
 BYTE   N32  Fn2  v080
 BYTE   W36
 BYTE   Ds2
 BYTE   W36
Label_01161F2B:
 BYTE   N68  Fn2  v080
 BYTE   W72
 BYTE   PEND 
//  #12 //070   ----------------------------------------
 BYTE   PATT
  POIN2 Label_01161ECA
//  #12 //071   ----------------------------------------
 BYTE   N32  Cs2  v080
 BYTE   W36
 BYTE   As1
 BYTE   W36
Label_01161F3B:
 BYTE   N68  Cn2  v080
 BYTE   W72
 BYTE   PEND 
//  #12 //072   ----------------------------------------
 BYTE   PATT
  POIN2 Label_01161F2B
//  #12 //073   ----------------------------------------
 BYTE   W36
 BYTE   N32  Cs2  v080
 BYTE   W36
//  #12 //074   ----------------------------------------
 BYTE   PATT
  POIN2 Label_01161F3B
//  #12 //075   ----------------------------------------
 BYTE   N32  Cs2  v080
 BYTE   W36
 BYTE   Gs1
 BYTE   W36
//  #12 //076   ----------------------------------------
 BYTE   PATT
  POIN2 Label_01161DAB
//  #12 //077   ----------------------------------------
 BYTE   PATT
  POIN2 Label_01161DB0
//  #12 //078   ----------------------------------------
 BYTE   EOT
 BYTE   Fn2
 BYTE   W01
//  #12 //079   ----------------------------------------
 BYTE   PATT
  POIN2 Label_01161DB9
//  #12 //080   ----------------------------------------
 BYTE   W72
//  #12 //081   ----------------------------------------
 BYTE   PATT
  POIN2 Label_01161DC0
//  #12 //082   ----------------------------------------
 BYTE   PATT
  POIN2 Label_01161DC5
//  #12 //083   ----------------------------------------
 BYTE   PATT
  POIN2 Label_01161DCA
//  #12 //084   ----------------------------------------
 BYTE   PATT
  POIN2 Label_01161DD0
//  #12 //085   ----------------------------------------
 BYTE   PATT
  POIN2 Label_01161DD7
//  #12 //086   ----------------------------------------
 BYTE   PATT
  POIN2 Label_01161DDC
//  #12 //087   ----------------------------------------
 BYTE   PATT
  POIN2 Label_01161DE1
//  #12 //088   ----------------------------------------
 BYTE   EOT
 BYTE   Cs2
 BYTE   W01
 BYTE   W36
 BYTE   W72
//  #12 //089   ----------------------------------------
 BYTE   PATT
  POIN2 Label_01161E06
//  #12 //090   ----------------------------------------
 BYTE   PATT
  POIN2 Label_01161E11
//  #12 //091   ----------------------------------------
 BYTE   PATT
  POIN2 Label_01161E1C
//  #12 //092   ----------------------------------------
 BYTE   PATT
  POIN2 Label_01161E27
//  #12 //093   ----------------------------------------
 BYTE   PATT
  POIN2 Label_01161E06
//  #12 //094   ----------------------------------------
 BYTE   PATT
  POIN2 Label_01161E11
//  #12 //095   ----------------------------------------
 BYTE   PATT
  POIN2 Label_01161E1C
//  #12 //096   ----------------------------------------
 BYTE   PATT
  POIN2 Label_01161E27
//  #12 //097   ----------------------------------------
 BYTE   PATT
  POIN2 Label_01161E46
//  #12 //098   ----------------------------------------
 BYTE   PATT
  POIN2 Label_01161E4F
//  #12 //099   ----------------------------------------
 BYTE   PATT
  POIN2 Label_01161E46
//  #12 //100   ----------------------------------------
 BYTE   PATT
  POIN2 Label_01161E60
//  #12 //101   ----------------------------------------
 BYTE   PATT
  POIN2 Label_01161E6A
//  #12 //102   ----------------------------------------
 BYTE   PATT
  POIN2 Label_01161E6F
//  #12 //103   ----------------------------------------
 BYTE   PATT
  POIN2 Label_01161E74
//  #12 //104   ----------------------------------------
 BYTE   PATT
  POIN2 Label_01161E79
//  #12 //105   ----------------------------------------
 BYTE   PATT
  POIN2 Label_01161E7E
//  #12 //106   ----------------------------------------
 BYTE   PATT
  POIN2 Label_01161E85
//  #12 //107   ----------------------------------------
 BYTE   PATT
  POIN2 Label_01161E8A
//  #12 //108   ----------------------------------------
 BYTE   PATT
  POIN2 Label_01161E90
//  #12 //109   ----------------------------------------
 BYTE   PATT
  POIN2 Label_01161E97
//  #12 //110   ----------------------------------------
 BYTE   PATT
  POIN2 Label_01161E9C
//  #12 //111   ----------------------------------------
 BYTE   PATT
  POIN2 Label_01161EA1
//  #12 //112   ----------------------------------------
 BYTE   PATT
  POIN2 Label_01161EA6
//  #12 //113   ----------------------------------------
 BYTE   EOT
 BYTE   Ds2
 BYTE   W01
//  #12 //114   ----------------------------------------
 BYTE   PATT
  POIN2 Label_01161EA1
//  #12 //115   ----------------------------------------
 BYTE   PATT
  POIN2 Label_01161EB1
//  #12 //116   ----------------------------------------
 BYTE   EOT
 BYTE   Ds2
 BYTE   W01
 BYTE   N32  As1  v096
 BYTE   W36
//  #12 //117   ----------------------------------------
 BYTE   PATT
  POIN2 Label_01161EBB
//  #12 //118   ----------------------------------------
 BYTE   W72
//  #12 //119   ----------------------------------------
 BYTE   PATT
  POIN2 Label_01161EA6
//  #12 //120   ----------------------------------------
 BYTE   EOT
 BYTE   Cs2
 BYTE   W01
 BYTE   W68
 BYTE   W03
 BYTE   FINE

//******************************************************//
	ALIGN 4

FireEmblemEngageEnjoytheEveningDivineOneSurfingKyogre1:
	BYTE	12	// NumTrks
	BYTE	0	// NumBlks
	BYTE	FireEmblemEngageEnjoytheEveningDivineOneSurfingKyogre1_pri	// Priority
	BYTE	FireEmblemEngageEnjoytheEveningDivineOneSurfingKyogre1_rev	// Reverb.
    
	POIN2	FireEmblemEngageEnjoytheEveningDivineOneSurfingKyogre1_grp
    
	POIN2	FireEmblemEngageEnjoytheEveningDivineOneSurfingKyogre1_001
	POIN2	FireEmblemEngageEnjoytheEveningDivineOneSurfingKyogre1_002
	POIN2	FireEmblemEngageEnjoytheEveningDivineOneSurfingKyogre1_003
	POIN2	FireEmblemEngageEnjoytheEveningDivineOneSurfingKyogre1_004
	POIN2	FireEmblemEngageEnjoytheEveningDivineOneSurfingKyogre1_005
	POIN2	FireEmblemEngageEnjoytheEveningDivineOneSurfingKyogre1_006
	POIN2	FireEmblemEngageEnjoytheEveningDivineOneSurfingKyogre1_007
	POIN2	FireEmblemEngageEnjoytheEveningDivineOneSurfingKyogre1_008
	POIN2	FireEmblemEngageEnjoytheEveningDivineOneSurfingKyogre1_009
	POIN2	FireEmblemEngageEnjoytheEveningDivineOneSurfingKyogre1_010
	POIN2	FireEmblemEngageEnjoytheEveningDivineOneSurfingKyogre1_011
	POIN2	FireEmblemEngageEnjoytheEveningDivineOneSurfingKyogre1_012

	
