//Event file generated from Sappy .s format.
	#include "MPlayDef.event"

	#define	FireEmblemEngage_AnotherDayofTraining_grp  voicegroup000
	#define	FireEmblemEngage_AnotherDayofTraining_pri  0
	#define	FireEmblemEngage_AnotherDayofTraining_rev  0
	#define	FireEmblemEngage_AnotherDayofTraining_mvl  127
	#define	FireEmblemEngage_AnotherDayofTraining_key  0
	#define	FireEmblemEngage_AnotherDayofTraining_tbs  1
	#define	FireEmblemEngage_AnotherDayofTraining_exg  0
	#define	FireEmblemEngage_AnotherDayofTraining_cmp  1

	// .rodata
	//	FireEmblemEngage_AnotherDayofTraining
	ALIGN 4


//**************** Track 1 (Midi-Chn.0) ****************//

FireEmblemEngage_AnotherDayofTraining_001:
//  #01 //000   ----------------------------------------
 BYTE   KEYSH   FireEmblemEngage_AnotherDayofTraining_key+0
 BYTE   TEMPO   112*FireEmblemEngage_AnotherDayofTraining_tbs/2
 BYTE   VOICE   44
 BYTE   MODT 0
 BYTE   LFOS 44
 BYTE   VOL   85*FireEmblemEngage_AnotherDayofTraining_mvl/mxv
 BYTE   PAN   c_v+0
 BYTE   W96
//  #01 //001   ----------------------------------------
 BYTE   W96
//  #01 //002   ----------------------------------------
Label_0148A2E0:
 BYTE   W96
//  #01 //003   ----------------------------------------
 BYTE   W96
//  #01 //004   ----------------------------------------
 BYTE   W96
//  #01 //005   ----------------------------------------
 BYTE   W96
//  #01 //006   ----------------------------------------
 BYTE   W96
//  #01 //007   ----------------------------------------
 BYTE   W96
//  #01 //008   ----------------------------------------
 BYTE   W96
//  #01 //009   ----------------------------------------
 BYTE   W96
//  #01 //010   ----------------------------------------
Label_0148A2E8:
 BYTE   N44  As5  v020
 BYTE   W48
 BYTE   Cn6
 BYTE   W48
 BYTE   PEND 
//  #01 //011   ----------------------------------------
Label_0148A2EF:
 BYTE   N44  Cs6  v020
 BYTE   W48
 BYTE   Ds6
 BYTE   W48
 BYTE   PEND 
//  #01 //012   ----------------------------------------
 BYTE   PATT
  POIN2 Label_0148A2E8
//  #01 //013   ----------------------------------------
 BYTE   N44  Cs6  v020
 BYTE   W96
//  #01 //014   ----------------------------------------
 BYTE   PATT
  POIN2 Label_0148A2EF
//  #01 //015   ----------------------------------------
 BYTE   N44  En6  v020
 BYTE   W48
 BYTE   Fs6
 BYTE   W48
//  #01 //016   ----------------------------------------
 BYTE   PATT
  POIN2 Label_0148A2EF
//  #01 //017   ----------------------------------------
 BYTE   N44  En6  v020
 BYTE   W96
//  #01 //018   ----------------------------------------
 BYTE   PATT
  POIN2 Label_0148A2E8
//  #01 //019   ----------------------------------------
 BYTE   PATT
  POIN2 Label_0148A2EF
//  #01 //020   ----------------------------------------
 BYTE   PATT
  POIN2 Label_0148A2E8
//  #01 //021   ----------------------------------------
 BYTE   N44  Cs6  v020
 BYTE   W96
//  #01 //022   ----------------------------------------
 BYTE   W96
//  #01 //023   ----------------------------------------
 BYTE   W96
//  #01 //024   ----------------------------------------
 BYTE   W96
//  #01 //025   ----------------------------------------
 BYTE   W96
//  #01 //026   ----------------------------------------
 BYTE   W96
//  #01 //027   ----------------------------------------
 BYTE   W90
 BYTE   GoTo
  POIN2 Label_0148A2E0
//  #01 //028   ----------------------------------------
 BYTE   W06
 BYTE   W96
//  #01 //029   ----------------------------------------
 BYTE   W72
 BYTE   W01
 BYTE   FINE

//**************** Track 2 (Midi-Chn.1) ****************//

FireEmblemEngage_AnotherDayofTraining_002:
//  #02 //000   ----------------------------------------
 BYTE   KEYSH   FireEmblemEngage_AnotherDayofTraining_key+0
 BYTE   VOICE   56
 BYTE   MODT 0
 BYTE   LFOS 44
 BYTE   VOL   85*FireEmblemEngage_AnotherDayofTraining_mvl/mxv
 BYTE   PAN   c_v+0
 BYTE   W96
//  #02 //001   ----------------------------------------
 BYTE   W96
//  #02 //002   ----------------------------------------
Label_0148D55E:
 BYTE   W12
 BYTE   N05  As3  v084
 BYTE   W06
 BYTE   Cn4
 BYTE   W06
 BYTE   N23  Cs4
 BYTE   W24
 BYTE   N05  Cn4
 BYTE   W12
 BYTE   Gs3
 BYTE   W12
 BYTE   As3
 BYTE   W12
 BYTE   Ds4
 BYTE   W12
//  #02 //003   ----------------------------------------
 BYTE   W12
 BYTE   N11  Cn4
 BYTE   W12
 BYTE   Cs4
 BYTE   W12
 BYTE   N02  Cn4
 BYTE   W03
 BYTE   Cs4
 BYTE   W03
 BYTE   N05  Cn4
 BYTE   W06
 BYTE   As3
 BYTE   W12
 BYTE   Cn4
 BYTE   W12
 BYTE   Gs3
 BYTE   W12
 BYTE   As3
 BYTE   W12
//  #02 //004   ----------------------------------------
 BYTE   W12
 BYTE   N05
 BYTE   W06
 BYTE   Cn4
 BYTE   W06
 BYTE   N23  Cs4
 BYTE   W24
 BYTE   N05  Cn4
 BYTE   W12
 BYTE   Gs3
 BYTE   W12
 BYTE   As3
 BYTE   W12
 BYTE   N11  Ds4
 BYTE   W12
//  #02 //005   ----------------------------------------
Label_0148D599:
 BYTE   W12
 BYTE   N11  Cn4  v084
 BYTE   W84
 BYTE   PEND 
//  #02 //006   ----------------------------------------
 BYTE   W12
 BYTE   N05  Cs4
 BYTE   W06
 BYTE   Ds4
 BYTE   W06
 BYTE   N23  En4
 BYTE   W24
 BYTE   N05  Ds4
 BYTE   W12
 BYTE   Bn3
 BYTE   W12
 BYTE   Cs4
 BYTE   W12
 BYTE   N11  Fs4
 BYTE   W12
//  #02 //007   ----------------------------------------
 BYTE   W12
 BYTE   Ds4
 BYTE   W12
 BYTE   En4
 BYTE   W12
 BYTE   N02  Ds4
 BYTE   W03
 BYTE   En4
 BYTE   W03
 BYTE   N05  Ds4
 BYTE   W06
 BYTE   Cs4
 BYTE   W12
 BYTE   Ds4
 BYTE   W12
 BYTE   Bn3
 BYTE   W12
 BYTE   Cs4
 BYTE   W12
//  #02 //008   ----------------------------------------
 BYTE   W12
 BYTE   N05
 BYTE   W06
 BYTE   Ds4
 BYTE   W06
 BYTE   N23  En4
 BYTE   W24
 BYTE   N05  Ds4
 BYTE   W12
 BYTE   Bn3
 BYTE   W12
 BYTE   Cs4
 BYTE   W12
 BYTE   Fs4
 BYTE   W12
//  #02 //009   ----------------------------------------
Label_0148D5D8:
 BYTE   W12
 BYTE   N11  Ds4  v084
 BYTE   W84
 BYTE   PEND 
//  #02 //010   ----------------------------------------
Label_0148D5DE:
 BYTE   W12
 BYTE   N05  As3  v084
 BYTE   W06
 BYTE   Cn4
 BYTE   W06
 BYTE   N23  Cs4
 BYTE   W24
 BYTE   N05  Cn4
 BYTE   W12
 BYTE   Gs3
 BYTE   W12
 BYTE   As3
 BYTE   W12
 BYTE   Ds4
 BYTE   W12
 BYTE   PEND 
//  #02 //011   ----------------------------------------
Label_0148D5F2:
 BYTE   W12
 BYTE   N11  Cn4  v084
 BYTE   W12
 BYTE   Cs4
 BYTE   W12
 BYTE   N02  Cn4
 BYTE   W03
 BYTE   Cs4
 BYTE   W03
 BYTE   N05  Cn4
 BYTE   W06
 BYTE   As3
 BYTE   W12
 BYTE   Cn4
 BYTE   W12
 BYTE   Gs3
 BYTE   W12
 BYTE   As3
 BYTE   W12
 BYTE   PEND 
//  #02 //012   ----------------------------------------
Label_0148D60A:
 BYTE   W12
 BYTE   N05  As3  v084
 BYTE   W06
 BYTE   Cn4
 BYTE   W06
 BYTE   N23  Cs4
 BYTE   W24
 BYTE   N05  Cn4
 BYTE   W12
 BYTE   Gs3
 BYTE   W12
 BYTE   As3
 BYTE   W12
 BYTE   N11  Ds4
 BYTE   W12
 BYTE   PEND 
//  #02 //013   ----------------------------------------
 BYTE   PATT
  POIN2 Label_0148D599
//  #02 //014   ----------------------------------------
 BYTE   W12
 BYTE   N05  Cs4  v084
 BYTE   W06
 BYTE   Ds4
 BYTE   W06
 BYTE   N23  En4
 BYTE   W24
 BYTE   N05  Ds4
 BYTE   W12
 BYTE   Bn3
 BYTE   W12
 BYTE   Cs4
 BYTE   W12
 BYTE   N11  Fs4
 BYTE   W12
//  #02 //015   ----------------------------------------
 BYTE   W12
 BYTE   Ds4
 BYTE   W12
 BYTE   En4
 BYTE   W12
 BYTE   N02  Ds4
 BYTE   W03
 BYTE   En4
 BYTE   W03
 BYTE   N05  Ds4
 BYTE   W06
 BYTE   Cs4
 BYTE   W12
 BYTE   Ds4
 BYTE   W12
 BYTE   Bn3
 BYTE   W12
 BYTE   Cs4
 BYTE   W12
//  #02 //016   ----------------------------------------
 BYTE   W12
 BYTE   N05
 BYTE   W06
 BYTE   Ds4
 BYTE   W06
 BYTE   N23  En4
 BYTE   W24
 BYTE   N05  Ds4
 BYTE   W12
 BYTE   Bn3
 BYTE   W12
 BYTE   Cs4
 BYTE   W12
 BYTE   Fs4
 BYTE   W12
//  #02 //017   ----------------------------------------
 BYTE   PATT
  POIN2 Label_0148D5D8
//  #02 //018   ----------------------------------------
 BYTE   PATT
  POIN2 Label_0148D5DE
//  #02 //019   ----------------------------------------
 BYTE   PATT
  POIN2 Label_0148D5F2
//  #02 //020   ----------------------------------------
 BYTE   PATT
  POIN2 Label_0148D60A
//  #02 //021   ----------------------------------------
 BYTE   PATT
  POIN2 Label_0148D599
//  #02 //022   ----------------------------------------
 BYTE   N32  En4  v084
 BYTE   W36
 BYTE   N05  Ds4
 BYTE   W06
 BYTE   En4
 BYTE   W06
 BYTE   Ds4
 BYTE   W12
 BYTE   Bn3
 BYTE   W36
//  #02 //023   ----------------------------------------
 BYTE   N32  Dn4
 BYTE   W36
 BYTE   N05  Cs4
 BYTE   W06
 BYTE   Dn4
 BYTE   W06
 BYTE   Cs4
 BYTE   W12
 BYTE   An3
 BYTE   W36
//  #02 //024   ----------------------------------------
Label_0148D690:
 BYTE   N05  Bn3  v084
 BYTE   W36
 BYTE   An3
 BYTE   W12
 BYTE   Bn3
 BYTE   W36
 BYTE   An3
 BYTE   W12
 BYTE   PEND 
//  #02 //025   ----------------------------------------
 BYTE   Bn3
 BYTE   W12
 BYTE   Cs4
 BYTE   W12
 BYTE   An3
 BYTE   W72
//  #02 //026   ----------------------------------------
 BYTE   PATT
  POIN2 Label_0148D690
//  #02 //027   ----------------------------------------
 BYTE   N05  Bn3  v084
 BYTE   W12
 BYTE   N03
 BYTE   W04
 BYTE   Cs4
 BYTE   W04
 BYTE   Bn3
 BYTE   W04
 BYTE   N05  An3
 BYTE   W66
 BYTE   GoTo
  POIN2 Label_0148D55E
//  #02 //028   ----------------------------------------
 BYTE   W06
 BYTE   W96
//  #02 //029   ----------------------------------------
 BYTE   W48
 BYTE   N03  Bn3  v084
 BYTE   W04
 BYTE   N05  An3
 BYTE   W21
 BYTE   FINE

//**************** Track 3 (Midi-Chn.2) ****************//

FireEmblemEngage_AnotherDayofTraining_003:
//  #03 //000   ----------------------------------------
 BYTE   KEYSH   FireEmblemEngage_AnotherDayofTraining_key+0
 BYTE   VOICE   62
 BYTE   MODT 0
 BYTE   LFOS 44
 BYTE   VOL   85*FireEmblemEngage_AnotherDayofTraining_mvl/mxv
 BYTE   PAN   c_v+0
 BYTE   W96
//  #03 //001   ----------------------------------------
 BYTE   W96
//  #03 //002   ----------------------------------------
Label_014888A2:
 BYTE   W96
//  #03 //003   ----------------------------------------
 BYTE   W96
//  #03 //004   ----------------------------------------
Label_014888A4:
 BYTE   N11  Fs2  v028
 BYTE   W24
 BYTE   Cn3
 BYTE   W12
 BYTE   As2
 BYTE   W24
 BYTE   N05  Cn3
 BYTE   W12
 BYTE   As2
 BYTE   W24
 BYTE   PEND 
//  #03 //005   ----------------------------------------
 BYTE   W96
//  #03 //006   ----------------------------------------
 BYTE   W96
//  #03 //007   ----------------------------------------
 BYTE   W96
//  #03 //008   ----------------------------------------
Label_014888B5:
 BYTE   N11  An2  v028
 BYTE   W24
 BYTE   Ds3
 BYTE   W12
 BYTE   Cs3
 BYTE   W24
 BYTE   N05  Ds3
 BYTE   W12
 BYTE   Cs3
 BYTE   W24
 BYTE   PEND 
//  #03 //009   ----------------------------------------
 BYTE   W96
//  #03 //010   ----------------------------------------
Label_014888C4:
 BYTE   N11  Fs2  v028
 BYTE   W36
 BYTE   N05  Cn3
 BYTE   W12
 BYTE   N11  As2
 BYTE   W48
 BYTE   PEND 
//  #03 //011   ----------------------------------------
Label_014888CF:
 BYTE   W12
 BYTE   N11  As2  v028
 BYTE   W84
 BYTE   PEND 
//  #03 //012   ----------------------------------------
 BYTE   PATT
  POIN2 Label_014888A4
//  #03 //013   ----------------------------------------
 BYTE   W96
//  #03 //014   ----------------------------------------
 BYTE   N11  An2  v028
 BYTE   W36
 BYTE   N05  Ds3
 BYTE   W12
 BYTE   N11  Cs3
 BYTE   W48
//  #03 //015   ----------------------------------------
 BYTE   W12
 BYTE   N11
 BYTE   W84
//  #03 //016   ----------------------------------------
 BYTE   PATT
  POIN2 Label_014888B5
//  #03 //017   ----------------------------------------
 BYTE   W96
//  #03 //018   ----------------------------------------
 BYTE   PATT
  POIN2 Label_014888C4
//  #03 //019   ----------------------------------------
 BYTE   PATT
  POIN2 Label_014888CF
//  #03 //020   ----------------------------------------
 BYTE   PATT
  POIN2 Label_014888A4
//  #03 //021   ----------------------------------------
 BYTE   W96
//  #03 //022   ----------------------------------------
 BYTE   W96
//  #03 //023   ----------------------------------------
 BYTE   W96
//  #03 //024   ----------------------------------------
 BYTE   W96
//  #03 //025   ----------------------------------------
 BYTE   W96
//  #03 //026   ----------------------------------------
 BYTE   W96
//  #03 //027   ----------------------------------------
 BYTE   W90
 BYTE   GoTo
  POIN2 Label_014888A2
//  #03 //028   ----------------------------------------
 BYTE   W06
 BYTE   W96
//  #03 //029   ----------------------------------------
 BYTE   W72
 BYTE   W01
 BYTE   FINE

//**************** Track 4 (Midi-Chn.3) ****************//

FireEmblemEngage_AnotherDayofTraining_004:
//  #04 //000   ----------------------------------------
 BYTE   KEYSH   FireEmblemEngage_AnotherDayofTraining_key+0
 BYTE   VOICE   62
 BYTE   MODT 0
 BYTE   LFOS 44
 BYTE   VOL   85*FireEmblemEngage_AnotherDayofTraining_mvl/mxv
 BYTE   PAN   c_v+0
 BYTE   W96
//  #04 //001   ----------------------------------------
 BYTE   W96
//  #04 //002   ----------------------------------------
Label_0148A266:
 BYTE   W96
//  #04 //003   ----------------------------------------
 BYTE   W96
//  #04 //004   ----------------------------------------
Label_0148A268:
 BYTE   W24
 BYTE   N11  Gs2  v028
 BYTE   W12
 BYTE   Fs2
 BYTE   W24
 BYTE   N05  Gs2
 BYTE   W12
 BYTE   Fs2
 BYTE   W24
 BYTE   PEND 
//  #04 //005   ----------------------------------------
 BYTE   W96
//  #04 //006   ----------------------------------------
 BYTE   W96
//  #04 //007   ----------------------------------------
 BYTE   W96
//  #04 //008   ----------------------------------------
Label_0148A278:
 BYTE   W24
 BYTE   N11  Bn2  v028
 BYTE   W12
 BYTE   An2
 BYTE   W24
 BYTE   N05  Bn2
 BYTE   W12
 BYTE   An2
 BYTE   W24
 BYTE   PEND 
//  #04 //009   ----------------------------------------
 BYTE   W96
//  #04 //010   ----------------------------------------
Label_0148A286:
 BYTE   W36
 BYTE   N05  Gs2  v028
 BYTE   W12
 BYTE   N11  Fs2
 BYTE   W48
 BYTE   PEND 
//  #04 //011   ----------------------------------------
Label_0148A28F:
 BYTE   W12
 BYTE   N11  Fs2  v028
 BYTE   W84
 BYTE   PEND 
//  #04 //012   ----------------------------------------
 BYTE   PATT
  POIN2 Label_0148A268
//  #04 //013   ----------------------------------------
 BYTE   W96
//  #04 //014   ----------------------------------------
 BYTE   W36
 BYTE   N05  Bn2  v028
 BYTE   W12
 BYTE   N11  An2
 BYTE   W48
//  #04 //015   ----------------------------------------
 BYTE   W12
 BYTE   N11
 BYTE   W84
//  #04 //016   ----------------------------------------
 BYTE   PATT
  POIN2 Label_0148A278
//  #04 //017   ----------------------------------------
 BYTE   W96
//  #04 //018   ----------------------------------------
 BYTE   PATT
  POIN2 Label_0148A286
//  #04 //019   ----------------------------------------
 BYTE   PATT
  POIN2 Label_0148A28F
//  #04 //020   ----------------------------------------
 BYTE   PATT
  POIN2 Label_0148A268
//  #04 //021   ----------------------------------------
 BYTE   W96
//  #04 //022   ----------------------------------------
 BYTE   W96
//  #04 //023   ----------------------------------------
 BYTE   W96
//  #04 //024   ----------------------------------------
 BYTE   W96
//  #04 //025   ----------------------------------------
 BYTE   W96
//  #04 //026   ----------------------------------------
 BYTE   W96
//  #04 //027   ----------------------------------------
 BYTE   W90
 BYTE   GoTo
  POIN2 Label_0148A266
//  #04 //028   ----------------------------------------
 BYTE   W06
 BYTE   W96
//  #04 //029   ----------------------------------------
 BYTE   W72
 BYTE   W01
 BYTE   FINE

//**************** Track 5 (Midi-Chn.4) ****************//

FireEmblemEngage_AnotherDayofTraining_005:
//  #05 //000   ----------------------------------------
 BYTE   KEYSH   FireEmblemEngage_AnotherDayofTraining_key+0
 BYTE   VOICE   58
 BYTE   MODT 0
 BYTE   LFOS 44
 BYTE   VOL   85*FireEmblemEngage_AnotherDayofTraining_mvl/mxv
 BYTE   PAN   c_v+0
 BYTE   W96
//  #05 //001   ----------------------------------------
 BYTE   W96
//  #05 //002   ----------------------------------------
Label_0148A9FE:
 BYTE   N16  Fs1  v108
 BYTE   W01
 BYTE   W01
 BYTE   W01
 BYTE   W01
 BYTE   W01
 BYTE   W78
 BYTE   W01
 BYTE   N07  Cs1
 BYTE   W01
 BYTE   W01
 BYTE   W01
 BYTE   W01
 BYTE   W01
 BYTE   W07
 BYTE   PEND 
//  #05 //003   ----------------------------------------
Label_0148AA11:
 BYTE   N16  Fs1  v108
 BYTE   W01
 BYTE   W01
 BYTE   W01
 BYTE   W01
 BYTE   W01
 BYTE   W90
 BYTE   W01
 BYTE   PEND 
//  #05 //004   ----------------------------------------
 BYTE   PATT
  POIN2 Label_0148A9FE
//  #05 //005   ----------------------------------------
 BYTE   PATT
  POIN2 Label_0148AA11
//  #05 //006   ----------------------------------------
Label_0148AA26:
 BYTE   N16  An1  v108
 BYTE   W01
 BYTE   W01
 BYTE   W01
 BYTE   W01
 BYTE   W01
 BYTE   W78
 BYTE   W01
 BYTE   N07  En1
 BYTE   W01
 BYTE   W01
 BYTE   W01
 BYTE   W01
 BYTE   W01
 BYTE   W07
 BYTE   PEND 
//  #05 //007   ----------------------------------------
Label_0148AA39:
 BYTE   N16  An1  v108
 BYTE   W01
 BYTE   W01
 BYTE   W01
 BYTE   W01
 BYTE   W01
 BYTE   W90
 BYTE   W01
 BYTE   PEND 
//  #05 //008   ----------------------------------------
 BYTE   PATT
  POIN2 Label_0148AA26
//  #05 //009   ----------------------------------------
 BYTE   PATT
  POIN2 Label_0148AA39
//  #05 //010   ----------------------------------------
 BYTE   PATT
  POIN2 Label_0148A9FE
//  #05 //011   ----------------------------------------
 BYTE   PATT
  POIN2 Label_0148AA11
//  #05 //012   ----------------------------------------
 BYTE   PATT
  POIN2 Label_0148A9FE
//  #05 //013   ----------------------------------------
 BYTE   PATT
  POIN2 Label_0148AA11
//  #05 //014   ----------------------------------------
 BYTE   PATT
  POIN2 Label_0148AA26
//  #05 //015   ----------------------------------------
 BYTE   PATT
  POIN2 Label_0148AA39
//  #05 //016   ----------------------------------------
 BYTE   PATT
  POIN2 Label_0148AA26
//  #05 //017   ----------------------------------------
 BYTE   PATT
  POIN2 Label_0148AA39
//  #05 //018   ----------------------------------------
 BYTE   PATT
  POIN2 Label_0148A9FE
//  #05 //019   ----------------------------------------
 BYTE   PATT
  POIN2 Label_0148AA11
//  #05 //020   ----------------------------------------
 BYTE   PATT
  POIN2 Label_0148A9FE
//  #05 //021   ----------------------------------------
 BYTE   PATT
  POIN2 Label_0148AA11
//  #05 //022   ----------------------------------------
 BYTE   N44  An1  v080
 BYTE   W48
 BYTE   N05  Gs1
 BYTE   W12
 BYTE   N05
 BYTE   W36
//  #05 //023   ----------------------------------------
 BYTE   N44  Gn1
 BYTE   W48
 BYTE   N05  Fs1
 BYTE   W12
 BYTE   N05
 BYTE   W36
//  #05 //024   ----------------------------------------
Label_0148AA9B:
 BYTE   N05  Bn0  v080
 BYTE   W36
 BYTE   An0
 BYTE   W12
 BYTE   Bn0
 BYTE   W36
 BYTE   An0
 BYTE   W12
 BYTE   PEND 
//  #05 //025   ----------------------------------------
 BYTE   Bn0
 BYTE   W12
 BYTE   An0
 BYTE   W12
 BYTE   Bn0
 BYTE   W72
//  #05 //026   ----------------------------------------
 BYTE   PATT
  POIN2 Label_0148AA9B
//  #05 //027   ----------------------------------------
 BYTE   N05  Bn0  v080
 BYTE   W12
 BYTE   An0
 BYTE   W12
 BYTE   Bn0
 BYTE   W66
 BYTE   GoTo
  POIN2 Label_0148A9FE
//  #05 //028   ----------------------------------------
 BYTE   W06
 BYTE   W96
//  #05 //029   ----------------------------------------
 BYTE   W72
 BYTE   W01
 BYTE   FINE

//**************** Track 6 (Midi-Chn.5) ****************//

FireEmblemEngage_AnotherDayofTraining_006:
//  #06 //000   ----------------------------------------
 BYTE   KEYSH   FireEmblemEngage_AnotherDayofTraining_key+0
 BYTE   VOICE   73
 BYTE   MODT 0
 BYTE   LFOS 44
 BYTE   VOL   85*FireEmblemEngage_AnotherDayofTraining_mvl/mxv
 BYTE   PAN   c_v+0
 BYTE   W96
//  #06 //001   ----------------------------------------
 BYTE   W96
//  #06 //002   ----------------------------------------
Label_01488666:
 BYTE   W96
//  #06 //003   ----------------------------------------
 BYTE   W96
//  #06 //004   ----------------------------------------
 BYTE   W96
//  #06 //005   ----------------------------------------
 BYTE   W96
//  #06 //006   ----------------------------------------
 BYTE   W96
//  #06 //007   ----------------------------------------
 BYTE   W96
//  #06 //008   ----------------------------------------
 BYTE   W96
//  #06 //009   ----------------------------------------
 BYTE   W96
//  #06 //010   ----------------------------------------
Label_0148866E:
 BYTE   N02  As5  v020
 BYTE   W02
 BYTE   Cn6
 BYTE   W04
 BYTE   As5
 BYTE   W02
 BYTE   Cn6
 BYTE   W04
 BYTE   As5
 BYTE   W02
 BYTE   Cn6
 BYTE   W04
 BYTE   As5
 BYTE   W02
 BYTE   Cn6
 BYTE   W04
 BYTE   As5
 BYTE   W02
 BYTE   Cn6
 BYTE   W04
 BYTE   As5
 BYTE   W02
 BYTE   Cn6
 BYTE   W04
 BYTE   As5
 BYTE   W02
 BYTE   Cn6
 BYTE   W04
 BYTE   As5
 BYTE   W02
 BYTE   Cn6
 BYTE   W04
 BYTE   N05
 BYTE   W12
 BYTE   Gs5
 BYTE   W12
 BYTE   As5
 BYTE   W12
 BYTE   Ds6
 BYTE   W12
 BYTE   PEND 
//  #06 //011   ----------------------------------------
Label_01488699:
 BYTE   W12
 BYTE   N11  Cn6  v020
 BYTE   W36
 BYTE   N05  Fn5
 BYTE   W12
 BYTE   Fs5
 BYTE   W12
 BYTE   Ds5
 BYTE   W12
 BYTE   Cs5
 BYTE   W12
 BYTE   PEND 
//  #06 //012   ----------------------------------------
Label_014886A8:
 BYTE   W12
 BYTE   N05  Fs5  v020
 BYTE   W06
 BYTE   Gs5
 BYTE   W06
 BYTE   N02
 BYTE   W03
 BYTE   As5
 BYTE   W03
 BYTE   Gs5
 BYTE   W03
 BYTE   As5
 BYTE   W03
 BYTE   Gs5
 BYTE   W03
 BYTE   As5
 BYTE   W03
 BYTE   Gs5
 BYTE   W03
 BYTE   As5
 BYTE   W03
 BYTE   N05  Gs5
 BYTE   W12
 BYTE   Fn5
 BYTE   W12
 BYTE   Fs5
 BYTE   W12
 BYTE   N11  Ds5
 BYTE   W12
 BYTE   PEND 
//  #06 //013   ----------------------------------------
Label_014886CA:
 BYTE   W12
 BYTE   N11  Gs5  v020
 BYTE   W84
 BYTE   PEND 
//  #06 //014   ----------------------------------------
 BYTE   N02  Cs6
 BYTE   W02
 BYTE   Ds6
 BYTE   W04
 BYTE   Cs6
 BYTE   W02
 BYTE   Ds6
 BYTE   W04
 BYTE   Cs6
 BYTE   W02
 BYTE   Ds6
 BYTE   W04
 BYTE   Cs6
 BYTE   W02
 BYTE   Ds6
 BYTE   W04
 BYTE   Cs6
 BYTE   W02
 BYTE   Ds6
 BYTE   W04
 BYTE   Cs6
 BYTE   W02
 BYTE   Ds6
 BYTE   W04
 BYTE   Cs6
 BYTE   W02
 BYTE   Ds6
 BYTE   W04
 BYTE   Cs6
 BYTE   W02
 BYTE   Ds6
 BYTE   W04
 BYTE   N05
 BYTE   W12
 BYTE   Bn5
 BYTE   W12
 BYTE   Cs6
 BYTE   W12
 BYTE   Fs6
 BYTE   W12
//  #06 //015   ----------------------------------------
 BYTE   W12
 BYTE   N11  Ds6
 BYTE   W36
 BYTE   N05  Gs5
 BYTE   W12
 BYTE   An5
 BYTE   W12
 BYTE   Fs5
 BYTE   W12
 BYTE   En5
 BYTE   W12
//  #06 //016   ----------------------------------------
 BYTE   W12
 BYTE   An5
 BYTE   W06
 BYTE   Bn5
 BYTE   W06
 BYTE   N02
 BYTE   W03
 BYTE   Cs6
 BYTE   W03
 BYTE   Bn5
 BYTE   W03
 BYTE   Cs6
 BYTE   W03
 BYTE   Bn5
 BYTE   W03
 BYTE   Cs6
 BYTE   W03
 BYTE   Bn5
 BYTE   W03
 BYTE   Cs6
 BYTE   W03
 BYTE   N05  Bn5
 BYTE   W12
 BYTE   Gs5
 BYTE   W12
 BYTE   An5
 BYTE   W12
 BYTE   N11  Fs5
 BYTE   W12
//  #06 //017   ----------------------------------------
 BYTE   W12
 BYTE   Bn5
 BYTE   W84
//  #06 //018   ----------------------------------------
 BYTE   PATT
  POIN2 Label_0148866E
//  #06 //019   ----------------------------------------
 BYTE   PATT
  POIN2 Label_01488699
//  #06 //020   ----------------------------------------
 BYTE   PATT
  POIN2 Label_014886A8
//  #06 //021   ----------------------------------------
 BYTE   PATT
  POIN2 Label_014886CA
//  #06 //022   ----------------------------------------
 BYTE   N32  En5  v020
 BYTE   W36
 BYTE   N05  Ds5
 BYTE   W06
 BYTE   En5
 BYTE   W06
 BYTE   Ds5
 BYTE   W12
 BYTE   Bn4
 BYTE   W36
//  #06 //023   ----------------------------------------
 BYTE   N32  Dn5
 BYTE   W36
 BYTE   N05  Cs5
 BYTE   W06
 BYTE   Dn5
 BYTE   W06
 BYTE   Cs5
 BYTE   W12
 BYTE   An4
 BYTE   W36
//  #06 //024   ----------------------------------------
Label_01488755:
 BYTE   N05  Bn4  v020
 BYTE   W36
 BYTE   An4
 BYTE   W12
 BYTE   Bn4
 BYTE   W36
 BYTE   An4
 BYTE   W12
 BYTE   PEND 
//  #06 //025   ----------------------------------------
 BYTE   Bn4
 BYTE   W12
 BYTE   Cs5
 BYTE   W12
 BYTE   An4
 BYTE   W72
//  #06 //026   ----------------------------------------
 BYTE   PATT
  POIN2 Label_01488755
//  #06 //027   ----------------------------------------
 BYTE   N05  Bn4  v020
 BYTE   W12
 BYTE   N03
 BYTE   W04
 BYTE   Cs5
 BYTE   W04
 BYTE   Bn4
 BYTE   W04
 BYTE   N05  An4
 BYTE   W66
 BYTE   GoTo
  POIN2 Label_01488666
//  #06 //028   ----------------------------------------
 BYTE   W06
 BYTE   W96
//  #06 //029   ----------------------------------------
 BYTE   W72
 BYTE   W01
 BYTE   FINE

//**************** Track 7 (Midi-Chn.6) ****************//

FireEmblemEngage_AnotherDayofTraining_007:
//  #07 //000   ----------------------------------------
 BYTE   KEYSH   FireEmblemEngage_AnotherDayofTraining_key+0
 BYTE   VOICE   1
 BYTE   MODT 0
 BYTE   LFOS 44
 BYTE   VOL   85*FireEmblemEngage_AnotherDayofTraining_mvl/mxv
 BYTE   PAN   c_v+0
 BYTE   W96
//  #07 //001   ----------------------------------------
 BYTE   W96
//  #07 //002   ----------------------------------------
Label_0148A60A:
 BYTE   W96
//  #07 //003   ----------------------------------------
 BYTE   W96
//  #07 //004   ----------------------------------------
 BYTE   W96
//  #07 //005   ----------------------------------------
 BYTE   W96
//  #07 //006   ----------------------------------------
 BYTE   W96
//  #07 //007   ----------------------------------------
 BYTE   W96
//  #07 //008   ----------------------------------------
 BYTE   W96
//  #07 //009   ----------------------------------------
 BYTE   W96
//  #07 //010   ----------------------------------------
Label_0148A612:
 BYTE   N11  Fs4  v060
 BYTE   W36
 BYTE   N05  Cn5
 BYTE   W12
 BYTE   N11  As4
 BYTE   W48
 BYTE   PEND 
//  #07 //011   ----------------------------------------
 BYTE   W12
 BYTE   N11
 BYTE   W84
//  #07 //012   ----------------------------------------
Label_0148A620:
 BYTE   N11  Fs4  v060
 BYTE   W24
 BYTE   Cn5
 BYTE   W12
 BYTE   As4
 BYTE   W24
 BYTE   N05  Cn5
 BYTE   W12
 BYTE   As4
 BYTE   W24
 BYTE   PEND 
//  #07 //013   ----------------------------------------
 BYTE   W96
//  #07 //014   ----------------------------------------
 BYTE   N11  An4
 BYTE   W36
 BYTE   N05  Ds5
 BYTE   W12
 BYTE   N11  Cs5
 BYTE   W48
//  #07 //015   ----------------------------------------
 BYTE   W12
 BYTE   N11
 BYTE   W84
//  #07 //016   ----------------------------------------
 BYTE   An4
 BYTE   W24
 BYTE   Ds5
 BYTE   W12
 BYTE   Cs5
 BYTE   W24
 BYTE   N05  Ds5
 BYTE   W12
 BYTE   Cs5
 BYTE   W24
//  #07 //017   ----------------------------------------
 BYTE   W96
//  #07 //018   ----------------------------------------
 BYTE   PATT
  POIN2 Label_0148A612
//  #07 //019   ----------------------------------------
 BYTE   W12
 BYTE   N11  As4  v060
 BYTE   W84
//  #07 //020   ----------------------------------------
 BYTE   PATT
  POIN2 Label_0148A620
//  #07 //021   ----------------------------------------
 BYTE   W96
//  #07 //022   ----------------------------------------
 BYTE   N32  En5  v060
 BYTE   W36
 BYTE   N05  Ds5
 BYTE   W06
 BYTE   En5
 BYTE   W06
 BYTE   Bn4
 BYTE   W12
 BYTE   N05
 BYTE   W36
//  #07 //023   ----------------------------------------
 BYTE   N32  Dn5
 BYTE   W36
 BYTE   N05  Cs5
 BYTE   W06
 BYTE   Dn5
 BYTE   W06
 BYTE   An4
 BYTE   W12
 BYTE   N05
 BYTE   W36
//  #07 //024   ----------------------------------------
Label_0148A670:
 BYTE   N05  Bn4  v060
 BYTE   W36
 BYTE   An4
 BYTE   W12
 BYTE   Bn4
 BYTE   W36
 BYTE   An4
 BYTE   W12
 BYTE   PEND 
//  #07 //025   ----------------------------------------
 BYTE   Bn4
 BYTE   W12
 BYTE   Cs5
 BYTE   W12
 BYTE   An4
 BYTE   W72
//  #07 //026   ----------------------------------------
 BYTE   PATT
  POIN2 Label_0148A670
//  #07 //027   ----------------------------------------
 BYTE   N05  Bn4  v060
 BYTE   W12
 BYTE   N03
 BYTE   W04
 BYTE   Cs5
 BYTE   W04
 BYTE   Bn4
 BYTE   W04
 BYTE   N05  An4
 BYTE   W66
 BYTE   GoTo
  POIN2 Label_0148A60A
//  #07 //028   ----------------------------------------
 BYTE   W06
 BYTE   W96
//  #07 //029   ----------------------------------------
 BYTE   W72
 BYTE   W01
 BYTE   FINE

//**************** Track 8 (Midi-Chn.7) ****************//

FireEmblemEngage_AnotherDayofTraining_008:
//  #08 //000   ----------------------------------------
 BYTE   KEYSH   FireEmblemEngage_AnotherDayofTraining_key+0
 BYTE   VOICE   121
 BYTE   MODT 0
 BYTE   LFOS 44
 BYTE   VOL   85*FireEmblemEngage_AnotherDayofTraining_mvl/mxv
 BYTE   PAN   c_v-4
 BYTE   VOL   85*FireEmblemEngage_AnotherDayofTraining_mvl/mxv
 BYTE   PAN   c_v+0
 BYTE   VOL   85*FireEmblemEngage_AnotherDayofTraining_mvl/mxv
 BYTE   PAN   c_v+0
 BYTE   N23  Bn0  v080
 BYTE   W12
 BYTE   N05  Dn1  v060
 BYTE   W06
 BYTE   N05
 BYTE   W06
 BYTE   N02
 BYTE   W03
 BYTE   N02
 BYTE   W03
 BYTE   N02
 BYTE   W03
 BYTE   N02
 BYTE   W03
 BYTE   N02
 BYTE   W03
 BYTE   N02
 BYTE   W03
 BYTE   N02
 BYTE   W03
 BYTE   N02
 BYTE   W03
 BYTE   N11
 BYTE   W12
 BYTE   N11
 BYTE   W24
 BYTE   N11
 BYTE   W12
//  #08 //001   ----------------------------------------
 BYTE   N23  Bn0  v080
 BYTE   W12
 BYTE   N11  Dn1  v060
 BYTE   W12
 BYTE   N11
 BYTE   W12
 BYTE   N05
 BYTE   W06
 BYTE   N05
 BYTE   W06
 BYTE   N23  Bn0  v080
 BYTE   N11  Dn1  v060
 BYTE   W12
 BYTE   N11
 BYTE   W12
 BYTE   N02
 BYTE   W03
 BYTE   N02
 BYTE   W03
 BYTE   N02
 BYTE   W03
 BYTE   N02
 BYTE   W03
 BYTE   N02
 BYTE   W03
 BYTE   N02
 BYTE   W03
 BYTE   N02
 BYTE   W03
 BYTE   N02
 BYTE   W03
//  #08 //002   ----------------------------------------
Label_0148D7A7:
 BYTE   N23  Bn0  v080
 BYTE   N23  An2
 BYTE   W12
 BYTE   N05  Dn1  v044
 BYTE   W06
 BYTE   N05
 BYTE   W06
 BYTE   N02
 BYTE   W03
 BYTE   N02
 BYTE   W03
 BYTE   N02
 BYTE   W03
 BYTE   N02
 BYTE   W03
 BYTE   N02
 BYTE   W03
 BYTE   N02
 BYTE   W03
 BYTE   N02
 BYTE   W03
 BYTE   N02
 BYTE   W03
 BYTE   N11
 BYTE   W12
 BYTE   N11
 BYTE   W24
 BYTE   N11
 BYTE   W12
 BYTE   PEND 
//  #08 //003   ----------------------------------------
Label_0148D7CA:
 BYTE   W12
 BYTE   N11  Dn1  v044
 BYTE   W12
 BYTE   N11
 BYTE   W12
 BYTE   N05
 BYTE   W06
 BYTE   N05
 BYTE   W06
 BYTE   N11
 BYTE   W12
 BYTE   N11
 BYTE   W12
 BYTE   N02
 BYTE   W03
 BYTE   N02
 BYTE   W03
 BYTE   N02
 BYTE   W03
 BYTE   N02
 BYTE   W03
 BYTE   N02
 BYTE   W03
 BYTE   N02
 BYTE   W03
 BYTE   N02
 BYTE   W03
 BYTE   N02
 BYTE   W03
 BYTE   PEND 
//  #08 //004   ----------------------------------------
Label_0148D7EA:
 BYTE   W12
 BYTE   N05  Dn1  v044
 BYTE   W06
 BYTE   N05
 BYTE   W06
 BYTE   N02
 BYTE   W03
 BYTE   N02
 BYTE   W03
 BYTE   N02
 BYTE   W03
 BYTE   N02
 BYTE   W03
 BYTE   N02
 BYTE   W03
 BYTE   N02
 BYTE   W03
 BYTE   N02
 BYTE   W03
 BYTE   N02
 BYTE   W03
 BYTE   N11
 BYTE   W12
 BYTE   N11
 BYTE   W24
 BYTE   N11
 BYTE   W12
 BYTE   PEND 
//  #08 //005   ----------------------------------------
Label_0148D808:
 BYTE   N23  Dn1  v044
 BYTE   W72
 BYTE   N05
 BYTE   W06
 BYTE   N05
 BYTE   W06
 BYTE   N05
 BYTE   W06
 BYTE   N05
 BYTE   W06
 BYTE   PEND 
//  #08 //006   ----------------------------------------
Label_0148D815:
 BYTE   N23  Bn0  v080
 BYTE   W12
 BYTE   N05  Dn1  v044
 BYTE   W06
 BYTE   N05
 BYTE   W06
 BYTE   N02
 BYTE   W03
 BYTE   N02
 BYTE   W03
 BYTE   N02
 BYTE   W03
 BYTE   N02
 BYTE   W03
 BYTE   N02
 BYTE   W03
 BYTE   N02
 BYTE   W03
 BYTE   N02
 BYTE   W03
 BYTE   N02
 BYTE   W03
 BYTE   N11
 BYTE   W12
 BYTE   N11
 BYTE   W24
 BYTE   N11
 BYTE   W12
 BYTE   PEND 
//  #08 //007   ----------------------------------------
 BYTE   PATT
  POIN2 Label_0148D7CA
//  #08 //008   ----------------------------------------
 BYTE   PATT
  POIN2 Label_0148D7EA
//  #08 //009   ----------------------------------------
 BYTE   PATT
  POIN2 Label_0148D808
//  #08 //010   ----------------------------------------
 BYTE   PATT
  POIN2 Label_0148D7A7
//  #08 //011   ----------------------------------------
 BYTE   PATT
  POIN2 Label_0148D7CA
//  #08 //012   ----------------------------------------
 BYTE   PATT
  POIN2 Label_0148D815
//  #08 //013   ----------------------------------------
 BYTE   PATT
  POIN2 Label_0148D808
//  #08 //014   ----------------------------------------
 BYTE   PATT
  POIN2 Label_0148D815
//  #08 //015   ----------------------------------------
 BYTE   PATT
  POIN2 Label_0148D7CA
//  #08 //016   ----------------------------------------
 BYTE   PATT
  POIN2 Label_0148D815
//  #08 //017   ----------------------------------------
 BYTE   PATT
  POIN2 Label_0148D808
//  #08 //018   ----------------------------------------
 BYTE   PATT
  POIN2 Label_0148D7A7
//  #08 //019   ----------------------------------------
 BYTE   N23  Bn0  v080
 BYTE   W12
 BYTE   N11  Dn1  v044
 BYTE   W12
 BYTE   N11
 BYTE   W12
 BYTE   N05
 BYTE   W06
 BYTE   N05
 BYTE   W06
 BYTE   N11
 BYTE   W12
 BYTE   N11
 BYTE   W12
 BYTE   N02
 BYTE   W03
 BYTE   N02
 BYTE   W03
 BYTE   N02
 BYTE   W03
 BYTE   N02
 BYTE   W03
 BYTE   N02
 BYTE   W03
 BYTE   N02
 BYTE   W03
 BYTE   N02
 BYTE   W03
 BYTE   N02
 BYTE   W03
//  #08 //020   ----------------------------------------
 BYTE   PATT
  POIN2 Label_0148D815
//  #08 //021   ----------------------------------------
 BYTE   N23  Bn0  v080
 BYTE   N23  Dn1  v044
 BYTE   W72
 BYTE   N05
 BYTE   W06
 BYTE   N05
 BYTE   W06
 BYTE   N05
 BYTE   W06
 BYTE   N05
 BYTE   W06
//  #08 //022   ----------------------------------------
 BYTE   N23  Bn0  v080
 BYTE   N11  Dn1  v044
 BYTE   N44  An2  v080
 BYTE   W12
 BYTE   N05  Dn1  v044
 BYTE   W06
 BYTE   N05
 BYTE   W06
 BYTE   N02
 BYTE   W03
 BYTE   N02
 BYTE   W03
 BYTE   N02
 BYTE   W03
 BYTE   N02
 BYTE   W03
 BYTE   N02
 BYTE   W03
 BYTE   N02
 BYTE   W03
 BYTE   N02
 BYTE   W03
 BYTE   N02
 BYTE   W03
 BYTE   N11
 BYTE   W12
 BYTE   N11
 BYTE   W36
//  #08 //023   ----------------------------------------
 BYTE   N23  Bn0  v080
 BYTE   N11  Dn1  v044
 BYTE   W12
 BYTE   N05
 BYTE   W06
 BYTE   N05
 BYTE   W06
 BYTE   N02
 BYTE   W03
 BYTE   N02
 BYTE   W03
 BYTE   N02
 BYTE   W03
 BYTE   N02
 BYTE   W03
 BYTE   N02
 BYTE   W03
 BYTE   N02
 BYTE   W03
 BYTE   N02
 BYTE   W03
 BYTE   N02
 BYTE   W03
 BYTE   N11
 BYTE   W12
 BYTE   N11
 BYTE   W36
//  #08 //024   ----------------------------------------
Label_0148D8EB:
 BYTE   N23  Bn0  v080
 BYTE   N11  Dn1  v044
 BYTE   N44  An2  v080
 BYTE   W12
 BYTE   N05  Dn1  v044
 BYTE   W06
 BYTE   N05
 BYTE   W06
 BYTE   N02
 BYTE   W03
 BYTE   N02
 BYTE   W03
 BYTE   N02
 BYTE   W03
 BYTE   N02
 BYTE   W03
 BYTE   N02
 BYTE   W03
 BYTE   N02
 BYTE   W03
 BYTE   N02
 BYTE   W03
 BYTE   N02
 BYTE   W03
 BYTE   N11
 BYTE   W12
 BYTE   N11
 BYTE   W24
 BYTE   N11
 BYTE   W12
 BYTE   PEND 
//  #08 //025   ----------------------------------------
 BYTE   W12
 BYTE   N11
 BYTE   W12
 BYTE   N11
 BYTE   W48
 BYTE   N05
 BYTE   W06
 BYTE   N05
 BYTE   W06
 BYTE   N05
 BYTE   W06
 BYTE   N05
 BYTE   W06
//  #08 //026   ----------------------------------------
 BYTE   PATT
  POIN2 Label_0148D8EB
//  #08 //027   ----------------------------------------
 BYTE   N11  Dn1  v044
 BYTE   W12
 BYTE   N11
 BYTE   W12
 BYTE   N11
 BYTE   W66
 BYTE   GoTo
  POIN2 Label_0148D7A7
//  #08 //028   ----------------------------------------
 BYTE   W06
 BYTE   W96
//  #08 //029   ----------------------------------------
 BYTE   W72
 BYTE   W01
 BYTE   FINE

//******************************************************//
	ALIGN 4

FireEmblemEngage_AnotherDayofTraining:
	BYTE	8	// NumTrks
	BYTE	0	// NumBlks
	BYTE	FireEmblemEngage_AnotherDayofTraining_pri	// Priority
	BYTE	FireEmblemEngage_AnotherDayofTraining_rev	// Reverb.
    
	POIN2	FireEmblemEngage_AnotherDayofTraining_grp
    
	POIN2	FireEmblemEngage_AnotherDayofTraining_001
	POIN2	FireEmblemEngage_AnotherDayofTraining_002
	POIN2	FireEmblemEngage_AnotherDayofTraining_003
	POIN2	FireEmblemEngage_AnotherDayofTraining_004
	POIN2	FireEmblemEngage_AnotherDayofTraining_005
	POIN2	FireEmblemEngage_AnotherDayofTraining_006
	POIN2	FireEmblemEngage_AnotherDayofTraining_007
	POIN2	FireEmblemEngage_AnotherDayofTraining_008

	
