//Event file generated from Sappy .s format.
	#include "MPlayDef.event"

	#define	FireEmblemBindingBlade_ArenaBattle_grp  voicegroup000
	#define	FireEmblemBindingBlade_ArenaBattle_pri  0
	#define	FireEmblemBindingBlade_ArenaBattle_rev  0
	#define	FireEmblemBindingBlade_ArenaBattle_mvl  127
	#define	FireEmblemBindingBlade_ArenaBattle_key  0
	#define	FireEmblemBindingBlade_ArenaBattle_tbs  1
	#define	FireEmblemBindingBlade_ArenaBattle_exg  0
	#define	FireEmblemBindingBlade_ArenaBattle_cmp  1

	// .rodata
	//	FireEmblemBindingBlade_ArenaBattle
	ALIGN 4


//**************** Track 1 (Midi-Chn.0) ****************//

FireEmblemBindingBlade_ArenaBattle_001:
//  #01 //000   ----------------------------------------
 BYTE   KEYSH   FireEmblemBindingBlade_ArenaBattle_key+0
Label_010F77BE:
 BYTE   TEMPO   156*FireEmblemBindingBlade_ArenaBattle_tbs/2
 BYTE   VOICE   48
 BYTE   MODT 0
 BYTE   LFOS 44
 BYTE   PAN   c_v-1
 BYTE   VOL   56*FireEmblemBindingBlade_ArenaBattle_mvl/mxv
 BYTE   N13  Fn2  v060
 BYTE   N15  As2  v088
 BYTE   W18
 BYTE   N04  Fn2  v016
 BYTE   N04  As2
 BYTE   W06
 BYTE   As2  v060
 BYTE   N05  Fn3  v088
 BYTE   W06
 BYTE   N04  As2  v016
 BYTE   N04  Fn3
 BYTE   W06
 BYTE   N16  As2  v060
 BYTE   N16  Ds3  v088
 BYTE   W18
 BYTE   N04  As2  v016
 BYTE   N04  Ds3
 BYTE   W06
 BYTE   N05  As2  v060
 BYTE   N04  Cs3  v088
 BYTE   W06
 BYTE   As2  v016
 BYTE   N04  Cs3
 BYTE   W06
 BYTE   N16  As2  v060
 BYTE   N16  Cn3  v088
 BYTE   W18
 BYTE   N04  As2  v016
 BYTE   N04  Cn3
 BYTE   W06
//  #01 //001   ----------------------------------------
 BYTE   As2  v060
 BYTE   N05  Cs3  v088
 BYTE   W06
 BYTE   N04  As2  v016
 BYTE   N04  Cs3
 BYTE   W06
 BYTE   N16  Fn2  v060
 BYTE   N15  As2  v088
 BYTE   W18
 BYTE   N04  Fn2  v016
 BYTE   N04  As2
 BYTE   W06
 BYTE   Fn2  v060
 BYTE   N04  Cn3  v088
 BYTE   W06
 BYTE   Fn2  v016
 BYTE   N04  Cn3
 BYTE   W06
 BYTE   N15  Fn2  v060
 BYTE   N15  Gs2  v088
 BYTE   W18
 BYTE   N04  Fn2  v016
 BYTE   N04  Gs2
 BYTE   W06
 BYTE   N08  Fn2  v060
 BYTE   N08  As2  v088
 BYTE   W12
 BYTE   N04  Fn2  v016
 BYTE   N04  As2
 BYTE   W12
//  #01 //002   ----------------------------------------
 BYTE   N11  Fn2  v060
 BYTE   N11  As2  v088
 BYTE   W18
 BYTE   N04  Fn2  v016
 BYTE   N04  As2
 BYTE   W06
 BYTE   As2  v060
 BYTE   N04  Fn3  v088
 BYTE   W06
 BYTE   As2  v016
 BYTE   N04  Fn3
 BYTE   W06
 BYTE   N16  As2  v060
 BYTE   N15  Ds3  v088
 BYTE   W18
 BYTE   N04  As2  v016
 BYTE   N04  Ds3
 BYTE   W06
 BYTE   N05  As2  v060
 BYTE   N05  Cs3  v088
 BYTE   W06
 BYTE   N04  As2  v016
 BYTE   N04  Cs3
 BYTE   W06
 BYTE   N16  As2  v060
 BYTE   N15  Cn3  v088
 BYTE   W18
 BYTE   N04  As2  v016
 BYTE   N04  Cn3
 BYTE   W06
//  #01 //003   ----------------------------------------
 BYTE   As2  v060
 BYTE   N04  Cs3  v088
 BYTE   W06
 BYTE   As2  v016
 BYTE   N04  Cs3
 BYTE   W06
 BYTE   N16  Fn2  v060
 BYTE   N16  As2  v088
 BYTE   W18
 BYTE   N04  Fn2  v016
 BYTE   N04  As2
 BYTE   W06
 BYTE   Fn2  v060
 BYTE   N04  Cn3  v088
 BYTE   W06
 BYTE   Fn2  v016
 BYTE   N04  Cn3
 BYTE   W06
 BYTE   N13  Fn2  v060
 BYTE   N13  Gs2  v088
 BYTE   W18
 BYTE   N04  Fn2  v016
 BYTE   N04  Gs2
 BYTE   W06
 BYTE   N07  Fn2  v060
 BYTE   N09  As2  v088
 BYTE   W12
 BYTE   N04  Fn2  v016
 BYTE   N04  As2
 BYTE   W12
//  #01 //004   ----------------------------------------
 BYTE   W96
//  #01 //005   ----------------------------------------
 BYTE   W72
 BYTE   VOL   68*FireEmblemBindingBlade_ArenaBattle_mvl/mxv
 BYTE   W12
 BYTE   N05  Gn3  v104
 BYTE   N05  Cn4
 BYTE   W06
 BYTE   Gn3  v032
 BYTE   N06  Cn4
 BYTE   W06
//  #01 //006   ----------------------------------------
 BYTE   W96
//  #01 //007   ----------------------------------------
 BYTE   W60
 BYTE   N04  As3  v104
 BYTE   N05  Ds4
 BYTE   W06
 BYTE   N04  As3  v032
 BYTE   N05  Ds4
 BYTE   W18
 BYTE   N03  As3  v104
 BYTE   N05  Ds4
 BYTE   W06
 BYTE   N03  As3  v032
 BYTE   N05  Ds4
 BYTE   W06
//  #01 //008   ----------------------------------------
 BYTE   GoTo
  POIN2 Label_010F77BE
 BYTE   FINE

//**************** Track 2 (Midi-Chn.1) ****************//

FireEmblemBindingBlade_ArenaBattle_002:
//  #02 //000   ----------------------------------------
 BYTE   KEYSH   FireEmblemBindingBlade_ArenaBattle_key+0
Label_010F6802:
 BYTE   MODT 0
 BYTE   LFOS 44
 BYTE   PAN   c_v-1
 BYTE   W72
 BYTE   VOICE   110
 BYTE   VOL   70*FireEmblemBindingBlade_ArenaBattle_mvl/mxv
 BYTE   W24
//  #02 //001   ----------------------------------------
 BYTE   W72
 BYTE   N05  As2  v100
 BYTE   W06
 BYTE   Fn3  v112
 BYTE   W06
 BYTE   As3  v100
 BYTE   W06
 BYTE   Fn4  v104
 BYTE   W06
//  #02 //002   ----------------------------------------
 BYTE   N08  Fn4  v016
 BYTE   W96
//  #02 //003   ----------------------------------------
 BYTE   W72
 BYTE   N05  As2  v104
 BYTE   W06
 BYTE   Fn3  v124
 BYTE   W06
 BYTE   As3  v100
 BYTE   W06
 BYTE   Fn4  v124
 BYTE   W06
//  #02 //004   ----------------------------------------
 BYTE   N08  Fn4  v016
 BYTE   W24
 BYTE   VOICE   110
 BYTE   VOL   44*FireEmblemBindingBlade_ArenaBattle_mvl/mxv
 BYTE   N52  Fs2  v088
 BYTE   N52  Bn2  v100
 BYTE   W13
 BYTE   VOL   45*FireEmblemBindingBlade_ArenaBattle_mvl/mxv
 BYTE   W07
 BYTE   VOL   47*FireEmblemBindingBlade_ArenaBattle_mvl/mxv
 BYTE   W07
 BYTE   VOL   49*FireEmblemBindingBlade_ArenaBattle_mvl/mxv
 BYTE   W07
 BYTE   VOL   49*FireEmblemBindingBlade_ArenaBattle_mvl/mxv
 BYTE   W06
 BYTE   VOL   51*FireEmblemBindingBlade_ArenaBattle_mvl/mxv
 BYTE   W07
 BYTE   VOL   51*FireEmblemBindingBlade_ArenaBattle_mvl/mxv
 BYTE   W07
 BYTE   VOL   53*FireEmblemBindingBlade_ArenaBattle_mvl/mxv
 BYTE   W06
 BYTE   TIE  Gn2
 BYTE   TIE  Cn3  v104
 BYTE   W01
 BYTE   VOL   53*FireEmblemBindingBlade_ArenaBattle_mvl/mxv
 BYTE   W07
 BYTE   VOL   56*FireEmblemBindingBlade_ArenaBattle_mvl/mxv
 BYTE   W04
//  #02 //005   ----------------------------------------
 BYTE   W02
 BYTE   VOL   56*FireEmblemBindingBlade_ArenaBattle_mvl/mxv
 BYTE   W07
 BYTE   VOL   58*FireEmblemBindingBlade_ArenaBattle_mvl/mxv
 BYTE   W07
 BYTE   VOL   58*FireEmblemBindingBlade_ArenaBattle_mvl/mxv
 BYTE   W07
 BYTE   VOL   60*FireEmblemBindingBlade_ArenaBattle_mvl/mxv
 BYTE   W07
 BYTE   VOL   63*FireEmblemBindingBlade_ArenaBattle_mvl/mxv
 BYTE   W06
 BYTE   VOL   63*FireEmblemBindingBlade_ArenaBattle_mvl/mxv
 BYTE   W07
 BYTE   VOL   63*FireEmblemBindingBlade_ArenaBattle_mvl/mxv
 BYTE   W07
 BYTE   VOL   65*FireEmblemBindingBlade_ArenaBattle_mvl/mxv
 BYTE   W07
 BYTE   VOL   68*FireEmblemBindingBlade_ArenaBattle_mvl/mxv
 BYTE   W07
 BYTE   VOL   68*FireEmblemBindingBlade_ArenaBattle_mvl/mxv
 BYTE   W06
 BYTE   VOL   68*FireEmblemBindingBlade_ArenaBattle_mvl/mxv
 BYTE   W07
 BYTE   VOL   70*FireEmblemBindingBlade_ArenaBattle_mvl/mxv
 BYTE   W07
 BYTE   VOL   70*FireEmblemBindingBlade_ArenaBattle_mvl/mxv
 BYTE   W01
 BYTE   EOT
 BYTE   Gn2  v060
 BYTE   W06
 BYTE   VOL   70*FireEmblemBindingBlade_ArenaBattle_mvl/mxv
 BYTE   W05
//  #02 //006   ----------------------------------------
 BYTE   N78  Gs2
 BYTE   N76  Cs3  v112
 BYTE   W02
 BYTE   VOL   70*FireEmblemBindingBlade_ArenaBattle_mvl/mxv
 BYTE   W06
 BYTE   VOL   70*FireEmblemBindingBlade_ArenaBattle_mvl/mxv
 BYTE   W07
 BYTE   VOL   70*FireEmblemBindingBlade_ArenaBattle_mvl/mxv
 BYTE   W07
 BYTE   VOL   70*FireEmblemBindingBlade_ArenaBattle_mvl/mxv
 BYTE   W07
 BYTE   VOL   70*FireEmblemBindingBlade_ArenaBattle_mvl/mxv
 BYTE   W07
 BYTE   VOL   70*FireEmblemBindingBlade_ArenaBattle_mvl/mxv
 BYTE   W06
 BYTE   VOL   70*FireEmblemBindingBlade_ArenaBattle_mvl/mxv
 BYTE   W07
 BYTE   VOL   70*FireEmblemBindingBlade_ArenaBattle_mvl/mxv
 BYTE   W07
 BYTE   VOL   70*FireEmblemBindingBlade_ArenaBattle_mvl/mxv
 BYTE   W07
 BYTE   VOL   70*FireEmblemBindingBlade_ArenaBattle_mvl/mxv
 BYTE   W07
 BYTE   VOL   70*FireEmblemBindingBlade_ArenaBattle_mvl/mxv
 BYTE   W06
 BYTE   VOL   70*FireEmblemBindingBlade_ArenaBattle_mvl/mxv
 BYTE   W07
 BYTE   VOL   70*FireEmblemBindingBlade_ArenaBattle_mvl/mxv
 BYTE   W01
 BYTE   N09  As2  v127
 BYTE   N09  Ds3  v124
 BYTE   W06
 BYTE   VOL   70*FireEmblemBindingBlade_ArenaBattle_mvl/mxv
 BYTE   W06
//  #02 //007   ----------------------------------------
 BYTE   N11  As2  v020
 BYTE   N11  Ds3  v028
 BYTE   W01
 BYTE   VOL   70*FireEmblemBindingBlade_ArenaBattle_mvl/mxv
 BYTE   W07
 BYTE   VOL   70*FireEmblemBindingBlade_ArenaBattle_mvl/mxv
 BYTE   W16
 BYTE   N11  As2  v016
 BYTE   N11  Ds3
 BYTE   W12
 BYTE   As2  v012
 BYTE   N11  Ds3
 BYTE   W12
 BYTE   VOICE   110
 BYTE   VOL   70*FireEmblemBindingBlade_ArenaBattle_mvl/mxv
 BYTE   N05  Ds4  v116
 BYTE   W06
 BYTE   As3  v092
 BYTE   W06
 BYTE   Gs3
 BYTE   W06
 BYTE   Ds3  v100
 BYTE   W06
 BYTE   As2  v088
 BYTE   W06
 BYTE   N03  Ds3  v100
 BYTE   W06
 BYTE   N02  Gs3
 BYTE   W06
 BYTE   N05  As3  v112
 BYTE   W06
//  #02 //008   ----------------------------------------
 BYTE   GoTo
  POIN2 Label_010F6802
 BYTE   FINE

//**************** Track 3 (Midi-Chn.2) ****************//

FireEmblemBindingBlade_ArenaBattle_003:
//  #03 //000   ----------------------------------------
 BYTE   KEYSH   FireEmblemBindingBlade_ArenaBattle_key+0
Label_010F62FE:
 BYTE   MODT 0
 BYTE   LFOS 44
 BYTE   PAN   c_v-1
 BYTE   VOL   70*FireEmblemBindingBlade_ArenaBattle_mvl/mxv
 BYTE   W72
 BYTE   VOICE   48
 BYTE   VOL   23*FireEmblemBindingBlade_ArenaBattle_mvl/mxv
 BYTE   BEND   c_v-1
 BYTE   W24
//  #03 //001   ----------------------------------------
Label_010F630E:
 BYTE   W78
 BYTE   W01
 BYTE   N05  As2  v052
 BYTE   W06
 BYTE   Fn3
 BYTE   W06
 BYTE   As3
 BYTE   W05
 BYTE   PEND 
//  #03 //002   ----------------------------------------
 BYTE   W01
 BYTE   N08  Fn4
 BYTE   W92
 BYTE   W03
//  #03 //003   ----------------------------------------
 BYTE   PATT
  POIN2 Label_010F630E
//  #03 //004   ----------------------------------------
 BYTE   W01
 BYTE   N07  Fn4  v052
 BYTE   W92
 BYTE   W03
//  #03 //005   ----------------------------------------
 BYTE   W96
//  #03 //006   ----------------------------------------
 BYTE   W96
//  #03 //007   ----------------------------------------
 BYTE   W48
 BYTE   VOICE   48
 BYTE   VOL   23*FireEmblemBindingBlade_ArenaBattle_mvl/mxv
 BYTE   W07
 BYTE   N05  Ds4
 BYTE   W06
 BYTE   As3
 BYTE   W06
 BYTE   Gs3
 BYTE   W06
 BYTE   Ds3
 BYTE   W06
 BYTE   As2
 BYTE   W06
 BYTE   N03  Ds3
 BYTE   W06
 BYTE   N02  Gs3
 BYTE   W05
//  #03 //008   ----------------------------------------
 BYTE   GoTo
  POIN2 Label_010F62FE
 BYTE   FINE

//**************** Track 4 (Midi-Chn.3) ****************//

FireEmblemBindingBlade_ArenaBattle_004:
//  #04 //000   ----------------------------------------
 BYTE   KEYSH   FireEmblemBindingBlade_ArenaBattle_key+0
Label_010F63AE:
 BYTE   VOICE   18
 BYTE   MODT 0
 BYTE   LFOS 44
 BYTE   PAN   c_v-1
 BYTE   VOL   56*FireEmblemBindingBlade_ArenaBattle_mvl/mxv
 BYTE   W96
//  #04 //001   ----------------------------------------
 BYTE   W96
//  #04 //002   ----------------------------------------
 BYTE   W96
//  #04 //003   ----------------------------------------
 BYTE   W96
//  #04 //004   ----------------------------------------
 BYTE   N92  Ds3  v100
 BYTE   W96
//  #04 //005   ----------------------------------------
 BYTE   N90
 BYTE   W96
//  #04 //006   ----------------------------------------
 BYTE   N92
 BYTE   W96
//  #04 //007   ----------------------------------------
 BYTE   N92
 BYTE   W96
//  #04 //008   ----------------------------------------
 BYTE   GoTo
  POIN2 Label_010F63AE
 BYTE   FINE

//**************** Track 5 (Midi-Chn.4) ****************//

FireEmblemBindingBlade_ArenaBattle_005:
//  #05 //000   ----------------------------------------
 BYTE   KEYSH   FireEmblemBindingBlade_ArenaBattle_key+0
Label_010F656A:
 BYTE   VOICE   30
 BYTE   MODT 0
 BYTE   LFOS 44
 BYTE   PAN   c_v-1
 BYTE   VOL   51*FireEmblemBindingBlade_ArenaBattle_mvl/mxv
 BYTE   N10  As2  v100
 BYTE   W12
 BYTE   Cn3
 BYTE   W12
 BYTE   N09  Cs3
 BYTE   W12
 BYTE   N10  As2
 BYTE   W12
 BYTE   Cn3
 BYTE   W12
 BYTE   Cs3
 BYTE   W12
 BYTE   N09  Ds3
 BYTE   W12
 BYTE   N10  Cn3
 BYTE   W12
//  #05 //001   ----------------------------------------
 BYTE   Cs3
 BYTE   W12
 BYTE   N09  Ds3
 BYTE   W12
 BYTE   N08  Fn3
 BYTE   W12
 BYTE   N10  Cs3
 BYTE   W12
 BYTE   Ds3
 BYTE   W12
 BYTE   Cn3
 BYTE   W12
 BYTE   Cs3
 BYTE   W12
 BYTE   Cn3
 BYTE   W12
//  #05 //002   ----------------------------------------
 BYTE   As2
 BYTE   W12
 BYTE   Cn3
 BYTE   W12
 BYTE   N08  Cs3
 BYTE   W12
 BYTE   N10  As2
 BYTE   W12
 BYTE   N09  Cn3
 BYTE   W12
 BYTE   N10  Cs3
 BYTE   W12
 BYTE   Ds3
 BYTE   W12
 BYTE   Cn3
 BYTE   W12
//  #05 //003   ----------------------------------------
 BYTE   Cs3
 BYTE   W12
 BYTE   Ds3
 BYTE   W12
 BYTE   N08  Fn3
 BYTE   W12
 BYTE   N10  Cs3
 BYTE   W12
 BYTE   Ds3
 BYTE   W12
 BYTE   Cn3
 BYTE   W12
 BYTE   Cs3
 BYTE   W12
 BYTE   As2
 BYTE   W12
//  #05 //004   ----------------------------------------
 BYTE   N07  Bn2
 BYTE   W12
 BYTE   Fs2
 BYTE   W12
 BYTE   N06  Bn2
 BYTE   W12
 BYTE   N07  Fs2
 BYTE   W12
 BYTE   Bn2
 BYTE   W12
 BYTE   Fs2
 BYTE   W12
 BYTE   Bn2
 BYTE   W12
 BYTE   Fs2
 BYTE   W12
//  #05 //005   ----------------------------------------
 BYTE   Cn3  v112
 BYTE   W12
 BYTE   Gn2  v100
 BYTE   W12
 BYTE   N06  Cn3  v104
 BYTE   W12
 BYTE   N07  Gn2  v100
 BYTE   W12
 BYTE   Cn3
 BYTE   W12
 BYTE   Gn2
 BYTE   W12
 BYTE   N04  Cn2
 BYTE   W12
 BYTE   N07  Gn2
 BYTE   W12
//  #05 //006   ----------------------------------------
 BYTE   Cs3  v112
 BYTE   W12
 BYTE   Gs2  v100
 BYTE   W12
 BYTE   N06  Cs3
 BYTE   W12
 BYTE   N07  Gs2
 BYTE   W12
 BYTE   Cs3
 BYTE   W12
 BYTE   Gs2
 BYTE   W12
 BYTE   Cs2
 BYTE   W12
 BYTE   Gs2
 BYTE   W12
//  #05 //007   ----------------------------------------
 BYTE   Ds3
 BYTE   W12
 BYTE   As2
 BYTE   W12
 BYTE   Ds3
 BYTE   W12
 BYTE   As2
 BYTE   W12
 BYTE   N06  Ds3
 BYTE   W12
 BYTE   N07  As2
 BYTE   W12
 BYTE   Ds2
 BYTE   W12
 BYTE   As2
 BYTE   W12
//  #05 //008   ----------------------------------------
 BYTE   GoTo
  POIN2 Label_010F656A
 BYTE   FINE

//**************** Track 6 (Midi-Chn.5) ****************//

FireEmblemBindingBlade_ArenaBattle_006:
//  #06 //000   ----------------------------------------
 BYTE   KEYSH   FireEmblemBindingBlade_ArenaBattle_key+0
Label_010F8D2E:
 BYTE   VOICE   127
 BYTE   MODT 0
 BYTE   LFOS 44
 BYTE   PAN   c_v-1
 BYTE   VOL   70*FireEmblemBindingBlade_ArenaBattle_mvl/mxv
 BYTE   N09  Cn1  v124
 BYTE   N03  Fs1  v032
 BYTE   W12
 BYTE   N01  Fs1  v016
 BYTE   W06
 BYTE   N03  Cn1  v104
 BYTE   N01  Fs1  v016
 BYTE   W06
 BYTE   N08  En1  v116
 BYTE   N02  Fs1  v012
 BYTE   W12
 BYTE   N03  Cn1  v104
 BYTE   N03  Fs1  v032
 BYTE   W12
 BYTE   N02
 BYTE   W06
 BYTE   N02
 BYTE   W06
 BYTE   N03  Cn1  v104
 BYTE   N02  Fs1  v028
 BYTE   W12
 BYTE   N09  En1  v124
 BYTE   N03  Fs1  v032
 BYTE   W12
 BYTE   N02  Cn1  v104
 BYTE   N02  Fs1  v032
 BYTE   W12
//  #06 //001   ----------------------------------------
 BYTE   N04  Cn1  v104
 BYTE   N03  Fs1  v032
 BYTE   W12
 BYTE   N01  Fs1  v016
 BYTE   W06
 BYTE   N05  Cn1  v104
 BYTE   N01  Fs1  v016
 BYTE   W06
 BYTE   N11  En1  v116
 BYTE   N02  Fs1  v012
 BYTE   W12
 BYTE   N03  Cn1  v104
 BYTE   N03  Fs1  v032
 BYTE   W12
 BYTE   N02
 BYTE   W06
 BYTE   N02
 BYTE   W06
 BYTE   N01  Cn1  v104
 BYTE   N02  Fs1  v028
 BYTE   W06
 BYTE   N04  Cn1  v104
 BYTE   W06
 BYTE   En1  v116
 BYTE   N03  Fs1  v032
 BYTE   W12
 BYTE   En1  v116
 BYTE   N02  Fs1  v032
 BYTE   W12
//  #06 //002   ----------------------------------------
 BYTE   N04  Cn1  v116
 BYTE   N03  Fs1  v032
 BYTE   W12
 BYTE   N01
 BYTE   W06
 BYTE   N04  Cn1  v104
 BYTE   N02  Fs1  v028
 BYTE   W06
 BYTE   N08  En1  v116
 BYTE   N02  Fs1  v020
 BYTE   W12
 BYTE   Cn1  v104
 BYTE   N03  Fs1  v032
 BYTE   W12
 BYTE   N02
 BYTE   W06
 BYTE   Fs1  v028
 BYTE   W06
 BYTE   N03  Cn1  v104
 BYTE   N02  Fs1  v028
 BYTE   W12
 BYTE   N09  En1  v127
 BYTE   N03  Fs1  v032
 BYTE   W12
 BYTE   N02  Cn1  v104
 BYTE   N02  Fs1  v032
 BYTE   W12
//  #06 //003   ----------------------------------------
 BYTE   N03
 BYTE   W12
 BYTE   N01  Fs1  v016
 BYTE   W06
 BYTE   N05  Cn1  v104
 BYTE   N02  Fs1  v028
 BYTE   W06
 BYTE   N11  En1  v100
 BYTE   N02  Fs1  v024
 BYTE   W12
 BYTE   N03  Cn1  v104
 BYTE   N03  Fs1  v032
 BYTE   W12
 BYTE   N01
 BYTE   W06
 BYTE   N02
 BYTE   W06
 BYTE   N02
 BYTE   W06
 BYTE   N04  Cn1  v104
 BYTE   W06
 BYTE   N06  En1
 BYTE   N02  Fs1  v032
 BYTE   W12
 BYTE   N04  En1  v124
 BYTE   N02  Fs1  v032
 BYTE   W12
//  #06 //004   ----------------------------------------
 BYTE   N04  En1  v112
 BYTE   N03  Fs1  v032
 BYTE   W12
 BYTE   N05  Cn1  v112
 BYTE   N02  Fs1  v032
 BYTE   W06
 BYTE   N03
 BYTE   W06
 BYTE   Cn1  v104
 BYTE   N02  Fs1  v024
 BYTE   W12
 BYTE   N09  En1  v127
 BYTE   N03  Fs1  v032
 BYTE   W12
 BYTE   N01  Cn1  v104
 BYTE   N01  Fs1  v032
 BYTE   W06
 BYTE   N02
 BYTE   W06
 BYTE   N03  Cn1  v104
 BYTE   N02  Fs1  v032
 BYTE   W12
 BYTE   N10  En1  v124
 BYTE   N02  Fs1  v032
 BYTE   W12
 BYTE   Cn1  v104
 BYTE   N02  Fs1  v032
 BYTE   W12
//  #06 //005   ----------------------------------------
 BYTE   N02
 BYTE   W12
 BYTE   N01
 BYTE   W06
 BYTE   N02
 BYTE   W06
 BYTE   N09  En1  v124
 BYTE   N02  Fs1  v032
 BYTE   W12
 BYTE   N03  Cn1  v104
 BYTE   N02  Fs1  v032
 BYTE   W12
 BYTE   N01
 BYTE   W06
 BYTE   N02
 BYTE   W06
 BYTE   N03  Cn1  v104
 BYTE   N02  Fs1  v028
 BYTE   W12
 BYTE   N05  En1  v127
 BYTE   N03  Fs1  v032
 BYTE   W12
 BYTE   En1  v092
 BYTE   N02  Fs1  v032
 BYTE   W12
//  #06 //006   ----------------------------------------
 BYTE   N02
 BYTE   W12
 BYTE   N01  Fs1  v028
 BYTE   W06
 BYTE   Fs1  v032
 BYTE   W06
 BYTE   N09  En1  v124
 BYTE   N02  Fs1  v032
 BYTE   W12
 BYTE   N03  Cn1  v104
 BYTE   N03  Fs1  v032
 BYTE   W12
 BYTE   N02
 BYTE   W06
 BYTE   N02
 BYTE   W06
 BYTE   N03  Cn1  v104
 BYTE   N02  Fs1  v032
 BYTE   W12
 BYTE   N09  En1  v124
 BYTE   N03  Fs1  v032
 BYTE   W12
 BYTE   Cn1  v104
 BYTE   N02  Fs1  v032
 BYTE   W12
//  #06 //007   ----------------------------------------
 BYTE   N02
 BYTE   W12
 BYTE   N01  Fs1  v008
 BYTE   W06
 BYTE   N05  Cn1  v104
 BYTE   N02  Fs1  v028
 BYTE   W06
 BYTE   N10  En1  v100
 BYTE   N02  Fs1  v028
 BYTE   W12
 BYTE   N03  Cn1  v104
 BYTE   N03  Fs1  v032
 BYTE   W12
 BYTE   N01
 BYTE   W06
 BYTE   N02
 BYTE   W06
 BYTE   N04  Cn1  v104
 BYTE   N02  Fs1  v032
 BYTE   W12
 BYTE   N04  En1  v104
 BYTE   N03  Fs1  v032
 BYTE   W12
 BYTE   N04  En1  v127
 BYTE   N01  Fs1  v032
 BYTE   W12
//  #06 //008   ----------------------------------------
 BYTE   GoTo
  POIN2 Label_010F8D2E
 BYTE   FINE

//******************************************************//
	ALIGN 4

FireEmblemBindingBlade_ArenaBattle:
	BYTE	6	// NumTrks
	BYTE	0	// NumBlks
	BYTE	FireEmblemBindingBlade_ArenaBattle_pri	// Priority
	BYTE	FireEmblemBindingBlade_ArenaBattle_rev	// Reverb.
    
	POIN2	FireEmblemBindingBlade_ArenaBattle_grp
    
	POIN2	FireEmblemBindingBlade_ArenaBattle_001
	POIN2	FireEmblemBindingBlade_ArenaBattle_002
	POIN2	FireEmblemBindingBlade_ArenaBattle_003
	POIN2	FireEmblemBindingBlade_ArenaBattle_004
	POIN2	FireEmblemBindingBlade_ArenaBattle_005
	POIN2	FireEmblemBindingBlade_ArenaBattle_006

	
