	.include "MPlayDef.s"

	.equ	FireEmblemEngageEnjoytheEveningDivineOneSurfingKyogre1_grp, voicegroup000
	.equ	FireEmblemEngageEnjoytheEveningDivineOneSurfingKyogre1_pri, 0
	.equ	FireEmblemEngageEnjoytheEveningDivineOneSurfingKyogre1_rev, 0
	.equ	FireEmblemEngageEnjoytheEveningDivineOneSurfingKyogre1_mvl, 127
	.equ	FireEmblemEngageEnjoytheEveningDivineOneSurfingKyogre1_key, 0
	.equ	FireEmblemEngageEnjoytheEveningDivineOneSurfingKyogre1_tbs, 1
	.equ	FireEmblemEngageEnjoytheEveningDivineOneSurfingKyogre1_exg, 0
	.equ	FireEmblemEngageEnjoytheEveningDivineOneSurfingKyogre1_cmp, 1

	.section .rodata
	.global	FireEmblemEngageEnjoytheEveningDivineOneSurfingKyogre1
	.align	2


@**************** Track 1 (Midi-Chn.0) ****************@

FireEmblemEngageEnjoytheEveningDivineOneSurfingKyogre1_001:
@  #01 @000   ----------------------------------------
 .byte   KEYSH , FireEmblemEngageEnjoytheEveningDivineOneSurfingKyogre1_key+0
 .byte   TEMPO , 84*FireEmblemEngageEnjoytheEveningDivineOneSurfingKyogre1_tbs/2
 .byte   VOICE , 71
 .byte   PAN , c_v-2
 .byte   VOL , 62*FireEmblemEngageEnjoytheEveningDivineOneSurfingKyogre1_mvl/mxv
 .byte   VOL , 62*FireEmblemEngageEnjoytheEveningDivineOneSurfingKyogre1_mvl/mxv
 .byte   W72
 .byte   N68 ,Fs1 ,v064
 .byte   W04
 .byte   W05
 .byte   W04
 .byte   W05
 .byte   W04
 .byte   W02
@  #01 @001   ----------------------------------------
 .byte   W03
 .byte   W04
 .byte   W05
 .byte   W04
 .byte   W05
 .byte   W04
 .byte   W05
 .byte   W04
 .byte   W05
 .byte   W04
 .byte   W05
 .byte   TIE ,Fn1 ,v080
 .byte   W48
@  #01 @002   ----------------------------------------
 .byte   W24
 .byte   W68
 .byte   W03
 .byte   EOT
 .byte   W01
@  #01 @003   ----------------------------------------
 .byte   N68 ,Ds1
 .byte   W18
 .byte   W18
 .byte   W18
 .byte   W18
 .byte   Fn1 ,v084
 .byte   W18
 .byte   W06
@  #01 @004   ----------------------------------------
 .byte   W12
 .byte   W18
 .byte   W18
 .byte   Fs1 ,v088
 .byte   W18
 .byte   W18
 .byte   W12
@  #01 @005   ----------------------------------------
 .byte   W06
 .byte   W18
 .byte   Gs1 ,v092
 .byte   W18
 .byte   W18
 .byte   W18
 .byte   W06
 .byte   N11 ,Gs3 ,v112
 .byte   W12
@  #01 @006   ----------------------------------------
 .byte   N32 ,Ds1 ,v096
 .byte   N17 ,Cs4 ,v112
 .byte   W18
 .byte   N05 ,Cn4
 .byte   W06
 .byte   N11 ,As3
 .byte   W12
 .byte   TIE ,Fn1 ,v096
 .byte   N52 ,Gs3 ,v112
 .byte   W36
 .byte   W18
 .byte   N05 ,Fn3
 .byte   W06
@  #01 @007   ----------------------------------------
 .byte   N11 ,Fs3
 .byte   W12
 .byte   N23 ,Gs3
 .byte   W24
 .byte   N11 ,As3
 .byte   W11
 .byte   EOT
 .byte   Fn1
 .byte   W01
 .byte   N68 ,Gs1 ,v096
 .byte   N52 ,Ds3 ,v112
 .byte   W36
 .byte   W12
@  #01 @008   ----------------------------------------
 .byte   W06
 .byte   N05 ,Bn2
 .byte   W06
 .byte   N11 ,Cs3
 .byte   W12
 .byte   N68 ,Cs1 ,v096
 .byte   N17 ,Ds3 ,v112
 .byte   W18
 .byte   N05 ,Cs3
 .byte   W06
 .byte   N11 ,Ds3
 .byte   W12
 .byte   N17 ,Bn2
 .byte   W18
 .byte   N05 ,As2
 .byte   W06
 .byte   N11 ,Gs2
 .byte   W12
@  #01 @009   ----------------------------------------
 .byte   N68 ,Fs1 ,v096
 .byte   N32 ,As2 ,v112
 .byte   W36
 .byte   N44 ,Fn3
 .byte   W36
 .byte   N68 ,Bn0 ,v096
 .byte   W18
 .byte   N05 ,Ds3 ,v112
 .byte   W06
@  #01 @010   ----------------------------------------
 .byte   N11 ,Fn3
 .byte   W12
 .byte   N17 ,Gs3
 .byte   W18
 .byte   N05 ,Fs3
 .byte   W06
 .byte   N11 ,Fn3
 .byte   W12
 .byte   N32 ,Cn1 ,v096
 .byte   N17 ,Ds3 ,v112
 .byte   W18
 .byte   N05 ,Cs3
 .byte   W06
 .byte   N11 ,Ds3
 .byte   W12
 .byte   N32 ,Fn1 ,v096
 .byte   N23 ,Cn3 ,v112
 .byte   W12
@  #01 @011   ----------------------------------------
 .byte   W12
 .byte   N11 ,Gs2
 .byte   W12
 .byte   TIE ,As0 ,v096
 .byte   N68 ,As2 ,v112
 .byte   W72
@  #01 @012   ----------------------------------------
Label_01160F46:
 .byte   W32
 .byte   W03
 .byte   PEND 
 .byte   EOT
 .byte   As0
 .byte   W13
Label_01160F4C:
 .byte   W24
 .byte   N68 ,Fs1 ,v112
 .byte   W24
@  #01 @013   ----------------------------------------
Label_01160F51:
 .byte   W48
 .byte   N68 ,Fn1 ,v112
 .byte   W48
 .byte   PEND 
@  #01 @014   ----------------------------------------
 .byte   W24
 .byte   N32 ,Ds1
 .byte   W36
 .byte   Gs1
 .byte   W36
@  #01 @015   ----------------------------------------
 .byte   N68 ,Cs1
 .byte   W72
 .byte   Fn1
 .byte   W24
@  #01 @016   ----------------------------------------
 .byte   W48
 .byte   As0
 .byte   W48
@  #01 @017   ----------------------------------------
 .byte   W24
 .byte   Cn1
 .byte   W72
@  #01 @018   ----------------------------------------
 .byte   Fn1
 .byte   W72
 .byte   Fs1
 .byte   W24
@  #01 @019   ----------------------------------------
 .byte   PATT
  .word Label_01160F51
@  #01 @020   ----------------------------------------
 .byte   W24
 .byte   N32 ,Ds1 ,v112
 .byte   W36
 .byte   Gs0
 .byte   W36
@  #01 @021   ----------------------------------------
Label_01160F78:
 .byte   N32 ,Cs1 ,v112
 .byte   W48
 .byte   N11 ,As2
 .byte   W12
 .byte   Cn3
 .byte   W12
 .byte   PEND 
Label_01160F82:
 .byte   TIE ,Fs1 ,v096
 .byte   N11 ,Ds3 ,v112
 .byte   W18
 .byte   N05 ,Cs3
 .byte   W06
@  #01 @022   ----------------------------------------
 .byte   Ds3
 .byte   W12
 .byte   N52 ,Gs2
 .byte   W36
 .byte   W18
 .byte   N05 ,As2
 .byte   W06
 .byte   N08 ,Bn2
 .byte   W11
 .byte   PEND 
 .byte   EOT
 .byte   Fs1
 .byte   W01
Label_01160F9C:
 .byte   N80 ,Fs1 ,v096
 .byte   N80 ,Cs3 ,v112
 .byte   W72
@  #01 @023   ----------------------------------------
 .byte   W36
 .byte   PEND 
 .byte   W72
@  #01 @024   ----------------------------------------
Label_01160FA6:
 .byte   N68 ,As0 ,v096
 .byte   W72
 .byte   PEND 
Label_01160FAB:
 .byte   N68 ,Cn1 ,v096
 .byte   W72
 .byte   PEND 
@  #01 @025   ----------------------------------------
Label_01160FB0:
 .byte   W36
 .byte   N32 ,As0 ,v096
 .byte   W06
 .byte   W07
 .byte   W07
 .byte   W07
 .byte   W06
 .byte   W03
 .byte   PEND 
Label_01160FBB:
 .byte   N32 ,Cn1 ,v104
 .byte   W04
 .byte   W07
 .byte   W07
 .byte   W06
@  #01 @026   ----------------------------------------
 .byte   W07
 .byte   W05
 .byte   Fn1 ,v108
 .byte   W02
 .byte   W07
 .byte   W06
 .byte   W07
 .byte   W07
 .byte   W07
 .byte   PEND 
Label_01160FCD:
 .byte   N68 ,Ds1 ,v112
 .byte   W72
 .byte   PEND 
@  #01 @027   ----------------------------------------
Label_01160FD2:
 .byte   TIE ,Cs1 ,v112
 .byte   W36
 .byte   N32 ,Fn3
 .byte   W36
 .byte   PEND 
Label_01160FDA:
 .byte   N32 ,Ds3 ,v112
 .byte   W32
@  #01 @028   ----------------------------------------
 .byte   W03
 .byte   PEND 
 .byte   EOT
 .byte   Cs1
 .byte   W01
 .byte   N32 ,Gs2
 .byte   W36
 .byte   W72
@  #01 @029   ----------------------------------------
Label_01160FE7:
 .byte   N23 ,Fn1 ,v096
 .byte   W72
 .byte   PEND 
Label_01160FEC:
 .byte   N23 ,Fs1 ,v096
 .byte   W72
 .byte   PEND 
@  #01 @030   ----------------------------------------
Label_01160FF1:
 .byte   N23 ,Gs1 ,v096
 .byte   W72
 .byte   PEND 
Label_01160FF6:
 .byte   N23 ,As1 ,v096
 .byte   W72
 .byte   PEND 
@  #01 @031   ----------------------------------------
Label_01160FFB:
 .byte   N23 ,Fn1 ,v080
 .byte   N23 ,Ds3 ,v112
 .byte   W24
 .byte   N11 ,Cs3
 .byte   W12
 .byte   N23 ,Fn1 ,v080
 .byte   N23 ,Ds3 ,v112
 .byte   W24
 .byte   N11 ,Fn3
 .byte   W12
 .byte   PEND 
Label_01161010:
 .byte   N23 ,Fs1 ,v080
 .byte   N11 ,Ds3 ,v112
 .byte   W12
 .byte   Cs3
 .byte   W12
@  #01 @032   ----------------------------------------
 .byte   N32 ,As2
 .byte   W12
 .byte   N23 ,Fs1 ,v080
 .byte   W36
 .byte   PEND 
Label_01161021:
 .byte   N23 ,Gs1 ,v080
 .byte   N23 ,Ds3 ,v112
 .byte   W24
 .byte   N11 ,Cs3
 .byte   W12
 .byte   N23 ,Gs0 ,v080
 .byte   N23 ,Ds3 ,v112
 .byte   W24
@  #01 @033   ----------------------------------------
 .byte   N11 ,Fn3
 .byte   W12
 .byte   PEND 
Label_01161036:
 .byte   N23 ,As0 ,v080
 .byte   N56 ,Gs3 ,v112
 .byte   W36
 .byte   N23 ,As0 ,v080
 .byte   W36
 .byte   PEND 
Label_01161042:
 .byte   N23 ,An1 ,v096
 .byte   W36
@  #01 @034   ----------------------------------------
 .byte   En1
 .byte   W24
 .byte   N11
 .byte   W12
 .byte   PEND 
Label_0116104B:
 .byte   N11 ,An1 ,v096
 .byte   W24
 .byte   Ds1
 .byte   W12
 .byte   N23 ,An0
 .byte   W24
@  #01 @035   ----------------------------------------
 .byte   N11 ,An1
 .byte   W12
 .byte   PEND 
Label_01161058:
 .byte   N23 ,Gn1 ,v096
 .byte   W36
 .byte   Dn1
 .byte   W24
 .byte   N11
 .byte   W12
 .byte   PEND 
Label_01161061:
 .byte   N11 ,Gn0 ,v096
 .byte   W36
@  #01 @036   ----------------------------------------
 .byte   Gn1
 .byte   W24
 .byte   Gn0
 .byte   W12
 .byte   PEND 
Label_0116106A:
 .byte   N11 ,An1 ,v096
 .byte   N32 ,Ds4
 .byte   W36
 .byte   Gs4
 .byte   W36
 .byte   PEND 
@  #01 @037   ----------------------------------------
Label_01161073:
 .byte   N23 ,An2 ,v096
 .byte   N56 ,Ds4
 .byte   W36
 .byte   N23 ,An1
 .byte   W36
 .byte   PEND 
Label_0116107D:
 .byte   N23 ,Gs1 ,v096
 .byte   N32 ,Ds4
 .byte   W36
@  #01 @038   ----------------------------------------
 .byte   Gs4
 .byte   W36
 .byte   PEND 
Label_01161086:
 .byte   N23 ,Gs2 ,v096
 .byte   N56 ,Ds4
 .byte   W36
 .byte   N23 ,Gs1
 .byte   W36
 .byte   PEND 
@  #01 @039   ----------------------------------------
Label_01161090:
 .byte   N23 ,As0 ,v096
 .byte   W36
 .byte   Cn1
 .byte   W36
 .byte   PEND 
@  #01 @040   ----------------------------------------
 .byte   PATT
  .word Label_01160FE7
@  #01 @041   ----------------------------------------
Label_0116109C:
 .byte   W36
 .byte   N23 ,As0 ,v096
 .byte   W36
 .byte   PEND 
Label_011610A2:
 .byte   N23 ,Cn1 ,v096
 .byte   W36
@  #01 @042   ----------------------------------------
 .byte   Fn1
 .byte   W36
 .byte   PEND 
Label_011610A9:
 .byte   N23 ,Ds1 ,v096
 .byte   W72
 .byte   PEND 
@  #01 @043   ----------------------------------------
Label_011610AE:
 .byte   N23 ,Cs1 ,v096
 .byte   W72
 .byte   PEND 
Label_011610B3:
 .byte   TIE ,Bn0 ,v096
 .byte   W72
 .byte   PEND 
@  #01 @044   ----------------------------------------
Label_011610B8:
 .byte   W68
 .byte   W03
 .byte   PEND 
 .byte   EOT
 .byte   Bn0
 .byte   W01
Label_011610BE:
 .byte   TIE ,Gs0 ,v096
 .byte   W72
 .byte   PEND 
@  #01 @045   ----------------------------------------
 .byte   PATT
  .word Label_01160F46
@  #01 @046   ----------------------------------------
 .byte   EOT
 .byte   Gs0
 .byte   W01
 .byte   N32 ,As0 ,v096
 .byte   W36
Label_011610CF:
 .byte   TIE ,As0 ,v096
 .byte   N68 ,Gs2 ,v052
 .byte   W72
 .byte   PEND 
@  #01 @047   ----------------------------------------
Label_011610D7:
 .byte   N32 ,Cs3 ,v052
 .byte   W36
 .byte   Fn3
 .byte   W36
 .byte   PEND 
Label_011610DE:
 .byte   N68 ,Fn3 ,v052
 .byte   W68
@  #01 @048   ----------------------------------------
 .byte   W03
 .byte   PEND 
 .byte   EOT
 .byte   As0
 .byte   W01
 .byte   W72
 .byte   TEMPO , 84*FireEmblemEngageEnjoytheEveningDivineOneSurfingKyogre1_tbs/2
 .byte   W72
@  #01 @049   ----------------------------------------
 .byte   N68 ,Fs1 ,v064
 .byte   W04
 .byte   W05
 .byte   W04
 .byte   W05
 .byte   W04
 .byte   W05
 .byte   W04
 .byte   W05
 .byte   W04
 .byte   W05
 .byte   W04
 .byte   W05
 .byte   W04
 .byte   W05
 .byte   W04
 .byte   W05
 .byte   TIE ,Fn1 ,v080
 .byte   W72
@  #01 @050   ----------------------------------------
 .byte   W68
 .byte   W03
 .byte   EOT
 .byte   W01
 .byte   N68 ,Ds1
 .byte   W18
 .byte   W18
@  #01 @051   ----------------------------------------
 .byte   W18
 .byte   W18
 .byte   Fn1 ,v084
 .byte   W18
 .byte   W18
 .byte   W18
 .byte   W18
@  #01 @052   ----------------------------------------
 .byte   Fs1 ,v088
 .byte   W18
 .byte   W18
 .byte   W18
 .byte   W18
 .byte   Gs1 ,v092
 .byte   W18
 .byte   W18
@  #01 @053   ----------------------------------------
 .byte   W18
 .byte   W06
 .byte   N11 ,Gs3 ,v112
 .byte   W12
 .byte   N32 ,Ds1 ,v096
 .byte   N17 ,Cs4 ,v112
 .byte   W18
 .byte   N05 ,Cn4
 .byte   W06
 .byte   N11 ,As3
 .byte   W12
 .byte   TIE ,Fn1 ,v096
 .byte   N52 ,Gs3 ,v112
 .byte   W36
@  #01 @054   ----------------------------------------
 .byte   W18
 .byte   N05 ,Fn3
 .byte   W06
 .byte   N11 ,Fs3
 .byte   W12
 .byte   N23 ,Gs3
 .byte   W24
 .byte   N11 ,As3
 .byte   W11
 .byte   EOT
 .byte   Fn1
 .byte   W01
 .byte   N68 ,Gs1 ,v096
 .byte   N52 ,Ds3 ,v112
 .byte   W36
@  #01 @055   ----------------------------------------
 .byte   W18
 .byte   N05 ,Bn2
 .byte   W06
 .byte   N11 ,Cs3
 .byte   W12
 .byte   N68 ,Cs1 ,v096
 .byte   N17 ,Ds3 ,v112
 .byte   W18
 .byte   N05 ,Cs3
 .byte   W06
 .byte   N11 ,Ds3
 .byte   W12
 .byte   N17 ,Bn2
 .byte   W18
 .byte   N05 ,As2
 .byte   W06
@  #01 @056   ----------------------------------------
 .byte   N11 ,Gs2
 .byte   W12
 .byte   N68 ,Fs1 ,v096
 .byte   N32 ,As2 ,v112
 .byte   W36
 .byte   N44 ,Fn3
 .byte   W36
 .byte   N68 ,Bn0 ,v096
 .byte   W18
@  #01 @057   ----------------------------------------
 .byte   N05 ,Ds3 ,v112
 .byte   W06
 .byte   N11 ,Fn3
 .byte   W12
 .byte   N17 ,Gs3
 .byte   W18
 .byte   N05 ,Fs3
 .byte   W06
 .byte   N11 ,Fn3
 .byte   W12
 .byte   N32 ,Cn1 ,v096
 .byte   N17 ,Ds3 ,v112
 .byte   W18
 .byte   N05 ,Cs3
 .byte   W06
 .byte   N11 ,Ds3
 .byte   W12
 .byte   N32 ,Fn1 ,v096
 .byte   N23 ,Cn3 ,v112
 .byte   W24
@  #01 @058   ----------------------------------------
 .byte   N11 ,Gs2
 .byte   W12
 .byte   TIE ,As0 ,v096
 .byte   N68 ,As2 ,v112
 .byte   W72
@  #01 @059   ----------------------------------------
 .byte   PATT
  .word Label_01160F46
@  #01 @060   ----------------------------------------
 .byte   EOT
 .byte   As0
 .byte   W13
 .byte   GOTO
  .word Label_01160F4C
@  #01 @061   ----------------------------------------
 .byte   W24
Label_011611B4:
 .byte   N68 ,Fs1 ,v112
 .byte   W72
 .byte   PEND 
@  #01 @062   ----------------------------------------
Label_011611B9:
 .byte   N68 ,Fn1 ,v112
 .byte   W72
 .byte   PEND 
 .byte   N32 ,Ds1
 .byte   W36
@  #01 @063   ----------------------------------------
 .byte   Gs1
 .byte   W36
 .byte   N68 ,Cs1
 .byte   W72
@  #01 @064   ----------------------------------------
 .byte   PATT
  .word Label_011611B9
@  #01 @065   ----------------------------------------
 .byte   N68 ,As0 ,v112
 .byte   W72
 .byte   Cn1
 .byte   W72
@  #01 @066   ----------------------------------------
 .byte   PATT
  .word Label_011611B9
@  #01 @067   ----------------------------------------
 .byte   PATT
  .word Label_011611B4
@  #01 @068   ----------------------------------------
 .byte   PATT
  .word Label_011611B9
@  #01 @069   ----------------------------------------
 .byte   N32 ,Ds1 ,v112
 .byte   W36
 .byte   Gs0
 .byte   W36
@  #01 @070   ----------------------------------------
 .byte   PATT
  .word Label_01160F78
@  #01 @071   ----------------------------------------
 .byte   PATT
  .word Label_01160F82
@  #01 @072   ----------------------------------------
 .byte   EOT
 .byte   Fs1
 .byte   W01
@  #01 @073   ----------------------------------------
 .byte   PATT
  .word Label_01160F9C
@  #01 @074   ----------------------------------------
 .byte   W72
@  #01 @075   ----------------------------------------
 .byte   PATT
  .word Label_01160FA6
@  #01 @076   ----------------------------------------
 .byte   PATT
  .word Label_01160FAB
@  #01 @077   ----------------------------------------
 .byte   PATT
  .word Label_01160FB0
@  #01 @078   ----------------------------------------
 .byte   PATT
  .word Label_01160FBB
@  #01 @079   ----------------------------------------
 .byte   PATT
  .word Label_01160FCD
@  #01 @080   ----------------------------------------
 .byte   PATT
  .word Label_01160FD2
@  #01 @081   ----------------------------------------
 .byte   PATT
  .word Label_01160FDA
@  #01 @082   ----------------------------------------
 .byte   EOT
 .byte   Cs1
 .byte   W01
 .byte   N32 ,Gs2 ,v112
 .byte   W36
 .byte   W72
@  #01 @083   ----------------------------------------
 .byte   PATT
  .word Label_01160FE7
@  #01 @084   ----------------------------------------
 .byte   PATT
  .word Label_01160FEC
@  #01 @085   ----------------------------------------
 .byte   PATT
  .word Label_01160FF1
@  #01 @086   ----------------------------------------
 .byte   PATT
  .word Label_01160FF6
@  #01 @087   ----------------------------------------
 .byte   PATT
  .word Label_01160FFB
@  #01 @088   ----------------------------------------
 .byte   PATT
  .word Label_01161010
@  #01 @089   ----------------------------------------
 .byte   PATT
  .word Label_01161021
@  #01 @090   ----------------------------------------
 .byte   PATT
  .word Label_01161036
@  #01 @091   ----------------------------------------
 .byte   PATT
  .word Label_01161042
@  #01 @092   ----------------------------------------
 .byte   PATT
  .word Label_0116104B
@  #01 @093   ----------------------------------------
 .byte   PATT
  .word Label_01161058
@  #01 @094   ----------------------------------------
 .byte   PATT
  .word Label_01161061
@  #01 @095   ----------------------------------------
 .byte   PATT
  .word Label_0116106A
@  #01 @096   ----------------------------------------
 .byte   PATT
  .word Label_01161073
@  #01 @097   ----------------------------------------
 .byte   PATT
  .word Label_0116107D
@  #01 @098   ----------------------------------------
 .byte   PATT
  .word Label_01161086
@  #01 @099   ----------------------------------------
 .byte   PATT
  .word Label_01161090
@  #01 @100   ----------------------------------------
 .byte   PATT
  .word Label_01160FE7
@  #01 @101   ----------------------------------------
 .byte   PATT
  .word Label_0116109C
@  #01 @102   ----------------------------------------
 .byte   PATT
  .word Label_011610A2
@  #01 @103   ----------------------------------------
 .byte   PATT
  .word Label_011610A9
@  #01 @104   ----------------------------------------
 .byte   PATT
  .word Label_011610AE
@  #01 @105   ----------------------------------------
 .byte   PATT
  .word Label_011610B3
@  #01 @106   ----------------------------------------
 .byte   PATT
  .word Label_011610B8
@  #01 @107   ----------------------------------------
 .byte   EOT
 .byte   Bn0
 .byte   W01
@  #01 @108   ----------------------------------------
 .byte   PATT
  .word Label_011610BE
@  #01 @109   ----------------------------------------
 .byte   PATT
  .word Label_01160F46
@  #01 @110   ----------------------------------------
 .byte   EOT
 .byte   Gs0
 .byte   W01
 .byte   N32 ,As0 ,v096
 .byte   W36
@  #01 @111   ----------------------------------------
 .byte   PATT
  .word Label_011610CF
@  #01 @112   ----------------------------------------
 .byte   PATT
  .word Label_011610D7
@  #01 @113   ----------------------------------------
 .byte   PATT
  .word Label_011610DE
@  #01 @114   ----------------------------------------
 .byte   EOT
 .byte   As0
 .byte   W01
 .byte   W68
 .byte   W03
 .byte   FINE

@**************** Track 2 (Midi-Chn.1) ****************@

FireEmblemEngageEnjoytheEveningDivineOneSurfingKyogre1_002:
@  #02 @000   ----------------------------------------
 .byte   KEYSH , FireEmblemEngageEnjoytheEveningDivineOneSurfingKyogre1_key+0
 .byte   VOICE , 68
 .byte   PAN , c_v-5
 .byte   VOL , 62*FireEmblemEngageEnjoytheEveningDivineOneSurfingKyogre1_mvl/mxv
 .byte   VOL , 62*FireEmblemEngageEnjoytheEveningDivineOneSurfingKyogre1_mvl/mxv
 .byte   N17 ,Fn3 ,v096
 .byte   W18
 .byte   N05 ,Fs3
 .byte   W06
 .byte   N11 ,Gs3
 .byte   W12
 .byte   N17 ,Fn3
 .byte   W18
 .byte   N05 ,Ds3
 .byte   W06
 .byte   N11 ,Cs3
 .byte   W12
 .byte   N32 ,Fn3
 .byte   W24
@  #02 @001   ----------------------------------------
 .byte   W24
 .byte   N11 ,Gs2
 .byte   W12
 .byte   Fn3
 .byte   W12
 .byte   N32 ,Ds3
 .byte   W36
 .byte   Gs3
 .byte   W12
@  #02 @002   ----------------------------------------
 .byte   W24
 .byte   Ds3
 .byte   W54
 .byte   N05 ,Cs3
 .byte   W06
 .byte   N11 ,Cn3
 .byte   W12
@  #02 @003   ----------------------------------------
 .byte   N17 ,Gs2
 .byte   W18
 .byte   N05 ,As2
 .byte   W06
 .byte   N11 ,Cn3
 .byte   W12
 .byte   N44 ,Cs3
 .byte   W36
 .byte   W18
 .byte   N05 ,Ds3
 .byte   W06
@  #02 @004   ----------------------------------------
 .byte   N11 ,Fn3
 .byte   W12
 .byte   N23 ,Cn3
 .byte   W24
 .byte   N11 ,Gs2
 .byte   W12
 .byte   N32 ,As2
 .byte   W36
 .byte   Fn3
 .byte   W12
@  #02 @005   ----------------------------------------
 .byte   W24
 .byte   Ds3
 .byte   W36
 .byte   Cn3
 .byte   W36
@  #02 @006   ----------------------------------------
 .byte   W96
@  #02 @007   ----------------------------------------
 .byte   W84
 .byte   N68 ,Fs2 ,v052
 .byte   W02
 .byte   W02
 .byte   W03
 .byte   W02
 .byte   W02
 .byte   W01
@  #02 @008   ----------------------------------------
 .byte   W01
 .byte   W03
 .byte   W02
 .byte   W02
 .byte   W03
 .byte   W02
 .byte   W02
 .byte   W03
 .byte   W02
 .byte   W02
 .byte   W02
 .byte   W01
 .byte   W02
 .byte   W02
 .byte   W03
 .byte   W02
 .byte   W02
 .byte   W03
 .byte   W02
 .byte   W02
 .byte   W03
 .byte   W02
 .byte   W02
 .byte   W03
 .byte   W02
 .byte   W02
 .byte   W03
 .byte   N17 ,Fn2 ,v080
 .byte   W18
 .byte   N05 ,Fs2
 .byte   W06
 .byte   N11 ,Gs2
 .byte   W12
@  #02 @009   ----------------------------------------
 .byte   N32 ,Fs2
 .byte   W36
 .byte   As2
 .byte   W36
 .byte   N68 ,An2
 .byte   W24
@  #02 @010   ----------------------------------------
 .byte   W48
 .byte   N32 ,Fs2
 .byte   W36
 .byte   Gs2
 .byte   W12
@  #02 @011   ----------------------------------------
 .byte   W24
 .byte   N68 ,Fn2
 .byte   W72
@  #02 @012   ----------------------------------------
 .byte   W48
Label_01132446:
 .byte   W48
@  #02 @013   ----------------------------------------
 .byte   W96
@  #02 @014   ----------------------------------------
 .byte   W96
@  #02 @015   ----------------------------------------
 .byte   W96
@  #02 @016   ----------------------------------------
 .byte   W96
@  #02 @017   ----------------------------------------
 .byte   W96
@  #02 @018   ----------------------------------------
 .byte   N32 ,Cs3 ,v080
 .byte   W36
 .byte   Cn3
 .byte   W36
 .byte   N17 ,Ds4 ,v112
 .byte   W18
 .byte   N05 ,Cs4
 .byte   W06
@  #02 @019   ----------------------------------------
 .byte   N11 ,Cn4
 .byte   W12
 .byte   N17 ,As3
 .byte   W18
 .byte   N05 ,Gs3
 .byte   W06
 .byte   N11 ,Cs4
 .byte   W12
 .byte   N32 ,Cn4
 .byte   W36
 .byte   N44 ,Fn3
 .byte   W12
@  #02 @020   ----------------------------------------
 .byte   W24
 .byte   W18
 .byte   N05 ,Fs3
 .byte   W06
 .byte   N11 ,Gs3
 .byte   W12
 .byte   N17 ,Fn3
 .byte   W18
 .byte   N05 ,Ds3
 .byte   W06
 .byte   N11 ,Fn3
 .byte   W12
@  #02 @021   ----------------------------------------
Label_0113247C:
 .byte   N32 ,Cn3 ,v112
 .byte   W72
 .byte   PEND 
 .byte   W96
@  #02 @022   ----------------------------------------
 .byte   W12
 .byte   W96
@  #02 @023   ----------------------------------------
 .byte   W12
 .byte   W72
 .byte   W72
@  #02 @024   ----------------------------------------
 .byte   W72
 .byte   W72
@  #02 @025   ----------------------------------------
 .byte   W72
 .byte   W72
@  #02 @026   ----------------------------------------
 .byte   W72
 .byte   W72
@  #02 @027   ----------------------------------------
 .byte   W72
 .byte   W72
@  #02 @028   ----------------------------------------
 .byte   W72
 .byte   W72
@  #02 @029   ----------------------------------------
 .byte   W72
 .byte   W72
@  #02 @030   ----------------------------------------
 .byte   W72
 .byte   W72
@  #02 @031   ----------------------------------------
 .byte   W72
 .byte   W72
@  #02 @032   ----------------------------------------
 .byte   W72
 .byte   W72
@  #02 @033   ----------------------------------------
 .byte   W72
 .byte   W72
@  #02 @034   ----------------------------------------
 .byte   W72
 .byte   W72
@  #02 @035   ----------------------------------------
 .byte   W72
 .byte   W72
@  #02 @036   ----------------------------------------
 .byte   W72
 .byte   W72
@  #02 @037   ----------------------------------------
 .byte   W72
 .byte   W72
@  #02 @038   ----------------------------------------
 .byte   W72
 .byte   W72
@  #02 @039   ----------------------------------------
 .byte   W72
 .byte   W72
@  #02 @040   ----------------------------------------
 .byte   W72
Label_011324A8:
 .byte   N68 ,Gs2 ,v052
 .byte   W72
 .byte   PEND 
@  #02 @041   ----------------------------------------
Label_011324AD:
 .byte   N32 ,Cs3 ,v052
 .byte   W36
 .byte   Fn3
 .byte   W36
 .byte   PEND 
Label_011324B4:
 .byte   N68 ,Fn3 ,v052
 .byte   W72
 .byte   PEND 
@  #02 @042   ----------------------------------------
 .byte   W72
 .byte   N17 ,Fn3 ,v096
 .byte   W18
 .byte   N05 ,Fs3
 .byte   W06
@  #02 @043   ----------------------------------------
 .byte   N11 ,Gs3
 .byte   W12
 .byte   N17 ,Fn3
 .byte   W18
 .byte   N05 ,Ds3
 .byte   W06
 .byte   N11 ,Cs3
 .byte   W12
 .byte   N32 ,Fn3
 .byte   W48
@  #02 @044   ----------------------------------------
 .byte   N11 ,Gs2
 .byte   W12
 .byte   Fn3
 .byte   W12
 .byte   N32 ,Ds3
 .byte   W36
 .byte   Gs3
 .byte   W36
@  #02 @045   ----------------------------------------
 .byte   Ds3
 .byte   W54
 .byte   N05 ,Cs3
 .byte   W06
 .byte   N11 ,Cn3
 .byte   W12
 .byte   N17 ,Gs2
 .byte   W18
 .byte   N05 ,As2
 .byte   W06
@  #02 @046   ----------------------------------------
 .byte   N11 ,Cn3
 .byte   W12
 .byte   N44 ,Cs3
 .byte   W36
 .byte   W18
 .byte   N05 ,Ds3
 .byte   W06
 .byte   N11 ,Fn3
 .byte   W12
 .byte   N23 ,Cn3
 .byte   W24
@  #02 @047   ----------------------------------------
 .byte   N11 ,Gs2
 .byte   W12
 .byte   N32 ,As2
 .byte   W36
 .byte   Fn3
 .byte   W36
 .byte   Ds3
 .byte   W36
@  #02 @048   ----------------------------------------
 .byte   Cn3
 .byte   W36
 .byte   W72
@  #02 @049   ----------------------------------------
 .byte   W72
 .byte   W36
@  #02 @050   ----------------------------------------
 .byte   N68 ,Fs2 ,v052
 .byte   W02
 .byte   W02
 .byte   W03
 .byte   W02
 .byte   W02
 .byte   W02
 .byte   W03
 .byte   W02
 .byte   W02
 .byte   W03
 .byte   W02
 .byte   W02
 .byte   W03
 .byte   W02
 .byte   W02
 .byte   W02
 .byte   W01
 .byte   W02
 .byte   W02
 .byte   W03
 .byte   W02
 .byte   W02
 .byte   W03
 .byte   W02
 .byte   W02
 .byte   W03
 .byte   W02
 .byte   W02
 .byte   W03
 .byte   W02
 .byte   W02
 .byte   W03
 .byte   N17 ,Fn2 ,v080
 .byte   W18
 .byte   N05 ,Fs2
 .byte   W06
@  #02 @051   ----------------------------------------
 .byte   N11 ,Gs2
 .byte   W12
 .byte   N32 ,Fs2
 .byte   W36
 .byte   As2
 .byte   W36
 .byte   N68 ,An2
 .byte   W72
@  #02 @052   ----------------------------------------
 .byte   N32 ,Fs2
 .byte   W36
 .byte   Gs2
 .byte   W36
 .byte   N68 ,Fn2
 .byte   W72
@  #02 @053   ----------------------------------------
 .byte   W48
 .byte   GOTO
  .word Label_01132446
@  #02 @054   ----------------------------------------
 .byte   W24
 .byte   W72
@  #02 @055   ----------------------------------------
 .byte   W72
 .byte   W72
@  #02 @056   ----------------------------------------
 .byte   W72
 .byte   W72
@  #02 @057   ----------------------------------------
 .byte   W72
 .byte   W72
@  #02 @058   ----------------------------------------
 .byte   N32 ,Cs3 ,v080
 .byte   W36
 .byte   Cn3
 .byte   W36
 .byte   N17 ,Ds4 ,v112
 .byte   W18
 .byte   N05 ,Cs4
 .byte   W06
@  #02 @059   ----------------------------------------
 .byte   N11 ,Cn4
 .byte   W12
 .byte   N17 ,As3
 .byte   W18
 .byte   N05 ,Gs3
 .byte   W06
 .byte   N11 ,Cs4
 .byte   W12
 .byte   N32 ,Cn4
 .byte   W36
 .byte   N44 ,Fn3
 .byte   W36
@  #02 @060   ----------------------------------------
 .byte   W18
 .byte   N05 ,Fs3
 .byte   W06
 .byte   N11 ,Gs3
 .byte   W12
 .byte   N17 ,Fn3
 .byte   W18
 .byte   N05 ,Ds3
 .byte   W06
 .byte   N11 ,Fn3
 .byte   W12
@  #02 @061   ----------------------------------------
 .byte   PATT
  .word Label_0113247C
@  #02 @062   ----------------------------------------
 .byte   W96
@  #02 @063   ----------------------------------------
 .byte   W12
 .byte   W96
@  #02 @064   ----------------------------------------
 .byte   W12
 .byte   W72
 .byte   W72
@  #02 @065   ----------------------------------------
 .byte   W72
 .byte   W72
@  #02 @066   ----------------------------------------
 .byte   W72
 .byte   W72
@  #02 @067   ----------------------------------------
 .byte   W72
 .byte   W72
@  #02 @068   ----------------------------------------
 .byte   W72
 .byte   W72
@  #02 @069   ----------------------------------------
 .byte   W72
 .byte   W72
@  #02 @070   ----------------------------------------
 .byte   W72
 .byte   W72
@  #02 @071   ----------------------------------------
 .byte   W72
 .byte   W72
@  #02 @072   ----------------------------------------
 .byte   W72
 .byte   W72
@  #02 @073   ----------------------------------------
 .byte   W72
 .byte   W72
@  #02 @074   ----------------------------------------
 .byte   W72
 .byte   W72
@  #02 @075   ----------------------------------------
 .byte   W72
 .byte   W72
@  #02 @076   ----------------------------------------
 .byte   W72
 .byte   W72
@  #02 @077   ----------------------------------------
 .byte   W72
 .byte   W72
@  #02 @078   ----------------------------------------
 .byte   W72
 .byte   W72
@  #02 @079   ----------------------------------------
 .byte   W72
 .byte   W72
@  #02 @080   ----------------------------------------
 .byte   W72
 .byte   W72
@  #02 @081   ----------------------------------------
 .byte   W72
@  #02 @082   ----------------------------------------
 .byte   PATT
  .word Label_011324A8
@  #02 @083   ----------------------------------------
 .byte   PATT
  .word Label_011324AD
@  #02 @084   ----------------------------------------
 .byte   PATT
  .word Label_011324B4
@  #02 @085   ----------------------------------------
 .byte   W68
 .byte   W03
 .byte   FINE

@**************** Track 3 (Midi-Chn.2) ****************@

FireEmblemEngageEnjoytheEveningDivineOneSurfingKyogre1_003:
@  #03 @000   ----------------------------------------
 .byte   KEYSH , FireEmblemEngageEnjoytheEveningDivineOneSurfingKyogre1_key+0
 .byte   VOICE , 24
 .byte   PAN , c_v-1
 .byte   VOL , 42*FireEmblemEngageEnjoytheEveningDivineOneSurfingKyogre1_mvl/mxv
 .byte   VOL , 42*FireEmblemEngageEnjoytheEveningDivineOneSurfingKyogre1_mvl/mxv
 .byte   N11 ,Cs2 ,v064
 .byte   W12
 .byte   Gs2
 .byte   W12
 .byte   Ds3
 .byte   W12
 .byte   N32 ,Gs2
 .byte   W36
 .byte   N11 ,Fs1
 .byte   W12
 .byte   Cs2
 .byte   W12
@  #03 @001   ----------------------------------------
 .byte   Fs2
 .byte   W12
 .byte   N32 ,As2
 .byte   W36
 .byte   N11 ,Fn1
 .byte   W12
 .byte   Cn2
 .byte   W12
 .byte   Gs2
 .byte   W12
 .byte   N32 ,Cn3
 .byte   W12
@  #03 @002   ----------------------------------------
 .byte   W24
 .byte   N11 ,As1
 .byte   W12
 .byte   Fn2
 .byte   W12
 .byte   Gs2
 .byte   W12
 .byte   N32 ,Cn3
 .byte   W36
@  #03 @003   ----------------------------------------
 .byte   N11 ,Ds2
 .byte   W12
 .byte   Fs2
 .byte   W12
 .byte   As2
 .byte   W12
 .byte   N32 ,Cs3
 .byte   W36
 .byte   N11 ,Fn1
 .byte   W12
 .byte   Fn2
 .byte   W12
@  #03 @004   ----------------------------------------
 .byte   Gs2
 .byte   W12
 .byte   N32 ,Cn3
 .byte   W36
 .byte   N11 ,Fs1
 .byte   W12
 .byte   Fs2
 .byte   W12
 .byte   As2
 .byte   W12
 .byte   N32 ,Cs3
 .byte   W12
@  #03 @005   ----------------------------------------
 .byte   W24
 .byte   N32
 .byte   W36
 .byte   Cn3
 .byte   W36
@  #03 @006   ----------------------------------------
 .byte   Ds3
 .byte   W02
 .byte   Fs3
 .byte   W32
 .byte   W02
 .byte   N11 ,Fn1
 .byte   W12
 .byte   Ds2
 .byte   W12
 .byte   Gs2
 .byte   W12
 .byte   Cn3
 .byte   W24
@  #03 @007   ----------------------------------------
 .byte   W48
 .byte   Cs2
 .byte   W12
 .byte   Fs2
 .byte   W12
 .byte   Bn2
 .byte   W12
 .byte   N32 ,Ds3
 .byte   W12
@  #03 @008   ----------------------------------------
 .byte   W24
 .byte   N11 ,Cs2
 .byte   W12
 .byte   Fs2
 .byte   W12
 .byte   Bn2
 .byte   W12
 .byte   N32 ,Ds3
 .byte   W36
@  #03 @009   ----------------------------------------
 .byte   N11 ,Fs1
 .byte   W12
 .byte   Cs2
 .byte   W12
 .byte   Fs2
 .byte   W12
 .byte   N32 ,As2
 .byte   N32 ,Cs3
 .byte   W36
 .byte   N11 ,Bn1
 .byte   W12
 .byte   Ds2
 .byte   W12
@  #03 @010   ----------------------------------------
 .byte   An2
 .byte   W12
 .byte   N32 ,Cs3
 .byte   W36
 .byte   Fs2
 .byte   W02
 .byte   As2
 .byte   W02
 .byte   N30 ,Ds3
 .byte   W32
 .byte   N32 ,Fn2
 .byte   W02
 .byte   Gs2
 .byte   W02
 .byte   N30 ,Cn3
 .byte   W08
@  #03 @011   ----------------------------------------
 .byte   W24
 .byte   N11 ,As1
 .byte   W12
 .byte   Fn2
 .byte   W12
 .byte   Gs2
 .byte   W12
 .byte   Ds3
 .byte   W12
 .byte   Gs2
 .byte   W12
 .byte   Fn2
 .byte   W12
@  #03 @012   ----------------------------------------
Label_01160951:
 .byte   N32 ,Fn2 ,v064
 .byte   W02
 .byte   Cs3
 .byte   W44
 .byte   W02
 .byte   PEND 
Label_01160959:
 .byte   W24
 .byte   N11 ,Fs1 ,v080
 .byte   W12
 .byte   Cs2
 .byte   W12
@  #03 @013   ----------------------------------------
 .byte   Fn2
 .byte   W12
 .byte   N32 ,As2
 .byte   W36
 .byte   N11 ,Fn1
 .byte   W12
 .byte   Ds2
 .byte   W12
 .byte   Gs2
 .byte   W12
 .byte   N32 ,Cn3
 .byte   W12
@  #03 @014   ----------------------------------------
 .byte   W24
 .byte   N11 ,Ds2
 .byte   W12
 .byte   Gs2
 .byte   W12
 .byte   Cn3
 .byte   W12
 .byte   N32 ,Fn3
 .byte   W36
@  #03 @015   ----------------------------------------
 .byte   N11 ,Fn2
 .byte   W12
 .byte   Gs2
 .byte   W12
 .byte   Cn3
 .byte   W12
 .byte   N32 ,Fn3
 .byte   W36
 .byte   N11 ,Fs1
 .byte   W12
 .byte   Cs2
 .byte   W12
@  #03 @016   ----------------------------------------
 .byte   Fn2
 .byte   W12
 .byte   N32 ,As2
 .byte   W36
 .byte   N11 ,As1
 .byte   W12
 .byte   Fn2
 .byte   W12
 .byte   Gs2
 .byte   W12
 .byte   N32 ,Cn3
 .byte   W12
@  #03 @017   ----------------------------------------
 .byte   W24
 .byte   N11 ,Cn2
 .byte   W12
 .byte   Fs2
 .byte   W12
 .byte   As2
 .byte   W12
 .byte   N32 ,Ds3
 .byte   W36
@  #03 @018   ----------------------------------------
 .byte   Fn2
 .byte   N02 ,As2
 .byte   N04 ,Cs3
 .byte   W02
 .byte   N32 ,As2
 .byte   W02
 .byte   N30 ,Cs3
 .byte   W32
 .byte   N32 ,Cn3
 .byte   W36
 .byte   N11 ,Fs1 ,v096
 .byte   W12
 .byte   Cs2
 .byte   W12
@  #03 @019   ----------------------------------------
 .byte   Fs2
 .byte   W12
 .byte   N32 ,As2
 .byte   W36
 .byte   N11 ,Fn1
 .byte   W12
 .byte   Ds2
 .byte   W12
 .byte   Gs2
 .byte   W12
 .byte   N32 ,Cn3
 .byte   W12
@  #03 @020   ----------------------------------------
 .byte   W24
 .byte   N11 ,Ds2
 .byte   W12
 .byte   Gs2
 .byte   W12
 .byte   Cn3
 .byte   W12
 .byte   Gs1
 .byte   W12
 .byte   Fn2
 .byte   W12
 .byte   Gs2
 .byte   W12
@  #03 @021   ----------------------------------------
Label_011609D5:
 .byte   N11 ,Cs2 ,v096
 .byte   W12
 .byte   Fn2
 .byte   W12
 .byte   Gs2
 .byte   W12
 .byte   N32 ,Cn3
 .byte   W36
 .byte   PEND 
Label_011609E1:
 .byte   N11 ,Fs1 ,v096
 .byte   W12
 .byte   Cs2
 .byte   W12
@  #03 @022   ----------------------------------------
 .byte   Fn2
 .byte   W12
 .byte   N32 ,As2
 .byte   W72
 .byte   PEND 
Label_011609ED:
 .byte   N11 ,Fs1 ,v096
 .byte   W12
@  #03 @023   ----------------------------------------
 .byte   As1
 .byte   W12
 .byte   Cs2
 .byte   W12
 .byte   Gs2
 .byte   W12
 .byte   As2
 .byte   W12
 .byte   Cs3
 .byte   W12
 .byte   N32 ,Gs3
 .byte   W36
 .byte   PEND 
@  #03 @024   ----------------------------------------
 .byte   W72
Label_01160A00:
 .byte   N11 ,Cs3 ,v096
 .byte   W12
 .byte   Gs3
 .byte   W12
@  #03 @025   ----------------------------------------
 .byte   Cs3
 .byte   W12
 .byte   Gs2
 .byte   W12
 .byte   Cs3
 .byte   W12
 .byte   Gs3
 .byte   W12
 .byte   PEND 
Label_01160A0F:
 .byte   N11 ,Cn3 ,v096
 .byte   W12
 .byte   Gs2
 .byte   W12
 .byte   Cn3
 .byte   W12
 .byte   N23 ,Gs3
 .byte   W24
@  #03 @026   ----------------------------------------
 .byte   N11 ,Gs2
 .byte   W12
 .byte   PEND 
Label_01160A1E:
 .byte   W12
 .byte   N11 ,Gs2 ,v096
 .byte   W12
 .byte   Cn3
 .byte   W12
 .byte   Cs3
 .byte   W12
 .byte   Gs3
 .byte   W12
 .byte   Cs3
 .byte   W12
 .byte   PEND 
Label_01160A2C:
 .byte   N23 ,Gs2 ,v096
 .byte   W24
@  #03 @027   ----------------------------------------
 .byte   N11 ,Gs3
 .byte   W12
 .byte   Cn3
 .byte   W12
 .byte   Gs2
 .byte   W12
 .byte   Cn3
 .byte   W12
 .byte   PEND 
Label_01160A3A:
 .byte   N23 ,Fn3 ,v096
 .byte   W24
 .byte   N11 ,Fs2
 .byte   W12
 .byte   N23 ,Ds3
 .byte   W24
@  #03 @028   ----------------------------------------
 .byte   N11 ,Fs2
 .byte   W12
 .byte   PEND 
Label_01160A48:
 .byte   W12
 .byte   N11 ,Gs2 ,v096
 .byte   W12
 .byte   Cs3
 .byte   W12
 .byte   N23 ,Gs3
 .byte   W24
 .byte   N11 ,Gs2
 .byte   W12
 .byte   PEND 
@  #03 @029   ----------------------------------------
 .byte   PATT
  .word Label_01160A48
@  #03 @030   ----------------------------------------
Label_01160A5B:
 .byte   N23 ,Ds3 ,v096
 .byte   W24
 .byte   N11 ,Gs2
 .byte   W12
 .byte   N23 ,Cs3
 .byte   W24
 .byte   N11 ,Gs2
 .byte   W12
 .byte   PEND 
 .byte   W72
@  #03 @031   ----------------------------------------
 .byte   W72
 .byte   W72
@  #03 @032   ----------------------------------------
 .byte   W72
Label_01160A6D:
 .byte   N11 ,Fn1 ,v096
 .byte   W12
 .byte   Cs2
 .byte   W12
@  #03 @033   ----------------------------------------
 .byte   Fn2
 .byte   W12
 .byte   N32 ,Gs2
 .byte   W36
 .byte   PEND 
Label_01160A79:
 .byte   N11 ,Fs1 ,v096
 .byte   W12
 .byte   Cs2
 .byte   W12
 .byte   Fn2
 .byte   W12
 .byte   N32 ,As2
 .byte   W36
 .byte   PEND 
@  #03 @034   ----------------------------------------
Label_01160A85:
 .byte   N11 ,As1 ,v096
 .byte   W12
 .byte   Fn2
 .byte   W12
 .byte   Gs2
 .byte   W12
 .byte   N32 ,Cn3
 .byte   W36
 .byte   PEND 
Label_01160A91:
 .byte   N11 ,Cs2 ,v096
 .byte   W12
 .byte   Fs2
 .byte   W12
@  #03 @035   ----------------------------------------
 .byte   Gs2
 .byte   W12
 .byte   N32 ,Cs3
 .byte   W36
 .byte   PEND 
 .byte   W72
@  #03 @036   ----------------------------------------
 .byte   W72
 .byte   W72
@  #03 @037   ----------------------------------------
 .byte   W72
 .byte   W72
@  #03 @038   ----------------------------------------
 .byte   W72
 .byte   W72
@  #03 @039   ----------------------------------------
 .byte   W72
Label_01160AA5:
 .byte   N11 ,Cs3 ,v096
 .byte   W12
 .byte   Gs3
 .byte   W12
@  #03 @040   ----------------------------------------
 .byte   Cs3
 .byte   W12
 .byte   N23 ,Gs2
 .byte   W24
 .byte   N11 ,Gs3
 .byte   W12
 .byte   PEND 
@  #03 @041   ----------------------------------------
 .byte   PATT
  .word Label_01160A0F
@  #03 @042   ----------------------------------------
 .byte   PATT
  .word Label_01160A1E
@  #03 @043   ----------------------------------------
 .byte   PATT
  .word Label_01160A2C
@  #03 @044   ----------------------------------------
 .byte   PATT
  .word Label_01160A3A
@  #03 @045   ----------------------------------------
 .byte   PATT
  .word Label_01160A48
@  #03 @046   ----------------------------------------
 .byte   PATT
  .word Label_01160A48
@  #03 @047   ----------------------------------------
 .byte   PATT
  .word Label_01160A5B
@  #03 @048   ----------------------------------------
 .byte   PATT
  .word Label_01160A48
@  #03 @049   ----------------------------------------
 .byte   PATT
  .word Label_01160A5B
@  #03 @050   ----------------------------------------
 .byte   PATT
  .word Label_01160A48
@  #03 @051   ----------------------------------------
 .byte   PATT
  .word Label_01160A5B
@  #03 @052   ----------------------------------------
Label_01160AEB:
 .byte   W12
 .byte   N11 ,Gs2 ,v096
 .byte   W12
 .byte   Cs3
 .byte   W12
 .byte   N23 ,Ds3
 .byte   W24
 .byte   N11 ,Gs2
 .byte   W12
 .byte   PEND 
 .byte   N68 ,Gs3
 .byte   W72
@  #03 @053   ----------------------------------------
 .byte   N11 ,Cs2 ,v064
 .byte   W12
 .byte   Gs2
 .byte   W12
 .byte   Ds3
 .byte   W12
 .byte   N32 ,Gs2
 .byte   W36
 .byte   N11 ,Fs1
 .byte   W12
 .byte   Cs2
 .byte   W12
@  #03 @054   ----------------------------------------
 .byte   Fs2
 .byte   W12
 .byte   N32 ,As2
 .byte   W36
 .byte   N11 ,Fn1
 .byte   W12
 .byte   Cn2
 .byte   W12
 .byte   Gs2
 .byte   W12
 .byte   N32 ,Cn3
 .byte   W36
@  #03 @055   ----------------------------------------
 .byte   N11 ,As1
 .byte   W12
 .byte   Fn2
 .byte   W12
 .byte   Gs2
 .byte   W12
 .byte   N32 ,Cn3
 .byte   W36
 .byte   N11 ,Ds2
 .byte   W12
 .byte   Fs2
 .byte   W12
@  #03 @056   ----------------------------------------
 .byte   As2
 .byte   W12
 .byte   N32 ,Cs3
 .byte   W36
 .byte   N11 ,Fn1
 .byte   W12
 .byte   Fn2
 .byte   W12
 .byte   Gs2
 .byte   W12
 .byte   N32 ,Cn3
 .byte   W36
@  #03 @057   ----------------------------------------
 .byte   N11 ,Fs1
 .byte   W12
 .byte   Fs2
 .byte   W12
 .byte   As2
 .byte   W12
 .byte   N32 ,Cs3
 .byte   W36
 .byte   N32
 .byte   W36
@  #03 @058   ----------------------------------------
 .byte   Cn3
 .byte   W36
 .byte   Ds3
 .byte   W02
 .byte   Fs3
 .byte   W32
 .byte   W02
 .byte   N11 ,Fn1
 .byte   W12
 .byte   Ds2
 .byte   W12
@  #03 @059   ----------------------------------------
 .byte   Gs2
 .byte   W12
 .byte   Cn3
 .byte   W72
Label_01160B55:
 .byte   N11 ,Cs2 ,v064
 .byte   W12
@  #03 @060   ----------------------------------------
 .byte   Fs2
 .byte   W12
 .byte   Bn2
 .byte   W12
 .byte   N32 ,Ds3
 .byte   W36
 .byte   PEND 
@  #03 @061   ----------------------------------------
 .byte   PATT
  .word Label_01160B55
@  #03 @062   ----------------------------------------
 .byte   N11 ,Fs1 ,v064
 .byte   W12
 .byte   Cs2
 .byte   W12
 .byte   Fs2
 .byte   W12
 .byte   N32 ,As2
 .byte   N32 ,Cs3
 .byte   W36
 .byte   N11 ,Bn1
 .byte   W12
 .byte   Ds2
 .byte   W12
@  #03 @063   ----------------------------------------
 .byte   An2
 .byte   W12
 .byte   N32 ,Cs3
 .byte   W36
 .byte   Fs2
 .byte   W02
 .byte   As2
 .byte   W02
 .byte   N30 ,Ds3
 .byte   W32
 .byte   N32 ,Fn2
 .byte   W02
 .byte   Gs2
 .byte   W02
 .byte   N30 ,Cn3
 .byte   W32
@  #03 @064   ----------------------------------------
 .byte   N11 ,As1
 .byte   W12
 .byte   Fn2
 .byte   W12
 .byte   Gs2
 .byte   W12
 .byte   Ds3
 .byte   W12
 .byte   Gs2
 .byte   W12
 .byte   Fn2
 .byte   W12
@  #03 @065   ----------------------------------------
 .byte   PATT
  .word Label_01160951
@  #03 @066   ----------------------------------------
 .byte   GOTO
  .word Label_01160959
@  #03 @067   ----------------------------------------
 .byte   W24
Label_01160BA4:
 .byte   N11 ,Fs1 ,v080
 .byte   W12
 .byte   Cs2
 .byte   W12
 .byte   Fn2
 .byte   W12
 .byte   N32 ,As2
 .byte   W36
 .byte   PEND 
@  #03 @068   ----------------------------------------
 .byte   N11 ,Fn1
 .byte   W12
 .byte   Ds2
 .byte   W12
 .byte   Gs2
 .byte   W12
 .byte   N32 ,Cn3
 .byte   W36
 .byte   N11 ,Ds2
 .byte   W12
 .byte   Gs2
 .byte   W12
@  #03 @069   ----------------------------------------
 .byte   Cn3
 .byte   W12
 .byte   N32 ,Fn3
 .byte   W36
 .byte   N11 ,Fn2
 .byte   W12
 .byte   Gs2
 .byte   W12
 .byte   Cn3
 .byte   W12
 .byte   N32 ,Fn3
 .byte   W36
@  #03 @070   ----------------------------------------
 .byte   PATT
  .word Label_01160BA4
@  #03 @071   ----------------------------------------
 .byte   N11 ,As1 ,v080
 .byte   W12
 .byte   Fn2
 .byte   W12
 .byte   Gs2
 .byte   W12
 .byte   N32 ,Cn3
 .byte   W36
 .byte   N11 ,Cn2
 .byte   W12
 .byte   Fs2
 .byte   W12
@  #03 @072   ----------------------------------------
 .byte   As2
 .byte   W12
 .byte   N32 ,Ds3
 .byte   W36
 .byte   Fn2
 .byte   N02 ,As2
 .byte   N04 ,Cs3
 .byte   W02
 .byte   N32 ,As2
 .byte   W02
 .byte   N30 ,Cs3
 .byte   W32
 .byte   N32 ,Cn3
 .byte   W36
@  #03 @073   ----------------------------------------
 .byte   N11 ,Fs1 ,v096
 .byte   W12
 .byte   Cs2
 .byte   W12
 .byte   Fs2
 .byte   W12
 .byte   N32 ,As2
 .byte   W36
 .byte   N11 ,Fn1
 .byte   W12
 .byte   Ds2
 .byte   W12
@  #03 @074   ----------------------------------------
 .byte   Gs2
 .byte   W12
 .byte   N32 ,Cn3
 .byte   W36
 .byte   N11 ,Ds2
 .byte   W12
 .byte   Gs2
 .byte   W12
 .byte   Cn3
 .byte   W12
 .byte   Gs1
 .byte   W12
@  #03 @075   ----------------------------------------
 .byte   Fn2
 .byte   W12
 .byte   Gs2
 .byte   W12
@  #03 @076   ----------------------------------------
 .byte   PATT
  .word Label_011609D5
@  #03 @077   ----------------------------------------
 .byte   PATT
  .word Label_011609E1
@  #03 @078   ----------------------------------------
 .byte   PATT
  .word Label_011609ED
@  #03 @079   ----------------------------------------
 .byte   W72
@  #03 @080   ----------------------------------------
 .byte   PATT
  .word Label_01160A00
@  #03 @081   ----------------------------------------
 .byte   PATT
  .word Label_01160A0F
@  #03 @082   ----------------------------------------
 .byte   PATT
  .word Label_01160A1E
@  #03 @083   ----------------------------------------
 .byte   PATT
  .word Label_01160A2C
@  #03 @084   ----------------------------------------
 .byte   PATT
  .word Label_01160A3A
@  #03 @085   ----------------------------------------
 .byte   PATT
  .word Label_01160A48
@  #03 @086   ----------------------------------------
 .byte   PATT
  .word Label_01160A48
@  #03 @087   ----------------------------------------
 .byte   PATT
  .word Label_01160A5B
@  #03 @088   ----------------------------------------
 .byte   W72
 .byte   W72
@  #03 @089   ----------------------------------------
 .byte   W72
 .byte   W72
@  #03 @090   ----------------------------------------
 .byte   PATT
  .word Label_01160A6D
@  #03 @091   ----------------------------------------
 .byte   PATT
  .word Label_01160A79
@  #03 @092   ----------------------------------------
 .byte   PATT
  .word Label_01160A85
@  #03 @093   ----------------------------------------
 .byte   PATT
  .word Label_01160A91
@  #03 @094   ----------------------------------------
 .byte   W72
 .byte   W72
@  #03 @095   ----------------------------------------
 .byte   W72
 .byte   W72
@  #03 @096   ----------------------------------------
 .byte   W72
 .byte   W72
@  #03 @097   ----------------------------------------
 .byte   W72
 .byte   W72
@  #03 @098   ----------------------------------------
 .byte   PATT
  .word Label_01160AA5
@  #03 @099   ----------------------------------------
 .byte   PATT
  .word Label_01160A0F
@  #03 @100   ----------------------------------------
 .byte   PATT
  .word Label_01160A1E
@  #03 @101   ----------------------------------------
 .byte   PATT
  .word Label_01160A2C
@  #03 @102   ----------------------------------------
 .byte   PATT
  .word Label_01160A3A
@  #03 @103   ----------------------------------------
 .byte   PATT
  .word Label_01160A48
@  #03 @104   ----------------------------------------
 .byte   PATT
  .word Label_01160A48
@  #03 @105   ----------------------------------------
 .byte   PATT
  .word Label_01160A5B
@  #03 @106   ----------------------------------------
 .byte   PATT
  .word Label_01160A48
@  #03 @107   ----------------------------------------
 .byte   PATT
  .word Label_01160A5B
@  #03 @108   ----------------------------------------
 .byte   PATT
  .word Label_01160A48
@  #03 @109   ----------------------------------------
 .byte   PATT
  .word Label_01160A5B
@  #03 @110   ----------------------------------------
 .byte   PATT
  .word Label_01160AEB
@  #03 @111   ----------------------------------------
 .byte   N68 ,Gs3 ,v096
 .byte   W68
 .byte   W03
 .byte   FINE

@**************** Track 4 (Midi-Chn.3) ****************@

FireEmblemEngageEnjoytheEveningDivineOneSurfingKyogre1_004:
@  #04 @000   ----------------------------------------
 .byte   KEYSH , FireEmblemEngageEnjoytheEveningDivineOneSurfingKyogre1_key+0
 .byte   VOICE , 10
 .byte   VOL , 27*FireEmblemEngageEnjoytheEveningDivineOneSurfingKyogre1_mvl/mxv
 .byte   PAN , c_v+0
 .byte   VOL , 27*FireEmblemEngageEnjoytheEveningDivineOneSurfingKyogre1_mvl/mxv
 .byte   PAN , c_v+0
 .byte   W96
@  #04 @001   ----------------------------------------
 .byte   W96
@  #04 @002   ----------------------------------------
Label_011302C2:
 .byte   W24
 .byte   N11 ,Gs5 ,v052
 .byte   W72
 .byte   PEND 
@  #04 @003   ----------------------------------------
Label_011302C8:
 .byte   W72
 .byte   N11 ,Gs5 ,v052
 .byte   W24
 .byte   PEND 
@  #04 @004   ----------------------------------------
 .byte   W96
@  #04 @005   ----------------------------------------
 .byte   W24
 .byte   N11
 .byte   W36
 .byte   Ds5
 .byte   W36
@  #04 @006   ----------------------------------------
 .byte   PATT
  .word Label_011302C8
@  #04 @007   ----------------------------------------
 .byte   W96
@  #04 @008   ----------------------------------------
 .byte   PATT
  .word Label_011302C2
@  #04 @009   ----------------------------------------
 .byte   PATT
  .word Label_011302C8
@  #04 @010   ----------------------------------------
 .byte   W96
@  #04 @011   ----------------------------------------
 .byte   W96
@  #04 @012   ----------------------------------------
Label_011302E6:
 .byte   N11 ,Gs5 ,v052
 .byte   W36
 .byte   Cs5
 .byte   W12
 .byte   PEND 
Label_011302ED:
 .byte   W24
 .byte   N11 ,Ds5 ,v052
 .byte   W24
@  #04 @013   ----------------------------------------
 .byte   W96
@  #04 @014   ----------------------------------------
 .byte   W96
@  #04 @015   ----------------------------------------
 .byte   PATT
  .word Label_011302C8
@  #04 @016   ----------------------------------------
 .byte   W96
@  #04 @017   ----------------------------------------
 .byte   W96
@  #04 @018   ----------------------------------------
 .byte   W96
@  #04 @019   ----------------------------------------
 .byte   W96
@  #04 @020   ----------------------------------------
 .byte   W96
@  #04 @021   ----------------------------------------
 .byte   W72
 .byte   W96
@  #04 @022   ----------------------------------------
 .byte   W12
 .byte   W96
@  #04 @023   ----------------------------------------
 .byte   W12
Label_01130303:
 .byte   N11 ,Fn4 ,v052
 .byte   W36
 .byte   Gs4
 .byte   W36
 .byte   PEND 
Label_0113030A:
 .byte   N11 ,Cs5 ,v052
 .byte   W72
 .byte   PEND 
@  #04 @024   ----------------------------------------
 .byte   W72
 .byte   W72
@  #04 @025   ----------------------------------------
 .byte   W72
 .byte   W72
@  #04 @026   ----------------------------------------
 .byte   W72
 .byte   W72
@  #04 @027   ----------------------------------------
 .byte   W72
 .byte   W72
@  #04 @028   ----------------------------------------
Label_01130317:
 .byte   W36
 .byte   N11 ,Gs4 ,v052
 .byte   W36
 .byte   PEND 
Label_0113031D:
 .byte   N11 ,Gs5 ,v052
 .byte   W72
 .byte   PEND 
@  #04 @029   ----------------------------------------
 .byte   W72
 .byte   W72
@  #04 @030   ----------------------------------------
 .byte   PATT
  .word Label_01130317
@  #04 @031   ----------------------------------------
 .byte   PATT
  .word Label_0113031D
@  #04 @032   ----------------------------------------
 .byte   W72
 .byte   W72
@  #04 @033   ----------------------------------------
 .byte   W72
 .byte   W72
@  #04 @034   ----------------------------------------
 .byte   W72
 .byte   W72
@  #04 @035   ----------------------------------------
 .byte   W72
Label_01130335:
 .byte   N11 ,Ds5 ,v052
 .byte   W72
 .byte   PEND 
@  #04 @036   ----------------------------------------
Label_0113033A:
 .byte   W36
 .byte   N11 ,Gs5 ,v052
 .byte   W36
 .byte   PEND 
 .byte   W72
@  #04 @037   ----------------------------------------
 .byte   PATT
  .word Label_01130317
@  #04 @038   ----------------------------------------
 .byte   PATT
  .word Label_0113031D
@  #04 @039   ----------------------------------------
 .byte   W72
@  #04 @040   ----------------------------------------
 .byte   PATT
  .word Label_01130317
@  #04 @041   ----------------------------------------
 .byte   PATT
  .word Label_0113031D
@  #04 @042   ----------------------------------------
Label_01130356:
 .byte   N11 ,Fn5 ,v052
 .byte   W72
 .byte   PEND 
@  #04 @043   ----------------------------------------
 .byte   PATT
  .word Label_01130317
@  #04 @044   ----------------------------------------
 .byte   PATT
  .word Label_0113031D
@  #04 @045   ----------------------------------------
 .byte   W72
 .byte   W72
@  #04 @046   ----------------------------------------
 .byte   W72
@  #04 @047   ----------------------------------------
 .byte   PATT
  .word Label_01130317
@  #04 @048   ----------------------------------------
 .byte   PATT
  .word Label_0113031D
@  #04 @049   ----------------------------------------
 .byte   W72
 .byte   W72
@  #04 @050   ----------------------------------------
 .byte   W72
@  #04 @051   ----------------------------------------
 .byte   PATT
  .word Label_0113031D
@  #04 @052   ----------------------------------------
 .byte   W72
@  #04 @053   ----------------------------------------
 .byte   PATT
  .word Label_0113031D
@  #04 @054   ----------------------------------------
 .byte   W72
 .byte   N11 ,Gs5 ,v052
 .byte   W36
@  #04 @055   ----------------------------------------
 .byte   Ds5
 .byte   W36
 .byte   W72
@  #04 @056   ----------------------------------------
 .byte   PATT
  .word Label_0113031D
@  #04 @057   ----------------------------------------
 .byte   W72
@  #04 @058   ----------------------------------------
 .byte   PATT
  .word Label_0113031D
@  #04 @059   ----------------------------------------
 .byte   W72
@  #04 @060   ----------------------------------------
 .byte   PATT
  .word Label_0113031D
@  #04 @061   ----------------------------------------
 .byte   W72
 .byte   W72
@  #04 @062   ----------------------------------------
 .byte   PATT
  .word Label_011302E6
@  #04 @063   ----------------------------------------
 .byte   GOTO
  .word Label_011302ED
@  #04 @064   ----------------------------------------
 .byte   W24
@  #04 @065   ----------------------------------------
 .byte   PATT
  .word Label_01130335
@  #04 @066   ----------------------------------------
 .byte   W72
 .byte   W72
@  #04 @067   ----------------------------------------
 .byte   W72
@  #04 @068   ----------------------------------------
 .byte   PATT
  .word Label_0113031D
@  #04 @069   ----------------------------------------
 .byte   W72
 .byte   W72
@  #04 @070   ----------------------------------------
 .byte   W72
 .byte   W72
@  #04 @071   ----------------------------------------
 .byte   W72
 .byte   W72
@  #04 @072   ----------------------------------------
 .byte   W72
 .byte   W96
@  #04 @073   ----------------------------------------
 .byte   W12
 .byte   W96
@  #04 @074   ----------------------------------------
 .byte   W12
@  #04 @075   ----------------------------------------
 .byte   PATT
  .word Label_01130303
@  #04 @076   ----------------------------------------
 .byte   PATT
  .word Label_0113030A
@  #04 @077   ----------------------------------------
 .byte   W72
 .byte   W72
@  #04 @078   ----------------------------------------
 .byte   W72
 .byte   W72
@  #04 @079   ----------------------------------------
 .byte   W72
 .byte   W72
@  #04 @080   ----------------------------------------
 .byte   W72
 .byte   W72
@  #04 @081   ----------------------------------------
 .byte   PATT
  .word Label_01130317
@  #04 @082   ----------------------------------------
 .byte   PATT
  .word Label_0113031D
@  #04 @083   ----------------------------------------
 .byte   W72
 .byte   W72
@  #04 @084   ----------------------------------------
 .byte   PATT
  .word Label_01130317
@  #04 @085   ----------------------------------------
 .byte   PATT
  .word Label_0113031D
@  #04 @086   ----------------------------------------
 .byte   W72
 .byte   W72
@  #04 @087   ----------------------------------------
 .byte   W72
 .byte   W72
@  #04 @088   ----------------------------------------
 .byte   W72
 .byte   W72
@  #04 @089   ----------------------------------------
 .byte   W72
@  #04 @090   ----------------------------------------
 .byte   PATT
  .word Label_01130335
@  #04 @091   ----------------------------------------
 .byte   PATT
  .word Label_0113033A
@  #04 @092   ----------------------------------------
 .byte   W72
@  #04 @093   ----------------------------------------
 .byte   PATT
  .word Label_01130317
@  #04 @094   ----------------------------------------
 .byte   PATT
  .word Label_0113031D
@  #04 @095   ----------------------------------------
 .byte   W72
@  #04 @096   ----------------------------------------
 .byte   PATT
  .word Label_01130317
@  #04 @097   ----------------------------------------
 .byte   PATT
  .word Label_0113031D
@  #04 @098   ----------------------------------------
 .byte   PATT
  .word Label_01130356
@  #04 @099   ----------------------------------------
 .byte   PATT
  .word Label_01130317
@  #04 @100   ----------------------------------------
 .byte   PATT
  .word Label_0113031D
@  #04 @101   ----------------------------------------
 .byte   W72
 .byte   W72
@  #04 @102   ----------------------------------------
 .byte   W72
@  #04 @103   ----------------------------------------
 .byte   PATT
  .word Label_01130317
@  #04 @104   ----------------------------------------
 .byte   N11 ,Gs5 ,v052
 .byte   W68
 .byte   W03
 .byte   FINE

@**************** Track 5 (Midi-Chn.4) ****************@

FireEmblemEngageEnjoytheEveningDivineOneSurfingKyogre1_005:
@  #05 @000   ----------------------------------------
 .byte   KEYSH , FireEmblemEngageEnjoytheEveningDivineOneSurfingKyogre1_key+0
 .byte   VOICE , 40
 .byte   PAN , c_v+3
 .byte   VOL , 42*FireEmblemEngageEnjoytheEveningDivineOneSurfingKyogre1_mvl/mxv
 .byte   VOL , 42*FireEmblemEngageEnjoytheEveningDivineOneSurfingKyogre1_mvl/mxv
 .byte   W96
@  #05 @001   ----------------------------------------
 .byte   W96
@  #05 @002   ----------------------------------------
 .byte   W96
@  #05 @003   ----------------------------------------
 .byte   W96
@  #05 @004   ----------------------------------------
 .byte   W96
@  #05 @005   ----------------------------------------
 .byte   W96
@  #05 @006   ----------------------------------------
 .byte   W96
@  #05 @007   ----------------------------------------
 .byte   W96
@  #05 @008   ----------------------------------------
 .byte   W96
@  #05 @009   ----------------------------------------
 .byte   W96
@  #05 @010   ----------------------------------------
 .byte   W96
@  #05 @011   ----------------------------------------
 .byte   W96
@  #05 @012   ----------------------------------------
 .byte   W48
Label_0112B5BF:
 .byte   W24
 .byte   N17 ,As2 ,v080
 .byte   W18
 .byte   N05 ,Cn3
 .byte   W06
@  #05 @013   ----------------------------------------
 .byte   N11 ,Cs3
 .byte   W12
 .byte   N17 ,Ds3
 .byte   W18
 .byte   N05 ,Cs3
 .byte   W06
 .byte   N11 ,Ds3
 .byte   W12
 .byte   N32 ,Gs2
 .byte   W36
 .byte   Cn3
 .byte   W12
@  #05 @014   ----------------------------------------
 .byte   W24
 .byte   Cs3
 .byte   W36
 .byte   N17 ,Fn3
 .byte   W18
 .byte   N05 ,Ds3
 .byte   W06
 .byte   N11 ,Cs3
 .byte   W12
@  #05 @015   ----------------------------------------
 .byte   N56 ,Fn3
 .byte   W36
 .byte   W36
 .byte   N17
 .byte   W18
 .byte   N05 ,Fs3
 .byte   W06
@  #05 @016   ----------------------------------------
 .byte   N11 ,Gs3
 .byte   W12
 .byte   N52 ,Fn3
 .byte   W36
 .byte   W18
 .byte   N05 ,Fs3
 .byte   W06
 .byte   N11 ,Gs3
 .byte   W12
 .byte   N17 ,Fn3
 .byte   W12
@  #05 @017   ----------------------------------------
 .byte   W06
 .byte   N05 ,Ds3
 .byte   W06
 .byte   N11 ,Cs3
 .byte   W12
 .byte   N44 ,Ds3
 .byte   W36
 .byte   W12
 .byte   N11 ,As2
 .byte   W12
 .byte   Ds3
 .byte   W12
@  #05 @018   ----------------------------------------
 .byte   N56 ,Fn3
 .byte   W36
 .byte   W60
@  #05 @019   ----------------------------------------
 .byte   W96
@  #05 @020   ----------------------------------------
 .byte   W96
@  #05 @021   ----------------------------------------
 .byte   W72
 .byte   W96
@  #05 @022   ----------------------------------------
 .byte   W12
 .byte   W96
@  #05 @023   ----------------------------------------
 .byte   W12
Label_0112B618:
 .byte   N32 ,Fn3 ,v080
 .byte   W36
 .byte   Gs3
 .byte   W36
 .byte   PEND 
Label_0112B61F:
 .byte   N68 ,Cs4 ,v080
 .byte   W72
 .byte   PEND 
@  #05 @024   ----------------------------------------
Label_0112B624:
 .byte   N32 ,Cn4 ,v080
 .byte   W36
 .byte   Ds3
 .byte   W36
 .byte   PEND 
Label_0112B62B:
 .byte   N32 ,Gs3 ,v080
 .byte   W36
@  #05 @025   ----------------------------------------
 .byte   Ds3
 .byte   W36
 .byte   PEND 
Label_0112B632:
 .byte   N32 ,Fn3 ,v080
 .byte   W36
 .byte   Cn3
 .byte   W36
 .byte   PEND 
@  #05 @026   ----------------------------------------
Label_0112B639:
 .byte   TIE ,As2 ,v080
 .byte   W72
 .byte   PEND 
Label_0112B63E:
 .byte   W32
@  #05 @027   ----------------------------------------
 .byte   W03
 .byte   PEND 
 .byte   EOT
 .byte   As2
 .byte   W01
 .byte   N32 ,Fn3 ,v080
 .byte   W36
Label_0112B648:
 .byte   N32 ,Ds3 ,v080
 .byte   W36
 .byte   Gs2
 .byte   W36
 .byte   PEND 
@  #05 @028   ----------------------------------------
Label_0112B64F:
 .byte   N32 ,Gs2 ,v080
 .byte   W72
 .byte   PEND 
 .byte   W72
@  #05 @029   ----------------------------------------
 .byte   W72
 .byte   W72
@  #05 @030   ----------------------------------------
 .byte   W72
Label_0112B658:
 .byte   N68 ,Gs2 ,v064
 .byte   W72
 .byte   PEND 
@  #05 @031   ----------------------------------------
Label_0112B65D:
 .byte   N68 ,As2 ,v064
 .byte   W72
 .byte   PEND 
Label_0112B662:
 .byte   N68 ,Cn3 ,v064
 .byte   W72
 .byte   PEND 
@  #05 @032   ----------------------------------------
Label_0112B667:
 .byte   N32 ,Cs3 ,v064
 .byte   W36
 .byte   Cs4
 .byte   W36
 .byte   PEND 
Label_0112B66E:
 .byte   N56 ,Fs3 ,v080
 .byte   W36
@  #05 @033   ----------------------------------------
 .byte   W24
 .byte   N11 ,En3
 .byte   W12
 .byte   PEND 
Label_0112B677:
 .byte   N23 ,Fs3 ,v080
 .byte   W24
 .byte   N11 ,Gs3
 .byte   W24
 .byte   Bn2
 .byte   W12
@  #05 @034   ----------------------------------------
 .byte   Bn3
 .byte   W12
 .byte   PEND 
@  #05 @035   ----------------------------------------
 .byte   PATT
  .word Label_0112B66E
@  #05 @036   ----------------------------------------
Label_0112B688:
 .byte   N23 ,Fs3 ,v080
 .byte   W24
 .byte   Gn3
 .byte   W12
 .byte   W12
 .byte   An3
 .byte   W24
 .byte   PEND 
Label_0112B692:
 .byte   TIE ,Bn3 ,v080
 .byte   W04
 .byte   W05
 .byte   W04
 .byte   W05
 .byte   W05
 .byte   W04
@  #05 @037   ----------------------------------------
 .byte   W05
 .byte   W05
 .byte   W04
 .byte   W05
 .byte   W05
 .byte   W04
 .byte   W05
 .byte   W05
 .byte   W04
 .byte   W03
 .byte   PEND 
Label_0112B6A6:
 .byte   W02
 .byte   W05
 .byte   W04
 .byte   W05
 .byte   W04
 .byte   W05
 .byte   W05
 .byte   W04
 .byte   W05
 .byte   W05
 .byte   W04
 .byte   W05
@  #05 @038   ----------------------------------------
 .byte   W05
 .byte   W04
 .byte   W05
 .byte   W04
 .byte   PEND 
 .byte   EOT
 .byte   Bn3
 .byte   W01
Label_0112B6BA:
 .byte   TIE ,Bn3 ,v052
 .byte   W72
 .byte   PEND 
Label_0112B6BF:
 .byte   W32
@  #05 @039   ----------------------------------------
 .byte   W03
 .byte   PEND 
 .byte   EOT
 .byte   Bn3
 .byte   W19
 .byte   N05 ,Cs4 ,v052
 .byte   W06
 .byte   N11 ,Bn3
 .byte   W12
Label_0112B6CC:
 .byte   N32 ,Cs4 ,v052
 .byte   W36
 .byte   Ds4
 .byte   W36
 .byte   PEND 
@  #05 @040   ----------------------------------------
Label_0112B6D3:
 .byte   N68 ,Gs3 ,v052
 .byte   W72
 .byte   PEND 
Label_0112B6D8:
 .byte   W36
@  #05 @041   ----------------------------------------
 .byte   N32 ,Fs3 ,v052
 .byte   W36
 .byte   PEND 
Label_0112B6DE:
 .byte   N32 ,Gs3 ,v052
 .byte   W36
 .byte   Cn4
 .byte   W36
 .byte   PEND 
@  #05 @042   ----------------------------------------
Label_0112B6E5:
 .byte   N92 ,As3 ,v052
 .byte   W72
 .byte   PEND 
Label_0112B6EA:
 .byte   W36
@  #05 @043   ----------------------------------------
 .byte   N32 ,Ds3 ,v052
 .byte   W36
 .byte   PEND 
Label_0112B6F0:
 .byte   TIE ,Fn3 ,v052
 .byte   W72
 .byte   PEND 
@  #05 @044   ----------------------------------------
Label_0112B6F5:
 .byte   W68
 .byte   W03
 .byte   PEND 
 .byte   EOT
 .byte   Fn3
 .byte   W01
Label_0112B6FB:
 .byte   TIE ,Cs3 ,v052
 .byte   W72
 .byte   PEND 
@  #05 @045   ----------------------------------------
 .byte   PATT
  .word Label_0112B6F5
@  #05 @046   ----------------------------------------
 .byte   EOT
 .byte   Cs3
 .byte   W01
Label_0112B708:
 .byte   N68 ,Gs2 ,v052
 .byte   W72
 .byte   PEND 
Label_0112B70D:
 .byte   N32 ,Cs3 ,v052
 .byte   W36
@  #05 @047   ----------------------------------------
 .byte   Fn3
 .byte   W36
 .byte   PEND 
Label_0112B714:
 .byte   N68 ,Fn3 ,v052
 .byte   W72
 .byte   PEND 
@  #05 @048   ----------------------------------------
 .byte   W72
 .byte   W72
@  #05 @049   ----------------------------------------
 .byte   W72
 .byte   W72
@  #05 @050   ----------------------------------------
 .byte   W72
 .byte   W72
@  #05 @051   ----------------------------------------
 .byte   W72
 .byte   W72
@  #05 @052   ----------------------------------------
 .byte   W72
 .byte   W72
@  #05 @053   ----------------------------------------
 .byte   W72
 .byte   W72
@  #05 @054   ----------------------------------------
 .byte   W72
 .byte   W72
@  #05 @055   ----------------------------------------
 .byte   W72
 .byte   W72
@  #05 @056   ----------------------------------------
 .byte   W72
 .byte   W48
@  #05 @057   ----------------------------------------
 .byte   GOTO
  .word Label_0112B5BF
@  #05 @058   ----------------------------------------
 .byte   W24
 .byte   N17 ,As2 ,v080
 .byte   W18
 .byte   N05 ,Cn3
 .byte   W06
 .byte   N11 ,Cs3
 .byte   W12
 .byte   N17 ,Ds3
 .byte   W18
 .byte   N05 ,Cs3
 .byte   W06
 .byte   N11 ,Ds3
 .byte   W12
@  #05 @059   ----------------------------------------
 .byte   N32 ,Gs2
 .byte   W36
 .byte   Cn3
 .byte   W36
 .byte   Cs3
 .byte   W36
@  #05 @060   ----------------------------------------
 .byte   N17 ,Fn3
 .byte   W18
 .byte   N05 ,Ds3
 .byte   W06
 .byte   N11 ,Cs3
 .byte   W12
Label_0112B754:
 .byte   N56 ,Fn3 ,v080
 .byte   W36
 .byte   W36
 .byte   PEND 
@  #05 @061   ----------------------------------------
 .byte   N17
 .byte   W18
 .byte   N05 ,Fs3
 .byte   W06
 .byte   N11 ,Gs3
 .byte   W12
 .byte   N52 ,Fn3
 .byte   W36
 .byte   W18
 .byte   N05 ,Fs3
 .byte   W06
@  #05 @062   ----------------------------------------
 .byte   N11 ,Gs3
 .byte   W12
 .byte   N17 ,Fn3
 .byte   W18
 .byte   N05 ,Ds3
 .byte   W06
 .byte   N11 ,Cs3
 .byte   W12
 .byte   N44 ,Ds3
 .byte   W36
 .byte   W12
@  #05 @063   ----------------------------------------
 .byte   N11 ,As2
 .byte   W12
 .byte   Ds3
 .byte   W12
@  #05 @064   ----------------------------------------
 .byte   PATT
  .word Label_0112B754
@  #05 @065   ----------------------------------------
 .byte   W72
 .byte   W72
@  #05 @066   ----------------------------------------
 .byte   W72
 .byte   W72
@  #05 @067   ----------------------------------------
 .byte   W96
@  #05 @068   ----------------------------------------
 .byte   W12
 .byte   W96
@  #05 @069   ----------------------------------------
 .byte   W12
@  #05 @070   ----------------------------------------
 .byte   PATT
  .word Label_0112B618
@  #05 @071   ----------------------------------------
 .byte   PATT
  .word Label_0112B61F
@  #05 @072   ----------------------------------------
 .byte   PATT
  .word Label_0112B624
@  #05 @073   ----------------------------------------
 .byte   PATT
  .word Label_0112B62B
@  #05 @074   ----------------------------------------
 .byte   PATT
  .word Label_0112B632
@  #05 @075   ----------------------------------------
 .byte   PATT
  .word Label_0112B639
@  #05 @076   ----------------------------------------
 .byte   PATT
  .word Label_0112B63E
@  #05 @077   ----------------------------------------
 .byte   EOT
 .byte   As2
 .byte   W01
 .byte   N32 ,Fn3 ,v080
 .byte   W36
@  #05 @078   ----------------------------------------
 .byte   PATT
  .word Label_0112B648
@  #05 @079   ----------------------------------------
 .byte   PATT
  .word Label_0112B64F
@  #05 @080   ----------------------------------------
 .byte   W72
 .byte   W72
@  #05 @081   ----------------------------------------
 .byte   W72
 .byte   W72
@  #05 @082   ----------------------------------------
 .byte   PATT
  .word Label_0112B658
@  #05 @083   ----------------------------------------
 .byte   PATT
  .word Label_0112B65D
@  #05 @084   ----------------------------------------
 .byte   PATT
  .word Label_0112B662
@  #05 @085   ----------------------------------------
 .byte   PATT
  .word Label_0112B667
@  #05 @086   ----------------------------------------
 .byte   PATT
  .word Label_0112B66E
@  #05 @087   ----------------------------------------
 .byte   PATT
  .word Label_0112B677
@  #05 @088   ----------------------------------------
 .byte   PATT
  .word Label_0112B66E
@  #05 @089   ----------------------------------------
 .byte   PATT
  .word Label_0112B688
@  #05 @090   ----------------------------------------
 .byte   PATT
  .word Label_0112B692
@  #05 @091   ----------------------------------------
 .byte   PATT
  .word Label_0112B6A6
@  #05 @092   ----------------------------------------
 .byte   EOT
 .byte   Bn3
 .byte   W01
@  #05 @093   ----------------------------------------
 .byte   PATT
  .word Label_0112B6BA
@  #05 @094   ----------------------------------------
 .byte   PATT
  .word Label_0112B6BF
@  #05 @095   ----------------------------------------
 .byte   EOT
 .byte   Bn3
 .byte   W19
 .byte   N05 ,Cs4 ,v052
 .byte   W06
 .byte   N11 ,Bn3
 .byte   W12
@  #05 @096   ----------------------------------------
 .byte   PATT
  .word Label_0112B6CC
@  #05 @097   ----------------------------------------
 .byte   PATT
  .word Label_0112B6D3
@  #05 @098   ----------------------------------------
 .byte   PATT
  .word Label_0112B6D8
@  #05 @099   ----------------------------------------
 .byte   PATT
  .word Label_0112B6DE
@  #05 @100   ----------------------------------------
 .byte   PATT
  .word Label_0112B6E5
@  #05 @101   ----------------------------------------
 .byte   PATT
  .word Label_0112B6EA
@  #05 @102   ----------------------------------------
 .byte   PATT
  .word Label_0112B6F0
@  #05 @103   ----------------------------------------
 .byte   PATT
  .word Label_0112B6F5
@  #05 @104   ----------------------------------------
 .byte   EOT
 .byte   Fn3
 .byte   W01
@  #05 @105   ----------------------------------------
 .byte   PATT
  .word Label_0112B6FB
@  #05 @106   ----------------------------------------
 .byte   PATT
  .word Label_0112B6F5
@  #05 @107   ----------------------------------------
 .byte   EOT
 .byte   Cs3
 .byte   W01
@  #05 @108   ----------------------------------------
 .byte   PATT
  .word Label_0112B708
@  #05 @109   ----------------------------------------
 .byte   PATT
  .word Label_0112B70D
@  #05 @110   ----------------------------------------
 .byte   PATT
  .word Label_0112B714
@  #05 @111   ----------------------------------------
 .byte   W68
 .byte   W03
 .byte   FINE

@**************** Track 6 (Midi-Chn.5) ****************@

FireEmblemEngageEnjoytheEveningDivineOneSurfingKyogre1_006:
@  #06 @000   ----------------------------------------
 .byte   KEYSH , FireEmblemEngageEnjoytheEveningDivineOneSurfingKyogre1_key+0
 .byte   VOICE , 79
 .byte   VOL , 42*FireEmblemEngageEnjoytheEveningDivineOneSurfingKyogre1_mvl/mxv
 .byte   PAN , c_v+0
 .byte   W96
@  #06 @001   ----------------------------------------
 .byte   W96
@  #06 @002   ----------------------------------------
 .byte   W96
@  #06 @003   ----------------------------------------
 .byte   W96
@  #06 @004   ----------------------------------------
 .byte   W96
@  #06 @005   ----------------------------------------
 .byte   W96
@  #06 @006   ----------------------------------------
 .byte   W96
@  #06 @007   ----------------------------------------
 .byte   W12
 .byte   N32 ,Cs5 ,v052
 .byte   W36
 .byte   TIE ,Ds5
 .byte   W48
@  #06 @008   ----------------------------------------
 .byte   W24
 .byte   W32
 .byte   W03
 .byte   EOT
 .byte   W01
 .byte   N32 ,Fn5
 .byte   W36
@  #06 @009   ----------------------------------------
 .byte   N68 ,As4
 .byte   W72
 .byte   Cs5
 .byte   W24
@  #06 @010   ----------------------------------------
 .byte   W48
 .byte   N32 ,Ds5
 .byte   W36
 .byte   Gs4
 .byte   W12
@  #06 @011   ----------------------------------------
 .byte   W24
 .byte   TIE ,As4
 .byte   W72
@  #06 @012   ----------------------------------------
Label_01131436:
 .byte   W32
 .byte   W03
 .byte   PEND 
 .byte   EOT
 .byte   As4
 .byte   W13
Label_0113143C:
 .byte   W48
@  #06 @013   ----------------------------------------
 .byte   W96
@  #06 @014   ----------------------------------------
 .byte   W96
@  #06 @015   ----------------------------------------
 .byte   W96
@  #06 @016   ----------------------------------------
 .byte   W96
@  #06 @017   ----------------------------------------
 .byte   W96
@  #06 @018   ----------------------------------------
 .byte   W96
@  #06 @019   ----------------------------------------
 .byte   W96
@  #06 @020   ----------------------------------------
 .byte   W96
@  #06 @021   ----------------------------------------
 .byte   W72
 .byte   W96
@  #06 @022   ----------------------------------------
 .byte   W12
 .byte   W96
@  #06 @023   ----------------------------------------
 .byte   W12
Label_0113144A:
 .byte   N32 ,Fn4 ,v064
 .byte   W36
 .byte   Gs4
 .byte   W36
 .byte   PEND 
Label_01131451:
 .byte   N68 ,Cs5 ,v064
 .byte   W72
 .byte   PEND 
@  #06 @024   ----------------------------------------
Label_01131456:
 .byte   N32 ,Cn5 ,v064
 .byte   W36
 .byte   Ds4
 .byte   W36
 .byte   PEND 
Label_0113145D:
 .byte   N32 ,Gs4 ,v064
 .byte   W36
@  #06 @025   ----------------------------------------
 .byte   Ds4
 .byte   W36
 .byte   PEND 
Label_01131464:
 .byte   N32 ,Fn4 ,v064
 .byte   W36
 .byte   Cn4
 .byte   W36
 .byte   PEND 
@  #06 @026   ----------------------------------------
Label_0113146B:
 .byte   TIE ,As3 ,v064
 .byte   W72
 .byte   PEND 
Label_01131470:
 .byte   W32
@  #06 @027   ----------------------------------------
 .byte   W03
 .byte   PEND 
 .byte   EOT
 .byte   As3
 .byte   W01
 .byte   N32 ,Fn4 ,v064
 .byte   W36
Label_0113147A:
 .byte   N32 ,Ds4 ,v064
 .byte   W36
 .byte   Gs3
 .byte   W36
 .byte   PEND 
@  #06 @028   ----------------------------------------
Label_01131481:
 .byte   N32 ,Gs3 ,v064
 .byte   W72
 .byte   PEND 
 .byte   W72
@  #06 @029   ----------------------------------------
 .byte   W72
 .byte   W72
@  #06 @030   ----------------------------------------
 .byte   W72
 .byte   W72
@  #06 @031   ----------------------------------------
 .byte   W72
 .byte   W72
@  #06 @032   ----------------------------------------
 .byte   W72
 .byte   W72
@  #06 @033   ----------------------------------------
 .byte   W72
Label_01131490:
 .byte   W36
@  #06 @034   ----------------------------------------
 .byte   N17 ,Bn4 ,v080
 .byte   W18
 .byte   N05 ,Cn5
 .byte   W06
 .byte   N11 ,Dn5
 .byte   W12
 .byte   PEND 
Label_0113149C:
 .byte   N32 ,Bn4 ,v080
 .byte   W36
 .byte   En5
 .byte   W36
 .byte   PEND 
@  #06 @035   ----------------------------------------
Label_011314A3:
 .byte   TIE ,Ds5 ,v080
 .byte   W04
 .byte   W05
 .byte   W04
 .byte   W05
 .byte   W05
 .byte   W04
 .byte   W05
 .byte   W04
 .byte   W05
 .byte   W05
 .byte   W04
 .byte   W05
 .byte   W04
 .byte   W05
 .byte   W04
 .byte   W04
 .byte   PEND 
Label_011314B7:
 .byte   W01
 .byte   W05
 .byte   W04
 .byte   W05
 .byte   W04
 .byte   W05
@  #06 @036   ----------------------------------------
 .byte   W05
 .byte   W04
 .byte   W05
 .byte   W04
 .byte   W05
 .byte   W05
 .byte   W04
 .byte   W05
 .byte   W04
 .byte   W05
 .byte   W02
 .byte   PEND 
Label_011314C9:
 .byte   W03
 .byte   W04
 .byte   W05
 .byte   W04
 .byte   W05
 .byte   W05
 .byte   W04
 .byte   W05
 .byte   W04
 .byte   W05
 .byte   W05
@  #06 @037   ----------------------------------------
 .byte   W04
 .byte   W05
 .byte   W04
 .byte   W05
 .byte   W05
 .byte   PEND 
Label_011314DA:
 .byte   W32
 .byte   W03
 .byte   PEND 
 .byte   EOT
 .byte   Ds5
 .byte   W19
 .byte   N05 ,Cs5 ,v052
 .byte   W06
 .byte   N11 ,Bn4
 .byte   W12
Label_011314E7:
 .byte   N32 ,Cs5 ,v052
 .byte   W36
@  #06 @038   ----------------------------------------
 .byte   Ds5
 .byte   W36
 .byte   PEND 
Label_011314EE:
 .byte   N68 ,Gs4 ,v052
 .byte   W72
 .byte   PEND 
@  #06 @039   ----------------------------------------
Label_011314F3:
 .byte   W36
 .byte   N32 ,Fs4 ,v052
 .byte   W36
 .byte   PEND 
Label_011314F9:
 .byte   N32 ,Gs4 ,v052
 .byte   W36
@  #06 @040   ----------------------------------------
 .byte   Cn5
 .byte   W36
 .byte   PEND 
Label_01131500:
 .byte   N92 ,As4 ,v052
 .byte   W72
 .byte   PEND 
@  #06 @041   ----------------------------------------
Label_01131505:
 .byte   W36
 .byte   N32 ,Ds4 ,v052
 .byte   W36
 .byte   PEND 
Label_0113150B:
 .byte   TIE ,Fn4 ,v052
 .byte   W72
 .byte   PEND 
@  #06 @042   ----------------------------------------
Label_01131510:
 .byte   W68
 .byte   W03
 .byte   PEND 
 .byte   EOT
 .byte   Fn4
 .byte   W01
 .byte   W72
@  #06 @043   ----------------------------------------
 .byte   W72
 .byte   W72
@  #06 @044   ----------------------------------------
 .byte   W72
 .byte   W72
@  #06 @045   ----------------------------------------
 .byte   W72
 .byte   W72
@  #06 @046   ----------------------------------------
 .byte   W72
 .byte   W72
@  #06 @047   ----------------------------------------
 .byte   W72
 .byte   W72
@  #06 @048   ----------------------------------------
 .byte   W72
 .byte   W72
@  #06 @049   ----------------------------------------
 .byte   W72
 .byte   W72
@  #06 @050   ----------------------------------------
 .byte   W36
 .byte   N32 ,Cs5 ,v052
 .byte   W36
 .byte   TIE ,Ds5
 .byte   W72
@  #06 @051   ----------------------------------------
 .byte   PATT
  .word Label_01131436
@  #06 @052   ----------------------------------------
 .byte   EOT
 .byte   Ds5
 .byte   W01
 .byte   N32 ,Fn5 ,v052
 .byte   W36
 .byte   N68 ,As4
 .byte   W72
@  #06 @053   ----------------------------------------
 .byte   Cs5
 .byte   W72
 .byte   N32 ,Ds5
 .byte   W36
@  #06 @054   ----------------------------------------
 .byte   Gs4
 .byte   W36
 .byte   TIE ,As4
 .byte   W72
@  #06 @055   ----------------------------------------
 .byte   PATT
  .word Label_01131436
@  #06 @056   ----------------------------------------
 .byte   EOT
 .byte   As4
 .byte   W13
 .byte   GOTO
  .word Label_0113143C
@  #06 @057   ----------------------------------------
 .byte   W24
 .byte   W72
@  #06 @058   ----------------------------------------
 .byte   W72
 .byte   W72
@  #06 @059   ----------------------------------------
 .byte   W72
 .byte   W72
@  #06 @060   ----------------------------------------
 .byte   W72
 .byte   W72
@  #06 @061   ----------------------------------------
 .byte   W72
 .byte   W72
@  #06 @062   ----------------------------------------
 .byte   W72
 .byte   W72
@  #06 @063   ----------------------------------------
 .byte   W72
 .byte   W96
@  #06 @064   ----------------------------------------
 .byte   W12
 .byte   W96
@  #06 @065   ----------------------------------------
 .byte   W12
@  #06 @066   ----------------------------------------
 .byte   PATT
  .word Label_0113144A
@  #06 @067   ----------------------------------------
 .byte   PATT
  .word Label_01131451
@  #06 @068   ----------------------------------------
 .byte   PATT
  .word Label_01131456
@  #06 @069   ----------------------------------------
 .byte   PATT
  .word Label_0113145D
@  #06 @070   ----------------------------------------
 .byte   PATT
  .word Label_01131464
@  #06 @071   ----------------------------------------
 .byte   PATT
  .word Label_0113146B
@  #06 @072   ----------------------------------------
 .byte   PATT
  .word Label_01131470
@  #06 @073   ----------------------------------------
 .byte   EOT
 .byte   As3
 .byte   W01
 .byte   N32 ,Fn4 ,v064
 .byte   W36
@  #06 @074   ----------------------------------------
 .byte   PATT
  .word Label_0113147A
@  #06 @075   ----------------------------------------
 .byte   PATT
  .word Label_01131481
@  #06 @076   ----------------------------------------
 .byte   W72
 .byte   W72
@  #06 @077   ----------------------------------------
 .byte   W72
 .byte   W72
@  #06 @078   ----------------------------------------
 .byte   W72
 .byte   W72
@  #06 @079   ----------------------------------------
 .byte   W72
 .byte   W72
@  #06 @080   ----------------------------------------
 .byte   W72
 .byte   W72
@  #06 @081   ----------------------------------------
 .byte   PATT
  .word Label_01131490
@  #06 @082   ----------------------------------------
 .byte   PATT
  .word Label_0113149C
@  #06 @083   ----------------------------------------
 .byte   PATT
  .word Label_011314A3
@  #06 @084   ----------------------------------------
 .byte   PATT
  .word Label_011314B7
@  #06 @085   ----------------------------------------
 .byte   PATT
  .word Label_011314C9
@  #06 @086   ----------------------------------------
 .byte   PATT
  .word Label_011314DA
@  #06 @087   ----------------------------------------
 .byte   EOT
 .byte   Ds5
 .byte   W19
 .byte   N05 ,Cs5 ,v052
 .byte   W06
 .byte   N11 ,Bn4
 .byte   W12
@  #06 @088   ----------------------------------------
 .byte   PATT
  .word Label_011314E7
@  #06 @089   ----------------------------------------
 .byte   PATT
  .word Label_011314EE
@  #06 @090   ----------------------------------------
 .byte   PATT
  .word Label_011314F3
@  #06 @091   ----------------------------------------
 .byte   PATT
  .word Label_011314F9
@  #06 @092   ----------------------------------------
 .byte   PATT
  .word Label_01131500
@  #06 @093   ----------------------------------------
 .byte   PATT
  .word Label_01131505
@  #06 @094   ----------------------------------------
 .byte   PATT
  .word Label_0113150B
@  #06 @095   ----------------------------------------
 .byte   PATT
  .word Label_01131510
@  #06 @096   ----------------------------------------
 .byte   EOT
 .byte   Fn4
 .byte   W01
 .byte   W72
 .byte   W72
@  #06 @097   ----------------------------------------
 .byte   W72
 .byte   W72
@  #06 @098   ----------------------------------------
 .byte   W72
 .byte   W68
@  #06 @099   ----------------------------------------
 .byte   W03
 .byte   FINE

@**************** Track 7 (Midi-Chn.6) ****************@

FireEmblemEngageEnjoytheEveningDivineOneSurfingKyogre1_007:
@  #07 @000   ----------------------------------------
 .byte   KEYSH , FireEmblemEngageEnjoytheEveningDivineOneSurfingKyogre1_key+0
 .byte   VOICE , 49
 .byte   PAN , c_v-2
 .byte   VOL , 32*FireEmblemEngageEnjoytheEveningDivineOneSurfingKyogre1_mvl/mxv
 .byte   VOL , 32*FireEmblemEngageEnjoytheEveningDivineOneSurfingKyogre1_mvl/mxv
 .byte   N68 ,Gs2 ,v080
 .byte   W72
 .byte   As2
 .byte   W24
@  #07 @001   ----------------------------------------
 .byte   W48
 .byte   Cn3
 .byte   W48
@  #07 @002   ----------------------------------------
 .byte   W24
 .byte   N32
 .byte   W36
 .byte   Gs2
 .byte   W36
@  #07 @003   ----------------------------------------
 .byte   N32
 .byte   W11
 .byte   W11
 .byte   W11
 .byte   W03
 .byte   As2 ,v084
 .byte   W09
 .byte   W11
 .byte   W11
 .byte   W05
 .byte   As2 ,v088
 .byte   W06
 .byte   W12
 .byte   W06
@  #07 @004   ----------------------------------------
 .byte   W05
 .byte   W07
 .byte   Cn3 ,v092
 .byte   W04
 .byte   W11
 .byte   W12
 .byte   W09
 .byte   N32
 .byte   W02
 .byte   W11
 .byte   W11
 .byte   W12
 .byte   Cs3 ,v096
 .byte   W06
 .byte   W06
@  #07 @005   ----------------------------------------
 .byte   W01
 .byte   W07
 .byte   W07
 .byte   W06
 .byte   W03
 .byte   Cs3 ,v092
 .byte   W04
 .byte   W07
 .byte   W07
 .byte   W06
 .byte   W07
 .byte   W05
 .byte   Cn3 ,v088
 .byte   W02
 .byte   W07
 .byte   W06
 .byte   W07
 .byte   W07
 .byte   W07
@  #07 @006   ----------------------------------------
 .byte   N68 ,As2 ,v080
 .byte   W09
 .byte   W09
 .byte   W09
 .byte   W09
 .byte   W09
 .byte   W09
 .byte   W09
 .byte   W09
 .byte   N32 ,Cn3 ,v088
 .byte   W09
 .byte   W09
 .byte   W06
@  #07 @007   ----------------------------------------
 .byte   W03
 .byte   W09
 .byte   Fn3 ,v092
 .byte   W09
 .byte   W09
 .byte   W09
 .byte   W09
 .byte   TIE ,Fs3 ,v096
 .byte   W48
@  #07 @008   ----------------------------------------
Label_0113166B:
 .byte   W24
 .byte   W32
 .byte   W03
 .byte   PEND 
 .byte   EOT
 .byte   Fs3
 .byte   W01
 .byte   N32 ,Fn3 ,v096
 .byte   W06
 .byte   W07
 .byte   W07
 .byte   W07
 .byte   W06
 .byte   W03
@  #07 @009   ----------------------------------------
 .byte   Fn3 ,v092
 .byte   W04
 .byte   W07
 .byte   W07
 .byte   W06
 .byte   W07
 .byte   W05
 .byte   Cs3 ,v088
 .byte   W02
 .byte   W07
 .byte   W06
 .byte   W07
 .byte   W07
 .byte   W07
 .byte   TIE ,Ds3 ,v080
 .byte   W24
@  #07 @010   ----------------------------------------
 .byte   W48
 .byte   W48
@  #07 @011   ----------------------------------------
 .byte   W24
 .byte   W68
 .byte   W03
 .byte   EOT
 .byte   W01
@  #07 @012   ----------------------------------------
Label_01131696:
 .byte   N32 ,Cs3 ,v080
 .byte   W48
 .byte   PEND 
Label_0113169B:
 .byte   N05 ,Cs4 ,v112
 .byte   W06
 .byte   Ds4
 .byte   W06
 .byte   Fn4
 .byte   W06
 .byte   Fs4
 .byte   W06
 .byte   N68 ,Gs4
 .byte   W24
@  #07 @013   ----------------------------------------
 .byte   W48
 .byte   N23
 .byte   W24
 .byte   N11 ,As4
 .byte   W12
 .byte   N52 ,Cn5
 .byte   W12
@  #07 @014   ----------------------------------------
 .byte   W24
 .byte   W18
 .byte   N05 ,Cs5
 .byte   W06
 .byte   N11 ,Ds5
 .byte   W12
 .byte   N52 ,Cn5
 .byte   W36
@  #07 @015   ----------------------------------------
 .byte   W18
 .byte   N05 ,As4
 .byte   W06
 .byte   N11 ,Gs4
 .byte   W12
 .byte   N32 ,Cn5
 .byte   W36
 .byte   N68 ,Fn4
 .byte   W24
@  #07 @016   ----------------------------------------
 .byte   W48
 .byte   N32 ,As4
 .byte   W36
 .byte   Fn5
 .byte   W12
@  #07 @017   ----------------------------------------
 .byte   W24
 .byte   N44 ,Ds5
 .byte   W36
 .byte   W12
 .byte   N11 ,As4
 .byte   W12
 .byte   Ds5
 .byte   W12
@  #07 @018   ----------------------------------------
 .byte   N68 ,Fn5
 .byte   W96
@  #07 @019   ----------------------------------------
 .byte   W48
 .byte   TIE ,Gs3 ,v096
 .byte   W48
@  #07 @020   ----------------------------------------
 .byte   PATT
  .word Label_0113166B
@  #07 @021   ----------------------------------------
 .byte   EOT
 .byte   Gs3
 .byte   W01
 .byte   N32 ,Fn3 ,v096
 .byte   W36
Label_011316ED:
 .byte   N32 ,Cn3 ,v096
 .byte   W72
 .byte   PEND 
@  #07 @022   ----------------------------------------
Label_011316F2:
 .byte   W36
 .byte   N32 ,As2 ,v096
 .byte   W36
 .byte   Fn3
 .byte   W36
 .byte   PEND 
@  #07 @023   ----------------------------------------
Label_011316FA:
 .byte   N68 ,En3 ,v096
 .byte   W96
@  #07 @024   ----------------------------------------
 .byte   W12
 .byte   PEND 
 .byte   W72
Label_01131701:
 .byte   N68 ,Cs3 ,v080
 .byte   W72
 .byte   PEND 
@  #07 @025   ----------------------------------------
Label_01131706:
 .byte   N68 ,Ds3 ,v080
 .byte   W72
 .byte   PEND 
Label_0113170B:
 .byte   W36
@  #07 @026   ----------------------------------------
 .byte   N32 ,Cs3 ,v080
 .byte   W06
 .byte   W07
 .byte   W07
 .byte   W07
 .byte   W06
 .byte   W03
 .byte   PEND 
Label_01131716:
 .byte   N32 ,Ds3 ,v088
 .byte   W04
 .byte   W07
 .byte   W07
 .byte   W06
 .byte   W07
 .byte   W05
 .byte   Gs3 ,v092
 .byte   W02
 .byte   W07
 .byte   W06
 .byte   W07
 .byte   W07
@  #07 @027   ----------------------------------------
 .byte   W07
 .byte   PEND 
Label_01131728:
 .byte   N32 ,Fn3 ,v096
 .byte   W36
 .byte   Fs3
 .byte   W36
 .byte   PEND 
Label_0113172F:
 .byte   TIE ,Fn3 ,v096
 .byte   W72
 .byte   PEND 
@  #07 @028   ----------------------------------------
Label_01131734:
 .byte   W01
 .byte   W01
 .byte   W01
 .byte   W01
 .byte   W01
 .byte   W01
 .byte   W01
 .byte   W01
 .byte   W01
 .byte   W01
 .byte   W01
 .byte   W01
 .byte   W01
 .byte   W01
 .byte   W01
 .byte   W01
 .byte   W01
 .byte   W01
 .byte   W01
 .byte   W01
 .byte   W01
 .byte   W01
 .byte   W01
 .byte   W01
 .byte   W01
 .byte   W01
 .byte   W01
 .byte   W01
 .byte   W01
 .byte   W01
 .byte   W01
 .byte   W01
 .byte   W01
 .byte   W01
 .byte   W01
 .byte   PEND 
 .byte   EOT
 .byte   Fn3
 .byte   W01
 .byte   W36
Label_0113175C:
 .byte   N32 ,Gs2 ,v096
 .byte   W36
@  #07 @029   ----------------------------------------
 .byte   Gs3
 .byte   W36
 .byte   PEND 
Label_01131763:
 .byte   N56 ,Ds3 ,v096
 .byte   W36
 .byte   W24
@  #07 @030   ----------------------------------------
 .byte   N11 ,Cs3
 .byte   W12
 .byte   PEND 
Label_0113176C:
 .byte   N23 ,Ds3 ,v096
 .byte   W24
 .byte   N32 ,Fn3
 .byte   W12
 .byte   W36
 .byte   PEND 
@  #07 @031   ----------------------------------------
 .byte   PATT
  .word Label_01131763
@  #07 @032   ----------------------------------------
 .byte   PATT
  .word Label_0113176C
@  #07 @033   ----------------------------------------
Label_0113177F:
 .byte   N23 ,Ds3 ,v096
 .byte   W24
 .byte   N11 ,Cs3
 .byte   W12
 .byte   N23 ,Ds3
 .byte   W24
 .byte   N11 ,Fn3
 .byte   W12
 .byte   PEND 
Label_0113178D:
 .byte   N11 ,Ds3 ,v096
 .byte   W12
 .byte   Cs3
 .byte   W12
@  #07 @034   ----------------------------------------
 .byte   N32 ,As2
 .byte   W12
 .byte   W36
 .byte   PEND 
@  #07 @035   ----------------------------------------
 .byte   PATT
  .word Label_0113177F
@  #07 @036   ----------------------------------------
Label_0113179D:
 .byte   N56 ,Gs3 ,v096
 .byte   W36
 .byte   W36
 .byte   PEND 
Label_011317A3:
 .byte   W12
 .byte   N05 ,En3 ,v096
 .byte   W06
 .byte   Fs3
 .byte   W06
@  #07 @037   ----------------------------------------
 .byte   N11 ,En3
 .byte   W12
 .byte   N05 ,Bn3
 .byte   W06
 .byte   Cs4
 .byte   W06
 .byte   N11 ,Bn3
 .byte   W12
 .byte   En3
 .byte   W12
 .byte   PEND 
Label_011317B8:
 .byte   W12
 .byte   N05 ,En3 ,v096
 .byte   W06
 .byte   Fs3
 .byte   W06
 .byte   En3
 .byte   W06
 .byte   Bn3
 .byte   W06
 .byte   N11 ,En4
 .byte   W12
@  #07 @038   ----------------------------------------
 .byte   Bn3
 .byte   W12
 .byte   En3
 .byte   W12
 .byte   PEND 
@  #07 @039   ----------------------------------------
 .byte   PATT
  .word Label_011317A3
@  #07 @040   ----------------------------------------
 .byte   PATT
  .word Label_011317B8
@  #07 @041   ----------------------------------------
Label_011317D5:
 .byte   TIE ,Bn3 ,v080
 .byte   W72
 .byte   PEND 
Label_011317DA:
 .byte   W68
@  #07 @042   ----------------------------------------
 .byte   W03
 .byte   PEND 
 .byte   EOT
 .byte   Bn3
 .byte   W01
@  #07 @043   ----------------------------------------
 .byte   PATT
  .word Label_011317D5
@  #07 @044   ----------------------------------------
Label_011317E5:
 .byte   W32
 .byte   W03
 .byte   PEND 
 .byte   EOT
 .byte   Bn3
 .byte   W36
 .byte   W01
Label_011317EC:
 .byte   N32 ,Cs3 ,v096
 .byte   W36
@  #07 @045   ----------------------------------------
 .byte   Ds3
 .byte   W36
 .byte   PEND 
Label_011317F3:
 .byte   N68 ,Gs2 ,v096
 .byte   W72
 .byte   PEND 
@  #07 @046   ----------------------------------------
Label_011317F8:
 .byte   W36
 .byte   N32 ,Cs3 ,v096
 .byte   W36
 .byte   PEND 
Label_011317FE:
 .byte   N32 ,Ds3 ,v096
 .byte   W36
@  #07 @047   ----------------------------------------
 .byte   Gs3
 .byte   W36
 .byte   PEND 
@  #07 @048   ----------------------------------------
 .byte   PATT
  .word Label_01131728
@  #07 @049   ----------------------------------------
Label_0113180A:
 .byte   N68 ,Fn3 ,v096
 .byte   W72
 .byte   PEND 
Label_0113180F:
 .byte   TIE ,Cs3 ,v096
 .byte   W72
 .byte   PEND 
@  #07 @050   ----------------------------------------
Label_01131814:
 .byte   W68
 .byte   W03
 .byte   PEND 
 .byte   EOT
 .byte   Cs3
 .byte   W01
@  #07 @051   ----------------------------------------
 .byte   PATT
  .word Label_0113180F
@  #07 @052   ----------------------------------------
Label_0113181F:
 .byte   W32
 .byte   W03
 .byte   PEND 
 .byte   EOT
 .byte   Cs3
 .byte   W36
 .byte   W01
@  #07 @053   ----------------------------------------
 .byte   PATT
  .word Label_011317F3
@  #07 @054   ----------------------------------------
Label_0113182B:
 .byte   N32 ,Cs3 ,v096
 .byte   W36
 .byte   Fn3
 .byte   W36
 .byte   PEND 
@  #07 @055   ----------------------------------------
 .byte   PATT
  .word Label_0113180A
@  #07 @056   ----------------------------------------
 .byte   W72
 .byte   N68 ,Gs2 ,v080
 .byte   W72
@  #07 @057   ----------------------------------------
 .byte   As2
 .byte   W72
 .byte   Cn3
 .byte   W72
@  #07 @058   ----------------------------------------
 .byte   N32
 .byte   W36
 .byte   Gs2
 .byte   W36
 .byte   N32
 .byte   W11
 .byte   W11
 .byte   W11
@  #07 @059   ----------------------------------------
 .byte   W03
 .byte   As2 ,v084
 .byte   W09
 .byte   W11
 .byte   W11
 .byte   W05
 .byte   As2 ,v088
 .byte   W06
 .byte   W12
 .byte   W11
 .byte   W07
 .byte   Cn3 ,v092
 .byte   W04
 .byte   W11
 .byte   W12
@  #07 @060   ----------------------------------------
 .byte   W09
 .byte   N32
 .byte   W02
 .byte   W11
 .byte   W11
 .byte   W12
 .byte   Cs3 ,v096
 .byte   W06
 .byte   W07
 .byte   W07
 .byte   W07
 .byte   W06
 .byte   W03
 .byte   Cs3 ,v092
 .byte   W04
 .byte   W07
 .byte   W07
@  #07 @061   ----------------------------------------
 .byte   W06
 .byte   W07
 .byte   W05
 .byte   Cn3 ,v088
 .byte   W02
 .byte   W07
 .byte   W06
 .byte   W07
 .byte   W07
 .byte   W07
 .byte   N68 ,As2 ,v080
 .byte   W09
 .byte   W09
 .byte   W09
 .byte   W09
 .byte   W09
@  #07 @062   ----------------------------------------
 .byte   W09
 .byte   W09
 .byte   W09
 .byte   N32 ,Cn3 ,v088
 .byte   W09
 .byte   W09
 .byte   W09
 .byte   W09
 .byte   Fn3 ,v092
 .byte   W09
 .byte   W09
 .byte   W09
 .byte   W09
@  #07 @063   ----------------------------------------
 .byte   TIE ,Fs3 ,v096
 .byte   W72
@  #07 @064   ----------------------------------------
 .byte   PATT
  .word Label_0113181F
@  #07 @065   ----------------------------------------
 .byte   EOT
 .byte   Fs3
 .byte   W01
 .byte   N32 ,Fn3 ,v096
 .byte   W06
 .byte   W07
 .byte   W07
 .byte   W07
 .byte   W06
 .byte   W03
 .byte   Fn3 ,v092
 .byte   W04
 .byte   W07
 .byte   W07
 .byte   W06
 .byte   W07
 .byte   W05
 .byte   Cs3 ,v088
 .byte   W02
 .byte   W07
 .byte   W06
 .byte   W07
 .byte   W07
@  #07 @066   ----------------------------------------
 .byte   W07
 .byte   TIE ,Ds3 ,v080
 .byte   W72
 .byte   W72
@  #07 @067   ----------------------------------------
 .byte   PATT
  .word Label_011317DA
@  #07 @068   ----------------------------------------
 .byte   EOT
 .byte   Ds3
 .byte   W01
@  #07 @069   ----------------------------------------
 .byte   PATT
  .word Label_01131696
@  #07 @070   ----------------------------------------
 .byte   GOTO
  .word Label_0113169B
@  #07 @071   ----------------------------------------
 .byte   N05 ,Cs4 ,v112
 .byte   W06
 .byte   Ds4
 .byte   W06
 .byte   Fn4
 .byte   W06
 .byte   Fs4
 .byte   W06
 .byte   N68 ,Gs4
 .byte   W72
@  #07 @072   ----------------------------------------
 .byte   N23
 .byte   W24
 .byte   N11 ,As4
 .byte   W12
 .byte   N52 ,Cn5
 .byte   W36
 .byte   W18
 .byte   N05 ,Cs5
 .byte   W06
@  #07 @073   ----------------------------------------
 .byte   N11 ,Ds5
 .byte   W12
 .byte   N52 ,Cn5
 .byte   W36
 .byte   W18
 .byte   N05 ,As4
 .byte   W06
 .byte   N11 ,Gs4
 .byte   W12
 .byte   N32 ,Cn5
 .byte   W36
@  #07 @074   ----------------------------------------
 .byte   N68 ,Fn4
 .byte   W72
 .byte   N32 ,As4
 .byte   W36
@  #07 @075   ----------------------------------------
 .byte   Fn5
 .byte   W36
 .byte   N44 ,Ds5
 .byte   W36
 .byte   W12
 .byte   N11 ,As4
 .byte   W12
@  #07 @076   ----------------------------------------
 .byte   Ds5
 .byte   W12
 .byte   N68 ,Fn5
 .byte   W72
 .byte   W72
@  #07 @077   ----------------------------------------
 .byte   TIE ,Gs3 ,v096
 .byte   W72
@  #07 @078   ----------------------------------------
 .byte   PATT
  .word Label_0113181F
@  #07 @079   ----------------------------------------
 .byte   EOT
 .byte   Gs3
 .byte   W01
 .byte   N32 ,Fn3 ,v096
 .byte   W36
@  #07 @080   ----------------------------------------
 .byte   PATT
  .word Label_011316ED
@  #07 @081   ----------------------------------------
 .byte   PATT
  .word Label_011316F2
@  #07 @082   ----------------------------------------
 .byte   PATT
  .word Label_011316FA
@  #07 @083   ----------------------------------------
 .byte   W72
@  #07 @084   ----------------------------------------
 .byte   PATT
  .word Label_01131701
@  #07 @085   ----------------------------------------
 .byte   PATT
  .word Label_01131706
@  #07 @086   ----------------------------------------
 .byte   PATT
  .word Label_0113170B
@  #07 @087   ----------------------------------------
 .byte   PATT
  .word Label_01131716
@  #07 @088   ----------------------------------------
 .byte   PATT
  .word Label_01131728
@  #07 @089   ----------------------------------------
 .byte   PATT
  .word Label_0113172F
@  #07 @090   ----------------------------------------
 .byte   PATT
  .word Label_01131734
@  #07 @091   ----------------------------------------
 .byte   EOT
 .byte   Fn3
 .byte   W01
 .byte   W36
@  #07 @092   ----------------------------------------
 .byte   PATT
  .word Label_0113175C
@  #07 @093   ----------------------------------------
 .byte   PATT
  .word Label_01131763
@  #07 @094   ----------------------------------------
 .byte   PATT
  .word Label_0113176C
@  #07 @095   ----------------------------------------
 .byte   PATT
  .word Label_01131763
@  #07 @096   ----------------------------------------
 .byte   PATT
  .word Label_0113176C
@  #07 @097   ----------------------------------------
 .byte   PATT
  .word Label_0113177F
@  #07 @098   ----------------------------------------
 .byte   PATT
  .word Label_0113178D
@  #07 @099   ----------------------------------------
 .byte   PATT
  .word Label_0113177F
@  #07 @100   ----------------------------------------
 .byte   PATT
  .word Label_0113179D
@  #07 @101   ----------------------------------------
 .byte   PATT
  .word Label_011317A3
@  #07 @102   ----------------------------------------
 .byte   PATT
  .word Label_011317B8
@  #07 @103   ----------------------------------------
 .byte   PATT
  .word Label_011317A3
@  #07 @104   ----------------------------------------
 .byte   PATT
  .word Label_011317B8
@  #07 @105   ----------------------------------------
 .byte   PATT
  .word Label_011317D5
@  #07 @106   ----------------------------------------
 .byte   PATT
  .word Label_011317DA
@  #07 @107   ----------------------------------------
 .byte   EOT
 .byte   Bn3
 .byte   W01
@  #07 @108   ----------------------------------------
 .byte   PATT
  .word Label_011317D5
@  #07 @109   ----------------------------------------
 .byte   PATT
  .word Label_011317E5
@  #07 @110   ----------------------------------------
 .byte   EOT
 .byte   Bn3
 .byte   W36
 .byte   W01
@  #07 @111   ----------------------------------------
 .byte   PATT
  .word Label_011317EC
@  #07 @112   ----------------------------------------
 .byte   PATT
  .word Label_011317F3
@  #07 @113   ----------------------------------------
 .byte   PATT
  .word Label_011317F8
@  #07 @114   ----------------------------------------
 .byte   PATT
  .word Label_011317FE
@  #07 @115   ----------------------------------------
 .byte   PATT
  .word Label_01131728
@  #07 @116   ----------------------------------------
 .byte   PATT
  .word Label_0113180A
@  #07 @117   ----------------------------------------
 .byte   PATT
  .word Label_0113180F
@  #07 @118   ----------------------------------------
 .byte   PATT
  .word Label_01131814
@  #07 @119   ----------------------------------------
 .byte   EOT
 .byte   Cs3
 .byte   W01
@  #07 @120   ----------------------------------------
 .byte   PATT
  .word Label_0113180F
@  #07 @121   ----------------------------------------
 .byte   PATT
  .word Label_0113181F
@  #07 @122   ----------------------------------------
 .byte   EOT
 .byte   Cs3
 .byte   W36
 .byte   W01
@  #07 @123   ----------------------------------------
 .byte   PATT
  .word Label_011317F3
@  #07 @124   ----------------------------------------
 .byte   PATT
  .word Label_0113182B
@  #07 @125   ----------------------------------------
 .byte   PATT
  .word Label_0113180A
@  #07 @126   ----------------------------------------
 .byte   W68
 .byte   W03
 .byte   FINE

@**************** Track 8 (Midi-Chn.7) ****************@

FireEmblemEngageEnjoytheEveningDivineOneSurfingKyogre1_008:
@  #08 @000   ----------------------------------------
 .byte   KEYSH , FireEmblemEngageEnjoytheEveningDivineOneSurfingKyogre1_key+0
 .byte   VOICE , 45
 .byte   VOL , 42*FireEmblemEngageEnjoytheEveningDivineOneSurfingKyogre1_mvl/mxv
 .byte   PAN , c_v+0
 .byte   VOL , 42*FireEmblemEngageEnjoytheEveningDivineOneSurfingKyogre1_mvl/mxv
 .byte   PAN , c_v+0
 .byte   N68 ,Gs2 ,v064
 .byte   W72
 .byte   As2
 .byte   W24
@  #08 @001   ----------------------------------------
 .byte   W48
 .byte   Cn3
 .byte   W48
@  #08 @002   ----------------------------------------
 .byte   W24
 .byte   N32
 .byte   W36
 .byte   Gs2
 .byte   W36
@  #08 @003   ----------------------------------------
 .byte   N32
 .byte   W36
 .byte   As2
 .byte   W36
 .byte   N32
 .byte   W24
@  #08 @004   ----------------------------------------
 .byte   W12
 .byte   Cn3
 .byte   W36
 .byte   N32
 .byte   W36
 .byte   Cs3
 .byte   W12
@  #08 @005   ----------------------------------------
 .byte   W24
 .byte   N32
 .byte   W36
 .byte   Cn3
 .byte   W36
@  #08 @006   ----------------------------------------
 .byte   N68 ,As2 ,v080
 .byte   W09
 .byte   W09
 .byte   W09
 .byte   W09
 .byte   W09
 .byte   W09
 .byte   W09
 .byte   W09
 .byte   N32 ,Cn3 ,v088
 .byte   W09
 .byte   W09
 .byte   W06
@  #08 @007   ----------------------------------------
 .byte   W03
 .byte   W09
 .byte   Fn3 ,v092
 .byte   W09
 .byte   W09
 .byte   W09
 .byte   W09
 .byte   TIE ,Fs3 ,v096
 .byte   W48
@  #08 @008   ----------------------------------------
 .byte   W24
 .byte   W32
 .byte   W03
 .byte   EOT
 .byte   W01
 .byte   N32 ,Fn3
 .byte   W06
 .byte   W07
 .byte   W07
 .byte   W07
 .byte   W06
 .byte   W03
@  #08 @009   ----------------------------------------
 .byte   Fn3 ,v092
 .byte   W04
 .byte   W07
 .byte   W07
 .byte   W06
 .byte   W07
 .byte   W05
 .byte   Cs3 ,v088
 .byte   W02
 .byte   W07
 .byte   W06
 .byte   W07
 .byte   W07
 .byte   W07
 .byte   TIE ,Ds3 ,v080
 .byte   W24
@  #08 @010   ----------------------------------------
 .byte   W48
 .byte   W48
@  #08 @011   ----------------------------------------
 .byte   W24
 .byte   W68
 .byte   W03
 .byte   EOT
 .byte   W01
@  #08 @012   ----------------------------------------
Label_01162CFD:
 .byte   N32 ,Cs3 ,v080
 .byte   W48
 .byte   PEND 
Label_01162D02:
 .byte   W24
 .byte   N68 ,As2 ,v096
 .byte   W24
@  #08 @013   ----------------------------------------
 .byte   W48
 .byte   Cn3
 .byte   W48
@  #08 @014   ----------------------------------------
 .byte   W24
 .byte   N32 ,Cs3
 .byte   W36
 .byte   Cn3
 .byte   W36
@  #08 @015   ----------------------------------------
 .byte   N68
 .byte   W72
 .byte   Cs3
 .byte   W24
@  #08 @016   ----------------------------------------
 .byte   W48
 .byte   N32 ,Ds3
 .byte   W36
 .byte   Cs3
 .byte   W12
@  #08 @017   ----------------------------------------
 .byte   W24
 .byte   N68 ,Cn3
 .byte   W72
@  #08 @018   ----------------------------------------
 .byte   An2
 .byte   W96
@  #08 @019   ----------------------------------------
 .byte   W48
 .byte   Fn3
 .byte   W48
@  #08 @020   ----------------------------------------
 .byte   W24
 .byte   N17 ,Cs3
 .byte   W18
 .byte   N05 ,Ds3
 .byte   W06
 .byte   N11 ,Fn3
 .byte   W12
 .byte   N32 ,Cn3
 .byte   W36
@  #08 @021   ----------------------------------------
Label_01162D30:
 .byte   N32 ,Gs2 ,v096
 .byte   W72
 .byte   PEND 
Label_01162D35:
 .byte   W72
@  #08 @022   ----------------------------------------
 .byte   N32 ,Cs3 ,v096
 .byte   W36
 .byte   PEND 
Label_01162D3B:
 .byte   N68 ,Cs3 ,v096
 .byte   W96
@  #08 @023   ----------------------------------------
 .byte   W12
 .byte   PEND 
 .byte   W72
Label_01162D42:
 .byte   N68 ,Cs3 ,v080
 .byte   W72
 .byte   PEND 
@  #08 @024   ----------------------------------------
Label_01162D47:
 .byte   N68 ,Ds3 ,v080
 .byte   W72
 .byte   PEND 
Label_01162D4C:
 .byte   W36
@  #08 @025   ----------------------------------------
 .byte   N32 ,As2 ,v080
 .byte   W06
 .byte   W07
 .byte   W07
 .byte   W07
 .byte   W06
 .byte   W03
 .byte   PEND 
Label_01162D57:
 .byte   N32 ,Cn3 ,v088
 .byte   W04
 .byte   W07
 .byte   W07
 .byte   W06
 .byte   W07
 .byte   W05
 .byte   Fn3 ,v092
 .byte   W02
 .byte   W07
 .byte   W06
 .byte   W07
 .byte   W07
@  #08 @026   ----------------------------------------
 .byte   W07
 .byte   PEND 
Label_01162D69:
 .byte   N32 ,Ds3 ,v096
 .byte   W36
 .byte   N32
 .byte   W36
 .byte   PEND 
Label_01162D70:
 .byte   N68 ,Fn3 ,v096
 .byte   W72
 .byte   PEND 
@  #08 @027   ----------------------------------------
Label_01162D75:
 .byte   N32 ,Cs3 ,v096
 .byte   W36
 .byte   N11 ,Gs3 ,v127
 .byte   W12
 .byte   Cs4
 .byte   W12
 .byte   Cn4
 .byte   W12
 .byte   PEND 
Label_01162D82:
 .byte   N11 ,Gs3 ,v127
 .byte   W36
@  #08 @028   ----------------------------------------
 .byte   Fn3
 .byte   W36
 .byte   PEND 
Label_01162D89:
 .byte   N56 ,Ds3 ,v127
 .byte   W36
 .byte   W24
@  #08 @029   ----------------------------------------
 .byte   N11 ,Cs3
 .byte   W12
 .byte   PEND 
Label_01162D92:
 .byte   N23 ,Ds3 ,v127
 .byte   W24
 .byte   N32 ,Fn3
 .byte   W12
 .byte   W36
 .byte   PEND 
@  #08 @030   ----------------------------------------
 .byte   PATT
  .word Label_01162D89
@  #08 @031   ----------------------------------------
 .byte   PATT
  .word Label_01162D92
@  #08 @032   ----------------------------------------
Label_01162DA5:
 .byte   N23 ,Ds3 ,v127
 .byte   W24
 .byte   N11 ,Cs3
 .byte   W12
 .byte   N23 ,Ds3
 .byte   W24
 .byte   N11 ,Fn3
 .byte   W12
 .byte   PEND 
Label_01162DB3:
 .byte   N11 ,Ds3 ,v127
 .byte   W12
 .byte   Cs3
 .byte   W12
@  #08 @033   ----------------------------------------
 .byte   N32 ,As2
 .byte   W12
 .byte   W36
 .byte   PEND 
@  #08 @034   ----------------------------------------
 .byte   PATT
  .word Label_01162DA5
@  #08 @035   ----------------------------------------
Label_01162DC3:
 .byte   N56 ,Gs3 ,v127
 .byte   W36
 .byte   W36
 .byte   PEND 
Label_01162DC9:
 .byte   W12
 .byte   N05 ,En3 ,v096
 .byte   W06
 .byte   Fs3
 .byte   W06
@  #08 @036   ----------------------------------------
 .byte   N11 ,En3
 .byte   W12
 .byte   N05 ,Bn3
 .byte   W06
 .byte   Cs4
 .byte   W06
 .byte   N11 ,Bn3
 .byte   W12
 .byte   En3
 .byte   W12
 .byte   PEND 
Label_01162DDE:
 .byte   W12
 .byte   N05 ,En3 ,v096
 .byte   W06
 .byte   Fs3
 .byte   W06
 .byte   En3
 .byte   W06
 .byte   Bn3
 .byte   W06
 .byte   N11 ,En4
 .byte   W12
@  #08 @037   ----------------------------------------
 .byte   Bn3
 .byte   W12
 .byte   En3
 .byte   W12
 .byte   PEND 
@  #08 @038   ----------------------------------------
 .byte   PATT
  .word Label_01162DC9
@  #08 @039   ----------------------------------------
 .byte   PATT
  .word Label_01162DDE
@  #08 @040   ----------------------------------------
 .byte   W72
Label_01162DFC:
 .byte   N17 ,Ds4 ,v127
 .byte   W18
 .byte   N05 ,En4
 .byte   W06
@  #08 @041   ----------------------------------------
 .byte   N11 ,Fs4
 .byte   W12
 .byte   Ds4
 .byte   W12
 .byte   Bn3
 .byte   W12
 .byte   Gs3
 .byte   W12
 .byte   PEND 
Label_01162E0D:
 .byte   N23 ,Ds4 ,v127
 .byte   W72
 .byte   PEND 
@  #08 @042   ----------------------------------------
Label_01162E12:
 .byte   N17 ,Ds4 ,v127
 .byte   W18
 .byte   N05 ,En4
 .byte   W06
 .byte   N11 ,Fs4
 .byte   W12
 .byte   N23 ,Bn4
 .byte   W36
 .byte   PEND 
Label_01162E20:
 .byte   N32 ,Cs3 ,v080
 .byte   W36
@  #08 @043   ----------------------------------------
 .byte   Ds3
 .byte   W36
 .byte   PEND 
Label_01162E27:
 .byte   N68 ,Gs2 ,v080
 .byte   W72
 .byte   PEND 
@  #08 @044   ----------------------------------------
Label_01162E2C:
 .byte   W36
 .byte   N32 ,Cs3 ,v080
 .byte   W36
 .byte   PEND 
Label_01162E32:
 .byte   N32 ,Ds3 ,v080
 .byte   W36
@  #08 @045   ----------------------------------------
 .byte   Gs2
 .byte   W36
 .byte   PEND 
@  #08 @046   ----------------------------------------
 .byte   PATT
  .word Label_01162D42
@  #08 @047   ----------------------------------------
 .byte   PATT
  .word Label_01162D42
@  #08 @048   ----------------------------------------
Label_01162E43:
 .byte   TIE ,Gs2 ,v080
 .byte   W72
 .byte   PEND 
Label_01162E48:
 .byte   W68
@  #08 @049   ----------------------------------------
 .byte   W03
 .byte   PEND 
 .byte   EOT
 .byte   Gs2
 .byte   W01
Label_01162E4E:
 .byte   TIE ,As2 ,v080
 .byte   W72
 .byte   PEND 
Label_01162E53:
 .byte   W32
@  #08 @050   ----------------------------------------
 .byte   W03
 .byte   PEND 
 .byte   EOT
 .byte   As2
 .byte   W01
 .byte   N32 ,As2 ,v080
 .byte   W36
Label_01162E5D:
 .byte   N68 ,Gs2 ,v096
 .byte   W72
 .byte   PEND 
@  #08 @051   ----------------------------------------
Label_01162E62:
 .byte   N32 ,Cs3 ,v096
 .byte   W36
 .byte   Fn3
 .byte   W36
 .byte   PEND 
@  #08 @052   ----------------------------------------
 .byte   PATT
  .word Label_01162D70
@  #08 @053   ----------------------------------------
 .byte   W72
 .byte   N68 ,Gs2 ,v064
 .byte   W72
@  #08 @054   ----------------------------------------
 .byte   As2
 .byte   W72
 .byte   Cn3
 .byte   W72
@  #08 @055   ----------------------------------------
 .byte   N32
 .byte   W36
 .byte   Gs2
 .byte   W36
 .byte   N32
 .byte   W36
@  #08 @056   ----------------------------------------
 .byte   As2
 .byte   W36
 .byte   N32
 .byte   W36
 .byte   Cn3
 .byte   W36
@  #08 @057   ----------------------------------------
 .byte   N32
 .byte   W36
 .byte   Cs3
 .byte   W36
 .byte   N32
 .byte   W36
@  #08 @058   ----------------------------------------
 .byte   Cn3
 .byte   W36
 .byte   N68 ,As2 ,v080
 .byte   W09
 .byte   W09
 .byte   W09
 .byte   W09
 .byte   W09
 .byte   W09
 .byte   W09
@  #08 @059   ----------------------------------------
 .byte   W09
 .byte   N32 ,Cn3 ,v088
 .byte   W09
 .byte   W09
 .byte   W09
 .byte   W09
 .byte   Fn3 ,v092
 .byte   W09
 .byte   W09
 .byte   W09
 .byte   W09
 .byte   TIE ,Fs3 ,v096
 .byte   W72
@  #08 @060   ----------------------------------------
 .byte   W32
 .byte   W03
 .byte   EOT
 .byte   W01
 .byte   N32 ,Fn3
 .byte   W06
 .byte   W07
 .byte   W07
 .byte   W07
 .byte   W06
 .byte   W03
 .byte   Fn3 ,v092
 .byte   W04
 .byte   W07
 .byte   W07
 .byte   W06
@  #08 @061   ----------------------------------------
 .byte   W07
 .byte   W05
 .byte   Cs3 ,v088
 .byte   W02
 .byte   W07
 .byte   W06
 .byte   W07
 .byte   W07
 .byte   W07
 .byte   TIE ,Ds3 ,v080
 .byte   W72
@  #08 @062   ----------------------------------------
 .byte   W72
@  #08 @063   ----------------------------------------
 .byte   PATT
  .word Label_01162E48
@  #08 @064   ----------------------------------------
 .byte   EOT
 .byte   Ds3
 .byte   W01
@  #08 @065   ----------------------------------------
 .byte   PATT
  .word Label_01162CFD
@  #08 @066   ----------------------------------------
 .byte   GOTO
  .word Label_01162D02
@  #08 @067   ----------------------------------------
 .byte   W24
 .byte   N68 ,As2 ,v096
 .byte   W72
@  #08 @068   ----------------------------------------
Label_01162EDF:
 .byte   N68 ,Cn3 ,v096
 .byte   W72
 .byte   PEND 
 .byte   N32 ,Cs3
 .byte   W36
@  #08 @069   ----------------------------------------
 .byte   Cn3
 .byte   W36
@  #08 @070   ----------------------------------------
 .byte   PATT
  .word Label_01162EDF
@  #08 @071   ----------------------------------------
 .byte   N68 ,Cs3 ,v096
 .byte   W72
 .byte   N32 ,Ds3
 .byte   W36
@  #08 @072   ----------------------------------------
 .byte   Cs3
 .byte   W36
@  #08 @073   ----------------------------------------
 .byte   PATT
  .word Label_01162EDF
@  #08 @074   ----------------------------------------
 .byte   N68 ,An2 ,v096
 .byte   W72
 .byte   W72
@  #08 @075   ----------------------------------------
 .byte   PATT
  .word Label_01162D70
@  #08 @076   ----------------------------------------
 .byte   N17 ,Cs3 ,v096
 .byte   W18
 .byte   N05 ,Ds3
 .byte   W06
 .byte   N11 ,Fn3
 .byte   W12
 .byte   N32 ,Cn3
 .byte   W36
@  #08 @077   ----------------------------------------
 .byte   PATT
  .word Label_01162D30
@  #08 @078   ----------------------------------------
 .byte   PATT
  .word Label_01162D35
@  #08 @079   ----------------------------------------
 .byte   PATT
  .word Label_01162D3B
@  #08 @080   ----------------------------------------
 .byte   W72
@  #08 @081   ----------------------------------------
 .byte   PATT
  .word Label_01162D42
@  #08 @082   ----------------------------------------
 .byte   PATT
  .word Label_01162D47
@  #08 @083   ----------------------------------------
 .byte   PATT
  .word Label_01162D4C
@  #08 @084   ----------------------------------------
 .byte   PATT
  .word Label_01162D57
@  #08 @085   ----------------------------------------
 .byte   PATT
  .word Label_01162D69
@  #08 @086   ----------------------------------------
 .byte   PATT
  .word Label_01162D70
@  #08 @087   ----------------------------------------
 .byte   PATT
  .word Label_01162D75
@  #08 @088   ----------------------------------------
 .byte   PATT
  .word Label_01162D82
@  #08 @089   ----------------------------------------
 .byte   PATT
  .word Label_01162D89
@  #08 @090   ----------------------------------------
 .byte   PATT
  .word Label_01162D92
@  #08 @091   ----------------------------------------
 .byte   PATT
  .word Label_01162D89
@  #08 @092   ----------------------------------------
 .byte   PATT
  .word Label_01162D92
@  #08 @093   ----------------------------------------
 .byte   PATT
  .word Label_01162DA5
@  #08 @094   ----------------------------------------
 .byte   PATT
  .word Label_01162DB3
@  #08 @095   ----------------------------------------
 .byte   PATT
  .word Label_01162DA5
@  #08 @096   ----------------------------------------
 .byte   PATT
  .word Label_01162DC3
@  #08 @097   ----------------------------------------
 .byte   PATT
  .word Label_01162DC9
@  #08 @098   ----------------------------------------
 .byte   PATT
  .word Label_01162DDE
@  #08 @099   ----------------------------------------
 .byte   PATT
  .word Label_01162DC9
@  #08 @100   ----------------------------------------
 .byte   PATT
  .word Label_01162DDE
@  #08 @101   ----------------------------------------
 .byte   W72
@  #08 @102   ----------------------------------------
 .byte   PATT
  .word Label_01162DFC
@  #08 @103   ----------------------------------------
 .byte   PATT
  .word Label_01162E0D
@  #08 @104   ----------------------------------------
 .byte   PATT
  .word Label_01162E12
@  #08 @105   ----------------------------------------
 .byte   PATT
  .word Label_01162E20
@  #08 @106   ----------------------------------------
 .byte   PATT
  .word Label_01162E27
@  #08 @107   ----------------------------------------
 .byte   PATT
  .word Label_01162E2C
@  #08 @108   ----------------------------------------
 .byte   PATT
  .word Label_01162E32
@  #08 @109   ----------------------------------------
 .byte   PATT
  .word Label_01162D42
@  #08 @110   ----------------------------------------
 .byte   PATT
  .word Label_01162D42
@  #08 @111   ----------------------------------------
 .byte   PATT
  .word Label_01162E43
@  #08 @112   ----------------------------------------
 .byte   PATT
  .word Label_01162E48
@  #08 @113   ----------------------------------------
 .byte   EOT
 .byte   Gs2
 .byte   W01
@  #08 @114   ----------------------------------------
 .byte   PATT
  .word Label_01162E4E
@  #08 @115   ----------------------------------------
 .byte   PATT
  .word Label_01162E53
@  #08 @116   ----------------------------------------
 .byte   EOT
 .byte   As2
 .byte   W01
 .byte   N32 ,As2 ,v080
 .byte   W36
@  #08 @117   ----------------------------------------
 .byte   PATT
  .word Label_01162E5D
@  #08 @118   ----------------------------------------
 .byte   PATT
  .word Label_01162E62
@  #08 @119   ----------------------------------------
 .byte   PATT
  .word Label_01162D70
@  #08 @120   ----------------------------------------
 .byte   W68
 .byte   W03
 .byte   FINE

@**************** Track 9 (Midi-Chn.8) ****************@

FireEmblemEngageEnjoytheEveningDivineOneSurfingKyogre1_009:
@  #09 @000   ----------------------------------------
 .byte   KEYSH , FireEmblemEngageEnjoytheEveningDivineOneSurfingKyogre1_key+0
 .byte   VOICE , 121
 .byte   VOL , 42*FireEmblemEngageEnjoytheEveningDivineOneSurfingKyogre1_mvl/mxv
 .byte   PAN , c_v+0
 .byte   VOL , 42*FireEmblemEngageEnjoytheEveningDivineOneSurfingKyogre1_mvl/mxv
 .byte   PAN , c_v+0
 .byte   W96
@  #09 @001   ----------------------------------------
 .byte   W96
@  #09 @002   ----------------------------------------
 .byte   W96
@  #09 @003   ----------------------------------------
 .byte   W96
@  #09 @004   ----------------------------------------
 .byte   W96
@  #09 @005   ----------------------------------------
 .byte   W96
@  #09 @006   ----------------------------------------
 .byte   W96
@  #09 @007   ----------------------------------------
 .byte   W96
@  #09 @008   ----------------------------------------
 .byte   W96
@  #09 @009   ----------------------------------------
 .byte   W96
@  #09 @010   ----------------------------------------
 .byte   W96
@  #09 @011   ----------------------------------------
 .byte   W96
@  #09 @012   ----------------------------------------
 .byte   W48
Label_011613F5:
 .byte   W06
 .byte   N54 ,Dn1 ,v080
 .byte   W06
 .byte   N12 ,Bn0
 .byte   W12
 .byte   N72
 .byte   W12
 .byte   N12 ,Ds0 ,v052
 .byte   W12
@  #09 @013   ----------------------------------------
Label_01161403:
 .byte   N24 ,Ds0 ,v052
 .byte   W12
 .byte   N72 ,Dn1 ,v080
 .byte   W12
 .byte   N12 ,Ds0 ,v052
 .byte   W12
 .byte   N24
 .byte   W12
 .byte   N72 ,Bn0 ,v080
 .byte   W12
 .byte   N12 ,Ds0 ,v052
 .byte   W12
 .byte   N24
 .byte   W12
 .byte   N72 ,Dn1 ,v080
 .byte   W12
 .byte   PEND 
@  #09 @014   ----------------------------------------
Label_01161420:
 .byte   N12 ,Ds0 ,v052
 .byte   W12
 .byte   N24
 .byte   W12
 .byte   N72 ,Bn0 ,v080
 .byte   W12
 .byte   N12 ,Ds0 ,v052
 .byte   W12
 .byte   N24
 .byte   W12
 .byte   N72 ,Dn1 ,v080
 .byte   W12
 .byte   N12 ,Ds0 ,v052
 .byte   W12
 .byte   N24
 .byte   W12
 .byte   PEND 
@  #09 @015   ----------------------------------------
 .byte   Bn0 ,v080
 .byte   W12
 .byte   N12 ,Ds0 ,v052
 .byte   W12
 .byte   N24
 .byte   N48 ,Bn0 ,v080
 .byte   W12
 .byte   N24 ,Dn1
 .byte   W12
 .byte   N12 ,Ds0 ,v052
 .byte   W12
 .byte   N24
 .byte   N48 ,Dn1 ,v080
 .byte   W12
 .byte   N72 ,Bn0
 .byte   W12
 .byte   N12 ,Ds0 ,v052
 .byte   W12
@  #09 @016   ----------------------------------------
 .byte   PATT
  .word Label_01161403
@  #09 @017   ----------------------------------------
 .byte   PATT
  .word Label_01161420
@  #09 @018   ----------------------------------------
 .byte   N72 ,Bn0 ,v080
 .byte   W12
 .byte   N12 ,Ds0 ,v052
 .byte   W12
 .byte   N24
 .byte   W12
 .byte   N18 ,Dn1 ,v080
 .byte   W12
 .byte   N12 ,Ds0 ,v052
 .byte   W06
 .byte   Dn1 ,v080
 .byte   W06
 .byte   N24 ,Ds0 ,v052
 .byte   W06
 .byte   N06 ,Dn1 ,v080
 .byte   W06
 .byte   N72 ,Bn0
 .byte   TIE ,Dn1
 .byte   W12
 .byte   N12 ,Ds0 ,v052
 .byte   W12
@  #09 @019   ----------------------------------------
 .byte   N12
 .byte   W12
 .byte   N12
 .byte   W12
 .byte   N12
 .byte   W12
 .byte   N24
 .byte   W12
 .byte   N72 ,Bn0 ,v080
 .byte   W12
 .byte   N12 ,Ds0 ,v052
 .byte   W12
 .byte   N12
 .byte   W12
 .byte   N12
 .byte   W12
@  #09 @020   ----------------------------------------
 .byte   N12
 .byte   W12
 .byte   N24
 .byte   W12
 .byte   N36 ,Bn0 ,v080
 .byte   W12
 .byte   N12 ,Ds0 ,v052
 .byte   W12
 .byte   N12
 .byte   W12
 .byte   N12
 .byte   N36 ,Bn0 ,v080
 .byte   W12
 .byte   N12 ,Ds0 ,v052
 .byte   W12
 .byte   N24
 .byte   W12
@  #09 @021   ----------------------------------------
Label_011614B7:
 .byte   N72 ,Bn0 ,v080
 .byte   W12
 .byte   N12 ,Ds0 ,v052
 .byte   W12
 .byte   N12
 .byte   W12
 .byte   N12
 .byte   W12
 .byte   N12
 .byte   W12
 .byte   N24
 .byte   W12
 .byte   PEND 
Label_011614C8:
 .byte   TIE ,Bn0 ,v080
 .byte   W12
 .byte   N12 ,Ds0 ,v052
 .byte   W12
@  #09 @022   ----------------------------------------
 .byte   N24
 .byte   W12
 .byte   PEND 
 .byte   EOT
 .byte   Dn1
 .byte   TIE ,Dn1 ,v080
 .byte   W12
 .byte   N12 ,Ds0 ,v052
 .byte   W12
 .byte   N12
 .byte   W12
 .byte   N12
 .byte   W12
 .byte   N12
 .byte   W12
 .byte   N24
 .byte   W12
 .byte   EOT
 .byte   Bn0
@  #09 @023   ----------------------------------------
 .byte   PATT
  .word Label_011614C8
@  #09 @024   ----------------------------------------
 .byte   EOT
 .byte   Dn1
 .byte   TIE ,Dn1 ,v080
 .byte   W12
 .byte   N12 ,Ds0 ,v052
 .byte   W12
 .byte   N12
 .byte   W12
 .byte   N12
 .byte   W12
 .byte   N12
 .byte   W12
 .byte   TIE
 .byte   W12
 .byte   W72
@  #09 @025   ----------------------------------------
 .byte   W72
 .byte   W72
@  #09 @026   ----------------------------------------
 .byte   W72
 .byte   W72
@  #09 @027   ----------------------------------------
 .byte   W72
 .byte   W72
@  #09 @028   ----------------------------------------
 .byte   W72
 .byte   W54
@  #09 @029   ----------------------------------------
 .byte   En1 ,v080
 .byte   W06
 .byte   EOT
 .byte   Dn1
 .byte   N48
 .byte   W12
 .byte   N72 ,Cn1 ,v096
 .byte   W12
 .byte   EOT
 .byte   Ds0
 .byte   N12 ,Ds0 ,v052
 .byte   W12
 .byte   N24
 .byte   W12
 .byte   N72 ,Dn1 ,v096
 .byte   W12
 .byte   N12 ,Ds0 ,v052
 .byte   W12
 .byte   N24
 .byte   W12
Label_01161524:
 .byte   N72 ,Cn1 ,v096
 .byte   W12
@  #09 @030   ----------------------------------------
 .byte   N12 ,Ds0 ,v052
 .byte   W12
 .byte   N12
 .byte   W12
 .byte   N12
 .byte   N24 ,Dn1 ,v096
 .byte   W12
 .byte   N12 ,Ds0 ,v052
 .byte   W06
 .byte   PEND 
 .byte   EOT
 .byte   En1
 .byte   TIE ,En1 ,v096
 .byte   W06
 .byte   N24 ,Ds0 ,v052
 .byte   N48 ,Dn1 ,v096
 .byte   W12
Label_01161545:
 .byte   N72 ,Cn1 ,v096
 .byte   W12
 .byte   N12 ,Ds0 ,v052
 .byte   W12
 .byte   N24
 .byte   W12
@  #09 @031   ----------------------------------------
 .byte   N72 ,Dn1 ,v096
 .byte   W12
 .byte   N12 ,Ds0 ,v052
 .byte   W12
 .byte   N24
 .byte   W12
 .byte   PEND 
Label_0116155A:
 .byte   N72 ,Cn1 ,v096
 .byte   W12
 .byte   N12 ,Ds0 ,v052
 .byte   W12
 .byte   PEND 
 .byte   EOT
 .byte   Bn0
 .byte   N12 ,Ds0
 .byte   N12 ,Bn0 ,v096
 .byte   W12
 .byte   Ds0 ,v052
 .byte   TIE ,Bn0 ,v096
 .byte   N18 ,Dn1
 .byte   W12
 .byte   N12 ,Ds0 ,v052
 .byte   W06
 .byte   Dn1 ,v096
 .byte   W06
@  #09 @032   ----------------------------------------
 .byte   N24 ,Ds0 ,v052
 .byte   W06
 .byte   N42 ,Dn1 ,v096
 .byte   W06
@  #09 @033   ----------------------------------------
 .byte   PATT
  .word Label_01161545
@  #09 @034   ----------------------------------------
 .byte   PATT
  .word Label_01161524
@  #09 @035   ----------------------------------------
 .byte   EOT
 .byte   En1
 .byte   TIE ,En1 ,v096
 .byte   W06
 .byte   N24 ,Ds0 ,v052
 .byte   N48 ,Dn1 ,v096
 .byte   W12
@  #09 @036   ----------------------------------------
 .byte   PATT
  .word Label_01161545
@  #09 @037   ----------------------------------------
 .byte   PATT
  .word Label_0116155A
@  #09 @038   ----------------------------------------
 .byte   EOT
 .byte   Bn0
 .byte   N12 ,Ds0 ,v052
 .byte   N12 ,Bn0 ,v096
 .byte   W12
 .byte   Ds0 ,v052
 .byte   TIE ,Bn0 ,v096
 .byte   N18 ,Dn1
 .byte   W12
 .byte   N12 ,Ds0 ,v052
 .byte   W06
 .byte   Dn1 ,v096
 .byte   W06
 .byte   N24 ,Ds0 ,v052
 .byte   W06
 .byte   N42 ,Dn1 ,v096
 .byte   W06
Label_011615C3:
 .byte   N72 ,Cn1 ,v080
 .byte   TIE ,Cs2
 .byte   W12
 .byte   N12 ,Ds0 ,v052
 .byte   W12
 .byte   N24
 .byte   W12
 .byte   N72 ,Dn1 ,v080
 .byte   W12
@  #09 @039   ----------------------------------------
 .byte   N12 ,Ds0 ,v052
 .byte   W12
 .byte   N24
 .byte   W12
 .byte   PEND 
Label_011615DA:
 .byte   N72 ,Cn1 ,v080
 .byte   W12
 .byte   N12 ,Ds0 ,v052
 .byte   W12
 .byte   N12
 .byte   W12
 .byte   N12
 .byte   N24 ,Dn1 ,v080
 .byte   W12
 .byte   N12 ,Ds0 ,v052
 .byte   W06
 .byte   PEND 
 .byte   EOT
 .byte   En1
 .byte   TIE ,En1 ,v080
 .byte   W06
 .byte   N24 ,Ds0 ,v052
 .byte   N48 ,Dn1 ,v080
 .byte   W12
@  #09 @040   ----------------------------------------
Label_011615FB:
 .byte   N72 ,Cn1 ,v080
 .byte   W12
 .byte   N12 ,Ds0 ,v052
 .byte   W12
 .byte   N24
 .byte   W12
 .byte   N72 ,Dn1 ,v080
 .byte   W12
 .byte   N12 ,Ds0 ,v052
 .byte   W12
 .byte   N24
 .byte   W12
 .byte   PEND 
 .byte   TIE ,Cn1 ,v080
 .byte   W12
 .byte   N12 ,Ds0 ,v052
 .byte   W12
@  #09 @041   ----------------------------------------
 .byte   EOT
 .byte   Bn0
 .byte   N12 ,Ds0
 .byte   N12 ,Bn0 ,v080
 .byte   W12
 .byte   Ds0 ,v052
 .byte   TIE ,Bn0 ,v080
 .byte   N18 ,Dn1
 .byte   W12
 .byte   N12 ,Ds0 ,v052
 .byte   W06
 .byte   Dn1 ,v080
 .byte   W06
 .byte   TIE ,Ds0 ,v052
 .byte   W06
 .byte   Dn1 ,v080
 .byte   W06
 .byte   EOT
 .byte   Cs2
Label_01161638:
 .byte   TIE ,Cs2 ,v080
 .byte   W72
 .byte   PEND 
@  #09 @042   ----------------------------------------
 .byte   W72
 .byte   W72
@  #09 @043   ----------------------------------------
 .byte   W72
 .byte   EOT
 .byte   Bn0
 .byte   N72
 .byte   W12
 .byte   EOT
 .byte   Ds0
 .byte   N12 ,Ds0 ,v052
 .byte   W12
@  #09 @044   ----------------------------------------
 .byte   N12
 .byte   W12
 .byte   EOT
 .byte   Dn1
 .byte   N12 ,Ds0
 .byte   N72 ,Dn1 ,v080
 .byte   W12
 .byte   N12 ,Ds0 ,v052
 .byte   W12
 .byte   N24
 .byte   W12
Label_0116165A:
 .byte   N72 ,Bn0 ,v080
 .byte   W12
 .byte   N12 ,Ds0 ,v052
 .byte   W12
 .byte   N12
 .byte   W12
 .byte   N12
 .byte   N30 ,Dn1 ,v080
 .byte   W12
@  #09 @045   ----------------------------------------
 .byte   N12 ,Ds0 ,v052
 .byte   W12
 .byte   N24
 .byte   W06
 .byte   N42 ,Dn1 ,v080
 .byte   W06
 .byte   PEND 
Label_01161674:
 .byte   N72 ,Bn0 ,v080
 .byte   W12
 .byte   N12 ,Ds0 ,v052
 .byte   W12
 .byte   N12
 .byte   W12
 .byte   N12
 .byte   N72 ,Dn1 ,v080
 .byte   W12
 .byte   N12 ,Ds0 ,v052
 .byte   W12
 .byte   N24
 .byte   W12
 .byte   PEND 
@  #09 @046   ----------------------------------------
 .byte   PATT
  .word Label_01161674
@  #09 @047   ----------------------------------------
Label_0116168F:
 .byte   N72 ,Bn0 ,v080
 .byte   W12
 .byte   N12 ,Ds0 ,v052
 .byte   W12
 .byte   N12
 .byte   W12
 .byte   N12
 .byte   N24 ,Dn1 ,v080
 .byte   W12
 .byte   N12 ,Ds0 ,v052
 .byte   W12
 .byte   N24
 .byte   N48 ,Dn1 ,v080
 .byte   W12
 .byte   PEND 
Label_011616A8:
 .byte   N72 ,Bn0 ,v080
 .byte   W12
 .byte   N12 ,Ds0 ,v052
 .byte   W12
@  #09 @048   ----------------------------------------
 .byte   N12
 .byte   W12
 .byte   N12
 .byte   N18 ,Dn1 ,v080
 .byte   W12
 .byte   N12 ,Ds0 ,v052
 .byte   W06
 .byte   N06 ,Dn1 ,v080
 .byte   W06
 .byte   N24 ,Ds0 ,v052
 .byte   N48 ,Dn1 ,v080
 .byte   W12
 .byte   PEND 
 .byte   EOT
 .byte   Cs2
 .byte   N72 ,Bn0
 .byte   TIE ,Cs2
 .byte   W12
 .byte   N12 ,Ds0 ,v052
 .byte   W12
 .byte   N12
 .byte   W12
 .byte   N12
 .byte   N72 ,Dn1 ,v080
 .byte   W12
@  #09 @049   ----------------------------------------
 .byte   N12 ,Ds0 ,v052
 .byte   W12
 .byte   N12
 .byte   W12
Label_011616DF:
 .byte   N12 ,Ds0 ,v052
 .byte   N72 ,Bn0 ,v080
 .byte   W12
 .byte   N12 ,Ds0 ,v052
 .byte   W12
 .byte   N12
 .byte   W12
 .byte   N12
 .byte   N30 ,Dn1 ,v080
 .byte   W12
 .byte   N12 ,Ds0 ,v052
 .byte   W12
 .byte   N24
 .byte   W06
 .byte   N42 ,Dn1 ,v080
 .byte   W06
 .byte   PEND 
@  #09 @050   ----------------------------------------
Label_011616FC:
 .byte   N72 ,Bn0 ,v080
 .byte   W12
 .byte   N12 ,Ds0 ,v052
 .byte   W12
 .byte   N12
 .byte   W12
 .byte   N12
 .byte   N96 ,Dn1 ,v080
 .byte   W12
 .byte   N12 ,Ds0 ,v052
 .byte   W12
 .byte   N12
 .byte   W12
 .byte   PEND 
Label_01161712:
 .byte   N12 ,Ds0 ,v052
 .byte   N36 ,Bn0 ,v080
 .byte   W12
 .byte   N12 ,Ds0 ,v052
 .byte   W12
@  #09 @051   ----------------------------------------
 .byte   N12
 .byte   W12
 .byte   N12
 .byte   N36 ,Bn0 ,v080
 .byte   W12
 .byte   N12 ,Ds0 ,v052
 .byte   W12
 .byte   N24
 .byte   N06 ,Dn1 ,v080
 .byte   W06
 .byte   N42
 .byte   W06
 .byte   PEND 
Label_01161730:
 .byte   N72 ,Bn0 ,v080
 .byte   W12
 .byte   N12 ,Ds0 ,v052
 .byte   W12
 .byte   N12
 .byte   W12
 .byte   N12
 .byte   N72 ,Dn1 ,v080
 .byte   W12
@  #09 @052   ----------------------------------------
 .byte   N12 ,Ds0 ,v052
 .byte   W12
 .byte   N12
 .byte   W12
 .byte   PEND 
@  #09 @053   ----------------------------------------
 .byte   PATT
  .word Label_011616DF
@  #09 @054   ----------------------------------------
Label_0116174B:
 .byte   N72 ,Bn0 ,v080
 .byte   W12
 .byte   N12 ,Ds0 ,v052
 .byte   W12
 .byte   N12
 .byte   W12
 .byte   N12
 .byte   N24 ,Dn1 ,v080
 .byte   W12
 .byte   N12 ,Ds0 ,v052
 .byte   W12
 .byte   N12
 .byte   N12 ,Dn1 ,v080
 .byte   W12
 .byte   PEND 
 .byte   Ds0 ,v052
 .byte   TIE ,Bn0 ,v080
 .byte   TIE ,Dn1
 .byte   W01
 .byte   W02
 .byte   W02
 .byte   W02
 .byte   W02
 .byte   W01
 .byte   W02
 .byte   N12 ,Ds0 ,v044
 .byte   W02
 .byte   W02
 .byte   W02
 .byte   W02
 .byte   W01
 .byte   W02
 .byte   W01
@  #09 @055   ----------------------------------------
 .byte   Ds0 ,v036
 .byte   W01
 .byte   W02
 .byte   W02
 .byte   W01
 .byte   W02
 .byte   W02
 .byte   W02
 .byte   Ds0 ,v032
 .byte   W02
 .byte   W02
 .byte   W01
 .byte   W02
 .byte   W02
 .byte   W02
 .byte   W01
 .byte   Ds0 ,v024
 .byte   W01
 .byte   W01
 .byte   W02
 .byte   W02
 .byte   W02
 .byte   W02
 .byte   W02
 .byte   TIE ,Ds0 ,v016
 .byte   W12
 .byte   W72
@  #09 @056   ----------------------------------------
 .byte   W72
 .byte   W72
@  #09 @057   ----------------------------------------
 .byte   W72
 .byte   W72
@  #09 @058   ----------------------------------------
 .byte   W72
 .byte   W72
@  #09 @059   ----------------------------------------
 .byte   W72
 .byte   W72
@  #09 @060   ----------------------------------------
 .byte   W72
 .byte   W72
@  #09 @061   ----------------------------------------
 .byte   W72
 .byte   W72
@  #09 @062   ----------------------------------------
 .byte   W72
 .byte   W72
@  #09 @063   ----------------------------------------
 .byte   W72
 .byte   W48
@  #09 @064   ----------------------------------------
 .byte   GOTO
  .word Label_011613F5
@  #09 @065   ----------------------------------------
 .byte   W06
 .byte   EOT
 .byte   Dn1
 .byte   N54 ,Dn1 ,v080
 .byte   W06
 .byte   EOT
 .byte   Bn0
 .byte   N12
 .byte   W12
 .byte   N72
 .byte   W12
 .byte   EOT
 .byte   Ds0
 .byte   N12 ,Ds0 ,v052
 .byte   W12
 .byte   N24
 .byte   W12
 .byte   N72 ,Dn1 ,v080
 .byte   W12
 .byte   N12 ,Ds0 ,v052
 .byte   W12
 .byte   N24
 .byte   W12
@  #09 @066   ----------------------------------------
Label_011617D0:
 .byte   N72 ,Bn0 ,v080
 .byte   W12
 .byte   N12 ,Ds0 ,v052
 .byte   W12
 .byte   N24
 .byte   W12
 .byte   N72 ,Dn1 ,v080
 .byte   W12
 .byte   N12 ,Ds0 ,v052
 .byte   W12
 .byte   N24
 .byte   W12
 .byte   PEND 
@  #09 @067   ----------------------------------------
 .byte   PATT
  .word Label_011617D0
@  #09 @068   ----------------------------------------
 .byte   N24 ,Bn0 ,v080
 .byte   W12
 .byte   N12 ,Ds0 ,v052
 .byte   W12
 .byte   N24
 .byte   N48 ,Bn0 ,v080
 .byte   W12
 .byte   N24 ,Dn1
 .byte   W12
 .byte   N12 ,Ds0 ,v052
 .byte   W12
 .byte   N24
 .byte   N48 ,Dn1 ,v080
 .byte   W12
@  #09 @069   ----------------------------------------
 .byte   PATT
  .word Label_011617D0
@  #09 @070   ----------------------------------------
 .byte   PATT
  .word Label_011617D0
@  #09 @071   ----------------------------------------
 .byte   PATT
  .word Label_011617D0
@  #09 @072   ----------------------------------------
 .byte   N72 ,Bn0 ,v080
 .byte   W12
 .byte   N12 ,Ds0 ,v052
 .byte   W12
 .byte   N24
 .byte   W12
 .byte   N18 ,Dn1 ,v080
 .byte   W12
 .byte   N12 ,Ds0 ,v052
 .byte   W06
 .byte   Dn1 ,v080
 .byte   W06
 .byte   N24 ,Ds0 ,v052
 .byte   W06
 .byte   N06 ,Dn1 ,v080
 .byte   W06
 .byte   N72 ,Bn0
 .byte   TIE ,Dn1
 .byte   W12
 .byte   N12 ,Ds0 ,v052
 .byte   W12
@  #09 @073   ----------------------------------------
 .byte   N12
 .byte   W12
 .byte   N12
 .byte   W12
 .byte   N12
 .byte   W12
 .byte   N24
 .byte   W12
@  #09 @074   ----------------------------------------
 .byte   PATT
  .word Label_011614B7
@  #09 @075   ----------------------------------------
 .byte   N36 ,Bn0 ,v080
 .byte   W12
 .byte   N12 ,Ds0 ,v052
 .byte   W12
 .byte   N12
 .byte   W12
 .byte   N12
 .byte   N36 ,Bn0 ,v080
 .byte   W12
 .byte   N12 ,Ds0 ,v052
 .byte   W12
 .byte   N24
 .byte   W12
@  #09 @076   ----------------------------------------
 .byte   PATT
  .word Label_011614B7
@  #09 @077   ----------------------------------------
 .byte   PATT
  .word Label_011614C8
@  #09 @078   ----------------------------------------
 .byte   EOT
 .byte   Dn1
 .byte   TIE ,Dn1 ,v080
 .byte   W12
 .byte   N12 ,Ds0 ,v052
 .byte   W12
 .byte   N12
 .byte   W12
 .byte   N12
 .byte   W12
 .byte   N12
 .byte   W12
 .byte   N24
 .byte   W12
 .byte   EOT
 .byte   Bn0
@  #09 @079   ----------------------------------------
 .byte   PATT
  .word Label_011614C8
@  #09 @080   ----------------------------------------
 .byte   EOT
 .byte   Dn1
 .byte   TIE ,Dn1 ,v080
 .byte   W12
 .byte   N12 ,Ds0 ,v052
 .byte   W12
 .byte   N12
 .byte   W12
 .byte   N12
 .byte   W12
 .byte   N12
 .byte   W12
 .byte   TIE
 .byte   W12
 .byte   W72
@  #09 @081   ----------------------------------------
 .byte   W72
 .byte   W72
@  #09 @082   ----------------------------------------
 .byte   W72
 .byte   W72
@  #09 @083   ----------------------------------------
 .byte   W72
 .byte   W72
@  #09 @084   ----------------------------------------
 .byte   W72
 .byte   W54
@  #09 @085   ----------------------------------------
 .byte   EOT
 .byte   En1
 .byte   TIE ,En1 ,v080
 .byte   W06
 .byte   EOT
 .byte   Dn1
 .byte   N48
 .byte   W12
 .byte   EOT
 .byte   Cn1
 .byte   N72 ,Cn1 ,v096
 .byte   W12
 .byte   EOT
 .byte   Ds0
 .byte   N12 ,Ds0 ,v052
 .byte   W12
 .byte   N24
 .byte   W12
 .byte   N72 ,Dn1 ,v096
 .byte   W12
 .byte   N12 ,Ds0 ,v052
 .byte   W12
 .byte   N24
 .byte   W12
@  #09 @086   ----------------------------------------
 .byte   PATT
  .word Label_01161524
@  #09 @087   ----------------------------------------
 .byte   EOT
 .byte   En1
 .byte   TIE ,En1 ,v096
 .byte   W06
 .byte   N24 ,Ds0 ,v052
 .byte   N48 ,Dn1 ,v096
 .byte   W12
@  #09 @088   ----------------------------------------
 .byte   PATT
  .word Label_01161545
@  #09 @089   ----------------------------------------
 .byte   PATT
  .word Label_0116155A
@  #09 @090   ----------------------------------------
 .byte   EOT
 .byte   Bn0
 .byte   N12 ,Ds0 ,v052
 .byte   N12 ,Bn0 ,v096
 .byte   W12
 .byte   Ds0 ,v052
 .byte   TIE ,Bn0 ,v096
 .byte   N18 ,Dn1
 .byte   W12
 .byte   N12 ,Ds0 ,v052
 .byte   W06
 .byte   Dn1 ,v096
 .byte   W06
 .byte   N24 ,Ds0 ,v052
 .byte   W06
 .byte   N42 ,Dn1 ,v096
 .byte   W06
@  #09 @091   ----------------------------------------
 .byte   PATT
  .word Label_01161545
@  #09 @092   ----------------------------------------
 .byte   PATT
  .word Label_01161524
@  #09 @093   ----------------------------------------
 .byte   EOT
 .byte   En1
 .byte   TIE ,En1 ,v096
 .byte   W06
 .byte   N24 ,Ds0 ,v052
 .byte   N48 ,Dn1 ,v096
 .byte   W12
@  #09 @094   ----------------------------------------
 .byte   PATT
  .word Label_01161545
@  #09 @095   ----------------------------------------
 .byte   PATT
  .word Label_0116155A
@  #09 @096   ----------------------------------------
 .byte   EOT
 .byte   Bn0
 .byte   N12 ,Ds0 ,v052
 .byte   N12 ,Bn0 ,v096
 .byte   W12
 .byte   Ds0 ,v052
 .byte   TIE ,Bn0 ,v096
 .byte   N18 ,Dn1
 .byte   W12
 .byte   N12 ,Ds0 ,v052
 .byte   W06
 .byte   Dn1 ,v096
 .byte   W06
 .byte   N24 ,Ds0 ,v052
 .byte   W06
 .byte   N42 ,Dn1 ,v096
 .byte   W06
 .byte   EOT
 .byte   Cs2
@  #09 @097   ----------------------------------------
 .byte   PATT
  .word Label_011615C3
@  #09 @098   ----------------------------------------
 .byte   PATT
  .word Label_011615DA
@  #09 @099   ----------------------------------------
 .byte   EOT
 .byte   En1
 .byte   W06
 .byte   N24 ,Ds0 ,v052
 .byte   N48 ,Dn1 ,v080
 .byte   W12
@  #09 @100   ----------------------------------------
 .byte   PATT
  .word Label_011615FB
@  #09 @101   ----------------------------------------
 .byte   W12
 .byte   N12 ,Ds0 ,v052
 .byte   W12
 .byte   EOT
 .byte   Bn0
 .byte   N12 ,Ds0
 .byte   N12 ,Bn0 ,v080
 .byte   W12
 .byte   Ds0 ,v052
 .byte   TIE ,Bn0 ,v080
 .byte   N18 ,Dn1
 .byte   W12
 .byte   N12 ,Ds0 ,v052
 .byte   W06
 .byte   Dn1 ,v080
 .byte   W06
 .byte   TIE ,Ds0 ,v052
 .byte   W06
 .byte   Dn1 ,v080
 .byte   W06
 .byte   EOT
 .byte   Cs2
@  #09 @102   ----------------------------------------
 .byte   PATT
  .word Label_01161638
@  #09 @103   ----------------------------------------
 .byte   W72
 .byte   W72
@  #09 @104   ----------------------------------------
 .byte   W72
 .byte   EOT
 .byte   Bn0
 .byte   N72 ,Bn0 ,v080
 .byte   W12
 .byte   EOT
 .byte   Ds0
 .byte   N12 ,Ds0 ,v052
 .byte   W12
@  #09 @105   ----------------------------------------
 .byte   N12
 .byte   W12
 .byte   EOT
 .byte   Dn1
 .byte   N12 ,Ds0
 .byte   N72 ,Dn1 ,v080
 .byte   W12
 .byte   N12 ,Ds0 ,v052
 .byte   W12
 .byte   N24
 .byte   W12
@  #09 @106   ----------------------------------------
 .byte   PATT
  .word Label_0116165A
@  #09 @107   ----------------------------------------
 .byte   PATT
  .word Label_01161674
@  #09 @108   ----------------------------------------
 .byte   PATT
  .word Label_01161674
@  #09 @109   ----------------------------------------
 .byte   PATT
  .word Label_0116168F
@  #09 @110   ----------------------------------------
 .byte   PATT
  .word Label_011616A8
@  #09 @111   ----------------------------------------
 .byte   EOT
 .byte   Cs2
@  #09 @112   ----------------------------------------
 .byte   PATT
  .word Label_01161730
@  #09 @113   ----------------------------------------
 .byte   PATT
  .word Label_011616DF
@  #09 @114   ----------------------------------------
 .byte   PATT
  .word Label_011616FC
@  #09 @115   ----------------------------------------
 .byte   PATT
  .word Label_01161712
@  #09 @116   ----------------------------------------
 .byte   PATT
  .word Label_01161730
@  #09 @117   ----------------------------------------
 .byte   PATT
  .word Label_011616DF
@  #09 @118   ----------------------------------------
 .byte   PATT
  .word Label_0116174B
@  #09 @119   ----------------------------------------
 .byte   N12 ,Ds0 ,v052
 .byte   W01
 .byte   W02
 .byte   W02
 .byte   W02
 .byte   W02
 .byte   W01
 .byte   W02
 .byte   Ds0 ,v044
 .byte   W02
 .byte   W02
 .byte   W02
 .byte   W02
 .byte   W01
 .byte   W02
 .byte   W01
 .byte   Ds0 ,v036
 .byte   W01
 .byte   W02
 .byte   W02
 .byte   W01
 .byte   W02
 .byte   W02
 .byte   W02
 .byte   Ds0 ,v032
 .byte   W02
 .byte   W02
 .byte   W01
 .byte   W02
 .byte   W02
 .byte   W02
 .byte   W01
 .byte   Ds0 ,v024
 .byte   W01
 .byte   W01
 .byte   W02
 .byte   W02
 .byte   W02
 .byte   W02
 .byte   W02
 .byte   W11
 .byte   FINE

@**************** Track 10 (Midi-Chn.9) ****************@

FireEmblemEngageEnjoytheEveningDivineOneSurfingKyogre1_010:
@  #10 @000   ----------------------------------------
 .byte   KEYSH , FireEmblemEngageEnjoytheEveningDivineOneSurfingKyogre1_key+0
 .byte   VOICE , 46
 .byte   VOL , 42*FireEmblemEngageEnjoytheEveningDivineOneSurfingKyogre1_mvl/mxv
 .byte   PAN , c_v+0
 .byte   VOL , 42*FireEmblemEngageEnjoytheEveningDivineOneSurfingKyogre1_mvl/mxv
 .byte   PAN , c_v+0
 .byte   W96
@  #10 @001   ----------------------------------------
 .byte   W96
@  #10 @002   ----------------------------------------
 .byte   W96
@  #10 @003   ----------------------------------------
 .byte   N68 ,Fs2 ,v096
 .byte   W72
 .byte   Gs2
 .byte   W24
@  #10 @004   ----------------------------------------
 .byte   W48
 .byte   As2
 .byte   W48
@  #10 @005   ----------------------------------------
 .byte   W24
 .byte   Gs2
 .byte   W72
@  #10 @006   ----------------------------------------
 .byte   Fs2 ,v080
 .byte   W72
 .byte   Gs2
 .byte   W24
@  #10 @007   ----------------------------------------
 .byte   W48
 .byte   Ds3
 .byte   W48
@  #10 @008   ----------------------------------------
 .byte   W24
 .byte   Cs3
 .byte   W72
@  #10 @009   ----------------------------------------
 .byte   N68
 .byte   W72
 .byte   An2
 .byte   W24
@  #10 @010   ----------------------------------------
 .byte   W48
 .byte   N32 ,Fs2
 .byte   W36
 .byte   Gs2
 .byte   W12
@  #10 @011   ----------------------------------------
 .byte   W24
 .byte   TIE ,Fn2
 .byte   W72
@  #10 @012   ----------------------------------------
Label_0116301C:
 .byte   W32
 .byte   W03
 .byte   PEND 
 .byte   EOT
 .byte   Fn2
 .byte   W13
Label_01163022:
 .byte   W24
 .byte   N68 ,Fs2 ,v112
 .byte   W24
@  #10 @013   ----------------------------------------
 .byte   W48
 .byte   Gs2
 .byte   W48
@  #10 @014   ----------------------------------------
 .byte   W24
 .byte   N32 ,As2
 .byte   W36
 .byte   Gs2
 .byte   W36
@  #10 @015   ----------------------------------------
 .byte   N68
 .byte   W72
 .byte   As2
 .byte   W24
@  #10 @016   ----------------------------------------
 .byte   W48
 .byte   N32 ,Cn3
 .byte   W36
 .byte   Gs2
 .byte   W12
@  #10 @017   ----------------------------------------
 .byte   W24
 .byte   N68 ,Fs2
 .byte   W72
@  #10 @018   ----------------------------------------
 .byte   Fn2
 .byte   W96
@  #10 @019   ----------------------------------------
 .byte   W12
 .byte   N32 ,Cs3
 .byte   W36
 .byte   N68 ,Ds3
 .byte   W48
@  #10 @020   ----------------------------------------
 .byte   W24
 .byte   N32 ,As2
 .byte   W36
 .byte   Cn3
 .byte   W36
@  #10 @021   ----------------------------------------
Label_0116304D:
 .byte   N32 ,Fn2 ,v112
 .byte   W72
 .byte   PEND 
Label_01163052:
 .byte   W72
@  #10 @022   ----------------------------------------
 .byte   N32 ,Fn3 ,v112
 .byte   W36
 .byte   PEND 
Label_01163058:
 .byte   N68 ,En3 ,v112
 .byte   W96
@  #10 @023   ----------------------------------------
 .byte   W12
 .byte   PEND 
 .byte   W72
Label_0116305F:
 .byte   N68 ,As2 ,v096
 .byte   W72
 .byte   PEND 
@  #10 @024   ----------------------------------------
Label_01163064:
 .byte   N68 ,Cn3 ,v096
 .byte   W72
 .byte   PEND 
Label_01163069:
 .byte   W36
@  #10 @025   ----------------------------------------
 .byte   N32 ,As2 ,v096
 .byte   W36
 .byte   PEND 
Label_0116306F:
 .byte   N32 ,Cn3 ,v096
 .byte   W36
 .byte   Fn3
 .byte   W36
 .byte   PEND 
@  #10 @026   ----------------------------------------
Label_01163076:
 .byte   N68 ,Cs3 ,v096
 .byte   W72
 .byte   PEND 
Label_0116307B:
 .byte   TIE ,Cs3 ,v096
 .byte   W72
 .byte   PEND 
@  #10 @027   ----------------------------------------
Label_01163080:
 .byte   W32
 .byte   W03
 .byte   PEND 
 .byte   EOT
 .byte   Cs3
 .byte   W36
 .byte   W01
Label_01163087:
 .byte   N32 ,Gs2 ,v112
 .byte   W36
@  #10 @028   ----------------------------------------
 .byte   Gs3
 .byte   W36
 .byte   PEND 
Label_0116308E:
 .byte   N11 ,Gs2 ,v112
 .byte   W12
 .byte   N11
 .byte   W24
 .byte   N11
 .byte   W24
@  #10 @029   ----------------------------------------
 .byte   N11
 .byte   W12
 .byte   PEND 
Label_01163099:
 .byte   N11 ,As2 ,v112
 .byte   W12
 .byte   N11
 .byte   W24
 .byte   N11
 .byte   W24
 .byte   N11
 .byte   W12
 .byte   PEND 
Label_011630A4:
 .byte   N11 ,Cn3 ,v112
 .byte   W12
@  #10 @030   ----------------------------------------
 .byte   N11
 .byte   W24
 .byte   N11
 .byte   W24
 .byte   N11
 .byte   W12
 .byte   PEND 
Label_011630AF:
 .byte   N11 ,Cs3 ,v112
 .byte   W12
 .byte   N11
 .byte   W24
@  #10 @031   ----------------------------------------
 .byte   N11
 .byte   W24
 .byte   N11
 .byte   W12
 .byte   PEND 
@  #10 @032   ----------------------------------------
 .byte   PATT
  .word Label_0116308E
@  #10 @033   ----------------------------------------
 .byte   PATT
  .word Label_01163099
@  #10 @034   ----------------------------------------
 .byte   PATT
  .word Label_011630A4
@  #10 @035   ----------------------------------------
 .byte   PATT
  .word Label_011630AF
@  #10 @036   ----------------------------------------
 .byte   W72
 .byte   W72
@  #10 @037   ----------------------------------------
 .byte   W72
 .byte   W72
@  #10 @038   ----------------------------------------
Label_011630D2:
 .byte   TIE ,Cs3 ,v064
 .byte   W72
 .byte   PEND 
Label_011630D7:
 .byte   W68
@  #10 @039   ----------------------------------------
 .byte   W03
 .byte   PEND 
 .byte   EOT
 .byte   Cs3
 .byte   W01
Label_011630DD:
 .byte   TIE ,Bn2 ,v064
 .byte   W72
 .byte   PEND 
@  #10 @040   ----------------------------------------
 .byte   PATT
  .word Label_011630D7
@  #10 @041   ----------------------------------------
 .byte   EOT
 .byte   Bn2
 .byte   W01
Label_011630EA:
 .byte   N32 ,Fs2 ,v096
 .byte   W36
 .byte   Gs2
 .byte   W36
 .byte   PEND 
Label_011630F1:
 .byte   N68 ,Gs2 ,v096
 .byte   W72
 .byte   PEND 
@  #10 @042   ----------------------------------------
Label_011630F6:
 .byte   W36
 .byte   N32 ,Fs2 ,v096
 .byte   W36
 .byte   PEND 
Label_011630FC:
 .byte   N32 ,Gs2 ,v096
 .byte   W36
@  #10 @043   ----------------------------------------
 .byte   Fn2
 .byte   W36
 .byte   PEND 
Label_01163103:
 .byte   N68 ,Ds2 ,v096
 .byte   W72
 .byte   PEND 
@  #10 @044   ----------------------------------------
Label_01163108:
 .byte   N68 ,Cs2 ,v096
 .byte   W72
 .byte   PEND 
Label_0116310D:
 .byte   TIE ,Fn2 ,v096
 .byte   W72
 .byte   PEND 
@  #10 @045   ----------------------------------------
Label_01163112:
 .byte   W68
 .byte   W03
 .byte   PEND 
 .byte   EOT
 .byte   Fn2
 .byte   W01
Label_01163118:
 .byte   TIE ,Ds2 ,v096
 .byte   W72
 .byte   PEND 
@  #10 @046   ----------------------------------------
 .byte   PATT
  .word Label_01163080
@  #10 @047   ----------------------------------------
 .byte   EOT
 .byte   Ds2
 .byte   W01
 .byte   N32 ,Ds2 ,v096
 .byte   W36
Label_01163129:
 .byte   TIE ,Gs2 ,v096
 .byte   W72
 .byte   PEND 
@  #10 @048   ----------------------------------------
 .byte   W72
@  #10 @049   ----------------------------------------
 .byte   PATT
  .word Label_01163112
@  #10 @050   ----------------------------------------
 .byte   EOT
 .byte   Gs2
 .byte   W01
 .byte   W72
 .byte   W72
@  #10 @051   ----------------------------------------
 .byte   W72
 .byte   W72
@  #10 @052   ----------------------------------------
 .byte   W72
 .byte   N68 ,Fs2 ,v096
 .byte   W72
@  #10 @053   ----------------------------------------
 .byte   PATT
  .word Label_011630F1
@  #10 @054   ----------------------------------------
 .byte   PATT
  .word Label_0116305F
@  #10 @055   ----------------------------------------
 .byte   PATT
  .word Label_011630F1
@  #10 @056   ----------------------------------------
 .byte   N68 ,Fs2 ,v080
 .byte   W72
 .byte   Gs2
 .byte   W72
@  #10 @057   ----------------------------------------
 .byte   Ds3
 .byte   W72
Label_01163157:
 .byte   N68 ,Cs3 ,v080
 .byte   W72
 .byte   PEND 
@  #10 @058   ----------------------------------------
 .byte   PATT
  .word Label_01163157
@  #10 @059   ----------------------------------------
 .byte   N68 ,An2 ,v080
 .byte   W72
 .byte   N32 ,Fs2
 .byte   W36
@  #10 @060   ----------------------------------------
 .byte   Gs2
 .byte   W36
 .byte   TIE ,Fn2
 .byte   W72
@  #10 @061   ----------------------------------------
 .byte   PATT
  .word Label_0116301C
@  #10 @062   ----------------------------------------
 .byte   EOT
 .byte   Fn2
 .byte   W13
 .byte   GOTO
  .word Label_01163022
@  #10 @063   ----------------------------------------
 .byte   W24
Label_0116317B:
 .byte   N68 ,Fs2 ,v112
 .byte   W72
 .byte   PEND 
@  #10 @064   ----------------------------------------
Label_01163180:
 .byte   N68 ,Gs2 ,v112
 .byte   W72
 .byte   PEND 
 .byte   N32 ,As2
 .byte   W36
@  #10 @065   ----------------------------------------
 .byte   Gs2
 .byte   W36
@  #10 @066   ----------------------------------------
 .byte   PATT
  .word Label_01163180
@  #10 @067   ----------------------------------------
 .byte   N68 ,As2 ,v112
 .byte   W72
 .byte   N32 ,Cn3
 .byte   W36
@  #10 @068   ----------------------------------------
 .byte   Gs2
 .byte   W36
@  #10 @069   ----------------------------------------
 .byte   PATT
  .word Label_0116317B
@  #10 @070   ----------------------------------------
 .byte   N68 ,Fn2 ,v112
 .byte   W72
 .byte   W36
@  #10 @071   ----------------------------------------
 .byte   N32 ,Cs3
 .byte   W36
 .byte   N68 ,Ds3
 .byte   W72
@  #10 @072   ----------------------------------------
 .byte   N32 ,As2
 .byte   W36
 .byte   Cn3
 .byte   W36
@  #10 @073   ----------------------------------------
 .byte   PATT
  .word Label_0116304D
@  #10 @074   ----------------------------------------
 .byte   PATT
  .word Label_01163052
@  #10 @075   ----------------------------------------
 .byte   PATT
  .word Label_01163058
@  #10 @076   ----------------------------------------
 .byte   W72
@  #10 @077   ----------------------------------------
 .byte   PATT
  .word Label_0116305F
@  #10 @078   ----------------------------------------
 .byte   PATT
  .word Label_01163064
@  #10 @079   ----------------------------------------
 .byte   PATT
  .word Label_01163069
@  #10 @080   ----------------------------------------
 .byte   PATT
  .word Label_0116306F
@  #10 @081   ----------------------------------------
 .byte   PATT
  .word Label_01163076
@  #10 @082   ----------------------------------------
 .byte   PATT
  .word Label_0116307B
@  #10 @083   ----------------------------------------
 .byte   PATT
  .word Label_01163080
@  #10 @084   ----------------------------------------
 .byte   EOT
 .byte   Cs3
 .byte   W36
 .byte   W01
@  #10 @085   ----------------------------------------
 .byte   PATT
  .word Label_01163087
@  #10 @086   ----------------------------------------
 .byte   PATT
  .word Label_0116308E
@  #10 @087   ----------------------------------------
 .byte   PATT
  .word Label_01163099
@  #10 @088   ----------------------------------------
 .byte   PATT
  .word Label_011630A4
@  #10 @089   ----------------------------------------
 .byte   PATT
  .word Label_011630AF
@  #10 @090   ----------------------------------------
 .byte   PATT
  .word Label_0116308E
@  #10 @091   ----------------------------------------
 .byte   PATT
  .word Label_01163099
@  #10 @092   ----------------------------------------
 .byte   PATT
  .word Label_011630A4
@  #10 @093   ----------------------------------------
 .byte   PATT
  .word Label_011630AF
@  #10 @094   ----------------------------------------
 .byte   W72
 .byte   W72
@  #10 @095   ----------------------------------------
 .byte   W72
 .byte   W72
@  #10 @096   ----------------------------------------
 .byte   PATT
  .word Label_011630D2
@  #10 @097   ----------------------------------------
 .byte   PATT
  .word Label_011630D7
@  #10 @098   ----------------------------------------
 .byte   EOT
 .byte   Cs3
 .byte   W01
@  #10 @099   ----------------------------------------
 .byte   PATT
  .word Label_011630DD
@  #10 @100   ----------------------------------------
 .byte   PATT
  .word Label_011630D7
@  #10 @101   ----------------------------------------
 .byte   EOT
 .byte   Bn2
 .byte   W01
@  #10 @102   ----------------------------------------
 .byte   PATT
  .word Label_011630EA
@  #10 @103   ----------------------------------------
 .byte   PATT
  .word Label_011630F1
@  #10 @104   ----------------------------------------
 .byte   PATT
  .word Label_011630F6
@  #10 @105   ----------------------------------------
 .byte   PATT
  .word Label_011630FC
@  #10 @106   ----------------------------------------
 .byte   PATT
  .word Label_01163103
@  #10 @107   ----------------------------------------
 .byte   PATT
  .word Label_01163108
@  #10 @108   ----------------------------------------
 .byte   PATT
  .word Label_0116310D
@  #10 @109   ----------------------------------------
 .byte   PATT
  .word Label_01163112
@  #10 @110   ----------------------------------------
 .byte   EOT
 .byte   Fn2
 .byte   W01
@  #10 @111   ----------------------------------------
 .byte   PATT
  .word Label_01163118
@  #10 @112   ----------------------------------------
 .byte   PATT
  .word Label_01163080
@  #10 @113   ----------------------------------------
 .byte   EOT
 .byte   Ds2
 .byte   W01
 .byte   N32 ,Ds2 ,v096
 .byte   W36
@  #10 @114   ----------------------------------------
 .byte   PATT
  .word Label_01163129
@  #10 @115   ----------------------------------------
 .byte   W72
@  #10 @116   ----------------------------------------
 .byte   PATT
  .word Label_01163112
@  #10 @117   ----------------------------------------
 .byte   EOT
 .byte   Gs2
 .byte   W01
 .byte   W68
 .byte   W03
 .byte   FINE

@**************** Track 11 (Midi-Chn.10) ****************@

FireEmblemEngageEnjoytheEveningDivineOneSurfingKyogre1_011:
@  #11 @000   ----------------------------------------
 .byte   KEYSH , FireEmblemEngageEnjoytheEveningDivineOneSurfingKyogre1_key+0
 .byte   VOICE , 57
 .byte   VOL , 42*FireEmblemEngageEnjoytheEveningDivineOneSurfingKyogre1_mvl/mxv
 .byte   PAN , c_v+0
 .byte   VOL , 42*FireEmblemEngageEnjoytheEveningDivineOneSurfingKyogre1_mvl/mxv
 .byte   PAN , c_v+0
 .byte   W96
@  #11 @001   ----------------------------------------
 .byte   W96
@  #11 @002   ----------------------------------------
 .byte   W96
@  #11 @003   ----------------------------------------
 .byte   W96
@  #11 @004   ----------------------------------------
 .byte   W96
@  #11 @005   ----------------------------------------
 .byte   W96
@  #11 @006   ----------------------------------------
 .byte   W96
@  #11 @007   ----------------------------------------
 .byte   W96
@  #11 @008   ----------------------------------------
 .byte   W96
@  #11 @009   ----------------------------------------
 .byte   W96
@  #11 @010   ----------------------------------------
 .byte   W96
@  #11 @011   ----------------------------------------
 .byte   W96
@  #11 @012   ----------------------------------------
 .byte   W48
Label_01161A25:
 .byte   W24
 .byte   N17 ,As2 ,v080
 .byte   W18
 .byte   N05 ,Cn3
 .byte   W06
@  #11 @013   ----------------------------------------
 .byte   N11 ,Cs3
 .byte   W12
 .byte   N17 ,Ds3
 .byte   W18
 .byte   N05 ,Cs3
 .byte   W06
 .byte   N11 ,Ds3
 .byte   W12
 .byte   N32 ,Gs2
 .byte   W36
 .byte   Cn3
 .byte   W12
@  #11 @014   ----------------------------------------
 .byte   W24
 .byte   Cs3
 .byte   W36
 .byte   N17 ,Fn3
 .byte   W18
 .byte   N05 ,Ds3
 .byte   W06
 .byte   N11 ,Cs3
 .byte   W12
@  #11 @015   ----------------------------------------
 .byte   N56 ,Fn3
 .byte   W36
 .byte   W36
 .byte   N17
 .byte   W18
 .byte   N05 ,Fs3
 .byte   W06
@  #11 @016   ----------------------------------------
 .byte   N11 ,Gs3
 .byte   W12
 .byte   N52 ,Fn3
 .byte   W36
 .byte   W18
 .byte   N05 ,Fs3
 .byte   W06
 .byte   N11 ,Gs3
 .byte   W12
 .byte   N17 ,Fn3
 .byte   W12
@  #11 @017   ----------------------------------------
 .byte   W06
 .byte   N05 ,Ds3
 .byte   W06
 .byte   N11 ,Cs3
 .byte   W12
 .byte   N44 ,Ds3
 .byte   W36
 .byte   W12
 .byte   N11 ,As2
 .byte   W12
 .byte   Ds3
 .byte   W12
@  #11 @018   ----------------------------------------
 .byte   N56 ,Fn3
 .byte   W36
 .byte   W60
@  #11 @019   ----------------------------------------
 .byte   W96
@  #11 @020   ----------------------------------------
 .byte   W96
@  #11 @021   ----------------------------------------
 .byte   W72
 .byte   W96
@  #11 @022   ----------------------------------------
 .byte   W12
 .byte   W96
@  #11 @023   ----------------------------------------
 .byte   W12
Label_01161A7E:
 .byte   N32 ,Fn3 ,v080
 .byte   W36
 .byte   Gs3
 .byte   W36
 .byte   PEND 
Label_01161A85:
 .byte   N68 ,Cs4 ,v080
 .byte   W72
 .byte   PEND 
@  #11 @024   ----------------------------------------
Label_01161A8A:
 .byte   N32 ,Cn4 ,v080
 .byte   W36
 .byte   Ds3
 .byte   W36
 .byte   PEND 
Label_01161A91:
 .byte   N32 ,Gs3 ,v080
 .byte   W36
@  #11 @025   ----------------------------------------
 .byte   Ds3
 .byte   W36
 .byte   PEND 
Label_01161A98:
 .byte   N32 ,Fn3 ,v080
 .byte   W36
 .byte   Cn3
 .byte   W36
 .byte   PEND 
@  #11 @026   ----------------------------------------
Label_01161A9F:
 .byte   TIE ,As2 ,v080
 .byte   W72
 .byte   PEND 
Label_01161AA4:
 .byte   W32
@  #11 @027   ----------------------------------------
 .byte   W03
 .byte   PEND 
 .byte   EOT
 .byte   As2
 .byte   W01
 .byte   N32 ,Fn3 ,v080
 .byte   W36
Label_01161AAE:
 .byte   N32 ,Ds3 ,v080
 .byte   W36
 .byte   Gs2
 .byte   W36
 .byte   PEND 
@  #11 @028   ----------------------------------------
Label_01161AB5:
 .byte   N32 ,Gs2 ,v080
 .byte   W72
 .byte   PEND 
 .byte   W72
@  #11 @029   ----------------------------------------
 .byte   W72
 .byte   W72
@  #11 @030   ----------------------------------------
 .byte   W72
Label_01161ABE:
 .byte   N68 ,Gs2 ,v080
 .byte   W72
 .byte   PEND 
@  #11 @031   ----------------------------------------
Label_01161AC3:
 .byte   N68 ,As2 ,v080
 .byte   W72
 .byte   PEND 
Label_01161AC8:
 .byte   N68 ,Cn3 ,v080
 .byte   W72
 .byte   PEND 
@  #11 @032   ----------------------------------------
Label_01161ACD:
 .byte   N32 ,Cs3 ,v080
 .byte   W36
 .byte   Cs4
 .byte   W36
 .byte   PEND 
Label_01161AD4:
 .byte   N56 ,Fs3 ,v080
 .byte   W36
@  #11 @033   ----------------------------------------
 .byte   W24
 .byte   N11 ,En3
 .byte   W12
 .byte   PEND 
Label_01161ADD:
 .byte   N23 ,Fs3 ,v080
 .byte   W24
 .byte   N11 ,Gs3
 .byte   W24
 .byte   Bn2
 .byte   W12
@  #11 @034   ----------------------------------------
 .byte   Bn3
 .byte   W12
 .byte   PEND 
@  #11 @035   ----------------------------------------
 .byte   PATT
  .word Label_01161AD4
@  #11 @036   ----------------------------------------
Label_01161AEE:
 .byte   N23 ,Fs3 ,v080
 .byte   W24
 .byte   Gn3
 .byte   W12
 .byte   W12
 .byte   An3
 .byte   W24
 .byte   PEND 
Label_01161AF8:
 .byte   TIE ,Bn3 ,v080
 .byte   W04
 .byte   W05
 .byte   W04
 .byte   W05
 .byte   W05
 .byte   W04
@  #11 @037   ----------------------------------------
 .byte   W05
 .byte   W05
 .byte   W04
 .byte   W05
 .byte   W05
 .byte   W04
 .byte   W05
 .byte   W05
 .byte   W04
 .byte   W03
 .byte   PEND 
Label_01161B0C:
 .byte   W02
 .byte   W05
 .byte   W04
 .byte   W05
 .byte   W04
 .byte   W05
 .byte   W05
 .byte   W04
 .byte   W05
 .byte   W05
 .byte   W04
 .byte   W05
@  #11 @038   ----------------------------------------
 .byte   W05
 .byte   W04
 .byte   W05
 .byte   W04
 .byte   PEND 
 .byte   EOT
 .byte   Bn3
 .byte   W01
Label_01161B20:
 .byte   TIE ,Bn3 ,v052
 .byte   W72
 .byte   PEND 
Label_01161B25:
 .byte   W32
@  #11 @039   ----------------------------------------
 .byte   W03
 .byte   PEND 
 .byte   EOT
 .byte   Bn3
 .byte   W19
 .byte   N05 ,Cs4 ,v080
 .byte   W06
 .byte   N11 ,Bn3
 .byte   W12
Label_01161B32:
 .byte   N32 ,Cs4 ,v080
 .byte   W36
 .byte   Ds4
 .byte   W36
 .byte   PEND 
@  #11 @040   ----------------------------------------
Label_01161B39:
 .byte   N68 ,Gs3 ,v080
 .byte   W72
 .byte   PEND 
Label_01161B3E:
 .byte   W36
@  #11 @041   ----------------------------------------
 .byte   N32 ,Fs3 ,v080
 .byte   W36
 .byte   PEND 
Label_01161B44:
 .byte   N32 ,Gs3 ,v080
 .byte   W36
 .byte   Cn4
 .byte   W36
 .byte   PEND 
@  #11 @042   ----------------------------------------
Label_01161B4B:
 .byte   N92 ,As3 ,v080
 .byte   W72
 .byte   PEND 
Label_01161B50:
 .byte   W36
@  #11 @043   ----------------------------------------
 .byte   N32 ,Ds3 ,v080
 .byte   W36
 .byte   PEND 
Label_01161B56:
 .byte   TIE ,Fn3 ,v080
 .byte   W72
 .byte   PEND 
@  #11 @044   ----------------------------------------
Label_01161B5B:
 .byte   W68
 .byte   W03
 .byte   PEND 
 .byte   EOT
 .byte   Fn3
 .byte   W01
Label_01161B61:
 .byte   TIE ,Cs3 ,v080
 .byte   W72
 .byte   PEND 
@  #11 @045   ----------------------------------------
 .byte   PATT
  .word Label_01161B5B
@  #11 @046   ----------------------------------------
 .byte   EOT
 .byte   Cs3
 .byte   W01
Label_01161B6E:
 .byte   N68 ,Gs2 ,v052
 .byte   W72
 .byte   PEND 
Label_01161B73:
 .byte   N32 ,Cs3 ,v052
 .byte   W36
@  #11 @047   ----------------------------------------
 .byte   Fn3
 .byte   W36
 .byte   PEND 
Label_01161B7A:
 .byte   N68 ,Fn3 ,v052
 .byte   W72
 .byte   PEND 
@  #11 @048   ----------------------------------------
 .byte   W72
 .byte   W72
@  #11 @049   ----------------------------------------
 .byte   W72
 .byte   W72
@  #11 @050   ----------------------------------------
 .byte   W72
 .byte   W72
@  #11 @051   ----------------------------------------
 .byte   W72
 .byte   W72
@  #11 @052   ----------------------------------------
 .byte   W72
 .byte   W72
@  #11 @053   ----------------------------------------
 .byte   W72
 .byte   W72
@  #11 @054   ----------------------------------------
 .byte   W72
 .byte   W72
@  #11 @055   ----------------------------------------
 .byte   W72
 .byte   W72
@  #11 @056   ----------------------------------------
 .byte   W72
 .byte   W48
@  #11 @057   ----------------------------------------
 .byte   GOTO
  .word Label_01161A25
@  #11 @058   ----------------------------------------
 .byte   W24
 .byte   N17 ,As2 ,v080
 .byte   W18
 .byte   N05 ,Cn3
 .byte   W06
 .byte   N11 ,Cs3
 .byte   W12
 .byte   N17 ,Ds3
 .byte   W18
 .byte   N05 ,Cs3
 .byte   W06
 .byte   N11 ,Ds3
 .byte   W12
@  #11 @059   ----------------------------------------
 .byte   N32 ,Gs2
 .byte   W36
 .byte   Cn3
 .byte   W36
 .byte   Cs3
 .byte   W36
@  #11 @060   ----------------------------------------
 .byte   N17 ,Fn3
 .byte   W18
 .byte   N05 ,Ds3
 .byte   W06
 .byte   N11 ,Cs3
 .byte   W12
Label_01161BBA:
 .byte   N56 ,Fn3 ,v080
 .byte   W36
 .byte   W36
 .byte   PEND 
@  #11 @061   ----------------------------------------
 .byte   N17
 .byte   W18
 .byte   N05 ,Fs3
 .byte   W06
 .byte   N11 ,Gs3
 .byte   W12
 .byte   N52 ,Fn3
 .byte   W36
 .byte   W18
 .byte   N05 ,Fs3
 .byte   W06
@  #11 @062   ----------------------------------------
 .byte   N11 ,Gs3
 .byte   W12
 .byte   N17 ,Fn3
 .byte   W18
 .byte   N05 ,Ds3
 .byte   W06
 .byte   N11 ,Cs3
 .byte   W12
 .byte   N44 ,Ds3
 .byte   W36
 .byte   W12
@  #11 @063   ----------------------------------------
 .byte   N11 ,As2
 .byte   W12
 .byte   Ds3
 .byte   W12
@  #11 @064   ----------------------------------------
 .byte   PATT
  .word Label_01161BBA
@  #11 @065   ----------------------------------------
 .byte   W72
 .byte   W72
@  #11 @066   ----------------------------------------
 .byte   W72
 .byte   W72
@  #11 @067   ----------------------------------------
 .byte   W96
@  #11 @068   ----------------------------------------
 .byte   W12
 .byte   W96
@  #11 @069   ----------------------------------------
 .byte   W12
@  #11 @070   ----------------------------------------
 .byte   PATT
  .word Label_01161A7E
@  #11 @071   ----------------------------------------
 .byte   PATT
  .word Label_01161A85
@  #11 @072   ----------------------------------------
 .byte   PATT
  .word Label_01161A8A
@  #11 @073   ----------------------------------------
 .byte   PATT
  .word Label_01161A91
@  #11 @074   ----------------------------------------
 .byte   PATT
  .word Label_01161A98
@  #11 @075   ----------------------------------------
 .byte   PATT
  .word Label_01161A9F
@  #11 @076   ----------------------------------------
 .byte   PATT
  .word Label_01161AA4
@  #11 @077   ----------------------------------------
 .byte   EOT
 .byte   As2
 .byte   W01
 .byte   N32 ,Fn3 ,v080
 .byte   W36
@  #11 @078   ----------------------------------------
 .byte   PATT
  .word Label_01161AAE
@  #11 @079   ----------------------------------------
 .byte   PATT
  .word Label_01161AB5
@  #11 @080   ----------------------------------------
 .byte   W72
 .byte   W72
@  #11 @081   ----------------------------------------
 .byte   W72
 .byte   W72
@  #11 @082   ----------------------------------------
 .byte   PATT
  .word Label_01161ABE
@  #11 @083   ----------------------------------------
 .byte   PATT
  .word Label_01161AC3
@  #11 @084   ----------------------------------------
 .byte   PATT
  .word Label_01161AC8
@  #11 @085   ----------------------------------------
 .byte   PATT
  .word Label_01161ACD
@  #11 @086   ----------------------------------------
 .byte   PATT
  .word Label_01161AD4
@  #11 @087   ----------------------------------------
 .byte   PATT
  .word Label_01161ADD
@  #11 @088   ----------------------------------------
 .byte   PATT
  .word Label_01161AD4
@  #11 @089   ----------------------------------------
 .byte   PATT
  .word Label_01161AEE
@  #11 @090   ----------------------------------------
 .byte   PATT
  .word Label_01161AF8
@  #11 @091   ----------------------------------------
 .byte   PATT
  .word Label_01161B0C
@  #11 @092   ----------------------------------------
 .byte   EOT
 .byte   Bn3
 .byte   W01
@  #11 @093   ----------------------------------------
 .byte   PATT
  .word Label_01161B20
@  #11 @094   ----------------------------------------
 .byte   PATT
  .word Label_01161B25
@  #11 @095   ----------------------------------------
 .byte   EOT
 .byte   Bn3
 .byte   W19
 .byte   N05 ,Cs4 ,v080
 .byte   W06
 .byte   N11 ,Bn3
 .byte   W12
@  #11 @096   ----------------------------------------
 .byte   PATT
  .word Label_01161B32
@  #11 @097   ----------------------------------------
 .byte   PATT
  .word Label_01161B39
@  #11 @098   ----------------------------------------
 .byte   PATT
  .word Label_01161B3E
@  #11 @099   ----------------------------------------
 .byte   PATT
  .word Label_01161B44
@  #11 @100   ----------------------------------------
 .byte   PATT
  .word Label_01161B4B
@  #11 @101   ----------------------------------------
 .byte   PATT
  .word Label_01161B50
@  #11 @102   ----------------------------------------
 .byte   PATT
  .word Label_01161B56
@  #11 @103   ----------------------------------------
 .byte   PATT
  .word Label_01161B5B
@  #11 @104   ----------------------------------------
 .byte   EOT
 .byte   Fn3
 .byte   W01
@  #11 @105   ----------------------------------------
 .byte   PATT
  .word Label_01161B61
@  #11 @106   ----------------------------------------
 .byte   PATT
  .word Label_01161B5B
@  #11 @107   ----------------------------------------
 .byte   EOT
 .byte   Cs3
 .byte   W01
@  #11 @108   ----------------------------------------
 .byte   PATT
  .word Label_01161B6E
@  #11 @109   ----------------------------------------
 .byte   PATT
  .word Label_01161B73
@  #11 @110   ----------------------------------------
 .byte   PATT
  .word Label_01161B7A
@  #11 @111   ----------------------------------------
 .byte   W68
 .byte   W03
 .byte   FINE

@**************** Track 12 (Midi-Chn.11) ****************@

FireEmblemEngageEnjoytheEveningDivineOneSurfingKyogre1_012:
@  #12 @000   ----------------------------------------
 .byte   KEYSH , FireEmblemEngageEnjoytheEveningDivineOneSurfingKyogre1_key+0
 .byte   VOICE , 49
 .byte   VOL , 42*FireEmblemEngageEnjoytheEveningDivineOneSurfingKyogre1_mvl/mxv
 .byte   PAN , c_v+0
 .byte   N68 ,Cs2 ,v080
 .byte   W72
 .byte   Fs1
 .byte   W24
@  #12 @001   ----------------------------------------
 .byte   W48
 .byte   Fn1
 .byte   W48
@  #12 @002   ----------------------------------------
 .byte   W24
 .byte   As1
 .byte   W72
@  #12 @003   ----------------------------------------
 .byte   Ds1 ,v064
 .byte   W72
 .byte   Fn1
 .byte   W24
@  #12 @004   ----------------------------------------
 .byte   W48
 .byte   Fs1
 .byte   W48
@  #12 @005   ----------------------------------------
 .byte   W24
 .byte   Gs1
 .byte   W72
@  #12 @006   ----------------------------------------
 .byte   N32 ,Ds1
 .byte   W36
 .byte   TIE ,Fn1
 .byte   W36
 .byte   W24
@  #12 @007   ----------------------------------------
 .byte   W44
 .byte   W03
 .byte   EOT
 .byte   W01
 .byte   N68 ,Gs1
 .byte   W48
@  #12 @008   ----------------------------------------
 .byte   W24
 .byte   Cs2
 .byte   W72
@  #12 @009   ----------------------------------------
 .byte   Fs1
 .byte   W72
 .byte   Bn1
 .byte   W24
@  #12 @010   ----------------------------------------
 .byte   W48
 .byte   N32 ,Cn2
 .byte   W36
 .byte   Fn2
 .byte   W12
@  #12 @011   ----------------------------------------
 .byte   W24
 .byte   TIE ,As1
 .byte   W72
@  #12 @012   ----------------------------------------
Label_01161D7A:
 .byte   W32
 .byte   W03
 .byte   PEND 
 .byte   EOT
 .byte   As1
 .byte   W13
Label_01161D80:
 .byte   W24
 .byte   N68 ,Cs2 ,v080
 .byte   W24
@  #12 @013   ----------------------------------------
 .byte   W48
 .byte   Ds2
 .byte   W48
@  #12 @014   ----------------------------------------
 .byte   W24
 .byte   N32 ,Fn2
 .byte   W36
 .byte   Ds2
 .byte   W36
@  #12 @015   ----------------------------------------
 .byte   N68 ,Fn2
 .byte   W72
 .byte   Cs2
 .byte   W24
@  #12 @016   ----------------------------------------
 .byte   W48
 .byte   N32
 .byte   W36
 .byte   As1
 .byte   W12
@  #12 @017   ----------------------------------------
 .byte   W24
 .byte   N68 ,Cn2
 .byte   W72
@  #12 @018   ----------------------------------------
 .byte   Fn2
 .byte   W96
@  #12 @019   ----------------------------------------
 .byte   W12
 .byte   N32 ,Cs2
 .byte   W36
 .byte   N68 ,Cn2
 .byte   W48
@  #12 @020   ----------------------------------------
 .byte   W24
 .byte   N32 ,Cs2
 .byte   W36
 .byte   Gs1
 .byte   W36
@  #12 @021   ----------------------------------------
Label_01161DAB:
 .byte   N32 ,Cs2 ,v080
 .byte   W72
 .byte   PEND 
Label_01161DB0:
 .byte   TIE ,Fn2 ,v080
 .byte   W72
@  #12 @022   ----------------------------------------
 .byte   W32
 .byte   W03
 .byte   PEND 
 .byte   EOT
 .byte   W01
Label_01161DB9:
 .byte   N80 ,En2 ,v080
 .byte   W72
@  #12 @023   ----------------------------------------
 .byte   W36
 .byte   PEND 
 .byte   W72
@  #12 @024   ----------------------------------------
Label_01161DC0:
 .byte   N68 ,Fn1 ,v080
 .byte   W72
 .byte   PEND 
Label_01161DC5:
 .byte   N68 ,Gs1 ,v080
 .byte   W72
 .byte   PEND 
@  #12 @025   ----------------------------------------
Label_01161DCA:
 .byte   W36
 .byte   N32 ,Fn2 ,v080
 .byte   W36
 .byte   PEND 
Label_01161DD0:
 .byte   N32 ,Gs2 ,v080
 .byte   W36
@  #12 @026   ----------------------------------------
 .byte   Cn2
 .byte   W36
 .byte   PEND 
Label_01161DD7:
 .byte   N68 ,Ds2 ,v080
 .byte   W72
 .byte   PEND 
@  #12 @027   ----------------------------------------
Label_01161DDC:
 .byte   TIE ,Cs2 ,v080
 .byte   W72
 .byte   PEND 
Label_01161DE1:
 .byte   W01
 .byte   W01
 .byte   W01
 .byte   W01
 .byte   W01
 .byte   W02
 .byte   W01
 .byte   W01
 .byte   W01
 .byte   W01
 .byte   W01
 .byte   W01
 .byte   W02
 .byte   W01
 .byte   W01
 .byte   W01
 .byte   W01
 .byte   W01
 .byte   W02
 .byte   W01
 .byte   W01
@  #12 @028   ----------------------------------------
 .byte   W01
 .byte   W01
 .byte   W01
 .byte   W02
 .byte   W01
 .byte   W01
 .byte   W01
 .byte   W01
 .byte   W01
 .byte   W01
 .byte   PEND 
 .byte   EOT
 .byte   Cs2
 .byte   W01
 .byte   W36
 .byte   W72
@  #12 @029   ----------------------------------------
Label_01161E06:
 .byte   N11 ,Fn2 ,v096
 .byte   W12
 .byte   N11
 .byte   W24
 .byte   N11
 .byte   W24
 .byte   N11
 .byte   W12
 .byte   PEND 
Label_01161E11:
 .byte   N11 ,Fs2 ,v096
 .byte   W12
 .byte   N11
 .byte   W24
@  #12 @030   ----------------------------------------
 .byte   N11
 .byte   W24
 .byte   N11
 .byte   W12
 .byte   PEND 
Label_01161E1C:
 .byte   N11 ,As2 ,v096
 .byte   W12
 .byte   N11
 .byte   W24
 .byte   N11
 .byte   W24
@  #12 @031   ----------------------------------------
 .byte   N11
 .byte   W12
 .byte   PEND 
Label_01161E27:
 .byte   N11 ,Gs2 ,v096
 .byte   W12
 .byte   N11
 .byte   W24
 .byte   N11
 .byte   W24
 .byte   N11
 .byte   W12
 .byte   PEND 
@  #12 @032   ----------------------------------------
 .byte   PATT
  .word Label_01161E06
@  #12 @033   ----------------------------------------
 .byte   PATT
  .word Label_01161E11
@  #12 @034   ----------------------------------------
 .byte   PATT
  .word Label_01161E1C
@  #12 @035   ----------------------------------------
 .byte   PATT
  .word Label_01161E27
@  #12 @036   ----------------------------------------
Label_01161E46:
 .byte   N56 ,Fs2 ,v080
 .byte   W36
 .byte   W24
 .byte   N11 ,En2
 .byte   W12
 .byte   PEND 
Label_01161E4F:
 .byte   N23 ,Fs2 ,v080
 .byte   W24
@  #12 @037   ----------------------------------------
 .byte   Gs2
 .byte   W24
 .byte   N11 ,Bn1
 .byte   W12
 .byte   Bn2
 .byte   W12
 .byte   PEND 
@  #12 @038   ----------------------------------------
 .byte   PATT
  .word Label_01161E46
@  #12 @039   ----------------------------------------
Label_01161E60:
 .byte   N23 ,Fs2 ,v080
 .byte   W24
 .byte   Gn2
 .byte   W12
 .byte   W12
 .byte   An2
 .byte   W24
 .byte   PEND 
Label_01161E6A:
 .byte   N72 ,An2 ,v096
 .byte   W72
 .byte   PEND 
@  #12 @040   ----------------------------------------
Label_01161E6F:
 .byte   N68 ,An2 ,v096
 .byte   W72
 .byte   PEND 
Label_01161E74:
 .byte   N72 ,Gs2 ,v096
 .byte   W72
 .byte   PEND 
@  #12 @041   ----------------------------------------
Label_01161E79:
 .byte   N32 ,Gs2 ,v096
 .byte   W72
 .byte   PEND 
Label_01161E7E:
 .byte   N32 ,As1 ,v096
 .byte   W36
@  #12 @042   ----------------------------------------
 .byte   Cn2
 .byte   W36
 .byte   PEND 
Label_01161E85:
 .byte   N68 ,Fn1 ,v096
 .byte   W72
 .byte   PEND 
@  #12 @043   ----------------------------------------
Label_01161E8A:
 .byte   W36
 .byte   N32 ,As1 ,v096
 .byte   W36
 .byte   PEND 
Label_01161E90:
 .byte   N32 ,Cn2 ,v096
 .byte   W36
@  #12 @044   ----------------------------------------
 .byte   Fn1
 .byte   W36
 .byte   PEND 
Label_01161E97:
 .byte   N68 ,Ds2 ,v096
 .byte   W72
 .byte   PEND 
@  #12 @045   ----------------------------------------
Label_01161E9C:
 .byte   N68 ,Cs2 ,v096
 .byte   W72
 .byte   PEND 
Label_01161EA1:
 .byte   TIE ,Ds2 ,v096
 .byte   W72
 .byte   PEND 
@  #12 @046   ----------------------------------------
Label_01161EA6:
 .byte   W68
 .byte   W03
 .byte   PEND 
 .byte   EOT
 .byte   Ds2
 .byte   W01
@  #12 @047   ----------------------------------------
 .byte   PATT
  .word Label_01161EA1
@  #12 @048   ----------------------------------------
Label_01161EB1:
 .byte   W32
 .byte   W03
 .byte   PEND 
 .byte   EOT
 .byte   Ds2
 .byte   W01
 .byte   N32 ,As1 ,v096
 .byte   W36
Label_01161EBB:
 .byte   TIE ,Cs2 ,v096
 .byte   W72
 .byte   PEND 
@  #12 @049   ----------------------------------------
 .byte   W72
@  #12 @050   ----------------------------------------
 .byte   PATT
  .word Label_01161EA6
@  #12 @051   ----------------------------------------
 .byte   EOT
 .byte   Cs2
 .byte   W01
 .byte   W72
Label_01161ECA:
 .byte   N68 ,Cs2 ,v080
 .byte   W72
 .byte   PEND 
@  #12 @052   ----------------------------------------
 .byte   Fs1
 .byte   W72
@  #12 @053   ----------------------------------------
 .byte   PATT
  .word Label_01161DC0
@  #12 @054   ----------------------------------------
 .byte   N68 ,As1 ,v080
 .byte   W72
 .byte   Ds1 ,v064
 .byte   W72
@  #12 @055   ----------------------------------------
 .byte   Fn1
 .byte   W72
Label_01161EDF:
 .byte   N68 ,Fs1 ,v064
 .byte   W72
 .byte   PEND 
@  #12 @056   ----------------------------------------
Label_01161EE4:
 .byte   N68 ,Gs1 ,v064
 .byte   W72
 .byte   PEND 
 .byte   N32 ,Ds1
 .byte   W36
@  #12 @057   ----------------------------------------
 .byte   TIE ,Fn1
 .byte   W36
 .byte   W68
@  #12 @058   ----------------------------------------
 .byte   W03
 .byte   EOT
 .byte   W01
@  #12 @059   ----------------------------------------
 .byte   PATT
  .word Label_01161EE4
@  #12 @060   ----------------------------------------
 .byte   N68 ,Cs2 ,v064
 .byte   W72
@  #12 @061   ----------------------------------------
 .byte   PATT
  .word Label_01161EDF
@  #12 @062   ----------------------------------------
 .byte   N68 ,Bn1 ,v064
 .byte   W72
 .byte   N32 ,Cn2
 .byte   W36
@  #12 @063   ----------------------------------------
 .byte   Fn2
 .byte   W36
 .byte   TIE ,As1
 .byte   W72
@  #12 @064   ----------------------------------------
 .byte   PATT
  .word Label_01161D7A
@  #12 @065   ----------------------------------------
 .byte   EOT
 .byte   As1
 .byte   W13
 .byte   GOTO
  .word Label_01161D80
@  #12 @066   ----------------------------------------
 .byte   W24
@  #12 @067   ----------------------------------------
 .byte   PATT
  .word Label_01161ECA
@  #12 @068   ----------------------------------------
 .byte   PATT
  .word Label_01161DD7
@  #12 @069   ----------------------------------------
 .byte   N32 ,Fn2 ,v080
 .byte   W36
 .byte   Ds2
 .byte   W36
Label_01161F2B:
 .byte   N68 ,Fn2 ,v080
 .byte   W72
 .byte   PEND 
@  #12 @070   ----------------------------------------
 .byte   PATT
  .word Label_01161ECA
@  #12 @071   ----------------------------------------
 .byte   N32 ,Cs2 ,v080
 .byte   W36
 .byte   As1
 .byte   W36
Label_01161F3B:
 .byte   N68 ,Cn2 ,v080
 .byte   W72
 .byte   PEND 
@  #12 @072   ----------------------------------------
 .byte   PATT
  .word Label_01161F2B
@  #12 @073   ----------------------------------------
 .byte   W36
 .byte   N32 ,Cs2 ,v080
 .byte   W36
@  #12 @074   ----------------------------------------
 .byte   PATT
  .word Label_01161F3B
@  #12 @075   ----------------------------------------
 .byte   N32 ,Cs2 ,v080
 .byte   W36
 .byte   Gs1
 .byte   W36
@  #12 @076   ----------------------------------------
 .byte   PATT
  .word Label_01161DAB
@  #12 @077   ----------------------------------------
 .byte   PATT
  .word Label_01161DB0
@  #12 @078   ----------------------------------------
 .byte   EOT
 .byte   Fn2
 .byte   W01
@  #12 @079   ----------------------------------------
 .byte   PATT
  .word Label_01161DB9
@  #12 @080   ----------------------------------------
 .byte   W72
@  #12 @081   ----------------------------------------
 .byte   PATT
  .word Label_01161DC0
@  #12 @082   ----------------------------------------
 .byte   PATT
  .word Label_01161DC5
@  #12 @083   ----------------------------------------
 .byte   PATT
  .word Label_01161DCA
@  #12 @084   ----------------------------------------
 .byte   PATT
  .word Label_01161DD0
@  #12 @085   ----------------------------------------
 .byte   PATT
  .word Label_01161DD7
@  #12 @086   ----------------------------------------
 .byte   PATT
  .word Label_01161DDC
@  #12 @087   ----------------------------------------
 .byte   PATT
  .word Label_01161DE1
@  #12 @088   ----------------------------------------
 .byte   EOT
 .byte   Cs2
 .byte   W01
 .byte   W36
 .byte   W72
@  #12 @089   ----------------------------------------
 .byte   PATT
  .word Label_01161E06
@  #12 @090   ----------------------------------------
 .byte   PATT
  .word Label_01161E11
@  #12 @091   ----------------------------------------
 .byte   PATT
  .word Label_01161E1C
@  #12 @092   ----------------------------------------
 .byte   PATT
  .word Label_01161E27
@  #12 @093   ----------------------------------------
 .byte   PATT
  .word Label_01161E06
@  #12 @094   ----------------------------------------
 .byte   PATT
  .word Label_01161E11
@  #12 @095   ----------------------------------------
 .byte   PATT
  .word Label_01161E1C
@  #12 @096   ----------------------------------------
 .byte   PATT
  .word Label_01161E27
@  #12 @097   ----------------------------------------
 .byte   PATT
  .word Label_01161E46
@  #12 @098   ----------------------------------------
 .byte   PATT
  .word Label_01161E4F
@  #12 @099   ----------------------------------------
 .byte   PATT
  .word Label_01161E46
@  #12 @100   ----------------------------------------
 .byte   PATT
  .word Label_01161E60
@  #12 @101   ----------------------------------------
 .byte   PATT
  .word Label_01161E6A
@  #12 @102   ----------------------------------------
 .byte   PATT
  .word Label_01161E6F
@  #12 @103   ----------------------------------------
 .byte   PATT
  .word Label_01161E74
@  #12 @104   ----------------------------------------
 .byte   PATT
  .word Label_01161E79
@  #12 @105   ----------------------------------------
 .byte   PATT
  .word Label_01161E7E
@  #12 @106   ----------------------------------------
 .byte   PATT
  .word Label_01161E85
@  #12 @107   ----------------------------------------
 .byte   PATT
  .word Label_01161E8A
@  #12 @108   ----------------------------------------
 .byte   PATT
  .word Label_01161E90
@  #12 @109   ----------------------------------------
 .byte   PATT
  .word Label_01161E97
@  #12 @110   ----------------------------------------
 .byte   PATT
  .word Label_01161E9C
@  #12 @111   ----------------------------------------
 .byte   PATT
  .word Label_01161EA1
@  #12 @112   ----------------------------------------
 .byte   PATT
  .word Label_01161EA6
@  #12 @113   ----------------------------------------
 .byte   EOT
 .byte   Ds2
 .byte   W01
@  #12 @114   ----------------------------------------
 .byte   PATT
  .word Label_01161EA1
@  #12 @115   ----------------------------------------
 .byte   PATT
  .word Label_01161EB1
@  #12 @116   ----------------------------------------
 .byte   EOT
 .byte   Ds2
 .byte   W01
 .byte   N32 ,As1 ,v096
 .byte   W36
@  #12 @117   ----------------------------------------
 .byte   PATT
  .word Label_01161EBB
@  #12 @118   ----------------------------------------
 .byte   W72
@  #12 @119   ----------------------------------------
 .byte   PATT
  .word Label_01161EA6
@  #12 @120   ----------------------------------------
 .byte   EOT
 .byte   Cs2
 .byte   W01
 .byte   W68
 .byte   W03
 .byte   FINE

@******************************************************@
	.align	2

FireEmblemEngageEnjoytheEveningDivineOneSurfingKyogre1:
	.byte	12	@ NumTrks
	.byte	0	@ NumBlks
	.byte	FireEmblemEngageEnjoytheEveningDivineOneSurfingKyogre1_pri	@ Priority
	.byte	FireEmblemEngageEnjoytheEveningDivineOneSurfingKyogre1_rev	@ Reverb.
    
	.word	FireEmblemEngageEnjoytheEveningDivineOneSurfingKyogre1_grp
    
	.word	FireEmblemEngageEnjoytheEveningDivineOneSurfingKyogre1_001
	.word	FireEmblemEngageEnjoytheEveningDivineOneSurfingKyogre1_002
	.word	FireEmblemEngageEnjoytheEveningDivineOneSurfingKyogre1_003
	.word	FireEmblemEngageEnjoytheEveningDivineOneSurfingKyogre1_004
	.word	FireEmblemEngageEnjoytheEveningDivineOneSurfingKyogre1_005
	.word	FireEmblemEngageEnjoytheEveningDivineOneSurfingKyogre1_006
	.word	FireEmblemEngageEnjoytheEveningDivineOneSurfingKyogre1_007
	.word	FireEmblemEngageEnjoytheEveningDivineOneSurfingKyogre1_008
	.word	FireEmblemEngageEnjoytheEveningDivineOneSurfingKyogre1_009
	.word	FireEmblemEngageEnjoytheEveningDivineOneSurfingKyogre1_010
	.word	FireEmblemEngageEnjoytheEveningDivineOneSurfingKyogre1_011
	.word	FireEmblemEngageEnjoytheEveningDivineOneSurfingKyogre1_012

	.end
