//Event file generated from Sappy .s format.
	#include "MPlayDef.event"

	#define	PokemonRangerGuardianSignsPokemonPincherAdminBattle_grp  voicegroup000
	#define	PokemonRangerGuardianSignsPokemonPincherAdminBattle_pri  0
	#define	PokemonRangerGuardianSignsPokemonPincherAdminBattle_rev  0
	#define	PokemonRangerGuardianSignsPokemonPincherAdminBattle_mvl  60
	#define	PokemonRangerGuardianSignsPokemonPincherAdminBattle_key  0
	#define	PokemonRangerGuardianSignsPokemonPincherAdminBattle_tbs  1
	#define	PokemonRangerGuardianSignsPokemonPincherAdminBattle_exg  0
	#define	PokemonRangerGuardianSignsPokemonPincherAdminBattle_cmp  1

	// .rodata
	//	PokemonRangerGuardianSignsPokemonPincherAdminBattle
	ALIGN 4

//**************** Track 1 (Midi-Chn.1) ****************//

PokemonRangerGuardianSignsPokemonPincherAdminBattle_1:
	BYTE	KEYSH   PokemonRangerGuardianSignsPokemonPincherAdminBattle_key+0
// 000   ----------------------------------------
	BYTE	TEMPO   172*PokemonRangerGuardianSignsPokemonPincherAdminBattle_tbs/2
	BYTE		VOICE   48
	BYTE		VOL     117*PokemonRangerGuardianSignsPokemonPincherAdminBattle_mvl/mxv
	BYTE		PAN     c_v+0
	BYTE		MOD     0
	BYTE	W13
	BYTE	W05
	BYTE	W78
// 001   ----------------------------------------
	BYTE	W18
	BYTE		        5
	BYTE	W78
// 002   ----------------------------------------
	BYTE	W23
PokemonRangerGuardianSignsPokemonPincherAdminBattle_1_B1:
	BYTE		N36     An3   v127
	BYTE	W36
	BYTE		N12     Cn4 
	BYTE	W12
	BYTE		        En4 
	BYTE	W12
	BYTE		        An3 
	BYTE	W12
	BYTE		        Gn4 
	BYTE	W01
// 003   ----------------------------------------
PokemonRangerGuardianSignsPokemonPincherAdminBattle_1_003:
	BYTE	W11
	BYTE		N36     Fs4   v127
	BYTE	W36
	BYTE		N12     Dn4 
	BYTE	W12
	BYTE		N24     An4 
	BYTE	W24
	BYTE		N12     An3 
	BYTE	W12
	BYTE		        Bn3 
	BYTE	W01
	BYTE	PEND
// 004   ----------------------------------------
	BYTE	W11
	BYTE		N48     Cn4 
	BYTE	W48
	BYTE		N12     Fn3 
	BYTE	W12
	BYTE		        Cn4 
	BYTE	W12
	BYTE		        Dn4 
	BYTE	W12
	BYTE		        En4 
	BYTE	W01
// 005   ----------------------------------------
	BYTE	W11
	BYTE		N36     Dn4 
	BYTE	W36
	BYTE		N12     Gn3 
	BYTE	W12
	BYTE		N36     Gn4 
	BYTE	W36
	BYTE		N12     Gn4   v068
	BYTE	W01
// 006   ----------------------------------------
	BYTE	W11
	BYTE		N48     An3   v127
	BYTE	W48
	BYTE		N12     Cn4 
	BYTE	W12
	BYTE		        En4 
	BYTE	W12
	BYTE		        An3 
	BYTE	W12
	BYTE		        Gn4 
	BYTE	W01
// 007   ----------------------------------------
	BYTE	PATT
	 POIN2	PokemonRangerGuardianSignsPokemonPincherAdminBattle_1_003
// 008   ----------------------------------------
	BYTE	W11
	BYTE		N48     Cn4   v127
	BYTE	W48
	BYTE		N12     An3 
	BYTE	W12
	BYTE		        Cn4 
	BYTE	W12
	BYTE		        En4 
	BYTE	W12
	BYTE		        An4 
	BYTE	W01
// 009   ----------------------------------------
	BYTE	W11
	BYTE		N36     Gn4 
	BYTE	W36
	BYTE		N12     Dn4 
	BYTE	W12
	BYTE		N48     Bn4 
	BYTE	W36
	BYTE	W01
// 010   ----------------------------------------
PokemonRangerGuardianSignsPokemonPincherAdminBattle_1_010:
	BYTE	W11
	BYTE		N48     An3   v120
	BYTE	W48
	BYTE		N12     Cn4 
	BYTE	W12
	BYTE		        En4 
	BYTE	W12
	BYTE		        An3 
	BYTE	W12
	BYTE		        Gn4 
	BYTE	W01
	BYTE	PEND
// 011   ----------------------------------------
PokemonRangerGuardianSignsPokemonPincherAdminBattle_1_011:
	BYTE	W11
	BYTE		N36     Fs4   v120
	BYTE	W36
	BYTE		N12     Dn4 
	BYTE	W12
	BYTE		N24     An4 
	BYTE	W24
	BYTE		N12     An3 
	BYTE	W12
	BYTE		        Bn3 
	BYTE	W01
	BYTE	PEND
// 012   ----------------------------------------
	BYTE	W11
	BYTE		N48     Cn4 
	BYTE	W48
	BYTE		N12     Fn3 
	BYTE	W12
	BYTE		        Cn4 
	BYTE	W12
	BYTE		        Dn4 
	BYTE	W12
	BYTE		        En4 
	BYTE	W01
// 013   ----------------------------------------
	BYTE	W11
	BYTE		N36     Dn4 
	BYTE	W36
	BYTE		N12     Gn3 
	BYTE	W12
	BYTE		N36     Gn4 
	BYTE	W36
	BYTE		N12     Gn4   v060
	BYTE	W01
// 014   ----------------------------------------
	BYTE	PATT
	 POIN2	PokemonRangerGuardianSignsPokemonPincherAdminBattle_1_010
// 015   ----------------------------------------
	BYTE	PATT
	 POIN2	PokemonRangerGuardianSignsPokemonPincherAdminBattle_1_011
// 016   ----------------------------------------
	BYTE	W11
	BYTE		N48     Cn4   v120
	BYTE	W48
	BYTE		N12     An3 
	BYTE	W12
	BYTE		        Cn4 
	BYTE	W12
	BYTE		        En4 
	BYTE	W12
	BYTE		        An4 
	BYTE	W01
// 017   ----------------------------------------
	BYTE	W11
	BYTE		N36     Gn4 
	BYTE	W36
	BYTE		N12     Dn4 
	BYTE	W12
	BYTE		N48     Bn4 
	BYTE	W36
	BYTE	W01
// 018   ----------------------------------------
	BYTE	W23
	BYTE		N36     Cn4   v127
	BYTE	W36
	BYTE		N12     Ds3 
	BYTE	W12
	BYTE		        Gs3 
	BYTE	W12
	BYTE		        Cn4 
	BYTE	W12
	BYTE		        Ds4 
	BYTE	W01
// 019   ----------------------------------------
PokemonRangerGuardianSignsPokemonPincherAdminBattle_1_019:
	BYTE	W11
	BYTE		N36     Dn4   v127
	BYTE	W36
	BYTE		N12     As3 
	BYTE	W12
	BYTE		N36     Fn4 
	BYTE	W36
	BYTE		N12     Fn4   v088
	BYTE	W01
	BYTE	PEND
// 020   ----------------------------------------
	BYTE	W11
	BYTE		N48     Ds4   v127
	BYTE	W48
	BYTE		N12     Ds3 
	BYTE	W12
	BYTE		        Gn3 
	BYTE	W12
	BYTE		        Cn4 
	BYTE	W12
	BYTE		        Ds4 
	BYTE	W01
// 021   ----------------------------------------
	BYTE	W11
	BYTE		N36     Gn4 
	BYTE	W36
	BYTE		N24     Fn4 
	BYTE	W24
	BYTE		N12     Ds4 
	BYTE	W12
	BYTE		        Dn4 
	BYTE	W12
	BYTE		        Dn4   v068
	BYTE	W01
// 022   ----------------------------------------
	BYTE	W11
	BYTE		N48     Cn4   v127
	BYTE	W48
	BYTE		N12     Ds3 
	BYTE	W12
	BYTE		        Gs3 
	BYTE	W12
	BYTE		        Cn4 
	BYTE	W12
	BYTE		        Ds4 
	BYTE	W01
// 023   ----------------------------------------
	BYTE	PATT
	 POIN2	PokemonRangerGuardianSignsPokemonPincherAdminBattle_1_019
// 024   ----------------------------------------
	BYTE	W11
	BYTE		N48     Ds4   v127
	BYTE	W48
	BYTE		N12     Fs3 
	BYTE	W12
	BYTE		        Bn3 
	BYTE	W12
	BYTE		        Ds4 
	BYTE	W12
	BYTE		        Fs4 
	BYTE	W01
// 025   ----------------------------------------
	BYTE	W11
	BYTE		N36     Fn4 
	BYTE	W36
	BYTE		N12     Cs4 
	BYTE	W12
	BYTE		N36     Gs4 
	BYTE	W36
	BYTE		N12     Gs4   v088
	BYTE	W01
// 026   ----------------------------------------
	BYTE	W11
	BYTE		TIE     As4   v127
	BYTE	W84
	BYTE	W01
// 027   ----------------------------------------
	BYTE	W23
	BYTE		EOT   
	BYTE	W72
	BYTE	W01
// 028   ----------------------------------------
	BYTE	W96
// 029   ----------------------------------------
	BYTE	W96
// 030   ----------------------------------------
	BYTE	W96
// 031   ----------------------------------------
	BYTE	W96
// 032   ----------------------------------------
	BYTE	W96
// 033   ----------------------------------------
	BYTE	W96
// 034   ----------------------------------------
	BYTE	W96
// 035   ----------------------------------------
	BYTE	W96
// 036   ----------------------------------------
	BYTE	W96
// 037   ----------------------------------------
	BYTE	W96
// 038   ----------------------------------------
	BYTE	W96
// 039   ----------------------------------------
	BYTE	W96
// 040   ----------------------------------------
	BYTE	W96
// 041   ----------------------------------------
	BYTE	W96
// 042   ----------------------------------------
	BYTE	W96
// 043   ----------------------------------------
	BYTE	W96
// 044   ----------------------------------------
	BYTE	W96
// 045   ----------------------------------------
	BYTE	W96
// 046   ----------------------------------------
	BYTE	W96
// 047   ----------------------------------------
	BYTE	W96
// 048   ----------------------------------------
	BYTE	W23
	BYTE	GoTo
	 POIN2	PokemonRangerGuardianSignsPokemonPincherAdminBattle_1_B1
PokemonRangerGuardianSignsPokemonPincherAdminBattle_1_B2:
	BYTE	W01
	BYTE	FINE

//**************** Track 2 (Midi-Chn.2) ****************//

PokemonRangerGuardianSignsPokemonPincherAdminBattle_2:
	BYTE	KEYSH   PokemonRangerGuardianSignsPokemonPincherAdminBattle_key+0
// 000   ----------------------------------------
	BYTE		VOICE   48
	BYTE		VOL     110*PokemonRangerGuardianSignsPokemonPincherAdminBattle_mvl/mxv
	BYTE		PAN     c_v+0
	BYTE		MOD     0
	BYTE	W96
// 001   ----------------------------------------
	BYTE	W96
// 002   ----------------------------------------
	BYTE	W23
PokemonRangerGuardianSignsPokemonPincherAdminBattle_2_B1:
	BYTE	W72
	BYTE	W01
// 003   ----------------------------------------
	BYTE	W96
// 004   ----------------------------------------
	BYTE	W96
// 005   ----------------------------------------
	BYTE	W96
// 006   ----------------------------------------
	BYTE	W96
// 007   ----------------------------------------
	BYTE	W96
// 008   ----------------------------------------
	BYTE	W96
// 009   ----------------------------------------
	BYTE	W96
// 010   ----------------------------------------
	BYTE	W01
	BYTE		MOD     8
	BYTE	W05
	BYTE		VOICE   62
	BYTE	W04
	BYTE		N01     Cn3   v004
	BYTE	W01
	BYTE		N48     En3   v108
	BYTE	W48
	BYTE		N12     An3 
	BYTE	W12
	BYTE		        Cn4 
	BYTE	W12
	BYTE		        En3 
	BYTE	W12
	BYTE		        En4 
	BYTE	W01
// 011   ----------------------------------------
PokemonRangerGuardianSignsPokemonPincherAdminBattle_2_011:
	BYTE	W11
	BYTE		N36     Dn4   v108
	BYTE	W36
	BYTE		N12     An3 
	BYTE	W12
	BYTE		N24     Fs4 
	BYTE	W24
	BYTE		N12     Fs3 
	BYTE	W12
	BYTE		        Gn3 
	BYTE	W01
	BYTE	PEND
// 012   ----------------------------------------
	BYTE	W11
	BYTE		N48     An3 
	BYTE	W48
	BYTE		N12     Cn3 
	BYTE	W12
	BYTE		        An3 
	BYTE	W12
	BYTE		        Bn3 
	BYTE	W12
	BYTE		        Cn4 
	BYTE	W01
// 013   ----------------------------------------
	BYTE	W11
	BYTE		N36     Bn3 
	BYTE	W36
	BYTE		N12     Dn3 
	BYTE	W12
	BYTE		N36     Dn4 
	BYTE	W36
	BYTE		N12     Dn4   v048
	BYTE	W01
// 014   ----------------------------------------
	BYTE	W11
	BYTE		N48     En3   v108
	BYTE	W48
	BYTE		N12     An3 
	BYTE	W12
	BYTE		        Cn4 
	BYTE	W12
	BYTE		        En3 
	BYTE	W12
	BYTE		        En4 
	BYTE	W01
// 015   ----------------------------------------
	BYTE	PATT
	 POIN2	PokemonRangerGuardianSignsPokemonPincherAdminBattle_2_011
// 016   ----------------------------------------
	BYTE	W11
	BYTE		N48     An3   v108
	BYTE	W48
	BYTE		N12     Fn3 
	BYTE	W12
	BYTE		        An3 
	BYTE	W12
	BYTE		        Cn4 
	BYTE	W12
	BYTE		        Fn4 
	BYTE	W01
// 017   ----------------------------------------
	BYTE	W11
	BYTE		N36     Dn4 
	BYTE	W36
	BYTE		N12     Bn3 
	BYTE	W12
	BYTE		N48     Gn4 
	BYTE	W36
	BYTE	W01
// 018   ----------------------------------------
	BYTE	W96
// 019   ----------------------------------------
	BYTE	W96
// 020   ----------------------------------------
	BYTE	W96
// 021   ----------------------------------------
	BYTE	W96
// 022   ----------------------------------------
	BYTE	W96
// 023   ----------------------------------------
	BYTE	W96
// 024   ----------------------------------------
	BYTE	W96
// 025   ----------------------------------------
	BYTE	W96
// 026   ----------------------------------------
	BYTE	W96
// 027   ----------------------------------------
	BYTE	W96
// 028   ----------------------------------------
	BYTE	W18
	BYTE		VOICE   48
	BYTE	W05
	BYTE		N48     Gs4   v120
	BYTE	W48
	BYTE		        Gn4 
	BYTE	W24
	BYTE	W01
// 029   ----------------------------------------
PokemonRangerGuardianSignsPokemonPincherAdminBattle_2_029:
	BYTE	W23
	BYTE		N48     Fn4   v120
	BYTE	W48
	BYTE		        Ds4 
	BYTE	W24
	BYTE	W01
	BYTE	PEND
// 030   ----------------------------------------
	BYTE	W23
	BYTE		N36     Gn4 
	BYTE	W36
	BYTE		N12     Fn4 
	BYTE	W12
	BYTE		        Fn4   v060
	BYTE	W12
	BYTE		        Ds4   v120
	BYTE	W12
	BYTE		N72     Fn4 
	BYTE	W01
// 031   ----------------------------------------
	BYTE	W68
	BYTE	W03
	BYTE		N24     Fn4   v060
	BYTE	W24
	BYTE		        Fn4   v032
	BYTE	W01
// 032   ----------------------------------------
PokemonRangerGuardianSignsPokemonPincherAdminBattle_2_032:
	BYTE	W23
	BYTE		N48     Gs4   v120
	BYTE	W48
	BYTE		        Gn4 
	BYTE	W24
	BYTE	W01
	BYTE	PEND
// 033   ----------------------------------------
	BYTE	PATT
	 POIN2	PokemonRangerGuardianSignsPokemonPincherAdminBattle_2_029
// 034   ----------------------------------------
	BYTE	W23
	BYTE		N36     Cn5   v120
	BYTE	W36
	BYTE		N12     Ds4 
	BYTE	W12
	BYTE		        Ds4   v060
	BYTE	W12
	BYTE		        Ds4   v120
	BYTE	W12
	BYTE		N72     Cn5 
	BYTE	W01
// 035   ----------------------------------------
PokemonRangerGuardianSignsPokemonPincherAdminBattle_2_035:
	BYTE	W68
	BYTE	W03
	BYTE		N24     Cn5   v060
	BYTE	W24
	BYTE		        Cn5   v032
	BYTE	W01
	BYTE	PEND
// 036   ----------------------------------------
PokemonRangerGuardianSignsPokemonPincherAdminBattle_2_036:
	BYTE	W23
	BYTE		N48     Cn5   v120
	BYTE	W48
	BYTE		        As4 
	BYTE	W24
	BYTE	W01
	BYTE	PEND
// 037   ----------------------------------------
	BYTE	PATT
	 POIN2	PokemonRangerGuardianSignsPokemonPincherAdminBattle_2_032
// 038   ----------------------------------------
	BYTE	W23
	BYTE		N36     As4   v120
	BYTE	W36
	BYTE		N12     Gs4 
	BYTE	W12
	BYTE		        Gs4   v060
	BYTE	W12
	BYTE		        Gn4   v120
	BYTE	W12
	BYTE		N72     Gs4 
	BYTE	W01
// 039   ----------------------------------------
	BYTE	W68
	BYTE	W03
	BYTE		N24     Gs4   v060
	BYTE	W24
	BYTE		        Gs4   v032
	BYTE	W01
// 040   ----------------------------------------
	BYTE	PATT
	 POIN2	PokemonRangerGuardianSignsPokemonPincherAdminBattle_2_036
// 041   ----------------------------------------
	BYTE	PATT
	 POIN2	PokemonRangerGuardianSignsPokemonPincherAdminBattle_2_032
// 042   ----------------------------------------
	BYTE	W23
	BYTE		N36     Ds5   v120
	BYTE	W36
	BYTE		N12     Gn4 
	BYTE	W12
	BYTE		        Gn4   v060
	BYTE	W12
	BYTE		        Cn5   v120
	BYTE	W12
	BYTE		N72   
	BYTE	W01
// 043   ----------------------------------------
	BYTE	PATT
	 POIN2	PokemonRangerGuardianSignsPokemonPincherAdminBattle_2_035
// 044   ----------------------------------------
	BYTE	W23
	BYTE		N24     Cn5   v120
	BYTE	W24
	BYTE		        As4 
	BYTE	W24
	BYTE		        Gs4 
	BYTE	W24
	BYTE		        Gn4 
	BYTE	W01
// 045   ----------------------------------------
	BYTE	W23
	BYTE		        As4 
	BYTE	W24
	BYTE		        Gs4 
	BYTE	W24
	BYTE		N12     Gn4 
	BYTE	W12
	BYTE		        Ds4 
	BYTE	W12
	BYTE		        Ds4   v060
	BYTE	W01
// 046   ----------------------------------------
	BYTE	W11
	BYTE		TIE     Fn4   v120
	BYTE	W56
	BYTE	W01
	BYTE	W23
	BYTE	W05
// 047   ----------------------------------------
	BYTE	W06
	BYTE	W10
	BYTE	W06
	BYTE	W06
	BYTE	W04
	BYTE	W05
	BYTE	W03
	BYTE	W04
	BYTE	W04
	BYTE	W02
	BYTE	W03
	BYTE	W02
	BYTE	W03
	BYTE	W01
	BYTE	W02
	BYTE	W01
	BYTE	W03
	BYTE	W02
	BYTE	W01
	BYTE	W02
	BYTE	W01
	BYTE	W01
	BYTE	W02
	BYTE	W01
	BYTE	W01
	BYTE	W01
	BYTE	W02
	BYTE	W02
	BYTE	W02
	BYTE	W01
	BYTE	W01
	BYTE	W01
	BYTE	W01
	BYTE	W01
	BYTE	W01
	BYTE	W01
	BYTE	W01
	BYTE	W01
	BYTE	W01
	BYTE	W01
	BYTE	W01
	BYTE	W01
// 048   ----------------------------------------
	BYTE	W01
	BYTE	W01
	BYTE	W01
	BYTE	W01
	BYTE	W01
	BYTE	W01
	BYTE	W01
	BYTE	W01
	BYTE	W01
	BYTE	W01
	BYTE	W01
	BYTE		EOT   
	BYTE	W12
	BYTE	GoTo
	 POIN2	PokemonRangerGuardianSignsPokemonPincherAdminBattle_2_B1
PokemonRangerGuardianSignsPokemonPincherAdminBattle_2_B2:
	BYTE	W01
	BYTE	FINE

//**************** Track 3 (Midi-Chn.3) ****************//

PokemonRangerGuardianSignsPokemonPincherAdminBattle_3:
	BYTE	KEYSH   PokemonRangerGuardianSignsPokemonPincherAdminBattle_key+0
// 000   ----------------------------------------
	BYTE		VOICE   40
	BYTE		VOL     100*PokemonRangerGuardianSignsPokemonPincherAdminBattle_mvl/mxv
	BYTE		PAN     c_v+0
	BYTE		MOD     0
	BYTE	W09
	BYTE		        10
	BYTE	W05
	BYTE	W05
	BYTE	W76
	BYTE	W01
// 001   ----------------------------------------
	BYTE	W96
// 002   ----------------------------------------
	BYTE	W23
PokemonRangerGuardianSignsPokemonPincherAdminBattle_3_B1:
	BYTE	W72
	BYTE	W01
// 003   ----------------------------------------
	BYTE	W96
// 004   ----------------------------------------
	BYTE	W96
// 005   ----------------------------------------
	BYTE	W96
// 006   ----------------------------------------
	BYTE	W96
// 007   ----------------------------------------
	BYTE	W96
// 008   ----------------------------------------
	BYTE	W96
// 009   ----------------------------------------
	BYTE	W96
// 010   ----------------------------------------
	BYTE	W96
// 011   ----------------------------------------
	BYTE	W96
// 012   ----------------------------------------
	BYTE	W96
// 013   ----------------------------------------
	BYTE	W96
// 014   ----------------------------------------
	BYTE	W96
// 015   ----------------------------------------
	BYTE	W96
// 016   ----------------------------------------
	BYTE	W96
// 017   ----------------------------------------
	BYTE	W96
// 018   ----------------------------------------
	BYTE	W96
// 019   ----------------------------------------
	BYTE	W96
// 020   ----------------------------------------
	BYTE	W96
// 021   ----------------------------------------
	BYTE	W96
// 022   ----------------------------------------
	BYTE	W96
// 023   ----------------------------------------
	BYTE	W96
// 024   ----------------------------------------
	BYTE	W96
// 025   ----------------------------------------
	BYTE	W96
// 026   ----------------------------------------
	BYTE	W96
// 027   ----------------------------------------
	BYTE	W96
// 028   ----------------------------------------
	BYTE	W22
	BYTE		N01     Gn4   v004
	BYTE	W02
	BYTE		N48     Cn5   v092
	BYTE	W48
	BYTE		        As4 
	BYTE	W24
// 029   ----------------------------------------
PokemonRangerGuardianSignsPokemonPincherAdminBattle_3_029:
	BYTE	W24
	BYTE		N48     Gs4   v092
	BYTE	W48
	BYTE		        Gn4 
	BYTE	W24
	BYTE	PEND
// 030   ----------------------------------------
	BYTE	W24
	BYTE		N36     As4 
	BYTE	W36
	BYTE		N12     Gs4 
	BYTE	W12
	BYTE		        Gs4   v032
	BYTE	W12
	BYTE		        Gn4   v092
	BYTE	W12
// 031   ----------------------------------------
	BYTE		N72     Gs4 
	BYTE	W72
	BYTE		N24     Gs4   v032
	BYTE	W24
// 032   ----------------------------------------
PokemonRangerGuardianSignsPokemonPincherAdminBattle_3_032:
	BYTE	W24
	BYTE		N48     Cn5   v092
	BYTE	W48
	BYTE		        As4 
	BYTE	W24
	BYTE	PEND
// 033   ----------------------------------------
	BYTE	PATT
	 POIN2	PokemonRangerGuardianSignsPokemonPincherAdminBattle_3_029
// 034   ----------------------------------------
	BYTE	W24
	BYTE		N36     Ds5   v092
	BYTE	W36
	BYTE		N12     Gs4 
	BYTE	W12
	BYTE		        Gs4   v032
	BYTE	W12
	BYTE		        Gn4   v092
	BYTE	W12
// 035   ----------------------------------------
	BYTE		N72     Fn5 
	BYTE	W72
	BYTE		N24     Fn5   v032
	BYTE	W24
// 036   ----------------------------------------
PokemonRangerGuardianSignsPokemonPincherAdminBattle_3_036:
	BYTE	W24
	BYTE		N48     Ds5   v092
	BYTE	W48
	BYTE		        Cs5 
	BYTE	W24
	BYTE	PEND
// 037   ----------------------------------------
	BYTE	PATT
	 POIN2	PokemonRangerGuardianSignsPokemonPincherAdminBattle_3_032
// 038   ----------------------------------------
	BYTE	W24
	BYTE		N36     Cs5   v092
	BYTE	W36
	BYTE		N12     Cn5 
	BYTE	W12
	BYTE		        Cn5   v032
	BYTE	W12
	BYTE		        As4   v092
	BYTE	W12
// 039   ----------------------------------------
	BYTE		N72     Cn5 
	BYTE	W72
	BYTE		N24     Cn5   v032
	BYTE	W24
// 040   ----------------------------------------
	BYTE	PATT
	 POIN2	PokemonRangerGuardianSignsPokemonPincherAdminBattle_3_036
// 041   ----------------------------------------
	BYTE	PATT
	 POIN2	PokemonRangerGuardianSignsPokemonPincherAdminBattle_3_032
// 042   ----------------------------------------
	BYTE	W24
	BYTE		N36     Gn5   v092
	BYTE	W36
	BYTE		N12     Cn5 
	BYTE	W12
	BYTE		        Cn5   v032
	BYTE	W12
	BYTE		        Ds5   v092
	BYTE	W12
// 043   ----------------------------------------
	BYTE		N24     Fn5 
	BYTE	W24
	BYTE		N48   
	BYTE	W48
	BYTE		N24     Fn5   v032
	BYTE	W24
// 044   ----------------------------------------
	BYTE	W24
	BYTE		        Ds5   v092
	BYTE	W24
	BYTE		        Cs5 
	BYTE	W24
	BYTE		        Cn5 
	BYTE	W24
// 045   ----------------------------------------
	BYTE		        As4 
	BYTE	W24
	BYTE		        Cs5 
	BYTE	W24
	BYTE		        Cn5 
	BYTE	W24
	BYTE		N12     As4 
	BYTE	W12
	BYTE		        Gn4 
	BYTE	W12
// 046   ----------------------------------------
	BYTE		        Gn4   v032
	BYTE	W12
	BYTE		TIE     An4   v092
	BYTE	W56
	BYTE	W01
	BYTE	W18
	BYTE	W09
// 047   ----------------------------------------
	BYTE	W03
	BYTE	W09
	BYTE	W06
	BYTE	W08
	BYTE	W04
	BYTE	W04
	BYTE	W04
	BYTE	W02
	BYTE	W05
	BYTE	W03
	BYTE	W02
	BYTE	W02
	BYTE	W02
	BYTE	W03
	BYTE	W02
	BYTE	W01
	BYTE	W02
	BYTE	W01
	BYTE	W02
	BYTE	W02
	BYTE	W01
	BYTE	W01
	BYTE	W02
	BYTE	W01
	BYTE	W02
	BYTE	W02
	BYTE	W02
	BYTE	W02
	BYTE	W01
	BYTE	W02
	BYTE	W01
	BYTE	W01
	BYTE	W02
	BYTE	W01
	BYTE	W01
	BYTE	W01
	BYTE	W01
	BYTE	W01
	BYTE	W01
	BYTE	W01
	BYTE	W01
	BYTE	W01
// 048   ----------------------------------------
	BYTE	W23
	BYTE	GoTo
	 POIN2	PokemonRangerGuardianSignsPokemonPincherAdminBattle_3_B1
PokemonRangerGuardianSignsPokemonPincherAdminBattle_3_B2:
	BYTE	W01
	BYTE		EOT     An4 
	BYTE	FINE

//**************** Track 4 (Midi-Chn.4) ****************//

PokemonRangerGuardianSignsPokemonPincherAdminBattle_4:
	BYTE	KEYSH   PokemonRangerGuardianSignsPokemonPincherAdminBattle_key+0
// 000   ----------------------------------------
	BYTE		VOICE   62
	BYTE		VOL     90*PokemonRangerGuardianSignsPokemonPincherAdminBattle_mvl/mxv
	BYTE		PAN     c_v+0
	BYTE		MOD     0
	BYTE		        5
	BYTE	W23
	BYTE		N12     Gn4   v100
	BYTE	W12
	BYTE		N06     Fs4 
	BYTE	W06
	BYTE		        Fs4   v040
	BYTE	W06
	BYTE		        Dn4   v100
	BYTE	W06
	BYTE		        Dn4   v040
	BYTE	W06
	BYTE		N12     Fn4   v100
	BYTE	W12
	BYTE		N06     En4 
	BYTE	W06
	BYTE		        En4   v040
	BYTE	W06
	BYTE		        Cn4   v100
	BYTE	W06
	BYTE		        Cn4   v040
	BYTE	W06
	BYTE		N12     Gn4   v100
	BYTE	W01
// 001   ----------------------------------------
	BYTE	W11
	BYTE		N06     Fs4 
	BYTE	W06
	BYTE		        Fs4   v040
	BYTE	W06
	BYTE		        Dn4   v100
	BYTE	W06
	BYTE		        Dn4   v040
	BYTE	W06
	BYTE		N12     Fn4   v100
	BYTE	W12
	BYTE		N06     En4 
	BYTE	W06
	BYTE		        En4   v040
	BYTE	W06
	BYTE		        Cn4   v100
	BYTE	W06
	BYTE		        Cn4   v040
	BYTE	W06
	BYTE		N24     Cn4   v072
	BYTE		N24     Fn4   v100
	BYTE	W24
	BYTE		        Dn4   v072
	BYTE		N24     Gn4   v100
	BYTE	W01
// 002   ----------------------------------------
	BYTE	W23
PokemonRangerGuardianSignsPokemonPincherAdminBattle_4_B1:
	BYTE	W72
	BYTE	W01
// 003   ----------------------------------------
	BYTE	W96
// 004   ----------------------------------------
	BYTE	W96
// 005   ----------------------------------------
	BYTE	W96
// 006   ----------------------------------------
	BYTE	W96
// 007   ----------------------------------------
	BYTE	W96
// 008   ----------------------------------------
	BYTE	W96
// 009   ----------------------------------------
	BYTE	W96
// 010   ----------------------------------------
	BYTE	W96
// 011   ----------------------------------------
	BYTE	W96
// 012   ----------------------------------------
	BYTE	W96
// 013   ----------------------------------------
	BYTE	W96
// 014   ----------------------------------------
	BYTE	W96
// 015   ----------------------------------------
	BYTE	W96
// 016   ----------------------------------------
	BYTE	W96
// 017   ----------------------------------------
	BYTE	W96
// 018   ----------------------------------------
	BYTE	W96
// 019   ----------------------------------------
	BYTE	W96
// 020   ----------------------------------------
	BYTE	W96
// 021   ----------------------------------------
	BYTE	W96
// 022   ----------------------------------------
	BYTE	W96
// 023   ----------------------------------------
	BYTE	W96
// 024   ----------------------------------------
	BYTE	W96
// 025   ----------------------------------------
	BYTE	W96
// 026   ----------------------------------------
	BYTE	W96
// 027   ----------------------------------------
	BYTE	W96
// 028   ----------------------------------------
	BYTE	W96
// 029   ----------------------------------------
	BYTE	W96
// 030   ----------------------------------------
	BYTE	W96
// 031   ----------------------------------------
	BYTE	W96
// 032   ----------------------------------------
	BYTE	W96
// 033   ----------------------------------------
	BYTE	W96
// 034   ----------------------------------------
	BYTE	W96
// 035   ----------------------------------------
	BYTE	W96
// 036   ----------------------------------------
	BYTE	W96
// 037   ----------------------------------------
	BYTE	W96
// 038   ----------------------------------------
	BYTE	W96
// 039   ----------------------------------------
	BYTE	W96
// 040   ----------------------------------------
	BYTE	W96
// 041   ----------------------------------------
	BYTE	W96
// 042   ----------------------------------------
	BYTE	W96
// 043   ----------------------------------------
	BYTE	W96
// 044   ----------------------------------------
	BYTE	W96
// 045   ----------------------------------------
	BYTE	W96
// 046   ----------------------------------------
	BYTE	W96
// 047   ----------------------------------------
	BYTE	W96
// 048   ----------------------------------------
	BYTE	W23
	BYTE	GoTo
	 POIN2	PokemonRangerGuardianSignsPokemonPincherAdminBattle_4_B1
PokemonRangerGuardianSignsPokemonPincherAdminBattle_4_B2:
	BYTE	W01
	BYTE	FINE

//**************** Track 5 (Midi-Chn.5) ****************//

PokemonRangerGuardianSignsPokemonPincherAdminBattle_5:
	BYTE	KEYSH   PokemonRangerGuardianSignsPokemonPincherAdminBattle_key+0
// 000   ----------------------------------------
	BYTE		VOICE   15
	BYTE		VOL     90*PokemonRangerGuardianSignsPokemonPincherAdminBattle_mvl/mxv
	BYTE		PAN     c_v+0
	BYTE		MOD     0
	BYTE	W24
	BYTE		PAN     c_v-20
	BYTE		N12     Gn4   v092
	BYTE	W12
	BYTE		PAN     c_v+20
	BYTE		N06     Fs4 
	BYTE	W06
	BYTE		        Fs4   v052
	BYTE	W06
	BYTE		PAN     c_v-20
	BYTE		N06     Dn4   v092
	BYTE	W06
	BYTE		        Dn4   v052
	BYTE	W06
	BYTE		PAN     c_v+20
	BYTE		N12     Fn4   v092
	BYTE	W12
	BYTE		PAN     c_v-20
	BYTE		N06     En4 
	BYTE	W06
	BYTE		        En4   v052
	BYTE	W06
	BYTE		PAN     c_v+20
	BYTE		N06     Cn4   v092
	BYTE	W06
	BYTE		        Cn4   v052
	BYTE	W06
// 001   ----------------------------------------
	BYTE		PAN     c_v-20
	BYTE		N12     Gn4   v092
	BYTE	W12
	BYTE		PAN     c_v+20
	BYTE		N06     Fs4 
	BYTE	W06
	BYTE		        Fs4   v052
	BYTE	W06
	BYTE		PAN     c_v-20
	BYTE		N06     Dn4   v092
	BYTE	W06
	BYTE		        Dn4   v052
	BYTE	W06
	BYTE		PAN     c_v+20
	BYTE		N12     Fn4   v092
	BYTE	W12
	BYTE		PAN     c_v-20
	BYTE		N06     En4 
	BYTE	W06
	BYTE		        En4   v052
	BYTE	W06
	BYTE		PAN     c_v+20
	BYTE		N06     Cn4   v092
	BYTE	W06
	BYTE		        Cn4   v052
	BYTE	W06
	BYTE		PAN     c_v-20
	BYTE		N06     Fn4   v112
	BYTE	W06
	BYTE		        As3 
	BYTE	W06
	BYTE		        Cn4 
	BYTE	W06
	BYTE		        Fn4 
	BYTE	W06
// 002   ----------------------------------------
	BYTE		PAN     c_v+20
	BYTE		N06     Gn4 
	BYTE	W06
	BYTE		        Cn5 
	BYTE	W06
	BYTE		        Dn5 
	BYTE	W06
	BYTE		        Gn5 
	BYTE	W05
PokemonRangerGuardianSignsPokemonPincherAdminBattle_5_B1:
	BYTE	W01
	BYTE		PAN     c_v-20
	BYTE	W24
	BYTE		        c_v+20
	BYTE	W24
	BYTE		        c_v-20
	BYTE	W24
// 003   ----------------------------------------
	BYTE	W96
// 004   ----------------------------------------
	BYTE	W96
// 005   ----------------------------------------
	BYTE	W96
// 006   ----------------------------------------
	BYTE	W96
// 007   ----------------------------------------
	BYTE	W96
// 008   ----------------------------------------
	BYTE	W96
// 009   ----------------------------------------
	BYTE	W96
// 010   ----------------------------------------
	BYTE	W96
// 011   ----------------------------------------
	BYTE	W96
// 012   ----------------------------------------
	BYTE	W96
// 013   ----------------------------------------
	BYTE	W96
// 014   ----------------------------------------
	BYTE	W96
// 015   ----------------------------------------
	BYTE	W96
// 016   ----------------------------------------
	BYTE	W96
// 017   ----------------------------------------
	BYTE	W96
// 018   ----------------------------------------
	BYTE	W96
// 019   ----------------------------------------
	BYTE	W96
// 020   ----------------------------------------
	BYTE	W96
// 021   ----------------------------------------
	BYTE	W96
// 022   ----------------------------------------
	BYTE	W96
// 023   ----------------------------------------
	BYTE	W96
// 024   ----------------------------------------
	BYTE	W96
// 025   ----------------------------------------
	BYTE	W96
// 026   ----------------------------------------
	BYTE	W96
// 027   ----------------------------------------
	BYTE	W96
// 028   ----------------------------------------
	BYTE	W96
// 029   ----------------------------------------
	BYTE	W96
// 030   ----------------------------------------
	BYTE	W96
// 031   ----------------------------------------
	BYTE	W96
// 032   ----------------------------------------
	BYTE	W96
// 033   ----------------------------------------
	BYTE	W96
// 034   ----------------------------------------
	BYTE	W96
// 035   ----------------------------------------
	BYTE	W96
// 036   ----------------------------------------
	BYTE	W96
// 037   ----------------------------------------
	BYTE	W96
// 038   ----------------------------------------
	BYTE	W96
// 039   ----------------------------------------
	BYTE	W96
// 040   ----------------------------------------
	BYTE	W96
// 041   ----------------------------------------
	BYTE	W96
// 042   ----------------------------------------
	BYTE	W96
// 043   ----------------------------------------
	BYTE	W96
// 044   ----------------------------------------
	BYTE	W96
// 045   ----------------------------------------
	BYTE	W96
// 046   ----------------------------------------
	BYTE	W96
// 047   ----------------------------------------
	BYTE	W96
// 048   ----------------------------------------
	BYTE	W23
	BYTE	GoTo
	 POIN2	PokemonRangerGuardianSignsPokemonPincherAdminBattle_5_B1
PokemonRangerGuardianSignsPokemonPincherAdminBattle_5_B2:
	BYTE	W01
	BYTE	FINE

//**************** Track 6 (Midi-Chn.6) ****************//

PokemonRangerGuardianSignsPokemonPincherAdminBattle_6:
	BYTE	KEYSH   PokemonRangerGuardianSignsPokemonPincherAdminBattle_key+0
// 000   ----------------------------------------
	BYTE		VOICE   48
	BYTE		VOL     80*PokemonRangerGuardianSignsPokemonPincherAdminBattle_mvl/mxv
	BYTE		PAN     c_v+0
	BYTE		MOD     0
	BYTE	W96
// 001   ----------------------------------------
	BYTE	W96
// 002   ----------------------------------------
	BYTE	W23
PokemonRangerGuardianSignsPokemonPincherAdminBattle_6_B1:
	BYTE		N84     En3   v092
	BYTE	W72
	BYTE	W01
// 003   ----------------------------------------
PokemonRangerGuardianSignsPokemonPincherAdminBattle_6_003:
	BYTE	W11
	BYTE		N96     Fs3   v092
	BYTE	W84
	BYTE	W01
	BYTE	PEND
// 004   ----------------------------------------
PokemonRangerGuardianSignsPokemonPincherAdminBattle_6_004:
	BYTE	W11
	BYTE		N96     An3   v092
	BYTE	W84
	BYTE	W01
	BYTE	PEND
// 005   ----------------------------------------
PokemonRangerGuardianSignsPokemonPincherAdminBattle_6_005:
	BYTE	W11
	BYTE		N48     Bn3   v092
	BYTE	W48
	BYTE		        Gn3 
	BYTE	W36
	BYTE	W01
	BYTE	PEND
// 006   ----------------------------------------
PokemonRangerGuardianSignsPokemonPincherAdminBattle_6_006:
	BYTE	W11
	BYTE		N96     En3   v092
	BYTE	W84
	BYTE	W01
	BYTE	PEND
// 007   ----------------------------------------
	BYTE	PATT
	 POIN2	PokemonRangerGuardianSignsPokemonPincherAdminBattle_6_003
// 008   ----------------------------------------
	BYTE	PATT
	 POIN2	PokemonRangerGuardianSignsPokemonPincherAdminBattle_6_004
// 009   ----------------------------------------
	BYTE	PATT
	 POIN2	PokemonRangerGuardianSignsPokemonPincherAdminBattle_6_005
// 010   ----------------------------------------
	BYTE	PATT
	 POIN2	PokemonRangerGuardianSignsPokemonPincherAdminBattle_6_006
// 011   ----------------------------------------
	BYTE	PATT
	 POIN2	PokemonRangerGuardianSignsPokemonPincherAdminBattle_6_003
// 012   ----------------------------------------
	BYTE	PATT
	 POIN2	PokemonRangerGuardianSignsPokemonPincherAdminBattle_6_004
// 013   ----------------------------------------
	BYTE	PATT
	 POIN2	PokemonRangerGuardianSignsPokemonPincherAdminBattle_6_005
// 014   ----------------------------------------
	BYTE	PATT
	 POIN2	PokemonRangerGuardianSignsPokemonPincherAdminBattle_6_006
// 015   ----------------------------------------
	BYTE	PATT
	 POIN2	PokemonRangerGuardianSignsPokemonPincherAdminBattle_6_003
// 016   ----------------------------------------
	BYTE	PATT
	 POIN2	PokemonRangerGuardianSignsPokemonPincherAdminBattle_6_004
// 017   ----------------------------------------
	BYTE	PATT
	 POIN2	PokemonRangerGuardianSignsPokemonPincherAdminBattle_6_005
// 018   ----------------------------------------
	BYTE	W11
	BYTE		N12     Gn3   v052
	BYTE	W12
	BYTE		N84     Gs3   v092
	BYTE	W72
	BYTE	W01
// 019   ----------------------------------------
	BYTE	W11
	BYTE		N96     Fn3 
	BYTE	W84
	BYTE	W01
// 020   ----------------------------------------
	BYTE	W11
	BYTE		N84     Gn3 
	BYTE	W84
	BYTE	W01
// 021   ----------------------------------------
	BYTE	W11
	BYTE		N30     As3 
	BYTE	W36
	BYTE		N18   
	BYTE	W24
	BYTE		N12   
	BYTE	W12
	BYTE		N12   
	BYTE	W12
	BYTE		        As3   v052
	BYTE	W01
// 022   ----------------------------------------
	BYTE	W23
	BYTE		N84     Gs3   v092
	BYTE	W72
	BYTE	W01
// 023   ----------------------------------------
	BYTE	W11
	BYTE		N96     As3 
	BYTE	W84
	BYTE	W01
// 024   ----------------------------------------
	BYTE	W11
	BYTE		        Bn3 
	BYTE	W84
	BYTE	W01
// 025   ----------------------------------------
	BYTE	W11
	BYTE		N36     Cs4 
	BYTE	W36
	BYTE		N12     Cs4   v072
	BYTE	W12
	BYTE		N44     Fn4   v092
	BYTE	W36
	BYTE	W01
// 026   ----------------------------------------
	BYTE	W10
	BYTE		VOICE   62
	BYTE	W01
	BYTE		N36     As4   v120
	BYTE	W36
	BYTE		N12     As4   v072
	BYTE	W12
	BYTE		N60     As4   v120
	BYTE	W36
	BYTE	W01
// 027   ----------------------------------------
	BYTE	W23
	BYTE		N06     Cn4 
	BYTE	W06
	BYTE		        Cn4   v080
	BYTE	W06
	BYTE		        Cn5   v120
	BYTE	W06
	BYTE		        Cn5   v080
	BYTE	W06
	BYTE		        Cn5   v120
	BYTE	W06
	BYTE		        Cn5   v080
	BYTE	W06
	BYTE		N09     Cn5   v120
	BYTE	W12
	BYTE		N12     Cn5   v080
	BYTE	W24
	BYTE	W01
// 028   ----------------------------------------
	BYTE	W11
	BYTE		VOICE   48
	BYTE	W12
	BYTE		N96     Gs3   v092
	BYTE	W72
	BYTE	W01
// 029   ----------------------------------------
PokemonRangerGuardianSignsPokemonPincherAdminBattle_6_029:
	BYTE	W23
	BYTE		N48     Gs3   v092
	BYTE	W48
	BYTE		        Gn3 
	BYTE	W24
	BYTE	W01
	BYTE	PEND
// 030   ----------------------------------------
PokemonRangerGuardianSignsPokemonPincherAdminBattle_6_030:
	BYTE	W23
	BYTE		N36     As3   v092
	BYTE	W36
	BYTE		        As3   v052
	BYTE	W36
	BYTE		N66     Gs3   v092
	BYTE	W01
	BYTE	PEND
// 031   ----------------------------------------
PokemonRangerGuardianSignsPokemonPincherAdminBattle_6_031:
	BYTE	W64
	BYTE	W01
	BYTE		N06     Gs3   v052
	BYTE	W06
	BYTE		        Gs3   v100
	BYTE	W06
	BYTE		        Gs3   v052
	BYTE	W06
	BYTE		N24     Gn3   v100
	BYTE	W13
	BYTE	PEND
// 032   ----------------------------------------
PokemonRangerGuardianSignsPokemonPincherAdminBattle_6_032:
	BYTE	W11
	BYTE		N12     Gn3   v052
	BYTE	W12
	BYTE		N96     Gs3   v092
	BYTE	W72
	BYTE	W01
	BYTE	PEND
// 033   ----------------------------------------
	BYTE	PATT
	 POIN2	PokemonRangerGuardianSignsPokemonPincherAdminBattle_6_029
// 034   ----------------------------------------
	BYTE	W23
	BYTE		N36     As3   v092
	BYTE	W36
	BYTE		N48     Gs3 
	BYTE	W36
	BYTE	W01
// 035   ----------------------------------------
	BYTE	W11
	BYTE		N12     Gs3   v052
	BYTE	W12
	BYTE		N24     Cn4   v112
	BYTE	W24
	BYTE		N12     Cn4   v080
	BYTE	W12
	BYTE		        Cn4   v112
	BYTE	W12
	BYTE		        Cn4   v080
	BYTE	W12
	BYTE		N36     Fn4   v100
	BYTE	W13
// 036   ----------------------------------------
	BYTE	W23
	BYTE		N96     Gs3   v092
	BYTE	W72
	BYTE	W01
// 037   ----------------------------------------
	BYTE	PATT
	 POIN2	PokemonRangerGuardianSignsPokemonPincherAdminBattle_6_029
// 038   ----------------------------------------
	BYTE	PATT
	 POIN2	PokemonRangerGuardianSignsPokemonPincherAdminBattle_6_030
// 039   ----------------------------------------
	BYTE	PATT
	 POIN2	PokemonRangerGuardianSignsPokemonPincherAdminBattle_6_031
// 040   ----------------------------------------
	BYTE	PATT
	 POIN2	PokemonRangerGuardianSignsPokemonPincherAdminBattle_6_032
// 041   ----------------------------------------
	BYTE	PATT
	 POIN2	PokemonRangerGuardianSignsPokemonPincherAdminBattle_6_029
// 042   ----------------------------------------
	BYTE	W23
	BYTE		N36     As3   v092
	BYTE	W36
	BYTE		N48     Gn3 
	BYTE	W36
	BYTE	W01
// 043   ----------------------------------------
	BYTE	W11
	BYTE		N12     Gn3   v052
	BYTE	W12
	BYTE		N24     Cn4   v092
	BYTE	W24
	BYTE		N12     Cn4   v060
	BYTE	W12
	BYTE		        Cn4   v092
	BYTE	W12
	BYTE		        Cn4   v060
	BYTE	W12
	BYTE		N36     Fn4   v100
	BYTE	W13
// 044   ----------------------------------------
	BYTE	W23
	BYTE		N48     Gs3 
	BYTE	W48
	BYTE		        Gn3 
	BYTE	W24
	BYTE	W01
// 045   ----------------------------------------
	BYTE	W23
	BYTE		        Gs3 
	BYTE	W48
	BYTE		N36     As3 
	BYTE	W24
	BYTE	W01
// 046   ----------------------------------------
	BYTE	W11
	BYTE		TIE     An3 
	BYTE	W60
	BYTE	W20
	BYTE	W05
// 047   ----------------------------------------
	BYTE	W08
	BYTE	W09
	BYTE	W06
	BYTE	W08
	BYTE	W05
	BYTE	W04
	BYTE	W04
	BYTE	W03
	BYTE	W05
	BYTE	W03
	BYTE	W02
	BYTE	W02
	BYTE	W02
	BYTE	W03
	BYTE	W03
	BYTE	W01
	BYTE	W02
	BYTE	W01
	BYTE	W02
	BYTE	W02
	BYTE	W01
	BYTE	W02
	BYTE	W01
	BYTE	W02
	BYTE	W01
	BYTE	W01
	BYTE	W02
	BYTE	W02
	BYTE	W01
	BYTE	W01
	BYTE	W01
	BYTE	W01
	BYTE	W01
	BYTE	W01
	BYTE	W01
	BYTE	W01
	BYTE	W01
// 048   ----------------------------------------
	BYTE	W01
	BYTE	W01
	BYTE	W01
	BYTE	W01
	BYTE	W01
	BYTE	W01
	BYTE	W01
	BYTE	W01
	BYTE	W01
	BYTE	W01
	BYTE	W01
	BYTE	W01
	BYTE	W01
	BYTE	W01
	BYTE	W01
	BYTE	W01
	BYTE	W01
	BYTE	W01
	BYTE	W01
	BYTE	W01
	BYTE	W01
	BYTE	W01
	BYTE	W01
	BYTE		EOT   
	BYTE	GoTo
	 POIN2	PokemonRangerGuardianSignsPokemonPincherAdminBattle_6_B1
PokemonRangerGuardianSignsPokemonPincherAdminBattle_6_B2:
	BYTE	W01
	BYTE	FINE

//**************** Track 7 (Midi-Chn.7) ****************//

PokemonRangerGuardianSignsPokemonPincherAdminBattle_7:
	BYTE	KEYSH   PokemonRangerGuardianSignsPokemonPincherAdminBattle_key+0
// 000   ----------------------------------------
	BYTE		VOICE   30
	BYTE		VOL     120*PokemonRangerGuardianSignsPokemonPincherAdminBattle_mvl/mxv
	BYTE		PAN     c_v+0
	BYTE		MOD     0
	BYTE		        10
	BYTE	W24
	BYTE		N12     Gn2   v100
	BYTE	W12
	BYTE		N06     Fs2 
	BYTE	W06
	BYTE		        Fs2   v040
	BYTE	W06
	BYTE		        Dn2   v100
	BYTE	W06
	BYTE		        Dn2   v040
	BYTE	W06
	BYTE		N12     Fn2   v100
	BYTE	W12
	BYTE		N06     En2 
	BYTE	W06
	BYTE		        En2   v040
	BYTE	W06
	BYTE		        Cn2   v100
	BYTE	W06
	BYTE		        Cn2   v040
	BYTE	W06
// 001   ----------------------------------------
	BYTE		N12     Gn2   v100
	BYTE	W12
	BYTE		N06     Fs2 
	BYTE	W06
	BYTE		        Fs2   v040
	BYTE	W06
	BYTE		        Dn2   v100
	BYTE	W06
	BYTE		        Dn2   v040
	BYTE	W06
	BYTE		N12     Fn2   v100
	BYTE	W12
	BYTE		N06     En2 
	BYTE	W06
	BYTE		        En2   v040
	BYTE	W06
	BYTE		        Cn2   v100
	BYTE	W06
	BYTE		        Cn2   v040
	BYTE	W06
	BYTE		N24     Fn1   v100
	BYTE		N24     Cn2   v072
	BYTE	W24
// 002   ----------------------------------------
	BYTE		        Gn1   v100
	BYTE		N24     Dn2   v072
	BYTE	W23
PokemonRangerGuardianSignsPokemonPincherAdminBattle_7_B1:
	BYTE	W01
	BYTE		N06     An1   v116
	BYTE	W06
	BYTE		        An1   v060
	BYTE	W06
	BYTE		        An1   v116
	BYTE	W06
	BYTE		        An1   v060
	BYTE	W06
	BYTE		        An1   v116
	BYTE	W06
	BYTE		        An1   v060
	BYTE	W06
	BYTE		        An1   v116
	BYTE	W06
	BYTE		        An1   v060
	BYTE	W06
	BYTE		        An1   v116
	BYTE	W06
	BYTE		        An1   v060
	BYTE	W06
	BYTE		        An1   v116
	BYTE	W06
	BYTE		        An1   v060
	BYTE	W06
// 003   ----------------------------------------
PokemonRangerGuardianSignsPokemonPincherAdminBattle_7_003:
	BYTE		N06     An1   v116
	BYTE	W06
	BYTE		        An1   v060
	BYTE	W06
	BYTE		N18     An1   v116
	BYTE	W18
	BYTE		N06     An1   v060
	BYTE	W06
	BYTE		        An1   v116
	BYTE	W06
	BYTE		        An1   v060
	BYTE	W06
	BYTE		        An1   v116
	BYTE	W06
	BYTE		        An1   v060
	BYTE	W06
	BYTE		        An1   v116
	BYTE	W06
	BYTE		        An1   v060
	BYTE	W06
	BYTE		        An1   v116
	BYTE	W06
	BYTE		        An1   v060
	BYTE	W06
	BYTE		        An1   v116
	BYTE	W06
	BYTE		        An1   v060
	BYTE	W06
	BYTE	PEND
// 004   ----------------------------------------
	BYTE	PATT
	 POIN2	PokemonRangerGuardianSignsPokemonPincherAdminBattle_7_003
// 005   ----------------------------------------
PokemonRangerGuardianSignsPokemonPincherAdminBattle_7_005:
	BYTE		N06     An1   v116
	BYTE	W06
	BYTE		        An1   v060
	BYTE	W06
	BYTE		N18     An1   v116
	BYTE	W18
	BYTE		N06     An1   v060
	BYTE	W06
	BYTE		        An1   v116
	BYTE	W06
	BYTE		        An1   v060
	BYTE	W06
	BYTE		        An1   v116
	BYTE	W06
	BYTE		        An1   v060
	BYTE	W06
	BYTE		N18     An1   v116
	BYTE	W18
	BYTE		N06     An1   v060
	BYTE	W06
	BYTE		        An1   v116
	BYTE	W06
	BYTE		        An1   v060
	BYTE	W06
	BYTE	PEND
// 006   ----------------------------------------
	BYTE	PATT
	 POIN2	PokemonRangerGuardianSignsPokemonPincherAdminBattle_7_003
// 007   ----------------------------------------
	BYTE	PATT
	 POIN2	PokemonRangerGuardianSignsPokemonPincherAdminBattle_7_003
// 008   ----------------------------------------
PokemonRangerGuardianSignsPokemonPincherAdminBattle_7_008:
	BYTE		N06     An1   v116
	BYTE	W06
	BYTE		        An1   v060
	BYTE	W06
	BYTE		N18     Fn1   v116
	BYTE	W18
	BYTE		N06     Fn1   v060
	BYTE	W06
	BYTE		        Fn1   v116
	BYTE	W06
	BYTE		        Fn1   v060
	BYTE	W06
	BYTE		        Fn1   v116
	BYTE	W06
	BYTE		        Fn1   v060
	BYTE	W06
	BYTE		        Fn1   v116
	BYTE	W06
	BYTE		        Fn1   v060
	BYTE	W06
	BYTE		        Fn1   v116
	BYTE	W06
	BYTE		        Fn1   v060
	BYTE	W06
	BYTE		        Fn1   v116
	BYTE	W06
	BYTE		        Fn1   v060
	BYTE	W06
	BYTE	PEND
// 009   ----------------------------------------
PokemonRangerGuardianSignsPokemonPincherAdminBattle_7_009:
	BYTE		N06     Fn1   v116
	BYTE	W06
	BYTE		        Fn1   v060
	BYTE	W06
	BYTE		N18     Gn1   v116
	BYTE	W18
	BYTE		N06     Gn1   v060
	BYTE	W06
	BYTE		        Gn1   v116
	BYTE	W06
	BYTE		        Gn1   v060
	BYTE	W06
	BYTE		        Gn1   v116
	BYTE	W06
	BYTE		        Gn1   v060
	BYTE	W06
	BYTE		N18     Gn1   v116
	BYTE	W18
	BYTE		N06     Gn1   v060
	BYTE	W06
	BYTE		        Gn1   v116
	BYTE	W06
	BYTE		        Gn1   v060
	BYTE	W06
	BYTE	PEND
// 010   ----------------------------------------
	BYTE		        Gn1   v116
	BYTE	W06
	BYTE		        Gn1   v060
	BYTE	W06
	BYTE		N18     An1   v116
	BYTE	W18
	BYTE		N06     An1   v060
	BYTE	W06
	BYTE		        An1   v116
	BYTE	W06
	BYTE		        An1   v060
	BYTE	W06
	BYTE		        An1   v116
	BYTE	W06
	BYTE		        An1   v060
	BYTE	W06
	BYTE		        An1   v116
	BYTE	W06
	BYTE		        An1   v060
	BYTE	W06
	BYTE		        An1   v116
	BYTE	W06
	BYTE		        An1   v060
	BYTE	W06
	BYTE		        An1   v116
	BYTE	W06
	BYTE		        An1   v060
	BYTE	W06
// 011   ----------------------------------------
	BYTE	PATT
	 POIN2	PokemonRangerGuardianSignsPokemonPincherAdminBattle_7_003
// 012   ----------------------------------------
	BYTE	PATT
	 POIN2	PokemonRangerGuardianSignsPokemonPincherAdminBattle_7_003
// 013   ----------------------------------------
	BYTE	PATT
	 POIN2	PokemonRangerGuardianSignsPokemonPincherAdminBattle_7_005
// 014   ----------------------------------------
	BYTE	PATT
	 POIN2	PokemonRangerGuardianSignsPokemonPincherAdminBattle_7_003
// 015   ----------------------------------------
	BYTE	PATT
	 POIN2	PokemonRangerGuardianSignsPokemonPincherAdminBattle_7_003
// 016   ----------------------------------------
	BYTE	PATT
	 POIN2	PokemonRangerGuardianSignsPokemonPincherAdminBattle_7_008
// 017   ----------------------------------------
	BYTE	PATT
	 POIN2	PokemonRangerGuardianSignsPokemonPincherAdminBattle_7_009
// 018   ----------------------------------------
	BYTE		N06     Gn1   v116
	BYTE	W06
	BYTE		        Gn1   v060
	BYTE	W06
	BYTE		        Gn1   v116
	BYTE	W06
	BYTE		        Gn1   v060
	BYTE	W06
	BYTE		        Gs1   v100
	BYTE	W06
	BYTE		        Gs1   v060
	BYTE	W06
	BYTE		        Gs1   v100
	BYTE	W06
	BYTE		        Gs1   v060
	BYTE	W06
	BYTE		        Gs1   v100
	BYTE	W06
	BYTE		        Gs1   v060
	BYTE	W06
	BYTE		        Gs1   v100
	BYTE	W06
	BYTE		        Gs1   v060
	BYTE	W06
	BYTE		        Gs1   v100
	BYTE	W06
	BYTE		        Gs1   v060
	BYTE	W06
	BYTE		        Gs1   v100
	BYTE	W06
	BYTE		        Gs1   v060
	BYTE	W06
// 019   ----------------------------------------
PokemonRangerGuardianSignsPokemonPincherAdminBattle_7_019:
	BYTE		N06     Gs1   v100
	BYTE	W06
	BYTE		        Gs1   v060
	BYTE	W06
	BYTE		N18     As1   v100
	BYTE	W18
	BYTE		N06     As1   v060
	BYTE	W06
	BYTE		        As1   v100
	BYTE	W06
	BYTE		        As1   v060
	BYTE	W06
	BYTE		        As1   v100
	BYTE	W06
	BYTE		        As1   v060
	BYTE	W06
	BYTE		        As1   v100
	BYTE	W06
	BYTE		        As1   v060
	BYTE	W06
	BYTE		        As1   v100
	BYTE	W06
	BYTE		        As1   v060
	BYTE	W06
	BYTE		        As1   v100
	BYTE	W06
	BYTE		        As1   v060
	BYTE	W06
	BYTE	PEND
// 020   ----------------------------------------
	BYTE		        As1   v100
	BYTE	W06
	BYTE		        As1   v060
	BYTE	W06
	BYTE		N18     Cn2   v100
	BYTE	W18
	BYTE		N06     Cn2   v060
	BYTE	W06
	BYTE		        Cn2   v100
	BYTE	W06
	BYTE		        Cn2   v060
	BYTE	W06
	BYTE		        Cn2   v100
	BYTE	W06
	BYTE		        Cn2   v060
	BYTE	W06
	BYTE		        Cn2   v100
	BYTE	W06
	BYTE		        Cn2   v060
	BYTE	W06
	BYTE		        Cn2   v100
	BYTE	W06
	BYTE		        Cn2   v060
	BYTE	W06
	BYTE		        Cn2   v100
	BYTE	W06
	BYTE		        Cn2   v060
	BYTE	W06
// 021   ----------------------------------------
	BYTE		        Cn2   v100
	BYTE	W06
	BYTE		        Cn2   v060
	BYTE	W06
	BYTE		N36     Ds2   v100
	BYTE	W36
	BYTE		N24     Dn2 
	BYTE	W24
	BYTE		N12     Cn2 
	BYTE	W12
	BYTE		        As1 
	BYTE	W12
// 022   ----------------------------------------
	BYTE		        As1   v060
	BYTE	W12
	BYTE		N18     Gs1   v100
	BYTE	W18
	BYTE		N06     Gs1   v060
	BYTE	W06
	BYTE		        Gs1   v100
	BYTE	W06
	BYTE		        Gs1   v060
	BYTE	W06
	BYTE		        Gs1   v100
	BYTE	W06
	BYTE		        Gs1   v060
	BYTE	W06
	BYTE		        Gs1   v100
	BYTE	W06
	BYTE		        Gs1   v060
	BYTE	W06
	BYTE		        Gs1   v100
	BYTE	W06
	BYTE		        Gs1   v060
	BYTE	W06
	BYTE		        Gs1   v100
	BYTE	W06
	BYTE		        Gs1   v060
	BYTE	W06
// 023   ----------------------------------------
	BYTE	PATT
	 POIN2	PokemonRangerGuardianSignsPokemonPincherAdminBattle_7_019
// 024   ----------------------------------------
	BYTE		N06     As1   v100
	BYTE	W06
	BYTE		        As1   v060
	BYTE	W06
	BYTE		N18     Bn1   v100
	BYTE	W18
	BYTE		N06     Bn1   v060
	BYTE	W06
	BYTE		        Bn1   v100
	BYTE	W06
	BYTE		        Bn1   v060
	BYTE	W06
	BYTE		        Bn1   v100
	BYTE	W06
	BYTE		        Bn1   v060
	BYTE	W06
	BYTE		        Bn1   v100
	BYTE	W06
	BYTE		        Bn1   v060
	BYTE	W06
	BYTE		        Bn1   v100
	BYTE	W06
	BYTE		        Bn1   v060
	BYTE	W06
	BYTE		        Bn1   v100
	BYTE	W06
	BYTE		        Bn1   v060
	BYTE	W06
// 025   ----------------------------------------
	BYTE		        Bn1   v100
	BYTE	W06
	BYTE		        Bn1   v060
	BYTE	W06
	BYTE		N18     Cs2   v100
	BYTE	W18
	BYTE		N06     Cs2   v060
	BYTE	W06
	BYTE		        Cs2   v100
	BYTE	W06
	BYTE		        Cs2   v060
	BYTE	W06
	BYTE		        Cs2   v100
	BYTE	W06
	BYTE		        Cs2   v060
	BYTE	W06
	BYTE		        Cs2   v100
	BYTE	W06
	BYTE		        Cs2   v060
	BYTE	W06
	BYTE		        Cs2   v100
	BYTE	W06
	BYTE		        Cs2   v060
	BYTE	W06
	BYTE		        Cs2   v100
	BYTE	W06
	BYTE		        Cs2   v060
	BYTE	W06
// 026   ----------------------------------------
	BYTE		        Cs2   v100
	BYTE	W06
	BYTE		        Cs2   v060
	BYTE	W06
	BYTE		N18     As1   v080
	BYTE		N18     Ds2   v100
	BYTE	W18
	BYTE		N06     As1   v060
	BYTE		N06     Ds2 
	BYTE	W06
	BYTE		        As1   v080
	BYTE		N06     Ds2   v100
	BYTE	W06
	BYTE		        As1   v060
	BYTE		N06     Ds2 
	BYTE	W06
	BYTE		        As1   v080
	BYTE		N06     Ds2   v100
	BYTE	W06
	BYTE		        As1   v060
	BYTE		N06     Ds2 
	BYTE	W06
	BYTE		        As1   v080
	BYTE		N24     Ds2   v100
	BYTE	W24
	BYTE		N06     As1   v080
	BYTE		N06     Ds2   v100
	BYTE	W06
	BYTE		        As1   v060
	BYTE		N06     Ds2 
	BYTE	W06
// 027   ----------------------------------------
	BYTE		        As1   v080
	BYTE		N06     Ds2   v100
	BYTE	W06
	BYTE		        As1   v060
	BYTE		N06     Ds2 
	BYTE	W06
	BYTE		        As1   v080
	BYTE		N06     Ds2   v100
	BYTE	W06
	BYTE		        As1   v060
	BYTE		N06     Ds2 
	BYTE	W06
	BYTE		N12     Gn2   v080
	BYTE		N12     Cn3   v100
	BYTE	W12
	BYTE		N06     Cn2 
	BYTE	W06
	BYTE		        Cn2   v060
	BYTE	W06
	BYTE		        Cn2   v100
	BYTE	W06
	BYTE		        Cn2   v060
	BYTE	W06
	BYTE		N12     Cn2   v100
	BYTE	W12
	BYTE		        Cn2   v060
	BYTE	W24
// 028   ----------------------------------------
	BYTE	W24
	BYTE		N06     Cs2   v080
	BYTE	W06
	BYTE		        Cs2   v040
	BYTE	W06
	BYTE		        Cs2   v080
	BYTE	W06
	BYTE		        Cs2   v040
	BYTE	W06
	BYTE		        Cs2   v080
	BYTE	W06
	BYTE		        Cs2   v040
	BYTE	W06
	BYTE		        Cs2   v080
	BYTE	W06
	BYTE		        Cs2   v040
	BYTE	W06
	BYTE		        Cs2   v080
	BYTE	W06
	BYTE		        Cs2   v040
	BYTE	W06
	BYTE		        Cs2   v080
	BYTE	W06
	BYTE		        Cs2   v040
	BYTE	W06
// 029   ----------------------------------------
PokemonRangerGuardianSignsPokemonPincherAdminBattle_7_029:
	BYTE		N06     Cs2   v080
	BYTE	W06
	BYTE		        Cs2   v040
	BYTE	W06
	BYTE		N04     Cs2   v080
	BYTE	W06
	BYTE		N04   
	BYTE	W06
	BYTE		N06     Ds2 
	BYTE	W06
	BYTE		        Ds2   v040
	BYTE	W06
	BYTE		        Ds2   v080
	BYTE	W06
	BYTE		        Ds2   v040
	BYTE	W06
	BYTE		        Ds2   v080
	BYTE	W06
	BYTE		        Ds2   v040
	BYTE	W06
	BYTE		        Ds2   v080
	BYTE	W06
	BYTE		        Ds2   v040
	BYTE	W06
	BYTE		        Ds2   v080
	BYTE	W06
	BYTE		        Ds2   v040
	BYTE	W06
	BYTE		        Ds2   v080
	BYTE	W06
	BYTE		        Ds2   v040
	BYTE	W06
	BYTE	PEND
// 030   ----------------------------------------
PokemonRangerGuardianSignsPokemonPincherAdminBattle_7_030:
	BYTE		N06     Ds2   v080
	BYTE	W06
	BYTE		        Ds2   v040
	BYTE	W06
	BYTE		        Ds2   v080
	BYTE	W06
	BYTE		        Ds2   v040
	BYTE	W06
	BYTE		        Fn1   v100
	BYTE	W06
	BYTE		        Fn1   v060
	BYTE	W06
	BYTE		        Fn1   v100
	BYTE	W06
	BYTE		        Fn1   v060
	BYTE	W06
	BYTE		        Fn1   v100
	BYTE	W06
	BYTE		        Fn1   v060
	BYTE	W06
	BYTE		        Fn1   v100
	BYTE	W06
	BYTE		        Fn1   v060
	BYTE	W06
	BYTE		        Fn1   v100
	BYTE	W06
	BYTE		        Fn1   v060
	BYTE	W06
	BYTE		        Fn1   v100
	BYTE	W06
	BYTE		        Fn1   v060
	BYTE	W06
	BYTE	PEND
// 031   ----------------------------------------
PokemonRangerGuardianSignsPokemonPincherAdminBattle_7_031:
	BYTE		N06     Fn1   v100
	BYTE	W06
	BYTE		        Fn1   v060
	BYTE	W06
	BYTE		        Fn1   v100
	BYTE	W06
	BYTE		        Fn1   v060
	BYTE	W06
	BYTE		        Fn1   v100
	BYTE	W06
	BYTE		        Fn1   v060
	BYTE	W06
	BYTE		        Fn1   v100
	BYTE	W06
	BYTE		        Fn1   v060
	BYTE	W06
	BYTE		        Fn1   v100
	BYTE	W06
	BYTE		        Fn1   v060
	BYTE	W06
	BYTE		        Fn1   v100
	BYTE	W06
	BYTE		        Fn1   v060
	BYTE	W06
	BYTE		        Cn2   v100
	BYTE		N06     Fn2 
	BYTE	W06
	BYTE		        Cn2   v060
	BYTE		N06     Fn2 
	BYTE	W06
	BYTE		N24     As1   v100
	BYTE		N24     Ds2 
	BYTE	W12
	BYTE	PEND
// 032   ----------------------------------------
PokemonRangerGuardianSignsPokemonPincherAdminBattle_7_032:
	BYTE	W12
	BYTE		N12     As1   v060
	BYTE		N12     Ds2 
	BYTE	W12
	BYTE		N06     As1   v080
	BYTE	W06
	BYTE		        As1   v040
	BYTE	W06
	BYTE		        As1   v080
	BYTE	W06
	BYTE		        As1   v040
	BYTE	W06
	BYTE		        As1   v080
	BYTE	W06
	BYTE		        As1   v040
	BYTE	W06
	BYTE		        As1   v080
	BYTE	W06
	BYTE		        As1   v040
	BYTE	W06
	BYTE		        As1   v080
	BYTE	W06
	BYTE		        As1   v040
	BYTE	W06
	BYTE		        As1   v080
	BYTE	W06
	BYTE		        As1   v040
	BYTE	W06
	BYTE	PEND
// 033   ----------------------------------------
PokemonRangerGuardianSignsPokemonPincherAdminBattle_7_033:
	BYTE		N06     As1   v080
	BYTE	W06
	BYTE		        As1   v040
	BYTE	W06
	BYTE		        As1   v080
	BYTE	W06
	BYTE		        As1   v040
	BYTE	W06
	BYTE		        Ds2   v080
	BYTE	W06
	BYTE		        Ds2   v040
	BYTE	W06
	BYTE		        Ds2   v080
	BYTE	W06
	BYTE		        Ds2   v040
	BYTE	W06
	BYTE		        Ds2   v080
	BYTE	W06
	BYTE		        Ds2   v040
	BYTE	W06
	BYTE		        Ds2   v080
	BYTE	W06
	BYTE		        Ds2   v040
	BYTE	W06
	BYTE		        Cs2   v080
	BYTE	W06
	BYTE		        Cs2   v040
	BYTE	W06
	BYTE		        Cs2   v080
	BYTE	W06
	BYTE		        Cs2   v040
	BYTE	W06
	BYTE	PEND
// 034   ----------------------------------------
PokemonRangerGuardianSignsPokemonPincherAdminBattle_7_034:
	BYTE		N06     Cs2   v080
	BYTE	W06
	BYTE		        Cs2   v040
	BYTE	W06
	BYTE		        Cs2   v080
	BYTE	W06
	BYTE		        Cs2   v040
	BYTE	W06
	BYTE		        Cn2   v080
	BYTE	W06
	BYTE		        Cn2   v040
	BYTE	W06
	BYTE		        Cn2   v080
	BYTE	W06
	BYTE		        Cn2   v040
	BYTE	W06
	BYTE		        Cn2   v080
	BYTE	W06
	BYTE		        Cn2   v040
	BYTE	W06
	BYTE		        Cn2   v080
	BYTE	W06
	BYTE		        Cn2   v040
	BYTE	W06
	BYTE		        Cn2   v080
	BYTE	W06
	BYTE		        Cn2   v040
	BYTE	W06
	BYTE		        Cn2   v080
	BYTE	W06
	BYTE		        Cn2   v040
	BYTE	W06
	BYTE	PEND
// 035   ----------------------------------------
PokemonRangerGuardianSignsPokemonPincherAdminBattle_7_035:
	BYTE		N06     Cn2   v080
	BYTE	W06
	BYTE		        Cn2   v040
	BYTE	W06
	BYTE		        Cn2   v080
	BYTE	W06
	BYTE		        Cn2   v040
	BYTE	W06
	BYTE		        Fn1   v100
	BYTE	W06
	BYTE		        Fn1   v060
	BYTE	W06
	BYTE		        Fn1   v100
	BYTE	W06
	BYTE		        Fn1   v060
	BYTE	W06
	BYTE		        Fn1   v100
	BYTE	W06
	BYTE		        Fn1   v060
	BYTE	W06
	BYTE		N07     Cn2   v072
	BYTE		N07     Fn2   v092
	BYTE	W12
	BYTE		N12     Cn2   v052
	BYTE		N12     Fn2 
	BYTE	W12
	BYTE		N24     Cn2   v072
	BYTE		N24     Fn2   v092
	BYTE	W12
	BYTE	PEND
// 036   ----------------------------------------
	BYTE	W12
	BYTE		N12     Fn2   v040
	BYTE	W12
	BYTE		N06     Cs2   v080
	BYTE	W06
	BYTE		        Cs2   v040
	BYTE	W06
	BYTE		        Cs2   v080
	BYTE	W06
	BYTE		        Cs2   v040
	BYTE	W06
	BYTE		        Cs2   v080
	BYTE	W06
	BYTE		        Cs2   v040
	BYTE	W06
	BYTE		        Cs2   v080
	BYTE	W06
	BYTE		        Cs2   v040
	BYTE	W06
	BYTE		        Cs2   v080
	BYTE	W06
	BYTE		        Cs2   v040
	BYTE	W06
	BYTE		        Cs2   v080
	BYTE	W06
	BYTE		        Cs2   v040
	BYTE	W06
// 037   ----------------------------------------
	BYTE	PATT
	 POIN2	PokemonRangerGuardianSignsPokemonPincherAdminBattle_7_029
// 038   ----------------------------------------
	BYTE	PATT
	 POIN2	PokemonRangerGuardianSignsPokemonPincherAdminBattle_7_030
// 039   ----------------------------------------
	BYTE	PATT
	 POIN2	PokemonRangerGuardianSignsPokemonPincherAdminBattle_7_031
// 040   ----------------------------------------
	BYTE	PATT
	 POIN2	PokemonRangerGuardianSignsPokemonPincherAdminBattle_7_032
// 041   ----------------------------------------
	BYTE	PATT
	 POIN2	PokemonRangerGuardianSignsPokemonPincherAdminBattle_7_033
// 042   ----------------------------------------
	BYTE	PATT
	 POIN2	PokemonRangerGuardianSignsPokemonPincherAdminBattle_7_034
// 043   ----------------------------------------
	BYTE	PATT
	 POIN2	PokemonRangerGuardianSignsPokemonPincherAdminBattle_7_035
// 044   ----------------------------------------
	BYTE	W12
	BYTE		N12     Fn2   v040
	BYTE	W12
	BYTE		N06     As1   v080
	BYTE	W06
	BYTE		        As1   v040
	BYTE	W06
	BYTE		        As1   v080
	BYTE	W06
	BYTE		        As1   v040
	BYTE	W06
	BYTE		        As1   v080
	BYTE	W06
	BYTE		        As1   v040
	BYTE	W06
	BYTE		        As1   v080
	BYTE	W06
	BYTE		        As1   v040
	BYTE	W06
	BYTE		        Cn2   v080
	BYTE	W06
	BYTE		        Cn2   v040
	BYTE	W06
	BYTE		        Cn2   v080
	BYTE	W06
	BYTE		        Cn2   v040
	BYTE	W06
// 045   ----------------------------------------
	BYTE		        Cn2   v080
	BYTE	W06
	BYTE		        Cn2   v040
	BYTE	W06
	BYTE		        Cn2   v080
	BYTE	W06
	BYTE		        Cn2   v040
	BYTE	W06
	BYTE		        Cs2   v080
	BYTE	W06
	BYTE		        Cs2   v040
	BYTE	W06
	BYTE		        Cs2   v100
	BYTE	W06
	BYTE		        Cs2   v060
	BYTE	W06
	BYTE		        Cs2   v100
	BYTE	W06
	BYTE		        Cs2   v060
	BYTE	W06
	BYTE		        Cs2   v100
	BYTE	W06
	BYTE		        Cs2   v060
	BYTE	W06
	BYTE		        Ds2   v100
	BYTE	W06
	BYTE		        Ds2   v060
	BYTE	W06
	BYTE		        Ds2   v100
	BYTE	W06
	BYTE		        Ds2   v060
	BYTE	W06
// 046   ----------------------------------------
	BYTE		N12   
	BYTE	W12
	BYTE		TIE     Fn1   v100
	BYTE	W84
// 047   ----------------------------------------
	BYTE	W96
// 048   ----------------------------------------
	BYTE	W23
	BYTE	GoTo
	 POIN2	PokemonRangerGuardianSignsPokemonPincherAdminBattle_7_B1
PokemonRangerGuardianSignsPokemonPincherAdminBattle_7_B2:
	BYTE	W01
	BYTE		EOT     Fn1 
	BYTE	FINE

//**************** Track 8 (Midi-Chn.8) ****************//

PokemonRangerGuardianSignsPokemonPincherAdminBattle_8:
	BYTE	KEYSH   PokemonRangerGuardianSignsPokemonPincherAdminBattle_key+0
// 000   ----------------------------------------
	BYTE		VOICE   33
	BYTE		VOL     110*PokemonRangerGuardianSignsPokemonPincherAdminBattle_mvl/mxv
	BYTE		PAN     c_v+0
	BYTE		MOD     0
	BYTE	W23
	BYTE		N12     Gn2   v120
	BYTE	W12
	BYTE		N06     Fs2 
	BYTE	W06
	BYTE		        Fs2   v060
	BYTE	W06
	BYTE		        Dn2   v120
	BYTE	W06
	BYTE		        Dn2   v060
	BYTE	W06
	BYTE		N12     Fn2   v120
	BYTE	W12
	BYTE		N06     En2 
	BYTE	W06
	BYTE		        En2   v060
	BYTE	W06
	BYTE		        Cn2   v120
	BYTE	W06
	BYTE		        Cn2   v060
	BYTE	W06
	BYTE		N12     Gn2   v120
	BYTE	W01
// 001   ----------------------------------------
	BYTE	W11
	BYTE		N06     Fs2 
	BYTE	W06
	BYTE		        Fs2   v060
	BYTE	W06
	BYTE		        Dn2   v120
	BYTE	W06
	BYTE		        Dn2   v060
	BYTE	W06
	BYTE		N12     Fn2   v120
	BYTE	W12
	BYTE		N06     En2 
	BYTE	W06
	BYTE		        En2   v060
	BYTE	W06
	BYTE		        Cn2   v120
	BYTE	W06
	BYTE		        Cn2   v060
	BYTE	W06
	BYTE		N24     Fn2   v120
	BYTE	W24
	BYTE		        Gn2 
	BYTE	W01
// 002   ----------------------------------------
	BYTE	W23
PokemonRangerGuardianSignsPokemonPincherAdminBattle_8_B1:
	BYTE		N12     An1   v120
	BYTE	W12
	BYTE		N10   
	BYTE	W12
	BYTE		N10   
	BYTE	W12
	BYTE		N10   
	BYTE	W12
	BYTE		N10   
	BYTE	W12
	BYTE		N10   
	BYTE	W12
	BYTE		N10   
	BYTE	W01
// 003   ----------------------------------------
PokemonRangerGuardianSignsPokemonPincherAdminBattle_8_003:
	BYTE	W11
	BYTE		N24     An1   v120
	BYTE	W24
	BYTE		N10   
	BYTE	W12
	BYTE		N10   
	BYTE	W12
	BYTE		N10   
	BYTE	W12
	BYTE		N10   
	BYTE	W12
	BYTE		N10   
	BYTE	W12
	BYTE		N10   
	BYTE	W01
	BYTE	PEND
// 004   ----------------------------------------
	BYTE	PATT
	 POIN2	PokemonRangerGuardianSignsPokemonPincherAdminBattle_8_003
// 005   ----------------------------------------
PokemonRangerGuardianSignsPokemonPincherAdminBattle_8_005:
	BYTE	W11
	BYTE		N24     An1   v120
	BYTE	W24
	BYTE		N10   
	BYTE	W12
	BYTE		N10   
	BYTE	W12
	BYTE		N22   
	BYTE	W24
	BYTE		N10   
	BYTE	W12
	BYTE		N10   
	BYTE	W01
	BYTE	PEND
// 006   ----------------------------------------
	BYTE	PATT
	 POIN2	PokemonRangerGuardianSignsPokemonPincherAdminBattle_8_003
// 007   ----------------------------------------
	BYTE	PATT
	 POIN2	PokemonRangerGuardianSignsPokemonPincherAdminBattle_8_003
// 008   ----------------------------------------
PokemonRangerGuardianSignsPokemonPincherAdminBattle_8_008:
	BYTE	W11
	BYTE		N24     Fn1   v120
	BYTE	W24
	BYTE		N10   
	BYTE	W12
	BYTE		N10   
	BYTE	W12
	BYTE		N10   
	BYTE	W12
	BYTE		N10   
	BYTE	W12
	BYTE		N10   
	BYTE	W12
	BYTE		N10   
	BYTE	W01
	BYTE	PEND
// 009   ----------------------------------------
PokemonRangerGuardianSignsPokemonPincherAdminBattle_8_009:
	BYTE	W11
	BYTE		N24     Gn1   v120
	BYTE	W24
	BYTE		N10   
	BYTE	W12
	BYTE		N10   
	BYTE	W12
	BYTE		N22   
	BYTE	W24
	BYTE		N10   
	BYTE	W12
	BYTE		N10   
	BYTE	W01
	BYTE	PEND
// 010   ----------------------------------------
	BYTE	PATT
	 POIN2	PokemonRangerGuardianSignsPokemonPincherAdminBattle_8_003
// 011   ----------------------------------------
	BYTE	PATT
	 POIN2	PokemonRangerGuardianSignsPokemonPincherAdminBattle_8_003
// 012   ----------------------------------------
	BYTE	PATT
	 POIN2	PokemonRangerGuardianSignsPokemonPincherAdminBattle_8_003
// 013   ----------------------------------------
	BYTE	PATT
	 POIN2	PokemonRangerGuardianSignsPokemonPincherAdminBattle_8_005
// 014   ----------------------------------------
	BYTE	PATT
	 POIN2	PokemonRangerGuardianSignsPokemonPincherAdminBattle_8_003
// 015   ----------------------------------------
	BYTE	PATT
	 POIN2	PokemonRangerGuardianSignsPokemonPincherAdminBattle_8_003
// 016   ----------------------------------------
	BYTE	PATT
	 POIN2	PokemonRangerGuardianSignsPokemonPincherAdminBattle_8_008
// 017   ----------------------------------------
	BYTE	PATT
	 POIN2	PokemonRangerGuardianSignsPokemonPincherAdminBattle_8_009
// 018   ----------------------------------------
	BYTE	W11
	BYTE		N10     Gn1   v120
	BYTE	W12
	BYTE		N12     Gs1 
	BYTE	W12
	BYTE		N10   
	BYTE	W12
	BYTE		N10   
	BYTE	W12
	BYTE		N10   
	BYTE	W12
	BYTE		N10   
	BYTE	W12
	BYTE		N10   
	BYTE	W12
	BYTE		N10   
	BYTE	W01
// 019   ----------------------------------------
PokemonRangerGuardianSignsPokemonPincherAdminBattle_8_019:
	BYTE	W11
	BYTE		N24     As1   v120
	BYTE	W24
	BYTE		N10   
	BYTE	W12
	BYTE		N10   
	BYTE	W12
	BYTE		N10   
	BYTE	W12
	BYTE		N10   
	BYTE	W12
	BYTE		N10   
	BYTE	W12
	BYTE		N10   
	BYTE	W01
	BYTE	PEND
// 020   ----------------------------------------
	BYTE	W11
	BYTE		N24     Cn2 
	BYTE	W24
	BYTE		N10   
	BYTE	W12
	BYTE		N10   
	BYTE	W12
	BYTE		N10   
	BYTE	W12
	BYTE		N10   
	BYTE	W12
	BYTE		N10   
	BYTE	W12
	BYTE		N10   
	BYTE	W01
// 021   ----------------------------------------
	BYTE	W11
	BYTE		N36     Ds2 
	BYTE	W36
	BYTE		N10     Dn2 
	BYTE	W12
	BYTE		        Dn2   v060
	BYTE	W12
	BYTE		N12     Cn2   v120
	BYTE	W12
	BYTE		N10     As1 
	BYTE	W12
	BYTE		        As1   v060
	BYTE	W01
// 022   ----------------------------------------
	BYTE	W11
	BYTE		N24     Gs1   v120
	BYTE	W24
	BYTE		N10   
	BYTE	W12
	BYTE		N10   
	BYTE	W12
	BYTE		N10   
	BYTE	W12
	BYTE		N10   
	BYTE	W12
	BYTE		N10   
	BYTE	W12
	BYTE		N10   
	BYTE	W01
// 023   ----------------------------------------
	BYTE	PATT
	 POIN2	PokemonRangerGuardianSignsPokemonPincherAdminBattle_8_019
// 024   ----------------------------------------
	BYTE	W11
	BYTE		N24     Bn1   v120
	BYTE	W24
	BYTE		N10   
	BYTE	W12
	BYTE		N10   
	BYTE	W12
	BYTE		N12   
	BYTE	W12
	BYTE		N10   
	BYTE	W12
	BYTE		N10   
	BYTE	W12
	BYTE		N12   
	BYTE	W01
// 025   ----------------------------------------
	BYTE	W11
	BYTE		N22     Cs2 
	BYTE	W24
	BYTE		N12   
	BYTE	W12
	BYTE		N10   
	BYTE	W12
	BYTE		N10   
	BYTE	W12
	BYTE		N10   
	BYTE	W12
	BYTE		N10   
	BYTE	W12
	BYTE		N10   
	BYTE	W01
// 026   ----------------------------------------
	BYTE	W11
	BYTE		N22     Ds2 
	BYTE	W24
	BYTE		N10   
	BYTE	W12
	BYTE		N10   
	BYTE	W12
	BYTE		N24   
	BYTE	W24
	BYTE		N12   
	BYTE	W12
	BYTE		N12   
	BYTE	W01
// 027   ----------------------------------------
	BYTE	W11
	BYTE		N12   
	BYTE	W12
	BYTE		        Cn3 
	BYTE	W12
	BYTE		N06     Cn2 
	BYTE	W06
	BYTE		        Cn2   v060
	BYTE	W06
	BYTE		N10     Cn2   v120
	BYTE	W12
	BYTE		N10   
	BYTE	W12
	BYTE		        Cn2   v060
	BYTE	W12
	BYTE		N06     Cn2   v120
	BYTE	W06
	BYTE		        Cn2   v060
	BYTE	W06
	BYTE		BEND    c_v+63
	BYTE		N24     Cn2   v120
	BYTE	W01
// 028   ----------------------------------------
	BYTE	W06
	BYTE		BEND    c_v+62
	BYTE	W03
	BYTE		        c_v+61
	BYTE	W01
	BYTE		        c_v+60
	BYTE	W02
	BYTE		        c_v+58
	BYTE	W01
	BYTE		        c_v+57
	BYTE	W01
	BYTE		        c_v+55
	BYTE	W01
	BYTE		        c_v+53
	BYTE	W01
	BYTE		        c_v+50
	BYTE	W01
	BYTE		        c_v+47
	BYTE	W01
	BYTE		        c_v+42
	BYTE	W01
	BYTE		        c_v+37
	BYTE	W01
	BYTE		        c_v+29
	BYTE	W01
	BYTE		        c_v+20
	BYTE	W01
	BYTE		        c_v+8
	BYTE	W01
	BYTE		        c_v+0
	BYTE		N12     Cs2 
	BYTE	W12
	BYTE		N10   
	BYTE	W12
	BYTE		N10   
	BYTE	W12
	BYTE		N10   
	BYTE	W12
	BYTE		N10   
	BYTE	W12
	BYTE		N10   
	BYTE	W12
	BYTE		N10   
	BYTE	W01
// 029   ----------------------------------------
PokemonRangerGuardianSignsPokemonPincherAdminBattle_8_029:
	BYTE	W11
	BYTE		N10     Cs2   v120
	BYTE	W12
	BYTE		N12     Ds2 
	BYTE	W12
	BYTE		N10   
	BYTE	W12
	BYTE		N10   
	BYTE	W12
	BYTE		N10   
	BYTE	W12
	BYTE		N10   
	BYTE	W12
	BYTE		N10   
	BYTE	W12
	BYTE		N10   
	BYTE	W01
	BYTE	PEND
// 030   ----------------------------------------
PokemonRangerGuardianSignsPokemonPincherAdminBattle_8_030:
	BYTE	W11
	BYTE		N10     Ds2   v120
	BYTE	W12
	BYTE		N12     Fn2 
	BYTE	W12
	BYTE		N10   
	BYTE	W12
	BYTE		N10   
	BYTE	W12
	BYTE		N10   
	BYTE	W12
	BYTE		N10   
	BYTE	W12
	BYTE		N10   
	BYTE	W12
	BYTE		N10   
	BYTE	W01
	BYTE	PEND
// 031   ----------------------------------------
PokemonRangerGuardianSignsPokemonPincherAdminBattle_8_031:
	BYTE	W11
	BYTE		N10     Fn2   v120
	BYTE	W12
	BYTE		N12   
	BYTE	W12
	BYTE		N10   
	BYTE	W12
	BYTE		N10   
	BYTE	W12
	BYTE		N10   
	BYTE	W12
	BYTE		N06   
	BYTE	W06
	BYTE		        Fn2   v060
	BYTE	W06
	BYTE		N36     Ds2   v120
	BYTE	W13
	BYTE	PEND
// 032   ----------------------------------------
PokemonRangerGuardianSignsPokemonPincherAdminBattle_8_032:
	BYTE	W23
	BYTE		N12     As1   v120
	BYTE	W12
	BYTE		N10   
	BYTE	W12
	BYTE		N10   
	BYTE	W12
	BYTE		N10   
	BYTE	W12
	BYTE		N10   
	BYTE	W12
	BYTE		N10   
	BYTE	W12
	BYTE		N10   
	BYTE	W01
	BYTE	PEND
// 033   ----------------------------------------
PokemonRangerGuardianSignsPokemonPincherAdminBattle_8_033:
	BYTE	W11
	BYTE		N10     As1   v120
	BYTE	W12
	BYTE		N12     Ds2 
	BYTE	W12
	BYTE		N10   
	BYTE	W12
	BYTE		N10   
	BYTE	W12
	BYTE		N10   
	BYTE	W12
	BYTE		        Cs2 
	BYTE	W12
	BYTE		N10   
	BYTE	W12
	BYTE		N10   
	BYTE	W01
	BYTE	PEND
// 034   ----------------------------------------
PokemonRangerGuardianSignsPokemonPincherAdminBattle_8_034:
	BYTE	W11
	BYTE		N10     Cs2   v120
	BYTE	W12
	BYTE		N12     Cn2 
	BYTE	W12
	BYTE		N10   
	BYTE	W12
	BYTE		N10   
	BYTE	W12
	BYTE		N10   
	BYTE	W12
	BYTE		N10   
	BYTE	W12
	BYTE		N10   
	BYTE	W12
	BYTE		N10   
	BYTE	W01
	BYTE	PEND
// 035   ----------------------------------------
PokemonRangerGuardianSignsPokemonPincherAdminBattle_8_035:
	BYTE	W11
	BYTE		N10     Cn2   v120
	BYTE	W12
	BYTE		        Fn2 
	BYTE	W12
	BYTE		N10   
	BYTE	W12
	BYTE		N10   
	BYTE	W12
	BYTE		N10   
	BYTE	W12
	BYTE		N06   
	BYTE	W06
	BYTE		        Fn2   v060
	BYTE	W06
	BYTE		N36     Fn2   v120
	BYTE	W13
	BYTE	PEND
// 036   ----------------------------------------
	BYTE	W23
	BYTE		N12     Cs2 
	BYTE	W12
	BYTE		N10   
	BYTE	W12
	BYTE		N10   
	BYTE	W12
	BYTE		N10   
	BYTE	W12
	BYTE		N10   
	BYTE	W12
	BYTE		N10   
	BYTE	W12
	BYTE		N10   
	BYTE	W01
// 037   ----------------------------------------
	BYTE	PATT
	 POIN2	PokemonRangerGuardianSignsPokemonPincherAdminBattle_8_029
// 038   ----------------------------------------
	BYTE	PATT
	 POIN2	PokemonRangerGuardianSignsPokemonPincherAdminBattle_8_030
// 039   ----------------------------------------
	BYTE	PATT
	 POIN2	PokemonRangerGuardianSignsPokemonPincherAdminBattle_8_031
// 040   ----------------------------------------
	BYTE	PATT
	 POIN2	PokemonRangerGuardianSignsPokemonPincherAdminBattle_8_032
// 041   ----------------------------------------
	BYTE	PATT
	 POIN2	PokemonRangerGuardianSignsPokemonPincherAdminBattle_8_033
// 042   ----------------------------------------
	BYTE	PATT
	 POIN2	PokemonRangerGuardianSignsPokemonPincherAdminBattle_8_034
// 043   ----------------------------------------
	BYTE	PATT
	 POIN2	PokemonRangerGuardianSignsPokemonPincherAdminBattle_8_035
// 044   ----------------------------------------
	BYTE	W23
	BYTE		N12     As1   v120
	BYTE	W12
	BYTE		N10   
	BYTE	W12
	BYTE		N10   
	BYTE	W12
	BYTE		N10   
	BYTE	W12
	BYTE		        Cn2 
	BYTE	W12
	BYTE		N10   
	BYTE	W12
	BYTE		N10   
	BYTE	W01
// 045   ----------------------------------------
	BYTE	W11
	BYTE		N10   
	BYTE	W12
	BYTE		N12     Cs2 
	BYTE	W12
	BYTE		N10   
	BYTE	W12
	BYTE		N10   
	BYTE	W12
	BYTE		N10   
	BYTE	W12
	BYTE		        Ds2 
	BYTE	W12
	BYTE		N10   
	BYTE	W12
	BYTE		        Ds2   v060
	BYTE	W01
// 046   ----------------------------------------
	BYTE	W11
	BYTE		TIE     Fn2   v120
	BYTE	W84
	BYTE	W01
// 047   ----------------------------------------
	BYTE	W96
// 048   ----------------------------------------
	BYTE	W23
	BYTE		EOT   
	BYTE	GoTo
	 POIN2	PokemonRangerGuardianSignsPokemonPincherAdminBattle_8_B1
PokemonRangerGuardianSignsPokemonPincherAdminBattle_8_B2:
	BYTE	W01
	BYTE	FINE

//**************** Track 9 (Midi-Chn.9) ****************//

PokemonRangerGuardianSignsPokemonPincherAdminBattle_9:
	BYTE	KEYSH   PokemonRangerGuardianSignsPokemonPincherAdminBattle_key+0
// 000   ----------------------------------------
	BYTE		VOICE   127
	BYTE		VOL     100*PokemonRangerGuardianSignsPokemonPincherAdminBattle_mvl/mxv
	BYTE		PAN     c_v+0
	BYTE		MOD     0
	BYTE		N06     Dn1   v120
	BYTE	W06
	BYTE		N06   
	BYTE	W06
	BYTE		        Cn1 
	BYTE	W12
	BYTE		N06   
	BYTE		N12     Dn1 
	BYTE	W12
	BYTE		        Fn1 
	BYTE	W12
	BYTE		N06     Cn1 
	BYTE	W12
	BYTE		N12     Dn1 
	BYTE	W12
	BYTE		        An1 
	BYTE	W12
	BYTE		        Fn1 
	BYTE	W12
// 001   ----------------------------------------
	BYTE		        Dn1 
	BYTE	W12
	BYTE		        Fn1 
	BYTE	W12
	BYTE		N06     Cn1 
	BYTE	W12
	BYTE		N12     Dn1 
	BYTE	W12
	BYTE		        Fn1 
	BYTE	W12
	BYTE		N06     Cn1 
	BYTE	W12
	BYTE		        Dn1 
	BYTE	W06
	BYTE		N06   
	BYTE	W06
	BYTE		N12   
	BYTE	W12
// 002   ----------------------------------------
	BYTE		N06   
	BYTE	W06
	BYTE		N06   
	BYTE	W06
	BYTE		N12   
	BYTE	W11
PokemonRangerGuardianSignsPokemonPincherAdminBattle_9_B1:
	BYTE	W01
	BYTE		N06     Cn1   v120
	BYTE		N03     Fs1   v108
	BYTE	W12
	BYTE		        Fs1   v068
	BYTE	W12
	BYTE		N12     Dn1   v120
	BYTE		N03     Fs1   v080
	BYTE	W12
	BYTE		        Fs1   v068
	BYTE	W12
	BYTE		N06     Cn1   v120
	BYTE		N03     Fs1   v108
	BYTE	W12
	BYTE		N06     Cn1   v120
	BYTE		N03     Fs1   v068
	BYTE	W12
// 003   ----------------------------------------
PokemonRangerGuardianSignsPokemonPincherAdminBattle_9_003:
	BYTE		N12     Dn1   v120
	BYTE		N03     Fs1   v080
	BYTE	W12
	BYTE		N06     Cn1   v120
	BYTE	W24
	BYTE		N06   
	BYTE		N03     Fs1   v068
	BYTE	W12
	BYTE		N12     Dn1   v120
	BYTE		N03     Fs1   v080
	BYTE	W12
	BYTE		        Fs1   v068
	BYTE	W12
	BYTE		N06     Cn1   v120
	BYTE		N03     Fs1   v108
	BYTE	W12
	BYTE		N06     Cn1   v120
	BYTE		N03     Fs1   v068
	BYTE	W12
	BYTE	PEND
// 004   ----------------------------------------
	BYTE	PATT
	 POIN2	PokemonRangerGuardianSignsPokemonPincherAdminBattle_9_003
// 005   ----------------------------------------
PokemonRangerGuardianSignsPokemonPincherAdminBattle_9_005:
	BYTE		N12     Dn1   v120
	BYTE		N03     Fs1   v080
	BYTE	W12
	BYTE		N06     Cn1   v120
	BYTE	W12
	BYTE		N03     Fs1   v108
	BYTE	W12
	BYTE		N06     Cn1   v120
	BYTE		N03     Fs1   v068
	BYTE	W12
	BYTE		N12     Dn1   v120
	BYTE		N03     Fs1   v080
	BYTE	W12
	BYTE		N06     Cn1   v120
	BYTE	W24
	BYTE		N06   
	BYTE		N03     Fs1   v068
	BYTE	W12
	BYTE	PEND
// 006   ----------------------------------------
	BYTE	PATT
	 POIN2	PokemonRangerGuardianSignsPokemonPincherAdminBattle_9_003
// 007   ----------------------------------------
	BYTE	PATT
	 POIN2	PokemonRangerGuardianSignsPokemonPincherAdminBattle_9_003
// 008   ----------------------------------------
	BYTE	PATT
	 POIN2	PokemonRangerGuardianSignsPokemonPincherAdminBattle_9_003
// 009   ----------------------------------------
	BYTE	PATT
	 POIN2	PokemonRangerGuardianSignsPokemonPincherAdminBattle_9_005
// 010   ----------------------------------------
	BYTE	PATT
	 POIN2	PokemonRangerGuardianSignsPokemonPincherAdminBattle_9_003
// 011   ----------------------------------------
	BYTE	PATT
	 POIN2	PokemonRangerGuardianSignsPokemonPincherAdminBattle_9_003
// 012   ----------------------------------------
	BYTE	PATT
	 POIN2	PokemonRangerGuardianSignsPokemonPincherAdminBattle_9_003
// 013   ----------------------------------------
	BYTE	PATT
	 POIN2	PokemonRangerGuardianSignsPokemonPincherAdminBattle_9_005
// 014   ----------------------------------------
	BYTE	PATT
	 POIN2	PokemonRangerGuardianSignsPokemonPincherAdminBattle_9_003
// 015   ----------------------------------------
	BYTE	PATT
	 POIN2	PokemonRangerGuardianSignsPokemonPincherAdminBattle_9_003
// 016   ----------------------------------------
	BYTE	PATT
	 POIN2	PokemonRangerGuardianSignsPokemonPincherAdminBattle_9_003
// 017   ----------------------------------------
	BYTE		N12     Dn1   v120
	BYTE		N03     Fs1   v080
	BYTE	W12
	BYTE		N06     Cn1   v120
	BYTE	W12
	BYTE		N03     Fs1   v108
	BYTE	W12
	BYTE		N06     Cn1   v120
	BYTE		N03     Fs1   v068
	BYTE	W12
	BYTE		N12     Dn1   v120
	BYTE		N03     Fs1   v080
	BYTE	W12
	BYTE		N06     Cn1   v120
	BYTE	W18
	BYTE		        Dn1 
	BYTE	W06
	BYTE		N06   
	BYTE	W06
	BYTE		        Cn1 
	BYTE	W06
// 018   ----------------------------------------
	BYTE		N12     Dn1 
	BYTE		N03     Fs1   v080
	BYTE	W12
	BYTE		N06     Dn1   v120
	BYTE	W06
	BYTE		N06   
	BYTE	W06
	BYTE		        Cn1 
	BYTE	W24
	BYTE		N12     Dn1 
	BYTE	W24
	BYTE		N06     Cn1 
	BYTE	W12
	BYTE		N06   
	BYTE	W12
// 019   ----------------------------------------
PokemonRangerGuardianSignsPokemonPincherAdminBattle_9_019:
	BYTE		N12     Dn1   v120
	BYTE	W12
	BYTE		N06     Cn1 
	BYTE	W24
	BYTE		N06   
	BYTE	W12
	BYTE		N12     Dn1 
	BYTE	W24
	BYTE		N06     Cn1 
	BYTE	W12
	BYTE		N06   
	BYTE	W12
	BYTE	PEND
// 020   ----------------------------------------
	BYTE	PATT
	 POIN2	PokemonRangerGuardianSignsPokemonPincherAdminBattle_9_019
// 021   ----------------------------------------
PokemonRangerGuardianSignsPokemonPincherAdminBattle_9_021:
	BYTE		N12     Dn1   v120
	BYTE	W12
	BYTE		N06     Cn1 
	BYTE	W24
	BYTE		N06   
	BYTE	W12
	BYTE		N12     Dn1 
	BYTE	W24
	BYTE		N12   
	BYTE	W12
	BYTE		N06     Cn1 
	BYTE	W12
	BYTE	PEND
// 022   ----------------------------------------
	BYTE		N03     Fs1   v092
	BYTE	W12
	BYTE		N06     Cn1   v120
	BYTE	W24
	BYTE		N06   
	BYTE	W12
	BYTE		N12     Dn1 
	BYTE	W24
	BYTE		N06     Cn1 
	BYTE	W12
	BYTE		N06   
	BYTE	W12
// 023   ----------------------------------------
	BYTE	PATT
	 POIN2	PokemonRangerGuardianSignsPokemonPincherAdminBattle_9_019
// 024   ----------------------------------------
	BYTE	PATT
	 POIN2	PokemonRangerGuardianSignsPokemonPincherAdminBattle_9_019
// 025   ----------------------------------------
	BYTE	PATT
	 POIN2	PokemonRangerGuardianSignsPokemonPincherAdminBattle_9_021
// 026   ----------------------------------------
PokemonRangerGuardianSignsPokemonPincherAdminBattle_9_026:
	BYTE		N03     Fs1   v092
	BYTE	W12
	BYTE		N06     Cn1   v120
	BYTE	W24
	BYTE		N03     Fs1   v096
	BYTE	W12
	BYTE		N06     Cn1   v120
	BYTE		N03     Fs1   v124
	BYTE	W06
	BYTE		        Fs1   v080
	BYTE	W06
	BYTE		        Fs1   v096
	BYTE	W06
	BYTE		        Fs1   v080
	BYTE	W06
	BYTE		N06     Cn1   v120
	BYTE		N03     Fs1   v124
	BYTE	W12
	BYTE		        Fs1   v080
	BYTE	W12
	BYTE	PEND
// 027   ----------------------------------------
	BYTE		N06     Cn1   v120
	BYTE		N03     Fs1   v096
	BYTE	W12
	BYTE		        Fs1   v080
	BYTE	W12
	BYTE		N06     Cn1   v120
	BYTE		N03     Fs1   v092
	BYTE	W12
	BYTE		N12     Dn1   v120
	BYTE	W12
	BYTE		N12   
	BYTE	W12
	BYTE		N06     Cn1 
	BYTE	W06
	BYTE		N03     Fs1   v092
	BYTE	W18
	BYTE		N06     Cn1   v120
	BYTE	W12
// 028   ----------------------------------------
	BYTE		N12     Dn1 
	BYTE	W24
	BYTE		N06     Cn1 
	BYTE	W24
	BYTE		N12     Dn1 
	BYTE		N03     Fs1   v080
	BYTE	W12
	BYTE		        Fs1   v068
	BYTE	W12
	BYTE		N06     Cn1   v120
	BYTE		N03     Fs1   v108
	BYTE	W12
	BYTE		N06     Cn1   v120
	BYTE		N03     Fs1   v068
	BYTE	W12
// 029   ----------------------------------------
PokemonRangerGuardianSignsPokemonPincherAdminBattle_9_029:
	BYTE		N12     Dn1   v120
	BYTE		N03     Fs1   v080
	BYTE	W12
	BYTE		        Fs1   v068
	BYTE	W12
	BYTE		N06     Cn1   v120
	BYTE		N03     Fs1   v108
	BYTE	W12
	BYTE		        Fs1   v068
	BYTE	W12
	BYTE		N12     Dn1   v120
	BYTE		N03     Fs1   v080
	BYTE	W12
	BYTE		        Fs1   v068
	BYTE	W12
	BYTE		N06     Cn1   v120
	BYTE		N03     Fs1   v108
	BYTE	W12
	BYTE		N06     Cn1   v120
	BYTE		N03     Fs1   v068
	BYTE	W12
	BYTE	PEND
// 030   ----------------------------------------
PokemonRangerGuardianSignsPokemonPincherAdminBattle_9_030:
	BYTE		N12     Dn1   v120
	BYTE		N03     Fs1   v080
	BYTE	W12
	BYTE		        Fs1   v068
	BYTE	W12
	BYTE		N06     Cn1   v120
	BYTE		N03     Fs1   v108
	BYTE	W12
	BYTE		        Fs1   v068
	BYTE	W12
	BYTE		N12     Dn1   v120
	BYTE		N03     Fs1   v080
	BYTE	W12
	BYTE		        Fs1   v068
	BYTE	W12
	BYTE		N06     Cn1   v120
	BYTE		N03     Fs1   v096
	BYTE	W12
	BYTE		N06     Cn1   v120
	BYTE		N03     Fs1   v068
	BYTE	W12
	BYTE	PEND
// 031   ----------------------------------------
	BYTE		N12     Dn1   v120
	BYTE		N03     Fs1   v080
	BYTE	W12
	BYTE		        Fs1   v068
	BYTE	W12
	BYTE		N06     Cn1   v120
	BYTE		N03     Fs1   v108
	BYTE	W12
	BYTE		        Fs1   v068
	BYTE	W12
	BYTE		N06     Dn1   v120
	BYTE	W06
	BYTE		N06   
	BYTE	W06
	BYTE		N06   
	BYTE	W06
	BYTE		N06   
	BYTE	W06
	BYTE		N12   
	BYTE	W12
	BYTE		N06     Cn1 
	BYTE	W12
// 032   ----------------------------------------
PokemonRangerGuardianSignsPokemonPincherAdminBattle_9_032:
	BYTE		N03     Fs1   v080
	BYTE	W12
	BYTE		N06     Cn1   v108
	BYTE	W12
	BYTE		        Cn1   v120
	BYTE	W24
	BYTE		N12     Dn1 
	BYTE		N03     Fs1   v080
	BYTE	W12
	BYTE		        Fs1   v068
	BYTE	W12
	BYTE		N06     Cn1   v120
	BYTE		N03     Fs1   v096
	BYTE	W12
	BYTE		N06     Cn1   v120
	BYTE		N03     Fs1   v068
	BYTE	W12
	BYTE	PEND
// 033   ----------------------------------------
	BYTE	PATT
	 POIN2	PokemonRangerGuardianSignsPokemonPincherAdminBattle_9_029
// 034   ----------------------------------------
	BYTE	PATT
	 POIN2	PokemonRangerGuardianSignsPokemonPincherAdminBattle_9_030
// 035   ----------------------------------------
PokemonRangerGuardianSignsPokemonPincherAdminBattle_9_035:
	BYTE		N12     Dn1   v120
	BYTE	W12
	BYTE		N03     Fs1   v068
	BYTE	W12
	BYTE		N06     Cn1   v120
	BYTE	W12
	BYTE		N12     Dn1 
	BYTE		N03     Fs1   v068
	BYTE	W12
	BYTE		N12     Dn1   v120
	BYTE	W12
	BYTE		N06     Cn1 
	BYTE	W24
	BYTE		N12     Dn1 
	BYTE	W12
	BYTE	PEND
// 036   ----------------------------------------
	BYTE		N06   
	BYTE		N03     Fs1   v108
	BYTE	W06
	BYTE		N06     Dn1   v120
	BYTE	W06
	BYTE		N12   
	BYTE	W12
	BYTE		N06     Cn1 
	BYTE	W24
	BYTE		N12     Dn1 
	BYTE		N03     Fs1   v080
	BYTE	W12
	BYTE		        Fs1   v068
	BYTE	W12
	BYTE		N06     Cn1   v120
	BYTE		N03     Fs1   v108
	BYTE	W12
	BYTE		N06     Cn1   v120
	BYTE		N03     Fs1   v068
	BYTE	W12
// 037   ----------------------------------------
	BYTE	PATT
	 POIN2	PokemonRangerGuardianSignsPokemonPincherAdminBattle_9_029
// 038   ----------------------------------------
	BYTE	PATT
	 POIN2	PokemonRangerGuardianSignsPokemonPincherAdminBattle_9_030
// 039   ----------------------------------------
	BYTE		N12     Dn1   v120
	BYTE		N03     Fs1   v080
	BYTE	W12
	BYTE		        Fs1   v068
	BYTE	W12
	BYTE		N06     Cn1   v120
	BYTE		N03     Fs1   v108
	BYTE	W12
	BYTE		N12     Dn1   v120
	BYTE		N03     Fs1   v068
	BYTE	W12
	BYTE		N12     Dn1   v120
	BYTE	W12
	BYTE		N06     Cn1 
	BYTE	W12
	BYTE		N12     Dn1 
	BYTE		N03     Fs1   v052
	BYTE	W12
	BYTE		N06     Cn1   v120
	BYTE	W12
// 040   ----------------------------------------
	BYTE	PATT
	 POIN2	PokemonRangerGuardianSignsPokemonPincherAdminBattle_9_032
// 041   ----------------------------------------
	BYTE	PATT
	 POIN2	PokemonRangerGuardianSignsPokemonPincherAdminBattle_9_029
// 042   ----------------------------------------
	BYTE	PATT
	 POIN2	PokemonRangerGuardianSignsPokemonPincherAdminBattle_9_030
// 043   ----------------------------------------
	BYTE	PATT
	 POIN2	PokemonRangerGuardianSignsPokemonPincherAdminBattle_9_035
// 044   ----------------------------------------
	BYTE		N06     Dn1   v120
	BYTE		N03     Fs1   v108
	BYTE	W06
	BYTE		N06     Dn1   v120
	BYTE	W06
	BYTE		N12   
	BYTE	W12
	BYTE		N06     Cn1 
	BYTE	W24
	BYTE		N12     Dn1 
	BYTE		N03     Fs1   v080
	BYTE	W12
	BYTE		        Fs1   v068
	BYTE	W12
	BYTE		N06     Cn1   v120
	BYTE	W12
	BYTE		N06   
	BYTE	W12
// 045   ----------------------------------------
	BYTE		N12     Dn1 
	BYTE		N03     Fs1   v080
	BYTE	W12
	BYTE		        Fs1   v068
	BYTE	W12
	BYTE		N12     Dn1   v120
	BYTE	W12
	BYTE		N06     Cn1 
	BYTE	W12
	BYTE		N12     Dn1 
	BYTE	W12
	BYTE		N06     Cn1 
	BYTE	W12
	BYTE		N12     Dn1 
	BYTE		N03     Fs1   v108
	BYTE	W12
	BYTE		N06     Cn1   v120
	BYTE	W12
// 046   ----------------------------------------
	BYTE	PATT
	 POIN2	PokemonRangerGuardianSignsPokemonPincherAdminBattle_9_026
// 047   ----------------------------------------
	BYTE		N06     Cn1   v120
	BYTE		N03     Fs1   v096
	BYTE	W12
	BYTE		        Fs1   v080
	BYTE	W12
	BYTE		N06     Cn1   v120
	BYTE		N03     Fs1   v124
	BYTE	W24
	BYTE		N06     Cn1   v120
	BYTE		N03     Fs1   v124
	BYTE	W06
	BYTE		        Fs1   v080
	BYTE	W06
	BYTE		        Fs1   v096
	BYTE	W06
	BYTE		        Fs1   v080
	BYTE	W06
	BYTE		N06     Cn1   v120
	BYTE		N03     Fs1   v124
	BYTE	W12
	BYTE		        Fs1   v080
	BYTE	W12
// 048   ----------------------------------------
	BYTE		N06     Cn1   v120
	BYTE		N03     Fs1   v096
	BYTE	W12
	BYTE		        Fs1   v080
	BYTE	W11
	BYTE	GoTo
	 POIN2	PokemonRangerGuardianSignsPokemonPincherAdminBattle_9_B1
PokemonRangerGuardianSignsPokemonPincherAdminBattle_9_B2:
	BYTE	W01
	BYTE	FINE

//**************** Track 10 (Midi-Chn.11) ****************//

PokemonRangerGuardianSignsPokemonPincherAdminBattle_10:
	BYTE	KEYSH   PokemonRangerGuardianSignsPokemonPincherAdminBattle_key+0
// 000   ----------------------------------------
	BYTE		VOICE   127
	BYTE		VOL     90*PokemonRangerGuardianSignsPokemonPincherAdminBattle_mvl/mxv
	BYTE		PAN     c_v+0
	BYTE		MOD     0
	BYTE	W11
	BYTE		N12     As1   v092
	BYTE	W02
	BYTE		N06     Fs2   v108
	BYTE	W11
	BYTE		N36     Cs2   v092
	BYTE	W36
	BYTE		        An2 
	BYTE	W36
// 001   ----------------------------------------
	BYTE		        Cs2 
	BYTE	W36
	BYTE		        An2 
	BYTE	W60
// 002   ----------------------------------------
	BYTE	W23
PokemonRangerGuardianSignsPokemonPincherAdminBattle_10_B1:
	BYTE	W01
	BYTE		N36     Cs2   v092
	BYTE	W72
// 003   ----------------------------------------
	BYTE	W12
	BYTE		        An2   v080
	BYTE	W84
// 004   ----------------------------------------
	BYTE	W12
	BYTE		        Cs2 
	BYTE	W84
// 005   ----------------------------------------
PokemonRangerGuardianSignsPokemonPincherAdminBattle_10_005:
	BYTE	W12
	BYTE		N36     Cs2   v092
	BYTE	W48
	BYTE		        An2 
	BYTE	W36
	BYTE	PEND
// 006   ----------------------------------------
	BYTE	W12
	BYTE		        Cs2 
	BYTE	W84
// 007   ----------------------------------------
	BYTE	W12
	BYTE		        An2   v080
	BYTE	W84
// 008   ----------------------------------------
	BYTE	W12
	BYTE		        Cs2 
	BYTE	W84
// 009   ----------------------------------------
	BYTE	PATT
	 POIN2	PokemonRangerGuardianSignsPokemonPincherAdminBattle_10_005
// 010   ----------------------------------------
	BYTE	W12
	BYTE		N36     Cs2   v092
	BYTE	W84
// 011   ----------------------------------------
	BYTE	W12
	BYTE		        An2   v080
	BYTE	W84
// 012   ----------------------------------------
	BYTE	W12
	BYTE		        Cs2 
	BYTE	W84
// 013   ----------------------------------------
	BYTE	PATT
	 POIN2	PokemonRangerGuardianSignsPokemonPincherAdminBattle_10_005
// 014   ----------------------------------------
	BYTE	W12
	BYTE		N36     Cs2   v092
	BYTE	W84
// 015   ----------------------------------------
	BYTE	W12
	BYTE		        An2   v080
	BYTE	W84
// 016   ----------------------------------------
	BYTE	W12
	BYTE		        Cs2 
	BYTE	W84
// 017   ----------------------------------------
	BYTE	PATT
	 POIN2	PokemonRangerGuardianSignsPokemonPincherAdminBattle_10_005
// 018   ----------------------------------------
	BYTE	W24
	BYTE		N36     Cs2   v092
	BYTE	W24
	BYTE		N24     Ds2 
	BYTE	W24
	BYTE		        Ds2   v108
	BYTE	W24
// 019   ----------------------------------------
PokemonRangerGuardianSignsPokemonPincherAdminBattle_10_019:
	BYTE		N24     Ds2   v092
	BYTE	W24
	BYTE		        Ds2   v108
	BYTE	W24
	BYTE		        Ds2   v092
	BYTE	W24
	BYTE		        Ds2   v108
	BYTE	W24
	BYTE	PEND
// 020   ----------------------------------------
PokemonRangerGuardianSignsPokemonPincherAdminBattle_10_020:
	BYTE		N12     Ds2   v092
	BYTE	W12
	BYTE		N36     An2 
	BYTE	W36
	BYTE		N24     Ds2 
	BYTE	W24
	BYTE		        Ds2   v108
	BYTE	W24
	BYTE	PEND
// 021   ----------------------------------------
PokemonRangerGuardianSignsPokemonPincherAdminBattle_10_021:
	BYTE		N12     Ds2   v092
	BYTE	W12
	BYTE		N36     Cs2 
	BYTE	W36
	BYTE		        An2 
	BYTE	W24
	BYTE		N12     Ds2   v108
	BYTE	W11
	BYTE		        As1 
	BYTE	W13
	BYTE	PEND
// 022   ----------------------------------------
	BYTE		        Ds2   v092
	BYTE	W12
	BYTE		N36     Cs2 
	BYTE	W36
	BYTE		N24     Ds2 
	BYTE	W24
	BYTE		        Ds2   v108
	BYTE	W24
// 023   ----------------------------------------
	BYTE	PATT
	 POIN2	PokemonRangerGuardianSignsPokemonPincherAdminBattle_10_019
// 024   ----------------------------------------
	BYTE	PATT
	 POIN2	PokemonRangerGuardianSignsPokemonPincherAdminBattle_10_020
// 025   ----------------------------------------
	BYTE	PATT
	 POIN2	PokemonRangerGuardianSignsPokemonPincherAdminBattle_10_021
// 026   ----------------------------------------
	BYTE		N12     Ds2   v092
	BYTE	W12
	BYTE		N36     Cs2 
	BYTE	W84
// 027   ----------------------------------------
	BYTE	W56
	BYTE	W03
	BYTE		N12     As1   v108
	BYTE	W36
	BYTE	W01
// 028   ----------------------------------------
	BYTE		N24     An2   v092
	BYTE	W24
	BYTE		N36     Cs2 
	BYTE	W72
// 029   ----------------------------------------
	BYTE	W96
// 030   ----------------------------------------
	BYTE	W96
// 031   ----------------------------------------
	BYTE	W84
	BYTE		        An2 
	BYTE	W12
// 032   ----------------------------------------
	BYTE	W24
	BYTE		        Cs2 
	BYTE	W72
// 033   ----------------------------------------
	BYTE	W96
// 034   ----------------------------------------
	BYTE	W96
// 035   ----------------------------------------
	BYTE		N24     An2 
	BYTE	W24
	BYTE		N12     Cs2 
	BYTE	W36
	BYTE		        An2 
	BYTE	W36
// 036   ----------------------------------------
	BYTE	W24
	BYTE		N36     Cs2 
	BYTE	W72
// 037   ----------------------------------------
	BYTE	W96
// 038   ----------------------------------------
	BYTE	W96
// 039   ----------------------------------------
	BYTE	W56
	BYTE	W03
	BYTE		N12     As1 
	BYTE	W24
	BYTE	W01
	BYTE		N36     An2 
	BYTE	W12
// 040   ----------------------------------------
	BYTE	W24
	BYTE		        Cs2 
	BYTE	W72
// 041   ----------------------------------------
	BYTE	W96
// 042   ----------------------------------------
	BYTE	W96
// 043   ----------------------------------------
	BYTE		N24     An2 
	BYTE	W24
	BYTE		N12     Cs2 
	BYTE	W36
	BYTE		N36     An2 
	BYTE	W36
// 044   ----------------------------------------
	BYTE	W24
	BYTE		        Cs2 
	BYTE	W48
	BYTE		        An2 
	BYTE	W24
// 045   ----------------------------------------
	BYTE	W24
	BYTE		N24     Cs2 
	BYTE	W24
	BYTE		        An2 
	BYTE	W32
	BYTE	W03
	BYTE		N12     As1   v108
	BYTE	W13
// 046   ----------------------------------------
	BYTE	W12
	BYTE		N36     Cs2   v092
	BYTE	W84
// 047   ----------------------------------------
	BYTE	W32
	BYTE	W03
	BYTE		N12     As1   v108
	BYTE	W60
	BYTE	W01
// 048   ----------------------------------------
	BYTE	W23
	BYTE	GoTo
	 POIN2	PokemonRangerGuardianSignsPokemonPincherAdminBattle_10_B1
PokemonRangerGuardianSignsPokemonPincherAdminBattle_10_B2:
	BYTE	W01
	BYTE	FINE

//**************** Track 11 (Midi-Chn.12) ****************//

PokemonRangerGuardianSignsPokemonPincherAdminBattle_11:
	BYTE	KEYSH   PokemonRangerGuardianSignsPokemonPincherAdminBattle_key+0
// 000   ----------------------------------------
	BYTE		VOICE   49
	BYTE		VOL     60*PokemonRangerGuardianSignsPokemonPincherAdminBattle_mvl/mxv
	BYTE		PAN     c_v+0
	BYTE		MOD     0
	BYTE	W24
	BYTE	W02
	BYTE	W05
	BYTE	W64
	BYTE	W01
// 001   ----------------------------------------
	BYTE	W30
	BYTE	W01
	BYTE		        5
	BYTE	W64
	BYTE	W01
// 002   ----------------------------------------
	BYTE	W23
PokemonRangerGuardianSignsPokemonPincherAdminBattle_11_B1:
	BYTE	W13
	BYTE		N36     An3   v127
	BYTE	W36
	BYTE		N12     Cn4 
	BYTE	W12
	BYTE		        En4 
	BYTE	W12
// 003   ----------------------------------------
PokemonRangerGuardianSignsPokemonPincherAdminBattle_11_003:
	BYTE		N12     An3   v127
	BYTE	W12
	BYTE		        Gn4 
	BYTE	W12
	BYTE		N36     Fs4 
	BYTE	W36
	BYTE		N12     Dn4 
	BYTE	W12
	BYTE		N24     An4 
	BYTE	W24
	BYTE	PEND
// 004   ----------------------------------------
	BYTE		N12     An3 
	BYTE	W12
	BYTE		        Bn3 
	BYTE	W12
	BYTE		N48     Cn4 
	BYTE	W48
	BYTE		N12     Fn3 
	BYTE	W12
	BYTE		        Cn4 
	BYTE	W12
// 005   ----------------------------------------
	BYTE		        Dn4 
	BYTE	W12
	BYTE		        En4 
	BYTE	W12
	BYTE		N36     Dn4 
	BYTE	W36
	BYTE		N12     Gn3 
	BYTE	W12
	BYTE		N36     Gn4 
	BYTE	W24
// 006   ----------------------------------------
	BYTE	W12
	BYTE		N12     Gn4   v068
	BYTE	W12
	BYTE		N48     An3   v127
	BYTE	W48
	BYTE		N12     Cn4 
	BYTE	W12
	BYTE		        En4 
	BYTE	W12
// 007   ----------------------------------------
	BYTE	PATT
	 POIN2	PokemonRangerGuardianSignsPokemonPincherAdminBattle_11_003
// 008   ----------------------------------------
	BYTE		N12     An3   v127
	BYTE	W12
	BYTE		        Bn3 
	BYTE	W12
	BYTE		N48     Cn4 
	BYTE	W48
	BYTE		N12     An3 
	BYTE	W12
	BYTE		        Cn4 
	BYTE	W12
// 009   ----------------------------------------
	BYTE		        En4 
	BYTE	W12
	BYTE		        An4 
	BYTE	W12
	BYTE		N36     Gn4 
	BYTE	W36
	BYTE		N12     Dn4 
	BYTE	W12
	BYTE		N48     Bn4 
	BYTE	W24
// 010   ----------------------------------------
	BYTE	W96
// 011   ----------------------------------------
	BYTE	W96
// 012   ----------------------------------------
	BYTE	W96
// 013   ----------------------------------------
	BYTE	W96
// 014   ----------------------------------------
	BYTE	W96
// 015   ----------------------------------------
	BYTE	W96
// 016   ----------------------------------------
	BYTE	W96
// 017   ----------------------------------------
	BYTE	W96
// 018   ----------------------------------------
PokemonRangerGuardianSignsPokemonPincherAdminBattle_11_018:
	BYTE	W36
	BYTE		N36     Cn4   v120
	BYTE	W36
	BYTE		N12     Ds3 
	BYTE	W12
	BYTE		        Gs3 
	BYTE	W12
	BYTE	PEND
// 019   ----------------------------------------
PokemonRangerGuardianSignsPokemonPincherAdminBattle_11_019:
	BYTE		N12     Cn4   v120
	BYTE	W12
	BYTE		        Ds4 
	BYTE	W12
	BYTE		N36     Dn4 
	BYTE	W36
	BYTE		N12     As3 
	BYTE	W12
	BYTE		N36     Fn4 
	BYTE	W24
	BYTE	PEND
// 020   ----------------------------------------
	BYTE	W12
	BYTE		N12     Fn4   v080
	BYTE	W12
	BYTE		N48     Ds4   v120
	BYTE	W48
	BYTE		N12     Ds3 
	BYTE	W12
	BYTE		        Gn3 
	BYTE	W12
// 021   ----------------------------------------
	BYTE		        Cn4 
	BYTE	W12
	BYTE		        Ds4 
	BYTE	W84
// 022   ----------------------------------------
	BYTE	PATT
	 POIN2	PokemonRangerGuardianSignsPokemonPincherAdminBattle_11_018
// 023   ----------------------------------------
	BYTE	PATT
	 POIN2	PokemonRangerGuardianSignsPokemonPincherAdminBattle_11_019
// 024   ----------------------------------------
	BYTE	W12
	BYTE		N12     Fn4   v080
	BYTE	W12
	BYTE		N48     Ds4   v120
	BYTE	W48
	BYTE		N12     Fs3 
	BYTE	W12
	BYTE		        Bn3 
	BYTE	W12
// 025   ----------------------------------------
	BYTE		        Ds4 
	BYTE	W12
	BYTE		        Fs4 
	BYTE	W12
	BYTE		N36     Fn4 
	BYTE	W36
	BYTE		N12     Cs4 
	BYTE	W12
	BYTE		N36     Gs4 
	BYTE	W24
// 026   ----------------------------------------
	BYTE	W12
	BYTE		N12     Gs4   v080
	BYTE	W84
// 027   ----------------------------------------
	BYTE	W96
// 028   ----------------------------------------
	BYTE	W30
	BYTE	W01
	BYTE		MOD     10
	BYTE	W05
	BYTE		N48     Cn5   v120
	BYTE	W48
	BYTE		        As4 
	BYTE	W12
// 029   ----------------------------------------
PokemonRangerGuardianSignsPokemonPincherAdminBattle_11_029:
	BYTE	W36
	BYTE		N48     Gs4   v120
	BYTE	W48
	BYTE		        Gn4 
	BYTE	W12
	BYTE	PEND
// 030   ----------------------------------------
	BYTE	W36
	BYTE		N36     As4 
	BYTE	W36
	BYTE		N12     Gs4 
	BYTE	W12
	BYTE		        Gs4   v060
	BYTE	W12
// 031   ----------------------------------------
	BYTE		        Gn4   v120
	BYTE	W12
	BYTE		N72     Gs4 
	BYTE	W72
	BYTE		N24     Gs4   v060
	BYTE	W12
// 032   ----------------------------------------
	BYTE	W12
	BYTE		        Gs4   v032
	BYTE	W24
	BYTE		N48     Cn5   v120
	BYTE	W48
	BYTE		        As4 
	BYTE	W12
// 033   ----------------------------------------
	BYTE	PATT
	 POIN2	PokemonRangerGuardianSignsPokemonPincherAdminBattle_11_029
// 034   ----------------------------------------
	BYTE	W36
	BYTE		N36     Ds5   v120
	BYTE	W36
	BYTE		N12     Gs4 
	BYTE	W12
	BYTE		        Gs4   v060
	BYTE	W12
// 035   ----------------------------------------
	BYTE		        Gn4   v120
	BYTE	W12
	BYTE		N72     Fn5 
	BYTE	W72
	BYTE		N24     Fn5   v060
	BYTE	W12
// 036   ----------------------------------------
	BYTE	W12
	BYTE		        Fn5   v032
	BYTE	W24
	BYTE		N48     Ds5   v120
	BYTE	W48
	BYTE		        Cs5 
	BYTE	W12
// 037   ----------------------------------------
PokemonRangerGuardianSignsPokemonPincherAdminBattle_11_037:
	BYTE	W36
	BYTE		N48     Cn5   v120
	BYTE	W48
	BYTE		        As4 
	BYTE	W12
	BYTE	PEND
// 038   ----------------------------------------
	BYTE	W36
	BYTE		N36     Cs5 
	BYTE	W36
	BYTE		N12     Cn5 
	BYTE	W12
	BYTE		        Cn5   v060
	BYTE	W12
// 039   ----------------------------------------
	BYTE		        As4   v120
	BYTE	W12
	BYTE		N72     Cn5 
	BYTE	W72
	BYTE		N24     Cn5   v060
	BYTE	W12
// 040   ----------------------------------------
	BYTE	W12
	BYTE		        Cn5   v032
	BYTE	W24
	BYTE		N48     Ds5   v120
	BYTE	W48
	BYTE		        Cs5 
	BYTE	W12
// 041   ----------------------------------------
	BYTE	PATT
	 POIN2	PokemonRangerGuardianSignsPokemonPincherAdminBattle_11_037
// 042   ----------------------------------------
	BYTE	W36
	BYTE		N36     Gn5   v120
	BYTE	W36
	BYTE		N12     Cn5 
	BYTE	W12
	BYTE		        Cn5   v060
	BYTE	W12
// 043   ----------------------------------------
	BYTE		        Ds5   v120
	BYTE	W12
	BYTE		N24     Fn5 
	BYTE	W24
	BYTE		N48   
	BYTE	W48
	BYTE		N24     Fn5   v060
	BYTE	W12
// 044   ----------------------------------------
	BYTE	W12
	BYTE		        Fn5   v032
	BYTE	W24
	BYTE		        Ds5   v120
	BYTE	W24
	BYTE		        Cs5 
	BYTE	W24
	BYTE		        Cn5 
	BYTE	W12
// 045   ----------------------------------------
	BYTE	W12
	BYTE		        As4 
	BYTE	W24
	BYTE		        Cs5 
	BYTE	W24
	BYTE		        Cn5 
	BYTE	W24
	BYTE		N12     As4 
	BYTE	W12
// 046   ----------------------------------------
	BYTE		        Gn4 
	BYTE	W12
	BYTE		        Gn4   v060
	BYTE	W12
	BYTE		TIE     An4   v120
	BYTE	W56
	BYTE	W01
	BYTE	W15
// 047   ----------------------------------------
	BYTE	W07
	BYTE	W11
	BYTE	W11
	BYTE	W05
	BYTE	W07
	BYTE	W04
	BYTE	W05
	BYTE	W02
	BYTE	W05
	BYTE	W03
	BYTE	W02
	BYTE	W03
	BYTE	W02
	BYTE	W03
	BYTE	W01
	BYTE	W03
	BYTE	W01
	BYTE	W02
	BYTE	W02
	BYTE	W02
	BYTE	W01
	BYTE	W01
	BYTE	W02
	BYTE	W01
	BYTE	W02
	BYTE	W02
	BYTE	W01
	BYTE	W01
	BYTE	W01
	BYTE	W01
	BYTE	W01
	BYTE	W01
// 048   ----------------------------------------
	BYTE	W01
	BYTE	W02
	BYTE	W01
	BYTE	W02
	BYTE	W01
	BYTE	W01
	BYTE	W01
	BYTE	W01
	BYTE	W01
	BYTE	W01
	BYTE	W01
	BYTE	W01
	BYTE	W01
	BYTE	W01
	BYTE	W01
	BYTE	W01
	BYTE	W01
	BYTE	W01
	BYTE	W01
	BYTE	W01
	BYTE	W01
	BYTE	GoTo
	 POIN2	PokemonRangerGuardianSignsPokemonPincherAdminBattle_11_B1
PokemonRangerGuardianSignsPokemonPincherAdminBattle_11_B2:
	BYTE	W01
	BYTE		EOT     An4 
	BYTE	FINE

//**************** Track 12 (Midi-Chn.13) ****************//

PokemonRangerGuardianSignsPokemonPincherAdminBattle_12:
	BYTE	KEYSH   PokemonRangerGuardianSignsPokemonPincherAdminBattle_key+0
// 000   ----------------------------------------
	BYTE		VOICE   49
	BYTE		VOL     80*PokemonRangerGuardianSignsPokemonPincherAdminBattle_mvl/mxv
	BYTE		PAN     c_v+0
	BYTE		MOD     0
	BYTE	W96
// 001   ----------------------------------------
	BYTE	W96
// 002   ----------------------------------------
	BYTE	W23
PokemonRangerGuardianSignsPokemonPincherAdminBattle_12_B1:
	BYTE		N84     An2   v092
	BYTE		N84     Cn3 
	BYTE	W72
	BYTE	W01
// 003   ----------------------------------------
PokemonRangerGuardianSignsPokemonPincherAdminBattle_12_003:
	BYTE	W11
	BYTE		N96     An2   v092
	BYTE		N96     Dn3 
	BYTE	W84
	BYTE	W01
	BYTE	PEND
// 004   ----------------------------------------
PokemonRangerGuardianSignsPokemonPincherAdminBattle_12_004:
	BYTE	W11
	BYTE		N96     Cn3   v092
	BYTE		N96     Fn3 
	BYTE	W84
	BYTE	W01
	BYTE	PEND
// 005   ----------------------------------------
PokemonRangerGuardianSignsPokemonPincherAdminBattle_12_005:
	BYTE	W11
	BYTE		N48     Dn3   v092
	BYTE		N48     Gn3 
	BYTE	W48
	BYTE		        Bn2 
	BYTE		N48     Dn3 
	BYTE	W36
	BYTE	W01
	BYTE	PEND
// 006   ----------------------------------------
PokemonRangerGuardianSignsPokemonPincherAdminBattle_12_006:
	BYTE	W11
	BYTE		N96     An2   v092
	BYTE		N96     Cn3 
	BYTE	W84
	BYTE	W01
	BYTE	PEND
// 007   ----------------------------------------
	BYTE	PATT
	 POIN2	PokemonRangerGuardianSignsPokemonPincherAdminBattle_12_003
// 008   ----------------------------------------
	BYTE	PATT
	 POIN2	PokemonRangerGuardianSignsPokemonPincherAdminBattle_12_004
// 009   ----------------------------------------
	BYTE	PATT
	 POIN2	PokemonRangerGuardianSignsPokemonPincherAdminBattle_12_005
// 010   ----------------------------------------
	BYTE	PATT
	 POIN2	PokemonRangerGuardianSignsPokemonPincherAdminBattle_12_006
// 011   ----------------------------------------
	BYTE	PATT
	 POIN2	PokemonRangerGuardianSignsPokemonPincherAdminBattle_12_003
// 012   ----------------------------------------
	BYTE	PATT
	 POIN2	PokemonRangerGuardianSignsPokemonPincherAdminBattle_12_004
// 013   ----------------------------------------
	BYTE	PATT
	 POIN2	PokemonRangerGuardianSignsPokemonPincherAdminBattle_12_005
// 014   ----------------------------------------
	BYTE	PATT
	 POIN2	PokemonRangerGuardianSignsPokemonPincherAdminBattle_12_006
// 015   ----------------------------------------
	BYTE	PATT
	 POIN2	PokemonRangerGuardianSignsPokemonPincherAdminBattle_12_003
// 016   ----------------------------------------
	BYTE	PATT
	 POIN2	PokemonRangerGuardianSignsPokemonPincherAdminBattle_12_004
// 017   ----------------------------------------
	BYTE	PATT
	 POIN2	PokemonRangerGuardianSignsPokemonPincherAdminBattle_12_005
// 018   ----------------------------------------
	BYTE	W11
	BYTE		N12     Bn2   v052
	BYTE		N12     Dn3 
	BYTE	W12
	BYTE		N84     Cn3   v092
	BYTE		N84     Ds3 
	BYTE	W72
	BYTE	W01
// 019   ----------------------------------------
	BYTE	W11
	BYTE		N96     As2 
	BYTE		N96     Dn3 
	BYTE	W84
	BYTE	W01
// 020   ----------------------------------------
	BYTE	W11
	BYTE		N84     Cn3 
	BYTE		N84     Ds3 
	BYTE	W84
	BYTE	W01
// 021   ----------------------------------------
	BYTE	W11
	BYTE		N30   
	BYTE		N30     Gn3 
	BYTE	W36
	BYTE		N18     Dn3 
	BYTE		N18     Fn3 
	BYTE	W24
	BYTE		N12     Cn3 
	BYTE		N12     Ds3 
	BYTE	W12
	BYTE		        As2 
	BYTE		N12     Dn3 
	BYTE	W12
	BYTE		        As2   v052
	BYTE		N12     Dn3 
	BYTE	W01
// 022   ----------------------------------------
	BYTE	W11
	BYTE		        Gs2   v092
	BYTE		N96     Cn3 
	BYTE		N96     Ds3 
	BYTE	W84
	BYTE	W01
// 023   ----------------------------------------
	BYTE	W11
	BYTE		        Dn3 
	BYTE		N96     Fn3 
	BYTE	W84
	BYTE	W01
// 024   ----------------------------------------
	BYTE	W11
	BYTE		        Ds3 
	BYTE		N96     Fs3 
	BYTE	W84
	BYTE	W01
// 025   ----------------------------------------
	BYTE	W11
	BYTE		N36     Fn3 
	BYTE		N36     Gs3 
	BYTE	W36
	BYTE		N12     Fn3   v072
	BYTE		N12     Gs3 
	BYTE	W12
	BYTE		N44     Gs3   v092
	BYTE		N44     Cs4 
	BYTE	W36
	BYTE	W01
// 026   ----------------------------------------
	BYTE	W11
	BYTE		N36     Ds4   v120
	BYTE		N36     Gs4 
	BYTE	W36
	BYTE		N12     Ds4   v072
	BYTE		N12     Gs4 
	BYTE	W12
	BYTE		N60     Ds4   v120
	BYTE		N60     Gn4 
	BYTE	W36
	BYTE	W01
// 027   ----------------------------------------
	BYTE	W23
	BYTE		N06     Fn3 
	BYTE		N06     Gn3 
	BYTE	W06
	BYTE		        Fn3   v080
	BYTE		N06     Gn3 
	BYTE	W06
	BYTE		        Fn4   v120
	BYTE		N06     Gn4 
	BYTE	W06
	BYTE		        Fn4   v080
	BYTE		N06     Gn4 
	BYTE	W06
	BYTE		        Fn4   v120
	BYTE		N06     Gn4 
	BYTE	W06
	BYTE		        Fn4   v080
	BYTE		N06     Gn4 
	BYTE	W06
	BYTE		N09     En4   v120
	BYTE		N09     Gn4 
	BYTE	W12
	BYTE		N12     En4   v080
	BYTE		N12     Gn4 
	BYTE	W24
	BYTE	W01
// 028   ----------------------------------------
PokemonRangerGuardianSignsPokemonPincherAdminBattle_12_028:
	BYTE	W23
	BYTE		N96     Cs3   v092
	BYTE		N96     Fn3 
	BYTE	W72
	BYTE	W01
	BYTE	PEND
// 029   ----------------------------------------
PokemonRangerGuardianSignsPokemonPincherAdminBattle_12_029:
	BYTE	W23
	BYTE		N48     Cs3   v092
	BYTE		N48     Ds3 
	BYTE	W48
	BYTE		        Cs3 
	BYTE		N48     Ds3 
	BYTE	W24
	BYTE	W01
	BYTE	PEND
// 030   ----------------------------------------
PokemonRangerGuardianSignsPokemonPincherAdminBattle_12_030:
	BYTE	W23
	BYTE		N36     Cn3   v092
	BYTE		N36     Fn3 
	BYTE	W36
	BYTE		        Cn3   v052
	BYTE		N36     Fn3 
	BYTE	W36
	BYTE		N66     Cn3   v092
	BYTE		N66     Fn3 
	BYTE	W01
	BYTE	PEND
// 031   ----------------------------------------
PokemonRangerGuardianSignsPokemonPincherAdminBattle_12_031:
	BYTE	W64
	BYTE	W01
	BYTE		N06     Cn3   v052
	BYTE		N06     Fn3 
	BYTE	W06
	BYTE		        Cn3   v100
	BYTE		N06     Fn3 
	BYTE	W06
	BYTE		        Cn3   v052
	BYTE		N06     Fn3 
	BYTE	W06
	BYTE		N24     As2   v100
	BYTE		N24     Ds3 
	BYTE	W13
	BYTE	PEND
// 032   ----------------------------------------
PokemonRangerGuardianSignsPokemonPincherAdminBattle_12_032:
	BYTE	W11
	BYTE		N12     As2   v052
	BYTE		N12     Ds3 
	BYTE	W12
	BYTE		N96     Cs3   v092
	BYTE		N96     Fn3 
	BYTE	W72
	BYTE	W01
	BYTE	PEND
// 033   ----------------------------------------
	BYTE	PATT
	 POIN2	PokemonRangerGuardianSignsPokemonPincherAdminBattle_12_029
// 034   ----------------------------------------
PokemonRangerGuardianSignsPokemonPincherAdminBattle_12_034:
	BYTE	W23
	BYTE		N36     Cn3   v092
	BYTE		N36     Ds3 
	BYTE	W36
	BYTE		N48     Cn3 
	BYTE		N48     Ds3 
	BYTE	W36
	BYTE	W01
	BYTE	PEND
// 035   ----------------------------------------
	BYTE	W11
	BYTE		N12     Cn3   v052
	BYTE		N12     Ds3 
	BYTE	W12
	BYTE		N24     Fn3   v112
	BYTE		N24     As3 
	BYTE	W24
	BYTE		N12     Fn3   v080
	BYTE		N12     As3 
	BYTE	W12
	BYTE		        Fn3   v112
	BYTE		N12     An3 
	BYTE	W12
	BYTE		        Fn3   v080
	BYTE		N12     An3 
	BYTE	W12
	BYTE		N36     An3   v100
	BYTE		N36     Cn4 
	BYTE	W13
// 036   ----------------------------------------
	BYTE	PATT
	 POIN2	PokemonRangerGuardianSignsPokemonPincherAdminBattle_12_028
// 037   ----------------------------------------
	BYTE	PATT
	 POIN2	PokemonRangerGuardianSignsPokemonPincherAdminBattle_12_029
// 038   ----------------------------------------
	BYTE	PATT
	 POIN2	PokemonRangerGuardianSignsPokemonPincherAdminBattle_12_030
// 039   ----------------------------------------
	BYTE	PATT
	 POIN2	PokemonRangerGuardianSignsPokemonPincherAdminBattle_12_031
// 040   ----------------------------------------
	BYTE	PATT
	 POIN2	PokemonRangerGuardianSignsPokemonPincherAdminBattle_12_032
// 041   ----------------------------------------
	BYTE	PATT
	 POIN2	PokemonRangerGuardianSignsPokemonPincherAdminBattle_12_029
// 042   ----------------------------------------
	BYTE	PATT
	 POIN2	PokemonRangerGuardianSignsPokemonPincherAdminBattle_12_034
// 043   ----------------------------------------
	BYTE	W11
	BYTE		N12     Cn3   v052
	BYTE		N12     Ds3 
	BYTE	W12
	BYTE		N24     Fn3   v092
	BYTE		N24     As3 
	BYTE	W24
	BYTE		N12     Fn3   v060
	BYTE		N12     As3 
	BYTE	W12
	BYTE		        Fn3   v092
	BYTE		N12     An3 
	BYTE	W12
	BYTE		        Fn3   v060
	BYTE		N12     An3 
	BYTE	W12
	BYTE		N36     An3   v100
	BYTE		N36     Cn4 
	BYTE	W13
// 044   ----------------------------------------
	BYTE	W23
	BYTE		N48     Cs3 
	BYTE		N48     Fn3 
	BYTE	W48
	BYTE		        Cn3 
	BYTE		N48     Ds3 
	BYTE	W24
	BYTE	W01
// 045   ----------------------------------------
	BYTE	W23
	BYTE		        Cs3 
	BYTE		N48     Fn3 
	BYTE	W48
	BYTE		N36     Ds3 
	BYTE		N36     Gn3 
	BYTE	W24
	BYTE	W01
// 046   ----------------------------------------
	BYTE	W11
	BYTE		TIE     Cn3 
	BYTE		TIE     Fn3 
	BYTE	W60
	BYTE	W20
	BYTE	W05
// 047   ----------------------------------------
	BYTE	W08
	BYTE	W09
	BYTE	W06
	BYTE	W08
	BYTE	W05
	BYTE	W04
	BYTE	W04
	BYTE	W03
	BYTE	W05
	BYTE	W03
	BYTE	W02
	BYTE	W02
	BYTE	W02
	BYTE	W03
	BYTE	W03
	BYTE	W01
	BYTE	W02
	BYTE	W01
	BYTE	W02
	BYTE	W02
	BYTE	W01
	BYTE	W02
	BYTE	W01
	BYTE	W02
	BYTE	W01
	BYTE	W01
	BYTE	W02
	BYTE	W02
	BYTE	W01
	BYTE	W01
	BYTE	W01
	BYTE	W01
	BYTE	W01
	BYTE	W01
	BYTE	W01
	BYTE	W01
	BYTE	W01
// 048   ----------------------------------------
	BYTE	W01
	BYTE	W01
	BYTE	W01
	BYTE	W01
	BYTE	W01
	BYTE	W01
	BYTE	W01
	BYTE	W01
	BYTE	W01
	BYTE	W01
	BYTE	W01
	BYTE	W01
	BYTE	W01
	BYTE	W01
	BYTE	W01
	BYTE	W01
	BYTE	W01
	BYTE	W01
	BYTE	W01
	BYTE	W01
	BYTE	W01
	BYTE	W01
	BYTE	W01
	BYTE		EOT     Cn3 
	BYTE		        Fn3 
	BYTE	GoTo
	 POIN2	PokemonRangerGuardianSignsPokemonPincherAdminBattle_12_B1
PokemonRangerGuardianSignsPokemonPincherAdminBattle_12_B2:
	BYTE	W01
	BYTE	FINE

//**************** Track 13 (Midi-Chn.14) ****************//

PokemonRangerGuardianSignsPokemonPincherAdminBattle_13:
	BYTE	KEYSH   PokemonRangerGuardianSignsPokemonPincherAdminBattle_key+0
// 000   ----------------------------------------
	BYTE		VOICE   15
	BYTE		VOL     90*PokemonRangerGuardianSignsPokemonPincherAdminBattle_mvl/mxv
	BYTE		PAN     c_v+0
	BYTE		MOD     0
	BYTE	W24
	BYTE		PAN     c_v-20
	BYTE		N12     Cn4   v092
	BYTE		N12     Dn4 
	BYTE	W12
	BYTE		PAN     c_v+20
	BYTE		N06     Bn3 
	BYTE		N06     Cs4 
	BYTE	W06
	BYTE		        Bn3   v052
	BYTE		N06     Cs4 
	BYTE	W06
	BYTE		PAN     c_v-20
	BYTE		N06     Gn3   v092
	BYTE		N06     An3 
	BYTE	W06
	BYTE		        Gn3   v052
	BYTE		N06     An3 
	BYTE	W06
	BYTE		PAN     c_v+20
	BYTE		N12     As3   v092
	BYTE		N12     Cn4 
	BYTE	W12
	BYTE		PAN     c_v-20
	BYTE		N06     An3 
	BYTE		N06     Bn3 
	BYTE	W06
	BYTE		        An3   v052
	BYTE		N06     Bn3 
	BYTE	W06
	BYTE		PAN     c_v+20
	BYTE		N06     Fn3   v092
	BYTE		N06     Gn3 
	BYTE	W06
	BYTE		        Fn3   v052
	BYTE		N06     Gn3 
	BYTE	W06
// 001   ----------------------------------------
	BYTE		PAN     c_v-20
	BYTE		N12     Cn4   v092
	BYTE		N12     Dn4 
	BYTE	W12
	BYTE		PAN     c_v+20
	BYTE		N06     Bn3 
	BYTE		N06     Cs4 
	BYTE	W06
	BYTE		        Bn3   v052
	BYTE		N06     Cs4 
	BYTE	W06
	BYTE		PAN     c_v-20
	BYTE		N06     Gn3   v092
	BYTE		N06     An3 
	BYTE	W06
	BYTE		        Gn3   v052
	BYTE		N06     An3 
	BYTE	W06
	BYTE		PAN     c_v+20
	BYTE		N12     As3   v092
	BYTE		N12     Cn4 
	BYTE	W12
	BYTE		PAN     c_v-20
	BYTE		N06     An3 
	BYTE		N06     Bn3 
	BYTE	W06
	BYTE		        An3   v052
	BYTE		N06     Bn3 
	BYTE	W06
	BYTE		PAN     c_v+20
	BYTE		N06     Fn3   v092
	BYTE		N06     Gn3 
	BYTE	W06
	BYTE		        Fn3   v052
	BYTE		N06     Gn3 
	BYTE	W06
	BYTE		PAN     c_v-20
	BYTE	W24
// 002   ----------------------------------------
	BYTE		        c_v+20
	BYTE	W23
PokemonRangerGuardianSignsPokemonPincherAdminBattle_13_B1:
	BYTE	W01
	BYTE		PAN     c_v-20
	BYTE		N06     Gn4   v072
	BYTE	W06
	BYTE		        Cn5 
	BYTE	W06
	BYTE		        Dn5 
	BYTE	W06
	BYTE		        Gn5 
	BYTE	W06
	BYTE		PAN     c_v+20
	BYTE		N06     Gn4   v052
	BYTE	W06
	BYTE		        Cn5 
	BYTE	W06
	BYTE		        Dn5 
	BYTE	W06
	BYTE		        Gn5 
	BYTE	W06
	BYTE		PAN     c_v-20
	BYTE		N06     Gn4   v040
	BYTE	W06
	BYTE		        Cn5 
	BYTE	W06
	BYTE		        Dn5 
	BYTE	W06
	BYTE		        Gn5 
	BYTE	W06
// 003   ----------------------------------------
	BYTE	W96
// 004   ----------------------------------------
	BYTE	W96
// 005   ----------------------------------------
	BYTE	W96
// 006   ----------------------------------------
	BYTE	W96
// 007   ----------------------------------------
	BYTE	W96
// 008   ----------------------------------------
	BYTE	W96
// 009   ----------------------------------------
	BYTE	W96
// 010   ----------------------------------------
	BYTE	W96
// 011   ----------------------------------------
	BYTE	W96
// 012   ----------------------------------------
	BYTE	W96
// 013   ----------------------------------------
	BYTE	W96
// 014   ----------------------------------------
	BYTE	W96
// 015   ----------------------------------------
	BYTE	W96
// 016   ----------------------------------------
	BYTE	W96
// 017   ----------------------------------------
	BYTE	W96
// 018   ----------------------------------------
	BYTE	W96
// 019   ----------------------------------------
	BYTE	W96
// 020   ----------------------------------------
	BYTE	W96
// 021   ----------------------------------------
	BYTE	W96
// 022   ----------------------------------------
	BYTE	W96
// 023   ----------------------------------------
	BYTE	W96
// 024   ----------------------------------------
	BYTE	W96
// 025   ----------------------------------------
	BYTE	W96
// 026   ----------------------------------------
	BYTE	W96
// 027   ----------------------------------------
	BYTE	W96
// 028   ----------------------------------------
	BYTE	W96
// 029   ----------------------------------------
	BYTE	W96
// 030   ----------------------------------------
	BYTE	W96
// 031   ----------------------------------------
	BYTE	W96
// 032   ----------------------------------------
	BYTE	W96
// 033   ----------------------------------------
	BYTE	W96
// 034   ----------------------------------------
	BYTE	W96
// 035   ----------------------------------------
	BYTE	W96
// 036   ----------------------------------------
	BYTE	W96
// 037   ----------------------------------------
	BYTE	W96
// 038   ----------------------------------------
	BYTE	W96
// 039   ----------------------------------------
	BYTE	W96
// 040   ----------------------------------------
	BYTE	W96
// 041   ----------------------------------------
	BYTE	W96
// 042   ----------------------------------------
	BYTE	W96
// 043   ----------------------------------------
	BYTE	W96
// 044   ----------------------------------------
	BYTE	W96
// 045   ----------------------------------------
	BYTE	W96
// 046   ----------------------------------------
	BYTE	W96
// 047   ----------------------------------------
	BYTE	W96
// 048   ----------------------------------------
	BYTE	W23
	BYTE	GoTo
	 POIN2	PokemonRangerGuardianSignsPokemonPincherAdminBattle_13_B1
PokemonRangerGuardianSignsPokemonPincherAdminBattle_13_B2:
	BYTE	W01
	BYTE	FINE

//******************************************************//
	ALIGN 4

PokemonRangerGuardianSignsPokemonPincherAdminBattle:
	BYTE	13	// NumTrks
	BYTE	0	// NumBlks
	BYTE	PokemonRangerGuardianSignsPokemonPincherAdminBattle_pri	// Priority
	BYTE	PokemonRangerGuardianSignsPokemonPincherAdminBattle_rev	// Reverb.

	POIN2	PokemonRangerGuardianSignsPokemonPincherAdminBattle_grp

	POIN2	PokemonRangerGuardianSignsPokemonPincherAdminBattle_1
	POIN2	PokemonRangerGuardianSignsPokemonPincherAdminBattle_2
	POIN2	PokemonRangerGuardianSignsPokemonPincherAdminBattle_3
	POIN2	PokemonRangerGuardianSignsPokemonPincherAdminBattle_4
	POIN2	PokemonRangerGuardianSignsPokemonPincherAdminBattle_5
	POIN2	PokemonRangerGuardianSignsPokemonPincherAdminBattle_6
	POIN2	PokemonRangerGuardianSignsPokemonPincherAdminBattle_7
	POIN2	PokemonRangerGuardianSignsPokemonPincherAdminBattle_8
	POIN2	PokemonRangerGuardianSignsPokemonPincherAdminBattle_9
	POIN2	PokemonRangerGuardianSignsPokemonPincherAdminBattle_10
	POIN2	PokemonRangerGuardianSignsPokemonPincherAdminBattle_11
	POIN2	PokemonRangerGuardianSignsPokemonPincherAdminBattle_12
	POIN2	PokemonRangerGuardianSignsPokemonPincherAdminBattle_13

	
