//Event file generated from Sappy .s format.
	#include "MPlayDef.event"

	#define	PokemonRSEMaxieArchieRSflame_grp  voicegroup000
	#define	PokemonRSEMaxieArchieRSflame_pri  0
	#define	PokemonRSEMaxieArchieRSflame_rev  0
	#define	PokemonRSEMaxieArchieRSflame_mvl  127
	#define	PokemonRSEMaxieArchieRSflame_key  0
	#define	PokemonRSEMaxieArchieRSflame_tbs  1
	#define	PokemonRSEMaxieArchieRSflame_exg  0
	#define	PokemonRSEMaxieArchieRSflame_cmp  1

	// .rodata
	//	PokemonRSEMaxieArchieRSflame
	ALIGN 4


//**************** Track 1 (Midi-Chn.0) ****************//

PokemonRSEMaxieArchieRSflame_001:
// 000   ----------------------------------------
 BYTE   KEYSH   PokemonRSEMaxieArchieRSflame_key+0
 BYTE   TEMPO   192*PokemonRSEMaxieArchieRSflame_tbs/2
 BYTE   VOICE   48
 BYTE   VOL   50*PokemonRSEMaxieArchieRSflame_mvl/mxv
 BYTE   W96
// 001   ----------------------------------------
 BYTE   W96
// 002   ----------------------------------------
 BYTE   W96
// 003   ----------------------------------------
 BYTE   W48
Label_0_55C48C:
 BYTE   W48
// 004   ----------------------------------------
 BYTE   W96
// 005   ----------------------------------------
 BYTE   W96
// 006   ----------------------------------------
 BYTE   W96
// 007   ----------------------------------------
 BYTE   W96
// 008   ----------------------------------------
 BYTE   W96
// 009   ----------------------------------------
 BYTE   W96
// 010   ----------------------------------------
 BYTE   W96
// 011   ----------------------------------------
 BYTE   PAN   c_v-8
 BYTE   N48  En2  v108
 BYTE   W48
 BYTE   N12  Fn2
 BYTE   W36
 BYTE   N36  Cn2
 BYTE   W12
// 012   ----------------------------------------
Label_0_55C4A0:
 BYTE   W24
 BYTE   N12  Ds2  v108
 BYTE   W24
 BYTE   Fn2
 BYTE   W36
 BYTE   N36  Cn2
 BYTE   W12
 BYTE   PEND 
// 013   ----------------------------------------
Label_0_55C4AB:
 BYTE   W24
 BYTE   N12  En2  v108
 BYTE   W24
 BYTE   Fn2
 BYTE   W36
 BYTE   N24  As2
 BYTE   W12
 BYTE   PEND 
// 014   ----------------------------------------
Label_0_55C4B6:
 BYTE   W12
 BYTE   N12  Gs2  v108
 BYTE   W12
 BYTE   Fs2
 BYTE   W12
 BYTE   En2
 BYTE   W12
 BYTE   Fn2
 BYTE   W36
 BYTE   N36  Cn2
 BYTE   W12
 BYTE   PEND 
// 015   ----------------------------------------
Label_0_55C4C5:
 BYTE   W24
 BYTE   N12  Fs2  v108
 BYTE   W24
 BYTE   Fn2
 BYTE   W36
 BYTE   N36  Cn2
 BYTE   W12
 BYTE   PEND 
// 016   ----------------------------------------
Label_0_55C4D0:
 BYTE   W24
 BYTE   N12  En2  v108
 BYTE   W24
 BYTE   Fn2
 BYTE   W36
 BYTE   N36  Cn2
 BYTE   W12
 BYTE   PEND 
// 017   ----------------------------------------
 BYTE   PATT
  POIN2 Label_0_55C4AB
// 018   ----------------------------------------
Label_0_55C4E0:
 BYTE   W12
 BYTE   N12  Gs2  v108
 BYTE   W12
 BYTE   Fs2
 BYTE   W12
 BYTE   En2
 BYTE   W12
 BYTE   Fn2
 BYTE   W36
 BYTE   Cn2
 BYTE   W12
 BYTE   PEND 
// 019   ----------------------------------------
 BYTE   N48  Fn2
 BYTE   W48
 BYTE   PAN   c_v-8
 BYTE   N12  Gn2
 BYTE   W36
 BYTE   N36  Dn2
 BYTE   W12
// 020   ----------------------------------------
 BYTE   W24
 BYTE   N12  Fn2
 BYTE   W24
 BYTE   Gn2
 BYTE   W36
 BYTE   N36  Dn2
 BYTE   W12
// 021   ----------------------------------------
Label_0_55C502:
 BYTE   W24
 BYTE   N12  Fs2  v108
 BYTE   W24
 BYTE   Gn2
 BYTE   W36
 BYTE   N24  Cn3
 BYTE   W12
 BYTE   PEND 
// 022   ----------------------------------------
 BYTE   W12
 BYTE   N12  As2
 BYTE   W12
 BYTE   Gs2
 BYTE   W12
 BYTE   Fs2
 BYTE   W12
 BYTE   Gn2
 BYTE   W36
 BYTE   N36  Dn2
 BYTE   W12
// 023   ----------------------------------------
 BYTE   W24
 BYTE   N12  Gs2
 BYTE   W24
 BYTE   Gn2
 BYTE   W36
 BYTE   N36  Dn2
 BYTE   W12
// 024   ----------------------------------------
 BYTE   W24
 BYTE   N12  Fs2
 BYTE   W24
 BYTE   Gn2
 BYTE   W36
 BYTE   N36  Dn2
 BYTE   W12
// 025   ----------------------------------------
 BYTE   PATT
  POIN2 Label_0_55C502
// 026   ----------------------------------------
 BYTE   W12
 BYTE   N12  As2  v108
 BYTE   W12
 BYTE   Gs2
 BYTE   W12
 BYTE   Fs2
 BYTE   W12
 BYTE   Gn2
 BYTE   W36
 BYTE   Dn2
 BYTE   W12
// 027   ----------------------------------------
 BYTE   N48  Ds3
 BYTE   W48
 BYTE   PAN   c_v+10
 BYTE   N36  En3  v096
 BYTE   W36
 BYTE   Ds3
 BYTE   W12
// 028   ----------------------------------------
 BYTE   W24
 BYTE   N24  Bn2
 BYTE   W24
 BYTE   N36  Dn3
 BYTE   W36
 BYTE   Cn3
 BYTE   W12
// 029   ----------------------------------------
 BYTE   W24
 BYTE   N24  An2
 BYTE   W24
 BYTE   N36  Bn2
 BYTE   W36
 BYTE   Cn3
 BYTE   W12
// 030   ----------------------------------------
 BYTE   W24
 BYTE   N24  Bn2
 BYTE   W24
 BYTE   TIE  Gs2
 BYTE   W48
// 031   ----------------------------------------
 BYTE   W96
// 032   ----------------------------------------
 BYTE   W48
 BYTE   EOT
 BYTE   TIE  Gs1  v100
 BYTE   W48
// 033   ----------------------------------------
 BYTE   W96
// 034   ----------------------------------------
 BYTE   W48
 BYTE   EOT
 BYTE   W48
// 035   ----------------------------------------
 BYTE   W96
// 036   ----------------------------------------
 BYTE   W96
// 037   ----------------------------------------
 BYTE   W96
// 038   ----------------------------------------
 BYTE   W48
 BYTE   N36  Cn2  v108
 BYTE   W36
 BYTE   Cs2
 BYTE   W12
// 039   ----------------------------------------
 BYTE   W24
 BYTE   N24  Fs2
 BYTE   W24
 BYTE   N36  Fn2
 BYTE   W36
 BYTE   Cs2
 BYTE   W12
// 040   ----------------------------------------
 BYTE   W24
 BYTE   N24  Bn1
 BYTE   W24
 BYTE   N36  Cn2
 BYTE   W36
 BYTE   Cs2
 BYTE   W12
// 041   ----------------------------------------
 BYTE   W24
 BYTE   N24  Fs2
 BYTE   W24
 BYTE   N36  Fn2
 BYTE   W36
 BYTE   Fs2
 BYTE   W12
// 042   ----------------------------------------
 BYTE   W24
 BYTE   N24  Gs2
 BYTE   W24
 BYTE   PAN   c_v-30
 BYTE   N12  Gn2
 BYTE   W12
 BYTE   N12
 BYTE   W12
 BYTE   N24  Gs2
 BYTE   W24
// 043   ----------------------------------------
Label_0_55C5A0:
 BYTE   N12  Gn2  v108
 BYTE   W12
 BYTE   N12
 BYTE   W12
 BYTE   N24  As2
 BYTE   W24
 BYTE   N12  Gn2
 BYTE   W12
 BYTE   N12
 BYTE   W12
 BYTE   N24  Cn3
 BYTE   W24
 BYTE   PEND 
// 044   ----------------------------------------
 BYTE   N12  Cs3
 BYTE   W12
 BYTE   Cn3
 BYTE   W12
 BYTE   An2
 BYTE   W12
 BYTE   Gs2
 BYTE   W12
 BYTE   Gn2
 BYTE   W12
 BYTE   N12
 BYTE   W12
 BYTE   N24  Gs2
 BYTE   W24
// 045   ----------------------------------------
 BYTE   PATT
  POIN2 Label_0_55C5A0
// 046   ----------------------------------------
 BYTE   N24  Cs3  v108
 BYTE   W24
 BYTE   Cn3
 BYTE   W24
 BYTE   N12  Gn3  v096
 BYTE   W12
 BYTE   N12
 BYTE   W12
 BYTE   N24  Gs3
 BYTE   W24
// 047   ----------------------------------------
Label_0_55C5D6:
 BYTE   N12  Gn3  v096
 BYTE   W12
 BYTE   N12
 BYTE   W12
 BYTE   N24  As3
 BYTE   W24
 BYTE   N12  Gn3
 BYTE   W12
 BYTE   N12
 BYTE   W12
 BYTE   N24  Cn4
 BYTE   W24
 BYTE   PEND 
// 048   ----------------------------------------
 BYTE   N12  Cs4
 BYTE   W12
 BYTE   Cn4
 BYTE   W12
 BYTE   An3
 BYTE   W12
 BYTE   Gs3
 BYTE   W12
 BYTE   Gn3
 BYTE   W12
 BYTE   N12
 BYTE   W12
 BYTE   N24  Gs3
 BYTE   W24
// 049   ----------------------------------------
 BYTE   PATT
  POIN2 Label_0_55C5D6
// 050   ----------------------------------------
 BYTE   N24  Cs4  v096
 BYTE   W24
 BYTE   Cn4
 BYTE   W24
 BYTE   N96
 BYTE   W48
// 051   ----------------------------------------
 BYTE   W48
 BYTE   Fs3
 BYTE   W48
// 052   ----------------------------------------
 BYTE   W48
 BYTE   Fn3
 BYTE   W48
// 053   ----------------------------------------
 BYTE   W48
 BYTE   Cn3
 BYTE   W48
// 054   ----------------------------------------
 BYTE   W48
 BYTE   N96
 BYTE   W48
// 055   ----------------------------------------
 BYTE   W48
 BYTE   Fs2
 BYTE   W48
// 056   ----------------------------------------
 BYTE   W48
 BYTE   Fn2
 BYTE   W48
// 057   ----------------------------------------
 BYTE   W48
 BYTE   Fs2
 BYTE   W48
// 058   ----------------------------------------
 BYTE   W48
 BYTE   PAN   c_v-8
 BYTE   N12  Fn2  v108
 BYTE   W36
 BYTE   N36  Cn2
 BYTE   W12
// 059   ----------------------------------------
 BYTE   PATT
  POIN2 Label_0_55C4A0
// 060   ----------------------------------------
 BYTE   PATT
  POIN2 Label_0_55C4AB
// 061   ----------------------------------------
 BYTE   PATT
  POIN2 Label_0_55C4B6
// 062   ----------------------------------------
 BYTE   PATT
  POIN2 Label_0_55C4C5
// 063   ----------------------------------------
 BYTE   PATT
  POIN2 Label_0_55C4D0
// 064   ----------------------------------------
 BYTE   PATT
  POIN2 Label_0_55C4AB
// 065   ----------------------------------------
 BYTE   PATT
  POIN2 Label_0_55C4E0
// 066   ----------------------------------------
 BYTE   N48  Fn2  v108
 BYTE   W48
 BYTE   GoTo
  POIN2 Label_0_55C48C
 BYTE   FINE

//**************** Track 2 (Midi-Chn.1) ****************//

PokemonRSEMaxieArchieRSflame_002:
// 000   ----------------------------------------
 BYTE   KEYSH   PokemonRSEMaxieArchieRSflame_key+0
 BYTE   VOICE   49
 BYTE   VOL   50*PokemonRSEMaxieArchieRSflame_mvl/mxv
 BYTE   PAN   c_v+0
 BYTE   W96
// 001   ----------------------------------------
 BYTE   W96
// 002   ----------------------------------------
 BYTE   W96
// 003   ----------------------------------------
 BYTE   W42
 BYTE   N06  Dn3  v120
 BYTE   W06
Label_1_55BEF8:
 BYTE   N96  Ds3  v120
 BYTE   W48
// 004   ----------------------------------------
 BYTE   MOD 0
 BYTE   FsM2
 BYTE   W48
 BYTE   CnM2
 BYTE   W06
 BYTE   N06  Dn3
 BYTE   W06
 BYTE   N12  Ds3
 BYTE   W12
 BYTE   Cs3
 BYTE   W12
 BYTE   Ds3
 BYTE   W12
// 005   ----------------------------------------
 BYTE   Fs3
 BYTE   W12
 BYTE   En3
 BYTE   W12
 BYTE   Ds3
 BYTE   W12
 BYTE   Cs3
 BYTE   W12
 BYTE   N96  Ds3
 BYTE   W48
// 006   ----------------------------------------
Label_1_55BF16:
 BYTE   MOD 0
 BYTE   FsM2
 BYTE   W48
 BYTE   CnM2
 BYTE   W12
 BYTE   N12  Ds3  v120
 BYTE   W12
 BYTE   Cs3
 BYTE   W12
 BYTE   Ds3
 BYTE   W12
 BYTE   PEND 
// 007   ----------------------------------------
 BYTE   Fs3
 BYTE   W12
 BYTE   En3
 BYTE   W12
 BYTE   Gs3
 BYTE   W12
 BYTE   En3
 BYTE   W12
 BYTE   N96  Ds3
 BYTE   W48
// 008   ----------------------------------------
 BYTE   PATT
  POIN2 Label_1_55BF16
// 009   ----------------------------------------
 BYTE   N12  Fs3  v120
 BYTE   W12
 BYTE   En3
 BYTE   W12
 BYTE   Ds3
 BYTE   W12
 BYTE   Cs3
 BYTE   W12
 BYTE   TIE  Ds3
 BYTE   W48
// 010   ----------------------------------------
 BYTE   MOD 0
 BYTE   FsM2
 BYTE   W32
 BYTE   W01
 BYTE   VOL   47*PokemonRSEMaxieArchieRSflame_mvl/mxv
 BYTE   W09
 BYTE   An1
 BYTE   W09
 BYTE   Fs1
 BYTE   W09
 BYTE   Cs1
 BYTE   W09
 BYTE   Gn0
 BYTE   W09
 BYTE   BnM1
 BYTE   W06
 BYTE   DsM1
 BYTE   W06
 BYTE   GsM2
 BYTE   W06
// 011   ----------------------------------------
 BYTE   EOT
 BYTE   MOD 0
 BYTE   CnM2
 BYTE   W42
 BYTE   VOL   50*PokemonRSEMaxieArchieRSflame_mvl/mxv
 BYTE   N06  En3  v124
 BYTE   W06
 BYTE   N96  Fn3
 BYTE   W48
// 012   ----------------------------------------
Label_1_55BF63:
 BYTE   MOD 0
 BYTE   FsM2
 BYTE   W48
 BYTE   CnM2
 BYTE   W06
 BYTE   N06  En3  v124
 BYTE   W06
 BYTE   N12  Fn3
 BYTE   W12
 BYTE   Ds3
 BYTE   W12
 BYTE   Fn3
 BYTE   W12
 BYTE   PEND 
// 013   ----------------------------------------
Label_1_55BF74:
 BYTE   N12  Gs3  v124
 BYTE   W12
 BYTE   Fs3
 BYTE   W12
 BYTE   Fn3
 BYTE   W12
 BYTE   Ds3
 BYTE   W12
 BYTE   N96  Fn3
 BYTE   W48
 BYTE   PEND 
// 014   ----------------------------------------
Label_1_55BF82:
 BYTE   MOD 0
 BYTE   FsM2
 BYTE   W48
 BYTE   CnM2
 BYTE   W12
 BYTE   N12  Fn3  v124
 BYTE   W12
 BYTE   Ds3
 BYTE   W12
 BYTE   Fn3
 BYTE   W12
 BYTE   PEND 
// 015   ----------------------------------------
Label_1_55BF90:
 BYTE   N12  Gs3  v124
 BYTE   W12
 BYTE   Fs3
 BYTE   W12
 BYTE   As3
 BYTE   W12
 BYTE   Fs3
 BYTE   W12
 BYTE   N96  Fn3
 BYTE   W48
 BYTE   PEND 
// 016   ----------------------------------------
 BYTE   PATT
  POIN2 Label_1_55BF82
// 017   ----------------------------------------
 BYTE   N12  Gs3  v124
 BYTE   W12
 BYTE   Fs3
 BYTE   W12
 BYTE   Fn3
 BYTE   W12
 BYTE   Ds3
 BYTE   W12
 BYTE   TIE  Fn3
 BYTE   W48
// 018   ----------------------------------------
 BYTE   MOD 0
 BYTE   FsM2
 BYTE   W96
// 019   ----------------------------------------
 BYTE   EOT
 BYTE   MOD 0
 BYTE   CnM2
 BYTE   N48  Fs3
 BYTE   W48
 BYTE   N96  Gn3
 BYTE   W48
// 020   ----------------------------------------
Label_1_55BFBC:
 BYTE   MOD 0
 BYTE   FsM2
 BYTE   W48
 BYTE   CnM2
 BYTE   W12
 BYTE   N12  Gn3  v124
 BYTE   W12
 BYTE   Fn3
 BYTE   W12
 BYTE   Gn3
 BYTE   W12
 BYTE   PEND 
// 021   ----------------------------------------
 BYTE   As3
 BYTE   W12
 BYTE   Gs3
 BYTE   W12
 BYTE   Gn3
 BYTE   W12
 BYTE   Fn3
 BYTE   W12
 BYTE   N96  Gn3
 BYTE   W48
// 022   ----------------------------------------
 BYTE   PATT
  POIN2 Label_1_55BFBC
// 023   ----------------------------------------
 BYTE   N12  As3  v124
 BYTE   W12
 BYTE   Gs3
 BYTE   W12
 BYTE   Cn4
 BYTE   W12
 BYTE   Gs3
 BYTE   W12
 BYTE   N96  Gn3
 BYTE   W48
// 024   ----------------------------------------
 BYTE   PATT
  POIN2 Label_1_55BFBC
// 025   ----------------------------------------
 BYTE   N12  As3  v124
 BYTE   W12
 BYTE   Gs3
 BYTE   W12
 BYTE   Gn3
 BYTE   W12
 BYTE   Fn3
 BYTE   W12
 BYTE   N72  Gn3
 BYTE   W36
 BYTE   MOD 0
 BYTE   FsM2
 BYTE   W12
// 026   ----------------------------------------
 BYTE   W24
 BYTE   CnM2
 BYTE   N72  Dn4  v120
 BYTE   W36
 BYTE   MOD 0
 BYTE   FsM2
 BYTE   W36
// 027   ----------------------------------------
 BYTE   CnM2
 BYTE   N48  Cn4
 BYTE   W24
 BYTE   MOD 0
 BYTE   FsM2
 BYTE   W24
 BYTE   PAN   c_v-10
 BYTE   MOD 0
 BYTE   CnM2
 BYTE   N36  Bn3  v108
 BYTE   W36
 BYTE   As3
 BYTE   W12
// 028   ----------------------------------------
 BYTE   W24
 BYTE   N24  Fs3
 BYTE   W24
 BYTE   N36  An3
 BYTE   W36
 BYTE   Gn3
 BYTE   W12
// 029   ----------------------------------------
 BYTE   W24
 BYTE   N24  En3
 BYTE   W24
 BYTE   N36  Fs3
 BYTE   W36
 BYTE   Gn3
 BYTE   W12
// 030   ----------------------------------------
 BYTE   W24
 BYTE   N24  Fs3
 BYTE   W24
 BYTE   TIE  Ds3
 BYTE   W48
// 031   ----------------------------------------
 BYTE   W96
// 032   ----------------------------------------
 BYTE   W48
 BYTE   EOT
 BYTE   TIE  Ds2  v112
 BYTE   W48
// 033   ----------------------------------------
 BYTE   W96
// 034   ----------------------------------------
 BYTE   W48
 BYTE   EOT
 BYTE   N36  Cn2  v116
 BYTE   W36
 BYTE   Cs2
 BYTE   W12
// 035   ----------------------------------------
 BYTE   W24
 BYTE   N24  Fs2
 BYTE   W24
 BYTE   N36  Fn2
 BYTE   W36
 BYTE   Cs2
 BYTE   W12
// 036   ----------------------------------------
 BYTE   W24
 BYTE   N24  Bn1
 BYTE   W24
 BYTE   N36  Cn2
 BYTE   W36
 BYTE   Cs2
 BYTE   W12
// 037   ----------------------------------------
 BYTE   W24
 BYTE   N24  Fs2
 BYTE   W24
 BYTE   N36  Fn2
 BYTE   W36
 BYTE   Fs2
 BYTE   W12
// 038   ----------------------------------------
 BYTE   W24
 BYTE   N24  Ds2
 BYTE   W24
 BYTE   N36  Fn2
 BYTE   W36
 BYTE   Fs2
 BYTE   W12
// 039   ----------------------------------------
 BYTE   W24
 BYTE   N24  Bn2
 BYTE   W24
 BYTE   N36  As2
 BYTE   W36
 BYTE   Fs2
 BYTE   W12
// 040   ----------------------------------------
 BYTE   W24
 BYTE   N24  En2
 BYTE   W24
 BYTE   N36  Fn2
 BYTE   W36
 BYTE   Fs2
 BYTE   W12
// 041   ----------------------------------------
 BYTE   W24
 BYTE   N24  Bn2
 BYTE   W24
 BYTE   N36  As2
 BYTE   W36
 BYTE   Bn2
 BYTE   W12
// 042   ----------------------------------------
 BYTE   W24
 BYTE   N24  Cs3
 BYTE   W24
 BYTE   N12  Cn3  v120
 BYTE   W12
 BYTE   N12
 BYTE   W12
 BYTE   N24  Cs3
 BYTE   W24
// 043   ----------------------------------------
Label_1_55C08B:
 BYTE   N12  Cn3  v120
 BYTE   W12
 BYTE   N12
 BYTE   W12
 BYTE   N24  Ds3
 BYTE   W24
 BYTE   N12  Cn3
 BYTE   W12
 BYTE   N12
 BYTE   W12
 BYTE   N24  En3
 BYTE   W24
 BYTE   PEND 
// 044   ----------------------------------------
 BYTE   N12  Fn3
 BYTE   W12
 BYTE   En3
 BYTE   W12
 BYTE   Cs3
 BYTE   W12
 BYTE   Cn3
 BYTE   W12
 BYTE   N12
 BYTE   W12
 BYTE   N12
 BYTE   W12
 BYTE   N24  Cs3
 BYTE   W24
// 045   ----------------------------------------
 BYTE   PATT
  POIN2 Label_1_55C08B
// 046   ----------------------------------------
 BYTE   N24  Fn3  v120
 BYTE   W24
 BYTE   En3
 BYTE   W24
 BYTE   N12  Cn4  v108
 BYTE   W12
 BYTE   N12
 BYTE   W12
 BYTE   N24  Cs4
 BYTE   W24
// 047   ----------------------------------------
Label_1_55C0C1:
 BYTE   N12  Cn4  v108
 BYTE   W12
 BYTE   N12
 BYTE   W12
 BYTE   N24  Ds4
 BYTE   W24
 BYTE   N12  Cn4
 BYTE   W12
 BYTE   N12
 BYTE   W12
 BYTE   N24  En4
 BYTE   W24
 BYTE   PEND 
// 048   ----------------------------------------
 BYTE   N12  Fn4
 BYTE   W12
 BYTE   En4
 BYTE   W12
 BYTE   Cs4
 BYTE   W12
 BYTE   Cn4
 BYTE   W12
 BYTE   N12
 BYTE   W12
 BYTE   N12
 BYTE   W12
 BYTE   N24  Cs4
 BYTE   W24
// 049   ----------------------------------------
 BYTE   PATT
  POIN2 Label_1_55C0C1
// 050   ----------------------------------------
 BYTE   N24  Fn4  v108
 BYTE   W24
 BYTE   En4
 BYTE   W24
 BYTE   TIE  Fn4
 BYTE   W48
// 051   ----------------------------------------
 BYTE   W96
// 052   ----------------------------------------
 BYTE   W96
// 053   ----------------------------------------
 BYTE   W96
// 054   ----------------------------------------
 BYTE   W48
 BYTE   EOT
 BYTE   TIE  Fn5  v100
 BYTE   W24
 BYTE   VOL   49*PokemonRSEMaxieArchieRSflame_mvl/mxv
 BYTE   W15
 BYTE   As1
 BYTE   W09
// 055   ----------------------------------------
 BYTE   W06
 BYTE   Gs1
 BYTE   W12
 BYTE   Fs1
 BYTE   W12
 BYTE   En1
 BYTE   W12
 BYTE   Ds1
 BYTE   W15
 BYTE   Cs1
 BYTE   W12
 BYTE   As0
 BYTE   W18
 BYTE   Cn1
 BYTE   W09
// 056   ----------------------------------------
 BYTE   W06
 BYTE   Dn1
 BYTE   W12
 BYTE   Ds1
 BYTE   W12
 BYTE   Fn1
 BYTE   W12
 BYTE   Gn1
 BYTE   W12
 BYTE   Gs1
 BYTE   W12
 BYTE   As1
 BYTE   W12
 BYTE   Cn2
 BYTE   W09
 BYTE   Dn2
 BYTE   W09
// 057   ----------------------------------------
 BYTE   W66
 BYTE   Bn1
 BYTE   W09
 BYTE   An1
 BYTE   W09
 BYTE   Fs1
 BYTE   W09
 BYTE   Ds1
 BYTE   W03
// 058   ----------------------------------------
 BYTE   W06
 BYTE   Bn0
 BYTE   W09
 BYTE   En0
 BYTE   W06
 BYTE   AnM1
 BYTE   W06
 BYTE   CsM1
 BYTE   W03
 BYTE   FsM2
 BYTE   W03
 BYTE   DsM2
 BYTE   W06
 BYTE   EOT
 BYTE   W03
 BYTE   VOL   50*PokemonRSEMaxieArchieRSflame_mvl/mxv
 BYTE   N06  En3  v124
 BYTE   W06
 BYTE   N96  Fn3
 BYTE   W48
// 059   ----------------------------------------
 BYTE   PATT
  POIN2 Label_1_55BF63
// 060   ----------------------------------------
 BYTE   PATT
  POIN2 Label_1_55BF74
// 061   ----------------------------------------
 BYTE   PATT
  POIN2 Label_1_55BF82
// 062   ----------------------------------------
 BYTE   PATT
  POIN2 Label_1_55BF90
// 063   ----------------------------------------
 BYTE   PATT
  POIN2 Label_1_55BF82
// 064   ----------------------------------------
 BYTE   N12  Gs3  v124
 BYTE   W12
 BYTE   Fs3
 BYTE   W12
 BYTE   Fn3
 BYTE   W12
 BYTE   Ds3
 BYTE   W12
 BYTE   N72  Fn3
 BYTE   W36
 BYTE   MOD 0
 BYTE   FsM2
 BYTE   W12
// 065   ----------------------------------------
 BYTE   W24
 BYTE   CnM2
 BYTE   N48  Cn4  v120
 BYTE   W24
 BYTE   MOD 0
 BYTE   FsM2
 BYTE   W24
 BYTE   CnM2
 BYTE   N24  Fn3
 BYTE   W24
// 066   ----------------------------------------
 BYTE   N48  Fs3
 BYTE   W24
 BYTE   MOD 0
 BYTE   FsM2
 BYTE   W21
 BYTE   CnM2
 BYTE   W03
 BYTE   GoTo
  POIN2 Label_1_55BEF8
 BYTE   FINE

//**************** Track 3 (Midi-Chn.2) ****************//

PokemonRSEMaxieArchieRSflame_003:
// 000   ----------------------------------------
 BYTE   KEYSH   PokemonRSEMaxieArchieRSflame_key+0
 BYTE   VOICE   36
 BYTE   VOL   50*PokemonRSEMaxieArchieRSflame_mvl/mxv
 BYTE   N24  Ds0  v116
 BYTE   W24
 BYTE   Fs0
 BYTE   W24
 BYTE   En0
 BYTE   W24
 BYTE   Ds0
 BYTE   W24
// 001   ----------------------------------------
 BYTE   Cs0
 BYTE   W24
 BYTE   En0
 BYTE   W24
 BYTE   Ds0
 BYTE   W24
 BYTE   Cs0
 BYTE   W24
// 002   ----------------------------------------
 BYTE   Ds0
 BYTE   W24
 BYTE   Fs0
 BYTE   W24
 BYTE   En0
 BYTE   W24
 BYTE   Ds0
 BYTE   W24
// 003   ----------------------------------------
 BYTE   Cs0
 BYTE   W24
 BYTE   BnM1
 BYTE   W24
Label_2_01EA4A34:
 BYTE   N12  Ds0  v116
 BYTE   W12
 BYTE   As0
 BYTE   W12
 BYTE   Ds0
 BYTE   W12
 BYTE   As0
 BYTE   W12
// 004   ----------------------------------------
 BYTE   Ds0
 BYTE   W12
 BYTE   As0
 BYTE   W12
 BYTE   Ds0
 BYTE   W12
 BYTE   As0
 BYTE   W12
 BYTE   Ds0
 BYTE   W12
 BYTE   As0
 BYTE   W12
 BYTE   Ds0
 BYTE   W12
 BYTE   As0
 BYTE   W12
// 005   ----------------------------------------
Label_2_01EA4A4E:
 BYTE   N12  Fs0  v116
 BYTE   W12
 BYTE   Gs0
 BYTE   W12
 BYTE   As0
 BYTE   W12
 BYTE   Bn0
 BYTE   W12
 BYTE   Ds0
 BYTE   W12
 BYTE   As0
 BYTE   W12
 BYTE   Ds0
 BYTE   W12
 BYTE   As0
 BYTE   W12
 BYTE   PEND 
// 006   ----------------------------------------
Label_2_01EA4A61:
 BYTE   N12  Ds0  v116
 BYTE   W12
 BYTE   Fs0
 BYTE   W12
 BYTE   As0
 BYTE   W12
 BYTE   Bn0
 BYTE   W12
 BYTE   Ds0
 BYTE   W12
 BYTE   As0
 BYTE   W12
 BYTE   Ds0
 BYTE   W12
 BYTE   As0
 BYTE   W12
 BYTE   PEND 
// 007   ----------------------------------------
 BYTE   Ds0
 BYTE   W12
 BYTE   Bn0
 BYTE   W12
 BYTE   As0
 BYTE   W12
 BYTE   Gs0
 BYTE   W12
 BYTE   Ds0
 BYTE   W12
 BYTE   As0
 BYTE   W12
 BYTE   Ds0
 BYTE   W12
 BYTE   As0
 BYTE   W12
// 008   ----------------------------------------
 BYTE   Ds0
 BYTE   W12
 BYTE   As0
 BYTE   W12
 BYTE   Ds0
 BYTE   W12
 BYTE   Bn0
 BYTE   W12
 BYTE   Ds0
 BYTE   W12
 BYTE   As0
 BYTE   W12
 BYTE   Ds0
 BYTE   W12
 BYTE   As0
 BYTE   W12
// 009   ----------------------------------------
 BYTE   PATT
  POIN2 Label_2_01EA4A4E
// 010   ----------------------------------------
 BYTE   PATT
  POIN2 Label_2_01EA4A61
// 011   ----------------------------------------
 BYTE   N12  Ds0  v116
 BYTE   W12
 BYTE   As0
 BYTE   W12
 BYTE   An0
 BYTE   W12
 BYTE   As0
 BYTE   W12
 BYTE   Fn0
 BYTE   W12
 BYTE   Cn1
 BYTE   W12
 BYTE   Fn0
 BYTE   W12
 BYTE   Cn1
 BYTE   W12
// 012   ----------------------------------------
Label_2_01EA4AB0:
 BYTE   N12  Fn0  v116
 BYTE   W12
 BYTE   Cn1
 BYTE   W12
 BYTE   Fn0
 BYTE   W12
 BYTE   Cn1
 BYTE   W12
 BYTE   Fn0
 BYTE   W12
 BYTE   Cn1
 BYTE   W12
 BYTE   Fn0
 BYTE   W12
 BYTE   Cn1
 BYTE   W12
 BYTE   PEND 
// 013   ----------------------------------------
Label_2_01EA4AC3:
 BYTE   N12  Gs0  v116
 BYTE   W12
 BYTE   As0
 BYTE   W12
 BYTE   Cn1
 BYTE   W12
 BYTE   Cs1
 BYTE   W12
 BYTE   Fn0
 BYTE   W12
 BYTE   Cn1
 BYTE   W12
 BYTE   Fn0
 BYTE   W12
 BYTE   Cn1
 BYTE   W12
 BYTE   PEND 
// 014   ----------------------------------------
Label_2_01EA4AD6:
 BYTE   N12  Fn0  v116
 BYTE   W12
 BYTE   Gs0
 BYTE   W12
 BYTE   Cn1
 BYTE   W12
 BYTE   Cs1
 BYTE   W12
 BYTE   Fn0
 BYTE   W12
 BYTE   Cn1
 BYTE   W12
 BYTE   Fn0
 BYTE   W12
 BYTE   Cn1
 BYTE   W12
 BYTE   PEND 
// 015   ----------------------------------------
Label_2_01EA4AE9:
 BYTE   N12  Fn0  v116
 BYTE   W12
 BYTE   Cs1
 BYTE   W12
 BYTE   Cn1
 BYTE   W12
 BYTE   As0
 BYTE   W12
 BYTE   Fn0
 BYTE   W12
 BYTE   Cn1
 BYTE   W12
 BYTE   Fn0
 BYTE   W12
 BYTE   Cn1
 BYTE   W12
 BYTE   PEND 
// 016   ----------------------------------------
Label_2_01EA4AFC:
 BYTE   N12  Fn0  v116
 BYTE   W12
 BYTE   Cn1
 BYTE   W12
 BYTE   Fn0
 BYTE   W12
 BYTE   Cs1
 BYTE   W12
 BYTE   Fn0
 BYTE   W12
 BYTE   Cn1
 BYTE   W12
 BYTE   Fn0
 BYTE   W12
 BYTE   Cn1
 BYTE   W12
 BYTE   PEND 
// 017   ----------------------------------------
 BYTE   PATT
  POIN2 Label_2_01EA4AC3
// 018   ----------------------------------------
 BYTE   PATT
  POIN2 Label_2_01EA4AD6
// 019   ----------------------------------------
 BYTE   N12  Fn0  v116
 BYTE   W12
 BYTE   Fs0
 BYTE   W12
 BYTE   Gn0
 BYTE   W12
 BYTE   An0
 BYTE   W12
 BYTE   Gn0
 BYTE   W12
 BYTE   Dn1
 BYTE   W12
 BYTE   Gn0
 BYTE   W12
 BYTE   Dn1
 BYTE   W12
// 020   ----------------------------------------
Label_2_01EA4B2B:
 BYTE   N12  Gn0  v116
 BYTE   W12
 BYTE   Dn1
 BYTE   W12
 BYTE   Gn0
 BYTE   W12
 BYTE   Dn1
 BYTE   W12
 BYTE   Gn0
 BYTE   W12
 BYTE   Dn1
 BYTE   W12
 BYTE   Gn0
 BYTE   W12
 BYTE   Dn1
 BYTE   W12
 BYTE   PEND 
// 021   ----------------------------------------
Label_2_01EA4B3E:
 BYTE   N12  As0  v116
 BYTE   W12
 BYTE   Cn1
 BYTE   W12
 BYTE   Dn1
 BYTE   W12
 BYTE   Ds1
 BYTE   W12
 BYTE   Gn0
 BYTE   W12
 BYTE   Dn1
 BYTE   W12
 BYTE   Gn0
 BYTE   W12
 BYTE   Dn1
 BYTE   W12
 BYTE   PEND 
// 022   ----------------------------------------
Label_2_01EA4B51:
 BYTE   N12  Gn0  v116
 BYTE   W12
 BYTE   As0
 BYTE   W12
 BYTE   Dn1
 BYTE   W12
 BYTE   Ds1
 BYTE   W12
 BYTE   Gn0
 BYTE   W12
 BYTE   Dn1
 BYTE   W12
 BYTE   Gn0
 BYTE   W12
 BYTE   Dn1
 BYTE   W12
 BYTE   PEND 
// 023   ----------------------------------------
 BYTE   Gn0
 BYTE   W12
 BYTE   Ds1
 BYTE   W12
 BYTE   Dn1
 BYTE   W12
 BYTE   Cn1
 BYTE   W12
 BYTE   Gn0
 BYTE   W12
 BYTE   Dn1
 BYTE   W12
 BYTE   Gn0
 BYTE   W12
 BYTE   Dn1
 BYTE   W12
// 024   ----------------------------------------
 BYTE   Gn0
 BYTE   W12
 BYTE   Dn1
 BYTE   W12
 BYTE   Gn0
 BYTE   W12
 BYTE   Ds1
 BYTE   W12
 BYTE   Gn0
 BYTE   W12
 BYTE   Dn1
 BYTE   W12
 BYTE   Gn0
 BYTE   W12
 BYTE   Dn1
 BYTE   W12
// 025   ----------------------------------------
 BYTE   PATT
  POIN2 Label_2_01EA4B3E
// 026   ----------------------------------------
 BYTE   PATT
  POIN2 Label_2_01EA4B51
// 027   ----------------------------------------
 BYTE   N12  Gn0  v116
 BYTE   W12
 BYTE   Gs0
 BYTE   W12
 BYTE   An0
 BYTE   W12
 BYTE   Bn0
 BYTE   W12
 BYTE   Gn0
 BYTE   W12
 BYTE   Dn1
 BYTE   W12
 BYTE   Gn0
 BYTE   W12
 BYTE   Dn1
 BYTE   W12
// 028   ----------------------------------------
 BYTE   PATT
  POIN2 Label_2_01EA4B2B
// 029   ----------------------------------------
 BYTE   PATT
  POIN2 Label_2_01EA4B2B
// 030   ----------------------------------------
 BYTE   N12  Gn0  v116
 BYTE   W12
 BYTE   Dn1
 BYTE   W12
 BYTE   Ds1
 BYTE   W12
 BYTE   Dn1
 BYTE   W12
 BYTE   Gs0
 BYTE   W12
 BYTE   Ds1
 BYTE   W12
 BYTE   Gs0
 BYTE   W12
 BYTE   Ds1
 BYTE   W12
// 031   ----------------------------------------
Label_2_01EA4BBC:
 BYTE   N12  Gs0  v116
 BYTE   W12
 BYTE   Ds1
 BYTE   W12
 BYTE   Gs0
 BYTE   W12
 BYTE   Ds1
 BYTE   W12
 BYTE   Gs0
 BYTE   W12
 BYTE   Ds1
 BYTE   W12
 BYTE   Gs0
 BYTE   W12
 BYTE   Ds1
 BYTE   W12
 BYTE   PEND 
// 032   ----------------------------------------
 BYTE   PATT
  POIN2 Label_2_01EA4BBC
// 033   ----------------------------------------
 BYTE   PATT
  POIN2 Label_2_01EA4BBC
// 034   ----------------------------------------
 BYTE   N12  Gs0  v116
 BYTE   W12
 BYTE   Ds1
 BYTE   W12
 BYTE   Gs0
 BYTE   W12
 BYTE   Ds1
 BYTE   W12
 BYTE   Fn0
 BYTE   W12
 BYTE   Cn1
 BYTE   W12
 BYTE   Fn0
 BYTE   W12
 BYTE   Cn1
 BYTE   W12
// 035   ----------------------------------------
 BYTE   PATT
  POIN2 Label_2_01EA4AB0
// 036   ----------------------------------------
Label_2_01EA4BF0:
 BYTE   N12  Fn0  v116
 BYTE   W12
 BYTE   Cn1
 BYTE   W12
 BYTE   Bn0
 BYTE   W12
 BYTE   Cn1
 BYTE   W12
 BYTE   Fn0
 BYTE   W12
 BYTE   Cn1
 BYTE   W12
 BYTE   Fn0
 BYTE   W12
 BYTE   Cn1
 BYTE   W12
 BYTE   PEND 
// 037   ----------------------------------------
 BYTE   PATT
  POIN2 Label_2_01EA4AB0
// 038   ----------------------------------------
 BYTE   PATT
  POIN2 Label_2_01EA4BF0
// 039   ----------------------------------------
 BYTE   PATT
  POIN2 Label_2_01EA4AB0
// 040   ----------------------------------------
 BYTE   PATT
  POIN2 Label_2_01EA4BF0
// 041   ----------------------------------------
 BYTE   N12  Fn0  v116
 BYTE   W12
 BYTE   Cn1
 BYTE   W12
 BYTE   Fn0
 BYTE   W12
 BYTE   Cn1
 BYTE   W12
 BYTE   Fn0
 BYTE   W12
 BYTE   Cn1
 BYTE   W12
 BYTE   Fn1
 BYTE   W12
 BYTE   Fs1
 BYTE   W12
// 042   ----------------------------------------
 BYTE   Fn1
 BYTE   W12
 BYTE   Ds1
 BYTE   W12
 BYTE   Cs1
 BYTE   W12
 BYTE   Ds1
 BYTE   W12
 BYTE   Gn0
 BYTE   W12
 BYTE   Cn1
 BYTE   W12
 BYTE   Gn0
 BYTE   W12
 BYTE   Cn1
 BYTE   W12
// 043   ----------------------------------------
Label_2_01EA4C39:
 BYTE   N12  Gn0  v116
 BYTE   W12
 BYTE   Cn1
 BYTE   W12
 BYTE   Gn0
 BYTE   W12
 BYTE   Ds1
 BYTE   W12
 BYTE   Cn1
 BYTE   W12
 BYTE   N12
 BYTE   W12
 BYTE   Gn0
 BYTE   W12
 BYTE   Cn1
 BYTE   W12
 BYTE   PEND 
// 044   ----------------------------------------
 BYTE   Gn0
 BYTE   W12
 BYTE   Cn1
 BYTE   W12
 BYTE   Cs1
 BYTE   W12
 BYTE   Cn1
 BYTE   W12
 BYTE   Gn0
 BYTE   W12
 BYTE   Cn1
 BYTE   W12
 BYTE   Gn0
 BYTE   W12
 BYTE   Cn1
 BYTE   W12
// 045   ----------------------------------------
 BYTE   PATT
  POIN2 Label_2_01EA4C39
// 046   ----------------------------------------
 BYTE   N12  Gn0  v116
 BYTE   W12
 BYTE   Cn1
 BYTE   W12
 BYTE   N12
 BYTE   W12
 BYTE   Cs1
 BYTE   W12
 BYTE   Gn0
 BYTE   W12
 BYTE   Cn1
 BYTE   W12
 BYTE   Gn0
 BYTE   W12
 BYTE   Cn1
 BYTE   W12
// 047   ----------------------------------------
 BYTE   Gn0
 BYTE   W12
 BYTE   Cn1
 BYTE   W12
 BYTE   As0
 BYTE   W12
 BYTE   N12
 BYTE   W12
 BYTE   Cn1
 BYTE   W12
 BYTE   N12
 BYTE   W12
 BYTE   Gn0
 BYTE   W12
 BYTE   Cn1
 BYTE   W12
// 048   ----------------------------------------
 BYTE   Cs1
 BYTE   W12
 BYTE   Cn1
 BYTE   W12
 BYTE   Cs1
 BYTE   W12
 BYTE   Cn1
 BYTE   W12
 BYTE   Gn0
 BYTE   W12
 BYTE   Cn1
 BYTE   W12
 BYTE   Gn0
 BYTE   W12
 BYTE   Cn1
 BYTE   W12
// 049   ----------------------------------------
 BYTE   Gn0
 BYTE   W12
 BYTE   Cn1
 BYTE   W12
 BYTE   As0
 BYTE   W12
 BYTE   Ds1
 BYTE   W12
 BYTE   Cn1
 BYTE   W12
 BYTE   N12
 BYTE   W12
 BYTE   Gn0
 BYTE   W12
 BYTE   Cn1
 BYTE   W12
// 050   ----------------------------------------
 BYTE   Gn0
 BYTE   W12
 BYTE   Cs1
 BYTE   W12
 BYTE   Ds1
 BYTE   W12
 BYTE   En1
 BYTE   W12
 BYTE   Fn0
 BYTE   W12
 BYTE   Cn1
 BYTE   W12
 BYTE   Fn0
 BYTE   W12
 BYTE   Cn1
 BYTE   W12
// 051   ----------------------------------------
 BYTE   PATT
  POIN2 Label_2_01EA4AB0
// 052   ----------------------------------------
 BYTE   PATT
  POIN2 Label_2_01EA4AB0
// 053   ----------------------------------------
 BYTE   PATT
  POIN2 Label_2_01EA4AB0
// 054   ----------------------------------------
 BYTE   PATT
  POIN2 Label_2_01EA4AB0
// 055   ----------------------------------------
 BYTE   PATT
  POIN2 Label_2_01EA4AB0
// 056   ----------------------------------------
 BYTE   PATT
  POIN2 Label_2_01EA4AB0
// 057   ----------------------------------------
 BYTE   PATT
  POIN2 Label_2_01EA4AB0
// 058   ----------------------------------------
 BYTE   N12  Cs1  v116
 BYTE   W12
 BYTE   Cn1
 BYTE   W12
 BYTE   Cs1
 BYTE   W12
 BYTE   Cn1
 BYTE   W12
 BYTE   Fn0
 BYTE   W12
 BYTE   Cn1
 BYTE   W12
 BYTE   Fn0
 BYTE   W12
 BYTE   Cn1
 BYTE   W12
// 059   ----------------------------------------
 BYTE   PATT
  POIN2 Label_2_01EA4AB0
// 060   ----------------------------------------
 BYTE   PATT
  POIN2 Label_2_01EA4AC3
// 061   ----------------------------------------
 BYTE   PATT
  POIN2 Label_2_01EA4AD6
// 062   ----------------------------------------
 BYTE   PATT
  POIN2 Label_2_01EA4AE9
// 063   ----------------------------------------
 BYTE   PATT
  POIN2 Label_2_01EA4AFC
// 064   ----------------------------------------
 BYTE   PATT
  POIN2 Label_2_01EA4AC3
// 065   ----------------------------------------
 BYTE   PATT
  POIN2 Label_2_01EA4AD6
// 066   ----------------------------------------
 BYTE   N12  Fn0  v116
 BYTE   W12
 BYTE   Fs0
 BYTE   W12
 BYTE   Gn0
 BYTE   W12
 BYTE   An0
 BYTE   W12
 BYTE   GoTo
  POIN2 Label_2_01EA4A34
 BYTE   FINE

//**************** Track 4 (Midi-Chn.3) ****************//

PokemonRSEMaxieArchieRSflame_004:
// 000   ----------------------------------------
 BYTE   KEYSH   PokemonRSEMaxieArchieRSflame_key+0
 BYTE   VOICE   46
 BYTE   VOL   50*PokemonRSEMaxieArchieRSflame_mvl/mxv
 BYTE   BEND   c_v+0
 BYTE   W96
// 001   ----------------------------------------
 BYTE   W96
// 002   ----------------------------------------
 BYTE   W96
// 003   ----------------------------------------
 BYTE   W48
Label_3_01EA440C:
 BYTE   PAN   c_v+48
 BYTE   N06  As3  v052
 BYTE   W36
 BYTE   N06
 BYTE   W12
// 004   ----------------------------------------
 BYTE   W24
 BYTE   N06
 BYTE   W24
 BYTE   N06
 BYTE   W36
 BYTE   N06
 BYTE   W12
// 005   ----------------------------------------
Label_3_01EA441B:
 BYTE   W24
 BYTE   N24  Bn3  v052
 BYTE   W24
 BYTE   N06  As3
 BYTE   W48
 BYTE   PEND 
// 006   ----------------------------------------
 BYTE   W96
// 007   ----------------------------------------
 BYTE   W96
// 008   ----------------------------------------
 BYTE   W48
 BYTE   N06
 BYTE   W36
 BYTE   N06
 BYTE   W12
// 009   ----------------------------------------
 BYTE   PATT
  POIN2 Label_3_01EA441B
// 010   ----------------------------------------
 BYTE   W96
// 011   ----------------------------------------
Label_3_01EA4431:
 BYTE   W48
 BYTE   N06  Cn4  v052
 BYTE   W36
 BYTE   N06
 BYTE   W12
 BYTE   PEND 
// 012   ----------------------------------------
 BYTE   W24
 BYTE   N06
 BYTE   W24
 BYTE   N06
 BYTE   W36
 BYTE   N06
 BYTE   W12
// 013   ----------------------------------------
Label_3_01EA4440:
 BYTE   W24
 BYTE   N24  Cs4  v052
 BYTE   W24
 BYTE   N06  Cn4
 BYTE   W48
 BYTE   PEND 
// 014   ----------------------------------------
 BYTE   W96
// 015   ----------------------------------------
 BYTE   W96
// 016   ----------------------------------------
 BYTE   PATT
  POIN2 Label_3_01EA4431
// 017   ----------------------------------------
 BYTE   PATT
  POIN2 Label_3_01EA4440
// 018   ----------------------------------------
 BYTE   W96
// 019   ----------------------------------------
 BYTE   W48
 BYTE   PAN   c_v+48
 BYTE   N06  Dn4  v052
 BYTE   W36
 BYTE   N06
 BYTE   W12
// 020   ----------------------------------------
 BYTE   W24
 BYTE   N06
 BYTE   W24
 BYTE   N06
 BYTE   W36
 BYTE   N06
 BYTE   W12
// 021   ----------------------------------------
Label_3_01EA4466:
 BYTE   W24
 BYTE   N24  Ds4  v052
 BYTE   W24
 BYTE   N06  Dn4
 BYTE   W48
 BYTE   PEND 
// 022   ----------------------------------------
 BYTE   W96
// 023   ----------------------------------------
 BYTE   W96
// 024   ----------------------------------------
 BYTE   W48
 BYTE   N06
 BYTE   W36
 BYTE   N06
 BYTE   W12
// 025   ----------------------------------------
 BYTE   PATT
  POIN2 Label_3_01EA4466
// 026   ----------------------------------------
 BYTE   W96
// 027   ----------------------------------------
 BYTE   W96
// 028   ----------------------------------------
 BYTE   W96
// 029   ----------------------------------------
 BYTE   W96
// 030   ----------------------------------------
 BYTE   W96
// 031   ----------------------------------------
 BYTE   W96
// 032   ----------------------------------------
 BYTE   W96
// 033   ----------------------------------------
 BYTE   W96
// 034   ----------------------------------------
 BYTE   W96
// 035   ----------------------------------------
 BYTE   W96
// 036   ----------------------------------------
 BYTE   W48
 BYTE   PAN   c_v+0
 BYTE   BEND   c_v-3
 BYTE   W18
 BYTE   N12  Cn3  v032
 BYTE   W12
 BYTE   As2
 BYTE   W12
 BYTE   Cn3
 BYTE   W06
// 037   ----------------------------------------
 BYTE   W06
 BYTE   Ds3
 BYTE   W12
 BYTE   Cs3
 BYTE   W12
 BYTE   Cn3
 BYTE   W12
 BYTE   As2
 BYTE   W12
 BYTE   Cn3
 BYTE   W12
 BYTE   N12
 BYTE   W12
 BYTE   N12
 BYTE   W12
 BYTE   N12
 BYTE   W06
// 038   ----------------------------------------
 BYTE   MOD 0
 BYTE   FsM2
 BYTE   W06
 BYTE   N12
 BYTE   W12
 BYTE   N12
 BYTE   W12
 BYTE   N12
 BYTE   W12
 BYTE   N12
 BYTE   W06
 BYTE   MOD 0
 BYTE   CnM2
 BYTE   W48
// 039   ----------------------------------------
 BYTE   W48
 BYTE   BEND   c_v+0
 BYTE   W48
// 040   ----------------------------------------
 BYTE   W96
// 041   ----------------------------------------
 BYTE   W96
// 042   ----------------------------------------
 BYTE   W96
// 043   ----------------------------------------
 BYTE   W96
// 044   ----------------------------------------
 BYTE   W96
// 045   ----------------------------------------
 BYTE   W96
// 046   ----------------------------------------
 BYTE   W96
// 047   ----------------------------------------
 BYTE   W96
// 048   ----------------------------------------
 BYTE   W96
// 049   ----------------------------------------
 BYTE   W96
// 050   ----------------------------------------
 BYTE   W48
 BYTE   PAN   c_v+0
 BYTE   BEND   c_v-2
 BYTE   N12  Bn1  v072
 BYTE   W12
 BYTE   Ds2
 BYTE   W12
 BYTE   En2
 BYTE   W12
 BYTE   Fs2
 BYTE   W12
// 051   ----------------------------------------
 BYTE   Gn2
 BYTE   W12
 BYTE   An2
 BYTE   W12
 BYTE   As2
 BYTE   W12
 BYTE   Bn2
 BYTE   W12
 BYTE   Cn3
 BYTE   W12
 BYTE   Bn2
 BYTE   W12
 BYTE   As2
 BYTE   W12
 BYTE   An2
 BYTE   W12
// 052   ----------------------------------------
 BYTE   Gn2
 BYTE   W12
 BYTE   Fs2
 BYTE   W12
 BYTE   En2
 BYTE   W12
 BYTE   Ds2
 BYTE   W12
 BYTE   Cs2
 BYTE   W12
 BYTE   Fn2
 BYTE   W12
 BYTE   Fs2
 BYTE   W12
 BYTE   Gs2
 BYTE   W12
// 053   ----------------------------------------
 BYTE   An2
 BYTE   W12
 BYTE   Bn2
 BYTE   W12
 BYTE   Cn3
 BYTE   W12
 BYTE   Cs3
 BYTE   W12
 BYTE   Dn3
 BYTE   W12
 BYTE   Cs3
 BYTE   W12
 BYTE   Cn3
 BYTE   W12
 BYTE   Bn2
 BYTE   W12
// 054   ----------------------------------------
 BYTE   An2
 BYTE   W12
 BYTE   Gs2
 BYTE   W12
 BYTE   Fs2
 BYTE   W12
 BYTE   Fn2
 BYTE   W12
 BYTE   Ds2
 BYTE   W12
 BYTE   Gn2
 BYTE   W12
 BYTE   Gs2
 BYTE   W12
 BYTE   As2
 BYTE   W12
// 055   ----------------------------------------
 BYTE   Bn2
 BYTE   W12
 BYTE   Cs3
 BYTE   W12
 BYTE   Dn3
 BYTE   W12
 BYTE   Ds3
 BYTE   W12
 BYTE   En3
 BYTE   W12
 BYTE   Ds3
 BYTE   W12
 BYTE   Dn3
 BYTE   W12
 BYTE   Cs3
 BYTE   W12
// 056   ----------------------------------------
 BYTE   Bn2
 BYTE   W12
 BYTE   As2
 BYTE   W12
 BYTE   Gs2
 BYTE   W12
 BYTE   Gn2
 BYTE   W12
 BYTE   Fn2
 BYTE   W12
 BYTE   An2
 BYTE   W12
 BYTE   As2
 BYTE   W12
 BYTE   Cn3
 BYTE   W12
// 057   ----------------------------------------
 BYTE   Cs3
 BYTE   W12
 BYTE   Ds3
 BYTE   W12
 BYTE   En3
 BYTE   W12
 BYTE   Fn3
 BYTE   W12
 BYTE   Fs3
 BYTE   W12
 BYTE   Fn3
 BYTE   W12
 BYTE   En3
 BYTE   W12
 BYTE   Ds3
 BYTE   W12
// 058   ----------------------------------------
 BYTE   Cs3
 BYTE   W12
 BYTE   Cn3
 BYTE   W12
 BYTE   As2
 BYTE   W12
 BYTE   An2
 BYTE   W60
// 059   ----------------------------------------
 BYTE   W96
// 060   ----------------------------------------
 BYTE   W96
// 061   ----------------------------------------
 BYTE   W96
// 062   ----------------------------------------
 BYTE   W96
// 063   ----------------------------------------
 BYTE   W48
 BYTE   PAN   c_v+48
 BYTE   BEND   c_v+0
 BYTE   N06  Cn4  v052
 BYTE   W36
 BYTE   N06
 BYTE   W12
// 064   ----------------------------------------
 BYTE   PATT
  POIN2 Label_3_01EA4440
// 065   ----------------------------------------
 BYTE   W96
// 066   ----------------------------------------
 BYTE   W48
 BYTE   GoTo
  POIN2 Label_3_01EA440C
 BYTE   FINE

//**************** Track 5 (Midi-Chn.4) ****************//

PokemonRSEMaxieArchieRSflame_005:
// 000   ----------------------------------------
 BYTE   KEYSH   PokemonRSEMaxieArchieRSflame_key+0
 BYTE   VOICE   42
 BYTE   VOL   50*PokemonRSEMaxieArchieRSflame_mvl/mxv
 BYTE   W96
// 001   ----------------------------------------
 BYTE   W96
// 002   ----------------------------------------
 BYTE   W96
// 003   ----------------------------------------
 BYTE   W48
Label_4_01EA4746:
 BYTE   W48
// 004   ----------------------------------------
 BYTE   W96
// 005   ----------------------------------------
 BYTE   W96
// 006   ----------------------------------------
 BYTE   W96
// 007   ----------------------------------------
 BYTE   W96
// 008   ----------------------------------------
 BYTE   W96
// 009   ----------------------------------------
 BYTE   W96
// 010   ----------------------------------------
 BYTE   W96
// 011   ----------------------------------------
 BYTE   N12  Cn3  v048
 BYTE   W24
 BYTE   N12
 BYTE   W24
 BYTE   N12
 BYTE   W36
 BYTE   N12
 BYTE   W12
// 012   ----------------------------------------
Label_4_01EA4758:
 BYTE   W24
 BYTE   N12  Cn3  v048
 BYTE   W24
 BYTE   N12
 BYTE   W36
 BYTE   N12
 BYTE   W12
 BYTE   PEND 
// 013   ----------------------------------------
Label_4_01EA4762:
 BYTE   W24
 BYTE   N12  Cn3  v048
 BYTE   W12
 BYTE   N06  Fn2
 BYTE   W06
 BYTE   As2
 BYTE   W06
 BYTE   N12  Cn3
 BYTE   W36
 BYTE   N12
 BYTE   W12
 BYTE   PEND 
// 014   ----------------------------------------
 BYTE   PATT
  POIN2 Label_4_01EA4758
// 015   ----------------------------------------
Label_4_01EA4777:
 BYTE   W24
 BYTE   N12  Cn3  v048
 BYTE   W12
 BYTE   N06  Cs3
 BYTE   W06
 BYTE   N06
 BYTE   W06
 BYTE   N12  Cn3
 BYTE   W36
 BYTE   N12
 BYTE   W12
 BYTE   PEND 
// 016   ----------------------------------------
 BYTE   PATT
  POIN2 Label_4_01EA4758
// 017   ----------------------------------------
 BYTE   PATT
  POIN2 Label_4_01EA4762
// 018   ----------------------------------------
 BYTE   PATT
  POIN2 Label_4_01EA4758
// 019   ----------------------------------------
 BYTE   N12  Cs3  v048
 BYTE   W24
 BYTE   N12
 BYTE   W24
 BYTE   Dn3
 BYTE   W24
 BYTE   Gn2
 BYTE   W12
 BYTE   Dn3
 BYTE   W12
// 020   ----------------------------------------
Label_4_01EA47A2:
 BYTE   N12  Gn2  v048
 BYTE   W24
 BYTE   Dn3
 BYTE   W24
 BYTE   N12
 BYTE   W24
 BYTE   Fn2
 BYTE   W12
 BYTE   Dn3
 BYTE   W12
 BYTE   PEND 
// 021   ----------------------------------------
 BYTE   Gn2
 BYTE   W12
 BYTE   Cn3
 BYTE   W12
 BYTE   Dn3
 BYTE   W12
 BYTE   N06  Gn2
 BYTE   W06
 BYTE   Cn3
 BYTE   W06
 BYTE   N12  Dn3
 BYTE   W24
 BYTE   Gn2
 BYTE   W12
 BYTE   Dn3
 BYTE   W12
// 022   ----------------------------------------
 BYTE   PATT
  POIN2 Label_4_01EA47A2
// 023   ----------------------------------------
 BYTE   N12  Gn2  v048
 BYTE   W12
 BYTE   Cn3
 BYTE   W12
 BYTE   Ds3
 BYTE   W12
 BYTE   N06
 BYTE   W06
 BYTE   N06
 BYTE   W06
 BYTE   N12  Dn3
 BYTE   W24
 BYTE   Gn2
 BYTE   W12
 BYTE   Dn3
 BYTE   W12
// 024   ----------------------------------------
 BYTE   PATT
  POIN2 Label_4_01EA47A2
// 025   ----------------------------------------
 BYTE   N12  Gn2  v048
 BYTE   W12
 BYTE   Cn3
 BYTE   W12
 BYTE   Dn3
 BYTE   W12
 BYTE   N06  Gn2
 BYTE   W06
 BYTE   Cn3
 BYTE   W06
 BYTE   N12  Dn3
 BYTE   W24
 BYTE   Gn2
 BYTE   W12
 BYTE   Ds3
 BYTE   W12
// 026   ----------------------------------------
 BYTE   Gn2
 BYTE   W24
 BYTE   Dn3
 BYTE   W24
 BYTE   N12
 BYTE   W12
 BYTE   Gn2
 BYTE   W12
 BYTE   Dn3
 BYTE   W12
 BYTE   Fs3
 BYTE   W12
// 027   ----------------------------------------
 BYTE   N48  Gn3
 BYTE   W96
// 028   ----------------------------------------
 BYTE   W96
// 029   ----------------------------------------
 BYTE   W96
// 030   ----------------------------------------
 BYTE   W96
// 031   ----------------------------------------
 BYTE   W96
// 032   ----------------------------------------
 BYTE   W96
// 033   ----------------------------------------
 BYTE   W96
// 034   ----------------------------------------
 BYTE   W96
// 035   ----------------------------------------
 BYTE   W96
// 036   ----------------------------------------
 BYTE   W96
// 037   ----------------------------------------
 BYTE   W96
// 038   ----------------------------------------
 BYTE   W96
// 039   ----------------------------------------
 BYTE   W96
// 040   ----------------------------------------
 BYTE   W96
// 041   ----------------------------------------
 BYTE   W96
// 042   ----------------------------------------
 BYTE   W96
// 043   ----------------------------------------
 BYTE   W96
// 044   ----------------------------------------
 BYTE   W96
// 045   ----------------------------------------
 BYTE   W96
// 046   ----------------------------------------
 BYTE   W96
// 047   ----------------------------------------
 BYTE   W96
// 048   ----------------------------------------
 BYTE   W96
// 049   ----------------------------------------
 BYTE   W96
// 050   ----------------------------------------
 BYTE   W96
// 051   ----------------------------------------
 BYTE   W96
// 052   ----------------------------------------
 BYTE   W96
// 053   ----------------------------------------
 BYTE   W96
// 054   ----------------------------------------
 BYTE   W96
// 055   ----------------------------------------
 BYTE   W96
// 056   ----------------------------------------
 BYTE   W96
// 057   ----------------------------------------
 BYTE   W96
// 058   ----------------------------------------
 BYTE   W48
 BYTE   N12  Cn3
 BYTE   W36
 BYTE   N12
 BYTE   W12
// 059   ----------------------------------------
 BYTE   PATT
  POIN2 Label_4_01EA4758
// 060   ----------------------------------------
 BYTE   PATT
  POIN2 Label_4_01EA4762
// 061   ----------------------------------------
 BYTE   PATT
  POIN2 Label_4_01EA4758
// 062   ----------------------------------------
 BYTE   PATT
  POIN2 Label_4_01EA4777
// 063   ----------------------------------------
 BYTE   PATT
  POIN2 Label_4_01EA4758
// 064   ----------------------------------------
 BYTE   PATT
  POIN2 Label_4_01EA4762
// 065   ----------------------------------------
 BYTE   PATT
  POIN2 Label_4_01EA4758
// 066   ----------------------------------------
 BYTE   N12  Cs3  v048
 BYTE   W24
 BYTE   N12
 BYTE   W24
 BYTE   GoTo
  POIN2 Label_4_01EA4746
 BYTE   FINE

//**************** Track 6 (Midi-Chn.5) ****************//

PokemonRSEMaxieArchieRSflame_006:
// 000   ----------------------------------------
 BYTE   KEYSH   PokemonRSEMaxieArchieRSflame_key+0
 BYTE   VOICE   127
 BYTE   VOL   50*PokemonRSEMaxieArchieRSflame_mvl/mxv
 BYTE   PAN   c_v-8
 BYTE   N96  Gn2  v116
 BYTE   W96
// 001   ----------------------------------------
 BYTE   N48
 BYTE   W48
 BYTE   VOICE   126
 BYTE   N96  Bn2
 BYTE   W48
// 002   ----------------------------------------
 BYTE   W96
// 003   ----------------------------------------
 BYTE   W48
Label_5_01EA45F1:
 BYTE   W48
// 004   ----------------------------------------
 BYTE   W96
// 005   ----------------------------------------
 BYTE   W96
// 006   ----------------------------------------
 BYTE   W96
// 007   ----------------------------------------
 BYTE   W96
// 008   ----------------------------------------
 BYTE   W96
// 009   ----------------------------------------
 BYTE   W96
// 010   ----------------------------------------
 BYTE   W96
// 011   ----------------------------------------
 BYTE   PAN   c_v+0
 BYTE   W24
 BYTE   VOICE   0
 BYTE   N12  Dn1  v112
 BYTE   W48
 BYTE   N12
 BYTE   W24
// 012   ----------------------------------------
Label_5_01EA4604:
 BYTE   W24
 BYTE   N12  Dn1  v112
 BYTE   W48
 BYTE   N12
 BYTE   W24
 BYTE   PEND 
// 013   ----------------------------------------
 BYTE   PATT
  POIN2 Label_5_01EA4604
// 014   ----------------------------------------
 BYTE   PATT
  POIN2 Label_5_01EA4604
// 015   ----------------------------------------
 BYTE   PATT
  POIN2 Label_5_01EA4604
// 016   ----------------------------------------
 BYTE   PATT
  POIN2 Label_5_01EA4604
// 017   ----------------------------------------
 BYTE   PATT
  POIN2 Label_5_01EA4604
// 018   ----------------------------------------
 BYTE   PATT
  POIN2 Label_5_01EA4604
// 019   ----------------------------------------
 BYTE   PATT
  POIN2 Label_5_01EA4604
// 020   ----------------------------------------
 BYTE   PATT
  POIN2 Label_5_01EA4604
// 021   ----------------------------------------
 BYTE   PATT
  POIN2 Label_5_01EA4604
// 022   ----------------------------------------
 BYTE   PATT
  POIN2 Label_5_01EA4604
// 023   ----------------------------------------
 BYTE   PATT
  POIN2 Label_5_01EA4604
// 024   ----------------------------------------
 BYTE   PATT
  POIN2 Label_5_01EA4604
// 025   ----------------------------------------
 BYTE   PATT
  POIN2 Label_5_01EA4604
// 026   ----------------------------------------
 BYTE   PATT
  POIN2 Label_5_01EA4604
// 027   ----------------------------------------
Label_5_01EA4652:
 BYTE   W24
 BYTE   N12  Dn1  v112
 BYTE   W12
 BYTE   N12
 BYTE   W36
 BYTE   N12
 BYTE   W24
 BYTE   PEND 
// 028   ----------------------------------------
 BYTE   PATT
  POIN2 Label_5_01EA4604
// 029   ----------------------------------------
 BYTE   PATT
  POIN2 Label_5_01EA4604
// 030   ----------------------------------------
 BYTE   W24
 BYTE   N12  Dn1  v112
 BYTE   W48
 BYTE   Ds1  v092
 BYTE   W24
// 031   ----------------------------------------
Label_5_01EA466E:
 BYTE   W24
 BYTE   N12  Ds1  v092
 BYTE   W48
 BYTE   N12
 BYTE   W24
 BYTE   PEND 
// 032   ----------------------------------------
 BYTE   PATT
  POIN2 Label_5_01EA466E
// 033   ----------------------------------------
 BYTE   W24
 BYTE   N12  Ds1  v092
 BYTE   W48
 BYTE   Dn1  v112
 BYTE   W24
// 034   ----------------------------------------
 BYTE   N12
 BYTE   W24
 BYTE   N12
 BYTE   W12
 BYTE   N12
 BYTE   W36
 BYTE   N12
 BYTE   W24
// 035   ----------------------------------------
 BYTE   PATT
  POIN2 Label_5_01EA4604
// 036   ----------------------------------------
 BYTE   PATT
  POIN2 Label_5_01EA4604
// 037   ----------------------------------------
 BYTE   PATT
  POIN2 Label_5_01EA4604
// 038   ----------------------------------------
 BYTE   PATT
  POIN2 Label_5_01EA4652
// 039   ----------------------------------------
 BYTE   PATT
  POIN2 Label_5_01EA4604
// 040   ----------------------------------------
 BYTE   PATT
  POIN2 Label_5_01EA4604
// 041   ----------------------------------------
 BYTE   W24
 BYTE   N12  Dn1  v112
 BYTE   W36
 BYTE   N12
 BYTE   W36
// 042   ----------------------------------------
 BYTE   W36
 BYTE   N12
 BYTE   W36
 BYTE   N12
 BYTE   W24
// 043   ----------------------------------------
 BYTE   PATT
  POIN2 Label_5_01EA4604
// 044   ----------------------------------------
 BYTE   PATT
  POIN2 Label_5_01EA4604
// 045   ----------------------------------------
 BYTE   PATT
  POIN2 Label_5_01EA4604
// 046   ----------------------------------------
 BYTE   PATT
  POIN2 Label_5_01EA4604
// 047   ----------------------------------------
 BYTE   PATT
  POIN2 Label_5_01EA4604
// 048   ----------------------------------------
 BYTE   PATT
  POIN2 Label_5_01EA4604
// 049   ----------------------------------------
 BYTE   PATT
  POIN2 Label_5_01EA4604
// 050   ----------------------------------------
Label_5_01EA46D8:
 BYTE   W12
 BYTE   N12  Dn1  v112
 BYTE   W24
 BYTE   N12
 BYTE   W36
 BYTE   N12
 BYTE   W24
 BYTE   PEND 
// 051   ----------------------------------------
 BYTE   PATT
  POIN2 Label_5_01EA4604
// 052   ----------------------------------------
 BYTE   PATT
  POIN2 Label_5_01EA4604
// 053   ----------------------------------------
 BYTE   PATT
  POIN2 Label_5_01EA4604
// 054   ----------------------------------------
 BYTE   PATT
  POIN2 Label_5_01EA4604
// 055   ----------------------------------------
 BYTE   PATT
  POIN2 Label_5_01EA4604
// 056   ----------------------------------------
 BYTE   PATT
  POIN2 Label_5_01EA4604
// 057   ----------------------------------------
 BYTE   PATT
  POIN2 Label_5_01EA4604
// 058   ----------------------------------------
 BYTE   PATT
  POIN2 Label_5_01EA46D8
// 059   ----------------------------------------
 BYTE   PATT
  POIN2 Label_5_01EA4604
// 060   ----------------------------------------
 BYTE   PATT
  POIN2 Label_5_01EA4604
// 061   ----------------------------------------
 BYTE   PATT
  POIN2 Label_5_01EA4604
// 062   ----------------------------------------
 BYTE   PATT
  POIN2 Label_5_01EA4604
// 063   ----------------------------------------
 BYTE   PATT
  POIN2 Label_5_01EA4604
// 064   ----------------------------------------
 BYTE   PATT
  POIN2 Label_5_01EA4604
// 065   ----------------------------------------
 BYTE   PATT
  POIN2 Label_5_01EA4604
// 066   ----------------------------------------
 BYTE   W24
 BYTE   N12  Dn1  v112
 BYTE   W24
 BYTE   GoTo
  POIN2 Label_5_01EA45F1
 BYTE   FINE

//**************** Track 7 (Midi-Chn.6) ****************//

PokemonRSEMaxieArchieRSflame_007:
// 000   ----------------------------------------
 BYTE   KEYSH   PokemonRSEMaxieArchieRSflame_key+0
 BYTE   VOICE   47
 BYTE   VOL   50*PokemonRSEMaxieArchieRSflame_mvl/mxv
 BYTE   PAN   c_v+8
 BYTE   N96  Ds2  v112
 BYTE   W96
// 001   ----------------------------------------
 BYTE   N48
 BYTE   W48
 BYTE   N96
 BYTE   W48
// 002   ----------------------------------------
 BYTE   W72
 BYTE   N24  Gn2
 BYTE   W24
// 003   ----------------------------------------
 BYTE   N24
 BYTE   W24
 BYTE   N24
 BYTE   W24
Label_6_55BC10:
 BYTE   N36  Gn2  v112
 BYTE   W36
 BYTE   N36
 BYTE   W12
// 004   ----------------------------------------
Label_6_55BC16:
 BYTE   W24
 BYTE   N24  Cn2  v112
 BYTE   W24
 BYTE   N36  Gn2
 BYTE   W36
 BYTE   N36
 BYTE   W12
 BYTE   PEND 
// 005   ----------------------------------------
Label_6_55BC21:
 BYTE   W24
 BYTE   N12  Cn2  v112
 BYTE   W12
 BYTE   N06
 BYTE   W06
 BYTE   Fn2
 BYTE   W06
 BYTE   N36  Gn2
 BYTE   W36
 BYTE   N36
 BYTE   W12
 BYTE   PEND 
// 006   ----------------------------------------
 BYTE   PATT
  POIN2 Label_6_55BC16
// 007   ----------------------------------------
 BYTE   PATT
  POIN2 Label_6_55BC21
// 008   ----------------------------------------
 BYTE   PATT
  POIN2 Label_6_55BC16
// 009   ----------------------------------------
 BYTE   PATT
  POIN2 Label_6_55BC16
// 010   ----------------------------------------
 BYTE   PATT
  POIN2 Label_6_55BC16
// 011   ----------------------------------------
Label_6_55BC49:
 BYTE   W36
 BYTE   N06  Cn2  v112
 BYTE   W06
 BYTE   Fn2
 BYTE   W06
 BYTE   N12  Gn2
 BYTE   W36
 BYTE   N12
 BYTE   W12
 BYTE   PEND 
// 012   ----------------------------------------
Label_6_55BC56:
 BYTE   W48
 BYTE   N12  Gn2  v112
 BYTE   W36
 BYTE   N12
 BYTE   W12
 BYTE   PEND 
// 013   ----------------------------------------
 BYTE   PATT
  POIN2 Label_6_55BC56
// 014   ----------------------------------------
 BYTE   PATT
  POIN2 Label_6_55BC56
// 015   ----------------------------------------
 BYTE   PATT
  POIN2 Label_6_55BC49
// 016   ----------------------------------------
 BYTE   PATT
  POIN2 Label_6_55BC56
// 017   ----------------------------------------
 BYTE   PATT
  POIN2 Label_6_55BC56
// 018   ----------------------------------------
 BYTE   PATT
  POIN2 Label_6_55BC56
// 019   ----------------------------------------
 BYTE   PATT
  POIN2 Label_6_55BC56
// 020   ----------------------------------------
 BYTE   PATT
  POIN2 Label_6_55BC56
// 021   ----------------------------------------
 BYTE   PATT
  POIN2 Label_6_55BC49
// 022   ----------------------------------------
 BYTE   PATT
  POIN2 Label_6_55BC56
// 023   ----------------------------------------
 BYTE   PATT
  POIN2 Label_6_55BC56
// 024   ----------------------------------------
 BYTE   PATT
  POIN2 Label_6_55BC49
// 025   ----------------------------------------
 BYTE   PATT
  POIN2 Label_6_55BC56
// 026   ----------------------------------------
 BYTE   PATT
  POIN2 Label_6_55BC56
// 027   ----------------------------------------
 BYTE   PATT
  POIN2 Label_6_55BC56
// 028   ----------------------------------------
 BYTE   PATT
  POIN2 Label_6_55BC56
// 029   ----------------------------------------
 BYTE   PATT
  POIN2 Label_6_55BC56
// 030   ----------------------------------------
 BYTE   W96
// 031   ----------------------------------------
 BYTE   W96
// 032   ----------------------------------------
 BYTE   W96
// 033   ----------------------------------------
 BYTE   W96
// 034   ----------------------------------------
 BYTE   PATT
  POIN2 Label_6_55BC56
// 035   ----------------------------------------
 BYTE   PATT
  POIN2 Label_6_55BC56
// 036   ----------------------------------------
 BYTE   PATT
  POIN2 Label_6_55BC56
// 037   ----------------------------------------
 BYTE   PATT
  POIN2 Label_6_55BC56
// 038   ----------------------------------------
 BYTE   PATT
  POIN2 Label_6_55BC56
// 039   ----------------------------------------
 BYTE   PATT
  POIN2 Label_6_55BC56
// 040   ----------------------------------------
 BYTE   PATT
  POIN2 Label_6_55BC56
// 041   ----------------------------------------
 BYTE   PATT
  POIN2 Label_6_55BC56
// 042   ----------------------------------------
 BYTE   W12
 BYTE   N12  Gn2  v112
 BYTE   W36
 BYTE   N12
 BYTE   W12
 BYTE   Dn2
 BYTE   W24
 BYTE   Gn2
 BYTE   W12
// 043   ----------------------------------------
Label_6_55BCEA:
 BYTE   N12  Dn2  v112
 BYTE   W12
 BYTE   N12
 BYTE   W24
 BYTE   Fn2
 BYTE   W12
 BYTE   Gn2
 BYTE   W12
 BYTE   Dn2
 BYTE   W24
 BYTE   Gn2
 BYTE   W12
 BYTE   PEND 
// 044   ----------------------------------------
 BYTE   PATT
  POIN2 Label_6_55BCEA
// 045   ----------------------------------------
 BYTE   PATT
  POIN2 Label_6_55BCEA
// 046   ----------------------------------------
 BYTE   N12  Dn2  v112
 BYTE   W12
 BYTE   Gn2
 BYTE   W24
 BYTE   Dn2
 BYTE   W12
 BYTE   Gn2
 BYTE   W12
 BYTE   Dn2
 BYTE   W24
 BYTE   Gn2
 BYTE   W12
// 047   ----------------------------------------
 BYTE   PATT
  POIN2 Label_6_55BCEA
// 048   ----------------------------------------
 BYTE   PATT
  POIN2 Label_6_55BCEA
// 049   ----------------------------------------
 BYTE   PATT
  POIN2 Label_6_55BCEA
// 050   ----------------------------------------
 BYTE   N12  Dn2  v112
 BYTE   W24
 BYTE   N12
 BYTE   W24
 BYTE   Gn2
 BYTE   W36
 BYTE   N12
 BYTE   W12
// 051   ----------------------------------------
 BYTE   PATT
  POIN2 Label_6_55BC56
// 052   ----------------------------------------
 BYTE   PATT
  POIN2 Label_6_55BC56
// 053   ----------------------------------------
 BYTE   PATT
  POIN2 Label_6_55BC56
// 054   ----------------------------------------
 BYTE   PATT
  POIN2 Label_6_55BC56
// 055   ----------------------------------------
 BYTE   PATT
  POIN2 Label_6_55BC56
// 056   ----------------------------------------
 BYTE   PATT
  POIN2 Label_6_55BC56
// 057   ----------------------------------------
 BYTE   PATT
  POIN2 Label_6_55BC56
// 058   ----------------------------------------
 BYTE   PATT
  POIN2 Label_6_55BC56
// 059   ----------------------------------------
 BYTE   PATT
  POIN2 Label_6_55BC56
// 060   ----------------------------------------
 BYTE   PATT
  POIN2 Label_6_55BC56
// 061   ----------------------------------------
 BYTE   PATT
  POIN2 Label_6_55BC56
// 062   ----------------------------------------
 BYTE   PATT
  POIN2 Label_6_55BC49
// 063   ----------------------------------------
 BYTE   PATT
  POIN2 Label_6_55BC56
// 064   ----------------------------------------
 BYTE   PATT
  POIN2 Label_6_55BC56
// 065   ----------------------------------------
 BYTE   PATT
  POIN2 Label_6_55BC56
// 066   ----------------------------------------
 BYTE   W48
 BYTE   GoTo
  POIN2 Label_6_55BC10
 BYTE   FINE

//**************** Track 8 (Midi-Chn.7) ****************//

PokemonRSEMaxieArchieRSflame_008:
// 000   ----------------------------------------
 BYTE   KEYSH   PokemonRSEMaxieArchieRSflame_key+0
 BYTE   VOICE   127
 BYTE   VOL   50*PokemonRSEMaxieArchieRSflame_mvl/mxv
 BYTE   W96
// 001   ----------------------------------------
 BYTE   W96
// 002   ----------------------------------------
 BYTE   W96
// 003   ----------------------------------------
 BYTE   W48
Label_7_01EA4D42:
 BYTE   PAN   c_v-48
 BYTE   N06  Ds4  v052
 BYTE   W36
 BYTE   N06
 BYTE   W12
// 004   ----------------------------------------
 BYTE   W24
 BYTE   N06
 BYTE   W24
 BYTE   N06
 BYTE   W36
 BYTE   N06
 BYTE   W12
// 005   ----------------------------------------
Label_7_01EA4D51:
 BYTE   W24
 BYTE   N24  En4  v052
 BYTE   W24
 BYTE   N06  Ds4
 BYTE   W48
 BYTE   PEND 
// 006   ----------------------------------------
 BYTE   W96
// 007   ----------------------------------------
 BYTE   W96
// 008   ----------------------------------------
 BYTE   W48
 BYTE   N06
 BYTE   W36
 BYTE   N06
 BYTE   W12
// 009   ----------------------------------------
 BYTE   PATT
  POIN2 Label_7_01EA4D51
// 010   ----------------------------------------
 BYTE   W96
// 011   ----------------------------------------
Label_7_01EA4D67:
 BYTE   W48
 BYTE   N06  Fn4  v052
 BYTE   W36
 BYTE   N06
 BYTE   W12
 BYTE   PEND 
// 012   ----------------------------------------
 BYTE   W24
 BYTE   N06
 BYTE   W24
 BYTE   N06
 BYTE   W36
 BYTE   N06
 BYTE   W12
// 013   ----------------------------------------
Label_7_01EA4D76:
 BYTE   W24
 BYTE   N24  Fs4  v052
 BYTE   W24
 BYTE   N06  Fn4
 BYTE   W48
 BYTE   PEND 
// 014   ----------------------------------------
 BYTE   W96
// 015   ----------------------------------------
 BYTE   W96
// 016   ----------------------------------------
 BYTE   PATT
  POIN2 Label_7_01EA4D67
// 017   ----------------------------------------
 BYTE   PATT
  POIN2 Label_7_01EA4D76
// 018   ----------------------------------------
 BYTE   W96
// 019   ----------------------------------------
 BYTE   W48
 BYTE   PAN   c_v-48
 BYTE   N06  Gn4  v052
 BYTE   W36
 BYTE   N06
 BYTE   W12
// 020   ----------------------------------------
 BYTE   W24
 BYTE   N06
 BYTE   W24
 BYTE   N06
 BYTE   W36
 BYTE   N06
 BYTE   W12
// 021   ----------------------------------------
Label_7_01EA4D9C:
 BYTE   W24
 BYTE   N24  Gs4  v052
 BYTE   W24
 BYTE   N06  Gn4
 BYTE   W48
 BYTE   PEND 
// 022   ----------------------------------------
 BYTE   W96
// 023   ----------------------------------------
 BYTE   W96
// 024   ----------------------------------------
 BYTE   W48
 BYTE   N06
 BYTE   W36
 BYTE   N06
 BYTE   W12
// 025   ----------------------------------------
 BYTE   PATT
  POIN2 Label_7_01EA4D9C
// 026   ----------------------------------------
 BYTE   W96
// 027   ----------------------------------------
 BYTE   W96
// 028   ----------------------------------------
 BYTE   W96
// 029   ----------------------------------------
 BYTE   W96
// 030   ----------------------------------------
 BYTE   W96
// 031   ----------------------------------------
 BYTE   W96
// 032   ----------------------------------------
 BYTE   W96
// 033   ----------------------------------------
 BYTE   W96
// 034   ----------------------------------------
 BYTE   W96
// 035   ----------------------------------------
 BYTE   W96
// 036   ----------------------------------------
 BYTE   W48
 BYTE   PAN   c_v+0
 BYTE   W12
 BYTE   N12  Cn3  v060
 BYTE   W12
 BYTE   As2
 BYTE   W12
 BYTE   Cn3
 BYTE   W12
// 037   ----------------------------------------
 BYTE   Ds3
 BYTE   W12
 BYTE   Cs3
 BYTE   W12
 BYTE   Cn3
 BYTE   W12
 BYTE   As2
 BYTE   W12
 BYTE   N96  Cn3
 BYTE   W48
// 038   ----------------------------------------
 BYTE   MOD 0
 BYTE   FsM2
 BYTE   W48
 BYTE   CnM2
 BYTE   W48
// 039   ----------------------------------------
 BYTE   W96
// 040   ----------------------------------------
 BYTE   W96
// 041   ----------------------------------------
 BYTE   W96
// 042   ----------------------------------------
 BYTE   W48
 BYTE   PAN   c_v+48
 BYTE   N12  Cn2
 BYTE   W12
 BYTE   N12
 BYTE   W12
 BYTE   N24  Cs2
 BYTE   W24
// 043   ----------------------------------------
Label_7_01EA4DE5:
 BYTE   N12  Cn2  v060
 BYTE   W12
 BYTE   N12
 BYTE   W12
 BYTE   N24  Ds2
 BYTE   W24
 BYTE   N12  Cn2
 BYTE   W12
 BYTE   N12
 BYTE   W12
 BYTE   N24  En2
 BYTE   W24
 BYTE   PEND 
// 044   ----------------------------------------
 BYTE   N12  Fn2
 BYTE   W12
 BYTE   En2
 BYTE   W12
 BYTE   Cs2
 BYTE   W12
 BYTE   Cn2
 BYTE   W12
 BYTE   N12
 BYTE   W12
 BYTE   N12
 BYTE   W12
 BYTE   N24  Cs2
 BYTE   W24
// 045   ----------------------------------------
 BYTE   PATT
  POIN2 Label_7_01EA4DE5
// 046   ----------------------------------------
 BYTE   N24  Fn2  v060
 BYTE   W24
 BYTE   En2
 BYTE   W24
 BYTE   N12  Cn3
 BYTE   W12
 BYTE   N12
 BYTE   W12
 BYTE   N24  Cs3
 BYTE   W24
// 047   ----------------------------------------
Label_7_01EA4E1A:
 BYTE   N12  Cn3  v060
 BYTE   W12
 BYTE   N12
 BYTE   W12
 BYTE   N24  Ds3
 BYTE   W24
 BYTE   N12  Cn3
 BYTE   W12
 BYTE   N12
 BYTE   W12
 BYTE   N24  En3
 BYTE   W24
 BYTE   PEND 
// 048   ----------------------------------------
 BYTE   N12  Fn3
 BYTE   W12
 BYTE   En3
 BYTE   W12
 BYTE   Cs3
 BYTE   W12
 BYTE   Cn3
 BYTE   W12
 BYTE   N12
 BYTE   W12
 BYTE   N12
 BYTE   W12
 BYTE   N24  Cs3
 BYTE   W24
// 049   ----------------------------------------
 BYTE   PATT
  POIN2 Label_7_01EA4E1A
// 050   ----------------------------------------
 BYTE   N12  Cn3  v060
 BYTE   W12
 BYTE   Cs3
 BYTE   W12
 BYTE   Ds3
 BYTE   W12
 BYTE   En3
 BYTE   W12
 BYTE   Fn3  v072
 BYTE   W12
 BYTE   N12
 BYTE   W12
 BYTE   N12
 BYTE   W12
 BYTE   N12
 BYTE   W12
// 051   ----------------------------------------
 BYTE   N12
 BYTE   W12
 BYTE   N12
 BYTE   W12
 BYTE   N12
 BYTE   W12
 BYTE   N12
 BYTE   W12
 BYTE   Bn2
 BYTE   W12
 BYTE   N12
 BYTE   W12
 BYTE   N12
 BYTE   W12
 BYTE   N12
 BYTE   W12
// 052   ----------------------------------------
 BYTE   N12
 BYTE   W12
 BYTE   N12
 BYTE   W12
 BYTE   N12
 BYTE   W12
 BYTE   N12
 BYTE   W12
 BYTE   As2
 BYTE   W12
 BYTE   N12
 BYTE   W12
 BYTE   N12
 BYTE   W12
 BYTE   N12
 BYTE   W12
// 053   ----------------------------------------
 BYTE   N12
 BYTE   W12
 BYTE   N12
 BYTE   W12
 BYTE   N12
 BYTE   W12
 BYTE   N12
 BYTE   W12
 BYTE   Fs2
 BYTE   W12
 BYTE   N12
 BYTE   W12
 BYTE   N12
 BYTE   W12
 BYTE   N12
 BYTE   W12
// 054   ----------------------------------------
 BYTE   N12
 BYTE   W12
 BYTE   N12
 BYTE   W12
 BYTE   N12
 BYTE   W12
 BYTE   N12
 BYTE   W12
 BYTE   Fn2
 BYTE   W12
 BYTE   N12
 BYTE   W12
 BYTE   N12
 BYTE   W12
 BYTE   N12
 BYTE   W12
// 055   ----------------------------------------
 BYTE   N12
 BYTE   W12
 BYTE   N12
 BYTE   W12
 BYTE   N12
 BYTE   W12
 BYTE   N12
 BYTE   W12
 BYTE   Bn1
 BYTE   W12
 BYTE   N12
 BYTE   W12
 BYTE   N12
 BYTE   W12
 BYTE   N12
 BYTE   W12
// 056   ----------------------------------------
 BYTE   N12
 BYTE   W12
 BYTE   N12
 BYTE   W12
 BYTE   N12
 BYTE   W12
 BYTE   N12
 BYTE   W12
 BYTE   As1
 BYTE   W12
 BYTE   N12
 BYTE   W12
 BYTE   N12
 BYTE   W12
 BYTE   N12
 BYTE   W12
// 057   ----------------------------------------
 BYTE   N12
 BYTE   W12
 BYTE   N12
 BYTE   W12
 BYTE   N12
 BYTE   W12
 BYTE   N12
 BYTE   W12
 BYTE   Cn2
 BYTE   W12
 BYTE   N12
 BYTE   W12
 BYTE   N12
 BYTE   W12
 BYTE   N12
 BYTE   W12
// 058   ----------------------------------------
 BYTE   N12
 BYTE   W12
 BYTE   N12
 BYTE   W12
 BYTE   N12
 BYTE   W12
 BYTE   N12
 BYTE   W60
// 059   ----------------------------------------
 BYTE   W96
// 060   ----------------------------------------
 BYTE   W96
// 061   ----------------------------------------
 BYTE   W96
// 062   ----------------------------------------
 BYTE   W96
// 063   ----------------------------------------
 BYTE   W48
 BYTE   PAN   c_v-48
 BYTE   N06  Fn4  v052
 BYTE   W36
 BYTE   N06
 BYTE   W12
// 064   ----------------------------------------
 BYTE   PATT
  POIN2 Label_7_01EA4D76
// 065   ----------------------------------------
 BYTE   W96
// 066   ----------------------------------------
 BYTE   W48
 BYTE   GoTo
  POIN2 Label_7_01EA4D42
 BYTE   FINE

//******************************************************//
	ALIGN 4

PokemonRSEMaxieArchieRSflame:
	BYTE	8	// NumTrks
	BYTE	0	// NumBlks
	BYTE	PokemonRSEMaxieArchieRSflame_pri	// Priority
	BYTE	PokemonRSEMaxieArchieRSflame_rev	// Reverb.
    
	POIN2	PokemonRSEMaxieArchieRSflame_grp
    
	POIN2	PokemonRSEMaxieArchieRSflame_001
	POIN2	PokemonRSEMaxieArchieRSflame_002
	POIN2	PokemonRSEMaxieArchieRSflame_003
	POIN2	PokemonRSEMaxieArchieRSflame_004
	POIN2	PokemonRSEMaxieArchieRSflame_005
	POIN2	PokemonRSEMaxieArchieRSflame_006
	POIN2	PokemonRSEMaxieArchieRSflame_007
	POIN2	PokemonRSEMaxieArchieRSflame_008

	
