//Event file generated from Sappy .s format.
	#include "MPlayDef.event"

	#define	PokemonRSERoute113Pandan_grp  voicegroup000
	#define	PokemonRSERoute113Pandan_pri  0
	#define	PokemonRSERoute113Pandan_rev  0
	#define	PokemonRSERoute113Pandan_mvl  127
	#define	PokemonRSERoute113Pandan_key  0
	#define	PokemonRSERoute113Pandan_tbs  1
	#define	PokemonRSERoute113Pandan_exg  0
	#define	PokemonRSERoute113Pandan_cmp  1

	// .rodata
	//	PokemonRSERoute113Pandan
	ALIGN 4


//**************** Track 1 (Midi-Chn.0) ****************//

PokemonRSERoute113Pandan_001:
// 000   ----------------------------------------
 BYTE   KEYSH   PokemonRSERoute113Pandan_key+0
Label_0_0124C51A:
 BYTE   TEMPO   82*PokemonRSERoute113Pandan_tbs/2
 BYTE   VOICE   4
 BYTE   VOL   15*PokemonRSERoute113Pandan_mvl/mxv
 BYTE   PAN   c_v+0
 BYTE   W48
 BYTE   VOL   77*PokemonRSERoute113Pandan_mvl/mxv
 BYTE   N04  Bn1  v100
 BYTE   W08
 BYTE   Dn2
 BYTE   W08
 BYTE   Fs2
 BYTE   W08
 BYTE   Gn2
 BYTE   W08
 BYTE   Bn2
 BYTE   W08
 BYTE   Dn3
 BYTE   W08
// 001   ----------------------------------------
 BYTE   N02  As3
 BYTE   W02
 BYTE   Bn3
 BYTE   W02
 BYTE   As3  v096
 BYTE   W02
 BYTE   Gs3
 BYTE   W02
 BYTE   Fs3  v092
 BYTE   W02
 BYTE   Gs3  v088
 BYTE   W02
 BYTE   Fs3
 BYTE   W02
 BYTE   En3  v084
 BYTE   W02
 BYTE   Fs3  v080
 BYTE   W02
 BYTE   En3
 BYTE   W02
 BYTE   Dn3  v076
 BYTE   W02
 BYTE   Cs3  v072
 BYTE   W02
 BYTE   As2
 BYTE   W02
 BYTE   Bn2  v068
 BYTE   W02
 BYTE   As2  v064
 BYTE   W02
 BYTE   Gs2
 BYTE   W02
 BYTE   Fs2  v060
 BYTE   W02
 BYTE   Gs2  v056
 BYTE   W02
 BYTE   Fs2
 BYTE   W02
 BYTE   En2  v052
 BYTE   W02
 BYTE   Fs2  v048
 BYTE   W02
 BYTE   En2
 BYTE   W02
 BYTE   Dn2  v044
 BYTE   W02
 BYTE   Cs2  v040
 BYTE   W02
Label_0_0124C573:
 BYTE   N04  Bn1  v100
 BYTE   W08
 BYTE   Dn2
 BYTE   W08
 BYTE   Fs2
 BYTE   W08
 BYTE   Gn2
 BYTE   W08
 BYTE   Bn2
 BYTE   W08
 BYTE   Dn3
 BYTE   W08
// 002   ----------------------------------------
 BYTE   N02  As3
 BYTE   W02
 BYTE   Bn3
 BYTE   W02
 BYTE   As3  v096
 BYTE   W02
 BYTE   Gs3
 BYTE   W02
 BYTE   Fs3  v092
 BYTE   W02
 BYTE   Gs3  v088
 BYTE   W02
 BYTE   Fs3
 BYTE   W02
 BYTE   En3  v084
 BYTE   W02
 BYTE   Fs3  v080
 BYTE   W02
 BYTE   En3
 BYTE   W02
 BYTE   Dn3  v076
 BYTE   W02
 BYTE   Cs3  v072
 BYTE   W02
 BYTE   As2
 BYTE   W02
 BYTE   Bn2  v068
 BYTE   W02
 BYTE   As2  v064
 BYTE   W02
 BYTE   Gs2
 BYTE   W02
 BYTE   Fs2  v060
 BYTE   W02
 BYTE   Gs2  v056
 BYTE   W02
 BYTE   Fs2
 BYTE   W02
 BYTE   En2  v052
 BYTE   W02
 BYTE   Fs2  v048
 BYTE   W02
 BYTE   En2
 BYTE   W02
 BYTE   Dn2  v044
 BYTE   W02
 BYTE   Cs2  v040
 BYTE   W02
 BYTE   PEND 
Label_0_0124C5C2:
 BYTE   N04  Bn1  v100
 BYTE   W08
 BYTE   Cs2
 BYTE   W08
 BYTE   En2
 BYTE   W08
 BYTE   Fs2
 BYTE   W08
 BYTE   An2
 BYTE   W08
 BYTE   Cs3
 BYTE   W08
// 003   ----------------------------------------
 BYTE   N02  Fn3
 BYTE   W02
 BYTE   Fs3
 BYTE   W02
 BYTE   Fn3  v096
 BYTE   W02
 BYTE   Ds3
 BYTE   W02
 BYTE   Cs3  v092
 BYTE   W02
 BYTE   Ds3  v088
 BYTE   W02
 BYTE   Cs3
 BYTE   W02
 BYTE   Bn2  v084
 BYTE   W02
 BYTE   Cs3  v080
 BYTE   W02
 BYTE   Bn2
 BYTE   W02
 BYTE   An2  v076
 BYTE   W02
 BYTE   Gs2  v072
 BYTE   W02
 BYTE   Fn2
 BYTE   W02
 BYTE   Fs2  v068
 BYTE   W02
 BYTE   Fn2  v064
 BYTE   W02
 BYTE   Ds2
 BYTE   W02
 BYTE   Cs2  v060
 BYTE   W02
 BYTE   Ds2  v056
 BYTE   W02
 BYTE   Cs2
 BYTE   W02
 BYTE   Bn1  v052
 BYTE   W02
 BYTE   Cs2  v048
 BYTE   W02
 BYTE   Bn1
 BYTE   W02
 BYTE   An1  v044
 BYTE   W02
 BYTE   Gs1  v040
 BYTE   W02
 BYTE   PEND 
 BYTE   W96
// 004   ----------------------------------------
 BYTE   PATT
  POIN2 Label_0_0124C573
// 005   ----------------------------------------
 BYTE   PATT
  POIN2 Label_0_0124C573
// 006   ----------------------------------------
 BYTE   PATT
  POIN2 Label_0_0124C5C2
// 007   ----------------------------------------
 BYTE   W96
// 008   ----------------------------------------
Label_0_0124C622:
 BYTE   N04  Fs2  v100
 BYTE   W04
 BYTE   Dn2
 BYTE   W04
 BYTE   Fs2
 BYTE   W04
 BYTE   Bn2
 BYTE   W04
 BYTE   Dn3
 BYTE   W04
 BYTE   Bn2
 BYTE   W04
 BYTE   Fs2
 BYTE   W04
 BYTE   Dn2
 BYTE   W04
 BYTE   Bn1
 BYTE   W04
 BYTE   Dn2
 BYTE   W04
 BYTE   Fs2
 BYTE   W04
 BYTE   Bn2
 BYTE   W04
 BYTE   Dn3
 BYTE   W04
 BYTE   Bn2
 BYTE   W04
 BYTE   Fs2
 BYTE   W04
 BYTE   Dn2
 BYTE   W04
 BYTE   Bn1
 BYTE   W04
 BYTE   Dn2
 BYTE   W04
 BYTE   Fs2
 BYTE   W04
 BYTE   Bn2
 BYTE   W04
 BYTE   Dn3
 BYTE   W04
 BYTE   Bn2
 BYTE   W04
 BYTE   Fs2
 BYTE   W04
 BYTE   Dn2
 BYTE   W04
 BYTE   PEND 
// 009   ----------------------------------------
 BYTE   PATT
  POIN2 Label_0_0124C622
// 010   ----------------------------------------
Label_0_0124C65A:
 BYTE   N04  Dn2  v100
 BYTE   W04
 BYTE   Bn1
 BYTE   W04
 BYTE   Dn2
 BYTE   W04
 BYTE   Fs2
 BYTE   W04
 BYTE   Bn2
 BYTE   W04
 BYTE   Fs2
 BYTE   W04
 BYTE   Dn2
 BYTE   W04
 BYTE   Bn1
 BYTE   W04
 BYTE   Fs1
 BYTE   W04
 BYTE   Bn1
 BYTE   W04
 BYTE   Dn2
 BYTE   W04
 BYTE   Fs2
 BYTE   W04
 BYTE   Bn2
 BYTE   W04
 BYTE   Fs2
 BYTE   W04
 BYTE   Dn2
 BYTE   W04
 BYTE   Bn1
 BYTE   W04
 BYTE   Fs1
 BYTE   W04
 BYTE   Bn1
 BYTE   W04
 BYTE   Dn2
 BYTE   W04
 BYTE   Fs2
 BYTE   W04
 BYTE   Bn2
 BYTE   W04
 BYTE   Fs2
 BYTE   W04
 BYTE   Dn2
 BYTE   W04
 BYTE   Bn1
 BYTE   W04
 BYTE   PEND 
// 011   ----------------------------------------
Label_0_0124C68D:
 BYTE   N04  Bn1  v100
 BYTE   W04
 BYTE   Fs1
 BYTE   W04
 BYTE   Bn1
 BYTE   W04
 BYTE   Dn2
 BYTE   W04
 BYTE   Fs2
 BYTE   W04
 BYTE   Dn2
 BYTE   W04
 BYTE   Bn1
 BYTE   W04
 BYTE   Fs1
 BYTE   W04
 BYTE   Dn1
 BYTE   W04
 BYTE   Fs1
 BYTE   W04
 BYTE   Bn1
 BYTE   W04
 BYTE   Dn2
 BYTE   W04
 BYTE   Fs2
 BYTE   W04
 BYTE   Dn2
 BYTE   W04
 BYTE   Bn1
 BYTE   W04
 BYTE   Fs1
 BYTE   W04
 BYTE   Dn1
 BYTE   W04
 BYTE   Fs1
 BYTE   W04
 BYTE   Bn1
 BYTE   W04
 BYTE   Dn2
 BYTE   W04
 BYTE   Fs2
 BYTE   W04
 BYTE   Dn2
 BYTE   W04
 BYTE   Bn1
 BYTE   W04
 BYTE   Fs1
 BYTE   W04
 BYTE   PEND 
// 012   ----------------------------------------
 BYTE   PATT
  POIN2 Label_0_0124C622
// 013   ----------------------------------------
 BYTE   PATT
  POIN2 Label_0_0124C622
// 014   ----------------------------------------
 BYTE   PATT
  POIN2 Label_0_0124C65A
// 015   ----------------------------------------
 BYTE   PATT
  POIN2 Label_0_0124C68D
// 016   ----------------------------------------
 BYTE   PATT
  POIN2 Label_0_0124C573
// 017   ----------------------------------------
 BYTE   PATT
  POIN2 Label_0_0124C573
// 018   ----------------------------------------
 BYTE   PATT
  POIN2 Label_0_0124C5C2
// 019   ----------------------------------------
 BYTE   W96
// 020   ----------------------------------------
 BYTE   PATT
  POIN2 Label_0_0124C573
// 021   ----------------------------------------
 BYTE   PATT
  POIN2 Label_0_0124C573
// 022   ----------------------------------------
 BYTE   PATT
  POIN2 Label_0_0124C5C2
// 023   ----------------------------------------
 BYTE   W96
// 024   ----------------------------------------
 BYTE   PATT
  POIN2 Label_0_0124C573
// 025   ----------------------------------------
 BYTE   PATT
  POIN2 Label_0_0124C573
// 026   ----------------------------------------
 BYTE   PATT
  POIN2 Label_0_0124C5C2
// 027   ----------------------------------------
 BYTE   W96
// 028   ----------------------------------------
 BYTE   PATT
  POIN2 Label_0_0124C573
// 029   ----------------------------------------
 BYTE   PATT
  POIN2 Label_0_0124C573
// 030   ----------------------------------------
 BYTE   PATT
  POIN2 Label_0_0124C5C2
// 031   ----------------------------------------
 BYTE   W96
// 032   ----------------------------------------
 BYTE   PATT
  POIN2 Label_0_0124C622
// 033   ----------------------------------------
 BYTE   PATT
  POIN2 Label_0_0124C622
// 034   ----------------------------------------
 BYTE   PATT
  POIN2 Label_0_0124C65A
// 035   ----------------------------------------
 BYTE   PATT
  POIN2 Label_0_0124C68D
// 036   ----------------------------------------
 BYTE   PATT
  POIN2 Label_0_0124C622
// 037   ----------------------------------------
 BYTE   PATT
  POIN2 Label_0_0124C622
// 038   ----------------------------------------
 BYTE   PATT
  POIN2 Label_0_0124C65A
// 039   ----------------------------------------
 BYTE   PATT
  POIN2 Label_0_0124C68D
// 040   ----------------------------------------
 BYTE   PATT
  POIN2 Label_0_0124C573
// 041   ----------------------------------------
 BYTE   PATT
  POIN2 Label_0_0124C573
// 042   ----------------------------------------
 BYTE   PATT
  POIN2 Label_0_0124C5C2
// 043   ----------------------------------------
 BYTE   W96
// 044   ----------------------------------------
 BYTE   PATT
  POIN2 Label_0_0124C573
// 045   ----------------------------------------
 BYTE   PATT
  POIN2 Label_0_0124C573
// 046   ----------------------------------------
 BYTE   PATT
  POIN2 Label_0_0124C5C2
// 047   ----------------------------------------
 BYTE   W48
 BYTE   GoTo
  POIN2 Label_0_0124C51A
 BYTE   FINE

//**************** Track 2 (Midi-Chn.1) ****************//

PokemonRSERoute113Pandan_002:
// 000   ----------------------------------------
 BYTE   KEYSH   PokemonRSERoute113Pandan_key+0
Label_1_0124C766:
 BYTE   VOICE   121
 BYTE   VOL   10*PokemonRSERoute113Pandan_mvl/mxv
 BYTE   PAN   c_v+0
 BYTE   N36  An2  v092
 BYTE   W36
 BYTE   VOL   90*PokemonRSERoute113Pandan_mvl/mxv
 BYTE   W03
 BYTE   VOICE   11
 BYTE   W01
 BYTE   N04  Fs3  v100
 BYTE   W04
 BYTE   Bn3
 BYTE   W04
Label_1_0124C77C:
 BYTE   N24  Dn4  v100
 BYTE   W24
 BYTE   N16  Cs4
 BYTE   W16
 BYTE   N08  An3
 BYTE   W08
// 001   ----------------------------------------
 BYTE   N16  Bn3
 BYTE   W16
 BYTE   N08  Dn3
 BYTE   W08
 BYTE   N24  Gn3
 BYTE   W24
 BYTE   PEND 
Label_1_0124C790:
 BYTE   N08  Dn4  v100
 BYTE   W08
 BYTE   N04  Cs4
 BYTE   W08
 BYTE   N08  An3
 BYTE   W08
 BYTE   N16  Bn3
 BYTE   W16
 BYTE   N08  Dn3
 BYTE   W08
// 002   ----------------------------------------
 BYTE   N40  Gn3
 BYTE   W40
 BYTE   N04  Bn3
 BYTE   W04
 BYTE   Cs4
 BYTE   W04
 BYTE   PEND 
Label_1_0124C7A9:
 BYTE   N48  An3  v100
 BYTE   W84
// 003   ----------------------------------------
 BYTE   W03
 BYTE   VOICE   58
 BYTE   W01
 BYTE   N04  Gn2
 BYTE   W04
 BYTE   Gs2
 BYTE   W04
 BYTE   PEND 
Label_1_0124C7B7:
 BYTE   N72  An2  v100
 BYTE   W24
 BYTE   VOL   90*PokemonRSERoute113Pandan_mvl/mxv
 BYTE   W01
 BYTE   Fs4
 BYTE   W01
 BYTE   Fs4
 BYTE   W01
 BYTE   En4
 BYTE   W02
 BYTE   Ds4
 BYTE   W01
 BYTE   Dn4
 BYTE   W01
 BYTE   Cs4
 BYTE   W01
 BYTE   Cs4
 BYTE   W01
 BYTE   Cn4
 BYTE   W01
 BYTE   Bn3
 BYTE   W01
 BYTE   As3
 BYTE   W01
 BYTE   An3
 BYTE   W01
 BYTE   Gs3
 BYTE   W01
 BYTE   Gs3
 BYTE   W01
 BYTE   Fs3
 BYTE   W02
 BYTE   Fn3
 BYTE   W01
 BYTE   En3
 BYTE   W01
 BYTE   Ds3
 BYTE   W01
 BYTE   Dn3
 BYTE   W01
 BYTE   Dn3
 BYTE   W01
 BYTE   Cs3
 BYTE   W01
 BYTE   Cn3
 BYTE   W01
 BYTE   Bn2
 BYTE   W01
 BYTE   As2
 BYTE   W01
 BYTE   An2
 BYTE   W01
 BYTE   An2
 BYTE   W01
 BYTE   Gs2
 BYTE   W01
 BYTE   Gn2
 BYTE   W01
 BYTE   Fs2
 BYTE   W01
 BYTE   Fn2
 BYTE   W01
 BYTE   En2
 BYTE   W01
 BYTE   En2
 BYTE   W01
 BYTE   Ds2
 BYTE   W01
 BYTE   Dn2
 BYTE   W01
 BYTE   Cs2
 BYTE   W01
 BYTE   Cn2
 BYTE   W01
 BYTE   Bn1
 BYTE   W01
 BYTE   Bn1
 BYTE   W01
 BYTE   As1
 BYTE   W01
 BYTE   An1
 BYTE   W01
 BYTE   Gs1
 BYTE   W02
 BYTE   Fs1
 BYTE   W01
 BYTE   Fs1
 BYTE   W01
 BYTE   En1
 BYTE   W01
 BYTE   En1
 BYTE   W13
// 004   ----------------------------------------
 BYTE   Gs4
 BYTE   W03
 BYTE   VOICE   11
 BYTE   W01
 BYTE   N04  En4
 BYTE   W04
 BYTE   Ds4
 BYTE   W04
 BYTE   PEND 
Label_1_0124C821:
 BYTE   N24  Dn4  v100
 BYTE   W24
 BYTE   N16  Cs4
 BYTE   W16
 BYTE   N08  An3
 BYTE   W08
 BYTE   N16  Gn4
 BYTE   W16
 BYTE   N08  Dn3
 BYTE   W08
 BYTE   N16  Gn3
 BYTE   W16
// 005   ----------------------------------------
 BYTE   N04  Gn4
 BYTE   W04
 BYTE   Fs4
 BYTE   W04
 BYTE   PEND 
Label_1_0124C83A:
 BYTE   N08  Dn4  v100
 BYTE   W08
 BYTE   N04  Cs4
 BYTE   W08
 BYTE   N08  An3
 BYTE   W08
 BYTE   N16  Cs4
 BYTE   W16
 BYTE   N08  Dn3
 BYTE   W08
 BYTE   Gn4
 BYTE   W08
 BYTE   Dn4
 BYTE   W08
 BYTE   Gn3
 BYTE   W08
 BYTE   Bn3
 BYTE   W08
 BYTE   Dn3
 BYTE   W08
// 006   ----------------------------------------
 BYTE   N04  Bn3
 BYTE   W04
 BYTE   Cs4
 BYTE   W04
 BYTE   PEND 
// 007   ----------------------------------------
 BYTE   PATT
  POIN2 Label_1_0124C7A9
// 008   ----------------------------------------
Label_1_0124C85F:
 BYTE   N72  An2  v100
 BYTE   W24
 BYTE   VOL   90*PokemonRSERoute113Pandan_mvl/mxv
 BYTE   W01
 BYTE   Fs4
 BYTE   W01
 BYTE   Fs4
 BYTE   W01
 BYTE   En4
 BYTE   W02
 BYTE   Ds4
 BYTE   W01
 BYTE   Dn4
 BYTE   W01
 BYTE   Cs4
 BYTE   W01
 BYTE   Cs4
 BYTE   W01
 BYTE   Cn4
 BYTE   W01
 BYTE   Bn3
 BYTE   W01
 BYTE   As3
 BYTE   W01
 BYTE   An3
 BYTE   W01
 BYTE   Gs3
 BYTE   W01
 BYTE   Gs3
 BYTE   W01
 BYTE   Fs3
 BYTE   W02
 BYTE   Fn3
 BYTE   W01
 BYTE   En3
 BYTE   W01
 BYTE   Ds3
 BYTE   W01
 BYTE   Dn3
 BYTE   W01
 BYTE   Dn3
 BYTE   W01
 BYTE   Cs3
 BYTE   W01
 BYTE   Cn3
 BYTE   W01
 BYTE   Bn2
 BYTE   W01
 BYTE   As2
 BYTE   W01
 BYTE   An2
 BYTE   W01
 BYTE   An2
 BYTE   W01
 BYTE   Gs2
 BYTE   W01
 BYTE   Gn2
 BYTE   W01
 BYTE   Fs2
 BYTE   W01
 BYTE   Fn2
 BYTE   W01
 BYTE   En2
 BYTE   W01
 BYTE   En2
 BYTE   W01
 BYTE   Ds2
 BYTE   W01
 BYTE   Dn2
 BYTE   W01
 BYTE   Cs2
 BYTE   W01
 BYTE   Cn2
 BYTE   W01
 BYTE   Bn1
 BYTE   W01
 BYTE   Bn1
 BYTE   W01
 BYTE   As1
 BYTE   W01
 BYTE   An1
 BYTE   W01
 BYTE   Gs1
 BYTE   W02
 BYTE   Fs1
 BYTE   W01
 BYTE   Fs1
 BYTE   W01
 BYTE   En1
 BYTE   W01
 BYTE   En1
 BYTE   W13
 BYTE   Gs4
 BYTE   W03
 BYTE   VOICE   11
 BYTE   W01
 BYTE   N04  An3
 BYTE   W04
 BYTE   As3
 BYTE   W04
 BYTE   PEND 
// 009   ----------------------------------------
Label_1_0124C8C9:
 BYTE   N16  Bn3  v100
 BYTE   W16
 BYTE   N04  Cs4
 BYTE   W08
 BYTE   N16  Dn4
 BYTE   W16
 BYTE   N04  Bn3
 BYTE   W08
 BYTE   N16  Cs4
 BYTE   W16
 BYTE   N04  Dn4
 BYTE   W08
 BYTE   N16  En4
 BYTE   W16
 BYTE   N04  Cs4
 BYTE   W08
 BYTE   PEND 
// 010   ----------------------------------------
Label_1_0124C8E3:
 BYTE   N04  Dn4  v100
 BYTE   W08
 BYTE   En4
 BYTE   W08
 BYTE   Fs4
 BYTE   W08
 BYTE   Gn4
 BYTE   W04
 BYTE   Fs4
 BYTE   W04
 BYTE   Fn4
 BYTE   W08
 BYTE   Fs4
 BYTE   W08
 BYTE   N08  Bn4
 BYTE   W08
 BYTE   N04  Fs4
 BYTE   W08
 BYTE   En4
 BYTE   W08
 BYTE   N16  Dn4
 BYTE   W16
 BYTE   N04  Cs4
 BYTE   W08
 BYTE   PEND 
// 011   ----------------------------------------
Label_1_0124C902:
 BYTE   N16  Dn4  v100
 BYTE   W16
 BYTE   N04  Bn3
 BYTE   W08
 BYTE   N16  Cs4
 BYTE   W16
 BYTE   N04  Dn4
 BYTE   W06
 BYTE   N02  Fs4
 BYTE   W02
 BYTE   N16  En4
 BYTE   W16
 BYTE   N04  Cs4
 BYTE   W08
 BYTE   N16  Dn4
 BYTE   W16
 BYTE   N04  En4
 BYTE   W08
 BYTE   PEND 
// 012   ----------------------------------------
Label_1_0124C91F:
 BYTE   N04  Fs4  v100
 BYTE   W08
 BYTE   Gn4
 BYTE   W04
 BYTE   Fs4
 BYTE   W04
 BYTE   N08  Fn4
 BYTE   W08
 BYTE   N04  Fs4
 BYTE   W08
 BYTE   Fn4
 BYTE   W08
 BYTE   Fs4
 BYTE   W08
 BYTE   N08  As4
 BYTE   W08
 BYTE   N04  Fs4
 BYTE   W08
 BYTE   N08  En4
 BYTE   W08
 BYTE   Fs4
 BYTE   W07
 BYTE   VOICE   57
 BYTE   W01
 BYTE   N08  Dn4  v092
 BYTE   W08
 BYTE   N04  Cs4
 BYTE   W04
 BYTE   Cn4
 BYTE   W04
 BYTE   PEND 
// 013   ----------------------------------------
Label_1_0124C949:
 BYTE   N16  Bn3  v092
 BYTE   W16
 BYTE   N04  Cs4
 BYTE   W06
 BYTE   N02  En4
 BYTE   W02
 BYTE   N16  Dn4
 BYTE   W16
 BYTE   N04  Bn3
 BYTE   W08
 BYTE   N16  Cs4
 BYTE   W16
 BYTE   N04  Dn4
 BYTE   W08
 BYTE   N16  En4
 BYTE   W16
 BYTE   N04  Cs4
 BYTE   W08
 BYTE   PEND 
// 014   ----------------------------------------
Label_1_0124C966:
 BYTE   N04  Dn4  v092
 BYTE   W08
 BYTE   En4
 BYTE   W08
 BYTE   Fs4
 BYTE   W08
 BYTE   Gn4
 BYTE   W04
 BYTE   Fs4
 BYTE   W04
 BYTE   Fn4
 BYTE   W08
 BYTE   Fs4
 BYTE   W08
 BYTE   N08  Gs4
 BYTE   W08
 BYTE   N04  Fs4
 BYTE   W08
 BYTE   En4
 BYTE   W08
 BYTE   N12  Bn3
 BYTE   W12
 BYTE   N04  Cs4
 BYTE   W04
 BYTE   Dn4
 BYTE   W04
 BYTE   En4
 BYTE   W04
 BYTE   PEND 
// 015   ----------------------------------------
Label_1_0124C989:
 BYTE   N16  Gn4  v092
 BYTE   W16
 BYTE   N04  An4
 BYTE   W08
 BYTE   N16  Gn4
 BYTE   W16
 BYTE   N04  Fs4
 BYTE   W08
 BYTE   N16  En4
 BYTE   W16
 BYTE   N04  Bn3
 BYTE   W08
 BYTE   N16  Cs4
 BYTE   W16
 BYTE   N04  Dn4
 BYTE   W06
 BYTE   N02  Fs4
 BYTE   W02
 BYTE   PEND 
// 016   ----------------------------------------
Label_1_0124C9A6:
 BYTE   N04  En4  v092
 BYTE   W08
 BYTE   N08
 BYTE   W08
 BYTE   N04  Ds4
 BYTE   W08
 BYTE   En4
 BYTE   W08
 BYTE   Ds4
 BYTE   W08
 BYTE   En4
 BYTE   W06
 BYTE   N02  Fs4
 BYTE   W02
 BYTE   N16  Gn4
 BYTE   W16
 BYTE   N04  Fs4
 BYTE   W08
 BYTE   N16  En4
 BYTE   W16
 BYTE   N04  Fs3
 BYTE   W04
 BYTE   Bn3
 BYTE   W04
 BYTE   PEND 
// 017   ----------------------------------------
Label_1_0124C9C7:
 BYTE   N02  En4  v092
 BYTE   W02
 BYTE   N22  Dn4
 BYTE   W22
 BYTE   N16  Cs4
 BYTE   W16
 BYTE   N08  An3
 BYTE   W08
 BYTE   N16  Bn3
 BYTE   W16
 BYTE   N08  Dn3
 BYTE   W08
 BYTE   N22  Gn3
 BYTE   W22
 BYTE   N02  En4
 BYTE   W02
 BYTE   PEND 
// 018   ----------------------------------------
Label_1_0124C9E1:
 BYTE   N08  Dn4  v092
 BYTE   W08
 BYTE   N04  Cs4
 BYTE   W08
 BYTE   N08  An3
 BYTE   W08
 BYTE   N16  Bn3
 BYTE   W16
 BYTE   N08  Dn3
 BYTE   W08
 BYTE   N40  Gn3
 BYTE   W40
 BYTE   N04  Bn3
 BYTE   W04
 BYTE   Cs4
 BYTE   W04
 BYTE   PEND 
// 019   ----------------------------------------
Label_1_0124C9FA:
 BYTE   N48  An3  v092
 BYTE   W84
 BYTE   W03
 BYTE   VOICE   58
 BYTE   W01
 BYTE   N04  Gn2
 BYTE   W04
 BYTE   Gs2
 BYTE   W04
 BYTE   PEND 
// 020   ----------------------------------------
Label_1_0124CA08:
 BYTE   N16  An2  v092
 BYTE   W16
 BYTE   N04  Gn2
 BYTE   W04
 BYTE   Gs2
 BYTE   W04
 BYTE   N48  An2
 BYTE   W12
 BYTE   VOL   90*PokemonRSERoute113Pandan_mvl/mxv
 BYTE   W01
 BYTE   Fs4
 BYTE   W01
 BYTE   Fs4
 BYTE   W01
 BYTE   En4
 BYTE   W02
 BYTE   Ds4
 BYTE   W01
 BYTE   Dn4
 BYTE   W01
 BYTE   Cs4
 BYTE   W01
 BYTE   Cs4
 BYTE   W01
 BYTE   Cn4
 BYTE   W01
 BYTE   Bn3
 BYTE   W01
 BYTE   As3
 BYTE   W01
 BYTE   An3
 BYTE   W01
 BYTE   Gs3
 BYTE   W01
 BYTE   Gs3
 BYTE   W01
 BYTE   Gn3
 BYTE   W01
 BYTE   Fs3
 BYTE   W01
 BYTE   Fn3
 BYTE   W01
 BYTE   En3
 BYTE   W01
 BYTE   Ds3
 BYTE   W01
 BYTE   Dn3
 BYTE   W01
 BYTE   Dn3
 BYTE   W01
 BYTE   Cs3
 BYTE   W01
 BYTE   Cn3
 BYTE   W01
 BYTE   Bn2
 BYTE   W01
 BYTE   As2
 BYTE   W01
 BYTE   An2
 BYTE   W01
 BYTE   An2
 BYTE   W01
 BYTE   Gs2
 BYTE   W01
 BYTE   Gn2
 BYTE   W01
 BYTE   Fs2
 BYTE   W02
 BYTE   En2
 BYTE   W01
 BYTE   En2
 BYTE   W01
 BYTE   Ds2
 BYTE   W01
 BYTE   Dn2
 BYTE   W13
 BYTE   Gs4
 BYTE   W03
 BYTE   VOICE   57
 BYTE   W01
 BYTE   N04  En4
 BYTE   W04
 BYTE   Ds4
 BYTE   W04
 BYTE   PEND 
// 021   ----------------------------------------
Label_1_0124CA64:
 BYTE   N24  Dn4  v092
 BYTE   W24
 BYTE   N16  Cs4
 BYTE   W16
 BYTE   N08  An3
 BYTE   W08
 BYTE   N02  Gs4
 BYTE   W02
 BYTE   N14  Gn4
 BYTE   W14
 BYTE   N08  Dn3
 BYTE   W08
 BYTE   N16  Gn3
 BYTE   W16
 BYTE   N04  Gn4
 BYTE   W04
 BYTE   Fs4
 BYTE   W04
 BYTE   PEND 
// 022   ----------------------------------------
Label_1_0124CA80:
 BYTE   N02  Cs4  v092
 BYTE   W02
 BYTE   N06  Dn4
 BYTE   W06
 BYTE   N04  Cs4
 BYTE   W08
 BYTE   N08  An3
 BYTE   W08
 BYTE   N16  Cs4
 BYTE   W16
 BYTE   N08  Dn3
 BYTE   W08
 BYTE   N02  Gs4
 BYTE   W02
 BYTE   N06  Gn4
 BYTE   W06
 BYTE   N08  Dn4
 BYTE   W08
 BYTE   Gn3
 BYTE   W08
 BYTE   Bn3
 BYTE   W08
 BYTE   Dn3
 BYTE   W08
 BYTE   N04  Bn3
 BYTE   W04
 BYTE   Cs4
 BYTE   W04
 BYTE   PEND 
// 023   ----------------------------------------
Label_1_0124CAA8:
 BYTE   N02  As3  v092
 BYTE   W02
 BYTE   N44  An3
 BYTE   W84
 BYTE   W01
 BYTE   VOICE   58
 BYTE   W01
 BYTE   N04  Gn2  v100
 BYTE   W04
 BYTE   Gs2
 BYTE   W04
 BYTE   PEND 
// 024   ----------------------------------------
 BYTE   N36  An2  v092
 BYTE   W24
 BYTE   VOL   89*PokemonRSERoute113Pandan_mvl/mxv
 BYTE   W01
 BYTE   Fn4
 BYTE   W01
 BYTE   En4
 BYTE   W01
 BYTE   Dn4
 BYTE   W01
 BYTE   Cs4
 BYTE   W01
 BYTE   Bn3
 BYTE   W01
 BYTE   An3
 BYTE   W01
 BYTE   Gs3
 BYTE   W01
 BYTE   Fs3
 BYTE   W01
 BYTE   En3
 BYTE   W01
 BYTE   Dn3
 BYTE   W01
 BYTE   Cs3
 BYTE   W01
 BYTE   Cn3
 BYTE   W01
 BYTE   Gs4
 BYTE   W03
 BYTE   N04  Gn2  v100
 BYTE   W04
 BYTE   Gs2
 BYTE   W04
 BYTE   N36  An2  v092
 BYTE   W24
 BYTE   VOL   89*PokemonRSERoute113Pandan_mvl/mxv
 BYTE   W01
 BYTE   Fn4
 BYTE   W01
 BYTE   En4
 BYTE   W01
 BYTE   Dn4
 BYTE   W01
 BYTE   Cs4
 BYTE   W01
 BYTE   Bn3
 BYTE   W01
 BYTE   An3
 BYTE   W01
 BYTE   Gs3
 BYTE   W01
 BYTE   Fs3
 BYTE   W01
 BYTE   En3
 BYTE   W01
 BYTE   Dn3
 BYTE   W01
 BYTE   Cs3
 BYTE   W01
 BYTE   Cn3
 BYTE   W01
 BYTE   Gs4
 BYTE   W02
 BYTE   VOICE   11
 BYTE   W01
 BYTE   N04  Fs3  v100
 BYTE   W04
 BYTE   Bn3
 BYTE   W04
// 025   ----------------------------------------
 BYTE   PATT
  POIN2 Label_1_0124C77C
// 026   ----------------------------------------
 BYTE   PATT
  POIN2 Label_1_0124C790
// 027   ----------------------------------------
 BYTE   PATT
  POIN2 Label_1_0124C7A9
// 028   ----------------------------------------
 BYTE   PATT
  POIN2 Label_1_0124C7B7
// 029   ----------------------------------------
 BYTE   PATT
  POIN2 Label_1_0124C821
// 030   ----------------------------------------
 BYTE   PATT
  POIN2 Label_1_0124C83A
// 031   ----------------------------------------
 BYTE   PATT
  POIN2 Label_1_0124C7A9
// 032   ----------------------------------------
 BYTE   PATT
  POIN2 Label_1_0124C85F
// 033   ----------------------------------------
 BYTE   PATT
  POIN2 Label_1_0124C8C9
// 034   ----------------------------------------
 BYTE   PATT
  POIN2 Label_1_0124C8E3
// 035   ----------------------------------------
 BYTE   PATT
  POIN2 Label_1_0124C902
// 036   ----------------------------------------
 BYTE   PATT
  POIN2 Label_1_0124C91F
// 037   ----------------------------------------
 BYTE   PATT
  POIN2 Label_1_0124C949
// 038   ----------------------------------------
 BYTE   PATT
  POIN2 Label_1_0124C966
// 039   ----------------------------------------
 BYTE   PATT
  POIN2 Label_1_0124C989
// 040   ----------------------------------------
 BYTE   PATT
  POIN2 Label_1_0124C9A6
// 041   ----------------------------------------
 BYTE   PATT
  POIN2 Label_1_0124C9C7
// 042   ----------------------------------------
 BYTE   PATT
  POIN2 Label_1_0124C9E1
// 043   ----------------------------------------
 BYTE   PATT
  POIN2 Label_1_0124C9FA
// 044   ----------------------------------------
 BYTE   PATT
  POIN2 Label_1_0124CA08
// 045   ----------------------------------------
 BYTE   PATT
  POIN2 Label_1_0124CA64
// 046   ----------------------------------------
 BYTE   PATT
  POIN2 Label_1_0124CA80
// 047   ----------------------------------------
 BYTE   PATT
  POIN2 Label_1_0124CAA8
// 048   ----------------------------------------
 BYTE   N36  An2  v092
 BYTE   W24
 BYTE   VOL   89*PokemonRSERoute113Pandan_mvl/mxv
 BYTE   W01
 BYTE   Fn4
 BYTE   W01
 BYTE   En4
 BYTE   W01
 BYTE   Dn4
 BYTE   W01
 BYTE   Cs4
 BYTE   W01
 BYTE   Bn3
 BYTE   W01
 BYTE   An3
 BYTE   W01
 BYTE   Gs3
 BYTE   W01
 BYTE   Fs3
 BYTE   W01
 BYTE   En3
 BYTE   W01
 BYTE   Dn3
 BYTE   W01
 BYTE   Cs3
 BYTE   W01
 BYTE   Cn3
 BYTE   W01
 BYTE   Gs4
 BYTE   W03
 BYTE   N04  Gn2  v100
 BYTE   W04
 BYTE   Gs2
 BYTE   W04
 BYTE   GoTo
  POIN2 Label_1_0124C766
 BYTE   FINE

//**************** Track 3 (Midi-Chn.2) ****************//

PokemonRSERoute113Pandan_003:
// 000   ----------------------------------------
 BYTE   KEYSH   PokemonRSERoute113Pandan_key+0
Label_2_0124CBAE:
 BYTE   VOICE   121
 BYTE   VOL   10*PokemonRSERoute113Pandan_mvl/mxv
 BYTE   PAN   c_v+0
 BYTE   N36  An3  v092
 BYTE   W36
 BYTE   VOL   57*PokemonRSERoute113Pandan_mvl/mxv
 BYTE   W03
 BYTE   VOICE   11
 BYTE   W01
 BYTE   N04  Bn2  v100
 BYTE   W04
 BYTE   En3
 BYTE   W04
Label_2_0124CBC4:
 BYTE   N24  Gn3  v100
 BYTE   W24
 BYTE   N16  Fs3
 BYTE   W16
 BYTE   N08  Dn3
 BYTE   W08
// 001   ----------------------------------------
 BYTE   N16  En3
 BYTE   W16
 BYTE   N08  Gn2
 BYTE   W08
 BYTE   N24  Cn3
 BYTE   W24
 BYTE   PEND 
Label_2_0124CBD8:
 BYTE   N08  Gn3  v100
 BYTE   W08
 BYTE   N04  Fs3
 BYTE   W08
 BYTE   N08  Dn3
 BYTE   W08
 BYTE   N16  En3
 BYTE   W16
 BYTE   N08  Gn2
 BYTE   W08
// 002   ----------------------------------------
 BYTE   N40  Cn3
 BYTE   W40
 BYTE   N04  En3
 BYTE   W04
 BYTE   Fs3
 BYTE   W04
 BYTE   PEND 
Label_2_0124CBF1:
 BYTE   N48  Dn3  v100
 BYTE   W72
// 003   ----------------------------------------
 BYTE   VOL   80*PokemonRSERoute113Pandan_mvl/mxv
 BYTE   W15
 BYTE   VOICE   60
 BYTE   W01
 BYTE   N04  Gn3
 BYTE   W04
 BYTE   Gs3
 BYTE   W04
 BYTE   PEND 
Label_2_0124CC01:
 BYTE   N72  An3  v100
 BYTE   W24
 BYTE   VOL   80*PokemonRSERoute113Pandan_mvl/mxv
 BYTE   W01
 BYTE   An3
 BYTE   W02
 BYTE   Gs3
 BYTE   W01
 BYTE   Gn3
 BYTE   W01
 BYTE   Fs3
 BYTE   W01
 BYTE   Fn3
 BYTE   W02
 BYTE   En3
 BYTE   W01
 BYTE   Ds3
 BYTE   W01
 BYTE   Dn3
 BYTE   W01
 BYTE   Dn3
 BYTE   W01
 BYTE   Cs3
 BYTE   W01
 BYTE   Cn3
 BYTE   W01
 BYTE   Bn2
 BYTE   W01
 BYTE   Bn2
 BYTE   W01
 BYTE   As2
 BYTE   W01
 BYTE   An2
 BYTE   W01
 BYTE   Gs2
 BYTE   W01
 BYTE   Gs2
 BYTE   W01
 BYTE   Gn2
 BYTE   W01
 BYTE   Fs2
 BYTE   W01
 BYTE   Fs2
 BYTE   W01
 BYTE   Fn2
 BYTE   W01
 BYTE   En2
 BYTE   W01
 BYTE   Ds2
 BYTE   W01
 BYTE   Ds2
 BYTE   W01
 BYTE   Dn2
 BYTE   W01
 BYTE   Cs2
 BYTE   W01
 BYTE   Cn2
 BYTE   W01
 BYTE   Bn1
 BYTE   W01
 BYTE   Bn1
 BYTE   W01
 BYTE   As1
 BYTE   W01
 BYTE   An1
 BYTE   W01
 BYTE   Gs1
 BYTE   W02
 BYTE   Gn1
 BYTE   W01
 BYTE   Fs1
 BYTE   W01
 BYTE   Fs1
 BYTE   W01
 BYTE   En1
 BYTE   W02
 BYTE   Ds1
 BYTE   W01
 BYTE   Ds1
 BYTE   W01
 BYTE   Dn1
 BYTE   W01
 BYTE   Cs1
 BYTE   W02
 BYTE   Bn0
 BYTE   W01
 BYTE   Bn0
 BYTE   W16
// 004   ----------------------------------------
 BYTE   VOICE   11
 BYTE   VOL   57*PokemonRSERoute113Pandan_mvl/mxv
 BYTE   W01
 BYTE   N04
 BYTE   W04
 BYTE   Gs3
 BYTE   W04
 BYTE   PEND 
Label_2_0124CC66:
 BYTE   N24  Gn3  v100
 BYTE   W24
 BYTE   N16  Fs3
 BYTE   W16
 BYTE   N08  Dn3
 BYTE   W08
 BYTE   N16  Cn4
 BYTE   W16
 BYTE   N08  Gn2
 BYTE   W08
 BYTE   N16  Cn3
 BYTE   W16
// 005   ----------------------------------------
 BYTE   N04  Cn4
 BYTE   W04
 BYTE   Bn3
 BYTE   W04
 BYTE   PEND 
Label_2_0124CC7F:
 BYTE   N08  Gn3  v100
 BYTE   W08
 BYTE   N04  Fs3
 BYTE   W08
 BYTE   N08  Dn3
 BYTE   W08
 BYTE   N16  Fs3
 BYTE   W16
 BYTE   N08  Gn2
 BYTE   W08
 BYTE   Cn4
 BYTE   W08
 BYTE   Gn3
 BYTE   W08
 BYTE   Cn3
 BYTE   W08
 BYTE   En3
 BYTE   W08
 BYTE   Gn2
 BYTE   W08
// 006   ----------------------------------------
 BYTE   N04  En3
 BYTE   W04
 BYTE   Fs3
 BYTE   W04
 BYTE   PEND 
// 007   ----------------------------------------
 BYTE   PATT
  POIN2 Label_2_0124CBF1
// 008   ----------------------------------------
Label_2_0124CCA4:
 BYTE   N72  An3  v100
 BYTE   W24
 BYTE   VOL   80*PokemonRSERoute113Pandan_mvl/mxv
 BYTE   W01
 BYTE   An3
 BYTE   W02
 BYTE   Gs3
 BYTE   W01
 BYTE   Gn3
 BYTE   W01
 BYTE   Fs3
 BYTE   W01
 BYTE   Fn3
 BYTE   W02
 BYTE   En3
 BYTE   W01
 BYTE   Ds3
 BYTE   W01
 BYTE   Dn3
 BYTE   W01
 BYTE   Dn3
 BYTE   W01
 BYTE   Cs3
 BYTE   W01
 BYTE   Cn3
 BYTE   W01
 BYTE   Bn2
 BYTE   W01
 BYTE   Bn2
 BYTE   W01
 BYTE   As2
 BYTE   W01
 BYTE   An2
 BYTE   W01
 BYTE   Gs2
 BYTE   W01
 BYTE   Gs2
 BYTE   W01
 BYTE   Gn2
 BYTE   W01
 BYTE   Fs2
 BYTE   W01
 BYTE   Fs2
 BYTE   W01
 BYTE   Fn2
 BYTE   W01
 BYTE   En2
 BYTE   W01
 BYTE   Ds2
 BYTE   W01
 BYTE   Ds2
 BYTE   W01
 BYTE   Dn2
 BYTE   W01
 BYTE   Cs2
 BYTE   W01
 BYTE   Cn2
 BYTE   W01
 BYTE   Bn1
 BYTE   W01
 BYTE   Bn1
 BYTE   W01
 BYTE   As1
 BYTE   W01
 BYTE   An1
 BYTE   W01
 BYTE   Gs1
 BYTE   W02
 BYTE   Gn1
 BYTE   W01
 BYTE   Fs1
 BYTE   W01
 BYTE   Fs1
 BYTE   W01
 BYTE   En1
 BYTE   W02
 BYTE   Ds1
 BYTE   W01
 BYTE   Ds1
 BYTE   W01
 BYTE   Dn1
 BYTE   W01
 BYTE   Cs1
 BYTE   W02
 BYTE   Bn0
 BYTE   W01
 BYTE   Bn0
 BYTE   W16
 BYTE   Bn1
 BYTE   W09
 BYTE   PEND 
// 009   ----------------------------------------
 BYTE   W96
// 010   ----------------------------------------
 BYTE   W96
// 011   ----------------------------------------
 BYTE   W96
// 012   ----------------------------------------
 BYTE   W96
// 013   ----------------------------------------
 BYTE   W96
// 014   ----------------------------------------
 BYTE   W96
// 015   ----------------------------------------
 BYTE   W96
// 016   ----------------------------------------
Label_2_0124CD09:
 BYTE   W84
 BYTE   W03
 BYTE   VOICE   57
 BYTE   W01
 BYTE   N04  Bn2  v092
 BYTE   W04
 BYTE   En3
 BYTE   W04
 BYTE   PEND 
// 017   ----------------------------------------
Label_2_0124CD15:
 BYTE   N02  An3  v092
 BYTE   W02
 BYTE   N22  Gn3
 BYTE   W22
 BYTE   N16  Fs3
 BYTE   W16
 BYTE   N08  Dn3
 BYTE   W08
 BYTE   N16  En3
 BYTE   W16
 BYTE   N08  Gn2
 BYTE   W08
 BYTE   N22  Cn3
 BYTE   W22
 BYTE   N02  An3
 BYTE   W02
 BYTE   PEND 
// 018   ----------------------------------------
Label_2_0124CD2F:
 BYTE   N08  Gn3  v092
 BYTE   W08
 BYTE   N04  Fs3
 BYTE   W08
 BYTE   N08  Dn3
 BYTE   W08
 BYTE   N16  En3
 BYTE   W16
 BYTE   N08  Gn2
 BYTE   W08
 BYTE   N40  Cn3
 BYTE   W40
 BYTE   N04  En3
 BYTE   W04
 BYTE   Fs3
 BYTE   W04
 BYTE   PEND 
// 019   ----------------------------------------
Label_2_0124CD48:
 BYTE   N48  Dn3  v092
 BYTE   W72
 BYTE   VOL   80*PokemonRSERoute113Pandan_mvl/mxv
 BYTE   W15
 BYTE   VOICE   60
 BYTE   W01
 BYTE   N04  Gn3
 BYTE   W04
 BYTE   Gs3
 BYTE   W04
 BYTE   PEND 
// 020   ----------------------------------------
Label_2_0124CD58:
 BYTE   N16  An3  v092
 BYTE   W16
 BYTE   N04  Gn3
 BYTE   W04
 BYTE   Gs3
 BYTE   W04
 BYTE   N48  An3
 BYTE   W24
 BYTE   VOL   80*PokemonRSERoute113Pandan_mvl/mxv
 BYTE   W01
 BYTE   An3
 BYTE   W01
 BYTE   Gs3
 BYTE   W01
 BYTE   Gn3
 BYTE   W01
 BYTE   Fs3
 BYTE   W01
 BYTE   Fn3
 BYTE   W01
 BYTE   En3
 BYTE   W01
 BYTE   Ds3
 BYTE   W01
 BYTE   Dn3
 BYTE   W01
 BYTE   Dn3
 BYTE   W01
 BYTE   Cs3
 BYTE   W01
 BYTE   Cn3
 BYTE   W01
 BYTE   Bn2
 BYTE   W01
 BYTE   An2
 BYTE   W01
 BYTE   An2
 BYTE   W01
 BYTE   Gs2
 BYTE   W01
 BYTE   Gs2
 BYTE   W01
 BYTE   Fs2
 BYTE   W01
 BYTE   Fn2
 BYTE   W01
 BYTE   En2
 BYTE   W01
 BYTE   Ds2
 BYTE   W01
 BYTE   Ds2
 BYTE   W01
 BYTE   Cs2
 BYTE   W01
 BYTE   Cs2
 BYTE   W16
 BYTE   VOICE   57
 BYTE   VOL   57*PokemonRSERoute113Pandan_mvl/mxv
 BYTE   W01
 BYTE   N04
 BYTE   W04
 BYTE   Gs3
 BYTE   W04
 BYTE   PEND 
// 021   ----------------------------------------
Label_2_0124CD9F:
 BYTE   N24  Gn3  v092
 BYTE   W24
 BYTE   N16  Fs3
 BYTE   W16
 BYTE   N08  Dn3
 BYTE   W08
 BYTE   N02  Cs4
 BYTE   W02
 BYTE   N14  Cn4
 BYTE   W14
 BYTE   N08  Gn2
 BYTE   W08
 BYTE   N16  Cn3
 BYTE   W16
 BYTE   N04  Cn4
 BYTE   W04
 BYTE   Bn3
 BYTE   W04
 BYTE   PEND 
// 022   ----------------------------------------
Label_2_0124CDBB:
 BYTE   N02  Fs3  v092
 BYTE   W02
 BYTE   N06  Gn3
 BYTE   W06
 BYTE   N04  Fs3
 BYTE   W08
 BYTE   N08  Dn3
 BYTE   W08
 BYTE   N16  Fs3
 BYTE   W16
 BYTE   N08  Gn2
 BYTE   W08
 BYTE   N02  Cs4
 BYTE   W02
 BYTE   N06  Cn4
 BYTE   W06
 BYTE   N08  Gn3
 BYTE   W08
 BYTE   Cn3
 BYTE   W08
 BYTE   En3
 BYTE   W08
 BYTE   Gn2
 BYTE   W08
 BYTE   N04  En3
 BYTE   W04
 BYTE   Fs3
 BYTE   W04
 BYTE   PEND 
// 023   ----------------------------------------
Label_2_0124CDE3:
 BYTE   N02  Ds3  v092
 BYTE   W02
 BYTE   N44  Dn3
 BYTE   W68
 BYTE   W02
 BYTE   VOL   80*PokemonRSERoute113Pandan_mvl/mxv
 BYTE   W15
 BYTE   VOICE   60
 BYTE   W01
 BYTE   N04  Gn3  v100
 BYTE   W04
 BYTE   Gs3
 BYTE   W04
 BYTE   PEND 
// 024   ----------------------------------------
 BYTE   N36  An3  v092
 BYTE   W24
 BYTE   VOL   79*PokemonRSERoute113Pandan_mvl/mxv
 BYTE   W01
 BYTE   Gs3
 BYTE   W01
 BYTE   Gs3
 BYTE   W01
 BYTE   Fs3
 BYTE   W01
 BYTE   Fn3
 BYTE   W01
 BYTE   En3
 BYTE   W01
 BYTE   Dn3
 BYTE   W01
 BYTE   Cs3
 BYTE   W01
 BYTE   Cn3
 BYTE   W01
 BYTE   Bn2
 BYTE   W01
 BYTE   As2
 BYTE   W01
 BYTE   An2
 BYTE   W04
 BYTE   As3
 BYTE   W01
 BYTE   N04  Gn3  v100
 BYTE   W04
 BYTE   Gs3
 BYTE   W04
 BYTE   N36  An3  v092
 BYTE   W24
 BYTE   VOL   79*PokemonRSERoute113Pandan_mvl/mxv
 BYTE   W01
 BYTE   Gs3
 BYTE   W01
 BYTE   Gs3
 BYTE   W01
 BYTE   Fs3
 BYTE   W01
 BYTE   Fn3
 BYTE   W01
 BYTE   En3
 BYTE   W01
 BYTE   Dn3
 BYTE   W01
 BYTE   Cs3
 BYTE   W01
 BYTE   Cn3
 BYTE   W01
 BYTE   Bn2
 BYTE   W01
 BYTE   As2
 BYTE   W01
 BYTE   An2
 BYTE   W04
 BYTE   VOICE   11
 BYTE   VOL   57*PokemonRSERoute113Pandan_mvl/mxv
 BYTE   W01
 BYTE   N04  Bn2  v100
 BYTE   W04
 BYTE   En3
 BYTE   W04
// 025   ----------------------------------------
 BYTE   PATT
  POIN2 Label_2_0124CBC4
// 026   ----------------------------------------
 BYTE   PATT
  POIN2 Label_2_0124CBD8
// 027   ----------------------------------------
 BYTE   PATT
  POIN2 Label_2_0124CBF1
// 028   ----------------------------------------
 BYTE   PATT
  POIN2 Label_2_0124CC01
// 029   ----------------------------------------
 BYTE   PATT
  POIN2 Label_2_0124CC66
// 030   ----------------------------------------
 BYTE   PATT
  POIN2 Label_2_0124CC7F
// 031   ----------------------------------------
 BYTE   PATT
  POIN2 Label_2_0124CBF1
// 032   ----------------------------------------
 BYTE   PATT
  POIN2 Label_2_0124CCA4
// 033   ----------------------------------------
 BYTE   W96
// 034   ----------------------------------------
 BYTE   W96
// 035   ----------------------------------------
 BYTE   W96
// 036   ----------------------------------------
 BYTE   W96
// 037   ----------------------------------------
 BYTE   W96
// 038   ----------------------------------------
 BYTE   W96
// 039   ----------------------------------------
 BYTE   W96
// 040   ----------------------------------------
 BYTE   PATT
  POIN2 Label_2_0124CD09
// 041   ----------------------------------------
 BYTE   PATT
  POIN2 Label_2_0124CD15
// 042   ----------------------------------------
 BYTE   PATT
  POIN2 Label_2_0124CD2F
// 043   ----------------------------------------
 BYTE   PATT
  POIN2 Label_2_0124CD48
// 044   ----------------------------------------
 BYTE   PATT
  POIN2 Label_2_0124CD58
// 045   ----------------------------------------
 BYTE   PATT
  POIN2 Label_2_0124CD9F
// 046   ----------------------------------------
 BYTE   PATT
  POIN2 Label_2_0124CDBB
// 047   ----------------------------------------
 BYTE   PATT
  POIN2 Label_2_0124CDE3
// 048   ----------------------------------------
 BYTE   N36  An3  v092
 BYTE   W24
 BYTE   VOL   79*PokemonRSERoute113Pandan_mvl/mxv
 BYTE   W01
 BYTE   Gs3
 BYTE   W01
 BYTE   Gs3
 BYTE   W01
 BYTE   Fs3
 BYTE   W01
 BYTE   Fn3
 BYTE   W01
 BYTE   En3
 BYTE   W01
 BYTE   Dn3
 BYTE   W01
 BYTE   Cs3
 BYTE   W01
 BYTE   Cn3
 BYTE   W01
 BYTE   Bn2
 BYTE   W01
 BYTE   As2
 BYTE   W01
 BYTE   An2
 BYTE   W04
 BYTE   As3
 BYTE   W01
 BYTE   N04  Gn3  v100
 BYTE   W04
 BYTE   Gs3
 BYTE   W04
 BYTE   GoTo
  POIN2 Label_2_0124CBAE
 BYTE   FINE

//**************** Track 4 (Midi-Chn.3) ****************//

PokemonRSERoute113Pandan_004:
// 000   ----------------------------------------
 BYTE   KEYSH   PokemonRSERoute113Pandan_key+0
Label_3_0124CECA:
 BYTE   VOICE   28
 BYTE   VOL   10*PokemonRSERoute113Pandan_mvl/mxv
 BYTE   PAN   c_v+0
 BYTE   N08  Cs3  v076
 BYTE   W08
 BYTE   N04  Cs3  v100
 BYTE   W04
 BYTE   Cs3  v076
 BYTE   W04
 BYTE   Cs3  v100
 BYTE   W04
 BYTE   Cs3  v076
 BYTE   W04
 BYTE   N08
 BYTE   W08
 BYTE   N04  Cs3  v100
 BYTE   W04
 BYTE   N04
 BYTE   W04
 BYTE   N08
 BYTE   W08
Label_3_0124CEEB:
 BYTE   N08  Fs3  v100
 BYTE   W08
 BYTE   N04
 BYTE   W04
 BYTE   Fs3  v076
 BYTE   W04
 BYTE   N08  Fs3  v100
 BYTE   W08
 BYTE   Fs3  v076
 BYTE   W08
 BYTE   N04  Fs3  v100
 BYTE   W04
 BYTE   N04
 BYTE   W04
 BYTE   N08
 BYTE   W08
// 001   ----------------------------------------
 BYTE   Fs3  v076
 BYTE   W08
 BYTE   N04  Fs3  v100
 BYTE   W04
 BYTE   Fs3  v076
 BYTE   W04
 BYTE   Fs3  v100
 BYTE   W04
 BYTE   Fs3  v076
 BYTE   W04
 BYTE   N08
 BYTE   W08
 BYTE   N04  Fs3  v100
 BYTE   W04
 BYTE   N04
 BYTE   W04
 BYTE   N08
 BYTE   W08
 BYTE   PEND 
// 002   ----------------------------------------
 BYTE   PATT
  POIN2 Label_3_0124CEEB
// 003   ----------------------------------------
Label_3_0124CF23:
 BYTE   N08  Cs3  v100
 BYTE   W08
 BYTE   N04
 BYTE   W04
 BYTE   Cs3  v076
 BYTE   W04
 BYTE   N08  Cs3  v100
 BYTE   W08
 BYTE   Cs3  v076
 BYTE   W08
 BYTE   N04  Cs3  v100
 BYTE   W04
 BYTE   N04
 BYTE   W04
 BYTE   N08
 BYTE   W08
 BYTE   Cs3  v076
 BYTE   W08
 BYTE   N04  Cs3  v100
 BYTE   W04
 BYTE   Cs3  v076
 BYTE   W04
 BYTE   Cs3  v100
 BYTE   W04
 BYTE   Cs3  v076
 BYTE   W04
 BYTE   N08
 BYTE   W08
 BYTE   N04  Cs3  v100
 BYTE   W04
 BYTE   N04
 BYTE   W04
 BYTE   N08
 BYTE   W08
 BYTE   PEND 
// 004   ----------------------------------------
 BYTE   PATT
  POIN2 Label_3_0124CF23
// 005   ----------------------------------------
 BYTE   PATT
  POIN2 Label_3_0124CEEB
// 006   ----------------------------------------
 BYTE   PATT
  POIN2 Label_3_0124CEEB
// 007   ----------------------------------------
 BYTE   PATT
  POIN2 Label_3_0124CF23
// 008   ----------------------------------------
 BYTE   PATT
  POIN2 Label_3_0124CF23
// 009   ----------------------------------------
Label_3_0124CF6F:
 BYTE   N08  Dn3  v100
 BYTE   W08
 BYTE   N04
 BYTE   W04
 BYTE   Dn3  v076
 BYTE   W04
 BYTE   N08  Dn3  v100
 BYTE   W08
 BYTE   Dn3  v076
 BYTE   W08
 BYTE   N04  Dn3  v100
 BYTE   W04
 BYTE   N04
 BYTE   W04
 BYTE   N08
 BYTE   W08
 BYTE   Dn3  v076
 BYTE   W08
 BYTE   N04  Dn3  v100
 BYTE   W04
 BYTE   Dn3  v076
 BYTE   W04
 BYTE   Dn3  v100
 BYTE   W04
 BYTE   Dn3  v076
 BYTE   W04
 BYTE   N08
 BYTE   W08
 BYTE   N04  Dn3  v100
 BYTE   W04
 BYTE   N04
 BYTE   W04
 BYTE   N08
 BYTE   W08
 BYTE   PEND 
// 010   ----------------------------------------
 BYTE   PATT
  POIN2 Label_3_0124CF6F
// 011   ----------------------------------------
Label_3_0124CFA7:
 BYTE   N08  Bn3  v100
 BYTE   W08
 BYTE   N04
 BYTE   W04
 BYTE   Bn3  v076
 BYTE   W04
 BYTE   N08  Bn3  v100
 BYTE   W08
 BYTE   Bn3  v076
 BYTE   W08
 BYTE   N04  Bn3  v100
 BYTE   W04
 BYTE   N04
 BYTE   W04
 BYTE   N08
 BYTE   W08
 BYTE   Cs4  v076
 BYTE   W08
 BYTE   N04  Cs4  v100
 BYTE   W04
 BYTE   Cs4  v076
 BYTE   W04
 BYTE   Cs4  v100
 BYTE   W04
 BYTE   Cs4  v076
 BYTE   W04
 BYTE   N08
 BYTE   W08
 BYTE   N04  Cs4  v100
 BYTE   W04
 BYTE   N04
 BYTE   W04
 BYTE   N08
 BYTE   W08
 BYTE   PEND 
// 012   ----------------------------------------
Label_3_0124CFDA:
 BYTE   N08  As3  v100
 BYTE   W08
 BYTE   N04
 BYTE   W04
 BYTE   As3  v076
 BYTE   W04
 BYTE   N08  As3  v100
 BYTE   W08
 BYTE   As3  v076
 BYTE   W08
 BYTE   N04  As3  v100
 BYTE   W04
 BYTE   N04
 BYTE   W04
 BYTE   N08
 BYTE   W08
 BYTE   Fs3  v076
 BYTE   W08
 BYTE   N04  Fs3  v100
 BYTE   W04
 BYTE   Fs3  v076
 BYTE   W04
 BYTE   Fs3  v100
 BYTE   W04
 BYTE   Fs3  v076
 BYTE   W04
 BYTE   N08  As3
 BYTE   W08
 BYTE   N04  As3  v100
 BYTE   W04
 BYTE   N04
 BYTE   W04
 BYTE   N08
 BYTE   W08
 BYTE   PEND 
// 013   ----------------------------------------
Label_3_0124D00E:
 BYTE   N08  Dn4  v100
 BYTE   W08
 BYTE   N04
 BYTE   W04
 BYTE   Dn4  v076
 BYTE   W04
 BYTE   N08  Dn4  v100
 BYTE   W08
 BYTE   Dn4  v076
 BYTE   W08
 BYTE   N04  Dn4  v100
 BYTE   W04
 BYTE   N04
 BYTE   W04
 BYTE   N08
 BYTE   W08
 BYTE   Dn4  v076
 BYTE   W08
 BYTE   N04  Dn4  v100
 BYTE   W04
 BYTE   Dn4  v076
 BYTE   W04
 BYTE   Dn4  v100
 BYTE   W04
 BYTE   Dn4  v076
 BYTE   W04
 BYTE   N08
 BYTE   W08
 BYTE   N04  Dn4  v100
 BYTE   W04
 BYTE   N04
 BYTE   W04
 BYTE   N08
 BYTE   W08
 BYTE   PEND 
// 014   ----------------------------------------
 BYTE   PATT
  POIN2 Label_3_0124D00E
// 015   ----------------------------------------
Label_3_0124D046:
 BYTE   N08  Bn3  v100
 BYTE   W08
 BYTE   N04
 BYTE   W04
 BYTE   Bn3  v076
 BYTE   W04
 BYTE   N08  Bn3  v100
 BYTE   W08
 BYTE   Bn3  v076
 BYTE   W08
 BYTE   N04  Bn3  v100
 BYTE   W04
 BYTE   N04
 BYTE   W04
 BYTE   N08
 BYTE   W08
 BYTE   Gs3  v076
 BYTE   W08
 BYTE   N04  Gs3  v100
 BYTE   W04
 BYTE   Gs3  v076
 BYTE   W04
 BYTE   Gs3  v100
 BYTE   W04
 BYTE   Gs3  v076
 BYTE   W04
 BYTE   N08
 BYTE   W08
 BYTE   N04  Gs3  v100
 BYTE   W04
 BYTE   N04
 BYTE   W04
 BYTE   N08
 BYTE   W08
 BYTE   PEND 
// 016   ----------------------------------------
Label_3_0124D079:
 BYTE   N08  An3  v100
 BYTE   W08
 BYTE   N04
 BYTE   W04
 BYTE   An3  v076
 BYTE   W04
 BYTE   N08  An3  v100
 BYTE   W08
 BYTE   An3  v076
 BYTE   W08
 BYTE   N04  An3  v100
 BYTE   W04
 BYTE   N04
 BYTE   W04
 BYTE   N08
 BYTE   W08
 BYTE   An3  v076
 BYTE   W08
 BYTE   N04  An3  v100
 BYTE   W04
 BYTE   An3  v076
 BYTE   W04
 BYTE   An3  v100
 BYTE   W04
 BYTE   An3  v076
 BYTE   W04
 BYTE   N08  Cs4
 BYTE   W08
 BYTE   N04  Cs4  v100
 BYTE   W04
 BYTE   N04
 BYTE   W04
 BYTE   N08
 BYTE   W08
 BYTE   PEND 
// 017   ----------------------------------------
 BYTE   PATT
  POIN2 Label_3_0124CEEB
// 018   ----------------------------------------
 BYTE   PATT
  POIN2 Label_3_0124CEEB
// 019   ----------------------------------------
 BYTE   PATT
  POIN2 Label_3_0124CF23
// 020   ----------------------------------------
 BYTE   PATT
  POIN2 Label_3_0124CF23
// 021   ----------------------------------------
 BYTE   PATT
  POIN2 Label_3_0124CEEB
// 022   ----------------------------------------
 BYTE   PATT
  POIN2 Label_3_0124CEEB
// 023   ----------------------------------------
 BYTE   PATT
  POIN2 Label_3_0124CF23
// 024   ----------------------------------------
 BYTE   PATT
  POIN2 Label_3_0124CF23
// 025   ----------------------------------------
 BYTE   PATT
  POIN2 Label_3_0124CEEB
// 026   ----------------------------------------
 BYTE   PATT
  POIN2 Label_3_0124CEEB
// 027   ----------------------------------------
 BYTE   PATT
  POIN2 Label_3_0124CF23
// 028   ----------------------------------------
 BYTE   PATT
  POIN2 Label_3_0124CF23
// 029   ----------------------------------------
 BYTE   PATT
  POIN2 Label_3_0124CEEB
// 030   ----------------------------------------
 BYTE   PATT
  POIN2 Label_3_0124CEEB
// 031   ----------------------------------------
 BYTE   PATT
  POIN2 Label_3_0124CF23
// 032   ----------------------------------------
 BYTE   PATT
  POIN2 Label_3_0124CF23
// 033   ----------------------------------------
 BYTE   PATT
  POIN2 Label_3_0124CF6F
// 034   ----------------------------------------
 BYTE   PATT
  POIN2 Label_3_0124CF6F
// 035   ----------------------------------------
 BYTE   PATT
  POIN2 Label_3_0124CFA7
// 036   ----------------------------------------
 BYTE   PATT
  POIN2 Label_3_0124CFDA
// 037   ----------------------------------------
 BYTE   PATT
  POIN2 Label_3_0124D00E
// 038   ----------------------------------------
 BYTE   PATT
  POIN2 Label_3_0124D00E
// 039   ----------------------------------------
 BYTE   PATT
  POIN2 Label_3_0124D046
// 040   ----------------------------------------
 BYTE   PATT
  POIN2 Label_3_0124D079
// 041   ----------------------------------------
 BYTE   PATT
  POIN2 Label_3_0124CEEB
// 042   ----------------------------------------
 BYTE   PATT
  POIN2 Label_3_0124CEEB
// 043   ----------------------------------------
 BYTE   PATT
  POIN2 Label_3_0124CF23
// 044   ----------------------------------------
 BYTE   PATT
  POIN2 Label_3_0124CF23
// 045   ----------------------------------------
 BYTE   PATT
  POIN2 Label_3_0124CEEB
// 046   ----------------------------------------
 BYTE   PATT
  POIN2 Label_3_0124CEEB
// 047   ----------------------------------------
 BYTE   PATT
  POIN2 Label_3_0124CF23
// 048   ----------------------------------------
 BYTE   N08  Cs3  v100
 BYTE   W08
 BYTE   N04
 BYTE   W04
 BYTE   Cs3  v076
 BYTE   W04
 BYTE   N08  Cs3  v100
 BYTE   W08
 BYTE   Cs3  v076
 BYTE   W08
 BYTE   N04  Cs3  v100
 BYTE   W04
 BYTE   N04
 BYTE   W04
 BYTE   N08
 BYTE   W08
 BYTE   GoTo
  POIN2 Label_3_0124CECA
 BYTE   FINE

//**************** Track 5 (Midi-Chn.4) ****************//

PokemonRSERoute113Pandan_005:
// 000   ----------------------------------------
 BYTE   KEYSH   PokemonRSERoute113Pandan_key+0
Label_4_0124D16A:
 BYTE   VOICE   28
 BYTE   VOL   25*PokemonRSERoute113Pandan_mvl/mxv
 BYTE   PAN   c_v+0
 BYTE   N08  Fs3  v076
 BYTE   W08
 BYTE   N04  Fs3  v100
 BYTE   W04
 BYTE   Fs3  v076
 BYTE   W04
 BYTE   Fs3  v100
 BYTE   W04
 BYTE   Fs3  v076
 BYTE   W04
 BYTE   N08
 BYTE   W08
 BYTE   N04  Fs3  v100
 BYTE   W04
 BYTE   N04
 BYTE   W04
 BYTE   N08
 BYTE   W08
Label_4_0124D18B:
 BYTE   N08  Bn3  v100
 BYTE   W08
 BYTE   N04
 BYTE   W04
 BYTE   Bn3  v076
 BYTE   W04
 BYTE   N08  Bn3  v100
 BYTE   W08
 BYTE   Bn3  v076
 BYTE   W08
 BYTE   N04  Bn3  v100
 BYTE   W04
 BYTE   N04
 BYTE   W04
 BYTE   N08
 BYTE   W08
// 001   ----------------------------------------
 BYTE   Bn3  v076
 BYTE   W08
 BYTE   N04  Bn3  v100
 BYTE   W04
 BYTE   Bn3  v076
 BYTE   W04
 BYTE   Bn3  v100
 BYTE   W04
 BYTE   Bn3  v076
 BYTE   W04
 BYTE   N08
 BYTE   W08
 BYTE   N04  Bn3  v100
 BYTE   W04
 BYTE   N04
 BYTE   W04
 BYTE   N08
 BYTE   W08
 BYTE   PEND 
// 002   ----------------------------------------
 BYTE   PATT
  POIN2 Label_4_0124D18B
// 003   ----------------------------------------
Label_4_0124D1C3:
 BYTE   N08  Fs3  v100
 BYTE   W08
 BYTE   N04
 BYTE   W04
 BYTE   Fs3  v076
 BYTE   W04
 BYTE   N08  Fs3  v100
 BYTE   W08
 BYTE   Fs3  v076
 BYTE   W08
 BYTE   N04  Fs3  v100
 BYTE   W04
 BYTE   N04
 BYTE   W04
 BYTE   N08
 BYTE   W08
 BYTE   Fs3  v076
 BYTE   W08
 BYTE   N04  Fs3  v100
 BYTE   W04
 BYTE   Fs3  v076
 BYTE   W04
 BYTE   Fs3  v100
 BYTE   W04
 BYTE   Fs3  v076
 BYTE   W04
 BYTE   N08
 BYTE   W08
 BYTE   N04  Fs3  v100
 BYTE   W04
 BYTE   N04
 BYTE   W04
 BYTE   N08
 BYTE   W08
 BYTE   PEND 
// 004   ----------------------------------------
 BYTE   PATT
  POIN2 Label_4_0124D1C3
// 005   ----------------------------------------
 BYTE   PATT
  POIN2 Label_4_0124D18B
// 006   ----------------------------------------
 BYTE   PATT
  POIN2 Label_4_0124D18B
// 007   ----------------------------------------
 BYTE   PATT
  POIN2 Label_4_0124D1C3
// 008   ----------------------------------------
 BYTE   PATT
  POIN2 Label_4_0124D1C3
// 009   ----------------------------------------
Label_4_0124D20F:
 BYTE   N08  An3  v100
 BYTE   W08
 BYTE   N04
 BYTE   W04
 BYTE   An3  v076
 BYTE   W04
 BYTE   N08  An3  v100
 BYTE   W08
 BYTE   An3  v076
 BYTE   W08
 BYTE   N04  An3  v100
 BYTE   W04
 BYTE   N04
 BYTE   W04
 BYTE   N08
 BYTE   W08
 BYTE   As3  v076
 BYTE   W08
 BYTE   N04  As3  v100
 BYTE   W04
 BYTE   As3  v076
 BYTE   W04
 BYTE   As3  v100
 BYTE   W04
 BYTE   As3  v076
 BYTE   W04
 BYTE   N08
 BYTE   W08
 BYTE   N04  As3  v100
 BYTE   W04
 BYTE   N04
 BYTE   W04
 BYTE   N08
 BYTE   W08
 BYTE   PEND 
// 010   ----------------------------------------
Label_4_0124D242:
 BYTE   N08  Bn3  v100
 BYTE   W08
 BYTE   N04
 BYTE   W04
 BYTE   Bn3  v076
 BYTE   W04
 BYTE   N08  Bn3  v100
 BYTE   W08
 BYTE   Bn3  v076
 BYTE   W08
 BYTE   N04  Bn3  v100
 BYTE   W04
 BYTE   N04
 BYTE   W04
 BYTE   N08
 BYTE   W08
 BYTE   Cs4  v076
 BYTE   W08
 BYTE   N04  Cs4  v100
 BYTE   W04
 BYTE   Cs4  v076
 BYTE   W04
 BYTE   Cs4  v100
 BYTE   W04
 BYTE   Cs4  v076
 BYTE   W04
 BYTE   N08  Dn4
 BYTE   W08
 BYTE   N04  Dn4  v100
 BYTE   W04
 BYTE   N04
 BYTE   W04
 BYTE   N08
 BYTE   W08
 BYTE   PEND 
// 011   ----------------------------------------
Label_4_0124D276:
 BYTE   N08  Fs4  v100
 BYTE   W08
 BYTE   N04
 BYTE   W04
 BYTE   Fs4  v076
 BYTE   W04
 BYTE   N08  Fs4  v100
 BYTE   W08
 BYTE   Fs4  v076
 BYTE   W08
 BYTE   N04  Fs4  v100
 BYTE   W04
 BYTE   N04
 BYTE   W04
 BYTE   N08
 BYTE   W08
 BYTE   Gn4  v076
 BYTE   W08
 BYTE   N04  Gn4  v100
 BYTE   W04
 BYTE   Gn4  v076
 BYTE   W04
 BYTE   Gn4  v100
 BYTE   W04
 BYTE   Gn4  v076
 BYTE   W04
 BYTE   N08
 BYTE   W08
 BYTE   N04  Gn4  v100
 BYTE   W04
 BYTE   N04
 BYTE   W04
 BYTE   N08
 BYTE   W08
 BYTE   PEND 
// 012   ----------------------------------------
Label_4_0124D2A9:
 BYTE   N08  En4  v100
 BYTE   W08
 BYTE   N04
 BYTE   W04
 BYTE   En4  v076
 BYTE   W04
 BYTE   N08  En4  v100
 BYTE   W08
 BYTE   En4  v076
 BYTE   W08
 BYTE   N04  En4  v100
 BYTE   W04
 BYTE   N04
 BYTE   W04
 BYTE   N08
 BYTE   W08
 BYTE   Cs4  v076
 BYTE   W08
 BYTE   N04  Cs4  v100
 BYTE   W04
 BYTE   Cs4  v076
 BYTE   W04
 BYTE   Cs4  v100
 BYTE   W04
 BYTE   Cs4  v076
 BYTE   W04
 BYTE   N08  Fs4
 BYTE   W08
 BYTE   N04  Fs4  v100
 BYTE   W04
 BYTE   N04
 BYTE   W04
 BYTE   N08
 BYTE   W08
 BYTE   PEND 
// 013   ----------------------------------------
Label_4_0124D2DD:
 BYTE   N08  An4  v100
 BYTE   W08
 BYTE   N04
 BYTE   W04
 BYTE   An4  v076
 BYTE   W04
 BYTE   N08  An4  v100
 BYTE   W08
 BYTE   An4  v076
 BYTE   W08
 BYTE   N04  An4  v100
 BYTE   W04
 BYTE   N04
 BYTE   W04
 BYTE   N08
 BYTE   W08
 BYTE   As4  v076
 BYTE   W08
 BYTE   N04  As4  v100
 BYTE   W04
 BYTE   As4  v076
 BYTE   W04
 BYTE   As4  v100
 BYTE   W04
 BYTE   As4  v076
 BYTE   W04
 BYTE   N08
 BYTE   W08
 BYTE   N04  As4  v100
 BYTE   W04
 BYTE   N04
 BYTE   W04
 BYTE   N08
 BYTE   W08
 BYTE   PEND 
// 014   ----------------------------------------
Label_4_0124D310:
 BYTE   N08  Bn4  v100
 BYTE   W08
 BYTE   N04
 BYTE   W04
 BYTE   Bn4  v076
 BYTE   W04
 BYTE   N08  Bn4  v100
 BYTE   W08
 BYTE   Bn4  v076
 BYTE   W08
 BYTE   N04  Bn4  v100
 BYTE   W04
 BYTE   N04
 BYTE   W04
 BYTE   N08
 BYTE   W08
 BYTE   Cs5  v076
 BYTE   W08
 BYTE   N04  Cs5  v100
 BYTE   W04
 BYTE   Cs5  v076
 BYTE   W04
 BYTE   Cs5  v100
 BYTE   W04
 BYTE   Cs5  v076
 BYTE   W04
 BYTE   N08  Bn4
 BYTE   W08
 BYTE   N04  Bn4  v100
 BYTE   W04
 BYTE   N04
 BYTE   W04
 BYTE   N08
 BYTE   W08
 BYTE   PEND 
// 015   ----------------------------------------
Label_4_0124D344:
 BYTE   N08  Fs4  v100
 BYTE   W08
 BYTE   N04
 BYTE   W04
 BYTE   Fs4  v076
 BYTE   W04
 BYTE   N08  Fs4  v100
 BYTE   W08
 BYTE   Fs4  v076
 BYTE   W08
 BYTE   N04  Fs4  v100
 BYTE   W04
 BYTE   N04
 BYTE   W04
 BYTE   N08
 BYTE   W08
 BYTE   Dn4  v076
 BYTE   W08
 BYTE   N04  Dn4  v100
 BYTE   W04
 BYTE   Dn4  v076
 BYTE   W04
 BYTE   Dn4  v100
 BYTE   W04
 BYTE   Dn4  v076
 BYTE   W04
 BYTE   N08
 BYTE   W08
 BYTE   N04  Dn4  v100
 BYTE   W04
 BYTE   N04
 BYTE   W04
 BYTE   N08
 BYTE   W08
 BYTE   PEND 
// 016   ----------------------------------------
Label_4_0124D377:
 BYTE   N08  Cs4  v100
 BYTE   W08
 BYTE   N04
 BYTE   W04
 BYTE   Cs4  v076
 BYTE   W04
 BYTE   N08  Cs4  v100
 BYTE   W08
 BYTE   Cs4  v076
 BYTE   W08
 BYTE   N04  Cs4  v100
 BYTE   W04
 BYTE   N04
 BYTE   W04
 BYTE   N08
 BYTE   W08
 BYTE   En4  v076
 BYTE   W08
 BYTE   N04  En4  v100
 BYTE   W04
 BYTE   En4  v076
 BYTE   W04
 BYTE   En4  v100
 BYTE   W04
 BYTE   En4  v076
 BYTE   W04
 BYTE   N08  Gn4
 BYTE   W08
 BYTE   N04  Gn4  v100
 BYTE   W04
 BYTE   N04
 BYTE   W04
 BYTE   N08
 BYTE   W08
 BYTE   PEND 
// 017   ----------------------------------------
 BYTE   PATT
  POIN2 Label_4_0124D18B
// 018   ----------------------------------------
 BYTE   PATT
  POIN2 Label_4_0124D18B
// 019   ----------------------------------------
 BYTE   PATT
  POIN2 Label_4_0124D1C3
// 020   ----------------------------------------
 BYTE   PATT
  POIN2 Label_4_0124D1C3
// 021   ----------------------------------------
 BYTE   PATT
  POIN2 Label_4_0124D18B
// 022   ----------------------------------------
 BYTE   PATT
  POIN2 Label_4_0124D18B
// 023   ----------------------------------------
 BYTE   PATT
  POIN2 Label_4_0124D1C3
// 024   ----------------------------------------
 BYTE   PATT
  POIN2 Label_4_0124D1C3
// 025   ----------------------------------------
 BYTE   PATT
  POIN2 Label_4_0124D18B
// 026   ----------------------------------------
 BYTE   PATT
  POIN2 Label_4_0124D18B
// 027   ----------------------------------------
 BYTE   PATT
  POIN2 Label_4_0124D1C3
// 028   ----------------------------------------
 BYTE   PATT
  POIN2 Label_4_0124D1C3
// 029   ----------------------------------------
 BYTE   PATT
  POIN2 Label_4_0124D18B
// 030   ----------------------------------------
 BYTE   PATT
  POIN2 Label_4_0124D18B
// 031   ----------------------------------------
 BYTE   PATT
  POIN2 Label_4_0124D1C3
// 032   ----------------------------------------
 BYTE   PATT
  POIN2 Label_4_0124D1C3
// 033   ----------------------------------------
 BYTE   PATT
  POIN2 Label_4_0124D20F
// 034   ----------------------------------------
 BYTE   PATT
  POIN2 Label_4_0124D242
// 035   ----------------------------------------
 BYTE   PATT
  POIN2 Label_4_0124D276
// 036   ----------------------------------------
 BYTE   PATT
  POIN2 Label_4_0124D2A9
// 037   ----------------------------------------
 BYTE   PATT
  POIN2 Label_4_0124D2DD
// 038   ----------------------------------------
 BYTE   PATT
  POIN2 Label_4_0124D310
// 039   ----------------------------------------
 BYTE   PATT
  POIN2 Label_4_0124D344
// 040   ----------------------------------------
 BYTE   PATT
  POIN2 Label_4_0124D377
// 041   ----------------------------------------
 BYTE   PATT
  POIN2 Label_4_0124D18B
// 042   ----------------------------------------
 BYTE   PATT
  POIN2 Label_4_0124D18B
// 043   ----------------------------------------
 BYTE   PATT
  POIN2 Label_4_0124D1C3
// 044   ----------------------------------------
 BYTE   PATT
  POIN2 Label_4_0124D1C3
// 045   ----------------------------------------
 BYTE   PATT
  POIN2 Label_4_0124D18B
// 046   ----------------------------------------
 BYTE   PATT
  POIN2 Label_4_0124D18B
// 047   ----------------------------------------
 BYTE   PATT
  POIN2 Label_4_0124D1C3
// 048   ----------------------------------------
 BYTE   N08  Fs3  v100
 BYTE   W08
 BYTE   N04
 BYTE   W04
 BYTE   Fs3  v076
 BYTE   W04
 BYTE   N08  Fs3  v100
 BYTE   W08
 BYTE   Fs3  v076
 BYTE   W08
 BYTE   N04  Fs3  v100
 BYTE   W04
 BYTE   N04
 BYTE   W04
 BYTE   N08
 BYTE   W08
 BYTE   GoTo
  POIN2 Label_4_0124D16A
 BYTE   FINE

//**************** Track 6 (Midi-Chn.5) ****************//

PokemonRSERoute113Pandan_006:
// 000   ----------------------------------------
 BYTE   KEYSH   PokemonRSERoute113Pandan_key+0
Label_5_0124D466:
 BYTE   VOICE   74
 BYTE   VOL   30*PokemonRSERoute113Pandan_mvl/mxv
 BYTE   PAN   c_v+0
 BYTE   W36
 BYTE   VOL   92*PokemonRSERoute113Pandan_mvl/mxv
 BYTE   W04
 BYTE   N04  Fs3  v100
 BYTE   W04
 BYTE   Bn3
 BYTE   W04
Label_5_0124D476:
 BYTE   N24  Dn4  v100
 BYTE   W24
 BYTE   N16  Cs4
 BYTE   W16
 BYTE   N08  An3
 BYTE   W08
// 001   ----------------------------------------
 BYTE   N16  Bn3
 BYTE   W16
 BYTE   N08  Dn3
 BYTE   W08
 BYTE   N24  Gn3
 BYTE   W24
 BYTE   PEND 
Label_5_0124D48A:
 BYTE   N08  Dn4  v100
 BYTE   W08
 BYTE   N04  Cs4
 BYTE   W08
 BYTE   N08  An3
 BYTE   W08
 BYTE   N16  Bn3
 BYTE   W16
 BYTE   N08  Dn3
 BYTE   W08
// 002   ----------------------------------------
 BYTE   N40  Gn3
 BYTE   W40
 BYTE   N04  Bn3
 BYTE   W04
 BYTE   Cs4
 BYTE   W04
 BYTE   PEND 
 BYTE   W96
// 003   ----------------------------------------
Label_5_0124D4A4:
 BYTE   W88
 BYTE   N04  En4  v100
 BYTE   W04
 BYTE   Ds4
 BYTE   W04
 BYTE   PEND 
// 004   ----------------------------------------
Label_5_0124D4AC:
 BYTE   N24  Dn4  v100
 BYTE   W24
 BYTE   N16  Cs4
 BYTE   W16
 BYTE   N08  An3
 BYTE   W08
 BYTE   N16  Gn4
 BYTE   W16
 BYTE   N08  Dn3
 BYTE   W08
 BYTE   N16  Gn3
 BYTE   W16
 BYTE   N04  Gn4
 BYTE   W04
 BYTE   Fs4
 BYTE   W04
 BYTE   PEND 
// 005   ----------------------------------------
Label_5_0124D4C5:
 BYTE   N08  Dn4  v100
 BYTE   W08
 BYTE   N04  Cs4
 BYTE   W08
 BYTE   N08  An3
 BYTE   W08
 BYTE   N16  Cs4
 BYTE   W16
 BYTE   N08  Dn3
 BYTE   W08
 BYTE   Gn4
 BYTE   W08
 BYTE   Dn4
 BYTE   W08
 BYTE   Gn3
 BYTE   W08
 BYTE   Bn3
 BYTE   W08
 BYTE   Dn3
 BYTE   W08
 BYTE   N04  Bn3
 BYTE   W04
 BYTE   Cs4
 BYTE   W04
 BYTE   PEND 
// 006   ----------------------------------------
 BYTE   W96
// 007   ----------------------------------------
Label_5_0124D4E6:
 BYTE   W88
 BYTE   N04  An3  v100
 BYTE   W04
 BYTE   As3
 BYTE   W04
 BYTE   PEND 
// 008   ----------------------------------------
Label_5_0124D4EE:
 BYTE   N16  Bn3  v100
 BYTE   W16
 BYTE   N04  Cs4
 BYTE   W08
 BYTE   N16  Dn4
 BYTE   W16
 BYTE   N04  Bn3
 BYTE   W08
 BYTE   N16  Cs4
 BYTE   W16
 BYTE   N04  Dn4
 BYTE   W08
 BYTE   N16  En4
 BYTE   W16
 BYTE   N04  Cs4
 BYTE   W08
 BYTE   PEND 
// 009   ----------------------------------------
Label_5_0124D508:
 BYTE   N04  Dn4  v100
 BYTE   W08
 BYTE   En4
 BYTE   W08
 BYTE   Fs4
 BYTE   W08
 BYTE   Gn4
 BYTE   W04
 BYTE   Fs4
 BYTE   W04
 BYTE   Fn4
 BYTE   W08
 BYTE   Fs4
 BYTE   W08
 BYTE   N08  Bn4
 BYTE   W08
 BYTE   N04  Fs4
 BYTE   W08
 BYTE   En4
 BYTE   W08
 BYTE   N16  Dn4
 BYTE   W16
 BYTE   N04  Cs4
 BYTE   W08
 BYTE   PEND 
// 010   ----------------------------------------
Label_5_0124D527:
 BYTE   N16  Dn4  v100
 BYTE   W16
 BYTE   N04  Bn3
 BYTE   W08
 BYTE   N16  Cs4
 BYTE   W16
 BYTE   N04  Dn4
 BYTE   W06
 BYTE   N02  Fs4
 BYTE   W02
 BYTE   N16  En4
 BYTE   W16
 BYTE   N04  Cs4
 BYTE   W08
 BYTE   N16  Dn4
 BYTE   W16
 BYTE   N04  En4
 BYTE   W08
 BYTE   PEND 
// 011   ----------------------------------------
Label_5_0124D544:
 BYTE   N04  Fs4  v100
 BYTE   W08
 BYTE   Gn4
 BYTE   W04
 BYTE   Fs4
 BYTE   W04
 BYTE   N08  Fn4
 BYTE   W08
 BYTE   N04  Fs4
 BYTE   W08
 BYTE   Fn4
 BYTE   W08
 BYTE   Fs4
 BYTE   W08
 BYTE   N08  As4
 BYTE   W08
 BYTE   N04  Fs4
 BYTE   W08
 BYTE   N08  En4
 BYTE   W08
 BYTE   Fs4
 BYTE   W08
 BYTE   Dn4
 BYTE   W08
 BYTE   N04  Cs4
 BYTE   W04
 BYTE   Cn4
 BYTE   W04
 BYTE   PEND 
// 012   ----------------------------------------
Label_5_0124D569:
 BYTE   N16  Bn3  v100
 BYTE   W16
 BYTE   N04  Cs4
 BYTE   W06
 BYTE   N02  En4
 BYTE   W02
 BYTE   N16  Dn4
 BYTE   W16
 BYTE   N04  Bn3
 BYTE   W08
 BYTE   N16  Cs4
 BYTE   W16
 BYTE   N04  Dn4
 BYTE   W08
 BYTE   N16  En4
 BYTE   W16
 BYTE   N04  Cs4
 BYTE   W08
 BYTE   PEND 
// 013   ----------------------------------------
Label_5_0124D586:
 BYTE   N04  Dn4  v100
 BYTE   W08
 BYTE   En4
 BYTE   W08
 BYTE   Fs4
 BYTE   W08
 BYTE   Gn4
 BYTE   W04
 BYTE   Fs4
 BYTE   W04
 BYTE   Fn4
 BYTE   W08
 BYTE   Fs4
 BYTE   W08
 BYTE   N08  Gs4
 BYTE   W08
 BYTE   N04  Fs4
 BYTE   W08
 BYTE   En4
 BYTE   W08
 BYTE   N12  Bn3
 BYTE   W12
 BYTE   N04  Cs4
 BYTE   W04
 BYTE   Dn4
 BYTE   W04
 BYTE   En4
 BYTE   W04
 BYTE   PEND 
// 014   ----------------------------------------
Label_5_0124D5A9:
 BYTE   N16  Gn4  v100
 BYTE   W16
 BYTE   N04  An4
 BYTE   W08
 BYTE   N16  Gn4
 BYTE   W16
 BYTE   N04  Fs4
 BYTE   W08
 BYTE   N16  En4
 BYTE   W16
 BYTE   N04  Bn3
 BYTE   W08
 BYTE   N16  Cs4
 BYTE   W16
 BYTE   N04  Dn4
 BYTE   W06
 BYTE   N02  Fs4
 BYTE   W02
 BYTE   PEND 
// 015   ----------------------------------------
Label_5_0124D5C6:
 BYTE   N04  En4  v100
 BYTE   W08
 BYTE   N08
 BYTE   W08
 BYTE   N04  Ds4
 BYTE   W08
 BYTE   En4
 BYTE   W08
 BYTE   Ds4
 BYTE   W08
 BYTE   En4
 BYTE   W06
 BYTE   N02  Fs4
 BYTE   W02
 BYTE   N16  Gn4
 BYTE   W16
 BYTE   N04  Fs4
 BYTE   W08
 BYTE   N16  En4
 BYTE   W16
 BYTE   N04  Fs3
 BYTE   W04
 BYTE   Bn3
 BYTE   W04
 BYTE   PEND 
// 016   ----------------------------------------
Label_5_0124D5E7:
 BYTE   N02  En4  v100
 BYTE   W02
 BYTE   N22  Dn4
 BYTE   W22
 BYTE   N16  Cs4
 BYTE   W16
 BYTE   N08  An3
 BYTE   W08
 BYTE   N16  Bn3
 BYTE   W16
 BYTE   N08  Dn3
 BYTE   W08
 BYTE   N22  Gn3
 BYTE   W22
 BYTE   N02  En4
 BYTE   W02
 BYTE   PEND 
// 017   ----------------------------------------
 BYTE   PATT
  POIN2 Label_5_0124D48A
// 018   ----------------------------------------
 BYTE   N48  An3  v100
 BYTE   W96
// 019   ----------------------------------------
 BYTE   PATT
  POIN2 Label_5_0124D4A4
// 020   ----------------------------------------
Label_5_0124D60F:
 BYTE   N02  En4  v100
 BYTE   W02
 BYTE   N22  Dn4
 BYTE   W22
 BYTE   N16  Cs4
 BYTE   W16
 BYTE   N08  An3
 BYTE   W08
 BYTE   N02  Gs4
 BYTE   W02
 BYTE   N14  Gn4
 BYTE   W14
 BYTE   N08  Dn3
 BYTE   W08
 BYTE   N16  Gn3
 BYTE   W16
 BYTE   N04  Gn4
 BYTE   W04
 BYTE   Fs4
 BYTE   W04
 BYTE   PEND 
// 021   ----------------------------------------
Label_5_0124D62E:
 BYTE   N02  Cs4  v100
 BYTE   W02
 BYTE   N06  Dn4
 BYTE   W06
 BYTE   N04  Cs4
 BYTE   W08
 BYTE   N08  An3
 BYTE   W08
 BYTE   N16  Cs4
 BYTE   W16
 BYTE   N08  Dn3
 BYTE   W08
 BYTE   N02  Gs4
 BYTE   W02
 BYTE   N06  Gn4
 BYTE   W06
 BYTE   N08  Dn4
 BYTE   W08
 BYTE   Gn3
 BYTE   W08
 BYTE   Bn3
 BYTE   W08
 BYTE   Dn3
 BYTE   W08
 BYTE   N04  Bn3
 BYTE   W04
 BYTE   Cs4
 BYTE   W04
 BYTE   PEND 
// 022   ----------------------------------------
Label_5_0124D656:
 BYTE   N02  As3  v100
 BYTE   W02
 BYTE   N44  An3
 BYTE   W92
 BYTE   W02
 BYTE   PEND 
// 023   ----------------------------------------
 BYTE   W88
 BYTE   N04  Fs3
 BYTE   W04
 BYTE   Bn3
 BYTE   W04
// 024   ----------------------------------------
 BYTE   PATT
  POIN2 Label_5_0124D476
// 025   ----------------------------------------
 BYTE   PATT
  POIN2 Label_5_0124D48A
// 026   ----------------------------------------
 BYTE   W96
// 027   ----------------------------------------
 BYTE   PATT
  POIN2 Label_5_0124D4A4
// 028   ----------------------------------------
 BYTE   PATT
  POIN2 Label_5_0124D4AC
// 029   ----------------------------------------
 BYTE   PATT
  POIN2 Label_5_0124D4C5
// 030   ----------------------------------------
 BYTE   W96
// 031   ----------------------------------------
 BYTE   PATT
  POIN2 Label_5_0124D4E6
// 032   ----------------------------------------
 BYTE   PATT
  POIN2 Label_5_0124D4EE
// 033   ----------------------------------------
 BYTE   PATT
  POIN2 Label_5_0124D508
// 034   ----------------------------------------
 BYTE   PATT
  POIN2 Label_5_0124D527
// 035   ----------------------------------------
 BYTE   PATT
  POIN2 Label_5_0124D544
// 036   ----------------------------------------
 BYTE   PATT
  POIN2 Label_5_0124D569
// 037   ----------------------------------------
 BYTE   PATT
  POIN2 Label_5_0124D586
// 038   ----------------------------------------
 BYTE   PATT
  POIN2 Label_5_0124D5A9
// 039   ----------------------------------------
 BYTE   PATT
  POIN2 Label_5_0124D5C6
// 040   ----------------------------------------
 BYTE   PATT
  POIN2 Label_5_0124D5E7
// 041   ----------------------------------------
 BYTE   PATT
  POIN2 Label_5_0124D48A
// 042   ----------------------------------------
 BYTE   N48  An3  v100
 BYTE   W96
// 043   ----------------------------------------
 BYTE   PATT
  POIN2 Label_5_0124D4A4
// 044   ----------------------------------------
 BYTE   PATT
  POIN2 Label_5_0124D60F
// 045   ----------------------------------------
 BYTE   PATT
  POIN2 Label_5_0124D62E
// 046   ----------------------------------------
 BYTE   PATT
  POIN2 Label_5_0124D656
// 047   ----------------------------------------
 BYTE   W48
 BYTE   GoTo
  POIN2 Label_5_0124D466
 BYTE   FINE

//**************** Track 7 (Midi-Chn.6) ****************//

PokemonRSERoute113Pandan_007:
// 000   ----------------------------------------
 BYTE   KEYSH   PokemonRSERoute113Pandan_key+0
Label_6_0124D6DA:
 BYTE   VOICE   121
 BYTE   VOL   15*PokemonRSERoute113Pandan_mvl/mxv
 BYTE   PAN   c_v+0
 BYTE   VOL   15*PokemonRSERoute113Pandan_mvl/mxv
 BYTE   PAN   c_v+0
 BYTE   N04  Cn1  v100
 BYTE   N04  As1
 BYTE   W04
 BYTE   Gs1
 BYTE   W04
 BYTE   Fs1
 BYTE   W04
 BYTE   Cn1
 BYTE   N04  Gs1
 BYTE   W04
 BYTE   Cn1
 BYTE   N04  Fs1
 BYTE   W04
 BYTE   Gs1
 BYTE   W04
 BYTE   Dn1
 BYTE   N04  As1
 BYTE   W04
 BYTE   Dn1  v080
 BYTE   N04  Gs1  v100
 BYTE   W04
 BYTE   Dn1  v060
 BYTE   N04  Fs1  v100
 BYTE   W04
 BYTE   Dn1  v040
 BYTE   N04  Gs1  v100
 BYTE   W04
 BYTE   Dn1
 BYTE   N04  Fs1
 BYTE   W04
 BYTE   Dn1  v080
 BYTE   N04  Gs1  v100
 BYTE   W04
 BYTE   VOL   77*PokemonRSERoute113Pandan_mvl/mxv
 BYTE   N04  Cn1
 BYTE   N04  As1
 BYTE   W04
 BYTE   Gs1
 BYTE   W04
 BYTE   Fs1
 BYTE   W04
 BYTE   Gs1
 BYTE   W04
 BYTE   Cn1
 BYTE   N04  Fs1
 BYTE   W04
 BYTE   Gs1
 BYTE   W04
 BYTE   Dn1
 BYTE   N04  As1
 BYTE   W04
 BYTE   Dn1  v080
 BYTE   N04  Gs1  v100
 BYTE   W04
 BYTE   Dn1  v060
 BYTE   N04  Fs1  v100
 BYTE   W04
 BYTE   Dn1  v040
 BYTE   N04  Gs1  v100
 BYTE   W04
 BYTE   Cn1
 BYTE   N04  Fs1
 BYTE   W04
 BYTE   Gs1
 BYTE   W04
// 001   ----------------------------------------
 BYTE   Cn1
 BYTE   N04  As1
 BYTE   W04
 BYTE   Gs1
 BYTE   W04
 BYTE   Fs1
 BYTE   W04
 BYTE   Gs1
 BYTE   W04
 BYTE   Cn1
 BYTE   N04  Fs1
 BYTE   W04
 BYTE   Gs1
 BYTE   W04
 BYTE   Dn1
 BYTE   N04  As1
 BYTE   W04
 BYTE   Dn1  v080
 BYTE   N04  Gs1  v100
 BYTE   W04
 BYTE   Dn1  v060
 BYTE   N04  Fs1  v100
 BYTE   W04
 BYTE   Dn1  v040
 BYTE   N04  Gs1  v100
 BYTE   W04
 BYTE   Fs1
 BYTE   W04
 BYTE   Gs1
 BYTE   W04
Label_6_0124D771:
 BYTE   N04  Cn1  v100
 BYTE   N04  As1
 BYTE   W04
 BYTE   Gs1
 BYTE   W04
 BYTE   Fs1
 BYTE   W04
 BYTE   Cn1
 BYTE   N04  Gs1
 BYTE   W04
 BYTE   Cn1
 BYTE   N04  Fs1
 BYTE   W04
 BYTE   Gs1
 BYTE   W04
 BYTE   Dn1
 BYTE   N04  As1
 BYTE   W04
 BYTE   Dn1  v080
 BYTE   N04  Gs1  v100
 BYTE   W04
 BYTE   Dn1  v060
 BYTE   N04  Fs1  v100
 BYTE   W04
 BYTE   Dn1  v040
 BYTE   N04  Gs1  v100
 BYTE   W04
 BYTE   Cn1
 BYTE   N04  Fs1
 BYTE   W04
 BYTE   Gs1
 BYTE   W04
// 002   ----------------------------------------
 BYTE   Cn1
 BYTE   N04  As1
 BYTE   W04
 BYTE   Gs1
 BYTE   W04
 BYTE   Fs1
 BYTE   W04
 BYTE   Gs1
 BYTE   W04
 BYTE   Cn1
 BYTE   N04  Fs1
 BYTE   W04
 BYTE   Gs1
 BYTE   W04
 BYTE   Dn1
 BYTE   N04  As1
 BYTE   W04
 BYTE   Dn1  v080
 BYTE   N04  Gs1  v100
 BYTE   W04
 BYTE   Dn1  v060
 BYTE   N04  Fs1  v100
 BYTE   W04
 BYTE   Dn1  v040
 BYTE   N04  Gs1  v100
 BYTE   W04
 BYTE   Fs1
 BYTE   W04
 BYTE   Gs1
 BYTE   W04
 BYTE   PEND 
Label_6_0124D7CC:
 BYTE   N04  Cn1  v100
 BYTE   N04  As1
 BYTE   W04
 BYTE   Gs1
 BYTE   W04
 BYTE   Fs1
 BYTE   W04
 BYTE   Gs1
 BYTE   W04
 BYTE   Cn1
 BYTE   N04  Fs1
 BYTE   W04
 BYTE   Gs1
 BYTE   W04
 BYTE   Dn1
 BYTE   N04  As1
 BYTE   W04
 BYTE   Dn1  v080
 BYTE   N04  Gs1  v100
 BYTE   W04
 BYTE   Dn1  v060
 BYTE   N04  Fs1  v100
 BYTE   W04
 BYTE   Dn1  v040
 BYTE   N04  Gs1  v100
 BYTE   W04
 BYTE   Cn1
 BYTE   N04  Fs1
 BYTE   W04
 BYTE   Gs1
 BYTE   W04
// 003   ----------------------------------------
 BYTE   Cn1
 BYTE   N04  As1
 BYTE   W04
 BYTE   Gs1
 BYTE   W04
 BYTE   Fs1
 BYTE   W04
 BYTE   Cn1
 BYTE   N04  Gs1
 BYTE   W04
 BYTE   Cn1
 BYTE   N04  Fs1
 BYTE   W04
 BYTE   Gs1
 BYTE   W04
 BYTE   Dn1
 BYTE   N04  As1
 BYTE   W04
 BYTE   Dn1  v080
 BYTE   N04  Gs1  v100
 BYTE   W04
 BYTE   Dn1  v060
 BYTE   N04  Fs1  v100
 BYTE   W04
 BYTE   Dn1  v040
 BYTE   N04  Gs1  v100
 BYTE   W04
 BYTE   Fs1
 BYTE   W04
 BYTE   Gs1
 BYTE   W04
 BYTE   PEND 
// 004   ----------------------------------------
 BYTE   PATT
  POIN2 Label_6_0124D7CC
// 005   ----------------------------------------
Label_6_0124D82C:
 BYTE   N04  Cn1  v100
 BYTE   N04  As1
 BYTE   W04
 BYTE   Gs1
 BYTE   W04
 BYTE   Fs1
 BYTE   W04
 BYTE   Gs1
 BYTE   W04
 BYTE   Cn1
 BYTE   N04  Fs1
 BYTE   W04
 BYTE   Gs1
 BYTE   W04
 BYTE   Dn1
 BYTE   N04  As1
 BYTE   W04
 BYTE   Dn1  v080
 BYTE   N04  Gs1  v100
 BYTE   W04
 BYTE   Dn1  v060
 BYTE   N04  Fs1  v100
 BYTE   W04
 BYTE   Dn1  v040
 BYTE   N04  Gs1  v100
 BYTE   W04
 BYTE   Cn1
 BYTE   N04  Fs1
 BYTE   W04
 BYTE   Gs1
 BYTE   W04
 BYTE   Cn1
 BYTE   N04  As1
 BYTE   W04
 BYTE   Gs1
 BYTE   W04
 BYTE   Fs1
 BYTE   W04
 BYTE   Gs1
 BYTE   W04
 BYTE   Cn1
 BYTE   N04  Fs1
 BYTE   W04
 BYTE   Gs1
 BYTE   W04
 BYTE   Dn1
 BYTE   N04  As1
 BYTE   W04
 BYTE   Dn1  v080
 BYTE   N04  Gs1  v100
 BYTE   W04
 BYTE   Dn1  v060
 BYTE   N04  Fs1  v100
 BYTE   W04
 BYTE   Dn1  v040
 BYTE   N04  Gs1  v100
 BYTE   W04
 BYTE   Fs1
 BYTE   W04
 BYTE   Gs1
 BYTE   W04
 BYTE   PEND 
// 006   ----------------------------------------
 BYTE   PATT
  POIN2 Label_6_0124D771
// 007   ----------------------------------------
 BYTE   PATT
  POIN2 Label_6_0124D7CC
// 008   ----------------------------------------
Label_6_0124D88F:
 BYTE   N04  Cn1  v100
 BYTE   N04  As1
 BYTE   W04
 BYTE   Gs1
 BYTE   W04
 BYTE   Fs1
 BYTE   W04
 BYTE   Gs1
 BYTE   W04
 BYTE   Cn1
 BYTE   N04  Fs1
 BYTE   W04
 BYTE   Gs1
 BYTE   W04
 BYTE   Dn1
 BYTE   N04  As1
 BYTE   W04
 BYTE   Dn1  v080
 BYTE   N04  Gs1  v100
 BYTE   W04
 BYTE   Dn1  v060
 BYTE   N04  Fs1  v100
 BYTE   W04
 BYTE   Dn1  v040
 BYTE   N04  Gs1  v100
 BYTE   W04
 BYTE   Cn1
 BYTE   N04  Fs1
 BYTE   W04
 BYTE   Gs1
 BYTE   W04
 BYTE   Cn1
 BYTE   N04  As1
 BYTE   W04
 BYTE   Gs1
 BYTE   W04
 BYTE   Fs1
 BYTE   W04
 BYTE   Cn1
 BYTE   N04  Gs1
 BYTE   W04
 BYTE   Cn1
 BYTE   N04  Fs1
 BYTE   W04
 BYTE   Gs1
 BYTE   W04
 BYTE   Dn1
 BYTE   N04  As1
 BYTE   W04
 BYTE   Dn1  v080
 BYTE   N04  Gs1  v100
 BYTE   W04
 BYTE   Dn1  v060
 BYTE   N04  Fs1  v100
 BYTE   W04
 BYTE   Dn1  v040
 BYTE   N04  Gs1  v100
 BYTE   W04
 BYTE   Dn1
 BYTE   N04  Fs1
 BYTE   W04
 BYTE   Dn1  v080
 BYTE   N04  Gs1  v100
 BYTE   W04
 BYTE   PEND 
// 009   ----------------------------------------
 BYTE   PATT
  POIN2 Label_6_0124D82C
// 010   ----------------------------------------
 BYTE   PATT
  POIN2 Label_6_0124D771
// 011   ----------------------------------------
 BYTE   PATT
  POIN2 Label_6_0124D7CC
// 012   ----------------------------------------
 BYTE   PATT
  POIN2 Label_6_0124D7CC
// 013   ----------------------------------------
 BYTE   PATT
  POIN2 Label_6_0124D82C
// 014   ----------------------------------------
 BYTE   PATT
  POIN2 Label_6_0124D771
// 015   ----------------------------------------
 BYTE   PATT
  POIN2 Label_6_0124D7CC
// 016   ----------------------------------------
 BYTE   PATT
  POIN2 Label_6_0124D7CC
// 017   ----------------------------------------
Label_6_0124D918:
 BYTE   N04  Cn1  v100
 BYTE   N04  As1
 BYTE   W04
 BYTE   Gs1
 BYTE   W04
 BYTE   Fs1
 BYTE   W04
 BYTE   Cn1
 BYTE   N04  Gs1
 BYTE   W04
 BYTE   Cn1
 BYTE   N04  Fs1
 BYTE   W04
 BYTE   Gs1
 BYTE   W04
 BYTE   Dn1
 BYTE   N04  As1
 BYTE   W04
 BYTE   Dn1  v080
 BYTE   N04  Gs1  v100
 BYTE   W04
 BYTE   Dn1  v060
 BYTE   N04  Fs1  v100
 BYTE   W04
 BYTE   Dn1  v040
 BYTE   N04  Gs1  v100
 BYTE   W04
 BYTE   Dn1
 BYTE   N04  Fs1
 BYTE   W04
 BYTE   Dn1  v080
 BYTE   N04  Gs1  v100
 BYTE   W04
 BYTE   Dn1  v060
 BYTE   N04  As1  v100
 BYTE   W04
 BYTE   Dn1  v040
 BYTE   N04  Gs1  v100
 BYTE   W04
 BYTE   Dn1
 BYTE   N04  Fs1
 BYTE   W04
 BYTE   Dn1  v080
 BYTE   N04  Gs1  v100
 BYTE   W04
 BYTE   Dn1  v060
 BYTE   N04  Fs1  v100
 BYTE   W04
 BYTE   Dn1  v040
 BYTE   N04  Gs1  v100
 BYTE   W04
 BYTE   Dn1
 BYTE   N04  As1
 BYTE   W04
 BYTE   Dn1  v080
 BYTE   N04  Gs1  v100
 BYTE   W04
 BYTE   Dn1  v060
 BYTE   N04  Fs1  v100
 BYTE   W04
 BYTE   Dn1  v040
 BYTE   N04  Gs1  v100
 BYTE   W04
 BYTE   Fs1
 BYTE   W04
 BYTE   Gs1
 BYTE   W04
 BYTE   PEND 
// 018   ----------------------------------------
Label_6_0124D989:
 BYTE   N04  Cn1  v100
 BYTE   N04  As1
 BYTE   W04
 BYTE   Gs1
 BYTE   W04
 BYTE   Fs1
 BYTE   W04
 BYTE   Cn1
 BYTE   N04  Gs1
 BYTE   W04
 BYTE   Cn1
 BYTE   N04  Fs1
 BYTE   W04
 BYTE   Gs1
 BYTE   W04
 BYTE   Dn1
 BYTE   N04  As1
 BYTE   W04
 BYTE   Dn1  v080
 BYTE   N04  Gs1  v100
 BYTE   W04
 BYTE   Dn1  v060
 BYTE   N04  Fs1  v100
 BYTE   W04
 BYTE   Dn1  v040
 BYTE   N04  Gs1  v100
 BYTE   W04
 BYTE   Dn1
 BYTE   N04  Fs1
 BYTE   W04
 BYTE   Dn1  v080
 BYTE   N04  Gs1  v100
 BYTE   W04
 BYTE   Dn1  v060
 BYTE   N04  As1  v100
 BYTE   W04
 BYTE   Dn1  v040
 BYTE   N04  Gs1  v100
 BYTE   W04
 BYTE   Fs1
 BYTE   W04
 BYTE   Gs1
 BYTE   W04
 BYTE   Cn1
 BYTE   N04  Fs1
 BYTE   W04
 BYTE   Gs1
 BYTE   W04
 BYTE   Dn1
 BYTE   N04  As1
 BYTE   W04
 BYTE   Dn1  v080
 BYTE   N04  Gs1  v100
 BYTE   W04
 BYTE   Dn1  v060
 BYTE   N04  Fs1  v100
 BYTE   W04
 BYTE   Dn1  v040
 BYTE   N04  Gs1  v100
 BYTE   W04
 BYTE   Fs1
 BYTE   W04
 BYTE   Gs1
 BYTE   W04
 BYTE   PEND 
// 019   ----------------------------------------
Label_6_0124D9EE:
 BYTE   N04  Cn1  v100
 BYTE   N04  As1
 BYTE   W04
 BYTE   Gs1
 BYTE   W04
 BYTE   Fs1
 BYTE   W04
 BYTE   Gs1
 BYTE   W04
 BYTE   Cn1
 BYTE   N04  Fs1
 BYTE   W04
 BYTE   Gs1
 BYTE   W04
 BYTE   Dn1
 BYTE   N04  As1
 BYTE   W04
 BYTE   Dn1  v080
 BYTE   N04  Gs1  v100
 BYTE   W04
 BYTE   Dn1  v060
 BYTE   N04  Fs1  v100
 BYTE   W04
 BYTE   Dn1  v040
 BYTE   N04  Gs1  v100
 BYTE   W04
 BYTE   Cn1
 BYTE   N04  Fs1
 BYTE   W04
 BYTE   Gs1
 BYTE   W04
 BYTE   Cn1
 BYTE   N04  As1
 BYTE   W04
 BYTE   Gs1
 BYTE   W04
 BYTE   Cn1
 BYTE   N04  Fs1
 BYTE   W04
 BYTE   Cn1
 BYTE   N04  Gs1
 BYTE   W04
 BYTE   Dn1
 BYTE   N04  Fs1
 BYTE   W04
 BYTE   Dn1  v080
 BYTE   N04  Gs1  v100
 BYTE   W04
 BYTE   Dn1
 BYTE   N04  As1
 BYTE   W04
 BYTE   Dn1  v080
 BYTE   N04  Gs1  v100
 BYTE   W04
 BYTE   Dn1  v060
 BYTE   N04  Fs1  v100
 BYTE   W04
 BYTE   Dn1  v040
 BYTE   N04  Gs1  v100
 BYTE   W04
 BYTE   Fs1
 BYTE   W04
 BYTE   Gs1
 BYTE   W04
 BYTE   PEND 
// 020   ----------------------------------------
Label_6_0124DA4F:
 BYTE   N04  Cn1  v100
 BYTE   N04  As1
 BYTE   W04
 BYTE   Gs1
 BYTE   W04
 BYTE   Dn1
 BYTE   N04  Fs1
 BYTE   W04
 BYTE   Dn1  v080
 BYTE   N04  Gs1  v100
 BYTE   W04
 BYTE   Cn1
 BYTE   N04  Fs1
 BYTE   W04
 BYTE   Gs1
 BYTE   W04
 BYTE   Dn1
 BYTE   N04  As1
 BYTE   W04
 BYTE   Dn1  v080
 BYTE   N04  Gs1  v100
 BYTE   W04
 BYTE   Dn1  v060
 BYTE   N04  Fs1  v100
 BYTE   W04
 BYTE   Dn1  v040
 BYTE   N04  Gs1  v100
 BYTE   W04
 BYTE   Dn1
 BYTE   N04  Fs1
 BYTE   W04
 BYTE   Dn1  v080
 BYTE   N04  Gs1  v100
 BYTE   W04
 BYTE   Cn1
 BYTE   N04  As1
 BYTE   W04
 BYTE   Gs1
 BYTE   W04
 BYTE   Fs1
 BYTE   W04
 BYTE   Dn1
 BYTE   N04  Gs1
 BYTE   W04
 BYTE   Dn1  v080
 BYTE   N04  Fs1  v100
 BYTE   W04
 BYTE   Gs1
 BYTE   W04
 BYTE   Dn1
 BYTE   N04  As1
 BYTE   W04
 BYTE   Dn1  v080
 BYTE   N04  Gs1  v100
 BYTE   W04
 BYTE   Dn1  v060
 BYTE   N04  Fs1  v100
 BYTE   W04
 BYTE   Dn1  v040
 BYTE   N04  Gs1  v100
 BYTE   W04
 BYTE   Dn1
 BYTE   N04  Fs1
 BYTE   W04
 BYTE   Dn1  v080
 BYTE   N04  Gs1  v100
 BYTE   W04
 BYTE   PEND 
// 021   ----------------------------------------
Label_6_0124DABC:
 BYTE   N04  Cn1  v100
 BYTE   N04  As1
 BYTE   W04
 BYTE   Gs1
 BYTE   W04
 BYTE   Fs1
 BYTE   W04
 BYTE   Gs1
 BYTE   W04
 BYTE   Cn1
 BYTE   N04  Fs1
 BYTE   W04
 BYTE   Gs1
 BYTE   W04
 BYTE   Dn1
 BYTE   N04  As1
 BYTE   W04
 BYTE   Dn1  v080
 BYTE   N04  Gs1  v100
 BYTE   W04
 BYTE   Dn1  v060
 BYTE   N04  Fs1  v100
 BYTE   W04
 BYTE   Dn1  v040
 BYTE   N04  Gs1  v100
 BYTE   W04
 BYTE   Cn1
 BYTE   N04  Fs1
 BYTE   W04
 BYTE   Gs1
 BYTE   W04
 BYTE   Cn1
 BYTE   N04  As1
 BYTE   W04
 BYTE   Gs1
 BYTE   W04
 BYTE   Cn1
 BYTE   N04  Fs1
 BYTE   W04
 BYTE   Cn1
 BYTE   N04  Gs1
 BYTE   W04
 BYTE   Dn1
 BYTE   N04  Fs1
 BYTE   W04
 BYTE   Dn1  v080
 BYTE   N04  Gs1  v100
 BYTE   W04
 BYTE   Dn1
 BYTE   N04  As1
 BYTE   W04
 BYTE   Dn1  v080
 BYTE   N04  Gs1  v100
 BYTE   W04
 BYTE   Dn1  v060
 BYTE   N04  Fs1  v100
 BYTE   W04
 BYTE   Dn1  v040
 BYTE   N04  Gs1  v100
 BYTE   W04
 BYTE   Dn1
 BYTE   N04  Fs1
 BYTE   W04
 BYTE   Dn1  v080
 BYTE   N04  Gs1  v100
 BYTE   W04
 BYTE   PEND 
// 022   ----------------------------------------
Label_6_0124DB23:
 BYTE   N04  Cn1  v100
 BYTE   N04  As1
 BYTE   W04
 BYTE   Gs1
 BYTE   W04
 BYTE   Dn1
 BYTE   N04  Fs1
 BYTE   W04
 BYTE   Dn1  v080
 BYTE   N04  Gs1  v100
 BYTE   W04
 BYTE   Cn1
 BYTE   N04  Fs1
 BYTE   W04
 BYTE   Gs1
 BYTE   W04
 BYTE   Dn1
 BYTE   N04  As1
 BYTE   W04
 BYTE   Dn1  v080
 BYTE   N04  Gs1  v100
 BYTE   W04
 BYTE   Dn1  v060
 BYTE   N04  Fs1  v100
 BYTE   W04
 BYTE   Dn1  v040
 BYTE   N04  Gs1  v100
 BYTE   W04
 BYTE   Cn1
 BYTE   N04  Fs1
 BYTE   W04
 BYTE   Gs1
 BYTE   W04
 BYTE   Cn1
 BYTE   N04  As1
 BYTE   W04
 BYTE   Gs1
 BYTE   W04
 BYTE   Fs1
 BYTE   W04
 BYTE   Cn1
 BYTE   N04  Gs1
 BYTE   W04
 BYTE   Cn1
 BYTE   N04  Fs1
 BYTE   W04
 BYTE   Gs1
 BYTE   W04
 BYTE   Dn1
 BYTE   N04  As1
 BYTE   W04
 BYTE   Dn1  v080
 BYTE   N04  Gs1  v100
 BYTE   W04
 BYTE   Dn1  v060
 BYTE   N04  Fs1  v100
 BYTE   W04
 BYTE   Dn1  v040
 BYTE   N04  Gs1  v100
 BYTE   W04
 BYTE   Cn1
 BYTE   N04  Fs1
 BYTE   W04
 BYTE   Cn1
 BYTE   N04  Gs1
 BYTE   W04
 BYTE   PEND 
// 023   ----------------------------------------
Label_6_0124DB88:
 BYTE   N04  Cn1  v100
 BYTE   N04  As1
 BYTE   W04
 BYTE   Gs1
 BYTE   W04
 BYTE   Fs1
 BYTE   W04
 BYTE   Gs1
 BYTE   W04
 BYTE   Cn1
 BYTE   N04  Fs1
 BYTE   W04
 BYTE   Gs1
 BYTE   W04
 BYTE   Dn1
 BYTE   N04  As1
 BYTE   W04
 BYTE   Dn1  v080
 BYTE   N04  Gs1  v100
 BYTE   W04
 BYTE   Dn1  v060
 BYTE   N04  Fs1  v100
 BYTE   W04
 BYTE   Dn1  v040
 BYTE   N04  Gs1  v100
 BYTE   W04
 BYTE   Cn1
 BYTE   N04  Fs1
 BYTE   W04
 BYTE   Gs1
 BYTE   W04
 BYTE   Cn1
 BYTE   N04  As1
 BYTE   W04
 BYTE   Gs1
 BYTE   W04
 BYTE   Dn1
 BYTE   N04  Fs1
 BYTE   W04
 BYTE   Dn1  v080
 BYTE   N04  Gs1  v100
 BYTE   W04
 BYTE   Cn1
 BYTE   N04  Fs1
 BYTE   W04
 BYTE   Gs1
 BYTE   W04
 BYTE   Dn1
 BYTE   N04  As1
 BYTE   W04
 BYTE   Dn1  v080
 BYTE   N04  Gs1  v100
 BYTE   W04
 BYTE   Dn1  v060
 BYTE   N04  Fs1  v100
 BYTE   W04
 BYTE   Dn1  v040
 BYTE   N04  Gs1  v100
 BYTE   W04
 BYTE   Fs1
 BYTE   W04
 BYTE   Gs1
 BYTE   W04
 BYTE   PEND 
// 024   ----------------------------------------
 BYTE   PATT
  POIN2 Label_6_0124D88F
// 025   ----------------------------------------
 BYTE   PATT
  POIN2 Label_6_0124D82C
// 026   ----------------------------------------
 BYTE   PATT
  POIN2 Label_6_0124D771
// 027   ----------------------------------------
 BYTE   PATT
  POIN2 Label_6_0124D7CC
// 028   ----------------------------------------
 BYTE   PATT
  POIN2 Label_6_0124D7CC
// 029   ----------------------------------------
 BYTE   PATT
  POIN2 Label_6_0124D82C
// 030   ----------------------------------------
 BYTE   PATT
  POIN2 Label_6_0124D771
// 031   ----------------------------------------
 BYTE   PATT
  POIN2 Label_6_0124D7CC
// 032   ----------------------------------------
 BYTE   PATT
  POIN2 Label_6_0124D88F
// 033   ----------------------------------------
 BYTE   PATT
  POIN2 Label_6_0124D82C
// 034   ----------------------------------------
 BYTE   PATT
  POIN2 Label_6_0124D771
// 035   ----------------------------------------
 BYTE   PATT
  POIN2 Label_6_0124D7CC
// 036   ----------------------------------------
 BYTE   PATT
  POIN2 Label_6_0124D7CC
// 037   ----------------------------------------
 BYTE   PATT
  POIN2 Label_6_0124D82C
// 038   ----------------------------------------
 BYTE   PATT
  POIN2 Label_6_0124D771
// 039   ----------------------------------------
 BYTE   PATT
  POIN2 Label_6_0124D7CC
// 040   ----------------------------------------
 BYTE   PATT
  POIN2 Label_6_0124D7CC
// 041   ----------------------------------------
 BYTE   PATT
  POIN2 Label_6_0124D918
// 042   ----------------------------------------
 BYTE   PATT
  POIN2 Label_6_0124D989
// 043   ----------------------------------------
 BYTE   PATT
  POIN2 Label_6_0124D9EE
// 044   ----------------------------------------
 BYTE   PATT
  POIN2 Label_6_0124DA4F
// 045   ----------------------------------------
 BYTE   PATT
  POIN2 Label_6_0124DABC
// 046   ----------------------------------------
 BYTE   PATT
  POIN2 Label_6_0124DB23
// 047   ----------------------------------------
 BYTE   PATT
  POIN2 Label_6_0124DB88
// 048   ----------------------------------------
 BYTE   N04  Cn1  v100
 BYTE   N04  As1
 BYTE   W04
 BYTE   Gs1
 BYTE   W04
 BYTE   Fs1
 BYTE   W04
 BYTE   Gs1
 BYTE   W04
 BYTE   Cn1
 BYTE   N04  Fs1
 BYTE   W04
 BYTE   Gs1
 BYTE   W04
 BYTE   Dn1
 BYTE   N04  As1
 BYTE   W04
 BYTE   Dn1  v080
 BYTE   N04  Gs1  v100
 BYTE   W04
 BYTE   Dn1  v060
 BYTE   N04  Fs1  v100
 BYTE   W04
 BYTE   Dn1  v040
 BYTE   N04  Gs1  v100
 BYTE   W04
 BYTE   Cn1
 BYTE   N04  Fs1
 BYTE   W04
 BYTE   Gs1
 BYTE   W04
 BYTE   GoTo
  POIN2 Label_6_0124D6DA
 BYTE   FINE

//******************************************************//
	ALIGN 4

PokemonRSERoute113Pandan:
	BYTE	7	// NumTrks
	BYTE	0	// NumBlks
	BYTE	PokemonRSERoute113Pandan_pri	// Priority
	BYTE	PokemonRSERoute113Pandan_rev	// Reverb.
    
	POIN2	PokemonRSERoute113Pandan_grp
    
	POIN2	PokemonRSERoute113Pandan_001
	POIN2	PokemonRSERoute113Pandan_002
	POIN2	PokemonRSERoute113Pandan_003
	POIN2	PokemonRSERoute113Pandan_004
	POIN2	PokemonRSERoute113Pandan_005
	POIN2	PokemonRSERoute113Pandan_006
	POIN2	PokemonRSERoute113Pandan_007

	
