//Event file generated from Sappy .s format.
	#include "MPlayDef.event"

	#define	PokemonFRLGToFuchsiaDonkinDo_grp  voicegroup000
	#define	PokemonFRLGToFuchsiaDonkinDo_pri  10
	#define	PokemonFRLGToFuchsiaDonkinDo_rev  0
	#define	PokemonFRLGToFuchsiaDonkinDo_mvl  127
	#define	PokemonFRLGToFuchsiaDonkinDo_key  0
	#define	PokemonFRLGToFuchsiaDonkinDo_tbs  1
	#define	PokemonFRLGToFuchsiaDonkinDo_exg  0
	#define	PokemonFRLGToFuchsiaDonkinDo_cmp  1

	// .rodata
	//	PokemonFRLGToFuchsiaDonkinDo
	ALIGN 4


//**************** Track 1 (Midi-Chn.0) ****************//

PokemonFRLGToFuchsiaDonkinDo_001:
// 000   ----------------------------------------
 BYTE   TEMPO   116*PokemonFRLGToFuchsiaDonkinDo_tbs/2
 BYTE   KEYSH   PokemonFRLGToFuchsiaDonkinDo_key+0
 BYTE   VOICE   46
 BYTE   VOL   68*PokemonFRLGToFuchsiaDonkinDo_mvl/mxv
 BYTE   PAN   c_v-32
 BYTE   N09  An2  v127
 BYTE   W18
 BYTE   N03  Fn2  v123
 BYTE   W06
 BYTE   N24  Cn3  v110
 BYTE   W24
 BYTE   PAN   c_v+32
 BYTE   N24  As2  v110
 BYTE   W24
 BYTE   PAN   c_v-32
 BYTE   N24  An2  v110
 BYTE   W24
// 001   ----------------------------------------
 BYTE   N09  Gn2  v127
 BYTE   W18
 BYTE   N03  Cn2  v123
 BYTE   W06
 BYTE   N24  An2  v110
 BYTE   W24
 BYTE   PAN   c_v+32
 BYTE   N24  Cn3  v110
 BYTE   W24
 BYTE   PAN   c_v-32
 BYTE   N06  Cn3  v127
 BYTE   W06
 BYTE   Fn3  v110
 BYTE   W06
 BYTE   Gn3
 BYTE   W06
 BYTE   Cn4
 BYTE   W06
// 002   ----------------------------------------
Label_0_0119C5F9:
 BYTE   PAN   c_v-32
 BYTE   N36  Cn4  v127
 BYTE   W36
 BYTE   N06  Fn3  v110
 BYTE   W12
 BYTE   N24
 BYTE   W24
 BYTE   Fn4  v127
 BYTE   W24
// 003   ----------------------------------------
 BYTE   Ds4  v112
 BYTE   W24
 BYTE   Dn4  v110
 BYTE   W24
 BYTE   Cn4
 BYTE   W24
 BYTE   As3
 BYTE   W24
// 004   ----------------------------------------
 BYTE   N06  An3  v127
 BYTE   W18
 BYTE   Fn3  v110
 BYTE   W06
 BYTE   N72  Gn3  v117
 BYTE   W72
// 005   ----------------------------------------
 BYTE   PAN   c_v-43
 BYTE   N09  Fn2  v127
 BYTE   W18
 BYTE   N03  Dn2  v123
 BYTE   W06
 BYTE   N24  Fn2
 BYTE   W24
 BYTE   N06  Gn2  v127
 BYTE   W12
 BYTE   En2  v125
 BYTE   W06
 BYTE   N03  Gn2  v119
 BYTE   W03
 BYTE   An2  v117
 BYTE   W03
 BYTE   N24  As2  v125
 BYTE   W24
// 006   ----------------------------------------
 BYTE   PAN   c_v-32
 BYTE   N36  Cn4  v127
 BYTE   W36
 BYTE   N03  Fn3
 BYTE   W06
 BYTE   Fn3  v123
 BYTE   W06
 BYTE   N24  Fn3  v127
 BYTE   W24
 BYTE   Fn4
 BYTE   W24
// 007   ----------------------------------------
 BYTE   Ds4
 BYTE   W24
 BYTE   Dn4
 BYTE   W24
 BYTE   Cn4
 BYTE   W24
 BYTE   Dn4
 BYTE   W24
// 008   ----------------------------------------
 BYTE   N18  Fn4
 BYTE   W18
 BYTE   N06  En4
 BYTE   W06
 BYTE   N72  Fn4
 BYTE   W72
// 009   ----------------------------------------
 BYTE   N18  Cn4
 BYTE   W18
 BYTE   N06  As3
 BYTE   W06
 BYTE   N48  An3
 BYTE   W48
 BYTE   N24  Fn4
 BYTE   W24
// 010   ----------------------------------------
 BYTE   N12  Ds3
 BYTE   W12
 BYTE   Fn3
 BYTE   W12
 BYTE   Gn3
 BYTE   W12
 BYTE   An3
 BYTE   W12
 BYTE   As3
 BYTE   W12
 BYTE   Cn4
 BYTE   W12
 BYTE   Dn4
 BYTE   W12
 BYTE   Ds4
 BYTE   W12
// 011   ----------------------------------------
 BYTE   N03  En4  v123
 BYTE   W03
 BYTE   N09  Ds4  v127
 BYTE   W09
 BYTE   N12  As3
 BYTE   W12
 BYTE   Gn3
 BYTE   W12
 BYTE   Fn3
 BYTE   W12
 BYTE   N03  En3  v123
 BYTE   W03
 BYTE   N09  Ds3  v127
 BYTE   W09
 BYTE   N12  Fn3
 BYTE   W12
 BYTE   Gn3
 BYTE   W12
 BYTE   As3
 BYTE   W12
// 012   ----------------------------------------
 BYTE   An3
 BYTE   W12
 BYTE   Gn3
 BYTE   W12
 BYTE   Fn3
 BYTE   W12
 BYTE   Gn3
 BYTE   W12
 BYTE   An3
 BYTE   W12
 BYTE   As3
 BYTE   W12
 BYTE   Cn4
 BYTE   W12
 BYTE   En4
 BYTE   W12
// 013   ----------------------------------------
 BYTE   N03  Fs4  v123
 BYTE   W03
 BYTE   N09  Fn4  v127
 BYTE   W09
 BYTE   N12  Cn4
 BYTE   W12
 BYTE   An3
 BYTE   W12
 BYTE   Gn3
 BYTE   W12
 BYTE   Fn3
 BYTE   W12
 BYTE   Gn3
 BYTE   W12
 BYTE   An3
 BYTE   W12
 BYTE   Cn4
 BYTE   W12
// 014   ----------------------------------------
 BYTE   N16  As3
 BYTE   W16
 BYTE   An3
 BYTE   W16
 BYTE   Gn3
 BYTE   W16
 BYTE   Fn4
 BYTE   W16
 BYTE   En4
 BYTE   W16
 BYTE   Dn4
 BYTE   W16
// 015   ----------------------------------------
 BYTE   Dn4
 BYTE   W16
 BYTE   Cn4
 BYTE   W16
 BYTE   As3
 BYTE   W16
 BYTE   Cn4
 BYTE   W16
 BYTE   Dn4
 BYTE   W16
 BYTE   En4
 BYTE   W16
// 016   ----------------------------------------
 BYTE   N12  Fn3
 BYTE   W12
 BYTE   Gn3
 BYTE   W12
 BYTE   An3
 BYTE   W12
 BYTE   As3
 BYTE   W12
 BYTE   N16  Cn4
 BYTE   W16
 BYTE   Dn4
 BYTE   W16
 BYTE   En4
 BYTE   W16
// 017   ----------------------------------------
 BYTE   N12  Fn4
 BYTE   W12
 BYTE   Cn4
 BYTE   W12
 BYTE   An3
 BYTE   W12
 BYTE   Gn3
 BYTE   W12
 BYTE   Cn3
 BYTE   W12
 BYTE   Dn3
 BYTE   W12
 BYTE   En3
 BYTE   W12
 BYTE   Gn3
 BYTE   W12
// 018   ----------------------------------------
 BYTE   PAN   c_v-32
 BYTE   GoTo
  POIN2 Label_0_0119C5F9
 BYTE   FINE

//**************** Track 2 (Midi-Chn.1) ****************//

PokemonFRLGToFuchsiaDonkinDo_002:
// 000   ----------------------------------------
 BYTE   TEMPO   116*PokemonFRLGToFuchsiaDonkinDo_tbs/2
 BYTE   KEYSH   PokemonFRLGToFuchsiaDonkinDo_key+0
 BYTE   VOICE   57
 BYTE   VOL   68*PokemonFRLGToFuchsiaDonkinDo_mvl/mxv
 BYTE   PAN   c_v+0
 BYTE   N09  Fn3  v117
 BYTE   W18
 BYTE   N03  Gn3
 BYTE   W06
 BYTE   N72  Fn3
 BYTE   W72
// 001   ----------------------------------------
 BYTE   N09  Cn3
 BYTE   W18
 BYTE   N03  Cs3
 BYTE   W06
 BYTE   N48  Cn3
 BYTE   W48
 BYTE   N06  Fn3  v127
 BYTE   W06
 BYTE   Gn3
 BYTE   W06
 BYTE   Cn4
 BYTE   W06
 BYTE   En4
 BYTE   W06
// 002   ----------------------------------------
Label_1_0119CBAB:
 BYTE   N36  Fn4  v127
 BYTE   W36
 BYTE   N06  Cn4
 BYTE   W12
 BYTE   N24
 BYTE   W24
 BYTE   Cn5
 BYTE   W24
// 003   ----------------------------------------
 BYTE   As4
 BYTE   W24
 BYTE   An4
 BYTE   W24
 BYTE   Gn4
 BYTE   W24
 BYTE   N06
 BYTE   W06
 BYTE   As4
 BYTE   W06
 BYTE   An4
 BYTE   W06
 BYTE   Gn4
 BYTE   W06
// 004   ----------------------------------------
 BYTE   An4
 BYTE   W18
 BYTE   Fn4
 BYTE   W06
 BYTE   N72  Cn4  v123
 BYTE   W72
// 005   ----------------------------------------
 BYTE   N09  Cn3  v127
 BYTE   W18
 BYTE   N03  Cs3  v112
 BYTE   W06
 BYTE   N24  Cn3  v119
 BYTE   W24
 BYTE   PAN   c_v+16
 BYTE   N06  En3  v110
 BYTE   W12
 BYTE   Cn3
 BYTE   W06
 BYTE   N03  En3  v100
 BYTE   W03
 BYTE   Fn3
 BYTE   W03
 BYTE   N24  Gn3  v110
 BYTE   W24
// 006   ----------------------------------------
 BYTE   PAN   c_v+0
 BYTE   N36  Fn4  v105
 BYTE   W36
 BYTE   N06  Cn4  v103
 BYTE   W06
 BYTE   N03
 BYTE   W06
 BYTE   N06  Fn4  v090
 BYTE   W12
 BYTE   Cn4  v108
 BYTE   W06
 BYTE   N03  Fn4  v081
 BYTE   W03
 BYTE   An4  v105
 BYTE   W03
 BYTE   N24  Cn5
 BYTE   W24
// 007   ----------------------------------------
 BYTE   As4
 BYTE   W24
 BYTE   An4
 BYTE   W24
 BYTE   Gn4
 BYTE   W24
 BYTE   N06  As4
 BYTE   W06
 BYTE   Dn5  v092
 BYTE   W06
 BYTE   Cn5
 BYTE   W06
 BYTE   As4
 BYTE   W06
// 008   ----------------------------------------
 BYTE   N18  Cn5  v110
 BYTE   W18
 BYTE   N06  As4  v098
 BYTE   W06
 BYTE   N96  An4  v103
 BYTE   W96
// 009   ----------------------------------------
 BYTE   N72
 BYTE   W72
 BYTE   N16  As4  v108
 BYTE   W16
 BYTE   An4
 BYTE   W16
// 010   ----------------------------------------
 BYTE   Gn4
 BYTE   W16
 BYTE   N03  Gs4  v095
 BYTE   W03
 BYTE   N44  Gn4  v108
 BYTE   W96
// 011   ----------------------------------------
 BYTE   W21
 BYTE   N24  Gn5  v100
 BYTE   W24
 BYTE   N16  An5  v095
 BYTE   W16
 BYTE   Gn5
 BYTE   W16
 BYTE   N13  Fn5
 BYTE   W16
 BYTE   N03  Fs5  v087
 BYTE   W03
// 012   ----------------------------------------
 BYTE   N44  Fn5  v098
 BYTE   W96
// 013   ----------------------------------------
 BYTE   W21
 BYTE   N24  Fn4  v127
 BYTE   W24
 BYTE   N16  Gn4
 BYTE   W16
 BYTE   En4
 BYTE   W16
 BYTE   Cn4
 BYTE   W16
 BYTE   N96  Cn5
 BYTE   W96
// 014   ----------------------------------------
 BYTE   N01
 BYTE   N48  As4
 BYTE   W48
 BYTE   N06  An4
 BYTE   W06
 BYTE   Gn4
 BYTE   W06
 BYTE   N96  Fn4  v123
 BYTE   W96
// 015   ----------------------------------------
 BYTE   N84
 BYTE   W84
 BYTE   GoTo
  POIN2 Label_1_0119CBAB
 BYTE   FINE

//**************** Track 3 (Midi-Chn.2) ****************//

PokemonFRLGToFuchsiaDonkinDo_003:
// 000   ----------------------------------------
 BYTE   TEMPO   116*PokemonFRLGToFuchsiaDonkinDo_tbs/2
 BYTE   KEYSH   PokemonFRLGToFuchsiaDonkinDo_key+0
 BYTE   VOICE   14
 BYTE   VOL   66*PokemonFRLGToFuchsiaDonkinDo_mvl/mxv
 BYTE   PAN   c_v-1
 BYTE   W96
// 001   ----------------------------------------
 BYTE   W96
// 002   ----------------------------------------
Label_2_0119C8AC:
 BYTE   W96
// 003   ----------------------------------------
 BYTE   W96
// 004   ----------------------------------------
 BYTE   W96
// 005   ----------------------------------------
 BYTE   W96
// 006   ----------------------------------------
 BYTE   W96
// 007   ----------------------------------------
 BYTE   W96
// 008   ----------------------------------------
 BYTE   W96
// 009   ----------------------------------------
 BYTE   W96
// 010   ----------------------------------------
 BYTE   W96
// 011   ----------------------------------------
 BYTE   PAN   c_v-32
 BYTE   N48  Ds5  v095
 BYTE   W48
 BYTE   PAN   c_v+44
 BYTE   N48  As4  v095
 BYTE   W96
// 012   ----------------------------------------
 BYTE   W48
 BYTE   PAN   c_v+32
 BYTE   N48  Fn5  v095
 BYTE   W48
// 013   ----------------------------------------
 BYTE   PAN   c_v-32
 BYTE   N48  Cn5  v095
 BYTE   W96
// 014   ----------------------------------------
 BYTE   W96
// 015   ----------------------------------------
 BYTE   W96
// 016   ----------------------------------------
 BYTE   W96
// 017   ----------------------------------------
 BYTE   W48
 BYTE   GoTo
  POIN2 Label_2_0119C8AC
 BYTE   FINE

//**************** Track 4 (Midi-Chn.3) ****************//

PokemonFRLGToFuchsiaDonkinDo_004:
// 000   ----------------------------------------
 BYTE   TEMPO   116*PokemonFRLGToFuchsiaDonkinDo_tbs/2
 BYTE   KEYSH   PokemonFRLGToFuchsiaDonkinDo_key+0
 BYTE   VOICE   117
 BYTE   VOL   31*PokemonFRLGToFuchsiaDonkinDo_mvl/mxv
 BYTE   PAN   c_v+0
 BYTE   N06  Fn1  v127
 BYTE   W24
 BYTE   Fn1
 BYTE   W24
 BYTE   Fn1
 BYTE   W24
 BYTE   Fn1
 BYTE   W12
 BYTE   Cn1  v123
 BYTE   W12
// 001   ----------------------------------------
 BYTE   Fn1  v127
 BYTE   W24
 BYTE   Fn1
 BYTE   W24
 BYTE   Fn1
 BYTE   W12
 BYTE   Cn1  v123
 BYTE   W12
 BYTE   Fn1  v127
 BYTE   W12
 BYTE   N12  En1  v123
 BYTE   W12
// 002   ----------------------------------------
Label_3_0119C900:
 BYTE   N06  Fn1  v127
 BYTE   W12
 BYTE   N24  Cn1  v123
 BYTE   W24
 BYTE   N06  Fn1  v127
 BYTE   W06
 BYTE   Fn1
 BYTE   W06
 BYTE   Fn1
 BYTE   W12
 BYTE   N24  Cn2
 BYTE   W24
 BYTE   N12  Fn1
 BYTE   W12
// 003   ----------------------------------------
 BYTE   N06  Gn1
 BYTE   W24
 BYTE   Gn1
 BYTE   W06
 BYTE   Gn1
 BYTE   W06
 BYTE   Gn1
 BYTE   W06
 BYTE   Gn1
 BYTE   W06
 BYTE   Gn1
 BYTE   W12
 BYTE   N12
 BYTE   W24
 BYTE   N06  As1
 BYTE   W06
 BYTE   As1  v123
 BYTE   W06
// 004   ----------------------------------------
 BYTE   An1  v127
 BYTE   W24
 BYTE   An1
 BYTE   W06
 BYTE   An1
 BYTE   W06
 BYTE   An1
 BYTE   W06
 BYTE   An1
 BYTE   W06
 BYTE   An1
 BYTE   W12
 BYTE   N12  Fn1
 BYTE   W24
 BYTE   Cn2
 BYTE   W12
// 005   ----------------------------------------
 BYTE   N06  Fn1
 BYTE   W24
 BYTE   Fn1
 BYTE   W06
 BYTE   Fn1
 BYTE   W06
 BYTE   Fn1
 BYTE   W06
 BYTE   Fn1
 BYTE   W06
 BYTE   Fn1
 BYTE   W12
 BYTE   N12  Cn1
 BYTE   W24
 BYTE   N06
 BYTE   W06
 BYTE   Cn1  v123
 BYTE   W06
// 006   ----------------------------------------
 BYTE   N36  Fn1  v127
 BYTE   W36
 BYTE   N06
 BYTE   W06
 BYTE   Fn1
 BYTE   W06
 BYTE   Fn1
 BYTE   W12
 BYTE   N12  Cn2
 BYTE   W24
 BYTE   N06  Fn1
 BYTE   W12
// 007   ----------------------------------------
 BYTE   Gn1
 BYTE   W24
 BYTE   Gn1
 BYTE   W06
 BYTE   Gn1
 BYTE   W06
 BYTE   Gn1
 BYTE   W06
 BYTE   Gn1
 BYTE   W06
 BYTE   Gn1
 BYTE   W12
 BYTE   Gn1
 BYTE   W24
 BYTE   As1
 BYTE   W12
// 008   ----------------------------------------
 BYTE   Cn2
 BYTE   W24
 BYTE   Cn2
 BYTE   W06
 BYTE   Cn2
 BYTE   W06
 BYTE   Cn2
 BYTE   W06
 BYTE   Cn2
 BYTE   W06
 BYTE   Cn2
 BYTE   W12
 BYTE   N12  Fn1
 BYTE   W24
 BYTE   N06  Cn2
 BYTE   W06
 BYTE   N03  Bn1  v123
 BYTE   W03
 BYTE   As1
 BYTE   W03
// 009   ----------------------------------------
 BYTE   N06  Fn1  v127
 BYTE   W24
 BYTE   Fn1
 BYTE   W06
 BYTE   Fn1
 BYTE   W06
 BYTE   Fn1
 BYTE   W06
 BYTE   Fn1
 BYTE   W06
 BYTE   Fn1
 BYTE   W12
 BYTE   N12  Cn1
 BYTE   W24
 BYTE   An1
 BYTE   W12
// 010   ----------------------------------------
 BYTE   N06  Gn1
 BYTE   W24
 BYTE   Gn1
 BYTE   W06
 BYTE   Gn1
 BYTE   W06
 BYTE   Gn1
 BYTE   W06
 BYTE   Gn1
 BYTE   W06
 BYTE   Gn1
 BYTE   W12
 BYTE   Gn1
 BYTE   W24
 BYTE   N12  Dn1
 BYTE   W12
// 011   ----------------------------------------
 BYTE   N06  Ds1
 BYTE   W24
 BYTE   Ds1
 BYTE   W06
 BYTE   Ds1
 BYTE   W06
 BYTE   Ds1
 BYTE   W06
 BYTE   Ds1
 BYTE   W06
 BYTE   Ds1
 BYTE   W12
 BYTE   Ds1
 BYTE   W24
 BYTE   N12  Ds2
 BYTE   W12
// 012   ----------------------------------------
 BYTE   N06  Fn1
 BYTE   W24
 BYTE   Fn1
 BYTE   W06
 BYTE   Fn1
 BYTE   W06
 BYTE   Fn1
 BYTE   W06
 BYTE   Fn1
 BYTE   W06
 BYTE   Fn1
 BYTE   W12
 BYTE   Fn1
 BYTE   W24
 BYTE   N12  Gs1
 BYTE   W12
// 013   ----------------------------------------
 BYTE   N06  An1
 BYTE   W24
 BYTE   An1
 BYTE   W06
 BYTE   An1
 BYTE   W06
 BYTE   An1
 BYTE   W06
 BYTE   An1
 BYTE   W06
 BYTE   An1
 BYTE   W12
 BYTE   An1
 BYTE   W24
 BYTE   N12  Fn1
 BYTE   W12
// 014   ----------------------------------------
 BYTE   N06  Gn1
 BYTE   W24
 BYTE   Gn1
 BYTE   W06
 BYTE   Gn1
 BYTE   W06
 BYTE   Gn1
 BYTE   W06
 BYTE   Gn1
 BYTE   W06
 BYTE   Gn1
 BYTE   W12
 BYTE   N12  Cn1
 BYTE   W24
 BYTE   Bn1
 BYTE   W12
// 015   ----------------------------------------
 BYTE   N06  Cn2
 BYTE   W24
 BYTE   Cn2
 BYTE   W06
 BYTE   Cn2
 BYTE   W06
 BYTE   Cn2
 BYTE   W06
 BYTE   Cn2
 BYTE   W06
 BYTE   Cn2
 BYTE   W12
 BYTE   N12  En1
 BYTE   W24
 BYTE   Gs1
 BYTE   W12
// 016   ----------------------------------------
 BYTE   N06  An1
 BYTE   W24
 BYTE   An1
 BYTE   W06
 BYTE   An1
 BYTE   W06
 BYTE   An1
 BYTE   W06
 BYTE   An1
 BYTE   W06
 BYTE   An1
 BYTE   W12
 BYTE   N12  Fn1
 BYTE   W24
 BYTE   En2
 BYTE   W12
// 017   ----------------------------------------
 BYTE   N06  Fn2
 BYTE   W24
 BYTE   Fn1
 BYTE   W06
 BYTE   Fn1
 BYTE   W06
 BYTE   Fn1
 BYTE   W06
 BYTE   Fn1
 BYTE   W06
 BYTE   Cn2
 BYTE   W12
 BYTE   N03  Fn1
 BYTE   W03
 BYTE   Fn1  v123
 BYTE   W03
 BYTE   N06
 BYTE   W06
 BYTE   N03  Fn2
 BYTE   W06
 BYTE   N06
 BYTE   W06
 BYTE   N12  Cn1  v127
 BYTE   W12
// 018   ----------------------------------------
 BYTE   GoTo
  POIN2 Label_3_0119C900
 BYTE   FINE

//**************** Track 5 (Midi-Chn.4) ****************//

PokemonFRLGToFuchsiaDonkinDo_005:
// 000   ----------------------------------------
 BYTE   TEMPO   116*PokemonFRLGToFuchsiaDonkinDo_tbs/2
 BYTE   KEYSH   PokemonFRLGToFuchsiaDonkinDo_key+0
 BYTE   VOICE   46
 BYTE   VOL   56*PokemonFRLGToFuchsiaDonkinDo_mvl/mxv
 BYTE   PAN   c_v+63
 BYTE   W96
// 001   ----------------------------------------
 BYTE   W96
// 002   ----------------------------------------
Label_4_0119D0F4:
 BYTE   W96
// 003   ----------------------------------------
 BYTE   W96
// 004   ----------------------------------------
 BYTE   VOICE   46
 BYTE   W24
 BYTE   PAN   c_v-32
 BYTE   N03  Fn4  v123
 BYTE   W03
 BYTE   Gn4
 BYTE   W03
 BYTE   An4
 BYTE   W03
 BYTE   As4
 BYTE   W03
 BYTE   PAN   c_v+32
 BYTE   N03  Cn5  v123
 BYTE   W03
 BYTE   Dn5
 BYTE   W03
 BYTE   En5
 BYTE   W03
 BYTE   Fn5
 BYTE   W03
 BYTE   Gn4
 BYTE   W03
 BYTE   An4
 BYTE   W03
 BYTE   As4
 BYTE   W03
 BYTE   Cn5
 BYTE   W03
 BYTE   PAN   c_v-32
 BYTE   N03  Dn5  v123
 BYTE   W03
 BYTE   En5
 BYTE   W03
 BYTE   Fn5
 BYTE   W03
 BYTE   Gn5
 BYTE   W03
 BYTE   An4
 BYTE   W03
 BYTE   As4
 BYTE   W03
 BYTE   Cn5
 BYTE   W03
 BYTE   Dn5
 BYTE   W03
 BYTE   PAN   c_v+32
 BYTE   N03  En5  v123
 BYTE   W03
 BYTE   Fn5
 BYTE   W03
 BYTE   Gn5
 BYTE   W03
 BYTE   An5
 BYTE   W03
// 005   ----------------------------------------
 BYTE   As4
 BYTE   W03
 BYTE   Cn5
 BYTE   W03
 BYTE   Dn5
 BYTE   W03
 BYTE   En5
 BYTE   W03
 BYTE   PAN   c_v-32
 BYTE   N03  Fn5  v123
 BYTE   W03
 BYTE   Gn5
 BYTE   W03
 BYTE   An5
 BYTE   W03
 BYTE   As5
 BYTE   W03
 BYTE   N24  Cn6
 BYTE   W96
// 006   ----------------------------------------
 BYTE   W96
// 007   ----------------------------------------
 BYTE   W96
// 008   ----------------------------------------
 BYTE   W72
 BYTE   VOICE   60
 BYTE   W48
// 009   ----------------------------------------
 BYTE   PAN   c_v+0
 BYTE   N06  An3  v123
 BYTE   W12
 BYTE   Fn3
 BYTE   W06
 BYTE   N03  An3
 BYTE   W03
 BYTE   As3
 BYTE   W03
 BYTE   N24  Cn4
 BYTE   W24
 BYTE   VOICE   56
 BYTE   PAN   c_v+32
 BYTE   N03  As3  v123
 BYTE   W06
 BYTE   As3
 BYTE   W06
 BYTE   As3
 BYTE   W24
 BYTE   As3
 BYTE   W06
 BYTE   As3
 BYTE   W06
// 010   ----------------------------------------
 BYTE   As3
 BYTE   W12
 BYTE   As3
 BYTE   W12
 BYTE   PAN   c_v-32
 BYTE   N24  Ds4  v123
 BYTE   W24
 BYTE   VOICE   60
 BYTE   PAN   c_v+31
 BYTE   N16  Gn3  v112
 BYTE   W16
 BYTE   Fn3
 BYTE   W16
 BYTE   Gn3
 BYTE   W16
// 011   ----------------------------------------
 BYTE   N48  As3
 BYTE   W48
 BYTE   VOICE   56
 BYTE   PAN   c_v-32
 BYTE   N03  An3  v123
 BYTE   W06
 BYTE   An3
 BYTE   W06
 BYTE   An3
 BYTE   W24
 BYTE   An3
 BYTE   W06
 BYTE   An3
 BYTE   W06
// 012   ----------------------------------------
 BYTE   An3
 BYTE   W12
 BYTE   An3
 BYTE   W12
 BYTE   PAN   c_v+31
 BYTE   N24  Fn4  v123
 BYTE   W24
 BYTE   VOICE   60
 BYTE   PAN   c_v+31
 BYTE   N03  Fs3  v108
 BYTE   W03
 BYTE   N13  Fn3  v112
 BYTE   W13
 BYTE   N16  En3
 BYTE   W16
 BYTE   Fn3
 BYTE   W16
// 013   ----------------------------------------
 BYTE   N48  An3
 BYTE   W48
 BYTE   VOICE   56
 BYTE   PAN   c_v-33
 BYTE   N03  En3  v123
 BYTE   W06
 BYTE   En3
 BYTE   W06
 BYTE   En3
 BYTE   W21
 BYTE   En3
 BYTE   W06
 BYTE   Gn3
 BYTE   W09
// 014   ----------------------------------------
 BYTE   VOICE   60
 BYTE   PAN   c_v+31
 BYTE   N16  Cn4  v112
 BYTE   W16
 BYTE   As3
 BYTE   W16
 BYTE   Gn3
 BYTE   W16
 BYTE   VOICE   60
 BYTE   N16  Gn3  v112
 BYTE   W16
 BYTE   Fn3
 BYTE   W16
 BYTE   En3
 BYTE   W16
// 015   ----------------------------------------
 BYTE   N48  Gn4
 BYTE   W96
// 016   ----------------------------------------
 BYTE   W96
// 017   ----------------------------------------
 BYTE   W48
 BYTE   GoTo
  POIN2 Label_4_0119D0F4
 BYTE   FINE

//**************** Track 6 (Midi-Chn.5) ****************//

PokemonFRLGToFuchsiaDonkinDo_006:
// 000   ----------------------------------------
 BYTE   TEMPO   116*PokemonFRLGToFuchsiaDonkinDo_tbs/2
 BYTE   KEYSH   PokemonFRLGToFuchsiaDonkinDo_key+0
 BYTE   VOICE   115
 BYTE   VOL   66*PokemonFRLGToFuchsiaDonkinDo_mvl/mxv
 BYTE   PAN   c_v-33
 BYTE   W96
// 001   ----------------------------------------
 BYTE   W72
 BYTE   PAN   c_v+32
 BYTE   N06  Fn1  v127
 BYTE   W06
 BYTE   PAN   c_v-32
 BYTE   N06  Fn1  v127
 BYTE   W06
 BYTE   PAN   c_v+32
 BYTE   N06  Fn1  v127
 BYTE   W06
 BYTE   PAN   c_v-32
 BYTE   N06  Fn1  v127
 BYTE   W06
// 002   ----------------------------------------
Label_5_0119CA64:
 BYTE   PAN   c_v+32
 BYTE   N12  Fn2  v127
 BYTE   W12
 BYTE   PAN   c_v-39
 BYTE   N24  Cn2  v127
 BYTE   W24
 BYTE   N03
 BYTE   W06
 BYTE   Cn2
 BYTE   W06
 BYTE   N12
 BYTE   W12
 BYTE   PAN   c_v+32
 BYTE   N24  Fn2  v127
 BYTE   W24
 BYTE   PAN   c_v-42
 BYTE   N12  Cn2  v127
 BYTE   W12
// 003   ----------------------------------------
 BYTE   VOL   77*PokemonFRLGToFuchsiaDonkinDo_mvl/mxv
 BYTE   PAN   c_v+32
 BYTE   N24  Gn2  v127
 BYTE   W60
 BYTE   PAN   c_v-39
 BYTE   N24  Gn1  v123
 BYTE   W24
 BYTE   N06  As1  v127
 BYTE   W06
 BYTE   As1
 BYTE   W06
// 004   ----------------------------------------
 BYTE   PAN   c_v+32
 BYTE   N18  Fn2  v127
 BYTE   W48
 BYTE   PAN   c_v-32
 BYTE   N06  Fn2  v123
 BYTE   W12
 BYTE   N24  Cn2
 BYTE   W36
// 005   ----------------------------------------
 BYTE   PAN   c_v+32
 BYTE   W48
 BYTE   N12  Fn2  v127
 BYTE   W12
 BYTE   PAN   c_v-40
 BYTE   N24  Fn1  v127
 BYTE   W24
 BYTE   N06  Cn2
 BYTE   W06
 BYTE   Cn2
 BYTE   W06
// 006   ----------------------------------------
 BYTE   PAN   c_v+32
 BYTE   N24  Fn2  v127
 BYTE   W36
 BYTE   PAN   c_v-40
 BYTE   N03  Cn2  v127
 BYTE   W06
 BYTE   Cn2
 BYTE   W06
 BYTE   PAN   c_v+32
 BYTE   N06  Fn2  v127
 BYTE   W12
 BYTE   PAN   c_v-40
 BYTE   N06  Cn2  v127
 BYTE   W06
 BYTE   N03
 BYTE   W03
 BYTE   Cn2
 BYTE   W03
 BYTE   PAN   c_v+32
 BYTE   N24  Fn2  v127
 BYTE   W24
// 007   ----------------------------------------
 BYTE   PAN   c_v-40
 BYTE   N24  Gn1  v127
 BYTE   W60
 BYTE   Gn1
 BYTE   W24
 BYTE   N06  Cn2
 BYTE   W06
 BYTE   Cn2
 BYTE   W06
// 008   ----------------------------------------
 BYTE   PAN   c_v+32
 BYTE   N15  Fn2  v127
 BYTE   W12
 BYTE   PAN   c_v-40
 BYTE   N06  Cn2  v127
 BYTE   W06
 BYTE   Cn2
 BYTE   W06
 BYTE   PAN   c_v+32
 BYTE   N24  Fn2  v127
 BYTE   W36
 BYTE   PAN   c_v-39
 BYTE   N24  Fn1  v127
 BYTE   W24
 BYTE   N06
 BYTE   W06
 BYTE   N03  Cn2
 BYTE   W03
 BYTE   Cn2
 BYTE   W03
// 009   ----------------------------------------
 BYTE   PAN   c_v+32
 BYTE   N24  Fn2  v127
 BYTE   W48
 BYTE   PAN   c_v-32
 BYTE   N06  Cn2  v123
 BYTE   W12
 BYTE   N24  Fn1
 BYTE   W96
// 010   ----------------------------------------
 BYTE   W96
// 011   ----------------------------------------
 BYTE   W96
// 012   ----------------------------------------
 BYTE   W96
// 013   ----------------------------------------
 BYTE   W96
// 014   ----------------------------------------
 BYTE   W96
// 015   ----------------------------------------
 BYTE   W96
// 016   ----------------------------------------
 BYTE   W24
 BYTE   N06  An1  v127
 BYTE   W12
 BYTE   PAN   c_v-32
 BYTE   N24  Fn1  v127
 BYTE   W36
 BYTE   N06
 BYTE   W06
 BYTE   Fn1
 BYTE   W06
 BYTE   PAN   c_v+32
 BYTE   N12  Cn2  v127
 BYTE   W12
// 017   ----------------------------------------
 BYTE   PAN   c_v-32
 BYTE   N12  Fn1  v127
 BYTE   W12
 BYTE   PAN   c_v+32
 BYTE   N06  Cn2  v127
 BYTE   W06
 BYTE   Cn2
 BYTE   W06
 BYTE   PAN   c_v-32
 BYTE   N12  Cn1  v127
 BYTE   W12
 BYTE   PAN   c_v+32
 BYTE   GoTo
  POIN2 Label_5_0119CA64
 BYTE   FINE

//**************** Track 7 (Midi-Chn.6) ****************//

PokemonFRLGToFuchsiaDonkinDo_007:
// 000   ----------------------------------------
 BYTE   TEMPO   116*PokemonFRLGToFuchsiaDonkinDo_tbs/2
 BYTE   KEYSH   PokemonFRLGToFuchsiaDonkinDo_key+0
 BYTE   VOICE   44
 BYTE   VOL   70*PokemonFRLGToFuchsiaDonkinDo_mvl/mxv
 BYTE   PAN   c_v-25
 BYTE   W96
// 001   ----------------------------------------
 BYTE   N09  Cn2  v100
 BYTE   W18
 BYTE   N03  Cs2
 BYTE   W06
 BYTE   N48  Cn2
 BYTE   W48
 BYTE   N06  Fn2  v127
 BYTE   W06
 BYTE   Gn2
 BYTE   W06
 BYTE   Cn3
 BYTE   W06
 BYTE   En3
 BYTE   W06
// 002   ----------------------------------------
Label_6_0119CCB3:
 BYTE   N06  An1  v123
 BYTE   W06
 BYTE   Cn2
 BYTE   W06
 BYTE   Fn2
 BYTE   W06
 BYTE   Cn2
 BYTE   W06
 BYTE   An1
 BYTE   W06
 BYTE   Cn2
 BYTE   W06
 BYTE   Fn2
 BYTE   W06
 BYTE   An2
 BYTE   W06
 BYTE   An1
 BYTE   W06
 BYTE   Cn2
 BYTE   W06
 BYTE   Fn2
 BYTE   W06
 BYTE   An2
 BYTE   W06
 BYTE   Cn3
 BYTE   W06
 BYTE   As2
 BYTE   W06
 BYTE   An2
 BYTE   W06
 BYTE   Gs2
 BYTE   W06
// 003   ----------------------------------------
 BYTE   Gn2
 BYTE   W12
 BYTE   Ds2
 BYTE   W06
 BYTE   Gn2
 BYTE   W06
 BYTE   As2
 BYTE   W12
 BYTE   Gn2
 BYTE   W06
 BYTE   As2
 BYTE   W06
 BYTE   Ds3
 BYTE   W12
 BYTE   N03  As2
 BYTE   W03
 BYTE   Dn3
 BYTE   W03
 BYTE   Ds3
 BYTE   W03
 BYTE   Fn3
 BYTE   W03
 BYTE   N06  Gn3
 BYTE   W06
 BYTE   As3
 BYTE   W06
 BYTE   An3
 BYTE   W06
 BYTE   Gn3
 BYTE   W06
// 004   ----------------------------------------
 BYTE   N18  An3
 BYTE   W18
 BYTE   N06  Cn4
 BYTE   W06
 BYTE   N48  Fn4
 BYTE   W48
 BYTE   N06  Gn3
 BYTE   W12
 BYTE   N03  Cn3
 BYTE   W03
 BYTE   Fn3
 BYTE   W03
 BYTE   N06  Gn3
 BYTE   W06
// 005   ----------------------------------------
 BYTE   N48  An3
 BYTE   W48
 BYTE   N06  En3  v108
 BYTE   W12
 BYTE   Cn3
 BYTE   W06
 BYTE   N03  En3  v095
 BYTE   W03
 BYTE   Fn3
 BYTE   W03
 BYTE   N24  Gn3  v110
 BYTE   W24
// 006   ----------------------------------------
 BYTE   N06  An2  v123
 BYTE   W06
 BYTE   Cn2
 BYTE   W06
 BYTE   Fn2
 BYTE   W06
 BYTE   An1
 BYTE   W06
 BYTE   Cn2
 BYTE   W09
 BYTE   An1
 BYTE   W09
 BYTE   Fn1
 BYTE   W06
 BYTE   N03  Cn2
 BYTE   W03
 BYTE   Fn2
 BYTE   W03
 BYTE   Gn2
 BYTE   W03
 BYTE   An2
 BYTE   W03
 BYTE   As2
 BYTE   W03
 BYTE   Cn3
 BYTE   W03
 BYTE   Dn3
 BYTE   W03
 BYTE   En3
 BYTE   W03
 BYTE   Fn3
 BYTE   W03
 BYTE   En3
 BYTE   W03
 BYTE   Dn3
 BYTE   W03
 BYTE   Cn3
 BYTE   W03
 BYTE   As2
 BYTE   W03
 BYTE   An2
 BYTE   W03
 BYTE   Gn2
 BYTE   W03
 BYTE   Fs2
 BYTE   W03
// 007   ----------------------------------------
 BYTE   N24  Gn2
 BYTE   W24
 BYTE   An2
 BYTE   W24
 BYTE   As2
 BYTE   W24
 BYTE   N06  Ds3
 BYTE   W06
 BYTE   Gn3
 BYTE   W06
 BYTE   Fn3
 BYTE   W06
 BYTE   Ds3
 BYTE   W06
// 008   ----------------------------------------
 BYTE   N18  Fn2
 BYTE   W18
 BYTE   N06  An2
 BYTE   W06
 BYTE   N48  Cn3
 BYTE   W48
 BYTE   N06  An2
 BYTE   W12
 BYTE   Fn2
 BYTE   W06
 BYTE   N03  An2
 BYTE   W03
 BYTE   Cn3
 BYTE   W03
// 009   ----------------------------------------
 BYTE   N48  Fn3
 BYTE   W48
 BYTE   N06  An3
 BYTE   W12
 BYTE   Fn3
 BYTE   W06
 BYTE   N03  An3
 BYTE   W03
 BYTE   As3
 BYTE   W03
 BYTE   N24  Cn4
 BYTE   W24
// 010   ----------------------------------------
 BYTE   N06  As1
 BYTE   W06
 BYTE   Ds2
 BYTE   W06
 BYTE   Gn2
 BYTE   W06
 BYTE   Ds2
 BYTE   W06
 BYTE   Gn2
 BYTE   W06
 BYTE   Ds2
 BYTE   W06
 BYTE   As1
 BYTE   W06
 BYTE   Ds2
 BYTE   W06
 BYTE   Gn2
 BYTE   W06
 BYTE   Ds2
 BYTE   W06
 BYTE   Dn2
 BYTE   W06
 BYTE   Ds2
 BYTE   W06
 BYTE   Ds3
 BYTE   W06
 BYTE   As2
 BYTE   W06
 BYTE   Gn2
 BYTE   W06
 BYTE   As2
 BYTE   W06
// 011   ----------------------------------------
 BYTE   As1
 BYTE   W06
 BYTE   Ds2
 BYTE   W06
 BYTE   Gn2
 BYTE   W06
 BYTE   Ds2
 BYTE   W06
 BYTE   Gn2
 BYTE   W06
 BYTE   Ds2
 BYTE   W06
 BYTE   As1
 BYTE   W06
 BYTE   Ds2
 BYTE   W06
 BYTE   As2
 BYTE   W06
 BYTE   Gn2
 BYTE   W06
 BYTE   Ds2
 BYTE   W06
 BYTE   As2
 BYTE   W06
 BYTE   Cn3
 BYTE   W06
 BYTE   As2
 BYTE   W06
 BYTE   Gn2
 BYTE   W06
 BYTE   Cn3
 BYTE   W06
// 012   ----------------------------------------
 BYTE   An1
 BYTE   W06
 BYTE   Cn2
 BYTE   W06
 BYTE   Fn2
 BYTE   W06
 BYTE   Cn2
 BYTE   W06
 BYTE   Fn2
 BYTE   W06
 BYTE   Cn2
 BYTE   W06
 BYTE   An1
 BYTE   W06
 BYTE   Cn2
 BYTE   W06
 BYTE   An2
 BYTE   W06
 BYTE   Cn2
 BYTE   W06
 BYTE   An1
 BYTE   W06
 BYTE   En2
 BYTE   W06
 BYTE   Cn3
 BYTE   W06
 BYTE   An2
 BYTE   W06
 BYTE   Cn2
 BYTE   W06
 BYTE   Fn2
 BYTE   W06
// 013   ----------------------------------------
 BYTE   An1
 BYTE   W06
 BYTE   Cn2
 BYTE   W06
 BYTE   Fn2
 BYTE   W06
 BYTE   Cn2
 BYTE   W06
 BYTE   Fn2
 BYTE   W06
 BYTE   Cn2
 BYTE   W06
 BYTE   Fn2
 BYTE   W06
 BYTE   An2
 BYTE   W06
 BYTE   Cn3
 BYTE   W06
 BYTE   An2
 BYTE   W06
 BYTE   Cn3
 BYTE   W06
 BYTE   En3
 BYTE   W06
 BYTE   Fn3
 BYTE   W06
 BYTE   Cn3
 BYTE   W06
 BYTE   An2
 BYTE   W06
 BYTE   Fn2
 BYTE   W06
// 014   ----------------------------------------
 BYTE   En2
 BYTE   W06
 BYTE   Cn2
 BYTE   W06
 BYTE   En2
 BYTE   W06
 BYTE   Gn2
 BYTE   W06
 BYTE   En2
 BYTE   W06
 BYTE   Cn2
 BYTE   W06
 BYTE   En2
 BYTE   W06
 BYTE   Cn3
 BYTE   W06
 BYTE   En2
 BYTE   W06
 BYTE   Cn2
 BYTE   W06
 BYTE   En2
 BYTE   W06
 BYTE   Gn2
 BYTE   W06
 BYTE   En2
 BYTE   W06
 BYTE   Cn2
 BYTE   W06
 BYTE   En2
 BYTE   W06
 BYTE   Cn3
 BYTE   W06
// 015   ----------------------------------------
 BYTE   En2
 BYTE   W06
 BYTE   Cn2
 BYTE   W06
 BYTE   En2
 BYTE   W06
 BYTE   As2
 BYTE   W06
 BYTE   En3
 BYTE   W06
 BYTE   Cn3
 BYTE   W06
 BYTE   Gn2
 BYTE   W06
 BYTE   Cn3
 BYTE   W06
 BYTE   Gn2
 BYTE   W06
 BYTE   En2
 BYTE   W06
 BYTE   Gn2
 BYTE   W06
 BYTE   Cn3
 BYTE   W06
 BYTE   En2
 BYTE   W06
 BYTE   Dn2
 BYTE   W06
 BYTE   Cn2
 BYTE   W06
 BYTE   As1
 BYTE   W06
// 016   ----------------------------------------
 BYTE   An1
 BYTE   W06
 BYTE   Fn1
 BYTE   W06
 BYTE   An1
 BYTE   W06
 BYTE   Cn2
 BYTE   W06
 BYTE   An1
 BYTE   W06
 BYTE   Fn1
 BYTE   W06
 BYTE   An1
 BYTE   W06
 BYTE   Fn2
 BYTE   W06
 BYTE   An1
 BYTE   W06
 BYTE   Fn1
 BYTE   W06
 BYTE   An1
 BYTE   W06
 BYTE   Cn2
 BYTE   W06
 BYTE   An1
 BYTE   W06
 BYTE   Fn1
 BYTE   W06
 BYTE   An1
 BYTE   W06
 BYTE   Fn2
 BYTE   W06
// 017   ----------------------------------------
 BYTE   Cn2
 BYTE   W06
 BYTE   An1
 BYTE   W06
 BYTE   Cn2
 BYTE   W06
 BYTE   Fn2
 BYTE   W06
 BYTE   Cn2
 BYTE   W06
 BYTE   An1
 BYTE   W03
 BYTE   Cn2
 BYTE   W09
 BYTE   An2
 BYTE   W06
 BYTE   N03  Cn3
 BYTE   W03
 BYTE   As2
 BYTE   W03
 BYTE   An2
 BYTE   W03
 BYTE   Gn2
 BYTE   W03
 BYTE   Fn2
 BYTE   W03
 BYTE   En2
 BYTE   W03
 BYTE   Dn2
 BYTE   W03
 BYTE   Cn2
 BYTE   W03
 BYTE   As2
 BYTE   W03
 BYTE   An2
 BYTE   W03
 BYTE   Gn2
 BYTE   W03
 BYTE   Fn2
 BYTE   W03
 BYTE   En2
 BYTE   W03
 BYTE   Dn2
 BYTE   W03
 BYTE   Cn2
 BYTE   W03
 BYTE   As1
 BYTE   W03
// 018   ----------------------------------------
 BYTE   GoTo
  POIN2 Label_6_0119CCB3
 BYTE   FINE

//**************** Track 8 (Midi-Chn.7) ****************//

PokemonFRLGToFuchsiaDonkinDo_008:
// 000   ----------------------------------------
 BYTE   TEMPO   116*PokemonFRLGToFuchsiaDonkinDo_tbs/2
 BYTE   KEYSH   PokemonFRLGToFuchsiaDonkinDo_key+0
 BYTE   VOICE   1
 BYTE   VOL   28*PokemonFRLGToFuchsiaDonkinDo_mvl/mxv
 BYTE   PAN   c_v+0
 BYTE   W96
// 001   ----------------------------------------
 BYTE   N09  Fn2  v123
 BYTE   W18
 BYTE   N03  Gn2
 BYTE   W06
 BYTE   N48  Fn2
 BYTE   W72
// 002   ----------------------------------------
Label_7_0119CF01:
 BYTE   N36  An4  v123
 BYTE   W36
 BYTE   N12  Fn4
 BYTE   W12
 BYTE   N24
 BYTE   W24
 BYTE   Fn5
 BYTE   W24
// 003   ----------------------------------------
 BYTE   Ds5
 BYTE   W24
 BYTE   Dn5
 BYTE   W24
 BYTE   Cn5
 BYTE   W24
 BYTE   N06  Ds4
 BYTE   W06
 BYTE   Gn4
 BYTE   W06
 BYTE   Fn4
 BYTE   W06
 BYTE   Ds4
 BYTE   W06
// 004   ----------------------------------------
 BYTE   N18  Fn4
 BYTE   W18
 BYTE   N06  As3
 BYTE   W06
 BYTE   N72  Cn4
 BYTE   W72
// 005   ----------------------------------------
 BYTE   N09  Bn2
 BYTE   W18
 BYTE   N03  Cn3
 BYTE   W03
 BYTE   N36  Bn2
 BYTE   W36
 BYTE   W03
 BYTE   N06  An2
 BYTE   W06
 BYTE   Gn2
 BYTE   W06
 BYTE   N24  Dn2
 BYTE   W24
// 006   ----------------------------------------
 BYTE   N36  An4
 BYTE   W36
 BYTE   N06  Fn4
 BYTE   W06
 BYTE   Fn4
 BYTE   W06
 BYTE   An4
 BYTE   W12
 BYTE   Fn4
 BYTE   W06
 BYTE   N03  An4
 BYTE   W03
 BYTE   Cn5
 BYTE   W03
 BYTE   N24  Fn5
 BYTE   W24
// 007   ----------------------------------------
 BYTE   Ds5
 BYTE   W24
 BYTE   Dn5
 BYTE   W24
 BYTE   Cn5
 BYTE   W24
 BYTE   N06  Fn4
 BYTE   W06
 BYTE   An4
 BYTE   W06
 BYTE   Gn4
 BYTE   W03
 BYTE   Fn4
 BYTE   W09
// 008   ----------------------------------------
 BYTE   N18  An4
 BYTE   W18
 BYTE   N06  Gn4
 BYTE   W06
 BYTE   N30  Fn4
 BYTE   W30
 BYTE   N03  Gn4
 BYTE   W03
 BYTE   An4
 BYTE   W03
 BYTE   As4
 BYTE   W03
 BYTE   Cn5
 BYTE   W03
 BYTE   Dn5
 BYTE   W03
 BYTE   En5
 BYTE   W03
 BYTE   N96  Fn5
 BYTE   W96
// 009   ----------------------------------------
 BYTE   N06  Ds5
 BYTE   W06
 BYTE   Dn5
 BYTE   W06
 BYTE   Cn5
 BYTE   W06
 BYTE   Ds5
 BYTE   W06
 BYTE   N16  Gn4  v127
 BYTE   W16
 BYTE   Fn4
 BYTE   W16
 BYTE   Ds4
 BYTE   W16
 BYTE   N03  En4  v100
 BYTE   W03
 BYTE   N44  Ds4  v123
 BYTE   W96
// 010   ----------------------------------------
 BYTE   W21
 BYTE   N24  As3
 BYTE   W24
 BYTE   N16  Cn4  v127
 BYTE   W16
 BYTE   As3
 BYTE   W16
 BYTE   N13  An3
 BYTE   W16
 BYTE   N03  As3  v098
 BYTE   W03
// 011   ----------------------------------------
 BYTE   N44  An3  v123
 BYTE   W96
// 012   ----------------------------------------
 BYTE   W21
 BYTE   N24  An4
 BYTE   W24
 BYTE   N16  As4  v127
 BYTE   W16
 BYTE   Gn4
 BYTE   W16
 BYTE   En4
 BYTE   W16
 BYTE   N96  En5
 BYTE   W96
// 013   ----------------------------------------
 BYTE   N01
 BYTE   N48  Dn5
 BYTE   W48
 BYTE   N06  Cn5
 BYTE   W06
 BYTE   En5
 BYTE   W06
 BYTE   N24  Fn5  v123
 BYTE   W24
 BYTE   N06  En5
 BYTE   W06
 BYTE   Fn5
 BYTE   W06
// 014   ----------------------------------------
 BYTE   N42  Cn5
 BYTE   W42
 BYTE   N03  Dn5
 BYTE   W03
 BYTE   En5
 BYTE   W03
 BYTE   N44  Fn5
 BYTE   W44
 BYTE   W01
 BYTE   N03  Fs5
 BYTE   W03
// 015   ----------------------------------------
 BYTE   N48  Gn5
 BYTE   W48
 BYTE   GoTo
  POIN2 Label_7_0119CF01
 BYTE   FINE

//**************** Track 9 (Midi-Chn.8) ****************//

PokemonFRLGToFuchsiaDonkinDo_009:
// 000   ----------------------------------------
 BYTE   TEMPO   116*PokemonFRLGToFuchsiaDonkinDo_tbs/2
 BYTE   KEYSH   PokemonFRLGToFuchsiaDonkinDo_key+0
 BYTE   VOICE   15
 BYTE   VOL   69*PokemonFRLGToFuchsiaDonkinDo_mvl/mxv
 BYTE   PAN   c_v+0
 BYTE   W96
// 001   ----------------------------------------
 BYTE   W48
 BYTE   PAN   c_v+32
 BYTE   N48  Cn3  v123
 BYTE   W06
 BYTE   PAN   c_v+24
 BYTE   W06
 BYTE   PAN   c_v+16
 BYTE   W12
 BYTE   PAN   c_v-16
 BYTE   W06
 BYTE   PAN   c_v-24
 BYTE   W06
 BYTE   PAN   c_v-32
 BYTE   W12
// 002   ----------------------------------------
Label_8_0119D089:
 BYTE   VOL   77*PokemonFRLGToFuchsiaDonkinDo_mvl/mxv
 BYTE   PAN   c_v+0
 BYTE   N48  Gn2  v127
 BYTE   W48
 BYTE   VOL   69*PokemonFRLGToFuchsiaDonkinDo_mvl/mxv
 BYTE   W24
 BYTE   N24  Cs2  v123
 BYTE   W24
// 003   ----------------------------------------
 BYTE   N48  Bn2
 BYTE   W96
// 004   ----------------------------------------
 BYTE   W96
// 005   ----------------------------------------
 BYTE   W96
// 006   ----------------------------------------
 BYTE   Gn2
 BYTE   W72
 BYTE   N24  Cs2
 BYTE   W24
// 007   ----------------------------------------
 BYTE   N48  Bn2
 BYTE   W96
// 008   ----------------------------------------
 BYTE   W48
 BYTE   PAN   c_v-32
 BYTE   N48  Cn3  v123
 BYTE   W06
 BYTE   PAN   c_v-24
 BYTE   W06
 BYTE   PAN   c_v-16
 BYTE   W12
 BYTE   PAN   c_v+16
 BYTE   W06
 BYTE   PAN   c_v+24
 BYTE   W06
 BYTE   PAN   c_v+32
 BYTE   W12
// 009   ----------------------------------------
 BYTE   PAN   c_v+0
 BYTE   N48  Cs2  v123
 BYTE   W96
// 010   ----------------------------------------
 BYTE   W96
// 011   ----------------------------------------
 BYTE   W96
// 012   ----------------------------------------
 BYTE   W96
// 013   ----------------------------------------
 BYTE   W96
// 014   ----------------------------------------
 BYTE   W96
// 015   ----------------------------------------
 BYTE   W96
// 016   ----------------------------------------
 BYTE   W96
// 017   ----------------------------------------
 BYTE   W48
 BYTE   PAN   c_v+32
 BYTE   N48  Cn3  v123
 BYTE   W06
 BYTE   PAN   c_v+24
 BYTE   W06
 BYTE   PAN   c_v+16
 BYTE   W12
 BYTE   PAN   c_v-16
 BYTE   W06
 BYTE   PAN   c_v-24
 BYTE   W06
 BYTE   PAN   c_v-32
 BYTE   W12
// 018   ----------------------------------------
 BYTE   VOL   77*PokemonFRLGToFuchsiaDonkinDo_mvl/mxv
 BYTE   PAN   c_v+0
 BYTE   GoTo
  POIN2 Label_8_0119D089
 BYTE   FINE

//**************** Track 10 (Midi-Chn.9) ****************//

PokemonFRLGToFuchsiaDonkinDo_010:
// 000   ----------------------------------------
 BYTE   TEMPO   116*PokemonFRLGToFuchsiaDonkinDo_tbs/2
 BYTE   KEYSH   PokemonFRLGToFuchsiaDonkinDo_key+0
 BYTE   VOICE   13
 BYTE   VOL   39*PokemonFRLGToFuchsiaDonkinDo_mvl/mxv
 BYTE   PAN   c_v+0
 BYTE   W96
// 001   ----------------------------------------
 BYTE   W72
 BYTE   N01  An3  v119
 BYTE   W06
 BYTE   An3
 BYTE   W06
 BYTE   An3
 BYTE   W06
 BYTE   An3
 BYTE   W06
// 002   ----------------------------------------
Label_9_0119C71A:
 BYTE   N12  Gn3  v127
 BYTE   W24
 BYTE   N01  An3  v110
 BYTE   W06
 BYTE   An3
 BYTE   W06
 BYTE   An3
 BYTE   W06
 BYTE   An3
 BYTE   W06
 BYTE   N06  Gn3  v127
 BYTE   W12
 BYTE   Gn3
 BYTE   W12
 BYTE   N01  An3  v110
 BYTE   W06
 BYTE   An3
 BYTE   W06
 BYTE   An3
 BYTE   W06
 BYTE   An3
 BYTE   W06
// 003   ----------------------------------------
 BYTE   N06  Gn3  v127
 BYTE   W24
 BYTE   N01  An3  v110
 BYTE   W06
 BYTE   An3
 BYTE   W06
 BYTE   An3
 BYTE   W06
 BYTE   An3
 BYTE   W06
 BYTE   An3
 BYTE   W06
 BYTE   An3
 BYTE   W06
 BYTE   N06  Gn3  v127
 BYTE   W24
Label_9_0119C74E:
 BYTE   N06  Gn3  v127
 BYTE   W12
// 004   ----------------------------------------
 BYTE   Gn3
 BYTE   W24
 BYTE   N01  An3  v110
 BYTE   W06
 BYTE   An3
 BYTE   W06
 BYTE   An3
 BYTE   W06
 BYTE   An3
 BYTE   W06
 BYTE   N06  Gn3  v127
 BYTE   W12
 BYTE   Gn3
 BYTE   W12
 BYTE   N07  An3  v110
 BYTE   W12
 BYTE   PEND 
Label_9_0119C769:
 BYTE   N01  An3  v110
 BYTE   W06
 BYTE   An3
 BYTE   W06
// 005   ----------------------------------------
 BYTE   N06  Gn3  v127
 BYTE   W24
 BYTE   N01  An3  v110
 BYTE   W06
 BYTE   An3
 BYTE   W06
 BYTE   An3
 BYTE   W06
 BYTE   An3
 BYTE   W06
 BYTE   N06  Gn3  v127
 BYTE   W12
 BYTE   Gn3
 BYTE   W12
 BYTE   N01  An3  v110
 BYTE   W06
 BYTE   An3
 BYTE   W06
 BYTE   PEND 
// 006   ----------------------------------------
 BYTE   PATT
  POIN2 Label_9_0119C769
// 007   ----------------------------------------
Label_9_0119C78F:
 BYTE   N01  An3  v110
 BYTE   W06
 BYTE   An3
 BYTE   W06
 BYTE   N06  Gn3  v127
 BYTE   W24
 BYTE   N01  An3  v110
 BYTE   W06
 BYTE   An3
 BYTE   W06
 BYTE   An3
 BYTE   W06
 BYTE   An3
 BYTE   W06
 BYTE   An3
 BYTE   W06
 BYTE   An3
 BYTE   W06
 BYTE   N06  Gn3  v127
 BYTE   W24
 BYTE   PEND 
// 008   ----------------------------------------
 BYTE   PATT
  POIN2 Label_9_0119C74E
// 009   ----------------------------------------
 BYTE   PATT
  POIN2 Label_9_0119C769
// 010   ----------------------------------------
 BYTE   PATT
  POIN2 Label_9_0119C769
// 011   ----------------------------------------
 BYTE   PATT
  POIN2 Label_9_0119C78F
// 012   ----------------------------------------
 BYTE   PATT
  POIN2 Label_9_0119C74E
// 013   ----------------------------------------
 BYTE   PATT
  POIN2 Label_9_0119C769
// 014   ----------------------------------------
 BYTE   N01  An3  v110
 BYTE   W06
 BYTE   An3  v127
 BYTE   W06
 BYTE   N06  Gn3
 BYTE   W24
 BYTE   N01  An3  v110
 BYTE   W06
 BYTE   An3
 BYTE   W06
 BYTE   An3
 BYTE   W06
 BYTE   An3
 BYTE   W06
 BYTE   N06  Gn3  v127
 BYTE   W12
 BYTE   Gn3
 BYTE   W12
 BYTE   N01  An3  v110
 BYTE   W06
 BYTE   An3
 BYTE   W06
// 015   ----------------------------------------
 BYTE   PATT
  POIN2 Label_9_0119C78F
// 016   ----------------------------------------
 BYTE   PATT
  POIN2 Label_9_0119C74E
// 017   ----------------------------------------
 BYTE   N01  An3  v110
 BYTE   W06
 BYTE   An3
 BYTE   W06
 BYTE   N06  Gn3  v127
 BYTE   W24
 BYTE   N01  An3  v110
 BYTE   W06
 BYTE   An3
 BYTE   W06
 BYTE   An3
 BYTE   W06
 BYTE   An3
 BYTE   W06
 BYTE   N06  Gn3  v127
 BYTE   W12
 BYTE   Gn3
 BYTE   W12
 BYTE   Gn3
 BYTE   W12
// 018   ----------------------------------------
 BYTE   Gn3
 BYTE   W12
 BYTE   GoTo
  POIN2 Label_9_0119C71A
 BYTE   FINE

//******************************************************//
	ALIGN 4

PokemonFRLGToFuchsiaDonkinDo:
	BYTE	10	// NumTrks
	BYTE	0	// NumBlks
	BYTE	PokemonFRLGToFuchsiaDonkinDo_pri	// Priority
	BYTE	PokemonFRLGToFuchsiaDonkinDo_rev	// Reverb.
    
	POIN2	PokemonFRLGToFuchsiaDonkinDo_grp
    
	POIN2	PokemonFRLGToFuchsiaDonkinDo_001
	POIN2	PokemonFRLGToFuchsiaDonkinDo_002
	POIN2	PokemonFRLGToFuchsiaDonkinDo_003
	POIN2	PokemonFRLGToFuchsiaDonkinDo_004
	POIN2	PokemonFRLGToFuchsiaDonkinDo_005
	POIN2	PokemonFRLGToFuchsiaDonkinDo_006
	POIN2	PokemonFRLGToFuchsiaDonkinDo_007
	POIN2	PokemonFRLGToFuchsiaDonkinDo_008
	POIN2	PokemonFRLGToFuchsiaDonkinDo_009
	POIN2	PokemonFRLGToFuchsiaDonkinDo_010

	
