//Event file generated from Sappy .s format.
	#include "MPlayDef.event"

	#define	PokemonMDExplorersBossBattleRandomWizard_grp  voicegroup000
	#define	PokemonMDExplorersBossBattleRandomWizard_pri  0
	#define	PokemonMDExplorersBossBattleRandomWizard_rev  0
	#define	PokemonMDExplorersBossBattleRandomWizard_mvl  127
	#define	PokemonMDExplorersBossBattleRandomWizard_key  0
	#define	PokemonMDExplorersBossBattleRandomWizard_tbs  1
	#define	PokemonMDExplorersBossBattleRandomWizard_exg  0
	#define	PokemonMDExplorersBossBattleRandomWizard_cmp  1

	// .rodata
	//	PokemonMDExplorersBossBattleRandomWizard
	ALIGN 4


//**************** Track 1 (Midi-Chn.0) ****************//

PokemonMDExplorersBossBattleRandomWizard_001:
// 000   ----------------------------------------
 BYTE   VOL   40*PokemonMDExplorersBossBattleRandomWizard_mvl/mxv
 BYTE   KEYSH   PokemonMDExplorersBossBattleRandomWizard_key+0
Label_0_015D96D0:
 BYTE   TEMPO   108*PokemonMDExplorersBossBattleRandomWizard_tbs/2
 BYTE   VOICE   30
 BYTE   PAN   c_v-38
 BYTE   N05  Gn3  v080
 BYTE   N05  Gn4
 BYTE   W06
 BYTE   An2
 BYTE   N05  An3
 BYTE   W06
 BYTE   En3
 BYTE   N05  En4
 BYTE   W06
 BYTE   Gn3
 BYTE   N05  Gn4
 BYTE   W12
 BYTE   An2
 BYTE   N05  An3
 BYTE   W06
 BYTE   En3
 BYTE   N05  En4
 BYTE   W06
 BYTE   Gn3
 BYTE   N05  Gn4
 BYTE   W12
 BYTE   An2
 BYTE   N05  An3
 BYTE   W06
 BYTE   En3
 BYTE   N05  En4
 BYTE   W06
 BYTE   Gn3
 BYTE   N05  Gn4
 BYTE   W06
Label_0_015D9700:
 BYTE   N05  Fn3  v080
 BYTE   N05  Fn4
 BYTE   W06
 BYTE   As2
 BYTE   N05  As3
 BYTE   W06
 BYTE   Dn3
 BYTE   N05  Dn4
 BYTE   W06
 BYTE   Fn3
 BYTE   N05  Fn4
 BYTE   W12
// 001   ----------------------------------------
 BYTE   As2
 BYTE   N05  As3
 BYTE   W06
 BYTE   Dn3
 BYTE   N05  Dn4
 BYTE   W06
 BYTE   Fn3
 BYTE   N05  Fn4
 BYTE   W12
 BYTE   As2
 BYTE   N05  As3
 BYTE   W06
 BYTE   Dn3
 BYTE   N05  Dn4
 BYTE   W06
 BYTE   Fn3
 BYTE   N05  Fn4
 BYTE   W06
 BYTE   PEND 
Label_0_015D972B:
 BYTE   N05  Gn3  v080
 BYTE   N05  Gn4
 BYTE   W06
 BYTE   An2
 BYTE   N05  An3
 BYTE   W06
 BYTE   En3
 BYTE   N05  En4
 BYTE   W06
 BYTE   Gn3
 BYTE   N05  Gn4
 BYTE   W12
 BYTE   An2
 BYTE   N05  An3
 BYTE   W06
 BYTE   En3
 BYTE   N05  En4
 BYTE   W06
 BYTE   Gn3
 BYTE   N05  Gn4
 BYTE   W12
// 002   ----------------------------------------
 BYTE   An2
 BYTE   N05  An3
 BYTE   W06
 BYTE   En3
 BYTE   N05  En4
 BYTE   W06
 BYTE   Gn3
 BYTE   N05  Gn4
 BYTE   W06
 BYTE   PEND 
 BYTE   PATT
  POIN2 Label_0_015D9700
 BYTE   PATT
  POIN2 Label_0_015D972B
 BYTE   PATT
  POIN2 Label_0_015D9700
 BYTE   PATT
  POIN2 Label_0_015D972B
// 003   ----------------------------------------
 BYTE   N05  En3  v080
 BYTE   N05  En4
 BYTE   W06
 BYTE   An2
 BYTE   N05  An3
 BYTE   W06
 BYTE   Cn3
 BYTE   N05  Cn4
 BYTE   W06
 BYTE   En3
 BYTE   N05  En4
 BYTE   W12
 BYTE   An2
 BYTE   N05  An3
 BYTE   W06
 BYTE   Fn3
 BYTE   N05  Fn4
 BYTE   W12
 BYTE   En3
 BYTE   N05  En4
 BYTE   W12
 BYTE   Ds3
 BYTE   N05  Ds4
 BYTE   W12
Label_0_015D978C:
 BYTE   N05  Dn2  v080
 BYTE   TIE  En4
 BYTE   W06
 BYTE   N05  Dn2
 BYTE   W06
 BYTE   N05
 BYTE   W06
 BYTE   N05
 BYTE   W12
// 004   ----------------------------------------
 BYTE   An1
 BYTE   W06
 BYTE   Cn2
 BYTE   W06
 BYTE   Fn2
 BYTE   W06
 BYTE   En2
 BYTE   W06
 BYTE   Cn2
 BYTE   W06
 BYTE   An1
 BYTE   W06
 BYTE   Cn2
 BYTE   W06
 BYTE   PEND 
 BYTE   Dn2
 BYTE   W06
 BYTE   An1
 BYTE   W06
 BYTE   En3
 BYTE   W06
 BYTE   Dn3
 BYTE   W12
 BYTE   Fn2
 BYTE   W06
 BYTE   En2
 BYTE   W06
 BYTE   An1
 BYTE   W06
 BYTE   Cn2
 BYTE   W06
// 005   ----------------------------------------
 BYTE   An1
 BYTE   W05
 BYTE   EOT
 BYTE   En4
 BYTE   W01
 BYTE   N05  En2
 BYTE   N11  Fn4
 BYTE   W06
 BYTE   N05  Cn2
 BYTE   W06
 BYTE   PATT
  POIN2 Label_0_015D978C
// 006   ----------------------------------------
 BYTE   N05  Dn2  v080
 BYTE   W06
 BYTE   An1
 BYTE   W06
 BYTE   Fn3
 BYTE   W06
 BYTE   Gn3
 BYTE   W12
 BYTE   Fn3
 BYTE   W06
 BYTE   En3
 BYTE   W06
 BYTE   An1
 BYTE   W06
 BYTE   Cn2
 BYTE   W06
 BYTE   An1
 BYTE   W05
 BYTE   EOT
 BYTE   En4
 BYTE   W01
 BYTE   N05  En2
 BYTE   W06
 BYTE   Cn2
 BYTE   W06
Label_0_015D97E6:
 BYTE   N05  An3  v080
 BYTE   W06
 BYTE   Dn3
 BYTE   W06
 BYTE   Fn3
 BYTE   W06
 BYTE   An3
 BYTE   W12
// 007   ----------------------------------------
 BYTE   Dn3
 BYTE   W06
 BYTE   Fn3
 BYTE   W06
 BYTE   An3
 BYTE   W12
 BYTE   Dn3
 BYTE   W06
 BYTE   Fn3
 BYTE   W06
 BYTE   An3
 BYTE   W06
 BYTE   PEND 
Label_0_015D97FD:
 BYTE   N05  Bn3  v080
 BYTE   W06
 BYTE   En3
 BYTE   W06
 BYTE   Gn3
 BYTE   W06
 BYTE   Bn3
 BYTE   W12
 BYTE   En3
 BYTE   W06
 BYTE   Gn3
 BYTE   W06
 BYTE   Bn3
 BYTE   W12
// 008   ----------------------------------------
 BYTE   En3
 BYTE   W06
 BYTE   Gn3
 BYTE   W06
 BYTE   Bn3
 BYTE   W06
 BYTE   PEND 
 BYTE   An2
 BYTE   W03
 BYTE   Fn2
 BYTE   W03
 BYTE   Dn2
 BYTE   W03
 BYTE   An1
 BYTE   W09
 BYTE   Bn2
 BYTE   W03
 BYTE   Gn2
 BYTE   W03
 BYTE   En2
 BYTE   W03
 BYTE   Bn1
 BYTE   W09
 BYTE   Cn3
 BYTE   W03
 BYTE   An2
 BYTE   W03
 BYTE   Fn2
 BYTE   W03
 BYTE   Cn2
 BYTE   W03
 BYTE   Dn3
 BYTE   W03
 BYTE   Bn2
 BYTE   W03
 BYTE   Gn2
 BYTE   W03
 BYTE   Dn2
 BYTE   W03
 BYTE   En3
 BYTE   W03
 BYTE   Cn3
 BYTE   W03
 BYTE   An2
 BYTE   W03
 BYTE   En2
 BYTE   W03
 BYTE   Gn3
 BYTE   W03
 BYTE   En3
 BYTE   W03
// 009   ----------------------------------------
 BYTE   Cn3
 BYTE   W03
 BYTE   Gn2
 BYTE   W09
 BYTE   En3
 BYTE   W03
 BYTE   Cn3
 BYTE   W03
 BYTE   An2
 BYTE   W03
 BYTE   En2
 BYTE   W09
 BYTE   An3
 BYTE   W06
 BYTE   Cn4
 BYTE   W06
 BYTE   Bn3
 BYTE   W06
 BYTE   Gn3
 BYTE   W06
 BYTE   An3
 BYTE   W06
 BYTE   Dn3
 BYTE   W06
 BYTE   PATT
  POIN2 Label_0_015D97E6
 BYTE   PATT
  POIN2 Label_0_015D97FD
// 010   ----------------------------------------
 BYTE   N05  Fn3  v080
 BYTE   W06
 BYTE   An3
 BYTE   W06
 BYTE   Cn4
 BYTE   W06
 BYTE   Fn3
 BYTE   W06
 BYTE   An3
 BYTE   W06
 BYTE   Cn4
 BYTE   W06
 BYTE   Fn3
 BYTE   W06
 BYTE   An3
 BYTE   W06
 BYTE   Cn4
 BYTE   W06
 BYTE   Fn3
 BYTE   W06
 BYTE   Bn3
 BYTE   W06
 BYTE   Cn4
 BYTE   W06
 BYTE   Gn3
 BYTE   W06
 BYTE   Bn3
 BYTE   W06
 BYTE   Dn4
 BYTE   W06
 BYTE   Gn3
 BYTE   W06
// 011   ----------------------------------------
 BYTE   Bn3
 BYTE   W06
 BYTE   Dn4
 BYTE   W06
 BYTE   Gn3
 BYTE   W06
 BYTE   Bn3
 BYTE   W06
 BYTE   Dn4
 BYTE   W06
 BYTE   Gn3
 BYTE   W06
 BYTE   Cn4
 BYTE   W06
 BYTE   Dn4
 BYTE   W06
 BYTE   Gs3
 BYTE   W06
 BYTE   Cn4
 BYTE   W06
 BYTE   Ds4
 BYTE   W06
 BYTE   Gs3
 BYTE   W06
 BYTE   Cn4
 BYTE   W06
 BYTE   Ds4
 BYTE   W06
 BYTE   Gs3
 BYTE   W06
 BYTE   Cn4
 BYTE   W06
// 012   ----------------------------------------
 BYTE   Ds4
 BYTE   W06
 BYTE   Gs3
 BYTE   W06
 BYTE   Cn4
 BYTE   W06
 BYTE   Ds4
 BYTE   W06
 BYTE   Fn3
 BYTE   W06
 BYTE   As3
 BYTE   W06
 BYTE   Dn4
 BYTE   W06
 BYTE   Fn3
 BYTE   W06
 BYTE   As3
 BYTE   W06
 BYTE   Dn4
 BYTE   W06
 BYTE   Fn3
 BYTE   W06
 BYTE   As3
 BYTE   W06
 BYTE   Dn4
 BYTE   W06
 BYTE   Fn3
 BYTE   W06
 BYTE   En4
 BYTE   W06
 BYTE   Fn4
 BYTE   W06
// 013   ----------------------------------------
 BYTE   TIE  En4
 BYTE   W72
 BYTE   W56
// 014   ----------------------------------------
 BYTE   W03
 BYTE   EOT
 BYTE   W01
 BYTE   N11  Fn4
 BYTE   W12
 BYTE   N92  En4
 BYTE   W72
 BYTE   W24
// 015   ----------------------------------------
 BYTE   N02
 BYTE   W03
 BYTE   Fn4
 BYTE   W03
 BYTE   En4
 BYTE   W03
 BYTE   Fn4
 BYTE   W03
 BYTE   En4
 BYTE   W03
 BYTE   Fn4
 BYTE   W03
 BYTE   En4
 BYTE   W03
 BYTE   Fn4
 BYTE   W03
 BYTE   En4
 BYTE   W03
 BYTE   Fn4
 BYTE   W03
 BYTE   En4
 BYTE   W03
 BYTE   Fn4
 BYTE   W03
 BYTE   En4
 BYTE   W03
 BYTE   Fn4
 BYTE   W03
 BYTE   En4
 BYTE   W03
 BYTE   Fn4
 BYTE   W02
 BYTE   GoTo
  POIN2 Label_0_015D96D0
 BYTE   FINE

//**************** Track 2 (Midi-Chn.1) ****************//

PokemonMDExplorersBossBattleRandomWizard_002:
// 000   ----------------------------------------
 BYTE   VOL   40*PokemonMDExplorersBossBattleRandomWizard_mvl/mxv
 BYTE   KEYSH   PokemonMDExplorersBossBattleRandomWizard_key+0
Label_1_015DAD10:
 BYTE   VOICE   39
 BYTE   N05  Dn1  v116
 BYTE   W06
 BYTE   N05
 BYTE   W12
 BYTE   N05
 BYTE   W06
 BYTE   N05
 BYTE   W12
 BYTE   N05
 BYTE   W06
 BYTE   N05
 BYTE   W12
 BYTE   N05
 BYTE   W06
 BYTE   N05
 BYTE   W12
Label_1_015DAD24:
 BYTE   N05  Cn1  v116
 BYTE   W06
 BYTE   N05
 BYTE   W12
 BYTE   N05
 BYTE   W06
// 001   ----------------------------------------
 BYTE   N05
 BYTE   W12
 BYTE   N05
 BYTE   W06
 BYTE   N05
 BYTE   W12
 BYTE   N05
 BYTE   W06
 BYTE   N05
 BYTE   W12
 BYTE   PEND 
 BYTE   Dn1
 BYTE   W06
 BYTE   N05
 BYTE   W12
 BYTE   N05
 BYTE   W06
 BYTE   N05
 BYTE   W12
 BYTE   N05
 BYTE   W06
 BYTE   N05
 BYTE   W12
// 002   ----------------------------------------
 BYTE   N05
 BYTE   W06
 BYTE   N05
 BYTE   W12
 BYTE   PATT
  POIN2 Label_1_015DAD24
// 003   ----------------------------------------
Label_1_015DAD4C:
 BYTE   N05  Dn1  v116
 BYTE   W06
 BYTE   N05
 BYTE   W06
 BYTE   Dn2
 BYTE   W06
 BYTE   Dn1
 BYTE   W06
 BYTE   N05
 BYTE   W06
 BYTE   Dn2
 BYTE   W06
 BYTE   Dn1
 BYTE   W06
 BYTE   N05
 BYTE   W06
 BYTE   Dn2
 BYTE   W06
 BYTE   Dn1
 BYTE   W06
 BYTE   N05
 BYTE   W06
 BYTE   Dn2
 BYTE   W06
 BYTE   PEND 
 BYTE   Cn1
 BYTE   W06
 BYTE   N05
 BYTE   W06
 BYTE   Cn2
 BYTE   W06
 BYTE   Cn1
 BYTE   W06
// 004   ----------------------------------------
 BYTE   N05
 BYTE   W06
 BYTE   Cn2
 BYTE   W06
 BYTE   Cn1
 BYTE   W06
 BYTE   N05
 BYTE   W06
 BYTE   Cn2
 BYTE   W06
 BYTE   Cn1
 BYTE   W06
 BYTE   N05
 BYTE   W12
 BYTE   PATT
  POIN2 Label_1_015DAD4C
// 005   ----------------------------------------
 BYTE   N11  Cn1  v116
 BYTE   W18
 BYTE   An0
 BYTE   W12
 BYTE   An1
 BYTE   W18
 BYTE   An0
 BYTE   W12
 BYTE   Cn1
 BYTE   W12
Label_1_015DAD8E:
 BYTE   N05  Dn1  v116
 BYTE   W06
 BYTE   N05
 BYTE   W06
 BYTE   N05
 BYTE   W06
 BYTE   N05
 BYTE   W12
// 006   ----------------------------------------
 BYTE   An0
 BYTE   W06
 BYTE   Cn1
 BYTE   W06
 BYTE   Fn1
 BYTE   W06
 BYTE   En1
 BYTE   W06
 BYTE   Cn1
 BYTE   W06
 BYTE   An0
 BYTE   W06
 BYTE   Cn1
 BYTE   W06
 BYTE   PEND 
 BYTE   Dn1
 BYTE   W06
 BYTE   An0
 BYTE   W06
 BYTE   En2
 BYTE   W06
 BYTE   Dn2
 BYTE   W12
 BYTE   Fn1
 BYTE   W06
 BYTE   En1
 BYTE   W06
 BYTE   An0
 BYTE   W06
 BYTE   Cn1
 BYTE   W06
// 007   ----------------------------------------
 BYTE   An0
 BYTE   W06
 BYTE   En1
 BYTE   W06
 BYTE   Cn1
 BYTE   W06
 BYTE   PATT
  POIN2 Label_1_015DAD8E
// 008   ----------------------------------------
 BYTE   N05  Dn1  v116
 BYTE   W06
 BYTE   An0
 BYTE   W06
 BYTE   Fn2
 BYTE   W06
 BYTE   Gn2
 BYTE   W12
 BYTE   Fn2
 BYTE   W06
 BYTE   En2
 BYTE   W06
 BYTE   An0
 BYTE   W06
 BYTE   Cn1
 BYTE   W06
 BYTE   An0
 BYTE   W06
 BYTE   En1
 BYTE   W06
 BYTE   Cn1
 BYTE   W06
 BYTE   As0
 BYTE   W06
 BYTE   Fn1
 BYTE   W06
 BYTE   As1
 BYTE   W06
 BYTE   As0
 BYTE   W06
// 009   ----------------------------------------
 BYTE   Fn1
 BYTE   W06
 BYTE   As1
 BYTE   W06
 BYTE   As0
 BYTE   W06
 BYTE   Fn1
 BYTE   W06
 BYTE   As1
 BYTE   W06
 BYTE   Cn2
 BYTE   W06
 BYTE   As1
 BYTE   W06
 BYTE   Fn1
 BYTE   W06
 BYTE   An0
 BYTE   W06
 BYTE   En1
 BYTE   W06
 BYTE   An1
 BYTE   W06
 BYTE   An0
 BYTE   W06
 BYTE   En1
 BYTE   W06
 BYTE   An1
 BYTE   W06
 BYTE   An0
 BYTE   W06
 BYTE   En1
 BYTE   W06
// 010   ----------------------------------------
 BYTE   An1
 BYTE   W06
 BYTE   Bn1
 BYTE   W06
 BYTE   An1
 BYTE   W06
 BYTE   En1
 BYTE   W06
 BYTE   Dn1
 BYTE   W06
 BYTE   N05
 BYTE   W06
 BYTE   Dn2
 BYTE   W06
 BYTE   Dn1
 BYTE   W06
 BYTE   N05
 BYTE   W06
 BYTE   Dn2
 BYTE   W06
 BYTE   Dn1
 BYTE   W06
 BYTE   An1
 BYTE   W06
 BYTE   Dn1
 BYTE   W06
 BYTE   N05
 BYTE   W06
 BYTE   An1
 BYTE   W06
 BYTE   Cn2
 BYTE   W06
// 011   ----------------------------------------
 BYTE   Dn1
 BYTE   W06
 BYTE   N05
 BYTE   W06
 BYTE   Dn2
 BYTE   W06
 BYTE   Dn1
 BYTE   W06
 BYTE   N05
 BYTE   W06
 BYTE   Dn2
 BYTE   W06
 BYTE   Dn1
 BYTE   W06
 BYTE   Dn2
 BYTE   W06
 BYTE   Dn1
 BYTE   W06
 BYTE   Dn2
 BYTE   W06
 BYTE   Cn1
 BYTE   W06
 BYTE   Cn2
 BYTE   W06
 BYTE   N17  As0
 BYTE   W18
 BYTE   Fn1
 BYTE   W18
// 012   ----------------------------------------
 BYTE   N11  As0
 BYTE   W12
 BYTE   Fn1
 BYTE   W12
 BYTE   As0
 BYTE   W12
 BYTE   N17  An0
 BYTE   W18
 BYTE   En1
 BYTE   W18
 BYTE   N11  An0
 BYTE   W12
 BYTE   En1
 BYTE   W12
// 013   ----------------------------------------
 BYTE   An0
 BYTE   W12
 BYTE   N17  Gn0
 BYTE   W18
 BYTE   Dn1
 BYTE   W18
 BYTE   N11  Gn1
 BYTE   W12
 BYTE   Dn1
 BYTE   W12
 BYTE   Gn0
 BYTE   W12
 BYTE   N17  An0
 BYTE   W18
// 014   ----------------------------------------
 BYTE   En1
 BYTE   W18
 BYTE   N11  An1
 BYTE   W12
 BYTE   En1
 BYTE   W12
 BYTE   An0
 BYTE   W12
 BYTE   N17  As0
 BYTE   W18
 BYTE   Fn1
 BYTE   W18
 BYTE   N11  As1
 BYTE   W12
// 015   ----------------------------------------
 BYTE   Fn1
 BYTE   W12
 BYTE   As0
 BYTE   W12
 BYTE   N17  Cn1
 BYTE   W18
 BYTE   Gn1
 BYTE   W18
 BYTE   N11  Cn2
 BYTE   W12
 BYTE   Gn1
 BYTE   W12
 BYTE   Cn1
 BYTE   W12
// 016   ----------------------------------------
 BYTE   TIE  Dn1
 BYTE   W72
 BYTE   W56
// 017   ----------------------------------------
 BYTE   W03
 BYTE   EOT
 BYTE   W01
 BYTE   N05  Ds1
 BYTE   W12
 BYTE   Dn1
 BYTE   W06
 BYTE   Dn1  v096
 BYTE   W06
 BYTE   Dn1  v076
 BYTE   W06
 BYTE   Dn1  v116
 BYTE   W06
 BYTE   Dn1  v092
 BYTE   W06
 BYTE   Dn1  v080
 BYTE   W06
 BYTE   Dn1  v116
 BYTE   W06
 BYTE   Dn1  v088
 BYTE   W06
 BYTE   Dn1  v076
 BYTE   W06
 BYTE   Dn1  v116
 BYTE   W06
 BYTE   Dn1  v092
 BYTE   W06
 BYTE   Dn1  v080
 BYTE   W06
 BYTE   Dn1  v116
 BYTE   W06
 BYTE   Dn1  v092
 BYTE   W06
// 018   ----------------------------------------
 BYTE   Dn1  v084
 BYTE   W06
 BYTE   Dn1  v116
 BYTE   W06
 BYTE   Dn1  v092
 BYTE   W06
 BYTE   Dn1  v084
 BYTE   W06
 BYTE   Dn1  v116
 BYTE   W06
 BYTE   Cn1
 BYTE   W06
 BYTE   Dn1
 BYTE   W06
 BYTE   Gn1
 BYTE   W12
 BYTE   En1
 BYTE   W05
 BYTE   GoTo
  POIN2 Label_1_015DAD10
 BYTE   FINE

//**************** Track 3 (Midi-Chn.2) ****************//

PokemonMDExplorersBossBattleRandomWizard_003:
// 000   ----------------------------------------
 BYTE   VOL   40*PokemonMDExplorersBossBattleRandomWizard_mvl/mxv
 BYTE   KEYSH   PokemonMDExplorersBossBattleRandomWizard_key+0
Label_2_015DAED8:
 BYTE   VOICE   18
 BYTE   PAN   c_v+43
 BYTE   N05  Gn4  v080
 BYTE   W06
 BYTE   An3
 BYTE   W06
 BYTE   En4
 BYTE   W06
 BYTE   Gn4
 BYTE   W12
 BYTE   An3
 BYTE   W06
 BYTE   En4
 BYTE   W06
 BYTE   Gn4
 BYTE   W12
 BYTE   An3
 BYTE   W06
 BYTE   En4
 BYTE   W06
 BYTE   Gn4
 BYTE   W06
Label_2_015DAEF2:
 BYTE   N05  Fn4  v080
 BYTE   W06
 BYTE   As3
 BYTE   W06
 BYTE   Dn4
 BYTE   W06
 BYTE   Fn4
 BYTE   W12
// 001   ----------------------------------------
 BYTE   As3
 BYTE   W06
 BYTE   Dn4
 BYTE   W06
 BYTE   Fn4
 BYTE   W12
 BYTE   As3
 BYTE   W06
 BYTE   Dn4
 BYTE   W06
 BYTE   Fn4
 BYTE   W06
 BYTE   PEND 
Label_2_015DAF09:
 BYTE   N05  Gn4  v080
 BYTE   W06
 BYTE   An3
 BYTE   W06
 BYTE   En4
 BYTE   W06
 BYTE   Gn4
 BYTE   W12
 BYTE   An3
 BYTE   W06
 BYTE   En4
 BYTE   W06
 BYTE   Gn4
 BYTE   W12
// 002   ----------------------------------------
 BYTE   An3
 BYTE   W06
 BYTE   En4
 BYTE   W06
 BYTE   Gn4
 BYTE   W06
 BYTE   PEND 
 BYTE   Fn4
 BYTE   W06
 BYTE   As3
 BYTE   W06
 BYTE   Dn4
 BYTE   W06
 BYTE   Fn4
 BYTE   W12
 BYTE   As3
 BYTE   W06
 BYTE   Dn4
 BYTE   W06
 BYTE   Fn4
 BYTE   W06
 BYTE   N02  As3
 BYTE   W03
 BYTE   Cn4
 BYTE   W03
 BYTE   Dn4
 BYTE   W03
 BYTE   En4
 BYTE   W03
 BYTE   Fn4
 BYTE   W03
 BYTE   Gn4
 BYTE   W03
 BYTE   Cn5
 BYTE   W03
 BYTE   Dn5
 BYTE   W03
 BYTE   PATT
  POIN2 Label_2_015DAF09
 BYTE   PATT
  POIN2 Label_2_015DAEF2
 BYTE   PATT
  POIN2 Label_2_015DAF09
// 003   ----------------------------------------
 BYTE   N05  En4  v080
 BYTE   W06
 BYTE   An3
 BYTE   W06
 BYTE   Cn4
 BYTE   W06
 BYTE   En4
 BYTE   W18
 BYTE   Fn4
 BYTE   W12
 BYTE   En4
 BYTE   W12
 BYTE   Ds4
 BYTE   W12
 BYTE   N92  Cn4
 BYTE   W72
// 004   ----------------------------------------
Label_2_015DAF61:
 BYTE   W36
 BYTE   N02  Cn4  v080
 BYTE   W03
 BYTE   An3
 BYTE   W03
 BYTE   Gn3
 BYTE   W03
 BYTE   Fn3
 BYTE   W03
 BYTE   En3
 BYTE   W03
 BYTE   Dn3
 BYTE   W03
 BYTE   Cn3
 BYTE   W03
 BYTE   Bn2
 BYTE   W03
 BYTE   An2
 BYTE   N11  Cs4
 BYTE   W12
 BYTE   PEND 
 BYTE   N92  Cn4
 BYTE   W72
// 005   ----------------------------------------
 BYTE   W72
Label_2_015DAF7D:
 BYTE   N05  An4  v080
 BYTE   W06
 BYTE   Dn4
 BYTE   W06
 BYTE   Fn4
 BYTE   W06
 BYTE   An4
 BYTE   W12
// 006   ----------------------------------------
 BYTE   Dn4
 BYTE   W06
 BYTE   Fn4
 BYTE   W06
 BYTE   An4
 BYTE   W12
 BYTE   Dn4
 BYTE   W06
 BYTE   Fn4
 BYTE   W06
 BYTE   An4
 BYTE   W06
 BYTE   PEND 
Label_2_015DAF94:
 BYTE   N05  Bn4  v080
 BYTE   W06
 BYTE   En4
 BYTE   W06
 BYTE   Gn4
 BYTE   W06
 BYTE   Bn4
 BYTE   W12
 BYTE   En4
 BYTE   W06
 BYTE   Gn4
 BYTE   W06
 BYTE   Bn4
 BYTE   W12
// 007   ----------------------------------------
 BYTE   En4
 BYTE   W06
 BYTE   Gn4
 BYTE   W06
 BYTE   Bn4
 BYTE   W06
 BYTE   PEND 
 BYTE   N17  An3
 BYTE   W18
 BYTE   Bn3
 BYTE   W18
 BYTE   N11  Cn4
 BYTE   W12
 BYTE   Dn4
 BYTE   W12
 BYTE   En4
 BYTE   W12
 BYTE   N17  Gn4
 BYTE   W18
// 008   ----------------------------------------
 BYTE   En4
 BYTE   W18
 BYTE   N05  An4
 BYTE   W06
 BYTE   Cn5
 BYTE   W06
 BYTE   Bn4
 BYTE   W06
 BYTE   Gn4
 BYTE   W06
 BYTE   An4
 BYTE   W12
 BYTE   PATT
  POIN2 Label_2_015DAF7D
 BYTE   PATT
  POIN2 Label_2_015DAF94
// 009   ----------------------------------------
 BYTE   N05  Fn4  v080
 BYTE   W06
 BYTE   An4
 BYTE   W06
 BYTE   Cn5
 BYTE   W06
 BYTE   Fn4
 BYTE   W06
 BYTE   An4
 BYTE   W06
 BYTE   Cn5
 BYTE   W06
 BYTE   Fn4
 BYTE   W06
 BYTE   An4
 BYTE   W06
 BYTE   Cn5
 BYTE   W06
 BYTE   Fn4
 BYTE   W06
 BYTE   Bn4
 BYTE   W06
 BYTE   Cn5
 BYTE   W06
 BYTE   Gn4
 BYTE   W06
 BYTE   Bn4
 BYTE   W06
 BYTE   Dn5
 BYTE   W06
 BYTE   Gn4
 BYTE   W06
// 010   ----------------------------------------
 BYTE   Bn4
 BYTE   W06
 BYTE   Dn5
 BYTE   W06
 BYTE   Gn4
 BYTE   W06
 BYTE   Bn4
 BYTE   W06
 BYTE   Dn5
 BYTE   W06
 BYTE   Gn4
 BYTE   W06
 BYTE   Cn5
 BYTE   W06
 BYTE   Dn5
 BYTE   W06
 BYTE   Ds4
 BYTE   W06
 BYTE   Gs4
 BYTE   W06
 BYTE   Cn5
 BYTE   W06
 BYTE   Ds4
 BYTE   W06
 BYTE   Gs4
 BYTE   W06
 BYTE   Cn5
 BYTE   W06
 BYTE   Ds4
 BYTE   W06
 BYTE   Gs4
 BYTE   W06
// 011   ----------------------------------------
 BYTE   Cn5
 BYTE   W06
 BYTE   Ds4
 BYTE   W06
 BYTE   Gs4
 BYTE   W06
 BYTE   Cn5
 BYTE   W06
 BYTE   As4
 BYTE   W06
 BYTE   Dn5
 BYTE   W06
 BYTE   Fn5
 BYTE   W06
 BYTE   As4
 BYTE   W06
 BYTE   Dn5
 BYTE   W06
 BYTE   Fn5
 BYTE   W06
 BYTE   As4
 BYTE   W06
 BYTE   Dn5
 BYTE   W06
 BYTE   Fn5
 BYTE   W06
 BYTE   As4
 BYTE   W06
 BYTE   En5
 BYTE   W06
 BYTE   Fn5
 BYTE   W06
// 012   ----------------------------------------
 BYTE   N92  Cn5
 BYTE   W72
 BYTE   PATT
  POIN2 Label_2_015DAF61
// 013   ----------------------------------------
 BYTE   TIE  Cn5  v080
 BYTE   W72
 BYTE   W68
// 014   ----------------------------------------
 BYTE   W03
 BYTE   EOT
 BYTE   GoTo
  POIN2 Label_2_015DAED8
 BYTE   FINE

//**************** Track 4 (Midi-Chn.3) ****************//

PokemonMDExplorersBossBattleRandomWizard_004:
// 000   ----------------------------------------
 BYTE   VOL   40*PokemonMDExplorersBossBattleRandomWizard_mvl/mxv
 BYTE   KEYSH   PokemonMDExplorersBossBattleRandomWizard_key+0
Label_3_015DB04C:
 BYTE   VOICE   40
 BYTE   N68  Dn2  v080
 BYTE   N68  An2
 BYTE   N68  Dn3
 BYTE   W72
Label_3_015DB056:
 BYTE   N68  Fn2  v080
 BYTE   N68  As2
 BYTE   N68  Ds3
 BYTE   W72
 BYTE   PEND 
// 001   ----------------------------------------
 BYTE   Dn2
 BYTE   N68  An2
 BYTE   N68  Dn3
 BYTE   W72
 BYTE   Ds2
 BYTE   N68  Gn2
 BYTE   N68  Cn3
 BYTE   W72
// 002   ----------------------------------------
Label_3_015DB06B:
 BYTE   N68  Fn2  v080
 BYTE   N68  An2
 BYTE   N68  Dn3
 BYTE   W72
 BYTE   PEND 
 BYTE   PATT
  POIN2 Label_3_015DB056
 BYTE   PATT
  POIN2 Label_3_015DB06B
// 003   ----------------------------------------
 BYTE   N68  En2  v080
 BYTE   N68  Gn2
 BYTE   N68  Cn3
 BYTE   W72
Label_3_015DB086:
 BYTE   TIE  An2  v080
 BYTE   TIE  En3
 BYTE   TIE  Gn3
 BYTE   TIE  En4
 BYTE   W72
 BYTE   PEND 
// 004   ----------------------------------------
 BYTE   W56
 BYTE   W03
 BYTE   EOT
 BYTE   An2  v064
 BYTE   Gn3  v076
 BYTE   W01
 BYTE   N11  As2
 BYTE   N11  Fn3
 BYTE   N11  Gs3
 BYTE   N11  Fn4
 BYTE   W12
 BYTE   PATT
  POIN2 Label_3_015DB086
// 005   ----------------------------------------
 BYTE   W56
 BYTE   W03
 BYTE   EOT
 BYTE   An2  v064
 BYTE   Gn3  v076
 BYTE   W13
Label_3_015DB0AF:
 BYTE   N44  Fn2  v080
 BYTE   N44  An2
 BYTE   N44  Dn3
 BYTE   W60
// 006   ----------------------------------------
 BYTE   N11  Fn2
 BYTE   N11  An2
 BYTE   N11  Dn3
 BYTE   W12
 BYTE   PEND 
 BYTE   N44  Gn2
 BYTE   N44  Bn2
 BYTE   N44  En3
 BYTE   W60
 BYTE   N11  Fn2
 BYTE   N11  An2
 BYTE   N11  Dn3
 BYTE   W12
 BYTE   N05  An2
 BYTE   W06
 BYTE   Fn2
 BYTE   W06
// 007   ----------------------------------------
 BYTE   Dn2
 BYTE   W06
 BYTE   Bn2
 BYTE   W06
 BYTE   Gn2
 BYTE   W06
 BYTE   En2
 BYTE   W06
 BYTE   Cn3
 BYTE   W06
 BYTE   An2
 BYTE   W06
 BYTE   Dn3
 BYTE   W06
 BYTE   Cn3
 BYTE   W06
 BYTE   En3
 BYTE   W06
 BYTE   Cn3
 BYTE   W06
 BYTE   Gn3
 BYTE   W06
 BYTE   En3
 BYTE   W06
 BYTE   Cn3
 BYTE   W06
 BYTE   En3
 BYTE   W06
 BYTE   Cn3
 BYTE   W06
 BYTE   An2
 BYTE   W06
// 008   ----------------------------------------
 BYTE   An3
 BYTE   W06
 BYTE   Cn4
 BYTE   W06
 BYTE   Bn3
 BYTE   W06
 BYTE   Gn3
 BYTE   W06
 BYTE   An3
 BYTE   W12
 BYTE   PATT
  POIN2 Label_3_015DB0AF
// 009   ----------------------------------------
 BYTE   N44  Gn2  v080
 BYTE   N44  Bn2
 BYTE   N44  En3
 BYTE   W60
 BYTE   N11  Gn2
 BYTE   N11  Bn2
 BYTE   N11  En3
 BYTE   W12
 BYTE   N44  An2
 BYTE   N44  Cn3
 BYTE   N44  Fn3
 BYTE   W60
// 010   ----------------------------------------
 BYTE   N11  An2
 BYTE   N11  Cn3
 BYTE   N11  Fn3
 BYTE   W12
 BYTE   N44  Bn2
 BYTE   N44  Dn3
 BYTE   N44  Gn3
 BYTE   W60
 BYTE   N11  Bn2
 BYTE   N11  Dn3
 BYTE   N11  Gn3
 BYTE   W12
 BYTE   N44  Cn3
 BYTE   N44  Ds3
 BYTE   N05  Gs3
 BYTE   W06
 BYTE   Cn4
 BYTE   W06
// 011   ----------------------------------------
 BYTE   Ds4
 BYTE   W06
 BYTE   Gs3
 BYTE   W06
 BYTE   Cn4
 BYTE   W06
 BYTE   Ds4
 BYTE   W06
 BYTE   Gs3
 BYTE   W06
 BYTE   Cn4
 BYTE   W06
 BYTE   Ds4
 BYTE   W06
 BYTE   Gs3
 BYTE   W06
 BYTE   N11  Cn3
 BYTE   N11  Ds3
 BYTE   N11  Gs3
 BYTE   N05  Cn4
 BYTE   W06
 BYTE   Ds4
 BYTE   W06
 BYTE   N44  Dn3
 BYTE   N44  Fn3
 BYTE   N44  As3
 BYTE   N05  As4
 BYTE   W06
 BYTE   Dn5
 BYTE   W06
 BYTE   Fn5
 BYTE   W06
 BYTE   As4
 BYTE   W06
 BYTE   Dn5
 BYTE   W06
 BYTE   Fn5
 BYTE   W06
// 012   ----------------------------------------
 BYTE   As4
 BYTE   W06
 BYTE   Dn5
 BYTE   W06
 BYTE   Fn5
 BYTE   W06
 BYTE   As4
 BYTE   W06
 BYTE   N11  Dn3
 BYTE   N11  Fn3
 BYTE   N11  As3
 BYTE   N05  En5
 BYTE   W06
 BYTE   Fn5
 BYTE   W06
 BYTE   PATT
  POIN2 Label_3_015DB086
// 013   ----------------------------------------
 BYTE   W56
 BYTE   W03
 BYTE   EOT
 BYTE   An2  v064
 BYTE   Gn3  v076
 BYTE   W01
 BYTE   N11  As2  v080
 BYTE   N11  Fn3
 BYTE   N11  Gs3
 BYTE   N11  Fn4
 BYTE   W12
 BYTE   TIE  An2
 BYTE   TIE  En3
 BYTE   TIE  Gn3
 BYTE   TIE  Cn4
 BYTE   W72
// 014   ----------------------------------------
 BYTE   W68
 BYTE   W03
 BYTE   EOT
 BYTE   An2  v064
 BYTE   Gn3  v072
 BYTE   GoTo
  POIN2 Label_3_015DB04C
 BYTE   FINE

//**************** Track 5 (Midi-Chn.4) ****************//

PokemonMDExplorersBossBattleRandomWizard_005:
// 000   ----------------------------------------
 BYTE   VOL   40*PokemonMDExplorersBossBattleRandomWizard_mvl/mxv
 BYTE   KEYSH   PokemonMDExplorersBossBattleRandomWizard_key+0
Label_4_015DB1A8:
 BYTE   VOICE   124
 BYTE   N05  Bn0  v080
 BYTE   N05  Cs2
 BYTE   N05  Ds2
 BYTE   W06
 BYTE   Bn0
 BYTE   W06
 BYTE   Ds2
 BYTE   W06
 BYTE   Bn0
 BYTE   N05  Ds2
 BYTE   W06
 BYTE   Bn0
 BYTE   N05  Ds2
 BYTE   W12
 BYTE   Bn0
 BYTE   N05  Ds2
 BYTE   W06
 BYTE   Bn0
 BYTE   N05  Ds2
 BYTE   W06
 BYTE   N05
 BYTE   W06
 BYTE   Bn0
 BYTE   W06
 BYTE   N05
 BYTE   N05  En1
 BYTE   N05  Ds2
 BYTE   W06
 BYTE   N05
 BYTE   W06
Label_4_015DB1D2:
 BYTE   N05  Bn0  v080
 BYTE   N05  Ds2
 BYTE   W06
 BYTE   Bn0
 BYTE   W06
 BYTE   Ds2
 BYTE   W06
 BYTE   Bn0
 BYTE   N05  Ds2
 BYTE   W06
// 001   ----------------------------------------
 BYTE   Bn0
 BYTE   N05  Ds2
 BYTE   W12
 BYTE   Bn0
 BYTE   N05  Ds2
 BYTE   W06
 BYTE   Bn0
 BYTE   N05  Ds2
 BYTE   W06
 BYTE   N05
 BYTE   W06
 BYTE   Bn0
 BYTE   W06
 BYTE   N05
 BYTE   N05  Ds2
 BYTE   W06
 BYTE   N05
 BYTE   W06
 BYTE   PEND 
 BYTE   Bn0
 BYTE   N05  Cs2
 BYTE   N05  Ds2
 BYTE   W06
 BYTE   Bn0
 BYTE   W06
 BYTE   Ds2
 BYTE   W06
 BYTE   Bn0
 BYTE   N05  Ds2
 BYTE   W06
 BYTE   Bn0
 BYTE   N05  Ds2
 BYTE   W12
 BYTE   Bn0
 BYTE   N05  Ds2
 BYTE   W06
 BYTE   Bn0
 BYTE   N05  Ds2
 BYTE   W06
// 002   ----------------------------------------
 BYTE   N05
 BYTE   W06
 BYTE   Bn0
 BYTE   W06
 BYTE   N05
 BYTE   N05  En1
 BYTE   N05  Ds2
 BYTE   W06
 BYTE   N05
 BYTE   W06
 BYTE   PATT
  POIN2 Label_4_015DB1D2
// 003   ----------------------------------------
Label_4_015DB222:
 BYTE   N05  Bn0  v080
 BYTE   N05  En1
 BYTE   N05  Cs2
 BYTE   N05  Ds2
 BYTE   W06
 BYTE   Bn0
 BYTE   W06
 BYTE   Ds2
 BYTE   W06
 BYTE   Bn0
 BYTE   N05  En1
 BYTE   N05  Ds2
 BYTE   W06
 BYTE   Bn0
 BYTE   N05  Ds2
 BYTE   W12
 BYTE   Bn0
 BYTE   N05  En1
 BYTE   N05  Ds2
 BYTE   W06
 BYTE   Bn0
 BYTE   N05  Ds2
 BYTE   W06
 BYTE   N05
 BYTE   W06
 BYTE   Bn0
 BYTE   N05  En1
 BYTE   W06
 BYTE   Bn0
 BYTE   N05  Ds2
 BYTE   W06
 BYTE   N05
 BYTE   W06
 BYTE   PEND 
 BYTE   Bn0
 BYTE   N05  En1
 BYTE   N05  Ds2
 BYTE   W06
 BYTE   Bn0
 BYTE   W06
 BYTE   Ds2
 BYTE   W06
 BYTE   Bn0
 BYTE   N05  En1
 BYTE   N05  Ds2
 BYTE   W06
// 004   ----------------------------------------
 BYTE   Bn0
 BYTE   N05  Ds2
 BYTE   W12
 BYTE   Bn0
 BYTE   N05  En1
 BYTE   N05  Ds2
 BYTE   W06
 BYTE   Bn0
 BYTE   N05  Ds2
 BYTE   W06
 BYTE   N05
 BYTE   W06
 BYTE   Bn0
 BYTE   N05  En1
 BYTE   W06
 BYTE   Bn0
 BYTE   N05  Ds2
 BYTE   W06
 BYTE   N05
 BYTE   W06
 BYTE   PATT
  POIN2 Label_4_015DB222
// 005   ----------------------------------------
 BYTE   N05  Bn0  v080
 BYTE   N05  En1
 BYTE   N05  Ds2
 BYTE   W06
 BYTE   Bn0
 BYTE   W06
 BYTE   Ds2
 BYTE   W06
 BYTE   Bn0
 BYTE   N05  En1
 BYTE   N05  Ds2
 BYTE   W06
 BYTE   Bn0
 BYTE   N05  Ds2
 BYTE   W12
 BYTE   Bn0
 BYTE   N05  Ds2
 BYTE   W06
 BYTE   Bn0
 BYTE   N05  Ds2
 BYTE   W06
 BYTE   En1
 BYTE   N05  Ds2
 BYTE   W06
 BYTE   Bn0
 BYTE   W06
 BYTE   N05
 BYTE   N05  En1
 BYTE   N05  Ds2
 BYTE   W06
 BYTE   N05
 BYTE   W06
 BYTE   Cs2
 BYTE   W72
// 006   ----------------------------------------
 BYTE   W72
 BYTE   N05
 BYTE   W72
// 007   ----------------------------------------
 BYTE   W42
 BYTE   En1
 BYTE   W06
 BYTE   N02  Dn1
 BYTE   N05  En1
 BYTE   W06
 BYTE   N02  Dn1
 BYTE   N05  En1
 BYTE   W06
 BYTE   N02  Dn1
 BYTE   N05  En1
 BYTE   W06
 BYTE   N02  Dn1
 BYTE   N05  En1
 BYTE   W06
Label_4_015DB2C8:
 BYTE   N05  Cn1  v080
 BYTE   N02  Cs2
 BYTE   W06
 BYTE   N05  Cn1
 BYTE   W06
 BYTE   En1
 BYTE   W06
 BYTE   Cn1
 BYTE   W12
// 008   ----------------------------------------
 BYTE   N05
 BYTE   W06
 BYTE   En1
 BYTE   W06
 BYTE   Cn1
 BYTE   W06
 BYTE   N05
 BYTE   W06
 BYTE   N05
 BYTE   W06
 BYTE   En1
 BYTE   W06
 BYTE   N05
 BYTE   W06
 BYTE   PEND 
 BYTE   PATT
  POIN2 Label_4_015DB2C8
// 009   ----------------------------------------
 BYTE   N17  En1  v080
 BYTE   N05  Cs2
 BYTE   W18
 BYTE   N17  En1
 BYTE   W18
 BYTE   N11
 BYTE   W12
 BYTE   N11
 BYTE   W12
 BYTE   N11
 BYTE   W12
 BYTE   N17
 BYTE   W18
 BYTE   N17
 BYTE   W18
// 010   ----------------------------------------
 BYTE   N05  Cn1
 BYTE   N05  Dn1
 BYTE   N05  En1
 BYTE   W06
 BYTE   Dn1
 BYTE   N05  En1
 BYTE   W06
 BYTE   Cn1
 BYTE   N05  Dn1
 BYTE   N05  En1
 BYTE   W06
 BYTE   Dn1
 BYTE   N05  En1
 BYTE   W06
 BYTE   Cn1
 BYTE   N05  Dn1
 BYTE   N05  En1
 BYTE   W06
 BYTE   Dn1
 BYTE   N05  En1
 BYTE   W06
 BYTE   PATT
  POIN2 Label_4_015DB2C8
 BYTE   PATT
  POIN2 Label_4_015DB2C8
 BYTE   PATT
  POIN2 Label_4_015DB2C8
 BYTE   PATT
  POIN2 Label_4_015DB2C8
 BYTE   PATT
  POIN2 Label_4_015DB2C8
 BYTE   PATT
  POIN2 Label_4_015DB2C8
// 011   ----------------------------------------
 BYTE   N44  Cs2  v080
 BYTE   W72
 BYTE   W30
// 012   ----------------------------------------
 BYTE   N02  En1
 BYTE   W06
 BYTE   N02
 BYTE   W36
 BYTE   W60
// 013   ----------------------------------------
 BYTE   N11  Cn1
 BYTE   W12
 BYTE   N11
 BYTE   W12
 BYTE   N11
 BYTE   W24
 BYTE   N05  Cn1  v044
 BYTE   N05  Dn1
 BYTE   N05  En1
 BYTE   W06
 BYTE   Dn1  v048
 BYTE   N05  En1
 BYTE   W06
 BYTE   Cn1  v056
 BYTE   N05  Dn1
 BYTE   N05  En1
 BYTE   W06
 BYTE   Dn1  v060
 BYTE   N05  En1
 BYTE   W06
 BYTE   N02  Cn1  v068
 BYTE   N02  Dn1
 BYTE   N02  En1
 BYTE   W03
 BYTE   Dn1
 BYTE   N02  En1
 BYTE   W03
 BYTE   Dn1  v076
 BYTE   N02  En1
 BYTE   W03
 BYTE   Dn1  v080
 BYTE   N02  En1
 BYTE   W02
 BYTE   GoTo
  POIN2 Label_4_015DB1A8
 BYTE   FINE

//******************************************************//
	ALIGN 4

PokemonMDExplorersBossBattleRandomWizard:
	BYTE	5	// NumTrks
	BYTE	0	// NumBlks
	BYTE	PokemonMDExplorersBossBattleRandomWizard_pri	// Priority
	BYTE	PokemonMDExplorersBossBattleRandomWizard_rev	// Reverb.
    
	POIN2	PokemonMDExplorersBossBattleRandomWizard_grp
    
	POIN2	PokemonMDExplorersBossBattleRandomWizard_001
	POIN2	PokemonMDExplorersBossBattleRandomWizard_002
	POIN2	PokemonMDExplorersBossBattleRandomWizard_003
	POIN2	PokemonMDExplorersBossBattleRandomWizard_004
	POIN2	PokemonMDExplorersBossBattleRandomWizard_005

	
