//Event file generated from Sappy .s format.
	#include "MPlayDef.event"

	#define	PokemonBWAlderThemeGratedShtick_grp  voicegroup000
	#define	PokemonBWAlderThemeGratedShtick_pri  0
	#define	PokemonBWAlderThemeGratedShtick_rev  0
	#define	PokemonBWAlderThemeGratedShtick_mvl  127
	#define	PokemonBWAlderThemeGratedShtick_key  0
	#define	PokemonBWAlderThemeGratedShtick_tbs  1
	#define	PokemonBWAlderThemeGratedShtick_exg  0
	#define	PokemonBWAlderThemeGratedShtick_cmp  1

	// .rodata
	//	PokemonBWAlderThemeGratedShtick
	ALIGN 4


//**************** Track 1 (Midi-Chn.0) ****************//

PokemonBWAlderThemeGratedShtick_001:
// 000   ----------------------------------------
 BYTE   KEYSH   PokemonBWAlderThemeGratedShtick_key+0
 BYTE   TEMPO   172*PokemonBWAlderThemeGratedShtick_tbs/2
 BYTE   VOICE   39
 BYTE   VOL   40*PokemonBWAlderThemeGratedShtick_mvl/mxv
 BYTE   PAN   c_v+0
 BYTE   MOD 0
 BYTE   CnM2
 BYTE   N11  Fn3  v112
 BYTE   W16
 BYTE   N03
 BYTE   W08
 BYTE   N11
 BYTE   W16
 BYTE   N03
 BYTE   W16
 BYTE   N03
 BYTE   W08
 BYTE   N03
 BYTE   W08
 BYTE   N07
 BYTE   W08
 BYTE   N03
 BYTE   W08
 BYTE   N03
 BYTE   W08
// 001   ----------------------------------------
 BYTE   Dn2
 BYTE   N03  As2
 BYTE   N03  Dn3
 BYTE   W08
 BYTE   N07  Cs2
 BYTE   N07  An2
 BYTE   N07  Cs3
 BYTE   W08
 BYTE   N03  Dn2
 BYTE   N03  As2
 BYTE   N03  Dn3
 BYTE   W08
 BYTE   Dn2
 BYTE   N03  As2
 BYTE   N03  Dn3
 BYTE   W16
 BYTE   Dn2
 BYTE   N03  As2
 BYTE   N03  Dn3
 BYTE   W16
 BYTE   N01  Dn2  v124
 BYTE   N01  As2
 BYTE   N01  Dn3
 BYTE   W08
 BYTE   Dn2  v112
 BYTE   N01  As2
 BYTE   N01  Dn3
 BYTE   W08
 BYTE   Dn2
 BYTE   N01  As2
 BYTE   N01  Dn3
 BYTE   W08
 BYTE   Dn2
 BYTE   N01  As2
 BYTE   N01  Dn3
 BYTE   W08
 BYTE   N07  Cn2
 BYTE   N07  Gs2
 BYTE   N07  Cn3
 BYTE   W08
// 002   ----------------------------------------
 BYTE   N11  Fn2
 BYTE   W16
 BYTE   N03
 BYTE   W08
 BYTE   N11
 BYTE   W16
 BYTE   N03
 BYTE   W16
 BYTE   N03
 BYTE   W08
 BYTE   N03
 BYTE   W08
 BYTE   N07
 BYTE   W08
 BYTE   N03
 BYTE   W08
 BYTE   N03
 BYTE   W08
// 003   ----------------------------------------
 BYTE   Dn2
 BYTE   N03  As2
 BYTE   N03  Dn3
 BYTE   W08
 BYTE   N07  Cs2
 BYTE   N07  An2
 BYTE   N07  Cs3
 BYTE   W08
 BYTE   N03  Dn2
 BYTE   N03  As2
 BYTE   N03  Dn3
 BYTE   W08
 BYTE   N23  As2
 BYTE   N23  Dn3
 BYTE   W32
 BYTE   N01  Dn2
 BYTE   N01  As2
 BYTE   N01  Dn3
 BYTE   N01  Fn3
 BYTE   W08
 BYTE   Dn2
 BYTE   N01  As2
 BYTE   N01  Dn3
 BYTE   N01  Fn3
 BYTE   W08
 BYTE   N23  Fn2  v127
 BYTE   N23  Cs3
 BYTE   N23  As3
 BYTE   W16
 BYTE   VOL   51*PokemonBWAlderThemeGratedShtick_mvl/mxv
 BYTE   W08
// 004   ----------------------------------------
 BYTE   PAN   c_v+10
 BYTE   N92  Gn2  v116
 BYTE   N92  Gn3
 BYTE   W76
 BYTE   VOL   48*PokemonBWAlderThemeGratedShtick_mvl/mxv
 BYTE   W04
 BYTE   An1
 BYTE   W04
 BYTE   Ds1
 BYTE   W04
 BYTE   Cn1
 BYTE   W04
 BYTE   As0
 BYTE   W04
// 005   ----------------------------------------
 BYTE   Ds2
 BYTE   N92  Cn3  v108
 BYTE   N92  Cn4
 BYTE   W76
 BYTE   VOL   48*PokemonBWAlderThemeGratedShtick_mvl/mxv
 BYTE   W04
 BYTE   An1
 BYTE   W04
 BYTE   Ds1
 BYTE   W04
 BYTE   Cn1
 BYTE   W04
 BYTE   As0
 BYTE   W04
// 006   ----------------------------------------
 BYTE   Ds2
 BYTE   N92  En3
 BYTE   N92  En4  v124
 BYTE   W76
 BYTE   VOL   48*PokemonBWAlderThemeGratedShtick_mvl/mxv
 BYTE   W04
 BYTE   An1
 BYTE   W04
 BYTE   Ds1
 BYTE   W04
 BYTE   Cn1
 BYTE   W04
 BYTE   As0
 BYTE   W04
// 007   ----------------------------------------
 BYTE   Ds2
 BYTE   N92  Gn3  v108
 BYTE   N92  Gn4
 BYTE   W76
 BYTE   VOL   48*PokemonBWAlderThemeGratedShtick_mvl/mxv
 BYTE   W04
 BYTE   An1
 BYTE   W04
 BYTE   Ds1
 BYTE   W04
 BYTE   Cn1
 BYTE   W04
 BYTE   As0
 BYTE   W04
// 008   ----------------------------------------
 BYTE   Ds2
 BYTE   N92  As2  v120
 BYTE   N92  As3
 BYTE   W76
 BYTE   VOL   48*PokemonBWAlderThemeGratedShtick_mvl/mxv
 BYTE   W04
 BYTE   An1
 BYTE   W04
 BYTE   Ds1
 BYTE   W04
 BYTE   Cn1
 BYTE   W04
 BYTE   As0
 BYTE   W04
// 009   ----------------------------------------
 BYTE   Ds2
 BYTE   N92  Dn3  v108
 BYTE   N92  Dn4
 BYTE   W76
 BYTE   VOL   48*PokemonBWAlderThemeGratedShtick_mvl/mxv
 BYTE   W04
 BYTE   An1
 BYTE   W04
 BYTE   Ds1
 BYTE   W04
 BYTE   Cn1
 BYTE   W04
 BYTE   As0
 BYTE   W04
// 010   ----------------------------------------
 BYTE   Ds2
 BYTE   N92  Fn3  v116
 BYTE   N92  Fn4
 BYTE   W76
 BYTE   VOL   48*PokemonBWAlderThemeGratedShtick_mvl/mxv
 BYTE   W04
 BYTE   An1
 BYTE   W04
 BYTE   Ds1
 BYTE   W04
 BYTE   Cn1
 BYTE   W04
 BYTE   As0
 BYTE   W04
// 011   ----------------------------------------
 BYTE   Ds2
 BYTE   N68  As3  v108
 BYTE   N68  As4
 BYTE   W72
 BYTE   N07  Bn3
 BYTE   N07  Bn4  v124
 BYTE   W16
 BYTE   Gs3  v108
 BYTE   N07  Gs4  v124
 BYTE   W08
// 012   ----------------------------------------
 BYTE   VOL   51*PokemonBWAlderThemeGratedShtick_mvl/mxv
 BYTE   N07  Dn3  v108
 BYTE   N07  Fn4  v127
 BYTE   W08
 BYTE   Dn4  v116
 BYTE   W02
 BYTE   As2
 BYTE   W06
 BYTE   N78  Gn2  v124
 BYTE   N78  Gn3
 BYTE   W80
// 013   ----------------------------------------
 BYTE   N68  Cn3  v108
 BYTE   N92  Cn4
 BYTE   W72
 BYTE   N23  Cs3
 BYTE   W24
// 014   ----------------------------------------
 BYTE   N68  En3  v127
 BYTE   N92  En4
 BYTE   W72
 BYTE   N23  Fn3
 BYTE   W24
// 015   ----------------------------------------
 BYTE   N92  Gn3  v108
 BYTE   N92  Gn4
 BYTE   W76
 BYTE   VOL   48*PokemonBWAlderThemeGratedShtick_mvl/mxv
 BYTE   W04
 BYTE   An1
 BYTE   W04
 BYTE   Ds1
 BYTE   W04
 BYTE   Cn1
 BYTE   W04
 BYTE   As0
 BYTE   W04
// 016   ----------------------------------------
 BYTE   Ds2
 BYTE   N07  As2  v120
 BYTE   N07  As3  v108
 BYTE   W17
 BYTE   An2  v116
 BYTE   N07  An3
 BYTE   W07
 BYTE   N68  As2  v127
 BYTE   N68  As3
 BYTE   W72
// 017   ----------------------------------------
 BYTE   N92  Dn3  v108
 BYTE   N92  Dn4
 BYTE   W96
// 018   ----------------------------------------
 BYTE   N68  Fn3  v124
 BYTE   N68  Fn4  v112
 BYTE   W08
 BYTE   VOL   39*PokemonBWAlderThemeGratedShtick_mvl/mxv
 BYTE   W04
 BYTE   En1
 BYTE   W04
 BYTE   Fs1
 BYTE   W04
 BYTE   Gs1
 BYTE   W04
 BYTE   As1
 BYTE   W04
 BYTE   Cn2
 BYTE   W04
 BYTE   Dn2
 BYTE   W04
 BYTE   En2
 BYTE   W04
 BYTE   Gn2
 BYTE   W04
 BYTE   Gs2
 BYTE   W04
 BYTE   As2
 BYTE   W04
 BYTE   Cs3
 BYTE   W04
 BYTE   Fn3
 BYTE   W16
 BYTE   Gs2
 BYTE   N03  Dn3  v127
 BYTE   N03  Dn4
 BYTE   W08
 BYTE   N07  Cs3  v124
 BYTE   N07  Cs4
 BYTE   W08
 BYTE   N03  Dn3  v127
 BYTE   N03  Dn4
 BYTE   W07
 BYTE   VOL   51*PokemonBWAlderThemeGratedShtick_mvl/mxv
 BYTE   W01
// 019   ----------------------------------------
 BYTE   N44  As3
 BYTE   N44  As4
 BYTE   W08
 BYTE   VOL   36*PokemonBWAlderThemeGratedShtick_mvl/mxv
 BYTE   W04
 BYTE   Fn1
 BYTE   W04
 BYTE   An1
 BYTE   W04
 BYTE   Cs2
 BYTE   W04
 BYTE   Ds2
 BYTE   W04
 BYTE   Fn2
 BYTE   W04
 BYTE   Gs2
 BYTE   W16
 BYTE   As0
 BYTE   N23  Dn4  v120
 BYTE   N23  Dn5
 BYTE   W04
 BYTE   VOL   41*PokemonBWAlderThemeGratedShtick_mvl/mxv
 BYTE   W04
 BYTE   An1
 BYTE   W04
 BYTE   Cs2
 BYTE   W04
 BYTE   Fn2
 BYTE   W04
 BYTE   Bn2
 BYTE   W04
 BYTE   Fn3
 BYTE   N07  Dn4
 BYTE   N07  Dn5
 BYTE   W16
 BYTE   Fn4
 BYTE   N07  Fn5
 BYTE   W08
// 020   ----------------------------------------
Label_0_010057DC:
 BYTE   VOICE   60
 BYTE   PAN   c_v+10
 BYTE   VOL   58*PokemonBWAlderThemeGratedShtick_mvl/mxv
 BYTE   N32  Gn1  v108
 BYTE   N32  Gn2  v100
 BYTE   W36
 BYTE   Cn2  v108
 BYTE   N32  Cn3  v096
 BYTE   W36
 BYTE   N23  Gn2  v108
 BYTE   N23  Gn3  v100
 BYTE   W24
// 021   ----------------------------------------
 BYTE   N68  Gs2  v108
 BYTE   N68  Gs3  v100
 BYTE   W52
 BYTE   VOL   53*PokemonBWAlderThemeGratedShtick_mvl/mxv
 BYTE   W04
 BYTE   Cn2
 BYTE   W04
 BYTE   Gs1
 BYTE   W04
 BYTE   Ds1
 BYTE   W04
 BYTE   Cn1
 BYTE   W04
 BYTE   As2
 BYTE   N07  As2  v108
 BYTE   N07  As3  v104
 BYTE   W08
 BYTE   An2  v108
 BYTE   N07  An3  v100
 BYTE   W08
 BYTE   Gs2  v108
 BYTE   N07  Gs3  v092
 BYTE   W08
// 022   ----------------------------------------
 BYTE   N68  Gn2  v108
 BYTE   N68  Gn3  v092
 BYTE   W56
 BYTE   VOL   48*PokemonBWAlderThemeGratedShtick_mvl/mxv
 BYTE   W03
 BYTE   Gs1
 BYTE   W01
 BYTE   Gs1
 BYTE   W03
 BYTE   En1
 BYTE   W01
 BYTE   Ds1
 BYTE   W03
 BYTE   Cn1
 BYTE   W01
 BYTE   Cn1
 BYTE   W03
 BYTE   Cn3
 BYTE   W01
 BYTE   As2
 BYTE   N07  Gn2  v108
 BYTE   N07  Gn3  v100
 BYTE   W08
 BYTE   Fs2  v108
 BYTE   N07  Fs3  v096
 BYTE   W08
 BYTE   Fn2  v108
 BYTE   N07  Fn3  v088
 BYTE   W08
// 023   ----------------------------------------
 BYTE   N92  En2  v108
 BYTE   N92  En3  v084
 BYTE   W72
 BYTE   W03
 BYTE   VOL   48*PokemonBWAlderThemeGratedShtick_mvl/mxv
 BYTE   W04
 BYTE   An1
 BYTE   W04
 BYTE   Ds1
 BYTE   W04
 BYTE   Cn1
 BYTE   W04
 BYTE   As0
 BYTE   W04
 BYTE   Ds2
 BYTE   W01
// 024   ----------------------------------------
 BYTE   N32  Fn2  v112
 BYTE   N32  Fn3  v092
 BYTE   W36
 BYTE   As2  v112
 BYTE   N32  As3  v092
 BYTE   W36
 BYTE   N23  Fn3  v112
 BYTE   N23  Fn4  v092
 BYTE   W24
// 025   ----------------------------------------
 BYTE   N68  Fs3  v112
 BYTE   N68  Fs4  v092
 BYTE   W52
 BYTE   VOL   48*PokemonBWAlderThemeGratedShtick_mvl/mxv
 BYTE   W04
 BYTE   An1
 BYTE   W04
 BYTE   Ds1
 BYTE   W04
 BYTE   Cn1
 BYTE   W04
 BYTE   As0
 BYTE   W03
 BYTE   Cn3
 BYTE   W01
 BYTE   Fn2
 BYTE   N07  Gs3  v112
 BYTE   N07  Gs4  v092
 BYTE   W08
 BYTE   Gn3  v112
 BYTE   N07  Gn4  v092
 BYTE   W08
 BYTE   Fs3  v112
 BYTE   N07  Fs4  v092
 BYTE   W08
// 026   ----------------------------------------
 BYTE   N68  Fn3  v112
 BYTE   N68  Fn4  v092
 BYTE   W48
 BYTE   W03
 BYTE   VOL   48*PokemonBWAlderThemeGratedShtick_mvl/mxv
 BYTE   W04
 BYTE   An1
 BYTE   W04
 BYTE   Ds1
 BYTE   W04
 BYTE   Cn1
 BYTE   W04
 BYTE   As0
 BYTE   W04
 BYTE   Ds2
 BYTE   W01
 BYTE   N07  Fn3  v112
 BYTE   N07  Fn4  v092
 BYTE   W08
 BYTE   En3  v112
 BYTE   N07  En4  v092
 BYTE   W08
 BYTE   Ds3  v112
 BYTE   N07  Ds4  v092
 BYTE   W08
// 027   ----------------------------------------
 BYTE   N92  Dn3  v112
 BYTE   N92  Dn4  v092
 BYTE   W72
 BYTE   W03
 BYTE   VOL   48*PokemonBWAlderThemeGratedShtick_mvl/mxv
 BYTE   W04
 BYTE   An1
 BYTE   W04
 BYTE   Ds1
 BYTE   W04
 BYTE   Cn1
 BYTE   W04
 BYTE   As0
 BYTE   W04
 BYTE   Fs2
 BYTE   W01
// 028   ----------------------------------------
 BYTE   VOICE   39
 BYTE   PAN   c_v+3
 BYTE   N32  Fn3  v112
 BYTE   N32  Fn4
 BYTE   W02
 BYTE   PAN   c_v+3
 BYTE   W32
 BYTE   W02
 BYTE   N32  Dn3
 BYTE   N32  Dn4
 BYTE   W36
 BYTE   As3
 BYTE   N32  As4
 BYTE   W24
// 029   ----------------------------------------
Label_0_010058ED:
 BYTE   W12
 BYTE   N32  Fn3  v112
 BYTE   N32  Fn4
 BYTE   W36
 BYTE   N23  Dn4
 BYTE   N23  Dn5
 BYTE   W24
 BYTE   As3
 BYTE   N23  As4
 BYTE   W24
 BYTE   PEND 
// 030   ----------------------------------------
Label_0_010058FE:
 BYTE   N23  Gn3  v112
 BYTE   N23  Gn4
 BYTE   W24
 BYTE   N32  Cn4
 BYTE   N32  Cn5
 BYTE   W36
 BYTE   En4
 BYTE   N32  En5
 BYTE   W36
 BYTE   PEND 
// 031   ----------------------------------------
 BYTE   N23  Cn4
 BYTE   N23  Cn5
 BYTE   W24
 BYTE   N32  Gn4
 BYTE   N32  Gn5
 BYTE   W36
 BYTE   En4
 BYTE   W02
 BYTE   En5
 BYTE   W32
 BYTE   W02
// 032   ----------------------------------------
 BYTE   VOICE   48
 BYTE   PAN   c_v-25
 BYTE   VOL   46*PokemonBWAlderThemeGratedShtick_mvl/mxv
 BYTE   N32  Cn4
 BYTE   N32  Cn5
 BYTE   W36
 BYTE   Gn3
 BYTE   N32  Gn4
 BYTE   W36
 BYTE   En4
 BYTE   N32  En5
 BYTE   W24
// 033   ----------------------------------------
 BYTE   W12
 BYTE   Cn4
 BYTE   N32  Cn5
 BYTE   W36
 BYTE   N23  Fs4
 BYTE   N23  Fs5
 BYTE   W24
 BYTE   Gn4
 BYTE   N23  Gn5
 BYTE   W23
 BYTE   VOL   51*PokemonBWAlderThemeGratedShtick_mvl/mxv
 BYTE   W01
// 034   ----------------------------------------
 BYTE   PAN   c_v-6
 BYTE   VOL   56*PokemonBWAlderThemeGratedShtick_mvl/mxv
 BYTE   N07  Gn3  v116
 BYTE   N07  Gn4
 BYTE   W01
 BYTE   PAN   c_v+0
 BYTE   W07
 BYTE   N05  Gn3  v096
 BYTE   N05  Gn4
 BYTE   W08
 BYTE   Gn3  v108
 BYTE   N05  Gn4
 BYTE   W08
 BYTE   Gn3  v096
 BYTE   N05  Gn4
 BYTE   W08
 BYTE   Gn3  v104
 BYTE   N05  Gn4
 BYTE   W08
 BYTE   Gn3  v096
 BYTE   N05  Gn4
 BYTE   W08
 BYTE   N07  Gn3  v092
 BYTE   N07  Gn4
 BYTE   W08
 BYTE   N05  Gn3
 BYTE   N05  Gn4
 BYTE   W08
 BYTE   Gn3  v127
 BYTE   N05  Gn4
 BYTE   W08
 BYTE   Gn3  v112
 BYTE   N05  Gn4
 BYTE   W08
 BYTE   Gn3  v092
 BYTE   N05  Gn4
 BYTE   W08
 BYTE   Gn3  v088
 BYTE   N05  Gn4
 BYTE   W08
// 035   ----------------------------------------
 BYTE   N07  Cn4
 BYTE   N07  Cn5
 BYTE   W08
 BYTE   N05  Cn4  v092
 BYTE   N05  Cn5
 BYTE   W08
 BYTE   Cn4
 BYTE   N05  Cn5
 BYTE   W08
 BYTE   Cn4  v096
 BYTE   N05  Cn5
 BYTE   W08
 BYTE   Cn4  v120
 BYTE   N05  Cn5
 BYTE   W08
 BYTE   Cn4  v096
 BYTE   N05  Cn5
 BYTE   W08
 BYTE   N07  Gn3
 BYTE   N07  Gn4
 BYTE   W08
 BYTE   N05  Gn3
 BYTE   N05  Gn4
 BYTE   W08
 BYTE   Gn3  v092
 BYTE   N05  Gn4
 BYTE   W08
 BYTE   Gn3
 BYTE   N05  Gn4
 BYTE   W08
 BYTE   Gn3  v096
 BYTE   N05  Gn4
 BYTE   W08
 BYTE   N07  Cn4  v112
 BYTE   N07  Cn5
 BYTE   W08
// 036   ----------------------------------------
 BYTE   En4  v124
 BYTE   N07  En5
 BYTE   W08
 BYTE   N05  En4  v092
 BYTE   N05  En5
 BYTE   W08
 BYTE   En4  v096
 BYTE   N05  En5
 BYTE   W08
 BYTE   En4  v100
 BYTE   N05  En5
 BYTE   W08
 BYTE   En4  v096
 BYTE   N05  En5
 BYTE   W08
 BYTE   En4  v092
 BYTE   N05  En5
 BYTE   W08
 BYTE   En4  v080
 BYTE   N05  En5
 BYTE   W08
 BYTE   En4  v084
 BYTE   N05  En5
 BYTE   W08
 BYTE   En4  v080
 BYTE   N05  En5
 BYTE   W08
 BYTE   En4
 BYTE   N05  En5
 BYTE   W08
 BYTE   En4  v084
 BYTE   N05  En5
 BYTE   W08
 BYTE   En4  v088
 BYTE   N05  En5
 BYTE   W08
// 037   ----------------------------------------
 BYTE   N07  Gn4  v108
 BYTE   N07  Gn5
 BYTE   W08
 BYTE   N05  Gn4  v088
 BYTE   N05  Gn5
 BYTE   W08
 BYTE   Gn4
 BYTE   N05  Gn5
 BYTE   W08
 BYTE   Gn4  v092
 BYTE   N05  Gn5
 BYTE   W08
 BYTE   Gn4
 BYTE   N05  Gn5
 BYTE   W08
 BYTE   Gn4
 BYTE   N05  Gn5
 BYTE   W08
 BYTE   Fs4  v088
 BYTE   N05  Fs5
 BYTE   W08
 BYTE   Gn4  v100
 BYTE   N05  Gn5
 BYTE   W08
 BYTE   Gn4  v096
 BYTE   N05  Gn5
 BYTE   W08
 BYTE   Fn4  v092
 BYTE   N05  Fn5
 BYTE   W08
 BYTE   Fn4  v088
 BYTE   N05  Fn5
 BYTE   W08
 BYTE   Fn4
 BYTE   N05  Fn5
 BYTE   W08
// 038   ----------------------------------------
 BYTE   N07  As3  v112
 BYTE   N07  As4
 BYTE   W08
 BYTE   N05  As3  v096
 BYTE   N05  As4
 BYTE   W08
 BYTE   As3
 BYTE   N05  As4
 BYTE   W08
 BYTE   As3
 BYTE   N05  As4
 BYTE   W08
 BYTE   As3
 BYTE   N05  As4
 BYTE   W08
 BYTE   As3
 BYTE   N05  As4
 BYTE   W08
 BYTE   N07  As3  v112
 BYTE   N07  As4
 BYTE   W08
 BYTE   N05  As3  v092
 BYTE   N05  As4
 BYTE   W08
 BYTE   As3  v108
 BYTE   N05  As4
 BYTE   W08
 BYTE   As3  v096
 BYTE   N05  As4
 BYTE   W08
 BYTE   As3
 BYTE   N05  As4
 BYTE   W08
 BYTE   As3  v080
 BYTE   N05  As4
 BYTE   W08
// 039   ----------------------------------------
 BYTE   N07  Dn4  v088
 BYTE   N07  Dn5
 BYTE   W08
 BYTE   N05  Dn4  v092
 BYTE   N05  Dn5
 BYTE   W08
 BYTE   Dn4
 BYTE   N05  Dn5
 BYTE   W08
 BYTE   Dn4  v096
 BYTE   N05  Dn5
 BYTE   W08
 BYTE   Dn4  v120
 BYTE   N05  Dn5
 BYTE   W08
 BYTE   Dn4  v096
 BYTE   N05  Dn5
 BYTE   W08
 BYTE   N07  As3
 BYTE   N07  As4
 BYTE   W08
 BYTE   N05  As3
 BYTE   N05  As4
 BYTE   W08
 BYTE   As3  v092
 BYTE   N05  As4
 BYTE   W08
 BYTE   As3
 BYTE   N05  As4
 BYTE   W08
 BYTE   As3  v096
 BYTE   N05  As4
 BYTE   W10
 BYTE   N07  Dn4  v112
 BYTE   N07  Dn5
 BYTE   W06
// 040   ----------------------------------------
 BYTE   Fn4  v124
 BYTE   N07  Fn5
 BYTE   W08
 BYTE   N05  Fn4  v092
 BYTE   N05  Fn5
 BYTE   W08
 BYTE   Fn4  v096
 BYTE   N05  Fn5
 BYTE   W08
 BYTE   Fn4  v100
 BYTE   N05  Fn5
 BYTE   W08
 BYTE   Fn4  v096
 BYTE   N05  Fn5
 BYTE   W08
 BYTE   Fn4  v092
 BYTE   N05  Fn5
 BYTE   W08
 BYTE   Fn4  v112
 BYTE   N05  Fn5
 BYTE   W08
 BYTE   Fn4  v084
 BYTE   N05  Fn5
 BYTE   W08
 BYTE   Fn4  v080
 BYTE   N05  Fn5
 BYTE   W08
 BYTE   Fn4
 BYTE   N05  Fn5
 BYTE   W08
 BYTE   Fn4  v084
 BYTE   N05  Fn5
 BYTE   W08
 BYTE   Fn4  v088
 BYTE   N05  Fn5
 BYTE   W08
// 041   ----------------------------------------
 BYTE   N07  As4  v108
 BYTE   N07  As5
 BYTE   W08
 BYTE   N05  As4  v088
 BYTE   N05  As5
 BYTE   W08
 BYTE   As4
 BYTE   N05  As5
 BYTE   W08
 BYTE   As4  v092
 BYTE   N05  As5
 BYTE   W08
 BYTE   As4
 BYTE   N05  As5
 BYTE   W08
 BYTE   As4
 BYTE   N05  As5
 BYTE   W08
 BYTE   An4  v088
 BYTE   N05  An5
 BYTE   W08
 BYTE   As4  v100
 BYTE   N05  As5
 BYTE   W08
 BYTE   As4  v096
 BYTE   N05  As5
 BYTE   W08
 BYTE   N09  As4  v112
 BYTE   N09  As5
 BYTE   W16
 BYTE   N07  Bn4
 BYTE   N07  Bn5  v104
 BYTE   W08
// 042   ----------------------------------------
 BYTE   Cn4  v120
 BYTE   N07  Cn5
 BYTE   W08
 BYTE   N05  Cn4  v092
 BYTE   N05  Cn5
 BYTE   W08
 BYTE   Cn4
 BYTE   N05  Cn5
 BYTE   W08
 BYTE   Cn4  v096
 BYTE   N05  Cn5
 BYTE   W08
 BYTE   Cn4  v084
 BYTE   N05  Cn5
 BYTE   W08
 BYTE   Cn4  v080
 BYTE   N05  Cn5
 BYTE   W08
 BYTE   N07  Cn4  v108
 BYTE   N07  Cn5
 BYTE   W08
 BYTE   N05  Cn4  v096
 BYTE   N05  Cn5
 BYTE   W08
 BYTE   Cn4
 BYTE   N05  Cn5
 BYTE   W08
 BYTE   Cn4  v092
 BYTE   N05  Cn5
 BYTE   W08
 BYTE   Cn4  v088
 BYTE   N05  Cn5
 BYTE   W08
 BYTE   Cn4
 BYTE   N05  Cn5
 BYTE   W08
// 043   ----------------------------------------
 BYTE   N07  En4  v116
 BYTE   N07  En5
 BYTE   W08
 BYTE   N05  En4  v092
 BYTE   N05  En5
 BYTE   W08
 BYTE   En4
 BYTE   N05  En5
 BYTE   W08
 BYTE   En4  v096
 BYTE   N05  En5
 BYTE   W08
 BYTE   En4  v120
 BYTE   N05  En5
 BYTE   W08
 BYTE   En4  v096
 BYTE   N05  En5
 BYTE   W08
 BYTE   N07  Cn4
 BYTE   N07  Cn5
 BYTE   W08
 BYTE   N05  Cn4
 BYTE   N05  Cn5
 BYTE   W08
 BYTE   Cn4  v092
 BYTE   N05  Cn5
 BYTE   W08
 BYTE   Cn4
 BYTE   N05  Cn5
 BYTE   W08
 BYTE   Cn4  v096
 BYTE   N05  Cn5
 BYTE   W08
 BYTE   N07  En4  v112
 BYTE   N07  En5
 BYTE   W08
// 044   ----------------------------------------
 BYTE   Gn4  v124
 BYTE   N07  Gn5
 BYTE   W08
 BYTE   N05  Gn4  v088
 BYTE   N05  Gn5
 BYTE   W08
 BYTE   Gn4  v084
 BYTE   N05  Gn5
 BYTE   W08
 BYTE   Gn4  v092
 BYTE   N05  Gn5
 BYTE   W08
 BYTE   Gn4
 BYTE   N05  Gn5
 BYTE   W08
 BYTE   Gn4  v088
 BYTE   N05  Gn5
 BYTE   W08
 BYTE   Gn4  v104
 BYTE   N05  Gn5
 BYTE   W08
 BYTE   Gn4  v092
 BYTE   N05  Gn5
 BYTE   W08
 BYTE   Gn4  v088
 BYTE   N05  Gn5
 BYTE   W08
 BYTE   Gn4
 BYTE   N05  Gn5
 BYTE   W08
 BYTE   Gn4
 BYTE   N05  Gn5
 BYTE   W08
 BYTE   Gn4  v084
 BYTE   N05  Gn5
 BYTE   W08
// 045   ----------------------------------------
 BYTE   N07  Cn5  v108
 BYTE   N07  Cn6
 BYTE   W08
 BYTE   N05  Cn5  v088
 BYTE   N05  Cn6
 BYTE   W08
 BYTE   Cn5
 BYTE   N05  Cn6
 BYTE   W08
 BYTE   Cn5  v092
 BYTE   N05  Cn6
 BYTE   W08
 BYTE   Cn5
 BYTE   N05  Cn6
 BYTE   W08
 BYTE   Cn5
 BYTE   N05  Cn6
 BYTE   W08
 BYTE   Bn4  v088
 BYTE   N05  Bn5
 BYTE   W08
 BYTE   Cn5  v080
 BYTE   N05  Cn6
 BYTE   W08
 BYTE   Cn5  v084
 BYTE   N05  Cn6
 BYTE   W08
 BYTE   Cn5  v080
 BYTE   N05  Cn6
 BYTE   W08
 BYTE   Cn5
 BYTE   N05  Cn6
 BYTE   W08
 BYTE   Cs5
 BYTE   N05  Cs6
 BYTE   W08
// 046   ----------------------------------------
 BYTE   N07  As3  v120
 BYTE   N07  As4
 BYTE   W08
 BYTE   N05  As3  v092
 BYTE   N05  As4
 BYTE   W08
 BYTE   As3
 BYTE   N05  As4
 BYTE   W08
 BYTE   As3  v096
 BYTE   N05  As4
 BYTE   W08
 BYTE   As3  v084
 BYTE   N05  As4
 BYTE   W08
 BYTE   As3  v080
 BYTE   N05  As4
 BYTE   W08
 BYTE   N07  As3  v108
 BYTE   N07  As4
 BYTE   W08
 BYTE   N05  As3  v096
 BYTE   N05  As4
 BYTE   W08
 BYTE   As3
 BYTE   N05  As4
 BYTE   W08
 BYTE   As3  v092
 BYTE   N05  As4
 BYTE   W08
 BYTE   As3  v088
 BYTE   N05  As4
 BYTE   W08
 BYTE   As3
 BYTE   N05  As4
 BYTE   W08
// 047   ----------------------------------------
 BYTE   N07  Dn4  v116
 BYTE   N07  Dn5
 BYTE   W08
 BYTE   N05  Dn4  v092
 BYTE   N05  Dn5
 BYTE   W08
 BYTE   Dn4
 BYTE   N05  Dn5
 BYTE   W08
 BYTE   Dn4  v096
 BYTE   N05  Dn5
 BYTE   W08
 BYTE   Dn4  v120
 BYTE   N05  Dn5
 BYTE   W08
 BYTE   Dn4  v096
 BYTE   N05  Dn5
 BYTE   W08
 BYTE   N07  As3
 BYTE   N07  As4
 BYTE   W08
 BYTE   N05  As3
 BYTE   N05  As4
 BYTE   W08
 BYTE   As3  v092
 BYTE   N05  As4
 BYTE   W08
 BYTE   As3
 BYTE   N05  As4
 BYTE   W08
 BYTE   As3  v096
 BYTE   N05  As4
 BYTE   W08
 BYTE   N07  Dn4  v112
 BYTE   N07  Dn5
 BYTE   W08
// 048   ----------------------------------------
 BYTE   Fn4  v124
 BYTE   N07  Fn5
 BYTE   W08
 BYTE   N05  Fn4  v088
 BYTE   N05  Fn5
 BYTE   W08
 BYTE   Fn4  v084
 BYTE   N05  Fn5
 BYTE   W08
 BYTE   Fn4  v092
 BYTE   N05  Fn5
 BYTE   W08
 BYTE   Fn4
 BYTE   N05  Fn5
 BYTE   W08
 BYTE   Fn4  v088
 BYTE   N05  Fn5
 BYTE   W08
 BYTE   Fn4  v104
 BYTE   N05  Fn5
 BYTE   W08
 BYTE   Fn4  v092
 BYTE   N05  Fn5
 BYTE   W08
 BYTE   Fn4  v088
 BYTE   N05  Fn5
 BYTE   W08
 BYTE   Fn4
 BYTE   N05  Fn5
 BYTE   W08
 BYTE   Fn4
 BYTE   N05  Fn5
 BYTE   W08
 BYTE   Fn4  v084
 BYTE   N05  Fn5
 BYTE   W08
// 049   ----------------------------------------
 BYTE   N07  As4  v108
 BYTE   N07  As5
 BYTE   W08
 BYTE   N05  As4  v088
 BYTE   N05  As5
 BYTE   W08
 BYTE   As4
 BYTE   N05  As5
 BYTE   W08
 BYTE   As4  v092
 BYTE   N05  As5
 BYTE   W08
 BYTE   As4
 BYTE   N05  As5
 BYTE   W08
 BYTE   As4
 BYTE   N05  As5
 BYTE   W08
 BYTE   An4  v088
 BYTE   N05  An5
 BYTE   W08
 BYTE   As4  v080
 BYTE   N05  As5
 BYTE   W08
 BYTE   As4  v084
 BYTE   N05  As5
 BYTE   W08
 BYTE   As4  v080
 BYTE   N05  As5
 BYTE   W08
 BYTE   As4
 BYTE   N05  As5
 BYTE   W08
 BYTE   As4
 BYTE   N05  As5
 BYTE   W08
// 050   ----------------------------------------
 BYTE   VOL   48*PokemonBWAlderThemeGratedShtick_mvl/mxv
 BYTE   N32  Fn3  v112
 BYTE   N32  Fn4
 BYTE   W36
 BYTE   Dn3
 BYTE   N32  Dn4
 BYTE   W36
 BYTE   As3
 BYTE   N32  As4
 BYTE   W24
 BYTE   PATT
  POIN2 Label_0_010058ED
 BYTE   PATT
  POIN2 Label_0_010058FE
// 051   ----------------------------------------
 BYTE   N23  Cn4  v112
 BYTE   N23  Cn5
 BYTE   W24
 BYTE   N32  Gn4
 BYTE   N32  Gn5
 BYTE   W36
 BYTE   En4
 BYTE   N32  En5
 BYTE   W36
// 052   ----------------------------------------
 BYTE   Cn5  v108
 BYTE   N32  Cn6  v112
 BYTE   W36
 BYTE   Gn4  v116
 BYTE   N32  Gn5  v112
 BYTE   W36
 BYTE   En5  v104
 BYTE   N32  En6  v072
 BYTE   W24
// 053   ----------------------------------------
 BYTE   W12
 BYTE   Cn5  v104
 BYTE   N32  Cn6  v076
 BYTE   W36
 BYTE   N23  Gn5  v104
 BYTE   N23  Gn6  v072
 BYTE   W24
 BYTE   En5  v112
 BYTE   N23  En6  v072
 BYTE   W23
 BYTE   GoTo
  POIN2 Label_0_010057DC
 BYTE   FINE

//**************** Track 2 (Midi-Chn.1) ****************//

PokemonBWAlderThemeGratedShtick_002:
// 000   ----------------------------------------
 BYTE   KEYSH   PokemonBWAlderThemeGratedShtick_key+0
 BYTE   VOICE   39
 BYTE   VOL   40*PokemonBWAlderThemeGratedShtick_mvl/mxv
 BYTE   PAN   c_v+0
 BYTE   MOD 0
 BYTE   CnM2
 BYTE   VOL   51*PokemonBWAlderThemeGratedShtick_mvl/mxv
 BYTE   N92  As2  v124
 BYTE   N92  As3
 BYTE   N92  As4  v127
 BYTE   W48
 BYTE   MOD 0
 BYTE   DsM2
 BYTE   W28
 BYTE   VOL   45*PokemonBWAlderThemeGratedShtick_mvl/mxv
 BYTE   W04
 BYTE   Gs1
 BYTE   W04
 BYTE   Cs1
 BYTE   W04
 BYTE   An0
 BYTE   W04
 BYTE   Fs0
 BYTE   W04
// 001   ----------------------------------------
 BYTE   Ds2
 BYTE   N03  Fn3
 BYTE   N03  Fn4
 BYTE   W01
 BYTE   MOD 0
 BYTE   CnM2
 BYTE   W02
 BYTE   CnM2
 BYTE   W02
 BYTE   CnM2
 BYTE   W03
 BYTE   N07  En3
 BYTE   N07  En4
 BYTE   W08
 BYTE   N03  Fn3
 BYTE   N03  Fn4
 BYTE   W68
 BYTE   Fs3  v112
 BYTE   N03  Fs4
 BYTE   W04
 BYTE   Gn3
 BYTE   N03  Gn4
 BYTE   W04
 BYTE   An3
 BYTE   N03  An4
 BYTE   W04
// 002   ----------------------------------------
 BYTE   N92  As2  v127
 BYTE   N92  As3
 BYTE   N92  As4
 BYTE   W44
 BYTE   W03
 BYTE   MOD 0
 BYTE   DsM2
 BYTE   W28
 BYTE   W01
 BYTE   VOL   45*PokemonBWAlderThemeGratedShtick_mvl/mxv
 BYTE   W04
 BYTE   Gs1
 BYTE   W04
 BYTE   Cs1
 BYTE   W04
 BYTE   An0
 BYTE   W04
 BYTE   Fs0
 BYTE   W04
// 003   ----------------------------------------
 BYTE   Ds2
 BYTE   N03  Dn4
 BYTE   N03  As4
 BYTE   N03  Dn5
 BYTE   W01
 BYTE   MOD 0
 BYTE   CnM2
 BYTE   W07
 BYTE   N07  Cs4
 BYTE   N07  An4
 BYTE   N07  Cs5
 BYTE   W08
 BYTE   N03  Dn4
 BYTE   N03  As4
 BYTE   N03  Dn5
 BYTE   W80
// 004   ----------------------------------------
 BYTE   VOL   46*PokemonBWAlderThemeGratedShtick_mvl/mxv
 BYTE   PAN   c_v+33
 BYTE   N92  Cn3  v112
 BYTE   W72
 BYTE   VOL   44*PokemonBWAlderThemeGratedShtick_mvl/mxv
 BYTE   W04
 BYTE   En1
 BYTE   W04
 BYTE   Dn1
 BYTE   W04
 BYTE   As0
 BYTE   W04
 BYTE   Fs0
 BYTE   W04
 BYTE   En0
 BYTE   W04
// 005   ----------------------------------------
Label_1_01005DE1:
 BYTE   VOL   46*PokemonBWAlderThemeGratedShtick_mvl/mxv
 BYTE   N92  En3  v112
 BYTE   W72
 BYTE   VOL   44*PokemonBWAlderThemeGratedShtick_mvl/mxv
 BYTE   W04
 BYTE   En1
 BYTE   W04
 BYTE   Dn1
 BYTE   W04
 BYTE   As0
 BYTE   W04
 BYTE   Fs0
 BYTE   W04
 BYTE   En0
 BYTE   W04
 BYTE   PEND 
// 006   ----------------------------------------
Label_1_01005DF5:
 BYTE   VOL   46*PokemonBWAlderThemeGratedShtick_mvl/mxv
 BYTE   N92  Gn3  v112
 BYTE   W72
 BYTE   VOL   44*PokemonBWAlderThemeGratedShtick_mvl/mxv
 BYTE   W04
 BYTE   En1
 BYTE   W04
 BYTE   Dn1
 BYTE   W04
 BYTE   As0
 BYTE   W04
 BYTE   Fs0
 BYTE   W04
 BYTE   En0
 BYTE   W04
 BYTE   PEND 
// 007   ----------------------------------------
 BYTE   As1
 BYTE   N92  Cn4
 BYTE   W72
 BYTE   VOL   44*PokemonBWAlderThemeGratedShtick_mvl/mxv
 BYTE   W04
 BYTE   En1
 BYTE   W04
 BYTE   Dn1
 BYTE   W04
 BYTE   As0
 BYTE   W04
 BYTE   Fs0
 BYTE   W04
 BYTE   En0
 BYTE   W04
// 008   ----------------------------------------
 BYTE   As1
 BYTE   N92  Fn3
 BYTE   W72
 BYTE   VOL   44*PokemonBWAlderThemeGratedShtick_mvl/mxv
 BYTE   W04
 BYTE   En1
 BYTE   W04
 BYTE   Dn1
 BYTE   W04
 BYTE   As0
 BYTE   W04
 BYTE   Fs0
 BYTE   W04
 BYTE   En0
 BYTE   W04
// 009   ----------------------------------------
 BYTE   As1
 BYTE   N68  As3
 BYTE   W72
 BYTE   VOL   44*PokemonBWAlderThemeGratedShtick_mvl/mxv
 BYTE   N23  Bn3
 BYTE   W04
 BYTE   VOL   40*PokemonBWAlderThemeGratedShtick_mvl/mxv
 BYTE   W04
 BYTE   Dn1
 BYTE   W04
 BYTE   As0
 BYTE   W04
 BYTE   Fs0
 BYTE   W04
 BYTE   En0
 BYTE   W04
// 010   ----------------------------------------
 BYTE   As1
 BYTE   N92  Dn4
 BYTE   W72
 BYTE   VOL   44*PokemonBWAlderThemeGratedShtick_mvl/mxv
 BYTE   W04
 BYTE   En1
 BYTE   W04
 BYTE   Dn1
 BYTE   W04
 BYTE   As0
 BYTE   W04
 BYTE   Fs0
 BYTE   W04
 BYTE   En0
 BYTE   W04
// 011   ----------------------------------------
 BYTE   As1
 BYTE   N68  Fn4
 BYTE   W72
 BYTE   N07  Fs4
 BYTE   W16
 BYTE   Dn4
 BYTE   W08
// 012   ----------------------------------------
 BYTE   VOL   46*PokemonBWAlderThemeGratedShtick_mvl/mxv
 BYTE   N07  As3
 BYTE   W08
 BYTE   Gn3
 BYTE   W08
 BYTE   N78  Cn3
 BYTE   W56
 BYTE   VOL   44*PokemonBWAlderThemeGratedShtick_mvl/mxv
 BYTE   W04
 BYTE   En1
 BYTE   W04
 BYTE   Dn1
 BYTE   W04
 BYTE   As0
 BYTE   W04
 BYTE   Fs0
 BYTE   W04
 BYTE   En0
 BYTE   W04
 BYTE   PATT
  POIN2 Label_1_01005DE1
 BYTE   PATT
  POIN2 Label_1_01005DF5
// 013   ----------------------------------------
 BYTE   VOL   46*PokemonBWAlderThemeGratedShtick_mvl/mxv
 BYTE   N84  Cn4  v112
 BYTE   W72
 BYTE   VOL   44*PokemonBWAlderThemeGratedShtick_mvl/mxv
 BYTE   W04
 BYTE   En1
 BYTE   W04
 BYTE   Dn1
 BYTE   W04
 BYTE   As0
 BYTE   W04
 BYTE   Fs0
 BYTE   N07  Bn3
 BYTE   W04
 BYTE   VOL   28*PokemonBWAlderThemeGratedShtick_mvl/mxv
 BYTE   W04
// 014   ----------------------------------------
 BYTE   As1
 BYTE   N68  Fn3
 BYTE   W72
 BYTE   VOL   44*PokemonBWAlderThemeGratedShtick_mvl/mxv
 BYTE   N23  Fs3
 BYTE   W04
 BYTE   VOL   40*PokemonBWAlderThemeGratedShtick_mvl/mxv
 BYTE   W04
 BYTE   Dn1
 BYTE   W04
 BYTE   As0
 BYTE   W04
 BYTE   Fs0
 BYTE   W04
 BYTE   En0
 BYTE   W04
// 015   ----------------------------------------
 BYTE   As1
 BYTE   N92  As3
 BYTE   W72
 BYTE   VOL   44*PokemonBWAlderThemeGratedShtick_mvl/mxv
 BYTE   W04
 BYTE   En1
 BYTE   W04
 BYTE   Dn1
 BYTE   W04
 BYTE   As0
 BYTE   W04
 BYTE   Fs0
 BYTE   W04
 BYTE   En0
 BYTE   W04
// 016   ----------------------------------------
 BYTE   As1
 BYTE   N68  Dn4
 BYTE   W08
 BYTE   VOL   31*PokemonBWAlderThemeGratedShtick_mvl/mxv
 BYTE   W04
 BYTE   An0
 BYTE   W04
 BYTE   Cn1
 BYTE   W04
 BYTE   Cs1
 BYTE   W04
 BYTE   En1
 BYTE   W04
 BYTE   Gn1
 BYTE   W04
 BYTE   An1
 BYTE   W04
 BYTE   Cn2
 BYTE   W04
 BYTE   Cs2
 BYTE   W04
 BYTE   Fn2
 BYTE   W04
 BYTE   Gn2
 BYTE   W04
 BYTE   An2
 BYTE   W04
 BYTE   Cn3
 BYTE   W04
 BYTE   Cs3
 BYTE   W12
 BYTE   As1
 BYTE   N03  As3
 BYTE   W08
 BYTE   N07  An3
 BYTE   W08
 BYTE   N03  As3
 BYTE   W08
// 017   ----------------------------------------
 BYTE   VOL   52*PokemonBWAlderThemeGratedShtick_mvl/mxv
 BYTE   N44  Fn4
 BYTE   W08
 BYTE   VOL   28*PokemonBWAlderThemeGratedShtick_mvl/mxv
 BYTE   W04
 BYTE   Fs0
 BYTE   W04
 BYTE   As0
 BYTE   W04
 BYTE   Cs1
 BYTE   W04
 BYTE   Fn1
 BYTE   W04
 BYTE   Bn1
 BYTE   W04
 BYTE   Ds2
 BYTE   W16
 BYTE   As0
 BYTE   N23  As4
 BYTE   W04
 BYTE   VOL   38*PokemonBWAlderThemeGratedShtick_mvl/mxv
 BYTE   W04
 BYTE   An1
 BYTE   W04
 BYTE   Ds2
 BYTE   W04
 BYTE   Gs2
 BYTE   W04
 BYTE   Cs3
 BYTE   W04
 BYTE   Fn3
 BYTE   N07
 BYTE   W16
 BYTE   Dn5
 BYTE   W08
// 018   ----------------------------------------
Label_1_01005F08:
 BYTE   VOL   47*PokemonBWAlderThemeGratedShtick_mvl/mxv
 BYTE   PAN   c_v+44
 BYTE   N32  En2  v112
 BYTE   W36
 BYTE   Gn2
 BYTE   W36
 BYTE   N23  En3
 BYTE   W24
// 019   ----------------------------------------
 BYTE   N68  Fn3
 BYTE   W72
 BYTE   VOL   52*PokemonBWAlderThemeGratedShtick_mvl/mxv
 BYTE   PAN   c_v+35
 BYTE   N07  Cs3
 BYTE   W08
 BYTE   Dn3
 BYTE   W08
 BYTE   Ds3
 BYTE   W08
// 020   ----------------------------------------
 BYTE   N68  En3
 BYTE   W72
 BYTE   N07  Gn2
 BYTE   W08
 BYTE   An2
 BYTE   W08
 BYTE   Bn2
 BYTE   W08
// 021   ----------------------------------------
 BYTE   N44  Cn3
 BYTE   W48
 BYTE   Cs3
 BYTE   W48
// 022   ----------------------------------------
 BYTE   N32  Dn3  v127
 BYTE   W36
 BYTE   Fn3  v112
 BYTE   W36
 BYTE   N23  Dn4
 BYTE   W24
// 023   ----------------------------------------
 BYTE   N68  Ds4
 BYTE   W72
 BYTE   N07  Bn3
 BYTE   W08
 BYTE   Cn4
 BYTE   W08
 BYTE   Cs4
 BYTE   W08
// 024   ----------------------------------------
 BYTE   N68  Dn4
 BYTE   W72
 BYTE   N07  Fn3
 BYTE   W08
 BYTE   Gn3
 BYTE   W08
 BYTE   An3
 BYTE   W08
// 025   ----------------------------------------
 BYTE   N92  As3
 BYTE   W96
// 026   ----------------------------------------
 BYTE   W96
// 027   ----------------------------------------
 BYTE   W96
// 028   ----------------------------------------
 BYTE   W96
// 029   ----------------------------------------
 BYTE   W96
// 030   ----------------------------------------
 BYTE   W96
// 031   ----------------------------------------
 BYTE   W96
// 032   ----------------------------------------
 BYTE   Cn4
 BYTE   W96
// 033   ----------------------------------------
 BYTE   N44  En4
 BYTE   W48
 BYTE   N36  Cn4
 BYTE   W40
 BYTE   N07  En4
 BYTE   W08
// 034   ----------------------------------------
 BYTE   N92  Gn4
 BYTE   W96
// 035   ----------------------------------------
 BYTE   N68  Cn5
 BYTE   W72
 BYTE   N23  Dn5
 BYTE   W24
// 036   ----------------------------------------
 BYTE   N92  Fn4
 BYTE   W96
// 037   ----------------------------------------
Label_1_01005F70:
 BYTE   N44  As4  v112
 BYTE   W48
 BYTE   N36  Fn4
 BYTE   W40
 BYTE   N07  As4
 BYTE   W08
 BYTE   PEND 
// 038   ----------------------------------------
 BYTE   N92  Dn5
 BYTE   W96
// 039   ----------------------------------------
 BYTE   Fn5
 BYTE   W96
// 040   ----------------------------------------
 BYTE   Gn4
 BYTE   W96
// 041   ----------------------------------------
 BYTE   N44  Cn5
 BYTE   W48
 BYTE   N36  Gn4
 BYTE   W40
 BYTE   N07  Cn5
 BYTE   W08
// 042   ----------------------------------------
 BYTE   N92  En5
 BYTE   W96
// 043   ----------------------------------------
 BYTE   N84  Gn5
 BYTE   W88
 BYTE   N07  En5
 BYTE   W08
// 044   ----------------------------------------
 BYTE   N92  Fn4
 BYTE   W96
 BYTE   PATT
  POIN2 Label_1_01005F70
// 045   ----------------------------------------
 BYTE   N92  Dn5  v112
 BYTE   W96
// 046   ----------------------------------------
 BYTE   Fn5
 BYTE   W96
// 047   ----------------------------------------
 BYTE   W96
// 048   ----------------------------------------
 BYTE   W96
// 049   ----------------------------------------
 BYTE   W96
// 050   ----------------------------------------
 BYTE   W96
// 051   ----------------------------------------
 BYTE   W96
// 052   ----------------------------------------
 BYTE   W92
 BYTE   W03
 BYTE   GoTo
  POIN2 Label_1_01005F08
 BYTE   FINE

//**************** Track 3 (Midi-Chn.2) ****************//

PokemonBWAlderThemeGratedShtick_003:
// 000   ----------------------------------------
 BYTE   KEYSH   PokemonBWAlderThemeGratedShtick_key+0
 BYTE   VOICE   28
 BYTE   VOL   56*PokemonBWAlderThemeGratedShtick_mvl/mxv
 BYTE   PAN   c_v+0
 BYTE   MOD 0
 BYTE   CnM2
 BYTE   VOL   55*PokemonBWAlderThemeGratedShtick_mvl/mxv
 BYTE   PAN   c_v+16
 BYTE   N17  As0  v116
 BYTE   W20
 BYTE   N01  As0  v104
 BYTE   W04
 BYTE   N17  As0  v116
 BYTE   W20
 BYTE   N01  As0  v104
 BYTE   W04
 BYTE   N02  As0  v112
 BYTE   W08
 BYTE   As0  v108
 BYTE   W08
 BYTE   As0  v112
 BYTE   W08
 BYTE   N17  As0  v116
 BYTE   W20
 BYTE   N01  As0  v104
 BYTE   W04
// 001   ----------------------------------------
 BYTE   N17  As0  v116
 BYTE   W20
 BYTE   N01  As0  v104
 BYTE   W04
 BYTE   N17  As0  v116
 BYTE   W20
 BYTE   N01  As0  v104
 BYTE   W04
 BYTE   N02  As0  v112
 BYTE   W08
 BYTE   En1  v108
 BYTE   W08
 BYTE   As0  v112
 BYTE   W08
 BYTE   N17  Fn0  v116
 BYTE   W20
 BYTE   N01  As0  v104
 BYTE   W04
// 002   ----------------------------------------
 BYTE   N17  As0  v116
 BYTE   W20
 BYTE   N01  As0  v104
 BYTE   W04
 BYTE   N17  As0  v116
 BYTE   W20
 BYTE   N01  As0  v104
 BYTE   W04
 BYTE   N02  As0  v112
 BYTE   W08
 BYTE   As0  v108
 BYTE   W08
 BYTE   As0  v112
 BYTE   W08
 BYTE   N17  As0  v116
 BYTE   W20
 BYTE   N01  As0  v104
 BYTE   W04
// 003   ----------------------------------------
 BYTE   VOL   61*PokemonBWAlderThemeGratedShtick_mvl/mxv
 BYTE   N17  As0  v116
 BYTE   W20
 BYTE   N01  As0  v104
 BYTE   W04
 BYTE   N17  As0  v116
 BYTE   W20
 BYTE   N01  As0  v104
 BYTE   W04
 BYTE   PAN   c_v+0
 BYTE   N03  As0  v127
 BYTE   W08
 BYTE   As1
 BYTE   W08
 BYTE   As0  v112
 BYTE   W08
 BYTE   N23  Bn0  v127
 BYTE   W12
 BYTE   MOD 0
 BYTE   CsM1
 BYTE   W12
// 004   ----------------------------------------
 BYTE   CnM2
 BYTE   N07  Cn1
 BYTE   W08
 BYTE   Gn1  v112
 BYTE   W08
 BYTE   Cn1  v127
 BYTE   W08
 BYTE   Gn1  v112
 BYTE   W08
 BYTE   Cn1
 BYTE   W08
 BYTE   Gn1
 BYTE   W08
 BYTE   Cn1
 BYTE   W08
 BYTE   Gs1
 BYTE   W08
 BYTE   Cn1
 BYTE   W08
 BYTE   As1
 BYTE   W08
 BYTE   Cn1
 BYTE   W08
 BYTE   Gs1
 BYTE   W08
// 005   ----------------------------------------
Label_2_01006065:
 BYTE   N07  Cn1  v112
 BYTE   W08
 BYTE   As1
 BYTE   W08
 BYTE   Cn1
 BYTE   W08
 BYTE   As1
 BYTE   W08
 BYTE   Cn1
 BYTE   W08
 BYTE   As1
 BYTE   W08
 BYTE   Cn1
 BYTE   W08
 BYTE   Gs1
 BYTE   W08
 BYTE   Cn1
 BYTE   W08
 BYTE   Gs1
 BYTE   W08
 BYTE   Cn1
 BYTE   W08
 BYTE   Gs1
 BYTE   W08
 BYTE   PEND 
// 006   ----------------------------------------
Label_2_01006080:
 BYTE   N07  Cn1  v112
 BYTE   W08
 BYTE   Gn1
 BYTE   W08
 BYTE   Cn1
 BYTE   W08
 BYTE   Gn1
 BYTE   W08
 BYTE   Cn1
 BYTE   W08
 BYTE   Gn1
 BYTE   W08
 BYTE   Cn1
 BYTE   W08
 BYTE   Gs1
 BYTE   W08
 BYTE   Cn1
 BYTE   W08
 BYTE   Gs1
 BYTE   W08
 BYTE   Cn1
 BYTE   W08
 BYTE   Gs1
 BYTE   W08
 BYTE   PEND 
// 007   ----------------------------------------
 BYTE   As1  v127
 BYTE   W08
 BYTE   Cn1  v112
 BYTE   W08
 BYTE   Gs1
 BYTE   W08
 BYTE   As1
 BYTE   W08
 BYTE   Cn1
 BYTE   W08
 BYTE   As1
 BYTE   W08
 BYTE   Cn1
 BYTE   W08
 BYTE   Gs1
 BYTE   W08
 BYTE   Cn1
 BYTE   W08
 BYTE   N13  Cs2
 BYTE   W16
 BYTE   N07  As1
 BYTE   W08
// 008   ----------------------------------------
 BYTE   As0
 BYTE   W08
 BYTE   Fn1
 BYTE   W08
 BYTE   As0
 BYTE   W08
 BYTE   Fn1
 BYTE   W08
 BYTE   As0
 BYTE   W08
 BYTE   Fn1
 BYTE   W08
 BYTE   As0
 BYTE   W08
 BYTE   Fn1
 BYTE   W08
 BYTE   As0
 BYTE   W08
 BYTE   Gs1
 BYTE   W08
 BYTE   Fs1
 BYTE   W08
 BYTE   Fn1
 BYTE   W08
// 009   ----------------------------------------
Label_2_010060CD:
 BYTE   N07  As0  v112
 BYTE   W08
 BYTE   Gs1
 BYTE   W08
 BYTE   As0
 BYTE   W08
 BYTE   Gs1
 BYTE   W08
 BYTE   As0
 BYTE   W08
 BYTE   Gs1
 BYTE   W08
 BYTE   As0
 BYTE   W08
 BYTE   Fs1
 BYTE   W08
 BYTE   As0
 BYTE   W08
 BYTE   Fs1
 BYTE   W08
 BYTE   As0
 BYTE   W08
 BYTE   Fs1
 BYTE   W08
 BYTE   PEND 
// 010   ----------------------------------------
Label_2_010060E8:
 BYTE   N07  As0  v112
 BYTE   W08
 BYTE   Fn1
 BYTE   W08
 BYTE   As0
 BYTE   W08
 BYTE   Fn1
 BYTE   W08
 BYTE   As0
 BYTE   W08
 BYTE   Fn1
 BYTE   W08
 BYTE   As0
 BYTE   W08
 BYTE   Fs1
 BYTE   W08
 BYTE   As0
 BYTE   W08
 BYTE   Fs1
 BYTE   W08
 BYTE   As0
 BYTE   W08
 BYTE   Fs1
 BYTE   W08
 BYTE   PEND 
// 011   ----------------------------------------
 BYTE   As0
 BYTE   W08
 BYTE   Gs1
 BYTE   W08
 BYTE   As0
 BYTE   W08
 BYTE   As2
 BYTE   W08
 BYTE   As0
 BYTE   W08
 BYTE   Gs2
 BYTE   W08
 BYTE   As0
 BYTE   W08
 BYTE   Fn2
 BYTE   W08
 BYTE   As0
 BYTE   W08
 BYTE   Fs2
 BYTE   W08
 BYTE   Gs1
 BYTE   W08
 BYTE   Bn1
 BYTE   W08
// 012   ----------------------------------------
 BYTE   As1
 BYTE   W08
 BYTE   Gn1
 BYTE   W08
 BYTE   Cn1
 BYTE   W08
 BYTE   Gn1
 BYTE   W08
 BYTE   Cn1
 BYTE   W08
 BYTE   Gn1
 BYTE   W08
 BYTE   Cn1
 BYTE   W08
 BYTE   Gs1
 BYTE   W08
 BYTE   Cn1
 BYTE   W08
 BYTE   Gs1
 BYTE   W08
 BYTE   Cn1
 BYTE   W08
 BYTE   Gs1
 BYTE   W08
 BYTE   PATT
  POIN2 Label_2_01006065
 BYTE   PATT
  POIN2 Label_2_01006080
// 013   ----------------------------------------
 BYTE   N07  Cn1  v112
 BYTE   W08
 BYTE   As1
 BYTE   W08
 BYTE   Cn1
 BYTE   W08
 BYTE   As1
 BYTE   W08
 BYTE   Cn1
 BYTE   W08
 BYTE   As1
 BYTE   W08
 BYTE   Cn1
 BYTE   W08
 BYTE   Gs1
 BYTE   W08
 BYTE   Cn1
 BYTE   W08
 BYTE   N15  Cs2
 BYTE   W16
 BYTE   N07  Gs1
 BYTE   W08
 BYTE   PATT
  POIN2 Label_2_010060E8
 BYTE   PATT
  POIN2 Label_2_010060CD
 BYTE   PATT
  POIN2 Label_2_010060E8
// 014   ----------------------------------------
 BYTE   N07  As1  v112
 BYTE   W08
 BYTE   Gs1
 BYTE   W08
 BYTE   Fn1
 BYTE   W08
 BYTE   As2
 BYTE   W08
 BYTE   As0
 BYTE   W08
 BYTE   Fn2
 BYTE   W08
 BYTE   As0
 BYTE   W08
 BYTE   Fn1
 BYTE   W08
 BYTE   Dn2
 BYTE   W08
 BYTE   Fn2  v127
 BYTE   W16
 BYTE   Fn1  v112
 BYTE   W08
// 015   ----------------------------------------
Label_2_01006180:
 BYTE   N07  Cn1  v124
 BYTE   W08
 BYTE   Gn1  v112
 BYTE   W08
 BYTE   Cn1
 BYTE   W08
 BYTE   Gn1
 BYTE   W08
 BYTE   Cn1
 BYTE   W08
 BYTE   Gn1
 BYTE   W08
 BYTE   Cn1
 BYTE   W08
 BYTE   Gs1
 BYTE   W08
 BYTE   Cn1
 BYTE   W08
 BYTE   Gs1
 BYTE   W08
 BYTE   Cn1
 BYTE   W08
 BYTE   Gs1
 BYTE   W08
// 016   ----------------------------------------
 BYTE   Cn1  v127
 BYTE   W08
 BYTE   As1  v112
 BYTE   W08
 BYTE   Cn1
 BYTE   W08
 BYTE   As1
 BYTE   W08
 BYTE   Cn1
 BYTE   W08
 BYTE   As1
 BYTE   W08
 BYTE   Cn1
 BYTE   W08
 BYTE   Gs1
 BYTE   W08
 BYTE   Cn1
 BYTE   W08
 BYTE   Gs1
 BYTE   W08
 BYTE   Cn1
 BYTE   W08
 BYTE   Gs1
 BYTE   W08
// 017   ----------------------------------------
 BYTE   Cn1  v127
 BYTE   W08
 BYTE   Gn1  v112
 BYTE   W08
 BYTE   Cn1
 BYTE   W08
 BYTE   Gn1
 BYTE   W08
 BYTE   Cn1
 BYTE   W08
 BYTE   Gn1
 BYTE   W08
 BYTE   Cn1
 BYTE   W08
 BYTE   Gs1
 BYTE   W08
 BYTE   Cn1
 BYTE   W08
 BYTE   Gs1
 BYTE   W08
 BYTE   Cn1
 BYTE   W08
 BYTE   Gs1
 BYTE   W08
// 018   ----------------------------------------
 BYTE   Cn1  v127
 BYTE   W08
 BYTE   As1  v112
 BYTE   W08
 BYTE   Cn1
 BYTE   W08
 BYTE   As1
 BYTE   W08
 BYTE   Cn1
 BYTE   W08
 BYTE   As1
 BYTE   W08
 BYTE   Cn1
 BYTE   W08
 BYTE   Gs1
 BYTE   W08
 BYTE   Cn1
 BYTE   W08
 BYTE   Cs2
 BYTE   W08
 BYTE   Cn1
 BYTE   W08
 BYTE   As1
 BYTE   W08
// 019   ----------------------------------------
 BYTE   As0  v127
 BYTE   W08
 BYTE   Fn1  v112
 BYTE   W08
 BYTE   As0
 BYTE   W08
 BYTE   Fn1
 BYTE   W08
 BYTE   As0
 BYTE   W08
 BYTE   Fn1
 BYTE   W08
 BYTE   As0
 BYTE   W08
 BYTE   Fs1
 BYTE   W08
 BYTE   As0
 BYTE   W08
 BYTE   Fs1
 BYTE   W08
 BYTE   As0
 BYTE   W08
 BYTE   Fs1
 BYTE   W08
 BYTE   PATT
  POIN2 Label_2_010060CD
 BYTE   PATT
  POIN2 Label_2_010060E8
 BYTE   PATT
  POIN2 Label_2_010060CD
 BYTE   PATT
  POIN2 Label_2_010060E8
 BYTE   PATT
  POIN2 Label_2_010060CD
 BYTE   PATT
  POIN2 Label_2_01006080
 BYTE   PATT
  POIN2 Label_2_01006065
 BYTE   PATT
  POIN2 Label_2_01006080
// 020   ----------------------------------------
 BYTE   N07  Cn1  v112
 BYTE   W08
 BYTE   As1
 BYTE   W08
 BYTE   Cn1
 BYTE   W08
 BYTE   As1
 BYTE   W08
 BYTE   Cn1
 BYTE   W08
 BYTE   As1
 BYTE   W08
 BYTE   Cn1
 BYTE   W08
 BYTE   Gn1
 BYTE   W08
 BYTE   Cn1
 BYTE   W08
 BYTE   Cn2
 BYTE   W08
 BYTE   Cn1
 BYTE   W08
 BYTE   As1
 BYTE   W08
// 021   ----------------------------------------
Label_2_01006245:
 BYTE   N07  Cn1  v112
 BYTE   W08
 BYTE   Gn1
 BYTE   W08
 BYTE   Cn1
 BYTE   W08
 BYTE   Gn1
 BYTE   W08
 BYTE   Cn1
 BYTE   W08
 BYTE   Gn1
 BYTE   W08
 BYTE   Cn1
 BYTE   W08
 BYTE   Gn1
 BYTE   W08
 BYTE   Cn1
 BYTE   W08
 BYTE   Gn1
 BYTE   W08
 BYTE   Cn1
 BYTE   W08
 BYTE   Gn1
 BYTE   W08
 BYTE   PEND 
// 022   ----------------------------------------
Label_2_01006260:
 BYTE   N07  Cn1  v112
 BYTE   W08
 BYTE   As1
 BYTE   W08
 BYTE   Cn1
 BYTE   W08
 BYTE   As1
 BYTE   W08
 BYTE   Cn1
 BYTE   W08
 BYTE   As1
 BYTE   W08
 BYTE   Cn1
 BYTE   W08
 BYTE   Cn2
 BYTE   W08
 BYTE   Cn1
 BYTE   W08
 BYTE   Cn2
 BYTE   W08
 BYTE   Cn1
 BYTE   W08
 BYTE   Cn2
 BYTE   W08
 BYTE   PEND 
// 023   ----------------------------------------
 BYTE   Cn1
 BYTE   W08
 BYTE   Gn1
 BYTE   W08
 BYTE   Cn1
 BYTE   W08
 BYTE   Gn1
 BYTE   W08
 BYTE   Cn1
 BYTE   W08
 BYTE   Gn1
 BYTE   W08
 BYTE   Cn1
 BYTE   W08
 BYTE   As1
 BYTE   W08
 BYTE   Cn1
 BYTE   W08
 BYTE   As1
 BYTE   W08
 BYTE   Cn1
 BYTE   W08
 BYTE   As1
 BYTE   W08
// 024   ----------------------------------------
 BYTE   Cn1
 BYTE   W08
 BYTE   Cn2
 BYTE   W08
 BYTE   Cn1
 BYTE   W08
 BYTE   Cn2
 BYTE   W08
 BYTE   Cn1
 BYTE   W08
 BYTE   Cn2
 BYTE   W08
 BYTE   Cn1
 BYTE   W09
 BYTE   En2
 BYTE   W07
 BYTE   Cn1
 BYTE   W08
 BYTE   Ds2
 BYTE   W08
 BYTE   Bn0
 BYTE   W07
 BYTE   Ds2
 BYTE   W09
// 025   ----------------------------------------
 BYTE   As1
 BYTE   W08
 BYTE   Fn1
 BYTE   W08
 BYTE   As0
 BYTE   W08
 BYTE   Fn1
 BYTE   W08
 BYTE   As1
 BYTE   W08
 BYTE   Fn1
 BYTE   W08
 BYTE   As1
 BYTE   W08
 BYTE   Fn1
 BYTE   W08
 BYTE   As0
 BYTE   W08
 BYTE   Fn1
 BYTE   W08
 BYTE   As0
 BYTE   W08
 BYTE   Fn1
 BYTE   W08
// 026   ----------------------------------------
Label_2_010062C3:
 BYTE   N07  As0  v112
 BYTE   W08
 BYTE   Gs1
 BYTE   W08
 BYTE   As0
 BYTE   W08
 BYTE   Gs1
 BYTE   W08
 BYTE   As0
 BYTE   W08
 BYTE   Gs1
 BYTE   W08
 BYTE   As0
 BYTE   W08
 BYTE   As1
 BYTE   W08
 BYTE   As0
 BYTE   W08
 BYTE   As1
 BYTE   W08
 BYTE   As0
 BYTE   W08
 BYTE   As1
 BYTE   W08
 BYTE   PEND 
// 027   ----------------------------------------
 BYTE   As0
 BYTE   W08
 BYTE   Fn1
 BYTE   W08
 BYTE   As0
 BYTE   W08
 BYTE   Fn1
 BYTE   W08
 BYTE   As0
 BYTE   W08
 BYTE   Fn1
 BYTE   W08
 BYTE   As0
 BYTE   W08
 BYTE   Gs1
 BYTE   W08
 BYTE   As0
 BYTE   W08
 BYTE   Gs1
 BYTE   W08
 BYTE   As0
 BYTE   W08
 BYTE   Gs1
 BYTE   W08
// 028   ----------------------------------------
 BYTE   As0
 BYTE   W08
 BYTE   As1
 BYTE   W08
 BYTE   As0
 BYTE   W08
 BYTE   As1
 BYTE   W08
 BYTE   As0
 BYTE   W08
 BYTE   As1
 BYTE   W08
 BYTE   As0
 BYTE   W08
 BYTE   Dn2
 BYTE   W08
 BYTE   As0
 BYTE   W08
 BYTE   Dn2
 BYTE   W08
 BYTE   As0
 BYTE   W08
 BYTE   Cn2
 BYTE   W08
 BYTE   PATT
  POIN2 Label_2_01006245
 BYTE   PATT
  POIN2 Label_2_01006260
 BYTE   PATT
  POIN2 Label_2_01006080
// 029   ----------------------------------------
 BYTE   N07  Cn1  v112
 BYTE   W08
 BYTE   As1
 BYTE   W08
 BYTE   Cn1
 BYTE   W08
 BYTE   As1
 BYTE   W08
 BYTE   Cn1
 BYTE   W08
 BYTE   As1
 BYTE   W08
 BYTE   Cn1
 BYTE   W08
 BYTE   En2
 BYTE   W08
 BYTE   Cn1
 BYTE   W08
 BYTE   En2
 BYTE   W08
 BYTE   Cn1
 BYTE   W08
 BYTE   Dn2
 BYTE   W08
// 030   ----------------------------------------
 BYTE   As0
 BYTE   W08
 BYTE   Fn1
 BYTE   W08
 BYTE   As0
 BYTE   W08
 BYTE   Fn1
 BYTE   W08
 BYTE   As0
 BYTE   W08
 BYTE   Fn1
 BYTE   W08
 BYTE   As0
 BYTE   W08
 BYTE   Fn1
 BYTE   W08
 BYTE   As0
 BYTE   W08
 BYTE   Fn1
 BYTE   W08
 BYTE   As0
 BYTE   W08
 BYTE   Fn1
 BYTE   W08
 BYTE   PATT
  POIN2 Label_2_010062C3
 BYTE   PATT
  POIN2 Label_2_010060E8
// 031   ----------------------------------------
 BYTE   N07  As0  v112
 BYTE   W08
 BYTE   Gs1
 BYTE   W08
 BYTE   As0
 BYTE   W08
 BYTE   Gs1
 BYTE   W08
 BYTE   As0
 BYTE   W08
 BYTE   Gs1
 BYTE   W08
 BYTE   As0
 BYTE   W08
 BYTE   Fs1
 BYTE   W08
 BYTE   As0
 BYTE   W08
 BYTE   Dn2
 BYTE   W08
 BYTE   As0
 BYTE   W08
 BYTE   Gs1
 BYTE   W08
 BYTE   PATT
  POIN2 Label_2_010060E8
 BYTE   PATT
  POIN2 Label_2_010060CD
 BYTE   PATT
  POIN2 Label_2_01006080
 BYTE   PATT
  POIN2 Label_2_01006065
 BYTE   PATT
  POIN2 Label_2_01006080
// 032   ----------------------------------------
 BYTE   N07  Cn1  v112
 BYTE   W08
 BYTE   As1
 BYTE   W08
 BYTE   Cn1
 BYTE   W08
 BYTE   As1
 BYTE   W08
 BYTE   Cn1
 BYTE   W08
 BYTE   As1
 BYTE   W08
 BYTE   Cn1
 BYTE   W08
 BYTE   Gs1
 BYTE   W08
 BYTE   Cn1
 BYTE   W08
 BYTE   Cs2
 BYTE   W08
 BYTE   Cn1
 BYTE   W08
 BYTE   As1
 BYTE   W07
 BYTE   GoTo
  POIN2 Label_2_01006180
 BYTE   FINE

//**************** Track 4 (Midi-Chn.3) ****************//

PokemonBWAlderThemeGratedShtick_004:
// 000   ----------------------------------------
 BYTE   KEYSH   PokemonBWAlderThemeGratedShtick_key+0
 BYTE   VOICE   57
 BYTE   VOL   40*PokemonBWAlderThemeGratedShtick_mvl/mxv
 BYTE   PAN   c_v+0
 BYTE   MOD 0
 BYTE   CnM2
 BYTE   PAN   c_v+25
 BYTE   N07  As1  v127
 BYTE   W16
 BYTE   N03  As1  v112
 BYTE   W08
 BYTE   N23  As1  v100
 BYTE   W08
 BYTE   VOL   38*PokemonBWAlderThemeGratedShtick_mvl/mxv
 BYTE   W04
 BYTE   Cn1
 BYTE   W04
 BYTE   Gn0
 BYTE   W04
 BYTE   En0
 BYTE   W04
 BYTE   En1
 BYTE   W08
 BYTE   N01  As1  v127
 BYTE   W08
 BYTE   As1  v112
 BYTE   W08
 BYTE   N02  As1  v124
 BYTE   W08
 BYTE   N01  As1  v112
 BYTE   W08
 BYTE   N01
 BYTE   W08
// 001   ----------------------------------------
 BYTE   N03  As1  v127
 BYTE   W08
 BYTE   N07  An1  v112
 BYTE   W08
 BYTE   N03  As1
 BYTE   W08
 BYTE   N04  As1  v127
 BYTE   W16
 BYTE   N03  As1  v112
 BYTE   W16
 BYTE   N01  As1  v127
 BYTE   W08
 BYTE   As1  v112
 BYTE   W08
 BYTE   N02  As1  v124
 BYTE   W08
 BYTE   N01  As1  v112
 BYTE   W16
// 002   ----------------------------------------
 BYTE   N07  As1  v127
 BYTE   W16
 BYTE   N03  As1  v112
 BYTE   W08
 BYTE   N07  As1  v127
 BYTE   W16
 BYTE   N03  As1  v112
 BYTE   W16
 BYTE   N01  As1  v127
 BYTE   W08
 BYTE   As1  v112
 BYTE   W08
 BYTE   N02  As1  v124
 BYTE   W08
 BYTE   N01  As1  v112
 BYTE   W08
 BYTE   N01
 BYTE   W08
// 003   ----------------------------------------
 BYTE   N03  As1  v127
 BYTE   W08
 BYTE   N07  An1  v112
 BYTE   W08
 BYTE   N03  As1
 BYTE   W08
 BYTE   As1  v127
 BYTE   W16
 BYTE   As1  v112
 BYTE   W16
 BYTE   N01  As1  v127
 BYTE   W08
 BYTE   As1  v112
 BYTE   W08
 BYTE   N23  Bn1
 BYTE   W24
// 004   ----------------------------------------
 BYTE   PAN   c_v+35
 BYTE   N07  Cn2  v127
 BYTE   N07  Cn3
 BYTE   W16
 BYTE   N03  Cn2  v112
 BYTE   N03  Cn3
 BYTE   W08
 BYTE   N07  Cn2
 BYTE   N07  Cn3
 BYTE   W16
 BYTE   N03  Cn2
 BYTE   N03  Cn3
 BYTE   W08
 BYTE   Gn2  v127
 BYTE   N03  Cn3
 BYTE   W08
 BYTE   Gn2
 BYTE   N03  Cn3
 BYTE   W08
 BYTE   N01  Gn2  v112
 BYTE   N01  Cn3
 BYTE   W08
 BYTE   N15  Cn3  v127
 BYTE   N15  En3
 BYTE   W16
 BYTE   N03  Gn2
 BYTE   N03  Cn3
 BYTE   W08
// 005   ----------------------------------------
 BYTE   N07  Cn2
 BYTE   N07  Cn3
 BYTE   W16
 BYTE   N03  Cn2  v112
 BYTE   N03  Cn3
 BYTE   W08
 BYTE   N07  Cn2
 BYTE   N07  Cn3
 BYTE   W16
 BYTE   N03  Cn2
 BYTE   N03  Cn3
 BYTE   W08
 BYTE   Gn2  v127
 BYTE   N03  En3
 BYTE   W08
 BYTE   Gn2
 BYTE   N03  En3
 BYTE   W08
 BYTE   N01  Gn2  v112
 BYTE   N01  En3
 BYTE   W08
 BYTE   N15  Cn3
 BYTE   N15  Gn3  v127
 BYTE   W16
 BYTE   N07  Bn1  v112
 BYTE   N07  Bn2
 BYTE   W08
// 006   ----------------------------------------
 BYTE   Cn2  v124
 BYTE   N07  Cn3
 BYTE   W16
 BYTE   N03  Cn2  v112
 BYTE   N03  Cn3
 BYTE   W08
 BYTE   N07  Cn2
 BYTE   N07  Cn3
 BYTE   W16
 BYTE   N03  Cn2
 BYTE   N03  Cn3
 BYTE   W08
 BYTE   N01  Gn2  v127
 BYTE   N01  En3
 BYTE   W08
 BYTE   Gn2  v112
 BYTE   N01  En3  v127
 BYTE   W08
 BYTE   Gn2  v112
 BYTE   N01  En3
 BYTE   W08
 BYTE   N11  Dn2
 BYTE   N11  Dn3
 BYTE   W16
 BYTE   N01  Dn2
 BYTE   N01  Dn3
 BYTE   W08
// 007   ----------------------------------------
 BYTE   N11  As2  v127
 BYTE   N11  Cn3
 BYTE   W16
 BYTE   N03  As2  v112
 BYTE   N03  Cn3
 BYTE   W08
 BYTE   N11  As2
 BYTE   N11  Cn3
 BYTE   W16
 BYTE   N03  As2
 BYTE   N03  Cn3
 BYTE   W08
 BYTE   N02  Gn2
 BYTE   N02  Cn3
 BYTE   W08
 BYTE   Gn2
 BYTE   N02  Cn3
 BYTE   W08
 BYTE   N01  Gn2
 BYTE   N01  Cn3
 BYTE   W08
 BYTE   N13  As2
 BYTE   N13  Cs3
 BYTE   W16
 BYTE   N07  Dn2
 BYTE   N07  As2
 BYTE   W08
// 008   ----------------------------------------
 BYTE   N05  As1  v127
 BYTE   N05  As2
 BYTE   W16
 BYTE   N03  As1  v112
 BYTE   N03  As2
 BYTE   W08
 BYTE   N05  As1
 BYTE   N05  As2
 BYTE   W16
 BYTE   N01  As1
 BYTE   N01  As2
 BYTE   W08
 BYTE   N03  Dn2
 BYTE   N03  As2
 BYTE   W08
 BYTE   N01  Dn2  v127
 BYTE   N01  As2
 BYTE   W08
 BYTE   N03  Dn2  v112
 BYTE   N03  As2
 BYTE   W08
 BYTE   N07  Gs2  v127
 BYTE   N07  Gs3
 BYTE   W08
 BYTE   Fs2  v112
 BYTE   N07  Fs3
 BYTE   W08
 BYTE   Fn2
 BYTE   N07  Fn3
 BYTE   W08
// 009   ----------------------------------------
 BYTE   N05  Dn2  v127
 BYTE   N05  Dn3
 BYTE   W16
 BYTE   N01  As1  v112
 BYTE   N01  As2
 BYTE   W08
 BYTE   N05  As1  v127
 BYTE   N05  As2
 BYTE   W16
 BYTE   N03  As1  v112
 BYTE   N03  As2
 BYTE   W08
 BYTE   N01
 BYTE   N01  Dn3
 BYTE   W08
 BYTE   N02  As2
 BYTE   N02  Dn3
 BYTE   W08
 BYTE   N01  As2
 BYTE   N01  Dn3
 BYTE   W08
 BYTE   N15  Bn2
 BYTE   N15  Fn3
 BYTE   W16
 BYTE   N07  An2
 BYTE   N07  Dn3
 BYTE   W08
// 010   ----------------------------------------
 BYTE   As1
 BYTE   N07  As2
 BYTE   W16
 BYTE   N03  As1
 BYTE   N03  As2
 BYTE   W08
 BYTE   N07  As1
 BYTE   N07  As2
 BYTE   W16
 BYTE   N03  As1
 BYTE   N03  As2
 BYTE   W08
 BYTE   N01
 BYTE   N01  Ds3
 BYTE   W08
 BYTE   As2
 BYTE   N01  Ds3
 BYTE   W08
 BYTE   As2
 BYTE   N01  Ds3
 BYTE   W08
 BYTE   N15
 BYTE   N15  Fn3
 BYTE   W16
 BYTE   N03  Fn2
 BYTE   N03  As2
 BYTE   W08
// 011   ----------------------------------------
 BYTE   N11  Fn2
 BYTE   N11  Fn3
 BYTE   W16
 BYTE   N03  As1
 BYTE   N03  As2
 BYTE   W08
 BYTE   N11  Dn2
 BYTE   N11  Dn3
 BYTE   W16
 BYTE   N03  As1
 BYTE   N03  As2
 BYTE   W16
 BYTE   N07  An1
 BYTE   N07  An2
 BYTE   W08
 BYTE   N03  As1
 BYTE   N03  As2
 BYTE   W08
 BYTE   N15  Bn1
 BYTE   N15  Bn2
 BYTE   W16
 BYTE   N03  Gs1
 BYTE   N03  Gs2
 BYTE   W08
// 012   ----------------------------------------
 BYTE   N07  Gn1  v127
 BYTE   N07  Gn2
 BYTE   W16
 BYTE   N03  Gn1  v112
 BYTE   N03  Gn2
 BYTE   W08
 BYTE   N07  Gn1
 BYTE   N07  Gn2
 BYTE   W16
 BYTE   N03  Gn1
 BYTE   N03  Gn2
 BYTE   W08
 BYTE   N05  En2
 BYTE   N05  Cn3
 BYTE   W10
 BYTE   N01  En2
 BYTE   N01  Cn3
 BYTE   W08
 BYTE   En2
 BYTE   N01  Cn3
 BYTE   W06
 BYTE   N15  En2  v124
 BYTE   N15  En3
 BYTE   W16
 BYTE   N01  Gn1  v112
 BYTE   N05  Gn2
 BYTE   N05  Cn3
 BYTE   W08
// 013   ----------------------------------------
 BYTE   N07  Fs1  v127
 BYTE   N07  Fs2
 BYTE   W16
 BYTE   N03  Gn1  v112
 BYTE   N03  Gn2
 BYTE   W08
 BYTE   N07  Gn1  v116
 BYTE   N07  Gn2
 BYTE   W16
 BYTE   N03  Gn1  v112
 BYTE   N03  Gn2
 BYTE   W08
 BYTE   N02  Cn3
 BYTE   N02  En3
 BYTE   W08
 BYTE   N01  Cn3
 BYTE   N01  En3
 BYTE   W08
 BYTE   Cn3
 BYTE   N01  En3
 BYTE   W08
 BYTE   N15  Gs2  v116
 BYTE   N15  Cs3
 BYTE   W16
 BYTE   N03  Cn2
 BYTE   N03  Gs2
 BYTE   W08
// 014   ----------------------------------------
 BYTE   N11  Fs1  v127
 BYTE   N11  Fs2
 BYTE   W16
 BYTE   N03  Gn1  v112
 BYTE   N03  Gn2
 BYTE   W08
 BYTE   Gn1  v127
 BYTE   N03  Gn2
 BYTE   W16
 BYTE   Gn1  v112
 BYTE   N03  Gn2
 BYTE   W08
 BYTE   En2
 BYTE   N03  Bn2
 BYTE   W08
 BYTE   N01  En2
 BYTE   N01  Cn3
 BYTE   W08
 BYTE   En2
 BYTE   N01  Cn3
 BYTE   W08
 BYTE   N23  Gn2
 BYTE   N24  Cn3
 BYTE   W24
// 015   ----------------------------------------
 BYTE   W01
 BYTE   N11  Fs1
 BYTE   N11  Fs2
 BYTE   W15
 BYTE   N03  Gn1
 BYTE   N03  Gn2
 BYTE   W08
 BYTE   N11  Gn1
 BYTE   N11  Gn2
 BYTE   W16
 BYTE   N03  Gn1
 BYTE   N03  Gn2
 BYTE   W08
 BYTE   Cn2
 BYTE   N03  Cn3
 BYTE   W08
 BYTE   Cn2
 BYTE   N03  Cn3
 BYTE   W08
 BYTE   Cn2
 BYTE   N03  Cn3
 BYTE   W08
 BYTE   N15  En2
 BYTE   N15  En3
 BYTE   W16
 BYTE   N03  Cn2
 BYTE   N03  Gn2
 BYTE   W08
// 016   ----------------------------------------
 BYTE   N05  As1  v127
 BYTE   N05  As2
 BYTE   W16
 BYTE   N03  As1  v112
 BYTE   N03  As2
 BYTE   W08
 BYTE   N05  As1
 BYTE   N05  As2
 BYTE   W16
 BYTE   N03  As1
 BYTE   N03  As2
 BYTE   W07
 BYTE   N03
 BYTE   W01
 BYTE   Ds2
 BYTE   W09
 BYTE   N03
 BYTE   N03  As2
 BYTE   W08
 BYTE   Ds2
 BYTE   N03  As2
 BYTE   W07
 BYTE   N15  As2  v124
 BYTE   N15  Dn3
 BYTE   W16
 BYTE   N03  Fn2  v112
 BYTE   N03  As2
 BYTE   W08
// 017   ----------------------------------------
 BYTE   N05  As1  v124
 BYTE   N05  As2
 BYTE   W16
 BYTE   N01  As1  v112
 BYTE   N01  As2
 BYTE   W08
 BYTE   N05  As1
 BYTE   N05  As2
 BYTE   W16
 BYTE   N01  As1
 BYTE   N01  As2
 BYTE   W08
 BYTE   N01
 BYTE   N01  Fn3
 BYTE   W08
 BYTE   As2  v127
 BYTE   N01  Fn3
 BYTE   W08
 BYTE   As2  v112
 BYTE   N01  Fn3
 BYTE   W08
 BYTE   N15  Fn2
 BYTE   N15  Dn3
 BYTE   W16
 BYTE   N01  As1
 BYTE   N01  Fn2
 BYTE   W08
// 018   ----------------------------------------
 BYTE   N05  As1  v127
 BYTE   N05  As2
 BYTE   W16
 BYTE   N03  As1  v112
 BYTE   N03  As2
 BYTE   W08
 BYTE   N05  As1
 BYTE   N05  As2
 BYTE   W16
 BYTE   N03  As1
 BYTE   N03  As2
 BYTE   W08
 BYTE   Fn2
 BYTE   N03  As2
 BYTE   W08
 BYTE   Fn2
 BYTE   N03  As2
 BYTE   W08
 BYTE   Fn2
 BYTE   N03  As2
 BYTE   W08
 BYTE   An1
 BYTE   N03  As2
 BYTE   W08
 BYTE   N07  As1
 BYTE   N07  An2
 BYTE   W08
 BYTE   N03  As1
 BYTE   N03  As2
 BYTE   W08
// 019   ----------------------------------------
 BYTE   Ds2
 BYTE   N03  As2
 BYTE   W16
 BYTE   N01  Ds2
 BYTE   N01  As2
 BYTE   W08
 BYTE   N03  Ds2
 BYTE   N03  As2
 BYTE   W16
 BYTE   N01  Ds2
 BYTE   N01  As2
 BYTE   W16
 BYTE   N07  An1
 BYTE   N07  An2
 BYTE   W08
 BYTE   N01  As1
 BYTE   N01  As2
 BYTE   W08
 BYTE   N07  As1
 BYTE   N07  As2
 BYTE   W16
 BYTE   Dn2
 BYTE   N07  Dn3
 BYTE   W08
// 020   ----------------------------------------
Label_3_0100671C:
 BYTE   VOL   50*PokemonBWAlderThemeGratedShtick_mvl/mxv
 BYTE   PAN   c_v-8
 BYTE   W96
// 021   ----------------------------------------
 BYTE   W72
 BYTE   VOICE   39
 BYTE   PAN   c_v+43
 BYTE   N07  Gn2  v112
 BYTE   W08
 BYTE   Gs2
 BYTE   W08
 BYTE   An2
 BYTE   W08
// 022   ----------------------------------------
 BYTE   N68  As2
 BYTE   W72
 BYTE   N07
 BYTE   W08
 BYTE   An2
 BYTE   W08
 BYTE   Gs2
 BYTE   W08
// 023   ----------------------------------------
 BYTE   N92  Gn2
 BYTE   W96
// 024   ----------------------------------------
 BYTE   W96
// 025   ----------------------------------------
 BYTE   W72
 BYTE   N07  Fn3
 BYTE   W08
 BYTE   Fs3
 BYTE   W08
 BYTE   Gn3
 BYTE   W08
// 026   ----------------------------------------
 BYTE   N68  Gs3
 BYTE   W72
 BYTE   N07
 BYTE   W08
 BYTE   Gn3
 BYTE   W08
 BYTE   Fs3
 BYTE   W08
// 027   ----------------------------------------
 BYTE   N92  Fn3
 BYTE   W96
// 028   ----------------------------------------
 BYTE   VOICE   39
 BYTE   PAN   c_v+25
 BYTE   N32  As2
 BYTE   W36
 BYTE   Fn2
 BYTE   W36
 BYTE   Dn3
 BYTE   W24
// 029   ----------------------------------------
 BYTE   W12
 BYTE   As2
 BYTE   W36
 BYTE   N23  Fn3
 BYTE   W24
 BYTE   Dn3
 BYTE   W24
// 030   ----------------------------------------
 BYTE   En3
 BYTE   W24
 BYTE   N32  Gn3
 BYTE   W36
 BYTE   Cn4
 BYTE   W36
// 031   ----------------------------------------
 BYTE   N23  Gn3
 BYTE   W24
 BYTE   N32  En4
 BYTE   W36
 BYTE   Cn4
 BYTE   W36
// 032   ----------------------------------------
 BYTE   Gn4
 BYTE   W36
 BYTE   En4
 BYTE   W36
 BYTE   Cn5
 BYTE   W24
// 033   ----------------------------------------
 BYTE   W12
 BYTE   Gn4
 BYTE   W36
 BYTE   N23  En5
 BYTE   W24
 BYTE   Cn5
 BYTE   W24
// 034   ----------------------------------------
 BYTE   VOL   51*PokemonBWAlderThemeGratedShtick_mvl/mxv
 BYTE   PAN   c_v+40
 BYTE   N03  Gn2  v127
 BYTE   W08
 BYTE   Gn2  v112
 BYTE   W08
 BYTE   N03
 BYTE   W08
 BYTE   N11  Cn3
 BYTE   N11  En3
 BYTE   W16
 BYTE   N03  Gn2
 BYTE   N03  Cn3
 BYTE   W16
 BYTE   Gn2
 BYTE   W08
 BYTE   N03
 BYTE   W08
 BYTE   N07
 BYTE   W08
 BYTE   N03
 BYTE   W08
 BYTE   N03
 BYTE   W08
// 035   ----------------------------------------
 BYTE   N11
 BYTE   W16
 BYTE   N03
 BYTE   W08
 BYTE   N11  Gn3
 BYTE   N11  Cn4
 BYTE   W16
 BYTE   N03  En3
 BYTE   N03  Gn3
 BYTE   W16
 BYTE   N07  Gn2
 BYTE   W08
 BYTE   N03
 BYTE   W08
 BYTE   N03
 BYTE   W08
 BYTE   N03
 BYTE   W08
 BYTE   N03
 BYTE   W08
// 036   ----------------------------------------
 BYTE   N11
 BYTE   W16
 BYTE   N03
 BYTE   W08
 BYTE   N11  En3
 BYTE   N11  Gn3
 BYTE   W16
 BYTE   N03  Cn3
 BYTE   N03  En3
 BYTE   W16
 BYTE   Gn2
 BYTE   W08
 BYTE   N03
 BYTE   W08
 BYTE   N07
 BYTE   W08
 BYTE   N03
 BYTE   W08
 BYTE   N03
 BYTE   W08
// 037   ----------------------------------------
 BYTE   N11
 BYTE   W16
 BYTE   N03
 BYTE   W08
 BYTE   N11  Cn4
 BYTE   N11  En4
 BYTE   W15
 BYTE   N03  Cn4
 BYTE   W01
 BYTE   Gn3
 BYTE   W16
 BYTE   N07  Gn2
 BYTE   W08
 BYTE   N03  Gn3
 BYTE   N03  Cn4
 BYTE   W08
 BYTE   N23  Gs3
 BYTE   N23  Cs4
 BYTE   W16
 BYTE   N03  Gs2
 BYTE   W08
// 038   ----------------------------------------
 BYTE   N11  As2
 BYTE   W16
 BYTE   N03
 BYTE   W08
 BYTE   N11  Dn3
 BYTE   N11  Fn3
 BYTE   W16
 BYTE   N03  As2
 BYTE   N03  Dn3
 BYTE   W16
 BYTE   As2
 BYTE   W08
 BYTE   N03
 BYTE   W08
 BYTE   N07
 BYTE   W08
 BYTE   N03
 BYTE   W08
 BYTE   N03
 BYTE   W08
// 039   ----------------------------------------
 BYTE   N11
 BYTE   W16
 BYTE   N03
 BYTE   W08
 BYTE   N11  Fn3
 BYTE   N11  As3
 BYTE   W16
 BYTE   N03  As2
 BYTE   N03  Dn3
 BYTE   W16
 BYTE   N07  As2
 BYTE   W08
 BYTE   N03
 BYTE   W08
 BYTE   N03
 BYTE   W08
 BYTE   N03
 BYTE   W08
 BYTE   N03
 BYTE   W08
// 040   ----------------------------------------
 BYTE   N11
 BYTE   W16
 BYTE   N03
 BYTE   W08
 BYTE   N11  As3
 BYTE   N11  Dn4
 BYTE   W16
 BYTE   N03  Dn3
 BYTE   N03  Fn3
 BYTE   W16
 BYTE   As2
 BYTE   W08
 BYTE   N03
 BYTE   W08
 BYTE   N07
 BYTE   W08
 BYTE   N03
 BYTE   W08
 BYTE   N03
 BYTE   W08
// 041   ----------------------------------------
 BYTE   N11  Fn3
 BYTE   N11  As3
 BYTE   W16
 BYTE   N03  Dn3
 BYTE   N03  Fn3
 BYTE   W08
 BYTE   N24  Dn3
 BYTE   N24  As3
 BYTE   W32
 BYTE   N03  Dn3  v127
 BYTE   N03  As3  v112
 BYTE   W08
 BYTE   Dn3
 BYTE   N03  As3
 BYTE   W08
 BYTE   N07  Cs3  v120
 BYTE   N07  As3
 BYTE   W16
 BYTE   Dn3
 BYTE   N07  Bn3
 BYTE   W08
// 042   ----------------------------------------
 BYTE   N11  Cn3  v112
 BYTE   W16
 BYTE   N03
 BYTE   W08
 BYTE   N11  En3
 BYTE   N11  Gn3
 BYTE   W16
 BYTE   N03  Cn3
 BYTE   N03  En3
 BYTE   W16
 BYTE   Cn3
 BYTE   W08
 BYTE   N03
 BYTE   W08
 BYTE   N07
 BYTE   W08
 BYTE   N03
 BYTE   W08
 BYTE   N03
 BYTE   W08
// 043   ----------------------------------------
 BYTE   N11
 BYTE   W16
 BYTE   N03
 BYTE   W08
 BYTE   N11  Gn3
 BYTE   N11  Cn4
 BYTE   W16
 BYTE   N03  En3
 BYTE   N03  Gn3
 BYTE   W16
 BYTE   N07  Cn3
 BYTE   W08
 BYTE   N03
 BYTE   W08
 BYTE   N03
 BYTE   W08
 BYTE   N03
 BYTE   W08
 BYTE   N03
 BYTE   W08
// 044   ----------------------------------------
 BYTE   N11
 BYTE   W16
 BYTE   N03
 BYTE   W08
 BYTE   N11  Cn4
 BYTE   N11  En4
 BYTE   W16
 BYTE   N03  Gn3
 BYTE   N03  Cn4
 BYTE   W16
 BYTE   Cn3
 BYTE   W08
 BYTE   N03
 BYTE   W08
 BYTE   N07
 BYTE   W08
 BYTE   N03
 BYTE   W08
 BYTE   N03
 BYTE   W08
// 045   ----------------------------------------
 BYTE   VOL   55*PokemonBWAlderThemeGratedShtick_mvl/mxv
 BYTE   N03  Cn4
 BYTE   N03  En4
 BYTE   W08
 BYTE   N09  An3
 BYTE   N09  Dn4
 BYTE   W16
 BYTE   N11  Gn3
 BYTE   N11  Cn4
 BYTE   W16
 BYTE   N03  Fn3
 BYTE   N03  An3
 BYTE   W08
 BYTE   N01  Cn3
 BYTE   N01  Gn3
 BYTE   W08
 BYTE   N03  Cn3
 BYTE   N03  Gn3
 BYTE   W08
 BYTE   Bn2
 BYTE   N03  Fs3
 BYTE   W08
 BYTE   N15  Cn3
 BYTE   N15  Gn3
 BYTE   W16
 BYTE   N07  Cs3
 BYTE   N07  Gs3
 BYTE   W08
// 046   ----------------------------------------
 BYTE   VOL   51*PokemonBWAlderThemeGratedShtick_mvl/mxv
 BYTE   N11  Dn3
 BYTE   W16
 BYTE   N03
 BYTE   W08
 BYTE   N11  As3
 BYTE   N11  Dn4
 BYTE   W16
 BYTE   N03  Fn3
 BYTE   N03  As3
 BYTE   W16
 BYTE   Dn3
 BYTE   W08
 BYTE   N03
 BYTE   W08
 BYTE   N07
 BYTE   W08
 BYTE   N03
 BYTE   W08
 BYTE   N03
 BYTE   W08
// 047   ----------------------------------------
 BYTE   N11
 BYTE   W16
 BYTE   N03
 BYTE   W08
 BYTE   N11  Dn4
 BYTE   N11  Fn4
 BYTE   W16
 BYTE   N03  Fn3
 BYTE   N03  As3
 BYTE   W16
 BYTE   N07  Dn3
 BYTE   W08
 BYTE   N03
 BYTE   W08
 BYTE   N03
 BYTE   W08
 BYTE   N03
 BYTE   W08
 BYTE   N03
 BYTE   W08
// 048   ----------------------------------------
 BYTE   N11  Fn3
 BYTE   N11  As3
 BYTE   W16
 BYTE   N03  Dn3
 BYTE   N03  Fn3
 BYTE   W08
 BYTE   N11
 BYTE   N11  As3
 BYTE   W16
 BYTE   N03  Dn3
 BYTE   N03  Fn3
 BYTE   W08
 BYTE   Bn2
 BYTE   N03  Dn3
 BYTE   W08
 BYTE   N03
 BYTE   W08
 BYTE   N03
 BYTE   W08
 BYTE   N11  Fn3
 BYTE   N11  As3
 BYTE   W16
 BYTE   N03  Dn3
 BYTE   N03  Fn3
 BYTE   W08
// 049   ----------------------------------------
 BYTE   N11  As2
 BYTE   N11  Fn3
 BYTE   W16
 BYTE   N03  Dn3
 BYTE   N03  As3
 BYTE   W08
 BYTE   N11  Fn3
 BYTE   N11  Dn4
 BYTE   W16
 BYTE   N03  Dn3
 BYTE   N03  As3
 BYTE   W08
 BYTE   N11  Dn3
 BYTE   N11  As3
 BYTE   W16
 BYTE   N03  Fn3
 BYTE   N03  Dn4
 BYTE   W08
 BYTE   N13  As3
 BYTE   N13  Fn4
 BYTE   W16
 BYTE   N03  Fn3
 BYTE   N03  Dn4
 BYTE   W08
// 050   ----------------------------------------
 BYTE   N32  As3
 BYTE   W02
 BYTE   VOL   45*PokemonBWAlderThemeGratedShtick_mvl/mxv
 BYTE   W32
 BYTE   W02
 BYTE   N32  Fn3
 BYTE   W36
 BYTE   Dn4
 BYTE   W24
// 051   ----------------------------------------
 BYTE   W12
 BYTE   As3
 BYTE   W36
 BYTE   N23  Fn4
 BYTE   W24
 BYTE   Dn4
 BYTE   W24
// 052   ----------------------------------------
 BYTE   En4
 BYTE   W24
 BYTE   N32  Gn4
 BYTE   W36
 BYTE   Cn5
 BYTE   W36
// 053   ----------------------------------------
 BYTE   N23  Gn4
 BYTE   W24
 BYTE   N32  En5
 BYTE   W36
 BYTE   Cn5
 BYTE   W36
// 054   ----------------------------------------
 BYTE   VOICE   35
 BYTE   N32  Gn5
 BYTE   W36
 BYTE   En5
 BYTE   W36
 BYTE   Cn6  v072
 BYTE   W24
// 055   ----------------------------------------
 BYTE   W12
 BYTE   Gn5  v068
 BYTE   W36
 BYTE   N23  En6  v060
 BYTE   W24
 BYTE   Cn6  v056
 BYTE   W23
 BYTE   GoTo
  POIN2 Label_3_0100671C
 BYTE   FINE

//**************** Track 5 (Midi-Chn.4) ****************//

PokemonBWAlderThemeGratedShtick_005:
// 000   ----------------------------------------
 BYTE   KEYSH   PokemonBWAlderThemeGratedShtick_key+0
 BYTE   VOICE   48
 BYTE   VOL   40*PokemonBWAlderThemeGratedShtick_mvl/mxv
 BYTE   PAN   c_v+0
 BYTE   MOD 0
 BYTE   CnM2
 BYTE   PAN   c_v-30
 BYTE   N15  Dn4  v116
 BYTE   N15  Fn4
 BYTE   W16
 BYTE   N07  Fn3  v100
 BYTE   N07  As3
 BYTE   W08
 BYTE   Ds3
 BYTE   N07  Fn3  v127
 BYTE   W08
 BYTE   As2  v100
 BYTE   N07  Ds3
 BYTE   W08
 BYTE   Fn2
 BYTE   N07  Dn3
 BYTE   W08
 BYTE   Dn2  v124
 BYTE   N07  Fn2
 BYTE   W08
 BYTE   N03  Fn2  v100
 BYTE   N03  As2
 BYTE   W08
 BYTE   N07
 BYTE   N07  Dn3
 BYTE   W08
 BYTE   N03  Dn3  v120
 BYTE   N03  Fn3
 BYTE   W08
 BYTE   N07  Fn3  v100
 BYTE   N07  An3
 BYTE   W08
 BYTE   Ds3
 BYTE   N07  As3
 BYTE   W08
// 001   ----------------------------------------
 BYTE   N03  Dn4
 BYTE   N03  Fn4
 BYTE   W08
 BYTE   N07  Cs4
 BYTE   N07  En4
 BYTE   W08
 BYTE   N03  Dn4
 BYTE   N03  Fn4
 BYTE   W08
 BYTE   Dn4
 BYTE   N03  Fn4
 BYTE   W16
 BYTE   Dn4
 BYTE   N03  Fn4
 BYTE   W16
 BYTE   N01  As3
 BYTE   N01  Dn4
 BYTE   W08
 BYTE   As3
 BYTE   N01  Dn4
 BYTE   W08
 BYTE   N01
 BYTE   N01  Fn4
 BYTE   W08
 BYTE   Cn4
 BYTE   N01  Ds4
 BYTE   W08
 BYTE   N07  As3
 BYTE   N07  Dn4
 BYTE   W08
// 002   ----------------------------------------
 BYTE   N15  Fn4  v112
 BYTE   N15  As4
 BYTE   W16
 BYTE   N07  Cn4  v100
 BYTE   N07  Fn4
 BYTE   W08
 BYTE   An3
 BYTE   N07  Dn4
 BYTE   W08
 BYTE   Gn3
 BYTE   N07  Cn4
 BYTE   W08
 BYTE   Fn3
 BYTE   N07  As3
 BYTE   W08
 BYTE   Fn2
 BYTE   N07  As2
 BYTE   W08
 BYTE   N03
 BYTE   N03  Dn3
 BYTE   W08
 BYTE   N07
 BYTE   N07  Fn3
 BYTE   W08
 BYTE   N03
 BYTE   N03  As3
 BYTE   W08
 BYTE   N07
 BYTE   N07  Dn4
 BYTE   W08
 BYTE   N03
 BYTE   N03  Fn4
 BYTE   W08
// 003   ----------------------------------------
 BYTE   Dn4  v127
 BYTE   N03  As4
 BYTE   W08
 BYTE   N07  Cs4  v100
 BYTE   N07  An4
 BYTE   W08
 BYTE   N03  Dn4
 BYTE   N03  As4
 BYTE   W08
 BYTE   N23  Dn2  v127
 BYTE   N23  As2  v120
 BYTE   N23  Fn3  v124
 BYTE   W24
 BYTE   PAN   c_v-42
 BYTE   N03  Cs5  v100
 BYTE   W04
 BYTE   N01  Dn5  v108
 BYTE   W04
 BYTE   Dn5  v100
 BYTE   W04
 BYTE   Dn5  v116
 BYTE   W04
 BYTE   Dn5  v100
 BYTE   W04
 BYTE   Dn5  v112
 BYTE   W04
 BYTE   PAN   c_v-42
 BYTE   N23  As3  v100
 BYTE   N03  Cn5
 BYTE   W04
 BYTE   PAN   c_v-13
 BYTE   N03  As4  v112
 BYTE   W04
 BYTE   PAN   c_v+5
 BYTE   N03  Gn4  v100
 BYTE   W04
 BYTE   PAN   c_v+12
 BYTE   N03  Fn4
 BYTE   W04
 BYTE   PAN   c_v+19
 BYTE   N03  Ds4
 BYTE   W04
 BYTE   PAN   c_v+26
 BYTE   N03  Dn4
 BYTE   W04
// 004   ----------------------------------------
 BYTE   VOICE   60
 BYTE   VOL   35*PokemonBWAlderThemeGratedShtick_mvl/mxv
 BYTE   PAN   c_v-10
 BYTE   N68  Cn2  v127
 BYTE   W72
 BYTE   N23  Cn3  v112
 BYTE   W24
// 005   ----------------------------------------
 BYTE   N68  Gn2  v127
 BYTE   W72
 BYTE   N23  En3  v112
 BYTE   W24
// 006   ----------------------------------------
 BYTE   N68  Cn3
 BYTE   W72
 BYTE   N23  Fn3
 BYTE   W23
 BYTE   N44  En3
 BYTE   W01
// 007   ----------------------------------------
 BYTE   W48
 BYTE   N23  Gn3
 BYTE   W24
 BYTE   N07  Fs3
 BYTE   W08
 BYTE   Fn3
 BYTE   W08
 BYTE   En3
 BYTE   W08
// 008   ----------------------------------------
 BYTE   Dn3
 BYTE   W08
 BYTE   N60  As2
 BYTE   W64
 BYTE   N23  Gs2
 BYTE   W24
// 009   ----------------------------------------
 BYTE   N68  Fn2
 BYTE   W72
 BYTE   N23  Dn3
 BYTE   W24
// 010   ----------------------------------------
 BYTE   N68  As2
 BYTE   W72
 BYTE   N23  Ds3
 BYTE   W23
 BYTE   N44  Dn3
 BYTE   W01
// 011   ----------------------------------------
 BYTE   W48
 BYTE   N23  Fn3
 BYTE   W24
 BYTE   N07  Gs3
 BYTE   W16
 BYTE   Fn3
 BYTE   W08
// 012   ----------------------------------------
 BYTE   N09  Bn2  v127
 BYTE   W10
 BYTE   N03  Cn3  v112
 BYTE   W06
 BYTE   N03
 BYTE   W08
 BYTE   N07  Cn3  v127
 BYTE   W08
 BYTE   N03  Cn3  v112
 BYTE   W08
 BYTE   N03
 BYTE   W08
 BYTE   N07  Cn3  v127
 BYTE   W08
 BYTE   N03  Cn3  v112
 BYTE   W08
 BYTE   N03
 BYTE   W08
 BYTE   N23  En3
 BYTE   W24
// 013   ----------------------------------------
 BYTE   N07  Fs2  v124
 BYTE   W08
 BYTE   N03  Gn2  v127
 BYTE   W08
 BYTE   Gn2  v112
 BYTE   W08
 BYTE   Gn2  v124
 BYTE   W08
 BYTE   Gn2  v127
 BYTE   W08
 BYTE   Gn2  v112
 BYTE   W08
 BYTE   Gn2  v124
 BYTE   W08
 BYTE   Gn2  v127
 BYTE   W08
 BYTE   Gn2  v112
 BYTE   W08
 BYTE   N23  En3
 BYTE   W24
// 014   ----------------------------------------
 BYTE   N07  Bn2  v124
 BYTE   W08
 BYTE   N03  Cn3  v127
 BYTE   W08
 BYTE   Cn3  v112
 BYTE   W08
 BYTE   Cn3  v124
 BYTE   W08
 BYTE   Cn3  v127
 BYTE   W08
 BYTE   Cn3  v112
 BYTE   W08
 BYTE   Cn3  v124
 BYTE   W08
 BYTE   Cn3  v127
 BYTE   W08
 BYTE   Cn3  v112
 BYTE   W08
 BYTE   N23  Fn3
 BYTE   W24
// 015   ----------------------------------------
 BYTE   N07  Ds3  v124
 BYTE   W08
 BYTE   N03  En3  v127
 BYTE   W08
 BYTE   En3  v112
 BYTE   W08
 BYTE   N23  En3  v124
 BYTE   W24
 BYTE   N07  Fs3
 BYTE   W08
 BYTE   N03  Gn3  v127
 BYTE   W08
 BYTE   Gn3  v112
 BYTE   W08
 BYTE   N15  Gn3  v124
 BYTE   W16
 BYTE   N07  Fs3
 BYTE   W08
// 016   ----------------------------------------
 BYTE   N09  An2  v127
 BYTE   W10
 BYTE   N03  As2  v112
 BYTE   W06
 BYTE   N03
 BYTE   W08
 BYTE   As2  v127
 BYTE   W08
 BYTE   As2  v112
 BYTE   W08
 BYTE   N03
 BYTE   W08
 BYTE   As2  v127
 BYTE   W08
 BYTE   As2  v112
 BYTE   W08
 BYTE   N03
 BYTE   W08
 BYTE   N23  Dn3
 BYTE   W24
// 017   ----------------------------------------
 BYTE   N07  En2  v124
 BYTE   W08
 BYTE   N01  Fn2  v127
 BYTE   W08
 BYTE   Fn2  v112
 BYTE   W08
 BYTE   N03  Fn2  v124
 BYTE   W08
 BYTE   N01  Fn2  v127
 BYTE   W08
 BYTE   Fn2  v112
 BYTE   W08
 BYTE   N03  Fn2  v124
 BYTE   W08
 BYTE   N01  Fn2  v127
 BYTE   W08
 BYTE   Fn2  v112
 BYTE   W08
 BYTE   N15  Dn3
 BYTE   W16
 BYTE   N07  As2  v124
 BYTE   W08
// 018   ----------------------------------------
 BYTE   En3
 BYTE   W08
 BYTE   N01  Fn3  v127
 BYTE   W08
 BYTE   Fn3  v112
 BYTE   W08
 BYTE   N07  Fn3  v124
 BYTE   W08
 BYTE   N01  Fn3  v127
 BYTE   W08
 BYTE   Fn3  v112
 BYTE   W08
 BYTE   N05  Fn3  v124
 BYTE   W08
 BYTE   N01  Fn3  v127
 BYTE   W08
 BYTE   Fn3  v112
 BYTE   W08
 BYTE   N23  As3
 BYTE   W24
// 019   ----------------------------------------
 BYTE   N03  Dn3  v124
 BYTE   W08
 BYTE   N01  Dn3  v127
 BYTE   W08
 BYTE   Dn3  v112
 BYTE   W08
 BYTE   N23  Dn3  v124
 BYTE   W24
 BYTE   N07  En3
 BYTE   W08
 BYTE   N01  Fn3  v127
 BYTE   W08
 BYTE   Fn3  v112
 BYTE   W08
 BYTE   N07  Fn3  v124
 BYTE   W16
 BYTE   As3
 BYTE   W08
// 020   ----------------------------------------
Label_4_01006BDE:
 BYTE   VOICE   48
 BYTE   VOL   39*PokemonBWAlderThemeGratedShtick_mvl/mxv
 BYTE   W02
 BYTE   PAN   c_v-7
 BYTE   N23  Cn2  v116
 BYTE   W22
 BYTE   N07  Gn2  v127
 BYTE   W08
 BYTE   En2  v116
 BYTE   W08
 BYTE   Gn2
 BYTE   W08
 BYTE   Cn3  v127
 BYTE   W08
 BYTE   Gn2  v116
 BYTE   W08
 BYTE   Cn3
 BYTE   W08
 BYTE   En3  v127
 BYTE   W08
 BYTE   Cn3  v116
 BYTE   W08
 BYTE   En3
 BYTE   W08
// 021   ----------------------------------------
 BYTE   N42  Fn3
 BYTE   W44
 BYTE   N01  En3
 BYTE   W02
 BYTE   Ds3
 BYTE   W02
 BYTE   N21  Dn3  v127
 BYTE   W22
 BYTE   N01  Cs3  v116
 BYTE   W02
 BYTE   PAN   c_v-25
 BYTE   W24
// 022   ----------------------------------------
 BYTE   N44  En3  v127
 BYTE   W48
 BYTE   N23  Cn3
 BYTE   W48
// 023   ----------------------------------------
 BYTE   N44  As2
 BYTE   W48
 BYTE   Cs3
 BYTE   W48
// 024   ----------------------------------------
 BYTE   N32  As2  v116
 BYTE   W36
 BYTE   Dn3
 BYTE   W36
 BYTE   N23  As2
 BYTE   W24
// 025   ----------------------------------------
 BYTE   N44  Cn3
 BYTE   W48
 BYTE   N23  Ds3
 BYTE   W48
// 026   ----------------------------------------
 BYTE   N68  Dn3  v108
 BYTE   W72
 BYTE   N07  Dn3  v104
 BYTE   W06
 BYTE   Cs3  v100
 BYTE   W10
 BYTE   Cn3  v096
 BYTE   W08
// 027   ----------------------------------------
 BYTE   N92  As2
 BYTE   W96
// 028   ----------------------------------------
 BYTE   VOICE   29
 BYTE   PAN   c_v-24
 BYTE   N03  As0  v112
 BYTE   W16
 BYTE   N01
 BYTE   W08
 BYTE   N21
 BYTE   N21  Fn1
 BYTE   W24
 BYTE   N03  As0
 BYTE   W09
 BYTE   N01
 BYTE   W07
 BYTE   N01
 BYTE   W08
 BYTE   N23  Dn1
 BYTE   N23  Fs1
 BYTE   W24
// 029   ----------------------------------------
 BYTE   N03  As0
 BYTE   W16
 BYTE   N01
 BYTE   W08
 BYTE   N21  Cs1
 BYTE   N21  Gs1
 BYTE   W24
 BYTE   N03  As0
 BYTE   W09
 BYTE   N01
 BYTE   W07
 BYTE   N01
 BYTE   W08
 BYTE   N23  Dn1
 BYTE   N23  Fs1
 BYTE   W24
// 030   ----------------------------------------
 BYTE   N03  Cn1
 BYTE   W16
 BYTE   N01
 BYTE   W08
 BYTE   N21
 BYTE   N21  Gn1
 BYTE   W24
 BYTE   N03  Cn1
 BYTE   W09
 BYTE   N01
 BYTE   W07
 BYTE   N01
 BYTE   W08
 BYTE   N23  En1
 BYTE   N23  Gs1
 BYTE   W24
// 031   ----------------------------------------
 BYTE   N03  Cn1
 BYTE   W16
 BYTE   N01
 BYTE   W08
 BYTE   N21  Ds1
 BYTE   N21  As1
 BYTE   W24
 BYTE   N03  Cn1
 BYTE   W09
 BYTE   N01
 BYTE   W07
 BYTE   N01
 BYTE   W08
 BYTE   N23  En1
 BYTE   N23  Gs1
 BYTE   W24
// 032   ----------------------------------------
 BYTE   N07  Fs2
 BYTE   W08
 BYTE   N01  Gn2
 BYTE   W08
 BYTE   N01
 BYTE   W08
 BYTE   N21  Cn2
 BYTE   N21  Gn2
 BYTE   W24
 BYTE   N07  Fs2
 BYTE   W08
 BYTE   N01  Gn2
 BYTE   W08
 BYTE   N01
 BYTE   W08
 BYTE   N23  Cn2
 BYTE   N23  Gn2
 BYTE   W24
// 033   ----------------------------------------
 BYTE   N07  Fs2
 BYTE   W08
 BYTE   N01  Gn2
 BYTE   W08
 BYTE   N01
 BYTE   W08
 BYTE   N21  Cn2
 BYTE   N21  Gn2
 BYTE   W24
 BYTE   N07  Fs2
 BYTE   W08
 BYTE   N01  Gn2
 BYTE   W08
 BYTE   N01
 BYTE   W07
 BYTE   N15
 BYTE   W01
 BYTE   Cn3
 BYTE   W16
 BYTE   N07  En2
 BYTE   N07  As2
 BYTE   W08
// 034   ----------------------------------------
 BYTE   VOL   32*PokemonBWAlderThemeGratedShtick_mvl/mxv
 BYTE   PAN   c_v-36
 BYTE   N07  Fs1
 BYTE   N07  Bn1
 BYTE   W08
 BYTE   N01  Gn1
 BYTE   N01  Cn2
 BYTE   W08
 BYTE   Gn1
 BYTE   N01  Cn2
 BYTE   W07
 BYTE   N15  En2
 BYTE   W01
 BYTE   Cn2
 BYTE   W15
 BYTE   N03  Gn1
 BYTE   N03  Dn2
 BYTE   W09
 BYTE   N01  Fs1
 BYTE   N01  Bn1
 BYTE   W08
 BYTE   N13  Gn1  v108
 BYTE   N13  Cn2
 BYTE   W16
 BYTE   N07  Gn1  v112
 BYTE   N07  Cn2
 BYTE   W16
 BYTE   N01  Gn1  v127
 BYTE   N01  Cn2
 BYTE   W08
// 035   ----------------------------------------
 BYTE   Gn1  v112
 BYTE   N01  Cn2
 BYTE   W08
 BYTE   Gn1  v088
 BYTE   N01  Cn2
 BYTE   W08
 BYTE   Gn1  v100
 BYTE   N01  Cn2
 BYTE   W08
 BYTE   N15  An2  v108
 BYTE   N15  Dn3
 BYTE   W16
 BYTE   N03  Gn2
 BYTE   N03  Cn3
 BYTE   W08
 BYTE   N07  Cn2  v112
 BYTE   N07  En2
 BYTE   W08
 BYTE   N01  Cn2  v088
 BYTE   N01  En2
 BYTE   W08
 BYTE   Cn2  v100
 BYTE   N01  En2
 BYTE   W08
 BYTE   N21  Cn2  v112
 BYTE   N21  En2
 BYTE   W24
// 036   ----------------------------------------
Label_4_01006D38:
 BYTE   N07  As1  v124
 BYTE   N07  Ds2
 BYTE   W08
 BYTE   N01  Cn2  v112
 BYTE   N01  En2
 BYTE   W08
 BYTE   Cn2  v100
 BYTE   N01  En2
 BYTE   W08
 BYTE   N07  Cn2  v112
 BYTE   N07  En2
 BYTE   W08
 BYTE   N01  Cn2  v088
 BYTE   N01  En2
 BYTE   W08
 BYTE   Cn2  v100
 BYTE   N01  En2
 BYTE   W08
 BYTE   Gn1  v112
 BYTE   N01  En2
 BYTE   W08
 BYTE   N14  Gn1  v088
 BYTE   N14  En2
 BYTE   W16
 BYTE   N05  Gn1  v100
 BYTE   N05  En2
 BYTE   W16
 BYTE   N02  Gn1
 BYTE   N02  En2
 BYTE   W08
 BYTE   PEND 
// 037   ----------------------------------------
 BYTE   N04  Cn1  v127
 BYTE   N04  Cn2
 BYTE   W08
 BYTE   N01  Cn1  v124
 BYTE   N01  Cn2
 BYTE   W08
 BYTE   Cn1  v108
 BYTE   N01  Cn2
 BYTE   W08
 BYTE   N15  Cn3  v127
 BYTE   N15  En3
 BYTE   W16
 BYTE   N05  Cn2
 BYTE   N05  Gn2
 BYTE   W08
 BYTE   N04  Cn1
 BYTE   N04  Cn2
 BYTE   W16
 BYTE   N01  Cn1  v108
 BYTE   N01  Cn2
 BYTE   W08
 BYTE   N15  Cn3  v127
 BYTE   N15  En3
 BYTE   W04
 BYTE   MOD 0
 BYTE   BnM2
 BYTE   W12
 BYTE   CnM2
 BYTE   N05  Cn2
 BYTE   N05  Gn2
 BYTE   W04
 BYTE   MOD 0
 BYTE   CnM2
 BYTE   W04
// 038   ----------------------------------------
 BYTE   N07  As2
 BYTE   N07  Dn3
 BYTE   W08
 BYTE   N01  An1  v112
 BYTE   N01  As2
 BYTE   W08
 BYTE   An1
 BYTE   N01  As2
 BYTE   W08
 BYTE   BEND   c_v-6
 BYTE   N19  As2  v127
 BYTE   N19  Dn3
 BYTE   W08
 BYTE   BEND   c_v+0
 BYTE   W16
 BYTE   N01  Gs2  v112
 BYTE   N01  Cs3
 BYTE   W08
 BYTE   N13  An2  v108
 BYTE   N13  Dn3
 BYTE   W08
 BYTE   BEND   c_v-6
 BYTE   W08
 BYTE   En3
 BYTE   N07  An2  v112
 BYTE   N07  Dn3
 BYTE   W16
 BYTE   N01  An2  v127
 BYTE   N01  Dn3
 BYTE   W08
// 039   ----------------------------------------
Label_4_01006DE0:
 BYTE   N07  An1  v124
 BYTE   N07  As2
 BYTE   W08
 BYTE   N01  An1  v112
 BYTE   N01  As2
 BYTE   W08
 BYTE   An1  v120
 BYTE   N01  As2
 BYTE   W08
 BYTE   An1  v127
 BYTE   N01  As2
 BYTE   W08
 BYTE   N03  An1
 BYTE   N03  As2
 BYTE   W08
 BYTE   N01  An1
 BYTE   N01  As2
 BYTE   W08
 BYTE   An1
 BYTE   N01  As2
 BYTE   W08
 BYTE   N03  An1
 BYTE   N03  As2
 BYTE   W08
 BYTE   N01  An1
 BYTE   N01  As2
 BYTE   W08
 BYTE   An1
 BYTE   N01  As2
 BYTE   W08
 BYTE   N03  An1
 BYTE   N03  As2
 BYTE   W08
 BYTE   N07  An1
 BYTE   N07  As2
 BYTE   W08
 BYTE   PEND 
// 040   ----------------------------------------
Label_4_01006E1D:
 BYTE   N03  An1  v124
 BYTE   N03  As2
 BYTE   W08
 BYTE   N01  An1  v112
 BYTE   N01  As2
 BYTE   W08
 BYTE   An1  v120
 BYTE   N01  As2
 BYTE   W08
 BYTE   N15  Fn2  v127
 BYTE   N15  Dn3
 BYTE   W16
 BYTE   N07  As1
 BYTE   N07  Gs2
 BYTE   W08
 BYTE   N03  An0  v124
 BYTE   N03  As1
 BYTE   W08
 BYTE   An0  v112
 BYTE   N03  As1
 BYTE   W08
 BYTE   N01  An0  v120
 BYTE   N01  As1
 BYTE   W08
 BYTE   N15  Dn2  v127
 BYTE   N15  As2
 BYTE   W16
 BYTE   N07  As1
 BYTE   N07  Fn2
 BYTE   W08
 BYTE   PEND 
// 041   ----------------------------------------
Label_4_01006E56:
 BYTE   N07  Fn3  v127
 BYTE   W08
 BYTE   Dn3
 BYTE   W08
 BYTE   As2
 BYTE   W08
 BYTE   Dn3
 BYTE   W08
 BYTE   As2
 BYTE   W08
 BYTE   Fn2
 BYTE   W08
 BYTE   N01  Bn1  v112
 BYTE   N01  En2
 BYTE   W08
 BYTE   N13  Cn2  v108
 BYTE   N13  Fn2
 BYTE   W16
 BYTE   N15  Fn2  v112
 BYTE   N15  As2
 BYTE   W16
 BYTE   N07  As2  v127
 BYTE   N07  Dn3
 BYTE   W08
 BYTE   PEND 
// 042   ----------------------------------------
 BYTE   Cn1  v112
 BYTE   N07  Cn2
 BYTE   W08
 BYTE   N01  Gn1
 BYTE   W08
 BYTE   Cn2
 BYTE   W07
 BYTE   N15  En2
 BYTE   W01
 BYTE   Gn1
 BYTE   W15
 BYTE   N03
 BYTE   W01
 BYTE   Cn2
 BYTE   W08
 BYTE   N01  Fs1
 BYTE   N01  Bn1
 BYTE   W08
 BYTE   N13  Gn1  v108
 BYTE   N13  Cn2
 BYTE   W16
 BYTE   N07  Gn1  v112
 BYTE   N07  Cn2
 BYTE   W16
 BYTE   N01  Gn1  v127
 BYTE   N01  Cn2
 BYTE   W08
// 043   ----------------------------------------
 BYTE   Gn1  v112
 BYTE   N01  Cn2
 BYTE   W08
 BYTE   Gn1  v088
 BYTE   N01  Cn2
 BYTE   W08
 BYTE   Gn1  v100
 BYTE   N01  Cn2
 BYTE   W08
 BYTE   N15  An2  v108
 BYTE   N15  Dn3
 BYTE   W16
 BYTE   N03  Gn2
 BYTE   N03  Cn3
 BYTE   W08
 BYTE   En2  v112
 BYTE   N03  Gn2
 BYTE   W16
 BYTE   N01  En2  v100
 BYTE   N01  Gn2
 BYTE   W08
 BYTE   N21  En2  v112
 BYTE   N21  Gn2
 BYTE   W24
 BYTE   PATT
  POIN2 Label_4_01006D38
// 044   ----------------------------------------
 BYTE   N04  Cn1  v127
 BYTE   N04  Cn2
 BYTE   W08
 BYTE   N01  Cn1  v124
 BYTE   N01  Cn2
 BYTE   W08
 BYTE   Cn1  v108
 BYTE   N01  Cn2
 BYTE   W08
 BYTE   N15  Cn3  v127
 BYTE   N15  En3
 BYTE   W16
 BYTE   N05  Cn2
 BYTE   N05  Gn2
 BYTE   W08
 BYTE   N04  Cn1
 BYTE   N04  Cn2
 BYTE   W16
 BYTE   N01  Cn1  v108
 BYTE   N01  Cn2
 BYTE   W08
 BYTE   N15  Cn3  v127
 BYTE   N15  En3
 BYTE   W16
 BYTE   N05  Cn2
 BYTE   N05  Gn2
 BYTE   W08
// 045   ----------------------------------------
 BYTE   N07  As2
 BYTE   N07  Dn3
 BYTE   W08
 BYTE   N01  An1  v112
 BYTE   N01  As2
 BYTE   W08
 BYTE   An1
 BYTE   N01  As2
 BYTE   W08
 BYTE   N19  As2  v127
 BYTE   N19  Dn3
 BYTE   W24
 BYTE   N01  Gs2  v112
 BYTE   N01  Cs3
 BYTE   W08
 BYTE   N13  An2  v108
 BYTE   N13  Dn3
 BYTE   W16
 BYTE   N07  An2  v112
 BYTE   N07  Dn3
 BYTE   W16
 BYTE   N01  An2  v127
 BYTE   N01  Dn3
 BYTE   W08
 BYTE   PATT
  POIN2 Label_4_01006DE0
 BYTE   PATT
  POIN2 Label_4_01006E1D
 BYTE   PATT
  POIN2 Label_4_01006E56
// 046   ----------------------------------------
 BYTE   PAN   c_v-30
 BYTE   N07  Cs1  v124
 BYTE   N07  An1
 BYTE   N07  Cs2
 BYTE   W08
 BYTE   N13  Dn1  v127
 BYTE   N13  As1
 BYTE   N13  Dn2
 BYTE   W16
 BYTE   N01  Dn1
 BYTE   N01  As1
 BYTE   N01  Dn2
 BYTE   W08
 BYTE   N03  Dn1
 BYTE   N03  As1
 BYTE   N03  Dn2
 BYTE   W08
 BYTE   N01  Dn1
 BYTE   N01  As1
 BYTE   N01  Dn2
 BYTE   W08
 BYTE   Dn1
 BYTE   N01  As1
 BYTE   N01  Dn2
 BYTE   W08
 BYTE   Dn1
 BYTE   N01  As1
 BYTE   N01  Dn2
 BYTE   W08
 BYTE   N03  Dn1
 BYTE   N03  As1
 BYTE   N03  Dn2
 BYTE   W08
 BYTE   N21  En1
 BYTE   N21  As1
 BYTE   N21  En2
 BYTE   W24
// 047   ----------------------------------------
 BYTE   N01  Dn1
 BYTE   N01  As1
 BYTE   N01  Dn2
 BYTE   W08
 BYTE   Dn1
 BYTE   N01  As1
 BYTE   N01  Dn2
 BYTE   W08
 BYTE   N03  Dn1
 BYTE   N03  As1
 BYTE   N03  Dn2
 BYTE   W08
 BYTE   N21  Fn1
 BYTE   N21  As1
 BYTE   N21  Fn2
 BYTE   W24
 BYTE   N01  Dn1
 BYTE   N01  As1
 BYTE   N01  Dn2
 BYTE   W08
 BYTE   Dn1
 BYTE   N01  As1
 BYTE   N01  Dn2
 BYTE   W08
 BYTE   N03  Dn1
 BYTE   N03  As1
 BYTE   N03  Dn2
 BYTE   W08
 BYTE   N15  Dn1
 BYTE   N15  An1  v124
 BYTE   N15  Dn2  v127
 BYTE   W16
 BYTE   N05  Dn1
 BYTE   N05  As1
 BYTE   N05  Dn2
 BYTE   W08
// 048   ----------------------------------------
 BYTE   N07  Ds1  v124
 BYTE   N07  Bn1
 BYTE   N07  Ds2
 BYTE   W08
 BYTE   N13  En1  v127
 BYTE   N13  Cn2
 BYTE   N13  En2
 BYTE   W16
 BYTE   N01  En1
 BYTE   N01  Cn2
 BYTE   N01  En2
 BYTE   W08
 BYTE   N03  En1
 BYTE   N03  Cn2
 BYTE   N03  En2
 BYTE   W08
 BYTE   N01  En1
 BYTE   N01  Cn2
 BYTE   N01  En2
 BYTE   W08
 BYTE   En1
 BYTE   N01  Cn2
 BYTE   N01  En2
 BYTE   W08
 BYTE   En1
 BYTE   N01  Cn2
 BYTE   N01  En2
 BYTE   W08
 BYTE   N03  En1
 BYTE   N03  Cn2
 BYTE   N03  En2
 BYTE   W08
 BYTE   N21  Fn1
 BYTE   N21  Cn2
 BYTE   N21  Fn2
 BYTE   W24
// 049   ----------------------------------------
 BYTE   N01  En1
 BYTE   N01  Cn2
 BYTE   N01  En2
 BYTE   W08
 BYTE   En1
 BYTE   N01  Cn2
 BYTE   N01  En2
 BYTE   W08
 BYTE   N03  En1
 BYTE   N03  Cn2
 BYTE   N03  En2
 BYTE   W08
 BYTE   N21  Gn1
 BYTE   N21  Cn2
 BYTE   N21  Gn2
 BYTE   W24
 BYTE   N01  En1
 BYTE   N01  Cn2
 BYTE   N01  En2
 BYTE   W08
 BYTE   En1
 BYTE   N01  Cn2
 BYTE   N01  En2
 BYTE   W08
 BYTE   N03  En1
 BYTE   N03  Cn2
 BYTE   N03  En2
 BYTE   W08
 BYTE   N15  Fn1
 BYTE   N15  Bn1  v124
 BYTE   N15  Fn2  v127
 BYTE   W16
 BYTE   N05  En1
 BYTE   N05  Cn2
 BYTE   N05  En2
 BYTE   W08
// 050   ----------------------------------------
 BYTE   N07  En1
 BYTE   N07  Cn2
 BYTE   N07  En2
 BYTE   W16
 BYTE   N03  En1
 BYTE   N03  Cn2
 BYTE   N03  En2
 BYTE   W08
 BYTE   N07  Ds1  v124
 BYTE   N07  Bn1
 BYTE   N07  Ds2
 BYTE   W08
 BYTE   N13  En1  v127
 BYTE   N13  Cn2
 BYTE   N13  En2
 BYTE   W16
 BYTE   N01  En1
 BYTE   N01  Cn2
 BYTE   N01  En2
 BYTE   W08
 BYTE   N03  En1
 BYTE   N03  Cn2
 BYTE   N03  En2
 BYTE   W08
 BYTE   N01  En1
 BYTE   N01  Cn2
 BYTE   N01  En2
 BYTE   W08
 BYTE   N21  En1
 BYTE   N21  Cn2
 BYTE   N21  En2
 BYTE   W24
// 051   ----------------------------------------
 BYTE   N07  En1
 BYTE   N07  Cn2
 BYTE   N07  En2
 BYTE   W16
 BYTE   N03  En1
 BYTE   N03  Cn2
 BYTE   N03  En2
 BYTE   W08
 BYTE   N07  Ds1  v124
 BYTE   N07  Bn1
 BYTE   N07  Ds2
 BYTE   W08
 BYTE   N13  En1  v127
 BYTE   N13  Cn2
 BYTE   N13  En2
 BYTE   W16
 BYTE   N01  En1
 BYTE   N01  Cn2
 BYTE   N01  En2
 BYTE   W08
 BYTE   N03  En1
 BYTE   N03  Cn2
 BYTE   N03  En2
 BYTE   W08
 BYTE   N01  En1
 BYTE   N01  Cn2
 BYTE   N01  En2
 BYTE   W08
 BYTE   En1
 BYTE   N01  Cn2
 BYTE   N01  En2
 BYTE   W16
 BYTE   N03  En1
 BYTE   N03  Cn2
 BYTE   N03  En2
 BYTE   W07
 BYTE   GoTo
  POIN2 Label_4_01006BDE
 BYTE   FINE

//**************** Track 6 (Midi-Chn.5) ****************//

PokemonBWAlderThemeGratedShtick_006:
// 000   ----------------------------------------
 BYTE   KEYSH   PokemonBWAlderThemeGratedShtick_key+0
 BYTE   VOICE   35
 BYTE   VOL   30*PokemonBWAlderThemeGratedShtick_mvl/mxv
 BYTE   PAN   c_v+0
 BYTE   MOD 0
 BYTE   CnM2
 BYTE   W96
// 001   ----------------------------------------
 BYTE   W96
// 002   ----------------------------------------
 BYTE   W96
// 003   ----------------------------------------
 BYTE   W24
 BYTE   N23  As3  v116
 BYTE   W24
 BYTE   PAN   c_v-14
 BYTE   N03  An5
 BYTE   N01  Ds6
 BYTE   W02
 BYTE   N21  Dn6  v120
 BYTE   W02
 BYTE   N01  As5  v116
 BYTE   W04
 BYTE   N03  An5
 BYTE   W04
 BYTE   MOD 0
 BYTE   DnM2
 BYTE   N01  As5
 BYTE   W04
 BYTE   N03  An5
 BYTE   W04
 BYTE   N01  As5  v112
 BYTE   W04
 BYTE   PAN   c_v-12
 BYTE   MOD 0
 BYTE   CnM2
 BYTE   N03  Cn6  v108
 BYTE   W04
 BYTE   PAN   c_v-10
 BYTE   MOD 0
 BYTE   CnM2
 BYTE   N03  As5  v112
 BYTE   W04
 BYTE   PAN   c_v-6
 BYTE   N03  Fn5
 BYTE   W04
 BYTE   PAN   c_v+17
 BYTE   N03  Ds5  v116
 BYTE   W04
 BYTE   PAN   c_v+41
 BYTE   N03  Dn5  v108
 BYTE   W04
 BYTE   PAN   c_v+53
 BYTE   N03  As4  v112
 BYTE   W04
// 004   ----------------------------------------
 BYTE   PAN   c_v-7
 BYTE   N07  Cn4
 BYTE   W01
 BYTE   VOL   33*PokemonBWAlderThemeGratedShtick_mvl/mxv
 BYTE   W07
 BYTE   N07  Gn4
 BYTE   W08
 BYTE   Cn5
 BYTE   W08
 BYTE   Gn4
 BYTE   W08
 BYTE   Gn5
 BYTE   W08
 BYTE   Cn5
 BYTE   W08
 BYTE   Gn4
 BYTE   W08
 BYTE   Cn4
 BYTE   W08
 BYTE   Gn4
 BYTE   W08
 BYTE   Cn5
 BYTE   W08
 BYTE   Gn5
 BYTE   W08
 BYTE   Cn5
 BYTE   W08
// 005   ----------------------------------------
Label_5_0100713A:
 BYTE   N07  Gn5  v112
 BYTE   W08
 BYTE   Cn5
 BYTE   W08
 BYTE   Gn4
 BYTE   W08
 BYTE   Gn5
 BYTE   W08
 BYTE   Cn5
 BYTE   W08
 BYTE   Gn4
 BYTE   W08
 BYTE   Cn4
 BYTE   W08
 BYTE   Gn4
 BYTE   W08
 BYTE   Cn5
 BYTE   W08
 BYTE   Gn5
 BYTE   W08
 BYTE   Cn5
 BYTE   W08
 BYTE   Gn4
 BYTE   W08
 BYTE   PEND 
// 006   ----------------------------------------
Label_5_01007155:
 BYTE   N07  Cn4  v112
 BYTE   W08
 BYTE   Gn4
 BYTE   W08
 BYTE   Cn5
 BYTE   W08
 BYTE   Gn4
 BYTE   W08
 BYTE   Gn5
 BYTE   W08
 BYTE   Cn5
 BYTE   W08
 BYTE   Gn4
 BYTE   W08
 BYTE   Cn4
 BYTE   W08
 BYTE   Gn4
 BYTE   W08
 BYTE   Cn5
 BYTE   W08
 BYTE   Gn5
 BYTE   W08
 BYTE   Cn5
 BYTE   W08
 BYTE   PEND 
// 007   ----------------------------------------
 BYTE   Gn5
 BYTE   W08
 BYTE   Cn5
 BYTE   W08
 BYTE   Gn4
 BYTE   W08
 BYTE   Gn5
 BYTE   W08
 BYTE   Cn5
 BYTE   W08
 BYTE   Gn4
 BYTE   W08
 BYTE   Cn4
 BYTE   W08
 BYTE   Gn4
 BYTE   W08
 BYTE   Cn5
 BYTE   W08
 BYTE   N03  Gn5
 BYTE   W04
 BYTE   En5
 BYTE   W04
 BYTE   Cn5
 BYTE   W04
 BYTE   An4
 BYTE   W04
 BYTE   Gn4
 BYTE   W04
 BYTE   En4
 BYTE   W04
// 008   ----------------------------------------
Label_5_0100718F:
 BYTE   N07  Dn4  v112
 BYTE   W08
 BYTE   As4
 BYTE   W08
 BYTE   Fn5
 BYTE   W08
 BYTE   As4
 BYTE   W08
 BYTE   As5
 BYTE   W08
 BYTE   Fn5
 BYTE   W08
 BYTE   As4
 BYTE   W08
 BYTE   Dn4
 BYTE   W08
 BYTE   As4
 BYTE   W08
 BYTE   Fn5
 BYTE   W08
 BYTE   As5
 BYTE   W08
 BYTE   Fn5
 BYTE   W08
 BYTE   PEND 
// 009   ----------------------------------------
Label_5_010071AA:
 BYTE   N07  As5  v112
 BYTE   W08
 BYTE   Fn5
 BYTE   W08
 BYTE   As4
 BYTE   W08
 BYTE   As5
 BYTE   W08
 BYTE   Fn5
 BYTE   W08
 BYTE   As4
 BYTE   W08
 BYTE   Dn4
 BYTE   W08
 BYTE   As4
 BYTE   W08
 BYTE   Fn5
 BYTE   W08
 BYTE   As5
 BYTE   W08
 BYTE   Fn5
 BYTE   W08
 BYTE   As4
 BYTE   W08
 BYTE   PEND 
 BYTE   PATT
  POIN2 Label_5_0100718F
// 010   ----------------------------------------
 BYTE   N07  As5  v112
 BYTE   W08
 BYTE   Fn5
 BYTE   W08
 BYTE   As4
 BYTE   W08
 BYTE   As5
 BYTE   W08
 BYTE   Fn5
 BYTE   W08
 BYTE   As4
 BYTE   W08
 BYTE   Dn4
 BYTE   W08
 BYTE   As4
 BYTE   W08
 BYTE   Fn5
 BYTE   W08
 BYTE   N03  As5
 BYTE   W04
 BYTE   Gn5
 BYTE   W04
 BYTE   Fn5
 BYTE   W04
 BYTE   Dn5
 BYTE   W04
 BYTE   As4
 BYTE   W04
 BYTE   Fn4
 BYTE   W04
// 011   ----------------------------------------
 BYTE   N07  Cn4
 BYTE   W08
 BYTE   Gn4
 BYTE   W08
 BYTE   Cn5
 BYTE   W08
 BYTE   Gn4
 BYTE   W08
 BYTE   Gn5
 BYTE   W08
 BYTE   Cn5
 BYTE   W08
 BYTE   Gn4
 BYTE   W08
 BYTE   Cn4
 BYTE   W08
 BYTE   Gn4
 BYTE   W08
 BYTE   Cn5
 BYTE   W08
 BYTE   Gn5
 BYTE   W08
 BYTE   Cn5
 BYTE   W08
// 012   ----------------------------------------
 BYTE   Gn5
 BYTE   W08
 BYTE   Cn5
 BYTE   W08
 BYTE   Gn4
 BYTE   W08
 BYTE   Gn5
 BYTE   W08
 BYTE   Cn5
 BYTE   W08
 BYTE   Gn4
 BYTE   W08
 BYTE   Cn4
 BYTE   W08
 BYTE   Gn4
 BYTE   W08
 BYTE   Cn5
 BYTE   W08
 BYTE   Gs5
 BYTE   W08
 BYTE   Cn5
 BYTE   W08
 BYTE   Gn4
 BYTE   W08
 BYTE   PATT
  POIN2 Label_5_01007155
// 013   ----------------------------------------
 BYTE   N07  Gn5  v112
 BYTE   W08
 BYTE   Cn5
 BYTE   W08
 BYTE   Gn4
 BYTE   W08
 BYTE   Gn5
 BYTE   W08
 BYTE   Cn5
 BYTE   W08
 BYTE   Gn4
 BYTE   W08
 BYTE   Cn4
 BYTE   W08
 BYTE   Gn4
 BYTE   W08
 BYTE   Cn5
 BYTE   W08
 BYTE   N03  Gn5
 BYTE   W04
 BYTE   En5
 BYTE   W04
 BYTE   Cn5
 BYTE   W04
 BYTE   An4
 BYTE   W04
 BYTE   Fs4
 BYTE   W04
 BYTE   En4
 BYTE   W04
// 014   ----------------------------------------
 BYTE   N07  As3
 BYTE   W08
 BYTE   Fn4
 BYTE   W08
 BYTE   As4
 BYTE   W08
 BYTE   Fn4
 BYTE   W08
 BYTE   Fn5
 BYTE   W08
 BYTE   As4
 BYTE   W08
 BYTE   Fn4
 BYTE   W08
 BYTE   As3
 BYTE   W08
 BYTE   Fn4
 BYTE   W08
 BYTE   As4
 BYTE   W08
 BYTE   Fs5
 BYTE   W08
 BYTE   As4
 BYTE   W08
// 015   ----------------------------------------
 BYTE   Fn5
 BYTE   W08
 BYTE   As4
 BYTE   W08
 BYTE   Fn4
 BYTE   W08
 BYTE   Fn5
 BYTE   W08
 BYTE   As4
 BYTE   W08
 BYTE   Fn4
 BYTE   W08
 BYTE   As3
 BYTE   W08
 BYTE   Fn4
 BYTE   W08
 BYTE   As4
 BYTE   W08
 BYTE   Fs5
 BYTE   W08
 BYTE   As4
 BYTE   W08
 BYTE   Fn4
 BYTE   W08
// 016   ----------------------------------------
 BYTE   As3
 BYTE   W08
 BYTE   Fn4
 BYTE   W08
 BYTE   As4
 BYTE   W08
 BYTE   Fn4
 BYTE   W08
 BYTE   Fn5
 BYTE   W08
 BYTE   As4
 BYTE   W08
 BYTE   Fn4
 BYTE   W08
 BYTE   As3
 BYTE   W08
 BYTE   Fn4
 BYTE   W08
 BYTE   As4
 BYTE   W08
 BYTE   Fn5
 BYTE   W08
 BYTE   As4
 BYTE   W08
// 017   ----------------------------------------
 BYTE   Fn5
 BYTE   W08
 BYTE   As4
 BYTE   W08
 BYTE   Fn4
 BYTE   W08
 BYTE   Fn5
 BYTE   W08
 BYTE   As4
 BYTE   W08
 BYTE   Fn4
 BYTE   W08
 BYTE   As3
 BYTE   W08
 BYTE   Fn4
 BYTE   W08
 BYTE   As4
 BYTE   W08
 BYTE   Fn5
 BYTE   W08
 BYTE   As4
 BYTE   W08
 BYTE   Fn4
 BYTE   W08
// 018   ----------------------------------------
Label_5_010072A3:
 BYTE   VOICE   54
 BYTE   VOL   46*PokemonBWAlderThemeGratedShtick_mvl/mxv
 BYTE   PAN   c_v+33
 BYTE   N32  Cn1  v120
 BYTE   W36
 BYTE   Gn0  v104
 BYTE   W36
 BYTE   N23  Cn1  v108
 BYTE   W24
// 019   ----------------------------------------
 BYTE   N44  As0  v124
 BYTE   W48
 BYTE   Fn0  v116
 BYTE   W48
// 020   ----------------------------------------
 BYTE   W02
 BYTE   Cn1  v120
 BYTE   W44
 BYTE   W02
 BYTE   As0
 BYTE   W48
// 021   ----------------------------------------
 BYTE   Gs0
 BYTE   W48
 BYTE   Gn0
 BYTE   W48
// 022   ----------------------------------------
 BYTE   N32  As0
 BYTE   W36
 BYTE   Fn0  v104
 BYTE   W36
 BYTE   N23  As0  v108
 BYTE   W24
// 023   ----------------------------------------
 BYTE   N44  Gs0  v124
 BYTE   W48
 BYTE   Ds0  v116
 BYTE   W48
// 024   ----------------------------------------
Label_5_010072D7:
 BYTE   N44  As0  v120
 BYTE   W48
 BYTE   Fn0
 BYTE   W48
 BYTE   PEND 
 BYTE   PATT
  POIN2 Label_5_010072D7
// 025   ----------------------------------------
 BYTE   W96
// 026   ----------------------------------------
 BYTE   W96
// 027   ----------------------------------------
 BYTE   W96
// 028   ----------------------------------------
 BYTE   VOICE   6
 BYTE   VOL   46*PokemonBWAlderThemeGratedShtick_mvl/mxv
 BYTE   W48
 BYTE   N07  Dn5  v100
 BYTE   W08
 BYTE   En5
 BYTE   W08
 BYTE   Fn5
 BYTE   W08
 BYTE   Gn5
 BYTE   W08
 BYTE   An5
 BYTE   W08
 BYTE   Bn5
 BYTE   W08
// 029   ----------------------------------------
 BYTE   N32  Cn6  v112
 BYTE   W36
 BYTE   Gn5
 BYTE   W36
 BYTE   En6
 BYTE   W24
// 030   ----------------------------------------
 BYTE   W12
 BYTE   Cn6
 BYTE   W36
 BYTE   N23  Fs6
 BYTE   W24
 BYTE   Gn6
 BYTE   W24
// 031   ----------------------------------------
 BYTE   PAN   c_v+18
 BYTE   VOL   35*PokemonBWAlderThemeGratedShtick_mvl/mxv
 BYTE   N07  Cn4
 BYTE   W08
 BYTE   Gn4
 BYTE   W08
 BYTE   Cn5
 BYTE   W08
 BYTE   Gn4
 BYTE   W08
 BYTE   Gn5
 BYTE   W08
 BYTE   Cn5
 BYTE   W08
 BYTE   Gn4
 BYTE   W08
 BYTE   Cn4
 BYTE   W08
 BYTE   Gn4
 BYTE   W08
 BYTE   Cn5
 BYTE   W08
 BYTE   Gn5
 BYTE   W08
 BYTE   Cn5
 BYTE   W08
 BYTE   PATT
  POIN2 Label_5_0100713A
// 032   ----------------------------------------
 BYTE   N07  Cn4  v112
 BYTE   W08
 BYTE   Gn4
 BYTE   W08
 BYTE   Cn5
 BYTE   W08
 BYTE   Cn6
 BYTE   W08
 BYTE   Dn6
 BYTE   W08
 BYTE   Cn6
 BYTE   W08
 BYTE   Gn4
 BYTE   W08
 BYTE   Cn4
 BYTE   W08
 BYTE   Gn4
 BYTE   W08
 BYTE   Cn5
 BYTE   W08
 BYTE   Gn5
 BYTE   W08
 BYTE   Cn5
 BYTE   W08
// 033   ----------------------------------------
 BYTE   Gn5
 BYTE   W08
 BYTE   Cn5
 BYTE   W08
 BYTE   Gn4
 BYTE   W08
 BYTE   Gn5
 BYTE   W08
 BYTE   Cn5
 BYTE   W08
 BYTE   Gn4
 BYTE   W08
 BYTE   Cn4
 BYTE   W08
 BYTE   Gn4
 BYTE   W08
 BYTE   Cn5
 BYTE   W08
 BYTE   As5  v092
 BYTE   W08
 BYTE   Cn6  v096
 BYTE   W08
 BYTE   Dn6  v112
 BYTE   W08
// 034   ----------------------------------------
 BYTE   Dn4
 BYTE   W08
 BYTE   As4
 BYTE   W08
 BYTE   Fn5
 BYTE   W08
 BYTE   As4
 BYTE   W08
 BYTE   As5
 BYTE   W08
 BYTE   Fn5
 BYTE   W08
 BYTE   As4
 BYTE   W08
 BYTE   Dn4
 BYTE   W08
 BYTE   As4
 BYTE   W08
 BYTE   Fn5
 BYTE   W08
 BYTE   As5
 BYTE   W08
 BYTE   Fn5
 BYTE   W08
 BYTE   PATT
  POIN2 Label_5_010071AA
// 035   ----------------------------------------
Label_5_0100737D:
 BYTE   N07  Dn4  v112
 BYTE   W08
 BYTE   As4
 BYTE   W08
 BYTE   Fn5
 BYTE   W08
 BYTE   As5
 BYTE   W08
 BYTE   Cn6
 BYTE   W08
 BYTE   As5
 BYTE   W08
 BYTE   As4
 BYTE   W08
 BYTE   Dn4
 BYTE   W08
 BYTE   As4
 BYTE   W08
 BYTE   Fn5
 BYTE   W08
 BYTE   As5
 BYTE   W08
 BYTE   Fn5
 BYTE   W08
 BYTE   PEND 
// 036   ----------------------------------------
 BYTE   As5
 BYTE   W08
 BYTE   Fn5
 BYTE   W08
 BYTE   As4
 BYTE   W08
 BYTE   As5
 BYTE   W08
 BYTE   Fn5
 BYTE   W08
 BYTE   As4
 BYTE   W08
 BYTE   Dn4
 BYTE   W08
 BYTE   As4
 BYTE   W08
 BYTE   Fn5
 BYTE   W08
 BYTE   As5
 BYTE   W08
 BYTE   Cn6
 BYTE   W08
 BYTE   Dn6
 BYTE   W08
// 037   ----------------------------------------
 BYTE   Gn4
 BYTE   W08
 BYTE   Cn5
 BYTE   W08
 BYTE   Gn5
 BYTE   W08
 BYTE   Cn5
 BYTE   W08
 BYTE   Cn6
 BYTE   W08
 BYTE   Gn5
 BYTE   W08
 BYTE   Cn5
 BYTE   W08
 BYTE   Gn4
 BYTE   W08
 BYTE   Cn5
 BYTE   W08
 BYTE   Gn5
 BYTE   W08
 BYTE   Cn6
 BYTE   W08
 BYTE   Gn5
 BYTE   W08
// 038   ----------------------------------------
 BYTE   Cn6
 BYTE   W08
 BYTE   Gn5
 BYTE   W08
 BYTE   Cn5
 BYTE   W08
 BYTE   Cn6
 BYTE   W08
 BYTE   Gn5
 BYTE   W08
 BYTE   Cn5
 BYTE   W08
 BYTE   Gn4
 BYTE   W08
 BYTE   Cn5
 BYTE   W08
 BYTE   Gn5
 BYTE   W08
 BYTE   Cn6
 BYTE   W08
 BYTE   Gn5
 BYTE   W08
 BYTE   Cn5
 BYTE   W08
// 039   ----------------------------------------
 BYTE   Gn4
 BYTE   W08
 BYTE   Cn5
 BYTE   W08
 BYTE   Gn5
 BYTE   W08
 BYTE   Cn6
 BYTE   W08
 BYTE   Dn6
 BYTE   W08
 BYTE   Cn6
 BYTE   W08
 BYTE   Cn5
 BYTE   W08
 BYTE   Gn4
 BYTE   W08
 BYTE   Cn5
 BYTE   W08
 BYTE   Gn5
 BYTE   W08
 BYTE   Cn6
 BYTE   W08
 BYTE   Gn5
 BYTE   W08
// 040   ----------------------------------------
 BYTE   Cn6
 BYTE   W08
 BYTE   Gn5
 BYTE   W08
 BYTE   Cn5
 BYTE   W08
 BYTE   Cn6
 BYTE   W08
 BYTE   Gn5
 BYTE   W08
 BYTE   Cn5
 BYTE   W08
 BYTE   Gn4
 BYTE   W08
 BYTE   Cn5
 BYTE   W08
 BYTE   Gn5
 BYTE   W08
 BYTE   Cn6
 BYTE   W08
 BYTE   Gn5
 BYTE   W08
 BYTE   Cs5
 BYTE   W08
 BYTE   PATT
  POIN2 Label_5_0100718F
 BYTE   PATT
  POIN2 Label_5_010071AA
 BYTE   PATT
  POIN2 Label_5_0100737D
// 041   ----------------------------------------
 BYTE   N07  As5  v112
 BYTE   W08
 BYTE   Fn5
 BYTE   W08
 BYTE   As4
 BYTE   W08
 BYTE   As5
 BYTE   W08
 BYTE   Cn6
 BYTE   W08
 BYTE   As5
 BYTE   W08
 BYTE   Dn4
 BYTE   W08
 BYTE   As4
 BYTE   W08
 BYTE   Fn5
 BYTE   W08
 BYTE   As5
 BYTE   W08
 BYTE   Cn6
 BYTE   W08
 BYTE   Dn6
 BYTE   W08
// 042   ----------------------------------------
 BYTE   W96
// 043   ----------------------------------------
 BYTE   W96
// 044   ----------------------------------------
 BYTE   W96
// 045   ----------------------------------------
 BYTE   W96
// 046   ----------------------------------------
 BYTE   W96
// 047   ----------------------------------------
 BYTE   W92
 BYTE   W03
 BYTE   GoTo
  POIN2 Label_5_010072A3
 BYTE   FINE

//**************** Track 7 (Midi-Chn.6) ****************//

PokemonBWAlderThemeGratedShtick_007:
// 000   ----------------------------------------
 BYTE   KEYSH   PokemonBWAlderThemeGratedShtick_key+0
 BYTE   VOICE   39
 BYTE   VOL   40*PokemonBWAlderThemeGratedShtick_mvl/mxv
 BYTE   PAN   c_v+0
 BYTE   MOD 0
 BYTE   CnM2
 BYTE   PAN   c_v-31
 BYTE   N92  Fn4  v112
 BYTE   W96
// 001   ----------------------------------------
 BYTE   N03  Dn4
 BYTE   W08
 BYTE   N07  Cs4
 BYTE   W08
 BYTE   N03  Dn4
 BYTE   W80
// 002   ----------------------------------------
 BYTE   N92
 BYTE   W96
// 003   ----------------------------------------
 BYTE   N03
 BYTE   W08
 BYTE   N07  Cs4
 BYTE   W08
 BYTE   N03  Bn2  v100
 BYTE   N03  Dn4  v112
 BYTE   W80
// 004   ----------------------------------------
 BYTE   W96
// 005   ----------------------------------------
 BYTE   W96
// 006   ----------------------------------------
 BYTE   W96
// 007   ----------------------------------------
 BYTE   W96
// 008   ----------------------------------------
 BYTE   W96
// 009   ----------------------------------------
 BYTE   W96
// 010   ----------------------------------------
 BYTE   W96
// 011   ----------------------------------------
 BYTE   W96
// 012   ----------------------------------------
 BYTE   W96
// 013   ----------------------------------------
 BYTE   W96
// 014   ----------------------------------------
 BYTE   W96
// 015   ----------------------------------------
 BYTE   W96
// 016   ----------------------------------------
 BYTE   W96
// 017   ----------------------------------------
 BYTE   W96
// 018   ----------------------------------------
 BYTE   W96
// 019   ----------------------------------------
 BYTE   W96
// 020   ----------------------------------------
Label_6_0100747F:
 BYTE   W96
// 021   ----------------------------------------
 BYTE   W72
 BYTE   VOICE   60
 BYTE   VOL   47*PokemonBWAlderThemeGratedShtick_mvl/mxv
 BYTE   PAN   c_v-24
 BYTE   N07  En2  v112
 BYTE   W08
 BYTE   Ds2
 BYTE   W08
 BYTE   Dn2
 BYTE   W08
// 022   ----------------------------------------
 BYTE   N68  Cn2
 BYTE   W72
 BYTE   N07
 BYTE   W08
 BYTE   Dn2
 BYTE   W08
 BYTE   Ds2
 BYTE   W08
// 023   ----------------------------------------
 BYTE   N92  En2  v080
 BYTE   W96
// 024   ----------------------------------------
 BYTE   W96
// 025   ----------------------------------------
 BYTE   W72
 BYTE   VOICE   39
 BYTE   N07  Dn3  v112
 BYTE   W08
 BYTE   Cs3
 BYTE   W08
 BYTE   Cn3
 BYTE   W08
// 026   ----------------------------------------
 BYTE   N68  As2
 BYTE   W72
 BYTE   N07
 BYTE   W08
 BYTE   Cn3
 BYTE   W08
 BYTE   Cs3
 BYTE   W08
// 027   ----------------------------------------
 BYTE   N92  Dn3
 BYTE   W96
// 028   ----------------------------------------
 BYTE   W96
// 029   ----------------------------------------
 BYTE   W96
// 030   ----------------------------------------
 BYTE   W96
// 031   ----------------------------------------
 BYTE   W96
// 032   ----------------------------------------
 BYTE   W96
// 033   ----------------------------------------
 BYTE   W96
// 034   ----------------------------------------
 BYTE   W96
// 035   ----------------------------------------
 BYTE   W96
// 036   ----------------------------------------
 BYTE   W96
// 037   ----------------------------------------
 BYTE   W96
// 038   ----------------------------------------
 BYTE   W96
// 039   ----------------------------------------
 BYTE   W96
// 040   ----------------------------------------
 BYTE   W96
// 041   ----------------------------------------
 BYTE   W96
// 042   ----------------------------------------
 BYTE   W96
// 043   ----------------------------------------
 BYTE   W96
// 044   ----------------------------------------
 BYTE   W96
// 045   ----------------------------------------
 BYTE   W96
// 046   ----------------------------------------
 BYTE   W96
// 047   ----------------------------------------
 BYTE   W96
// 048   ----------------------------------------
 BYTE   W96
// 049   ----------------------------------------
 BYTE   W96
// 050   ----------------------------------------
 BYTE   W96
// 051   ----------------------------------------
 BYTE   W96
// 052   ----------------------------------------
 BYTE   W96
// 053   ----------------------------------------
 BYTE   W96
// 054   ----------------------------------------
 BYTE   W96
// 055   ----------------------------------------
 BYTE   W92
 BYTE   W03
 BYTE   GoTo
  POIN2 Label_6_0100747F
 BYTE   FINE

//**************** Track 8 (Midi-Chn.7) ****************//

PokemonBWAlderThemeGratedShtick_008:
// 000   ----------------------------------------
 BYTE   KEYSH   PokemonBWAlderThemeGratedShtick_key+0
 BYTE   VOICE   47
 BYTE   VOL   51*PokemonBWAlderThemeGratedShtick_mvl/mxv
 BYTE   PAN   c_v+0
 BYTE   MOD 0
 BYTE   CnM2
 BYTE   PAN   c_v-18
 BYTE   BEND   c_v+0
 BYTE   N23  As1  v100
 BYTE   W02
 BYTE   PAN   c_v-25
 BYTE   W22
 BYTE   N23
 BYTE   W24
 BYTE   N23
 BYTE   W48
// 001   ----------------------------------------
 BYTE   N23
 BYTE   W24
 BYTE   N44
 BYTE   W72
// 002   ----------------------------------------
 BYTE   N23
 BYTE   W24
 BYTE   N23
 BYTE   W24
 BYTE   N23
 BYTE   W48
// 003   ----------------------------------------
 BYTE   N23
 BYTE   W24
 BYTE   N23
 BYTE   W72
// 004   ----------------------------------------
 BYTE   W96
// 005   ----------------------------------------
 BYTE   W96
// 006   ----------------------------------------
 BYTE   W96
// 007   ----------------------------------------
 BYTE   W96
// 008   ----------------------------------------
 BYTE   W96
// 009   ----------------------------------------
 BYTE   W96
// 010   ----------------------------------------
 BYTE   W96
// 011   ----------------------------------------
 BYTE   W96
// 012   ----------------------------------------
 BYTE   W96
// 013   ----------------------------------------
 BYTE   W96
// 014   ----------------------------------------
 BYTE   W96
// 015   ----------------------------------------
 BYTE   W96
// 016   ----------------------------------------
 BYTE   W96
// 017   ----------------------------------------
 BYTE   W96
// 018   ----------------------------------------
 BYTE   W96
// 019   ----------------------------------------
 BYTE   W72
 BYTE   PAN   c_v-15
 BYTE   BEND   c_v+1
 BYTE   W12
 BYTE   N01  Cn2
 BYTE   W04
 BYTE   N01
 BYTE   W04
 BYTE   N01
 BYTE   W04
// 020   ----------------------------------------
Label_7_0100751B:
 BYTE   N32  Cn2  v124
 BYTE   W36
 BYTE   Gn1  v100
 BYTE   W36
 BYTE   N23  Cn2
 BYTE   W24
// 021   ----------------------------------------
 BYTE   N44  As1
 BYTE   W48
 BYTE   N32  Fn1
 BYTE   W36
 BYTE   N01  Gn1
 BYTE   W04
 BYTE   N01
 BYTE   W04
 BYTE   N01
 BYTE   W04
// 022   ----------------------------------------
Label_7_01007532:
 BYTE   N44  Cn2  v124
 BYTE   W48
 BYTE   Gn1
 BYTE   W48
 BYTE   PEND 
 BYTE   PATT
  POIN2 Label_7_01007532
// 023   ----------------------------------------
 BYTE   N32  As1  v124
 BYTE   W36
 BYTE   Fn1  v100
 BYTE   W36
 BYTE   N23  As1
 BYTE   W24
// 024   ----------------------------------------
 BYTE   N44  Gs1
 BYTE   W48
 BYTE   N32  Ds1
 BYTE   W36
 BYTE   N01  Fn1
 BYTE   W04
 BYTE   N01
 BYTE   W04
 BYTE   N01
 BYTE   W04
// 025   ----------------------------------------
Label_7_01007555:
 BYTE   N44  As1  v124
 BYTE   W48
 BYTE   Fn1
 BYTE   W48
 BYTE   PEND 
 BYTE   PATT
  POIN2 Label_7_01007555
// 026   ----------------------------------------
 BYTE   W96
// 027   ----------------------------------------
 BYTE   W96
// 028   ----------------------------------------
 BYTE   W96
// 029   ----------------------------------------
 BYTE   W96
// 030   ----------------------------------------
 BYTE   W96
// 031   ----------------------------------------
 BYTE   W96
// 032   ----------------------------------------
 BYTE   W96
// 033   ----------------------------------------
 BYTE   W96
// 034   ----------------------------------------
 BYTE   W96
// 035   ----------------------------------------
 BYTE   W96
// 036   ----------------------------------------
 BYTE   W96
// 037   ----------------------------------------
 BYTE   W96
// 038   ----------------------------------------
 BYTE   W96
// 039   ----------------------------------------
 BYTE   W96
// 040   ----------------------------------------
 BYTE   W96
// 041   ----------------------------------------
 BYTE   W96
// 042   ----------------------------------------
 BYTE   W96
// 043   ----------------------------------------
 BYTE   W96
// 044   ----------------------------------------
 BYTE   W96
// 045   ----------------------------------------
 BYTE   W96
// 046   ----------------------------------------
 BYTE   W96
// 047   ----------------------------------------
 BYTE   W96
// 048   ----------------------------------------
 BYTE   W96
// 049   ----------------------------------------
 BYTE   W96
// 050   ----------------------------------------
 BYTE   W96
// 051   ----------------------------------------
 BYTE   W96
// 052   ----------------------------------------
 BYTE   W96
// 053   ----------------------------------------
 BYTE   W92
 BYTE   W03
 BYTE   GoTo
  POIN2 Label_7_0100751B
 BYTE   FINE

//**************** Track 9 (Midi-Chn.8) ****************//

PokemonBWAlderThemeGratedShtick_009:
// 000   ----------------------------------------
 BYTE   KEYSH   PokemonBWAlderThemeGratedShtick_key+0
 BYTE   VOICE   116
 BYTE   VOL   35*PokemonBWAlderThemeGratedShtick_mvl/mxv
 BYTE   PAN   c_v+0
 BYTE   MOD 0
 BYTE   CnM2
 BYTE   W96
// 001   ----------------------------------------
 BYTE   W96
// 002   ----------------------------------------
 BYTE   W96
// 003   ----------------------------------------
 BYTE   W68
 BYTE   W03
 BYTE   N07  As1  v112
 BYTE   W09
 BYTE   N01  Gs1
 BYTE   W08
 BYTE   N01
 BYTE   W07
 BYTE   N07  As1
 BYTE   W01
// 004   ----------------------------------------
Label_8_0100759F:
 BYTE   W08
 BYTE   N01  Gs1  v112
 BYTE   W08
 BYTE   N01
 BYTE   W08
 BYTE   N01
 BYTE   W08
 BYTE   N01
 BYTE   W08
 BYTE   N01
 BYTE   W08
 BYTE   N01
 BYTE   W08
 BYTE   N01
 BYTE   W08
 BYTE   N01
 BYTE   W07
 BYTE   N07  As1
 BYTE   W09
 BYTE   N01  Gs1
 BYTE   W08
 BYTE   N01
 BYTE   W07
 BYTE   N07  As1
 BYTE   W01
 BYTE   PEND 
 BYTE   PATT
  POIN2 Label_8_0100759F
 BYTE   PATT
  POIN2 Label_8_0100759F
 BYTE   PATT
  POIN2 Label_8_0100759F
 BYTE   PATT
  POIN2 Label_8_0100759F
 BYTE   PATT
  POIN2 Label_8_0100759F
 BYTE   PATT
  POIN2 Label_8_0100759F
 BYTE   PATT
  POIN2 Label_8_0100759F
 BYTE   PATT
  POIN2 Label_8_0100759F
 BYTE   PATT
  POIN2 Label_8_0100759F
 BYTE   PATT
  POIN2 Label_8_0100759F
 BYTE   PATT
  POIN2 Label_8_0100759F
 BYTE   PATT
  POIN2 Label_8_0100759F
 BYTE   PATT
  POIN2 Label_8_0100759F
 BYTE   PATT
  POIN2 Label_8_0100759F
// 005   ----------------------------------------
 BYTE   W08
 BYTE   N01  Gs1  v112
 BYTE   W08
 BYTE   N01
 BYTE   W08
 BYTE   N01
 BYTE   W08
 BYTE   N01
 BYTE   W08
 BYTE   N01
 BYTE   W08
 BYTE   N01
 BYTE   W08
 BYTE   N01
 BYTE   W08
 BYTE   N01
 BYTE   W07
 BYTE   N07  As1
 BYTE   W09
 BYTE   N01  Gs1
 BYTE   W08
 BYTE   N01
 BYTE   W08
// 006   ----------------------------------------
Label_8_0100761F:
 BYTE   N07  As1  v112
 BYTE   W08
 BYTE   N01  Gs1
 BYTE   W08
 BYTE   N01
 BYTE   W08
 BYTE   N01
 BYTE   W08
 BYTE   N01
 BYTE   W08
 BYTE   N01
 BYTE   W08
 BYTE   N01
 BYTE   W08
 BYTE   N01
 BYTE   W08
 BYTE   N01
 BYTE   W07
 BYTE   N07  As1
 BYTE   W09
 BYTE   N01  Gs1
 BYTE   W08
 BYTE   N01
 BYTE   W07
 BYTE   N07  As1
 BYTE   W01
 BYTE   PATT
  POIN2 Label_8_0100759F
 BYTE   PATT
  POIN2 Label_8_0100759F
 BYTE   PATT
  POIN2 Label_8_0100759F
 BYTE   PATT
  POIN2 Label_8_0100759F
 BYTE   PATT
  POIN2 Label_8_0100759F
 BYTE   PATT
  POIN2 Label_8_0100759F
 BYTE   PATT
  POIN2 Label_8_0100759F
 BYTE   PATT
  POIN2 Label_8_0100759F
 BYTE   PATT
  POIN2 Label_8_0100759F
 BYTE   PATT
  POIN2 Label_8_0100759F
 BYTE   PATT
  POIN2 Label_8_0100759F
 BYTE   PATT
  POIN2 Label_8_0100759F
 BYTE   PATT
  POIN2 Label_8_0100759F
 BYTE   PATT
  POIN2 Label_8_0100759F
 BYTE   PATT
  POIN2 Label_8_0100759F
 BYTE   PATT
  POIN2 Label_8_0100759F
 BYTE   PATT
  POIN2 Label_8_0100759F
 BYTE   PATT
  POIN2 Label_8_0100759F
 BYTE   PATT
  POIN2 Label_8_0100759F
 BYTE   PATT
  POIN2 Label_8_0100759F
 BYTE   PATT
  POIN2 Label_8_0100759F
 BYTE   PATT
  POIN2 Label_8_0100759F
 BYTE   PATT
  POIN2 Label_8_0100759F
 BYTE   PATT
  POIN2 Label_8_0100759F
 BYTE   PATT
  POIN2 Label_8_0100759F
 BYTE   PATT
  POIN2 Label_8_0100759F
 BYTE   PATT
  POIN2 Label_8_0100759F
 BYTE   PATT
  POIN2 Label_8_0100759F
 BYTE   PATT
  POIN2 Label_8_0100759F
 BYTE   PATT
  POIN2 Label_8_0100759F
 BYTE   PATT
  POIN2 Label_8_0100759F
 BYTE   PATT
  POIN2 Label_8_0100759F
 BYTE   PATT
  POIN2 Label_8_0100759F
 BYTE   PATT
  POIN2 Label_8_0100759F
// 007   ----------------------------------------
 BYTE   W08
 BYTE   N01  Gs1  v112
 BYTE   W08
 BYTE   N01
 BYTE   W08
 BYTE   N01
 BYTE   W08
 BYTE   N01
 BYTE   W08
 BYTE   N01
 BYTE   W08
 BYTE   N01
 BYTE   W08
 BYTE   N01
 BYTE   W08
 BYTE   N01
 BYTE   W07
 BYTE   N07  As1
 BYTE   W09
 BYTE   N01  Gs1
 BYTE   W08
 BYTE   N01
 BYTE   W07
 BYTE   GoTo
  POIN2 Label_8_0100761F
 BYTE   FINE

//**************** Track 10 (Midi-Chn.9) ****************//

PokemonBWAlderThemeGratedShtick_010:
// 000   ----------------------------------------
 BYTE   KEYSH   PokemonBWAlderThemeGratedShtick_key+0
 BYTE   VOICE   116
 BYTE   VOL   61*PokemonBWAlderThemeGratedShtick_mvl/mxv
 BYTE   PAN   c_v+0
 BYTE   MOD 0
 BYTE   CnM2
 BYTE   N11  Bn0  v124
 BYTE   N15  Fn4  v096
 BYTE   W16
 BYTE   N03  Bn0  v108
 BYTE   W08
 BYTE   N15  Ds0  v120
 BYTE   N44  Cs3  v108
 BYTE   W16
 BYTE   N03  Bn0
 BYTE   W08
 BYTE   N03
 BYTE   W16
 BYTE   N03
 BYTE   W08
 BYTE   N15  Ds0  v120
 BYTE   W16
 BYTE   N03  Bn0  v108
 BYTE   W08
// 001   ----------------------------------------
 BYTE   N15
 BYTE   W16
 BYTE   N03
 BYTE   W08
 BYTE   N15  Ds0  v120
 BYTE   N44  Cs3  v108
 BYTE   W16
 BYTE   N03  Bn0
 BYTE   W08
 BYTE   N03
 BYTE   W16
 BYTE   N03
 BYTE   W08
 BYTE   N15  Ds0  v120
 BYTE   W16
 BYTE   N03  Bn0  v108
 BYTE   W08
// 002   ----------------------------------------
 BYTE   N15
 BYTE   W16
 BYTE   N03
 BYTE   W08
 BYTE   N15  Ds0  v120
 BYTE   N44  Cs3  v104
 BYTE   W16
 BYTE   N03  Bn0  v108
 BYTE   W08
 BYTE   N03
 BYTE   W16
 BYTE   N03
 BYTE   W08
 BYTE   N15  Ds0  v120
 BYTE   W16
 BYTE   N03  Bn0  v108
 BYTE   W08
// 003   ----------------------------------------
 BYTE   Bn0  v120
 BYTE   W08
 BYTE   Bn0  v108
 BYTE   W08
 BYTE   N03
 BYTE   W08
 BYTE   N15  Ds0  v120
 BYTE   W16
 BYTE   N03  Bn0  v108
 BYTE   W08
 BYTE   N03
 BYTE   N23  Cn4  v104
 BYTE   W08
 BYTE   N03  Bn0  v108
 BYTE   W08
 BYTE   N03
 BYTE   W08
 BYTE   N15  Ds0  v120
 BYTE   N15  Bn0  v124
 BYTE   N23  Fn4  v104
 BYTE   W16
 BYTE   N03  Bn0  v108
 BYTE   W08
// 004   ----------------------------------------
Label_9_01007795:
 BYTE   N15  Bn0  v124
 BYTE   N44  Cs3  v104
 BYTE   W16
 BYTE   N03  Bn0  v108
 BYTE   W08
 BYTE   N15  En1
 BYTE   W16
 BYTE   N03  Bn0
 BYTE   W08
 BYTE   N03
 BYTE   W16
 BYTE   N03
 BYTE   W08
 BYTE   N15  En1
 BYTE   W16
 BYTE   N03  Bn0
 BYTE   W08
 BYTE   PEND 
// 005   ----------------------------------------
Label_9_010077B1:
 BYTE   N15  Bn0  v108
 BYTE   W16
 BYTE   N03
 BYTE   W08
 BYTE   N15  En1
 BYTE   W16
 BYTE   N03  Bn0
 BYTE   W08
 BYTE   N03
 BYTE   W16
 BYTE   N03
 BYTE   W08
 BYTE   N15  En1
 BYTE   W16
 BYTE   N03  Bn0
 BYTE   W08
 BYTE   PEND 
 BYTE   PATT
  POIN2 Label_9_010077B1
// 006   ----------------------------------------
 BYTE   N07  Bn0  v108
 BYTE   W08
 BYTE   N03
 BYTE   W08
 BYTE   N03
 BYTE   W08
 BYTE   N15  En1
 BYTE   W16
 BYTE   N03  Bn0
 BYTE   W08
 BYTE   N03
 BYTE   W16
 BYTE   N03
 BYTE   W08
 BYTE   N15  En1
 BYTE   W16
 BYTE   N03  Bn0
 BYTE   W08
// 007   ----------------------------------------
Label_9_010077E5:
 BYTE   N15  Bn0  v124
 BYTE   W16
 BYTE   N03  Bn0  v108
 BYTE   W08
 BYTE   N15  En1
 BYTE   W16
 BYTE   N03  Bn0
 BYTE   W08
 BYTE   N03
 BYTE   W16
 BYTE   N03
 BYTE   W08
 BYTE   N15  En1
 BYTE   W16
 BYTE   N03  Bn0
 BYTE   W08
 BYTE   PEND 
 BYTE   PATT
  POIN2 Label_9_010077B1
 BYTE   PATT
  POIN2 Label_9_010077B1
// 008   ----------------------------------------
 BYTE   N15  En1  v108
 BYTE   N22  An3  v088
 BYTE   W08
 BYTE   N07  Bn0  v108
 BYTE   W08
 BYTE   N07
 BYTE   W08
 BYTE   N15  En1
 BYTE   N22  Fn4  v084
 BYTE   W08
 BYTE   N07  Bn0  v108
 BYTE   W08
 BYTE   N07
 BYTE   W08
 BYTE   En1
 BYTE   W08
 BYTE   N01
 BYTE   W04
 BYTE   N03
 BYTE   W04
 BYTE   N06  Bn0
 BYTE   W08
 BYTE   N15  En1
 BYTE   W16
 BYTE   N15
 BYTE   W08
 BYTE   PATT
  POIN2 Label_9_01007795
 BYTE   PATT
  POIN2 Label_9_010077B1
 BYTE   PATT
  POIN2 Label_9_010077B1
 BYTE   PATT
  POIN2 Label_9_010077B1
 BYTE   PATT
  POIN2 Label_9_010077E5
 BYTE   PATT
  POIN2 Label_9_010077B1
 BYTE   PATT
  POIN2 Label_9_010077B1
// 009   ----------------------------------------
 BYTE   N15  Bn0  v108
 BYTE   W16
 BYTE   N03
 BYTE   W08
 BYTE   N15  En1
 BYTE   W16
 BYTE   N03  Bn0
 BYTE   W08
 BYTE   N03
 BYTE   N01  Fn4  v032
 BYTE   W04
 BYTE   Fn4  v028
 BYTE   W04
 BYTE   N01
 BYTE   W04
 BYTE   N01
 BYTE   W04
 BYTE   N03  Bn0  v108
 BYTE   N01  Fn4  v036
 BYTE   W04
 BYTE   N01
 BYTE   W04
 BYTE   N15  En0  v112
 BYTE   N01  Fn4  v064
 BYTE   W04
 BYTE   Fn4  v072
 BYTE   W04
 BYTE   Cs3  v084
 BYTE   W04
 BYTE   Cs3  v092
 BYTE   W04
 BYTE   N03  Bn0  v108
 BYTE   N15  En1
 BYTE   N01  Cs3  v100
 BYTE   W04
 BYTE   An3  v064
 BYTE   W04
// 010   ----------------------------------------
Label_9_0100788F:
 BYTE   N15  Bn0  v124
 BYTE   N44  An3  v120
 BYTE   W16
 BYTE   N03  Bn0  v108
 BYTE   W08
 BYTE   N15  En1
 BYTE   W16
 BYTE   N03  Bn0
 BYTE   W08
 BYTE   N03
 BYTE   W16
 BYTE   N03
 BYTE   W08
 BYTE   N15  En1
 BYTE   W16
 BYTE   N03  Bn0
 BYTE   W08
 BYTE   PATT
  POIN2 Label_9_010077B1
 BYTE   PATT
  POIN2 Label_9_010077B1
 BYTE   PATT
  POIN2 Label_9_010077B1
 BYTE   PATT
  POIN2 Label_9_010077E5
 BYTE   PATT
  POIN2 Label_9_010077B1
 BYTE   PATT
  POIN2 Label_9_010077B1
// 011   ----------------------------------------
 BYTE   N15  Bn0  v108
 BYTE   W16
 BYTE   N03
 BYTE   W08
 BYTE   N15  En1
 BYTE   W16
 BYTE   N03  Bn0
 BYTE   W08
 BYTE   N03
 BYTE   W16
 BYTE   N03
 BYTE   W08
 BYTE   N15  En1
 BYTE   W16
 BYTE   N03  Bn0
 BYTE   N07  En1
 BYTE   W08
// 012   ----------------------------------------
 BYTE   N15  Bn0
 BYTE   N44  En3  v104
 BYTE   W16
 BYTE   N03  Bn0  v108
 BYTE   W08
 BYTE   N15  En1
 BYTE   W16
 BYTE   N03  Bn0
 BYTE   W08
 BYTE   N03
 BYTE   W16
 BYTE   N03
 BYTE   W08
 BYTE   N15  En1
 BYTE   W16
 BYTE   N03  Bn0
 BYTE   W08
 BYTE   PATT
  POIN2 Label_9_010077E5
 BYTE   PATT
  POIN2 Label_9_010077B1
 BYTE   PATT
  POIN2 Label_9_010077B1
 BYTE   PATT
  POIN2 Label_9_010077B1
// 013   ----------------------------------------
 BYTE   N03  Bn0  v108
 BYTE   W16
 BYTE   N03
 BYTE   W08
 BYTE   N15  En1
 BYTE   W16
 BYTE   N03  Bn0
 BYTE   W08
 BYTE   N15  En1
 BYTE   N15  As3  v084
 BYTE   W16
 BYTE   N07  En1  v108
 BYTE   W08
 BYTE   N07
 BYTE   N15  Fn4  v092
 BYTE   W16
 BYTE   N07  En1  v108
 BYTE   W07
 BYTE   N15  Bn0
 BYTE   W01
// 014   ----------------------------------------
 BYTE   N02  Fn2  v072
 BYTE   N44  Cs3  v100
 BYTE   W15
 BYTE   N03  Bn0  v108
 BYTE   W01
 BYTE   N02  Fn2  v052
 BYTE   W08
 BYTE   N15  En1  v108
 BYTE   N11  Fn2  v076
 BYTE   W15
 BYTE   N03  Bn0  v108
 BYTE   W01
 BYTE   N02  Fn2  v052
 BYTE   W07
 BYTE   N03  Bn0  v108
 BYTE   W09
 BYTE   N11  Fn2  v076
 BYTE   W07
 BYTE   N03  Bn0  v108
 BYTE   W09
 BYTE   N15  En1
 BYTE   N02  Fn2  v072
 BYTE   W15
 BYTE   N03  Bn0  v108
 BYTE   W01
 BYTE   N02  Fn2  v052
 BYTE   W07
 BYTE   N15  Bn0  v124
 BYTE   W01
// 015   ----------------------------------------
 BYTE   N02  Fn2  v072
 BYTE   W15
 BYTE   N03  Bn0  v108
 BYTE   W01
 BYTE   N02  Fn2  v052
 BYTE   W08
 BYTE   N15  En1  v108
 BYTE   N11  Fn2  v076
 BYTE   W15
 BYTE   N03  Bn0  v108
 BYTE   W01
 BYTE   N02  Fn2  v052
 BYTE   W07
 BYTE   N03  Bn0  v108
 BYTE   W09
 BYTE   N11  Fn2  v076
 BYTE   W07
 BYTE   N03  Bn0  v108
 BYTE   W09
 BYTE   N15  En1
 BYTE   N02  Fn2  v072
 BYTE   W15
 BYTE   N03  Bn0  v108
 BYTE   W01
 BYTE   N02  Fn2  v052
 BYTE   W08
// 016   ----------------------------------------
Label_9_010079A1:
 BYTE   N15  Bn0  v108
 BYTE   N02  Fn2  v072
 BYTE   W16
 BYTE   N03  Bn0  v108
 BYTE   N02  Fn2  v052
 BYTE   W08
 BYTE   N15  En1  v108
 BYTE   N11  Fn2  v076
 BYTE   W16
 BYTE   N03  Bn0  v108
 BYTE   N02  Fn2  v052
 BYTE   W08
 BYTE   N03  Bn0  v108
 BYTE   W08
 BYTE   N11  Fn2  v076
 BYTE   W08
 BYTE   N03  Bn0  v108
 BYTE   W08
 BYTE   N15  En1
 BYTE   N02  Fn2  v072
 BYTE   W16
 BYTE   N03  Bn0  v108
 BYTE   N02  Fn2  v052
 BYTE   W08
 BYTE   PEND 
// 017   ----------------------------------------
 BYTE   N15  Bn0  v124
 BYTE   N02  Fn2  v072
 BYTE   W08
 BYTE   Fn2  v080
 BYTE   W08
 BYTE   N03  Bn0  v108
 BYTE   N02  Fn2  v052
 BYTE   W08
 BYTE   N15  En1  v108
 BYTE   N11  Fn2  v076
 BYTE   W16
 BYTE   N03  Bn0  v108
 BYTE   N02  Fn2  v052
 BYTE   W08
 BYTE   N03  Bn0  v108
 BYTE   N02  Fn2  v072
 BYTE   W08
 BYTE   Fn2  v080
 BYTE   W08
 BYTE   N03  Bn0  v108
 BYTE   N02  Fn2  v052
 BYTE   W08
 BYTE   N15  En1  v108
 BYTE   N11  Fn2  v076
 BYTE   W16
 BYTE   N03  Bn0  v108
 BYTE   N02  Fn2  v080
 BYTE   W08
 BYTE   PATT
  POIN2 Label_9_010079A1
// 018   ----------------------------------------
Label_9_01007A1A:
 BYTE   N15  Bn0  v124
 BYTE   N02  Fn2  v072
 BYTE   W16
 BYTE   N03  Bn0  v108
 BYTE   N02  Fn2  v052
 BYTE   W08
 BYTE   N15  En1  v108
 BYTE   N11  Fn2  v076
 BYTE   W16
 BYTE   N03  Bn0  v108
 BYTE   N02  Fn2  v052
 BYTE   W08
 BYTE   N03  Bn0  v108
 BYTE   W08
 BYTE   N11  Fn2  v076
 BYTE   W08
 BYTE   N03  Bn0  v108
 BYTE   W08
 BYTE   N15  En1
 BYTE   N02  Fn2  v072
 BYTE   W16
 BYTE   N03  Bn0  v108
 BYTE   N02  Fn2  v052
 BYTE   W08
 BYTE   PEND 
 BYTE   PATT
  POIN2 Label_9_010079A1
// 019   ----------------------------------------
 BYTE   N15  En1  v124
 BYTE   N02  Fn2  v072
 BYTE   N23  An3  v104
 BYTE   W08
 BYTE   N05  Bn0  v116
 BYTE   N02  Fn2  v080
 BYTE   W08
 BYTE   N05  Bn0  v108
 BYTE   N02  Fn2  v052
 BYTE   W08
 BYTE   N15  En1  v108
 BYTE   N11  Fn2  v076
 BYTE   N23  Fn4  v088
 BYTE   W08
 BYTE   N05  Bn0  v120
 BYTE   W08
 BYTE   Bn0  v108
 BYTE   N02  Fn2  v052
 BYTE   W08
 BYTE   N01  En1  v108
 BYTE   N02  Fn2  v072
 BYTE   W02
 BYTE   N03  En1  v108
 BYTE   W06
 BYTE   N15  En1  v120
 BYTE   N02  Fn2  v080
 BYTE   W08
 BYTE   N07  Bn0  v108
 BYTE   N02  Fn2  v052
 BYTE   W08
 BYTE   N15  En1  v120
 BYTE   N11  Fn2  v076
 BYTE   W16
 BYTE   N15  En1  v120
 BYTE   N02  Fn2  v080
 BYTE   W08
 BYTE   PATT
  POIN2 Label_9_010079A1
 BYTE   PATT
  POIN2 Label_9_01007A1A
 BYTE   PATT
  POIN2 Label_9_010079A1
// 020   ----------------------------------------
 BYTE   N15  Bn0  v124
 BYTE   N02  Fn2  v072
 BYTE   W08
 BYTE   Fn2  v080
 BYTE   W08
 BYTE   N03  Bn0  v108
 BYTE   N02  Fn2  v052
 BYTE   W08
 BYTE   N15  En1  v108
 BYTE   N11  Fn2  v076
 BYTE   W16
 BYTE   N03  Bn0  v108
 BYTE   N02  Fn2  v052
 BYTE   W08
 BYTE   N03  Bn0  v108
 BYTE   W08
 BYTE   N11  Fn2  v076
 BYTE   W08
 BYTE   N03  Bn0  v108
 BYTE   W08
 BYTE   N15  En1
 BYTE   N11  Fn2  v076
 BYTE   W16
 BYTE   N03  Bn0  v108
 BYTE   N02  Fn2  v080
 BYTE   W08
 BYTE   PATT
  POIN2 Label_9_010079A1
 BYTE   PATT
  POIN2 Label_9_01007A1A
 BYTE   PATT
  POIN2 Label_9_010079A1
// 021   ----------------------------------------
 BYTE   N15  Bn0  v124
 BYTE   N02  Fn2  v072
 BYTE   W08
 BYTE   Fn2  v080
 BYTE   W08
 BYTE   N03  Bn0  v108
 BYTE   N02  Fn2  v052
 BYTE   W08
 BYTE   N15  En1  v108
 BYTE   N11  Fn2  v076
 BYTE   W16
 BYTE   N03  Bn0  v108
 BYTE   N02  Fn2  v052
 BYTE   W08
 BYTE   N03  Bn0  v108
 BYTE   W08
 BYTE   N11  Fn2  v076
 BYTE   W08
 BYTE   N03  Bn0  v108
 BYTE   W08
 BYTE   N15  En1
 BYTE   N11  Fn2  v076
 BYTE   W16
 BYTE   N03  Bn0  v108
 BYTE   N07  En1
 BYTE   N02  Fn2  v080
 BYTE   W08
// 022   ----------------------------------------
 BYTE   N15  Bn0  v108
 BYTE   N44  Ds3  v104
 BYTE   W16
 BYTE   N03  Bn0  v108
 BYTE   W08
 BYTE   N15  En1
 BYTE   W16
 BYTE   N03  Bn0
 BYTE   W08
 BYTE   N03
 BYTE   W16
 BYTE   N03
 BYTE   W08
 BYTE   N15  En1
 BYTE   W16
 BYTE   N03  Bn0
 BYTE   W08
 BYTE   PATT
  POIN2 Label_9_010077E5
 BYTE   PATT
  POIN2 Label_9_010077B1
 BYTE   PATT
  POIN2 Label_9_010077E5
// 023   ----------------------------------------
 BYTE   N15  En1  v124
 BYTE   N23  Cn4  v100
 BYTE   W16
 BYTE   N03  Bn0  v108
 BYTE   W08
 BYTE   N15  En1
 BYTE   N23  Fn4  v100
 BYTE   W16
 BYTE   N03  Bn0  v108
 BYTE   W08
 BYTE   En1
 BYTE   W04
 BYTE   N03
 BYTE   W04
 BYTE   Bn0
 BYTE   W04
 BYTE   N11  En1
 BYTE   W12
 BYTE   N03  Bn0  v124
 BYTE   W14
 BYTE   N01  En1  v108
 BYTE   W02
 BYTE   N07
 BYTE   W02
 BYTE   N05  Fn4  v100
 BYTE   W06
// 024   ----------------------------------------
 BYTE   N03  Bn0  v108
 BYTE   N23  Cs3  v100
 BYTE   W16
 BYTE   N03  Bn0  v108
 BYTE   W08
 BYTE   N15  En1
 BYTE   W16
 BYTE   N03  Bn0
 BYTE   W08
 BYTE   N15  En1
 BYTE   N23  As3  v100
 BYTE   W16
 BYTE   N03  Bn0  v108
 BYTE   W08
 BYTE   N07  En1
 BYTE   N23  Fn4  v100
 BYTE   W16
 BYTE   N07  En1  v108
 BYTE   W07
 BYTE   GoTo
  POIN2 Label_9_0100788F
 BYTE   FINE

//**************** Track 11 (Midi-Chn.10) ****************//

PokemonBWAlderThemeGratedShtick_011:
// 000   ----------------------------------------
 BYTE   KEYSH   PokemonBWAlderThemeGratedShtick_key+0
 BYTE   VOICE   54
 BYTE   VOL   56*PokemonBWAlderThemeGratedShtick_mvl/mxv
 BYTE   PAN   c_v+0
 BYTE   MOD 0
 BYTE   CnM2
 BYTE   VOL   55*PokemonBWAlderThemeGratedShtick_mvl/mxv
 BYTE   PAN   c_v+16
 BYTE   N23  As0  v100
 BYTE   W24
 BYTE   N23
 BYTE   W72
// 001   ----------------------------------------
 BYTE   N23
 BYTE   W24
 BYTE   N44
 BYTE   W72
// 002   ----------------------------------------
 BYTE   N23
 BYTE   W24
 BYTE   N23
 BYTE   W72
// 003   ----------------------------------------
 BYTE   VOL   61*PokemonBWAlderThemeGratedShtick_mvl/mxv
 BYTE   N23
 BYTE   W24
 BYTE   N23
 BYTE   W72
// 004   ----------------------------------------
 BYTE   W96
// 005   ----------------------------------------
 BYTE   W96
// 006   ----------------------------------------
 BYTE   W96
// 007   ----------------------------------------
 BYTE   W96
// 008   ----------------------------------------
 BYTE   W96
// 009   ----------------------------------------
 BYTE   W96
// 010   ----------------------------------------
 BYTE   W96
// 011   ----------------------------------------
 BYTE   W96
// 012   ----------------------------------------
 BYTE   W96
// 013   ----------------------------------------
 BYTE   W96
// 014   ----------------------------------------
 BYTE   W96
// 015   ----------------------------------------
 BYTE   W96
// 016   ----------------------------------------
 BYTE   W96
// 017   ----------------------------------------
 BYTE   W96
// 018   ----------------------------------------
 BYTE   W96
// 019   ----------------------------------------
 BYTE   W96
// 020   ----------------------------------------
Label_10_01007BEE:
 BYTE   W96
// 021   ----------------------------------------
 BYTE   W96
// 022   ----------------------------------------
 BYTE   W96
// 023   ----------------------------------------
 BYTE   W96
// 024   ----------------------------------------
 BYTE   W96
// 025   ----------------------------------------
 BYTE   W96
// 026   ----------------------------------------
 BYTE   W96
// 027   ----------------------------------------
 BYTE   W96
// 028   ----------------------------------------
 BYTE   W96
// 029   ----------------------------------------
 BYTE   W96
// 030   ----------------------------------------
 BYTE   W96
// 031   ----------------------------------------
 BYTE   W96
// 032   ----------------------------------------
 BYTE   W96
// 033   ----------------------------------------
 BYTE   W96
// 034   ----------------------------------------
 BYTE   W96
// 035   ----------------------------------------
 BYTE   W96
// 036   ----------------------------------------
 BYTE   W96
// 037   ----------------------------------------
 BYTE   W96
// 038   ----------------------------------------
 BYTE   W96
// 039   ----------------------------------------
 BYTE   W96
// 040   ----------------------------------------
 BYTE   W96
// 041   ----------------------------------------
 BYTE   W96
// 042   ----------------------------------------
 BYTE   W96
// 043   ----------------------------------------
 BYTE   W96
// 044   ----------------------------------------
 BYTE   W96
// 045   ----------------------------------------
 BYTE   W96
// 046   ----------------------------------------
 BYTE   W96
// 047   ----------------------------------------
 BYTE   W96
// 048   ----------------------------------------
 BYTE   W96
// 049   ----------------------------------------
 BYTE   W96
// 050   ----------------------------------------
 BYTE   W96
// 051   ----------------------------------------
 BYTE   W96
// 052   ----------------------------------------
 BYTE   W96
// 053   ----------------------------------------
 BYTE   W96
// 054   ----------------------------------------
 BYTE   W96
// 055   ----------------------------------------
 BYTE   W92
 BYTE   W03
 BYTE   GoTo
  POIN2 Label_10_01007BEE
 BYTE   FINE

//******************************************************//
	ALIGN 4

PokemonBWAlderThemeGratedShtick:
	BYTE	11	// NumTrks
	BYTE	0	// NumBlks
	BYTE	PokemonBWAlderThemeGratedShtick_pri	// Priority
	BYTE	PokemonBWAlderThemeGratedShtick_rev	// Reverb.
    
	POIN2	PokemonBWAlderThemeGratedShtick_grp
    
	POIN2	PokemonBWAlderThemeGratedShtick_001
	POIN2	PokemonBWAlderThemeGratedShtick_002
	POIN2	PokemonBWAlderThemeGratedShtick_003
	POIN2	PokemonBWAlderThemeGratedShtick_004
	POIN2	PokemonBWAlderThemeGratedShtick_005
	POIN2	PokemonBWAlderThemeGratedShtick_006
	POIN2	PokemonBWAlderThemeGratedShtick_007
	POIN2	PokemonBWAlderThemeGratedShtick_008
	POIN2	PokemonBWAlderThemeGratedShtick_009
	POIN2	PokemonBWAlderThemeGratedShtick_010
	POIN2	PokemonBWAlderThemeGratedShtick_011

	
