//Event file generated from Sappy .s format.
	#include "MPlayDef.event"

	#define	PokemonRangerGuardianSignsRidingonaLegendaryBeastSme_grp  voicegroup000
	#define	PokemonRangerGuardianSignsRidingonaLegendaryBeastSme_pri  0
	#define	PokemonRangerGuardianSignsRidingonaLegendaryBeastSme_rev  0
	#define	PokemonRangerGuardianSignsRidingonaLegendaryBeastSme_mvl  127
	#define	PokemonRangerGuardianSignsRidingonaLegendaryBeastSme_key  0
	#define	PokemonRangerGuardianSignsRidingonaLegendaryBeastSme_tbs  1
	#define	PokemonRangerGuardianSignsRidingonaLegendaryBeastSme_exg  0
	#define	PokemonRangerGuardianSignsRidingonaLegendaryBeastSme_cmp  1

	// .rodata
	//	PokemonRangerGuardianSignsRidingonaLegendaryBeastSme
	ALIGN 4


//**************** Track 1 (Midi-Chn.0) ****************//

PokemonRangerGuardianSignsRidingonaLegendaryBeastSme_001:
//  #01 //000   ----------------------------------------
 BYTE   KEYSH   PokemonRangerGuardianSignsRidingonaLegendaryBeastSme_key+0
 BYTE   TEMPO   168*PokemonRangerGuardianSignsRidingonaLegendaryBeastSme_tbs/2
 BYTE   VOICE   123
 BYTE   VOL   47*PokemonRangerGuardianSignsRidingonaLegendaryBeastSme_mvl/mxv
 BYTE   N05  Cn1  v111
 BYTE   W05
 BYTE   N06  Cn1  v097
 BYTE   W07
 BYTE   N12  Dn1  v122
 BYTE   W24
 BYTE   N06  Cn1  v111
 BYTE   W12
 BYTE   N12  Fn1  v122
 BYTE   W11
 BYTE   N06  Cn1  v092
 BYTE   W13
 BYTE   N02  Dn1  v039
 BYTE   W03
 BYTE   Dn1
 BYTE   W03
 BYTE   Dn1  v069
 BYTE   W03
 BYTE   Dn1
 BYTE   W02
 BYTE   N06  Cn1  v100
 BYTE   W01
 BYTE   N12  Dn1  v122
 BYTE   W12
//  #01 //001   ----------------------------------------
 BYTE   An1
 BYTE   W24
Label_0100635D:
 BYTE   N05  Cn1  v110
 BYTE   W12
 BYTE   N06  Fs1  v094
 BYTE   W12
 BYTE   Fs1  v054
 BYTE   W12
 BYTE   N12  Dn1  v100
 BYTE   W11
 BYTE   N06  Cn1  v099
 BYTE   W01
 BYTE   Fs1  v060
 BYTE   W11
 BYTE   Cn1  v095
 BYTE   W01
 BYTE   Fs1  v094
 BYTE   W11
 BYTE   Fs1  v070
 BYTE   W01
//  #01 //002   ----------------------------------------
Label_0100637C:
 BYTE   W12
 BYTE   N12  Dn1  v100
 BYTE   N06  Fs1  v094
 BYTE   W12
 BYTE   Fs1  v075
 BYTE   W11
 BYTE   Fs1  v094
 BYTE   N06  Cn1  v100
 BYTE   W12
 BYTE   Fs1  v056
 BYTE   W12
 BYTE   N12  Dn1  v100
 BYTE   W01
 BYTE   N06  Fs1  v094
 BYTE   W12
 BYTE   N05  Cn1  v098
 BYTE   N06  Fs1  v063
 BYTE   W12
 BYTE   Fs1  v094
 BYTE   N05  Cn1  v101
 BYTE   W12
 BYTE   PEND 
//  #01 //003   ----------------------------------------
 BYTE   N06  Fs1  v054
 BYTE   W11
 BYTE   Fs1  v094
 BYTE   W01
 BYTE   N12  Dn1  v100
 BYTE   W11
 BYTE   N06  Fs1  v048
 BYTE   W13
 BYTE   N05  Cn1  v103
 BYTE   N06  Fs1  v089
 BYTE   W11
 BYTE   Fs1  v068
 BYTE   W13
 BYTE   N12  Dn1  v100
 BYTE   N06  Fs1  v094
 BYTE   W11
 BYTE   Fs1  v044
 BYTE   W01
 BYTE   N05  Cn1  v085
 BYTE   W11
 BYTE   N06  Fs1  v094
 BYTE   W01
 BYTE   N05  Cn1  v100
 BYTE   W12
//  #01 //004   ----------------------------------------
 BYTE   Cn1  v039
 BYTE   N06  Fs1  v047
 BYTE   W12
 BYTE   Fs1  v089
 BYTE   N12  Dn1  v100
 BYTE   W12
 BYTE   N06  Fs1  v049
 BYTE   W12
 BYTE   N05  Cn1  v098
 BYTE   N06  Fs1  v091
 BYTE   W11
 BYTE   Cn1  v038
 BYTE   W01
 BYTE   Fs1  v057
 BYTE   W11
 BYTE   Fs1  v094
 BYTE   N12  Dn1  v100
 BYTE   W06
 BYTE   N06  Cn1  v016
 BYTE   W07
 BYTE   Fs1  v049
 BYTE   W11
 BYTE   Cn1  v099
 BYTE   W01
 BYTE   Fs1  v091
 BYTE   W12
//  #01 //005   ----------------------------------------
 BYTE   Fs1  v056
 BYTE   W11
 BYTE   Fs1  v094
 BYTE   W01
 BYTE   N12  Dn1  v100
 BYTE   W11
 BYTE   N06  Fs1  v042
 BYTE   W01
 BYTE   N05  Cn1  v099
 BYTE   W12
 BYTE   Cn1  v102
 BYTE   N06  Fs1  v091
 BYTE   W12
 BYTE   Fs1  v054
 BYTE   W11
 BYTE   Fs1  v093
 BYTE   W01
 BYTE   N12  Dn1  v100
 BYTE   W11
 BYTE   N06  Cn1  v099
 BYTE   W01
 BYTE   Fs1  v060
 BYTE   W11
 BYTE   Cn1  v095
 BYTE   W01
 BYTE   Fs1  v094
 BYTE   W11
 BYTE   Fs1  v070
 BYTE   W01
//  #01 //006   ----------------------------------------
 BYTE   PATT
  POIN2 Label_0100637C
//  #01 //007   ----------------------------------------
 BYTE   N05  Cn1  v040
 BYTE   N06  Fs1  v054
 BYTE   W11
 BYTE   Fs1  v094
 BYTE   W01
 BYTE   N12  Dn1  v100
 BYTE   W11
 BYTE   N06  Fs1  v048
 BYTE   W06
 BYTE   Cn1  v031
 BYTE   W07
 BYTE   N05  Cn1  v103
 BYTE   N06  Fs1  v089
 BYTE   W11
 BYTE   Fs1  v068
 BYTE   W13
 BYTE   N12  Dn1  v100
 BYTE   N06  Fs1  v094
 BYTE   W11
 BYTE   Fs1  v044
 BYTE   W01
 BYTE   N05  Cn1  v085
 BYTE   W11
 BYTE   N06  Fs1  v094
 BYTE   W01
 BYTE   N05  Cn1  v100
 BYTE   W11
 BYTE   N06  Cn1  v095
 BYTE   W01
//  #01 //008   ----------------------------------------
 BYTE   Fs1  v047
 BYTE   W12
 BYTE   N12  Dn1  v100
 BYTE   W24
 BYTE   N05  Cn1  v098
 BYTE   W11
 BYTE   N06  Cn1  v038
 BYTE   W12
 BYTE   N12  Dn1  v100
 BYTE   W19
 BYTE   N05  Cn1  v034
 BYTE   W05
 BYTE   N06  Cn1  v099
 BYTE   W13
//  #01 //009   ----------------------------------------
 BYTE   N05  Cn1  v039
 BYTE   W06
 BYTE   N02  Dn1  v056
 BYTE   W03
 BYTE   Dn1
 BYTE   W03
 BYTE   N12  Dn1  v099
 BYTE   W12
 BYTE   N05  Cn1
 BYTE   W11
 BYTE   N06  Cn1  v100
 BYTE   W01
 BYTE   Fs1  v094
 BYTE   W12
 BYTE   Fs1  v054
 BYTE   W11
 BYTE   Fs1  v093
 BYTE   W12
 BYTE   Cn1  v099
 BYTE   W01
 BYTE   Fs1  v060
 BYTE   W12
 BYTE   Fs1  v094
 BYTE   W11
 BYTE   Cn1  v076
 BYTE   N06  Fs1  v070
 BYTE   W01
//  #01 //010   ----------------------------------------
 BYTE   W12
 BYTE   N12  Dn1  v100
 BYTE   N06  Fs1  v094
 BYTE   W12
 BYTE   Fs1  v075
 BYTE   W11
 BYTE   Fs1  v094
 BYTE   N06  Cn1  v100
 BYTE   W12
 BYTE   Fs1  v056
 BYTE   W13
 BYTE   Fs1  v094
 BYTE   W12
 BYTE   N05  Cn1  v098
 BYTE   N06  Fs1  v063
 BYTE   W12
 BYTE   Fs1  v094
 BYTE   W12
//  #01 //011   ----------------------------------------
 BYTE   N05  Cn1  v077
 BYTE   N06  Fs1  v054
 BYTE   W11
 BYTE   Fs1  v094
 BYTE   W01
 BYTE   N12  Dn1  v100
 BYTE   W11
 BYTE   N06  Cn1  v034
 BYTE   N06  Fs1  v048
 BYTE   W13
 BYTE   N05  Cn1  v103
 BYTE   N06  Fs1  v089
 BYTE   W11
 BYTE   Fs1  v068
 BYTE   W13
 BYTE   Fs1  v094
 BYTE   W11
 BYTE   Fs1  v044
 BYTE   W01
 BYTE   N05  Cn1  v085
 BYTE   W11
 BYTE   N06  Fs1  v094
 BYTE   W13
//  #01 //012   ----------------------------------------
 BYTE   N05  Cn1  v105
 BYTE   N06  Fs1  v047
 BYTE   W12
 BYTE   Fs1  v089
 BYTE   N12  Dn1  v100
 BYTE   W12
 BYTE   N05  Cn1  v098
 BYTE   N06  Fs1  v049
 BYTE   W12
 BYTE   N05  Cn1  v098
 BYTE   N06  Fs1  v091
 BYTE   W11
 BYTE   Cn1  v097
 BYTE   W03
 BYTE   Fs1  v057
 BYTE   W09
 BYTE   Fs1  v094
 BYTE   W13
 BYTE   N05  Cn1  v092
 BYTE   W12
 BYTE   N06  Fs1  v091
 BYTE   W12
//  #01 //013   ----------------------------------------
 BYTE   N05  Cn1  v100
 BYTE   W06
 BYTE   N02  Dn1  v056
 BYTE   W03
 BYTE   Dn1
 BYTE   W02
 BYTE   N06  Fs1  v094
 BYTE   W01
 BYTE   N12  Dn1  v100
 BYTE   W12
 BYTE   N05  Cn1  v099
 BYTE   W12
 BYTE   N12  Dn1  v100
 BYTE   W18
 BYTE   N02  Dn1  v041
 BYTE   W03
 BYTE   Dn1
 BYTE   W03
 BYTE   N12  Dn1  v045
 BYTE   W11
 BYTE   N06  Cn1  v099
 BYTE   W19
 BYTE   N02  Dn1  v030
 BYTE   W03
 BYTE   Dn1
 BYTE   W02
 BYTE   N12  Dn1  v092
 BYTE   W01
//  #01 //014   ----------------------------------------
 BYTE   W12
 BYTE   An1  v100
 BYTE   W12
 BYTE   N05  Cn1  v097
 BYTE   W11
 BYTE   N06  Fs1  v094
 BYTE   N06  Cn1  v100
 BYTE   W13
 BYTE   N12  Fn1
 BYTE   W18
 BYTE   N02  Dn1  v033
 BYTE   W03
 BYTE   Dn1
 BYTE   W03
 BYTE   N05  Cn1  v098
 BYTE   N02  Dn1  v050
 BYTE   W03
 BYTE   N08
 BYTE   W09
 BYTE   N06  Fs1  v094
 BYTE   N05  Cn1  v091
 BYTE   N12  Dn1  v100
 BYTE   W12
//  #01 //015   ----------------------------------------
 BYTE   W06
 BYTE   N05  Cn1  v101
 BYTE   W18
 BYTE   Cn1  v103
 BYTE   N23  Dn1  v112
 BYTE   W36
 BYTE   N12  Dn1  v100
 BYTE   W12
 BYTE   N05  Cn1  v072
 BYTE   W24
//  #01 //016   ----------------------------------------
 BYTE   W06
 BYTE   Cn1  v105
 BYTE   W06
 BYTE   N12  Dn1  v100
 BYTE   W12
 BYTE   N05  Cn1  v072
 BYTE   W23
 BYTE   N06  Cn1  v097
 BYTE   W12
 BYTE   N12  Dn1  v100
 BYTE   W13
 BYTE   N05  Cn1  v092
 BYTE   W24
//  #01 //017   ----------------------------------------
 BYTE   Cn1  v100
 BYTE   W06
 BYTE   N02  Dn1  v056
 BYTE   W03
 BYTE   Dn1
 BYTE   W02
 BYTE   N06  Dn1  v094
 BYTE   W07
 BYTE   N05  Dn1  v100
 BYTE   W06
 BYTE   N11
 BYTE   W12
 BYTE   N12
 BYTE   W11
 BYTE   N06  Cn1
 BYTE   W12
 BYTE   Cn1  v099
 BYTE   W13
 BYTE   N12  An1  v100
 BYTE   W11
 BYTE   N06  Cn1  v095
 BYTE   W12
 BYTE   Cn1  v076
 BYTE   W01
//  #01 //018   ----------------------------------------
 BYTE   W12
 BYTE   N12  Fn1  v114
 BYTE   W12
 BYTE   N05  Cn1  v097
 BYTE   W11
 BYTE   N06  Cn1  v100
 BYTE   W13
 BYTE   N12  An1
 BYTE   W11
 BYTE   Dn1  v081
 BYTE   W12
 BYTE   Dn1  v100
 BYTE   W01
 BYTE   N05  Cn1  v098
 BYTE   W24
//  #01 //019   ----------------------------------------
 BYTE   Cn1  v101
 BYTE   N12  Dn1  v100
 BYTE   W24
 BYTE   N06  Cn1  v116
 BYTE   N12  Dn1  v100
 BYTE   W36
 BYTE   Dn1  v109
 BYTE   N06  Fs1  v086
 BYTE   W12
 BYTE   Fs1  v060
 BYTE   W12
 BYTE   Fs1  v090
 BYTE   W12
//  #01 //020   ----------------------------------------
 BYTE   N05  Cn1  v073
 BYTE   N06  Fs1  v065
 BYTE   W12
 BYTE   N12  Dn1  v110
 BYTE   N06  Fs1  v086
 BYTE   W12
 BYTE   Cn1  v088
 BYTE   N06  Fs1  v061
 BYTE   W12
 BYTE   Fs1  v094
 BYTE   W12
 BYTE   Fs1  v053
 BYTE   W12
 BYTE   N12  Dn1  v109
 BYTE   N06  Fs1  v086
 BYTE   W12
 BYTE   N05  Cn1  v100
 BYTE   N06  Fs1  v060
 BYTE   W12
 BYTE   Fs1  v090
 BYTE   W12
//  #01 //021   ----------------------------------------
 BYTE   Fs1  v065
 BYTE   W06
 BYTE   N05  Cn1  v064
 BYTE   W06
 BYTE   N12  Dn1  v110
 BYTE   N06  Fs1  v086
 BYTE   W12
 BYTE   Cn1  v095
 BYTE   W12
 BYTE   N05  Cn1  v100
 BYTE   W11
 BYTE   Cn1  v068
 BYTE   W13
 BYTE   N12  Dn1  v109
 BYTE   N06  Fs1  v086
 BYTE   W12
 BYTE   N05  Cn1  v100
 BYTE   W24
//  #01 //022   ----------------------------------------
 BYTE   N06  Cn1  v072
 BYTE   W12
 BYTE   N12  Dn1  v110
 BYTE   W24
 BYTE   N06  Fs1  v094
 BYTE   W12
 BYTE   Fs1  v053
 BYTE   N05  Cn1  v082
 BYTE   W12
 BYTE   N12  Dn1  v109
 BYTE   N06  Fs1  v086
 BYTE   W12
 BYTE   N05  Cn1  v100
 BYTE   N06  Fs1  v060
 BYTE   W12
 BYTE   Fs1  v090
 BYTE   W12
//  #01 //023   ----------------------------------------
 BYTE   Cn1  v080
 BYTE   N06  Fs1  v065
 BYTE   W12
 BYTE   N12  Dn1  v110
 BYTE   N06  Fs1  v086
 BYTE   W12
 BYTE   Cn1  v095
 BYTE   W12
 BYTE   N05  Cn1  v100
 BYTE   N06  Fs1  v094
 BYTE   W11
 BYTE   N05  Cn1  v068
 BYTE   W01
 BYTE   N06  Fs1  v053
 BYTE   W12
 BYTE   N12  Dn1  v109
 BYTE   N06  Fs1  v086
 BYTE   W12
 BYTE   N05  Cn1  v100
 BYTE   N06  Fs1  v060
 BYTE   W12
 BYTE   Fs1  v090
 BYTE   W12
//  #01 //024   ----------------------------------------
 BYTE   Cn1
 BYTE   N06  Fs1  v065
 BYTE   W12
 BYTE   N12  Dn1  v110
 BYTE   N06  Fs1  v086
 BYTE   W12
 BYTE   Fs1  v061
 BYTE   W12
 BYTE   N05  Cn1  v100
 BYTE   N06  Fs1  v094
 BYTE   W12
 BYTE   Fs1  v053
 BYTE   W12
 BYTE   N12  Dn1  v109
 BYTE   N06  Fs1  v086
 BYTE   W12
 BYTE   N05  Cn1  v100
 BYTE   N06  Fs1  v060
 BYTE   W12
 BYTE   Fs1  v090
 BYTE   W12
//  #01 //025   ----------------------------------------
 BYTE   Cn1  v080
 BYTE   N06  Fs1  v065
 BYTE   W06
 BYTE   N02  Dn1  v060
 BYTE   W03
 BYTE   Dn1
 BYTE   W03
 BYTE   N05  Dn1  v086
 BYTE   N06  Fs1
 BYTE   W06
 BYTE   N12  Dn1  v110
 BYTE   W06
 BYTE   N06  Cn1  v095
 BYTE   W12
 BYTE   N12  Dn1  v100
 BYTE   W11
 BYTE   N06  Cn1
 BYTE   W12
 BYTE   Cn1  v099
 BYTE   W13
 BYTE   N12  An1  v100
 BYTE   W11
 BYTE   N06  Cn1  v095
 BYTE   W12
 BYTE   Cn1  v076
 BYTE   W01
//  #01 //026   ----------------------------------------
 BYTE   W12
 BYTE   N12  Dn1  v100
 BYTE   N12  Fn1  v114
 BYTE   W12
 BYTE   N05  Cn1  v097
 BYTE   W11
 BYTE   N06  Cn1  v100
 BYTE   W13
 BYTE   N12  An1
 BYTE   W12
 BYTE   Fn1  v114
 BYTE   W12
 BYTE   N02  Dn1  v050
 BYTE   W03
 BYTE   Dn1
 BYTE   W03
 BYTE   Dn1
 BYTE   W03
 BYTE   Dn1
 BYTE   W02
 BYTE   N12  Dn1  v094
 BYTE   W13
//  #01 //027   ----------------------------------------
 BYTE   Dn1  v111
 BYTE   W12
 BYTE   N06  Cn1
 BYTE   W12
 BYTE   Cn1  v116
 BYTE   N12  Dn1  v100
 BYTE   W36
 BYTE   Dn1  v109
 BYTE   W12
 BYTE   N06  Fs1  v060
 BYTE   W12
 BYTE   Fs1  v090
 BYTE   W12
//  #01 //028   ----------------------------------------
 BYTE   N04  Cn1  v072
 BYTE   N06  Fs1  v065
 BYTE   W12
 BYTE   N12  Dn1  v110
 BYTE   N06  Fs1  v086
 BYTE   W12
 BYTE   Cn1  v088
 BYTE   N06  Fs1  v061
 BYTE   W12
 BYTE   Fs1  v094
 BYTE   W12
 BYTE   Fs1  v053
 BYTE   W12
 BYTE   N12  Dn1  v109
 BYTE   N06  Fs1  v086
 BYTE   W12
 BYTE   N05  Cn1  v100
 BYTE   N06  Fs1  v060
 BYTE   W12
 BYTE   Fs1  v090
 BYTE   W10
 BYTE   Fs1  v065
 BYTE   W02
//  #01 //029   ----------------------------------------
 BYTE   W06
 BYTE   N05  Cn1  v072
 BYTE   W06
 BYTE   N12  Dn1  v110
 BYTE   N06  Fs1  v086
 BYTE   W12
 BYTE   Cn1  v095
 BYTE   W12
 BYTE   N05  Cn1  v100
 BYTE   N06  Fs1  v094
 BYTE   W11
 BYTE   N05  Cn1  v068
 BYTE   W01
 BYTE   N06  Fs1  v053
 BYTE   W12
 BYTE   N12  Dn1  v109
 BYTE   N06  Fs1  v086
 BYTE   W12
 BYTE   N05  Cn1  v100
 BYTE   N06  Fs1  v060
 BYTE   W12
 BYTE   Fs1  v090
 BYTE   W12
//  #01 //030   ----------------------------------------
 BYTE   Cn1
 BYTE   N06  Fs1  v065
 BYTE   W12
 BYTE   N12  Dn1  v110
 BYTE   W24
 BYTE   N05  Cn1  v100
 BYTE   N06  Fs1  v094
 BYTE   W12
 BYTE   N12  Dn1  v112
 BYTE   N06  Fs1  v053
 BYTE   W12
 BYTE   Fs1  v086
 BYTE   W12
 BYTE   N05  Cn1  v080
 BYTE   W06
 BYTE   N02  Dn1  v041
 BYTE   W03
 BYTE   Dn1
 BYTE   W03
 BYTE   N12  Dn1  v102
 BYTE   W12
//  #01 //031   ----------------------------------------
 BYTE   N05  Cn1  v100
 BYTE   W12
 BYTE   Dn1  v074
 BYTE   W06
 BYTE   Dn1  v060
 BYTE   W06
 BYTE   Dn1  v064
 BYTE   W06
 BYTE   Dn1  v069
 BYTE   W06
 BYTE   N12  Dn1  v110
 BYTE   W18
 BYTE   N02  Dn1  v041
 BYTE   W03
 BYTE   Dn1
 BYTE   W03
 BYTE   N12  Dn1  v079
 BYTE   W11
 BYTE   An1  v099
 BYTE   W19
 BYTE   N02  Dn1  v030
 BYTE   W03
 BYTE   Dn1
 BYTE   W02
 BYTE   N12  Dn1  v092
 BYTE   W01
//  #01 //032   ----------------------------------------
 BYTE   W12
 BYTE   Gn1  v100
 BYTE   W12
 BYTE   N02  Dn1  v030
 BYTE   W03
 BYTE   Dn1
 BYTE   W03
 BYTE   N05  Dn1  v040
 BYTE   W05
 BYTE   N06  Fs1  v094
 BYTE   W01
 BYTE   N12  Dn1  v110
 BYTE   W12
 BYTE   N05  Cn1  v098
 BYTE   W36
 BYTE   Cn1  v091
 BYTE   W12
//  #01 //033   ----------------------------------------
 BYTE   W12
 BYTE   Cn1  v103
 BYTE   W23
 BYTE   N06  Cn1  v110
 BYTE   W24
 BYTE   W01
 BYTE   N12  Cs1  v085
 BYTE   W12
 BYTE   N06  Fs1  v030
 BYTE   W12
 BYTE   N12  Cs1  v085
 BYTE   N06  Fs1  v091
 BYTE   W11
 BYTE   Fs1  v040
 BYTE   W01
//  #01 //034   ----------------------------------------
 BYTE   W12
 BYTE   N12  Cs1  v085
 BYTE   N06  Fs1  v091
 BYTE   W12
 BYTE   Cn1  v111
 BYTE   W12
 BYTE   N12  Cs1  v100
 BYTE   N06  Fs1  v088
 BYTE   W12
 BYTE   Fs1  v024
 BYTE   W11
 BYTE   Fs1  v090
 BYTE   W01
 BYTE   N12  Cs1  v085
 BYTE   W12
 BYTE   N06  Fs1  v030
 BYTE   W12
 BYTE   N12  Cs1  v085
 BYTE   N06  Fs1  v091
 BYTE   W12
//  #01 //035   ----------------------------------------
 BYTE   Fs1  v053
 BYTE   W12
 BYTE   N12  Cs1  v085
 BYTE   N06  Fs1  v091
 BYTE   W11
 BYTE   Fs1  v040
 BYTE   W01
 BYTE   Cn1  v111
 BYTE   W12
 BYTE   N12  Cs1  v100
 BYTE   N06  Fs1  v088
 BYTE   W12
 BYTE   Fs1  v024
 BYTE   W11
 BYTE   Fs1  v090
 BYTE   W01
 BYTE   N12  Cs1  v085
 BYTE   W12
 BYTE   N06  Fs1  v030
 BYTE   W12
 BYTE   N12  Cs1  v085
 BYTE   N06  Fs1  v091
 BYTE   W11
 BYTE   Cn1  v099
 BYTE   N06  Fs1  v040
 BYTE   W01
//  #01 //036   ----------------------------------------
 BYTE   W12
 BYTE   N12  Cs1  v085
 BYTE   N06  Fs1  v091
 BYTE   W12
 BYTE   Fs1  v045
 BYTE   W12
 BYTE   N12  Cs1  v100
 BYTE   N06  Fs1  v088
 BYTE   W12
 BYTE   Fs1  v024
 BYTE   W11
 BYTE   Fs1  v090
 BYTE   W01
 BYTE   N12  Cs1  v085
 BYTE   W12
 BYTE   N06  Cn1  v111
 BYTE   N06  Fs1  v030
 BYTE   W11
 BYTE   Fs1  v090
 BYTE   W01
 BYTE   N12  Cs1  v085
 BYTE   N05  Bn1  v075
 BYTE   W06
 BYTE   Bn1  v087
 BYTE   W06
//  #01 //037   ----------------------------------------
 BYTE   N12  Bn1  v122
 BYTE   W12
 BYTE   An1  v100
 BYTE   W12
 BYTE   N06  Cn1  v111
 BYTE   W32
 BYTE   W03
 BYTE   Cn1  v092
 BYTE   W24
 BYTE   Cn1  v100
 BYTE   W01
 BYTE   Fs1  v088
 BYTE   W12
//  #01 //038   ----------------------------------------
 BYTE   W11
 BYTE   Cn1  v098
 BYTE   W01
 BYTE   Fs1  v088
 BYTE   W12
 BYTE   Fs1  v045
 BYTE   W12
 BYTE   Cn1  v111
 BYTE   N06  Fs1  v085
 BYTE   W12
 BYTE   Fs1  v024
 BYTE   W11
 BYTE   Cn1  v092
 BYTE   N06  Fs1  v087
 BYTE   W13
 BYTE   Fs1  v030
 BYTE   W11
 BYTE   Cn1  v100
 BYTE   W01
 BYTE   Fs1  v088
 BYTE   W12
//  #01 //039   ----------------------------------------
 BYTE   N12  Cs1  v100
 BYTE   W11
 BYTE   N06  Cn1  v098
 BYTE   W01
 BYTE   Fs1  v088
 BYTE   W24
 BYTE   Cn1  v111
 BYTE   N06  Fs1  v088
 BYTE   W11
 BYTE   Fs1  v040
 BYTE   W01
 BYTE   N12  Dn1  v100
 BYTE   W12
 BYTE   An1  v104
 BYTE   W24
 BYTE   Dn1  v100
 BYTE   W12
//  #01 //040   ----------------------------------------
 BYTE   Gn1  v104
 BYTE   W11
 BYTE   N06  Cn1  v098
 BYTE   W13
 BYTE   N12  An1  v122
 BYTE   W12
 BYTE   N06  Cn1  v111
 BYTE   W12
 BYTE   N12  Fn1  v122
 BYTE   W11
 BYTE   N06  Cn1  v092
 BYTE   W13
 BYTE   N02  Dn1  v039
 BYTE   W03
 BYTE   Dn1
 BYTE   W03
 BYTE   Dn1  v069
 BYTE   W03
 BYTE   Dn1
 BYTE   W02
 BYTE   N06  Cn1  v100
 BYTE   W01
 BYTE   N12  Dn1  v122
 BYTE   W12
//  #01 //041   ----------------------------------------
 BYTE   An1
 BYTE   W11
 BYTE   N06  Cn1  v100
 BYTE   W13
 BYTE   GoTo
  POIN2 Label_0100635D
 BYTE   FINE

//**************** Track 2 (Midi-Chn.1) ****************//

PokemonRangerGuardianSignsRidingonaLegendaryBeastSme_002:
//  #02 //000   ----------------------------------------
 BYTE   KEYSH   PokemonRangerGuardianSignsRidingonaLegendaryBeastSme_key+0
 BYTE   VOICE   116
 BYTE   VOL   38*PokemonRangerGuardianSignsRidingonaLegendaryBeastSme_mvl/mxv
 BYTE   W96
//  #02 //001   ----------------------------------------
 BYTE   W24
Label_01006038:
 BYTE   W72
//  #02 //002   ----------------------------------------
 BYTE   W96
//  #02 //003   ----------------------------------------
 BYTE   W96
//  #02 //004   ----------------------------------------
 BYTE   W96
//  #02 //005   ----------------------------------------
 BYTE   W96
//  #02 //006   ----------------------------------------
 BYTE   W96
//  #02 //007   ----------------------------------------
 BYTE   W96
//  #02 //008   ----------------------------------------
 BYTE   W96
//  #02 //009   ----------------------------------------
 BYTE   W96
//  #02 //010   ----------------------------------------
 BYTE   W96
//  #02 //011   ----------------------------------------
 BYTE   W96
//  #02 //012   ----------------------------------------
 BYTE   W96
//  #02 //013   ----------------------------------------
 BYTE   W96
//  #02 //014   ----------------------------------------
 BYTE   W96
//  #02 //015   ----------------------------------------
 BYTE   W96
//  #02 //016   ----------------------------------------
 BYTE   W96
//  #02 //017   ----------------------------------------
 BYTE   W96
//  #02 //018   ----------------------------------------
 BYTE   W96
//  #02 //019   ----------------------------------------
 BYTE   W96
//  #02 //020   ----------------------------------------
 BYTE   W96
//  #02 //021   ----------------------------------------
 BYTE   W96
//  #02 //022   ----------------------------------------
 BYTE   W96
//  #02 //023   ----------------------------------------
 BYTE   W96
//  #02 //024   ----------------------------------------
 BYTE   W96
//  #02 //025   ----------------------------------------
 BYTE   W96
//  #02 //026   ----------------------------------------
 BYTE   W96
//  #02 //027   ----------------------------------------
 BYTE   W96
//  #02 //028   ----------------------------------------
 BYTE   W96
//  #02 //029   ----------------------------------------
 BYTE   W96
//  #02 //030   ----------------------------------------
 BYTE   W96
//  #02 //031   ----------------------------------------
 BYTE   W96
//  #02 //032   ----------------------------------------
 BYTE   W96
//  #02 //033   ----------------------------------------
 BYTE   W24
 BYTE   PAN   c_v-30
 BYTE   W12
 BYTE   N05  En2  v083
 BYTE   W06
 BYTE   En2
 BYTE   W06
 BYTE   En2
 BYTE   W06
 BYTE   En2
 BYTE   W06
 BYTE   N12  En2  v088
 BYTE   W12
 BYTE   Bn1  v083
 BYTE   W12
 BYTE   En2  v088
 BYTE   W12
//  #02 //034   ----------------------------------------
Label_01006070:
 BYTE   N12  Bn1  v083
 BYTE   W12
 BYTE   En2  v088
 BYTE   W12
 BYTE   Bn1  v083
 BYTE   W12
 BYTE   En2  v088
 BYTE   W12
 BYTE   Bn1  v083
 BYTE   W12
 BYTE   En2  v088
 BYTE   W12
 BYTE   Bn1  v083
 BYTE   W12
 BYTE   En2  v088
 BYTE   W12
 BYTE   PEND 
//  #02 //035   ----------------------------------------
 BYTE   PATT
  POIN2 Label_01006070
//  #02 //036   ----------------------------------------
 BYTE   PATT
  POIN2 Label_01006070
//  #02 //037   ----------------------------------------
 BYTE   N12  Bn1  v083
 BYTE   W12
 BYTE   En2  v088
 BYTE   W12
 BYTE   Bn1  v083
 BYTE   W12
 BYTE   N05  En2
 BYTE   W06
 BYTE   En2
 BYTE   W06
 BYTE   En2
 BYTE   W06
 BYTE   En2
 BYTE   W06
 BYTE   N12  En2  v088
 BYTE   W12
 BYTE   Bn1  v083
 BYTE   W12
 BYTE   En2  v088
 BYTE   W12
//  #02 //038   ----------------------------------------
 BYTE   PATT
  POIN2 Label_01006070
//  #02 //039   ----------------------------------------
 BYTE   PATT
  POIN2 Label_01006070
//  #02 //040   ----------------------------------------
 BYTE   PATT
  POIN2 Label_01006070
//  #02 //041   ----------------------------------------
 BYTE   N24  Bn1  v083
 BYTE   W24
 BYTE   PAN   c_v+0
 BYTE   GoTo
  POIN2 Label_01006038
 BYTE   FINE

//**************** Track 3 (Midi-Chn.2) ****************//

PokemonRangerGuardianSignsRidingonaLegendaryBeastSme_003:
//  #03 //000   ----------------------------------------
 BYTE   KEYSH   PokemonRangerGuardianSignsRidingonaLegendaryBeastSme_key+0
 BYTE   VOICE   34
 BYTE   VOL   47*PokemonRangerGuardianSignsRidingonaLegendaryBeastSme_mvl/mxv
 BYTE   N05  En1  v112
 BYTE   W12
 BYTE   N23  En2  v098
 BYTE   W09
 BYTE   BEND   c_v-1
 BYTE   W03
 BYTE   BEND   c_v-2
 BYTE   W01
 BYTE   BEND   c_v-3
 BYTE   W02
 BYTE   BEND   c_v-5
 BYTE   W01
 BYTE   BEND   c_v-7
 BYTE   W02
 BYTE   BEND   c_v-10
 BYTE   W01
 BYTE   BEND   c_v-13
 BYTE   W02
 BYTE   BEND   c_v-20
 BYTE   W01
 BYTE   BEND   c_v-32
 BYTE   W02
 BYTE   BEND   c_v+0
 BYTE   N11  An1  v102
 BYTE   W12
 BYTE   Gn1
 BYTE   W12
 BYTE   An1
 BYTE   W12
 BYTE   Bn1
 BYTE   W24
//  #03 //001   ----------------------------------------
 BYTE   Dn2
 BYTE   W24
Label_01006976:
 BYTE   PAN   c_v-8
 BYTE   N22  En1  v117
 BYTE   W23
 BYTE   N04  En1  v111
 BYTE   W12
 BYTE   N05
 BYTE   W12
 BYTE   En1  v096
 BYTE   W12
 BYTE   N07  En1  v106
 BYTE   W12
 BYTE   N11  Fs1  v111
 BYTE   W01
//  #03 //002   ----------------------------------------
 BYTE   W11
 BYTE   N04  Bn1  v101
 BYTE   W12
 BYTE   N22  Dn2  v109
 BYTE   W24
 BYTE   N04  Dn2  v103
 BYTE   W12
 BYTE   N05
 BYTE   W12
 BYTE   Dn2  v088
 BYTE   W12
 BYTE   N07  Dn2  v098
 BYTE   W12
 BYTE   N05  Dn2  v103
 BYTE   W01
//  #03 //003   ----------------------------------------
 BYTE   W11
 BYTE   N11  Gn1  v086
 BYTE   W12
 BYTE   N22  An1  v117
 BYTE   W24
 BYTE   N04  An1  v111
 BYTE   W12
 BYTE   N05
 BYTE   W12
 BYTE   An1  v096
 BYTE   W12
 BYTE   N07  An1  v106
 BYTE   W08
 BYTE   N04  Gs1  v064
 BYTE   W04
 BYTE   N05  An1  v111
 BYTE   W01
//  #03 //004   ----------------------------------------
 BYTE   W11
 BYTE   Bn1
 BYTE   W12
 BYTE   N22  Cn2  v117
 BYTE   W24
 BYTE   N04  Cn2  v111
 BYTE   W12
 BYTE   N05
 BYTE   W12
 BYTE   Cn2  v096
 BYTE   W12
 BYTE   N13  Cn2  v106
 BYTE   W13
//  #03 //005   ----------------------------------------
 BYTE   W01
 BYTE   N10  Bn1  v111
 BYTE   W10
 BYTE   N04  Cn2  v086
 BYTE   W12
 BYTE   N22  En1  v117
 BYTE   W24
 BYTE   N04  En1  v111
 BYTE   W12
 BYTE   N05
 BYTE   W12
 BYTE   En1  v096
 BYTE   W12
 BYTE   N07  En1  v106
 BYTE   W12
 BYTE   N11  Fs1  v111
 BYTE   W01
//  #03 //006   ----------------------------------------
 BYTE   W11
 BYTE   N04  Bn1  v101
 BYTE   W12
 BYTE   N22  Dn2  v117
 BYTE   W24
 BYTE   N04  Dn2  v111
 BYTE   W12
 BYTE   N05
 BYTE   W12
 BYTE   Dn2  v096
 BYTE   W12
 BYTE   N07  Dn2  v106
 BYTE   W08
 BYTE   N04  Cs2  v064
 BYTE   W04
 BYTE   N05  Dn2  v111
 BYTE   W01
//  #03 //007   ----------------------------------------
 BYTE   W11
 BYTE   N11  As1  v086
 BYTE   W12
 BYTE   N22  Fs2  v117
 BYTE   W24
 BYTE   N04  Fs2  v111
 BYTE   W12
 BYTE   N05
 BYTE   W12
 BYTE   Fs2  v096
 BYTE   W12
 BYTE   N08  Fs2  v106
 BYTE   W09
 BYTE   N02  As1  v063
 BYTE   W03
 BYTE   N05  Fs2  v111
 BYTE   W01
//  #03 //008   ----------------------------------------
 BYTE   W11
 BYTE   Fs2
 BYTE   W12
 BYTE   N21  Bn1  v117
 BYTE   W24
 BYTE   N04  Bn1  v111
 BYTE   W12
 BYTE   N05
 BYTE   W12
 BYTE   Bn1  v096
 BYTE   W12
 BYTE   N08  Bn1  v106
 BYTE   W12
 BYTE   N05  Bn1  v111
 BYTE   W01
//  #03 //009   ----------------------------------------
 BYTE   W11
 BYTE   Fs1
 BYTE   W13
 BYTE   N10  Dn2  v086
 BYTE   W12
 BYTE   N32  Cn2  v106  gtp3
 BYTE   W36
 BYTE   An1
 BYTE   W24
//  #03 //010   ----------------------------------------
 BYTE   W12
 BYTE   N19  Gn1
 BYTE   W24
 BYTE   N08  Fs1
 BYTE   W12
 BYTE   N23  Bn1
 BYTE   W24
 BYTE   En1
 BYTE   W24
//  #03 //011   ----------------------------------------
 BYTE   N11  Gn1
 BYTE   W12
 BYTE   N22  Dn2
 BYTE   W24
 BYTE   N32  An1  v106  gtp3
 BYTE   W36
 BYTE   N23  Bn1
 BYTE   W24
//  #03 //012   ----------------------------------------
 BYTE   Fs2
 BYTE   W24
 BYTE   N10  Ds2
 BYTE   W12
 BYTE   N13  En1  v114
 BYTE   W18
 BYTE   N07  Bn1
 BYTE   W18
 BYTE   N22  Gs1  v102
 BYTE   W24
//  #03 //013   ----------------------------------------
 BYTE   N10  En1  v107
 BYTE   W12
 BYTE   N21  Bn1  v105
 BYTE   W24
 BYTE   N32  Cn2  v097  gtp3
 BYTE   W36
 BYTE   Dn2
 BYTE   W24
//  #03 //014   ----------------------------------------
 BYTE   W12
 BYTE   N32  An1  v097  gtp2
 BYTE   W36
 BYTE   Bn1
 BYTE   W36
 BYTE   N16  Gs2
 BYTE   W12
//  #03 //015   ----------------------------------------
 BYTE   W06
 BYTE   N07  Bn1
 BYTE   W17
 BYTE   N22  Fn2  v117
 BYTE   W24
 BYTE   N04  Fn2  v111
 BYTE   W12
 BYTE   N05
 BYTE   W12
 BYTE   Fn2  v096
 BYTE   W12
 BYTE   N07  Fn2  v106
 BYTE   W12
 BYTE   N08  Fn2  v111
 BYTE   W01
//  #03 //016   ----------------------------------------
 BYTE   W11
 BYTE   N04  Cn2  v101
 BYTE   W12
 BYTE   N22  Fn1  v109
 BYTE   W24
 BYTE   N04  Fn1  v103
 BYTE   W12
 BYTE   N05
 BYTE   W12
 BYTE   Fn1  v088
 BYTE   W12
 BYTE   N07  Fn1  v098
 BYTE   W12
 BYTE   N05  Fn1  v103
 BYTE   W01
//  #03 //017   ----------------------------------------
 BYTE   W11
 BYTE   N04  Fn1  v101
 BYTE   W12
 BYTE   N09  Fs1  v086
 BYTE   W12
 BYTE   N07  En1  v117
 BYTE   W36
 BYTE   W01
 BYTE   Fs1
 BYTE   W24
//  #03 //018   ----------------------------------------
 BYTE   W11
 BYTE   Ds2
 BYTE   W36
 BYTE   N04  Ds2  v111
 BYTE   W12
 BYTE   N05  En2
 BYTE   W12
 BYTE   Fs2  v096
 BYTE   W24
 BYTE   N17  Bn1  v111
 BYTE   W01
//  #03 //019   ----------------------------------------
 BYTE   W23
 BYTE   N22  En1  v117
 BYTE   W24
 BYTE   N04  En2  v111
 BYTE   W12
 BYTE   N05  En1
 BYTE   W12
 BYTE   En2  v096
 BYTE   W12
 BYTE   N06  En1  v106
 BYTE   W12
 BYTE   N05  En2  v096
 BYTE   W01
//  #03 //020   ----------------------------------------
 BYTE   W11
 BYTE   N04  En1  v101
 BYTE   W12
 BYTE   N22  Dn2  v117
 BYTE   W24
 BYTE   N04  Dn2  v111
 BYTE   W12
 BYTE   N05
 BYTE   W12
 BYTE   Dn2  v096
 BYTE   W12
 BYTE   N06  Dn2  v106
 BYTE   W12
 BYTE   N05  En1  v096
 BYTE   W01
//  #03 //021   ----------------------------------------
 BYTE   W12
 BYTE   Bn1  v111
 BYTE   W11
 BYTE   N09  Gn1
 BYTE   W13
 BYTE   N14  An1  v117
 BYTE   W32
 BYTE   W03
 BYTE   N05  Bn1  v096
 BYTE   W24
 BYTE   W01
//  #03 //022   ----------------------------------------
 BYTE   W12
 BYTE   N24  Cn2  v117  gtp1
 BYTE   W36
 BYTE   N04  Cn2  v111
 BYTE   W12
 BYTE   N05
 BYTE   W12
 BYTE   Cn2  v096
 BYTE   W12
 BYTE   N06  Cn2  v106
 BYTE   W12
//  #03 //023   ----------------------------------------
 BYTE   N05  Cn2  v111
 BYTE   W12
 BYTE   Cn2
 BYTE   W12
 BYTE   Cn2
 BYTE   W12
 BYTE   N06  An1  v117
 BYTE   W11
 BYTE   N04  An1  v111
 BYTE   W12
 BYTE   N05
 BYTE   W12
 BYTE   N07  Bn1  v096
 BYTE   W12
 BYTE   N06  Bn1  v106
 BYTE   W12
 BYTE   N05  Bn1  v111
 BYTE   W01
//  #03 //024   ----------------------------------------
 BYTE   W12
 BYTE   Ds2  v119
 BYTE   W11
 BYTE   Ds2  v096
 BYTE   W12
 BYTE   N06  Ds2  v106
 BYTE   W12
 BYTE   N04  Bn1  v111
 BYTE   W13
 BYTE   N05
 BYTE   W11
 BYTE   Bn1  v096
 BYTE   W13
 BYTE   N11  An1  v106
 BYTE   W12
//  #03 //025   ----------------------------------------
 BYTE   Gn1  v096
 BYTE   W12
 BYTE   N07  Fs2  v111
 BYTE   W12
 BYTE   N11  Ds2
 BYTE   W12
 BYTE   N06  En2  v117
 BYTE   W11
 BYTE   N05  En2  v080
 BYTE   W12
 BYTE   En2
 BYTE   W13
 BYTE   Ds2  v117
 BYTE   W12
 BYTE   Ds2  v080
 BYTE   W12
//  #03 //026   ----------------------------------------
 BYTE   Ds2
 BYTE   W12
 BYTE   N06  Dn2  v117
 BYTE   W12
 BYTE   N04  Dn2  v095
 BYTE   W12
 BYTE   Dn2
 BYTE   W12
 BYTE   N06  Cs2  v117
 BYTE   W12
 BYTE   N05  Cs2  v095
 BYTE   W12
 BYTE   Cs2
 BYTE   W11
 BYTE   N12  Gn1  v111
 BYTE   W13
//  #03 //027   ----------------------------------------
 BYTE   N11  Ds2
 BYTE   W12
 BYTE   N07  Fs1
 BYTE   W12
 BYTE   N15  En2
 BYTE   W23
 BYTE   N04  En1
 BYTE   W12
 BYTE   N05
 BYTE   W12
 BYTE   En1  v096
 BYTE   W12
 BYTE   N06  En1  v106
 BYTE   W13
//  #03 //028   ----------------------------------------
 BYTE   N11  En1  v111
 BYTE   W11
 BYTE   N04  En1  v101
 BYTE   W12
 BYTE   N22  Dn2  v117
 BYTE   W24
 BYTE   N04  Dn2  v111
 BYTE   W12
 BYTE   N05
 BYTE   W12
 BYTE   Dn2  v096
 BYTE   W12
 BYTE   N06  Dn2  v106
 BYTE   W12
 BYTE   N05  En1  v096
 BYTE   W01
//  #03 //029   ----------------------------------------
 BYTE   W12
 BYTE   Bn1  v111
 BYTE   W11
 BYTE   N09  Gn1
 BYTE   W13
 BYTE   N08  An1  v117
 BYTE   W12
 BYTE   N04  An1  v111
 BYTE   W12
 BYTE   N05
 BYTE   W11
 BYTE   Bn1  v096
 BYTE   W13
 BYTE   Bn1  v111
 BYTE   W12
//  #03 //030   ----------------------------------------
 BYTE   Bn1  v096
 BYTE   W12
 BYTE   N07  Cn2  v117
 BYTE   W11
 BYTE   N05  Cn2  v096
 BYTE   W13
 BYTE   Cn2  v111
 BYTE   W12
 BYTE   N04
 BYTE   W12
 BYTE   N05
 BYTE   W12
 BYTE   Cn2  v096
 BYTE   W12
 BYTE   N06  Cn2  v106
 BYTE   W12
//  #03 //031   ----------------------------------------
 BYTE   N05  Cn2  v111
 BYTE   W11
 BYTE   N06
 BYTE   W13
 BYTE   N05
 BYTE   W12
 BYTE   N16  Bn1  v117
 BYTE   W32
 BYTE   W03
 BYTE   N07  Cs2  v096
 BYTE   W24
 BYTE   W01
//  #03 //032   ----------------------------------------
 BYTE   W12
 BYTE   N13  Ds2  v117
 BYTE   W36
 BYTE   N36  Bn1
 BYTE   W48
//  #03 //033   ----------------------------------------
 BYTE   W36
 BYTE   N80  En1  v121  gtp3
 BYTE   W60
//  #03 //034   ----------------------------------------
 BYTE   W24
 BYTE   N92  Fs1  v112  gtp3
 BYTE   W72
//  #03 //035   ----------------------------------------
 BYTE   W24
 BYTE   N68  An1  v115  gtp1
 BYTE   W72
//  #03 //036   ----------------------------------------
 BYTE   N05  An1  v127
 BYTE   W12
 BYTE   N11  Bn1  v102
 BYTE   W12
 BYTE   Gn1
 BYTE   W12
 BYTE   An1
 BYTE   W12
 BYTE   Cn2
 BYTE   W12
 BYTE   En2
 BYTE   W12
 BYTE   Ds2
 BYTE   W24
//  #03 //037   ----------------------------------------
 BYTE   Bn1
 BYTE   W24
 BYTE   N92  En2  v110  gtp1
 BYTE   W72
//  #03 //038   ----------------------------------------
 BYTE   W24
 BYTE   TIE  Dn2  v105
 BYTE   W72
//  #03 //039   ----------------------------------------
 BYTE   W32
 BYTE   W03
 BYTE   EOT
 BYTE   W01
 BYTE   N68  An1  v117  gtp3
 BYTE   W60
//  #03 //040   ----------------------------------------
 BYTE   W24
 BYTE   N11  Gn1  v102
 BYTE   W12
 BYTE   An1
 BYTE   W12
 BYTE   Gn1
 BYTE   W12
 BYTE   An1
 BYTE   W12
 BYTE   Bn1
 BYTE   W24
//  #03 //041   ----------------------------------------
 BYTE   Dn2
 BYTE   W24
 BYTE   GoTo
  POIN2 Label_01006976
 BYTE   FINE

//**************** Track 4 (Midi-Chn.3) ****************//

PokemonRangerGuardianSignsRidingonaLegendaryBeastSme_004:
//  #04 //000   ----------------------------------------
 BYTE   KEYSH   PokemonRangerGuardianSignsRidingonaLegendaryBeastSme_key+0
 BYTE   VOICE   57
 BYTE   VOL   55*PokemonRangerGuardianSignsRidingonaLegendaryBeastSme_mvl/mxv
 BYTE   W96
//  #04 //001   ----------------------------------------
 BYTE   W24
Label_01006C84:
 BYTE   PAN   c_v-13
 BYTE   W24
 BYTE   N06  Bn2  v127
 BYTE   W12
 BYTE   N11  En3  v109
 BYTE   W12
 BYTE   Bn2  v104
 BYTE   W12
 BYTE   N04  Fs3  v106
 BYTE   W12
//  #04 //002   ----------------------------------------
Label_01006C96:
 BYTE   N20  Gn3  v109
 BYTE   W24
 BYTE   N10  An3  v104
 BYTE   W24
 BYTE   N32  Bn3  v107  gtp2
 BYTE   W36
 BYTE   N23  Fs3  v104
 BYTE   W12
 BYTE   PEND 
//  #04 //003   ----------------------------------------
 BYTE   W12
 BYTE   N11  Bn2  v106
 BYTE   W12
 BYTE   N09  Fs3  v110
 BYTE   W24
 BYTE   N72  Gn3  v114  gtp3
 BYTE   W48
//  #04 //004   ----------------------------------------
 BYTE   W96
//  #04 //005   ----------------------------------------
 BYTE   W48
 BYTE   N06  Bn2  v127
 BYTE   W12
 BYTE   N11  En3  v109
 BYTE   W12
 BYTE   Bn2  v104
 BYTE   W12
 BYTE   N04  Fs3  v106
 BYTE   W12
//  #04 //006   ----------------------------------------
 BYTE   PATT
  POIN2 Label_01006C96
//  #04 //007   ----------------------------------------
 BYTE   W12
 BYTE   N11  Bn2  v106
 BYTE   W12
 BYTE   N72  Bn3  v114  gtp3
 BYTE   W72
//  #04 //008   ----------------------------------------
 BYTE   W96
//  #04 //009   ----------------------------------------
 BYTE   W96
//  #04 //010   ----------------------------------------
 BYTE   W96
//  #04 //011   ----------------------------------------
 BYTE   W96
//  #04 //012   ----------------------------------------
 BYTE   W96
//  #04 //013   ----------------------------------------
 BYTE   W96
//  #04 //014   ----------------------------------------
 BYTE   W96
//  #04 //015   ----------------------------------------
 BYTE   W96
//  #04 //016   ----------------------------------------
 BYTE   W96
//  #04 //017   ----------------------------------------
 BYTE   W96
//  #04 //018   ----------------------------------------
 BYTE   W96
//  #04 //019   ----------------------------------------
 BYTE   W60
 BYTE   N04  Bn2  v104
 BYTE   N04  En3  v109
 BYTE   N05  Gn3  v104
 BYTE   W36
//  #04 //020   ----------------------------------------
 BYTE   N03  Fs3  v111
 BYTE   N04  An3  v103
 BYTE   W24
 BYTE   N90  En3  v088  gtp1
 BYTE   N88  Gn3  v090  gtp1
 BYTE   N90  Bn3  v087  gtp1
 BYTE   W72
//  #04 //021   ----------------------------------------
 BYTE   W36
 BYTE   N04  En3  v104
 BYTE   N04  Gn3  v109
 BYTE   N05  Dn4  v108
 BYTE   W36
 BYTE   N04  En3  v104
 BYTE   N03  Gn3  v111
 BYTE   N04  Bn3  v107
 BYTE   W24
//  #04 //022   ----------------------------------------
 BYTE   W12
 BYTE   TIE  Cn3  v088
 BYTE   TIE  En3  v090
 BYTE   TIE  Fs3  v082
 BYTE   W84
//  #04 //023   ----------------------------------------
 BYTE   W17
 BYTE   EOT
 BYTE   En3
 BYTE   W02
 BYTE   Cn3  v066
 BYTE   W40
 BYTE   W01
 BYTE   N03  En3
 BYTE   N03  An3  v087
 BYTE   N04  Cn4  v082
 BYTE   W36
//  #04 //024   ----------------------------------------
 BYTE   Cs3  v086
 BYTE   N03  Gn3  v093
 BYTE   N04  Bn3  v085
 BYTE   W36
 BYTE   N03  Fs3  v082
 BYTE   N03  Bn3  v087
 BYTE   N04  Ds4  v082
 BYTE   W36
 BYTE   N03  Fs3  v093
 BYTE   N04  Bn3  v085
 BYTE   N04  Ds4  v086
 BYTE   W24
//  #04 //025   ----------------------------------------
 BYTE   W36
 BYTE   N07  En3  v084
 BYTE   N07  Bn2  v119
 BYTE   N13  En3
 BYTE   N07  Gn3  v099
 BYTE   W14
 BYTE   N09  Ds3  v076
 BYTE   W04
 BYTE   N04  Bn2  v104
 BYTE   N03  En3  v109
 BYTE   N04  Gn3  v101
 BYTE   W06
 BYTE   N09  En3  v084
 BYTE   W12
 BYTE   N11  Fs3  v076
 BYTE   N02  Bn2  v101
 BYTE   N02  Ds3  v113
 BYTE   N03  Gn3  v102
 BYTE   W12
 BYTE   N11  En3  v088
 BYTE   W12
//  #04 //026   ----------------------------------------
 BYTE   Fs3  v078
 BYTE   W12
 BYTE   N05  Gn3  v084
 BYTE   N04  Bn2  v103
 BYTE   N04  Dn3  v115
 BYTE   N13  Gn3  v084
 BYTE   W14
 BYTE   N09  Fs3  v076
 BYTE   W10
 BYTE   Gn3  v084
 BYTE   W12
 BYTE   N13  An3  v076
 BYTE   N04  Bn2  v111
 BYTE   N04  Cs3  v117
 BYTE   N05  Gn3  v103
 BYTE   W13
 BYTE   N10  Gn3  v088
 BYTE   W11
 BYTE   N11  An3  v078
 BYTE   W12
 BYTE   Bn3  v079
 BYTE   N07  Cn3  v119
 BYTE   N07  En3
 BYTE   N07  Fs3  v099
 BYTE   W12
//  #04 //027   ----------------------------------------
 BYTE   N11  Cs4  v082
 BYTE   W06
 BYTE   N04  Ds3  v104
 BYTE   N03  Fs3  v109
 BYTE   N04  Bn3  v101
 BYTE   W06
 BYTE   N09  Ds4  v096
 BYTE   W12
 BYTE   N12  Fs4  v115
 BYTE   W36
 BYTE   N04  Bn2  v104
 BYTE   N04  En3  v109
 BYTE   N05  Gn3  v104
 BYTE   W36
//  #04 //028   ----------------------------------------
 BYTE   N04  En3
 BYTE   N03  Fs3  v111
 BYTE   N04  An3  v103
 BYTE   W24
 BYTE   N90  En3  v088  gtp1
 BYTE   N88  Gn3  v090  gtp1
 BYTE   N90  Bn3  v087  gtp1
 BYTE   W72
//  #04 //029   ----------------------------------------
 BYTE   W32
 BYTE   W02
 BYTE   N36  Dn3  v086
 BYTE   W02
 BYTE   N04  Gn3  v109
 BYTE   N05  Dn4  v108
 BYTE   W32
 BYTE   W02
 BYTE   N11  Cn3  v088
 BYTE   W02
 BYTE   N03  Gn3  v111
 BYTE   N04  Bn3  v107
 BYTE   W24
//  #04 //030   ----------------------------------------
 BYTE   W12
 BYTE   TIE  En3  v092
 BYTE   TIE  En3  v090
 BYTE   TIE  Fs3  v082
 BYTE   W84
//  #04 //031   ----------------------------------------
 BYTE   W17
 BYTE   EOT
 BYTE   En3
 BYTE   W02
 BYTE   Fs3
 BYTE   W02
 BYTE   En3
 BYTE   W15
 BYTE   N04  Bn3  v086
 BYTE   N03  Fs3  v105
 BYTE   N32  Bn3  v100  gtp3
 BYTE   W36
 BYTE   N04  Cs4  v088
 BYTE   N03  Gn3  v100
 BYTE   N11  Cs4  v103
 BYTE   W24
//  #04 //032   ----------------------------------------
 BYTE   W12
 BYTE   N03  Ds4  v088
 BYTE   N03  Fs3  v105
 BYTE   N11  Ds4  v100
 BYTE   W36
 BYTE   N19  Bn2  v092
 BYTE   N78  Fs3  v088  gtp1
 BYTE   N76  Bn3  v090  gtp1
 BYTE   N78  Ds4  v087  gtp1
 BYTE   W36
 BYTE   N19  Ds3  v092
 BYTE   W12
//  #04 //033   ----------------------------------------
 BYTE   W12
 BYTE   Fs3
 BYTE   W24
 BYTE   N56  En3
 BYTE   N54  Gn2  v100
 BYTE   N56  Bn2  v098
 BYTE   N64  En3  v097
 BYTE   W60
//  #04 //034   ----------------------------------------
 BYTE   N04  Gn2  v114
 BYTE   N03  Bn2  v121
 BYTE   N32  En3  v113  gtp2
 BYTE   W24
 BYTE   N84  An2  v100  gtp3
 BYTE   N88  Dn3  v091  gtp1
 BYTE   Fs3  v097
 BYTE   W72
//  #04 //035   ----------------------------------------
 BYTE   W24
 BYTE   N66  Bn2  v100
 BYTE   N68  En3  v098
 BYTE   N68  An3  v097
 BYTE   W72
//  #04 //036   ----------------------------------------
 BYTE   N11  Bn2
 BYTE   N11  En3  v104
 BYTE   N11  An3  v096
 BYTE   W12
 BYTE   N04  Dn3  v109
 BYTE   N03  Fs3  v102
 BYTE   N04  Bn3  v113
 BYTE   W12
 BYTE   N64  En3  v100  gtp1
 BYTE   N66  Gn3  v091  gtp1
 BYTE   Cn4  v097
 BYTE   W72
//  #04 //037   ----------------------------------------
 BYTE   N04  Ds3  v109
 BYTE   N03  Fs3  v102
 BYTE   N04  Bn3  v113
 BYTE   W24
 BYTE   N60  Gn3  v100
 BYTE   N68  Bn3  v098
 BYTE   N68  En4  v097
 BYTE   W72
//  #04 //038   ----------------------------------------
 BYTE   N03  Bn3  v102
 BYTE   N04  En4  v113
 BYTE   W24
 BYTE   N92  Fs3  v101  gtp3
 BYTE   An3
 BYTE   N92  Dn4  v100  gtp1
 BYTE   W72
//  #04 //039   ----------------------------------------
 BYTE   W36
 BYTE   N56  En3
 BYTE   N56  An3  v099
 BYTE   N54  Cn4  v100
 BYTE   W60
//  #04 //040   ----------------------------------------
 BYTE   N03  En3  v097
 BYTE   N04  An3  v116
 BYTE   N04  Cn4  v114
 BYTE   W24
 BYTE   N66  Gn3  v101  gtp1
 BYTE   Cn4
 BYTE   N64  En4  v100  gtp1
 BYTE   W72
//  #04 //041   ----------------------------------------
 BYTE   N10  Fs2  v108
 BYTE   N10  Bn2  v113
 BYTE   N10  Ds3  v114
 BYTE   W12
 BYTE   N04  Ds2  v099
 BYTE   N03  Fs2  v083
 BYTE   N04  Bn2  v098
 BYTE   W12
 BYTE   GoTo
  POIN2 Label_01006C84
 BYTE   FINE

//**************** Track 5 (Midi-Chn.4) ****************//

PokemonRangerGuardianSignsRidingonaLegendaryBeastSme_005:
//  #05 //000   ----------------------------------------
 BYTE   KEYSH   PokemonRangerGuardianSignsRidingonaLegendaryBeastSme_key+0
 BYTE   VOICE   69
 BYTE   VOL   67*PokemonRangerGuardianSignsRidingonaLegendaryBeastSme_mvl/mxv
 BYTE   W96
//  #05 //001   ----------------------------------------
 BYTE   W24
Label_010061B8:
 BYTE   VOL   77*PokemonRangerGuardianSignsRidingonaLegendaryBeastSme_mvl/mxv
 BYTE   PAN   c_v-16
 BYTE   W72
//  #05 //002   ----------------------------------------
 BYTE   W96
//  #05 //003   ----------------------------------------
 BYTE   W96
//  #05 //004   ----------------------------------------
 BYTE   W96
//  #05 //005   ----------------------------------------
 BYTE   W96
//  #05 //006   ----------------------------------------
 BYTE   W96
//  #05 //007   ----------------------------------------
 BYTE   W96
//  #05 //008   ----------------------------------------
 BYTE   W96
//  #05 //009   ----------------------------------------
 BYTE   W36
 BYTE   N11  Cn4  v091
 BYTE   W12
 BYTE   Bn3  v079
 BYTE   W12
 BYTE   N06  An3  v092
 BYTE   W12
 BYTE   N22  Fs3  v075
 BYTE   W24
//  #05 //010   ----------------------------------------
 BYTE   N11  Bn2  v086
 BYTE   W12
 BYTE   Ds3  v079
 BYTE   W12
 BYTE   N06  En3  v092
 BYTE   W12
 BYTE   N11  Fs3  v100
 BYTE   W12
 BYTE   Gn3  v088
 BYTE   W12
 BYTE   N05  An3  v082
 BYTE   W10
 BYTE   MOD 3
 BYTE   W02
 BYTE   MOD 6
 BYTE   N36  Gn3  v092  gtp1
 BYTE   W09
 BYTE   MOD 7
 BYTE   W04
 BYTE   MOD 8
 BYTE   W05
 BYTE   MOD 9
 BYTE   W05
 BYTE   MOD 10
 BYTE   W01
//  #05 //011   ----------------------------------------
 BYTE   W03
 BYTE   MOD 11
 BYTE   W05
 BYTE   MOD 12
 BYTE   W05
 BYTE   MOD 13
 BYTE   W04
 BYTE   MOD 14
 BYTE   W05
 BYTE   MOD 16
 BYTE   W01
 BYTE   MOD 14
 BYTE   W02
 BYTE   MOD 12
 BYTE   W01
 BYTE   MOD 9
 BYTE   W02
 BYTE   MOD 7
 BYTE   W01
 BYTE   MOD 4
 BYTE   W02
 BYTE   MOD 2
 BYTE   W01
 BYTE   MOD 0
 BYTE   W04
 BYTE   N11  En3  v085
 BYTE   W12
 BYTE   N08  Fs3  v076
 BYTE   W11
 BYTE   BEND   c_v-13
 BYTE   W01
 BYTE   BEND   c_v-32
 BYTE   N10  Gn3  v094
 BYTE   W01
 BYTE   BEND   c_v-15
 BYTE   W01
 BYTE   BEND   c_v-6
 BYTE   W01
 BYTE   BEND   c_v+2
 BYTE   W04
 BYTE   BEND   c_v+1
 BYTE   W04
 BYTE   BEND   c_v+0
 BYTE   W01
 BYTE   N09  Fs3  v084
 BYTE   W24
//  #05 //012   ----------------------------------------
 BYTE   N12  Ds3  v077
 BYTE   W24
 BYTE   N23  Fs3  v084
 BYTE   W23
 BYTE   BEND   c_v-13
 BYTE   W01
 BYTE   N11  Gn3  v089
 BYTE   BEND   c_v-32
 BYTE   W01
 BYTE   BEND   c_v-22
 BYTE   W01
 BYTE   BEND   c_v-2
 BYTE   W01
 BYTE   BEND   c_v+2
 BYTE   W04
 BYTE   BEND   c_v+1
 BYTE   W04
 BYTE   BEND   c_v+0
 BYTE   W01
 BYTE   N08  Fs3  v079
 BYTE   W12
 BYTE   N40  En3  v092
 BYTE   W24
//  #05 //013   ----------------------------------------
 BYTE   W32
 BYTE   W01
 BYTE   N02  Cs4  v072
 BYTE   W03
 BYTE   N11  Dn4  v064
 BYTE   W12
 BYTE   Cs4  v056
 BYTE   W12
 BYTE   N06  Dn4  v080
 BYTE   W12
 BYTE   N22  Fs3  v075
 BYTE   W24
//  #05 //014   ----------------------------------------
 BYTE   N11  Dn3  v086
 BYTE   W12
 BYTE   Fs3  v079
 BYTE   W12
 BYTE   N10  An3  v092
 BYTE   W12
 BYTE   N11  Gn3  v100
 BYTE   W12
 BYTE   N09  Fs3  v088
 BYTE   W12
 BYTE   N05  Gn3  v070
 BYTE   W12
 BYTE   N08  An3
 BYTE   W12
 BYTE   N13  Bn3  v077
 BYTE   W12
//  #05 //015   ----------------------------------------
 BYTE   W05
 BYTE   N08  En3  v076
 BYTE   W19
 BYTE   TIE  Cn4  v059
 BYTE   W72
//  #05 //016   ----------------------------------------
 BYTE   W72
 BYTE   W02
 BYTE   EOT
 BYTE   W10
 BYTE   N15  Cn4  v067
 BYTE   W12
//  #05 //017   ----------------------------------------
 BYTE   W06
 BYTE   N05  Dn4  v070
 BYTE   W18
 BYTE   N80  En4  v063  gtp2
 BYTE   W72
//  #05 //018   ----------------------------------------
 BYTE   W12
 BYTE   N64  Ds4
 BYTE   W84
//  #05 //019   ----------------------------------------
 BYTE   W96
//  #05 //020   ----------------------------------------
 BYTE   W96
//  #05 //021   ----------------------------------------
 BYTE   W96
//  #05 //022   ----------------------------------------
 BYTE   W96
//  #05 //023   ----------------------------------------
 BYTE   W96
//  #05 //024   ----------------------------------------
 BYTE   W96
//  #05 //025   ----------------------------------------
 BYTE   W96
//  #05 //026   ----------------------------------------
 BYTE   W96
//  #05 //027   ----------------------------------------
 BYTE   W96
//  #05 //028   ----------------------------------------
 BYTE   W96
//  #05 //029   ----------------------------------------
 BYTE   W96
//  #05 //030   ----------------------------------------
 BYTE   W96
//  #05 //031   ----------------------------------------
 BYTE   W96
//  #05 //032   ----------------------------------------
 BYTE   W96
//  #05 //033   ----------------------------------------
 BYTE   W96
//  #05 //034   ----------------------------------------
 BYTE   W96
//  #05 //035   ----------------------------------------
 BYTE   W96
//  #05 //036   ----------------------------------------
 BYTE   W96
//  #05 //037   ----------------------------------------
 BYTE   W96
//  #05 //038   ----------------------------------------
 BYTE   W96
//  #05 //039   ----------------------------------------
 BYTE   W96
//  #05 //040   ----------------------------------------
 BYTE   W96
//  #05 //041   ----------------------------------------
 BYTE   W24
 BYTE   GoTo
  POIN2 Label_010061B8
 BYTE   FINE

//**************** Track 6 (Midi-Chn.5) ****************//

PokemonRangerGuardianSignsRidingonaLegendaryBeastSme_006:
//  #06 //000   ----------------------------------------
 BYTE   KEYSH   PokemonRangerGuardianSignsRidingonaLegendaryBeastSme_key+0
 BYTE   VOICE   48
 BYTE   PAN   c_v+41
 BYTE   VOL   0*PokemonRangerGuardianSignsRidingonaLegendaryBeastSme_mvl/mxv
 BYTE   W32
 BYTE   W02
 BYTE   VOL   55*PokemonRangerGuardianSignsRidingonaLegendaryBeastSme_mvl/mxv
 BYTE   W01
 BYTE   PAN   c_v-54
 BYTE   W02
 BYTE   PAN   c_v-53
 BYTE   W02
 BYTE   PAN   c_v-52
 BYTE   W02
 BYTE   PAN   c_v-51
 BYTE   W03
 BYTE   PAN   c_v-50
 BYTE   W02
 BYTE   PAN   c_v-49
 BYTE   W02
 BYTE   PAN   c_v-48
 BYTE   W02
 BYTE   PAN   c_v-47
 BYTE   W03
 BYTE   PAN   c_v-46
 BYTE   W02
 BYTE   PAN   c_v-45
 BYTE   W02
 BYTE   PAN   c_v-44
 BYTE   W02
 BYTE   PAN   c_v-43
 BYTE   W03
 BYTE   PAN   c_v-42
 BYTE   W02
 BYTE   PAN   c_v-41
 BYTE   W02
 BYTE   PAN   c_v-40
 BYTE   W02
 BYTE   PAN   c_v-39
 BYTE   W03
 BYTE   PAN   c_v-38
 BYTE   W02
 BYTE   PAN   c_v-37
 BYTE   W02
 BYTE   PAN   c_v-36
 BYTE   W02
 BYTE   PAN   c_v-35
 BYTE   W03
 BYTE   PAN   c_v-34
 BYTE   W02
 BYTE   PAN   c_v-33
 BYTE   W02
 BYTE   PAN   c_v-32
 BYTE   W02
 BYTE   PAN   c_v-31
 BYTE   W03
 BYTE   PAN   c_v-30
 BYTE   W02
 BYTE   PAN   c_v-29
 BYTE   W02
 BYTE   PAN   c_v-28
 BYTE   W02
 BYTE   PAN   c_v-27
 BYTE   W01
//  #06 //001   ----------------------------------------
 BYTE   W02
 BYTE   PAN   c_v-26
 BYTE   W02
 BYTE   PAN   c_v-25
 BYTE   W02
 BYTE   PAN   c_v-24
 BYTE   W03
 BYTE   PAN   c_v-23
 BYTE   W02
 BYTE   PAN   c_v-22
 BYTE   W02
 BYTE   PAN   c_v-20
 BYTE   W11
Label_01006F4A:
 BYTE   PAN   c_v-11
 BYTE   N92  En3  v074  gtp3
 BYTE   TIE  Bn3  v075
 BYTE   W72
//  #06 //002   ----------------------------------------
 BYTE   W24
 BYTE   N92  Dn3  v055  gtp3
 BYTE   An3  v056
 BYTE   W72
//  #06 //003   ----------------------------------------
 BYTE   W24
 BYTE   EOT
 BYTE   Bn3
 BYTE   TIE  En3  v074
 BYTE   TIE  Cn4  v075
 BYTE   W72
//  #06 //004   ----------------------------------------
 BYTE   W32
 BYTE   W03
 BYTE   EOT
 BYTE   En3
 BYTE   W01
 BYTE   N80  Gn3  v074  gtp3
 BYTE   W60
//  #06 //005   ----------------------------------------
 BYTE   W24
 BYTE   EOT
 BYTE   Cn4
 BYTE   N92  En3  v074  gtp3
 BYTE   Bn3  v075
 BYTE   W72
//  #06 //006   ----------------------------------------
 BYTE   W24
 BYTE   Dn3  v074
 BYTE   N92  An3  v075  gtp3
 BYTE   W72
//  #06 //007   ----------------------------------------
 BYTE   W24
 BYTE   TIE  Cn3  v063
 BYTE   TIE  Fs3  v074
 BYTE   W72
//  #06 //008   ----------------------------------------
 BYTE   W32
 BYTE   W03
 BYTE   EOT
 BYTE   Cn3  v066
 BYTE   W01
 BYTE   N44  An2  v081  gtp3
 BYTE   N80  Bn3  v075  gtp3
 BYTE   W48
 BYTE   N32  Fs2  v090  gtp3
 BYTE   W12
//  #06 //009   ----------------------------------------
 BYTE   W96
//  #06 //010   ----------------------------------------
 BYTE   W96
//  #06 //011   ----------------------------------------
 BYTE   W96
//  #06 //012   ----------------------------------------
 BYTE   W96
//  #06 //013   ----------------------------------------
 BYTE   W96
//  #06 //014   ----------------------------------------
 BYTE   W96
//  #06 //015   ----------------------------------------
 BYTE   W24
 BYTE   TIE  An3  v058
 BYTE   W72
//  #06 //016   ----------------------------------------
 BYTE   W12
 BYTE   Cn4  v063
 BYTE   W84
//  #06 //017   ----------------------------------------
 BYTE   W36
 BYTE   W02
 BYTE   EOT
 BYTE   An3
 BYTE   W01
 BYTE   Cn4
 BYTE   W44
 BYTE   W01
 BYTE   N23  En4  v045
 BYTE   W12
//  #06 //018   ----------------------------------------
 BYTE   W12
 BYTE   N24  Bn3
 BYTE   W24
 BYTE   N32  Gn4  v061  gtp3
 BYTE   W36
 BYTE   N05  Gn4  v080
 BYTE   W24
//  #06 //019   ----------------------------------------
 BYTE   W24
 BYTE   N36  Fs4  v110  gtp2
 BYTE   N56  En3  v074  gtp3
 BYTE   W14
 BYTE   VOL   54*PokemonRangerGuardianSignsRidingonaLegendaryBeastSme_mvl/mxv
 BYTE   W02
 BYTE   VOL   53*PokemonRangerGuardianSignsRidingonaLegendaryBeastSme_mvl/mxv
 BYTE   W02
 BYTE   VOL   52*PokemonRangerGuardianSignsRidingonaLegendaryBeastSme_mvl/mxv
 BYTE   W02
 BYTE   VOL   51*PokemonRangerGuardianSignsRidingonaLegendaryBeastSme_mvl/mxv
 BYTE   W01
 BYTE   VOL   50*PokemonRangerGuardianSignsRidingonaLegendaryBeastSme_mvl/mxv
 BYTE   W01
 BYTE   VOL   49*PokemonRangerGuardianSignsRidingonaLegendaryBeastSme_mvl/mxv
 BYTE   W02
 BYTE   VOL   47*PokemonRangerGuardianSignsRidingonaLegendaryBeastSme_mvl/mxv
 BYTE   W01
 BYTE   VOL   46*PokemonRangerGuardianSignsRidingonaLegendaryBeastSme_mvl/mxv
 BYTE   W01
 BYTE   VOL   45*PokemonRangerGuardianSignsRidingonaLegendaryBeastSme_mvl/mxv
 BYTE   W01
 BYTE   VOL   44*PokemonRangerGuardianSignsRidingonaLegendaryBeastSme_mvl/mxv
 BYTE   W01
 BYTE   VOL   42*PokemonRangerGuardianSignsRidingonaLegendaryBeastSme_mvl/mxv
 BYTE   W02
 BYTE   VOL   39*PokemonRangerGuardianSignsRidingonaLegendaryBeastSme_mvl/mxv
 BYTE   W01
 BYTE   VOL   37*PokemonRangerGuardianSignsRidingonaLegendaryBeastSme_mvl/mxv
 BYTE   W01
 BYTE   VOL   36*PokemonRangerGuardianSignsRidingonaLegendaryBeastSme_mvl/mxv
 BYTE   W01
 BYTE   VOL   31*PokemonRangerGuardianSignsRidingonaLegendaryBeastSme_mvl/mxv
 BYTE   W01
 BYTE   VOL   29*PokemonRangerGuardianSignsRidingonaLegendaryBeastSme_mvl/mxv
 BYTE   W01
 BYTE   VOL   26*PokemonRangerGuardianSignsRidingonaLegendaryBeastSme_mvl/mxv
 BYTE   W01
 BYTE   VOL   19*PokemonRangerGuardianSignsRidingonaLegendaryBeastSme_mvl/mxv
 BYTE   W01
 BYTE   VOL   14*PokemonRangerGuardianSignsRidingonaLegendaryBeastSme_mvl/mxv
 BYTE   W01
 BYTE   VOL   9*PokemonRangerGuardianSignsRidingonaLegendaryBeastSme_mvl/mxv
 BYTE   W01
 BYTE   VOL   0*PokemonRangerGuardianSignsRidingonaLegendaryBeastSme_mvl/mxv
 BYTE   W01
 BYTE   VOL   45*PokemonRangerGuardianSignsRidingonaLegendaryBeastSme_mvl/mxv
 BYTE   W01
 BYTE   VOL   52*PokemonRangerGuardianSignsRidingonaLegendaryBeastSme_mvl/mxv
 BYTE   W03
 BYTE   VOL   53*PokemonRangerGuardianSignsRidingonaLegendaryBeastSme_mvl/mxv
 BYTE   W01
 BYTE   VOL   54*PokemonRangerGuardianSignsRidingonaLegendaryBeastSme_mvl/mxv
 BYTE   W02
 BYTE   VOL   55*PokemonRangerGuardianSignsRidingonaLegendaryBeastSme_mvl/mxv
 BYTE   W01
 BYTE   N32  En4  v100  gtp3
 BYTE   W12
 BYTE   N44  Fs3  v074  gtp3
 BYTE   W02
 BYTE   VOL   54*PokemonRangerGuardianSignsRidingonaLegendaryBeastSme_mvl/mxv
 BYTE   W01
 BYTE   VOL   53*PokemonRangerGuardianSignsRidingonaLegendaryBeastSme_mvl/mxv
 BYTE   W02
 BYTE   VOL   52*PokemonRangerGuardianSignsRidingonaLegendaryBeastSme_mvl/mxv
 BYTE   W01
 BYTE   VOL   51*PokemonRangerGuardianSignsRidingonaLegendaryBeastSme_mvl/mxv
 BYTE   W02
 BYTE   VOL   50*PokemonRangerGuardianSignsRidingonaLegendaryBeastSme_mvl/mxv
 BYTE   W01
 BYTE   VOL   49*PokemonRangerGuardianSignsRidingonaLegendaryBeastSme_mvl/mxv
 BYTE   W01
 BYTE   VOL   48*PokemonRangerGuardianSignsRidingonaLegendaryBeastSme_mvl/mxv
 BYTE   W01
 BYTE   VOL   47*PokemonRangerGuardianSignsRidingonaLegendaryBeastSme_mvl/mxv
 BYTE   W01
//  #06 //020   ----------------------------------------
 BYTE   VOL   45*PokemonRangerGuardianSignsRidingonaLegendaryBeastSme_mvl/mxv
 BYTE   W01
 BYTE   VOL   44*PokemonRangerGuardianSignsRidingonaLegendaryBeastSme_mvl/mxv
 BYTE   W01
 BYTE   VOL   42*PokemonRangerGuardianSignsRidingonaLegendaryBeastSme_mvl/mxv
 BYTE   W01
 BYTE   VOL   40*PokemonRangerGuardianSignsRidingonaLegendaryBeastSme_mvl/mxv
 BYTE   W01
 BYTE   VOL   38*PokemonRangerGuardianSignsRidingonaLegendaryBeastSme_mvl/mxv
 BYTE   W01
 BYTE   VOL   36*PokemonRangerGuardianSignsRidingonaLegendaryBeastSme_mvl/mxv
 BYTE   W01
 BYTE   VOL   32*PokemonRangerGuardianSignsRidingonaLegendaryBeastSme_mvl/mxv
 BYTE   W01
 BYTE   VOL   29*PokemonRangerGuardianSignsRidingonaLegendaryBeastSme_mvl/mxv
 BYTE   W01
 BYTE   VOL   25*PokemonRangerGuardianSignsRidingonaLegendaryBeastSme_mvl/mxv
 BYTE   W01
 BYTE   VOL   16*PokemonRangerGuardianSignsRidingonaLegendaryBeastSme_mvl/mxv
 BYTE   W01
 BYTE   VOL   10*PokemonRangerGuardianSignsRidingonaLegendaryBeastSme_mvl/mxv
 BYTE   W01
 BYTE   VOL   55*PokemonRangerGuardianSignsRidingonaLegendaryBeastSme_mvl/mxv
 BYTE   W01
 BYTE   N28  Bn3  v102  gtp1
 BYTE   W14
 BYTE   VOL   54*PokemonRangerGuardianSignsRidingonaLegendaryBeastSme_mvl/mxv
 BYTE   W01
 BYTE   VOL   53*PokemonRangerGuardianSignsRidingonaLegendaryBeastSme_mvl/mxv
 BYTE   W01
 BYTE   VOL   52*PokemonRangerGuardianSignsRidingonaLegendaryBeastSme_mvl/mxv
 BYTE   W02
 BYTE   VOL   50*PokemonRangerGuardianSignsRidingonaLegendaryBeastSme_mvl/mxv
 BYTE   W01
 BYTE   VOL   49*PokemonRangerGuardianSignsRidingonaLegendaryBeastSme_mvl/mxv
 BYTE   W01
 BYTE   VOL   48*PokemonRangerGuardianSignsRidingonaLegendaryBeastSme_mvl/mxv
 BYTE   W01
 BYTE   VOL   45*PokemonRangerGuardianSignsRidingonaLegendaryBeastSme_mvl/mxv
 BYTE   W01
 BYTE   VOL   44*PokemonRangerGuardianSignsRidingonaLegendaryBeastSme_mvl/mxv
 BYTE   W01
 BYTE   VOL   42*PokemonRangerGuardianSignsRidingonaLegendaryBeastSme_mvl/mxv
 BYTE   W01
 BYTE   N44  Gn3  v074  gtp1
 BYTE   VOL   39*PokemonRangerGuardianSignsRidingonaLegendaryBeastSme_mvl/mxv
 BYTE   W01
 BYTE   VOL   36*PokemonRangerGuardianSignsRidingonaLegendaryBeastSme_mvl/mxv
 BYTE   W01
 BYTE   VOL   33*PokemonRangerGuardianSignsRidingonaLegendaryBeastSme_mvl/mxv
 BYTE   W01
 BYTE   VOL   24*PokemonRangerGuardianSignsRidingonaLegendaryBeastSme_mvl/mxv
 BYTE   W01
 BYTE   VOL   19*PokemonRangerGuardianSignsRidingonaLegendaryBeastSme_mvl/mxv
 BYTE   W01
 BYTE   VOL   11*PokemonRangerGuardianSignsRidingonaLegendaryBeastSme_mvl/mxv
 BYTE   W01
 BYTE   VOL   35*PokemonRangerGuardianSignsRidingonaLegendaryBeastSme_mvl/mxv
 BYTE   W01
 BYTE   VOL   52*PokemonRangerGuardianSignsRidingonaLegendaryBeastSme_mvl/mxv
 BYTE   W01
 BYTE   VOL   51*PokemonRangerGuardianSignsRidingonaLegendaryBeastSme_mvl/mxv
 BYTE   W02
 BYTE   VOL   49*PokemonRangerGuardianSignsRidingonaLegendaryBeastSme_mvl/mxv
 BYTE   N36  Gn3  v109  gtp1
 BYTE   W13
 BYTE   VOL   48*PokemonRangerGuardianSignsRidingonaLegendaryBeastSme_mvl/mxv
 BYTE   W02
 BYTE   VOL   47*PokemonRangerGuardianSignsRidingonaLegendaryBeastSme_mvl/mxv
 BYTE   W02
 BYTE   VOL   46*PokemonRangerGuardianSignsRidingonaLegendaryBeastSme_mvl/mxv
 BYTE   W01
 BYTE   VOL   45*PokemonRangerGuardianSignsRidingonaLegendaryBeastSme_mvl/mxv
 BYTE   W02
 BYTE   VOL   44*PokemonRangerGuardianSignsRidingonaLegendaryBeastSme_mvl/mxv
 BYTE   W01
 BYTE   VOL   43*PokemonRangerGuardianSignsRidingonaLegendaryBeastSme_mvl/mxv
 BYTE   W01
 BYTE   VOL   42*PokemonRangerGuardianSignsRidingonaLegendaryBeastSme_mvl/mxv
 BYTE   W01
 BYTE   VOL   41*PokemonRangerGuardianSignsRidingonaLegendaryBeastSme_mvl/mxv
 BYTE   W01
 BYTE   VOL   40*PokemonRangerGuardianSignsRidingonaLegendaryBeastSme_mvl/mxv
 BYTE   W01
 BYTE   VOL   39*PokemonRangerGuardianSignsRidingonaLegendaryBeastSme_mvl/mxv
 BYTE   W01
 BYTE   VOL   37*PokemonRangerGuardianSignsRidingonaLegendaryBeastSme_mvl/mxv
 BYTE   W01
 BYTE   VOL   36*PokemonRangerGuardianSignsRidingonaLegendaryBeastSme_mvl/mxv
 BYTE   W01
 BYTE   VOL   34*PokemonRangerGuardianSignsRidingonaLegendaryBeastSme_mvl/mxv
 BYTE   W01
 BYTE   VOL   31*PokemonRangerGuardianSignsRidingonaLegendaryBeastSme_mvl/mxv
 BYTE   W01
 BYTE   VOL   29*PokemonRangerGuardianSignsRidingonaLegendaryBeastSme_mvl/mxv
 BYTE   W01
 BYTE   VOL   26*PokemonRangerGuardianSignsRidingonaLegendaryBeastSme_mvl/mxv
 BYTE   W01
 BYTE   VOL   20*PokemonRangerGuardianSignsRidingonaLegendaryBeastSme_mvl/mxv
 BYTE   W01
 BYTE   VOL   16*PokemonRangerGuardianSignsRidingonaLegendaryBeastSme_mvl/mxv
 BYTE   W01
 BYTE   VOL   12*PokemonRangerGuardianSignsRidingonaLegendaryBeastSme_mvl/mxv
 BYTE   W01
 BYTE   VOL   0*PokemonRangerGuardianSignsRidingonaLegendaryBeastSme_mvl/mxv
 BYTE   W01
 BYTE   VOL   24*PokemonRangerGuardianSignsRidingonaLegendaryBeastSme_mvl/mxv
 BYTE   W01
 BYTE   VOL   55*PokemonRangerGuardianSignsRidingonaLegendaryBeastSme_mvl/mxv
 BYTE   W01
 BYTE   N20  Fs3  v098
 BYTE   N44  Bn3  v074  gtp3
 BYTE   W12
//  #06 //021   ----------------------------------------
 BYTE   W12
 BYTE   N23  En3  v105
 BYTE   W24
 BYTE   N32  Cs4  v097  gtp3
 BYTE   Dn4  v052
 BYTE   W05
 BYTE   BEND   c_v+17
 BYTE   W01
 BYTE   BEND   c_v+32
 BYTE   W28
 BYTE   W01
 BYTE   BEND   c_v+0
 BYTE   W01
 BYTE   N11  Cn4  v108
 BYTE   N32  Bn3  v052  gtp3
 BYTE   W24
//  #06 //022   ----------------------------------------
 BYTE   W12
 BYTE   TIE  Fs3  v101
 BYTE   TIE  Cn4  v060
 BYTE   W36
 BYTE   W02
 BYTE   VOL   54*PokemonRangerGuardianSignsRidingonaLegendaryBeastSme_mvl/mxv
 BYTE   W06
 BYTE   VOL   53*PokemonRangerGuardianSignsRidingonaLegendaryBeastSme_mvl/mxv
 BYTE   W04
 BYTE   VOL   52*PokemonRangerGuardianSignsRidingonaLegendaryBeastSme_mvl/mxv
 BYTE   W05
 BYTE   VOL   51*PokemonRangerGuardianSignsRidingonaLegendaryBeastSme_mvl/mxv
 BYTE   W04
 BYTE   VOL   50*PokemonRangerGuardianSignsRidingonaLegendaryBeastSme_mvl/mxv
 BYTE   W03
 BYTE   VOL   49*PokemonRangerGuardianSignsRidingonaLegendaryBeastSme_mvl/mxv
 BYTE   W05
 BYTE   VOL   48*PokemonRangerGuardianSignsRidingonaLegendaryBeastSme_mvl/mxv
 BYTE   W01
 BYTE   VOL   47*PokemonRangerGuardianSignsRidingonaLegendaryBeastSme_mvl/mxv
 BYTE   W03
 BYTE   VOL   46*PokemonRangerGuardianSignsRidingonaLegendaryBeastSme_mvl/mxv
 BYTE   W02
 BYTE   VOL   45*PokemonRangerGuardianSignsRidingonaLegendaryBeastSme_mvl/mxv
 BYTE   W03
 BYTE   VOL   44*PokemonRangerGuardianSignsRidingonaLegendaryBeastSme_mvl/mxv
 BYTE   W01
 BYTE   VOL   43*PokemonRangerGuardianSignsRidingonaLegendaryBeastSme_mvl/mxv
 BYTE   W02
 BYTE   VOL   42*PokemonRangerGuardianSignsRidingonaLegendaryBeastSme_mvl/mxv
 BYTE   W03
 BYTE   VOL   41*PokemonRangerGuardianSignsRidingonaLegendaryBeastSme_mvl/mxv
 BYTE   W01
 BYTE   VOL   40*PokemonRangerGuardianSignsRidingonaLegendaryBeastSme_mvl/mxv
 BYTE   W02
 BYTE   VOL   39*PokemonRangerGuardianSignsRidingonaLegendaryBeastSme_mvl/mxv
 BYTE   W01
//  #06 //023   ----------------------------------------
 BYTE   VOL   38*PokemonRangerGuardianSignsRidingonaLegendaryBeastSme_mvl/mxv
 BYTE   W02
 BYTE   VOL   36*PokemonRangerGuardianSignsRidingonaLegendaryBeastSme_mvl/mxv
 BYTE   W01
 BYTE   VOL   35*PokemonRangerGuardianSignsRidingonaLegendaryBeastSme_mvl/mxv
 BYTE   W02
 BYTE   VOL   33*PokemonRangerGuardianSignsRidingonaLegendaryBeastSme_mvl/mxv
 BYTE   W01
 BYTE   VOL   32*PokemonRangerGuardianSignsRidingonaLegendaryBeastSme_mvl/mxv
 BYTE   W02
 BYTE   VOL   30*PokemonRangerGuardianSignsRidingonaLegendaryBeastSme_mvl/mxv
 BYTE   W01
 BYTE   VOL   28*PokemonRangerGuardianSignsRidingonaLegendaryBeastSme_mvl/mxv
 BYTE   W02
 BYTE   VOL   26*PokemonRangerGuardianSignsRidingonaLegendaryBeastSme_mvl/mxv
 BYTE   W01
 BYTE   VOL   24*PokemonRangerGuardianSignsRidingonaLegendaryBeastSme_mvl/mxv
 BYTE   W02
 BYTE   VOL   21*PokemonRangerGuardianSignsRidingonaLegendaryBeastSme_mvl/mxv
 BYTE   W01
 BYTE   VOL   18*PokemonRangerGuardianSignsRidingonaLegendaryBeastSme_mvl/mxv
 BYTE   W02
 BYTE   VOL   15*PokemonRangerGuardianSignsRidingonaLegendaryBeastSme_mvl/mxv
 BYTE   W01
 BYTE   VOL   11*PokemonRangerGuardianSignsRidingonaLegendaryBeastSme_mvl/mxv
 BYTE   W02
 BYTE   VOL   6*PokemonRangerGuardianSignsRidingonaLegendaryBeastSme_mvl/mxv
 BYTE   W01
 BYTE   EOT
 BYTE   Fs3
 BYTE   VOL   2*PokemonRangerGuardianSignsRidingonaLegendaryBeastSme_mvl/mxv
 BYTE   W01
 BYTE   VOL   7*PokemonRangerGuardianSignsRidingonaLegendaryBeastSme_mvl/mxv
 BYTE   W01
 BYTE   VOL   14*PokemonRangerGuardianSignsRidingonaLegendaryBeastSme_mvl/mxv
 BYTE   W01
 BYTE   VOL   22*PokemonRangerGuardianSignsRidingonaLegendaryBeastSme_mvl/mxv
 BYTE   W01
 BYTE   VOL   36*PokemonRangerGuardianSignsRidingonaLegendaryBeastSme_mvl/mxv
 BYTE   W01
 BYTE   VOL   44*PokemonRangerGuardianSignsRidingonaLegendaryBeastSme_mvl/mxv
 BYTE   W01
 BYTE   VOL   55*PokemonRangerGuardianSignsRidingonaLegendaryBeastSme_mvl/mxv
 BYTE   W05
 BYTE   EOT
 BYTE   Cn4
 BYTE   W04
 BYTE   N32  Bn2  v074  gtp3
 BYTE   An3  v052
 BYTE   W36
 BYTE   Cs3  v059
 BYTE   N32  Bn3  v052  gtp3
 BYTE   W24
//  #06 //024   ----------------------------------------
 BYTE   W12
 BYTE   N72  Ds3  v063  gtp1
 BYTE   N32  Fs4  v050  gtp3
 BYTE   W36
 BYTE   Ds4
 BYTE   W36
 BYTE   N23  Bn3
 BYTE   W12
//  #06 //025   ----------------------------------------
 BYTE   W12
 BYTE   Fs3
 BYTE   W24
 BYTE   N32  Gn3  v074  gtp3
 BYTE   W36
 BYTE   An3
 BYTE   W24
//  #06 //026   ----------------------------------------
 BYTE   W12
 BYTE   TIE  Bn3  v075
 BYTE   W84
//  #06 //027   ----------------------------------------
 BYTE   W23
 BYTE   EOT
 BYTE   W01
 BYTE   N36  Fs4  v110  gtp2
 BYTE   N56  En3  v074  gtp3
 BYTE   W14
 BYTE   VOL   54*PokemonRangerGuardianSignsRidingonaLegendaryBeastSme_mvl/mxv
 BYTE   W02
 BYTE   VOL   53*PokemonRangerGuardianSignsRidingonaLegendaryBeastSme_mvl/mxv
 BYTE   W02
 BYTE   VOL   52*PokemonRangerGuardianSignsRidingonaLegendaryBeastSme_mvl/mxv
 BYTE   W02
 BYTE   VOL   51*PokemonRangerGuardianSignsRidingonaLegendaryBeastSme_mvl/mxv
 BYTE   W01
 BYTE   VOL   50*PokemonRangerGuardianSignsRidingonaLegendaryBeastSme_mvl/mxv
 BYTE   W01
 BYTE   VOL   49*PokemonRangerGuardianSignsRidingonaLegendaryBeastSme_mvl/mxv
 BYTE   W02
 BYTE   VOL   47*PokemonRangerGuardianSignsRidingonaLegendaryBeastSme_mvl/mxv
 BYTE   W01
 BYTE   VOL   46*PokemonRangerGuardianSignsRidingonaLegendaryBeastSme_mvl/mxv
 BYTE   W01
 BYTE   VOL   45*PokemonRangerGuardianSignsRidingonaLegendaryBeastSme_mvl/mxv
 BYTE   W01
 BYTE   VOL   44*PokemonRangerGuardianSignsRidingonaLegendaryBeastSme_mvl/mxv
 BYTE   W01
 BYTE   VOL   42*PokemonRangerGuardianSignsRidingonaLegendaryBeastSme_mvl/mxv
 BYTE   W02
 BYTE   VOL   39*PokemonRangerGuardianSignsRidingonaLegendaryBeastSme_mvl/mxv
 BYTE   W01
 BYTE   VOL   37*PokemonRangerGuardianSignsRidingonaLegendaryBeastSme_mvl/mxv
 BYTE   W01
 BYTE   VOL   36*PokemonRangerGuardianSignsRidingonaLegendaryBeastSme_mvl/mxv
 BYTE   W01
 BYTE   VOL   31*PokemonRangerGuardianSignsRidingonaLegendaryBeastSme_mvl/mxv
 BYTE   W01
 BYTE   VOL   29*PokemonRangerGuardianSignsRidingonaLegendaryBeastSme_mvl/mxv
 BYTE   W01
 BYTE   VOL   26*PokemonRangerGuardianSignsRidingonaLegendaryBeastSme_mvl/mxv
 BYTE   W01
 BYTE   VOL   19*PokemonRangerGuardianSignsRidingonaLegendaryBeastSme_mvl/mxv
 BYTE   W01
 BYTE   VOL   14*PokemonRangerGuardianSignsRidingonaLegendaryBeastSme_mvl/mxv
 BYTE   W01
 BYTE   VOL   9*PokemonRangerGuardianSignsRidingonaLegendaryBeastSme_mvl/mxv
 BYTE   W01
 BYTE   VOL   0*PokemonRangerGuardianSignsRidingonaLegendaryBeastSme_mvl/mxv
 BYTE   W01
 BYTE   VOL   45*PokemonRangerGuardianSignsRidingonaLegendaryBeastSme_mvl/mxv
 BYTE   W01
 BYTE   VOL   52*PokemonRangerGuardianSignsRidingonaLegendaryBeastSme_mvl/mxv
 BYTE   W03
 BYTE   VOL   53*PokemonRangerGuardianSignsRidingonaLegendaryBeastSme_mvl/mxv
 BYTE   W01
 BYTE   VOL   54*PokemonRangerGuardianSignsRidingonaLegendaryBeastSme_mvl/mxv
 BYTE   W02
 BYTE   VOL   55*PokemonRangerGuardianSignsRidingonaLegendaryBeastSme_mvl/mxv
 BYTE   W01
 BYTE   N32  En4  v100  gtp3
 BYTE   W12
 BYTE   N44  Fs3  v074  gtp3
 BYTE   W02
 BYTE   VOL   54*PokemonRangerGuardianSignsRidingonaLegendaryBeastSme_mvl/mxv
 BYTE   W01
 BYTE   VOL   53*PokemonRangerGuardianSignsRidingonaLegendaryBeastSme_mvl/mxv
 BYTE   W02
 BYTE   VOL   52*PokemonRangerGuardianSignsRidingonaLegendaryBeastSme_mvl/mxv
 BYTE   W01
 BYTE   VOL   51*PokemonRangerGuardianSignsRidingonaLegendaryBeastSme_mvl/mxv
 BYTE   W02
 BYTE   VOL   50*PokemonRangerGuardianSignsRidingonaLegendaryBeastSme_mvl/mxv
 BYTE   W01
 BYTE   VOL   49*PokemonRangerGuardianSignsRidingonaLegendaryBeastSme_mvl/mxv
 BYTE   W01
 BYTE   VOL   48*PokemonRangerGuardianSignsRidingonaLegendaryBeastSme_mvl/mxv
 BYTE   W01
 BYTE   VOL   47*PokemonRangerGuardianSignsRidingonaLegendaryBeastSme_mvl/mxv
 BYTE   W01
//  #06 //028   ----------------------------------------
 BYTE   VOL   45*PokemonRangerGuardianSignsRidingonaLegendaryBeastSme_mvl/mxv
 BYTE   W01
 BYTE   VOL   44*PokemonRangerGuardianSignsRidingonaLegendaryBeastSme_mvl/mxv
 BYTE   W01
 BYTE   VOL   42*PokemonRangerGuardianSignsRidingonaLegendaryBeastSme_mvl/mxv
 BYTE   W01
 BYTE   VOL   40*PokemonRangerGuardianSignsRidingonaLegendaryBeastSme_mvl/mxv
 BYTE   W01
 BYTE   VOL   38*PokemonRangerGuardianSignsRidingonaLegendaryBeastSme_mvl/mxv
 BYTE   W01
 BYTE   VOL   36*PokemonRangerGuardianSignsRidingonaLegendaryBeastSme_mvl/mxv
 BYTE   W01
 BYTE   VOL   32*PokemonRangerGuardianSignsRidingonaLegendaryBeastSme_mvl/mxv
 BYTE   W01
 BYTE   VOL   29*PokemonRangerGuardianSignsRidingonaLegendaryBeastSme_mvl/mxv
 BYTE   W01
 BYTE   VOL   25*PokemonRangerGuardianSignsRidingonaLegendaryBeastSme_mvl/mxv
 BYTE   W01
 BYTE   VOL   16*PokemonRangerGuardianSignsRidingonaLegendaryBeastSme_mvl/mxv
 BYTE   W01
 BYTE   VOL   10*PokemonRangerGuardianSignsRidingonaLegendaryBeastSme_mvl/mxv
 BYTE   W01
 BYTE   VOL   55*PokemonRangerGuardianSignsRidingonaLegendaryBeastSme_mvl/mxv
 BYTE   W01
 BYTE   N28  Bn3  v102  gtp1
 BYTE   W14
 BYTE   VOL   54*PokemonRangerGuardianSignsRidingonaLegendaryBeastSme_mvl/mxv
 BYTE   W01
 BYTE   VOL   53*PokemonRangerGuardianSignsRidingonaLegendaryBeastSme_mvl/mxv
 BYTE   W01
 BYTE   VOL   52*PokemonRangerGuardianSignsRidingonaLegendaryBeastSme_mvl/mxv
 BYTE   W02
 BYTE   VOL   50*PokemonRangerGuardianSignsRidingonaLegendaryBeastSme_mvl/mxv
 BYTE   W01
 BYTE   VOL   49*PokemonRangerGuardianSignsRidingonaLegendaryBeastSme_mvl/mxv
 BYTE   W01
 BYTE   VOL   48*PokemonRangerGuardianSignsRidingonaLegendaryBeastSme_mvl/mxv
 BYTE   W01
 BYTE   VOL   45*PokemonRangerGuardianSignsRidingonaLegendaryBeastSme_mvl/mxv
 BYTE   W01
 BYTE   VOL   44*PokemonRangerGuardianSignsRidingonaLegendaryBeastSme_mvl/mxv
 BYTE   W01
 BYTE   VOL   42*PokemonRangerGuardianSignsRidingonaLegendaryBeastSme_mvl/mxv
 BYTE   W01
 BYTE   N44  Gn3  v074  gtp1
 BYTE   VOL   39*PokemonRangerGuardianSignsRidingonaLegendaryBeastSme_mvl/mxv
 BYTE   W01
 BYTE   VOL   36*PokemonRangerGuardianSignsRidingonaLegendaryBeastSme_mvl/mxv
 BYTE   W01
 BYTE   VOL   33*PokemonRangerGuardianSignsRidingonaLegendaryBeastSme_mvl/mxv
 BYTE   W01
 BYTE   VOL   24*PokemonRangerGuardianSignsRidingonaLegendaryBeastSme_mvl/mxv
 BYTE   W01
 BYTE   VOL   19*PokemonRangerGuardianSignsRidingonaLegendaryBeastSme_mvl/mxv
 BYTE   W01
 BYTE   VOL   11*PokemonRangerGuardianSignsRidingonaLegendaryBeastSme_mvl/mxv
 BYTE   W01
 BYTE   VOL   35*PokemonRangerGuardianSignsRidingonaLegendaryBeastSme_mvl/mxv
 BYTE   W01
 BYTE   VOL   52*PokemonRangerGuardianSignsRidingonaLegendaryBeastSme_mvl/mxv
 BYTE   W01
 BYTE   VOL   51*PokemonRangerGuardianSignsRidingonaLegendaryBeastSme_mvl/mxv
 BYTE   W02
 BYTE   VOL   49*PokemonRangerGuardianSignsRidingonaLegendaryBeastSme_mvl/mxv
 BYTE   N36  Gn3  v109  gtp1
 BYTE   W13
 BYTE   VOL   48*PokemonRangerGuardianSignsRidingonaLegendaryBeastSme_mvl/mxv
 BYTE   W02
 BYTE   VOL   47*PokemonRangerGuardianSignsRidingonaLegendaryBeastSme_mvl/mxv
 BYTE   W02
 BYTE   VOL   46*PokemonRangerGuardianSignsRidingonaLegendaryBeastSme_mvl/mxv
 BYTE   W01
 BYTE   VOL   45*PokemonRangerGuardianSignsRidingonaLegendaryBeastSme_mvl/mxv
 BYTE   W02
 BYTE   VOL   44*PokemonRangerGuardianSignsRidingonaLegendaryBeastSme_mvl/mxv
 BYTE   W01
 BYTE   VOL   43*PokemonRangerGuardianSignsRidingonaLegendaryBeastSme_mvl/mxv
 BYTE   W01
 BYTE   VOL   42*PokemonRangerGuardianSignsRidingonaLegendaryBeastSme_mvl/mxv
 BYTE   W01
 BYTE   VOL   41*PokemonRangerGuardianSignsRidingonaLegendaryBeastSme_mvl/mxv
 BYTE   W01
 BYTE   VOL   40*PokemonRangerGuardianSignsRidingonaLegendaryBeastSme_mvl/mxv
 BYTE   W01
 BYTE   VOL   39*PokemonRangerGuardianSignsRidingonaLegendaryBeastSme_mvl/mxv
 BYTE   W01
 BYTE   VOL   37*PokemonRangerGuardianSignsRidingonaLegendaryBeastSme_mvl/mxv
 BYTE   W01
 BYTE   VOL   36*PokemonRangerGuardianSignsRidingonaLegendaryBeastSme_mvl/mxv
 BYTE   W01
 BYTE   VOL   34*PokemonRangerGuardianSignsRidingonaLegendaryBeastSme_mvl/mxv
 BYTE   W01
 BYTE   VOL   31*PokemonRangerGuardianSignsRidingonaLegendaryBeastSme_mvl/mxv
 BYTE   W01
 BYTE   VOL   29*PokemonRangerGuardianSignsRidingonaLegendaryBeastSme_mvl/mxv
 BYTE   W01
 BYTE   VOL   26*PokemonRangerGuardianSignsRidingonaLegendaryBeastSme_mvl/mxv
 BYTE   W01
 BYTE   VOL   20*PokemonRangerGuardianSignsRidingonaLegendaryBeastSme_mvl/mxv
 BYTE   W01
 BYTE   VOL   16*PokemonRangerGuardianSignsRidingonaLegendaryBeastSme_mvl/mxv
 BYTE   W01
 BYTE   VOL   12*PokemonRangerGuardianSignsRidingonaLegendaryBeastSme_mvl/mxv
 BYTE   W01
 BYTE   VOL   0*PokemonRangerGuardianSignsRidingonaLegendaryBeastSme_mvl/mxv
 BYTE   W01
 BYTE   VOL   24*PokemonRangerGuardianSignsRidingonaLegendaryBeastSme_mvl/mxv
 BYTE   W01
 BYTE   VOL   55*PokemonRangerGuardianSignsRidingonaLegendaryBeastSme_mvl/mxv
 BYTE   W01
 BYTE   N23  Fs3  v098
 BYTE   N44  Bn3  v074  gtp3
 BYTE   W12
//  #06 //029   ----------------------------------------
 BYTE   W12
 BYTE   N08  Gn3  v105
 BYTE   W24
 BYTE   N32  Cs4  v097  gtp3
 BYTE   Dn4  v052
 BYTE   W05
 BYTE   BEND   c_v+17
 BYTE   W01
 BYTE   BEND   c_v+32
 BYTE   W28
 BYTE   W01
 BYTE   BEND   c_v+0
 BYTE   W01
 BYTE   N06  En4  v108
 BYTE   N32  Bn3  v052  gtp3
 BYTE   W24
//  #06 //030   ----------------------------------------
 BYTE   W12
 BYTE   TIE  Cn4  v101
 BYTE   TIE  En4  v060
 BYTE   TIE  Cn5  v036
 BYTE   W36
 BYTE   W02
 BYTE   VOL   54*PokemonRangerGuardianSignsRidingonaLegendaryBeastSme_mvl/mxv
 BYTE   W06
 BYTE   VOL   53*PokemonRangerGuardianSignsRidingonaLegendaryBeastSme_mvl/mxv
 BYTE   W04
 BYTE   VOL   52*PokemonRangerGuardianSignsRidingonaLegendaryBeastSme_mvl/mxv
 BYTE   W05
 BYTE   VOL   51*PokemonRangerGuardianSignsRidingonaLegendaryBeastSme_mvl/mxv
 BYTE   W04
 BYTE   VOL   50*PokemonRangerGuardianSignsRidingonaLegendaryBeastSme_mvl/mxv
 BYTE   W03
 BYTE   VOL   49*PokemonRangerGuardianSignsRidingonaLegendaryBeastSme_mvl/mxv
 BYTE   W05
 BYTE   VOL   48*PokemonRangerGuardianSignsRidingonaLegendaryBeastSme_mvl/mxv
 BYTE   W01
 BYTE   VOL   47*PokemonRangerGuardianSignsRidingonaLegendaryBeastSme_mvl/mxv
 BYTE   W03
 BYTE   VOL   46*PokemonRangerGuardianSignsRidingonaLegendaryBeastSme_mvl/mxv
 BYTE   W02
 BYTE   VOL   45*PokemonRangerGuardianSignsRidingonaLegendaryBeastSme_mvl/mxv
 BYTE   W03
 BYTE   VOL   44*PokemonRangerGuardianSignsRidingonaLegendaryBeastSme_mvl/mxv
 BYTE   W01
 BYTE   VOL   43*PokemonRangerGuardianSignsRidingonaLegendaryBeastSme_mvl/mxv
 BYTE   W02
 BYTE   VOL   42*PokemonRangerGuardianSignsRidingonaLegendaryBeastSme_mvl/mxv
 BYTE   W03
 BYTE   VOL   41*PokemonRangerGuardianSignsRidingonaLegendaryBeastSme_mvl/mxv
 BYTE   W01
 BYTE   VOL   40*PokemonRangerGuardianSignsRidingonaLegendaryBeastSme_mvl/mxv
 BYTE   W02
 BYTE   VOL   39*PokemonRangerGuardianSignsRidingonaLegendaryBeastSme_mvl/mxv
 BYTE   W01
//  #06 //031   ----------------------------------------
 BYTE   VOL   38*PokemonRangerGuardianSignsRidingonaLegendaryBeastSme_mvl/mxv
 BYTE   W02
 BYTE   VOL   36*PokemonRangerGuardianSignsRidingonaLegendaryBeastSme_mvl/mxv
 BYTE   W01
 BYTE   VOL   35*PokemonRangerGuardianSignsRidingonaLegendaryBeastSme_mvl/mxv
 BYTE   W02
 BYTE   VOL   33*PokemonRangerGuardianSignsRidingonaLegendaryBeastSme_mvl/mxv
 BYTE   W01
 BYTE   VOL   32*PokemonRangerGuardianSignsRidingonaLegendaryBeastSme_mvl/mxv
 BYTE   W02
 BYTE   VOL   30*PokemonRangerGuardianSignsRidingonaLegendaryBeastSme_mvl/mxv
 BYTE   W01
 BYTE   VOL   28*PokemonRangerGuardianSignsRidingonaLegendaryBeastSme_mvl/mxv
 BYTE   W02
 BYTE   VOL   26*PokemonRangerGuardianSignsRidingonaLegendaryBeastSme_mvl/mxv
 BYTE   W01
 BYTE   VOL   24*PokemonRangerGuardianSignsRidingonaLegendaryBeastSme_mvl/mxv
 BYTE   W02
 BYTE   VOL   21*PokemonRangerGuardianSignsRidingonaLegendaryBeastSme_mvl/mxv
 BYTE   W01
 BYTE   VOL   18*PokemonRangerGuardianSignsRidingonaLegendaryBeastSme_mvl/mxv
 BYTE   W02
 BYTE   VOL   15*PokemonRangerGuardianSignsRidingonaLegendaryBeastSme_mvl/mxv
 BYTE   W01
 BYTE   VOL   11*PokemonRangerGuardianSignsRidingonaLegendaryBeastSme_mvl/mxv
 BYTE   W02
 BYTE   VOL   6*PokemonRangerGuardianSignsRidingonaLegendaryBeastSme_mvl/mxv
 BYTE   W01
 BYTE   EOT
 BYTE   Cn4
 BYTE   VOL   2*PokemonRangerGuardianSignsRidingonaLegendaryBeastSme_mvl/mxv
 BYTE   W01
 BYTE   VOL   7*PokemonRangerGuardianSignsRidingonaLegendaryBeastSme_mvl/mxv
 BYTE   W01
 BYTE   VOL   14*PokemonRangerGuardianSignsRidingonaLegendaryBeastSme_mvl/mxv
 BYTE   W01
 BYTE   VOL   22*PokemonRangerGuardianSignsRidingonaLegendaryBeastSme_mvl/mxv
 BYTE   W01
 BYTE   VOL   36*PokemonRangerGuardianSignsRidingonaLegendaryBeastSme_mvl/mxv
 BYTE   W01
 BYTE   VOL   44*PokemonRangerGuardianSignsRidingonaLegendaryBeastSme_mvl/mxv
 BYTE   W01
 BYTE   VOL   55*PokemonRangerGuardianSignsRidingonaLegendaryBeastSme_mvl/mxv
 BYTE   W08
 BYTE   EOT
 BYTE   En4  v084
 BYTE   W01
 BYTE   TIE  Bn2  v074
 BYTE   N32  Bn3  v052  gtp3
 BYTE   W36
 BYTE   Cs4
 BYTE   W24
//  #06 //032   ----------------------------------------
 BYTE   W12
 BYTE   Fs4  v050
 BYTE   W24
 BYTE   W03
 BYTE   EOT
 BYTE   Bn2
 BYTE   W09
 BYTE   N80  Ds4  v050  gtp3
 BYTE   W48
//  #06 //033   ----------------------------------------
 BYTE   W36
 BYTE   TIE  En4  v064
 BYTE   W60
//  #06 //034   ----------------------------------------
 BYTE   W66
 BYTE   VOL   54*PokemonRangerGuardianSignsRidingonaLegendaryBeastSme_mvl/mxv
 BYTE   W21
 BYTE   VOL   53*PokemonRangerGuardianSignsRidingonaLegendaryBeastSme_mvl/mxv
 BYTE   W09
//  #06 //035   ----------------------------------------
 BYTE   W09
 BYTE   VOL   52*PokemonRangerGuardianSignsRidingonaLegendaryBeastSme_mvl/mxv
 BYTE   W18
 BYTE   VOL   51*PokemonRangerGuardianSignsRidingonaLegendaryBeastSme_mvl/mxv
 BYTE   W12
 BYTE   VOL   50*PokemonRangerGuardianSignsRidingonaLegendaryBeastSme_mvl/mxv
 BYTE   W09
 BYTE   VOL   49*PokemonRangerGuardianSignsRidingonaLegendaryBeastSme_mvl/mxv
 BYTE   W09
 BYTE   VOL   48*PokemonRangerGuardianSignsRidingonaLegendaryBeastSme_mvl/mxv
 BYTE   W06
 BYTE   VOL   47*PokemonRangerGuardianSignsRidingonaLegendaryBeastSme_mvl/mxv
 BYTE   W06
 BYTE   VOL   46*PokemonRangerGuardianSignsRidingonaLegendaryBeastSme_mvl/mxv
 BYTE   W06
 BYTE   VOL   45*PokemonRangerGuardianSignsRidingonaLegendaryBeastSme_mvl/mxv
 BYTE   W06
 BYTE   VOL   44*PokemonRangerGuardianSignsRidingonaLegendaryBeastSme_mvl/mxv
 BYTE   W03
 BYTE   VOL   43*PokemonRangerGuardianSignsRidingonaLegendaryBeastSme_mvl/mxv
 BYTE   W03
 BYTE   VOL   42*PokemonRangerGuardianSignsRidingonaLegendaryBeastSme_mvl/mxv
 BYTE   W06
 BYTE   VOL   40*PokemonRangerGuardianSignsRidingonaLegendaryBeastSme_mvl/mxv
 BYTE   W03
//  #06 //036   ----------------------------------------
 BYTE   VOL   39*PokemonRangerGuardianSignsRidingonaLegendaryBeastSme_mvl/mxv
 BYTE   W03
 BYTE   VOL   38*PokemonRangerGuardianSignsRidingonaLegendaryBeastSme_mvl/mxv
 BYTE   W03
 BYTE   VOL   37*PokemonRangerGuardianSignsRidingonaLegendaryBeastSme_mvl/mxv
 BYTE   W03
 BYTE   VOL   35*PokemonRangerGuardianSignsRidingonaLegendaryBeastSme_mvl/mxv
 BYTE   W03
 BYTE   VOL   33*PokemonRangerGuardianSignsRidingonaLegendaryBeastSme_mvl/mxv
 BYTE   W03
 BYTE   VOL   31*PokemonRangerGuardianSignsRidingonaLegendaryBeastSme_mvl/mxv
 BYTE   W03
 BYTE   VOL   29*PokemonRangerGuardianSignsRidingonaLegendaryBeastSme_mvl/mxv
 BYTE   W03
 BYTE   VOL   26*PokemonRangerGuardianSignsRidingonaLegendaryBeastSme_mvl/mxv
 BYTE   W03
 BYTE   VOL   23*PokemonRangerGuardianSignsRidingonaLegendaryBeastSme_mvl/mxv
 BYTE   W03
 BYTE   VOL   18*PokemonRangerGuardianSignsRidingonaLegendaryBeastSme_mvl/mxv
 BYTE   W03
 BYTE   VOL   13*PokemonRangerGuardianSignsRidingonaLegendaryBeastSme_mvl/mxv
 BYTE   W03
 BYTE   VOL   6*PokemonRangerGuardianSignsRidingonaLegendaryBeastSme_mvl/mxv
 BYTE   W02
 BYTE   EOT
 BYTE   VOL   0*PokemonRangerGuardianSignsRidingonaLegendaryBeastSme_mvl/mxv
 BYTE   W60
 BYTE   W01
//  #06 //037   ----------------------------------------
 BYTE   W96
//  #06 //038   ----------------------------------------
 BYTE   W96
//  #06 //039   ----------------------------------------
 BYTE   W96
//  #06 //040   ----------------------------------------
 BYTE   W96
//  #06 //041   ----------------------------------------
 BYTE   W24
 BYTE   VOL   55*PokemonRangerGuardianSignsRidingonaLegendaryBeastSme_mvl/mxv
 BYTE   GoTo
  POIN2 Label_01006F4A
 BYTE   FINE

//**************** Track 7 (Midi-Chn.6) ****************//

PokemonRangerGuardianSignsRidingonaLegendaryBeastSme_007:
//  #07 //000   ----------------------------------------
 BYTE   KEYSH   PokemonRangerGuardianSignsRidingonaLegendaryBeastSme_key+0
 BYTE   VOICE   31
 BYTE   VOL   32*PokemonRangerGuardianSignsRidingonaLegendaryBeastSme_mvl/mxv
 BYTE   W96
//  #07 //001   ----------------------------------------
 BYTE   W24
Label_0100559C:
 BYTE   N96  Cn3  v123
 BYTE   W72
//  #07 //002   ----------------------------------------
 BYTE   W96
//  #07 //003   ----------------------------------------
 BYTE   W96
//  #07 //004   ----------------------------------------
 BYTE   W96
//  #07 //005   ----------------------------------------
 BYTE   W96
//  #07 //006   ----------------------------------------
 BYTE   W96
//  #07 //007   ----------------------------------------
 BYTE   W96
//  #07 //008   ----------------------------------------
 BYTE   W96
//  #07 //009   ----------------------------------------
 BYTE   W96
//  #07 //010   ----------------------------------------
 BYTE   W96
//  #07 //011   ----------------------------------------
 BYTE   W96
//  #07 //012   ----------------------------------------
 BYTE   W96
//  #07 //013   ----------------------------------------
 BYTE   W96
//  #07 //014   ----------------------------------------
 BYTE   W96
//  #07 //015   ----------------------------------------
 BYTE   W96
//  #07 //016   ----------------------------------------
 BYTE   W96
//  #07 //017   ----------------------------------------
 BYTE   W96
//  #07 //018   ----------------------------------------
 BYTE   W96
//  #07 //019   ----------------------------------------
 BYTE   W96
//  #07 //020   ----------------------------------------
 BYTE   W96
//  #07 //021   ----------------------------------------
 BYTE   W96
//  #07 //022   ----------------------------------------
 BYTE   W96
//  #07 //023   ----------------------------------------
 BYTE   W96
//  #07 //024   ----------------------------------------
 BYTE   W96
//  #07 //025   ----------------------------------------
 BYTE   W96
//  #07 //026   ----------------------------------------
 BYTE   W96
//  #07 //027   ----------------------------------------
 BYTE   W96
//  #07 //028   ----------------------------------------
 BYTE   W96
//  #07 //029   ----------------------------------------
 BYTE   W96
//  #07 //030   ----------------------------------------
 BYTE   W96
//  #07 //031   ----------------------------------------
 BYTE   W96
//  #07 //032   ----------------------------------------
 BYTE   W96
//  #07 //033   ----------------------------------------
 BYTE   W96
//  #07 //034   ----------------------------------------
 BYTE   W96
//  #07 //035   ----------------------------------------
 BYTE   W96
//  #07 //036   ----------------------------------------
 BYTE   W96
//  #07 //037   ----------------------------------------
 BYTE   W96
//  #07 //038   ----------------------------------------
 BYTE   W96
//  #07 //039   ----------------------------------------
 BYTE   W96
//  #07 //040   ----------------------------------------
 BYTE   W96
//  #07 //041   ----------------------------------------
 BYTE   W24
 BYTE   GoTo
  POIN2 Label_0100559C
 BYTE   FINE

//**************** Track 8 (Midi-Chn.7) ****************//

PokemonRangerGuardianSignsRidingonaLegendaryBeastSme_008:
//  #08 //000   ----------------------------------------
 BYTE   KEYSH   PokemonRangerGuardianSignsRidingonaLegendaryBeastSme_key+0
 BYTE   VOICE   61
 BYTE   VOL   51*PokemonRangerGuardianSignsRidingonaLegendaryBeastSme_mvl/mxv
 BYTE   W96
//  #08 //001   ----------------------------------------
 BYTE   W24
Label_01007308:
 BYTE   PAN   c_v+5
 BYTE   W72
//  #08 //002   ----------------------------------------
 BYTE   W96
//  #08 //003   ----------------------------------------
 BYTE   W96
//  #08 //004   ----------------------------------------
 BYTE   W96
//  #08 //005   ----------------------------------------
 BYTE   W96
//  #08 //006   ----------------------------------------
 BYTE   W96
//  #08 //007   ----------------------------------------
 BYTE   W84
 BYTE   N09  Bn2  v100
 BYTE   W12
//  #08 //008   ----------------------------------------
 BYTE   W06
 BYTE   N13  Ds3  v080
 BYTE   W18
 BYTE   N11  Fs3  v085
 BYTE   W12
 BYTE   N08  Bn3  v093
 BYTE   W24
 BYTE   N23  Gs3  v090
 BYTE   W24
 BYTE   An3
 BYTE   W12
//  #08 //009   ----------------------------------------
 BYTE   W12
 BYTE   Bn3  v107
 BYTE   W24
 BYTE   N32  Cn3  v080  gtp2
 BYTE   W36
 BYTE   N44  Dn3  v080  gtp2
 BYTE   W24
//  #08 //010   ----------------------------------------
 BYTE   W36
 BYTE   N32  Bn2  v080  gtp3
 BYTE   W36
 BYTE   N44  En2  v080  gtp2
 BYTE   W24
//  #08 //011   ----------------------------------------
 BYTE   W36
 BYTE   N32  An2  v080  gtp3
 BYTE   W36
 BYTE   N48  Bn2  v080  gtp1
 BYTE   W24
//  #08 //012   ----------------------------------------
 BYTE   W36
 BYTE   N17  Fs3  v107
 BYTE   W18
 BYTE   N12  En3  v078
 BYTE   W18
 BYTE   N32  En2  v089  gtp3
 BYTE   W24
//  #08 //013   ----------------------------------------
 BYTE   W12
 BYTE   N23  Bn2
 BYTE   W24
 BYTE   N32  En3  v080  gtp2
 BYTE   W36
 BYTE   N32  Dn3  v080  gtp3
 BYTE   W24
//  #08 //014   ----------------------------------------
 BYTE   W12
 BYTE   Fs3
 BYTE   W36
 BYTE   An3
 BYTE   W36
 BYTE   N16  Gs3
 BYTE   W12
//  #08 //015   ----------------------------------------
 BYTE   W06
 BYTE   N06  En3
 BYTE   W18
 BYTE   N44  An2  v080  gtp3
 BYTE   W48
 BYTE   N32  Bn2  v080  gtp3
 BYTE   W24
//  #08 //016   ----------------------------------------
 BYTE   W12
 BYTE   TIE  Cn3
 BYTE   W80
 BYTE   W01
 BYTE   VOL   50*PokemonRangerGuardianSignsRidingonaLegendaryBeastSme_mvl/mxv
 BYTE   W03
//  #08 //017   ----------------------------------------
 BYTE   VOL   49*PokemonRangerGuardianSignsRidingonaLegendaryBeastSme_mvl/mxv
 BYTE   W03
 BYTE   VOL   48*PokemonRangerGuardianSignsRidingonaLegendaryBeastSme_mvl/mxv
 BYTE   W01
 BYTE   VOL   47*PokemonRangerGuardianSignsRidingonaLegendaryBeastSme_mvl/mxv
 BYTE   W02
 BYTE   VOL   46*PokemonRangerGuardianSignsRidingonaLegendaryBeastSme_mvl/mxv
 BYTE   W01
 BYTE   VOL   45*PokemonRangerGuardianSignsRidingonaLegendaryBeastSme_mvl/mxv
 BYTE   W03
 BYTE   VOL   44*PokemonRangerGuardianSignsRidingonaLegendaryBeastSme_mvl/mxv
 BYTE   W02
 BYTE   VOL   43*PokemonRangerGuardianSignsRidingonaLegendaryBeastSme_mvl/mxv
 BYTE   W01
 BYTE   VOL   42*PokemonRangerGuardianSignsRidingonaLegendaryBeastSme_mvl/mxv
 BYTE   W02
 BYTE   VOL   41*PokemonRangerGuardianSignsRidingonaLegendaryBeastSme_mvl/mxv
 BYTE   W01
 BYTE   VOL   39*PokemonRangerGuardianSignsRidingonaLegendaryBeastSme_mvl/mxv
 BYTE   W02
 BYTE   VOL   38*PokemonRangerGuardianSignsRidingonaLegendaryBeastSme_mvl/mxv
 BYTE   W01
 BYTE   VOL   37*PokemonRangerGuardianSignsRidingonaLegendaryBeastSme_mvl/mxv
 BYTE   W02
 BYTE   VOL   35*PokemonRangerGuardianSignsRidingonaLegendaryBeastSme_mvl/mxv
 BYTE   W01
 BYTE   VOL   33*PokemonRangerGuardianSignsRidingonaLegendaryBeastSme_mvl/mxv
 BYTE   W02
 BYTE   VOL   31*PokemonRangerGuardianSignsRidingonaLegendaryBeastSme_mvl/mxv
 BYTE   W01
 BYTE   VOL   29*PokemonRangerGuardianSignsRidingonaLegendaryBeastSme_mvl/mxv
 BYTE   W02
 BYTE   VOL   26*PokemonRangerGuardianSignsRidingonaLegendaryBeastSme_mvl/mxv
 BYTE   W01
 BYTE   VOL   23*PokemonRangerGuardianSignsRidingonaLegendaryBeastSme_mvl/mxv
 BYTE   W02
 BYTE   VOL   20*PokemonRangerGuardianSignsRidingonaLegendaryBeastSme_mvl/mxv
 BYTE   W01
 BYTE   VOL   16*PokemonRangerGuardianSignsRidingonaLegendaryBeastSme_mvl/mxv
 BYTE   W02
 BYTE   VOL   11*PokemonRangerGuardianSignsRidingonaLegendaryBeastSme_mvl/mxv
 BYTE   W01
 BYTE   VOL   6*PokemonRangerGuardianSignsRidingonaLegendaryBeastSme_mvl/mxv
 BYTE   W01
 BYTE   EOT
 BYTE   VOL   51*PokemonRangerGuardianSignsRidingonaLegendaryBeastSme_mvl/mxv
 BYTE   W01
 BYTE   N32  En3  v080  gtp3
 BYTE   W36
 BYTE   Fs3
 BYTE   W24
//  #08 //018   ----------------------------------------
 BYTE   W12
 BYTE   N12  Bn2
 BYTE   W84
//  #08 //019   ----------------------------------------
 BYTE   W32
 BYTE   W01
 BYTE   VOL   50*PokemonRangerGuardianSignsRidingonaLegendaryBeastSme_mvl/mxv
 BYTE   W03
 BYTE   VOL   49*PokemonRangerGuardianSignsRidingonaLegendaryBeastSme_mvl/mxv
 BYTE   W03
 BYTE   VOL   48*PokemonRangerGuardianSignsRidingonaLegendaryBeastSme_mvl/mxv
 BYTE   W01
 BYTE   VOL   47*PokemonRangerGuardianSignsRidingonaLegendaryBeastSme_mvl/mxv
 BYTE   W02
 BYTE   VOL   46*PokemonRangerGuardianSignsRidingonaLegendaryBeastSme_mvl/mxv
 BYTE   W01
 BYTE   VOL   45*PokemonRangerGuardianSignsRidingonaLegendaryBeastSme_mvl/mxv
 BYTE   W03
 BYTE   VOL   44*PokemonRangerGuardianSignsRidingonaLegendaryBeastSme_mvl/mxv
 BYTE   W02
 BYTE   VOL   43*PokemonRangerGuardianSignsRidingonaLegendaryBeastSme_mvl/mxv
 BYTE   W01
 BYTE   VOL   42*PokemonRangerGuardianSignsRidingonaLegendaryBeastSme_mvl/mxv
 BYTE   W02
 BYTE   VOL   41*PokemonRangerGuardianSignsRidingonaLegendaryBeastSme_mvl/mxv
 BYTE   W01
 BYTE   VOL   39*PokemonRangerGuardianSignsRidingonaLegendaryBeastSme_mvl/mxv
 BYTE   W02
 BYTE   VOL   38*PokemonRangerGuardianSignsRidingonaLegendaryBeastSme_mvl/mxv
 BYTE   W01
 BYTE   VOL   37*PokemonRangerGuardianSignsRidingonaLegendaryBeastSme_mvl/mxv
 BYTE   W02
 BYTE   VOL   35*PokemonRangerGuardianSignsRidingonaLegendaryBeastSme_mvl/mxv
 BYTE   W01
 BYTE   VOL   33*PokemonRangerGuardianSignsRidingonaLegendaryBeastSme_mvl/mxv
 BYTE   W02
 BYTE   VOL   31*PokemonRangerGuardianSignsRidingonaLegendaryBeastSme_mvl/mxv
 BYTE   W01
 BYTE   VOL   29*PokemonRangerGuardianSignsRidingonaLegendaryBeastSme_mvl/mxv
 BYTE   W02
 BYTE   VOL   26*PokemonRangerGuardianSignsRidingonaLegendaryBeastSme_mvl/mxv
 BYTE   W01
 BYTE   VOL   23*PokemonRangerGuardianSignsRidingonaLegendaryBeastSme_mvl/mxv
 BYTE   W02
 BYTE   VOL   20*PokemonRangerGuardianSignsRidingonaLegendaryBeastSme_mvl/mxv
 BYTE   W01
 BYTE   VOL   16*PokemonRangerGuardianSignsRidingonaLegendaryBeastSme_mvl/mxv
 BYTE   W02
 BYTE   VOL   11*PokemonRangerGuardianSignsRidingonaLegendaryBeastSme_mvl/mxv
 BYTE   W01
 BYTE   VOL   6*PokemonRangerGuardianSignsRidingonaLegendaryBeastSme_mvl/mxv
 BYTE   W01
 BYTE   VOL   51*PokemonRangerGuardianSignsRidingonaLegendaryBeastSme_mvl/mxv
 BYTE   N30  En2  v092  gtp1
 BYTE   W11
 BYTE   VOL   50*PokemonRangerGuardianSignsRidingonaLegendaryBeastSme_mvl/mxv
 BYTE   W03
 BYTE   VOL   49*PokemonRangerGuardianSignsRidingonaLegendaryBeastSme_mvl/mxv
 BYTE   W03
 BYTE   VOL   48*PokemonRangerGuardianSignsRidingonaLegendaryBeastSme_mvl/mxv
 BYTE   W02
 BYTE   VOL   47*PokemonRangerGuardianSignsRidingonaLegendaryBeastSme_mvl/mxv
 BYTE   W02
 BYTE   VOL   46*PokemonRangerGuardianSignsRidingonaLegendaryBeastSme_mvl/mxv
 BYTE   W01
 BYTE   VOL   45*PokemonRangerGuardianSignsRidingonaLegendaryBeastSme_mvl/mxv
 BYTE   W01
 BYTE   VOL   44*PokemonRangerGuardianSignsRidingonaLegendaryBeastSme_mvl/mxv
 BYTE   W02
//  #08 //020   ----------------------------------------
 BYTE   VOL   42*PokemonRangerGuardianSignsRidingonaLegendaryBeastSme_mvl/mxv
 BYTE   W01
 BYTE   VOL   41*PokemonRangerGuardianSignsRidingonaLegendaryBeastSme_mvl/mxv
 BYTE   W01
 BYTE   VOL   39*PokemonRangerGuardianSignsRidingonaLegendaryBeastSme_mvl/mxv
 BYTE   W01
 BYTE   VOL   36*PokemonRangerGuardianSignsRidingonaLegendaryBeastSme_mvl/mxv
 BYTE   W01
 BYTE   VOL   33*PokemonRangerGuardianSignsRidingonaLegendaryBeastSme_mvl/mxv
 BYTE   W01
 BYTE   VOL   30*PokemonRangerGuardianSignsRidingonaLegendaryBeastSme_mvl/mxv
 BYTE   W01
 BYTE   VOL   21*PokemonRangerGuardianSignsRidingonaLegendaryBeastSme_mvl/mxv
 BYTE   W01
 BYTE   VOL   14*PokemonRangerGuardianSignsRidingonaLegendaryBeastSme_mvl/mxv
 BYTE   W01
 BYTE   VOL   0*PokemonRangerGuardianSignsRidingonaLegendaryBeastSme_mvl/mxv
 BYTE   W03
 BYTE   N90  Bn2  v083
 BYTE   W01
 BYTE   VOL   32*PokemonRangerGuardianSignsRidingonaLegendaryBeastSme_mvl/mxv
 BYTE   W01
 BYTE   VOL   39*PokemonRangerGuardianSignsRidingonaLegendaryBeastSme_mvl/mxv
 BYTE   W01
 BYTE   VOL   42*PokemonRangerGuardianSignsRidingonaLegendaryBeastSme_mvl/mxv
 BYTE   W01
 BYTE   VOL   45*PokemonRangerGuardianSignsRidingonaLegendaryBeastSme_mvl/mxv
 BYTE   W01
 BYTE   VOL   46*PokemonRangerGuardianSignsRidingonaLegendaryBeastSme_mvl/mxv
 BYTE   W32
 BYTE   W02
 BYTE   VOL   47*PokemonRangerGuardianSignsRidingonaLegendaryBeastSme_mvl/mxv
 BYTE   W13
 BYTE   VOL   48*PokemonRangerGuardianSignsRidingonaLegendaryBeastSme_mvl/mxv
 BYTE   W09
 BYTE   VOL   49*PokemonRangerGuardianSignsRidingonaLegendaryBeastSme_mvl/mxv
 BYTE   W15
 BYTE   VOL   47*PokemonRangerGuardianSignsRidingonaLegendaryBeastSme_mvl/mxv
 BYTE   W01
 BYTE   VOL   46*PokemonRangerGuardianSignsRidingonaLegendaryBeastSme_mvl/mxv
 BYTE   W01
 BYTE   VOL   45*PokemonRangerGuardianSignsRidingonaLegendaryBeastSme_mvl/mxv
 BYTE   W01
 BYTE   VOL   43*PokemonRangerGuardianSignsRidingonaLegendaryBeastSme_mvl/mxv
 BYTE   W01
 BYTE   VOL   41*PokemonRangerGuardianSignsRidingonaLegendaryBeastSme_mvl/mxv
 BYTE   W01
 BYTE   VOL   40*PokemonRangerGuardianSignsRidingonaLegendaryBeastSme_mvl/mxv
 BYTE   W01
 BYTE   VOL   38*PokemonRangerGuardianSignsRidingonaLegendaryBeastSme_mvl/mxv
 BYTE   W01
 BYTE   VOL   35*PokemonRangerGuardianSignsRidingonaLegendaryBeastSme_mvl/mxv
 BYTE   W01
 BYTE   VOL   33*PokemonRangerGuardianSignsRidingonaLegendaryBeastSme_mvl/mxv
 BYTE   W01
//  #08 //021   ----------------------------------------
 BYTE   VOL   31*PokemonRangerGuardianSignsRidingonaLegendaryBeastSme_mvl/mxv
 BYTE   W01
 BYTE   VOL   25*PokemonRangerGuardianSignsRidingonaLegendaryBeastSme_mvl/mxv
 BYTE   W01
 BYTE   VOL   22*PokemonRangerGuardianSignsRidingonaLegendaryBeastSme_mvl/mxv
 BYTE   W01
 BYTE   VOL   18*PokemonRangerGuardianSignsRidingonaLegendaryBeastSme_mvl/mxv
 BYTE   W01
 BYTE   VOL   10*PokemonRangerGuardianSignsRidingonaLegendaryBeastSme_mvl/mxv
 BYTE   W01
 BYTE   VOL   4*PokemonRangerGuardianSignsRidingonaLegendaryBeastSme_mvl/mxv
 BYTE   W01
 BYTE   VOL   0*PokemonRangerGuardianSignsRidingonaLegendaryBeastSme_mvl/mxv
 BYTE   W28
 BYTE   W01
 BYTE   VOL   33*PokemonRangerGuardianSignsRidingonaLegendaryBeastSme_mvl/mxv
 BYTE   W01
 BYTE   VOL   42*PokemonRangerGuardianSignsRidingonaLegendaryBeastSme_mvl/mxv
 BYTE   N32  Dn3  v076  gtp3
 BYTE   W01
 BYTE   VOL   49*PokemonRangerGuardianSignsRidingonaLegendaryBeastSme_mvl/mxv
 BYTE   W01
 BYTE   VOL   51*PokemonRangerGuardianSignsRidingonaLegendaryBeastSme_mvl/mxv
 BYTE   W17
 BYTE   VOL   50*PokemonRangerGuardianSignsRidingonaLegendaryBeastSme_mvl/mxv
 BYTE   W02
 BYTE   VOL   49*PokemonRangerGuardianSignsRidingonaLegendaryBeastSme_mvl/mxv
 BYTE   W03
 BYTE   VOL   48*PokemonRangerGuardianSignsRidingonaLegendaryBeastSme_mvl/mxv
 BYTE   W01
 BYTE   VOL   47*PokemonRangerGuardianSignsRidingonaLegendaryBeastSme_mvl/mxv
 BYTE   W01
 BYTE   VOL   46*PokemonRangerGuardianSignsRidingonaLegendaryBeastSme_mvl/mxv
 BYTE   W01
 BYTE   VOL   45*PokemonRangerGuardianSignsRidingonaLegendaryBeastSme_mvl/mxv
 BYTE   W02
 BYTE   VOL   43*PokemonRangerGuardianSignsRidingonaLegendaryBeastSme_mvl/mxv
 BYTE   W01
 BYTE   VOL   41*PokemonRangerGuardianSignsRidingonaLegendaryBeastSme_mvl/mxv
 BYTE   W01
 BYTE   VOL   39*PokemonRangerGuardianSignsRidingonaLegendaryBeastSme_mvl/mxv
 BYTE   W01
 BYTE   VOL   34*PokemonRangerGuardianSignsRidingonaLegendaryBeastSme_mvl/mxv
 BYTE   W01
 BYTE   VOL   30*PokemonRangerGuardianSignsRidingonaLegendaryBeastSme_mvl/mxv
 BYTE   W01
 BYTE   VOL   24*PokemonRangerGuardianSignsRidingonaLegendaryBeastSme_mvl/mxv
 BYTE   W01
 BYTE   VOL   0*PokemonRangerGuardianSignsRidingonaLegendaryBeastSme_mvl/mxv
 BYTE   W01
 BYTE   VOL   51*PokemonRangerGuardianSignsRidingonaLegendaryBeastSme_mvl/mxv
 BYTE   N32  Cn3  v088  gtp2
 BYTE   W15
 BYTE   VOL   50*PokemonRangerGuardianSignsRidingonaLegendaryBeastSme_mvl/mxv
 BYTE   W03
 BYTE   VOL   49*PokemonRangerGuardianSignsRidingonaLegendaryBeastSme_mvl/mxv
 BYTE   W03
 BYTE   VOL   48*PokemonRangerGuardianSignsRidingonaLegendaryBeastSme_mvl/mxv
 BYTE   W02
 BYTE   VOL   47*PokemonRangerGuardianSignsRidingonaLegendaryBeastSme_mvl/mxv
 BYTE   W01
//  #08 //022   ----------------------------------------
 BYTE   VOL   46*PokemonRangerGuardianSignsRidingonaLegendaryBeastSme_mvl/mxv
 BYTE   W01
 BYTE   VOL   45*PokemonRangerGuardianSignsRidingonaLegendaryBeastSme_mvl/mxv
 BYTE   W01
 BYTE   VOL   44*PokemonRangerGuardianSignsRidingonaLegendaryBeastSme_mvl/mxv
 BYTE   W01
 BYTE   VOL   43*PokemonRangerGuardianSignsRidingonaLegendaryBeastSme_mvl/mxv
 BYTE   W01
 BYTE   VOL   42*PokemonRangerGuardianSignsRidingonaLegendaryBeastSme_mvl/mxv
 BYTE   W01
 BYTE   VOL   39*PokemonRangerGuardianSignsRidingonaLegendaryBeastSme_mvl/mxv
 BYTE   W01
 BYTE   VOL   38*PokemonRangerGuardianSignsRidingonaLegendaryBeastSme_mvl/mxv
 BYTE   W01
 BYTE   VOL   35*PokemonRangerGuardianSignsRidingonaLegendaryBeastSme_mvl/mxv
 BYTE   W01
 BYTE   VOL   29*PokemonRangerGuardianSignsRidingonaLegendaryBeastSme_mvl/mxv
 BYTE   W01
 BYTE   VOL   24*PokemonRangerGuardianSignsRidingonaLegendaryBeastSme_mvl/mxv
 BYTE   W01
 BYTE   VOL   17*PokemonRangerGuardianSignsRidingonaLegendaryBeastSme_mvl/mxv
 BYTE   W01
 BYTE   VOL   0*PokemonRangerGuardianSignsRidingonaLegendaryBeastSme_mvl/mxv
 BYTE   W01
 BYTE   TIE  Fs2  v092
 BYTE   W01
 BYTE   VOL   35*PokemonRangerGuardianSignsRidingonaLegendaryBeastSme_mvl/mxv
 BYTE   W01
 BYTE   VOL   38*PokemonRangerGuardianSignsRidingonaLegendaryBeastSme_mvl/mxv
 BYTE   W01
 BYTE   VOL   40*PokemonRangerGuardianSignsRidingonaLegendaryBeastSme_mvl/mxv
 BYTE   W01
 BYTE   VOL   43*PokemonRangerGuardianSignsRidingonaLegendaryBeastSme_mvl/mxv
 BYTE   W02
 BYTE   VOL   44*PokemonRangerGuardianSignsRidingonaLegendaryBeastSme_mvl/mxv
 BYTE   W24
 BYTE   W03
 BYTE   VOL   43*PokemonRangerGuardianSignsRidingonaLegendaryBeastSme_mvl/mxv
 BYTE   W06
 BYTE   VOL   42*PokemonRangerGuardianSignsRidingonaLegendaryBeastSme_mvl/mxv
 BYTE   W03
 BYTE   VOL   41*PokemonRangerGuardianSignsRidingonaLegendaryBeastSme_mvl/mxv
 BYTE   W04
 BYTE   VOL   40*PokemonRangerGuardianSignsRidingonaLegendaryBeastSme_mvl/mxv
 BYTE   W02
 BYTE   VOL   39*PokemonRangerGuardianSignsRidingonaLegendaryBeastSme_mvl/mxv
 BYTE   W04
 BYTE   VOL   38*PokemonRangerGuardianSignsRidingonaLegendaryBeastSme_mvl/mxv
 BYTE   W02
 BYTE   VOL   37*PokemonRangerGuardianSignsRidingonaLegendaryBeastSme_mvl/mxv
 BYTE   W01
 BYTE   VOL   36*PokemonRangerGuardianSignsRidingonaLegendaryBeastSme_mvl/mxv
 BYTE   W02
 BYTE   VOL   35*PokemonRangerGuardianSignsRidingonaLegendaryBeastSme_mvl/mxv
 BYTE   W03
 BYTE   VOL   33*PokemonRangerGuardianSignsRidingonaLegendaryBeastSme_mvl/mxv
 BYTE   W01
 BYTE   VOL   32*PokemonRangerGuardianSignsRidingonaLegendaryBeastSme_mvl/mxv
 BYTE   W02
 BYTE   VOL   31*PokemonRangerGuardianSignsRidingonaLegendaryBeastSme_mvl/mxv
 BYTE   W01
 BYTE   VOL   30*PokemonRangerGuardianSignsRidingonaLegendaryBeastSme_mvl/mxv
 BYTE   W02
 BYTE   VOL   28*PokemonRangerGuardianSignsRidingonaLegendaryBeastSme_mvl/mxv
 BYTE   W01
 BYTE   VOL   26*PokemonRangerGuardianSignsRidingonaLegendaryBeastSme_mvl/mxv
 BYTE   W02
 BYTE   VOL   24*PokemonRangerGuardianSignsRidingonaLegendaryBeastSme_mvl/mxv
 BYTE   W05
 BYTE   VOL   25*PokemonRangerGuardianSignsRidingonaLegendaryBeastSme_mvl/mxv
 BYTE   W03
 BYTE   VOL   26*PokemonRangerGuardianSignsRidingonaLegendaryBeastSme_mvl/mxv
 BYTE   W01
 BYTE   VOL   27*PokemonRangerGuardianSignsRidingonaLegendaryBeastSme_mvl/mxv
 BYTE   W02
 BYTE   VOL   28*PokemonRangerGuardianSignsRidingonaLegendaryBeastSme_mvl/mxv
 BYTE   W01
 BYTE   VOL   29*PokemonRangerGuardianSignsRidingonaLegendaryBeastSme_mvl/mxv
 BYTE   W03
//  #08 //023   ----------------------------------------
 BYTE   VOL   31*PokemonRangerGuardianSignsRidingonaLegendaryBeastSme_mvl/mxv
 BYTE   W02
 BYTE   VOL   32*PokemonRangerGuardianSignsRidingonaLegendaryBeastSme_mvl/mxv
 BYTE   W01
 BYTE   VOL   33*PokemonRangerGuardianSignsRidingonaLegendaryBeastSme_mvl/mxv
 BYTE   W02
 BYTE   VOL   35*PokemonRangerGuardianSignsRidingonaLegendaryBeastSme_mvl/mxv
 BYTE   W01
 BYTE   VOL   37*PokemonRangerGuardianSignsRidingonaLegendaryBeastSme_mvl/mxv
 BYTE   W02
 BYTE   VOL   40*PokemonRangerGuardianSignsRidingonaLegendaryBeastSme_mvl/mxv
 BYTE   W01
 BYTE   VOL   43*PokemonRangerGuardianSignsRidingonaLegendaryBeastSme_mvl/mxv
 BYTE   W02
 BYTE   VOL   51*PokemonRangerGuardianSignsRidingonaLegendaryBeastSme_mvl/mxv
 BYTE   W10
 BYTE   EOT
 BYTE   W15
 BYTE   N36  En3  v074  gtp1
 BYTE   W36
 BYTE   N18  Cs3  v070
 BYTE   W24
//  #08 //024   ----------------------------------------
 BYTE   W12
 BYTE   N68  Ds3
 BYTE   W72
 BYTE   N44  Fs3  v079  gtp3
 BYTE   W12
//  #08 //025   ----------------------------------------
 BYTE   W36
 BYTE   N32  Gn3  v076  gtp3
 BYTE   W36
 BYTE   An3  v078
 BYTE   W24
//  #08 //026   ----------------------------------------
 BYTE   W12
 BYTE   Bn3
 BYTE   W36
 BYTE   Ds3  v088
 BYTE   W36
 BYTE   N23  Fs3  v096
 BYTE   W12
//  #08 //027   ----------------------------------------
 BYTE   W12
 BYTE   N11  An3  v098
 BYTE   W12
 BYTE   Gn3  v096
 BYTE   W56
 BYTE   W02
 BYTE   VOL   50*PokemonRangerGuardianSignsRidingonaLegendaryBeastSme_mvl/mxv
 BYTE   W01
 BYTE   VOL   49*PokemonRangerGuardianSignsRidingonaLegendaryBeastSme_mvl/mxv
 BYTE   W02
 BYTE   VOL   48*PokemonRangerGuardianSignsRidingonaLegendaryBeastSme_mvl/mxv
 BYTE   W02
 BYTE   VOL   47*PokemonRangerGuardianSignsRidingonaLegendaryBeastSme_mvl/mxv
 BYTE   W01
 BYTE   VOL   45*PokemonRangerGuardianSignsRidingonaLegendaryBeastSme_mvl/mxv
 BYTE   W02
 BYTE   VOL   43*PokemonRangerGuardianSignsRidingonaLegendaryBeastSme_mvl/mxv
 BYTE   W01
 BYTE   VOL   40*PokemonRangerGuardianSignsRidingonaLegendaryBeastSme_mvl/mxv
 BYTE   W01
 BYTE   VOL   37*PokemonRangerGuardianSignsRidingonaLegendaryBeastSme_mvl/mxv
 BYTE   W01
 BYTE   VOL   34*PokemonRangerGuardianSignsRidingonaLegendaryBeastSme_mvl/mxv
 BYTE   W01
 BYTE   VOL   22*PokemonRangerGuardianSignsRidingonaLegendaryBeastSme_mvl/mxv
 BYTE   W01
 BYTE   VOL   51*PokemonRangerGuardianSignsRidingonaLegendaryBeastSme_mvl/mxv
 BYTE   W01
//  #08 //028   ----------------------------------------
 BYTE   W14
 BYTE   VOL   49*PokemonRangerGuardianSignsRidingonaLegendaryBeastSme_mvl/mxv
 BYTE   W01
 BYTE   VOL   47*PokemonRangerGuardianSignsRidingonaLegendaryBeastSme_mvl/mxv
 BYTE   W01
 BYTE   VOL   46*PokemonRangerGuardianSignsRidingonaLegendaryBeastSme_mvl/mxv
 BYTE   W32
 BYTE   W02
 BYTE   VOL   47*PokemonRangerGuardianSignsRidingonaLegendaryBeastSme_mvl/mxv
 BYTE   W13
 BYTE   VOL   48*PokemonRangerGuardianSignsRidingonaLegendaryBeastSme_mvl/mxv
 BYTE   W09
 BYTE   VOL   49*PokemonRangerGuardianSignsRidingonaLegendaryBeastSme_mvl/mxv
 BYTE   W15
 BYTE   VOL   47*PokemonRangerGuardianSignsRidingonaLegendaryBeastSme_mvl/mxv
 BYTE   W01
 BYTE   VOL   46*PokemonRangerGuardianSignsRidingonaLegendaryBeastSme_mvl/mxv
 BYTE   W01
 BYTE   VOL   45*PokemonRangerGuardianSignsRidingonaLegendaryBeastSme_mvl/mxv
 BYTE   W01
 BYTE   VOL   43*PokemonRangerGuardianSignsRidingonaLegendaryBeastSme_mvl/mxv
 BYTE   W01
 BYTE   VOL   41*PokemonRangerGuardianSignsRidingonaLegendaryBeastSme_mvl/mxv
 BYTE   W01
 BYTE   VOL   40*PokemonRangerGuardianSignsRidingonaLegendaryBeastSme_mvl/mxv
 BYTE   W01
 BYTE   VOL   38*PokemonRangerGuardianSignsRidingonaLegendaryBeastSme_mvl/mxv
 BYTE   W01
 BYTE   VOL   35*PokemonRangerGuardianSignsRidingonaLegendaryBeastSme_mvl/mxv
 BYTE   W01
 BYTE   VOL   33*PokemonRangerGuardianSignsRidingonaLegendaryBeastSme_mvl/mxv
 BYTE   W01
//  #08 //029   ----------------------------------------
 BYTE   VOL   31*PokemonRangerGuardianSignsRidingonaLegendaryBeastSme_mvl/mxv
 BYTE   W01
 BYTE   VOL   25*PokemonRangerGuardianSignsRidingonaLegendaryBeastSme_mvl/mxv
 BYTE   W01
 BYTE   VOL   22*PokemonRangerGuardianSignsRidingonaLegendaryBeastSme_mvl/mxv
 BYTE   W01
 BYTE   VOL   18*PokemonRangerGuardianSignsRidingonaLegendaryBeastSme_mvl/mxv
 BYTE   W01
 BYTE   VOL   10*PokemonRangerGuardianSignsRidingonaLegendaryBeastSme_mvl/mxv
 BYTE   W01
 BYTE   VOL   4*PokemonRangerGuardianSignsRidingonaLegendaryBeastSme_mvl/mxv
 BYTE   W01
 BYTE   VOL   0*PokemonRangerGuardianSignsRidingonaLegendaryBeastSme_mvl/mxv
 BYTE   W28
 BYTE   N36  Bn2  v076
 BYTE   W01
 BYTE   VOL   33*PokemonRangerGuardianSignsRidingonaLegendaryBeastSme_mvl/mxv
 BYTE   W01
 BYTE   VOL   42*PokemonRangerGuardianSignsRidingonaLegendaryBeastSme_mvl/mxv
 BYTE   W01
 BYTE   VOL   49*PokemonRangerGuardianSignsRidingonaLegendaryBeastSme_mvl/mxv
 BYTE   W01
 BYTE   VOL   51*PokemonRangerGuardianSignsRidingonaLegendaryBeastSme_mvl/mxv
 BYTE   W17
 BYTE   VOL   50*PokemonRangerGuardianSignsRidingonaLegendaryBeastSme_mvl/mxv
 BYTE   W02
 BYTE   VOL   49*PokemonRangerGuardianSignsRidingonaLegendaryBeastSme_mvl/mxv
 BYTE   W03
 BYTE   VOL   48*PokemonRangerGuardianSignsRidingonaLegendaryBeastSme_mvl/mxv
 BYTE   W01
 BYTE   VOL   47*PokemonRangerGuardianSignsRidingonaLegendaryBeastSme_mvl/mxv
 BYTE   W01
 BYTE   VOL   46*PokemonRangerGuardianSignsRidingonaLegendaryBeastSme_mvl/mxv
 BYTE   W01
 BYTE   VOL   45*PokemonRangerGuardianSignsRidingonaLegendaryBeastSme_mvl/mxv
 BYTE   W02
 BYTE   VOL   43*PokemonRangerGuardianSignsRidingonaLegendaryBeastSme_mvl/mxv
 BYTE   W01
 BYTE   VOL   41*PokemonRangerGuardianSignsRidingonaLegendaryBeastSme_mvl/mxv
 BYTE   W01
 BYTE   VOL   39*PokemonRangerGuardianSignsRidingonaLegendaryBeastSme_mvl/mxv
 BYTE   W01
 BYTE   VOL   34*PokemonRangerGuardianSignsRidingonaLegendaryBeastSme_mvl/mxv
 BYTE   W01
 BYTE   VOL   30*PokemonRangerGuardianSignsRidingonaLegendaryBeastSme_mvl/mxv
 BYTE   W01
 BYTE   VOL   24*PokemonRangerGuardianSignsRidingonaLegendaryBeastSme_mvl/mxv
 BYTE   N12  An2  v088
 BYTE   W01
 BYTE   VOL   0*PokemonRangerGuardianSignsRidingonaLegendaryBeastSme_mvl/mxv
 BYTE   W01
 BYTE   VOL   51*PokemonRangerGuardianSignsRidingonaLegendaryBeastSme_mvl/mxv
 BYTE   W15
 BYTE   VOL   50*PokemonRangerGuardianSignsRidingonaLegendaryBeastSme_mvl/mxv
 BYTE   W03
 BYTE   VOL   49*PokemonRangerGuardianSignsRidingonaLegendaryBeastSme_mvl/mxv
 BYTE   W03
 BYTE   VOL   48*PokemonRangerGuardianSignsRidingonaLegendaryBeastSme_mvl/mxv
 BYTE   W02
 BYTE   VOL   47*PokemonRangerGuardianSignsRidingonaLegendaryBeastSme_mvl/mxv
 BYTE   W01
//  #08 //030   ----------------------------------------
 BYTE   VOL   46*PokemonRangerGuardianSignsRidingonaLegendaryBeastSme_mvl/mxv
 BYTE   W01
 BYTE   VOL   45*PokemonRangerGuardianSignsRidingonaLegendaryBeastSme_mvl/mxv
 BYTE   W01
 BYTE   VOL   44*PokemonRangerGuardianSignsRidingonaLegendaryBeastSme_mvl/mxv
 BYTE   W01
 BYTE   VOL   43*PokemonRangerGuardianSignsRidingonaLegendaryBeastSme_mvl/mxv
 BYTE   W01
 BYTE   VOL   42*PokemonRangerGuardianSignsRidingonaLegendaryBeastSme_mvl/mxv
 BYTE   W01
 BYTE   VOL   39*PokemonRangerGuardianSignsRidingonaLegendaryBeastSme_mvl/mxv
 BYTE   W01
 BYTE   VOL   38*PokemonRangerGuardianSignsRidingonaLegendaryBeastSme_mvl/mxv
 BYTE   W01
 BYTE   VOL   35*PokemonRangerGuardianSignsRidingonaLegendaryBeastSme_mvl/mxv
 BYTE   W01
 BYTE   VOL   29*PokemonRangerGuardianSignsRidingonaLegendaryBeastSme_mvl/mxv
 BYTE   W01
 BYTE   VOL   24*PokemonRangerGuardianSignsRidingonaLegendaryBeastSme_mvl/mxv
 BYTE   W01
 BYTE   VOL   17*PokemonRangerGuardianSignsRidingonaLegendaryBeastSme_mvl/mxv
 BYTE   W01
 BYTE   VOL   0*PokemonRangerGuardianSignsRidingonaLegendaryBeastSme_mvl/mxv
 BYTE   W01
 BYTE   TIE  Cn3  v092
 BYTE   W01
 BYTE   VOL   35*PokemonRangerGuardianSignsRidingonaLegendaryBeastSme_mvl/mxv
 BYTE   W01
 BYTE   VOL   38*PokemonRangerGuardianSignsRidingonaLegendaryBeastSme_mvl/mxv
 BYTE   W01
 BYTE   VOL   40*PokemonRangerGuardianSignsRidingonaLegendaryBeastSme_mvl/mxv
 BYTE   W01
 BYTE   VOL   43*PokemonRangerGuardianSignsRidingonaLegendaryBeastSme_mvl/mxv
 BYTE   W02
 BYTE   VOL   44*PokemonRangerGuardianSignsRidingonaLegendaryBeastSme_mvl/mxv
 BYTE   W24
 BYTE   W03
 BYTE   VOL   43*PokemonRangerGuardianSignsRidingonaLegendaryBeastSme_mvl/mxv
 BYTE   W06
 BYTE   VOL   42*PokemonRangerGuardianSignsRidingonaLegendaryBeastSme_mvl/mxv
 BYTE   W03
 BYTE   VOL   41*PokemonRangerGuardianSignsRidingonaLegendaryBeastSme_mvl/mxv
 BYTE   W04
 BYTE   VOL   40*PokemonRangerGuardianSignsRidingonaLegendaryBeastSme_mvl/mxv
 BYTE   W02
 BYTE   VOL   39*PokemonRangerGuardianSignsRidingonaLegendaryBeastSme_mvl/mxv
 BYTE   W04
 BYTE   VOL   38*PokemonRangerGuardianSignsRidingonaLegendaryBeastSme_mvl/mxv
 BYTE   W02
 BYTE   VOL   37*PokemonRangerGuardianSignsRidingonaLegendaryBeastSme_mvl/mxv
 BYTE   W01
 BYTE   VOL   36*PokemonRangerGuardianSignsRidingonaLegendaryBeastSme_mvl/mxv
 BYTE   W02
 BYTE   VOL   35*PokemonRangerGuardianSignsRidingonaLegendaryBeastSme_mvl/mxv
 BYTE   W03
 BYTE   VOL   33*PokemonRangerGuardianSignsRidingonaLegendaryBeastSme_mvl/mxv
 BYTE   W01
 BYTE   VOL   32*PokemonRangerGuardianSignsRidingonaLegendaryBeastSme_mvl/mxv
 BYTE   W02
 BYTE   VOL   31*PokemonRangerGuardianSignsRidingonaLegendaryBeastSme_mvl/mxv
 BYTE   W01
 BYTE   VOL   30*PokemonRangerGuardianSignsRidingonaLegendaryBeastSme_mvl/mxv
 BYTE   W02
 BYTE   VOL   28*PokemonRangerGuardianSignsRidingonaLegendaryBeastSme_mvl/mxv
 BYTE   W01
 BYTE   VOL   26*PokemonRangerGuardianSignsRidingonaLegendaryBeastSme_mvl/mxv
 BYTE   W02
 BYTE   VOL   24*PokemonRangerGuardianSignsRidingonaLegendaryBeastSme_mvl/mxv
 BYTE   W05
 BYTE   VOL   25*PokemonRangerGuardianSignsRidingonaLegendaryBeastSme_mvl/mxv
 BYTE   W03
 BYTE   VOL   26*PokemonRangerGuardianSignsRidingonaLegendaryBeastSme_mvl/mxv
 BYTE   W01
 BYTE   VOL   27*PokemonRangerGuardianSignsRidingonaLegendaryBeastSme_mvl/mxv
 BYTE   W02
 BYTE   VOL   28*PokemonRangerGuardianSignsRidingonaLegendaryBeastSme_mvl/mxv
 BYTE   W01
 BYTE   VOL   29*PokemonRangerGuardianSignsRidingonaLegendaryBeastSme_mvl/mxv
 BYTE   W03
//  #08 //031   ----------------------------------------
 BYTE   VOL   31*PokemonRangerGuardianSignsRidingonaLegendaryBeastSme_mvl/mxv
 BYTE   W02
 BYTE   VOL   32*PokemonRangerGuardianSignsRidingonaLegendaryBeastSme_mvl/mxv
 BYTE   W01
 BYTE   VOL   33*PokemonRangerGuardianSignsRidingonaLegendaryBeastSme_mvl/mxv
 BYTE   W02
 BYTE   VOL   35*PokemonRangerGuardianSignsRidingonaLegendaryBeastSme_mvl/mxv
 BYTE   W01
 BYTE   VOL   37*PokemonRangerGuardianSignsRidingonaLegendaryBeastSme_mvl/mxv
 BYTE   W02
 BYTE   VOL   40*PokemonRangerGuardianSignsRidingonaLegendaryBeastSme_mvl/mxv
 BYTE   W01
 BYTE   VOL   43*PokemonRangerGuardianSignsRidingonaLegendaryBeastSme_mvl/mxv
 BYTE   W02
 BYTE   VOL   51*PokemonRangerGuardianSignsRidingonaLegendaryBeastSme_mvl/mxv
 BYTE   W10
 BYTE   EOT
 BYTE   W15
 BYTE   N32  Bn2  v092  gtp3
 BYTE   W36
 BYTE   Cs3  v088
 BYTE   W24
//  #08 //032   ----------------------------------------
 BYTE   W12
 BYTE   N14  Ds3
 BYTE   W24
 BYTE   W02
 BYTE   N02  En3  v067
 BYTE   W02
 BYTE   Fn3  v068
 BYTE   W02
 BYTE   Gn3  v075
 BYTE   W02
 BYTE   N04  An3  v084
 BYTE   W05
 BYTE   N68  Bn3  v066  gtp1
 BYTE   W44
 BYTE   W03
//  #08 //033   ----------------------------------------
 BYTE   W80
 BYTE   W03
 BYTE   N32  Bn1  v082  gtp3
 BYTE   W13
//  #08 //034   ----------------------------------------
 BYTE   W20
 BYTE   N05  Cn2  v066
 BYTE   W04
 BYTE   N04  Dn2  v077
 BYTE   W02
 BYTE   En2  v067
 BYTE   W02
 BYTE   Fn2  v068
 BYTE   W03
 BYTE   N03  Gn2  v075
 BYTE   W02
 BYTE   N05  An2  v084
 BYTE   W03
 BYTE   TIE  Bn2  v071
 BYTE   W60
//  #08 //035   ----------------------------------------
 BYTE   W96
//  #08 //036   ----------------------------------------
 BYTE   W90
 BYTE   W01
 BYTE   VOL   50*PokemonRangerGuardianSignsRidingonaLegendaryBeastSme_mvl/mxv
 BYTE   W05
//  #08 //037   ----------------------------------------
 BYTE   W01
 BYTE   VOL   49*PokemonRangerGuardianSignsRidingonaLegendaryBeastSme_mvl/mxv
 BYTE   W06
 BYTE   VOL   48*PokemonRangerGuardianSignsRidingonaLegendaryBeastSme_mvl/mxv
 BYTE   W03
 BYTE   VOL   47*PokemonRangerGuardianSignsRidingonaLegendaryBeastSme_mvl/mxv
 BYTE   W04
 BYTE   VOL   46*PokemonRangerGuardianSignsRidingonaLegendaryBeastSme_mvl/mxv
 BYTE   W02
 BYTE   VOL   45*PokemonRangerGuardianSignsRidingonaLegendaryBeastSme_mvl/mxv
 BYTE   W03
 BYTE   VOL   44*PokemonRangerGuardianSignsRidingonaLegendaryBeastSme_mvl/mxv
 BYTE   W01
 BYTE   VOL   43*PokemonRangerGuardianSignsRidingonaLegendaryBeastSme_mvl/mxv
 BYTE   W02
 BYTE   VOL   41*PokemonRangerGuardianSignsRidingonaLegendaryBeastSme_mvl/mxv
 BYTE   W01
 BYTE   VOL   40*PokemonRangerGuardianSignsRidingonaLegendaryBeastSme_mvl/mxv
 BYTE   W02
 BYTE   VOL   39*PokemonRangerGuardianSignsRidingonaLegendaryBeastSme_mvl/mxv
 BYTE   W01
 BYTE   VOL   37*PokemonRangerGuardianSignsRidingonaLegendaryBeastSme_mvl/mxv
 BYTE   W02
 BYTE   VOL   35*PokemonRangerGuardianSignsRidingonaLegendaryBeastSme_mvl/mxv
 BYTE   W01
 BYTE   VOL   31*PokemonRangerGuardianSignsRidingonaLegendaryBeastSme_mvl/mxv
 BYTE   W02
 BYTE   VOL   28*PokemonRangerGuardianSignsRidingonaLegendaryBeastSme_mvl/mxv
 BYTE   W01
 BYTE   VOL   22*PokemonRangerGuardianSignsRidingonaLegendaryBeastSme_mvl/mxv
 BYTE   W02
 BYTE   EOT
 BYTE   VOL   14*PokemonRangerGuardianSignsRidingonaLegendaryBeastSme_mvl/mxv
 BYTE   W01
 BYTE   VOL   2*PokemonRangerGuardianSignsRidingonaLegendaryBeastSme_mvl/mxv
 BYTE   W01
 BYTE   VOL   3*PokemonRangerGuardianSignsRidingonaLegendaryBeastSme_mvl/mxv
 BYTE   W01
 BYTE   VOL   7*PokemonRangerGuardianSignsRidingonaLegendaryBeastSme_mvl/mxv
 BYTE   W01
 BYTE   VOL   10*PokemonRangerGuardianSignsRidingonaLegendaryBeastSme_mvl/mxv
 BYTE   W01
 BYTE   VOL   17*PokemonRangerGuardianSignsRidingonaLegendaryBeastSme_mvl/mxv
 BYTE   W01
 BYTE   VOL   20*PokemonRangerGuardianSignsRidingonaLegendaryBeastSme_mvl/mxv
 BYTE   W01
 BYTE   VOL   24*PokemonRangerGuardianSignsRidingonaLegendaryBeastSme_mvl/mxv
 BYTE   W01
 BYTE   VOL   31*PokemonRangerGuardianSignsRidingonaLegendaryBeastSme_mvl/mxv
 BYTE   W01
 BYTE   VOL   34*PokemonRangerGuardianSignsRidingonaLegendaryBeastSme_mvl/mxv
 BYTE   W01
 BYTE   VOL   37*PokemonRangerGuardianSignsRidingonaLegendaryBeastSme_mvl/mxv
 BYTE   W01
 BYTE   VOL   45*PokemonRangerGuardianSignsRidingonaLegendaryBeastSme_mvl/mxv
 BYTE   W01
 BYTE   VOL   48*PokemonRangerGuardianSignsRidingonaLegendaryBeastSme_mvl/mxv
 BYTE   W01
 BYTE   VOL   51*PokemonRangerGuardianSignsRidingonaLegendaryBeastSme_mvl/mxv
 BYTE   W36
 BYTE   N32  Bn2  v078  gtp3
 BYTE   W13
//  #08 //038   ----------------------------------------
 BYTE   W20
 BYTE   N05  Cn3  v066
 BYTE   W04
 BYTE   N04  Dn3  v077
 BYTE   W02
 BYTE   En3  v067
 BYTE   W02
 BYTE   Fn3  v068
 BYTE   W03
 BYTE   N03  Gn3  v075
 BYTE   W02
 BYTE   N05  An3  v084
 BYTE   W03
 BYTE   TIE  Bn3  v062
 BYTE   W60
//  #08 //039   ----------------------------------------
 BYTE   W96
//  #08 //040   ----------------------------------------
 BYTE   W92
 BYTE   W02
 BYTE   EOT
 BYTE   W02
//  #08 //041   ----------------------------------------
 BYTE   W24
 BYTE   GoTo
  POIN2 Label_01007308
 BYTE   FINE

//**************** Track 9 (Midi-Chn.8) ****************//

PokemonRangerGuardianSignsRidingonaLegendaryBeastSme_009:
//  #09 //000   ----------------------------------------
 BYTE   KEYSH   PokemonRangerGuardianSignsRidingonaLegendaryBeastSme_key+0
 BYTE   VOICE   40
 BYTE   PAN   c_v-42
 BYTE   VOL   0*PokemonRangerGuardianSignsRidingonaLegendaryBeastSme_mvl/mxv
 BYTE   W36
 BYTE   W02
 BYTE   PAN   c_v+51
 BYTE   W02
 BYTE   PAN   c_v+50
 BYTE   W02
 BYTE   PAN   c_v+49
 BYTE   W02
 BYTE   PAN   c_v+48
 BYTE   VOL   1*PokemonRangerGuardianSignsRidingonaLegendaryBeastSme_mvl/mxv
 BYTE   W03
 BYTE   PAN   c_v+47
 BYTE   W02
 BYTE   PAN   c_v+46
 BYTE   W02
 BYTE   PAN   c_v+45
 BYTE   W03
 BYTE   PAN   c_v+44
 BYTE   W01
 BYTE   VOL   2*PokemonRangerGuardianSignsRidingonaLegendaryBeastSme_mvl/mxv
 BYTE   W01
 BYTE   PAN   c_v+43
 BYTE   W02
 BYTE   PAN   c_v+42
 BYTE   W02
 BYTE   PAN   c_v+41
 BYTE   W03
 BYTE   VOL   3*PokemonRangerGuardianSignsRidingonaLegendaryBeastSme_mvl/mxv
 BYTE   PAN   c_v+40
 BYTE   W02
 BYTE   PAN   c_v+39
 BYTE   W02
 BYTE   PAN   c_v+38
 BYTE   W02
 BYTE   PAN   c_v+37
 BYTE   W01
 BYTE   VOL   4*PokemonRangerGuardianSignsRidingonaLegendaryBeastSme_mvl/mxv
 BYTE   W02
 BYTE   PAN   c_v+36
 BYTE   W02
 BYTE   PAN   c_v+35
 BYTE   W01
 BYTE   VOL   5*PokemonRangerGuardianSignsRidingonaLegendaryBeastSme_mvl/mxv
 BYTE   W01
 BYTE   PAN   c_v+34
 BYTE   W02
 BYTE   PAN   c_v+33
 BYTE   W01
 BYTE   VOL   6*PokemonRangerGuardianSignsRidingonaLegendaryBeastSme_mvl/mxv
 BYTE   W02
 BYTE   PAN   c_v+32
 BYTE   W02
 BYTE   PAN   c_v+31
 BYTE   W01
 BYTE   VOL   7*PokemonRangerGuardianSignsRidingonaLegendaryBeastSme_mvl/mxv
 BYTE   W01
 BYTE   PAN   c_v+30
 BYTE   W02
 BYTE   VOL   8*PokemonRangerGuardianSignsRidingonaLegendaryBeastSme_mvl/mxv
 BYTE   PAN   c_v+29
 BYTE   W01
 BYTE   VOL   9*PokemonRangerGuardianSignsRidingonaLegendaryBeastSme_mvl/mxv
 BYTE   W02
 BYTE   PAN   c_v+28
 BYTE   W01
 BYTE   VOL   10*PokemonRangerGuardianSignsRidingonaLegendaryBeastSme_mvl/mxv
 BYTE   W01
 BYTE   PAN   c_v+27
 BYTE   W02
 BYTE   VOL   11*PokemonRangerGuardianSignsRidingonaLegendaryBeastSme_mvl/mxv
 BYTE   PAN   c_v+26
 BYTE   W02
//  #09 //001   ----------------------------------------
 BYTE   VOL   12*PokemonRangerGuardianSignsRidingonaLegendaryBeastSme_mvl/mxv
 BYTE   PAN   c_v+25
 BYTE   W01
 BYTE   VOL   13*PokemonRangerGuardianSignsRidingonaLegendaryBeastSme_mvl/mxv
 BYTE   W02
 BYTE   VOL   14*PokemonRangerGuardianSignsRidingonaLegendaryBeastSme_mvl/mxv
 BYTE   PAN   c_v+24
 BYTE   W01
 BYTE   VOL   15*PokemonRangerGuardianSignsRidingonaLegendaryBeastSme_mvl/mxv
 BYTE   W01
 BYTE   PAN   c_v+23
 BYTE   W01
 BYTE   VOL   17*PokemonRangerGuardianSignsRidingonaLegendaryBeastSme_mvl/mxv
 BYTE   W01
 BYTE   VOL   18*PokemonRangerGuardianSignsRidingonaLegendaryBeastSme_mvl/mxv
 BYTE   PAN   c_v+22
 BYTE   W02
 BYTE   VOL   19*PokemonRangerGuardianSignsRidingonaLegendaryBeastSme_mvl/mxv
 BYTE   W01
 BYTE   PAN   c_v+21
 BYTE   VOL   20*PokemonRangerGuardianSignsRidingonaLegendaryBeastSme_mvl/mxv
 BYTE   W02
 BYTE   VOL   21*PokemonRangerGuardianSignsRidingonaLegendaryBeastSme_mvl/mxv
 BYTE   PAN   c_v+20
 BYTE   W01
 BYTE   VOL   22*PokemonRangerGuardianSignsRidingonaLegendaryBeastSme_mvl/mxv
 BYTE   W01
 BYTE   PAN   c_v+19
 BYTE   W01
 BYTE   VOL   23*PokemonRangerGuardianSignsRidingonaLegendaryBeastSme_mvl/mxv
 BYTE   W01
 BYTE   VOL   24*PokemonRangerGuardianSignsRidingonaLegendaryBeastSme_mvl/mxv
 BYTE   PAN   c_v+17
 BYTE   W01
 BYTE   PAN   c_v+24
 BYTE   W01
 BYTE   VOL   26*PokemonRangerGuardianSignsRidingonaLegendaryBeastSme_mvl/mxv
 BYTE   PAN   c_v+28
 BYTE   W01
 BYTE   VOL   27*PokemonRangerGuardianSignsRidingonaLegendaryBeastSme_mvl/mxv
 BYTE   PAN   c_v+36
 BYTE   W01
 BYTE   PAN   c_v+43
 BYTE   W01
 BYTE   PAN   c_v+48
 BYTE   W01
 BYTE   PAN   c_v+55
 BYTE   W01
 BYTE   PAN   c_v+62
 BYTE   W01
Label_01007755:
 BYTE   PAN   c_v+63
 BYTE   VOL   25*PokemonRangerGuardianSignsRidingonaLegendaryBeastSme_mvl/mxv
 BYTE   W01
 BYTE   VOL   24*PokemonRangerGuardianSignsRidingonaLegendaryBeastSme_mvl/mxv
 BYTE   W02
 BYTE   VOL   22*PokemonRangerGuardianSignsRidingonaLegendaryBeastSme_mvl/mxv
 BYTE   W01
 BYTE   VOL   21*PokemonRangerGuardianSignsRidingonaLegendaryBeastSme_mvl/mxv
 BYTE   W01
 BYTE   VOL   20*PokemonRangerGuardianSignsRidingonaLegendaryBeastSme_mvl/mxv
 BYTE   W01
 BYTE   VOL   18*PokemonRangerGuardianSignsRidingonaLegendaryBeastSme_mvl/mxv
 BYTE   W01
 BYTE   VOL   17*PokemonRangerGuardianSignsRidingonaLegendaryBeastSme_mvl/mxv
 BYTE   W05
 BYTE   PAN   c_v+59
 BYTE   W01
 BYTE   PAN   c_v+53
 BYTE   W01
 BYTE   PAN   c_v+48
 BYTE   W01
 BYTE   PAN   c_v+42
 BYTE   W01
 BYTE   VOL   18*PokemonRangerGuardianSignsRidingonaLegendaryBeastSme_mvl/mxv
 BYTE   PAN   c_v+35
 BYTE   W01
 BYTE   PAN   c_v+31
 BYTE   W01
 BYTE   PAN   c_v+25
 BYTE   W01
 BYTE   PAN   c_v+18
 BYTE   W01
 BYTE   PAN   c_v+17
 BYTE   W08
 BYTE   VOL   19*PokemonRangerGuardianSignsRidingonaLegendaryBeastSme_mvl/mxv
 BYTE   W09
 BYTE   VOL   20*PokemonRangerGuardianSignsRidingonaLegendaryBeastSme_mvl/mxv
 BYTE   W09
 BYTE   VOL   21*PokemonRangerGuardianSignsRidingonaLegendaryBeastSme_mvl/mxv
 BYTE   W09
 BYTE   VOL   22*PokemonRangerGuardianSignsRidingonaLegendaryBeastSme_mvl/mxv
 BYTE   W09
 BYTE   VOL   23*PokemonRangerGuardianSignsRidingonaLegendaryBeastSme_mvl/mxv
 BYTE   W08
//  #09 //002   ----------------------------------------
 BYTE   W04
 BYTE   VOL   24*PokemonRangerGuardianSignsRidingonaLegendaryBeastSme_mvl/mxv
 BYTE   W09
 BYTE   VOL   25*PokemonRangerGuardianSignsRidingonaLegendaryBeastSme_mvl/mxv
 BYTE   W09
 BYTE   VOL   26*PokemonRangerGuardianSignsRidingonaLegendaryBeastSme_mvl/mxv
 BYTE   W09
 BYTE   VOL   27*PokemonRangerGuardianSignsRidingonaLegendaryBeastSme_mvl/mxv
 BYTE   W64
 BYTE   W01
//  #09 //003   ----------------------------------------
 BYTE   W96
//  #09 //004   ----------------------------------------
 BYTE   W96
//  #09 //005   ----------------------------------------
 BYTE   W96
//  #09 //006   ----------------------------------------
 BYTE   W96
//  #09 //007   ----------------------------------------
 BYTE   W96
//  #09 //008   ----------------------------------------
 BYTE   W96
//  #09 //009   ----------------------------------------
 BYTE   W96
//  #09 //010   ----------------------------------------
 BYTE   W96
//  #09 //011   ----------------------------------------
 BYTE   W96
//  #09 //012   ----------------------------------------
 BYTE   W96
//  #09 //013   ----------------------------------------
 BYTE   W96
//  #09 //014   ----------------------------------------
 BYTE   W96
//  #09 //015   ----------------------------------------
 BYTE   W96
//  #09 //016   ----------------------------------------
 BYTE   W96
//  #09 //017   ----------------------------------------
 BYTE   W96
//  #09 //018   ----------------------------------------
 BYTE   W96
//  #09 //019   ----------------------------------------
 BYTE   W24
 BYTE   N44  Fs4  v106
 BYTE   W48
 BYTE   N32  En4  v100  gtp3
 BYTE   W24
//  #09 //020   ----------------------------------------
Label_010077AB:
 BYTE   W12
 BYTE   N28  Bn3  v102  gtp1
 BYTE   W32
 BYTE   W02
 BYTE   N32  Gn3  v109  gtp3
 BYTE   W36
 BYTE   W02
 BYTE   N20  Fs3  v098
 BYTE   W12
 BYTE   PEND 
//  #09 //021   ----------------------------------------
 BYTE   W12
 BYTE   N23  En3  v105
 BYTE   W24
 BYTE   N32  Dn4  v085  gtp3
 BYTE   W36
 BYTE   N16  Cn4  v097
 BYTE   W24
//  #09 //022   ----------------------------------------
 BYTE   W12
 BYTE   TIE  Fs3  v101
 BYTE   W84
//  #09 //023   ----------------------------------------
 BYTE   W21
 BYTE   EOT
 BYTE   W72
 BYTE   W03
//  #09 //024   ----------------------------------------
 BYTE   W96
//  #09 //025   ----------------------------------------
 BYTE   W96
//  #09 //026   ----------------------------------------
 BYTE   W24
 BYTE   W02
 BYTE   VOL   22*PokemonRangerGuardianSignsRidingonaLegendaryBeastSme_mvl/mxv
 BYTE   W01
 BYTE   VOL   11*PokemonRangerGuardianSignsRidingonaLegendaryBeastSme_mvl/mxv
 BYTE   W01
 BYTE   VOL   7*PokemonRangerGuardianSignsRidingonaLegendaryBeastSme_mvl/mxv
 BYTE   W08
 BYTE   N80  Bn4  v109  gtp3
 BYTE   W07
 BYTE   VOL   8*PokemonRangerGuardianSignsRidingonaLegendaryBeastSme_mvl/mxv
 BYTE   W16
 BYTE   VOL   9*PokemonRangerGuardianSignsRidingonaLegendaryBeastSme_mvl/mxv
 BYTE   W14
 BYTE   VOL   10*PokemonRangerGuardianSignsRidingonaLegendaryBeastSme_mvl/mxv
 BYTE   W09
 BYTE   VOL   11*PokemonRangerGuardianSignsRidingonaLegendaryBeastSme_mvl/mxv
 BYTE   W04
 BYTE   VOL   12*PokemonRangerGuardianSignsRidingonaLegendaryBeastSme_mvl/mxv
 BYTE   W05
 BYTE   VOL   13*PokemonRangerGuardianSignsRidingonaLegendaryBeastSme_mvl/mxv
 BYTE   W03
 BYTE   VOL   14*PokemonRangerGuardianSignsRidingonaLegendaryBeastSme_mvl/mxv
 BYTE   W02
//  #09 //027   ----------------------------------------
 BYTE   W01
 BYTE   VOL   15*PokemonRangerGuardianSignsRidingonaLegendaryBeastSme_mvl/mxv
 BYTE   W01
 BYTE   VOL   16*PokemonRangerGuardianSignsRidingonaLegendaryBeastSme_mvl/mxv
 BYTE   W02
 BYTE   VOL   17*PokemonRangerGuardianSignsRidingonaLegendaryBeastSme_mvl/mxv
 BYTE   W01
 BYTE   VOL   18*PokemonRangerGuardianSignsRidingonaLegendaryBeastSme_mvl/mxv
 BYTE   W02
 BYTE   VOL   20*PokemonRangerGuardianSignsRidingonaLegendaryBeastSme_mvl/mxv
 BYTE   W01
 BYTE   VOL   21*PokemonRangerGuardianSignsRidingonaLegendaryBeastSme_mvl/mxv
 BYTE   W02
 BYTE   VOL   24*PokemonRangerGuardianSignsRidingonaLegendaryBeastSme_mvl/mxv
 BYTE   W01
 BYTE   VOL   27*PokemonRangerGuardianSignsRidingonaLegendaryBeastSme_mvl/mxv
 BYTE   W13
 BYTE   N44  Fs4  v106
 BYTE   W48
 BYTE   N32  En4  v100  gtp3
 BYTE   W24
//  #09 //028   ----------------------------------------
 BYTE   PATT
  POIN2 Label_010077AB
//  #09 //029   ----------------------------------------
 BYTE   W12
 BYTE   N23  Gn3  v105
 BYTE   W24
 BYTE   N32  Dn4  v085  gtp3
 BYTE   W36
 BYTE   N32  En4  v097  gtp2
 BYTE   W24
//  #09 //030   ----------------------------------------
 BYTE   W12
 BYTE   TIE  Gn4  v087
 BYTE   W84
//  #09 //031   ----------------------------------------
 BYTE   W21
 BYTE   EOT
 BYTE   W15
 BYTE   N92  En4  v090  gtp2
 BYTE   W60
//  #09 //032   ----------------------------------------
 BYTE   W48
 BYTE   N60  Ds4  v082  gtp3
 BYTE   W48
//  #09 //033   ----------------------------------------
 BYTE   W32
 BYTE   W01
 BYTE   N06  En5  v066
 BYTE   W06
 BYTE   Bn4
 BYTE   W06
 BYTE   Gn4
 BYTE   W06
 BYTE   En4
 BYTE   W06
 BYTE   Bn4
 BYTE   W06
 BYTE   Gn4
 BYTE   W06
 BYTE   En4
 BYTE   W06
 BYTE   Bn3
 BYTE   W06
 BYTE   En5
 BYTE   W06
 BYTE   Bn4
 BYTE   W06
 BYTE   Gn4
 BYTE   W03
//  #09 //034   ----------------------------------------
Label_0100784E:
 BYTE   W03
 BYTE   N06  En4  v066
 BYTE   W06
 BYTE   Bn4
 BYTE   W06
 BYTE   Gn4
 BYTE   W06
 BYTE   En4
 BYTE   W06
 BYTE   Bn3
 BYTE   W06
 BYTE   En5
 BYTE   W06
 BYTE   Bn4
 BYTE   W06
 BYTE   Gn4
 BYTE   W06
 BYTE   En4
 BYTE   W06
 BYTE   Bn4
 BYTE   W06
 BYTE   Gn4
 BYTE   W06
 BYTE   En4
 BYTE   W06
 BYTE   Bn3
 BYTE   W06
 BYTE   En5
 BYTE   W06
 BYTE   Bn4
 BYTE   W06
 BYTE   Gn4
 BYTE   W03
 BYTE   PEND 
//  #09 //035   ----------------------------------------
 BYTE   PATT
  POIN2 Label_0100784E
//  #09 //036   ----------------------------------------
 BYTE   PATT
  POIN2 Label_0100784E
//  #09 //037   ----------------------------------------
 BYTE   W03
 BYTE   N06  En4  v066
 BYTE   W06
 BYTE   Bn4
 BYTE   W06
 BYTE   Gn4
 BYTE   W06
 BYTE   En4
 BYTE   W06
 BYTE   Bn3
 BYTE   W06
 BYTE   En5
 BYTE   W06
 BYTE   Bn4
 BYTE   W06
 BYTE   Gn4
 BYTE   W06
 BYTE   En4
 BYTE   W06
 BYTE   Bn4
 BYTE   W06
 BYTE   Gn4
 BYTE   W06
 BYTE   En4
 BYTE   W06
 BYTE   Bn3
 BYTE   W06
 BYTE   En5
 BYTE   W06
 BYTE   N05  Bn4
 BYTE   W06
 BYTE   Gn4
 BYTE   W03
//  #09 //038   ----------------------------------------
 BYTE   PATT
  POIN2 Label_0100784E
//  #09 //039   ----------------------------------------
 BYTE   W03
 BYTE   N06  En4  v066
 BYTE   W06
 BYTE   Bn4
 BYTE   W06
 BYTE   Gn4
 BYTE   W06
 BYTE   En4
 BYTE   W06
 BYTE   Bn3
 BYTE   W06
 BYTE   N05  En5
 BYTE   W06
 BYTE   Bn4
 BYTE   W06
 BYTE   Gn4
 BYTE   W06
 BYTE   En4
 BYTE   W06
 BYTE   Bn4
 BYTE   W06
 BYTE   Gn4
 BYTE   W06
 BYTE   En4
 BYTE   W06
 BYTE   Bn3
 BYTE   W06
 BYTE   En5
 BYTE   W06
 BYTE   Bn4
 BYTE   W06
 BYTE   Gn4
 BYTE   W03
//  #09 //040   ----------------------------------------
 BYTE   W03
 BYTE   En4
 BYTE   W06
 BYTE   Bn4
 BYTE   W06
 BYTE   Gn4
 BYTE   W06
 BYTE   En4
 BYTE   W06
 BYTE   Bn3
 BYTE   W06
 BYTE   En5
 BYTE   W06
 BYTE   Bn4
 BYTE   W06
 BYTE   Gn4
 BYTE   W06
 BYTE   En4
 BYTE   W06
 BYTE   Bn4
 BYTE   W06
 BYTE   Gn4
 BYTE   W06
 BYTE   En4
 BYTE   W06
 BYTE   Bn3
 BYTE   W06
 BYTE   En5
 BYTE   W06
 BYTE   Bn4
 BYTE   W06
 BYTE   Gn4
 BYTE   W03
//  #09 //041   ----------------------------------------
 BYTE   W03
 BYTE   N06  En4
 BYTE   W06
 BYTE   Bn4
 BYTE   W06
 BYTE   Gn4
 BYTE   W06
 BYTE   N02  En4
 BYTE   W03
 BYTE   VOL   25*PokemonRangerGuardianSignsRidingonaLegendaryBeastSme_mvl/mxv
 BYTE   PAN   c_v+63
 BYTE   GoTo
  POIN2 Label_01007755
 BYTE   FINE

//**************** Track 10 (Midi-Chn.9) ****************//

PokemonRangerGuardianSignsRidingonaLegendaryBeastSme_010:
//  #10 //000   ----------------------------------------
 BYTE   KEYSH   PokemonRangerGuardianSignsRidingonaLegendaryBeastSme_key+0
 BYTE   VOICE   73
 BYTE   VOL   68*PokemonRangerGuardianSignsRidingonaLegendaryBeastSme_mvl/mxv
 BYTE   W96
//  #10 //001   ----------------------------------------
 BYTE   W24
Label_01005824:
 BYTE   PAN   c_v-27
 BYTE   W72
//  #10 //002   ----------------------------------------
 BYTE   W96
//  #10 //003   ----------------------------------------
 BYTE   W96
//  #10 //004   ----------------------------------------
 BYTE   W96
//  #10 //005   ----------------------------------------
 BYTE   W96
//  #10 //006   ----------------------------------------
 BYTE   W96
//  #10 //007   ----------------------------------------
 BYTE   W96
//  #10 //008   ----------------------------------------
 BYTE   W12
 BYTE   N05  Bn3  v050
 BYTE   W06
 BYTE   Ds4
 BYTE   W06
 BYTE   Fs4  v057
 BYTE   W06
 BYTE   An4  v067
 BYTE   W06
 BYTE   Bn4  v085
 BYTE   W06
 BYTE   An4
 BYTE   W06
 BYTE   Gn4
 BYTE   W06
 BYTE   Fs4
 BYTE   W06
 BYTE   An4  v081
 BYTE   W06
 BYTE   Gn4
 BYTE   W06
 BYTE   Fs4
 BYTE   W06
 BYTE   En4
 BYTE   W06
 BYTE   Gn4
 BYTE   W06
 BYTE   Fs4
 BYTE   W06
//  #10 //009   ----------------------------------------
 BYTE   En4
 BYTE   W06
 BYTE   Ds4
 BYTE   W06
 BYTE   Fs4  v066
 BYTE   W06
 BYTE   En4
 BYTE   W06
 BYTE   Ds4
 BYTE   W06
 BYTE   Bn3
 BYTE   W06
 BYTE   N06  Cn4
 BYTE   W60
//  #10 //010   ----------------------------------------
 BYTE   W96
//  #10 //011   ----------------------------------------
 BYTE   W96
//  #10 //012   ----------------------------------------
 BYTE   W96
//  #10 //013   ----------------------------------------
 BYTE   W96
//  #10 //014   ----------------------------------------
 BYTE   W96
//  #10 //015   ----------------------------------------
 BYTE   W96
//  #10 //016   ----------------------------------------
 BYTE   W96
//  #10 //017   ----------------------------------------
 BYTE   W96
//  #10 //018   ----------------------------------------
 BYTE   W96
//  #10 //019   ----------------------------------------
 BYTE   W96
//  #10 //020   ----------------------------------------
 BYTE   W96
//  #10 //021   ----------------------------------------
 BYTE   W96
//  #10 //022   ----------------------------------------
 BYTE   W96
//  #10 //023   ----------------------------------------
 BYTE   W36
 BYTE   N32  Cn5  v073  gtp3
 BYTE   W36
 BYTE   N11  Bn4  v067
 BYTE   W24
//  #10 //024   ----------------------------------------
 BYTE   W12
 BYTE   N32  Fs4  v069  gtp3
 BYTE   W36
 BYTE   N32  Bn3  v076  gtp2
 BYTE   W36
 BYTE   N20  Ds4  v065
 BYTE   W12
//  #10 //025   ----------------------------------------
 BYTE   W12
 BYTE   N23  Fs4  v072
 BYTE   W84
//  #10 //026   ----------------------------------------
 BYTE   W96
//  #10 //027   ----------------------------------------
 BYTE   W96
//  #10 //028   ----------------------------------------
 BYTE   W96
//  #10 //029   ----------------------------------------
 BYTE   W96
//  #10 //030   ----------------------------------------
 BYTE   W96
//  #10 //031   ----------------------------------------
 BYTE   W36
 BYTE   N32  Bn4  v073  gtp3
 BYTE   W36
 BYTE   N11  Cs5  v067
 BYTE   W24
//  #10 //032   ----------------------------------------
 BYTE   W12
 BYTE   N32  Ds5  v069  gtp3
 BYTE   W36
 BYTE   N80  Bn4  v076  gtp2
 BYTE   W48
//  #10 //033   ----------------------------------------
 BYTE   W96
//  #10 //034   ----------------------------------------
 BYTE   W96
//  #10 //035   ----------------------------------------
 BYTE   W96
//  #10 //036   ----------------------------------------
 BYTE   W96
//  #10 //037   ----------------------------------------
 BYTE   W96
//  #10 //038   ----------------------------------------
 BYTE   W96
//  #10 //039   ----------------------------------------
 BYTE   W96
//  #10 //040   ----------------------------------------
 BYTE   W96
//  #10 //041   ----------------------------------------
 BYTE   W24
 BYTE   GoTo
  POIN2 Label_01005824
 BYTE   FINE

//**************** Track 11 (Midi-Chn.10) ****************//

PokemonRangerGuardianSignsRidingonaLegendaryBeastSme_011:
//  #11 //000   ----------------------------------------
 BYTE   KEYSH   PokemonRangerGuardianSignsRidingonaLegendaryBeastSme_key+0
 BYTE   VOICE   30
 BYTE   N07  Bn1  v120
 BYTE   PAN   c_v-48
 BYTE   VOL   31*PokemonRangerGuardianSignsRidingonaLegendaryBeastSme_mvl/mxv
 BYTE   N07  En1
 BYTE   W12
 BYTE   N80  Bn0  v115  gtp2
 BYTE   Gn0  v118
 BYTE   W24
 BYTE   N23  Gn2  v127
 BYTE   N23  Bn2  v120
 BYTE   W03
 BYTE   BEND   c_v-1
 BYTE   W01
 BYTE   BEND   c_v+6
 BYTE   W01
 BYTE   BEND   c_v+13
 BYTE   W01
 BYTE   BEND   c_v+26
 BYTE   W01
 BYTE   BEND   c_v+30
 BYTE   W01
 BYTE   BEND   c_v+39
 BYTE   W01
 BYTE   BEND   c_v+43
 BYTE   W01
 BYTE   BEND   c_v+41
 BYTE   W02
 BYTE   BEND   c_v+22
 BYTE   W01
 BYTE   BEND   c_v-1
 BYTE   W10
 BYTE   BEND   c_v+0
 BYTE   W01
 BYTE   N10  An2  v127
 BYTE   N11  Cn3  v105
 BYTE   W02
 BYTE   BEND   c_v+1
 BYTE   W01
 BYTE   BEND   c_v+3
 BYTE   W03
 BYTE   BEND   c_v+2
 BYTE   W01
 BYTE   BEND   c_v+1
 BYTE   W02
 BYTE   BEND   c_v-1
 BYTE   W02
 BYTE   BEND   c_v+0
 BYTE   W02
 BYTE   N15  Bn2  v127
 BYTE   N15  Dn3
 BYTE   W01
 BYTE   BEND   c_v-2
 BYTE   W02
 BYTE   BEND   c_v-5
 BYTE   W03
 BYTE   BEND   c_v-4
 BYTE   W03
 BYTE   BEND   c_v-3
 BYTE   W03
 BYTE   BEND   c_v-7
 BYTE   W01
 BYTE   BEND   c_v-11
 BYTE   W01
 BYTE   BEND   c_v-18
 BYTE   W01
 BYTE   BEND   c_v-11
 BYTE   W01
 BYTE   BEND   c_v+0
 BYTE   W07
//  #11 //001   ----------------------------------------
 BYTE   N07  Dn1
 BYTE   N11  Dn3  v110
 BYTE   N12  Fs3  v127
 BYTE   N07  Fs2
 BYTE   W03
 BYTE   BEND   c_v+1
 BYTE   W05
 BYTE   BEND   c_v+0
 BYTE   W16
Label_01007970:
 BYTE   TIE  En3  v089
 BYTE   TIE  Gn3  v084
 BYTE   W16
 BYTE   VOL   28*PokemonRangerGuardianSignsRidingonaLegendaryBeastSme_mvl/mxv
 BYTE   W15
 BYTE   VOL   31*PokemonRangerGuardianSignsRidingonaLegendaryBeastSme_mvl/mxv
 BYTE   W06
 BYTE   VOL   27*PokemonRangerGuardianSignsRidingonaLegendaryBeastSme_mvl/mxv
 BYTE   W01
 BYTE   VOL   31*PokemonRangerGuardianSignsRidingonaLegendaryBeastSme_mvl/mxv
 BYTE   W09
 BYTE   VOL   30*PokemonRangerGuardianSignsRidingonaLegendaryBeastSme_mvl/mxv
 BYTE   W03
 BYTE   VOL   27*PokemonRangerGuardianSignsRidingonaLegendaryBeastSme_mvl/mxv
 BYTE   W02
 BYTE   VOL   30*PokemonRangerGuardianSignsRidingonaLegendaryBeastSme_mvl/mxv
 BYTE   W09
 BYTE   VOL   29*PokemonRangerGuardianSignsRidingonaLegendaryBeastSme_mvl/mxv
 BYTE   W04
 BYTE   VOL   25*PokemonRangerGuardianSignsRidingonaLegendaryBeastSme_mvl/mxv
 BYTE   W02
 BYTE   VOL   29*PokemonRangerGuardianSignsRidingonaLegendaryBeastSme_mvl/mxv
 BYTE   W03
 BYTE   VOL   28*PokemonRangerGuardianSignsRidingonaLegendaryBeastSme_mvl/mxv
 BYTE   W01
 BYTE   VOL   25*PokemonRangerGuardianSignsRidingonaLegendaryBeastSme_mvl/mxv
 BYTE   W01
//  #11 //002   ----------------------------------------
 BYTE   W01
 BYTE   VOL   28*PokemonRangerGuardianSignsRidingonaLegendaryBeastSme_mvl/mxv
 BYTE   W04
 BYTE   VOL   27*PokemonRangerGuardianSignsRidingonaLegendaryBeastSme_mvl/mxv
 BYTE   W05
 BYTE   VOL   26*PokemonRangerGuardianSignsRidingonaLegendaryBeastSme_mvl/mxv
 BYTE   W04
 BYTE   VOL   25*PokemonRangerGuardianSignsRidingonaLegendaryBeastSme_mvl/mxv
 BYTE   W03
 BYTE   VOL   24*PokemonRangerGuardianSignsRidingonaLegendaryBeastSme_mvl/mxv
 BYTE   W02
 BYTE   VOL   23*PokemonRangerGuardianSignsRidingonaLegendaryBeastSme_mvl/mxv
 BYTE   W03
 BYTE   VOL   22*PokemonRangerGuardianSignsRidingonaLegendaryBeastSme_mvl/mxv
 BYTE   W01
 BYTE   VOL   21*PokemonRangerGuardianSignsRidingonaLegendaryBeastSme_mvl/mxv
 BYTE   W02
 BYTE   VOL   20*PokemonRangerGuardianSignsRidingonaLegendaryBeastSme_mvl/mxv
 BYTE   W01
 BYTE   VOL   19*PokemonRangerGuardianSignsRidingonaLegendaryBeastSme_mvl/mxv
 BYTE   W02
 BYTE   VOL   17*PokemonRangerGuardianSignsRidingonaLegendaryBeastSme_mvl/mxv
 BYTE   W01
 BYTE   VOL   15*PokemonRangerGuardianSignsRidingonaLegendaryBeastSme_mvl/mxv
 BYTE   W02
 BYTE   VOL   13*PokemonRangerGuardianSignsRidingonaLegendaryBeastSme_mvl/mxv
 BYTE   W01
 BYTE   VOL   10*PokemonRangerGuardianSignsRidingonaLegendaryBeastSme_mvl/mxv
 BYTE   W02
 BYTE   VOL   7*PokemonRangerGuardianSignsRidingonaLegendaryBeastSme_mvl/mxv
 BYTE   W01
 BYTE   EOT
 BYTE   En3  v067
 BYTE   VOL   1*PokemonRangerGuardianSignsRidingonaLegendaryBeastSme_mvl/mxv
 BYTE   W01
 BYTE   VOL   29*PokemonRangerGuardianSignsRidingonaLegendaryBeastSme_mvl/mxv
 BYTE   W24
 BYTE   VOL   0*PokemonRangerGuardianSignsRidingonaLegendaryBeastSme_mvl/mxv
 BYTE   W01
 BYTE   VOL   4*PokemonRangerGuardianSignsRidingonaLegendaryBeastSme_mvl/mxv
 BYTE   W01
 BYTE   VOL   9*PokemonRangerGuardianSignsRidingonaLegendaryBeastSme_mvl/mxv
 BYTE   PAN   c_v-46
 BYTE   W01
 BYTE   PAN   c_v-40
 BYTE   VOL   17*PokemonRangerGuardianSignsRidingonaLegendaryBeastSme_mvl/mxv
 BYTE   W01
 BYTE   PAN   c_v-35
 BYTE   VOL   21*PokemonRangerGuardianSignsRidingonaLegendaryBeastSme_mvl/mxv
 BYTE   W01
 BYTE   VOL   26*PokemonRangerGuardianSignsRidingonaLegendaryBeastSme_mvl/mxv
 BYTE   PAN   c_v-29
 BYTE   W01
 BYTE   VOL   29*PokemonRangerGuardianSignsRidingonaLegendaryBeastSme_mvl/mxv
 BYTE   PAN   c_v-22
 BYTE   W01
 BYTE   PAN   c_v-18
 BYTE   W01
 BYTE   PAN   c_v-11
 BYTE   W01
 BYTE   PAN   c_v-5
 BYTE   W01
 BYTE   PAN   c_v-1
 BYTE   W01
 BYTE   PAN   c_v+6
 BYTE   W01
 BYTE   PAN   c_v+12
 BYTE   W01
 BYTE   PAN   c_v+17
 BYTE   W01
 BYTE   PAN   c_v+23
 BYTE   W01
 BYTE   PAN   c_v+30
 BYTE   W01
 BYTE   PAN   c_v+31
 BYTE   W20
//  #11 //003   ----------------------------------------
 BYTE   N06  Bn1  v127
 BYTE   N06
 BYTE   W12
 BYTE   N32  As0  v114  gtp2
 BYTE   W23
 BYTE   BEND   c_v+1
 BYTE   W01
 BYTE   N06  En2  v117
 BYTE   N06  An1
 BYTE   W04
 BYTE   BEND   c_v+0
 BYTE   W08
 BYTE   N07  Gn2  v106
 BYTE   N07  Cn2
 BYTE   W08
 BYTE   BEND   c_v+2
 BYTE   W03
 BYTE   BEND   c_v+5
 BYTE   W01
 BYTE   N07  Bn2  v105
 BYTE   BEND   c_v+11
 BYTE   N07  En2
 BYTE   W01
 BYTE   BEND   c_v+7
 BYTE   W02
 BYTE   BEND   c_v-1
 BYTE   W01
 BYTE   BEND   c_v-4
 BYTE   W02
 BYTE   BEND   c_v-7
 BYTE   W01
 BYTE   BEND   c_v-4
 BYTE   W01
 BYTE   BEND   c_v+0
 BYTE   W02
 BYTE   BEND   c_v-2
 BYTE   W01
 BYTE   BEND   c_v-4
 BYTE   W01
 BYTE   N22  Cn3  v115
 BYTE   N22  An2
 BYTE   BEND   c_v-1
 BYTE   W01
 BYTE   BEND   c_v+5
 BYTE   W01
 BYTE   BEND   c_v+13
 BYTE   W02
 BYTE   BEND   c_v+10
 BYTE   W01
 BYTE   BEND   c_v+6
 BYTE   W01
 BYTE   BEND   c_v+3
 BYTE   W03
 BYTE   BEND   c_v+2
 BYTE   W01
 BYTE   BEND   c_v+5
 BYTE   W02
 BYTE   BEND   c_v+3
 BYTE   W05
 BYTE   BEND   c_v+1
 BYTE   W05
 BYTE   BEND   c_v+0
 BYTE   W02
//  #11 //004   ----------------------------------------
 BYTE   N10  Bn2  v127
 BYTE   N10  Gn2
 BYTE   W01
 BYTE   BEND   c_v+2
 BYTE   W03
 BYTE   BEND   c_v+3
 BYTE   W02
 BYTE   BEND   c_v+2
 BYTE   W02
 BYTE   BEND   c_v-4
 BYTE   W01
 BYTE   BEND   c_v-10
 BYTE   W01
 BYTE   BEND   c_v-5
 BYTE   W01
 BYTE   BEND   c_v+0
 BYTE   W01
 BYTE   N10  An2  v081
 BYTE   N10  Fs2
 BYTE   W03
 BYTE   BEND   c_v+2
 BYTE   W03
 BYTE   BEND   c_v+3
 BYTE   W05
 BYTE   BEND   c_v+0
 BYTE   W01
 BYTE   N21  As2  v127
 BYTE   BEND   c_v+7
 BYTE   N21  Fs2
 BYTE   W01
 BYTE   BEND   c_v+19
 BYTE   W01
 BYTE   BEND   c_v+26
 BYTE   W01
 BYTE   BEND   c_v+33
 BYTE   W11
 BYTE   BEND   c_v+32
 BYTE   W03
 BYTE   BEND   c_v+30
 BYTE   W03
 BYTE   BEND   c_v+15
 BYTE   W01
 BYTE   BEND   c_v+0
 BYTE   W03
 BYTE   N11  Gs2  v122
 BYTE   N11  Fn2
 BYTE   W05
 BYTE   BEND   c_v-1
 BYTE   W01
 BYTE   BEND   c_v+30
 BYTE   W02
 BYTE   BEND   c_v+31
 BYTE   W03
 BYTE   BEND   c_v+30
 BYTE   W01
 BYTE   N09  Gn2  v091
 BYTE   N09  En2
 BYTE   BEND   c_v+7
 BYTE   W01
 BYTE   BEND   c_v+0
 BYTE   W11
 BYTE   N10  Gs2  v127
 BYTE   N10  Fn2
 BYTE   W03
 BYTE   BEND   c_v+11
 BYTE   W01
 BYTE   BEND   c_v+18
 BYTE   W01
 BYTE   BEND   c_v+21
 BYTE   W01
 BYTE   BEND   c_v+26
 BYTE   W01
 BYTE   BEND   c_v+29
 BYTE   W01
 BYTE   BEND   c_v+34
 BYTE   W01
 BYTE   BEND   c_v+32
 BYTE   W01
 BYTE   BEND   c_v+25
 BYTE   W01
 BYTE   BEND   c_v+22
 BYTE   W01
 BYTE   BEND   c_v+14
 BYTE   W01
 BYTE   BEND   c_v+0
 BYTE   W11
//  #11 //005   ----------------------------------------
 BYTE   N11  Gn2
 BYTE   N11  En2
 BYTE   W02
 BYTE   BEND   c_v-1
 BYTE   W03
 BYTE   BEND   c_v+0
 BYTE   W03
 BYTE   BEND   c_v-2
 BYTE   W01
 BYTE   BEND   c_v-1
 BYTE   W02
 BYTE   BEND   c_v+0
 BYTE   W01
 BYTE   N09  Fs2  v086
 BYTE   N09  Dn2
 BYTE   W06
 BYTE   BEND   c_v-6
 BYTE   W03
 BYTE   BEND   c_v-7
 BYTE   W01
 BYTE   BEND   c_v-2
 BYTE   W01
 BYTE   BEND   c_v+0
 BYTE   W01
 BYTE   N80  Gn2  v127  gtp3
 BYTE   En2
 BYTE   W03
 BYTE   BEND   c_v-1
 BYTE   W03
 BYTE   BEND   c_v+1
 BYTE   W03
 BYTE   BEND   c_v-1
 BYTE   W02
 BYTE   BEND   c_v-2
 BYTE   W03
 BYTE   BEND   c_v-4
 BYTE   W02
 BYTE   BEND   c_v-1
 BYTE   W01
 BYTE   BEND   c_v+2
 BYTE   W03
 BYTE   BEND   c_v-1
 BYTE   W02
 BYTE   BEND   c_v-3
 BYTE   W03
 BYTE   BEND   c_v-2
 BYTE   W03
 BYTE   BEND   c_v+0
 BYTE   W03
 BYTE   BEND   c_v-2
 BYTE   W02
 BYTE   BEND   c_v-1
 BYTE   W03
 BYTE   BEND   c_v-2
 BYTE   W02
 BYTE   BEND   c_v+3
 BYTE   W01
 BYTE   BEND   c_v+7
 BYTE   W03
 BYTE   BEND   c_v+5
 BYTE   W01
 BYTE   BEND   c_v+4
 BYTE   W01
 BYTE   BEND   c_v+1
 BYTE   W02
 BYTE   BEND   c_v-1
 BYTE   W01
 BYTE   BEND   c_v-3
 BYTE   W03
 BYTE   BEND   c_v-1
 BYTE   W01
 BYTE   BEND   c_v+1
 BYTE   W02
 BYTE   BEND   c_v+2
 BYTE   W02
 BYTE   BEND   c_v-1
 BYTE   W03
 BYTE   BEND   c_v-3
 BYTE   W02
 BYTE   BEND   c_v-1
 BYTE   W01
 BYTE   BEND   c_v+2
 BYTE   W03
 BYTE   BEND   c_v+1
 BYTE   W02
 BYTE   BEND   c_v-2
 BYTE   W02
 BYTE   BEND   c_v-1
 BYTE   W01
 BYTE   BEND   c_v+2
 BYTE   W02
 BYTE   BEND   c_v+3
 BYTE   W01
//  #11 //006   ----------------------------------------
 BYTE   BEND   c_v+5
 BYTE   W03
 BYTE   BEND   c_v+3
 BYTE   W01
 BYTE   BEND   c_v+1
 BYTE   W02
 BYTE   BEND   c_v-2
 BYTE   W02
 BYTE   BEND   c_v-3
 BYTE   W02
 BYTE   BEND   c_v-2
 BYTE   W01
 BYTE   BEND   c_v+0
 BYTE   W08
 BYTE   BEND   c_v-1
 BYTE   W02
 BYTE   BEND   c_v+4
 BYTE   W01
 BYTE   BEND   c_v+9
 BYTE   W01
 BYTE   BEND   c_v+0
 BYTE   W09
 BYTE   BEND   c_v-12
 BYTE   W01
 BYTE   BEND   c_v-7
 BYTE   W01
 BYTE   BEND   c_v+0
 BYTE   W60
 BYTE   N06  Bn1  v111
 BYTE   N06
 BYTE   W02
//  #11 //007   ----------------------------------------
 BYTE   W12
 BYTE   N24  Bn0  v125  gtp1
 BYTE   W22
 BYTE   N06  Ds2  v111
 BYTE   N06  Bn1
 BYTE   W05
 BYTE   BEND   c_v+4
 BYTE   W02
 BYTE   BEND   c_v+8
 BYTE   W01
 BYTE   BEND   c_v+12
 BYTE   W02
 BYTE   BEND   c_v+17
 BYTE   W01
 BYTE   BEND   c_v+0
 BYTE   W01
 BYTE   N06  Ds2
 BYTE   N06  Bn1
 BYTE   W01
 BYTE   BEND   c_v+5
 BYTE   W01
 BYTE   BEND   c_v+9
 BYTE   W01
 BYTE   BEND   c_v+13
 BYTE   W02
 BYTE   BEND   c_v+12
 BYTE   W01
 BYTE   BEND   c_v+9
 BYTE   W03
 BYTE   BEND   c_v+6
 BYTE   W02
 BYTE   BEND   c_v+4
 BYTE   W01
 BYTE   BEND   c_v+0
 BYTE   N10  An2
 BYTE   N10  Fs2
 BYTE   W09
 BYTE   BEND   c_v-3
 BYTE   W01
 BYTE   BEND   c_v-6
 BYTE   W01
 BYTE   BEND   c_v-13
 BYTE   W01
 BYTE   N06  Ds2
 BYTE   BEND   c_v+0
 BYTE   N06  Bn1
 BYTE   W07
 BYTE   BEND   c_v+3
 BYTE   W05
 BYTE   N06  Ds2
 BYTE   N06  Bn1
 BYTE   W01
 BYTE   BEND   c_v+0
 BYTE   W03
 BYTE   BEND   c_v+3
 BYTE   W01
 BYTE   BEND   c_v+5
 BYTE   W03
 BYTE   BEND   c_v+4
 BYTE   W03
 BYTE   BEND   c_v+0
 BYTE   W01
 BYTE   N10  Fs2
 BYTE   N10  Cn2
 BYTE   W01
 BYTE   BEND   c_v+3
 BYTE   W01
//  #11 //008   ----------------------------------------
 BYTE   BEND   c_v+5
 BYTE   W02
 BYTE   BEND   c_v+7
 BYTE   W03
 BYTE   BEND   c_v+6
 BYTE   W01
 BYTE   BEND   c_v+2
 BYTE   W01
 BYTE   BEND   c_v-5
 BYTE   W01
 BYTE   BEND   c_v+0
 BYTE   W02
 BYTE   N06  Ds2
 BYTE   N06  Bn1
 BYTE   W12
 BYTE   Ds2
 BYTE   N06  Bn1
 BYTE   W12
 BYTE   N17  Ds2  v092
 BYTE   N17  Bn1  v116
 BYTE   W03
 BYTE   BEND   c_v-1
 BYTE   W03
 BYTE   BEND   c_v+0
 BYTE   W03
 BYTE   BEND   c_v+2
 BYTE   W05
 BYTE   BEND   c_v+4
 BYTE   W03
 BYTE   BEND   c_v+5
 BYTE   W01
 BYTE   BEND   c_v+0
 BYTE   W01
 BYTE   N15  Fs2  v104
 BYTE   N15  Ds2
 BYTE   W03
 BYTE   BEND   c_v+1
 BYTE   W06
 BYTE   BEND   c_v+0
 BYTE   W03
 BYTE   BEND   c_v-2
 BYTE   W01
 BYTE   BEND   c_v+5
 BYTE   W01
 BYTE   BEND   c_v+8
 BYTE   W01
 BYTE   BEND   c_v+0
 BYTE   W01
 BYTE   N17  An2  v115
 BYTE   N17  En2
 BYTE   W02
 BYTE   BEND   c_v+2
 BYTE   W01
 BYTE   BEND   c_v+3
 BYTE   W01
 BYTE   BEND   c_v+14
 BYTE   W01
 BYTE   BEND   c_v+25
 BYTE   W01
 BYTE   BEND   c_v+44
 BYTE   W01
 BYTE   BEND   c_v+49
 BYTE   W01
 BYTE   BEND   c_v+58
 BYTE   W01
 BYTE   BEND   c_v+60
 BYTE   W03
 BYTE   BEND   c_v+62
 BYTE   W02
 BYTE   BEND   c_v+61
 BYTE   W01
 BYTE   BEND   c_v+46
 BYTE   W01
 BYTE   BEND   c_v+29
 BYTE   W01
 BYTE   BEND   c_v+0
 BYTE   W01
 BYTE   N44  Fs3  v127  gtp3
 BYTE   Bn2
 BYTE   W02
 BYTE   BEND   c_v-1
 BYTE   W01
 BYTE   BEND   c_v-2
 BYTE   W06
//  #11 //009   ----------------------------------------
 BYTE   BEND   c_v-1
 BYTE   W03
 BYTE   BEND   c_v+0
 BYTE   W03
 BYTE   BEND   c_v-2
 BYTE   W02
 BYTE   BEND   c_v-4
 BYTE   W02
 BYTE   BEND   c_v-2
 BYTE   W01
 BYTE   BEND   c_v+2
 BYTE   W01
 BYTE   BEND   c_v+13
 BYTE   W01
 BYTE   BEND   c_v+18
 BYTE   W02
 BYTE   BEND   c_v+14
 BYTE   W01
 BYTE   BEND   c_v+5
 BYTE   W03
 BYTE   BEND   c_v+4
 BYTE   W01
 BYTE   BEND   c_v+7
 BYTE   W01
 BYTE   BEND   c_v+14
 BYTE   W01
 BYTE   BEND   c_v+17
 BYTE   W01
 BYTE   BEND   c_v+10
 BYTE   W01
 BYTE   BEND   c_v+6
 BYTE   W01
 BYTE   BEND   c_v+3
 BYTE   W02
 BYTE   BEND   c_v+2
 BYTE   W01
 BYTE   BEND   c_v+8
 BYTE   W01
 BYTE   BEND   c_v+13
 BYTE   W01
 BYTE   BEND   c_v+22
 BYTE   W01
 BYTE   BEND   c_v+17
 BYTE   W01
 BYTE   BEND   c_v+7
 BYTE   W01
 BYTE   BEND   c_v+2
 BYTE   W01
 BYTE   BEND   c_v+8
 BYTE   W02
 BYTE   BEND   c_v+3
 BYTE   W01
 BYTE   BEND   c_v-8
 BYTE   W01
 BYTE   BEND   c_v-26
 BYTE   W01
 BYTE   BEND   c_v-16
 BYTE   W01
 BYTE   BEND   c_v+0
 BYTE   W09
 BYTE   VOL   30*PokemonRangerGuardianSignsRidingonaLegendaryBeastSme_mvl/mxv
 BYTE   W09
 BYTE   VOL   31*PokemonRangerGuardianSignsRidingonaLegendaryBeastSme_mvl/mxv
 BYTE   W36
 BYTE   W02
//  #11 //010   ----------------------------------------
 BYTE   W18
 BYTE   VOL   29*PokemonRangerGuardianSignsRidingonaLegendaryBeastSme_mvl/mxv
 BYTE   W14
 BYTE   VOL   30*PokemonRangerGuardianSignsRidingonaLegendaryBeastSme_mvl/mxv
 BYTE   W64
//  #11 //011   ----------------------------------------
 BYTE   W16
 BYTE   PAN   c_v+32
 BYTE   W05
 BYTE   PAN   c_v+33
 BYTE   W04
 BYTE   PAN   c_v+34
 BYTE   W05
 BYTE   PAN   c_v+35
 BYTE   W04
 BYTE   PAN   c_v+36
 BYTE   W05
 BYTE   PAN   c_v+38
 BYTE   W56
 BYTE   W01
//  #11 //012   ----------------------------------------
 BYTE   W96
//  #11 //013   ----------------------------------------
 BYTE   W96
//  #11 //014   ----------------------------------------
 BYTE   W96
//  #11 //015   ----------------------------------------
 BYTE   W96
//  #11 //016   ----------------------------------------
 BYTE   W96
//  #11 //017   ----------------------------------------
 BYTE   W96
//  #11 //018   ----------------------------------------
 BYTE   W96
//  #11 //019   ----------------------------------------
 BYTE   W24
 BYTE   W03
 BYTE   BEND   c_v+10
 BYTE   W03
 BYTE   BEND   c_v+8
 BYTE   W01
 BYTE   BEND   c_v+13
 BYTE   W01
 BYTE   BEND   c_v+23
 BYTE   W01
 BYTE   BEND   c_v+26
 BYTE   W01
 BYTE   BEND   c_v+34
 BYTE   W01
 BYTE   BEND   c_v+39
 BYTE   W01
 BYTE   BEND   c_v+41
 BYTE   W01
 BYTE   BEND   c_v+44
 BYTE   W01
 BYTE   BEND   c_v+46
 BYTE   W02
 BYTE   BEND   c_v+48
 BYTE   W01
 BYTE   BEND   c_v+50
 BYTE   W02
 BYTE   BEND   c_v+51
 BYTE   W01
 BYTE   BEND   c_v+52
 BYTE   W05
 BYTE   BEND   c_v+53
 BYTE   W03
 BYTE   BEND   c_v+54
 BYTE   W06
 BYTE   BEND   c_v+57
 BYTE   W02
 BYTE   BEND   c_v+58
 BYTE   W03
 BYTE   BEND   c_v+59
 BYTE   W08
 BYTE   BEND   c_v+62
 BYTE   W01
 BYTE   BEND   c_v+0
 BYTE   W03
 BYTE   BEND   c_v-1
 BYTE   W01
 BYTE   BEND   c_v-2
 BYTE   W03
 BYTE   BEND   c_v-3
 BYTE   W06
 BYTE   BEND   c_v-2
 BYTE   W08
 BYTE   BEND   c_v-3
 BYTE   W03
//  #11 //020   ----------------------------------------
 BYTE   W08
 BYTE   BEND   c_v-4
 BYTE   W01
 BYTE   BEND   c_v+0
 BYTE   W01
 BYTE   BEND   c_v-9
 BYTE   W01
 BYTE   BEND   c_v-18
 BYTE   W01
 BYTE   BEND   c_v-30
 BYTE   W09
 BYTE   BEND   c_v-31
 BYTE   W01
 BYTE   BEND   c_v-27
 BYTE   W02
 BYTE   BEND   c_v-22
 BYTE   W03
 BYTE   BEND   c_v-24
 BYTE   W01
 BYTE   BEND   c_v-27
 BYTE   W01
 BYTE   BEND   c_v-30
 BYTE   W03
 BYTE   BEND   c_v-32
 BYTE   W01
 BYTE   BEND   c_v-30
 BYTE   W02
 BYTE   BEND   c_v-27
 BYTE   W03
 BYTE   BEND   c_v-26
 BYTE   W05
 BYTE   BEND   c_v-24
 BYTE   W01
 BYTE   BEND   c_v-33
 BYTE   W01
 BYTE   BEND   c_v-52
 BYTE   W01
 BYTE   BEND   c_v-59
 BYTE   W01
 BYTE   BEND   c_v+0
 BYTE   W03
 BYTE   BEND   c_v-1
 BYTE   W01
 BYTE   BEND   c_v-2
 BYTE   W02
 BYTE   BEND   c_v-1
 BYTE   W01
 BYTE   BEND   c_v+2
 BYTE   W03
 BYTE   BEND   c_v+3
 BYTE   W03
 BYTE   BEND   c_v+4
 BYTE   W02
 BYTE   BEND   c_v+5
 BYTE   W09
 BYTE   BEND   c_v+7
 BYTE   W02
 BYTE   BEND   c_v+6
 BYTE   W02
 BYTE   BEND   c_v+4
 BYTE   W01
 BYTE   BEND   c_v+1
 BYTE   W02
 BYTE   BEND   c_v-2
 BYTE   W01
 BYTE   BEND   c_v-4
 BYTE   W01
 BYTE   BEND   c_v-1
 BYTE   W01
 BYTE   BEND   c_v+0
 BYTE   W06
 BYTE   BEND   c_v+1
 BYTE   W01
 BYTE   BEND   c_v+3
 BYTE   W02
 BYTE   BEND   c_v+5
 BYTE   W02
 BYTE   BEND   c_v+3
 BYTE   W04
//  #11 //021   ----------------------------------------
 BYTE   W02
 BYTE   BEND   c_v+2
 BYTE   W03
 BYTE   BEND   c_v-1
 BYTE   W01
 BYTE   BEND   c_v-5
 BYTE   W01
 BYTE   BEND   c_v-11
 BYTE   W01
 BYTE   BEND   c_v-23
 BYTE   W01
 BYTE   BEND   c_v-35
 BYTE   W01
 BYTE   BEND   c_v-57
 BYTE   W01
 BYTE   BEND   c_v+0
 BYTE   W01
 BYTE   BEND   c_v+2
 BYTE   W02
 BYTE   BEND   c_v+4
 BYTE   W01
 BYTE   BEND   c_v+6
 BYTE   W02
 BYTE   BEND   c_v+5
 BYTE   W01
 BYTE   BEND   c_v+2
 BYTE   W03
 BYTE   BEND   c_v+3
 BYTE   W03
 BYTE   BEND   c_v+1
 BYTE   W05
 BYTE   BEND   c_v-1
 BYTE   W02
 BYTE   BEND   c_v-3
 BYTE   W01
 BYTE   BEND   c_v-6
 BYTE   W01
 BYTE   BEND   c_v-9
 BYTE   W01
 BYTE   BEND   c_v-5
 BYTE   W01
 BYTE   BEND   c_v+0
 BYTE   W02
 BYTE   BEND   c_v+5
 BYTE   W02
 BYTE   BEND   c_v+3
 BYTE   W01
 BYTE   BEND   c_v+7
 BYTE   W01
 BYTE   BEND   c_v+32
 BYTE   W02
 BYTE   BEND   c_v+36
 BYTE   W01
 BYTE   BEND   c_v+40
 BYTE   W01
 BYTE   BEND   c_v+37
 BYTE   W01
 BYTE   BEND   c_v+31
 BYTE   W01
 BYTE   BEND   c_v+39
 BYTE   W06
 BYTE   BEND   c_v+33
 BYTE   W02
 BYTE   BEND   c_v+38
 BYTE   W01
 BYTE   BEND   c_v+31
 BYTE   W05
 BYTE   BEND   c_v+36
 BYTE   W01
 BYTE   BEND   c_v+30
 BYTE   W03
 BYTE   BEND   c_v+29
 BYTE   W01
 BYTE   BEND   c_v+33
 BYTE   W01
 BYTE   BEND   c_v+29
 BYTE   W01
 BYTE   BEND   c_v+24
 BYTE   W01
 BYTE   BEND   c_v+14
 BYTE   W01
 BYTE   BEND   c_v+9
 BYTE   W01
 BYTE   BEND   c_v+0
 BYTE   W02
 BYTE   BEND   c_v+1
 BYTE   W02
 BYTE   BEND   c_v+5
 BYTE   W01
 BYTE   BEND   c_v+3
 BYTE   W03
 BYTE   BEND   c_v+2
 BYTE   W01
 BYTE   BEND   c_v+6
 BYTE   W01
 BYTE   BEND   c_v+3
 BYTE   W03
 BYTE   BEND   c_v+2
 BYTE   W02
 BYTE   BEND   c_v+5
 BYTE   W01
 BYTE   BEND   c_v+3
 BYTE   W01
 BYTE   BEND   c_v+4
 BYTE   W01
 BYTE   BEND   c_v+6
 BYTE   W01
 BYTE   BEND   c_v+0
 BYTE   W01
 BYTE   BEND   c_v+5
 BYTE   W01
 BYTE   BEND   c_v+2
 BYTE   W02
 BYTE   BEND   c_v+5
 BYTE   W01
 BYTE   BEND   c_v+0
 BYTE   W01
//  #11 //022   ----------------------------------------
 BYTE   W01
 BYTE   BEND   c_v+3
 BYTE   W01
 BYTE   BEND   c_v+1
 BYTE   W02
 BYTE   BEND   c_v-2
 BYTE   W01
 BYTE   BEND   c_v-14
 BYTE   W01
 BYTE   BEND   c_v-26
 BYTE   W01
 BYTE   BEND   c_v+0
 BYTE   W05
 BYTE   BEND   c_v+3
 BYTE   W02
 BYTE   BEND   c_v+5
 BYTE   W02
 BYTE   BEND   c_v+7
 BYTE   W01
 BYTE   BEND   c_v+3
 BYTE   W01
 BYTE   BEND   c_v+2
 BYTE   W02
 BYTE   BEND   c_v+1
 BYTE   W03
 BYTE   BEND   c_v+2
 BYTE   W01
 BYTE   BEND   c_v+4
 BYTE   W01
 BYTE   BEND   c_v+2
 BYTE   W01
 BYTE   BEND   c_v+0
 BYTE   W01
 BYTE   BEND   c_v-1
 BYTE   W01
 BYTE   BEND   c_v-4
 BYTE   W01
 BYTE   BEND   c_v-3
 BYTE   W02
 BYTE   BEND   c_v-1
 BYTE   W01
 BYTE   BEND   c_v+4
 BYTE   W01
 BYTE   BEND   c_v+8
 BYTE   W01
 BYTE   BEND   c_v+10
 BYTE   W01
 BYTE   BEND   c_v+8
 BYTE   W02
 BYTE   BEND   c_v+4
 BYTE   W02
 BYTE   BEND   c_v-1
 BYTE   W01
 BYTE   BEND   c_v+3
 BYTE   W02
 BYTE   BEND   c_v+1
 BYTE   W01
 BYTE   BEND   c_v+9
 BYTE   W02
 BYTE   BEND   c_v+11
 BYTE   W01
 BYTE   BEND   c_v+8
 BYTE   W02
 BYTE   BEND   c_v+9
 BYTE   W01
 BYTE   BEND   c_v+6
 BYTE   W01
 BYTE   BEND   c_v+1
 BYTE   W01
 BYTE   BEND   c_v+8
 BYTE   W02
 BYTE   BEND   c_v+5
 BYTE   W01
 BYTE   BEND   c_v+10
 BYTE   W02
 BYTE   BEND   c_v+12
 BYTE   W01
 BYTE   BEND   c_v+9
 BYTE   W02
 BYTE   BEND   c_v+8
 BYTE   W02
 BYTE   BEND   c_v+6
 BYTE   W02
 BYTE   BEND   c_v+8
 BYTE   W01
 BYTE   BEND   c_v+10
 BYTE   W01
 BYTE   BEND   c_v+9
 BYTE   W02
 BYTE   BEND   c_v+8
 BYTE   W01
 BYTE   BEND   c_v+9
 BYTE   W01
 BYTE   BEND   c_v+7
 BYTE   W01
 BYTE   BEND   c_v+6
 BYTE   W01
 BYTE   BEND   c_v+7
 BYTE   W01
 BYTE   BEND   c_v+6
 BYTE   W01
 BYTE   BEND   c_v+9
 BYTE   W02
 BYTE   BEND   c_v+6
 BYTE   W01
 BYTE   BEND   c_v+12
 BYTE   W02
 BYTE   BEND   c_v+7
 BYTE   W01
 BYTE   BEND   c_v+9
 BYTE   W03
 BYTE   BEND   c_v+10
 BYTE   W01
 BYTE   BEND   c_v+13
 BYTE   W01
 BYTE   BEND   c_v+15
 BYTE   W02
 BYTE   BEND   c_v+8
 BYTE   W01
 BYTE   BEND   c_v+13
 BYTE   W02
 BYTE   BEND   c_v+8
 BYTE   W04
 BYTE   BEND   c_v+10
 BYTE   W01
 BYTE   BEND   c_v+7
 BYTE   W01
 BYTE   BEND   c_v+18
 BYTE   W01
//  #11 //023   ----------------------------------------
 BYTE   BEND   c_v+14
 BYTE   W01
 BYTE   BEND   c_v+7
 BYTE   W01
 BYTE   BEND   c_v+16
 BYTE   W01
 BYTE   BEND   c_v+13
 BYTE   W01
 BYTE   BEND   c_v+8
 BYTE   W01
 BYTE   BEND   c_v+13
 BYTE   W02
 BYTE   BEND   c_v+12
 BYTE   W02
 BYTE   BEND   c_v+13
 BYTE   W01
 BYTE   BEND   c_v+11
 BYTE   W02
 BYTE   BEND   c_v+10
 BYTE   W01
 BYTE   BEND   c_v+12
 BYTE   W02
 BYTE   BEND   c_v+0
 BYTE   W01
 BYTE   BEND   c_v+10
 BYTE   W03
 BYTE   BEND   c_v-6
 BYTE   W01
 BYTE   BEND   c_v-5
 BYTE   W01
 BYTE   BEND   c_v+9
 BYTE   W01
 BYTE   BEND   c_v+5
 BYTE   W01
 BYTE   BEND   c_v+4
 BYTE   W01
 BYTE   BEND   c_v+2
 BYTE   W03
 BYTE   BEND   c_v-11
 BYTE   W02
 BYTE   BEND   c_v-7
 BYTE   W01
 BYTE   BEND   c_v-3
 BYTE   W01
 BYTE   BEND   c_v+0
 BYTE   W64
 BYTE   W01
//  #11 //024   ----------------------------------------
 BYTE   W96
//  #11 //025   ----------------------------------------
 BYTE   W96
//  #11 //026   ----------------------------------------
 BYTE   W96
//  #11 //027   ----------------------------------------
 BYTE   W96
//  #11 //028   ----------------------------------------
 BYTE   W96
//  #11 //029   ----------------------------------------
 BYTE   W96
//  #11 //030   ----------------------------------------
 BYTE   W96
//  #11 //031   ----------------------------------------
 BYTE   W96
//  #11 //032   ----------------------------------------
 BYTE   W96
//  #11 //033   ----------------------------------------
 BYTE   W96
//  #11 //034   ----------------------------------------
 BYTE   W96
//  #11 //035   ----------------------------------------
 BYTE   W96
//  #11 //036   ----------------------------------------
 BYTE   W24
 BYTE   N07  Gn1  v107
 BYTE   N07  Bn1  v120
 BYTE   W13
 BYTE   N11  Cn3  v085
 BYTE   N06  En2  v105
 BYTE   BEND   c_v-1
 BYTE   W03
 BYTE   BEND   c_v-3
 BYTE   W02
 BYTE   BEND   c_v-2
 BYTE   W03
 BYTE   BEND   c_v+0
 BYTE   W04
 BYTE   N12  En3  v107
 BYTE   N12  Gn2  v127
 BYTE   BEND   c_v+1
 BYTE   W03
 BYTE   BEND   c_v-1
 BYTE   W03
 BYTE   BEND   c_v-2
 BYTE   W02
 BYTE   BEND   c_v+0
 BYTE   W04
 BYTE   N24  Fs3  v107
 BYTE   N24  An2  v127
 BYTE   W03
 BYTE   BEND   c_v-3
 BYTE   W02
 BYTE   BEND   c_v+0
 BYTE   W01
 BYTE   BEND   c_v+4
 BYTE   W01
 BYTE   BEND   c_v+52
 BYTE   W01
 BYTE   BEND   c_v+63
 BYTE   W01
 BYTE   BEND   c_v+44
 BYTE   W02
 BYTE   BEND   c_v+63
 BYTE   W01
 BYTE   BEND   c_v+47
 BYTE   W01
 BYTE   BEND   c_v+31
 BYTE   W01
 BYTE   BEND   c_v+4
 BYTE   W03
 BYTE   BEND   c_v+6
 BYTE   W03
 BYTE   BEND   c_v+5
 BYTE   W01
 BYTE   BEND   c_v+0
 BYTE   W13
 BYTE   N14  Ds3  v107
 BYTE   N14  Fn2  v127
 BYTE   W01
//  #11 //037   ----------------------------------------
 BYTE   BEND   c_v+17
 BYTE   W01
 BYTE   BEND   c_v+36
 BYTE   W04
 BYTE   BEND   c_v+34
 BYTE   W07
 BYTE   BEND   c_v+0
 BYTE   W02
 BYTE   BEND   c_v+15
 BYTE   W01
 BYTE   BEND   c_v+0
 BYTE   W08
 BYTE   TIE  En3  v107
 BYTE   TIE  Gn2  v127
 BYTE   W04
 BYTE   BEND   c_v-3
 BYTE   W03
 BYTE   BEND   c_v-4
 BYTE   W01
 BYTE   BEND   c_v-3
 BYTE   W01
 BYTE   BEND   c_v-1
 BYTE   W03
 BYTE   BEND   c_v+0
 BYTE   W03
 BYTE   BEND   c_v-2
 BYTE   W01
 BYTE   BEND   c_v+3
 BYTE   W01
 BYTE   BEND   c_v+4
 BYTE   W03
 BYTE   BEND   c_v+3
 BYTE   W02
 BYTE   BEND   c_v+4
 BYTE   W01
 BYTE   BEND   c_v+5
 BYTE   W01
 BYTE   BEND   c_v+3
 BYTE   W01
 BYTE   BEND   c_v+1
 BYTE   W02
 BYTE   BEND   c_v+5
 BYTE   W01
 BYTE   BEND   c_v+2
 BYTE   W01
 BYTE   BEND   c_v+3
 BYTE   W01
 BYTE   BEND   c_v+5
 BYTE   W02
 BYTE   BEND   c_v+6
 BYTE   W02
 BYTE   BEND   c_v+3
 BYTE   W02
 BYTE   BEND   c_v+5
 BYTE   W01
 BYTE   BEND   c_v+4
 BYTE   W01
 BYTE   BEND   c_v+5
 BYTE   W01
 BYTE   BEND   c_v+2
 BYTE   W02
 BYTE   BEND   c_v+6
 BYTE   W03
 BYTE   BEND   c_v+5
 BYTE   W01
 BYTE   BEND   c_v+3
 BYTE   W02
 BYTE   BEND   c_v+4
 BYTE   W01
 BYTE   BEND   c_v+5
 BYTE   W03
 BYTE   BEND   c_v+6
 BYTE   W02
 BYTE   BEND   c_v+7
 BYTE   W02
 BYTE   BEND   c_v+3
 BYTE   W01
 BYTE   BEND   c_v+6
 BYTE   W01
 BYTE   BEND   c_v+5
 BYTE   W02
 BYTE   BEND   c_v+3
 BYTE   W01
 BYTE   BEND   c_v+2
 BYTE   W02
 BYTE   BEND   c_v+3
 BYTE   W01
 BYTE   BEND   c_v+6
 BYTE   W01
 BYTE   BEND   c_v+9
 BYTE   W01
 BYTE   BEND   c_v+7
 BYTE   W03
 BYTE   BEND   c_v+6
 BYTE   W01
 BYTE   BEND   c_v+2
 BYTE   W02
 BYTE   BEND   c_v+4
 BYTE   W01
 BYTE   BEND   c_v+1
 BYTE   W01
//  #11 //038   ----------------------------------------
 BYTE   BEND   c_v+2
 BYTE   W01
 BYTE   BEND   c_v+1
 BYTE   W01
 BYTE   BEND   c_v+9
 BYTE   W01
 BYTE   BEND   c_v+11
 BYTE   W01
 BYTE   BEND   c_v+9
 BYTE   W02
 BYTE   BEND   c_v+7
 BYTE   W01
 BYTE   BEND   c_v+6
 BYTE   W01
 BYTE   BEND   c_v+3
 BYTE   W01
 BYTE   BEND   c_v+1
 BYTE   W01
 BYTE   BEND   c_v+5
 BYTE   W01
 BYTE   BEND   c_v+12
 BYTE   W01
 BYTE   BEND   c_v+10
 BYTE   W01
 BYTE   BEND   c_v+5
 BYTE   W01
 BYTE   BEND   c_v+8
 BYTE   W01
 BYTE   BEND   c_v+11
 BYTE   W01
 BYTE   BEND   c_v+4
 BYTE   W01
 BYTE   BEND   c_v+11
 BYTE   W01
 BYTE   BEND   c_v+1
 BYTE   W01
 BYTE   BEND   c_v+2
 BYTE   W01
 BYTE   BEND   c_v+3
 BYTE   W01
 BYTE   BEND   c_v+5
 BYTE   W01
 BYTE   BEND   c_v+6
 BYTE   W01
 BYTE   BEND   c_v+4
 BYTE   W01
 BYTE   BEND   c_v-1
 BYTE   W02
 BYTE   BEND   c_v+4
 BYTE   W01
 BYTE   BEND   c_v+13
 BYTE   W01
 BYTE   BEND   c_v+6
 BYTE   W01
 BYTE   BEND   c_v+4
 BYTE   W02
 BYTE   BEND   c_v+1
 BYTE   W02
 BYTE   BEND   c_v+5
 BYTE   W01
 BYTE   BEND   c_v+0
 BYTE   W01
 BYTE   EOT
 BYTE   En3
 BYTE   BEND   c_v+4
 BYTE   W01
 BYTE   BEND   c_v+8
 BYTE   W01
 BYTE   BEND   c_v+4
 BYTE   W01
 BYTE   BEND   c_v+10
 BYTE   W01
 BYTE   BEND   c_v+3
 BYTE   W01
 BYTE   BEND   c_v+2
 BYTE   W01
 BYTE   EOT
 BYTE   Gn2
 BYTE   BEND   c_v+0
 BYTE   W54
 BYTE   W01
//  #11 //039   ----------------------------------------
 BYTE   W36
 BYTE   VOL   31*PokemonRangerGuardianSignsRidingonaLegendaryBeastSme_mvl/mxv
 BYTE   W60
//  #11 //040   ----------------------------------------
 BYTE   N07  Bn1  v120
 BYTE   N07  En1
 BYTE   W12
 BYTE   N80  Bn0  v115  gtp2
 BYTE   W24
 BYTE   N23  Gn2  v127
 BYTE   N23  Bn2  v120
 BYTE   W03
 BYTE   BEND   c_v-1
 BYTE   W01
 BYTE   BEND   c_v+6
 BYTE   W01
 BYTE   BEND   c_v+13
 BYTE   W01
 BYTE   BEND   c_v+26
 BYTE   W01
 BYTE   BEND   c_v+30
 BYTE   W01
 BYTE   BEND   c_v+39
 BYTE   W01
 BYTE   BEND   c_v+43
 BYTE   W01
 BYTE   BEND   c_v+41
 BYTE   W02
 BYTE   BEND   c_v+22
 BYTE   W01
 BYTE   BEND   c_v-1
 BYTE   W10
 BYTE   BEND   c_v+0
 BYTE   W01
 BYTE   N10  An2  v127
 BYTE   N11  Cn3  v105
 BYTE   W02
 BYTE   BEND   c_v+1
 BYTE   W01
 BYTE   BEND   c_v+3
 BYTE   W03
 BYTE   BEND   c_v+2
 BYTE   W01
 BYTE   BEND   c_v+1
 BYTE   W02
 BYTE   BEND   c_v-1
 BYTE   W02
 BYTE   BEND   c_v+0
 BYTE   W02
 BYTE   N15  Bn2  v127
 BYTE   N15  Dn3
 BYTE   W01
 BYTE   BEND   c_v-2
 BYTE   W02
 BYTE   BEND   c_v-5
 BYTE   W03
 BYTE   BEND   c_v-4
 BYTE   W03
 BYTE   BEND   c_v-3
 BYTE   W03
 BYTE   BEND   c_v-7
 BYTE   W01
 BYTE   BEND   c_v-11
 BYTE   W01
 BYTE   BEND   c_v-18
 BYTE   W01
 BYTE   BEND   c_v-11
 BYTE   W01
 BYTE   BEND   c_v+0
 BYTE   W07
//  #11 //041   ----------------------------------------
 BYTE   N07  Dn1
 BYTE   N11  Dn3  v110
 BYTE   N07  Fs2  v127
 BYTE   W03
 BYTE   BEND   c_v+1
 BYTE   W05
 BYTE   BEND   c_v+0
 BYTE   W16
 BYTE   PAN   c_v-48
 BYTE   GoTo
  POIN2 Label_01007970
 BYTE   FINE

//**************** Track 12 (Midi-Chn.11) ****************//

PokemonRangerGuardianSignsRidingonaLegendaryBeastSme_012:
//  #12 //000   ----------------------------------------
 BYTE   KEYSH   PokemonRangerGuardianSignsRidingonaLegendaryBeastSme_key+0
 BYTE   VOICE   1
 BYTE   VOL   57*PokemonRangerGuardianSignsRidingonaLegendaryBeastSme_mvl/mxv
 BYTE   W96
//  #12 //001   ----------------------------------------
 BYTE   W24
Label_01007F90:
 BYTE   N23  Bn3  v084
 BYTE   PAN   c_v-15
 BYTE   W24
 BYTE   N11  En2  v078
 BYTE   W12
 BYTE   Bn3  v082
 BYTE   N11  En3  v079
 BYTE   W12
 BYTE   En2  v076
 BYTE   W12
 BYTE   N07  Cn4  v082
 BYTE   N05  En3  v074
 BYTE   N05  Gn3  v075
 BYTE   W12
//  #12 //002   ----------------------------------------
 BYTE   N11  Bn3  v072
 BYTE   N09  Gn3  v078
 BYTE   W12
 BYTE   N11  En2
 BYTE   W12
 BYTE   N23  Bn3
 BYTE   W24
 BYTE   N11  Dn2  v074
 BYTE   W12
 BYTE   Bn3  v078
 BYTE   N11  Dn3  v070
 BYTE   W12
 BYTE   Dn2  v075
 BYTE   W12
 BYTE   N05  Cn4  v080
 BYTE   N05  Dn3  v069
 BYTE   W12
//  #12 //003   ----------------------------------------
 BYTE   N11  Bn3  v086
 BYTE   N11  Dn3  v075
 BYTE   W24
 BYTE   N23  Cn4  v080
 BYTE   N22  En3  v088
 BYTE   W24
 BYTE   N11  En2  v073
 BYTE   W12
 BYTE   Cn4  v080
 BYTE   N11  En3  v084
 BYTE   W12
 BYTE   En2  v086
 BYTE   W12
 BYTE   N04  Cn4  v088
 BYTE   N05  En3  v076
 BYTE   N03  Gn3  v069
 BYTE   W12
//  #12 //004   ----------------------------------------
 BYTE   N11  Cn4  v085
 BYTE   N11  Gn3  v078
 BYTE   W12
 BYTE   En2  v094
 BYTE   W12
 BYTE   N23  Cn4  v088
 BYTE   N22  Gn3  v079
 BYTE   W24
 BYTE   N11  En2  v092
 BYTE   W12
 BYTE   Cn4  v079
 BYTE   N11  En3  v082
 BYTE   W12
 BYTE   En2  v090
 BYTE   W12
 BYTE   N05  An3  v092
 BYTE   N05  En3  v077
 BYTE   N02  Gn3  v065
 BYTE   W12
//  #12 //005   ----------------------------------------
 BYTE   N09  Cn4  v091
 BYTE   N07  En3  v076
 BYTE   N05  Gn3  v084
 BYTE   W12
 BYTE   N10  En2  v096
 BYTE   W12
 BYTE   N23  Bn3  v084
 BYTE   N23  En3  v090
 BYTE   N23  Gn3  v088
 BYTE   W24
 BYTE   N11  En2  v078
 BYTE   W12
 BYTE   Bn3  v082
 BYTE   N11  Gn3  v077
 BYTE   W12
 BYTE   En2  v076
 BYTE   W12
 BYTE   N07  Cn4  v082
 BYTE   N05  Gn3  v075
 BYTE   W12
//  #12 //006   ----------------------------------------
 BYTE   N11  Bn3  v072
 BYTE   N10  En3  v071
 BYTE   W12
 BYTE   N11  En2  v078
 BYTE   W12
 BYTE   N23  Bn3
 BYTE   N23  En3
 BYTE   N23  Gn3  v076
 BYTE   W24
 BYTE   N11  Dn2  v074
 BYTE   W12
 BYTE   Bn3  v078
 BYTE   N11  Dn3  v070
 BYTE   N11  Gn3  v073
 BYTE   W12
 BYTE   Dn2  v075
 BYTE   W12
 BYTE   N05  Cn4  v080
 BYTE   N05  Gn3  v072
 BYTE   W12
//  #12 //007   ----------------------------------------
 BYTE   N11  Bn3  v086
 BYTE   N11  Gn3  v072
 BYTE   W12
 BYTE   Dn2  v092
 BYTE   W12
 BYTE   N23  Bn3  v080
 BYTE   N22  Ds3  v088
 BYTE   N21  Fs3  v079
 BYTE   W24
 BYTE   N11  Bn1  v073
 BYTE   W12
 BYTE   Bn3  v080
 BYTE   W12
 BYTE   Bn1  v086
 BYTE   W12
 BYTE   N05  Ds3  v076
 BYTE   W12
//  #12 //008   ----------------------------------------
 BYTE   N11  Bn3  v085
 BYTE   W12
 BYTE   N06  Fs1  v094
 BYTE   W12
 BYTE   N23  Bn3  v088
 BYTE   W24
 BYTE   N11  Bn1  v092
 BYTE   W12
 BYTE   Bn3  v079
 BYTE   N11  Ds3  v082
 BYTE   N11  Fs3  v079
 BYTE   W12
 BYTE   Bn1  v090
 BYTE   W12
 BYTE   N06  Bn3  v092
 BYTE   N07  Ds3  v077
 BYTE   W12
//  #12 //009   ----------------------------------------
 BYTE   N30  Dn2  v096
 BYTE   W36
 BYTE   N11  En3  v080
 BYTE   N32  Cn2  v080  gtp3
 BYTE   W12
 BYTE   N11  Gn3  v082
 BYTE   W12
 BYTE   N10  Cn4  v081
 BYTE   W12
 BYTE   N24  Dn4  v084
 BYTE   N32  An1  v080  gtp3
 BYTE   N23  Fs3  v090
 BYTE   N23  An3  v088
 BYTE   W24
//  #12 //010   ----------------------------------------
 BYTE   N11  An3  v098
 BYTE   W12
 BYTE   Fs3  v067
 BYTE   N22  Cn2  v080
 BYTE   W12
 BYTE   N11  Cn3  v102
 BYTE   W12
 BYTE   Bn2  v080
 BYTE   N32  Bn1  v080  gtp3
 BYTE   W12
 BYTE   N11  Fs3  v082
 BYTE   W12
 BYTE   N10  An3  v081
 BYTE   W12
 BYTE   N32  Bn3  v084  gtp2
 BYTE   N23  En2  v080
 BYTE   N32  En3  v090  gtp2
 BYTE   Gn3  v088
 BYTE   W24
//  #12 //011   ----------------------------------------
 BYTE   N11  Bn1  v080
 BYTE   W12
 BYTE   N23  Dn4  v090
 BYTE   N22  Dn2  v080
 BYTE   N23  Gn3  v077
 BYTE   N24  Bn3  v073
 BYTE   W24
 BYTE   N11  An2  v080
 BYTE   N32  An1  v080  gtp3
 BYTE   W12
 BYTE   N11  En3  v082
 BYTE   W12
 BYTE   N10  Gn3  v081
 BYTE   W12
 BYTE   N11  Fs3  v084
 BYTE   N23  Bn1  v080
 BYTE   N10  Bn2  v090
 BYTE   N10  Ds3  v088
 BYTE   W24
//  #12 //012   ----------------------------------------
 BYTE   N23  An3  v098
 BYTE   N23  Ds2  v080
 BYTE   W24
 BYTE   N07  Cn4  v090
 BYTE   N10  Bn1  v080
 BYTE   N11  Fs3  v090
 BYTE   W09
 BYTE   N02  Gs4  v077
 BYTE   W03
 BYTE   N13  An4  v079
 BYTE   N13  En1  v088
 BYTE   N14  Bn3
 BYTE   N12  En4  v090
 BYTE   W18
 BYTE   N14  Fs4  v079
 BYTE   N15  Bn1  v060
 BYTE   W18
 BYTE   N20  Gs4  v071
 BYTE   N22  Gs1  v076
 BYTE   N22  En4  v082
 BYTE   W24
//  #12 //013   ----------------------------------------
 BYTE   N10  En3  v107
 BYTE   W12
 BYTE   N21  Dn4  v072
 BYTE   N21  Bn1  v088
 BYTE   N20  Gs3  v090
 BYTE   N21  Bn3
 BYTE   W24
 BYTE   N11  En3  v080
 BYTE   N32  Cn2  v080  gtp3
 BYTE   W12
 BYTE   N11  Gn3  v082
 BYTE   W12
 BYTE   N10  Cn4  v081
 BYTE   W12
 BYTE   N12  En4  v077
 BYTE   N32  Dn2  v080  gtp3
 BYTE   N20  Fs3  v090
 BYTE   N20  An3  v088
 BYTE   W12
 BYTE   N10  Dn4  v081
 BYTE   W12
//  #12 //014   ----------------------------------------
 BYTE   N11  An3  v098
 BYTE   W12
 BYTE   N12  Fs3  v086
 BYTE   N32  An1  v080  gtp2
 BYTE   N20  En3  v077
 BYTE   W12
 BYTE   N11  Bn3  v102
 BYTE   W12
 BYTE   En4  v080
 BYTE   W12
 BYTE   Gn4  v082
 BYTE   N32  Bn1  v080  gtp1
 BYTE   N12  Bn3  v077
 BYTE   N12  En4
 BYTE   W12
 BYTE   N10  Fs4  v081
 BYTE   W12
 BYTE   N11  En4  v090
 BYTE   W12
 BYTE   N15  Bn3  v084
 BYTE   N14  En2  v080
 BYTE   N14  Gs3  v088
 BYTE   W12
//  #12 //015   ----------------------------------------
 BYTE   W06
 BYTE   N05  Dn4  v090
 BYTE   N05  Bn1  v080
 BYTE   N05  Gs3  v077
 BYTE   N05  Bn3  v073
 BYTE   W18
 BYTE   N28  Cn4  v088
 BYTE   N22  Cn2  v096
 BYTE   N28  Fn3  v079  gtp1
 BYTE   N28  An3  v096
 BYTE   W24
 BYTE   N11  Fn1  v080
 BYTE   W12
 BYTE   N12  Cn4  v079
 BYTE   N12  Fn3  v078
 BYTE   N12  An3  v100
 BYTE   W12
 BYTE   N11  Fn1  v080
 BYTE   W12
 BYTE   N14  Cn4  v078
 BYTE   N15  Fn3  v079
 BYTE   N14  An3  v100
 BYTE   W12
//  #12 //016   ----------------------------------------
 BYTE   W06
 BYTE   N04  Cn4  v088
 BYTE   N04  Fn3  v079
 BYTE   N03  An3  v102
 BYTE   W06
 BYTE   N13  Fn1  v096
 BYTE   W12
 BYTE   N22  Cn4  v092
 BYTE   N23  Fn3
 BYTE   N22  An3  v109
 BYTE   W24
 BYTE   N11  Fn1  v096
 BYTE   W12
 BYTE   N12  Cn4  v079
 BYTE   N12  Fn3  v078
 BYTE   N12  An3  v100
 BYTE   W12
 BYTE   Fn1  v080
 BYTE   W12
 BYTE   N14  Dn4  v078
 BYTE   N15  Fn3  v079
 BYTE   N14  An3  v100
 BYTE   W12
//  #12 //017   ----------------------------------------
 BYTE   W06
 BYTE   N01  An3  v088
 BYTE   N03  Cn4  v102
 BYTE   N04  Fn3  v079
 BYTE   W06
 BYTE   N11  Fn1  v094
 BYTE   W24
 BYTE   N07  En4  v080
 BYTE   N08  Gn3  v078
 BYTE   N07  Bn3  v088
 BYTE   W12
 BYTE   N05  En2  v080
 BYTE   W12
 BYTE   N04  En2  v078
 BYTE   W12
 BYTE   N06  En4  v098
 BYTE   N06  Fs3  v096
 BYTE   N05  Bn3  v094
 BYTE   W12
 BYTE   En2  v077
 BYTE   W12
//  #12 //018   ----------------------------------------
 BYTE   N04  En2  v076
 BYTE   W12
 BYTE   N07  Ds4  v080
 BYTE   N08  Fs3  v078
 BYTE   N07  Bn3  v088
 BYTE   W12
 BYTE   N05  Ds2  v077
 BYTE   W12
 BYTE   N04  Ds2  v076
 BYTE   W12
 BYTE   N06  Bn3  v096
 BYTE   W12
 BYTE   Gn4  v072
 BYTE   N06  Gn3  v096
 BYTE   N05  Bn3  v094
 BYTE   W12
 BYTE   N04  An4  v065
 BYTE   N04  Bn3  v080
 BYTE   N04  Ds4  v092
 BYTE   W24
//  #12 //019   ----------------------------------------
 BYTE   N16  Fs3  v088
 BYTE   N17  Bn2  v078
 BYTE   N16  Ds3  v092
 BYTE   W24
 BYTE   Bn3  v084
 BYTE   N16  En3  v090
 BYTE   N15  Gn3  v088
 BYTE   W18
 BYTE   N04  Gn3  v062
 BYTE   N04  En3  v059
 BYTE   W06
 BYTE   N11  En2  v078
 BYTE   W12
 BYTE   Bn3  v082
 BYTE   N10  Gn3  v077
 BYTE   W12
 BYTE   N11  En2  v076
 BYTE   W12
 BYTE   N15  Cn4  v082
 BYTE   N13  Fs3  v075
 BYTE   W12
//  #12 //020   ----------------------------------------
 BYTE   W06
 BYTE   N04  Bn3  v072
 BYTE   N04  En3  v071
 BYTE   W06
 BYTE   N11  En2  v078
 BYTE   W12
 BYTE   N16  Bn3
 BYTE   N14  Fs3  v076
 BYTE   W18
 BYTE   N04  Gn3  v062
 BYTE   N04  Dn3  v059
 BYTE   W06
 BYTE   N11  Dn2  v078
 BYTE   W12
 BYTE   Bn3
 BYTE   N10  Gn3  v073
 BYTE   W24
 BYTE   N15  Bn3  v080
 BYTE   N15  Dn3  v069
 BYTE   N15  Fs3  v072
 BYTE   W12
//  #12 //021   ----------------------------------------
 BYTE   W06
 BYTE   N05  Bn3  v086
 BYTE   N05  Dn3  v075
 BYTE   N03  Gn3  v072
 BYTE   W06
 BYTE   N06  En1  v092
 BYTE   W12
 BYTE   N10  Dn3  v070
 BYTE   N10  Gn2  v073
 BYTE   W12
 BYTE   N16  Dn4  v077
 BYTE   N17  En3  v090
 BYTE   N17  Gn3
 BYTE   W24
 BYTE   N05  En3  v036
 BYTE   N05  Bn2  v031
 BYTE   W12
 BYTE   N08  Bn3  v078
 BYTE   N07  Gn3  v088
 BYTE   W24
//  #12 //022   ----------------------------------------
 BYTE   W12
 BYTE   N30  Cn4  v077
 BYTE   N32  An3  v079  gtp2
 BYTE   W36
 BYTE   N11  Fs1  v078
 BYTE   W12
 BYTE   Cn4  v082
 BYTE   N10  An3  v077
 BYTE   W12
 BYTE   N11  Fs1  v076
 BYTE   W12
 BYTE   N13  Dn4  v082
 BYTE   N13  An3  v075
 BYTE   W12
//  #12 //023   ----------------------------------------
 BYTE   W06
 BYTE   N04  Cn4  v072
 BYTE   N04  En3  v071
 BYTE   N03  An3  v078
 BYTE   W30
 BYTE   N16  Cn4  v077
 BYTE   N17  En3  v090
 BYTE   N17  An3
 BYTE   W24
 BYTE   N05  En3  v046
 BYTE   W12
 BYTE   N08  Bn3  v078
 BYTE   N08  Cs3  v082
 BYTE   N07  Gn3  v088
 BYTE   W24
//  #12 //024   ----------------------------------------
 BYTE   W12
 BYTE   N32  Ds4  v082  gtp2
 BYTE   Fs3  v088
 BYTE   W48
 BYTE   N10  Ds4  v079
 BYTE   N11  Bn3  v082
 BYTE   W12
 BYTE   Fs1  v076
 BYTE   W12
 BYTE   N15  Ds4  v074
 BYTE   N15  Bn3  v082
 BYTE   W12
//  #12 //025   ----------------------------------------
 BYTE   W06
 BYTE   N05  Ds4  v071
 BYTE   N05  Fs3  v078
 BYTE   N05  Bn3  v072
 BYTE   W06
 BYTE   N08  Fs1  v078
 BYTE   W24
 BYTE   N17  En4  v096
 BYTE   N16  Gn3  v086
 BYTE   N16  Bn3  v094
 BYTE   W18
 BYTE   N05  Bn3  v077
 BYTE   N05  Gn3  v072
 BYTE   W06
 BYTE   N08  Bn1  v078
 BYTE   W12
 BYTE   N21  Ds4  v102
 BYTE   N23  Gn3  v079
 BYTE   N23  Bn3  v086
 BYTE   W24
//  #12 //026   ----------------------------------------
 BYTE   N08  Bn1  v078
 BYTE   W12
 BYTE   N17  Dn4
 BYTE   N15  Gn3  v090
 BYTE   N15  Bn3  v096
 BYTE   W18
 BYTE   N05  Bn3  v077
 BYTE   N05  Gn3  v072
 BYTE   W06
 BYTE   N08  Bn1  v078
 BYTE   W12
 BYTE   N23  Cs4  v105
 BYTE   N23  Gn3  v075
 BYTE   N23  Bn3  v077
 BYTE   W24
 BYTE   N08  Bn1  v078
 BYTE   W12
 BYTE   N06  Cn4  v082
 BYTE   N06  En3  v068
 BYTE   N06  Fs3  v078
 BYTE   W12
//  #12 //027   ----------------------------------------
 BYTE   W12
 BYTE   Bn3  v082
 BYTE   N08  Ds2  v078
 BYTE   N06  Ds3  v098
 BYTE   N06  Fs3  v076
 BYTE   W12
 BYTE   N16  Bn3  v084
 BYTE   N16  En3  v090
 BYTE   N15  Gn3  v088
 BYTE   W18
 BYTE   N05  Gn3  v062
 BYTE   N05  En3  v059
 BYTE   W06
 BYTE   N11  En2  v078
 BYTE   W12
 BYTE   Bn3  v082
 BYTE   N10  En3  v079
 BYTE   N10  Gn3  v077
 BYTE   W12
 BYTE   N11  En2  v076
 BYTE   W12
 BYTE   N16  Cn4  v082
 BYTE   N14  Fs3  v075
 BYTE   W12
//  #12 //028   ----------------------------------------
 BYTE   W06
 BYTE   N05  Bn3  v072
 BYTE   N04  En3  v071
 BYTE   N03  Fs3  v078
 BYTE   W06
 BYTE   N11  En2
 BYTE   W12
 BYTE   N14  Dn4
 BYTE   N14  Fs3  v076
 BYTE   N16  Bn3  v078
 BYTE   W18
 BYTE   N05  Dn4  v059
 BYTE   N05  Gn3  v062
 BYTE   W06
 BYTE   N11  Dn2  v074
 BYTE   W12
 BYTE   N10  Dn4  v070
 BYTE   N10  Gn3  v073
 BYTE   N11  Bn3  v078
 BYTE   W12
 BYTE   Dn2  v075
 BYTE   W12
 BYTE   N14  En4  v069
 BYTE   N14  Bn3  v080
 BYTE   W12
//  #12 //029   ----------------------------------------
 BYTE   W06
 BYTE   N04  Dn4  v075
 BYTE   N04  Bn3  v086
 BYTE   W06
 BYTE   N06  En1  v092
 BYTE   W12
 BYTE   N10  Dn3  v070
 BYTE   N10  Gn2  v073
 BYTE   W12
 BYTE   N16  Dn4  v077
 BYTE   N17  Gn3  v090
 BYTE   W24
 BYTE   N05  En3  v036
 BYTE   N05  Bn2  v031
 BYTE   W12
 BYTE   N07  Gn3  v088
 BYTE   N08  En3  v082
 BYTE   W24
//  #12 //030   ----------------------------------------
 BYTE   W12
 BYTE   N24  Cn4  v077
 BYTE   W48
 BYTE   N11  Cn4  v082
 BYTE   N10  An3  v077
 BYTE   W24
 BYTE   N12  Dn4  v082
 BYTE   N13  An3  v075
 BYTE   W12
//  #12 //031   ----------------------------------------
 BYTE   W06
 BYTE   N06  Cn4  v072
 BYTE   N06  En3  v071
 BYTE   N05  An3  v078
 BYTE   W18
 BYTE   N08  An1
 BYTE   W12
 BYTE   N17  Bn3  v090
 BYTE   N17  Fs3
 BYTE   W24
 BYTE   N05  Ds3  v046
 BYTE   N05  Bn2  v051
 BYTE   W12
 BYTE   N07  Gn3  v088
 BYTE   W24
//  #12 //032   ----------------------------------------
 BYTE   W12
 BYTE   N14  Fs3
 BYTE   N32  Fs1  v079  gtp1
 BYTE   W36
 BYTE   N11  Fs1  v078
 BYTE   W12
 BYTE   N56  Ds4  v082  gtp2
 BYTE   N54  Bn3  v077
 BYTE   W36
//  #12 //033   ----------------------------------------
 BYTE   W96
//  #12 //034   ----------------------------------------
 BYTE   W96
//  #12 //035   ----------------------------------------
 BYTE   W96
//  #12 //036   ----------------------------------------
 BYTE   W96
//  #12 //037   ----------------------------------------
 BYTE   W96
//  #12 //038   ----------------------------------------
 BYTE   W96
//  #12 //039   ----------------------------------------
 BYTE   W96
//  #12 //040   ----------------------------------------
 BYTE   W96
//  #12 //041   ----------------------------------------
 BYTE   W24
 BYTE   GoTo
  POIN2 Label_01007F90
 BYTE   FINE

//******************************************************//
	ALIGN 4

PokemonRangerGuardianSignsRidingonaLegendaryBeastSme:
	BYTE	12	// NumTrks
	BYTE	0	// NumBlks
	BYTE	PokemonRangerGuardianSignsRidingonaLegendaryBeastSme_pri	// Priority
	BYTE	PokemonRangerGuardianSignsRidingonaLegendaryBeastSme_rev	// Reverb.
    
	POIN2	PokemonRangerGuardianSignsRidingonaLegendaryBeastSme_grp
    
	POIN2	PokemonRangerGuardianSignsRidingonaLegendaryBeastSme_001
	POIN2	PokemonRangerGuardianSignsRidingonaLegendaryBeastSme_002
	POIN2	PokemonRangerGuardianSignsRidingonaLegendaryBeastSme_003
	POIN2	PokemonRangerGuardianSignsRidingonaLegendaryBeastSme_004
	POIN2	PokemonRangerGuardianSignsRidingonaLegendaryBeastSme_005
	POIN2	PokemonRangerGuardianSignsRidingonaLegendaryBeastSme_006
	POIN2	PokemonRangerGuardianSignsRidingonaLegendaryBeastSme_007
	POIN2	PokemonRangerGuardianSignsRidingonaLegendaryBeastSme_008
	POIN2	PokemonRangerGuardianSignsRidingonaLegendaryBeastSme_009
	POIN2	PokemonRangerGuardianSignsRidingonaLegendaryBeastSme_010
	POIN2	PokemonRangerGuardianSignsRidingonaLegendaryBeastSme_011
	POIN2	PokemonRangerGuardianSignsRidingonaLegendaryBeastSme_012

	
