//Event file generated from Sappy .s format.
	#include "MPlayDef.event"

	#define	PokemonBWVsTeamPlasma_grp  voicegroup000
	#define	PokemonBWVsTeamPlasma_pri  0
	#define	PokemonBWVsTeamPlasma_rev  0
	#define	PokemonBWVsTeamPlasma_mvl  127
	#define	PokemonBWVsTeamPlasma_key  0
	#define	PokemonBWVsTeamPlasma_tbs  1
	#define	PokemonBWVsTeamPlasma_exg  0
	#define	PokemonBWVsTeamPlasma_cmp  1

	// .rodata
	//	PokemonBWVsTeamPlasma
	ALIGN 4


//**************** Track 1 (Midi-Chn.0) ****************//

PokemonBWVsTeamPlasma_001:
// 000   ----------------------------------------
 BYTE   KEYSH   PokemonBWVsTeamPlasma_key+0
 BYTE   TEMPO   184*PokemonBWVsTeamPlasma_tbs/2
 BYTE   VOICE   32
 BYTE   VOL   40*PokemonBWVsTeamPlasma_mvl/mxv
 BYTE   PAN   c_v+0
 BYTE   MOD 0
 BYTE   CnM2
 BYTE   VOL   35*PokemonBWVsTeamPlasma_mvl/mxv
 BYTE   PAN   c_v+40
 BYTE   N07  Cn5  v104
 BYTE   W08
 BYTE   Gn5  v100
 BYTE   W08
 BYTE   Fs5
 BYTE   W08
 BYTE   PAN   c_v-40
 BYTE   N07  Cn5  v104
 BYTE   W08
 BYTE   Gn5  v100
 BYTE   W08
 BYTE   Fs5
 BYTE   W08
 BYTE   PAN   c_v+40
 BYTE   N07  Cn5  v104
 BYTE   W08
 BYTE   Gn5  v100
 BYTE   W08
 BYTE   Fs5  v104
 BYTE   W08
 BYTE   PAN   c_v-40
 BYTE   N07  As5
 BYTE   W08
 BYTE   Fs5  v096
 BYTE   W08
 BYTE   Gn5  v104
 BYTE   W08
// 001   ----------------------------------------
 BYTE   PAN   c_v+40
 BYTE   N07  Cn5
 BYTE   W08
 BYTE   Gn5  v100
 BYTE   W08
 BYTE   Fs5  v104
 BYTE   W08
 BYTE   PAN   c_v-40
 BYTE   N07  Cn5
 BYTE   W08
 BYTE   Gn5  v100
 BYTE   W08
 BYTE   Fs5  v104
 BYTE   W08
 BYTE   PAN   c_v+40
 BYTE   N07  Cn5
 BYTE   W08
 BYTE   Gn5  v100
 BYTE   W08
 BYTE   Fs5
 BYTE   W08
 BYTE   PAN   c_v-40
 BYTE   N07  As5  v104
 BYTE   W08
 BYTE   Fs5  v100
 BYTE   W08
 BYTE   Gn5  v104
 BYTE   W08
// 002   ----------------------------------------
 BYTE   W96
// 003   ----------------------------------------
 BYTE   W96
// 004   ----------------------------------------
 BYTE   W96
// 005   ----------------------------------------
 BYTE   W96
// 006   ----------------------------------------
 BYTE   VOICE   30
 BYTE   VOL   47*PokemonBWVsTeamPlasma_mvl/mxv
 BYTE   N09  Gn3  v116
 BYTE   N09  Cn4
 BYTE   W96
// 007   ----------------------------------------
 BYTE   N11  Gn3  v100
 BYTE   N11  Cn4
 BYTE   W64
 BYTE   N30  Gs3  v108
 BYTE   N30  Cs4
 BYTE   W32
// 008   ----------------------------------------
 BYTE   N09  Gn3  v100
 BYTE   N09  Cn4
 BYTE   W96
// 009   ----------------------------------------
 BYTE   N07  Gn3
 BYTE   N07  Cn4  v116
 BYTE   W08
 BYTE   N03  Cn4  v100
 BYTE   N03  Fn4  v116
 BYTE   W08
 BYTE   Bn3  v100
 BYTE   N03  Ds4  v116
 BYTE   W08
 BYTE   Fs2  v100
 BYTE   N03  As3
 BYTE   W16
 BYTE   Fs2
 BYTE   N03  As3
 BYTE   W16
 BYTE   Fs2
 BYTE   N03  As3
 BYTE   W16
 BYTE   N23  Cn3
 BYTE   N23  Fs3
 BYTE   N23  Fs4  v112
 BYTE   W24
// 010   ----------------------------------------
 BYTE   VOL   65*PokemonBWVsTeamPlasma_mvl/mxv
 BYTE   PAN   c_v+0
 BYTE   N68  Cn3  v116
 BYTE   N68  Cn4
 BYTE   W04
Label_0_011874AD:
 BYTE   W68
 BYTE   N23  Gn3  v108
 BYTE   N23  Gn4
 BYTE   W24
// 011   ----------------------------------------
 BYTE   N36  Ds3  v116
 BYTE   N36  Ds4
 BYTE   W40
 BYTE   N30  Gs3
 BYTE   N30  Gs4
 BYTE   W32
 BYTE   N23  Gn3  v108
 BYTE   N23  Gn4
 BYTE   W24
// 012   ----------------------------------------
 BYTE   N07  Ds3  v116
 BYTE   N07  Ds4
 BYTE   W16
 BYTE   Dn3
 BYTE   N07  Dn4
 BYTE   W08
 BYTE   N68  Cn3
 BYTE   N68  Cn4
 BYTE   W72
// 013   ----------------------------------------
 BYTE   W96
// 014   ----------------------------------------
 BYTE   Cn3
 BYTE   N68  Cn4
 BYTE   W72
 BYTE   N23  Gn3  v112
 BYTE   N23  Gn4
 BYTE   W24
// 015   ----------------------------------------
 BYTE   N36  Ds3  v116
 BYTE   N36  Ds4
 BYTE   W40
 BYTE   N30  Gs3  v112
 BYTE   N30  Gs4
 BYTE   W32
 BYTE   N23  Gn3
 BYTE   N23  Gn4
 BYTE   W24
// 016   ----------------------------------------
 BYTE   N07  Gn3  v116
 BYTE   N07  Ds4
 BYTE   W16
 BYTE   Fn3
 BYTE   N07  Dn4
 BYTE   W08
 BYTE   N68  Gn3
 BYTE   N68  Cn4
 BYTE   W72
// 017   ----------------------------------------
 BYTE   W96
// 018   ----------------------------------------
 BYTE   Dn3
 BYTE   N68  Dn4
 BYTE   W72
 BYTE   N23  An3  v108
 BYTE   N23  An4
 BYTE   W24
// 019   ----------------------------------------
 BYTE   N36  Gn3  v116
 BYTE   N36  Gn4
 BYTE   W40
 BYTE   N30  As3  v112
 BYTE   N30  As4
 BYTE   W32
 BYTE   N23  An3  v108
 BYTE   N23  An4
 BYTE   W24
// 020   ----------------------------------------
 BYTE   N07  Fn3  v116
 BYTE   N07  Fn4
 BYTE   W16
 BYTE   Gn3
 BYTE   N07  Gn4
 BYTE   W08
 BYTE   N68  An3
 BYTE   N68  An4
 BYTE   W72
// 021   ----------------------------------------
 BYTE   W88
 BYTE   N07  Ds3  v032
 BYTE   W08
// 022   ----------------------------------------
 BYTE   Bn2  v124
 BYTE   N07  En3
 BYTE   W24
 BYTE   Bn2  v108
 BYTE   N07  En3
 BYTE   W24
 BYTE   Bn2  v116
 BYTE   N07  En3
 BYTE   W16
 BYTE   Bn2  v108
 BYTE   N07  En3
 BYTE   W16
 BYTE   Bn2  v112
 BYTE   N07  En3
 BYTE   W16
// 023   ----------------------------------------
 BYTE   Bn2  v116
 BYTE   N07  En3
 BYTE   W16
 BYTE   Dn3  v108
 BYTE   N07  Gn3
 BYTE   W16
 BYTE   Dn3  v100
 BYTE   N07  Gn3
 BYTE   W16
 BYTE   Cn3  v116
 BYTE   N07  Fn3
 BYTE   W16
 BYTE   An2  v108
 BYTE   N07  Dn3
 BYTE   W16
 BYTE   Cn3
 BYTE   N07  Fn3
 BYTE   W16
// 024   ----------------------------------------
 BYTE   Bn2  v124
 BYTE   N07  En3
 BYTE   W24
 BYTE   Bn2  v108
 BYTE   N07  En3
 BYTE   W24
 BYTE   Bn2  v116
 BYTE   N07  En3
 BYTE   W16
 BYTE   Bn2  v108
 BYTE   N07  En3
 BYTE   W16
 BYTE   Bn2
 BYTE   N07  En3
 BYTE   W16
// 025   ----------------------------------------
 BYTE   Bn2  v120
 BYTE   N07  En3
 BYTE   W16
 BYTE   Dn3  v124
 BYTE   N07  Gn3
 BYTE   W16
 BYTE   Dn3
 BYTE   N07  Gn3
 BYTE   W16
 BYTE   Cn3  v116
 BYTE   N07  Fn3
 BYTE   W16
 BYTE   Fn3  v127
 BYTE   N07  As3
 BYTE   W16
 BYTE   En3
 BYTE   N07  An3
 BYTE   W16
// 026   ----------------------------------------
 BYTE   Bn3  v124
 BYTE   N07  En4
 BYTE   W16
 BYTE   N03  Bn3  v104
 BYTE   N03  En4
 BYTE   W08
 BYTE   N07  Bn3  v116
 BYTE   N07  En4
 BYTE   W16
 BYTE   N03  Bn3  v104
 BYTE   N03  En4
 BYTE   W08
 BYTE   N07  Bn3  v124
 BYTE   N07  En4
 BYTE   W16
 BYTE   Bn3  v112
 BYTE   N07  En4
 BYTE   W16
 BYTE   Bn3  v116
 BYTE   N07  En4
 BYTE   W16
// 027   ----------------------------------------
 BYTE   Bn3  v124
 BYTE   N07  En4
 BYTE   W16
 BYTE   Dn4  v112
 BYTE   N07  Gn4
 BYTE   W16
 BYTE   Dn4  v120
 BYTE   N07  Gn4
 BYTE   W16
 BYTE   Cn4
 BYTE   N07  Fn4
 BYTE   W16
 BYTE   An3  v112
 BYTE   N07  Dn4
 BYTE   W16
 BYTE   Cn4  v120
 BYTE   N07  Fn4
 BYTE   W16
// 028   ----------------------------------------
 BYTE   Bn3  v124
 BYTE   N07  En4
 BYTE   W24
 BYTE   Bn3  v112
 BYTE   N07  En4
 BYTE   W24
 BYTE   Bn3  v116
 BYTE   N07  En4
 BYTE   W16
 BYTE   Bn3  v112
 BYTE   N07  En4
 BYTE   W16
 BYTE   Bn3  v116
 BYTE   N07  En4
 BYTE   W16
// 029   ----------------------------------------
 BYTE   Bn3  v120
 BYTE   N07  En4
 BYTE   W16
 BYTE   Dn4  v112
 BYTE   N07  Gn4
 BYTE   W16
 BYTE   Dn4  v116
 BYTE   N07  Gn4
 BYTE   W16
 BYTE   Cn4  v120
 BYTE   N07  Fn4
 BYTE   W16
 BYTE   Fn4  v112
 BYTE   N07  As4
 BYTE   W16
 BYTE   N07
 BYTE   N07  Cs5
 BYTE   W16
// 030   ----------------------------------------
 BYTE   VOL   53*PokemonBWVsTeamPlasma_mvl/mxv
 BYTE   W96
// 031   ----------------------------------------
 BYTE   W96
// 032   ----------------------------------------
 BYTE   W96
// 033   ----------------------------------------
 BYTE   W96
// 034   ----------------------------------------
 BYTE   VOICE   32
 BYTE   VOL   59*PokemonBWVsTeamPlasma_mvl/mxv
 BYTE   N68  Dn3  v116
 BYTE   N68  Dn4
 BYTE   W72
 BYTE   N23  An3  v100
 BYTE   N23  An4
 BYTE   W24
// 035   ----------------------------------------
 BYTE   N36  Fn3
 BYTE   N36  Fn4
 BYTE   W40
 BYTE   N30  As3
 BYTE   N30  As4
 BYTE   W32
 BYTE   N23  An3  v092
 BYTE   N23  An4
 BYTE   W24
// 036   ----------------------------------------
 BYTE   N07  Fn3  v100
 BYTE   N07  Fn4
 BYTE   W16
 BYTE   En3  v096
 BYTE   N07  En4
 BYTE   W08
 BYTE   N68  Dn3  v100
 BYTE   N68  Dn4
 BYTE   W72
// 037   ----------------------------------------
 BYTE   W96
// 038   ----------------------------------------
 BYTE   Dn3  v112
 BYTE   N68  Dn4
 BYTE   W72
 BYTE   N23  An3  v096
 BYTE   N23  An4
 BYTE   W24
// 039   ----------------------------------------
 BYTE   N36  Fn3  v112
 BYTE   N36  Fn4
 BYTE   W40
 BYTE   N30  As3  v104
 BYTE   N30  As4
 BYTE   W32
 BYTE   N23  An3  v108
 BYTE   N23  An4
 BYTE   W24
// 040   ----------------------------------------
 BYTE   N07  Fn3  v116
 BYTE   N07  Fn4
 BYTE   W16
 BYTE   En3  v108
 BYTE   N07  En4
 BYTE   W08
 BYTE   N68  Dn3  v104
 BYTE   N68  Dn4  v112
 BYTE   W72
// 041   ----------------------------------------
 BYTE   W96
// 042   ----------------------------------------
 BYTE   En3  v108
 BYTE   N68  En4
 BYTE   W72
 BYTE   N23  Bn3  v104
 BYTE   N23  Bn4
 BYTE   W24
// 043   ----------------------------------------
 BYTE   N36  An3  v116
 BYTE   N36  An4
 BYTE   W40
 BYTE   N30  Cn4  v108
 BYTE   N30  Cn5
 BYTE   W32
 BYTE   N23  Bn3  v116
 BYTE   N23  Bn4
 BYTE   W24
// 044   ----------------------------------------
 BYTE   N07  Gn3  v108
 BYTE   N07  Gn4
 BYTE   W16
 BYTE   An3
 BYTE   N07  An4
 BYTE   W08
 BYTE   N68  Bn3
 BYTE   N68  Bn4
 BYTE   W72
// 045   ----------------------------------------
 BYTE   W96
// 046   ----------------------------------------
 BYTE   W96
// 047   ----------------------------------------
 BYTE   W96
// 048   ----------------------------------------
 BYTE   VOICE   30
 BYTE   PAN   c_v-31
 BYTE   W96
// 049   ----------------------------------------
 BYTE   VOL   50*PokemonBWVsTeamPlasma_mvl/mxv
 BYTE   W48
 BYTE   VOICE   86
 BYTE   W24
 BYTE   N01  Bn2  v104
 BYTE   W02
 BYTE   Cn3
 BYTE   W02
 BYTE   Dn3
 BYTE   W02
 BYTE   En3
 BYTE   W02
 BYTE   Fn3
 BYTE   W02
 BYTE   Gn3
 BYTE   W02
 BYTE   PAN   c_v+21
 BYTE   N01  An3
 BYTE   W02
 BYTE   Bn3
 BYTE   W02
 BYTE   Cn4
 BYTE   W02
 BYTE   Dn4
 BYTE   W02
 BYTE   PAN   c_v+49
 BYTE   N01  En4
 BYTE   W02
 BYTE   Fn4
 BYTE   W02
// 050   ----------------------------------------
 BYTE   PAN   c_v+0
 BYTE   N92  Cn4  v100
 BYTE   N92  Ds4  v096
 BYTE   N92  Gn4  v108
 BYTE   W07
 BYTE   MOD 0
 BYTE   CsM2
 BYTE   W04
 BYTE   DnM2
 BYTE   W04
 BYTE   DsM2
 BYTE   W04
 BYTE   FnM2
 BYTE   W04
 BYTE   GnM2
 BYTE   W04
 BYTE   GsM2
 BYTE   W68
 BYTE   W01
// 051   ----------------------------------------
 BYTE   CnM2
 BYTE   N78  Cs4  v100
 BYTE   N78  Fn4  v096
 BYTE   N78  Gs4  v108
 BYTE   W13
 BYTE   MOD 0
 BYTE   CsM2
 BYTE   W04
 BYTE   DnM2
 BYTE   W04
 BYTE   DsM2
 BYTE   W04
 BYTE   EnM2
 BYTE   W04
 BYTE   FsM2
 BYTE   W04
 BYTE   GsM2
 BYTE   W44
 BYTE   W03
 BYTE   N03  Ds4  v104
 BYTE   N03  Gn4  v112
 BYTE   N03  As4
 BYTE   W08
 BYTE   Cs4  v096
 BYTE   N03  Fn4  v108
 BYTE   N03  Gs4
 BYTE   W08
// 052   ----------------------------------------
 BYTE   MOD 0
 BYTE   CnM2
 BYTE   N92  Cn4  v100
 BYTE   N92  Ds4  v096
 BYTE   N92  Gn4  v108
 BYTE   W16
 BYTE   MOD 0
 BYTE   CsM2
 BYTE   W04
 BYTE   DnM2
 BYTE   W04
 BYTE   DsM2
 BYTE   W04
 BYTE   FnM2
 BYTE   W04
 BYTE   FsM2
 BYTE   W04
 BYTE   GsM2
 BYTE   W60
// 053   ----------------------------------------
 BYTE   CnM2
 BYTE   N44  Gn2  v104
 BYTE   N44  Gn3  v100
 BYTE   N44  Cn4  v112
 BYTE   W48
 BYTE   PAN   c_v+38
 BYTE   N01  Fn3  v084
 BYTE   N01  Fn4
 BYTE   W02
 BYTE   En3  v080
 BYTE   N01  En4
 BYTE   W02
 BYTE   Dn3  v076
 BYTE   N01  Dn4
 BYTE   W02
 BYTE   PAN   c_v+22
 BYTE   N01  Cn3  v072
 BYTE   N01  Cn4
 BYTE   W02
 BYTE   Bn2
 BYTE   N01  Bn3
 BYTE   W02
 BYTE   PAN   c_v+9
 BYTE   N01  An2  v068
 BYTE   N01  An3
 BYTE   W02
 BYTE   Gn2  v072
 BYTE   N01  Gn3
 BYTE   W02
 BYTE   Fn2
 BYTE   N01  Fn3
 BYTE   W02
 BYTE   PAN   c_v-11
 BYTE   N01  En2
 BYTE   N01  En3
 BYTE   W02
 BYTE   Dn2  v076
 BYTE   N01  Dn3
 BYTE   W02
 BYTE   PAN   c_v-24
 BYTE   N01  Cn2  v080
 BYTE   N01  Cn3
 BYTE   W02
 BYTE   As2
 BYTE   W02
 BYTE   PAN   c_v-38
 BYTE   N01  Gs2  v072
 BYTE   W02
 BYTE   Fs2  v068
 BYTE   N01  Ds3  v092
 BYTE   W02
 BYTE   En3  v096
 BYTE   W02
 BYTE   Fs3
 BYTE   W02
 BYTE   Gs3  v092
 BYTE   W02
 BYTE   PAN   c_v+24
 BYTE   N01  An3  v096
 BYTE   W02
 BYTE   Bn3
 BYTE   W02
 BYTE   Cn4  v092
 BYTE   W02
 BYTE   PAN   c_v+40
 BYTE   N01  Cs4  v096
 BYTE   W02
 BYTE   Ds4
 BYTE   W02
 BYTE   PAN   c_v+43
 BYTE   N01  Fn4  v100
 BYTE   W02
 BYTE   Fs4  v104
 BYTE   W02
// 054   ----------------------------------------
 BYTE   PAN   c_v+0
 BYTE   N92  Cn4  v100
 BYTE   N92  Ds4  v096
 BYTE   N92  Gn4  v108
 BYTE   W17
 BYTE   MOD 0
 BYTE   DnM2
 BYTE   W04
 BYTE   DsM2
 BYTE   W04
 BYTE   EnM2
 BYTE   W04
 BYTE   FnM2
 BYTE   W04
 BYTE   FsM2
 BYTE   W60
 BYTE   W03
// 055   ----------------------------------------
 BYTE   CnM2
 BYTE   N78  Cs4  v100
 BYTE   N78  Fn4  v096
 BYTE   N78  Gs4  v108
 BYTE   W36
 BYTE   W03
 BYTE   MOD 0
 BYTE   CsM2
 BYTE   W04
 BYTE   DnM2
 BYTE   W04
 BYTE   DsM2
 BYTE   W04
 BYTE   FnM2
 BYTE   W28
 BYTE   W01
 BYTE   CnM2
 BYTE   N03  Ds4  v104
 BYTE   N03  Gn4  v112
 BYTE   N03  As4
 BYTE   W08
 BYTE   Cs4  v104
 BYTE   N03  Fn4  v112
 BYTE   N03  Gs4
 BYTE   W08
// 056   ----------------------------------------
 BYTE   N68  Cn4  v100
 BYTE   N68  Ds4  v096
 BYTE   N68  Gn4  v108
 BYTE   W28
 BYTE   W01
 BYTE   MOD 0
 BYTE   CsM2
 BYTE   W04
 BYTE   DnM2
 BYTE   W04
 BYTE   DsM2
 BYTE   W03
 BYTE   FnM2
 BYTE   W32
 BYTE   CnM2
 BYTE   N01  Bn2  v076
 BYTE   N01  Fn3
 BYTE   W02
 BYTE   Cn3  v080
 BYTE   N01  Fs3
 BYTE   W02
 BYTE   Dn3  v084
 BYTE   N01  Gs3
 BYTE   W02
 BYTE   En3
 BYTE   N01  As3
 BYTE   W02
 BYTE   Fn3
 BYTE   N01  Bn3
 BYTE   W02
 BYTE   Gn3
 BYTE   N01  Cs4
 BYTE   W02
 BYTE   An3  v088
 BYTE   N01  Ds4
 BYTE   W02
 BYTE   Bn3  v092
 BYTE   N01  Fn4
 BYTE   W02
 BYTE   Cn4  v096
 BYTE   N01  Fs4
 BYTE   W02
 BYTE   Dn4
 BYTE   N01  Gs4
 BYTE   W02
 BYTE   En4  v100
 BYTE   N01  As4
 BYTE   W02
 BYTE   Fn4  v104
 BYTE   N01  Bn4
 BYTE   W02
// 057   ----------------------------------------
 BYTE   N84  Cn4  v100
 BYTE   N84  Gn4  v092
 BYTE   N84  Cn5  v104
 BYTE   W24
 BYTE   MOD 0
 BYTE   CsM2
 BYTE   W04
 BYTE   DnM2
 BYTE   W04
 BYTE   DsM2
 BYTE   W04
 BYTE   EnM2
 BYTE   W04
 BYTE   FnM2
 BYTE   W48
 BYTE   CnM2
 BYTE   N07  As3  v108
 BYTE   N07  As4  v104
 BYTE   N07  Ds5  v116
 BYTE   W08
// 058   ----------------------------------------
 BYTE   W48
 BYTE   MOD 0
 BYTE   CsM2
 BYTE   W04
 BYTE   DnM2
 BYTE   W04
 BYTE   DsM2
 BYTE   W04
 BYTE   EnM2
 BYTE   W04
 BYTE   GnM2
 BYTE   W32
// 059   ----------------------------------------
 BYTE   W96
// 060   ----------------------------------------
 BYTE   W96
// 061   ----------------------------------------
 BYTE   CnM2
 BYTE   N92  Fn3  v088
 BYTE   N92  Cs4
 BYTE   N92  As4  v100
 BYTE   W40
 BYTE   MOD 0
 BYTE   CsM2
 BYTE   W04
 BYTE   DnM2
 BYTE   W04
 BYTE   EnM2
 BYTE   W04
 BYTE   FnM2
 BYTE   W44
// 062   ----------------------------------------
 BYTE   CnM2
 BYTE   N15  Gn3  v096
 BYTE   N15  Gn4  v108
 BYTE   N15  Cn5
 BYTE   W96
// 063   ----------------------------------------
 BYTE   W96
// 064   ----------------------------------------
 BYTE   W96
// 065   ----------------------------------------
 BYTE   W72
 BYTE   VOICE   88
 BYTE   W16
 BYTE   N07  Ds5  v068
 BYTE   W08
// 066   ----------------------------------------
 BYTE   N92  Cs3  v096
 BYTE   W96
// 067   ----------------------------------------
 BYTE   Fs3  v100
 BYTE   W96
// 068   ----------------------------------------
 BYTE   As3
 BYTE   N92  As5  v060
 BYTE   W96
// 069   ----------------------------------------
 BYTE   Cs4  v120
 BYTE   N92  As4  v092
 BYTE   N92  Gs5  v084
 BYTE   N92  Cs6  v068
 BYTE   W96
// 070   ----------------------------------------
 BYTE   N15  Gn4  v092
 BYTE   N15  Cn5
 BYTE   N15  Gn5  v056
 BYTE   N15  Cn6  v072
 BYTE   W15
 BYTE   N01  Bn5  v064
 BYTE   W01
 BYTE   An5  v032
 BYTE   W02
 BYTE   Gn5  v056
 BYTE   W01
 BYTE   Fn5  v044
 BYTE   W02
 BYTE   En5  v048
 BYTE   W01
 BYTE   Dn5  v044
 BYTE   W02
 BYTE   Cn5  v012
 BYTE   W01
 BYTE   As4  v036
 BYTE   W02
 BYTE   An4  v024
 BYTE   W01
 BYTE   Gn4  v028
 BYTE   W68
// 071   ----------------------------------------
 BYTE   W96
// 072   ----------------------------------------
 BYTE   W72
 BYTE   VOICE   30
 BYTE   W24
// 073   ----------------------------------------
 BYTE   VOL   65*PokemonBWVsTeamPlasma_mvl/mxv
 BYTE   W72
 BYTE   N07  Gs2  v112
 BYTE   N07  Gs3
 BYTE   W08
 BYTE   An2  v108
 BYTE   N07  An3
 BYTE   W08
 BYTE   Bn2  v116
 BYTE   N07  Bn3  v104
 BYTE   W07
 BYTE   GoTo
  POIN2 Label_0_011874AD
 BYTE   FINE

//**************** Track 2 (Midi-Chn.1) ****************//

PokemonBWVsTeamPlasma_002:
// 000   ----------------------------------------
 BYTE   KEYSH   PokemonBWVsTeamPlasma_key+0
 BYTE   VOICE   30
 BYTE   VOL   51*PokemonBWVsTeamPlasma_mvl/mxv
 BYTE   PAN   c_v+0
 BYTE   MOD 0
 BYTE   CnM2
 BYTE   VOL   60*PokemonBWVsTeamPlasma_mvl/mxv
 BYTE   N07  Dn2  v108
 BYTE   W08
 BYTE   Ds2
 BYTE   W08
 BYTE   En2
 BYTE   W08
 BYTE   Ds2
 BYTE   W08
 BYTE   En2
 BYTE   W08
 BYTE   Fn2
 BYTE   W08
 BYTE   En2
 BYTE   W08
 BYTE   Fn2
 BYTE   W08
 BYTE   Fs2
 BYTE   W08
 BYTE   Fn2
 BYTE   W08
 BYTE   Fs2
 BYTE   W08
 BYTE   Gn2
 BYTE   W08
// 001   ----------------------------------------
 BYTE   Fs1  v088
 BYTE   N07  Fs2  v108
 BYTE   W08
 BYTE   Gn1  v088
 BYTE   N07  Gn2  v080
 BYTE   W08
 BYTE   Gs1  v092
 BYTE   N07  Gs2  v084
 BYTE   W08
 BYTE   Gn1  v096
 BYTE   N07  Gn2  v084
 BYTE   W08
 BYTE   Gs1  v096
 BYTE   N07  Gs2  v084
 BYTE   W08
 BYTE   An1  v100
 BYTE   N07  An2  v092
 BYTE   W08
 BYTE   Gs1  v104
 BYTE   N07  Gs2  v092
 BYTE   W08
 BYTE   An1  v108
 BYTE   N07  An2  v100
 BYTE   W08
 BYTE   As1  v116
 BYTE   N07  As2  v104
 BYTE   W08
 BYTE   An1  v124
 BYTE   N07  An2  v112
 BYTE   W08
 BYTE   As1  v127
 BYTE   N07  As2  v120
 BYTE   W08
 BYTE   Bn1  v127
 BYTE   N07  Bn2  v120
 BYTE   W08
// 002   ----------------------------------------
 BYTE   VOL   46*PokemonBWVsTeamPlasma_mvl/mxv
 BYTE   PAN   c_v+49
 BYTE   N92  Cn3  v096
 BYTE   N92  Cn4
 BYTE   W72
 BYTE   MOD 0
 BYTE   BnM2
 BYTE   W24
// 003   ----------------------------------------
 BYTE   CnM2
 BYTE   N15  En3  v108
 BYTE   N15  En4
 BYTE   W16
 BYTE   Gn3
 BYTE   N15  Gn4
 BYTE   W16
 BYTE   En3
 BYTE   N15  En4
 BYTE   W16
 BYTE   Cn3
 BYTE   N15  Cn4
 BYTE   W16
 BYTE   Cs3
 BYTE   N15  Cs4
 BYTE   W16
 BYTE   As2
 BYTE   W16
// 004   ----------------------------------------
 BYTE   N92  Cn3
 BYTE   N92  Cn4
 BYTE   W72
 BYTE   MOD 0
 BYTE   AnM2
 BYTE   W24
// 005   ----------------------------------------
 BYTE   CnM2
 BYTE   N15  En3
 BYTE   N15  En4
 BYTE   W16
 BYTE   Gn3
 BYTE   N15  Gn4
 BYTE   W16
 BYTE   En3
 BYTE   N15  En4
 BYTE   W16
 BYTE   As3
 BYTE   N15  As4
 BYTE   W16
 BYTE   Fs3
 BYTE   N15  Fs4
 BYTE   W16
 BYTE   Gn3
 BYTE   N15  Gn4
 BYTE   W16
// 006   ----------------------------------------
 BYTE   VOICE   60
 BYTE   PAN   c_v+41
 BYTE   VOL   51*PokemonBWVsTeamPlasma_mvl/mxv
 BYTE   N07  Gn2  v120
 BYTE   N07  Cn4
 BYTE   N07  En4
 BYTE   N09  Cn5  v100
 BYTE   W24
 BYTE   N07  Cn4  v072
 BYTE   N07  En4
 BYTE   N09  Cn5
 BYTE   W72
// 007   ----------------------------------------
 BYTE   N07  Gn2  v120
 BYTE   N07  Cn4
 BYTE   N07  En4  v100
 BYTE   N07  Cn5
 BYTE   W64
 BYTE   N30  Fn3
 BYTE   N30  Cs4  v120
 BYTE   N30  Fn4  v100
 BYTE   N30  Cs5
 BYTE   W32
// 008   ----------------------------------------
 BYTE   N07  Cn3  v120
 BYTE   N07  Cn4
 BYTE   N07  En4  v100
 BYTE   N05  Cn5
 BYTE   W96
// 009   ----------------------------------------
 BYTE   N07  Cn3  v120
 BYTE   N07  Cn4
 BYTE   N07  En4  v124
 BYTE   N07  Cn5  v080
 BYTE   W08
 BYTE   Fn3  v120
 BYTE   N07  Fn5  v080
 BYTE   W08
 BYTE   N03  Ds3  v120
 BYTE   N03  Ds5  v080
 BYTE   W08
 BYTE   Fs2  v100
 BYTE   N03  En3
 BYTE   N03  Cn4
 BYTE   N03  Fs4
 BYTE   W16
 BYTE   Fs2  v104
 BYTE   N03  En3
 BYTE   N03  Cn4
 BYTE   N03  Fs4
 BYTE   W16
 BYTE   Fs2  v096
 BYTE   N03  En3
 BYTE   N03  Cn4
 BYTE   N03  Fs4
 BYTE   W16
 BYTE   N23  Fs3  v116
 BYTE   N23  As3
 BYTE   N23  Fs4
 BYTE   W14
 BYTE   MOD 0
 BYTE   An0
 BYTE   W10
// 010   ----------------------------------------
 BYTE   VOICE   60
 BYTE   VOL   44*PokemonBWVsTeamPlasma_mvl/mxv
 BYTE   PAN   c_v+30
 BYTE   MOD 0
 BYTE   CnM2
 BYTE   N68  Ds3  v104
 BYTE   N68  Gn3
 BYTE   W04
Label_1_01187A35:
 BYTE   W68
 BYTE   N23  Cn3  v104
 BYTE   N23  Fn3
 BYTE   W24
// 011   ----------------------------------------
 BYTE   N36  Ds3
 BYTE   N36  Gs3
 BYTE   W40
 BYTE   N30  Cn3
 BYTE   N30  Fn3
 BYTE   W32
 BYTE   N23  Gn3
 BYTE   N23  Bn3
 BYTE   W24
// 012   ----------------------------------------
 BYTE   N07  An2
 BYTE   N07  Ds3
 BYTE   W16
 BYTE   As2
 BYTE   N07  Fn3
 BYTE   W08
 BYTE   N68  Ds3
 BYTE   N68  Gn3
 BYTE   W72
// 013   ----------------------------------------
 BYTE   W96
// 014   ----------------------------------------
 BYTE   Ds3
 BYTE   N68  Gn3
 BYTE   W72
 BYTE   N23  Cn3
 BYTE   N23  Ds3
 BYTE   W24
// 015   ----------------------------------------
 BYTE   N36  Cn3
 BYTE   N36  Gs3
 BYTE   W40
 BYTE   N30  Fn3
 BYTE   N30  As3
 BYTE   W32
 BYTE   N23  Gs3
 BYTE   N23  Bn3
 BYTE   W24
// 016   ----------------------------------------
 BYTE   N07  Gn3
 BYTE   N07  Cn4
 BYTE   W16
 BYTE   Fn3
 BYTE   N07  As3
 BYTE   W08
 BYTE   N68  Ds3
 BYTE   N68  Gn3
 BYTE   W72
// 017   ----------------------------------------
 BYTE   W96
// 018   ----------------------------------------
 BYTE   Dn3
 BYTE   N68  An3
 BYTE   W72
 BYTE   N23  Cn3
 BYTE   N23  Fn3
 BYTE   W24
// 019   ----------------------------------------
 BYTE   N36  Ds3
 BYTE   N36  As3
 BYTE   W40
 BYTE   N30  Cn3
 BYTE   N30  An3
 BYTE   W32
 BYTE   N23
 BYTE   N23  Cs4
 BYTE   W24
// 020   ----------------------------------------
 BYTE   N07  Fn3
 BYTE   N07  Dn4
 BYTE   W16
 BYTE   Gn3
 BYTE   N07  En4
 BYTE   W08
 BYTE   N68  An3
 BYTE   N68  Fn4
 BYTE   W72
// 021   ----------------------------------------
 BYTE   W96
// 022   ----------------------------------------
Label_1_01187AA7:
 BYTE   N07  En2  v108
 BYTE   N07  Gn2
 BYTE   W24
 BYTE   En2
 BYTE   N07  Gn2
 BYTE   W24
 BYTE   En2
 BYTE   N07  Gn2
 BYTE   W16
 BYTE   En2
 BYTE   N07  Gn2
 BYTE   W16
 BYTE   En2
 BYTE   N07  Gn2
 BYTE   W16
 BYTE   PEND 
// 023   ----------------------------------------
 BYTE   En2
 BYTE   N07  Gn2
 BYTE   W16
 BYTE   N07
 BYTE   N07  As2
 BYTE   W16
 BYTE   Gn2
 BYTE   N07  As2
 BYTE   W16
 BYTE   Fn2
 BYTE   N07  Gs2
 BYTE   W16
 BYTE   Dn2
 BYTE   N07  Fn2
 BYTE   W16
 BYTE   N07
 BYTE   N07  Gs2
 BYTE   W16
 BYTE   PATT
  POIN2 Label_1_01187AA7
// 024   ----------------------------------------
 BYTE   N07  En2  v108
 BYTE   N07  Gn2
 BYTE   W16
 BYTE   N07
 BYTE   N07  As2
 BYTE   W16
 BYTE   Gn2
 BYTE   N07  As2
 BYTE   W16
 BYTE   Fn2
 BYTE   N07  Gs2
 BYTE   W16
 BYTE   As2
 BYTE   N07  Cs3
 BYTE   W16
 BYTE   An2
 BYTE   N07  Cn3
 BYTE   W16
// 025   ----------------------------------------
Label_1_01187AF5:
 BYTE   N07  En3  v108
 BYTE   N07  Gn3
 BYTE   W24
 BYTE   En3
 BYTE   N07  Gn3
 BYTE   W24
 BYTE   En3
 BYTE   N07  Gn3
 BYTE   W16
 BYTE   En3
 BYTE   N07  Gn3
 BYTE   W16
 BYTE   En3
 BYTE   N07  Gn3
 BYTE   W16
 BYTE   PEND 
// 026   ----------------------------------------
 BYTE   En3
 BYTE   N07  Gn3
 BYTE   W16
 BYTE   N07
 BYTE   N07  As3
 BYTE   W16
 BYTE   Gn3
 BYTE   N07  As3
 BYTE   W16
 BYTE   Fn3
 BYTE   N07  Gs3
 BYTE   W16
 BYTE   Dn3
 BYTE   N07  Fn3
 BYTE   W16
 BYTE   N07
 BYTE   N07  Gs3
 BYTE   W16
 BYTE   PATT
  POIN2 Label_1_01187AF5
// 027   ----------------------------------------
 BYTE   N07  En3  v108
 BYTE   N07  Gn3
 BYTE   W16
 BYTE   N07
 BYTE   N07  As3
 BYTE   W16
 BYTE   Gn3
 BYTE   N07  As3
 BYTE   W16
 BYTE   Fn3
 BYTE   N07  Gs3
 BYTE   W16
 BYTE   As3
 BYTE   N07  Cs4
 BYTE   W16
 BYTE   Dn4
 BYTE   N07  Fn4
 BYTE   W16
// 028   ----------------------------------------
 BYTE   PAN   c_v+35
 BYTE   N15  Gn3  v100
 BYTE   N15  Gn4
 BYTE   W16
 BYTE   As3  v080
 BYTE   N15  As4
 BYTE   W16
 BYTE   Gn3
 BYTE   N15  Gn4
 BYTE   W16
 BYTE   Dn3
 BYTE   N15  Dn4
 BYTE   W16
 BYTE   Gn3
 BYTE   N15  Gn4
 BYTE   W16
 BYTE   An3  v076
 BYTE   N15  An4
 BYTE   W16
// 029   ----------------------------------------
 BYTE   PAN   c_v-26
 BYTE   N15  Fs3  v100
 BYTE   N15  Fs4
 BYTE   W16
 BYTE   An3  v088
 BYTE   N15  An4
 BYTE   W16
 BYTE   Fs3  v080
 BYTE   N15  Fs4
 BYTE   W16
 BYTE   Dn3
 BYTE   N15  Dn4
 BYTE   W16
 BYTE   Fs3  v088
 BYTE   N15  Fs4
 BYTE   W16
 BYTE   An3  v084
 BYTE   N15  An4
 BYTE   W16
// 030   ----------------------------------------
 BYTE   PAN   c_v+37
 BYTE   N15  Gn3  v100
 BYTE   N15  Gn4
 BYTE   W16
 BYTE   As3  v080
 BYTE   N15  As4
 BYTE   W16
 BYTE   Gn3  v088
 BYTE   N15  Gn4
 BYTE   W16
 BYTE   Dn3
 BYTE   N15  Dn4
 BYTE   W16
 BYTE   Gn3
 BYTE   N15  Gn4
 BYTE   W16
 BYTE   An3  v084
 BYTE   N15  An4
 BYTE   W16
// 031   ----------------------------------------
 BYTE   PAN   c_v-18
 BYTE   N15  Fs3  v100
 BYTE   N15  Fs4
 BYTE   W16
 BYTE   An3  v080
 BYTE   N15  An4
 BYTE   W16
 BYTE   Fs3
 BYTE   N15  Fs4
 BYTE   W16
 BYTE   Dn3
 BYTE   N15  Dn4
 BYTE   W16
 BYTE   Fs3  v084
 BYTE   N15  Fs4
 BYTE   W16
 BYTE   An3
 BYTE   N15  An4
 BYTE   W16
// 032   ----------------------------------------
 BYTE   PAN   c_v+40
 BYTE   N68  Fn3  v100
 BYTE   N68  An3
 BYTE   W72
 BYTE   N23  Dn3
 BYTE   N23  Fn3
 BYTE   W24
// 033   ----------------------------------------
 BYTE   N36
 BYTE   N36  As3
 BYTE   W40
 BYTE   N30  Dn3
 BYTE   N30  Gn3
 BYTE   W32
 BYTE   N23  An3
 BYTE   N23  Cs4
 BYTE   W24
// 034   ----------------------------------------
 BYTE   N07  Dn3
 BYTE   N07  Fn3
 BYTE   W16
 BYTE   En3
 BYTE   N07  Gn3
 BYTE   W08
 BYTE   N68  Fn3
 BYTE   N68  An3
 BYTE   W72
// 035   ----------------------------------------
 BYTE   W96
// 036   ----------------------------------------
 BYTE   Fn3
 BYTE   N68  An3
 BYTE   W72
 BYTE   N23  Dn3
 BYTE   N23  Fn3
 BYTE   W24
// 037   ----------------------------------------
 BYTE   N36
 BYTE   N36  As3
 BYTE   W40
 BYTE   N30  Gn3
 BYTE   N30  Cn4
 BYTE   W32
 BYTE   N23  As3
 BYTE   N23  Cs4
 BYTE   W24
// 038   ----------------------------------------
 BYTE   N07  An3
 BYTE   N07  Dn4
 BYTE   W16
 BYTE   Gn3
 BYTE   N07  Cn4
 BYTE   W08
 BYTE   N68  Fn3
 BYTE   N68  An3
 BYTE   W72
// 039   ----------------------------------------
 BYTE   W96
// 040   ----------------------------------------
 BYTE   Gn3
 BYTE   N68  Bn3
 BYTE   W72
 BYTE   N23  En3
 BYTE   N23  Gn3
 BYTE   W24
// 041   ----------------------------------------
 BYTE   N36  An3
 BYTE   N36  Cn4
 BYTE   W40
 BYTE   N30  Fn3
 BYTE   N30  Bn3
 BYTE   W32
 BYTE   N23
 BYTE   N23  Ds4
 BYTE   W24
// 042   ----------------------------------------
 BYTE   N07  Gn3
 BYTE   N07  En4
 BYTE   W16
 BYTE   An3
 BYTE   N07  Fs4
 BYTE   W08
 BYTE   N68  Bn3
 BYTE   N68  Gn4
 BYTE   W72
// 043   ----------------------------------------
 BYTE   W96
// 044   ----------------------------------------
 BYTE   PAN   c_v+21
 BYTE   VOL   60*PokemonBWVsTeamPlasma_mvl/mxv
 BYTE   N15  Dn3  v116
 BYTE   N15  An3
 BYTE   W16
 BYTE   Ds3  v100
 BYTE   N15  As3
 BYTE   W16
 BYTE   Dn3
 BYTE   N15  An3
 BYTE   W16
 BYTE   Fn3  v112
 BYTE   N15  Cn4
 BYTE   W16
 BYTE   Ds3  v100
 BYTE   N15  As3
 BYTE   W16
 BYTE   Cn3
 BYTE   N15  Gn3
 BYTE   W16
// 045   ----------------------------------------
 BYTE   Dn3  v116
 BYTE   N15  An3
 BYTE   W16
 BYTE   Ds3  v100
 BYTE   N15  As3
 BYTE   W16
 BYTE   Fn3
 BYTE   N15  Cn4
 BYTE   W16
 BYTE   Ds3  v112
 BYTE   N15  As3
 BYTE   W16
 BYTE   Fn3  v100
 BYTE   N15  Cn4
 BYTE   W16
 BYTE   Gs3
 BYTE   N15  Ds4
 BYTE   W16
// 046   ----------------------------------------
 BYTE   Gn3  v116
 BYTE   N15  Dn4
 BYTE   W16
 BYTE   Gs3  v100
 BYTE   N15  Ds4
 BYTE   W16
 BYTE   Gn3
 BYTE   N15  Dn4
 BYTE   W16
 BYTE   As3  v120
 BYTE   N15  Fn4
 BYTE   W16
 BYTE   Gs3  v100
 BYTE   N15  Ds4
 BYTE   W16
 BYTE   Fn3
 BYTE   N15  Cn4
 BYTE   W16
// 047   ----------------------------------------
 BYTE   Gn3  v116
 BYTE   N15  Dn4
 BYTE   W16
 BYTE   Gs3  v100
 BYTE   N15  Ds4
 BYTE   W16
 BYTE   As3
 BYTE   N15  Fn4
 BYTE   W16
 BYTE   Gs3
 BYTE   N15  Ds4
 BYTE   W16
 BYTE   As3
 BYTE   N15  Fn4
 BYTE   W16
 BYTE   Cs4
 BYTE   N15  Gs4
 BYTE   W16
// 048   ----------------------------------------
 BYTE   PAN   c_v+51
 BYTE   VOL   40*PokemonBWVsTeamPlasma_mvl/mxv
 BYTE   N07  Cn3  v104
 BYTE   N07  Gn3  v112
 BYTE   W08
 BYTE   As2  v104
 BYTE   N07  Fn3  v112
 BYTE   W07
 BYTE   N78  Gn3
 BYTE   W01
 BYTE   Cn3  v104
 BYTE   W80
// 049   ----------------------------------------
 BYTE   Cs3  v108
 BYTE   N78  Gs3  v116
 BYTE   W80
 BYTE   N07  Ds3  v104
 BYTE   N07  As3  v112
 BYTE   W08
 BYTE   Cs3  v100
 BYTE   N07  Gs3  v108
 BYTE   W08
// 050   ----------------------------------------
Label_1_01187CD1:
 BYTE   N92  Cn3  v104
 BYTE   N92  Gn3  v112
 BYTE   W96
 BYTE   PEND 
// 051   ----------------------------------------
 BYTE   N44  Gn2  v104
 BYTE   N07  Cn3  v112
 BYTE   W08
 BYTE   As2
 BYTE   W08
 BYTE   N30  Cn3
 BYTE   W32
 BYTE   N11  Cn3  v080
 BYTE   N11  Ds3  v108
 BYTE   W24
 BYTE   N23  Ds3  v088
 BYTE   N23  Fn3  v112
 BYTE   W24
 BYTE   PATT
  POIN2 Label_1_01187CD1
// 052   ----------------------------------------
 BYTE   N78  Cs3  v104
 BYTE   N78  Gs3  v112
 BYTE   W80
 BYTE   N07  Ds3  v104
 BYTE   N07  As3  v112
 BYTE   W08
 BYTE   Cs3  v104
 BYTE   N07  Gs3  v112
 BYTE   W08
// 053   ----------------------------------------
 BYTE   N92  Cn3  v104
 BYTE   N44  Gn3  v112
 BYTE   W48
 BYTE   Fn3
 BYTE   W48
// 054   ----------------------------------------
 BYTE   N84  Gn3  v096
 BYTE   N44  Cn4  v108
 BYTE   W48
 BYTE   N32  Ds4
 BYTE   W40
 BYTE   N07  As3  v100
 BYTE   N07  Fn4
 BYTE   W08
// 055   ----------------------------------------
 BYTE   VOICE   88
 BYTE   PAN   c_v+35
 BYTE   VOL   45*PokemonBWVsTeamPlasma_mvl/mxv
 BYTE   N07  Cs4  v112
 BYTE   W08
 BYTE   Fn4  v104
 BYTE   W08
 BYTE   Gs4  v108
 BYTE   W08
 BYTE   PAN   c_v-24
 BYTE   N07  Cn5  v112
 BYTE   W08
 BYTE   Cs5  v104
 BYTE   W08
 BYTE   Cn5  v108
 BYTE   W08
 BYTE   PAN   c_v+35
 BYTE   N07  Gs4  v112
 BYTE   W08
 BYTE   Fn4  v104
 BYTE   W08
 BYTE   Cs4  v108
 BYTE   W08
 BYTE   PAN   c_v-24
 BYTE   N07  Gs3  v112
 BYTE   W08
 BYTE   Fn3  v104
 BYTE   W08
 BYTE   Gs3  v108
 BYTE   W08
// 056   ----------------------------------------
 BYTE   PAN   c_v+35
 BYTE   N07  Cs4  v112
 BYTE   W08
 BYTE   Fn4  v104
 BYTE   W08
 BYTE   Gs4  v108
 BYTE   W08
 BYTE   PAN   c_v-24
 BYTE   N07  Cn5  v112
 BYTE   W08
 BYTE   Cs5  v104
 BYTE   W08
 BYTE   Cn5
 BYTE   W08
 BYTE   PAN   c_v+35
 BYTE   N07  Gs4  v112
 BYTE   W08
 BYTE   Fn4  v104
 BYTE   W08
 BYTE   Cs4  v108
 BYTE   W08
 BYTE   PAN   c_v-24
 BYTE   N07  Gs3  v112
 BYTE   W08
 BYTE   Fn3  v104
 BYTE   W08
 BYTE   Gs3  v108
 BYTE   W08
// 057   ----------------------------------------
 BYTE   PAN   c_v+35
 BYTE   N07  Cs4  v112
 BYTE   W08
 BYTE   Fn4  v104
 BYTE   W08
 BYTE   Gs4  v108
 BYTE   W08
 BYTE   PAN   c_v-24
 BYTE   N07  Cn5  v112
 BYTE   W08
 BYTE   Cs5  v104
 BYTE   W08
 BYTE   Cn5  v108
 BYTE   W08
 BYTE   PAN   c_v+35
 BYTE   N07  Gs4  v112
 BYTE   W08
 BYTE   Fn4  v104
 BYTE   W08
 BYTE   Cs4  v108
 BYTE   W08
 BYTE   PAN   c_v-24
 BYTE   N07  Gs3  v112
 BYTE   W08
 BYTE   Fn3  v104
 BYTE   W08
 BYTE   Gs3  v108
 BYTE   W08
// 058   ----------------------------------------
 BYTE   PAN   c_v+35
 BYTE   N07  As3  v112
 BYTE   W08
 BYTE   Cs4  v104
 BYTE   W08
 BYTE   Fn4  v108
 BYTE   W08
 BYTE   PAN   c_v-24
 BYTE   N07  An4  v112
 BYTE   W08
 BYTE   As4  v104
 BYTE   W08
 BYTE   An4  v108
 BYTE   W08
 BYTE   PAN   c_v+35
 BYTE   N07  Fn4  v112
 BYTE   W08
 BYTE   Cs4  v104
 BYTE   W08
 BYTE   As3  v108
 BYTE   W08
 BYTE   PAN   c_v-24
 BYTE   N07  Fn3  v112
 BYTE   W08
 BYTE   Cs3  v104
 BYTE   W08
 BYTE   Fn3  v108
 BYTE   W08
// 059   ----------------------------------------
 BYTE   W96
// 060   ----------------------------------------
 BYTE   W96
// 061   ----------------------------------------
 BYTE   W96
// 062   ----------------------------------------
 BYTE   W88
 BYTE   Ds5  v100
 BYTE   W08
// 063   ----------------------------------------
Label_1_01187DEF:
 BYTE   PAN   c_v+25
 BYTE   N07  Cs4  v108
 BYTE   W08
 BYTE   Fs4  v096
 BYTE   W08
 BYTE   As4  v108
 BYTE   W08
 BYTE   PAN   c_v-24
 BYTE   N07  Cn5
 BYTE   W08
 BYTE   Cs5  v096
 BYTE   W08
 BYTE   Cn5  v108
 BYTE   W08
 BYTE   PAN   c_v+25
 BYTE   N07  As4
 BYTE   W08
 BYTE   Fs4  v096
 BYTE   W08
 BYTE   Cs4  v108
 BYTE   W08
 BYTE   PAN   c_v-24
 BYTE   N07  As3
 BYTE   W08
 BYTE   Fs3  v096
 BYTE   W08
 BYTE   As3  v108
 BYTE   W08
 BYTE   PEND 
 BYTE   PATT
  POIN2 Label_1_01187DEF
 BYTE   PATT
  POIN2 Label_1_01187DEF
// 064   ----------------------------------------
 BYTE   PAN   c_v+25
 BYTE   N07  As3  v108
 BYTE   W08
 BYTE   Cs4  v096
 BYTE   W08
 BYTE   Fn4  v108
 BYTE   W08
 BYTE   PAN   c_v-24
 BYTE   N07  Gs4
 BYTE   W08
 BYTE   As4  v096
 BYTE   W08
 BYTE   Gs4  v108
 BYTE   W08
 BYTE   PAN   c_v+25
 BYTE   N07  Fn4
 BYTE   W08
 BYTE   Cs4  v096
 BYTE   W08
 BYTE   As3  v108
 BYTE   W08
 BYTE   PAN   c_v-24
 BYTE   N07  Fn3
 BYTE   W08
 BYTE   Cs3  v096
 BYTE   W08
 BYTE   Fn3  v108
 BYTE   W08
// 065   ----------------------------------------
 BYTE   W96
// 066   ----------------------------------------
 BYTE   W96
// 067   ----------------------------------------
 BYTE   W96
// 068   ----------------------------------------
 BYTE   W92
 BYTE   W03
 BYTE   GoTo
  POIN2 Label_1_01187A35
 BYTE   FINE

//**************** Track 3 (Midi-Chn.2) ****************//

PokemonBWVsTeamPlasma_003:
// 000   ----------------------------------------
 BYTE   KEYSH   PokemonBWVsTeamPlasma_key+0
 BYTE   VOICE   49
 BYTE   VOL   56*PokemonBWVsTeamPlasma_mvl/mxv
 BYTE   PAN   c_v+0
 BYTE   MOD 0
 BYTE   CnM2
 BYTE   N15  Cn2  v127
 BYTE   W16
 BYTE   N07  Cn1  v096
 BYTE   W08
 BYTE   N15  Dn1  v088
 BYTE   W16
 BYTE   N07  Cs1  v080
 BYTE   W08
 BYTE   N15  Cn1  v096
 BYTE   W16
 BYTE   N07  Cs1  v088
 BYTE   W08
 BYTE   N15  Dn1  v100
 BYTE   W16
 BYTE   N07  Cs1  v096
 BYTE   W08
// 001   ----------------------------------------
 BYTE   N15  Cn1  v108
 BYTE   W16
 BYTE   N07  Cs1
 BYTE   W08
 BYTE   N15  Dn1  v120
 BYTE   W16
 BYTE   N07  Cs1  v116
 BYTE   W08
 BYTE   N15  Cn1  v124
 BYTE   W16
 BYTE   N07  Cs1  v120
 BYTE   W08
 BYTE   N15  Dn1  v127
 BYTE   W16
 BYTE   N07  Cs1  v124
 BYTE   W08
// 002   ----------------------------------------
 BYTE   VOICE   47
 BYTE   VOL   52*PokemonBWVsTeamPlasma_mvl/mxv
 BYTE   N14  Cn1  v127
 BYTE   W16
 BYTE   N07  Cs1  v120
 BYTE   W08
 BYTE   N14  Ds1
 BYTE   W16
 BYTE   N06  Cs1
 BYTE   W08
 BYTE   Cn1
 BYTE   W08
 BYTE   Gs0
 BYTE   W08
 BYTE   Cn1
 BYTE   W08
 BYTE   N14  Ds1
 BYTE   W16
 BYTE   N06  Cs1
 BYTE   W08
// 003   ----------------------------------------
 BYTE   N14  Cn1  v127
 BYTE   W16
 BYTE   N06  Cs1  v120
 BYTE   W08
 BYTE   N14  Ds1
 BYTE   W16
 BYTE   N06  Cs1
 BYTE   W08
 BYTE   Cn1
 BYTE   W08
 BYTE   Gs0
 BYTE   W08
 BYTE   Cn1
 BYTE   W08
 BYTE   N14  Ds1
 BYTE   W16
 BYTE   N06  Cs1
 BYTE   W08
// 004   ----------------------------------------
 BYTE   N14  Cn1
 BYTE   W16
 BYTE   N06  Cs1
 BYTE   W08
 BYTE   N14  Ds1
 BYTE   W16
 BYTE   N06  Cs1
 BYTE   W08
 BYTE   Cn1
 BYTE   W08
 BYTE   Gs0
 BYTE   W08
 BYTE   Cn1
 BYTE   W08
 BYTE   Ds1
 BYTE   W08
 BYTE   Cn1
 BYTE   W08
 BYTE   Cs1
 BYTE   W08
// 005   ----------------------------------------
 BYTE   N14  Cn1  v127
 BYTE   W16
 BYTE   N06  Cs1
 BYTE   W08
 BYTE   N14  Ds1
 BYTE   W16
 BYTE   N06  Cs1
 BYTE   W08
 BYTE   Cn1
 BYTE   W08
 BYTE   Gs0
 BYTE   W08
 BYTE   Cn1
 BYTE   W08
 BYTE   N14  Ds1
 BYTE   W16
 BYTE   N06  Cs1
 BYTE   W08
// 006   ----------------------------------------
 BYTE   VOICE   49
 BYTE   VOL   50*PokemonBWVsTeamPlasma_mvl/mxv
 BYTE   N11  Cn1
 BYTE   W16
 BYTE   N06  Cs1  v120
 BYTE   W08
 BYTE   N14  Ds1
 BYTE   W16
 BYTE   N06  Cs1
 BYTE   W08
 BYTE   Cn1
 BYTE   W08
 BYTE   Gs0
 BYTE   W08
 BYTE   Cn1
 BYTE   W08
 BYTE   N14  Ds1
 BYTE   W16
 BYTE   N06  Cs1
 BYTE   W08
// 007   ----------------------------------------
 BYTE   N15  Cn1  v127
 BYTE   W16
 BYTE   N06  Cs1  v120
 BYTE   W08
 BYTE   N14  Ds1
 BYTE   W16
 BYTE   N06  Cs1
 BYTE   W08
 BYTE   Cn1
 BYTE   W08
 BYTE   Gs0
 BYTE   W08
 BYTE   Cn1
 BYTE   W08
 BYTE   N14  Ds1
 BYTE   W16
 BYTE   N06  Cs1
 BYTE   W08
// 008   ----------------------------------------
 BYTE   N15  Cn1  v127
 BYTE   W16
 BYTE   N06  Cs1  v120
 BYTE   W08
 BYTE   N14  Ds1
 BYTE   W16
 BYTE   N06  Cs1
 BYTE   W08
 BYTE   Cn1
 BYTE   W08
 BYTE   Gs0
 BYTE   W08
 BYTE   Cn1
 BYTE   W08
 BYTE   Ds1
 BYTE   W08
 BYTE   Cn1
 BYTE   W08
 BYTE   Cs1
 BYTE   W08
// 009   ----------------------------------------
 BYTE   N14  Cn1
 BYTE   W16
 BYTE   N06  Cs1
 BYTE   W08
 BYTE   N14  Ds1
 BYTE   W16
 BYTE   N06  Cs1
 BYTE   W08
 BYTE   Cn1
 BYTE   W08
 BYTE   Fs0
 BYTE   W08
 BYTE   VOL   61*PokemonBWVsTeamPlasma_mvl/mxv
 BYTE   N07  As0
 BYTE   W08
 BYTE   Cn1
 BYTE   W08
 BYTE   Fs1
 BYTE   W08
 BYTE   Cn2
 BYTE   W08
// 010   ----------------------------------------
 BYTE   N14  Cn1  v127
 BYTE   W04
Label_2_01187F82:
 BYTE   W12
 BYTE   N06  Cs1  v120
 BYTE   W08
 BYTE   N14  Ds1
 BYTE   W16
 BYTE   N06  Cs1
 BYTE   W08
 BYTE   Cn1
 BYTE   W08
 BYTE   Gn1
 BYTE   W08
 BYTE   Ds1
 BYTE   W08
 BYTE   Gs1
 BYTE   W08
 BYTE   Gn1
 BYTE   W08
 BYTE   Bn1
 BYTE   W08
// 011   ----------------------------------------
Label_2_01187F99:
 BYTE   N14  Cn1  v127
 BYTE   W16
 BYTE   N06  Cs1  v120
 BYTE   W08
 BYTE   N14  Ds1
 BYTE   W16
 BYTE   N06  Cs1
 BYTE   W08
 BYTE   Cn1
 BYTE   W08
 BYTE   Gn1
 BYTE   W08
 BYTE   Ds1
 BYTE   W08
 BYTE   Gs1
 BYTE   W08
 BYTE   Gn1
 BYTE   W08
 BYTE   Bn1
 BYTE   W08
 BYTE   PEND 
 BYTE   PATT
  POIN2 Label_2_01187F99
 BYTE   PATT
  POIN2 Label_2_01187F99
 BYTE   PATT
  POIN2 Label_2_01187F99
 BYTE   PATT
  POIN2 Label_2_01187F99
 BYTE   PATT
  POIN2 Label_2_01187F99
// 012   ----------------------------------------
 BYTE   N14  Cn1  v127
 BYTE   W16
 BYTE   N06  Dn1  v120
 BYTE   W08
 BYTE   N15  Ds1
 BYTE   W16
 BYTE   N06  Dn1
 BYTE   W08
 BYTE   Cn1
 BYTE   W08
 BYTE   Dn1
 BYTE   W08
 BYTE   Ds1
 BYTE   W08
 BYTE   N23  Gn1  v127
 BYTE   W06
 BYTE   MOD 0
 BYTE   Bn0
 BYTE   W06
 BYTE   Fn1
 BYTE   W12
// 013   ----------------------------------------
 BYTE   CnM2
 BYTE   N14  Dn1
 BYTE   W16
 BYTE   N06  Ds1  v120
 BYTE   W08
 BYTE   N14  Fn1
 BYTE   W16
 BYTE   N06  Ds1
 BYTE   W08
 BYTE   Dn1
 BYTE   W08
 BYTE   An1
 BYTE   W08
 BYTE   Fn1
 BYTE   W08
 BYTE   As1
 BYTE   W08
 BYTE   An1
 BYTE   W08
 BYTE   Cs2
 BYTE   W08
// 014   ----------------------------------------
Label_2_01188004:
 BYTE   N14  Dn1  v120
 BYTE   W16
 BYTE   N06  Ds1
 BYTE   W08
 BYTE   N14  Fn1
 BYTE   W16
 BYTE   N06  Ds1
 BYTE   W08
 BYTE   Dn1
 BYTE   W08
 BYTE   An1
 BYTE   W08
 BYTE   Fn1
 BYTE   W08
 BYTE   As1
 BYTE   W08
 BYTE   An1
 BYTE   W08
 BYTE   Cs2
 BYTE   W08
 BYTE   PEND 
 BYTE   PATT
  POIN2 Label_2_01188004
// 015   ----------------------------------------
 BYTE   N14  Dn1  v120
 BYTE   W16
 BYTE   N06  Ds1
 BYTE   W08
 BYTE   N14  Fn1
 BYTE   W16
 BYTE   N06  Ds1
 BYTE   W08
 BYTE   Dn1
 BYTE   W08
 BYTE   An1
 BYTE   W08
 BYTE   Fn1
 BYTE   W08
 BYTE   Bn0
 BYTE   W08
 BYTE   Dn1
 BYTE   W08
 BYTE   Bn0
 BYTE   W08
// 016   ----------------------------------------
Label_2_0118803C:
 BYTE   N06  En1  v120
 BYTE   W24
 BYTE   N06
 BYTE   W24
 BYTE   N06
 BYTE   W16
 BYTE   N06
 BYTE   W16
 BYTE   N06
 BYTE   W16
 BYTE   PEND 
// 017   ----------------------------------------
Label_2_01188049:
 BYTE   N06  En1  v120
 BYTE   W16
 BYTE   Gn1
 BYTE   W16
 BYTE   N06
 BYTE   W16
 BYTE   Fn1
 BYTE   W16
 BYTE   Dn1
 BYTE   W16
 BYTE   Fn1
 BYTE   W16
 BYTE   PEND 
 BYTE   PATT
  POIN2 Label_2_0118803C
// 018   ----------------------------------------
 BYTE   N06  En1  v120
 BYTE   W16
 BYTE   Gn1
 BYTE   W16
 BYTE   N06
 BYTE   W16
 BYTE   Fn1
 BYTE   W16
 BYTE   As1
 BYTE   W16
 BYTE   An1
 BYTE   W16
 BYTE   PATT
  POIN2 Label_2_0118803C
 BYTE   PATT
  POIN2 Label_2_01188049
 BYTE   PATT
  POIN2 Label_2_0118803C
// 019   ----------------------------------------
 BYTE   N06  En1  v120
 BYTE   W16
 BYTE   Gn1
 BYTE   W16
 BYTE   N06
 BYTE   W16
 BYTE   Fn1
 BYTE   W16
 BYTE   As1
 BYTE   W16
 BYTE   Cs2
 BYTE   W16
 BYTE   PATT
  POIN2 Label_2_01188004
 BYTE   PATT
  POIN2 Label_2_01188004
 BYTE   PATT
  POIN2 Label_2_01188004
 BYTE   PATT
  POIN2 Label_2_01188004
// 020   ----------------------------------------
 BYTE   W96
// 021   ----------------------------------------
 BYTE   W96
// 022   ----------------------------------------
 BYTE   W96
// 023   ----------------------------------------
 BYTE   VOICE   49
 BYTE   N15  Cs2  v124
 BYTE   W08
 BYTE   BEND   c_v+5
 BYTE   W16
 BYTE   En3
 BYTE   N03  Cs1  v120
 BYTE   W16
 BYTE   N07  Dn1
 BYTE   W08
 BYTE   N03  An1
 BYTE   W08
 BYTE   Fn1
 BYTE   W08
 BYTE   N03
 BYTE   W08
 BYTE   Fn2
 BYTE   W08
 BYTE   N07  Cs1
 BYTE   W08
 BYTE   N03  Dn1
 BYTE   W08
 BYTE   PATT
  POIN2 Label_2_01188004
 BYTE   PATT
  POIN2 Label_2_01188004
 BYTE   PATT
  POIN2 Label_2_01188004
 BYTE   PATT
  POIN2 Label_2_01188004
// 024   ----------------------------------------
Label_2_011880D3:
 BYTE   N14  En1  v120
 BYTE   W16
 BYTE   N06  Fn1
 BYTE   W08
 BYTE   N14  Gn1
 BYTE   W16
 BYTE   N06  Fn1
 BYTE   W08
 BYTE   En1
 BYTE   W08
 BYTE   Bn1
 BYTE   W08
 BYTE   Gn1
 BYTE   W08
 BYTE   Cn2
 BYTE   W08
 BYTE   Bn1
 BYTE   W08
 BYTE   Ds2
 BYTE   W08
 BYTE   PEND 
 BYTE   PATT
  POIN2 Label_2_011880D3
 BYTE   PATT
  POIN2 Label_2_011880D3
 BYTE   PATT
  POIN2 Label_2_011880D3
// 025   ----------------------------------------
 BYTE   N14  Dn1  v120
 BYTE   W16
 BYTE   Ds1
 BYTE   W16
 BYTE   Dn1
 BYTE   W16
 BYTE   Fn1
 BYTE   W16
 BYTE   Ds1
 BYTE   W16
 BYTE   Cn1
 BYTE   W16
// 026   ----------------------------------------
 BYTE   Dn1
 BYTE   W16
 BYTE   Ds1
 BYTE   W16
 BYTE   Fn1
 BYTE   W16
 BYTE   Ds1
 BYTE   W16
 BYTE   Fn1
 BYTE   W16
 BYTE   Gs1
 BYTE   W16
// 027   ----------------------------------------
 BYTE   Gn1
 BYTE   W16
 BYTE   Gs1
 BYTE   W16
 BYTE   Gn1
 BYTE   W16
 BYTE   As1
 BYTE   W16
 BYTE   Gs1
 BYTE   W16
 BYTE   Fn1
 BYTE   W16
// 028   ----------------------------------------
 BYTE   Gn1
 BYTE   W16
 BYTE   Gs1
 BYTE   W16
 BYTE   As1
 BYTE   W16
 BYTE   Gs1
 BYTE   W16
 BYTE   Fn1
 BYTE   W16
 BYTE   Cs1
 BYTE   W16
// 029   ----------------------------------------
Label_2_0118812E:
 BYTE   N14  Cn1  v120
 BYTE   W16
 BYTE   N06  Ds1
 BYTE   W08
 BYTE   N14  Gn1
 BYTE   W16
 BYTE   N06  Ds1
 BYTE   W08
 BYTE   Cn1
 BYTE   W08
 BYTE   Ds1
 BYTE   W08
 BYTE   Gn1
 BYTE   W08
 BYTE   N14  Ds1
 BYTE   W16
 BYTE   N06  Gn1
 BYTE   W08
 BYTE   PEND 
// 030   ----------------------------------------
Label_2_01188148:
 BYTE   N14  Cn1  v120
 BYTE   W16
 BYTE   N06  Fn1
 BYTE   W08
 BYTE   N14  Gs1
 BYTE   W16
 BYTE   N06  Fn1
 BYTE   W08
 BYTE   Cn1
 BYTE   W08
 BYTE   Fn1
 BYTE   W08
 BYTE   Gs1
 BYTE   W08
 BYTE   N14  Fn1
 BYTE   W16
 BYTE   N06  Gs1
 BYTE   W08
 BYTE   PEND 
 BYTE   PATT
  POIN2 Label_2_0118812E
 BYTE   PATT
  POIN2 Label_2_0118812E
 BYTE   PATT
  POIN2 Label_2_0118812E
 BYTE   PATT
  POIN2 Label_2_01188148
 BYTE   PATT
  POIN2 Label_2_0118812E
// 031   ----------------------------------------
 BYTE   N14  Cn1  v120
 BYTE   W16
 BYTE   N06  Gn1
 BYTE   W08
 BYTE   N14  Cn2
 BYTE   W16
 BYTE   N06  Gn1
 BYTE   W08
 BYTE   Cn1
 BYTE   W08
 BYTE   Gn1
 BYTE   W08
 BYTE   Cn2
 BYTE   W08
 BYTE   N14  Gn1
 BYTE   W16
 BYTE   N06  Cn2
 BYTE   W08
// 032   ----------------------------------------
Label_2_01188194:
 BYTE   N14  Cs1  v120
 BYTE   W16
 BYTE   N06  Fs1
 BYTE   W08
 BYTE   N14  Gs1
 BYTE   W16
 BYTE   N06  Cs2
 BYTE   W08
 BYTE   Cs1
 BYTE   W08
 BYTE   Fs1
 BYTE   W08
 BYTE   Cs2
 BYTE   W08
 BYTE   N14  Gs1
 BYTE   W16
 BYTE   N06  Cs2
 BYTE   W08
 BYTE   PEND 
// 033   ----------------------------------------
 BYTE   N14  Cs1
 BYTE   W16
 BYTE   N06  Fs1
 BYTE   W08
 BYTE   N14  Gs1
 BYTE   W16
 BYTE   N06  Fs1
 BYTE   W08
 BYTE   Cs1
 BYTE   W08
 BYTE   Fs1
 BYTE   W08
 BYTE   Cs2
 BYTE   W08
 BYTE   N14  Fs1
 BYTE   W16
 BYTE   N06  Cs2
 BYTE   W08
 BYTE   PATT
  POIN2 Label_2_01188194
// 034   ----------------------------------------
Label_2_011881CB:
 BYTE   N14  As0  v120
 BYTE   W16
 BYTE   N06  Ds1
 BYTE   W08
 BYTE   N14  Fn1
 BYTE   W16
 BYTE   N06  Ds1
 BYTE   W08
 BYTE   As0
 BYTE   W08
 BYTE   Ds1
 BYTE   W08
 BYTE   As1
 BYTE   W08
 BYTE   N14  Ds1
 BYTE   W16
 BYTE   N06  As1
 BYTE   W08
 BYTE   PEND 
// 035   ----------------------------------------
Label_2_011881E5:
 BYTE   N14  Cn1  v120
 BYTE   W16
 BYTE   N06  Fn1
 BYTE   W08
 BYTE   N14  Gn1
 BYTE   W16
 BYTE   N06  Cn2  v116
 BYTE   W08
 BYTE   Cn1  v120
 BYTE   W08
 BYTE   Fn1
 BYTE   W08
 BYTE   Cn2  v116
 BYTE   W08
 BYTE   N14  Gn1  v120
 BYTE   W16
 BYTE   N06  Cn2  v116
 BYTE   W08
 BYTE   PEND 
 BYTE   PATT
  POIN2 Label_2_011881E5
 BYTE   PATT
  POIN2 Label_2_011881E5
 BYTE   PATT
  POIN2 Label_2_011881E5
// 036   ----------------------------------------
Label_2_01188213:
 BYTE   N14  Cs1  v120
 BYTE   W16
 BYTE   N06  Fs1
 BYTE   W08
 BYTE   N14  Gs1
 BYTE   W16
 BYTE   N06  Cs2  v116
 BYTE   W08
 BYTE   Cs1  v120
 BYTE   W08
 BYTE   Fs1
 BYTE   W08
 BYTE   Cs2  v116
 BYTE   W08
 BYTE   N14  Gs1  v120
 BYTE   W16
 BYTE   N06  Cs2  v116
 BYTE   W08
 BYTE   PEND 
// 037   ----------------------------------------
 BYTE   N14  Cs1  v120
 BYTE   W16
 BYTE   N06  Fs1
 BYTE   W08
 BYTE   N14  Gs1
 BYTE   W16
 BYTE   N06  Fs1
 BYTE   W08
 BYTE   Cs1
 BYTE   W08
 BYTE   Fs1
 BYTE   W08
 BYTE   Cs2  v116
 BYTE   W08
 BYTE   N14  Fs1  v120
 BYTE   W16
 BYTE   N06  Cs2  v116
 BYTE   W08
 BYTE   PATT
  POIN2 Label_2_01188213
 BYTE   PATT
  POIN2 Label_2_011881CB
 BYTE   PATT
  POIN2 Label_2_011881E5
 BYTE   PATT
  POIN2 Label_2_011881E5
 BYTE   PATT
  POIN2 Label_2_011881E5
// 038   ----------------------------------------
 BYTE   N14  Cn1  v120
 BYTE   W16
 BYTE   N06  Fn1
 BYTE   W08
 BYTE   N14  Gn1
 BYTE   W16
 BYTE   N06  Cn2  v116
 BYTE   W08
 BYTE   Cn1  v120
 BYTE   W08
 BYTE   Fn1
 BYTE   W08
 BYTE   Cn2  v116
 BYTE   W08
 BYTE   N14  Cs2
 BYTE   W16
 BYTE   N06  Cn2
 BYTE   W07
 BYTE   GoTo
  POIN2 Label_2_01187F82
 BYTE   FINE

//**************** Track 4 (Midi-Chn.3) ****************//

PokemonBWVsTeamPlasma_004:
// 000   ----------------------------------------
 BYTE   KEYSH   PokemonBWVsTeamPlasma_key+0
 BYTE   VOICE   48
 BYTE   VOL   40*PokemonBWVsTeamPlasma_mvl/mxv
 BYTE   PAN   c_v+0
 BYTE   MOD 0
 BYTE   CnM2
 BYTE   W96
// 001   ----------------------------------------
 BYTE   W92
 BYTE   VOICE   63
 BYTE   W04
// 002   ----------------------------------------
 BYTE   PAN   c_v+38
 BYTE   N15  Cn1  v116
 BYTE   W16
 BYTE   N07  Cs1  v104
 BYTE   W08
 BYTE   Ds1  v112
 BYTE   W16
 BYTE   Cs1  v104
 BYTE   W08
 BYTE   Cn1  v112
 BYTE   W08
 BYTE   Gs0  v104
 BYTE   W08
 BYTE   Cn1  v112
 BYTE   W08
 BYTE   Ds1  v116
 BYTE   W16
 BYTE   Cs1  v108
 BYTE   W08
// 003   ----------------------------------------
 BYTE   N15  Cn1  v116
 BYTE   W16
 BYTE   N07  Cs1  v108
 BYTE   W08
 BYTE   Ds1  v116
 BYTE   W16
 BYTE   Cs1  v108
 BYTE   W08
 BYTE   Cn1  v112
 BYTE   W08
 BYTE   Gs0  v108
 BYTE   W08
 BYTE   Cn1  v112
 BYTE   W08
 BYTE   Ds1  v116
 BYTE   W16
 BYTE   Cs1  v108
 BYTE   W08
// 004   ----------------------------------------
 BYTE   N15  Cn1  v116
 BYTE   W16
 BYTE   N07  Cs1  v108
 BYTE   W08
 BYTE   Ds1  v112
 BYTE   W16
 BYTE   Cs1  v108
 BYTE   W08
 BYTE   Cn1  v112
 BYTE   W08
 BYTE   Gs0  v108
 BYTE   W08
 BYTE   Cn1  v112
 BYTE   W08
 BYTE   Ds1
 BYTE   W08
 BYTE   Cn1  v108
 BYTE   W08
 BYTE   Cs1  v112
 BYTE   W08
// 005   ----------------------------------------
 BYTE   N15  Cn1  v120
 BYTE   W16
 BYTE   N07  Cs1  v112
 BYTE   W08
 BYTE   Ds1  v116
 BYTE   W16
 BYTE   Cs1  v112
 BYTE   W08
 BYTE   Cn1  v116
 BYTE   W08
 BYTE   Gs0  v112
 BYTE   W08
 BYTE   Cn1  v116
 BYTE   W08
 BYTE   Ds1  v120
 BYTE   W16
 BYTE   Cs1  v116
 BYTE   W08
// 006   ----------------------------------------
 BYTE   N15  Cn1
 BYTE   W16
 BYTE   N07  Cs1  v112
 BYTE   W08
 BYTE   Ds1  v116
 BYTE   W16
 BYTE   Cs1  v112
 BYTE   W08
 BYTE   Cn1  v116
 BYTE   W08
 BYTE   Gs0  v112
 BYTE   W08
 BYTE   Cn1  v116
 BYTE   W08
 BYTE   Ds1
 BYTE   W16
 BYTE   Cs1  v112
 BYTE   W08
// 007   ----------------------------------------
 BYTE   N15  Cn1  v116
 BYTE   W16
 BYTE   N07  Cs1  v108
 BYTE   W08
 BYTE   Ds1  v116
 BYTE   W16
 BYTE   Cs1  v112
 BYTE   W08
 BYTE   Cn1
 BYTE   W08
 BYTE   Gs0  v108
 BYTE   W08
 BYTE   Cn1  v112
 BYTE   W08
 BYTE   Ds1  v116
 BYTE   W16
 BYTE   Cs1  v108
 BYTE   W08
// 008   ----------------------------------------
 BYTE   N15  Cn1  v116
 BYTE   W16
 BYTE   N07  Cs1  v108
 BYTE   W08
 BYTE   Ds1  v116
 BYTE   W16
 BYTE   Cs1  v112
 BYTE   W08
 BYTE   Cn1  v116
 BYTE   W08
 BYTE   Gs0  v108
 BYTE   W08
 BYTE   Cn1  v116
 BYTE   W08
 BYTE   Ds1
 BYTE   W08
 BYTE   Cn1  v108
 BYTE   W08
 BYTE   Cs1  v112
 BYTE   W08
// 009   ----------------------------------------
 BYTE   N15  Cn1  v116
 BYTE   W16
 BYTE   N07  Cs1  v108
 BYTE   W08
 BYTE   Ds1  v116
 BYTE   W16
 BYTE   Cs1  v108
 BYTE   W08
 BYTE   Cn1  v116
 BYTE   W48
// 010   ----------------------------------------
 BYTE   W04
Label_3_0118837B:
 BYTE   W92
// 011   ----------------------------------------
 BYTE   W96
// 012   ----------------------------------------
 BYTE   W96
// 013   ----------------------------------------
 BYTE   VOICE   75
 BYTE   VOL   52*PokemonBWVsTeamPlasma_mvl/mxv
 BYTE   PAN   c_v-5
 BYTE   N15  Gn3  v120
 BYTE   W16
 BYTE   N07  Gs3  v112
 BYTE   W08
 BYTE   N44  As3  v120
 BYTE   W48
 BYTE   N15  Gs3
 BYTE   W08
 BYTE   BEND   c_v+13
 BYTE   W08
 BYTE   En3
 BYTE   N07  Gs3  v112
 BYTE   W08
// 014   ----------------------------------------
 BYTE   N68  Gn3  v120
 BYTE   W96
// 015   ----------------------------------------
 BYTE   W96
// 016   ----------------------------------------
 BYTE   W96
// 017   ----------------------------------------
 BYTE   N15
 BYTE   W16
 BYTE   N07  Gs3  v112
 BYTE   W08
 BYTE   N44  As3  v120
 BYTE   W48
 BYTE   N23  Cn4
 BYTE   W24
// 018   ----------------------------------------
 BYTE   W96
// 019   ----------------------------------------
 BYTE   W96
// 020   ----------------------------------------
 BYTE   W96
// 021   ----------------------------------------
 BYTE   W96
// 022   ----------------------------------------
 BYTE   W96
// 023   ----------------------------------------
 BYTE   W96
// 024   ----------------------------------------
 BYTE   W96
// 025   ----------------------------------------
 BYTE   W96
// 026   ----------------------------------------
 BYTE   W96
// 027   ----------------------------------------
 BYTE   W96
// 028   ----------------------------------------
 BYTE   W96
// 029   ----------------------------------------
 BYTE   W96
// 030   ----------------------------------------
 BYTE   W96
// 031   ----------------------------------------
 BYTE   W96
// 032   ----------------------------------------
 BYTE   W96
// 033   ----------------------------------------
 BYTE   W96
// 034   ----------------------------------------
 BYTE   VOICE   30
 BYTE   PAN   c_v+40
 BYTE   VOL   51*PokemonBWVsTeamPlasma_mvl/mxv
 BYTE   N68  Dn3  v116
 BYTE   W72
 BYTE   N23  An3  v108
 BYTE   W24
// 035   ----------------------------------------
 BYTE   N36  Fn3  v116
 BYTE   W40
 BYTE   N30  As3
 BYTE   W32
 BYTE   N23  An3  v112
 BYTE   W24
// 036   ----------------------------------------
 BYTE   N07  Fn3  v116
 BYTE   W16
 BYTE   En3  v112
 BYTE   W08
 BYTE   N68  Dn3  v116
 BYTE   W72
// 037   ----------------------------------------
 BYTE   W96
// 038   ----------------------------------------
 BYTE   N68
 BYTE   W72
 BYTE   N23  An3  v112
 BYTE   W24
// 039   ----------------------------------------
 BYTE   N36  Fn3  v116
 BYTE   W40
 BYTE   N30  As3  v112
 BYTE   W32
 BYTE   N23  Gn3  v116
 BYTE   W24
// 040   ----------------------------------------
 BYTE   N07  An3
 BYTE   W16
 BYTE   Gn3  v112
 BYTE   W08
 BYTE   N68  Fn3  v116
 BYTE   W72
// 041   ----------------------------------------
 BYTE   W96
// 042   ----------------------------------------
 BYTE   En3
 BYTE   W72
 BYTE   N23  Bn3  v112
 BYTE   W24
// 043   ----------------------------------------
 BYTE   N36  An3  v116
 BYTE   W40
 BYTE   N30  Cn4  v112
 BYTE   W32
 BYTE   N23  Bn3  v116
 BYTE   W24
// 044   ----------------------------------------
 BYTE   N07  Gn3
 BYTE   W16
 BYTE   An3  v112
 BYTE   W08
 BYTE   N68  Bn3  v116
 BYTE   W72
// 045   ----------------------------------------
 BYTE   W96
// 046   ----------------------------------------
 BYTE   W96
// 047   ----------------------------------------
 BYTE   W96
// 048   ----------------------------------------
 BYTE   PAN   c_v+50
 BYTE   VOL   52*PokemonBWVsTeamPlasma_mvl/mxv
 BYTE   N15  Gn2
 BYTE   N15  Dn3
 BYTE   W16
 BYTE   Gs2  v108
 BYTE   N15  Ds3
 BYTE   W16
 BYTE   Gn2  v112
 BYTE   N15  Dn3
 BYTE   W16
 BYTE   As2  v120
 BYTE   N15  Fn3
 BYTE   W16
 BYTE   Gs2  v108
 BYTE   N15  Ds3
 BYTE   W16
 BYTE   Fn2  v112
 BYTE   N15  Cn3
 BYTE   W16
// 049   ----------------------------------------
 BYTE   Gn2  v120
 BYTE   N15  Dn3
 BYTE   W16
 BYTE   Gs2  v112
 BYTE   N15  Ds3
 BYTE   W16
 BYTE   As2  v116
 BYTE   N15  Fn3
 BYTE   W16
 BYTE   Gs2
 BYTE   N15  Ds3
 BYTE   W16
 BYTE   As2  v108
 BYTE   N15  Fn3
 BYTE   W16
 BYTE   Cs3  v112
 BYTE   N15  Gs3
 BYTE   W16
// 050   ----------------------------------------
 BYTE   W96
// 051   ----------------------------------------
 BYTE   W96
// 052   ----------------------------------------
 BYTE   W96
// 053   ----------------------------------------
 BYTE   W96
// 054   ----------------------------------------
 BYTE   W96
// 055   ----------------------------------------
 BYTE   W96
// 056   ----------------------------------------
 BYTE   W96
// 057   ----------------------------------------
 BYTE   W96
// 058   ----------------------------------------
 BYTE   W96
// 059   ----------------------------------------
 BYTE   W96
// 060   ----------------------------------------
 BYTE   W96
// 061   ----------------------------------------
 BYTE   W96
// 062   ----------------------------------------
 BYTE   W96
// 063   ----------------------------------------
 BYTE   W96
// 064   ----------------------------------------
 BYTE   W96
// 065   ----------------------------------------
 BYTE   W96
// 066   ----------------------------------------
 BYTE   W96
// 067   ----------------------------------------
 BYTE   W96
// 068   ----------------------------------------
 BYTE   W96
// 069   ----------------------------------------
 BYTE   W96
// 070   ----------------------------------------
 BYTE   W96
// 071   ----------------------------------------
 BYTE   W96
// 072   ----------------------------------------
 BYTE   W96
// 073   ----------------------------------------
 BYTE   W92
 BYTE   W03
 BYTE   GoTo
  POIN2 Label_3_0118837B
 BYTE   FINE

//**************** Track 5 (Midi-Chn.4) ****************//

PokemonBWVsTeamPlasma_005:
// 000   ----------------------------------------
 BYTE   KEYSH   PokemonBWVsTeamPlasma_key+0
 BYTE   VOICE   30
 BYTE   VOL   46*PokemonBWVsTeamPlasma_mvl/mxv
 BYTE   PAN   c_v+0
 BYTE   MOD 0
 BYTE   CnM2
 BYTE   PAN   c_v-45
 BYTE   VOL   58*PokemonBWVsTeamPlasma_mvl/mxv
 BYTE   N06  Cn3  v116
 BYTE   W08
 BYTE   Gn3  v112
 BYTE   W08
 BYTE   Fs3
 BYTE   W08
 BYTE   Cn3  v116
 BYTE   W08
 BYTE   Gn3  v112
 BYTE   W08
 BYTE   Fs3
 BYTE   W08
 BYTE   PAN   c_v+46
 BYTE   N06  Cn3  v116
 BYTE   W08
 BYTE   Gn3  v112
 BYTE   W08
 BYTE   Fs3
 BYTE   W08
 BYTE   As3  v116
 BYTE   W08
 BYTE   Fs3  v112
 BYTE   W08
 BYTE   Gn3
 BYTE   W08
// 001   ----------------------------------------
 BYTE   PAN   c_v-37
 BYTE   N06  Cn3  v116
 BYTE   W08
 BYTE   Gn3  v112
 BYTE   W08
 BYTE   Fs3
 BYTE   W08
 BYTE   Cn3  v116
 BYTE   W08
 BYTE   Gn3  v112
 BYTE   W08
 BYTE   Fs3
 BYTE   W08
 BYTE   PAN   c_v+43
 BYTE   N06  Cn3  v116
 BYTE   W08
 BYTE   Gn3  v112
 BYTE   W08
 BYTE   Fs3
 BYTE   W08
 BYTE   As3  v116
 BYTE   W08
 BYTE   Fs3  v112
 BYTE   W08
 BYTE   Gn3
 BYTE   W08
// 002   ----------------------------------------
 BYTE   VOL   53*PokemonBWVsTeamPlasma_mvl/mxv
 BYTE   PAN   c_v-56
 BYTE   N11  Cn4  v104
 BYTE   W16
 BYTE   N07  Fs4  v100
 BYTE   W08
 BYTE   N15  Gs4
 BYTE   W16
 BYTE   N07  Gn4
 BYTE   W08
 BYTE   N15  As4
 BYTE   W16
 BYTE   N07  Gn4  v096
 BYTE   W08
 BYTE   N23  Ds4  v100
 BYTE   W24
// 003   ----------------------------------------
 BYTE   N92  Gn4  v076
 BYTE   W96
// 004   ----------------------------------------
 BYTE   N11  Cn4  v100
 BYTE   W16
 BYTE   N07  Fs4  v096
 BYTE   W08
 BYTE   N15  Gs4  v100
 BYTE   W16
 BYTE   N07  Gn4  v096
 BYTE   W08
 BYTE   N15  As4  v100
 BYTE   W16
 BYTE   N07  Gn4  v096
 BYTE   W08
 BYTE   N23  Bn4  v100
 BYTE   W24
// 005   ----------------------------------------
 BYTE   N92  Gn4  v084
 BYTE   W72
 BYTE   MOD 0
 BYTE   DnM2
 BYTE   W24
// 006   ----------------------------------------
 BYTE   CnM2
 BYTE   W96
// 007   ----------------------------------------
 BYTE   W96
// 008   ----------------------------------------
 BYTE   W96
// 009   ----------------------------------------
 BYTE   W64
 BYTE   VOICE   75
 BYTE   W32
// 010   ----------------------------------------
 BYTE   Ds4
 BYTE   VOL   40*PokemonBWVsTeamPlasma_mvl/mxv
 BYTE   PAN   c_v+40
 BYTE   W04
Label_4_0118852A:
 BYTE   W92
// 011   ----------------------------------------
 BYTE   W96
// 012   ----------------------------------------
 BYTE   W96
// 013   ----------------------------------------
 BYTE   W96
// 014   ----------------------------------------
 BYTE   W96
// 015   ----------------------------------------
 BYTE   W96
// 016   ----------------------------------------
 BYTE   W96
// 017   ----------------------------------------
 BYTE   W96
// 018   ----------------------------------------
 BYTE   W96
// 019   ----------------------------------------
 BYTE   W96
// 020   ----------------------------------------
 BYTE   W96
// 021   ----------------------------------------
 BYTE   W96
// 022   ----------------------------------------
 BYTE   W96
// 023   ----------------------------------------
 BYTE   W96
// 024   ----------------------------------------
 BYTE   W96
// 025   ----------------------------------------
 BYTE   W96
// 026   ----------------------------------------
 BYTE   W96
// 027   ----------------------------------------
 BYTE   W96
// 028   ----------------------------------------
 BYTE   W96
// 029   ----------------------------------------
 BYTE   W96
// 030   ----------------------------------------
 BYTE   W96
// 031   ----------------------------------------
 BYTE   W96
// 032   ----------------------------------------
 BYTE   W96
// 033   ----------------------------------------
 BYTE   W96
// 034   ----------------------------------------
 BYTE   PAN   c_v+56
 BYTE   VOL   57*PokemonBWVsTeamPlasma_mvl/mxv
 BYTE   W16
 BYTE   N07  Dn2  v100
 BYTE   W08
 BYTE   Fn2
 BYTE   W08
 BYTE   An2
 BYTE   W08
 BYTE   Cs3
 BYTE   W08
 BYTE   Dn3
 BYTE   W48
// 035   ----------------------------------------
 BYTE   W96
// 036   ----------------------------------------
 BYTE   W96
// 037   ----------------------------------------
 BYTE   W96
// 038   ----------------------------------------
 BYTE   VOL   56*PokemonBWVsTeamPlasma_mvl/mxv
 BYTE   W16
 BYTE   N07  Dn2
 BYTE   W08
 BYTE   Fn2
 BYTE   W08
 BYTE   An2
 BYTE   W08
 BYTE   Cs3
 BYTE   W08
 BYTE   Dn3
 BYTE   W48
// 039   ----------------------------------------
 BYTE   W96
// 040   ----------------------------------------
 BYTE   W96
// 041   ----------------------------------------
 BYTE   W96
// 042   ----------------------------------------
 BYTE   W16
 BYTE   En2
 BYTE   W09
 BYTE   Gn2
 BYTE   W07
 BYTE   Bn2
 BYTE   W08
 BYTE   Ds3
 BYTE   W08
 BYTE   En3
 BYTE   W48
// 043   ----------------------------------------
 BYTE   W96
// 044   ----------------------------------------
 BYTE   W16
 BYTE   En2
 BYTE   W08
 BYTE   Gn2
 BYTE   W08
 BYTE   Bn2
 BYTE   W08
 BYTE   Ds3
 BYTE   W08
 BYTE   En3
 BYTE   W48
// 045   ----------------------------------------
 BYTE   W96
// 046   ----------------------------------------
 BYTE   W96
// 047   ----------------------------------------
 BYTE   W96
// 048   ----------------------------------------
 BYTE   W96
// 049   ----------------------------------------
 BYTE   W72
 BYTE   PAN   c_v-51
 BYTE   N07  Gs3  v127
 BYTE   W01
 BYTE   VOL   40*PokemonBWVsTeamPlasma_mvl/mxv
 BYTE   W07
 BYTE   N07  As3
 BYTE   W08
 BYTE   Bn3
 BYTE   W08
// 050   ----------------------------------------
 BYTE   PAN   c_v-53
 BYTE   N92  Cn4  v112
 BYTE   W96
// 051   ----------------------------------------
Label_4_01188597:
 BYTE   N78  Cs4  v100
 BYTE   W80
 BYTE   N07  Ds4
 BYTE   W08
 BYTE   Cs4
 BYTE   W08
 BYTE   PEND 
// 052   ----------------------------------------
 BYTE   N92  Cn4
 BYTE   W96
// 053   ----------------------------------------
 BYTE   N07  Ds3
 BYTE   N07  Gn3
 BYTE   W08
 BYTE   Dn3
 BYTE   N07  Fn3
 BYTE   W08
 BYTE   N30  Ds3
 BYTE   N30  Gn3
 BYTE   W32
 BYTE   N42
 BYTE   N42  Cn4
 BYTE   W48
// 054   ----------------------------------------
 BYTE   N92
 BYTE   W96
 BYTE   PATT
  POIN2 Label_4_01188597
// 055   ----------------------------------------
 BYTE   N92  Cn4  v100
 BYTE   W96
// 056   ----------------------------------------
 BYTE   N84  Gn4
 BYTE   W88
 BYTE   N07  As4
 BYTE   W08
// 057   ----------------------------------------
 BYTE   W96
// 058   ----------------------------------------
 BYTE   W96
// 059   ----------------------------------------
 BYTE   W96
// 060   ----------------------------------------
 BYTE   N92  Fn4
 BYTE   W96
// 061   ----------------------------------------
 BYTE   N15  Gn4
 BYTE   N15  Cn5
 BYTE   W96
// 062   ----------------------------------------
 BYTE   W96
// 063   ----------------------------------------
 BYTE   W96
// 064   ----------------------------------------
 BYTE   W96
// 065   ----------------------------------------
 BYTE   W96
// 066   ----------------------------------------
 BYTE   W96
// 067   ----------------------------------------
 BYTE   W96
// 068   ----------------------------------------
 BYTE   W96
// 069   ----------------------------------------
 BYTE   Gn4  v108
 BYTE   N15  Cn5  v120
 BYTE   W48
 BYTE   PAN   c_v+38
 BYTE   N15  Gn2
 BYTE   N15  Cn3
 BYTE   N15  Cn4
 BYTE   W48
// 070   ----------------------------------------
 BYTE   PAN   c_v-16
 BYTE   N15  Dn2
 BYTE   N15  Gn2
 BYTE   N15  Gn3
 BYTE   W48
 BYTE   PAN   c_v+29
 BYTE   N15  Gn1
 BYTE   N15  Cn2
 BYTE   N15  Cn3
 BYTE   W48
// 071   ----------------------------------------
 BYTE   Dn2
 BYTE   N15  Gn2
 BYTE   N15  Gn3
 BYTE   W96
// 072   ----------------------------------------
 BYTE   W92
 BYTE   W03
 BYTE   GoTo
  POIN2 Label_4_0118852A
 BYTE   FINE

//**************** Track 6 (Midi-Chn.5) ****************//

PokemonBWVsTeamPlasma_006:
// 000   ----------------------------------------
 BYTE   KEYSH   PokemonBWVsTeamPlasma_key+0
 BYTE   VOICE   61
 BYTE   VOL   51*PokemonBWVsTeamPlasma_mvl/mxv
 BYTE   PAN   c_v+0
 BYTE   MOD 0
 BYTE   CnM2
 BYTE   VOL   47*PokemonBWVsTeamPlasma_mvl/mxv
 BYTE   PAN   c_v+45
 BYTE   VOL   63*PokemonBWVsTeamPlasma_mvl/mxv
 BYTE   N07  Fs2  v124
 BYTE   N07  Fs3  v108
 BYTE   W08
 BYTE   Gn2  v116
 BYTE   N07  Gn3  v100
 BYTE   W08
 BYTE   Fs2  v124
 BYTE   N07  Fs3  v108
 BYTE   W08
 BYTE   PAN   c_v+29
 BYTE   N07  Gn2  v116
 BYTE   N07  Gn3  v100
 BYTE   W08
 BYTE   Fs2  v124
 BYTE   N07  Fs3  v108
 BYTE   W08
 BYTE   Gn2  v124
 BYTE   N07  As3  v108
 BYTE   W08
 BYTE   PAN   c_v+18
 BYTE   N07  Fs2  v124
 BYTE   N07  Fs3  v108
 BYTE   W08
 BYTE   Gn2  v116
 BYTE   N07  Gn3  v100
 BYTE   W08
 BYTE   Fs2  v124
 BYTE   N07  Fs3  v108
 BYTE   W08
 BYTE   PAN   c_v+11
 BYTE   N07  Gn2  v124
 BYTE   N07  Gn3  v108
 BYTE   W08
 BYTE   Fs2  v116
 BYTE   N07  Fs3  v100
 BYTE   W08
 BYTE   Gn2  v124
 BYTE   N07  Gn3  v108
 BYTE   W08
// 001   ----------------------------------------
 BYTE   PAN   c_v-17
 BYTE   N07  Fs2  v124
 BYTE   N07  Fs3  v108
 BYTE   W08
 BYTE   Gn2  v116
 BYTE   N07  Gn3  v100
 BYTE   W08
 BYTE   Fs2  v124
 BYTE   N07  Fs3  v108
 BYTE   W08
 BYTE   PAN   c_v-24
 BYTE   N07  Gn2  v124
 BYTE   N07  Gn3  v108
 BYTE   W08
 BYTE   Fs2  v116
 BYTE   N07  Fs3  v100
 BYTE   W08
 BYTE   Gn2  v124
 BYTE   N07  Gn3  v108
 BYTE   W08
 BYTE   PAN   c_v-33
 BYTE   N07  Fs2  v124
 BYTE   N07  Fs3  v108
 BYTE   W08
 BYTE   Gn2  v116
 BYTE   N07  Gn3  v100
 BYTE   W08
 BYTE   Fs2  v124
 BYTE   N07  Fs3  v108
 BYTE   W08
 BYTE   PAN   c_v-42
 BYTE   N15  As2  v100
 BYTE   N15  As3  v120
 BYTE   W08
 BYTE   MOD 0
 BYTE   FnM2
 BYTE   W08
 BYTE   CnM2
 BYTE   N07  Gn2  v108
 BYTE   N07  Gn3
 BYTE   W08
// 002   ----------------------------------------
 BYTE   VOL   57*PokemonBWVsTeamPlasma_mvl/mxv
 BYTE   PAN   c_v-14
 BYTE   N13  Cn2  v124
 BYTE   N15  Cn3
 BYTE   W16
 BYTE   N07  Fs2  v112
 BYTE   N07  Fs3
 BYTE   W08
 BYTE   N15  Gs2  v108
 BYTE   N15  Gs3
 BYTE   W16
 BYTE   N07  Gn2  v116
 BYTE   N07  Gn3
 BYTE   W08
 BYTE   N15  As2  v108
 BYTE   N15  As3
 BYTE   W16
 BYTE   N07  Gn2  v116
 BYTE   N07  Gn3
 BYTE   W07
 BYTE   N01  Ds3  v104
 BYTE   N23  Ds4
 BYTE   W01
 BYTE   N22  Ds3
 BYTE   W24
// 003   ----------------------------------------
 BYTE   N92  En3  v116
 BYTE   N92  En4
 BYTE   W72
 BYTE   BEND   c_v-2
 BYTE   W04
 BYTE   Cn3
 BYTE   W04
 BYTE   As2
 BYTE   W04
 BYTE   Gs2
 BYTE   W04
 BYTE   Fn2
 BYTE   W04
 BYTE   Cs2
 BYTE   W04
// 004   ----------------------------------------
 BYTE   En3
 BYTE   N15  Cn2  v100
 BYTE   N15  Cn3  v124
 BYTE   W16
 BYTE   N07  Fs2  v108
 BYTE   N07  Fs3  v116
 BYTE   W08
 BYTE   N15  Gs2  v108
 BYTE   N15  Gs3
 BYTE   W16
 BYTE   N07  Gn2
 BYTE   N07  Gn3  v112
 BYTE   W08
 BYTE   N15  As2  v108
 BYTE   N15  As3
 BYTE   W16
 BYTE   N07  Gn2
 BYTE   N07  Gn3  v116
 BYTE   W08
 BYTE   N23  Bn2  v108
 BYTE   N23  Bn3
 BYTE   W24
// 005   ----------------------------------------
 BYTE   N44  Cn3
 BYTE   N92  Cn4  v127
 BYTE   N92  En4  v084
 BYTE   W48
 BYTE   MOD 0
 BYTE   GnM2
 BYTE   N44  Cn3
 BYTE   W44
 BYTE   W02
 BYTE   MOD 0
 BYTE   CnM2
 BYTE   W02
// 006   ----------------------------------------
 BYTE   PAN   c_v-9
 BYTE   VOL   65*PokemonBWVsTeamPlasma_mvl/mxv
 BYTE   N01  Gn1  v120
 BYTE   N01  Cn2
 BYTE   W08
 BYTE   Gn1  v100
 BYTE   N01  Cn2
 BYTE   W08
 BYTE   Gn1
 BYTE   N01  Cn2
 BYTE   W08
 BYTE   N13  Gn1
 BYTE   N13  Cn2
 BYTE   W16
 BYTE   N03  Gn1  v120
 BYTE   N03  Cn2
 BYTE   W56
// 007   ----------------------------------------
 BYTE   N07  Gn1  v092
 BYTE   N07  Cn2
 BYTE   W08
 BYTE   N01  Gn1  v100
 BYTE   N01  Cn2
 BYTE   W56
 BYTE   N30  Gs1
 BYTE   N30  Cs2
 BYTE   W32
// 008   ----------------------------------------
 BYTE   N01  Gn1  v116
 BYTE   N01  Cn2
 BYTE   W08
 BYTE   Gn1  v100
 BYTE   N01  Cn2
 BYTE   W08
 BYTE   Gn1
 BYTE   N01  Cn2
 BYTE   W08
 BYTE   N13  Gn1
 BYTE   N13  Cn2
 BYTE   W16
 BYTE   N03  Gn1
 BYTE   N03  Cn2
 BYTE   W56
// 009   ----------------------------------------
 BYTE   VOICE   91
 BYTE   VOL   40*PokemonBWVsTeamPlasma_mvl/mxv
 BYTE   PAN   c_v-25
 BYTE   N03  Cn3  v096
 BYTE   W08
 BYTE   N07  Fn3
 BYTE   W08
 BYTE   N03  Ds3  v100
 BYTE   W08
 BYTE   Fs3  v104
 BYTE   W16
 BYTE   Fs3  v112
 BYTE   W16
 BYTE   Fs3  v104
 BYTE   W08
 BYTE   VOL   37*PokemonBWVsTeamPlasma_mvl/mxv
 BYTE   W08
 BYTE   N23  Fs2  v096
 BYTE   N23  Fs3
 BYTE   W12
 BYTE   MOD 0
 BYTE   GnM2
 BYTE   W12
// 010   ----------------------------------------
 BYTE   CnM2
 BYTE   W04
Label_5_011887AF:
 BYTE   W92
// 011   ----------------------------------------
 BYTE   W96
// 012   ----------------------------------------
 BYTE   W48
 BYTE   VOL   38*PokemonBWVsTeamPlasma_mvl/mxv
 BYTE   W16
 BYTE   PAN   c_v-52
 BYTE   W32
// 013   ----------------------------------------
 BYTE   VOICE   91
 BYTE   PAN   c_v+28
 BYTE   VOL   41*PokemonBWVsTeamPlasma_mvl/mxv
 BYTE   N15  Cn3  v108
 BYTE   W16
 BYTE   N07  Dn3  v096
 BYTE   W08
 BYTE   N44  Ds3  v104
 BYTE   W24
 BYTE   BEND   c_v-1
 BYTE   W04
 BYTE   Ds3
 BYTE   W04
 BYTE   Ds3
 BYTE   W04
 BYTE   Cs3
 BYTE   W04
 BYTE   As2
 BYTE   W04
 BYTE   Gs2
 BYTE   W04
 BYTE   En3
 BYTE   N15  Cs3  v108
 BYTE   W08
 BYTE   BEND   c_v+10
 BYTE   W08
 BYTE   En3
 BYTE   N07  Cs3  v092
 BYTE   W08
// 014   ----------------------------------------
 BYTE   W16
 BYTE   VOL   40*PokemonBWVsTeamPlasma_mvl/mxv
 BYTE   W08
 BYTE   Ds1
 BYTE   W04
 BYTE   Dn1
 BYTE   W04
 BYTE   Cs1
 BYTE   W04
 BYTE   Cs1
 BYTE   W04
 BYTE   Cn1
 BYTE   W04
 BYTE   Bn0
 BYTE   W04
 BYTE   As0
 BYTE   W04
 BYTE   As0
 BYTE   W04
 BYTE   An0
 BYTE   W04
 BYTE   Gs0
 BYTE   W04
 BYTE   Gn0
 BYTE   W04
 BYTE   Fs0
 BYTE   W04
 BYTE   Fn0
 BYTE   W04
 BYTE   Fn0
 BYTE   W04
 BYTE   En0
 BYTE   W04
 BYTE   Ds0
 BYTE   W04
 BYTE   Dn0
 BYTE   W04
 BYTE   Cs0
 BYTE   W04
// 015   ----------------------------------------
 BYTE   Cn0
 BYTE   W04
 BYTE   Cn0
 BYTE   W04
 BYTE   BnM1
 BYTE   W04
 BYTE   AsM1
 BYTE   W04
 BYTE   AnM1
 BYTE   W04
 BYTE   GsM1
 BYTE   W04
 BYTE   GnM1
 BYTE   W04
 BYTE   FsM1
 BYTE   W04
 BYTE   FnM1
 BYTE   W04
 BYTE   FnM1
 BYTE   W04
 BYTE   EnM1
 BYTE   W04
 BYTE   DsM1
 BYTE   W04
 BYTE   DnM1
 BYTE   BEND   c_v+0
 BYTE   W04
 BYTE   VOL   14*PokemonBWVsTeamPlasma_mvl/mxv
 BYTE   W04
 BYTE   CsM1
 BYTE   W04
 BYTE   CnM1
 BYTE   W04
 BYTE   BnM2
 BYTE   W04
 BYTE   BnM2
 BYTE   W04
 BYTE   AsM2
 BYTE   W04
 BYTE   AnM2
 BYTE   W20
// 016   ----------------------------------------
 BYTE   Cs1
 BYTE   W92
 BYTE   W03
 BYTE   N07  Cn3  v112
 BYTE   W01
// 017   ----------------------------------------
 BYTE   W15
 BYTE   Dn3  v096
 BYTE   W08
 BYTE   N44  Ds3  v112
 BYTE   W48
 BYTE   W01
 BYTE   N23  Gn3
 BYTE   W24
// 018   ----------------------------------------
 BYTE   N68  Fn3
 BYTE   W72
 BYTE   N23  Dn3
 BYTE   W24
// 019   ----------------------------------------
 BYTE   N36  Ds3  v104
 BYTE   W40
 BYTE   N30  Fn3  v100
 BYTE   W32
 BYTE   N23  An3  v104
 BYTE   W24
// 020   ----------------------------------------
 BYTE   N07  Fn3  v100
 BYTE   W16
 BYTE   Gn3  v096
 BYTE   W08
 BYTE   N68  An3  v100
 BYTE   W40
 BYTE   BEND   c_v-2
 BYTE   W04
 BYTE   Cs3
 BYTE   W04
 BYTE   VOL   45*PokemonBWVsTeamPlasma_mvl/mxv
 BYTE   BEND   c_v-4
 BYTE   W04
 BYTE   VOL   41*PokemonBWVsTeamPlasma_mvl/mxv
 BYTE   BEND   c_v-4
 BYTE   W04
 BYTE   VOL   37*PokemonBWVsTeamPlasma_mvl/mxv
 BYTE   BEND   c_v-6
 BYTE   W04
 BYTE   VOL   34*PokemonBWVsTeamPlasma_mvl/mxv
 BYTE   BEND   c_v-8
 BYTE   W04
 BYTE   VOL   30*PokemonBWVsTeamPlasma_mvl/mxv
 BYTE   BEND   c_v-11
 BYTE   W04
 BYTE   VOL   27*PokemonBWVsTeamPlasma_mvl/mxv
 BYTE   W04
// 021   ----------------------------------------
 BYTE   VOICE   66
 BYTE   PAN   c_v-20
 BYTE   VOL   45*PokemonBWVsTeamPlasma_mvl/mxv
 BYTE   BEND   c_v+0
 BYTE   N15  Dn2  v112
 BYTE   N15  An2
 BYTE   N15  Dn3
 BYTE   W16
 BYTE   N07  En2  v104
 BYTE   N07  Bn2
 BYTE   N07  En3
 BYTE   W08
 BYTE   N92  Fn2  v112
 BYTE   N92  Cn3
 BYTE   N92  Fn3
 BYTE   W48
 BYTE   BEND   c_v-1
 BYTE   W04
 BYTE   Ds3
 BYTE   W04
 BYTE   Ds3
 BYTE   W04
 BYTE   Ds3
 BYTE   W04
 BYTE   Ds3
 BYTE   W04
 BYTE   Cs3
 BYTE   W04
// 022   ----------------------------------------
 BYTE   Cn3
 BYTE   W04
 BYTE   As2
 BYTE   W04
 BYTE   Gs2
 BYTE   W04
 BYTE   Gn2
 BYTE   W04
 BYTE   Fn2
 BYTE   W04
 BYTE   Cs2
 BYTE   W04
 BYTE   An1
 BYTE   W04
 BYTE   Fn1
 BYTE   W04
 BYTE   Dn1
 BYTE   W04
 BYTE   Cn1
 BYTE   W12
 BYTE   En3
 BYTE   W48
// 023   ----------------------------------------
 BYTE   W96
// 024   ----------------------------------------
 BYTE   W96
// 025   ----------------------------------------
 BYTE   W96
// 026   ----------------------------------------
 BYTE   VOICE   66
 BYTE   PAN   c_v-35
 BYTE   VOL   55*PokemonBWVsTeamPlasma_mvl/mxv
 BYTE   N30  Gn1
 BYTE   N30  Gn2  v100
 BYTE   W32
 BYTE   As1  v104
 BYTE   N30  As2  v096
 BYTE   W32
 BYTE   An1  v112
 BYTE   N30  An2  v100
 BYTE   W32
// 027   ----------------------------------------
 BYTE   Gn1  v104
 BYTE   N30  Gn2  v096
 BYTE   W32
 BYTE   En1  v100
 BYTE   N30  En2  v092
 BYTE   W32
 BYTE   Fn1  v104
 BYTE   N30  Fn2  v096
 BYTE   W32
// 028   ----------------------------------------
 BYTE   En1  v112
 BYTE   N30  En2  v104
 BYTE   W32
 BYTE   As1
 BYTE   N30  As2  v096
 BYTE   W32
 BYTE   An1  v112
 BYTE   N30  An2  v104
 BYTE   W32
// 029   ----------------------------------------
 BYTE   Gn1  v116
 BYTE   N30  Gn2  v104
 BYTE   W32
 BYTE   Fn2
 BYTE   N30  Fn3  v100
 BYTE   W32
 BYTE   Cs2  v116
 BYTE   N30  Cs3  v104
 BYTE   W32
// 030   ----------------------------------------
 BYTE   W96
// 031   ----------------------------------------
 BYTE   W80
 BYTE   VOICE   74
 BYTE   N03  Gn2  v092
 BYTE   N03  Dn3
 BYTE   W08
 BYTE   Gn2  v096
 BYTE   N03  Dn3
 BYTE   W07
 BYTE   N44  Gn3  v084
 BYTE   W01
// 032   ----------------------------------------
 BYTE   Dn4
 BYTE   W24
 BYTE   BEND   c_v-1
 BYTE   W04
 BYTE   Cs3
 BYTE   W04
 BYTE   Cn3
 BYTE   W04
 BYTE   As2
 BYTE   W04
 BYTE   Gs2
 BYTE   W04
 BYTE   En2
 BYTE   W03
 BYTE   N44  Gn3  v060
 BYTE   W01
 BYTE   PAN   c_v+46
 BYTE   BEND   c_v+0
 BYTE   N44  Dn4
 BYTE   W24
 BYTE   BEND   c_v-1
 BYTE   W04
 BYTE   Cs3
 BYTE   W04
 BYTE   Cn3
 BYTE   W04
 BYTE   As2
 BYTE   W04
 BYTE   Gs2
 BYTE   W04
 BYTE   En2
 BYTE   W03
 BYTE   N44  Gn3  v052
 BYTE   W01
// 033   ----------------------------------------
 BYTE   PAN   c_v-51
 BYTE   BEND   c_v+0
 BYTE   N44  Dn4  v048
 BYTE   W24
 BYTE   BEND   c_v-1
 BYTE   W04
 BYTE   Cs3
 BYTE   W04
 BYTE   Cn3
 BYTE   W04
 BYTE   As2
 BYTE   W04
 BYTE   Gs2
 BYTE   W04
 BYTE   En2
 BYTE   W03
 BYTE   N44  Gn3  v032
 BYTE   W01
 BYTE   PAN   c_v+46
 BYTE   BEND   c_v+0
 BYTE   N44  Dn4
 BYTE   W24
 BYTE   BEND   c_v-1
 BYTE   W04
 BYTE   Cs3
 BYTE   W04
 BYTE   Cn3
 BYTE   W04
 BYTE   As2
 BYTE   W04
 BYTE   Gs2
 BYTE   W04
 BYTE   En2
 BYTE   W04
// 034   ----------------------------------------
 BYTE   En3
 BYTE   W96
// 035   ----------------------------------------
 BYTE   PAN   c_v-26
 BYTE   W96
// 036   ----------------------------------------
 BYTE   W96
// 037   ----------------------------------------
 BYTE   VOICE   91
 BYTE   PAN   c_v+38
 BYTE   N15  Dn3  v100
 BYTE   W02
 BYTE   VOL   35*PokemonBWVsTeamPlasma_mvl/mxv
 BYTE   W14
 BYTE   N07  En3  v080
 BYTE   W08
 BYTE   N44  Fn3  v100
 BYTE   W44
 BYTE   W03
 BYTE   N23  Ds3  v080
 BYTE   W24
 BYTE   W01
// 038   ----------------------------------------
 BYTE   N92  Dn3  v100
 BYTE   W48
 BYTE   VOL   33*PokemonBWVsTeamPlasma_mvl/mxv
 BYTE   W02
 BYTE   BEND   c_v-1
 BYTE   W02
 BYTE   Ds3
 BYTE   W02
 BYTE   Ds3
 BYTE   W02
 BYTE   VOL   32*PokemonBWVsTeamPlasma_mvl/mxv
 BYTE   BEND   c_v-1
 BYTE   W02
 BYTE   Ds3
 BYTE   W02
 BYTE   Ds3
 BYTE   W02
 BYTE   Ds3
 BYTE   W02
 BYTE   VOL   30*PokemonBWVsTeamPlasma_mvl/mxv
 BYTE   BEND   c_v-2
 BYTE   W02
 BYTE   Dn3
 BYTE   W02
 BYTE   Dn3
 BYTE   W02
 BYTE   Dn3
 BYTE   W02
 BYTE   VOL   28*PokemonBWVsTeamPlasma_mvl/mxv
 BYTE   BEND   c_v-2
 BYTE   W02
 BYTE   Dn3
 BYTE   W02
 BYTE   Dn3
 BYTE   W02
 BYTE   Cs3
 BYTE   W02
 BYTE   VOL   26*PokemonBWVsTeamPlasma_mvl/mxv
 BYTE   BEND   c_v-3
 BYTE   W02
 BYTE   Cn3
 BYTE   W02
 BYTE   Cn3
 BYTE   W02
 BYTE   Cn3
 BYTE   W02
 BYTE   VOL   24*PokemonBWVsTeamPlasma_mvl/mxv
 BYTE   BEND   c_v-5
 BYTE   W08
// 039   ----------------------------------------
 BYTE   VOL   24*PokemonBWVsTeamPlasma_mvl/mxv
 BYTE   W02
 BYTE   BEND   c_v+0
 BYTE   W92
 BYTE   W02
// 040   ----------------------------------------
 BYTE   W80
 BYTE   N03  Dn3  v052
 BYTE   W08
 BYTE   Dn3  v036
 BYTE   W08
// 041   ----------------------------------------
 BYTE   VOICE   91
 BYTE   VOL   38*PokemonBWVsTeamPlasma_mvl/mxv
 BYTE   N07  Dn2  v096
 BYTE   N07  Dn3  v076
 BYTE   W16
 BYTE   En2  v088
 BYTE   N07  En3
 BYTE   W08
 BYTE   N44  Fn2  v096
 BYTE   N44  Fn3
 BYTE   W48
 BYTE   N23  As2
 BYTE   N23  As3
 BYTE   W12
 BYTE   MOD 0
 BYTE   BnM2
 BYTE   W12
// 042   ----------------------------------------
 BYTE   CnM2
 BYTE   N68  Gn3
 BYTE   W72
 BYTE   N23  En3
 BYTE   W24
// 043   ----------------------------------------
 BYTE   N36  Fn3
 BYTE   W40
 BYTE   N30  Gn3
 BYTE   W32
 BYTE   N23  Bn3
 BYTE   W24
// 044   ----------------------------------------
 BYTE   N07  Gn3
 BYTE   W16
 BYTE   An3
 BYTE   W08
 BYTE   N68  Bn3
 BYTE   W72
// 045   ----------------------------------------
 BYTE   VOICE   61
 BYTE   PAN   c_v+10
 BYTE   VOL   53*PokemonBWVsTeamPlasma_mvl/mxv
 BYTE   N15  En3  v088
 BYTE   N15  Gn3
 BYTE   N15  Gn4
 BYTE   W16
 BYTE   N07  Fs3  v084
 BYTE   N07  An3
 BYTE   N07  An4
 BYTE   W80
// 046   ----------------------------------------
 BYTE   W96
// 047   ----------------------------------------
 BYTE   W96
// 048   ----------------------------------------
 BYTE   W96
// 049   ----------------------------------------
 BYTE   W96
// 050   ----------------------------------------
 BYTE   W96
// 051   ----------------------------------------
 BYTE   W96
// 052   ----------------------------------------
 BYTE   W96
// 053   ----------------------------------------
 BYTE   W96
// 054   ----------------------------------------
 BYTE   W96
// 055   ----------------------------------------
 BYTE   W96
// 056   ----------------------------------------
 BYTE   W96
// 057   ----------------------------------------
 BYTE   W76
 BYTE   VOL   35*PokemonBWVsTeamPlasma_mvl/mxv
 BYTE   W08
 BYTE   PAN   c_v+38
 BYTE   W04
 BYTE   N07  Ds3  v100
 BYTE   W08
// 058   ----------------------------------------
 BYTE   VOICE   91
 BYTE   N03  Cs3  v124
 BYTE   W15
 BYTE   Cs3  v100
 BYTE   W08
 BYTE   Cs3  v120
 BYTE   W16
 BYTE   Cs3  v100
 BYTE   W09
 BYTE   N11  Cs3  v124
 BYTE   W15
 BYTE   N03  Cs3  v100
 BYTE   W08
 BYTE   N16  Cs3  v120
 BYTE   W24
 BYTE   W01
// 059   ----------------------------------------
 BYTE   N03  Cs3  v124
 BYTE   W15
 BYTE   Cs3  v100
 BYTE   W08
 BYTE   Cs3  v120
 BYTE   W16
 BYTE   Cs3  v100
 BYTE   W09
 BYTE   N11  Cs3  v124
 BYTE   W15
 BYTE   N03  Cs3  v100
 BYTE   W08
 BYTE   N19  Cs3  v120
 BYTE   W24
 BYTE   W01
// 060   ----------------------------------------
 BYTE   N03  Cs3  v124
 BYTE   W08
 BYTE   Cn3  v112
 BYTE   W07
 BYTE   Cs3  v120
 BYTE   W08
 BYTE   Cs3  v124
 BYTE   W16
 BYTE   Cs3  v100
 BYTE   W09
 BYTE   N11  Cs3  v124
 BYTE   W15
 BYTE   N03  Cs3  v100
 BYTE   W09
 BYTE   N23  As2  v116
 BYTE   W24
// 061   ----------------------------------------
 BYTE   N07  Cs3  v120
 BYTE   W16
 BYTE   N03  Cs3  v116
 BYTE   W08
 BYTE   N23  As2  v124
 BYTE   W24
 BYTE   N03  Cs3  v120
 BYTE   W08
 BYTE   Cn3  v112
 BYTE   W07
 BYTE   Cs3  v120
 BYTE   W09
 BYTE   N23  As2  v124
 BYTE   W24
// 062   ----------------------------------------
 BYTE   N15  Cn3  v100
 BYTE   W96
// 063   ----------------------------------------
 BYTE   W96
// 064   ----------------------------------------
 BYTE   W96
// 065   ----------------------------------------
 BYTE   W72
 BYTE   VOL   35*PokemonBWVsTeamPlasma_mvl/mxv
 BYTE   W08
 BYTE   N03  Cs3
 BYTE   W08
 BYTE   Cs3  v092
 BYTE   W08
// 066   ----------------------------------------
 BYTE   N92  Cs2  v096
 BYTE   N92  Cs3  v100
 BYTE   W96
// 067   ----------------------------------------
 BYTE   Fs2  v092
 BYTE   N92  Fs3  v096
 BYTE   W96
// 068   ----------------------------------------
 BYTE   As2
 BYTE   N92  As3  v100
 BYTE   W96
// 069   ----------------------------------------
 BYTE   Cs3  v092
 BYTE   N92  Cs4  v096
 BYTE   W96
// 070   ----------------------------------------
 BYTE   N15  Cn3  v100
 BYTE   N15  Cn4
 BYTE   W96
// 071   ----------------------------------------
 BYTE   W96
// 072   ----------------------------------------
 BYTE   W96
// 073   ----------------------------------------
 BYTE   W92
 BYTE   W03
 BYTE   GoTo
  POIN2 Label_5_011887AF
 BYTE   FINE

//**************** Track 7 (Midi-Chn.6) ****************//

PokemonBWVsTeamPlasma_007:
// 000   ----------------------------------------
 BYTE   KEYSH   PokemonBWVsTeamPlasma_key+0
 BYTE   VOICE   86
 BYTE   VOL   40*PokemonBWVsTeamPlasma_mvl/mxv
 BYTE   PAN   c_v+0
 BYTE   MOD 0
 BYTE   CnM2
 BYTE   N07  Fs5  v100
 BYTE   W08
 BYTE   N01  Gn5
 BYTE   W08
 BYTE   N07  Fs5
 BYTE   W08
 BYTE   N01  Gn5
 BYTE   W08
 BYTE   N07  Fs5
 BYTE   W08
 BYTE   N01  Gn5
 BYTE   W08
 BYTE   N07  Fs5
 BYTE   W08
 BYTE   N01  Gn5
 BYTE   W08
 BYTE   N07  Fs5
 BYTE   W08
 BYTE   N01  Gn5
 BYTE   W08
 BYTE   N07  Fs5
 BYTE   W08
 BYTE   N01  Gn5
 BYTE   W08
// 001   ----------------------------------------
 BYTE   N07  Fs5
 BYTE   W08
 BYTE   N01  Gn5
 BYTE   W08
 BYTE   N07  Fs5
 BYTE   W08
 BYTE   N01  Gn5
 BYTE   W08
 BYTE   N07  Fs5
 BYTE   W08
 BYTE   N01  Gn5
 BYTE   W08
 BYTE   N07  Fs5
 BYTE   W08
 BYTE   N01  Gn5
 BYTE   W08
 BYTE   N07  Fs5
 BYTE   W08
 BYTE   N23  Cs5
 BYTE   N23  As5
 BYTE   W24
// 002   ----------------------------------------
 BYTE   PAN   c_v+13
 BYTE   N11  Cn5
 BYTE   N11  Cn6
 BYTE   W16
 BYTE   N07  Fs5
 BYTE   W08
 BYTE   N15  Gs5
 BYTE   W16
 BYTE   N07  Gn5
 BYTE   W08
 BYTE   N15  As5
 BYTE   W16
 BYTE   N07  Gn5
 BYTE   W08
 BYTE   N23  Ds5
 BYTE   W24
// 003   ----------------------------------------
 BYTE   N92  Gn5  v112
 BYTE   W72
 BYTE   MOD 0
 BYTE   FnM2
 BYTE   BEND   c_v-3
 BYTE   W04
 BYTE   Gs2
 BYTE   W04
 BYTE   Fs2
 BYTE   W04
 BYTE   Dn2
 BYTE   W04
 BYTE   Bn1
 BYTE   W04
 BYTE   Fs1
 BYTE   W04
// 004   ----------------------------------------
 BYTE   MOD 0
 BYTE   CnM2
 BYTE   BEND   c_v+0
 BYTE   N15  Cn5  v100
 BYTE   W16
 BYTE   N07  Fs5
 BYTE   W08
 BYTE   N15  Gs5
 BYTE   W16
 BYTE   N07  Gn5
 BYTE   W08
 BYTE   N15  As5
 BYTE   W16
 BYTE   N07  Gn5
 BYTE   W08
 BYTE   N23  Bn5
 BYTE   W24
// 005   ----------------------------------------
 BYTE   N44  Cn6  v120
 BYTE   W48
 BYTE   MOD 0
 BYTE   DnM2
 BYTE   N44  Cn6  v072
 BYTE   W24
 BYTE   MOD 0
 BYTE   DsM2
 BYTE   W24
// 006   ----------------------------------------
 BYTE   CnM2
 BYTE   W96
// 007   ----------------------------------------
 BYTE   W96
// 008   ----------------------------------------
 BYTE   W96
// 009   ----------------------------------------
 BYTE   W72
 BYTE   PAN   c_v-33
 BYTE   W24
// 010   ----------------------------------------
 BYTE   VOICE   63
 BYTE   VOL   46*PokemonBWVsTeamPlasma_mvl/mxv
 BYTE   PAN   c_v-30
 BYTE   N03  Fs1  v108
 BYTE   N03  Bn1
 BYTE   W04
Label_6_01188BAE:
 BYTE   W04
 BYTE   N01  Gn1  v100
 BYTE   N01  Cn2
 BYTE   W08
 BYTE   Gn1  v092
 BYTE   N01  Cn2
 BYTE   W08
 BYTE   N15  Bn0  v116
 BYTE   N15  Bn1
 BYTE   W16
 BYTE   N07  Cn1  v120
 BYTE   N07  Cn2
 BYTE   W08
 BYTE   N01  Gs1
 BYTE   N01  Cn2  v116
 BYTE   W08
 BYTE   Gs1  v088
 BYTE   N01  Cn2
 BYTE   W08
 BYTE   Gs1  v092
 BYTE   N01  Cn2
 BYTE   W08
 BYTE   N23  Bn0  v116
 BYTE   N23  Bn1
 BYTE   W12
 BYTE   MOD 0
 BYTE   FnM2
 BYTE   W12
// 011   ----------------------------------------
 BYTE   CnM2
 BYTE   N03  Gn1  v108
 BYTE   N03  Cn2
 BYTE   W08
 BYTE   N01  Gs1  v100
 BYTE   N01  Cs2
 BYTE   W08
 BYTE   Gs1  v092
 BYTE   N01  Cs2
 BYTE   W08
 BYTE   N15  Ds1  v104
 BYTE   N15  Bn1
 BYTE   W15
 BYTE   N07  Cn2  v120
 BYTE   W01
 BYTE   Fn1  v104
 BYTE   W08
 BYTE   N01  Gn1  v120
 BYTE   N01  Cn2
 BYTE   W08
 BYTE   Gn1  v076
 BYTE   N01  Cn2
 BYTE   W08
 BYTE   Gn1  v092
 BYTE   N01  Cn2
 BYTE   W08
 BYTE   N23  Cn1  v116
 BYTE   N23  Cn2
 BYTE   W24
// 012   ----------------------------------------
 BYTE   N03  Fs1  v108
 BYTE   N03  Bn1
 BYTE   W08
 BYTE   N01  Gn1  v100
 BYTE   N01  Cn2
 BYTE   W08
 BYTE   Gn1  v092
 BYTE   N01  Cn2
 BYTE   W08
 BYTE   N15  Cn1  v116
 BYTE   N15  Bn1
 BYTE   W16
 BYTE   N07  Gn1  v120
 BYTE   N07  Cn2
 BYTE   W08
 BYTE   N01  Gs1
 BYTE   N01  Cn2  v116
 BYTE   W08
 BYTE   Gs1  v088
 BYTE   N01  Cn2
 BYTE   W08
 BYTE   Gs1  v092
 BYTE   N01  Cn2
 BYTE   W08
 BYTE   N15  Bn0  v096
 BYTE   N15  Bn1
 BYTE   W16
 BYTE   N01  Gn1  v100
 BYTE   N01  Cn2
 BYTE   W07
 BYTE   N23
 BYTE   W01
// 013   ----------------------------------------
 BYTE   Gn1
 BYTE   W12
 BYTE   MOD 0
 BYTE   CsM1
 BYTE   W12
 BYTE   CnM2
 BYTE   N15  Ds1
 BYTE   N15  As1
 BYTE   W16
 BYTE   N03  Fn1
 BYTE   N03  Bn1
 BYTE   W08
 BYTE   Gn1
 BYTE   N03  Cn2
 BYTE   W08
 BYTE   N01  Gn1
 BYTE   N01  Cn2
 BYTE   W08
 BYTE   Gn1
 BYTE   N01  Cn2
 BYTE   W08
 BYTE   N23  Gn1
 BYTE   N23  Cn2
 BYTE   W14
 BYTE   MOD 0
 BYTE   GsM1
 BYTE   W10
// 014   ----------------------------------------
 BYTE   CnM2
 BYTE   N03  Fs1  v108
 BYTE   N03  Bn1
 BYTE   W08
 BYTE   N01  Gn1  v100
 BYTE   N01  Cn2
 BYTE   W08
 BYTE   Gn1  v092
 BYTE   N01  Cn2
 BYTE   W08
 BYTE   N15  Bn0  v116
 BYTE   N15  Bn1
 BYTE   W16
 BYTE   N07  Cn1  v120
 BYTE   N07  Cn2
 BYTE   W08
 BYTE   N01  Gs1
 BYTE   N01  Cn2  v116
 BYTE   W08
 BYTE   Gs1  v088
 BYTE   N01  Cn2
 BYTE   W08
 BYTE   Gs1  v092
 BYTE   N01  Cn2
 BYTE   W08
 BYTE   N23  Bn0  v116
 BYTE   N23  Bn1
 BYTE   W24
// 015   ----------------------------------------
 BYTE   N03  Fs1  v108
 BYTE   N03  Bn1
 BYTE   W08
 BYTE   N01  Gn1  v100
 BYTE   N01  Cn2
 BYTE   W08
 BYTE   Gn1  v092
 BYTE   N01  Cn2
 BYTE   W08
 BYTE   N15  Bn0  v116
 BYTE   N15  Bn1
 BYTE   W16
 BYTE   N07  Cn1  v120
 BYTE   N07  Cn2
 BYTE   W08
 BYTE   N01  Gs1
 BYTE   N01  Cn2  v116
 BYTE   W08
 BYTE   Gs1  v088
 BYTE   N01  Cn2
 BYTE   W08
 BYTE   Gs1  v092
 BYTE   N01  Cn2
 BYTE   W08
 BYTE   N23  Bn0  v116
 BYTE   N23  Bn1
 BYTE   W24
// 016   ----------------------------------------
 BYTE   N03  Gn1  v108
 BYTE   N03  Cn2
 BYTE   W08
 BYTE   N01  Gs1  v100
 BYTE   N01  Cs2
 BYTE   W08
 BYTE   Gs1  v092
 BYTE   N01  Cs2
 BYTE   W08
 BYTE   Gn1  v120
 BYTE   N01  Cn2
 BYTE   W08
 BYTE   Gn1  v116
 BYTE   N01  Cn2
 BYTE   W08
 BYTE   Gn1
 BYTE   N01  Cn2
 BYTE   W08
 BYTE   N15  Gn1  v104
 BYTE   N15  Cn2
 BYTE   W24
 BYTE   N23  Cn1  v116
 BYTE   N23  Cn2
 BYTE   W24
// 017   ----------------------------------------
 BYTE   VOL   46*PokemonBWVsTeamPlasma_mvl/mxv
 BYTE   N03  Gn1  v120
 BYTE   N03  Cn2
 BYTE   W08
 BYTE   N01  Gn1  v100
 BYTE   N01  Cn2
 BYTE   W08
 BYTE   Gn1  v108
 BYTE   N01  Cn2
 BYTE   W08
 BYTE   VOICE   61
 BYTE   N23  Cn2  v112
 BYTE   N23  Gn2
 BYTE   W15
 BYTE   MOD 0
 BYTE   FsM2
 BYTE   W09
 BYTE   VOICE   63
 BYTE   MOD 0
 BYTE   CnM2
 BYTE   N03  Gn1  v120
 BYTE   N03  Cn2
 BYTE   W08
 BYTE   N01  Gn1  v100
 BYTE   N01  Cn2
 BYTE   W08
 BYTE   Gn1  v108
 BYTE   N01  Cn2
 BYTE   W08
 BYTE   VOICE   61
 BYTE   N23  Gn2  v112
 BYTE   N23  Cn3
 BYTE   W15
 BYTE   MOD 0
 BYTE   FsM2
 BYTE   W09
// 018   ----------------------------------------
 BYTE   VOICE   63
 BYTE   MOD 0
 BYTE   CnM2
 BYTE   VOL   46*PokemonBWVsTeamPlasma_mvl/mxv
 BYTE   N03  Gs1  v108
 BYTE   N03  Cs2
 BYTE   W08
 BYTE   N01  An1  v100
 BYTE   N01  Dn2
 BYTE   W08
 BYTE   An1  v092
 BYTE   N01  Dn2
 BYTE   W08
 BYTE   N15  Cs1  v116
 BYTE   N15  Cs2
 BYTE   W16
 BYTE   N07  Dn1  v120
 BYTE   N07  Dn2
 BYTE   W08
 BYTE   N01  As1
 BYTE   N01  Dn2  v116
 BYTE   W08
 BYTE   As1  v088
 BYTE   N01  Dn2
 BYTE   W08
 BYTE   As1  v092
 BYTE   N01  Dn2
 BYTE   W08
 BYTE   N23  Cs1  v116
 BYTE   N23  Cs2
 BYTE   W24
// 019   ----------------------------------------
 BYTE   N03  An1  v108
 BYTE   N03  Dn2
 BYTE   W08
 BYTE   N01  As1  v100
 BYTE   N01  Ds2
 BYTE   W08
 BYTE   As1  v092
 BYTE   N01  Ds2
 BYTE   W08
 BYTE   N15  Fn1  v104
 BYTE   N15  Cs2
 BYTE   W16
 BYTE   N03  Gn1
 BYTE   N03  Dn2  v120
 BYTE   W08
 BYTE   N01  An1
 BYTE   N01  Dn2
 BYTE   W08
 BYTE   An1  v076
 BYTE   N01  Dn2
 BYTE   W08
 BYTE   An1  v092
 BYTE   N01  Dn2
 BYTE   W08
 BYTE   N23  Dn1  v116
 BYTE   N23  Dn2
 BYTE   W24
// 020   ----------------------------------------
 BYTE   N03  Gs1  v108
 BYTE   N03  Cs2
 BYTE   W08
 BYTE   N01  An1  v100
 BYTE   N01  Dn2
 BYTE   W08
 BYTE   An1  v092
 BYTE   N01  Dn2
 BYTE   W08
 BYTE   N15  Dn1  v116
 BYTE   N15  Dn2
 BYTE   W16
 BYTE   N07  An1  v120
 BYTE   N07  Dn2
 BYTE   W08
 BYTE   N01  As1
 BYTE   N01  Dn2  v116
 BYTE   W08
 BYTE   As1  v088
 BYTE   N01  Dn2
 BYTE   W08
 BYTE   As1  v092
 BYTE   N01  Dn2
 BYTE   W08
 BYTE   N15  Dn1  v096
 BYTE   N15  Dn2
 BYTE   W16
 BYTE   N01  An1  v100
 BYTE   N01  Dn2
 BYTE   W07
 BYTE   N23
 BYTE   W01
// 021   ----------------------------------------
Label_6_01188DEA:
 BYTE   N23  An1  v100
 BYTE   W24
 BYTE   N15  Fn1
 BYTE   N15  Cn2
 BYTE   W16
 BYTE   N03  Gn1
 BYTE   N03  Cs2
 BYTE   W08
 BYTE   An1
 BYTE   N03  Dn2
 BYTE   W08
 BYTE   N01  An1
 BYTE   N01  Dn2
 BYTE   W08
 BYTE   An1
 BYTE   N01  Dn2
 BYTE   W08
 BYTE   N23  An1
 BYTE   N23  Dn2
 BYTE   W24
 BYTE   PEND 
// 022   ----------------------------------------
 BYTE   W96
// 023   ----------------------------------------
 BYTE   W96
// 024   ----------------------------------------
 BYTE   W96
// 025   ----------------------------------------
 BYTE   W96
// 026   ----------------------------------------
 BYTE   W96
// 027   ----------------------------------------
 BYTE   W92
 BYTE   VOICE   91
 BYTE   W03
 BYTE   N30  En2
 BYTE   W01
// 028   ----------------------------------------
 BYTE   PAN   c_v+16
 BYTE   W30
 BYTE   W01
 BYTE   N30  As2
 BYTE   W32
 BYTE   An2
 BYTE   W32
 BYTE   Gn2
 BYTE   W01
// 029   ----------------------------------------
 BYTE   W30
 BYTE   W01
 BYTE   Fn3
 BYTE   W32
 BYTE   Cs3
 BYTE   W32
 BYTE   W01
// 030   ----------------------------------------
 BYTE   W96
// 031   ----------------------------------------
 BYTE   W04
 BYTE   VOL   45*PokemonBWVsTeamPlasma_mvl/mxv
 BYTE   W04
 BYTE   An1
 BYTE   W04
 BYTE   Gs1
 BYTE   W04
 BYTE   Fs1
 BYTE   W04
 BYTE   Fn1
 BYTE   W04
 BYTE   Fn1
 BYTE   W04
 BYTE   En1
 BYTE   W04
 BYTE   Ds1
 BYTE   W04
 BYTE   Dn1
 BYTE   W04
 BYTE   Cs1
 BYTE   W04
 BYTE   Cs1
 BYTE   W04
 BYTE   Cn1
 BYTE   W04
 BYTE   Bn0
 BYTE   W04
 BYTE   As0
 BYTE   W04
 BYTE   An0
 BYTE   W04
 BYTE   An0
 BYTE   W04
 BYTE   Gs0
 BYTE   W04
 BYTE   Gn0
 BYTE   W04
 BYTE   Fs0
 BYTE   W04
 BYTE   Fn0
 BYTE   W08
 BYTE   En0
 BYTE   W04
 BYTE   Ds0
 BYTE   W04
// 032   ----------------------------------------
 BYTE   Dn0
 BYTE   W04
 BYTE   Cs0
 BYTE   W04
 BYTE   Cn0
 BYTE   W04
 BYTE   BnM1
 BYTE   W04
 BYTE   BnM1
 BYTE   W04
 BYTE   AsM1
 BYTE   W04
 BYTE   AnM1
 BYTE   W04
 BYTE   GsM1
 BYTE   W04
 BYTE   GnM1
 BYTE   W04
 BYTE   FsM1
 BYTE   W04
 BYTE   FnM1
 BYTE   W08
 BYTE   EnM1
 BYTE   W04
 BYTE   DsM1
 BYTE   W04
 BYTE   DnM1
 BYTE   W04
 BYTE   CsM1
 BYTE   W04
 BYTE   CnM1
 BYTE   W04
 BYTE   BnM2
 BYTE   W04
 BYTE   BnM2
 BYTE   W04
 BYTE   AsM2
 BYTE   W04
 BYTE   AnM2
 BYTE   W04
 BYTE   GsM2
 BYTE   W04
 BYTE   GnM2
 BYTE   W04
 BYTE   FsM2
 BYTE   W04
// 033   ----------------------------------------
 BYTE   FnM2
 BYTE   W96
// 034   ----------------------------------------
 BYTE   VOICE   63
 BYTE   PAN   c_v-30
 BYTE   N03  Gs1  v108
 BYTE   N03  Cs2
 BYTE   W04
 BYTE   VOL   46*PokemonBWVsTeamPlasma_mvl/mxv
 BYTE   W04
 BYTE   N01  An1  v100
 BYTE   N01  Dn2
 BYTE   W08
 BYTE   An1  v092
 BYTE   N01  Dn2
 BYTE   W08
 BYTE   N15  Gs1  v116
 BYTE   N15  Cs2
 BYTE   W16
 BYTE   N07  An1  v120
 BYTE   N07  Dn2
 BYTE   W08
 BYTE   N01  As1
 BYTE   N01  Dn2  v116
 BYTE   W08
 BYTE   As1  v088
 BYTE   N01  Dn2
 BYTE   W08
 BYTE   As1  v092
 BYTE   N01  Dn2
 BYTE   W08
 BYTE   N23  An1  v116
 BYTE   N23  Dn2
 BYTE   W24
// 035   ----------------------------------------
 BYTE   N03  An1  v108
 BYTE   N03  Dn2
 BYTE   W08
 BYTE   N01  As1  v100
 BYTE   N01  Ds2
 BYTE   W08
 BYTE   As1  v092
 BYTE   N01  Ds2
 BYTE   W08
 BYTE   N15  Fn1  v104
 BYTE   N15  Cs2
 BYTE   W15
 BYTE   N07  Dn2  v120
 BYTE   W01
 BYTE   Gn1  v104
 BYTE   W08
 BYTE   N01  An1  v120
 BYTE   N01  Dn2
 BYTE   W08
 BYTE   An1  v076
 BYTE   N01  Dn2
 BYTE   W08
 BYTE   An1  v092
 BYTE   N01  Dn2
 BYTE   W08
 BYTE   N23  An1  v116
 BYTE   N23  Dn2
 BYTE   W24
// 036   ----------------------------------------
 BYTE   N03  Gs1  v108
 BYTE   N03  Cs2
 BYTE   W08
 BYTE   N01  An1  v100
 BYTE   N01  Dn2
 BYTE   W08
 BYTE   An1  v092
 BYTE   N01  Dn2
 BYTE   W08
 BYTE   N15  Gs1  v116
 BYTE   N15  Cs2
 BYTE   W16
 BYTE   N07  An1  v120
 BYTE   N07  Dn2
 BYTE   W08
 BYTE   N01  As1
 BYTE   N01  Dn2  v116
 BYTE   W08
 BYTE   As1  v088
 BYTE   N01  Dn2
 BYTE   W08
 BYTE   As1  v092
 BYTE   N01  Dn2
 BYTE   W08
 BYTE   N11  An1  v096
 BYTE   N11  Dn2
 BYTE   W16
 BYTE   N01  An1  v120
 BYTE   N01  Dn2
 BYTE   W07
 BYTE   N23  Dn2  v100
 BYTE   W01
 BYTE   PATT
  POIN2 Label_6_01188DEA
// 037   ----------------------------------------
 BYTE   N03  Gs1  v108
 BYTE   N03  Cs2
 BYTE   W08
 BYTE   N01  An1  v100
 BYTE   N01  Dn2
 BYTE   W08
 BYTE   An1  v092
 BYTE   N01  Dn2
 BYTE   W08
 BYTE   N15  Gs1  v116
 BYTE   N15  Cs2
 BYTE   W16
 BYTE   N07  An1  v120
 BYTE   N07  Dn2
 BYTE   W08
 BYTE   N01  As1
 BYTE   N01  Dn2  v116
 BYTE   W08
 BYTE   As1  v088
 BYTE   N01  Dn2
 BYTE   W08
 BYTE   As1  v092
 BYTE   N01  Dn2
 BYTE   W08
 BYTE   N23  Gs1  v116
 BYTE   N23  Dn2
 BYTE   W24
// 038   ----------------------------------------
 BYTE   N03  Gs1  v108
 BYTE   N03  Cs2
 BYTE   W08
 BYTE   N01  An1  v100
 BYTE   N01  Dn2
 BYTE   W08
 BYTE   An1  v092
 BYTE   N01  Dn2
 BYTE   W08
 BYTE   N15  Gs1  v116
 BYTE   N15  Cs2
 BYTE   W16
 BYTE   N07  An1  v120
 BYTE   N07  Dn2
 BYTE   W08
 BYTE   N01  As1
 BYTE   N01  Dn2  v116
 BYTE   W08
 BYTE   As1  v088
 BYTE   N01  Dn2
 BYTE   W08
 BYTE   As1  v092
 BYTE   N01  Dn2
 BYTE   W08
 BYTE   N23  An1  v116
 BYTE   N23  Dn2
 BYTE   W24
// 039   ----------------------------------------
 BYTE   N03  An1  v108
 BYTE   N03  Dn2
 BYTE   W08
 BYTE   N01  As1  v100
 BYTE   N01  Ds2
 BYTE   W08
 BYTE   As1  v092
 BYTE   N01  Ds2
 BYTE   W08
 BYTE   N15  Fn1  v104
 BYTE   N15  Cs2
 BYTE   W15
 BYTE   N07  Dn2  v120
 BYTE   W01
 BYTE   Gn1  v104
 BYTE   W08
 BYTE   N01  An1  v120
 BYTE   N01  Dn2
 BYTE   W08
 BYTE   An1  v076
 BYTE   N01  Dn2
 BYTE   W08
 BYTE   An1  v092
 BYTE   N01  Dn2
 BYTE   W08
 BYTE   N23  Dn1  v116
 BYTE   N23  Dn2
 BYTE   W24
// 040   ----------------------------------------
 BYTE   N03  An1  v120
 BYTE   N03  Dn2
 BYTE   W08
 BYTE   An1  v100
 BYTE   N03  Dn2
 BYTE   W08
 BYTE   An1  v108
 BYTE   N03  Dn2
 BYTE   W08
 BYTE   N23  Dn2  v112
 BYTE   W24
 BYTE   N03  An1  v120
 BYTE   N03  Dn2
 BYTE   W08
 BYTE   An1  v100
 BYTE   N03  Dn2
 BYTE   W08
 BYTE   An1  v108
 BYTE   N03  Dn2
 BYTE   W08
 BYTE   N23  An1  v112
 BYTE   N23  En2
 BYTE   W24
// 041   ----------------------------------------
 BYTE   N03  As1  v108
 BYTE   N03  Ds2
 BYTE   W08
 BYTE   N01  Bn1  v100
 BYTE   N01  En2
 BYTE   W08
 BYTE   Bn1  v092
 BYTE   N01  En2
 BYTE   W08
 BYTE   N15  Ds1  v116
 BYTE   N15  Ds2
 BYTE   W16
 BYTE   N07  En1  v120
 BYTE   N07  En2
 BYTE   W08
 BYTE   N01  Cn2
 BYTE   N01  En2  v116
 BYTE   W08
 BYTE   Cn2  v088
 BYTE   N01  En2
 BYTE   W08
 BYTE   Cn2  v092
 BYTE   N01  En2
 BYTE   W08
 BYTE   N23  Ds1  v116
 BYTE   N23  Ds2
 BYTE   W24
// 042   ----------------------------------------
 BYTE   N03  Bn1  v108
 BYTE   N03  En2
 BYTE   W08
 BYTE   N01  Cn2  v100
 BYTE   N01  Fn2
 BYTE   W08
 BYTE   Cn2  v092
 BYTE   N01  Fn2
 BYTE   W08
 BYTE   N15  Gn1  v104
 BYTE   N15  Ds2
 BYTE   W15
 BYTE   N07  En2  v120
 BYTE   W01
 BYTE   An1  v104
 BYTE   W08
 BYTE   N01  Bn1  v120
 BYTE   N01  En2
 BYTE   W08
 BYTE   Bn1  v076
 BYTE   N01  En2
 BYTE   W08
 BYTE   Bn1  v092
 BYTE   N01  En2
 BYTE   W08
 BYTE   N23  En1  v116
 BYTE   N23  En2
 BYTE   W24
// 043   ----------------------------------------
 BYTE   N03  As1  v108
 BYTE   N03  Ds2
 BYTE   W08
 BYTE   N01  Bn1  v100
 BYTE   N01  En2
 BYTE   W08
 BYTE   Bn1  v092
 BYTE   N01  En2
 BYTE   W08
 BYTE   N15  En1  v116
 BYTE   N15  En2
 BYTE   W16
 BYTE   N07  Bn1  v120
 BYTE   N07  En2
 BYTE   W08
 BYTE   N01  Cn2
 BYTE   N01  En2  v116
 BYTE   W08
 BYTE   Cn2  v088
 BYTE   N01  En2
 BYTE   W08
 BYTE   Cn2  v092
 BYTE   N01  En2
 BYTE   W08
 BYTE   N15  En1  v096
 BYTE   N15  En2
 BYTE   W16
 BYTE   N01  Bn1  v100
 BYTE   N01  En2
 BYTE   W07
 BYTE   N23
 BYTE   W01
// 044   ----------------------------------------
 BYTE   Bn1
 BYTE   W24
 BYTE   N15  Gn1
 BYTE   N15  Dn2
 BYTE   W16
 BYTE   N03  An1
 BYTE   N03  Ds2
 BYTE   W08
 BYTE   Bn1
 BYTE   N03  En2
 BYTE   W08
 BYTE   N01  Bn1
 BYTE   N01  En2
 BYTE   W08
 BYTE   Bn1
 BYTE   N01  En2
 BYTE   W08
 BYTE   N23  Bn1
 BYTE   N23  En2
 BYTE   W24
// 045   ----------------------------------------
 BYTE   W96
// 046   ----------------------------------------
 BYTE   W96
// 047   ----------------------------------------
 BYTE   W96
// 048   ----------------------------------------
 BYTE   W96
// 049   ----------------------------------------
 BYTE   PAN   c_v-44
 BYTE   VOL   43*PokemonBWVsTeamPlasma_mvl/mxv
 BYTE   N11  Cn2  v120
 BYTE   W16
 BYTE   N03  Cn2  v112
 BYTE   W08
 BYTE   N11  Cn2  v120
 BYTE   W16
 BYTE   N03  Cn2  v116
 BYTE   W08
 BYTE   Gn1  v127
 BYTE   W08
 BYTE   Gn1  v116
 BYTE   W08
 BYTE   N03
 BYTE   W08
 BYTE   N23  Ds2
 BYTE   W24
// 050   ----------------------------------------
Label_6_011890DF:
 BYTE   N11  Cs2  v120
 BYTE   W16
 BYTE   N03  Cs2  v112
 BYTE   W08
 BYTE   N11  Cs2  v120
 BYTE   W16
 BYTE   N03  Cs2  v116
 BYTE   W08
 BYTE   Gs1  v127
 BYTE   W08
 BYTE   Gs1  v116
 BYTE   W08
 BYTE   N03
 BYTE   W08
 BYTE   N23  Fn2
 BYTE   W24
 BYTE   PEND 
// 051   ----------------------------------------
Label_6_011890FB:
 BYTE   N11  Cn2  v120
 BYTE   W16
 BYTE   N03  Cn2  v112
 BYTE   W08
 BYTE   N11  Cn2  v120
 BYTE   W16
 BYTE   N03  Cn2  v116
 BYTE   W08
 BYTE   Gn1  v127
 BYTE   W08
 BYTE   Gn1  v116
 BYTE   W08
 BYTE   N03
 BYTE   W08
 BYTE   N07  Ds2
 BYTE   W08
 BYTE   Cn2
 BYTE   W08
 BYTE   Gn1
 BYTE   W08
 BYTE   PEND 
// 052   ----------------------------------------
 BYTE   N11  Ds1  v120
 BYTE   N11  Cn2
 BYTE   W16
 BYTE   N03  Ds1  v112
 BYTE   N03  Cn2
 BYTE   W08
 BYTE   N11  Ds1  v120
 BYTE   N11  Cn2
 BYTE   W16
 BYTE   N03  Ds1  v116
 BYTE   N03  Cn2
 BYTE   W08
 BYTE   As0  v127
 BYTE   N03  Gn1
 BYTE   W08
 BYTE   As0  v116
 BYTE   N03  Gn1
 BYTE   W08
 BYTE   As0
 BYTE   N03  Gn1
 BYTE   W08
 BYTE   N07  Gn2
 BYTE   W08
 BYTE   Cs2
 BYTE   W08
 BYTE   Gn1
 BYTE   W08
// 053   ----------------------------------------
 BYTE   N11  Cn2  v120
 BYTE   W16
 BYTE   N03  Cn2  v112
 BYTE   W08
 BYTE   N11  Cn2  v120
 BYTE   W16
 BYTE   N03  Cn2  v116
 BYTE   W08
 BYTE   Gn1  v127
 BYTE   W08
 BYTE   Gn1  v116
 BYTE   W08
 BYTE   N03
 BYTE   W08
 BYTE   N23  Ds2
 BYTE   W24
 BYTE   PATT
  POIN2 Label_6_011890DF
 BYTE   PATT
  POIN2 Label_6_011890FB
// 054   ----------------------------------------
 BYTE   N11  Ds1  v116
 BYTE   N11  Cn2
 BYTE   W16
 BYTE   N03  Ds1  v108
 BYTE   N03  Cn2
 BYTE   W08
 BYTE   N11  Ds1  v116
 BYTE   N11  Cn2
 BYTE   W16
 BYTE   N03  Ds1  v112
 BYTE   N03  Cn2
 BYTE   W08
 BYTE   As0  v124
 BYTE   N03  Gn1
 BYTE   W08
 BYTE   As0  v112
 BYTE   N03  Gn1
 BYTE   W08
 BYTE   As0
 BYTE   N03  Gn1
 BYTE   W08
 BYTE   N07  Gn2
 BYTE   W08
 BYTE   Cs2
 BYTE   W08
 BYTE   Gn1
 BYTE   W08
// 055   ----------------------------------------
Label_6_0118919A:
 BYTE   N11  Gs1  v116
 BYTE   N11  Cs2
 BYTE   W16
 BYTE   N03  Gs1  v108
 BYTE   N03  Cs2
 BYTE   W08
 BYTE   N11  Gs1  v116
 BYTE   N11  Cs2
 BYTE   W16
 BYTE   N03  Gs1  v112
 BYTE   N03  Cs2
 BYTE   W08
 BYTE   Gs1  v124
 BYTE   N03  Cs2
 BYTE   W08
 BYTE   Gs1  v108
 BYTE   N03  Cs2
 BYTE   W08
 BYTE   N19  Gs1  v116
 BYTE   N19  Cs2
 BYTE   W24
 BYTE   N03  Gs1  v108
 BYTE   N03  Cs2
 BYTE   W08
 BYTE   PEND 
// 056   ----------------------------------------
Label_6_011891C9:
 BYTE   N11  Gs1  v116
 BYTE   N11  Cs2
 BYTE   W16
 BYTE   N03  Gs1  v108
 BYTE   N03  Cs2
 BYTE   W08
 BYTE   N11  Gs1  v116
 BYTE   N11  Cs2
 BYTE   W16
 BYTE   N03  Gs1  v112
 BYTE   N03  Cs2
 BYTE   W08
 BYTE   Gs1  v124
 BYTE   N03  Cs2
 BYTE   W08
 BYTE   Gs1  v108
 BYTE   N03  Cs2
 BYTE   W16
 BYTE   N19  Cs2  v116
 BYTE   N19  Fn2
 BYTE   W24
 BYTE   PEND 
// 057   ----------------------------------------
 BYTE   N11  Gs1
 BYTE   N11  Cs2
 BYTE   W16
 BYTE   N03  Gs1  v108
 BYTE   N03  Cs2
 BYTE   W08
 BYTE   N11  Gs1  v116
 BYTE   N11  Cs2
 BYTE   W16
 BYTE   N03  Gs1  v112
 BYTE   N03  Cs2
 BYTE   W08
 BYTE   Gs1  v124
 BYTE   N03  Cs2
 BYTE   W08
 BYTE   Gs1  v108
 BYTE   N03  Cs2
 BYTE   W08
 BYTE   Gs1  v116
 BYTE   N03  Cs2
 BYTE   W08
 BYTE   N23  Cs2  v124
 BYTE   N23  Gs2  v108
 BYTE   W24
// 058   ----------------------------------------
Label_6_0118921F:
 BYTE   VOICE   63
 BYTE   N11  Gs1  v116
 BYTE   N11  Cs2
 BYTE   W16
 BYTE   N03  Gs1  v108
 BYTE   N03  Cs2
 BYTE   W08
 BYTE   N11  Gs1  v116
 BYTE   N11  Cs2
 BYTE   W16
 BYTE   N03  Gs1  v112
 BYTE   N03  Cs2
 BYTE   W08
 BYTE   Gs1  v124
 BYTE   N03  Cs2
 BYTE   W08
 BYTE   Gs1  v108
 BYTE   N03  Cs2
 BYTE   W08
 BYTE   N19  Gs1  v116
 BYTE   N19  Cs2
 BYTE   W24
 BYTE   N03  Gs1  v108
 BYTE   N03  Cs2
 BYTE   W08
 BYTE   PEND 
// 059   ----------------------------------------
 BYTE   N11  Cn2
 BYTE   W96
// 060   ----------------------------------------
 BYTE   W96
// 061   ----------------------------------------
 BYTE   W96
// 062   ----------------------------------------
 BYTE   W80
 BYTE   N03  Gs1  v124
 BYTE   N03  Cs2
 BYTE   W08
 BYTE   Gs1  v108
 BYTE   N03  Cs2
 BYTE   W08
 BYTE   PATT
  POIN2 Label_6_0118919A
 BYTE   PATT
  POIN2 Label_6_011891C9
// 063   ----------------------------------------
 BYTE   N11  Gs1  v116
 BYTE   N11  Cs2
 BYTE   W16
 BYTE   N03  Gs1  v108
 BYTE   N03  Cs2
 BYTE   W08
 BYTE   N11  Gs1  v116
 BYTE   N11  Cs2
 BYTE   W16
 BYTE   N03  Gs1  v112
 BYTE   N03  Cs2
 BYTE   W08
 BYTE   Gs1  v124
 BYTE   N03  Cs2
 BYTE   W08
 BYTE   Gs1  v108
 BYTE   N03  Cs2
 BYTE   N03  As2  v100
 BYTE   W08
 BYTE   Gs1  v116
 BYTE   N03  Cs2
 BYTE   W08
 BYTE   VOICE   65
 BYTE   N23  Cs2  v124
 BYTE   N23  As2  v108
 BYTE   W24
 BYTE   PATT
  POIN2 Label_6_0118921F
// 064   ----------------------------------------
 BYTE   N03  Cn2  v124
 BYTE   W96
// 065   ----------------------------------------
 BYTE   W96
// 066   ----------------------------------------
 BYTE   W96
// 067   ----------------------------------------
 BYTE   W92
 BYTE   W03
 BYTE   GoTo
  POIN2 Label_6_01188BAE
 BYTE   FINE

//**************** Track 8 (Midi-Chn.7) ****************//

PokemonBWVsTeamPlasma_008:
// 000   ----------------------------------------
 BYTE   KEYSH   PokemonBWVsTeamPlasma_key+0
 BYTE   VOICE   102
 BYTE   VOL   51*PokemonBWVsTeamPlasma_mvl/mxv
 BYTE   PAN   c_v+0
 BYTE   MOD 0
 BYTE   CnM2
 BYTE   PAN   c_v-56
 BYTE   VOL   45*PokemonBWVsTeamPlasma_mvl/mxv
 BYTE   BEND   c_v+50
 BYTE   W16
 BYTE   PAN   c_v-44
 BYTE   VOL   47*PokemonBWVsTeamPlasma_mvl/mxv
 BYTE   BEND   c_v+47
 BYTE   W16
 BYTE   PAN   c_v-27
 BYTE   VOL   48*PokemonBWVsTeamPlasma_mvl/mxv
 BYTE   BEND   c_v+42
 BYTE   W16
 BYTE   PAN   c_v-13
 BYTE   VOL   49*PokemonBWVsTeamPlasma_mvl/mxv
 BYTE   BEND   c_v+38
 BYTE   W16
 BYTE   PAN   c_v-3
 BYTE   VOL   51*PokemonBWVsTeamPlasma_mvl/mxv
 BYTE   BEND   c_v+35
 BYTE   W16
 BYTE   PAN   c_v+6
 BYTE   VOL   52*PokemonBWVsTeamPlasma_mvl/mxv
 BYTE   BEND   c_v+31
 BYTE   W16
// 001   ----------------------------------------
 BYTE   PAN   c_v+14
 BYTE   VOL   54*PokemonBWVsTeamPlasma_mvl/mxv
 BYTE   BEND   c_v+26
 BYTE   W16
 BYTE   PAN   c_v+21
 BYTE   VOL   58*PokemonBWVsTeamPlasma_mvl/mxv
 BYTE   BEND   c_v+22
 BYTE   W16
 BYTE   PAN   c_v+33
 BYTE   VOL   60*PokemonBWVsTeamPlasma_mvl/mxv
 BYTE   BEND   c_v+8
 BYTE   W16
 BYTE   PAN   c_v+41
 BYTE   VOL   65*PokemonBWVsTeamPlasma_mvl/mxv
 BYTE   BEND   c_v-39
 BYTE   W16
 BYTE   PAN   c_v+49
 BYTE   BEND   c_v-51
 BYTE   W16
 BYTE   GsM2
 BYTE   W16
// 002   ----------------------------------------
 BYTE   VOL   53*PokemonBWVsTeamPlasma_mvl/mxv
 BYTE   PAN   c_v+0
 BYTE   BEND   c_v+0
 BYTE   N15  Cn3  v120
 BYTE   W02
 BYTE   VOICE   91
 BYTE   W14
 BYTE   N07  Fs3  v108
 BYTE   W08
 BYTE   N15  Gs3  v100
 BYTE   W16
 BYTE   N07  Gn3  v108
 BYTE   W08
 BYTE   N15  As3  v100
 BYTE   W16
 BYTE   N07  Gn3  v112
 BYTE   W08
 BYTE   N23  Ds4  v100
 BYTE   W24
// 003   ----------------------------------------
 BYTE   N92  En4  v112
 BYTE   W08
 BYTE   VOL   46*PokemonBWVsTeamPlasma_mvl/mxv
 BYTE   W16
 BYTE   Fn1
 BYTE   W08
 BYTE   Ds1
 BYTE   W08
 BYTE   Cs1
 BYTE   W08
 BYTE   Fn0
 BYTE   W08
 BYTE   Cs0
 BYTE   W08
 BYTE   FnM1
 BYTE   W08
 BYTE   BnM2
 BYTE   W08
 BYTE   DnM2
 BYTE   W16
// 004   ----------------------------------------
 BYTE   Dn2
 BYTE   N15  Cn3  v100
 BYTE   W16
 BYTE   N07  Fs3
 BYTE   W08
 BYTE   N15  Gs3
 BYTE   W16
 BYTE   N07  Gn3
 BYTE   W08
 BYTE   N15  As3
 BYTE   W16
 BYTE   N07  Gn3
 BYTE   W08
 BYTE   N23  Bn3
 BYTE   W24
// 005   ----------------------------------------
 BYTE   N84  Cn4  v108
 BYTE   W08
 BYTE   VOL   46*PokemonBWVsTeamPlasma_mvl/mxv
 BYTE   W16
 BYTE   Fn1
 BYTE   W08
 BYTE   Ds1
 BYTE   W08
 BYTE   Cs1
 BYTE   W08
 BYTE   Fn0
 BYTE   W08
 BYTE   Cs0
 BYTE   W08
 BYTE   FnM1
 BYTE   W08
 BYTE   BnM2
 BYTE   W08
 BYTE   DnM2
 BYTE   W16
// 006   ----------------------------------------
 BYTE   VOICE   101
 BYTE   PAN   c_v+43
 BYTE   VOL   65*PokemonBWVsTeamPlasma_mvl/mxv
 BYTE   W01
 BYTE   N21  Fs2  v056
 BYTE   W24
 BYTE   N07  An2
 BYTE   W16
 BYTE   Fn3
 BYTE   W08
 BYTE   Fn2
 BYTE   W24
 BYTE   An1
 BYTE   W08
 BYTE   N03  Fn2
 BYTE   W08
 BYTE   N07  An1
 BYTE   W07
// 007   ----------------------------------------
 BYTE   PAN   c_v-31
 BYTE   W96
// 008   ----------------------------------------
 BYTE   Gs6
 BYTE   N23  Cs3  v052
 BYTE   W24
 BYTE   N05  As3  v056
 BYTE   W16
 BYTE   N03  Cn4
 BYTE   W08
 BYTE   N23  Gn2  v052
 BYTE   W24
 BYTE   Ds2
 BYTE   W24
// 009   ----------------------------------------
 BYTE   VOICE   93
 BYTE   W24
 BYTE   PAN   c_v-9
 BYTE   W48
 BYTE   N23  En3  v100
 BYTE   W24
// 010   ----------------------------------------
 BYTE   W04
Label_7_011893AF:
 BYTE   W92
// 011   ----------------------------------------
 BYTE   W96
// 012   ----------------------------------------
 BYTE   W96
// 013   ----------------------------------------
 BYTE   VOICE   75
 BYTE   VOL   39*PokemonBWVsTeamPlasma_mvl/mxv
 BYTE   PAN   c_v+29
 BYTE   BEND   c_v+0
 BYTE   N15  Cn4  v120
 BYTE   W16
 BYTE   N07  Dn4
 BYTE   W08
 BYTE   N44  Ds4
 BYTE   W48
 BYTE   N15  Cs4
 BYTE   W16
 BYTE   N07
 BYTE   W08
// 014   ----------------------------------------
 BYTE   W96
// 015   ----------------------------------------
 BYTE   W96
// 016   ----------------------------------------
 BYTE   W96
// 017   ----------------------------------------
 BYTE   N15  Cn4
 BYTE   W16
 BYTE   N07  Dn4
 BYTE   W08
 BYTE   N44  Ds4
 BYTE   W48
 BYTE   N23  Fn4
 BYTE   W24
// 018   ----------------------------------------
 BYTE   An3
 BYTE   W96
// 019   ----------------------------------------
 BYTE   W96
// 020   ----------------------------------------
 BYTE   W96
// 021   ----------------------------------------
 BYTE   W72
 BYTE   VOICE   46
 BYTE   VOL   62*PokemonBWVsTeamPlasma_mvl/mxv
 BYTE   N07  Bn1  v127
 BYTE   W08
 BYTE   Dn2  v100
 BYTE   W08
 BYTE   Bn1  v112
 BYTE   W08
// 022   ----------------------------------------
 BYTE   N19  En2  v116
 BYTE   W24
 BYTE   N32  Bn1  v096
 BYTE   W40
 BYTE   N15  En2
 BYTE   W16
 BYTE   Bn1
 BYTE   W16
// 023   ----------------------------------------
 BYTE   En2  v127
 BYTE   W16
 BYTE   N32  Bn1
 BYTE   W32
 BYTE   N15  En2
 BYTE   W16
 BYTE   Bn1
 BYTE   W16
 BYTE   En2
 BYTE   W16
// 024   ----------------------------------------
Label_7_01189405:
 BYTE   N07  En2  v116
 BYTE   W16
 BYTE   En2  v080
 BYTE   W08
 BYTE   N11  Bn1  v120
 BYTE   W16
 BYTE   N07  Bn1  v096
 BYTE   W08
 BYTE   N23  En2  v116
 BYTE   W24
 BYTE   N11  Bn1
 BYTE   W16
 BYTE   N07  Bn1  v096
 BYTE   W08
 BYTE   PEND 
// 025   ----------------------------------------
Label_7_01189420:
 BYTE   N15  En2  v127
 BYTE   W16
 BYTE   Bn1
 BYTE   W16
 BYTE   En2
 BYTE   W16
 BYTE   Bn1
 BYTE   W16
 BYTE   N07  En2
 BYTE   W08
 BYTE   Bn1  v092
 BYTE   W08
 BYTE   N01  En2  v127
 BYTE   W08
 BYTE   N01
 BYTE   W08
 BYTE   PEND 
 BYTE   PATT
  POIN2 Label_7_01189405
 BYTE   PATT
  POIN2 Label_7_01189420
// 026   ----------------------------------------
 BYTE   N13  En2  v124
 BYTE   W16
 BYTE   N07  En2  v100
 BYTE   W08
 BYTE   N13  Bn1  v124
 BYTE   W16
 BYTE   N07  Bn1  v096
 BYTE   W08
 BYTE   N09  En2  v124
 BYTE   W16
 BYTE   N07  Bn1  v092
 BYTE   W08
 BYTE   N11  En2  v124
 BYTE   W16
 BYTE   N07  Bn1  v092
 BYTE   W08
// 027   ----------------------------------------
 BYTE   N15  En2  v127
 BYTE   W16
 BYTE   N07  Bn1
 BYTE   W08
 BYTE   N13  En2
 BYTE   W16
 BYTE   N07  Bn1  v096
 BYTE   W08
 BYTE   N21  Bn1  v127
 BYTE   W24
 BYTE   N01  An1  v088
 BYTE   W04
 BYTE   An1  v096
 BYTE   W04
 BYTE   An1  v108
 BYTE   W04
 BYTE   An1  v120
 BYTE   W04
 BYTE   An1  v127
 BYTE   W04
 BYTE   N01
 BYTE   W04
// 028   ----------------------------------------
 BYTE   N92  Dn2
 BYTE   W96
// 029   ----------------------------------------
 BYTE   W96
// 030   ----------------------------------------
 BYTE   VOL   61*PokemonBWVsTeamPlasma_mvl/mxv
 BYTE   W96
// 031   ----------------------------------------
 BYTE   W96
// 032   ----------------------------------------
 BYTE   W96
// 033   ----------------------------------------
 BYTE   W96
// 034   ----------------------------------------
 BYTE   W96
// 035   ----------------------------------------
 BYTE   W96
// 036   ----------------------------------------
 BYTE   W96
// 037   ----------------------------------------
 BYTE   W96
// 038   ----------------------------------------
 BYTE   W96
// 039   ----------------------------------------
 BYTE   W96
// 040   ----------------------------------------
 BYTE   W96
// 041   ----------------------------------------
 BYTE   W96
// 042   ----------------------------------------
 BYTE   W96
// 043   ----------------------------------------
 BYTE   W96
// 044   ----------------------------------------
 BYTE   W96
// 045   ----------------------------------------
 BYTE   W96
// 046   ----------------------------------------
 BYTE   W96
// 047   ----------------------------------------
 BYTE   W96
// 048   ----------------------------------------
 BYTE   W96
// 049   ----------------------------------------
 BYTE   W96
// 050   ----------------------------------------
 BYTE   W96
// 051   ----------------------------------------
 BYTE   W96
// 052   ----------------------------------------
 BYTE   W96
// 053   ----------------------------------------
 BYTE   W96
// 054   ----------------------------------------
 BYTE   W96
// 055   ----------------------------------------
 BYTE   W96
// 056   ----------------------------------------
 BYTE   W96
// 057   ----------------------------------------
 BYTE   W96
// 058   ----------------------------------------
 BYTE   W96
// 059   ----------------------------------------
 BYTE   W96
// 060   ----------------------------------------
 BYTE   N23  Cn3  v096
 BYTE   W24
 BYTE   N22  Cn2
 BYTE   W24
 BYTE   N03  Cn3  v108
 BYTE   W08
 BYTE   Cn3  v096
 BYTE   W08
 BYTE   Cn3  v092
 BYTE   W08
 BYTE   N22  Cn2  v096
 BYTE   W24
// 061   ----------------------------------------
 BYTE   N14
 BYTE   W16
 BYTE   N15  Gn1
 BYTE   W24
 BYTE   N03  Cn3  v108
 BYTE   W08
 BYTE   N03
 BYTE   W08
 BYTE   Cn3  v096
 BYTE   W08
 BYTE   Cn3  v092
 BYTE   W08
 BYTE   N22  Cn2  v096
 BYTE   W24
// 062   ----------------------------------------
 BYTE   N23  Cn3
 BYTE   W24
 BYTE   N22  Cn2
 BYTE   W24
 BYTE   N03  Cn3  v108
 BYTE   W08
 BYTE   Cn3  v096
 BYTE   W08
 BYTE   Cn3  v092
 BYTE   W08
 BYTE   N22  Cn2  v096
 BYTE   W24
// 063   ----------------------------------------
 BYTE   N14
 BYTE   W16
 BYTE   N15  Gn1
 BYTE   W40
 BYTE   N03  Cn3
 BYTE   W08
 BYTE   Cn3  v092
 BYTE   W08
 BYTE   N22  Cn2  v096
 BYTE   W24
// 064   ----------------------------------------
 BYTE   W96
// 065   ----------------------------------------
 BYTE   W96
// 066   ----------------------------------------
 BYTE   W96
// 067   ----------------------------------------
 BYTE   W96
// 068   ----------------------------------------
 BYTE   VOICE   101
 BYTE   N23  Cs1  v104
 BYTE   W20
 BYTE   VOL   47*PokemonBWVsTeamPlasma_mvl/mxv
 BYTE   W04
 BYTE   VOICE   102
 BYTE   VOL   47*PokemonBWVsTeamPlasma_mvl/mxv
 BYTE   BEND   c_v-3
 BYTE   W02
 BYTE   Cn3
 BYTE   W02
 BYTE   VOL   46*PokemonBWVsTeamPlasma_mvl/mxv
 BYTE   BEND   c_v-6
 BYTE   W02
 BYTE   An2
 BYTE   W02
 BYTE   VOL   44*PokemonBWVsTeamPlasma_mvl/mxv
 BYTE   BEND   c_v-7
 BYTE   W02
 BYTE   An2
 BYTE   W02
 BYTE   VOL   41*PokemonBWVsTeamPlasma_mvl/mxv
 BYTE   BEND   c_v-10
 BYTE   W02
 BYTE   En2
 BYTE   W02
 BYTE   VOL   41*PokemonBWVsTeamPlasma_mvl/mxv
 BYTE   BEND   c_v-12
 BYTE   W02
 BYTE   Dn2
 BYTE   W02
 BYTE   VOL   39*PokemonBWVsTeamPlasma_mvl/mxv
 BYTE   BEND   c_v-17
 BYTE   W02
 BYTE   As1
 BYTE   W02
 BYTE   VOL   37*PokemonBWVsTeamPlasma_mvl/mxv
 BYTE   BEND   c_v-20
 BYTE   W02
 BYTE   Gs1
 BYTE   W02
 BYTE   VOL   36*PokemonBWVsTeamPlasma_mvl/mxv
 BYTE   BEND   c_v-24
 BYTE   W02
 BYTE   Ds1
 BYTE   W02
 BYTE   VOL   35*PokemonBWVsTeamPlasma_mvl/mxv
 BYTE   BEND   c_v-26
 BYTE   W02
 BYTE   Cn1
 BYTE   W02
 BYTE   VOL   33*PokemonBWVsTeamPlasma_mvl/mxv
 BYTE   BEND   c_v-29
 BYTE   W02
 BYTE   As0
 BYTE   W02
 BYTE   VOL   31*PokemonBWVsTeamPlasma_mvl/mxv
 BYTE   BEND   c_v-34
 BYTE   W02
 BYTE   En0
 BYTE   W02
 BYTE   VOL   30*PokemonBWVsTeamPlasma_mvl/mxv
 BYTE   BEND   c_v-36
 BYTE   W02
 BYTE   Cs0
 BYTE   W02
 BYTE   VOL   30*PokemonBWVsTeamPlasma_mvl/mxv
 BYTE   BEND   c_v-41
 BYTE   W02
 BYTE   AnM1
 BYTE   W02
 BYTE   VOL   29*PokemonBWVsTeamPlasma_mvl/mxv
 BYTE   BEND   c_v-46
 BYTE   W02
 BYTE   GnM1
 BYTE   W02
 BYTE   VOL   28*PokemonBWVsTeamPlasma_mvl/mxv
 BYTE   BEND   c_v-50
 BYTE   W02
 BYTE   DnM1
 BYTE   W02
 BYTE   VOL   27*PokemonBWVsTeamPlasma_mvl/mxv
 BYTE   BEND   c_v-55
 BYTE   W02
 BYTE   GsM2
 BYTE   W02
 BYTE   VOL   26*PokemonBWVsTeamPlasma_mvl/mxv
 BYTE   BEND   c_v-57
 BYTE   W02
 BYTE   FnM2
 BYTE   W02
 BYTE   VOL   26*PokemonBWVsTeamPlasma_mvl/mxv
 BYTE   BEND   c_v-60
 BYTE   W02
 BYTE   DsM2
 BYTE   W02
// 069   ----------------------------------------
 BYTE   VOL   25*PokemonBWVsTeamPlasma_mvl/mxv
 BYTE   BEND   c_v-62
 BYTE   W02
 BYTE   CnM2
 BYTE   W02
 BYTE   VOL   24*PokemonBWVsTeamPlasma_mvl/mxv
 BYTE   BEND   c_v-64
 BYTE   W02
 BYTE   CnM2
 BYTE   W02
 BYTE   VOL   24*PokemonBWVsTeamPlasma_mvl/mxv
 BYTE   BEND   c_v-64
 BYTE   W02
 BYTE   CnM2
 BYTE   W02
 BYTE   CnM2
 BYTE   W02
 BYTE   CnM2
 BYTE   W02
 BYTE   CnM2
 BYTE   W02
 BYTE   CnM2
 BYTE   W02
 BYTE   CnM2
 BYTE   W02
 BYTE   CnM2
 BYTE   W02
 BYTE   CnM2
 BYTE   W02
 BYTE   CnM2
 BYTE   W02
 BYTE   CnM2
 BYTE   W02
 BYTE   CnM2
 BYTE   W02
 BYTE   CnM2
 BYTE   W02
 BYTE   CnM2
 BYTE   W02
 BYTE   CnM2
 BYTE   W02
 BYTE   CnM2
 BYTE   W02
 BYTE   VOL   24*PokemonBWVsTeamPlasma_mvl/mxv
 BYTE   BEND   c_v-64
 BYTE   W02
 BYTE   CnM2
 BYTE   W02
 BYTE   CnM2
 BYTE   W04
 BYTE   CnM2
 BYTE   W02
 BYTE   CnM2
 BYTE   W02
 BYTE   CnM2
 BYTE   W04
 BYTE   CnM2
 BYTE   W04
 BYTE   CnM2
 BYTE   W04
 BYTE   VOL   25*PokemonBWVsTeamPlasma_mvl/mxv
 BYTE   BEND   c_v-64
 BYTE   W04
 BYTE   VOL   25*PokemonBWVsTeamPlasma_mvl/mxv
 BYTE   BEND   c_v-64
 BYTE   W04
 BYTE   VOL   26*PokemonBWVsTeamPlasma_mvl/mxv
 BYTE   PAN   c_v-6
 BYTE   BEND   c_v-64
 BYTE   W04
 BYTE   CnM2
 BYTE   W04
 BYTE   VOL   26*PokemonBWVsTeamPlasma_mvl/mxv
 BYTE   PAN   c_v-19
 BYTE   BEND   c_v-63
 BYTE   W04
 BYTE   VOL   27*PokemonBWVsTeamPlasma_mvl/mxv
 BYTE   BEND   c_v-60
 BYTE   W04
 BYTE   VOL   28*PokemonBWVsTeamPlasma_mvl/mxv
 BYTE   PAN   c_v-36
 BYTE   BEND   c_v-59
 BYTE   W02
 BYTE   FnM2
 BYTE   W02
 BYTE   VOL   28*PokemonBWVsTeamPlasma_mvl/mxv
 BYTE   BEND   c_v-59
 BYTE   W02
 BYTE   GnM2
 BYTE   W02
// 070   ----------------------------------------
 BYTE   PAN   c_v-54
 BYTE   VOL   29*PokemonBWVsTeamPlasma_mvl/mxv
 BYTE   BEND   c_v-56
 BYTE   W02
 BYTE   AnM2
 BYTE   W02
 BYTE   VOL   29*PokemonBWVsTeamPlasma_mvl/mxv
 BYTE   BEND   c_v-54
 BYTE   W04
 BYTE   PAN   c_v-49
 BYTE   VOL   30*PokemonBWVsTeamPlasma_mvl/mxv
 BYTE   BEND   c_v-52
 BYTE   W04
 BYTE   VOL   31*PokemonBWVsTeamPlasma_mvl/mxv
 BYTE   BEND   c_v-50
 BYTE   W04
 BYTE   VOL   31*PokemonBWVsTeamPlasma_mvl/mxv
 BYTE   PAN   c_v-42
 BYTE   BEND   c_v-49
 BYTE   W04
 BYTE   VOL   32*PokemonBWVsTeamPlasma_mvl/mxv
 BYTE   BEND   c_v-47
 BYTE   W02
 BYTE   FnM1
 BYTE   W02
 BYTE   VOL   33*PokemonBWVsTeamPlasma_mvl/mxv
 BYTE   PAN   c_v-33
 BYTE   BEND   c_v-45
 BYTE   W04
 BYTE   VOL   33*PokemonBWVsTeamPlasma_mvl/mxv
 BYTE   BEND   c_v-44
 BYTE   W02
 BYTE   AnM1
 BYTE   W02
 BYTE   VOL   34*PokemonBWVsTeamPlasma_mvl/mxv
 BYTE   PAN   c_v-30
 BYTE   BEND   c_v-40
 BYTE   W04
 BYTE   VOL   34*PokemonBWVsTeamPlasma_mvl/mxv
 BYTE   BEND   c_v-40
 BYTE   W02
 BYTE   Dn0
 BYTE   W02
 BYTE   VOL   35*PokemonBWVsTeamPlasma_mvl/mxv
 BYTE   PAN   c_v-28
 BYTE   BEND   c_v-38
 BYTE   W02
 BYTE   Fn0
 BYTE   W02
 BYTE   VOL   37*PokemonBWVsTeamPlasma_mvl/mxv
 BYTE   BEND   c_v-34
 BYTE   W02
 BYTE   Gs0
 BYTE   W02
 BYTE   VOL   37*PokemonBWVsTeamPlasma_mvl/mxv
 BYTE   PAN   c_v-27
 BYTE   BEND   c_v-30
 BYTE   W02
 BYTE   Bn0
 BYTE   W02
 BYTE   Cn1
 BYTE   W02
 BYTE   Ds1
 BYTE   W02
 BYTE   PAN   c_v-23
 BYTE   VOL   38*PokemonBWVsTeamPlasma_mvl/mxv
 BYTE   BEND   c_v-23
 BYTE   W02
 BYTE   Cn2
 BYTE   W02
 BYTE   VOL   39*PokemonBWVsTeamPlasma_mvl/mxv
 BYTE   BEND   c_v-12
 BYTE   W02
 BYTE   Bn2
 BYTE   W02
 BYTE   PAN   c_v-18
 BYTE   BEND   c_v-3
 BYTE   W04
 BYTE   VOL   39*PokemonBWVsTeamPlasma_mvl/mxv
 BYTE   BEND   c_v-3
 BYTE   W02
 BYTE   En3
 BYTE   W02
 BYTE   VOL   40*PokemonBWVsTeamPlasma_mvl/mxv
 BYTE   PAN   c_v-16
 BYTE   BEND   c_v+3
 BYTE   W02
 BYTE   An3
 BYTE   W02
 BYTE   VOL   40*PokemonBWVsTeamPlasma_mvl/mxv
 BYTE   BEND   c_v+5
 BYTE   W02
 BYTE   As3
 BYTE   W02
 BYTE   PAN   c_v-10
 BYTE   BEND   c_v+8
 BYTE   W02
 BYTE   Cs4
 BYTE   W02
 BYTE   VOL   41*PokemonBWVsTeamPlasma_mvl/mxv
 BYTE   BEND   c_v+12
 BYTE   W02
 BYTE   En4
 BYTE   W02
 BYTE   PAN   c_v-5
 BYTE   BEND   c_v+13
 BYTE   W02
 BYTE   Fs4
 BYTE   W02
 BYTE   Gn4
 BYTE   W02
 BYTE   Gs4
 BYTE   W02
// 071   ----------------------------------------
 BYTE   PAN   c_v-1
 BYTE   BEND   c_v+18
 BYTE   N92  Cn1
 BYTE   W02
 BYTE   BEND   c_v+20
 BYTE   W02
 BYTE   VOL   39*PokemonBWVsTeamPlasma_mvl/mxv
 BYTE   BEND   c_v+20
 BYTE   W02
 BYTE   Cs5
 BYTE   W02
 BYTE   PAN   c_v+6
 BYTE   BEND   c_v+24
 BYTE   W02
 BYTE   En5
 BYTE   W02
 BYTE   VOL   39*PokemonBWVsTeamPlasma_mvl/mxv
 BYTE   BEND   c_v+26
 BYTE   W02
 BYTE   Gn5
 BYTE   W02
 BYTE   VOL   38*PokemonBWVsTeamPlasma_mvl/mxv
 BYTE   PAN   c_v+12
 BYTE   BEND   c_v+29
 BYTE   W02
 BYTE   An5
 BYTE   W02
 BYTE   Bn5
 BYTE   W04
 BYTE   VOL   38*PokemonBWVsTeamPlasma_mvl/mxv
 BYTE   PAN   c_v+20
 BYTE   BEND   c_v+33
 BYTE   W02
 BYTE   Dn6
 BYTE   W02
 BYTE   VOL   37*PokemonBWVsTeamPlasma_mvl/mxv
 BYTE   BEND   c_v+36
 BYTE   W02
 BYTE   Fs6
 BYTE   W02
 BYTE   VOL   37*PokemonBWVsTeamPlasma_mvl/mxv
 BYTE   PAN   c_v+25
 BYTE   BEND   c_v+39
 BYTE   W02
 BYTE   Bn6
 BYTE   W02
 BYTE   VOL   36*PokemonBWVsTeamPlasma_mvl/mxv
 BYTE   BEND   c_v+48
 BYTE   W04
 BYTE   VOL   35*PokemonBWVsTeamPlasma_mvl/mxv
 BYTE   PAN   c_v+36
 BYTE   BEND   c_v+51
 BYTE   W04
 BYTE   VOL   33*PokemonBWVsTeamPlasma_mvl/mxv
 BYTE   BEND   c_v+52
 BYTE   W02
 BYTE   An7
 BYTE   W02
 BYTE   VOL   32*PokemonBWVsTeamPlasma_mvl/mxv
 BYTE   PAN   c_v+44
 BYTE   BEND   c_v+59
 BYTE   W02
 BYTE   Fn8
 BYTE   W02
 BYTE   VOL   31*PokemonBWVsTeamPlasma_mvl/mxv
 BYTE   BEND   c_v+63
 BYTE   W04
 BYTE   VOL   30*PokemonBWVsTeamPlasma_mvl/mxv
 BYTE   PAN   c_v+54
 BYTE   BEND   c_v+63
 BYTE   W02
 BYTE   Gn8
 BYTE   W02
 BYTE   VOL   29*PokemonBWVsTeamPlasma_mvl/mxv
 BYTE   BEND   c_v+63
 BYTE   W02
 BYTE   Gn8
 BYTE   W02
 BYTE   VOL   28*PokemonBWVsTeamPlasma_mvl/mxv
 BYTE   BEND   c_v+63
 BYTE   W04
 BYTE   VOL   27*PokemonBWVsTeamPlasma_mvl/mxv
 BYTE   BEND   c_v+63
 BYTE   W04
 BYTE   VOL   25*PokemonBWVsTeamPlasma_mvl/mxv
 BYTE   BEND   c_v+63
 BYTE   W04
 BYTE   VOL   24*PokemonBWVsTeamPlasma_mvl/mxv
 BYTE   BEND   c_v+63
 BYTE   W04
 BYTE   VOL   22*PokemonBWVsTeamPlasma_mvl/mxv
 BYTE   BEND   c_v+63
 BYTE   W04
 BYTE   VOL   19*PokemonBWVsTeamPlasma_mvl/mxv
 BYTE   BEND   c_v+63
 BYTE   W04
 BYTE   VOL   17*PokemonBWVsTeamPlasma_mvl/mxv
 BYTE   BEND   c_v+63
 BYTE   W04
 BYTE   Gn8
 BYTE   W02
 BYTE   Gn8
 BYTE   W01
 BYTE   GoTo
  POIN2 Label_7_011893AF
 BYTE   FINE

//******************************************************//
	ALIGN 4

PokemonBWVsTeamPlasma:
	BYTE	8	// NumTrks
	BYTE	0	// NumBlks
	BYTE	PokemonBWVsTeamPlasma_pri	// Priority
	BYTE	PokemonBWVsTeamPlasma_rev	// Reverb.
    
	POIN2	PokemonBWVsTeamPlasma_grp
    
	POIN2	PokemonBWVsTeamPlasma_001
	POIN2	PokemonBWVsTeamPlasma_002
	POIN2	PokemonBWVsTeamPlasma_003
	POIN2	PokemonBWVsTeamPlasma_004
	POIN2	PokemonBWVsTeamPlasma_005
	POIN2	PokemonBWVsTeamPlasma_006
	POIN2	PokemonBWVsTeamPlasma_007
	POIN2	PokemonBWVsTeamPlasma_008

	
