//Event file generated from Sappy .s format.
	#include "MPlayDef.event"

	#define	PokemonRangerGuardianSignsTitleThemeSme_grp  voicegroup000
	#define	PokemonRangerGuardianSignsTitleThemeSme_pri  0
	#define	PokemonRangerGuardianSignsTitleThemeSme_rev  0
	#define	PokemonRangerGuardianSignsTitleThemeSme_mvl  60
	#define	PokemonRangerGuardianSignsTitleThemeSme_key  0
	#define	PokemonRangerGuardianSignsTitleThemeSme_tbs  1
	#define	PokemonRangerGuardianSignsTitleThemeSme_exg  0
	#define	PokemonRangerGuardianSignsTitleThemeSme_cmp  1

	// .rodata
	//	PokemonRangerGuardianSignsTitleThemeSme
	ALIGN 4

//**************** Track 1 (Midi-Chn.1) ****************//

PokemonRangerGuardianSignsTitleThemeSme_1:
	BYTE	KEYSH   PokemonRangerGuardianSignsTitleThemeSme_key+0
PokemonRangerGuardianSignsTitleThemeSme_1_B1:
// 000   ----------------------------------------
	BYTE	TEMPO   120*PokemonRangerGuardianSignsTitleThemeSme_tbs/2
	BYTE		VOICE   57
	BYTE		VOL     95*PokemonRangerGuardianSignsTitleThemeSme_mvl/mxv
	BYTE		N06     Gs2   v112
	BYTE		N06     En3   v127
	BYTE	W06
	BYTE		        En2   v112
	BYTE		N06     Bn2   v127
	BYTE	W06
	BYTE		        Gs2   v112
	BYTE		N06     En3   v127
	BYTE	W06
	BYTE		        Bn2   v112
	BYTE		N06     Gs3   v127
	BYTE	W06
	BYTE		N24     En3   v112
	BYTE		N24     Bn3   v127
	BYTE	W36
	BYTE		N06     Gs3   v112
	BYTE		N06     En4   v127
	BYTE	W12
	BYTE		        Gs3   v112
	BYTE		N06     En4   v127
	BYTE	W12
	BYTE		        Gs3   v112
	BYTE		N06     En4   v127
	BYTE	W12
// 001   ----------------------------------------
PokemonRangerGuardianSignsTitleThemeSme_1_001:
	BYTE		N12     Fs3   v112
	BYTE		N12     En4   v127
	BYTE	W12
	BYTE		N06     Fs3   v112
	BYTE		N06     Dn4   v127
	BYTE	W06
	BYTE		        Fs3   v112
	BYTE		N06     Cs4   v127
	BYTE	W06
	BYTE		N36     Fs3   v112
	BYTE		N36     Dn4   v127
	BYTE	W48
	BYTE		N12     Dn3   v112
	BYTE		N12     Bn3   v127
	BYTE	W12
	BYTE		        Fs3   v112
	BYTE		N12     Cn4   v127
	BYTE	W12
	BYTE	PEND
// 002   ----------------------------------------
	BYTE		N06     En3   v112
	BYTE		N06     Cs4   v127
	BYTE	W12
	BYTE		        En3   v112
	BYTE		N06     Cs4   v127
	BYTE	W06
	BYTE		        En3   v112
	BYTE		N06     Ds4   v127
	BYTE	W06
	BYTE		N36     An3   v112
	BYTE		N36     En4   v127
	BYTE	W36
	BYTE		N12     En3   v112
	BYTE		N12     Cs4   v127
	BYTE	W12
	BYTE		        Cs3   v112
	BYTE		N12     Gs3   v127
	BYTE	W12
	BYTE		        Cs3   v112
	BYTE		N12     An3   v127
	BYTE	W12
// 003   ----------------------------------------
	BYTE		N36     En3   v112
	BYTE		N36     Bn3   v127
	BYTE	W36
	BYTE		N06     En3   v112
	BYTE		N06     An3   v127
	BYTE	W06
	BYTE		        En3   v112
	BYTE		N06     Gs3   v127
	BYTE	W06
	BYTE		N12     Ds3   v112
	BYTE		N12     Fs3   v127
	BYTE	W24
	BYTE		N24     Ds3   v112
	BYTE		N24     Gn3   v127
	BYTE	W24
// 004   ----------------------------------------
	BYTE		N06     En3 
	BYTE		N06     Gs3   v112
	BYTE	W06
	BYTE		        En2 
	BYTE		N06     Bn2   v127
	BYTE	W06
	BYTE		        Gs2   v112
	BYTE		N06     En3   v127
	BYTE	W06
	BYTE		        Bn2   v112
	BYTE		N06     Gs3   v127
	BYTE	W06
	BYTE		N24     En3   v112
	BYTE		N24     Bn3   v127
	BYTE	W36
	BYTE		N06     Gs3   v112
	BYTE		N06     En4   v127
	BYTE	W12
	BYTE		        Gs3   v112
	BYTE		N06     En4   v127
	BYTE	W12
	BYTE		        Gs3   v112
	BYTE		N06     En4   v127
	BYTE	W12
// 005   ----------------------------------------
	BYTE	PATT
	 POIN2	PokemonRangerGuardianSignsTitleThemeSme_1_001
// 006   ----------------------------------------
	BYTE		N06     En3   v112
	BYTE		N06     Cs4   v127
	BYTE	W12
	BYTE		        En3   v112
	BYTE		N06     Cs4   v127
	BYTE	W06
	BYTE		        En3   v112
	BYTE		N06     Ds4   v127
	BYTE	W06
	BYTE		N36     An3   v112
	BYTE		N36     En4   v127
	BYTE	W48
	BYTE		N12     An3   v112
	BYTE		N12     En4   v127
	BYTE	W12
	BYTE		        An3   v112
	BYTE		N12     Fs4   v127
	BYTE	W12
// 007   ----------------------------------------
	BYTE		N06     Bn3   v112
	BYTE		N06     Gn4   v127
	BYTE	W12
	BYTE		        Bn3   v112
	BYTE		N06     Gn4   v127
	BYTE	W06
	BYTE		        An3   v112
	BYTE		N06     Fs4   v127
	BYTE	W06
	BYTE		        Bn3   v112
	BYTE		N06     En4   v127
	BYTE	W12
	BYTE		        En3   v112
	BYTE		N06     Bn3   v127
	BYTE	W12
	BYTE		        Fs3   v112
	BYTE		N06     An3   v127
	BYTE	W12
	BYTE		        Fs3   v112
	BYTE		N06     An3   v127
	BYTE	W06
	BYTE		        Dn3   v112
	BYTE		N06     Gn3   v127
	BYTE	W06
	BYTE		        Dn3   v112
	BYTE		N06     Fs3   v127
	BYTE	W12
	BYTE		        An2   v112
	BYTE		N06     Dn3   v127
	BYTE	W12
	BYTE	GoTo
	 POIN2	PokemonRangerGuardianSignsTitleThemeSme_1_B1
PokemonRangerGuardianSignsTitleThemeSme_1_B2:
// 008   ----------------------------------------
	BYTE	FINE

//**************** Track 2 (Midi-Chn.2) ****************//

PokemonRangerGuardianSignsTitleThemeSme_2:
	BYTE	KEYSH   PokemonRangerGuardianSignsTitleThemeSme_key+0
PokemonRangerGuardianSignsTitleThemeSme_2_B1:
// 000   ----------------------------------------
	BYTE		VOICE   71
	BYTE		VOL     83*PokemonRangerGuardianSignsTitleThemeSme_mvl/mxv
	BYTE		PAN     c_v+10
	BYTE		N06     En4   v112
	BYTE	W24
	BYTE		        Gs3 
	BYTE	W06
	BYTE		        En3 
	BYTE	W06
	BYTE		        Gs3 
	BYTE	W06
	BYTE		        Bn3 
	BYTE	W06
	BYTE		N12     Gs3 
	BYTE	W24
	BYTE		N06   
	BYTE	W06
	BYTE		        An3 
	BYTE	W06
	BYTE		        Bn3 
	BYTE	W06
	BYTE		        Cs4 
	BYTE	W06
// 001   ----------------------------------------
	BYTE		        Dn4 
	BYTE	W12
	BYTE		        Dn3   v100
	BYTE	W06
	BYTE		        Cs3 
	BYTE	W06
	BYTE		        Dn3   v112
	BYTE	W24
	BYTE		N06   
	BYTE	W06
	BYTE		        Fs3 
	BYTE	W06
	BYTE		        Bn3 
	BYTE	W06
	BYTE		        Cs4 
	BYTE	W06
	BYTE		        Dn4 
	BYTE	W06
	BYTE		        En4 
	BYTE	W06
	BYTE		        Fs4 
	BYTE	W06
	BYTE		        Gs4 
	BYTE	W06
// 002   ----------------------------------------
PokemonRangerGuardianSignsTitleThemeSme_2_002:
	BYTE		N12     An4   v100
	BYTE	W24
	BYTE		N06   
	BYTE	W06
	BYTE		        Gs4 
	BYTE	W06
	BYTE		        An4 
	BYTE	W06
	BYTE		        Bn4 
	BYTE	W06
	BYTE		        Cs5 
	BYTE	W06
	BYTE		        An4 
	BYTE	W06
	BYTE		        En4 
	BYTE	W06
	BYTE		        An4 
	BYTE	W06
	BYTE		        Cs4   v112
	BYTE	W12
	BYTE		        An3 
	BYTE	W06
	BYTE		        Cs4 
	BYTE	W06
	BYTE	PEND
// 003   ----------------------------------------
	BYTE		        Bn3   v100
	BYTE	W12
	BYTE		N06   
	BYTE	W06
	BYTE		        Cs4 
	BYTE	W06
	BYTE		N12     Bn3 
	BYTE	W24
	BYTE		N06     Fs4   v112
	BYTE	W06
	BYTE		        En4 
	BYTE	W06
	BYTE		        Ds4 
	BYTE	W06
	BYTE		        Cs4 
	BYTE	W06
	BYTE		        Bn3 
	BYTE	W06
	BYTE		        An3 
	BYTE	W06
	BYTE		        Gs3 
	BYTE	W06
	BYTE		        Gn3 
	BYTE	W06
// 004   ----------------------------------------
	BYTE		N12     Gs3 
	BYTE	W24
	BYTE		N06   
	BYTE	W06
	BYTE		        En3 
	BYTE	W06
	BYTE		        Gs3 
	BYTE	W06
	BYTE		        Bn3 
	BYTE	W06
	BYTE		N12     Gs3 
	BYTE	W24
	BYTE		N06   
	BYTE	W06
	BYTE		        An3 
	BYTE	W06
	BYTE		        Bn3 
	BYTE	W06
	BYTE		        Cs4 
	BYTE	W06
// 005   ----------------------------------------
	BYTE		        Dn4 
	BYTE	W12
	BYTE		        Dn3 
	BYTE	W06
	BYTE		        Cs3 
	BYTE	W06
	BYTE		        Dn3 
	BYTE	W24
	BYTE		N06   
	BYTE	W06
	BYTE		        Fs3 
	BYTE	W06
	BYTE		        Bn3 
	BYTE	W06
	BYTE		        Cs4 
	BYTE	W06
	BYTE		        Dn4 
	BYTE	W06
	BYTE		        En4 
	BYTE	W06
	BYTE		        Fs4 
	BYTE	W06
	BYTE		        Gs4 
	BYTE	W06
// 006   ----------------------------------------
	BYTE	PATT
	 POIN2	PokemonRangerGuardianSignsTitleThemeSme_2_002
// 007   ----------------------------------------
	BYTE		N06     Gn4   v100
	BYTE	W06
	BYTE		        Fs4 
	BYTE	W06
	BYTE		        Gn4 
	BYTE	W06
	BYTE		        An4 
	BYTE	W06
	BYTE		        Bn4 
	BYTE	W06
	BYTE		        An4 
	BYTE	W06
	BYTE		        Bn4 
	BYTE	W06
	BYTE		        Gn4 
	BYTE	W06
	BYTE		        An4 
	BYTE	W06
	BYTE		        Gn4 
	BYTE	W06
	BYTE		        Fs4 
	BYTE	W06
	BYTE		        En4 
	BYTE	W06
	BYTE		        Dn4 
	BYTE	W06
	BYTE		        En4 
	BYTE	W06
	BYTE		        Fs4 
	BYTE	W06
	BYTE		        Dn4 
	BYTE	W06
	BYTE	GoTo
	 POIN2	PokemonRangerGuardianSignsTitleThemeSme_2_B1
PokemonRangerGuardianSignsTitleThemeSme_2_B2:
// 008   ----------------------------------------
	BYTE	FINE

//**************** Track 3 (Midi-Chn.3) ****************//

PokemonRangerGuardianSignsTitleThemeSme_3:
	BYTE	KEYSH   PokemonRangerGuardianSignsTitleThemeSme_key+0
PokemonRangerGuardianSignsTitleThemeSme_3_B1:
// 000   ----------------------------------------
	BYTE		VOICE   47
	BYTE		VOL     110*PokemonRangerGuardianSignsTitleThemeSme_mvl/mxv
	BYTE		N24     En3   v100
	BYTE	W84
	BYTE		N12   
	BYTE	W12
// 001   ----------------------------------------
PokemonRangerGuardianSignsTitleThemeSme_3_001:
	BYTE		N24     Bn3   v100
	BYTE	W72
	BYTE		N03     En3   v080
	BYTE	W03
	BYTE		N03   
	BYTE	W03
	BYTE		N03   
	BYTE	W03
	BYTE		N03   
	BYTE	W03
	BYTE		N03   
	BYTE	W03
	BYTE		N03   
	BYTE	W03
	BYTE		N03   
	BYTE	W03
	BYTE		N03   
	BYTE	W03
	BYTE	PEND
// 002   ----------------------------------------
PokemonRangerGuardianSignsTitleThemeSme_3_002:
	BYTE		N24     An3   v100
	BYTE	W84
	BYTE		N12   
	BYTE	W12
	BYTE	PEND
// 003   ----------------------------------------
	BYTE		N24     Bn3 
	BYTE	W72
	BYTE		N03     Bn3   v080
	BYTE	W03
	BYTE		N03   
	BYTE	W03
	BYTE		N03   
	BYTE	W03
	BYTE		N03   
	BYTE	W03
	BYTE		N03   
	BYTE	W03
	BYTE		N03   
	BYTE	W03
	BYTE		N03   
	BYTE	W03
	BYTE		N03   
	BYTE	W03
// 004   ----------------------------------------
	BYTE		N24     En3   v100
	BYTE	W84
	BYTE		N12   
	BYTE	W12
// 005   ----------------------------------------
	BYTE	PATT
	 POIN2	PokemonRangerGuardianSignsTitleThemeSme_3_001
// 006   ----------------------------------------
	BYTE	PATT
	 POIN2	PokemonRangerGuardianSignsTitleThemeSme_3_002
// 007   ----------------------------------------
	BYTE		N24     Cn3   v100
	BYTE	W72
	BYTE		N03     Bn3   v080
	BYTE	W03
	BYTE		N03   
	BYTE	W03
	BYTE		N03   
	BYTE	W03
	BYTE		N03   
	BYTE	W03
	BYTE		N03   
	BYTE	W03
	BYTE		N03   
	BYTE	W03
	BYTE		N03   
	BYTE	W03
	BYTE		N03   
	BYTE	W03
	BYTE	GoTo
	 POIN2	PokemonRangerGuardianSignsTitleThemeSme_3_B1
PokemonRangerGuardianSignsTitleThemeSme_3_B2:
// 008   ----------------------------------------
	BYTE	FINE

//**************** Track 4 (Midi-Chn.4) ****************//

PokemonRangerGuardianSignsTitleThemeSme_4:
	BYTE	KEYSH   PokemonRangerGuardianSignsTitleThemeSme_key+0
PokemonRangerGuardianSignsTitleThemeSme_4_B1:
// 000   ----------------------------------------
	BYTE		VOICE   73
	BYTE		VOL     69*PokemonRangerGuardianSignsTitleThemeSme_mvl/mxv
	BYTE		PAN     c_v-20
	BYTE		N06     Gs4   v108
	BYTE	W24
	BYTE		        En4 
	BYTE	W06
	BYTE		        Bn3 
	BYTE	W06
	BYTE		        En4 
	BYTE	W06
	BYTE		        Gs4 
	BYTE	W06
	BYTE		N24     Bn4 
	BYTE	W48
// 001   ----------------------------------------
PokemonRangerGuardianSignsTitleThemeSme_4_001:
	BYTE		N06     Dn5   v108
	BYTE	W06
	BYTE		        Cs5 
	BYTE	W06
	BYTE		        Bn4 
	BYTE	W06
	BYTE		        An4 
	BYTE	W06
	BYTE		        Bn4 
	BYTE	W06
	BYTE		        Fs4 
	BYTE	W06
	BYTE		        Dn4 
	BYTE	W06
	BYTE		        Cs4 
	BYTE	W06
	BYTE		N12     Dn4 
	BYTE	W24
	BYTE		N06     Fs4 
	BYTE	W06
	BYTE		        Gs4 
	BYTE	W06
	BYTE		        An4 
	BYTE	W06
	BYTE		        Bn4 
	BYTE	W06
	BYTE	PEND
// 002   ----------------------------------------
PokemonRangerGuardianSignsTitleThemeSme_4_002:
	BYTE		N12     Cs5   v108
	BYTE	W24
	BYTE		N06   
	BYTE	W06
	BYTE		        Cn5 
	BYTE	W06
	BYTE		        Cs5 
	BYTE	W06
	BYTE		        Ds5 
	BYTE	W06
	BYTE		        En5 
	BYTE	W06
	BYTE		        Cs5 
	BYTE	W06
	BYTE		        An4 
	BYTE	W06
	BYTE		        Cs5 
	BYTE	W06
	BYTE		        En4 
	BYTE	W06
	BYTE		        Cs5 
	BYTE	W06
	BYTE		        Bn4 
	BYTE	W06
	BYTE		        An4 
	BYTE	W06
	BYTE	PEND
// 003   ----------------------------------------
	BYTE		N24     Bn4 
	BYTE	W36
	BYTE		N06     Fs5 
	BYTE	W06
	BYTE		        Gs5 
	BYTE	W06
	BYTE		        An5 
	BYTE	W06
	BYTE		        Gs5 
	BYTE	W06
	BYTE		        Fs5 
	BYTE	W06
	BYTE		        En5 
	BYTE	W06
	BYTE		        Ds5 
	BYTE	W06
	BYTE		        Cs5 
	BYTE	W06
	BYTE		        Bn4 
	BYTE	W06
	BYTE		        An4 
	BYTE	W06
// 004   ----------------------------------------
	BYTE		N12     Gs4 
	BYTE	W24
	BYTE		N06     En4 
	BYTE	W06
	BYTE		        Bn3 
	BYTE	W06
	BYTE		        En4 
	BYTE	W06
	BYTE		        Gs4 
	BYTE	W06
	BYTE		N24     Bn4 
	BYTE	W48
// 005   ----------------------------------------
	BYTE	PATT
	 POIN2	PokemonRangerGuardianSignsTitleThemeSme_4_001
// 006   ----------------------------------------
	BYTE	PATT
	 POIN2	PokemonRangerGuardianSignsTitleThemeSme_4_002
// 007   ----------------------------------------
	BYTE		N06     Cn5   v092
	BYTE	W06
	BYTE		        Dn5 
	BYTE	W06
	BYTE		        En5 
	BYTE	W06
	BYTE		        Fs5 
	BYTE	W06
	BYTE		        Gn5 
	BYTE	W06
	BYTE		        Fs5 
	BYTE	W06
	BYTE		        Gn5 
	BYTE	W06
	BYTE		        Bn5 
	BYTE	W06
	BYTE		N03     En6   v080
	BYTE	W03
	BYTE		        Fs6 
	BYTE	W03
	BYTE		        En6 
	BYTE	W03
	BYTE		        Fs6 
	BYTE	W03
	BYTE		        En6 
	BYTE	W03
	BYTE		        Fs6 
	BYTE	W03
	BYTE		        En6 
	BYTE	W03
	BYTE		        Fs6 
	BYTE	W03
	BYTE		        En6 
	BYTE	W03
	BYTE		        Fs6 
	BYTE	W03
	BYTE		        En6 
	BYTE	W03
	BYTE		        Fs6 
	BYTE	W03
	BYTE		        En6 
	BYTE	W03
	BYTE		        Fs6 
	BYTE	W03
	BYTE		        En6 
	BYTE	W03
	BYTE		        Fs6 
	BYTE	W03
	BYTE	GoTo
	 POIN2	PokemonRangerGuardianSignsTitleThemeSme_4_B1
PokemonRangerGuardianSignsTitleThemeSme_4_B2:
// 008   ----------------------------------------
	BYTE	FINE

//**************** Track 5 (Midi-Chn.5) ****************//

PokemonRangerGuardianSignsTitleThemeSme_5:
	BYTE	KEYSH   PokemonRangerGuardianSignsTitleThemeSme_key+0
PokemonRangerGuardianSignsTitleThemeSme_5_B1:
// 000   ----------------------------------------
	BYTE		VOICE   48
	BYTE		VOL     99*PokemonRangerGuardianSignsTitleThemeSme_mvl/mxv
	BYTE		PAN     c_v-20
	BYTE		N24     Gs3   v072
	BYTE	W24
	BYTE		N72     Bn3 
	BYTE	W72
// 001   ----------------------------------------
	BYTE		N96     Dn3 
	BYTE	W96
// 002   ----------------------------------------
PokemonRangerGuardianSignsTitleThemeSme_5_002:
	BYTE		N24     Cs3   v072
	BYTE	W24
	BYTE		N72     An3 
	BYTE	W72
	BYTE	PEND
// 003   ----------------------------------------
	BYTE		N48     En3 
	BYTE	W48
	BYTE		        Ds3 
	BYTE	W48
// 004   ----------------------------------------
	BYTE		N24     Gs3 
	BYTE	W24
	BYTE		N72     Bn3 
	BYTE	W72
// 005   ----------------------------------------
	BYTE		N96     Dn3 
	BYTE	W96
// 006   ----------------------------------------
	BYTE	PATT
	 POIN2	PokemonRangerGuardianSignsTitleThemeSme_5_002
// 007   ----------------------------------------
	BYTE		N48     En3   v072
	BYTE	W48
	BYTE		        En4 
	BYTE	W48
	BYTE	GoTo
	 POIN2	PokemonRangerGuardianSignsTitleThemeSme_5_B1
PokemonRangerGuardianSignsTitleThemeSme_5_B2:
// 008   ----------------------------------------
	BYTE	FINE

//**************** Track 6 (Midi-Chn.6) ****************//

PokemonRangerGuardianSignsTitleThemeSme_6:
	BYTE	KEYSH   PokemonRangerGuardianSignsTitleThemeSme_key+0
PokemonRangerGuardianSignsTitleThemeSme_6_B1:
// 000   ----------------------------------------
	BYTE		VOICE   49
	BYTE		VOL     99*PokemonRangerGuardianSignsTitleThemeSme_mvl/mxv
	BYTE		PAN     c_v+20
	BYTE		N24     Bn2   v072
	BYTE	W24
	BYTE		N72     Gs2 
	BYTE	W72
// 001   ----------------------------------------
	BYTE		N96     An2 
	BYTE	W96
// 002   ----------------------------------------
PokemonRangerGuardianSignsTitleThemeSme_6_002:
	BYTE		N24     En2   v072
	BYTE	W24
	BYTE		N72     Cs3   v060
	BYTE	W72
	BYTE	PEND
// 003   ----------------------------------------
	BYTE		N96     An2   v072
	BYTE	W96
// 004   ----------------------------------------
	BYTE		N24     Bn2 
	BYTE	W24
	BYTE		N72     Gs2 
	BYTE	W72
// 005   ----------------------------------------
	BYTE		N96     An2 
	BYTE	W96
// 006   ----------------------------------------
	BYTE	PATT
	 POIN2	PokemonRangerGuardianSignsTitleThemeSme_6_002
// 007   ----------------------------------------
	BYTE		N48     Gn2   v072
	BYTE	W48
	BYTE		        Fs2 
	BYTE	W48
	BYTE	GoTo
	 POIN2	PokemonRangerGuardianSignsTitleThemeSme_6_B1
PokemonRangerGuardianSignsTitleThemeSme_6_B2:
// 008   ----------------------------------------
	BYTE	FINE

//**************** Track 7 (Midi-Chn.7) ****************//

PokemonRangerGuardianSignsTitleThemeSme_7:
	BYTE	KEYSH   PokemonRangerGuardianSignsTitleThemeSme_key+0
PokemonRangerGuardianSignsTitleThemeSme_7_B1:
// 000   ----------------------------------------
	BYTE		VOICE   41
	BYTE		VOL     99*PokemonRangerGuardianSignsTitleThemeSme_mvl/mxv
	BYTE		PAN     c_v+0
	BYTE		N96     En1   v127
	BYTE	W96
// 001   ----------------------------------------
	BYTE		        Bn1 
	BYTE	W96
// 002   ----------------------------------------
	BYTE		        An1 
	BYTE	W96
// 003   ----------------------------------------
	BYTE		        Bn1 
	BYTE	W96
// 004   ----------------------------------------
	BYTE		        En1 
	BYTE	W96
// 005   ----------------------------------------
	BYTE		        Bn1 
	BYTE	W96
// 006   ----------------------------------------
	BYTE		        An1 
	BYTE	W96
// 007   ----------------------------------------
	BYTE		N48     Cn1 
	BYTE	W48
	BYTE		        Dn1 
	BYTE	W48
	BYTE	GoTo
	 POIN2	PokemonRangerGuardianSignsTitleThemeSme_7_B1
PokemonRangerGuardianSignsTitleThemeSme_7_B2:
// 008   ----------------------------------------
	BYTE	FINE

//**************** Track 8 (Midi-Chn.8) ****************//

PokemonRangerGuardianSignsTitleThemeSme_8:
	BYTE	KEYSH   PokemonRangerGuardianSignsTitleThemeSme_key+0
PokemonRangerGuardianSignsTitleThemeSme_8_B1:
// 000   ----------------------------------------
	BYTE		VOICE   127
	BYTE		VOL     110*PokemonRangerGuardianSignsTitleThemeSme_mvl/mxv
	BYTE		N06     Dn1   v092
	BYTE		N48     Cs2   v060
	BYTE	W24
	BYTE		N03     Dn1   v072
	BYTE	W03
	BYTE		N03   
	BYTE	W03
	BYTE		N03   
	BYTE	W03
	BYTE		N03   
	BYTE	W03
	BYTE		N03   
	BYTE	W03
	BYTE		N03   
	BYTE	W03
	BYTE		N03   
	BYTE	W03
	BYTE		N03   
	BYTE	W03
	BYTE		N06     Dn1   v092
	BYTE	W12
	BYTE		N06   
	BYTE	W24
	BYTE		N03     Dn1   v072
	BYTE	W03
	BYTE		N03   
	BYTE	W03
	BYTE		N03   
	BYTE	W03
	BYTE		N03   
	BYTE	W03
// 001   ----------------------------------------
PokemonRangerGuardianSignsTitleThemeSme_8_001:
	BYTE		N06     Dn1   v092
	BYTE	W18
	BYTE		N06   
	BYTE	W06
	BYTE		N06   
	BYTE	W36
	BYTE		N06   
	BYTE	W06
	BYTE		N06   
	BYTE	W06
	BYTE		N06   
	BYTE	W12
	BYTE		N03     Dn1   v072
	BYTE	W03
	BYTE		N03   
	BYTE	W03
	BYTE		N03   
	BYTE	W03
	BYTE		N03   
	BYTE	W03
	BYTE	PEND
// 002   ----------------------------------------
PokemonRangerGuardianSignsTitleThemeSme_8_002:
	BYTE		N06     Dn1   v092
	BYTE	W24
	BYTE		N03     Dn1   v072
	BYTE	W03
	BYTE		N03   
	BYTE	W03
	BYTE		N03   
	BYTE	W03
	BYTE		N03   
	BYTE	W03
	BYTE		N03   
	BYTE	W03
	BYTE		N03   
	BYTE	W03
	BYTE		N03   
	BYTE	W03
	BYTE		N03   
	BYTE	W03
	BYTE		N06     Dn1   v092
	BYTE	W12
	BYTE		N06   
	BYTE	W24
	BYTE		N03     Dn1   v072
	BYTE	W03
	BYTE		N03   
	BYTE	W03
	BYTE		N03   
	BYTE	W03
	BYTE		N03   
	BYTE	W03
	BYTE	PEND
// 003   ----------------------------------------
	BYTE	PATT
	 POIN2	PokemonRangerGuardianSignsTitleThemeSme_8_001
// 004   ----------------------------------------
	BYTE		N06     Dn1   v092
	BYTE		N48     Cs2   v060
	BYTE	W24
	BYTE		N03     Dn1   v072
	BYTE	W03
	BYTE		N03   
	BYTE	W03
	BYTE		N03   
	BYTE	W03
	BYTE		N03   
	BYTE	W03
	BYTE		N03   
	BYTE	W03
	BYTE		N03   
	BYTE	W03
	BYTE		N03   
	BYTE	W03
	BYTE		N03   
	BYTE	W03
	BYTE		N06     Dn1   v092
	BYTE	W12
	BYTE		N06   
	BYTE	W24
	BYTE		N03     Dn1   v072
	BYTE	W03
	BYTE		N03   
	BYTE	W03
	BYTE		N03   
	BYTE	W03
	BYTE		N03   
	BYTE	W03
// 005   ----------------------------------------
	BYTE	PATT
	 POIN2	PokemonRangerGuardianSignsTitleThemeSme_8_001
// 006   ----------------------------------------
	BYTE	PATT
	 POIN2	PokemonRangerGuardianSignsTitleThemeSme_8_002
// 007   ----------------------------------------
	BYTE	PATT
	 POIN2	PokemonRangerGuardianSignsTitleThemeSme_8_001
	BYTE	GoTo
	 POIN2	PokemonRangerGuardianSignsTitleThemeSme_8_B1
PokemonRangerGuardianSignsTitleThemeSme_8_B2:
// 008   ----------------------------------------
	BYTE	FINE

//******************************************************//
	ALIGN 4

PokemonRangerGuardianSignsTitleThemeSme:
	BYTE	8	// NumTrks
	BYTE	0	// NumBlks
	BYTE	PokemonRangerGuardianSignsTitleThemeSme_pri	// Priority
	BYTE	PokemonRangerGuardianSignsTitleThemeSme_rev	// Reverb.

	POIN2	PokemonRangerGuardianSignsTitleThemeSme_grp

	POIN2	PokemonRangerGuardianSignsTitleThemeSme_1
	POIN2	PokemonRangerGuardianSignsTitleThemeSme_2
	POIN2	PokemonRangerGuardianSignsTitleThemeSme_3
	POIN2	PokemonRangerGuardianSignsTitleThemeSme_4
	POIN2	PokemonRangerGuardianSignsTitleThemeSme_5
	POIN2	PokemonRangerGuardianSignsTitleThemeSme_6
	POIN2	PokemonRangerGuardianSignsTitleThemeSme_7
	POIN2	PokemonRangerGuardianSignsTitleThemeSme_8

	
