//Event file generated from Sappy .s format.
	#include "MPlayDef.event"

	#define	PokemonHGSSGameCornerMrGreen3339_grp  voicegroup000
	#define	PokemonHGSSGameCornerMrGreen3339_pri  0
	#define	PokemonHGSSGameCornerMrGreen3339_rev  0
	#define	PokemonHGSSGameCornerMrGreen3339_mvl  127
	#define	PokemonHGSSGameCornerMrGreen3339_key  0
	#define	PokemonHGSSGameCornerMrGreen3339_tbs  1
	#define	PokemonHGSSGameCornerMrGreen3339_exg  0
	#define	PokemonHGSSGameCornerMrGreen3339_cmp  1

	// .rodata
	//	PokemonHGSSGameCornerMrGreen3339
	ALIGN 4


//**************** Track 1 (Midi-Chn.0) ****************//

PokemonHGSSGameCornerMrGreen3339_001:
// 000   ----------------------------------------
 BYTE   KEYSH   PokemonHGSSGameCornerMrGreen3339_key+0
 BYTE   TEMPO   130*PokemonHGSSGameCornerMrGreen3339_tbs/2
 BYTE   VOICE   2
 BYTE   VOL   42*PokemonHGSSGameCornerMrGreen3339_mvl/mxv
 BYTE   PAN   c_v-58
 BYTE   W48
Label_0_012104D3:
 BYTE   W12
 BYTE   N06  Ds3  v127
 BYTE   N06  Gn3
 BYTE   W06
 BYTE   Cn3
 BYTE   W12
 BYTE   Ds3
 BYTE   N06  Gn3
 BYTE   W06
 BYTE   Cn3
 BYTE   W12
// 001   ----------------------------------------
Label_0_012104E2:
 BYTE   N06  Ds3  v127
 BYTE   N06  Gn3
 BYTE   W06
 BYTE   Cn3
 BYTE   W12
 BYTE   Fn3
 BYTE   N06  An3
 BYTE   W06
 BYTE   Cn3
 BYTE   W12
 BYTE   N12  Fn3
 BYTE   N12  An3
 BYTE   W24
 BYTE   PAN   c_v+56
 BYTE   N06  Ds3
 BYTE   N06  Gn3
 BYTE   W06
 BYTE   Cn3
 BYTE   W12
 BYTE   Ds3
 BYTE   N06  Gn3
 BYTE   W06
 BYTE   Cn3
 BYTE   W12
 BYTE   PEND 
// 002   ----------------------------------------
 BYTE   Fn3
 BYTE   N06  As3
 BYTE   W12
 BYTE   Fn3
 BYTE   N06  An3
 BYTE   W12
 BYTE   Ds3
 BYTE   N06  Gn3
 BYTE   W06
 BYTE   N18  Fn3
 BYTE   N18  An3
 BYTE   W30
 BYTE   PAN   c_v-58
 BYTE   N06  Ds3
 BYTE   N06  Gn3
 BYTE   W06
 BYTE   Cn3
 BYTE   W12
 BYTE   Ds3
 BYTE   N06  Gn3
 BYTE   W06
 BYTE   Cn3
 BYTE   W12
 BYTE   PATT
  POIN2 Label_0_012104E2
// 003   ----------------------------------------
 BYTE   N06  Fn3  v127
 BYTE   N06  As3
 BYTE   W12
 BYTE   Fn3
 BYTE   N06  An3
 BYTE   W12
 BYTE   Fn3
 BYTE   N06  As3
 BYTE   W06
 BYTE   N18  Fn3
 BYTE   N18  Cn4
 BYTE   W30
 BYTE   PAN   c_v-58
 BYTE   N06  Ds3
 BYTE   N06  Gn3
 BYTE   W06
 BYTE   Cn3
 BYTE   W12
 BYTE   Ds3
 BYTE   N06  Gn3
 BYTE   W06
 BYTE   Cn3
 BYTE   W12
// 004   ----------------------------------------
Label_0_0121054C:
 BYTE   N06  Ds3  v127
 BYTE   N06  Gn3
 BYTE   W06
 BYTE   Cn3
 BYTE   W12
 BYTE   Fn3
 BYTE   N06  An3
 BYTE   W06
 BYTE   Cn3
 BYTE   W12
 BYTE   N12  Fn3
 BYTE   N12  An3
 BYTE   W24
 BYTE   N06  Gs3
 BYTE   N06  Cn4
 BYTE   W06
 BYTE   Fn3
 BYTE   W12
 BYTE   Gs3
 BYTE   N06  Cn4
 BYTE   W06
 BYTE   Fn3
 BYTE   W12
 BYTE   PEND 
// 005   ----------------------------------------
Label_0_0121056D:
 BYTE   N06  As3  v127
 BYTE   N06  Ds4
 BYTE   W12
 BYTE   As3
 BYTE   N06  Dn4
 BYTE   W12
 BYTE   Gs3
 BYTE   N06  Cn4
 BYTE   W06
 BYTE   N18  As3
 BYTE   N18  Dn4
 BYTE   W30
 BYTE   N06  Ds3
 BYTE   N06  Gn3
 BYTE   W06
 BYTE   Cn3
 BYTE   W12
 BYTE   Ds3
 BYTE   N06  Gn3
 BYTE   W06
 BYTE   Cn3
 BYTE   W12
 BYTE   PEND 
 BYTE   PATT
  POIN2 Label_0_0121054C
 BYTE   PATT
  POIN2 Label_0_0121056D
 BYTE   PATT
  POIN2 Label_0_0121054C
 BYTE   PATT
  POIN2 Label_0_0121056D
// 006   ----------------------------------------
Label_0_012105A2:
 BYTE   N06  Ds3  v127
 BYTE   N06  Gn3
 BYTE   W06
 BYTE   Cn3
 BYTE   W12
 BYTE   Fn3
 BYTE   N06  An3
 BYTE   W06
 BYTE   Cn3
 BYTE   W12
 BYTE   N12  Fn3
 BYTE   N12  An3
 BYTE   W24
 BYTE   N06  Gs3
 BYTE   N06  Cn4
 BYTE   W06
 BYTE   Fn3
 BYTE   W12
 BYTE   N06
 BYTE   N06  Cn4
 BYTE   W12
 BYTE   N18  Gs3
 BYTE   N18  Ds4
 BYTE   W06
 BYTE   PEND 
// 007   ----------------------------------------
 BYTE   W12
 BYTE   N06  Gn3
 BYTE   N06  Dn4
 BYTE   W12
 BYTE   As3
 BYTE   N06  Ds4
 BYTE   W06
 BYTE   N18  Cn4
 BYTE   N18  Fn4
 BYTE   W30
 BYTE   N06  Ds3
 BYTE   N06  Gn3
 BYTE   W06
 BYTE   Cn3
 BYTE   W12
 BYTE   Ds3
 BYTE   N06  Gn3
 BYTE   W06
 BYTE   Cn3
 BYTE   W12
// 008   ----------------------------------------
Label_0_012105E2:
 BYTE   N06  Ds3  v127
 BYTE   N06  Gn3
 BYTE   W06
 BYTE   Cn3
 BYTE   W12
 BYTE   Fn3
 BYTE   N06  An3
 BYTE   W06
 BYTE   Cn3
 BYTE   W12
 BYTE   N12  Fn3
 BYTE   N12  An3
 BYTE   W24
 BYTE   N06  Ds3
 BYTE   N06  Gn3
 BYTE   W06
 BYTE   Cn3
 BYTE   W12
 BYTE   Ds3
 BYTE   N06  Gn3
 BYTE   W06
 BYTE   Cn3
 BYTE   W12
 BYTE   PEND 
// 009   ----------------------------------------
 BYTE   Fn3
 BYTE   N06  As3
 BYTE   W12
 BYTE   Fn3
 BYTE   N06  An3
 BYTE   W12
 BYTE   Ds3
 BYTE   N06  Gn3
 BYTE   W06
 BYTE   N18  Fn3
 BYTE   N18  An3
 BYTE   W30
 BYTE   N06  Ds3
 BYTE   N06  Gn3
 BYTE   W06
 BYTE   Cn3
 BYTE   W12
 BYTE   Ds3
 BYTE   N06  Gn3
 BYTE   W06
 BYTE   Cn3
 BYTE   W12
 BYTE   PATT
  POIN2 Label_0_012105E2
// 010   ----------------------------------------
 BYTE   N06  Fn3  v127
 BYTE   N06  As3
 BYTE   W12
 BYTE   Fn3
 BYTE   N06  An3
 BYTE   W12
 BYTE   Fn3
 BYTE   N06  As3
 BYTE   W06
 BYTE   N18  Fn3
 BYTE   N18  Cn4
 BYTE   W30
 BYTE   PAN   c_v-51
 BYTE   N06  Ds3
 BYTE   N06  Gn3
 BYTE   W06
 BYTE   Cn3
 BYTE   W12
 BYTE   Ds3
 BYTE   N06  Gn3
 BYTE   W06
 BYTE   Cn3
 BYTE   W12
 BYTE   PATT
  POIN2 Label_0_0121054C
 BYTE   PATT
  POIN2 Label_0_0121056D
 BYTE   PATT
  POIN2 Label_0_0121054C
 BYTE   PATT
  POIN2 Label_0_0121056D
 BYTE   PATT
  POIN2 Label_0_0121054C
 BYTE   PATT
  POIN2 Label_0_0121056D
 BYTE   PATT
  POIN2 Label_0_012105A2
// 011   ----------------------------------------
 BYTE   W12
 BYTE   N06  Gn3  v127
 BYTE   N06  Dn4
 BYTE   W12
 BYTE   Ds3
 BYTE   N06  As3
 BYTE   W06
 BYTE   N18  Fn3
 BYTE   N18  Cn4
 BYTE   W18
 BYTE   N06  Fn5
 BYTE   W06
 BYTE   Cn5
 BYTE   W06
 BYTE   Gs4
 BYTE   W06
 BYTE   Cn5
 BYTE   W06
 BYTE   Gs4
 BYTE   W06
 BYTE   Fn4
 BYTE   W06
 BYTE   Gs4
 BYTE   W06
 BYTE   Cn5
 BYTE   W06
// 012   ----------------------------------------
Label_0_0121068C:
 BYTE   N06  Fn5  v127
 BYTE   W06
 BYTE   Cn5
 BYTE   W06
 BYTE   Gs4
 BYTE   W06
 BYTE   Cn5
 BYTE   W06
 BYTE   Gs4
 BYTE   W06
 BYTE   Fn4
 BYTE   W06
 BYTE   Gs4
 BYTE   W06
 BYTE   Cn5
 BYTE   W06
 BYTE   Gn5
 BYTE   W06
 BYTE   Dn5
 BYTE   W06
 BYTE   As4
 BYTE   W06
 BYTE   Dn5
 BYTE   W06
 BYTE   As4
 BYTE   W06
 BYTE   Gn4
 BYTE   W06
 BYTE   As4
 BYTE   W06
 BYTE   Dn5
 BYTE   W06
 BYTE   PEND 
// 013   ----------------------------------------
 BYTE   Gn5
 BYTE   W06
 BYTE   Dn5
 BYTE   W06
 BYTE   As4
 BYTE   W06
 BYTE   Dn5
 BYTE   W06
 BYTE   As4
 BYTE   W06
 BYTE   Gn4
 BYTE   W06
 BYTE   As4
 BYTE   W06
 BYTE   Dn5
 BYTE   W06
 BYTE   Cn5
 BYTE   W06
 BYTE   Gn4
 BYTE   W06
 BYTE   Ds4
 BYTE   W06
 BYTE   Gn4
 BYTE   W06
 BYTE   Ds4
 BYTE   W06
 BYTE   Cn4
 BYTE   W06
 BYTE   Gn4
 BYTE   W06
 BYTE   Cn5
 BYTE   W06
// 014   ----------------------------------------
 BYTE   Gn4
 BYTE   W06
 BYTE   Ds4
 BYTE   W06
 BYTE   Gn4
 BYTE   W06
 BYTE   Cn5
 BYTE   W06
 BYTE   Ds5
 BYTE   W06
 BYTE   Gn4
 BYTE   W06
 BYTE   Ds4
 BYTE   W06
 BYTE   As4
 BYTE   W06
 BYTE   Cn5
 BYTE   W06
 BYTE   An4
 BYTE   W06
 BYTE   Fn4
 BYTE   W06
 BYTE   An4
 BYTE   W06
 BYTE   Fn4
 BYTE   W06
 BYTE   Cn4
 BYTE   W06
 BYTE   Fn4
 BYTE   W06
 BYTE   An4
 BYTE   W06
// 015   ----------------------------------------
 BYTE   Fn5
 BYTE   W06
 BYTE   Cn5
 BYTE   W06
 BYTE   An4
 BYTE   W06
 BYTE   Fn4
 BYTE   W06
 BYTE   Cn5
 BYTE   W06
 BYTE   An4
 BYTE   W06
 BYTE   Fn4
 BYTE   W06
 BYTE   Cn4
 BYTE   W06
 BYTE   Fn5
 BYTE   W06
 BYTE   Cn5
 BYTE   W06
 BYTE   Gs4
 BYTE   W06
 BYTE   Cn5
 BYTE   W06
 BYTE   Gs4
 BYTE   W06
 BYTE   Fn4
 BYTE   W06
 BYTE   Gs4
 BYTE   W06
 BYTE   Cn5
 BYTE   W06
 BYTE   PATT
  POIN2 Label_0_0121068C
// 016   ----------------------------------------
 BYTE   N06  Gn5  v127
 BYTE   W06
 BYTE   Dn5
 BYTE   W06
 BYTE   As4
 BYTE   W06
 BYTE   Dn5
 BYTE   W06
 BYTE   As4
 BYTE   W06
 BYTE   Gn4
 BYTE   W06
 BYTE   As4
 BYTE   W06
 BYTE   Dn5
 BYTE   W06
 BYTE   Gn5
 BYTE   W06
 BYTE   Dn5
 BYTE   W06
 BYTE   Bn4
 BYTE   W06
 BYTE   Dn5
 BYTE   W06
 BYTE   Bn4
 BYTE   W06
 BYTE   Gn4
 BYTE   W06
 BYTE   Bn4
 BYTE   W06
 BYTE   Dn5
 BYTE   W06
// 017   ----------------------------------------
 BYTE   Bn4
 BYTE   W06
 BYTE   Gn4
 BYTE   W06
 BYTE   N06
 BYTE   W06
 BYTE   Bn4
 BYTE   W06
 BYTE   Dn4
 BYTE   W06
 BYTE   Gn4
 BYTE   W06
 BYTE   Bn4
 BYTE   W06
 BYTE   Dn5
 BYTE   W54
// 018   ----------------------------------------
 BYTE   W48
 BYTE   GoTo
  POIN2 Label_0_012104D3
 BYTE   FINE

//**************** Track 2 (Midi-Chn.1) ****************//

PokemonHGSSGameCornerMrGreen3339_002:
// 000   ----------------------------------------
 BYTE   KEYSH   PokemonHGSSGameCornerMrGreen3339_key+0
 BYTE   VOICE   1
 BYTE   VOL   55*PokemonHGSSGameCornerMrGreen3339_mvl/mxv
 BYTE   PAN   c_v+0
 BYTE   W48
Label_1_01210759:
 BYTE   W48
// 001   ----------------------------------------
 BYTE   W96
// 002   ----------------------------------------
 BYTE   W96
// 003   ----------------------------------------
 BYTE   W96
// 004   ----------------------------------------
Label_1_0121075D:
 BYTE   W60
 BYTE   N06  As4  v127
 BYTE   N06  Dn5
 BYTE   W18
 BYTE   Gn4
 BYTE   N06  As4
 BYTE   W18
 BYTE   PEND 
// 005   ----------------------------------------
Label_1_01210769:
 BYTE   N06  Ds4  v127
 BYTE   N06  Gn4
 BYTE   W12
 BYTE   Cn4
 BYTE   W12
 BYTE   Dn4
 BYTE   W12
 BYTE   Ds4
 BYTE   W12
 BYTE   Fn4
 BYTE   W12
 BYTE   Ds4
 BYTE   W12
 BYTE   Fn4
 BYTE   W06
 BYTE   Ds4
 BYTE   W12
 BYTE   N18  Fn4
 BYTE   W06
 BYTE   PEND 
// 006   ----------------------------------------
Label_1_01210781:
 BYTE   W12
 BYTE   N24  Gn4  v127
 BYTE   W24
 BYTE   N06  Fs4
 BYTE   W06
 BYTE   Fn4
 BYTE   W18
 BYTE   As4
 BYTE   N06  Dn5
 BYTE   W18
 BYTE   Gn4
 BYTE   N06  As4
 BYTE   W18
 BYTE   PEND 
// 007   ----------------------------------------
Label_1_01210794:
 BYTE   N06  Ds4  v127
 BYTE   N06  Gn4
 BYTE   W12
 BYTE   Cn4
 BYTE   W12
 BYTE   Dn4
 BYTE   W12
 BYTE   Ds4
 BYTE   W18
 BYTE   Fn4
 BYTE   W06
 BYTE   Ds4
 BYTE   W12
 BYTE   Gn4
 BYTE   W06
 BYTE   Ds4
 BYTE   W12
 BYTE   N18  As4
 BYTE   W06
 BYTE   PEND 
// 008   ----------------------------------------
Label_1_012107AC:
 BYTE   W12
 BYTE   N06  An4  v127
 BYTE   W12
 BYTE   As4
 BYTE   W06
 BYTE   Cn5
 BYTE   W30
 BYTE   As4
 BYTE   N06  Dn5
 BYTE   W18
 BYTE   Gn4
 BYTE   N06  As4
 BYTE   W18
 BYTE   PEND 
 BYTE   PATT
  POIN2 Label_1_01210769
 BYTE   PATT
  POIN2 Label_1_01210781
// 009   ----------------------------------------
 BYTE   N06  Ds4  v127
 BYTE   N06  Gn4
 BYTE   W12
 BYTE   Cn4
 BYTE   W12
 BYTE   Dn4
 BYTE   W12
 BYTE   Ds4
 BYTE   W60
// 010   ----------------------------------------
 BYTE   W96
// 011   ----------------------------------------
 BYTE   W96
// 012   ----------------------------------------
 BYTE   W96
// 013   ----------------------------------------
 BYTE   W96
 BYTE   PATT
  POIN2 Label_1_0121075D
 BYTE   PATT
  POIN2 Label_1_01210769
 BYTE   PATT
  POIN2 Label_1_01210781
 BYTE   PATT
  POIN2 Label_1_01210794
 BYTE   PATT
  POIN2 Label_1_012107AC
 BYTE   PATT
  POIN2 Label_1_01210769
 BYTE   PATT
  POIN2 Label_1_01210781
// 014   ----------------------------------------
 BYTE   N06  Ds4  v127
 BYTE   N06  Gn4
 BYTE   W12
 BYTE   Cn4
 BYTE   W12
 BYTE   Dn4
 BYTE   W12
 BYTE   Ds4
 BYTE   W12
 BYTE   Fn4
 BYTE   W12
 BYTE   Ds4
 BYTE   W12
 BYTE   Fn4
 BYTE   W06
 BYTE   Ds4
 BYTE   W12
 BYTE   N18  Gn4
 BYTE   W06
// 015   ----------------------------------------
 BYTE   W12
 BYTE   N24  Fn4
 BYTE   W84
// 016   ----------------------------------------
 BYTE   W96
// 017   ----------------------------------------
 BYTE   W96
// 018   ----------------------------------------
 BYTE   W96
// 019   ----------------------------------------
 BYTE   W96
// 020   ----------------------------------------
 BYTE   W96
// 021   ----------------------------------------
 BYTE   W96
// 022   ----------------------------------------
 BYTE   W96
// 023   ----------------------------------------
 BYTE   W48
 BYTE   GoTo
  POIN2 Label_1_01210759
 BYTE   FINE

//**************** Track 3 (Midi-Chn.2) ****************//

PokemonHGSSGameCornerMrGreen3339_003:
// 000   ----------------------------------------
 BYTE   KEYSH   PokemonHGSSGameCornerMrGreen3339_key+0
 BYTE   VOICE   38
 BYTE   VOL   45*PokemonHGSSGameCornerMrGreen3339_mvl/mxv
 BYTE   W48
Label_2_0121082B:
 BYTE   N06  Cn1  v127
 BYTE   W18
 BYTE   N06
 BYTE   W18
 BYTE   N06
 BYTE   W12
// 001   ----------------------------------------
Label_2_01210833:
 BYTE   N06  Cn1  v127
 BYTE   W48
 BYTE   N06
 BYTE   W18
 BYTE   N06
 BYTE   W18
 BYTE   N06
 BYTE   W12
 BYTE   PEND 
 BYTE   PATT
  POIN2 Label_2_01210833
 BYTE   PATT
  POIN2 Label_2_01210833
// 002   ----------------------------------------
Label_2_01210848:
 BYTE   N06  Fn1  v127
 BYTE   W12
 BYTE   N06
 BYTE   W12
 BYTE   Gn1
 BYTE   W12
 BYTE   N06
 BYTE   W12
 BYTE   Cn1
 BYTE   W18
 BYTE   N06
 BYTE   W18
 BYTE   N06
 BYTE   W12
 BYTE   PEND 
 BYTE   PATT
  POIN2 Label_2_01210833
// 003   ----------------------------------------
Label_2_0121085E:
 BYTE   N06  Cn1  v127
 BYTE   W12
 BYTE   N06
 BYTE   W12
 BYTE   Fn1
 BYTE   W12
 BYTE   N06
 BYTE   W12
 BYTE   Cn1
 BYTE   W18
 BYTE   N06
 BYTE   W18
 BYTE   N06
 BYTE   W12
 BYTE   PEND 
 BYTE   PATT
  POIN2 Label_2_01210833
 BYTE   PATT
  POIN2 Label_2_01210848
 BYTE   PATT
  POIN2 Label_2_01210833
 BYTE   PATT
  POIN2 Label_2_0121085E
// 004   ----------------------------------------
 BYTE   N06  Cn1  v127
 BYTE   W96
// 005   ----------------------------------------
 BYTE   W48
 BYTE   N06
 BYTE   W06
 BYTE   N06
 BYTE   W06
 BYTE   N06
 BYTE   W12
 BYTE   N06
 BYTE   W18
 BYTE   N06
 BYTE   W06
// 006   ----------------------------------------
 BYTE   W12
 BYTE   N06
 BYTE   W18
 BYTE   N12
 BYTE   W18
 BYTE   N06
 BYTE   W06
 BYTE   N06
 BYTE   W06
 BYTE   N06
 BYTE   W18
 BYTE   N06
 BYTE   W12
 BYTE   N06
 BYTE   W06
// 007   ----------------------------------------
 BYTE   W12
 BYTE   N06
 BYTE   W18
 BYTE   N12
 BYTE   W18
 BYTE   N06
 BYTE   W06
 BYTE   N06
 BYTE   W06
 BYTE   N06
 BYTE   W12
 BYTE   N06
 BYTE   W18
 BYTE   N06
 BYTE   W06
// 008   ----------------------------------------
 BYTE   W12
 BYTE   N06
 BYTE   W18
 BYTE   N12
 BYTE   W12
 BYTE   N06
 BYTE   W06
 BYTE   N06
 BYTE   W06
 BYTE   N06
 BYTE   W06
 BYTE   N06
 BYTE   W18
 BYTE   N06
 BYTE   W12
 BYTE   N06
 BYTE   W06
// 009   ----------------------------------------
 BYTE   W12
 BYTE   N06
 BYTE   W24
 BYTE   N06
 BYTE   W06
 BYTE   N06
 BYTE   W06
 BYTE   N06
 BYTE   W06
 BYTE   N06
 BYTE   W06
 BYTE   N06
 BYTE   W12
 BYTE   N06
 BYTE   W18
 BYTE   N06
 BYTE   W06
// 010   ----------------------------------------
 BYTE   W12
 BYTE   N06
 BYTE   W18
 BYTE   N06
 BYTE   W06
 BYTE   N06
 BYTE   W06
 BYTE   N06
 BYTE   W06
 BYTE   Fn1
 BYTE   W06
 BYTE   N06
 BYTE   W06
 BYTE   N06
 BYTE   W12
 BYTE   N06
 BYTE   W18
 BYTE   N06
 BYTE   W06
// 011   ----------------------------------------
Label_2_012108E5:
 BYTE   W12
 BYTE   N06  Fn1  v127
 BYTE   W24
 BYTE   N06
 BYTE   W06
 BYTE   N06
 BYTE   W06
 BYTE   Cn1
 BYTE   W06
 BYTE   N06
 BYTE   W06
 BYTE   N06
 BYTE   W12
 BYTE   N06
 BYTE   W18
 BYTE   N06
 BYTE   W06
 BYTE   PEND 
// 012   ----------------------------------------
Label_2_012108F9:
 BYTE   W12
 BYTE   N06  Cn1  v127
 BYTE   W18
 BYTE   N06
 BYTE   W18
 BYTE   Fn1
 BYTE   W06
 BYTE   N06
 BYTE   W06
 BYTE   N06
 BYTE   W12
 BYTE   N06
 BYTE   W18
 BYTE   N06
 BYTE   W06
 BYTE   PEND 
// 013   ----------------------------------------
 BYTE   Gn1
 BYTE   W12
 BYTE   N06
 BYTE   W18
 BYTE   N06
 BYTE   W12
 BYTE   N06
 BYTE   W06
 BYTE   Cn1
 BYTE   W06
 BYTE   N06
 BYTE   W06
 BYTE   N06
 BYTE   W12
 BYTE   N06
 BYTE   W18
 BYTE   N06
 BYTE   W06
 BYTE   PATT
  POIN2 Label_2_012108F9
 BYTE   PATT
  POIN2 Label_2_012108E5
 BYTE   PATT
  POIN2 Label_2_012108F9
// 014   ----------------------------------------
 BYTE   W12
 BYTE   N06  Fn1  v127
 BYTE   W24
 BYTE   N06
 BYTE   W06
 BYTE   N06
 BYTE   W06
 BYTE   N12
 BYTE   W18
 BYTE   N06
 BYTE   W06
 BYTE   Fn2
 BYTE   W06
 BYTE   Fn1
 BYTE   W12
 BYTE   N06
 BYTE   W06
// 015   ----------------------------------------
Label_2_0121093F:
 BYTE   N06  Fn1  v127
 BYTE   W06
 BYTE   Fn2
 BYTE   W06
 BYTE   Fn1
 BYTE   W06
 BYTE   N06
 BYTE   W06
 BYTE   Fn2
 BYTE   W06
 BYTE   Fn1
 BYTE   W12
 BYTE   Fn2
 BYTE   W06
 BYTE   N12  Gn1
 BYTE   W18
 BYTE   N06
 BYTE   W06
 BYTE   Gn2
 BYTE   W06
 BYTE   Gn1
 BYTE   W12
 BYTE   N06
 BYTE   W06
 BYTE   PEND 
// 016   ----------------------------------------
 BYTE   N06
 BYTE   W06
 BYTE   Gn2
 BYTE   W06
 BYTE   Fn1
 BYTE   W06
 BYTE   Fn2
 BYTE   W06
 BYTE   Ds1
 BYTE   W06
 BYTE   Ds2
 BYTE   W06
 BYTE   Dn1
 BYTE   W06
 BYTE   Dn2
 BYTE   W06
 BYTE   N12  Cn1
 BYTE   W18
 BYTE   N06
 BYTE   W06
 BYTE   Cn2
 BYTE   W06
 BYTE   Cn1
 BYTE   W12
 BYTE   N06
 BYTE   W06
// 017   ----------------------------------------
 BYTE   N06
 BYTE   W06
 BYTE   Cn2
 BYTE   W06
 BYTE   Cn1
 BYTE   W06
 BYTE   N06
 BYTE   W06
 BYTE   Cn2
 BYTE   W06
 BYTE   Cn1
 BYTE   W12
 BYTE   Cn2
 BYTE   W06
 BYTE   N12  Fn1
 BYTE   W18
 BYTE   N06
 BYTE   W06
 BYTE   Fn2
 BYTE   W06
 BYTE   Fn1
 BYTE   W12
 BYTE   N06
 BYTE   W06
// 018   ----------------------------------------
 BYTE   N06
 BYTE   W06
 BYTE   Fn2
 BYTE   W06
 BYTE   Fn1
 BYTE   W06
 BYTE   N06
 BYTE   W06
 BYTE   Fn2
 BYTE   W06
 BYTE   Fn1
 BYTE   W12
 BYTE   Fn2
 BYTE   W06
 BYTE   N12  Fn1
 BYTE   W18
 BYTE   N06
 BYTE   W06
 BYTE   Fn2
 BYTE   W06
 BYTE   Fn1
 BYTE   W12
 BYTE   N06
 BYTE   W06
 BYTE   PATT
  POIN2 Label_2_0121093F
// 019   ----------------------------------------
 BYTE   N06  Gn1  v127
 BYTE   W06
 BYTE   Gn2
 BYTE   W06
 BYTE   Fn1
 BYTE   W06
 BYTE   Fn2
 BYTE   W06
 BYTE   Ds1
 BYTE   W06
 BYTE   Ds2
 BYTE   W06
 BYTE   Dn1
 BYTE   W06
 BYTE   Dn2
 BYTE   W06
 BYTE   N12  Gn1
 BYTE   W18
 BYTE   N06
 BYTE   W06
 BYTE   Gn2
 BYTE   W06
 BYTE   Gn1
 BYTE   W12
 BYTE   N06
 BYTE   W06
// 020   ----------------------------------------
 BYTE   N06
 BYTE   W06
 BYTE   Gn2
 BYTE   W06
 BYTE   Gn1
 BYTE   W06
 BYTE   N06
 BYTE   W06
 BYTE   Gn2
 BYTE   W06
 BYTE   Gn1
 BYTE   W12
 BYTE   Gn2
 BYTE   W06
 BYTE   As0
 BYTE   W06
 BYTE   N06
 BYTE   W06
 BYTE   N06
 BYTE   W18
 BYTE   Gn0
 BYTE   W12
 BYTE   N06
 BYTE   W06
// 021   ----------------------------------------
 BYTE   W24
 BYTE   N03  Dn2
 BYTE   W03
 BYTE   Cn2
 BYTE   W03
 BYTE   Bn1
 BYTE   W03
 BYTE   An1
 BYTE   W03
 BYTE   Gn1
 BYTE   W03
 BYTE   Fn1
 BYTE   W03
 BYTE   En1
 BYTE   W03
 BYTE   Dn1
 BYTE   W03
 BYTE   GoTo
  POIN2 Label_2_0121082B
 BYTE   FINE

//**************** Track 4 (Midi-Chn.3) ****************//

PokemonHGSSGameCornerMrGreen3339_004:
// 000   ----------------------------------------
 BYTE   KEYSH   PokemonHGSSGameCornerMrGreen3339_key+0
 BYTE   VOICE   11
 BYTE   VOL   32*PokemonHGSSGameCornerMrGreen3339_mvl/mxv
 BYTE   PAN   c_v-32
 BYTE   W48
Label_3_01210A05:
 BYTE   N06  Cn3  v096
 BYTE   W06
 BYTE   Cn4
 BYTE   W06
 BYTE   Gn4
 BYTE   W06
 BYTE   Cn3
 BYTE   W06
 BYTE   Cn4
 BYTE   W06
 BYTE   Gn4
 BYTE   W06
 BYTE   Cn3
 BYTE   W06
 BYTE   Cn4
 BYTE   W06
// 001   ----------------------------------------
Label_3_01210A17:
 BYTE   N06  Gn4  v096
 BYTE   W06
 BYTE   Cn3
 BYTE   W06
 BYTE   Cn4
 BYTE   W06
 BYTE   An4
 BYTE   W06
 BYTE   Cn3
 BYTE   W06
 BYTE   Cn4
 BYTE   W06
 BYTE   N12  An4
 BYTE   W12
 BYTE   N06  Cn3
 BYTE   W06
 BYTE   Cn4
 BYTE   W06
 BYTE   Gn4
 BYTE   W06
 BYTE   Cn3
 BYTE   W06
 BYTE   Cn4
 BYTE   W06
 BYTE   Gn4
 BYTE   W06
 BYTE   Cn3
 BYTE   W06
 BYTE   Cn4
 BYTE   W06
 BYTE   PEND 
// 002   ----------------------------------------
Label_3_01210A3A:
 BYTE   N06  As4  v096
 BYTE   W06
 BYTE   Cn4
 BYTE   W06
 BYTE   An4
 BYTE   W06
 BYTE   Cn4
 BYTE   W06
 BYTE   Gn4
 BYTE   W06
 BYTE   N18  An4
 BYTE   W18
 BYTE   N06  Cn3
 BYTE   W06
 BYTE   Cn4
 BYTE   W06
 BYTE   Gn4
 BYTE   W06
 BYTE   Cn3
 BYTE   W06
 BYTE   Cn4
 BYTE   W06
 BYTE   Gn4
 BYTE   W06
 BYTE   Cn3
 BYTE   W06
 BYTE   Cn4
 BYTE   W06
 BYTE   PEND 
// 003   ----------------------------------------
Label_3_01210A5B:
 BYTE   N06  Gn4  v096
 BYTE   W06
 BYTE   Cn3
 BYTE   W06
 BYTE   Cn4
 BYTE   W06
 BYTE   An4
 BYTE   W06
 BYTE   Cn3
 BYTE   W06
 BYTE   Cn4
 BYTE   W06
 BYTE   An4
 BYTE   W06
 BYTE   Cn4
 BYTE   W06
 BYTE   Cn3
 BYTE   W06
 BYTE   Cn4
 BYTE   W06
 BYTE   Gn4
 BYTE   W06
 BYTE   Cn3
 BYTE   W06
 BYTE   Cn4
 BYTE   W06
 BYTE   Gn4
 BYTE   W06
 BYTE   Cn3
 BYTE   W06
 BYTE   Cn4
 BYTE   W06
 BYTE   PEND 
// 004   ----------------------------------------
Label_3_01210A7E:
 BYTE   N06  As4  v096
 BYTE   W06
 BYTE   Cn4
 BYTE   W06
 BYTE   An4
 BYTE   W06
 BYTE   Cn4
 BYTE   W06
 BYTE   Gn4
 BYTE   W06
 BYTE   N12  An4
 BYTE   W12
 BYTE   N06  Cn4
 BYTE   W06
 BYTE   Cn3
 BYTE   W06
 BYTE   Cn4
 BYTE   W06
 BYTE   Gn4
 BYTE   W06
 BYTE   Cn3
 BYTE   W06
 BYTE   Cn4
 BYTE   W06
 BYTE   Gn4
 BYTE   W06
 BYTE   Cn3
 BYTE   W06
 BYTE   Cn4
 BYTE   W06
 BYTE   PEND 
 BYTE   PATT
  POIN2 Label_3_01210A17
// 005   ----------------------------------------
Label_3_01210AA6:
 BYTE   N06  As4  v096
 BYTE   W06
 BYTE   Cn4
 BYTE   W06
 BYTE   Cn3
 BYTE   W06
 BYTE   Cn5
 BYTE   W06
 BYTE   Cn4
 BYTE   W06
 BYTE   An4
 BYTE   W06
 BYTE   Fn4
 BYTE   W06
 BYTE   Cn4
 BYTE   W06
 BYTE   Cn3
 BYTE   W06
 BYTE   Cn4
 BYTE   W06
 BYTE   Gn4
 BYTE   W06
 BYTE   Cn3
 BYTE   W06
 BYTE   Cn4
 BYTE   W06
 BYTE   Gn4
 BYTE   W06
 BYTE   Cn3
 BYTE   W06
 BYTE   Cn4
 BYTE   W06
 BYTE   PEND 
// 006   ----------------------------------------
Label_3_01210AC9:
 BYTE   N06  Gn4  v096
 BYTE   W06
 BYTE   Cn3
 BYTE   W06
 BYTE   Cn4
 BYTE   W06
 BYTE   An4
 BYTE   W06
 BYTE   Cn3
 BYTE   W06
 BYTE   Cn4
 BYTE   W06
 BYTE   N12  An4
 BYTE   W12
 BYTE   N06  Cn3
 BYTE   W06
 BYTE   Cn4
 BYTE   W06
 BYTE   Gs4
 BYTE   W06
 BYTE   Cn3
 BYTE   W06
 BYTE   Cn4
 BYTE   W06
 BYTE   Gs4
 BYTE   W06
 BYTE   Cn3
 BYTE   W06
 BYTE   Cn4
 BYTE   W06
 BYTE   PEND 
// 007   ----------------------------------------
Label_3_01210AEC:
 BYTE   N06  As4  v096
 BYTE   W06
 BYTE   Cn3
 BYTE   W06
 BYTE   Cn4
 BYTE   W06
 BYTE   Cn5
 BYTE   W06
 BYTE   Cn3
 BYTE   W06
 BYTE   N12  An4
 BYTE   W12
 BYTE   N06  Cn4
 BYTE   W06
 BYTE   Cn3
 BYTE   W06
 BYTE   Cn4
 BYTE   W06
 BYTE   Gn4
 BYTE   W06
 BYTE   Cn3
 BYTE   W06
 BYTE   Cn4
 BYTE   W06
 BYTE   Gn4
 BYTE   W06
 BYTE   Cn3
 BYTE   W06
 BYTE   Cn4
 BYTE   W06
 BYTE   PEND 
 BYTE   PATT
  POIN2 Label_3_01210A17
 BYTE   PATT
  POIN2 Label_3_01210AA6
// 008   ----------------------------------------
 BYTE   N06  Gn4  v096
 BYTE   W06
 BYTE   Cn3
 BYTE   W06
 BYTE   Cn4
 BYTE   W06
 BYTE   An4
 BYTE   W06
 BYTE   Cn3
 BYTE   W06
 BYTE   Cn4
 BYTE   W06
 BYTE   N12  An4
 BYTE   W60
// 009   ----------------------------------------
 BYTE   W48
 BYTE   N06  Cn3
 BYTE   W06
 BYTE   Cn4
 BYTE   W06
 BYTE   Gn4
 BYTE   W06
 BYTE   Cn3
 BYTE   W06
 BYTE   Cn4
 BYTE   W06
 BYTE   Gn4
 BYTE   W06
 BYTE   Cn3
 BYTE   W06
 BYTE   Cn4
 BYTE   W06
 BYTE   PATT
  POIN2 Label_3_01210A17
 BYTE   PATT
  POIN2 Label_3_01210A3A
 BYTE   PATT
  POIN2 Label_3_01210A5B
 BYTE   PATT
  POIN2 Label_3_01210A7E
 BYTE   PATT
  POIN2 Label_3_01210A17
 BYTE   PATT
  POIN2 Label_3_01210AA6
 BYTE   PATT
  POIN2 Label_3_01210AC9
 BYTE   PATT
  POIN2 Label_3_01210AEC
 BYTE   PATT
  POIN2 Label_3_01210A17
 BYTE   PATT
  POIN2 Label_3_01210AA6
 BYTE   PATT
  POIN2 Label_3_01210AC9
// 010   ----------------------------------------
 BYTE   N06  As4  v096
 BYTE   W06
 BYTE   Cn3
 BYTE   W06
 BYTE   Cn4
 BYTE   W06
 BYTE   Cn5
 BYTE   W06
 BYTE   Cn3
 BYTE   W06
 BYTE   An4
 BYTE   W06
 BYTE   Ds4  v127
 BYTE   W06
 BYTE   Fn4
 BYTE   W06
 BYTE   N36  Gn4
 BYTE   W36
 BYTE   Fn4
 BYTE   W12
// 011   ----------------------------------------
 BYTE   W24
 BYTE   N24  Cn4
 BYTE   W24
 BYTE   N36  Dn4
 BYTE   W36
 BYTE   Ds4
 BYTE   W12
// 012   ----------------------------------------
 BYTE   W24
 BYTE   N24  Fn4
 BYTE   W24
 BYTE   N36  Dn4
 BYTE   W36
 BYTE   Cn4
 BYTE   W12
// 013   ----------------------------------------
 BYTE   W24
 BYTE   N24  As3
 BYTE   W24
 BYTE   N48  An3
 BYTE   W48
// 014   ----------------------------------------
 BYTE   W96
// 015   ----------------------------------------
 BYTE   W96
// 016   ----------------------------------------
 BYTE   W96
// 017   ----------------------------------------
 BYTE   W96
// 018   ----------------------------------------
 BYTE   W48
 BYTE   GoTo
  POIN2 Label_3_01210A05
 BYTE   FINE

//**************** Track 5 (Midi-Chn.4) ****************//

PokemonHGSSGameCornerMrGreen3339_005:
// 000   ----------------------------------------
 BYTE   KEYSH   PokemonHGSSGameCornerMrGreen3339_key+0
 BYTE   VOICE   56
 BYTE   VOL   55*PokemonHGSSGameCornerMrGreen3339_mvl/mxv
 BYTE   PAN   c_v-38
 BYTE   W48
Label_4_01210BB9:
 BYTE   N12  Cn4  v096
 BYTE   W48
// 001   ----------------------------------------
 BYTE   W96
// 002   ----------------------------------------
 BYTE   W48
 BYTE   N12
 BYTE   W48
// 003   ----------------------------------------
 BYTE   W96
// 004   ----------------------------------------
 BYTE   W48
 BYTE   N12
 BYTE   W48
// 005   ----------------------------------------
 BYTE   W96
// 006   ----------------------------------------
 BYTE   W48
 BYTE   N12
 BYTE   W48
// 007   ----------------------------------------
 BYTE   W96
// 008   ----------------------------------------
 BYTE   W48
 BYTE   N12
 BYTE   W48
// 009   ----------------------------------------
 BYTE   W96
// 010   ----------------------------------------
 BYTE   W48
 BYTE   N12
 BYTE   W48
// 011   ----------------------------------------
 BYTE   W96
// 012   ----------------------------------------
 BYTE   W48
 BYTE   N12
 BYTE   W48
// 013   ----------------------------------------
 BYTE   W96
// 014   ----------------------------------------
 BYTE   W48
 BYTE   N12
 BYTE   W48
// 015   ----------------------------------------
 BYTE   W96
// 016   ----------------------------------------
 BYTE   W48
 BYTE   N12
 BYTE   W48
// 017   ----------------------------------------
 BYTE   W96
// 018   ----------------------------------------
 BYTE   W48
 BYTE   N12
 BYTE   W48
// 019   ----------------------------------------
 BYTE   W96
// 020   ----------------------------------------
 BYTE   W48
 BYTE   N12
 BYTE   W48
// 021   ----------------------------------------
 BYTE   W96
// 022   ----------------------------------------
 BYTE   W48
 BYTE   N12
 BYTE   W48
// 023   ----------------------------------------
 BYTE   W96
// 024   ----------------------------------------
 BYTE   W48
 BYTE   Fn4
 BYTE   W48
// 025   ----------------------------------------
 BYTE   W96
// 026   ----------------------------------------
 BYTE   W96
// 027   ----------------------------------------
 BYTE   W96
// 028   ----------------------------------------
 BYTE   W48
 BYTE   N12
 BYTE   W48
// 029   ----------------------------------------
 BYTE   W96
// 030   ----------------------------------------
 BYTE   W96
// 031   ----------------------------------------
 BYTE   W48
 BYTE   N06  Gn4  v127
 BYTE   W06
 BYTE   N06
 BYTE   W06
 BYTE   N06
 BYTE   W18
 BYTE   As4
 BYTE   W12
 BYTE   N06
 BYTE   W06
// 032   ----------------------------------------
 BYTE   W48
 BYTE   GoTo
  POIN2 Label_4_01210BB9
 BYTE   FINE

//**************** Track 6 (Midi-Chn.5) ****************//

PokemonHGSSGameCornerMrGreen3339_006:
// 000   ----------------------------------------
 BYTE   KEYSH   PokemonHGSSGameCornerMrGreen3339_key+0
 BYTE   VOICE   48
 BYTE   VOL   48*PokemonHGSSGameCornerMrGreen3339_mvl/mxv
 BYTE   PAN   c_v+56
 BYTE   W48
Label_5_01210C15:
 BYTE   N06  Ds3  v104
 BYTE   N06  Cn4
 BYTE   W18
 BYTE   Ds3
 BYTE   N06  Cn4
 BYTE   W18
 BYTE   Ds3
 BYTE   N06  Cn4
 BYTE   W12
// 001   ----------------------------------------
Label_5_01210C23:
 BYTE   N06  Ds3  v104
 BYTE   N06  Cn4
 BYTE   W48
 BYTE   Ds3
 BYTE   N06  Cn4
 BYTE   W18
 BYTE   Ds3
 BYTE   N06  Cn4
 BYTE   W18
 BYTE   Ds3
 BYTE   N06  Cn4
 BYTE   W12
 BYTE   PEND 
// 002   ----------------------------------------
Label_5_01210C36:
 BYTE   N06  Cn3  v104
 BYTE   N06  Cn4
 BYTE   W06
 BYTE   Gn2
 BYTE   N06  Gn3
 BYTE   W06
 BYTE   Cn3
 BYTE   N06  Cn4
 BYTE   W06
 BYTE   Fn3
 BYTE   N06  Fn4
 BYTE   W06
 BYTE   Cn3
 BYTE   N06  Cn4
 BYTE   W06
 BYTE   An3
 BYTE   N06  An4
 BYTE   W06
 BYTE   Cn4
 BYTE   N06  Cn5
 BYTE   W06
 BYTE   Fn4
 BYTE   N06  Fn5
 BYTE   W06
 BYTE   Ds3
 BYTE   N06  Cn4
 BYTE   W18
 BYTE   Ds3
 BYTE   N06  Cn4
 BYTE   W18
 BYTE   Ds3
 BYTE   N06  Cn4
 BYTE   W12
 BYTE   PEND 
 BYTE   PATT
  POIN2 Label_5_01210C23
 BYTE   PATT
  POIN2 Label_5_01210C36
// 003   ----------------------------------------
Label_5_01210C6F:
 BYTE   N06  Ds3  v104
 BYTE   N06  Cn4
 BYTE   W12
 BYTE   Ds3
 BYTE   N06  Cn4
 BYTE   W12
 BYTE   Ds3
 BYTE   N06  Dn4
 BYTE   W12
 BYTE   Ds3
 BYTE   N06  Ds4
 BYTE   W12
 BYTE   Ds3
 BYTE   N06  Cn4
 BYTE   W18
 BYTE   Ds3
 BYTE   N06  Cn4
 BYTE   W18
 BYTE   Ds3
 BYTE   N06  Cn4
 BYTE   W12
 BYTE   PEND 
// 004   ----------------------------------------
 BYTE   Ds3
 BYTE   N06  Cn4
 BYTE   W12
 BYTE   Ds3
 BYTE   N06  Cn4
 BYTE   W12
 BYTE   Ds3
 BYTE   N06  Dn4
 BYTE   W12
 BYTE   Ds3
 BYTE   N06  As3
 BYTE   W12
 BYTE   Ds3
 BYTE   N06  Cn4
 BYTE   W18
 BYTE   Ds3
 BYTE   N06  Cn4
 BYTE   W18
 BYTE   Ds3
 BYTE   N06  Cn4
 BYTE   W12
 BYTE   PATT
  POIN2 Label_5_01210C6F
// 005   ----------------------------------------
 BYTE   N06  Ds3  v104
 BYTE   N06  Cn4
 BYTE   W12
 BYTE   Ds3
 BYTE   N06  Cn4
 BYTE   W12
 BYTE   Fn3
 BYTE   N06  Dn4
 BYTE   W12
 BYTE   Ds3
 BYTE   N06  As3
 BYTE   W12
 BYTE   Ds3
 BYTE   N06  Cn4
 BYTE   W18
 BYTE   Ds3
 BYTE   N06  Cn4
 BYTE   W18
 BYTE   Ds3
 BYTE   N06  Cn4
 BYTE   W12
 BYTE   PATT
  POIN2 Label_5_01210C6F
// 006   ----------------------------------------
 BYTE   N06  Ds3  v104
 BYTE   N06  Cn4
 BYTE   W12
 BYTE   Ds3
 BYTE   N06  Cn4
 BYTE   W12
 BYTE   Fn3
 BYTE   N06  Dn4
 BYTE   W12
 BYTE   Dn3
 BYTE   N06  As3
 BYTE   W12
 BYTE   Ds3
 BYTE   N06  Cn4
 BYTE   W18
 BYTE   Ds3
 BYTE   N06  Cn4
 BYTE   W18
 BYTE   Ds3
 BYTE   N06  Cn4
 BYTE   W12
// 007   ----------------------------------------
 BYTE   Ds3
 BYTE   N06  Cn4
 BYTE   W12
 BYTE   Ds3
 BYTE   N06  Cn4
 BYTE   W12
 BYTE   Ds3
 BYTE   N06  Dn4
 BYTE   W12
 BYTE   Ds3
 BYTE   N06  Ds4
 BYTE   W60
// 008   ----------------------------------------
 BYTE   W48
 BYTE   Ds3
 BYTE   N06  Cn4
 BYTE   W18
 BYTE   Ds3
 BYTE   N06  Cn4
 BYTE   W18
 BYTE   Ds3
 BYTE   N06  Cn4
 BYTE   W12
 BYTE   PATT
  POIN2 Label_5_01210C23
 BYTE   PATT
  POIN2 Label_5_01210C36
 BYTE   PATT
  POIN2 Label_5_01210C23
 BYTE   PATT
  POIN2 Label_5_01210C36
 BYTE   PATT
  POIN2 Label_5_01210C23
// 009   ----------------------------------------
 BYTE   N06  Gn3  v104
 BYTE   N06  Ds4
 BYTE   W12
 BYTE   Gn3
 BYTE   N06  Dn4
 BYTE   W12
 BYTE   Ds3
 BYTE   N06  Cn4
 BYTE   W06
 BYTE   N18  Fn3
 BYTE   N18  Dn4
 BYTE   W18
 BYTE   N06  Ds3
 BYTE   N06  Cn4
 BYTE   W18
 BYTE   Ds3
 BYTE   N06  Cn4
 BYTE   W18
 BYTE   Ds3
 BYTE   N06  Cn4
 BYTE   W12
 BYTE   PATT
  POIN2 Label_5_01210C23
// 010   ----------------------------------------
 BYTE   N06  Gn3  v104
 BYTE   N06  Ds4
 BYTE   W12
 BYTE   Fn3
 BYTE   N06  Dn4
 BYTE   W12
 BYTE   Gs3
 BYTE   N06  Ds4
 BYTE   W06
 BYTE   N18  As3
 BYTE   N18  Fn4
 BYTE   W18
 BYTE   N06  Ds3
 BYTE   N06  Cn4
 BYTE   W18
 BYTE   Ds3
 BYTE   N06  Cn4
 BYTE   W18
 BYTE   Ds3
 BYTE   N06  Cn4
 BYTE   W12
// 011   ----------------------------------------
 BYTE   Ds3
 BYTE   N06  Cn4
 BYTE   W48
 BYTE   Ds3
 BYTE   N06  Cn4
 BYTE   W18
 BYTE   Ds3
 BYTE   N06  Cn4
 BYTE   W18
 BYTE   Gn3
 BYTE   N06  Ds4
 BYTE   W12
// 012   ----------------------------------------
 BYTE   Gn3
 BYTE   N06  Ds4
 BYTE   W12
 BYTE   Fn3
 BYTE   N06  Dn4
 BYTE   W12
 BYTE   Ds3
 BYTE   N06  Cn4
 BYTE   W06
 BYTE   N18  Fn3
 BYTE   N18  Dn4
 BYTE   W18
 BYTE   N06  Ds3
 BYTE   N06  Cn4
 BYTE   W18
 BYTE   Ds3
 BYTE   N06  Cn4
 BYTE   W18
 BYTE   Ds3
 BYTE   N06  Cn4
 BYTE   W12
// 013   ----------------------------------------
 BYTE   Ds3
 BYTE   N06  Cn4
 BYTE   W48
 BYTE   Ds3
 BYTE   N06  Cn4
 BYTE   W18
 BYTE   Ds3
 BYTE   N06  Cn4
 BYTE   W12
 BYTE   Gn3
 BYTE   N06  Ds4
 BYTE   W18
// 014   ----------------------------------------
 BYTE   N12  Gn3
 BYTE   N12  Ds4
 BYTE   W12
 BYTE   Fn3
 BYTE   N12  Dn4
 BYTE   W12
 BYTE   N03  Gs2
 BYTE   N03  Fn3
 BYTE   W03
 BYTE   As2
 BYTE   N03  Gn3
 BYTE   W03
 BYTE   Cn3
 BYTE   N03  Gs3
 BYTE   W03
 BYTE   Dn3
 BYTE   N03  As3
 BYTE   W03
 BYTE   Ds3
 BYTE   N03  Cn4
 BYTE   W03
 BYTE   Fn3
 BYTE   N03  Dn4
 BYTE   W03
 BYTE   Gn3
 BYTE   N03  Ds4
 BYTE   W03
 BYTE   Gs3
 BYTE   N03  Fn4
 BYTE   W03
 BYTE   N36  As3  v127
 BYTE   N36  Gn4
 BYTE   W36
 BYTE   Gs3
 BYTE   N36  Fn4
 BYTE   W12
// 015   ----------------------------------------
 BYTE   W24
 BYTE   N24  Fn3
 BYTE   N24  Cn4
 BYTE   W24
 BYTE   N36  Fn3
 BYTE   N36  Dn4
 BYTE   W36
 BYTE   Gn3
 BYTE   N36  Ds4
 BYTE   W12
// 016   ----------------------------------------
 BYTE   W24
 BYTE   N24  As3
 BYTE   N24  Fn4
 BYTE   W24
 BYTE   N36  Fn3
 BYTE   N36  Dn4
 BYTE   W36
 BYTE   Ds3
 BYTE   N36  Cn4
 BYTE   W12
// 017   ----------------------------------------
 BYTE   W24
 BYTE   N24  Dn3
 BYTE   N24  As3
 BYTE   W24
 BYTE   N36  Cn3
 BYTE   N36  An3
 BYTE   W48
// 018   ----------------------------------------
 BYTE   W96
// 019   ----------------------------------------
 BYTE   W96
// 020   ----------------------------------------
 BYTE   W96
// 021   ----------------------------------------
 BYTE   W48
 BYTE   N06  Gn4  v104
 BYTE   W06
 BYTE   N06
 BYTE   W06
 BYTE   N06
 BYTE   W18
 BYTE   As4
 BYTE   W12
 BYTE   N06
 BYTE   W06
// 022   ----------------------------------------
 BYTE   W48
 BYTE   GoTo
  POIN2 Label_5_01210C15
 BYTE   FINE

//**************** Track 7 (Midi-Chn.6) ****************//

PokemonHGSSGameCornerMrGreen3339_007:
// 000   ----------------------------------------
 BYTE   KEYSH   PokemonHGSSGameCornerMrGreen3339_key+0
 BYTE   VOICE   30
 BYTE   PAN   c_v+0
 BYTE   VOL   42*PokemonHGSSGameCornerMrGreen3339_mvl/mxv
 BYTE   W48
Label_6_01210E29:
 BYTE   W48
// 001   ----------------------------------------
 BYTE   W96
// 002   ----------------------------------------
 BYTE   W96
// 003   ----------------------------------------
 BYTE   W96
// 004   ----------------------------------------
 BYTE   W96
// 005   ----------------------------------------
 BYTE   W96
// 006   ----------------------------------------
 BYTE   W96
// 007   ----------------------------------------
 BYTE   W96
// 008   ----------------------------------------
 BYTE   W96
// 009   ----------------------------------------
 BYTE   W96
// 010   ----------------------------------------
 BYTE   W96
// 011   ----------------------------------------
 BYTE   W96
// 012   ----------------------------------------
 BYTE   W96
// 013   ----------------------------------------
 BYTE   W96
// 014   ----------------------------------------
 BYTE   W96
// 015   ----------------------------------------
 BYTE   W96
// 016   ----------------------------------------
 BYTE   W96
// 017   ----------------------------------------
 BYTE   W96
// 018   ----------------------------------------
 BYTE   W96
// 019   ----------------------------------------
 BYTE   W96
// 020   ----------------------------------------
 BYTE   W96
// 021   ----------------------------------------
 BYTE   W96
// 022   ----------------------------------------
 BYTE   W96
// 023   ----------------------------------------
 BYTE   W96
// 024   ----------------------------------------
 BYTE   W96
// 025   ----------------------------------------
 BYTE   W96
// 026   ----------------------------------------
 BYTE   W96
// 027   ----------------------------------------
 BYTE   W84
 BYTE   N01  Fn3  v127
 BYTE   N01  Fn4
 BYTE   W06
 BYTE   Fn3
 BYTE   N01  Fn4
 BYTE   W06
// 028   ----------------------------------------
 BYTE   N36  Fn2
 BYTE   N36  Fn3
 BYTE   W06
 BYTE   BEND   c_v-2
 BYTE   W01
 BYTE   Cn3
 BYTE   W01
 BYTE   An2
 BYTE   W01
 BYTE   Gn2
 BYTE   W01
 BYTE   Fn2
 BYTE   W01
 BYTE   Ds2
 BYTE   W01
 BYTE   Cs2
 BYTE   W01
 BYTE   Bn1
 BYTE   W01
 BYTE   Gs1
 BYTE   W01
 BYTE   Fs1
 BYTE   W01
 BYTE   En1
 BYTE   W01
 BYTE   Dn1
 BYTE   W01
 BYTE   Cn1
 BYTE   W01
 BYTE   As0
 BYTE   W01
 BYTE   Gs0
 BYTE   W01
 BYTE   Fs0
 BYTE   W01
 BYTE   En0
 BYTE   W01
 BYTE   Dn0
 BYTE   W01
 BYTE   BnM1
 BYTE   W01
 BYTE   AnM1
 BYTE   W01
 BYTE   GnM1
 BYTE   W01
 BYTE   FnM1
 BYTE   W01
 BYTE   DsM1
 BYTE   W01
 BYTE   CsM1
 BYTE   W01
 BYTE   AsM2
 BYTE   W01
 BYTE   GsM2
 BYTE   W01
 BYTE   GnM2
 BYTE   W01
 BYTE   EnM2
 BYTE   W01
 BYTE   DnM2
 BYTE   W01
 BYTE   CnM2
 BYTE   W01
 BYTE   En3
 BYTE   N06  As3
 BYTE   N06  Ds4
 BYTE   W06
 BYTE   Cn4
 BYTE   N06  Fn4
 BYTE   W06
 BYTE   N36  Ds4
 BYTE   N36  Gn4
 BYTE   W36
 BYTE   Dn4
 BYTE   N36  Fn4
 BYTE   W12
// 029   ----------------------------------------
 BYTE   W24
 BYTE   N24  Gs3
 BYTE   N24  Cn4
 BYTE   W24
 BYTE   N36  Bn3
 BYTE   N36  Dn4
 BYTE   W36
 BYTE   Bn3
 BYTE   N36  Ds4
 BYTE   W12
// 030   ----------------------------------------
 BYTE   W24
 BYTE   N12  Dn4
 BYTE   N12  Fn4
 BYTE   W12
 BYTE   BEND   c_v+3
 BYTE   N12  Gs3
 BYTE   W01
 BYTE   BEND   c_v+7
 BYTE   W01
 BYTE   Dn4
 BYTE   W01
 BYTE   Fs4
 BYTE   W01
 BYTE   An4
 BYTE   W01
 BYTE   Cs5
 BYTE   W01
 BYTE   En5
 BYTE   W01
 BYTE   Gs5
 BYTE   W01
 BYTE   Bn5
 BYTE   W01
 BYTE   Ds6
 BYTE   W01
 BYTE   Gn6
 BYTE   W01
 BYTE   As6
 BYTE   W01
 BYTE   En3
 BYTE   N96  Bn3
 BYTE   N96  Gn4
 BYTE   W01
 BYTE   W02
 BYTE   W02
 BYTE   W01
 BYTE   W02
 BYTE   W01
 BYTE   W02
 BYTE   W01
 BYTE   W02
 BYTE   W01
 BYTE   W02
 BYTE   W02
 BYTE   W01
 BYTE   W02
 BYTE   W01
 BYTE   W02
 BYTE   W01
 BYTE   W02
 BYTE   W01
 BYTE   W02
 BYTE   W01
 BYTE   W02
 BYTE   W01
 BYTE   W02
 BYTE   W01
 BYTE   W02
 BYTE   W02
 BYTE   W01
 BYTE   W02
 BYTE   W01
 BYTE   W02
// 031   ----------------------------------------
 BYTE   W01
 BYTE   W02
 BYTE   W01
 BYTE   W02
 BYTE   W02
 BYTE   W01
 BYTE   W02
 BYTE   W01
 BYTE   W02
 BYTE   W01
 BYTE   W02
 BYTE   W01
 BYTE   W02
 BYTE   W01
 BYTE   W02
 BYTE   W01
 BYTE   W02
 BYTE   W01
 BYTE   W02
 BYTE   W02
 BYTE   W01
 BYTE   W02
 BYTE   W01
 BYTE   W02
 BYTE   W01
 BYTE   W02
 BYTE   W01
 BYTE   W02
 BYTE   W02
 BYTE   W01
 BYTE   W02
 BYTE   W48
// 032   ----------------------------------------
 BYTE   W24
 BYTE   BEND   c_v+0
 BYTE   N24  Gn2
 BYTE   N24  Gn3
 BYTE   W02
 BYTE   BEND   c_v-6
 BYTE   W02
 BYTE   Fn2
 BYTE   W02
 BYTE   Cn2
 BYTE   W02
 BYTE   Fs1
 BYTE   W02
 BYTE   Cs1
 BYTE   W02
 BYTE   Gs0
 BYTE   W02
 BYTE   Dn0
 BYTE   W02
 BYTE   AnM1
 BYTE   W02
 BYTE   EnM1
 BYTE   W01
 BYTE   AsM2
 BYTE   W02
 BYTE   FnM2
 BYTE   W01
 BYTE   CnM2
 BYTE   W02
 BYTE   GoTo
  POIN2 Label_6_01210E29
// 033   ----------------------------------------
 BYTE   BEND   c_v-64
 BYTE   FINE

//**************** Track 8 (Midi-Chn.7) ****************//

PokemonHGSSGameCornerMrGreen3339_008:
// 000   ----------------------------------------
 BYTE   KEYSH   PokemonHGSSGameCornerMrGreen3339_key+0
 BYTE   VOICE   127
 BYTE   VOL   45*PokemonHGSSGameCornerMrGreen3339_mvl/mxv
 BYTE   N04  Cn1  v127
 BYTE   N04  Dn1  v116
 BYTE   N04  Cs2  v127
 BYTE   W04
 BYTE   Dn1  v116
 BYTE   W04
 BYTE   N04
 BYTE   W04
 BYTE   N06  Cn1  v127
 BYTE   N06  Dn1  v116
 BYTE   W06
 BYTE   N06
 BYTE   W06
 BYTE   N03  Cn1  v127
 BYTE   N03  Bn1
 BYTE   W03
 BYTE   N03
 BYTE   W03
 BYTE   N06
 BYTE   W06
 BYTE   Gn1
 BYTE   W06
 BYTE   Fn1
 BYTE   W06
Label_7_01210F70:
 BYTE   N06  Cn1  v127
 BYTE   N06  An2
 BYTE   N06  An3  v032
 BYTE   W06
 BYTE   N06
 BYTE   W06
 BYTE   An3  v052
 BYTE   W06
 BYTE   Cn1  v127
 BYTE   N06  An3  v032
 BYTE   W06
 BYTE   N06
 BYTE   W06
 BYTE   An3  v052
 BYTE   W06
 BYTE   Cn1  v127
 BYTE   N06  An3  v032
 BYTE   W06
 BYTE   N06
 BYTE   W06
// 001   ----------------------------------------
 BYTE   Cn1  v127
 BYTE   N06  An3  v052
 BYTE   W06
 BYTE   An3  v032
 BYTE   W06
 BYTE   N06
 BYTE   W06
 BYTE   An3  v052
 BYTE   W06
 BYTE   Dn1  v116
 BYTE   N06  An3  v032
 BYTE   W06
 BYTE   N06
 BYTE   W06
 BYTE   An3  v052
 BYTE   W06
 BYTE   An3  v032
 BYTE   W06
 BYTE   Cn1  v127
 BYTE   N06  An3  v032
 BYTE   W06
 BYTE   N06
 BYTE   W06
 BYTE   An3  v052
 BYTE   W06
 BYTE   Cn1  v127
 BYTE   N06  An3  v032
 BYTE   W06
 BYTE   N06
 BYTE   W06
 BYTE   An3  v052
 BYTE   W06
 BYTE   Cn1  v127
 BYTE   N06  An3  v032
 BYTE   W06
 BYTE   N06
 BYTE   W06
// 002   ----------------------------------------
 BYTE   Cn1  v127
 BYTE   N06  An3  v052
 BYTE   W06
 BYTE   An3  v032
 BYTE   W06
 BYTE   N06
 BYTE   W06
 BYTE   An3  v052
 BYTE   W06
 BYTE   Dn1  v116
 BYTE   N06  An3  v032
 BYTE   W06
 BYTE   N06
 BYTE   W06
 BYTE   An3  v052
 BYTE   W06
 BYTE   Cn1  v127
 BYTE   N06  An3  v032
 BYTE   W06
 BYTE   Cn1  v127
 BYTE   N06  An2
 BYTE   N06  An3  v032
 BYTE   W06
 BYTE   N06
 BYTE   W06
 BYTE   An3  v052
 BYTE   W06
 BYTE   Cn1  v127
 BYTE   N06  An3  v032
 BYTE   W06
 BYTE   N06
 BYTE   W06
 BYTE   An3  v052
 BYTE   W06
 BYTE   Cn1  v127
 BYTE   N06  An3  v032
 BYTE   W06
 BYTE   N06
 BYTE   W06
// 003   ----------------------------------------
 BYTE   Cn1  v127
 BYTE   N06  An3  v052
 BYTE   W06
 BYTE   An3  v032
 BYTE   W06
 BYTE   N06
 BYTE   W06
 BYTE   An3  v052
 BYTE   W06
 BYTE   Dn1  v116
 BYTE   N06  An3  v032
 BYTE   W06
 BYTE   N06
 BYTE   W06
 BYTE   An3  v052
 BYTE   W06
 BYTE   An3  v032
 BYTE   W06
 BYTE   Cn1  v127
 BYTE   N06  An3  v032
 BYTE   W06
 BYTE   Cn1  v127
 BYTE   N06  An3  v032
 BYTE   W06
 BYTE   Dn1  v116
 BYTE   N06  An3  v052
 BYTE   W06
 BYTE   Cn1  v127
 BYTE   N06  An3  v032
 BYTE   W06
 BYTE   N06
 BYTE   W06
 BYTE   Dn1  v116
 BYTE   N06  An3  v052
 BYTE   W06
 BYTE   Cn1  v127
 BYTE   N06  An3  v032
 BYTE   W06
 BYTE   Cn1  v127
 BYTE   N06  An3  v032
 BYTE   W06
// 004   ----------------------------------------
 BYTE   Cn1  v127
 BYTE   N06  An3  v052
 BYTE   W06
 BYTE   Cn1  v127
 BYTE   N06  An3  v032
 BYTE   W06
 BYTE   Dn1  v116
 BYTE   N06  An3  v032
 BYTE   W06
 BYTE   An3  v052
 BYTE   W06
 BYTE   Cn1  v127
 BYTE   N06  An3  v032
 BYTE   W06
 BYTE   Cn1  v127
 BYTE   N06  An3  v032
 BYTE   W06
 BYTE   Gn1  v127
 BYTE   N06  An3  v052
 BYTE   W06
 BYTE   Fn1  v127
 BYTE   N06  An3  v032
 BYTE   W06
 BYTE   Cn1  v127
 BYTE   N06  An2
 BYTE   N06  An3  v032
 BYTE   W06
 BYTE   N06
 BYTE   W06
 BYTE   An3  v052
 BYTE   W06
 BYTE   Cn1  v127
 BYTE   N06  An3  v032
 BYTE   W06
 BYTE   N06
 BYTE   W06
 BYTE   An3  v052
 BYTE   W06
 BYTE   Cn1  v127
 BYTE   N06  An3  v032
 BYTE   W06
 BYTE   N06
 BYTE   W06
// 005   ----------------------------------------
 BYTE   Cn1  v127
 BYTE   N06  An3  v052
 BYTE   W06
 BYTE   An3  v032
 BYTE   W06
 BYTE   N06
 BYTE   W06
 BYTE   An3  v052
 BYTE   W06
 BYTE   Dn1  v116
 BYTE   N06  An3  v032
 BYTE   W06
 BYTE   N06
 BYTE   W06
 BYTE   An3  v052
 BYTE   W06
 BYTE   An3  v032
 BYTE   W06
 BYTE   Cn1  v127
 BYTE   N06  An3  v032
 BYTE   W06
 BYTE   Cn1  v127
 BYTE   N06  An3  v032
 BYTE   W06
 BYTE   Dn1  v116
 BYTE   N06  An3  v052
 BYTE   W06
 BYTE   An3  v032
 BYTE   W06
 BYTE   Cn1  v127
 BYTE   N06  An3  v032
 BYTE   W06
 BYTE   Cn1  v127
 BYTE   N06  An3  v052
 BYTE   W06
 BYTE   Dn1  v116
 BYTE   N06  An3  v032
 BYTE   W06
 BYTE   N06
 BYTE   W06
// 006   ----------------------------------------
 BYTE   Cn1  v127
 BYTE   N06  An3  v052
 BYTE   W06
 BYTE   Dn1  v116
 BYTE   N06  An3  v032
 BYTE   W06
 BYTE   N06
 BYTE   W06
 BYTE   Cn1  v127
 BYTE   N06  An3  v052
 BYTE   W06
 BYTE   Cn1  v127
 BYTE   N06  An3  v032
 BYTE   W06
 BYTE   Dn1  v116
 BYTE   N06  An3  v032
 BYTE   W06
 BYTE   An3  v052
 BYTE   W06
 BYTE   Cn1  v127
 BYTE   N06  An3  v032
 BYTE   W06
 BYTE   Cn1  v127
 BYTE   N06  An3  v032
 BYTE   W06
 BYTE   N06
 BYTE   W06
 BYTE   An3  v052
 BYTE   W06
 BYTE   Cn1  v127
 BYTE   N06  An3  v032
 BYTE   W06
 BYTE   N06
 BYTE   W06
 BYTE   An3  v052
 BYTE   W06
 BYTE   Cn1  v127
 BYTE   N06  An3  v032
 BYTE   W06
 BYTE   N06
 BYTE   W06
// 007   ----------------------------------------
 BYTE   Cn1  v127
 BYTE   N06  An3  v052
 BYTE   W06
 BYTE   An3  v032
 BYTE   W06
 BYTE   N06
 BYTE   W06
 BYTE   An3  v052
 BYTE   W06
 BYTE   Dn1  v116
 BYTE   N06  An3  v032
 BYTE   W06
 BYTE   N06
 BYTE   W06
 BYTE   An3  v052
 BYTE   W06
 BYTE   Cn1  v127
 BYTE   N06  An3  v032
 BYTE   W06
 BYTE   Cn1  v127
 BYTE   N06  An3  v032
 BYTE   W06
 BYTE   Dn1  v116
 BYTE   N06  An3  v032
 BYTE   W06
 BYTE   An3  v052
 BYTE   W06
 BYTE   Cn1  v127
 BYTE   N06  An3  v032
 BYTE   W06
 BYTE   Cn1  v127
 BYTE   N06  An3  v032
 BYTE   W06
 BYTE   Dn1  v116
 BYTE   N06  An3  v052
 BYTE   W06
 BYTE   An3  v032
 BYTE   W06
 BYTE   Cn1  v127
 BYTE   N06  An3  v032
 BYTE   W06
// 008   ----------------------------------------
 BYTE   Cn1  v127
 BYTE   N06  An3  v052
 BYTE   W06
 BYTE   Dn1  v116
 BYTE   N06  An3  v032
 BYTE   W06
 BYTE   N06
 BYTE   W06
 BYTE   Cn1  v127
 BYTE   N06  An3  v052
 BYTE   W06
 BYTE   Cn1  v127
 BYTE   N06  An3  v032
 BYTE   W06
 BYTE   Cn1  v127
 BYTE   N06  An3  v032
 BYTE   W06
 BYTE   Cn1  v127
 BYTE   N06  An3  v052
 BYTE   W06
 BYTE   Cn1  v127
 BYTE   N06  An3  v032
 BYTE   W06
 BYTE   Cn1  v127
 BYTE   N06  An2
 BYTE   N06  An3  v032
 BYTE   W06
 BYTE   N06
 BYTE   W06
 BYTE   An3  v052
 BYTE   W06
 BYTE   Cn1  v127
 BYTE   N06  An3  v032
 BYTE   W06
 BYTE   N06
 BYTE   W06
 BYTE   An3  v052
 BYTE   W06
 BYTE   Cn1  v127
 BYTE   N06  An3  v032
 BYTE   W06
 BYTE   N06
 BYTE   W06
// 009   ----------------------------------------
 BYTE   Cn1  v127
 BYTE   N06  An3  v052
 BYTE   W06
 BYTE   An3  v032
 BYTE   W06
 BYTE   N06
 BYTE   W06
 BYTE   An3  v052
 BYTE   W06
 BYTE   Dn1  v116
 BYTE   N06  An3  v032
 BYTE   W06
 BYTE   N06
 BYTE   W06
 BYTE   An3  v052
 BYTE   W06
 BYTE   An3  v032
 BYTE   W06
 BYTE   Cn1  v127
 BYTE   N06  An3  v032
 BYTE   W06
 BYTE   Cn1  v127
 BYTE   N06  An3  v032
 BYTE   W06
 BYTE   Dn1  v116
 BYTE   N06  An3  v052
 BYTE   W06
 BYTE   An3  v032
 BYTE   W06
 BYTE   Cn1  v127
 BYTE   N06  An3  v032
 BYTE   W06
 BYTE   Dn1  v116
 BYTE   N06  An3  v052
 BYTE   W06
 BYTE   An3  v032
 BYTE   W06
 BYTE   Cn1  v127
 BYTE   N06  An3  v032
 BYTE   W06
// 010   ----------------------------------------
 BYTE   Cn1  v127
 BYTE   N06  An3  v052
 BYTE   W06
 BYTE   Dn1  v116
 BYTE   N06  An3  v032
 BYTE   W06
 BYTE   N06
 BYTE   W06
 BYTE   Cn1  v127
 BYTE   N06  An3  v052
 BYTE   W06
 BYTE   Cn1  v127
 BYTE   N06  An3  v032
 BYTE   W06
 BYTE   N06
 BYTE   W06
 BYTE   Gn1  v127
 BYTE   N06  An3  v052
 BYTE   W06
 BYTE   Fn1  v127
 BYTE   N06  An3  v032
 BYTE   W06
 BYTE   Cn1  v127
 BYTE   N06  An3  v032
 BYTE   W06
 BYTE   N06
 BYTE   W06
 BYTE   An3  v052
 BYTE   W06
 BYTE   Cn1  v127
 BYTE   N06  An3  v032
 BYTE   W06
 BYTE   N06
 BYTE   W06
 BYTE   An3  v052
 BYTE   W06
 BYTE   Cn1  v127
 BYTE   N06  An3  v032
 BYTE   W06
 BYTE   N06
 BYTE   W06
// 011   ----------------------------------------
 BYTE   N04  Cn1  v127
 BYTE   N04  Dn1  v092
 BYTE   N06  An3  v052
 BYTE   W04
 BYTE   N04  Dn1  v104
 BYTE   W02
 BYTE   N06  An3  v032
 BYTE   W02
 BYTE   N04  Dn1  v116
 BYTE   W04
 BYTE   N06
 BYTE   N06  An3  v032
 BYTE   W06
 BYTE   Dn1  v116
 BYTE   N06  An3  v052
 BYTE   W06
 BYTE   N03  Bn1  v127
 BYTE   N06  An3  v032
 BYTE   W03
 BYTE   N03  Bn1  v127
 BYTE   W03
 BYTE   N06
 BYTE   N06  An3  v032
 BYTE   W06
 BYTE   Gn1  v127
 BYTE   N06  An3  v052
 BYTE   W06
 BYTE   Fn1  v127
 BYTE   N06  An3  v032
 BYTE   W06
 BYTE   Cn1  v127
 BYTE   N06  Cs2
 BYTE   W48
// 012   ----------------------------------------
 BYTE   W24
 BYTE   N03  Dn1  v116
 BYTE   W03
 BYTE   N03
 BYTE   W03
 BYTE   N06
 BYTE   W06
 BYTE   An1  v127
 BYTE   W06
 BYTE   Fn1
 BYTE   W06
 BYTE   Cn1
 BYTE   N06  Cs2
 BYTE   N06  An3  v032
 BYTE   W06
 BYTE   N06
 BYTE   W06
 BYTE   As1  v104
 BYTE   N06  An3  v052
 BYTE   W06
 BYTE   Cn1  v127
 BYTE   N06  An3  v032
 BYTE   W06
 BYTE   Dn1  v116
 BYTE   N06  An3  v032
 BYTE   W06
 BYTE   An3  v052
 BYTE   W06
 BYTE   As1  v104
 BYTE   N06  An3  v032
 BYTE   W06
 BYTE   Cn1  v127
 BYTE   N06  An3  v032
 BYTE   W06
// 013   ----------------------------------------
Label_7_012112C6:
 BYTE   N06  Cn1  v127
 BYTE   N06  An3  v052
 BYTE   W06
 BYTE   An3  v032
 BYTE   W06
 BYTE   As1  v104
 BYTE   N06  An3  v032
 BYTE   W06
 BYTE   An3  v052
 BYTE   W06
 BYTE   Dn1  v116
 BYTE   N06  An3  v032
 BYTE   W06
 BYTE   N06
 BYTE   W06
 BYTE   As1  v104
 BYTE   N06  An3  v052
 BYTE   W06
 BYTE   Cn1  v127
 BYTE   N06  An3  v032
 BYTE   W06
 BYTE   Cn1  v127
 BYTE   N06  An3  v032
 BYTE   W06
 BYTE   N06
 BYTE   W06
 BYTE   As1  v104
 BYTE   N06  An3  v052
 BYTE   W06
 BYTE   Cn1  v127
 BYTE   N06  An3  v032
 BYTE   W06
 BYTE   Dn1  v116
 BYTE   N06  An3  v032
 BYTE   W06
 BYTE   An3  v052
 BYTE   W06
 BYTE   As1  v104
 BYTE   N06  An3  v032
 BYTE   W06
 BYTE   Cn1  v127
 BYTE   N06  An3  v032
 BYTE   W06
 BYTE   PEND 
 BYTE   PATT
  POIN2 Label_7_012112C6
 BYTE   PATT
  POIN2 Label_7_012112C6
// 014   ----------------------------------------
 BYTE   N06  Cn1  v127
 BYTE   N06  An3  v052
 BYTE   W06
 BYTE   An3  v032
 BYTE   W06
 BYTE   As1  v104
 BYTE   N06  An3  v032
 BYTE   W06
 BYTE   An3  v052
 BYTE   W06
 BYTE   Cn1  v127
 BYTE   N06  Dn1  v116
 BYTE   N06  An3  v032
 BYTE   W06
 BYTE   Dn1  v116
 BYTE   N06  An3  v032
 BYTE   W06
 BYTE   Dn1  v116
 BYTE   N06  As1  v104
 BYTE   N06  An3  v052
 BYTE   W06
 BYTE   Cn1  v127
 BYTE   N06  Dn1  v116
 BYTE   N06  An3  v032
 BYTE   W06
 BYTE   Cn1  v127
 BYTE   N06  Cs2
 BYTE   N06  An3  v032
 BYTE   W06
 BYTE   N06
 BYTE   W06
 BYTE   As1  v104
 BYTE   N06  An3  v052
 BYTE   W06
 BYTE   Cn1  v127
 BYTE   N06  An3  v032
 BYTE   W06
 BYTE   Dn1  v116
 BYTE   N06  An3  v032
 BYTE   W06
 BYTE   An3  v052
 BYTE   W06
 BYTE   As1  v104
 BYTE   N06  An3  v032
 BYTE   W06
 BYTE   Cn1  v127
 BYTE   N06  An3  v032
 BYTE   W06
 BYTE   PATT
  POIN2 Label_7_012112C6
 BYTE   PATT
  POIN2 Label_7_012112C6
 BYTE   PATT
  POIN2 Label_7_012112C6
// 015   ----------------------------------------
 BYTE   N06  Cn1  v127
 BYTE   N06  An3  v052
 BYTE   W06
 BYTE   An3  v032
 BYTE   W06
 BYTE   As1  v104
 BYTE   N06  An3  v032
 BYTE   W06
 BYTE   An3  v052
 BYTE   W06
 BYTE   Dn1  v116
 BYTE   N06  An3  v032
 BYTE   W06
 BYTE   N06
 BYTE   W06
 BYTE   Gn1  v127
 BYTE   N06  An3  v052
 BYTE   W06
 BYTE   Fn1  v127
 BYTE   N06  An3  v032
 BYTE   W06
 BYTE   Cn1  v127
 BYTE   N06  Cs2
 BYTE   N06  An3  v032
 BYTE   W06
 BYTE   N06
 BYTE   W06
 BYTE   As1  v104
 BYTE   N06  An3  v052
 BYTE   W06
 BYTE   Cn1  v127
 BYTE   N06  An3  v032
 BYTE   W06
 BYTE   Dn1  v116
 BYTE   N06  An3  v032
 BYTE   W06
 BYTE   An3  v052
 BYTE   W06
 BYTE   As1  v104
 BYTE   N06  An3  v032
 BYTE   W06
 BYTE   Cn1  v127
 BYTE   N06  An3  v032
 BYTE   W06
 BYTE   PATT
  POIN2 Label_7_012112C6
 BYTE   PATT
  POIN2 Label_7_012112C6
 BYTE   PATT
  POIN2 Label_7_012112C6
// 016   ----------------------------------------
 BYTE   N06  Cn1  v127
 BYTE   N06  An3  v052
 BYTE   W06
 BYTE   N03  Dn1  v088
 BYTE   N06  An3  v032
 BYTE   W03
 BYTE   N03  Dn1  v092
 BYTE   W03
 BYTE   N06  Dn1  v116
 BYTE   N06  An3  v032
 BYTE   W06
 BYTE   Dn1  v116
 BYTE   N06  An3  v052
 BYTE   W06
 BYTE   An1  v127
 BYTE   N06  An3  v032
 BYTE   W06
 BYTE   An1  v127
 BYTE   N06  An3  v032
 BYTE   W06
 BYTE   Fn1  v127
 BYTE   N06  An3  v052
 BYTE   W06
 BYTE   Fn1  v127
 BYTE   N06  An3  v032
 BYTE   W06
 BYTE   Cn1  v127
 BYTE   N06  Cs2
 BYTE   N06  An3  v032
 BYTE   W06
 BYTE   N06
 BYTE   W06
 BYTE   As1  v104
 BYTE   N06  An3  v052
 BYTE   W06
 BYTE   Cn1  v127
 BYTE   N06  An3  v032
 BYTE   W06
 BYTE   Dn1  v116
 BYTE   N06  An3  v032
 BYTE   W06
 BYTE   Cn1  v127
 BYTE   N06  An3  v052
 BYTE   W06
 BYTE   As1  v104
 BYTE   N06  An3  v032
 BYTE   W06
 BYTE   Cn1  v127
 BYTE   N06  An3  v032
 BYTE   W06
// 017   ----------------------------------------
Label_7_01211455:
 BYTE   N06  Cn1  v127
 BYTE   N06  An3  v052
 BYTE   W06
 BYTE   Dn1  v116
 BYTE   N06  An3  v032
 BYTE   W06
 BYTE   As1  v104
 BYTE   N06  An3  v032
 BYTE   W06
 BYTE   Cn1  v127
 BYTE   N06  An3  v052
 BYTE   W06
 BYTE   Dn1  v116
 BYTE   N06  An3  v032
 BYTE   W06
 BYTE   N06
 BYTE   W06
 BYTE   As1  v104
 BYTE   N06  An3  v052
 BYTE   W06
 BYTE   Cn1  v127
 BYTE   N06  An3  v032
 BYTE   W06
 BYTE   Cn1  v127
 BYTE   N06  An3  v032
 BYTE   W06
 BYTE   N06
 BYTE   W06
 BYTE   As1  v104
 BYTE   N06  An3  v052
 BYTE   W06
 BYTE   Cn1  v127
 BYTE   N06  An3  v032
 BYTE   W06
 BYTE   Dn1  v116
 BYTE   N06  An3  v032
 BYTE   W06
 BYTE   Cn1  v127
 BYTE   N06  An3  v052
 BYTE   W06
 BYTE   As1  v104
 BYTE   N06  An3  v032
 BYTE   W06
 BYTE   Cn1  v127
 BYTE   N06  An3  v032
 BYTE   W06
 BYTE   PEND 
 BYTE   PATT
  POIN2 Label_7_01211455
 BYTE   PATT
  POIN2 Label_7_01211455
// 018   ----------------------------------------
 BYTE   N06  Cn1  v127
 BYTE   N06  An3  v052
 BYTE   W06
 BYTE   Dn1  v116
 BYTE   N06  An3  v032
 BYTE   W06
 BYTE   As1  v104
 BYTE   N06  An3  v032
 BYTE   W06
 BYTE   Cn1  v127
 BYTE   N06  An3  v052
 BYTE   W06
 BYTE   Dn1  v116
 BYTE   N06  An3  v032
 BYTE   W06
 BYTE   N06
 BYTE   W06
 BYTE   Dn1  v116
 BYTE   N06  As1  v104
 BYTE   N06  An3  v052
 BYTE   W06
 BYTE   Dn1  v116
 BYTE   N06  An3  v032
 BYTE   W06
 BYTE   Cn1  v127
 BYTE   N06  An3  v032
 BYTE   W06
 BYTE   N06
 BYTE   W06
 BYTE   As1  v104
 BYTE   N06  An3  v052
 BYTE   W06
 BYTE   Cn1  v127
 BYTE   N06  An3  v032
 BYTE   W06
 BYTE   Dn1  v116
 BYTE   N06  An3  v032
 BYTE   W06
 BYTE   Cn1  v127
 BYTE   N06  An3  v052
 BYTE   W06
 BYTE   As1  v104
 BYTE   N06  An3  v032
 BYTE   W06
 BYTE   Cn1  v127
 BYTE   N06  An3  v032
 BYTE   W06
 BYTE   PATT
  POIN2 Label_7_01211455
 BYTE   PATT
  POIN2 Label_7_01211455
// 019   ----------------------------------------
 BYTE   N04  Cn1  v127
 BYTE   N04  Dn1  v092
 BYTE   N06  An3  v052
 BYTE   W04
 BYTE   N04  Dn1  v104
 BYTE   W02
 BYTE   N06  An3  v032
 BYTE   W02
 BYTE   N04  Dn1  v116
 BYTE   W04
 BYTE   N06
 BYTE   N06  An3  v032
 BYTE   W06
 BYTE   Dn1  v116
 BYTE   N06  An3  v052
 BYTE   W06
 BYTE   N03  Bn1  v127
 BYTE   N06  An3  v032
 BYTE   W03
 BYTE   N03  Bn1  v127
 BYTE   W03
 BYTE   N06
 BYTE   N06  An3  v032
 BYTE   W06
 BYTE   Gn1  v127
 BYTE   N06  An3  v052
 BYTE   W06
 BYTE   Fn1  v127
 BYTE   N06  An3  v032
 BYTE   W06
 BYTE   Dn1  v116
 BYTE   N06  Cs2  v127
 BYTE   W06
 BYTE   Dn1  v116
 BYTE   N06  Cs2  v127
 BYTE   W06
 BYTE   Dn1  v116
 BYTE   N06  Cs2  v127
 BYTE   W18
 BYTE   Cn1
 BYTE   N06  As1  v104
 BYTE   W12
 BYTE   Cn1  v127
 BYTE   N06  Fs1
 BYTE   W06
// 020   ----------------------------------------
 BYTE   W24
 BYTE   Dn1  v116
 BYTE   W06
 BYTE   N06
 BYTE   W06
 BYTE   Cn1  v127
 BYTE   W12
 BYTE   GoTo
  POIN2 Label_7_01210F70
 BYTE   FINE

//**************** Track 9 (Midi-Chn.8) ****************//

PokemonHGSSGameCornerMrGreen3339_009:
// 000   ----------------------------------------
 BYTE   KEYSH   PokemonHGSSGameCornerMrGreen3339_key+0
 BYTE   VOICE   11
 BYTE   VOL   9*PokemonHGSSGameCornerMrGreen3339_mvl/mxv
 BYTE   PAN   c_v+30
 BYTE   W48
Label_8_01211591:
 BYTE   W24
 BYTE   N06  Cn3  v096
 BYTE   W06
 BYTE   Cn4
 BYTE   W06
 BYTE   Gn4
 BYTE   W06
 BYTE   Cn3
 BYTE   W06
// 001   ----------------------------------------
Label_8_0121159C:
 BYTE   N06  Cn4  v096
 BYTE   W06
 BYTE   Gn4
 BYTE   W06
 BYTE   Cn3
 BYTE   W06
 BYTE   Cn4
 BYTE   W06
 BYTE   Gn4
 BYTE   W06
 BYTE   Cn3
 BYTE   W06
 BYTE   Cn4
 BYTE   W06
 BYTE   An4
 BYTE   W06
 BYTE   Cn3
 BYTE   W06
 BYTE   Cn4
 BYTE   W06
 BYTE   N12  An4
 BYTE   W12
 BYTE   N06  Cn3
 BYTE   W06
 BYTE   Cn4
 BYTE   W06
 BYTE   Gn4
 BYTE   W06
 BYTE   Cn3
 BYTE   W06
 BYTE   PEND 
// 002   ----------------------------------------
Label_8_012115BF:
 BYTE   N06  Cn4  v096
 BYTE   W06
 BYTE   Gn4
 BYTE   W06
 BYTE   Cn3
 BYTE   W06
 BYTE   Cn4
 BYTE   W06
 BYTE   As4
 BYTE   W06
 BYTE   Cn4
 BYTE   W06
 BYTE   An4
 BYTE   W06
 BYTE   Cn4
 BYTE   W06
 BYTE   Gn4
 BYTE   W06
 BYTE   N18  An4
 BYTE   W18
 BYTE   N06  Cn3
 BYTE   W06
 BYTE   Cn4
 BYTE   W06
 BYTE   Gn4
 BYTE   W06
 BYTE   Cn3
 BYTE   W06
 BYTE   PEND 
// 003   ----------------------------------------
Label_8_012115E0:
 BYTE   N06  Cn4  v096
 BYTE   W06
 BYTE   Gn4
 BYTE   W06
 BYTE   Cn3
 BYTE   W06
 BYTE   Cn4
 BYTE   W06
 BYTE   Gn4
 BYTE   W06
 BYTE   Cn3
 BYTE   W06
 BYTE   Cn4
 BYTE   W06
 BYTE   An4
 BYTE   W06
 BYTE   Cn3
 BYTE   W06
 BYTE   Cn4
 BYTE   W06
 BYTE   An4
 BYTE   W06
 BYTE   Cn4
 BYTE   W06
 BYTE   Cn3
 BYTE   W06
 BYTE   Cn4
 BYTE   W06
 BYTE   Gn4
 BYTE   W06
 BYTE   Cn3
 BYTE   W06
 BYTE   PEND 
// 004   ----------------------------------------
Label_8_01211603:
 BYTE   N06  Cn4  v096
 BYTE   W06
 BYTE   Gn4
 BYTE   W06
 BYTE   Cn3
 BYTE   W06
 BYTE   Cn4
 BYTE   W06
 BYTE   As4
 BYTE   W06
 BYTE   Cn4
 BYTE   W06
 BYTE   An4
 BYTE   W06
 BYTE   Cn4
 BYTE   W06
 BYTE   Gn4
 BYTE   W06
 BYTE   N12  An4
 BYTE   W12
 BYTE   N06  Cn4
 BYTE   W06
 BYTE   Cn3
 BYTE   W06
 BYTE   Cn4
 BYTE   W06
 BYTE   Gn4
 BYTE   W06
 BYTE   Cn3
 BYTE   W06
 BYTE   PEND 
 BYTE   PATT
  POIN2 Label_8_0121159C
// 005   ----------------------------------------
Label_8_0121162B:
 BYTE   N06  Cn4  v096
 BYTE   W06
 BYTE   Gn4
 BYTE   W06
 BYTE   Cn3
 BYTE   W06
 BYTE   Cn4
 BYTE   W06
 BYTE   As4
 BYTE   W06
 BYTE   Cn4
 BYTE   W06
 BYTE   Cn3
 BYTE   W06
 BYTE   Cn5
 BYTE   W06
 BYTE   Cn4
 BYTE   W06
 BYTE   An4
 BYTE   W06
 BYTE   Fn4
 BYTE   W06
 BYTE   Cn4
 BYTE   W06
 BYTE   Cn3
 BYTE   W06
 BYTE   Cn4
 BYTE   W06
 BYTE   Gn4
 BYTE   W06
 BYTE   Cn3
 BYTE   W06
 BYTE   PEND 
// 006   ----------------------------------------
Label_8_0121164E:
 BYTE   N06  Cn4  v096
 BYTE   W06
 BYTE   Gn4
 BYTE   W06
 BYTE   Cn3
 BYTE   W06
 BYTE   Cn4
 BYTE   W06
 BYTE   Gn4
 BYTE   W06
 BYTE   Cn3
 BYTE   W06
 BYTE   Cn4
 BYTE   W06
 BYTE   An4
 BYTE   W06
 BYTE   Cn3
 BYTE   W06
 BYTE   Cn4
 BYTE   W06
 BYTE   N12  An4
 BYTE   W12
 BYTE   N06  Cn3
 BYTE   W06
 BYTE   Cn4
 BYTE   W06
 BYTE   Gs4
 BYTE   W06
 BYTE   Cn3
 BYTE   W06
 BYTE   PEND 
// 007   ----------------------------------------
Label_8_01211671:
 BYTE   N06  Cn4  v096
 BYTE   W06
 BYTE   Gs4
 BYTE   W06
 BYTE   Cn3
 BYTE   W06
 BYTE   Cn4
 BYTE   W06
 BYTE   As4
 BYTE   W06
 BYTE   Cn3
 BYTE   W06
 BYTE   Cn4
 BYTE   W06
 BYTE   Cn5
 BYTE   W06
 BYTE   Cn3
 BYTE   W06
 BYTE   N12  An4
 BYTE   W12
 BYTE   N06  Cn4
 BYTE   W06
 BYTE   Cn3
 BYTE   W06
 BYTE   Cn4
 BYTE   W06
 BYTE   Gn4
 BYTE   W06
 BYTE   Cn3
 BYTE   W06
 BYTE   PEND 
 BYTE   PATT
  POIN2 Label_8_0121159C
 BYTE   PATT
  POIN2 Label_8_0121162B
// 008   ----------------------------------------
 BYTE   N06  Cn4  v096
 BYTE   W06
 BYTE   Gn4
 BYTE   W06
 BYTE   Cn3
 BYTE   W06
 BYTE   Cn4
 BYTE   W06
 BYTE   Gn4
 BYTE   W06
 BYTE   Cn3
 BYTE   W06
 BYTE   Cn4
 BYTE   W06
 BYTE   An4
 BYTE   W06
 BYTE   Cn3
 BYTE   W06
 BYTE   Cn4
 BYTE   W06
 BYTE   N12  An4
 BYTE   W36
// 009   ----------------------------------------
 BYTE   W72
 BYTE   N06  Cn3
 BYTE   W06
 BYTE   Cn4
 BYTE   W06
 BYTE   Gn4
 BYTE   W06
 BYTE   Cn3
 BYTE   W06
 BYTE   PATT
  POIN2 Label_8_0121159C
 BYTE   PATT
  POIN2 Label_8_012115BF
 BYTE   PATT
  POIN2 Label_8_012115E0
 BYTE   PATT
  POIN2 Label_8_01211603
 BYTE   PATT
  POIN2 Label_8_0121159C
 BYTE   PATT
  POIN2 Label_8_0121162B
 BYTE   PATT
  POIN2 Label_8_0121164E
 BYTE   PATT
  POIN2 Label_8_01211671
 BYTE   PATT
  POIN2 Label_8_0121159C
 BYTE   PATT
  POIN2 Label_8_0121162B
 BYTE   PATT
  POIN2 Label_8_0121164E
// 010   ----------------------------------------
 BYTE   N06  Cn4  v096
 BYTE   W06
 BYTE   Gs4
 BYTE   W06
 BYTE   Cn3
 BYTE   W06
 BYTE   Cn4
 BYTE   W06
 BYTE   As4
 BYTE   W06
 BYTE   Cn3
 BYTE   W06
 BYTE   Cn4
 BYTE   W06
 BYTE   Cn5
 BYTE   W06
 BYTE   Cn3
 BYTE   W06
 BYTE   An4
 BYTE   W06
 BYTE   Ds4  v127
 BYTE   W06
 BYTE   Fn4
 BYTE   W06
 BYTE   N36  Gn4
 BYTE   W24
// 011   ----------------------------------------
 BYTE   W12
 BYTE   Fn4
 BYTE   W36
 BYTE   N24  Cn4
 BYTE   W24
 BYTE   N36  Dn4
 BYTE   W24
// 012   ----------------------------------------
 BYTE   W12
 BYTE   Ds4
 BYTE   W36
 BYTE   N24  Fn4
 BYTE   W24
 BYTE   N36  Dn4
 BYTE   W24
// 013   ----------------------------------------
 BYTE   W12
 BYTE   Cn4
 BYTE   W36
 BYTE   N24  As3
 BYTE   W24
 BYTE   N48  An3
 BYTE   W24
// 014   ----------------------------------------
 BYTE   W96
// 015   ----------------------------------------
 BYTE   W96
// 016   ----------------------------------------
 BYTE   W96
// 017   ----------------------------------------
 BYTE   W96
// 018   ----------------------------------------
 BYTE   W48
 BYTE   GoTo
  POIN2 Label_8_01211591
 BYTE   FINE

//**************** Track 10 (Midi-Chn.9) ****************//

PokemonHGSSGameCornerMrGreen3339_010:
// 000   ----------------------------------------
 BYTE   KEYSH   PokemonHGSSGameCornerMrGreen3339_key+0
 BYTE   VOICE   2
 BYTE   VOL   9*PokemonHGSSGameCornerMrGreen3339_mvl/mxv
 BYTE   PAN   c_v+56
 BYTE   W48
Label_9_01211745:
 BYTE   W48
// 001   ----------------------------------------
 BYTE   W96
// 002   ----------------------------------------
 BYTE   W96
// 003   ----------------------------------------
 BYTE   W96
// 004   ----------------------------------------
 BYTE   W96
// 005   ----------------------------------------
 BYTE   W96
// 006   ----------------------------------------
 BYTE   W96
// 007   ----------------------------------------
 BYTE   W96
// 008   ----------------------------------------
 BYTE   W96
// 009   ----------------------------------------
 BYTE   W96
// 010   ----------------------------------------
 BYTE   W96
// 011   ----------------------------------------
 BYTE   W72
 BYTE   N06  Gs3  v127
 BYTE   N06  Cn4
 BYTE   W06
 BYTE   Fn3
 BYTE   W12
 BYTE   N06
 BYTE   N06  Cn4
 BYTE   W06
// 012   ----------------------------------------
 BYTE   W06
 BYTE   N18  Gs3
 BYTE   N18  Ds4
 BYTE   W18
 BYTE   N06  Gn3
 BYTE   N06  Dn4
 BYTE   W12
 BYTE   As3
 BYTE   N06  Ds4
 BYTE   W06
 BYTE   N18  Cn4
 BYTE   N18  Fn4
 BYTE   W54
// 013   ----------------------------------------
 BYTE   W96
// 014   ----------------------------------------
 BYTE   W96
// 015   ----------------------------------------
 BYTE   W96
// 016   ----------------------------------------
 BYTE   W96
// 017   ----------------------------------------
 BYTE   W96
// 018   ----------------------------------------
 BYTE   W96
// 019   ----------------------------------------
 BYTE   W96
// 020   ----------------------------------------
 BYTE   W96
// 021   ----------------------------------------
 BYTE   W96
// 022   ----------------------------------------
 BYTE   W96
// 023   ----------------------------------------
 BYTE   W96
// 024   ----------------------------------------
 BYTE   W96
// 025   ----------------------------------------
 BYTE   W96
// 026   ----------------------------------------
 BYTE   W96
// 027   ----------------------------------------
 BYTE   W96
// 028   ----------------------------------------
 BYTE   W96
// 029   ----------------------------------------
 BYTE   W96
// 030   ----------------------------------------
 BYTE   W96
// 031   ----------------------------------------
 BYTE   W96
// 032   ----------------------------------------
 BYTE   W48
 BYTE   GoTo
  POIN2 Label_9_01211745
 BYTE   FINE

//**************** Track 11 (Midi-Chn.10) ****************//

PokemonHGSSGameCornerMrGreen3339_011:
// 000   ----------------------------------------
 BYTE   KEYSH   PokemonHGSSGameCornerMrGreen3339_key+0
 BYTE   VOICE   30
 BYTE   PAN   c_v+44
 BYTE   VOL   12*PokemonHGSSGameCornerMrGreen3339_mvl/mxv
 BYTE   W48
Label_10_01211795:
 BYTE   W48
// 001   ----------------------------------------
 BYTE   W96
// 002   ----------------------------------------
 BYTE   W96
// 003   ----------------------------------------
 BYTE   W96
// 004   ----------------------------------------
 BYTE   W96
// 005   ----------------------------------------
 BYTE   W96
// 006   ----------------------------------------
 BYTE   W96
// 007   ----------------------------------------
 BYTE   W96
// 008   ----------------------------------------
 BYTE   W96
// 009   ----------------------------------------
 BYTE   W96
// 010   ----------------------------------------
 BYTE   W96
// 011   ----------------------------------------
 BYTE   W96
// 012   ----------------------------------------
 BYTE   W96
// 013   ----------------------------------------
 BYTE   W96
// 014   ----------------------------------------
 BYTE   W96
// 015   ----------------------------------------
 BYTE   W96
// 016   ----------------------------------------
 BYTE   W96
// 017   ----------------------------------------
 BYTE   W96
// 018   ----------------------------------------
 BYTE   W96
// 019   ----------------------------------------
 BYTE   W96
// 020   ----------------------------------------
 BYTE   W96
// 021   ----------------------------------------
 BYTE   W96
// 022   ----------------------------------------
 BYTE   W96
// 023   ----------------------------------------
 BYTE   W96
// 024   ----------------------------------------
 BYTE   W96
// 025   ----------------------------------------
 BYTE   W96
// 026   ----------------------------------------
 BYTE   W96
// 027   ----------------------------------------
 BYTE   W96
// 028   ----------------------------------------
 BYTE   N01  Fn3  v127
 BYTE   N01  Fn4
 BYTE   W06
 BYTE   Fn3
 BYTE   N01  Fn4
 BYTE   W06
 BYTE   N36  Fn2
 BYTE   N36  Fn3
 BYTE   W06
 BYTE   BEND   c_v-2
 BYTE   W01
 BYTE   Cn3
 BYTE   W01
 BYTE   An2
 BYTE   W01
 BYTE   Gn2
 BYTE   W01
 BYTE   Fn2
 BYTE   W01
 BYTE   Ds2
 BYTE   W01
 BYTE   Cs2
 BYTE   W01
 BYTE   Bn1
 BYTE   W01
 BYTE   Gs1
 BYTE   W01
 BYTE   Fs1
 BYTE   W01
 BYTE   En1
 BYTE   W01
 BYTE   Dn1
 BYTE   W01
 BYTE   Cn1
 BYTE   W01
 BYTE   As0
 BYTE   W01
 BYTE   Gs0
 BYTE   W01
 BYTE   Fs0
 BYTE   W01
 BYTE   En0
 BYTE   W01
 BYTE   Dn0
 BYTE   W01
 BYTE   BnM1
 BYTE   W01
 BYTE   AnM1
 BYTE   W01
 BYTE   GnM1
 BYTE   W01
 BYTE   FnM1
 BYTE   W01
 BYTE   DsM1
 BYTE   W01
 BYTE   CsM1
 BYTE   W01
 BYTE   AsM2
 BYTE   W01
 BYTE   GsM2
 BYTE   W01
 BYTE   GnM2
 BYTE   W01
 BYTE   EnM2
 BYTE   W01
 BYTE   DnM2
 BYTE   W01
 BYTE   CnM2
 BYTE   W01
 BYTE   En3
 BYTE   N06  As3
 BYTE   N06  Ds4
 BYTE   W06
 BYTE   Cn4
 BYTE   N06  Fn4
 BYTE   W06
 BYTE   N36  Ds4
 BYTE   N36  Gn4
 BYTE   W36
// 029   ----------------------------------------
 BYTE   Dn4
 BYTE   N36  Fn4
 BYTE   W36
 BYTE   N24  Gs3
 BYTE   N24  Cn4
 BYTE   W24
 BYTE   N36  Bn3
 BYTE   N36  Dn4
 BYTE   W36
// 030   ----------------------------------------
 BYTE   Bn3
 BYTE   N36  Ds4
 BYTE   W36
 BYTE   N12  Dn4
 BYTE   N12  Fn4
 BYTE   W12
 BYTE   BEND   c_v+3
 BYTE   N12  Gs3
 BYTE   W01
 BYTE   BEND   c_v+7
 BYTE   W01
 BYTE   Dn4
 BYTE   W01
 BYTE   Fs4
 BYTE   W01
 BYTE   An4
 BYTE   W01
 BYTE   Cs5
 BYTE   W01
 BYTE   En5
 BYTE   W01
 BYTE   Gs5
 BYTE   W01
 BYTE   Bn5
 BYTE   W01
 BYTE   Ds6
 BYTE   W01
 BYTE   Gn6
 BYTE   W01
 BYTE   As6
 BYTE   W01
 BYTE   En3
 BYTE   N96  Bn3
 BYTE   N96  Gn4
 BYTE   W01
 BYTE   W02
 BYTE   W02
 BYTE   W01
 BYTE   W02
 BYTE   W01
 BYTE   W02
 BYTE   W01
 BYTE   W02
 BYTE   W01
 BYTE   W02
 BYTE   W02
 BYTE   W01
 BYTE   W02
 BYTE   W01
 BYTE   W02
 BYTE   W01
 BYTE   W02
 BYTE   W01
 BYTE   W02
 BYTE   W01
 BYTE   W02
 BYTE   W01
 BYTE   W01
// 031   ----------------------------------------
 BYTE   W01
 BYTE   W01
 BYTE   W02
 BYTE   W02
 BYTE   W01
 BYTE   W02
 BYTE   W01
 BYTE   W02
 BYTE   W01
 BYTE   W02
 BYTE   W01
 BYTE   W02
 BYTE   W02
 BYTE   W01
 BYTE   W02
 BYTE   W01
 BYTE   W02
 BYTE   W01
 BYTE   W02
 BYTE   W01
 BYTE   W02
 BYTE   W01
 BYTE   W02
 BYTE   W01
 BYTE   W02
 BYTE   W01
 BYTE   W02
 BYTE   W02
 BYTE   W01
 BYTE   W02
 BYTE   W01
 BYTE   W02
 BYTE   W01
 BYTE   W02
 BYTE   W01
 BYTE   W02
 BYTE   W02
 BYTE   W01
 BYTE   W02
 BYTE   W36
// 032   ----------------------------------------
 BYTE   W12
 BYTE   W24
 BYTE   BEND   c_v+0
 BYTE   N12  Gn2
 BYTE   N12  Gn3
 BYTE   W02
 BYTE   BEND   c_v-6
 BYTE   W02
 BYTE   Fn2
 BYTE   W02
 BYTE   Cn2
 BYTE   W02
 BYTE   Fs1
 BYTE   W02
 BYTE   Cs1
 BYTE   W02
 BYTE   GoTo
  POIN2 Label_10_01211795
// 033   ----------------------------------------
 BYTE   BEND   c_v-64
 BYTE   FINE

//******************************************************//
	ALIGN 4

PokemonHGSSGameCornerMrGreen3339:
	BYTE	11	// NumTrks
	BYTE	0	// NumBlks
	BYTE	PokemonHGSSGameCornerMrGreen3339_pri	// Priority
	BYTE	PokemonHGSSGameCornerMrGreen3339_rev	// Reverb.
    
	POIN2	PokemonHGSSGameCornerMrGreen3339_grp
    
	POIN2	PokemonHGSSGameCornerMrGreen3339_001
	POIN2	PokemonHGSSGameCornerMrGreen3339_002
	POIN2	PokemonHGSSGameCornerMrGreen3339_003
	POIN2	PokemonHGSSGameCornerMrGreen3339_004
	POIN2	PokemonHGSSGameCornerMrGreen3339_005
	POIN2	PokemonHGSSGameCornerMrGreen3339_006
	POIN2	PokemonHGSSGameCornerMrGreen3339_007
	POIN2	PokemonHGSSGameCornerMrGreen3339_008
	POIN2	PokemonHGSSGameCornerMrGreen3339_009
	POIN2	PokemonHGSSGameCornerMrGreen3339_010
	POIN2	PokemonHGSSGameCornerMrGreen3339_011

	
