//Event file generated from Sappy .s format.
	#include "MPlayDef.event"

	#define	PokemonMDExplorersAmpPlainsRandomWizard_grp  voicegroup000
	#define	PokemonMDExplorersAmpPlainsRandomWizard_pri  0
	#define	PokemonMDExplorersAmpPlainsRandomWizard_rev  0
	#define	PokemonMDExplorersAmpPlainsRandomWizard_mvl  127
	#define	PokemonMDExplorersAmpPlainsRandomWizard_key  0
	#define	PokemonMDExplorersAmpPlainsRandomWizard_tbs  1
	#define	PokemonMDExplorersAmpPlainsRandomWizard_exg  0
	#define	PokemonMDExplorersAmpPlainsRandomWizard_cmp  1

	// .rodata
	//	PokemonMDExplorersAmpPlainsRandomWizard
	ALIGN 4


//**************** Track 1 (Midi-Chn.0) ****************//

PokemonMDExplorersAmpPlainsRandomWizard_001:
// 000   ----------------------------------------
 BYTE   KEYSH   PokemonMDExplorersAmpPlainsRandomWizard_key+0
Label_0_014C62A2:
 BYTE   TEMPO   106*PokemonMDExplorersAmpPlainsRandomWizard_tbs/2
 BYTE   VOICE   38
 BYTE   PAN   c_v+0
 BYTE   VOL   31*PokemonMDExplorersAmpPlainsRandomWizard_mvl/mxv
 BYTE   PAN   c_v+0
 BYTE   VOL   31*PokemonMDExplorersAmpPlainsRandomWizard_mvl/mxv
 BYTE   PAN   c_v+0
 BYTE   VOL   31*PokemonMDExplorersAmpPlainsRandomWizard_mvl/mxv
 BYTE   PAN   c_v+0
 BYTE   VOL   31*PokemonMDExplorersAmpPlainsRandomWizard_mvl/mxv
 BYTE   BEND   c_v+0
 BYTE   N06  Dn1  v100
 BYTE   W06
 BYTE   N06
 BYTE   W06
 BYTE   Dn2
 BYTE   W06
 BYTE   Dn1
 BYTE   W06
 BYTE   Dn2
 BYTE   W06
 BYTE   Dn1
 BYTE   W12
 BYTE   N06
 BYTE   W06
 BYTE   Dn2
 BYTE   W06
 BYTE   Dn1
 BYTE   W12
 BYTE   N06
 BYTE   W06
 BYTE   Dn2
 BYTE   W06
 BYTE   Dn1
 BYTE   W12
 BYTE   N06
 BYTE   W06
// 001   ----------------------------------------
Label_0_014C62D4:
 BYTE   N06  Dn1  v100
 BYTE   W06
 BYTE   N06
 BYTE   W06
 BYTE   Dn2
 BYTE   W06
 BYTE   Dn1
 BYTE   W06
 BYTE   Dn2
 BYTE   W06
 BYTE   Dn1
 BYTE   W12
 BYTE   N06
 BYTE   W06
 BYTE   Dn2
 BYTE   W06
 BYTE   Dn1
 BYTE   W12
 BYTE   N06
 BYTE   W06
 BYTE   Dn2
 BYTE   W06
 BYTE   Dn1
 BYTE   W12
 BYTE   N06
 BYTE   W06
 BYTE   PEND 
 BYTE   PATT
  POIN2 Label_0_014C62D4
// 002   ----------------------------------------
 BYTE   N06  Fn1  v100
 BYTE   W06
 BYTE   Fn2
 BYTE   W06
 BYTE   Fn1
 BYTE   W06
 BYTE   Gn1
 BYTE   W06
 BYTE   Gn2
 BYTE   W06
 BYTE   Gn1
 BYTE   W06
 BYTE   Gs1
 BYTE   W06
 BYTE   Gs2
 BYTE   W06
 BYTE   Gs1
 BYTE   W06
 BYTE   Gs2
 BYTE   W06
 BYTE   Gs1
 BYTE   W06
 BYTE   N06
 BYTE   W06
 BYTE   Gs2
 BYTE   W06
 BYTE   Gs1
 BYTE   W06
 BYTE   Gs2
 BYTE   W06
 BYTE   Gs1
 BYTE   W06
 BYTE   PATT
  POIN2 Label_0_014C62D4
 BYTE   PATT
  POIN2 Label_0_014C62D4
 BYTE   PATT
  POIN2 Label_0_014C62D4
// 003   ----------------------------------------
 BYTE   N06  Fn1  v100
 BYTE   W06
 BYTE   Fn2
 BYTE   W06
 BYTE   Fn1
 BYTE   W06
 BYTE   Cn1
 BYTE   W06
 BYTE   Cn2
 BYTE   W06
 BYTE   Cn1
 BYTE   W06
 BYTE   Gn1
 BYTE   W06
 BYTE   Gn2
 BYTE   W06
 BYTE   Gn1
 BYTE   W06
 BYTE   Dn1
 BYTE   W06
 BYTE   Dn2
 BYTE   W06
 BYTE   Dn1
 BYTE   W06
 BYTE   N66  Gs1
 BYTE   W24
// 004   ----------------------------------------
 BYTE   W54
 BYTE   N06  An0
 BYTE   W06
 BYTE   An1
 BYTE   W06
 BYTE   An0
 BYTE   W06
 BYTE   Bn1
 BYTE   W06
 BYTE   Bn0
 BYTE   W06
 BYTE   Cs1
 BYTE   W06
 BYTE   Cs2
 BYTE   W06
 BYTE   PATT
  POIN2 Label_0_014C62D4
// 005   ----------------------------------------
Label_0_014C6359:
 BYTE   N06  Dn1  v100
 BYTE   W06
 BYTE   N06
 BYTE   W06
 BYTE   Dn2
 BYTE   W06
 BYTE   Dn1
 BYTE   W06
 BYTE   Dn2
 BYTE   W06
 BYTE   Dn1
 BYTE   W12
 BYTE   N06
 BYTE   W06
 BYTE   Gn1
 BYTE   W06
 BYTE   N06
 BYTE   W06
 BYTE   Gn2
 BYTE   W06
 BYTE   Gn1
 BYTE   W06
 BYTE   Gn2
 BYTE   W06
 BYTE   Gs2
 BYTE   W06
 BYTE   Gn2
 BYTE   W06
 BYTE   Fn2
 BYTE   W06
 BYTE   PEND 
 BYTE   PATT
  POIN2 Label_0_014C62D4
// 006   ----------------------------------------
 BYTE   N06  Fn1  v100
 BYTE   W06
 BYTE   Fn2
 BYTE   W06
 BYTE   Fn1
 BYTE   W06
 BYTE   Gn1
 BYTE   W06
 BYTE   Gn2
 BYTE   W06
 BYTE   Gn1
 BYTE   W06
 BYTE   Gs1
 BYTE   W06
 BYTE   Gs2
 BYTE   W06
 BYTE   Gs1
 BYTE   W06
 BYTE   Gs2
 BYTE   W06
 BYTE   Gs1
 BYTE   W06
 BYTE   N06
 BYTE   W06
 BYTE   Gn2
 BYTE   W06
 BYTE   Gs2
 BYTE   W06
 BYTE   Gn2
 BYTE   W06
 BYTE   Fn2
 BYTE   W06
 BYTE   PATT
  POIN2 Label_0_014C62D4
 BYTE   PATT
  POIN2 Label_0_014C6359
 BYTE   PATT
  POIN2 Label_0_014C62D4
// 007   ----------------------------------------
 BYTE   N06  Fn1  v100
 BYTE   W06
 BYTE   Fn2
 BYTE   W06
 BYTE   Fn1
 BYTE   W06
 BYTE   Gs1
 BYTE   W06
 BYTE   Gs2
 BYTE   W06
 BYTE   Gs1
 BYTE   W06
 BYTE   N06
 BYTE   W06
 BYTE   Gs2
 BYTE   W06
 BYTE   Bn1
 BYTE   W06
 BYTE   Bn2
 BYTE   W06
 BYTE   Bn1
 BYTE   W06
 BYTE   Dn2
 BYTE   W06
 BYTE   Dn3
 BYTE   W06
 BYTE   N06
 BYTE   W06
 BYTE   Cn2
 BYTE   W06
 BYTE   Dn2
 BYTE   W06
// 008   ----------------------------------------
Label_0_014C63D2:
 BYTE   N06  Dn1  v100
 BYTE   W12
 BYTE   N06
 BYTE   W18
 BYTE   N06
 BYTE   W12
 BYTE   N06
 BYTE   W06
 BYTE   N06
 BYTE   W12
 BYTE   N06
 BYTE   W18
 BYTE   N06
 BYTE   W12
 BYTE   N06
 BYTE   W06
 BYTE   PEND 
// 009   ----------------------------------------
 BYTE   Cs1
 BYTE   W12
 BYTE   N06
 BYTE   W18
 BYTE   N06
 BYTE   W12
 BYTE   N06
 BYTE   W06
 BYTE   N06
 BYTE   W12
 BYTE   N06
 BYTE   W18
 BYTE   N06
 BYTE   W12
 BYTE   N06
 BYTE   W06
 BYTE   PATT
  POIN2 Label_0_014C63D2
// 010   ----------------------------------------
 BYTE   N06  Fs1  v100
 BYTE   W12
 BYTE   N06
 BYTE   W18
 BYTE   N06
 BYTE   W12
 BYTE   N06
 BYTE   W06
 BYTE   N06
 BYTE   W12
 BYTE   N06
 BYTE   W18
 BYTE   N06
 BYTE   W12
 BYTE   N06
 BYTE   W06
// 011   ----------------------------------------
Label_0_014C640C:
 BYTE   W06
 BYTE   N06  Bn1  v100
 BYTE   W06
 BYTE   N06
 BYTE   W12
 BYTE   N06
 BYTE   W06
 BYTE   N06
 BYTE   W12
 BYTE   An1
 BYTE   W06
 BYTE   N06
 BYTE   W06
 BYTE   N06
 BYTE   W06
 BYTE   Bn1
 BYTE   W36
 BYTE   PEND 
// 012   ----------------------------------------
Label_0_014C6420:
 BYTE   N06  Bn1  v100
 BYTE   W06
 BYTE   N06
 BYTE   W18
 BYTE   Dn2
 BYTE   W06
 BYTE   N06
 BYTE   W12
 BYTE   Bn1
 BYTE   W12
 BYTE   N06
 BYTE   W06
 BYTE   An1
 BYTE   W06
 BYTE   Bn1
 BYTE   W06
 BYTE   N06
 BYTE   W24
 BYTE   PEND 
 BYTE   PATT
  POIN2 Label_0_014C640C
// 013   ----------------------------------------
 BYTE   N12  Cn1  v100
 BYTE   W24
 BYTE   N12
 BYTE   W24
 BYTE   N12
 BYTE   W24
 BYTE   N12
 BYTE   W24
 BYTE   PATT
  POIN2 Label_0_014C640C
 BYTE   PATT
  POIN2 Label_0_014C6420
 BYTE   PATT
  POIN2 Label_0_014C640C
// 014   ----------------------------------------
 BYTE   N12  Cn1  v100
 BYTE   W24
 BYTE   N12
 BYTE   W24
 BYTE   N12
 BYTE   W24
 BYTE   N12
 BYTE   W12
 BYTE   BEND   c_v+0
 BYTE   W12
// 015   ----------------------------------------
 BYTE   GoTo
  POIN2 Label_0_014C62A2
 BYTE   FINE

//**************** Track 2 (Midi-Chn.1) ****************//

PokemonMDExplorersAmpPlainsRandomWizard_002:
// 000   ----------------------------------------
 BYTE   KEYSH   PokemonMDExplorersAmpPlainsRandomWizard_key+0
Label_1_014C6476:
 BYTE   VOICE   80
 BYTE   PAN   c_v+0
 BYTE   VOL   31*PokemonMDExplorersAmpPlainsRandomWizard_mvl/mxv
 BYTE   PAN   c_v+0
 BYTE   VOL   31*PokemonMDExplorersAmpPlainsRandomWizard_mvl/mxv
 BYTE   PAN   c_v+0
 BYTE   VOL   31*PokemonMDExplorersAmpPlainsRandomWizard_mvl/mxv
 BYTE   PAN   c_v+0
 BYTE   VOL   31*PokemonMDExplorersAmpPlainsRandomWizard_mvl/mxv
 BYTE   BEND   c_v+0
 BYTE   N06  Dn2  v100
 BYTE   W06
 BYTE   N06
 BYTE   W06
 BYTE   Dn3
 BYTE   W06
 BYTE   Dn2
 BYTE   W06
 BYTE   Cn3
 BYTE   W06
 BYTE   Dn2
 BYTE   W12
 BYTE   N06
 BYTE   W06
 BYTE   Bn2
 BYTE   W06
 BYTE   Dn2
 BYTE   W12
 BYTE   Cn3
 BYTE   W06
 BYTE   Dn2
 BYTE   W06
 BYTE   N06
 BYTE   W06
 BYTE   Cs3
 BYTE   W06
 BYTE   Dn2
 BYTE   W06
// 001   ----------------------------------------
Label_1_014C64A8:
 BYTE   N06  Dn2  v100
 BYTE   W06
 BYTE   N06
 BYTE   W06
 BYTE   Dn3
 BYTE   W06
 BYTE   Dn2
 BYTE   W06
 BYTE   Cn3
 BYTE   W06
 BYTE   Dn2
 BYTE   W12
 BYTE   N06
 BYTE   W06
 BYTE   Bn2
 BYTE   W06
 BYTE   Dn2
 BYTE   W12
 BYTE   As2
 BYTE   W06
 BYTE   Dn2
 BYTE   W06
 BYTE   N06
 BYTE   W06
 BYTE   An2
 BYTE   W06
 BYTE   Dn2
 BYTE   W06
 BYTE   PEND 
// 002   ----------------------------------------
Label_1_014C64C7:
 BYTE   N06  Dn2  v100
 BYTE   W06
 BYTE   N06
 BYTE   W06
 BYTE   Dn3
 BYTE   W06
 BYTE   Dn2
 BYTE   W06
 BYTE   Cn3
 BYTE   W06
 BYTE   Dn2
 BYTE   W12
 BYTE   N06
 BYTE   W06
 BYTE   Bn2
 BYTE   W06
 BYTE   Dn2
 BYTE   W12
 BYTE   Cn3
 BYTE   W06
 BYTE   Dn2
 BYTE   W06
 BYTE   N06
 BYTE   W06
 BYTE   Cs3
 BYTE   W06
 BYTE   Dn2
 BYTE   W06
 BYTE   PEND 
// 003   ----------------------------------------
Label_1_014C64E6:
 BYTE   N18  Fn2  v100
 BYTE   N18  Cn3
 BYTE   N18  Fn3
 BYTE   W18
 BYTE   Gn2
 BYTE   N18  Dn3
 BYTE   N18  Gn3
 BYTE   W18
 BYTE   Gs2
 BYTE   N18  Ds3
 BYTE   N18  Gn3
 BYTE   W30
 BYTE   N06  En3  v028
 BYTE   N06  Gs3
 BYTE   W06
 BYTE   Ds3  v044
 BYTE   N06  Gn3
 BYTE   W06
 BYTE   En3  v064
 BYTE   N06  Gs3
 BYTE   W06
 BYTE   Ds3  v080
 BYTE   N06  Gn3
 BYTE   W06
 BYTE   En3  v096
 BYTE   N06  Gs3
 BYTE   W06
 BYTE   PEND 
 BYTE   PATT
  POIN2 Label_1_014C64C7
 BYTE   PATT
  POIN2 Label_1_014C64A8
 BYTE   PATT
  POIN2 Label_1_014C64C7
// 004   ----------------------------------------
 BYTE   N06  An2  v100
 BYTE   N06  Fn3
 BYTE   W06
 BYTE   As2
 BYTE   N06  Gn3
 BYTE   W06
 BYTE   Cn3
 BYTE   N06  An3
 BYTE   W06
 BYTE   As2
 BYTE   N06  Gn3
 BYTE   W18
 BYTE   As2
 BYTE   N06  Gn3
 BYTE   W06
 BYTE   Cn3
 BYTE   N06  An3
 BYTE   W06
 BYTE   Dn3
 BYTE   N06  Bn3
 BYTE   W06
 BYTE   Cn3
 BYTE   N06  An3
 BYTE   W18
 BYTE   N30  Cn4
 BYTE   N30  Ds4
 BYTE   W24
// 005   ----------------------------------------
 BYTE   W06
 BYTE   N06  Cs4  v096
 BYTE   N06  En4
 BYTE   W06
 BYTE   Cn4  v088
 BYTE   N06  Ds4
 BYTE   W06
 BYTE   Cs4  v076
 BYTE   N06  En4
 BYTE   W06
 BYTE   Cn4  v068
 BYTE   N06  Ds4
 BYTE   W06
 BYTE   Cs4  v056
 BYTE   N06  En4
 BYTE   W06
 BYTE   Cn4  v048
 BYTE   N06  Ds4
 BYTE   W06
 BYTE   Cs4  v036
 BYTE   N06  En4
 BYTE   W06
 BYTE   Cn4  v028
 BYTE   N06  Ds4
 BYTE   W06
 BYTE   Cs4  v016
 BYTE   N06  En4
 BYTE   W42
// 006   ----------------------------------------
Label_1_014C657A:
 BYTE   W12
 BYTE   N06  Dn3  v100
 BYTE   W36
 BYTE   Gn2
 BYTE   W06
 BYTE   An2
 BYTE   W06
 BYTE   Cn3
 BYTE   W12
 BYTE   Fn3
 BYTE   W12
 BYTE   Dn3
 BYTE   W12
 BYTE   PEND 
// 007   ----------------------------------------
Label_1_014C658A:
 BYTE   N06  Dn3  v100
 BYTE   W06
 BYTE   Cn3
 BYTE   W06
 BYTE   An2
 BYTE   W06
 BYTE   Cn3
 BYTE   W06
 BYTE   An2
 BYTE   W06
 BYTE   Gs2
 BYTE   W06
 BYTE   Gn2
 BYTE   W06
 BYTE   Fn2
 BYTE   W54
 BYTE   PEND 
 BYTE   PATT
  POIN2 Label_1_014C657A
 BYTE   PATT
  POIN2 Label_1_014C64E6
 BYTE   PATT
  POIN2 Label_1_014C657A
 BYTE   PATT
  POIN2 Label_1_014C658A
 BYTE   PATT
  POIN2 Label_1_014C657A
// 008   ----------------------------------------
 BYTE   N06  An2  v100
 BYTE   N06  Cn3
 BYTE   N06  Fn3
 BYTE   W18
 BYTE   N24  Cn3
 BYTE   N24  Ds3
 BYTE   N24  Gn3
 BYTE   W30
 BYTE   N06  Ds3
 BYTE   N06  Fs3
 BYTE   N06  Bn3
 BYTE   W18
 BYTE   N24  Fs3
 BYTE   N24  An3
 BYTE   N24  Cs4
 BYTE   W30
// 009   ----------------------------------------
Label_1_014C65D3:
 BYTE   N06  Cn3  v100
 BYTE   W06
 BYTE   Dn3
 BYTE   W06
 BYTE   Fn3
 BYTE   W12
 BYTE   Dn3
 BYTE   W12
 BYTE   Cn3
 BYTE   W06
 BYTE   Dn3
 BYTE   W06
 BYTE   Cn4
 BYTE   W12
 BYTE   N24  Bn3
 BYTE   W36
 BYTE   PEND 
// 010   ----------------------------------------
 BYTE   N06  Gs3
 BYTE   W06
 BYTE   Fs3
 BYTE   W06
 BYTE   Gs3
 BYTE   W06
 BYTE   N18  En3
 BYTE   W18
 BYTE   N06  Gs3
 BYTE   W06
 BYTE   Fs3
 BYTE   W06
 BYTE   Gs3
 BYTE   W06
 BYTE   N30  Ds4
 BYTE   W42
 BYTE   PATT
  POIN2 Label_1_014C65D3
// 011   ----------------------------------------
 BYTE   N06  As3  v100
 BYTE   W06
 BYTE   Gs3
 BYTE   W06
 BYTE   As3
 BYTE   W06
 BYTE   N18  En3
 BYTE   W18
 BYTE   N06  As3
 BYTE   W06
 BYTE   Gs3
 BYTE   W06
 BYTE   As3
 BYTE   W06
 BYTE   N30  Ds4
 BYTE   W42
// 012   ----------------------------------------
Label_1_014C6615:
 BYTE   W06
 BYTE   N06  Cs4  v100
 BYTE   N06  Fn4
 BYTE   W06
 BYTE   Cs4
 BYTE   N06  Fn4
 BYTE   W12
 BYTE   Cs4
 BYTE   N06  Fn4
 BYTE   W06
 BYTE   Cs4
 BYTE   N06  Fn4
 BYTE   W12
 BYTE   N12  Bn3
 BYTE   N12  Ds4
 BYTE   W12
 BYTE   N06  Bn3
 BYTE   N06  Ds4
 BYTE   W06
 BYTE   Cs4
 BYTE   N06  Fn4
 BYTE   W36
 BYTE   PEND 
// 013   ----------------------------------------
Label_1_014C6637:
 BYTE   N06  Cs4  v100
 BYTE   N06  Fn4
 BYTE   W06
 BYTE   Cs4
 BYTE   N06  Fn4
 BYTE   W18
 BYTE   En4
 BYTE   N06  Gs4
 BYTE   W06
 BYTE   En4
 BYTE   N06  Gs4
 BYTE   W12
 BYTE   Cs4
 BYTE   N06  Fn4
 BYTE   W54
 BYTE   PEND 
 BYTE   PATT
  POIN2 Label_1_014C6615
// 014   ----------------------------------------
Label_1_014C6653:
 BYTE   N06  Fs3  v100
 BYTE   N06  Fs4
 BYTE   W06
 BYTE   Dn3
 BYTE   N06  Dn4
 BYTE   W06
 BYTE   As2
 BYTE   N06  As3
 BYTE   W06
 BYTE   Fs2
 BYTE   N06  Fs3
 BYTE   W06
 BYTE   Dn3
 BYTE   N06  Dn4
 BYTE   W06
 BYTE   As2
 BYTE   N06  As3
 BYTE   W06
 BYTE   Fs2
 BYTE   N06  Fs3
 BYTE   W06
 BYTE   Dn2
 BYTE   N06  Dn3
 BYTE   W06
 BYTE   As2
 BYTE   N06  As3
 BYTE   W06
 BYTE   Fs2
 BYTE   N06  Fs3
 BYTE   W06
 BYTE   Dn2
 BYTE   N06  Dn3
 BYTE   W06
 BYTE   As1
 BYTE   N06  As2
 BYTE   W06
 BYTE   Fs2
 BYTE   N06  Fs3
 BYTE   W06
 BYTE   Dn2
 BYTE   N06  Dn3
 BYTE   W06
 BYTE   As1
 BYTE   N06  As2
 BYTE   W06
 BYTE   Fs1
 BYTE   N06  Fs2
 BYTE   W06
 BYTE   PEND 
 BYTE   PATT
  POIN2 Label_1_014C6615
 BYTE   PATT
  POIN2 Label_1_014C6637
 BYTE   PATT
  POIN2 Label_1_014C6615
 BYTE   PATT
  POIN2 Label_1_014C6653
// 015   ----------------------------------------
 BYTE   GoTo
  POIN2 Label_1_014C6476
// 016   ----------------------------------------
 BYTE   BEND   c_v+0
 BYTE   FINE

//**************** Track 3 (Midi-Chn.2) ****************//

PokemonMDExplorersAmpPlainsRandomWizard_003:
// 000   ----------------------------------------
 BYTE   KEYSH   PokemonMDExplorersAmpPlainsRandomWizard_key+0
Label_2_014C66BE:
 BYTE   VOICE   80
 BYTE   PAN   c_v-64
 BYTE   VOL   10*PokemonMDExplorersAmpPlainsRandomWizard_mvl/mxv
 BYTE   AsM2  v010
 BYTE   AsM2
 BYTE   BEND   c_v+0
 BYTE   W06
 BYTE   N06  Dn2  v100
 BYTE   W06
 BYTE   N06
 BYTE   W06
 BYTE   Dn3
 BYTE   W06
 BYTE   Dn2
 BYTE   W06
 BYTE   Cn3
 BYTE   W06
 BYTE   Dn2
 BYTE   W12
 BYTE   N06
 BYTE   W06
 BYTE   Bn2
 BYTE   W06
 BYTE   Dn2
 BYTE   W12
 BYTE   Cn3
 BYTE   W06
 BYTE   Dn2
 BYTE   W06
 BYTE   N06
 BYTE   W06
 BYTE   Cs3
 BYTE   W06
// 001   ----------------------------------------
Label_2_014C66E6:
 BYTE   N06  Dn2  v100
 BYTE   W06
 BYTE   N06
 BYTE   W06
 BYTE   N06
 BYTE   W06
 BYTE   Dn3
 BYTE   W06
 BYTE   Dn2
 BYTE   W06
 BYTE   Cn3
 BYTE   W06
 BYTE   Dn2
 BYTE   W12
 BYTE   N06
 BYTE   W06
 BYTE   Bn2
 BYTE   W06
 BYTE   Dn2
 BYTE   W12
 BYTE   As2
 BYTE   W06
 BYTE   Dn2
 BYTE   W06
 BYTE   N06
 BYTE   W06
 BYTE   An2
 BYTE   W06
 BYTE   PEND 
// 002   ----------------------------------------
Label_2_014C6705:
 BYTE   N06  Dn2  v100
 BYTE   W06
 BYTE   N06
 BYTE   W06
 BYTE   N06
 BYTE   W06
 BYTE   Dn3
 BYTE   W06
 BYTE   Dn2
 BYTE   W06
 BYTE   Cn3
 BYTE   W06
 BYTE   Dn2
 BYTE   W12
 BYTE   N06
 BYTE   W06
 BYTE   Bn2
 BYTE   W06
 BYTE   Dn2
 BYTE   W12
 BYTE   Cn3
 BYTE   W06
 BYTE   Dn2
 BYTE   W06
 BYTE   N06
 BYTE   W06
 BYTE   Cs3
 BYTE   W06
 BYTE   PEND 
// 003   ----------------------------------------
 BYTE   Dn2
 BYTE   W06
 BYTE   N18  Fn2
 BYTE   N18  Cn3
 BYTE   N18  Fn3
 BYTE   W18
 BYTE   Gn2
 BYTE   N18  Dn3
 BYTE   N18  Gn3
 BYTE   W18
 BYTE   Gs2
 BYTE   N18  Ds3
 BYTE   N18  Gn3
 BYTE   W30
 BYTE   N06  En3  v028
 BYTE   N06  Gs3
 BYTE   W06
 BYTE   Ds3  v044
 BYTE   N06  Gn3
 BYTE   W06
 BYTE   En3  v064
 BYTE   N06  Gs3
 BYTE   W06
 BYTE   Ds3  v080
 BYTE   N06  Gn3
 BYTE   W06
// 004   ----------------------------------------
 BYTE   En3  v096
 BYTE   N06  Gs3
 BYTE   W06
 BYTE   Dn2  v100
 BYTE   W06
 BYTE   N06
 BYTE   W06
 BYTE   Dn3
 BYTE   W06
 BYTE   Dn2
 BYTE   W06
 BYTE   Cn3
 BYTE   W06
 BYTE   Dn2
 BYTE   W12
 BYTE   N06
 BYTE   W06
 BYTE   Bn2
 BYTE   W06
 BYTE   Dn2
 BYTE   W12
 BYTE   Cn3
 BYTE   W06
 BYTE   Dn2
 BYTE   W06
 BYTE   N06
 BYTE   W06
 BYTE   Cs3
 BYTE   W06
 BYTE   PATT
  POIN2 Label_2_014C66E6
 BYTE   PATT
  POIN2 Label_2_014C6705
// 005   ----------------------------------------
 BYTE   N06  Dn2  v100
 BYTE   W06
 BYTE   An2
 BYTE   N06  Fn3
 BYTE   W06
 BYTE   As2
 BYTE   N06  Gn3
 BYTE   W06
 BYTE   Cn3
 BYTE   N06  An3
 BYTE   W06
 BYTE   As2
 BYTE   N06  Gn3
 BYTE   W18
 BYTE   As2
 BYTE   N06  Gn3
 BYTE   W06
 BYTE   Cn3
 BYTE   N06  An3
 BYTE   W06
 BYTE   Dn3
 BYTE   N06  Bn3
 BYTE   W06
 BYTE   Cn3
 BYTE   N06  An3
 BYTE   W18
 BYTE   N30  Cn4
 BYTE   N30  Ds4
 BYTE   W18
// 006   ----------------------------------------
 BYTE   W12
 BYTE   N06  Cs4  v096
 BYTE   N06  En4
 BYTE   W06
 BYTE   Cn4  v088
 BYTE   N06  Ds4
 BYTE   W06
 BYTE   Cs4  v076
 BYTE   N06  En4
 BYTE   W06
 BYTE   Cn4  v068
 BYTE   N06  Ds4
 BYTE   W06
 BYTE   Cs4  v056
 BYTE   N06  En4
 BYTE   W06
 BYTE   Cn4  v048
 BYTE   N06  Ds4
 BYTE   W06
 BYTE   Cs4  v036
 BYTE   N06  En4
 BYTE   W06
 BYTE   Cn4  v028
 BYTE   N06  Ds4
 BYTE   W06
 BYTE   Cs4  v016
 BYTE   N06  En4
 BYTE   W36
// 007   ----------------------------------------
Label_2_014C67D0:
 BYTE   W18
 BYTE   N06  Dn3  v100
 BYTE   W36
 BYTE   Gn2
 BYTE   W06
 BYTE   An2
 BYTE   W06
 BYTE   Cn3
 BYTE   W12
 BYTE   Fn3
 BYTE   W12
 BYTE   Dn3
 BYTE   W06
 BYTE   PEND 
// 008   ----------------------------------------
Label_2_014C67E0:
 BYTE   W06
 BYTE   N06  Dn3  v100
 BYTE   W06
 BYTE   Cn3
 BYTE   W06
 BYTE   An2
 BYTE   W06
 BYTE   Cn3
 BYTE   W06
 BYTE   An2
 BYTE   W06
 BYTE   Gs2
 BYTE   W06
 BYTE   Gn2
 BYTE   W06
 BYTE   Fn2
 BYTE   W48
 BYTE   PEND 
 BYTE   PATT
  POIN2 Label_2_014C67D0
// 009   ----------------------------------------
 BYTE   W06
 BYTE   N18  Fn2  v100
 BYTE   N18  Cn3
 BYTE   N18  Fn3
 BYTE   W18
 BYTE   Gn2
 BYTE   N18  Dn3
 BYTE   N18  Gn3
 BYTE   W18
 BYTE   Gs2
 BYTE   N18  Ds3
 BYTE   N18  Gn3
 BYTE   W30
 BYTE   N06  En3  v028
 BYTE   N06  Gs3
 BYTE   W06
 BYTE   Ds3  v044
 BYTE   N06  Gn3
 BYTE   W06
 BYTE   En3  v064
 BYTE   N06  Gs3
 BYTE   W06
 BYTE   Ds3  v080
 BYTE   N06  Gn3
 BYTE   W06
// 010   ----------------------------------------
 BYTE   En3  v096
 BYTE   N06  Gs3
 BYTE   W18
 BYTE   Dn3  v100
 BYTE   W36
 BYTE   Gn2
 BYTE   W06
 BYTE   An2
 BYTE   W06
 BYTE   Cn3
 BYTE   W12
 BYTE   Fn3
 BYTE   W12
 BYTE   Dn3
 BYTE   W06
 BYTE   PATT
  POIN2 Label_2_014C67E0
 BYTE   PATT
  POIN2 Label_2_014C67D0
// 011   ----------------------------------------
 BYTE   W06
 BYTE   N06  An2  v100
 BYTE   N06  Cn3
 BYTE   N06  Fn3
 BYTE   W18
 BYTE   N24  Cn3
 BYTE   N24  Ds3
 BYTE   N24  Gn3
 BYTE   W30
 BYTE   N06  Ds3
 BYTE   N06  Fs3
 BYTE   N06  Bn3
 BYTE   W18
 BYTE   N24  Fs3
 BYTE   N24  An3
 BYTE   N24  Cs4
 BYTE   W24
// 012   ----------------------------------------
Label_2_014C685D:
 BYTE   W06
 BYTE   N06  Cn3  v100
 BYTE   W06
 BYTE   Dn3
 BYTE   W06
 BYTE   Fn3
 BYTE   W12
 BYTE   Dn3
 BYTE   W12
 BYTE   Cn3
 BYTE   W06
 BYTE   Dn3
 BYTE   W06
 BYTE   Cn4
 BYTE   W12
 BYTE   N24  Bn3
 BYTE   W30
 BYTE   PEND 
// 013   ----------------------------------------
 BYTE   W06
 BYTE   N06  Gs3
 BYTE   W06
 BYTE   Fs3
 BYTE   W06
 BYTE   Gs3
 BYTE   W06
 BYTE   N18  En3
 BYTE   W18
 BYTE   N06  Gs3
 BYTE   W06
 BYTE   Fs3
 BYTE   W06
 BYTE   Gs3
 BYTE   W06
 BYTE   N30  Ds4
 BYTE   W36
 BYTE   PATT
  POIN2 Label_2_014C685D
// 014   ----------------------------------------
 BYTE   W06
 BYTE   N06  As3  v100
 BYTE   W06
 BYTE   Gs3
 BYTE   W06
 BYTE   As3
 BYTE   W06
 BYTE   N18  En3
 BYTE   W18
 BYTE   N06  As3
 BYTE   W06
 BYTE   Gs3
 BYTE   W06
 BYTE   As3
 BYTE   W06
 BYTE   N30  Ds4
 BYTE   W36
// 015   ----------------------------------------
Label_2_014C68A2:
 BYTE   W12
 BYTE   N06  Cs4  v100
 BYTE   N06  Fn4
 BYTE   W06
 BYTE   Cs4
 BYTE   N06  Fn4
 BYTE   W12
 BYTE   Cs4
 BYTE   N06  Fn4
 BYTE   W06
 BYTE   Cs4
 BYTE   N06  Fn4
 BYTE   W12
 BYTE   N12  Bn3
 BYTE   N12  Ds4
 BYTE   W12
 BYTE   N06  Bn3
 BYTE   N06  Ds4
 BYTE   W06
 BYTE   Cs4
 BYTE   N06  Fn4
 BYTE   W30
 BYTE   PEND 
// 016   ----------------------------------------
Label_2_014C68C4:
 BYTE   W06
 BYTE   N06  Cs4  v100
 BYTE   N06  Fn4
 BYTE   W06
 BYTE   Cs4
 BYTE   N06  Fn4
 BYTE   W18
 BYTE   En4
 BYTE   N06  Gs4
 BYTE   W06
 BYTE   En4
 BYTE   N06  Gs4
 BYTE   W12
 BYTE   Cs4
 BYTE   N06  Fn4
 BYTE   W48
 BYTE   PEND 
 BYTE   PATT
  POIN2 Label_2_014C68A2
// 017   ----------------------------------------
Label_2_014C68E1:
 BYTE   W06
 BYTE   N06  Fs3  v100
 BYTE   N06  Fs4
 BYTE   W06
 BYTE   Dn3
 BYTE   N06  Dn4
 BYTE   W06
 BYTE   As2
 BYTE   N06  As3
 BYTE   W06
 BYTE   Fs2
 BYTE   N06  Fs3
 BYTE   W06
 BYTE   Dn3
 BYTE   N06  Dn4
 BYTE   W06
 BYTE   As2
 BYTE   N06  As3
 BYTE   W06
 BYTE   Fs2
 BYTE   N06  Fs3
 BYTE   W06
 BYTE   Dn2
 BYTE   N06  Dn3
 BYTE   W06
 BYTE   As2
 BYTE   N06  As3
 BYTE   W06
 BYTE   Fs2
 BYTE   N06  Fs3
 BYTE   W06
 BYTE   Dn2
 BYTE   N06  Dn3
 BYTE   W06
 BYTE   As1
 BYTE   N06  As2
 BYTE   W06
 BYTE   Fs2
 BYTE   N06  Fs3
 BYTE   W06
 BYTE   Dn2
 BYTE   N06  Dn3
 BYTE   W06
 BYTE   As1
 BYTE   N06  As2
 BYTE   W06
 BYTE   PEND 
// 018   ----------------------------------------
 BYTE   Fs1
 BYTE   N06  Fs2
 BYTE   W12
 BYTE   Cs4
 BYTE   N06  Fn4
 BYTE   W06
 BYTE   Cs4
 BYTE   N06  Fn4
 BYTE   W12
 BYTE   Cs4
 BYTE   N06  Fn4
 BYTE   W06
 BYTE   Cs4
 BYTE   N06  Fn4
 BYTE   W12
 BYTE   N12  Bn3
 BYTE   N12  Ds4
 BYTE   W12
 BYTE   N06  Bn3
 BYTE   N06  Ds4
 BYTE   W06
 BYTE   Cs4
 BYTE   N06  Fn4
 BYTE   W30
 BYTE   PATT
  POIN2 Label_2_014C68C4
 BYTE   PATT
  POIN2 Label_2_014C68A2
 BYTE   PATT
  POIN2 Label_2_014C68E1
// 019   ----------------------------------------
 BYTE   GoTo
  POIN2 Label_2_014C66BE
// 020   ----------------------------------------
 BYTE   BEND   c_v+0
 BYTE   FINE

//**************** Track 4 (Midi-Chn.3) ****************//

PokemonMDExplorersAmpPlainsRandomWizard_004:
// 000   ----------------------------------------
 BYTE   KEYSH   PokemonMDExplorersAmpPlainsRandomWizard_key+0
Label_3_014C6966:
 BYTE   VOICE   80
 BYTE   PAN   c_v+63
 BYTE   VOL   10*PokemonMDExplorersAmpPlainsRandomWizard_mvl/mxv
 BYTE   PAN   c_v+63
 BYTE   VOL   10*PokemonMDExplorersAmpPlainsRandomWizard_mvl/mxv
 BYTE   PAN   c_v+63
 BYTE   VOL   10*PokemonMDExplorersAmpPlainsRandomWizard_mvl/mxv
 BYTE   PAN   c_v+63
 BYTE   VOL   10*PokemonMDExplorersAmpPlainsRandomWizard_mvl/mxv
 BYTE   BEND   c_v+0
 BYTE   W12
 BYTE   N06  Dn2  v100
 BYTE   W06
 BYTE   N06
 BYTE   W06
 BYTE   Dn3
 BYTE   W06
 BYTE   Dn2
 BYTE   W06
 BYTE   Cn3
 BYTE   W06
 BYTE   Dn2
 BYTE   W12
 BYTE   N06
 BYTE   W06
 BYTE   Bn2
 BYTE   W06
 BYTE   Dn2
 BYTE   W12
 BYTE   Cn3
 BYTE   W06
 BYTE   Dn2
 BYTE   W06
 BYTE   N06
 BYTE   W06
// 001   ----------------------------------------
Label_3_014C6995:
 BYTE   N06  Cs3  v100
 BYTE   W06
 BYTE   Dn2
 BYTE   W06
 BYTE   N06
 BYTE   W06
 BYTE   N06
 BYTE   W06
 BYTE   Dn3
 BYTE   W06
 BYTE   Dn2
 BYTE   W06
 BYTE   Cn3
 BYTE   W06
 BYTE   Dn2
 BYTE   W12
 BYTE   N06
 BYTE   W06
 BYTE   Bn2
 BYTE   W06
 BYTE   Dn2
 BYTE   W12
 BYTE   As2
 BYTE   W06
 BYTE   Dn2
 BYTE   W06
 BYTE   N06
 BYTE   W06
 BYTE   PEND 
// 002   ----------------------------------------
Label_3_014C69B4:
 BYTE   N06  An2  v100
 BYTE   W06
 BYTE   Dn2
 BYTE   W06
 BYTE   N06
 BYTE   W06
 BYTE   N06
 BYTE   W06
 BYTE   Dn3
 BYTE   W06
 BYTE   Dn2
 BYTE   W06
 BYTE   Cn3
 BYTE   W06
 BYTE   Dn2
 BYTE   W12
 BYTE   N06
 BYTE   W06
 BYTE   Bn2
 BYTE   W06
 BYTE   Dn2
 BYTE   W12
 BYTE   Cn3
 BYTE   W06
 BYTE   Dn2
 BYTE   W06
 BYTE   N06
 BYTE   W06
 BYTE   PEND 
// 003   ----------------------------------------
 BYTE   Cs3
 BYTE   W06
 BYTE   Dn2
 BYTE   W06
 BYTE   N18  Fn2
 BYTE   N18  Cn3
 BYTE   N18  Fn3
 BYTE   W18
 BYTE   Gn2
 BYTE   N18  Dn3
 BYTE   N18  Gn3
 BYTE   W18
 BYTE   Gs2
 BYTE   N18  Ds3
 BYTE   N18  Gn3
 BYTE   W30
 BYTE   N06  En3  v028
 BYTE   N06  Gs3
 BYTE   W06
 BYTE   Ds3  v044
 BYTE   N06  Gn3
 BYTE   W06
 BYTE   En3  v064
 BYTE   N06  Gs3
 BYTE   W06
// 004   ----------------------------------------
 BYTE   Ds3  v080
 BYTE   N06  Gn3
 BYTE   W06
 BYTE   En3  v096
 BYTE   N06  Gs3
 BYTE   W06
 BYTE   Dn2  v100
 BYTE   W06
 BYTE   N06
 BYTE   W06
 BYTE   Dn3
 BYTE   W06
 BYTE   Dn2
 BYTE   W06
 BYTE   Cn3
 BYTE   W06
 BYTE   Dn2
 BYTE   W12
 BYTE   N06
 BYTE   W06
 BYTE   Bn2
 BYTE   W06
 BYTE   Dn2
 BYTE   W12
 BYTE   Cn3
 BYTE   W06
 BYTE   Dn2
 BYTE   W06
 BYTE   N06
 BYTE   W06
 BYTE   PATT
  POIN2 Label_3_014C6995
 BYTE   PATT
  POIN2 Label_3_014C69B4
// 005   ----------------------------------------
 BYTE   N06  Cs3  v100
 BYTE   W06
 BYTE   Dn2
 BYTE   W06
 BYTE   An2
 BYTE   N06  Fn3
 BYTE   W06
 BYTE   As2
 BYTE   N06  Gn3
 BYTE   W06
 BYTE   Cn3
 BYTE   N06  An3
 BYTE   W06
 BYTE   As2
 BYTE   N06  Gn3
 BYTE   W18
 BYTE   As2
 BYTE   N06  Gn3
 BYTE   W06
 BYTE   Cn3
 BYTE   N06  An3
 BYTE   W06
 BYTE   Dn3
 BYTE   N06  Bn3
 BYTE   W06
 BYTE   Cn3
 BYTE   N06  An3
 BYTE   W18
 BYTE   N30  Cn4
 BYTE   N30  Ds4
 BYTE   W12
// 006   ----------------------------------------
 BYTE   W18
 BYTE   N06  Cs4  v096
 BYTE   N06  En4
 BYTE   W06
 BYTE   Cn4  v088
 BYTE   N06  Ds4
 BYTE   W06
 BYTE   Cs4  v076
 BYTE   N06  En4
 BYTE   W06
 BYTE   Cn4  v068
 BYTE   N06  Ds4
 BYTE   W06
 BYTE   Cs4  v056
 BYTE   N06  En4
 BYTE   W06
 BYTE   Cn4  v048
 BYTE   N06  Ds4
 BYTE   W06
 BYTE   Cs4  v036
 BYTE   N06  En4
 BYTE   W06
 BYTE   Cn4  v028
 BYTE   N06  Ds4
 BYTE   W06
 BYTE   Cs4  v016
 BYTE   N06  En4
 BYTE   W30
// 007   ----------------------------------------
Label_3_014C6A81:
 BYTE   W24
 BYTE   N06  Dn3  v100
 BYTE   W36
 BYTE   Gn2
 BYTE   W06
 BYTE   An2
 BYTE   W06
 BYTE   Cn3
 BYTE   W12
 BYTE   Fn3
 BYTE   W12
 BYTE   PEND 
// 008   ----------------------------------------
Label_3_014C6A8F:
 BYTE   N06  Dn3  v100
 BYTE   W12
 BYTE   N06
 BYTE   W06
 BYTE   Cn3
 BYTE   W06
 BYTE   An2
 BYTE   W06
 BYTE   Cn3
 BYTE   W06
 BYTE   An2
 BYTE   W06
 BYTE   Gs2
 BYTE   W06
 BYTE   Gn2
 BYTE   W06
 BYTE   Fn2
 BYTE   W42
 BYTE   PEND 
 BYTE   PATT
  POIN2 Label_3_014C6A81
// 009   ----------------------------------------
 BYTE   N06  Dn3  v100
 BYTE   W12
 BYTE   N18  Fn2
 BYTE   N18  Cn3
 BYTE   N18  Fn3
 BYTE   W18
 BYTE   Gn2
 BYTE   N18  Dn3
 BYTE   N18  Gn3
 BYTE   W18
 BYTE   Gs2
 BYTE   N18  Ds3
 BYTE   N18  Gn3
 BYTE   W30
 BYTE   N06  En3  v028
 BYTE   N06  Gs3
 BYTE   W06
 BYTE   Ds3  v044
 BYTE   N06  Gn3
 BYTE   W06
 BYTE   En3  v064
 BYTE   N06  Gs3
 BYTE   W06
// 010   ----------------------------------------
 BYTE   Ds3  v080
 BYTE   N06  Gn3
 BYTE   W06
 BYTE   En3  v096
 BYTE   N06  Gs3
 BYTE   W18
 BYTE   Dn3  v100
 BYTE   W36
 BYTE   Gn2
 BYTE   W06
 BYTE   An2
 BYTE   W06
 BYTE   Cn3
 BYTE   W12
 BYTE   Fn3
 BYTE   W12
 BYTE   PATT
  POIN2 Label_3_014C6A8F
 BYTE   PATT
  POIN2 Label_3_014C6A81
// 011   ----------------------------------------
 BYTE   N06  Dn3  v100
 BYTE   W12
 BYTE   An2
 BYTE   N06  Cn3
 BYTE   N06  Fn3
 BYTE   W18
 BYTE   N24  Cn3
 BYTE   N24  Ds3
 BYTE   N24  Gn3
 BYTE   W30
 BYTE   N06  Ds3
 BYTE   N06  Fs3
 BYTE   N06  Bn3
 BYTE   W18
 BYTE   N24  Fs3
 BYTE   N24  An3
 BYTE   N24  Cs4
 BYTE   W18
// 012   ----------------------------------------
Label_3_014C6B0E:
 BYTE   W12
 BYTE   N06  Cn3  v100
 BYTE   W06
 BYTE   Dn3
 BYTE   W06
 BYTE   Fn3
 BYTE   W12
 BYTE   Dn3
 BYTE   W12
 BYTE   Cn3
 BYTE   W06
 BYTE   Dn3
 BYTE   W06
 BYTE   Cn4
 BYTE   W12
 BYTE   N24  Bn3
 BYTE   W24
 BYTE   PEND 
// 013   ----------------------------------------
 BYTE   W12
 BYTE   N06  Gs3
 BYTE   W06
 BYTE   Fs3
 BYTE   W06
 BYTE   Gs3
 BYTE   W06
 BYTE   N18  En3
 BYTE   W18
 BYTE   N06  Gs3
 BYTE   W06
 BYTE   Fs3
 BYTE   W06
 BYTE   Gs3
 BYTE   W06
 BYTE   N30  Ds4
 BYTE   W30
 BYTE   PATT
  POIN2 Label_3_014C6B0E
// 014   ----------------------------------------
 BYTE   W12
 BYTE   N06  As3  v100
 BYTE   W06
 BYTE   Gs3
 BYTE   W06
 BYTE   As3
 BYTE   W06
 BYTE   N18  En3
 BYTE   W18
 BYTE   N06  As3
 BYTE   W06
 BYTE   Gs3
 BYTE   W06
 BYTE   As3
 BYTE   W06
 BYTE   N30  Ds4
 BYTE   W30
// 015   ----------------------------------------
Label_3_014C6B53:
 BYTE   W18
 BYTE   N06  Cs4  v100
 BYTE   N06  Fn4
 BYTE   W06
 BYTE   Cs4
 BYTE   N06  Fn4
 BYTE   W12
 BYTE   Cs4
 BYTE   N06  Fn4
 BYTE   W06
 BYTE   Cs4
 BYTE   N06  Fn4
 BYTE   W12
 BYTE   N12  Bn3
 BYTE   N12  Ds4
 BYTE   W12
 BYTE   N06  Bn3
 BYTE   N06  Ds4
 BYTE   W06
 BYTE   Cs4
 BYTE   N06  Fn4
 BYTE   W24
 BYTE   PEND 
// 016   ----------------------------------------
Label_3_014C6B75:
 BYTE   W12
 BYTE   N06  Cs4  v100
 BYTE   N06  Fn4
 BYTE   W06
 BYTE   Cs4
 BYTE   N06  Fn4
 BYTE   W18
 BYTE   En4
 BYTE   N06  Gs4
 BYTE   W06
 BYTE   En4
 BYTE   N06  Gs4
 BYTE   W12
 BYTE   Cs4
 BYTE   N06  Fn4
 BYTE   W42
 BYTE   PEND 
 BYTE   PATT
  POIN2 Label_3_014C6B53
// 017   ----------------------------------------
Label_3_014C6B92:
 BYTE   W12
 BYTE   N06  Fs3  v100
 BYTE   N06  Fs4
 BYTE   W06
 BYTE   Dn3
 BYTE   N06  Dn4
 BYTE   W06
 BYTE   As2
 BYTE   N06  As3
 BYTE   W06
 BYTE   Fs2
 BYTE   N06  Fs3
 BYTE   W06
 BYTE   Dn3
 BYTE   N06  Dn4
 BYTE   W06
 BYTE   As2
 BYTE   N06  As3
 BYTE   W06
 BYTE   Fs2
 BYTE   N06  Fs3
 BYTE   W06
 BYTE   Dn2
 BYTE   N06  Dn3
 BYTE   W06
 BYTE   As2
 BYTE   N06  As3
 BYTE   W06
 BYTE   Fs2
 BYTE   N06  Fs3
 BYTE   W06
 BYTE   Dn2
 BYTE   N06  Dn3
 BYTE   W06
 BYTE   As1
 BYTE   N06  As2
 BYTE   W06
 BYTE   Fs2
 BYTE   N06  Fs3
 BYTE   W06
 BYTE   Dn2
 BYTE   N06  Dn3
 BYTE   W06
 BYTE   PEND 
// 018   ----------------------------------------
 BYTE   As1
 BYTE   N06  As2
 BYTE   W06
 BYTE   Fs1
 BYTE   N06  Fs2
 BYTE   W12
 BYTE   Cs4
 BYTE   N06  Fn4
 BYTE   W06
 BYTE   Cs4
 BYTE   N06  Fn4
 BYTE   W12
 BYTE   Cs4
 BYTE   N06  Fn4
 BYTE   W06
 BYTE   Cs4
 BYTE   N06  Fn4
 BYTE   W12
 BYTE   N12  Bn3
 BYTE   N12  Ds4
 BYTE   W12
 BYTE   N06  Bn3
 BYTE   N06  Ds4
 BYTE   W06
 BYTE   Cs4
 BYTE   N06  Fn4
 BYTE   W24
 BYTE   PATT
  POIN2 Label_3_014C6B75
 BYTE   PATT
  POIN2 Label_3_014C6B53
 BYTE   PATT
  POIN2 Label_3_014C6B92
// 019   ----------------------------------------
 BYTE   GoTo
  POIN2 Label_3_014C6966
// 020   ----------------------------------------
 BYTE   BEND   c_v+0
 BYTE   FINE

//**************** Track 5 (Midi-Chn.4) ****************//

PokemonMDExplorersAmpPlainsRandomWizard_005:
// 000   ----------------------------------------
 BYTE   KEYSH   PokemonMDExplorersAmpPlainsRandomWizard_key+0
Label_4_014C6C16:
 BYTE   VOICE   81
 BYTE   PAN   c_v+0
 BYTE   VOL   22*PokemonMDExplorersAmpPlainsRandomWizard_mvl/mxv
 BYTE   PAN   c_v+0
 BYTE   VOL   22*PokemonMDExplorersAmpPlainsRandomWizard_mvl/mxv
 BYTE   PAN   c_v+0
 BYTE   VOL   22*PokemonMDExplorersAmpPlainsRandomWizard_mvl/mxv
 BYTE   PAN   c_v+0
 BYTE   VOL   22*PokemonMDExplorersAmpPlainsRandomWizard_mvl/mxv
 BYTE   BEND   c_v+0
 BYTE   W96
// 001   ----------------------------------------
 BYTE   W96
// 002   ----------------------------------------
 BYTE   W96
// 003   ----------------------------------------
 BYTE   W96
// 004   ----------------------------------------
 BYTE   W96
// 005   ----------------------------------------
 BYTE   W96
// 006   ----------------------------------------
 BYTE   W96
// 007   ----------------------------------------
 BYTE   W96
// 008   ----------------------------------------
 BYTE   W96
// 009   ----------------------------------------
Label_4_014C6C33:
 BYTE   N01  En1  v100
 BYTE   W01
 BYTE   Fn1
 BYTE   W02
 BYTE   Gn1
 BYTE   W01
 BYTE   Bn1
 BYTE   W02
 BYTE   Cn2
 BYTE   W01
 BYTE   Dn2
 BYTE   W02
 BYTE   En2
 BYTE   W01
 BYTE   Fn2
 BYTE   W02
 BYTE   N06  Fs3
 BYTE   N06  Cn4
 BYTE   N06  Fn4
 BYTE   W12
 BYTE   Fs3  v036
 BYTE   N06  Cn4
 BYTE   N06  Fn4
 BYTE   W12
 BYTE   Fs3  v012
 BYTE   N06  Cn4
 BYTE   N06  Fn4
 BYTE   W60
 BYTE   PEND 
// 010   ----------------------------------------
Label_4_014C6C5B:
 BYTE   W48
 BYTE   N12  Fn3  v100
 BYTE   N12  An3
 BYTE   N12  Cn4
 BYTE   W18
 BYTE   N30  Dn3
 BYTE   N30  Gn3
 BYTE   N30  Bn3
 BYTE   W30
 BYTE   PEND 
 BYTE   PATT
  POIN2 Label_4_014C6C33
// 011   ----------------------------------------
 BYTE   W96
 BYTE   PATT
  POIN2 Label_4_014C6C33
 BYTE   PATT
  POIN2 Label_4_014C6C5B
 BYTE   PATT
  POIN2 Label_4_014C6C33
// 012   ----------------------------------------
 BYTE   W96
// 013   ----------------------------------------
 BYTE   N07  An2  v100
 BYTE   N07  Dn3
 BYTE   N07  Fn3
 BYTE   W12
 BYTE   An2  v092
 BYTE   N07  Dn3
 BYTE   N07  Fn3
 BYTE   W12
 BYTE   An2  v080
 BYTE   N07  Dn3
 BYTE   N07  Fn3
 BYTE   W12
 BYTE   An2  v068
 BYTE   N07  Dn3
 BYTE   N07  Fn3
 BYTE   W12
 BYTE   An2  v052
 BYTE   N07  Dn3
 BYTE   N07  Fn3
 BYTE   W12
 BYTE   An2  v040
 BYTE   N07  Dn3
 BYTE   N07  Fn3
 BYTE   W12
 BYTE   An2  v028
 BYTE   N07  Dn3
 BYTE   N07  Fn3
 BYTE   W12
 BYTE   An2  v016
 BYTE   N07  Dn3
 BYTE   N07  Fn3
 BYTE   W12
// 014   ----------------------------------------
 BYTE   Gs2  v100
 BYTE   N07  Cs3
 BYTE   N07  En3
 BYTE   W12
 BYTE   Gs2  v092
 BYTE   N07  Cs3
 BYTE   N07  En3
 BYTE   W12
 BYTE   Gs2  v080
 BYTE   N07  Cs3
 BYTE   N07  En3
 BYTE   W12
 BYTE   Gs2  v068
 BYTE   N07  Cs3
 BYTE   N07  En3
 BYTE   W12
 BYTE   Gs2  v052
 BYTE   N07  Cs3
 BYTE   N07  En3
 BYTE   W12
 BYTE   Gs2  v040
 BYTE   N07  Cs3
 BYTE   N07  En3
 BYTE   W12
 BYTE   Gs2  v028
 BYTE   N07  Cs3
 BYTE   N07  En3
 BYTE   W12
 BYTE   Gs2  v016
 BYTE   N07  Cs3
 BYTE   N07  En3
 BYTE   W12
// 015   ----------------------------------------
 BYTE   W12
 BYTE   An2  v092
 BYTE   N07  Dn3
 BYTE   N07  Fn3
 BYTE   W12
 BYTE   An2  v080
 BYTE   N07  Dn3
 BYTE   N07  Fn3
 BYTE   W12
 BYTE   An2  v068
 BYTE   N07  Dn3
 BYTE   N07  Fn3
 BYTE   W12
 BYTE   An2  v052
 BYTE   N07  Dn3
 BYTE   N07  Fn3
 BYTE   W12
 BYTE   An2  v040
 BYTE   N07  Dn3
 BYTE   N07  Fn3
 BYTE   W12
 BYTE   An2  v028
 BYTE   N07  Dn3
 BYTE   N07  Fn3
 BYTE   W12
 BYTE   An2  v016
 BYTE   N07  Dn3
 BYTE   N07  Fn3
 BYTE   W12
// 016   ----------------------------------------
 BYTE   En3  v100
 BYTE   N07  Fs3
 BYTE   N07  As3
 BYTE   W12
 BYTE   En3  v064
 BYTE   N07  Fs3
 BYTE   N07  As3
 BYTE   W12
 BYTE   En3  v032
 BYTE   N07  Fs3
 BYTE   N07  As3
 BYTE   W12
 BYTE   En3  v012
 BYTE   N07  Fs3
 BYTE   N07  As3
 BYTE   W12
 BYTE   En3
 BYTE   N07  Fs3
 BYTE   N07  As3
 BYTE   W12
 BYTE   En3  v036
 BYTE   N07  Fs3
 BYTE   N07  As3
 BYTE   W12
 BYTE   En3  v064
 BYTE   N07  Fs3
 BYTE   N07  As3
 BYTE   W12
 BYTE   En3  v100
 BYTE   N07  Fs3
 BYTE   N07  As3
 BYTE   W12
// 017   ----------------------------------------
Label_4_014C6D5C:
 BYTE   W06
 BYTE   N12  Bn2  v100
 BYTE   N12  An3
 BYTE   N12  Cs4
 BYTE   W18
 BYTE   Bn2
 BYTE   N12  An3
 BYTE   N12  Cs4
 BYTE   W18
 BYTE   N18  An2
 BYTE   N18  Gn3
 BYTE   N18  Bn3
 BYTE   W18
 BYTE   N06  Bn2
 BYTE   N06  An3
 BYTE   N06  Cs4
 BYTE   W36
 BYTE   PEND 
// 018   ----------------------------------------
Label_4_014C6D7A:
 BYTE   N12  Bn2  v100
 BYTE   N12  An3
 BYTE   N12  Cs4
 BYTE   W24
 BYTE   Dn3
 BYTE   N12  Cn4
 BYTE   N12  En4
 BYTE   W18
 BYTE   N06  Bn2
 BYTE   N06  An3
 BYTE   N06  Cs4
 BYTE   W54
 BYTE   PEND 
 BYTE   PATT
  POIN2 Label_4_014C6D5C
// 019   ----------------------------------------
Label_4_014C6D95:
 BYTE   N48  Cn3  v100
 BYTE   N48  As3
 BYTE   N48  Dn4
 BYTE   W48
 BYTE   N24  Dn3
 BYTE   N24  Cn4
 BYTE   N24  En4
 BYTE   W24
 BYTE   Cn3
 BYTE   N24  As3
 BYTE   N24  Dn4
 BYTE   W24
 BYTE   PEND 
 BYTE   PATT
  POIN2 Label_4_014C6D5C
 BYTE   PATT
  POIN2 Label_4_014C6D7A
 BYTE   PATT
  POIN2 Label_4_014C6D5C
 BYTE   PATT
  POIN2 Label_4_014C6D95
// 020   ----------------------------------------
 BYTE   GoTo
  POIN2 Label_4_014C6C16
// 021   ----------------------------------------
 BYTE   BEND   c_v+0
 BYTE   FINE

//**************** Track 6 (Midi-Chn.5) ****************//

PokemonMDExplorersAmpPlainsRandomWizard_006:
// 000   ----------------------------------------
 BYTE   KEYSH   PokemonMDExplorersAmpPlainsRandomWizard_key+0
Label_5_014C6DD2:
 BYTE   VOICE   114
 BYTE   PAN   c_v+0
 BYTE   VOL   23*PokemonMDExplorersAmpPlainsRandomWizard_mvl/mxv
 BYTE   PAN   c_v+0
 BYTE   VOL   23*PokemonMDExplorersAmpPlainsRandomWizard_mvl/mxv
 BYTE   PAN   c_v+0
 BYTE   VOL   23*PokemonMDExplorersAmpPlainsRandomWizard_mvl/mxv
 BYTE   PAN   c_v+0
 BYTE   VOL   23*PokemonMDExplorersAmpPlainsRandomWizard_mvl/mxv
 BYTE   BEND   c_v+0
 BYTE   N03  Fs2  v004
 BYTE   N03  Fs3
 BYTE   W96
// 001   ----------------------------------------
 BYTE   W96
// 002   ----------------------------------------
 BYTE   W96
// 003   ----------------------------------------
 BYTE   W96
// 004   ----------------------------------------
 BYTE   W96
// 005   ----------------------------------------
 BYTE   W96
// 006   ----------------------------------------
 BYTE   W96
// 007   ----------------------------------------
 BYTE   W96
// 008   ----------------------------------------
 BYTE   W96
// 009   ----------------------------------------
 BYTE   W96
// 010   ----------------------------------------
 BYTE   W96
// 011   ----------------------------------------
 BYTE   W96
// 012   ----------------------------------------
 BYTE   W96
// 013   ----------------------------------------
 BYTE   W96
// 014   ----------------------------------------
 BYTE   W96
// 015   ----------------------------------------
 BYTE   W96
// 016   ----------------------------------------
 BYTE   W96
// 017   ----------------------------------------
 BYTE   W96
// 018   ----------------------------------------
 BYTE   W96
// 019   ----------------------------------------
 BYTE   W96
// 020   ----------------------------------------
 BYTE   W96
// 021   ----------------------------------------
 BYTE   W96
// 022   ----------------------------------------
 BYTE   W96
// 023   ----------------------------------------
 BYTE   W96
// 024   ----------------------------------------
 BYTE   Fs4  v100
 BYTE   N03  Fs5
 BYTE   W06
 BYTE   Dn4
 BYTE   N03  Fs4  v004
 BYTE   N03  Dn5  v100
 BYTE   N03  Fs5  v004
 BYTE   W06
 BYTE   As3  v100
 BYTE   N03  Dn4  v004
 BYTE   N03  As4  v100
 BYTE   N03  Dn5  v004
 BYTE   W06
 BYTE   Fs3  v100
 BYTE   N03  As3  v004
 BYTE   N03  Fs4  v100
 BYTE   N03  As4  v004
 BYTE   W06
 BYTE   Fs3
 BYTE   N03  Dn4  v100
 BYTE   N03  Fs4  v004
 BYTE   N03  Dn5  v100
 BYTE   W06
 BYTE   As3
 BYTE   N03  Dn4  v004
 BYTE   N03  As4  v100
 BYTE   N03  Dn5  v004
 BYTE   W06
 BYTE   Fs3  v100
 BYTE   N03  As3  v004
 BYTE   N03  Fs4  v100
 BYTE   N03  As4  v004
 BYTE   W06
 BYTE   Dn3  v100
 BYTE   N03  Fs3  v004
 BYTE   N03  Dn4  v100
 BYTE   N03  Fs4  v004
 BYTE   W06
 BYTE   Dn3
 BYTE   N03  As3  v100
 BYTE   N03  Dn4  v004
 BYTE   N03  As4  v100
 BYTE   W06
 BYTE   Fs3
 BYTE   N03  As3  v004
 BYTE   N03  Fs4  v100
 BYTE   N03  As4  v004
 BYTE   W06
 BYTE   Dn3  v100
 BYTE   N03  Fs3  v004
 BYTE   N03  Dn4  v100
 BYTE   N03  Fs4  v004
 BYTE   W06
 BYTE   As2  v100
 BYTE   N03  Dn3  v004
 BYTE   N03  As3  v100
 BYTE   N03  Dn4  v004
 BYTE   W06
 BYTE   As2
 BYTE   N03  Fs3  v100
 BYTE   N03  As3  v004
 BYTE   N03  Fs4  v100
 BYTE   W06
 BYTE   Dn3
 BYTE   N03  Fs3  v004
 BYTE   N03  Dn4  v100
 BYTE   N03  Fs4  v004
 BYTE   W06
 BYTE   As2  v100
 BYTE   N03  Dn3  v004
 BYTE   N03  As3  v100
 BYTE   N03  Dn4  v004
 BYTE   W06
 BYTE   Fs2  v100
 BYTE   N03  As2  v004
 BYTE   N03  Fs3  v100
 BYTE   N03  As3  v004
 BYTE   W06
// 025   ----------------------------------------
 BYTE   Fs2
 BYTE   N03  Fs3
 BYTE   W96
// 026   ----------------------------------------
 BYTE   W96
// 027   ----------------------------------------
 BYTE   W96
// 028   ----------------------------------------
 BYTE   Fs4  v100
 BYTE   N03  Fs5
 BYTE   W06
 BYTE   Dn4
 BYTE   N03  Fs4  v004
 BYTE   N03  Dn5  v100
 BYTE   N03  Fs5  v004
 BYTE   W06
 BYTE   As3  v100
 BYTE   N03  Dn4  v004
 BYTE   N03  As4  v100
 BYTE   N03  Dn5  v004
 BYTE   W06
 BYTE   Fs3  v100
 BYTE   N03  As3  v004
 BYTE   N03  Fs4  v100
 BYTE   N03  As4  v004
 BYTE   W06
 BYTE   Fs3
 BYTE   N03  Dn4  v100
 BYTE   N03  Fs4  v004
 BYTE   N03  Dn5  v100
 BYTE   W06
 BYTE   As3
 BYTE   N03  Dn4  v004
 BYTE   N03  As4  v100
 BYTE   N03  Dn5  v004
 BYTE   W06
 BYTE   Fs3  v100
 BYTE   N03  As3  v004
 BYTE   N03  Fs4  v100
 BYTE   N03  As4  v004
 BYTE   W06
 BYTE   Dn3  v100
 BYTE   N03  Fs3  v004
 BYTE   N03  Dn4  v100
 BYTE   N03  Fs4  v004
 BYTE   W06
 BYTE   Dn3
 BYTE   N03  As3  v100
 BYTE   N03  Dn4  v004
 BYTE   N03  As4  v100
 BYTE   W06
 BYTE   Fs3
 BYTE   N03  As3  v004
 BYTE   N03  Fs4  v100
 BYTE   N03  As4  v004
 BYTE   W06
 BYTE   Dn3  v100
 BYTE   N03  Fs3  v004
 BYTE   N03  Dn4  v100
 BYTE   N03  Fs4  v004
 BYTE   W06
 BYTE   As2  v100
 BYTE   N03  Dn3  v004
 BYTE   N03  As3  v100
 BYTE   N03  Dn4  v004
 BYTE   W06
 BYTE   As2
 BYTE   N03  Fs3  v100
 BYTE   N03  As3  v004
 BYTE   N03  Fs4  v100
 BYTE   W06
 BYTE   Dn3
 BYTE   N03  Fs3  v004
 BYTE   N03  Dn4  v100
 BYTE   N03  Fs4  v004
 BYTE   W06
 BYTE   As2  v100
 BYTE   N03  Dn3  v004
 BYTE   N03  As3  v100
 BYTE   N03  Dn4  v004
 BYTE   W06
 BYTE   Fs2  v100
 BYTE   N03  As2  v004
 BYTE   N03  Fs3  v100
 BYTE   N03  As3  v004
 BYTE   W03
 BYTE   BEND   c_v+0
 BYTE   W03
// 029   ----------------------------------------
 BYTE   GoTo
  POIN2 Label_5_014C6DD2
 BYTE   FINE

//**************** Track 7 (Midi-Chn.6) ****************//

PokemonMDExplorersAmpPlainsRandomWizard_007:
// 000   ----------------------------------------
 BYTE   KEYSH   PokemonMDExplorersAmpPlainsRandomWizard_key+0
Label_6_014C6F82:
 BYTE   VOICE   60
 BYTE   PAN   c_v+38
 BYTE   VOL   16*PokemonMDExplorersAmpPlainsRandomWizard_mvl/mxv
 BYTE   PAN   c_v+38
 BYTE   VOL   16*PokemonMDExplorersAmpPlainsRandomWizard_mvl/mxv
 BYTE   PAN   c_v+38
 BYTE   VOL   16*PokemonMDExplorersAmpPlainsRandomWizard_mvl/mxv
 BYTE   PAN   c_v+38
 BYTE   VOL   16*PokemonMDExplorersAmpPlainsRandomWizard_mvl/mxv
 BYTE   BEND   c_v+0
 BYTE   N03  Dn4  v100
 BYTE   W06
 BYTE   Dn5
 BYTE   W06
 BYTE   Cn5
 BYTE   W06
 BYTE   Dn5
 BYTE   W06
 BYTE   An4
 BYTE   W06
 BYTE   Cn5
 BYTE   W06
 BYTE   Gn4
 BYTE   W06
 BYTE   An4
 BYTE   W06
 BYTE   Dn4
 BYTE   W06
 BYTE   Cn5
 BYTE   W06
 BYTE   Dn4
 BYTE   W06
 BYTE   Dn5
 BYTE   W06
 BYTE   Dn4
 BYTE   W06
 BYTE   Fn5
 BYTE   W06
 BYTE   Dn4
 BYTE   W06
 BYTE   Dn5
 BYTE   W06
// 001   ----------------------------------------
Label_6_014C6FB8:
 BYTE   N03  Dn4  v100
 BYTE   W06
 BYTE   Dn5
 BYTE   W06
 BYTE   Cn5
 BYTE   W06
 BYTE   Dn5
 BYTE   W06
 BYTE   An4
 BYTE   W06
 BYTE   Cn5
 BYTE   W06
 BYTE   Gn4
 BYTE   W06
 BYTE   An4
 BYTE   W06
 BYTE   Dn4
 BYTE   W06
 BYTE   Cn5
 BYTE   W06
 BYTE   Dn4
 BYTE   W06
 BYTE   Dn5
 BYTE   W06
 BYTE   Dn4
 BYTE   W06
 BYTE   Gn5
 BYTE   W06
 BYTE   Dn4
 BYTE   W06
 BYTE   Gs5
 BYTE   W06
 BYTE   PEND 
// 002   ----------------------------------------
Label_6_014C6FDB:
 BYTE   N03  Dn4  v100
 BYTE   W06
 BYTE   Dn5
 BYTE   W06
 BYTE   Cn5
 BYTE   W06
 BYTE   Dn5
 BYTE   W06
 BYTE   An4
 BYTE   W06
 BYTE   Cn5
 BYTE   W06
 BYTE   Gn4
 BYTE   W06
 BYTE   An4
 BYTE   W06
 BYTE   Dn4
 BYTE   W06
 BYTE   Cn5
 BYTE   W06
 BYTE   Dn4
 BYTE   W06
 BYTE   Dn5
 BYTE   W06
 BYTE   Dn4
 BYTE   W06
 BYTE   Fn5
 BYTE   W06
 BYTE   Dn4
 BYTE   W06
 BYTE   Dn5
 BYTE   W06
 BYTE   PEND 
// 003   ----------------------------------------
 BYTE   W96
 BYTE   PATT
  POIN2 Label_6_014C6FDB
 BYTE   PATT
  POIN2 Label_6_014C6FB8
 BYTE   PATT
  POIN2 Label_6_014C6FDB
// 004   ----------------------------------------
 BYTE   W96
// 005   ----------------------------------------
 BYTE   W96
// 006   ----------------------------------------
Label_6_014C7010:
 BYTE   N03  Dn5  v100
 BYTE   W06
 BYTE   Dn6
 BYTE   W06
 BYTE   N03
 BYTE   W06
 BYTE   Dn5
 BYTE   W06
 BYTE   Dn6
 BYTE   W06
 BYTE   Dn5
 BYTE   W06
 BYTE   Cn6
 BYTE   W06
 BYTE   Dn6
 BYTE   W06
 BYTE   Dn5
 BYTE   W06
 BYTE   Dn6
 BYTE   W06
 BYTE   N03
 BYTE   W06
 BYTE   Dn5
 BYTE   W06
 BYTE   Dn6
 BYTE   W06
 BYTE   Dn5
 BYTE   W06
 BYTE   Cn6
 BYTE   W06
 BYTE   Dn6
 BYTE   W06
 BYTE   PEND 
// 007   ----------------------------------------
Label_6_014C7033:
 BYTE   N03  Dn5  v100
 BYTE   W06
 BYTE   Dn6
 BYTE   W06
 BYTE   N03
 BYTE   W06
 BYTE   Dn5
 BYTE   W06
 BYTE   Cn6
 BYTE   W06
 BYTE   Dn5
 BYTE   W06
 BYTE   Dn6
 BYTE   W06
 BYTE   Dn5
 BYTE   W06
 BYTE   En5
 BYTE   N03  Cn6
 BYTE   W18
 BYTE   Dn5
 BYTE   N03  Bn5
 BYTE   W30
 BYTE   PEND 
 BYTE   PATT
  POIN2 Label_6_014C7010
// 008   ----------------------------------------
 BYTE   N03  An4  v100
 BYTE   N03  Fn5
 BYTE   W18
 BYTE   Bn4
 BYTE   N03  Gn5
 BYTE   W18
 BYTE   Cn5
 BYTE   N03  Gn5
 BYTE   W60
 BYTE   PATT
  POIN2 Label_6_014C7010
 BYTE   PATT
  POIN2 Label_6_014C7033
 BYTE   PATT
  POIN2 Label_6_014C7010
// 009   ----------------------------------------
 BYTE   W96
// 010   ----------------------------------------
 BYTE   W96
// 011   ----------------------------------------
 BYTE   W96
// 012   ----------------------------------------
 BYTE   W96
// 013   ----------------------------------------
 BYTE   W96
// 014   ----------------------------------------
Label_6_014C7075:
 BYTE   N03  Bn2  v100
 BYTE   W06
 BYTE   Bn3
 BYTE   W06
 BYTE   N03
 BYTE   W06
 BYTE   Bn2
 BYTE   W06
 BYTE   Bn3
 BYTE   W06
 BYTE   Bn2
 BYTE   W06
 BYTE   Bn3
 BYTE   W06
 BYTE   An3
 BYTE   W06
 BYTE   Bn2
 BYTE   W06
 BYTE   An3
 BYTE   W06
 BYTE   Bn3
 BYTE   W06
 BYTE   Bn2
 BYTE   W06
 BYTE   Bn3
 BYTE   W06
 BYTE   Bn2
 BYTE   W06
 BYTE   Fs3
 BYTE   W06
 BYTE   An3
 BYTE   W06
 BYTE   PEND 
// 015   ----------------------------------------
Label_6_014C7098:
 BYTE   N03  Bn2  v100
 BYTE   W06
 BYTE   An3
 BYTE   W06
 BYTE   Bn2
 BYTE   W06
 BYTE   Bn3
 BYTE   W06
 BYTE   Bn2
 BYTE   W06
 BYTE   Bn3
 BYTE   W06
 BYTE   Bn2
 BYTE   W06
 BYTE   Bn3
 BYTE   W06
 BYTE   Bn2
 BYTE   W06
 BYTE   An3
 BYTE   W06
 BYTE   Bn2
 BYTE   W06
 BYTE   Bn3
 BYTE   W06
 BYTE   Bn2
 BYTE   W06
 BYTE   Dn4
 BYTE   W06
 BYTE   Bn2
 BYTE   W06
 BYTE   Bn3
 BYTE   W06
 BYTE   PEND 
 BYTE   PATT
  POIN2 Label_6_014C7075
// 016   ----------------------------------------
 BYTE   W96
 BYTE   PATT
  POIN2 Label_6_014C7075
 BYTE   PATT
  POIN2 Label_6_014C7098
// 017   ----------------------------------------
 BYTE   N03  Bn2  v100
 BYTE   W06
 BYTE   Bn3
 BYTE   W06
 BYTE   N03
 BYTE   W06
 BYTE   Bn2
 BYTE   W06
 BYTE   Bn3
 BYTE   W06
 BYTE   Bn2
 BYTE   W06
 BYTE   Bn3
 BYTE   W06
 BYTE   An3
 BYTE   W06
 BYTE   Bn2
 BYTE   W06
 BYTE   An3
 BYTE   W06
 BYTE   Bn3
 BYTE   W06
 BYTE   Bn2
 BYTE   W06
 BYTE   Bn3
 BYTE   W06
 BYTE   Bn2
 BYTE   W06
 BYTE   Fs3
 BYTE   W06
 BYTE   An3
 BYTE   W03
 BYTE   BEND   c_v+0
 BYTE   W03
// 018   ----------------------------------------
 BYTE   W96
// 019   ----------------------------------------
 BYTE   GoTo
  POIN2 Label_6_014C6F82
 BYTE   FINE

//**************** Track 8 (Midi-Chn.7) ****************//

PokemonMDExplorersAmpPlainsRandomWizard_008:
// 000   ----------------------------------------
 BYTE   KEYSH   PokemonMDExplorersAmpPlainsRandomWizard_key+0
Label_7_014C7106:
 BYTE   VOICE   127
 BYTE   PAN   c_v+0
 BYTE   VOL   34*PokemonMDExplorersAmpPlainsRandomWizard_mvl/mxv
 BYTE   PAN   c_v+0
 BYTE   VOL   34*PokemonMDExplorersAmpPlainsRandomWizard_mvl/mxv
 BYTE   PAN   c_v+0
 BYTE   VOL   34*PokemonMDExplorersAmpPlainsRandomWizard_mvl/mxv
 BYTE   PAN   c_v+0
 BYTE   VOL   34*PokemonMDExplorersAmpPlainsRandomWizard_mvl/mxv
 BYTE   BEND   c_v+0
 BYTE   N06  Cn1  v100
 BYTE   N06  Gs1
 BYTE   W06
 BYTE   Gs1  v080
 BYTE   W06
 BYTE   Gs1  v068
 BYTE   W06
 BYTE   Gs1  v080
 BYTE   W06
 BYTE   En1  v100
 BYTE   N06  Gs1
 BYTE   W06
 BYTE   Gs1  v080
 BYTE   W06
 BYTE   Gs1  v056
 BYTE   W06
 BYTE   Cn1  v100
 BYTE   N06  Gs1
 BYTE   W06
 BYTE   Gs1  v080
 BYTE   W06
 BYTE   Gs1  v068
 BYTE   W06
 BYTE   Cn1  v100
 BYTE   N06  Gs1
 BYTE   W06
 BYTE   Gs1  v080
 BYTE   W06
 BYTE   En1  v100
 BYTE   N06  Gs1  v056
 BYTE   W06
 BYTE   Gs1  v080
 BYTE   W06
 BYTE   Gs1  v100
 BYTE   W06
 BYTE   Gs1  v080
 BYTE   W06
// 001   ----------------------------------------
Label_7_014C7156:
 BYTE   N06  Cn1  v100
 BYTE   N06  Gs1  v056
 BYTE   W06
 BYTE   Gs1  v080
 BYTE   W06
 BYTE   Gs1  v100
 BYTE   W06
 BYTE   Gs1  v080
 BYTE   W06
 BYTE   En1  v100
 BYTE   N06  Gs1
 BYTE   W06
 BYTE   Gs1  v080
 BYTE   W06
 BYTE   Gs1  v056
 BYTE   W06
 BYTE   Cn1  v100
 BYTE   N06  Gs1  v068
 BYTE   W06
 BYTE   Gs1  v100
 BYTE   W06
 BYTE   Gs1  v080
 BYTE   W06
 BYTE   Cn1  v100
 BYTE   N06  Gs1
 BYTE   W06
 BYTE   Gs1  v068
 BYTE   W06
 BYTE   En1  v100
 BYTE   N06  Gs1  v056
 BYTE   W06
 BYTE   Gs1  v080
 BYTE   W06
 BYTE   Cn1  v100
 BYTE   N06  Gs1
 BYTE   W06
 BYTE   Gs1  v080
 BYTE   W06
 BYTE   PEND 
// 002   ----------------------------------------
Label_7_014C7197:
 BYTE   N06  Cn1  v100
 BYTE   N06  Gs1
 BYTE   W06
 BYTE   Gs1  v080
 BYTE   W06
 BYTE   Gs1  v068
 BYTE   W06
 BYTE   Gs1  v080
 BYTE   W06
 BYTE   En1  v100
 BYTE   N06  Gs1
 BYTE   W06
 BYTE   Gs1  v080
 BYTE   W06
 BYTE   Gs1  v056
 BYTE   W06
 BYTE   Cn1  v100
 BYTE   N06  Gs1
 BYTE   W06
 BYTE   Gs1  v080
 BYTE   W06
 BYTE   Gs1  v068
 BYTE   W06
 BYTE   Cn1  v100
 BYTE   N06  Gs1
 BYTE   W06
 BYTE   Gs1  v080
 BYTE   W06
 BYTE   En1  v100
 BYTE   N06  Gs1  v056
 BYTE   W06
 BYTE   Gs1  v080
 BYTE   W06
 BYTE   Cn1  v100
 BYTE   N06  Gs1
 BYTE   W06
 BYTE   Gs1  v080
 BYTE   W06
 BYTE   PEND 
// 003   ----------------------------------------
 BYTE   Cn1  v100
 BYTE   N06  Gs1  v056
 BYTE   W06
 BYTE   Gs1  v080
 BYTE   W06
 BYTE   Gs1  v100
 BYTE   W06
 BYTE   Cn1
 BYTE   N06  Gs1  v080
 BYTE   W06
 BYTE   En1  v100
 BYTE   N06  Gs1
 BYTE   W06
 BYTE   Gs1  v080
 BYTE   W06
 BYTE   Cn1  v100
 BYTE   N06  Gs1  v056
 BYTE   W06
 BYTE   Gs1  v068
 BYTE   W06
 BYTE   Gs1  v100
 BYTE   W06
 BYTE   Gs1  v080
 BYTE   W06
 BYTE   Cn1  v100
 BYTE   N06  Gs1
 BYTE   W06
 BYTE   Gs1  v068
 BYTE   W06
 BYTE   En1  v100
 BYTE   N06  Gs1  v056
 BYTE   W06
 BYTE   Gs1  v080
 BYTE   W06
 BYTE   Cn1  v100
 BYTE   N06  Gs1
 BYTE   W06
 BYTE   Gs1  v080
 BYTE   W06
 BYTE   PATT
  POIN2 Label_7_014C7197
 BYTE   PATT
  POIN2 Label_7_014C7156
// 004   ----------------------------------------
 BYTE   N06  Cn1  v100
 BYTE   N06  Gs1
 BYTE   W06
 BYTE   Gs1  v080
 BYTE   W06
 BYTE   Gs1  v068
 BYTE   W06
 BYTE   Gs1  v080
 BYTE   W06
 BYTE   En1  v100
 BYTE   N06  Gs1
 BYTE   W06
 BYTE   Gs1  v080
 BYTE   W06
 BYTE   Gs1  v056
 BYTE   W06
 BYTE   Cn1  v100
 BYTE   N06  Gs1
 BYTE   W06
 BYTE   Gs1  v080
 BYTE   W06
 BYTE   Gs1  v068
 BYTE   W06
 BYTE   Cn1  v100
 BYTE   N06  Gs1
 BYTE   W06
 BYTE   Gs1  v080
 BYTE   W06
 BYTE   En1  v100
 BYTE   N06  Gs1  v056
 BYTE   W06
 BYTE   En1  v100
 BYTE   N06  Gs1  v080
 BYTE   W06
 BYTE   Cn1  v100
 BYTE   N06  Gs1
 BYTE   W06
 BYTE   Gs1  v080
 BYTE   W06
// 005   ----------------------------------------
 BYTE   Cn1  v100
 BYTE   N06  Gs1  v056
 BYTE   W06
 BYTE   Gs1  v080
 BYTE   W06
 BYTE   Gs1  v100
 BYTE   W06
 BYTE   Cn1
 BYTE   N06  Gs1  v080
 BYTE   W06
 BYTE   Gs1  v100
 BYTE   W06
 BYTE   Gs1  v080
 BYTE   W06
 BYTE   Cn1  v100
 BYTE   N06  Gs1  v056
 BYTE   W06
 BYTE   Gs1  v068
 BYTE   W06
 BYTE   Gs1  v100
 BYTE   W06
 BYTE   Cn1
 BYTE   N06  Gs1  v080
 BYTE   W06
 BYTE   Gs1  v100
 BYTE   W06
 BYTE   Gs1  v068
 BYTE   W06
 BYTE   Cn1  v100
 BYTE   N06  Gs1  v056
 BYTE   W06
 BYTE   Gs1  v080
 BYTE   W06
 BYTE   Gs1  v100
 BYTE   W06
 BYTE   Gs1  v080
 BYTE   W06
// 006   ----------------------------------------
 BYTE   Cn1  v100
 BYTE   N06  Gs1
 BYTE   W06
 BYTE   Gs1  v080
 BYTE   W06
 BYTE   Gs1  v068
 BYTE   W06
 BYTE   Gs1  v080
 BYTE   W06
 BYTE   Cn1  v100
 BYTE   N06  Gs1
 BYTE   W06
 BYTE   Gs1  v080
 BYTE   W06
 BYTE   Gs1  v056
 BYTE   W06
 BYTE   Gs1  v100
 BYTE   W06
 BYTE   Cn1
 BYTE   N06  Gs1  v080
 BYTE   W06
 BYTE   Gs1  v068
 BYTE   W06
 BYTE   Cn1  v100
 BYTE   N06  Gs1
 BYTE   W06
 BYTE   Gs1  v080
 BYTE   W06
 BYTE   En1  v100
 BYTE   N06  Gs1  v056
 BYTE   W06
 BYTE   Gs1  v080
 BYTE   W06
 BYTE   Cn1  v100
 BYTE   N06  Gs1
 BYTE   W06
 BYTE   Gs1  v080
 BYTE   W06
// 007   ----------------------------------------
Label_7_014C72DC:
 BYTE   N06  Cn1  v100
 BYTE   N06  Gs1  v056
 BYTE   W06
 BYTE   Gs1  v080
 BYTE   W06
 BYTE   Gs1  v100
 BYTE   W06
 BYTE   Gs1  v080
 BYTE   W06
 BYTE   En1  v100
 BYTE   N06  Gs1
 BYTE   W06
 BYTE   Gs1  v080
 BYTE   W06
 BYTE   Gs1  v056
 BYTE   W06
 BYTE   Cn1  v100
 BYTE   N06  Gs1  v068
 BYTE   W06
 BYTE   Gs1  v100
 BYTE   W06
 BYTE   Gs1  v080
 BYTE   W06
 BYTE   Cn1  v100
 BYTE   N06  Gs1
 BYTE   W06
 BYTE   Gs1  v068
 BYTE   W06
 BYTE   En1  v100
 BYTE   N06  Gs1  v056
 BYTE   W06
 BYTE   Gs1  v080
 BYTE   W06
 BYTE   Gs1  v100
 BYTE   W06
 BYTE   Gs1  v080
 BYTE   W06
 BYTE   PEND 
// 008   ----------------------------------------
 BYTE   Cn1  v100
 BYTE   N06  Gs1
 BYTE   W06
 BYTE   Gs1  v080
 BYTE   W06
 BYTE   Gs1  v068
 BYTE   W06
 BYTE   Gs1  v080
 BYTE   W06
 BYTE   En1  v100
 BYTE   N06  Gs1
 BYTE   W06
 BYTE   Gs1  v080
 BYTE   W06
 BYTE   Cn1  v100
 BYTE   N06  Gs1  v056
 BYTE   W06
 BYTE   Gs1  v100
 BYTE   W06
 BYTE   Cn1
 BYTE   N06  Gs1  v080
 BYTE   W06
 BYTE   Gs1  v068
 BYTE   W06
 BYTE   Gs1  v100
 BYTE   W06
 BYTE   Cn1
 BYTE   N06  Gs1  v080
 BYTE   W06
 BYTE   En1  v100
 BYTE   N06  Gs1  v056
 BYTE   W06
 BYTE   Gs1  v080
 BYTE   W06
 BYTE   Cn1  v100
 BYTE   N06  Gs1
 BYTE   W06
 BYTE   Gs1  v080
 BYTE   W06
 BYTE   PATT
  POIN2 Label_7_014C7156
// 009   ----------------------------------------
 BYTE   N06  Cn1  v100
 BYTE   N06  Gs1
 BYTE   W06
 BYTE   Gs1  v080
 BYTE   W06
 BYTE   Gs1  v068
 BYTE   W06
 BYTE   Cn1  v100
 BYTE   N06  Gs1  v080
 BYTE   W06
 BYTE   En1  v100
 BYTE   N06  Gs1
 BYTE   W06
 BYTE   Gs1  v080
 BYTE   W06
 BYTE   Cn1  v100
 BYTE   N06  Gs1  v056
 BYTE   W06
 BYTE   Gs1  v100
 BYTE   W06
 BYTE   Gs1  v080
 BYTE   W06
 BYTE   Gs1  v068
 BYTE   W06
 BYTE   Cn1  v100
 BYTE   N06  Gs1
 BYTE   W06
 BYTE   Gs1  v080
 BYTE   W06
 BYTE   En1  v100
 BYTE   N06  Gs1  v056
 BYTE   W06
 BYTE   En1  v100
 BYTE   N06  Gs1  v080
 BYTE   W06
 BYTE   Cn1  v100
 BYTE   N06  Gs1
 BYTE   W06
 BYTE   Gs1  v080
 BYTE   W06
 BYTE   PATT
  POIN2 Label_7_014C7156
 BYTE   PATT
  POIN2 Label_7_014C7197
 BYTE   PATT
  POIN2 Label_7_014C7156
// 010   ----------------------------------------
 BYTE   N06  Cn1  v100
 BYTE   N06  Gs1
 BYTE   W06
 BYTE   Gs1  v080
 BYTE   W06
 BYTE   Gs1  v068
 BYTE   W06
 BYTE   Cn1  v100
 BYTE   N06  Gs1  v080
 BYTE   W06
 BYTE   En1  v100
 BYTE   N06  Gs1
 BYTE   W06
 BYTE   Gs1  v080
 BYTE   W06
 BYTE   Cn1  v100
 BYTE   N06  Gs1  v056
 BYTE   W06
 BYTE   Gs1  v100
 BYTE   W06
 BYTE   Gs1  v080
 BYTE   W06
 BYTE   Cn1  v100
 BYTE   N06  Gs1  v068
 BYTE   W06
 BYTE   Gs1  v100
 BYTE   W06
 BYTE   Gs1  v080
 BYTE   W06
 BYTE   En1  v100
 BYTE   N06  Gs1  v056
 BYTE   W06
 BYTE   Gs1  v080
 BYTE   W06
 BYTE   Cn1  v100
 BYTE   N06  Gs1
 BYTE   W06
 BYTE   Gs1  v080
 BYTE   W06
// 011   ----------------------------------------
Label_7_014C73F7:
 BYTE   N06  Cn1  v100
 BYTE   N06  Gs1  v056
 BYTE   W06
 BYTE   Gs1  v080
 BYTE   W06
 BYTE   Gs1  v100
 BYTE   W06
 BYTE   Gs1  v080
 BYTE   W06
 BYTE   Gs1  v100
 BYTE   W06
 BYTE   Gs1  v080
 BYTE   W06
 BYTE   Gs1  v056
 BYTE   W06
 BYTE   Gs1  v068
 BYTE   W06
 BYTE   Gs1  v100
 BYTE   W06
 BYTE   Gs1  v080
 BYTE   W06
 BYTE   Gs1  v100
 BYTE   W06
 BYTE   Gs1  v068
 BYTE   W06
 BYTE   Gs1  v056
 BYTE   W06
 BYTE   Gs1  v080
 BYTE   W06
 BYTE   Gs1  v100
 BYTE   W06
 BYTE   Gs1  v080
 BYTE   W06
 BYTE   PEND 
// 012   ----------------------------------------
Label_7_014C742C:
 BYTE   N06  Cn1  v100
 BYTE   N06  Gs1
 BYTE   W06
 BYTE   Gs1  v080
 BYTE   W06
 BYTE   Gs1  v068
 BYTE   W06
 BYTE   Gs1  v080
 BYTE   W06
 BYTE   Gs1  v100
 BYTE   W06
 BYTE   Gs1  v080
 BYTE   W06
 BYTE   Gs1  v056
 BYTE   W06
 BYTE   Gs1  v100
 BYTE   W06
 BYTE   Gs1  v080
 BYTE   W06
 BYTE   Gs1  v068
 BYTE   W06
 BYTE   Gs1  v100
 BYTE   W06
 BYTE   Gs1  v080
 BYTE   W06
 BYTE   Gs1  v056
 BYTE   W06
 BYTE   Gs1  v080
 BYTE   W06
 BYTE   Gs1  v100
 BYTE   W06
 BYTE   Gs1  v080
 BYTE   W06
 BYTE   PEND 
 BYTE   PATT
  POIN2 Label_7_014C73F7
 BYTE   PATT
  POIN2 Label_7_014C742C
 BYTE   PATT
  POIN2 Label_7_014C72DC
// 013   ----------------------------------------
Label_7_014C746F:
 BYTE   N06  Cn1  v100
 BYTE   N06  Gs1
 BYTE   W06
 BYTE   Gs1  v080
 BYTE   W06
 BYTE   Gs1  v068
 BYTE   W06
 BYTE   Gs1  v080
 BYTE   W06
 BYTE   En1  v100
 BYTE   N06  Gs1
 BYTE   W06
 BYTE   Gs1  v080
 BYTE   W06
 BYTE   Gs1  v056
 BYTE   W06
 BYTE   Cn1  v100
 BYTE   N06  Gs1
 BYTE   W06
 BYTE   Gs1  v080
 BYTE   W06
 BYTE   En1  v100
 BYTE   N06  Gs1  v068
 BYTE   W06
 BYTE   Cn1  v100
 BYTE   N06  Gs1
 BYTE   W06
 BYTE   Gs1  v080
 BYTE   W06
 BYTE   En1  v100
 BYTE   N06  Gs1  v056
 BYTE   W06
 BYTE   Gs1  v080
 BYTE   W06
 BYTE   Gs1  v100
 BYTE   W06
 BYTE   Gs1  v080
 BYTE   W06
 BYTE   PEND 
 BYTE   PATT
  POIN2 Label_7_014C72DC
// 014   ----------------------------------------
 BYTE   N06  Gs1  v100
 BYTE   W06
 BYTE   Gs1  v080
 BYTE   W06
 BYTE   Gs1  v068
 BYTE   W06
 BYTE   Gs1  v080
 BYTE   W06
 BYTE   Gs1  v100
 BYTE   W06
 BYTE   Gs1  v080
 BYTE   W06
 BYTE   Gs1  v056
 BYTE   W06
 BYTE   Gs1  v100
 BYTE   W06
 BYTE   Gs1  v080
 BYTE   W06
 BYTE   Gs1  v068
 BYTE   W06
 BYTE   Cn1  v100
 BYTE   N06  Gs1
 BYTE   W06
 BYTE   Gs1  v080
 BYTE   W06
 BYTE   En1  v100
 BYTE   N06  Gs1  v056
 BYTE   W06
 BYTE   En1  v100
 BYTE   N06  Gs1  v080
 BYTE   W06
 BYTE   Cn1  v100
 BYTE   N06  Gs1
 BYTE   W06
 BYTE   Gs1  v080
 BYTE   W06
 BYTE   PATT
  POIN2 Label_7_014C72DC
 BYTE   PATT
  POIN2 Label_7_014C746F
 BYTE   PATT
  POIN2 Label_7_014C7156
// 015   ----------------------------------------
 BYTE   N06  Gs1  v100
 BYTE   W06
 BYTE   Gs1  v080
 BYTE   W06
 BYTE   Gs1  v068
 BYTE   W06
 BYTE   Gs1  v080
 BYTE   W06
 BYTE   Gs1  v100
 BYTE   W06
 BYTE   Gs1  v080
 BYTE   W06
 BYTE   Gs1  v056
 BYTE   W06
 BYTE   Gs1  v100
 BYTE   W06
 BYTE   Gs1  v080
 BYTE   W06
 BYTE   Gs1  v068
 BYTE   W06
 BYTE   Cn1  v100
 BYTE   N06  Gs1
 BYTE   W06
 BYTE   Gs1  v080
 BYTE   W06
 BYTE   En1  v100
 BYTE   N06  Gs1  v056
 BYTE   W06
 BYTE   Gs1  v080
 BYTE   W06
 BYTE   Cn1  v100
 BYTE   N06  Gs1
 BYTE   W06
 BYTE   Gs1  v080
 BYTE   W06
// 016   ----------------------------------------
 BYTE   GoTo
  POIN2 Label_7_014C7106
// 017   ----------------------------------------
 BYTE   BEND   c_v+0
 BYTE   FINE

//******************************************************//
	ALIGN 4

PokemonMDExplorersAmpPlainsRandomWizard:
	BYTE	8	// NumTrks
	BYTE	0	// NumBlks
	BYTE	PokemonMDExplorersAmpPlainsRandomWizard_pri	// Priority
	BYTE	PokemonMDExplorersAmpPlainsRandomWizard_rev	// Reverb.
    
	POIN2	PokemonMDExplorersAmpPlainsRandomWizard_grp
    
	POIN2	PokemonMDExplorersAmpPlainsRandomWizard_001
	POIN2	PokemonMDExplorersAmpPlainsRandomWizard_002
	POIN2	PokemonMDExplorersAmpPlainsRandomWizard_003
	POIN2	PokemonMDExplorersAmpPlainsRandomWizard_004
	POIN2	PokemonMDExplorersAmpPlainsRandomWizard_005
	POIN2	PokemonMDExplorersAmpPlainsRandomWizard_006
	POIN2	PokemonMDExplorersAmpPlainsRandomWizard_007
	POIN2	PokemonMDExplorersAmpPlainsRandomWizard_008

	
