//Event file generated from Sappy .s format.
	#include "MPlayDef.event"

	#define	PokemonBWDriftveilCityFeier_grp  voicegroup000
	#define	PokemonBWDriftveilCityFeier_pri  0
	#define	PokemonBWDriftveilCityFeier_rev  0
	#define	PokemonBWDriftveilCityFeier_mvl  127
	#define	PokemonBWDriftveilCityFeier_key  0
	#define	PokemonBWDriftveilCityFeier_tbs  1
	#define	PokemonBWDriftveilCityFeier_exg  0
	#define	PokemonBWDriftveilCityFeier_cmp  1

	// .rodata
	//	PokemonBWDriftveilCityFeier
	ALIGN 4


//**************** Track 1 (Midi-Chn.0) ****************//

PokemonBWDriftveilCityFeier_001:
// 000   ----------------------------------------
 BYTE   KEYSH   PokemonBWDriftveilCityFeier_key+0
 BYTE   TEMPO   134*PokemonBWDriftveilCityFeier_tbs/2
 BYTE   VOICE   18
 BYTE   VOL   25*PokemonBWDriftveilCityFeier_mvl/mxv
 BYTE   PAN   c_v+10
 BYTE   MOD 0
 BYTE   CnM2
 BYTE   BEND   c_v+0
 BYTE   W96
// 001   ----------------------------------------
Label_0_013E21E7:
 BYTE   W36
 BYTE   N11  Cs4  v112
 BYTE   W12
 BYTE   N05  Ds4
 BYTE   W06
 BYTE   Ds4  v108
 BYTE   W06
 BYTE   N11  As3  v104
 BYTE   W04
 BYTE   BEND   c_v+3
 BYTE   W04
 BYTE   En3
 BYTE   W04
 BYTE   N11  Cs4  v112
 BYTE   W12
 BYTE   As3  v104
 BYTE   W12
// 002   ----------------------------------------
 BYTE   BEND   c_v+0
 BYTE   N32  Ds4  v112
 BYTE   W04
 BYTE   BEND   c_v+4
 BYTE   W04
 BYTE   En3
 BYTE   W28
 BYTE   N11  Fs4
 BYTE   W12
 BYTE   Fn4  v108
 BYTE   W12
 BYTE   BEND   c_v+0
 BYTE   N11  Fs4  v112
 BYTE   W04
 BYTE   BEND   c_v+3
 BYTE   W04
 BYTE   En3
 BYTE   W04
 BYTE   N11  As3
 BYTE   W12
 BYTE   Cs4  v108
 BYTE   W12
// 003   ----------------------------------------
 BYTE   N17  Ds4  v112
 BYTE   W04
 BYTE   BEND   c_v+4
 BYTE   W04
 BYTE   En3
 BYTE   W16
 BYTE   N11  Cs4  v104
 BYTE   W12
 BYTE   Ds4  v108
 BYTE   W12
 BYTE   N17  As3  v112
 BYTE   W04
 BYTE   BEND   c_v+2
 BYTE   W04
 BYTE   En3
 BYTE   W10
 BYTE   N05  Gs3  v104
 BYTE   W06
 BYTE   N11  As3  v108
 BYTE   W24
// 004   ----------------------------------------
 BYTE   N32  Ds4  v112
 BYTE   W04
 BYTE   BEND   c_v+4
 BYTE   W04
 BYTE   En3
 BYTE   W28
 BYTE   N11  Fs4
 BYTE   W12
 BYTE   Fn4  v108
 BYTE   W12
 BYTE   Fs4
 BYTE   W12
 BYTE   Gs4  v104
 BYTE   W12
 BYTE   As4  v108
 BYTE   W04
 BYTE   BEND   c_v+3
 BYTE   W04
 BYTE   En3
 BYTE   W04
// 005   ----------------------------------------
 BYTE   N17  Ds4  v112
 BYTE   W04
 BYTE   BEND   c_v+3
 BYTE   W04
 BYTE   En3
 BYTE   W16
 BYTE   N11  Cs4  v108
 BYTE   W12
 BYTE   Ds4
 BYTE   W12
 BYTE   Fn4  v112
 BYTE   W12
 BYTE   N05  Fs4  v104
 BYTE   W06
 BYTE   Fn4  v100
 BYTE   W06
 BYTE   BEND   c_v+4
 BYTE   N15  Ds4  v108
 BYTE   W04
 BYTE   BEND   c_v+0
 BYTE   W20
// 006   ----------------------------------------
 BYTE   N17  Gs4  v112
 BYTE   W24
 BYTE   N11
 BYTE   W12
 BYTE   As4  v108
 BYTE   W04
 BYTE   BEND   c_v+2
 BYTE   W04
 BYTE   En3
 BYTE   W04
 BYTE   N11  Fs4
 BYTE   W04
 BYTE   BEND   c_v+3
 BYTE   W04
 BYTE   En3
 BYTE   W16
 BYTE   N11  Ds4
 BYTE   W04
 BYTE   BEND   c_v+0
 BYTE   W08
 BYTE   N11  Fs4  v100
 BYTE   W12
// 007   ----------------------------------------
 BYTE   N17  Gs4  v112
 BYTE   W04
 BYTE   BEND   c_v+4
 BYTE   W04
 BYTE   En3
 BYTE   W10
 BYTE   N05  Ds4  v104
 BYTE   W06
 BYTE   N11  Gs4  v112
 BYTE   W12
 BYTE   As4  v108
 BYTE   W12
 BYTE   Fs4  v112
 BYTE   W04
 BYTE   BEND   c_v+3
 BYTE   W04
 BYTE   En3
 BYTE   W16
 BYTE   N11  Ds4
 BYTE   W12
 BYTE   Fs4
 BYTE   W12
// 008   ----------------------------------------
 BYTE   Fn4
 BYTE   W24
 BYTE   N11
 BYTE   W04
 BYTE   BEND   c_v+2
 BYTE   W04
 BYTE   En3
 BYTE   W28
 BYTE   N05  As3  v104
 BYTE   W06
 BYTE   As3  v100
 BYTE   W06
 BYTE   N11  Cs4  v112
 BYTE   W04
 BYTE   BEND   c_v+4
 BYTE   W04
 BYTE   En3
 BYTE   W04
 BYTE   N11  As3  v108
 BYTE   W12
// 009   ----------------------------------------
 BYTE   Cs4
 BYTE   W12
 BYTE   N76  Ds4  v112
 BYTE   W04
 BYTE   BEND   c_v+3
 BYTE   W04
 BYTE   En3
 BYTE   W48
 BYTE   W04
 BYTE   W04
 BYTE   W04
 BYTE   W04
 BYTE   W04
 BYTE   W04
 BYTE   W04
// 010   ----------------------------------------
 BYTE   W04
 BYTE   W44
 BYTE   W12
 BYTE   N11
 BYTE   W12
 BYTE   Cs4  v108
 BYTE   W04
 BYTE   BEND   c_v-3
 BYTE   W04
 BYTE   En3
 BYTE   W04
 BYTE   N11  Fs4  v104
 BYTE   W04
 BYTE   BEND   c_v+4
 BYTE   W04
 BYTE   En3
 BYTE   W04
// 011   ----------------------------------------
 BYTE   N11  Ds4  v112
 BYTE   W24
 BYTE   As3  v104
 BYTE   W12
 BYTE   Cs4  v108
 BYTE   W04
 BYTE   BEND   c_v+3
 BYTE   W04
 BYTE   En3
 BYTE   W16
 BYTE   N11  Ds4  v112
 BYTE   W12
 BYTE   N05  As3  v108
 BYTE   W06
 BYTE   As3  v104
 BYTE   W06
 BYTE   N11  Cs4  v108
 BYTE   W12
// 012   ----------------------------------------
 BYTE   N23  Fs4  v112
 BYTE   W04
 BYTE   BEND   c_v+4
 BYTE   W04
 BYTE   En3
 BYTE   W16
 BYTE   N11  As3  v108
 BYTE   W12
 BYTE   Cs4  v104
 BYTE   W04
 BYTE   BEND   c_v-3
 BYTE   W04
 BYTE   En3
 BYTE   W16
 BYTE   N05  Ds4  v112
 BYTE   W06
 BYTE   Ds4  v108
 BYTE   W06
 BYTE   N11  As3
 BYTE   W12
 BYTE   Cs4  v104
 BYTE   W12
// 013   ----------------------------------------
 BYTE   N23  Ds4  v108
 BYTE   W04
 BYTE   BEND   c_v+4
 BYTE   W04
 BYTE   En3
 BYTE   W16
 BYTE   N11  As3
 BYTE   W12
 BYTE   Cs4  v104
 BYTE   W24
 BYTE   Fs4  v112
 BYTE   W04
 BYTE   BEND   c_v-3
 BYTE   W04
 BYTE   En3
 BYTE   W04
 BYTE   N11  As3
 BYTE   W12
 BYTE   N05  Cs4  v108
 BYTE   W06
 BYTE   As3  v104
 BYTE   W06
// 014   ----------------------------------------
 BYTE   N11  Cs4  v108
 BYTE   W12
 BYTE   N52  Ds4  v112
 BYTE   W04
 BYTE   BEND   c_v+4
 BYTE   W04
 BYTE   En3
 BYTE   W30
 BYTE   W01
 BYTE   W03
 BYTE   W03
 BYTE   W03
 BYTE   W03
 BYTE   W03
 BYTE   W03
 BYTE   W03
 BYTE   PAN   c_v-25
 BYTE   N11  Fs3
 BYTE   N11  Cs4
 BYTE   W01
 BYTE   W11
 BYTE   Ds3  v108
 BYTE   N11  As3
 BYTE   W12
// 015   ----------------------------------------
 BYTE   N23  Cs4  v112
 BYTE   N23  As4
 BYTE   W24
 BYTE   N11  Fs3  v108
 BYTE   N11  Cs4
 BYTE   W12
 BYTE   As3  v112
 BYTE   N11  Ds4
 BYTE   W24
 BYTE   Fs3  v108
 BYTE   N11  Cs4
 BYTE   W12
 BYTE   Cs4  v112
 BYTE   N11  Fs4
 BYTE   W24
// 016   ----------------------------------------
 BYTE   Fs3  v108
 BYTE   N11  Cs4
 BYTE   W12
 BYTE   As3  v112
 BYTE   N11  Ds4
 BYTE   W24
 BYTE   N05  Fs3  v108
 BYTE   N05  Cs4
 BYTE   W06
 BYTE   Fs3
 BYTE   N05  Cs4
 BYTE   W06
 BYTE   N07  Cs4  v112
 BYTE   N07  Fs4
 BYTE   W12
 BYTE   PAN   c_v+10
 BYTE   N11  Cs4  v108
 BYTE   W12
 BYTE   Ds4  v112
 BYTE   W04
 BYTE   BEND   c_v+4
 BYTE   W04
 BYTE   En3
 BYTE   W04
 BYTE   N11  Cs4  v108
 BYTE   W12
// 017   ----------------------------------------
 BYTE   N17  Gs4  v112
 BYTE   W18
 BYTE   N05  Fs4  v108
 BYTE   W06
 BYTE   N11  Gs4
 BYTE   W04
 BYTE   BEND   c_v-3
 BYTE   W04
 BYTE   En3
 BYTE   W04
 BYTE   N11  As4
 BYTE   W12
 BYTE   Fs4
 BYTE   W12
 BYTE   Fn4
 BYTE   W04
 BYTE   BEND   c_v+3
 BYTE   W04
 BYTE   En3
 BYTE   W04
 BYTE   N11  Ds4
 BYTE   W12
 BYTE   Fs4  v112
 BYTE   W11
 BYTE   W01
// 018   ----------------------------------------
 BYTE   N88  Fn4
 BYTE   W04
 BYTE   BEND   c_v+4
 BYTE   W04
 BYTE   En3
 BYTE   W48
 BYTE   W04
 BYTE   W04
 BYTE   W04
 BYTE   W04
 BYTE   W04
 BYTE   W04
 BYTE   W04
 BYTE   W04
 BYTE   W08
// 019   ----------------------------------------
 BYTE   W12
 BYTE   W48
 BYTE   N11  As3  v108
 BYTE   W12
 BYTE   Cs4  v112
 BYTE   W04
 BYTE   BEND   c_v-3
 BYTE   W04
 BYTE   En3
 BYTE   W04
 BYTE   N11  As3  v108
 BYTE   W04
 BYTE   BEND   c_v+3
 BYTE   W04
 BYTE   En3
 BYTE   W04
// 020   ----------------------------------------
 BYTE   N11  Cs4
 BYTE   W12
 BYTE   N52  Ds4  v112
 BYTE   W04
 BYTE   BEND   c_v+4
 BYTE   W04
 BYTE   En3
 BYTE   W12
 BYTE   W04
 BYTE   W04
 BYTE   W04
 BYTE   W04
 BYTE   W04
 BYTE   W04
 BYTE   W04
 BYTE   W04
 BYTE   W08
 BYTE   W24
// 021   ----------------------------------------
 BYTE   N11
 BYTE   W12
 BYTE   As4  v108
 BYTE   W12
 BYTE   An4  v112
 BYTE   W04
 BYTE   BEND   c_v+4
 BYTE   W04
 BYTE   En3
 BYTE   W04
 BYTE   N23  Gs4  v108
 BYTE   W04
 BYTE   BEND   c_v+3
 BYTE   W04
 BYTE   En3
 BYTE   W16
 BYTE   N11  Gn4  v112
 BYTE   W04
 BYTE   BEND   c_v-3
 BYTE   W04
 BYTE   En3
 BYTE   W04
 BYTE   N17  Fs4  v108
 BYTE   W18
 BYTE   N05  As3
 BYTE   W06
// 022   ----------------------------------------
 BYTE   N11  Cs4
 BYTE   W12
 BYTE   N52  Ds4  v112
 BYTE   W04
 BYTE   BEND   c_v+4
 BYTE   W04
 BYTE   En3
 BYTE   W16
 BYTE   W04
 BYTE   W04
 BYTE   W04
 BYTE   W04
 BYTE   W04
 BYTE   W04
 BYTE   W04
 BYTE   W04
 BYTE   W16
 BYTE   W12
// 023   ----------------------------------------
 BYTE   GoTo
  POIN2 Label_0_013E21E7
 BYTE   FINE

//**************** Track 2 (Midi-Chn.1) ****************//

PokemonBWDriftveilCityFeier_002:
// 000   ----------------------------------------
 BYTE   KEYSH   PokemonBWDriftveilCityFeier_key+0
 BYTE   VOICE   15
 BYTE   PAN   c_v+10
 BYTE   MOD 0
 BYTE   CnM2
 BYTE   PAN   c_v+13
 BYTE   VOL   51*PokemonBWDriftveilCityFeier_mvl/mxv
 BYTE   PAN   c_v+13
 BYTE   N11  Fs5  v060
 BYTE   N11  Fs6
 BYTE   W12
 BYTE   PAN   c_v+16
 BYTE   N11  Cs5
 BYTE   N11  Cs6
 BYTE   W12
 BYTE   PAN   c_v+18
 BYTE   N11  As4
 BYTE   N11  As5
 BYTE   W12
 BYTE   PAN   c_v+15
 BYTE   N11  Cs5
 BYTE   N11  Cs6
 BYTE   W12
 BYTE   PAN   c_v+18
 BYTE   N11  Ds5
 BYTE   N11  Ds6
 BYTE   W12
 BYTE   PAN   c_v+13
 BYTE   N11  Cs5
 BYTE   N11  Cs6
 BYTE   W12
 BYTE   PAN   c_v+7
 BYTE   N11  Fs5
 BYTE   N11  Fs6
 BYTE   W12
 BYTE   PAN   c_v+10
 BYTE   N11  Cs5
 BYTE   N11  Cs6
 BYTE   W12
// 001   ----------------------------------------
Label_1_013E2C59:
 BYTE   PAN   c_v-7
 BYTE   N68  As5  v060
 BYTE   N68  Ds6
 BYTE   N68  As6
 BYTE   W12
 BYTE   PAN   c_v-15
 BYTE   W12
 BYTE   An1
 BYTE   W12
 BYTE   En2
 BYTE   W12
 BYTE   Gn2
 BYTE   W12
 BYTE   Ds3
 BYTE   W12
 BYTE   Cs4
 BYTE   W12
 BYTE   Gs4
 BYTE   W12
// 002   ----------------------------------------
 BYTE   An3
 BYTE   VOL   62*PokemonBWDriftveilCityFeier_mvl/mxv
 BYTE   W72
 BYTE   VOICE   11
 BYTE   W24
// 003   ----------------------------------------
 BYTE   N11  Cs3  v112
 BYTE   N11  Gs3
 BYTE   W12
 BYTE   Ds3
 BYTE   N11  As3
 BYTE   W12
 BYTE   As2
 BYTE   N11  Fs3
 BYTE   W12
 BYTE   Cs3
 BYTE   N11  Gs3
 BYTE   W12
 BYTE   Gs2
 BYTE   N11  Ds3
 BYTE   W12
 BYTE   As2
 BYTE   N11  Fs3
 BYTE   W12
 BYTE   Ds2
 BYTE   N11  As2
 BYTE   W12
 BYTE   Fs2
 BYTE   N11  Cs3
 BYTE   W12
// 004   ----------------------------------------
 BYTE   W96
// 005   ----------------------------------------
 BYTE   N05  Fs2
 BYTE   N05  Ds3
 BYTE   W06
 BYTE   Fs2
 BYTE   N05  Ds3
 BYTE   W06
 BYTE   N11  As2
 BYTE   N11  Fs3
 BYTE   W12
 BYTE   Cs3
 BYTE   N11  Gs3
 BYTE   W12
 BYTE   Ds3
 BYTE   N11  As3
 BYTE   W12
 BYTE   N23  Gs2
 BYTE   N23  Ds3
 BYTE   W24
 BYTE   N11  Fs2
 BYTE   N11  Cs3
 BYTE   W12
 BYTE   Gs2
 BYTE   N11  Ds3
 BYTE   W12
// 006   ----------------------------------------
Label_1_013E2CC0:
 BYTE   W24
 BYTE   N11  Fs2  v112
 BYTE   N11  Bn2
 BYTE   W12
 BYTE   Gs2
 BYTE   N11  Cs3
 BYTE   W12
 BYTE   N44  Fs2
 BYTE   N44  Ds3
 BYTE   W48
 BYTE   PEND 
 BYTE   PATT
  POIN2 Label_1_013E2CC0
// 007   ----------------------------------------
 BYTE   W24
 BYTE   VOL   70*PokemonBWDriftveilCityFeier_mvl/mxv
 BYTE   W12
 BYTE   N05  As3  v112
 BYTE   W06
 BYTE   N05
 BYTE   W06
 BYTE   N11  Gs3
 BYTE   W12
 BYTE   Fs3
 BYTE   W12
 BYTE   Fn3
 BYTE   W12
 BYTE   As2
 BYTE   W12
// 008   ----------------------------------------
 BYTE   N05  Ds3
 BYTE   W06
 BYTE   N05
 BYTE   W06
 BYTE   N11  Fs3
 BYTE   W12
 BYTE   Gs3
 BYTE   W12
 BYTE   As3
 BYTE   W12
 BYTE   N23  Ds3
 BYTE   W24
 BYTE   N11  Cs3
 BYTE   N11  Fs3
 BYTE   W12
 BYTE   Gs2
 BYTE   N11  Cs3
 BYTE   W12
// 009   ----------------------------------------
 BYTE   N05  As2
 BYTE   N05  Ds3
 BYTE   W12
 BYTE   As2
 BYTE   N05  Ds3
 BYTE   W12
 BYTE   As2
 BYTE   N05  Ds3
 BYTE   W72
// 010   ----------------------------------------
 BYTE   VOICE   15
 BYTE   W02
 BYTE   VOL   51*PokemonBWDriftveilCityFeier_mvl/mxv
 BYTE   W22
 BYTE   N11  As5  v072
 BYTE   W12
 BYTE   Fs6
 BYTE   W60
// 011   ----------------------------------------
 BYTE   W24
 BYTE   Ds6
 BYTE   W12
 BYTE   As5
 BYTE   W60
// 012   ----------------------------------------
 BYTE   W96
// 013   ----------------------------------------
 BYTE   W24
 BYTE   N11
 BYTE   W12
 BYTE   Fs6
 BYTE   W60
// 014   ----------------------------------------
 BYTE   W96
// 015   ----------------------------------------
 BYTE   W96
// 016   ----------------------------------------
 BYTE   W96
// 017   ----------------------------------------
 BYTE   W96
// 018   ----------------------------------------
 BYTE   N05  Dn5
 BYTE   W12
 BYTE   N05
 BYTE   W12
 BYTE   N05
 BYTE   W72
// 019   ----------------------------------------
 BYTE   PAN   c_v+13
 BYTE   N23  Fs5
 BYTE   N23  Fs6
 BYTE   W12
 BYTE   PAN   c_v+16
 BYTE   N23  Cs5
 BYTE   N23  Cs6
 BYTE   W12
 BYTE   PAN   c_v+18
 BYTE   N23  As4
 BYTE   N23  As5
 BYTE   W12
 BYTE   PAN   c_v+15
 BYTE   N23  Cs5
 BYTE   N23  Cs6
 BYTE   W12
 BYTE   PAN   c_v+18
 BYTE   N23  Ds5
 BYTE   N23  Ds6
 BYTE   W12
 BYTE   PAN   c_v+13
 BYTE   N23  Cs5
 BYTE   N23  Cs6
 BYTE   W12
 BYTE   PAN   c_v+7
 BYTE   N23  Fs5
 BYTE   N23  Fs6
 BYTE   W12
 BYTE   PAN   c_v+10
 BYTE   N23  Ds5
 BYTE   N23  Ds6
 BYTE   W12
// 020   ----------------------------------------
 BYTE   PAN   c_v-7
 BYTE   N23  Fs5
 BYTE   N23  Fs6
 BYTE   W12
 BYTE   PAN   c_v-15
 BYTE   N23  Cs5
 BYTE   N23  Cs6
 BYTE   W12
 BYTE   PAN   c_v-19
 BYTE   N23  As4
 BYTE   N23  As5
 BYTE   W12
 BYTE   PAN   c_v-12
 BYTE   N23  Cs5
 BYTE   N23  Cs6
 BYTE   W12
 BYTE   PAN   c_v-9
 BYTE   N23  Ds5
 BYTE   N23  Ds6
 BYTE   W12
 BYTE   PAN   c_v-1
 BYTE   N23  Cs5
 BYTE   N23  Cs6
 BYTE   W12
 BYTE   PAN   c_v+9
 BYTE   N23  Fs5
 BYTE   N23  Fs6
 BYTE   W12
 BYTE   PAN   c_v+16
 BYTE   N23  Ds5
 BYTE   N23  Ds6
 BYTE   W06
 BYTE   PAN   c_v+13
 BYTE   W06
// 021   ----------------------------------------
 BYTE   N23  Fs5
 BYTE   N23  Fs6
 BYTE   W06
 BYTE   PAN   c_v+16
 BYTE   W06
 BYTE   N23  Cs5
 BYTE   N23  Cs6
 BYTE   W06
 BYTE   PAN   c_v+18
 BYTE   W06
 BYTE   N23  As4
 BYTE   N23  As5
 BYTE   W06
 BYTE   PAN   c_v+15
 BYTE   W06
 BYTE   N23  Cs5
 BYTE   N23  Cs6
 BYTE   W06
 BYTE   PAN   c_v+18
 BYTE   W06
 BYTE   N23  Ds5
 BYTE   N23  Ds6
 BYTE   W06
 BYTE   PAN   c_v+13
 BYTE   W06
 BYTE   N23  Cs5
 BYTE   N23  Cs6
 BYTE   W06
 BYTE   PAN   c_v+7
 BYTE   W06
 BYTE   N23  Fs5
 BYTE   N23  Fs6
 BYTE   W06
 BYTE   PAN   c_v+10
 BYTE   W06
 BYTE   N11  Ds5
 BYTE   N11  Ds6
 BYTE   W12
// 022   ----------------------------------------
 BYTE   GoTo
  POIN2 Label_1_013E2C59
 BYTE   FINE

//**************** Track 3 (Midi-Chn.2) ****************//

PokemonBWDriftveilCityFeier_003:
// 000   ----------------------------------------
 BYTE   KEYSH   PokemonBWDriftveilCityFeier_key+0
 BYTE   VOICE   29
 BYTE   VOL   29*PokemonBWDriftveilCityFeier_mvl/mxv
 BYTE   PAN   c_v+0
 BYTE   MOD 0
 BYTE   CnM2
 BYTE   W96
// 001   ----------------------------------------
Label_2_013E30C3:
 BYTE   N05  Ds1  v127
 BYTE   W06
 BYTE   Ds1  v060
 BYTE   W06
 BYTE   Ds1  v127
 BYTE   W06
 BYTE   Ds1  v060
 BYTE   W06
 BYTE   Ds1  v127
 BYTE   W06
 BYTE   Ds1  v060
 BYTE   W66
// 002   ----------------------------------------
Label_2_013E30D6:
 BYTE   N11  Gs0  v127
 BYTE   W12
 BYTE   N05  Gs0  v060
 BYTE   W24
 BYTE   N11  Gs0  v127
 BYTE   W12
 BYTE   N23  As0
 BYTE   W24
 BYTE   N11
 BYTE   W12
 BYTE   Cs1
 BYTE   W12
 BYTE   PEND 
// 003   ----------------------------------------
 BYTE   N23  Ds1
 BYTE   W24
 BYTE   N05  Ds1  v060
 BYTE   W12
 BYTE   N11  Ds1  v127
 BYTE   W12
 BYTE   As0
 BYTE   W12
 BYTE   N11
 BYTE   W12
 BYTE   Cs1
 BYTE   W12
 BYTE   N05  Cs1  v060
 BYTE   W12
 BYTE   PATT
  POIN2 Label_2_013E30D6
// 004   ----------------------------------------
 BYTE   N11  Ds1  v127
 BYTE   W12
 BYTE   N05  Ds1  v060
 BYTE   W24
 BYTE   N11  Ds1  v127
 BYTE   W12
 BYTE   As0
 BYTE   W12
 BYTE   N05  As0  v060
 BYTE   W24
 BYTE   N11  Ds1  v127
 BYTE   W12
// 005   ----------------------------------------
Label_2_013E311A:
 BYTE   N11  Gs0  v127
 BYTE   W12
 BYTE   N05  Gs0  v060
 BYTE   W24
 BYTE   N11  Gs0  v127
 BYTE   W12
 BYTE   Ds1
 BYTE   W12
 BYTE   N05  Ds1  v060
 BYTE   W24
 BYTE   N11  Ds1  v127
 BYTE   W12
 BYTE   PEND 
 BYTE   PATT
  POIN2 Label_2_013E311A
// 006   ----------------------------------------
 BYTE   N11  As0  v127
 BYTE   W12
 BYTE   N05  As0  v060
 BYTE   W12
 BYTE   N11  As0  v127
 BYTE   W12
 BYTE   N05  As0  v060
 BYTE   W60
// 007   ----------------------------------------
 BYTE   N23  Ds1  v127
 BYTE   W24
 BYTE   N05  Ds1  v060
 BYTE   W12
 BYTE   N11  Ds1  v127
 BYTE   W12
 BYTE   As0
 BYTE   W12
 BYTE   N11
 BYTE   W12
 BYTE   Cs1
 BYTE   W12
 BYTE   As0
 BYTE   W12
// 008   ----------------------------------------
 BYTE   N05  Ds1
 BYTE   W06
 BYTE   Ds1  v060
 BYTE   W06
 BYTE   Ds1  v127
 BYTE   W06
 BYTE   Ds1  v060
 BYTE   W06
 BYTE   N03  Ds1  v127
 BYTE   W03
 BYTE   N02  Ds1  v060
 BYTE   W68
 BYTE   W01
// 009   ----------------------------------------
Label_2_013E316F:
 BYTE   N05  Ds1  v127
 BYTE   W06
 BYTE   Ds1  v060
 BYTE   W06
 BYTE   Ds1  v127
 BYTE   W06
 BYTE   Ds1  v060
 BYTE   W78
 BYTE   PEND 
 BYTE   PATT
  POIN2 Label_2_013E316F
// 010   ----------------------------------------
 BYTE   N05  Gs0  v127
 BYTE   W06
 BYTE   Gs0  v060
 BYTE   W06
 BYTE   Gs0  v127
 BYTE   W06
 BYTE   Gs0  v060
 BYTE   W30
 BYTE   As0  v127
 BYTE   W06
 BYTE   As0  v060
 BYTE   W06
 BYTE   As0  v127
 BYTE   W06
 BYTE   As0  v060
 BYTE   W30
 BYTE   PATT
  POIN2 Label_2_013E316F
 BYTE   PATT
  POIN2 Label_2_013E316F
// 011   ----------------------------------------
 BYTE   N05  Cs1  v127
 BYTE   W06
 BYTE   Cs1  v060
 BYTE   W06
 BYTE   Cs1  v127
 BYTE   W06
 BYTE   Cs1  v060
 BYTE   W78
// 012   ----------------------------------------
 BYTE   N11  Bn0  v127
 BYTE   W12
 BYTE   Bn1
 BYTE   W12
 BYTE   N05  Bn1  v060
 BYTE   W12
 BYTE   N11  Bn0  v127
 BYTE   W12
 BYTE   As0
 BYTE   W12
 BYTE   As1
 BYTE   W12
 BYTE   N05  As1  v060
 BYTE   W12
 BYTE   N11  As0  v127
 BYTE   W12
// 013   ----------------------------------------
 BYTE   An0
 BYTE   W12
 BYTE   N05
 BYTE   W06
 BYTE   An0  v060
 BYTE   W06
 BYTE   N11  Cn1  v127
 BYTE   W12
 BYTE   N05
 BYTE   W06
 BYTE   Cn1  v060
 BYTE   W06
 BYTE   Fn1  v127
 BYTE   W06
 BYTE   N05
 BYTE   W06
 BYTE   N11  Cn1
 BYTE   W12
 BYTE   N05  Fn1
 BYTE   W06
 BYTE   Cn1
 BYTE   W06
 BYTE   N11  An1
 BYTE   W12
// 014   ----------------------------------------
 BYTE   N05  As1
 BYTE   W06
 BYTE   As1  v060
 BYTE   W06
 BYTE   As1  v127
 BYTE   W06
 BYTE   As1  v060
 BYTE   W06
 BYTE   N11  As0  v127
 BYTE   W12
 BYTE   N05  As0  v060
 BYTE   W48
 BYTE   N11  As0  v127
 BYTE   W12
// 015   ----------------------------------------
 BYTE   Ds1
 BYTE   W12
 BYTE   N05  Ds1  v060
 BYTE   W06
 BYTE   Ds1  v127
 BYTE   W06
 BYTE   Ds1  v060
 BYTE   W54
 BYTE   BEND   c_v+0
 BYTE   W18
// 016   ----------------------------------------
 BYTE   N56  Ds1  v127
 BYTE   W06
 BYTE   BEND   c_v-1
 BYTE   W03
 BYTE   Dn3
 BYTE   W03
 BYTE   Cs3
 BYTE   W03
 BYTE   Bn2
 BYTE   W03
 BYTE   An2
 BYTE   W03
 BYTE   Gs2
 BYTE   W03
 BYTE   Fn2
 BYTE   W03
 BYTE   Ds2
 BYTE   W03
 BYTE   Cn2
 BYTE   W03
 BYTE   Gs1
 BYTE   W03
 BYTE   Fn1
 BYTE   W03
 BYTE   Dn1
 BYTE   W03
 BYTE   As0
 BYTE   W03
 BYTE   Fs0
 BYTE   W03
 BYTE   Cs0
 BYTE   W03
 BYTE   GsM1
 BYTE   W03
 BYTE   DsM1
 BYTE   W03
 BYTE   AsM2
 BYTE   W03
 BYTE   En3
 BYTE   N05  Cs0
 BYTE   W06
 BYTE   N05
 BYTE   W06
 BYTE   Ds0
 BYTE   W06
 BYTE   Gs0
 BYTE   W06
 BYTE   As0
 BYTE   W06
 BYTE   N05
 BYTE   W06
// 017   ----------------------------------------
 BYTE   N11  Ds1
 BYTE   W12
 BYTE   N05  Ds1  v060
 BYTE   W06
 BYTE   Ds1  v127
 BYTE   W06
 BYTE   Ds1  v060
 BYTE   W60
 BYTE   N11  As1  v127
 BYTE   W12
// 018   ----------------------------------------
 BYTE   GoTo
  POIN2 Label_2_013E30C3
 BYTE   FINE

//**************** Track 4 (Midi-Chn.3) ****************//

PokemonBWDriftveilCityFeier_004:
// 000   ----------------------------------------
 BYTE   KEYSH   PokemonBWDriftveilCityFeier_key+0
 BYTE   VOICE   40
 BYTE   VOL   49*PokemonBWDriftveilCityFeier_mvl/mxv
 BYTE   PAN   c_v+0
 BYTE   MOD 0
 BYTE   CnM2
 BYTE   PAN   c_v-20
 BYTE   N11  Ds3  v108
 BYTE   W12
 BYTE   As3  v112
 BYTE   W12
 BYTE   An3
 BYTE   W12
 BYTE   N03  Gs3
 BYTE   W04
 BYTE   An3  v108
 BYTE   W04
 BYTE   Gs3  v104
 BYTE   W04
 BYTE   N11  Fs3  v112
 BYTE   W12
 BYTE   Cs3  v104
 BYTE   W12
 BYTE   N05  Ds3  v108
 BYTE   W06
 BYTE   Ds3  v100
 BYTE   W06
 BYTE   N11  Fn3  v112
 BYTE   N11  Gs3
 BYTE   N11  Cs4
 BYTE   W12
// 001   ----------------------------------------
Label_3_013E32CC:
 BYTE   N02  Fs3  v112
 BYTE   N02  As3
 BYTE   N02  Ds4
 BYTE   W03
 BYTE   Fs3  v072
 BYTE   N02  As3
 BYTE   N02  Ds4
 BYTE   W09
 BYTE   Fs3  v112
 BYTE   N02  As3
 BYTE   N02  Ds4
 BYTE   W03
 BYTE   Fs3  v072
 BYTE   N02  As3
 BYTE   N02  Ds4
 BYTE   W09
 BYTE   N05  Fs3  v112
 BYTE   N05  As3
 BYTE   N05  Ds4
 BYTE   W06
 BYTE   N08  Fs3  v072
 BYTE   N08  As3
 BYTE   N08  Ds4
 BYTE   W66
// 002   ----------------------------------------
 BYTE   W24
 BYTE   N02  Bn2  v112
 BYTE   N02  Ds3
 BYTE   N02  Gs3
 BYTE   W03
 BYTE   N05  Bn2  v072
 BYTE   N05  Ds3
 BYTE   N05  Gs3
 BYTE   W44
 BYTE   W01
 BYTE   N02  As2  v112
 BYTE   N02  Dn3
 BYTE   N02  Gs3
 BYTE   W03
 BYTE   N05  As2  v072
 BYTE   N05  Dn3
 BYTE   N05  Gs3
 BYTE   W09
 BYTE   N02  Gs3  v112
 BYTE   W03
 BYTE   N05  Gs3  v072
 BYTE   W09
// 003   ----------------------------------------
 BYTE   W24
 BYTE   N02  As2  v112
 BYTE   N02  Cs3
 BYTE   N02  Fs3
 BYTE   W03
 BYTE   N05  As2  v072
 BYTE   N05  Cs3
 BYTE   N05  Fs3
 BYTE   W21
 BYTE   N02  As2  v112
 BYTE   N02  Ds3
 BYTE   N02  Gs3
 BYTE   W03
 BYTE   N05  As2  v072
 BYTE   N05  Ds3
 BYTE   N05  Gs3
 BYTE   W09
 BYTE   N02  As2  v112
 BYTE   N02  Ds3
 BYTE   N02  Fs3
 BYTE   W03
 BYTE   As2  v072
 BYTE   N02  Ds3
 BYTE   N02  Fs3
 BYTE   W03
 BYTE   As2  v112
 BYTE   N02  Ds3
 BYTE   N02  Fn3
 BYTE   W03
 BYTE   As2  v072
 BYTE   N02  Ds3
 BYTE   N02  Fn3
 BYTE   W03
 BYTE   As2  v112
 BYTE   N02  Cs3
 BYTE   N02  Fs3
 BYTE   W03
 BYTE   As2  v072
 BYTE   N02  Cs3
 BYTE   N02  Fs3
 BYTE   W09
 BYTE   Fs2  v112
 BYTE   N02  As2
 BYTE   N02  Cs3
 BYTE   W03
 BYTE   N05  Fs2  v072
 BYTE   N05  As2
 BYTE   N05  Cs3
 BYTE   W09
// 004   ----------------------------------------
 BYTE   W24
 BYTE   N02  Bn2  v112
 BYTE   N02  Ds3
 BYTE   N02  Gs3
 BYTE   W03
 BYTE   N05  Bn2  v072
 BYTE   N05  Ds3
 BYTE   N05  Gs3
 BYTE   W44
 BYTE   W01
 BYTE   N02  As2  v112
 BYTE   N02  Fn3
 BYTE   N02  Gs3
 BYTE   W03
 BYTE   N05  As2  v072
 BYTE   N05  Fn3
 BYTE   N05  Gs3
 BYTE   W21
// 005   ----------------------------------------
 BYTE   W18
 BYTE   N02  As2  v112
 BYTE   N02  Ds3
 BYTE   N02  Fs3
 BYTE   W03
 BYTE   N05  As2  v072
 BYTE   N05  Ds3
 BYTE   N05  Fs3
 BYTE   W15
 BYTE   As2  v112
 BYTE   N05  Cs3
 BYTE   N05  Fs3
 BYTE   W06
 BYTE   As2  v072
 BYTE   N05  Cs3
 BYTE   N05  Fs3
 BYTE   W06
 BYTE   N02  As2  v112
 BYTE   N02  Ds3
 BYTE   N02  Fs3
 BYTE   W03
 BYTE   N05  As2  v072
 BYTE   N05  Ds3
 BYTE   N05  Fs3
 BYTE   W09
 BYTE   N02  As2  v112
 BYTE   N02  Ds3
 BYTE   N02  Fs3
 BYTE   W03
 BYTE   N05  As2  v072
 BYTE   N05  Ds3
 BYTE   N05  Fs3
 BYTE   W09
 BYTE   N02  As2  v112
 BYTE   N02  Ds3
 BYTE   N02  Fs3
 BYTE   W03
 BYTE   N05  As2  v072
 BYTE   N05  Ds3
 BYTE   N05  Fs3
 BYTE   W21
// 006   ----------------------------------------
 BYTE   W24
 BYTE   N02  Ds3  v112
 BYTE   N02  Gs3
 BYTE   N02  Bn3
 BYTE   W03
 BYTE   N05  Ds3  v072
 BYTE   N05  Gs3
 BYTE   N05  Bn3
 BYTE   W32
 BYTE   W01
 BYTE   N02  As2  v112
 BYTE   N02  Cs3
 BYTE   N02  Fs3
 BYTE   W03
 BYTE   N05  As2  v072
 BYTE   N05  Cs3
 BYTE   N05  Fs3
 BYTE   W09
 BYTE   N02  As2  v112
 BYTE   N02  Cs3
 BYTE   N02  Fs3
 BYTE   W03
 BYTE   N05  As2  v072
 BYTE   N05  Cs3
 BYTE   N05  Fs3
 BYTE   W21
// 007   ----------------------------------------
 BYTE   W18
 BYTE   N02  Ds3  v112
 BYTE   N02  Gs3
 BYTE   N02  Bn3
 BYTE   W03
 BYTE   Ds3  v072
 BYTE   N02  Gs3
 BYTE   N02  Bn3
 BYTE   W03
 BYTE   Ds3  v112
 BYTE   N02  Gs3
 BYTE   N02  Bn3
 BYTE   W03
 BYTE   N05  Ds3  v072
 BYTE   N05  Gs3
 BYTE   N05  Bn3
 BYTE   W32
 BYTE   W01
 BYTE   N02  As2  v112
 BYTE   N02  Ds3
 BYTE   N02  Fs3
 BYTE   W03
 BYTE   N05  As2  v072
 BYTE   N05  Ds3
 BYTE   N05  Fs3
 BYTE   W09
 BYTE   N02  As2  v112
 BYTE   N02  Ds3
 BYTE   N02  Fs3
 BYTE   W03
 BYTE   N05  As2  v072
 BYTE   N05  Ds3
 BYTE   N05  Fs3
 BYTE   W21
// 008   ----------------------------------------
 BYTE   N02  Fn3  v112
 BYTE   N02  Gs3
 BYTE   N02  Dn4
 BYTE   W03
 BYTE   N05  Fn3  v072
 BYTE   N05  Gs3
 BYTE   N05  Dn4
 BYTE   W21
 BYTE   N02  Fn3  v112
 BYTE   N02  Gs3
 BYTE   N02  Dn4
 BYTE   W03
 BYTE   N05  Fn3  v072
 BYTE   N05  Gs3
 BYTE   N05  Dn4
 BYTE   W68
 BYTE   W01
// 009   ----------------------------------------
 BYTE   N11  Ds2  v112
 BYTE   W12
 BYTE   As2
 BYTE   W12
 BYTE   An2
 BYTE   W12
 BYTE   N03  Gs2
 BYTE   W04
 BYTE   An2
 BYTE   W04
 BYTE   Gs2
 BYTE   W04
 BYTE   N11  Fs2
 BYTE   W12
 BYTE   Cs2
 BYTE   W12
 BYTE   N05  Ds2
 BYTE   W06
 BYTE   N05
 BYTE   W06
 BYTE   N11  Fn3
 BYTE   N11  Gs3
 BYTE   N11  Cs4
 BYTE   W12
// 010   ----------------------------------------
 BYTE   N02  Fs3
 BYTE   N02  As3
 BYTE   N02  Ds4
 BYTE   W03
 BYTE   N05  Fs3  v072
 BYTE   N05  As3
 BYTE   N05  Ds4
 BYTE   W09
 BYTE   N02  Fs3  v112
 BYTE   N02  As3
 BYTE   N02  Ds4
 BYTE   W03
 BYTE   N05  Fs3  v072
 BYTE   N05  As3
 BYTE   N05  Ds4
 BYTE   W09
 BYTE   N02  Fs3  v112
 BYTE   N02  As3
 BYTE   N02  Ds4
 BYTE   W03
 BYTE   N05  Fs3  v072
 BYTE   N05  As3
 BYTE   N05  Ds4
 BYTE   W68
 BYTE   W01
// 011   ----------------------------------------
 BYTE   W96
// 012   ----------------------------------------
 BYTE   W96
// 013   ----------------------------------------
 BYTE   W96
// 014   ----------------------------------------
 BYTE   W24
 BYTE   N11  As2  v116
 BYTE   W12
 BYTE   N05  Cs3
 BYTE   W06
 BYTE   As2  v100
 BYTE   W06
 BYTE   N11  Cs3  v108
 BYTE   W12
 BYTE   N23  Ds3  v116
 BYTE   W24
 BYTE   N05  As2  v108
 BYTE   W06
 BYTE   As2  v104
 BYTE   W06
// 015   ----------------------------------------
 BYTE   N11  Cs3  v112
 BYTE   W12
 BYTE   N23  Ds3
 BYTE   W24
 BYTE   N05  Cs3  v108
 BYTE   W24
 BYTE   Ds3  v112
 BYTE   W06
 BYTE   As2  v104
 BYTE   W06
 BYTE   Cs3  v112
 BYTE   W06
 BYTE   N17  Cs3  v116
 BYTE   W18
// 016   ----------------------------------------
 BYTE   N05  As2  v112
 BYTE   W06
 BYTE   As2  v104
 BYTE   W06
 BYTE   Cs3  v116
 BYTE   W24
 BYTE   Cs3  v104
 BYTE   W06
 BYTE   Cs3  v100
 BYTE   W06
 BYTE   N11  As2  v116
 BYTE   W12
 BYTE   N23  Cs3  v112
 BYTE   W24
 BYTE   N05  Ds3  v108
 BYTE   W06
 BYTE   Cs3  v100
 BYTE   W06
// 017   ----------------------------------------
 BYTE   N17  Bn2  v112
 BYTE   W18
 BYTE   N05  As2  v104
 BYTE   W06
 BYTE   N11  Bn2  v108
 BYTE   W12
 BYTE   Cs3  v112
 BYTE   W12
 BYTE   N23  As2  v108
 BYTE   W24
 BYTE   N32  Ds3  v112
 BYTE   W24
// 018   ----------------------------------------
 BYTE   W12
 BYTE   N11  Fn3  v108
 BYTE   W12
 BYTE   N05  Cn3  v112
 BYTE   W06
 BYTE   N17  Fn3  v116
 BYTE   W18
 BYTE   N05  Fn3  v112
 BYTE   W06
 BYTE   Fn3  v108
 BYTE   W06
 BYTE   N11  Ds3  v112
 BYTE   W12
 BYTE   N05  Fn3  v108
 BYTE   W06
 BYTE   N11  An3  v112
 BYTE   W12
 BYTE   N05  Fn3  v108
 BYTE   W06
// 019   ----------------------------------------
 BYTE   Dn3  v120
 BYTE   N05  As3
 BYTE   W06
 BYTE   Dn3  v072
 BYTE   N05  As3
 BYTE   W06
 BYTE   Dn3  v120
 BYTE   N05  As3
 BYTE   W06
 BYTE   Dn3  v072
 BYTE   N05  As3
 BYTE   W06
 BYTE   Dn3  v120
 BYTE   N05  As3
 BYTE   W06
 BYTE   Dn3  v072
 BYTE   N05  As3
 BYTE   W66
// 020   ----------------------------------------
 BYTE   N11  Ds3  v112
 BYTE   W12
 BYTE   As3  v104
 BYTE   W12
 BYTE   An3  v112
 BYTE   W12
 BYTE   N03  Gs3
 BYTE   W04
 BYTE   An3  v108
 BYTE   W04
 BYTE   Gs3  v104
 BYTE   W04
 BYTE   N11  Fs3  v112
 BYTE   W12
 BYTE   Cs3
 BYTE   W12
 BYTE   N05  Ds3
 BYTE   W06
 BYTE   Ds3  v104
 BYTE   W06
 BYTE   N11  Fn3  v112
 BYTE   N11  Gs3
 BYTE   N11  Cs4
 BYTE   W12
// 021   ----------------------------------------
 BYTE   N05  Fs3
 BYTE   N05  As3
 BYTE   N05  Ds4
 BYTE   W06
 BYTE   Fs3  v104
 BYTE   N05  As3
 BYTE   N05  Ds4
 BYTE   W12
 BYTE   Fn3  v112
 BYTE   N05  An3
 BYTE   N05  Dn4
 BYTE   W06
 BYTE   Fn3  v104
 BYTE   N05  An3
 BYTE   N05  Dn4
 BYTE   W12
 BYTE   En3  v112
 BYTE   N05  Gs3
 BYTE   N05  Cs4
 BYTE   W06
 BYTE   En3  v108
 BYTE   N05  Gs3
 BYTE   N05  Cs4
 BYTE   W12
 BYTE   Ds3  v112
 BYTE   N05  Gn3
 BYTE   N05  Cn4
 BYTE   W06
 BYTE   Ds3  v108
 BYTE   N05  Gn3
 BYTE   N05  Cn4
 BYTE   W12
 BYTE   N17  Dn3  v112
 BYTE   N17  Fs3
 BYTE   N17  Bn3
 BYTE   W24
// 022   ----------------------------------------
 BYTE   N11  Ds2  v116
 BYTE   W12
 BYTE   As2  v120
 BYTE   W12
 BYTE   An2
 BYTE   W12
 BYTE   N03  Gs2
 BYTE   W04
 BYTE   An2
 BYTE   W04
 BYTE   Gs2  v116
 BYTE   W04
 BYTE   N11  Fs2  v120
 BYTE   W12
 BYTE   Cs2
 BYTE   W12
 BYTE   N05  Ds2
 BYTE   W06
 BYTE   Ds2  v116
 BYTE   W06
 BYTE   N11  Fn3  v112
 BYTE   N11  Gs3
 BYTE   N11  Cs4
 BYTE   W12
// 023   ----------------------------------------
 BYTE   GoTo
  POIN2 Label_3_013E32CC
 BYTE   FINE

//**************** Track 5 (Midi-Chn.4) ****************//

PokemonBWDriftveilCityFeier_005:
// 000   ----------------------------------------
 BYTE   KEYSH   PokemonBWDriftveilCityFeier_key+0
 BYTE   VOICE   8
 BYTE   VOL   47*PokemonBWDriftveilCityFeier_mvl/mxv
 BYTE   PAN   c_v+0
 BYTE   MOD 0
 BYTE   CnM2
 BYTE   PAN   c_v-15
 BYTE   W96
// 001   ----------------------------------------
Label_4_013E2FBD:
 BYTE   W96
// 002   ----------------------------------------
 BYTE   W96
// 003   ----------------------------------------
 BYTE   W96
// 004   ----------------------------------------
 BYTE   W96
// 005   ----------------------------------------
 BYTE   W96
// 006   ----------------------------------------
 BYTE   W96
// 007   ----------------------------------------
 BYTE   W96
// 008   ----------------------------------------
 BYTE   W96
// 009   ----------------------------------------
 BYTE   W96
// 010   ----------------------------------------
 BYTE   W96
// 011   ----------------------------------------
Label_4_013E2FC7:
 BYTE   N17  As2  v112
 BYTE   N17  Cs3
 BYTE   N17  Ds3
 BYTE   W18
 BYTE   N05  As2
 BYTE   N05  Cs3
 BYTE   N05  Ds3
 BYTE   W78
 BYTE   PEND 
// 012   ----------------------------------------
Label_4_013E2FD7:
 BYTE   N17  Cs3  v112
 BYTE   N17  Ds3
 BYTE   N17  Fs3
 BYTE   W18
 BYTE   N05  Cs3
 BYTE   N05  Ds3
 BYTE   N05  Fs3
 BYTE   W78
 BYTE   PEND 
// 013   ----------------------------------------
 BYTE   N17  Bn2
 BYTE   N17  Ds3
 BYTE   N17  Fs3
 BYTE   W18
 BYTE   N05  Bn2
 BYTE   N05  Ds3
 BYTE   N05  Fs3
 BYTE   W30
 BYTE   N17  As2
 BYTE   N17  Dn3
 BYTE   N17  Fs3
 BYTE   W18
 BYTE   N05  As2
 BYTE   N05  Dn3
 BYTE   N05  Fs3
 BYTE   W30
 BYTE   PATT
  POIN2 Label_4_013E2FD7
 BYTE   PATT
  POIN2 Label_4_013E2FC7
 BYTE   PATT
  POIN2 Label_4_013E2FC7
// 014   ----------------------------------------
 BYTE   N17  Fs2  v112
 BYTE   N17  Bn2
 BYTE   N17  Ds3
 BYTE   W18
 BYTE   N05  Fs2
 BYTE   N05  Bn2
 BYTE   N05  Ds3
 BYTE   W30
 BYTE   N17  Fs2
 BYTE   N17  As2
 BYTE   N17  Ds3
 BYTE   W18
 BYTE   N05  Fs2
 BYTE   N05  As2
 BYTE   N05  Ds3
 BYTE   W30
// 015   ----------------------------------------
 BYTE   N17  An2
 BYTE   N17  Ds3
 BYTE   N17  Fn3
 BYTE   W18
 BYTE   N05  Cn3
 BYTE   N05  Ds3
 BYTE   N05  Fn3
 BYTE   W18
 BYTE   N23  Cn3
 BYTE   N23  Ds3
 BYTE   N23  Fn3
 BYTE   W24
 BYTE   N17  Ds3
 BYTE   N17  Fn3
 BYTE   N17  An3
 BYTE   W18
 BYTE   N05  Fn3
 BYTE   N05  An3
 BYTE   N05  Cn4
 BYTE   W18
// 016   ----------------------------------------
 BYTE   Gs3
 BYTE   N05  As3
 BYTE   N05  Dn4
 BYTE   W12
 BYTE   Fn3
 BYTE   N05  Gs3
 BYTE   N05  Dn4
 BYTE   W12
 BYTE   Fn3
 BYTE   N05  Gs3
 BYTE   N05  Dn4
 BYTE   W72
// 017   ----------------------------------------
 BYTE   W96
// 018   ----------------------------------------
 BYTE   W96
// 019   ----------------------------------------
 BYTE   W96
// 020   ----------------------------------------
 BYTE   GoTo
  POIN2 Label_4_013E2FBD
 BYTE   FINE

//**************** Track 6 (Midi-Chn.5) ****************//

PokemonBWDriftveilCityFeier_006:
// 000   ----------------------------------------
 BYTE   KEYSH   PokemonBWDriftveilCityFeier_key+0
 BYTE   VOICE   18
 BYTE   VOL   51*PokemonBWDriftveilCityFeier_mvl/mxv
 BYTE   PAN   c_v+10
 BYTE   MOD 0
 BYTE   CnM2
 BYTE   PAN   c_v-57
 BYTE   W01
 BYTE   VOICE   40
 BYTE   BEND   c_v+0
 BYTE   W03
 BYTE   N11  Ds3  v108
 BYTE   W12
 BYTE   As3  v112
 BYTE   W12
 BYTE   An3
 BYTE   W12
 BYTE   N03  Gs3
 BYTE   W04
 BYTE   An3  v108
 BYTE   W04
 BYTE   Gs3  v104
 BYTE   W04
 BYTE   N11  Fs3  v112
 BYTE   W12
 BYTE   Cs3  v104
 BYTE   W12
 BYTE   N05  Ds3  v108
 BYTE   W06
 BYTE   Ds3  v100
 BYTE   W06
 BYTE   N11  Cs4  v112
 BYTE   W08
// 001   ----------------------------------------
Label_5_013E281E:
 BYTE   W03
 BYTE   VOICE   40
 BYTE   W01
 BYTE   N02  Ds4  v112
 BYTE   W03
 BYTE   Ds4  v072
 BYTE   W09
 BYTE   Ds4  v112
 BYTE   W03
 BYTE   Ds4  v072
 BYTE   W09
 BYTE   N05  Ds4  v112
 BYTE   W09
 BYTE   VOICE   18
 BYTE   W03
 BYTE   N11  Cs4
 BYTE   W12
 BYTE   N05  Ds4
 BYTE   W06
 BYTE   Ds4  v108
 BYTE   W06
 BYTE   N11  As3  v104
 BYTE   W04
 BYTE   BEND   c_v+3
 BYTE   W04
 BYTE   En3
 BYTE   W04
 BYTE   N11  Cs4  v112
 BYTE   W12
 BYTE   As3  v104
 BYTE   W08
// 002   ----------------------------------------
 BYTE   W04
 BYTE   BEND   c_v+0
 BYTE   N32  Ds4  v112
 BYTE   W04
 BYTE   BEND   c_v+4
 BYTE   W04
 BYTE   En3
 BYTE   W28
 BYTE   N11  Fs4
 BYTE   W12
 BYTE   Fn4  v108
 BYTE   W12
 BYTE   BEND   c_v+0
 BYTE   N11  Fs4  v112
 BYTE   W04
 BYTE   BEND   c_v+3
 BYTE   W04
 BYTE   En3
 BYTE   W04
 BYTE   N11  As3
 BYTE   W12
 BYTE   Cs4  v108
 BYTE   W08
// 003   ----------------------------------------
 BYTE   W04
 BYTE   N17  Ds4  v112
 BYTE   W04
 BYTE   BEND   c_v+4
 BYTE   W04
 BYTE   En3
 BYTE   W16
 BYTE   N11  Cs4  v104
 BYTE   W12
 BYTE   Ds4  v108
 BYTE   W12
 BYTE   N17  As3  v112
 BYTE   W04
 BYTE   BEND   c_v+2
 BYTE   W04
 BYTE   En3
 BYTE   W10
 BYTE   N05  Gs3  v104
 BYTE   W06
 BYTE   N11  As3  v108
 BYTE   W20
// 004   ----------------------------------------
 BYTE   W04
 BYTE   N32  Ds4  v112
 BYTE   W04
 BYTE   BEND   c_v+4
 BYTE   W04
 BYTE   En3
 BYTE   W28
 BYTE   N11  Fs4
 BYTE   W12
 BYTE   Fn4  v108
 BYTE   W12
 BYTE   Fs4
 BYTE   W12
 BYTE   Gs4  v104
 BYTE   W12
 BYTE   As4  v108
 BYTE   W04
 BYTE   BEND   c_v+3
 BYTE   W04
// 005   ----------------------------------------
 BYTE   En3
 BYTE   W04
 BYTE   N17  Ds4  v112
 BYTE   W04
 BYTE   BEND   c_v+3
 BYTE   W04
 BYTE   En3
 BYTE   W16
 BYTE   N11  Cs4  v108
 BYTE   W12
 BYTE   Ds4
 BYTE   W12
 BYTE   Fn4  v112
 BYTE   W12
 BYTE   N05  Fs4  v104
 BYTE   W06
 BYTE   Fn4  v100
 BYTE   W06
 BYTE   BEND   c_v+4
 BYTE   N15  Ds4  v108
 BYTE   W04
 BYTE   BEND   c_v+0
 BYTE   W16
// 006   ----------------------------------------
 BYTE   W04
 BYTE   N17  Gs4  v112
 BYTE   W24
 BYTE   N11
 BYTE   W12
 BYTE   As4  v108
 BYTE   W04
 BYTE   BEND   c_v+2
 BYTE   W04
 BYTE   En3
 BYTE   W04
 BYTE   N11  Fs4
 BYTE   W04
 BYTE   BEND   c_v+3
 BYTE   W04
 BYTE   En3
 BYTE   W16
 BYTE   N11  Ds4
 BYTE   W04
 BYTE   BEND   c_v+0
 BYTE   W08
 BYTE   N11  Fs4  v100
 BYTE   W08
// 007   ----------------------------------------
 BYTE   W04
 BYTE   N17  Gs4  v112
 BYTE   W04
 BYTE   BEND   c_v+4
 BYTE   W04
 BYTE   En3
 BYTE   W10
 BYTE   N05  Ds4  v104
 BYTE   W06
 BYTE   N11  Gs4  v112
 BYTE   W12
 BYTE   As4  v108
 BYTE   W12
 BYTE   Fs4  v112
 BYTE   W04
 BYTE   BEND   c_v+3
 BYTE   W04
 BYTE   En3
 BYTE   W16
 BYTE   N11  Ds4
 BYTE   W12
 BYTE   Fs4
 BYTE   W08
// 008   ----------------------------------------
 BYTE   W04
 BYTE   Fn4
 BYTE   W24
 BYTE   N11
 BYTE   W04
 BYTE   BEND   c_v+2
 BYTE   W04
 BYTE   En3
 BYTE   W28
 BYTE   N05  As3  v104
 BYTE   W06
 BYTE   As3  v100
 BYTE   W06
 BYTE   N11  Cs4  v112
 BYTE   W04
 BYTE   BEND   c_v+4
 BYTE   W04
 BYTE   En3
 BYTE   W04
 BYTE   N11  As3  v108
 BYTE   W08
// 009   ----------------------------------------
 BYTE   W04
 BYTE   Cs4
 BYTE   W12
 BYTE   N76  Ds4  v112
 BYTE   W04
 BYTE   BEND   c_v+3
 BYTE   W04
 BYTE   En3
 BYTE   W48
 BYTE   W04
 BYTE   W04
 BYTE   W04
 BYTE   W04
 BYTE   W04
 BYTE   W04
// 010   ----------------------------------------
 BYTE   W04
 BYTE   W04
 BYTE   W44
 BYTE   W12
 BYTE   N11
 BYTE   W12
 BYTE   Cs4  v108
 BYTE   W04
 BYTE   BEND   c_v-3
 BYTE   W04
 BYTE   En3
 BYTE   W04
 BYTE   N11  Fs4  v104
 BYTE   W04
 BYTE   BEND   c_v+4
 BYTE   W04
// 011   ----------------------------------------
 BYTE   En3
 BYTE   W04
 BYTE   N11  Ds4  v112
 BYTE   W24
 BYTE   As3  v104
 BYTE   W12
 BYTE   Cs4  v108
 BYTE   W04
 BYTE   BEND   c_v+3
 BYTE   W04
 BYTE   En3
 BYTE   W16
 BYTE   N11  Ds4  v112
 BYTE   W12
 BYTE   N05  As3  v108
 BYTE   W06
 BYTE   As3  v104
 BYTE   W06
 BYTE   N11  Cs4  v108
 BYTE   W08
// 012   ----------------------------------------
 BYTE   W04
 BYTE   N23  Fs4  v112
 BYTE   W04
 BYTE   BEND   c_v+4
 BYTE   W04
 BYTE   En3
 BYTE   W16
 BYTE   N11  As3  v108
 BYTE   W12
 BYTE   Cs4  v104
 BYTE   W04
 BYTE   BEND   c_v-3
 BYTE   W04
 BYTE   En3
 BYTE   W16
 BYTE   N05  Ds4  v112
 BYTE   W06
 BYTE   Ds4  v108
 BYTE   W06
 BYTE   N11  As3
 BYTE   W12
 BYTE   Cs4  v104
 BYTE   W08
// 013   ----------------------------------------
 BYTE   W04
 BYTE   N23  Ds4  v108
 BYTE   W04
 BYTE   BEND   c_v+4
 BYTE   W04
 BYTE   En3
 BYTE   W16
 BYTE   N11  As3
 BYTE   W12
 BYTE   Cs4  v104
 BYTE   W24
 BYTE   Fs4  v112
 BYTE   W04
 BYTE   BEND   c_v-3
 BYTE   W04
 BYTE   En3
 BYTE   W04
 BYTE   N11  As3
 BYTE   W12
 BYTE   N05  Cs4  v108
 BYTE   W06
 BYTE   As3  v104
 BYTE   W02
// 014   ----------------------------------------
 BYTE   W04
 BYTE   N11  Cs4  v108
 BYTE   W12
 BYTE   N52  Ds4  v112
 BYTE   W04
 BYTE   BEND   c_v+4
 BYTE   W04
 BYTE   En3
 BYTE   W48
 BYTE   W01
 BYTE   PAN   c_v+30
 BYTE   W03
 BYTE   N11  Fs3
 BYTE   N11  Cs4
 BYTE   W12
 BYTE   Ds3  v108
 BYTE   N11  As3
 BYTE   W08
// 015   ----------------------------------------
 BYTE   W04
 BYTE   N23  Cs4  v112
 BYTE   N23  As4
 BYTE   W24
 BYTE   N11  Fs3  v108
 BYTE   N11  Cs4
 BYTE   W12
 BYTE   As3  v112
 BYTE   N11  Ds4
 BYTE   W24
 BYTE   Fs3  v108
 BYTE   N11  Cs4
 BYTE   W12
 BYTE   Cs4  v112
 BYTE   N11  Fs4
 BYTE   W20
// 016   ----------------------------------------
 BYTE   W04
 BYTE   Fs3  v108
 BYTE   N11  Cs4
 BYTE   W12
 BYTE   As3  v112
 BYTE   N11  Ds4
 BYTE   W24
 BYTE   N05  Fs3  v108
 BYTE   N05  Cs4
 BYTE   W06
 BYTE   Fs3
 BYTE   N05  Cs4
 BYTE   W06
 BYTE   N07  Cs4  v112
 BYTE   N07  Fs4
 BYTE   W09
 BYTE   PAN   c_v-57
 BYTE   W03
 BYTE   N11  Cs4  v108
 BYTE   W12
 BYTE   Ds4  v112
 BYTE   W04
 BYTE   BEND   c_v+4
 BYTE   W04
 BYTE   En3
 BYTE   W04
 BYTE   N11  Cs4  v108
 BYTE   W08
// 017   ----------------------------------------
 BYTE   W04
 BYTE   N17  Gs4  v112
 BYTE   W18
 BYTE   N05  Fs4  v108
 BYTE   W06
 BYTE   N11  Gs4
 BYTE   W04
 BYTE   BEND   c_v-3
 BYTE   W04
 BYTE   En3
 BYTE   W04
 BYTE   N11  As4
 BYTE   W12
 BYTE   Fs4
 BYTE   W12
 BYTE   Fn4
 BYTE   W04
 BYTE   BEND   c_v+3
 BYTE   W04
 BYTE   En3
 BYTE   W04
 BYTE   N11  Ds4
 BYTE   W12
 BYTE   Fs4  v112
 BYTE   W08
// 018   ----------------------------------------
 BYTE   W04
 BYTE   N88  Fn4
 BYTE   W04
 BYTE   BEND   c_v+4
 BYTE   W04
 BYTE   En3
 BYTE   W48
 BYTE   W04
 BYTE   W04
 BYTE   W04
 BYTE   W04
 BYTE   W04
 BYTE   W04
 BYTE   W04
 BYTE   W04
 BYTE   W04
// 019   ----------------------------------------
 BYTE   W16
 BYTE   W48
 BYTE   N11  As3  v108
 BYTE   W12
 BYTE   Cs4  v112
 BYTE   W04
 BYTE   BEND   c_v-3
 BYTE   W04
 BYTE   En3
 BYTE   W04
 BYTE   N11  As3  v108
 BYTE   W04
 BYTE   BEND   c_v+3
 BYTE   W04
// 020   ----------------------------------------
 BYTE   En3
 BYTE   W04
 BYTE   N11  Cs4
 BYTE   W12
 BYTE   N52  Ds4  v112
 BYTE   W04
 BYTE   BEND   c_v+4
 BYTE   W04
 BYTE   En3
 BYTE   W12
 BYTE   W04
 BYTE   W04
 BYTE   W04
 BYTE   W04
 BYTE   W04
 BYTE   W04
 BYTE   W04
 BYTE   W04
 BYTE   W08
 BYTE   W20
// 021   ----------------------------------------
 BYTE   W04
 BYTE   N11
 BYTE   W12
 BYTE   As4  v108
 BYTE   W12
 BYTE   An4  v112
 BYTE   W04
 BYTE   BEND   c_v+4
 BYTE   W04
 BYTE   En3
 BYTE   W04
 BYTE   N23  Gs4  v108
 BYTE   W04
 BYTE   BEND   c_v+3
 BYTE   W04
 BYTE   En3
 BYTE   W16
 BYTE   N11  Gn4  v112
 BYTE   W04
 BYTE   BEND   c_v-3
 BYTE   W04
 BYTE   En3
 BYTE   W04
 BYTE   N17  Fs4  v108
 BYTE   W18
 BYTE   N05  As3
 BYTE   W02
// 022   ----------------------------------------
 BYTE   W04
 BYTE   N11  Cs4
 BYTE   W12
 BYTE   N52  Ds4  v112
 BYTE   W04
 BYTE   BEND   c_v+4
 BYTE   W04
 BYTE   En3
 BYTE   W16
 BYTE   W04
 BYTE   W04
 BYTE   W04
 BYTE   W04
 BYTE   W04
 BYTE   W04
 BYTE   W04
 BYTE   W01
 BYTE   W16
 BYTE   W11
// 023   ----------------------------------------
 BYTE   GoTo
  POIN2 Label_5_013E281E
 BYTE   FINE

//**************** Track 7 (Midi-Chn.6) ****************//

PokemonBWDriftveilCityFeier_007:
// 000   ----------------------------------------
 BYTE   KEYSH   PokemonBWDriftveilCityFeier_key+0
 BYTE   VOICE   11
 BYTE   VOL   52*PokemonBWDriftveilCityFeier_mvl/mxv
 BYTE   PAN   c_v+10
 BYTE   MOD 0
 BYTE   CnM2
 BYTE   W96
// 001   ----------------------------------------
Label_6_013E264F:
 BYTE   W96
// 002   ----------------------------------------
 BYTE   W96
// 003   ----------------------------------------
 BYTE   W96
// 004   ----------------------------------------
 BYTE   W96
// 005   ----------------------------------------
 BYTE   W96
// 006   ----------------------------------------
 BYTE   W96
// 007   ----------------------------------------
 BYTE   W96
// 008   ----------------------------------------
 BYTE   W96
// 009   ----------------------------------------
 BYTE   W96
// 010   ----------------------------------------
 BYTE   W60
 BYTE   N05  Ds4  v112
 BYTE   W06
 BYTE   Ds4  v072
 BYTE   W06
 BYTE   Cs4  v112
 BYTE   W06
 BYTE   Cs4  v072
 BYTE   W06
 BYTE   Fs4  v112
 BYTE   W06
 BYTE   Fs4  v068
 BYTE   W06
// 011   ----------------------------------------
 BYTE   Ds4  v112
 BYTE   W06
 BYTE   Ds4  v068
 BYTE   W06
 BYTE   Ds4  v040
 BYTE   W12
 BYTE   As3  v112
 BYTE   W06
 BYTE   As3  v068
 BYTE   W06
 BYTE   Cs4  v112
 BYTE   W06
 BYTE   Cs4  v068
 BYTE   W06
 BYTE   Cs4  v040
 BYTE   W12
 BYTE   Ds4  v112
 BYTE   W06
 BYTE   Ds4  v068
 BYTE   W06
 BYTE   As3  v112
 BYTE   W06
 BYTE   As3  v068
 BYTE   W06
 BYTE   Cs4  v112
 BYTE   W06
 BYTE   Cs4  v068
 BYTE   W06
// 012   ----------------------------------------
 BYTE   Fs4  v112
 BYTE   W06
 BYTE   Fs4  v068
 BYTE   W06
 BYTE   Fs4  v040
 BYTE   W12
 BYTE   As3  v112
 BYTE   W06
 BYTE   As3  v068
 BYTE   W06
 BYTE   Cs4  v112
 BYTE   W06
 BYTE   Cs4  v068
 BYTE   W06
 BYTE   Cs4  v040
 BYTE   W12
 BYTE   Ds4  v112
 BYTE   W06
 BYTE   Ds4  v068
 BYTE   W06
 BYTE   As3  v112
 BYTE   W06
 BYTE   As3  v068
 BYTE   W06
 BYTE   Cs4  v112
 BYTE   W06
 BYTE   Cs4  v068
 BYTE   W06
// 013   ----------------------------------------
 BYTE   Ds4  v112
 BYTE   W06
 BYTE   Ds4  v068
 BYTE   W06
 BYTE   Ds4  v040
 BYTE   W12
 BYTE   As3  v112
 BYTE   W06
 BYTE   As3  v068
 BYTE   W06
 BYTE   Cs4  v112
 BYTE   W06
 BYTE   Cs4  v068
 BYTE   W06
 BYTE   Cs4  v040
 BYTE   W12
 BYTE   Fs4  v112
 BYTE   W06
 BYTE   Fs4  v068
 BYTE   W06
 BYTE   As3  v112
 BYTE   W06
 BYTE   As3  v068
 BYTE   W06
 BYTE   Cs4  v112
 BYTE   W06
 BYTE   As3
 BYTE   W06
// 014   ----------------------------------------
 BYTE   Cs4
 BYTE   W06
 BYTE   Cs4  v068
 BYTE   W06
 BYTE   Ds4  v112
 BYTE   W06
 BYTE   Ds4  v068
 BYTE   W06
 BYTE   Ds4  v040
 BYTE   W72
// 015   ----------------------------------------
 BYTE   W96
// 016   ----------------------------------------
 BYTE   W96
// 017   ----------------------------------------
 BYTE   W96
// 018   ----------------------------------------
 BYTE   W96
// 019   ----------------------------------------
 BYTE   W96
// 020   ----------------------------------------
 BYTE   W96
// 021   ----------------------------------------
 BYTE   W96
// 022   ----------------------------------------
 BYTE   W96
// 023   ----------------------------------------
 BYTE   GoTo
  POIN2 Label_6_013E264F
 BYTE   FINE

//**************** Track 8 (Midi-Chn.7) ****************//

PokemonBWDriftveilCityFeier_008:
// 000   ----------------------------------------
 BYTE   KEYSH   PokemonBWDriftveilCityFeier_key+0
 BYTE   VOICE   124
 BYTE   VOL   0*PokemonBWDriftveilCityFeier_mvl/mxv
 BYTE   PAN   c_v+0
 BYTE   MOD 0
 BYTE   CnM2
 BYTE   W48
 BYTE   N44  Dn0  v112
 BYTE   W48
// 001   ----------------------------------------
Label_7_013E2487:
 BYTE   N11  Bn0  v124
 BYTE   W12
 BYTE   N11
 BYTE   W12
 BYTE   N11
 BYTE   W72
 BYTE   PEND 
// 002   ----------------------------------------
Label_7_013E2490:
 BYTE   N11  Bn0  v124
 BYTE   N05  Gs2  v112
 BYTE   W12
 BYTE   Cs3  v116
 BYTE   W12
 BYTE   Gs2  v112
 BYTE   W12
 BYTE   N11  Bn0  v124
 BYTE   N05  Cs3  v116
 BYTE   W12
 BYTE   N11  Bn0  v124
 BYTE   N05  Gs2  v112
 BYTE   W12
 BYTE   Cn3  v116
 BYTE   W12
 BYTE   Gs2  v112
 BYTE   W12
 BYTE   Cs3  v116
 BYTE   W12
 BYTE   PEND 
 BYTE   PATT
  POIN2 Label_7_013E2490
 BYTE   PATT
  POIN2 Label_7_013E2490
 BYTE   PATT
  POIN2 Label_7_013E2490
 BYTE   PATT
  POIN2 Label_7_013E2490
 BYTE   PATT
  POIN2 Label_7_013E2490
// 003   ----------------------------------------
 BYTE   N11  Bn0  v124
 BYTE   N05  Gs2  v112
 BYTE   W24
 BYTE   N11  Bn0  v124
 BYTE   N05  Gs2  v112
 BYTE   W24
 BYTE   N05
 BYTE   W06
 BYTE   N05
 BYTE   W06
 BYTE   N11  Bn0  v124
 BYTE   N05  Cn3  v116
 BYTE   W06
 BYTE   N05
 BYTE   W06
 BYTE   Gs2  v112
 BYTE   W12
 BYTE   Cs3  v116
 BYTE   W12
// 004   ----------------------------------------
 BYTE   N11  Bn0  v124
 BYTE   N05  Gs2  v112
 BYTE   W12
 BYTE   Cs3  v116
 BYTE   W12
 BYTE   Gs2  v112
 BYTE   W12
 BYTE   N11  Bn0  v124
 BYTE   N05  Cs3  v116
 BYTE   W12
 BYTE   N11  Bn0  v124
 BYTE   N05  Gs2  v112
 BYTE   W12
 BYTE   Cn3  v116
 BYTE   W12
 BYTE   Gs2  v112
 BYTE   W12
 BYTE   Cn3  v116
 BYTE   W12
 BYTE   PATT
  POIN2 Label_7_013E2487
// 005   ----------------------------------------
Label_7_013E2518:
 BYTE   N11  Bn0  v124
 BYTE   N05  Fn3  v127
 BYTE   W12
 BYTE   N11  Bn0  v124
 BYTE   N05  As3  v127
 BYTE   W12
 BYTE   Fn3
 BYTE   W12
 BYTE   N11  Bn0  v124
 BYTE   N05  As3  v127
 BYTE   W12
 BYTE   Gs2  v100
 BYTE   W12
 BYTE   N11  Bn0  v124
 BYTE   N05  As3  v127
 BYTE   W12
 BYTE   Fn3
 BYTE   W06
 BYTE   N05
 BYTE   W06
 BYTE   N11  Bn0  v124
 BYTE   N05  As3  v127
 BYTE   W12
 BYTE   PEND 
 BYTE   PATT
  POIN2 Label_7_013E2518
 BYTE   PATT
  POIN2 Label_7_013E2518
 BYTE   PATT
  POIN2 Label_7_013E2518
 BYTE   PATT
  POIN2 Label_7_013E2518
 BYTE   PATT
  POIN2 Label_7_013E2518
 BYTE   PATT
  POIN2 Label_7_013E2518
 BYTE   PATT
  POIN2 Label_7_013E2518
// 006   ----------------------------------------
 BYTE   N05  Bn0  v124
 BYTE   W12
 BYTE   N05
 BYTE   W12
 BYTE   N11
 BYTE   W36
 BYTE   N11
 BYTE   W24
 BYTE   N11
 BYTE   W12
// 007   ----------------------------------------
 BYTE   N11
 BYTE   W96
// 008   ----------------------------------------
 BYTE   W96
// 009   ----------------------------------------
 BYTE   W48
 BYTE   N44  Dn0  v112
 BYTE   W48
// 010   ----------------------------------------
 BYTE   GoTo
  POIN2 Label_7_013E2487
 BYTE   FINE

//**************** Track 9 (Midi-Chn.8) ****************//

PokemonBWDriftveilCityFeier_009:
// 000   ----------------------------------------
 BYTE   KEYSH   PokemonBWDriftveilCityFeier_key+0
 BYTE   VOICE   127
 BYTE   VOL   52*PokemonBWDriftveilCityFeier_mvl/mxv
 BYTE   PAN   c_v+0
 BYTE   MOD 0
 BYTE   CnM2
 BYTE   W96
// 001   ----------------------------------------
Label_8_013E361F:
 BYTE   N05  Cs1  v124
 BYTE   W12
 BYTE   N05
 BYTE   W12
 BYTE   N05
 BYTE   N17  Cs2  v116
 BYTE   W36
 BYTE   N05  Cs1  v124
 BYTE   W12
 BYTE   N11  En1  v112
 BYTE   N17  Cs2  v116
 BYTE   W12
 BYTE   N05  Cs1  v124
 BYTE   W12
// 002   ----------------------------------------
Label_8_013E3639:
 BYTE   N05  Cs1  v124
 BYTE   W24
 BYTE   N11  En1  v112
 BYTE   W12
 BYTE   N05  Cs1  v124
 BYTE   W12
 BYTE   N05
 BYTE   W24
 BYTE   N11  En1  v112
 BYTE   W24
 BYTE   PEND 
// 003   ----------------------------------------
Label_8_013E364C:
 BYTE   N05  Cs1  v124
 BYTE   W24
 BYTE   N11  En1  v112
 BYTE   W12
 BYTE   N05  Cs1  v124
 BYTE   W12
 BYTE   N05
 BYTE   W12
 BYTE   N05
 BYTE   W12
 BYTE   N11  En1  v112
 BYTE   W24
 BYTE   PEND 
 BYTE   PATT
  POIN2 Label_8_013E3639
 BYTE   PATT
  POIN2 Label_8_013E364C
 BYTE   PATT
  POIN2 Label_8_013E3639
 BYTE   PATT
  POIN2 Label_8_013E364C
// 004   ----------------------------------------
 BYTE   N11  En1  v112
 BYTE   W12
 BYTE   N05  Cs1  v124
 BYTE   W12
 BYTE   N11  En1  v112
 BYTE   W12
 BYTE   N05  Cs1  v124
 BYTE   W24
 BYTE   N05
 BYTE   W12
 BYTE   N11  En1  v112
 BYTE   W24
 BYTE   PATT
  POIN2 Label_8_013E364C
// 005   ----------------------------------------
 BYTE   N05  Cs1  v124
 BYTE   W12
 BYTE   N05
 BYTE   W12
 BYTE   N05
 BYTE   W12
 BYTE   Fn1  v116
 BYTE   W06
 BYTE   En1  v112
 BYTE   W06
 BYTE   Dn1  v116
 BYTE   W06
 BYTE   N11  En1  v112
 BYTE   W06
 BYTE   N05  Cs1  v124
 BYTE   W12
 BYTE   N11  En1  v112
 BYTE   N17  Cs2  v116
 BYTE   W12
 BYTE   N05  Cs1  v124
 BYTE   W12
// 006   ----------------------------------------
Label_8_013E36B4:
 BYTE   N05  Cs1  v124
 BYTE   N23  Cs2  v116
 BYTE   W12
 BYTE   N05  Cs1  v124
 BYTE   W12
 BYTE   N11  En1  v112
 BYTE   W12
 BYTE   N05  Cs1  v124
 BYTE   W06
 BYTE   En1  v112
 BYTE   W18
 BYTE   Cs1  v124
 BYTE   W12
 BYTE   N11  En1  v112
 BYTE   W12
 BYTE   N05  Cs1  v124
 BYTE   W12
 BYTE   PEND 
// 007   ----------------------------------------
Label_8_013E36D6:
 BYTE   N05  Cs1  v124
 BYTE   W12
 BYTE   N05
 BYTE   W12
 BYTE   N11  En1  v112
 BYTE   W12
 BYTE   N05  Cs1  v124
 BYTE   W24
 BYTE   N05
 BYTE   W12
 BYTE   En1  v112
 BYTE   W06
 BYTE   Cs1  v124
 BYTE   W06
 BYTE   N11  En1  v112
 BYTE   W12
 BYTE   PEND 
 BYTE   PATT
  POIN2 Label_8_013E36B4
// 008   ----------------------------------------
 BYTE   N05  Cs1  v124
 BYTE   W12
 BYTE   N05
 BYTE   W12
 BYTE   N11  En1  v112
 BYTE   W12
 BYTE   N05  Cs1  v124
 BYTE   N05  Fn1  v116
 BYTE   W06
 BYTE   En1  v112
 BYTE   W06
 BYTE   Dn1  v116
 BYTE   W06
 BYTE   N11  En1  v112
 BYTE   W06
 BYTE   N05  Cs1  v124
 BYTE   W12
 BYTE   N11  En1  v112
 BYTE   W12
 BYTE   N05  Cs1  v124
 BYTE   W12
 BYTE   PATT
  POIN2 Label_8_013E36B4
// 009   ----------------------------------------
 BYTE   N05  Cs1  v124
 BYTE   W12
 BYTE   N05
 BYTE   W12
 BYTE   N11  En1  v112
 BYTE   W12
 BYTE   N05  Cs1  v124
 BYTE   W24
 BYTE   N05
 BYTE   N11  Cs2  v116
 BYTE   W12
 BYTE   N05  En1  v112
 BYTE   W06
 BYTE   Cs1  v124
 BYTE   W06
 BYTE   N11  En1  v112
 BYTE   W12
 BYTE   PATT
  POIN2 Label_8_013E36B4
 BYTE   PATT
  POIN2 Label_8_013E36D6
// 010   ----------------------------------------
 BYTE   N05  En1  v112
 BYTE   W12
 BYTE   N05
 BYTE   W12
 BYTE   N11
 BYTE   N17  Cs2  v116
 BYTE   W12
 BYTE   N05  Fn1
 BYTE   W06
 BYTE   N05
 BYTE   W06
 BYTE   Dn1
 BYTE   W06
 BYTE   En1  v112
 BYTE   W06
 BYTE   Cs1  v124
 BYTE   W12
 BYTE   N11  En1  v112
 BYTE   N17  Cs2  v116
 BYTE   W12
 BYTE   N05  Cs1  v124
 BYTE   W12
// 011   ----------------------------------------
 BYTE   N05
 BYTE   N17  Cs2  v116
 BYTE   W24
 BYTE   N11  En1  v112
 BYTE   W12
 BYTE   N05  Cs1  v124
 BYTE   W12
 BYTE   N05
 BYTE   W12
 BYTE   N05
 BYTE   W12
 BYTE   N11  En1  v112
 BYTE   W12
 BYTE   N05  Ds1  v116
 BYTE   W06
 BYTE   Fn1
 BYTE   W06
// 012   ----------------------------------------
 BYTE   Cs1  v124
 BYTE   W18
 BYTE   N05
 BYTE   W06
 BYTE   N11  En1  v112
 BYTE   W12
 BYTE   N05  Cs1  v124
 BYTE   W12
 BYTE   N05
 BYTE   W12
 BYTE   N05
 BYTE   W12
 BYTE   En1  v112
 BYTE   W06
 BYTE   N05
 BYTE   W06
 BYTE   N11  Ds1  v116
 BYTE   W12
// 013   ----------------------------------------
 BYTE   N05  Cs1  v124
 BYTE   N17  Cs2  v116
 BYTE   W12
 BYTE   N05  Cs1  v124
 BYTE   W12
 BYTE   En1  v116
 BYTE   W06
 BYTE   Cs1  v127
 BYTE   W06
 BYTE   N11  En1  v116
 BYTE   W12
 BYTE   N05  Cs1  v127
 BYTE   W12
 BYTE   N05
 BYTE   W12
 BYTE   En1  v116
 BYTE   W12
 BYTE   Cs1  v127
 BYTE   W12
// 014   ----------------------------------------
 BYTE   GoTo
  POIN2 Label_8_013E361F
 BYTE   FINE

//******************************************************//
	ALIGN 4

PokemonBWDriftveilCityFeier:
	BYTE	9	// NumTrks
	BYTE	0	// NumBlks
	BYTE	PokemonBWDriftveilCityFeier_pri	// Priority
	BYTE	PokemonBWDriftveilCityFeier_rev	// Reverb.
    
	POIN2	PokemonBWDriftveilCityFeier_grp
    
	POIN2	PokemonBWDriftveilCityFeier_001
	POIN2	PokemonBWDriftveilCityFeier_002
	POIN2	PokemonBWDriftveilCityFeier_003
	POIN2	PokemonBWDriftveilCityFeier_004
	POIN2	PokemonBWDriftveilCityFeier_005
	POIN2	PokemonBWDriftveilCityFeier_006
	POIN2	PokemonBWDriftveilCityFeier_007
	POIN2	PokemonBWDriftveilCityFeier_008
	POIN2	PokemonBWDriftveilCityFeier_009

	
