//Event file generated from Sappy .s format.
	#include "MPlayDef.event"

	#define	PokemonMysteryDungeonExplorersofSkyTimeGear_grp  voicegroup000
	#define	PokemonMysteryDungeonExplorersofSkyTimeGear_pri  0
	#define	PokemonMysteryDungeonExplorersofSkyTimeGear_rev  0
	#define	PokemonMysteryDungeonExplorersofSkyTimeGear_mvl  127
	#define	PokemonMysteryDungeonExplorersofSkyTimeGear_key  0
	#define	PokemonMysteryDungeonExplorersofSkyTimeGear_tbs  1
	#define	PokemonMysteryDungeonExplorersofSkyTimeGear_exg  0
	#define	PokemonMysteryDungeonExplorersofSkyTimeGear_cmp  1

	// .rodata
	//	PokemonMysteryDungeonExplorersofSkyTimeGear
	ALIGN 4


//**************** Track 1 (Midi-Chn.0) ****************//

PokemonMysteryDungeonExplorersofSkyTimeGear_001:
//  #01 //000   ----------------------------------------
 BYTE   KEYSH   PokemonMysteryDungeonExplorersofSkyTimeGear_key+0
 BYTE   TEMPO   86*PokemonMysteryDungeonExplorersofSkyTimeGear_tbs/2
 BYTE   VOICE   73
 BYTE   MODT 0
 BYTE   LFOS 44
 BYTE   VOL   43*PokemonMysteryDungeonExplorersofSkyTimeGear_mvl/mxv
 BYTE   PAN   c_v+0
 BYTE   W96
//  #01 //001   ----------------------------------------
 BYTE   W96
//  #01 //002   ----------------------------------------
 BYTE   W96
//  #01 //003   ----------------------------------------
 BYTE   W96
//  #01 //004   ----------------------------------------
 BYTE   W96
//  #01 //005   ----------------------------------------
 BYTE   W96
//  #01 //006   ----------------------------------------
Label_016931F0:
 BYTE   VOL   43*PokemonMysteryDungeonExplorersofSkyTimeGear_mvl/mxv
 BYTE   W96
//  #01 //007   ----------------------------------------
 BYTE   W96
//  #01 //008   ----------------------------------------
 BYTE   W96
//  #01 //009   ----------------------------------------
 BYTE   W96
//  #01 //010   ----------------------------------------
 BYTE   W96
//  #01 //011   ----------------------------------------
 BYTE   W96
//  #01 //012   ----------------------------------------
 BYTE   W96
//  #01 //013   ----------------------------------------
 BYTE   W96
//  #01 //014   ----------------------------------------
 BYTE   W96
//  #01 //015   ----------------------------------------
 BYTE   W96
//  #01 //016   ----------------------------------------
 BYTE   W96
//  #01 //017   ----------------------------------------
 BYTE   W96
//  #01 //018   ----------------------------------------
 BYTE   W96
//  #01 //019   ----------------------------------------
 BYTE   W96
//  #01 //020   ----------------------------------------
 BYTE   W96
//  #01 //021   ----------------------------------------
 BYTE   W96
//  #01 //022   ----------------------------------------
 BYTE   W96
//  #01 //023   ----------------------------------------
 BYTE   W44
 BYTE   W03
 BYTE   VOL   43*PokemonMysteryDungeonExplorersofSkyTimeGear_mvl/mxv
 BYTE   W13
 BYTE   N12  Dn5  v127
 BYTE   W12
 BYTE   N06
 BYTE   W06
 BYTE   Fs5
 BYTE   W06
 BYTE   Gn5
 BYTE   W06
 BYTE   An5
 BYTE   W06
//  #01 //024   ----------------------------------------
Label_01693213:
 BYTE   N18  Bn5  v127
 BYTE   W18
 BYTE   N06  Bn5  v044
 BYTE   W06
 BYTE   An5  v127
 BYTE   W06
 BYTE   Gn5
 BYTE   W06
 BYTE   N12  Fs5
 BYTE   W12
 BYTE   Dn5
 BYTE   W12
 BYTE   Fs5
 BYTE   W12
 BYTE   En5
 BYTE   W12
 BYTE   Bn4
 BYTE   W12
 BYTE   PEND 
//  #01 //025   ----------------------------------------
Label_0169322C:
 BYTE   N12  An4  v127
 BYTE   W12
 BYTE   N06  Bn4
 BYTE   W06
 BYTE   Bn4  v044
 BYTE   W06
 BYTE   En5  v127
 BYTE   W06
 BYTE   Fs5
 BYTE   W06
 BYTE   Gn5
 BYTE   W06
 BYTE   An5
 BYTE   W06
 BYTE   N18  Bn5
 BYTE   W18
 BYTE   N06  Bn5  v044
 BYTE   W06
 BYTE   An5  v127
 BYTE   W06
 BYTE   Gn5
 BYTE   W06
 BYTE   N12  Fs5
 BYTE   W12
 BYTE   PEND 
//  #01 //026   ----------------------------------------
Label_0169324F:
 BYTE   N12  Dn5  v127
 BYTE   W12
 BYTE   Fs5
 BYTE   W12
 BYTE   En5
 BYTE   W12
 BYTE   Bn5
 BYTE   W12
 BYTE   An5
 BYTE   W12
 BYTE   N06  Bn5
 BYTE   W06
 BYTE   Bn5  v044
 BYTE   W06
 BYTE   En5  v127
 BYTE   W06
 BYTE   Fs5
 BYTE   W06
 BYTE   Gn5
 BYTE   W06
 BYTE   An5
 BYTE   W06
 BYTE   PEND 
//  #01 //027   ----------------------------------------
 BYTE   PATT
  POIN2 Label_01693213
//  #01 //028   ----------------------------------------
 BYTE   N12  An4  v127
 BYTE   W12
 BYTE   Bn4
 BYTE   W12
 BYTE   Bn4  v044
 BYTE   W12
 BYTE   N06  Bn4  v127
 BYTE   W06
 BYTE   Dn5
 BYTE   W06
 BYTE   N24  En5
 BYTE   W24
 BYTE   N12  Gn5
 BYTE   W12
 BYTE   Fs5
 BYTE   W12
//  #01 //029   ----------------------------------------
 BYTE   En5
 BYTE   W12
 BYTE   Dn5
 BYTE   W12
 BYTE   N36  Bn4
 BYTE   W36
 BYTE   N12  Bn4  v044
 BYTE   W12
 BYTE   N06  En5  v127
 BYTE   W06
 BYTE   Fs5
 BYTE   W06
 BYTE   Gn5
 BYTE   W06
 BYTE   An5
 BYTE   W06
//  #01 //030   ----------------------------------------
 BYTE   PATT
  POIN2 Label_01693213
//  #01 //031   ----------------------------------------
 BYTE   PATT
  POIN2 Label_0169322C
//  #01 //032   ----------------------------------------
 BYTE   PATT
  POIN2 Label_0169324F
//  #01 //033   ----------------------------------------
 BYTE   PATT
  POIN2 Label_01693213
//  #01 //034   ----------------------------------------
 BYTE   N12  An4  v127
 BYTE   W12
 BYTE   Bn4
 BYTE   W12
 BYTE   An4
 BYTE   W12
 BYTE   Gn4
 BYTE   W12
 BYTE   N60  En4
 BYTE   W48
//  #01 //035   ----------------------------------------
 BYTE   W12
 BYTE   N12  En4  v044
 BYTE   W12
 BYTE   N24  En4  v127
 BYTE   W24
 BYTE   N12  Gn4
 BYTE   W12
 BYTE   Fs4
 BYTE   W12
 BYTE   En4
 BYTE   W12
 BYTE   Dn4
 BYTE   W12
//  #01 //036   ----------------------------------------
 BYTE   TIE  En4
 BYTE   W04
 BYTE   VOL   38*PokemonMysteryDungeonExplorersofSkyTimeGear_mvl/mxv
 BYTE   W06
 BYTE   VOL   37*PokemonMysteryDungeonExplorersofSkyTimeGear_mvl/mxv
 BYTE   W06
 BYTE   VOL   37*PokemonMysteryDungeonExplorersofSkyTimeGear_mvl/mxv
 BYTE   W03
 BYTE   VOL   37*PokemonMysteryDungeonExplorersofSkyTimeGear_mvl/mxv
 BYTE   W03
 BYTE   VOL   37*PokemonMysteryDungeonExplorersofSkyTimeGear_mvl/mxv
 BYTE   W12
 BYTE   VOL   35*PokemonMysteryDungeonExplorersofSkyTimeGear_mvl/mxv
 BYTE   W03
 BYTE   VOL   34*PokemonMysteryDungeonExplorersofSkyTimeGear_mvl/mxv
 BYTE   W08
 BYTE   VOL   34*PokemonMysteryDungeonExplorersofSkyTimeGear_mvl/mxv
 BYTE   W09
 BYTE   VOL   34*PokemonMysteryDungeonExplorersofSkyTimeGear_mvl/mxv
 BYTE   W06
 BYTE   VOL   32*PokemonMysteryDungeonExplorersofSkyTimeGear_mvl/mxv
 BYTE   W03
 BYTE   VOL   32*PokemonMysteryDungeonExplorersofSkyTimeGear_mvl/mxv
 BYTE   W03
 BYTE   VOL   31*PokemonMysteryDungeonExplorersofSkyTimeGear_mvl/mxv
 BYTE   W03
 BYTE   VOL   30*PokemonMysteryDungeonExplorersofSkyTimeGear_mvl/mxv
 BYTE   W06
 BYTE   VOL   29*PokemonMysteryDungeonExplorersofSkyTimeGear_mvl/mxv
 BYTE   W04
 BYTE   VOL   28*PokemonMysteryDungeonExplorersofSkyTimeGear_mvl/mxv
 BYTE   W03
 BYTE   VOL   27*PokemonMysteryDungeonExplorersofSkyTimeGear_mvl/mxv
 BYTE   W03
 BYTE   VOL   27*PokemonMysteryDungeonExplorersofSkyTimeGear_mvl/mxv
 BYTE   W03
 BYTE   VOL   25*PokemonMysteryDungeonExplorersofSkyTimeGear_mvl/mxv
 BYTE   W03
 BYTE   VOL   24*PokemonMysteryDungeonExplorersofSkyTimeGear_mvl/mxv
 BYTE   W03
 BYTE   VOL   22*PokemonMysteryDungeonExplorersofSkyTimeGear_mvl/mxv
 BYTE   W02
//  #01 //037   ----------------------------------------
 BYTE   W01
 BYTE   VOL   21*PokemonMysteryDungeonExplorersofSkyTimeGear_mvl/mxv
 BYTE   W03
 BYTE   VOL   20*PokemonMysteryDungeonExplorersofSkyTimeGear_mvl/mxv
 BYTE   W03
 BYTE   VOL   18*PokemonMysteryDungeonExplorersofSkyTimeGear_mvl/mxv
 BYTE   W03
 BYTE   VOL   16*PokemonMysteryDungeonExplorersofSkyTimeGear_mvl/mxv
 BYTE   W03
 BYTE   VOL   15*PokemonMysteryDungeonExplorersofSkyTimeGear_mvl/mxv
 BYTE   W05
 BYTE   VOL   14*PokemonMysteryDungeonExplorersofSkyTimeGear_mvl/mxv
 BYTE   W03
 BYTE   VOL   13*PokemonMysteryDungeonExplorersofSkyTimeGear_mvl/mxv
 BYTE   W03
 BYTE   VOL   11*PokemonMysteryDungeonExplorersofSkyTimeGear_mvl/mxv
 BYTE   W03
 BYTE   VOL   10*PokemonMysteryDungeonExplorersofSkyTimeGear_mvl/mxv
 BYTE   W03
 BYTE   VOL   6*PokemonMysteryDungeonExplorersofSkyTimeGear_mvl/mxv
 BYTE   W03
 BYTE   VOL   6*PokemonMysteryDungeonExplorersofSkyTimeGear_mvl/mxv
 BYTE   W03
 BYTE   VOL   6*PokemonMysteryDungeonExplorersofSkyTimeGear_mvl/mxv
 BYTE   W03
 BYTE   VOL   4*PokemonMysteryDungeonExplorersofSkyTimeGear_mvl/mxv
 BYTE   W03
 BYTE   VOL   3*PokemonMysteryDungeonExplorersofSkyTimeGear_mvl/mxv
 BYTE   W03
 BYTE   VOL   1*PokemonMysteryDungeonExplorersofSkyTimeGear_mvl/mxv
 BYTE   W03
 BYTE   EOT
 BYTE   W48
//  #01 //038   ----------------------------------------
 BYTE   W96
//  #01 //039   ----------------------------------------
 BYTE   W96
//  #01 //040   ----------------------------------------
 BYTE   W96
//  #01 //041   ----------------------------------------
 BYTE   W96
//  #01 //042   ----------------------------------------
 BYTE   GoTo
  POIN2 Label_016931F0
 BYTE   FINE

//**************** Track 2 (Midi-Chn.1) ****************//

PokemonMysteryDungeonExplorersofSkyTimeGear_002:
//  #02 //000   ----------------------------------------
 BYTE   KEYSH   PokemonMysteryDungeonExplorersofSkyTimeGear_key+0
 BYTE   VOICE   73
 BYTE   MODT 0
 BYTE   LFOS 44
 BYTE   VOL   17*PokemonMysteryDungeonExplorersofSkyTimeGear_mvl/mxv
 BYTE   PAN   c_v-64
 BYTE   W96
//  #02 //001   ----------------------------------------
 BYTE   W96
//  #02 //002   ----------------------------------------
 BYTE   W96
//  #02 //003   ----------------------------------------
 BYTE   W96
//  #02 //004   ----------------------------------------
 BYTE   W96
//  #02 //005   ----------------------------------------
 BYTE   W96
//  #02 //006   ----------------------------------------
Label_0169333A:
 BYTE   VOL   17*PokemonMysteryDungeonExplorersofSkyTimeGear_mvl/mxv
 BYTE   W96
//  #02 //007   ----------------------------------------
 BYTE   W96
//  #02 //008   ----------------------------------------
 BYTE   W96
//  #02 //009   ----------------------------------------
 BYTE   W96
//  #02 //010   ----------------------------------------
 BYTE   W96
//  #02 //011   ----------------------------------------
 BYTE   W96
//  #02 //012   ----------------------------------------
 BYTE   W96
//  #02 //013   ----------------------------------------
 BYTE   W96
//  #02 //014   ----------------------------------------
 BYTE   W96
//  #02 //015   ----------------------------------------
 BYTE   W96
//  #02 //016   ----------------------------------------
 BYTE   W96
//  #02 //017   ----------------------------------------
 BYTE   W96
//  #02 //018   ----------------------------------------
 BYTE   W96
//  #02 //019   ----------------------------------------
 BYTE   W96
//  #02 //020   ----------------------------------------
 BYTE   W96
//  #02 //021   ----------------------------------------
 BYTE   W96
//  #02 //022   ----------------------------------------
 BYTE   W96
//  #02 //023   ----------------------------------------
 BYTE   W56
 BYTE   W03
 BYTE   VOL   17*PokemonMysteryDungeonExplorersofSkyTimeGear_mvl/mxv
 BYTE   W13
 BYTE   N12  Dn5  v127
 BYTE   W12
 BYTE   N06
 BYTE   W06
 BYTE   Fs5
 BYTE   W06
//  #02 //024   ----------------------------------------
Label_01693359:
 BYTE   N06  Gn5  v127
 BYTE   W06
 BYTE   An5
 BYTE   W06
 BYTE   N18  Bn5
 BYTE   W18
 BYTE   N06  Bn5  v044
 BYTE   W06
 BYTE   An5  v127
 BYTE   W06
 BYTE   Gn5
 BYTE   W06
 BYTE   N12  Fs5
 BYTE   W12
 BYTE   Dn5
 BYTE   W12
 BYTE   Fs5
 BYTE   W12
 BYTE   En5
 BYTE   W12
 BYTE   PEND 
//  #02 //025   ----------------------------------------
Label_01693375:
 BYTE   N12  Bn4  v127
 BYTE   W12
 BYTE   An4
 BYTE   W12
 BYTE   N06  Bn4
 BYTE   W06
 BYTE   Bn4  v044
 BYTE   W06
 BYTE   En5  v127
 BYTE   W06
 BYTE   Fs5
 BYTE   W06
 BYTE   Gn5
 BYTE   W06
 BYTE   An5
 BYTE   W06
 BYTE   N18  Bn5
 BYTE   W18
 BYTE   N06  Bn5  v044
 BYTE   W06
 BYTE   An5  v127
 BYTE   W06
 BYTE   Gn5
 BYTE   W06
 BYTE   PEND 
//  #02 //026   ----------------------------------------
Label_01693397:
 BYTE   N12  Fs5  v127
 BYTE   W12
 BYTE   Dn5
 BYTE   W12
 BYTE   Fs5
 BYTE   W12
 BYTE   En5
 BYTE   W12
 BYTE   Bn5
 BYTE   W12
 BYTE   An5
 BYTE   W12
 BYTE   N06  Bn5
 BYTE   W06
 BYTE   Bn5  v044
 BYTE   W06
 BYTE   En5  v127
 BYTE   W06
 BYTE   Fs5
 BYTE   W06
 BYTE   PEND 
//  #02 //027   ----------------------------------------
 BYTE   PATT
  POIN2 Label_01693359
//  #02 //028   ----------------------------------------
 BYTE   N12  Bn4  v127
 BYTE   W12
 BYTE   An4
 BYTE   W12
 BYTE   Bn4
 BYTE   W12
 BYTE   Bn4  v044
 BYTE   W12
 BYTE   N06  Bn4  v127
 BYTE   W06
 BYTE   Dn5
 BYTE   W06
 BYTE   N24  En5
 BYTE   W24
 BYTE   N12  Gn5
 BYTE   W12
//  #02 //029   ----------------------------------------
 BYTE   Fs5
 BYTE   W12
 BYTE   En5
 BYTE   W12
 BYTE   Dn5
 BYTE   W12
 BYTE   N36  Bn4
 BYTE   W36
 BYTE   N12  Bn4  v044
 BYTE   W12
 BYTE   N06  En5  v127
 BYTE   W06
 BYTE   Fs5
 BYTE   W06
//  #02 //030   ----------------------------------------
 BYTE   PATT
  POIN2 Label_01693359
//  #02 //031   ----------------------------------------
 BYTE   PATT
  POIN2 Label_01693375
//  #02 //032   ----------------------------------------
 BYTE   PATT
  POIN2 Label_01693397
//  #02 //033   ----------------------------------------
 BYTE   PATT
  POIN2 Label_01693359
//  #02 //034   ----------------------------------------
 BYTE   N12  Bn4  v127
 BYTE   W12
 BYTE   An4
 BYTE   W12
 BYTE   Bn4
 BYTE   W12
 BYTE   An4
 BYTE   W12
 BYTE   Gn4
 BYTE   W12
 BYTE   N60  En4
 BYTE   W36
//  #02 //035   ----------------------------------------
 BYTE   W24
 BYTE   N12  En4  v044
 BYTE   W12
 BYTE   N24  En4  v127
 BYTE   W24
 BYTE   N12  Gn4
 BYTE   W12
 BYTE   Fs4
 BYTE   W12
 BYTE   En4
 BYTE   W12
//  #02 //036   ----------------------------------------
 BYTE   Dn4
 BYTE   W12
 BYTE   TIE  En4
 BYTE   W04
 BYTE   VOL   15*PokemonMysteryDungeonExplorersofSkyTimeGear_mvl/mxv
 BYTE   W06
 BYTE   VOL   14*PokemonMysteryDungeonExplorersofSkyTimeGear_mvl/mxv
 BYTE   W06
 BYTE   VOL   14*PokemonMysteryDungeonExplorersofSkyTimeGear_mvl/mxv
 BYTE   W03
 BYTE   VOL   14*PokemonMysteryDungeonExplorersofSkyTimeGear_mvl/mxv
 BYTE   W03
 BYTE   VOL   14*PokemonMysteryDungeonExplorersofSkyTimeGear_mvl/mxv
 BYTE   W12
 BYTE   VOL   13*PokemonMysteryDungeonExplorersofSkyTimeGear_mvl/mxv
 BYTE   W03
 BYTE   VOL   13*PokemonMysteryDungeonExplorersofSkyTimeGear_mvl/mxv
 BYTE   W08
 BYTE   VOL   13*PokemonMysteryDungeonExplorersofSkyTimeGear_mvl/mxv
 BYTE   W09
 BYTE   VOL   13*PokemonMysteryDungeonExplorersofSkyTimeGear_mvl/mxv
 BYTE   W06
 BYTE   VOL   12*PokemonMysteryDungeonExplorersofSkyTimeGear_mvl/mxv
 BYTE   W03
 BYTE   VOL   12*PokemonMysteryDungeonExplorersofSkyTimeGear_mvl/mxv
 BYTE   W03
 BYTE   VOL   11*PokemonMysteryDungeonExplorersofSkyTimeGear_mvl/mxv
 BYTE   W03
 BYTE   VOL   11*PokemonMysteryDungeonExplorersofSkyTimeGear_mvl/mxv
 BYTE   W06
 BYTE   VOL   11*PokemonMysteryDungeonExplorersofSkyTimeGear_mvl/mxv
 BYTE   W04
 BYTE   VOL   11*PokemonMysteryDungeonExplorersofSkyTimeGear_mvl/mxv
 BYTE   W03
 BYTE   VOL   10*PokemonMysteryDungeonExplorersofSkyTimeGear_mvl/mxv
 BYTE   W02
//  #02 //037   ----------------------------------------
 BYTE   W01
 BYTE   VOL   10*PokemonMysteryDungeonExplorersofSkyTimeGear_mvl/mxv
 BYTE   W03
 BYTE   VOL   10*PokemonMysteryDungeonExplorersofSkyTimeGear_mvl/mxv
 BYTE   W03
 BYTE   VOL   10*PokemonMysteryDungeonExplorersofSkyTimeGear_mvl/mxv
 BYTE   W03
 BYTE   VOL   8*PokemonMysteryDungeonExplorersofSkyTimeGear_mvl/mxv
 BYTE   W03
 BYTE   VOL   8*PokemonMysteryDungeonExplorersofSkyTimeGear_mvl/mxv
 BYTE   W03
 BYTE   VOL   8*PokemonMysteryDungeonExplorersofSkyTimeGear_mvl/mxv
 BYTE   W03
 BYTE   VOL   6*PokemonMysteryDungeonExplorersofSkyTimeGear_mvl/mxv
 BYTE   W03
 BYTE   VOL   6*PokemonMysteryDungeonExplorersofSkyTimeGear_mvl/mxv
 BYTE   W03
 BYTE   VOL   6*PokemonMysteryDungeonExplorersofSkyTimeGear_mvl/mxv
 BYTE   W05
 BYTE   VOL   5*PokemonMysteryDungeonExplorersofSkyTimeGear_mvl/mxv
 BYTE   W03
 BYTE   VOL   5*PokemonMysteryDungeonExplorersofSkyTimeGear_mvl/mxv
 BYTE   W03
 BYTE   VOL   4*PokemonMysteryDungeonExplorersofSkyTimeGear_mvl/mxv
 BYTE   W03
 BYTE   VOL   3*PokemonMysteryDungeonExplorersofSkyTimeGear_mvl/mxv
 BYTE   W03
 BYTE   VOL   2*PokemonMysteryDungeonExplorersofSkyTimeGear_mvl/mxv
 BYTE   W03
 BYTE   VOL   2*PokemonMysteryDungeonExplorersofSkyTimeGear_mvl/mxv
 BYTE   W03
 BYTE   VOL   2*PokemonMysteryDungeonExplorersofSkyTimeGear_mvl/mxv
 BYTE   W03
 BYTE   VOL   1*PokemonMysteryDungeonExplorersofSkyTimeGear_mvl/mxv
 BYTE   W03
 BYTE   VOL   1*PokemonMysteryDungeonExplorersofSkyTimeGear_mvl/mxv
 BYTE   W03
 BYTE   VOL   0*PokemonMysteryDungeonExplorersofSkyTimeGear_mvl/mxv
 BYTE   W03
 BYTE   EOT
 BYTE   W36
//  #02 //038   ----------------------------------------
 BYTE   W96
//  #02 //039   ----------------------------------------
 BYTE   W96
//  #02 //040   ----------------------------------------
 BYTE   W96
//  #02 //041   ----------------------------------------
 BYTE   W96
//  #02 //042   ----------------------------------------
 BYTE   GoTo
  POIN2 Label_0169333A
 BYTE   FINE

//**************** Track 3 (Midi-Chn.2) ****************//

PokemonMysteryDungeonExplorersofSkyTimeGear_003:
//  #03 //000   ----------------------------------------
 BYTE   KEYSH   PokemonMysteryDungeonExplorersofSkyTimeGear_key+0
 BYTE   VOICE   32
 BYTE   MODT 0
 BYTE   LFOS 44
 BYTE   VOL   34*PokemonMysteryDungeonExplorersofSkyTimeGear_mvl/mxv
 BYTE   PAN   c_v+0
 BYTE   VOL   0*PokemonMysteryDungeonExplorersofSkyTimeGear_mvl/mxv
 BYTE   TIE  An1  v100
 BYTE   W02
 BYTE   VOL   0*PokemonMysteryDungeonExplorersofSkyTimeGear_mvl/mxv
 BYTE   W01
 BYTE   VOL   0*PokemonMysteryDungeonExplorersofSkyTimeGear_mvl/mxv
 BYTE   W02
 BYTE   VOL   0*PokemonMysteryDungeonExplorersofSkyTimeGear_mvl/mxv
 BYTE   W01
 BYTE   VOL   0*PokemonMysteryDungeonExplorersofSkyTimeGear_mvl/mxv
 BYTE   W02
 BYTE   VOL   0*PokemonMysteryDungeonExplorersofSkyTimeGear_mvl/mxv
 BYTE   W01
 BYTE   VOL   0*PokemonMysteryDungeonExplorersofSkyTimeGear_mvl/mxv
 BYTE   W02
 BYTE   VOL   0*PokemonMysteryDungeonExplorersofSkyTimeGear_mvl/mxv
 BYTE   W01
 BYTE   VOL   0*PokemonMysteryDungeonExplorersofSkyTimeGear_mvl/mxv
 BYTE   W02
 BYTE   VOL   0*PokemonMysteryDungeonExplorersofSkyTimeGear_mvl/mxv
 BYTE   W01
 BYTE   VOL   1*PokemonMysteryDungeonExplorersofSkyTimeGear_mvl/mxv
 BYTE   W02
 BYTE   VOL   1*PokemonMysteryDungeonExplorersofSkyTimeGear_mvl/mxv
 BYTE   W01
 BYTE   VOL   1*PokemonMysteryDungeonExplorersofSkyTimeGear_mvl/mxv
 BYTE   W02
 BYTE   VOL   1*PokemonMysteryDungeonExplorersofSkyTimeGear_mvl/mxv
 BYTE   W01
 BYTE   VOL   1*PokemonMysteryDungeonExplorersofSkyTimeGear_mvl/mxv
 BYTE   W02
 BYTE   VOL   1*PokemonMysteryDungeonExplorersofSkyTimeGear_mvl/mxv
 BYTE   W01
 BYTE   VOL   1*PokemonMysteryDungeonExplorersofSkyTimeGear_mvl/mxv
 BYTE   W02
 BYTE   VOL   1*PokemonMysteryDungeonExplorersofSkyTimeGear_mvl/mxv
 BYTE   W01
 BYTE   VOL   1*PokemonMysteryDungeonExplorersofSkyTimeGear_mvl/mxv
 BYTE   W02
 BYTE   VOL   2*PokemonMysteryDungeonExplorersofSkyTimeGear_mvl/mxv
 BYTE   W01
 BYTE   VOL   2*PokemonMysteryDungeonExplorersofSkyTimeGear_mvl/mxv
 BYTE   W02
 BYTE   VOL   2*PokemonMysteryDungeonExplorersofSkyTimeGear_mvl/mxv
 BYTE   W01
 BYTE   VOL   2*PokemonMysteryDungeonExplorersofSkyTimeGear_mvl/mxv
 BYTE   W02
 BYTE   VOL   3*PokemonMysteryDungeonExplorersofSkyTimeGear_mvl/mxv
 BYTE   W01
 BYTE   VOL   3*PokemonMysteryDungeonExplorersofSkyTimeGear_mvl/mxv
 BYTE   W02
 BYTE   VOL   3*PokemonMysteryDungeonExplorersofSkyTimeGear_mvl/mxv
 BYTE   W01
 BYTE   VOL   3*PokemonMysteryDungeonExplorersofSkyTimeGear_mvl/mxv
 BYTE   W02
 BYTE   VOL   3*PokemonMysteryDungeonExplorersofSkyTimeGear_mvl/mxv
 BYTE   W01
 BYTE   VOL   3*PokemonMysteryDungeonExplorersofSkyTimeGear_mvl/mxv
 BYTE   W02
 BYTE   VOL   3*PokemonMysteryDungeonExplorersofSkyTimeGear_mvl/mxv
 BYTE   W01
 BYTE   VOL   4*PokemonMysteryDungeonExplorersofSkyTimeGear_mvl/mxv
 BYTE   W02
 BYTE   VOL   4*PokemonMysteryDungeonExplorersofSkyTimeGear_mvl/mxv
 BYTE   W01
 BYTE   VOL   4*PokemonMysteryDungeonExplorersofSkyTimeGear_mvl/mxv
 BYTE   W02
 BYTE   VOL   5*PokemonMysteryDungeonExplorersofSkyTimeGear_mvl/mxv
 BYTE   W01
 BYTE   VOL   5*PokemonMysteryDungeonExplorersofSkyTimeGear_mvl/mxv
 BYTE   W02
 BYTE   VOL   5*PokemonMysteryDungeonExplorersofSkyTimeGear_mvl/mxv
 BYTE   W01
 BYTE   VOL   5*PokemonMysteryDungeonExplorersofSkyTimeGear_mvl/mxv
 BYTE   W02
 BYTE   VOL   5*PokemonMysteryDungeonExplorersofSkyTimeGear_mvl/mxv
 BYTE   W01
 BYTE   VOL   6*PokemonMysteryDungeonExplorersofSkyTimeGear_mvl/mxv
 BYTE   W02
 BYTE   VOL   6*PokemonMysteryDungeonExplorersofSkyTimeGear_mvl/mxv
 BYTE   W01
 BYTE   VOL   6*PokemonMysteryDungeonExplorersofSkyTimeGear_mvl/mxv
 BYTE   W02
 BYTE   VOL   6*PokemonMysteryDungeonExplorersofSkyTimeGear_mvl/mxv
 BYTE   W01
 BYTE   VOL   6*PokemonMysteryDungeonExplorersofSkyTimeGear_mvl/mxv
 BYTE   W02
 BYTE   VOL   6*PokemonMysteryDungeonExplorersofSkyTimeGear_mvl/mxv
 BYTE   W01
 BYTE   VOL   7*PokemonMysteryDungeonExplorersofSkyTimeGear_mvl/mxv
 BYTE   W02
 BYTE   VOL   7*PokemonMysteryDungeonExplorersofSkyTimeGear_mvl/mxv
 BYTE   W01
 BYTE   VOL   8*PokemonMysteryDungeonExplorersofSkyTimeGear_mvl/mxv
 BYTE   W02
 BYTE   VOL   8*PokemonMysteryDungeonExplorersofSkyTimeGear_mvl/mxv
 BYTE   W01
 BYTE   VOL   8*PokemonMysteryDungeonExplorersofSkyTimeGear_mvl/mxv
 BYTE   W02
 BYTE   VOL   8*PokemonMysteryDungeonExplorersofSkyTimeGear_mvl/mxv
 BYTE   W01
 BYTE   VOL   8*PokemonMysteryDungeonExplorersofSkyTimeGear_mvl/mxv
 BYTE   W02
 BYTE   VOL   9*PokemonMysteryDungeonExplorersofSkyTimeGear_mvl/mxv
 BYTE   W01
 BYTE   VOL   10*PokemonMysteryDungeonExplorersofSkyTimeGear_mvl/mxv
 BYTE   W02
 BYTE   VOL   10*PokemonMysteryDungeonExplorersofSkyTimeGear_mvl/mxv
 BYTE   W01
 BYTE   VOL   10*PokemonMysteryDungeonExplorersofSkyTimeGear_mvl/mxv
 BYTE   W02
 BYTE   VOL   10*PokemonMysteryDungeonExplorersofSkyTimeGear_mvl/mxv
 BYTE   W01
 BYTE   VOL   10*PokemonMysteryDungeonExplorersofSkyTimeGear_mvl/mxv
 BYTE   W02
 BYTE   VOL   11*PokemonMysteryDungeonExplorersofSkyTimeGear_mvl/mxv
 BYTE   W01
 BYTE   VOL   11*PokemonMysteryDungeonExplorersofSkyTimeGear_mvl/mxv
 BYTE   W02
 BYTE   VOL   11*PokemonMysteryDungeonExplorersofSkyTimeGear_mvl/mxv
 BYTE   W01
 BYTE   VOL   11*PokemonMysteryDungeonExplorersofSkyTimeGear_mvl/mxv
 BYTE   W02
 BYTE   VOL   12*PokemonMysteryDungeonExplorersofSkyTimeGear_mvl/mxv
 BYTE   W01
 BYTE   VOL   12*PokemonMysteryDungeonExplorersofSkyTimeGear_mvl/mxv
 BYTE   W02
 BYTE   VOL   13*PokemonMysteryDungeonExplorersofSkyTimeGear_mvl/mxv
 BYTE   W01
//  #03 //001   ----------------------------------------
Label_016934FD:
 BYTE   VOL   13*PokemonMysteryDungeonExplorersofSkyTimeGear_mvl/mxv
 BYTE   W02
 BYTE   VOL   13*PokemonMysteryDungeonExplorersofSkyTimeGear_mvl/mxv
 BYTE   W01
 BYTE   VOL   13*PokemonMysteryDungeonExplorersofSkyTimeGear_mvl/mxv
 BYTE   W02
 BYTE   VOL   14*PokemonMysteryDungeonExplorersofSkyTimeGear_mvl/mxv
 BYTE   W01
 BYTE   VOL   14*PokemonMysteryDungeonExplorersofSkyTimeGear_mvl/mxv
 BYTE   W02
 BYTE   VOL   14*PokemonMysteryDungeonExplorersofSkyTimeGear_mvl/mxv
 BYTE   W01
 BYTE   VOL   15*PokemonMysteryDungeonExplorersofSkyTimeGear_mvl/mxv
 BYTE   W02
 BYTE   VOL   15*PokemonMysteryDungeonExplorersofSkyTimeGear_mvl/mxv
 BYTE   W01
 BYTE   VOL   15*PokemonMysteryDungeonExplorersofSkyTimeGear_mvl/mxv
 BYTE   W02
 BYTE   VOL   17*PokemonMysteryDungeonExplorersofSkyTimeGear_mvl/mxv
 BYTE   W01
 BYTE   VOL   17*PokemonMysteryDungeonExplorersofSkyTimeGear_mvl/mxv
 BYTE   W02
 BYTE   VOL   17*PokemonMysteryDungeonExplorersofSkyTimeGear_mvl/mxv
 BYTE   W01
 BYTE   VOL   17*PokemonMysteryDungeonExplorersofSkyTimeGear_mvl/mxv
 BYTE   W02
 BYTE   VOL   18*PokemonMysteryDungeonExplorersofSkyTimeGear_mvl/mxv
 BYTE   W01
 BYTE   VOL   18*PokemonMysteryDungeonExplorersofSkyTimeGear_mvl/mxv
 BYTE   W02
 BYTE   VOL   18*PokemonMysteryDungeonExplorersofSkyTimeGear_mvl/mxv
 BYTE   W01
 BYTE   VOL   19*PokemonMysteryDungeonExplorersofSkyTimeGear_mvl/mxv
 BYTE   W02
 BYTE   VOL   19*PokemonMysteryDungeonExplorersofSkyTimeGear_mvl/mxv
 BYTE   W01
 BYTE   VOL   19*PokemonMysteryDungeonExplorersofSkyTimeGear_mvl/mxv
 BYTE   W02
 BYTE   VOL   20*PokemonMysteryDungeonExplorersofSkyTimeGear_mvl/mxv
 BYTE   W01
 BYTE   VOL   20*PokemonMysteryDungeonExplorersofSkyTimeGear_mvl/mxv
 BYTE   W02
 BYTE   VOL   20*PokemonMysteryDungeonExplorersofSkyTimeGear_mvl/mxv
 BYTE   W01
 BYTE   VOL   20*PokemonMysteryDungeonExplorersofSkyTimeGear_mvl/mxv
 BYTE   W02
 BYTE   VOL   21*PokemonMysteryDungeonExplorersofSkyTimeGear_mvl/mxv
 BYTE   W01
 BYTE   VOL   21*PokemonMysteryDungeonExplorersofSkyTimeGear_mvl/mxv
 BYTE   W02
 BYTE   VOL   22*PokemonMysteryDungeonExplorersofSkyTimeGear_mvl/mxv
 BYTE   W01
 BYTE   VOL   22*PokemonMysteryDungeonExplorersofSkyTimeGear_mvl/mxv
 BYTE   W02
 BYTE   VOL   22*PokemonMysteryDungeonExplorersofSkyTimeGear_mvl/mxv
 BYTE   W01
 BYTE   VOL   23*PokemonMysteryDungeonExplorersofSkyTimeGear_mvl/mxv
 BYTE   W02
 BYTE   VOL   23*PokemonMysteryDungeonExplorersofSkyTimeGear_mvl/mxv
 BYTE   W01
 BYTE   VOL   24*PokemonMysteryDungeonExplorersofSkyTimeGear_mvl/mxv
 BYTE   W02
 BYTE   VOL   24*PokemonMysteryDungeonExplorersofSkyTimeGear_mvl/mxv
 BYTE   W01
 BYTE   VOL   25*PokemonMysteryDungeonExplorersofSkyTimeGear_mvl/mxv
 BYTE   W02
 BYTE   VOL   25*PokemonMysteryDungeonExplorersofSkyTimeGear_mvl/mxv
 BYTE   W01
 BYTE   VOL   26*PokemonMysteryDungeonExplorersofSkyTimeGear_mvl/mxv
 BYTE   W02
 BYTE   VOL   27*PokemonMysteryDungeonExplorersofSkyTimeGear_mvl/mxv
 BYTE   W01
 BYTE   VOL   27*PokemonMysteryDungeonExplorersofSkyTimeGear_mvl/mxv
 BYTE   W02
 BYTE   VOL   27*PokemonMysteryDungeonExplorersofSkyTimeGear_mvl/mxv
 BYTE   W01
 BYTE   VOL   28*PokemonMysteryDungeonExplorersofSkyTimeGear_mvl/mxv
 BYTE   W02
 BYTE   VOL   28*PokemonMysteryDungeonExplorersofSkyTimeGear_mvl/mxv
 BYTE   W01
 BYTE   VOL   28*PokemonMysteryDungeonExplorersofSkyTimeGear_mvl/mxv
 BYTE   W02
 BYTE   VOL   29*PokemonMysteryDungeonExplorersofSkyTimeGear_mvl/mxv
 BYTE   W01
 BYTE   VOL   29*PokemonMysteryDungeonExplorersofSkyTimeGear_mvl/mxv
 BYTE   W02
 BYTE   VOL   29*PokemonMysteryDungeonExplorersofSkyTimeGear_mvl/mxv
 BYTE   W01
 BYTE   VOL   30*PokemonMysteryDungeonExplorersofSkyTimeGear_mvl/mxv
 BYTE   W02
 BYTE   VOL   30*PokemonMysteryDungeonExplorersofSkyTimeGear_mvl/mxv
 BYTE   W13
 BYTE   VOL   29*PokemonMysteryDungeonExplorersofSkyTimeGear_mvl/mxv
 BYTE   W05
 BYTE   VOL   29*PokemonMysteryDungeonExplorersofSkyTimeGear_mvl/mxv
 BYTE   W10
 BYTE   PEND 
//  #03 //002   ----------------------------------------
Label_0169355F:
 BYTE   W02
 BYTE   VOL   29*PokemonMysteryDungeonExplorersofSkyTimeGear_mvl/mxv
 BYTE   W01
 BYTE   VOL   28*PokemonMysteryDungeonExplorersofSkyTimeGear_mvl/mxv
 BYTE   W03
 BYTE   VOL   28*PokemonMysteryDungeonExplorersofSkyTimeGear_mvl/mxv
 BYTE   W05
 BYTE   VOL   27*PokemonMysteryDungeonExplorersofSkyTimeGear_mvl/mxv
 BYTE   W07
 BYTE   VOL   27*PokemonMysteryDungeonExplorersofSkyTimeGear_mvl/mxv
 BYTE   W02
 BYTE   VOL   27*PokemonMysteryDungeonExplorersofSkyTimeGear_mvl/mxv
 BYTE   W07
 BYTE   VOL   26*PokemonMysteryDungeonExplorersofSkyTimeGear_mvl/mxv
 BYTE   W05
 BYTE   VOL   25*PokemonMysteryDungeonExplorersofSkyTimeGear_mvl/mxv
 BYTE   W01
 BYTE   VOL   24*PokemonMysteryDungeonExplorersofSkyTimeGear_mvl/mxv
 BYTE   W03
 BYTE   VOL   23*PokemonMysteryDungeonExplorersofSkyTimeGear_mvl/mxv
 BYTE   W02
 BYTE   VOL   23*PokemonMysteryDungeonExplorersofSkyTimeGear_mvl/mxv
 BYTE   W03
 BYTE   VOL   22*PokemonMysteryDungeonExplorersofSkyTimeGear_mvl/mxv
 BYTE   W03
 BYTE   VOL   22*PokemonMysteryDungeonExplorersofSkyTimeGear_mvl/mxv
 BYTE   W01
 BYTE   VOL   21*PokemonMysteryDungeonExplorersofSkyTimeGear_mvl/mxv
 BYTE   W03
 BYTE   VOL   20*PokemonMysteryDungeonExplorersofSkyTimeGear_mvl/mxv
 BYTE   W02
 BYTE   VOL   20*PokemonMysteryDungeonExplorersofSkyTimeGear_mvl/mxv
 BYTE   W03
 BYTE   VOL   20*PokemonMysteryDungeonExplorersofSkyTimeGear_mvl/mxv
 BYTE   W01
 BYTE   VOL   19*PokemonMysteryDungeonExplorersofSkyTimeGear_mvl/mxv
 BYTE   W03
 BYTE   VOL   18*PokemonMysteryDungeonExplorersofSkyTimeGear_mvl/mxv
 BYTE   W02
 BYTE   VOL   18*PokemonMysteryDungeonExplorersofSkyTimeGear_mvl/mxv
 BYTE   W03
 BYTE   VOL   17*PokemonMysteryDungeonExplorersofSkyTimeGear_mvl/mxv
 BYTE   W01
 BYTE   VOL   15*PokemonMysteryDungeonExplorersofSkyTimeGear_mvl/mxv
 BYTE   W03
 BYTE   VOL   14*PokemonMysteryDungeonExplorersofSkyTimeGear_mvl/mxv
 BYTE   W02
 BYTE   VOL   14*PokemonMysteryDungeonExplorersofSkyTimeGear_mvl/mxv
 BYTE   W03
 BYTE   VOL   13*PokemonMysteryDungeonExplorersofSkyTimeGear_mvl/mxv
 BYTE   W03
 BYTE   VOL   11*PokemonMysteryDungeonExplorersofSkyTimeGear_mvl/mxv
 BYTE   W01
 BYTE   VOL   11*PokemonMysteryDungeonExplorersofSkyTimeGear_mvl/mxv
 BYTE   W03
 BYTE   VOL   10*PokemonMysteryDungeonExplorersofSkyTimeGear_mvl/mxv
 BYTE   W02
 BYTE   VOL   10*PokemonMysteryDungeonExplorersofSkyTimeGear_mvl/mxv
 BYTE   W03
 BYTE   VOL   9*PokemonMysteryDungeonExplorersofSkyTimeGear_mvl/mxv
 BYTE   W01
 BYTE   VOL   8*PokemonMysteryDungeonExplorersofSkyTimeGear_mvl/mxv
 BYTE   W03
 BYTE   VOL   5*PokemonMysteryDungeonExplorersofSkyTimeGear_mvl/mxv
 BYTE   W02
 BYTE   VOL   5*PokemonMysteryDungeonExplorersofSkyTimeGear_mvl/mxv
 BYTE   W03
 BYTE   VOL   3*PokemonMysteryDungeonExplorersofSkyTimeGear_mvl/mxv
 BYTE   W03
 BYTE   PEND 
 BYTE   EOT
 BYTE   An1
 BYTE   VOL   0*PokemonMysteryDungeonExplorersofSkyTimeGear_mvl/mxv
 BYTE   W01
//  #03 //003   ----------------------------------------
Label_016935AB:
 BYTE   TIE  Gn1  v100
 BYTE   W02
 BYTE   VOL   0*PokemonMysteryDungeonExplorersofSkyTimeGear_mvl/mxv
 BYTE   W01
 BYTE   VOL   0*PokemonMysteryDungeonExplorersofSkyTimeGear_mvl/mxv
 BYTE   W02
 BYTE   VOL   0*PokemonMysteryDungeonExplorersofSkyTimeGear_mvl/mxv
 BYTE   W01
 BYTE   VOL   0*PokemonMysteryDungeonExplorersofSkyTimeGear_mvl/mxv
 BYTE   W02
 BYTE   VOL   0*PokemonMysteryDungeonExplorersofSkyTimeGear_mvl/mxv
 BYTE   W01
 BYTE   VOL   0*PokemonMysteryDungeonExplorersofSkyTimeGear_mvl/mxv
 BYTE   W02
 BYTE   VOL   0*PokemonMysteryDungeonExplorersofSkyTimeGear_mvl/mxv
 BYTE   W01
 BYTE   VOL   0*PokemonMysteryDungeonExplorersofSkyTimeGear_mvl/mxv
 BYTE   W02
 BYTE   VOL   0*PokemonMysteryDungeonExplorersofSkyTimeGear_mvl/mxv
 BYTE   W01
 BYTE   VOL   1*PokemonMysteryDungeonExplorersofSkyTimeGear_mvl/mxv
 BYTE   W02
 BYTE   VOL   1*PokemonMysteryDungeonExplorersofSkyTimeGear_mvl/mxv
 BYTE   W01
 BYTE   VOL   1*PokemonMysteryDungeonExplorersofSkyTimeGear_mvl/mxv
 BYTE   W02
 BYTE   VOL   1*PokemonMysteryDungeonExplorersofSkyTimeGear_mvl/mxv
 BYTE   W01
 BYTE   VOL   1*PokemonMysteryDungeonExplorersofSkyTimeGear_mvl/mxv
 BYTE   W02
 BYTE   VOL   1*PokemonMysteryDungeonExplorersofSkyTimeGear_mvl/mxv
 BYTE   W01
 BYTE   VOL   1*PokemonMysteryDungeonExplorersofSkyTimeGear_mvl/mxv
 BYTE   W02
 BYTE   VOL   1*PokemonMysteryDungeonExplorersofSkyTimeGear_mvl/mxv
 BYTE   W01
 BYTE   VOL   1*PokemonMysteryDungeonExplorersofSkyTimeGear_mvl/mxv
 BYTE   W02
 BYTE   VOL   2*PokemonMysteryDungeonExplorersofSkyTimeGear_mvl/mxv
 BYTE   W01
 BYTE   VOL   2*PokemonMysteryDungeonExplorersofSkyTimeGear_mvl/mxv
 BYTE   W02
 BYTE   VOL   2*PokemonMysteryDungeonExplorersofSkyTimeGear_mvl/mxv
 BYTE   W01
 BYTE   VOL   2*PokemonMysteryDungeonExplorersofSkyTimeGear_mvl/mxv
 BYTE   W02
 BYTE   VOL   3*PokemonMysteryDungeonExplorersofSkyTimeGear_mvl/mxv
 BYTE   W01
 BYTE   VOL   3*PokemonMysteryDungeonExplorersofSkyTimeGear_mvl/mxv
 BYTE   W02
 BYTE   VOL   3*PokemonMysteryDungeonExplorersofSkyTimeGear_mvl/mxv
 BYTE   W01
 BYTE   VOL   3*PokemonMysteryDungeonExplorersofSkyTimeGear_mvl/mxv
 BYTE   W02
 BYTE   VOL   3*PokemonMysteryDungeonExplorersofSkyTimeGear_mvl/mxv
 BYTE   W01
 BYTE   VOL   3*PokemonMysteryDungeonExplorersofSkyTimeGear_mvl/mxv
 BYTE   W02
 BYTE   VOL   3*PokemonMysteryDungeonExplorersofSkyTimeGear_mvl/mxv
 BYTE   W01
 BYTE   VOL   4*PokemonMysteryDungeonExplorersofSkyTimeGear_mvl/mxv
 BYTE   W02
 BYTE   VOL   4*PokemonMysteryDungeonExplorersofSkyTimeGear_mvl/mxv
 BYTE   W01
 BYTE   VOL   4*PokemonMysteryDungeonExplorersofSkyTimeGear_mvl/mxv
 BYTE   W02
 BYTE   VOL   5*PokemonMysteryDungeonExplorersofSkyTimeGear_mvl/mxv
 BYTE   W01
 BYTE   VOL   5*PokemonMysteryDungeonExplorersofSkyTimeGear_mvl/mxv
 BYTE   W02
 BYTE   VOL   5*PokemonMysteryDungeonExplorersofSkyTimeGear_mvl/mxv
 BYTE   W01
 BYTE   VOL   5*PokemonMysteryDungeonExplorersofSkyTimeGear_mvl/mxv
 BYTE   W02
 BYTE   VOL   5*PokemonMysteryDungeonExplorersofSkyTimeGear_mvl/mxv
 BYTE   W01
 BYTE   VOL   6*PokemonMysteryDungeonExplorersofSkyTimeGear_mvl/mxv
 BYTE   W02
 BYTE   VOL   6*PokemonMysteryDungeonExplorersofSkyTimeGear_mvl/mxv
 BYTE   W01
 BYTE   VOL   6*PokemonMysteryDungeonExplorersofSkyTimeGear_mvl/mxv
 BYTE   W02
 BYTE   VOL   6*PokemonMysteryDungeonExplorersofSkyTimeGear_mvl/mxv
 BYTE   W01
 BYTE   VOL   6*PokemonMysteryDungeonExplorersofSkyTimeGear_mvl/mxv
 BYTE   W02
 BYTE   VOL   6*PokemonMysteryDungeonExplorersofSkyTimeGear_mvl/mxv
 BYTE   W01
 BYTE   VOL   7*PokemonMysteryDungeonExplorersofSkyTimeGear_mvl/mxv
 BYTE   W02
 BYTE   VOL   7*PokemonMysteryDungeonExplorersofSkyTimeGear_mvl/mxv
 BYTE   W01
 BYTE   VOL   8*PokemonMysteryDungeonExplorersofSkyTimeGear_mvl/mxv
 BYTE   W02
 BYTE   VOL   8*PokemonMysteryDungeonExplorersofSkyTimeGear_mvl/mxv
 BYTE   W01
 BYTE   VOL   8*PokemonMysteryDungeonExplorersofSkyTimeGear_mvl/mxv
 BYTE   W02
 BYTE   VOL   8*PokemonMysteryDungeonExplorersofSkyTimeGear_mvl/mxv
 BYTE   W01
 BYTE   VOL   8*PokemonMysteryDungeonExplorersofSkyTimeGear_mvl/mxv
 BYTE   W02
 BYTE   VOL   9*PokemonMysteryDungeonExplorersofSkyTimeGear_mvl/mxv
 BYTE   W01
 BYTE   VOL   10*PokemonMysteryDungeonExplorersofSkyTimeGear_mvl/mxv
 BYTE   W02
 BYTE   VOL   10*PokemonMysteryDungeonExplorersofSkyTimeGear_mvl/mxv
 BYTE   W01
 BYTE   VOL   10*PokemonMysteryDungeonExplorersofSkyTimeGear_mvl/mxv
 BYTE   W02
 BYTE   VOL   10*PokemonMysteryDungeonExplorersofSkyTimeGear_mvl/mxv
 BYTE   W01
 BYTE   VOL   10*PokemonMysteryDungeonExplorersofSkyTimeGear_mvl/mxv
 BYTE   W02
 BYTE   VOL   11*PokemonMysteryDungeonExplorersofSkyTimeGear_mvl/mxv
 BYTE   W01
 BYTE   VOL   11*PokemonMysteryDungeonExplorersofSkyTimeGear_mvl/mxv
 BYTE   W02
 BYTE   VOL   11*PokemonMysteryDungeonExplorersofSkyTimeGear_mvl/mxv
 BYTE   W01
 BYTE   VOL   11*PokemonMysteryDungeonExplorersofSkyTimeGear_mvl/mxv
 BYTE   W02
 BYTE   VOL   12*PokemonMysteryDungeonExplorersofSkyTimeGear_mvl/mxv
 BYTE   W01
 BYTE   VOL   12*PokemonMysteryDungeonExplorersofSkyTimeGear_mvl/mxv
 BYTE   W02
 BYTE   VOL   13*PokemonMysteryDungeonExplorersofSkyTimeGear_mvl/mxv
 BYTE   W01
 BYTE   PEND 
//  #03 //004   ----------------------------------------
 BYTE   CsM1
 BYTE   W02
 BYTE   CsM1
 BYTE   W01
 BYTE   CsM1
 BYTE   W02
 BYTE   DnM1
 BYTE   W01
 BYTE   DnM1
 BYTE   W02
 BYTE   DnM1
 BYTE   W01
 BYTE   DsM1
 BYTE   W02
 BYTE   DsM1
 BYTE   W01
 BYTE   DsM1
 BYTE   W02
 BYTE   FnM1
 BYTE   W01
 BYTE   FnM1
 BYTE   W02
 BYTE   FnM1
 BYTE   W01
 BYTE   FnM1
 BYTE   W02
 BYTE   FsM1
 BYTE   W01
 BYTE   FsM1
 BYTE   W02
 BYTE   FsM1
 BYTE   W01
 BYTE   GnM1
 BYTE   W02
 BYTE   GnM1
 BYTE   W01
 BYTE   GnM1
 BYTE   W02
 BYTE   GsM1
 BYTE   W01
 BYTE   GsM1
 BYTE   W02
 BYTE   GsM1
 BYTE   W01
 BYTE   GsM1
 BYTE   W02
 BYTE   AnM1
 BYTE   W01
 BYTE   AnM1
 BYTE   W02
 BYTE   AsM1
 BYTE   W01
 BYTE   AsM1
 BYTE   W02
 BYTE   AsM1
 BYTE   W01
 BYTE   BnM1
 BYTE   W02
 BYTE   BnM1
 BYTE   W01
 BYTE   Cn0
 BYTE   W02
 BYTE   Cn0
 BYTE   W01
 BYTE   Cs0
 BYTE   W02
 BYTE   Cs0
 BYTE   W01
 BYTE   Dn0
 BYTE   W02
 BYTE   Ds0
 BYTE   W01
 BYTE   Ds0
 BYTE   W02
 BYTE   Ds0
 BYTE   W01
 BYTE   En0
 BYTE   W02
 BYTE   En0
 BYTE   W01
 BYTE   En0
 BYTE   W02
 BYTE   Fn0
 BYTE   W01
 BYTE   Fn0
 BYTE   W02
 BYTE   Fn0
 BYTE   W01
 BYTE   Fs0
 BYTE   W02
 BYTE   Fs0
 BYTE   W13
 BYTE   Fn0
 BYTE   W15
//  #03 //005   ----------------------------------------
 BYTE   PATT
  POIN2 Label_0169355F
//  #03 //006   ----------------------------------------
 BYTE   EOT
 BYTE   Gn1
 BYTE   VOL   0*PokemonMysteryDungeonExplorersofSkyTimeGear_mvl/mxv
 BYTE   W01
Label_01693697:
 BYTE   VOL   0*PokemonMysteryDungeonExplorersofSkyTimeGear_mvl/mxv
 BYTE   TIE  An1  v100
 BYTE   W02
 BYTE   VOL   0*PokemonMysteryDungeonExplorersofSkyTimeGear_mvl/mxv
 BYTE   W01
 BYTE   VOL   0*PokemonMysteryDungeonExplorersofSkyTimeGear_mvl/mxv
 BYTE   W02
 BYTE   VOL   0*PokemonMysteryDungeonExplorersofSkyTimeGear_mvl/mxv
 BYTE   W01
 BYTE   VOL   0*PokemonMysteryDungeonExplorersofSkyTimeGear_mvl/mxv
 BYTE   W02
 BYTE   VOL   0*PokemonMysteryDungeonExplorersofSkyTimeGear_mvl/mxv
 BYTE   W01
 BYTE   VOL   0*PokemonMysteryDungeonExplorersofSkyTimeGear_mvl/mxv
 BYTE   W02
 BYTE   VOL   0*PokemonMysteryDungeonExplorersofSkyTimeGear_mvl/mxv
 BYTE   W01
 BYTE   VOL   0*PokemonMysteryDungeonExplorersofSkyTimeGear_mvl/mxv
 BYTE   W02
 BYTE   VOL   0*PokemonMysteryDungeonExplorersofSkyTimeGear_mvl/mxv
 BYTE   W01
 BYTE   VOL   1*PokemonMysteryDungeonExplorersofSkyTimeGear_mvl/mxv
 BYTE   W02
 BYTE   VOL   1*PokemonMysteryDungeonExplorersofSkyTimeGear_mvl/mxv
 BYTE   W01
 BYTE   VOL   1*PokemonMysteryDungeonExplorersofSkyTimeGear_mvl/mxv
 BYTE   W02
 BYTE   VOL   1*PokemonMysteryDungeonExplorersofSkyTimeGear_mvl/mxv
 BYTE   W01
 BYTE   VOL   1*PokemonMysteryDungeonExplorersofSkyTimeGear_mvl/mxv
 BYTE   W02
 BYTE   VOL   1*PokemonMysteryDungeonExplorersofSkyTimeGear_mvl/mxv
 BYTE   W01
 BYTE   VOL   1*PokemonMysteryDungeonExplorersofSkyTimeGear_mvl/mxv
 BYTE   W02
 BYTE   VOL   1*PokemonMysteryDungeonExplorersofSkyTimeGear_mvl/mxv
 BYTE   W01
 BYTE   VOL   1*PokemonMysteryDungeonExplorersofSkyTimeGear_mvl/mxv
 BYTE   W02
 BYTE   VOL   2*PokemonMysteryDungeonExplorersofSkyTimeGear_mvl/mxv
 BYTE   W01
 BYTE   VOL   2*PokemonMysteryDungeonExplorersofSkyTimeGear_mvl/mxv
 BYTE   W02
 BYTE   VOL   2*PokemonMysteryDungeonExplorersofSkyTimeGear_mvl/mxv
 BYTE   W01
 BYTE   VOL   2*PokemonMysteryDungeonExplorersofSkyTimeGear_mvl/mxv
 BYTE   W02
 BYTE   VOL   3*PokemonMysteryDungeonExplorersofSkyTimeGear_mvl/mxv
 BYTE   W01
 BYTE   VOL   3*PokemonMysteryDungeonExplorersofSkyTimeGear_mvl/mxv
 BYTE   W02
 BYTE   VOL   3*PokemonMysteryDungeonExplorersofSkyTimeGear_mvl/mxv
 BYTE   W01
 BYTE   VOL   3*PokemonMysteryDungeonExplorersofSkyTimeGear_mvl/mxv
 BYTE   W02
 BYTE   VOL   3*PokemonMysteryDungeonExplorersofSkyTimeGear_mvl/mxv
 BYTE   W01
 BYTE   VOL   3*PokemonMysteryDungeonExplorersofSkyTimeGear_mvl/mxv
 BYTE   W02
 BYTE   VOL   3*PokemonMysteryDungeonExplorersofSkyTimeGear_mvl/mxv
 BYTE   W01
 BYTE   VOL   4*PokemonMysteryDungeonExplorersofSkyTimeGear_mvl/mxv
 BYTE   W02
 BYTE   VOL   4*PokemonMysteryDungeonExplorersofSkyTimeGear_mvl/mxv
 BYTE   W01
 BYTE   VOL   4*PokemonMysteryDungeonExplorersofSkyTimeGear_mvl/mxv
 BYTE   W02
 BYTE   VOL   5*PokemonMysteryDungeonExplorersofSkyTimeGear_mvl/mxv
 BYTE   W01
 BYTE   VOL   5*PokemonMysteryDungeonExplorersofSkyTimeGear_mvl/mxv
 BYTE   W02
 BYTE   VOL   5*PokemonMysteryDungeonExplorersofSkyTimeGear_mvl/mxv
 BYTE   W01
 BYTE   VOL   5*PokemonMysteryDungeonExplorersofSkyTimeGear_mvl/mxv
 BYTE   W02
 BYTE   VOL   5*PokemonMysteryDungeonExplorersofSkyTimeGear_mvl/mxv
 BYTE   W01
 BYTE   VOL   6*PokemonMysteryDungeonExplorersofSkyTimeGear_mvl/mxv
 BYTE   W02
 BYTE   VOL   6*PokemonMysteryDungeonExplorersofSkyTimeGear_mvl/mxv
 BYTE   W01
 BYTE   VOL   6*PokemonMysteryDungeonExplorersofSkyTimeGear_mvl/mxv
 BYTE   W02
 BYTE   VOL   6*PokemonMysteryDungeonExplorersofSkyTimeGear_mvl/mxv
 BYTE   W01
 BYTE   VOL   6*PokemonMysteryDungeonExplorersofSkyTimeGear_mvl/mxv
 BYTE   W02
 BYTE   VOL   6*PokemonMysteryDungeonExplorersofSkyTimeGear_mvl/mxv
 BYTE   W01
 BYTE   VOL   7*PokemonMysteryDungeonExplorersofSkyTimeGear_mvl/mxv
 BYTE   W02
 BYTE   VOL   7*PokemonMysteryDungeonExplorersofSkyTimeGear_mvl/mxv
 BYTE   W01
 BYTE   VOL   8*PokemonMysteryDungeonExplorersofSkyTimeGear_mvl/mxv
 BYTE   W02
 BYTE   VOL   8*PokemonMysteryDungeonExplorersofSkyTimeGear_mvl/mxv
 BYTE   W01
 BYTE   VOL   8*PokemonMysteryDungeonExplorersofSkyTimeGear_mvl/mxv
 BYTE   W02
 BYTE   VOL   8*PokemonMysteryDungeonExplorersofSkyTimeGear_mvl/mxv
 BYTE   W01
 BYTE   VOL   8*PokemonMysteryDungeonExplorersofSkyTimeGear_mvl/mxv
 BYTE   W02
 BYTE   VOL   9*PokemonMysteryDungeonExplorersofSkyTimeGear_mvl/mxv
 BYTE   W01
 BYTE   VOL   10*PokemonMysteryDungeonExplorersofSkyTimeGear_mvl/mxv
 BYTE   W02
 BYTE   VOL   10*PokemonMysteryDungeonExplorersofSkyTimeGear_mvl/mxv
 BYTE   W01
 BYTE   VOL   10*PokemonMysteryDungeonExplorersofSkyTimeGear_mvl/mxv
 BYTE   W02
 BYTE   VOL   10*PokemonMysteryDungeonExplorersofSkyTimeGear_mvl/mxv
 BYTE   W01
 BYTE   VOL   10*PokemonMysteryDungeonExplorersofSkyTimeGear_mvl/mxv
 BYTE   W02
 BYTE   VOL   11*PokemonMysteryDungeonExplorersofSkyTimeGear_mvl/mxv
 BYTE   W01
 BYTE   VOL   11*PokemonMysteryDungeonExplorersofSkyTimeGear_mvl/mxv
 BYTE   W02
 BYTE   VOL   11*PokemonMysteryDungeonExplorersofSkyTimeGear_mvl/mxv
 BYTE   W01
 BYTE   VOL   11*PokemonMysteryDungeonExplorersofSkyTimeGear_mvl/mxv
 BYTE   W02
 BYTE   VOL   12*PokemonMysteryDungeonExplorersofSkyTimeGear_mvl/mxv
 BYTE   W01
 BYTE   VOL   12*PokemonMysteryDungeonExplorersofSkyTimeGear_mvl/mxv
 BYTE   W02
//  #03 //007   ----------------------------------------
 BYTE   VOL   13*PokemonMysteryDungeonExplorersofSkyTimeGear_mvl/mxv
 BYTE   W01
//  #03 //008   ----------------------------------------
 BYTE   PATT
  POIN2 Label_016934FD
//  #03 //009   ----------------------------------------
 BYTE   PATT
  POIN2 Label_0169355F
//  #03 //010   ----------------------------------------
 BYTE   EOT
 BYTE   An1
 BYTE   VOL   0*PokemonMysteryDungeonExplorersofSkyTimeGear_mvl/mxv
 BYTE   W01
//  #03 //011   ----------------------------------------
 BYTE   PATT
  POIN2 Label_016935AB
//  #03 //012   ----------------------------------------
 BYTE   PATT
  POIN2 Label_016934FD
//  #03 //013   ----------------------------------------
 BYTE   PATT
  POIN2 Label_0169355F
//  #03 //014   ----------------------------------------
 BYTE   EOT
 BYTE   Gn1
 BYTE   W01
Label_0169373D:
 BYTE   TIE  Fn1  v100
 BYTE   W01
 BYTE   VOL   6*PokemonMysteryDungeonExplorersofSkyTimeGear_mvl/mxv
 BYTE   W02
 BYTE   VOL   6*PokemonMysteryDungeonExplorersofSkyTimeGear_mvl/mxv
 BYTE   W01
 BYTE   VOL   6*PokemonMysteryDungeonExplorersofSkyTimeGear_mvl/mxv
 BYTE   W02
 BYTE   VOL   8*PokemonMysteryDungeonExplorersofSkyTimeGear_mvl/mxv
 BYTE   W01
 BYTE   VOL   8*PokemonMysteryDungeonExplorersofSkyTimeGear_mvl/mxv
 BYTE   W02
 BYTE   VOL   8*PokemonMysteryDungeonExplorersofSkyTimeGear_mvl/mxv
 BYTE   W01
 BYTE   VOL   10*PokemonMysteryDungeonExplorersofSkyTimeGear_mvl/mxv
 BYTE   W03
 BYTE   VOL   10*PokemonMysteryDungeonExplorersofSkyTimeGear_mvl/mxv
 BYTE   W02
 BYTE   VOL   10*PokemonMysteryDungeonExplorersofSkyTimeGear_mvl/mxv
 BYTE   W03
 BYTE   VOL   11*PokemonMysteryDungeonExplorersofSkyTimeGear_mvl/mxv
 BYTE   W01
 BYTE   VOL   11*PokemonMysteryDungeonExplorersofSkyTimeGear_mvl/mxv
 BYTE   W02
 BYTE   VOL   12*PokemonMysteryDungeonExplorersofSkyTimeGear_mvl/mxv
 BYTE   W01
 BYTE   VOL   13*PokemonMysteryDungeonExplorersofSkyTimeGear_mvl/mxv
 BYTE   W02
 BYTE   VOL   13*PokemonMysteryDungeonExplorersofSkyTimeGear_mvl/mxv
 BYTE   W03
 BYTE   VOL   14*PokemonMysteryDungeonExplorersofSkyTimeGear_mvl/mxv
 BYTE   W01
 BYTE   VOL   15*PokemonMysteryDungeonExplorersofSkyTimeGear_mvl/mxv
 BYTE   W02
 BYTE   VOL   15*PokemonMysteryDungeonExplorersofSkyTimeGear_mvl/mxv
 BYTE   W01
 BYTE   VOL   16*PokemonMysteryDungeonExplorersofSkyTimeGear_mvl/mxv
 BYTE   W02
 BYTE   VOL   17*PokemonMysteryDungeonExplorersofSkyTimeGear_mvl/mxv
 BYTE   W01
 BYTE   VOL   17*PokemonMysteryDungeonExplorersofSkyTimeGear_mvl/mxv
 BYTE   W02
 BYTE   VOL   17*PokemonMysteryDungeonExplorersofSkyTimeGear_mvl/mxv
 BYTE   W03
 BYTE   VOL   19*PokemonMysteryDungeonExplorersofSkyTimeGear_mvl/mxv
 BYTE   W01
 BYTE   VOL   19*PokemonMysteryDungeonExplorersofSkyTimeGear_mvl/mxv
 BYTE   W02
 BYTE   VOL   20*PokemonMysteryDungeonExplorersofSkyTimeGear_mvl/mxv
 BYTE   W01
 BYTE   VOL   20*PokemonMysteryDungeonExplorersofSkyTimeGear_mvl/mxv
 BYTE   W02
 BYTE   VOL   21*PokemonMysteryDungeonExplorersofSkyTimeGear_mvl/mxv
 BYTE   W01
 BYTE   VOL   21*PokemonMysteryDungeonExplorersofSkyTimeGear_mvl/mxv
 BYTE   W02
 BYTE   VOL   22*PokemonMysteryDungeonExplorersofSkyTimeGear_mvl/mxv
 BYTE   W01
 BYTE   VOL   21*PokemonMysteryDungeonExplorersofSkyTimeGear_mvl/mxv
 BYTE   W03
 BYTE   VOL   22*PokemonMysteryDungeonExplorersofSkyTimeGear_mvl/mxv
 BYTE   W02
 BYTE   VOL   22*PokemonMysteryDungeonExplorersofSkyTimeGear_mvl/mxv
 BYTE   W01
 BYTE   VOL   23*PokemonMysteryDungeonExplorersofSkyTimeGear_mvl/mxv
 BYTE   W02
 BYTE   VOL   23*PokemonMysteryDungeonExplorersofSkyTimeGear_mvl/mxv
 BYTE   W01
 BYTE   VOL   23*PokemonMysteryDungeonExplorersofSkyTimeGear_mvl/mxv
 BYTE   W11
 BYTE   VOL   23*PokemonMysteryDungeonExplorersofSkyTimeGear_mvl/mxv
 BYTE   W03
 BYTE   VOL   23*PokemonMysteryDungeonExplorersofSkyTimeGear_mvl/mxv
 BYTE   W09
 BYTE   VOL   22*PokemonMysteryDungeonExplorersofSkyTimeGear_mvl/mxv
 BYTE   W03
 BYTE   VOL   22*PokemonMysteryDungeonExplorersofSkyTimeGear_mvl/mxv
 BYTE   W01
 BYTE   VOL   22*PokemonMysteryDungeonExplorersofSkyTimeGear_mvl/mxv
 BYTE   W02
 BYTE   VOL   21*PokemonMysteryDungeonExplorersofSkyTimeGear_mvl/mxv
 BYTE   W03
 BYTE   VOL   21*PokemonMysteryDungeonExplorersofSkyTimeGear_mvl/mxv
 BYTE   W01
 BYTE   VOL   20*PokemonMysteryDungeonExplorersofSkyTimeGear_mvl/mxv
 BYTE   W03
 BYTE   VOL   20*PokemonMysteryDungeonExplorersofSkyTimeGear_mvl/mxv
 BYTE   W02
 BYTE   PEND 
//  #03 //015   ----------------------------------------
Label_01693799:
 BYTE   W06
 BYTE   VOL   20*PokemonMysteryDungeonExplorersofSkyTimeGear_mvl/mxv
 BYTE   W01
 BYTE   VOL   19*PokemonMysteryDungeonExplorersofSkyTimeGear_mvl/mxv
 BYTE   W03
 BYTE   VOL   19*PokemonMysteryDungeonExplorersofSkyTimeGear_mvl/mxv
 BYTE   W03
 BYTE   VOL   19*PokemonMysteryDungeonExplorersofSkyTimeGear_mvl/mxv
 BYTE   W02
 BYTE   VOL   18*PokemonMysteryDungeonExplorersofSkyTimeGear_mvl/mxv
 BYTE   W01
 BYTE   VOL   18*PokemonMysteryDungeonExplorersofSkyTimeGear_mvl/mxv
 BYTE   W03
 BYTE   VOL   17*PokemonMysteryDungeonExplorersofSkyTimeGear_mvl/mxv
 BYTE   W02
 BYTE   VOL   17*PokemonMysteryDungeonExplorersofSkyTimeGear_mvl/mxv
 BYTE   W01
 BYTE   VOL   15*PokemonMysteryDungeonExplorersofSkyTimeGear_mvl/mxv
 BYTE   W03
 BYTE   VOL   14*PokemonMysteryDungeonExplorersofSkyTimeGear_mvl/mxv
 BYTE   W02
 BYTE   VOL   13*PokemonMysteryDungeonExplorersofSkyTimeGear_mvl/mxv
 BYTE   W01
 BYTE   VOL   13*PokemonMysteryDungeonExplorersofSkyTimeGear_mvl/mxv
 BYTE   W03
 BYTE   VOL   10*PokemonMysteryDungeonExplorersofSkyTimeGear_mvl/mxv
 BYTE   W03
 BYTE   VOL   10*PokemonMysteryDungeonExplorersofSkyTimeGear_mvl/mxv
 BYTE   W02
 BYTE   VOL   10*PokemonMysteryDungeonExplorersofSkyTimeGear_mvl/mxv
 BYTE   W01
 BYTE   VOL   8*PokemonMysteryDungeonExplorersofSkyTimeGear_mvl/mxv
 BYTE   W02
 BYTE   VOL   8*PokemonMysteryDungeonExplorersofSkyTimeGear_mvl/mxv
 BYTE   W01
 BYTE   VOL   8*PokemonMysteryDungeonExplorersofSkyTimeGear_mvl/mxv
 BYTE   W07
 BYTE   PEND 
 BYTE   EOT
 BYTE   Fn1
 BYTE   W01
 BYTE   TIE  En1  v100
 BYTE   W01
 BYTE   VOL   6*PokemonMysteryDungeonExplorersofSkyTimeGear_mvl/mxv
 BYTE   W02
 BYTE   VOL   6*PokemonMysteryDungeonExplorersofSkyTimeGear_mvl/mxv
 BYTE   W01
 BYTE   VOL   6*PokemonMysteryDungeonExplorersofSkyTimeGear_mvl/mxv
 BYTE   W02
 BYTE   VOL   8*PokemonMysteryDungeonExplorersofSkyTimeGear_mvl/mxv
 BYTE   W01
 BYTE   VOL   8*PokemonMysteryDungeonExplorersofSkyTimeGear_mvl/mxv
 BYTE   W02
 BYTE   VOL   8*PokemonMysteryDungeonExplorersofSkyTimeGear_mvl/mxv
 BYTE   W01
 BYTE   VOL   10*PokemonMysteryDungeonExplorersofSkyTimeGear_mvl/mxv
 BYTE   W03
 BYTE   VOL   10*PokemonMysteryDungeonExplorersofSkyTimeGear_mvl/mxv
 BYTE   W02
 BYTE   VOL   10*PokemonMysteryDungeonExplorersofSkyTimeGear_mvl/mxv
 BYTE   W03
 BYTE   VOL   11*PokemonMysteryDungeonExplorersofSkyTimeGear_mvl/mxv
 BYTE   W01
 BYTE   VOL   11*PokemonMysteryDungeonExplorersofSkyTimeGear_mvl/mxv
 BYTE   W02
 BYTE   VOL   12*PokemonMysteryDungeonExplorersofSkyTimeGear_mvl/mxv
 BYTE   W01
 BYTE   VOL   13*PokemonMysteryDungeonExplorersofSkyTimeGear_mvl/mxv
 BYTE   W02
 BYTE   VOL   13*PokemonMysteryDungeonExplorersofSkyTimeGear_mvl/mxv
 BYTE   W03
 BYTE   VOL   14*PokemonMysteryDungeonExplorersofSkyTimeGear_mvl/mxv
 BYTE   W01
 BYTE   VOL   15*PokemonMysteryDungeonExplorersofSkyTimeGear_mvl/mxv
 BYTE   W02
 BYTE   VOL   15*PokemonMysteryDungeonExplorersofSkyTimeGear_mvl/mxv
 BYTE   W01
 BYTE   VOL   16*PokemonMysteryDungeonExplorersofSkyTimeGear_mvl/mxv
 BYTE   W02
 BYTE   VOL   17*PokemonMysteryDungeonExplorersofSkyTimeGear_mvl/mxv
 BYTE   W01
 BYTE   VOL   17*PokemonMysteryDungeonExplorersofSkyTimeGear_mvl/mxv
 BYTE   W02
 BYTE   VOL   17*PokemonMysteryDungeonExplorersofSkyTimeGear_mvl/mxv
 BYTE   W03
 BYTE   VOL   19*PokemonMysteryDungeonExplorersofSkyTimeGear_mvl/mxv
 BYTE   W01
 BYTE   VOL   19*PokemonMysteryDungeonExplorersofSkyTimeGear_mvl/mxv
 BYTE   W02
 BYTE   VOL   20*PokemonMysteryDungeonExplorersofSkyTimeGear_mvl/mxv
 BYTE   W01
 BYTE   VOL   20*PokemonMysteryDungeonExplorersofSkyTimeGear_mvl/mxv
 BYTE   W02
 BYTE   VOL   21*PokemonMysteryDungeonExplorersofSkyTimeGear_mvl/mxv
 BYTE   W01
 BYTE   VOL   21*PokemonMysteryDungeonExplorersofSkyTimeGear_mvl/mxv
 BYTE   W02
//  #03 //016   ----------------------------------------
Label_016937FE:
 BYTE   VOL   22*PokemonMysteryDungeonExplorersofSkyTimeGear_mvl/mxv
 BYTE   W01
 BYTE   VOL   21*PokemonMysteryDungeonExplorersofSkyTimeGear_mvl/mxv
 BYTE   W03
 BYTE   VOL   22*PokemonMysteryDungeonExplorersofSkyTimeGear_mvl/mxv
 BYTE   W02
 BYTE   VOL   22*PokemonMysteryDungeonExplorersofSkyTimeGear_mvl/mxv
 BYTE   W01
 BYTE   VOL   23*PokemonMysteryDungeonExplorersofSkyTimeGear_mvl/mxv
 BYTE   W02
 BYTE   VOL   23*PokemonMysteryDungeonExplorersofSkyTimeGear_mvl/mxv
 BYTE   W01
 BYTE   VOL   23*PokemonMysteryDungeonExplorersofSkyTimeGear_mvl/mxv
 BYTE   W11
 BYTE   VOL   23*PokemonMysteryDungeonExplorersofSkyTimeGear_mvl/mxv
 BYTE   W03
 BYTE   VOL   23*PokemonMysteryDungeonExplorersofSkyTimeGear_mvl/mxv
 BYTE   W09
 BYTE   VOL   22*PokemonMysteryDungeonExplorersofSkyTimeGear_mvl/mxv
 BYTE   W03
 BYTE   VOL   22*PokemonMysteryDungeonExplorersofSkyTimeGear_mvl/mxv
 BYTE   W01
 BYTE   VOL   22*PokemonMysteryDungeonExplorersofSkyTimeGear_mvl/mxv
 BYTE   W02
 BYTE   VOL   21*PokemonMysteryDungeonExplorersofSkyTimeGear_mvl/mxv
 BYTE   W03
 BYTE   VOL   21*PokemonMysteryDungeonExplorersofSkyTimeGear_mvl/mxv
 BYTE   W01
 BYTE   VOL   20*PokemonMysteryDungeonExplorersofSkyTimeGear_mvl/mxv
 BYTE   W03
 BYTE   VOL   20*PokemonMysteryDungeonExplorersofSkyTimeGear_mvl/mxv
 BYTE   W08
 BYTE   VOL   20*PokemonMysteryDungeonExplorersofSkyTimeGear_mvl/mxv
 BYTE   W01
 BYTE   VOL   19*PokemonMysteryDungeonExplorersofSkyTimeGear_mvl/mxv
 BYTE   W03
 BYTE   VOL   19*PokemonMysteryDungeonExplorersofSkyTimeGear_mvl/mxv
 BYTE   W03
 BYTE   VOL   19*PokemonMysteryDungeonExplorersofSkyTimeGear_mvl/mxv
 BYTE   W02
 BYTE   VOL   18*PokemonMysteryDungeonExplorersofSkyTimeGear_mvl/mxv
 BYTE   W01
 BYTE   VOL   18*PokemonMysteryDungeonExplorersofSkyTimeGear_mvl/mxv
 BYTE   W03
 BYTE   VOL   17*PokemonMysteryDungeonExplorersofSkyTimeGear_mvl/mxv
 BYTE   W02
 BYTE   VOL   17*PokemonMysteryDungeonExplorersofSkyTimeGear_mvl/mxv
 BYTE   W01
 BYTE   VOL   15*PokemonMysteryDungeonExplorersofSkyTimeGear_mvl/mxv
 BYTE   W03
 BYTE   VOL   14*PokemonMysteryDungeonExplorersofSkyTimeGear_mvl/mxv
 BYTE   W02
 BYTE   VOL   13*PokemonMysteryDungeonExplorersofSkyTimeGear_mvl/mxv
 BYTE   W01
 BYTE   VOL   13*PokemonMysteryDungeonExplorersofSkyTimeGear_mvl/mxv
 BYTE   W03
 BYTE   VOL   10*PokemonMysteryDungeonExplorersofSkyTimeGear_mvl/mxv
 BYTE   W03
 BYTE   VOL   10*PokemonMysteryDungeonExplorersofSkyTimeGear_mvl/mxv
 BYTE   W02
 BYTE   VOL   10*PokemonMysteryDungeonExplorersofSkyTimeGear_mvl/mxv
 BYTE   W01
 BYTE   VOL   8*PokemonMysteryDungeonExplorersofSkyTimeGear_mvl/mxv
 BYTE   W02
 BYTE   VOL   8*PokemonMysteryDungeonExplorersofSkyTimeGear_mvl/mxv
 BYTE   W01
 BYTE   VOL   8*PokemonMysteryDungeonExplorersofSkyTimeGear_mvl/mxv
 BYTE   W07
 BYTE   PEND 
 BYTE   EOT
 BYTE   En1
 BYTE   W01
//  #03 //017   ----------------------------------------
 BYTE   PATT
  POIN2 Label_0169373D
//  #03 //018   ----------------------------------------
 BYTE   PATT
  POIN2 Label_01693799
//  #03 //019   ----------------------------------------
 BYTE   EOT
 BYTE   Fn1
 BYTE   W01
 BYTE   TIE  En1  v100
 BYTE   W01
 BYTE   VOL   6*PokemonMysteryDungeonExplorersofSkyTimeGear_mvl/mxv
 BYTE   W02
 BYTE   VOL   6*PokemonMysteryDungeonExplorersofSkyTimeGear_mvl/mxv
 BYTE   W01
 BYTE   VOL   6*PokemonMysteryDungeonExplorersofSkyTimeGear_mvl/mxv
 BYTE   W02
 BYTE   VOL   8*PokemonMysteryDungeonExplorersofSkyTimeGear_mvl/mxv
 BYTE   W01
 BYTE   VOL   8*PokemonMysteryDungeonExplorersofSkyTimeGear_mvl/mxv
 BYTE   W02
 BYTE   VOL   8*PokemonMysteryDungeonExplorersofSkyTimeGear_mvl/mxv
 BYTE   W01
 BYTE   VOL   10*PokemonMysteryDungeonExplorersofSkyTimeGear_mvl/mxv
 BYTE   W03
 BYTE   VOL   10*PokemonMysteryDungeonExplorersofSkyTimeGear_mvl/mxv
 BYTE   W02
 BYTE   VOL   10*PokemonMysteryDungeonExplorersofSkyTimeGear_mvl/mxv
 BYTE   W03
 BYTE   VOL   11*PokemonMysteryDungeonExplorersofSkyTimeGear_mvl/mxv
 BYTE   W01
 BYTE   VOL   11*PokemonMysteryDungeonExplorersofSkyTimeGear_mvl/mxv
 BYTE   W02
 BYTE   VOL   12*PokemonMysteryDungeonExplorersofSkyTimeGear_mvl/mxv
 BYTE   W01
 BYTE   VOL   13*PokemonMysteryDungeonExplorersofSkyTimeGear_mvl/mxv
 BYTE   W02
 BYTE   VOL   13*PokemonMysteryDungeonExplorersofSkyTimeGear_mvl/mxv
 BYTE   W03
 BYTE   VOL   14*PokemonMysteryDungeonExplorersofSkyTimeGear_mvl/mxv
 BYTE   W01
 BYTE   VOL   15*PokemonMysteryDungeonExplorersofSkyTimeGear_mvl/mxv
 BYTE   W02
 BYTE   VOL   15*PokemonMysteryDungeonExplorersofSkyTimeGear_mvl/mxv
 BYTE   W01
 BYTE   VOL   16*PokemonMysteryDungeonExplorersofSkyTimeGear_mvl/mxv
 BYTE   W02
 BYTE   VOL   17*PokemonMysteryDungeonExplorersofSkyTimeGear_mvl/mxv
 BYTE   W01
 BYTE   VOL   17*PokemonMysteryDungeonExplorersofSkyTimeGear_mvl/mxv
 BYTE   W02
 BYTE   VOL   17*PokemonMysteryDungeonExplorersofSkyTimeGear_mvl/mxv
 BYTE   W03
 BYTE   VOL   19*PokemonMysteryDungeonExplorersofSkyTimeGear_mvl/mxv
 BYTE   W01
 BYTE   VOL   19*PokemonMysteryDungeonExplorersofSkyTimeGear_mvl/mxv
 BYTE   W02
 BYTE   VOL   20*PokemonMysteryDungeonExplorersofSkyTimeGear_mvl/mxv
 BYTE   W01
 BYTE   VOL   20*PokemonMysteryDungeonExplorersofSkyTimeGear_mvl/mxv
 BYTE   W02
 BYTE   VOL   21*PokemonMysteryDungeonExplorersofSkyTimeGear_mvl/mxv
 BYTE   W01
 BYTE   VOL   21*PokemonMysteryDungeonExplorersofSkyTimeGear_mvl/mxv
 BYTE   W02
//  #03 //020   ----------------------------------------
 BYTE   PATT
  POIN2 Label_016937FE
//  #03 //021   ----------------------------------------
 BYTE   EOT
 BYTE   En1
 BYTE   W01
//  #03 //022   ----------------------------------------
 BYTE   PATT
  POIN2 Label_0169373D
//  #03 //023   ----------------------------------------
 BYTE   PATT
  POIN2 Label_01693799
//  #03 //024   ----------------------------------------
 BYTE   EOT
 BYTE   Fn1
 BYTE   W01
 BYTE   TIE  En1  v100
 BYTE   W01
 BYTE   VOL   6*PokemonMysteryDungeonExplorersofSkyTimeGear_mvl/mxv
 BYTE   W02
 BYTE   VOL   6*PokemonMysteryDungeonExplorersofSkyTimeGear_mvl/mxv
 BYTE   W01
 BYTE   VOL   6*PokemonMysteryDungeonExplorersofSkyTimeGear_mvl/mxv
 BYTE   W02
 BYTE   VOL   8*PokemonMysteryDungeonExplorersofSkyTimeGear_mvl/mxv
 BYTE   W01
 BYTE   VOL   8*PokemonMysteryDungeonExplorersofSkyTimeGear_mvl/mxv
 BYTE   W02
 BYTE   VOL   8*PokemonMysteryDungeonExplorersofSkyTimeGear_mvl/mxv
 BYTE   W01
 BYTE   VOL   10*PokemonMysteryDungeonExplorersofSkyTimeGear_mvl/mxv
 BYTE   W03
 BYTE   VOL   10*PokemonMysteryDungeonExplorersofSkyTimeGear_mvl/mxv
 BYTE   W02
 BYTE   VOL   10*PokemonMysteryDungeonExplorersofSkyTimeGear_mvl/mxv
 BYTE   W03
 BYTE   VOL   11*PokemonMysteryDungeonExplorersofSkyTimeGear_mvl/mxv
 BYTE   W01
 BYTE   VOL   11*PokemonMysteryDungeonExplorersofSkyTimeGear_mvl/mxv
 BYTE   W02
 BYTE   VOL   12*PokemonMysteryDungeonExplorersofSkyTimeGear_mvl/mxv
 BYTE   W01
 BYTE   VOL   13*PokemonMysteryDungeonExplorersofSkyTimeGear_mvl/mxv
 BYTE   W02
 BYTE   VOL   13*PokemonMysteryDungeonExplorersofSkyTimeGear_mvl/mxv
 BYTE   W03
 BYTE   VOL   14*PokemonMysteryDungeonExplorersofSkyTimeGear_mvl/mxv
 BYTE   W01
 BYTE   VOL   15*PokemonMysteryDungeonExplorersofSkyTimeGear_mvl/mxv
 BYTE   W02
 BYTE   VOL   15*PokemonMysteryDungeonExplorersofSkyTimeGear_mvl/mxv
 BYTE   W01
 BYTE   VOL   16*PokemonMysteryDungeonExplorersofSkyTimeGear_mvl/mxv
 BYTE   W02
 BYTE   VOL   17*PokemonMysteryDungeonExplorersofSkyTimeGear_mvl/mxv
 BYTE   W01
 BYTE   VOL   17*PokemonMysteryDungeonExplorersofSkyTimeGear_mvl/mxv
 BYTE   W02
 BYTE   VOL   17*PokemonMysteryDungeonExplorersofSkyTimeGear_mvl/mxv
 BYTE   W03
 BYTE   VOL   19*PokemonMysteryDungeonExplorersofSkyTimeGear_mvl/mxv
 BYTE   W01
 BYTE   VOL   19*PokemonMysteryDungeonExplorersofSkyTimeGear_mvl/mxv
 BYTE   W02
 BYTE   VOL   20*PokemonMysteryDungeonExplorersofSkyTimeGear_mvl/mxv
 BYTE   W01
 BYTE   VOL   20*PokemonMysteryDungeonExplorersofSkyTimeGear_mvl/mxv
 BYTE   W02
 BYTE   VOL   21*PokemonMysteryDungeonExplorersofSkyTimeGear_mvl/mxv
 BYTE   W01
 BYTE   VOL   21*PokemonMysteryDungeonExplorersofSkyTimeGear_mvl/mxv
 BYTE   W02
//  #03 //025   ----------------------------------------
 BYTE   PATT
  POIN2 Label_016937FE
//  #03 //026   ----------------------------------------
 BYTE   EOT
 BYTE   En1
 BYTE   W01
//  #03 //027   ----------------------------------------
 BYTE   PATT
  POIN2 Label_0169373D
//  #03 //028   ----------------------------------------
 BYTE   PATT
  POIN2 Label_01693799
//  #03 //029   ----------------------------------------
 BYTE   EOT
 BYTE   Fn1
 BYTE   W01
 BYTE   TIE  En1  v100
 BYTE   W01
 BYTE   VOL   6*PokemonMysteryDungeonExplorersofSkyTimeGear_mvl/mxv
 BYTE   W02
 BYTE   VOL   6*PokemonMysteryDungeonExplorersofSkyTimeGear_mvl/mxv
 BYTE   W01
 BYTE   VOL   6*PokemonMysteryDungeonExplorersofSkyTimeGear_mvl/mxv
 BYTE   W02
 BYTE   VOL   8*PokemonMysteryDungeonExplorersofSkyTimeGear_mvl/mxv
 BYTE   W01
 BYTE   VOL   8*PokemonMysteryDungeonExplorersofSkyTimeGear_mvl/mxv
 BYTE   W02
 BYTE   VOL   8*PokemonMysteryDungeonExplorersofSkyTimeGear_mvl/mxv
 BYTE   W01
 BYTE   VOL   10*PokemonMysteryDungeonExplorersofSkyTimeGear_mvl/mxv
 BYTE   W03
 BYTE   VOL   10*PokemonMysteryDungeonExplorersofSkyTimeGear_mvl/mxv
 BYTE   W02
 BYTE   VOL   10*PokemonMysteryDungeonExplorersofSkyTimeGear_mvl/mxv
 BYTE   W03
 BYTE   VOL   11*PokemonMysteryDungeonExplorersofSkyTimeGear_mvl/mxv
 BYTE   W01
 BYTE   VOL   11*PokemonMysteryDungeonExplorersofSkyTimeGear_mvl/mxv
 BYTE   W02
 BYTE   VOL   12*PokemonMysteryDungeonExplorersofSkyTimeGear_mvl/mxv
 BYTE   W01
 BYTE   VOL   13*PokemonMysteryDungeonExplorersofSkyTimeGear_mvl/mxv
 BYTE   W02
 BYTE   VOL   13*PokemonMysteryDungeonExplorersofSkyTimeGear_mvl/mxv
 BYTE   W03
 BYTE   VOL   14*PokemonMysteryDungeonExplorersofSkyTimeGear_mvl/mxv
 BYTE   W01
 BYTE   VOL   15*PokemonMysteryDungeonExplorersofSkyTimeGear_mvl/mxv
 BYTE   W02
 BYTE   VOL   15*PokemonMysteryDungeonExplorersofSkyTimeGear_mvl/mxv
 BYTE   W01
 BYTE   VOL   16*PokemonMysteryDungeonExplorersofSkyTimeGear_mvl/mxv
 BYTE   W02
 BYTE   VOL   17*PokemonMysteryDungeonExplorersofSkyTimeGear_mvl/mxv
 BYTE   W01
 BYTE   VOL   17*PokemonMysteryDungeonExplorersofSkyTimeGear_mvl/mxv
 BYTE   W02
 BYTE   VOL   17*PokemonMysteryDungeonExplorersofSkyTimeGear_mvl/mxv
 BYTE   W03
 BYTE   VOL   19*PokemonMysteryDungeonExplorersofSkyTimeGear_mvl/mxv
 BYTE   W01
 BYTE   VOL   19*PokemonMysteryDungeonExplorersofSkyTimeGear_mvl/mxv
 BYTE   W02
 BYTE   VOL   20*PokemonMysteryDungeonExplorersofSkyTimeGear_mvl/mxv
 BYTE   W01
 BYTE   VOL   20*PokemonMysteryDungeonExplorersofSkyTimeGear_mvl/mxv
 BYTE   W02
 BYTE   VOL   21*PokemonMysteryDungeonExplorersofSkyTimeGear_mvl/mxv
 BYTE   W01
 BYTE   VOL   21*PokemonMysteryDungeonExplorersofSkyTimeGear_mvl/mxv
 BYTE   W02
//  #03 //030   ----------------------------------------
 BYTE   PATT
  POIN2 Label_016937FE
//  #03 //031   ----------------------------------------
 BYTE   EOT
 BYTE   En1
 BYTE   W01
Label_01693937:
 BYTE   TIE  Cn2  v100
 BYTE   W01
 BYTE   VOL   6*PokemonMysteryDungeonExplorersofSkyTimeGear_mvl/mxv
 BYTE   W02
 BYTE   VOL   6*PokemonMysteryDungeonExplorersofSkyTimeGear_mvl/mxv
 BYTE   W01
 BYTE   VOL   6*PokemonMysteryDungeonExplorersofSkyTimeGear_mvl/mxv
 BYTE   W02
 BYTE   VOL   8*PokemonMysteryDungeonExplorersofSkyTimeGear_mvl/mxv
 BYTE   W01
 BYTE   VOL   8*PokemonMysteryDungeonExplorersofSkyTimeGear_mvl/mxv
 BYTE   W02
 BYTE   VOL   8*PokemonMysteryDungeonExplorersofSkyTimeGear_mvl/mxv
 BYTE   W01
 BYTE   VOL   10*PokemonMysteryDungeonExplorersofSkyTimeGear_mvl/mxv
 BYTE   W03
 BYTE   VOL   10*PokemonMysteryDungeonExplorersofSkyTimeGear_mvl/mxv
 BYTE   W02
 BYTE   VOL   10*PokemonMysteryDungeonExplorersofSkyTimeGear_mvl/mxv
 BYTE   W03
 BYTE   VOL   11*PokemonMysteryDungeonExplorersofSkyTimeGear_mvl/mxv
 BYTE   W01
 BYTE   VOL   11*PokemonMysteryDungeonExplorersofSkyTimeGear_mvl/mxv
 BYTE   W02
 BYTE   VOL   12*PokemonMysteryDungeonExplorersofSkyTimeGear_mvl/mxv
 BYTE   W01
 BYTE   VOL   13*PokemonMysteryDungeonExplorersofSkyTimeGear_mvl/mxv
 BYTE   W02
 BYTE   VOL   13*PokemonMysteryDungeonExplorersofSkyTimeGear_mvl/mxv
 BYTE   W03
 BYTE   VOL   14*PokemonMysteryDungeonExplorersofSkyTimeGear_mvl/mxv
 BYTE   W01
 BYTE   VOL   15*PokemonMysteryDungeonExplorersofSkyTimeGear_mvl/mxv
 BYTE   W02
 BYTE   VOL   15*PokemonMysteryDungeonExplorersofSkyTimeGear_mvl/mxv
 BYTE   W01
 BYTE   VOL   16*PokemonMysteryDungeonExplorersofSkyTimeGear_mvl/mxv
 BYTE   W02
 BYTE   VOL   17*PokemonMysteryDungeonExplorersofSkyTimeGear_mvl/mxv
 BYTE   W01
 BYTE   VOL   17*PokemonMysteryDungeonExplorersofSkyTimeGear_mvl/mxv
 BYTE   W02
 BYTE   VOL   17*PokemonMysteryDungeonExplorersofSkyTimeGear_mvl/mxv
 BYTE   W03
 BYTE   VOL   19*PokemonMysteryDungeonExplorersofSkyTimeGear_mvl/mxv
 BYTE   W01
 BYTE   VOL   19*PokemonMysteryDungeonExplorersofSkyTimeGear_mvl/mxv
 BYTE   W02
 BYTE   VOL   20*PokemonMysteryDungeonExplorersofSkyTimeGear_mvl/mxv
 BYTE   W01
 BYTE   VOL   20*PokemonMysteryDungeonExplorersofSkyTimeGear_mvl/mxv
 BYTE   W02
 BYTE   VOL   21*PokemonMysteryDungeonExplorersofSkyTimeGear_mvl/mxv
 BYTE   W01
 BYTE   VOL   21*PokemonMysteryDungeonExplorersofSkyTimeGear_mvl/mxv
 BYTE   W02
 BYTE   VOL   22*PokemonMysteryDungeonExplorersofSkyTimeGear_mvl/mxv
 BYTE   W01
 BYTE   VOL   21*PokemonMysteryDungeonExplorersofSkyTimeGear_mvl/mxv
 BYTE   W03
 BYTE   VOL   22*PokemonMysteryDungeonExplorersofSkyTimeGear_mvl/mxv
 BYTE   W02
 BYTE   VOL   22*PokemonMysteryDungeonExplorersofSkyTimeGear_mvl/mxv
 BYTE   W01
 BYTE   VOL   23*PokemonMysteryDungeonExplorersofSkyTimeGear_mvl/mxv
 BYTE   W02
 BYTE   VOL   23*PokemonMysteryDungeonExplorersofSkyTimeGear_mvl/mxv
 BYTE   W01
 BYTE   VOL   23*PokemonMysteryDungeonExplorersofSkyTimeGear_mvl/mxv
 BYTE   W11
 BYTE   VOL   23*PokemonMysteryDungeonExplorersofSkyTimeGear_mvl/mxv
 BYTE   W03
 BYTE   VOL   23*PokemonMysteryDungeonExplorersofSkyTimeGear_mvl/mxv
 BYTE   W09
 BYTE   VOL   22*PokemonMysteryDungeonExplorersofSkyTimeGear_mvl/mxv
 BYTE   W03
 BYTE   VOL   22*PokemonMysteryDungeonExplorersofSkyTimeGear_mvl/mxv
 BYTE   W01
 BYTE   VOL   22*PokemonMysteryDungeonExplorersofSkyTimeGear_mvl/mxv
 BYTE   W02
 BYTE   VOL   21*PokemonMysteryDungeonExplorersofSkyTimeGear_mvl/mxv
 BYTE   W03
 BYTE   VOL   21*PokemonMysteryDungeonExplorersofSkyTimeGear_mvl/mxv
 BYTE   W01
 BYTE   VOL   20*PokemonMysteryDungeonExplorersofSkyTimeGear_mvl/mxv
 BYTE   W03
 BYTE   VOL   20*PokemonMysteryDungeonExplorersofSkyTimeGear_mvl/mxv
 BYTE   W02
 BYTE   PEND 
//  #03 //032   ----------------------------------------
 BYTE   PATT
  POIN2 Label_01693799
//  #03 //033   ----------------------------------------
 BYTE   EOT
 BYTE   Cn2
 BYTE   W01
 BYTE   TIE  Dn2  v100
 BYTE   W01
 BYTE   VOL   6*PokemonMysteryDungeonExplorersofSkyTimeGear_mvl/mxv
 BYTE   W02
 BYTE   VOL   6*PokemonMysteryDungeonExplorersofSkyTimeGear_mvl/mxv
 BYTE   W01
 BYTE   VOL   6*PokemonMysteryDungeonExplorersofSkyTimeGear_mvl/mxv
 BYTE   W02
 BYTE   VOL   8*PokemonMysteryDungeonExplorersofSkyTimeGear_mvl/mxv
 BYTE   W01
 BYTE   VOL   8*PokemonMysteryDungeonExplorersofSkyTimeGear_mvl/mxv
 BYTE   W02
 BYTE   VOL   8*PokemonMysteryDungeonExplorersofSkyTimeGear_mvl/mxv
 BYTE   W01
 BYTE   VOL   10*PokemonMysteryDungeonExplorersofSkyTimeGear_mvl/mxv
 BYTE   W03
 BYTE   VOL   10*PokemonMysteryDungeonExplorersofSkyTimeGear_mvl/mxv
 BYTE   W02
 BYTE   VOL   10*PokemonMysteryDungeonExplorersofSkyTimeGear_mvl/mxv
 BYTE   W03
 BYTE   VOL   11*PokemonMysteryDungeonExplorersofSkyTimeGear_mvl/mxv
 BYTE   W01
 BYTE   VOL   11*PokemonMysteryDungeonExplorersofSkyTimeGear_mvl/mxv
 BYTE   W02
 BYTE   VOL   12*PokemonMysteryDungeonExplorersofSkyTimeGear_mvl/mxv
 BYTE   W01
 BYTE   VOL   13*PokemonMysteryDungeonExplorersofSkyTimeGear_mvl/mxv
 BYTE   W02
 BYTE   VOL   13*PokemonMysteryDungeonExplorersofSkyTimeGear_mvl/mxv
 BYTE   W03
 BYTE   VOL   14*PokemonMysteryDungeonExplorersofSkyTimeGear_mvl/mxv
 BYTE   W01
 BYTE   VOL   15*PokemonMysteryDungeonExplorersofSkyTimeGear_mvl/mxv
 BYTE   W02
 BYTE   VOL   15*PokemonMysteryDungeonExplorersofSkyTimeGear_mvl/mxv
 BYTE   W01
 BYTE   VOL   16*PokemonMysteryDungeonExplorersofSkyTimeGear_mvl/mxv
 BYTE   W02
 BYTE   VOL   17*PokemonMysteryDungeonExplorersofSkyTimeGear_mvl/mxv
 BYTE   W01
 BYTE   VOL   17*PokemonMysteryDungeonExplorersofSkyTimeGear_mvl/mxv
 BYTE   W02
 BYTE   VOL   17*PokemonMysteryDungeonExplorersofSkyTimeGear_mvl/mxv
 BYTE   W03
 BYTE   VOL   19*PokemonMysteryDungeonExplorersofSkyTimeGear_mvl/mxv
 BYTE   W01
 BYTE   VOL   19*PokemonMysteryDungeonExplorersofSkyTimeGear_mvl/mxv
 BYTE   W02
 BYTE   VOL   20*PokemonMysteryDungeonExplorersofSkyTimeGear_mvl/mxv
 BYTE   W01
 BYTE   VOL   20*PokemonMysteryDungeonExplorersofSkyTimeGear_mvl/mxv
 BYTE   W02
 BYTE   VOL   21*PokemonMysteryDungeonExplorersofSkyTimeGear_mvl/mxv
 BYTE   W01
 BYTE   VOL   21*PokemonMysteryDungeonExplorersofSkyTimeGear_mvl/mxv
 BYTE   W02
//  #03 //034   ----------------------------------------
 BYTE   PATT
  POIN2 Label_016937FE
//  #03 //035   ----------------------------------------
 BYTE   EOT
 BYTE   Dn2
 BYTE   W01
//  #03 //036   ----------------------------------------
 BYTE   PATT
  POIN2 Label_01693937
//  #03 //037   ----------------------------------------
 BYTE   PATT
  POIN2 Label_01693799
//  #03 //038   ----------------------------------------
 BYTE   EOT
 BYTE   Cn2
 BYTE   W01
 BYTE   N68  Dn2  v100
 BYTE   W01
 BYTE   VOL   6*PokemonMysteryDungeonExplorersofSkyTimeGear_mvl/mxv
 BYTE   W02
 BYTE   VOL   6*PokemonMysteryDungeonExplorersofSkyTimeGear_mvl/mxv
 BYTE   W01
 BYTE   VOL   6*PokemonMysteryDungeonExplorersofSkyTimeGear_mvl/mxv
 BYTE   W02
 BYTE   VOL   8*PokemonMysteryDungeonExplorersofSkyTimeGear_mvl/mxv
 BYTE   W01
 BYTE   VOL   8*PokemonMysteryDungeonExplorersofSkyTimeGear_mvl/mxv
 BYTE   W02
 BYTE   VOL   8*PokemonMysteryDungeonExplorersofSkyTimeGear_mvl/mxv
 BYTE   W01
 BYTE   VOL   10*PokemonMysteryDungeonExplorersofSkyTimeGear_mvl/mxv
 BYTE   W03
 BYTE   VOL   10*PokemonMysteryDungeonExplorersofSkyTimeGear_mvl/mxv
 BYTE   W02
 BYTE   VOL   10*PokemonMysteryDungeonExplorersofSkyTimeGear_mvl/mxv
 BYTE   W03
 BYTE   VOL   11*PokemonMysteryDungeonExplorersofSkyTimeGear_mvl/mxv
 BYTE   W01
 BYTE   VOL   11*PokemonMysteryDungeonExplorersofSkyTimeGear_mvl/mxv
 BYTE   W02
 BYTE   VOL   12*PokemonMysteryDungeonExplorersofSkyTimeGear_mvl/mxv
 BYTE   W01
 BYTE   VOL   13*PokemonMysteryDungeonExplorersofSkyTimeGear_mvl/mxv
 BYTE   W02
 BYTE   VOL   13*PokemonMysteryDungeonExplorersofSkyTimeGear_mvl/mxv
 BYTE   W03
 BYTE   VOL   14*PokemonMysteryDungeonExplorersofSkyTimeGear_mvl/mxv
 BYTE   W01
 BYTE   VOL   15*PokemonMysteryDungeonExplorersofSkyTimeGear_mvl/mxv
 BYTE   W02
 BYTE   VOL   15*PokemonMysteryDungeonExplorersofSkyTimeGear_mvl/mxv
 BYTE   W01
 BYTE   VOL   16*PokemonMysteryDungeonExplorersofSkyTimeGear_mvl/mxv
 BYTE   W02
 BYTE   VOL   17*PokemonMysteryDungeonExplorersofSkyTimeGear_mvl/mxv
 BYTE   W01
 BYTE   VOL   17*PokemonMysteryDungeonExplorersofSkyTimeGear_mvl/mxv
 BYTE   W02
 BYTE   VOL   17*PokemonMysteryDungeonExplorersofSkyTimeGear_mvl/mxv
 BYTE   W03
 BYTE   VOL   19*PokemonMysteryDungeonExplorersofSkyTimeGear_mvl/mxv
 BYTE   W01
 BYTE   VOL   19*PokemonMysteryDungeonExplorersofSkyTimeGear_mvl/mxv
 BYTE   W02
 BYTE   VOL   20*PokemonMysteryDungeonExplorersofSkyTimeGear_mvl/mxv
 BYTE   W01
 BYTE   VOL   20*PokemonMysteryDungeonExplorersofSkyTimeGear_mvl/mxv
 BYTE   W02
 BYTE   VOL   21*PokemonMysteryDungeonExplorersofSkyTimeGear_mvl/mxv
 BYTE   W01
 BYTE   VOL   21*PokemonMysteryDungeonExplorersofSkyTimeGear_mvl/mxv
 BYTE   W02
 BYTE   VOL   22*PokemonMysteryDungeonExplorersofSkyTimeGear_mvl/mxv
 BYTE   W01
 BYTE   VOL   21*PokemonMysteryDungeonExplorersofSkyTimeGear_mvl/mxv
 BYTE   W03
 BYTE   VOL   22*PokemonMysteryDungeonExplorersofSkyTimeGear_mvl/mxv
 BYTE   W02
 BYTE   VOL   22*PokemonMysteryDungeonExplorersofSkyTimeGear_mvl/mxv
 BYTE   W01
 BYTE   VOL   23*PokemonMysteryDungeonExplorersofSkyTimeGear_mvl/mxv
 BYTE   W02
 BYTE   VOL   23*PokemonMysteryDungeonExplorersofSkyTimeGear_mvl/mxv
 BYTE   W01
 BYTE   VOL   23*PokemonMysteryDungeonExplorersofSkyTimeGear_mvl/mxv
 BYTE   W11
 BYTE   VOL   23*PokemonMysteryDungeonExplorersofSkyTimeGear_mvl/mxv
 BYTE   W03
 BYTE   VOL   23*PokemonMysteryDungeonExplorersofSkyTimeGear_mvl/mxv
 BYTE   N68  Bn1
 BYTE   W09
 BYTE   VOL   22*PokemonMysteryDungeonExplorersofSkyTimeGear_mvl/mxv
 BYTE   W03
 BYTE   VOL   22*PokemonMysteryDungeonExplorersofSkyTimeGear_mvl/mxv
 BYTE   W01
 BYTE   VOL   22*PokemonMysteryDungeonExplorersofSkyTimeGear_mvl/mxv
 BYTE   W02
 BYTE   VOL   21*PokemonMysteryDungeonExplorersofSkyTimeGear_mvl/mxv
 BYTE   W03
 BYTE   VOL   21*PokemonMysteryDungeonExplorersofSkyTimeGear_mvl/mxv
 BYTE   W01
 BYTE   VOL   20*PokemonMysteryDungeonExplorersofSkyTimeGear_mvl/mxv
 BYTE   W03
 BYTE   VOL   20*PokemonMysteryDungeonExplorersofSkyTimeGear_mvl/mxv
 BYTE   W08
//  #03 //039   ----------------------------------------
 BYTE   VOL   20*PokemonMysteryDungeonExplorersofSkyTimeGear_mvl/mxv
 BYTE   W01
 BYTE   VOL   19*PokemonMysteryDungeonExplorersofSkyTimeGear_mvl/mxv
 BYTE   W03
 BYTE   VOL   19*PokemonMysteryDungeonExplorersofSkyTimeGear_mvl/mxv
 BYTE   W03
 BYTE   VOL   19*PokemonMysteryDungeonExplorersofSkyTimeGear_mvl/mxv
 BYTE   W02
 BYTE   VOL   18*PokemonMysteryDungeonExplorersofSkyTimeGear_mvl/mxv
 BYTE   W01
 BYTE   VOL   18*PokemonMysteryDungeonExplorersofSkyTimeGear_mvl/mxv
 BYTE   W03
 BYTE   VOL   17*PokemonMysteryDungeonExplorersofSkyTimeGear_mvl/mxv
 BYTE   W02
 BYTE   VOL   17*PokemonMysteryDungeonExplorersofSkyTimeGear_mvl/mxv
 BYTE   W01
 BYTE   VOL   15*PokemonMysteryDungeonExplorersofSkyTimeGear_mvl/mxv
 BYTE   W03
 BYTE   VOL   14*PokemonMysteryDungeonExplorersofSkyTimeGear_mvl/mxv
 BYTE   W02
 BYTE   VOL   13*PokemonMysteryDungeonExplorersofSkyTimeGear_mvl/mxv
 BYTE   W01
 BYTE   VOL   13*PokemonMysteryDungeonExplorersofSkyTimeGear_mvl/mxv
 BYTE   W03
 BYTE   VOL   10*PokemonMysteryDungeonExplorersofSkyTimeGear_mvl/mxv
 BYTE   W03
 BYTE   VOL   10*PokemonMysteryDungeonExplorersofSkyTimeGear_mvl/mxv
 BYTE   W02
 BYTE   VOL   10*PokemonMysteryDungeonExplorersofSkyTimeGear_mvl/mxv
 BYTE   W01
 BYTE   VOL   8*PokemonMysteryDungeonExplorersofSkyTimeGear_mvl/mxv
 BYTE   W02
 BYTE   VOL   8*PokemonMysteryDungeonExplorersofSkyTimeGear_mvl/mxv
 BYTE   W01
 BYTE   VOL   8*PokemonMysteryDungeonExplorersofSkyTimeGear_mvl/mxv
 BYTE   W08
//  #03 //040   ----------------------------------------
 BYTE   PATT
  POIN2 Label_01693937
//  #03 //041   ----------------------------------------
 BYTE   PATT
  POIN2 Label_01693799
//  #03 //042   ----------------------------------------
 BYTE   EOT
 BYTE   Cn2
 BYTE   W01
 BYTE   TIE  Dn2  v100
 BYTE   W01
 BYTE   VOL   6*PokemonMysteryDungeonExplorersofSkyTimeGear_mvl/mxv
 BYTE   W02
 BYTE   VOL   6*PokemonMysteryDungeonExplorersofSkyTimeGear_mvl/mxv
 BYTE   W01
 BYTE   VOL   6*PokemonMysteryDungeonExplorersofSkyTimeGear_mvl/mxv
 BYTE   W02
 BYTE   VOL   8*PokemonMysteryDungeonExplorersofSkyTimeGear_mvl/mxv
 BYTE   W01
 BYTE   VOL   8*PokemonMysteryDungeonExplorersofSkyTimeGear_mvl/mxv
 BYTE   W02
 BYTE   VOL   8*PokemonMysteryDungeonExplorersofSkyTimeGear_mvl/mxv
 BYTE   W01
 BYTE   VOL   10*PokemonMysteryDungeonExplorersofSkyTimeGear_mvl/mxv
 BYTE   W03
 BYTE   VOL   10*PokemonMysteryDungeonExplorersofSkyTimeGear_mvl/mxv
 BYTE   W02
 BYTE   VOL   10*PokemonMysteryDungeonExplorersofSkyTimeGear_mvl/mxv
 BYTE   W03
 BYTE   VOL   11*PokemonMysteryDungeonExplorersofSkyTimeGear_mvl/mxv
 BYTE   W01
 BYTE   VOL   11*PokemonMysteryDungeonExplorersofSkyTimeGear_mvl/mxv
 BYTE   W02
 BYTE   VOL   12*PokemonMysteryDungeonExplorersofSkyTimeGear_mvl/mxv
 BYTE   W01
 BYTE   VOL   13*PokemonMysteryDungeonExplorersofSkyTimeGear_mvl/mxv
 BYTE   W02
 BYTE   VOL   13*PokemonMysteryDungeonExplorersofSkyTimeGear_mvl/mxv
 BYTE   W03
 BYTE   VOL   14*PokemonMysteryDungeonExplorersofSkyTimeGear_mvl/mxv
 BYTE   W01
 BYTE   VOL   15*PokemonMysteryDungeonExplorersofSkyTimeGear_mvl/mxv
 BYTE   W02
 BYTE   VOL   15*PokemonMysteryDungeonExplorersofSkyTimeGear_mvl/mxv
 BYTE   W01
 BYTE   VOL   16*PokemonMysteryDungeonExplorersofSkyTimeGear_mvl/mxv
 BYTE   W02
 BYTE   VOL   17*PokemonMysteryDungeonExplorersofSkyTimeGear_mvl/mxv
 BYTE   W01
 BYTE   VOL   17*PokemonMysteryDungeonExplorersofSkyTimeGear_mvl/mxv
 BYTE   W02
 BYTE   VOL   17*PokemonMysteryDungeonExplorersofSkyTimeGear_mvl/mxv
 BYTE   W03
 BYTE   VOL   19*PokemonMysteryDungeonExplorersofSkyTimeGear_mvl/mxv
 BYTE   W01
 BYTE   VOL   19*PokemonMysteryDungeonExplorersofSkyTimeGear_mvl/mxv
 BYTE   W02
 BYTE   VOL   20*PokemonMysteryDungeonExplorersofSkyTimeGear_mvl/mxv
 BYTE   W01
 BYTE   VOL   20*PokemonMysteryDungeonExplorersofSkyTimeGear_mvl/mxv
 BYTE   W02
 BYTE   VOL   21*PokemonMysteryDungeonExplorersofSkyTimeGear_mvl/mxv
 BYTE   W01
 BYTE   VOL   21*PokemonMysteryDungeonExplorersofSkyTimeGear_mvl/mxv
 BYTE   W02
//  #03 //043   ----------------------------------------
 BYTE   PATT
  POIN2 Label_016937FE
//  #03 //044   ----------------------------------------
 BYTE   EOT
 BYTE   Dn2
 BYTE   W01
//  #03 //045   ----------------------------------------
 BYTE   PATT
  POIN2 Label_01693937
//  #03 //046   ----------------------------------------
 BYTE   PATT
  POIN2 Label_01693799
//  #03 //047   ----------------------------------------
 BYTE   EOT
 BYTE   Cn2
 BYTE   W01
 BYTE   N68  Dn2  v100
 BYTE   W01
 BYTE   VOL   6*PokemonMysteryDungeonExplorersofSkyTimeGear_mvl/mxv
 BYTE   W02
 BYTE   VOL   6*PokemonMysteryDungeonExplorersofSkyTimeGear_mvl/mxv
 BYTE   W01
 BYTE   VOL   6*PokemonMysteryDungeonExplorersofSkyTimeGear_mvl/mxv
 BYTE   W02
 BYTE   VOL   8*PokemonMysteryDungeonExplorersofSkyTimeGear_mvl/mxv
 BYTE   W01
 BYTE   VOL   8*PokemonMysteryDungeonExplorersofSkyTimeGear_mvl/mxv
 BYTE   W02
 BYTE   VOL   8*PokemonMysteryDungeonExplorersofSkyTimeGear_mvl/mxv
 BYTE   W01
 BYTE   VOL   10*PokemonMysteryDungeonExplorersofSkyTimeGear_mvl/mxv
 BYTE   W03
 BYTE   VOL   10*PokemonMysteryDungeonExplorersofSkyTimeGear_mvl/mxv
 BYTE   W02
 BYTE   VOL   10*PokemonMysteryDungeonExplorersofSkyTimeGear_mvl/mxv
 BYTE   W03
 BYTE   VOL   11*PokemonMysteryDungeonExplorersofSkyTimeGear_mvl/mxv
 BYTE   W01
 BYTE   VOL   11*PokemonMysteryDungeonExplorersofSkyTimeGear_mvl/mxv
 BYTE   W02
 BYTE   VOL   12*PokemonMysteryDungeonExplorersofSkyTimeGear_mvl/mxv
 BYTE   W01
 BYTE   VOL   13*PokemonMysteryDungeonExplorersofSkyTimeGear_mvl/mxv
 BYTE   W02
 BYTE   VOL   13*PokemonMysteryDungeonExplorersofSkyTimeGear_mvl/mxv
 BYTE   W03
 BYTE   VOL   14*PokemonMysteryDungeonExplorersofSkyTimeGear_mvl/mxv
 BYTE   W01
 BYTE   VOL   15*PokemonMysteryDungeonExplorersofSkyTimeGear_mvl/mxv
 BYTE   W02
 BYTE   VOL   15*PokemonMysteryDungeonExplorersofSkyTimeGear_mvl/mxv
 BYTE   W01
 BYTE   VOL   16*PokemonMysteryDungeonExplorersofSkyTimeGear_mvl/mxv
 BYTE   W02
 BYTE   VOL   17*PokemonMysteryDungeonExplorersofSkyTimeGear_mvl/mxv
 BYTE   W01
 BYTE   VOL   17*PokemonMysteryDungeonExplorersofSkyTimeGear_mvl/mxv
 BYTE   W02
 BYTE   VOL   17*PokemonMysteryDungeonExplorersofSkyTimeGear_mvl/mxv
 BYTE   W03
 BYTE   VOL   19*PokemonMysteryDungeonExplorersofSkyTimeGear_mvl/mxv
 BYTE   W01
 BYTE   VOL   19*PokemonMysteryDungeonExplorersofSkyTimeGear_mvl/mxv
 BYTE   W02
 BYTE   VOL   20*PokemonMysteryDungeonExplorersofSkyTimeGear_mvl/mxv
 BYTE   W01
 BYTE   VOL   20*PokemonMysteryDungeonExplorersofSkyTimeGear_mvl/mxv
 BYTE   W02
 BYTE   VOL   21*PokemonMysteryDungeonExplorersofSkyTimeGear_mvl/mxv
 BYTE   W01
 BYTE   VOL   21*PokemonMysteryDungeonExplorersofSkyTimeGear_mvl/mxv
 BYTE   W02
 BYTE   VOL   22*PokemonMysteryDungeonExplorersofSkyTimeGear_mvl/mxv
 BYTE   W01
 BYTE   VOL   21*PokemonMysteryDungeonExplorersofSkyTimeGear_mvl/mxv
 BYTE   W03
 BYTE   VOL   22*PokemonMysteryDungeonExplorersofSkyTimeGear_mvl/mxv
 BYTE   W02
 BYTE   VOL   22*PokemonMysteryDungeonExplorersofSkyTimeGear_mvl/mxv
 BYTE   W01
 BYTE   VOL   23*PokemonMysteryDungeonExplorersofSkyTimeGear_mvl/mxv
 BYTE   W02
 BYTE   VOL   23*PokemonMysteryDungeonExplorersofSkyTimeGear_mvl/mxv
 BYTE   W01
 BYTE   VOL   23*PokemonMysteryDungeonExplorersofSkyTimeGear_mvl/mxv
 BYTE   W11
 BYTE   VOL   23*PokemonMysteryDungeonExplorersofSkyTimeGear_mvl/mxv
 BYTE   W03
 BYTE   VOL   23*PokemonMysteryDungeonExplorersofSkyTimeGear_mvl/mxv
 BYTE   N68  Bn1
 BYTE   W09
 BYTE   VOL   22*PokemonMysteryDungeonExplorersofSkyTimeGear_mvl/mxv
 BYTE   W03
 BYTE   VOL   22*PokemonMysteryDungeonExplorersofSkyTimeGear_mvl/mxv
 BYTE   W01
 BYTE   VOL   22*PokemonMysteryDungeonExplorersofSkyTimeGear_mvl/mxv
 BYTE   W02
 BYTE   VOL   21*PokemonMysteryDungeonExplorersofSkyTimeGear_mvl/mxv
 BYTE   W03
 BYTE   VOL   21*PokemonMysteryDungeonExplorersofSkyTimeGear_mvl/mxv
 BYTE   W01
 BYTE   VOL   20*PokemonMysteryDungeonExplorersofSkyTimeGear_mvl/mxv
 BYTE   W03
 BYTE   VOL   20*PokemonMysteryDungeonExplorersofSkyTimeGear_mvl/mxv
 BYTE   W08
//  #03 //048   ----------------------------------------
 BYTE   VOL   20*PokemonMysteryDungeonExplorersofSkyTimeGear_mvl/mxv
 BYTE   W01
 BYTE   VOL   19*PokemonMysteryDungeonExplorersofSkyTimeGear_mvl/mxv
 BYTE   W03
 BYTE   VOL   19*PokemonMysteryDungeonExplorersofSkyTimeGear_mvl/mxv
 BYTE   W03
 BYTE   VOL   19*PokemonMysteryDungeonExplorersofSkyTimeGear_mvl/mxv
 BYTE   W02
 BYTE   VOL   18*PokemonMysteryDungeonExplorersofSkyTimeGear_mvl/mxv
 BYTE   W01
 BYTE   VOL   18*PokemonMysteryDungeonExplorersofSkyTimeGear_mvl/mxv
 BYTE   W03
 BYTE   VOL   17*PokemonMysteryDungeonExplorersofSkyTimeGear_mvl/mxv
 BYTE   W02
 BYTE   VOL   17*PokemonMysteryDungeonExplorersofSkyTimeGear_mvl/mxv
 BYTE   W01
 BYTE   VOL   15*PokemonMysteryDungeonExplorersofSkyTimeGear_mvl/mxv
 BYTE   W03
 BYTE   VOL   14*PokemonMysteryDungeonExplorersofSkyTimeGear_mvl/mxv
 BYTE   W02
 BYTE   VOL   13*PokemonMysteryDungeonExplorersofSkyTimeGear_mvl/mxv
 BYTE   W01
 BYTE   VOL   13*PokemonMysteryDungeonExplorersofSkyTimeGear_mvl/mxv
 BYTE   W03
 BYTE   VOL   10*PokemonMysteryDungeonExplorersofSkyTimeGear_mvl/mxv
 BYTE   W03
 BYTE   VOL   10*PokemonMysteryDungeonExplorersofSkyTimeGear_mvl/mxv
 BYTE   W02
 BYTE   VOL   10*PokemonMysteryDungeonExplorersofSkyTimeGear_mvl/mxv
 BYTE   W01
 BYTE   VOL   8*PokemonMysteryDungeonExplorersofSkyTimeGear_mvl/mxv
 BYTE   W02
 BYTE   VOL   8*PokemonMysteryDungeonExplorersofSkyTimeGear_mvl/mxv
 BYTE   W01
 BYTE   VOL   8*PokemonMysteryDungeonExplorersofSkyTimeGear_mvl/mxv
 BYTE   W07
 BYTE   VOL   0*PokemonMysteryDungeonExplorersofSkyTimeGear_mvl/mxv
 BYTE   W01
 BYTE   TIE  An1
 BYTE   W02
 BYTE   VOL   0*PokemonMysteryDungeonExplorersofSkyTimeGear_mvl/mxv
 BYTE   W01
 BYTE   VOL   0*PokemonMysteryDungeonExplorersofSkyTimeGear_mvl/mxv
 BYTE   W02
 BYTE   VOL   0*PokemonMysteryDungeonExplorersofSkyTimeGear_mvl/mxv
 BYTE   W01
 BYTE   VOL   0*PokemonMysteryDungeonExplorersofSkyTimeGear_mvl/mxv
 BYTE   W02
 BYTE   VOL   0*PokemonMysteryDungeonExplorersofSkyTimeGear_mvl/mxv
 BYTE   W01
 BYTE   VOL   0*PokemonMysteryDungeonExplorersofSkyTimeGear_mvl/mxv
 BYTE   W02
 BYTE   VOL   0*PokemonMysteryDungeonExplorersofSkyTimeGear_mvl/mxv
 BYTE   W01
 BYTE   VOL   0*PokemonMysteryDungeonExplorersofSkyTimeGear_mvl/mxv
 BYTE   W02
 BYTE   VOL   0*PokemonMysteryDungeonExplorersofSkyTimeGear_mvl/mxv
 BYTE   W01
 BYTE   VOL   1*PokemonMysteryDungeonExplorersofSkyTimeGear_mvl/mxv
 BYTE   W02
 BYTE   VOL   1*PokemonMysteryDungeonExplorersofSkyTimeGear_mvl/mxv
 BYTE   W01
 BYTE   VOL   1*PokemonMysteryDungeonExplorersofSkyTimeGear_mvl/mxv
 BYTE   W02
 BYTE   VOL   1*PokemonMysteryDungeonExplorersofSkyTimeGear_mvl/mxv
 BYTE   W01
 BYTE   VOL   1*PokemonMysteryDungeonExplorersofSkyTimeGear_mvl/mxv
 BYTE   W02
 BYTE   VOL   1*PokemonMysteryDungeonExplorersofSkyTimeGear_mvl/mxv
 BYTE   W01
 BYTE   VOL   1*PokemonMysteryDungeonExplorersofSkyTimeGear_mvl/mxv
 BYTE   W02
 BYTE   VOL   1*PokemonMysteryDungeonExplorersofSkyTimeGear_mvl/mxv
 BYTE   W01
 BYTE   VOL   1*PokemonMysteryDungeonExplorersofSkyTimeGear_mvl/mxv
 BYTE   W02
 BYTE   VOL   2*PokemonMysteryDungeonExplorersofSkyTimeGear_mvl/mxv
 BYTE   W01
 BYTE   VOL   2*PokemonMysteryDungeonExplorersofSkyTimeGear_mvl/mxv
 BYTE   W02
 BYTE   VOL   2*PokemonMysteryDungeonExplorersofSkyTimeGear_mvl/mxv
 BYTE   W01
 BYTE   VOL   2*PokemonMysteryDungeonExplorersofSkyTimeGear_mvl/mxv
 BYTE   W02
 BYTE   VOL   3*PokemonMysteryDungeonExplorersofSkyTimeGear_mvl/mxv
 BYTE   W01
 BYTE   VOL   3*PokemonMysteryDungeonExplorersofSkyTimeGear_mvl/mxv
 BYTE   W02
 BYTE   VOL   3*PokemonMysteryDungeonExplorersofSkyTimeGear_mvl/mxv
 BYTE   W01
 BYTE   VOL   3*PokemonMysteryDungeonExplorersofSkyTimeGear_mvl/mxv
 BYTE   W02
 BYTE   VOL   3*PokemonMysteryDungeonExplorersofSkyTimeGear_mvl/mxv
 BYTE   W01
 BYTE   VOL   3*PokemonMysteryDungeonExplorersofSkyTimeGear_mvl/mxv
 BYTE   W02
 BYTE   VOL   3*PokemonMysteryDungeonExplorersofSkyTimeGear_mvl/mxv
 BYTE   W01
 BYTE   VOL   4*PokemonMysteryDungeonExplorersofSkyTimeGear_mvl/mxv
 BYTE   W02
 BYTE   VOL   4*PokemonMysteryDungeonExplorersofSkyTimeGear_mvl/mxv
 BYTE   W01
 BYTE   VOL   4*PokemonMysteryDungeonExplorersofSkyTimeGear_mvl/mxv
 BYTE   W02
 BYTE   VOL   5*PokemonMysteryDungeonExplorersofSkyTimeGear_mvl/mxv
 BYTE   W01
 BYTE   VOL   5*PokemonMysteryDungeonExplorersofSkyTimeGear_mvl/mxv
 BYTE   W02
 BYTE   VOL   5*PokemonMysteryDungeonExplorersofSkyTimeGear_mvl/mxv
 BYTE   W01
//  #03 //049   ----------------------------------------
 BYTE   VOL   5*PokemonMysteryDungeonExplorersofSkyTimeGear_mvl/mxv
 BYTE   W02
 BYTE   VOL   5*PokemonMysteryDungeonExplorersofSkyTimeGear_mvl/mxv
 BYTE   W01
 BYTE   VOL   6*PokemonMysteryDungeonExplorersofSkyTimeGear_mvl/mxv
 BYTE   W02
 BYTE   VOL   6*PokemonMysteryDungeonExplorersofSkyTimeGear_mvl/mxv
 BYTE   W01
 BYTE   VOL   6*PokemonMysteryDungeonExplorersofSkyTimeGear_mvl/mxv
 BYTE   W02
 BYTE   VOL   6*PokemonMysteryDungeonExplorersofSkyTimeGear_mvl/mxv
 BYTE   W01
 BYTE   VOL   6*PokemonMysteryDungeonExplorersofSkyTimeGear_mvl/mxv
 BYTE   W02
 BYTE   VOL   6*PokemonMysteryDungeonExplorersofSkyTimeGear_mvl/mxv
 BYTE   W01
 BYTE   VOL   7*PokemonMysteryDungeonExplorersofSkyTimeGear_mvl/mxv
 BYTE   W02
 BYTE   VOL   7*PokemonMysteryDungeonExplorersofSkyTimeGear_mvl/mxv
 BYTE   W01
 BYTE   VOL   8*PokemonMysteryDungeonExplorersofSkyTimeGear_mvl/mxv
 BYTE   W02
 BYTE   VOL   8*PokemonMysteryDungeonExplorersofSkyTimeGear_mvl/mxv
 BYTE   W01
 BYTE   VOL   8*PokemonMysteryDungeonExplorersofSkyTimeGear_mvl/mxv
 BYTE   W02
 BYTE   VOL   8*PokemonMysteryDungeonExplorersofSkyTimeGear_mvl/mxv
 BYTE   W01
 BYTE   VOL   8*PokemonMysteryDungeonExplorersofSkyTimeGear_mvl/mxv
 BYTE   W02
 BYTE   VOL   9*PokemonMysteryDungeonExplorersofSkyTimeGear_mvl/mxv
 BYTE   W01
 BYTE   VOL   10*PokemonMysteryDungeonExplorersofSkyTimeGear_mvl/mxv
 BYTE   W02
 BYTE   VOL   10*PokemonMysteryDungeonExplorersofSkyTimeGear_mvl/mxv
 BYTE   W01
 BYTE   VOL   10*PokemonMysteryDungeonExplorersofSkyTimeGear_mvl/mxv
 BYTE   W02
 BYTE   VOL   10*PokemonMysteryDungeonExplorersofSkyTimeGear_mvl/mxv
 BYTE   W01
 BYTE   VOL   10*PokemonMysteryDungeonExplorersofSkyTimeGear_mvl/mxv
 BYTE   W02
 BYTE   VOL   11*PokemonMysteryDungeonExplorersofSkyTimeGear_mvl/mxv
 BYTE   W01
 BYTE   VOL   11*PokemonMysteryDungeonExplorersofSkyTimeGear_mvl/mxv
 BYTE   W02
 BYTE   VOL   11*PokemonMysteryDungeonExplorersofSkyTimeGear_mvl/mxv
 BYTE   W01
 BYTE   VOL   11*PokemonMysteryDungeonExplorersofSkyTimeGear_mvl/mxv
 BYTE   W02
 BYTE   VOL   12*PokemonMysteryDungeonExplorersofSkyTimeGear_mvl/mxv
 BYTE   W01
 BYTE   VOL   12*PokemonMysteryDungeonExplorersofSkyTimeGear_mvl/mxv
 BYTE   W02
 BYTE   VOL   13*PokemonMysteryDungeonExplorersofSkyTimeGear_mvl/mxv
 BYTE   W01
//  #03 //050   ----------------------------------------
 BYTE   PATT
  POIN2 Label_016934FD
//  #03 //051   ----------------------------------------
Label_01693BD5:
 BYTE   W02
 BYTE   VOL   29*PokemonMysteryDungeonExplorersofSkyTimeGear_mvl/mxv
 BYTE   W01
 BYTE   VOL   28*PokemonMysteryDungeonExplorersofSkyTimeGear_mvl/mxv
 BYTE   W03
 BYTE   VOL   28*PokemonMysteryDungeonExplorersofSkyTimeGear_mvl/mxv
 BYTE   W05
 BYTE   VOL   27*PokemonMysteryDungeonExplorersofSkyTimeGear_mvl/mxv
 BYTE   W07
 BYTE   VOL   27*PokemonMysteryDungeonExplorersofSkyTimeGear_mvl/mxv
 BYTE   W02
 BYTE   VOL   27*PokemonMysteryDungeonExplorersofSkyTimeGear_mvl/mxv
 BYTE   W07
 BYTE   VOL   26*PokemonMysteryDungeonExplorersofSkyTimeGear_mvl/mxv
 BYTE   W05
 BYTE   VOL   25*PokemonMysteryDungeonExplorersofSkyTimeGear_mvl/mxv
 BYTE   W01
 BYTE   VOL   24*PokemonMysteryDungeonExplorersofSkyTimeGear_mvl/mxv
 BYTE   W03
 BYTE   VOL   23*PokemonMysteryDungeonExplorersofSkyTimeGear_mvl/mxv
 BYTE   W02
 BYTE   VOL   23*PokemonMysteryDungeonExplorersofSkyTimeGear_mvl/mxv
 BYTE   W03
 BYTE   VOL   22*PokemonMysteryDungeonExplorersofSkyTimeGear_mvl/mxv
 BYTE   W03
 BYTE   VOL   22*PokemonMysteryDungeonExplorersofSkyTimeGear_mvl/mxv
 BYTE   W01
 BYTE   VOL   21*PokemonMysteryDungeonExplorersofSkyTimeGear_mvl/mxv
 BYTE   W03
 BYTE   VOL   20*PokemonMysteryDungeonExplorersofSkyTimeGear_mvl/mxv
 BYTE   W02
 BYTE   VOL   20*PokemonMysteryDungeonExplorersofSkyTimeGear_mvl/mxv
 BYTE   W03
 BYTE   VOL   20*PokemonMysteryDungeonExplorersofSkyTimeGear_mvl/mxv
 BYTE   W01
 BYTE   VOL   19*PokemonMysteryDungeonExplorersofSkyTimeGear_mvl/mxv
 BYTE   W03
 BYTE   VOL   18*PokemonMysteryDungeonExplorersofSkyTimeGear_mvl/mxv
 BYTE   W02
 BYTE   VOL   18*PokemonMysteryDungeonExplorersofSkyTimeGear_mvl/mxv
 BYTE   W03
 BYTE   VOL   17*PokemonMysteryDungeonExplorersofSkyTimeGear_mvl/mxv
 BYTE   W01
 BYTE   VOL   15*PokemonMysteryDungeonExplorersofSkyTimeGear_mvl/mxv
 BYTE   W03
 BYTE   VOL   14*PokemonMysteryDungeonExplorersofSkyTimeGear_mvl/mxv
 BYTE   W02
 BYTE   VOL   14*PokemonMysteryDungeonExplorersofSkyTimeGear_mvl/mxv
 BYTE   W03
 BYTE   VOL   13*PokemonMysteryDungeonExplorersofSkyTimeGear_mvl/mxv
 BYTE   W03
 BYTE   VOL   11*PokemonMysteryDungeonExplorersofSkyTimeGear_mvl/mxv
 BYTE   W01
 BYTE   VOL   11*PokemonMysteryDungeonExplorersofSkyTimeGear_mvl/mxv
 BYTE   W03
 BYTE   VOL   10*PokemonMysteryDungeonExplorersofSkyTimeGear_mvl/mxv
 BYTE   W02
 BYTE   VOL   10*PokemonMysteryDungeonExplorersofSkyTimeGear_mvl/mxv
 BYTE   W03
 BYTE   VOL   9*PokemonMysteryDungeonExplorersofSkyTimeGear_mvl/mxv
 BYTE   W01
 BYTE   VOL   8*PokemonMysteryDungeonExplorersofSkyTimeGear_mvl/mxv
 BYTE   W03
 BYTE   VOL   5*PokemonMysteryDungeonExplorersofSkyTimeGear_mvl/mxv
 BYTE   W02
 BYTE   VOL   5*PokemonMysteryDungeonExplorersofSkyTimeGear_mvl/mxv
 BYTE   W03
 BYTE   VOL   4*PokemonMysteryDungeonExplorersofSkyTimeGear_mvl/mxv
 BYTE   W03
 BYTE   PEND 
 BYTE   EOT
 BYTE   An1
 BYTE   VOL   0*PokemonMysteryDungeonExplorersofSkyTimeGear_mvl/mxv
 BYTE   W01
//  #03 //052   ----------------------------------------
 BYTE   PATT
  POIN2 Label_016935AB
//  #03 //053   ----------------------------------------
 BYTE   PATT
  POIN2 Label_016934FD
//  #03 //054   ----------------------------------------
 BYTE   PATT
  POIN2 Label_01693BD5
//  #03 //055   ----------------------------------------
 BYTE   EOT
 BYTE   Gn1
 BYTE   W01
 BYTE   GoTo
  POIN2 Label_01693697
 BYTE   FINE

//**************** Track 4 (Midi-Chn.3) ****************//

PokemonMysteryDungeonExplorersofSkyTimeGear_004:
//  #04 //000   ----------------------------------------
 BYTE   KEYSH   PokemonMysteryDungeonExplorersofSkyTimeGear_key+0
 BYTE   VOICE   32
 BYTE   MODT 0
 BYTE   LFOS 44
 BYTE   VOL   45*PokemonMysteryDungeonExplorersofSkyTimeGear_mvl/mxv
 BYTE   PAN   c_v-20
 BYTE   VOL   0*PokemonMysteryDungeonExplorersofSkyTimeGear_mvl/mxv
 BYTE   TIE  En2  v100
 BYTE   W02
 BYTE   VOL   0*PokemonMysteryDungeonExplorersofSkyTimeGear_mvl/mxv
 BYTE   W01
 BYTE   VOL   0*PokemonMysteryDungeonExplorersofSkyTimeGear_mvl/mxv
 BYTE   W02
 BYTE   VOL   0*PokemonMysteryDungeonExplorersofSkyTimeGear_mvl/mxv
 BYTE   W01
 BYTE   VOL   0*PokemonMysteryDungeonExplorersofSkyTimeGear_mvl/mxv
 BYTE   W02
 BYTE   VOL   0*PokemonMysteryDungeonExplorersofSkyTimeGear_mvl/mxv
 BYTE   W01
 BYTE   VOL   0*PokemonMysteryDungeonExplorersofSkyTimeGear_mvl/mxv
 BYTE   W02
 BYTE   VOL   0*PokemonMysteryDungeonExplorersofSkyTimeGear_mvl/mxv
 BYTE   W01
 BYTE   VOL   1*PokemonMysteryDungeonExplorersofSkyTimeGear_mvl/mxv
 BYTE   W02
 BYTE   VOL   1*PokemonMysteryDungeonExplorersofSkyTimeGear_mvl/mxv
 BYTE   W01
 BYTE   VOL   1*PokemonMysteryDungeonExplorersofSkyTimeGear_mvl/mxv
 BYTE   W02
 BYTE   VOL   1*PokemonMysteryDungeonExplorersofSkyTimeGear_mvl/mxv
 BYTE   W01
 BYTE   VOL   1*PokemonMysteryDungeonExplorersofSkyTimeGear_mvl/mxv
 BYTE   W02
 BYTE   VOL   1*PokemonMysteryDungeonExplorersofSkyTimeGear_mvl/mxv
 BYTE   W01
 BYTE   VOL   1*PokemonMysteryDungeonExplorersofSkyTimeGear_mvl/mxv
 BYTE   W02
 BYTE   VOL   1*PokemonMysteryDungeonExplorersofSkyTimeGear_mvl/mxv
 BYTE   W01
 BYTE   VOL   1*PokemonMysteryDungeonExplorersofSkyTimeGear_mvl/mxv
 BYTE   W02
 BYTE   VOL   2*PokemonMysteryDungeonExplorersofSkyTimeGear_mvl/mxv
 BYTE   W01
 BYTE   VOL   2*PokemonMysteryDungeonExplorersofSkyTimeGear_mvl/mxv
 BYTE   W02
 BYTE   VOL   3*PokemonMysteryDungeonExplorersofSkyTimeGear_mvl/mxv
 BYTE   W01
 BYTE   VOL   3*PokemonMysteryDungeonExplorersofSkyTimeGear_mvl/mxv
 BYTE   W02
 BYTE   VOL   3*PokemonMysteryDungeonExplorersofSkyTimeGear_mvl/mxv
 BYTE   W01
 BYTE   VOL   3*PokemonMysteryDungeonExplorersofSkyTimeGear_mvl/mxv
 BYTE   W02
 BYTE   VOL   3*PokemonMysteryDungeonExplorersofSkyTimeGear_mvl/mxv
 BYTE   W01
 BYTE   VOL   4*PokemonMysteryDungeonExplorersofSkyTimeGear_mvl/mxv
 BYTE   W02
 BYTE   VOL   4*PokemonMysteryDungeonExplorersofSkyTimeGear_mvl/mxv
 BYTE   W01
 BYTE   VOL   4*PokemonMysteryDungeonExplorersofSkyTimeGear_mvl/mxv
 BYTE   W02
 BYTE   VOL   4*PokemonMysteryDungeonExplorersofSkyTimeGear_mvl/mxv
 BYTE   W01
 BYTE   VOL   5*PokemonMysteryDungeonExplorersofSkyTimeGear_mvl/mxv
 BYTE   W02
 BYTE   VOL   5*PokemonMysteryDungeonExplorersofSkyTimeGear_mvl/mxv
 BYTE   W01
 BYTE   VOL   5*PokemonMysteryDungeonExplorersofSkyTimeGear_mvl/mxv
 BYTE   W02
 BYTE   VOL   5*PokemonMysteryDungeonExplorersofSkyTimeGear_mvl/mxv
 BYTE   W01
 BYTE   VOL   6*PokemonMysteryDungeonExplorersofSkyTimeGear_mvl/mxv
 BYTE   W02
 BYTE   VOL   6*PokemonMysteryDungeonExplorersofSkyTimeGear_mvl/mxv
 BYTE   W01
 BYTE   VOL   6*PokemonMysteryDungeonExplorersofSkyTimeGear_mvl/mxv
 BYTE   W02
 BYTE   VOL   6*PokemonMysteryDungeonExplorersofSkyTimeGear_mvl/mxv
 BYTE   W01
 BYTE   VOL   6*PokemonMysteryDungeonExplorersofSkyTimeGear_mvl/mxv
 BYTE   W02
 BYTE   VOL   7*PokemonMysteryDungeonExplorersofSkyTimeGear_mvl/mxv
 BYTE   W01
 BYTE   VOL   8*PokemonMysteryDungeonExplorersofSkyTimeGear_mvl/mxv
 BYTE   W02
 BYTE   VOL   8*PokemonMysteryDungeonExplorersofSkyTimeGear_mvl/mxv
 BYTE   W01
 BYTE   VOL   8*PokemonMysteryDungeonExplorersofSkyTimeGear_mvl/mxv
 BYTE   W02
 BYTE   VOL   8*PokemonMysteryDungeonExplorersofSkyTimeGear_mvl/mxv
 BYTE   W01
 BYTE   VOL   9*PokemonMysteryDungeonExplorersofSkyTimeGear_mvl/mxv
 BYTE   W02
 BYTE   VOL   10*PokemonMysteryDungeonExplorersofSkyTimeGear_mvl/mxv
 BYTE   W01
 BYTE   VOL   10*PokemonMysteryDungeonExplorersofSkyTimeGear_mvl/mxv
 BYTE   W02
 BYTE   VOL   10*PokemonMysteryDungeonExplorersofSkyTimeGear_mvl/mxv
 BYTE   W01
 BYTE   VOL   10*PokemonMysteryDungeonExplorersofSkyTimeGear_mvl/mxv
 BYTE   W02
 BYTE   VOL   10*PokemonMysteryDungeonExplorersofSkyTimeGear_mvl/mxv
 BYTE   W01
 BYTE   VOL   11*PokemonMysteryDungeonExplorersofSkyTimeGear_mvl/mxv
 BYTE   W02
 BYTE   VOL   11*PokemonMysteryDungeonExplorersofSkyTimeGear_mvl/mxv
 BYTE   W01
 BYTE   VOL   11*PokemonMysteryDungeonExplorersofSkyTimeGear_mvl/mxv
 BYTE   W02
 BYTE   VOL   11*PokemonMysteryDungeonExplorersofSkyTimeGear_mvl/mxv
 BYTE   W01
 BYTE   VOL   12*PokemonMysteryDungeonExplorersofSkyTimeGear_mvl/mxv
 BYTE   W02
 BYTE   VOL   13*PokemonMysteryDungeonExplorersofSkyTimeGear_mvl/mxv
 BYTE   W01
 BYTE   VOL   13*PokemonMysteryDungeonExplorersofSkyTimeGear_mvl/mxv
 BYTE   W02
 BYTE   VOL   13*PokemonMysteryDungeonExplorersofSkyTimeGear_mvl/mxv
 BYTE   W01
 BYTE   VOL   14*PokemonMysteryDungeonExplorersofSkyTimeGear_mvl/mxv
 BYTE   W02
 BYTE   VOL   14*PokemonMysteryDungeonExplorersofSkyTimeGear_mvl/mxv
 BYTE   W01
 BYTE   VOL   15*PokemonMysteryDungeonExplorersofSkyTimeGear_mvl/mxv
 BYTE   W02
 BYTE   VOL   15*PokemonMysteryDungeonExplorersofSkyTimeGear_mvl/mxv
 BYTE   W01
 BYTE   VOL   15*PokemonMysteryDungeonExplorersofSkyTimeGear_mvl/mxv
 BYTE   W02
 BYTE   VOL   16*PokemonMysteryDungeonExplorersofSkyTimeGear_mvl/mxv
 BYTE   W01
 BYTE   VOL   17*PokemonMysteryDungeonExplorersofSkyTimeGear_mvl/mxv
 BYTE   W02
 BYTE   VOL   17*PokemonMysteryDungeonExplorersofSkyTimeGear_mvl/mxv
 BYTE   W01
//  #04 //001   ----------------------------------------
Label_01693CCD:
 BYTE   VOL   17*PokemonMysteryDungeonExplorersofSkyTimeGear_mvl/mxv
 BYTE   W02
 BYTE   VOL   18*PokemonMysteryDungeonExplorersofSkyTimeGear_mvl/mxv
 BYTE   W01
 BYTE   VOL   18*PokemonMysteryDungeonExplorersofSkyTimeGear_mvl/mxv
 BYTE   W02
 BYTE   VOL   18*PokemonMysteryDungeonExplorersofSkyTimeGear_mvl/mxv
 BYTE   W01
 BYTE   VOL   19*PokemonMysteryDungeonExplorersofSkyTimeGear_mvl/mxv
 BYTE   W02
 BYTE   VOL   19*PokemonMysteryDungeonExplorersofSkyTimeGear_mvl/mxv
 BYTE   W01
 BYTE   VOL   19*PokemonMysteryDungeonExplorersofSkyTimeGear_mvl/mxv
 BYTE   W02
 BYTE   VOL   20*PokemonMysteryDungeonExplorersofSkyTimeGear_mvl/mxv
 BYTE   W01
 BYTE   VOL   20*PokemonMysteryDungeonExplorersofSkyTimeGear_mvl/mxv
 BYTE   W02
 BYTE   VOL   22*PokemonMysteryDungeonExplorersofSkyTimeGear_mvl/mxv
 BYTE   W01
 BYTE   VOL   22*PokemonMysteryDungeonExplorersofSkyTimeGear_mvl/mxv
 BYTE   W02
 BYTE   VOL   22*PokemonMysteryDungeonExplorersofSkyTimeGear_mvl/mxv
 BYTE   W01
 BYTE   VOL   22*PokemonMysteryDungeonExplorersofSkyTimeGear_mvl/mxv
 BYTE   W02
 BYTE   VOL   23*PokemonMysteryDungeonExplorersofSkyTimeGear_mvl/mxv
 BYTE   W01
 BYTE   VOL   23*PokemonMysteryDungeonExplorersofSkyTimeGear_mvl/mxv
 BYTE   W02
 BYTE   VOL   23*PokemonMysteryDungeonExplorersofSkyTimeGear_mvl/mxv
 BYTE   W01
 BYTE   VOL   24*PokemonMysteryDungeonExplorersofSkyTimeGear_mvl/mxv
 BYTE   W02
 BYTE   VOL   25*PokemonMysteryDungeonExplorersofSkyTimeGear_mvl/mxv
 BYTE   W01
 BYTE   VOL   26*PokemonMysteryDungeonExplorersofSkyTimeGear_mvl/mxv
 BYTE   W02
 BYTE   VOL   27*PokemonMysteryDungeonExplorersofSkyTimeGear_mvl/mxv
 BYTE   W01
 BYTE   VOL   27*PokemonMysteryDungeonExplorersofSkyTimeGear_mvl/mxv
 BYTE   W02
 BYTE   VOL   27*PokemonMysteryDungeonExplorersofSkyTimeGear_mvl/mxv
 BYTE   W01
 BYTE   VOL   27*PokemonMysteryDungeonExplorersofSkyTimeGear_mvl/mxv
 BYTE   W02
 BYTE   VOL   28*PokemonMysteryDungeonExplorersofSkyTimeGear_mvl/mxv
 BYTE   W01
 BYTE   VOL   28*PokemonMysteryDungeonExplorersofSkyTimeGear_mvl/mxv
 BYTE   W02
 BYTE   VOL   29*PokemonMysteryDungeonExplorersofSkyTimeGear_mvl/mxv
 BYTE   W01
 BYTE   VOL   29*PokemonMysteryDungeonExplorersofSkyTimeGear_mvl/mxv
 BYTE   W02
 BYTE   VOL   30*PokemonMysteryDungeonExplorersofSkyTimeGear_mvl/mxv
 BYTE   W01
 BYTE   VOL   31*PokemonMysteryDungeonExplorersofSkyTimeGear_mvl/mxv
 BYTE   W02
 BYTE   VOL   32*PokemonMysteryDungeonExplorersofSkyTimeGear_mvl/mxv
 BYTE   W01
 BYTE   VOL   32*PokemonMysteryDungeonExplorersofSkyTimeGear_mvl/mxv
 BYTE   W02
 BYTE   VOL   32*PokemonMysteryDungeonExplorersofSkyTimeGear_mvl/mxv
 BYTE   W01
 BYTE   VOL   33*PokemonMysteryDungeonExplorersofSkyTimeGear_mvl/mxv
 BYTE   W02
 BYTE   VOL   34*PokemonMysteryDungeonExplorersofSkyTimeGear_mvl/mxv
 BYTE   W01
 BYTE   VOL   34*PokemonMysteryDungeonExplorersofSkyTimeGear_mvl/mxv
 BYTE   W02
 BYTE   VOL   34*PokemonMysteryDungeonExplorersofSkyTimeGear_mvl/mxv
 BYTE   W01
 BYTE   VOL   35*PokemonMysteryDungeonExplorersofSkyTimeGear_mvl/mxv
 BYTE   W02
 BYTE   VOL   36*PokemonMysteryDungeonExplorersofSkyTimeGear_mvl/mxv
 BYTE   W01
 BYTE   VOL   37*PokemonMysteryDungeonExplorersofSkyTimeGear_mvl/mxv
 BYTE   W02
 BYTE   VOL   37*PokemonMysteryDungeonExplorersofSkyTimeGear_mvl/mxv
 BYTE   W01
 BYTE   VOL   37*PokemonMysteryDungeonExplorersofSkyTimeGear_mvl/mxv
 BYTE   W02
 BYTE   VOL   38*PokemonMysteryDungeonExplorersofSkyTimeGear_mvl/mxv
 BYTE   W01
 BYTE   VOL   38*PokemonMysteryDungeonExplorersofSkyTimeGear_mvl/mxv
 BYTE   W02
 BYTE   VOL   39*PokemonMysteryDungeonExplorersofSkyTimeGear_mvl/mxv
 BYTE   W01
 BYTE   VOL   40*PokemonMysteryDungeonExplorersofSkyTimeGear_mvl/mxv
 BYTE   W02
 BYTE   VOL   40*PokemonMysteryDungeonExplorersofSkyTimeGear_mvl/mxv
 BYTE   W13
 BYTE   VOL   39*PokemonMysteryDungeonExplorersofSkyTimeGear_mvl/mxv
 BYTE   W05
 BYTE   VOL   38*PokemonMysteryDungeonExplorersofSkyTimeGear_mvl/mxv
 BYTE   W10
 BYTE   PEND 
//  #04 //002   ----------------------------------------
Label_01693D2F:
 BYTE   W02
 BYTE   VOL   38*PokemonMysteryDungeonExplorersofSkyTimeGear_mvl/mxv
 BYTE   W01
 BYTE   VOL   37*PokemonMysteryDungeonExplorersofSkyTimeGear_mvl/mxv
 BYTE   W03
 BYTE   VOL   37*PokemonMysteryDungeonExplorersofSkyTimeGear_mvl/mxv
 BYTE   W05
 BYTE   VOL   36*PokemonMysteryDungeonExplorersofSkyTimeGear_mvl/mxv
 BYTE   W07
 BYTE   VOL   35*PokemonMysteryDungeonExplorersofSkyTimeGear_mvl/mxv
 BYTE   W02
 BYTE   VOL   34*PokemonMysteryDungeonExplorersofSkyTimeGear_mvl/mxv
 BYTE   W07
 BYTE   VOL   34*PokemonMysteryDungeonExplorersofSkyTimeGear_mvl/mxv
 BYTE   W05
 BYTE   VOL   33*PokemonMysteryDungeonExplorersofSkyTimeGear_mvl/mxv
 BYTE   W01
 BYTE   VOL   32*PokemonMysteryDungeonExplorersofSkyTimeGear_mvl/mxv
 BYTE   W03
 BYTE   VOL   32*PokemonMysteryDungeonExplorersofSkyTimeGear_mvl/mxv
 BYTE   W02
 BYTE   VOL   31*PokemonMysteryDungeonExplorersofSkyTimeGear_mvl/mxv
 BYTE   W03
 BYTE   VOL   30*PokemonMysteryDungeonExplorersofSkyTimeGear_mvl/mxv
 BYTE   W03
 BYTE   VOL   29*PokemonMysteryDungeonExplorersofSkyTimeGear_mvl/mxv
 BYTE   W01
 BYTE   VOL   28*PokemonMysteryDungeonExplorersofSkyTimeGear_mvl/mxv
 BYTE   W03
 BYTE   VOL   27*PokemonMysteryDungeonExplorersofSkyTimeGear_mvl/mxv
 BYTE   W02
 BYTE   VOL   27*PokemonMysteryDungeonExplorersofSkyTimeGear_mvl/mxv
 BYTE   W03
 BYTE   VOL   27*PokemonMysteryDungeonExplorersofSkyTimeGear_mvl/mxv
 BYTE   W01
 BYTE   VOL   25*PokemonMysteryDungeonExplorersofSkyTimeGear_mvl/mxv
 BYTE   W03
 BYTE   VOL   23*PokemonMysteryDungeonExplorersofSkyTimeGear_mvl/mxv
 BYTE   W02
 BYTE   VOL   23*PokemonMysteryDungeonExplorersofSkyTimeGear_mvl/mxv
 BYTE   W03
 BYTE   VOL   22*PokemonMysteryDungeonExplorersofSkyTimeGear_mvl/mxv
 BYTE   W01
 BYTE   VOL   20*PokemonMysteryDungeonExplorersofSkyTimeGear_mvl/mxv
 BYTE   W03
 BYTE   VOL   19*PokemonMysteryDungeonExplorersofSkyTimeGear_mvl/mxv
 BYTE   W02
 BYTE   VOL   19*PokemonMysteryDungeonExplorersofSkyTimeGear_mvl/mxv
 BYTE   W03
 BYTE   VOL   17*PokemonMysteryDungeonExplorersofSkyTimeGear_mvl/mxv
 BYTE   W03
 BYTE   VOL   15*PokemonMysteryDungeonExplorersofSkyTimeGear_mvl/mxv
 BYTE   W01
 BYTE   VOL   15*PokemonMysteryDungeonExplorersofSkyTimeGear_mvl/mxv
 BYTE   W03
 BYTE   VOL   14*PokemonMysteryDungeonExplorersofSkyTimeGear_mvl/mxv
 BYTE   W02
 BYTE   VOL   13*PokemonMysteryDungeonExplorersofSkyTimeGear_mvl/mxv
 BYTE   W03
 BYTE   VOL   11*PokemonMysteryDungeonExplorersofSkyTimeGear_mvl/mxv
 BYTE   W01
 BYTE   VOL   10*PokemonMysteryDungeonExplorersofSkyTimeGear_mvl/mxv
 BYTE   W03
 BYTE   VOL   7*PokemonMysteryDungeonExplorersofSkyTimeGear_mvl/mxv
 BYTE   W02
 BYTE   VOL   6*PokemonMysteryDungeonExplorersofSkyTimeGear_mvl/mxv
 BYTE   W03
 BYTE   VOL   5*PokemonMysteryDungeonExplorersofSkyTimeGear_mvl/mxv
 BYTE   W03
 BYTE   PEND 
 BYTE   EOT
 BYTE   En2
 BYTE   VOL   0*PokemonMysteryDungeonExplorersofSkyTimeGear_mvl/mxv
 BYTE   W01
//  #04 //003   ----------------------------------------
Label_01693D7B:
 BYTE   TIE  Dn2  v100
 BYTE   W02
 BYTE   VOL   0*PokemonMysteryDungeonExplorersofSkyTimeGear_mvl/mxv
 BYTE   W01
 BYTE   VOL   0*PokemonMysteryDungeonExplorersofSkyTimeGear_mvl/mxv
 BYTE   W02
 BYTE   VOL   0*PokemonMysteryDungeonExplorersofSkyTimeGear_mvl/mxv
 BYTE   W01
 BYTE   VOL   0*PokemonMysteryDungeonExplorersofSkyTimeGear_mvl/mxv
 BYTE   W02
 BYTE   VOL   0*PokemonMysteryDungeonExplorersofSkyTimeGear_mvl/mxv
 BYTE   W01
 BYTE   VOL   0*PokemonMysteryDungeonExplorersofSkyTimeGear_mvl/mxv
 BYTE   W02
 BYTE   VOL   0*PokemonMysteryDungeonExplorersofSkyTimeGear_mvl/mxv
 BYTE   W01
 BYTE   VOL   1*PokemonMysteryDungeonExplorersofSkyTimeGear_mvl/mxv
 BYTE   W02
 BYTE   VOL   1*PokemonMysteryDungeonExplorersofSkyTimeGear_mvl/mxv
 BYTE   W01
 BYTE   VOL   1*PokemonMysteryDungeonExplorersofSkyTimeGear_mvl/mxv
 BYTE   W02
 BYTE   VOL   1*PokemonMysteryDungeonExplorersofSkyTimeGear_mvl/mxv
 BYTE   W01
 BYTE   VOL   1*PokemonMysteryDungeonExplorersofSkyTimeGear_mvl/mxv
 BYTE   W02
 BYTE   VOL   1*PokemonMysteryDungeonExplorersofSkyTimeGear_mvl/mxv
 BYTE   W01
 BYTE   VOL   1*PokemonMysteryDungeonExplorersofSkyTimeGear_mvl/mxv
 BYTE   W02
 BYTE   VOL   1*PokemonMysteryDungeonExplorersofSkyTimeGear_mvl/mxv
 BYTE   W01
 BYTE   VOL   1*PokemonMysteryDungeonExplorersofSkyTimeGear_mvl/mxv
 BYTE   W02
 BYTE   VOL   2*PokemonMysteryDungeonExplorersofSkyTimeGear_mvl/mxv
 BYTE   W01
 BYTE   VOL   2*PokemonMysteryDungeonExplorersofSkyTimeGear_mvl/mxv
 BYTE   W02
 BYTE   VOL   3*PokemonMysteryDungeonExplorersofSkyTimeGear_mvl/mxv
 BYTE   W01
 BYTE   VOL   3*PokemonMysteryDungeonExplorersofSkyTimeGear_mvl/mxv
 BYTE   W02
 BYTE   VOL   3*PokemonMysteryDungeonExplorersofSkyTimeGear_mvl/mxv
 BYTE   W01
 BYTE   VOL   3*PokemonMysteryDungeonExplorersofSkyTimeGear_mvl/mxv
 BYTE   W02
 BYTE   VOL   3*PokemonMysteryDungeonExplorersofSkyTimeGear_mvl/mxv
 BYTE   W01
 BYTE   VOL   4*PokemonMysteryDungeonExplorersofSkyTimeGear_mvl/mxv
 BYTE   W02
 BYTE   VOL   4*PokemonMysteryDungeonExplorersofSkyTimeGear_mvl/mxv
 BYTE   W01
 BYTE   VOL   4*PokemonMysteryDungeonExplorersofSkyTimeGear_mvl/mxv
 BYTE   W02
 BYTE   VOL   4*PokemonMysteryDungeonExplorersofSkyTimeGear_mvl/mxv
 BYTE   W01
 BYTE   VOL   5*PokemonMysteryDungeonExplorersofSkyTimeGear_mvl/mxv
 BYTE   W02
 BYTE   VOL   5*PokemonMysteryDungeonExplorersofSkyTimeGear_mvl/mxv
 BYTE   W01
 BYTE   VOL   5*PokemonMysteryDungeonExplorersofSkyTimeGear_mvl/mxv
 BYTE   W02
 BYTE   VOL   5*PokemonMysteryDungeonExplorersofSkyTimeGear_mvl/mxv
 BYTE   W01
 BYTE   VOL   6*PokemonMysteryDungeonExplorersofSkyTimeGear_mvl/mxv
 BYTE   W02
 BYTE   VOL   6*PokemonMysteryDungeonExplorersofSkyTimeGear_mvl/mxv
 BYTE   W01
 BYTE   VOL   6*PokemonMysteryDungeonExplorersofSkyTimeGear_mvl/mxv
 BYTE   W02
 BYTE   VOL   6*PokemonMysteryDungeonExplorersofSkyTimeGear_mvl/mxv
 BYTE   W01
 BYTE   VOL   6*PokemonMysteryDungeonExplorersofSkyTimeGear_mvl/mxv
 BYTE   W02
 BYTE   VOL   7*PokemonMysteryDungeonExplorersofSkyTimeGear_mvl/mxv
 BYTE   W01
 BYTE   VOL   8*PokemonMysteryDungeonExplorersofSkyTimeGear_mvl/mxv
 BYTE   W02
 BYTE   VOL   8*PokemonMysteryDungeonExplorersofSkyTimeGear_mvl/mxv
 BYTE   W01
 BYTE   VOL   8*PokemonMysteryDungeonExplorersofSkyTimeGear_mvl/mxv
 BYTE   W02
 BYTE   VOL   8*PokemonMysteryDungeonExplorersofSkyTimeGear_mvl/mxv
 BYTE   W01
 BYTE   VOL   9*PokemonMysteryDungeonExplorersofSkyTimeGear_mvl/mxv
 BYTE   W02
 BYTE   VOL   10*PokemonMysteryDungeonExplorersofSkyTimeGear_mvl/mxv
 BYTE   W01
 BYTE   VOL   10*PokemonMysteryDungeonExplorersofSkyTimeGear_mvl/mxv
 BYTE   W02
 BYTE   VOL   10*PokemonMysteryDungeonExplorersofSkyTimeGear_mvl/mxv
 BYTE   W01
 BYTE   VOL   10*PokemonMysteryDungeonExplorersofSkyTimeGear_mvl/mxv
 BYTE   W02
 BYTE   VOL   10*PokemonMysteryDungeonExplorersofSkyTimeGear_mvl/mxv
 BYTE   W01
 BYTE   VOL   11*PokemonMysteryDungeonExplorersofSkyTimeGear_mvl/mxv
 BYTE   W02
 BYTE   VOL   11*PokemonMysteryDungeonExplorersofSkyTimeGear_mvl/mxv
 BYTE   W01
 BYTE   VOL   11*PokemonMysteryDungeonExplorersofSkyTimeGear_mvl/mxv
 BYTE   W02
 BYTE   VOL   11*PokemonMysteryDungeonExplorersofSkyTimeGear_mvl/mxv
 BYTE   W01
 BYTE   VOL   12*PokemonMysteryDungeonExplorersofSkyTimeGear_mvl/mxv
 BYTE   W02
 BYTE   VOL   13*PokemonMysteryDungeonExplorersofSkyTimeGear_mvl/mxv
 BYTE   W01
 BYTE   VOL   13*PokemonMysteryDungeonExplorersofSkyTimeGear_mvl/mxv
 BYTE   W02
 BYTE   VOL   13*PokemonMysteryDungeonExplorersofSkyTimeGear_mvl/mxv
 BYTE   W01
 BYTE   VOL   14*PokemonMysteryDungeonExplorersofSkyTimeGear_mvl/mxv
 BYTE   W02
 BYTE   VOL   14*PokemonMysteryDungeonExplorersofSkyTimeGear_mvl/mxv
 BYTE   W01
 BYTE   VOL   15*PokemonMysteryDungeonExplorersofSkyTimeGear_mvl/mxv
 BYTE   W02
 BYTE   VOL   15*PokemonMysteryDungeonExplorersofSkyTimeGear_mvl/mxv
 BYTE   W01
 BYTE   VOL   15*PokemonMysteryDungeonExplorersofSkyTimeGear_mvl/mxv
 BYTE   W02
 BYTE   VOL   16*PokemonMysteryDungeonExplorersofSkyTimeGear_mvl/mxv
 BYTE   W01
 BYTE   VOL   17*PokemonMysteryDungeonExplorersofSkyTimeGear_mvl/mxv
 BYTE   W02
 BYTE   VOL   17*PokemonMysteryDungeonExplorersofSkyTimeGear_mvl/mxv
 BYTE   W01
 BYTE   PEND 
//  #04 //004   ----------------------------------------
 BYTE   PATT
  POIN2 Label_01693CCD
//  #04 //005   ----------------------------------------
 BYTE   PATT
  POIN2 Label_01693D2F
//  #04 //006   ----------------------------------------
 BYTE   EOT
 BYTE   Dn2
 BYTE   VOL   0*PokemonMysteryDungeonExplorersofSkyTimeGear_mvl/mxv
 BYTE   W01
Label_01693E0E:
 BYTE   VOL   0*PokemonMysteryDungeonExplorersofSkyTimeGear_mvl/mxv
 BYTE   TIE  En2  v100
 BYTE   W02
 BYTE   VOL   0*PokemonMysteryDungeonExplorersofSkyTimeGear_mvl/mxv
 BYTE   W01
 BYTE   VOL   0*PokemonMysteryDungeonExplorersofSkyTimeGear_mvl/mxv
 BYTE   W02
 BYTE   VOL   0*PokemonMysteryDungeonExplorersofSkyTimeGear_mvl/mxv
 BYTE   W01
 BYTE   VOL   0*PokemonMysteryDungeonExplorersofSkyTimeGear_mvl/mxv
 BYTE   W02
 BYTE   VOL   0*PokemonMysteryDungeonExplorersofSkyTimeGear_mvl/mxv
 BYTE   W01
 BYTE   VOL   0*PokemonMysteryDungeonExplorersofSkyTimeGear_mvl/mxv
 BYTE   W02
 BYTE   VOL   0*PokemonMysteryDungeonExplorersofSkyTimeGear_mvl/mxv
 BYTE   W01
 BYTE   VOL   1*PokemonMysteryDungeonExplorersofSkyTimeGear_mvl/mxv
 BYTE   W02
 BYTE   VOL   1*PokemonMysteryDungeonExplorersofSkyTimeGear_mvl/mxv
 BYTE   W01
 BYTE   VOL   1*PokemonMysteryDungeonExplorersofSkyTimeGear_mvl/mxv
 BYTE   W02
 BYTE   VOL   1*PokemonMysteryDungeonExplorersofSkyTimeGear_mvl/mxv
 BYTE   W01
 BYTE   VOL   1*PokemonMysteryDungeonExplorersofSkyTimeGear_mvl/mxv
 BYTE   W02
 BYTE   VOL   1*PokemonMysteryDungeonExplorersofSkyTimeGear_mvl/mxv
 BYTE   W01
 BYTE   VOL   1*PokemonMysteryDungeonExplorersofSkyTimeGear_mvl/mxv
 BYTE   W02
 BYTE   VOL   1*PokemonMysteryDungeonExplorersofSkyTimeGear_mvl/mxv
 BYTE   W01
 BYTE   VOL   1*PokemonMysteryDungeonExplorersofSkyTimeGear_mvl/mxv
 BYTE   W02
 BYTE   VOL   2*PokemonMysteryDungeonExplorersofSkyTimeGear_mvl/mxv
 BYTE   W01
 BYTE   VOL   2*PokemonMysteryDungeonExplorersofSkyTimeGear_mvl/mxv
 BYTE   W02
 BYTE   VOL   3*PokemonMysteryDungeonExplorersofSkyTimeGear_mvl/mxv
 BYTE   W01
 BYTE   VOL   3*PokemonMysteryDungeonExplorersofSkyTimeGear_mvl/mxv
 BYTE   W02
 BYTE   VOL   3*PokemonMysteryDungeonExplorersofSkyTimeGear_mvl/mxv
 BYTE   W01
 BYTE   VOL   3*PokemonMysteryDungeonExplorersofSkyTimeGear_mvl/mxv
 BYTE   W02
 BYTE   VOL   3*PokemonMysteryDungeonExplorersofSkyTimeGear_mvl/mxv
 BYTE   W01
 BYTE   VOL   4*PokemonMysteryDungeonExplorersofSkyTimeGear_mvl/mxv
 BYTE   W02
 BYTE   VOL   4*PokemonMysteryDungeonExplorersofSkyTimeGear_mvl/mxv
 BYTE   W01
 BYTE   VOL   4*PokemonMysteryDungeonExplorersofSkyTimeGear_mvl/mxv
 BYTE   W02
 BYTE   VOL   4*PokemonMysteryDungeonExplorersofSkyTimeGear_mvl/mxv
 BYTE   W01
 BYTE   VOL   5*PokemonMysteryDungeonExplorersofSkyTimeGear_mvl/mxv
 BYTE   W02
 BYTE   VOL   5*PokemonMysteryDungeonExplorersofSkyTimeGear_mvl/mxv
 BYTE   W01
 BYTE   VOL   5*PokemonMysteryDungeonExplorersofSkyTimeGear_mvl/mxv
 BYTE   W02
 BYTE   VOL   5*PokemonMysteryDungeonExplorersofSkyTimeGear_mvl/mxv
 BYTE   W01
 BYTE   VOL   6*PokemonMysteryDungeonExplorersofSkyTimeGear_mvl/mxv
 BYTE   W02
 BYTE   VOL   6*PokemonMysteryDungeonExplorersofSkyTimeGear_mvl/mxv
 BYTE   W01
 BYTE   VOL   6*PokemonMysteryDungeonExplorersofSkyTimeGear_mvl/mxv
 BYTE   W02
 BYTE   VOL   6*PokemonMysteryDungeonExplorersofSkyTimeGear_mvl/mxv
 BYTE   W01
 BYTE   VOL   6*PokemonMysteryDungeonExplorersofSkyTimeGear_mvl/mxv
 BYTE   W02
 BYTE   VOL   7*PokemonMysteryDungeonExplorersofSkyTimeGear_mvl/mxv
 BYTE   W01
 BYTE   VOL   8*PokemonMysteryDungeonExplorersofSkyTimeGear_mvl/mxv
 BYTE   W02
 BYTE   VOL   8*PokemonMysteryDungeonExplorersofSkyTimeGear_mvl/mxv
 BYTE   W01
 BYTE   VOL   8*PokemonMysteryDungeonExplorersofSkyTimeGear_mvl/mxv
 BYTE   W02
 BYTE   VOL   8*PokemonMysteryDungeonExplorersofSkyTimeGear_mvl/mxv
 BYTE   W01
 BYTE   VOL   9*PokemonMysteryDungeonExplorersofSkyTimeGear_mvl/mxv
 BYTE   W02
 BYTE   VOL   10*PokemonMysteryDungeonExplorersofSkyTimeGear_mvl/mxv
 BYTE   W01
 BYTE   VOL   10*PokemonMysteryDungeonExplorersofSkyTimeGear_mvl/mxv
 BYTE   W02
 BYTE   VOL   10*PokemonMysteryDungeonExplorersofSkyTimeGear_mvl/mxv
 BYTE   W01
 BYTE   VOL   10*PokemonMysteryDungeonExplorersofSkyTimeGear_mvl/mxv
 BYTE   W02
 BYTE   VOL   10*PokemonMysteryDungeonExplorersofSkyTimeGear_mvl/mxv
 BYTE   W01
 BYTE   VOL   11*PokemonMysteryDungeonExplorersofSkyTimeGear_mvl/mxv
 BYTE   W02
 BYTE   VOL   11*PokemonMysteryDungeonExplorersofSkyTimeGear_mvl/mxv
 BYTE   W01
 BYTE   VOL   11*PokemonMysteryDungeonExplorersofSkyTimeGear_mvl/mxv
 BYTE   W02
 BYTE   VOL   11*PokemonMysteryDungeonExplorersofSkyTimeGear_mvl/mxv
 BYTE   W01
 BYTE   VOL   12*PokemonMysteryDungeonExplorersofSkyTimeGear_mvl/mxv
 BYTE   W02
 BYTE   VOL   13*PokemonMysteryDungeonExplorersofSkyTimeGear_mvl/mxv
 BYTE   W01
 BYTE   VOL   13*PokemonMysteryDungeonExplorersofSkyTimeGear_mvl/mxv
 BYTE   W02
 BYTE   VOL   13*PokemonMysteryDungeonExplorersofSkyTimeGear_mvl/mxv
 BYTE   W01
 BYTE   VOL   14*PokemonMysteryDungeonExplorersofSkyTimeGear_mvl/mxv
 BYTE   W02
 BYTE   VOL   14*PokemonMysteryDungeonExplorersofSkyTimeGear_mvl/mxv
 BYTE   W01
 BYTE   VOL   15*PokemonMysteryDungeonExplorersofSkyTimeGear_mvl/mxv
 BYTE   W02
 BYTE   VOL   15*PokemonMysteryDungeonExplorersofSkyTimeGear_mvl/mxv
 BYTE   W01
 BYTE   VOL   15*PokemonMysteryDungeonExplorersofSkyTimeGear_mvl/mxv
 BYTE   W02
 BYTE   VOL   16*PokemonMysteryDungeonExplorersofSkyTimeGear_mvl/mxv
 BYTE   W01
 BYTE   VOL   17*PokemonMysteryDungeonExplorersofSkyTimeGear_mvl/mxv
 BYTE   W02
//  #04 //007   ----------------------------------------
 BYTE   VOL   17*PokemonMysteryDungeonExplorersofSkyTimeGear_mvl/mxv
 BYTE   W01
//  #04 //008   ----------------------------------------
 BYTE   PATT
  POIN2 Label_01693CCD
//  #04 //009   ----------------------------------------
 BYTE   PATT
  POIN2 Label_01693D2F
//  #04 //010   ----------------------------------------
 BYTE   EOT
 BYTE   En2
 BYTE   VOL   0*PokemonMysteryDungeonExplorersofSkyTimeGear_mvl/mxv
 BYTE   W01
//  #04 //011   ----------------------------------------
 BYTE   PATT
  POIN2 Label_01693D7B
//  #04 //012   ----------------------------------------
 BYTE   PATT
  POIN2 Label_01693CCD
//  #04 //013   ----------------------------------------
 BYTE   PATT
  POIN2 Label_01693D2F
//  #04 //014   ----------------------------------------
 BYTE   EOT
 BYTE   Dn2
 BYTE   W01
Label_01693EB4:
 BYTE   TIE  Cn2  v100
 BYTE   W01
 BYTE   VOL   8*PokemonMysteryDungeonExplorersofSkyTimeGear_mvl/mxv
 BYTE   W02
 BYTE   VOL   9*PokemonMysteryDungeonExplorersofSkyTimeGear_mvl/mxv
 BYTE   W01
 BYTE   VOL   10*PokemonMysteryDungeonExplorersofSkyTimeGear_mvl/mxv
 BYTE   W02
 BYTE   VOL   10*PokemonMysteryDungeonExplorersofSkyTimeGear_mvl/mxv
 BYTE   W01
 BYTE   VOL   11*PokemonMysteryDungeonExplorersofSkyTimeGear_mvl/mxv
 BYTE   W02
 BYTE   VOL   11*PokemonMysteryDungeonExplorersofSkyTimeGear_mvl/mxv
 BYTE   W01
 BYTE   VOL   13*PokemonMysteryDungeonExplorersofSkyTimeGear_mvl/mxv
 BYTE   W03
 BYTE   VOL   13*PokemonMysteryDungeonExplorersofSkyTimeGear_mvl/mxv
 BYTE   W02
 BYTE   VOL   14*PokemonMysteryDungeonExplorersofSkyTimeGear_mvl/mxv
 BYTE   W03
 BYTE   VOL   15*PokemonMysteryDungeonExplorersofSkyTimeGear_mvl/mxv
 BYTE   W01
 BYTE   VOL   15*PokemonMysteryDungeonExplorersofSkyTimeGear_mvl/mxv
 BYTE   W02
 BYTE   VOL   16*PokemonMysteryDungeonExplorersofSkyTimeGear_mvl/mxv
 BYTE   W01
 BYTE   VOL   17*PokemonMysteryDungeonExplorersofSkyTimeGear_mvl/mxv
 BYTE   W02
 BYTE   VOL   18*PokemonMysteryDungeonExplorersofSkyTimeGear_mvl/mxv
 BYTE   W03
 BYTE   VOL   19*PokemonMysteryDungeonExplorersofSkyTimeGear_mvl/mxv
 BYTE   W01
 BYTE   VOL   19*PokemonMysteryDungeonExplorersofSkyTimeGear_mvl/mxv
 BYTE   W02
 BYTE   VOL   20*PokemonMysteryDungeonExplorersofSkyTimeGear_mvl/mxv
 BYTE   W01
 BYTE   VOL   21*PokemonMysteryDungeonExplorersofSkyTimeGear_mvl/mxv
 BYTE   W02
 BYTE   VOL   22*PokemonMysteryDungeonExplorersofSkyTimeGear_mvl/mxv
 BYTE   W01
 BYTE   VOL   22*PokemonMysteryDungeonExplorersofSkyTimeGear_mvl/mxv
 BYTE   W02
 BYTE   VOL   22*PokemonMysteryDungeonExplorersofSkyTimeGear_mvl/mxv
 BYTE   W03
 BYTE   VOL   25*PokemonMysteryDungeonExplorersofSkyTimeGear_mvl/mxv
 BYTE   W01
 BYTE   VOL   26*PokemonMysteryDungeonExplorersofSkyTimeGear_mvl/mxv
 BYTE   W02
 BYTE   VOL   27*PokemonMysteryDungeonExplorersofSkyTimeGear_mvl/mxv
 BYTE   W01
 BYTE   VOL   27*PokemonMysteryDungeonExplorersofSkyTimeGear_mvl/mxv
 BYTE   W02
 BYTE   VOL   28*PokemonMysteryDungeonExplorersofSkyTimeGear_mvl/mxv
 BYTE   W01
 BYTE   VOL   28*PokemonMysteryDungeonExplorersofSkyTimeGear_mvl/mxv
 BYTE   W02
 BYTE   VOL   29*PokemonMysteryDungeonExplorersofSkyTimeGear_mvl/mxv
 BYTE   W01
 BYTE   VOL   28*PokemonMysteryDungeonExplorersofSkyTimeGear_mvl/mxv
 BYTE   W03
 BYTE   VOL   29*PokemonMysteryDungeonExplorersofSkyTimeGear_mvl/mxv
 BYTE   W02
 BYTE   VOL   30*PokemonMysteryDungeonExplorersofSkyTimeGear_mvl/mxv
 BYTE   W01
 BYTE   VOL   30*PokemonMysteryDungeonExplorersofSkyTimeGear_mvl/mxv
 BYTE   W02
 BYTE   VOL   31*PokemonMysteryDungeonExplorersofSkyTimeGear_mvl/mxv
 BYTE   W01
 BYTE   VOL   32*PokemonMysteryDungeonExplorersofSkyTimeGear_mvl/mxv
 BYTE   W11
 BYTE   VOL   31*PokemonMysteryDungeonExplorersofSkyTimeGear_mvl/mxv
 BYTE   W03
 BYTE   VOL   30*PokemonMysteryDungeonExplorersofSkyTimeGear_mvl/mxv
 BYTE   W09
 BYTE   VOL   30*PokemonMysteryDungeonExplorersofSkyTimeGear_mvl/mxv
 BYTE   W03
 BYTE   VOL   29*PokemonMysteryDungeonExplorersofSkyTimeGear_mvl/mxv
 BYTE   W01
 BYTE   VOL   29*PokemonMysteryDungeonExplorersofSkyTimeGear_mvl/mxv
 BYTE   W02
 BYTE   VOL   28*PokemonMysteryDungeonExplorersofSkyTimeGear_mvl/mxv
 BYTE   W03
 BYTE   VOL   28*PokemonMysteryDungeonExplorersofSkyTimeGear_mvl/mxv
 BYTE   W01
 BYTE   VOL   27*PokemonMysteryDungeonExplorersofSkyTimeGear_mvl/mxv
 BYTE   W03
 BYTE   VOL   27*PokemonMysteryDungeonExplorersofSkyTimeGear_mvl/mxv
 BYTE   W02
 BYTE   PEND 
//  #04 //015   ----------------------------------------
Label_01693F10:
 BYTE   W06
 BYTE   VOL   27*PokemonMysteryDungeonExplorersofSkyTimeGear_mvl/mxv
 BYTE   W01
 BYTE   VOL   26*PokemonMysteryDungeonExplorersofSkyTimeGear_mvl/mxv
 BYTE   W03
 BYTE   VOL   25*PokemonMysteryDungeonExplorersofSkyTimeGear_mvl/mxv
 BYTE   W03
 BYTE   VOL   24*PokemonMysteryDungeonExplorersofSkyTimeGear_mvl/mxv
 BYTE   W02
 BYTE   VOL   23*PokemonMysteryDungeonExplorersofSkyTimeGear_mvl/mxv
 BYTE   W01
 BYTE   VOL   23*PokemonMysteryDungeonExplorersofSkyTimeGear_mvl/mxv
 BYTE   W03
 BYTE   VOL   22*PokemonMysteryDungeonExplorersofSkyTimeGear_mvl/mxv
 BYTE   W02
 BYTE   VOL   22*PokemonMysteryDungeonExplorersofSkyTimeGear_mvl/mxv
 BYTE   W01
 BYTE   VOL   20*PokemonMysteryDungeonExplorersofSkyTimeGear_mvl/mxv
 BYTE   W03
 BYTE   VOL   19*PokemonMysteryDungeonExplorersofSkyTimeGear_mvl/mxv
 BYTE   W02
 BYTE   VOL   18*PokemonMysteryDungeonExplorersofSkyTimeGear_mvl/mxv
 BYTE   W01
 BYTE   VOL   17*PokemonMysteryDungeonExplorersofSkyTimeGear_mvl/mxv
 BYTE   W03
 BYTE   VOL   14*PokemonMysteryDungeonExplorersofSkyTimeGear_mvl/mxv
 BYTE   W03
 BYTE   VOL   13*PokemonMysteryDungeonExplorersofSkyTimeGear_mvl/mxv
 BYTE   W02
 BYTE   VOL   12*PokemonMysteryDungeonExplorersofSkyTimeGear_mvl/mxv
 BYTE   W01
 BYTE   VOL   11*PokemonMysteryDungeonExplorersofSkyTimeGear_mvl/mxv
 BYTE   W02
 BYTE   VOL   10*PokemonMysteryDungeonExplorersofSkyTimeGear_mvl/mxv
 BYTE   W01
 BYTE   VOL   10*PokemonMysteryDungeonExplorersofSkyTimeGear_mvl/mxv
 BYTE   W07
 BYTE   PEND 
 BYTE   EOT
 BYTE   Cn2
 BYTE   W01
 BYTE   TIE  Bn1  v100
 BYTE   W01
 BYTE   VOL   8*PokemonMysteryDungeonExplorersofSkyTimeGear_mvl/mxv
 BYTE   W02
 BYTE   VOL   9*PokemonMysteryDungeonExplorersofSkyTimeGear_mvl/mxv
 BYTE   W01
 BYTE   VOL   10*PokemonMysteryDungeonExplorersofSkyTimeGear_mvl/mxv
 BYTE   W02
 BYTE   VOL   10*PokemonMysteryDungeonExplorersofSkyTimeGear_mvl/mxv
 BYTE   W01
 BYTE   VOL   11*PokemonMysteryDungeonExplorersofSkyTimeGear_mvl/mxv
 BYTE   W02
 BYTE   VOL   11*PokemonMysteryDungeonExplorersofSkyTimeGear_mvl/mxv
 BYTE   W01
 BYTE   VOL   13*PokemonMysteryDungeonExplorersofSkyTimeGear_mvl/mxv
 BYTE   W03
 BYTE   VOL   13*PokemonMysteryDungeonExplorersofSkyTimeGear_mvl/mxv
 BYTE   W02
 BYTE   VOL   14*PokemonMysteryDungeonExplorersofSkyTimeGear_mvl/mxv
 BYTE   W03
 BYTE   VOL   15*PokemonMysteryDungeonExplorersofSkyTimeGear_mvl/mxv
 BYTE   W01
 BYTE   VOL   15*PokemonMysteryDungeonExplorersofSkyTimeGear_mvl/mxv
 BYTE   W02
 BYTE   VOL   16*PokemonMysteryDungeonExplorersofSkyTimeGear_mvl/mxv
 BYTE   W01
 BYTE   VOL   17*PokemonMysteryDungeonExplorersofSkyTimeGear_mvl/mxv
 BYTE   W02
 BYTE   VOL   18*PokemonMysteryDungeonExplorersofSkyTimeGear_mvl/mxv
 BYTE   W03
 BYTE   VOL   19*PokemonMysteryDungeonExplorersofSkyTimeGear_mvl/mxv
 BYTE   W01
 BYTE   VOL   19*PokemonMysteryDungeonExplorersofSkyTimeGear_mvl/mxv
 BYTE   W02
 BYTE   VOL   20*PokemonMysteryDungeonExplorersofSkyTimeGear_mvl/mxv
 BYTE   W01
 BYTE   VOL   21*PokemonMysteryDungeonExplorersofSkyTimeGear_mvl/mxv
 BYTE   W02
 BYTE   VOL   22*PokemonMysteryDungeonExplorersofSkyTimeGear_mvl/mxv
 BYTE   W01
 BYTE   VOL   22*PokemonMysteryDungeonExplorersofSkyTimeGear_mvl/mxv
 BYTE   W02
 BYTE   VOL   22*PokemonMysteryDungeonExplorersofSkyTimeGear_mvl/mxv
 BYTE   W03
 BYTE   VOL   25*PokemonMysteryDungeonExplorersofSkyTimeGear_mvl/mxv
 BYTE   W01
 BYTE   VOL   26*PokemonMysteryDungeonExplorersofSkyTimeGear_mvl/mxv
 BYTE   W02
 BYTE   VOL   27*PokemonMysteryDungeonExplorersofSkyTimeGear_mvl/mxv
 BYTE   W01
 BYTE   VOL   27*PokemonMysteryDungeonExplorersofSkyTimeGear_mvl/mxv
 BYTE   W02
 BYTE   VOL   28*PokemonMysteryDungeonExplorersofSkyTimeGear_mvl/mxv
 BYTE   W01
 BYTE   VOL   28*PokemonMysteryDungeonExplorersofSkyTimeGear_mvl/mxv
 BYTE   W02
//  #04 //016   ----------------------------------------
Label_01693F75:
 BYTE   VOL   29*PokemonMysteryDungeonExplorersofSkyTimeGear_mvl/mxv
 BYTE   W01
 BYTE   VOL   28*PokemonMysteryDungeonExplorersofSkyTimeGear_mvl/mxv
 BYTE   W03
 BYTE   VOL   29*PokemonMysteryDungeonExplorersofSkyTimeGear_mvl/mxv
 BYTE   W02
 BYTE   VOL   30*PokemonMysteryDungeonExplorersofSkyTimeGear_mvl/mxv
 BYTE   W01
 BYTE   VOL   30*PokemonMysteryDungeonExplorersofSkyTimeGear_mvl/mxv
 BYTE   W02
 BYTE   VOL   31*PokemonMysteryDungeonExplorersofSkyTimeGear_mvl/mxv
 BYTE   W01
 BYTE   VOL   32*PokemonMysteryDungeonExplorersofSkyTimeGear_mvl/mxv
 BYTE   W11
 BYTE   VOL   31*PokemonMysteryDungeonExplorersofSkyTimeGear_mvl/mxv
 BYTE   W03
 BYTE   VOL   30*PokemonMysteryDungeonExplorersofSkyTimeGear_mvl/mxv
 BYTE   W09
 BYTE   VOL   30*PokemonMysteryDungeonExplorersofSkyTimeGear_mvl/mxv
 BYTE   W03
 BYTE   VOL   29*PokemonMysteryDungeonExplorersofSkyTimeGear_mvl/mxv
 BYTE   W01
 BYTE   VOL   29*PokemonMysteryDungeonExplorersofSkyTimeGear_mvl/mxv
 BYTE   W02
 BYTE   VOL   28*PokemonMysteryDungeonExplorersofSkyTimeGear_mvl/mxv
 BYTE   W03
 BYTE   VOL   28*PokemonMysteryDungeonExplorersofSkyTimeGear_mvl/mxv
 BYTE   W01
 BYTE   VOL   27*PokemonMysteryDungeonExplorersofSkyTimeGear_mvl/mxv
 BYTE   W03
 BYTE   VOL   27*PokemonMysteryDungeonExplorersofSkyTimeGear_mvl/mxv
 BYTE   W08
 BYTE   VOL   27*PokemonMysteryDungeonExplorersofSkyTimeGear_mvl/mxv
 BYTE   W01
 BYTE   VOL   26*PokemonMysteryDungeonExplorersofSkyTimeGear_mvl/mxv
 BYTE   W03
 BYTE   VOL   25*PokemonMysteryDungeonExplorersofSkyTimeGear_mvl/mxv
 BYTE   W03
 BYTE   VOL   24*PokemonMysteryDungeonExplorersofSkyTimeGear_mvl/mxv
 BYTE   W02
 BYTE   VOL   23*PokemonMysteryDungeonExplorersofSkyTimeGear_mvl/mxv
 BYTE   W01
 BYTE   VOL   23*PokemonMysteryDungeonExplorersofSkyTimeGear_mvl/mxv
 BYTE   W03
 BYTE   VOL   22*PokemonMysteryDungeonExplorersofSkyTimeGear_mvl/mxv
 BYTE   W02
 BYTE   VOL   22*PokemonMysteryDungeonExplorersofSkyTimeGear_mvl/mxv
 BYTE   W01
 BYTE   VOL   20*PokemonMysteryDungeonExplorersofSkyTimeGear_mvl/mxv
 BYTE   W03
 BYTE   VOL   19*PokemonMysteryDungeonExplorersofSkyTimeGear_mvl/mxv
 BYTE   W02
 BYTE   VOL   18*PokemonMysteryDungeonExplorersofSkyTimeGear_mvl/mxv
 BYTE   W01
 BYTE   VOL   17*PokemonMysteryDungeonExplorersofSkyTimeGear_mvl/mxv
 BYTE   W03
 BYTE   VOL   14*PokemonMysteryDungeonExplorersofSkyTimeGear_mvl/mxv
 BYTE   W03
 BYTE   VOL   13*PokemonMysteryDungeonExplorersofSkyTimeGear_mvl/mxv
 BYTE   W02
 BYTE   VOL   12*PokemonMysteryDungeonExplorersofSkyTimeGear_mvl/mxv
 BYTE   W01
 BYTE   VOL   11*PokemonMysteryDungeonExplorersofSkyTimeGear_mvl/mxv
 BYTE   W02
 BYTE   VOL   10*PokemonMysteryDungeonExplorersofSkyTimeGear_mvl/mxv
 BYTE   W01
 BYTE   VOL   10*PokemonMysteryDungeonExplorersofSkyTimeGear_mvl/mxv
 BYTE   W07
 BYTE   PEND 
 BYTE   EOT
 BYTE   Bn1
 BYTE   W01
//  #04 //017   ----------------------------------------
 BYTE   PATT
  POIN2 Label_01693EB4
//  #04 //018   ----------------------------------------
 BYTE   PATT
  POIN2 Label_01693F10
//  #04 //019   ----------------------------------------
 BYTE   EOT
 BYTE   Cn2
 BYTE   W01
 BYTE   TIE  Bn1  v100
 BYTE   W01
 BYTE   VOL   8*PokemonMysteryDungeonExplorersofSkyTimeGear_mvl/mxv
 BYTE   W02
 BYTE   VOL   9*PokemonMysteryDungeonExplorersofSkyTimeGear_mvl/mxv
 BYTE   W01
 BYTE   VOL   10*PokemonMysteryDungeonExplorersofSkyTimeGear_mvl/mxv
 BYTE   W02
 BYTE   VOL   10*PokemonMysteryDungeonExplorersofSkyTimeGear_mvl/mxv
 BYTE   W01
 BYTE   VOL   11*PokemonMysteryDungeonExplorersofSkyTimeGear_mvl/mxv
 BYTE   W02
 BYTE   VOL   11*PokemonMysteryDungeonExplorersofSkyTimeGear_mvl/mxv
 BYTE   W01
 BYTE   VOL   13*PokemonMysteryDungeonExplorersofSkyTimeGear_mvl/mxv
 BYTE   W03
 BYTE   VOL   13*PokemonMysteryDungeonExplorersofSkyTimeGear_mvl/mxv
 BYTE   W02
 BYTE   VOL   14*PokemonMysteryDungeonExplorersofSkyTimeGear_mvl/mxv
 BYTE   W03
 BYTE   VOL   15*PokemonMysteryDungeonExplorersofSkyTimeGear_mvl/mxv
 BYTE   W01
 BYTE   VOL   15*PokemonMysteryDungeonExplorersofSkyTimeGear_mvl/mxv
 BYTE   W02
 BYTE   VOL   16*PokemonMysteryDungeonExplorersofSkyTimeGear_mvl/mxv
 BYTE   W01
 BYTE   VOL   17*PokemonMysteryDungeonExplorersofSkyTimeGear_mvl/mxv
 BYTE   W02
 BYTE   VOL   18*PokemonMysteryDungeonExplorersofSkyTimeGear_mvl/mxv
 BYTE   W03
 BYTE   VOL   19*PokemonMysteryDungeonExplorersofSkyTimeGear_mvl/mxv
 BYTE   W01
 BYTE   VOL   19*PokemonMysteryDungeonExplorersofSkyTimeGear_mvl/mxv
 BYTE   W02
 BYTE   VOL   20*PokemonMysteryDungeonExplorersofSkyTimeGear_mvl/mxv
 BYTE   W01
 BYTE   VOL   21*PokemonMysteryDungeonExplorersofSkyTimeGear_mvl/mxv
 BYTE   W02
 BYTE   VOL   22*PokemonMysteryDungeonExplorersofSkyTimeGear_mvl/mxv
 BYTE   W01
 BYTE   VOL   22*PokemonMysteryDungeonExplorersofSkyTimeGear_mvl/mxv
 BYTE   W02
 BYTE   VOL   22*PokemonMysteryDungeonExplorersofSkyTimeGear_mvl/mxv
 BYTE   W03
 BYTE   VOL   25*PokemonMysteryDungeonExplorersofSkyTimeGear_mvl/mxv
 BYTE   W01
 BYTE   VOL   26*PokemonMysteryDungeonExplorersofSkyTimeGear_mvl/mxv
 BYTE   W02
 BYTE   VOL   27*PokemonMysteryDungeonExplorersofSkyTimeGear_mvl/mxv
 BYTE   W01
 BYTE   VOL   27*PokemonMysteryDungeonExplorersofSkyTimeGear_mvl/mxv
 BYTE   W02
 BYTE   VOL   28*PokemonMysteryDungeonExplorersofSkyTimeGear_mvl/mxv
 BYTE   W01
 BYTE   VOL   28*PokemonMysteryDungeonExplorersofSkyTimeGear_mvl/mxv
 BYTE   W02
//  #04 //020   ----------------------------------------
 BYTE   PATT
  POIN2 Label_01693F75
//  #04 //021   ----------------------------------------
 BYTE   EOT
 BYTE   Bn1
 BYTE   W01
//  #04 //022   ----------------------------------------
 BYTE   PATT
  POIN2 Label_01693EB4
//  #04 //023   ----------------------------------------
 BYTE   PATT
  POIN2 Label_01693F10
//  #04 //024   ----------------------------------------
 BYTE   EOT
 BYTE   Cn2
 BYTE   W01
 BYTE   TIE  Bn1  v100
 BYTE   W01
 BYTE   VOL   8*PokemonMysteryDungeonExplorersofSkyTimeGear_mvl/mxv
 BYTE   W02
 BYTE   VOL   9*PokemonMysteryDungeonExplorersofSkyTimeGear_mvl/mxv
 BYTE   W01
 BYTE   VOL   10*PokemonMysteryDungeonExplorersofSkyTimeGear_mvl/mxv
 BYTE   W02
 BYTE   VOL   10*PokemonMysteryDungeonExplorersofSkyTimeGear_mvl/mxv
 BYTE   W01
 BYTE   VOL   11*PokemonMysteryDungeonExplorersofSkyTimeGear_mvl/mxv
 BYTE   W02
 BYTE   VOL   11*PokemonMysteryDungeonExplorersofSkyTimeGear_mvl/mxv
 BYTE   W01
 BYTE   VOL   13*PokemonMysteryDungeonExplorersofSkyTimeGear_mvl/mxv
 BYTE   W03
 BYTE   VOL   13*PokemonMysteryDungeonExplorersofSkyTimeGear_mvl/mxv
 BYTE   W02
 BYTE   VOL   14*PokemonMysteryDungeonExplorersofSkyTimeGear_mvl/mxv
 BYTE   W03
 BYTE   VOL   15*PokemonMysteryDungeonExplorersofSkyTimeGear_mvl/mxv
 BYTE   W01
 BYTE   VOL   15*PokemonMysteryDungeonExplorersofSkyTimeGear_mvl/mxv
 BYTE   W02
 BYTE   VOL   16*PokemonMysteryDungeonExplorersofSkyTimeGear_mvl/mxv
 BYTE   W01
 BYTE   VOL   17*PokemonMysteryDungeonExplorersofSkyTimeGear_mvl/mxv
 BYTE   W02
 BYTE   VOL   18*PokemonMysteryDungeonExplorersofSkyTimeGear_mvl/mxv
 BYTE   W03
 BYTE   VOL   19*PokemonMysteryDungeonExplorersofSkyTimeGear_mvl/mxv
 BYTE   W01
 BYTE   VOL   19*PokemonMysteryDungeonExplorersofSkyTimeGear_mvl/mxv
 BYTE   W02
 BYTE   VOL   20*PokemonMysteryDungeonExplorersofSkyTimeGear_mvl/mxv
 BYTE   W01
 BYTE   VOL   21*PokemonMysteryDungeonExplorersofSkyTimeGear_mvl/mxv
 BYTE   W02
 BYTE   VOL   22*PokemonMysteryDungeonExplorersofSkyTimeGear_mvl/mxv
 BYTE   W01
 BYTE   VOL   22*PokemonMysteryDungeonExplorersofSkyTimeGear_mvl/mxv
 BYTE   W02
 BYTE   VOL   22*PokemonMysteryDungeonExplorersofSkyTimeGear_mvl/mxv
 BYTE   W03
 BYTE   VOL   25*PokemonMysteryDungeonExplorersofSkyTimeGear_mvl/mxv
 BYTE   W01
 BYTE   VOL   26*PokemonMysteryDungeonExplorersofSkyTimeGear_mvl/mxv
 BYTE   W02
 BYTE   VOL   27*PokemonMysteryDungeonExplorersofSkyTimeGear_mvl/mxv
 BYTE   W01
 BYTE   VOL   27*PokemonMysteryDungeonExplorersofSkyTimeGear_mvl/mxv
 BYTE   W02
 BYTE   VOL   28*PokemonMysteryDungeonExplorersofSkyTimeGear_mvl/mxv
 BYTE   W01
 BYTE   VOL   28*PokemonMysteryDungeonExplorersofSkyTimeGear_mvl/mxv
 BYTE   W02
//  #04 //025   ----------------------------------------
 BYTE   PATT
  POIN2 Label_01693F75
//  #04 //026   ----------------------------------------
 BYTE   EOT
 BYTE   Bn1
 BYTE   W01
//  #04 //027   ----------------------------------------
 BYTE   PATT
  POIN2 Label_01693EB4
//  #04 //028   ----------------------------------------
 BYTE   PATT
  POIN2 Label_01693F10
//  #04 //029   ----------------------------------------
 BYTE   EOT
 BYTE   Cn2
 BYTE   W01
 BYTE   TIE  Bn1  v100
 BYTE   W01
 BYTE   VOL   8*PokemonMysteryDungeonExplorersofSkyTimeGear_mvl/mxv
 BYTE   W02
 BYTE   VOL   9*PokemonMysteryDungeonExplorersofSkyTimeGear_mvl/mxv
 BYTE   W01
 BYTE   VOL   10*PokemonMysteryDungeonExplorersofSkyTimeGear_mvl/mxv
 BYTE   W02
 BYTE   VOL   10*PokemonMysteryDungeonExplorersofSkyTimeGear_mvl/mxv
 BYTE   W01
 BYTE   VOL   11*PokemonMysteryDungeonExplorersofSkyTimeGear_mvl/mxv
 BYTE   W02
 BYTE   VOL   11*PokemonMysteryDungeonExplorersofSkyTimeGear_mvl/mxv
 BYTE   W01
 BYTE   VOL   13*PokemonMysteryDungeonExplorersofSkyTimeGear_mvl/mxv
 BYTE   W03
 BYTE   VOL   13*PokemonMysteryDungeonExplorersofSkyTimeGear_mvl/mxv
 BYTE   W02
 BYTE   VOL   14*PokemonMysteryDungeonExplorersofSkyTimeGear_mvl/mxv
 BYTE   W03
 BYTE   VOL   15*PokemonMysteryDungeonExplorersofSkyTimeGear_mvl/mxv
 BYTE   W01
 BYTE   VOL   15*PokemonMysteryDungeonExplorersofSkyTimeGear_mvl/mxv
 BYTE   W02
 BYTE   VOL   16*PokemonMysteryDungeonExplorersofSkyTimeGear_mvl/mxv
 BYTE   W01
 BYTE   VOL   17*PokemonMysteryDungeonExplorersofSkyTimeGear_mvl/mxv
 BYTE   W02
 BYTE   VOL   18*PokemonMysteryDungeonExplorersofSkyTimeGear_mvl/mxv
 BYTE   W03
 BYTE   VOL   19*PokemonMysteryDungeonExplorersofSkyTimeGear_mvl/mxv
 BYTE   W01
 BYTE   VOL   19*PokemonMysteryDungeonExplorersofSkyTimeGear_mvl/mxv
 BYTE   W02
 BYTE   VOL   20*PokemonMysteryDungeonExplorersofSkyTimeGear_mvl/mxv
 BYTE   W01
 BYTE   VOL   21*PokemonMysteryDungeonExplorersofSkyTimeGear_mvl/mxv
 BYTE   W02
 BYTE   VOL   22*PokemonMysteryDungeonExplorersofSkyTimeGear_mvl/mxv
 BYTE   W01
 BYTE   VOL   22*PokemonMysteryDungeonExplorersofSkyTimeGear_mvl/mxv
 BYTE   W02
 BYTE   VOL   22*PokemonMysteryDungeonExplorersofSkyTimeGear_mvl/mxv
 BYTE   W03
 BYTE   VOL   25*PokemonMysteryDungeonExplorersofSkyTimeGear_mvl/mxv
 BYTE   W01
 BYTE   VOL   26*PokemonMysteryDungeonExplorersofSkyTimeGear_mvl/mxv
 BYTE   W02
 BYTE   VOL   27*PokemonMysteryDungeonExplorersofSkyTimeGear_mvl/mxv
 BYTE   W01
 BYTE   VOL   27*PokemonMysteryDungeonExplorersofSkyTimeGear_mvl/mxv
 BYTE   W02
 BYTE   VOL   28*PokemonMysteryDungeonExplorersofSkyTimeGear_mvl/mxv
 BYTE   W01
 BYTE   VOL   28*PokemonMysteryDungeonExplorersofSkyTimeGear_mvl/mxv
 BYTE   W02
//  #04 //030   ----------------------------------------
 BYTE   PATT
  POIN2 Label_01693F75
//  #04 //031   ----------------------------------------
 BYTE   EOT
 BYTE   Bn1
 BYTE   W01
Label_016940AE:
 BYTE   TIE  Cn3  v100
 BYTE   W01
 BYTE   VOL   8*PokemonMysteryDungeonExplorersofSkyTimeGear_mvl/mxv
 BYTE   W02
 BYTE   VOL   9*PokemonMysteryDungeonExplorersofSkyTimeGear_mvl/mxv
 BYTE   W01
 BYTE   VOL   10*PokemonMysteryDungeonExplorersofSkyTimeGear_mvl/mxv
 BYTE   W02
 BYTE   VOL   10*PokemonMysteryDungeonExplorersofSkyTimeGear_mvl/mxv
 BYTE   W01
 BYTE   VOL   11*PokemonMysteryDungeonExplorersofSkyTimeGear_mvl/mxv
 BYTE   W02
 BYTE   VOL   11*PokemonMysteryDungeonExplorersofSkyTimeGear_mvl/mxv
 BYTE   W01
 BYTE   VOL   13*PokemonMysteryDungeonExplorersofSkyTimeGear_mvl/mxv
 BYTE   W03
 BYTE   VOL   13*PokemonMysteryDungeonExplorersofSkyTimeGear_mvl/mxv
 BYTE   W02
 BYTE   VOL   14*PokemonMysteryDungeonExplorersofSkyTimeGear_mvl/mxv
 BYTE   W03
 BYTE   VOL   15*PokemonMysteryDungeonExplorersofSkyTimeGear_mvl/mxv
 BYTE   W01
 BYTE   VOL   15*PokemonMysteryDungeonExplorersofSkyTimeGear_mvl/mxv
 BYTE   W02
 BYTE   VOL   16*PokemonMysteryDungeonExplorersofSkyTimeGear_mvl/mxv
 BYTE   W01
 BYTE   VOL   17*PokemonMysteryDungeonExplorersofSkyTimeGear_mvl/mxv
 BYTE   W02
 BYTE   VOL   18*PokemonMysteryDungeonExplorersofSkyTimeGear_mvl/mxv
 BYTE   W03
 BYTE   VOL   19*PokemonMysteryDungeonExplorersofSkyTimeGear_mvl/mxv
 BYTE   W01
 BYTE   VOL   19*PokemonMysteryDungeonExplorersofSkyTimeGear_mvl/mxv
 BYTE   W02
 BYTE   VOL   20*PokemonMysteryDungeonExplorersofSkyTimeGear_mvl/mxv
 BYTE   W01
 BYTE   VOL   21*PokemonMysteryDungeonExplorersofSkyTimeGear_mvl/mxv
 BYTE   W02
 BYTE   VOL   22*PokemonMysteryDungeonExplorersofSkyTimeGear_mvl/mxv
 BYTE   W01
 BYTE   VOL   22*PokemonMysteryDungeonExplorersofSkyTimeGear_mvl/mxv
 BYTE   W02
 BYTE   VOL   22*PokemonMysteryDungeonExplorersofSkyTimeGear_mvl/mxv
 BYTE   W03
 BYTE   VOL   25*PokemonMysteryDungeonExplorersofSkyTimeGear_mvl/mxv
 BYTE   W01
 BYTE   VOL   26*PokemonMysteryDungeonExplorersofSkyTimeGear_mvl/mxv
 BYTE   W02
 BYTE   VOL   27*PokemonMysteryDungeonExplorersofSkyTimeGear_mvl/mxv
 BYTE   W01
 BYTE   VOL   27*PokemonMysteryDungeonExplorersofSkyTimeGear_mvl/mxv
 BYTE   W02
 BYTE   VOL   28*PokemonMysteryDungeonExplorersofSkyTimeGear_mvl/mxv
 BYTE   W01
 BYTE   VOL   28*PokemonMysteryDungeonExplorersofSkyTimeGear_mvl/mxv
 BYTE   W02
 BYTE   VOL   29*PokemonMysteryDungeonExplorersofSkyTimeGear_mvl/mxv
 BYTE   W01
 BYTE   VOL   28*PokemonMysteryDungeonExplorersofSkyTimeGear_mvl/mxv
 BYTE   W03
 BYTE   VOL   29*PokemonMysteryDungeonExplorersofSkyTimeGear_mvl/mxv
 BYTE   W02
 BYTE   VOL   30*PokemonMysteryDungeonExplorersofSkyTimeGear_mvl/mxv
 BYTE   W01
 BYTE   VOL   30*PokemonMysteryDungeonExplorersofSkyTimeGear_mvl/mxv
 BYTE   W02
 BYTE   VOL   31*PokemonMysteryDungeonExplorersofSkyTimeGear_mvl/mxv
 BYTE   W01
 BYTE   VOL   32*PokemonMysteryDungeonExplorersofSkyTimeGear_mvl/mxv
 BYTE   W11
 BYTE   VOL   31*PokemonMysteryDungeonExplorersofSkyTimeGear_mvl/mxv
 BYTE   W03
 BYTE   VOL   30*PokemonMysteryDungeonExplorersofSkyTimeGear_mvl/mxv
 BYTE   W09
 BYTE   VOL   30*PokemonMysteryDungeonExplorersofSkyTimeGear_mvl/mxv
 BYTE   W03
 BYTE   VOL   29*PokemonMysteryDungeonExplorersofSkyTimeGear_mvl/mxv
 BYTE   W01
 BYTE   VOL   29*PokemonMysteryDungeonExplorersofSkyTimeGear_mvl/mxv
 BYTE   W02
 BYTE   VOL   28*PokemonMysteryDungeonExplorersofSkyTimeGear_mvl/mxv
 BYTE   W03
 BYTE   VOL   28*PokemonMysteryDungeonExplorersofSkyTimeGear_mvl/mxv
 BYTE   W01
 BYTE   VOL   27*PokemonMysteryDungeonExplorersofSkyTimeGear_mvl/mxv
 BYTE   W03
 BYTE   VOL   27*PokemonMysteryDungeonExplorersofSkyTimeGear_mvl/mxv
 BYTE   W02
 BYTE   PEND 
//  #04 //032   ----------------------------------------
 BYTE   PATT
  POIN2 Label_01693F10
//  #04 //033   ----------------------------------------
 BYTE   EOT
 BYTE   Cn3
 BYTE   W01
 BYTE   N68  Fs2  v100
 BYTE   W01
 BYTE   VOL   8*PokemonMysteryDungeonExplorersofSkyTimeGear_mvl/mxv
 BYTE   W02
 BYTE   VOL   9*PokemonMysteryDungeonExplorersofSkyTimeGear_mvl/mxv
 BYTE   W01
 BYTE   VOL   10*PokemonMysteryDungeonExplorersofSkyTimeGear_mvl/mxv
 BYTE   W02
 BYTE   VOL   10*PokemonMysteryDungeonExplorersofSkyTimeGear_mvl/mxv
 BYTE   W01
 BYTE   VOL   11*PokemonMysteryDungeonExplorersofSkyTimeGear_mvl/mxv
 BYTE   W02
 BYTE   VOL   11*PokemonMysteryDungeonExplorersofSkyTimeGear_mvl/mxv
 BYTE   W01
 BYTE   VOL   13*PokemonMysteryDungeonExplorersofSkyTimeGear_mvl/mxv
 BYTE   W03
 BYTE   VOL   13*PokemonMysteryDungeonExplorersofSkyTimeGear_mvl/mxv
 BYTE   W02
 BYTE   VOL   14*PokemonMysteryDungeonExplorersofSkyTimeGear_mvl/mxv
 BYTE   W03
 BYTE   VOL   15*PokemonMysteryDungeonExplorersofSkyTimeGear_mvl/mxv
 BYTE   W01
 BYTE   VOL   15*PokemonMysteryDungeonExplorersofSkyTimeGear_mvl/mxv
 BYTE   W02
 BYTE   VOL   16*PokemonMysteryDungeonExplorersofSkyTimeGear_mvl/mxv
 BYTE   W01
 BYTE   VOL   17*PokemonMysteryDungeonExplorersofSkyTimeGear_mvl/mxv
 BYTE   W02
 BYTE   VOL   18*PokemonMysteryDungeonExplorersofSkyTimeGear_mvl/mxv
 BYTE   W03
 BYTE   VOL   19*PokemonMysteryDungeonExplorersofSkyTimeGear_mvl/mxv
 BYTE   W01
 BYTE   VOL   19*PokemonMysteryDungeonExplorersofSkyTimeGear_mvl/mxv
 BYTE   W02
 BYTE   VOL   20*PokemonMysteryDungeonExplorersofSkyTimeGear_mvl/mxv
 BYTE   W01
 BYTE   VOL   21*PokemonMysteryDungeonExplorersofSkyTimeGear_mvl/mxv
 BYTE   W02
 BYTE   VOL   22*PokemonMysteryDungeonExplorersofSkyTimeGear_mvl/mxv
 BYTE   W01
 BYTE   VOL   22*PokemonMysteryDungeonExplorersofSkyTimeGear_mvl/mxv
 BYTE   W02
 BYTE   VOL   22*PokemonMysteryDungeonExplorersofSkyTimeGear_mvl/mxv
 BYTE   W03
 BYTE   VOL   25*PokemonMysteryDungeonExplorersofSkyTimeGear_mvl/mxv
 BYTE   W01
 BYTE   VOL   26*PokemonMysteryDungeonExplorersofSkyTimeGear_mvl/mxv
 BYTE   W02
 BYTE   VOL   27*PokemonMysteryDungeonExplorersofSkyTimeGear_mvl/mxv
 BYTE   W01
 BYTE   VOL   27*PokemonMysteryDungeonExplorersofSkyTimeGear_mvl/mxv
 BYTE   W02
 BYTE   VOL   28*PokemonMysteryDungeonExplorersofSkyTimeGear_mvl/mxv
 BYTE   W01
 BYTE   VOL   28*PokemonMysteryDungeonExplorersofSkyTimeGear_mvl/mxv
 BYTE   W02
Label_0169414D:
 BYTE   VOL   29*PokemonMysteryDungeonExplorersofSkyTimeGear_mvl/mxv
 BYTE   W01
 BYTE   VOL   28*PokemonMysteryDungeonExplorersofSkyTimeGear_mvl/mxv
 BYTE   W03
 BYTE   VOL   29*PokemonMysteryDungeonExplorersofSkyTimeGear_mvl/mxv
 BYTE   W02
 BYTE   VOL   30*PokemonMysteryDungeonExplorersofSkyTimeGear_mvl/mxv
 BYTE   W01
 BYTE   VOL   30*PokemonMysteryDungeonExplorersofSkyTimeGear_mvl/mxv
 BYTE   W02
 BYTE   VOL   31*PokemonMysteryDungeonExplorersofSkyTimeGear_mvl/mxv
 BYTE   W01
 BYTE   VOL   32*PokemonMysteryDungeonExplorersofSkyTimeGear_mvl/mxv
 BYTE   W11
 BYTE   VOL   31*PokemonMysteryDungeonExplorersofSkyTimeGear_mvl/mxv
 BYTE   W03
 BYTE   VOL   30*PokemonMysteryDungeonExplorersofSkyTimeGear_mvl/mxv
 BYTE   N68  An2  v100
 BYTE   W09
 BYTE   VOL   30*PokemonMysteryDungeonExplorersofSkyTimeGear_mvl/mxv
 BYTE   W03
 BYTE   VOL   29*PokemonMysteryDungeonExplorersofSkyTimeGear_mvl/mxv
 BYTE   W01
 BYTE   VOL   29*PokemonMysteryDungeonExplorersofSkyTimeGear_mvl/mxv
 BYTE   W02
 BYTE   VOL   28*PokemonMysteryDungeonExplorersofSkyTimeGear_mvl/mxv
 BYTE   W03
 BYTE   VOL   28*PokemonMysteryDungeonExplorersofSkyTimeGear_mvl/mxv
 BYTE   W01
 BYTE   VOL   27*PokemonMysteryDungeonExplorersofSkyTimeGear_mvl/mxv
 BYTE   W03
 BYTE   VOL   27*PokemonMysteryDungeonExplorersofSkyTimeGear_mvl/mxv
 BYTE   W08
//  #04 //034   ----------------------------------------
 BYTE   VOL   27*PokemonMysteryDungeonExplorersofSkyTimeGear_mvl/mxv
 BYTE   W01
 BYTE   VOL   26*PokemonMysteryDungeonExplorersofSkyTimeGear_mvl/mxv
 BYTE   W03
 BYTE   VOL   25*PokemonMysteryDungeonExplorersofSkyTimeGear_mvl/mxv
 BYTE   W03
 BYTE   VOL   24*PokemonMysteryDungeonExplorersofSkyTimeGear_mvl/mxv
 BYTE   W02
 BYTE   VOL   23*PokemonMysteryDungeonExplorersofSkyTimeGear_mvl/mxv
 BYTE   W01
 BYTE   VOL   23*PokemonMysteryDungeonExplorersofSkyTimeGear_mvl/mxv
 BYTE   W03
 BYTE   VOL   22*PokemonMysteryDungeonExplorersofSkyTimeGear_mvl/mxv
 BYTE   W02
 BYTE   VOL   22*PokemonMysteryDungeonExplorersofSkyTimeGear_mvl/mxv
 BYTE   W01
 BYTE   VOL   20*PokemonMysteryDungeonExplorersofSkyTimeGear_mvl/mxv
 BYTE   W03
 BYTE   VOL   19*PokemonMysteryDungeonExplorersofSkyTimeGear_mvl/mxv
 BYTE   W02
 BYTE   VOL   18*PokemonMysteryDungeonExplorersofSkyTimeGear_mvl/mxv
 BYTE   W01
 BYTE   VOL   17*PokemonMysteryDungeonExplorersofSkyTimeGear_mvl/mxv
 BYTE   W03
 BYTE   VOL   14*PokemonMysteryDungeonExplorersofSkyTimeGear_mvl/mxv
 BYTE   W03
 BYTE   VOL   13*PokemonMysteryDungeonExplorersofSkyTimeGear_mvl/mxv
 BYTE   W02
 BYTE   VOL   12*PokemonMysteryDungeonExplorersofSkyTimeGear_mvl/mxv
 BYTE   W01
 BYTE   VOL   11*PokemonMysteryDungeonExplorersofSkyTimeGear_mvl/mxv
 BYTE   W02
 BYTE   VOL   10*PokemonMysteryDungeonExplorersofSkyTimeGear_mvl/mxv
 BYTE   W01
 BYTE   VOL   10*PokemonMysteryDungeonExplorersofSkyTimeGear_mvl/mxv
 BYTE   W08
 BYTE   PEND 
//  #04 //035   ----------------------------------------
 BYTE   PATT
  POIN2 Label_016940AE
//  #04 //036   ----------------------------------------
 BYTE   PATT
  POIN2 Label_01693F10
//  #04 //037   ----------------------------------------
 BYTE   EOT
 BYTE   Cn3
 BYTE   W01
 BYTE   N68  Fs2  v100
 BYTE   W01
 BYTE   VOL   8*PokemonMysteryDungeonExplorersofSkyTimeGear_mvl/mxv
 BYTE   W02
 BYTE   VOL   9*PokemonMysteryDungeonExplorersofSkyTimeGear_mvl/mxv
 BYTE   W01
 BYTE   VOL   10*PokemonMysteryDungeonExplorersofSkyTimeGear_mvl/mxv
 BYTE   W02
 BYTE   VOL   10*PokemonMysteryDungeonExplorersofSkyTimeGear_mvl/mxv
 BYTE   W01
 BYTE   VOL   11*PokemonMysteryDungeonExplorersofSkyTimeGear_mvl/mxv
 BYTE   W02
 BYTE   VOL   11*PokemonMysteryDungeonExplorersofSkyTimeGear_mvl/mxv
 BYTE   W01
 BYTE   VOL   13*PokemonMysteryDungeonExplorersofSkyTimeGear_mvl/mxv
 BYTE   W03
 BYTE   VOL   13*PokemonMysteryDungeonExplorersofSkyTimeGear_mvl/mxv
 BYTE   W02
 BYTE   VOL   14*PokemonMysteryDungeonExplorersofSkyTimeGear_mvl/mxv
 BYTE   W03
 BYTE   VOL   15*PokemonMysteryDungeonExplorersofSkyTimeGear_mvl/mxv
 BYTE   W01
 BYTE   VOL   15*PokemonMysteryDungeonExplorersofSkyTimeGear_mvl/mxv
 BYTE   W02
 BYTE   VOL   16*PokemonMysteryDungeonExplorersofSkyTimeGear_mvl/mxv
 BYTE   W01
 BYTE   VOL   17*PokemonMysteryDungeonExplorersofSkyTimeGear_mvl/mxv
 BYTE   W02
 BYTE   VOL   18*PokemonMysteryDungeonExplorersofSkyTimeGear_mvl/mxv
 BYTE   W03
 BYTE   VOL   19*PokemonMysteryDungeonExplorersofSkyTimeGear_mvl/mxv
 BYTE   W01
 BYTE   VOL   19*PokemonMysteryDungeonExplorersofSkyTimeGear_mvl/mxv
 BYTE   W02
 BYTE   VOL   20*PokemonMysteryDungeonExplorersofSkyTimeGear_mvl/mxv
 BYTE   W01
 BYTE   VOL   21*PokemonMysteryDungeonExplorersofSkyTimeGear_mvl/mxv
 BYTE   W02
 BYTE   VOL   22*PokemonMysteryDungeonExplorersofSkyTimeGear_mvl/mxv
 BYTE   W01
 BYTE   VOL   22*PokemonMysteryDungeonExplorersofSkyTimeGear_mvl/mxv
 BYTE   W02
 BYTE   VOL   22*PokemonMysteryDungeonExplorersofSkyTimeGear_mvl/mxv
 BYTE   W03
 BYTE   VOL   25*PokemonMysteryDungeonExplorersofSkyTimeGear_mvl/mxv
 BYTE   W01
 BYTE   VOL   26*PokemonMysteryDungeonExplorersofSkyTimeGear_mvl/mxv
 BYTE   W02
 BYTE   VOL   27*PokemonMysteryDungeonExplorersofSkyTimeGear_mvl/mxv
 BYTE   W01
 BYTE   VOL   27*PokemonMysteryDungeonExplorersofSkyTimeGear_mvl/mxv
 BYTE   W02
 BYTE   VOL   28*PokemonMysteryDungeonExplorersofSkyTimeGear_mvl/mxv
 BYTE   W01
 BYTE   VOL   28*PokemonMysteryDungeonExplorersofSkyTimeGear_mvl/mxv
 BYTE   W02
//  #04 //038   ----------------------------------------
 BYTE   PATT
  POIN2 Label_0169414D
//  #04 //039   ----------------------------------------
 BYTE   PATT
  POIN2 Label_016940AE
//  #04 //040   ----------------------------------------
 BYTE   PATT
  POIN2 Label_01693F10
//  #04 //041   ----------------------------------------
 BYTE   EOT
 BYTE   Cn3
 BYTE   W01
 BYTE   N68  Fs2  v100
 BYTE   W01
 BYTE   VOL   8*PokemonMysteryDungeonExplorersofSkyTimeGear_mvl/mxv
 BYTE   W02
 BYTE   VOL   9*PokemonMysteryDungeonExplorersofSkyTimeGear_mvl/mxv
 BYTE   W01
 BYTE   VOL   10*PokemonMysteryDungeonExplorersofSkyTimeGear_mvl/mxv
 BYTE   W02
 BYTE   VOL   10*PokemonMysteryDungeonExplorersofSkyTimeGear_mvl/mxv
 BYTE   W01
 BYTE   VOL   11*PokemonMysteryDungeonExplorersofSkyTimeGear_mvl/mxv
 BYTE   W02
 BYTE   VOL   11*PokemonMysteryDungeonExplorersofSkyTimeGear_mvl/mxv
 BYTE   W01
 BYTE   VOL   13*PokemonMysteryDungeonExplorersofSkyTimeGear_mvl/mxv
 BYTE   W03
 BYTE   VOL   13*PokemonMysteryDungeonExplorersofSkyTimeGear_mvl/mxv
 BYTE   W02
 BYTE   VOL   14*PokemonMysteryDungeonExplorersofSkyTimeGear_mvl/mxv
 BYTE   W03
 BYTE   VOL   15*PokemonMysteryDungeonExplorersofSkyTimeGear_mvl/mxv
 BYTE   W01
 BYTE   VOL   15*PokemonMysteryDungeonExplorersofSkyTimeGear_mvl/mxv
 BYTE   W02
 BYTE   VOL   16*PokemonMysteryDungeonExplorersofSkyTimeGear_mvl/mxv
 BYTE   W01
 BYTE   VOL   17*PokemonMysteryDungeonExplorersofSkyTimeGear_mvl/mxv
 BYTE   W02
 BYTE   VOL   18*PokemonMysteryDungeonExplorersofSkyTimeGear_mvl/mxv
 BYTE   W03
 BYTE   VOL   19*PokemonMysteryDungeonExplorersofSkyTimeGear_mvl/mxv
 BYTE   W01
 BYTE   VOL   19*PokemonMysteryDungeonExplorersofSkyTimeGear_mvl/mxv
 BYTE   W02
 BYTE   VOL   20*PokemonMysteryDungeonExplorersofSkyTimeGear_mvl/mxv
 BYTE   W01
 BYTE   VOL   21*PokemonMysteryDungeonExplorersofSkyTimeGear_mvl/mxv
 BYTE   W02
 BYTE   VOL   22*PokemonMysteryDungeonExplorersofSkyTimeGear_mvl/mxv
 BYTE   W01
 BYTE   VOL   22*PokemonMysteryDungeonExplorersofSkyTimeGear_mvl/mxv
 BYTE   W02
 BYTE   VOL   22*PokemonMysteryDungeonExplorersofSkyTimeGear_mvl/mxv
 BYTE   W03
 BYTE   VOL   25*PokemonMysteryDungeonExplorersofSkyTimeGear_mvl/mxv
 BYTE   W01
 BYTE   VOL   26*PokemonMysteryDungeonExplorersofSkyTimeGear_mvl/mxv
 BYTE   W02
 BYTE   VOL   27*PokemonMysteryDungeonExplorersofSkyTimeGear_mvl/mxv
 BYTE   W01
 BYTE   VOL   27*PokemonMysteryDungeonExplorersofSkyTimeGear_mvl/mxv
 BYTE   W02
 BYTE   VOL   28*PokemonMysteryDungeonExplorersofSkyTimeGear_mvl/mxv
 BYTE   W01
 BYTE   VOL   28*PokemonMysteryDungeonExplorersofSkyTimeGear_mvl/mxv
 BYTE   W02
//  #04 //042   ----------------------------------------
 BYTE   PATT
  POIN2 Label_0169414D
//  #04 //043   ----------------------------------------
 BYTE   PATT
  POIN2 Label_016940AE
//  #04 //044   ----------------------------------------
 BYTE   PATT
  POIN2 Label_01693F10
//  #04 //045   ----------------------------------------
 BYTE   EOT
 BYTE   Cn3
 BYTE   W01
 BYTE   N68  Fs2  v100
 BYTE   W01
 BYTE   VOL   8*PokemonMysteryDungeonExplorersofSkyTimeGear_mvl/mxv
 BYTE   W02
 BYTE   VOL   9*PokemonMysteryDungeonExplorersofSkyTimeGear_mvl/mxv
 BYTE   W01
 BYTE   VOL   10*PokemonMysteryDungeonExplorersofSkyTimeGear_mvl/mxv
 BYTE   W02
 BYTE   VOL   10*PokemonMysteryDungeonExplorersofSkyTimeGear_mvl/mxv
 BYTE   W01
 BYTE   VOL   11*PokemonMysteryDungeonExplorersofSkyTimeGear_mvl/mxv
 BYTE   W02
 BYTE   VOL   11*PokemonMysteryDungeonExplorersofSkyTimeGear_mvl/mxv
 BYTE   W01
 BYTE   VOL   13*PokemonMysteryDungeonExplorersofSkyTimeGear_mvl/mxv
 BYTE   W03
 BYTE   VOL   13*PokemonMysteryDungeonExplorersofSkyTimeGear_mvl/mxv
 BYTE   W02
 BYTE   VOL   14*PokemonMysteryDungeonExplorersofSkyTimeGear_mvl/mxv
 BYTE   W03
 BYTE   VOL   15*PokemonMysteryDungeonExplorersofSkyTimeGear_mvl/mxv
 BYTE   W01
 BYTE   VOL   15*PokemonMysteryDungeonExplorersofSkyTimeGear_mvl/mxv
 BYTE   W02
 BYTE   VOL   16*PokemonMysteryDungeonExplorersofSkyTimeGear_mvl/mxv
 BYTE   W01
 BYTE   VOL   17*PokemonMysteryDungeonExplorersofSkyTimeGear_mvl/mxv
 BYTE   W02
 BYTE   VOL   18*PokemonMysteryDungeonExplorersofSkyTimeGear_mvl/mxv
 BYTE   W03
 BYTE   VOL   19*PokemonMysteryDungeonExplorersofSkyTimeGear_mvl/mxv
 BYTE   W01
 BYTE   VOL   19*PokemonMysteryDungeonExplorersofSkyTimeGear_mvl/mxv
 BYTE   W02
 BYTE   VOL   20*PokemonMysteryDungeonExplorersofSkyTimeGear_mvl/mxv
 BYTE   W01
 BYTE   VOL   21*PokemonMysteryDungeonExplorersofSkyTimeGear_mvl/mxv
 BYTE   W02
 BYTE   VOL   22*PokemonMysteryDungeonExplorersofSkyTimeGear_mvl/mxv
 BYTE   W01
 BYTE   VOL   22*PokemonMysteryDungeonExplorersofSkyTimeGear_mvl/mxv
 BYTE   W02
 BYTE   VOL   22*PokemonMysteryDungeonExplorersofSkyTimeGear_mvl/mxv
 BYTE   W03
 BYTE   VOL   25*PokemonMysteryDungeonExplorersofSkyTimeGear_mvl/mxv
 BYTE   W01
 BYTE   VOL   26*PokemonMysteryDungeonExplorersofSkyTimeGear_mvl/mxv
 BYTE   W02
 BYTE   VOL   27*PokemonMysteryDungeonExplorersofSkyTimeGear_mvl/mxv
 BYTE   W01
 BYTE   VOL   27*PokemonMysteryDungeonExplorersofSkyTimeGear_mvl/mxv
 BYTE   W02
 BYTE   VOL   28*PokemonMysteryDungeonExplorersofSkyTimeGear_mvl/mxv
 BYTE   W01
 BYTE   VOL   28*PokemonMysteryDungeonExplorersofSkyTimeGear_mvl/mxv
 BYTE   W02
 BYTE   VOL   29*PokemonMysteryDungeonExplorersofSkyTimeGear_mvl/mxv
 BYTE   W01
 BYTE   VOL   28*PokemonMysteryDungeonExplorersofSkyTimeGear_mvl/mxv
 BYTE   W03
 BYTE   VOL   29*PokemonMysteryDungeonExplorersofSkyTimeGear_mvl/mxv
 BYTE   W02
 BYTE   VOL   30*PokemonMysteryDungeonExplorersofSkyTimeGear_mvl/mxv
 BYTE   W01
 BYTE   VOL   30*PokemonMysteryDungeonExplorersofSkyTimeGear_mvl/mxv
 BYTE   W02
 BYTE   VOL   31*PokemonMysteryDungeonExplorersofSkyTimeGear_mvl/mxv
 BYTE   W01
 BYTE   VOL   32*PokemonMysteryDungeonExplorersofSkyTimeGear_mvl/mxv
 BYTE   W11
 BYTE   VOL   31*PokemonMysteryDungeonExplorersofSkyTimeGear_mvl/mxv
 BYTE   W03
 BYTE   VOL   30*PokemonMysteryDungeonExplorersofSkyTimeGear_mvl/mxv
 BYTE   N68  An2
 BYTE   W09
 BYTE   VOL   30*PokemonMysteryDungeonExplorersofSkyTimeGear_mvl/mxv
 BYTE   W03
 BYTE   VOL   29*PokemonMysteryDungeonExplorersofSkyTimeGear_mvl/mxv
 BYTE   W01
 BYTE   VOL   29*PokemonMysteryDungeonExplorersofSkyTimeGear_mvl/mxv
 BYTE   W02
 BYTE   VOL   28*PokemonMysteryDungeonExplorersofSkyTimeGear_mvl/mxv
 BYTE   W03
 BYTE   VOL   28*PokemonMysteryDungeonExplorersofSkyTimeGear_mvl/mxv
 BYTE   W01
 BYTE   VOL   27*PokemonMysteryDungeonExplorersofSkyTimeGear_mvl/mxv
 BYTE   W03
 BYTE   VOL   27*PokemonMysteryDungeonExplorersofSkyTimeGear_mvl/mxv
 BYTE   W08
//  #04 //046   ----------------------------------------
 BYTE   VOL   27*PokemonMysteryDungeonExplorersofSkyTimeGear_mvl/mxv
 BYTE   W01
 BYTE   VOL   26*PokemonMysteryDungeonExplorersofSkyTimeGear_mvl/mxv
 BYTE   W03
 BYTE   VOL   25*PokemonMysteryDungeonExplorersofSkyTimeGear_mvl/mxv
 BYTE   W03
 BYTE   VOL   24*PokemonMysteryDungeonExplorersofSkyTimeGear_mvl/mxv
 BYTE   W02
 BYTE   VOL   23*PokemonMysteryDungeonExplorersofSkyTimeGear_mvl/mxv
 BYTE   W01
 BYTE   VOL   23*PokemonMysteryDungeonExplorersofSkyTimeGear_mvl/mxv
 BYTE   W03
 BYTE   VOL   22*PokemonMysteryDungeonExplorersofSkyTimeGear_mvl/mxv
 BYTE   W02
 BYTE   VOL   22*PokemonMysteryDungeonExplorersofSkyTimeGear_mvl/mxv
 BYTE   W01
 BYTE   VOL   20*PokemonMysteryDungeonExplorersofSkyTimeGear_mvl/mxv
 BYTE   W03
 BYTE   VOL   19*PokemonMysteryDungeonExplorersofSkyTimeGear_mvl/mxv
 BYTE   W02
 BYTE   VOL   18*PokemonMysteryDungeonExplorersofSkyTimeGear_mvl/mxv
 BYTE   W01
 BYTE   VOL   17*PokemonMysteryDungeonExplorersofSkyTimeGear_mvl/mxv
 BYTE   W03
 BYTE   VOL   14*PokemonMysteryDungeonExplorersofSkyTimeGear_mvl/mxv
 BYTE   W03
 BYTE   VOL   13*PokemonMysteryDungeonExplorersofSkyTimeGear_mvl/mxv
 BYTE   W02
 BYTE   VOL   12*PokemonMysteryDungeonExplorersofSkyTimeGear_mvl/mxv
 BYTE   W01
 BYTE   VOL   11*PokemonMysteryDungeonExplorersofSkyTimeGear_mvl/mxv
 BYTE   W02
 BYTE   VOL   10*PokemonMysteryDungeonExplorersofSkyTimeGear_mvl/mxv
 BYTE   W01
 BYTE   VOL   10*PokemonMysteryDungeonExplorersofSkyTimeGear_mvl/mxv
 BYTE   W07
 BYTE   VOL   0*PokemonMysteryDungeonExplorersofSkyTimeGear_mvl/mxv
 BYTE   W01
 BYTE   TIE  En2
 BYTE   W02
 BYTE   VOL   0*PokemonMysteryDungeonExplorersofSkyTimeGear_mvl/mxv
 BYTE   W01
 BYTE   VOL   0*PokemonMysteryDungeonExplorersofSkyTimeGear_mvl/mxv
 BYTE   W02
 BYTE   VOL   0*PokemonMysteryDungeonExplorersofSkyTimeGear_mvl/mxv
 BYTE   W01
 BYTE   VOL   0*PokemonMysteryDungeonExplorersofSkyTimeGear_mvl/mxv
 BYTE   W02
 BYTE   VOL   0*PokemonMysteryDungeonExplorersofSkyTimeGear_mvl/mxv
 BYTE   W01
 BYTE   VOL   0*PokemonMysteryDungeonExplorersofSkyTimeGear_mvl/mxv
 BYTE   W02
 BYTE   VOL   0*PokemonMysteryDungeonExplorersofSkyTimeGear_mvl/mxv
 BYTE   W01
 BYTE   VOL   1*PokemonMysteryDungeonExplorersofSkyTimeGear_mvl/mxv
 BYTE   W02
 BYTE   VOL   1*PokemonMysteryDungeonExplorersofSkyTimeGear_mvl/mxv
 BYTE   W01
 BYTE   VOL   1*PokemonMysteryDungeonExplorersofSkyTimeGear_mvl/mxv
 BYTE   W02
 BYTE   VOL   1*PokemonMysteryDungeonExplorersofSkyTimeGear_mvl/mxv
 BYTE   W01
 BYTE   VOL   1*PokemonMysteryDungeonExplorersofSkyTimeGear_mvl/mxv
 BYTE   W02
 BYTE   VOL   1*PokemonMysteryDungeonExplorersofSkyTimeGear_mvl/mxv
 BYTE   W01
 BYTE   VOL   1*PokemonMysteryDungeonExplorersofSkyTimeGear_mvl/mxv
 BYTE   W02
 BYTE   VOL   1*PokemonMysteryDungeonExplorersofSkyTimeGear_mvl/mxv
 BYTE   W01
 BYTE   VOL   1*PokemonMysteryDungeonExplorersofSkyTimeGear_mvl/mxv
 BYTE   W02
 BYTE   VOL   2*PokemonMysteryDungeonExplorersofSkyTimeGear_mvl/mxv
 BYTE   W01
 BYTE   VOL   2*PokemonMysteryDungeonExplorersofSkyTimeGear_mvl/mxv
 BYTE   W02
 BYTE   VOL   3*PokemonMysteryDungeonExplorersofSkyTimeGear_mvl/mxv
 BYTE   W01
 BYTE   VOL   3*PokemonMysteryDungeonExplorersofSkyTimeGear_mvl/mxv
 BYTE   W02
 BYTE   VOL   3*PokemonMysteryDungeonExplorersofSkyTimeGear_mvl/mxv
 BYTE   W01
 BYTE   VOL   3*PokemonMysteryDungeonExplorersofSkyTimeGear_mvl/mxv
 BYTE   W02
 BYTE   VOL   3*PokemonMysteryDungeonExplorersofSkyTimeGear_mvl/mxv
 BYTE   W01
 BYTE   VOL   4*PokemonMysteryDungeonExplorersofSkyTimeGear_mvl/mxv
 BYTE   W02
 BYTE   VOL   4*PokemonMysteryDungeonExplorersofSkyTimeGear_mvl/mxv
 BYTE   W01
 BYTE   VOL   4*PokemonMysteryDungeonExplorersofSkyTimeGear_mvl/mxv
 BYTE   W02
 BYTE   VOL   4*PokemonMysteryDungeonExplorersofSkyTimeGear_mvl/mxv
 BYTE   W01
 BYTE   VOL   5*PokemonMysteryDungeonExplorersofSkyTimeGear_mvl/mxv
 BYTE   W02
 BYTE   VOL   5*PokemonMysteryDungeonExplorersofSkyTimeGear_mvl/mxv
 BYTE   W01
 BYTE   VOL   5*PokemonMysteryDungeonExplorersofSkyTimeGear_mvl/mxv
 BYTE   W02
 BYTE   VOL   5*PokemonMysteryDungeonExplorersofSkyTimeGear_mvl/mxv
 BYTE   W01
 BYTE   VOL   6*PokemonMysteryDungeonExplorersofSkyTimeGear_mvl/mxv
 BYTE   W02
 BYTE   VOL   6*PokemonMysteryDungeonExplorersofSkyTimeGear_mvl/mxv
 BYTE   W01
 BYTE   VOL   6*PokemonMysteryDungeonExplorersofSkyTimeGear_mvl/mxv
 BYTE   W02
 BYTE   VOL   6*PokemonMysteryDungeonExplorersofSkyTimeGear_mvl/mxv
 BYTE   W01
//  #04 //047   ----------------------------------------
 BYTE   VOL   6*PokemonMysteryDungeonExplorersofSkyTimeGear_mvl/mxv
 BYTE   W02
 BYTE   VOL   7*PokemonMysteryDungeonExplorersofSkyTimeGear_mvl/mxv
 BYTE   W01
 BYTE   VOL   8*PokemonMysteryDungeonExplorersofSkyTimeGear_mvl/mxv
 BYTE   W02
 BYTE   VOL   8*PokemonMysteryDungeonExplorersofSkyTimeGear_mvl/mxv
 BYTE   W01
 BYTE   VOL   8*PokemonMysteryDungeonExplorersofSkyTimeGear_mvl/mxv
 BYTE   W02
 BYTE   VOL   8*PokemonMysteryDungeonExplorersofSkyTimeGear_mvl/mxv
 BYTE   W01
 BYTE   VOL   9*PokemonMysteryDungeonExplorersofSkyTimeGear_mvl/mxv
 BYTE   W02
 BYTE   VOL   10*PokemonMysteryDungeonExplorersofSkyTimeGear_mvl/mxv
 BYTE   W01
 BYTE   VOL   10*PokemonMysteryDungeonExplorersofSkyTimeGear_mvl/mxv
 BYTE   W02
 BYTE   VOL   10*PokemonMysteryDungeonExplorersofSkyTimeGear_mvl/mxv
 BYTE   W01
 BYTE   VOL   10*PokemonMysteryDungeonExplorersofSkyTimeGear_mvl/mxv
 BYTE   W02
 BYTE   VOL   10*PokemonMysteryDungeonExplorersofSkyTimeGear_mvl/mxv
 BYTE   W01
 BYTE   VOL   11*PokemonMysteryDungeonExplorersofSkyTimeGear_mvl/mxv
 BYTE   W02
 BYTE   VOL   11*PokemonMysteryDungeonExplorersofSkyTimeGear_mvl/mxv
 BYTE   W01
 BYTE   VOL   11*PokemonMysteryDungeonExplorersofSkyTimeGear_mvl/mxv
 BYTE   W02
 BYTE   VOL   11*PokemonMysteryDungeonExplorersofSkyTimeGear_mvl/mxv
 BYTE   W01
 BYTE   VOL   12*PokemonMysteryDungeonExplorersofSkyTimeGear_mvl/mxv
 BYTE   W02
 BYTE   VOL   13*PokemonMysteryDungeonExplorersofSkyTimeGear_mvl/mxv
 BYTE   W01
 BYTE   VOL   13*PokemonMysteryDungeonExplorersofSkyTimeGear_mvl/mxv
 BYTE   W02
 BYTE   VOL   13*PokemonMysteryDungeonExplorersofSkyTimeGear_mvl/mxv
 BYTE   W01
 BYTE   VOL   14*PokemonMysteryDungeonExplorersofSkyTimeGear_mvl/mxv
 BYTE   W02
 BYTE   VOL   14*PokemonMysteryDungeonExplorersofSkyTimeGear_mvl/mxv
 BYTE   W01
 BYTE   VOL   15*PokemonMysteryDungeonExplorersofSkyTimeGear_mvl/mxv
 BYTE   W02
 BYTE   VOL   15*PokemonMysteryDungeonExplorersofSkyTimeGear_mvl/mxv
 BYTE   W01
 BYTE   VOL   15*PokemonMysteryDungeonExplorersofSkyTimeGear_mvl/mxv
 BYTE   W02
 BYTE   VOL   16*PokemonMysteryDungeonExplorersofSkyTimeGear_mvl/mxv
 BYTE   W01
 BYTE   VOL   17*PokemonMysteryDungeonExplorersofSkyTimeGear_mvl/mxv
 BYTE   W02
 BYTE   VOL   17*PokemonMysteryDungeonExplorersofSkyTimeGear_mvl/mxv
 BYTE   W01
//  #04 //048   ----------------------------------------
 BYTE   PATT
  POIN2 Label_01693CCD
//  #04 //049   ----------------------------------------
 BYTE   PATT
  POIN2 Label_01693D2F
//  #04 //050   ----------------------------------------
 BYTE   EOT
 BYTE   En2
 BYTE   VOL   0*PokemonMysteryDungeonExplorersofSkyTimeGear_mvl/mxv
 BYTE   W01
//  #04 //051   ----------------------------------------
 BYTE   PATT
  POIN2 Label_01693D7B
//  #04 //052   ----------------------------------------
 BYTE   PATT
  POIN2 Label_01693CCD
//  #04 //053   ----------------------------------------
 BYTE   PATT
  POIN2 Label_01693D2F
//  #04 //054   ----------------------------------------
 BYTE   EOT
 BYTE   Dn2
 BYTE   W01
 BYTE   GoTo
  POIN2 Label_01693E0E
 BYTE   FINE

//**************** Track 5 (Midi-Chn.4) ****************//

PokemonMysteryDungeonExplorersofSkyTimeGear_005:
//  #05 //000   ----------------------------------------
 BYTE   KEYSH   PokemonMysteryDungeonExplorersofSkyTimeGear_key+0
 BYTE   VOICE   32
 BYTE   MODT 0
 BYTE   LFOS 44
 BYTE   VOL   45*PokemonMysteryDungeonExplorersofSkyTimeGear_mvl/mxv
 BYTE   PAN   c_v+20
 BYTE   VOL   0*PokemonMysteryDungeonExplorersofSkyTimeGear_mvl/mxv
 BYTE   TIE  Bn2  v100
 BYTE   W02
 BYTE   VOL   0*PokemonMysteryDungeonExplorersofSkyTimeGear_mvl/mxv
 BYTE   W01
 BYTE   VOL   0*PokemonMysteryDungeonExplorersofSkyTimeGear_mvl/mxv
 BYTE   W02
 BYTE   VOL   0*PokemonMysteryDungeonExplorersofSkyTimeGear_mvl/mxv
 BYTE   W01
 BYTE   VOL   0*PokemonMysteryDungeonExplorersofSkyTimeGear_mvl/mxv
 BYTE   W02
 BYTE   VOL   0*PokemonMysteryDungeonExplorersofSkyTimeGear_mvl/mxv
 BYTE   W01
 BYTE   VOL   0*PokemonMysteryDungeonExplorersofSkyTimeGear_mvl/mxv
 BYTE   W02
 BYTE   VOL   0*PokemonMysteryDungeonExplorersofSkyTimeGear_mvl/mxv
 BYTE   W01
 BYTE   VOL   1*PokemonMysteryDungeonExplorersofSkyTimeGear_mvl/mxv
 BYTE   W02
 BYTE   VOL   1*PokemonMysteryDungeonExplorersofSkyTimeGear_mvl/mxv
 BYTE   W01
 BYTE   VOL   1*PokemonMysteryDungeonExplorersofSkyTimeGear_mvl/mxv
 BYTE   W02
 BYTE   VOL   1*PokemonMysteryDungeonExplorersofSkyTimeGear_mvl/mxv
 BYTE   W01
 BYTE   VOL   1*PokemonMysteryDungeonExplorersofSkyTimeGear_mvl/mxv
 BYTE   W02
 BYTE   VOL   1*PokemonMysteryDungeonExplorersofSkyTimeGear_mvl/mxv
 BYTE   W01
 BYTE   VOL   1*PokemonMysteryDungeonExplorersofSkyTimeGear_mvl/mxv
 BYTE   W02
 BYTE   VOL   1*PokemonMysteryDungeonExplorersofSkyTimeGear_mvl/mxv
 BYTE   W01
 BYTE   VOL   1*PokemonMysteryDungeonExplorersofSkyTimeGear_mvl/mxv
 BYTE   W02
 BYTE   VOL   2*PokemonMysteryDungeonExplorersofSkyTimeGear_mvl/mxv
 BYTE   W01
 BYTE   VOL   2*PokemonMysteryDungeonExplorersofSkyTimeGear_mvl/mxv
 BYTE   W02
 BYTE   VOL   3*PokemonMysteryDungeonExplorersofSkyTimeGear_mvl/mxv
 BYTE   W01
 BYTE   VOL   3*PokemonMysteryDungeonExplorersofSkyTimeGear_mvl/mxv
 BYTE   W02
 BYTE   VOL   3*PokemonMysteryDungeonExplorersofSkyTimeGear_mvl/mxv
 BYTE   W01
 BYTE   VOL   3*PokemonMysteryDungeonExplorersofSkyTimeGear_mvl/mxv
 BYTE   W02
 BYTE   VOL   3*PokemonMysteryDungeonExplorersofSkyTimeGear_mvl/mxv
 BYTE   W01
 BYTE   VOL   4*PokemonMysteryDungeonExplorersofSkyTimeGear_mvl/mxv
 BYTE   W02
 BYTE   VOL   4*PokemonMysteryDungeonExplorersofSkyTimeGear_mvl/mxv
 BYTE   W01
 BYTE   VOL   4*PokemonMysteryDungeonExplorersofSkyTimeGear_mvl/mxv
 BYTE   W02
 BYTE   VOL   4*PokemonMysteryDungeonExplorersofSkyTimeGear_mvl/mxv
 BYTE   W01
 BYTE   VOL   5*PokemonMysteryDungeonExplorersofSkyTimeGear_mvl/mxv
 BYTE   W02
 BYTE   VOL   5*PokemonMysteryDungeonExplorersofSkyTimeGear_mvl/mxv
 BYTE   W01
 BYTE   VOL   5*PokemonMysteryDungeonExplorersofSkyTimeGear_mvl/mxv
 BYTE   W02
 BYTE   VOL   5*PokemonMysteryDungeonExplorersofSkyTimeGear_mvl/mxv
 BYTE   W01
 BYTE   VOL   6*PokemonMysteryDungeonExplorersofSkyTimeGear_mvl/mxv
 BYTE   W02
 BYTE   VOL   6*PokemonMysteryDungeonExplorersofSkyTimeGear_mvl/mxv
 BYTE   W01
 BYTE   VOL   6*PokemonMysteryDungeonExplorersofSkyTimeGear_mvl/mxv
 BYTE   W02
 BYTE   VOL   6*PokemonMysteryDungeonExplorersofSkyTimeGear_mvl/mxv
 BYTE   W01
 BYTE   VOL   6*PokemonMysteryDungeonExplorersofSkyTimeGear_mvl/mxv
 BYTE   W02
 BYTE   VOL   7*PokemonMysteryDungeonExplorersofSkyTimeGear_mvl/mxv
 BYTE   W01
 BYTE   VOL   8*PokemonMysteryDungeonExplorersofSkyTimeGear_mvl/mxv
 BYTE   W02
 BYTE   VOL   8*PokemonMysteryDungeonExplorersofSkyTimeGear_mvl/mxv
 BYTE   W01
 BYTE   VOL   8*PokemonMysteryDungeonExplorersofSkyTimeGear_mvl/mxv
 BYTE   W02
 BYTE   VOL   8*PokemonMysteryDungeonExplorersofSkyTimeGear_mvl/mxv
 BYTE   W01
 BYTE   VOL   9*PokemonMysteryDungeonExplorersofSkyTimeGear_mvl/mxv
 BYTE   W02
 BYTE   VOL   10*PokemonMysteryDungeonExplorersofSkyTimeGear_mvl/mxv
 BYTE   W01
 BYTE   VOL   10*PokemonMysteryDungeonExplorersofSkyTimeGear_mvl/mxv
 BYTE   W02
 BYTE   VOL   10*PokemonMysteryDungeonExplorersofSkyTimeGear_mvl/mxv
 BYTE   W01
 BYTE   VOL   10*PokemonMysteryDungeonExplorersofSkyTimeGear_mvl/mxv
 BYTE   W02
 BYTE   VOL   10*PokemonMysteryDungeonExplorersofSkyTimeGear_mvl/mxv
 BYTE   W01
 BYTE   VOL   11*PokemonMysteryDungeonExplorersofSkyTimeGear_mvl/mxv
 BYTE   W02
 BYTE   VOL   11*PokemonMysteryDungeonExplorersofSkyTimeGear_mvl/mxv
 BYTE   W01
 BYTE   VOL   11*PokemonMysteryDungeonExplorersofSkyTimeGear_mvl/mxv
 BYTE   W02
 BYTE   VOL   11*PokemonMysteryDungeonExplorersofSkyTimeGear_mvl/mxv
 BYTE   W01
 BYTE   VOL   12*PokemonMysteryDungeonExplorersofSkyTimeGear_mvl/mxv
 BYTE   W02
 BYTE   VOL   13*PokemonMysteryDungeonExplorersofSkyTimeGear_mvl/mxv
 BYTE   W01
 BYTE   VOL   13*PokemonMysteryDungeonExplorersofSkyTimeGear_mvl/mxv
 BYTE   W02
 BYTE   VOL   13*PokemonMysteryDungeonExplorersofSkyTimeGear_mvl/mxv
 BYTE   W01
 BYTE   VOL   14*PokemonMysteryDungeonExplorersofSkyTimeGear_mvl/mxv
 BYTE   W02
 BYTE   VOL   14*PokemonMysteryDungeonExplorersofSkyTimeGear_mvl/mxv
 BYTE   W01
 BYTE   VOL   15*PokemonMysteryDungeonExplorersofSkyTimeGear_mvl/mxv
 BYTE   W02
 BYTE   VOL   15*PokemonMysteryDungeonExplorersofSkyTimeGear_mvl/mxv
 BYTE   W01
 BYTE   VOL   15*PokemonMysteryDungeonExplorersofSkyTimeGear_mvl/mxv
 BYTE   W02
 BYTE   VOL   16*PokemonMysteryDungeonExplorersofSkyTimeGear_mvl/mxv
 BYTE   W01
 BYTE   VOL   17*PokemonMysteryDungeonExplorersofSkyTimeGear_mvl/mxv
 BYTE   W02
 BYTE   VOL   17*PokemonMysteryDungeonExplorersofSkyTimeGear_mvl/mxv
 BYTE   W01
//  #05 //001   ----------------------------------------
Label_016943FD:
 BYTE   VOL   17*PokemonMysteryDungeonExplorersofSkyTimeGear_mvl/mxv
 BYTE   W02
 BYTE   VOL   18*PokemonMysteryDungeonExplorersofSkyTimeGear_mvl/mxv
 BYTE   W01
 BYTE   VOL   18*PokemonMysteryDungeonExplorersofSkyTimeGear_mvl/mxv
 BYTE   W02
 BYTE   VOL   18*PokemonMysteryDungeonExplorersofSkyTimeGear_mvl/mxv
 BYTE   W01
 BYTE   VOL   19*PokemonMysteryDungeonExplorersofSkyTimeGear_mvl/mxv
 BYTE   W02
 BYTE   VOL   19*PokemonMysteryDungeonExplorersofSkyTimeGear_mvl/mxv
 BYTE   W01
 BYTE   VOL   19*PokemonMysteryDungeonExplorersofSkyTimeGear_mvl/mxv
 BYTE   W02
 BYTE   VOL   20*PokemonMysteryDungeonExplorersofSkyTimeGear_mvl/mxv
 BYTE   W01
 BYTE   VOL   20*PokemonMysteryDungeonExplorersofSkyTimeGear_mvl/mxv
 BYTE   W02
 BYTE   VOL   22*PokemonMysteryDungeonExplorersofSkyTimeGear_mvl/mxv
 BYTE   W01
 BYTE   VOL   22*PokemonMysteryDungeonExplorersofSkyTimeGear_mvl/mxv
 BYTE   W02
 BYTE   VOL   22*PokemonMysteryDungeonExplorersofSkyTimeGear_mvl/mxv
 BYTE   W01
 BYTE   VOL   22*PokemonMysteryDungeonExplorersofSkyTimeGear_mvl/mxv
 BYTE   W02
 BYTE   VOL   23*PokemonMysteryDungeonExplorersofSkyTimeGear_mvl/mxv
 BYTE   W01
 BYTE   VOL   23*PokemonMysteryDungeonExplorersofSkyTimeGear_mvl/mxv
 BYTE   W02
 BYTE   VOL   23*PokemonMysteryDungeonExplorersofSkyTimeGear_mvl/mxv
 BYTE   W01
 BYTE   VOL   24*PokemonMysteryDungeonExplorersofSkyTimeGear_mvl/mxv
 BYTE   W02
 BYTE   VOL   25*PokemonMysteryDungeonExplorersofSkyTimeGear_mvl/mxv
 BYTE   W01
 BYTE   VOL   26*PokemonMysteryDungeonExplorersofSkyTimeGear_mvl/mxv
 BYTE   W02
 BYTE   VOL   27*PokemonMysteryDungeonExplorersofSkyTimeGear_mvl/mxv
 BYTE   W01
 BYTE   VOL   27*PokemonMysteryDungeonExplorersofSkyTimeGear_mvl/mxv
 BYTE   W02
 BYTE   VOL   27*PokemonMysteryDungeonExplorersofSkyTimeGear_mvl/mxv
 BYTE   W01
 BYTE   VOL   27*PokemonMysteryDungeonExplorersofSkyTimeGear_mvl/mxv
 BYTE   W02
 BYTE   VOL   28*PokemonMysteryDungeonExplorersofSkyTimeGear_mvl/mxv
 BYTE   W01
 BYTE   VOL   28*PokemonMysteryDungeonExplorersofSkyTimeGear_mvl/mxv
 BYTE   W02
 BYTE   VOL   29*PokemonMysteryDungeonExplorersofSkyTimeGear_mvl/mxv
 BYTE   W01
 BYTE   VOL   29*PokemonMysteryDungeonExplorersofSkyTimeGear_mvl/mxv
 BYTE   W02
 BYTE   VOL   30*PokemonMysteryDungeonExplorersofSkyTimeGear_mvl/mxv
 BYTE   W01
 BYTE   VOL   31*PokemonMysteryDungeonExplorersofSkyTimeGear_mvl/mxv
 BYTE   W02
 BYTE   VOL   32*PokemonMysteryDungeonExplorersofSkyTimeGear_mvl/mxv
 BYTE   W01
 BYTE   VOL   32*PokemonMysteryDungeonExplorersofSkyTimeGear_mvl/mxv
 BYTE   W02
 BYTE   VOL   32*PokemonMysteryDungeonExplorersofSkyTimeGear_mvl/mxv
 BYTE   W01
 BYTE   VOL   33*PokemonMysteryDungeonExplorersofSkyTimeGear_mvl/mxv
 BYTE   W02
 BYTE   VOL   34*PokemonMysteryDungeonExplorersofSkyTimeGear_mvl/mxv
 BYTE   W01
 BYTE   VOL   34*PokemonMysteryDungeonExplorersofSkyTimeGear_mvl/mxv
 BYTE   W02
 BYTE   VOL   34*PokemonMysteryDungeonExplorersofSkyTimeGear_mvl/mxv
 BYTE   W01
 BYTE   VOL   35*PokemonMysteryDungeonExplorersofSkyTimeGear_mvl/mxv
 BYTE   W02
 BYTE   VOL   36*PokemonMysteryDungeonExplorersofSkyTimeGear_mvl/mxv
 BYTE   W01
 BYTE   VOL   37*PokemonMysteryDungeonExplorersofSkyTimeGear_mvl/mxv
 BYTE   W02
 BYTE   VOL   37*PokemonMysteryDungeonExplorersofSkyTimeGear_mvl/mxv
 BYTE   W01
 BYTE   VOL   37*PokemonMysteryDungeonExplorersofSkyTimeGear_mvl/mxv
 BYTE   W02
 BYTE   VOL   38*PokemonMysteryDungeonExplorersofSkyTimeGear_mvl/mxv
 BYTE   W01
 BYTE   VOL   38*PokemonMysteryDungeonExplorersofSkyTimeGear_mvl/mxv
 BYTE   W02
 BYTE   VOL   39*PokemonMysteryDungeonExplorersofSkyTimeGear_mvl/mxv
 BYTE   W01
 BYTE   VOL   40*PokemonMysteryDungeonExplorersofSkyTimeGear_mvl/mxv
 BYTE   W02
 BYTE   VOL   40*PokemonMysteryDungeonExplorersofSkyTimeGear_mvl/mxv
 BYTE   W13
 BYTE   VOL   39*PokemonMysteryDungeonExplorersofSkyTimeGear_mvl/mxv
 BYTE   W05
 BYTE   VOL   38*PokemonMysteryDungeonExplorersofSkyTimeGear_mvl/mxv
 BYTE   W10
 BYTE   PEND 
//  #05 //002   ----------------------------------------
Label_0169445F:
 BYTE   W02
 BYTE   VOL   38*PokemonMysteryDungeonExplorersofSkyTimeGear_mvl/mxv
 BYTE   W01
 BYTE   VOL   37*PokemonMysteryDungeonExplorersofSkyTimeGear_mvl/mxv
 BYTE   W03
 BYTE   VOL   37*PokemonMysteryDungeonExplorersofSkyTimeGear_mvl/mxv
 BYTE   W05
 BYTE   VOL   36*PokemonMysteryDungeonExplorersofSkyTimeGear_mvl/mxv
 BYTE   W07
 BYTE   VOL   35*PokemonMysteryDungeonExplorersofSkyTimeGear_mvl/mxv
 BYTE   W02
 BYTE   VOL   34*PokemonMysteryDungeonExplorersofSkyTimeGear_mvl/mxv
 BYTE   W07
 BYTE   VOL   34*PokemonMysteryDungeonExplorersofSkyTimeGear_mvl/mxv
 BYTE   W05
 BYTE   VOL   33*PokemonMysteryDungeonExplorersofSkyTimeGear_mvl/mxv
 BYTE   W01
 BYTE   VOL   32*PokemonMysteryDungeonExplorersofSkyTimeGear_mvl/mxv
 BYTE   W03
 BYTE   VOL   32*PokemonMysteryDungeonExplorersofSkyTimeGear_mvl/mxv
 BYTE   W02
 BYTE   VOL   31*PokemonMysteryDungeonExplorersofSkyTimeGear_mvl/mxv
 BYTE   W03
 BYTE   VOL   30*PokemonMysteryDungeonExplorersofSkyTimeGear_mvl/mxv
 BYTE   W03
 BYTE   VOL   29*PokemonMysteryDungeonExplorersofSkyTimeGear_mvl/mxv
 BYTE   W01
 BYTE   VOL   28*PokemonMysteryDungeonExplorersofSkyTimeGear_mvl/mxv
 BYTE   W03
 BYTE   VOL   27*PokemonMysteryDungeonExplorersofSkyTimeGear_mvl/mxv
 BYTE   W02
 BYTE   VOL   27*PokemonMysteryDungeonExplorersofSkyTimeGear_mvl/mxv
 BYTE   W03
 BYTE   VOL   27*PokemonMysteryDungeonExplorersofSkyTimeGear_mvl/mxv
 BYTE   W01
 BYTE   VOL   25*PokemonMysteryDungeonExplorersofSkyTimeGear_mvl/mxv
 BYTE   W03
 BYTE   VOL   23*PokemonMysteryDungeonExplorersofSkyTimeGear_mvl/mxv
 BYTE   W02
 BYTE   VOL   23*PokemonMysteryDungeonExplorersofSkyTimeGear_mvl/mxv
 BYTE   W03
 BYTE   VOL   22*PokemonMysteryDungeonExplorersofSkyTimeGear_mvl/mxv
 BYTE   W01
 BYTE   VOL   20*PokemonMysteryDungeonExplorersofSkyTimeGear_mvl/mxv
 BYTE   W03
 BYTE   VOL   19*PokemonMysteryDungeonExplorersofSkyTimeGear_mvl/mxv
 BYTE   W02
 BYTE   VOL   19*PokemonMysteryDungeonExplorersofSkyTimeGear_mvl/mxv
 BYTE   W03
 BYTE   VOL   17*PokemonMysteryDungeonExplorersofSkyTimeGear_mvl/mxv
 BYTE   W03
 BYTE   VOL   15*PokemonMysteryDungeonExplorersofSkyTimeGear_mvl/mxv
 BYTE   W01
 BYTE   VOL   15*PokemonMysteryDungeonExplorersofSkyTimeGear_mvl/mxv
 BYTE   W03
 BYTE   VOL   14*PokemonMysteryDungeonExplorersofSkyTimeGear_mvl/mxv
 BYTE   W02
 BYTE   VOL   13*PokemonMysteryDungeonExplorersofSkyTimeGear_mvl/mxv
 BYTE   W03
 BYTE   VOL   11*PokemonMysteryDungeonExplorersofSkyTimeGear_mvl/mxv
 BYTE   W01
 BYTE   VOL   10*PokemonMysteryDungeonExplorersofSkyTimeGear_mvl/mxv
 BYTE   W03
 BYTE   VOL   7*PokemonMysteryDungeonExplorersofSkyTimeGear_mvl/mxv
 BYTE   W02
 BYTE   VOL   6*PokemonMysteryDungeonExplorersofSkyTimeGear_mvl/mxv
 BYTE   W03
 BYTE   VOL   5*PokemonMysteryDungeonExplorersofSkyTimeGear_mvl/mxv
 BYTE   W03
 BYTE   PEND 
 BYTE   EOT
 BYTE   Bn2
 BYTE   VOL   0*PokemonMysteryDungeonExplorersofSkyTimeGear_mvl/mxv
 BYTE   W01
//  #05 //003   ----------------------------------------
Label_016944AB:
 BYTE   TIE  An2  v100
 BYTE   W02
 BYTE   VOL   0*PokemonMysteryDungeonExplorersofSkyTimeGear_mvl/mxv
 BYTE   W01
 BYTE   VOL   0*PokemonMysteryDungeonExplorersofSkyTimeGear_mvl/mxv
 BYTE   W02
 BYTE   VOL   0*PokemonMysteryDungeonExplorersofSkyTimeGear_mvl/mxv
 BYTE   W01
 BYTE   VOL   0*PokemonMysteryDungeonExplorersofSkyTimeGear_mvl/mxv
 BYTE   W02
 BYTE   VOL   0*PokemonMysteryDungeonExplorersofSkyTimeGear_mvl/mxv
 BYTE   W01
 BYTE   VOL   0*PokemonMysteryDungeonExplorersofSkyTimeGear_mvl/mxv
 BYTE   W02
 BYTE   VOL   0*PokemonMysteryDungeonExplorersofSkyTimeGear_mvl/mxv
 BYTE   W01
 BYTE   VOL   1*PokemonMysteryDungeonExplorersofSkyTimeGear_mvl/mxv
 BYTE   W02
 BYTE   VOL   1*PokemonMysteryDungeonExplorersofSkyTimeGear_mvl/mxv
 BYTE   W01
 BYTE   VOL   1*PokemonMysteryDungeonExplorersofSkyTimeGear_mvl/mxv
 BYTE   W02
 BYTE   VOL   1*PokemonMysteryDungeonExplorersofSkyTimeGear_mvl/mxv
 BYTE   W01
 BYTE   VOL   1*PokemonMysteryDungeonExplorersofSkyTimeGear_mvl/mxv
 BYTE   W02
 BYTE   VOL   1*PokemonMysteryDungeonExplorersofSkyTimeGear_mvl/mxv
 BYTE   W01
 BYTE   VOL   1*PokemonMysteryDungeonExplorersofSkyTimeGear_mvl/mxv
 BYTE   W02
 BYTE   VOL   1*PokemonMysteryDungeonExplorersofSkyTimeGear_mvl/mxv
 BYTE   W01
 BYTE   VOL   1*PokemonMysteryDungeonExplorersofSkyTimeGear_mvl/mxv
 BYTE   W02
 BYTE   VOL   2*PokemonMysteryDungeonExplorersofSkyTimeGear_mvl/mxv
 BYTE   W01
 BYTE   VOL   2*PokemonMysteryDungeonExplorersofSkyTimeGear_mvl/mxv
 BYTE   W02
 BYTE   VOL   3*PokemonMysteryDungeonExplorersofSkyTimeGear_mvl/mxv
 BYTE   W01
 BYTE   VOL   3*PokemonMysteryDungeonExplorersofSkyTimeGear_mvl/mxv
 BYTE   W02
 BYTE   VOL   3*PokemonMysteryDungeonExplorersofSkyTimeGear_mvl/mxv
 BYTE   W01
 BYTE   VOL   3*PokemonMysteryDungeonExplorersofSkyTimeGear_mvl/mxv
 BYTE   W02
 BYTE   VOL   3*PokemonMysteryDungeonExplorersofSkyTimeGear_mvl/mxv
 BYTE   W01
 BYTE   VOL   4*PokemonMysteryDungeonExplorersofSkyTimeGear_mvl/mxv
 BYTE   W02
 BYTE   VOL   4*PokemonMysteryDungeonExplorersofSkyTimeGear_mvl/mxv
 BYTE   W01
 BYTE   VOL   4*PokemonMysteryDungeonExplorersofSkyTimeGear_mvl/mxv
 BYTE   W02
 BYTE   VOL   4*PokemonMysteryDungeonExplorersofSkyTimeGear_mvl/mxv
 BYTE   W01
 BYTE   VOL   5*PokemonMysteryDungeonExplorersofSkyTimeGear_mvl/mxv
 BYTE   W02
 BYTE   VOL   5*PokemonMysteryDungeonExplorersofSkyTimeGear_mvl/mxv
 BYTE   W01
 BYTE   VOL   5*PokemonMysteryDungeonExplorersofSkyTimeGear_mvl/mxv
 BYTE   W02
 BYTE   VOL   5*PokemonMysteryDungeonExplorersofSkyTimeGear_mvl/mxv
 BYTE   W01
 BYTE   VOL   6*PokemonMysteryDungeonExplorersofSkyTimeGear_mvl/mxv
 BYTE   W02
 BYTE   VOL   6*PokemonMysteryDungeonExplorersofSkyTimeGear_mvl/mxv
 BYTE   W01
 BYTE   VOL   6*PokemonMysteryDungeonExplorersofSkyTimeGear_mvl/mxv
 BYTE   W02
 BYTE   VOL   6*PokemonMysteryDungeonExplorersofSkyTimeGear_mvl/mxv
 BYTE   W01
 BYTE   VOL   6*PokemonMysteryDungeonExplorersofSkyTimeGear_mvl/mxv
 BYTE   W02
 BYTE   VOL   7*PokemonMysteryDungeonExplorersofSkyTimeGear_mvl/mxv
 BYTE   W01
 BYTE   VOL   8*PokemonMysteryDungeonExplorersofSkyTimeGear_mvl/mxv
 BYTE   W02
 BYTE   VOL   8*PokemonMysteryDungeonExplorersofSkyTimeGear_mvl/mxv
 BYTE   W01
 BYTE   VOL   8*PokemonMysteryDungeonExplorersofSkyTimeGear_mvl/mxv
 BYTE   W02
 BYTE   VOL   8*PokemonMysteryDungeonExplorersofSkyTimeGear_mvl/mxv
 BYTE   W01
 BYTE   VOL   9*PokemonMysteryDungeonExplorersofSkyTimeGear_mvl/mxv
 BYTE   W02
 BYTE   VOL   10*PokemonMysteryDungeonExplorersofSkyTimeGear_mvl/mxv
 BYTE   W01
 BYTE   VOL   10*PokemonMysteryDungeonExplorersofSkyTimeGear_mvl/mxv
 BYTE   W02
 BYTE   VOL   10*PokemonMysteryDungeonExplorersofSkyTimeGear_mvl/mxv
 BYTE   W01
 BYTE   VOL   10*PokemonMysteryDungeonExplorersofSkyTimeGear_mvl/mxv
 BYTE   W02
 BYTE   VOL   10*PokemonMysteryDungeonExplorersofSkyTimeGear_mvl/mxv
 BYTE   W01
 BYTE   VOL   11*PokemonMysteryDungeonExplorersofSkyTimeGear_mvl/mxv
 BYTE   W02
 BYTE   VOL   11*PokemonMysteryDungeonExplorersofSkyTimeGear_mvl/mxv
 BYTE   W01
 BYTE   VOL   11*PokemonMysteryDungeonExplorersofSkyTimeGear_mvl/mxv
 BYTE   W02
 BYTE   VOL   11*PokemonMysteryDungeonExplorersofSkyTimeGear_mvl/mxv
 BYTE   W01
 BYTE   VOL   12*PokemonMysteryDungeonExplorersofSkyTimeGear_mvl/mxv
 BYTE   W02
 BYTE   VOL   13*PokemonMysteryDungeonExplorersofSkyTimeGear_mvl/mxv
 BYTE   W01
 BYTE   VOL   13*PokemonMysteryDungeonExplorersofSkyTimeGear_mvl/mxv
 BYTE   W02
 BYTE   VOL   13*PokemonMysteryDungeonExplorersofSkyTimeGear_mvl/mxv
 BYTE   W01
 BYTE   VOL   14*PokemonMysteryDungeonExplorersofSkyTimeGear_mvl/mxv
 BYTE   W02
 BYTE   VOL   14*PokemonMysteryDungeonExplorersofSkyTimeGear_mvl/mxv
 BYTE   W01
 BYTE   VOL   15*PokemonMysteryDungeonExplorersofSkyTimeGear_mvl/mxv
 BYTE   W02
 BYTE   VOL   15*PokemonMysteryDungeonExplorersofSkyTimeGear_mvl/mxv
 BYTE   W01
 BYTE   VOL   15*PokemonMysteryDungeonExplorersofSkyTimeGear_mvl/mxv
 BYTE   W02
 BYTE   VOL   16*PokemonMysteryDungeonExplorersofSkyTimeGear_mvl/mxv
 BYTE   W01
 BYTE   VOL   17*PokemonMysteryDungeonExplorersofSkyTimeGear_mvl/mxv
 BYTE   W02
 BYTE   VOL   17*PokemonMysteryDungeonExplorersofSkyTimeGear_mvl/mxv
 BYTE   W01
 BYTE   PEND 
//  #05 //004   ----------------------------------------
 BYTE   PATT
  POIN2 Label_016943FD
//  #05 //005   ----------------------------------------
 BYTE   PATT
  POIN2 Label_0169445F
//  #05 //006   ----------------------------------------
 BYTE   EOT
 BYTE   An2
 BYTE   VOL   0*PokemonMysteryDungeonExplorersofSkyTimeGear_mvl/mxv
 BYTE   W01
Label_0169453E:
 BYTE   VOL   0*PokemonMysteryDungeonExplorersofSkyTimeGear_mvl/mxv
 BYTE   TIE  Bn2  v100
 BYTE   W02
 BYTE   VOL   0*PokemonMysteryDungeonExplorersofSkyTimeGear_mvl/mxv
 BYTE   W01
 BYTE   VOL   0*PokemonMysteryDungeonExplorersofSkyTimeGear_mvl/mxv
 BYTE   W02
 BYTE   VOL   0*PokemonMysteryDungeonExplorersofSkyTimeGear_mvl/mxv
 BYTE   W01
 BYTE   VOL   0*PokemonMysteryDungeonExplorersofSkyTimeGear_mvl/mxv
 BYTE   W02
 BYTE   VOL   0*PokemonMysteryDungeonExplorersofSkyTimeGear_mvl/mxv
 BYTE   W01
 BYTE   VOL   0*PokemonMysteryDungeonExplorersofSkyTimeGear_mvl/mxv
 BYTE   W02
 BYTE   VOL   0*PokemonMysteryDungeonExplorersofSkyTimeGear_mvl/mxv
 BYTE   W01
 BYTE   VOL   1*PokemonMysteryDungeonExplorersofSkyTimeGear_mvl/mxv
 BYTE   W02
 BYTE   VOL   1*PokemonMysteryDungeonExplorersofSkyTimeGear_mvl/mxv
 BYTE   W01
 BYTE   VOL   1*PokemonMysteryDungeonExplorersofSkyTimeGear_mvl/mxv
 BYTE   W02
 BYTE   VOL   1*PokemonMysteryDungeonExplorersofSkyTimeGear_mvl/mxv
 BYTE   W01
 BYTE   VOL   1*PokemonMysteryDungeonExplorersofSkyTimeGear_mvl/mxv
 BYTE   W02
 BYTE   VOL   1*PokemonMysteryDungeonExplorersofSkyTimeGear_mvl/mxv
 BYTE   W01
 BYTE   VOL   1*PokemonMysteryDungeonExplorersofSkyTimeGear_mvl/mxv
 BYTE   W02
 BYTE   VOL   1*PokemonMysteryDungeonExplorersofSkyTimeGear_mvl/mxv
 BYTE   W01
 BYTE   VOL   1*PokemonMysteryDungeonExplorersofSkyTimeGear_mvl/mxv
 BYTE   W02
 BYTE   VOL   2*PokemonMysteryDungeonExplorersofSkyTimeGear_mvl/mxv
 BYTE   W01
 BYTE   VOL   2*PokemonMysteryDungeonExplorersofSkyTimeGear_mvl/mxv
 BYTE   W02
 BYTE   VOL   3*PokemonMysteryDungeonExplorersofSkyTimeGear_mvl/mxv
 BYTE   W01
 BYTE   VOL   3*PokemonMysteryDungeonExplorersofSkyTimeGear_mvl/mxv
 BYTE   W02
 BYTE   VOL   3*PokemonMysteryDungeonExplorersofSkyTimeGear_mvl/mxv
 BYTE   W01
 BYTE   VOL   3*PokemonMysteryDungeonExplorersofSkyTimeGear_mvl/mxv
 BYTE   W02
 BYTE   VOL   3*PokemonMysteryDungeonExplorersofSkyTimeGear_mvl/mxv
 BYTE   W01
 BYTE   VOL   4*PokemonMysteryDungeonExplorersofSkyTimeGear_mvl/mxv
 BYTE   W02
 BYTE   VOL   4*PokemonMysteryDungeonExplorersofSkyTimeGear_mvl/mxv
 BYTE   W01
 BYTE   VOL   4*PokemonMysteryDungeonExplorersofSkyTimeGear_mvl/mxv
 BYTE   W02
 BYTE   VOL   4*PokemonMysteryDungeonExplorersofSkyTimeGear_mvl/mxv
 BYTE   W01
 BYTE   VOL   5*PokemonMysteryDungeonExplorersofSkyTimeGear_mvl/mxv
 BYTE   W02
 BYTE   VOL   5*PokemonMysteryDungeonExplorersofSkyTimeGear_mvl/mxv
 BYTE   W01
 BYTE   VOL   5*PokemonMysteryDungeonExplorersofSkyTimeGear_mvl/mxv
 BYTE   W02
 BYTE   VOL   5*PokemonMysteryDungeonExplorersofSkyTimeGear_mvl/mxv
 BYTE   W01
 BYTE   VOL   6*PokemonMysteryDungeonExplorersofSkyTimeGear_mvl/mxv
 BYTE   W02
 BYTE   VOL   6*PokemonMysteryDungeonExplorersofSkyTimeGear_mvl/mxv
 BYTE   W01
 BYTE   VOL   6*PokemonMysteryDungeonExplorersofSkyTimeGear_mvl/mxv
 BYTE   W02
 BYTE   VOL   6*PokemonMysteryDungeonExplorersofSkyTimeGear_mvl/mxv
 BYTE   W01
 BYTE   VOL   6*PokemonMysteryDungeonExplorersofSkyTimeGear_mvl/mxv
 BYTE   W02
 BYTE   VOL   7*PokemonMysteryDungeonExplorersofSkyTimeGear_mvl/mxv
 BYTE   W01
 BYTE   VOL   8*PokemonMysteryDungeonExplorersofSkyTimeGear_mvl/mxv
 BYTE   W02
 BYTE   VOL   8*PokemonMysteryDungeonExplorersofSkyTimeGear_mvl/mxv
 BYTE   W01
 BYTE   VOL   8*PokemonMysteryDungeonExplorersofSkyTimeGear_mvl/mxv
 BYTE   W02
 BYTE   VOL   8*PokemonMysteryDungeonExplorersofSkyTimeGear_mvl/mxv
 BYTE   W01
 BYTE   VOL   9*PokemonMysteryDungeonExplorersofSkyTimeGear_mvl/mxv
 BYTE   W02
 BYTE   VOL   10*PokemonMysteryDungeonExplorersofSkyTimeGear_mvl/mxv
 BYTE   W01
 BYTE   VOL   10*PokemonMysteryDungeonExplorersofSkyTimeGear_mvl/mxv
 BYTE   W02
 BYTE   VOL   10*PokemonMysteryDungeonExplorersofSkyTimeGear_mvl/mxv
 BYTE   W01
 BYTE   VOL   10*PokemonMysteryDungeonExplorersofSkyTimeGear_mvl/mxv
 BYTE   W02
 BYTE   VOL   10*PokemonMysteryDungeonExplorersofSkyTimeGear_mvl/mxv
 BYTE   W01
 BYTE   VOL   11*PokemonMysteryDungeonExplorersofSkyTimeGear_mvl/mxv
 BYTE   W02
 BYTE   VOL   11*PokemonMysteryDungeonExplorersofSkyTimeGear_mvl/mxv
 BYTE   W01
 BYTE   VOL   11*PokemonMysteryDungeonExplorersofSkyTimeGear_mvl/mxv
 BYTE   W02
 BYTE   VOL   11*PokemonMysteryDungeonExplorersofSkyTimeGear_mvl/mxv
 BYTE   W01
 BYTE   VOL   12*PokemonMysteryDungeonExplorersofSkyTimeGear_mvl/mxv
 BYTE   W02
 BYTE   VOL   13*PokemonMysteryDungeonExplorersofSkyTimeGear_mvl/mxv
 BYTE   W01
 BYTE   VOL   13*PokemonMysteryDungeonExplorersofSkyTimeGear_mvl/mxv
 BYTE   W02
 BYTE   VOL   13*PokemonMysteryDungeonExplorersofSkyTimeGear_mvl/mxv
 BYTE   W01
 BYTE   VOL   14*PokemonMysteryDungeonExplorersofSkyTimeGear_mvl/mxv
 BYTE   W02
 BYTE   VOL   14*PokemonMysteryDungeonExplorersofSkyTimeGear_mvl/mxv
 BYTE   W01
 BYTE   VOL   15*PokemonMysteryDungeonExplorersofSkyTimeGear_mvl/mxv
 BYTE   W02
 BYTE   VOL   15*PokemonMysteryDungeonExplorersofSkyTimeGear_mvl/mxv
 BYTE   W01
 BYTE   VOL   15*PokemonMysteryDungeonExplorersofSkyTimeGear_mvl/mxv
 BYTE   W02
 BYTE   VOL   16*PokemonMysteryDungeonExplorersofSkyTimeGear_mvl/mxv
 BYTE   W01
 BYTE   VOL   17*PokemonMysteryDungeonExplorersofSkyTimeGear_mvl/mxv
 BYTE   W02
//  #05 //007   ----------------------------------------
 BYTE   VOL   17*PokemonMysteryDungeonExplorersofSkyTimeGear_mvl/mxv
 BYTE   W01
//  #05 //008   ----------------------------------------
 BYTE   PATT
  POIN2 Label_016943FD
//  #05 //009   ----------------------------------------
 BYTE   PATT
  POIN2 Label_0169445F
//  #05 //010   ----------------------------------------
 BYTE   EOT
 BYTE   Bn2
 BYTE   VOL   0*PokemonMysteryDungeonExplorersofSkyTimeGear_mvl/mxv
 BYTE   W01
//  #05 //011   ----------------------------------------
 BYTE   PATT
  POIN2 Label_016944AB
//  #05 //012   ----------------------------------------
 BYTE   PATT
  POIN2 Label_016943FD
//  #05 //013   ----------------------------------------
 BYTE   PATT
  POIN2 Label_0169445F
//  #05 //014   ----------------------------------------
 BYTE   EOT
 BYTE   An2
 BYTE   W01
Label_016945E4:
 BYTE   TIE  Gn2  v100
 BYTE   W01
 BYTE   VOL   8*PokemonMysteryDungeonExplorersofSkyTimeGear_mvl/mxv
 BYTE   W02
 BYTE   VOL   9*PokemonMysteryDungeonExplorersofSkyTimeGear_mvl/mxv
 BYTE   W01
 BYTE   VOL   10*PokemonMysteryDungeonExplorersofSkyTimeGear_mvl/mxv
 BYTE   W02
 BYTE   VOL   10*PokemonMysteryDungeonExplorersofSkyTimeGear_mvl/mxv
 BYTE   W01
 BYTE   VOL   11*PokemonMysteryDungeonExplorersofSkyTimeGear_mvl/mxv
 BYTE   W02
 BYTE   VOL   11*PokemonMysteryDungeonExplorersofSkyTimeGear_mvl/mxv
 BYTE   W01
 BYTE   VOL   13*PokemonMysteryDungeonExplorersofSkyTimeGear_mvl/mxv
 BYTE   W03
 BYTE   VOL   13*PokemonMysteryDungeonExplorersofSkyTimeGear_mvl/mxv
 BYTE   W02
 BYTE   VOL   14*PokemonMysteryDungeonExplorersofSkyTimeGear_mvl/mxv
 BYTE   W03
 BYTE   VOL   15*PokemonMysteryDungeonExplorersofSkyTimeGear_mvl/mxv
 BYTE   W01
 BYTE   VOL   15*PokemonMysteryDungeonExplorersofSkyTimeGear_mvl/mxv
 BYTE   W02
 BYTE   VOL   16*PokemonMysteryDungeonExplorersofSkyTimeGear_mvl/mxv
 BYTE   W01
 BYTE   VOL   17*PokemonMysteryDungeonExplorersofSkyTimeGear_mvl/mxv
 BYTE   W02
 BYTE   VOL   18*PokemonMysteryDungeonExplorersofSkyTimeGear_mvl/mxv
 BYTE   W03
 BYTE   VOL   19*PokemonMysteryDungeonExplorersofSkyTimeGear_mvl/mxv
 BYTE   W01
 BYTE   VOL   19*PokemonMysteryDungeonExplorersofSkyTimeGear_mvl/mxv
 BYTE   W02
 BYTE   VOL   20*PokemonMysteryDungeonExplorersofSkyTimeGear_mvl/mxv
 BYTE   W01
 BYTE   VOL   21*PokemonMysteryDungeonExplorersofSkyTimeGear_mvl/mxv
 BYTE   W02
 BYTE   VOL   22*PokemonMysteryDungeonExplorersofSkyTimeGear_mvl/mxv
 BYTE   W01
 BYTE   VOL   22*PokemonMysteryDungeonExplorersofSkyTimeGear_mvl/mxv
 BYTE   W02
 BYTE   VOL   22*PokemonMysteryDungeonExplorersofSkyTimeGear_mvl/mxv
 BYTE   W03
 BYTE   VOL   25*PokemonMysteryDungeonExplorersofSkyTimeGear_mvl/mxv
 BYTE   W01
 BYTE   VOL   26*PokemonMysteryDungeonExplorersofSkyTimeGear_mvl/mxv
 BYTE   W02
 BYTE   VOL   27*PokemonMysteryDungeonExplorersofSkyTimeGear_mvl/mxv
 BYTE   W01
 BYTE   VOL   27*PokemonMysteryDungeonExplorersofSkyTimeGear_mvl/mxv
 BYTE   W02
 BYTE   VOL   28*PokemonMysteryDungeonExplorersofSkyTimeGear_mvl/mxv
 BYTE   W01
 BYTE   VOL   28*PokemonMysteryDungeonExplorersofSkyTimeGear_mvl/mxv
 BYTE   W02
 BYTE   VOL   29*PokemonMysteryDungeonExplorersofSkyTimeGear_mvl/mxv
 BYTE   W01
 BYTE   VOL   28*PokemonMysteryDungeonExplorersofSkyTimeGear_mvl/mxv
 BYTE   W03
 BYTE   VOL   29*PokemonMysteryDungeonExplorersofSkyTimeGear_mvl/mxv
 BYTE   W02
 BYTE   VOL   30*PokemonMysteryDungeonExplorersofSkyTimeGear_mvl/mxv
 BYTE   W01
 BYTE   VOL   30*PokemonMysteryDungeonExplorersofSkyTimeGear_mvl/mxv
 BYTE   W02
 BYTE   VOL   31*PokemonMysteryDungeonExplorersofSkyTimeGear_mvl/mxv
 BYTE   W01
 BYTE   VOL   32*PokemonMysteryDungeonExplorersofSkyTimeGear_mvl/mxv
 BYTE   W11
 BYTE   VOL   31*PokemonMysteryDungeonExplorersofSkyTimeGear_mvl/mxv
 BYTE   W03
 BYTE   VOL   30*PokemonMysteryDungeonExplorersofSkyTimeGear_mvl/mxv
 BYTE   W09
 BYTE   VOL   30*PokemonMysteryDungeonExplorersofSkyTimeGear_mvl/mxv
 BYTE   W03
 BYTE   VOL   29*PokemonMysteryDungeonExplorersofSkyTimeGear_mvl/mxv
 BYTE   W01
 BYTE   VOL   29*PokemonMysteryDungeonExplorersofSkyTimeGear_mvl/mxv
 BYTE   W02
 BYTE   VOL   28*PokemonMysteryDungeonExplorersofSkyTimeGear_mvl/mxv
 BYTE   W03
 BYTE   VOL   28*PokemonMysteryDungeonExplorersofSkyTimeGear_mvl/mxv
 BYTE   W01
 BYTE   VOL   27*PokemonMysteryDungeonExplorersofSkyTimeGear_mvl/mxv
 BYTE   W03
 BYTE   VOL   27*PokemonMysteryDungeonExplorersofSkyTimeGear_mvl/mxv
 BYTE   W02
 BYTE   PEND 
//  #05 //015   ----------------------------------------
Label_01694640:
 BYTE   W06
 BYTE   VOL   27*PokemonMysteryDungeonExplorersofSkyTimeGear_mvl/mxv
 BYTE   W01
 BYTE   VOL   26*PokemonMysteryDungeonExplorersofSkyTimeGear_mvl/mxv
 BYTE   W03
 BYTE   VOL   25*PokemonMysteryDungeonExplorersofSkyTimeGear_mvl/mxv
 BYTE   W03
 BYTE   VOL   24*PokemonMysteryDungeonExplorersofSkyTimeGear_mvl/mxv
 BYTE   W02
 BYTE   VOL   23*PokemonMysteryDungeonExplorersofSkyTimeGear_mvl/mxv
 BYTE   W01
 BYTE   VOL   23*PokemonMysteryDungeonExplorersofSkyTimeGear_mvl/mxv
 BYTE   W03
 BYTE   VOL   22*PokemonMysteryDungeonExplorersofSkyTimeGear_mvl/mxv
 BYTE   W02
 BYTE   VOL   22*PokemonMysteryDungeonExplorersofSkyTimeGear_mvl/mxv
 BYTE   W01
 BYTE   VOL   20*PokemonMysteryDungeonExplorersofSkyTimeGear_mvl/mxv
 BYTE   W03
 BYTE   VOL   19*PokemonMysteryDungeonExplorersofSkyTimeGear_mvl/mxv
 BYTE   W02
 BYTE   VOL   18*PokemonMysteryDungeonExplorersofSkyTimeGear_mvl/mxv
 BYTE   W01
 BYTE   VOL   17*PokemonMysteryDungeonExplorersofSkyTimeGear_mvl/mxv
 BYTE   W03
 BYTE   VOL   14*PokemonMysteryDungeonExplorersofSkyTimeGear_mvl/mxv
 BYTE   W03
 BYTE   VOL   13*PokemonMysteryDungeonExplorersofSkyTimeGear_mvl/mxv
 BYTE   W02
 BYTE   VOL   12*PokemonMysteryDungeonExplorersofSkyTimeGear_mvl/mxv
 BYTE   W01
 BYTE   VOL   11*PokemonMysteryDungeonExplorersofSkyTimeGear_mvl/mxv
 BYTE   W02
 BYTE   VOL   10*PokemonMysteryDungeonExplorersofSkyTimeGear_mvl/mxv
 BYTE   W01
 BYTE   VOL   10*PokemonMysteryDungeonExplorersofSkyTimeGear_mvl/mxv
 BYTE   W07
 BYTE   PEND 
 BYTE   EOT
 BYTE   Gn2
 BYTE   W01
 BYTE   TIE  Fs2  v100
 BYTE   W01
 BYTE   VOL   8*PokemonMysteryDungeonExplorersofSkyTimeGear_mvl/mxv
 BYTE   W02
 BYTE   VOL   9*PokemonMysteryDungeonExplorersofSkyTimeGear_mvl/mxv
 BYTE   W01
 BYTE   VOL   10*PokemonMysteryDungeonExplorersofSkyTimeGear_mvl/mxv
 BYTE   W02
 BYTE   VOL   10*PokemonMysteryDungeonExplorersofSkyTimeGear_mvl/mxv
 BYTE   W01
 BYTE   VOL   11*PokemonMysteryDungeonExplorersofSkyTimeGear_mvl/mxv
 BYTE   W02
 BYTE   VOL   11*PokemonMysteryDungeonExplorersofSkyTimeGear_mvl/mxv
 BYTE   W01
 BYTE   VOL   13*PokemonMysteryDungeonExplorersofSkyTimeGear_mvl/mxv
 BYTE   W03
 BYTE   VOL   13*PokemonMysteryDungeonExplorersofSkyTimeGear_mvl/mxv
 BYTE   W02
 BYTE   VOL   14*PokemonMysteryDungeonExplorersofSkyTimeGear_mvl/mxv
 BYTE   W03
 BYTE   VOL   15*PokemonMysteryDungeonExplorersofSkyTimeGear_mvl/mxv
 BYTE   W01
 BYTE   VOL   15*PokemonMysteryDungeonExplorersofSkyTimeGear_mvl/mxv
 BYTE   W02
 BYTE   VOL   16*PokemonMysteryDungeonExplorersofSkyTimeGear_mvl/mxv
 BYTE   W01
 BYTE   VOL   17*PokemonMysteryDungeonExplorersofSkyTimeGear_mvl/mxv
 BYTE   W02
 BYTE   VOL   18*PokemonMysteryDungeonExplorersofSkyTimeGear_mvl/mxv
 BYTE   W03
 BYTE   VOL   19*PokemonMysteryDungeonExplorersofSkyTimeGear_mvl/mxv
 BYTE   W01
 BYTE   VOL   19*PokemonMysteryDungeonExplorersofSkyTimeGear_mvl/mxv
 BYTE   W02
 BYTE   VOL   20*PokemonMysteryDungeonExplorersofSkyTimeGear_mvl/mxv
 BYTE   W01
 BYTE   VOL   21*PokemonMysteryDungeonExplorersofSkyTimeGear_mvl/mxv
 BYTE   W02
 BYTE   VOL   22*PokemonMysteryDungeonExplorersofSkyTimeGear_mvl/mxv
 BYTE   W01
 BYTE   VOL   22*PokemonMysteryDungeonExplorersofSkyTimeGear_mvl/mxv
 BYTE   W02
 BYTE   VOL   22*PokemonMysteryDungeonExplorersofSkyTimeGear_mvl/mxv
 BYTE   W03
 BYTE   VOL   25*PokemonMysteryDungeonExplorersofSkyTimeGear_mvl/mxv
 BYTE   W01
 BYTE   VOL   26*PokemonMysteryDungeonExplorersofSkyTimeGear_mvl/mxv
 BYTE   W02
 BYTE   VOL   27*PokemonMysteryDungeonExplorersofSkyTimeGear_mvl/mxv
 BYTE   W01
 BYTE   VOL   27*PokemonMysteryDungeonExplorersofSkyTimeGear_mvl/mxv
 BYTE   W02
 BYTE   VOL   28*PokemonMysteryDungeonExplorersofSkyTimeGear_mvl/mxv
 BYTE   W01
 BYTE   VOL   28*PokemonMysteryDungeonExplorersofSkyTimeGear_mvl/mxv
 BYTE   W02
//  #05 //016   ----------------------------------------
Label_016946A5:
 BYTE   VOL   29*PokemonMysteryDungeonExplorersofSkyTimeGear_mvl/mxv
 BYTE   W01
 BYTE   VOL   28*PokemonMysteryDungeonExplorersofSkyTimeGear_mvl/mxv
 BYTE   W03
 BYTE   VOL   29*PokemonMysteryDungeonExplorersofSkyTimeGear_mvl/mxv
 BYTE   W02
 BYTE   VOL   30*PokemonMysteryDungeonExplorersofSkyTimeGear_mvl/mxv
 BYTE   W01
 BYTE   VOL   30*PokemonMysteryDungeonExplorersofSkyTimeGear_mvl/mxv
 BYTE   W02
 BYTE   VOL   31*PokemonMysteryDungeonExplorersofSkyTimeGear_mvl/mxv
 BYTE   W01
 BYTE   VOL   32*PokemonMysteryDungeonExplorersofSkyTimeGear_mvl/mxv
 BYTE   W11
 BYTE   VOL   31*PokemonMysteryDungeonExplorersofSkyTimeGear_mvl/mxv
 BYTE   W03
 BYTE   VOL   30*PokemonMysteryDungeonExplorersofSkyTimeGear_mvl/mxv
 BYTE   W09
 BYTE   VOL   30*PokemonMysteryDungeonExplorersofSkyTimeGear_mvl/mxv
 BYTE   W03
 BYTE   VOL   29*PokemonMysteryDungeonExplorersofSkyTimeGear_mvl/mxv
 BYTE   W01
 BYTE   VOL   29*PokemonMysteryDungeonExplorersofSkyTimeGear_mvl/mxv
 BYTE   W02
 BYTE   VOL   28*PokemonMysteryDungeonExplorersofSkyTimeGear_mvl/mxv
 BYTE   W03
 BYTE   VOL   28*PokemonMysteryDungeonExplorersofSkyTimeGear_mvl/mxv
 BYTE   W01
 BYTE   VOL   27*PokemonMysteryDungeonExplorersofSkyTimeGear_mvl/mxv
 BYTE   W03
 BYTE   VOL   27*PokemonMysteryDungeonExplorersofSkyTimeGear_mvl/mxv
 BYTE   W08
 BYTE   VOL   27*PokemonMysteryDungeonExplorersofSkyTimeGear_mvl/mxv
 BYTE   W01
 BYTE   VOL   26*PokemonMysteryDungeonExplorersofSkyTimeGear_mvl/mxv
 BYTE   W03
 BYTE   VOL   25*PokemonMysteryDungeonExplorersofSkyTimeGear_mvl/mxv
 BYTE   W03
 BYTE   VOL   24*PokemonMysteryDungeonExplorersofSkyTimeGear_mvl/mxv
 BYTE   W02
 BYTE   VOL   23*PokemonMysteryDungeonExplorersofSkyTimeGear_mvl/mxv
 BYTE   W01
 BYTE   VOL   23*PokemonMysteryDungeonExplorersofSkyTimeGear_mvl/mxv
 BYTE   W03
 BYTE   VOL   22*PokemonMysteryDungeonExplorersofSkyTimeGear_mvl/mxv
 BYTE   W02
 BYTE   VOL   22*PokemonMysteryDungeonExplorersofSkyTimeGear_mvl/mxv
 BYTE   W01
 BYTE   VOL   20*PokemonMysteryDungeonExplorersofSkyTimeGear_mvl/mxv
 BYTE   W03
 BYTE   VOL   19*PokemonMysteryDungeonExplorersofSkyTimeGear_mvl/mxv
 BYTE   W02
 BYTE   VOL   18*PokemonMysteryDungeonExplorersofSkyTimeGear_mvl/mxv
 BYTE   W01
 BYTE   VOL   17*PokemonMysteryDungeonExplorersofSkyTimeGear_mvl/mxv
 BYTE   W03
 BYTE   VOL   14*PokemonMysteryDungeonExplorersofSkyTimeGear_mvl/mxv
 BYTE   W03
 BYTE   VOL   13*PokemonMysteryDungeonExplorersofSkyTimeGear_mvl/mxv
 BYTE   W02
 BYTE   VOL   12*PokemonMysteryDungeonExplorersofSkyTimeGear_mvl/mxv
 BYTE   W01
 BYTE   VOL   11*PokemonMysteryDungeonExplorersofSkyTimeGear_mvl/mxv
 BYTE   W02
 BYTE   VOL   10*PokemonMysteryDungeonExplorersofSkyTimeGear_mvl/mxv
 BYTE   W01
 BYTE   VOL   10*PokemonMysteryDungeonExplorersofSkyTimeGear_mvl/mxv
 BYTE   W07
 BYTE   PEND 
 BYTE   EOT
 BYTE   Fs2
 BYTE   W01
//  #05 //017   ----------------------------------------
 BYTE   PATT
  POIN2 Label_016945E4
//  #05 //018   ----------------------------------------
 BYTE   PATT
  POIN2 Label_01694640
//  #05 //019   ----------------------------------------
 BYTE   EOT
 BYTE   Gn2
 BYTE   W01
 BYTE   TIE  Fs2  v100
 BYTE   W01
 BYTE   VOL   8*PokemonMysteryDungeonExplorersofSkyTimeGear_mvl/mxv
 BYTE   W02
 BYTE   VOL   9*PokemonMysteryDungeonExplorersofSkyTimeGear_mvl/mxv
 BYTE   W01
 BYTE   VOL   10*PokemonMysteryDungeonExplorersofSkyTimeGear_mvl/mxv
 BYTE   W02
 BYTE   VOL   10*PokemonMysteryDungeonExplorersofSkyTimeGear_mvl/mxv
 BYTE   W01
 BYTE   VOL   11*PokemonMysteryDungeonExplorersofSkyTimeGear_mvl/mxv
 BYTE   W02
 BYTE   VOL   11*PokemonMysteryDungeonExplorersofSkyTimeGear_mvl/mxv
 BYTE   W01
 BYTE   VOL   13*PokemonMysteryDungeonExplorersofSkyTimeGear_mvl/mxv
 BYTE   W03
 BYTE   VOL   13*PokemonMysteryDungeonExplorersofSkyTimeGear_mvl/mxv
 BYTE   W02
 BYTE   VOL   14*PokemonMysteryDungeonExplorersofSkyTimeGear_mvl/mxv
 BYTE   W03
 BYTE   VOL   15*PokemonMysteryDungeonExplorersofSkyTimeGear_mvl/mxv
 BYTE   W01
 BYTE   VOL   15*PokemonMysteryDungeonExplorersofSkyTimeGear_mvl/mxv
 BYTE   W02
 BYTE   VOL   16*PokemonMysteryDungeonExplorersofSkyTimeGear_mvl/mxv
 BYTE   W01
 BYTE   VOL   17*PokemonMysteryDungeonExplorersofSkyTimeGear_mvl/mxv
 BYTE   W02
 BYTE   VOL   18*PokemonMysteryDungeonExplorersofSkyTimeGear_mvl/mxv
 BYTE   W03
 BYTE   VOL   19*PokemonMysteryDungeonExplorersofSkyTimeGear_mvl/mxv
 BYTE   W01
 BYTE   VOL   19*PokemonMysteryDungeonExplorersofSkyTimeGear_mvl/mxv
 BYTE   W02
 BYTE   VOL   20*PokemonMysteryDungeonExplorersofSkyTimeGear_mvl/mxv
 BYTE   W01
 BYTE   VOL   21*PokemonMysteryDungeonExplorersofSkyTimeGear_mvl/mxv
 BYTE   W02
 BYTE   VOL   22*PokemonMysteryDungeonExplorersofSkyTimeGear_mvl/mxv
 BYTE   W01
 BYTE   VOL   22*PokemonMysteryDungeonExplorersofSkyTimeGear_mvl/mxv
 BYTE   W02
 BYTE   VOL   22*PokemonMysteryDungeonExplorersofSkyTimeGear_mvl/mxv
 BYTE   W03
 BYTE   VOL   25*PokemonMysteryDungeonExplorersofSkyTimeGear_mvl/mxv
 BYTE   W01
 BYTE   VOL   26*PokemonMysteryDungeonExplorersofSkyTimeGear_mvl/mxv
 BYTE   W02
 BYTE   VOL   27*PokemonMysteryDungeonExplorersofSkyTimeGear_mvl/mxv
 BYTE   W01
 BYTE   VOL   27*PokemonMysteryDungeonExplorersofSkyTimeGear_mvl/mxv
 BYTE   W02
 BYTE   VOL   28*PokemonMysteryDungeonExplorersofSkyTimeGear_mvl/mxv
 BYTE   W01
 BYTE   VOL   28*PokemonMysteryDungeonExplorersofSkyTimeGear_mvl/mxv
 BYTE   W02
//  #05 //020   ----------------------------------------
 BYTE   PATT
  POIN2 Label_016946A5
//  #05 //021   ----------------------------------------
 BYTE   EOT
 BYTE   Fs2
 BYTE   W01
//  #05 //022   ----------------------------------------
 BYTE   PATT
  POIN2 Label_016945E4
//  #05 //023   ----------------------------------------
 BYTE   PATT
  POIN2 Label_01694640
//  #05 //024   ----------------------------------------
 BYTE   EOT
 BYTE   Gn2
 BYTE   W01
 BYTE   TIE  Fs2  v100
 BYTE   W01
 BYTE   VOL   8*PokemonMysteryDungeonExplorersofSkyTimeGear_mvl/mxv
 BYTE   W02
 BYTE   VOL   9*PokemonMysteryDungeonExplorersofSkyTimeGear_mvl/mxv
 BYTE   W01
 BYTE   VOL   10*PokemonMysteryDungeonExplorersofSkyTimeGear_mvl/mxv
 BYTE   W02
 BYTE   VOL   10*PokemonMysteryDungeonExplorersofSkyTimeGear_mvl/mxv
 BYTE   W01
 BYTE   VOL   11*PokemonMysteryDungeonExplorersofSkyTimeGear_mvl/mxv
 BYTE   W02
 BYTE   VOL   11*PokemonMysteryDungeonExplorersofSkyTimeGear_mvl/mxv
 BYTE   W01
 BYTE   VOL   13*PokemonMysteryDungeonExplorersofSkyTimeGear_mvl/mxv
 BYTE   W03
 BYTE   VOL   13*PokemonMysteryDungeonExplorersofSkyTimeGear_mvl/mxv
 BYTE   W02
 BYTE   VOL   14*PokemonMysteryDungeonExplorersofSkyTimeGear_mvl/mxv
 BYTE   W03
 BYTE   VOL   15*PokemonMysteryDungeonExplorersofSkyTimeGear_mvl/mxv
 BYTE   W01
 BYTE   VOL   15*PokemonMysteryDungeonExplorersofSkyTimeGear_mvl/mxv
 BYTE   W02
 BYTE   VOL   16*PokemonMysteryDungeonExplorersofSkyTimeGear_mvl/mxv
 BYTE   W01
 BYTE   VOL   17*PokemonMysteryDungeonExplorersofSkyTimeGear_mvl/mxv
 BYTE   W02
 BYTE   VOL   18*PokemonMysteryDungeonExplorersofSkyTimeGear_mvl/mxv
 BYTE   W03
 BYTE   VOL   19*PokemonMysteryDungeonExplorersofSkyTimeGear_mvl/mxv
 BYTE   W01
 BYTE   VOL   19*PokemonMysteryDungeonExplorersofSkyTimeGear_mvl/mxv
 BYTE   W02
 BYTE   VOL   20*PokemonMysteryDungeonExplorersofSkyTimeGear_mvl/mxv
 BYTE   W01
 BYTE   VOL   21*PokemonMysteryDungeonExplorersofSkyTimeGear_mvl/mxv
 BYTE   W02
 BYTE   VOL   22*PokemonMysteryDungeonExplorersofSkyTimeGear_mvl/mxv
 BYTE   W01
 BYTE   VOL   22*PokemonMysteryDungeonExplorersofSkyTimeGear_mvl/mxv
 BYTE   W02
 BYTE   VOL   22*PokemonMysteryDungeonExplorersofSkyTimeGear_mvl/mxv
 BYTE   W03
 BYTE   VOL   25*PokemonMysteryDungeonExplorersofSkyTimeGear_mvl/mxv
 BYTE   W01
 BYTE   VOL   26*PokemonMysteryDungeonExplorersofSkyTimeGear_mvl/mxv
 BYTE   W02
 BYTE   VOL   27*PokemonMysteryDungeonExplorersofSkyTimeGear_mvl/mxv
 BYTE   W01
 BYTE   VOL   27*PokemonMysteryDungeonExplorersofSkyTimeGear_mvl/mxv
 BYTE   W02
 BYTE   VOL   28*PokemonMysteryDungeonExplorersofSkyTimeGear_mvl/mxv
 BYTE   W01
 BYTE   VOL   28*PokemonMysteryDungeonExplorersofSkyTimeGear_mvl/mxv
 BYTE   W02
//  #05 //025   ----------------------------------------
 BYTE   PATT
  POIN2 Label_016946A5
//  #05 //026   ----------------------------------------
 BYTE   EOT
 BYTE   Fs2
 BYTE   W01
//  #05 //027   ----------------------------------------
 BYTE   PATT
  POIN2 Label_016945E4
//  #05 //028   ----------------------------------------
 BYTE   PATT
  POIN2 Label_01694640
//  #05 //029   ----------------------------------------
 BYTE   EOT
 BYTE   Gn2
 BYTE   W01
 BYTE   TIE  Fs2  v100
 BYTE   W01
 BYTE   VOL   8*PokemonMysteryDungeonExplorersofSkyTimeGear_mvl/mxv
 BYTE   W02
 BYTE   VOL   9*PokemonMysteryDungeonExplorersofSkyTimeGear_mvl/mxv
 BYTE   W01
 BYTE   VOL   10*PokemonMysteryDungeonExplorersofSkyTimeGear_mvl/mxv
 BYTE   W02
 BYTE   VOL   10*PokemonMysteryDungeonExplorersofSkyTimeGear_mvl/mxv
 BYTE   W01
 BYTE   VOL   11*PokemonMysteryDungeonExplorersofSkyTimeGear_mvl/mxv
 BYTE   W02
 BYTE   VOL   11*PokemonMysteryDungeonExplorersofSkyTimeGear_mvl/mxv
 BYTE   W01
 BYTE   VOL   13*PokemonMysteryDungeonExplorersofSkyTimeGear_mvl/mxv
 BYTE   W03
 BYTE   VOL   13*PokemonMysteryDungeonExplorersofSkyTimeGear_mvl/mxv
 BYTE   W02
 BYTE   VOL   14*PokemonMysteryDungeonExplorersofSkyTimeGear_mvl/mxv
 BYTE   W03
 BYTE   VOL   15*PokemonMysteryDungeonExplorersofSkyTimeGear_mvl/mxv
 BYTE   W01
 BYTE   VOL   15*PokemonMysteryDungeonExplorersofSkyTimeGear_mvl/mxv
 BYTE   W02
 BYTE   VOL   16*PokemonMysteryDungeonExplorersofSkyTimeGear_mvl/mxv
 BYTE   W01
 BYTE   VOL   17*PokemonMysteryDungeonExplorersofSkyTimeGear_mvl/mxv
 BYTE   W02
 BYTE   VOL   18*PokemonMysteryDungeonExplorersofSkyTimeGear_mvl/mxv
 BYTE   W03
 BYTE   VOL   19*PokemonMysteryDungeonExplorersofSkyTimeGear_mvl/mxv
 BYTE   W01
 BYTE   VOL   19*PokemonMysteryDungeonExplorersofSkyTimeGear_mvl/mxv
 BYTE   W02
 BYTE   VOL   20*PokemonMysteryDungeonExplorersofSkyTimeGear_mvl/mxv
 BYTE   W01
 BYTE   VOL   21*PokemonMysteryDungeonExplorersofSkyTimeGear_mvl/mxv
 BYTE   W02
 BYTE   VOL   22*PokemonMysteryDungeonExplorersofSkyTimeGear_mvl/mxv
 BYTE   W01
 BYTE   VOL   22*PokemonMysteryDungeonExplorersofSkyTimeGear_mvl/mxv
 BYTE   W02
 BYTE   VOL   22*PokemonMysteryDungeonExplorersofSkyTimeGear_mvl/mxv
 BYTE   W03
 BYTE   VOL   25*PokemonMysteryDungeonExplorersofSkyTimeGear_mvl/mxv
 BYTE   W01
 BYTE   VOL   26*PokemonMysteryDungeonExplorersofSkyTimeGear_mvl/mxv
 BYTE   W02
 BYTE   VOL   27*PokemonMysteryDungeonExplorersofSkyTimeGear_mvl/mxv
 BYTE   W01
 BYTE   VOL   27*PokemonMysteryDungeonExplorersofSkyTimeGear_mvl/mxv
 BYTE   W02
 BYTE   VOL   28*PokemonMysteryDungeonExplorersofSkyTimeGear_mvl/mxv
 BYTE   W01
 BYTE   VOL   28*PokemonMysteryDungeonExplorersofSkyTimeGear_mvl/mxv
 BYTE   W02
//  #05 //030   ----------------------------------------
 BYTE   PATT
  POIN2 Label_016946A5
//  #05 //031   ----------------------------------------
 BYTE   EOT
 BYTE   Fs2
 BYTE   W01
Label_016947DE:
 BYTE   TIE  En3  v100
 BYTE   W01
 BYTE   VOL   8*PokemonMysteryDungeonExplorersofSkyTimeGear_mvl/mxv
 BYTE   W02
 BYTE   VOL   9*PokemonMysteryDungeonExplorersofSkyTimeGear_mvl/mxv
 BYTE   W01
 BYTE   VOL   10*PokemonMysteryDungeonExplorersofSkyTimeGear_mvl/mxv
 BYTE   W02
 BYTE   VOL   10*PokemonMysteryDungeonExplorersofSkyTimeGear_mvl/mxv
 BYTE   W01
 BYTE   VOL   11*PokemonMysteryDungeonExplorersofSkyTimeGear_mvl/mxv
 BYTE   W02
 BYTE   VOL   11*PokemonMysteryDungeonExplorersofSkyTimeGear_mvl/mxv
 BYTE   W01
 BYTE   VOL   13*PokemonMysteryDungeonExplorersofSkyTimeGear_mvl/mxv
 BYTE   W03
 BYTE   VOL   13*PokemonMysteryDungeonExplorersofSkyTimeGear_mvl/mxv
 BYTE   W02
 BYTE   VOL   14*PokemonMysteryDungeonExplorersofSkyTimeGear_mvl/mxv
 BYTE   W03
 BYTE   VOL   15*PokemonMysteryDungeonExplorersofSkyTimeGear_mvl/mxv
 BYTE   W01
 BYTE   VOL   15*PokemonMysteryDungeonExplorersofSkyTimeGear_mvl/mxv
 BYTE   W02
 BYTE   VOL   16*PokemonMysteryDungeonExplorersofSkyTimeGear_mvl/mxv
 BYTE   W01
 BYTE   VOL   17*PokemonMysteryDungeonExplorersofSkyTimeGear_mvl/mxv
 BYTE   W02
 BYTE   VOL   18*PokemonMysteryDungeonExplorersofSkyTimeGear_mvl/mxv
 BYTE   W03
 BYTE   VOL   19*PokemonMysteryDungeonExplorersofSkyTimeGear_mvl/mxv
 BYTE   W01
 BYTE   VOL   19*PokemonMysteryDungeonExplorersofSkyTimeGear_mvl/mxv
 BYTE   W02
 BYTE   VOL   20*PokemonMysteryDungeonExplorersofSkyTimeGear_mvl/mxv
 BYTE   W01
 BYTE   VOL   21*PokemonMysteryDungeonExplorersofSkyTimeGear_mvl/mxv
 BYTE   W02
 BYTE   VOL   22*PokemonMysteryDungeonExplorersofSkyTimeGear_mvl/mxv
 BYTE   W01
 BYTE   VOL   22*PokemonMysteryDungeonExplorersofSkyTimeGear_mvl/mxv
 BYTE   W02
 BYTE   VOL   22*PokemonMysteryDungeonExplorersofSkyTimeGear_mvl/mxv
 BYTE   W03
 BYTE   VOL   25*PokemonMysteryDungeonExplorersofSkyTimeGear_mvl/mxv
 BYTE   W01
 BYTE   VOL   26*PokemonMysteryDungeonExplorersofSkyTimeGear_mvl/mxv
 BYTE   W02
 BYTE   VOL   27*PokemonMysteryDungeonExplorersofSkyTimeGear_mvl/mxv
 BYTE   W01
 BYTE   VOL   27*PokemonMysteryDungeonExplorersofSkyTimeGear_mvl/mxv
 BYTE   W02
 BYTE   VOL   28*PokemonMysteryDungeonExplorersofSkyTimeGear_mvl/mxv
 BYTE   W01
 BYTE   VOL   28*PokemonMysteryDungeonExplorersofSkyTimeGear_mvl/mxv
 BYTE   W02
 BYTE   VOL   29*PokemonMysteryDungeonExplorersofSkyTimeGear_mvl/mxv
 BYTE   W01
 BYTE   VOL   28*PokemonMysteryDungeonExplorersofSkyTimeGear_mvl/mxv
 BYTE   W03
 BYTE   VOL   29*PokemonMysteryDungeonExplorersofSkyTimeGear_mvl/mxv
 BYTE   W02
 BYTE   VOL   30*PokemonMysteryDungeonExplorersofSkyTimeGear_mvl/mxv
 BYTE   W01
 BYTE   VOL   30*PokemonMysteryDungeonExplorersofSkyTimeGear_mvl/mxv
 BYTE   W02
 BYTE   VOL   31*PokemonMysteryDungeonExplorersofSkyTimeGear_mvl/mxv
 BYTE   W01
 BYTE   VOL   32*PokemonMysteryDungeonExplorersofSkyTimeGear_mvl/mxv
 BYTE   W11
 BYTE   VOL   31*PokemonMysteryDungeonExplorersofSkyTimeGear_mvl/mxv
 BYTE   W03
 BYTE   VOL   30*PokemonMysteryDungeonExplorersofSkyTimeGear_mvl/mxv
 BYTE   W09
 BYTE   VOL   30*PokemonMysteryDungeonExplorersofSkyTimeGear_mvl/mxv
 BYTE   W03
 BYTE   VOL   29*PokemonMysteryDungeonExplorersofSkyTimeGear_mvl/mxv
 BYTE   W01
 BYTE   VOL   29*PokemonMysteryDungeonExplorersofSkyTimeGear_mvl/mxv
 BYTE   W02
 BYTE   VOL   28*PokemonMysteryDungeonExplorersofSkyTimeGear_mvl/mxv
 BYTE   W03
 BYTE   VOL   28*PokemonMysteryDungeonExplorersofSkyTimeGear_mvl/mxv
 BYTE   W01
 BYTE   VOL   27*PokemonMysteryDungeonExplorersofSkyTimeGear_mvl/mxv
 BYTE   W03
 BYTE   VOL   27*PokemonMysteryDungeonExplorersofSkyTimeGear_mvl/mxv
 BYTE   W02
 BYTE   PEND 
//  #05 //032   ----------------------------------------
 BYTE   PATT
  POIN2 Label_01694640
//  #05 //033   ----------------------------------------
 BYTE   EOT
 BYTE   En3
 BYTE   W01
 BYTE   N68  Dn3  v100
 BYTE   W01
 BYTE   VOL   8*PokemonMysteryDungeonExplorersofSkyTimeGear_mvl/mxv
 BYTE   W02
 BYTE   VOL   9*PokemonMysteryDungeonExplorersofSkyTimeGear_mvl/mxv
 BYTE   W01
 BYTE   VOL   10*PokemonMysteryDungeonExplorersofSkyTimeGear_mvl/mxv
 BYTE   W02
 BYTE   VOL   10*PokemonMysteryDungeonExplorersofSkyTimeGear_mvl/mxv
 BYTE   W01
 BYTE   VOL   11*PokemonMysteryDungeonExplorersofSkyTimeGear_mvl/mxv
 BYTE   W02
 BYTE   VOL   11*PokemonMysteryDungeonExplorersofSkyTimeGear_mvl/mxv
 BYTE   W01
 BYTE   VOL   13*PokemonMysteryDungeonExplorersofSkyTimeGear_mvl/mxv
 BYTE   W03
 BYTE   VOL   13*PokemonMysteryDungeonExplorersofSkyTimeGear_mvl/mxv
 BYTE   W02
 BYTE   VOL   14*PokemonMysteryDungeonExplorersofSkyTimeGear_mvl/mxv
 BYTE   W03
 BYTE   VOL   15*PokemonMysteryDungeonExplorersofSkyTimeGear_mvl/mxv
 BYTE   W01
 BYTE   VOL   15*PokemonMysteryDungeonExplorersofSkyTimeGear_mvl/mxv
 BYTE   W02
 BYTE   VOL   16*PokemonMysteryDungeonExplorersofSkyTimeGear_mvl/mxv
 BYTE   W01
 BYTE   VOL   17*PokemonMysteryDungeonExplorersofSkyTimeGear_mvl/mxv
 BYTE   W02
 BYTE   VOL   18*PokemonMysteryDungeonExplorersofSkyTimeGear_mvl/mxv
 BYTE   W03
 BYTE   VOL   19*PokemonMysteryDungeonExplorersofSkyTimeGear_mvl/mxv
 BYTE   W01
 BYTE   VOL   19*PokemonMysteryDungeonExplorersofSkyTimeGear_mvl/mxv
 BYTE   W02
 BYTE   VOL   20*PokemonMysteryDungeonExplorersofSkyTimeGear_mvl/mxv
 BYTE   W01
 BYTE   VOL   21*PokemonMysteryDungeonExplorersofSkyTimeGear_mvl/mxv
 BYTE   W02
 BYTE   VOL   22*PokemonMysteryDungeonExplorersofSkyTimeGear_mvl/mxv
 BYTE   W01
 BYTE   VOL   22*PokemonMysteryDungeonExplorersofSkyTimeGear_mvl/mxv
 BYTE   W02
 BYTE   VOL   22*PokemonMysteryDungeonExplorersofSkyTimeGear_mvl/mxv
 BYTE   W03
 BYTE   VOL   25*PokemonMysteryDungeonExplorersofSkyTimeGear_mvl/mxv
 BYTE   W01
 BYTE   VOL   26*PokemonMysteryDungeonExplorersofSkyTimeGear_mvl/mxv
 BYTE   W02
 BYTE   VOL   27*PokemonMysteryDungeonExplorersofSkyTimeGear_mvl/mxv
 BYTE   W01
 BYTE   VOL   27*PokemonMysteryDungeonExplorersofSkyTimeGear_mvl/mxv
 BYTE   W02
 BYTE   VOL   28*PokemonMysteryDungeonExplorersofSkyTimeGear_mvl/mxv
 BYTE   W01
 BYTE   VOL   28*PokemonMysteryDungeonExplorersofSkyTimeGear_mvl/mxv
 BYTE   W02
Label_0169487D:
 BYTE   VOL   29*PokemonMysteryDungeonExplorersofSkyTimeGear_mvl/mxv
 BYTE   W01
 BYTE   VOL   28*PokemonMysteryDungeonExplorersofSkyTimeGear_mvl/mxv
 BYTE   W03
 BYTE   VOL   29*PokemonMysteryDungeonExplorersofSkyTimeGear_mvl/mxv
 BYTE   W02
 BYTE   VOL   30*PokemonMysteryDungeonExplorersofSkyTimeGear_mvl/mxv
 BYTE   W01
 BYTE   VOL   30*PokemonMysteryDungeonExplorersofSkyTimeGear_mvl/mxv
 BYTE   W02
 BYTE   VOL   31*PokemonMysteryDungeonExplorersofSkyTimeGear_mvl/mxv
 BYTE   W01
 BYTE   VOL   32*PokemonMysteryDungeonExplorersofSkyTimeGear_mvl/mxv
 BYTE   W11
 BYTE   VOL   31*PokemonMysteryDungeonExplorersofSkyTimeGear_mvl/mxv
 BYTE   W03
 BYTE   VOL   30*PokemonMysteryDungeonExplorersofSkyTimeGear_mvl/mxv
 BYTE   N68  Fs3  v100
 BYTE   W09
 BYTE   VOL   30*PokemonMysteryDungeonExplorersofSkyTimeGear_mvl/mxv
 BYTE   W03
 BYTE   VOL   29*PokemonMysteryDungeonExplorersofSkyTimeGear_mvl/mxv
 BYTE   W01
 BYTE   VOL   29*PokemonMysteryDungeonExplorersofSkyTimeGear_mvl/mxv
 BYTE   W02
 BYTE   VOL   28*PokemonMysteryDungeonExplorersofSkyTimeGear_mvl/mxv
 BYTE   W03
 BYTE   VOL   28*PokemonMysteryDungeonExplorersofSkyTimeGear_mvl/mxv
 BYTE   W01
 BYTE   VOL   27*PokemonMysteryDungeonExplorersofSkyTimeGear_mvl/mxv
 BYTE   W03
 BYTE   VOL   27*PokemonMysteryDungeonExplorersofSkyTimeGear_mvl/mxv
 BYTE   W08
//  #05 //034   ----------------------------------------
 BYTE   VOL   27*PokemonMysteryDungeonExplorersofSkyTimeGear_mvl/mxv
 BYTE   W01
 BYTE   VOL   26*PokemonMysteryDungeonExplorersofSkyTimeGear_mvl/mxv
 BYTE   W03
 BYTE   VOL   25*PokemonMysteryDungeonExplorersofSkyTimeGear_mvl/mxv
 BYTE   W03
 BYTE   VOL   24*PokemonMysteryDungeonExplorersofSkyTimeGear_mvl/mxv
 BYTE   W02
 BYTE   VOL   23*PokemonMysteryDungeonExplorersofSkyTimeGear_mvl/mxv
 BYTE   W01
 BYTE   VOL   23*PokemonMysteryDungeonExplorersofSkyTimeGear_mvl/mxv
 BYTE   W03
 BYTE   VOL   22*PokemonMysteryDungeonExplorersofSkyTimeGear_mvl/mxv
 BYTE   W02
 BYTE   VOL   22*PokemonMysteryDungeonExplorersofSkyTimeGear_mvl/mxv
 BYTE   W01
 BYTE   VOL   20*PokemonMysteryDungeonExplorersofSkyTimeGear_mvl/mxv
 BYTE   W03
 BYTE   VOL   19*PokemonMysteryDungeonExplorersofSkyTimeGear_mvl/mxv
 BYTE   W02
 BYTE   VOL   18*PokemonMysteryDungeonExplorersofSkyTimeGear_mvl/mxv
 BYTE   W01
 BYTE   VOL   17*PokemonMysteryDungeonExplorersofSkyTimeGear_mvl/mxv
 BYTE   W03
 BYTE   VOL   14*PokemonMysteryDungeonExplorersofSkyTimeGear_mvl/mxv
 BYTE   W03
 BYTE   VOL   13*PokemonMysteryDungeonExplorersofSkyTimeGear_mvl/mxv
 BYTE   W02
 BYTE   VOL   12*PokemonMysteryDungeonExplorersofSkyTimeGear_mvl/mxv
 BYTE   W01
 BYTE   VOL   11*PokemonMysteryDungeonExplorersofSkyTimeGear_mvl/mxv
 BYTE   W02
 BYTE   VOL   10*PokemonMysteryDungeonExplorersofSkyTimeGear_mvl/mxv
 BYTE   W01
 BYTE   VOL   10*PokemonMysteryDungeonExplorersofSkyTimeGear_mvl/mxv
 BYTE   W08
 BYTE   PEND 
//  #05 //035   ----------------------------------------
 BYTE   PATT
  POIN2 Label_016947DE
//  #05 //036   ----------------------------------------
 BYTE   PATT
  POIN2 Label_01694640
//  #05 //037   ----------------------------------------
 BYTE   EOT
 BYTE   En3
 BYTE   W01
 BYTE   N68  Dn3  v100
 BYTE   W01
 BYTE   VOL   8*PokemonMysteryDungeonExplorersofSkyTimeGear_mvl/mxv
 BYTE   W02
 BYTE   VOL   9*PokemonMysteryDungeonExplorersofSkyTimeGear_mvl/mxv
 BYTE   W01
 BYTE   VOL   10*PokemonMysteryDungeonExplorersofSkyTimeGear_mvl/mxv
 BYTE   W02
 BYTE   VOL   10*PokemonMysteryDungeonExplorersofSkyTimeGear_mvl/mxv
 BYTE   W01
 BYTE   VOL   11*PokemonMysteryDungeonExplorersofSkyTimeGear_mvl/mxv
 BYTE   W02
 BYTE   VOL   11*PokemonMysteryDungeonExplorersofSkyTimeGear_mvl/mxv
 BYTE   W01
 BYTE   VOL   13*PokemonMysteryDungeonExplorersofSkyTimeGear_mvl/mxv
 BYTE   W03
 BYTE   VOL   13*PokemonMysteryDungeonExplorersofSkyTimeGear_mvl/mxv
 BYTE   W02
 BYTE   VOL   14*PokemonMysteryDungeonExplorersofSkyTimeGear_mvl/mxv
 BYTE   W03
 BYTE   VOL   15*PokemonMysteryDungeonExplorersofSkyTimeGear_mvl/mxv
 BYTE   W01
 BYTE   VOL   15*PokemonMysteryDungeonExplorersofSkyTimeGear_mvl/mxv
 BYTE   W02
 BYTE   VOL   16*PokemonMysteryDungeonExplorersofSkyTimeGear_mvl/mxv
 BYTE   W01
 BYTE   VOL   17*PokemonMysteryDungeonExplorersofSkyTimeGear_mvl/mxv
 BYTE   W02
 BYTE   VOL   18*PokemonMysteryDungeonExplorersofSkyTimeGear_mvl/mxv
 BYTE   W03
 BYTE   VOL   19*PokemonMysteryDungeonExplorersofSkyTimeGear_mvl/mxv
 BYTE   W01
 BYTE   VOL   19*PokemonMysteryDungeonExplorersofSkyTimeGear_mvl/mxv
 BYTE   W02
 BYTE   VOL   20*PokemonMysteryDungeonExplorersofSkyTimeGear_mvl/mxv
 BYTE   W01
 BYTE   VOL   21*PokemonMysteryDungeonExplorersofSkyTimeGear_mvl/mxv
 BYTE   W02
 BYTE   VOL   22*PokemonMysteryDungeonExplorersofSkyTimeGear_mvl/mxv
 BYTE   W01
 BYTE   VOL   22*PokemonMysteryDungeonExplorersofSkyTimeGear_mvl/mxv
 BYTE   W02
 BYTE   VOL   22*PokemonMysteryDungeonExplorersofSkyTimeGear_mvl/mxv
 BYTE   W03
 BYTE   VOL   25*PokemonMysteryDungeonExplorersofSkyTimeGear_mvl/mxv
 BYTE   W01
 BYTE   VOL   26*PokemonMysteryDungeonExplorersofSkyTimeGear_mvl/mxv
 BYTE   W02
 BYTE   VOL   27*PokemonMysteryDungeonExplorersofSkyTimeGear_mvl/mxv
 BYTE   W01
 BYTE   VOL   27*PokemonMysteryDungeonExplorersofSkyTimeGear_mvl/mxv
 BYTE   W02
 BYTE   VOL   28*PokemonMysteryDungeonExplorersofSkyTimeGear_mvl/mxv
 BYTE   W01
 BYTE   VOL   28*PokemonMysteryDungeonExplorersofSkyTimeGear_mvl/mxv
 BYTE   W02
//  #05 //038   ----------------------------------------
 BYTE   PATT
  POIN2 Label_0169487D
//  #05 //039   ----------------------------------------
 BYTE   PATT
  POIN2 Label_016947DE
//  #05 //040   ----------------------------------------
 BYTE   PATT
  POIN2 Label_01694640
//  #05 //041   ----------------------------------------
 BYTE   EOT
 BYTE   En3
 BYTE   W01
 BYTE   N68  Dn3  v100
 BYTE   W01
 BYTE   VOL   8*PokemonMysteryDungeonExplorersofSkyTimeGear_mvl/mxv
 BYTE   W02
 BYTE   VOL   9*PokemonMysteryDungeonExplorersofSkyTimeGear_mvl/mxv
 BYTE   W01
 BYTE   VOL   10*PokemonMysteryDungeonExplorersofSkyTimeGear_mvl/mxv
 BYTE   W02
 BYTE   VOL   10*PokemonMysteryDungeonExplorersofSkyTimeGear_mvl/mxv
 BYTE   W01
 BYTE   VOL   11*PokemonMysteryDungeonExplorersofSkyTimeGear_mvl/mxv
 BYTE   W02
 BYTE   VOL   11*PokemonMysteryDungeonExplorersofSkyTimeGear_mvl/mxv
 BYTE   W01
 BYTE   VOL   13*PokemonMysteryDungeonExplorersofSkyTimeGear_mvl/mxv
 BYTE   W03
 BYTE   VOL   13*PokemonMysteryDungeonExplorersofSkyTimeGear_mvl/mxv
 BYTE   W02
 BYTE   VOL   14*PokemonMysteryDungeonExplorersofSkyTimeGear_mvl/mxv
 BYTE   W03
 BYTE   VOL   15*PokemonMysteryDungeonExplorersofSkyTimeGear_mvl/mxv
 BYTE   W01
 BYTE   VOL   15*PokemonMysteryDungeonExplorersofSkyTimeGear_mvl/mxv
 BYTE   W02
 BYTE   VOL   16*PokemonMysteryDungeonExplorersofSkyTimeGear_mvl/mxv
 BYTE   W01
 BYTE   VOL   17*PokemonMysteryDungeonExplorersofSkyTimeGear_mvl/mxv
 BYTE   W02
 BYTE   VOL   18*PokemonMysteryDungeonExplorersofSkyTimeGear_mvl/mxv
 BYTE   W03
 BYTE   VOL   19*PokemonMysteryDungeonExplorersofSkyTimeGear_mvl/mxv
 BYTE   W01
 BYTE   VOL   19*PokemonMysteryDungeonExplorersofSkyTimeGear_mvl/mxv
 BYTE   W02
 BYTE   VOL   20*PokemonMysteryDungeonExplorersofSkyTimeGear_mvl/mxv
 BYTE   W01
 BYTE   VOL   21*PokemonMysteryDungeonExplorersofSkyTimeGear_mvl/mxv
 BYTE   W02
 BYTE   VOL   22*PokemonMysteryDungeonExplorersofSkyTimeGear_mvl/mxv
 BYTE   W01
 BYTE   VOL   22*PokemonMysteryDungeonExplorersofSkyTimeGear_mvl/mxv
 BYTE   W02
 BYTE   VOL   22*PokemonMysteryDungeonExplorersofSkyTimeGear_mvl/mxv
 BYTE   W03
 BYTE   VOL   25*PokemonMysteryDungeonExplorersofSkyTimeGear_mvl/mxv
 BYTE   W01
 BYTE   VOL   26*PokemonMysteryDungeonExplorersofSkyTimeGear_mvl/mxv
 BYTE   W02
 BYTE   VOL   27*PokemonMysteryDungeonExplorersofSkyTimeGear_mvl/mxv
 BYTE   W01
 BYTE   VOL   27*PokemonMysteryDungeonExplorersofSkyTimeGear_mvl/mxv
 BYTE   W02
 BYTE   VOL   28*PokemonMysteryDungeonExplorersofSkyTimeGear_mvl/mxv
 BYTE   W01
 BYTE   VOL   28*PokemonMysteryDungeonExplorersofSkyTimeGear_mvl/mxv
 BYTE   W02
//  #05 //042   ----------------------------------------
 BYTE   PATT
  POIN2 Label_0169487D
//  #05 //043   ----------------------------------------
 BYTE   PATT
  POIN2 Label_016947DE
//  #05 //044   ----------------------------------------
 BYTE   PATT
  POIN2 Label_01694640
//  #05 //045   ----------------------------------------
 BYTE   EOT
 BYTE   En3
 BYTE   W01
 BYTE   N68  Dn3  v100
 BYTE   W01
 BYTE   VOL   8*PokemonMysteryDungeonExplorersofSkyTimeGear_mvl/mxv
 BYTE   W02
 BYTE   VOL   9*PokemonMysteryDungeonExplorersofSkyTimeGear_mvl/mxv
 BYTE   W01
 BYTE   VOL   10*PokemonMysteryDungeonExplorersofSkyTimeGear_mvl/mxv
 BYTE   W02
 BYTE   VOL   10*PokemonMysteryDungeonExplorersofSkyTimeGear_mvl/mxv
 BYTE   W01
 BYTE   VOL   11*PokemonMysteryDungeonExplorersofSkyTimeGear_mvl/mxv
 BYTE   W02
 BYTE   VOL   11*PokemonMysteryDungeonExplorersofSkyTimeGear_mvl/mxv
 BYTE   W01
 BYTE   VOL   13*PokemonMysteryDungeonExplorersofSkyTimeGear_mvl/mxv
 BYTE   W03
 BYTE   VOL   13*PokemonMysteryDungeonExplorersofSkyTimeGear_mvl/mxv
 BYTE   W02
 BYTE   VOL   14*PokemonMysteryDungeonExplorersofSkyTimeGear_mvl/mxv
 BYTE   W03
 BYTE   VOL   15*PokemonMysteryDungeonExplorersofSkyTimeGear_mvl/mxv
 BYTE   W01
 BYTE   VOL   15*PokemonMysteryDungeonExplorersofSkyTimeGear_mvl/mxv
 BYTE   W02
 BYTE   VOL   16*PokemonMysteryDungeonExplorersofSkyTimeGear_mvl/mxv
 BYTE   W01
 BYTE   VOL   17*PokemonMysteryDungeonExplorersofSkyTimeGear_mvl/mxv
 BYTE   W02
 BYTE   VOL   18*PokemonMysteryDungeonExplorersofSkyTimeGear_mvl/mxv
 BYTE   W03
 BYTE   VOL   19*PokemonMysteryDungeonExplorersofSkyTimeGear_mvl/mxv
 BYTE   W01
 BYTE   VOL   19*PokemonMysteryDungeonExplorersofSkyTimeGear_mvl/mxv
 BYTE   W02
 BYTE   VOL   20*PokemonMysteryDungeonExplorersofSkyTimeGear_mvl/mxv
 BYTE   W01
 BYTE   VOL   21*PokemonMysteryDungeonExplorersofSkyTimeGear_mvl/mxv
 BYTE   W02
 BYTE   VOL   22*PokemonMysteryDungeonExplorersofSkyTimeGear_mvl/mxv
 BYTE   W01
 BYTE   VOL   22*PokemonMysteryDungeonExplorersofSkyTimeGear_mvl/mxv
 BYTE   W02
 BYTE   VOL   22*PokemonMysteryDungeonExplorersofSkyTimeGear_mvl/mxv
 BYTE   W03
 BYTE   VOL   25*PokemonMysteryDungeonExplorersofSkyTimeGear_mvl/mxv
 BYTE   W01
 BYTE   VOL   26*PokemonMysteryDungeonExplorersofSkyTimeGear_mvl/mxv
 BYTE   W02
 BYTE   VOL   27*PokemonMysteryDungeonExplorersofSkyTimeGear_mvl/mxv
 BYTE   W01
 BYTE   VOL   27*PokemonMysteryDungeonExplorersofSkyTimeGear_mvl/mxv
 BYTE   W02
 BYTE   VOL   28*PokemonMysteryDungeonExplorersofSkyTimeGear_mvl/mxv
 BYTE   W01
 BYTE   VOL   28*PokemonMysteryDungeonExplorersofSkyTimeGear_mvl/mxv
 BYTE   W02
 BYTE   VOL   29*PokemonMysteryDungeonExplorersofSkyTimeGear_mvl/mxv
 BYTE   W01
 BYTE   VOL   28*PokemonMysteryDungeonExplorersofSkyTimeGear_mvl/mxv
 BYTE   W03
 BYTE   VOL   29*PokemonMysteryDungeonExplorersofSkyTimeGear_mvl/mxv
 BYTE   W02
 BYTE   VOL   30*PokemonMysteryDungeonExplorersofSkyTimeGear_mvl/mxv
 BYTE   W01
 BYTE   VOL   30*PokemonMysteryDungeonExplorersofSkyTimeGear_mvl/mxv
 BYTE   W02
 BYTE   VOL   31*PokemonMysteryDungeonExplorersofSkyTimeGear_mvl/mxv
 BYTE   W01
 BYTE   VOL   32*PokemonMysteryDungeonExplorersofSkyTimeGear_mvl/mxv
 BYTE   W11
 BYTE   VOL   31*PokemonMysteryDungeonExplorersofSkyTimeGear_mvl/mxv
 BYTE   W03
 BYTE   VOL   30*PokemonMysteryDungeonExplorersofSkyTimeGear_mvl/mxv
 BYTE   N68  Fs3
 BYTE   W09
 BYTE   VOL   30*PokemonMysteryDungeonExplorersofSkyTimeGear_mvl/mxv
 BYTE   W03
 BYTE   VOL   29*PokemonMysteryDungeonExplorersofSkyTimeGear_mvl/mxv
 BYTE   W01
 BYTE   VOL   29*PokemonMysteryDungeonExplorersofSkyTimeGear_mvl/mxv
 BYTE   W02
 BYTE   VOL   28*PokemonMysteryDungeonExplorersofSkyTimeGear_mvl/mxv
 BYTE   W03
 BYTE   VOL   28*PokemonMysteryDungeonExplorersofSkyTimeGear_mvl/mxv
 BYTE   W01
 BYTE   VOL   27*PokemonMysteryDungeonExplorersofSkyTimeGear_mvl/mxv
 BYTE   W03
 BYTE   VOL   27*PokemonMysteryDungeonExplorersofSkyTimeGear_mvl/mxv
 BYTE   W08
//  #05 //046   ----------------------------------------
 BYTE   VOL   27*PokemonMysteryDungeonExplorersofSkyTimeGear_mvl/mxv
 BYTE   W01
 BYTE   VOL   26*PokemonMysteryDungeonExplorersofSkyTimeGear_mvl/mxv
 BYTE   W03
 BYTE   VOL   25*PokemonMysteryDungeonExplorersofSkyTimeGear_mvl/mxv
 BYTE   W03
 BYTE   VOL   24*PokemonMysteryDungeonExplorersofSkyTimeGear_mvl/mxv
 BYTE   W02
 BYTE   VOL   23*PokemonMysteryDungeonExplorersofSkyTimeGear_mvl/mxv
 BYTE   W01
 BYTE   VOL   23*PokemonMysteryDungeonExplorersofSkyTimeGear_mvl/mxv
 BYTE   W03
 BYTE   VOL   22*PokemonMysteryDungeonExplorersofSkyTimeGear_mvl/mxv
 BYTE   W02
 BYTE   VOL   22*PokemonMysteryDungeonExplorersofSkyTimeGear_mvl/mxv
 BYTE   W01
 BYTE   VOL   20*PokemonMysteryDungeonExplorersofSkyTimeGear_mvl/mxv
 BYTE   W03
 BYTE   VOL   19*PokemonMysteryDungeonExplorersofSkyTimeGear_mvl/mxv
 BYTE   W02
 BYTE   VOL   18*PokemonMysteryDungeonExplorersofSkyTimeGear_mvl/mxv
 BYTE   W01
 BYTE   VOL   17*PokemonMysteryDungeonExplorersofSkyTimeGear_mvl/mxv
 BYTE   W03
 BYTE   VOL   14*PokemonMysteryDungeonExplorersofSkyTimeGear_mvl/mxv
 BYTE   W03
 BYTE   VOL   13*PokemonMysteryDungeonExplorersofSkyTimeGear_mvl/mxv
 BYTE   W02
 BYTE   VOL   12*PokemonMysteryDungeonExplorersofSkyTimeGear_mvl/mxv
 BYTE   W01
 BYTE   VOL   11*PokemonMysteryDungeonExplorersofSkyTimeGear_mvl/mxv
 BYTE   W02
 BYTE   VOL   10*PokemonMysteryDungeonExplorersofSkyTimeGear_mvl/mxv
 BYTE   W01
 BYTE   VOL   10*PokemonMysteryDungeonExplorersofSkyTimeGear_mvl/mxv
 BYTE   W07
 BYTE   VOL   0*PokemonMysteryDungeonExplorersofSkyTimeGear_mvl/mxv
 BYTE   W01
 BYTE   TIE  Bn2
 BYTE   W02
 BYTE   VOL   0*PokemonMysteryDungeonExplorersofSkyTimeGear_mvl/mxv
 BYTE   W01
 BYTE   VOL   0*PokemonMysteryDungeonExplorersofSkyTimeGear_mvl/mxv
 BYTE   W02
 BYTE   VOL   0*PokemonMysteryDungeonExplorersofSkyTimeGear_mvl/mxv
 BYTE   W01
 BYTE   VOL   0*PokemonMysteryDungeonExplorersofSkyTimeGear_mvl/mxv
 BYTE   W02
 BYTE   VOL   0*PokemonMysteryDungeonExplorersofSkyTimeGear_mvl/mxv
 BYTE   W01
 BYTE   VOL   0*PokemonMysteryDungeonExplorersofSkyTimeGear_mvl/mxv
 BYTE   W02
 BYTE   VOL   0*PokemonMysteryDungeonExplorersofSkyTimeGear_mvl/mxv
 BYTE   W01
 BYTE   VOL   1*PokemonMysteryDungeonExplorersofSkyTimeGear_mvl/mxv
 BYTE   W02
 BYTE   VOL   1*PokemonMysteryDungeonExplorersofSkyTimeGear_mvl/mxv
 BYTE   W01
 BYTE   VOL   1*PokemonMysteryDungeonExplorersofSkyTimeGear_mvl/mxv
 BYTE   W02
 BYTE   VOL   1*PokemonMysteryDungeonExplorersofSkyTimeGear_mvl/mxv
 BYTE   W01
 BYTE   VOL   1*PokemonMysteryDungeonExplorersofSkyTimeGear_mvl/mxv
 BYTE   W02
 BYTE   VOL   1*PokemonMysteryDungeonExplorersofSkyTimeGear_mvl/mxv
 BYTE   W01
 BYTE   VOL   1*PokemonMysteryDungeonExplorersofSkyTimeGear_mvl/mxv
 BYTE   W02
 BYTE   VOL   1*PokemonMysteryDungeonExplorersofSkyTimeGear_mvl/mxv
 BYTE   W01
 BYTE   VOL   1*PokemonMysteryDungeonExplorersofSkyTimeGear_mvl/mxv
 BYTE   W02
 BYTE   VOL   2*PokemonMysteryDungeonExplorersofSkyTimeGear_mvl/mxv
 BYTE   W01
 BYTE   VOL   2*PokemonMysteryDungeonExplorersofSkyTimeGear_mvl/mxv
 BYTE   W02
 BYTE   VOL   3*PokemonMysteryDungeonExplorersofSkyTimeGear_mvl/mxv
 BYTE   W01
 BYTE   VOL   3*PokemonMysteryDungeonExplorersofSkyTimeGear_mvl/mxv
 BYTE   W02
 BYTE   VOL   3*PokemonMysteryDungeonExplorersofSkyTimeGear_mvl/mxv
 BYTE   W01
 BYTE   VOL   3*PokemonMysteryDungeonExplorersofSkyTimeGear_mvl/mxv
 BYTE   W02
 BYTE   VOL   3*PokemonMysteryDungeonExplorersofSkyTimeGear_mvl/mxv
 BYTE   W01
 BYTE   VOL   4*PokemonMysteryDungeonExplorersofSkyTimeGear_mvl/mxv
 BYTE   W02
 BYTE   VOL   4*PokemonMysteryDungeonExplorersofSkyTimeGear_mvl/mxv
 BYTE   W01
 BYTE   VOL   4*PokemonMysteryDungeonExplorersofSkyTimeGear_mvl/mxv
 BYTE   W02
 BYTE   VOL   4*PokemonMysteryDungeonExplorersofSkyTimeGear_mvl/mxv
 BYTE   W01
 BYTE   VOL   5*PokemonMysteryDungeonExplorersofSkyTimeGear_mvl/mxv
 BYTE   W02
 BYTE   VOL   5*PokemonMysteryDungeonExplorersofSkyTimeGear_mvl/mxv
 BYTE   W01
 BYTE   VOL   5*PokemonMysteryDungeonExplorersofSkyTimeGear_mvl/mxv
 BYTE   W02
 BYTE   VOL   5*PokemonMysteryDungeonExplorersofSkyTimeGear_mvl/mxv
 BYTE   W01
 BYTE   VOL   6*PokemonMysteryDungeonExplorersofSkyTimeGear_mvl/mxv
 BYTE   W02
 BYTE   VOL   6*PokemonMysteryDungeonExplorersofSkyTimeGear_mvl/mxv
 BYTE   W01
 BYTE   VOL   6*PokemonMysteryDungeonExplorersofSkyTimeGear_mvl/mxv
 BYTE   W02
 BYTE   VOL   6*PokemonMysteryDungeonExplorersofSkyTimeGear_mvl/mxv
 BYTE   W01
//  #05 //047   ----------------------------------------
 BYTE   VOL   6*PokemonMysteryDungeonExplorersofSkyTimeGear_mvl/mxv
 BYTE   W02
 BYTE   VOL   7*PokemonMysteryDungeonExplorersofSkyTimeGear_mvl/mxv
 BYTE   W01
 BYTE   VOL   8*PokemonMysteryDungeonExplorersofSkyTimeGear_mvl/mxv
 BYTE   W02
 BYTE   VOL   8*PokemonMysteryDungeonExplorersofSkyTimeGear_mvl/mxv
 BYTE   W01
 BYTE   VOL   8*PokemonMysteryDungeonExplorersofSkyTimeGear_mvl/mxv
 BYTE   W02
 BYTE   VOL   8*PokemonMysteryDungeonExplorersofSkyTimeGear_mvl/mxv
 BYTE   W01
 BYTE   VOL   9*PokemonMysteryDungeonExplorersofSkyTimeGear_mvl/mxv
 BYTE   W02
 BYTE   VOL   10*PokemonMysteryDungeonExplorersofSkyTimeGear_mvl/mxv
 BYTE   W01
 BYTE   VOL   10*PokemonMysteryDungeonExplorersofSkyTimeGear_mvl/mxv
 BYTE   W02
 BYTE   VOL   10*PokemonMysteryDungeonExplorersofSkyTimeGear_mvl/mxv
 BYTE   W01
 BYTE   VOL   10*PokemonMysteryDungeonExplorersofSkyTimeGear_mvl/mxv
 BYTE   W02
 BYTE   VOL   10*PokemonMysteryDungeonExplorersofSkyTimeGear_mvl/mxv
 BYTE   W01
 BYTE   VOL   11*PokemonMysteryDungeonExplorersofSkyTimeGear_mvl/mxv
 BYTE   W02
 BYTE   VOL   11*PokemonMysteryDungeonExplorersofSkyTimeGear_mvl/mxv
 BYTE   W01
 BYTE   VOL   11*PokemonMysteryDungeonExplorersofSkyTimeGear_mvl/mxv
 BYTE   W02
 BYTE   VOL   11*PokemonMysteryDungeonExplorersofSkyTimeGear_mvl/mxv
 BYTE   W01
 BYTE   VOL   12*PokemonMysteryDungeonExplorersofSkyTimeGear_mvl/mxv
 BYTE   W02
 BYTE   VOL   13*PokemonMysteryDungeonExplorersofSkyTimeGear_mvl/mxv
 BYTE   W01
 BYTE   VOL   13*PokemonMysteryDungeonExplorersofSkyTimeGear_mvl/mxv
 BYTE   W02
 BYTE   VOL   13*PokemonMysteryDungeonExplorersofSkyTimeGear_mvl/mxv
 BYTE   W01
 BYTE   VOL   14*PokemonMysteryDungeonExplorersofSkyTimeGear_mvl/mxv
 BYTE   W02
 BYTE   VOL   14*PokemonMysteryDungeonExplorersofSkyTimeGear_mvl/mxv
 BYTE   W01
 BYTE   VOL   15*PokemonMysteryDungeonExplorersofSkyTimeGear_mvl/mxv
 BYTE   W02
 BYTE   VOL   15*PokemonMysteryDungeonExplorersofSkyTimeGear_mvl/mxv
 BYTE   W01
 BYTE   VOL   15*PokemonMysteryDungeonExplorersofSkyTimeGear_mvl/mxv
 BYTE   W02
 BYTE   VOL   16*PokemonMysteryDungeonExplorersofSkyTimeGear_mvl/mxv
 BYTE   W01
 BYTE   VOL   17*PokemonMysteryDungeonExplorersofSkyTimeGear_mvl/mxv
 BYTE   W02
 BYTE   VOL   17*PokemonMysteryDungeonExplorersofSkyTimeGear_mvl/mxv
 BYTE   W01
//  #05 //048   ----------------------------------------
 BYTE   PATT
  POIN2 Label_016943FD
//  #05 //049   ----------------------------------------
 BYTE   PATT
  POIN2 Label_0169445F
//  #05 //050   ----------------------------------------
 BYTE   EOT
 BYTE   Bn2
 BYTE   VOL   0*PokemonMysteryDungeonExplorersofSkyTimeGear_mvl/mxv
 BYTE   W01
//  #05 //051   ----------------------------------------
 BYTE   PATT
  POIN2 Label_016944AB
//  #05 //052   ----------------------------------------
 BYTE   PATT
  POIN2 Label_016943FD
//  #05 //053   ----------------------------------------
 BYTE   PATT
  POIN2 Label_0169445F
//  #05 //054   ----------------------------------------
 BYTE   EOT
 BYTE   An2
 BYTE   W01
 BYTE   GoTo
  POIN2 Label_0169453E
 BYTE   FINE

//**************** Track 6 (Midi-Chn.5) ****************//

PokemonMysteryDungeonExplorersofSkyTimeGear_006:
//  #06 //000   ----------------------------------------
 BYTE   KEYSH   PokemonMysteryDungeonExplorersofSkyTimeGear_key+0
 BYTE   VOICE   35
 BYTE   MODT 0
 BYTE   LFOS 44
 BYTE   VOL   68*PokemonMysteryDungeonExplorersofSkyTimeGear_mvl/mxv
 BYTE   PAN   c_v+0
 BYTE   W56
 BYTE   W03
 BYTE   VOL   0*PokemonMysteryDungeonExplorersofSkyTimeGear_mvl/mxv
 BYTE   W01
 BYTE   TIE  Bn4  v080
 BYTE   W05
 BYTE   VOL   0*PokemonMysteryDungeonExplorersofSkyTimeGear_mvl/mxv
 BYTE   W03
 BYTE   VOL   1*PokemonMysteryDungeonExplorersofSkyTimeGear_mvl/mxv
 BYTE   W04
 BYTE   VOL   1*PokemonMysteryDungeonExplorersofSkyTimeGear_mvl/mxv
 BYTE   W05
 BYTE   VOL   1*PokemonMysteryDungeonExplorersofSkyTimeGear_mvl/mxv
 BYTE   W03
 BYTE   VOL   1*PokemonMysteryDungeonExplorersofSkyTimeGear_mvl/mxv
 BYTE   W04
 BYTE   VOL   3*PokemonMysteryDungeonExplorersofSkyTimeGear_mvl/mxv
 BYTE   W03
 BYTE   VOL   3*PokemonMysteryDungeonExplorersofSkyTimeGear_mvl/mxv
 BYTE   W05
 BYTE   VOL   4*PokemonMysteryDungeonExplorersofSkyTimeGear_mvl/mxv
 BYTE   W03
 BYTE   VOL   4*PokemonMysteryDungeonExplorersofSkyTimeGear_mvl/mxv
 BYTE   W01
//  #06 //001   ----------------------------------------
Label_01694AC4:
 BYTE   W03
 BYTE   VOL   6*PokemonMysteryDungeonExplorersofSkyTimeGear_mvl/mxv
 BYTE   W03
 BYTE   VOL   6*PokemonMysteryDungeonExplorersofSkyTimeGear_mvl/mxv
 BYTE   W05
 BYTE   VOL   7*PokemonMysteryDungeonExplorersofSkyTimeGear_mvl/mxv
 BYTE   W07
 BYTE   VOL   8*PokemonMysteryDungeonExplorersofSkyTimeGear_mvl/mxv
 BYTE   W03
 BYTE   VOL   9*PokemonMysteryDungeonExplorersofSkyTimeGear_mvl/mxv
 BYTE   W05
 BYTE   VOL   10*PokemonMysteryDungeonExplorersofSkyTimeGear_mvl/mxv
 BYTE   W03
 BYTE   VOL   11*PokemonMysteryDungeonExplorersofSkyTimeGear_mvl/mxv
 BYTE   W04
 BYTE   VOL   13*PokemonMysteryDungeonExplorersofSkyTimeGear_mvl/mxv
 BYTE   W03
 BYTE   VOL   13*PokemonMysteryDungeonExplorersofSkyTimeGear_mvl/mxv
 BYTE   W05
 BYTE   VOL   15*PokemonMysteryDungeonExplorersofSkyTimeGear_mvl/mxv
 BYTE   W03
 BYTE   VOL   16*PokemonMysteryDungeonExplorersofSkyTimeGear_mvl/mxv
 BYTE   W04
 BYTE   VOL   18*PokemonMysteryDungeonExplorersofSkyTimeGear_mvl/mxv
 BYTE   W03
 BYTE   VOL   19*PokemonMysteryDungeonExplorersofSkyTimeGear_mvl/mxv
 BYTE   W05
 BYTE   VOL   20*PokemonMysteryDungeonExplorersofSkyTimeGear_mvl/mxv
 BYTE   W03
 BYTE   VOL   22*PokemonMysteryDungeonExplorersofSkyTimeGear_mvl/mxv
 BYTE   W04
 BYTE   VOL   23*PokemonMysteryDungeonExplorersofSkyTimeGear_mvl/mxv
 BYTE   W03
 BYTE   VOL   24*PokemonMysteryDungeonExplorersofSkyTimeGear_mvl/mxv
 BYTE   W05
 BYTE   VOL   26*PokemonMysteryDungeonExplorersofSkyTimeGear_mvl/mxv
 BYTE   W03
 BYTE   VOL   27*PokemonMysteryDungeonExplorersofSkyTimeGear_mvl/mxv
 BYTE   W04
 BYTE   VOL   29*PokemonMysteryDungeonExplorersofSkyTimeGear_mvl/mxv
 BYTE   W03
 BYTE   VOL   30*PokemonMysteryDungeonExplorersofSkyTimeGear_mvl/mxv
 BYTE   W05
 BYTE   VOL   33*PokemonMysteryDungeonExplorersofSkyTimeGear_mvl/mxv
 BYTE   W03
 BYTE   VOL   34*PokemonMysteryDungeonExplorersofSkyTimeGear_mvl/mxv
 BYTE   W04
 BYTE   VOL   36*PokemonMysteryDungeonExplorersofSkyTimeGear_mvl/mxv
 BYTE   W03
 BYTE   PEND 
//  #06 //002   ----------------------------------------
Label_01694AF7:
 BYTE   VOL   37*PokemonMysteryDungeonExplorersofSkyTimeGear_mvl/mxv
 BYTE   W05
 BYTE   VOL   39*PokemonMysteryDungeonExplorersofSkyTimeGear_mvl/mxv
 BYTE   W03
 BYTE   VOL   40*PokemonMysteryDungeonExplorersofSkyTimeGear_mvl/mxv
 BYTE   W04
 BYTE   VOL   40*PokemonMysteryDungeonExplorersofSkyTimeGear_mvl/mxv
 BYTE   W03
 BYTE   VOL   41*PokemonMysteryDungeonExplorersofSkyTimeGear_mvl/mxv
 BYTE   W05
 BYTE   VOL   41*PokemonMysteryDungeonExplorersofSkyTimeGear_mvl/mxv
 BYTE   W19
 BYTE   VOL   40*PokemonMysteryDungeonExplorersofSkyTimeGear_mvl/mxv
 BYTE   W08
 BYTE   VOL   37*PokemonMysteryDungeonExplorersofSkyTimeGear_mvl/mxv
 BYTE   W07
 BYTE   VOL   37*PokemonMysteryDungeonExplorersofSkyTimeGear_mvl/mxv
 BYTE   W03
 BYTE   VOL   34*PokemonMysteryDungeonExplorersofSkyTimeGear_mvl/mxv
 BYTE   W05
 BYTE   VOL   33*PokemonMysteryDungeonExplorersofSkyTimeGear_mvl/mxv
 BYTE   W03
 BYTE   VOL   32*PokemonMysteryDungeonExplorersofSkyTimeGear_mvl/mxv
 BYTE   W04
 BYTE   VOL   29*PokemonMysteryDungeonExplorersofSkyTimeGear_mvl/mxv
 BYTE   W03
 BYTE   VOL   27*PokemonMysteryDungeonExplorersofSkyTimeGear_mvl/mxv
 BYTE   W05
 BYTE   VOL   26*PokemonMysteryDungeonExplorersofSkyTimeGear_mvl/mxv
 BYTE   W03
 BYTE   VOL   23*PokemonMysteryDungeonExplorersofSkyTimeGear_mvl/mxv
 BYTE   W04
 BYTE   VOL   21*PokemonMysteryDungeonExplorersofSkyTimeGear_mvl/mxv
 BYTE   W03
 BYTE   VOL   19*PokemonMysteryDungeonExplorersofSkyTimeGear_mvl/mxv
 BYTE   W05
 BYTE   VOL   18*PokemonMysteryDungeonExplorersofSkyTimeGear_mvl/mxv
 BYTE   W03
 BYTE   VOL   15*PokemonMysteryDungeonExplorersofSkyTimeGear_mvl/mxv
 BYTE   W01
 BYTE   PEND 
//  #06 //003   ----------------------------------------
Label_01694B21:
 BYTE   W03
 BYTE   VOL   14*PokemonMysteryDungeonExplorersofSkyTimeGear_mvl/mxv
 BYTE   W03
 BYTE   VOL   13*PokemonMysteryDungeonExplorersofSkyTimeGear_mvl/mxv
 BYTE   W05
 BYTE   VOL   11*PokemonMysteryDungeonExplorersofSkyTimeGear_mvl/mxv
 BYTE   W03
 BYTE   VOL   10*PokemonMysteryDungeonExplorersofSkyTimeGear_mvl/mxv
 BYTE   W04
 BYTE   VOL   7*PokemonMysteryDungeonExplorersofSkyTimeGear_mvl/mxv
 BYTE   W03
 BYTE   VOL   6*PokemonMysteryDungeonExplorersofSkyTimeGear_mvl/mxv
 BYTE   W05
 BYTE   VOL   5*PokemonMysteryDungeonExplorersofSkyTimeGear_mvl/mxv
 BYTE   W03
 BYTE   VOL   4*PokemonMysteryDungeonExplorersofSkyTimeGear_mvl/mxv
 BYTE   W04
 BYTE   VOL   3*PokemonMysteryDungeonExplorersofSkyTimeGear_mvl/mxv
 BYTE   W03
 BYTE   VOL   2*PokemonMysteryDungeonExplorersofSkyTimeGear_mvl/mxv
 BYTE   W05
 BYTE   VOL   1*PokemonMysteryDungeonExplorersofSkyTimeGear_mvl/mxv
 BYTE   W03
 BYTE   VOL   1*PokemonMysteryDungeonExplorersofSkyTimeGear_mvl/mxv
 BYTE   W04
 BYTE   VOL   0*PokemonMysteryDungeonExplorersofSkyTimeGear_mvl/mxv
 BYTE   W03
 BYTE   VOL   0*PokemonMysteryDungeonExplorersofSkyTimeGear_mvl/mxv
 BYTE   W05
 BYTE   VOL   0*PokemonMysteryDungeonExplorersofSkyTimeGear_mvl/mxv
 BYTE   W03
 BYTE   PEND 
 BYTE   EOT
 BYTE   Bn4
 BYTE   VOL   0*PokemonMysteryDungeonExplorersofSkyTimeGear_mvl/mxv
 BYTE   W01
 BYTE   TIE  An4  v080
 BYTE   W05
 BYTE   VOL   0*PokemonMysteryDungeonExplorersofSkyTimeGear_mvl/mxv
 BYTE   W03
 BYTE   VOL   1*PokemonMysteryDungeonExplorersofSkyTimeGear_mvl/mxv
 BYTE   W04
 BYTE   VOL   1*PokemonMysteryDungeonExplorersofSkyTimeGear_mvl/mxv
 BYTE   W05
 BYTE   VOL   1*PokemonMysteryDungeonExplorersofSkyTimeGear_mvl/mxv
 BYTE   W03
 BYTE   VOL   1*PokemonMysteryDungeonExplorersofSkyTimeGear_mvl/mxv
 BYTE   W04
 BYTE   VOL   3*PokemonMysteryDungeonExplorersofSkyTimeGear_mvl/mxv
 BYTE   W03
 BYTE   VOL   3*PokemonMysteryDungeonExplorersofSkyTimeGear_mvl/mxv
 BYTE   W05
 BYTE   VOL   4*PokemonMysteryDungeonExplorersofSkyTimeGear_mvl/mxv
 BYTE   W03
 BYTE   VOL   4*PokemonMysteryDungeonExplorersofSkyTimeGear_mvl/mxv
 BYTE   W01
//  #06 //004   ----------------------------------------
 BYTE   PATT
  POIN2 Label_01694AC4
//  #06 //005   ----------------------------------------
 BYTE   PATT
  POIN2 Label_01694AF7
//  #06 //006   ----------------------------------------
Label_01694B68:
//  #06 //007   ----------------------------------------
 BYTE   PATT
  POIN2 Label_01694B21
//  #06 //008   ----------------------------------------
 BYTE   EOT
 BYTE   An4
 BYTE   VOL   0*PokemonMysteryDungeonExplorersofSkyTimeGear_mvl/mxv
 BYTE   W01
 BYTE   TIE  Bn4  v080
 BYTE   W05
 BYTE   VOL   0*PokemonMysteryDungeonExplorersofSkyTimeGear_mvl/mxv
 BYTE   W03
 BYTE   VOL   1*PokemonMysteryDungeonExplorersofSkyTimeGear_mvl/mxv
 BYTE   W04
 BYTE   VOL   1*PokemonMysteryDungeonExplorersofSkyTimeGear_mvl/mxv
 BYTE   W05
 BYTE   VOL   1*PokemonMysteryDungeonExplorersofSkyTimeGear_mvl/mxv
 BYTE   W03
 BYTE   VOL   1*PokemonMysteryDungeonExplorersofSkyTimeGear_mvl/mxv
 BYTE   W04
 BYTE   VOL   3*PokemonMysteryDungeonExplorersofSkyTimeGear_mvl/mxv
 BYTE   W03
 BYTE   VOL   3*PokemonMysteryDungeonExplorersofSkyTimeGear_mvl/mxv
 BYTE   W05
 BYTE   VOL   4*PokemonMysteryDungeonExplorersofSkyTimeGear_mvl/mxv
 BYTE   W03
 BYTE   VOL   4*PokemonMysteryDungeonExplorersofSkyTimeGear_mvl/mxv
 BYTE   W01
//  #06 //009   ----------------------------------------
 BYTE   PATT
  POIN2 Label_01694AC4
//  #06 //010   ----------------------------------------
 BYTE   PATT
  POIN2 Label_01694AF7
//  #06 //011   ----------------------------------------
 BYTE   PATT
  POIN2 Label_01694B21
//  #06 //012   ----------------------------------------
 BYTE   EOT
 BYTE   Bn4
 BYTE   VOL   0*PokemonMysteryDungeonExplorersofSkyTimeGear_mvl/mxv
 BYTE   W01
 BYTE   TIE  An4  v080
 BYTE   W05
 BYTE   VOL   0*PokemonMysteryDungeonExplorersofSkyTimeGear_mvl/mxv
 BYTE   W03
 BYTE   VOL   1*PokemonMysteryDungeonExplorersofSkyTimeGear_mvl/mxv
 BYTE   W04
 BYTE   VOL   1*PokemonMysteryDungeonExplorersofSkyTimeGear_mvl/mxv
 BYTE   W05
 BYTE   VOL   1*PokemonMysteryDungeonExplorersofSkyTimeGear_mvl/mxv
 BYTE   W03
 BYTE   VOL   1*PokemonMysteryDungeonExplorersofSkyTimeGear_mvl/mxv
 BYTE   W04
 BYTE   VOL   3*PokemonMysteryDungeonExplorersofSkyTimeGear_mvl/mxv
 BYTE   W03
 BYTE   VOL   3*PokemonMysteryDungeonExplorersofSkyTimeGear_mvl/mxv
 BYTE   W05
 BYTE   VOL   4*PokemonMysteryDungeonExplorersofSkyTimeGear_mvl/mxv
 BYTE   W03
 BYTE   VOL   4*PokemonMysteryDungeonExplorersofSkyTimeGear_mvl/mxv
 BYTE   W01
//  #06 //013   ----------------------------------------
 BYTE   PATT
  POIN2 Label_01694AC4
//  #06 //014   ----------------------------------------
 BYTE   PATT
  POIN2 Label_01694AF7
//  #06 //015   ----------------------------------------
 BYTE   PATT
  POIN2 Label_01694B21
//  #06 //016   ----------------------------------------
 BYTE   EOT
 BYTE   An4
 BYTE   VOICE   36
 BYTE   VOL   30*PokemonMysteryDungeonExplorersofSkyTimeGear_mvl/mxv
 BYTE   W01
 BYTE   N80  En4  v080
 BYTE   W36
 BYTE   W48
 BYTE   N68  Fs4
 BYTE   W48
//  #06 //017   ----------------------------------------
 BYTE   W24
 BYTE   An4
 BYTE   W72
//  #06 //018   ----------------------------------------
Label_01694BD5:
 BYTE   N68  Gn4  v080
 BYTE   W72
 BYTE   Bn4
 BYTE   W24
 BYTE   PEND 
//  #06 //019   ----------------------------------------
 BYTE   W48
 BYTE   An4
 BYTE   W48
//  #06 //020   ----------------------------------------
 BYTE   W24
 BYTE   Dn5
 BYTE   W72
//  #06 //021   ----------------------------------------
 BYTE   W60
 BYTE   N80  En4
 BYTE   W36
//  #06 //022   ----------------------------------------
 BYTE   W48
 BYTE   N68  Fs4
 BYTE   W48
//  #06 //023   ----------------------------------------
 BYTE   W24
 BYTE   An4
 BYTE   W72
//  #06 //024   ----------------------------------------
 BYTE   PATT
  POIN2 Label_01694BD5
//  #06 //025   ----------------------------------------
 BYTE   W48
 BYTE   N68  An4  v080
 BYTE   W48
//  #06 //026   ----------------------------------------
 BYTE   W24
 BYTE   Dn5
 BYTE   W06
 BYTE   VOL   30*PokemonMysteryDungeonExplorersofSkyTimeGear_mvl/mxv
 BYTE   W03
 BYTE   VOL   32*PokemonMysteryDungeonExplorersofSkyTimeGear_mvl/mxv
 BYTE   W03
 BYTE   VOL   34*PokemonMysteryDungeonExplorersofSkyTimeGear_mvl/mxv
 BYTE   W03
 BYTE   VOL   34*PokemonMysteryDungeonExplorersofSkyTimeGear_mvl/mxv
 BYTE   W03
 BYTE   VOL   36*PokemonMysteryDungeonExplorersofSkyTimeGear_mvl/mxv
 BYTE   W03
 BYTE   VOL   37*PokemonMysteryDungeonExplorersofSkyTimeGear_mvl/mxv
 BYTE   W03
 BYTE   VOL   39*PokemonMysteryDungeonExplorersofSkyTimeGear_mvl/mxv
 BYTE   W03
 BYTE   VOL   41*PokemonMysteryDungeonExplorersofSkyTimeGear_mvl/mxv
 BYTE   W03
 BYTE   VOL   41*PokemonMysteryDungeonExplorersofSkyTimeGear_mvl/mxv
 BYTE   W03
 BYTE   VOL   44*PokemonMysteryDungeonExplorersofSkyTimeGear_mvl/mxv
 BYTE   W03
 BYTE   VOL   45*PokemonMysteryDungeonExplorersofSkyTimeGear_mvl/mxv
 BYTE   W03
 BYTE   VOL   47*PokemonMysteryDungeonExplorersofSkyTimeGear_mvl/mxv
 BYTE   W03
 BYTE   VOL   49*PokemonMysteryDungeonExplorersofSkyTimeGear_mvl/mxv
 BYTE   W03
 BYTE   VOL   50*PokemonMysteryDungeonExplorersofSkyTimeGear_mvl/mxv
 BYTE   W03
 BYTE   VOL   51*PokemonMysteryDungeonExplorersofSkyTimeGear_mvl/mxv
 BYTE   W03
 BYTE   VOL   53*PokemonMysteryDungeonExplorersofSkyTimeGear_mvl/mxv
 BYTE   W03
 BYTE   VOL   55*PokemonMysteryDungeonExplorersofSkyTimeGear_mvl/mxv
 BYTE   W03
 BYTE   VOL   57*PokemonMysteryDungeonExplorersofSkyTimeGear_mvl/mxv
 BYTE   W03
 BYTE   VOL   57*PokemonMysteryDungeonExplorersofSkyTimeGear_mvl/mxv
 BYTE   W03
 BYTE   VOL   61*PokemonMysteryDungeonExplorersofSkyTimeGear_mvl/mxv
 BYTE   W03
 BYTE   VOL   61*PokemonMysteryDungeonExplorersofSkyTimeGear_mvl/mxv
 BYTE   W03
 BYTE   VOL   64*PokemonMysteryDungeonExplorersofSkyTimeGear_mvl/mxv
 BYTE   W02
 BYTE   VOL   66*PokemonMysteryDungeonExplorersofSkyTimeGear_mvl/mxv
 BYTE   W01
//  #06 //027   ----------------------------------------
 BYTE   VOL   66*PokemonMysteryDungeonExplorersofSkyTimeGear_mvl/mxv
 BYTE   TIE  En5
 BYTE   W03
 BYTE   VOL   68*PokemonMysteryDungeonExplorersofSkyTimeGear_mvl/mxv
 BYTE   W92
 BYTE   W01
//  #06 //028   ----------------------------------------
 BYTE   W11
 BYTE   EOT
 BYTE   W01
 BYTE   N32  Gn5
 BYTE   W36
 BYTE   N68  Fs5
 BYTE   W48
//  #06 //029   ----------------------------------------
 BYTE   W24
 BYTE   Dn5
 BYTE   W72
//  #06 //030   ----------------------------------------
 BYTE   TIE  En5
 BYTE   W96
//  #06 //031   ----------------------------------------
 BYTE   W11
 BYTE   EOT
 BYTE   W01
 BYTE   N32  Gn5
 BYTE   W36
 BYTE   N68  Fs5
 BYTE   W48
//  #06 //032   ----------------------------------------
 BYTE   W24
 BYTE   Dn5
 BYTE   W72
//  #06 //033   ----------------------------------------
 BYTE   TIE  En5
 BYTE   W96
//  #06 //034   ----------------------------------------
 BYTE   W11
 BYTE   EOT
 BYTE   W01
 BYTE   N32  Gn5
 BYTE   W36
 BYTE   N68  Fs5
 BYTE   W48
//  #06 //035   ----------------------------------------
 BYTE   W24
 BYTE   Dn5
 BYTE   W72
//  #06 //036   ----------------------------------------
 BYTE   TIE  En5
 BYTE   W96
//  #06 //037   ----------------------------------------
 BYTE   W11
 BYTE   EOT
 BYTE   W01
 BYTE   N32  Gn5
 BYTE   W36
 BYTE   N68  Fs5
 BYTE   W48
//  #06 //038   ----------------------------------------
 BYTE   W24
 BYTE   Dn5
 BYTE   W72
//  #06 //039   ----------------------------------------
 BYTE   W56
 BYTE   W03
 BYTE   VOICE   35
 BYTE   VOL   0*PokemonMysteryDungeonExplorersofSkyTimeGear_mvl/mxv
 BYTE   W01
 BYTE   TIE  Bn4
 BYTE   W05
 BYTE   VOL   0*PokemonMysteryDungeonExplorersofSkyTimeGear_mvl/mxv
 BYTE   W03
 BYTE   VOL   1*PokemonMysteryDungeonExplorersofSkyTimeGear_mvl/mxv
 BYTE   W04
 BYTE   VOL   1*PokemonMysteryDungeonExplorersofSkyTimeGear_mvl/mxv
 BYTE   W05
 BYTE   VOL   1*PokemonMysteryDungeonExplorersofSkyTimeGear_mvl/mxv
 BYTE   W03
 BYTE   VOL   1*PokemonMysteryDungeonExplorersofSkyTimeGear_mvl/mxv
 BYTE   W04
 BYTE   VOL   3*PokemonMysteryDungeonExplorersofSkyTimeGear_mvl/mxv
 BYTE   W03
 BYTE   VOL   3*PokemonMysteryDungeonExplorersofSkyTimeGear_mvl/mxv
 BYTE   W05
 BYTE   VOL   4*PokemonMysteryDungeonExplorersofSkyTimeGear_mvl/mxv
 BYTE   W03
 BYTE   VOL   4*PokemonMysteryDungeonExplorersofSkyTimeGear_mvl/mxv
 BYTE   W01
//  #06 //040   ----------------------------------------
 BYTE   PATT
  POIN2 Label_01694AC4
//  #06 //041   ----------------------------------------
 BYTE   PATT
  POIN2 Label_01694AF7
//  #06 //042   ----------------------------------------
 BYTE   PATT
  POIN2 Label_01694B21
//  #06 //043   ----------------------------------------
 BYTE   EOT
 BYTE   Bn4
 BYTE   VOL   0*PokemonMysteryDungeonExplorersofSkyTimeGear_mvl/mxv
 BYTE   W01
 BYTE   TIE  An4  v080
 BYTE   W05
 BYTE   VOL   0*PokemonMysteryDungeonExplorersofSkyTimeGear_mvl/mxv
 BYTE   W03
 BYTE   VOL   1*PokemonMysteryDungeonExplorersofSkyTimeGear_mvl/mxv
 BYTE   W04
 BYTE   VOL   1*PokemonMysteryDungeonExplorersofSkyTimeGear_mvl/mxv
 BYTE   W05
 BYTE   VOL   1*PokemonMysteryDungeonExplorersofSkyTimeGear_mvl/mxv
 BYTE   W03
 BYTE   VOL   1*PokemonMysteryDungeonExplorersofSkyTimeGear_mvl/mxv
 BYTE   W04
 BYTE   VOL   3*PokemonMysteryDungeonExplorersofSkyTimeGear_mvl/mxv
 BYTE   W03
 BYTE   VOL   3*PokemonMysteryDungeonExplorersofSkyTimeGear_mvl/mxv
 BYTE   W05
 BYTE   VOL   4*PokemonMysteryDungeonExplorersofSkyTimeGear_mvl/mxv
 BYTE   W03
 BYTE   VOL   4*PokemonMysteryDungeonExplorersofSkyTimeGear_mvl/mxv
 BYTE   W01
//  #06 //044   ----------------------------------------
 BYTE   PATT
  POIN2 Label_01694AC4
//  #06 //045   ----------------------------------------
 BYTE   PATT
  POIN2 Label_01694AF7
//  #06 //046   ----------------------------------------
 BYTE   GoTo
  POIN2 Label_01694B68
//  #06 //047   ----------------------------------------
 BYTE   W56
 BYTE   W03
 BYTE   EOT
 BYTE   An4
 BYTE   FINE

//**************** Track 7 (Midi-Chn.6) ****************//

PokemonMysteryDungeonExplorersofSkyTimeGear_007:
//  #07 //000   ----------------------------------------
 BYTE   KEYSH   PokemonMysteryDungeonExplorersofSkyTimeGear_key+0
 BYTE   VOICE   35
 BYTE   MODT 0
 BYTE   LFOS 44
 BYTE   VOL   45*PokemonMysteryDungeonExplorersofSkyTimeGear_mvl/mxv
 BYTE   PAN   c_v+0
 BYTE   W96
//  #07 //001   ----------------------------------------
 BYTE   W96
//  #07 //002   ----------------------------------------
 BYTE   W96
//  #07 //003   ----------------------------------------
 BYTE   W96
//  #07 //004   ----------------------------------------
 BYTE   W96
//  #07 //005   ----------------------------------------
 BYTE   W96
//  #07 //006   ----------------------------------------
Label_01694CDA:
 BYTE   W96
//  #07 //007   ----------------------------------------
 BYTE   W96
//  #07 //008   ----------------------------------------
 BYTE   W96
//  #07 //009   ----------------------------------------
 BYTE   W96
//  #07 //010   ----------------------------------------
 BYTE   W96
//  #07 //011   ----------------------------------------
 BYTE   W96
//  #07 //012   ----------------------------------------
 BYTE   W56
 BYTE   W03
 BYTE   VOICE   36
 BYTE   VOL   20*PokemonMysteryDungeonExplorersofSkyTimeGear_mvl/mxv
 BYTE   W01
 BYTE   PAN   c_v-20
 BYTE   N80  Cn4  v060
 BYTE   W36
//  #07 //013   ----------------------------------------
 BYTE   W48
 BYTE   N68  Dn4
 BYTE   W48
//  #07 //014   ----------------------------------------
 BYTE   W24
 BYTE   Fs4
 BYTE   W72
//  #07 //015   ----------------------------------------
 BYTE   En4  v076
 BYTE   W72
 BYTE   Gn4  v060
 BYTE   W24
//  #07 //016   ----------------------------------------
 BYTE   W48
 BYTE   Fs4
 BYTE   W48
//  #07 //017   ----------------------------------------
 BYTE   W24
 BYTE   An4
 BYTE   W72
//  #07 //018   ----------------------------------------
 BYTE   W60
 BYTE   N80  Cn4
 BYTE   W36
//  #07 //019   ----------------------------------------
 BYTE   W48
 BYTE   N68  Dn4
 BYTE   W48
//  #07 //020   ----------------------------------------
 BYTE   W24
 BYTE   Fs4
 BYTE   W72
//  #07 //021   ----------------------------------------
 BYTE   En4
 BYTE   W72
 BYTE   Gn4
 BYTE   W24
//  #07 //022   ----------------------------------------
 BYTE   W48
 BYTE   Fs4
 BYTE   W48
//  #07 //023   ----------------------------------------
 BYTE   W24
 BYTE   VOL   22*PokemonMysteryDungeonExplorersofSkyTimeGear_mvl/mxv
 BYTE   N68  An4
 BYTE   W03
 BYTE   VOL   23*PokemonMysteryDungeonExplorersofSkyTimeGear_mvl/mxv
 BYTE   W03
 BYTE   VOL   23*PokemonMysteryDungeonExplorersofSkyTimeGear_mvl/mxv
 BYTE   W03
 BYTE   VOL   23*PokemonMysteryDungeonExplorersofSkyTimeGear_mvl/mxv
 BYTE   W03
 BYTE   VOL   26*PokemonMysteryDungeonExplorersofSkyTimeGear_mvl/mxv
 BYTE   W03
 BYTE   VOL   27*PokemonMysteryDungeonExplorersofSkyTimeGear_mvl/mxv
 BYTE   W03
 BYTE   VOL   27*PokemonMysteryDungeonExplorersofSkyTimeGear_mvl/mxv
 BYTE   W03
 BYTE   VOL   27*PokemonMysteryDungeonExplorersofSkyTimeGear_mvl/mxv
 BYTE   W03
 BYTE   VOL   29*PokemonMysteryDungeonExplorersofSkyTimeGear_mvl/mxv
 BYTE   W03
 BYTE   VOL   29*PokemonMysteryDungeonExplorersofSkyTimeGear_mvl/mxv
 BYTE   W03
 BYTE   VOL   30*PokemonMysteryDungeonExplorersofSkyTimeGear_mvl/mxv
 BYTE   W03
 BYTE   VOL   31*PokemonMysteryDungeonExplorersofSkyTimeGear_mvl/mxv
 BYTE   W03
 BYTE   VOL   32*PokemonMysteryDungeonExplorersofSkyTimeGear_mvl/mxv
 BYTE   W03
 BYTE   VOL   33*PokemonMysteryDungeonExplorersofSkyTimeGear_mvl/mxv
 BYTE   W03
 BYTE   VOL   34*PokemonMysteryDungeonExplorersofSkyTimeGear_mvl/mxv
 BYTE   W03
 BYTE   VOL   34*PokemonMysteryDungeonExplorersofSkyTimeGear_mvl/mxv
 BYTE   W03
 BYTE   VOL   36*PokemonMysteryDungeonExplorersofSkyTimeGear_mvl/mxv
 BYTE   W03
 BYTE   VOL   37*PokemonMysteryDungeonExplorersofSkyTimeGear_mvl/mxv
 BYTE   W03
 BYTE   VOL   37*PokemonMysteryDungeonExplorersofSkyTimeGear_mvl/mxv
 BYTE   W03
 BYTE   VOL   38*PokemonMysteryDungeonExplorersofSkyTimeGear_mvl/mxv
 BYTE   W03
 BYTE   VOL   40*PokemonMysteryDungeonExplorersofSkyTimeGear_mvl/mxv
 BYTE   W03
 BYTE   VOL   40*PokemonMysteryDungeonExplorersofSkyTimeGear_mvl/mxv
 BYTE   W03
 BYTE   VOL   40*PokemonMysteryDungeonExplorersofSkyTimeGear_mvl/mxv
 BYTE   W03
 BYTE   VOL   42*PokemonMysteryDungeonExplorersofSkyTimeGear_mvl/mxv
 BYTE   W02
 BYTE   PAN   c_v-40
 BYTE   VOL   43*PokemonMysteryDungeonExplorersofSkyTimeGear_mvl/mxv
 BYTE   W01
//  #07 //024   ----------------------------------------
 BYTE   VOL   43*PokemonMysteryDungeonExplorersofSkyTimeGear_mvl/mxv
 BYTE   TIE  Gn4
 BYTE   W03
 BYTE   VOL   45*PokemonMysteryDungeonExplorersofSkyTimeGear_mvl/mxv
 BYTE   W92
 BYTE   W01
//  #07 //025   ----------------------------------------
 BYTE   W11
 BYTE   EOT
 BYTE   W01
 BYTE   N32  Bn4
 BYTE   W36
 BYTE   N68  An4
 BYTE   W48
//  #07 //026   ----------------------------------------
 BYTE   W24
 BYTE   Fs4
 BYTE   W72
//  #07 //027   ----------------------------------------
 BYTE   TIE  Gn4
 BYTE   W96
//  #07 //028   ----------------------------------------
 BYTE   W11
 BYTE   EOT
 BYTE   W01
 BYTE   N32  Bn4
 BYTE   W36
 BYTE   N68  An4
 BYTE   W48
//  #07 //029   ----------------------------------------
 BYTE   W24
 BYTE   Fs4
 BYTE   W72
//  #07 //030   ----------------------------------------
 BYTE   TIE  Gn4
 BYTE   W96
//  #07 //031   ----------------------------------------
 BYTE   W11
 BYTE   EOT
 BYTE   W01
 BYTE   N32  Bn4
 BYTE   W36
 BYTE   N68  An4
 BYTE   W48
//  #07 //032   ----------------------------------------
 BYTE   W24
 BYTE   Fs4
 BYTE   W72
//  #07 //033   ----------------------------------------
 BYTE   TIE  Gn4
 BYTE   W96
//  #07 //034   ----------------------------------------
 BYTE   W11
 BYTE   EOT
 BYTE   W01
 BYTE   N32  Bn4
 BYTE   W36
 BYTE   N68  An4
 BYTE   W48
//  #07 //035   ----------------------------------------
 BYTE   W24
 BYTE   Fs4
 BYTE   W72
//  #07 //036   ----------------------------------------
 BYTE   W56
 BYTE   W03
 BYTE   VOICE   35
 BYTE   PAN   c_v+0
 BYTE   W36
 BYTE   W01
//  #07 //037   ----------------------------------------
 BYTE   W96
//  #07 //038   ----------------------------------------
 BYTE   W96
//  #07 //039   ----------------------------------------
 BYTE   W96
//  #07 //040   ----------------------------------------
 BYTE   W96
//  #07 //041   ----------------------------------------
 BYTE   W96
//  #07 //042   ----------------------------------------
 BYTE   GoTo
  POIN2 Label_01694CDA
 BYTE   FINE

//**************** Track 8 (Midi-Chn.7) ****************//

PokemonMysteryDungeonExplorersofSkyTimeGear_008:
//  #08 //000   ----------------------------------------
 BYTE   KEYSH   PokemonMysteryDungeonExplorersofSkyTimeGear_key+0
 BYTE   VOICE   35
 BYTE   MODT 0
 BYTE   LFOS 44
 BYTE   VOL   45*PokemonMysteryDungeonExplorersofSkyTimeGear_mvl/mxv
 BYTE   PAN   c_v+0
 BYTE   W96
//  #08 //001   ----------------------------------------
 BYTE   W96
//  #08 //002   ----------------------------------------
 BYTE   W96
//  #08 //003   ----------------------------------------
 BYTE   W96
//  #08 //004   ----------------------------------------
 BYTE   W96
//  #08 //005   ----------------------------------------
 BYTE   W96
//  #08 //006   ----------------------------------------
Label_01694DB2:
 BYTE   W96
//  #08 //007   ----------------------------------------
 BYTE   W96
//  #08 //008   ----------------------------------------
 BYTE   W96
//  #08 //009   ----------------------------------------
 BYTE   W96
//  #08 //010   ----------------------------------------
 BYTE   W96
//  #08 //011   ----------------------------------------
 BYTE   W96
//  #08 //012   ----------------------------------------
 BYTE   W56
 BYTE   W03
 BYTE   VOICE   36
 BYTE   VOL   20*PokemonMysteryDungeonExplorersofSkyTimeGear_mvl/mxv
 BYTE   W01
 BYTE   PAN   c_v+20
 BYTE   N80  Gn3  v060
 BYTE   W36
//  #08 //013   ----------------------------------------
 BYTE   W48
 BYTE   N68  An3
 BYTE   W48
//  #08 //014   ----------------------------------------
 BYTE   W24
 BYTE   Dn4
 BYTE   W72
//  #08 //015   ----------------------------------------
 BYTE   Cn4  v076
 BYTE   W72
 BYTE   En4  v060
 BYTE   W24
//  #08 //016   ----------------------------------------
 BYTE   W48
 BYTE   Dn4
 BYTE   W48
//  #08 //017   ----------------------------------------
 BYTE   W24
 BYTE   Fs4
 BYTE   W72
//  #08 //018   ----------------------------------------
 BYTE   W60
 BYTE   N80  Gn3
 BYTE   W36
//  #08 //019   ----------------------------------------
 BYTE   W48
 BYTE   N68  An3
 BYTE   W48
//  #08 //020   ----------------------------------------
 BYTE   W24
 BYTE   Dn4
 BYTE   W72
//  #08 //021   ----------------------------------------
 BYTE   Cn4
 BYTE   W72
 BYTE   En4
 BYTE   W24
//  #08 //022   ----------------------------------------
 BYTE   W48
 BYTE   Dn4
 BYTE   W48
//  #08 //023   ----------------------------------------
 BYTE   W24
 BYTE   Fs4
 BYTE   W03
 BYTE   VOL   22*PokemonMysteryDungeonExplorersofSkyTimeGear_mvl/mxv
 BYTE   W03
 BYTE   VOL   22*PokemonMysteryDungeonExplorersofSkyTimeGear_mvl/mxv
 BYTE   W03
 BYTE   VOL   22*PokemonMysteryDungeonExplorersofSkyTimeGear_mvl/mxv
 BYTE   W03
 BYTE   VOL   23*PokemonMysteryDungeonExplorersofSkyTimeGear_mvl/mxv
 BYTE   W03
 BYTE   VOL   23*PokemonMysteryDungeonExplorersofSkyTimeGear_mvl/mxv
 BYTE   W03
 BYTE   VOL   26*PokemonMysteryDungeonExplorersofSkyTimeGear_mvl/mxv
 BYTE   W03
 BYTE   VOL   27*PokemonMysteryDungeonExplorersofSkyTimeGear_mvl/mxv
 BYTE   W03
 BYTE   VOL   27*PokemonMysteryDungeonExplorersofSkyTimeGear_mvl/mxv
 BYTE   W03
 BYTE   VOL   28*PokemonMysteryDungeonExplorersofSkyTimeGear_mvl/mxv
 BYTE   W03
 BYTE   VOL   29*PokemonMysteryDungeonExplorersofSkyTimeGear_mvl/mxv
 BYTE   W03
 BYTE   VOL   30*PokemonMysteryDungeonExplorersofSkyTimeGear_mvl/mxv
 BYTE   W03
 BYTE   VOL   31*PokemonMysteryDungeonExplorersofSkyTimeGear_mvl/mxv
 BYTE   W03
 BYTE   VOL   32*PokemonMysteryDungeonExplorersofSkyTimeGear_mvl/mxv
 BYTE   W03
 BYTE   VOL   33*PokemonMysteryDungeonExplorersofSkyTimeGear_mvl/mxv
 BYTE   W03
 BYTE   VOL   34*PokemonMysteryDungeonExplorersofSkyTimeGear_mvl/mxv
 BYTE   W03
 BYTE   VOL   35*PokemonMysteryDungeonExplorersofSkyTimeGear_mvl/mxv
 BYTE   W03
 BYTE   VOL   37*PokemonMysteryDungeonExplorersofSkyTimeGear_mvl/mxv
 BYTE   W03
 BYTE   VOL   37*PokemonMysteryDungeonExplorersofSkyTimeGear_mvl/mxv
 BYTE   W03
 BYTE   VOL   38*PokemonMysteryDungeonExplorersofSkyTimeGear_mvl/mxv
 BYTE   W03
 BYTE   VOL   40*PokemonMysteryDungeonExplorersofSkyTimeGear_mvl/mxv
 BYTE   W03
 BYTE   VOL   40*PokemonMysteryDungeonExplorersofSkyTimeGear_mvl/mxv
 BYTE   W03
 BYTE   VOL   42*PokemonMysteryDungeonExplorersofSkyTimeGear_mvl/mxv
 BYTE   W03
 BYTE   VOL   43*PokemonMysteryDungeonExplorersofSkyTimeGear_mvl/mxv
 BYTE   W02
 BYTE   PAN   c_v+40
 BYTE   VOL   43*PokemonMysteryDungeonExplorersofSkyTimeGear_mvl/mxv
 BYTE   W01
//  #08 //024   ----------------------------------------
 BYTE   VOL   45*PokemonMysteryDungeonExplorersofSkyTimeGear_mvl/mxv
 BYTE   TIE  Cn4
 BYTE   W96
//  #08 //025   ----------------------------------------
 BYTE   W44
 BYTE   W03
 BYTE   EOT
 BYTE   W01
 BYTE   TIE  Dn4
 BYTE   W48
//  #08 //026   ----------------------------------------
 BYTE   W92
 BYTE   W03
 BYTE   EOT
 BYTE   W01
//  #08 //027   ----------------------------------------
 BYTE   TIE  Cn4
 BYTE   W96
//  #08 //028   ----------------------------------------
 BYTE   W44
 BYTE   W03
 BYTE   EOT
 BYTE   W01
 BYTE   TIE  Dn4
 BYTE   W48
//  #08 //029   ----------------------------------------
 BYTE   W92
 BYTE   W03
 BYTE   EOT
 BYTE   W01
//  #08 //030   ----------------------------------------
 BYTE   TIE  Cn4
 BYTE   W96
//  #08 //031   ----------------------------------------
 BYTE   W44
 BYTE   W03
 BYTE   EOT
 BYTE   W01
 BYTE   TIE  Dn4
 BYTE   W48
//  #08 //032   ----------------------------------------
 BYTE   W92
 BYTE   W03
 BYTE   EOT
 BYTE   W01
//  #08 //033   ----------------------------------------
 BYTE   TIE  Cn4
 BYTE   W96
//  #08 //034   ----------------------------------------
 BYTE   W44
 BYTE   W03
 BYTE   EOT
 BYTE   W01
 BYTE   TIE  Dn4
 BYTE   W48
//  #08 //035   ----------------------------------------
 BYTE   W92
 BYTE   W03
 BYTE   EOT
 BYTE   W01
//  #08 //036   ----------------------------------------
 BYTE   W56
 BYTE   W03
 BYTE   VOICE   35
 BYTE   PAN   c_v+0
 BYTE   W36
 BYTE   W01
//  #08 //037   ----------------------------------------
 BYTE   W96
//  #08 //038   ----------------------------------------
 BYTE   W96
//  #08 //039   ----------------------------------------
 BYTE   W96
//  #08 //040   ----------------------------------------
 BYTE   W96
//  #08 //041   ----------------------------------------
 BYTE   W96
//  #08 //042   ----------------------------------------
 BYTE   GoTo
  POIN2 Label_01694DB2
 BYTE   FINE

//**************** Track 9 (Midi-Chn.8) ****************//

PokemonMysteryDungeonExplorersofSkyTimeGear_009:
//  #09 //000   ----------------------------------------
 BYTE   KEYSH   PokemonMysteryDungeonExplorersofSkyTimeGear_key+0
 BYTE   VOICE   76
 BYTE   MODT 0
 BYTE   LFOS 44
 BYTE   VOL   37*PokemonMysteryDungeonExplorersofSkyTimeGear_mvl/mxv
 BYTE   PAN   c_v-20
 BYTE   W96
//  #09 //001   ----------------------------------------
 BYTE   W96
//  #09 //002   ----------------------------------------
 BYTE   W96
//  #09 //003   ----------------------------------------
 BYTE   W96
//  #09 //004   ----------------------------------------
 BYTE   W96
//  #09 //005   ----------------------------------------
 BYTE   W96
//  #09 //006   ----------------------------------------
Label_01694E82:
 BYTE   W96
//  #09 //007   ----------------------------------------
 BYTE   W96
//  #09 //008   ----------------------------------------
 BYTE   W96
//  #09 //009   ----------------------------------------
 BYTE   W96
//  #09 //010   ----------------------------------------
 BYTE   W96
//  #09 //011   ----------------------------------------
 BYTE   W96
//  #09 //012   ----------------------------------------
 BYTE   W68
 BYTE   W03
 BYTE   PAN   c_v-10
 BYTE   W01
 BYTE   N11  En4  v104
 BYTE   W24
//  #09 //013   ----------------------------------------
 BYTE   Dn4
 BYTE   W24
 BYTE   En4
 BYTE   W24
 BYTE   Gn4
 BYTE   W48
//  #09 //014   ----------------------------------------
 BYTE   W24
 BYTE   Fs4
 BYTE   W72
//  #09 //015   ----------------------------------------
 BYTE   W72
 BYTE   En4  v100
 BYTE   W24
//  #09 //016   ----------------------------------------
Label_01694E9E:
 BYTE   N11  Dn4  v100
 BYTE   W24
 BYTE   En4
 BYTE   W24
 BYTE   Gn4
 BYTE   W48
 BYTE   PEND 
//  #09 //017   ----------------------------------------
 BYTE   W24
 BYTE   Fs4
 BYTE   W72
//  #09 //018   ----------------------------------------
 BYTE   W72
 BYTE   En4
 BYTE   W24
//  #09 //019   ----------------------------------------
 BYTE   PATT
  POIN2 Label_01694E9E
//  #09 //020   ----------------------------------------
 BYTE   W24
 BYTE   N11  Fs4  v100
 BYTE   W72
//  #09 //021   ----------------------------------------
 BYTE   W72
 BYTE   En4
 BYTE   W24
//  #09 //022   ----------------------------------------
 BYTE   PATT
  POIN2 Label_01694E9E
//  #09 //023   ----------------------------------------
 BYTE   W24
 BYTE   N11  Fs4  v100
 BYTE   W36
 BYTE   An4
 BYTE   W32
 BYTE   W03
 BYTE   PAN   c_v-20
 BYTE   W01
//  #09 //024   ----------------------------------------
Label_01694ECA:
 BYTE   N05  Bn4  v100
 BYTE   W12
 BYTE   Bn4  v072
 BYTE   W12
 BYTE   Bn4  v056
 BYTE   W12
 BYTE   Bn4  v040
 BYTE   W12
 BYTE   Bn4  v024
 BYTE   W12
 BYTE   Bn4  v020
 BYTE   W12
 BYTE   En4  v100
 BYTE   W12
 BYTE   En4  v048
 BYTE   W12
 BYTE   PEND 
//  #09 //025   ----------------------------------------
Label_01694EE4:
 BYTE   N05  En4  v020
 BYTE   W12
 BYTE   Gn4  v100
 BYTE   W12
 BYTE   Gn4  v044
 BYTE   W12
 BYTE   Gn4  v016
 BYTE   W12
 BYTE   An4  v100
 BYTE   W12
 BYTE   An4  v072
 BYTE   W12
 BYTE   An4  v056
 BYTE   W12
 BYTE   An4  v040
 BYTE   W12
 BYTE   PEND 
//  #09 //026   ----------------------------------------
Label_01694EFE:
 BYTE   N05  An4  v024
 BYTE   W12
 BYTE   An4  v020
 BYTE   W12
 BYTE   An4  v100
 BYTE   W12
 BYTE   An4  v044
 BYTE   W12
 BYTE   An4  v012
 BYTE   W12
 BYTE   Dn5  v100
 BYTE   W12
 BYTE   Dn5  v048
 BYTE   W12
 BYTE   Dn5  v012
 BYTE   W12
 BYTE   PEND 
//  #09 //027   ----------------------------------------
 BYTE   PATT
  POIN2 Label_01694ECA
//  #09 //028   ----------------------------------------
 BYTE   PATT
  POIN2 Label_01694EE4
//  #09 //029   ----------------------------------------
Label_01694F22:
 BYTE   N05  An4  v024
 BYTE   W12
 BYTE   An4  v020
 BYTE   W12
 BYTE   Fs4  v100
 BYTE   W12
 BYTE   Fs4  v072
 BYTE   W12
 BYTE   Fs4  v056
 BYTE   W12
 BYTE   Fs4  v040
 BYTE   W12
 BYTE   Fs4  v024
 BYTE   W12
 BYTE   Fs4  v020
 BYTE   W12
 BYTE   PEND 
//  #09 //030   ----------------------------------------
 BYTE   PATT
  POIN2 Label_01694ECA
//  #09 //031   ----------------------------------------
 BYTE   PATT
  POIN2 Label_01694EE4
//  #09 //032   ----------------------------------------
 BYTE   PATT
  POIN2 Label_01694EFE
//  #09 //033   ----------------------------------------
 BYTE   PATT
  POIN2 Label_01694ECA
//  #09 //034   ----------------------------------------
 BYTE   PATT
  POIN2 Label_01694EE4
//  #09 //035   ----------------------------------------
 BYTE   PATT
  POIN2 Label_01694F22
//  #09 //036   ----------------------------------------
 BYTE   W96
//  #09 //037   ----------------------------------------
 BYTE   W96
//  #09 //038   ----------------------------------------
 BYTE   W96
//  #09 //039   ----------------------------------------
 BYTE   W96
//  #09 //040   ----------------------------------------
 BYTE   W96
//  #09 //041   ----------------------------------------
 BYTE   W96
//  #09 //042   ----------------------------------------
 BYTE   GoTo
  POIN2 Label_01694E82
 BYTE   FINE

//**************** Track 10 (Midi-Chn.9) ****************//

PokemonMysteryDungeonExplorersofSkyTimeGear_010:
//  #10 //000   ----------------------------------------
 BYTE   KEYSH   PokemonMysteryDungeonExplorersofSkyTimeGear_key+0
 BYTE   VOICE   100
 BYTE   MODT 0
 BYTE   LFOS 44
 BYTE   VOL   45*PokemonMysteryDungeonExplorersofSkyTimeGear_mvl/mxv
 BYTE   PAN   c_v+0
 BYTE   W96
//  #10 //001   ----------------------------------------
 BYTE   W96
//  #10 //002   ----------------------------------------
 BYTE   W96
//  #10 //003   ----------------------------------------
 BYTE   W96
//  #10 //004   ----------------------------------------
 BYTE   W96
//  #10 //005   ----------------------------------------
 BYTE   W96
//  #10 //006   ----------------------------------------
Label_01694F7A:
 BYTE   VOL   45*PokemonMysteryDungeonExplorersofSkyTimeGear_mvl/mxv
 BYTE   W96
//  #10 //007   ----------------------------------------
 BYTE   W96
//  #10 //008   ----------------------------------------
 BYTE   W96
//  #10 //009   ----------------------------------------
 BYTE   W96
//  #10 //010   ----------------------------------------
 BYTE   W96
//  #10 //011   ----------------------------------------
 BYTE   W96
//  #10 //012   ----------------------------------------
 BYTE   W96
//  #10 //013   ----------------------------------------
 BYTE   W96
//  #10 //014   ----------------------------------------
 BYTE   W96
//  #10 //015   ----------------------------------------
 BYTE   W96
//  #10 //016   ----------------------------------------
 BYTE   W96
//  #10 //017   ----------------------------------------
 BYTE   W96
//  #10 //018   ----------------------------------------
 BYTE   W96
//  #10 //019   ----------------------------------------
 BYTE   W96
//  #10 //020   ----------------------------------------
 BYTE   W96
//  #10 //021   ----------------------------------------
 BYTE   W96
//  #10 //022   ----------------------------------------
 BYTE   W96
//  #10 //023   ----------------------------------------
 BYTE   W92
 BYTE   W03
 BYTE   VOL   45*PokemonMysteryDungeonExplorersofSkyTimeGear_mvl/mxv
 BYTE   W01
//  #10 //024   ----------------------------------------
 BYTE   TIE  Cn2  v088
 BYTE   W96
//  #10 //025   ----------------------------------------
 BYTE   W44
 BYTE   W03
 BYTE   EOT
 BYTE   W01
 BYTE   TIE  Dn2
 BYTE   W48
//  #10 //026   ----------------------------------------
 BYTE   W92
 BYTE   W03
 BYTE   EOT
 BYTE   W01
//  #10 //027   ----------------------------------------
 BYTE   TIE  Cn2
 BYTE   W96
//  #10 //028   ----------------------------------------
 BYTE   W44
 BYTE   W03
 BYTE   EOT
 BYTE   W01
 BYTE   N68  Dn2
 BYTE   W48
//  #10 //029   ----------------------------------------
 BYTE   W24
 BYTE   Bn1
 BYTE   W72
//  #10 //030   ----------------------------------------
 BYTE   TIE  Cn2
 BYTE   W96
//  #10 //031   ----------------------------------------
 BYTE   W44
 BYTE   W03
 BYTE   EOT
 BYTE   W01
 BYTE   TIE  Dn2
 BYTE   W48
//  #10 //032   ----------------------------------------
 BYTE   W92
 BYTE   W03
 BYTE   EOT
 BYTE   W01
//  #10 //033   ----------------------------------------
 BYTE   TIE  Cn2
 BYTE   W96
//  #10 //034   ----------------------------------------
 BYTE   W44
 BYTE   W03
 BYTE   EOT
 BYTE   W01
 BYTE   N56  Dn2
 BYTE   W48
//  #10 //035   ----------------------------------------
 BYTE   W12
 BYTE   N12  Dn2  v044
 BYTE   W12
 BYTE   N32  Bn1  v088
 BYTE   W36
 BYTE   Bn2  v108
 BYTE   W36
//  #10 //036   ----------------------------------------
 BYTE   TIE  An2
 BYTE   W04
 BYTE   VOL   39*PokemonMysteryDungeonExplorersofSkyTimeGear_mvl/mxv
 BYTE   W18
 BYTE   VOL   38*PokemonMysteryDungeonExplorersofSkyTimeGear_mvl/mxv
 BYTE   W06
 BYTE   VOL   38*PokemonMysteryDungeonExplorersofSkyTimeGear_mvl/mxv
 BYTE   W06
 BYTE   VOL   37*PokemonMysteryDungeonExplorersofSkyTimeGear_mvl/mxv
 BYTE   W03
 BYTE   VOL   37*PokemonMysteryDungeonExplorersofSkyTimeGear_mvl/mxv
 BYTE   W08
 BYTE   VOL   36*PokemonMysteryDungeonExplorersofSkyTimeGear_mvl/mxv
 BYTE   W06
 BYTE   VOL   34*PokemonMysteryDungeonExplorersofSkyTimeGear_mvl/mxv
 BYTE   W09
 BYTE   VOL   34*PokemonMysteryDungeonExplorersofSkyTimeGear_mvl/mxv
 BYTE   W15
 BYTE   VOL   34*PokemonMysteryDungeonExplorersofSkyTimeGear_mvl/mxv
 BYTE   W04
 BYTE   VOL   33*PokemonMysteryDungeonExplorersofSkyTimeGear_mvl/mxv
 BYTE   W03
 BYTE   VOL   32*PokemonMysteryDungeonExplorersofSkyTimeGear_mvl/mxv
 BYTE   W06
 BYTE   VOL   32*PokemonMysteryDungeonExplorersofSkyTimeGear_mvl/mxv
 BYTE   W06
 BYTE   VOL   31*PokemonMysteryDungeonExplorersofSkyTimeGear_mvl/mxv
 BYTE   W02
//  #10 //037   ----------------------------------------
 BYTE   W01
 BYTE   VOL   30*PokemonMysteryDungeonExplorersofSkyTimeGear_mvl/mxv
 BYTE   W12
 BYTE   VOL   30*PokemonMysteryDungeonExplorersofSkyTimeGear_mvl/mxv
 BYTE   W05
 BYTE   VOL   28*PokemonMysteryDungeonExplorersofSkyTimeGear_mvl/mxv
 BYTE   W09
 BYTE   VOL   28*PokemonMysteryDungeonExplorersofSkyTimeGear_mvl/mxv
 BYTE   W15
 BYTE   VOL   27*PokemonMysteryDungeonExplorersofSkyTimeGear_mvl/mxv
 BYTE   W06
 BYTE   VOL   27*PokemonMysteryDungeonExplorersofSkyTimeGear_mvl/mxv
 BYTE   W07
 BYTE   VOL   27*PokemonMysteryDungeonExplorersofSkyTimeGear_mvl/mxv
 BYTE   W06
 BYTE   VOL   25*PokemonMysteryDungeonExplorersofSkyTimeGear_mvl/mxv
 BYTE   W03
 BYTE   VOL   24*PokemonMysteryDungeonExplorersofSkyTimeGear_mvl/mxv
 BYTE   W09
 BYTE   VOL   23*PokemonMysteryDungeonExplorersofSkyTimeGear_mvl/mxv
 BYTE   W06
 BYTE   VOL   22*PokemonMysteryDungeonExplorersofSkyTimeGear_mvl/mxv
 BYTE   W03
 BYTE   VOL   22*PokemonMysteryDungeonExplorersofSkyTimeGear_mvl/mxv
 BYTE   W05
 BYTE   VOL   22*PokemonMysteryDungeonExplorersofSkyTimeGear_mvl/mxv
 BYTE   W03
 BYTE   VOL   21*PokemonMysteryDungeonExplorersofSkyTimeGear_mvl/mxv
 BYTE   W03
 BYTE   VOL   20*PokemonMysteryDungeonExplorersofSkyTimeGear_mvl/mxv
 BYTE   W03
//  #10 //038   ----------------------------------------
 BYTE   W03
 BYTE   VOL   20*PokemonMysteryDungeonExplorersofSkyTimeGear_mvl/mxv
 BYTE   W03
 BYTE   VOL   19*PokemonMysteryDungeonExplorersofSkyTimeGear_mvl/mxv
 BYTE   W03
 BYTE   VOL   19*PokemonMysteryDungeonExplorersofSkyTimeGear_mvl/mxv
 BYTE   W03
 BYTE   VOL   19*PokemonMysteryDungeonExplorersofSkyTimeGear_mvl/mxv
 BYTE   W03
 BYTE   VOL   18*PokemonMysteryDungeonExplorersofSkyTimeGear_mvl/mxv
 BYTE   W03
 BYTE   VOL   18*PokemonMysteryDungeonExplorersofSkyTimeGear_mvl/mxv
 BYTE   W06
 BYTE   VOL   17*PokemonMysteryDungeonExplorersofSkyTimeGear_mvl/mxv
 BYTE   W07
 BYTE   VOL   16*PokemonMysteryDungeonExplorersofSkyTimeGear_mvl/mxv
 BYTE   W03
 BYTE   VOL   15*PokemonMysteryDungeonExplorersofSkyTimeGear_mvl/mxv
 BYTE   W03
 BYTE   VOL   14*PokemonMysteryDungeonExplorersofSkyTimeGear_mvl/mxv
 BYTE   W06
 BYTE   VOL   13*PokemonMysteryDungeonExplorersofSkyTimeGear_mvl/mxv
 BYTE   W03
 BYTE   VOL   13*PokemonMysteryDungeonExplorersofSkyTimeGear_mvl/mxv
 BYTE   W03
 BYTE   VOL   11*PokemonMysteryDungeonExplorersofSkyTimeGear_mvl/mxv
 BYTE   W03
 BYTE   VOL   11*PokemonMysteryDungeonExplorersofSkyTimeGear_mvl/mxv
 BYTE   W06
 BYTE   VOL   10*PokemonMysteryDungeonExplorersofSkyTimeGear_mvl/mxv
 BYTE   W05
 BYTE   VOL   10*PokemonMysteryDungeonExplorersofSkyTimeGear_mvl/mxv
 BYTE   W03
 BYTE   VOL   8*PokemonMysteryDungeonExplorersofSkyTimeGear_mvl/mxv
 BYTE   W06
 BYTE   VOL   8*PokemonMysteryDungeonExplorersofSkyTimeGear_mvl/mxv
 BYTE   W03
 BYTE   VOL   6*PokemonMysteryDungeonExplorersofSkyTimeGear_mvl/mxv
 BYTE   W03
 BYTE   VOL   6*PokemonMysteryDungeonExplorersofSkyTimeGear_mvl/mxv
 BYTE   W03
 BYTE   VOL   6*PokemonMysteryDungeonExplorersofSkyTimeGear_mvl/mxv
 BYTE   W03
 BYTE   VOL   5*PokemonMysteryDungeonExplorersofSkyTimeGear_mvl/mxv
 BYTE   W03
 BYTE   VOL   5*PokemonMysteryDungeonExplorersofSkyTimeGear_mvl/mxv
 BYTE   W03
 BYTE   VOL   4*PokemonMysteryDungeonExplorersofSkyTimeGear_mvl/mxv
 BYTE   W05
 BYTE   EOT
 BYTE   W01
//  #10 //039   ----------------------------------------
 BYTE   W96
//  #10 //040   ----------------------------------------
 BYTE   W96
//  #10 //041   ----------------------------------------
 BYTE   W96
//  #10 //042   ----------------------------------------
 BYTE   GoTo
  POIN2 Label_01694F7A
 BYTE   FINE

//**************** Track 11 (Midi-Chn.10) ****************//

PokemonMysteryDungeonExplorersofSkyTimeGear_011:
//  #11 //000   ----------------------------------------
 BYTE   KEYSH   PokemonMysteryDungeonExplorersofSkyTimeGear_key+0
 BYTE   VOICE   74
 BYTE   MODT 0
 BYTE   LFOS 44
 BYTE   VOL   37*PokemonMysteryDungeonExplorersofSkyTimeGear_mvl/mxv
 BYTE   PAN   c_v+0
 BYTE   W96
//  #11 //001   ----------------------------------------
 BYTE   W96
//  #11 //002   ----------------------------------------
 BYTE   W96
//  #11 //003   ----------------------------------------
 BYTE   W96
//  #11 //004   ----------------------------------------
 BYTE   W96
//  #11 //005   ----------------------------------------
 BYTE   W96
//  #11 //006   ----------------------------------------
Label_0169505E:
 BYTE   VOL   37*PokemonMysteryDungeonExplorersofSkyTimeGear_mvl/mxv
 BYTE   W96
//  #11 //007   ----------------------------------------
 BYTE   W96
//  #11 //008   ----------------------------------------
 BYTE   W96
//  #11 //009   ----------------------------------------
 BYTE   W96
//  #11 //010   ----------------------------------------
 BYTE   W96
//  #11 //011   ----------------------------------------
 BYTE   W96
//  #11 //012   ----------------------------------------
 BYTE   W96
//  #11 //013   ----------------------------------------
 BYTE   W96
//  #11 //014   ----------------------------------------
 BYTE   W96
//  #11 //015   ----------------------------------------
 BYTE   W96
//  #11 //016   ----------------------------------------
 BYTE   W96
//  #11 //017   ----------------------------------------
 BYTE   W96
//  #11 //018   ----------------------------------------
 BYTE   W96
//  #11 //019   ----------------------------------------
 BYTE   W96
//  #11 //020   ----------------------------------------
 BYTE   W96
//  #11 //021   ----------------------------------------
 BYTE   W96
//  #11 //022   ----------------------------------------
 BYTE   W96
//  #11 //023   ----------------------------------------
 BYTE   W44
 BYTE   W03
 BYTE   VOL   37*PokemonMysteryDungeonExplorersofSkyTimeGear_mvl/mxv
 BYTE   W48
 BYTE   W01
//  #11 //024   ----------------------------------------
 BYTE   W96
//  #11 //025   ----------------------------------------
 BYTE   W96
//  #11 //026   ----------------------------------------
 BYTE   W96
//  #11 //027   ----------------------------------------
 BYTE   W96
//  #11 //028   ----------------------------------------
 BYTE   W96
//  #11 //029   ----------------------------------------
 BYTE   W72
 BYTE   N05  En5  v100
 BYTE   W06
 BYTE   Fs5  v112
 BYTE   W06
 BYTE   Gn5  v096
 BYTE   W06
 BYTE   An5
 BYTE   W06
//  #11 //030   ----------------------------------------
Label_01695088:
 BYTE   N23  Bn5  v096
 BYTE   W24
 BYTE   N05  An5  v060
 BYTE   W06
 BYTE   Gn5  v048
 BYTE   W06
 BYTE   N11  Fs5  v096
 BYTE   W12
 BYTE   Dn5  v072
 BYTE   W12
 BYTE   Fs5  v112
 BYTE   W12
 BYTE   En5  v116
 BYTE   W12
 BYTE   Bn4  v052
 BYTE   W12
 BYTE   PEND 
//  #11 //031   ----------------------------------------
 BYTE   An4  v096
 BYTE   W12
 BYTE   N05  Bn4  v112
 BYTE   W12
 BYTE   En5  v100
 BYTE   W06
 BYTE   Fs5  v112
 BYTE   W06
 BYTE   Gn5  v096
 BYTE   W06
 BYTE   An5
 BYTE   W06
 BYTE   N23  Bn5
 BYTE   W24
 BYTE   N05  An5  v060
 BYTE   W06
 BYTE   Gn5  v048
 BYTE   W06
 BYTE   N11  Fs5  v096
 BYTE   W12
//  #11 //032   ----------------------------------------
 BYTE   Dn5  v072
 BYTE   W12
 BYTE   Fs5  v112
 BYTE   W12
 BYTE   En5  v116
 BYTE   W12
 BYTE   Bn5
 BYTE   W12
 BYTE   An5  v096
 BYTE   W12
 BYTE   N05  Bn5  v112
 BYTE   W12
 BYTE   En5  v100
 BYTE   W06
 BYTE   Fs5  v112
 BYTE   W06
 BYTE   Gn5  v096
 BYTE   W06
 BYTE   An5
 BYTE   W06
//  #11 //033   ----------------------------------------
 BYTE   PATT
  POIN2 Label_01695088
//  #11 //034   ----------------------------------------
 BYTE   N11  An4  v096
 BYTE   W12
 BYTE   Bn4
 BYTE   W12
 BYTE   An4  v112
 BYTE   W12
 BYTE   Gn4  v096
 BYTE   W12
 BYTE   N56  En4  v100
 BYTE   W48
//  #11 //035   ----------------------------------------
 BYTE   W24
 BYTE   N23  En4  v096
 BYTE   W24
 BYTE   N12  Gn4  v112
 BYTE   W12
 BYTE   Fs4  v096
 BYTE   W12
 BYTE   En4  v116
 BYTE   W12
 BYTE   N10  Dn4  v112
 BYTE   W12
//  #11 //036   ----------------------------------------
 BYTE   TIE  En4  v100
 BYTE   W04
 BYTE   VOL   33*PokemonMysteryDungeonExplorersofSkyTimeGear_mvl/mxv
 BYTE   W06
 BYTE   VOL   33*PokemonMysteryDungeonExplorersofSkyTimeGear_mvl/mxv
 BYTE   W06
 BYTE   VOL   32*PokemonMysteryDungeonExplorersofSkyTimeGear_mvl/mxv
 BYTE   W03
 BYTE   VOL   32*PokemonMysteryDungeonExplorersofSkyTimeGear_mvl/mxv
 BYTE   W03
 BYTE   VOL   31*PokemonMysteryDungeonExplorersofSkyTimeGear_mvl/mxv
 BYTE   W12
 BYTE   VOL   30*PokemonMysteryDungeonExplorersofSkyTimeGear_mvl/mxv
 BYTE   W03
 BYTE   VOL   30*PokemonMysteryDungeonExplorersofSkyTimeGear_mvl/mxv
 BYTE   W08
 BYTE   VOL   29*PokemonMysteryDungeonExplorersofSkyTimeGear_mvl/mxv
 BYTE   W09
 BYTE   VOL   29*PokemonMysteryDungeonExplorersofSkyTimeGear_mvl/mxv
 BYTE   W06
 BYTE   VOL   28*PokemonMysteryDungeonExplorersofSkyTimeGear_mvl/mxv
 BYTE   W03
 BYTE   VOL   28*PokemonMysteryDungeonExplorersofSkyTimeGear_mvl/mxv
 BYTE   W03
 BYTE   VOL   27*PokemonMysteryDungeonExplorersofSkyTimeGear_mvl/mxv
 BYTE   W03
 BYTE   VOL   27*PokemonMysteryDungeonExplorersofSkyTimeGear_mvl/mxv
 BYTE   W06
 BYTE   VOL   26*PokemonMysteryDungeonExplorersofSkyTimeGear_mvl/mxv
 BYTE   W04
 BYTE   VOL   24*PokemonMysteryDungeonExplorersofSkyTimeGear_mvl/mxv
 BYTE   W03
 BYTE   VOL   23*PokemonMysteryDungeonExplorersofSkyTimeGear_mvl/mxv
 BYTE   W03
 BYTE   VOL   22*PokemonMysteryDungeonExplorersofSkyTimeGear_mvl/mxv
 BYTE   W03
 BYTE   VOL   22*PokemonMysteryDungeonExplorersofSkyTimeGear_mvl/mxv
 BYTE   W03
 BYTE   VOL   21*PokemonMysteryDungeonExplorersofSkyTimeGear_mvl/mxv
 BYTE   W03
 BYTE   VOL   19*PokemonMysteryDungeonExplorersofSkyTimeGear_mvl/mxv
 BYTE   W02
//  #11 //037   ----------------------------------------
 BYTE   W01
 BYTE   VOL   18*PokemonMysteryDungeonExplorersofSkyTimeGear_mvl/mxv
 BYTE   W03
 BYTE   VOL   18*PokemonMysteryDungeonExplorersofSkyTimeGear_mvl/mxv
 BYTE   W03
 BYTE   VOL   15*PokemonMysteryDungeonExplorersofSkyTimeGear_mvl/mxv
 BYTE   W03
 BYTE   VOL   14*PokemonMysteryDungeonExplorersofSkyTimeGear_mvl/mxv
 BYTE   W03
 BYTE   VOL   13*PokemonMysteryDungeonExplorersofSkyTimeGear_mvl/mxv
 BYTE   W05
 BYTE   VOL   11*PokemonMysteryDungeonExplorersofSkyTimeGear_mvl/mxv
 BYTE   W03
 BYTE   VOL   11*PokemonMysteryDungeonExplorersofSkyTimeGear_mvl/mxv
 BYTE   W03
 BYTE   VOL   10*PokemonMysteryDungeonExplorersofSkyTimeGear_mvl/mxv
 BYTE   W03
 BYTE   VOL   8*PokemonMysteryDungeonExplorersofSkyTimeGear_mvl/mxv
 BYTE   W03
 BYTE   VOL   6*PokemonMysteryDungeonExplorersofSkyTimeGear_mvl/mxv
 BYTE   W03
 BYTE   VOL   5*PokemonMysteryDungeonExplorersofSkyTimeGear_mvl/mxv
 BYTE   W03
 BYTE   VOL   5*PokemonMysteryDungeonExplorersofSkyTimeGear_mvl/mxv
 BYTE   W03
 BYTE   VOL   3*PokemonMysteryDungeonExplorersofSkyTimeGear_mvl/mxv
 BYTE   W03
 BYTE   VOL   2*PokemonMysteryDungeonExplorersofSkyTimeGear_mvl/mxv
 BYTE   W03
 BYTE   VOL   1*PokemonMysteryDungeonExplorersofSkyTimeGear_mvl/mxv
 BYTE   W02
 BYTE   EOT
 BYTE   W48
 BYTE   W01
//  #11 //038   ----------------------------------------
 BYTE   W96
//  #11 //039   ----------------------------------------
 BYTE   W96
//  #11 //040   ----------------------------------------
 BYTE   W96
//  #11 //041   ----------------------------------------
 BYTE   W96
//  #11 //042   ----------------------------------------
 BYTE   GoTo
  POIN2 Label_0169505E
 BYTE   FINE

//**************** Track 12 (Midi-Chn.11) ****************//

PokemonMysteryDungeonExplorersofSkyTimeGear_012:
//  #12 //000   ----------------------------------------
 BYTE   KEYSH   PokemonMysteryDungeonExplorersofSkyTimeGear_key+0
 BYTE   VOICE   10
 BYTE   MODT 0
 BYTE   LFOS 44
 BYTE   VOL   30*PokemonMysteryDungeonExplorersofSkyTimeGear_mvl/mxv
 BYTE   PAN   c_v+0
 BYTE   VOL   37*PokemonMysteryDungeonExplorersofSkyTimeGear_mvl/mxv
 BYTE   N04  Bn4  v088
 BYTE   W06
 BYTE   Bn4  v036
 BYTE   W06
 BYTE   En4  v088
 BYTE   W06
 BYTE   En4  v036
 BYTE   W06
 BYTE   Dn4  v088
 BYTE   W06
 BYTE   Dn4  v036
 BYTE   W06
 BYTE   En4  v088
 BYTE   W06
 BYTE   En4  v044
 BYTE   W06
 BYTE   En4  v048
 BYTE   W06
 BYTE   En4  v028
 BYTE   W06
 BYTE   En4  v032
 BYTE   W06
 BYTE   En4  v016
 BYTE   W30
//  #12 //001   ----------------------------------------
 BYTE   W96
//  #12 //002   ----------------------------------------
 BYTE   W96
//  #12 //003   ----------------------------------------
Label_01695199:
 BYTE   N04  An4  v088
 BYTE   W06
 BYTE   An4  v036
 BYTE   W06
 BYTE   Dn4  v088
 BYTE   W06
 BYTE   Dn4  v036
 BYTE   W06
 BYTE   En4  v088
 BYTE   W06
 BYTE   En4  v036
 BYTE   W06
 BYTE   An3  v088
 BYTE   W06
 BYTE   An3  v044
 BYTE   W06
 BYTE   An3  v048
 BYTE   W06
 BYTE   An3  v028
 BYTE   W06
 BYTE   An3  v032
 BYTE   W06
 BYTE   An3  v016
 BYTE   W30
 BYTE   PEND 
//  #12 //004   ----------------------------------------
 BYTE   W96
//  #12 //005   ----------------------------------------
 BYTE   W96
//  #12 //006   ----------------------------------------
Label_016951C1:
 BYTE   VOL   41*PokemonMysteryDungeonExplorersofSkyTimeGear_mvl/mxv
 BYTE   N04  Bn4  v088
 BYTE   W06
 BYTE   Bn4  v036
 BYTE   W06
 BYTE   En4  v088
 BYTE   W06
 BYTE   En4  v036
 BYTE   W06
 BYTE   Dn4  v088
 BYTE   W06
 BYTE   Dn4  v036
 BYTE   W06
 BYTE   En4  v088
 BYTE   W06
 BYTE   En4  v044
 BYTE   W06
 BYTE   En4  v048
 BYTE   W06
 BYTE   En4  v028
 BYTE   W06
 BYTE   En4  v032
 BYTE   W06
 BYTE   En4  v016
 BYTE   W30
//  #12 //007   ----------------------------------------
 BYTE   W96
//  #12 //008   ----------------------------------------
 BYTE   W96
//  #12 //009   ----------------------------------------
 BYTE   PATT
  POIN2 Label_01695199
//  #12 //010   ----------------------------------------
 BYTE   W96
//  #12 //011   ----------------------------------------
 BYTE   W96
//  #12 //012   ----------------------------------------
 BYTE   VOL   46*PokemonMysteryDungeonExplorersofSkyTimeGear_mvl/mxv
 BYTE   N04  Bn4  v088
 BYTE   W06
 BYTE   Bn4  v036
 BYTE   W06
 BYTE   En4  v088
 BYTE   W06
 BYTE   En4  v036
 BYTE   W06
 BYTE   Dn4  v088
 BYTE   W06
 BYTE   Dn4  v036
 BYTE   W06
 BYTE   En4  v088
 BYTE   W06
 BYTE   En4  v044
 BYTE   W06
 BYTE   En4  v048
 BYTE   W06
 BYTE   En4  v028
 BYTE   W06
 BYTE   En4  v032
 BYTE   W06
 BYTE   En4  v016
 BYTE   W30
//  #12 //013   ----------------------------------------
Label_01695218:
 BYTE   W48
 BYTE   N04  An4  v088
 BYTE   W06
 BYTE   An4  v036
 BYTE   W06
 BYTE   Dn4  v088
 BYTE   W06
 BYTE   Dn4  v036
 BYTE   W06
 BYTE   En4  v088
 BYTE   W06
 BYTE   En4  v036
 BYTE   W06
 BYTE   An3  v088
 BYTE   W06
 BYTE   An3  v044
 BYTE   W06
 BYTE   PEND 
//  #12 //014   ----------------------------------------
Label_01695233:
 BYTE   N04  An3  v048
 BYTE   W06
 BYTE   An3  v028
 BYTE   W06
 BYTE   An3  v032
 BYTE   W06
 BYTE   An3  v016
 BYTE   W78
 BYTE   PEND 
//  #12 //015   ----------------------------------------
Label_01695241:
 BYTE   N04  Bn4  v088
 BYTE   W06
 BYTE   Bn4  v036
 BYTE   W06
 BYTE   En4  v088
 BYTE   W06
 BYTE   En4  v036
 BYTE   W06
 BYTE   Dn4  v088
 BYTE   W06
 BYTE   Dn4  v036
 BYTE   W06
 BYTE   En4  v088
 BYTE   W06
 BYTE   En4  v044
 BYTE   W06
 BYTE   En4  v048
 BYTE   W06
 BYTE   En4  v028
 BYTE   W06
 BYTE   En4  v032
 BYTE   W06
 BYTE   En4  v016
 BYTE   W30
 BYTE   PEND 
//  #12 //016   ----------------------------------------
 BYTE   PATT
  POIN2 Label_01695218
//  #12 //017   ----------------------------------------
 BYTE   PATT
  POIN2 Label_01695233
//  #12 //018   ----------------------------------------
 BYTE   PATT
  POIN2 Label_01695241
//  #12 //019   ----------------------------------------
 BYTE   PATT
  POIN2 Label_01695218
//  #12 //020   ----------------------------------------
 BYTE   PATT
  POIN2 Label_01695233
//  #12 //021   ----------------------------------------
 BYTE   PATT
  POIN2 Label_01695241
//  #12 //022   ----------------------------------------
 BYTE   PATT
  POIN2 Label_01695218
//  #12 //023   ----------------------------------------
 BYTE   N04  An3  v048
 BYTE   W06
 BYTE   An3  v028
 BYTE   W06
 BYTE   An3  v032
 BYTE   W06
 BYTE   An3  v016
 BYTE   W76
 BYTE   W01
 BYTE   VOL   66*PokemonMysteryDungeonExplorersofSkyTimeGear_mvl/mxv
 BYTE   W01
//  #12 //024   ----------------------------------------
 BYTE   VOL   51*PokemonMysteryDungeonExplorersofSkyTimeGear_mvl/mxv
 BYTE   N04  Bn4  v088
 BYTE   W06
 BYTE   Bn4  v036
 BYTE   W06
 BYTE   En4  v088
 BYTE   W06
 BYTE   En4  v036
 BYTE   W06
 BYTE   Dn4  v088
 BYTE   W06
 BYTE   Dn4  v036
 BYTE   W06
 BYTE   En4  v088
 BYTE   W06
 BYTE   En4  v044
 BYTE   W06
 BYTE   En4  v048
 BYTE   W06
 BYTE   En4  v028
 BYTE   W06
 BYTE   En4  v032
 BYTE   W06
 BYTE   En4  v016
 BYTE   W30
//  #12 //025   ----------------------------------------
Label_016952C1:
 BYTE   W48
 BYTE   N04  Bn4  v088
 BYTE   W06
 BYTE   Bn4  v036
 BYTE   W06
 BYTE   En4  v088
 BYTE   W06
 BYTE   En4  v036
 BYTE   W06
 BYTE   Dn4  v088
 BYTE   W06
 BYTE   Dn4  v036
 BYTE   W06
 BYTE   En4  v088
 BYTE   W06
 BYTE   En4  v044
 BYTE   W06
 BYTE   PEND 
//  #12 //026   ----------------------------------------
Label_016952DC:
 BYTE   N04  En4  v048
 BYTE   W06
 BYTE   En4  v028
 BYTE   W06
 BYTE   En4  v032
 BYTE   W06
 BYTE   En4  v016
 BYTE   W78
 BYTE   PEND 
//  #12 //027   ----------------------------------------
 BYTE   PATT
  POIN2 Label_01695241
//  #12 //028   ----------------------------------------
 BYTE   PATT
  POIN2 Label_016952C1
//  #12 //029   ----------------------------------------
 BYTE   PATT
  POIN2 Label_016952DC
//  #12 //030   ----------------------------------------
 BYTE   PATT
  POIN2 Label_01695241
//  #12 //031   ----------------------------------------
 BYTE   PATT
  POIN2 Label_016952C1
//  #12 //032   ----------------------------------------
 BYTE   PATT
  POIN2 Label_016952DC
//  #12 //033   ----------------------------------------
 BYTE   PATT
  POIN2 Label_01695241
//  #12 //034   ----------------------------------------
 BYTE   PATT
  POIN2 Label_016952C1
//  #12 //035   ----------------------------------------
 BYTE   PATT
  POIN2 Label_016952DC
//  #12 //036   ----------------------------------------
 BYTE   VOL   51*PokemonMysteryDungeonExplorersofSkyTimeGear_mvl/mxv
 BYTE   N04  Bn4  v088
 BYTE   W06
 BYTE   Bn4  v044
 BYTE   W06
 BYTE   En4  v088
 BYTE   W06
 BYTE   En4  v044
 BYTE   W06
 BYTE   Dn4  v088
 BYTE   W06
 BYTE   Dn4  v044
 BYTE   W06
 BYTE   En4  v088
 BYTE   W06
 BYTE   En4  v048
 BYTE   W06
 BYTE   En4  v056
 BYTE   W06
 BYTE   En4  v032
 BYTE   W06
 BYTE   En4  v040
 BYTE   W06
 BYTE   En4  v016
 BYTE   W30
//  #12 //037   ----------------------------------------
 BYTE   W96
//  #12 //038   ----------------------------------------
 BYTE   W92
 BYTE   W03
 BYTE   VOL   30*PokemonMysteryDungeonExplorersofSkyTimeGear_mvl/mxv
 BYTE   W01
//  #12 //039   ----------------------------------------
 BYTE   PATT
  POIN2 Label_01695199
//  #12 //040   ----------------------------------------
 BYTE   W96
//  #12 //041   ----------------------------------------
 BYTE   W96
//  #12 //042   ----------------------------------------
 BYTE   GoTo
  POIN2 Label_016951C1
 BYTE   FINE

//**************** Track 13 (Midi-Chn.12) ****************//

PokemonMysteryDungeonExplorersofSkyTimeGear_013:
//  #13 //000   ----------------------------------------
 BYTE   KEYSH   PokemonMysteryDungeonExplorersofSkyTimeGear_key+0
 BYTE   VOICE   4
 BYTE   MODT 0
 BYTE   LFOS 44
 BYTE   VOL   45*PokemonMysteryDungeonExplorersofSkyTimeGear_mvl/mxv
 BYTE   PAN   c_v-34
 BYTE   VOL   37*PokemonMysteryDungeonExplorersofSkyTimeGear_mvl/mxv
 BYTE   PAN   c_v-29
 BYTE   N01  Bn5  v020
 BYTE   W12
 BYTE   An5
 BYTE   W12
 BYTE   En5  v024
 BYTE   W12
 BYTE   Bn5  v028
 BYTE   W12
 BYTE   An5  v032
 BYTE   W12
 BYTE   En5
 BYTE   W12
 BYTE   Bn5  v036
 BYTE   W12
 BYTE   An5  v040
 BYTE   W12
//  #13 //001   ----------------------------------------
Label_0169537B:
 BYTE   N01  En5  v044
 BYTE   W12
 BYTE   Bn5  v048
 BYTE   W12
 BYTE   An5  v052
 BYTE   W12
 BYTE   En5  v056
 BYTE   W12
 BYTE   Bn5  v060
 BYTE   W12
 BYTE   An5  v056
 BYTE   W12
 BYTE   En5  v052
 BYTE   W12
 BYTE   Bn5  v048
 BYTE   W12
 BYTE   PEND 
//  #13 //002   ----------------------------------------
Label_01695395:
 BYTE   N01  An5  v044
 BYTE   W12
 BYTE   En5  v040
 BYTE   W12
 BYTE   Bn5  v036
 BYTE   W12
 BYTE   An5  v032
 BYTE   W12
 BYTE   En5
 BYTE   W12
 BYTE   Bn5  v028
 BYTE   W12
 BYTE   An5  v024
 BYTE   W12
 BYTE   En5  v020
 BYTE   W12
 BYTE   PEND 
//  #13 //003   ----------------------------------------
Label_016953AE:
 BYTE   N01  An5  v020
 BYTE   W12
 BYTE   En5  v024
 BYTE   W12
 BYTE   Dn5  v028
 BYTE   W12
 BYTE   An5
 BYTE   W12
 BYTE   En5  v032
 BYTE   W12
 BYTE   Dn5  v036
 BYTE   W12
 BYTE   An5  v040
 BYTE   W12
 BYTE   En5  v044
 BYTE   W12
 BYTE   PEND 
//  #13 //004   ----------------------------------------
Label_016953C7:
 BYTE   N01  Dn5  v048
 BYTE   W12
 BYTE   An5  v052
 BYTE   W12
 BYTE   En5  v056
 BYTE   W12
 BYTE   Dn5  v060
 BYTE   W12
 BYTE   An5  v064
 BYTE   W12
 BYTE   En5  v060
 BYTE   W12
 BYTE   Dn5  v056
 BYTE   W12
 BYTE   An5  v052
 BYTE   W12
 BYTE   PEND 
//  #13 //005   ----------------------------------------
Label_016953E1:
 BYTE   N01  En5  v048
 BYTE   W12
 BYTE   Dn5  v044
 BYTE   W12
 BYTE   An5  v036
 BYTE   W12
 BYTE   En5  v032
 BYTE   W12
 BYTE   Dn5
 BYTE   W12
 BYTE   An5  v028
 BYTE   W12
 BYTE   En5  v024
 BYTE   W12
 BYTE   Dn5  v020
 BYTE   W12
 BYTE   PEND 
//  #13 //006   ----------------------------------------
Label_016953FA:
 BYTE   VOL   37*PokemonMysteryDungeonExplorersofSkyTimeGear_mvl/mxv
 BYTE   PAN   c_v-29
 BYTE   N01  Bn5  v020
 BYTE   W12
 BYTE   An5
 BYTE   W12
 BYTE   En5  v024
 BYTE   W12
 BYTE   Bn5  v028
 BYTE   W12
 BYTE   An5  v032
 BYTE   W12
 BYTE   En5
 BYTE   W12
 BYTE   Bn5  v036
 BYTE   W12
 BYTE   An5  v040
 BYTE   W12
//  #13 //007   ----------------------------------------
 BYTE   PATT
  POIN2 Label_0169537B
//  #13 //008   ----------------------------------------
 BYTE   PATT
  POIN2 Label_01695395
//  #13 //009   ----------------------------------------
 BYTE   PATT
  POIN2 Label_016953AE
//  #13 //010   ----------------------------------------
 BYTE   PATT
  POIN2 Label_016953C7
//  #13 //011   ----------------------------------------
 BYTE   PATT
  POIN2 Label_016953E1
//  #13 //012   ----------------------------------------
 BYTE   N01  Gn5  v036
 BYTE   W12
 BYTE   Dn5  v040
 BYTE   W12
 BYTE   Cn5  v044
 BYTE   W12
 BYTE   Gn5  v048
 BYTE   W12
 BYTE   Dn5
 BYTE   W12
 BYTE   Cn5  v056
 BYTE   W12
 BYTE   Gn5
 BYTE   W12
 BYTE   Dn5  v060
 BYTE   W12
//  #13 //013   ----------------------------------------
 BYTE   Cn5  v068
 BYTE   W12
 BYTE   Gn5  v072
 BYTE   W12
 BYTE   Dn5  v076
 BYTE   W12
 BYTE   Cn5  v080
 BYTE   W12
 BYTE   An5  v088
 BYTE   W12
 BYTE   En5  v084
 BYTE   W12
 BYTE   Dn5  v080
 BYTE   W12
 BYTE   An5  v076
 BYTE   W12
//  #13 //014   ----------------------------------------
 BYTE   En5
 BYTE   W12
 BYTE   Dn5  v072
 BYTE   W12
 BYTE   An5  v068
 BYTE   W12
 BYTE   En5
 BYTE   W12
 BYTE   Dn5  v064
 BYTE   W12
 BYTE   An5  v060
 BYTE   W12
 BYTE   En5
 BYTE   W12
 BYTE   Dn5  v056
 BYTE   W12
//  #13 //015   ----------------------------------------
 BYTE   Gn5
 BYTE   W12
 BYTE   Dn5  v060
 BYTE   W12
 BYTE   Cn5
 BYTE   W12
 BYTE   Gn5  v064
 BYTE   W12
 BYTE   Dn5  v068
 BYTE   W12
 BYTE   Cn5
 BYTE   W12
 BYTE   Gn5  v072
 BYTE   W12
 BYTE   Dn5  v076
 BYTE   W12
//  #13 //016   ----------------------------------------
 BYTE   Cn5  v080
 BYTE   W12
 BYTE   Gn5
 BYTE   W12
 BYTE   Dn5  v084
 BYTE   W12
 BYTE   Cn5  v088
 BYTE   W12
 BYTE   An5
 BYTE   W12
 BYTE   En5  v092
 BYTE   W12
 BYTE   Dn5  v088
 BYTE   W12
 BYTE   An5  v084
 BYTE   W12
//  #13 //017   ----------------------------------------
 BYTE   En5  v080
 BYTE   W12
 BYTE   Dn5
 BYTE   W12
 BYTE   An5  v076
 BYTE   W12
 BYTE   En5  v072
 BYTE   W12
 BYTE   Dn5
 BYTE   W12
 BYTE   An5  v068
 BYTE   W12
 BYTE   En5  v064
 BYTE   W12
 BYTE   Dn5
 BYTE   W12
//  #13 //018   ----------------------------------------
 BYTE   Gn5  v060
 BYTE   W12
 BYTE   Dn5  v056
 BYTE   W12
 BYTE   Cn5  v060
 BYTE   W12
 BYTE   Gn5  v064
 BYTE   W12
 BYTE   Dn5  v068
 BYTE   W12
 BYTE   Cn5
 BYTE   W12
 BYTE   Gn5  v072
 BYTE   W12
 BYTE   Dn5  v076
 BYTE   W12
//  #13 //019   ----------------------------------------
 BYTE   Cn5  v080
 BYTE   W12
 BYTE   Gn5
 BYTE   W12
 BYTE   Dn5  v084
 BYTE   W12
 BYTE   Cn5  v088
 BYTE   W12
 BYTE   An5  v092
 BYTE   W12
 BYTE   En5  v088
 BYTE   W12
 BYTE   Dn5  v084
 BYTE   W12
 BYTE   An5
 BYTE   W12
//  #13 //020   ----------------------------------------
 BYTE   En5  v080
 BYTE   W12
 BYTE   Dn5  v076
 BYTE   W12
 BYTE   An5  v072
 BYTE   W12
 BYTE   En5
 BYTE   W12
 BYTE   Dn5  v068
 BYTE   W12
 BYTE   An5  v064
 BYTE   W12
 BYTE   En5  v060
 BYTE   W12
 BYTE   Dn5
 BYTE   W12
//  #13 //021   ----------------------------------------
 BYTE   Gn5  v056
 BYTE   W12
 BYTE   Dn5
 BYTE   W12
 BYTE   Cn5  v060
 BYTE   W12
 BYTE   Gn5  v064
 BYTE   W12
 BYTE   Dn5  v068
 BYTE   W12
 BYTE   Cn5
 BYTE   W12
 BYTE   Gn5  v072
 BYTE   W12
 BYTE   Dn5  v076
 BYTE   W12
//  #13 //022   ----------------------------------------
 BYTE   Cn5  v080
 BYTE   W12
 BYTE   Gn5
 BYTE   W12
 BYTE   Dn5  v084
 BYTE   W12
 BYTE   Cn5  v088
 BYTE   W12
 BYTE   An5  v092
 BYTE   W12
 BYTE   En5  v088
 BYTE   W12
 BYTE   Dn5
 BYTE   W12
 BYTE   An5  v084
 BYTE   W12
//  #13 //023   ----------------------------------------
 BYTE   En5  v080
 BYTE   W12
 BYTE   Dn5  v076
 BYTE   W12
 BYTE   An5
 BYTE   W12
 BYTE   En5
 BYTE   W12
 BYTE   Dn5  v080
 BYTE   W12
 BYTE   An5  v084
 BYTE   W12
 BYTE   En5  v088
 BYTE   W12
 BYTE   Dn5  v092
 BYTE   W12
//  #13 //024   ----------------------------------------
 BYTE   PAN   c_v-64
 BYTE   N01  Gn5  v104
 BYTE   W12
 BYTE   Dn5
 BYTE   W12
 BYTE   Cn5
 BYTE   W12
 BYTE   Gn5
 BYTE   W12
 BYTE   Dn5
 BYTE   W12
 BYTE   Cn5
 BYTE   W12
 BYTE   Gn5
 BYTE   W12
 BYTE   Dn5
 BYTE   W12
//  #13 //025   ----------------------------------------
Label_0169554B:
 BYTE   N01  Cn5  v104
 BYTE   W12
 BYTE   Gn5
 BYTE   W12
 BYTE   Dn5
 BYTE   W12
 BYTE   Cn5
 BYTE   W12
 BYTE   An5
 BYTE   W12
 BYTE   En5
 BYTE   W12
 BYTE   Dn5
 BYTE   W12
 BYTE   An5
 BYTE   W12
 BYTE   PEND 
//  #13 //026   ----------------------------------------
Label_0169555E:
 BYTE   N01  En5  v104
 BYTE   W12
 BYTE   Dn5
 BYTE   W12
 BYTE   An5
 BYTE   W12
 BYTE   En5
 BYTE   W12
 BYTE   Dn5
 BYTE   W12
 BYTE   An5
 BYTE   W12
 BYTE   En5
 BYTE   W12
 BYTE   Dn5
 BYTE   W12
 BYTE   PEND 
//  #13 //027   ----------------------------------------
Label_01695571:
 BYTE   N01  Gn5  v104
 BYTE   W12
 BYTE   Dn5
 BYTE   W12
 BYTE   Cn5
 BYTE   W12
 BYTE   Gn5
 BYTE   W12
 BYTE   Dn5
 BYTE   W12
 BYTE   Cn5
 BYTE   W12
 BYTE   Gn5
 BYTE   W12
 BYTE   Dn5
 BYTE   W12
 BYTE   PEND 
//  #13 //028   ----------------------------------------
 BYTE   PATT
  POIN2 Label_0169554B
//  #13 //029   ----------------------------------------
 BYTE   PATT
  POIN2 Label_0169555E
//  #13 //030   ----------------------------------------
 BYTE   PATT
  POIN2 Label_01695571
//  #13 //031   ----------------------------------------
 BYTE   PATT
  POIN2 Label_0169554B
//  #13 //032   ----------------------------------------
 BYTE   PATT
  POIN2 Label_0169555E
//  #13 //033   ----------------------------------------
 BYTE   PATT
  POIN2 Label_01695571
//  #13 //034   ----------------------------------------
 BYTE   N01  Cn5  v104
 BYTE   W12
 BYTE   Gn5
 BYTE   W12
 BYTE   Dn5
 BYTE   W12
 BYTE   Cn5
 BYTE   W12
 BYTE   An5
 BYTE   W12
 BYTE   En5
 BYTE   W12
 BYTE   Dn5
 BYTE   W12
 BYTE   An5  v100
 BYTE   W12
//  #13 //035   ----------------------------------------
 BYTE   En5  v096
 BYTE   W12
 BYTE   Dn5  v088
 BYTE   W12
 BYTE   An5  v084
 BYTE   W12
 BYTE   En5  v080
 BYTE   W12
 BYTE   Dn5  v076
 BYTE   W12
 BYTE   An5  v068
 BYTE   W12
 BYTE   En5  v064
 BYTE   W12
 BYTE   Dn5  v060
 BYTE   W12
//  #13 //036   ----------------------------------------
 BYTE   PAN   c_v-28
 BYTE   N01  Bn5  v056
 BYTE   W12
 BYTE   An5  v060
 BYTE   W12
 BYTE   En5  v064
 BYTE   W12
 BYTE   Bn5
 BYTE   W12
 BYTE   An5  v068
 BYTE   W12
 BYTE   En5  v072
 BYTE   W12
 BYTE   Bn5
 BYTE   W12
 BYTE   An5  v076
 BYTE   W12
//  #13 //037   ----------------------------------------
 BYTE   En5  v080
 BYTE   W12
 BYTE   Bn5
 BYTE   W12
 BYTE   An5  v084
 BYTE   W12
 BYTE   En5  v088
 BYTE   W12
 BYTE   Bn5
 BYTE   W12
 BYTE   An5  v084
 BYTE   W12
 BYTE   En5  v080
 BYTE   W12
 BYTE   Bn5
 BYTE   W12
//  #13 //038   ----------------------------------------
 BYTE   An5  v076
 BYTE   W12
 BYTE   En5  v072
 BYTE   W12
 BYTE   Bn5  v068
 BYTE   W12
 BYTE   An5  v064
 BYTE   W12
 BYTE   En5
 BYTE   W12
 BYTE   Bn5  v060
 BYTE   W12
 BYTE   An5  v056
 BYTE   W12
 BYTE   En5
 BYTE   W12
//  #13 //039   ----------------------------------------
 BYTE   An5  v052
 BYTE   W12
 BYTE   En5  v056
 BYTE   W12
 BYTE   Dn5
 BYTE   W12
 BYTE   An5
 BYTE   W12
 BYTE   En5  v060
 BYTE   W12
 BYTE   Dn5  v064
 BYTE   W12
 BYTE   An5
 BYTE   W12
 BYTE   En5  v068
 BYTE   W12
//  #13 //040   ----------------------------------------
 BYTE   Dn5
 BYTE   W12
 BYTE   An5  v072
 BYTE   W12
 BYTE   En5
 BYTE   W12
 BYTE   Dn5  v076
 BYTE   W12
 BYTE   An5
 BYTE   W12
 BYTE   En5
 BYTE   W12
 BYTE   Dn5
 BYTE   W12
 BYTE   An5  v072
 BYTE   W12
//  #13 //041   ----------------------------------------
 BYTE   En5  v068
 BYTE   W12
 BYTE   Dn5  v064
 BYTE   W12
 BYTE   An5  v060
 BYTE   W12
 BYTE   En5  v056
 BYTE   W12
 BYTE   Dn5
 BYTE   W12
 BYTE   An5  v052
 BYTE   W12
 BYTE   En5  v048
 BYTE   W12
 BYTE   Dn5
 BYTE   W12
//  #13 //042   ----------------------------------------
 BYTE   GoTo
  POIN2 Label_016953FA
 BYTE   FINE

//**************** Track 14 (Midi-Chn.13) ****************//

PokemonMysteryDungeonExplorersofSkyTimeGear_014:
//  #14 //000   ----------------------------------------
 BYTE   KEYSH   PokemonMysteryDungeonExplorersofSkyTimeGear_key+0
 BYTE   VOICE   4
 BYTE   MODT 0
 BYTE   LFOS 44
 BYTE   VOL   37*PokemonMysteryDungeonExplorersofSkyTimeGear_mvl/mxv
 BYTE   PAN   c_v+31
 BYTE   VOL   30*PokemonMysteryDungeonExplorersofSkyTimeGear_mvl/mxv
 BYTE   PAN   c_v+38
 BYTE   W06
 BYTE   N01  En5  v020
 BYTE   W12
 BYTE   Dn5  v024
 BYTE   W12
 BYTE   Bn4
 BYTE   W12
 BYTE   En5  v028
 BYTE   W12
 BYTE   Dn5  v032
 BYTE   W12
 BYTE   Bn4  v036
 BYTE   W12
 BYTE   En5
 BYTE   W12
 BYTE   Dn5  v044
 BYTE   W06
//  #14 //001   ----------------------------------------
Label_01695680:
 BYTE   W06
 BYTE   N01  Bn4  v048
 BYTE   W12
 BYTE   En5
 BYTE   W12
 BYTE   Dn5  v056
 BYTE   W12
 BYTE   Bn4
 BYTE   W12
 BYTE   En5  v060
 BYTE   W12
 BYTE   Dn5  v056
 BYTE   W12
 BYTE   Bn4  v048
 BYTE   W12
 BYTE   En5
 BYTE   W06
 BYTE   PEND 
//  #14 //002   ----------------------------------------
Label_01695698:
 BYTE   W06
 BYTE   N01  Dn5  v044
 BYTE   W12
 BYTE   Bn4  v040
 BYTE   W12
 BYTE   En5  v036
 BYTE   W12
 BYTE   Dn5  v032
 BYTE   W12
 BYTE   Bn4  v028
 BYTE   W12
 BYTE   En5  v024
 BYTE   W12
 BYTE   Dn5
 BYTE   W12
 BYTE   Bn4  v020
 BYTE   W06
 BYTE   PEND 
//  #14 //003   ----------------------------------------
Label_016956B2:
 BYTE   W06
 BYTE   N01  Dn5  v024
 BYTE   W12
 BYTE   Bn4
 BYTE   W12
 BYTE   An4  v028
 BYTE   W12
 BYTE   Dn5  v032
 BYTE   W12
 BYTE   Bn4  v036
 BYTE   W12
 BYTE   An4
 BYTE   W12
 BYTE   Dn5  v044
 BYTE   W12
 BYTE   Bn4
 BYTE   W06
 BYTE   PEND 
//  #14 //004   ----------------------------------------
Label_016956CA:
 BYTE   W06
 BYTE   N01  An4  v048
 BYTE   W12
 BYTE   Dn5  v052
 BYTE   W12
 BYTE   Bn4  v056
 BYTE   W12
 BYTE   An4  v060
 BYTE   W12
 BYTE   Dn5  v064
 BYTE   W12
 BYTE   Bn4  v056
 BYTE   W12
 BYTE   An4  v052
 BYTE   W12
 BYTE   Dn5  v048
 BYTE   W06
 BYTE   PEND 
//  #14 //005   ----------------------------------------
Label_016956E5:
 BYTE   W06
 BYTE   N01  Bn4  v044
 BYTE   W12
 BYTE   An4  v040
 BYTE   W12
 BYTE   Dn5  v036
 BYTE   W12
 BYTE   Bn4  v032
 BYTE   W12
 BYTE   An4  v028
 BYTE   W12
 BYTE   Dn5  v024
 BYTE   W12
 BYTE   Bn4  v020
 BYTE   W12
 BYTE   An4  v016
 BYTE   W06
 BYTE   PEND 
//  #14 //006   ----------------------------------------
Label_01695700:
 BYTE   VOL   30*PokemonMysteryDungeonExplorersofSkyTimeGear_mvl/mxv
 BYTE   PAN   c_v+38
 BYTE   W06
 BYTE   N01  En5  v020
 BYTE   W12
 BYTE   Dn5  v024
 BYTE   W12
 BYTE   Bn4
 BYTE   W12
 BYTE   En5  v028
 BYTE   W12
 BYTE   Dn5  v032
 BYTE   W12
 BYTE   Bn4  v036
 BYTE   W12
 BYTE   En5
 BYTE   W12
 BYTE   Dn5  v044
 BYTE   W06
//  #14 //007   ----------------------------------------
 BYTE   PATT
  POIN2 Label_01695680
//  #14 //008   ----------------------------------------
 BYTE   PATT
  POIN2 Label_01695698
//  #14 //009   ----------------------------------------
 BYTE   PATT
  POIN2 Label_016956B2
//  #14 //010   ----------------------------------------
 BYTE   PATT
  POIN2 Label_016956CA
//  #14 //011   ----------------------------------------
 BYTE   PATT
  POIN2 Label_016956E5
//  #14 //012   ----------------------------------------
 BYTE   W06
 BYTE   N01  Cn5  v036
 BYTE   W12
 BYTE   An4  v040
 BYTE   W12
 BYTE   Gn4  v044
 BYTE   W12
 BYTE   Cn5  v048
 BYTE   W12
 BYTE   An4  v052
 BYTE   W12
 BYTE   Gn4  v056
 BYTE   W12
 BYTE   Cn5  v060
 BYTE   W12
 BYTE   An4  v064
 BYTE   W06
//  #14 //013   ----------------------------------------
 BYTE   W06
 BYTE   Gn4  v068
 BYTE   W12
 BYTE   Cn5  v072
 BYTE   W12
 BYTE   An4  v076
 BYTE   W12
 BYTE   An4  v084
 BYTE   W12
 BYTE   Dn5
 BYTE   W12
 BYTE   Bn4  v080
 BYTE   W12
 BYTE   An4
 BYTE   W12
 BYTE   Dn5  v076
 BYTE   W06
//  #14 //014   ----------------------------------------
 BYTE   W06
 BYTE   Bn4  v072
 BYTE   W12
 BYTE   An4
 BYTE   W12
 BYTE   Dn5  v068
 BYTE   W12
 BYTE   Bn4  v064
 BYTE   W12
 BYTE   An4
 BYTE   W12
 BYTE   Dn5  v060
 BYTE   W12
 BYTE   Bn4  v056
 BYTE   W12
 BYTE   An4
 BYTE   W06
//  #14 //015   ----------------------------------------
Label_0169577C:
 BYTE   W06
 BYTE   N01  Cn5  v056
 BYTE   W12
 BYTE   An4  v060
 BYTE   W12
 BYTE   Gn4  v064
 BYTE   W12
 BYTE   Cn5
 BYTE   W12
 BYTE   An4  v068
 BYTE   W12
 BYTE   Gn4  v072
 BYTE   W12
 BYTE   Cn5  v076
 BYTE   W12
 BYTE   An4
 BYTE   W06
 BYTE   PEND 
//  #14 //016   ----------------------------------------
 BYTE   W06
 BYTE   Gn4  v080
 BYTE   W12
 BYTE   Cn5  v084
 BYTE   W12
 BYTE   An4
 BYTE   W12
 BYTE   An4  v088
 BYTE   W12
 BYTE   Dn5  v092
 BYTE   W12
 BYTE   Bn4  v088
 BYTE   W12
 BYTE   An4
 BYTE   W12
 BYTE   Dn5  v084
 BYTE   W06
//  #14 //017   ----------------------------------------
 BYTE   W06
 BYTE   Bn4  v080
 BYTE   W12
 BYTE   An4  v076
 BYTE   W12
 BYTE   Dn5
 BYTE   W12
 BYTE   Bn4  v072
 BYTE   W12
 BYTE   An4  v068
 BYTE   W12
 BYTE   Dn5
 BYTE   W12
 BYTE   Bn4  v064
 BYTE   W12
 BYTE   An4  v060
 BYTE   W06
//  #14 //018   ----------------------------------------
 BYTE   PATT
  POIN2 Label_0169577C
//  #14 //019   ----------------------------------------
 BYTE   W06
 BYTE   N01  Gn4  v080
 BYTE   W12
 BYTE   Cn5  v084
 BYTE   W12
 BYTE   An4
 BYTE   W12
 BYTE   An4  v088
 BYTE   W12
 BYTE   Dn5
 BYTE   W12
 BYTE   Bn4
 BYTE   W12
 BYTE   An4  v084
 BYTE   W12
 BYTE   Dn5  v080
 BYTE   W06
//  #14 //020   ----------------------------------------
 BYTE   W06
 BYTE   Bn4  v076
 BYTE   W12
 BYTE   An4
 BYTE   W12
 BYTE   Dn5  v072
 BYTE   W12
 BYTE   Bn4  v068
 BYTE   W12
 BYTE   An4  v064
 BYTE   W12
 BYTE   Dn5
 BYTE   W12
 BYTE   Bn4  v060
 BYTE   W12
 BYTE   An4  v056
 BYTE   W06
//  #14 //021   ----------------------------------------
 BYTE   W06
 BYTE   Cn5
 BYTE   W12
 BYTE   An4  v060
 BYTE   W12
 BYTE   Gn4
 BYTE   W12
 BYTE   Cn5  v064
 BYTE   W12
 BYTE   An4  v068
 BYTE   W12
 BYTE   Gn4  v072
 BYTE   W12
 BYTE   Cn5  v076
 BYTE   W12
 BYTE   An4
 BYTE   W06
//  #14 //022   ----------------------------------------
 BYTE   W06
 BYTE   Gn4  v080
 BYTE   W12
 BYTE   Cn5  v084
 BYTE   W12
 BYTE   An4  v088
 BYTE   W12
 BYTE   N01
 BYTE   W12
 BYTE   Dn5  v092
 BYTE   W12
 BYTE   Bn4  v088
 BYTE   W12
 BYTE   An4  v084
 BYTE   W12
 BYTE   Dn5  v080
 BYTE   W06
//  #14 //023   ----------------------------------------
 BYTE   W06
 BYTE   Bn4
 BYTE   W12
 BYTE   An4  v076
 BYTE   W12
 BYTE   Dn5
 BYTE   W12
 BYTE   Bn4  v080
 BYTE   W12
 BYTE   An4  v084
 BYTE   W12
 BYTE   Dn5  v088
 BYTE   W12
 BYTE   Bn4
 BYTE   W12
 BYTE   An4  v092
 BYTE   W06
//  #14 //024   ----------------------------------------
 BYTE   PAN   c_v+63
 BYTE   W06
 BYTE   N01  Cn5  v104
 BYTE   W12
 BYTE   An4
 BYTE   W12
 BYTE   Gn4
 BYTE   W12
 BYTE   Cn5
 BYTE   W12
 BYTE   An4
 BYTE   W12
 BYTE   Gn4
 BYTE   W12
 BYTE   Cn5
 BYTE   W12
 BYTE   An4
 BYTE   W06
//  #14 //025   ----------------------------------------
Label_0169584F:
 BYTE   W06
 BYTE   N01  Gn4  v104
 BYTE   W12
 BYTE   Cn5
 BYTE   W12
 BYTE   An4
 BYTE   W12
 BYTE   Gn4
 BYTE   W12
 BYTE   Dn5
 BYTE   W12
 BYTE   An4
 BYTE   W12
 BYTE   Fs4
 BYTE   W12
 BYTE   Dn5
 BYTE   W06
 BYTE   PEND 
//  #14 //026   ----------------------------------------
Label_01695863:
 BYTE   W06
 BYTE   N01  An4  v104
 BYTE   W12
 BYTE   Fs4
 BYTE   W12
 BYTE   Dn5
 BYTE   W12
 BYTE   An4
 BYTE   W12
 BYTE   Fs4
 BYTE   W12
 BYTE   Dn5
 BYTE   W12
 BYTE   An4
 BYTE   W12
 BYTE   Fs4
 BYTE   W06
 BYTE   PEND 
//  #14 //027   ----------------------------------------
Label_01695877:
 BYTE   W06
 BYTE   N01  Cn5  v104
 BYTE   W12
 BYTE   An4
 BYTE   W12
 BYTE   Gn4
 BYTE   W12
 BYTE   Cn5
 BYTE   W12
 BYTE   An4
 BYTE   W12
 BYTE   Gn4
 BYTE   W12
 BYTE   Cn5
 BYTE   W12
 BYTE   An4
 BYTE   W06
 BYTE   PEND 
//  #14 //028   ----------------------------------------
 BYTE   PATT
  POIN2 Label_0169584F
//  #14 //029   ----------------------------------------
 BYTE   PATT
  POIN2 Label_01695863
//  #14 //030   ----------------------------------------
 BYTE   PATT
  POIN2 Label_01695877
//  #14 //031   ----------------------------------------
 BYTE   PATT
  POIN2 Label_0169584F
//  #14 //032   ----------------------------------------
 BYTE   PATT
  POIN2 Label_01695863
//  #14 //033   ----------------------------------------
 BYTE   PATT
  POIN2 Label_01695877
//  #14 //034   ----------------------------------------
 BYTE   W06
 BYTE   N01  Gn4  v104
 BYTE   W12
 BYTE   Cn5
 BYTE   W12
 BYTE   An4
 BYTE   W12
 BYTE   Gn4
 BYTE   W12
 BYTE   Dn5
 BYTE   W12
 BYTE   An4
 BYTE   W12
 BYTE   Fs4
 BYTE   W12
 BYTE   Dn5  v100
 BYTE   W06
//  #14 //035   ----------------------------------------
 BYTE   W06
 BYTE   An4  v092
 BYTE   W12
 BYTE   Fs4  v088
 BYTE   W12
 BYTE   Dn5  v084
 BYTE   W12
 BYTE   An4  v076
 BYTE   W12
 BYTE   Fs4  v072
 BYTE   W12
 BYTE   Dn5  v068
 BYTE   W12
 BYTE   An4  v064
 BYTE   W12
 BYTE   Fs4  v056
 BYTE   W06
//  #14 //036   ----------------------------------------
 BYTE   PAN   c_v+37
 BYTE   W06
 BYTE   N01  En5  v060
 BYTE   W12
 BYTE   Dn5  v064
 BYTE   W12
 BYTE   Bn4
 BYTE   W12
 BYTE   En5  v068
 BYTE   W12
 BYTE   Dn5
 BYTE   W12
 BYTE   Bn4  v072
 BYTE   W12
 BYTE   En5  v076
 BYTE   W12
 BYTE   Dn5
 BYTE   W06
//  #14 //037   ----------------------------------------
 BYTE   W06
 BYTE   Bn4  v080
 BYTE   W12
 BYTE   En5  v084
 BYTE   W12
 BYTE   Dn5
 BYTE   W12
 BYTE   Bn4  v088
 BYTE   W12
 BYTE   En5
 BYTE   W12
 BYTE   Dn5  v084
 BYTE   W12
 BYTE   Bn4  v080
 BYTE   W12
 BYTE   En5  v076
 BYTE   W06
//  #14 //038   ----------------------------------------
 BYTE   W06
 BYTE   Dn5  v072
 BYTE   W12
 BYTE   Bn4
 BYTE   W12
 BYTE   En5  v068
 BYTE   W12
 BYTE   Dn5  v064
 BYTE   W12
 BYTE   Bn4  v060
 BYTE   W12
 BYTE   En5  v056
 BYTE   W12
 BYTE   Dn5
 BYTE   W12
 BYTE   Bn4  v052
 BYTE   W06
//  #14 //039   ----------------------------------------
 BYTE   W06
 BYTE   Dn5
 BYTE   W12
 BYTE   Bn4  v056
 BYTE   W12
 BYTE   An4
 BYTE   W12
 BYTE   Dn5  v060
 BYTE   W12
 BYTE   Bn4
 BYTE   W12
 BYTE   An4  v064
 BYTE   W12
 BYTE   Dn5
 BYTE   W12
 BYTE   Bn4  v068
 BYTE   W06
//  #14 //040   ----------------------------------------
 BYTE   W06
 BYTE   An4
 BYTE   W12
 BYTE   Dn5  v072
 BYTE   W12
 BYTE   Bn4  v076
 BYTE   W12
 BYTE   An4
 BYTE   W12
 BYTE   Dn5  v080
 BYTE   W12
 BYTE   Bn4  v076
 BYTE   W12
 BYTE   An4  v072
 BYTE   W12
 BYTE   Dn5  v068
 BYTE   W06
//  #14 //041   ----------------------------------------
 BYTE   W06
 BYTE   Bn4  v064
 BYTE   W12
 BYTE   An4
 BYTE   W12
 BYTE   Dn5  v060
 BYTE   W12
 BYTE   Bn4  v056
 BYTE   W12
 BYTE   An4  v052
 BYTE   W12
 BYTE   Dn5
 BYTE   W12
 BYTE   Bn4  v048
 BYTE   W12
 BYTE   An4  v044
 BYTE   W06
//  #14 //042   ----------------------------------------
 BYTE   GoTo
  POIN2 Label_01695700
 BYTE   FINE

//**************** Track 15 (Midi-Chn.14) ****************//

PokemonMysteryDungeonExplorersofSkyTimeGear_015:
//  #15 //000   ----------------------------------------
 BYTE   KEYSH   PokemonMysteryDungeonExplorersofSkyTimeGear_key+0
 BYTE   VOICE   76
 BYTE   MODT 0
 BYTE   LFOS 44
 BYTE   VOL   35*PokemonMysteryDungeonExplorersofSkyTimeGear_mvl/mxv
 BYTE   PAN   c_v+20
 BYTE   W96
//  #15 //001   ----------------------------------------
 BYTE   W96
//  #15 //002   ----------------------------------------
 BYTE   W96
//  #15 //003   ----------------------------------------
 BYTE   W96
//  #15 //004   ----------------------------------------
 BYTE   W96
//  #15 //005   ----------------------------------------
 BYTE   W96
//  #15 //006   ----------------------------------------
Label_0169597A:
 BYTE   W96
//  #15 //007   ----------------------------------------
 BYTE   W96
//  #15 //008   ----------------------------------------
 BYTE   W96
//  #15 //009   ----------------------------------------
 BYTE   W96
//  #15 //010   ----------------------------------------
 BYTE   W96
//  #15 //011   ----------------------------------------
 BYTE   W96
//  #15 //012   ----------------------------------------
 BYTE   W68
 BYTE   W03
 BYTE   PAN   c_v+10
 BYTE   W01
 BYTE   N11  Bn3  v104
 BYTE   W24
//  #15 //013   ----------------------------------------
 BYTE   An3
 BYTE   W24
 BYTE   Bn3
 BYTE   W24
 BYTE   En4
 BYTE   W48
//  #15 //014   ----------------------------------------
 BYTE   W24
 BYTE   Dn4
 BYTE   W72
//  #15 //015   ----------------------------------------
 BYTE   W72
 BYTE   Bn3  v100
 BYTE   W24
//  #15 //016   ----------------------------------------
Label_01695996:
 BYTE   N11  An3  v100
 BYTE   W24
 BYTE   Bn3
 BYTE   W24
 BYTE   En4
 BYTE   W48
 BYTE   PEND 
//  #15 //017   ----------------------------------------
 BYTE   W24
 BYTE   Dn4
 BYTE   W72
//  #15 //018   ----------------------------------------
 BYTE   W72
 BYTE   Bn3
 BYTE   W24
//  #15 //019   ----------------------------------------
 BYTE   PATT
  POIN2 Label_01695996
//  #15 //020   ----------------------------------------
 BYTE   W24
 BYTE   N11  Dn4  v100
 BYTE   W72
//  #15 //021   ----------------------------------------
 BYTE   W72
 BYTE   Bn3
 BYTE   W24
//  #15 //022   ----------------------------------------
 BYTE   PATT
  POIN2 Label_01695996
//  #15 //023   ----------------------------------------
 BYTE   W24
 BYTE   N11  Dn4  v100
 BYTE   W36
 BYTE   En4
 BYTE   W32
 BYTE   W03
 BYTE   PAN   c_v+20
 BYTE   W01
//  #15 //024   ----------------------------------------
Label_016959C2:
 BYTE   N05  Gn4  v100
 BYTE   W12
 BYTE   Gn4  v072
 BYTE   W12
 BYTE   Gn4  v056
 BYTE   W12
 BYTE   Gn4  v040
 BYTE   W12
 BYTE   Gn4  v024
 BYTE   W12
 BYTE   Gn4  v020
 BYTE   W12
 BYTE   Bn3  v100
 BYTE   W12
 BYTE   Bn3  v048
 BYTE   W12
 BYTE   PEND 
//  #15 //025   ----------------------------------------
Label_016959DC:
 BYTE   N05  Bn3  v020
 BYTE   W12
 BYTE   Dn4  v100
 BYTE   W12
 BYTE   Dn4  v044
 BYTE   W12
 BYTE   Dn4  v016
 BYTE   W12
 BYTE   Fs4  v100
 BYTE   W12
 BYTE   Fs4  v072
 BYTE   W12
 BYTE   Fs4  v056
 BYTE   W12
 BYTE   Fs4  v040
 BYTE   W12
 BYTE   PEND 
//  #15 //026   ----------------------------------------
Label_016959F6:
 BYTE   N05  Fs4  v024
 BYTE   W12
 BYTE   Fs4  v020
 BYTE   W12
 BYTE   En4  v100
 BYTE   W12
 BYTE   En4  v044
 BYTE   W12
 BYTE   En4  v012
 BYTE   W12
 BYTE   An4  v100
 BYTE   W12
 BYTE   An4  v048
 BYTE   W12
 BYTE   An4  v012
 BYTE   W12
 BYTE   PEND 
//  #15 //027   ----------------------------------------
 BYTE   PATT
  POIN2 Label_016959C2
//  #15 //028   ----------------------------------------
 BYTE   PATT
  POIN2 Label_016959DC
//  #15 //029   ----------------------------------------
Label_01695A1A:
 BYTE   N05  Fs4  v024
 BYTE   W12
 BYTE   Fs4  v020
 BYTE   W12
 BYTE   Dn4  v100
 BYTE   W12
 BYTE   Dn4  v072
 BYTE   W12
 BYTE   Dn4  v056
 BYTE   W12
 BYTE   Dn4  v040
 BYTE   W12
 BYTE   Dn4  v024
 BYTE   W12
 BYTE   Dn4  v020
 BYTE   W12
 BYTE   PEND 
//  #15 //030   ----------------------------------------
 BYTE   PATT
  POIN2 Label_016959C2
//  #15 //031   ----------------------------------------
 BYTE   PATT
  POIN2 Label_016959DC
//  #15 //032   ----------------------------------------
 BYTE   PATT
  POIN2 Label_016959F6
//  #15 //033   ----------------------------------------
 BYTE   PATT
  POIN2 Label_016959C2
//  #15 //034   ----------------------------------------
 BYTE   PATT
  POIN2 Label_016959DC
//  #15 //035   ----------------------------------------
 BYTE   PATT
  POIN2 Label_01695A1A
//  #15 //036   ----------------------------------------
 BYTE   W96
//  #15 //037   ----------------------------------------
 BYTE   W96
//  #15 //038   ----------------------------------------
 BYTE   W96
//  #15 //039   ----------------------------------------
 BYTE   W96
//  #15 //040   ----------------------------------------
 BYTE   W96
//  #15 //041   ----------------------------------------
 BYTE   W96
//  #15 //042   ----------------------------------------
 BYTE   GoTo
  POIN2 Label_0169597A
 BYTE   FINE

//******************************************************//
	ALIGN 4

PokemonMysteryDungeonExplorersofSkyTimeGear:
	BYTE	15	// NumTrks
	BYTE	0	// NumBlks
	BYTE	PokemonMysteryDungeonExplorersofSkyTimeGear_pri	// Priority
	BYTE	PokemonMysteryDungeonExplorersofSkyTimeGear_rev	// Reverb.
    
	POIN2	PokemonMysteryDungeonExplorersofSkyTimeGear_grp
    
	POIN2	PokemonMysteryDungeonExplorersofSkyTimeGear_001
	POIN2	PokemonMysteryDungeonExplorersofSkyTimeGear_002
	POIN2	PokemonMysteryDungeonExplorersofSkyTimeGear_003
	POIN2	PokemonMysteryDungeonExplorersofSkyTimeGear_004
	POIN2	PokemonMysteryDungeonExplorersofSkyTimeGear_005
	POIN2	PokemonMysteryDungeonExplorersofSkyTimeGear_006
	POIN2	PokemonMysteryDungeonExplorersofSkyTimeGear_007
	POIN2	PokemonMysteryDungeonExplorersofSkyTimeGear_008
	POIN2	PokemonMysteryDungeonExplorersofSkyTimeGear_009
	POIN2	PokemonMysteryDungeonExplorersofSkyTimeGear_010
	POIN2	PokemonMysteryDungeonExplorersofSkyTimeGear_011
	POIN2	PokemonMysteryDungeonExplorersofSkyTimeGear_012
	POIN2	PokemonMysteryDungeonExplorersofSkyTimeGear_013
	POIN2	PokemonMysteryDungeonExplorersofSkyTimeGear_014
	POIN2	PokemonMysteryDungeonExplorersofSkyTimeGear_015

	
