//Event file generated from Sappy .s format.
	#include "MPlayDef.event"

	#define	MegamanXStormEagleAReliableChair_grp  voicegroup000
	#define	MegamanXStormEagleAReliableChair_pri  0
	#define	MegamanXStormEagleAReliableChair_rev  0
	#define	MegamanXStormEagleAReliableChair_mvl  127
	#define	MegamanXStormEagleAReliableChair_key  0
	#define	MegamanXStormEagleAReliableChair_tbs  1
	#define	MegamanXStormEagleAReliableChair_exg  0
	#define	MegamanXStormEagleAReliableChair_cmp  1

	// .rodata
	//	MegamanXStormEagleAReliableChair
	ALIGN 4


//**************** Track 1 (Midi-Chn.0) ****************//

MegamanXStormEagleAReliableChair_001:
// 000   ----------------------------------------
 BYTE   KEYSH   MegamanXStormEagleAReliableChair_key+0
Label_0_016045E2:
 BYTE   TEMPO   180*MegamanXStormEagleAReliableChair_tbs/2
 BYTE   VOICE   30
 BYTE   MODT 0
 BYTE   CnM2  v000
 BYTE   LFOS 0
 BYTE   CnM2  v044
 BYTE   VOL   50*MegamanXStormEagleAReliableChair_mvl/mxv
 BYTE   PAN   c_v-32
 BYTE   N12  Bn1  v088
 BYTE   W12
 BYTE   N12
 BYTE   W12
 BYTE   Fs2
 BYTE   N12  Bn2
 BYTE   W12
 BYTE   Bn1
 BYTE   W12
 BYTE   N12
 BYTE   W12
 BYTE   Fs2
 BYTE   N12  Bn2
 BYTE   W12
 BYTE   Bn1
 BYTE   W12
 BYTE   N72  En2
 BYTE   N72  An2
 BYTE   W12
// 001   ----------------------------------------
Label_0_01604609:
 BYTE   W60
 BYTE   N12  Fs1  v088
 BYTE   W12
 BYTE   An1
 BYTE   W12
 BYTE   As1
 BYTE   W12
 BYTE   PEND 
// 002   ----------------------------------------
 BYTE   Bn1
 BYTE   W12
 BYTE   N12
 BYTE   W12
 BYTE   Fs2
 BYTE   N12  Bn2
 BYTE   W12
 BYTE   Bn1
 BYTE   W12
 BYTE   N12
 BYTE   W12
 BYTE   Fs2
 BYTE   N12  Bn2
 BYTE   W12
 BYTE   Bn1
 BYTE   W12
 BYTE   N72  En2
 BYTE   N72  An2
 BYTE   W12
 BYTE   PATT
  POIN2 Label_0_01604609
// 003   ----------------------------------------
Label_0_0160462F:
 BYTE   N60  Bn2  v088
 BYTE   W60
 BYTE   N12  As2
 BYTE   W12
 BYTE   Bn2
 BYTE   W12
 BYTE   Cs3
 BYTE   W12
 BYTE   PEND 
// 004   ----------------------------------------
Label_0_0160463B:
 BYTE   N08  Dn3  v088
 BYTE   W08
 BYTE   N07  Cs3
 BYTE   W07
 BYTE   N08  Bn2
 BYTE   W09
 BYTE   N72  Fs3
 BYTE   W72
 BYTE   PEND 
// 005   ----------------------------------------
Label_0_01604649:
 BYTE   N36  Gn3  v088
 BYTE   W36
 BYTE   N06  Fs3
 BYTE   W06
 BYTE   En3
 BYTE   W06
 BYTE   N36  Fs3
 BYTE   W36
 BYTE   N06  En3
 BYTE   W06
 BYTE   Dn3
 BYTE   W06
 BYTE   PEND 
// 006   ----------------------------------------
Label_0_0160465B:
 BYTE   N36  Cs3  v088
 BYTE   W36
 BYTE   N06  Fs2
 BYTE   W06
 BYTE   Fn2
 BYTE   W06
 BYTE   N48  Fs2
 BYTE   W48
 BYTE   PEND 
 BYTE   PATT
  POIN2 Label_0_0160462F
 BYTE   PATT
  POIN2 Label_0_0160463B
 BYTE   PATT
  POIN2 Label_0_01604649
// 007   ----------------------------------------
Label_0_01604677:
 BYTE   N48  Cs3  v088
 BYTE   W48
 BYTE   Fs3
 BYTE   W48
 BYTE   PEND 
// 008   ----------------------------------------
Label_0_0160467E:
 BYTE   N12  Gn3  v088
 BYTE   W12
 BYTE   Dn3
 BYTE   W12
 BYTE   Gn3
 BYTE   W12
 BYTE   Bn3
 BYTE   W12
 BYTE   Gn3
 BYTE   W12
 BYTE   Dn3
 BYTE   W12
 BYTE   Gn3
 BYTE   W12
 BYTE   Bn3
 BYTE   W12
 BYTE   PEND 
// 009   ----------------------------------------
Label_0_01604691:
 BYTE   N12  Cs4  v088
 BYTE   W12
 BYTE   Bn3
 BYTE   W12
 BYTE   As3
 BYTE   W12
 BYTE   Cs4
 BYTE   W12
 BYTE   Bn3
 BYTE   W12
 BYTE   As3
 BYTE   W12
 BYTE   Cs4
 BYTE   W12
 BYTE   As3
 BYTE   W12
 BYTE   PEND 
// 010   ----------------------------------------
Label_0_016046A4:
 BYTE   N48  Dn4  v088
 BYTE   W48
 BYTE   En4
 BYTE   W48
 BYTE   PEND 
// 011   ----------------------------------------
Label_0_016046AB:
 BYTE   N24  Fs4  v088
 BYTE   W24
 BYTE   N12  En4
 BYTE   W12
 BYTE   N60  Dn4
 BYTE   W60
 BYTE   PEND 
 BYTE   PATT
  POIN2 Label_0_0160467E
// 012   ----------------------------------------
Label_0_016046BB:
 BYTE   N12  Cs4  v088
 BYTE   W12
 BYTE   Bn3
 BYTE   W12
 BYTE   As3
 BYTE   W12
 BYTE   Cs4
 BYTE   W12
 BYTE   Bn3
 BYTE   W12
 BYTE   As3
 BYTE   W12
 BYTE   Cs4
 BYTE   W12
 BYTE   N06  Bn3
 BYTE   W06
 BYTE   As3
 BYTE   W06
 BYTE   PEND 
// 013   ----------------------------------------
Label_0_016046D1:
 BYTE   N36  Bn3  v088
 BYTE   W36
 BYTE   N06  Fs3
 BYTE   W06
 BYTE   En3
 BYTE   W06
 BYTE   N36  Fs3
 BYTE   W36
 BYTE   N06  Dn3
 BYTE   W06
 BYTE   Cs3
 BYTE   W06
 BYTE   PEND 
// 014   ----------------------------------------
Label_0_016046E3:
 BYTE   N36  Dn3  v088
 BYTE   W36
 BYTE   N06  Bn2
 BYTE   W06
 BYTE   An2
 BYTE   W06
 BYTE   N36  Bn2
 BYTE   W36
 BYTE   N06  Fs2
 BYTE   W06
 BYTE   En2
 BYTE   W06
 BYTE   PEND 
// 015   ----------------------------------------
Label_0_016046F5:
 BYTE   N36  Fs2  v088
 BYTE   W36
 BYTE   N06  Dn2
 BYTE   W06
 BYTE   Cn2
 BYTE   W06
 BYTE   N36  Dn2
 BYTE   W36
 BYTE   N06  Bn1
 BYTE   W06
 BYTE   An1
 BYTE   W06
 BYTE   PEND 
// 016   ----------------------------------------
 BYTE   N96  Bn1
 BYTE   W96
// 017   ----------------------------------------
Label_0_0160470A:
 BYTE   N12  Bn1  v088
 BYTE   W12
 BYTE   N12
 BYTE   W12
 BYTE   Fs2
 BYTE   N12  Bn2
 BYTE   W12
 BYTE   Bn1
 BYTE   W12
 BYTE   N12
 BYTE   W12
 BYTE   Fs2
 BYTE   N12  Bn2
 BYTE   W12
 BYTE   Bn1
 BYTE   W12
 BYTE   N72  En2
 BYTE   N72  An2
 BYTE   W12
 BYTE   PEND 
 BYTE   PATT
  POIN2 Label_0_01604609
 BYTE   PATT
  POIN2 Label_0_0160470A
 BYTE   PATT
  POIN2 Label_0_01604609
// 018   ----------------------------------------
 BYTE   PAN   c_v-64
 BYTE   N60  Bn2  v088
 BYTE   W60
 BYTE   N12  As2
 BYTE   W12
 BYTE   Bn2
 BYTE   W12
 BYTE   Cs3
 BYTE   W12
 BYTE   PATT
  POIN2 Label_0_0160463B
 BYTE   PATT
  POIN2 Label_0_01604649
 BYTE   PATT
  POIN2 Label_0_0160465B
 BYTE   PATT
  POIN2 Label_0_0160462F
 BYTE   PATT
  POIN2 Label_0_0160463B
 BYTE   PATT
  POIN2 Label_0_01604649
 BYTE   PATT
  POIN2 Label_0_01604677
 BYTE   PATT
  POIN2 Label_0_0160467E
 BYTE   PATT
  POIN2 Label_0_01604691
 BYTE   PATT
  POIN2 Label_0_016046A4
 BYTE   PATT
  POIN2 Label_0_016046AB
 BYTE   PATT
  POIN2 Label_0_0160467E
 BYTE   PATT
  POIN2 Label_0_016046BB
 BYTE   PATT
  POIN2 Label_0_016046D1
 BYTE   PATT
  POIN2 Label_0_016046E3
 BYTE   PATT
  POIN2 Label_0_016046F5
// 019   ----------------------------------------
 BYTE   N96  Bn1  v088
 BYTE   W96
 BYTE   PATT
  POIN2 Label_0_0160470A
 BYTE   PATT
  POIN2 Label_0_01604609
 BYTE   PATT
  POIN2 Label_0_0160470A
 BYTE   PATT
  POIN2 Label_0_01604609
// 020   ----------------------------------------
 BYTE   GoTo
  POIN2 Label_0_016045E2
 BYTE   FINE

//**************** Track 2 (Midi-Chn.1) ****************//

MegamanXStormEagleAReliableChair_002:
// 000   ----------------------------------------
 BYTE   KEYSH   MegamanXStormEagleAReliableChair_key+0
Label_1_016047B2:
 BYTE   VOICE   73
 BYTE   MODT 0
 BYTE   CnM2  v000
 BYTE   LFOS 0
 BYTE   CnM2  v044
 BYTE   VOL   21*MegamanXStormEagleAReliableChair_mvl/mxv
 BYTE   PAN   c_v+63
 BYTE   W96
// 001   ----------------------------------------
 BYTE   W96
// 002   ----------------------------------------
 BYTE   W96
// 003   ----------------------------------------
 BYTE   W96
// 004   ----------------------------------------
Label_1_016047C2:
 BYTE   N60  Bn3  v088
 BYTE   W60
 BYTE   N12  As3
 BYTE   W12
 BYTE   Bn3
 BYTE   W12
 BYTE   Cs4
 BYTE   W12
 BYTE   PEND 
// 005   ----------------------------------------
Label_1_016047CE:
 BYTE   N08  Dn4  v088
 BYTE   W08
 BYTE   N07  Cs4
 BYTE   W07
 BYTE   N08  Bn3
 BYTE   W09
 BYTE   N72  Fs4
 BYTE   W72
 BYTE   PEND 
// 006   ----------------------------------------
Label_1_016047DC:
 BYTE   N36  Gn4  v088
 BYTE   W36
 BYTE   N06  Fs4
 BYTE   W06
 BYTE   En4
 BYTE   W06
 BYTE   N36  Fs4
 BYTE   W36
 BYTE   N06  En4
 BYTE   W06
 BYTE   Dn4
 BYTE   W06
 BYTE   PEND 
// 007   ----------------------------------------
Label_1_016047EE:
 BYTE   N36  Cs4  v088
 BYTE   W36
 BYTE   N06  Fs3
 BYTE   W06
 BYTE   Fn3
 BYTE   W06
 BYTE   N48  Fs3
 BYTE   W48
 BYTE   PEND 
// 008   ----------------------------------------
Label_1_016047FB:
 BYTE   N60  Bn3  v088
 BYTE   W60
 BYTE   N12  As3
 BYTE   W12
 BYTE   Bn3
 BYTE   W12
 BYTE   Cs4
 BYTE   W12
 BYTE   PEND 
 BYTE   PATT
  POIN2 Label_1_016047CE
 BYTE   PATT
  POIN2 Label_1_016047DC
// 009   ----------------------------------------
Label_1_01604811:
 BYTE   N48  Cs4  v088
 BYTE   W48
 BYTE   Fs4
 BYTE   W48
 BYTE   PEND 
// 010   ----------------------------------------
Label_1_01604818:
 BYTE   W24
 BYTE   N24  Gn4  v088
 BYTE   W24
 BYTE   N12  An4
 BYTE   W12
 BYTE   N36  Bn4
 BYTE   W36
 BYTE   PEND 
// 011   ----------------------------------------
Label_1_01604824:
 BYTE   N24  As4  v088
 BYTE   W24
 BYTE   Gs4
 BYTE   W24
 BYTE   N12  Fs4
 BYTE   W12
 BYTE   N36  As4
 BYTE   W36
 BYTE   PEND 
// 012   ----------------------------------------
Label_1_01604831:
 BYTE   N48  Bn4  v088
 BYTE   W48
 BYTE   Cs5
 BYTE   W48
 BYTE   PEND 
// 013   ----------------------------------------
Label_1_01604838:
 BYTE   N24  Dn5  v088
 BYTE   W24
 BYTE   N12  Cs5
 BYTE   W12
 BYTE   N60  Bn4
 BYTE   W60
 BYTE   PEND 
 BYTE   PATT
  POIN2 Label_1_01604818
// 014   ----------------------------------------
Label_1_01604848:
 BYTE   N24  As4  v088
 BYTE   W24
 BYTE   Gs4
 BYTE   W24
 BYTE   N12  Fs4
 BYTE   W12
 BYTE   N24  As4
 BYTE   W24
 BYTE   N06  Bn4
 BYTE   W06
 BYTE   As4
 BYTE   W06
 BYTE   PEND 
// 015   ----------------------------------------
Label_1_0160485A:
 BYTE   N36  Bn4  v088
 BYTE   W36
 BYTE   N06  Fs4
 BYTE   W06
 BYTE   En4
 BYTE   W06
 BYTE   N36  Fs4
 BYTE   W36
 BYTE   N06  Dn4
 BYTE   W06
 BYTE   Cs4
 BYTE   W06
 BYTE   PEND 
// 016   ----------------------------------------
Label_1_0160486C:
 BYTE   N36  Dn4  v088
 BYTE   W36
 BYTE   N06  Bn3
 BYTE   W06
 BYTE   An3
 BYTE   W06
 BYTE   N36  Bn3
 BYTE   W36
 BYTE   N06  Fs3
 BYTE   W06
 BYTE   En3
 BYTE   W06
 BYTE   PEND 
// 017   ----------------------------------------
Label_1_0160487E:
 BYTE   N36  Fs3  v088
 BYTE   W36
 BYTE   N06  Dn3
 BYTE   W06
 BYTE   Cn3
 BYTE   W06
 BYTE   N36  Dn3
 BYTE   W36
 BYTE   N06  Bn2
 BYTE   W06
 BYTE   An2
 BYTE   W06
 BYTE   PEND 
// 018   ----------------------------------------
 BYTE   N96  Bn2
 BYTE   W96
// 019   ----------------------------------------
 BYTE   W96
// 020   ----------------------------------------
 BYTE   W96
// 021   ----------------------------------------
 BYTE   W96
// 022   ----------------------------------------
 BYTE   W96
 BYTE   PATT
  POIN2 Label_1_016047C2
 BYTE   PATT
  POIN2 Label_1_016047CE
 BYTE   PATT
  POIN2 Label_1_016047DC
 BYTE   PATT
  POIN2 Label_1_016047EE
 BYTE   PATT
  POIN2 Label_1_016047FB
 BYTE   PATT
  POIN2 Label_1_016047CE
 BYTE   PATT
  POIN2 Label_1_016047DC
 BYTE   PATT
  POIN2 Label_1_01604811
 BYTE   PATT
  POIN2 Label_1_01604818
 BYTE   PATT
  POIN2 Label_1_01604824
 BYTE   PATT
  POIN2 Label_1_01604831
 BYTE   PATT
  POIN2 Label_1_01604838
 BYTE   PATT
  POIN2 Label_1_01604818
 BYTE   PATT
  POIN2 Label_1_01604848
 BYTE   PATT
  POIN2 Label_1_0160485A
 BYTE   PATT
  POIN2 Label_1_0160486C
 BYTE   PATT
  POIN2 Label_1_0160487E
// 023   ----------------------------------------
 BYTE   N96  Bn2  v088
 BYTE   W96
// 024   ----------------------------------------
 BYTE   W96
// 025   ----------------------------------------
 BYTE   W96
// 026   ----------------------------------------
 BYTE   W96
// 027   ----------------------------------------
 BYTE   W96
// 028   ----------------------------------------
 BYTE   GoTo
  POIN2 Label_1_016047B2
 BYTE   FINE

//**************** Track 3 (Midi-Chn.2) ****************//

MegamanXStormEagleAReliableChair_003:
// 000   ----------------------------------------
 BYTE   KEYSH   MegamanXStormEagleAReliableChair_key+0
Label_2_016048FE:
 BYTE   VOICE   30
 BYTE   MODT 0
 BYTE   CnM2  v000
 BYTE   LFOS 0
 BYTE   CnM2  v044
 BYTE   VOL   40*MegamanXStormEagleAReliableChair_mvl/mxv
 BYTE   PAN   c_v+0
 BYTE   W06
 BYTE   N12  Bn1  v056
 BYTE   W12
 BYTE   N12
 BYTE   W12
 BYTE   Fs2
 BYTE   N12  Bn2
 BYTE   W12
 BYTE   Bn1
 BYTE   W12
 BYTE   N12
 BYTE   W12
 BYTE   Fs2
 BYTE   N12  Bn2
 BYTE   W12
 BYTE   Bn1
 BYTE   W12
 BYTE   N72  En2
 BYTE   N72  An2
 BYTE   W06
// 001   ----------------------------------------
 BYTE   W66
 BYTE   N12  Fs1
 BYTE   W12
 BYTE   An1
 BYTE   W12
 BYTE   As1
 BYTE   W06
// 002   ----------------------------------------
 BYTE   W06
 BYTE   Bn1
 BYTE   W12
 BYTE   N12
 BYTE   W12
 BYTE   Fs2
 BYTE   N12  Bn2
 BYTE   W12
 BYTE   Bn1
 BYTE   W12
 BYTE   N12
 BYTE   W12
 BYTE   Fs2
 BYTE   N12  Bn2
 BYTE   W12
 BYTE   Bn1
 BYTE   W12
 BYTE   N72  En2
 BYTE   N72  An2
 BYTE   W06
// 003   ----------------------------------------
 BYTE   W66
 BYTE   N12  Fs1
 BYTE   W12
 BYTE   An1
 BYTE   W12
 BYTE   N06  As1
 BYTE   W06
// 004   ----------------------------------------
Label_2_0160494D:
 BYTE   N12  Bn1  v088
 BYTE   W12
 BYTE   N12
 BYTE   W12
 BYTE   N12
 BYTE   W12
 BYTE   N12
 BYTE   W12
 BYTE   N12
 BYTE   W12
 BYTE   N12
 BYTE   W12
 BYTE   N12
 BYTE   W12
 BYTE   N12
 BYTE   W12
 BYTE   PEND 
// 005   ----------------------------------------
Label_2_01604960:
 BYTE   N12  Cs2  v088
 BYTE   W12
 BYTE   N12
 BYTE   W12
 BYTE   N12
 BYTE   W12
 BYTE   N12
 BYTE   W12
 BYTE   N12
 BYTE   W12
 BYTE   N12
 BYTE   W12
 BYTE   N12
 BYTE   W12
 BYTE   N12
 BYTE   W12
 BYTE   PEND 
 BYTE   PATT
  POIN2 Label_2_0160494D
// 006   ----------------------------------------
Label_2_01604978:
 BYTE   N12  En2  v088
 BYTE   W12
 BYTE   N12
 BYTE   W12
 BYTE   N12
 BYTE   W12
 BYTE   N12
 BYTE   W12
 BYTE   N12
 BYTE   W12
 BYTE   N12
 BYTE   W12
 BYTE   N12
 BYTE   W12
 BYTE   N12
 BYTE   W12
 BYTE   PEND 
 BYTE   PATT
  POIN2 Label_2_0160494D
 BYTE   PATT
  POIN2 Label_2_01604960
 BYTE   PATT
  POIN2 Label_2_0160494D
 BYTE   PATT
  POIN2 Label_2_01604978
// 007   ----------------------------------------
Label_2_0160499F:
 BYTE   N12  Dn2  v088
 BYTE   W12
 BYTE   N12
 BYTE   W12
 BYTE   N12
 BYTE   W12
 BYTE   N12
 BYTE   W12
 BYTE   N12
 BYTE   W12
 BYTE   N12
 BYTE   W12
 BYTE   N12
 BYTE   W12
 BYTE   N12
 BYTE   W12
 BYTE   PEND 
 BYTE   PATT
  POIN2 Label_2_01604960
// 008   ----------------------------------------
Label_2_016049B7:
 BYTE   N12  Fs2  v088
 BYTE   W12
 BYTE   N12
 BYTE   W12
 BYTE   N12
 BYTE   W12
 BYTE   N12
 BYTE   W12
 BYTE   En2
 BYTE   W12
 BYTE   N12
 BYTE   W12
 BYTE   N12
 BYTE   W12
 BYTE   N12
 BYTE   W12
 BYTE   PEND 
// 009   ----------------------------------------
Label_2_016049CA:
 BYTE   N12  An1  v088
 BYTE   W12
 BYTE   N12
 BYTE   W12
 BYTE   N12
 BYTE   W12
 BYTE   N12
 BYTE   W12
 BYTE   Fs2
 BYTE   W12
 BYTE   N12
 BYTE   W12
 BYTE   N12
 BYTE   W12
 BYTE   N12
 BYTE   W12
 BYTE   PEND 
 BYTE   PATT
  POIN2 Label_2_0160499F
 BYTE   PATT
  POIN2 Label_2_01604960
// 010   ----------------------------------------
Label_2_016049E7:
 BYTE   N12  Bn1  v088
 BYTE   W12
 BYTE   N12
 BYTE   W12
 BYTE   Bn2
 BYTE   W12
 BYTE   Bn1
 BYTE   W12
 BYTE   N12
 BYTE   W12
 BYTE   Bn2
 BYTE   W12
 BYTE   Bn1
 BYTE   W12
 BYTE   N72  An2
 BYTE   W12
 BYTE   PEND 
// 011   ----------------------------------------
Label_2_016049FB:
 BYTE   W60
 BYTE   N12  Fs1  v088
 BYTE   W12
 BYTE   An1
 BYTE   W12
 BYTE   As1
 BYTE   W12
 BYTE   PEND 
 BYTE   PATT
  POIN2 Label_2_016049E7
 BYTE   PATT
  POIN2 Label_2_016049FB
// 012   ----------------------------------------
Label_2_01604A0F:
 BYTE   W06
 BYTE   N12  Bn1  v044
 BYTE   W12
 BYTE   N12
 BYTE   W12
 BYTE   Fs2
 BYTE   N12  Bn2
 BYTE   W12
 BYTE   Bn1
 BYTE   W12
 BYTE   N12
 BYTE   W12
 BYTE   Fs2
 BYTE   N12  Bn2
 BYTE   W12
 BYTE   Bn1
 BYTE   W12
 BYTE   N72  En2
 BYTE   N72  An2
 BYTE   W06
 BYTE   PEND 
// 013   ----------------------------------------
Label_2_01604A2A:
 BYTE   W66
 BYTE   N12  Fs1  v044
 BYTE   W12
 BYTE   An1
 BYTE   W12
 BYTE   As1
 BYTE   W06
 BYTE   PEND 
 BYTE   PATT
  POIN2 Label_2_01604A0F
 BYTE   PATT
  POIN2 Label_2_01604A2A
 BYTE   PATT
  POIN2 Label_2_0160494D
 BYTE   PATT
  POIN2 Label_2_01604960
 BYTE   PATT
  POIN2 Label_2_0160494D
 BYTE   PATT
  POIN2 Label_2_01604978
 BYTE   PATT
  POIN2 Label_2_0160494D
 BYTE   PATT
  POIN2 Label_2_01604960
 BYTE   PATT
  POIN2 Label_2_0160494D
 BYTE   PATT
  POIN2 Label_2_01604978
 BYTE   PATT
  POIN2 Label_2_0160499F
 BYTE   PATT
  POIN2 Label_2_01604960
 BYTE   PATT
  POIN2 Label_2_016049B7
 BYTE   PATT
  POIN2 Label_2_016049CA
 BYTE   PATT
  POIN2 Label_2_0160499F
 BYTE   PATT
  POIN2 Label_2_01604960
 BYTE   PATT
  POIN2 Label_2_016049E7
 BYTE   PATT
  POIN2 Label_2_016049FB
 BYTE   PATT
  POIN2 Label_2_016049E7
 BYTE   PATT
  POIN2 Label_2_016049FB
 BYTE   PATT
  POIN2 Label_2_01604A0F
 BYTE   PATT
  POIN2 Label_2_01604A2A
 BYTE   PATT
  POIN2 Label_2_01604A0F
// 014   ----------------------------------------
 BYTE   W66
 BYTE   N12  Fs1  v044
 BYTE   W12
 BYTE   An1
 BYTE   W12
 BYTE   N06  As1
 BYTE   W06
// 015   ----------------------------------------
 BYTE   GoTo
  POIN2 Label_2_016048FE
 BYTE   FINE

//**************** Track 4 (Midi-Chn.3) ****************//

MegamanXStormEagleAReliableChair_004:
// 000   ----------------------------------------
 BYTE   KEYSH   MegamanXStormEagleAReliableChair_key+0
Label_3_01604ABA:
 BYTE   VOICE   30
 BYTE   MODT 0
 BYTE   CnM2  v000
 BYTE   LFOS 0
 BYTE   CnM2  v044
 BYTE   VOL   19*MegamanXStormEagleAReliableChair_mvl/mxv
 BYTE   PAN   c_v+63
 BYTE   W96
// 001   ----------------------------------------
 BYTE   W96
// 002   ----------------------------------------
 BYTE   W96
// 003   ----------------------------------------
 BYTE   W96
// 004   ----------------------------------------
Label_3_01604ACA:
 BYTE   N12  Bn1  v088
 BYTE   W12
 BYTE   N12
 BYTE   W12
 BYTE   N12
 BYTE   W12
 BYTE   N12
 BYTE   W12
 BYTE   N12
 BYTE   W12
 BYTE   N12
 BYTE   W12
 BYTE   N12
 BYTE   W12
 BYTE   N12
 BYTE   W12
 BYTE   PEND 
// 005   ----------------------------------------
Label_3_01604ADD:
 BYTE   N12  Fs1  v088
 BYTE   W12
 BYTE   N12
 BYTE   W12
 BYTE   N12
 BYTE   W12
 BYTE   N12
 BYTE   W12
 BYTE   N12
 BYTE   W12
 BYTE   N12
 BYTE   W12
 BYTE   N12
 BYTE   W12
 BYTE   N12
 BYTE   W12
 BYTE   PEND 
// 006   ----------------------------------------
Label_3_01604AF0:
 BYTE   N12  Gn1  v088
 BYTE   W12
 BYTE   N12
 BYTE   W12
 BYTE   N12
 BYTE   W12
 BYTE   N12
 BYTE   W12
 BYTE   N12
 BYTE   W12
 BYTE   N12
 BYTE   W12
 BYTE   N12
 BYTE   W12
 BYTE   N12
 BYTE   W12
 BYTE   PEND 
// 007   ----------------------------------------
Label_3_01604B03:
 BYTE   N12  An1  v088
 BYTE   W12
 BYTE   N12
 BYTE   W12
 BYTE   N12
 BYTE   W12
 BYTE   N12
 BYTE   W12
 BYTE   As1
 BYTE   W12
 BYTE   N12
 BYTE   W12
 BYTE   N12
 BYTE   W12
 BYTE   N12
 BYTE   W12
 BYTE   PEND 
// 008   ----------------------------------------
Label_3_01604B16:
 BYTE   N12  Bn1  v088
 BYTE   W12
 BYTE   N12
 BYTE   W12
 BYTE   N12
 BYTE   W12
 BYTE   N12
 BYTE   W12
 BYTE   N12
 BYTE   W12
 BYTE   N12
 BYTE   W12
 BYTE   N12
 BYTE   W12
 BYTE   N12
 BYTE   W12
 BYTE   PEND 
 BYTE   PATT
  POIN2 Label_3_01604ADD
 BYTE   PATT
  POIN2 Label_3_01604AF0
 BYTE   PATT
  POIN2 Label_3_01604B03
 BYTE   PATT
  POIN2 Label_3_01604AF0
// 009   ----------------------------------------
Label_3_01604B3D:
 BYTE   N12  As1  v088
 BYTE   W12
 BYTE   N12
 BYTE   W12
 BYTE   N12
 BYTE   W12
 BYTE   N12
 BYTE   W12
 BYTE   N12
 BYTE   W12
 BYTE   N12
 BYTE   W12
 BYTE   N12
 BYTE   W12
 BYTE   N12
 BYTE   W12
 BYTE   PEND 
// 010   ----------------------------------------
Label_3_01604B50:
 BYTE   N12  Bn1  v088
 BYTE   W12
 BYTE   N12
 BYTE   W12
 BYTE   N12
 BYTE   W12
 BYTE   N12
 BYTE   W12
 BYTE   Cs2
 BYTE   W12
 BYTE   N12
 BYTE   W12
 BYTE   N12
 BYTE   W12
 BYTE   N12
 BYTE   W12
 BYTE   PEND 
// 011   ----------------------------------------
Label_3_01604B63:
 BYTE   N12  Dn2  v088
 BYTE   W12
 BYTE   N12
 BYTE   W12
 BYTE   N12
 BYTE   W12
 BYTE   N12
 BYTE   W12
 BYTE   Fs2
 BYTE   W12
 BYTE   N12
 BYTE   W12
 BYTE   N12
 BYTE   W12
 BYTE   N12
 BYTE   W12
 BYTE   PEND 
 BYTE   PATT
  POIN2 Label_3_01604AF0
 BYTE   PATT
  POIN2 Label_3_01604B3D
// 012   ----------------------------------------
Label_3_01604B80:
 BYTE   W24
 BYTE   N24  Fs2  v088
 BYTE   W36
 BYTE   N24
 BYTE   W24
 BYTE   TIE  En2
 BYTE   W12
 BYTE   PEND 
// 013   ----------------------------------------
 BYTE   W24
 BYTE   MOD 0
 BYTE   CnM2  v064
 BYTE   W72
// 014   ----------------------------------------
 BYTE   EOT
Label_3_01604B91:
 BYTE   W24
 BYTE   MOD 0
 BYTE   CnM2  v000
 BYTE   N24  Fs2  v088
 BYTE   W36
 BYTE   N24
 BYTE   W24
 BYTE   TIE  En2
 BYTE   W12
 BYTE   PEND 
// 015   ----------------------------------------
 BYTE   W24
 BYTE   MOD 0
 BYTE   CnM2  v064
 BYTE   W72
// 016   ----------------------------------------
 BYTE   EOT
 BYTE   W96
// 017   ----------------------------------------
 BYTE   W96
// 018   ----------------------------------------
 BYTE   W96
// 019   ----------------------------------------
 BYTE   W96
 BYTE   PATT
  POIN2 Label_3_01604ACA
 BYTE   PATT
  POIN2 Label_3_01604ADD
 BYTE   PATT
  POIN2 Label_3_01604AF0
 BYTE   PATT
  POIN2 Label_3_01604B03
 BYTE   PATT
  POIN2 Label_3_01604B16
 BYTE   PATT
  POIN2 Label_3_01604ADD
 BYTE   PATT
  POIN2 Label_3_01604AF0
 BYTE   PATT
  POIN2 Label_3_01604B03
 BYTE   PATT
  POIN2 Label_3_01604AF0
 BYTE   PATT
  POIN2 Label_3_01604B3D
 BYTE   PATT
  POIN2 Label_3_01604B50
 BYTE   PATT
  POIN2 Label_3_01604B63
 BYTE   PATT
  POIN2 Label_3_01604AF0
 BYTE   PATT
  POIN2 Label_3_01604B3D
 BYTE   PATT
  POIN2 Label_3_01604B80
// 020   ----------------------------------------
 BYTE   W24
 BYTE   MOD 0
 BYTE   CnM2  v064
 BYTE   W72
// 021   ----------------------------------------
 BYTE   EOT
 BYTE   En2
 BYTE   PATT
  POIN2 Label_3_01604B91
// 022   ----------------------------------------
 BYTE   W24
 BYTE   MOD 0
 BYTE   CnM2  v064
 BYTE   W72
// 023   ----------------------------------------
 BYTE   EOT
 BYTE   En2
 BYTE   W96
// 024   ----------------------------------------
 BYTE   W96
// 025   ----------------------------------------
 BYTE   W96
// 026   ----------------------------------------
 BYTE   W96
// 027   ----------------------------------------
 BYTE   GoTo
  POIN2 Label_3_01604ABA
 BYTE   FINE

//**************** Track 5 (Midi-Chn.4) ****************//

MegamanXStormEagleAReliableChair_005:
// 000   ----------------------------------------
 BYTE   KEYSH   MegamanXStormEagleAReliableChair_key+0
Label_4_01604C16:
 BYTE   VOICE   30
 BYTE   MODT 0
 BYTE   CnM2  v000
 BYTE   LFOS 0
 BYTE   CnM2  v044
 BYTE   VOL   19*MegamanXStormEagleAReliableChair_mvl/mxv
 BYTE   PAN   c_v-64
 BYTE   W96
// 001   ----------------------------------------
 BYTE   W96
// 002   ----------------------------------------
 BYTE   W96
// 003   ----------------------------------------
 BYTE   W96
// 004   ----------------------------------------
Label_4_01604C26:
 BYTE   N12  Bn1  v088
 BYTE   W12
 BYTE   N12
 BYTE   W12
 BYTE   N12
 BYTE   W12
 BYTE   N12
 BYTE   W12
 BYTE   N12
 BYTE   W12
 BYTE   N12
 BYTE   W12
 BYTE   N12
 BYTE   W12
 BYTE   N12
 BYTE   W12
 BYTE   PEND 
// 005   ----------------------------------------
Label_4_01604C39:
 BYTE   N12  Cs2  v088
 BYTE   W12
 BYTE   N12
 BYTE   W12
 BYTE   N12
 BYTE   W12
 BYTE   N12
 BYTE   W12
 BYTE   N12
 BYTE   W12
 BYTE   N12
 BYTE   W12
 BYTE   N12
 BYTE   W12
 BYTE   N12
 BYTE   W12
 BYTE   PEND 
// 006   ----------------------------------------
Label_4_01604C4C:
 BYTE   N12  Bn1  v088
 BYTE   W12
 BYTE   N12
 BYTE   W12
 BYTE   N12
 BYTE   W12
 BYTE   N12
 BYTE   W12
 BYTE   N12
 BYTE   W12
 BYTE   N12
 BYTE   W12
 BYTE   N12
 BYTE   W12
 BYTE   N12
 BYTE   W12
 BYTE   PEND 
// 007   ----------------------------------------
Label_4_01604C5F:
 BYTE   N12  En2  v088
 BYTE   W12
 BYTE   N12
 BYTE   W12
 BYTE   N12
 BYTE   W12
 BYTE   N12
 BYTE   W12
 BYTE   N12
 BYTE   W12
 BYTE   N12
 BYTE   W12
 BYTE   N12
 BYTE   W12
 BYTE   N12
 BYTE   W12
 BYTE   PEND 
 BYTE   PATT
  POIN2 Label_4_01604C4C
 BYTE   PATT
  POIN2 Label_4_01604C39
 BYTE   PATT
  POIN2 Label_4_01604C4C
 BYTE   PATT
  POIN2 Label_4_01604C5F
// 008   ----------------------------------------
Label_4_01604C86:
 BYTE   N12  Dn2  v088
 BYTE   W12
 BYTE   N12
 BYTE   W12
 BYTE   N12
 BYTE   W12
 BYTE   N12
 BYTE   W12
 BYTE   N12
 BYTE   W12
 BYTE   N12
 BYTE   W12
 BYTE   N12
 BYTE   W12
 BYTE   N12
 BYTE   W12
 BYTE   PEND 
 BYTE   PATT
  POIN2 Label_4_01604C39
// 009   ----------------------------------------
Label_4_01604C9E:
 BYTE   N12  Fs2  v088
 BYTE   W12
 BYTE   N12
 BYTE   W12
 BYTE   N12
 BYTE   W12
 BYTE   N12
 BYTE   W12
 BYTE   En2
 BYTE   W12
 BYTE   N12
 BYTE   W12
 BYTE   N12
 BYTE   W12
 BYTE   N12
 BYTE   W12
 BYTE   PEND 
// 010   ----------------------------------------
Label_4_01604CB1:
 BYTE   N12  An1  v088
 BYTE   W12
 BYTE   N12
 BYTE   W12
 BYTE   N12
 BYTE   W12
 BYTE   N12
 BYTE   W12
 BYTE   Fs2
 BYTE   W12
 BYTE   N12
 BYTE   W12
 BYTE   N12
 BYTE   W12
 BYTE   N12
 BYTE   W12
 BYTE   PEND 
 BYTE   PATT
  POIN2 Label_4_01604C86
 BYTE   PATT
  POIN2 Label_4_01604C39
// 011   ----------------------------------------
Label_4_01604CCE:
 BYTE   N12  Bn1  v088
 BYTE   W12
 BYTE   N12
 BYTE   W12
 BYTE   Bn2
 BYTE   W12
 BYTE   Bn1
 BYTE   W12
 BYTE   N12
 BYTE   W12
 BYTE   Bn2
 BYTE   W12
 BYTE   Bn1
 BYTE   W12
 BYTE   N72  An2
 BYTE   W12
 BYTE   PEND 
// 012   ----------------------------------------
Label_4_01604CE2:
 BYTE   W60
 BYTE   N12  Fs1  v088
 BYTE   W12
 BYTE   An1
 BYTE   W12
 BYTE   As1
 BYTE   W12
 BYTE   PEND 
 BYTE   PATT
  POIN2 Label_4_01604CCE
 BYTE   PATT
  POIN2 Label_4_01604CE2
 BYTE   PATT
  POIN2 Label_4_01604CCE
 BYTE   PATT
  POIN2 Label_4_01604CE2
 BYTE   PATT
  POIN2 Label_4_01604CCE
 BYTE   PATT
  POIN2 Label_4_01604CE2
 BYTE   PATT
  POIN2 Label_4_01604C26
 BYTE   PATT
  POIN2 Label_4_01604C39
 BYTE   PATT
  POIN2 Label_4_01604C4C
 BYTE   PATT
  POIN2 Label_4_01604C5F
 BYTE   PATT
  POIN2 Label_4_01604C4C
 BYTE   PATT
  POIN2 Label_4_01604C39
 BYTE   PATT
  POIN2 Label_4_01604C4C
 BYTE   PATT
  POIN2 Label_4_01604C5F
 BYTE   PATT
  POIN2 Label_4_01604C86
 BYTE   PATT
  POIN2 Label_4_01604C39
 BYTE   PATT
  POIN2 Label_4_01604C9E
 BYTE   PATT
  POIN2 Label_4_01604CB1
 BYTE   PATT
  POIN2 Label_4_01604C86
 BYTE   PATT
  POIN2 Label_4_01604C39
 BYTE   PATT
  POIN2 Label_4_01604CCE
 BYTE   PATT
  POIN2 Label_4_01604CE2
 BYTE   PATT
  POIN2 Label_4_01604CCE
 BYTE   PATT
  POIN2 Label_4_01604CE2
 BYTE   PATT
  POIN2 Label_4_01604CCE
 BYTE   PATT
  POIN2 Label_4_01604CE2
 BYTE   PATT
  POIN2 Label_4_01604CCE
 BYTE   PATT
  POIN2 Label_4_01604CE2
// 013   ----------------------------------------
 BYTE   GoTo
  POIN2 Label_4_01604C16
 BYTE   FINE

//**************** Track 6 (Midi-Chn.5) ****************//

MegamanXStormEagleAReliableChair_006:
// 000   ----------------------------------------
 BYTE   KEYSH   MegamanXStormEagleAReliableChair_key+0
Label_5_01604D82:
 BYTE   VOICE   30
 BYTE   MODT 0
 BYTE   CnM2  v000
 BYTE   LFOS 0
 BYTE   CnM2  v044
 BYTE   VOL   36*MegamanXStormEagleAReliableChair_mvl/mxv
 BYTE   PAN   c_v+0
 BYTE   W96
// 001   ----------------------------------------
 BYTE   W96
// 002   ----------------------------------------
 BYTE   W96
// 003   ----------------------------------------
 BYTE   W96
// 004   ----------------------------------------
Label_5_01604D92:
 BYTE   N12  Bn0  v088
 BYTE   W12
 BYTE   N12
 BYTE   W12
 BYTE   Bn1
 BYTE   W12
 BYTE   Bn0
 BYTE   W12
 BYTE   N12
 BYTE   W12
 BYTE   N12
 BYTE   W12
 BYTE   Bn1
 BYTE   W12
 BYTE   Bn0
 BYTE   W12
 BYTE   PEND 
// 005   ----------------------------------------
Label_5_01604DA5:
 BYTE   N12  Fs0  v088
 BYTE   W12
 BYTE   N12
 BYTE   W12
 BYTE   Fs1
 BYTE   W12
 BYTE   Fs0
 BYTE   W12
 BYTE   N12
 BYTE   W12
 BYTE   N12
 BYTE   W12
 BYTE   Fs1
 BYTE   W12
 BYTE   Fs0
 BYTE   W12
 BYTE   PEND 
// 006   ----------------------------------------
Label_5_01604DB8:
 BYTE   N12  Gn0  v088
 BYTE   W12
 BYTE   N12
 BYTE   W12
 BYTE   Gn1
 BYTE   W12
 BYTE   Gn0
 BYTE   W12
 BYTE   N12
 BYTE   W12
 BYTE   N12
 BYTE   W12
 BYTE   Gn1
 BYTE   W12
 BYTE   Gn0
 BYTE   W12
 BYTE   PEND 
// 007   ----------------------------------------
Label_5_01604DCB:
 BYTE   N12  An0  v088
 BYTE   W12
 BYTE   N12
 BYTE   W12
 BYTE   An1
 BYTE   W12
 BYTE   An0
 BYTE   W12
 BYTE   As0
 BYTE   W12
 BYTE   N12
 BYTE   W12
 BYTE   As1
 BYTE   W12
 BYTE   As0
 BYTE   W12
 BYTE   PEND 
// 008   ----------------------------------------
Label_5_01604DDE:
 BYTE   N12  Bn0  v088
 BYTE   W12
 BYTE   N12
 BYTE   W12
 BYTE   Bn1
 BYTE   W12
 BYTE   Bn0
 BYTE   W12
 BYTE   N12
 BYTE   W12
 BYTE   N12
 BYTE   W12
 BYTE   Bn1
 BYTE   W12
 BYTE   Bn0
 BYTE   W12
 BYTE   PEND 
 BYTE   PATT
  POIN2 Label_5_01604DA5
 BYTE   PATT
  POIN2 Label_5_01604DB8
 BYTE   PATT
  POIN2 Label_5_01604DCB
 BYTE   PATT
  POIN2 Label_5_01604DB8
 BYTE   PATT
  POIN2 Label_5_01604DA5
// 009   ----------------------------------------
Label_5_01604E0A:
 BYTE   N12  Bn0  v088
 BYTE   W12
 BYTE   N12
 BYTE   W12
 BYTE   Bn1
 BYTE   W12
 BYTE   Bn0
 BYTE   W12
 BYTE   Cs1
 BYTE   W12
 BYTE   N12
 BYTE   W12
 BYTE   Cs2
 BYTE   W12
 BYTE   Cs1
 BYTE   W12
 BYTE   PEND 
// 010   ----------------------------------------
Label_5_01604E1D:
 BYTE   N12  Dn1  v088
 BYTE   W12
 BYTE   N12
 BYTE   W12
 BYTE   Dn2
 BYTE   W12
 BYTE   Dn1
 BYTE   W12
 BYTE   Fs0
 BYTE   W12
 BYTE   N12
 BYTE   W12
 BYTE   Fs1
 BYTE   W12
 BYTE   Fs0
 BYTE   W12
 BYTE   PEND 
 BYTE   PATT
  POIN2 Label_5_01604DB8
 BYTE   PATT
  POIN2 Label_5_01604DA5
// 011   ----------------------------------------
Label_5_01604E3A:
 BYTE   N12  Bn0  v088
 BYTE   W12
 BYTE   N12
 BYTE   W12
 BYTE   Bn1
 BYTE   W12
 BYTE   Bn0
 BYTE   W12
 BYTE   N12
 BYTE   W12
 BYTE   Bn1
 BYTE   W12
 BYTE   Bn0
 BYTE   W12
 BYTE   N24
 BYTE   W12
 BYTE   PEND 
// 012   ----------------------------------------
Label_5_01604E4D:
 BYTE   W12
 BYTE   N12  Bn0  v088
 BYTE   W12
 BYTE   Bn1
 BYTE   W12
 BYTE   Bn0
 BYTE   W12
 BYTE   N12
 BYTE   W12
 BYTE   Fs0
 BYTE   W12
 BYTE   An0
 BYTE   W12
 BYTE   As0
 BYTE   W12
 BYTE   PEND 
 BYTE   PATT
  POIN2 Label_5_01604E3A
 BYTE   PATT
  POIN2 Label_5_01604E4D
 BYTE   PATT
  POIN2 Label_5_01604E3A
 BYTE   PATT
  POIN2 Label_5_01604E4D
 BYTE   PATT
  POIN2 Label_5_01604E3A
 BYTE   PATT
  POIN2 Label_5_01604E4D
 BYTE   PATT
  POIN2 Label_5_01604D92
 BYTE   PATT
  POIN2 Label_5_01604DA5
 BYTE   PATT
  POIN2 Label_5_01604DB8
 BYTE   PATT
  POIN2 Label_5_01604DCB
 BYTE   PATT
  POIN2 Label_5_01604DDE
 BYTE   PATT
  POIN2 Label_5_01604DA5
 BYTE   PATT
  POIN2 Label_5_01604DB8
 BYTE   PATT
  POIN2 Label_5_01604DCB
 BYTE   PATT
  POIN2 Label_5_01604DB8
 BYTE   PATT
  POIN2 Label_5_01604DA5
 BYTE   PATT
  POIN2 Label_5_01604E0A
 BYTE   PATT
  POIN2 Label_5_01604E1D
 BYTE   PATT
  POIN2 Label_5_01604DB8
 BYTE   PATT
  POIN2 Label_5_01604DA5
 BYTE   PATT
  POIN2 Label_5_01604E3A
 BYTE   PATT
  POIN2 Label_5_01604E4D
 BYTE   PATT
  POIN2 Label_5_01604E3A
 BYTE   PATT
  POIN2 Label_5_01604E4D
 BYTE   PATT
  POIN2 Label_5_01604E3A
 BYTE   PATT
  POIN2 Label_5_01604E4D
 BYTE   PATT
  POIN2 Label_5_01604E3A
 BYTE   PATT
  POIN2 Label_5_01604E4D
// 013   ----------------------------------------
 BYTE   GoTo
  POIN2 Label_5_01604D82
 BYTE   FINE

//**************** Track 7 (Midi-Chn.6) ****************//

MegamanXStormEagleAReliableChair_007:
// 000   ----------------------------------------
 BYTE   KEYSH   MegamanXStormEagleAReliableChair_key+0
Label_6_01604EF6:
 BYTE   VOICE   81
 BYTE   MODT 0
 BYTE   CnM2  v000
 BYTE   LFOS 0
 BYTE   CnM2  v044
 BYTE   VOL   25*MegamanXStormEagleAReliableChair_mvl/mxv
 BYTE   PAN   c_v+0
 BYTE   W96
// 001   ----------------------------------------
 BYTE   W96
// 002   ----------------------------------------
 BYTE   W96
// 003   ----------------------------------------
 BYTE   W92
 BYTE   W03
 BYTE   Cn6
 BYTE   W01
// 004   ----------------------------------------
Label_6_01604F09:
 BYTE   N06  Bn4  v088
 BYTE   W05
 BYTE   PAN   c_v-32
 BYTE   W01
 BYTE   N06  Bn4  v056
 BYTE   W05
 BYTE   PAN   c_v+32
 BYTE   W01
 BYTE   N06  An4  v088
 BYTE   W05
 BYTE   PAN   c_v-32
 BYTE   W01
 BYTE   N06  An4  v056
 BYTE   W05
 BYTE   PAN   c_v+32
 BYTE   W01
 BYTE   N06  Bn4  v088
 BYTE   W05
 BYTE   PAN   c_v-32
 BYTE   W01
 BYTE   N06  Bn4  v056
 BYTE   W05
 BYTE   PAN   c_v+32
 BYTE   W01
 BYTE   N06  Fs4  v088
 BYTE   W05
 BYTE   PAN   c_v-32
 BYTE   W01
 BYTE   N06  Fs4  v056
 BYTE   W05
 BYTE   PAN   c_v+32
 BYTE   W01
 BYTE   N06  Bn4  v088
 BYTE   W05
 BYTE   PAN   c_v-32
 BYTE   W01
 BYTE   N06  Bn4  v056
 BYTE   W05
 BYTE   PAN   c_v+32
 BYTE   W01
 BYTE   N06  An4  v088
 BYTE   W05
 BYTE   PAN   c_v-32
 BYTE   W01
 BYTE   N06  An4  v056
 BYTE   W05
 BYTE   PAN   c_v+32
 BYTE   W01
 BYTE   N06  Bn4  v088
 BYTE   W05
 BYTE   PAN   c_v-32
 BYTE   W01
 BYTE   N06  Bn4  v056
 BYTE   W05
 BYTE   PAN   c_v+32
 BYTE   W01
 BYTE   N06  Fs4  v088
 BYTE   W05
 BYTE   PAN   c_v-32
 BYTE   W01
 BYTE   N06  Fs4  v056
 BYTE   W05
 BYTE   PAN   c_v+32
 BYTE   W01
 BYTE   PEND 
// 005   ----------------------------------------
Label_6_01604F7A:
 BYTE   N06  Bn4  v088
 BYTE   W05
 BYTE   PAN   c_v-32
 BYTE   W01
 BYTE   N06  Bn4  v056
 BYTE   W05
 BYTE   PAN   c_v+32
 BYTE   W01
 BYTE   N06  An4  v088
 BYTE   W05
 BYTE   PAN   c_v-32
 BYTE   W01
 BYTE   N06  An4  v056
 BYTE   W05
 BYTE   PAN   c_v+32
 BYTE   W01
 BYTE   N06  Bn4  v088
 BYTE   W05
 BYTE   PAN   c_v-32
 BYTE   W01
 BYTE   N06  Bn4  v056
 BYTE   W05
 BYTE   PAN   c_v+32
 BYTE   W01
 BYTE   N06  Fs4  v088
 BYTE   W05
 BYTE   PAN   c_v-32
 BYTE   W01
 BYTE   N06  Fs4  v056
 BYTE   W05
 BYTE   PAN   c_v+32
 BYTE   W01
 BYTE   N06  Bn4  v088
 BYTE   W05
 BYTE   PAN   c_v-32
 BYTE   W01
 BYTE   N06  Bn4  v056
 BYTE   W05
 BYTE   PAN   c_v+32
 BYTE   W01
 BYTE   N06  An4  v088
 BYTE   W05
 BYTE   PAN   c_v-32
 BYTE   W01
 BYTE   N06  An4  v056
 BYTE   W05
 BYTE   PAN   c_v+32
 BYTE   W01
 BYTE   N06  Bn4  v088
 BYTE   W05
 BYTE   PAN   c_v-32
 BYTE   W01
 BYTE   N06  Bn4  v056
 BYTE   W05
 BYTE   PAN   c_v+32
 BYTE   W01
 BYTE   N06  Fs4  v088
 BYTE   W05
 BYTE   PAN   c_v-32
 BYTE   W01
 BYTE   N06  Fs4  v056
 BYTE   W05
 BYTE   PAN   c_v+32
 BYTE   W01
 BYTE   PEND 
 BYTE   PATT
  POIN2 Label_6_01604F7A
 BYTE   PATT
  POIN2 Label_6_01604F7A
 BYTE   PATT
  POIN2 Label_6_01604F7A
 BYTE   PATT
  POIN2 Label_6_01604F7A
 BYTE   PATT
  POIN2 Label_6_01604F7A
 BYTE   PATT
  POIN2 Label_6_01604F7A
// 006   ----------------------------------------
Label_6_01605009:
 BYTE   N06  Gn5  v088
 BYTE   W05
 BYTE   PAN   c_v-32
 BYTE   W01
 BYTE   N06  Gn5  v056
 BYTE   W05
 BYTE   PAN   c_v+32
 BYTE   W01
 BYTE   N06  Dn5  v088
 BYTE   W05
 BYTE   PAN   c_v-32
 BYTE   W01
 BYTE   N06  Dn5  v056
 BYTE   W05
 BYTE   PAN   c_v+32
 BYTE   W01
 BYTE   N06  Gn5  v088
 BYTE   W05
 BYTE   PAN   c_v-32
 BYTE   W01
 BYTE   N06  Gn5  v056
 BYTE   W05
 BYTE   PAN   c_v+32
 BYTE   W01
 BYTE   N06  Bn5  v088
 BYTE   W05
 BYTE   PAN   c_v-32
 BYTE   W01
 BYTE   N06  Bn5  v056
 BYTE   W05
 BYTE   PAN   c_v+32
 BYTE   W01
 BYTE   N06  Gn5  v088
 BYTE   W05
 BYTE   PAN   c_v-32
 BYTE   W01
 BYTE   N06  Gn5  v056
 BYTE   W05
 BYTE   PAN   c_v+32
 BYTE   W01
 BYTE   N06  Dn5  v088
 BYTE   W05
 BYTE   PAN   c_v-32
 BYTE   W01
 BYTE   N06  Dn5  v056
 BYTE   W05
 BYTE   PAN   c_v+32
 BYTE   W01
 BYTE   N06  Gn5  v088
 BYTE   W05
 BYTE   PAN   c_v-32
 BYTE   W01
 BYTE   N06  Gn5  v056
 BYTE   W05
 BYTE   PAN   c_v+32
 BYTE   W01
 BYTE   N06  Bn5  v088
 BYTE   W05
 BYTE   PAN   c_v-32
 BYTE   W01
 BYTE   N06  Bn5  v056
 BYTE   W05
 BYTE   PAN   c_v+32
 BYTE   W01
 BYTE   PEND 
// 007   ----------------------------------------
Label_6_0160507A:
 BYTE   N06  As5  v088
 BYTE   W05
 BYTE   PAN   c_v-32
 BYTE   W01
 BYTE   N06  As5  v056
 BYTE   W05
 BYTE   PAN   c_v+32
 BYTE   W01
 BYTE   N06  Fs5  v088
 BYTE   W05
 BYTE   PAN   c_v-32
 BYTE   W01
 BYTE   N06  Fs5  v056
 BYTE   W05
 BYTE   PAN   c_v+32
 BYTE   W01
 BYTE   N06  As5  v088
 BYTE   W05
 BYTE   PAN   c_v-32
 BYTE   W01
 BYTE   N06  As5  v056
 BYTE   W05
 BYTE   PAN   c_v+32
 BYTE   W01
 BYTE   N06  Fs5  v088
 BYTE   W05
 BYTE   PAN   c_v-32
 BYTE   W01
 BYTE   N06  Fs5  v056
 BYTE   W05
 BYTE   PAN   c_v+32
 BYTE   W01
 BYTE   N06  As5  v088
 BYTE   W05
 BYTE   PAN   c_v-32
 BYTE   W01
 BYTE   N06  As5  v056
 BYTE   W05
 BYTE   PAN   c_v+32
 BYTE   W01
 BYTE   N06  Fs5  v088
 BYTE   W05
 BYTE   PAN   c_v-32
 BYTE   W01
 BYTE   N06  Fs5  v056
 BYTE   W05
 BYTE   PAN   c_v+32
 BYTE   W01
 BYTE   N06  Cs5  v088
 BYTE   W05
 BYTE   PAN   c_v-32
 BYTE   W01
 BYTE   N06  Cs5  v056
 BYTE   W05
 BYTE   PAN   c_v+32
 BYTE   W01
 BYTE   N06  As5  v088
 BYTE   W05
 BYTE   PAN   c_v-32
 BYTE   W01
 BYTE   N06  As5  v056
 BYTE   W05
 BYTE   PAN   c_v+32
 BYTE   W01
 BYTE   PEND 
// 008   ----------------------------------------
Label_6_016050EB:
 BYTE   N06  Fs5  v088
 BYTE   W05
 BYTE   PAN   c_v-32
 BYTE   W01
 BYTE   N06  Dn5
 BYTE   W05
 BYTE   PAN   c_v+32
 BYTE   W01
 BYTE   N06  Bn4
 BYTE   W05
 BYTE   PAN   c_v-32
 BYTE   W01
 BYTE   N06  Fs5
 BYTE   W05
 BYTE   PAN   c_v+32
 BYTE   W01
 BYTE   N06  Dn5
 BYTE   W05
 BYTE   PAN   c_v-32
 BYTE   W01
 BYTE   N06  Bn4
 BYTE   W05
 BYTE   PAN   c_v+32
 BYTE   W01
 BYTE   N06  Fs5
 BYTE   W05
 BYTE   PAN   c_v-32
 BYTE   W01
 BYTE   N06  Dn5
 BYTE   W05
 BYTE   PAN   c_v+32
 BYTE   W01
 BYTE   N06  Gn5
 BYTE   W05
 BYTE   PAN   c_v-32
 BYTE   W01
 BYTE   N06  En5
 BYTE   W05
 BYTE   PAN   c_v+32
 BYTE   W01
 BYTE   N06  Cs5
 BYTE   W05
 BYTE   PAN   c_v-32
 BYTE   W01
 BYTE   N06  Gn5
 BYTE   W05
 BYTE   PAN   c_v+32
 BYTE   W01
 BYTE   N06  En5
 BYTE   W05
 BYTE   PAN   c_v-32
 BYTE   W01
 BYTE   N06  Cs5
 BYTE   W05
 BYTE   PAN   c_v+32
 BYTE   W01
 BYTE   N06  Gn5
 BYTE   W05
 BYTE   PAN   c_v-32
 BYTE   W01
 BYTE   N06  En5
 BYTE   W05
 BYTE   PAN   c_v+32
 BYTE   W01
 BYTE   PEND 
// 009   ----------------------------------------
Label_6_0160514D:
 BYTE   N06  An5  v088
 BYTE   W05
 BYTE   PAN   c_v-32
 BYTE   W01
 BYTE   N06  Fs5
 BYTE   W05
 BYTE   PAN   c_v+32
 BYTE   W01
 BYTE   N06  Dn5
 BYTE   W05
 BYTE   PAN   c_v-32
 BYTE   W01
 BYTE   N06  An5
 BYTE   W05
 BYTE   PAN   c_v+32
 BYTE   W01
 BYTE   N06  Fs5
 BYTE   W05
 BYTE   PAN   c_v-32
 BYTE   W01
 BYTE   N06  Dn5
 BYTE   W05
 BYTE   PAN   c_v+32
 BYTE   W01
 BYTE   N06  An5
 BYTE   W05
 BYTE   PAN   c_v-32
 BYTE   W01
 BYTE   N06  Fs5
 BYTE   W05
 BYTE   PAN   c_v+32
 BYTE   W01
 BYTE   N06  Bn5
 BYTE   W05
 BYTE   PAN   c_v-32
 BYTE   W01
 BYTE   N06  An5
 BYTE   W05
 BYTE   PAN   c_v+32
 BYTE   W01
 BYTE   N06  Fs5
 BYTE   W05
 BYTE   PAN   c_v-32
 BYTE   W01
 BYTE   N06  Bn5
 BYTE   W05
 BYTE   PAN   c_v+32
 BYTE   W01
 BYTE   N06  An5
 BYTE   W05
 BYTE   PAN   c_v-32
 BYTE   W01
 BYTE   N06  Fs5
 BYTE   W05
 BYTE   PAN   c_v+32
 BYTE   W01
 BYTE   N06  Bn5
 BYTE   W05
 BYTE   PAN   c_v-32
 BYTE   W01
 BYTE   N06  An5
 BYTE   W05
 BYTE   PAN   c_v+32
 BYTE   W01
 BYTE   PEND 
 BYTE   PATT
  POIN2 Label_6_01605009
 BYTE   PATT
  POIN2 Label_6_0160507A
 BYTE   PATT
  POIN2 Label_6_01604F7A
 BYTE   PATT
  POIN2 Label_6_01604F7A
 BYTE   PATT
  POIN2 Label_6_01604F7A
 BYTE   PATT
  POIN2 Label_6_01604F7A
 BYTE   PATT
  POIN2 Label_6_01604F7A
 BYTE   PATT
  POIN2 Label_6_01604F7A
 BYTE   PATT
  POIN2 Label_6_01604F7A
 BYTE   PATT
  POIN2 Label_6_01604F7A
 BYTE   PATT
  POIN2 Label_6_01604F09
 BYTE   PATT
  POIN2 Label_6_01604F7A
 BYTE   PATT
  POIN2 Label_6_01604F7A
 BYTE   PATT
  POIN2 Label_6_01604F7A
 BYTE   PATT
  POIN2 Label_6_01604F7A
 BYTE   PATT
  POIN2 Label_6_01604F7A
 BYTE   PATT
  POIN2 Label_6_01604F7A
 BYTE   PATT
  POIN2 Label_6_01604F7A
 BYTE   PATT
  POIN2 Label_6_01605009
 BYTE   PATT
  POIN2 Label_6_0160507A
 BYTE   PATT
  POIN2 Label_6_016050EB
 BYTE   PATT
  POIN2 Label_6_0160514D
 BYTE   PATT
  POIN2 Label_6_01605009
 BYTE   PATT
  POIN2 Label_6_0160507A
 BYTE   PATT
  POIN2 Label_6_01604F7A
 BYTE   PATT
  POIN2 Label_6_01604F7A
 BYTE   PATT
  POIN2 Label_6_01604F7A
 BYTE   PATT
  POIN2 Label_6_01604F7A
 BYTE   PATT
  POIN2 Label_6_01604F7A
 BYTE   PATT
  POIN2 Label_6_01604F7A
 BYTE   PATT
  POIN2 Label_6_01604F7A
 BYTE   PATT
  POIN2 Label_6_01604F7A
// 010   ----------------------------------------
 BYTE   GoTo
  POIN2 Label_6_01604EF6
 BYTE   FINE

//**************** Track 8 (Midi-Chn.7) ****************//

MegamanXStormEagleAReliableChair_008:
// 000   ----------------------------------------
 BYTE   KEYSH   MegamanXStormEagleAReliableChair_key+0
Label_7_0160525A:
 BYTE   VOICE   124
 BYTE   MODT 0
 BYTE   CnM2  v000
 BYTE   LFOS 0
 BYTE   CnM2  v044
 BYTE   VOL   55*MegamanXStormEagleAReliableChair_mvl/mxv
 BYTE   PAN   c_v+0
 BYTE   W96
// 001   ----------------------------------------
 BYTE   W96
// 002   ----------------------------------------
 BYTE   W96
// 003   ----------------------------------------
 BYTE   W60
 BYTE   N03  Cn1  v088
 BYTE   W03
 BYTE   N02  Cn1  v056
 BYTE   W03
 BYTE   Cn1  v088
 BYTE   W02
 BYTE   N03  Cn1  v056
 BYTE   W04
 BYTE   N06  Dn1  v088
 BYTE   W24
// 004   ----------------------------------------
Label_7_0160527D:
 BYTE   N06  Cn1  v088
 BYTE   N24  Cs2
 BYTE   N24  An2
 BYTE   W24
 BYTE   N06  Dn1
 BYTE   W24
 BYTE   Cn1
 BYTE   W12
 BYTE   N06
 BYTE   W12
 BYTE   Dn1
 BYTE   W24
 BYTE   PEND 
// 005   ----------------------------------------
Label_7_0160528F:
 BYTE   N06  Cn1  v088
 BYTE   W12
 BYTE   N06
 BYTE   W12
 BYTE   Dn1
 BYTE   W12
 BYTE   Cn1
 BYTE   W24
 BYTE   N06
 BYTE   W12
 BYTE   Dn1
 BYTE   W12
 BYTE   Cn1
 BYTE   W12
 BYTE   PEND 
// 006   ----------------------------------------
Label_7_016052A0:
 BYTE   N06  Cn1  v088
 BYTE   W24
 BYTE   Dn1
 BYTE   W24
 BYTE   Cn1
 BYTE   W12
 BYTE   N06
 BYTE   W12
 BYTE   Dn1
 BYTE   W24
 BYTE   PEND 
 BYTE   PATT
  POIN2 Label_7_0160528F
// 007   ----------------------------------------
Label_7_016052B2:
 BYTE   N06  Cn1  v088
 BYTE   N24  Cs2
 BYTE   N24  An2
 BYTE   W24
 BYTE   N06  Dn1
 BYTE   W24
 BYTE   Cn1
 BYTE   W12
 BYTE   N06
 BYTE   W12
 BYTE   Dn1
 BYTE   W24
 BYTE   PEND 
// 008   ----------------------------------------
Label_7_016052C4:
 BYTE   N06  Cn1  v088
 BYTE   W12
 BYTE   N06
 BYTE   W12
 BYTE   Dn1
 BYTE   W12
 BYTE   Cn1
 BYTE   W24
 BYTE   N06
 BYTE   W12
 BYTE   Dn1
 BYTE   W24
 BYTE   PEND 
// 009   ----------------------------------------
Label_7_016052D3:
 BYTE   N06  Cn1  v088
 BYTE   W24
 BYTE   Dn1
 BYTE   W24
 BYTE   Cn1
 BYTE   W12
 BYTE   N06
 BYTE   W12
 BYTE   Dn1
 BYTE   W12
 BYTE   Cn1
 BYTE   W12
 BYTE   PEND 
// 010   ----------------------------------------
Label_7_016052E2:
 BYTE   N06  Cn1  v088
 BYTE   W12
 BYTE   N06
 BYTE   W12
 BYTE   Dn1
 BYTE   W12
 BYTE   Cn1
 BYTE   W24
 BYTE   N06
 BYTE   W12
 BYTE   Dn1
 BYTE   W12
 BYTE   N06
 BYTE   W06
 BYTE   N06
 BYTE   W06
 BYTE   PEND 
 BYTE   PATT
  POIN2 Label_7_016052B2
 BYTE   PATT
  POIN2 Label_7_0160528F
 BYTE   PATT
  POIN2 Label_7_016052A0
 BYTE   PATT
  POIN2 Label_7_016052E2
 BYTE   PATT
  POIN2 Label_7_016052B2
 BYTE   PATT
  POIN2 Label_7_016052E2
 BYTE   PATT
  POIN2 Label_7_016052B2
 BYTE   PATT
  POIN2 Label_7_016052D3
 BYTE   PATT
  POIN2 Label_7_016052B2
 BYTE   PATT
  POIN2 Label_7_016052D3
 BYTE   PATT
  POIN2 Label_7_016052B2
 BYTE   PATT
  POIN2 Label_7_016052D3
// 011   ----------------------------------------
Label_7_01605331:
 BYTE   N06  Cn1  v088
 BYTE   N24  Cs2
 BYTE   N24  An2
 BYTE   W12
 BYTE   N06  Cn1
 BYTE   W12
 BYTE   Dn1
 BYTE   W12
 BYTE   Cn1
 BYTE   W24
 BYTE   N06
 BYTE   W12
 BYTE   Dn1
 BYTE   W12
 BYTE   Cn1
 BYTE   W12
 BYTE   PEND 
// 012   ----------------------------------------
Label_7_01605347:
 BYTE   W12
 BYTE   N06  Cn1  v088
 BYTE   W12
 BYTE   Dn1
 BYTE   W24
 BYTE   Cn1
 BYTE   W12
 BYTE   N06
 BYTE   W12
 BYTE   Dn1
 BYTE   W12
 BYTE   N06
 BYTE   W06
 BYTE   N06
 BYTE   W06
 BYTE   PEND 
 BYTE   PATT
  POIN2 Label_7_0160527D
 BYTE   PATT
  POIN2 Label_7_0160528F
 BYTE   PATT
  POIN2 Label_7_016052A0
 BYTE   PATT
  POIN2 Label_7_0160528F
 BYTE   PATT
  POIN2 Label_7_016052B2
 BYTE   PATT
  POIN2 Label_7_016052C4
 BYTE   PATT
  POIN2 Label_7_016052D3
 BYTE   PATT
  POIN2 Label_7_016052E2
 BYTE   PATT
  POIN2 Label_7_016052B2
 BYTE   PATT
  POIN2 Label_7_0160528F
 BYTE   PATT
  POIN2 Label_7_016052A0
 BYTE   PATT
  POIN2 Label_7_016052E2
 BYTE   PATT
  POIN2 Label_7_016052B2
 BYTE   PATT
  POIN2 Label_7_016052E2
 BYTE   PATT
  POIN2 Label_7_016052B2
 BYTE   PATT
  POIN2 Label_7_016052D3
 BYTE   PATT
  POIN2 Label_7_016052B2
 BYTE   PATT
  POIN2 Label_7_016052D3
 BYTE   PATT
  POIN2 Label_7_016052B2
 BYTE   PATT
  POIN2 Label_7_016052D3
 BYTE   PATT
  POIN2 Label_7_01605331
 BYTE   PATT
  POIN2 Label_7_01605347
// 013   ----------------------------------------
 BYTE   GoTo
  POIN2 Label_7_0160525A
 BYTE   FINE

//******************************************************//
	ALIGN 4

MegamanXStormEagleAReliableChair:
	BYTE	8	// NumTrks
	BYTE	0	// NumBlks
	BYTE	MegamanXStormEagleAReliableChair_pri	// Priority
	BYTE	MegamanXStormEagleAReliableChair_rev	// Reverb.
    
	POIN2	MegamanXStormEagleAReliableChair_grp
    
	POIN2	MegamanXStormEagleAReliableChair_001
	POIN2	MegamanXStormEagleAReliableChair_002
	POIN2	MegamanXStormEagleAReliableChair_003
	POIN2	MegamanXStormEagleAReliableChair_004
	POIN2	MegamanXStormEagleAReliableChair_005
	POIN2	MegamanXStormEagleAReliableChair_006
	POIN2	MegamanXStormEagleAReliableChair_007
	POIN2	MegamanXStormEagleAReliableChair_008

	
