//Event file generated from Sappy .s format.
	#include "MPlayDef.event"

	#define	MegamanXArmoredArmadilloRandomWizard_grp  voicegroup000
	#define	MegamanXArmoredArmadilloRandomWizard_pri  0
	#define	MegamanXArmoredArmadilloRandomWizard_rev  0
	#define	MegamanXArmoredArmadilloRandomWizard_mvl  127
	#define	MegamanXArmoredArmadilloRandomWizard_key  0
	#define	MegamanXArmoredArmadilloRandomWizard_tbs  1
	#define	MegamanXArmoredArmadilloRandomWizard_exg  0
	#define	MegamanXArmoredArmadilloRandomWizard_cmp  1

	// .rodata
	//	MegamanXArmoredArmadilloRandomWizard
	ALIGN 4


//**************** Track 1 (Midi-Chn.0) ****************//

MegamanXArmoredArmadilloRandomWizard_001:
// 000   ----------------------------------------
 BYTE   VOL   40*MegamanXArmoredArmadilloRandomWizard_mvl/mxv
 BYTE   KEYSH   MegamanXArmoredArmadilloRandomWizard_key+0
 BYTE   TEMPO   138*MegamanXArmoredArmadilloRandomWizard_tbs/2
 BYTE   VOICE   56
 BYTE   W36
Label_0_015D9DA9:
 BYTE   N06  An3  v100
 BYTE   W06
 BYTE   N12  Cn4
 BYTE   W12
 BYTE   Gn3
 BYTE   W12
 BYTE   Gs3
 BYTE   W12
 BYTE   N54  An3
 BYTE   W54
 BYTE   PEND 
// 001   ----------------------------------------
Label_0_015D9DB8:
 BYTE   N06  Gn2  v100
 BYTE   W06
 BYTE   N12  Gs2
 BYTE   W12
 BYTE   An2
 BYTE   W12
 BYTE   Cn3
 BYTE   W12
 BYTE   N54  An2
 BYTE   W54
 BYTE   PEND 
 BYTE   PATT
  POIN2 Label_0_015D9DA9
// 002   ----------------------------------------
 BYTE   W12
 BYTE   N06  An2  v100
 BYTE   W06
 BYTE   Cn3
 BYTE   W06
 BYTE   Dn3
 BYTE   W06
 BYTE   Ds3
 BYTE   W06
 BYTE   Dn3
 BYTE   W06
 BYTE   Cn3
 BYTE   W06
 BYTE   N12  En3
 BYTE   W12
 BYTE   Cn3
 BYTE   W12
 BYTE   Bn2
 BYTE   W12
 BYTE   Gn2
 BYTE   W12
 BYTE   PATT
  POIN2 Label_0_015D9DA9
 BYTE   PATT
  POIN2 Label_0_015D9DB8
 BYTE   PATT
  POIN2 Label_0_015D9DA9
// 003   ----------------------------------------
 BYTE   N36  En3  v100
 BYTE   W48
 BYTE   N06  An2
 BYTE   W06
 BYTE   Cn3
 BYTE   W06
 BYTE   En3
 BYTE   W06
 BYTE   Gn3
 BYTE   W06
 BYTE   Gs3
 BYTE   W06
 BYTE   An3
 BYTE   W06
 BYTE   Cn4
 BYTE   W06
 BYTE   Bn3
 BYTE   W06
// 004   ----------------------------------------
Label_0_015D9E08:
 BYTE   W12
 BYTE   N06  An2  v100
 BYTE   W06
 BYTE   N12  Cn3
 BYTE   W12
 BYTE   Dn3
 BYTE   W12
 BYTE   N06  Cn3
 BYTE   W06
 BYTE   N12  Ds3
 BYTE   W12
 BYTE   N06  Dn3
 BYTE   W06
 BYTE   N12  Cn3
 BYTE   W12
 BYTE   En3
 BYTE   W12
 BYTE   N06  Gn3
 BYTE   W06
 BYTE   PEND 
// 005   ----------------------------------------
Label_0_015D9E24:
 BYTE   N12  An3  v100
 BYTE   W12
 BYTE   Gn3
 BYTE   W12
 BYTE   Ds3
 BYTE   W12
 BYTE   N60  En3
 BYTE   W60
 BYTE   PEND 
// 006   ----------------------------------------
 BYTE   W12
 BYTE   N06  An2
 BYTE   W06
 BYTE   N12  Cn3
 BYTE   W12
 BYTE   Dn3
 BYTE   W12
 BYTE   N06  Cn3
 BYTE   W06
 BYTE   N12  Ds3
 BYTE   W12
 BYTE   N06  Dn3
 BYTE   W06
 BYTE   N12  Cn3
 BYTE   W12
 BYTE   Gn2
 BYTE   W12
 BYTE   N06  Gs2
 BYTE   W06
// 007   ----------------------------------------
 BYTE   N12  An2
 BYTE   W12
 BYTE   Gn2
 BYTE   W12
 BYTE   Cn3
 BYTE   W12
 BYTE   N60  An2
 BYTE   W60
 BYTE   PATT
  POIN2 Label_0_015D9E08
 BYTE   PATT
  POIN2 Label_0_015D9E24
// 008   ----------------------------------------
 BYTE   W12
 BYTE   N06  An2  v100
 BYTE   W06
 BYTE   N12  Cn3
 BYTE   W12
 BYTE   Dn3
 BYTE   W12
 BYTE   N06  Cn3
 BYTE   W06
 BYTE   N12  An3
 BYTE   W12
 BYTE   N06  Gn3
 BYTE   W06
 BYTE   N12  En3
 BYTE   W12
 BYTE   Bn2
 BYTE   W12
 BYTE   N06  Cn3
 BYTE   W06
// 009   ----------------------------------------
 BYTE   N12  Dn3
 BYTE   W12
 BYTE   Bn2
 BYTE   W12
 BYTE   Gn2
 BYTE   W12
 BYTE   N60  An2
 BYTE   W60
// 010   ----------------------------------------
 BYTE   W12
 BYTE   N06  An3
 BYTE   W06
 BYTE   N12  Gn3
 BYTE   W12
 BYTE   N06  Dn3
 BYTE   W06
 BYTE   Ds3
 BYTE   W06
 BYTE   En3
 BYTE   W06
 BYTE   N12  Gn3
 BYTE   W12
 BYTE   An3
 BYTE   W12
 BYTE   Cn4
 BYTE   W12
 BYTE   An3
 BYTE   W12
// 011   ----------------------------------------
 BYTE   Dn4
 BYTE   W12
 BYTE   Cn4
 BYTE   W12
 BYTE   Bn3
 BYTE   W12
 BYTE   N60  En3
 BYTE   W60
// 012   ----------------------------------------
 BYTE   W12
 BYTE   N12
 BYTE   W12
 BYTE   Bn3
 BYTE   W12
 BYTE   An3
 BYTE   W12
 BYTE   Gn3
 BYTE   W12
 BYTE   Cn4
 BYTE   W12
 BYTE   Bn3
 BYTE   W12
 BYTE   Dn4
 BYTE   W12
// 013   ----------------------------------------
 BYTE   Cn4
 BYTE   W12
 BYTE   Bn3
 BYTE   W12
 BYTE   Gn3
 BYTE   W12
 BYTE   N60  An3
 BYTE   W60
// 014   ----------------------------------------
 BYTE   W12
 BYTE   N12  An4
 BYTE   W12
 BYTE   Gn4
 BYTE   W12
 BYTE   Dn4
 BYTE   W12
 BYTE   En4
 BYTE   W12
 BYTE   Gn4
 BYTE   W12
 BYTE   En4
 BYTE   W12
 BYTE   Bn3
 BYTE   W12
// 015   ----------------------------------------
 BYTE   Dn4
 BYTE   W12
 BYTE   Cn4
 BYTE   W12
 BYTE   Bn3
 BYTE   W12
 BYTE   N60  En4
 BYTE   W60
// 016   ----------------------------------------
 BYTE   W12
 BYTE   N12  En3
 BYTE   W12
 BYTE   Gn3
 BYTE   W12
 BYTE   Bn3
 BYTE   W12
 BYTE   En4
 BYTE   W12
 BYTE   Dn4
 BYTE   W12
 BYTE   Cn4
 BYTE   W12
 BYTE   Bn3
 BYTE   W12
// 017   ----------------------------------------
 BYTE   N18  Cn4
 BYTE   W18
 BYTE   Bn3
 BYTE   W18
 BYTE   N24  An3
 BYTE   W24
 BYTE   N06  En4
 BYTE   W06
 BYTE   Dn4
 BYTE   W06
 BYTE   Cn4
 BYTE   W06
 BYTE   Bn3
 BYTE   W06
 BYTE   Cn4
 BYTE   W06
 BYTE   Bn3
 BYTE   W06
// 018   ----------------------------------------
 BYTE   W96
// 019   ----------------------------------------
 BYTE   W96
// 020   ----------------------------------------
 BYTE   W96
// 021   ----------------------------------------
 BYTE   W96
// 022   ----------------------------------------
 BYTE   W96
// 023   ----------------------------------------
 BYTE   W96
// 024   ----------------------------------------
 BYTE   W96
// 025   ----------------------------------------
 BYTE   W96
// 026   ----------------------------------------
 BYTE   GoTo
  POIN2 Label_0_015D9DA9
 BYTE   PATT
  POIN2 Label_0_015D9DA9
 BYTE   FINE

//**************** Track 2 (Midi-Chn.1) ****************//

MegamanXArmoredArmadilloRandomWizard_002:
// 000   ----------------------------------------
 BYTE   VOL   40*MegamanXArmoredArmadilloRandomWizard_mvl/mxv
 BYTE   KEYSH   MegamanXArmoredArmadilloRandomWizard_key+0
 BYTE   VOICE   30
 BYTE   W36
Label_1_547ADF:
 BYTE   W96
// 001   ----------------------------------------
 BYTE   W96
// 002   ----------------------------------------
 BYTE   W96
// 003   ----------------------------------------
 BYTE   W96
// 004   ----------------------------------------
 BYTE   W96
// 005   ----------------------------------------
 BYTE   W96
// 006   ----------------------------------------
 BYTE   W96
// 007   ----------------------------------------
 BYTE   W96
// 008   ----------------------------------------
 BYTE   W96
// 009   ----------------------------------------
 BYTE   W96
// 010   ----------------------------------------
 BYTE   W96
// 011   ----------------------------------------
 BYTE   W96
// 012   ----------------------------------------
 BYTE   W96
// 013   ----------------------------------------
 BYTE   W96
// 014   ----------------------------------------
 BYTE   W96
// 015   ----------------------------------------
 BYTE   W96
// 016   ----------------------------------------
 BYTE   W96
// 017   ----------------------------------------
 BYTE   W96
// 018   ----------------------------------------
 BYTE   W96
// 019   ----------------------------------------
 BYTE   W96
// 020   ----------------------------------------
 BYTE   W96
// 021   ----------------------------------------
 BYTE   W96
// 022   ----------------------------------------
 BYTE   W96
// 023   ----------------------------------------
 BYTE   W96
// 024   ----------------------------------------
 BYTE   N06  Gn3  v100
 BYTE   W06
 BYTE   An3
 BYTE   W06
 BYTE   En3
 BYTE   W06
 BYTE   Gn3
 BYTE   W06
 BYTE   Gs3
 BYTE   W06
 BYTE   An3
 BYTE   W06
 BYTE   Dn4
 BYTE   W06
 BYTE   Bn3
 BYTE   W06
 BYTE   Cn4
 BYTE   W06
 BYTE   Dn4
 BYTE   W06
 BYTE   Cn4
 BYTE   W06
 BYTE   Ds4
 BYTE   W06
 BYTE   En4
 BYTE   W06
 BYTE   Bn3
 BYTE   W06
 BYTE   Cn4
 BYTE   W06
 BYTE   En4
 BYTE   W06
// 025   ----------------------------------------
 BYTE   An4
 BYTE   W06
 BYTE   Gn4
 BYTE   W06
 BYTE   En4
 BYTE   W06
 BYTE   An4
 BYTE   W06
 BYTE   Gn4
 BYTE   W06
 BYTE   En4
 BYTE   W06
 BYTE   An4
 BYTE   W06
 BYTE   Gn4
 BYTE   W06
 BYTE   En4
 BYTE   W06
 BYTE   An4
 BYTE   W06
 BYTE   Gn4
 BYTE   W06
 BYTE   En4
 BYTE   W06
 BYTE   An4
 BYTE   W06
 BYTE   Gn4
 BYTE   W06
 BYTE   N12  En4
 BYTE   W12
// 026   ----------------------------------------
 BYTE   N06
 BYTE   W06
 BYTE   Cn4
 BYTE   W06
 BYTE   An3
 BYTE   W06
 BYTE   En4
 BYTE   W06
 BYTE   Cn4
 BYTE   W06
 BYTE   An3
 BYTE   W06
 BYTE   En4
 BYTE   W06
 BYTE   Cn4
 BYTE   W06
 BYTE   An3
 BYTE   W06
 BYTE   En4
 BYTE   W06
 BYTE   Cn4
 BYTE   W06
 BYTE   An3
 BYTE   W06
 BYTE   En4
 BYTE   W06
 BYTE   Cn4
 BYTE   W06
 BYTE   N24  An3
 BYTE   W12
// 027   ----------------------------------------
 BYTE   W12
 BYTE   N06  Cn4
 BYTE   W06
 BYTE   Bn3
 BYTE   W06
 BYTE   Gn3
 BYTE   W06
 BYTE   N18  En3
 BYTE   W18
 BYTE   N06  Gn3
 BYTE   W06
 BYTE   Gs3
 BYTE   W06
 BYTE   N36  An3
 BYTE   W36
// 028   ----------------------------------------
 BYTE   An4
 BYTE   W36
 BYTE   En4
 BYTE   W36
 BYTE   N12  Bn4
 BYTE   W12
 BYTE   Cn5
 BYTE   W12
// 029   ----------------------------------------
 BYTE   Dn5
 BYTE   W12
 BYTE   Bn4
 BYTE   W12
 BYTE   Gn4
 BYTE   W12
 BYTE   En4
 BYTE   W12
 BYTE   Dn4
 BYTE   W12
 BYTE   Bn3
 BYTE   W12
 BYTE   Cn4
 BYTE   W12
 BYTE   An3
 BYTE   W12
// 030   ----------------------------------------
 BYTE   N18  Ds3
 BYTE   W18
 BYTE   N18
 BYTE   W18
 BYTE   N12
 BYTE   W12
 BYTE   N18
 BYTE   W18
 BYTE   Dn3
 BYTE   W18
 BYTE   N12  Cn3
 BYTE   W12
// 031   ----------------------------------------
 BYTE   N48  An3
 BYTE   W96
// 032   ----------------------------------------
 BYTE   GoTo
  POIN2 Label_1_547ADF
// 033   ----------------------------------------
 BYTE   W96
 BYTE   FINE

//**************** Track 3 (Midi-Chn.2) ****************//

MegamanXArmoredArmadilloRandomWizard_003:
// 000   ----------------------------------------
 BYTE   KEYSH   MegamanXArmoredArmadilloRandomWizard_key+0
 BYTE   VOICE   61
 BYTE   VOL   31*MegamanXArmoredArmadilloRandomWizard_mvl/mxv
 BYTE   PAN   c_v-32
 BYTE   N12  An3  v100
 BYTE   W12
 BYTE   Gs3
 BYTE   N12  Cn4
 BYTE   W12
 BYTE   Gn3
 BYTE   N12  Dn4
 BYTE   W12
Label_2_547CC4:
 BYTE   N18  Fn3  v100
 BYTE   N18  Ds4
 BYTE   W18
 BYTE   Fn3
 BYTE   N18  Ds4
 BYTE   W18
 BYTE   N12  Fn3
 BYTE   N12  Ds4
 BYTE   W12
 BYTE   N18  Fn3
 BYTE   N18  Ds4
 BYTE   W18
// 001   ----------------------------------------
 BYTE   Fn3
 BYTE   N18  Dn4
 BYTE   W18
 BYTE   N12  Gn3
 BYTE   N12  Cn4
 BYTE   W12
 BYTE   PEND 
 BYTE   N24  An3
 BYTE   W60
 BYTE   N12
 BYTE   W12
// 002   ----------------------------------------
 BYTE   Gs3
 BYTE   N12  Cn4
 BYTE   W12
 BYTE   Gn3
 BYTE   N12  Dn4
 BYTE   W12
 BYTE   PATT
  POIN2 Label_2_547CC4
// 003   ----------------------------------------
 BYTE   N24  An3  v100
 BYTE   W60
 BYTE   N12
 BYTE   W12
 BYTE   Cn4
 BYTE   N12  En4
 BYTE   W12
 BYTE   Bn3
 BYTE   N12  Dn4
 BYTE   W12
// 004   ----------------------------------------
 BYTE   N18  Fn3
 BYTE   N18  Cn4
 BYTE   W18
 BYTE   Fn3
 BYTE   N18  Cn4
 BYTE   W18
 BYTE   N12  Fn3
 BYTE   N12  Cn4
 BYTE   W12
 BYTE   N18  Fn3
 BYTE   N18  Cn4
 BYTE   W18
 BYTE   Fn3
 BYTE   N18  Bn3
 BYTE   W18
 BYTE   N12  Gn3
 BYTE   W12
// 005   ----------------------------------------
 BYTE   N24  En3
 BYTE   N24  An3
 BYTE   W60
 BYTE   N12
 BYTE   W12
 BYTE   Gs3
 BYTE   N12  Cn4
 BYTE   W12
 BYTE   Gn3
 BYTE   N12  Dn4
 BYTE   W12
 BYTE   PATT
  POIN2 Label_2_547CC4
// 006   ----------------------------------------
 BYTE   N18  An3  v100
 BYTE   N18  En4
 BYTE   W18
 BYTE   N30
 BYTE   N30  An4
 BYTE   W78
// 007   ----------------------------------------
 BYTE   W96
// 008   ----------------------------------------
 BYTE   W96
// 009   ----------------------------------------
 BYTE   W96
// 010   ----------------------------------------
 BYTE   W96
// 011   ----------------------------------------
 BYTE   W96
// 012   ----------------------------------------
 BYTE   W96
// 013   ----------------------------------------
 BYTE   W96
// 014   ----------------------------------------
 BYTE   W96
// 015   ----------------------------------------
 BYTE   W96
// 016   ----------------------------------------
 BYTE   W96
// 017   ----------------------------------------
 BYTE   W96
// 018   ----------------------------------------
 BYTE   W96
// 019   ----------------------------------------
 BYTE   W96
// 020   ----------------------------------------
 BYTE   W96
// 021   ----------------------------------------
 BYTE   W96
// 022   ----------------------------------------
 BYTE   W96
// 023   ----------------------------------------
 BYTE   W96
// 024   ----------------------------------------
 BYTE   W96
// 025   ----------------------------------------
 BYTE   W96
// 026   ----------------------------------------
 BYTE   W96
// 027   ----------------------------------------
 BYTE   W96
// 028   ----------------------------------------
 BYTE   W96
// 029   ----------------------------------------
 BYTE   W96
// 030   ----------------------------------------
 BYTE   W60
 BYTE   N12  An3
 BYTE   W12
 BYTE   Gs3
 BYTE   N12  Cn4
 BYTE   W12
 BYTE   Gn3
 BYTE   N12  Dn4
 BYTE   W12
// 031   ----------------------------------------
 BYTE   GoTo
  POIN2 Label_2_547CC4
 BYTE   PATT
  POIN2 Label_2_547CC4
 BYTE   FINE

//**************** Track 4 (Midi-Chn.3) ****************//

MegamanXArmoredArmadilloRandomWizard_004:
// 000   ----------------------------------------
 BYTE   KEYSH   MegamanXArmoredArmadilloRandomWizard_key+0
 BYTE   VOICE   103
 BYTE   VOL   31*MegamanXArmoredArmadilloRandomWizard_mvl/mxv
 BYTE   PAN   c_v+16
 BYTE   W36
Label_3_015D9F15:
 BYTE   W96
// 001   ----------------------------------------
 BYTE   W96
// 002   ----------------------------------------
 BYTE   W96
// 003   ----------------------------------------
 BYTE   W96
// 004   ----------------------------------------
 BYTE   W96
// 005   ----------------------------------------
 BYTE   W96
// 006   ----------------------------------------
 BYTE   W96
// 007   ----------------------------------------
 BYTE   W96
// 008   ----------------------------------------
Label_3_015D9F1D:
 BYTE   N06  Fn3  v100
 BYTE   W06
 BYTE   Cn4
 BYTE   W06
 BYTE   Fn4
 BYTE   W06
 BYTE   Fn3
 BYTE   W06
 BYTE   Cn4
 BYTE   W06
 BYTE   Fn4
 BYTE   W06
 BYTE   Fn3
 BYTE   W06
 BYTE   Cn4
 BYTE   W06
 BYTE   Fn4
 BYTE   W06
 BYTE   Fn3
 BYTE   W06
 BYTE   Cn4
 BYTE   W06
 BYTE   Fn4
 BYTE   W06
 BYTE   Fn3
 BYTE   W06
 BYTE   Cn4
 BYTE   W06
 BYTE   Fn4
 BYTE   W06
 BYTE   Fn3
 BYTE   W06
 BYTE   PEND 
// 009   ----------------------------------------
Label_3_015D9F40:
 BYTE   N06  An3  v100
 BYTE   W06
 BYTE   En4
 BYTE   W06
 BYTE   An4
 BYTE   W06
 BYTE   An3
 BYTE   W06
 BYTE   En4
 BYTE   W06
 BYTE   An4
 BYTE   W06
 BYTE   An3
 BYTE   W06
 BYTE   En4
 BYTE   W06
 BYTE   An4
 BYTE   W06
 BYTE   An3
 BYTE   W06
 BYTE   En4
 BYTE   W06
 BYTE   An4
 BYTE   W06
 BYTE   An3
 BYTE   W06
 BYTE   En4
 BYTE   W06
 BYTE   An4
 BYTE   W06
 BYTE   An3
 BYTE   W06
 BYTE   PEND 
 BYTE   PATT
  POIN2 Label_3_015D9F1D
 BYTE   PATT
  POIN2 Label_3_015D9F40
 BYTE   PATT
  POIN2 Label_3_015D9F1D
 BYTE   PATT
  POIN2 Label_3_015D9F40
 BYTE   PATT
  POIN2 Label_3_015D9F1D
 BYTE   PATT
  POIN2 Label_3_015D9F40
// 010   ----------------------------------------
 BYTE   W96
// 011   ----------------------------------------
 BYTE   W96
// 012   ----------------------------------------
 BYTE   W96
// 013   ----------------------------------------
 BYTE   W96
// 014   ----------------------------------------
 BYTE   W96
// 015   ----------------------------------------
 BYTE   W96
// 016   ----------------------------------------
 BYTE   W96
// 017   ----------------------------------------
 BYTE   W96
// 018   ----------------------------------------
 BYTE   W96
// 019   ----------------------------------------
 BYTE   W96
// 020   ----------------------------------------
 BYTE   W96
// 021   ----------------------------------------
 BYTE   W96
// 022   ----------------------------------------
 BYTE   W96
// 023   ----------------------------------------
 BYTE   W96
// 024   ----------------------------------------
 BYTE   W96
// 025   ----------------------------------------
 BYTE   W96
// 026   ----------------------------------------
 BYTE   GoTo
  POIN2 Label_3_015D9F15
// 027   ----------------------------------------
 BYTE   W96
 BYTE   FINE

//**************** Track 5 (Midi-Chn.4) ****************//

MegamanXArmoredArmadilloRandomWizard_005:
// 000   ----------------------------------------
 BYTE   KEYSH   MegamanXArmoredArmadilloRandomWizard_key+0
 BYTE   VOICE   48
 BYTE   VOL   36*MegamanXArmoredArmadilloRandomWizard_mvl/mxv
 BYTE   PAN   c_v-32
 BYTE   W36
Label_4_015D9FA1:
 BYTE   W96
// 001   ----------------------------------------
 BYTE   W96
// 002   ----------------------------------------
 BYTE   W96
// 003   ----------------------------------------
 BYTE   W96
// 004   ----------------------------------------
 BYTE   W96
// 005   ----------------------------------------
 BYTE   W96
// 006   ----------------------------------------
 BYTE   W96
// 007   ----------------------------------------
 BYTE   W96
// 008   ----------------------------------------
 BYTE   W96
// 009   ----------------------------------------
 BYTE   W96
// 010   ----------------------------------------
 BYTE   W96
// 011   ----------------------------------------
 BYTE   W96
// 012   ----------------------------------------
 BYTE   N96  Fn3  v100
 BYTE   W96
// 013   ----------------------------------------
 BYTE   En3
 BYTE   W96
// 014   ----------------------------------------
 BYTE   Fn3
 BYTE   W96
// 015   ----------------------------------------
 BYTE   En3
 BYTE   W96
// 016   ----------------------------------------
 BYTE   Cn4
 BYTE   W96
// 017   ----------------------------------------
 BYTE   Dn4
 BYTE   W96
// 018   ----------------------------------------
 BYTE   Bn3
 BYTE   W96
// 019   ----------------------------------------
 BYTE   W12
 BYTE   N06  An4
 BYTE   W06
 BYTE   Bn4
 BYTE   W06
 BYTE   Cn5
 BYTE   W06
 BYTE   Dn5
 BYTE   W06
 BYTE   En5
 BYTE   W06
 BYTE   Cn5
 BYTE   W06
 BYTE   Dn5
 BYTE   W06
 BYTE   Bn4
 BYTE   W06
 BYTE   Cn5
 BYTE   W06
 BYTE   An4
 BYTE   W06
 BYTE   Bn4
 BYTE   W06
 BYTE   Gn4
 BYTE   W06
 BYTE   An4
 BYTE   W06
 BYTE   En4
 BYTE   W06
// 020   ----------------------------------------
 BYTE   N96  Fn4
 BYTE   W96
// 021   ----------------------------------------
 BYTE   Gn4
 BYTE   W96
// 022   ----------------------------------------
 BYTE   Bn4
 BYTE   W96
// 023   ----------------------------------------
 BYTE   N48  An4
 BYTE   W60
 BYTE   N12  An3
 BYTE   W12
 BYTE   Cn4
 BYTE   W12
 BYTE   Dn4
 BYTE   W12
// 024   ----------------------------------------
 BYTE   N96  An3
 BYTE   W96
// 025   ----------------------------------------
 BYTE   Cn4
 BYTE   W96
// 026   ----------------------------------------
 BYTE   An3
 BYTE   W96
// 027   ----------------------------------------
 BYTE   Cn4
 BYTE   W96
// 028   ----------------------------------------
 BYTE   An3
 BYTE   W96
// 029   ----------------------------------------
 BYTE   Cn4
 BYTE   W96
// 030   ----------------------------------------
 BYTE   An3
 BYTE   W96
// 031   ----------------------------------------
 BYTE   N60  Cn4
 BYTE   W36
 BYTE   W01
 BYTE   W01
 BYTE   W01
 BYTE   W01
 BYTE   W01
 BYTE   W01
 BYTE   W01
 BYTE   W01
 BYTE   W01
 BYTE   W01
 BYTE   W01
 BYTE   W01
 BYTE   W01
 BYTE   W01
 BYTE   W01
 BYTE   W01
 BYTE   W01
 BYTE   W01
 BYTE   W01
 BYTE   W01
 BYTE   W01
 BYTE   W01
 BYTE   W01
 BYTE   W36
 BYTE   W01
// 032   ----------------------------------------
 BYTE   GoTo
  POIN2 Label_4_015D9FA1
// 033   ----------------------------------------
 BYTE   W96
 BYTE   FINE

//**************** Track 6 (Midi-Chn.5) ****************//

MegamanXArmoredArmadilloRandomWizard_006:
// 000   ----------------------------------------
 BYTE   KEYSH   MegamanXArmoredArmadilloRandomWizard_key+0
 BYTE   VOICE   48
 BYTE   VOL   36*MegamanXArmoredArmadilloRandomWizard_mvl/mxv
 BYTE   PAN   c_v+63
 BYTE   W36
Label_5_015DA029:
 BYTE   W96
// 001   ----------------------------------------
 BYTE   W96
// 002   ----------------------------------------
 BYTE   W96
// 003   ----------------------------------------
 BYTE   W96
// 004   ----------------------------------------
 BYTE   W96
// 005   ----------------------------------------
 BYTE   W96
// 006   ----------------------------------------
 BYTE   W96
// 007   ----------------------------------------
 BYTE   W96
// 008   ----------------------------------------
 BYTE   W96
// 009   ----------------------------------------
 BYTE   W96
// 010   ----------------------------------------
 BYTE   W96
// 011   ----------------------------------------
 BYTE   W96
// 012   ----------------------------------------
 BYTE   W96
// 013   ----------------------------------------
 BYTE   W96
// 014   ----------------------------------------
 BYTE   W96
// 015   ----------------------------------------
 BYTE   W96
// 016   ----------------------------------------
 BYTE   N96  Fn4  v100
 BYTE   W96
// 017   ----------------------------------------
 BYTE   Gn4
 BYTE   W96
// 018   ----------------------------------------
 BYTE   En4
 BYTE   W96
// 019   ----------------------------------------
 BYTE   W12
 BYTE   N06  An3
 BYTE   W06
 BYTE   Bn3
 BYTE   W06
 BYTE   Cn4
 BYTE   W06
 BYTE   Dn4
 BYTE   W06
 BYTE   En4
 BYTE   W06
 BYTE   Cn4
 BYTE   W06
 BYTE   Dn4
 BYTE   W06
 BYTE   Bn3
 BYTE   W06
 BYTE   Cn4
 BYTE   W06
 BYTE   An3
 BYTE   W06
 BYTE   Bn3
 BYTE   W06
 BYTE   Gn3
 BYTE   W06
 BYTE   An3
 BYTE   W06
 BYTE   En3
 BYTE   W06
// 020   ----------------------------------------
 BYTE   N96  Cn4
 BYTE   W96
// 021   ----------------------------------------
 BYTE   Dn4
 BYTE   W96
// 022   ----------------------------------------
 BYTE   Bn3
 BYTE   W96
// 023   ----------------------------------------
 BYTE   N48  An3
 BYTE   W60
 BYTE   N12
 BYTE   W12
 BYTE   Cn4
 BYTE   W12
 BYTE   Dn4
 BYTE   W12
// 024   ----------------------------------------
 BYTE   N96  Cn3
 BYTE   N96  Fn3
 BYTE   W96
// 025   ----------------------------------------
 BYTE   En3
 BYTE   N96  An3
 BYTE   W96
// 026   ----------------------------------------
 BYTE   Cn3
 BYTE   N96  Fn3
 BYTE   W96
// 027   ----------------------------------------
 BYTE   En3
 BYTE   N96  An3
 BYTE   W96
// 028   ----------------------------------------
 BYTE   Cn3
 BYTE   N96  Fn3
 BYTE   W96
// 029   ----------------------------------------
 BYTE   En3
 BYTE   N96  An3
 BYTE   W96
// 030   ----------------------------------------
 BYTE   Cn3
 BYTE   N96  Fn3
 BYTE   W96
// 031   ----------------------------------------
 BYTE   N60  En3
 BYTE   N60  An3
 BYTE   W36
 BYTE   W01
 BYTE   W01
 BYTE   W01
 BYTE   W01
 BYTE   W01
 BYTE   W01
 BYTE   W01
 BYTE   W01
 BYTE   W01
 BYTE   W01
 BYTE   W01
 BYTE   W01
 BYTE   W01
 BYTE   W01
 BYTE   W01
 BYTE   W01
 BYTE   W01
 BYTE   W01
 BYTE   W01
 BYTE   W01
 BYTE   W01
 BYTE   W01
 BYTE   W01
 BYTE   W36
 BYTE   W01
// 032   ----------------------------------------
 BYTE   GoTo
  POIN2 Label_5_015DA029
// 033   ----------------------------------------
 BYTE   W96
 BYTE   FINE

//**************** Track 7 (Midi-Chn.6) ****************//

MegamanXArmoredArmadilloRandomWizard_007:
// 000   ----------------------------------------
 BYTE   KEYSH   MegamanXArmoredArmadilloRandomWizard_key+0
 BYTE   VOICE   24
 BYTE   VOL   28*MegamanXArmoredArmadilloRandomWizard_mvl/mxv
 BYTE   PAN   c_v+0
 BYTE   W36
Label_6_015DA0BD:
 BYTE   W96
// 001   ----------------------------------------
 BYTE   W96
// 002   ----------------------------------------
 BYTE   W96
// 003   ----------------------------------------
 BYTE   W96
// 004   ----------------------------------------
 BYTE   W96
// 005   ----------------------------------------
 BYTE   W96
// 006   ----------------------------------------
 BYTE   W96
// 007   ----------------------------------------
 BYTE   W96
// 008   ----------------------------------------
Label_6_015DA0C5:
 BYTE   W12
 BYTE   N06  An2  v100
 BYTE   W06
 BYTE   N12  Cn3
 BYTE   W12
 BYTE   Dn3
 BYTE   W12
 BYTE   N06  Cn3
 BYTE   W06
 BYTE   N12  Ds3
 BYTE   W12
 BYTE   N06  Dn3
 BYTE   W06
 BYTE   N12  Cn3
 BYTE   W12
 BYTE   En3
 BYTE   W12
 BYTE   N06  Gn3
 BYTE   W06
 BYTE   PEND 
// 009   ----------------------------------------
Label_6_015DA0E1:
 BYTE   N12  An3  v100
 BYTE   W12
 BYTE   Gn3
 BYTE   W12
 BYTE   Ds3
 BYTE   W12
 BYTE   N60  En3
 BYTE   W60
 BYTE   PEND 
// 010   ----------------------------------------
 BYTE   W12
 BYTE   N06  An2
 BYTE   W06
 BYTE   N12  Cn3
 BYTE   W12
 BYTE   Dn3
 BYTE   W12
 BYTE   N06  Cn3
 BYTE   W06
 BYTE   N12  Ds3
 BYTE   W12
 BYTE   N06  Dn3
 BYTE   W06
 BYTE   N12  Cn3
 BYTE   W12
 BYTE   Gn2
 BYTE   W12
 BYTE   N06  Gs2
 BYTE   W06
// 011   ----------------------------------------
 BYTE   N12  An2
 BYTE   W12
 BYTE   Gn2
 BYTE   W12
 BYTE   Cn3
 BYTE   W12
 BYTE   N60  An2
 BYTE   W60
 BYTE   PATT
  POIN2 Label_6_015DA0C5
 BYTE   PATT
  POIN2 Label_6_015DA0E1
// 012   ----------------------------------------
 BYTE   W12
 BYTE   N06  An2  v100
 BYTE   W06
 BYTE   N12  Cn3
 BYTE   W12
 BYTE   Dn3
 BYTE   W12
 BYTE   N06  Cn3
 BYTE   W06
 BYTE   N12  An3
 BYTE   W12
 BYTE   N06  Gn3
 BYTE   W06
 BYTE   N12  En3
 BYTE   W12
 BYTE   Bn2
 BYTE   W12
 BYTE   N06  Cn3
 BYTE   W06
// 013   ----------------------------------------
 BYTE   N12  Dn3
 BYTE   W12
 BYTE   Bn2
 BYTE   W12
 BYTE   Gn2
 BYTE   W12
 BYTE   N60  An2
 BYTE   W60
// 014   ----------------------------------------
 BYTE   W96
// 015   ----------------------------------------
 BYTE   W96
// 016   ----------------------------------------
 BYTE   W96
// 017   ----------------------------------------
 BYTE   W96
// 018   ----------------------------------------
 BYTE   W96
// 019   ----------------------------------------
 BYTE   W96
// 020   ----------------------------------------
 BYTE   W96
// 021   ----------------------------------------
 BYTE   W96
// 022   ----------------------------------------
 BYTE   W96
// 023   ----------------------------------------
 BYTE   W96
// 024   ----------------------------------------
 BYTE   W96
// 025   ----------------------------------------
 BYTE   W96
// 026   ----------------------------------------
 BYTE   W96
// 027   ----------------------------------------
 BYTE   W96
// 028   ----------------------------------------
 BYTE   W96
// 029   ----------------------------------------
 BYTE   W96
// 030   ----------------------------------------
 BYTE   GoTo
  POIN2 Label_6_015DA0BD
// 031   ----------------------------------------
 BYTE   W96
 BYTE   FINE

//**************** Track 8 (Midi-Chn.7) ****************//

MegamanXArmoredArmadilloRandomWizard_008:
// 000   ----------------------------------------
 BYTE   KEYSH   MegamanXArmoredArmadilloRandomWizard_key+0
 BYTE   VOICE   38
 BYTE   VOL   31*MegamanXArmoredArmadilloRandomWizard_mvl/mxv
 BYTE   PAN   c_v+0
 BYTE   W36
Label_7_015DA161:
 BYTE   N12  Fn1  v100
 BYTE   W12
 BYTE   N06
 BYTE   W06
 BYTE   N12
 BYTE   W12
 BYTE   N06
 BYTE   W06
 BYTE   N12
 BYTE   W12
 BYTE   N12
 BYTE   W12
// 001   ----------------------------------------
 BYTE   N06
 BYTE   W06
 BYTE   N12
 BYTE   W12
 BYTE   N06
 BYTE   W06
 BYTE   N12  Gn1
 BYTE   W12
 BYTE   PEND 
Label_7_015DA179:
 BYTE   N12  An1  v100
 BYTE   W12
 BYTE   N06
 BYTE   W06
 BYTE   N12
 BYTE   W12
 BYTE   N06
 BYTE   W06
 BYTE   N12
 BYTE   W12
 BYTE   N12
 BYTE   W12
// 002   ----------------------------------------
 BYTE   N06
 BYTE   W06
 BYTE   N12
 BYTE   W12
 BYTE   N06
 BYTE   W06
 BYTE   N12  Gn1
 BYTE   W12
 BYTE   PEND 
 BYTE   PATT
  POIN2 Label_7_015DA161
 BYTE   PATT
  POIN2 Label_7_015DA179
 BYTE   PATT
  POIN2 Label_7_015DA161
 BYTE   PATT
  POIN2 Label_7_015DA179
 BYTE   PATT
  POIN2 Label_7_015DA161
// 003   ----------------------------------------
Label_7_015DA1AA:
 BYTE   N18  An1  v100
 BYTE   W18
 BYTE   An0
 BYTE   W78
 BYTE   PEND 
 BYTE   PATT
  POIN2 Label_7_015DA161
 BYTE   PATT
  POIN2 Label_7_015DA179
 BYTE   PATT
  POIN2 Label_7_015DA161
 BYTE   PATT
  POIN2 Label_7_015DA179
 BYTE   PATT
  POIN2 Label_7_015DA161
 BYTE   PATT
  POIN2 Label_7_015DA179
 BYTE   PATT
  POIN2 Label_7_015DA161
// 004   ----------------------------------------
Label_7_015DA1D4:
 BYTE   N12  An1  v100
 BYTE   W12
 BYTE   N06
 BYTE   W06
 BYTE   N12
 BYTE   W12
 BYTE   N06
 BYTE   W06
 BYTE   N12
 BYTE   W12
 BYTE   N24
 BYTE   W24
 BYTE   Gn1
 BYTE   W24
 BYTE   PEND 
// 005   ----------------------------------------
Label_7_015DA1E5:
 BYTE   N12  Fn1  v100
 BYTE   W12
 BYTE   N06
 BYTE   W06
 BYTE   N12
 BYTE   W12
 BYTE   N06
 BYTE   W06
 BYTE   N12
 BYTE   W12
 BYTE   N12
 BYTE   W12
 BYTE   N06
 BYTE   W06
 BYTE   N12
 BYTE   W12
 BYTE   N06
 BYTE   W06
 BYTE   N12
 BYTE   W12
 BYTE   PEND 
// 006   ----------------------------------------
Label_7_015DA1FC:
 BYTE   N12  Gn1  v100
 BYTE   W12
 BYTE   N06
 BYTE   W06
 BYTE   N12
 BYTE   W12
 BYTE   N06
 BYTE   W06
 BYTE   N12
 BYTE   W12
 BYTE   N12
 BYTE   W12
 BYTE   N06
 BYTE   W06
 BYTE   N12
 BYTE   W12
 BYTE   N06
 BYTE   W06
 BYTE   N12
 BYTE   W12
 BYTE   PEND 
// 007   ----------------------------------------
Label_7_015DA213:
 BYTE   N12  En1  v100
 BYTE   W12
 BYTE   N06
 BYTE   W06
 BYTE   N12
 BYTE   W12
 BYTE   N06
 BYTE   W06
 BYTE   N12
 BYTE   W12
 BYTE   N12
 BYTE   W12
 BYTE   N06
 BYTE   W06
 BYTE   N12
 BYTE   W12
 BYTE   N06
 BYTE   W06
 BYTE   N12
 BYTE   W12
 BYTE   PEND 
 BYTE   PATT
  POIN2 Label_7_015DA179
 BYTE   PATT
  POIN2 Label_7_015DA1E5
 BYTE   PATT
  POIN2 Label_7_015DA1FC
 BYTE   PATT
  POIN2 Label_7_015DA213
// 008   ----------------------------------------
 BYTE   N12  An1  v100
 BYTE   W12
 BYTE   N06
 BYTE   W06
 BYTE   N12
 BYTE   W12
 BYTE   N06
 BYTE   W06
 BYTE   N12
 BYTE   W12
 BYTE   N12
 BYTE   W12
 BYTE   N06
 BYTE   W06
 BYTE   N12
 BYTE   W12
 BYTE   N06
 BYTE   W06
 BYTE   N12  En1
 BYTE   W12
 BYTE   PATT
  POIN2 Label_7_015DA161
 BYTE   PATT
  POIN2 Label_7_015DA179
 BYTE   PATT
  POIN2 Label_7_015DA161
 BYTE   PATT
  POIN2 Label_7_015DA1D4
 BYTE   PATT
  POIN2 Label_7_015DA161
 BYTE   PATT
  POIN2 Label_7_015DA179
 BYTE   PATT
  POIN2 Label_7_015DA161
 BYTE   PATT
  POIN2 Label_7_015DA1AA
// 009   ----------------------------------------
 BYTE   GoTo
  POIN2 Label_7_015DA161
 BYTE   PATT
  POIN2 Label_7_015DA161
 BYTE   FINE

//**************** Track 9 (Midi-Chn.8) ****************//

MegamanXArmoredArmadilloRandomWizard_009:
// 000   ----------------------------------------
 BYTE   KEYSH   MegamanXArmoredArmadilloRandomWizard_key+0
 BYTE   VOICE   2
 BYTE   VOL   31*MegamanXArmoredArmadilloRandomWizard_mvl/mxv
 BYTE   PAN   c_v+32
 BYTE   N12  An2  v100
 BYTE   W12
 BYTE   Cn3
 BYTE   W12
 BYTE   Dn3
 BYTE   W12
Label_8_015DA298:
 BYTE   N18  Ds3  v100
 BYTE   W18
 BYTE   N18
 BYTE   W18
 BYTE   N12
 BYTE   W12
 BYTE   N18
 BYTE   W18
// 001   ----------------------------------------
 BYTE   Dn3
 BYTE   W18
 BYTE   N12  Cn3
 BYTE   W12
 BYTE   PEND 
Label_8_015DA2A8:
 BYTE   N24  An2  v100
 BYTE   W78
// 002   ----------------------------------------
 BYTE   N06
 BYTE   W06
 BYTE   Cn3
 BYTE   W06
 BYTE   Dn3
 BYTE   W06
 BYTE   PEND 
 BYTE   PATT
  POIN2 Label_8_015DA298
// 003   ----------------------------------------
 BYTE   N24  An2  v100
 BYTE   W78
 BYTE   N06
 BYTE   W06
 BYTE   En3
 BYTE   W06
 BYTE   Dn3
 BYTE   W06
// 004   ----------------------------------------
 BYTE   N18  Cn4
 BYTE   W18
 BYTE   N18
 BYTE   W18
 BYTE   N12
 BYTE   W12
 BYTE   N18
 BYTE   W18
 BYTE   N18
 BYTE   W18
 BYTE   N12
 BYTE   W12
 BYTE   PATT
  POIN2 Label_8_015DA2A8
 BYTE   PATT
  POIN2 Label_8_015DA298
// 005   ----------------------------------------
 BYTE   N18  An2  v100
 BYTE   W96
// 006   ----------------------------------------
 BYTE   W96
// 007   ----------------------------------------
 BYTE   W96
// 008   ----------------------------------------
 BYTE   W96
// 009   ----------------------------------------
 BYTE   W96
// 010   ----------------------------------------
 BYTE   W96
// 011   ----------------------------------------
 BYTE   W96
// 012   ----------------------------------------
 BYTE   W96
// 013   ----------------------------------------
 BYTE   W96
// 014   ----------------------------------------
 BYTE   W96
// 015   ----------------------------------------
 BYTE   W96
// 016   ----------------------------------------
 BYTE   W96
// 017   ----------------------------------------
 BYTE   W96
// 018   ----------------------------------------
 BYTE   W96
// 019   ----------------------------------------
 BYTE   W96
// 020   ----------------------------------------
 BYTE   W96
// 021   ----------------------------------------
 BYTE   W96
// 022   ----------------------------------------
 BYTE   W96
// 023   ----------------------------------------
 BYTE   W96
// 024   ----------------------------------------
 BYTE   W96
// 025   ----------------------------------------
 BYTE   W96
// 026   ----------------------------------------
 BYTE   W96
// 027   ----------------------------------------
 BYTE   W96
// 028   ----------------------------------------
 BYTE   W96
// 029   ----------------------------------------
 BYTE   W60
 BYTE   N12
 BYTE   W12
 BYTE   Cn3
 BYTE   W12
 BYTE   Dn3
 BYTE   W12
// 030   ----------------------------------------
 BYTE   GoTo
  POIN2 Label_8_015DA298
 BYTE   PATT
  POIN2 Label_8_015DA298
 BYTE   FINE

//**************** Track 10 (Midi-Chn.9) ****************//

MegamanXArmoredArmadilloRandomWizard_010:
// 000   ----------------------------------------
 BYTE   KEYSH   MegamanXArmoredArmadilloRandomWizard_key+0
 BYTE   VOICE   124
 BYTE   VOL   31*MegamanXArmoredArmadilloRandomWizard_mvl/mxv
 BYTE   PAN   c_v+0
 BYTE   W12
 BYTE   BEND   c_v-63
 BYTE   N03  As1  v100
 BYTE   W03
 BYTE   N03
 BYTE   W03
 BYTE   N03
 BYTE   W03
 BYTE   N03
 BYTE   W03
 BYTE   BEND   c_v+0
 BYTE   N12
 BYTE   W12
Label_9_015DA321:
 BYTE   N12  Cn1  v100
 BYTE   N12  Cs2
 BYTE   N12  An2
 BYTE   W12
 BYTE   Dn1
 BYTE   N06  As1  v088
 BYTE   W06
 BYTE   N12  Cn1  v100
 BYTE   W06
 BYTE   As1  v127
 BYTE   W06
 BYTE   N06  Cn1  v100
 BYTE   W06
 BYTE   N12  Dn1
 BYTE   N06  As1  v088
 BYTE   W12
 BYTE   N12  Cn1  v100
 BYTE   N06  As1  v088
 BYTE   W12
// 001   ----------------------------------------
 BYTE   N12  Dn1  v100
 BYTE   N06  As1  v088
 BYTE   W06
 BYTE   N12  Cn1  v100
 BYTE   W06
 BYTE   As1  v127
 BYTE   W06
 BYTE   N06  Cn1  v100
 BYTE   W06
 BYTE   N12  Dn1
 BYTE   N06  As1  v088
 BYTE   W12
 BYTE   PEND 
Label_9_015DA35F:
 BYTE   N12  Cn1  v100
 BYTE   N06  As1  v088
 BYTE   W12
 BYTE   Dn1  v100
 BYTE   N06  As1  v088
 BYTE   W06
 BYTE   N12  Cn1  v100
 BYTE   W06
 BYTE   As1  v127
 BYTE   W06
 BYTE   N06  Cn1  v100
 BYTE   W06
 BYTE   N12  Dn1
 BYTE   N06  As1  v088
 BYTE   W12
 BYTE   N12  Cn1  v100
 BYTE   N06  As1  v088
 BYTE   W12
// 002   ----------------------------------------
 BYTE   Dn1  v100
 BYTE   N06  As1  v088
 BYTE   W06
 BYTE   N12  Cn1  v100
 BYTE   W06
 BYTE   As1  v127
 BYTE   W06
 BYTE   N06  Cn1  v100
 BYTE   W06
 BYTE   N12  Dn1
 BYTE   N06  As1  v088
 BYTE   W12
 BYTE   PEND 
Label_9_015DA39C:
 BYTE   N12  Cn1  v100
 BYTE   N12  Cs2
 BYTE   N12  An2
 BYTE   W12
 BYTE   N06  Dn1
 BYTE   N06  As1  v088
 BYTE   W06
 BYTE   N12  Cn1  v100
 BYTE   W06
 BYTE   As1  v127
 BYTE   W06
 BYTE   N06  Cn1  v100
 BYTE   W06
 BYTE   N12  Dn1
 BYTE   N06  As1  v088
 BYTE   W12
 BYTE   N12  Cn1  v100
 BYTE   N06  As1  v088
 BYTE   W12
// 003   ----------------------------------------
 BYTE   Dn1  v100
 BYTE   N06  As1  v088
 BYTE   W06
 BYTE   N12  Cn1  v100
 BYTE   W06
 BYTE   As1  v127
 BYTE   W06
 BYTE   N06  Cn1  v100
 BYTE   W06
 BYTE   N12  Dn1
 BYTE   N06  As1  v088
 BYTE   W12
 BYTE   PEND 
Label_9_015DA3DA:
 BYTE   N12  Cn1  v100
 BYTE   N12  Cs2
 BYTE   N12  An2
 BYTE   W12
 BYTE   N06  Dn1
 BYTE   N06  As1  v088
 BYTE   W06
 BYTE   N12  Cn1  v100
 BYTE   N12  Cs2
 BYTE   N12  An2
 BYTE   W06
 BYTE   As1  v127
 BYTE   W06
 BYTE   N06  Cn1  v100
 BYTE   W06
 BYTE   N12  Dn1
 BYTE   N06  As1  v088
 BYTE   W12
 BYTE   N12  Cn1  v100
 BYTE   N06  As1  v088
 BYTE   W12
// 004   ----------------------------------------
 BYTE   Dn1  v100
 BYTE   N06  As1  v088
 BYTE   W06
 BYTE   N12  Cn1  v100
 BYTE   W06
 BYTE   As1  v127
 BYTE   W06
 BYTE   N06  Cn1  v100
 BYTE   W06
 BYTE   N12  Dn1
 BYTE   N06  As1  v088
 BYTE   W12
 BYTE   PEND 
 BYTE   PATT
  POIN2 Label_9_015DA39C
 BYTE   PATT
  POIN2 Label_9_015DA39C
// 005   ----------------------------------------
 BYTE   N12  Cn1  v100
 BYTE   N12  Cs2
 BYTE   N12  An2
 BYTE   W12
 BYTE   N06  Dn1
 BYTE   N06  As1  v088
 BYTE   W06
 BYTE   N12  Cn1  v100
 BYTE   W06
 BYTE   As1  v127
 BYTE   W06
 BYTE   N06  Cn1  v100
 BYTE   W06
 BYTE   N12  Dn1
 BYTE   N06  As1  v088
 BYTE   W06
 BYTE   Cn1  v100
 BYTE   W06
 BYTE   As1  v088
 BYTE   W06
 BYTE   N12  Dn1  v100
 BYTE   W06
 BYTE   Cn1
 BYTE   N06  As1  v088
 BYTE   W12
 BYTE   N12  Dn1  v100
 BYTE   N12  As1  v127
 BYTE   W06
 BYTE   Cn1  v100
 BYTE   W06
 BYTE   N06  As1  v088
 BYTE   W06
 BYTE   N12  Dn1  v100
 BYTE   W06
// 006   ----------------------------------------
 BYTE   Cn1
 BYTE   N12  Cs2
 BYTE   N12  An2
 BYTE   W12
 BYTE   Dn1
 BYTE   N06  As1  v088
 BYTE   W06
 BYTE   N12  Cn1  v100
 BYTE   N12  Cs2
 BYTE   N12  An2
 BYTE   W30
 BYTE   N06  Dn1  v127
 BYTE   W06
 BYTE   N06
 BYTE   W06
 BYTE   N06
 BYTE   W12
 BYTE   N06
 BYTE   W12
 BYTE   N06
 BYTE   W06
 BYTE   N06
 BYTE   W06
 BYTE   PATT
  POIN2 Label_9_015DA321
 BYTE   PATT
  POIN2 Label_9_015DA35F
 BYTE   PATT
  POIN2 Label_9_015DA321
 BYTE   PATT
  POIN2 Label_9_015DA39C
 BYTE   PATT
  POIN2 Label_9_015DA321
 BYTE   PATT
  POIN2 Label_9_015DA35F
 BYTE   PATT
  POIN2 Label_9_015DA321
// 007   ----------------------------------------
 BYTE   N12  Cn1  v100
 BYTE   N12  Cs2
 BYTE   N12  An2
 BYTE   W12
 BYTE   N06  Dn1
 BYTE   N06  As1  v088
 BYTE   W06
 BYTE   N12  Cn1  v100
 BYTE   N12  Cs2
 BYTE   N12  An2
 BYTE   W06
 BYTE   As1  v127
 BYTE   W06
 BYTE   N06  Cn1  v100
 BYTE   W06
 BYTE   N12  Dn1
 BYTE   N06  As1  v088
 BYTE   W12
 BYTE   N12  Cn1  v100
 BYTE   N12  Cs2
 BYTE   N12  An2
 BYTE   W24
 BYTE   Cn1
 BYTE   N12  Cs2
 BYTE   N12  An2
 BYTE   W24
 BYTE   PATT
  POIN2 Label_9_015DA321
// 008   ----------------------------------------
 BYTE   N12  Cn1  v100
 BYTE   N12  Cs2
 BYTE   N12  An2
 BYTE   W12
 BYTE   N06  Dn1
 BYTE   N06  As1  v088
 BYTE   W06
 BYTE   N12  Cn1  v100
 BYTE   W06
 BYTE   As1  v127
 BYTE   W06
 BYTE   N06  Cn1  v100
 BYTE   W06
 BYTE   N12  Dn1
 BYTE   N06  As1  v088
 BYTE   W12
 BYTE   N12  Cn1  v100
 BYTE   N06  As1  v088
 BYTE   W12
 BYTE   Dn1  v100
 BYTE   N06  As1  v088
 BYTE   W06
 BYTE   N12  Cn1  v100
 BYTE   W06
 BYTE   As1  v127
 BYTE   W06
 BYTE   N06  Cn1  v100
 BYTE   W06
 BYTE   N01  Dn1
 BYTE   N06  As1  v088
 BYTE   W02
 BYTE   N03  Dn1  v100
 BYTE   W10
 BYTE   PATT
  POIN2 Label_9_015DA321
 BYTE   PATT
  POIN2 Label_9_015DA3DA
 BYTE   PATT
  POIN2 Label_9_015DA321
 BYTE   PATT
  POIN2 Label_9_015DA39C
 BYTE   PATT
  POIN2 Label_9_015DA321
// 009   ----------------------------------------
 BYTE   N12  Cn1  v100
 BYTE   N12  Cs2
 BYTE   N12  An2
 BYTE   W12
 BYTE   N06  Dn1
 BYTE   N06  As1  v088
 BYTE   W06
 BYTE   N12  Cn1  v100
 BYTE   N12  Cs2
 BYTE   N12  An2
 BYTE   W06
 BYTE   As1  v127
 BYTE   W06
 BYTE   N06  Dn1  v100
 BYTE   W06
 BYTE   N12  Cn1
 BYTE   N06  As1  v088
 BYTE   N12  Cs2  v100
 BYTE   N12  An2
 BYTE   W12
 BYTE   Cn1
 BYTE   W12
 BYTE   N06  Dn1
 BYTE   W06
 BYTE   N12  Cn1
 BYTE   W12
 BYTE   N06
 BYTE   W06
 BYTE   N01  Dn1
 BYTE   W02
 BYTE   N01
 BYTE   W10
 BYTE   PATT
  POIN2 Label_9_015DA321
// 010   ----------------------------------------
 BYTE   N12  Cn1  v100
 BYTE   N06  As1  v088
 BYTE   W12
 BYTE   Dn1  v100
 BYTE   N06  As1  v088
 BYTE   W06
 BYTE   N12  Cn1  v100
 BYTE   W06
 BYTE   As1  v127
 BYTE   W06
 BYTE   N06  Cn1  v100
 BYTE   W06
 BYTE   N12  Dn1
 BYTE   N06  As1  v088
 BYTE   W12
 BYTE   N12  Cn1  v100
 BYTE   N06  As1  v088
 BYTE   W12
 BYTE   Dn1  v100
 BYTE   N06  As1  v088
 BYTE   W06
 BYTE   N12  Cn1  v100
 BYTE   W06
 BYTE   As1  v127
 BYTE   W06
 BYTE   N06  Cn1  v100
 BYTE   W06
 BYTE   N02  Dn1
 BYTE   N06  As1  v088
 BYTE   W02
 BYTE   N01  Dn1  v100
 BYTE   W10
 BYTE   PATT
  POIN2 Label_9_015DA321
// 011   ----------------------------------------
 BYTE   N12  Cn1  v100
 BYTE   N12  Cs2
 BYTE   N12  An2
 BYTE   W12
 BYTE   N06  Dn1
 BYTE   N06  As1  v088
 BYTE   W06
 BYTE   N12  Cn1  v100
 BYTE   N12  Cs2
 BYTE   N12  An2
 BYTE   W06
 BYTE   As1  v127
 BYTE   W06
 BYTE   N06  Cn1  v100
 BYTE   W06
 BYTE   N12  Dn1
 BYTE   N06  As1  v088
 BYTE   W12
 BYTE   N12  Cn1  v100
 BYTE   N12  Cs2
 BYTE   N12  An2
 BYTE   W24
 BYTE   Cn1
 BYTE   N12  Cs2
 BYTE   N12  An2
 BYTE   W12
 BYTE   N02  Dn1
 BYTE   W02
 BYTE   N01
 BYTE   W10
 BYTE   PATT
  POIN2 Label_9_015DA321
// 012   ----------------------------------------
 BYTE   N12  Cn1  v100
 BYTE   N12  Cs2
 BYTE   N12  An2
 BYTE   W12
 BYTE   N06  Dn1
 BYTE   N06  As1  v088
 BYTE   W06
 BYTE   N12  Cn1  v100
 BYTE   W06
 BYTE   As1  v127
 BYTE   W06
 BYTE   N06  Cn1  v100
 BYTE   W06
 BYTE   N12  Dn1
 BYTE   N06  As1  v088
 BYTE   W12
 BYTE   N12  Cn1  v100
 BYTE   N06  As1  v088
 BYTE   W12
 BYTE   Dn1  v100
 BYTE   N06  As1  v088
 BYTE   W06
 BYTE   N12  Cn1  v100
 BYTE   W06
 BYTE   As1  v127
 BYTE   W06
 BYTE   N06  Cn1  v100
 BYTE   W06
 BYTE   N02  Dn1
 BYTE   N06  As1  v088
 BYTE   W02
 BYTE   N01  Dn1  v100
 BYTE   W10
// 013   ----------------------------------------
 BYTE   N12  Cn1
 BYTE   N12  Cs2
 BYTE   N12  An2
 BYTE   W12
 BYTE   Dn1
 BYTE   N06  As1  v088
 BYTE   W06
 BYTE   N12  Cn1  v100
 BYTE   W06
 BYTE   As1  v127
 BYTE   W06
 BYTE   N06  Cn1  v100
 BYTE   W06
 BYTE   N12  Dn1
 BYTE   N06  As1  v088
 BYTE   W12
 BYTE   N12  Cn1  v100
 BYTE   N06  As1  v088
 BYTE   W06
 BYTE   BEND   c_v+63
 BYTE   N12  Dn1  v100
 BYTE   W06
 BYTE   BEND   c_v+0
 BYTE   N12  Cn1
 BYTE   N06  As1  v088
 BYTE   W12
 BYTE   N12  Dn1  v100
 BYTE   N12  As1  v127
 BYTE   W06
 BYTE   N06  Cn1  v100
 BYTE   W06
 BYTE   Dn1
 BYTE   N06  As1  v088
 BYTE   W06
 BYTE   Dn1  v100
 BYTE   W06
// 014   ----------------------------------------
 BYTE   N12  Cn1
 BYTE   N12  Cs2
 BYTE   N12  An2
 BYTE   W12
 BYTE   N06  Dn1
 BYTE   W06
 BYTE   N12  Cn1
 BYTE   N12  Cs2
 BYTE   N12  An2
 BYTE   W54
 BYTE   BEND   c_v-63
 BYTE   N03  As1
 BYTE   W03
 BYTE   N03
 BYTE   W03
 BYTE   N03
 BYTE   W03
 BYTE   N03
 BYTE   W03
 BYTE   BEND   c_v+0
 BYTE   N12
 BYTE   W12
// 015   ----------------------------------------
 BYTE   GoTo
  POIN2 Label_9_015DA321
 BYTE   PATT
  POIN2 Label_9_015DA321
// 016   ----------------------------------------
 BYTE   BEND   c_v+0
 BYTE   FINE

//******************************************************//
	ALIGN 4

MegamanXArmoredArmadilloRandomWizard:
	BYTE	10	// NumTrks
	BYTE	0	// NumBlks
	BYTE	MegamanXArmoredArmadilloRandomWizard_pri	// Priority
	BYTE	MegamanXArmoredArmadilloRandomWizard_rev	// Reverb.
    
	POIN2	MegamanXArmoredArmadilloRandomWizard_grp
    
	POIN2	MegamanXArmoredArmadilloRandomWizard_001
	POIN2	MegamanXArmoredArmadilloRandomWizard_002
	POIN2	MegamanXArmoredArmadilloRandomWizard_003
	POIN2	MegamanXArmoredArmadilloRandomWizard_004
	POIN2	MegamanXArmoredArmadilloRandomWizard_005
	POIN2	MegamanXArmoredArmadilloRandomWizard_006
	POIN2	MegamanXArmoredArmadilloRandomWizard_007
	POIN2	MegamanXArmoredArmadilloRandomWizard_008
	POIN2	MegamanXArmoredArmadilloRandomWizard_009
	POIN2	MegamanXArmoredArmadilloRandomWizard_010

	
