//Event file generated from Sappy .s format.
	#include "MPlayDef.event"

	#define	MegamanZXAdventSoulAblazeTak_grp  voicegroup000
	#define	MegamanZXAdventSoulAblazeTak_pri  0
	#define	MegamanZXAdventSoulAblazeTak_rev  0
	#define	MegamanZXAdventSoulAblazeTak_mvl  127
	#define	MegamanZXAdventSoulAblazeTak_key  0
	#define	MegamanZXAdventSoulAblazeTak_tbs  1
	#define	MegamanZXAdventSoulAblazeTak_exg  0
	#define	MegamanZXAdventSoulAblazeTak_cmp  1

	// .rodata
	//	MegamanZXAdventSoulAblazeTak
	ALIGN 4


//**************** Track 1 (Midi-Chn.0) ****************//

MegamanZXAdventSoulAblazeTak_001:
//  #01 //000   ----------------------------------------
 BYTE   KEYSH   MegamanZXAdventSoulAblazeTak_key+0
 BYTE   TEMPO   192*MegamanZXAdventSoulAblazeTak_tbs/2
 BYTE   VOICE   49
 BYTE   VOL   69*MegamanZXAdventSoulAblazeTak_mvl/mxv
 BYTE   PAN   c_v+12
 BYTE   TIE  Cn3  v059
 BYTE   TIE  Gn3
 BYTE   BENDR  12
 BYTE   W96
//  #01 //001   ----------------------------------------
 BYTE   W48
 BYTE   EOT
 BYTE   Cn3  v067
 BYTE   N24  As2
 BYTE   N24  Fn3
 BYTE   W24
 BYTE   Cn3
 BYTE   N24  Gn3
 BYTE   W24
//  #01 //002   ----------------------------------------
 BYTE   TIE  Gs3
 BYTE   TIE  Cs3
 BYTE   W96
//  #01 //003   ----------------------------------------
 BYTE   W48
 BYTE   EOT
 BYTE   EOT
 BYTE   Gs3
 BYTE   N24  Gn3
 BYTE   N24  Cn3
 BYTE   W24
 BYTE   Fn3
 BYTE   N24  As2
 BYTE   W24
//  #01 //004   ----------------------------------------
 BYTE   TIE  Gn3
 BYTE   TIE  Cn3
 BYTE   W96
//  #01 //005   ----------------------------------------
 BYTE   W48
 BYTE   EOT
 BYTE   Gn3  v060
 BYTE   N24  As2
 BYTE   N24  Fn3
 BYTE   W24
 BYTE   Cn3
 BYTE   N24  Gn3
 BYTE   W24
//  #01 //006   ----------------------------------------
 BYTE   N96  Cs3
 BYTE   N96  Gs3
 BYTE   W96
//  #01 //007   ----------------------------------------
 BYTE   Ds3
 BYTE   N96  As3
 BYTE   W96
//  #01 //008   ----------------------------------------
Label_01003070:
 BYTE   W96
//  #01 //009   ----------------------------------------
 BYTE   W96
//  #01 //010   ----------------------------------------
 BYTE   W96
//  #01 //011   ----------------------------------------
 BYTE   W96
//  #01 //012   ----------------------------------------
 BYTE   W96
//  #01 //013   ----------------------------------------
 BYTE   W96
//  #01 //014   ----------------------------------------
 BYTE   W96
//  #01 //015   ----------------------------------------
 BYTE   W96
//  #01 //016   ----------------------------------------
 BYTE   W96
//  #01 //017   ----------------------------------------
 BYTE   W96
//  #01 //018   ----------------------------------------
 BYTE   W96
//  #01 //019   ----------------------------------------
 BYTE   W96
//  #01 //020   ----------------------------------------
 BYTE   W96
//  #01 //021   ----------------------------------------
 BYTE   W96
//  #01 //022   ----------------------------------------
 BYTE   W96
//  #01 //023   ----------------------------------------
 BYTE   W96
//  #01 //024   ----------------------------------------
 BYTE   W96
//  #01 //025   ----------------------------------------
 BYTE   W96
//  #01 //026   ----------------------------------------
 BYTE   W96
//  #01 //027   ----------------------------------------
 BYTE   W96
//  #01 //028   ----------------------------------------
 BYTE   W96
//  #01 //029   ----------------------------------------
 BYTE   W96
//  #01 //030   ----------------------------------------
 BYTE   W96
//  #01 //031   ----------------------------------------
 BYTE   W96
//  #01 //032   ----------------------------------------
 BYTE   W96
//  #01 //033   ----------------------------------------
 BYTE   W96
//  #01 //034   ----------------------------------------
 BYTE   W96
//  #01 //035   ----------------------------------------
 BYTE   W96
//  #01 //036   ----------------------------------------
 BYTE   W96
//  #01 //037   ----------------------------------------
 BYTE   W96
//  #01 //038   ----------------------------------------
 BYTE   W96
//  #01 //039   ----------------------------------------
 BYTE   W96
//  #01 //040   ----------------------------------------
Label_01003090:
 BYTE   TIE  Fs4  v059
 BYTE   TIE  As3
 BYTE   W96
 BYTE   PEND 
//  #01 //041   ----------------------------------------
 BYTE   W96
//  #01 //042   ----------------------------------------
Label_01003098:
 BYTE   EOT
 BYTE   As3  v078
 BYTE   TIE  Fn4  v059
 BYTE   TIE  Gs3
 BYTE   W96
 BYTE   PEND 
//  #01 //043   ----------------------------------------
 BYTE   W96
//  #01 //044   ----------------------------------------
Label_010030A3:
 BYTE   EOT
 BYTE   Gs3  v077
 BYTE   TIE  Ds4  v059
 BYTE   TIE  Fs3
 BYTE   W96
 BYTE   PEND 
//  #01 //045   ----------------------------------------
 BYTE   W96
//  #01 //046   ----------------------------------------
 BYTE   EOT
 BYTE   EOT
 BYTE   Ds4
 BYTE   N96  Bn3
 BYTE   N96  Ds3
 BYTE   W96
//  #01 //047   ----------------------------------------
Label_010030B6:
 BYTE   N96  Cs4  v059
 BYTE   N96  Fn3
 BYTE   W96
 BYTE   PEND 
//  #01 //048   ----------------------------------------
 BYTE   PATT
  POIN2 Label_01003090
//  #01 //049   ----------------------------------------
 BYTE   W96
//  #01 //050   ----------------------------------------
 BYTE   PATT
  POIN2 Label_01003098
//  #01 //051   ----------------------------------------
 BYTE   W96
//  #01 //052   ----------------------------------------
Label_010030C9:
 BYTE   EOT
 BYTE   Gs3  v077
 BYTE   TIE  Fs3  v059
 BYTE   TIE  Ds4
 BYTE   W96
 BYTE   PEND 
//  #01 //053   ----------------------------------------
 BYTE   W96
//  #01 //054   ----------------------------------------
Label_010030D4:
 BYTE   EOT
 BYTE   Ds4  v066
 BYTE   N96  Bn3  v059
 BYTE   N96  Ds3
 BYTE   W96
 BYTE   PEND 
//  #01 //055   ----------------------------------------
 BYTE   PATT
  POIN2 Label_010030B6
//  #01 //056   ----------------------------------------
Label_010030E3:
 BYTE   TIE  As3  v059
 BYTE   TIE  Fs4
 BYTE   W96
 BYTE   PEND 
//  #01 //057   ----------------------------------------
 BYTE   W96
//  #01 //058   ----------------------------------------
 BYTE   EOT
 BYTE   EOT
 BYTE   As3
 BYTE   TIE  Fn4
 BYTE   TIE  Gs3
 BYTE   W96
//  #01 //059   ----------------------------------------
 BYTE   W96
//  #01 //060   ----------------------------------------
 BYTE   PATT
  POIN2 Label_010030C9
//  #01 //061   ----------------------------------------
 BYTE   W96
//  #01 //062   ----------------------------------------
 BYTE   PATT
  POIN2 Label_010030D4
//  #01 //063   ----------------------------------------
 BYTE   PATT
  POIN2 Label_010030B6
//  #01 //064   ----------------------------------------
 BYTE   PATT
  POIN2 Label_01003090
//  #01 //065   ----------------------------------------
 BYTE   W96
//  #01 //066   ----------------------------------------
 BYTE   EOT
 BYTE   Fs4  v070
 BYTE   TIE  Gs3  v059
 BYTE   TIE  Fn4
 BYTE   W96
//  #01 //067   ----------------------------------------
 BYTE   W96
//  #01 //068   ----------------------------------------
 BYTE   PATT
  POIN2 Label_010030A3
//  #01 //069   ----------------------------------------
 BYTE   W96
//  #01 //070   ----------------------------------------
 BYTE   PATT
  POIN2 Label_010030D4
//  #01 //071   ----------------------------------------
 BYTE   N96  Fn3  v059
 BYTE   N96  Cs4
 BYTE   W96
//  #01 //072   ----------------------------------------
 BYTE   Fs3
 BYTE   N96  Ds4
 BYTE   W96
//  #01 //073   ----------------------------------------
 BYTE   Gs3
 BYTE   N96  Fn4
 BYTE   W96
//  #01 //074   ----------------------------------------
 BYTE   PATT
  POIN2 Label_010030E3
//  #01 //075   ----------------------------------------
 BYTE   W96
//  #01 //076   ----------------------------------------
 BYTE   W96
//  #01 //077   ----------------------------------------
 BYTE   W96
//  #01 //078   ----------------------------------------
 BYTE   W96
//  #01 //079   ----------------------------------------
 BYTE   W96
//  #01 //080   ----------------------------------------
 BYTE   W96
//  #01 //081   ----------------------------------------
 BYTE   W78
 BYTE   EOT
 BYTE   Fs4  v070
 BYTE   W18
//  #01 //082   ----------------------------------------
 BYTE   GoTo
  POIN2 Label_01003070
 BYTE   FINE

//**************** Track 2 (Midi-Chn.1) ****************//

MegamanZXAdventSoulAblazeTak_002:
//  #02 //000   ----------------------------------------
 BYTE   KEYSH   MegamanZXAdventSoulAblazeTak_key+0
 BYTE   VOICE   34
 BYTE   VOL   81*MegamanZXAdventSoulAblazeTak_mvl/mxv
 BYTE   N12  Cn0  v085
 BYTE   BENDR  12
 BYTE   W12
 BYTE   N12
 BYTE   W12
 BYTE   As0
 BYTE   W12
 BYTE   Cn1
 BYTE   W12
 BYTE   Cn0
 BYTE   W12
 BYTE   As0
 BYTE   W12
 BYTE   Cn1
 BYTE   W12
 BYTE   Cn0
 BYTE   W12
//  #02 //001   ----------------------------------------
Label_01003D6A:
 BYTE   N12  As0  v085
 BYTE   W12
 BYTE   Cn1
 BYTE   W12
 BYTE   Cn0
 BYTE   W12
 BYTE   As0
 BYTE   W12
 BYTE   Cn1
 BYTE   W12
 BYTE   Cn0
 BYTE   W12
 BYTE   As0
 BYTE   W12
 BYTE   Cn1
 BYTE   W12
 BYTE   PEND 
//  #02 //002   ----------------------------------------
Label_01003D7D:
 BYTE   N12  Cs0  v085
 BYTE   W12
 BYTE   Cs0
 BYTE   W12
 BYTE   Cn1
 BYTE   W12
 BYTE   Cs1
 BYTE   W12
 BYTE   Cs0
 BYTE   W12
 BYTE   Cn1
 BYTE   W12
 BYTE   Cs1
 BYTE   W12
 BYTE   Cs0
 BYTE   W12
 BYTE   PEND 
//  #02 //003   ----------------------------------------
 BYTE   Cn1
 BYTE   W12
 BYTE   Cs1
 BYTE   W12
 BYTE   Cs0
 BYTE   W12
 BYTE   Cn1
 BYTE   W12
 BYTE   Cs1
 BYTE   W12
 BYTE   Cs0
 BYTE   W12
 BYTE   Cn1
 BYTE   W12
 BYTE   Cs1
 BYTE   W12
//  #02 //004   ----------------------------------------
 BYTE   Cn0
 BYTE   W12
 BYTE   Cn0
 BYTE   W12
 BYTE   As0
 BYTE   W12
 BYTE   Cn1
 BYTE   W12
 BYTE   Cn0
 BYTE   W12
 BYTE   As0
 BYTE   W12
 BYTE   Cn1
 BYTE   W12
 BYTE   Cn0
 BYTE   W12
//  #02 //005   ----------------------------------------
 BYTE   PATT
  POIN2 Label_01003D6A
//  #02 //006   ----------------------------------------
 BYTE   PATT
  POIN2 Label_01003D7D
//  #02 //007   ----------------------------------------
Label_01003DBA:
 BYTE   N12  Cs1  v085
 BYTE   W12
 BYTE   Ds1
 BYTE   W12
 BYTE   Ds0
 BYTE   W12
 BYTE   Cs1
 BYTE   W12
 BYTE   Ds1
 BYTE   W12
 BYTE   Ds0
 BYTE   W12
 BYTE   Cs1
 BYTE   W12
 BYTE   Ds1
 BYTE   W12
 BYTE   PEND 
//  #02 //008   ----------------------------------------
Label_01003DCD:
 BYTE   N12  Fn0  v085
 BYTE   W12
 BYTE   Fn0
 BYTE   W12
 BYTE   Ds1
 BYTE   W12
 BYTE   Fn1
 BYTE   W12
 BYTE   Fn0
 BYTE   W12
 BYTE   Ds1
 BYTE   W12
 BYTE   Fn1
 BYTE   W12
 BYTE   Fn0
 BYTE   W12
//  #02 //009   ----------------------------------------
Label_01003DDF:
 BYTE   N12  Ds1  v085
 BYTE   W12
 BYTE   Fn1
 BYTE   W12
 BYTE   Fn0
 BYTE   W12
 BYTE   Ds1
 BYTE   W12
 BYTE   Fn1
 BYTE   W12
 BYTE   Fn0
 BYTE   W12
 BYTE   Ds1
 BYTE   W12
 BYTE   Fn1
 BYTE   W12
 BYTE   PEND 
//  #02 //010   ----------------------------------------
Label_01003DF2:
 BYTE   N12  Fs0  v085
 BYTE   W12
 BYTE   Fs0
 BYTE   W12
 BYTE   Fn1
 BYTE   W12
 BYTE   Fs1
 BYTE   W12
 BYTE   Fs0
 BYTE   W12
 BYTE   Fn1
 BYTE   W12
 BYTE   Fs1
 BYTE   W12
 BYTE   Fs0
 BYTE   W12
 BYTE   PEND 
//  #02 //011   ----------------------------------------
Label_01003E05:
 BYTE   N12  Fn1  v085
 BYTE   W12
 BYTE   Fs1
 BYTE   W12
 BYTE   Fs0
 BYTE   W12
 BYTE   Fn1
 BYTE   W12
 BYTE   Fs1
 BYTE   W12
 BYTE   Fs0
 BYTE   W12
 BYTE   Fn1
 BYTE   W12
 BYTE   Fs1
 BYTE   W12
 BYTE   PEND 
//  #02 //012   ----------------------------------------
Label_01003E18:
 BYTE   N12  Fn0  v085
 BYTE   W12
 BYTE   Fn0
 BYTE   W12
 BYTE   Ds1
 BYTE   W12
 BYTE   Fn1
 BYTE   W12
 BYTE   Fn0
 BYTE   W12
 BYTE   Ds1
 BYTE   W12
 BYTE   Fn1
 BYTE   W12
 BYTE   Fn0
 BYTE   W12
 BYTE   PEND 
//  #02 //013   ----------------------------------------
 BYTE   PATT
  POIN2 Label_01003DDF
//  #02 //014   ----------------------------------------
 BYTE   PATT
  POIN2 Label_01003DF2
//  #02 //015   ----------------------------------------
 BYTE   PATT
  POIN2 Label_01003E05
//  #02 //016   ----------------------------------------
 BYTE   PATT
  POIN2 Label_01003E18
//  #02 //017   ----------------------------------------
 BYTE   PATT
  POIN2 Label_01003DDF
//  #02 //018   ----------------------------------------
 BYTE   PATT
  POIN2 Label_01003DF2
//  #02 //019   ----------------------------------------
 BYTE   PATT
  POIN2 Label_01003E05
//  #02 //020   ----------------------------------------
 BYTE   PATT
  POIN2 Label_01003E18
//  #02 //021   ----------------------------------------
 BYTE   PATT
  POIN2 Label_01003DDF
//  #02 //022   ----------------------------------------
 BYTE   PATT
  POIN2 Label_01003DF2
//  #02 //023   ----------------------------------------
 BYTE   PATT
  POIN2 Label_01003E05
//  #02 //024   ----------------------------------------
Label_01003E62:
 BYTE   N12  As0  v085
 BYTE   W12
 BYTE   As0
 BYTE   W12
 BYTE   Gs1
 BYTE   W12
 BYTE   As1
 BYTE   W12
 BYTE   As0
 BYTE   W12
 BYTE   Gs1
 BYTE   W12
 BYTE   As1
 BYTE   W12
 BYTE   As0
 BYTE   W12
 BYTE   PEND 
//  #02 //025   ----------------------------------------
Label_01003E75:
 BYTE   N12  Gs1  v085
 BYTE   W12
 BYTE   As1
 BYTE   W12
 BYTE   As0
 BYTE   W12
 BYTE   Gs1
 BYTE   W12
 BYTE   As1
 BYTE   W12
 BYTE   As0
 BYTE   W12
 BYTE   Gs1
 BYTE   W12
 BYTE   As1
 BYTE   W12
 BYTE   PEND 
//  #02 //026   ----------------------------------------
 BYTE   PATT
  POIN2 Label_01003E62
//  #02 //027   ----------------------------------------
 BYTE   PATT
  POIN2 Label_01003E75
//  #02 //028   ----------------------------------------
 BYTE   PATT
  POIN2 Label_01003E62
//  #02 //029   ----------------------------------------
 BYTE   PATT
  POIN2 Label_01003E75
//  #02 //030   ----------------------------------------
 BYTE   PATT
  POIN2 Label_01003E62
//  #02 //031   ----------------------------------------
 BYTE   PATT
  POIN2 Label_01003E75
//  #02 //032   ----------------------------------------
 BYTE   PATT
  POIN2 Label_01003E62
//  #02 //033   ----------------------------------------
 BYTE   PATT
  POIN2 Label_01003E75
//  #02 //034   ----------------------------------------
 BYTE   PATT
  POIN2 Label_01003E62
//  #02 //035   ----------------------------------------
 BYTE   PATT
  POIN2 Label_01003E75
//  #02 //036   ----------------------------------------
 BYTE   PATT
  POIN2 Label_01003E62
//  #02 //037   ----------------------------------------
 BYTE   PATT
  POIN2 Label_01003E75
//  #02 //038   ----------------------------------------
 BYTE   PATT
  POIN2 Label_01003E62
//  #02 //039   ----------------------------------------
 BYTE   PATT
  POIN2 Label_01003E75
//  #02 //040   ----------------------------------------
Label_01003ECE:
 BYTE   N12  Ds0  v085
 BYTE   W12
 BYTE   Ds0
 BYTE   W12
 BYTE   As0
 BYTE   W12
 BYTE   Ds1
 BYTE   W12
 BYTE   Ds0
 BYTE   W12
 BYTE   As0
 BYTE   W12
 BYTE   Ds1
 BYTE   W12
 BYTE   Ds0
 BYTE   W12
 BYTE   PEND 
//  #02 //041   ----------------------------------------
Label_01003EE1:
 BYTE   N12  As0  v085
 BYTE   W12
 BYTE   Ds1
 BYTE   W12
 BYTE   Ds0
 BYTE   W12
 BYTE   As0
 BYTE   W12
 BYTE   Ds1
 BYTE   W12
 BYTE   Ds0
 BYTE   W12
 BYTE   As0
 BYTE   W12
 BYTE   Ds1
 BYTE   W12
 BYTE   PEND 
//  #02 //042   ----------------------------------------
Label_01003EF4:
 BYTE   N12  Cs0  v085
 BYTE   W12
 BYTE   Cs0
 BYTE   W12
 BYTE   Gs0
 BYTE   W12
 BYTE   Cs1
 BYTE   W12
 BYTE   Cs0
 BYTE   W12
 BYTE   Gs0
 BYTE   W12
 BYTE   Cs1
 BYTE   W12
 BYTE   Cs0
 BYTE   W12
 BYTE   PEND 
//  #02 //043   ----------------------------------------
Label_01003F07:
 BYTE   N12  Gs0  v085
 BYTE   W12
 BYTE   Cs1
 BYTE   W12
 BYTE   Cs0
 BYTE   W12
 BYTE   Gs0
 BYTE   W12
 BYTE   Cs1
 BYTE   W12
 BYTE   Cs0
 BYTE   W12
 BYTE   Gs0
 BYTE   W12
 BYTE   Cs1
 BYTE   W12
 BYTE   PEND 
//  #02 //044   ----------------------------------------
Label_01003F1A:
 BYTE   N12  Cn0  v085
 BYTE   W12
 BYTE   Cn0
 BYTE   W12
 BYTE   Gs0
 BYTE   W12
 BYTE   Cn1
 BYTE   W12
 BYTE   Cn0
 BYTE   W12
 BYTE   Gs0
 BYTE   W12
 BYTE   Cn1
 BYTE   W12
 BYTE   Cn0
 BYTE   W12
 BYTE   PEND 
//  #02 //045   ----------------------------------------
Label_01003F2D:
 BYTE   N12  Gs0  v085
 BYTE   W12
 BYTE   Cn1
 BYTE   W12
 BYTE   Cn0
 BYTE   W12
 BYTE   Gs0
 BYTE   W12
 BYTE   Cn1
 BYTE   W12
 BYTE   Cn0
 BYTE   W12
 BYTE   Gs0
 BYTE   W12
 BYTE   Cn1
 BYTE   W12
 BYTE   PEND 
//  #02 //046   ----------------------------------------
Label_01003F40:
 BYTE   N12  BnM1  v085
 BYTE   W12
 BYTE   BnM1
 BYTE   W12
 BYTE   Fs0
 BYTE   W12
 BYTE   Bn0
 BYTE   W12
 BYTE   BnM1
 BYTE   W12
 BYTE   Fs0
 BYTE   W12
 BYTE   Bn0
 BYTE   W12
 BYTE   BnM1
 BYTE   W12
 BYTE   PEND 
//  #02 //047   ----------------------------------------
 BYTE   PATT
  POIN2 Label_01003F07
//  #02 //048   ----------------------------------------
 BYTE   PATT
  POIN2 Label_01003ECE
//  #02 //049   ----------------------------------------
 BYTE   PATT
  POIN2 Label_01003EE1
//  #02 //050   ----------------------------------------
 BYTE   PATT
  POIN2 Label_01003EF4
//  #02 //051   ----------------------------------------
 BYTE   PATT
  POIN2 Label_01003F07
//  #02 //052   ----------------------------------------
 BYTE   PATT
  POIN2 Label_01003F1A
//  #02 //053   ----------------------------------------
 BYTE   PATT
  POIN2 Label_01003F2D
//  #02 //054   ----------------------------------------
 BYTE   PATT
  POIN2 Label_01003F40
//  #02 //055   ----------------------------------------
 BYTE   PATT
  POIN2 Label_01003F07
//  #02 //056   ----------------------------------------
 BYTE   PATT
  POIN2 Label_01003ECE
//  #02 //057   ----------------------------------------
 BYTE   PATT
  POIN2 Label_01003EE1
//  #02 //058   ----------------------------------------
 BYTE   PATT
  POIN2 Label_01003EF4
//  #02 //059   ----------------------------------------
 BYTE   PATT
  POIN2 Label_01003F07
//  #02 //060   ----------------------------------------
 BYTE   PATT
  POIN2 Label_01003F1A
//  #02 //061   ----------------------------------------
 BYTE   PATT
  POIN2 Label_01003F2D
//  #02 //062   ----------------------------------------
 BYTE   PATT
  POIN2 Label_01003F40
//  #02 //063   ----------------------------------------
 BYTE   PATT
  POIN2 Label_01003F07
//  #02 //064   ----------------------------------------
 BYTE   PATT
  POIN2 Label_01003ECE
//  #02 //065   ----------------------------------------
 BYTE   PATT
  POIN2 Label_01003EE1
//  #02 //066   ----------------------------------------
 BYTE   PATT
  POIN2 Label_01003EF4
//  #02 //067   ----------------------------------------
 BYTE   PATT
  POIN2 Label_01003F07
//  #02 //068   ----------------------------------------
 BYTE   PATT
  POIN2 Label_01003F1A
//  #02 //069   ----------------------------------------
 BYTE   PATT
  POIN2 Label_01003F2D
//  #02 //070   ----------------------------------------
 BYTE   PATT
  POIN2 Label_01003F40
//  #02 //071   ----------------------------------------
 BYTE   PATT
  POIN2 Label_01003F07
//  #02 //072   ----------------------------------------
 BYTE   PATT
  POIN2 Label_01003F40
//  #02 //073   ----------------------------------------
 BYTE   PATT
  POIN2 Label_01003F07
//  #02 //074   ----------------------------------------
Label_01003FDA:
 BYTE   N12  Ds0  v085
 BYTE   W12
 BYTE   Ds0
 BYTE   W12
 BYTE   Cs1
 BYTE   W12
 BYTE   Ds1
 BYTE   W12
 BYTE   Ds0
 BYTE   W12
 BYTE   Cs1
 BYTE   W12
 BYTE   Ds1
 BYTE   W12
 BYTE   Ds0
 BYTE   W12
 BYTE   PEND 
//  #02 //075   ----------------------------------------
 BYTE   PATT
  POIN2 Label_01003DBA
//  #02 //076   ----------------------------------------
Label_01003FF2:
 BYTE   N12  En0  v085
 BYTE   W12
 BYTE   En0
 BYTE   W12
 BYTE   Ds1
 BYTE   W12
 BYTE   En1
 BYTE   W12
 BYTE   En0
 BYTE   W12
 BYTE   Ds1
 BYTE   W12
 BYTE   En1
 BYTE   W12
 BYTE   En0
 BYTE   W12
 BYTE   PEND 
//  #02 //077   ----------------------------------------
 BYTE   Ds1
 BYTE   W12
 BYTE   En1
 BYTE   W12
 BYTE   En0
 BYTE   W12
 BYTE   Ds1
 BYTE   W12
 BYTE   En1
 BYTE   W12
 BYTE   En0
 BYTE   W12
 BYTE   Ds1
 BYTE   W12
 BYTE   En1
 BYTE   W12
//  #02 //078   ----------------------------------------
 BYTE   PATT
  POIN2 Label_01003FDA
//  #02 //079   ----------------------------------------
 BYTE   PATT
  POIN2 Label_01003DBA
//  #02 //080   ----------------------------------------
 BYTE   PATT
  POIN2 Label_01003FF2
//  #02 //081   ----------------------------------------
 BYTE   N12  En1  v085
 BYTE   W12
 BYTE   Fs1
 BYTE   W12
 BYTE   Fs0
 BYTE   W12
 BYTE   En1
 BYTE   W12
 BYTE   Fs1
 BYTE   W12
 BYTE   Fs0
 BYTE   W12
 BYTE   En1
 BYTE   W12
 BYTE   Fs1
 BYTE   W12
//  #02 //082   ----------------------------------------
 BYTE   GoTo
  POIN2 Label_01003DCD
 BYTE   FINE

//**************** Track 3 (Midi-Chn.2) ****************//

MegamanZXAdventSoulAblazeTak_003:
//  #03 //000   ----------------------------------------
 BYTE   KEYSH   MegamanZXAdventSoulAblazeTak_key+0
 BYTE   VOICE   30
 BYTE   VOL   69*MegamanZXAdventSoulAblazeTak_mvl/mxv
 BYTE   N12  Cn1  v085
 BYTE   BENDR  12
 BYTE   PAN   c_v-32
 BYTE   W12
 BYTE   N12
 BYTE   W12
 BYTE   As1
 BYTE   W12
 BYTE   Cn2
 BYTE   W12
 BYTE   Cn1
 BYTE   W12
 BYTE   As1
 BYTE   W12
 BYTE   Cn2
 BYTE   W12
 BYTE   Cn1
 BYTE   W12
//  #03 //001   ----------------------------------------
Label_01025BAC:
 BYTE   N12  As1  v085
 BYTE   W12
 BYTE   Cn2
 BYTE   W12
 BYTE   Cn1
 BYTE   W12
 BYTE   As1
 BYTE   W12
 BYTE   Cn2
 BYTE   W12
 BYTE   Cn1
 BYTE   W12
 BYTE   As1
 BYTE   W12
 BYTE   Cn2
 BYTE   W12
 BYTE   PEND 
//  #03 //002   ----------------------------------------
Label_01025BBF:
 BYTE   N12  Cs1  v085
 BYTE   W12
 BYTE   Cs1
 BYTE   W12
 BYTE   Cn2
 BYTE   W12
 BYTE   Cs2
 BYTE   W12
 BYTE   Cs1
 BYTE   W12
 BYTE   Cn2
 BYTE   W12
 BYTE   Cs2
 BYTE   W12
 BYTE   Cs1
 BYTE   W12
 BYTE   PEND 
//  #03 //003   ----------------------------------------
 BYTE   Cn2
 BYTE   W12
 BYTE   Cs2
 BYTE   W12
 BYTE   Cs1
 BYTE   W12
 BYTE   Cn2
 BYTE   W12
 BYTE   Cs2
 BYTE   W12
 BYTE   Cs1
 BYTE   W12
 BYTE   Cn2
 BYTE   W12
 BYTE   Cs2
 BYTE   W12
//  #03 //004   ----------------------------------------
 BYTE   Cn1
 BYTE   W12
 BYTE   Cn1
 BYTE   W12
 BYTE   As1
 BYTE   W12
 BYTE   Cn2
 BYTE   W12
 BYTE   Cn1
 BYTE   W12
 BYTE   As1
 BYTE   W12
 BYTE   Cn2
 BYTE   W12
 BYTE   Cn1
 BYTE   W12
//  #03 //005   ----------------------------------------
 BYTE   PATT
  POIN2 Label_01025BAC
//  #03 //006   ----------------------------------------
 BYTE   PATT
  POIN2 Label_01025BBF
//  #03 //007   ----------------------------------------
 BYTE   N12  Cs2  v085
 BYTE   W12
 BYTE   Ds2
 BYTE   W12
 BYTE   Ds1
 BYTE   W12
 BYTE   Cs2
 BYTE   W12
 BYTE   Ds2
 BYTE   W12
 BYTE   Ds1
 BYTE   W12
 BYTE   Cs2
 BYTE   W12
 BYTE   Ds2
 BYTE   W12
//  #03 //008   ----------------------------------------
Label_01025C0E:
 BYTE   N12  Fn1  v085
 BYTE   W12
 BYTE   Fn1
 BYTE   W12
 BYTE   As1
 BYTE   N12  Ds2
 BYTE   W12
 BYTE   Cn2
 BYTE   N12  Fn2
 BYTE   W12
 BYTE   Fn1
 BYTE   W12
 BYTE   As1
 BYTE   N12  Ds2
 BYTE   W12
 BYTE   Cn2
 BYTE   N12  Fn2
 BYTE   W12
 BYTE   Fn1
 BYTE   W12
//  #03 //009   ----------------------------------------
 BYTE   As1
 BYTE   N12  Ds2
 BYTE   W12
 BYTE   Fn2
 BYTE   N12  Cn2
 BYTE   W12
 BYTE   Fn1
 BYTE   W12
 BYTE   Ds2
 BYTE   N12  As1
 BYTE   W12
 BYTE   Fn2
 BYTE   N12  Cn2
 BYTE   W12
 BYTE   Fn1
 BYTE   W12
 BYTE   Ds2
 BYTE   N12  As1
 BYTE   W12
 BYTE   Fn2
 BYTE   N12  Cn2
 BYTE   W12
//  #03 //010   ----------------------------------------
Label_01025C44:
 BYTE   N12  Fs1  v085
 BYTE   W12
 BYTE   Fs1
 BYTE   W12
 BYTE   Fn2
 BYTE   N12  Cn2
 BYTE   W12
 BYTE   Fs2
 BYTE   N12  Cs2
 BYTE   W12
 BYTE   Fs1
 BYTE   W12
 BYTE   Fn2
 BYTE   N12  Cn2
 BYTE   W12
 BYTE   Fs2
 BYTE   N12  Cs2
 BYTE   W12
 BYTE   Fs1
 BYTE   W12
 BYTE   PEND 
//  #03 //011   ----------------------------------------
Label_01025C5F:
 BYTE   N12  Fn2  v085
 BYTE   N12  Cn2
 BYTE   W12
 BYTE   Fs2
 BYTE   N12  Cs2
 BYTE   W12
 BYTE   Fs1
 BYTE   W12
 BYTE   Fn2
 BYTE   N12  Cn2
 BYTE   W12
 BYTE   Fs2
 BYTE   N12  Cs2
 BYTE   W12
 BYTE   Fs1
 BYTE   W12
 BYTE   Fn2
 BYTE   N12  Cn2
 BYTE   W12
 BYTE   Fs2
 BYTE   N12  Cs2
 BYTE   W12
 BYTE   PEND 
//  #03 //012   ----------------------------------------
 BYTE   Fn1
 BYTE   W12
 BYTE   Fn1
 BYTE   W12
 BYTE   Ds2
 BYTE   N12  As1
 BYTE   W12
 BYTE   Fn2
 BYTE   N12  Cn2
 BYTE   W12
 BYTE   Fn1
 BYTE   W12
 BYTE   Ds2
 BYTE   N12  As1
 BYTE   W12
 BYTE   Fn2
 BYTE   N12  Cn2
 BYTE   W12
 BYTE   Fn1
 BYTE   W12
//  #03 //013   ----------------------------------------
 BYTE   Ds2
 BYTE   N12  As1
 BYTE   W12
 BYTE   Fn2
 BYTE   N12  Cn2
 BYTE   W12
 BYTE   Fn1
 BYTE   W12
 BYTE   Ds2
 BYTE   N12  As1
 BYTE   W12
 BYTE   Fn2
 BYTE   N12  Cn2
 BYTE   W12
 BYTE   Fn1
 BYTE   W12
 BYTE   Ds2
 BYTE   N12  As1
 BYTE   W12
 BYTE   Fn2
 BYTE   N12  Cn2
 BYTE   W12
//  #03 //014   ----------------------------------------
 BYTE   PATT
  POIN2 Label_01025C44
//  #03 //015   ----------------------------------------
 BYTE   PATT
  POIN2 Label_01025C5F
//  #03 //016   ----------------------------------------
 BYTE   N12  Fn1  v085
 BYTE   W12
 BYTE   Fn1
 BYTE   W12
 BYTE   Ds2
 BYTE   N12  As1
 BYTE   W12
 BYTE   Fn2
 BYTE   N12  Cn2
 BYTE   W12
 BYTE   Fn1
 BYTE   W12
 BYTE   Ds2
 BYTE   N12  As1
 BYTE   W12
 BYTE   Cn2
 BYTE   N12  Fn2
 BYTE   W12
 BYTE   Fn1
 BYTE   W12
//  #03 //017   ----------------------------------------
Label_01025CD6:
 BYTE   N12  As1  v085
 BYTE   N12  Ds2
 BYTE   W12
 BYTE   Cn2
 BYTE   N12  Fn2
 BYTE   W12
 BYTE   Fn1
 BYTE   W12
 BYTE   As1
 BYTE   N12  Ds2
 BYTE   W12
 BYTE   Cn2
 BYTE   N12  Fn2
 BYTE   W12
 BYTE   Fn1
 BYTE   W12
 BYTE   As1
 BYTE   N12  Ds2
 BYTE   W12
 BYTE   Cn2
 BYTE   N12  Fn2
 BYTE   W12
 BYTE   PEND 
//  #03 //018   ----------------------------------------
 BYTE   Fs1
 BYTE   W12
 BYTE   Fs1
 BYTE   W12
 BYTE   Cn2
 BYTE   N12  Fn2
 BYTE   W12
 BYTE   Cs2
 BYTE   N12  Fs2
 BYTE   W12
 BYTE   Fs1
 BYTE   W12
 BYTE   Cn2
 BYTE   N12  Fn2
 BYTE   W12
 BYTE   Fs2
 BYTE   N12  Cs2
 BYTE   W12
 BYTE   Fs1
 BYTE   W12
//  #03 //019   ----------------------------------------
 BYTE   Fn2
 BYTE   N12  Cn2
 BYTE   W12
 BYTE   Fs2
 BYTE   N12  Cs2
 BYTE   W12
 BYTE   Fs1
 BYTE   W12
 BYTE   Fn2
 BYTE   N12  Cn2
 BYTE   W12
 BYTE   Fs2
 BYTE   N12  Cs2
 BYTE   W12
 BYTE   Fs1
 BYTE   W12
 BYTE   Cn2
 BYTE   N12  Fn2
 BYTE   W12
 BYTE   Cs2
 BYTE   N12  Fs2
 BYTE   W12
//  #03 //020   ----------------------------------------
 BYTE   Fn1
 BYTE   W12
 BYTE   Fn1
 BYTE   W12
 BYTE   As1
 BYTE   N12  Ds2
 BYTE   W12
 BYTE   Cn2
 BYTE   N12  Fn2
 BYTE   W12
 BYTE   Fn1
 BYTE   W12
 BYTE   As1
 BYTE   N12  Ds2
 BYTE   W12
 BYTE   Cn2
 BYTE   N12  Fn2
 BYTE   W12
 BYTE   Fn1
 BYTE   W12
//  #03 //021   ----------------------------------------
 BYTE   PATT
  POIN2 Label_01025CD6
//  #03 //022   ----------------------------------------
 BYTE   PATT
  POIN2 Label_01025C44
//  #03 //023   ----------------------------------------
 BYTE   N12  Fn2  v085
 BYTE   N12  Cn2
 BYTE   W12
 BYTE   Cs2
 BYTE   N12  Fs2
 BYTE   W12
 BYTE   Fs1
 BYTE   W12
 BYTE   Cn2
 BYTE   N12  Fn2
 BYTE   W12
 BYTE   Cs2
 BYTE   N12  Fs2
 BYTE   W12
 BYTE   Fs1
 BYTE   W12
 BYTE   Cn2
 BYTE   N12  Fn2
 BYTE   W12
 BYTE   Cs2
 BYTE   N12  Fs2
 BYTE   W12
//  #03 //024   ----------------------------------------
 BYTE   As1
 BYTE   W12
 BYTE   As1
 BYTE   W12
 BYTE   Ds2
 BYTE   N12  Gs2
 BYTE   W12
 BYTE   Fn2
 BYTE   N12  As2
 BYTE   W12
 BYTE   As1
 BYTE   W12
 BYTE   Ds2
 BYTE   N12  Gs2
 BYTE   W12
 BYTE   As2
 BYTE   N12  Fn2
 BYTE   W12
 BYTE   As1
 BYTE   W12
//  #03 //025   ----------------------------------------
Label_01025D81:
 BYTE   N12  Gs2  v085
 BYTE   N12  Ds2
 BYTE   W12
 BYTE   As2
 BYTE   N12  Fn2
 BYTE   W12
 BYTE   As1
 BYTE   W12
 BYTE   Gs2
 BYTE   N12  Ds2
 BYTE   W12
 BYTE   As2
 BYTE   N12  Fn2
 BYTE   W12
 BYTE   As1
 BYTE   W12
 BYTE   Gs2
 BYTE   N12  Ds2
 BYTE   W12
 BYTE   As2
 BYTE   N12  Fn2
 BYTE   W12
 BYTE   PEND 
//  #03 //026   ----------------------------------------
Label_01025DA0:
 BYTE   N12  As1  v085
 BYTE   W12
 BYTE   As1
 BYTE   W12
 BYTE   Gs2
 BYTE   N12  Ds2
 BYTE   W12
 BYTE   As2
 BYTE   N12  Fn2
 BYTE   W12
 BYTE   As1
 BYTE   W12
 BYTE   Gs2
 BYTE   N12  Ds2
 BYTE   W12
 BYTE   As2
 BYTE   N12  Fn2
 BYTE   W12
 BYTE   As1
 BYTE   W12
 BYTE   PEND 
//  #03 //027   ----------------------------------------
 BYTE   Gs2
 BYTE   N12  Ds2
 BYTE   W12
 BYTE   Fn2
 BYTE   N12  As2
 BYTE   W12
 BYTE   As1
 BYTE   W12
 BYTE   Ds2
 BYTE   N12  Gs2
 BYTE   W12
 BYTE   Fn2
 BYTE   N12  As2
 BYTE   W12
 BYTE   As1
 BYTE   W12
 BYTE   Ds2
 BYTE   N12  Gs2
 BYTE   W12
 BYTE   Fn2
 BYTE   N12  As2
 BYTE   W12
//  #03 //028   ----------------------------------------
Label_01025DD7:
 BYTE   N12  As1  v085
 BYTE   W12
 BYTE   As1
 BYTE   W12
 BYTE   Ds2
 BYTE   N12  Gs2
 BYTE   W12
 BYTE   Fn2
 BYTE   N12  As2
 BYTE   W12
 BYTE   As1
 BYTE   W12
 BYTE   Ds2
 BYTE   N12  Gs2
 BYTE   W12
 BYTE   Fn2
 BYTE   N12  As2
 BYTE   W12
 BYTE   As1
 BYTE   W12
 BYTE   PEND 
//  #03 //029   ----------------------------------------
Label_01025DF2:
 BYTE   N12  Ds2  v085
 BYTE   N12  Gs2
 BYTE   W12
 BYTE   Fn2
 BYTE   N12  As2
 BYTE   W12
 BYTE   As1
 BYTE   W12
 BYTE   Ds2
 BYTE   N12  Gs2
 BYTE   W12
 BYTE   Fn2
 BYTE   N12  As2
 BYTE   W12
 BYTE   As1
 BYTE   W12
 BYTE   Ds2
 BYTE   N12  Gs2
 BYTE   W12
 BYTE   Fn2
 BYTE   N12  As2
 BYTE   W12
 BYTE   PEND 
//  #03 //030   ----------------------------------------
 BYTE   PATT
  POIN2 Label_01025DD7
//  #03 //031   ----------------------------------------
Label_01025E16:
 BYTE   N12  Ds2  v085
 BYTE   N12  Gs2
 BYTE   W12
 BYTE   As2
 BYTE   N12  Fn2
 BYTE   W12
 BYTE   As1
 BYTE   W12
 BYTE   Gs2
 BYTE   N12  Ds2
 BYTE   W12
 BYTE   As2
 BYTE   N12  Fn2
 BYTE   W12
 BYTE   As1
 BYTE   W12
 BYTE   Gs2
 BYTE   N12  Ds2
 BYTE   W12
 BYTE   As2
 BYTE   N12  Fn2
 BYTE   W12
 BYTE   PEND 
//  #03 //032   ----------------------------------------
 BYTE   PATT
  POIN2 Label_01025DA0
//  #03 //033   ----------------------------------------
 BYTE   PATT
  POIN2 Label_01025D81
//  #03 //034   ----------------------------------------
 BYTE   PATT
  POIN2 Label_01025DD7
//  #03 //035   ----------------------------------------
 BYTE   PATT
  POIN2 Label_01025DF2
//  #03 //036   ----------------------------------------
 BYTE   PATT
  POIN2 Label_01025DA0
//  #03 //037   ----------------------------------------
 BYTE   PATT
  POIN2 Label_01025D81
//  #03 //038   ----------------------------------------
 BYTE   PATT
  POIN2 Label_01025DD7
//  #03 //039   ----------------------------------------
 BYTE   PATT
  POIN2 Label_01025E16
//  #03 //040   ----------------------------------------
Label_01025E5D:
 BYTE   N12  Ds1  v085
 BYTE   W12
 BYTE   Ds1
 BYTE   W12
 BYTE   As1
 BYTE   W12
 BYTE   Ds2
 BYTE   W12
 BYTE   Ds1
 BYTE   W12
 BYTE   As1
 BYTE   W12
 BYTE   Ds2
 BYTE   W12
 BYTE   Ds1
 BYTE   W12
 BYTE   PEND 
//  #03 //041   ----------------------------------------
Label_01025E70:
 BYTE   N12  As1  v085
 BYTE   W12
 BYTE   Ds2
 BYTE   W12
 BYTE   Ds1
 BYTE   W12
 BYTE   As1
 BYTE   W12
 BYTE   Ds2
 BYTE   W12
 BYTE   Ds1
 BYTE   W12
 BYTE   As1
 BYTE   W12
 BYTE   Ds2
 BYTE   W12
 BYTE   PEND 
//  #03 //042   ----------------------------------------
Label_01025E83:
 BYTE   N12  Cs1  v085
 BYTE   W12
 BYTE   Cs1
 BYTE   W12
 BYTE   Gs1
 BYTE   W12
 BYTE   Cs2
 BYTE   W12
 BYTE   Cs1
 BYTE   W12
 BYTE   Gs1
 BYTE   W12
 BYTE   Cs2
 BYTE   W12
 BYTE   Cs1
 BYTE   W12
 BYTE   PEND 
//  #03 //043   ----------------------------------------
Label_01025E96:
 BYTE   N12  Gs1  v085
 BYTE   W12
 BYTE   Cs2
 BYTE   W12
 BYTE   Cs1
 BYTE   W12
 BYTE   Gs1
 BYTE   W12
 BYTE   Cs2
 BYTE   W12
 BYTE   Cs1
 BYTE   W12
 BYTE   Gs1
 BYTE   W12
 BYTE   Cs2
 BYTE   W12
 BYTE   PEND 
//  #03 //044   ----------------------------------------
Label_01025EA9:
 BYTE   N12  Cn1  v085
 BYTE   W12
 BYTE   Cn1
 BYTE   W12
 BYTE   Gs1
 BYTE   W12
 BYTE   Cn2
 BYTE   W12
 BYTE   Cn1
 BYTE   W12
 BYTE   Gs1
 BYTE   W12
 BYTE   Cn2
 BYTE   W12
 BYTE   Cn1
 BYTE   W12
 BYTE   PEND 
//  #03 //045   ----------------------------------------
Label_01025EBC:
 BYTE   N12  Gs1  v085
 BYTE   W12
 BYTE   Cn2
 BYTE   W12
 BYTE   Cn1
 BYTE   W12
 BYTE   Gs1
 BYTE   W12
 BYTE   Cn2
 BYTE   W12
 BYTE   Cn1
 BYTE   W12
 BYTE   Gs1
 BYTE   W12
 BYTE   Cn2
 BYTE   W12
 BYTE   PEND 
//  #03 //046   ----------------------------------------
Label_01025ECF:
 BYTE   N12  Bn0  v085
 BYTE   W12
 BYTE   Bn0
 BYTE   W12
 BYTE   Fs1
 BYTE   W12
 BYTE   Bn1
 BYTE   W12
 BYTE   Bn0
 BYTE   W12
 BYTE   Fs1
 BYTE   W12
 BYTE   Bn1
 BYTE   W12
 BYTE   Bn0
 BYTE   W12
 BYTE   PEND 
//  #03 //047   ----------------------------------------
 BYTE   PATT
  POIN2 Label_01025E96
//  #03 //048   ----------------------------------------
 BYTE   PATT
  POIN2 Label_01025E5D
//  #03 //049   ----------------------------------------
 BYTE   PATT
  POIN2 Label_01025E70
//  #03 //050   ----------------------------------------
 BYTE   PATT
  POIN2 Label_01025E83
//  #03 //051   ----------------------------------------
 BYTE   PATT
  POIN2 Label_01025E96
//  #03 //052   ----------------------------------------
 BYTE   PATT
  POIN2 Label_01025EA9
//  #03 //053   ----------------------------------------
 BYTE   PATT
  POIN2 Label_01025EBC
//  #03 //054   ----------------------------------------
 BYTE   PATT
  POIN2 Label_01025ECF
//  #03 //055   ----------------------------------------
 BYTE   PATT
  POIN2 Label_01025E96
//  #03 //056   ----------------------------------------
 BYTE   PATT
  POIN2 Label_01025E5D
//  #03 //057   ----------------------------------------
 BYTE   PATT
  POIN2 Label_01025E70
//  #03 //058   ----------------------------------------
 BYTE   PATT
  POIN2 Label_01025E83
//  #03 //059   ----------------------------------------
 BYTE   PATT
  POIN2 Label_01025E96
//  #03 //060   ----------------------------------------
 BYTE   PATT
  POIN2 Label_01025EA9
//  #03 //061   ----------------------------------------
 BYTE   PATT
  POIN2 Label_01025EBC
//  #03 //062   ----------------------------------------
 BYTE   PATT
  POIN2 Label_01025ECF
//  #03 //063   ----------------------------------------
 BYTE   PATT
  POIN2 Label_01025E96
//  #03 //064   ----------------------------------------
 BYTE   PATT
  POIN2 Label_01025E5D
//  #03 //065   ----------------------------------------
 BYTE   PATT
  POIN2 Label_01025E70
//  #03 //066   ----------------------------------------
 BYTE   PATT
  POIN2 Label_01025E83
//  #03 //067   ----------------------------------------
 BYTE   PATT
  POIN2 Label_01025E96
//  #03 //068   ----------------------------------------
 BYTE   PATT
  POIN2 Label_01025EA9
//  #03 //069   ----------------------------------------
 BYTE   PATT
  POIN2 Label_01025EBC
//  #03 //070   ----------------------------------------
 BYTE   PATT
  POIN2 Label_01025ECF
//  #03 //071   ----------------------------------------
 BYTE   PATT
  POIN2 Label_01025E96
//  #03 //072   ----------------------------------------
 BYTE   PATT
  POIN2 Label_01025ECF
//  #03 //073   ----------------------------------------
 BYTE   PATT
  POIN2 Label_01025E96
//  #03 //074   ----------------------------------------
 BYTE   N12  Ds1  v085
 BYTE   W12
 BYTE   Ds1
 BYTE   W12
 BYTE   Cs2
 BYTE   N12  Gs1
 BYTE   W12
 BYTE   Ds2
 BYTE   N12  As1
 BYTE   W12
 BYTE   Ds1
 BYTE   W12
 BYTE   Cs2
 BYTE   N12  Gs1
 BYTE   W12
 BYTE   Ds2
 BYTE   N12  As1
 BYTE   W12
 BYTE   Ds1
 BYTE   W12
//  #03 //075   ----------------------------------------
 BYTE   Gs1
 BYTE   N12  Cs2
 BYTE   W12
 BYTE   Ds2
 BYTE   N12  As1
 BYTE   W12
 BYTE   Ds1
 BYTE   W12
 BYTE   Cs2
 BYTE   N12  Gs1
 BYTE   W12
 BYTE   Ds2
 BYTE   N12  As1
 BYTE   W12
 BYTE   Ds1
 BYTE   W12
 BYTE   Cs2
 BYTE   N12  Gs1
 BYTE   W12
 BYTE   Ds2
 BYTE   N12  As1
 BYTE   W12
//  #03 //076   ----------------------------------------
Label_01025F9F:
 BYTE   N12  En1  v085
 BYTE   W12
 BYTE   En1
 BYTE   W12
 BYTE   Ds2
 BYTE   N12  As1
 BYTE   W12
 BYTE   En2
 BYTE   N12  Bn1
 BYTE   W12
 BYTE   En1
 BYTE   W12
 BYTE   Ds2
 BYTE   N12  As1
 BYTE   W12
 BYTE   Bn1
 BYTE   N12  En2
 BYTE   W12
 BYTE   En1
 BYTE   W12
 BYTE   PEND 
//  #03 //077   ----------------------------------------
 BYTE   As1
 BYTE   N12  Ds2
 BYTE   W12
 BYTE   En2
 BYTE   N12  Bn1
 BYTE   W12
 BYTE   En1
 BYTE   W12
 BYTE   Ds2
 BYTE   N12  As1
 BYTE   W12
 BYTE   En2
 BYTE   N12  Bn1
 BYTE   W12
 BYTE   En1
 BYTE   W12
 BYTE   Ds2
 BYTE   N12  As1
 BYTE   W12
 BYTE   En2
 BYTE   N12  Bn1
 BYTE   W12
//  #03 //078   ----------------------------------------
 BYTE   Ds1
 BYTE   W12
 BYTE   Ds1
 BYTE   W12
 BYTE   Gs1
 BYTE   N12  Cs2
 BYTE   W12
 BYTE   As1
 BYTE   N12  Ds2
 BYTE   W12
 BYTE   Ds1
 BYTE   W12
 BYTE   Gs1
 BYTE   N12  Cs2
 BYTE   W12
 BYTE   As1
 BYTE   N12  Ds2
 BYTE   W12
 BYTE   Ds1
 BYTE   W12
//  #03 //079   ----------------------------------------
 BYTE   Gs1
 BYTE   N12  Cs2
 BYTE   W12
 BYTE   As1
 BYTE   N12  Ds2
 BYTE   W12
 BYTE   Ds1
 BYTE   W12
 BYTE   Gs1
 BYTE   N12  Cs2
 BYTE   W12
 BYTE   As1
 BYTE   N12  Ds2
 BYTE   W12
 BYTE   Ds1
 BYTE   W12
 BYTE   Cs2
 BYTE   N12  Gs1
 BYTE   W12
 BYTE   Ds2
 BYTE   N12  As1
 BYTE   W12
//  #03 //080   ----------------------------------------
 BYTE   PATT
  POIN2 Label_01025F9F
//  #03 //081   ----------------------------------------
 BYTE   N12  Bn1  v085
 BYTE   N12  En2
 BYTE   W12
 BYTE   Cs2
 BYTE   N12  Fs2
 BYTE   W12
 BYTE   Fs1
 BYTE   W12
 BYTE   Bn1
 BYTE   N12  En2
 BYTE   W12
 BYTE   Cs2
 BYTE   N12  Fs2
 BYTE   W12
 BYTE   Fs1
 BYTE   W12
 BYTE   En2
 BYTE   N12  Bn1
 BYTE   W12
 BYTE   Fs2
 BYTE   N12  Cs2
 BYTE   W12
//  #03 //082   ----------------------------------------
 BYTE   GoTo
  POIN2 Label_01025C0E
 BYTE   FINE

//**************** Track 4 (Midi-Chn.3) ****************//

MegamanZXAdventSoulAblazeTak_004:
//  #04 //000   ----------------------------------------
 BYTE   KEYSH   MegamanZXAdventSoulAblazeTak_key+0
 BYTE   VOICE   66
 BYTE   VOL   77*MegamanZXAdventSoulAblazeTak_mvl/mxv
 BYTE   PAN   c_v-13
 BYTE   BENDR  12
 BYTE   W96
//  #04 //001   ----------------------------------------
 BYTE   W96
//  #04 //002   ----------------------------------------
 BYTE   W96
//  #04 //003   ----------------------------------------
 BYTE   W96
//  #04 //004   ----------------------------------------
 BYTE   W96
//  #04 //005   ----------------------------------------
 BYTE   W96
//  #04 //006   ----------------------------------------
 BYTE   W96
//  #04 //007   ----------------------------------------
 BYTE   W96
//  #04 //008   ----------------------------------------
Label_010005E2:
 BYTE   N36  Cn3  v072
 BYTE   W36
 BYTE   Fn3
 BYTE   W36
 BYTE   N24  Gn3
 BYTE   W24
//  #04 //009   ----------------------------------------
Label_010005EB:
 BYTE   N36  Gs3  v072
 BYTE   W36
 BYTE   As3
 BYTE   W36
 BYTE   N24  Cn4
 BYTE   W24
 BYTE   PEND 
//  #04 //010   ----------------------------------------
Label_010005F5:
 BYTE   N36  As3  v072
 BYTE   W36
 BYTE   TIE  Cs3
 BYTE   W60
 BYTE   PEND 
//  #04 //011   ----------------------------------------
Label_010005FD:
 BYTE   W42
 BYTE   EOT
 BYTE   Cs3
 BYTE   W06
 BYTE   N24  Cn3  v072
 BYTE   W24
 BYTE   As2
 BYTE   W24
 BYTE   PEND 
//  #04 //012   ----------------------------------------
Label_01000608:
 BYTE   N36  Cn3  v072
 BYTE   W36
 BYTE   Fn3
 BYTE   W36
 BYTE   N24  Gn3
 BYTE   W24
 BYTE   PEND 
//  #04 //013   ----------------------------------------
 BYTE   PATT
  POIN2 Label_010005EB
//  #04 //014   ----------------------------------------
 BYTE   N72  Ds4  v072
 BYTE   W72
 BYTE   N12  Cs4
 BYTE   W12
 BYTE   Cn4
 BYTE   W12
//  #04 //015   ----------------------------------------
 BYTE   N90  As3
 BYTE   W96
//  #04 //016   ----------------------------------------
 BYTE   PATT
  POIN2 Label_01000608
//  #04 //017   ----------------------------------------
 BYTE   PATT
  POIN2 Label_010005EB
//  #04 //018   ----------------------------------------
 BYTE   PATT
  POIN2 Label_010005F5
//  #04 //019   ----------------------------------------
 BYTE   PATT
  POIN2 Label_010005FD
//  #04 //020   ----------------------------------------
 BYTE   PATT
  POIN2 Label_01000608
//  #04 //021   ----------------------------------------
 BYTE   PATT
  POIN2 Label_010005EB
//  #04 //022   ----------------------------------------
 BYTE   N56  Ds4  v072  gtp1
 BYTE   W60
 BYTE   N12
 BYTE   W12
 BYTE   Cs4
 BYTE   W12
 BYTE   Cn4
 BYTE   W12
//  #04 //023   ----------------------------------------
 BYTE   N90  As3
 BYTE   W96
//  #04 //024   ----------------------------------------
 BYTE   W96
//  #04 //025   ----------------------------------------
 BYTE   W96
//  #04 //026   ----------------------------------------
 BYTE   W96
//  #04 //027   ----------------------------------------
 BYTE   W96
//  #04 //028   ----------------------------------------
 BYTE   W96
//  #04 //029   ----------------------------------------
 BYTE   W96
//  #04 //030   ----------------------------------------
 BYTE   W96
//  #04 //031   ----------------------------------------
 BYTE   W96
//  #04 //032   ----------------------------------------
 BYTE   W96
//  #04 //033   ----------------------------------------
 BYTE   W96
//  #04 //034   ----------------------------------------
 BYTE   W96
//  #04 //035   ----------------------------------------
 BYTE   W96
//  #04 //036   ----------------------------------------
 BYTE   W96
//  #04 //037   ----------------------------------------
 BYTE   W96
//  #04 //038   ----------------------------------------
 BYTE   W96
//  #04 //039   ----------------------------------------
 BYTE   W96
//  #04 //040   ----------------------------------------
 BYTE   W96
//  #04 //041   ----------------------------------------
 BYTE   W96
//  #04 //042   ----------------------------------------
 BYTE   W96
//  #04 //043   ----------------------------------------
 BYTE   W96
//  #04 //044   ----------------------------------------
 BYTE   W96
//  #04 //045   ----------------------------------------
 BYTE   W96
//  #04 //046   ----------------------------------------
 BYTE   W96
//  #04 //047   ----------------------------------------
 BYTE   W96
//  #04 //048   ----------------------------------------
 BYTE   W96
//  #04 //049   ----------------------------------------
 BYTE   W96
//  #04 //050   ----------------------------------------
 BYTE   W96
//  #04 //051   ----------------------------------------
 BYTE   W96
//  #04 //052   ----------------------------------------
 BYTE   W96
//  #04 //053   ----------------------------------------
 BYTE   W96
//  #04 //054   ----------------------------------------
 BYTE   W96
//  #04 //055   ----------------------------------------
 BYTE   W96
//  #04 //056   ----------------------------------------
 BYTE   W96
//  #04 //057   ----------------------------------------
 BYTE   W96
//  #04 //058   ----------------------------------------
 BYTE   W96
//  #04 //059   ----------------------------------------
 BYTE   W96
//  #04 //060   ----------------------------------------
 BYTE   W96
//  #04 //061   ----------------------------------------
 BYTE   W96
//  #04 //062   ----------------------------------------
 BYTE   W96
//  #04 //063   ----------------------------------------
 BYTE   W96
//  #04 //064   ----------------------------------------
 BYTE   W96
//  #04 //065   ----------------------------------------
 BYTE   W96
//  #04 //066   ----------------------------------------
 BYTE   W96
//  #04 //067   ----------------------------------------
 BYTE   W96
//  #04 //068   ----------------------------------------
 BYTE   W96
//  #04 //069   ----------------------------------------
 BYTE   W96
//  #04 //070   ----------------------------------------
 BYTE   W96
//  #04 //071   ----------------------------------------
 BYTE   W96
//  #04 //072   ----------------------------------------
 BYTE   W96
//  #04 //073   ----------------------------------------
 BYTE   W96
//  #04 //074   ----------------------------------------
 BYTE   W96
//  #04 //075   ----------------------------------------
 BYTE   W96
//  #04 //076   ----------------------------------------
 BYTE   W96
//  #04 //077   ----------------------------------------
 BYTE   W96
//  #04 //078   ----------------------------------------
 BYTE   W96
//  #04 //079   ----------------------------------------
 BYTE   W96
//  #04 //080   ----------------------------------------
 BYTE   W96
//  #04 //081   ----------------------------------------
 BYTE   W96
//  #04 //082   ----------------------------------------
 BYTE   GoTo
  POIN2 Label_010005E2
 BYTE   FINE

//**************** Track 5 (Midi-Chn.4) ****************//

MegamanZXAdventSoulAblazeTak_005:
//  #05 //000   ----------------------------------------
 BYTE   KEYSH   MegamanZXAdventSoulAblazeTak_key+0
 BYTE   VOICE   41
 BYTE   VOL   77*MegamanZXAdventSoulAblazeTak_mvl/mxv
 BYTE   PAN   c_v+12
 BYTE   BENDR  12
 BYTE   W96
//  #05 //001   ----------------------------------------
 BYTE   W96
//  #05 //002   ----------------------------------------
 BYTE   W96
//  #05 //003   ----------------------------------------
 BYTE   W96
//  #05 //004   ----------------------------------------
 BYTE   W96
//  #05 //005   ----------------------------------------
 BYTE   W96
//  #05 //006   ----------------------------------------
 BYTE   W96
//  #05 //007   ----------------------------------------
 BYTE   W96
//  #05 //008   ----------------------------------------
Label_01004062:
 BYTE   W96
//  #05 //009   ----------------------------------------
 BYTE   W96
//  #05 //010   ----------------------------------------
 BYTE   W96
//  #05 //011   ----------------------------------------
 BYTE   W96
//  #05 //012   ----------------------------------------
 BYTE   W96
//  #05 //013   ----------------------------------------
 BYTE   W96
//  #05 //014   ----------------------------------------
 BYTE   W96
//  #05 //015   ----------------------------------------
 BYTE   W96
//  #05 //016   ----------------------------------------
 BYTE   W96
//  #05 //017   ----------------------------------------
 BYTE   W96
//  #05 //018   ----------------------------------------
 BYTE   W96
//  #05 //019   ----------------------------------------
 BYTE   W96
//  #05 //020   ----------------------------------------
 BYTE   W96
//  #05 //021   ----------------------------------------
 BYTE   W96
//  #05 //022   ----------------------------------------
 BYTE   W96
//  #05 //023   ----------------------------------------
 BYTE   W96
//  #05 //024   ----------------------------------------
Label_01004072:
 BYTE   N36  Cs5  v085
 BYTE   W36
 BYTE   N78  Fn4
 BYTE   W60
 BYTE   PEND 
//  #05 //025   ----------------------------------------
Label_0100407A:
 BYTE   W24
 BYTE   N24  Fn4  v085
 BYTE   W24
 BYTE   Cn5
 BYTE   W24
 BYTE   As4
 BYTE   W24
 BYTE   PEND 
//  #05 //026   ----------------------------------------
Label_01004084:
 BYTE   N36  Cs5  v085
 BYTE   W36
 BYTE   N78  Fs4
 BYTE   W60
 BYTE   PEND 
//  #05 //027   ----------------------------------------
Label_0100408C:
 BYTE   W24
 BYTE   N24  Fs4  v085
 BYTE   W24
 BYTE   Cn5
 BYTE   W24
 BYTE   As4
 BYTE   W24
 BYTE   PEND 
//  #05 //028   ----------------------------------------
Label_01004096:
 BYTE   N36  Cs5  v085
 BYTE   W36
 BYTE   N78  Gn4
 BYTE   W60
 BYTE   PEND 
//  #05 //029   ----------------------------------------
Label_0100409E:
 BYTE   W24
 BYTE   N24  As4  v085
 BYTE   W24
 BYTE   Cs5
 BYTE   W24
 BYTE   Ds5
 BYTE   W24
 BYTE   PEND 
//  #05 //030   ----------------------------------------
Label_010040A8:
 BYTE   N72  Fn5  v085
 BYTE   W72
 BYTE   N24  Ds5
 BYTE   W24
 BYTE   PEND 
//  #05 //031   ----------------------------------------
 BYTE   Cs5
 BYTE   W24
 BYTE   Cn5
 BYTE   W24
 BYTE   As4
 BYTE   W24
 BYTE   Cn5
 BYTE   W24
//  #05 //032   ----------------------------------------
 BYTE   PATT
  POIN2 Label_01004072
//  #05 //033   ----------------------------------------
 BYTE   PATT
  POIN2 Label_0100407A
//  #05 //034   ----------------------------------------
 BYTE   PATT
  POIN2 Label_01004084
//  #05 //035   ----------------------------------------
 BYTE   PATT
  POIN2 Label_0100408C
//  #05 //036   ----------------------------------------
 BYTE   PATT
  POIN2 Label_01004096
//  #05 //037   ----------------------------------------
 BYTE   PATT
  POIN2 Label_0100409E
//  #05 //038   ----------------------------------------
 BYTE   PATT
  POIN2 Label_010040A8
//  #05 //039   ----------------------------------------
 BYTE   N24  Cs5  v085
 BYTE   W24
 BYTE   Cn5
 BYTE   W24
 BYTE   As4
 BYTE   W24
 BYTE   Gs4
 BYTE   W24
//  #05 //040   ----------------------------------------
 BYTE   TIE  As4
 BYTE   W96
//  #05 //041   ----------------------------------------
 BYTE   W96
//  #05 //042   ----------------------------------------
 BYTE   W96
//  #05 //043   ----------------------------------------
 BYTE   W96
//  #05 //044   ----------------------------------------
 BYTE   EOT
 BYTE   W96
//  #05 //045   ----------------------------------------
 BYTE   W96
//  #05 //046   ----------------------------------------
 BYTE   W96
//  #05 //047   ----------------------------------------
 BYTE   W96
//  #05 //048   ----------------------------------------
Label_010040F0:
 BYTE   N36  As4  v085
 BYTE   W36
 BYTE   Gs4
 BYTE   W36
 BYTE   N24  Fs4
 BYTE   W24
 BYTE   PEND 
//  #05 //049   ----------------------------------------
Label_010040FA:
 BYTE   N36  Fn4  v085
 BYTE   W36
 BYTE   Fs4
 BYTE   W36
 BYTE   N24  Gs4
 BYTE   W24
 BYTE   PEND 
//  #05 //050   ----------------------------------------
Label_01004104:
 BYTE   N68  Fn4  v085  gtp1
 BYTE   W72
 BYTE   N12
 BYTE   W12
 BYTE   Fs4
 BYTE   W12
 BYTE   PEND 
//  #05 //051   ----------------------------------------
Label_0100410E:
 BYTE   N24  Gs4  v085
 BYTE   W24
 BYTE   Fs4
 BYTE   W24
 BYTE   Fn4
 BYTE   W24
 BYTE   Fs4
 BYTE   W24
 BYTE   PEND 
//  #05 //052   ----------------------------------------
Label_01004119:
 BYTE   N36  Fn4  v085
 BYTE   W36
 BYTE   N78  Ds4
 BYTE   W60
 BYTE   PEND 
//  #05 //053   ----------------------------------------
Label_01004121:
 BYTE   W24
 BYTE   N24  As3  v085
 BYTE   W24
 BYTE   Ds4
 BYTE   W24
 BYTE   Fn4
 BYTE   W24
 BYTE   PEND 
//  #05 //054   ----------------------------------------
Label_0100412B:
 BYTE   N36  Fs4  v085
 BYTE   W36
 BYTE   Fn4
 BYTE   W36
 BYTE   N24  Ds4
 BYTE   W24
 BYTE   PEND 
//  #05 //055   ----------------------------------------
 BYTE   PATT
  POIN2 Label_010040FA
//  #05 //056   ----------------------------------------
 BYTE   W96
//  #05 //057   ----------------------------------------
 BYTE   W96
//  #05 //058   ----------------------------------------
 BYTE   W96
//  #05 //059   ----------------------------------------
 BYTE   W96
//  #05 //060   ----------------------------------------
 BYTE   W96
//  #05 //061   ----------------------------------------
 BYTE   W96
//  #05 //062   ----------------------------------------
 BYTE   W96
//  #05 //063   ----------------------------------------
 BYTE   W96
//  #05 //064   ----------------------------------------
 BYTE   W96
//  #05 //065   ----------------------------------------
 BYTE   W96
//  #05 //066   ----------------------------------------
 BYTE   W96
//  #05 //067   ----------------------------------------
 BYTE   W96
//  #05 //068   ----------------------------------------
 BYTE   W96
//  #05 //069   ----------------------------------------
 BYTE   W96
//  #05 //070   ----------------------------------------
 BYTE   W96
//  #05 //071   ----------------------------------------
 BYTE   W96
//  #05 //072   ----------------------------------------
 BYTE   W96
//  #05 //073   ----------------------------------------
 BYTE   W96
//  #05 //074   ----------------------------------------
 BYTE   W96
//  #05 //075   ----------------------------------------
 BYTE   W96
//  #05 //076   ----------------------------------------
 BYTE   W96
//  #05 //077   ----------------------------------------
 BYTE   W96
//  #05 //078   ----------------------------------------
 BYTE   W96
//  #05 //079   ----------------------------------------
 BYTE   W96
//  #05 //080   ----------------------------------------
 BYTE   W96
//  #05 //081   ----------------------------------------
 BYTE   W96
//  #05 //082   ----------------------------------------
 BYTE   GoTo
  POIN2 Label_01004062
 BYTE   FINE

//**************** Track 6 (Midi-Chn.5) ****************//

MegamanZXAdventSoulAblazeTak_006:
//  #06 //000   ----------------------------------------
 BYTE   KEYSH   MegamanZXAdventSoulAblazeTak_key+0
 BYTE   VOICE   73
 BYTE   VOL   87*MegamanZXAdventSoulAblazeTak_mvl/mxv
 BYTE   BENDR  12
 BYTE   W96
//  #06 //001   ----------------------------------------
 BYTE   W96
//  #06 //002   ----------------------------------------
 BYTE   W96
//  #06 //003   ----------------------------------------
 BYTE   W96
//  #06 //004   ----------------------------------------
 BYTE   W96
//  #06 //005   ----------------------------------------
 BYTE   W96
//  #06 //006   ----------------------------------------
 BYTE   W96
//  #06 //007   ----------------------------------------
 BYTE   W96
//  #06 //008   ----------------------------------------
Label_0100417C:
 BYTE   W96
//  #06 //009   ----------------------------------------
 BYTE   W96
//  #06 //010   ----------------------------------------
 BYTE   W96
//  #06 //011   ----------------------------------------
 BYTE   W96
//  #06 //012   ----------------------------------------
 BYTE   W96
//  #06 //013   ----------------------------------------
 BYTE   W96
//  #06 //014   ----------------------------------------
 BYTE   W96
//  #06 //015   ----------------------------------------
 BYTE   W96
//  #06 //016   ----------------------------------------
 BYTE   W96
//  #06 //017   ----------------------------------------
 BYTE   W96
//  #06 //018   ----------------------------------------
 BYTE   W96
//  #06 //019   ----------------------------------------
 BYTE   W96
//  #06 //020   ----------------------------------------
 BYTE   W96
//  #06 //021   ----------------------------------------
 BYTE   W96
//  #06 //022   ----------------------------------------
 BYTE   W96
//  #06 //023   ----------------------------------------
 BYTE   W96
//  #06 //024   ----------------------------------------
 BYTE   W96
//  #06 //025   ----------------------------------------
 BYTE   W96
//  #06 //026   ----------------------------------------
 BYTE   W96
//  #06 //027   ----------------------------------------
 BYTE   W96
//  #06 //028   ----------------------------------------
 BYTE   W96
//  #06 //029   ----------------------------------------
 BYTE   W96
//  #06 //030   ----------------------------------------
 BYTE   W96
//  #06 //031   ----------------------------------------
 BYTE   W96
//  #06 //032   ----------------------------------------
 BYTE   W96
//  #06 //033   ----------------------------------------
 BYTE   W96
//  #06 //034   ----------------------------------------
 BYTE   W96
//  #06 //035   ----------------------------------------
 BYTE   W96
//  #06 //036   ----------------------------------------
 BYTE   W96
//  #06 //037   ----------------------------------------
 BYTE   W96
//  #06 //038   ----------------------------------------
 BYTE   W96
//  #06 //039   ----------------------------------------
 BYTE   W96
//  #06 //040   ----------------------------------------
 BYTE   W96
//  #06 //041   ----------------------------------------
 BYTE   W96
//  #06 //042   ----------------------------------------
 BYTE   W96
//  #06 //043   ----------------------------------------
 BYTE   W96
//  #06 //044   ----------------------------------------
 BYTE   W96
//  #06 //045   ----------------------------------------
 BYTE   W96
//  #06 //046   ----------------------------------------
 BYTE   W96
//  #06 //047   ----------------------------------------
 BYTE   W96
//  #06 //048   ----------------------------------------
 BYTE   W96
//  #06 //049   ----------------------------------------
 BYTE   W96
//  #06 //050   ----------------------------------------
 BYTE   W96
//  #06 //051   ----------------------------------------
 BYTE   W96
//  #06 //052   ----------------------------------------
 BYTE   W96
//  #06 //053   ----------------------------------------
 BYTE   W96
//  #06 //054   ----------------------------------------
 BYTE   W96
//  #06 //055   ----------------------------------------
 BYTE   W96
//  #06 //056   ----------------------------------------
 BYTE   PATT
  POIN2 Label_010040F0
//  #06 //057   ----------------------------------------
 BYTE   PATT
  POIN2 Label_010040FA
//  #06 //058   ----------------------------------------
 BYTE   PATT
  POIN2 Label_01004104
//  #06 //059   ----------------------------------------
 BYTE   PATT
  POIN2 Label_0100410E
//  #06 //060   ----------------------------------------
 BYTE   PATT
  POIN2 Label_01004119
//  #06 //061   ----------------------------------------
 BYTE   PATT
  POIN2 Label_01004121
//  #06 //062   ----------------------------------------
 BYTE   PATT
  POIN2 Label_0100412B
//  #06 //063   ----------------------------------------
 BYTE   PATT
  POIN2 Label_010040FA
//  #06 //064   ----------------------------------------
 BYTE   PATT
  POIN2 Label_010040F0
//  #06 //065   ----------------------------------------
 BYTE   PATT
  POIN2 Label_010040FA
//  #06 //066   ----------------------------------------
 BYTE   PATT
  POIN2 Label_01004104
//  #06 //067   ----------------------------------------
 BYTE   PATT
  POIN2 Label_0100410E
//  #06 //068   ----------------------------------------
 BYTE   PATT
  POIN2 Label_01004119
//  #06 //069   ----------------------------------------
 BYTE   PATT
  POIN2 Label_01004121
//  #06 //070   ----------------------------------------
 BYTE   PATT
  POIN2 Label_0100412B
//  #06 //071   ----------------------------------------
 BYTE   N56  Fn4  v085  gtp1
 BYTE   W60
 BYTE   N12  As3
 BYTE   W12
 BYTE   Ds4
 BYTE   W12
 BYTE   Fn4
 BYTE   W12
//  #06 //072   ----------------------------------------
 BYTE   PATT
  POIN2 Label_0100412B
//  #06 //073   ----------------------------------------
 BYTE   PATT
  POIN2 Label_010040FA
//  #06 //074   ----------------------------------------
 BYTE   TIE  As4  v085
 BYTE   W96
//  #06 //075   ----------------------------------------
 BYTE   W96
//  #06 //076   ----------------------------------------
 BYTE   EOT
 BYTE   W96
//  #06 //077   ----------------------------------------
 BYTE   W96
//  #06 //078   ----------------------------------------
 BYTE   W96
//  #06 //079   ----------------------------------------
 BYTE   W96
//  #06 //080   ----------------------------------------
 BYTE   W96
//  #06 //081   ----------------------------------------
 BYTE   W96
//  #06 //082   ----------------------------------------
 BYTE   GoTo
  POIN2 Label_0100417C
 BYTE   FINE

//**************** Track 7 (Midi-Chn.6) ****************//

MegamanZXAdventSoulAblazeTak_007:
//  #07 //000   ----------------------------------------
 BYTE   KEYSH   MegamanZXAdventSoulAblazeTak_key+0
 BYTE   VOICE   124
 BYTE   VOL   81*MegamanZXAdventSoulAblazeTak_mvl/mxv
 BYTE   N96  Cs2  v085
 BYTE   N12  Cn1
 BYTE   BENDR  12
 BYTE   W24
 BYTE   N12
 BYTE   W12
 BYTE   An1  v108
 BYTE   W12
 BYTE   Cn1  v085
 BYTE   W24
 BYTE   Fn1  v108
 BYTE   N12  Cn1  v085
 BYTE   W24
//  #07 //001   ----------------------------------------
Label_01026050:
 BYTE   N12  Cn1  v085
 BYTE   W12
 BYTE   Bn1  v108
 BYTE   W12
 BYTE   Cn1  v085
 BYTE   W24
 BYTE   An1  v108
 BYTE   N12  Cn1  v085
 BYTE   W24
 BYTE   Fn1  v108
 BYTE   N12  Cn1  v085
 BYTE   W24
 BYTE   PEND 
//  #07 //002   ----------------------------------------
Label_01026067:
 BYTE   N12  Cn1  v085
 BYTE   N96  Cs2
 BYTE   W24
 BYTE   N12  Cn1
 BYTE   W12
 BYTE   An1  v108
 BYTE   W12
 BYTE   Cn1  v085
 BYTE   W24
 BYTE   Fn1  v108
 BYTE   N12  Cn1  v085
 BYTE   W24
 BYTE   PEND 
//  #07 //003   ----------------------------------------
 BYTE   PATT
  POIN2 Label_01026050
//  #07 //004   ----------------------------------------
 BYTE   N96  Cs2  v085
 BYTE   N12  Cn1
 BYTE   W24
 BYTE   Cn1
 BYTE   W12
 BYTE   An1  v108
 BYTE   W12
 BYTE   Cn1  v085
 BYTE   W24
 BYTE   Fn1  v108
 BYTE   N12  Cn1  v085
 BYTE   W24
//  #07 //005   ----------------------------------------
 BYTE   PATT
  POIN2 Label_01026050
//  #07 //006   ----------------------------------------
 BYTE   PATT
  POIN2 Label_01026067
//  #07 //007   ----------------------------------------
 BYTE   N12  Cn1  v085
 BYTE   W12
 BYTE   Bn1  v108
 BYTE   W12
 BYTE   Cn1  v085
 BYTE   W24
 BYTE   Cn1
 BYTE   N12  An1  v108
 BYTE   W12
 BYTE   Cn1  v085
 BYTE   W12
 BYTE   N24  Gn2
 BYTE   N12  Cn1
 BYTE   N24  Dn1  v072
 BYTE   N12  Fn1  v108
 BYTE   W12
 BYTE   N06  Cn1  v085
 BYTE   W06
 BYTE   Cn1
 BYTE   W06
//  #07 //008   ----------------------------------------
Label_010260C3:
 BYTE   N12  Cn1  v085
 BYTE   N96  Cs2
 BYTE   W12
 BYTE   N12  Cn1
 BYTE   W12
 BYTE   N24  Dn1  v072
 BYTE   N18  As1
 BYTE   W12
 BYTE   N06  Cn1  v085
 BYTE   W06
 BYTE   Cn1
 BYTE   W06
 BYTE   N12
 BYTE   N18  As1  v072
 BYTE   W12
 BYTE   N12  Cn1  v085
 BYTE   W12
 BYTE   Cn1
 BYTE   N24  Dn1  v072
 BYTE   N18  As1
 BYTE   W12
 BYTE   N12  Cn1  v085
 BYTE   W12
//  #07 //009   ----------------------------------------
 BYTE   Cn1
 BYTE   N18  As1  v072
 BYTE   W12
 BYTE   N12  Cn1  v085
 BYTE   W12
 BYTE   N18  As1  v072
 BYTE   N24  Dn1
 BYTE   W12
 BYTE   N06  Cn1  v085
 BYTE   W06
 BYTE   Cn1
 BYTE   W06
 BYTE   N18  As1  v072
 BYTE   N12  Cn1  v085
 BYTE   W12
 BYTE   Cn1
 BYTE   W12
 BYTE   N18  As1  v072
 BYTE   N24  Dn1
 BYTE   N12  Cn1  v085
 BYTE   W12
 BYTE   Cn1
 BYTE   W12
//  #07 //010   ----------------------------------------
Label_01026115:
 BYTE   N18  As1  v072
 BYTE   N12  Cn1  v085
 BYTE   W12
 BYTE   Cn1
 BYTE   W12
 BYTE   N18  As1  v072
 BYTE   N24  Dn1
 BYTE   W12
 BYTE   N06  Cn1  v085
 BYTE   W06
 BYTE   Cn1
 BYTE   W06
 BYTE   N18  As1  v072
 BYTE   N12  Cn1  v085
 BYTE   W12
 BYTE   Cn1
 BYTE   W12
 BYTE   N18  As1  v072
 BYTE   N24  Dn1
 BYTE   N12  Cn1  v085
 BYTE   W12
 BYTE   Cn1
 BYTE   W12
 BYTE   PEND 
//  #07 //011   ----------------------------------------
 BYTE   PATT
  POIN2 Label_01026115
//  #07 //012   ----------------------------------------
 BYTE   N96  Cs2  v085
 BYTE   N12  Cn1
 BYTE   W12
 BYTE   Cn1
 BYTE   W12
 BYTE   N18  As1  v072
 BYTE   N24  Dn1
 BYTE   W12
 BYTE   N06  Cn1  v085
 BYTE   W06
 BYTE   Cn1
 BYTE   W06
 BYTE   N18  As1  v072
 BYTE   N12  Cn1  v085
 BYTE   W12
 BYTE   Cn1
 BYTE   W12
 BYTE   N18  As1  v072
 BYTE   N24  Dn1
 BYTE   N12  Cn1  v085
 BYTE   W12
 BYTE   Cn1
 BYTE   W12
//  #07 //013   ----------------------------------------
 BYTE   PATT
  POIN2 Label_01026115
//  #07 //014   ----------------------------------------
 BYTE   PATT
  POIN2 Label_01026115
//  #07 //015   ----------------------------------------
 BYTE   PATT
  POIN2 Label_01026115
//  #07 //016   ----------------------------------------
 BYTE   N96  Cs2  v085
 BYTE   N12  Cn1
 BYTE   W12
 BYTE   Cn1
 BYTE   W12
 BYTE   N18  As1  v072
 BYTE   N24  Dn1
 BYTE   W12
 BYTE   N06  Cn1  v085
 BYTE   W06
 BYTE   Cn1
 BYTE   W06
 BYTE   N18  As1  v072
 BYTE   N12  Cn1  v085
 BYTE   W12
 BYTE   Cn1
 BYTE   W12
 BYTE   Cn1
 BYTE   N24  Dn1  v072
 BYTE   N18  As1
 BYTE   W12
 BYTE   N12  Cn1  v085
 BYTE   W12
//  #07 //017   ----------------------------------------
Label_010261A3:
 BYTE   N12  Cn1  v085
 BYTE   N18  As1  v072
 BYTE   W12
 BYTE   N12  Cn1  v085
 BYTE   W12
 BYTE   N24  Dn1  v072
 BYTE   N18  As1
 BYTE   W12
 BYTE   N06  Cn1  v085
 BYTE   W06
 BYTE   Cn1
 BYTE   W06
 BYTE   N12
 BYTE   N18  As1  v072
 BYTE   W12
 BYTE   N12  Cn1  v085
 BYTE   W12
 BYTE   Cn1
 BYTE   N24  Dn1  v072
 BYTE   N18  As1
 BYTE   W12
 BYTE   N12  Cn1  v085
 BYTE   W12
 BYTE   PEND 
//  #07 //018   ----------------------------------------
 BYTE   Cn1
 BYTE   N18  As1  v072
 BYTE   W12
 BYTE   N12  Cn1  v085
 BYTE   W12
 BYTE   N24  Dn1  v072
 BYTE   N18  As1
 BYTE   W12
 BYTE   N06  Cn1  v085
 BYTE   W06
 BYTE   Cn1
 BYTE   W06
 BYTE   N12
 BYTE   N18  As1  v072
 BYTE   W12
 BYTE   N12  Cn1  v085
 BYTE   W12
 BYTE   N18  As1  v072
 BYTE   N24  Dn1
 BYTE   N12  Cn1  v085
 BYTE   W12
 BYTE   Cn1
 BYTE   W12
//  #07 //019   ----------------------------------------
 BYTE   N18  As1  v072
 BYTE   N12  Cn1  v085
 BYTE   W12
 BYTE   Cn1
 BYTE   W12
 BYTE   N18  As1  v072
 BYTE   N24  Dn1
 BYTE   W12
 BYTE   N06  Cn1  v085
 BYTE   W06
 BYTE   Cn1
 BYTE   W06
 BYTE   N18  As1  v072
 BYTE   N12  Cn1  v085
 BYTE   W12
 BYTE   Cn1
 BYTE   W12
 BYTE   Cn1
 BYTE   N24  Dn1  v072
 BYTE   N18  As1
 BYTE   W12
 BYTE   N12  Cn1  v085
 BYTE   W12
//  #07 //020   ----------------------------------------
 BYTE   Cn1
 BYTE   N96  Cs2
 BYTE   W12
 BYTE   N12  Cn1
 BYTE   W12
 BYTE   N24  Dn1  v072
 BYTE   N18  As1
 BYTE   W12
 BYTE   N06  Cn1  v085
 BYTE   W06
 BYTE   Cn1
 BYTE   W06
 BYTE   N12
 BYTE   N18  As1  v072
 BYTE   W12
 BYTE   N12  Cn1  v085
 BYTE   W12
 BYTE   Cn1
 BYTE   N24  Dn1  v072
 BYTE   N18  As1
 BYTE   W12
 BYTE   N12  Cn1  v085
 BYTE   W12
//  #07 //021   ----------------------------------------
 BYTE   PATT
  POIN2 Label_010261A3
//  #07 //022   ----------------------------------------
 BYTE   PATT
  POIN2 Label_01026115
//  #07 //023   ----------------------------------------
 BYTE   N18  As1  v072
 BYTE   N12  Cn1  v085
 BYTE   W12
 BYTE   Cn1
 BYTE   W12
 BYTE   N24  Dn1  v072
 BYTE   N18  As1
 BYTE   W12
 BYTE   N06  Cn1  v085
 BYTE   W06
 BYTE   Cn1
 BYTE   W06
 BYTE   N12
 BYTE   N18  As1  v072
 BYTE   W12
 BYTE   N12  Cn1  v085
 BYTE   W12
 BYTE   Cn1
 BYTE   N24  Dn1  v072
 BYTE   N18  As1
 BYTE   W12
 BYTE   N12  Cn1  v085
 BYTE   W12
//  #07 //024   ----------------------------------------
 BYTE   Cn1
 BYTE   N96  Cs2
 BYTE   W12
 BYTE   N12  Cn1
 BYTE   W12
 BYTE   N24  Dn1  v072
 BYTE   N18  As1
 BYTE   W12
 BYTE   N12  Cn1  v085
 BYTE   W12
 BYTE   Cn1
 BYTE   N18  As1  v072
 BYTE   W12
 BYTE   N12  Cn1  v085
 BYTE   W12
 BYTE   N18  As1  v072
 BYTE   N24  Dn1
 BYTE   N12  Cn1  v085
 BYTE   W12
 BYTE   Cn1
 BYTE   W12
//  #07 //025   ----------------------------------------
Label_010262A0:
 BYTE   N18  As1  v072
 BYTE   N12  Cn1  v085
 BYTE   W12
 BYTE   Cn1
 BYTE   W12
 BYTE   N18  As1  v072
 BYTE   N24  Dn1
 BYTE   W12
 BYTE   N12  Cn1  v085
 BYTE   W12
 BYTE   N18  As1  v072
 BYTE   N12  Cn1  v085
 BYTE   W12
 BYTE   Cn1
 BYTE   W12
 BYTE   N18  As1  v072
 BYTE   N24  Dn1
 BYTE   N12  Cn1  v085
 BYTE   W12
 BYTE   Cn1
 BYTE   W12
 BYTE   PEND 
//  #07 //026   ----------------------------------------
 BYTE   PATT
  POIN2 Label_010262A0
//  #07 //027   ----------------------------------------
Label_010262CD:
 BYTE   N18  As1  v072
 BYTE   N12  Cn1  v085
 BYTE   W12
 BYTE   Cn1
 BYTE   W12
 BYTE   N24  Dn1  v072
 BYTE   N18  As1
 BYTE   W12
 BYTE   N12  Cn1  v085
 BYTE   W12
 BYTE   Cn1
 BYTE   N18  As1  v072
 BYTE   W12
 BYTE   N12  Cn1  v085
 BYTE   W12
 BYTE   Cn1
 BYTE   N24  Dn1  v072
 BYTE   N18  As1
 BYTE   W12
 BYTE   N12  Cn1  v085
 BYTE   W12
 BYTE   PEND 
//  #07 //028   ----------------------------------------
Label_010262F5:
 BYTE   N12  Cn1  v085
 BYTE   N96  Cs2
 BYTE   W12
 BYTE   N12  Cn1
 BYTE   W12
 BYTE   N24  Dn1  v072
 BYTE   N18  As1
 BYTE   W12
 BYTE   N12  Cn1  v085
 BYTE   W12
 BYTE   Cn1
 BYTE   N18  As1  v072
 BYTE   W12
 BYTE   N12  Cn1  v085
 BYTE   W12
 BYTE   Cn1
 BYTE   N24  Dn1  v072
 BYTE   N18  As1
 BYTE   W12
 BYTE   N12  Cn1  v085
 BYTE   W12
 BYTE   PEND 
//  #07 //029   ----------------------------------------
Label_0102631D:
 BYTE   N12  Cn1  v085
 BYTE   N18  As1  v072
 BYTE   W12
 BYTE   N12  Cn1  v085
 BYTE   W12
 BYTE   N24  Dn1  v072
 BYTE   N18  As1
 BYTE   W12
 BYTE   N12  Cn1  v085
 BYTE   W12
 BYTE   Cn1
 BYTE   N18  As1  v072
 BYTE   W12
 BYTE   N12  Cn1  v085
 BYTE   W12
 BYTE   Cn1
 BYTE   N24  Dn1  v072
 BYTE   N18  As1
 BYTE   W12
 BYTE   N12  Cn1  v085
 BYTE   W12
 BYTE   PEND 
//  #07 //030   ----------------------------------------
 BYTE   PATT
  POIN2 Label_0102631D
//  #07 //031   ----------------------------------------
Label_0102634C:
 BYTE   N12  Cn1  v085
 BYTE   N18  As1  v072
 BYTE   W12
 BYTE   N12  Cn1  v085
 BYTE   W12
 BYTE   N18  As1  v072
 BYTE   N24  Dn1
 BYTE   W12
 BYTE   N12  Cn1  v085
 BYTE   W12
 BYTE   N18  As1  v072
 BYTE   N12  Cn1  v085
 BYTE   W12
 BYTE   Cn1
 BYTE   W12
 BYTE   N18  As1  v072
 BYTE   N24  Dn1
 BYTE   N12  Cn1  v085
 BYTE   W12
 BYTE   Cn1
 BYTE   W12
 BYTE   PEND 
//  #07 //032   ----------------------------------------
Label_01026376:
 BYTE   N96  Cs2  v085
 BYTE   N12  Cn1
 BYTE   W12
 BYTE   Cn1
 BYTE   W12
 BYTE   N18  As1  v072
 BYTE   N24  Dn1
 BYTE   W12
 BYTE   N12  Cn1  v085
 BYTE   W12
 BYTE   N18  As1  v072
 BYTE   N12  Cn1  v085
 BYTE   W12
 BYTE   Cn1
 BYTE   W12
 BYTE   N18  As1  v072
 BYTE   N24  Dn1
 BYTE   N12  Cn1  v085
 BYTE   W12
 BYTE   Cn1
 BYTE   W12
 BYTE   PEND 
//  #07 //033   ----------------------------------------
 BYTE   PATT
  POIN2 Label_010262A0
//  #07 //034   ----------------------------------------
 BYTE   PATT
  POIN2 Label_010262CD
//  #07 //035   ----------------------------------------
 BYTE   PATT
  POIN2 Label_0102631D
//  #07 //036   ----------------------------------------
 BYTE   N12  Cn1  v085
 BYTE   N96  Cs2
 BYTE   W12
 BYTE   N12  Cn1
 BYTE   W12
 BYTE   N18  As1  v072
 BYTE   N24  Dn1
 BYTE   W12
 BYTE   N12  Cn1  v085
 BYTE   W12
 BYTE   N18  As1  v072
 BYTE   N12  Cn1  v085
 BYTE   W12
 BYTE   Cn1
 BYTE   W12
 BYTE   N18  As1  v072
 BYTE   N24  Dn1
 BYTE   N12  Cn1  v085
 BYTE   W12
 BYTE   Cn1
 BYTE   W12
//  #07 //037   ----------------------------------------
 BYTE   PATT
  POIN2 Label_010262A0
//  #07 //038   ----------------------------------------
 BYTE   PATT
  POIN2 Label_010262CD
//  #07 //039   ----------------------------------------
 BYTE   PATT
  POIN2 Label_0102634C
//  #07 //040   ----------------------------------------
Label_010263E2:
 BYTE   N96  Cs2  v085
 BYTE   N12  Cn1
 BYTE   W12
 BYTE   Cn1
 BYTE   W12
 BYTE   Ds2  v103
 BYTE   N24  Dn1  v072
 BYTE   W12
 BYTE   N12  An1  v108
 BYTE   N24  Ds2  v103
 BYTE   N12  Cn1  v085
 BYTE   W12
 BYTE   Cn1
 BYTE   W12
 BYTE   Ds2  v103
 BYTE   N12  Cn1  v085
 BYTE   W12
 BYTE   Fn1  v108
 BYTE   N24  Ds2  v103
 BYTE   N24  Dn1  v072
 BYTE   N12  Cn1  v085
 BYTE   W12
 BYTE   Cn1
 BYTE   W12
 BYTE   PEND 
//  #07 //041   ----------------------------------------
 BYTE   Cn1
 BYTE   N12  Ds2  v103
 BYTE   W12
 BYTE   Bn1  v108
 BYTE   N12  Cn1  v085
 BYTE   N24  Ds2  v103
 BYTE   W12
 BYTE   Dn1  v072
 BYTE   W12
 BYTE   N12  Cn1  v085
 BYTE   N12  Ds2  v103
 BYTE   W12
 BYTE   N24
 BYTE   N12  An1  v108
 BYTE   N12  Cn1  v085
 BYTE   W12
 BYTE   Cn1
 BYTE   W12
 BYTE   Fn1  v108
 BYTE   N12  Cn1  v085
 BYTE   N24  Dn1  v072
 BYTE   N24  Ds2  v103
 BYTE   W12
 BYTE   N12  Cn1  v085
 BYTE   W12
//  #07 //042   ----------------------------------------
 BYTE   Cn1
 BYTE   N24  Ds2  v103
 BYTE   W12
 BYTE   N12  Cn1  v085
 BYTE   W12
 BYTE   N24  Dn1  v072
 BYTE   N12  Ds2  v103
 BYTE   W12
 BYTE   An1  v108
 BYTE   N12  Cn1  v085
 BYTE   N24  Ds2  v103
 BYTE   W12
 BYTE   N12  Cn1  v085
 BYTE   W12
 BYTE   Cn1
 BYTE   N12  Ds2  v103
 BYTE   W12
 BYTE   Fn1  v108
 BYTE   N24  Ds2  v103
 BYTE   N24  Dn1  v072
 BYTE   N12  Cn1  v085
 BYTE   W12
 BYTE   Cn1
 BYTE   W12
//  #07 //043   ----------------------------------------
Label_01026473:
 BYTE   N12  Ds2  v103
 BYTE   N12  Cn1  v085
 BYTE   W12
 BYTE   Bn1  v108
 BYTE   N24  Ds2  v103
 BYTE   N12  Cn1  v085
 BYTE   W12
 BYTE   N24  Dn1  v072
 BYTE   W12
 BYTE   N12  Ds2  v103
 BYTE   N12  Cn1  v085
 BYTE   W12
 BYTE   An1  v108
 BYTE   N24  Ds2  v103
 BYTE   N12  Cn1  v085
 BYTE   W12
 BYTE   Cn1
 BYTE   W12
 BYTE   Fn1  v108
 BYTE   N24  Ds2  v103
 BYTE   N24  Dn1  v072
 BYTE   N12  Cn1  v085
 BYTE   W12
 BYTE   Cn1
 BYTE   W12
 BYTE   PEND 
//  #07 //044   ----------------------------------------
Label_010264A8:
 BYTE   N24  Ds2  v103
 BYTE   N12  Cn1  v085
 BYTE   W12
 BYTE   Cn1
 BYTE   W12
 BYTE   Ds2  v103
 BYTE   N24  Dn1  v072
 BYTE   W12
 BYTE   N12  An1  v108
 BYTE   N24  Ds2  v103
 BYTE   N12  Cn1  v085
 BYTE   W12
 BYTE   Cn1
 BYTE   W12
 BYTE   Ds2  v103
 BYTE   N12  Cn1  v085
 BYTE   W12
 BYTE   Fn1  v108
 BYTE   N24  Ds2  v103
 BYTE   N24  Dn1  v072
 BYTE   N12  Cn1  v085
 BYTE   W12
 BYTE   Cn1
 BYTE   W12
 BYTE   PEND 
//  #07 //045   ----------------------------------------
 BYTE   PATT
  POIN2 Label_01026473
//  #07 //046   ----------------------------------------
 BYTE   PATT
  POIN2 Label_010264A8
//  #07 //047   ----------------------------------------
 BYTE   N12  Ds2  v103
 BYTE   N12  Cn1  v085
 BYTE   W12
 BYTE   Bn1  v108
 BYTE   N24  Ds2  v103
 BYTE   N12  Cn1  v085
 BYTE   W12
 BYTE   N24  Dn1  v072
 BYTE   W12
 BYTE   N12  Ds2  v103
 BYTE   N12  Cn1  v085
 BYTE   W12
 BYTE   N24  Ds2  v103
 BYTE   N12  Cn1  v085
 BYTE   N12  An1  v108
 BYTE   W12
 BYTE   Cn1  v085
 BYTE   W12
 BYTE   N24  Ds2  v103
 BYTE   N24  Dn1  v072
 BYTE   N12  Cn1  v085
 BYTE   N12  Fn1  v108
 BYTE   W12
 BYTE   N06  Cn1  v085
 BYTE   W06
 BYTE   Cn1
 BYTE   W06
//  #07 //048   ----------------------------------------
 BYTE   PATT
  POIN2 Label_010263E2
//  #07 //049   ----------------------------------------
 BYTE   N12  Cn1  v085
 BYTE   N12  Ds2  v103
 BYTE   W12
 BYTE   Bn1  v108
 BYTE   N12  Cn1  v085
 BYTE   N24  Ds2  v103
 BYTE   W12
 BYTE   Dn1  v072
 BYTE   W12
 BYTE   N12  Cn1  v085
 BYTE   N12  Ds2  v103
 BYTE   W12
 BYTE   An1  v108
 BYTE   N12  Cn1  v085
 BYTE   N24  Ds2  v103
 BYTE   W12
 BYTE   N12  Cn1  v085
 BYTE   W12
 BYTE   Fn1  v108
 BYTE   N12  Cn1  v085
 BYTE   N24  Dn1  v072
 BYTE   N24  Ds2  v103
 BYTE   W12
 BYTE   N12  Cn1  v085
 BYTE   W12
//  #07 //050   ----------------------------------------
 BYTE   Cn1
 BYTE   N24  Ds2  v103
 BYTE   W12
 BYTE   N12  Cn1  v085
 BYTE   W12
 BYTE   N24  Dn1  v072
 BYTE   N12  Ds2  v103
 BYTE   W12
 BYTE   An1  v108
 BYTE   N12  Cn1  v085
 BYTE   N24  Ds2  v103
 BYTE   W12
 BYTE   N12  Cn1  v085
 BYTE   W12
 BYTE   Cn1
 BYTE   N12  Ds2  v103
 BYTE   W12
 BYTE   Fn1  v108
 BYTE   N12  Cn1  v085
 BYTE   N24  Dn1  v072
 BYTE   N24  Ds2  v103
 BYTE   W12
 BYTE   N12  Cn1  v085
 BYTE   W12
//  #07 //051   ----------------------------------------
 BYTE   Cn1
 BYTE   N12  Ds2  v103
 BYTE   W12
 BYTE   Bn1  v108
 BYTE   N24  Ds2  v103
 BYTE   N12  Cn1  v085
 BYTE   W12
 BYTE   N24  Dn1  v072
 BYTE   W12
 BYTE   N12  Ds2  v103
 BYTE   N12  Cn1  v085
 BYTE   W12
 BYTE   An1  v108
 BYTE   N24  Ds2  v103
 BYTE   N12  Cn1  v085
 BYTE   W12
 BYTE   Cn1
 BYTE   W12
 BYTE   Fn1  v108
 BYTE   N24  Ds2  v103
 BYTE   N24  Dn1  v072
 BYTE   N12  Cn1  v085
 BYTE   W12
 BYTE   Cn1
 BYTE   W12
//  #07 //052   ----------------------------------------
 BYTE   Cn1
 BYTE   N96  Cs2
 BYTE   W12
 BYTE   N12  Cn1
 BYTE   W12
 BYTE   N24  Dn1  v072
 BYTE   N12  Ds2  v103
 BYTE   W12
 BYTE   An1  v108
 BYTE   N12  Cn1  v085
 BYTE   N24  Ds2  v103
 BYTE   W12
 BYTE   N12  Cn1  v085
 BYTE   W12
 BYTE   Cn1
 BYTE   N12  Ds2  v103
 BYTE   W12
 BYTE   Fn1  v108
 BYTE   N12  Cn1  v085
 BYTE   N24  Dn1  v072
 BYTE   N24  Ds2  v103
 BYTE   W12
 BYTE   N12  Cn1  v085
 BYTE   W12
//  #07 //053   ----------------------------------------
 BYTE   Cn1
 BYTE   N12  Ds2  v103
 BYTE   W12
 BYTE   Bn1  v108
 BYTE   N24  Ds2  v103
 BYTE   N12  Cn1  v085
 BYTE   W12
 BYTE   N24  Dn1  v072
 BYTE   W12
 BYTE   N12  Ds2  v103
 BYTE   N12  Cn1  v085
 BYTE   W12
 BYTE   An1  v108
 BYTE   N24  Ds2  v103
 BYTE   N12  Cn1  v085
 BYTE   W12
 BYTE   Cn1
 BYTE   W12
 BYTE   Fn1  v108
 BYTE   N12  Cn1  v085
 BYTE   N24  Dn1  v072
 BYTE   N24  Ds2  v103
 BYTE   W12
 BYTE   N12  Cn1  v085
 BYTE   W12
//  #07 //054   ----------------------------------------
 BYTE   PATT
  POIN2 Label_010263E2
//  #07 //055   ----------------------------------------
 BYTE   N96  Cs2  v085
 BYTE   N12  Cn1
 BYTE   W12
 BYTE   Bn1  v108
 BYTE   N12  Cn1  v085
 BYTE   W12
 BYTE   N24  Dn1  v072
 BYTE   W12
 BYTE   N12  Cn1  v085
 BYTE   N12  Ds2  v103
 BYTE   W12
 BYTE   Cn1  v085
 BYTE   N24  Ds2  v103
 BYTE   N12  An1  v108
 BYTE   W12
 BYTE   Cn1  v085
 BYTE   W12
 BYTE   Cn1
 BYTE   N24  Dn1  v072
 BYTE   N96  Gn2  v085
 BYTE   N12  Fn1  v108
 BYTE   W12
 BYTE   N06  Cn1  v085
 BYTE   W06
 BYTE   Cn1
 BYTE   W06
//  #07 //056   ----------------------------------------
 BYTE   PATT
  POIN2 Label_010262F5
//  #07 //057   ----------------------------------------
 BYTE   PATT
  POIN2 Label_010262CD
//  #07 //058   ----------------------------------------
 BYTE   PATT
  POIN2 Label_0102631D
//  #07 //059   ----------------------------------------
 BYTE   PATT
  POIN2 Label_0102631D
//  #07 //060   ----------------------------------------
 BYTE   PATT
  POIN2 Label_010262F5
//  #07 //061   ----------------------------------------
 BYTE   PATT
  POIN2 Label_0102634C
//  #07 //062   ----------------------------------------
 BYTE   PATT
  POIN2 Label_01026376
//  #07 //063   ----------------------------------------
Label_0102667D:
 BYTE   N96  Cs2  v085
 BYTE   N12  Cn1
 BYTE   W12
 BYTE   Cn1
 BYTE   W12
 BYTE   N18  As1  v072
 BYTE   N24  Dn1
 BYTE   W12
 BYTE   N12  Cn1  v085
 BYTE   W12
 BYTE   N18  As1  v072
 BYTE   N12  Cn1  v085
 BYTE   W12
 BYTE   Cn1
 BYTE   W12
 BYTE   N18  As1  v072
 BYTE   N24  Dn1
 BYTE   N12  Cn1  v085
 BYTE   W12
 BYTE   N06
 BYTE   W06
 BYTE   Cn1
 BYTE   W06
 BYTE   PEND 
//  #07 //064   ----------------------------------------
Label_010266A6:
 BYTE   N96  Cs2  v085
 BYTE   N12  Cn1
 BYTE   W12
 BYTE   Cn1
 BYTE   W12
 BYTE   N24  Dn1  v072
 BYTE   N18  As1
 BYTE   W12
 BYTE   N12  Cn1  v085
 BYTE   W12
 BYTE   Cn1
 BYTE   N18  As1  v072
 BYTE   W12
 BYTE   N12  Cn1  v085
 BYTE   W12
 BYTE   Cn1
 BYTE   N24  Dn1  v072
 BYTE   N18  As1
 BYTE   W12
 BYTE   N12  Cn1  v085
 BYTE   W12
 BYTE   PEND 
//  #07 //065   ----------------------------------------
 BYTE   PATT
  POIN2 Label_0102634C
//  #07 //066   ----------------------------------------
 BYTE   N18  As1  v072
 BYTE   N12  Cn1  v085
 BYTE   W12
 BYTE   Cn1
 BYTE   W12
 BYTE   N24  Dn1  v072
 BYTE   N18  As1
 BYTE   W12
 BYTE   N12  Cn1  v085
 BYTE   W12
 BYTE   Cn1
 BYTE   N18  As1  v072
 BYTE   W12
 BYTE   N12  Cn1  v085
 BYTE   W12
 BYTE   N18  As1  v072
 BYTE   N24  Dn1
 BYTE   N12  Cn1  v085
 BYTE   W12
 BYTE   Cn1
 BYTE   W12
//  #07 //067   ----------------------------------------
 BYTE   PATT
  POIN2 Label_010262A0
//  #07 //068   ----------------------------------------
 BYTE   PATT
  POIN2 Label_01026376
//  #07 //069   ----------------------------------------
 BYTE   PATT
  POIN2 Label_010262A0
//  #07 //070   ----------------------------------------
 BYTE   PATT
  POIN2 Label_0102667D
//  #07 //071   ----------------------------------------
Label_0102670D:
 BYTE   N12  Cn1  v085
 BYTE   N96  Cs2
 BYTE   W12
 BYTE   N12  Cn1
 BYTE   W12
 BYTE   N24  Dn1  v072
 BYTE   N18  As1
 BYTE   W12
 BYTE   N12  Cn1  v085
 BYTE   W12
 BYTE   Cn1
 BYTE   N18  As1  v072
 BYTE   W12
 BYTE   N12  Cn1  v085
 BYTE   W12
 BYTE   Cn1
 BYTE   N24  Dn1  v072
 BYTE   N18  As1
 BYTE   W12
 BYTE   N06  Cn1  v085
 BYTE   W06
 BYTE   Cn1
 BYTE   W06
 BYTE   PEND 
//  #07 //072   ----------------------------------------
 BYTE   N12
 BYTE   N96  Cs2
 BYTE   W12
 BYTE   N12  Cn1
 BYTE   W12
 BYTE   N24  Dn1  v072
 BYTE   N18  As1
 BYTE   W12
 BYTE   N12  Cn1  v085
 BYTE   W12
 BYTE   Cn1
 BYTE   N18  As1  v072
 BYTE   W12
 BYTE   N12  Cn1  v085
 BYTE   W12
 BYTE   N18  As1  v072
 BYTE   N24  Dn1
 BYTE   N12  Cn1  v085
 BYTE   W12
 BYTE   N06
 BYTE   W06
 BYTE   Cn1
 BYTE   W06
//  #07 //073   ----------------------------------------
 BYTE   PATT
  POIN2 Label_0102670D
//  #07 //074   ----------------------------------------
 BYTE   PATT
  POIN2 Label_01026376
//  #07 //075   ----------------------------------------
 BYTE   PATT
  POIN2 Label_0102634C
//  #07 //076   ----------------------------------------
 BYTE   N18  As1  v072
 BYTE   N12  Cn1  v085
 BYTE   W12
 BYTE   Cn1
 BYTE   W12
 BYTE   N18  As1  v072
 BYTE   N24  Dn1
 BYTE   W12
 BYTE   N12  Cn1  v085
 BYTE   W12
 BYTE   N18  As1  v072
 BYTE   N12  Cn1  v085
 BYTE   W12
 BYTE   Cn1
 BYTE   W12
 BYTE   Cn1
 BYTE   N24  Dn1  v072
 BYTE   N18  As1
 BYTE   W12
 BYTE   N12  Cn1  v085
 BYTE   W12
//  #07 //077   ----------------------------------------
 BYTE   PATT
  POIN2 Label_0102634C
//  #07 //078   ----------------------------------------
 BYTE   PATT
  POIN2 Label_010266A6
//  #07 //079   ----------------------------------------
 BYTE   N12  Cn1  v085
 BYTE   N18  As1  v072
 BYTE   W12
 BYTE   N12  Cn1  v085
 BYTE   W12
 BYTE   N24  Dn1  v072
 BYTE   N18  As1
 BYTE   W12
 BYTE   N12  Cn1  v085
 BYTE   W12
 BYTE   Cn1
 BYTE   N18  As1  v072
 BYTE   W12
 BYTE   N12  Cn1  v085
 BYTE   W12
 BYTE   N18  As1  v072
 BYTE   N24  Dn1
 BYTE   N12  Cn1  v085
 BYTE   W12
 BYTE   Cn1
 BYTE   W12
//  #07 //080   ----------------------------------------
 BYTE   N96  Cs2
 BYTE   N12  Cn1
 BYTE   W12
 BYTE   Cn1
 BYTE   W12
 BYTE   N18  As1  v072
 BYTE   N24  Dn1
 BYTE   W12
 BYTE   N12  Cn1  v085
 BYTE   W12
 BYTE   N18  As1  v072
 BYTE   N12  Cn1  v085
 BYTE   W12
 BYTE   Cn1
 BYTE   W12
 BYTE   Cn1
 BYTE   N24  Dn1  v072
 BYTE   N18  As1
 BYTE   W12
 BYTE   N12  Cn1  v085
 BYTE   W12
//  #07 //081   ----------------------------------------
 BYTE   Cn1
 BYTE   N96  Cs2
 BYTE   W12
 BYTE   N12  Cn1
 BYTE   W12
 BYTE   N24  Dn1  v072
 BYTE   N18  As1
 BYTE   W12
 BYTE   N12  Cn1  v085
 BYTE   W12
 BYTE   Cn1
 BYTE   N18  As1  v072
 BYTE   W12
 BYTE   N12  Cn1  v085
 BYTE   W12
 BYTE   N24  Gn2
 BYTE   N24  Dn1  v072
 BYTE   N12  Cn1  v085
 BYTE   W12
 BYTE   N06
 BYTE   W06
 BYTE   Cn1
 BYTE   W06
//  #07 //082   ----------------------------------------
 BYTE   GoTo
  POIN2 Label_010260C3
 BYTE   FINE

//**************** Track 8 (Midi-Chn.7) ****************//

MegamanZXAdventSoulAblazeTak_008:
//  #08 //000   ----------------------------------------
 BYTE   KEYSH   MegamanZXAdventSoulAblazeTak_key+0
 BYTE   VOICE   1
 BYTE   VOL   81*MegamanZXAdventSoulAblazeTak_mvl/mxv
 BYTE   PAN   c_v-5
 BYTE   BENDR  12
 BYTE   W96
//  #08 //001   ----------------------------------------
 BYTE   W96
//  #08 //002   ----------------------------------------
 BYTE   W96
//  #08 //003   ----------------------------------------
 BYTE   W96
//  #08 //004   ----------------------------------------
 BYTE   W96
//  #08 //005   ----------------------------------------
 BYTE   W96
//  #08 //006   ----------------------------------------
 BYTE   W96
//  #08 //007   ----------------------------------------
 BYTE   W96
//  #08 //008   ----------------------------------------
Label_01004246:
 BYTE   W96
//  #08 //009   ----------------------------------------
 BYTE   W96
//  #08 //010   ----------------------------------------
 BYTE   W96
//  #08 //011   ----------------------------------------
 BYTE   W96
//  #08 //012   ----------------------------------------
 BYTE   W96
//  #08 //013   ----------------------------------------
 BYTE   W96
//  #08 //014   ----------------------------------------
 BYTE   W96
//  #08 //015   ----------------------------------------
 BYTE   W96
//  #08 //016   ----------------------------------------
 BYTE   W96
//  #08 //017   ----------------------------------------
 BYTE   W96
//  #08 //018   ----------------------------------------
 BYTE   W96
//  #08 //019   ----------------------------------------
 BYTE   W96
//  #08 //020   ----------------------------------------
 BYTE   W96
//  #08 //021   ----------------------------------------
 BYTE   W96
//  #08 //022   ----------------------------------------
 BYTE   W96
//  #08 //023   ----------------------------------------
 BYTE   W96
//  #08 //024   ----------------------------------------
 BYTE   W96
//  #08 //025   ----------------------------------------
 BYTE   W96
//  #08 //026   ----------------------------------------
 BYTE   W96
//  #08 //027   ----------------------------------------
 BYTE   W96
//  #08 //028   ----------------------------------------
 BYTE   W96
//  #08 //029   ----------------------------------------
 BYTE   W96
//  #08 //030   ----------------------------------------
 BYTE   W96
//  #08 //031   ----------------------------------------
 BYTE   W96
//  #08 //032   ----------------------------------------
 BYTE   W96
//  #08 //033   ----------------------------------------
 BYTE   W96
//  #08 //034   ----------------------------------------
 BYTE   W96
//  #08 //035   ----------------------------------------
 BYTE   W96
//  #08 //036   ----------------------------------------
 BYTE   W96
//  #08 //037   ----------------------------------------
 BYTE   W96
//  #08 //038   ----------------------------------------
 BYTE   W96
//  #08 //039   ----------------------------------------
 BYTE   W96
//  #08 //040   ----------------------------------------
Label_01004266:
 BYTE   N36  As4  v078
 BYTE   W36
 BYTE   Gs4
 BYTE   W36
 BYTE   N24  Fs4
 BYTE   W24
 BYTE   PEND 
//  #08 //041   ----------------------------------------
Label_01004270:
 BYTE   N36  Fn4  v078
 BYTE   W36
 BYTE   Fs4
 BYTE   W36
 BYTE   N24  Gs4
 BYTE   W24
 BYTE   PEND 
//  #08 //042   ----------------------------------------
Label_0100427A:
 BYTE   N68  Fn4  v078  gtp1
 BYTE   W72
 BYTE   N12
 BYTE   W12
 BYTE   Fs4
 BYTE   W12
 BYTE   PEND 
//  #08 //043   ----------------------------------------
Label_01004284:
 BYTE   N24  Gs4  v078
 BYTE   W24
 BYTE   Fs4
 BYTE   W24
 BYTE   Fn4
 BYTE   W24
 BYTE   Fs4
 BYTE   W24
 BYTE   PEND 
//  #08 //044   ----------------------------------------
Label_0100428F:
 BYTE   N36  Fn4  v078
 BYTE   W36
 BYTE   N78  Ds4
 BYTE   W60
 BYTE   PEND 
//  #08 //045   ----------------------------------------
Label_01004297:
 BYTE   W24
 BYTE   N24  As3  v078
 BYTE   W24
 BYTE   Ds4
 BYTE   W24
 BYTE   Fn4
 BYTE   W24
 BYTE   PEND 
//  #08 //046   ----------------------------------------
Label_010042A1:
 BYTE   N36  Fs4  v078
 BYTE   W36
 BYTE   Fn4
 BYTE   W36
 BYTE   N24  Ds4
 BYTE   W24
 BYTE   PEND 
//  #08 //047   ----------------------------------------
 BYTE   PATT
  POIN2 Label_01004270
//  #08 //048   ----------------------------------------
 BYTE   PATT
  POIN2 Label_01004266
//  #08 //049   ----------------------------------------
 BYTE   PATT
  POIN2 Label_01004270
//  #08 //050   ----------------------------------------
 BYTE   PATT
  POIN2 Label_0100427A
//  #08 //051   ----------------------------------------
 BYTE   PATT
  POIN2 Label_01004284
//  #08 //052   ----------------------------------------
 BYTE   PATT
  POIN2 Label_0100428F
//  #08 //053   ----------------------------------------
 BYTE   PATT
  POIN2 Label_01004297
//  #08 //054   ----------------------------------------
 BYTE   PATT
  POIN2 Label_010042A1
//  #08 //055   ----------------------------------------
 BYTE   PATT
  POIN2 Label_01004270
//  #08 //056   ----------------------------------------
 BYTE   W96
//  #08 //057   ----------------------------------------
 BYTE   W96
//  #08 //058   ----------------------------------------
 BYTE   W96
//  #08 //059   ----------------------------------------
 BYTE   W96
//  #08 //060   ----------------------------------------
 BYTE   W96
//  #08 //061   ----------------------------------------
 BYTE   W96
//  #08 //062   ----------------------------------------
 BYTE   W96
//  #08 //063   ----------------------------------------
 BYTE   W96
//  #08 //064   ----------------------------------------
 BYTE   W96
//  #08 //065   ----------------------------------------
 BYTE   W96
//  #08 //066   ----------------------------------------
 BYTE   W96
//  #08 //067   ----------------------------------------
 BYTE   W96
//  #08 //068   ----------------------------------------
 BYTE   W96
//  #08 //069   ----------------------------------------
 BYTE   W96
//  #08 //070   ----------------------------------------
 BYTE   W96
//  #08 //071   ----------------------------------------
 BYTE   W96
//  #08 //072   ----------------------------------------
 BYTE   W96
//  #08 //073   ----------------------------------------
 BYTE   W96
//  #08 //074   ----------------------------------------
 BYTE   W96
//  #08 //075   ----------------------------------------
 BYTE   W96
//  #08 //076   ----------------------------------------
 BYTE   W96
//  #08 //077   ----------------------------------------
 BYTE   W96
//  #08 //078   ----------------------------------------
 BYTE   W96
//  #08 //079   ----------------------------------------
 BYTE   W96
//  #08 //080   ----------------------------------------
 BYTE   W96
//  #08 //081   ----------------------------------------
 BYTE   W96
//  #08 //082   ----------------------------------------
 BYTE   GoTo
  POIN2 Label_01004246
 BYTE   FINE

//******************************************************//
	ALIGN 4

MegamanZXAdventSoulAblazeTak:
	BYTE	8	// NumTrks
	BYTE	0	// NumBlks
	BYTE	MegamanZXAdventSoulAblazeTak_pri	// Priority
	BYTE	MegamanZXAdventSoulAblazeTak_rev	// Reverb.
    
	POIN2	MegamanZXAdventSoulAblazeTak_grp
    
	POIN2	MegamanZXAdventSoulAblazeTak_001
	POIN2	MegamanZXAdventSoulAblazeTak_002
	POIN2	MegamanZXAdventSoulAblazeTak_003
	POIN2	MegamanZXAdventSoulAblazeTak_004
	POIN2	MegamanZXAdventSoulAblazeTak_005
	POIN2	MegamanZXAdventSoulAblazeTak_006
	POIN2	MegamanZXAdventSoulAblazeTak_007
	POIN2	MegamanZXAdventSoulAblazeTak_008

	
