//Event file generated from Sappy .s format.
	#include "MPlayDef.event"

	#define	MegamanZXDoomsdayDeviceAreaNTak_grp  voicegroup000
	#define	MegamanZXDoomsdayDeviceAreaNTak_pri  0
	#define	MegamanZXDoomsdayDeviceAreaNTak_rev  0
	#define	MegamanZXDoomsdayDeviceAreaNTak_mvl  127
	#define	MegamanZXDoomsdayDeviceAreaNTak_key  0
	#define	MegamanZXDoomsdayDeviceAreaNTak_tbs  1
	#define	MegamanZXDoomsdayDeviceAreaNTak_exg  0
	#define	MegamanZXDoomsdayDeviceAreaNTak_cmp  1

	// .rodata
	//	MegamanZXDoomsdayDeviceAreaNTak
	ALIGN 4


//**************** Track 1 (Midi-Chn.0) ****************//

MegamanZXDoomsdayDeviceAreaNTak_001:
//  #01 //000   ----------------------------------------
 BYTE   KEYSH   MegamanZXDoomsdayDeviceAreaNTak_key+0
 BYTE   TEMPO   118*MegamanZXDoomsdayDeviceAreaNTak_tbs/2
 BYTE   VOICE   7
 BYTE   VOL   33*MegamanZXDoomsdayDeviceAreaNTak_mvl/mxv
 BYTE   N06  Cs2  v088
 BYTE   BENDR  12
 BYTE   W06
 BYTE   N06  Ds2
 BYTE   W06
 BYTE   Fs2
 BYTE   W06
 BYTE   Gs2
 BYTE   W06
 BYTE   Ds2
 BYTE   W06
 BYTE   Fn2
 BYTE   W06
 BYTE   Gs2
 BYTE   W06
 BYTE   PAN   c_v+32
 BYTE   N06  Cs3
 BYTE   W06
 BYTE   PAN   c_v+0
 BYTE   N06  Ds2
 BYTE   W06
 BYTE   Fs2
 BYTE   W06
 BYTE   PAN   c_v-32
 BYTE   N06  Cn3
 BYTE   W06
 BYTE   PAN   c_v+0
 BYTE   N06  Cs2
 BYTE   W06
 BYTE   PAN   c_v-32
 BYTE   N06  Fs2
 BYTE   W06
 BYTE   Gs2
 BYTE   W06
 BYTE   PAN   c_v+0
 BYTE   N06  Ds2
 BYTE   W06
 BYTE   Fs2
 BYTE   W06
//  #01 //001   ----------------------------------------
Label_01003063:
 BYTE   N06  Cs2  v088
 BYTE   W06
 BYTE   Ds2
 BYTE   W06
 BYTE   Fs2
 BYTE   W06
 BYTE   Gs2
 BYTE   W06
 BYTE   Ds2
 BYTE   W06
 BYTE   Fn2
 BYTE   W06
 BYTE   Gs2
 BYTE   W06
 BYTE   PAN   c_v+32
 BYTE   N06  Cs3
 BYTE   W06
 BYTE   PAN   c_v+0
 BYTE   N06  Ds2
 BYTE   W06
 BYTE   Fs2
 BYTE   W06
 BYTE   PAN   c_v-32
 BYTE   N06  Cn3
 BYTE   W06
 BYTE   PAN   c_v+0
 BYTE   N06  Cs2
 BYTE   W06
 BYTE   PAN   c_v-32
 BYTE   N06  Fs2
 BYTE   W06
 BYTE   Gs2
 BYTE   W06
 BYTE   PAN   c_v+0
 BYTE   N06  Ds2
 BYTE   W06
 BYTE   Fs2
 BYTE   W06
 BYTE   PEND 
//  #01 //002   ----------------------------------------
 BYTE   PATT
  POIN2 Label_01003063
//  #01 //003   ----------------------------------------
 BYTE   PATT
  POIN2 Label_01003063
//  #01 //004   ----------------------------------------
Label_010030A2:
 BYTE   N06  Cs2  v088
 BYTE   W06
 BYTE   Ds2
 BYTE   W06
 BYTE   Fs2
 BYTE   W06
 BYTE   Gs2
 BYTE   W06
 BYTE   Ds2
 BYTE   W06
 BYTE   Fn2
 BYTE   W06
 BYTE   Gs2
 BYTE   W06
 BYTE   PAN   c_v+32
 BYTE   N06  Cs3
 BYTE   W06
 BYTE   PAN   c_v+0
 BYTE   N06  Ds2
 BYTE   W06
 BYTE   Fs2
 BYTE   W06
 BYTE   PAN   c_v-32
 BYTE   N06  Cn3
 BYTE   W06
 BYTE   PAN   c_v+0
 BYTE   N06  Cs2
 BYTE   W06
 BYTE   PAN   c_v-32
 BYTE   N06  Fs2
 BYTE   W06
 BYTE   Gs2
 BYTE   W06
 BYTE   PAN   c_v+0
 BYTE   N06  Ds2
 BYTE   W06
 BYTE   Fs2
 BYTE   W06
//  #01 //005   ----------------------------------------
 BYTE   PATT
  POIN2 Label_01003063
//  #01 //006   ----------------------------------------
 BYTE   PATT
  POIN2 Label_01003063
//  #01 //007   ----------------------------------------
 BYTE   PATT
  POIN2 Label_01003063
//  #01 //008   ----------------------------------------
 BYTE   PATT
  POIN2 Label_01003063
//  #01 //009   ----------------------------------------
 BYTE   PATT
  POIN2 Label_01003063
//  #01 //010   ----------------------------------------
 BYTE   PATT
  POIN2 Label_01003063
//  #01 //011   ----------------------------------------
 BYTE   PATT
  POIN2 Label_01003063
//  #01 //012   ----------------------------------------
Label_010030F9:
 BYTE   N06  Cs3  v088
 BYTE   W06
 BYTE   Ds3
 BYTE   W06
 BYTE   Fs3
 BYTE   W06
 BYTE   Gs3
 BYTE   W06
 BYTE   Ds3
 BYTE   W06
 BYTE   Fn3
 BYTE   W06
 BYTE   Gs3
 BYTE   W06
 BYTE   PAN   c_v+32
 BYTE   N06  Cs4
 BYTE   W06
 BYTE   PAN   c_v+0
 BYTE   N06  Ds3
 BYTE   W06
 BYTE   Fs3
 BYTE   W06
 BYTE   PAN   c_v-32
 BYTE   N06  Cn4
 BYTE   W06
 BYTE   PAN   c_v+0
 BYTE   N06  Cs3
 BYTE   W06
 BYTE   PAN   c_v-32
 BYTE   N06  Fs3
 BYTE   W06
 BYTE   Gs3
 BYTE   W06
 BYTE   PAN   c_v+0
 BYTE   N06  Ds3
 BYTE   W06
 BYTE   Fs3
 BYTE   W06
 BYTE   PEND 
//  #01 //013   ----------------------------------------
 BYTE   PATT
  POIN2 Label_010030F9
//  #01 //014   ----------------------------------------
 BYTE   PATT
  POIN2 Label_010030F9
//  #01 //015   ----------------------------------------
 BYTE   PATT
  POIN2 Label_010030F9
//  #01 //016   ----------------------------------------
 BYTE   PATT
  POIN2 Label_010030F9
//  #01 //017   ----------------------------------------
 BYTE   PATT
  POIN2 Label_010030F9
//  #01 //018   ----------------------------------------
 BYTE   PATT
  POIN2 Label_010030F9
//  #01 //019   ----------------------------------------
 BYTE   PATT
  POIN2 Label_010030F9
//  #01 //020   ----------------------------------------
 BYTE   PATT
  POIN2 Label_010030F9
//  #01 //021   ----------------------------------------
 BYTE   PATT
  POIN2 Label_010030F9
//  #01 //022   ----------------------------------------
 BYTE   PATT
  POIN2 Label_010030F9
//  #01 //023   ----------------------------------------
 BYTE   PATT
  POIN2 Label_01003063
//  #01 //024   ----------------------------------------
 BYTE   PATT
  POIN2 Label_01003063
//  #01 //025   ----------------------------------------
 BYTE   PATT
  POIN2 Label_01003063
//  #01 //026   ----------------------------------------
 BYTE   PATT
  POIN2 Label_01003063
//  #01 //027   ----------------------------------------
 BYTE   PATT
  POIN2 Label_01003063
//  #01 //028   ----------------------------------------
 BYTE   PATT
  POIN2 Label_01003063
//  #01 //029   ----------------------------------------
 BYTE   PATT
  POIN2 Label_01003063
//  #01 //030   ----------------------------------------
 BYTE   PATT
  POIN2 Label_01003063
//  #01 //031   ----------------------------------------
 BYTE   PATT
  POIN2 Label_01003063
//  #01 //032   ----------------------------------------
 BYTE   PATT
  POIN2 Label_01003063
//  #01 //033   ----------------------------------------
 BYTE   PATT
  POIN2 Label_01003063
//  #01 //034   ----------------------------------------
 BYTE   PATT
  POIN2 Label_01003063
//  #01 //035   ----------------------------------------
 BYTE   PATT
  POIN2 Label_01003063
//  #01 //036   ----------------------------------------
 BYTE   PATT
  POIN2 Label_01003063
//  #01 //037   ----------------------------------------
 BYTE   PATT
  POIN2 Label_01003063
//  #01 //038   ----------------------------------------
 BYTE   GoTo
  POIN2 Label_010030A2
 BYTE   FINE

//**************** Track 2 (Midi-Chn.1) ****************//

MegamanZXDoomsdayDeviceAreaNTak_002:
//  #02 //000   ----------------------------------------
 BYTE   KEYSH   MegamanZXDoomsdayDeviceAreaNTak_key+0
 BYTE   VOICE   34
 BYTE   VOL   50*MegamanZXDoomsdayDeviceAreaNTak_mvl/mxv
 BYTE   N06  Cs1  v088
 BYTE   BENDR  12
 BYTE   W06
 BYTE   N18  Ds1
 BYTE   W18
 BYTE   N12
 BYTE   W12
 BYTE   N06  Cs1
 BYTE   W06
 BYTE   N12  Fs1
 BYTE   W12
 BYTE   N06  Cs1
 BYTE   W06
 BYTE   N12  Fn1
 BYTE   W12
 BYTE   N06  Ds1
 BYTE   W06
 BYTE   N18  Cs1
 BYTE   W18
//  #02 //001   ----------------------------------------
Label_01003D73:
 BYTE   N06  Cs1  v088
 BYTE   W06
 BYTE   N18  Ds1
 BYTE   W18
 BYTE   N12
 BYTE   W12
 BYTE   N06  Cs1
 BYTE   W06
 BYTE   N12  Fs1
 BYTE   W12
 BYTE   N06  Cs1
 BYTE   W06
 BYTE   N12  Fn1
 BYTE   W12
 BYTE   N06  Ds1
 BYTE   W06
 BYTE   N18  Cs1
 BYTE   W18
 BYTE   PEND 
//  #02 //002   ----------------------------------------
 BYTE   PATT
  POIN2 Label_01003D73
//  #02 //003   ----------------------------------------
Label_01003D94:
 BYTE   N06  Cs1  v088
 BYTE   W06
 BYTE   N18  Ds1
 BYTE   W18
 BYTE   N12
 BYTE   W12
 BYTE   N06  Cs1
 BYTE   W06
 BYTE   N12  Fs1
 BYTE   W12
 BYTE   N06  Cs1
 BYTE   W06
 BYTE   N12  Fn1
 BYTE   W12
 BYTE   N06  Ds1
 BYTE   W06
 BYTE   N18  Gs1
 BYTE   W18
 BYTE   PEND 
//  #02 //004   ----------------------------------------
Label_01003DB0:
 BYTE   N06  Cs1  v088
 BYTE   W06
 BYTE   N18  Ds1
 BYTE   W18
 BYTE   N12
 BYTE   W12
 BYTE   N06  Cs1
 BYTE   W06
 BYTE   N12  Fs1
 BYTE   W12
 BYTE   N06  Cs1
 BYTE   W06
 BYTE   N12  Fn1
 BYTE   W12
 BYTE   N06  Ds1
 BYTE   W06
 BYTE   N18  Cs1
 BYTE   W18
//  #02 //005   ----------------------------------------
 BYTE   PATT
  POIN2 Label_01003D73
//  #02 //006   ----------------------------------------
 BYTE   PATT
  POIN2 Label_01003D73
//  #02 //007   ----------------------------------------
 BYTE   PATT
  POIN2 Label_01003D94
//  #02 //008   ----------------------------------------
 BYTE   PATT
  POIN2 Label_01003D73
//  #02 //009   ----------------------------------------
 BYTE   PATT
  POIN2 Label_01003D73
//  #02 //010   ----------------------------------------
 BYTE   PATT
  POIN2 Label_01003D73
//  #02 //011   ----------------------------------------
 BYTE   PATT
  POIN2 Label_01003D94
//  #02 //012   ----------------------------------------
Label_01003DEE:
 BYTE   N06  Bn0  v088
 BYTE   W06
 BYTE   Bn0
 BYTE   W06
 BYTE   Fs1
 BYTE   W06
 BYTE   Bn0
 BYTE   W06
 BYTE   Fs1
 BYTE   W06
 BYTE   Bn0
 BYTE   W06
 BYTE   Bn0
 BYTE   W06
 BYTE   Bn0
 BYTE   W06
 BYTE   Bn0
 BYTE   W06
 BYTE   Bn0
 BYTE   W06
 BYTE   Ds1
 BYTE   W06
 BYTE   Bn0
 BYTE   W06
 BYTE   Fs1
 BYTE   W06
 BYTE   Bn0
 BYTE   W06
 BYTE   Ds1
 BYTE   W06
 BYTE   Fs1
 BYTE   W06
 BYTE   PEND 
//  #02 //013   ----------------------------------------
Label_01003E11:
 BYTE   N06  Cs1  v088
 BYTE   W06
 BYTE   Cs1
 BYTE   W06
 BYTE   Gs1
 BYTE   W06
 BYTE   Cs1
 BYTE   W06
 BYTE   Gs1
 BYTE   W06
 BYTE   Cs1
 BYTE   W06
 BYTE   Cs1
 BYTE   W06
 BYTE   Cs1
 BYTE   W06
 BYTE   Cs1
 BYTE   W06
 BYTE   Cs1
 BYTE   W06
 BYTE   Fn1
 BYTE   W06
 BYTE   Cs1
 BYTE   W06
 BYTE   Gs1
 BYTE   W06
 BYTE   Cs1
 BYTE   W06
 BYTE   Fn1
 BYTE   W06
 BYTE   Gs1
 BYTE   W06
 BYTE   PEND 
//  #02 //014   ----------------------------------------
Label_01003E34:
 BYTE   N06  Ds1  v088
 BYTE   W06
 BYTE   Ds1
 BYTE   W06
 BYTE   As1
 BYTE   W06
 BYTE   Ds1
 BYTE   W06
 BYTE   As1
 BYTE   W06
 BYTE   Ds1
 BYTE   W06
 BYTE   Ds1
 BYTE   W06
 BYTE   Ds1
 BYTE   W06
 BYTE   Ds1
 BYTE   W06
 BYTE   Ds1
 BYTE   W06
 BYTE   Fs1
 BYTE   W06
 BYTE   Ds1
 BYTE   W06
 BYTE   As1
 BYTE   W06
 BYTE   Ds1
 BYTE   W06
 BYTE   Fs1
 BYTE   W06
 BYTE   As1
 BYTE   W06
 BYTE   PEND 
//  #02 //015   ----------------------------------------
 BYTE   PATT
  POIN2 Label_01003E11
//  #02 //016   ----------------------------------------
 BYTE   PATT
  POIN2 Label_01003DEE
//  #02 //017   ----------------------------------------
 BYTE   PATT
  POIN2 Label_01003E11
//  #02 //018   ----------------------------------------
 BYTE   PATT
  POIN2 Label_01003E34
//  #02 //019   ----------------------------------------
 BYTE   PATT
  POIN2 Label_01003E11
//  #02 //020   ----------------------------------------
 BYTE   PATT
  POIN2 Label_01003DEE
//  #02 //021   ----------------------------------------
 BYTE   PATT
  POIN2 Label_01003E11
//  #02 //022   ----------------------------------------
 BYTE   PATT
  POIN2 Label_01003D73
//  #02 //023   ----------------------------------------
 BYTE   PATT
  POIN2 Label_01003D94
//  #02 //024   ----------------------------------------
 BYTE   PATT
  POIN2 Label_01003D73
//  #02 //025   ----------------------------------------
 BYTE   PATT
  POIN2 Label_01003D73
//  #02 //026   ----------------------------------------
 BYTE   PATT
  POIN2 Label_01003D73
//  #02 //027   ----------------------------------------
 BYTE   PATT
  POIN2 Label_01003D94
//  #02 //028   ----------------------------------------
 BYTE   PATT
  POIN2 Label_01003D73
//  #02 //029   ----------------------------------------
 BYTE   PATT
  POIN2 Label_01003D73
//  #02 //030   ----------------------------------------
 BYTE   PATT
  POIN2 Label_01003D73
//  #02 //031   ----------------------------------------
 BYTE   PATT
  POIN2 Label_01003D94
//  #02 //032   ----------------------------------------
 BYTE   PATT
  POIN2 Label_01003DEE
//  #02 //033   ----------------------------------------
 BYTE   PATT
  POIN2 Label_01003E11
//  #02 //034   ----------------------------------------
 BYTE   PATT
  POIN2 Label_01003D73
//  #02 //035   ----------------------------------------
 BYTE   PATT
  POIN2 Label_01003D73
//  #02 //036   ----------------------------------------
 BYTE   PATT
  POIN2 Label_01003D73
//  #02 //037   ----------------------------------------
 BYTE   PATT
  POIN2 Label_01003D94
//  #02 //038   ----------------------------------------
 BYTE   GoTo
  POIN2 Label_01003DB0
 BYTE   FINE

//**************** Track 3 (Midi-Chn.2) ****************//

MegamanZXDoomsdayDeviceAreaNTak_003:
//  #03 //000   ----------------------------------------
 BYTE   KEYSH   MegamanZXDoomsdayDeviceAreaNTak_key+0
 BYTE   VOICE   30
 BYTE   PAN   c_v-42
 BYTE   VOL   50*MegamanZXDoomsdayDeviceAreaNTak_mvl/mxv
 BYTE   N06  Cs2  v088
 BYTE   BENDR  12
 BYTE   W06
 BYTE   N18  Ds2
 BYTE   W18
 BYTE   N12
 BYTE   W12
 BYTE   N06  Cs2
 BYTE   W06
 BYTE   N12  Fs2
 BYTE   W12
 BYTE   N06  Cs2
 BYTE   W06
 BYTE   N12  Fn2
 BYTE   W12
 BYTE   N06  Ds2
 BYTE   W06
 BYTE   N18  Cs2
 BYTE   W18
//  #03 //001   ----------------------------------------
Label_010005F5:
 BYTE   N06  Cs2  v088
 BYTE   W06
 BYTE   N18  Ds2
 BYTE   W18
 BYTE   N12
 BYTE   W12
 BYTE   N06  Cs2
 BYTE   W06
 BYTE   N12  Fs2
 BYTE   W12
 BYTE   N06  Cs2
 BYTE   W06
 BYTE   N12  Fn2
 BYTE   W12
 BYTE   N06  Ds2
 BYTE   W06
 BYTE   N18  Cs2
 BYTE   W18
 BYTE   PEND 
//  #03 //002   ----------------------------------------
 BYTE   PATT
  POIN2 Label_010005F5
//  #03 //003   ----------------------------------------
Label_01000616:
 BYTE   N06  Cs2  v088
 BYTE   W06
 BYTE   N18  Ds2
 BYTE   W18
 BYTE   N12
 BYTE   W12
 BYTE   N06  Cs2
 BYTE   W06
 BYTE   N12  Fs2
 BYTE   W12
 BYTE   N06  Cs2
 BYTE   W06
 BYTE   N12  Fn2
 BYTE   W12
 BYTE   N06  Ds2
 BYTE   W06
 BYTE   N18  Gs2
 BYTE   W18
 BYTE   PEND 
//  #03 //004   ----------------------------------------
Label_01000632:
 BYTE   N06  Cs2  v088
 BYTE   W06
 BYTE   N18  Ds2
 BYTE   W18
 BYTE   N12
 BYTE   W12
 BYTE   N06  Cs2
 BYTE   W06
 BYTE   N12  Fs2
 BYTE   W12
 BYTE   N06  Cs2
 BYTE   W06
 BYTE   N12  Fn2
 BYTE   W12
 BYTE   N06  Ds2
 BYTE   W06
 BYTE   N18  Cs2
 BYTE   W18
//  #03 //005   ----------------------------------------
 BYTE   PATT
  POIN2 Label_010005F5
//  #03 //006   ----------------------------------------
 BYTE   PATT
  POIN2 Label_010005F5
//  #03 //007   ----------------------------------------
 BYTE   PATT
  POIN2 Label_01000616
//  #03 //008   ----------------------------------------
 BYTE   PATT
  POIN2 Label_010005F5
//  #03 //009   ----------------------------------------
 BYTE   PATT
  POIN2 Label_010005F5
//  #03 //010   ----------------------------------------
 BYTE   PATT
  POIN2 Label_010005F5
//  #03 //011   ----------------------------------------
 BYTE   PATT
  POIN2 Label_01000616
//  #03 //012   ----------------------------------------
 BYTE   W96
//  #03 //013   ----------------------------------------
 BYTE   W96
//  #03 //014   ----------------------------------------
 BYTE   W96
//  #03 //015   ----------------------------------------
 BYTE   W96
//  #03 //016   ----------------------------------------
 BYTE   W96
//  #03 //017   ----------------------------------------
 BYTE   W96
//  #03 //018   ----------------------------------------
 BYTE   W96
//  #03 //019   ----------------------------------------
 BYTE   W96
//  #03 //020   ----------------------------------------
 BYTE   W96
//  #03 //021   ----------------------------------------
 BYTE   W96
//  #03 //022   ----------------------------------------
 BYTE   PATT
  POIN2 Label_010005F5
//  #03 //023   ----------------------------------------
 BYTE   N06  Cs2  v088
 BYTE   W06
 BYTE   Ds2
 BYTE   W06
 BYTE   Fs2
 BYTE   W06
 BYTE   Gs2
 BYTE   W06
 BYTE   Ds2
 BYTE   W06
 BYTE   Fs2
 BYTE   W06
 BYTE   Gs2
 BYTE   W12
 BYTE   Ds2
 BYTE   W06
 BYTE   Fs2
 BYTE   W12
 BYTE   Ds2
 BYTE   W06
 BYTE   Fs2
 BYTE   W06
 BYTE   Gs2
 BYTE   W06
 BYTE   Ds2
 BYTE   W06
 BYTE   Fs2
 BYTE   W06
//  #03 //024   ----------------------------------------
 BYTE   PATT
  POIN2 Label_010005F5
//  #03 //025   ----------------------------------------
 BYTE   PATT
  POIN2 Label_010005F5
//  #03 //026   ----------------------------------------
 BYTE   PATT
  POIN2 Label_010005F5
//  #03 //027   ----------------------------------------
 BYTE   PATT
  POIN2 Label_01000616
//  #03 //028   ----------------------------------------
 BYTE   PATT
  POIN2 Label_010005F5
//  #03 //029   ----------------------------------------
 BYTE   PATT
  POIN2 Label_010005F5
//  #03 //030   ----------------------------------------
 BYTE   PATT
  POIN2 Label_010005F5
//  #03 //031   ----------------------------------------
 BYTE   PATT
  POIN2 Label_01000616
//  #03 //032   ----------------------------------------
 BYTE   N96  Bn1  v088
 BYTE   W96
//  #03 //033   ----------------------------------------
 BYTE   Cs2
 BYTE   W96
//  #03 //034   ----------------------------------------
 BYTE   PATT
  POIN2 Label_010005F5
//  #03 //035   ----------------------------------------
 BYTE   PATT
  POIN2 Label_010005F5
//  #03 //036   ----------------------------------------
 BYTE   PATT
  POIN2 Label_010005F5
//  #03 //037   ----------------------------------------
 BYTE   PATT
  POIN2 Label_01000616
//  #03 //038   ----------------------------------------
 BYTE   GoTo
  POIN2 Label_01000632
 BYTE   FINE

//**************** Track 4 (Midi-Chn.3) ****************//

MegamanZXDoomsdayDeviceAreaNTak_004:
//  #04 //000   ----------------------------------------
 BYTE   KEYSH   MegamanZXDoomsdayDeviceAreaNTak_key+0
 BYTE   VOICE   110
 BYTE   VOL   56*MegamanZXDoomsdayDeviceAreaNTak_mvl/mxv
 BYTE   N96  As2  v063
 BYTE   N96  Ds3  v088
 BYTE   BENDR  12
 BYTE   W96
//  #04 //001   ----------------------------------------
Label_0100412F:
 BYTE   N96  As2  v063
 BYTE   N96  Fn3  v088
 BYTE   W96
 BYTE   PEND 
//  #04 //002   ----------------------------------------
Label_01004137:
 BYTE   N96  As2  v063
 BYTE   N96  Fs3  v088
 BYTE   W96
 BYTE   PEND 
//  #04 //003   ----------------------------------------
Label_0100413F:
 BYTE   N96  As2  v063
 BYTE   N96  Gs3  v088
 BYTE   W96
 BYTE   PEND 
//  #04 //004   ----------------------------------------
Label_01004147:
 BYTE   N96  Ds2  v063
 BYTE   N96  As2
 BYTE   TIE  Ds3
 BYTE   W96
//  #04 //005   ----------------------------------------
Label_0100414F:
 BYTE   N96  As2  v063
 BYTE   N96  Fn2
 BYTE   W96
 BYTE   PEND 
//  #04 //006   ----------------------------------------
Label_01004156:
 BYTE   N96  As2  v063
 BYTE   N96  Fs2
 BYTE   W96
 BYTE   PEND 
//  #04 //007   ----------------------------------------
Label_0100415D:
 BYTE   N96  As2  v063
 BYTE   N96  Gs2
 BYTE   W96
 BYTE   PEND 
//  #04 //008   ----------------------------------------
 BYTE   As2
 BYTE   N96  Ds2
 BYTE   W96
//  #04 //009   ----------------------------------------
 BYTE   PATT
  POIN2 Label_0100414F
//  #04 //010   ----------------------------------------
 BYTE   PATT
  POIN2 Label_01004156
//  #04 //011   ----------------------------------------
 BYTE   PATT
  POIN2 Label_0100415D
//  #04 //012   ----------------------------------------
 BYTE   EOT
 BYTE   Ds3
 BYTE   N96  Ds3  v088
 BYTE   N96  Fs2  v063
 BYTE   N96  Bn1
 BYTE   W96
//  #04 //013   ----------------------------------------
 BYTE   Fn3  v088
 BYTE   N96  Gs2  v063
 BYTE   N96  Cs2
 BYTE   W96
//  #04 //014   ----------------------------------------
 BYTE   Fs3  v088
 BYTE   N96  As2  v063
 BYTE   N96  Ds2
 BYTE   W96
//  #04 //015   ----------------------------------------
Label_01004192:
 BYTE   N96  Cs2  v063
 BYTE   N96  Gs2
 BYTE   N96  Fn3  v088
 BYTE   W96
 BYTE   PEND 
//  #04 //016   ----------------------------------------
Label_0100419C:
 BYTE   N96  Ds3  v088
 BYTE   N96  Fs2  v063
 BYTE   N96  Bn1
 BYTE   W96
 BYTE   PEND 
//  #04 //017   ----------------------------------------
 BYTE   PATT
  POIN2 Label_01004192
//  #04 //018   ----------------------------------------
 BYTE   N96  Ds2  v063
 BYTE   N96  As2
 BYTE   N96  Fs3  v088
 BYTE   W96
//  #04 //019   ----------------------------------------
 BYTE   PATT
  POIN2 Label_01004192
//  #04 //020   ----------------------------------------
 BYTE   PATT
  POIN2 Label_0100419C
//  #04 //021   ----------------------------------------
 BYTE   PATT
  POIN2 Label_01004192
//  #04 //022   ----------------------------------------
 BYTE   TIE  Ds3  v088
 BYTE   TIE  As2  v063
 BYTE   TIE  Ds2
 BYTE   W96
//  #04 //023   ----------------------------------------
 BYTE   W96
//  #04 //024   ----------------------------------------
 BYTE   EOT
 BYTE   EOT
 BYTE   As2  v063
 BYTE   N96  As2
 BYTE   W96
//  #04 //025   ----------------------------------------
 BYTE   As2
 BYTE   W96
//  #04 //026   ----------------------------------------
 BYTE   As2
 BYTE   W96
//  #04 //027   ----------------------------------------
 BYTE   As2
 BYTE   W96
//  #04 //028   ----------------------------------------
Label_010041DA:
 BYTE   N96  As2  v063
 BYTE   N96  Ds3  v088
 BYTE   W96
 BYTE   PEND 
//  #04 //029   ----------------------------------------
 BYTE   PATT
  POIN2 Label_0100412F
//  #04 //030   ----------------------------------------
 BYTE   PATT
  POIN2 Label_01004137
//  #04 //031   ----------------------------------------
 BYTE   PATT
  POIN2 Label_0100413F
//  #04 //032   ----------------------------------------
 BYTE   N96  Bn2  v063
 BYTE   N96  Fs3  v088
 BYTE   W96
//  #04 //033   ----------------------------------------
 BYTE   Gs3
 BYTE   N96  Cs3  v063
 BYTE   W96
//  #04 //034   ----------------------------------------
 BYTE   PATT
  POIN2 Label_010041DA
//  #04 //035   ----------------------------------------
 BYTE   N96  Fn3  v088
 BYTE   N96  As2  v063
 BYTE   W96
//  #04 //036   ----------------------------------------
 BYTE   PATT
  POIN2 Label_01004137
//  #04 //037   ----------------------------------------
 BYTE   PATT
  POIN2 Label_0100413F
//  #04 //038   ----------------------------------------
 BYTE   GoTo
  POIN2 Label_01004147
 BYTE   FINE

//**************** Track 5 (Midi-Chn.4) ****************//

MegamanZXDoomsdayDeviceAreaNTak_005:
//  #05 //000   ----------------------------------------
 BYTE   KEYSH   MegamanZXDoomsdayDeviceAreaNTak_key+0
 BYTE   VOICE   73
 BYTE   VOL   78*MegamanZXDoomsdayDeviceAreaNTak_mvl/mxv
 BYTE   PAN   c_v-20
 BYTE   BENDR  12
 BYTE   W96
//  #05 //001   ----------------------------------------
 BYTE   W96
//  #05 //002   ----------------------------------------
 BYTE   W96
//  #05 //003   ----------------------------------------
Label_01003F51:
 BYTE   W72
 BYTE   N06  Gs3  v088
 BYTE   W06
 BYTE   As3
 BYTE   W06
 BYTE   Cn4
 BYTE   W06
 BYTE   Cs4
 BYTE   W06
 BYTE   PEND 
//  #05 //004   ----------------------------------------
Label_01003F5D:
 BYTE   N18  Ds4  v088
 BYTE   W18
 BYTE   As4
 BYTE   W18
 BYTE   N12  Gs4
 BYTE   W12
 BYTE   N18  Fs4
 BYTE   W18
 BYTE   Fn4
 BYTE   W18
 BYTE   N12  Cs4
 BYTE   W12
//  #05 //005   ----------------------------------------
Label_01003F6E:
 BYTE   N12  As3  v088
 BYTE   W12
 BYTE   N06  Gs3
 BYTE   W06
 BYTE   N54  As3
 BYTE   W54
 BYTE   N06  Ds3
 BYTE   W06
 BYTE   Gs3
 BYTE   W06
 BYTE   As3
 BYTE   W06
 BYTE   Cs4
 BYTE   W06
 BYTE   PEND 
//  #05 //006   ----------------------------------------
 BYTE   N18  Ds4
 BYTE   W18
 BYTE   Fs4
 BYTE   W18
 BYTE   N12  Fn4
 BYTE   W12
 BYTE   N18  Cs4
 BYTE   W18
 BYTE   Gs3
 BYTE   W18
 BYTE   N12  Cs4
 BYTE   W12
//  #05 //007   ----------------------------------------
 BYTE   As3
 BYTE   W12
 BYTE   N06  Gs3
 BYTE   W06
 BYTE   N54  As3
 BYTE   W54
 BYTE   N06  Gs3
 BYTE   W06
 BYTE   As3
 BYTE   W06
 BYTE   Cn4
 BYTE   W06
 BYTE   Cs4
 BYTE   W06
//  #05 //008   ----------------------------------------
 BYTE   N18  Ds4
 BYTE   W18
 BYTE   As4
 BYTE   W18
 BYTE   N12  Gs4
 BYTE   W12
 BYTE   N18  Fs4
 BYTE   W18
 BYTE   Fn4
 BYTE   W18
 BYTE   N12  Cs4
 BYTE   W12
//  #05 //009   ----------------------------------------
 BYTE   PATT
  POIN2 Label_01003F6E
//  #05 //010   ----------------------------------------
 BYTE   N18  Ds4  v088
 BYTE   W18
 BYTE   Fs4
 BYTE   W18
 BYTE   N12  Fn4
 BYTE   W12
 BYTE   N18  Gs4
 BYTE   W18
 BYTE   Fs4
 BYTE   W18
 BYTE   N12  Fn4
 BYTE   W12
//  #05 //011   ----------------------------------------
 BYTE   Ds4
 BYTE   W12
 BYTE   N06  Cs4
 BYTE   W06
 BYTE   N54  Ds4
 BYTE   W78
//  #05 //012   ----------------------------------------
 BYTE   W96
//  #05 //013   ----------------------------------------
 BYTE   W96
//  #05 //014   ----------------------------------------
 BYTE   W96
//  #05 //015   ----------------------------------------
 BYTE   W96
//  #05 //016   ----------------------------------------
 BYTE   W96
//  #05 //017   ----------------------------------------
 BYTE   W96
//  #05 //018   ----------------------------------------
 BYTE   W96
//  #05 //019   ----------------------------------------
 BYTE   W96
//  #05 //020   ----------------------------------------
 BYTE   W96
//  #05 //021   ----------------------------------------
 BYTE   W96
//  #05 //022   ----------------------------------------
 BYTE   W96
//  #05 //023   ----------------------------------------
 BYTE   W96
//  #05 //024   ----------------------------------------
 BYTE   N96  Ds3
 BYTE   W96
//  #05 //025   ----------------------------------------
 BYTE   Fn3
 BYTE   W96
//  #05 //026   ----------------------------------------
 BYTE   Fs3
 BYTE   W96
//  #05 //027   ----------------------------------------
 BYTE   Gs3
 BYTE   W96
//  #05 //028   ----------------------------------------
 BYTE   As3
 BYTE   W96
//  #05 //029   ----------------------------------------
 BYTE   Cs4
 BYTE   W96
//  #05 //030   ----------------------------------------
 BYTE   Ds4
 BYTE   W96
//  #05 //031   ----------------------------------------
 BYTE   Fn4
 BYTE   W96
//  #05 //032   ----------------------------------------
 BYTE   N60  Fs4
 BYTE   W60
 BYTE   N12  Bn3
 BYTE   W12
 BYTE   Ds4
 BYTE   W12
 BYTE   As4
 BYTE   W12
//  #05 //033   ----------------------------------------
 BYTE   N60  Gs4
 BYTE   W60
 BYTE   N12  Cs4
 BYTE   W12
 BYTE   Fn4
 BYTE   W12
 BYTE   Cs5
 BYTE   W12
//  #05 //034   ----------------------------------------
 BYTE   N96  As4
 BYTE   W96
//  #05 //035   ----------------------------------------
 BYTE   W96
//  #05 //036   ----------------------------------------
 BYTE   W96
//  #05 //037   ----------------------------------------
 BYTE   PATT
  POIN2 Label_01003F51
//  #05 //038   ----------------------------------------
 BYTE   GoTo
  POIN2 Label_01003F5D
 BYTE   FINE

//**************** Track 6 (Midi-Chn.5) ****************//

MegamanZXDoomsdayDeviceAreaNTak_006:
//  #06 //000   ----------------------------------------
 BYTE   KEYSH   MegamanZXDoomsdayDeviceAreaNTak_key+0
 BYTE   VOICE   124
 BYTE   VOL   58*MegamanZXDoomsdayDeviceAreaNTak_mvl/mxv
 BYTE   N06  Fn1  v088
 BYTE   BENDR  12
 BYTE   BEND   c_v-11
 BYTE   W24
 BYTE   N06
 BYTE   W24
 BYTE   Fn1
 BYTE   W24
 BYTE   Fn1
 BYTE   W24
//  #06 //001   ----------------------------------------
Label_01025CAC:
 BYTE   N06  Fn1  v088
 BYTE   W24
 BYTE   Fn1
 BYTE   W24
 BYTE   Fn1
 BYTE   W24
 BYTE   Fn1
 BYTE   W24
 BYTE   PEND 
//  #06 //002   ----------------------------------------
 BYTE   PATT
  POIN2 Label_01025CAC
//  #06 //003   ----------------------------------------
 BYTE   N06  Fn1  v088
 BYTE   W24
 BYTE   Fn1
 BYTE   W24
 BYTE   Fn1
 BYTE   W12
 BYTE   N36  An2  v085
 BYTE   W12
 BYTE   N06  Fn1  v088
 BYTE   W24
//  #06 //004   ----------------------------------------
Label_01025CCC:
 BYTE   N42  An2  v085
 BYTE   N06  Fn1  v088
 BYTE   W12
 BYTE   Fn1
 BYTE   W24
 BYTE   Fn1
 BYTE   W12
 BYTE   N12  Dn1
 BYTE   W48
//  #06 //005   ----------------------------------------
Label_01025CDA:
 BYTE   N06  Fn1  v088
 BYTE   W36
 BYTE   Fn1
 BYTE   W12
 BYTE   N12  Dn1
 BYTE   W48
 BYTE   PEND 
//  #06 //006   ----------------------------------------
Label_01025CE4:
 BYTE   N06  Fn1  v088
 BYTE   W12
 BYTE   Fn1
 BYTE   W24
 BYTE   Fn1
 BYTE   W12
 BYTE   N12  Dn1
 BYTE   W48
 BYTE   PEND 
//  #06 //007   ----------------------------------------
Label_01025CF0:
 BYTE   N06  Fn1  v088
 BYTE   W36
 BYTE   Fn1
 BYTE   W12
 BYTE   N12  Dn1
 BYTE   W12
 BYTE   N36  An2  v085
 BYTE   W36
 BYTE   PEND 
//  #06 //008   ----------------------------------------
 BYTE   N42
 BYTE   N06  Fn1  v088
 BYTE   W12
 BYTE   Fn1
 BYTE   W24
 BYTE   Fn1
 BYTE   W12
 BYTE   N12  Dn1
 BYTE   W48
//  #06 //009   ----------------------------------------
 BYTE   PATT
  POIN2 Label_01025CDA
//  #06 //010   ----------------------------------------
 BYTE   PATT
  POIN2 Label_01025CE4
//  #06 //011   ----------------------------------------
 BYTE   PATT
  POIN2 Label_01025CF0
//  #06 //012   ----------------------------------------
 BYTE   N42  An2  v085
 BYTE   N06  Fn1  v088
 BYTE   W06
 BYTE   Fn1
 BYTE   W06
 BYTE   Gs1
 BYTE   W06
 BYTE   Gs1
 BYTE   W18
 BYTE   Gs1
 BYTE   N06  Fn1
 BYTE   W06
 BYTE   Gs1
 BYTE   N06  Fn1
 BYTE   W18
 BYTE   Fn1
 BYTE   N06  Gs1
 BYTE   W06
 BYTE   Gs1
 BYTE   W06
 BYTE   N12  Dn1
 BYTE   W12
 BYTE   N06  Gs1
 BYTE   W06
 BYTE   Gs1
 BYTE   W06
//  #06 //013   ----------------------------------------
 BYTE   Fn1
 BYTE   W06
 BYTE   Fn1
 BYTE   W06
 BYTE   Gs1
 BYTE   W06
 BYTE   Gs1
 BYTE   W18
 BYTE   Fn1
 BYTE   N06  Gs1
 BYTE   W06
 BYTE   Fn1
 BYTE   N06  Gs1
 BYTE   W18
 BYTE   Fn1
 BYTE   N06  Gs1
 BYTE   W06
 BYTE   Gs1
 BYTE   W06
 BYTE   N12  Dn1
 BYTE   W12
 BYTE   N06  Gs1
 BYTE   W06
 BYTE   Gs1
 BYTE   W06
//  #06 //014   ----------------------------------------
Label_01025D5A:
 BYTE   N06  Fn1  v088
 BYTE   W06
 BYTE   Fn1
 BYTE   W06
 BYTE   Gs1
 BYTE   W06
 BYTE   Gs1
 BYTE   W18
 BYTE   Fn1
 BYTE   N06  Gs1
 BYTE   W06
 BYTE   Gs1
 BYTE   N06  Fn1
 BYTE   W18
 BYTE   Gs1
 BYTE   N06  Fn1
 BYTE   W06
 BYTE   Gs1
 BYTE   W06
 BYTE   N12  Dn1
 BYTE   W12
 BYTE   N06  Gs1
 BYTE   W06
 BYTE   Gs1
 BYTE   W06
 BYTE   PEND 
//  #06 //015   ----------------------------------------
 BYTE   Fn1
 BYTE   W06
 BYTE   Fn1
 BYTE   W06
 BYTE   Gs1
 BYTE   W06
 BYTE   Gs1
 BYTE   W18
 BYTE   Fn1
 BYTE   N06  Gs1
 BYTE   W06
 BYTE   Fn1
 BYTE   N06  Gs1
 BYTE   W18
 BYTE   Gs1
 BYTE   N06  Fn1
 BYTE   W06
 BYTE   Gs1
 BYTE   W06
 BYTE   N12  Dn1
 BYTE   W12
 BYTE   N06  Gs1
 BYTE   W06
 BYTE   Gs1
 BYTE   W06
//  #06 //016   ----------------------------------------
 BYTE   N42  An2  v085
 BYTE   N06  Fn1  v088
 BYTE   W06
 BYTE   Fn1
 BYTE   W06
 BYTE   Gs1
 BYTE   W06
 BYTE   Gs1
 BYTE   W18
 BYTE   Fn1
 BYTE   N06  Gs1
 BYTE   W06
 BYTE   Gs1
 BYTE   N06  Fn1
 BYTE   W18
 BYTE   Fn1
 BYTE   N06  Gs1
 BYTE   W06
 BYTE   Gs1
 BYTE   W06
 BYTE   N12  Dn1
 BYTE   W12
 BYTE   N06  Gs1
 BYTE   W06
 BYTE   Gs1
 BYTE   W06
//  #06 //017   ----------------------------------------
 BYTE   Fn1
 BYTE   W06
 BYTE   Fn1
 BYTE   W06
 BYTE   Gs1
 BYTE   W06
 BYTE   Gs1
 BYTE   W18
 BYTE   Gs1
 BYTE   N06  Fn1
 BYTE   W06
 BYTE   Fn1
 BYTE   N06  Gs1
 BYTE   W18
 BYTE   Gs1
 BYTE   N06  Fn1
 BYTE   W06
 BYTE   Gs1
 BYTE   W06
 BYTE   N12  Dn1
 BYTE   W12
 BYTE   N06  Gs1
 BYTE   W06
 BYTE   Gs1
 BYTE   W06
//  #06 //018   ----------------------------------------
 BYTE   PATT
  POIN2 Label_01025D5A
//  #06 //019   ----------------------------------------
 BYTE   PATT
  POIN2 Label_01025D5A
//  #06 //020   ----------------------------------------
 BYTE   N42  An2  v085
 BYTE   N06  Fn1  v088
 BYTE   W06
 BYTE   Fn1
 BYTE   W06
 BYTE   Gs1
 BYTE   W06
 BYTE   Gs1
 BYTE   W18
 BYTE   Fn1
 BYTE   N06  Gs1
 BYTE   W06
 BYTE   Fn1
 BYTE   N06  Gs1
 BYTE   W18
 BYTE   Fn1
 BYTE   N06  Gs1
 BYTE   W06
 BYTE   Gs1
 BYTE   W06
 BYTE   N12  Dn1
 BYTE   W12
 BYTE   N06  Gs1
 BYTE   W06
 BYTE   Gs1
 BYTE   W06
//  #06 //021   ----------------------------------------
 BYTE   PATT
  POIN2 Label_01025D5A
//  #06 //022   ----------------------------------------
 BYTE   N06  Fn1  v088
 BYTE   W06
 BYTE   Fn1
 BYTE   W06
 BYTE   Fn1
 BYTE   W06
 BYTE   Fn1
 BYTE   W06
 BYTE   Fn1
 BYTE   W06
 BYTE   Fn1
 BYTE   W06
 BYTE   Fn1
 BYTE   W06
 BYTE   Fn1
 BYTE   W06
 BYTE   Fn1
 BYTE   W06
 BYTE   Fn1
 BYTE   W06
 BYTE   Fn1
 BYTE   W06
 BYTE   Fn1
 BYTE   W06
 BYTE   Fn1
 BYTE   W06
 BYTE   Fn1
 BYTE   W06
 BYTE   Fn1
 BYTE   W06
 BYTE   Fn1
 BYTE   W06
//  #06 //023   ----------------------------------------
 BYTE   Fn1
 BYTE   W06
 BYTE   N12  Dn1
 BYTE   N06  Fn1
 BYTE   W06
 BYTE   Fn1
 BYTE   W06
 BYTE   Fn1
 BYTE   W06
 BYTE   N12  Dn1
 BYTE   N06  Fn1
 BYTE   W06
 BYTE   Fn1
 BYTE   W06
 BYTE   Fn1
 BYTE   W06
 BYTE   N12  Dn1
 BYTE   N06  Fn1
 BYTE   W06
 BYTE   Fn1
 BYTE   W06
 BYTE   Fn1
 BYTE   W06
 BYTE   N36  An2  v085
 BYTE   N06  Fn1  v088
 BYTE   N12  Dn1
 BYTE   W06
 BYTE   N06  Fn1
 BYTE   W06
 BYTE   Fn1
 BYTE   N06  Dn1
 BYTE   W06
 BYTE   Fn1
 BYTE   N06  Dn1
 BYTE   W06
 BYTE   Fn1
 BYTE   N06  Dn1
 BYTE   W06
 BYTE   Fn1
 BYTE   N06  Dn1
 BYTE   W06
//  #06 //024   ----------------------------------------
Label_01025E67:
 BYTE   N06  Fn1  v088
 BYTE   N42  An2  v085
 BYTE   W12
 BYTE   N06  Fn1  v088
 BYTE   W24
 BYTE   Fn1
 BYTE   W12
 BYTE   N12  Dn1
 BYTE   W48
 BYTE   PEND 
//  #06 //025   ----------------------------------------
 BYTE   PATT
  POIN2 Label_01025CDA
//  #06 //026   ----------------------------------------
 BYTE   PATT
  POIN2 Label_01025CE4
//  #06 //027   ----------------------------------------
 BYTE   PATT
  POIN2 Label_01025CF0
//  #06 //028   ----------------------------------------
 BYTE   PATT
  POIN2 Label_01025E67
//  #06 //029   ----------------------------------------
 BYTE   PATT
  POIN2 Label_01025CDA
//  #06 //030   ----------------------------------------
 BYTE   PATT
  POIN2 Label_01025CE4
//  #06 //031   ----------------------------------------
 BYTE   PATT
  POIN2 Label_01025CDA
//  #06 //032   ----------------------------------------
 BYTE   PATT
  POIN2 Label_01025E67
//  #06 //033   ----------------------------------------
 BYTE   PATT
  POIN2 Label_01025CDA
//  #06 //034   ----------------------------------------
 BYTE   PATT
  POIN2 Label_01025CAC
//  #06 //035   ----------------------------------------
 BYTE   PATT
  POIN2 Label_01025CAC
//  #06 //036   ----------------------------------------
 BYTE   PATT
  POIN2 Label_01025CAC
//  #06 //037   ----------------------------------------
 BYTE   PATT
  POIN2 Label_01025CAC
//  #06 //038   ----------------------------------------
 BYTE   GoTo
  POIN2 Label_01025CCC
 BYTE   FINE

//**************** Track 7 (Midi-Chn.6) ****************//

MegamanZXDoomsdayDeviceAreaNTak_007:
//  #07 //000   ----------------------------------------
 BYTE   KEYSH   MegamanZXDoomsdayDeviceAreaNTak_key+0
 BYTE   VOICE   68
 BYTE   VOL   81*MegamanZXDoomsdayDeviceAreaNTak_mvl/mxv
 BYTE   PAN   c_v+21
 BYTE   BENDR  12
 BYTE   W96
//  #07 //001   ----------------------------------------
 BYTE   W96
//  #07 //002   ----------------------------------------
 BYTE   W96
//  #07 //003   ----------------------------------------
 BYTE   W96
//  #07 //004   ----------------------------------------
Label_0100436A:
 BYTE   W96
//  #07 //005   ----------------------------------------
 BYTE   W96
//  #07 //006   ----------------------------------------
 BYTE   W96
//  #07 //007   ----------------------------------------
 BYTE   W96
//  #07 //008   ----------------------------------------
 BYTE   W96
//  #07 //009   ----------------------------------------
 BYTE   W96
//  #07 //010   ----------------------------------------
 BYTE   W96
//  #07 //011   ----------------------------------------
 BYTE   W72
 BYTE   N06  Ds3  v088
 BYTE   W06
 BYTE   Fn3
 BYTE   W06
 BYTE   Fs3
 BYTE   W06
 BYTE   As3
 BYTE   W06
//  #07 //012   ----------------------------------------
Label_0100437C:
 BYTE   N18  Gs3  v088
 BYTE   W18
 BYTE   As3
 BYTE   W18
 BYTE   N36  Ds3
 BYTE   W36
 BYTE   N06
 BYTE   W06
 BYTE   Fn3
 BYTE   W06
 BYTE   Fs3
 BYTE   W06
 BYTE   As3
 BYTE   W06
 BYTE   PEND 
//  #07 //013   ----------------------------------------
Label_0100438E:
 BYTE   N18  Gs3  v088
 BYTE   W18
 BYTE   As3
 BYTE   W18
 BYTE   N36  Cs3
 BYTE   W36
 BYTE   N06
 BYTE   W06
 BYTE   Ds3
 BYTE   W06
 BYTE   Fn3
 BYTE   W06
 BYTE   Fs3
 BYTE   W06
 BYTE   PEND 
//  #07 //014   ----------------------------------------
Label_010043A0:
 BYTE   N18  Gs3  v088
 BYTE   W18
 BYTE   Fs3
 BYTE   W18
 BYTE   N12  Fn3
 BYTE   W12
 BYTE   N18  Fs3
 BYTE   W18
 BYTE   Gs3
 BYTE   W18
 BYTE   N12  Fs3
 BYTE   W12
 BYTE   PEND 
//  #07 //015   ----------------------------------------
 BYTE   N18  Fn3
 BYTE   W18
 BYTE   Cs3
 BYTE   W18
 BYTE   N36  As2
 BYTE   W36
 BYTE   N06  Ds3
 BYTE   W06
 BYTE   Fn3
 BYTE   W06
 BYTE   Fs3
 BYTE   W06
 BYTE   As3
 BYTE   W06
//  #07 //016   ----------------------------------------
 BYTE   PATT
  POIN2 Label_0100437C
//  #07 //017   ----------------------------------------
 BYTE   PATT
  POIN2 Label_0100438E
//  #07 //018   ----------------------------------------
 BYTE   PATT
  POIN2 Label_010043A0
//  #07 //019   ----------------------------------------
 BYTE   N18  Fn3  v088
 BYTE   W18
 BYTE   Cs3
 BYTE   W18
 BYTE   N36  As2
 BYTE   W36
 BYTE   N06  Fs3
 BYTE   W06
 BYTE   Fn3
 BYTE   W06
 BYTE   Ds3
 BYTE   W06
 BYTE   Cs3
 BYTE   W06
//  #07 //020   ----------------------------------------
Label_010043E4:
 BYTE   N72  Ds3  v088
 BYTE   W72
 BYTE   N06  Fs3
 BYTE   W06
 BYTE   Fn3
 BYTE   W06
 BYTE   Ds3
 BYTE   W06
 BYTE   Cs3
 BYTE   W06
 BYTE   PEND 
//  #07 //021   ----------------------------------------
 BYTE   PATT
  POIN2 Label_010043E4
//  #07 //022   ----------------------------------------
 BYTE   N96  Ds3  v088
 BYTE   W96
//  #07 //023   ----------------------------------------
 BYTE   W96
//  #07 //024   ----------------------------------------
 BYTE   W96
//  #07 //025   ----------------------------------------
 BYTE   W96
//  #07 //026   ----------------------------------------
 BYTE   W96
//  #07 //027   ----------------------------------------
 BYTE   W96
//  #07 //028   ----------------------------------------
 BYTE   W96
//  #07 //029   ----------------------------------------
 BYTE   W96
//  #07 //030   ----------------------------------------
 BYTE   W96
//  #07 //031   ----------------------------------------
 BYTE   W96
//  #07 //032   ----------------------------------------
 BYTE   W96
//  #07 //033   ----------------------------------------
 BYTE   W96
//  #07 //034   ----------------------------------------
 BYTE   W96
//  #07 //035   ----------------------------------------
 BYTE   W96
//  #07 //036   ----------------------------------------
 BYTE   W96
//  #07 //037   ----------------------------------------
 BYTE   W96
//  #07 //038   ----------------------------------------
 BYTE   GoTo
  POIN2 Label_0100436A
 BYTE   FINE

//**************** Track 8 (Midi-Chn.7) ****************//

MegamanZXDoomsdayDeviceAreaNTak_008:
//  #08 //000   ----------------------------------------
 BYTE   KEYSH   MegamanZXDoomsdayDeviceAreaNTak_key+0
 BYTE   VOICE   118
 BYTE   VOL   61*MegamanZXDoomsdayDeviceAreaNTak_mvl/mxv
 BYTE   BENDR  12
 BYTE   W96
//  #08 //001   ----------------------------------------
 BYTE   W96
//  #08 //002   ----------------------------------------
 BYTE   W96
//  #08 //003   ----------------------------------------
Label_0100405B:
 BYTE   N06  Gs2  v088
 BYTE   N06  Cs3
 BYTE   W06
 BYTE   Gs2
 BYTE   N06  Cs3
 BYTE   W06
 BYTE   Gs2
 BYTE   N06  Cs3
 BYTE   W06
 BYTE   Gs2
 BYTE   N06  Cs3
 BYTE   W06
 BYTE   Gs2
 BYTE   N06  Cs3
 BYTE   W06
 BYTE   Gs2
 BYTE   N06  Cs3
 BYTE   W06
 BYTE   Gs2
 BYTE   N06  Cs3
 BYTE   W06
 BYTE   Gs2
 BYTE   N06  Cs3
 BYTE   W12
 BYTE   Ds2
 BYTE   N06  Gs2
 BYTE   W06
 BYTE   Ds2
 BYTE   N06  Gs2
 BYTE   W06
 BYTE   Ds2
 BYTE   N06  Gs2
 BYTE   W06
 BYTE   Cs2
 BYTE   N06  Ds2
 BYTE   W06
 BYTE   Cs2
 BYTE   N06  Ds2
 BYTE   W06
 BYTE   Gs1
 BYTE   N06  Cs2
 BYTE   W06
 BYTE   Gs1
 BYTE   N06  Cs2
 BYTE   W06
 BYTE   PEND 
//  #08 //004   ----------------------------------------
Label_0100409A:
 BYTE   W96
//  #08 //005   ----------------------------------------
 BYTE   W96
//  #08 //006   ----------------------------------------
 BYTE   W96
//  #08 //007   ----------------------------------------
 BYTE   W96
//  #08 //008   ----------------------------------------
 BYTE   W96
//  #08 //009   ----------------------------------------
 BYTE   W96
//  #08 //010   ----------------------------------------
 BYTE   W96
//  #08 //011   ----------------------------------------
 BYTE   W96
//  #08 //012   ----------------------------------------
 BYTE   W96
//  #08 //013   ----------------------------------------
 BYTE   W96
//  #08 //014   ----------------------------------------
 BYTE   W96
//  #08 //015   ----------------------------------------
 BYTE   W96
//  #08 //016   ----------------------------------------
 BYTE   W96
//  #08 //017   ----------------------------------------
 BYTE   W96
//  #08 //018   ----------------------------------------
 BYTE   W96
//  #08 //019   ----------------------------------------
 BYTE   W96
//  #08 //020   ----------------------------------------
 BYTE   W96
//  #08 //021   ----------------------------------------
 BYTE   W96
//  #08 //022   ----------------------------------------
 BYTE   W96
//  #08 //023   ----------------------------------------
 BYTE   N06  Gs2  v088
 BYTE   N06  Cs3
 BYTE   W06
 BYTE   Gs2
 BYTE   N06  Cs3
 BYTE   W06
 BYTE   Gs2
 BYTE   N06  Cs3
 BYTE   W06
 BYTE   Gs2
 BYTE   N06  Cs3
 BYTE   W06
 BYTE   Gs2
 BYTE   N06  Cs3
 BYTE   W06
 BYTE   Gs2
 BYTE   N06  Cs3
 BYTE   W06
 BYTE   Gs2
 BYTE   N06  Cs3
 BYTE   W06
 BYTE   Gs2
 BYTE   N06  Cs3
 BYTE   W12
 BYTE   Ds2
 BYTE   N06  Gs2
 BYTE   W06
 BYTE   Gs2
 BYTE   N06  Ds2
 BYTE   W06
 BYTE   Gs2
 BYTE   N06  Ds2
 BYTE   W06
 BYTE   Ds2
 BYTE   N06  Cs2
 BYTE   W06
 BYTE   Ds2
 BYTE   N06  Cs2
 BYTE   W06
 BYTE   Cs2
 BYTE   N06  Gs1
 BYTE   W06
 BYTE   Cs2
 BYTE   N06  Gs1
 BYTE   W06
//  #08 //024   ----------------------------------------
 BYTE   W96
//  #08 //025   ----------------------------------------
 BYTE   W96
//  #08 //026   ----------------------------------------
 BYTE   W96
//  #08 //027   ----------------------------------------
 BYTE   W96
//  #08 //028   ----------------------------------------
 BYTE   W96
//  #08 //029   ----------------------------------------
 BYTE   W96
//  #08 //030   ----------------------------------------
 BYTE   W96
//  #08 //031   ----------------------------------------
 BYTE   W96
//  #08 //032   ----------------------------------------
 BYTE   W96
//  #08 //033   ----------------------------------------
 BYTE   W96
//  #08 //034   ----------------------------------------
 BYTE   W96
//  #08 //035   ----------------------------------------
 BYTE   W96
//  #08 //036   ----------------------------------------
 BYTE   W96
//  #08 //037   ----------------------------------------
 BYTE   PATT
  POIN2 Label_0100405B
//  #08 //038   ----------------------------------------
 BYTE   GoTo
  POIN2 Label_0100409A
 BYTE   FINE

//******************************************************//
	ALIGN 4

MegamanZXDoomsdayDeviceAreaNTak:
	BYTE	8	// NumTrks
	BYTE	0	// NumBlks
	BYTE	MegamanZXDoomsdayDeviceAreaNTak_pri	// Priority
	BYTE	MegamanZXDoomsdayDeviceAreaNTak_rev	// Reverb.
    
	POIN2	MegamanZXDoomsdayDeviceAreaNTak_grp
    
	POIN2	MegamanZXDoomsdayDeviceAreaNTak_001
	POIN2	MegamanZXDoomsdayDeviceAreaNTak_002
	POIN2	MegamanZXDoomsdayDeviceAreaNTak_003
	POIN2	MegamanZXDoomsdayDeviceAreaNTak_004
	POIN2	MegamanZXDoomsdayDeviceAreaNTak_005
	POIN2	MegamanZXDoomsdayDeviceAreaNTak_006
	POIN2	MegamanZXDoomsdayDeviceAreaNTak_007
	POIN2	MegamanZXDoomsdayDeviceAreaNTak_008

	
