//Event file generated from Sappy .s format.
	#include "MPlayDef.event"

	#define	MegamanX3VoltCatfishPandan_grp  voicegroup000
	#define	MegamanX3VoltCatfishPandan_pri  10
	#define	MegamanX3VoltCatfishPandan_rev  0
	#define	MegamanX3VoltCatfishPandan_mvl  127
	#define	MegamanX3VoltCatfishPandan_key  0
	#define	MegamanX3VoltCatfishPandan_tbs  1
	#define	MegamanX3VoltCatfishPandan_exg  0
	#define	MegamanX3VoltCatfishPandan_cmp  1

	// .rodata
	//	MegamanX3VoltCatfishPandan
	ALIGN 4


//**************** Track 1 (Midi-Chn.0) ****************//

MegamanX3VoltCatfishPandan_001:
// 000   ----------------------------------------
Label_0_01228C1C:
 BYTE   TEMPO   174*MegamanX3VoltCatfishPandan_tbs/2
 BYTE   KEYSH   MegamanX3VoltCatfishPandan_key+0
 BYTE   W84
 BYTE   VOICE   29
 BYTE   VOL   65*MegamanX3VoltCatfishPandan_mvl/mxv
 BYTE   PAN   c_v+4
 BYTE   N36  As3  v097
 BYTE   W48
// 001   ----------------------------------------
 BYTE   N48  Fs3
 BYTE   W48
 BYTE   N72  Ds3
 BYTE   W96
// 002   ----------------------------------------
Label_0_01228C31:
 BYTE   N36  As3  v097
 BYTE   W48
 BYTE   N48  Fs3
 BYTE   W48
 BYTE   PEND 
// 003   ----------------------------------------
 BYTE   N72  Ds3  v097
 BYTE   W96
// 004   ----------------------------------------
 BYTE   N36  As3
 BYTE   W48
 BYTE   N48  Cs4
 BYTE   W48
// 005   ----------------------------------------
 BYTE   N72  Cn4
 BYTE   W96
 BYTE   PATT
  POIN2 Label_0_01228C31
// 006   ----------------------------------------
 BYTE   N72  Ds3  v097
 BYTE   W96
// 007   ----------------------------------------
 BYTE   N36  Fn3
 BYTE   W72
 BYTE   N09  Fs3
 BYTE   W12
 BYTE   N12  Gs3
 BYTE   W12
// 008   ----------------------------------------
 BYTE   Fs3
 BYTE   W12
 BYTE   Fs3  v085
 BYTE   W12
 BYTE   Fn3  v097
 BYTE   W12
 BYTE   Fn3  v085
 BYTE   W12
 BYTE   Ds3  v097
 BYTE   W12
 BYTE   Ds3  v085
 BYTE   W12
 BYTE   N18  As2  v097
 BYTE   W24
// 009   ----------------------------------------
 BYTE   N36  Cs3
 BYTE   W72
 BYTE   N18  Bn2
 BYTE   W24
// 010   ----------------------------------------
 BYTE   N09  As2
 BYTE   W12
 BYTE   N12  As2  v085
 BYTE   W12
 BYTE   Ds3  v097
 BYTE   W12
 BYTE   Ds3  v085
 BYTE   W12
 BYTE   Fn3  v097
 BYTE   W12
 BYTE   Fn3  v085
 BYTE   W12
 BYTE   N18  Fs3  v097
 BYTE   W24
// 011   ----------------------------------------
 BYTE   N36  Gs3
 BYTE   W36
 BYTE   N24  Fs3
 BYTE   W24
 BYTE   N09  Gs3
 BYTE   W12
 BYTE   N18  Fs3
 BYTE   W24
// 012   ----------------------------------------
 BYTE   N09  As3
 BYTE   W12
 BYTE   N12  As3  v085
 BYTE   W12
 BYTE   Ds3  v097
 BYTE   W12
 BYTE   Ds3  v085
 BYTE   W12
 BYTE   Fn3  v097
 BYTE   W12
 BYTE   Fn3  v085
 BYTE   W12
 BYTE   N18  Fs3  v097
 BYTE   W24
// 013   ----------------------------------------
 BYTE   N36  Gs3
 BYTE   W60
 BYTE   N18  Cs4
 BYTE   W32
 BYTE   GoTo
  POIN2 Label_0_01228C1C
// 014   ----------------------------------------
 BYTE   W04
 BYTE   N09  Ds4  v097
 BYTE   W12
 BYTE   N12  Ds4  v082
 BYTE   W12
 BYTE   Fn4  v097
 BYTE   W12
 BYTE   Fn4
 BYTE   W12
 BYTE   N18  Fn4  v085
 BYTE   W24
 BYTE   N09  Fn4  v091
 BYTE   W12
 BYTE   N12  Fn4  v081
 BYTE   W12
// 015   ----------------------------------------
 BYTE   N20  Fn4  v097
 BYTE   W20
 BYTE   N06  Ds4
 BYTE   W08
 BYTE   N08  Cs4
 BYTE   W08
 BYTE   Fn4
 BYTE   W08
 BYTE   Ds4
 BYTE   W08
 BYTE   Cs4
 BYTE   W08
 BYTE   Fn4
 BYTE   W08
 BYTE   Ds4
 BYTE   W08
 BYTE   Cs4
 BYTE   W08
 BYTE   Fn4
 BYTE   W08
 BYTE   Ds4
 BYTE   W08
// 016   ----------------------------------------
Label_0_01228CEC:
 BYTE   N06  Cs4  v097
 BYTE   W08
 BYTE   N08  Fs4
 BYTE   W08
 BYTE   Ds4
 BYTE   W08
 BYTE   Cs4
 BYTE   W08
 BYTE   Fs4
 BYTE   W08
 BYTE   Ds4
 BYTE   W08
 BYTE   Cs4
 BYTE   W08
 BYTE   Fs4
 BYTE   W08
 BYTE   Ds4
 BYTE   W08
 BYTE   Cs4
 BYTE   W08
 BYTE   Fs4
 BYTE   W08
 BYTE   Ds4
 BYTE   W08
 BYTE   PEND 
// 017   ----------------------------------------
Label_0_01228D08:
 BYTE   N06  Cs4  v097
 BYTE   W08
 BYTE   N08  Gs4
 BYTE   W08
 BYTE   Fn4
 BYTE   W08
 BYTE   Ds4
 BYTE   W08
 BYTE   Gs4
 BYTE   W08
 BYTE   Fn4
 BYTE   W08
 BYTE   Ds4
 BYTE   W08
 BYTE   Gs4
 BYTE   W08
 BYTE   Fn4
 BYTE   W08
 BYTE   Ds4
 BYTE   W08
 BYTE   Gs4
 BYTE   W08
 BYTE   Fn4
 BYTE   W08
 BYTE   PEND 
// 018   ----------------------------------------
 BYTE   N06  Ds4  v097
 BYTE   W08
 BYTE   N08  Fs4
 BYTE   W08
 BYTE   Ds4
 BYTE   W08
 BYTE   Cs4
 BYTE   W08
 BYTE   Fs4
 BYTE   W08
 BYTE   Ds4
 BYTE   W08
 BYTE   Cs4
 BYTE   W08
 BYTE   Fs4
 BYTE   W08
 BYTE   Ds4
 BYTE   W08
 BYTE   Cs4
 BYTE   W08
 BYTE   Fs4
 BYTE   W08
 BYTE   Ds4
 BYTE   W08
// 019   ----------------------------------------
 BYTE   Cs4
 BYTE   W08
 BYTE   Fn4
 BYTE   W08
 BYTE   Ds4
 BYTE   W08
 BYTE   Cs4
 BYTE   W08
 BYTE   Fn4
 BYTE   W08
 BYTE   Ds4
 BYTE   W08
 BYTE   Cs4
 BYTE   W08
 BYTE   Fn4
 BYTE   W08
 BYTE   Ds4
 BYTE   W08
 BYTE   Cs4
 BYTE   W08
 BYTE   Fn4
 BYTE   W08
 BYTE   Ds4
 BYTE   W08
 BYTE   PATT
  POIN2 Label_0_01228CEC
 BYTE   PATT
  POIN2 Label_0_01228D08
// 020   ----------------------------------------
 BYTE   N06  Ds4  v097
 BYTE   W08
 BYTE   N08  Bn4
 BYTE   W08
 BYTE   Gs4
 BYTE   W08
 BYTE   Fn4
 BYTE   W08
 BYTE   Bn4
 BYTE   W08
 BYTE   Gs4
 BYTE   W08
 BYTE   Fn4
 BYTE   W08
 BYTE   Bn4
 BYTE   W08
 BYTE   Gs4
 BYTE   W08
 BYTE   Fn4
 BYTE   W08
 BYTE   Bn4
 BYTE   W08
 BYTE   Gs4
 BYTE   W08
// 021   ----------------------------------------
 BYTE   Fn4
 BYTE   W08
 BYTE   N36  Cn5  v096
 BYTE   W60
 BYTE   N18  Ds4
 BYTE   W24
 BYTE   N24  Fn4
 BYTE   W24
// 022   ----------------------------------------
 BYTE   N09  Ds4
 BYTE   W12
 BYTE   N12  Dn4
 BYTE   W12
 BYTE   N18  Cn4
 BYTE   W24
 BYTE   N24  Bn3
 BYTE   W24
 BYTE   N36  Gn4
 BYTE   W72
// 023   ----------------------------------------
 BYTE   N09  Gs4
 BYTE   W12
 BYTE   N12  Gn4
 BYTE   W12
 BYTE   Fn4
 BYTE   W12
 BYTE   N18  Gn4
 BYTE   W36
 BYTE   N24  Cn4
 BYTE   W24
// 024   ----------------------------------------
 BYTE   Bn3
 BYTE   W24
 BYTE   Cn4
 BYTE   W24
 BYTE   N09  Dn4
 BYTE   W12
 BYTE   N12  Ds4
 BYTE   W12
 BYTE   N18  Cn4
 BYTE   W24
// 025   ----------------------------------------
 BYTE   N09  Dn4
 BYTE   W12
 BYTE   N12  Ds4
 BYTE   W12
 BYTE   N18  Dn4
 BYTE   W24
 BYTE   N09  Ds4
 BYTE   W12
 BYTE   N12  Fn4
 BYTE   W12
 BYTE   N18  Dn4
 BYTE   W24
// 026   ----------------------------------------
 BYTE   N09  Ds4
 BYTE   W12
 BYTE   N12  Fn4
 BYTE   W12
 BYTE   N18  Ds4
 BYTE   W24
 BYTE   N09  Fn4
 BYTE   W12
 BYTE   N12  Gn4
 BYTE   W12
 BYTE   N18  Ds4
 BYTE   W24
// 027   ----------------------------------------
 BYTE   N09  Fn4
 BYTE   W12
 BYTE   N12  Gn4
 BYTE   W12
 BYTE   N36  Cn5
 BYTE   W72
// 028   ----------------------------------------
 BYTE   N18  Bn4
 BYTE   W24
 BYTE   N36  Cn5
 BYTE   W36
 BYTE   N24  Bn4
 BYTE   W24
 BYTE   As4
 BYTE   W24
// 029   ----------------------------------------
 BYTE   N09  An4
 BYTE   W12
 BYTE   N18  Gs4
 BYTE   W36
 BYTE   N24  Gn4
 BYTE   W24
 BYTE   Fs4
 BYTE   W24
// 030   ----------------------------------------
 BYTE   N09  Fn4
 BYTE   W12
 BYTE   N72  Gn4
 BYTE   W96
// 031   ----------------------------------------
 BYTE   W72
 BYTE   FINE

//**************** Track 2 (Midi-Chn.1) ****************//

MegamanX3VoltCatfishPandan_002:
// 000   ----------------------------------------
Label_1_01228E00:
 BYTE   TEMPO   174*MegamanX3VoltCatfishPandan_tbs/2
 BYTE   KEYSH   MegamanX3VoltCatfishPandan_key+0
 BYTE   W84
 BYTE   VOICE   30
 BYTE   VOL   65*MegamanX3VoltCatfishPandan_mvl/mxv
 BYTE   PAN   c_v+24
 BYTE   N18  As2  v097
 BYTE   N18  Ds2
 BYTE   N18  Ds3
 BYTE   W24
// 001   ----------------------------------------
Label_1_01228E13:
 BYTE   N09  As2  v097
 BYTE   N09  Ds2
 BYTE   N09  Ds3
 BYTE   W12
 BYTE   As2
 BYTE   N09  Ds2
 BYTE   N09  Ds3
 BYTE   W12
 BYTE   N18  As2
 BYTE   N18  Ds2
 BYTE   N18  Ds3
 BYTE   W24
 BYTE   N09  As2
 BYTE   N09  Ds2
 BYTE   N09  Ds3
 BYTE   W12
 BYTE   As2
 BYTE   N09  Ds2
 BYTE   N09  Ds3
 BYTE   W12
 BYTE   N18  As2
 BYTE   N18  Ds2
 BYTE   N18  Ds3
 BYTE   W24
 BYTE   PEND 
// 002   ----------------------------------------
Label_1_01228E3D:
 BYTE   N09  As2  v097
 BYTE   N09  Ds2
 BYTE   N09  Ds3
 BYTE   W12
 BYTE   N18  As2
 BYTE   N18  Ds2
 BYTE   N18  Ds3
 BYTE   W24
 BYTE   N09  As2
 BYTE   N09  Ds2
 BYTE   N09  Ds3
 BYTE   W12
 BYTE   N18  Gs2
 BYTE   N18  Cs2
 BYTE   N18  Cs3
 BYTE   W24
 BYTE   As2
 BYTE   N18  Ds2
 BYTE   N18  Ds3
 BYTE   W24
 BYTE   PEND 
 BYTE   PATT
  POIN2 Label_1_01228E13
 BYTE   PATT
  POIN2 Label_1_01228E3D
 BYTE   PATT
  POIN2 Label_1_01228E13
 BYTE   PATT
  POIN2 Label_1_01228E3D
 BYTE   PATT
  POIN2 Label_1_01228E13
// 003   ----------------------------------------
 BYTE   N09  As2  v097
 BYTE   N09  Ds2
 BYTE   N09  Ds3
 BYTE   W12
 BYTE   N18  As2
 BYTE   N18  Ds2
 BYTE   N18  Ds3
 BYTE   W24
 BYTE   N09  As2
 BYTE   N09  Ds2
 BYTE   N09  Ds3
 BYTE   W12
 BYTE   N18  Gs2
 BYTE   N18  Cs2
 BYTE   N18  Cs3
 BYTE   W24
 BYTE   Gs2
 BYTE   N18  Cs2
 BYTE   N18  Cs3
 BYTE   W24
// 004   ----------------------------------------
 BYTE   N09  Gs2
 BYTE   N09  Cs2
 BYTE   N09  Cs3
 BYTE   W12
 BYTE   N18  Gs2
 BYTE   N18  Cs2
 BYTE   N18  Cs3
 BYTE   W24
 BYTE   N09  Gs2
 BYTE   N09  Cs2
 BYTE   N09  Cs3
 BYTE   W12
 BYTE   N18  Gs2
 BYTE   N18  Cs2
 BYTE   N18  Cs3
 BYTE   W24
 BYTE   As2
 BYTE   N18  Ds2
 BYTE   N18  Ds3
 BYTE   W36
// 005   ----------------------------------------
Label_1_01228EBF:
 BYTE   N18  As2  v097
 BYTE   N18  Ds2
 BYTE   N18  Ds3
 BYTE   W36
 BYTE   As2
 BYTE   N18  Ds2
 BYTE   N18  Ds3
 BYTE   W24
 BYTE   Gs2
 BYTE   N18  Cs2
 BYTE   N18  Cs3
 BYTE   W24
 BYTE   N09  Gs2
 BYTE   N09  Cs2
 BYTE   N09  Cs3
 BYTE   W12
 BYTE   PEND 
// 006   ----------------------------------------
Label_1_01228EDB:
 BYTE   N18  Gs2  v097
 BYTE   N18  Cs2
 BYTE   N18  Cs3
 BYTE   W24
 BYTE   N09  Gs2
 BYTE   N09  Cs2
 BYTE   N09  Cs3
 BYTE   W12
 BYTE   N18  Gs2
 BYTE   N18  Cs2
 BYTE   N18  Cs3
 BYTE   W24
 BYTE   As2
 BYTE   N18  Ds2
 BYTE   N18  Ds3
 BYTE   W36
 BYTE   PEND 
 BYTE   PATT
  POIN2 Label_1_01228EBF
 BYTE   PATT
  POIN2 Label_1_01228EDB
 BYTE   PATT
  POIN2 Label_1_01228EBF
// 007   ----------------------------------------
 BYTE   N18  Gs2  v097
 BYTE   N18  Cs2
 BYTE   N18  Cs3
 BYTE   W24
 BYTE   N09  Gs2
 BYTE   N09  Cs2
 BYTE   N09  Cs3
 BYTE   W12
 BYTE   N18  Gs2
 BYTE   N18  Cs2
 BYTE   N18  Cs3
 BYTE   W20
 BYTE   GoTo
  POIN2 Label_1_01228E00
// 008   ----------------------------------------
 BYTE   W04
 BYTE   N18  As2  v097
 BYTE   N18  Ds2
 BYTE   N18  Ds3
 BYTE   W24
 BYTE   N09  As2
 BYTE   N09  Ds2
 BYTE   N09  Ds3
 BYTE   W12
 BYTE   N18  As2
 BYTE   N18  Ds2
 BYTE   N18  Ds3
 BYTE   W24
 BYTE   N09  As2
 BYTE   N09  Ds2
 BYTE   N09  Ds3
 BYTE   W12
 BYTE   N18  As2
 BYTE   N18  Ds2
 BYTE   N18  Ds3
 BYTE   W24
// 009   ----------------------------------------
 BYTE   Cn3
 BYTE   N18  Fn2
 BYTE   N18  Fn3
 BYTE   W24
 BYTE   N09  Cn3
 BYTE   N09  Fn2
 BYTE   N09  Fn3
 BYTE   W12
Label_1_01228F54:
 BYTE   N18  Cn3  v097
 BYTE   N18  Fn2
 BYTE   N18  Fn3
 BYTE   W24
 BYTE   N09  Cn3
 BYTE   N09  Fn2
 BYTE   N09  Fn3
 BYTE   W12
 BYTE   N18  Cn3
 BYTE   N18  Fn2
 BYTE   N18  Fn3
 BYTE   W24
// 010   ----------------------------------------
 BYTE   Cs3
 BYTE   N18  Fs2
 BYTE   N18  Fs3
 BYTE   W24
 BYTE   N09  Cs3
 BYTE   N09  Fs2
 BYTE   N09  Fs3
 BYTE   W12
 BYTE   PEND 
Label_1_01228F78:
 BYTE   N18  Cs3  v097
 BYTE   N18  Fs2
 BYTE   N18  Fs3
 BYTE   W24
 BYTE   N09  Cs3
 BYTE   N09  Fs2
 BYTE   N09  Fs3
 BYTE   W12
 BYTE   N18  Cs3
 BYTE   N18  Fs2
 BYTE   N18  Fs3
 BYTE   W24
// 011   ----------------------------------------
 BYTE   Ds3
 BYTE   N18  Gs2
 BYTE   N18  Gs3
 BYTE   W24
 BYTE   N09  Ds3
 BYTE   N09  Gs2
 BYTE   N09  Gs3
 BYTE   W12
 BYTE   PEND 
 BYTE   N18  Ds3  v097
 BYTE   N18  Gs2
 BYTE   N18  Gs3
 BYTE   W24
 BYTE   N09  Ds3
 BYTE   N09  Gs2
 BYTE   N09  Gs3
 BYTE   W12
 BYTE   N18  Ds3
 BYTE   N18  Gs2
 BYTE   N18  Gs3
 BYTE   W24
// 012   ----------------------------------------
 BYTE   Cs3
 BYTE   N18  Fs2
 BYTE   N18  Fs3
 BYTE   W24
 BYTE   N09  Cs3
 BYTE   N09  Fs2
 BYTE   N09  Fs3
 BYTE   W12
 BYTE   N18  Cs3
 BYTE   N18  Fs2
 BYTE   N18  Fs3
 BYTE   W24
 BYTE   N09  Cs3
 BYTE   N09  Fs2
 BYTE   N09  Fs3
 BYTE   W12
 BYTE   N18  Cs3
 BYTE   N18  Fs2
 BYTE   N18  Fs3
 BYTE   W24
// 013   ----------------------------------------
 BYTE   Cn3
 BYTE   N18  Fn2
 BYTE   N18  Fn3
 BYTE   W24
 BYTE   N09  Cn3
 BYTE   N09  Fn2
 BYTE   N09  Fn3
 BYTE   W12
 BYTE   PATT
  POIN2 Label_1_01228F54
 BYTE   PATT
  POIN2 Label_1_01228F78
// 014   ----------------------------------------
 BYTE   N18  Ds3  v097
 BYTE   N18  Gs2
 BYTE   N18  Gs3
 BYTE   W24
 BYTE   N09  Ds3
 BYTE   N09  Gs2
 BYTE   N09  Gs3
 BYTE   W12
 BYTE   N18  Ds3
 BYTE   N18  Gs2
 BYTE   N18  Gs3
 BYTE   W24
 BYTE   An3  v094
 BYTE   N18  Dn3
 BYTE   N18  Dn4
 BYTE   W24
 BYTE   N09  An3
 BYTE   N09  Dn3
 BYTE   N09  Dn4
 BYTE   W12
// 015   ----------------------------------------
Label_1_0122900F:
 BYTE   N18  An3  v094
 BYTE   N18  Dn3
 BYTE   N18  Dn4
 BYTE   W24
 BYTE   N09  An3
 BYTE   N09  Dn3
 BYTE   N09  Dn4
 BYTE   W12
 BYTE   N18  An3
 BYTE   N18  Dn3
 BYTE   N18  Dn4
 BYTE   W24
 BYTE   As3
 BYTE   N18  Ds3
 BYTE   N18  Ds4
 BYTE   W24
 BYTE   N09  As3
 BYTE   N09  Ds3
 BYTE   N09  Ds4
 BYTE   W12
 BYTE   PEND 
// 016   ----------------------------------------
Label_1_01229033:
 BYTE   N18  As3  v094
 BYTE   N18  Ds3
 BYTE   N18  Ds4
 BYTE   W24
 BYTE   N09  As3
 BYTE   N09  Ds3
 BYTE   N09  Ds4
 BYTE   W12
 BYTE   N18  As3
 BYTE   N18  Ds3
 BYTE   N18  Ds4
 BYTE   W24
 BYTE   An3
 BYTE   N18  Dn3
 BYTE   N18  Dn4
 BYTE   W24
 BYTE   N09  An3
 BYTE   N09  Dn3
 BYTE   N09  Dn4
 BYTE   W12
 BYTE   PEND 
// 017   ----------------------------------------
Label_1_01229057:
 BYTE   N18  An3  v094
 BYTE   N18  Dn3
 BYTE   N18  Dn4
 BYTE   W24
 BYTE   N09  An3
 BYTE   N09  Dn3
 BYTE   N09  Dn4
 BYTE   W12
 BYTE   N18  An3
 BYTE   N18  Dn3
 BYTE   N18  Dn4
 BYTE   W24
 BYTE   An3
 BYTE   N18  Dn3
 BYTE   N18  Dn4
 BYTE   W24
 BYTE   N09  An3
 BYTE   N09  Dn3
 BYTE   N09  Dn4
 BYTE   W12
 BYTE   PEND 
 BYTE   PATT
  POIN2 Label_1_0122900F
// 018   ----------------------------------------
 BYTE   N18  As3  v094
 BYTE   N18  Ds3
 BYTE   N18  Ds4
 BYTE   W24
 BYTE   N09  As3
 BYTE   N09  Ds3
 BYTE   N09  Ds4
 BYTE   W12
 BYTE   N18  As3
 BYTE   N18  Ds3
 BYTE   N18  Ds4
 BYTE   W24
 BYTE   As3
 BYTE   N18  Ds3
 BYTE   N18  Ds4
 BYTE   W24
 BYTE   N09  As3
 BYTE   N09  Ds3
 BYTE   N09  Ds4
 BYTE   W12
 BYTE   PATT
  POIN2 Label_1_01229033
 BYTE   PATT
  POIN2 Label_1_01229057
 BYTE   PATT
  POIN2 Label_1_0122900F
// 019   ----------------------------------------
 BYTE   N18  As3  v094
 BYTE   N18  Ds3
 BYTE   N18  Ds4
 BYTE   W24
 BYTE   N09  As3
 BYTE   N09  Ds3
 BYTE   N09  Ds4
 BYTE   W12
 BYTE   N18  As3
 BYTE   N18  Ds3
 BYTE   N18  Ds4
 BYTE   W24
 BYTE   Gn3  v095
 BYTE   N18  Cn3
 BYTE   N18  Cn4
 BYTE   W24
 BYTE   N09  Gn3
 BYTE   N09  Cn3
 BYTE   N09  Cn4
 BYTE   W12
// 020   ----------------------------------------
 BYTE   Gn3
 BYTE   N09  Cn3
 BYTE   N09  Cn4
 BYTE   W12
 BYTE   N18  Gn3
 BYTE   N18  Cn3
 BYTE   N18  Cn4
 BYTE   W24
 BYTE   N09  Gn3
 BYTE   N09  Cn3
 BYTE   N09  Cn4
 BYTE   W12
 BYTE   Gn3
 BYTE   N09  Cn3
 BYTE   N09  Cn4
 BYTE   W12
 BYTE   N18  Gn3
 BYTE   N18  Cn3
 BYTE   N18  Cn4
 BYTE   W24
 BYTE   N09  Gn3
 BYTE   N09  Cn3
 BYTE   N09  Cn4
 BYTE   W12
// 021   ----------------------------------------
 BYTE   N18  Gn3
 BYTE   N18  Cn3
 BYTE   N18  Cn4
 BYTE   W24
 BYTE   N09  Gn3
 BYTE   N09  Cn3
 BYTE   N09  Cn4
 BYTE   W12
 BYTE   N18  Fn3
 BYTE   N18  As2
 BYTE   N18  As3
 BYTE   W24
 BYTE   N72  Fs3
 BYTE   N72  Bn2
 BYTE   N72  Bn3
 BYTE   W96
// 022   ----------------------------------------
 BYTE   W24
 BYTE   N09  Fs3
 BYTE   N09  Bn2
 BYTE   N09  Bn3
 BYTE   W12
 BYTE   Fs3
 BYTE   N09  Bn2
 BYTE   N09  Bn3
 BYTE   W12
 BYTE   Fs3
 BYTE   N09  Bn2
 BYTE   N09  Bn3
 BYTE   W12
 BYTE   Fs3
 BYTE   N09  Bn2
 BYTE   N09  Bn3
 BYTE   W12
 BYTE   FINE

//**************** Track 3 (Midi-Chn.2) ****************//

MegamanX3VoltCatfishPandan_003:
// 000   ----------------------------------------
Label_2_01229138:
 BYTE   TEMPO   174*MegamanX3VoltCatfishPandan_tbs/2
 BYTE   KEYSH   MegamanX3VoltCatfishPandan_key+0
 BYTE   W84
 BYTE   VOICE   34
 BYTE   VOL   65*MegamanX3VoltCatfishPandan_mvl/mxv
 BYTE   PAN   c_v-32
 BYTE   N18  Ds1  v123
 BYTE   W24
// 001   ----------------------------------------
Label_2_01229147:
 BYTE   N09  Ds1  v123
 BYTE   W12
 BYTE   N12
 BYTE   W12
 BYTE   N18
 BYTE   W24
 BYTE   N09
 BYTE   W12
 BYTE   N12
 BYTE   W12
 BYTE   N18
 BYTE   W24
 BYTE   PEND 
// 002   ----------------------------------------
Label_2_01229156:
 BYTE   N09  Ds1  v123
 BYTE   W12
 BYTE   N18
 BYTE   W24
 BYTE   N09
 BYTE   W12
 BYTE   N18  Cs1
 BYTE   W24
 BYTE   Ds1
 BYTE   W24
 BYTE   PEND 
 BYTE   PATT
  POIN2 Label_2_01229147
 BYTE   PATT
  POIN2 Label_2_01229156
 BYTE   PATT
  POIN2 Label_2_01229147
 BYTE   PATT
  POIN2 Label_2_01229156
 BYTE   PATT
  POIN2 Label_2_01229147
// 003   ----------------------------------------
 BYTE   N09  Ds1  v123
 BYTE   W12
 BYTE   N18
 BYTE   W24
 BYTE   N09
 BYTE   W12
 BYTE   N18  Cs1
 BYTE   W24
 BYTE   Cs1
 BYTE   W24
// 004   ----------------------------------------
Label_2_0122918A:
 BYTE   N09  Cs1  v123
 BYTE   W12
 BYTE   N24  Cs2
 BYTE   W24
 BYTE   N12  Cs1
 BYTE   W12
 BYTE   N24  Cs2
 BYTE   W24
 BYTE   N18  Ds1
 BYTE   W24
 BYTE   PEND 
// 005   ----------------------------------------
Label_2_0122919B:
 BYTE   N09  Ds1  v123
 BYTE   W12
 BYTE   N24  Ds2
 BYTE   W24
 BYTE   N12  Ds1
 BYTE   W12
 BYTE   N24  Ds2
 BYTE   W24
 BYTE   N18  Cs1
 BYTE   W24
 BYTE   PEND 
 BYTE   PATT
  POIN2 Label_2_0122918A
 BYTE   PATT
  POIN2 Label_2_0122919B
 BYTE   PATT
  POIN2 Label_2_0122918A
 BYTE   PATT
  POIN2 Label_2_0122919B
// 006   ----------------------------------------
 BYTE   N09  Cs1  v123
 BYTE   W12
 BYTE   N24  Cs2
 BYTE   W24
 BYTE   N12  Cs1
 BYTE   W12
 BYTE   N24  Cs2
 BYTE   W20
 BYTE   GoTo
  POIN2 Label_2_01229138
// 007   ----------------------------------------
 BYTE   W04
 BYTE   N18  Ds1  v123
 BYTE   W24
 BYTE   N09
 BYTE   W12
 BYTE   N24  Ds2
 BYTE   W24
 BYTE   N12  Ds1
 BYTE   W12
 BYTE   N24  Ds2
 BYTE   W24
// 008   ----------------------------------------
 BYTE   N18  Fn1
 BYTE   W24
Label_2_012291E5:
 BYTE   N09  Fn1  v123
 BYTE   W12
 BYTE   N18
 BYTE   W24
 BYTE   N09
 BYTE   W12
 BYTE   N18
 BYTE   W24
// 009   ----------------------------------------
 BYTE   Fn1
 BYTE   W24
 BYTE   PEND 
 BYTE   PATT
  POIN2 Label_2_012291E5
 BYTE   PATT
  POIN2 Label_2_012291E5
 BYTE   PATT
  POIN2 Label_2_012291E5
 BYTE   PATT
  POIN2 Label_2_012291E5
 BYTE   PATT
  POIN2 Label_2_012291E5
 BYTE   PATT
  POIN2 Label_2_012291E5
// 010   ----------------------------------------
 BYTE   N09  Fn1  v123
 BYTE   W12
 BYTE   N18
 BYTE   W24
 BYTE   N09
 BYTE   W12
 BYTE   N18
 BYTE   W24
 BYTE   Cn1
 BYTE   W24
// 011   ----------------------------------------
Label_2_0122921C:
 BYTE   N09  Cn1  v123
 BYTE   W12
 BYTE   N18
 BYTE   W24
 BYTE   N09
 BYTE   W12
 BYTE   N18
 BYTE   W24
 BYTE   Bn0
 BYTE   W24
 BYTE   PEND 
// 012   ----------------------------------------
Label_2_01229229:
 BYTE   N09  Bn0  v123
 BYTE   W12
 BYTE   N18
 BYTE   W24
 BYTE   N09
 BYTE   W12
 BYTE   N18
 BYTE   W24
 BYTE   As0
 BYTE   W24
 BYTE   PEND 
// 013   ----------------------------------------
Label_2_01229236:
 BYTE   N09  As0  v123
 BYTE   W12
 BYTE   N18
 BYTE   W24
 BYTE   N09
 BYTE   W12
 BYTE   N18
 BYTE   W24
 BYTE   An0
 BYTE   W24
 BYTE   PEND 
// 014   ----------------------------------------
Label_2_01229243:
 BYTE   N09  An0  v123
 BYTE   W12
 BYTE   N18
 BYTE   W24
 BYTE   N09
 BYTE   W12
 BYTE   N18
 BYTE   W24
 BYTE   Cn1
 BYTE   W24
 BYTE   PEND 
 BYTE   PATT
  POIN2 Label_2_0122921C
 BYTE   PATT
  POIN2 Label_2_01229229
 BYTE   PATT
  POIN2 Label_2_01229236
 BYTE   PATT
  POIN2 Label_2_01229243
// 015   ----------------------------------------
 BYTE   N09  Cn1  v123
 BYTE   W12
 BYTE   N12
 BYTE   W12
 BYTE   N18
 BYTE   W24
 BYTE   N09
 BYTE   W12
 BYTE   N12
 BYTE   W12
 BYTE   N18
 BYTE   W24
// 016   ----------------------------------------
 BYTE   N09
 BYTE   W12
 BYTE   N18
 BYTE   W24
 BYTE   N09
 BYTE   W12
 BYTE   N18  As0
 BYTE   W24
 BYTE   N72  Gn0
 BYTE   W96
// 017   ----------------------------------------
 BYTE   W72
 BYTE   FINE

//**************** Track 4 (Midi-Chn.3) ****************//

MegamanX3VoltCatfishPandan_004:
// 000   ----------------------------------------
Label_3_01229280:
 BYTE   TEMPO   174*MegamanX3VoltCatfishPandan_tbs/2
 BYTE   KEYSH   MegamanX3VoltCatfishPandan_key+0
 BYTE   W84
 BYTE   VOICE   29
 BYTE   VOL   65*MegamanX3VoltCatfishPandan_mvl/mxv
 BYTE   PAN   c_v-4
 BYTE   N36  Ds3  v097
 BYTE   W48
// 001   ----------------------------------------
 BYTE   N48  Cs3
 BYTE   W48
 BYTE   N72  As2
 BYTE   W96
// 002   ----------------------------------------
Label_3_01229295:
 BYTE   N36  Ds3  v097
 BYTE   W48
 BYTE   N48  Cs3
 BYTE   W48
 BYTE   PEND 
// 003   ----------------------------------------
 BYTE   N72  As2  v097
 BYTE   W96
// 004   ----------------------------------------
 BYTE   N36  Ds3
 BYTE   W48
 BYTE   N48  Fs3
 BYTE   W48
// 005   ----------------------------------------
 BYTE   N72  Fn3
 BYTE   W96
 BYTE   PATT
  POIN2 Label_3_01229295
// 006   ----------------------------------------
 BYTE   N72  As2  v097
 BYTE   W96
// 007   ----------------------------------------
 BYTE   N36  Cs3
 BYTE   W72
 BYTE   N09
 BYTE   W12
 BYTE   N12
 BYTE   W12
// 008   ----------------------------------------
 BYTE   Ds3
 BYTE   W12
 BYTE   Ds3  v083
 BYTE   W12
 BYTE   Cs3  v097
 BYTE   W12
 BYTE   Cs3  v083
 BYTE   W12
 BYTE   As2  v097
 BYTE   W12
 BYTE   As2  v083
 BYTE   W12
 BYTE   N18  Fs2  v097
 BYTE   W24
// 009   ----------------------------------------
 BYTE   N36  Gs2
 BYTE   W72
 BYTE   N18
 BYTE   W24
// 010   ----------------------------------------
 BYTE   N09  Fs2
 BYTE   W12
 BYTE   N12  Fs2  v083
 BYTE   W12
 BYTE   As2  v097
 BYTE   W12
 BYTE   As2  v083
 BYTE   W12
 BYTE   Cs3  v097
 BYTE   W12
 BYTE   Cs3  v083
 BYTE   W12
 BYTE   N18  Ds3  v097
 BYTE   W24
// 011   ----------------------------------------
 BYTE   N36  Cs3
 BYTE   W36
 BYTE   N24
 BYTE   W24
 BYTE   N09
 BYTE   W12
 BYTE   N18
 BYTE   W24
// 012   ----------------------------------------
 BYTE   N09  Fs3
 BYTE   W12
 BYTE   N12  Fs3  v083
 BYTE   W12
 BYTE   As2  v097
 BYTE   W12
 BYTE   As2  v083
 BYTE   W12
 BYTE   Cs3  v097
 BYTE   W12
 BYTE   Cs3  v083
 BYTE   W12
 BYTE   N18  Ds3  v097
 BYTE   W24
// 013   ----------------------------------------
 BYTE   N36  Cs3
 BYTE   W60
 BYTE   N18  Gs3
 BYTE   W32
 BYTE   GoTo
  POIN2 Label_3_01229280
// 014   ----------------------------------------
 BYTE   W04
 BYTE   N09  As3  v097
 BYTE   W12
 BYTE   N12  As3  v082
 BYTE   W12
 BYTE   As3  v097
 BYTE   W12
 BYTE   As3
 BYTE   W12
 BYTE   N18  As3  v083
 BYTE   W24
 BYTE   N09  As3  v091
 BYTE   W12
 BYTE   N12  As3  v080
 BYTE   W12
// 015   ----------------------------------------
 BYTE   N36  Fn3  v096
 BYTE   W96
// 016   ----------------------------------------
 BYTE   N96  Fs3
 BYTE   W96
// 017   ----------------------------------------
 BYTE   Gs3
 BYTE   W96
// 018   ----------------------------------------
 BYTE   Fs3
 BYTE   W96
// 019   ----------------------------------------
 BYTE   Fn3
 BYTE   W96
// 020   ----------------------------------------
 BYTE   Fs3
 BYTE   W96
// 021   ----------------------------------------
 BYTE   Gs3
 BYTE   W96
// 022   ----------------------------------------
 BYTE   Bn3
 BYTE   W96
// 023   ----------------------------------------
 BYTE   W12
 BYTE   N60  Gn4  v095
 BYTE   W60
 BYTE   N18  Cn4
 BYTE   W24
// 024   ----------------------------------------
 BYTE   N24  Dn4
 BYTE   W24
 BYTE   N09  Cn4
 BYTE   W12
 BYTE   N12  Bn3
 BYTE   W12
 BYTE   N18  Fn3
 BYTE   W24
 BYTE   N24
 BYTE   W24
// 025   ----------------------------------------
 BYTE   N36  Dn4
 BYTE   W72
 BYTE   N09  Fn4
 BYTE   W12
 BYTE   N12  Dn4
 BYTE   W12
// 026   ----------------------------------------
 BYTE   Dn4
 BYTE   W12
 BYTE   N18  Ds4
 BYTE   W36
 BYTE   N24  An3
 BYTE   W24
 BYTE   Fn3
 BYTE   W24
// 027   ----------------------------------------
 BYTE   Gn3
 BYTE   W24
 BYTE   N09  As3
 BYTE   W12
 BYTE   N12  Cn4
 BYTE   W12
 BYTE   N18  Gn3
 BYTE   W24
 BYTE   N09  As3
 BYTE   W12
 BYTE   N12  Cn4
 BYTE   W12
// 028   ----------------------------------------
 BYTE   N18  Bn3
 BYTE   W24
 BYTE   N09  Cn4
 BYTE   W12
 BYTE   N12  Dn4
 BYTE   W12
 BYTE   N18  Bn3
 BYTE   W24
 BYTE   N09  Cn4
 BYTE   W12
 BYTE   N12  Dn4
 BYTE   W12
// 029   ----------------------------------------
 BYTE   N18  Cn4
 BYTE   W24
 BYTE   N09  Dn4
 BYTE   W12
 BYTE   N12  Ds4
 BYTE   W12
 BYTE   N18  Cn4
 BYTE   W24
 BYTE   N09  Dn4
 BYTE   W12
 BYTE   N12  Ds4
 BYTE   W12
// 030   ----------------------------------------
 BYTE   N36  Gn4
 BYTE   W72
 BYTE   N18
 BYTE   W24
// 031   ----------------------------------------
 BYTE   N36
 BYTE   W36
 BYTE   N24  Fs4
 BYTE   W24
 BYTE   Fn4
 BYTE   W24
 BYTE   N09  En4
 BYTE   W12
// 032   ----------------------------------------
 BYTE   N18  Ds4
 BYTE   W36
 BYTE   N24  Dn4
 BYTE   W24
 BYTE   Cs4
 BYTE   W24
 BYTE   N09  Cn4
 BYTE   W12
// 033   ----------------------------------------
 BYTE   N72  Dn4
 BYTE   W96
// 034   ----------------------------------------
 BYTE   W24
 BYTE   VOICE   30
 BYTE   N09  Dn3  v099
 BYTE   N09  Gn2
 BYTE   N09  Gn3
 BYTE   W12
 BYTE   Dn3
 BYTE   N09  Gn2
 BYTE   N09  Gn3
 BYTE   W12
 BYTE   Dn3
 BYTE   N09  Gn2
 BYTE   N09  Gn3
 BYTE   W12
 BYTE   Dn3
 BYTE   N09  Gn2
 BYTE   N09  Gn3
 BYTE   W12
 BYTE   FINE

//**************** Track 5 (Midi-Chn.4) ****************//

MegamanX3VoltCatfishPandan_005:
// 000   ----------------------------------------
Label_4_012293DC:
 BYTE   TEMPO   174*MegamanX3VoltCatfishPandan_tbs/2
 BYTE   KEYSH   MegamanX3VoltCatfishPandan_key+0
 BYTE   W84
 BYTE   VOICE   30
 BYTE   VOL   65*MegamanX3VoltCatfishPandan_mvl/mxv
 BYTE   PAN   c_v-24
 BYTE   N18  Fn2  v096
 BYTE   N18  As1
 BYTE   N18  As2
 BYTE   W24
// 001   ----------------------------------------
Label_4_012293EF:
 BYTE   N09  Fn2  v096
 BYTE   N09  As1
 BYTE   N09  As2
 BYTE   W12
 BYTE   Fn2
 BYTE   N09  As1
 BYTE   N09  As2
 BYTE   W12
 BYTE   N18  Fn2
 BYTE   N18  As1
 BYTE   N18  As2
 BYTE   W24
 BYTE   N09  Fn2
 BYTE   N09  As1
 BYTE   N09  As2
 BYTE   W12
 BYTE   Fn2
 BYTE   N09  As1
 BYTE   N09  As2
 BYTE   W12
 BYTE   N18  Fn2
 BYTE   N18  As1
 BYTE   N18  As2
 BYTE   W24
 BYTE   PEND 
// 002   ----------------------------------------
Label_4_01229419:
 BYTE   N09  Fn2  v096
 BYTE   N09  As1
 BYTE   N09  As2
 BYTE   W12
 BYTE   N18  Fn2
 BYTE   N18  As1
 BYTE   N18  As2
 BYTE   W24
 BYTE   N09  Fn2
 BYTE   N09  As1
 BYTE   N09  As2
 BYTE   W12
 BYTE   N18  Ds2
 BYTE   N18  Gs1
 BYTE   N18  Gs2
 BYTE   W24
 BYTE   Fn2
 BYTE   N18  As1
 BYTE   N18  As2
 BYTE   W24
 BYTE   PEND 
 BYTE   PATT
  POIN2 Label_4_012293EF
 BYTE   PATT
  POIN2 Label_4_01229419
 BYTE   PATT
  POIN2 Label_4_012293EF
 BYTE   PATT
  POIN2 Label_4_01229419
 BYTE   PATT
  POIN2 Label_4_012293EF
// 003   ----------------------------------------
 BYTE   N09  Fn2  v096
 BYTE   N09  As1
 BYTE   N09  As2
 BYTE   W12
 BYTE   N18  Fn2
 BYTE   N18  As1
 BYTE   N18  As2
 BYTE   W24
 BYTE   N09  Fn2
 BYTE   N09  As1
 BYTE   N09  As2
 BYTE   W12
 BYTE   N18  Ds2
 BYTE   N18  Gs1
 BYTE   N18  Gs2
 BYTE   W24
 BYTE   Ds2
 BYTE   N18  Gs1
 BYTE   N18  Gs2
 BYTE   W24
// 004   ----------------------------------------
 BYTE   N09  Ds2
 BYTE   N09  Gs1
 BYTE   N09  Gs2
 BYTE   W12
 BYTE   N18  Ds2
 BYTE   N18  Gs1
 BYTE   N18  Gs2
 BYTE   W24
 BYTE   N09  Ds2
 BYTE   N09  Gs1
 BYTE   N09  Gs2
 BYTE   W12
 BYTE   N18  Ds2
 BYTE   N18  Gs1
 BYTE   N18  Gs2
 BYTE   W24
 BYTE   Fn2
 BYTE   N18  As1
 BYTE   N18  As2
 BYTE   W36
// 005   ----------------------------------------
Label_4_0122949B:
 BYTE   N18  Fn2  v096
 BYTE   N18  As1
 BYTE   N18  As2
 BYTE   W36
 BYTE   Fn2
 BYTE   N18  As1
 BYTE   N18  As2
 BYTE   W24
 BYTE   Ds2
 BYTE   N18  Gs1
 BYTE   N18  Gs2
 BYTE   W24
 BYTE   N09  Ds2
 BYTE   N09  Gs1
 BYTE   N09  Gs2
 BYTE   W12
 BYTE   PEND 
// 006   ----------------------------------------
Label_4_012294B7:
 BYTE   N18  Ds2  v096
 BYTE   N18  Gs1
 BYTE   N18  Gs2
 BYTE   W24
 BYTE   N09  Ds2
 BYTE   N09  Gs1
 BYTE   N09  Gs2
 BYTE   W12
 BYTE   N18  Ds2
 BYTE   N18  Gs1
 BYTE   N18  Gs2
 BYTE   W24
 BYTE   Fn2
 BYTE   N18  As1
 BYTE   N18  As2
 BYTE   W36
 BYTE   PEND 
 BYTE   PATT
  POIN2 Label_4_0122949B
 BYTE   PATT
  POIN2 Label_4_012294B7
 BYTE   PATT
  POIN2 Label_4_0122949B
// 007   ----------------------------------------
 BYTE   N18  Ds2  v096
 BYTE   N18  Gs1
 BYTE   N18  Gs2
 BYTE   W24
 BYTE   N09  Ds2
 BYTE   N09  Gs1
 BYTE   N09  Gs2
 BYTE   W12
 BYTE   N18  Ds2
 BYTE   N18  Gs1
 BYTE   N18  Gs2
 BYTE   W20
 BYTE   GoTo
  POIN2 Label_4_012293DC
// 008   ----------------------------------------
 BYTE   W04
 BYTE   N18  Fn2  v096
 BYTE   N18  As1
 BYTE   N18  As2
 BYTE   W24
 BYTE   N09  Fn2
 BYTE   N09  As1
 BYTE   N09  As2
 BYTE   W12
 BYTE   N18  Fn2
 BYTE   N18  As1
 BYTE   N18  As2
 BYTE   W24
 BYTE   N09  Fn2
 BYTE   N09  As1
 BYTE   N09  As2
 BYTE   W12
 BYTE   N18  Fn2
 BYTE   N18  As1
 BYTE   N18  As2
 BYTE   W24
// 009   ----------------------------------------
 BYTE   Gn2
 BYTE   N18  Cn2
 BYTE   N18  Cn3
 BYTE   W24
 BYTE   N09  Gn2
 BYTE   N09  Cn2
 BYTE   N09  Cn3
 BYTE   W12
Label_4_01229530:
 BYTE   N18  Gn2  v096
 BYTE   N18  Cn2
 BYTE   N18  Cn3
 BYTE   W24
 BYTE   N09  Gn2
 BYTE   N09  Cn2
 BYTE   N09  Cn3
 BYTE   W12
 BYTE   N18  Gn2
 BYTE   N18  Cn2
 BYTE   N18  Cn3
 BYTE   W24
// 010   ----------------------------------------
 BYTE   Gs2
 BYTE   N18  Cs2
 BYTE   N18  Cs3
 BYTE   W24
 BYTE   N09  Gs2
 BYTE   N09  Cs2
 BYTE   N09  Cs3
 BYTE   W12
 BYTE   PEND 
Label_4_01229554:
 BYTE   N18  Gs2  v096
 BYTE   N18  Cs2
 BYTE   N18  Cs3
 BYTE   W24
 BYTE   N09  Gs2
 BYTE   N09  Cs2
 BYTE   N09  Cs3
 BYTE   W12
 BYTE   N18  Gs2
 BYTE   N18  Cs2
 BYTE   N18  Cs3
 BYTE   W24
// 011   ----------------------------------------
 BYTE   As2
 BYTE   N18  Ds2
 BYTE   N18  Ds3
 BYTE   W24
 BYTE   N09  As2
 BYTE   N09  Ds2
 BYTE   N09  Ds3
 BYTE   W12
 BYTE   PEND 
 BYTE   N18  As2  v096
 BYTE   N18  Ds2
 BYTE   N18  Ds3
 BYTE   W24
 BYTE   N09  As2
 BYTE   N09  Ds2
 BYTE   N09  Ds3
 BYTE   W12
 BYTE   N18  As2
 BYTE   N18  Ds2
 BYTE   N18  Ds3
 BYTE   W24
// 012   ----------------------------------------
 BYTE   Gs2
 BYTE   N18  Cs2
 BYTE   N18  Cs3
 BYTE   W24
 BYTE   N09  Gs2
 BYTE   N09  Cs2
 BYTE   N09  Cs3
 BYTE   W12
 BYTE   N18  Gs2
 BYTE   N18  Cs2
 BYTE   N18  Cs3
 BYTE   W24
 BYTE   N09  Gs2
 BYTE   N09  Cs2
 BYTE   N09  Cs3
 BYTE   W12
 BYTE   N18  Gs2
 BYTE   N18  Cs2
 BYTE   N18  Cs3
 BYTE   W24
// 013   ----------------------------------------
 BYTE   Gn2
 BYTE   N18  Cn2
 BYTE   N18  Cn3
 BYTE   W24
 BYTE   N09  Gn2
 BYTE   N09  Cn2
 BYTE   N09  Cn3
 BYTE   W12
 BYTE   PATT
  POIN2 Label_4_01229530
 BYTE   PATT
  POIN2 Label_4_01229554
// 014   ----------------------------------------
 BYTE   N18  As2  v096
 BYTE   N18  Ds2
 BYTE   N18  Ds3
 BYTE   W24
 BYTE   N09  As2
 BYTE   N09  Ds2
 BYTE   N09  Ds3
 BYTE   W12
 BYTE   N18  As2
 BYTE   N18  Ds2
 BYTE   N18  Ds3
 BYTE   W24
 BYTE   Ds3  v093
 BYTE   N18  Gs2
 BYTE   N18  Gs3
 BYTE   W24
 BYTE   N09  Ds3
 BYTE   N09  Gs2
 BYTE   N09  Gs3
 BYTE   W12
// 015   ----------------------------------------
 BYTE   N18  Ds3
 BYTE   N18  Gs2
 BYTE   N18  Gs3
 BYTE   W24
 BYTE   N09  Ds3
 BYTE   N09  Gs2
 BYTE   N09  Gs3
 BYTE   W12
 BYTE   N18  Ds3
 BYTE   N18  Gs2
 BYTE   N18  Gs3
 BYTE   W24
 BYTE   Dn3
 BYTE   N18  Gn2
 BYTE   N18  Gn3
 BYTE   W24
 BYTE   N09  Dn3
 BYTE   N09  Gn2
 BYTE   N09  Gn3
 BYTE   W12
// 016   ----------------------------------------
Label_4_0122960D:
 BYTE   N18  Dn3  v093
 BYTE   N18  Gn2
 BYTE   N18  Gn3
 BYTE   W24
 BYTE   N09  Dn3
 BYTE   N09  Gn2
 BYTE   N09  Gn3
 BYTE   W12
 BYTE   N18  Dn3
 BYTE   N18  Gn2
 BYTE   N18  Gn3
 BYTE   W24
 BYTE   Dn3
 BYTE   N18  Gn2
 BYTE   N18  Gn3
 BYTE   W24
 BYTE   N09  Dn3
 BYTE   N09  Gn2
 BYTE   N09  Gn3
 BYTE   W12
 BYTE   PEND 
// 017   ----------------------------------------
Label_4_01229631:
 BYTE   N18  Dn3  v093
 BYTE   N18  Gn2
 BYTE   N18  Gn3
 BYTE   W24
 BYTE   N09  Dn3
 BYTE   N09  Gn2
 BYTE   N09  Gn3
 BYTE   W12
 BYTE   N18  Dn3
 BYTE   N18  Gn2
 BYTE   N18  Gn3
 BYTE   W24
 BYTE   Cn3
 BYTE   N18  Fn2
 BYTE   N18  Fn3
 BYTE   W24
 BYTE   N09  Cn3
 BYTE   N09  Fn2
 BYTE   N09  Fn3
 BYTE   W12
 BYTE   PEND 
// 018   ----------------------------------------
Label_4_01229655:
 BYTE   N18  Cn3  v093
 BYTE   N18  Fn2
 BYTE   N18  Fn3
 BYTE   W24
 BYTE   N09  Cn3
 BYTE   N09  Fn2
 BYTE   N09  Fn3
 BYTE   W12
 BYTE   N18  Cn3
 BYTE   N18  Fn2
 BYTE   N18  Fn3
 BYTE   W24
 BYTE   En3
 BYTE   N18  An2
 BYTE   N18  An3
 BYTE   W24
 BYTE   N09  En3
 BYTE   N09  An2
 BYTE   N09  An3
 BYTE   W12
 BYTE   PEND 
// 019   ----------------------------------------
 BYTE   N18  En3  v093
 BYTE   N18  An2
 BYTE   N18  An3
 BYTE   W24
 BYTE   N09  En3
 BYTE   N09  An2
 BYTE   N09  An3
 BYTE   W12
 BYTE   N18  En3
 BYTE   N18  An2
 BYTE   N18  An3
 BYTE   W24
 BYTE   Dn3
 BYTE   N18  Gn2
 BYTE   N18  Gn3
 BYTE   W24
 BYTE   N09  Dn3
 BYTE   N09  Gn2
 BYTE   N09  Gn3
 BYTE   W12
 BYTE   PATT
  POIN2 Label_4_0122960D
 BYTE   PATT
  POIN2 Label_4_01229631
 BYTE   PATT
  POIN2 Label_4_01229655
// 020   ----------------------------------------
 BYTE   N18  En3  v093
 BYTE   N18  An2
 BYTE   N18  An3
 BYTE   W24
 BYTE   N09  En3
 BYTE   N09  An2
 BYTE   N09  An3
 BYTE   W12
 BYTE   N18  En3
 BYTE   N18  An2
 BYTE   N18  An3
 BYTE   W24
 BYTE   Dn3  v095
 BYTE   N18  Gn2
 BYTE   N18  Gn3
 BYTE   W24
 BYTE   N09  Dn3
 BYTE   N09  Gn2
 BYTE   N09  Gn3
 BYTE   W12
// 021   ----------------------------------------
 BYTE   Dn3
 BYTE   N09  Gn2
 BYTE   N09  Gn3
 BYTE   W12
 BYTE   N18  Dn3
 BYTE   N18  Gn2
 BYTE   N18  Gn3
 BYTE   W24
 BYTE   N09  Dn3
 BYTE   N09  Gn2
 BYTE   N09  Gn3
 BYTE   W12
 BYTE   Dn3
 BYTE   N09  Gn2
 BYTE   N09  Gn3
 BYTE   W12
 BYTE   N18  Dn3
 BYTE   N18  Gn2
 BYTE   N18  Gn3
 BYTE   W24
 BYTE   N09  Dn3
 BYTE   N09  Gn2
 BYTE   N09  Gn3
 BYTE   W12
// 022   ----------------------------------------
 BYTE   N18  Dn3
 BYTE   N18  Gn2
 BYTE   N18  Gn3
 BYTE   W24
 BYTE   N09  Dn3
 BYTE   N09  Gn2
 BYTE   N09  Gn3
 BYTE   W12
 BYTE   N18  Cn3
 BYTE   N18  Fn2
 BYTE   N18  Fn3
 BYTE   W24
 BYTE   N72  An2
 BYTE   N72  Dn2
 BYTE   N72  Dn3
 BYTE   W96
// 023   ----------------------------------------
 BYTE   W24
 BYTE   N09  An2
 BYTE   N09  Dn2
 BYTE   N09  Dn3
 BYTE   W12
 BYTE   An2
 BYTE   N09  Dn2
 BYTE   N09  Dn3
 BYTE   W12
 BYTE   An2
 BYTE   N09  Dn2
 BYTE   N09  Dn3
 BYTE   W12
 BYTE   An2
 BYTE   N09  Dn2
 BYTE   N09  Dn3
 BYTE   W12
 BYTE   FINE

//**************** Track 6 (Midi-Chn.5) ****************//

MegamanX3VoltCatfishPandan_006:
// 000   ----------------------------------------
Label_5_01229730:
 BYTE   TEMPO   174*MegamanX3VoltCatfishPandan_tbs/2
 BYTE   KEYSH   MegamanX3VoltCatfishPandan_key+0
 BYTE   VOICE   56
 BYTE   VOL   68*MegamanX3VoltCatfishPandan_mvl/mxv
 BYTE   PAN   c_v+0
 BYTE   N09  An2  v119
 BYTE   N18  Cn1  v105
 BYTE   W24
 BYTE   N09  An2  v119
 BYTE   N18  Cn1  v105
 BYTE   W24
 BYTE   N09  An2  v119
 BYTE   N18  Cn1  v105
 BYTE   W24
 BYTE   N09
 BYTE   N09  An2  v119
 BYTE   W12
 BYTE   N24  An2  v105
 BYTE   W24
// 001   ----------------------------------------
Label_5_01229758:
 BYTE   N09  Cn1  v105
 BYTE   W12
 BYTE   N12  Dn1  v115
 BYTE   W12
 BYTE   N24  An2  v105
 BYTE   W24
 BYTE   N12  Cn1
 BYTE   W12
 BYTE   Dn1  v115
 BYTE   W12
 BYTE   N24  An2  v105
 BYTE   W24
 BYTE   PEND 
// 002   ----------------------------------------
Label_5_0122976F:
 BYTE   N09  Cn1  v105
 BYTE   W12
 BYTE   N24  Dn1  v115
 BYTE   W24
 BYTE   N12  Cn1  v105
 BYTE   W12
 BYTE   Cn1
 BYTE   W12
 BYTE   Dn1  v115
 BYTE   W12
 BYTE   N24  An2  v105
 BYTE   W24
 BYTE   PEND 
 BYTE   PATT
  POIN2 Label_5_01229758
 BYTE   PATT
  POIN2 Label_5_0122976F
 BYTE   PATT
  POIN2 Label_5_01229758
 BYTE   PATT
  POIN2 Label_5_0122976F
 BYTE   PATT
  POIN2 Label_5_01229758
// 003   ----------------------------------------
 BYTE   N09  Cn1  v105
 BYTE   W12
 BYTE   N24  Dn1  v115
 BYTE   W24
 BYTE   N12  Cn1  v105
 BYTE   W12
 BYTE   Dn1  v115
 BYTE   W12
 BYTE   Dn1
 BYTE   W12
 BYTE   N24  An2  v105
 BYTE   W24
// 004   ----------------------------------------
Label_5_012297B3:
 BYTE   N09  Cn1  v105
 BYTE   W12
 BYTE   N18  Dn1  v115
 BYTE   W24
 BYTE   N09  Cn1  v105
 BYTE   W12
 BYTE   N12
 BYTE   W12
 BYTE   Dn1  v115
 BYTE   W12
 BYTE   N18  Cn1  v105
 BYTE   W24
 BYTE   PEND 
// 005   ----------------------------------------
Label_5_012297C9:
 BYTE   N09  Cn1  v105
 BYTE   W12
 BYTE   N18  Dn1  v115
 BYTE   W24
 BYTE   N09  Cn1  v105
 BYTE   W12
 BYTE   N12
 BYTE   W12
 BYTE   Dn1  v115
 BYTE   W12
 BYTE   N24  An2  v105
 BYTE   W24
 BYTE   PEND 
 BYTE   PATT
  POIN2 Label_5_012297B3
 BYTE   PATT
  POIN2 Label_5_012297C9
 BYTE   PATT
  POIN2 Label_5_012297B3
 BYTE   PATT
  POIN2 Label_5_012297C9
// 006   ----------------------------------------
 BYTE   N09  Cn1  v105
 BYTE   W12
 BYTE   N18  Dn1  v115
 BYTE   W24
 BYTE   N09  Cn1  v105
 BYTE   W12
 BYTE   N12
 BYTE   W12
 BYTE   Dn1  v115
 BYTE   W08
 BYTE   GoTo
  POIN2 Label_5_01229730
// 007   ----------------------------------------
 BYTE   W04
 BYTE   N18  Cn1  v105
 BYTE   W24
 BYTE   N09
 BYTE   W12
 BYTE   N18  Dn1  v115
 BYTE   W24
 BYTE   N09  Cn1  v105
 BYTE   W12
 BYTE   N12  Dn1  v115
 BYTE   W12
 BYTE   Dn1
 BYTE   W12
// 008   ----------------------------------------
 BYTE   N24  An2  v105
 BYTE   W24
 BYTE   PATT
  POIN2 Label_5_012297C9
 BYTE   PATT
  POIN2 Label_5_012297C9
 BYTE   PATT
  POIN2 Label_5_012297C9
 BYTE   PATT
  POIN2 Label_5_012297C9
 BYTE   PATT
  POIN2 Label_5_012297C9
 BYTE   PATT
  POIN2 Label_5_012297C9
 BYTE   PATT
  POIN2 Label_5_012297C9
// 009   ----------------------------------------
 BYTE   N09  Cn1  v105
 BYTE   W12
 BYTE   N12  Dn1  v115
 BYTE   W12
 BYTE   An2  v105
 BYTE   W12
 BYTE   Cn1
 BYTE   W12
 BYTE   Dn1  v115
 BYTE   W12
 BYTE   Dn1
 BYTE   W12
 BYTE   N24  An2  v105
 BYTE   W24
 BYTE   PATT
  POIN2 Label_5_012297B3
 BYTE   PATT
  POIN2 Label_5_012297B3
 BYTE   PATT
  POIN2 Label_5_012297B3
 BYTE   PATT
  POIN2 Label_5_012297C9
 BYTE   PATT
  POIN2 Label_5_012297B3
 BYTE   PATT
  POIN2 Label_5_012297B3
 BYTE   PATT
  POIN2 Label_5_012297B3
 BYTE   PATT
  POIN2 Label_5_012297C9
// 010   ----------------------------------------
 BYTE   N09  Cn1  v105
 BYTE   W12
 BYTE   N12  Dn1  v115
 BYTE   W12
 BYTE   N18  Cn1  v105
 BYTE   W24
 BYTE   N09
 BYTE   W12
 BYTE   N12  Dn1  v115
 BYTE   W12
 BYTE   N24  An2  v105
 BYTE   W24
 BYTE   PATT
  POIN2 Label_5_012297C9
 BYTE   PATT
  POIN2 Label_5_01229758
// 011   ----------------------------------------
 BYTE   N09  Dn1  v115
 BYTE   W12
 BYTE   N12
 BYTE   W12
 BYTE   Cn1  v105
 BYTE   W12
 BYTE   Dn1  v115
 BYTE   W12
 BYTE   Dn1
 BYTE   FINE

//******************************************************//
	ALIGN 4

MegamanX3VoltCatfishPandan:
	BYTE	6	// NumTrks
	BYTE	0	// NumBlks
	BYTE	MegamanX3VoltCatfishPandan_pri	// Priority
	BYTE	MegamanX3VoltCatfishPandan_rev	// Reverb.
    
	POIN2	MegamanX3VoltCatfishPandan_grp
    
	POIN2	MegamanX3VoltCatfishPandan_001
	POIN2	MegamanX3VoltCatfishPandan_002
	POIN2	MegamanX3VoltCatfishPandan_003
	POIN2	MegamanX3VoltCatfishPandan_004
	POIN2	MegamanX3VoltCatfishPandan_005
	POIN2	MegamanX3VoltCatfishPandan_006

	
