//Event file generated from Sappy .s format.
	#include "MPlayDef.event"

	#define	FF10BrassdeChocoboTak_grp  voicegroup000
	#define	FF10BrassdeChocoboTak_pri  0
	#define	FF10BrassdeChocoboTak_rev  0
	#define	FF10BrassdeChocoboTak_mvl  127
	#define	FF10BrassdeChocoboTak_key  0
	#define	FF10BrassdeChocoboTak_tbs  1
	#define	FF10BrassdeChocoboTak_exg  0
	#define	FF10BrassdeChocoboTak_cmp  1

	// .rodata
	//	FF10BrassdeChocoboTak
	ALIGN 4


//**************** Track 1 (Midi-Chn.0) ****************//

FF10BrassdeChocoboTak_001:
//  #01 //000   ----------------------------------------
 BYTE   KEYSH   FF10BrassdeChocoboTak_key+0
 BYTE   TEMPO   102*FF10BrassdeChocoboTak_tbs/2
 BYTE   VOICE   61
 BYTE   VOL   77*FF10BrassdeChocoboTak_mvl/mxv
 BYTE   PAN   c_v+26
 BYTE   BENDR  12
 BYTE   W96
//  #01 //001   ----------------------------------------
 BYTE   W96
//  #01 //002   ----------------------------------------
Label_01003032:
 BYTE   N04  En3  v100
 BYTE   W18
 BYTE   Gn3
 BYTE   W18
 BYTE   An3  v078
 BYTE   W12
 BYTE   En3  v100
 BYTE   W18
 BYTE   Gn3
 BYTE   W18
 BYTE   An3  v078
 BYTE   W12
//  #01 //003   ----------------------------------------
Label_01003043:
 BYTE   N04  En3  v100
 BYTE   W18
 BYTE   Gn3
 BYTE   W18
 BYTE   An3  v078
 BYTE   W12
 BYTE   N08  Gn3  v100
 BYTE   W08
 BYTE   N04
 BYTE   W04
 BYTE   N08  An3
 BYTE   W08
 BYTE   N04  Gn3
 BYTE   W28
 BYTE   PEND 
//  #01 //004   ----------------------------------------
Label_01003059:
 BYTE   N04  En3  v100
 BYTE   W18
 BYTE   Gn3
 BYTE   W18
 BYTE   An3  v078
 BYTE   W12
 BYTE   En3  v100
 BYTE   W18
 BYTE   Gn3
 BYTE   W18
 BYTE   An3  v078
 BYTE   W12
 BYTE   PEND 
//  #01 //005   ----------------------------------------
Label_0100306B:
 BYTE   N04  En3  v100
 BYTE   W18
 BYTE   Gn3
 BYTE   W18
 BYTE   An3  v078
 BYTE   W12
 BYTE   N08  Gn3  v100
 BYTE   W08
 BYTE   N04  En3
 BYTE   W12
 BYTE   N22  Ds3
 BYTE   W28
 BYTE   PEND 
//  #01 //006   ----------------------------------------
 BYTE   PATT
  POIN2 Label_01003059
//  #01 //007   ----------------------------------------
 BYTE   PATT
  POIN2 Label_01003043
//  #01 //008   ----------------------------------------
 BYTE   PATT
  POIN2 Label_01003059
//  #01 //009   ----------------------------------------
Label_0100308E:
 BYTE   N04  As3  v100
 BYTE   W18
 BYTE   Bn3
 BYTE   W18
 BYTE   Dn4
 BYTE   W18
 BYTE   N18  En4
 BYTE   W18
 BYTE   N04  Fn4
 BYTE   W12
 BYTE   Fs4
 BYTE   W12
 BYTE   PEND 
//  #01 //010   ----------------------------------------
Label_0100309F:
 BYTE   N08  Gn4  v100
 BYTE   W36
 BYTE   N12  En4
 BYTE   W12
 BYTE   N08  Fn4
 BYTE   W36
 BYTE   N12  Dn4
 BYTE   W12
 BYTE   PEND 
//  #01 //011   ----------------------------------------
Label_010030AD:
 BYTE   N12  Gn4  v100
 BYTE   W12
 BYTE   Dn4
 BYTE   W12
 BYTE   Fn4
 BYTE   W12
 BYTE   Dn4
 BYTE   W48
 BYTE   Fs4
 BYTE   W12
 BYTE   PEND 
//  #01 //012   ----------------------------------------
Label_010030BA:
 BYTE   N08  Gn4  v100
 BYTE   W36
 BYTE   N12  En4
 BYTE   W12
 BYTE   N08  Fn4
 BYTE   W36
 BYTE   N12  Fs4
 BYTE   W12
 BYTE   PEND 
//  #01 //013   ----------------------------------------
Label_010030C8:
 BYTE   N02  Gn4  v100
 BYTE   W02
 BYTE   N04  An4
 BYTE   W04
 BYTE   N02  Gn4
 BYTE   W02
 BYTE   N04  Fs4
 BYTE   W04
 BYTE   N08  Gn4
 BYTE   W08
 BYTE   N04  Bn4
 BYTE   W04
 BYTE   N08  Dn5
 BYTE   W08
 BYTE   N04  En5
 BYTE   W12
 BYTE   Fn5
 BYTE   W52
 BYTE   PEND 
//  #01 //014   ----------------------------------------
 BYTE   W96
//  #01 //015   ----------------------------------------
 BYTE   W96
//  #01 //016   ----------------------------------------
 BYTE   W96
//  #01 //017   ----------------------------------------
 BYTE   W96
//  #01 //018   ----------------------------------------
 BYTE   W96
//  #01 //019   ----------------------------------------
 BYTE   W96
//  #01 //020   ----------------------------------------
 BYTE   W96
//  #01 //021   ----------------------------------------
 BYTE   W96
//  #01 //022   ----------------------------------------
 BYTE   W96
//  #01 //023   ----------------------------------------
 BYTE   W96
//  #01 //024   ----------------------------------------
 BYTE   W96
//  #01 //025   ----------------------------------------
 BYTE   W96
//  #01 //026   ----------------------------------------
 BYTE   W96
//  #01 //027   ----------------------------------------
 BYTE   W96
//  #01 //028   ----------------------------------------
 BYTE   W96
//  #01 //029   ----------------------------------------
 BYTE   W96
//  #01 //030   ----------------------------------------
 BYTE   W96
//  #01 //031   ----------------------------------------
 BYTE   W96
//  #01 //032   ----------------------------------------
 BYTE   PATT
  POIN2 Label_01003059
//  #01 //033   ----------------------------------------
 BYTE   PATT
  POIN2 Label_01003043
//  #01 //034   ----------------------------------------
 BYTE   PATT
  POIN2 Label_01003059
//  #01 //035   ----------------------------------------
 BYTE   PATT
  POIN2 Label_0100306B
//  #01 //036   ----------------------------------------
 BYTE   PATT
  POIN2 Label_01003059
//  #01 //037   ----------------------------------------
 BYTE   PATT
  POIN2 Label_01003043
//  #01 //038   ----------------------------------------
 BYTE   PATT
  POIN2 Label_01003059
//  #01 //039   ----------------------------------------
 BYTE   PATT
  POIN2 Label_0100308E
//  #01 //040   ----------------------------------------
 BYTE   PATT
  POIN2 Label_0100309F
//  #01 //041   ----------------------------------------
 BYTE   PATT
  POIN2 Label_010030AD
//  #01 //042   ----------------------------------------
 BYTE   PATT
  POIN2 Label_010030BA
//  #01 //043   ----------------------------------------
 BYTE   PATT
  POIN2 Label_010030C8
//  #01 //044   ----------------------------------------
 BYTE   W96
//  #01 //045   ----------------------------------------
 BYTE   W96
//  #01 //046   ----------------------------------------
 BYTE   W96
//  #01 //047   ----------------------------------------
 BYTE   W96
//  #01 //048   ----------------------------------------
 BYTE   W96
//  #01 //049   ----------------------------------------
 BYTE   W96
//  #01 //050   ----------------------------------------
 BYTE   W96
//  #01 //051   ----------------------------------------
 BYTE   W96
//  #01 //052   ----------------------------------------
 BYTE   W96
//  #01 //053   ----------------------------------------
 BYTE   W96
//  #01 //054   ----------------------------------------
 BYTE   W96
//  #01 //055   ----------------------------------------
 BYTE   W96
//  #01 //056   ----------------------------------------
 BYTE   W96
//  #01 //057   ----------------------------------------
 BYTE   W96
//  #01 //058   ----------------------------------------
 BYTE   W96
//  #01 //059   ----------------------------------------
 BYTE   W96
//  #01 //060   ----------------------------------------
 BYTE   W96
//  #01 //061   ----------------------------------------
 BYTE   W96
//  #01 //062   ----------------------------------------
 BYTE   N04  En3  v100
 BYTE   GoTo
  POIN2 Label_01003032
//  #01 //063   ----------------------------------------
 BYTE   W18
 BYTE   Gn3
 BYTE   W18
 BYTE   An3  v078
 BYTE   W12
 BYTE   En3  v100
 BYTE   W18
 BYTE   Gn3
 BYTE   W18
 BYTE   An3  v078
 BYTE   W12
//  #01 //064   ----------------------------------------
 BYTE   PATT
  POIN2 Label_01003043
//  #01 //065   ----------------------------------------
 BYTE   PATT
  POIN2 Label_01003059
//  #01 //066   ----------------------------------------
 BYTE   PATT
  POIN2 Label_0100306B
//  #01 //067   ----------------------------------------
 BYTE   N04  En3  v088
 BYTE   W18
 BYTE   Gn3
 BYTE   W18
 BYTE   An3  v064
 BYTE   W12
 BYTE   En3  v080
 BYTE   W18
 BYTE   Gn3  v072
 BYTE   W18
 BYTE   An3  v043
 BYTE   W12
//  #01 //068   ----------------------------------------
 BYTE   En3  v064
 BYTE   W18
 BYTE   Gn3
 BYTE   W18
 BYTE   An3  v043
 BYTE   W12
 BYTE   N08  Gn3  v056
 BYTE   W08
 BYTE   N04
 BYTE   W04
 BYTE   N08  An3
 BYTE   W08
 BYTE   N04  Gn3  v049
 BYTE   W28
//  #01 //069   ----------------------------------------
 BYTE   En3  v025
 BYTE   W18
 BYTE   Gn3
 BYTE   W18
 BYTE   An3  v011
 BYTE   W12
 BYTE   En3  v016
 BYTE   W18
 BYTE   Gn3
 BYTE   W18
 BYTE   An3  v005
 BYTE   W12
//  #01 //070   ----------------------------------------
 BYTE   As3  v011
 BYTE   W18
 BYTE   Bn3  v008
 BYTE   W18
 BYTE   Dn4
 BYTE   W18
 BYTE   N18  En4  v002
 BYTE   W18
 BYTE   N04  Fn4  v001
 BYTE   W12
 BYTE   Fs4
 BYTE   W12
 BYTE   FINE

//**************** Track 2 (Midi-Chn.1) ****************//

FF10BrassdeChocoboTak_002:
//  #02 //000   ----------------------------------------
 BYTE   KEYSH   FF10BrassdeChocoboTak_key+0
 BYTE   VOICE   61
 BYTE   VOL   76*FF10BrassdeChocoboTak_mvl/mxv
 BYTE   PAN   c_v-28
 BYTE   BENDR  12
 BYTE   W96
//  #02 //001   ----------------------------------------
 BYTE   W96
//  #02 //002   ----------------------------------------
Label_010005DC:
 BYTE   N04  As2  v100
 BYTE   W18
 BYTE   Bn2
 BYTE   W18
 BYTE   En3  v078
 BYTE   W12
 BYTE   As2  v100
 BYTE   W18
 BYTE   Bn2
 BYTE   W18
 BYTE   En3  v078
 BYTE   W12
//  #02 //003   ----------------------------------------
Label_010005ED:
 BYTE   N04  As2  v100
 BYTE   W18
 BYTE   Bn2
 BYTE   W18
 BYTE   En3  v078
 BYTE   W24
 BYTE   N08  En3  v100
 BYTE   W08
 BYTE   N04  Dn3
 BYTE   W28
 BYTE   PEND 
//  #02 //004   ----------------------------------------
Label_010005FE:
 BYTE   N04  As2  v100
 BYTE   W18
 BYTE   Bn2
 BYTE   W18
 BYTE   En3  v078
 BYTE   W12
 BYTE   As2  v100
 BYTE   W18
 BYTE   Bn2
 BYTE   W18
 BYTE   En3  v078
 BYTE   W12
 BYTE   PEND 
//  #02 //005   ----------------------------------------
Label_01000610:
 BYTE   N04  As2  v100
 BYTE   W18
 BYTE   Bn2
 BYTE   W18
 BYTE   En3  v078
 BYTE   W12
 BYTE   N08  Dn3  v100
 BYTE   W08
 BYTE   N04  As2
 BYTE   W12
 BYTE   N28  Bn2
 BYTE   W28
 BYTE   PEND 
//  #02 //006   ----------------------------------------
 BYTE   PATT
  POIN2 Label_010005FE
//  #02 //007   ----------------------------------------
 BYTE   PATT
  POIN2 Label_010005ED
//  #02 //008   ----------------------------------------
 BYTE   PATT
  POIN2 Label_010005FE
//  #02 //009   ----------------------------------------
Label_01000633:
 BYTE   N04  En3  v100
 BYTE   W18
 BYTE   En3
 BYTE   W18
 BYTE   En3
 BYTE   W60
 BYTE   PEND 
//  #02 //010   ----------------------------------------
 BYTE   W96
//  #02 //011   ----------------------------------------
 BYTE   W96
//  #02 //012   ----------------------------------------
 BYTE   W96
//  #02 //013   ----------------------------------------
Label_0100063F:
 BYTE   W24
 BYTE   N08  Bn3  v085
 BYTE   W08
 BYTE   N04  As3
 BYTE   W12
 BYTE   An3
 BYTE   W52
 BYTE   PEND 
//  #02 //014   ----------------------------------------
 BYTE   W96
//  #02 //015   ----------------------------------------
 BYTE   W96
//  #02 //016   ----------------------------------------
 BYTE   W96
//  #02 //017   ----------------------------------------
 BYTE   W96
//  #02 //018   ----------------------------------------
 BYTE   W96
//  #02 //019   ----------------------------------------
 BYTE   W96
//  #02 //020   ----------------------------------------
 BYTE   W96
//  #02 //021   ----------------------------------------
 BYTE   W96
//  #02 //022   ----------------------------------------
 BYTE   W96
//  #02 //023   ----------------------------------------
 BYTE   W96
//  #02 //024   ----------------------------------------
 BYTE   W96
//  #02 //025   ----------------------------------------
 BYTE   W96
//  #02 //026   ----------------------------------------
 BYTE   W96
//  #02 //027   ----------------------------------------
 BYTE   W96
//  #02 //028   ----------------------------------------
 BYTE   W96
//  #02 //029   ----------------------------------------
 BYTE   W96
//  #02 //030   ----------------------------------------
 BYTE   W96
//  #02 //031   ----------------------------------------
 BYTE   W96
//  #02 //032   ----------------------------------------
 BYTE   PATT
  POIN2 Label_010005FE
//  #02 //033   ----------------------------------------
 BYTE   PATT
  POIN2 Label_010005ED
//  #02 //034   ----------------------------------------
 BYTE   PATT
  POIN2 Label_010005FE
//  #02 //035   ----------------------------------------
 BYTE   PATT
  POIN2 Label_01000610
//  #02 //036   ----------------------------------------
 BYTE   PATT
  POIN2 Label_010005FE
//  #02 //037   ----------------------------------------
 BYTE   PATT
  POIN2 Label_010005ED
//  #02 //038   ----------------------------------------
 BYTE   PATT
  POIN2 Label_010005FE
//  #02 //039   ----------------------------------------
 BYTE   PATT
  POIN2 Label_01000633
//  #02 //040   ----------------------------------------
 BYTE   W96
//  #02 //041   ----------------------------------------
 BYTE   W96
//  #02 //042   ----------------------------------------
 BYTE   W96
//  #02 //043   ----------------------------------------
 BYTE   PATT
  POIN2 Label_0100063F
//  #02 //044   ----------------------------------------
 BYTE   W96
//  #02 //045   ----------------------------------------
 BYTE   W96
//  #02 //046   ----------------------------------------
 BYTE   W96
//  #02 //047   ----------------------------------------
 BYTE   W96
//  #02 //048   ----------------------------------------
 BYTE   W96
//  #02 //049   ----------------------------------------
 BYTE   W96
//  #02 //050   ----------------------------------------
 BYTE   W96
//  #02 //051   ----------------------------------------
 BYTE   W96
//  #02 //052   ----------------------------------------
 BYTE   W96
//  #02 //053   ----------------------------------------
 BYTE   W96
//  #02 //054   ----------------------------------------
 BYTE   W96
//  #02 //055   ----------------------------------------
 BYTE   W96
//  #02 //056   ----------------------------------------
 BYTE   W96
//  #02 //057   ----------------------------------------
 BYTE   W96
//  #02 //058   ----------------------------------------
 BYTE   W96
//  #02 //059   ----------------------------------------
 BYTE   W96
//  #02 //060   ----------------------------------------
 BYTE   W96
//  #02 //061   ----------------------------------------
 BYTE   W96
//  #02 //062   ----------------------------------------
 BYTE   N04  As2  v100
 BYTE   GoTo
  POIN2 Label_010005DC
//  #02 //063   ----------------------------------------
 BYTE   W18
 BYTE   Bn2
 BYTE   W18
 BYTE   En3  v078
 BYTE   W12
 BYTE   As2  v100
 BYTE   W18
 BYTE   Bn2
 BYTE   W18
 BYTE   En3  v078
 BYTE   W12
//  #02 //064   ----------------------------------------
 BYTE   PATT
  POIN2 Label_010005ED
//  #02 //065   ----------------------------------------
 BYTE   PATT
  POIN2 Label_010005FE
//  #02 //066   ----------------------------------------
 BYTE   N04  As2  v100
 BYTE   W18
 BYTE   Bn2
 BYTE   W18
 BYTE   En3  v078
 BYTE   W12
 BYTE   N08  Dn3  v100
 BYTE   W08
 BYTE   N04  As2
 BYTE   W12
 BYTE   N28  Bn2  v097
 BYTE   W28
//  #02 //067   ----------------------------------------
 BYTE   N04  As2  v100
 BYTE   W18
 BYTE   Bn2  v088
 BYTE   W18
 BYTE   En3  v064
 BYTE   W12
 BYTE   As2  v088
 BYTE   W18
 BYTE   Bn2  v080
 BYTE   W18
 BYTE   En3  v056
 BYTE   W12
//  #02 //068   ----------------------------------------
 BYTE   As2  v080
 BYTE   W18
 BYTE   Bn2  v072
 BYTE   W18
 BYTE   En3  v049
 BYTE   W24
 BYTE   N08  En3  v072
 BYTE   W08
 BYTE   N04  Dn3
 BYTE   W28
//  #02 //069   ----------------------------------------
 BYTE   As2  v064
 BYTE   W18
 BYTE   Bn2  v056
 BYTE   W18
 BYTE   En3  v031
 BYTE   W12
 BYTE   As2  v036
 BYTE   W18
 BYTE   Bn2  v025
 BYTE   W18
 BYTE   En3  v005
 BYTE   W12
//  #02 //070   ----------------------------------------
 BYTE   En3
 BYTE   W18
 BYTE   En3  v002
 BYTE   W18
 BYTE   En3  v001
 BYTE   W60
 BYTE   FINE

//**************** Track 3 (Midi-Chn.2) ****************//

FF10BrassdeChocoboTak_003:
//  #03 //000   ----------------------------------------
 BYTE   KEYSH   FF10BrassdeChocoboTak_key+0
 BYTE   VOICE   61
 BYTE   VOL   68*FF10BrassdeChocoboTak_mvl/mxv
 BYTE   PAN   c_v+12
 BYTE   BENDR  12
 BYTE   W96
//  #03 //001   ----------------------------------------
 BYTE   W96
//  #03 //002   ----------------------------------------
Label_01003D5C:
 BYTE   N04  En2  v100
 BYTE   W18
 BYTE   Gn2
 BYTE   W18
 BYTE   An2  v078
 BYTE   W12
 BYTE   En2  v100
 BYTE   W18
 BYTE   Gn2
 BYTE   W18
 BYTE   An2  v078
 BYTE   W12
//  #03 //003   ----------------------------------------
Label_01003D6D:
 BYTE   N04  En2  v100
 BYTE   W18
 BYTE   Gn2
 BYTE   W18
 BYTE   An2  v078
 BYTE   W12
 BYTE   N02  Gn2  v100
 BYTE   W02
 BYTE   N04  An2
 BYTE   W04
 BYTE   N02  Gn2
 BYTE   W02
 BYTE   N04  Fn2
 BYTE   W04
 BYTE   N08  An2
 BYTE   W08
 BYTE   N04  Gn2
 BYTE   W28
 BYTE   PEND 
//  #03 //004   ----------------------------------------
Label_01003D8A:
 BYTE   N04  En2  v100
 BYTE   W18
 BYTE   Gn2
 BYTE   W18
 BYTE   An2  v078
 BYTE   W12
 BYTE   En2  v100
 BYTE   W18
 BYTE   Gn2
 BYTE   W18
 BYTE   An2  v078
 BYTE   W12
 BYTE   PEND 
//  #03 //005   ----------------------------------------
Label_01003D9C:
 BYTE   N04  En2  v100
 BYTE   W18
 BYTE   Gn2
 BYTE   W18
 BYTE   An2  v078
 BYTE   W12
 BYTE   N08  Gn2  v100
 BYTE   W08
 BYTE   N04  En2
 BYTE   W12
 BYTE   N22  Ds2
 BYTE   W28
 BYTE   PEND 
//  #03 //006   ----------------------------------------
 BYTE   PATT
  POIN2 Label_01003D8A
//  #03 //007   ----------------------------------------
 BYTE   PATT
  POIN2 Label_01003D6D
//  #03 //008   ----------------------------------------
 BYTE   PATT
  POIN2 Label_01003D8A
//  #03 //009   ----------------------------------------
Label_01003DBF:
 BYTE   N04  As2  v100
 BYTE   W18
 BYTE   Bn2
 BYTE   W18
 BYTE   Dn3
 BYTE   W18
 BYTE   N18  En3
 BYTE   W18
 BYTE   N04  Fn3
 BYTE   W12
 BYTE   Fs3
 BYTE   W12
 BYTE   PEND 
//  #03 //010   ----------------------------------------
Label_01003DD0:
 BYTE   N08  Gn3  v100
 BYTE   W36
 BYTE   N12  En3
 BYTE   W12
 BYTE   N08  Fn3
 BYTE   W36
 BYTE   N12  Dn3
 BYTE   W12
 BYTE   PEND 
//  #03 //011   ----------------------------------------
Label_01003DDE:
 BYTE   N12  Gn3  v100
 BYTE   W12
 BYTE   Dn3
 BYTE   W12
 BYTE   Fn3
 BYTE   W12
 BYTE   Dn3
 BYTE   W48
 BYTE   Fs3
 BYTE   W12
 BYTE   PEND 
//  #03 //012   ----------------------------------------
Label_01003DEB:
 BYTE   N08  Gn3  v100
 BYTE   W36
 BYTE   N12  En3
 BYTE   W12
 BYTE   N08  Fn3
 BYTE   W36
 BYTE   N12  Fs3
 BYTE   W12
 BYTE   PEND 
//  #03 //013   ----------------------------------------
Label_01003DF9:
 BYTE   N02  Gn3  v100
 BYTE   W02
 BYTE   N04  An3
 BYTE   W04
 BYTE   N02  Gn3
 BYTE   W02
 BYTE   N04  Fs3
 BYTE   W04
 BYTE   N08  Gn3
 BYTE   W08
 BYTE   N04  Bn3
 BYTE   W04
 BYTE   N08  Dn4
 BYTE   W08
 BYTE   N04  En4
 BYTE   W12
 BYTE   Fn4
 BYTE   W52
 BYTE   PEND 
//  #03 //014   ----------------------------------------
 BYTE   W96
//  #03 //015   ----------------------------------------
 BYTE   W96
//  #03 //016   ----------------------------------------
 BYTE   W96
//  #03 //017   ----------------------------------------
 BYTE   W96
//  #03 //018   ----------------------------------------
 BYTE   W96
//  #03 //019   ----------------------------------------
 BYTE   W96
//  #03 //020   ----------------------------------------
 BYTE   W96
//  #03 //021   ----------------------------------------
 BYTE   W96
//  #03 //022   ----------------------------------------
 BYTE   W96
//  #03 //023   ----------------------------------------
 BYTE   W96
//  #03 //024   ----------------------------------------
 BYTE   W96
//  #03 //025   ----------------------------------------
 BYTE   W96
//  #03 //026   ----------------------------------------
 BYTE   W96
//  #03 //027   ----------------------------------------
 BYTE   W96
//  #03 //028   ----------------------------------------
 BYTE   W96
//  #03 //029   ----------------------------------------
 BYTE   W96
//  #03 //030   ----------------------------------------
 BYTE   W96
//  #03 //031   ----------------------------------------
 BYTE   W96
//  #03 //032   ----------------------------------------
 BYTE   PATT
  POIN2 Label_01003D8A
//  #03 //033   ----------------------------------------
 BYTE   PATT
  POIN2 Label_01003D6D
//  #03 //034   ----------------------------------------
 BYTE   PATT
  POIN2 Label_01003D8A
//  #03 //035   ----------------------------------------
 BYTE   PATT
  POIN2 Label_01003D9C
//  #03 //036   ----------------------------------------
 BYTE   PATT
  POIN2 Label_01003D8A
//  #03 //037   ----------------------------------------
 BYTE   PATT
  POIN2 Label_01003D6D
//  #03 //038   ----------------------------------------
 BYTE   PATT
  POIN2 Label_01003D8A
//  #03 //039   ----------------------------------------
 BYTE   PATT
  POIN2 Label_01003DBF
//  #03 //040   ----------------------------------------
 BYTE   PATT
  POIN2 Label_01003DD0
//  #03 //041   ----------------------------------------
 BYTE   PATT
  POIN2 Label_01003DDE
//  #03 //042   ----------------------------------------
 BYTE   PATT
  POIN2 Label_01003DEB
//  #03 //043   ----------------------------------------
 BYTE   PATT
  POIN2 Label_01003DF9
//  #03 //044   ----------------------------------------
 BYTE   W96
//  #03 //045   ----------------------------------------
 BYTE   W96
//  #03 //046   ----------------------------------------
 BYTE   W96
//  #03 //047   ----------------------------------------
 BYTE   W96
//  #03 //048   ----------------------------------------
 BYTE   W96
//  #03 //049   ----------------------------------------
 BYTE   W96
//  #03 //050   ----------------------------------------
 BYTE   W96
//  #03 //051   ----------------------------------------
 BYTE   W96
//  #03 //052   ----------------------------------------
 BYTE   W96
//  #03 //053   ----------------------------------------
 BYTE   W96
//  #03 //054   ----------------------------------------
 BYTE   W96
//  #03 //055   ----------------------------------------
 BYTE   W96
//  #03 //056   ----------------------------------------
 BYTE   W96
//  #03 //057   ----------------------------------------
 BYTE   W96
//  #03 //058   ----------------------------------------
 BYTE   W96
//  #03 //059   ----------------------------------------
 BYTE   W96
//  #03 //060   ----------------------------------------
 BYTE   W96
//  #03 //061   ----------------------------------------
 BYTE   W96
//  #03 //062   ----------------------------------------
 BYTE   N04  En2  v100
 BYTE   GoTo
  POIN2 Label_01003D5C
//  #03 //063   ----------------------------------------
 BYTE   W18
 BYTE   Gn2
 BYTE   W18
 BYTE   An2  v078
 BYTE   W12
 BYTE   En2  v100
 BYTE   W18
 BYTE   Gn2
 BYTE   W18
 BYTE   An2  v078
 BYTE   W12
//  #03 //064   ----------------------------------------
 BYTE   PATT
  POIN2 Label_01003D6D
//  #03 //065   ----------------------------------------
 BYTE   PATT
  POIN2 Label_01003D8A
//  #03 //066   ----------------------------------------
 BYTE   N04  En2  v100
 BYTE   W18
 BYTE   Gn2  v097
 BYTE   W18
 BYTE   An2  v078
 BYTE   W12
 BYTE   N08  Gn2  v100
 BYTE   W08
 BYTE   N04  En2
 BYTE   W12
 BYTE   N22  Ds2
 BYTE   W28
//  #03 //067   ----------------------------------------
 BYTE   N04  En2  v088
 BYTE   W18
 BYTE   Gn2
 BYTE   W18
 BYTE   An2  v064
 BYTE   W12
 BYTE   En2  v080
 BYTE   W18
 BYTE   Gn2  v072
 BYTE   W18
 BYTE   An2  v043
 BYTE   W12
//  #03 //068   ----------------------------------------
 BYTE   En2  v064
 BYTE   W18
 BYTE   Gn2  v056
 BYTE   W18
 BYTE   An2  v031
 BYTE   W12
 BYTE   N02  Gn2  v049
 BYTE   W02
 BYTE   N04  An2
 BYTE   W04
 BYTE   N02  Gn2  v043
 BYTE   W02
 BYTE   N04  Fn2
 BYTE   W04
 BYTE   N08  An2
 BYTE   W08
 BYTE   N04  Gn2  v036
 BYTE   W28
//  #03 //069   ----------------------------------------
 BYTE   En2  v031
 BYTE   W18
 BYTE   Gn2  v025
 BYTE   W18
 BYTE   An2  v011
 BYTE   W12
 BYTE   En2  v025
 BYTE   W18
 BYTE   Gn2  v016
 BYTE   W18
 BYTE   An2  v005
 BYTE   W12
//  #03 //070   ----------------------------------------
 BYTE   As2  v016
 BYTE   W18
 BYTE   Bn2  v011
 BYTE   W18
 BYTE   Dn3  v008
 BYTE   W18
 BYTE   N18  En3  v005
 BYTE   W18
 BYTE   N04  Fn3  v002
 BYTE   W12
 BYTE   Fs3  v001
 BYTE   W12
 BYTE   FINE

//**************** Track 4 (Midi-Chn.3) ****************//

FF10BrassdeChocoboTak_004:
//  #04 //000   ----------------------------------------
 BYTE   KEYSH   FF10BrassdeChocoboTak_key+0
 BYTE   VOICE   63
 BYTE   VOL   53*FF10BrassdeChocoboTak_mvl/mxv
 BYTE   BENDR  12
 BYTE   W96
//  #04 //001   ----------------------------------------
 BYTE   W96
//  #04 //002   ----------------------------------------
Label_01003F1A:
 BYTE   W96
//  #04 //003   ----------------------------------------
 BYTE   W96
//  #04 //004   ----------------------------------------
 BYTE   W96
//  #04 //005   ----------------------------------------
 BYTE   W96
//  #04 //006   ----------------------------------------
 BYTE   TIE  En1  v085
 BYTE   W96
//  #04 //007   ----------------------------------------
Label_01003F22:
 BYTE   W72
 BYTE   EOT
 BYTE   En1
 BYTE   W12
 BYTE   N02  Bn0  v085
 BYTE   W02
 BYTE   N04  Cs1
 BYTE   W04
 BYTE   N02  Dn1
 BYTE   W02
 BYTE   N04  Ds1
 BYTE   W04
 BYTE   PEND 
//  #04 //008   ----------------------------------------
 BYTE   TIE  En1
 BYTE   W96
//  #04 //009   ----------------------------------------
 BYTE   W48
 BYTE   EOT
 BYTE   W48
//  #04 //010   ----------------------------------------
 BYTE   W96
//  #04 //011   ----------------------------------------
Label_01003F3B:
 BYTE   W60
 BYTE   N36  Dn1  v085
 BYTE   W36
 BYTE   PEND 
//  #04 //012   ----------------------------------------
 BYTE   W96
//  #04 //013   ----------------------------------------
Label_01003F42:
 BYTE   N12  Dn2  v053
 BYTE   W12
 BYTE   Bn1
 BYTE   W12
 BYTE   N08  Gn3  v085
 BYTE   W08
 BYTE   N04  Fs3
 BYTE   W12
 BYTE   Fn3
 BYTE   W52
 BYTE   PEND 
//  #04 //014   ----------------------------------------
 BYTE   W96
//  #04 //015   ----------------------------------------
 BYTE   W96
//  #04 //016   ----------------------------------------
 BYTE   W96
//  #04 //017   ----------------------------------------
 BYTE   W96
//  #04 //018   ----------------------------------------
 BYTE   W96
//  #04 //019   ----------------------------------------
 BYTE   W96
//  #04 //020   ----------------------------------------
 BYTE   W96
//  #04 //021   ----------------------------------------
 BYTE   W96
//  #04 //022   ----------------------------------------
 BYTE   W96
//  #04 //023   ----------------------------------------
 BYTE   W96
//  #04 //024   ----------------------------------------
 BYTE   W96
//  #04 //025   ----------------------------------------
 BYTE   W96
//  #04 //026   ----------------------------------------
 BYTE   W96
//  #04 //027   ----------------------------------------
 BYTE   W96
//  #04 //028   ----------------------------------------
 BYTE   W96
//  #04 //029   ----------------------------------------
 BYTE   W96
//  #04 //030   ----------------------------------------
 BYTE   W96
//  #04 //031   ----------------------------------------
 BYTE   W96
//  #04 //032   ----------------------------------------
 BYTE   W96
//  #04 //033   ----------------------------------------
 BYTE   W96
//  #04 //034   ----------------------------------------
 BYTE   W96
//  #04 //035   ----------------------------------------
 BYTE   W96
//  #04 //036   ----------------------------------------
 BYTE   TIE  En1
 BYTE   W96
//  #04 //037   ----------------------------------------
 BYTE   PATT
  POIN2 Label_01003F22
//  #04 //038   ----------------------------------------
 BYTE   TIE  En1  v085
 BYTE   W96
//  #04 //039   ----------------------------------------
 BYTE   W48
 BYTE   EOT
 BYTE   W48
//  #04 //040   ----------------------------------------
 BYTE   W96
//  #04 //041   ----------------------------------------
 BYTE   PATT
  POIN2 Label_01003F3B
//  #04 //042   ----------------------------------------
 BYTE   W96
//  #04 //043   ----------------------------------------
 BYTE   PATT
  POIN2 Label_01003F42
//  #04 //044   ----------------------------------------
 BYTE   W96
//  #04 //045   ----------------------------------------
 BYTE   W96
//  #04 //046   ----------------------------------------
 BYTE   W96
//  #04 //047   ----------------------------------------
 BYTE   W96
//  #04 //048   ----------------------------------------
 BYTE   W96
//  #04 //049   ----------------------------------------
 BYTE   W96
//  #04 //050   ----------------------------------------
 BYTE   W96
//  #04 //051   ----------------------------------------
 BYTE   W96
//  #04 //052   ----------------------------------------
 BYTE   W96
//  #04 //053   ----------------------------------------
 BYTE   W96
//  #04 //054   ----------------------------------------
 BYTE   W96
//  #04 //055   ----------------------------------------
 BYTE   W96
//  #04 //056   ----------------------------------------
 BYTE   W96
//  #04 //057   ----------------------------------------
 BYTE   W96
//  #04 //058   ----------------------------------------
 BYTE   W96
//  #04 //059   ----------------------------------------
 BYTE   W96
//  #04 //060   ----------------------------------------
 BYTE   W96
//  #04 //061   ----------------------------------------
 BYTE   W96
//  #04 //062   ----------------------------------------
 BYTE   GoTo
  POIN2 Label_01003F1A
//  #04 //063   ----------------------------------------
 BYTE   W96
//  #04 //064   ----------------------------------------
 BYTE   W96
//  #04 //065   ----------------------------------------
 BYTE   W96
//  #04 //066   ----------------------------------------
 BYTE   W96
//  #04 //067   ----------------------------------------
 BYTE   W96
//  #04 //068   ----------------------------------------
 BYTE   W84
 BYTE   N02  Bn0  v043
 BYTE   W02
 BYTE   N04  Cs1
 BYTE   W04
 BYTE   N02  Dn1
 BYTE   W02
 BYTE   N04  Ds1  v036
 BYTE   W04
//  #04 //069   ----------------------------------------
 BYTE   TIE  En1  v011
 BYTE   W96
//  #04 //070   ----------------------------------------
 BYTE   W48
 BYTE   EOT
 BYTE   W48
 BYTE   FINE

//**************** Track 5 (Midi-Chn.4) ****************//

FF10BrassdeChocoboTak_005:
//  #05 //000   ----------------------------------------
 BYTE   KEYSH   FF10BrassdeChocoboTak_key+0
 BYTE   VOICE   34
 BYTE   VOL   61*FF10BrassdeChocoboTak_mvl/mxv
 BYTE   BENDR  12
 BYTE   W96
//  #05 //001   ----------------------------------------
 BYTE   W96
//  #05 //002   ----------------------------------------
Label_01003FD2:
 BYTE   W96
//  #05 //003   ----------------------------------------
 BYTE   W96
//  #05 //004   ----------------------------------------
 BYTE   W96
//  #05 //005   ----------------------------------------
 BYTE   W96
//  #05 //006   ----------------------------------------
 BYTE   W96
//  #05 //007   ----------------------------------------
 BYTE   W96
//  #05 //008   ----------------------------------------
 BYTE   W96
//  #05 //009   ----------------------------------------
 BYTE   W96
//  #05 //010   ----------------------------------------
Label_01003FDA:
 BYTE   N08  Gn1  v085
 BYTE   W36
 BYTE   N12  En1
 BYTE   W12
 BYTE   N08  Fn1
 BYTE   W36
 BYTE   N12  Dn1
 BYTE   W12
 BYTE   PEND 
//  #05 //011   ----------------------------------------
Label_01003FE8:
 BYTE   N12  Gn1  v085
 BYTE   W12
 BYTE   Dn1
 BYTE   W12
 BYTE   Fn1
 BYTE   W12
 BYTE   Dn1
 BYTE   W48
 BYTE   Fs1
 BYTE   W12
 BYTE   PEND 
//  #05 //012   ----------------------------------------
Label_01003FF5:
 BYTE   N08  Gn1  v085
 BYTE   W36
 BYTE   N12  En1
 BYTE   W12
 BYTE   N08  Fn1
 BYTE   W36
 BYTE   N12  Fs1
 BYTE   W12
 BYTE   PEND 
//  #05 //013   ----------------------------------------
Label_01004003:
 BYTE   N02  Gn1  v085
 BYTE   W02
 BYTE   N04  An1
 BYTE   W04
 BYTE   N02  Gn1
 BYTE   W02
 BYTE   N04  Fs1
 BYTE   W04
 BYTE   N08  Gn1
 BYTE   W08
 BYTE   N04  Bn1
 BYTE   W04
 BYTE   N08  Dn2
 BYTE   W08
 BYTE   N04  En2
 BYTE   W12
 BYTE   Fn2
 BYTE   W52
 BYTE   PEND 
//  #05 //014   ----------------------------------------
Label_0100401F:
 BYTE   N06  Gn1  v085
 BYTE   W32
 BYTE   N16  Ds2
 BYTE   W16
 BYTE   N06  En2
 BYTE   W32
 BYTE   N16  Ds2
 BYTE   W16
 BYTE   PEND 
//  #05 //015   ----------------------------------------
Label_0100402D:
 BYTE   N12  Dn2  v085
 BYTE   W12
 BYTE   As1
 BYTE   W12
 BYTE   Bn1
 BYTE   W12
 BYTE   N08  En1
 BYTE   W08
 BYTE   N04  Gn1
 BYTE   W36
 BYTE   N16
 BYTE   W16
 BYTE   PEND 
//  #05 //016   ----------------------------------------
 BYTE   PATT
  POIN2 Label_0100401F
//  #05 //017   ----------------------------------------
Label_01004043:
 BYTE   N12  Dn2  v085
 BYTE   W12
 BYTE   Gn1
 BYTE   W12
 BYTE   N08  Fs1
 BYTE   W08
 BYTE   N12
 BYTE   W12
 BYTE   N04  Fn1
 BYTE   W52
 BYTE   PEND 
//  #05 //018   ----------------------------------------
 BYTE   PATT
  POIN2 Label_0100401F
//  #05 //019   ----------------------------------------
 BYTE   PATT
  POIN2 Label_0100402D
//  #05 //020   ----------------------------------------
 BYTE   PATT
  POIN2 Label_0100401F
//  #05 //021   ----------------------------------------
Label_01004061:
 BYTE   N12  En2  v085
 BYTE   W12
 BYTE   Gs1
 BYTE   W12
 BYTE   An1
 BYTE   W12
 BYTE   Cs2
 BYTE   W12
 BYTE   Dn2
 BYTE   W12
 BYTE   Fs1
 BYTE   W12
 BYTE   Gn1
 BYTE   W12
 BYTE   Dn1
 BYTE   W12
 BYTE   PEND 
//  #05 //022   ----------------------------------------
Label_01004074:
 BYTE   N12  Cn1  v085
 BYTE   W12
 BYTE   Gn1
 BYTE   W12
 BYTE   Cn2
 BYTE   W12
 BYTE   N08  Bn1
 BYTE   W08
 BYTE   N04  As1
 BYTE   W04
 BYTE   N12  An1
 BYTE   W12
 BYTE   Dn2
 BYTE   W12
 BYTE   Dn1
 BYTE   W12
 BYTE   N08  En1
 BYTE   W08
 BYTE   N04  Fs1
 BYTE   W04
 BYTE   PEND 
//  #05 //023   ----------------------------------------
Label_01004090:
 BYTE   N12  Gn1  v085
 BYTE   W12
 BYTE   Dn2
 BYTE   W12
 BYTE   Gn2
 BYTE   W12
 BYTE   Bn1
 BYTE   W12
 BYTE   Dn2
 BYTE   W12
 BYTE   Fs2
 BYTE   W12
 BYTE   Gn1
 BYTE   W12
 BYTE   Bn1
 BYTE   W12
 BYTE   PEND 
//  #05 //024   ----------------------------------------
Label_010040A3:
 BYTE   N12  Cn2  v085
 BYTE   W12
 BYTE   Cn1
 BYTE   W12
 BYTE   Cs1
 BYTE   W12
 BYTE   Cs2
 BYTE   W12
 BYTE   Dn2
 BYTE   W12
 BYTE   Dn1
 BYTE   W12
 BYTE   Ds1
 BYTE   W12
 BYTE   Ds2
 BYTE   W12
 BYTE   PEND 
//  #05 //025   ----------------------------------------
Label_010040B6:
 BYTE   N12  En2  v085
 BYTE   W12
 BYTE   An1
 BYTE   W12
 BYTE   Gs1
 BYTE   W12
 BYTE   Cs2
 BYTE   W12
 BYTE   Dn2
 BYTE   W12
 BYTE   Fs1
 BYTE   W12
 BYTE   En1
 BYTE   W12
 BYTE   Dn1
 BYTE   W12
 BYTE   PEND 
//  #05 //026   ----------------------------------------
 BYTE   PATT
  POIN2 Label_01004074
//  #05 //027   ----------------------------------------
 BYTE   PATT
  POIN2 Label_01004090
//  #05 //028   ----------------------------------------
 BYTE   W96
//  #05 //029   ----------------------------------------
 BYTE   W96
//  #05 //030   ----------------------------------------
 BYTE   W96
//  #05 //031   ----------------------------------------
 BYTE   W96
//  #05 //032   ----------------------------------------
 BYTE   W96
//  #05 //033   ----------------------------------------
 BYTE   W96
//  #05 //034   ----------------------------------------
 BYTE   W96
//  #05 //035   ----------------------------------------
 BYTE   W96
//  #05 //036   ----------------------------------------
 BYTE   W96
//  #05 //037   ----------------------------------------
 BYTE   W96
//  #05 //038   ----------------------------------------
 BYTE   W96
//  #05 //039   ----------------------------------------
 BYTE   W96
//  #05 //040   ----------------------------------------
 BYTE   PATT
  POIN2 Label_01003FDA
//  #05 //041   ----------------------------------------
 BYTE   PATT
  POIN2 Label_01003FE8
//  #05 //042   ----------------------------------------
 BYTE   PATT
  POIN2 Label_01003FF5
//  #05 //043   ----------------------------------------
 BYTE   PATT
  POIN2 Label_01004003
//  #05 //044   ----------------------------------------
 BYTE   PATT
  POIN2 Label_0100401F
//  #05 //045   ----------------------------------------
 BYTE   PATT
  POIN2 Label_0100402D
//  #05 //046   ----------------------------------------
 BYTE   PATT
  POIN2 Label_0100401F
//  #05 //047   ----------------------------------------
 BYTE   PATT
  POIN2 Label_01004043
//  #05 //048   ----------------------------------------
 BYTE   PATT
  POIN2 Label_0100401F
//  #05 //049   ----------------------------------------
 BYTE   PATT
  POIN2 Label_0100402D
//  #05 //050   ----------------------------------------
 BYTE   PATT
  POIN2 Label_0100401F
//  #05 //051   ----------------------------------------
 BYTE   PATT
  POIN2 Label_01004061
//  #05 //052   ----------------------------------------
 BYTE   PATT
  POIN2 Label_01004074
//  #05 //053   ----------------------------------------
 BYTE   PATT
  POIN2 Label_01004090
//  #05 //054   ----------------------------------------
 BYTE   PATT
  POIN2 Label_010040A3
//  #05 //055   ----------------------------------------
 BYTE   PATT
  POIN2 Label_010040B6
//  #05 //056   ----------------------------------------
 BYTE   PATT
  POIN2 Label_01004074
//  #05 //057   ----------------------------------------
 BYTE   PATT
  POIN2 Label_01004090
//  #05 //058   ----------------------------------------
 BYTE   W96
//  #05 //059   ----------------------------------------
 BYTE   W96
//  #05 //060   ----------------------------------------
 BYTE   W96
//  #05 //061   ----------------------------------------
 BYTE   W96
//  #05 //062   ----------------------------------------
 BYTE   GoTo
  POIN2 Label_01003FD2
//  #05 //063   ----------------------------------------
 BYTE   W96
//  #05 //064   ----------------------------------------
 BYTE   W96
//  #05 //065   ----------------------------------------
 BYTE   W96
//  #05 //066   ----------------------------------------
 BYTE   W96
//  #05 //067   ----------------------------------------
 BYTE   W96
//  #05 //068   ----------------------------------------
 BYTE   W96
//  #05 //069   ----------------------------------------
 BYTE   W96
//  #05 //070   ----------------------------------------
 BYTE   W96
 BYTE   FINE

//**************** Track 6 (Midi-Chn.5) ****************//

FF10BrassdeChocoboTak_006:
//  #06 //000   ----------------------------------------
 BYTE   KEYSH   FF10BrassdeChocoboTak_key+0
 BYTE   VOICE   4
 BYTE   VOL   76*FF10BrassdeChocoboTak_mvl/mxv
 BYTE   PAN   c_v+12
 BYTE   BENDR  12
 BYTE   W96
//  #06 //001   ----------------------------------------
 BYTE   W96
//  #06 //002   ----------------------------------------
Label_01004168:
 BYTE   W96
//  #06 //003   ----------------------------------------
 BYTE   W96
//  #06 //004   ----------------------------------------
 BYTE   W96
//  #06 //005   ----------------------------------------
 BYTE   W96
//  #06 //006   ----------------------------------------
 BYTE   W96
//  #06 //007   ----------------------------------------
 BYTE   W96
//  #06 //008   ----------------------------------------
 BYTE   W96
//  #06 //009   ----------------------------------------
 BYTE   W96
//  #06 //010   ----------------------------------------
 BYTE   W96
//  #06 //011   ----------------------------------------
 BYTE   W96
//  #06 //012   ----------------------------------------
 BYTE   W96
//  #06 //013   ----------------------------------------
 BYTE   W96
//  #06 //014   ----------------------------------------
Label_01004174:
 BYTE   N02  Dn4  v085
 BYTE   W32
 BYTE   N04  Bn3
 BYTE   W04
 BYTE   N12  Gn3
 BYTE   W12
 BYTE   N02  En3
 BYTE   W12
 BYTE   Dn4
 BYTE   W12
 BYTE   Bn3
 BYTE   W12
 BYTE   Gn3
 BYTE   W12
 BYTE   PEND 
//  #06 //015   ----------------------------------------
Label_01004188:
 BYTE   N04  Bn3  v085
 BYTE   W24
 BYTE   Gn3
 BYTE   W20
 BYTE   Bn3
 BYTE   W36
 BYTE   N16  An3
 BYTE   W16
 BYTE   PEND 
//  #06 //016   ----------------------------------------
Label_01004194:
 BYTE   N04  Gn3  v085
 BYTE   W12
 BYTE   N08
 BYTE   W08
 BYTE   N04  An3
 BYTE   W04
 BYTE   N08  Gn3
 BYTE   W08
 BYTE   N04  Fn3
 BYTE   W12
 BYTE   Gn3
 BYTE   W36
 BYTE   N16  Fn3
 BYTE   W16
 BYTE   PEND 
//  #06 //017   ----------------------------------------
Label_010041A9:
 BYTE   N04  Gn3  v085
 BYTE   W12
 BYTE   N08
 BYTE   W08
 BYTE   N04  Bn3
 BYTE   W04
 BYTE   N08  Dn4
 BYTE   W08
 BYTE   N04  En4
 BYTE   W12
 BYTE   Fn4
 BYTE   W52
 BYTE   PEND 
//  #06 //018   ----------------------------------------
 BYTE   PATT
  POIN2 Label_01004174
//  #06 //019   ----------------------------------------
 BYTE   PATT
  POIN2 Label_01004188
//  #06 //020   ----------------------------------------
 BYTE   PATT
  POIN2 Label_01004194
//  #06 //021   ----------------------------------------
 BYTE   PATT
  POIN2 Label_010041A9
//  #06 //022   ----------------------------------------
 BYTE   W96
//  #06 //023   ----------------------------------------
 BYTE   W96
//  #06 //024   ----------------------------------------
 BYTE   W96
//  #06 //025   ----------------------------------------
 BYTE   W96
//  #06 //026   ----------------------------------------
 BYTE   W96
//  #06 //027   ----------------------------------------
 BYTE   W96
//  #06 //028   ----------------------------------------
 BYTE   W96
//  #06 //029   ----------------------------------------
 BYTE   W96
//  #06 //030   ----------------------------------------
 BYTE   W96
//  #06 //031   ----------------------------------------
 BYTE   W96
//  #06 //032   ----------------------------------------
 BYTE   W96
//  #06 //033   ----------------------------------------
 BYTE   W96
//  #06 //034   ----------------------------------------
 BYTE   W96
//  #06 //035   ----------------------------------------
 BYTE   W96
//  #06 //036   ----------------------------------------
 BYTE   W96
//  #06 //037   ----------------------------------------
 BYTE   W96
//  #06 //038   ----------------------------------------
 BYTE   W96
//  #06 //039   ----------------------------------------
 BYTE   W96
//  #06 //040   ----------------------------------------
 BYTE   W96
//  #06 //041   ----------------------------------------
 BYTE   W96
//  #06 //042   ----------------------------------------
 BYTE   W96
//  #06 //043   ----------------------------------------
 BYTE   W96
//  #06 //044   ----------------------------------------
 BYTE   PATT
  POIN2 Label_01004174
//  #06 //045   ----------------------------------------
 BYTE   PATT
  POIN2 Label_01004188
//  #06 //046   ----------------------------------------
 BYTE   PATT
  POIN2 Label_01004194
//  #06 //047   ----------------------------------------
 BYTE   PATT
  POIN2 Label_010041A9
//  #06 //048   ----------------------------------------
 BYTE   PATT
  POIN2 Label_01004174
//  #06 //049   ----------------------------------------
 BYTE   PATT
  POIN2 Label_01004188
//  #06 //050   ----------------------------------------
 BYTE   PATT
  POIN2 Label_01004194
//  #06 //051   ----------------------------------------
 BYTE   PATT
  POIN2 Label_010041A9
//  #06 //052   ----------------------------------------
 BYTE   W96
//  #06 //053   ----------------------------------------
 BYTE   W96
//  #06 //054   ----------------------------------------
 BYTE   W96
//  #06 //055   ----------------------------------------
 BYTE   W96
//  #06 //056   ----------------------------------------
 BYTE   W96
//  #06 //057   ----------------------------------------
 BYTE   W96
//  #06 //058   ----------------------------------------
 BYTE   W96
//  #06 //059   ----------------------------------------
 BYTE   W96
//  #06 //060   ----------------------------------------
 BYTE   W96
//  #06 //061   ----------------------------------------
 BYTE   W96
//  #06 //062   ----------------------------------------
 BYTE   GoTo
  POIN2 Label_01004168
//  #06 //063   ----------------------------------------
 BYTE   W96
//  #06 //064   ----------------------------------------
 BYTE   W96
//  #06 //065   ----------------------------------------
 BYTE   W96
//  #06 //066   ----------------------------------------
 BYTE   W96
//  #06 //067   ----------------------------------------
 BYTE   W96
//  #06 //068   ----------------------------------------
 BYTE   W96
//  #06 //069   ----------------------------------------
 BYTE   W96
//  #06 //070   ----------------------------------------
 BYTE   W96
 BYTE   FINE

//**************** Track 7 (Midi-Chn.6) ****************//

FF10BrassdeChocoboTak_007:
//  #07 //000   ----------------------------------------
 BYTE   KEYSH   FF10BrassdeChocoboTak_key+0
 BYTE   VOICE   4
 BYTE   VOL   28*FF10BrassdeChocoboTak_mvl/mxv
 BYTE   PAN   c_v-26
 BYTE   BENDR  12
 BYTE   W96
//  #07 //001   ----------------------------------------
 BYTE   W96
//  #07 //002   ----------------------------------------
Label_01025B9C:
 BYTE   W96
//  #07 //003   ----------------------------------------
 BYTE   W96
//  #07 //004   ----------------------------------------
 BYTE   W96
//  #07 //005   ----------------------------------------
 BYTE   W96
//  #07 //006   ----------------------------------------
 BYTE   W96
//  #07 //007   ----------------------------------------
 BYTE   W96
//  #07 //008   ----------------------------------------
 BYTE   W96
//  #07 //009   ----------------------------------------
 BYTE   W96
//  #07 //010   ----------------------------------------
 BYTE   W96
//  #07 //011   ----------------------------------------
 BYTE   W96
//  #07 //012   ----------------------------------------
 BYTE   W96
//  #07 //013   ----------------------------------------
 BYTE   W96
//  #07 //014   ----------------------------------------
 BYTE   N02  Dn4  v085
 BYTE   N02  Dn3
 BYTE   N02  Bn3
 BYTE   W32
 BYTE   N16  Ds3
 BYTE   N16  Bn3
 BYTE   N16  Ds4
 BYTE   W16
 BYTE   N02  En4
 BYTE   N02  En3
 BYTE   N02  Bn3
 BYTE   W32
 BYTE   N16  Ds3
 BYTE   N16  Bn3
 BYTE   N16  Ds4
 BYTE   W16
//  #07 //015   ----------------------------------------
 BYTE   N02  Dn4
 BYTE   N02  Bn3
 BYTE   N02  Dn3
 BYTE   W12
 BYTE   Dn4
 BYTE   N02  Dn3
 BYTE   N02  Bn3
 BYTE   W12
 BYTE   N08
 BYTE   N08  Ds3
 BYTE   N08  Ds4
 BYTE   W08
 BYTE   N04  Dn4
 BYTE   N04  Dn3
 BYTE   N04  Bn3
 BYTE   W04
 BYTE   N08  Ds4
 BYTE   N08  Ds3
 BYTE   N08  Bn3
 BYTE   W08
 BYTE   N04
 BYTE   N04  En3
 BYTE   N04  En4
 BYTE   W36
 BYTE   N16  Ds4
 BYTE   N16  Ds3
 BYTE   N16  Bn3
 BYTE   W16
//  #07 //016   ----------------------------------------
 BYTE   N02  Dn4
 BYTE   N02  Bn3
 BYTE   N02  Dn3
 BYTE   W32
 BYTE   N16  Bn3
 BYTE   N16  Ds3
 BYTE   N16  Ds4
 BYTE   W16
 BYTE   N02  En4
 BYTE   N02  En3
 BYTE   N02  Bn3
 BYTE   W32
 BYTE   N16  Ds4
 BYTE   N16  Ds3
 BYTE   N16  Bn3
 BYTE   W16
//  #07 //017   ----------------------------------------
 BYTE   N04  Dn4
 BYTE   N04  Dn3
 BYTE   N04  Bn3
 BYTE   W24
 BYTE   N20  As3
 BYTE   N20  En4
 BYTE   N20  En3
 BYTE   W20
 BYTE   N04  Fn4
 BYTE   N04  Fn3
 BYTE   N04  Gs3
 BYTE   W52
//  #07 //018   ----------------------------------------
 BYTE   N02  Dn4
 BYTE   N02  Dn3
 BYTE   N02  Bn3
 BYTE   W32
 BYTE   N16  Ds3
 BYTE   N16  Ds4
 BYTE   N16  Bn3
 BYTE   W16
 BYTE   N02  En4
 BYTE   N02  Bn3
 BYTE   N02  En3
 BYTE   W32
 BYTE   N16  Ds3
 BYTE   N16  Bn3
 BYTE   N16  Ds4
 BYTE   W16
//  #07 //019   ----------------------------------------
 BYTE   N02  Dn4
 BYTE   N02  Bn3
 BYTE   N02  Dn3
 BYTE   W12
 BYTE   Dn4
 BYTE   N02  Dn3
 BYTE   N02  Bn3
 BYTE   W12
 BYTE   N08
 BYTE   N08  Ds3
 BYTE   N08  Ds4
 BYTE   W08
 BYTE   N04  Dn4
 BYTE   N04  Bn3
 BYTE   N04  Dn3
 BYTE   W04
 BYTE   N08  Ds4
 BYTE   N08  Ds3
 BYTE   N08  Bn3
 BYTE   W08
 BYTE   N04
 BYTE   N04  En3
 BYTE   N04  En4
 BYTE   W36
 BYTE   N16  Bn3
 BYTE   N16  Ds4
 BYTE   N16  Ds3
 BYTE   W16
//  #07 //020   ----------------------------------------
 BYTE   N02  Dn4
 BYTE   N02  Dn3
 BYTE   N02  Bn3
 BYTE   W32
 BYTE   N16
 BYTE   N16  Ds3
 BYTE   N16  Ds4
 BYTE   W16
 BYTE   N02  En4
 BYTE   N02  En3
 BYTE   N02  Bn3
 BYTE   W32
 BYTE   N16
 BYTE   N16  Ds4
 BYTE   N16  Ds3
 BYTE   W16
//  #07 //021   ----------------------------------------
 BYTE   W12
 BYTE   N12  En4
 BYTE   N12  Bn3
 BYTE   W20
 BYTE   N04
 BYTE   N04  En4
 BYTE   W28
 BYTE   N12  Dn4
 BYTE   N12  Bn3
 BYTE   W20
 BYTE   N04  Dn4
 BYTE   N04  Bn3
 BYTE   W16
//  #07 //022   ----------------------------------------
 BYTE   N48  Gn3
 BYTE   N48  Cn3
 BYTE   N48  Gn2
 BYTE   N48  En3
 BYTE   W56
 BYTE   N04  Fs2
 BYTE   N04  Fs3
 BYTE   N04  An2
 BYTE   N04  Cn3
 BYTE   N04  En3
 BYTE   W16
 BYTE   N24  Fs2
 BYTE   N24  En3
 BYTE   N24  Cn3
 BYTE   N24  Fs3
 BYTE   N24  An2
 BYTE   W24
//  #07 //023   ----------------------------------------
 BYTE   N08  Bn3
 BYTE   W08
 BYTE   N04  Fs3
 BYTE   W04
 BYTE   N08  Gn3
 BYTE   W08
 BYTE   N04  Cn4
 BYTE   W04
 BYTE   N08  Bn3
 BYTE   W08
 BYTE   N12  Gn3
 BYTE   W04
 BYTE   N08  Dn3
 BYTE   N08  An3
 BYTE   W08
 BYTE   N04  Gn3
 BYTE   W04
 BYTE   N08  Fs3
 BYTE   N08  Dn3
 BYTE   W08
 BYTE   N04
 BYTE   N04  Fs3
 BYTE   W04
 BYTE   N08  Cn4
 BYTE   N08  En4
 BYTE   W08
 BYTE   N12  Dn4
 BYTE   N12  Bn3
 BYTE   W12
 BYTE   N04  Fs3
 BYTE   W04
 BYTE   N08  Bn3
 BYTE   W08
 BYTE   N04  Fs3
 BYTE   W04
//  #07 //024   ----------------------------------------
 BYTE   Gn3
 BYTE   W08
 BYTE   An3
 BYTE   W16
 BYTE   En3
 BYTE   N04  Cs4
 BYTE   N04  Gn3
 BYTE   W24
 BYTE   Dn4
 BYTE   N04  An3
 BYTE   N04  Fs3
 BYTE   W12
 BYTE   Fs3
 BYTE   N04  Dn4
 BYTE   N04  An3
 BYTE   W20
 BYTE   N16  Ds4
 BYTE   N16  An3
 BYTE   N16  Fs3
 BYTE   W16
//  #07 //025   ----------------------------------------
 BYTE   N20  En4
 BYTE   N20  Gn3
 BYTE   N20  Bn3
 BYTE   W20
 BYTE   N16
 BYTE   N16  En4
 BYTE   N16  Gn3
 BYTE   W16
 BYTE   N12  En3
 BYTE   N12  An3
 BYTE   N12  Gn3
 BYTE   W12
 BYTE   N20  Dn4
 BYTE   N20  Fs3
 BYTE   N20  An3
 BYTE   N20  Cn4
 BYTE   W20
 BYTE   N28
 BYTE   N28  An3
 BYTE   N28  Fs3
 BYTE   N28  Dn4
 BYTE   W28
//  #07 //026   ----------------------------------------
 BYTE   N48  Gn2
 BYTE   N48  Cn3
 BYTE   N48  En3
 BYTE   N48  Gn3
 BYTE   W56
 BYTE   N04  Fs2
 BYTE   N04  Cn3
 BYTE   N04  Fs3
 BYTE   N04  An2
 BYTE   N04  En3
 BYTE   W16
 BYTE   N24
 BYTE   N24  Cn3
 BYTE   N24  Fs2
 BYTE   N24  Fs3
 BYTE   N24  An2
 BYTE   W24
//  #07 //027   ----------------------------------------
 BYTE   N12  Dn4
 BYTE   N12  Bn3
 BYTE   W12
 BYTE   N08  En4
 BYTE   N08  Cn4
 BYTE   W08
 BYTE   N12  Dn4
 BYTE   N12  Bn3
 BYTE   W12
 BYTE   N04  Gn3
 BYTE   W04
 BYTE   N08  Dn4
 BYTE   N08  Bn3
 BYTE   W08
 BYTE   N04  Gn3
 BYTE   W04
 BYTE   N08  Dn4
 BYTE   N08  Bn3
 BYTE   W08
 BYTE   N04  Dn4
 BYTE   N04  Bn3
 BYTE   W04
 BYTE   N08  Cn4
 BYTE   N08  En4
 BYTE   W08
 BYTE   N12  Bn3
 BYTE   N12  Dn4
 BYTE   W12
 BYTE   N04  Gn3
 BYTE   W04
 BYTE   N08  Dn4
 BYTE   N08  Bn3
 BYTE   W08
 BYTE   N04  Gn3
 BYTE   W04
//  #07 //028   ----------------------------------------
 BYTE   W96
//  #07 //029   ----------------------------------------
 BYTE   W96
//  #07 //030   ----------------------------------------
 BYTE   W96
//  #07 //031   ----------------------------------------
 BYTE   W96
//  #07 //032   ----------------------------------------
 BYTE   W96
//  #07 //033   ----------------------------------------
 BYTE   W96
//  #07 //034   ----------------------------------------
 BYTE   W96
//  #07 //035   ----------------------------------------
 BYTE   W96
//  #07 //036   ----------------------------------------
 BYTE   W96
//  #07 //037   ----------------------------------------
 BYTE   W96
//  #07 //038   ----------------------------------------
 BYTE   W96
//  #07 //039   ----------------------------------------
 BYTE   W96
//  #07 //040   ----------------------------------------
 BYTE   W96
//  #07 //041   ----------------------------------------
 BYTE   W96
//  #07 //042   ----------------------------------------
 BYTE   W96
//  #07 //043   ----------------------------------------
 BYTE   W96
//  #07 //044   ----------------------------------------
 BYTE   N02  Dn4
 BYTE   N02  Dn3
 BYTE   N02  Bn3
 BYTE   W32
 BYTE   N16  Ds3
 BYTE   N16  Ds4
 BYTE   N16  Bn3
 BYTE   W16
 BYTE   N02  En4
 BYTE   N02  En3
 BYTE   N02  Bn3
 BYTE   W32
 BYTE   N16
 BYTE   N16  Ds3
 BYTE   N16  Ds4
 BYTE   W16
//  #07 //045   ----------------------------------------
 BYTE   N02  Dn4
 BYTE   N02  Dn3
 BYTE   N02  Bn3
 BYTE   W12
 BYTE   Dn4
 BYTE   N02  Dn3
 BYTE   N02  Bn3
 BYTE   W12
 BYTE   N08
 BYTE   N08  Ds3
 BYTE   N08  Ds4
 BYTE   W08
 BYTE   N04  Bn3
 BYTE   N04  Dn4
 BYTE   N04  Dn3
 BYTE   W04
 BYTE   N08  Ds4
 BYTE   N08  Ds3
 BYTE   N08  Bn3
 BYTE   W08
 BYTE   N04  En4
 BYTE   N04  Bn3
 BYTE   N04  En3
 BYTE   W36
 BYTE   N16  Bn3
 BYTE   N16  Ds3
 BYTE   N16  Ds4
 BYTE   W16
//  #07 //046   ----------------------------------------
 BYTE   N02  Dn4
 BYTE   N02  Dn3
 BYTE   N02  Bn3
 BYTE   W32
 BYTE   N16  Ds3
 BYTE   N16  Ds4
 BYTE   N16  Bn3
 BYTE   W16
 BYTE   N02  En3
 BYTE   N02  Bn3
 BYTE   N02  En4
 BYTE   W32
 BYTE   N16  Ds3
 BYTE   N16  Ds4
 BYTE   N16  Bn3
 BYTE   W16
//  #07 //047   ----------------------------------------
 BYTE   N04  Dn4
 BYTE   N04  Dn3
 BYTE   N04  Bn3
 BYTE   W24
 BYTE   N20  En4
 BYTE   N20  En3
 BYTE   N20  As3
 BYTE   W20
 BYTE   N04  Gs3
 BYTE   N04  Fn4
 BYTE   N04  Fn3
 BYTE   W52
//  #07 //048   ----------------------------------------
 BYTE   N02  Dn4
 BYTE   N02  Bn3
 BYTE   N02  Dn3
 BYTE   W32
 BYTE   N16  Ds3
 BYTE   N16  Bn3
 BYTE   N16  Ds4
 BYTE   W16
 BYTE   N02  En3
 BYTE   N02  Bn3
 BYTE   N02  En4
 BYTE   W32
 BYTE   N16  Ds3
 BYTE   N16  Ds4
 BYTE   N16  Bn3
 BYTE   W16
//  #07 //049   ----------------------------------------
 BYTE   N02  Dn4
 BYTE   N02  Dn3
 BYTE   N02  Bn3
 BYTE   W12
 BYTE   Dn4
 BYTE   N02  Bn3
 BYTE   N02  Dn3
 BYTE   W12
 BYTE   N08  Ds4
 BYTE   N08  Bn3
 BYTE   N08  Ds3
 BYTE   W08
 BYTE   N04  Bn3
 BYTE   N04  Dn3
 BYTE   N04  Dn4
 BYTE   W04
 BYTE   N08  Ds4
 BYTE   N08  Ds3
 BYTE   N08  Bn3
 BYTE   W08
 BYTE   N04  En4
 BYTE   N04  En3
 BYTE   N04  Bn3
 BYTE   W36
 BYTE   N16
 BYTE   N16  Ds4
 BYTE   N16  Ds3
 BYTE   W16
//  #07 //050   ----------------------------------------
 BYTE   N02  Dn4
 BYTE   N02  Bn3
 BYTE   N02  Dn3
 BYTE   W32
 BYTE   N16  Ds4
 BYTE   N16  Bn3
 BYTE   N16  Ds3
 BYTE   W16
 BYTE   N02  En4
 BYTE   N02  En3
 BYTE   N02  Bn3
 BYTE   W32
 BYTE   N16  Ds3
 BYTE   N16  Bn3
 BYTE   N16  Ds4
 BYTE   W16
//  #07 //051   ----------------------------------------
 BYTE   W12
 BYTE   N12  En4
 BYTE   N12  Bn3
 BYTE   W20
 BYTE   N04  En4
 BYTE   N04  Bn3
 BYTE   W28
 BYTE   N12  Dn4
 BYTE   N12  Bn3
 BYTE   W20
 BYTE   N04  Dn4
 BYTE   N04  Bn3
 BYTE   W16
//  #07 //052   ----------------------------------------
 BYTE   N48  Gn3
 BYTE   N48  En3
 BYTE   N48  Cn3
 BYTE   N48  Gn2
 BYTE   W56
 BYTE   N04  Cn3
 BYTE   N04  An2
 BYTE   N04  Fs3
 BYTE   N04  Fs2
 BYTE   N04  En3
 BYTE   W16
 BYTE   N24  An2
 BYTE   N24  Cn3
 BYTE   N24  Fs2
 BYTE   N24  Fs3
 BYTE   N24  En3
 BYTE   W24
//  #07 //053   ----------------------------------------
 BYTE   N08  Bn3
 BYTE   W08
 BYTE   N04  Fs3
 BYTE   W04
 BYTE   N08  Gn3
 BYTE   W08
 BYTE   N04  Cn4
 BYTE   W04
 BYTE   N08  Bn3
 BYTE   W08
 BYTE   N12  Gn3
 BYTE   W04
 BYTE   N08  Dn3
 BYTE   N08  An3
 BYTE   W08
 BYTE   N04  Gn3
 BYTE   W04
 BYTE   N08  Dn3
 BYTE   N08  Fs3
 BYTE   W08
 BYTE   N04  Dn3
 BYTE   N04  Fs3
 BYTE   W04
 BYTE   N08  Cn4
 BYTE   N08  En4
 BYTE   W08
 BYTE   N12  Dn4
 BYTE   N12  Bn3
 BYTE   W12
 BYTE   N04  Fs3
 BYTE   W04
 BYTE   N08  Bn3
 BYTE   W08
 BYTE   N04  Fs3
 BYTE   W04
//  #07 //054   ----------------------------------------
 BYTE   Gn3
 BYTE   W08
 BYTE   An3
 BYTE   W16
 BYTE   Gn3
 BYTE   N04  En3
 BYTE   N04  Cs4
 BYTE   W24
 BYTE   Dn4
 BYTE   N04  An3
 BYTE   N04  Fs3
 BYTE   W12
 BYTE   An3
 BYTE   N04  Fs3
 BYTE   N04  Dn4
 BYTE   W20
 BYTE   N16  An3
 BYTE   N16  Ds4
 BYTE   N16  Fs3
 BYTE   W16
//  #07 //055   ----------------------------------------
 BYTE   N20  Gn3
 BYTE   N20  En4
 BYTE   N20  Bn3
 BYTE   W20
 BYTE   N16  En4
 BYTE   N16  Bn3
 BYTE   N16  Gn3
 BYTE   W16
 BYTE   N12  En3
 BYTE   N12  Gn3
 BYTE   N12  An3
 BYTE   W12
 BYTE   N20  Dn4
 BYTE   N20  Fs3
 BYTE   N20  An3
 BYTE   N20  Cn4
 BYTE   W20
 BYTE   N28  Fs3
 BYTE   N28  Cn4
 BYTE   N28  An3
 BYTE   N28  Dn4
 BYTE   W28
//  #07 //056   ----------------------------------------
 BYTE   N48  En3
 BYTE   N48  Cn3
 BYTE   N48  Gn2
 BYTE   N48  Gn3
 BYTE   W56
 BYTE   N04  An2
 BYTE   N04  Fs3
 BYTE   N04  Fs2
 BYTE   N04  Cn3
 BYTE   N04  En3
 BYTE   W16
 BYTE   N24  Fs3
 BYTE   N24  Fs2
 BYTE   N24  En3
 BYTE   N24  Cn3
 BYTE   N24  An2
 BYTE   W24
//  #07 //057   ----------------------------------------
 BYTE   N12  Dn4
 BYTE   N12  Bn3
 BYTE   W12
 BYTE   N08  En4
 BYTE   N08  Cn4
 BYTE   W08
 BYTE   N12  Dn4
 BYTE   N12  Bn3
 BYTE   W12
 BYTE   N04  Gn3
 BYTE   W04
 BYTE   N08  Dn4
 BYTE   N08  Bn3
 BYTE   W08
 BYTE   N04  Gn3
 BYTE   W04
 BYTE   N08  Bn3
 BYTE   N08  Dn4
 BYTE   W08
 BYTE   N04  Bn3
 BYTE   N04  Dn4
 BYTE   W04
 BYTE   N08  En4
 BYTE   N08  Cn4
 BYTE   W08
 BYTE   N12  Dn4
 BYTE   N12  Bn3
 BYTE   W12
 BYTE   N04  Gn3
 BYTE   W04
 BYTE   N08  Dn4
 BYTE   N08  Bn3
 BYTE   W08
 BYTE   N04  Gn3
 BYTE   W04
//  #07 //058   ----------------------------------------
 BYTE   W96
//  #07 //059   ----------------------------------------
 BYTE   W96
//  #07 //060   ----------------------------------------
 BYTE   W96
//  #07 //061   ----------------------------------------
 BYTE   W96
//  #07 //062   ----------------------------------------
 BYTE   GoTo
  POIN2 Label_01025B9C
//  #07 //063   ----------------------------------------
 BYTE   W96
//  #07 //064   ----------------------------------------
 BYTE   W96
//  #07 //065   ----------------------------------------
 BYTE   W96
//  #07 //066   ----------------------------------------
 BYTE   W96
//  #07 //067   ----------------------------------------
 BYTE   W96
//  #07 //068   ----------------------------------------
 BYTE   W96
//  #07 //069   ----------------------------------------
 BYTE   W96
//  #07 //070   ----------------------------------------
 BYTE   W96
 BYTE   FINE

//**************** Track 8 (Midi-Chn.7) ****************//

FF10BrassdeChocoboTak_008:
//  #08 //000   ----------------------------------------
 BYTE   KEYSH   FF10BrassdeChocoboTak_key+0
 BYTE   VOICE   4
 BYTE   VOL   28*FF10BrassdeChocoboTak_mvl/mxv
 BYTE   BENDR  12
 BYTE   W96
//  #08 //001   ----------------------------------------
 BYTE   W96
//  #08 //002   ----------------------------------------
Label_01004242:
 BYTE   W96
//  #08 //003   ----------------------------------------
 BYTE   W96
//  #08 //004   ----------------------------------------
 BYTE   W96
//  #08 //005   ----------------------------------------
 BYTE   W96
//  #08 //006   ----------------------------------------
 BYTE   W96
//  #08 //007   ----------------------------------------
 BYTE   W96
//  #08 //008   ----------------------------------------
 BYTE   W96
//  #08 //009   ----------------------------------------
 BYTE   W96
//  #08 //010   ----------------------------------------
 BYTE   W96
//  #08 //011   ----------------------------------------
 BYTE   W96
//  #08 //012   ----------------------------------------
 BYTE   W96
//  #08 //013   ----------------------------------------
 BYTE   W96
//  #08 //014   ----------------------------------------
Label_0100424E:
 BYTE   N02  Gn2  v085
 BYTE   W32
 BYTE   N16
 BYTE   W16
 BYTE   N02
 BYTE   W32
 BYTE   N16
 BYTE   W16
 BYTE   PEND 
//  #08 //015   ----------------------------------------
Label_01004259:
 BYTE   N02  Gn2  v085
 BYTE   W12
 BYTE   Gn2
 BYTE   W12
 BYTE   N08
 BYTE   W08
 BYTE   N04
 BYTE   W04
 BYTE   N08
 BYTE   W08
 BYTE   N04
 BYTE   W36
 BYTE   N16
 BYTE   W16
 BYTE   PEND 
//  #08 //016   ----------------------------------------
 BYTE   PATT
  POIN2 Label_0100424E
//  #08 //017   ----------------------------------------
Label_0100426F:
 BYTE   N06  Gn2  v085
 BYTE   W24
 BYTE   N08  Fs2
 BYTE   W08
 BYTE   N12
 BYTE   W12
 BYTE   N04  Fn2
 BYTE   W52
 BYTE   PEND 
//  #08 //018   ----------------------------------------
 BYTE   PATT
  POIN2 Label_0100424E
//  #08 //019   ----------------------------------------
 BYTE   PATT
  POIN2 Label_01004259
//  #08 //020   ----------------------------------------
 BYTE   PATT
  POIN2 Label_0100424E
//  #08 //021   ----------------------------------------
Label_0100428B:
 BYTE   N18  Gn4  v116
 BYTE   W20
 BYTE   N12  An4
 BYTE   W16
 BYTE   Gn4
 BYTE   W12
 BYTE   N18  Fn4
 BYTE   W20
 BYTE   N12  Gn4
 BYTE   W16
 BYTE   Fn4
 BYTE   W12
 BYTE   PEND 
//  #08 //022   ----------------------------------------
 BYTE   W96
//  #08 //023   ----------------------------------------
 BYTE   W96
//  #08 //024   ----------------------------------------
 BYTE   W96
//  #08 //025   ----------------------------------------
 BYTE   W96
//  #08 //026   ----------------------------------------
 BYTE   W96
//  #08 //027   ----------------------------------------
 BYTE   W96
//  #08 //028   ----------------------------------------
 BYTE   W96
//  #08 //029   ----------------------------------------
 BYTE   W96
//  #08 //030   ----------------------------------------
 BYTE   W96
//  #08 //031   ----------------------------------------
 BYTE   W96
//  #08 //032   ----------------------------------------
 BYTE   W96
//  #08 //033   ----------------------------------------
 BYTE   W96
//  #08 //034   ----------------------------------------
 BYTE   W96
//  #08 //035   ----------------------------------------
 BYTE   W96
//  #08 //036   ----------------------------------------
 BYTE   W96
//  #08 //037   ----------------------------------------
 BYTE   W96
//  #08 //038   ----------------------------------------
 BYTE   W96
//  #08 //039   ----------------------------------------
 BYTE   W96
//  #08 //040   ----------------------------------------
 BYTE   W96
//  #08 //041   ----------------------------------------
 BYTE   W96
//  #08 //042   ----------------------------------------
 BYTE   W96
//  #08 //043   ----------------------------------------
 BYTE   W96
//  #08 //044   ----------------------------------------
 BYTE   PATT
  POIN2 Label_0100424E
//  #08 //045   ----------------------------------------
 BYTE   PATT
  POIN2 Label_01004259
//  #08 //046   ----------------------------------------
 BYTE   PATT
  POIN2 Label_0100424E
//  #08 //047   ----------------------------------------
 BYTE   PATT
  POIN2 Label_0100426F
//  #08 //048   ----------------------------------------
 BYTE   PATT
  POIN2 Label_0100424E
//  #08 //049   ----------------------------------------
 BYTE   PATT
  POIN2 Label_01004259
//  #08 //050   ----------------------------------------
 BYTE   PATT
  POIN2 Label_0100424E
//  #08 //051   ----------------------------------------
 BYTE   PATT
  POIN2 Label_0100428B
//  #08 //052   ----------------------------------------
 BYTE   W96
//  #08 //053   ----------------------------------------
 BYTE   W96
//  #08 //054   ----------------------------------------
 BYTE   W96
//  #08 //055   ----------------------------------------
 BYTE   W96
//  #08 //056   ----------------------------------------
 BYTE   W96
//  #08 //057   ----------------------------------------
 BYTE   W96
//  #08 //058   ----------------------------------------
 BYTE   W96
//  #08 //059   ----------------------------------------
 BYTE   W96
//  #08 //060   ----------------------------------------
 BYTE   W96
//  #08 //061   ----------------------------------------
 BYTE   W96
//  #08 //062   ----------------------------------------
 BYTE   GoTo
  POIN2 Label_01004242
//  #08 //063   ----------------------------------------
 BYTE   W96
//  #08 //064   ----------------------------------------
 BYTE   W96
//  #08 //065   ----------------------------------------
 BYTE   W96
//  #08 //066   ----------------------------------------
 BYTE   W96
//  #08 //067   ----------------------------------------
 BYTE   W96
//  #08 //068   ----------------------------------------
 BYTE   W96
//  #08 //069   ----------------------------------------
 BYTE   W96
//  #08 //070   ----------------------------------------
 BYTE   W96
 BYTE   FINE

//**************** Track 9 (Midi-Chn.8) ****************//

FF10BrassdeChocoboTak_009:
//  #09 //000   ----------------------------------------
 BYTE   KEYSH   FF10BrassdeChocoboTak_key+0
 BYTE   VOICE   61
 BYTE   VOL   56*FF10BrassdeChocoboTak_mvl/mxv
 BYTE   BENDR  12
 BYTE   W96
//  #09 //001   ----------------------------------------
 BYTE   W96
//  #09 //002   ----------------------------------------
Label_0100430E:
 BYTE   W96
//  #09 //003   ----------------------------------------
 BYTE   W96
//  #09 //004   ----------------------------------------
 BYTE   W96
//  #09 //005   ----------------------------------------
 BYTE   W96
//  #09 //006   ----------------------------------------
 BYTE   W96
//  #09 //007   ----------------------------------------
 BYTE   W96
//  #09 //008   ----------------------------------------
 BYTE   W96
//  #09 //009   ----------------------------------------
 BYTE   W96
//  #09 //010   ----------------------------------------
 BYTE   W96
//  #09 //011   ----------------------------------------
 BYTE   W96
//  #09 //012   ----------------------------------------
 BYTE   W96
//  #09 //013   ----------------------------------------
 BYTE   W96
//  #09 //014   ----------------------------------------
 BYTE   W96
//  #09 //015   ----------------------------------------
 BYTE   W96
//  #09 //016   ----------------------------------------
 BYTE   W96
//  #09 //017   ----------------------------------------
Label_0100431D:
 BYTE   W72
 BYTE   N24  Fn3  v116
 BYTE   N24  Fn4
 BYTE   W24
 BYTE   PEND 
//  #09 //018   ----------------------------------------
 BYTE   W96
//  #09 //019   ----------------------------------------
 BYTE   W96
//  #09 //020   ----------------------------------------
 BYTE   W96
//  #09 //021   ----------------------------------------
 BYTE   W96
//  #09 //022   ----------------------------------------
 BYTE   W96
//  #09 //023   ----------------------------------------
 BYTE   W96
//  #09 //024   ----------------------------------------
 BYTE   W96
//  #09 //025   ----------------------------------------
 BYTE   W96
//  #09 //026   ----------------------------------------
 BYTE   W96
//  #09 //027   ----------------------------------------
 BYTE   W96
//  #09 //028   ----------------------------------------
 BYTE   W96
//  #09 //029   ----------------------------------------
 BYTE   W96
//  #09 //030   ----------------------------------------
 BYTE   W96
//  #09 //031   ----------------------------------------
 BYTE   W96
//  #09 //032   ----------------------------------------
 BYTE   W96
//  #09 //033   ----------------------------------------
 BYTE   W96
//  #09 //034   ----------------------------------------
 BYTE   W96
//  #09 //035   ----------------------------------------
 BYTE   W96
//  #09 //036   ----------------------------------------
 BYTE   W96
//  #09 //037   ----------------------------------------
 BYTE   W96
//  #09 //038   ----------------------------------------
 BYTE   W96
//  #09 //039   ----------------------------------------
 BYTE   W96
//  #09 //040   ----------------------------------------
 BYTE   W96
//  #09 //041   ----------------------------------------
 BYTE   W96
//  #09 //042   ----------------------------------------
 BYTE   W96
//  #09 //043   ----------------------------------------
 BYTE   W96
//  #09 //044   ----------------------------------------
 BYTE   W96
//  #09 //045   ----------------------------------------
 BYTE   W96
//  #09 //046   ----------------------------------------
 BYTE   W96
//  #09 //047   ----------------------------------------
 BYTE   PATT
  POIN2 Label_0100431D
//  #09 //048   ----------------------------------------
 BYTE   W96
//  #09 //049   ----------------------------------------
 BYTE   W96
//  #09 //050   ----------------------------------------
 BYTE   W96
//  #09 //051   ----------------------------------------
 BYTE   W96
//  #09 //052   ----------------------------------------
 BYTE   W96
//  #09 //053   ----------------------------------------
 BYTE   W96
//  #09 //054   ----------------------------------------
 BYTE   W96
//  #09 //055   ----------------------------------------
 BYTE   W96
//  #09 //056   ----------------------------------------
 BYTE   W96
//  #09 //057   ----------------------------------------
 BYTE   W96
//  #09 //058   ----------------------------------------
 BYTE   W96
//  #09 //059   ----------------------------------------
 BYTE   W96
//  #09 //060   ----------------------------------------
 BYTE   W96
//  #09 //061   ----------------------------------------
 BYTE   W96
//  #09 //062   ----------------------------------------
 BYTE   GoTo
  POIN2 Label_0100430E
//  #09 //063   ----------------------------------------
 BYTE   W96
//  #09 //064   ----------------------------------------
 BYTE   W96
//  #09 //065   ----------------------------------------
 BYTE   W96
//  #09 //066   ----------------------------------------
 BYTE   W96
//  #09 //067   ----------------------------------------
 BYTE   W96
//  #09 //068   ----------------------------------------
 BYTE   W96
//  #09 //069   ----------------------------------------
 BYTE   W96
//  #09 //070   ----------------------------------------
 BYTE   W96
 BYTE   FINE

//**************** Track 10 (Midi-Chn.9) ****************//

FF10BrassdeChocoboTak_010:
//  #10 //000   ----------------------------------------
 BYTE   KEYSH   FF10BrassdeChocoboTak_key+0
 BYTE   VOICE   124
 BYTE   VOL   68*FF10BrassdeChocoboTak_mvl/mxv
 BYTE   BENDR  12
 BYTE   N06  Cn1  v085
 BYTE   N06  An1
 BYTE   W12
 BYTE   An1
 BYTE   N07  Fs1
 BYTE   W12
 BYTE   N06  Cn1
 BYTE   N06  Gn1
 BYTE   W07
 BYTE   Ds2
 BYTE   W05
 BYTE   Bn1
 BYTE   N07  Fs1
 BYTE   W07
 BYTE   N06  Ds2  v072
 BYTE   W01
 BYTE   Gn1  v085
 BYTE   W04
 BYTE   An1
 BYTE   N06  Cn1
 BYTE   W08
 BYTE   An1
 BYTE   W04
 BYTE   N07  Fs1
 BYTE   N06  Gn1
 BYTE   W07
 BYTE   Ds2
 BYTE   W05
 BYTE   Cn1
 BYTE   N06  An1
 BYTE   W08
 BYTE   Fn1
 BYTE   W04
 BYTE   N07  Fs1
 BYTE   N06  An1
 BYTE   W08
 BYTE   Fn1  v072
 BYTE   W04
//  #10 //001   ----------------------------------------
 BYTE   An1  v085
 BYTE   N06  Cn1
 BYTE   W12
 BYTE   An1
 BYTE   N07  Fs1
 BYTE   W12
 BYTE   N06  Gn1
 BYTE   N06  Cn1
 BYTE   W07
 BYTE   Ds2
 BYTE   W05
 BYTE   N07  Fs1
 BYTE   N06  Bn1
 BYTE   W07
 BYTE   Ds2  v072
 BYTE   W01
 BYTE   Gn1  v085
 BYTE   W04
 BYTE   Cn1
 BYTE   N06  An1
 BYTE   W08
 BYTE   An1
 BYTE   W04
 BYTE   Gn1
 BYTE   N07  Fs1
 BYTE   W07
 BYTE   N06  Ds2
 BYTE   W05
 BYTE   Cn1
 BYTE   N06  An1
 BYTE   W08
 BYTE   Fn1
 BYTE   W04
 BYTE   N07  Fs1
 BYTE   N06  An1
 BYTE   W08
 BYTE   Fn1  v072
 BYTE   W04
//  #10 //002   ----------------------------------------
Label_0102600D:
 BYTE   N06  An1  v085
 BYTE   N32  Cs2  v085  gtp1
 BYTE   N06  Cn1
 BYTE   W12
 BYTE   N07  Fs1
 BYTE   N06  An1
 BYTE   W12
 BYTE   Gn1
 BYTE   N06  Cn1
 BYTE   W07
 BYTE   Ds2
 BYTE   W05
 BYTE   N07  Fs1
 BYTE   N06  Bn1
 BYTE   W07
 BYTE   Ds2  v072
 BYTE   W01
 BYTE   Gn1  v085
 BYTE   W04
 BYTE   Cn1
 BYTE   N06  An1
 BYTE   W08
 BYTE   An1
 BYTE   W04
 BYTE   Gn1
 BYTE   N07  Fs1
 BYTE   W07
 BYTE   N06  Ds2
 BYTE   W05
 BYTE   An1
 BYTE   N06  Cn1
 BYTE   W08
 BYTE   Fn1
 BYTE   W04
 BYTE   N07  Fs1
 BYTE   N06  An1
 BYTE   W08
 BYTE   Fn1  v072
 BYTE   W04
//  #10 //003   ----------------------------------------
 BYTE   An1  v085
 BYTE   N06  Cn1
 BYTE   W12
 BYTE   N07  Fs1
 BYTE   N06  An1
 BYTE   W12
 BYTE   Cn1
 BYTE   N06  Gn1
 BYTE   W07
 BYTE   Ds2
 BYTE   W05
 BYTE   Bn1
 BYTE   N07  Fs1
 BYTE   W07
 BYTE   N06  Ds2  v072
 BYTE   W01
 BYTE   Gn1  v085
 BYTE   W04
 BYTE   Cn1
 BYTE   N06  An1
 BYTE   W08
 BYTE   An1
 BYTE   W04
 BYTE   Gn1
 BYTE   N07  Fs1
 BYTE   W07
 BYTE   N06  Ds2
 BYTE   W05
 BYTE   Cn1
 BYTE   N06  An1
 BYTE   W08
 BYTE   Fn1
 BYTE   W04
 BYTE   N07  Fs1
 BYTE   N06  An1
 BYTE   W08
 BYTE   Fn1  v072
 BYTE   W04
//  #10 //004   ----------------------------------------
 BYTE   Cn1  v085
 BYTE   N06  An1
 BYTE   W12
 BYTE   An1
 BYTE   N07  Fs1
 BYTE   W12
 BYTE   N06  Cn1
 BYTE   N06  Gn1
 BYTE   W07
 BYTE   Ds2
 BYTE   W05
 BYTE   Bn1
 BYTE   N07  Fs1
 BYTE   W07
 BYTE   N06  Ds2  v072
 BYTE   W01
 BYTE   Gn1  v085
 BYTE   W04
 BYTE   Cn1
 BYTE   N06  An1
 BYTE   W08
 BYTE   An1
 BYTE   W04
 BYTE   N07  Fs1
 BYTE   N06  Gn1
 BYTE   W07
 BYTE   Ds2
 BYTE   W05
 BYTE   Cn1
 BYTE   N06  An1
 BYTE   W08
 BYTE   Fn1
 BYTE   W04
 BYTE   N07  Fs1
 BYTE   N06  An1
 BYTE   W08
 BYTE   Fn1  v072
 BYTE   W04
//  #10 //005   ----------------------------------------
 BYTE   An1  v085
 BYTE   N06  Cn1
 BYTE   W12
 BYTE   N07  Fs1
 BYTE   N06  An1
 BYTE   W12
 BYTE   Cn1
 BYTE   N06  Gn1
 BYTE   W07
 BYTE   Ds2
 BYTE   W05
 BYTE   Bn1
 BYTE   N07  Fs1
 BYTE   W07
 BYTE   N06  Ds2  v072
 BYTE   W01
 BYTE   Gn1  v085
 BYTE   W04
 BYTE   Cn1
 BYTE   N06  An1
 BYTE   W08
 BYTE   An1
 BYTE   W04
 BYTE   N07  Fs1
 BYTE   N06  Gn1
 BYTE   W07
 BYTE   Ds2
 BYTE   W05
 BYTE   An1
 BYTE   N06  Cn1
 BYTE   W08
 BYTE   Fn1
 BYTE   W04
 BYTE   N07  Fs1
 BYTE   N06  An1
 BYTE   W08
 BYTE   Fn1  v072
 BYTE   W04
//  #10 //006   ----------------------------------------
 BYTE   An1  v085
 BYTE   N32  Cs2  v085  gtp1
 BYTE   N06  Cn1
 BYTE   W12
 BYTE   Ds1
 BYTE   N07  Fs1
 BYTE   N06  An1
 BYTE   W12
 BYTE   Gn1
 BYTE   N06  Cn1
 BYTE   W07
 BYTE   Ds2
 BYTE   W05
 BYTE   Ds1
 BYTE   N07  Fs1
 BYTE   N06  Bn1
 BYTE   W07
 BYTE   Ds2  v072
 BYTE   W01
 BYTE   Gn1  v085
 BYTE   W04
 BYTE   An1
 BYTE   N06  Cn1
 BYTE   W08
 BYTE   An1
 BYTE   W04
 BYTE   N07  Fs1
 BYTE   N06  Ds1
 BYTE   N06  Gn1
 BYTE   W07
 BYTE   Ds2
 BYTE   W05
 BYTE   Cn1
 BYTE   N06  An1
 BYTE   W08
 BYTE   Fn1
 BYTE   W04
 BYTE   N07  Fs1
 BYTE   N06  Ds1
 BYTE   N06  An1
 BYTE   W08
 BYTE   Fn1  v072
 BYTE   W04
//  #10 //007   ----------------------------------------
 BYTE   An1  v085
 BYTE   N06  Cn1
 BYTE   W12
 BYTE   Ds1
 BYTE   N07  Fs1
 BYTE   N06  An1
 BYTE   W12
 BYTE   Cn1
 BYTE   N06  Gn1
 BYTE   W07
 BYTE   Ds2
 BYTE   W05
 BYTE   N07  Fs1
 BYTE   N06  Bn1
 BYTE   N06  Ds1
 BYTE   W07
 BYTE   Ds2  v072
 BYTE   W01
 BYTE   Gn1  v085
 BYTE   W04
 BYTE   Cn1
 BYTE   N06  An1
 BYTE   W08
 BYTE   An1
 BYTE   W04
 BYTE   N07  Fs1
 BYTE   N06  Ds1
 BYTE   N06  Gn1
 BYTE   W07
 BYTE   Ds2
 BYTE   W05
 BYTE   Cn1
 BYTE   N06  An1
 BYTE   W08
 BYTE   Fn1
 BYTE   W04
 BYTE   N07  Fs1
 BYTE   N06  Ds1
 BYTE   N06  An1
 BYTE   W08
 BYTE   Fn1  v072
 BYTE   W04
//  #10 //008   ----------------------------------------
 BYTE   Cn1  v085
 BYTE   N06  An1
 BYTE   W12
 BYTE   N07  Fs1
 BYTE   N06  An1
 BYTE   N06  Ds1
 BYTE   W12
 BYTE   Gn1
 BYTE   N06  Cn1
 BYTE   W07
 BYTE   Ds2
 BYTE   W05
 BYTE   N07  Fs1
 BYTE   N06  Ds1
 BYTE   N06  Bn1
 BYTE   W07
 BYTE   Ds2  v072
 BYTE   W01
 BYTE   Gn1  v085
 BYTE   W04
 BYTE   An1
 BYTE   N06  Cn1
 BYTE   W08
 BYTE   An1
 BYTE   W04
 BYTE   Gn1
 BYTE   N06  Ds1
 BYTE   N07  Fs1
 BYTE   W07
 BYTE   N06  Ds2
 BYTE   W05
 BYTE   An1
 BYTE   N06  Cn1
 BYTE   W08
 BYTE   Fn1
 BYTE   W04
 BYTE   An1
 BYTE   N07  Fs1
 BYTE   N06  Ds1
 BYTE   W08
 BYTE   Fn1  v072
 BYTE   W04
//  #10 //009   ----------------------------------------
 BYTE   An1  v085
 BYTE   N06  Cn1
 BYTE   W12
 BYTE   Ds1
 BYTE   N07  Fs1
 BYTE   N06  An1
 BYTE   W12
 BYTE   Cn1
 BYTE   N06  Gn1
 BYTE   W07
 BYTE   Ds2
 BYTE   W05
 BYTE   N07  Fs1
 BYTE   N06  Ds1
 BYTE   N06  Bn1
 BYTE   W07
 BYTE   Ds2  v072
 BYTE   W01
 BYTE   Gn1  v085
 BYTE   W06
 BYTE   Cn2
 BYTE   W04
 BYTE   Bn1
 BYTE   W02
 BYTE   An1
 BYTE   W04
 BYTE   Dn1
 BYTE   N08  As1
 BYTE   W12
 BYTE   N07  Fs1  v006
 BYTE   W24
//  #10 //010   ----------------------------------------
 BYTE   N06  Cn1  v085
 BYTE   N07  Fs1
 BYTE   W12
 BYTE   N08  As1
 BYTE   W12
 BYTE   N06  Cn1
 BYTE   N07  Fs1
 BYTE   W08
 BYTE   Fs1
 BYTE   W04
 BYTE   N08  As1
 BYTE   W12
 BYTE   N07  Fs1
 BYTE   N06  Cn1
 BYTE   W08
 BYTE   N07  Fs1
 BYTE   W04
 BYTE   N08  As1
 BYTE   W12
 BYTE   N07  Fs1
 BYTE   N06  Cn1
 BYTE   W08
 BYTE   N07  Fs1
 BYTE   W04
 BYTE   N08  As1
 BYTE   W12
//  #10 //011   ----------------------------------------
 BYTE   N07  Fs1
 BYTE   N06  Cn1
 BYTE   W12
 BYTE   N08  As1
 BYTE   W12
 BYTE   N06  Cn1
 BYTE   N07  Fs1
 BYTE   W08
 BYTE   Fs1
 BYTE   W04
 BYTE   N08  As1
 BYTE   W12
 BYTE   N06  Cn1
 BYTE   N07  Fs1
 BYTE   W08
 BYTE   Fs1
 BYTE   W04
 BYTE   N32  Cs2  v085  gtp1
 BYTE   N08  As1
 BYTE   W12
 BYTE   N07  Fs1
 BYTE   N06  Cn1
 BYTE   W08
 BYTE   N07  Fs1
 BYTE   W04
 BYTE   N08  As1
 BYTE   W12
//  #10 //012   ----------------------------------------
Label_01026224:
 BYTE   N07  Fs1  v085
 BYTE   N06  Cn1
 BYTE   W12
 BYTE   N08  As1
 BYTE   W12
 BYTE   N06  Cn1
 BYTE   N07  Fs1
 BYTE   W08
 BYTE   Fs1
 BYTE   W04
 BYTE   N08  As1
 BYTE   W12
 BYTE   N07  Fs1
 BYTE   N06  Cn1
 BYTE   W08
 BYTE   N07  Fs1
 BYTE   W04
 BYTE   N08  As1
 BYTE   W12
 BYTE   N06  Cn1
 BYTE   N07  Fs1
 BYTE   W08
 BYTE   Fs1
 BYTE   W04
 BYTE   N08  As1
 BYTE   W12
 BYTE   PEND 
//  #10 //013   ----------------------------------------
 BYTE   N06  Cn1
 BYTE   N07  Fs1
 BYTE   W04
 BYTE   N08  As1  v059
 BYTE   W04
 BYTE   N07  Fs1
 BYTE   W04
 BYTE   N08  As1  v085
 BYTE   W12
 BYTE   N06  Cn1
 BYTE   N07  Fs1
 BYTE   W08
 BYTE   N06  Cn1
 BYTE   N08  As1
 BYTE   W04
 BYTE   N07  Fs1
 BYTE   W08
 BYTE   N06  Cn1
 BYTE   N08  As1
 BYTE   W04
 BYTE   N07  Fs1
 BYTE   W20
 BYTE   Fs1
 BYTE   W04
 BYTE   N06  An1
 BYTE   W12
 BYTE   Gn1
 BYTE   W12
//  #10 //014   ----------------------------------------
Label_01026279:
 BYTE   N06  Cn1  v085
 BYTE   N07  Fs1
 BYTE   W12
 BYTE   N08  As1
 BYTE   W12
 BYTE   N07  Fs1
 BYTE   W08
 BYTE   Fs1
 BYTE   N06  Cn1
 BYTE   W04
 BYTE   N08  As1
 BYTE   W12
 BYTE   N06  Cn1
 BYTE   N07  Fs1
 BYTE   W08
 BYTE   Fs1
 BYTE   W04
 BYTE   N08  As1
 BYTE   W12
 BYTE   N07  Fs1
 BYTE   W08
 BYTE   Fs1
 BYTE   N06  Cn1
 BYTE   W04
 BYTE   N08  As1
 BYTE   W12
 BYTE   PEND 
//  #10 //015   ----------------------------------------
 BYTE   N06  Cn1
 BYTE   N07  Fs1
 BYTE   W12
 BYTE   N08  As1
 BYTE   W12
 BYTE   N06  Cn1
 BYTE   N07  Fs1
 BYTE   W08
 BYTE   Fs1
 BYTE   W04
 BYTE   N08  As1
 BYTE   W08
 BYTE   N06  Cn1
 BYTE   W04
 BYTE   N07  Fs1
 BYTE   W08
 BYTE   Fs1
 BYTE   W04
 BYTE   N08  As1
 BYTE   W12
 BYTE   N07  Fs1
 BYTE   W08
 BYTE   Fs1
 BYTE   N06  Cn1
 BYTE   W04
 BYTE   N08  As1
 BYTE   W12
//  #10 //016   ----------------------------------------
 BYTE   N07  Fs1
 BYTE   N06  Cn1
 BYTE   W12
 BYTE   N08  As1
 BYTE   W12
 BYTE   N07  Fs1
 BYTE   W08
 BYTE   N06  Cn1
 BYTE   N07  Fs1
 BYTE   W04
 BYTE   N08  As1
 BYTE   W12
 BYTE   N06  Cn1
 BYTE   N07  Fs1
 BYTE   W08
 BYTE   Fs1
 BYTE   W04
 BYTE   N08  As1
 BYTE   W12
 BYTE   N07  Fs1
 BYTE   W08
 BYTE   Fs1
 BYTE   N06  Cn1
 BYTE   W04
 BYTE   N08  As1
 BYTE   W12
//  #10 //017   ----------------------------------------
 BYTE   N06  Cn1
 BYTE   N07  Fs1
 BYTE   W12
 BYTE   N08  As1
 BYTE   W12
 BYTE   N07  Fs1
 BYTE   N06  Cn1
 BYTE   W08
 BYTE   N07  Fs1
 BYTE   W04
 BYTE   N08  As1
 BYTE   W08
 BYTE   N06  Cn1
 BYTE   W04
 BYTE   N07  Fs1
 BYTE   W24
 BYTE   N32  Cs2  v085  gtp1
 BYTE   N06  Dn1
 BYTE   W24
//  #10 //018   ----------------------------------------
 BYTE   Cn1
 BYTE   N07  Fs1
 BYTE   W12
 BYTE   N08  As1
 BYTE   W12
 BYTE   N07  Fs1
 BYTE   W08
 BYTE   N06  Cn1
 BYTE   N07  Fs1
 BYTE   W04
 BYTE   N08  As1
 BYTE   W12
 BYTE   N07  Fs1
 BYTE   N06  Cn1
 BYTE   W08
 BYTE   N07  Fs1
 BYTE   W04
 BYTE   N08  As1
 BYTE   W12
 BYTE   N07  Fs1
 BYTE   W08
 BYTE   Fs1
 BYTE   N06  Cn1
 BYTE   W04
 BYTE   N08  As1
 BYTE   W12
//  #10 //019   ----------------------------------------
 BYTE   N06  Cn1
 BYTE   N07  Fs1
 BYTE   W12
 BYTE   N08  As1
 BYTE   W12
 BYTE   N07  Fs1
 BYTE   N06  Cn1
 BYTE   W08
 BYTE   N07  Fs1
 BYTE   W04
 BYTE   N08  As1
 BYTE   W08
 BYTE   N06  Cn1
 BYTE   W04
 BYTE   N07  Fs1
 BYTE   W08
 BYTE   Fs1
 BYTE   W04
 BYTE   N08  As1
 BYTE   W12
 BYTE   N07  Fs1
 BYTE   W08
 BYTE   N06  Cn1
 BYTE   N07  Fs1
 BYTE   W04
 BYTE   N08  As1
 BYTE   W12
//  #10 //020   ----------------------------------------
 BYTE   N07  Fs1
 BYTE   N06  Cn1
 BYTE   W12
 BYTE   N08  As1
 BYTE   W12
 BYTE   N07  Fs1
 BYTE   W08
 BYTE   Fs1
 BYTE   N06  Cn1
 BYTE   W04
 BYTE   N08  As1
 BYTE   W12
 BYTE   N07  Fs1
 BYTE   N06  Cn1
 BYTE   W08
 BYTE   N07  Fs1
 BYTE   W04
 BYTE   N08  As1
 BYTE   W12
 BYTE   N07  Fs1
 BYTE   W08
 BYTE   Fs1
 BYTE   N06  Cn1
 BYTE   W04
 BYTE   N08  As1
 BYTE   W12
//  #10 //021   ----------------------------------------
 BYTE   N06  An1
 BYTE   W12
 BYTE   N07  Fs1
 BYTE   N06  Cn1
 BYTE   W08
 BYTE   Cn2
 BYTE   W12
 BYTE   Cn1
 BYTE   W04
 BYTE   N07  Fs1
 BYTE   N06  Gn1
 BYTE   W12
 BYTE   Cn1
 BYTE   W08
 BYTE   Cn2
 BYTE   W04
 BYTE   N07  Fs1
 BYTE   W08
 BYTE   N06  Cn1
 BYTE   W04
 BYTE   Gn1
 BYTE   W12
 BYTE   Gn2
 BYTE   N07  Fs1
 BYTE   N02  Dn1  v072
 BYTE   W02
 BYTE   N04
 BYTE   W04
 BYTE   N02
 BYTE   W02
 BYTE   N04
 BYTE   W03
 BYTE   N06  Ds2  v100
 BYTE   W01
//  #10 //022   ----------------------------------------
Label_010263B4:
 BYTE   N06  Cn1  v085
 BYTE   W11
 BYTE   Ds2
 BYTE   W08
 BYTE   N04
 BYTE   W04
 BYTE   N02  Ds2  v100
 BYTE   W12
 BYTE   N06  Ds2  v085
 BYTE   W08
 BYTE   N04
 BYTE   W04
 BYTE   N02  Ds2  v100
 BYTE   W09
 BYTE   N06  Cn1  v085
 BYTE   W03
 BYTE   Ds2
 BYTE   W08
 BYTE   Ds2
 BYTE   W05
 BYTE   Cn1
 BYTE   W07
 BYTE   N04  Ds2  v100
 BYTE   W04
 BYTE   N02  Ds2  v085
 BYTE   W12
 BYTE   N06  Ds2  v100
 BYTE   W01
 BYTE   PEND 
//  #10 //023   ----------------------------------------
Label_010263E1:
 BYTE   N06  Cn1  v085
 BYTE   W11
 BYTE   Ds2
 BYTE   W08
 BYTE   N04
 BYTE   W04
 BYTE   N02  Ds2  v100
 BYTE   W12
 BYTE   N06  Ds2  v085
 BYTE   W08
 BYTE   N04
 BYTE   W04
 BYTE   N02  Ds2  v100
 BYTE   W01
 BYTE   N06  Cn1  v085
 BYTE   W11
 BYTE   Ds2
 BYTE   W01
 BYTE   Cn1
 BYTE   W07
 BYTE   Ds2
 BYTE   W12
 BYTE   N04  Ds2  v100
 BYTE   W01
 BYTE   N06  Cn1  v085
 BYTE   W03
 BYTE   N02  Ds2
 BYTE   W09
 BYTE   N04  Cn1
 BYTE   W04
 BYTE   PEND 
//  #10 //024   ----------------------------------------
 BYTE   N02
 BYTE   W08
 BYTE   N06  Dn1
 BYTE   W04
 BYTE   N07  Fs1
 BYTE   N06  Gn1
 BYTE   W08
 BYTE   Fn1
 BYTE   W04
 BYTE   Cn1
 BYTE   W12
 BYTE   N07  Fs1
 BYTE   N06  Gn2
 BYTE   W12
 BYTE   N02  Dn1  v072
 BYTE   W02
 BYTE   N04
 BYTE   W04
 BYTE   N02
 BYTE   W02
 BYTE   N04
 BYTE   W04
 BYTE   N07  Fs1  v085
 BYTE   N02  Dn1
 BYTE   W12
 BYTE   N07  Fs1
 BYTE   W08
 BYTE   N04  As1
 BYTE   N06  Cn1
 BYTE   W04
 BYTE   En2
 BYTE   N04  As1
 BYTE   W08
 BYTE   N07  Fs1
 BYTE   W03
 BYTE   N06  Ds2  v100
 BYTE   W01
//  #10 //025   ----------------------------------------
Label_01026446:
 BYTE   N06  Cn1  v085
 BYTE   W11
 BYTE   Ds2
 BYTE   W08
 BYTE   N04
 BYTE   W04
 BYTE   N02  Ds2  v100
 BYTE   W12
 BYTE   N06  Ds2  v085
 BYTE   W08
 BYTE   N04
 BYTE   W04
 BYTE   N02  Ds2  v100
 BYTE   W09
 BYTE   N06  Cn1  v085
 BYTE   W03
 BYTE   Ds2
 BYTE   W08
 BYTE   Ds2
 BYTE   W05
 BYTE   Cn1
 BYTE   W07
 BYTE   N04  Ds2  v100
 BYTE   W04
 BYTE   N02  Ds2  v085
 BYTE   W09
 BYTE   N04  Cn1
 BYTE   W03
 BYTE   N06  Ds2  v100
 BYTE   W01
 BYTE   PEND 
//  #10 //026   ----------------------------------------
Label_01026476:
 BYTE   N02  Cn1  v085
 BYTE   W11
 BYTE   N06  Ds2
 BYTE   W08
 BYTE   N04
 BYTE   W04
 BYTE   N02  Ds2  v100
 BYTE   W12
 BYTE   N06  Ds2  v085
 BYTE   W08
 BYTE   N04
 BYTE   W04
 BYTE   N02  Ds2  v100
 BYTE   W09
 BYTE   N06  Cn1  v085
 BYTE   W03
 BYTE   Ds2
 BYTE   W08
 BYTE   Ds2
 BYTE   W05
 BYTE   Cn1
 BYTE   W07
 BYTE   N04  Ds2  v100
 BYTE   W04
 BYTE   N02  Ds2  v085
 BYTE   W12
 BYTE   N06  Ds2  v100
 BYTE   W01
 BYTE   PEND 
//  #10 //027   ----------------------------------------
 BYTE   PATT
  POIN2 Label_010263E1
//  #10 //028   ----------------------------------------
 BYTE   N08  As1  v085
 BYTE   N02  Cn1
 BYTE   W12
 BYTE   N07  Fs1
 BYTE   W08
 BYTE   Fs1
 BYTE   W04
 BYTE   N06  Cn1
 BYTE   N08  As1
 BYTE   W12
 BYTE   N07  Fs1
 BYTE   W08
 BYTE   Fs1
 BYTE   W04
 BYTE   N08  As1
 BYTE   N06  Cn1
 BYTE   W12
 BYTE   N07  Fs1
 BYTE   W08
 BYTE   Fs1
 BYTE   W04
 BYTE   N08  As1
 BYTE   N06  Cn1
 BYTE   W12
 BYTE   N07  Fs1
 BYTE   W08
 BYTE   Fs1
 BYTE   W04
//  #10 //029   ----------------------------------------
 BYTE   N08  As1
 BYTE   N06  Cn1
 BYTE   W12
 BYTE   N07  Fs1
 BYTE   W08
 BYTE   Fs1
 BYTE   W04
 BYTE   N08  As1
 BYTE   N06  Cn1
 BYTE   W12
 BYTE   N07  Fs1
 BYTE   W08
 BYTE   Fs1
 BYTE   W04
 BYTE   N06  Cn1
 BYTE   N08  As1
 BYTE   W08
 BYTE   N06  Dn1
 BYTE   W04
 BYTE   Cn1
 BYTE   N07  Fs1
 BYTE   W08
 BYTE   Fs1
 BYTE   N06  Cn1
 BYTE   W04
 BYTE   Dn1
 BYTE   N08  As1
 BYTE   W12
 BYTE   N07  Fs1
 BYTE   N06  Dn1
 BYTE   W08
 BYTE   Dn1
 BYTE   N07  Fs1
 BYTE   W04
//  #10 //030   ----------------------------------------
 BYTE   N32  Cs2  v085  gtp1
 BYTE   N06  An1
 BYTE   N06  Cn1
 BYTE   W12
 BYTE   N07  Fs1
 BYTE   N06  An1
 BYTE   W12
 BYTE   Cn1
 BYTE   N06  Gn1
 BYTE   W07
 BYTE   Ds2
 BYTE   W05
 BYTE   N07  Fs1
 BYTE   N06  Bn1
 BYTE   W07
 BYTE   Ds2  v072
 BYTE   W01
 BYTE   Gn1  v085
 BYTE   W04
 BYTE   Cn1
 BYTE   N06  An1
 BYTE   W08
 BYTE   An1
 BYTE   W04
 BYTE   N07  Fs1
 BYTE   N06  Gn1
 BYTE   W07
 BYTE   Ds2
 BYTE   W05
 BYTE   Cn1
 BYTE   N06  An1
 BYTE   W08
 BYTE   Fn1
 BYTE   W04
 BYTE   N07  Fs1
 BYTE   N06  An1
 BYTE   W08
 BYTE   Fn1  v072
 BYTE   W04
//  #10 //031   ----------------------------------------
 BYTE   Cn1  v085
 BYTE   N06  An1
 BYTE   W12
 BYTE   N07  Fs1
 BYTE   N06  An1
 BYTE   W12
 BYTE   Cn1
 BYTE   N06  Gn1
 BYTE   W07
 BYTE   Ds2
 BYTE   W05
 BYTE   N07  Fs1
 BYTE   N06  Bn1
 BYTE   W07
 BYTE   Ds2  v072
 BYTE   W01
 BYTE   Gn1  v085
 BYTE   W04
 BYTE   An1
 BYTE   N06  Cn1
 BYTE   W08
 BYTE   An1
 BYTE   W04
 BYTE   N07  Fs1
 BYTE   N06  Gn1
 BYTE   W07
 BYTE   Ds2
 BYTE   W05
 BYTE   Cn1
 BYTE   N06  An1
 BYTE   W08
 BYTE   Fn1
 BYTE   W04
 BYTE   N07  Fs1
 BYTE   N06  An1
 BYTE   W08
 BYTE   Fn1  v072
 BYTE   W04
//  #10 //032   ----------------------------------------
 BYTE   N32  Cs2  v085  gtp1
 BYTE   N06  An1
 BYTE   N06  Cn1
 BYTE   W12
 BYTE   An1
 BYTE   N07  Fs1
 BYTE   W12
 BYTE   N06  Cn1
 BYTE   N06  Gn1
 BYTE   W07
 BYTE   Ds2
 BYTE   W05
 BYTE   Bn1
 BYTE   N07  Fs1
 BYTE   W07
 BYTE   N06  Ds2  v072
 BYTE   W01
 BYTE   Gn1  v085
 BYTE   W04
 BYTE   An1
 BYTE   N06  Cn1
 BYTE   W08
 BYTE   An1
 BYTE   W04
 BYTE   N07  Fs1
 BYTE   N06  Gn1
 BYTE   W07
 BYTE   Ds2
 BYTE   W05
 BYTE   Cn1
 BYTE   N06  An1
 BYTE   W08
 BYTE   Fn1
 BYTE   W04
 BYTE   N07  Fs1
 BYTE   N06  An1
 BYTE   W08
 BYTE   Fn1  v072
 BYTE   W04
//  #10 //033   ----------------------------------------
 BYTE   An1  v085
 BYTE   N06  Cn1
 BYTE   W12
 BYTE   An1
 BYTE   N07  Fs1
 BYTE   W12
 BYTE   N06  Gn1
 BYTE   N06  Cn1
 BYTE   W07
 BYTE   Ds2
 BYTE   W05
 BYTE   N07  Fs1
 BYTE   N06  Bn1
 BYTE   W07
 BYTE   Ds2  v072
 BYTE   W01
 BYTE   Gn1  v085
 BYTE   W04
 BYTE   Cn1
 BYTE   N06  An1
 BYTE   W08
 BYTE   An1
 BYTE   W04
 BYTE   Gn1
 BYTE   N07  Fs1
 BYTE   W07
 BYTE   N06  Ds2
 BYTE   W05
 BYTE   Cn1
 BYTE   N06  An1
 BYTE   W08
 BYTE   Fn1
 BYTE   W04
 BYTE   An1
 BYTE   N07  Fs1
 BYTE   W08
 BYTE   N06  Fn1  v072
 BYTE   W04
//  #10 //034   ----------------------------------------
 BYTE   An1  v085
 BYTE   N06  Cn1
 BYTE   W12
 BYTE   N07  Fs1
 BYTE   N06  An1
 BYTE   W12
 BYTE   Cn1
 BYTE   N06  Gn1
 BYTE   W07
 BYTE   Ds2
 BYTE   W05
 BYTE   N07  Fs1
 BYTE   N06  Bn1
 BYTE   W07
 BYTE   Ds2  v072
 BYTE   W01
 BYTE   Gn1  v085
 BYTE   W04
 BYTE   Cn1
 BYTE   N06  An1
 BYTE   W08
 BYTE   An1
 BYTE   W04
 BYTE   N07  Fs1
 BYTE   N06  Gn1
 BYTE   W07
 BYTE   Ds2
 BYTE   W05
 BYTE   Cn1
 BYTE   N06  An1
 BYTE   W08
 BYTE   Fn1
 BYTE   W04
 BYTE   N07  Fs1
 BYTE   N06  An1
 BYTE   W08
 BYTE   Fn1  v072
 BYTE   W04
//  #10 //035   ----------------------------------------
 BYTE   Cn1  v085
 BYTE   N06  An1
 BYTE   W12
 BYTE   N07  Fs1
 BYTE   N06  An1
 BYTE   W12
 BYTE   Cn1
 BYTE   N06  Gn1
 BYTE   W07
 BYTE   Ds2
 BYTE   W05
 BYTE   Bn1
 BYTE   N07  Fs1
 BYTE   W07
 BYTE   N06  Ds2  v072
 BYTE   W01
 BYTE   Gn1  v085
 BYTE   W04
 BYTE   An1
 BYTE   N06  Cn1
 BYTE   W08
 BYTE   An1
 BYTE   W04
 BYTE   N07  Fs1
 BYTE   N06  Gn1
 BYTE   W07
 BYTE   Ds2
 BYTE   W05
 BYTE   An1
 BYTE   N06  Cn1
 BYTE   W08
 BYTE   Fn1
 BYTE   W04
 BYTE   N07  Fs1
 BYTE   N06  An1
 BYTE   W08
 BYTE   Fn1  v072
 BYTE   W04
//  #10 //036   ----------------------------------------
 BYTE   Cn1  v085
 BYTE   N32  Cs2  v085  gtp1
 BYTE   N06  An1
 BYTE   W12
 BYTE   Ds1
 BYTE   N06  An1
 BYTE   N07  Fs1
 BYTE   W12
 BYTE   N06  Cn1
 BYTE   N06  Gn1
 BYTE   W07
 BYTE   Ds2
 BYTE   W05
 BYTE   N07  Fs1
 BYTE   N06  Ds1
 BYTE   N06  Bn1
 BYTE   W07
 BYTE   Ds2  v072
 BYTE   W01
 BYTE   Gn1  v085
 BYTE   W04
 BYTE   An1
 BYTE   N06  Cn1
 BYTE   W08
 BYTE   An1
 BYTE   W04
 BYTE   N07  Fs1
 BYTE   N06  Ds1
 BYTE   N06  Gn1
 BYTE   W07
 BYTE   Ds2
 BYTE   W05
 BYTE   Cn1
 BYTE   N06  An1
 BYTE   W08
 BYTE   Fn1
 BYTE   W04
 BYTE   An1
 BYTE   N06  Ds1
 BYTE   N07  Fs1
 BYTE   W08
 BYTE   N06  Fn1  v072
 BYTE   W04
//  #10 //037   ----------------------------------------
 BYTE   An1  v085
 BYTE   N06  Cn1
 BYTE   W12
 BYTE   N07  Fs1
 BYTE   N06  Ds1
 BYTE   N06  An1
 BYTE   W12
 BYTE   Cn1
 BYTE   N06  Gn1
 BYTE   W07
 BYTE   Ds2
 BYTE   W05
 BYTE   N07  Fs1
 BYTE   N06  Ds1
 BYTE   N06  Bn1
 BYTE   W07
 BYTE   Ds2  v072
 BYTE   W01
 BYTE   Gn1  v085
 BYTE   W04
 BYTE   Cn1
 BYTE   N06  An1
 BYTE   W08
 BYTE   An1
 BYTE   W04
 BYTE   N07  Fs1
 BYTE   N06  Gn1
 BYTE   N06  Ds1
 BYTE   W07
 BYTE   Ds2
 BYTE   W05
 BYTE   Cn1
 BYTE   N06  An1
 BYTE   W08
 BYTE   Fn1
 BYTE   W04
 BYTE   N07  Fs1
 BYTE   N06  An1
 BYTE   N06  Ds1
 BYTE   W08
 BYTE   Fn1  v072
 BYTE   W04
//  #10 //038   ----------------------------------------
 BYTE   Cn1  v085
 BYTE   N06  An1
 BYTE   W12
 BYTE   Ds1
 BYTE   N06  An1
 BYTE   N07  Fs1
 BYTE   W12
 BYTE   N06  Cn1
 BYTE   N06  Gn1
 BYTE   W07
 BYTE   Ds2
 BYTE   W05
 BYTE   N07  Fs1
 BYTE   N06  Bn1
 BYTE   N06  Ds1
 BYTE   W07
 BYTE   Ds2  v072
 BYTE   W01
 BYTE   Gn1  v085
 BYTE   W04
 BYTE   An1
 BYTE   N06  Cn1
 BYTE   W08
 BYTE   An1
 BYTE   W04
 BYTE   N07  Fs1
 BYTE   N06  Ds1
 BYTE   N06  Gn1
 BYTE   W07
 BYTE   Ds2
 BYTE   W05
 BYTE   Cn1
 BYTE   N06  An1
 BYTE   W08
 BYTE   Fn1
 BYTE   W04
 BYTE   Ds1
 BYTE   N06  An1
 BYTE   N07  Fs1
 BYTE   W08
 BYTE   N06  Fn1  v072
 BYTE   W04
//  #10 //039   ----------------------------------------
 BYTE   An1  v085
 BYTE   N06  Cn1
 BYTE   W12
 BYTE   N07  Fs1
 BYTE   N06  Ds1
 BYTE   N06  An1
 BYTE   W12
 BYTE   Cn1
 BYTE   N06  Gn1
 BYTE   W07
 BYTE   Ds2
 BYTE   W05
 BYTE   Ds1
 BYTE   N06  Bn1
 BYTE   N07  Fs1
 BYTE   W07
 BYTE   N06  Ds2  v072
 BYTE   W01
 BYTE   Gn1  v085
 BYTE   W04
 BYTE   An1
 BYTE   W02
 BYTE   Cn2
 BYTE   W04
 BYTE   Bn1
 BYTE   W02
 BYTE   An1
 BYTE   W04
 BYTE   N08  As1
 BYTE   N06  Dn1
 BYTE   W12
 BYTE   N07  Fs1  v006
 BYTE   W24
//  #10 //040   ----------------------------------------
 BYTE   PATT
  POIN2 Label_01026224
//  #10 //041   ----------------------------------------
 BYTE   N07  Fs1  v085
 BYTE   N06  Cn1
 BYTE   W12
 BYTE   N08  As1
 BYTE   W12
 BYTE   N06  Cn1
 BYTE   N07  Fs1
 BYTE   W08
 BYTE   Fs1
 BYTE   W04
 BYTE   N08  As1
 BYTE   W12
 BYTE   N07  Fs1
 BYTE   N06  Cn1
 BYTE   W08
 BYTE   N07  Fs1
 BYTE   W04
 BYTE   N08  As1
 BYTE   N32  Cs2  v085  gtp1
 BYTE   W12
 BYTE   N07  Fs1
 BYTE   N06  Cn1
 BYTE   W08
 BYTE   N07  Fs1
 BYTE   W04
 BYTE   N08  As1
 BYTE   W12
//  #10 //042   ----------------------------------------
 BYTE   N07  Fs1
 BYTE   N06  Cn1
 BYTE   W12
 BYTE   N08  As1
 BYTE   W12
 BYTE   N06  Cn1
 BYTE   N07  Fs1
 BYTE   W08
 BYTE   Fs1
 BYTE   W04
 BYTE   N08  As1
 BYTE   W12
 BYTE   N06  Cn1
 BYTE   N07  Fs1
 BYTE   W08
 BYTE   Fs1
 BYTE   W04
 BYTE   N08  As1
 BYTE   W12
 BYTE   N06  Cn1
 BYTE   N07  Fs1
 BYTE   W08
 BYTE   Fs1
 BYTE   W04
 BYTE   N08  As1
 BYTE   W12
//  #10 //043   ----------------------------------------
 BYTE   N07  Fs1
 BYTE   N06  Cn1
 BYTE   W04
 BYTE   N08  As1  v059
 BYTE   W04
 BYTE   N07  Fs1
 BYTE   W04
 BYTE   N08  As1  v085
 BYTE   W12
 BYTE   N07  Fs1
 BYTE   N06  Cn1
 BYTE   W08
 BYTE   N08  As1
 BYTE   N06  Cn1
 BYTE   W04
 BYTE   N07  Fs1
 BYTE   W08
 BYTE   N06  Cn1
 BYTE   N08  As1
 BYTE   W04
 BYTE   N07  Fs1
 BYTE   W20
 BYTE   Fs1
 BYTE   W04
 BYTE   N06  An1
 BYTE   W12
 BYTE   Gn1
 BYTE   W12
//  #10 //044   ----------------------------------------
 BYTE   PATT
  POIN2 Label_01026279
//  #10 //045   ----------------------------------------
 BYTE   N06  Cn1  v085
 BYTE   N07  Fs1
 BYTE   W12
 BYTE   N08  As1
 BYTE   W12
 BYTE   N06  Cn1
 BYTE   N07  Fs1
 BYTE   W08
 BYTE   Fs1
 BYTE   W04
 BYTE   N08  As1
 BYTE   W08
 BYTE   N06  Cn1
 BYTE   W04
 BYTE   N07  Fs1
 BYTE   W08
 BYTE   Fs1
 BYTE   W04
 BYTE   N08  As1
 BYTE   W12
 BYTE   N07  Fs1
 BYTE   W08
 BYTE   N06  Cn1
 BYTE   N07  Fs1
 BYTE   W04
 BYTE   N08  As1
 BYTE   W12
//  #10 //046   ----------------------------------------
 BYTE   N06  Cn1
 BYTE   N07  Fs1
 BYTE   W12
 BYTE   N08  As1
 BYTE   W12
 BYTE   N07  Fs1
 BYTE   W08
 BYTE   Fs1
 BYTE   N06  Cn1
 BYTE   W04
 BYTE   N08  As1
 BYTE   W12
 BYTE   N07  Fs1
 BYTE   N06  Cn1
 BYTE   W08
 BYTE   N07  Fs1
 BYTE   W04
 BYTE   N08  As1
 BYTE   W12
 BYTE   N07  Fs1
 BYTE   W08
 BYTE   N06  Cn1
 BYTE   N07  Fs1
 BYTE   W04
 BYTE   N08  As1
 BYTE   W12
//  #10 //047   ----------------------------------------
 BYTE   N07  Fs1
 BYTE   N06  Cn1
 BYTE   W12
 BYTE   N08  As1
 BYTE   W12
 BYTE   N06  Cn1
 BYTE   N07  Fs1
 BYTE   W08
 BYTE   Fs1
 BYTE   W04
 BYTE   N08  As1
 BYTE   W08
 BYTE   N06  Cn1
 BYTE   W04
 BYTE   N07  Fs1
 BYTE   W24
 BYTE   N06  Dn1
 BYTE   N32  Cs2  v085  gtp1
 BYTE   W24
//  #10 //048   ----------------------------------------
 BYTE   N06  Cn1
 BYTE   N07  Fs1
 BYTE   W12
 BYTE   N08  As1
 BYTE   W12
 BYTE   N07  Fs1
 BYTE   W08
 BYTE   N06  Cn1
 BYTE   N07  Fs1
 BYTE   W04
 BYTE   N08  As1
 BYTE   W12
 BYTE   N07  Fs1
 BYTE   N06  Cn1
 BYTE   W08
 BYTE   N07  Fs1
 BYTE   W04
 BYTE   N08  As1
 BYTE   W12
 BYTE   N07  Fs1
 BYTE   W08
 BYTE   N06  Cn1
 BYTE   N07  Fs1
 BYTE   W04
 BYTE   N08  As1
 BYTE   W12
//  #10 //049   ----------------------------------------
 BYTE   N07  Fs1
 BYTE   N06  Cn1
 BYTE   W12
 BYTE   N08  As1
 BYTE   W12
 BYTE   N07  Fs1
 BYTE   N06  Cn1
 BYTE   W08
 BYTE   N07  Fs1
 BYTE   W04
 BYTE   N08  As1
 BYTE   W08
 BYTE   N06  Cn1
 BYTE   W04
 BYTE   N07  Fs1
 BYTE   W08
 BYTE   Fs1
 BYTE   W04
 BYTE   N08  As1
 BYTE   W12
 BYTE   N07  Fs1
 BYTE   W08
 BYTE   Fs1
 BYTE   N06  Cn1
 BYTE   W04
 BYTE   N08  As1
 BYTE   W12
//  #10 //050   ----------------------------------------
 BYTE   N06  Cn1
 BYTE   N07  Fs1
 BYTE   W12
 BYTE   N08  As1
 BYTE   W12
 BYTE   N07  Fs1
 BYTE   W08
 BYTE   N06  Cn1
 BYTE   N07  Fs1
 BYTE   W04
 BYTE   N08  As1
 BYTE   W12
 BYTE   N06  Cn1
 BYTE   N07  Fs1
 BYTE   W08
 BYTE   Fs1
 BYTE   W04
 BYTE   N08  As1
 BYTE   W12
 BYTE   N07  Fs1
 BYTE   W08
 BYTE   N06  Cn1
 BYTE   N07  Fs1
 BYTE   W04
 BYTE   N08  As1
 BYTE   W12
//  #10 //051   ----------------------------------------
 BYTE   N06  An1
 BYTE   W12
 BYTE   N07  Fs1
 BYTE   N06  Cn1
 BYTE   W08
 BYTE   Cn2
 BYTE   W12
 BYTE   Cn1
 BYTE   W04
 BYTE   Gn1
 BYTE   N07  Fs1
 BYTE   W12
 BYTE   N06  Cn1
 BYTE   W08
 BYTE   Cn2
 BYTE   W04
 BYTE   N07  Fs1
 BYTE   W08
 BYTE   N06  Cn1
 BYTE   W04
 BYTE   Gn1
 BYTE   W12
 BYTE   Gn2
 BYTE   N07  Fs1
 BYTE   N02  Dn1  v072
 BYTE   W02
 BYTE   N04
 BYTE   W04
 BYTE   N02
 BYTE   W02
 BYTE   N04
 BYTE   W03
 BYTE   N06  Ds2  v100
 BYTE   W01
//  #10 //052   ----------------------------------------
 BYTE   PATT
  POIN2 Label_010263B4
//  #10 //053   ----------------------------------------
 BYTE   PATT
  POIN2 Label_010263E1
//  #10 //054   ----------------------------------------
 BYTE   N02  Cn1  v085
 BYTE   W08
 BYTE   N06  Dn1
 BYTE   W04
 BYTE   Gn1
 BYTE   N07  Fs1
 BYTE   W08
 BYTE   N06  Fn1
 BYTE   W04
 BYTE   Cn1
 BYTE   W12
 BYTE   Gn2
 BYTE   N07  Fs1
 BYTE   W12
 BYTE   N02  Dn1  v072
 BYTE   W02
 BYTE   N04
 BYTE   W04
 BYTE   N02
 BYTE   W02
 BYTE   N04
 BYTE   W04
 BYTE   N07  Fs1  v085
 BYTE   N02  Dn1
 BYTE   W12
 BYTE   N07  Fs1
 BYTE   W08
 BYTE   N04  As1
 BYTE   N06  Cn1
 BYTE   W04
 BYTE   En2
 BYTE   N04  As1
 BYTE   W08
 BYTE   N07  Fs1
 BYTE   W03
 BYTE   N06  Ds2  v100
 BYTE   W01
//  #10 //055   ----------------------------------------
 BYTE   PATT
  POIN2 Label_01026446
//  #10 //056   ----------------------------------------
 BYTE   PATT
  POIN2 Label_01026476
//  #10 //057   ----------------------------------------
 BYTE   PATT
  POIN2 Label_010263E1
//  #10 //058   ----------------------------------------
 BYTE   N02  Cn1  v085
 BYTE   N08  As1
 BYTE   W12
 BYTE   N07  Fs1
 BYTE   W08
 BYTE   Fs1
 BYTE   W04
 BYTE   N08  As1
 BYTE   N06  Cn1
 BYTE   W12
 BYTE   N07  Fs1
 BYTE   W08
 BYTE   Fs1
 BYTE   W04
 BYTE   N06  Cn1
 BYTE   N08  As1
 BYTE   W12
 BYTE   N07  Fs1
 BYTE   W08
 BYTE   Fs1
 BYTE   W04
 BYTE   N08  As1
 BYTE   N06  Cn1
 BYTE   W12
 BYTE   N07  Fs1
 BYTE   W08
 BYTE   Fs1
 BYTE   W04
//  #10 //059   ----------------------------------------
 BYTE   N08  As1
 BYTE   N06  Cn1
 BYTE   W12
 BYTE   N07  Fs1
 BYTE   W08
 BYTE   Fs1
 BYTE   W04
 BYTE   N06  Cn1
 BYTE   N08  As1
 BYTE   W12
 BYTE   N07  Fs1
 BYTE   W08
 BYTE   Fs1
 BYTE   W04
 BYTE   N06  Cn1
 BYTE   N08  As1
 BYTE   W08
 BYTE   N06  Dn1
 BYTE   W04
 BYTE   N07  Fs1
 BYTE   N06  Cn1
 BYTE   W08
 BYTE   Cn1
 BYTE   N07  Fs1
 BYTE   W04
 BYTE   N08  As1
 BYTE   N06  Dn1
 BYTE   W12
 BYTE   Dn1
 BYTE   N07  Fs1
 BYTE   W08
 BYTE   Fs1
 BYTE   N06  Dn1
 BYTE   W04
//  #10 //060   ----------------------------------------
 BYTE   An1
 BYTE   N06  Cn1
 BYTE   N32  Cs2  v085  gtp1
 BYTE   W12
 BYTE   N06  An1
 BYTE   N07  Fs1
 BYTE   W12
 BYTE   N06  Gn1
 BYTE   N06  Cn1
 BYTE   W07
 BYTE   Ds2
 BYTE   W05
 BYTE   N07  Fs1
 BYTE   N06  Bn1
 BYTE   W07
 BYTE   Ds2  v072
 BYTE   W01
 BYTE   Gn1  v085
 BYTE   W04
 BYTE   Cn1
 BYTE   N06  An1
 BYTE   W08
 BYTE   An1
 BYTE   W04
 BYTE   Gn1
 BYTE   N07  Fs1
 BYTE   W07
 BYTE   N06  Ds2
 BYTE   W05
 BYTE   An1
 BYTE   N06  Cn1
 BYTE   W08
 BYTE   Fn1
 BYTE   W04
 BYTE   An1
 BYTE   N07  Fs1
 BYTE   W08
 BYTE   N06  Fn1  v072
 BYTE   W04
//  #10 //061   ----------------------------------------
 BYTE   Cn1  v085
 BYTE   N06  An1
 BYTE   W12
 BYTE   An1
 BYTE   N07  Fs1
 BYTE   W12
 BYTE   N06  Gn1
 BYTE   N06  Cn1
 BYTE   W07
 BYTE   Ds2
 BYTE   W05
 BYTE   Bn1
 BYTE   N07  Fs1
 BYTE   W07
 BYTE   N06  Ds2  v072
 BYTE   W01
 BYTE   Gn1  v085
 BYTE   W04
 BYTE   Cn1
 BYTE   N06  An1
 BYTE   W08
 BYTE   An1
 BYTE   W04
 BYTE   N07  Fs1
 BYTE   N06  Gn1
 BYTE   W07
 BYTE   Ds2
 BYTE   W05
 BYTE   An1
 BYTE   N06  Cn1
 BYTE   W08
 BYTE   Fn1
 BYTE   W04
 BYTE   An1
 BYTE   N07  Fs1
 BYTE   W08
 BYTE   N06  Fn1  v072
 BYTE   W04
//  #10 //062   ----------------------------------------
 BYTE   Cn1  v085
 BYTE   N32  Cs2  v085  gtp1
 BYTE   N06  An1
 BYTE   GoTo
  POIN2 Label_0102600D
//  #10 //063   ----------------------------------------
 BYTE   W12
 BYTE   An1
 BYTE   N07  Fs1
 BYTE   W12
 BYTE   N06  Gn1
 BYTE   N06  Cn1
 BYTE   W07
 BYTE   Ds2
 BYTE   W05
 BYTE   N07  Fs1
 BYTE   N06  Bn1
 BYTE   W07
 BYTE   Ds2  v072
 BYTE   W01
 BYTE   Gn1  v085
 BYTE   W04
 BYTE   An1
 BYTE   N06  Cn1
 BYTE   W08
 BYTE   An1
 BYTE   W04
 BYTE   Gn1
 BYTE   N07  Fs1
 BYTE   W07
 BYTE   N06  Ds2
 BYTE   W05
 BYTE   Cn1
 BYTE   N06  An1
 BYTE   W08
 BYTE   Fn1
 BYTE   W04
 BYTE   An1
 BYTE   N07  Fs1
 BYTE   W08
 BYTE   N06  Fn1  v072
 BYTE   W04
//  #10 //064   ----------------------------------------
 BYTE   An1  v085
 BYTE   N06  Cn1
 BYTE   W12
 BYTE   N07  Fs1
 BYTE   N06  An1
 BYTE   W12
 BYTE   Cn1
 BYTE   N06  Gn1
 BYTE   W07
 BYTE   Ds2
 BYTE   W05
 BYTE   Bn1
 BYTE   N07  Fs1
 BYTE   W07
 BYTE   N06  Ds2  v072
 BYTE   W01
 BYTE   Gn1  v085
 BYTE   W04
 BYTE   An1
 BYTE   N06  Cn1
 BYTE   W08
 BYTE   An1
 BYTE   W04
 BYTE   N07  Fs1
 BYTE   N06  Gn1
 BYTE   W07
 BYTE   Ds2
 BYTE   W05
 BYTE   Cn1
 BYTE   N06  An1
 BYTE   W08
 BYTE   Fn1
 BYTE   W04
 BYTE   N07  Fs1
 BYTE   N06  An1
 BYTE   W08
 BYTE   Fn1  v072
 BYTE   W04
//  #10 //065   ----------------------------------------
 BYTE   Cn1  v085
 BYTE   N06  An1
 BYTE   W12
 BYTE   N07  Fs1
 BYTE   N06  An1
 BYTE   W12
 BYTE   Cn1
 BYTE   N06  Gn1
 BYTE   W07
 BYTE   Ds2
 BYTE   W05
 BYTE   Bn1
 BYTE   N07  Fs1
 BYTE   W07
 BYTE   N06  Ds2  v072
 BYTE   W01
 BYTE   Gn1  v085
 BYTE   W04
 BYTE   An1
 BYTE   N06  Cn1
 BYTE   W08
 BYTE   An1
 BYTE   W04
 BYTE   Gn1
 BYTE   N07  Fs1
 BYTE   W07
 BYTE   N06  Ds2
 BYTE   W05
 BYTE   Cn1
 BYTE   N06  An1
 BYTE   W08
 BYTE   Fn1
 BYTE   W04
 BYTE   N07  Fs1
 BYTE   N06  An1
 BYTE   W08
 BYTE   Fn1  v072
 BYTE   W04
//  #10 //066   ----------------------------------------
 BYTE   An1  v085
 BYTE   N06  Cn1
 BYTE   W12
 BYTE   An1
 BYTE   N07  Fs1
 BYTE   W12
 BYTE   N06  Cn1
 BYTE   N06  Gn1
 BYTE   W07
 BYTE   Ds2
 BYTE   W05
 BYTE   N07  Fs1
 BYTE   N06  Bn1
 BYTE   W07
 BYTE   Ds2  v072
 BYTE   W01
 BYTE   Gn1  v085
 BYTE   W04
 BYTE   Cn1
 BYTE   N06  An1
 BYTE   W08
 BYTE   An1
 BYTE   W04
 BYTE   Gn1
 BYTE   N07  Fs1
 BYTE   W07
 BYTE   N06  Ds2
 BYTE   W05
 BYTE   An1
 BYTE   N06  Cn1
 BYTE   W08
 BYTE   Fn1
 BYTE   W04
 BYTE   N07  Fs1
 BYTE   N06  An1
 BYTE   W08
 BYTE   Fn1  v072
 BYTE   W04
//  #10 //067   ----------------------------------------
 BYTE   An1  v085
 BYTE   N32  Cs2  v085  gtp1
 BYTE   N06  Cn1
 BYTE   W12
 BYTE   N07  Fs1
 BYTE   N06  Ds1  v056
 BYTE   N06  An1  v085
 BYTE   W12
 BYTE   Cn1
 BYTE   N06  Gn1
 BYTE   W07
 BYTE   Ds2
 BYTE   W05
 BYTE   Ds1  v031
 BYTE   N06  Bn1  v085
 BYTE   N07  Fs1
 BYTE   W07
 BYTE   N06  Ds2  v072
 BYTE   W01
 BYTE   Gn1  v085
 BYTE   W04
 BYTE   An1
 BYTE   N06  Cn1
 BYTE   W08
 BYTE   An1
 BYTE   W04
 BYTE   Ds1  v011
 BYTE   N06  Gn1  v085
 BYTE   N07  Fs1
 BYTE   W07
 BYTE   N06  Ds2
 BYTE   W05
 BYTE   An1
 BYTE   N06  Cn1
 BYTE   W08
 BYTE   Fn1
 BYTE   W04
 BYTE   An1
 BYTE   N06  Ds1  v005
 BYTE   N07  Fs1  v085
 BYTE   W08
 BYTE   N06  Fn1  v072
 BYTE   W04
//  #10 //068   ----------------------------------------
 BYTE   Cn1  v085
 BYTE   N06  An1
 BYTE   W96
//  #10 //069   ----------------------------------------
 BYTE   W96
//  #10 //070   ----------------------------------------
 BYTE   W96
 BYTE   FINE

//**************** Track 11 (Midi-Chn.10) ****************//

FF10BrassdeChocoboTak_011:
//  #11 //000   ----------------------------------------
 BYTE   KEYSH   FF10BrassdeChocoboTak_key+0
 BYTE   VOICE   4
 BYTE   PAN   c_v-13
 BYTE   VOL   47*FF10BrassdeChocoboTak_mvl/mxv
 BYTE   BENDR  12
 BYTE   W96
//  #11 //001   ----------------------------------------
 BYTE   W96
//  #11 //002   ----------------------------------------
Label_01026B38:
 BYTE   W96
//  #11 //003   ----------------------------------------
 BYTE   W96
//  #11 //004   ----------------------------------------
 BYTE   W96
//  #11 //005   ----------------------------------------
 BYTE   W96
//  #11 //006   ----------------------------------------
 BYTE   W96
//  #11 //007   ----------------------------------------
 BYTE   W96
//  #11 //008   ----------------------------------------
 BYTE   W96
//  #11 //009   ----------------------------------------
 BYTE   W96
//  #11 //010   ----------------------------------------
 BYTE   W96
//  #11 //011   ----------------------------------------
 BYTE   W96
//  #11 //012   ----------------------------------------
 BYTE   W96
//  #11 //013   ----------------------------------------
 BYTE   W96
//  #11 //014   ----------------------------------------
 BYTE   W96
//  #11 //015   ----------------------------------------
 BYTE   W96
//  #11 //016   ----------------------------------------
 BYTE   W96
//  #11 //017   ----------------------------------------
 BYTE   W96
//  #11 //018   ----------------------------------------
 BYTE   W96
//  #11 //019   ----------------------------------------
 BYTE   W96
//  #11 //020   ----------------------------------------
 BYTE   W80
 BYTE   N04  Fn3  v059
 BYTE   N04  Fn4
 BYTE   W04
 BYTE   N02  Gn4
 BYTE   N02  Gn3
 BYTE   W02
 BYTE   An3
 BYTE   N02  An4
 BYTE   W02
 BYTE   Bn4
 BYTE   N02  Bn3
 BYTE   W02
 BYTE   Cn4
 BYTE   N02  Cn5
 BYTE   W02
 BYTE   Dn4
 BYTE   N02  Dn5
 BYTE   W02
 BYTE   En4
 BYTE   N02  En5
 BYTE   W02
//  #11 //021   ----------------------------------------
 BYTE   N18  En4  v085
 BYTE   N18  Gn4
 BYTE   N18  Gn5
 BYTE   N18  En5
 BYTE   W20
 BYTE   N12  En4
 BYTE   N12  En5
 BYTE   N12  An5
 BYTE   N12  An4
 BYTE   W16
 BYTE   En5
 BYTE   N12  Gn4
 BYTE   N12  Gn5
 BYTE   N12  En4
 BYTE   W12
 BYTE   N18  Fn4
 BYTE   N18  Dn4
 BYTE   N18  Dn5
 BYTE   N18  Fn5
 BYTE   W20
 BYTE   N12  Gn5
 BYTE   N12  Gn4
 BYTE   N12  Dn5
 BYTE   N12  Dn4
 BYTE   W16
 BYTE   Dn4
 BYTE   N12  Fn4
 BYTE   N12  Dn5
 BYTE   N12  Fn5
 BYTE   W12
//  #11 //022   ----------------------------------------
Label_01026B9F:
 BYTE   N96  Cn5  v059
 BYTE   N96  Gn4
 BYTE   N96  En5
 BYTE   W96
 BYTE   PEND 
//  #11 //023   ----------------------------------------
 BYTE   Bn4
 BYTE   N96  Gn4
 BYTE   N96  Dn5
 BYTE   W96
//  #11 //024   ----------------------------------------
 BYTE   N48  En4
 BYTE   N48  Gn4
 BYTE   N24  Cn5
 BYTE   W24
 BYTE   Cs5
 BYTE   W24
 BYTE   N48  Fs4
 BYTE   N24  Dn5
 BYTE   N48  An4
 BYTE   W24
 BYTE   N24  Ds5
 BYTE   W24
//  #11 //025   ----------------------------------------
 BYTE   N20  Gn4
 BYTE   N20  Bn4
 BYTE   N20  En5
 BYTE   W20
 BYTE   N28
 BYTE   N28  Bn4
 BYTE   N28  Gn4
 BYTE   W28
 BYTE   N02  Fn5
 BYTE   W02
 BYTE   N04  Fs5
 BYTE   W04
 BYTE   N02  Fn5
 BYTE   W02
 BYTE   N04  Dn5
 BYTE   W04
 BYTE   N08  An5  v085
 BYTE   W08
 BYTE   N04  Dn5  v047
 BYTE   W04
 BYTE   N08  Gn5  v085
 BYTE   W08
 BYTE   N04  Fs5
 BYTE   W16
//  #11 //026   ----------------------------------------
 BYTE   W08
 BYTE   Cn5
 BYTE   N04  An4
 BYTE   W16
 BYTE   An4
 BYTE   N04  Cn5
 BYTE   W24
 BYTE   Cn5
 BYTE   N04  An4
 BYTE   W12
 BYTE   Cn5
 BYTE   N04  An4
 BYTE   W12
 BYTE   N08  Dn5
 BYTE   N04  Bn4
 BYTE   W04
 BYTE   Bn4
 BYTE   W04
 BYTE   Cn5
 BYTE   N04  An4
 BYTE   W16
//  #11 //027   ----------------------------------------
 BYTE   N24  Dn5
 BYTE   W24
 BYTE   Gn5
 BYTE   N24  En5
 BYTE   W24
 BYTE   Fs5
 BYTE   N24  Dn5
 BYTE   W24
 BYTE   Bn4
 BYTE   N24  Dn5
 BYTE   W24
//  #11 //028   ----------------------------------------
 BYTE   W96
//  #11 //029   ----------------------------------------
 BYTE   W96
//  #11 //030   ----------------------------------------
 BYTE   W96
//  #11 //031   ----------------------------------------
 BYTE   W96
//  #11 //032   ----------------------------------------
 BYTE   W96
//  #11 //033   ----------------------------------------
 BYTE   W96
//  #11 //034   ----------------------------------------
 BYTE   W96
//  #11 //035   ----------------------------------------
 BYTE   W96
//  #11 //036   ----------------------------------------
 BYTE   W96
//  #11 //037   ----------------------------------------
 BYTE   W96
//  #11 //038   ----------------------------------------
 BYTE   W96
//  #11 //039   ----------------------------------------
 BYTE   W96
//  #11 //040   ----------------------------------------
 BYTE   W96
//  #11 //041   ----------------------------------------
 BYTE   W96
//  #11 //042   ----------------------------------------
 BYTE   W96
//  #11 //043   ----------------------------------------
 BYTE   W96
//  #11 //044   ----------------------------------------
 BYTE   W96
//  #11 //045   ----------------------------------------
 BYTE   W96
//  #11 //046   ----------------------------------------
 BYTE   W96
//  #11 //047   ----------------------------------------
 BYTE   W96
//  #11 //048   ----------------------------------------
 BYTE   W96
//  #11 //049   ----------------------------------------
 BYTE   W96
//  #11 //050   ----------------------------------------
 BYTE   W80
 BYTE   N04  Fn3  v059
 BYTE   N04  Fn4
 BYTE   W04
 BYTE   N02  Gn3
 BYTE   N02  Gn4
 BYTE   W02
 BYTE   An3
 BYTE   N02  An4
 BYTE   W02
 BYTE   Bn3
 BYTE   N02  Bn4
 BYTE   W02
 BYTE   Cn5
 BYTE   N02  Cn4
 BYTE   W02
 BYTE   Dn4
 BYTE   N02  Dn5
 BYTE   W02
 BYTE   En5
 BYTE   N02  En4
 BYTE   W02
//  #11 //051   ----------------------------------------
 BYTE   N18  Gn4  v085
 BYTE   N18  En5
 BYTE   N18  Gn5
 BYTE   N18  En4
 BYTE   W20
 BYTE   N12  En5
 BYTE   N12  En4
 BYTE   N12  An5
 BYTE   N12  An4
 BYTE   W16
 BYTE   En4
 BYTE   N12  En5
 BYTE   N12  Gn5
 BYTE   N12  Gn4
 BYTE   W12
 BYTE   N18  Dn4
 BYTE   N18  Dn5
 BYTE   N18  Fn4
 BYTE   N18  Fn5
 BYTE   W20
 BYTE   N12  Gn5
 BYTE   N12  Dn5
 BYTE   N12  Dn4
 BYTE   N12  Gn4
 BYTE   W16
 BYTE   Dn5
 BYTE   N12  Fn4
 BYTE   N12  Fn5
 BYTE   N12  Dn4
 BYTE   W12
//  #11 //052   ----------------------------------------
 BYTE   PATT
  POIN2 Label_01026B9F
//  #11 //053   ----------------------------------------
 BYTE   N96  Gn4  v059
 BYTE   N96  Dn5
 BYTE   N96  Bn4
 BYTE   W96
//  #11 //054   ----------------------------------------
 BYTE   N48  Gn4
 BYTE   N48  En4
 BYTE   N24  Cn5
 BYTE   W24
 BYTE   Cs5
 BYTE   W24
 BYTE   N48  Fs4
 BYTE   N24  Dn5
 BYTE   N48  An4
 BYTE   W24
 BYTE   N24  Ds5
 BYTE   W24
//  #11 //055   ----------------------------------------
 BYTE   N20  En5
 BYTE   N20  Bn4
 BYTE   N20  Gn4
 BYTE   W20
 BYTE   N28  Bn4
 BYTE   N28  En5
 BYTE   N28  Gn4
 BYTE   W28
 BYTE   N02  Fn5
 BYTE   W02
 BYTE   N04  Fs5
 BYTE   W04
 BYTE   N02  Fn5
 BYTE   W02
 BYTE   N04  Dn5
 BYTE   W04
 BYTE   N08  An5  v085
 BYTE   W08
 BYTE   N04  Dn5  v047
 BYTE   W04
 BYTE   N08  Gn5  v085
 BYTE   W08
 BYTE   N04  Fs5
 BYTE   W16
//  #11 //056   ----------------------------------------
 BYTE   W08
 BYTE   Cn5
 BYTE   N04  An4
 BYTE   W16
 BYTE   An4
 BYTE   N04  Cn5
 BYTE   W24
 BYTE   An4
 BYTE   N04  Cn5
 BYTE   W12
 BYTE   Cn5
 BYTE   N04  An4
 BYTE   W12
 BYTE   Bn4
 BYTE   N08  Dn5
 BYTE   W04
 BYTE   N04  Bn4
 BYTE   W04
 BYTE   Cn5
 BYTE   N04  An4
 BYTE   W16
//  #11 //057   ----------------------------------------
 BYTE   N24  Dn5
 BYTE   W24
 BYTE   En5
 BYTE   N24  Gn5
 BYTE   W24
 BYTE   Fs5
 BYTE   N24  Dn5
 BYTE   W24
 BYTE   Dn5
 BYTE   N24  Bn4
 BYTE   W24
//  #11 //058   ----------------------------------------
 BYTE   W96
//  #11 //059   ----------------------------------------
 BYTE   W96
//  #11 //060   ----------------------------------------
 BYTE   W96
//  #11 //061   ----------------------------------------
 BYTE   W96
//  #11 //062   ----------------------------------------
 BYTE   GoTo
  POIN2 Label_01026B38
//  #11 //063   ----------------------------------------
 BYTE   W96
//  #11 //064   ----------------------------------------
 BYTE   W96
//  #11 //065   ----------------------------------------
 BYTE   W96
//  #11 //066   ----------------------------------------
 BYTE   W96
//  #11 //067   ----------------------------------------
 BYTE   W96
//  #11 //068   ----------------------------------------
 BYTE   W96
//  #11 //069   ----------------------------------------
 BYTE   W96
//  #11 //070   ----------------------------------------
 BYTE   W96
 BYTE   FINE

//**************** Track 12 (Midi-Chn.11) ****************//

FF10BrassdeChocoboTak_012:
//  #12 //000   ----------------------------------------
 BYTE   KEYSH   FF10BrassdeChocoboTak_key+0
 BYTE   VOICE   68
 BYTE   VOL   56*FF10BrassdeChocoboTak_mvl/mxv
 BYTE   PAN   c_v+37
 BYTE   BENDR  12
 BYTE   W96
//  #12 //001   ----------------------------------------
 BYTE   W96
//  #12 //002   ----------------------------------------
Label_01026D14:
 BYTE   W96
//  #12 //003   ----------------------------------------
 BYTE   W96
//  #12 //004   ----------------------------------------
 BYTE   W96
//  #12 //005   ----------------------------------------
 BYTE   W96
//  #12 //006   ----------------------------------------
 BYTE   W96
//  #12 //007   ----------------------------------------
 BYTE   W96
//  #12 //008   ----------------------------------------
 BYTE   W96
//  #12 //009   ----------------------------------------
 BYTE   W96
//  #12 //010   ----------------------------------------
 BYTE   W96
//  #12 //011   ----------------------------------------
 BYTE   W96
//  #12 //012   ----------------------------------------
 BYTE   W96
//  #12 //013   ----------------------------------------
 BYTE   W96
//  #12 //014   ----------------------------------------
 BYTE   W96
//  #12 //015   ----------------------------------------
 BYTE   W96
//  #12 //016   ----------------------------------------
 BYTE   W96
//  #12 //017   ----------------------------------------
 BYTE   W96
//  #12 //018   ----------------------------------------
 BYTE   W96
//  #12 //019   ----------------------------------------
 BYTE   W96
//  #12 //020   ----------------------------------------
 BYTE   W96
//  #12 //021   ----------------------------------------
 BYTE   W96
//  #12 //022   ----------------------------------------
Label_01026D28:
 BYTE   N04  En4  v085
 BYTE   W32
 BYTE   Cn4
 BYTE   W04
 BYTE   N08  An3
 BYTE   W08
 BYTE   N04  Fs3
 BYTE   W36
 BYTE   An3
 BYTE   W04
 BYTE   N08  Cn4
 BYTE   W08
 BYTE   N04  En4
 BYTE   W04
 BYTE   PEND 
//  #12 //023   ----------------------------------------
Label_01026D3D:
 BYTE   N02  Dn4  v085
 BYTE   W02
 BYTE   N04  En4
 BYTE   W04
 BYTE   N02  Dn4
 BYTE   W02
 BYTE   N04  Bn3
 BYTE   W04
 BYTE   N08  Cn4
 BYTE   W08
 BYTE   N04  Cs4
 BYTE   W04
 BYTE   N08  Dn4
 BYTE   W08
 BYTE   N04  Gn4
 BYTE   W12
 BYTE   N40  Dn4
 BYTE   W52
 BYTE   PEND 
//  #12 //024   ----------------------------------------
Label_01026D5A:
 BYTE   N04  Cn4  v085
 BYTE   W32
 BYTE   An3
 BYTE   W04
 BYTE   N08  Fs3
 BYTE   W08
 BYTE   N04  Dn3
 BYTE   W36
 BYTE   Fs3
 BYTE   W04
 BYTE   N08  An3
 BYTE   W08
 BYTE   N04  Cn4
 BYTE   W04
 BYTE   PEND 
//  #12 //025   ----------------------------------------
Label_01026D6F:
 BYTE   N02  Bn3  v085
 BYTE   W02
 BYTE   N04  Cn4
 BYTE   W04
 BYTE   N02  Bn3
 BYTE   W02
 BYTE   N04  An3
 BYTE   W04
 BYTE   N08  Bn3
 BYTE   W08
 BYTE   N04  An3
 BYTE   W04
 BYTE   N08  Bn3
 BYTE   W08
 BYTE   N04  Cs4
 BYTE   W12
 BYTE   N40  Dn4
 BYTE   W52
 BYTE   PEND 
//  #12 //026   ----------------------------------------
 BYTE   W96
//  #12 //027   ----------------------------------------
 BYTE   W96
//  #12 //028   ----------------------------------------
Label_01026D8E:
 BYTE   N04  Cn4  v085
 BYTE   W12
 BYTE   N08
 BYTE   W08
 BYTE   N04  Dn4
 BYTE   W04
 BYTE   N06  Cn4
 BYTE   W06
 BYTE   N02  Dn4
 BYTE   W02
 BYTE   N04  Cn4
 BYTE   W04
 BYTE   N08  Bn3
 BYTE   W08
 BYTE   N04  Cn4
 BYTE   W36
 BYTE   N16  Bn3
 BYTE   W16
 BYTE   PEND 
//  #12 //029   ----------------------------------------
 BYTE   N04  Cn4
 BYTE   W12
 BYTE   N08
 BYTE   W08
 BYTE   N04  Dn4
 BYTE   W04
 BYTE   N08  En4
 BYTE   W08
 BYTE   N04  Fs4
 BYTE   W12
 BYTE   Gn4
 BYTE   W36
 BYTE   N16  An4
 BYTE   N04  Fs4
 BYTE   N16  Ds4
 BYTE   W04
 BYTE   N12  Fs4
 BYTE   W12
//  #12 //030   ----------------------------------------
 BYTE   N06  Dn4
 BYTE   N06  Bn4
 BYTE   N06  Gn4
 BYTE   W96
//  #12 //031   ----------------------------------------
 BYTE   W96
//  #12 //032   ----------------------------------------
 BYTE   W96
//  #12 //033   ----------------------------------------
 BYTE   W96
//  #12 //034   ----------------------------------------
 BYTE   W96
//  #12 //035   ----------------------------------------
 BYTE   W96
//  #12 //036   ----------------------------------------
 BYTE   W96
//  #12 //037   ----------------------------------------
 BYTE   W96
//  #12 //038   ----------------------------------------
 BYTE   W96
//  #12 //039   ----------------------------------------
 BYTE   W96
//  #12 //040   ----------------------------------------
 BYTE   W96
//  #12 //041   ----------------------------------------
 BYTE   W96
//  #12 //042   ----------------------------------------
 BYTE   W96
//  #12 //043   ----------------------------------------
 BYTE   W96
//  #12 //044   ----------------------------------------
 BYTE   W96
//  #12 //045   ----------------------------------------
 BYTE   W96
//  #12 //046   ----------------------------------------
 BYTE   W96
//  #12 //047   ----------------------------------------
 BYTE   W96
//  #12 //048   ----------------------------------------
 BYTE   W96
//  #12 //049   ----------------------------------------
 BYTE   W96
//  #12 //050   ----------------------------------------
 BYTE   W96
//  #12 //051   ----------------------------------------
 BYTE   W96
//  #12 //052   ----------------------------------------
 BYTE   PATT
  POIN2 Label_01026D28
//  #12 //053   ----------------------------------------
 BYTE   PATT
  POIN2 Label_01026D3D
//  #12 //054   ----------------------------------------
 BYTE   PATT
  POIN2 Label_01026D5A
//  #12 //055   ----------------------------------------
 BYTE   PATT
  POIN2 Label_01026D6F
//  #12 //056   ----------------------------------------
 BYTE   W96
//  #12 //057   ----------------------------------------
 BYTE   W96
//  #12 //058   ----------------------------------------
 BYTE   PATT
  POIN2 Label_01026D8E
//  #12 //059   ----------------------------------------
 BYTE   N04  Cn4  v085
 BYTE   W12
 BYTE   N08
 BYTE   W08
 BYTE   N04  Dn4
 BYTE   W04
 BYTE   N08  En4
 BYTE   W08
 BYTE   N04  Fs4
 BYTE   W12
 BYTE   Gn4
 BYTE   W36
 BYTE   N16  An4
 BYTE   N16  Ds4
 BYTE   N04  Fs4
 BYTE   W04
 BYTE   N12
 BYTE   W12
//  #12 //060   ----------------------------------------
 BYTE   N06  Bn4
 BYTE   N06  Gn4
 BYTE   N06  Dn4
 BYTE   W96
//  #12 //061   ----------------------------------------
 BYTE   W96
//  #12 //062   ----------------------------------------
 BYTE   GoTo
  POIN2 Label_01026D14
//  #12 //063   ----------------------------------------
 BYTE   W96
//  #12 //064   ----------------------------------------
 BYTE   W96
//  #12 //065   ----------------------------------------
 BYTE   W96
//  #12 //066   ----------------------------------------
 BYTE   W96
//  #12 //067   ----------------------------------------
 BYTE   W96
//  #12 //068   ----------------------------------------
 BYTE   W96
//  #12 //069   ----------------------------------------
 BYTE   W96
//  #12 //070   ----------------------------------------
 BYTE   W96
 BYTE   FINE

//**************** Track 13 (Midi-Chn.12) ****************//

FF10BrassdeChocoboTak_013:
//  #13 //000   ----------------------------------------
 BYTE   KEYSH   FF10BrassdeChocoboTak_key+0
 BYTE   VOICE   11
 BYTE   VOL   56*FF10BrassdeChocoboTak_mvl/mxv
 BYTE   PAN   c_v-38
 BYTE   BENDR  12
 BYTE   W96
//  #13 //001   ----------------------------------------
 BYTE   W96
//  #13 //002   ----------------------------------------
Label_01004380:
 BYTE   W96
//  #13 //003   ----------------------------------------
 BYTE   W96
//  #13 //004   ----------------------------------------
 BYTE   W96
//  #13 //005   ----------------------------------------
 BYTE   W96
//  #13 //006   ----------------------------------------
 BYTE   W96
//  #13 //007   ----------------------------------------
 BYTE   W96
//  #13 //008   ----------------------------------------
 BYTE   W96
//  #13 //009   ----------------------------------------
 BYTE   W96
//  #13 //010   ----------------------------------------
 BYTE   W96
//  #13 //011   ----------------------------------------
 BYTE   W96
//  #13 //012   ----------------------------------------
 BYTE   W96
//  #13 //013   ----------------------------------------
 BYTE   W96
//  #13 //014   ----------------------------------------
 BYTE   W96
//  #13 //015   ----------------------------------------
 BYTE   W96
//  #13 //016   ----------------------------------------
 BYTE   W96
//  #13 //017   ----------------------------------------
 BYTE   W96
//  #13 //018   ----------------------------------------
 BYTE   W96
//  #13 //019   ----------------------------------------
 BYTE   W96
//  #13 //020   ----------------------------------------
 BYTE   W96
//  #13 //021   ----------------------------------------
 BYTE   W96
//  #13 //022   ----------------------------------------
 BYTE   PATT
  POIN2 Label_01026D28
//  #13 //023   ----------------------------------------
 BYTE   PATT
  POIN2 Label_01026D3D
//  #13 //024   ----------------------------------------
 BYTE   PATT
  POIN2 Label_01026D5A
//  #13 //025   ----------------------------------------
 BYTE   PATT
  POIN2 Label_01026D6F
//  #13 //026   ----------------------------------------
 BYTE   W96
//  #13 //027   ----------------------------------------
 BYTE   W96
//  #13 //028   ----------------------------------------
Label_010043AA:
 BYTE   N04  An3  v085
 BYTE   W12
 BYTE   N08
 BYTE   W08
 BYTE   N04  Bn3
 BYTE   W04
 BYTE   N06  An3
 BYTE   W06
 BYTE   N02  Bn3
 BYTE   W02
 BYTE   N04  An3
 BYTE   W04
 BYTE   N08  Gs3
 BYTE   W08
 BYTE   N04  An3
 BYTE   W36
 BYTE   N16  Gs3
 BYTE   W16
 BYTE   PEND 
//  #13 //029   ----------------------------------------
Label_010043C6:
 BYTE   N04  An3  v085
 BYTE   W12
 BYTE   N08
 BYTE   W08
 BYTE   N04  Bn3
 BYTE   W04
 BYTE   N08  Cn4
 BYTE   W08
 BYTE   N04  Dn4
 BYTE   W12
 BYTE   En4
 BYTE   W36
 BYTE   N16  Fs4
 BYTE   W16
 BYTE   PEND 
//  #13 //030   ----------------------------------------
 BYTE   N06  Gn4
 BYTE   W96
//  #13 //031   ----------------------------------------
 BYTE   W96
//  #13 //032   ----------------------------------------
 BYTE   W96
//  #13 //033   ----------------------------------------
 BYTE   W96
//  #13 //034   ----------------------------------------
 BYTE   W96
//  #13 //035   ----------------------------------------
 BYTE   W96
//  #13 //036   ----------------------------------------
 BYTE   W96
//  #13 //037   ----------------------------------------
 BYTE   W96
//  #13 //038   ----------------------------------------
 BYTE   W96
//  #13 //039   ----------------------------------------
 BYTE   W96
//  #13 //040   ----------------------------------------
 BYTE   W96
//  #13 //041   ----------------------------------------
 BYTE   W96
//  #13 //042   ----------------------------------------
 BYTE   W96
//  #13 //043   ----------------------------------------
 BYTE   W96
//  #13 //044   ----------------------------------------
 BYTE   W96
//  #13 //045   ----------------------------------------
 BYTE   W96
//  #13 //046   ----------------------------------------
 BYTE   W96
//  #13 //047   ----------------------------------------
 BYTE   W96
//  #13 //048   ----------------------------------------
 BYTE   W96
//  #13 //049   ----------------------------------------
 BYTE   W96
//  #13 //050   ----------------------------------------
 BYTE   W96
//  #13 //051   ----------------------------------------
 BYTE   W96
//  #13 //052   ----------------------------------------
 BYTE   PATT
  POIN2 Label_01026D28
//  #13 //053   ----------------------------------------
 BYTE   PATT
  POIN2 Label_01026D3D
//  #13 //054   ----------------------------------------
 BYTE   PATT
  POIN2 Label_01026D5A
//  #13 //055   ----------------------------------------
 BYTE   PATT
  POIN2 Label_01026D6F
//  #13 //056   ----------------------------------------
 BYTE   W96
//  #13 //057   ----------------------------------------
 BYTE   W96
//  #13 //058   ----------------------------------------
 BYTE   PATT
  POIN2 Label_010043AA
//  #13 //059   ----------------------------------------
 BYTE   PATT
  POIN2 Label_010043C6
//  #13 //060   ----------------------------------------
 BYTE   N06  Gn4  v085
 BYTE   W96
//  #13 //061   ----------------------------------------
 BYTE   W96
//  #13 //062   ----------------------------------------
 BYTE   GoTo
  POIN2 Label_01004380
//  #13 //063   ----------------------------------------
 BYTE   W96
//  #13 //064   ----------------------------------------
 BYTE   W96
//  #13 //065   ----------------------------------------
 BYTE   W96
//  #13 //066   ----------------------------------------
 BYTE   W96
//  #13 //067   ----------------------------------------
 BYTE   W96
//  #13 //068   ----------------------------------------
 BYTE   W96
//  #13 //069   ----------------------------------------
 BYTE   W96
//  #13 //070   ----------------------------------------
 BYTE   W96
 BYTE   FINE

//**************** Track 14 (Midi-Chn.13) ****************//

FF10BrassdeChocoboTak_014:
//  #14 //000   ----------------------------------------
 BYTE   KEYSH   FF10BrassdeChocoboTak_key+0
 BYTE   VOICE   61
 BYTE   VOL   54*FF10BrassdeChocoboTak_mvl/mxv
 BYTE   PAN   c_v+8
 BYTE   BENDR  12
 BYTE   W96
//  #14 //001   ----------------------------------------
 BYTE   W96
//  #14 //002   ----------------------------------------
Label_01026E38:
 BYTE   W96
//  #14 //003   ----------------------------------------
 BYTE   W96
//  #14 //004   ----------------------------------------
 BYTE   W96
//  #14 //005   ----------------------------------------
 BYTE   W96
//  #14 //006   ----------------------------------------
 BYTE   W96
//  #14 //007   ----------------------------------------
 BYTE   W96
//  #14 //008   ----------------------------------------
 BYTE   W96
//  #14 //009   ----------------------------------------
 BYTE   W96
//  #14 //010   ----------------------------------------
 BYTE   W96
//  #14 //011   ----------------------------------------
 BYTE   W96
//  #14 //012   ----------------------------------------
 BYTE   W96
//  #14 //013   ----------------------------------------
 BYTE   W96
//  #14 //014   ----------------------------------------
 BYTE   W96
//  #14 //015   ----------------------------------------
 BYTE   W96
//  #14 //016   ----------------------------------------
 BYTE   W96
//  #14 //017   ----------------------------------------
 BYTE   W96
//  #14 //018   ----------------------------------------
 BYTE   W96
//  #14 //019   ----------------------------------------
 BYTE   W96
//  #14 //020   ----------------------------------------
 BYTE   W96
//  #14 //021   ----------------------------------------
 BYTE   W96
//  #14 //022   ----------------------------------------
 BYTE   W96
//  #14 //023   ----------------------------------------
 BYTE   W96
//  #14 //024   ----------------------------------------
 BYTE   W96
//  #14 //025   ----------------------------------------
Label_01026E4F:
 BYTE   W72
 BYTE   N04  Gs2  v116
 BYTE   W04
 BYTE   An2
 BYTE   W04
 BYTE   Bn2
 BYTE   W04
 BYTE   Cn3
 BYTE   W04
 BYTE   Dn3
 BYTE   W04
 BYTE   Ds3
 BYTE   W04
 BYTE   PEND 
//  #14 //026   ----------------------------------------
Label_01026E5F:
 BYTE   N04  En3  v116
 BYTE   W32
 BYTE   Cn3
 BYTE   W04
 BYTE   N08  An2
 BYTE   W08
 BYTE   N04  Fs2
 BYTE   W36
 BYTE   An2
 BYTE   W04
 BYTE   N08  Cn3
 BYTE   W08
 BYTE   N04  En3
 BYTE   W04
 BYTE   PEND 
//  #14 //027   ----------------------------------------
Label_01026E74:
 BYTE   N02  Dn3  v116
 BYTE   W02
 BYTE   N04  En3
 BYTE   W04
 BYTE   N02  Dn3
 BYTE   W02
 BYTE   N04  Bn2
 BYTE   W04
 BYTE   N08  Cn3
 BYTE   W08
 BYTE   N04  Cs3
 BYTE   W04
 BYTE   N08  Dn3
 BYTE   W08
 BYTE   N04  Gn3
 BYTE   W12
 BYTE   N40  Dn3
 BYTE   W52
 BYTE   PEND 
//  #14 //028   ----------------------------------------
Label_01026E91:
 BYTE   N04  An2  v116
 BYTE   W12
 BYTE   N08
 BYTE   W08
 BYTE   N04  Bn2
 BYTE   W04
 BYTE   N06  An2
 BYTE   W06
 BYTE   N02  Bn2
 BYTE   W02
 BYTE   N04  An2
 BYTE   W04
 BYTE   N08  Gs2
 BYTE   W08
 BYTE   N04  An2
 BYTE   W36
 BYTE   N16  Gs2
 BYTE   W16
 BYTE   PEND 
//  #14 //029   ----------------------------------------
 BYTE   N04  An2
 BYTE   W12
 BYTE   N08
 BYTE   W08
 BYTE   N04  Bn2
 BYTE   W04
 BYTE   N08  Cn3
 BYTE   W08
 BYTE   N04  Dn3
 BYTE   W12
 BYTE   En3
 BYTE   W36
 BYTE   N16  Cn3
 BYTE   N16  An2
 BYTE   N16  Fs3
 BYTE   N04  Ds3
 BYTE   W04
 BYTE   N12
 BYTE   W12
//  #14 //030   ----------------------------------------
 BYTE   N06  Bn2
 BYTE   N06  En3
 BYTE   N06  Dn3
 BYTE   N06  Gn3
 BYTE   W96
//  #14 //031   ----------------------------------------
 BYTE   W96
//  #14 //032   ----------------------------------------
 BYTE   W96
//  #14 //033   ----------------------------------------
 BYTE   W96
//  #14 //034   ----------------------------------------
 BYTE   W96
//  #14 //035   ----------------------------------------
 BYTE   W96
//  #14 //036   ----------------------------------------
 BYTE   W96
//  #14 //037   ----------------------------------------
 BYTE   W96
//  #14 //038   ----------------------------------------
 BYTE   W96
//  #14 //039   ----------------------------------------
 BYTE   W96
//  #14 //040   ----------------------------------------
 BYTE   W96
//  #14 //041   ----------------------------------------
 BYTE   W96
//  #14 //042   ----------------------------------------
 BYTE   W96
//  #14 //043   ----------------------------------------
 BYTE   W96
//  #14 //044   ----------------------------------------
 BYTE   W96
//  #14 //045   ----------------------------------------
 BYTE   W96
//  #14 //046   ----------------------------------------
 BYTE   W96
//  #14 //047   ----------------------------------------
 BYTE   W96
//  #14 //048   ----------------------------------------
 BYTE   W96
//  #14 //049   ----------------------------------------
 BYTE   W96
//  #14 //050   ----------------------------------------
 BYTE   W96
//  #14 //051   ----------------------------------------
 BYTE   W96
//  #14 //052   ----------------------------------------
 BYTE   W96
//  #14 //053   ----------------------------------------
 BYTE   W96
//  #14 //054   ----------------------------------------
 BYTE   W96
//  #14 //055   ----------------------------------------
 BYTE   PATT
  POIN2 Label_01026E4F
//  #14 //056   ----------------------------------------
 BYTE   PATT
  POIN2 Label_01026E5F
//  #14 //057   ----------------------------------------
 BYTE   PATT
  POIN2 Label_01026E74
//  #14 //058   ----------------------------------------
 BYTE   PATT
  POIN2 Label_01026E91
//  #14 //059   ----------------------------------------
 BYTE   N04  An2  v116
 BYTE   W12
 BYTE   N08
 BYTE   W08
 BYTE   N04  Bn2
 BYTE   W04
 BYTE   N08  Cn3
 BYTE   W08
 BYTE   N04  Dn3
 BYTE   W12
 BYTE   En3
 BYTE   W36
 BYTE   Ds3
 BYTE   N16  Fs3
 BYTE   N16  An2
 BYTE   N16  Cn3
 BYTE   W04
 BYTE   N12  Ds3
 BYTE   W12
//  #14 //060   ----------------------------------------
 BYTE   N06  Dn3
 BYTE   N06  En3
 BYTE   N06  Gn3
 BYTE   N06  Bn2
 BYTE   W96
//  #14 //061   ----------------------------------------
 BYTE   W96
//  #14 //062   ----------------------------------------
 BYTE   GoTo
  POIN2 Label_01026E38
//  #14 //063   ----------------------------------------
 BYTE   W96
//  #14 //064   ----------------------------------------
 BYTE   W96
//  #14 //065   ----------------------------------------
 BYTE   W96
//  #14 //066   ----------------------------------------
 BYTE   W96
//  #14 //067   ----------------------------------------
 BYTE   W96
//  #14 //068   ----------------------------------------
 BYTE   W96
//  #14 //069   ----------------------------------------
 BYTE   W96
//  #14 //070   ----------------------------------------
 BYTE   W96
 BYTE   FINE

//******************************************************//
	ALIGN 4

FF10BrassdeChocoboTak:
	BYTE	14	// NumTrks
	BYTE	0	// NumBlks
	BYTE	FF10BrassdeChocoboTak_pri	// Priority
	BYTE	FF10BrassdeChocoboTak_rev	// Reverb.
    
	POIN2	FF10BrassdeChocoboTak_grp
    
	POIN2	FF10BrassdeChocoboTak_001
	POIN2	FF10BrassdeChocoboTak_002
	POIN2	FF10BrassdeChocoboTak_003
	POIN2	FF10BrassdeChocoboTak_004
	POIN2	FF10BrassdeChocoboTak_005
	POIN2	FF10BrassdeChocoboTak_006
	POIN2	FF10BrassdeChocoboTak_007
	POIN2	FF10BrassdeChocoboTak_008
	POIN2	FF10BrassdeChocoboTak_009
	POIN2	FF10BrassdeChocoboTak_010
	POIN2	FF10BrassdeChocoboTak_011
	POIN2	FF10BrassdeChocoboTak_012
	POIN2	FF10BrassdeChocoboTak_013
	POIN2	FF10BrassdeChocoboTak_014

	
