//Event file generated from Sappy .s format.
	#include "MPlayDef.event"

	#define	FF10BattleRSflame_grp  voicegroup000
	#define	FF10BattleRSflame_pri  0
	#define	FF10BattleRSflame_rev  0
	#define	FF10BattleRSflame_mvl  127
	#define	FF10BattleRSflame_key  0
	#define	FF10BattleRSflame_tbs  1
	#define	FF10BattleRSflame_exg  0
	#define	FF10BattleRSflame_cmp  1

	// .rodata
	//	FF10BattleRSflame
	ALIGN 4


//**************** Track 1 (Midi-Chn.0) ****************//

FF10BattleRSflame_001:
// 000   ----------------------------------------
 BYTE   KEYSH   FF10BattleRSflame_key+0
 BYTE   TEMPO   190*FF10BattleRSflame_tbs/2
 BYTE   VOICE   80
 BYTE   VOL   27*FF10BattleRSflame_mvl/mxv
 BYTE   PAN   c_v-64
 BYTE   W96
// 001   ----------------------------------------
 BYTE   W96
// 002   ----------------------------------------
 BYTE   W96
// 003   ----------------------------------------
 BYTE   W96
// 004   ----------------------------------------
 BYTE   W96
// 005   ----------------------------------------
 BYTE   W96
// 006   ----------------------------------------
 BYTE   W96
// 007   ----------------------------------------
 BYTE   W96
// 008   ----------------------------------------
 BYTE   W96
// 009   ----------------------------------------
 BYTE   W96
// 010   ----------------------------------------
 BYTE   W96
// 011   ----------------------------------------
 BYTE   W96
// 012   ----------------------------------------
 BYTE   W96
// 013   ----------------------------------------
 BYTE   W96
// 014   ----------------------------------------
 BYTE   W96
// 015   ----------------------------------------
 BYTE   W96
// 016   ----------------------------------------
 BYTE   W96
// 017   ----------------------------------------
 BYTE   W96
// 018   ----------------------------------------
Label_0_01D0686C:
 BYTE   W96
// 019   ----------------------------------------
 BYTE   W96
// 020   ----------------------------------------
 BYTE   W96
// 021   ----------------------------------------
 BYTE   W96
// 022   ----------------------------------------
 BYTE   W96
// 023   ----------------------------------------
 BYTE   W96
// 024   ----------------------------------------
 BYTE   W96
// 025   ----------------------------------------
 BYTE   W96
// 026   ----------------------------------------
 BYTE   W96
// 027   ----------------------------------------
 BYTE   W96
// 028   ----------------------------------------
 BYTE   W96
// 029   ----------------------------------------
 BYTE   W96
// 030   ----------------------------------------
 BYTE   W96
// 031   ----------------------------------------
 BYTE   W96
// 032   ----------------------------------------
 BYTE   W96
// 033   ----------------------------------------
 BYTE   W96
// 034   ----------------------------------------
 BYTE   N12  Cs5  v088
 BYTE   W12
 BYTE   Gs4
 BYTE   W12
 BYTE   En4
 BYTE   W12
 BYTE   Ds5
 BYTE   W12
 BYTE   Gs4
 BYTE   W12
 BYTE   En4
 BYTE   W12
 BYTE   En5
 BYTE   W12
 BYTE   Gs4
 BYTE   W12
// 035   ----------------------------------------
 BYTE   En4
 BYTE   W12
 BYTE   Ds5
 BYTE   W12
 BYTE   Gs4
 BYTE   W12
 BYTE   En4
 BYTE   W12
 BYTE   Cs5
 BYTE   W12
 BYTE   En4
 BYTE   W12
 BYTE   Bn4
 BYTE   W12
 BYTE   En4
 BYTE   W12
// 036   ----------------------------------------
 BYTE   An4
 BYTE   W12
 BYTE   Bn3
 BYTE   W12
 BYTE   Cs4
 BYTE   W12
 BYTE   En4
 BYTE   W12
 BYTE   An3
 BYTE   W12
 BYTE   Cs4
 BYTE   W12
 BYTE   En4
 BYTE   W12
 BYTE   Bn3
 BYTE   W12
// 037   ----------------------------------------
 BYTE   Cs4
 BYTE   W12
 BYTE   En4
 BYTE   W12
 BYTE   An3
 BYTE   W12
 BYTE   Cs4
 BYTE   W12
 BYTE   Bn3
 BYTE   W12
 BYTE   Cs4
 BYTE   W12
 BYTE   En4
 BYTE   W12
 BYTE   An4
 BYTE   W12
// 038   ----------------------------------------
 BYTE   Bn4
 BYTE   W12
 BYTE   Fs4
 BYTE   W12
 BYTE   Ds4
 BYTE   W12
 BYTE   Cs5
 BYTE   W12
 BYTE   Fs4
 BYTE   W12
 BYTE   Ds4
 BYTE   W12
 BYTE   Ds5
 BYTE   W12
 BYTE   Fs4
 BYTE   W12
// 039   ----------------------------------------
 BYTE   Ds4
 BYTE   W12
 BYTE   Cs5
 BYTE   W12
 BYTE   Fs4
 BYTE   W12
 BYTE   Ds4
 BYTE   W12
 BYTE   Bn4
 BYTE   W12
 BYTE   Ds4
 BYTE   W12
 BYTE   Ds5
 BYTE   W12
 BYTE   Ds4
 BYTE   W12
// 040   ----------------------------------------
 BYTE   Gs4
 BYTE   W12
 BYTE   Gs3
 BYTE   W12
 BYTE   Bn3
 BYTE   W12
 BYTE   En4
 BYTE   W12
 BYTE   An3
 BYTE   W12
 BYTE   Bn3
 BYTE   W12
 BYTE   En4
 BYTE   W12
 BYTE   Gs3
 BYTE   W12
// 041   ----------------------------------------
 BYTE   Bn3
 BYTE   W12
 BYTE   En4
 BYTE   W12
 BYTE   An3
 BYTE   W12
 BYTE   Bn3
 BYTE   W12
 BYTE   Gs3
 BYTE   W12
 BYTE   Bn3
 BYTE   W12
 BYTE   En4
 BYTE   W12
 BYTE   Gs4
 BYTE   W12
// 042   ----------------------------------------
 BYTE   An4
 BYTE   W12
 BYTE   En4
 BYTE   W12
 BYTE   Cs4
 BYTE   W12
 BYTE   Bn4
 BYTE   W12
 BYTE   En4
 BYTE   W12
 BYTE   Cs4
 BYTE   W12
 BYTE   Cs5
 BYTE   W12
 BYTE   En4
 BYTE   W12
// 043   ----------------------------------------
 BYTE   Cs4
 BYTE   W12
 BYTE   Bn4
 BYTE   W12
 BYTE   En4
 BYTE   W12
 BYTE   Cs4
 BYTE   W12
 BYTE   An4
 BYTE   W12
 BYTE   Cs4
 BYTE   W12
 BYTE   Gs4
 BYTE   W12
 BYTE   Cs4
 BYTE   W12
// 044   ----------------------------------------
 BYTE   Gn4
 BYTE   W12
 BYTE   As3
 BYTE   W12
 BYTE   Cs4
 BYTE   W12
 BYTE   Ds4
 BYTE   W12
 BYTE   Gn3
 BYTE   W12
 BYTE   Cs4
 BYTE   W12
 BYTE   Ds4
 BYTE   W12
 BYTE   As3
 BYTE   W12
// 045   ----------------------------------------
 BYTE   Cs4
 BYTE   W12
 BYTE   Ds4
 BYTE   W12
 BYTE   Gn3
 BYTE   W12
 BYTE   Cs4
 BYTE   W12
 BYTE   As3
 BYTE   W12
 BYTE   Cs4
 BYTE   W12
 BYTE   Ds4
 BYTE   W12
 BYTE   Gn4
 BYTE   W12
// 046   ----------------------------------------
 BYTE   As4
 BYTE   W12
 BYTE   Gn4
 BYTE   W12
 BYTE   En4
 BYTE   W12
 BYTE   Cn5
 BYTE   W12
 BYTE   Gn4
 BYTE   W12
 BYTE   En4
 BYTE   W12
 BYTE   Cs5
 BYTE   W12
 BYTE   Gn4
 BYTE   W12
// 047   ----------------------------------------
 BYTE   En4
 BYTE   W12
 BYTE   En5
 BYTE   W12
 BYTE   Gn4
 BYTE   W12
 BYTE   En4
 BYTE   W12
 BYTE   Ds5
 BYTE   W12
 BYTE   En4
 BYTE   W12
 BYTE   Cs5
 BYTE   W12
 BYTE   En4
 BYTE   W12
// 048   ----------------------------------------
 BYTE   Ds5
 BYTE   W12
 BYTE   Gs4
 BYTE   W12
 BYTE   As4
 BYTE   W12
 BYTE   Cn5
 BYTE   W12
 BYTE   Gn4
 BYTE   W12
 BYTE   Gs4
 BYTE   W12
 BYTE   As4
 BYTE   W12
 BYTE   Ds4
 BYTE   W12
// 049   ----------------------------------------
 BYTE   Gs4
 BYTE   W12
 BYTE   Cn4
 BYTE   W12
 BYTE   Cs4
 BYTE   W12
 BYTE   Ds4
 BYTE   W12
 BYTE   Gs3
 BYTE   W12
 BYTE   As3
 BYTE   W12
 BYTE   Cn4
 BYTE   W12
 BYTE   Gs3
 BYTE   W12
// 050   ----------------------------------------
 BYTE   W96
// 051   ----------------------------------------
 BYTE   W96
// 052   ----------------------------------------
 BYTE   W96
// 053   ----------------------------------------
 BYTE   W96
// 054   ----------------------------------------
 BYTE   W96
// 055   ----------------------------------------
 BYTE   W96
// 056   ----------------------------------------
 BYTE   W96
// 057   ----------------------------------------
 BYTE   W96
// 058   ----------------------------------------
 BYTE   W96
// 059   ----------------------------------------
 BYTE   W96
// 060   ----------------------------------------
 BYTE   W96
// 061   ----------------------------------------
 BYTE   W96
// 062   ----------------------------------------
 BYTE   W12
 BYTE   PAN   c_v+0
 BYTE   N12  An3  v096
 BYTE   W12
 BYTE   Bn3
 BYTE   W12
 BYTE   Cs4
 BYTE   W12
 BYTE   N24  Ds4
 BYTE   W24
 BYTE   N12  Cs4
 BYTE   W12
 BYTE   Ds4
 BYTE   W12
// 063   ----------------------------------------
 BYTE   N24  En4
 BYTE   W24
 BYTE   N12  Ds4
 BYTE   W12
 BYTE   En4
 BYTE   W12
 BYTE   N18  Fs4
 BYTE   W18
 BYTE   En4
 BYTE   W18
 BYTE   N12  Fs4
 BYTE   W12
// 064   ----------------------------------------
 BYTE   W12
 BYTE   Bn3
 BYTE   W12
 BYTE   Cs4
 BYTE   W12
 BYTE   Ds4
 BYTE   W12
 BYTE   N24  En4
 BYTE   W24
 BYTE   N12  Ds4
 BYTE   W12
 BYTE   En4
 BYTE   W12
// 065   ----------------------------------------
 BYTE   N24  Fs4
 BYTE   W24
 BYTE   N12  En4
 BYTE   W12
 BYTE   Fs4
 BYTE   W12
 BYTE   N18  Bn4
 BYTE   W18
 BYTE   An4
 BYTE   W18
 BYTE   N12  Bn4
 BYTE   W12
// 066   ----------------------------------------
 BYTE   TIE  Cs5
 BYTE   W96
// 067   ----------------------------------------
 BYTE   W48
 BYTE   EOT
 BYTE   N48  Ds5
 BYTE   W48
// 068   ----------------------------------------
 BYTE   TIE  En5
 BYTE   W96
// 069   ----------------------------------------
 BYTE   W48
 BYTE   EOT
 BYTE   N48  Gs5
 BYTE   W48
// 070   ----------------------------------------
 BYTE   TIE  Fs5
 BYTE   W96
// 071   ----------------------------------------
 BYTE   W48
 BYTE   EOT
 BYTE   N48  En5
 BYTE   W48
// 072   ----------------------------------------
 BYTE   TIE  Fs5
 BYTE   W96
// 073   ----------------------------------------
 BYTE   W96
// 074   ----------------------------------------
 BYTE   EOT
 BYTE   W96
// 075   ----------------------------------------
 BYTE   W96
// 076   ----------------------------------------
 BYTE   W96
// 077   ----------------------------------------
 BYTE   W96
// 078   ----------------------------------------
 BYTE   W96
// 079   ----------------------------------------
 BYTE   W72
 BYTE   GoTo
  POIN2 Label_0_01D0686C
// 080   ----------------------------------------
 BYTE   W24
 BYTE   FINE

//**************** Track 2 (Midi-Chn.1) ****************//

FF10BattleRSflame_002:
// 000   ----------------------------------------
 BYTE   KEYSH   FF10BattleRSflame_key+0
 BYTE   VOICE   80
 BYTE   VOL   20*FF10BattleRSflame_mvl/mxv
 BYTE   PAN   c_v+63
 BYTE   W96
// 001   ----------------------------------------
 BYTE   W96
// 002   ----------------------------------------
 BYTE   W96
// 003   ----------------------------------------
 BYTE   W96
// 004   ----------------------------------------
 BYTE   W96
// 005   ----------------------------------------
 BYTE   W96
// 006   ----------------------------------------
 BYTE   W96
// 007   ----------------------------------------
 BYTE   W96
// 008   ----------------------------------------
 BYTE   W96
// 009   ----------------------------------------
 BYTE   W96
// 010   ----------------------------------------
 BYTE   W96
// 011   ----------------------------------------
 BYTE   W96
// 012   ----------------------------------------
 BYTE   W96
// 013   ----------------------------------------
 BYTE   W96
// 014   ----------------------------------------
 BYTE   W96
// 015   ----------------------------------------
 BYTE   W96
// 016   ----------------------------------------
 BYTE   W96
// 017   ----------------------------------------
 BYTE   W96
// 018   ----------------------------------------
Label_1_01D06EAE:
 BYTE   W96
// 019   ----------------------------------------
 BYTE   W96
// 020   ----------------------------------------
 BYTE   W96
// 021   ----------------------------------------
 BYTE   W96
// 022   ----------------------------------------
 BYTE   W96
// 023   ----------------------------------------
 BYTE   W96
// 024   ----------------------------------------
 BYTE   W96
// 025   ----------------------------------------
 BYTE   W96
// 026   ----------------------------------------
 BYTE   W96
// 027   ----------------------------------------
 BYTE   W96
// 028   ----------------------------------------
 BYTE   W96
// 029   ----------------------------------------
 BYTE   W96
// 030   ----------------------------------------
 BYTE   W96
// 031   ----------------------------------------
 BYTE   W96
// 032   ----------------------------------------
 BYTE   W96
// 033   ----------------------------------------
 BYTE   W96
// 034   ----------------------------------------
 BYTE   W16
 BYTE   N12  Cs5  v072
 BYTE   W12
 BYTE   Gs4
 BYTE   W12
 BYTE   En4
 BYTE   W12
 BYTE   Ds5
 BYTE   W12
 BYTE   Gs4
 BYTE   W12
 BYTE   En4
 BYTE   W12
 BYTE   En5
 BYTE   W08
// 035   ----------------------------------------
 BYTE   W04
 BYTE   Gs4
 BYTE   W12
 BYTE   En4
 BYTE   W12
 BYTE   Ds5
 BYTE   W12
 BYTE   Gs4
 BYTE   W12
 BYTE   En4
 BYTE   W12
 BYTE   Cs5
 BYTE   W12
 BYTE   En4
 BYTE   W12
 BYTE   Bn4
 BYTE   W08
// 036   ----------------------------------------
 BYTE   W04
 BYTE   En4
 BYTE   W12
 BYTE   An4
 BYTE   W12
 BYTE   Bn3
 BYTE   W12
 BYTE   Cs4
 BYTE   W12
 BYTE   En4
 BYTE   W12
 BYTE   An3
 BYTE   W12
 BYTE   Cs4
 BYTE   W12
 BYTE   En4
 BYTE   W08
// 037   ----------------------------------------
 BYTE   W04
 BYTE   Bn3
 BYTE   W12
 BYTE   Cs4
 BYTE   W12
 BYTE   En4
 BYTE   W12
 BYTE   An3
 BYTE   W12
 BYTE   Cs4
 BYTE   W12
 BYTE   Bn3
 BYTE   W12
 BYTE   Cs4
 BYTE   W12
 BYTE   En4
 BYTE   W08
// 038   ----------------------------------------
 BYTE   W04
 BYTE   An4
 BYTE   W12
 BYTE   Bn4
 BYTE   W12
 BYTE   Fs4
 BYTE   W12
 BYTE   Ds4
 BYTE   W12
 BYTE   Cs5
 BYTE   W12
 BYTE   Fs4
 BYTE   W12
 BYTE   Ds4
 BYTE   W12
 BYTE   Ds5
 BYTE   W08
// 039   ----------------------------------------
 BYTE   W04
 BYTE   Fs4
 BYTE   W12
 BYTE   Ds4
 BYTE   W12
 BYTE   Cs5
 BYTE   W12
 BYTE   Fs4
 BYTE   W12
 BYTE   Ds4
 BYTE   W12
 BYTE   Bn4
 BYTE   W12
 BYTE   Ds4
 BYTE   W12
 BYTE   Ds5
 BYTE   W08
// 040   ----------------------------------------
 BYTE   W04
 BYTE   Ds4
 BYTE   W12
 BYTE   Gs4
 BYTE   W12
 BYTE   Gs3
 BYTE   W12
 BYTE   Bn3
 BYTE   W12
 BYTE   En4
 BYTE   W12
 BYTE   An3
 BYTE   W12
 BYTE   Bn3
 BYTE   W12
 BYTE   En4
 BYTE   W08
// 041   ----------------------------------------
 BYTE   W04
 BYTE   Gs3
 BYTE   W12
 BYTE   Bn3
 BYTE   W12
 BYTE   En4
 BYTE   W12
 BYTE   An3
 BYTE   W12
 BYTE   Bn3
 BYTE   W12
 BYTE   Gs3
 BYTE   W12
 BYTE   Bn3
 BYTE   W12
 BYTE   En4
 BYTE   W08
// 042   ----------------------------------------
 BYTE   W04
 BYTE   Gs4
 BYTE   W12
 BYTE   An4
 BYTE   W12
 BYTE   En4
 BYTE   W12
 BYTE   Cs4
 BYTE   W12
 BYTE   Bn4
 BYTE   W12
 BYTE   En4
 BYTE   W12
 BYTE   Cs4
 BYTE   W12
 BYTE   Cs5
 BYTE   W08
// 043   ----------------------------------------
 BYTE   W04
 BYTE   En4
 BYTE   W12
 BYTE   Cs4
 BYTE   W12
 BYTE   Bn4
 BYTE   W12
 BYTE   En4
 BYTE   W12
 BYTE   Cs4
 BYTE   W12
 BYTE   An4
 BYTE   W12
 BYTE   Cs4
 BYTE   W12
 BYTE   Gs4
 BYTE   W08
// 044   ----------------------------------------
 BYTE   W04
 BYTE   Cs4
 BYTE   W12
 BYTE   Gn4
 BYTE   W12
 BYTE   As3
 BYTE   W12
 BYTE   Cs4
 BYTE   W12
 BYTE   Ds4
 BYTE   W12
 BYTE   Gn3
 BYTE   W12
 BYTE   Cs4
 BYTE   W12
 BYTE   Ds4
 BYTE   W08
// 045   ----------------------------------------
 BYTE   W04
 BYTE   As3
 BYTE   W12
 BYTE   Cs4
 BYTE   W12
 BYTE   Ds4
 BYTE   W12
 BYTE   Gn3
 BYTE   W12
 BYTE   Cs4
 BYTE   W12
 BYTE   As3
 BYTE   W12
 BYTE   Cs4
 BYTE   W12
 BYTE   Ds4
 BYTE   W08
// 046   ----------------------------------------
 BYTE   W04
 BYTE   Gn4
 BYTE   W12
 BYTE   As4
 BYTE   W12
 BYTE   Gn4
 BYTE   W12
 BYTE   En4
 BYTE   W12
 BYTE   Cn5
 BYTE   W12
 BYTE   Gn4
 BYTE   W12
 BYTE   En4
 BYTE   W12
 BYTE   Cs5
 BYTE   W08
// 047   ----------------------------------------
 BYTE   W04
 BYTE   Gn4
 BYTE   W12
 BYTE   En4
 BYTE   W12
 BYTE   En5
 BYTE   W12
 BYTE   Gn4
 BYTE   W12
 BYTE   En4
 BYTE   W12
 BYTE   Ds5
 BYTE   W12
 BYTE   En4
 BYTE   W12
 BYTE   Cs5
 BYTE   W08
// 048   ----------------------------------------
 BYTE   W04
 BYTE   En4
 BYTE   W12
 BYTE   Ds5
 BYTE   W12
 BYTE   Gs4
 BYTE   W12
 BYTE   As4
 BYTE   W12
 BYTE   Cn5
 BYTE   W12
 BYTE   Gn4
 BYTE   W12
 BYTE   Gs4
 BYTE   W12
 BYTE   As4
 BYTE   W08
// 049   ----------------------------------------
 BYTE   W04
 BYTE   Ds4
 BYTE   W12
 BYTE   Gs4
 BYTE   W12
 BYTE   Cn4
 BYTE   W12
 BYTE   Cs4
 BYTE   W12
 BYTE   Ds4
 BYTE   W12
 BYTE   Gs3
 BYTE   W12
 BYTE   As3
 BYTE   W12
 BYTE   Cn4
 BYTE   W08
// 050   ----------------------------------------
 BYTE   W04
 BYTE   Gs3
 BYTE   W92
// 051   ----------------------------------------
 BYTE   W96
// 052   ----------------------------------------
 BYTE   W96
// 053   ----------------------------------------
 BYTE   W96
// 054   ----------------------------------------
 BYTE   W96
// 055   ----------------------------------------
 BYTE   W96
// 056   ----------------------------------------
 BYTE   W96
// 057   ----------------------------------------
 BYTE   W96
// 058   ----------------------------------------
 BYTE   W96
// 059   ----------------------------------------
 BYTE   W96
// 060   ----------------------------------------
 BYTE   W96
// 061   ----------------------------------------
 BYTE   W96
// 062   ----------------------------------------
 BYTE   W96
// 063   ----------------------------------------
 BYTE   W96
// 064   ----------------------------------------
 BYTE   W96
// 065   ----------------------------------------
 BYTE   W96
// 066   ----------------------------------------
 BYTE   W96
// 067   ----------------------------------------
 BYTE   W96
// 068   ----------------------------------------
 BYTE   W96
// 069   ----------------------------------------
 BYTE   W96
// 070   ----------------------------------------
 BYTE   W96
// 071   ----------------------------------------
 BYTE   W96
// 072   ----------------------------------------
 BYTE   W96
// 073   ----------------------------------------
 BYTE   W96
// 074   ----------------------------------------
 BYTE   W96
// 075   ----------------------------------------
 BYTE   W96
// 076   ----------------------------------------
 BYTE   W96
// 077   ----------------------------------------
 BYTE   W96
// 078   ----------------------------------------
 BYTE   W96
// 079   ----------------------------------------
 BYTE   W72
 BYTE   GoTo
  POIN2 Label_1_01D06EAE
// 080   ----------------------------------------
 BYTE   W24
 BYTE   FINE

//**************** Track 3 (Midi-Chn.2) ****************//

FF10BattleRSflame_003:
// 000   ----------------------------------------
 BYTE   KEYSH   FF10BattleRSflame_key+0
 BYTE   VOICE   61
 BYTE   VOL   51*FF10BattleRSflame_mvl/mxv
 BYTE   PAN   c_v+26
 BYTE   W96
// 001   ----------------------------------------
 BYTE   W96
// 002   ----------------------------------------
 BYTE   W96
// 003   ----------------------------------------
 BYTE   W96
// 004   ----------------------------------------
 BYTE   W96
// 005   ----------------------------------------
 BYTE   W96
// 006   ----------------------------------------
 BYTE   W96
// 007   ----------------------------------------
 BYTE   W96
// 008   ----------------------------------------
 BYTE   W96
// 009   ----------------------------------------
 BYTE   W96
// 010   ----------------------------------------
 BYTE   W96
// 011   ----------------------------------------
 BYTE   W96
// 012   ----------------------------------------
 BYTE   N06  Cs3  v076
 BYTE   W12
 BYTE   Cs3  v064
 BYTE   W12
 BYTE   Cs3  v052
 BYTE   W12
 BYTE   Cs3  v076
 BYTE   W12
 BYTE   Cs3  v052
 BYTE   W12
 BYTE   Cs3  v076
 BYTE   W12
 BYTE   N06
 BYTE   W12
 BYTE   Cs3  v068
 BYTE   W12
// 013   ----------------------------------------
 BYTE   Cs3  v052
 BYTE   W12
 BYTE   Cs3  v080
 BYTE   W12
 BYTE   Cs3  v068
 BYTE   W12
 BYTE   Cs3  v052
 BYTE   W12
 BYTE   Cs3  v080
 BYTE   W12
 BYTE   Cs3  v068
 BYTE   W12
 BYTE   Cs3  v052
 BYTE   W12
 BYTE   Cs3  v080
 BYTE   W12
// 014   ----------------------------------------
 BYTE   Cs3  v052
 BYTE   W12
 BYTE   Cs3  v072
 BYTE   W12
 BYTE   Cs3  v084
 BYTE   W12
 BYTE   Cs3  v072
 BYTE   W12
 BYTE   Cs3  v052
 BYTE   W12
 BYTE   Cs3  v072
 BYTE   W12
 BYTE   Cs3  v084
 BYTE   W12
 BYTE   Cs3  v072
 BYTE   W12
// 015   ----------------------------------------
 BYTE   Cs3  v052
 BYTE   W12
 BYTE   Cs3  v088
 BYTE   W12
 BYTE   Cs3  v072
 BYTE   W12
 BYTE   Cs3  v056
 BYTE   W12
 BYTE   Cs3  v088
 BYTE   W12
 BYTE   Cs3  v056
 BYTE   W12
 BYTE   Cs3  v076
 BYTE   W12
 BYTE   Cs3  v092
 BYTE   W12
// 016   ----------------------------------------
 BYTE   N06
 BYTE   W12
 BYTE   Cs3  v076
 BYTE   W12
 BYTE   Cs3  v056
 BYTE   W12
 BYTE   Cs3  v096
 BYTE   W12
 BYTE   Bn2  v056
 BYTE   W12
 BYTE   Bn2  v096
 BYTE   W12
 BYTE   N06
 BYTE   W12
 BYTE   Bn2  v080
 BYTE   W12
// 017   ----------------------------------------
 BYTE   Bn2  v056
 BYTE   W12
 BYTE   Bn2  v100
 BYTE   W12
 BYTE   Bn2  v080
 BYTE   W12
 BYTE   Bn2  v056
 BYTE   W12
 BYTE   Bn2  v104
 BYTE   W12
 BYTE   Bn2  v084
 BYTE   W12
 BYTE   Bn2  v056
 BYTE   W12
 BYTE   Bn2  v104
 BYTE   W12
// 018   ----------------------------------------
Label_2_01D07ACE:
 BYTE   N06  Cs3  v116
 BYTE   W12
 BYTE   Cs3  v096
 BYTE   W12
 BYTE   Cs3  v072
 BYTE   W12
 BYTE   Cs3  v116
 BYTE   W12
 BYTE   Cs3  v072
 BYTE   W12
 BYTE   Cs3  v116
 BYTE   W12
 BYTE   N06
 BYTE   W12
 BYTE   Cs3  v096
 BYTE   W12
 BYTE   PEND 
// 019   ----------------------------------------
Label_2_01D07AE7:
 BYTE   N06  Cs3  v072
 BYTE   W12
 BYTE   Cs3  v116
 BYTE   W12
 BYTE   Cs3  v096
 BYTE   W12
 BYTE   Cs3  v072
 BYTE   W12
 BYTE   Cs3  v116
 BYTE   W12
 BYTE   Cs3  v096
 BYTE   W12
 BYTE   Cs3  v072
 BYTE   W12
 BYTE   Cs3  v116
 BYTE   W12
 BYTE   PEND 
// 020   ----------------------------------------
Label_2_01D07B01:
 BYTE   N06  Cs3  v072
 BYTE   W12
 BYTE   Cs3  v096
 BYTE   W12
 BYTE   Cs3  v116
 BYTE   W12
 BYTE   Cs3  v096
 BYTE   W12
 BYTE   Cs3  v072
 BYTE   W12
 BYTE   Cs3  v096
 BYTE   W12
 BYTE   Cs3  v116
 BYTE   W12
 BYTE   Cs3  v096
 BYTE   W12
 BYTE   PEND 
// 021   ----------------------------------------
Label_2_01D07B1B:
 BYTE   N06  Cs3  v072
 BYTE   W12
 BYTE   Cs3  v116
 BYTE   W12
 BYTE   Cs3  v096
 BYTE   W12
 BYTE   Cs3  v072
 BYTE   W12
 BYTE   Cs3  v116
 BYTE   W12
 BYTE   Cs3  v072
 BYTE   W12
 BYTE   Cs3  v096
 BYTE   W12
 BYTE   Cs3  v116
 BYTE   W12
 BYTE   PEND 
// 022   ----------------------------------------
 BYTE   Bn2
 BYTE   W12
 BYTE   Bn2  v096
 BYTE   W12
 BYTE   Bn2  v072
 BYTE   W12
 BYTE   Bn2  v116
 BYTE   W12
 BYTE   Bn2  v072
 BYTE   W12
 BYTE   Bn2  v116
 BYTE   W12
 BYTE   N06
 BYTE   W12
 BYTE   Bn2  v096
 BYTE   W12
// 023   ----------------------------------------
 BYTE   Bn2  v072
 BYTE   W12
 BYTE   Bn2  v116
 BYTE   W12
 BYTE   Bn2  v096
 BYTE   W12
 BYTE   Bn2  v072
 BYTE   W12
 BYTE   Bn2  v116
 BYTE   W12
 BYTE   Bn2  v096
 BYTE   W12
 BYTE   Bn2  v072
 BYTE   W12
 BYTE   Bn2  v116
 BYTE   W12
// 024   ----------------------------------------
 BYTE   Bn2  v072
 BYTE   W12
 BYTE   Bn2  v096
 BYTE   W12
 BYTE   Bn2  v116
 BYTE   W12
 BYTE   Bn2  v096
 BYTE   W12
 BYTE   Bn2  v072
 BYTE   W12
 BYTE   Bn2  v096
 BYTE   W12
 BYTE   Bn2  v116
 BYTE   W12
 BYTE   Bn2  v096
 BYTE   W12
// 025   ----------------------------------------
 BYTE   Bn2  v072
 BYTE   W12
 BYTE   Bn2  v116
 BYTE   W12
 BYTE   Bn2  v096
 BYTE   W12
 BYTE   Bn2  v072
 BYTE   W12
 BYTE   Bn2  v116
 BYTE   W12
 BYTE   Bn2  v072
 BYTE   W12
 BYTE   Bn2  v096
 BYTE   W12
 BYTE   Bn2  v116
 BYTE   W12
// 026   ----------------------------------------
 BYTE   PATT
  POIN2 Label_2_01D07ACE
// 027   ----------------------------------------
 BYTE   PATT
  POIN2 Label_2_01D07AE7
// 028   ----------------------------------------
 BYTE   PATT
  POIN2 Label_2_01D07B01
// 029   ----------------------------------------
 BYTE   PATT
  POIN2 Label_2_01D07B1B
// 030   ----------------------------------------
 BYTE   PATT
  POIN2 Label_2_01D07ACE
// 031   ----------------------------------------
 BYTE   PATT
  POIN2 Label_2_01D07AE7
// 032   ----------------------------------------
 BYTE   N06  Ds3  v072
 BYTE   W12
 BYTE   Ds3  v096
 BYTE   W12
 BYTE   Ds3  v116
 BYTE   W12
 BYTE   Ds3  v096
 BYTE   W12
 BYTE   Ds3  v072
 BYTE   W12
 BYTE   Ds3  v096
 BYTE   W12
 BYTE   Ds3  v116
 BYTE   W12
 BYTE   Ds3  v096
 BYTE   W12
// 033   ----------------------------------------
 BYTE   Ds3  v072
 BYTE   W12
 BYTE   Ds3  v116
 BYTE   W12
 BYTE   Ds3  v096
 BYTE   W12
 BYTE   Ds3  v072
 BYTE   W12
 BYTE   Ds3  v116
 BYTE   W12
 BYTE   Ds3  v072
 BYTE   W12
 BYTE   Ds3  v096
 BYTE   W12
 BYTE   Ds3  v116
 BYTE   W12
// 034   ----------------------------------------
 BYTE   W96
// 035   ----------------------------------------
 BYTE   W96
// 036   ----------------------------------------
 BYTE   W96
// 037   ----------------------------------------
 BYTE   W96
// 038   ----------------------------------------
 BYTE   W96
// 039   ----------------------------------------
 BYTE   W96
// 040   ----------------------------------------
 BYTE   W96
// 041   ----------------------------------------
 BYTE   W96
// 042   ----------------------------------------
 BYTE   W96
// 043   ----------------------------------------
 BYTE   W96
// 044   ----------------------------------------
 BYTE   W96
// 045   ----------------------------------------
 BYTE   W96
// 046   ----------------------------------------
 BYTE   W96
// 047   ----------------------------------------
 BYTE   W96
// 048   ----------------------------------------
 BYTE   W96
// 049   ----------------------------------------
 BYTE   W96
// 050   ----------------------------------------
 BYTE   W96
// 051   ----------------------------------------
 BYTE   W96
// 052   ----------------------------------------
Label_2_01D07BF4:
 BYTE   N06  Cs3  v108
 BYTE   W12
 BYTE   Cs3  v088
 BYTE   W12
 BYTE   Cs3  v064
 BYTE   W12
 BYTE   Cs3  v108
 BYTE   W12
 BYTE   Cs3  v064
 BYTE   W12
 BYTE   Cs3  v108
 BYTE   W12
 BYTE   N06
 BYTE   W12
 BYTE   Cs3  v088
 BYTE   W12
 BYTE   PEND 
// 053   ----------------------------------------
Label_2_01D07C0D:
 BYTE   N06  Cs3  v064
 BYTE   W12
 BYTE   Cs3  v108
 BYTE   W12
 BYTE   Cs3  v088
 BYTE   W12
 BYTE   Cs3  v064
 BYTE   W12
 BYTE   Cs3  v108
 BYTE   W12
 BYTE   Cs3  v088
 BYTE   W12
 BYTE   Cs3  v064
 BYTE   W12
 BYTE   Cs3  v108
 BYTE   W12
 BYTE   PEND 
// 054   ----------------------------------------
Label_2_01D07C27:
 BYTE   N06  Cs3  v064
 BYTE   W12
 BYTE   Cs3  v088
 BYTE   W12
 BYTE   Cs3  v108
 BYTE   W12
 BYTE   Cs3  v088
 BYTE   W12
 BYTE   Cs3  v064
 BYTE   W12
 BYTE   Cs3  v088
 BYTE   W12
 BYTE   Cs3  v108
 BYTE   W12
 BYTE   Cs3  v088
 BYTE   W12
 BYTE   PEND 
// 055   ----------------------------------------
Label_2_01D07C41:
 BYTE   N06  Cs3  v064
 BYTE   W12
 BYTE   Cs3  v108
 BYTE   W12
 BYTE   Cs3  v088
 BYTE   W12
 BYTE   Cs3  v064
 BYTE   W12
 BYTE   Cs3  v108
 BYTE   W12
 BYTE   Cs3  v064
 BYTE   W12
 BYTE   Cs3  v088
 BYTE   W12
 BYTE   Cs3  v108
 BYTE   W12
 BYTE   PEND 
// 056   ----------------------------------------
 BYTE   W96
// 057   ----------------------------------------
 BYTE   W96
// 058   ----------------------------------------
 BYTE   Bn2
 BYTE   W12
 BYTE   Bn2  v088
 BYTE   W12
 BYTE   Bn2  v064
 BYTE   W12
 BYTE   Bn2  v108
 BYTE   W12
 BYTE   Bn2  v064
 BYTE   W12
 BYTE   Bn2  v108
 BYTE   W12
 BYTE   N06
 BYTE   W12
 BYTE   Bn2  v088
 BYTE   W12
// 059   ----------------------------------------
 BYTE   Bn2  v064
 BYTE   W12
 BYTE   Bn2  v108
 BYTE   W12
 BYTE   Bn2  v088
 BYTE   W12
 BYTE   Bn2  v064
 BYTE   W12
 BYTE   Bn2  v108
 BYTE   W12
 BYTE   Bn2  v088
 BYTE   W12
 BYTE   Bn2  v064
 BYTE   W12
 BYTE   Bn2  v108
 BYTE   W12
// 060   ----------------------------------------
 BYTE   Bn2  v064
 BYTE   W12
 BYTE   Bn2  v088
 BYTE   W12
 BYTE   Bn2  v108
 BYTE   W12
 BYTE   Bn2  v088
 BYTE   W12
 BYTE   Bn2  v064
 BYTE   W12
 BYTE   Bn2  v088
 BYTE   W12
 BYTE   Bn2  v108
 BYTE   W12
 BYTE   Bn2  v088
 BYTE   W12
// 061   ----------------------------------------
 BYTE   Bn2  v064
 BYTE   W12
 BYTE   Bn2  v108
 BYTE   W12
 BYTE   Bn2  v088
 BYTE   W12
 BYTE   Bn2  v064
 BYTE   W12
 BYTE   Bn2  v108
 BYTE   W12
 BYTE   Bn2  v064
 BYTE   W12
 BYTE   Bn2  v088
 BYTE   W12
 BYTE   Bn2  v108
 BYTE   W12
// 062   ----------------------------------------
 BYTE   W96
// 063   ----------------------------------------
 BYTE   W96
// 064   ----------------------------------------
 BYTE   W96
// 065   ----------------------------------------
 BYTE   W96
// 066   ----------------------------------------
Label_2_01D07CBF:
 BYTE   N12  Cs5  v104
 BYTE   W12
 BYTE   Gs4
 BYTE   W12
 BYTE   Fs4
 BYTE   W12
 BYTE   Cs5
 BYTE   W12
 BYTE   Gs4
 BYTE   W12
 BYTE   Fs4
 BYTE   W12
 BYTE   Cs4
 BYTE   W12
 BYTE   Gs3
 BYTE   W12
 BYTE   PEND 
// 067   ----------------------------------------
Label_2_01D07CD2:
 BYTE   N12  Cs3  v104
 BYTE   W12
 BYTE   Fs3
 BYTE   W12
 BYTE   Gs3
 BYTE   W12
 BYTE   Fs3
 BYTE   W12
 BYTE   Gs3
 BYTE   W12
 BYTE   Cs4
 BYTE   W12
 BYTE   Fs4
 BYTE   W12
 BYTE   Gs4
 BYTE   W12
 BYTE   PEND 
// 068   ----------------------------------------
 BYTE   PATT
  POIN2 Label_2_01D07CBF
// 069   ----------------------------------------
 BYTE   PATT
  POIN2 Label_2_01D07CD2
// 070   ----------------------------------------
 BYTE   PATT
  POIN2 Label_2_01D07CBF
// 071   ----------------------------------------
 BYTE   PATT
  POIN2 Label_2_01D07CD2
// 072   ----------------------------------------
 BYTE   PATT
  POIN2 Label_2_01D07CBF
// 073   ----------------------------------------
 BYTE   PATT
  POIN2 Label_2_01D07CD2
// 074   ----------------------------------------
 BYTE   PATT
  POIN2 Label_2_01D07BF4
// 075   ----------------------------------------
 BYTE   PATT
  POIN2 Label_2_01D07C0D
// 076   ----------------------------------------
 BYTE   PATT
  POIN2 Label_2_01D07C27
// 077   ----------------------------------------
 BYTE   PATT
  POIN2 Label_2_01D07C41
// 078   ----------------------------------------
 BYTE   N06  Cs3  v108
 BYTE   W12
 BYTE   Cs3  v088
 BYTE   W12
 BYTE   Cs3  v064
 BYTE   W12
 BYTE   Cs3  v108
 BYTE   W12
 BYTE   Bn2  v064
 BYTE   W12
 BYTE   Bn2  v108
 BYTE   W12
 BYTE   N06
 BYTE   W12
 BYTE   Bn2  v088
 BYTE   W12
// 079   ----------------------------------------
 BYTE   Bn2  v064
 BYTE   W12
 BYTE   Bn2  v108
 BYTE   W12
 BYTE   Bn2  v088
 BYTE   W12
 BYTE   Bn2  v064
 BYTE   W12
 BYTE   Bn2  v108
 BYTE   W12
 BYTE   Bn2  v088
 BYTE   W12
 BYTE   GoTo
  POIN2 Label_2_01D07ACE
// 080   ----------------------------------------
 BYTE   N06  Bn2  v064
 BYTE   W12
 BYTE   Bn2  v108
 BYTE   W12
 BYTE   FINE

//**************** Track 4 (Midi-Chn.3) ****************//

FF10BattleRSflame_004:
// 000   ----------------------------------------
 BYTE   KEYSH   FF10BattleRSflame_key+0
 BYTE   VOICE   0
 BYTE   VOL   41*FF10BattleRSflame_mvl/mxv
 BYTE   PAN   c_v-64
 BYTE   W96
// 001   ----------------------------------------
 BYTE   W96
// 002   ----------------------------------------
 BYTE   W96
// 003   ----------------------------------------
 BYTE   W96
// 004   ----------------------------------------
 BYTE   W96
// 005   ----------------------------------------
 BYTE   W96
// 006   ----------------------------------------
 BYTE   W96
// 007   ----------------------------------------
 BYTE   W96
// 008   ----------------------------------------
 BYTE   W96
// 009   ----------------------------------------
 BYTE   W96
// 010   ----------------------------------------
 BYTE   W96
// 011   ----------------------------------------
 BYTE   W96
// 012   ----------------------------------------
 BYTE   W96
// 013   ----------------------------------------
 BYTE   W96
// 014   ----------------------------------------
 BYTE   W96
// 015   ----------------------------------------
 BYTE   W96
// 016   ----------------------------------------
 BYTE   W96
// 017   ----------------------------------------
 BYTE   W96
// 018   ----------------------------------------
Label_3_01D07536:
 BYTE   W96
// 019   ----------------------------------------
 BYTE   W96
// 020   ----------------------------------------
 BYTE   W96
// 021   ----------------------------------------
 BYTE   W96
// 022   ----------------------------------------
 BYTE   W96
// 023   ----------------------------------------
 BYTE   W96
// 024   ----------------------------------------
 BYTE   W96
// 025   ----------------------------------------
 BYTE   W96
// 026   ----------------------------------------
 BYTE   W96
// 027   ----------------------------------------
 BYTE   W96
// 028   ----------------------------------------
 BYTE   W96
// 029   ----------------------------------------
 BYTE   W96
// 030   ----------------------------------------
 BYTE   W96
// 031   ----------------------------------------
 BYTE   W96
// 032   ----------------------------------------
 BYTE   W96
// 033   ----------------------------------------
 BYTE   W96
// 034   ----------------------------------------
 BYTE   W96
// 035   ----------------------------------------
 BYTE   W96
// 036   ----------------------------------------
 BYTE   W96
// 037   ----------------------------------------
 BYTE   W96
// 038   ----------------------------------------
 BYTE   W96
// 039   ----------------------------------------
 BYTE   W96
// 040   ----------------------------------------
 BYTE   W96
// 041   ----------------------------------------
 BYTE   W96
// 042   ----------------------------------------
 BYTE   W96
// 043   ----------------------------------------
 BYTE   W96
// 044   ----------------------------------------
 BYTE   W96
// 045   ----------------------------------------
 BYTE   W96
// 046   ----------------------------------------
 BYTE   W96
// 047   ----------------------------------------
 BYTE   W96
// 048   ----------------------------------------
 BYTE   W96
// 049   ----------------------------------------
 BYTE   W96
// 050   ----------------------------------------
 BYTE   W96
// 051   ----------------------------------------
 BYTE   W96
// 052   ----------------------------------------
 BYTE   W96
// 053   ----------------------------------------
 BYTE   W96
// 054   ----------------------------------------
 BYTE   W96
// 055   ----------------------------------------
 BYTE   W96
// 056   ----------------------------------------
 BYTE   W96
// 057   ----------------------------------------
 BYTE   W96
// 058   ----------------------------------------
 BYTE   W96
// 059   ----------------------------------------
 BYTE   W96
// 060   ----------------------------------------
 BYTE   W96
// 061   ----------------------------------------
 BYTE   W96
// 062   ----------------------------------------
 BYTE   W96
// 063   ----------------------------------------
 BYTE   W96
// 064   ----------------------------------------
 BYTE   W96
// 065   ----------------------------------------
 BYTE   W96
// 066   ----------------------------------------
 BYTE   W96
// 067   ----------------------------------------
 BYTE   N12  En5  v104
 BYTE   W12
 BYTE   Cs5
 BYTE   W12
 BYTE   Gs4
 BYTE   W12
 BYTE   En4
 BYTE   W12
 BYTE   Cs4
 BYTE   W12
 BYTE   Gs3
 BYTE   W12
 BYTE   En3
 BYTE   W12
 BYTE   Cs3
 BYTE   W12
// 068   ----------------------------------------
 BYTE   W96
// 069   ----------------------------------------
 BYTE   En5
 BYTE   W12
 BYTE   Cs5
 BYTE   W12
 BYTE   An4
 BYTE   W12
 BYTE   En4
 BYTE   W12
 BYTE   Cs4
 BYTE   W12
 BYTE   An3
 BYTE   W12
 BYTE   En3
 BYTE   W12
 BYTE   Cs3
 BYTE   W12
// 070   ----------------------------------------
 BYTE   W96
// 071   ----------------------------------------
 BYTE   Fs5
 BYTE   W12
 BYTE   Cs5
 BYTE   W12
 BYTE   An4
 BYTE   W12
 BYTE   Fs4
 BYTE   W12
 BYTE   Cs4
 BYTE   W12
 BYTE   An3
 BYTE   W12
 BYTE   Fs3
 BYTE   W12
 BYTE   Cs3
 BYTE   W12
// 072   ----------------------------------------
 BYTE   W96
// 073   ----------------------------------------
 BYTE   Fs5
 BYTE   W12
 BYTE   Dn5
 BYTE   W12
 BYTE   An4
 BYTE   W12
 BYTE   Fs4
 BYTE   W12
 BYTE   Dn4
 BYTE   W12
 BYTE   An3
 BYTE   W12
 BYTE   Fs3
 BYTE   W12
 BYTE   Dn3
 BYTE   W12
// 074   ----------------------------------------
 BYTE   W01
 BYTE   N06  Cs3  v116
 BYTE   W12
 BYTE   Cs3  v096
 BYTE   W12
 BYTE   Cs3  v072
 BYTE   W12
 BYTE   Cs3  v116
 BYTE   W12
 BYTE   Cs3  v072
 BYTE   W12
 BYTE   Cs3  v116
 BYTE   W12
 BYTE   N06
 BYTE   W12
 BYTE   Cs3  v096
 BYTE   W11
// 075   ----------------------------------------
 BYTE   W01
 BYTE   Cs3  v072
 BYTE   W12
 BYTE   Cs3  v116
 BYTE   W12
 BYTE   Cs3  v096
 BYTE   W12
 BYTE   Cs3  v072
 BYTE   W12
 BYTE   Cs3  v116
 BYTE   W12
 BYTE   Cs3  v096
 BYTE   W12
 BYTE   Cs3  v072
 BYTE   W12
 BYTE   Cs3  v116
 BYTE   W11
// 076   ----------------------------------------
 BYTE   W01
 BYTE   Cs3  v072
 BYTE   W12
 BYTE   Cs3  v096
 BYTE   W12
 BYTE   Cs3  v116
 BYTE   W12
 BYTE   Cs3  v096
 BYTE   W12
 BYTE   Cs3  v072
 BYTE   W12
 BYTE   Cs3  v096
 BYTE   W12
 BYTE   Cs3  v116
 BYTE   W12
 BYTE   Cs3  v096
 BYTE   W11
// 077   ----------------------------------------
 BYTE   W01
 BYTE   Cs3  v072
 BYTE   W12
 BYTE   Cs3  v116
 BYTE   W12
 BYTE   Cs3  v096
 BYTE   W12
 BYTE   Cs3  v072
 BYTE   W12
 BYTE   Cs3  v116
 BYTE   W12
 BYTE   Cs3  v072
 BYTE   W12
 BYTE   Cs3  v096
 BYTE   W12
 BYTE   Cs3  v116
 BYTE   W11
// 078   ----------------------------------------
 BYTE   W01
 BYTE   N06
 BYTE   W12
 BYTE   Cs3  v096
 BYTE   W12
 BYTE   Cs3  v072
 BYTE   W12
 BYTE   Cs3  v116
 BYTE   W12
 BYTE   Bn2  v072
 BYTE   W12
 BYTE   Bn2  v116
 BYTE   W12
 BYTE   N06
 BYTE   W12
 BYTE   Bn2  v096
 BYTE   W11
// 079   ----------------------------------------
 BYTE   W01
 BYTE   Bn2  v072
 BYTE   W12
 BYTE   Bn2  v116
 BYTE   W12
 BYTE   Bn2  v096
 BYTE   W12
 BYTE   Bn2  v072
 BYTE   W12
 BYTE   Bn2  v116
 BYTE   W12
 BYTE   Bn2  v096
 BYTE   W11
 BYTE   GoTo
  POIN2 Label_3_01D07536
// 080   ----------------------------------------
 BYTE   W01
 BYTE   N06  Bn2  v072
 BYTE   W12
 BYTE   Bn2  v116
 BYTE   W11
 BYTE   FINE

//**************** Track 5 (Midi-Chn.4) ****************//

FF10BattleRSflame_005:
// 000   ----------------------------------------
 BYTE   KEYSH   FF10BattleRSflame_key+0
 BYTE   VOICE   56
 BYTE   VOL   56*FF10BattleRSflame_mvl/mxv
 BYTE   PAN   c_v+0
 BYTE   N12  Gs3  v108
 BYTE   W24
 BYTE   N12
 BYTE   W12
 BYTE   N12
 BYTE   W24
 BYTE   N12
 BYTE   W12
 BYTE   N12
 BYTE   W24
// 001   ----------------------------------------
 BYTE   Fs3
 BYTE   W24
 BYTE   Bn3
 BYTE   W24
 BYTE   TIE  En3
 BYTE   W48
// 002   ----------------------------------------
 BYTE   W84
 BYTE   EOT
 BYTE   W12
// 003   ----------------------------------------
 BYTE   N12  Cs4
 BYTE   W24
 BYTE   N12
 BYTE   W12
 BYTE   N12
 BYTE   W24
 BYTE   N12
 BYTE   W12
 BYTE   N12
 BYTE   W24
// 004   ----------------------------------------
 BYTE   Bn3
 BYTE   W24
 BYTE   En4
 BYTE   W24
 BYTE   TIE  An3
 BYTE   W48
// 005   ----------------------------------------
 BYTE   W84
 BYTE   EOT
 BYTE   W12
// 006   ----------------------------------------
 BYTE   N12  Cs3  v096
 BYTE   N12  En3
 BYTE   N12  Gs3
 BYTE   W24
 BYTE   Cs3
 BYTE   N12  En3
 BYTE   N12  Gs3
 BYTE   W12
 BYTE   Cs3
 BYTE   N12  En3
 BYTE   N12  Gs3
 BYTE   W24
 BYTE   Cs3
 BYTE   N12  En3
 BYTE   N12  Gs3
 BYTE   W12
 BYTE   Cs3
 BYTE   N12  En3
 BYTE   N12  Gs3
 BYTE   W24
// 007   ----------------------------------------
 BYTE   Cs3
 BYTE   N12  En3
 BYTE   N12  An3
 BYTE   W24
 BYTE   Cs3
 BYTE   N12  En3
 BYTE   N12  An3
 BYTE   W24
 BYTE   Cs3
 BYTE   N12  En3
 BYTE   N12  Gs3
 BYTE   W24
 BYTE   Cs3
 BYTE   N12  En3
 BYTE   N12  Gs3
 BYTE   W12
 BYTE   Cs3
 BYTE   N12  En3
 BYTE   N12  Gs3
 BYTE   W12
// 008   ----------------------------------------
 BYTE   W12
 BYTE   Cs3
 BYTE   N12  En3
 BYTE   N12  Gs3
 BYTE   W12
 BYTE   Cs3
 BYTE   N12  En3
 BYTE   N12  Gs3
 BYTE   W24
 BYTE   Dn3
 BYTE   N12  Fs3
 BYTE   N12  Bn3
 BYTE   W24
 BYTE   Dn3
 BYTE   N12  Fs3
 BYTE   N12  An3
 BYTE   W24
// 009   ----------------------------------------
 BYTE   Cs3
 BYTE   N12  En3
 BYTE   N12  Gs3
 BYTE   N12  Cs4
 BYTE   N12  En4
 BYTE   W24
 BYTE   Cs3
 BYTE   N12  En3
 BYTE   N12  Gs3
 BYTE   N12  Cs4
 BYTE   N12  En4
 BYTE   W12
 BYTE   Cs3
 BYTE   N12  En3
 BYTE   N12  Gs3
 BYTE   N12  Cs4
 BYTE   N12  En4
 BYTE   W24
 BYTE   Cs3  v100
 BYTE   N12  En3
 BYTE   N12  Gs3
 BYTE   N12  Cs4
 BYTE   N12  En4
 BYTE   W12
 BYTE   Cs3
 BYTE   N12  En3
 BYTE   N12  Gs3
 BYTE   N12  Cs4
 BYTE   N12  En4
 BYTE   W24
// 010   ----------------------------------------
 BYTE   Cs3
 BYTE   N12  En3
 BYTE   N12  An3
 BYTE   N12  Cs4
 BYTE   N12  En4
 BYTE   W24
 BYTE   Cs3
 BYTE   N12  En3
 BYTE   N12  An3
 BYTE   N12  Cs4
 BYTE   N12  En4
 BYTE   W24
 BYTE   Cs3  v104
 BYTE   N12  En3
 BYTE   N12  Gs3
 BYTE   N12  Cs4
 BYTE   N12  En4
 BYTE   W24
 BYTE   Cs3
 BYTE   N12  En3
 BYTE   N12  Gs3
 BYTE   N12  Cs4
 BYTE   N12  En4
 BYTE   W12
 BYTE   Cs3  v108
 BYTE   N12  En3
 BYTE   N12  Gs3
 BYTE   N12  Cs4
 BYTE   N12  En4
 BYTE   W12
// 011   ----------------------------------------
 BYTE   W12
 BYTE   Cs3
 BYTE   N12  En3
 BYTE   N12  Gs3
 BYTE   N12  Cs4
 BYTE   N12  En4
 BYTE   W12
 BYTE   Cs3
 BYTE   N12  En3
 BYTE   N12  Gs3
 BYTE   N12  Cs4
 BYTE   N12  En4
 BYTE   W24
 BYTE   Dn3  v112
 BYTE   N12  Fs3
 BYTE   N12  Bn3
 BYTE   N12  Cs4
 BYTE   N12  Fs4
 BYTE   W24
 BYTE   Dn3
 BYTE   N12  Fs3
 BYTE   N12  An3
 BYTE   N12  Cs4
 BYTE   N12  Fs4
 BYTE   W24
// 012   ----------------------------------------
 BYTE   W96
// 013   ----------------------------------------
 BYTE   W96
// 014   ----------------------------------------
 BYTE   W96
// 015   ----------------------------------------
 BYTE   W96
// 016   ----------------------------------------
 BYTE   W96
// 017   ----------------------------------------
 BYTE   W96
// 018   ----------------------------------------
Label_4_01D07E71:
 BYTE   N12  En3  v096
 BYTE   N12  Cs4  v108
 BYTE   W36
 BYTE   Fs3  v096
 BYTE   N12  Ds4  v108
 BYTE   W36
 BYTE   Gs3  v096
 BYTE   N12  En4  v108
 BYTE   W24
// 019   ----------------------------------------
 BYTE   W12
 BYTE   Fs3  v096
 BYTE   N12  Ds4  v108
 BYTE   W36
 BYTE   En3  v096
 BYTE   N12  Cs4  v108
 BYTE   W24
 BYTE   Ds3  v096
 BYTE   N12  Bn3  v108
 BYTE   W24
// 020   ----------------------------------------
 BYTE   TIE  En3  v096
 BYTE   TIE  An3  v108
 BYTE   W96
// 021   ----------------------------------------
 BYTE   W72
 BYTE   EOT
 BYTE   En3  v069
 BYTE   W24
// 022   ----------------------------------------
 BYTE   N12  Ds3  v096
 BYTE   N12  Bn3  v108
 BYTE   W36
 BYTE   En3  v096
 BYTE   N12  Cs4  v108
 BYTE   W36
 BYTE   Fs3  v096
 BYTE   N12  Ds4  v108
 BYTE   W24
// 023   ----------------------------------------
 BYTE   W12
 BYTE   En3  v096
 BYTE   N12  Cs4  v108
 BYTE   W36
 BYTE   Ds3  v096
 BYTE   N12  Bn3  v108
 BYTE   W24
 BYTE   Fs3  v096
 BYTE   N12  Ds4  v108
 BYTE   W24
// 024   ----------------------------------------
 BYTE   TIE  En3  v096
 BYTE   TIE  Gs3  v108
 BYTE   W96
// 025   ----------------------------------------
 BYTE   W72
 BYTE   EOT
 BYTE   En3  v068
 BYTE   W24
// 026   ----------------------------------------
 BYTE   N12  Cs3  v096
 BYTE   N12  An3  v108
 BYTE   W36
 BYTE   Ds3  v096
 BYTE   N12  Bn3  v108
 BYTE   W36
 BYTE   En3  v096
 BYTE   N12  Cs4  v108
 BYTE   W24
// 027   ----------------------------------------
 BYTE   W12
 BYTE   Ds3  v096
 BYTE   N12  Bn3  v108
 BYTE   W36
 BYTE   Cs3  v096
 BYTE   N12  An3  v108
 BYTE   W24
 BYTE   Bn2  v096
 BYTE   N12  Gs3  v108
 BYTE   W24
// 028   ----------------------------------------
 BYTE   TIE  Cs3  v096
 BYTE   TIE  Fs3  v108
 BYTE   W96
// 029   ----------------------------------------
 BYTE   W36
 BYTE   EOT
 BYTE   Cs3  v066
 BYTE   W12
 BYTE   N48  Cs3  v096
 BYTE   N48  En3  v108
 BYTE   W48
// 030   ----------------------------------------
 BYTE   TIE  Cs3  v096
 BYTE   TIE  Ds3  v108
 BYTE   W96
// 031   ----------------------------------------
 BYTE   W36
 BYTE   EOT
 BYTE   Cs3  v063
 BYTE   W12
 BYTE   N48  Cs3  v096
 BYTE   N48  Ds3  v108
 BYTE   W48
// 032   ----------------------------------------
 BYTE   TIE  Ds3  v096
 BYTE   TIE  Gs3  v108
 BYTE   W96
// 033   ----------------------------------------
 BYTE   W72
 BYTE   EOT
 BYTE   Ds3  v068
 BYTE   W24
// 034   ----------------------------------------
 BYTE   W96
// 035   ----------------------------------------
 BYTE   W96
// 036   ----------------------------------------
 BYTE   W96
// 037   ----------------------------------------
 BYTE   W96
// 038   ----------------------------------------
 BYTE   W96
// 039   ----------------------------------------
 BYTE   W96
// 040   ----------------------------------------
 BYTE   W96
// 041   ----------------------------------------
 BYTE   W96
// 042   ----------------------------------------
 BYTE   W96
// 043   ----------------------------------------
 BYTE   W96
// 044   ----------------------------------------
 BYTE   W96
// 045   ----------------------------------------
 BYTE   W96
// 046   ----------------------------------------
 BYTE   W96
// 047   ----------------------------------------
 BYTE   W96
// 048   ----------------------------------------
 BYTE   W96
// 049   ----------------------------------------
 BYTE   W96
// 050   ----------------------------------------
 BYTE   N24  Gs4
 BYTE   W24
 BYTE   N12
 BYTE   W12
 BYTE   N24  Fs4
 BYTE   W24
 BYTE   N12  Gs4
 BYTE   W12
 BYTE   N24  En4
 BYTE   W24
// 051   ----------------------------------------
 BYTE   N12
 BYTE   W12
 BYTE   N24  Ds4
 BYTE   W24
 BYTE   N12  En4
 BYTE   W12
 BYTE   N24  Cs4
 BYTE   W24
 BYTE   Bn3
 BYTE   W24
// 052   ----------------------------------------
 BYTE   N48  An3
 BYTE   W48
 BYTE   TIE  Gs4
 BYTE   W48
// 053   ----------------------------------------
 BYTE   W96
// 054   ----------------------------------------
 BYTE   W96
// 055   ----------------------------------------
 BYTE   EOT
 BYTE   W96
// 056   ----------------------------------------
 BYTE   W96
// 057   ----------------------------------------
 BYTE   W96
// 058   ----------------------------------------
 BYTE   W96
// 059   ----------------------------------------
 BYTE   W96
// 060   ----------------------------------------
 BYTE   W96
// 061   ----------------------------------------
 BYTE   W96
// 062   ----------------------------------------
 BYTE   W96
// 063   ----------------------------------------
 BYTE   W96
// 064   ----------------------------------------
 BYTE   W96
// 065   ----------------------------------------
 BYTE   W96
// 066   ----------------------------------------
 BYTE   W96
// 067   ----------------------------------------
 BYTE   W96
// 068   ----------------------------------------
 BYTE   W96
// 069   ----------------------------------------
 BYTE   W96
// 070   ----------------------------------------
 BYTE   W96
// 071   ----------------------------------------
 BYTE   W96
// 072   ----------------------------------------
 BYTE   W96
// 073   ----------------------------------------
 BYTE   W96
// 074   ----------------------------------------
 BYTE   W96
// 075   ----------------------------------------
 BYTE   W96
// 076   ----------------------------------------
 BYTE   W96
// 077   ----------------------------------------
 BYTE   W96
// 078   ----------------------------------------
 BYTE   W96
// 079   ----------------------------------------
 BYTE   W72
 BYTE   GoTo
  POIN2 Label_4_01D07E71
// 080   ----------------------------------------
 BYTE   W24
 BYTE   FINE

//**************** Track 6 (Midi-Chn.5) ****************//

FF10BattleRSflame_006:
// 000   ----------------------------------------
 BYTE   KEYSH   FF10BattleRSflame_key+0
 BYTE   VOICE   40
 BYTE   VOL   67*FF10BattleRSflame_mvl/mxv
 BYTE   PAN   c_v-24
 BYTE   W96
// 001   ----------------------------------------
 BYTE   W48
 BYTE   N36  En3  v104
 BYTE   W36
 BYTE   Ds3
 BYTE   N36  En3
 BYTE   W12
// 002   ----------------------------------------
 BYTE   W24
 BYTE   Cs3
 BYTE   N36  En3
 BYTE   W36
 BYTE   Bn2
 BYTE   N36  En3
 BYTE   W36
// 003   ----------------------------------------
 BYTE   TIE  An2
 BYTE   TIE  En3
 BYTE   W96
// 004   ----------------------------------------
 BYTE   W36
 BYTE   EOT
 BYTE   An2  v064
 BYTE   W12
 BYTE   N36  An3
 BYTE   W36
 BYTE   Gs3
 BYTE   N36  An3
 BYTE   W12
// 005   ----------------------------------------
 BYTE   W24
 BYTE   N24  Fs3
 BYTE   N24  An3
 BYTE   W24
 BYTE   N12  Fs3
 BYTE   N12  An3
 BYTE   W12
 BYTE   En3
 BYTE   N12  An3
 BYTE   W12
 BYTE   Dn3
 BYTE   N12  An3
 BYTE   W12
 BYTE   Fs3
 BYTE   N12  An3
 BYTE   W12
// 006   ----------------------------------------
 BYTE   W96
// 007   ----------------------------------------
 BYTE   W96
// 008   ----------------------------------------
 BYTE   W96
// 009   ----------------------------------------
 BYTE   W96
// 010   ----------------------------------------
 BYTE   W96
// 011   ----------------------------------------
 BYTE   W96
// 012   ----------------------------------------
 BYTE   W96
// 013   ----------------------------------------
 BYTE   W96
// 014   ----------------------------------------
 BYTE   W96
// 015   ----------------------------------------
 BYTE   W96
// 016   ----------------------------------------
 BYTE   W96
// 017   ----------------------------------------
 BYTE   W96
// 018   ----------------------------------------
Label_5_01D07697:
 BYTE   N12  Gs2  v104
 BYTE   N12  Cs3
 BYTE   W36
 BYTE   Gs2
 BYTE   N12  Cs3
 BYTE   W36
 BYTE   Gs2
 BYTE   N12  Cs3
 BYTE   W24
// 019   ----------------------------------------
 BYTE   W12
 BYTE   Gs2
 BYTE   N12  Cs3
 BYTE   W36
 BYTE   Gs2
 BYTE   N12  Cs3
 BYTE   W24
 BYTE   Gs2
 BYTE   N12  Cs3
 BYTE   W24
// 020   ----------------------------------------
 BYTE   N48  Bn2
 BYTE   TIE  Cs3
 BYTE   W48
 BYTE   N96  An2
 BYTE   W48
// 021   ----------------------------------------
 BYTE   W48
 BYTE   N36  Gs2
 BYTE   W36
 BYTE   EOT
 BYTE   Cs3
 BYTE   W12
// 022   ----------------------------------------
 BYTE   N12  Fs2
 BYTE   N12  Bn2
 BYTE   W36
 BYTE   Fs2
 BYTE   N12  Bn2
 BYTE   W36
 BYTE   Fs2
 BYTE   N12  Bn2
 BYTE   W24
// 023   ----------------------------------------
 BYTE   W12
 BYTE   Fs2
 BYTE   N12  Bn2
 BYTE   W36
 BYTE   Fs2
 BYTE   N12  Bn2
 BYTE   W24
 BYTE   Fs2
 BYTE   N12  Bn2
 BYTE   W24
// 024   ----------------------------------------
 BYTE   N48  An2
 BYTE   TIE  Bn2
 BYTE   W48
 BYTE   N96  Gs2
 BYTE   W48
// 025   ----------------------------------------
 BYTE   W48
 BYTE   N36  Fs2
 BYTE   W36
 BYTE   EOT
 BYTE   Bn2
 BYTE   W12
// 026   ----------------------------------------
 BYTE   N12  En2
 BYTE   N12  An2
 BYTE   W36
 BYTE   En2
 BYTE   N12  An2
 BYTE   W36
 BYTE   En2
 BYTE   N12  An2
 BYTE   W24
// 027   ----------------------------------------
 BYTE   W12
 BYTE   En2
 BYTE   N12  An2
 BYTE   W36
 BYTE   En2
 BYTE   N12  An2
 BYTE   W24
 BYTE   En2
 BYTE   N12  An2
 BYTE   W24
// 028   ----------------------------------------
 BYTE   TIE  Fs2
 BYTE   TIE  As2
 BYTE   W96
// 029   ----------------------------------------
 BYTE   W36
 BYTE   EOT
 BYTE   Fs2  v058
 BYTE   W12
 BYTE   N48  Gs2
 BYTE   N48  As2
 BYTE   W48
// 030   ----------------------------------------
 BYTE   TIE  Gn2
 BYTE   TIE  As2
 BYTE   W96
// 031   ----------------------------------------
 BYTE   W36
 BYTE   EOT
 BYTE   Gn2  v058
 BYTE   W12
 BYTE   N48  Ds2
 BYTE   N48  As2
 BYTE   W48
// 032   ----------------------------------------
 BYTE   TIE  Ds2
 BYTE   TIE  Gs2
 BYTE   W96
// 033   ----------------------------------------
 BYTE   W72
 BYTE   EOT
 BYTE   Ds2  v056
 BYTE   W24
// 034   ----------------------------------------
 BYTE   W96
// 035   ----------------------------------------
 BYTE   W96
// 036   ----------------------------------------
 BYTE   W96
// 037   ----------------------------------------
 BYTE   W96
// 038   ----------------------------------------
 BYTE   W96
// 039   ----------------------------------------
 BYTE   W96
// 040   ----------------------------------------
 BYTE   W96
// 041   ----------------------------------------
 BYTE   W96
// 042   ----------------------------------------
 BYTE   W96
// 043   ----------------------------------------
 BYTE   W96
// 044   ----------------------------------------
 BYTE   W96
// 045   ----------------------------------------
 BYTE   W96
// 046   ----------------------------------------
 BYTE   W96
// 047   ----------------------------------------
 BYTE   W96
// 048   ----------------------------------------
 BYTE   W96
// 049   ----------------------------------------
 BYTE   W96
// 050   ----------------------------------------
 BYTE   W96
// 051   ----------------------------------------
 BYTE   W96
// 052   ----------------------------------------
 BYTE   W96
// 053   ----------------------------------------
 BYTE   W96
// 054   ----------------------------------------
 BYTE   W96
// 055   ----------------------------------------
 BYTE   W96
// 056   ----------------------------------------
 BYTE   N24  Fs3  v116
 BYTE   W24
 BYTE   N12
 BYTE   W12
 BYTE   N24  En3
 BYTE   W24
 BYTE   N12  Fs3
 BYTE   W12
 BYTE   N24  Ds3
 BYTE   W24
// 057   ----------------------------------------
 BYTE   N12
 BYTE   W12
 BYTE   N24  Cs3
 BYTE   W24
 BYTE   N12  Ds3
 BYTE   W12
 BYTE   N24  Bn2
 BYTE   W24
 BYTE   An2
 BYTE   W24
// 058   ----------------------------------------
 BYTE   N48  Gs2
 BYTE   W48
 BYTE   TIE  Fs3
 BYTE   W48
// 059   ----------------------------------------
 BYTE   W96
// 060   ----------------------------------------
 BYTE   W96
// 061   ----------------------------------------
 BYTE   EOT
 BYTE   W96
// 062   ----------------------------------------
 BYTE   W96
// 063   ----------------------------------------
 BYTE   W96
// 064   ----------------------------------------
 BYTE   W96
// 065   ----------------------------------------
 BYTE   W96
// 066   ----------------------------------------
 BYTE   W96
// 067   ----------------------------------------
 BYTE   W96
// 068   ----------------------------------------
 BYTE   W96
// 069   ----------------------------------------
 BYTE   W96
// 070   ----------------------------------------
 BYTE   W96
// 071   ----------------------------------------
 BYTE   W96
// 072   ----------------------------------------
 BYTE   W96
// 073   ----------------------------------------
 BYTE   W96
// 074   ----------------------------------------
 BYTE   W96
// 075   ----------------------------------------
 BYTE   W96
// 076   ----------------------------------------
 BYTE   W96
// 077   ----------------------------------------
 BYTE   W96
// 078   ----------------------------------------
 BYTE   W96
// 079   ----------------------------------------
 BYTE   W72
 BYTE   GoTo
  POIN2 Label_5_01D07697
// 080   ----------------------------------------
 BYTE   W24
 BYTE   FINE

//**************** Track 7 (Midi-Chn.6) ****************//

FF10BattleRSflame_007:
// 000   ----------------------------------------
 BYTE   KEYSH   FF10BattleRSflame_key+0
 BYTE   VOICE   61
 BYTE   VOL   47*FF10BattleRSflame_mvl/mxv
 BYTE   PAN   c_v+26
 BYTE   N06  Cs3  v096
 BYTE   N06  En3
 BYTE   N06  Gs3
 BYTE   N12  Gs4  v080
 BYTE   N12  Cs5
 BYTE   W12
 BYTE   N06  Cs4  v064
 BYTE   W12
 BYTE   Cs3  v096
 BYTE   N06  En3
 BYTE   N06  Gs3
 BYTE   N06  Gs4  v064
 BYTE   N06  Cs5  v080
 BYTE   W12
 BYTE   Cs3  v096
 BYTE   N06  En3
 BYTE   N06  Gs3
 BYTE   N12  Gs4  v080
 BYTE   N12  Cs5
 BYTE   W12
 BYTE   N06  Cs4  v064
 BYTE   W12
 BYTE   Cs3  v096
 BYTE   N06  En3
 BYTE   N06  Gs3
 BYTE   N06  Gs4  v064
 BYTE   N06  Cs5  v080
 BYTE   W12
 BYTE   Cs3  v096
 BYTE   N06  En3
 BYTE   N06  Gs3
 BYTE   N12  Gs4  v080
 BYTE   N12  Cs5
 BYTE   W12
 BYTE   N06  Cs4  v064
 BYTE   W12
// 001   ----------------------------------------
 BYTE   Cs3  v096
 BYTE   N06  En3
 BYTE   N06  Gs3
 BYTE   N12  Gs4  v080
 BYTE   N12  Cs5
 BYTE   W12
 BYTE   N06  Cs4  v064
 BYTE   W12
 BYTE   Cs3  v096
 BYTE   N06  En3
 BYTE   N06  Gs3
 BYTE   N12  Gs4  v080
 BYTE   N12  Cs5
 BYTE   W12
 BYTE   N06  Cs4  v064
 BYTE   W12
 BYTE   N12  An4  v080
 BYTE   N12  Cs5
 BYTE   W12
 BYTE   N06  Cs4  v064
 BYTE   W12
 BYTE   An4
 BYTE   N06  Cs5  v080
 BYTE   W12
 BYTE   N12  An4
 BYTE   N12  Cs5
 BYTE   W12
// 002   ----------------------------------------
 BYTE   N06  Cs4  v064
 BYTE   W12
 BYTE   An4
 BYTE   N06  Cs5  v080
 BYTE   W12
 BYTE   N12  An4
 BYTE   N12  Cs5
 BYTE   W12
 BYTE   N06  Cs4  v064
 BYTE   W12
 BYTE   N12  An4  v080
 BYTE   N12  Cs5
 BYTE   W12
 BYTE   N06  Cs4  v064
 BYTE   W12
 BYTE   N12  An4  v080
 BYTE   N12  Cs5
 BYTE   W12
 BYTE   N06  Cs4  v064
 BYTE   W12
// 003   ----------------------------------------
 BYTE   Cs3  v096
 BYTE   N06  Fs3
 BYTE   N06  An3
 BYTE   N12  An4  v080
 BYTE   N12  Cs5
 BYTE   W12
 BYTE   N06  Cs4  v064
 BYTE   W12
 BYTE   Cs3  v096
 BYTE   N06  Fs3
 BYTE   N06  An3
 BYTE   N06  An4  v064
 BYTE   N06  Cs5  v080
 BYTE   W12
 BYTE   Cs3  v096
 BYTE   N06  Fs3
 BYTE   N06  An3
 BYTE   N12  An4  v080
 BYTE   N12  Cs5
 BYTE   W12
 BYTE   N06  Cs4  v064
 BYTE   W12
 BYTE   Cs3  v096
 BYTE   N06  Fs3
 BYTE   N06  An3
 BYTE   N06  An4  v064
 BYTE   N06  Cs5  v080
 BYTE   W12
 BYTE   Cs3  v096
 BYTE   N06  Fs3
 BYTE   N06  An3
 BYTE   N12  An4  v080
 BYTE   N12  Cs5
 BYTE   W12
 BYTE   N06  Cs4  v064
 BYTE   W12
// 004   ----------------------------------------
 BYTE   Cs3  v096
 BYTE   N06  Fs3
 BYTE   N06  An3
 BYTE   N12  An4  v080
 BYTE   N12  Cs5
 BYTE   W12
 BYTE   N06  Cs4  v064
 BYTE   W12
 BYTE   Cs3  v096
 BYTE   N06  Fs3
 BYTE   N06  An3
 BYTE   N12  An4  v080
 BYTE   N12  Cs5
 BYTE   W12
 BYTE   N06  Cs4  v064
 BYTE   W12
 BYTE   N12  An4  v080
 BYTE   N12  Cs5
 BYTE   W12
 BYTE   N06  Dn4  v064
 BYTE   W12
 BYTE   An4
 BYTE   N06  Cs5  v080
 BYTE   W12
 BYTE   N12  An4
 BYTE   N12  Cs5
 BYTE   W12
// 005   ----------------------------------------
 BYTE   N06  Dn4  v064
 BYTE   W12
 BYTE   An4
 BYTE   N06  Cs5  v080
 BYTE   W12
 BYTE   N12  An4
 BYTE   N12  Cs5
 BYTE   W12
 BYTE   N06  Dn4  v064
 BYTE   W12
 BYTE   Bn3
 BYTE   N06  Dn4
 BYTE   W06
 BYTE   Cs4  v068
 BYTE   N06  En4
 BYTE   W06
 BYTE   Dn4  v072
 BYTE   N06  Fs4
 BYTE   W06
 BYTE   En4  v076
 BYTE   N06  Gs4
 BYTE   W06
 BYTE   Fs4  v080
 BYTE   N06  An4
 BYTE   W06
 BYTE   Gs4  v088
 BYTE   N06  Bn4
 BYTE   W06
 BYTE   An4  v096
 BYTE   N06  Cs5
 BYTE   W06
 BYTE   Bn4  v100
 BYTE   N06  Dn5
 BYTE   W06
// 006   ----------------------------------------
 BYTE   W96
// 007   ----------------------------------------
 BYTE   W96
// 008   ----------------------------------------
 BYTE   W96
// 009   ----------------------------------------
 BYTE   W96
// 010   ----------------------------------------
 BYTE   W96
// 011   ----------------------------------------
 BYTE   W96
// 012   ----------------------------------------
 BYTE   Cs3  v036
 BYTE   W24
 BYTE   Cs3  v040
 BYTE   W12
 BYTE   Cs3  v044
 BYTE   W24
 BYTE   N06
 BYTE   W12
 BYTE   N12  Cs3  v048
 BYTE   W12
 BYTE   Ds3
 BYTE   W12
// 013   ----------------------------------------
 BYTE   En3  v052
 BYTE   W12
 BYTE   Ds3
 BYTE   W12
 BYTE   Cs3  v056
 BYTE   W12
 BYTE   Ds3
 BYTE   W12
 BYTE   N06  Cs3
 BYTE   N06  En3
 BYTE   W24
 BYTE   Cs3  v060
 BYTE   N06  En3
 BYTE   W12
 BYTE   Cs3  v064
 BYTE   N06  En3
 BYTE   W12
// 014   ----------------------------------------
 BYTE   W12
 BYTE   Cs3  v068
 BYTE   N06  En3
 BYTE   W12
 BYTE   N12  Cs3
 BYTE   N12  En3
 BYTE   W12
 BYTE   Ds3
 BYTE   N12  Fs3
 BYTE   W12
 BYTE   En3  v072
 BYTE   N12  Gs3
 BYTE   W12
 BYTE   Ds3
 BYTE   N12  Fs3
 BYTE   W12
 BYTE   Cs3
 BYTE   N12  En3
 BYTE   W12
 BYTE   Ds3  v076
 BYTE   N12  Fs3
 BYTE   W12
// 015   ----------------------------------------
 BYTE   N06  Cs3
 BYTE   N06  En3
 BYTE   N06  Gn3
 BYTE   W24
 BYTE   Cs3  v080
 BYTE   N06  En3
 BYTE   N06  Gn3
 BYTE   W12
 BYTE   Cs3
 BYTE   N06  En3
 BYTE   N06  Gn3
 BYTE   W24
 BYTE   Cs3  v084
 BYTE   N06  En3
 BYTE   N06  Gn3
 BYTE   W12
 BYTE   N12  Cs3  v088
 BYTE   N12  En3
 BYTE   N12  Gn3
 BYTE   W12
 BYTE   Ds3
 BYTE   N12  Fs3
 BYTE   N12  An3
 BYTE   W12
// 016   ----------------------------------------
 BYTE   En3  v092
 BYTE   N12  Gn3
 BYTE   N12  Bn3
 BYTE   W12
 BYTE   Ds3
 BYTE   N12  Fs3
 BYTE   N12  An3
 BYTE   W12
 BYTE   Cs3
 BYTE   N12  En3
 BYTE   N12  Gn3
 BYTE   W12
 BYTE   Ds3  v096
 BYTE   N12  Fs3
 BYTE   N12  An3
 BYTE   W12
 BYTE   N06  Dn3
 BYTE   N06  Fs3
 BYTE   N06  Bn3
 BYTE   W24
 BYTE   Dn3  v100
 BYTE   N06  Fs3
 BYTE   N06  Bn3
 BYTE   W12
 BYTE   Dn3  v104
 BYTE   N06  Fs3
 BYTE   N06  Bn3
 BYTE   W12
// 017   ----------------------------------------
 BYTE   W12
 BYTE   Dn3  v108
 BYTE   N06  Fs3
 BYTE   N06  Bn3
 BYTE   W12
 BYTE   N12  Dn3
 BYTE   N12  Fs3
 BYTE   N12  Bn3
 BYTE   W12
 BYTE   En3
 BYTE   N12  Fs3
 BYTE   N12  Cs4
 BYTE   W12
 BYTE   Fs3  v112
 BYTE   N12  Bn3
 BYTE   N12  Dn4
 BYTE   W12
 BYTE   En3
 BYTE   N12  Fs3
 BYTE   N12  Cs4
 BYTE   W12
 BYTE   Dn3
 BYTE   N12  Fs3
 BYTE   N12  Bn3
 BYTE   W12
 BYTE   Bn2
 BYTE   N12  Dn3
 BYTE   N12  Fs3
 BYTE   W12
// 018   ----------------------------------------
Label_6_01D081BF:
 BYTE   W96
// 019   ----------------------------------------
 BYTE   W96
// 020   ----------------------------------------
 BYTE   W96
// 021   ----------------------------------------
 BYTE   W96
// 022   ----------------------------------------
 BYTE   W96
// 023   ----------------------------------------
 BYTE   W96
// 024   ----------------------------------------
 BYTE   W96
// 025   ----------------------------------------
 BYTE   W96
// 026   ----------------------------------------
 BYTE   W96
// 027   ----------------------------------------
 BYTE   W96
// 028   ----------------------------------------
 BYTE   W96
// 029   ----------------------------------------
 BYTE   W96
// 030   ----------------------------------------
 BYTE   W96
// 031   ----------------------------------------
 BYTE   W96
// 032   ----------------------------------------
 BYTE   W96
// 033   ----------------------------------------
 BYTE   W96
// 034   ----------------------------------------
 BYTE   N12  Gs2  v096
 BYTE   N12  Cs3
 BYTE   N12  En3
 BYTE   N12  Cs4
 BYTE   W36
 BYTE   Gs2
 BYTE   N12  Cs3
 BYTE   N12  Fs3
 BYTE   N12  Ds4
 BYTE   W36
 BYTE   Gs2
 BYTE   N12  Cs3
 BYTE   N12  Gs3
 BYTE   N12  En4
 BYTE   W24
// 035   ----------------------------------------
 BYTE   W12
 BYTE   Gs2
 BYTE   N12  Cs3
 BYTE   N12  Fs3
 BYTE   N12  Ds4
 BYTE   W36
 BYTE   Gs2
 BYTE   N12  Cs3
 BYTE   N12  En3
 BYTE   N12  Cs4
 BYTE   W24
 BYTE   Gs2
 BYTE   N12  Cs3
 BYTE   N12  Ds3
 BYTE   N12  Bn3
 BYTE   W24
// 036   ----------------------------------------
 BYTE   W96
// 037   ----------------------------------------
 BYTE   W96
// 038   ----------------------------------------
 BYTE   Fs2
 BYTE   N12  Bn2
 BYTE   N12  Ds3
 BYTE   N12  Bn3
 BYTE   W36
 BYTE   Fs2
 BYTE   N12  Bn2
 BYTE   N12  En3
 BYTE   N12  Cs4
 BYTE   W36
 BYTE   Fs2
 BYTE   N12  Bn2
 BYTE   N12  Fs3
 BYTE   N12  Ds4
 BYTE   W24
// 039   ----------------------------------------
 BYTE   W12
 BYTE   Fs2
 BYTE   N12  Bn2
 BYTE   N12  En3
 BYTE   N12  Cs4
 BYTE   W36
 BYTE   Fs2
 BYTE   N12  Bn2
 BYTE   N12  Ds3
 BYTE   N12  Bn3
 BYTE   W24
 BYTE   Fs2
 BYTE   N12  Bn2
 BYTE   N12  Fs3
 BYTE   N12  Ds4
 BYTE   W24
// 040   ----------------------------------------
 BYTE   W96
// 041   ----------------------------------------
 BYTE   W96
// 042   ----------------------------------------
 BYTE   En2
 BYTE   N12  An2
 BYTE   N12  Cs3
 BYTE   N12  An3
 BYTE   W36
 BYTE   En2
 BYTE   N12  An2
 BYTE   N12  Ds3
 BYTE   N12  Bn3
 BYTE   W36
 BYTE   En2
 BYTE   N12  An2
 BYTE   N12  En3
 BYTE   N12  Cs4
 BYTE   W24
// 043   ----------------------------------------
 BYTE   W12
 BYTE   En2
 BYTE   N12  An2
 BYTE   N12  Ds3
 BYTE   N12  Bn3
 BYTE   W36
 BYTE   En2
 BYTE   N12  An2
 BYTE   N12  Cs3
 BYTE   N12  An3
 BYTE   W24
 BYTE   En2
 BYTE   N12  An2
 BYTE   N12  Bn2
 BYTE   N12  Gs3
 BYTE   W24
// 044   ----------------------------------------
 BYTE   W96
// 045   ----------------------------------------
 BYTE   W96
// 046   ----------------------------------------
 BYTE   Gn2
 BYTE   N12  As2
 BYTE   N12  En3
 BYTE   N12  As3
 BYTE   W36
 BYTE   Fs2
 BYTE   N12  As2
 BYTE   N12  En3
 BYTE   N12  Cn4
 BYTE   W36
 BYTE   Gn2
 BYTE   N12  As2
 BYTE   N12  En3
 BYTE   N12  Cs4
 BYTE   W24
// 047   ----------------------------------------
 BYTE   W12
 BYTE   Gs2
 BYTE   N12  As2
 BYTE   N12  Gs3
 BYTE   N12  En4
 BYTE   W36
 BYTE   Gn2
 BYTE   N12  As2
 BYTE   N12  Gn3
 BYTE   N12  Ds4
 BYTE   W24
 BYTE   Gn2
 BYTE   N12  As2
 BYTE   N12  As3
 BYTE   N12  Cs4
 BYTE   W24
// 048   ----------------------------------------
 BYTE   W96
// 049   ----------------------------------------
 BYTE   W96
// 050   ----------------------------------------
 BYTE   TIE  Cs3  v088
 BYTE   TIE  En3
 BYTE   N36  Gs3
 BYTE   W36
 BYTE   An3
 BYTE   W36
 BYTE   As3
 BYTE   W24
// 051   ----------------------------------------
 BYTE   W12
 BYTE   An3
 BYTE   W36
 BYTE   N24  Gs3
 BYTE   W24
 BYTE   Fs3
 BYTE   W24
// 052   ----------------------------------------
 BYTE   EOT
 BYTE   Cs3  v064
 BYTE   TIE  An2
 BYTE   TIE  Cs3
 BYTE   N96  En3
 BYTE   W96
// 053   ----------------------------------------
 BYTE   Fn3
 BYTE   W96
// 054   ----------------------------------------
 BYTE   Fs3
 BYTE   W96
// 055   ----------------------------------------
 BYTE   Fn3
 BYTE   W96
// 056   ----------------------------------------
 BYTE   EOT
 BYTE   An2  v061
 BYTE   TIE  Bn2
 BYTE   TIE  Ds3
 BYTE   N36  Fs3
 BYTE   W36
 BYTE   Gs3
 BYTE   W36
 BYTE   An3
 BYTE   W24
// 057   ----------------------------------------
 BYTE   W12
 BYTE   Gs3
 BYTE   W36
 BYTE   N24  Fs3
 BYTE   W24
 BYTE   EOT
 BYTE   Ds3
 BYTE   N24
 BYTE   W24
// 058   ----------------------------------------
 BYTE   EOT
 BYTE   Bn2
 BYTE   TIE  Gs2
 BYTE   N96  Bn2
 BYTE   TIE  En3
 BYTE   W96
// 059   ----------------------------------------
 BYTE   N96  Cs3
 BYTE   W96
// 060   ----------------------------------------
 BYTE   Ds3
 BYTE   W96
// 061   ----------------------------------------
 BYTE   Cs3
 BYTE   W96
// 062   ----------------------------------------
 BYTE   EOT
 BYTE   Gs2  v064
 BYTE   W12
 BYTE   N12  An2  v080
 BYTE   N12  An3
 BYTE   W12
 BYTE   Bn2
 BYTE   N12  Bn3
 BYTE   W12
 BYTE   Cs3
 BYTE   N12  Cs4
 BYTE   W12
 BYTE   N24  Ds3
 BYTE   N24  Ds4
 BYTE   W24
 BYTE   N12  Cs3
 BYTE   N12  Cs4
 BYTE   W12
 BYTE   Ds3
 BYTE   N12  Ds4
 BYTE   W12
// 063   ----------------------------------------
 BYTE   N24  En3
 BYTE   N24  En4
 BYTE   W24
 BYTE   N12  Ds3
 BYTE   N12  Ds4
 BYTE   W12
 BYTE   En3
 BYTE   N12  En4
 BYTE   W12
 BYTE   N18  Fs3
 BYTE   N18  Fs4
 BYTE   W18
 BYTE   En3
 BYTE   N18  En4
 BYTE   W18
 BYTE   N12  Fs3
 BYTE   N12  Fs4
 BYTE   W12
// 064   ----------------------------------------
 BYTE   W12
 BYTE   Bn2
 BYTE   N12  Bn3
 BYTE   W12
 BYTE   Cs3
 BYTE   N12  Cs4
 BYTE   W12
 BYTE   Ds3
 BYTE   N12  Ds4
 BYTE   W12
 BYTE   N24  En3
 BYTE   N24  En4
 BYTE   W24
 BYTE   N12  Ds3
 BYTE   N12  Ds4
 BYTE   W12
 BYTE   En3
 BYTE   N12  En4
 BYTE   W12
// 065   ----------------------------------------
 BYTE   N24  Fs3
 BYTE   N24  Fs4
 BYTE   W24
 BYTE   N12  En3
 BYTE   N12  En4
 BYTE   W12
 BYTE   Fs3
 BYTE   N12  Fs4
 BYTE   W12
 BYTE   N18  Bn3
 BYTE   N18  Bn4
 BYTE   W18
 BYTE   An3
 BYTE   N18  An4
 BYTE   W18
 BYTE   N12  Bn3
 BYTE   N12  Bn4
 BYTE   W12
// 066   ----------------------------------------
 BYTE   W96
// 067   ----------------------------------------
 BYTE   W96
// 068   ----------------------------------------
 BYTE   W96
// 069   ----------------------------------------
 BYTE   W96
// 070   ----------------------------------------
 BYTE   W96
// 071   ----------------------------------------
 BYTE   W96
// 072   ----------------------------------------
 BYTE   W96
// 073   ----------------------------------------
 BYTE   W96
// 074   ----------------------------------------
Label_6_01D08364:
 BYTE   N09  En3  v080
 BYTE   N09  Gs3
 BYTE   N09  Ds4
 BYTE   W36
 BYTE   En3
 BYTE   N09  Gs3
 BYTE   N09  Ds4
 BYTE   W36
 BYTE   En3
 BYTE   N09  Gs3
 BYTE   N09  Ds4
 BYTE   W24
 BYTE   PEND 
// 075   ----------------------------------------
 BYTE   W12
 BYTE   N04  En3
 BYTE   N04  Gs3
 BYTE   N04  Cs4
 BYTE   W09
 BYTE   En3
 BYTE   N04  Gs3
 BYTE   N04  Cs4
 BYTE   W24
 BYTE   W03
 BYTE   N09  En3
 BYTE   N09  Gs3
 BYTE   N09  Cn4
 BYTE   W36
 BYTE   En3
 BYTE   N09  Gs3
 BYTE   N09  Cn4
 BYTE   W12
// 076   ----------------------------------------
 BYTE   W24
 BYTE   En3
 BYTE   N09  Gs3
 BYTE   N09  Cn4
 BYTE   W36
 BYTE   N04  En3
 BYTE   N04  Gs3
 BYTE   N04  Cs4
 BYTE   W09
 BYTE   En3
 BYTE   N04  Gs3
 BYTE   N04  Cs4
 BYTE   W24
 BYTE   W03
// 077   ----------------------------------------
 BYTE   PATT
  POIN2 Label_6_01D08364
// 078   ----------------------------------------
 BYTE   W12
 BYTE   N04  En3  v080
 BYTE   N04  Gs3
 BYTE   N04  En4
 BYTE   W09
 BYTE   En3
 BYTE   N04  Gs3
 BYTE   N04  En4
 BYTE   W24
 BYTE   W03
 BYTE   N09  Fs3
 BYTE   N09  Dn4
 BYTE   N09  Fs4
 BYTE   W36
 BYTE   Fs3
 BYTE   N09  Dn4
 BYTE   N09  Fs4
 BYTE   W12
// 079   ----------------------------------------
 BYTE   W24
 BYTE   Fs3
 BYTE   N09  Dn4
 BYTE   N09  Fs4
 BYTE   W36
 BYTE   N04  Gs3
 BYTE   N04  Dn4
 BYTE   N04  Gs4
 BYTE   W09
 BYTE   Gs3
 BYTE   N04  Dn4
 BYTE   N04  Gs4
 BYTE   W03
 BYTE   GoTo
  POIN2 Label_6_01D081BF
// 080   ----------------------------------------
 BYTE   W24
 BYTE   FINE

//**************** Track 8 (Midi-Chn.7) ****************//

FF10BattleRSflame_008:
// 000   ----------------------------------------
 BYTE   KEYSH   FF10BattleRSflame_key+0
 BYTE   VOICE   6
 BYTE   VOL   44*FF10BattleRSflame_mvl/mxv
 BYTE   PAN   c_v+0
 BYTE   W96
// 001   ----------------------------------------
 BYTE   W48
 BYTE   TIE  Cs3  v080
 BYTE   TIE  En3
 BYTE   TIE  An3  v088
 BYTE   W48
// 002   ----------------------------------------
 BYTE   W96
// 003   ----------------------------------------
 BYTE   EOT
 BYTE   Cs3  v064
 BYTE   An3
 BYTE   W96
// 004   ----------------------------------------
 BYTE   W48
 BYTE   TIE  Dn3  v080
 BYTE   TIE  Fs3
 BYTE   TIE  An3
 BYTE   W48
// 005   ----------------------------------------
 BYTE   W96
// 006   ----------------------------------------
 BYTE   EOT
 BYTE   Dn3  v066
 BYTE   An3
 BYTE   W96
// 007   ----------------------------------------
 BYTE   W96
// 008   ----------------------------------------
 BYTE   W96
// 009   ----------------------------------------
 BYTE   W96
// 010   ----------------------------------------
 BYTE   W96
// 011   ----------------------------------------
 BYTE   W96
// 012   ----------------------------------------
 BYTE   W96
// 013   ----------------------------------------
 BYTE   W96
// 014   ----------------------------------------
 BYTE   W96
// 015   ----------------------------------------
 BYTE   W96
// 016   ----------------------------------------
 BYTE   W96
// 017   ----------------------------------------
 BYTE   W96
// 018   ----------------------------------------
Label_7_01D07973:
 BYTE   W96
// 019   ----------------------------------------
 BYTE   W96
// 020   ----------------------------------------
 BYTE   W96
// 021   ----------------------------------------
 BYTE   W96
// 022   ----------------------------------------
 BYTE   W96
// 023   ----------------------------------------
 BYTE   W96
// 024   ----------------------------------------
 BYTE   W96
// 025   ----------------------------------------
 BYTE   W96
// 026   ----------------------------------------
 BYTE   W96
// 027   ----------------------------------------
 BYTE   W96
// 028   ----------------------------------------
 BYTE   W96
// 029   ----------------------------------------
 BYTE   W96
// 030   ----------------------------------------
 BYTE   W96
// 031   ----------------------------------------
 BYTE   W96
// 032   ----------------------------------------
 BYTE   W96
// 033   ----------------------------------------
 BYTE   W96
// 034   ----------------------------------------
 BYTE   W96
// 035   ----------------------------------------
 BYTE   W96
// 036   ----------------------------------------
 BYTE   N48  Bn2  v080
 BYTE   TIE  Cs3
 BYTE   TIE  En3
 BYTE   TIE  An3
 BYTE   W48
 BYTE   N96  An2
 BYTE   W48
// 037   ----------------------------------------
 BYTE   W48
 BYTE   N36  Gs2
 BYTE   W24
 BYTE   EOT
 BYTE   En3  v069
 BYTE   W12
 BYTE   Cs3
 BYTE   W12
// 038   ----------------------------------------
 BYTE   W96
// 039   ----------------------------------------
 BYTE   W96
// 040   ----------------------------------------
 BYTE   N48  An2
 BYTE   TIE  Bn2
 BYTE   TIE  En3
 BYTE   TIE  Gs3
 BYTE   W48
 BYTE   N96  Gs2
 BYTE   W48
// 041   ----------------------------------------
 BYTE   W48
 BYTE   N36  Fs2
 BYTE   W24
 BYTE   EOT
 BYTE   En3  v068
 BYTE   W12
 BYTE   Bn2
 BYTE   W12
// 042   ----------------------------------------
 BYTE   W96
// 043   ----------------------------------------
 BYTE   W96
// 044   ----------------------------------------
 BYTE   TIE  Ds2
 BYTE   TIE  As2
 BYTE   TIE  Cs3
 BYTE   TIE  Gn3
 BYTE   W96
// 045   ----------------------------------------
 BYTE   W72
 BYTE   EOT
 BYTE   Ds2  v058
 BYTE   Cs3  v067
 BYTE   W24
// 046   ----------------------------------------
 BYTE   W96
// 047   ----------------------------------------
 BYTE   W96
// 048   ----------------------------------------
 BYTE   TIE  Ds2
 BYTE   TIE  Cn3
 BYTE   TIE  Cn4
 BYTE   TIE  Ds4
 BYTE   W96
// 049   ----------------------------------------
 BYTE   W72
 BYTE   EOT
 BYTE   Ds2  v060
 BYTE   W24
// 050   ----------------------------------------
 BYTE   Cn4  v075
 BYTE   W96
// 051   ----------------------------------------
 BYTE   W96
// 052   ----------------------------------------
 BYTE   W96
// 053   ----------------------------------------
 BYTE   W96
// 054   ----------------------------------------
 BYTE   W96
// 055   ----------------------------------------
 BYTE   W96
// 056   ----------------------------------------
 BYTE   W96
// 057   ----------------------------------------
 BYTE   W96
// 058   ----------------------------------------
 BYTE   W96
// 059   ----------------------------------------
 BYTE   W96
// 060   ----------------------------------------
 BYTE   W96
// 061   ----------------------------------------
 BYTE   W96
// 062   ----------------------------------------
 BYTE   W96
// 063   ----------------------------------------
 BYTE   W96
// 064   ----------------------------------------
 BYTE   W96
// 065   ----------------------------------------
 BYTE   W96
// 066   ----------------------------------------
 BYTE   TIE  Cs4  v072
 BYTE   TIE  Cs5
 BYTE   W96
// 067   ----------------------------------------
 BYTE   W48
 BYTE   EOT
 BYTE   Cs4  v085
 BYTE   N48  Ds4
 BYTE   N48  Ds5
 BYTE   W48
// 068   ----------------------------------------
 BYTE   TIE  En4
 BYTE   TIE  En5
 BYTE   W96
// 069   ----------------------------------------
 BYTE   W48
 BYTE   EOT
 BYTE   En4  v088
 BYTE   N48  Gs4
 BYTE   N48  Gs5
 BYTE   W48
// 070   ----------------------------------------
Label_7_01D07A05:
 BYTE   TIE  Fs4  v072
 BYTE   TIE  Fs5
 BYTE   W96
 BYTE   PEND 
// 071   ----------------------------------------
 BYTE   W48
 BYTE   EOT
 BYTE   Fs4  v090
 BYTE   N48  En4
 BYTE   N48  En5
 BYTE   W48
// 072   ----------------------------------------
 BYTE   PATT
  POIN2 Label_7_01D07A05
// 073   ----------------------------------------
 BYTE   W96
// 074   ----------------------------------------
 BYTE   EOT
 BYTE   Fs4  v090
 BYTE   W96
// 075   ----------------------------------------
 BYTE   W96
// 076   ----------------------------------------
 BYTE   W96
// 077   ----------------------------------------
 BYTE   W96
// 078   ----------------------------------------
 BYTE   W96
// 079   ----------------------------------------
 BYTE   W72
 BYTE   GoTo
  POIN2 Label_7_01D07973
// 080   ----------------------------------------
 BYTE   W24
 BYTE   FINE

//**************** Track 9 (Midi-Chn.8) ****************//

FF10BattleRSflame_009:
// 000   ----------------------------------------
 BYTE   KEYSH   FF10BattleRSflame_key+0
 BYTE   VOICE   127
 BYTE   VOL   13*FF10BattleRSflame_mvl/mxv
 BYTE   PAN   c_v+56
 BYTE   N12  Bn0  v104
 BYTE   N12  Cn1
 BYTE   W12
 BYTE   Fs1  v088
 BYTE   W12
 BYTE   N12
 BYTE   W12
 BYTE   Bn0  v104
 BYTE   N12  Cn1
 BYTE   N12  As1  v108
 BYTE   W12
 BYTE   Fs1  v088
 BYTE   W12
 BYTE   N12
 BYTE   W12
 BYTE   Bn0  v104
 BYTE   N12  Cn1
 BYTE   N12  As1  v108
 BYTE   W12
 BYTE   Fs1  v088
 BYTE   W12
// 001   ----------------------------------------
Label_8_01D08413:
 BYTE   N12  Fs1  v104
 BYTE   W12
 BYTE   Fs1  v072
 BYTE   W12
 BYTE   Fs1  v088
 BYTE   W12
 BYTE   Fs1  v072
 BYTE   W12
 BYTE   Bn0  v104
 BYTE   N12  Cn1
 BYTE   N12  As1  v108
 BYTE   W12
 BYTE   Fs1  v088
 BYTE   W12
 BYTE   N12
 BYTE   W12
 BYTE   Bn0  v104
 BYTE   N12  Cn1
 BYTE   N12  As1  v108
 BYTE   W12
 BYTE   PEND 
// 002   ----------------------------------------
 BYTE   Fs1  v088
 BYTE   W12
 BYTE   N12
 BYTE   W12
 BYTE   Bn0  v104
 BYTE   N12  Cn1
 BYTE   N12  As1  v108
 BYTE   W12
 BYTE   Fs1  v088
 BYTE   W12
 BYTE   Fs1  v104
 BYTE   W12
 BYTE   Fs1  v072
 BYTE   W12
 BYTE   Fs1  v088
 BYTE   W12
 BYTE   Fs1  v072
 BYTE   W12
// 003   ----------------------------------------
 BYTE   Bn0  v104
 BYTE   N12  Cn1
 BYTE   N12  As1  v108
 BYTE   W12
 BYTE   Fs1  v088
 BYTE   W12
 BYTE   N12
 BYTE   W12
 BYTE   Bn0  v104
 BYTE   N12  Cn1
 BYTE   N12  As1  v108
 BYTE   W12
 BYTE   Fs1  v088
 BYTE   W12
 BYTE   N12
 BYTE   W12
 BYTE   Bn0  v104
 BYTE   N12  Cn1
 BYTE   N12  As1  v108
 BYTE   W12
 BYTE   Fs1  v088
 BYTE   W12
// 004   ----------------------------------------
 BYTE   PATT
  POIN2 Label_8_01D08413
// 005   ----------------------------------------
 BYTE   N12  Fs1  v088
 BYTE   W12
 BYTE   N12
 BYTE   W12
 BYTE   Bn0  v104
 BYTE   N12  Cn1
 BYTE   N12  As1  v108
 BYTE   W12
 BYTE   Fs1  v088
 BYTE   W12
 BYTE   Fs1  v104
 BYTE   W12
 BYTE   Fs1  v072
 BYTE   W12
 BYTE   N24  Dn1  v116
 BYTE   W24
// 006   ----------------------------------------
Label_8_01D08497:
 BYTE   N24  Bn0  v104
 BYTE   N24  Cn1
 BYTE   N12  Fs1
 BYTE   W12
 BYTE   Fs1  v088
 BYTE   W12
 BYTE   Bn0  v104
 BYTE   N12  Cn1
 BYTE   N12  Fs1  v072
 BYTE   W12
 BYTE   N24  Dn1  v116
 BYTE   N12  Fs1  v104
 BYTE   W12
 BYTE   Fs1  v088
 BYTE   W12
 BYTE   Bn0  v104
 BYTE   N12  Cn1
 BYTE   N12  Fs1  v072
 BYTE   W12
 BYTE   N24  Bn0  v104
 BYTE   N24  Cn1
 BYTE   N12  Fs1
 BYTE   W12
 BYTE   Fs1  v088
 BYTE   W12
 BYTE   PEND 
// 007   ----------------------------------------
Label_8_01D084C8:
 BYTE   N24  Dn1  v116
 BYTE   N12  Fs1  v104
 BYTE   W12
 BYTE   Fs1  v088
 BYTE   W12
 BYTE   N24  Bn0  v104
 BYTE   N24  Cn1
 BYTE   N12  Fs1
 BYTE   W12
 BYTE   As1  v096
 BYTE   W12
 BYTE   N24  Bn0  v104
 BYTE   N24  Cn1
 BYTE   N12  Fs1
 BYTE   W12
 BYTE   Fs1  v088
 BYTE   W12
 BYTE   Bn0  v104
 BYTE   N12  Cn1
 BYTE   N12  Fs1  v072
 BYTE   W12
 BYTE   N24  Dn1  v116
 BYTE   N12  Fs1  v104
 BYTE   W12
 BYTE   PEND 
// 008   ----------------------------------------
Label_8_01D084F8:
 BYTE   N12  Fs1  v088
 BYTE   W12
 BYTE   Bn0  v104
 BYTE   N12  Cn1
 BYTE   N12  Fs1  v072
 BYTE   W12
 BYTE   N24  Bn0  v104
 BYTE   N24  Cn1
 BYTE   N12  Fs1
 BYTE   W12
 BYTE   Fs1  v088
 BYTE   W12
 BYTE   N24  Bn0  v104
 BYTE   N24  Cn1
 BYTE   N12  Fs1
 BYTE   W12
 BYTE   As1  v096
 BYTE   W12
 BYTE   N24  Dn1  v116
 BYTE   N12  Fs1  v104
 BYTE   W12
 BYTE   As1  v096
 BYTE   W12
 BYTE   PEND 
// 009   ----------------------------------------
 BYTE   PATT
  POIN2 Label_8_01D08497
// 010   ----------------------------------------
 BYTE   PATT
  POIN2 Label_8_01D084C8
// 011   ----------------------------------------
 BYTE   PATT
  POIN2 Label_8_01D084F8
// 012   ----------------------------------------
 BYTE   N12  Bn0  v064
 BYTE   N12  Cn1
 BYTE   N12  As1  v084
 BYTE   W12
 BYTE   Fs1  v076
 BYTE   W12
 BYTE   N12
 BYTE   W12
 BYTE   Bn0  v064
 BYTE   N12  Cn1
 BYTE   N12  As1  v084
 BYTE   W12
 BYTE   Fs1  v076
 BYTE   W12
 BYTE   N12
 BYTE   W12
 BYTE   Bn0  v068
 BYTE   N12  Cn1
 BYTE   N12  As1  v088
 BYTE   W12
 BYTE   Fs1  v076
 BYTE   W12
// 013   ----------------------------------------
 BYTE   Fs1  v088
 BYTE   W12
 BYTE   Fs1  v068
 BYTE   W12
 BYTE   Fs1  v080
 BYTE   W12
 BYTE   Fs1  v068
 BYTE   W12
 BYTE   Bn0  v072
 BYTE   N12  Cn1
 BYTE   N12  As1  v088
 BYTE   W12
 BYTE   Fs1  v080
 BYTE   W12
 BYTE   N12
 BYTE   W12
 BYTE   Bn0  v072
 BYTE   N12  Cn1
 BYTE   N12  As1  v092
 BYTE   W12
// 014   ----------------------------------------
 BYTE   Fs1  v080
 BYTE   W12
 BYTE   N12
 BYTE   W12
 BYTE   Bn0  v076
 BYTE   N12  Cn1
 BYTE   N12  As1  v092
 BYTE   W12
 BYTE   Fs1  v080
 BYTE   W12
 BYTE   Fs1  v092
 BYTE   W12
 BYTE   Fs1  v072
 BYTE   W12
 BYTE   Fs1  v080
 BYTE   W12
 BYTE   Fs1  v072
 BYTE   W12
// 015   ----------------------------------------
 BYTE   Bn0  v080
 BYTE   N12  Cn1
 BYTE   N12  As1  v096
 BYTE   W12
 BYTE   Fs1  v080
 BYTE   W12
 BYTE   N12
 BYTE   W12
 BYTE   Bn0  v084
 BYTE   N12  Cn1
 BYTE   N12  As1  v096
 BYTE   W12
 BYTE   Fs1  v084
 BYTE   W12
 BYTE   N12
 BYTE   W12
 BYTE   Bn0  v088
 BYTE   N12  Cn1
 BYTE   N12  As1  v096
 BYTE   W12
 BYTE   Fs1  v084
 BYTE   W12
// 016   ----------------------------------------
 BYTE   Fs1  v096
 BYTE   W12
 BYTE   Fs1  v072
 BYTE   W12
 BYTE   Fs1  v084
 BYTE   W12
 BYTE   Fs1  v072
 BYTE   W12
 BYTE   Bn0  v096
 BYTE   N12  Cn1
 BYTE   N12  As1  v100
 BYTE   W12
 BYTE   Fs1  v084
 BYTE   W12
 BYTE   N12
 BYTE   W12
 BYTE   Bn0  v096
 BYTE   N12  Cn1
 BYTE   N12  As1  v104
 BYTE   W12
// 017   ----------------------------------------
 BYTE   Fs1  v084
 BYTE   W12
 BYTE   Fs1  v088
 BYTE   W12
 BYTE   Bn0  v100
 BYTE   N12  Cn1
 BYTE   N12  As1  v104
 BYTE   W12
 BYTE   Fs1  v088
 BYTE   W12
 BYTE   Fs1  v100
 BYTE   W12
 BYTE   Fs1  v072
 BYTE   W12
 BYTE   Fs1  v088
 BYTE   W12
 BYTE   Fs1  v072
 BYTE   W12
// 018   ----------------------------------------
Label_8_01D085FA:
 BYTE   N12  Bn0  v104
 BYTE   N12  Cn1
 BYTE   N12  Fs1
 BYTE   W12
 BYTE   Fs1  v088
 BYTE   W12
 BYTE   Fs1  v072
 BYTE   W12
 BYTE   Bn0  v104
 BYTE   N12  Cn1
 BYTE   N12  Dn1  v116
 BYTE   N12  Fs1  v104
 BYTE   W12
 BYTE   Fs1  v088
 BYTE   W12
 BYTE   Fs1  v072
 BYTE   W12
 BYTE   Bn0  v104
 BYTE   N12  Cn1
 BYTE   N12  Fs1
 BYTE   W12
 BYTE   Fs1  v088
 BYTE   W12
 BYTE   PEND 
// 019   ----------------------------------------
Label_8_01D08624:
 BYTE   N12  Fs1  v072
 BYTE   W12
 BYTE   Bn0  v104
 BYTE   N12  Cn1
 BYTE   N12  Dn1  v116
 BYTE   N12  Fs1  v104
 BYTE   W12
 BYTE   Fs1  v088
 BYTE   W12
 BYTE   Fs1  v104
 BYTE   W12
 BYTE   Bn0
 BYTE   N12  Cn1
 BYTE   N12  Fs1  v088
 BYTE   W12
 BYTE   Fs1  v104
 BYTE   W12
 BYTE   Dn1  v116
 BYTE   N12  As1  v104
 BYTE   W24
 BYTE   PEND 
// 020   ----------------------------------------
 BYTE   PATT
  POIN2 Label_8_01D085FA
// 021   ----------------------------------------
Label_8_01D0864F:
 BYTE   N12  Fs1  v072
 BYTE   W12
 BYTE   Bn0  v104
 BYTE   N12  Cn1
 BYTE   N12  Dn1  v116
 BYTE   N12  Fs1  v104
 BYTE   W12
 BYTE   Fs1  v088
 BYTE   W12
 BYTE   Fs1  v104
 BYTE   W12
 BYTE   Bn0
 BYTE   N12  Cn1
 BYTE   N12  Fs1  v088
 BYTE   W12
 BYTE   Fs1  v104
 BYTE   W12
 BYTE   Dn1  v116
 BYTE   N12  As1  v104
 BYTE   W12
 BYTE   Bn0
 BYTE   N12  Cn1
 BYTE   W12
 BYTE   PEND 
// 022   ----------------------------------------
 BYTE   PATT
  POIN2 Label_8_01D085FA
// 023   ----------------------------------------
 BYTE   PATT
  POIN2 Label_8_01D08624
// 024   ----------------------------------------
 BYTE   PATT
  POIN2 Label_8_01D085FA
// 025   ----------------------------------------
 BYTE   PATT
  POIN2 Label_8_01D0864F
// 026   ----------------------------------------
 BYTE   PATT
  POIN2 Label_8_01D085FA
// 027   ----------------------------------------
 BYTE   PATT
  POIN2 Label_8_01D08624
// 028   ----------------------------------------
 BYTE   PATT
  POIN2 Label_8_01D085FA
// 029   ----------------------------------------
 BYTE   PATT
  POIN2 Label_8_01D0864F
// 030   ----------------------------------------
 BYTE   PATT
  POIN2 Label_8_01D085FA
// 031   ----------------------------------------
 BYTE   PATT
  POIN2 Label_8_01D08624
// 032   ----------------------------------------
 BYTE   PATT
  POIN2 Label_8_01D085FA
// 033   ----------------------------------------
 BYTE   N12  Bn0  v104
 BYTE   N12  Cn1
 BYTE   N12  Fs1  v072
 BYTE   W12
 BYTE   Fs1  v104
 BYTE   W12
 BYTE   Dn1  v116
 BYTE   N12  Fs1  v088
 BYTE   W12
 BYTE   Bn0  v104
 BYTE   N12  Cn1
 BYTE   N12  Fs1
 BYTE   W12
 BYTE   Fs1  v088
 BYTE   W12
 BYTE   Fs1  v104
 BYTE   W12
 BYTE   Dn1  v116
 BYTE   N12  As1  v104
 BYTE   W12
 BYTE   Bn0
 BYTE   N12  Cn1
 BYTE   W12
// 034   ----------------------------------------
Label_8_01D086D9:
 BYTE   N12  Bn0  v104
 BYTE   N12  Cn1
 BYTE   N12  Fs1
 BYTE   W12
 BYTE   Fs1  v088
 BYTE   W12
 BYTE   Dn1  v116
 BYTE   N12  Fs1  v072
 BYTE   W12
 BYTE   Fs1  v104
 BYTE   W12
 BYTE   Bn0
 BYTE   N12  Cn1
 BYTE   N12  Fs1  v088
 BYTE   W12
 BYTE   Bn0  v104
 BYTE   N12  Cn1
 BYTE   N12  Fs1  v072
 BYTE   W12
 BYTE   Dn1  v116
 BYTE   N12  Fs1  v104
 BYTE   W12
 BYTE   Fs1  v088
 BYTE   W12
 BYTE   PEND 
// 035   ----------------------------------------
Label_8_01D08706:
 BYTE   N12  Bn0  v104
 BYTE   N12  Cn1
 BYTE   N12  Fs1  v072
 BYTE   W12
 BYTE   Bn0  v104
 BYTE   N12  Cn1
 BYTE   N12  Fs1
 BYTE   W12
 BYTE   Dn1  v116
 BYTE   N12  Fs1  v088
 BYTE   W12
 BYTE   Bn0  v104
 BYTE   N12  Cn1
 BYTE   N12  Fs1
 BYTE   W12
 BYTE   Fs1  v088
 BYTE   W12
 BYTE   Bn0  v104
 BYTE   N12  Cn1
 BYTE   N12  Fs1
 BYTE   W12
 BYTE   Dn1  v116
 BYTE   N12  As1  v104
 BYTE   W24
 BYTE   PEND 
// 036   ----------------------------------------
 BYTE   PATT
  POIN2 Label_8_01D086D9
// 037   ----------------------------------------
Label_8_01D08739:
 BYTE   N12  Bn0  v104
 BYTE   N12  Cn1
 BYTE   N12  Fs1  v072
 BYTE   W12
 BYTE   Bn0  v104
 BYTE   N12  Cn1
 BYTE   N12  Fs1
 BYTE   W12
 BYTE   Dn1  v116
 BYTE   N12  Fs1  v088
 BYTE   W12
 BYTE   Bn0  v104
 BYTE   N12  Cn1
 BYTE   N12  Fs1
 BYTE   W12
 BYTE   Fs1  v088
 BYTE   W12
 BYTE   Bn0  v104
 BYTE   N12  Cn1
 BYTE   N12  Fs1
 BYTE   W12
 BYTE   Dn1  v116
 BYTE   N12  As1  v104
 BYTE   W12
 BYTE   Bn0
 BYTE   N12  Cn1
 BYTE   W12
 BYTE   PEND 
// 038   ----------------------------------------
 BYTE   PATT
  POIN2 Label_8_01D086D9
// 039   ----------------------------------------
 BYTE   PATT
  POIN2 Label_8_01D08706
// 040   ----------------------------------------
 BYTE   PATT
  POIN2 Label_8_01D086D9
// 041   ----------------------------------------
 BYTE   PATT
  POIN2 Label_8_01D08739
// 042   ----------------------------------------
 BYTE   PATT
  POIN2 Label_8_01D086D9
// 043   ----------------------------------------
 BYTE   PATT
  POIN2 Label_8_01D08706
// 044   ----------------------------------------
 BYTE   PATT
  POIN2 Label_8_01D086D9
// 045   ----------------------------------------
 BYTE   PATT
  POIN2 Label_8_01D08739
// 046   ----------------------------------------
 BYTE   PATT
  POIN2 Label_8_01D086D9
// 047   ----------------------------------------
 BYTE   PATT
  POIN2 Label_8_01D08706
// 048   ----------------------------------------
 BYTE   PATT
  POIN2 Label_8_01D086D9
// 049   ----------------------------------------
 BYTE   PATT
  POIN2 Label_8_01D08739
// 050   ----------------------------------------
 BYTE   N12  Bn0  v104
 BYTE   N12  Cn1
 BYTE   W96
// 051   ----------------------------------------
Label_8_01D087AD:
 BYTE   W60
 BYTE   N12  Bn0  v104
 BYTE   N12  Cn1
 BYTE   W12
 BYTE   Dn1  v116
 BYTE   W24
 BYTE   PEND 
// 052   ----------------------------------------
Label_8_01D087B8:
 BYTE   N36  Bn0  v104
 BYTE   N36  Cn1
 BYTE   W36
 BYTE   N12  Bn0
 BYTE   N12  Cn1
 BYTE   W12
 BYTE   N36  Dn1  v116
 BYTE   W36
 BYTE   N12  Bn0  v104
 BYTE   N12  Cn1
 BYTE   W12
 BYTE   PEND 
// 053   ----------------------------------------
Label_8_01D087CE:
 BYTE   N36  Bn0  v104
 BYTE   N36  Cn1
 BYTE   W36
 BYTE   N12  Bn0
 BYTE   N12  Cn1
 BYTE   W12
 BYTE   Dn1  v116
 BYTE   W12
 BYTE   N24  Bn0  v104
 BYTE   N24  Cn1
 BYTE   W24
 BYTE   N12  Bn0
 BYTE   N12  Cn1
 BYTE   W12
 BYTE   PEND 
// 054   ----------------------------------------
Label_8_01D087E8:
 BYTE   W12
 BYTE   N24  Bn0  v104
 BYTE   N24  Cn1
 BYTE   W24
 BYTE   N12  Bn0
 BYTE   N12  Cn1
 BYTE   W12
 BYTE   N48  Dn1  v116
 BYTE   W48
 BYTE   PEND 
// 055   ----------------------------------------
 BYTE   PATT
  POIN2 Label_8_01D087CE
// 056   ----------------------------------------
 BYTE   N12  Bn0  v104
 BYTE   N12  Cn1
 BYTE   W96
// 057   ----------------------------------------
 BYTE   PATT
  POIN2 Label_8_01D087AD
// 058   ----------------------------------------
 BYTE   PATT
  POIN2 Label_8_01D087B8
// 059   ----------------------------------------
 BYTE   PATT
  POIN2 Label_8_01D087CE
// 060   ----------------------------------------
 BYTE   PATT
  POIN2 Label_8_01D087E8
// 061   ----------------------------------------
 BYTE   PATT
  POIN2 Label_8_01D087CE
// 062   ----------------------------------------
Label_8_01D0881D:
 BYTE   N24  Bn0  v104
 BYTE   N24  Cn1
 BYTE   N12  As1  v108
 BYTE   W12
 BYTE   Fs1  v104
 BYTE   W12
 BYTE   Dn1  v116
 BYTE   W12
 BYTE   N24  Bn0  v104
 BYTE   N24  Cn1
 BYTE   N12  Fs1
 BYTE   W24
 BYTE   Bn0
 BYTE   N12  Cn1
 BYTE   N12  Fs1
 BYTE   W12
 BYTE   N24  Dn1  v116
 BYTE   N12  Fs1  v104
 BYTE   W12
 BYTE   N12
 BYTE   W12
 BYTE   PEND 
// 063   ----------------------------------------
Label_8_01D08844:
 BYTE   N12  As1  v108
 BYTE   W12
 BYTE   Bn0  v104
 BYTE   N12  Cn1
 BYTE   N12  Fs1
 BYTE   W12
 BYTE   Dn1  v116
 BYTE   W12
 BYTE   Bn0  v104
 BYTE   N12  Cn1
 BYTE   N12  Fs1
 BYTE   W12
 BYTE   Bn0
 BYTE   N12  Cn1
 BYTE   N12  As1  v108
 BYTE   W12
 BYTE   Fs1  v104
 BYTE   W12
 BYTE   Dn1  v116
 BYTE   W12
 BYTE   Bn0  v104
 BYTE   N12  Cn1
 BYTE   N12  Fs1
 BYTE   W12
 BYTE   PEND 
// 064   ----------------------------------------
 BYTE   PATT
  POIN2 Label_8_01D0881D
// 065   ----------------------------------------
 BYTE   PATT
  POIN2 Label_8_01D08844
// 066   ----------------------------------------
 BYTE   N24  Bn0  v104
 BYTE   N24  Cn1
 BYTE   W96
// 067   ----------------------------------------
 BYTE   W48
 BYTE   N08  Fn1  v080
 BYTE   W08
 BYTE   Fn1  v088
 BYTE   W08
 BYTE   Fn1  v096
 BYTE   W08
 BYTE   Fn1  v104
 BYTE   W08
 BYTE   Fn1  v108
 BYTE   W08
 BYTE   Fn1  v116
 BYTE   W08
// 068   ----------------------------------------
 BYTE   N24  Bn0  v104
 BYTE   N24  Cn1
 BYTE   W96
// 069   ----------------------------------------
 BYTE   W96
// 070   ----------------------------------------
 BYTE   Bn0
 BYTE   N24  Cn1
 BYTE   W96
// 071   ----------------------------------------
 BYTE   W48
 BYTE   N08  An1  v080
 BYTE   W08
 BYTE   An1  v088
 BYTE   W08
 BYTE   An1  v096
 BYTE   W08
 BYTE   An1  v104
 BYTE   W08
 BYTE   An1  v108
 BYTE   W08
 BYTE   An1  v116
 BYTE   W08
// 072   ----------------------------------------
 BYTE   N24  Bn0  v104
 BYTE   N24  Cn1
 BYTE   W92
 BYTE   W02
 BYTE   N02  An1
 BYTE   W02
// 073   ----------------------------------------
 BYTE   N12  Fn1  v116
 BYTE   W12
 BYTE   Bn0  v104
 BYTE   N12  Cn1
 BYTE   W24
 BYTE   Bn0
 BYTE   N12  Cn1
 BYTE   W10
 BYTE   N02  An1
 BYTE   W02
 BYTE   N12  Fn1  v116
 BYTE   W12
 BYTE   Bn0  v104
 BYTE   N12  Cn1
 BYTE   W12
 BYTE   Dn1  v116
 BYTE   W12
 BYTE   Bn0  v104
 BYTE   N12  Cn1
 BYTE   W12
// 074   ----------------------------------------
Label_8_01D088DC:
 BYTE   N12  Bn0  v088
 BYTE   N12  Cn1
 BYTE   N12  As1  v104
 BYTE   W12
 BYTE   Fs1  v080
 BYTE   W12
 BYTE   N12
 BYTE   W12
 BYTE   Bn0  v088
 BYTE   N12  Cn1
 BYTE   N12  As1  v104
 BYTE   W12
 BYTE   Fs1  v080
 BYTE   W12
 BYTE   N12
 BYTE   W12
 BYTE   Bn0  v088
 BYTE   N12  Cn1
 BYTE   N12  As1  v104
 BYTE   W12
 BYTE   Fs1  v080
 BYTE   W12
 BYTE   PEND 
// 075   ----------------------------------------
Label_8_01D08903:
 BYTE   N12  Fs1  v096
 BYTE   W12
 BYTE   Fs1  v064
 BYTE   W12
 BYTE   Fs1  v080
 BYTE   W12
 BYTE   Fs1  v064
 BYTE   W12
 BYTE   Bn0  v088
 BYTE   N12  Cn1
 BYTE   N12  As1  v104
 BYTE   W12
 BYTE   Fs1  v080
 BYTE   W12
 BYTE   N12
 BYTE   W12
 BYTE   Bn0  v088
 BYTE   N12  Cn1
 BYTE   N12  As1  v104
 BYTE   W12
 BYTE   PEND 
// 076   ----------------------------------------
 BYTE   Fs1  v080
 BYTE   W12
 BYTE   N12
 BYTE   W12
 BYTE   Bn0  v088
 BYTE   N12  Cn1
 BYTE   N12  As1  v104
 BYTE   W12
 BYTE   Fs1  v080
 BYTE   W12
 BYTE   Fs1  v096
 BYTE   W12
 BYTE   Fs1  v064
 BYTE   W12
 BYTE   Fs1  v080
 BYTE   W12
 BYTE   Fs1  v064
 BYTE   W12
// 077   ----------------------------------------
 BYTE   PATT
  POIN2 Label_8_01D088DC
// 078   ----------------------------------------
 BYTE   PATT
  POIN2 Label_8_01D08903
// 079   ----------------------------------------
 BYTE   N12  Fs1  v080
 BYTE   W12
 BYTE   N12
 BYTE   W12
 BYTE   Bn0  v088
 BYTE   N12  Cn1
 BYTE   N12  As1  v104
 BYTE   W12
 BYTE   Fs1  v080
 BYTE   W12
 BYTE   Fs1  v096
 BYTE   W12
 BYTE   Fs1  v064
 BYTE   W12
 BYTE   GoTo
  POIN2 Label_8_01D085FA
// 080   ----------------------------------------
 BYTE   N12  Fs1  v080
 BYTE   W12
 BYTE   Fs1  v064
 BYTE   W12
 BYTE   FINE

//**************** Track 10 (Midi-Chn.9) ****************//

FF10BattleRSflame_010:
// 000   ----------------------------------------
 BYTE   KEYSH   FF10BattleRSflame_key+0
 BYTE   VOICE   40
 BYTE   VOL   41*FF10BattleRSflame_mvl/mxv
 BYTE   PAN   c_v+0
 BYTE   W96
// 001   ----------------------------------------
 BYTE   W96
// 002   ----------------------------------------
 BYTE   W96
// 003   ----------------------------------------
 BYTE   W96
// 004   ----------------------------------------
 BYTE   W96
// 005   ----------------------------------------
 BYTE   W96
// 006   ----------------------------------------
 BYTE   W96
// 007   ----------------------------------------
 BYTE   W96
// 008   ----------------------------------------
 BYTE   W96
// 009   ----------------------------------------
 BYTE   W96
// 010   ----------------------------------------
 BYTE   W96
// 011   ----------------------------------------
 BYTE   W96
// 012   ----------------------------------------
 BYTE   W96
// 013   ----------------------------------------
 BYTE   W96
// 014   ----------------------------------------
 BYTE   W96
// 015   ----------------------------------------
 BYTE   W96
// 016   ----------------------------------------
 BYTE   W96
// 017   ----------------------------------------
 BYTE   W96
// 018   ----------------------------------------
Label_9_01D0898A:
 BYTE   W96
// 019   ----------------------------------------
 BYTE   W96
// 020   ----------------------------------------
 BYTE   W96
// 021   ----------------------------------------
 BYTE   W96
// 022   ----------------------------------------
 BYTE   W96
// 023   ----------------------------------------
 BYTE   W96
// 024   ----------------------------------------
 BYTE   W96
// 025   ----------------------------------------
 BYTE   W96
// 026   ----------------------------------------
 BYTE   W96
// 027   ----------------------------------------
 BYTE   W96
// 028   ----------------------------------------
 BYTE   W96
// 029   ----------------------------------------
 BYTE   W96
// 030   ----------------------------------------
 BYTE   W96
// 031   ----------------------------------------
 BYTE   W96
// 032   ----------------------------------------
 BYTE   W96
// 033   ----------------------------------------
 BYTE   W96
// 034   ----------------------------------------
 BYTE   TIE  Cs4  v088
 BYTE   TIE  Gs4
 BYTE   W96
// 035   ----------------------------------------
 BYTE   W96
// 036   ----------------------------------------
 BYTE   EOT
 BYTE   Cs4  v080
 BYTE   TIE  Cs4
 BYTE   TIE  An4
 BYTE   W96
// 037   ----------------------------------------
 BYTE   W96
// 038   ----------------------------------------
 BYTE   EOT
 BYTE   Cs4  v081
 BYTE   TIE  Fs4
 BYTE   TIE  Bn4
 BYTE   W96
// 039   ----------------------------------------
 BYTE   W96
// 040   ----------------------------------------
 BYTE   EOT
 BYTE   Fs4  v083
 BYTE   TIE  En4
 BYTE   TIE  Bn4
 BYTE   W96
// 041   ----------------------------------------
 BYTE   W96
// 042   ----------------------------------------
 BYTE   EOT
 BYTE   En4  v083
 BYTE   TIE  En4
 BYTE   TIE  An4
 BYTE   W96
// 043   ----------------------------------------
 BYTE   W96
// 044   ----------------------------------------
 BYTE   EOT
 BYTE   En4  v081
 BYTE   TIE  Ds4
 BYTE   TIE  As4
 BYTE   W96
// 045   ----------------------------------------
 BYTE   W96
// 046   ----------------------------------------
 BYTE   EOT
 BYTE   Ds4  v082
 BYTE   TIE  En4
 BYTE   TIE  As4
 BYTE   W96
// 047   ----------------------------------------
 BYTE   W96
// 048   ----------------------------------------
 BYTE   EOT
 BYTE   En4  v082
 BYTE   TIE  Ds4
 BYTE   TIE  Gs4
 BYTE   W96
// 049   ----------------------------------------
 BYTE   W96
// 050   ----------------------------------------
 BYTE   EOT
 BYTE   Ds4  v080
 BYTE   W96
// 051   ----------------------------------------
 BYTE   W96
// 052   ----------------------------------------
 BYTE   W96
// 053   ----------------------------------------
 BYTE   W96
// 054   ----------------------------------------
 BYTE   W96
// 055   ----------------------------------------
 BYTE   W96
// 056   ----------------------------------------
 BYTE   W96
// 057   ----------------------------------------
 BYTE   W96
// 058   ----------------------------------------
 BYTE   W96
// 059   ----------------------------------------
 BYTE   W96
// 060   ----------------------------------------
 BYTE   W96
// 061   ----------------------------------------
 BYTE   W96
// 062   ----------------------------------------
 BYTE   TIE  Cs4
 BYTE   TIE  En4
 BYTE   TIE  An4
 BYTE   W96
// 063   ----------------------------------------
 BYTE   W96
// 064   ----------------------------------------
 BYTE   EOT
 BYTE   Cs4  v076
 BYTE   An4
 BYTE   TIE  Ds4
 BYTE   TIE  Fs4
 BYTE   TIE  Bn4
 BYTE   W96
// 065   ----------------------------------------
 BYTE   W96
// 066   ----------------------------------------
 BYTE   EOT
 BYTE   Ds4  v078
 BYTE   Bn4
 BYTE   TIE  En4
 BYTE   TIE  Gs4
 BYTE   TIE  Cs5
 BYTE   W96
// 067   ----------------------------------------
 BYTE   W48
 BYTE   EOT
 BYTE   En4  v080
 BYTE   Cs5
 BYTE   N48  Fs4
 BYTE   N48  Bn4
 BYTE   N48  Ds5
 BYTE   W48
// 068   ----------------------------------------
 BYTE   TIE  An4
 BYTE   TIE  Cs5
 BYTE   TIE  En5
 BYTE   W96
// 069   ----------------------------------------
 BYTE   W48
 BYTE   EOT
 BYTE   An4  v085
 BYTE   En5
 BYTE   N48  Bn4
 BYTE   N48  Ds5
 BYTE   N48  Gs5
 BYTE   W48
// 070   ----------------------------------------
 BYTE   TIE  An4
 BYTE   TIE  Cs5
 BYTE   TIE  Fs5
 BYTE   W96
// 071   ----------------------------------------
 BYTE   W48
 BYTE   EOT
 BYTE   An4  v085
 BYTE   Fs5
 BYTE   N48  An4
 BYTE   N48  Cs5
 BYTE   N48  En5
 BYTE   W48
// 072   ----------------------------------------
 BYTE   TIE  Fs4
 BYTE   TIE  An4
 BYTE   TIE  Dn5
 BYTE   W96
// 073   ----------------------------------------
 BYTE   W96
// 074   ----------------------------------------
 BYTE   EOT
 BYTE   Fs4  v081
 BYTE   Dn5
Label_9_01D08A4C:
 BYTE   N09  En4  v088
 BYTE   N09  Gs4
 BYTE   N09  Ds5
 BYTE   W36
 BYTE   En4
 BYTE   N09  Gs4
 BYTE   N09  Ds5
 BYTE   W36
 BYTE   En4
 BYTE   N09  Gs4
 BYTE   N09  Ds5
 BYTE   W24
 BYTE   PEND 
// 075   ----------------------------------------
 BYTE   W12
 BYTE   N04  En4
 BYTE   N04  Gs4
 BYTE   N04  Cs5
 BYTE   W09
 BYTE   En4
 BYTE   N04  Gs4
 BYTE   N04  Cs5
 BYTE   W24
 BYTE   W03
 BYTE   N09  En4
 BYTE   N09  Gs4
 BYTE   N09  Cn5
 BYTE   W36
 BYTE   En4
 BYTE   N09  Gs4
 BYTE   N09  Cn5
 BYTE   W12
// 076   ----------------------------------------
 BYTE   W24
 BYTE   En4
 BYTE   N09  Gs4
 BYTE   N09  Cn5
 BYTE   W36
 BYTE   N04  En4
 BYTE   N04  Gs4
 BYTE   N04  Cs5
 BYTE   W09
 BYTE   En4
 BYTE   N04  Gs4
 BYTE   N04  Cs5
 BYTE   W24
 BYTE   W03
// 077   ----------------------------------------
 BYTE   PATT
  POIN2 Label_9_01D08A4C
// 078   ----------------------------------------
 BYTE   W12
 BYTE   N04  En4  v088
 BYTE   N04  Gs4
 BYTE   N04  En5
 BYTE   W09
 BYTE   En4
 BYTE   N04  Gs4
 BYTE   N04  En5
 BYTE   W24
 BYTE   W03
 BYTE   N09  Fs4
 BYTE   N09  Dn5
 BYTE   N09  Fs5
 BYTE   W36
 BYTE   Fs4
 BYTE   N09  Dn5
 BYTE   N09  Fs5
 BYTE   W12
// 079   ----------------------------------------
 BYTE   W24
 BYTE   Fs4
 BYTE   N09  Dn5
 BYTE   N09  Fs5
 BYTE   W36
 BYTE   N04  Gs4
 BYTE   N04  Dn5
 BYTE   N04  Gs5
 BYTE   W09
 BYTE   Gs4
 BYTE   N04  Dn5
 BYTE   N04  Gs5
 BYTE   W03
 BYTE   GoTo
  POIN2 Label_9_01D0898A
// 080   ----------------------------------------
 BYTE   W24
 BYTE   FINE

//**************** Track 11 (Midi-Chn.10) ****************//

FF10BattleRSflame_011:
// 000   ----------------------------------------
 BYTE   KEYSH   FF10BattleRSflame_key+0
 BYTE   VOICE   33
 BYTE   VOL   44*FF10BattleRSflame_mvl/mxv
 BYTE   PAN   c_v+0
 BYTE   N12  Cs2  v096
 BYTE   W36
 BYTE   N12
 BYTE   W36
 BYTE   N12
 BYTE   W24
// 001   ----------------------------------------
 BYTE   W48
 BYTE   An1
 BYTE   W36
 BYTE   N12
 BYTE   W12
// 002   ----------------------------------------
 BYTE   W24
 BYTE   N12
 BYTE   W72
// 003   ----------------------------------------
Label_10_01D08AE8:
 BYTE   N12  Fs2  v096
 BYTE   W36
 BYTE   N12
 BYTE   W36
 BYTE   N12
 BYTE   W24
 BYTE   PEND 
// 004   ----------------------------------------
Label_10_01D08AF1:
 BYTE   W48
 BYTE   N12  Dn2  v096
 BYTE   W36
 BYTE   N12
 BYTE   W12
 BYTE   PEND 
// 005   ----------------------------------------
 BYTE   W24
 BYTE   N12
 BYTE   W72
// 006   ----------------------------------------
Label_10_01D08AFC:
 BYTE   N24  Cs2  v088
 BYTE   W24
 BYTE   N12  Gs2
 BYTE   W12
 BYTE   N24  Cs3
 BYTE   W24
 BYTE   N12  Gs2
 BYTE   W12
 BYTE   N24  An2
 BYTE   W24
 BYTE   PEND 
// 007   ----------------------------------------
Label_10_01D08B0D:
 BYTE   N24  Cs3  v088
 BYTE   W24
 BYTE   En3
 BYTE   W24
 BYTE   Cs2
 BYTE   W24
 BYTE   N12  Gs2
 BYTE   W12
 BYTE   N24  Cs3
 BYTE   W12
 BYTE   PEND 
// 008   ----------------------------------------
Label_10_01D08B1C:
 BYTE   W12
 BYTE   N12  Gs2  v088
 BYTE   W12
 BYTE   N24  An2
 BYTE   W24
 BYTE   Dn3
 BYTE   W24
 BYTE   Fs3
 BYTE   W24
 BYTE   PEND 
// 009   ----------------------------------------
 BYTE   PATT
  POIN2 Label_10_01D08AFC
// 010   ----------------------------------------
 BYTE   PATT
  POIN2 Label_10_01D08B0D
// 011   ----------------------------------------
 BYTE   PATT
  POIN2 Label_10_01D08B1C
// 012   ----------------------------------------
 BYTE   N12  Cs2  v064
 BYTE   W36
 BYTE   N12
 BYTE   W36
 BYTE   Cs2  v068
 BYTE   W24
// 013   ----------------------------------------
 BYTE   W48
 BYTE   Cs2  v072
 BYTE   W36
 BYTE   Cs2  v076
 BYTE   W12
// 014   ----------------------------------------
 BYTE   W24
 BYTE   Cs2  v080
 BYTE   W72
// 015   ----------------------------------------
 BYTE   Cs2  v084
 BYTE   W36
 BYTE   Cs2  v088
 BYTE   W36
 BYTE   Cs2  v092
 BYTE   W24
// 016   ----------------------------------------
 BYTE   W48
 BYTE   Dn2  v100
 BYTE   W36
 BYTE   Dn2  v104
 BYTE   W12
// 017   ----------------------------------------
 BYTE   W24
 BYTE   Dn2  v108
 BYTE   W72
// 018   ----------------------------------------
Label_10_01D08B60:
 BYTE   N12  Cs2  v096
 BYTE   W36
 BYTE   N12
 BYTE   W36
 BYTE   N12
 BYTE   W24
 BYTE   PEND 
// 019   ----------------------------------------
Label_10_01D08B69:
 BYTE   W12
 BYTE   N12  Cs2  v096
 BYTE   W36
 BYTE   N12
 BYTE   W12
 BYTE   Ds2
 BYTE   W12
 BYTE   N24  En2
 BYTE   W24
 BYTE   PEND 
// 020   ----------------------------------------
 BYTE   PATT
  POIN2 Label_10_01D08B60
// 021   ----------------------------------------
 BYTE   PATT
  POIN2 Label_10_01D08B69
// 022   ----------------------------------------
 BYTE   N12  Bn1  v096
 BYTE   W36
 BYTE   N12
 BYTE   W36
 BYTE   N12
 BYTE   W24
// 023   ----------------------------------------
 BYTE   W12
 BYTE   N12
 BYTE   W36
 BYTE   N12
 BYTE   W12
 BYTE   Cs2
 BYTE   W12
 BYTE   N24  Ds2
 BYTE   W24
// 024   ----------------------------------------
 BYTE   N12  En2
 BYTE   W36
 BYTE   N12
 BYTE   W36
 BYTE   N12
 BYTE   W24
// 025   ----------------------------------------
 BYTE   W12
 BYTE   N12
 BYTE   W36
 BYTE   N24
 BYTE   W24
 BYTE   Ds2
 BYTE   W24
// 026   ----------------------------------------
 BYTE   N12  An1
 BYTE   W36
 BYTE   N12
 BYTE   W36
 BYTE   N12
 BYTE   W24
// 027   ----------------------------------------
 BYTE   W12
 BYTE   N12
 BYTE   W36
 BYTE   N12
 BYTE   W12
 BYTE   Bn1
 BYTE   W12
 BYTE   N24  Cs2
 BYTE   W24
// 028   ----------------------------------------
 BYTE   PATT
  POIN2 Label_10_01D08AE8
// 029   ----------------------------------------
 BYTE   W12
 BYTE   N12  Fs2  v096
 BYTE   W36
 BYTE   N24
 BYTE   W24
 BYTE   En2
 BYTE   W24
// 030   ----------------------------------------
 BYTE   N12  Ds2
 BYTE   W36
 BYTE   N12
 BYTE   W36
 BYTE   N12
 BYTE   W24
// 031   ----------------------------------------
 BYTE   W12
 BYTE   N12
 BYTE   W36
 BYTE   N12
 BYTE   W12
 BYTE   Fn2
 BYTE   W12
 BYTE   Gn2
 BYTE   W12
 BYTE   Cs2
 BYTE   W12
// 032   ----------------------------------------
 BYTE   Cn2
 BYTE   W36
 BYTE   N12
 BYTE   W36
 BYTE   N12
 BYTE   W24
// 033   ----------------------------------------
 BYTE   Gs1
 BYTE   W36
 BYTE   N12
 BYTE   W36
 BYTE   N12
 BYTE   W24
// 034   ----------------------------------------
 BYTE   N36  Cs2
 BYTE   W36
 BYTE   N12  En2
 BYTE   W24
 BYTE   Gs2
 BYTE   W12
 BYTE   N36  Cs3
 BYTE   W24
// 035   ----------------------------------------
 BYTE   W12
 BYTE   N24  Fs2
 BYTE   W24
 BYTE   N12  Gs2
 BYTE   W12
 BYTE   N24  Cs3
 BYTE   W24
 BYTE   Bn2
 BYTE   W24
// 036   ----------------------------------------
 BYTE   N36  An2
 BYTE   W36
 BYTE   An1
 BYTE   W36
 BYTE   Bn1
 BYTE   W24
// 037   ----------------------------------------
 BYTE   W12
 BYTE   Cs2
 BYTE   W36
 BYTE   N24  Ds2
 BYTE   W24
 BYTE   En2
 BYTE   W24
// 038   ----------------------------------------
 BYTE   N36  Bn1
 BYTE   W36
 BYTE   N12  Ds2
 BYTE   W24
 BYTE   Fs2
 BYTE   W12
 BYTE   N36  Bn2
 BYTE   W24
// 039   ----------------------------------------
 BYTE   W12
 BYTE   N24  En2
 BYTE   W24
 BYTE   N12  Fs2
 BYTE   W12
 BYTE   N24  Bn2
 BYTE   W24
 BYTE   An2
 BYTE   W24
// 040   ----------------------------------------
 BYTE   N36  En2
 BYTE   W36
 BYTE   En3
 BYTE   W36
 BYTE   N24  Ds3
 BYTE   W24
// 041   ----------------------------------------
 BYTE   Cs3
 BYTE   W24
 BYTE   Bn2
 BYTE   W24
 BYTE   An2
 BYTE   W24
 BYTE   Gs2
 BYTE   W24
// 042   ----------------------------------------
 BYTE   N36  An2
 BYTE   W36
 BYTE   N12  Cs2
 BYTE   W24
 BYTE   En2
 BYTE   W12
 BYTE   N36  An2
 BYTE   W24
// 043   ----------------------------------------
 BYTE   W12
 BYTE   N24  Cs2
 BYTE   W24
 BYTE   N12  En2
 BYTE   W12
 BYTE   N24  An2
 BYTE   W24
 BYTE   Gs2
 BYTE   W24
// 044   ----------------------------------------
 BYTE   N36  Gn2
 BYTE   W36
 BYTE   Cs2
 BYTE   W36
 BYTE   Ds2
 BYTE   W24
// 045   ----------------------------------------
 BYTE   W12
 BYTE   As1
 BYTE   W36
 BYTE   N24  Gn1
 BYTE   W24
 BYTE   Cs2
 BYTE   W24
// 046   ----------------------------------------
 BYTE   N36  En2
 BYTE   W36
 BYTE   Fs2
 BYTE   W36
 BYTE   Gn2
 BYTE   W24
// 047   ----------------------------------------
 BYTE   W12
 BYTE   Gs2
 BYTE   W36
 BYTE   N24  As2
 BYTE   W24
 BYTE   Gn2
 BYTE   W24
// 048   ----------------------------------------
 BYTE   N36  Gs2
 BYTE   W36
 BYTE   As2
 BYTE   W36
 BYTE   Cn3
 BYTE   W24
// 049   ----------------------------------------
 BYTE   W12
 BYTE   Cs3
 BYTE   W36
 BYTE   N24  Ds3
 BYTE   W24
 BYTE   Gs2
 BYTE   W24
// 050   ----------------------------------------
 BYTE   TIE  Cs2
 BYTE   W96
// 051   ----------------------------------------
 BYTE   W48
 BYTE   EOT
 BYTE   N24  Cs3
 BYTE   W24
 BYTE   Bn2
 BYTE   W24
// 052   ----------------------------------------
 BYTE   N36  An2
 BYTE   W36
 BYTE   En2
 BYTE   W36
 BYTE   Cs3
 BYTE   W24
// 053   ----------------------------------------
Label_10_01D08C7F:
 BYTE   W12
 BYTE   N36  Fn2  v096
 BYTE   W36
 BYTE   N24  An2
 BYTE   W24
 BYTE   Cs3
 BYTE   W24
 BYTE   PEND 
// 054   ----------------------------------------
 BYTE   N36  An2
 BYTE   W36
 BYTE   Fs2
 BYTE   W36
 BYTE   Cs3
 BYTE   W24
// 055   ----------------------------------------
 BYTE   PATT
  POIN2 Label_10_01D08C7F
// 056   ----------------------------------------
 BYTE   TIE  Bn1  v096
 BYTE   W96
// 057   ----------------------------------------
 BYTE   W48
 BYTE   EOT
 BYTE   N24  Bn2
 BYTE   W24
 BYTE   An2
 BYTE   W24
// 058   ----------------------------------------
 BYTE   N36  Gs2
 BYTE   W36
 BYTE   En2
 BYTE   W36
 BYTE   Bn2
 BYTE   W24
// 059   ----------------------------------------
 BYTE   W12
 BYTE   En2
 BYTE   W36
 BYTE   N24  Gs2
 BYTE   W24
 BYTE   Cs3
 BYTE   W24
// 060   ----------------------------------------
 BYTE   N36  Ds3
 BYTE   W36
 BYTE   En2
 BYTE   W36
 BYTE   Gs2
 BYTE   W24
// 061   ----------------------------------------
 BYTE   W12
 BYTE   Cs3
 BYTE   W36
 BYTE   N24  En2
 BYTE   W24
 BYTE   Gs2
 BYTE   W24
// 062   ----------------------------------------
 BYTE   N36  An2
 BYTE   W36
 BYTE   N12  Ds2
 BYTE   W24
 BYTE   En2
 BYTE   W12
 BYTE   N36  An2
 BYTE   W24
// 063   ----------------------------------------
 BYTE   W12
 BYTE   N24  Cs2
 BYTE   W24
 BYTE   N12  En2
 BYTE   W12
 BYTE   N24  An2
 BYTE   W24
 BYTE   Fs2
 BYTE   W24
// 064   ----------------------------------------
 BYTE   N36  Bn2
 BYTE   W36
 BYTE   N12  En2
 BYTE   W24
 BYTE   Fs2
 BYTE   W12
 BYTE   N36  Bn2
 BYTE   W24
// 065   ----------------------------------------
 BYTE   W12
 BYTE   N24  Ds2
 BYTE   W24
 BYTE   N12  Fs2
 BYTE   W12
 BYTE   N24  Bn2
 BYTE   W24
 BYTE   Ds3
 BYTE   W24
// 066   ----------------------------------------
 BYTE   TIE  Cs3
 BYTE   W96
// 067   ----------------------------------------
 BYTE   W48
 BYTE   EOT
 BYTE   N48  Bn2
 BYTE   W48
// 068   ----------------------------------------
 BYTE   TIE  An2
 BYTE   W96
// 069   ----------------------------------------
 BYTE   W48
 BYTE   EOT
 BYTE   N48  Gs2
 BYTE   W48
// 070   ----------------------------------------
 BYTE   TIE  Fs2
 BYTE   W96
// 071   ----------------------------------------
 BYTE   W48
 BYTE   EOT
 BYTE   N48  En2
 BYTE   W48
// 072   ----------------------------------------
 BYTE   TIE  Dn2
 BYTE   W96
// 073   ----------------------------------------
 BYTE   W96
// 074   ----------------------------------------
 BYTE   EOT
// 075   ----------------------------------------
 BYTE   PATT
  POIN2 Label_10_01D08B60
// 076   ----------------------------------------
 BYTE   W48
 BYTE   N12  Cs2  v096
 BYTE   W36
 BYTE   N12
 BYTE   W12
// 077   ----------------------------------------
 BYTE   W24
 BYTE   N12
 BYTE   W72
// 078   ----------------------------------------
 BYTE   PATT
  POIN2 Label_10_01D08B60
// 079   ----------------------------------------
 BYTE   PATT
  POIN2 Label_10_01D08AF1
// 080   ----------------------------------------
 BYTE   W24
 BYTE   N12  Dn2  v096
 BYTE   W48
 BYTE   GoTo
  POIN2 Label_10_01D08B60
// 081   ----------------------------------------
 BYTE   W24
 BYTE   FINE

//**************** Track 12 (Midi-Chn.11) ****************//

FF10BattleRSflame_012:
// 000   ----------------------------------------
 BYTE   KEYSH   FF10BattleRSflame_key+0
 BYTE   VOICE   15
 BYTE   VOL   37*FF10BattleRSflame_mvl/mxv
 BYTE   N24  Cs2  v104
 BYTE   W96
// 001   ----------------------------------------
 BYTE   W96
// 002   ----------------------------------------
 BYTE   W96
// 003   ----------------------------------------
 BYTE   W96
// 004   ----------------------------------------
 BYTE   W96
// 005   ----------------------------------------
 BYTE   W72
 BYTE   N24
 BYTE   W24
// 006   ----------------------------------------
 BYTE   W96
// 007   ----------------------------------------
 BYTE   W96
// 008   ----------------------------------------
 BYTE   W96
// 009   ----------------------------------------
 BYTE   W96
// 010   ----------------------------------------
 BYTE   W96
// 011   ----------------------------------------
 BYTE   W96
// 012   ----------------------------------------
 BYTE   W96
// 013   ----------------------------------------
 BYTE   W96
// 014   ----------------------------------------
 BYTE   W96
// 015   ----------------------------------------
 BYTE   W96
// 016   ----------------------------------------
 BYTE   W96
// 017   ----------------------------------------
 BYTE   W96
// 018   ----------------------------------------
Label_11_01CE3B5D:
 BYTE   N24  Cs2  v116
 BYTE   W96
// 019   ----------------------------------------
 BYTE   W96
// 020   ----------------------------------------
 BYTE   W96
// 021   ----------------------------------------
 BYTE   W96
// 022   ----------------------------------------
 BYTE   W96
// 023   ----------------------------------------
 BYTE   W96
// 024   ----------------------------------------
 BYTE   W96
// 025   ----------------------------------------
 BYTE   W96
// 026   ----------------------------------------
 BYTE   W96
// 027   ----------------------------------------
 BYTE   W96
// 028   ----------------------------------------
 BYTE   W96
// 029   ----------------------------------------
 BYTE   W96
// 030   ----------------------------------------
 BYTE   W96
// 031   ----------------------------------------
 BYTE   W96
// 032   ----------------------------------------
 BYTE   W96
// 033   ----------------------------------------
 BYTE   W96
// 034   ----------------------------------------
 BYTE   Cs2  v104
 BYTE   W96
// 035   ----------------------------------------
 BYTE   W96
// 036   ----------------------------------------
 BYTE   W96
// 037   ----------------------------------------
 BYTE   W96
// 038   ----------------------------------------
 BYTE   W96
// 039   ----------------------------------------
 BYTE   W96
// 040   ----------------------------------------
 BYTE   W96
// 041   ----------------------------------------
 BYTE   W96
// 042   ----------------------------------------
 BYTE   W96
// 043   ----------------------------------------
 BYTE   W96
// 044   ----------------------------------------
 BYTE   W96
// 045   ----------------------------------------
 BYTE   W96
// 046   ----------------------------------------
 BYTE   W96
// 047   ----------------------------------------
 BYTE   W96
// 048   ----------------------------------------
 BYTE   W96
// 049   ----------------------------------------
 BYTE   W96
// 050   ----------------------------------------
Label_11_01CE3B82:
 BYTE   N36  Cs2  v104
 BYTE   W72
 BYTE   N36
 BYTE   W24
 BYTE   PEND 
// 051   ----------------------------------------
 BYTE   W96
// 052   ----------------------------------------
 BYTE   W96
// 053   ----------------------------------------
 BYTE   W96
// 054   ----------------------------------------
 BYTE   W96
// 055   ----------------------------------------
 BYTE   W96
// 056   ----------------------------------------
 BYTE   PATT
  POIN2 Label_11_01CE3B82
// 057   ----------------------------------------
 BYTE   W96
// 058   ----------------------------------------
 BYTE   W96
// 059   ----------------------------------------
 BYTE   W96
// 060   ----------------------------------------
 BYTE   W96
// 061   ----------------------------------------
 BYTE   W72
 BYTE   N24  Cs2  v104
 BYTE   W24
// 062   ----------------------------------------
 BYTE   W96
// 063   ----------------------------------------
 BYTE   W96
// 064   ----------------------------------------
 BYTE   W96
// 065   ----------------------------------------
 BYTE   W96
// 066   ----------------------------------------
 BYTE   N96  Cs2  v116
 BYTE   W96
// 067   ----------------------------------------
 BYTE   W96
// 068   ----------------------------------------
 BYTE   Cs2  v104
 BYTE   W96
// 069   ----------------------------------------
 BYTE   W96
// 070   ----------------------------------------
 BYTE   N96
 BYTE   W96
// 071   ----------------------------------------
 BYTE   W96
// 072   ----------------------------------------
 BYTE   N96
 BYTE   W96
// 073   ----------------------------------------
 BYTE   W96
// 074   ----------------------------------------
 BYTE   N24
 BYTE   W96
// 075   ----------------------------------------
 BYTE   W96
// 076   ----------------------------------------
 BYTE   W96
// 077   ----------------------------------------
 BYTE   W96
// 078   ----------------------------------------
 BYTE   W96
// 079   ----------------------------------------
 BYTE   W72
 BYTE   GoTo
  POIN2 Label_11_01CE3B5D
// 080   ----------------------------------------
 BYTE   W24
 BYTE   FINE

//******************************************************//
	ALIGN 4

FF10BattleRSflame:
	BYTE	12	// NumTrks
	BYTE	0	// NumBlks
	BYTE	FF10BattleRSflame_pri	// Priority
	BYTE	FF10BattleRSflame_rev	// Reverb.
    
	POIN2	FF10BattleRSflame_grp
    
	POIN2	FF10BattleRSflame_001
	POIN2	FF10BattleRSflame_002
	POIN2	FF10BattleRSflame_003
	POIN2	FF10BattleRSflame_004
	POIN2	FF10BattleRSflame_005
	POIN2	FF10BattleRSflame_006
	POIN2	FF10BattleRSflame_007
	POIN2	FF10BattleRSflame_008
	POIN2	FF10BattleRSflame_009
	POIN2	FF10BattleRSflame_010
	POIN2	FF10BattleRSflame_011
	POIN2	FF10BattleRSflame_012

	
