//Event file generated from Sappy .s format.
	#include "MPlayDef.event"

	#define	FF10EnemyAttackAReliableChair_grp  voicegroup000
	#define	FF10EnemyAttackAReliableChair_pri  0
	#define	FF10EnemyAttackAReliableChair_rev  0
	#define	FF10EnemyAttackAReliableChair_mvl  127
	#define	FF10EnemyAttackAReliableChair_key  0
	#define	FF10EnemyAttackAReliableChair_tbs  1
	#define	FF10EnemyAttackAReliableChair_exg  0
	#define	FF10EnemyAttackAReliableChair_cmp  1

	// .rodata
	//	FF10EnemyAttackAReliableChair
	ALIGN 4


//**************** Track 1 (Midi-Chn.0) ****************//

FF10EnemyAttackAReliableChair_001:
// 000   ----------------------------------------
 BYTE   KEYSH   FF10EnemyAttackAReliableChair_key+0
Label_0_0135BA4E:
 BYTE   TEMPO   148*FF10EnemyAttackAReliableChair_tbs/2
 BYTE   VOICE   48
 BYTE   BENDR  68
 BYTE   MODT 0
 BYTE   CnM2
 BYTE   LFOS 0
 BYTE   Gs1
 BYTE   VOL   33*FF10EnemyAttackAReliableChair_mvl/mxv
 BYTE   PAN   c_v+42
 BYTE   N05  Gn2  v088
 BYTE   N05  Dn3
 BYTE   W36
 BYTE   Gn2
 BYTE   N05  Dn3
 BYTE   W36
 BYTE   Gn2
 BYTE   N05  Dn3
 BYTE   W24
// 001   ----------------------------------------
Label_0_0135BA6A:
 BYTE   N05  Gn2  v088
 BYTE   N05  Dn3
 BYTE   W24
 BYTE   Gn2
 BYTE   N05  Dn3
 BYTE   W24
 BYTE   Gn2
 BYTE   N05  Dn3
 BYTE   W36
 BYTE   Gn2
 BYTE   N05  Dn3
 BYTE   W12
 BYTE   PEND 
// 002   ----------------------------------------
Label_0_0135BA7D:
 BYTE   W24
 BYTE   N05  Gn2  v088
 BYTE   N05  Dn3
 BYTE   W24
 BYTE   Gn2
 BYTE   N05  Dn3
 BYTE   W24
 BYTE   Gn2
 BYTE   N05  Dn3
 BYTE   W24
 BYTE   PEND 
// 003   ----------------------------------------
Label_0_0135BA8D:
 BYTE   N05  Gn2  v088
 BYTE   N05  Dn3
 BYTE   W36
 BYTE   Gn2
 BYTE   N05  Dn3
 BYTE   W36
 BYTE   Gn2
 BYTE   N05  Dn3
 BYTE   W24
 BYTE   PEND 
 BYTE   PATT
  POIN2 Label_0_0135BA6A
 BYTE   PATT
  POIN2 Label_0_0135BA7D
 BYTE   PATT
  POIN2 Label_0_0135BA8D
 BYTE   PATT
  POIN2 Label_0_0135BA6A
 BYTE   PATT
  POIN2 Label_0_0135BA7D
 BYTE   PATT
  POIN2 Label_0_0135BA8D
 BYTE   PATT
  POIN2 Label_0_0135BA6A
 BYTE   PATT
  POIN2 Label_0_0135BA7D
 BYTE   PATT
  POIN2 Label_0_0135BA8D
 BYTE   PATT
  POIN2 Label_0_0135BA6A
 BYTE   PATT
  POIN2 Label_0_0135BA7D
 BYTE   PATT
  POIN2 Label_0_0135BA8D
 BYTE   PATT
  POIN2 Label_0_0135BA6A
 BYTE   PATT
  POIN2 Label_0_0135BA7D
 BYTE   PATT
  POIN2 Label_0_0135BA8D
// 004   ----------------------------------------
Label_0_0135BAE7:
 BYTE   N05  Gn2  v088
 BYTE   N05  Dn3
 BYTE   W24
 BYTE   Gn2
 BYTE   N05  Dn3
 BYTE   W24
 BYTE   As2
 BYTE   N05  Fn3
 BYTE   N05  As3
 BYTE   W48
 BYTE   PEND 
// 005   ----------------------------------------
Label_0_0135BAF8:
 BYTE   W12
 BYTE   N05  As2  v088
 BYTE   N05  Fn3
 BYTE   N05  As3
 BYTE   W24
 BYTE   As2  v052
 BYTE   N05  Fn3
 BYTE   N05  As3
 BYTE   W12
 BYTE   As2  v088
 BYTE   N05  Fn3
 BYTE   N05  As3
 BYTE   W24
 BYTE   As2  v048
 BYTE   N05  Fn3
 BYTE   N05  As3
 BYTE   W12
 BYTE   As2  v060
 BYTE   N05  Fn3
 BYTE   N05  As3
 BYTE   W12
 BYTE   PEND 
// 006   ----------------------------------------
Label_0_0135BB1E:
 BYTE   N05  As2  v088
 BYTE   N05  Fn3
 BYTE   N05  As3
 BYTE   W84
 BYTE   As2
 BYTE   N05  Fn3
 BYTE   N05  As3
 BYTE   W12
 BYTE   PEND 
// 007   ----------------------------------------
Label_0_0135BB2D:
 BYTE   N05  As2  v056
 BYTE   N05  Fn3
 BYTE   N05  As3
 BYTE   W24
 BYTE   As2  v040
 BYTE   N05  Fn3
 BYTE   N05  As3
 BYTE   W12
 BYTE   As2  v060
 BYTE   N05  Fn3
 BYTE   N05  As3
 BYTE   W12
 BYTE   As2  v088
 BYTE   N05  Fn3
 BYTE   N05  As3
 BYTE   W48
 BYTE   PEND 
// 008   ----------------------------------------
Label_0_0135BB4B:
 BYTE   W36
 BYTE   N05  As2  v088
 BYTE   N05  Fn3
 BYTE   N05  As3
 BYTE   W12
 BYTE   As2  v056
 BYTE   N05  Fn3
 BYTE   N05  As3
 BYTE   W24
 BYTE   As2  v040
 BYTE   N05  Fn3
 BYTE   N05  As3
 BYTE   W12
 BYTE   As2  v060
 BYTE   N05  Fn3
 BYTE   N05  As3
 BYTE   W12
 BYTE   PEND 
 BYTE   PATT
  POIN2 Label_0_0135BB1E
// 009   ----------------------------------------
Label_0_0135BB6F:
 BYTE   N05  As2  v056
 BYTE   N05  Fn3
 BYTE   N05  As3
 BYTE   W24
 BYTE   As2  v040
 BYTE   N05  Fn3
 BYTE   N05  As3
 BYTE   W12
 BYTE   As2  v060
 BYTE   N05  Fn3
 BYTE   N05  As3
 BYTE   W12
 BYTE   Bn2  v088
 BYTE   N05  Fs3
 BYTE   N05  Bn3
 BYTE   W48
 BYTE   PEND 
// 010   ----------------------------------------
Label_0_0135BB8D:
 BYTE   W36
 BYTE   N05  Bn2  v088
 BYTE   N05  Fs3
 BYTE   N05  Bn3
 BYTE   W12
 BYTE   Bn2  v056
 BYTE   N05  Fs3
 BYTE   N05  Bn3
 BYTE   W24
 BYTE   Bn2  v040
 BYTE   N05  Fs3
 BYTE   N05  Bn3
 BYTE   W12
 BYTE   Bn2  v060
 BYTE   N05  Fs3
 BYTE   N05  Bn3
 BYTE   W12
 BYTE   PEND 
// 011   ----------------------------------------
Label_0_0135BBAC:
 BYTE   N05  Bn2  v088
 BYTE   N05  Fs3
 BYTE   N05  Bn3
 BYTE   W84
 BYTE   Bn2
 BYTE   N05  Fs3
 BYTE   N05  Bn3
 BYTE   W12
 BYTE   PEND 
// 012   ----------------------------------------
Label_0_0135BBBB:
 BYTE   N05  Bn2  v056
 BYTE   N05  Fs3
 BYTE   N05  Bn3
 BYTE   W24
 BYTE   Bn2  v040
 BYTE   N05  Fs3
 BYTE   N05  Bn3
 BYTE   W12
 BYTE   Bn2  v060
 BYTE   N05  Fs3
 BYTE   N05  Bn3
 BYTE   W12
 BYTE   An2  v088
 BYTE   N05  En3
 BYTE   N05  An3
 BYTE   W48
 BYTE   PEND 
// 013   ----------------------------------------
Label_0_0135BBD9:
 BYTE   W36
 BYTE   N05  An2  v088
 BYTE   N05  En3
 BYTE   N05  An3
 BYTE   W12
 BYTE   An2  v056
 BYTE   N05  En3
 BYTE   N05  An3
 BYTE   W24
 BYTE   An2  v040
 BYTE   N05  En3
 BYTE   N05  An3
 BYTE   W12
 BYTE   An2  v060
 BYTE   N05  En3
 BYTE   N05  An3
 BYTE   W12
 BYTE   PEND 
// 014   ----------------------------------------
Label_0_0135BBF8:
 BYTE   N05  An2  v088
 BYTE   N05  En3
 BYTE   N05  An3
 BYTE   W84
 BYTE   An2
 BYTE   N05  En3
 BYTE   N05  An3
 BYTE   W12
 BYTE   PEND 
// 015   ----------------------------------------
Label_0_0135BC07:
 BYTE   N05  An2  v056
 BYTE   N05  En3
 BYTE   N05  An3
 BYTE   W24
 BYTE   An2  v040
 BYTE   N05  En3
 BYTE   N05  An3
 BYTE   W12
 BYTE   An2  v060
 BYTE   N05  En3
 BYTE   N05  An3
 BYTE   W60
 BYTE   PEND 
// 016   ----------------------------------------
 BYTE   W96
// 017   ----------------------------------------
 BYTE   W96
// 018   ----------------------------------------
 BYTE   W96
// 019   ----------------------------------------
 BYTE   W96
// 020   ----------------------------------------
 BYTE   W96
// 021   ----------------------------------------
 BYTE   W96
// 022   ----------------------------------------
 BYTE   W96
// 023   ----------------------------------------
Label_0_0135BC25:
 BYTE   N18  Dn3  v088
 BYTE   N18  An3
 BYTE   W36
 BYTE   Dn3
 BYTE   N18  An3
 BYTE   W60
 BYTE   PEND 
// 024   ----------------------------------------
Label_0_0135BC30:
 BYTE   W48
 BYTE   N18  Dn3  v088
 BYTE   N18  An3
 BYTE   W36
 BYTE   Dn3
 BYTE   N18  An3
 BYTE   W12
 BYTE   PEND 
// 025   ----------------------------------------
 BYTE   W96
 BYTE   PATT
  POIN2 Label_0_0135BC25
 BYTE   PATT
  POIN2 Label_0_0135BC30
// 026   ----------------------------------------
 BYTE   W96
 BYTE   PATT
  POIN2 Label_0_0135BA8D
 BYTE   PATT
  POIN2 Label_0_0135BA6A
 BYTE   PATT
  POIN2 Label_0_0135BA7D
 BYTE   PATT
  POIN2 Label_0_0135BA8D
 BYTE   PATT
  POIN2 Label_0_0135BA6A
 BYTE   PATT
  POIN2 Label_0_0135BA7D
 BYTE   PATT
  POIN2 Label_0_0135BA8D
 BYTE   PATT
  POIN2 Label_0_0135BA6A
 BYTE   PATT
  POIN2 Label_0_0135BA7D
 BYTE   PATT
  POIN2 Label_0_0135BA8D
 BYTE   PATT
  POIN2 Label_0_0135BA6A
 BYTE   PATT
  POIN2 Label_0_0135BA7D
 BYTE   PATT
  POIN2 Label_0_0135BA8D
 BYTE   PATT
  POIN2 Label_0_0135BA6A
 BYTE   PATT
  POIN2 Label_0_0135BA7D
 BYTE   PATT
  POIN2 Label_0_0135BA8D
 BYTE   PATT
  POIN2 Label_0_0135BA6A
 BYTE   PATT
  POIN2 Label_0_0135BA7D
 BYTE   PATT
  POIN2 Label_0_0135BA8D
 BYTE   PATT
  POIN2 Label_0_0135BAE7
 BYTE   PATT
  POIN2 Label_0_0135BAF8
 BYTE   PATT
  POIN2 Label_0_0135BB1E
 BYTE   PATT
  POIN2 Label_0_0135BB2D
 BYTE   PATT
  POIN2 Label_0_0135BB4B
 BYTE   PATT
  POIN2 Label_0_0135BB1E
 BYTE   PATT
  POIN2 Label_0_0135BB6F
 BYTE   PATT
  POIN2 Label_0_0135BB8D
 BYTE   PATT
  POIN2 Label_0_0135BBAC
 BYTE   PATT
  POIN2 Label_0_0135BBBB
 BYTE   PATT
  POIN2 Label_0_0135BBD9
 BYTE   PATT
  POIN2 Label_0_0135BBF8
 BYTE   PATT
  POIN2 Label_0_0135BC07
// 027   ----------------------------------------
 BYTE   W96
// 028   ----------------------------------------
 BYTE   W96
// 029   ----------------------------------------
 BYTE   W96
// 030   ----------------------------------------
 BYTE   W96
// 031   ----------------------------------------
 BYTE   W96
// 032   ----------------------------------------
 BYTE   W96
// 033   ----------------------------------------
 BYTE   W96
 BYTE   PATT
  POIN2 Label_0_0135BC25
 BYTE   PATT
  POIN2 Label_0_0135BC30
// 034   ----------------------------------------
 BYTE   W96
 BYTE   PATT
  POIN2 Label_0_0135BC25
 BYTE   PATT
  POIN2 Label_0_0135BC30
// 035   ----------------------------------------
 BYTE   W96
 BYTE   PATT
  POIN2 Label_0_0135BA8D
 BYTE   PATT
  POIN2 Label_0_0135BA6A
 BYTE   PATT
  POIN2 Label_0_0135BA7D
 BYTE   PATT
  POIN2 Label_0_0135BA8D
 BYTE   PATT
  POIN2 Label_0_0135BA6A
// 036   ----------------------------------------
 BYTE   W24
 BYTE   N05  Gn2  v088
 BYTE   N05  Dn3
 BYTE   W24
 BYTE   Gn2
 BYTE   N05  Dn3
 BYTE   W24
 BYTE   Gn2
 BYTE   N05  Dn3
 BYTE   W23
 BYTE   GoTo
  POIN2 Label_0_0135BA4E
// 037   ----------------------------------------
 BYTE   VOL   33*FF10EnemyAttackAReliableChair_mvl/mxv
 BYTE   FINE

//**************** Track 2 (Midi-Chn.1) ****************//

FF10EnemyAttackAReliableChair_002:
// 000   ----------------------------------------
 BYTE   KEYSH   FF10EnemyAttackAReliableChair_key+0
Label_1_0135BD3A:
 BYTE   VOICE   48
 BYTE   MODT 0
 BYTE   CnM2
 BYTE   LFOS 0
 BYTE   Gs1
 BYTE   VOL   33*FF10EnemyAttackAReliableChair_mvl/mxv
 BYTE   PAN   c_v-42
 BYTE   N05  Gn1  v100
 BYTE   N05  Gn2
 BYTE   W12
 BYTE   Gn1
 BYTE   N05  Dn3
 BYTE   W12
 BYTE   Gn1
 BYTE   N05  Ds3
 BYTE   W12
 BYTE   Gn1
 BYTE   N05  Cn3
 BYTE   W12
 BYTE   Gn1
 BYTE   N05  Dn3
 BYTE   W12
 BYTE   Gn1
 BYTE   N05  As2
 BYTE   W12
 BYTE   Gn1
 BYTE   N05  Gn2
 BYTE   W12
 BYTE   Gn1
 BYTE   N05  Dn3
 BYTE   W12
// 001   ----------------------------------------
Label_1_0135BD66:
 BYTE   N05  Gn1  v100
 BYTE   N05  Ds3
 BYTE   W12
 BYTE   Gn1
 BYTE   N05  Dn3
 BYTE   W12
 BYTE   Gn1
 BYTE   N05  Cn3
 BYTE   W12
 BYTE   Gn1
 BYTE   N05  Dn3
 BYTE   W12
 BYTE   Gn1
 BYTE   N05  Gn2
 BYTE   W12
 BYTE   Gn1
 BYTE   N05  Dn3
 BYTE   W12
 BYTE   Gn1
 BYTE   N05  Ds3
 BYTE   W12
 BYTE   Gn1
 BYTE   N05  Cn3
 BYTE   W12
 BYTE   PEND 
// 002   ----------------------------------------
Label_1_0135BD89:
 BYTE   N05  Gn1  v100
 BYTE   N05  Dn3
 BYTE   W12
 BYTE   Gn1
 BYTE   N05  As2
 BYTE   W12
 BYTE   Gn1
 BYTE   N05  Gn2
 BYTE   W12
 BYTE   Gn1
 BYTE   N05  Dn3
 BYTE   W12
 BYTE   Gn1
 BYTE   N05  Ds3
 BYTE   W12
 BYTE   Gn1
 BYTE   N05  Dn3
 BYTE   W12
 BYTE   Gn1
 BYTE   N05  Cn3
 BYTE   W12
 BYTE   Gn1
 BYTE   N05  Dn3
 BYTE   W12
 BYTE   PEND 
// 003   ----------------------------------------
Label_1_0135BDAC:
 BYTE   N05  Gn1  v100
 BYTE   N05  Gn2
 BYTE   W12
 BYTE   Gn1
 BYTE   N05  Dn3
 BYTE   W12
 BYTE   Gn1
 BYTE   N05  Ds3
 BYTE   W12
 BYTE   Gn1
 BYTE   N05  Cn3
 BYTE   W12
 BYTE   Gn1
 BYTE   N05  Dn3
 BYTE   W12
 BYTE   Gn1
 BYTE   N05  As2
 BYTE   W12
 BYTE   Gn1
 BYTE   N05  Gn2
 BYTE   W12
 BYTE   Gn1
 BYTE   N05  Dn3
 BYTE   W12
 BYTE   PEND 
 BYTE   PATT
  POIN2 Label_1_0135BD66
 BYTE   PATT
  POIN2 Label_1_0135BD89
 BYTE   PATT
  POIN2 Label_1_0135BDAC
 BYTE   PATT
  POIN2 Label_1_0135BD66
 BYTE   PATT
  POIN2 Label_1_0135BD89
 BYTE   PATT
  POIN2 Label_1_0135BDAC
 BYTE   PATT
  POIN2 Label_1_0135BD66
 BYTE   PATT
  POIN2 Label_1_0135BD89
 BYTE   PATT
  POIN2 Label_1_0135BDAC
 BYTE   PATT
  POIN2 Label_1_0135BD66
 BYTE   PATT
  POIN2 Label_1_0135BD89
 BYTE   PATT
  POIN2 Label_1_0135BDAC
 BYTE   PATT
  POIN2 Label_1_0135BD66
 BYTE   PATT
  POIN2 Label_1_0135BD89
 BYTE   PATT
  POIN2 Label_1_0135BDAC
// 004   ----------------------------------------
Label_1_0135BE1A:
 BYTE   N05  Gn1  v100
 BYTE   N05  Ds3
 BYTE   W12
 BYTE   Gn1
 BYTE   N05  Dn3
 BYTE   W12
 BYTE   Gn1
 BYTE   N05  Cn3
 BYTE   W12
 BYTE   Gn1
 BYTE   N05  Dn3
 BYTE   W12
 BYTE   As0  v112
 BYTE   N05  As1
 BYTE   N05  As2
 BYTE   W12
 BYTE   Fn3
 BYTE   W12
 BYTE   Fs3
 BYTE   W12
 BYTE   Ds3
 BYTE   W12
 BYTE   PEND 
// 005   ----------------------------------------
Label_1_0135BE3A:
 BYTE   N05  Fn3  v112
 BYTE   W12
 BYTE   As0
 BYTE   N05  As1
 BYTE   N05  Gs2
 BYTE   W24
 BYTE   As0
 BYTE   N05  As1
 BYTE   N05  Fn3
 BYTE   W12
 BYTE   As0
 BYTE   N05  As1
 BYTE   N05  Fs3
 BYTE   W12
 BYTE   Ds3
 BYTE   W12
 BYTE   As0
 BYTE   N05  Fn3
 BYTE   W12
 BYTE   As0
 BYTE   N05  Gs2
 BYTE   W12
 BYTE   PEND 
// 006   ----------------------------------------
Label_1_0135BE5B:
 BYTE   N05  As0  v112
 BYTE   N05  As1
 BYTE   N05  As2
 BYTE   W12
 BYTE   Fn3
 BYTE   W12
 BYTE   Fs3
 BYTE   W12
 BYTE   Ds3
 BYTE   W12
 BYTE   Fn3
 BYTE   W12
 BYTE   Gs2
 BYTE   W24
 BYTE   As0
 BYTE   N05  As1
 BYTE   N05  Fn3
 BYTE   W12
 BYTE   PEND 
// 007   ----------------------------------------
Label_1_0135BE74:
 BYTE   N05  As0  v112
 BYTE   N05  As1
 BYTE   N05  Fs3
 BYTE   W12
 BYTE   Ds3
 BYTE   W12
 BYTE   As0
 BYTE   N05  Fn3
 BYTE   W12
 BYTE   As0
 BYTE   N05  Gs2
 BYTE   W12
 BYTE   As0
 BYTE   N05  As1
 BYTE   N05  As2
 BYTE   W12
 BYTE   Fn3
 BYTE   W12
 BYTE   Fs3
 BYTE   W12
 BYTE   Ds3
 BYTE   W12
 BYTE   PEND 
// 008   ----------------------------------------
Label_1_0135BE93:
 BYTE   N05  Fn3  v112
 BYTE   W12
 BYTE   Gs2
 BYTE   W24
 BYTE   As0
 BYTE   N05  As1
 BYTE   N05  Fn3
 BYTE   W12
 BYTE   As0
 BYTE   N05  As1
 BYTE   N05  Fs3
 BYTE   W12
 BYTE   Ds3
 BYTE   W12
 BYTE   As0
 BYTE   N05  Fn3
 BYTE   W12
 BYTE   As0
 BYTE   N05  Gs2
 BYTE   W12
 BYTE   PEND 
 BYTE   PATT
  POIN2 Label_1_0135BE5B
// 009   ----------------------------------------
Label_1_0135BEB5:
 BYTE   N05  As0  v112
 BYTE   N05  As1
 BYTE   N05  Fs3
 BYTE   W12
 BYTE   Ds3
 BYTE   W12
 BYTE   As0
 BYTE   N05  Fn3
 BYTE   W12
 BYTE   As0
 BYTE   N05  Gs2
 BYTE   W12
 BYTE   Bn2
 BYTE   W12
 BYTE   Fs3
 BYTE   W12
 BYTE   Gn3
 BYTE   W12
 BYTE   En3
 BYTE   W12
 BYTE   PEND 
// 010   ----------------------------------------
Label_1_0135BED0:
 BYTE   N05  Fs3  v112
 BYTE   W12
 BYTE   An2
 BYTE   W24
 BYTE   Fs3
 BYTE   W12
 BYTE   Gn3
 BYTE   W12
 BYTE   En3
 BYTE   W12
 BYTE   Fs3
 BYTE   W12
 BYTE   An3
 BYTE   W12
 BYTE   PEND 
// 011   ----------------------------------------
Label_1_0135BEE1:
 BYTE   N05  Bn2  v112
 BYTE   W12
 BYTE   Fs3
 BYTE   W12
 BYTE   Gn3
 BYTE   W12
 BYTE   En3
 BYTE   W12
 BYTE   Fs3
 BYTE   W12
 BYTE   An2
 BYTE   W24
 BYTE   Fs3
 BYTE   W12
 BYTE   PEND 
// 012   ----------------------------------------
Label_1_0135BEF2:
 BYTE   N05  Gn3  v112
 BYTE   W12
 BYTE   En3
 BYTE   W12
 BYTE   Fs3
 BYTE   W12
 BYTE   An3
 BYTE   W12
 BYTE   An2
 BYTE   W12
 BYTE   En3
 BYTE   W12
 BYTE   Fs3
 BYTE   W12
 BYTE   Dn3
 BYTE   W12
 BYTE   PEND 
// 013   ----------------------------------------
Label_1_0135BF05:
 BYTE   N05  En3  v112
 BYTE   W12
 BYTE   Gn2
 BYTE   W24
 BYTE   En3
 BYTE   W12
 BYTE   Fs3
 BYTE   W12
 BYTE   Dn3
 BYTE   W12
 BYTE   En3
 BYTE   W12
 BYTE   An3
 BYTE   W12
 BYTE   PEND 
// 014   ----------------------------------------
Label_1_0135BF16:
 BYTE   N05  An2  v112
 BYTE   W12
 BYTE   En3
 BYTE   W12
 BYTE   Fs3
 BYTE   W12
 BYTE   Dn3
 BYTE   W12
 BYTE   En3
 BYTE   W12
 BYTE   Gn2
 BYTE   W24
 BYTE   En3
 BYTE   W12
 BYTE   PEND 
// 015   ----------------------------------------
Label_1_0135BF27:
 BYTE   N05  Fs3  v112
 BYTE   W12
 BYTE   Dn3
 BYTE   W12
 BYTE   En3
 BYTE   W12
 BYTE   An3
 BYTE   W12
 BYTE   Fs1
 BYTE   N05  Fs2
 BYTE   W12
 BYTE   Fs1
 BYTE   N05  Cs3
 BYTE   W12
 BYTE   Fs1
 BYTE   N05  Dn3
 BYTE   W12
 BYTE   Fs1
 BYTE   N05  An2
 BYTE   W12
 BYTE   PEND 
// 016   ----------------------------------------
Label_1_0135BF42:
 BYTE   N05  Fs1  v112
 BYTE   N05  Bn2
 BYTE   W12
 BYTE   Fs1
 BYTE   N05  En2
 BYTE   W12
 BYTE   Fs1
 BYTE   N05  Fs2
 BYTE   W12
 BYTE   Fs1
 BYTE   N05  Cs3
 BYTE   W12
 BYTE   Fs1
 BYTE   N05  Dn3
 BYTE   W12
 BYTE   Fs1
 BYTE   N05  Fs3
 BYTE   W12
 BYTE   Fs1
 BYTE   N05  Cs3
 BYTE   W12
 BYTE   Fs1
 BYTE   N05  Dn3
 BYTE   W12
 BYTE   PEND 
// 017   ----------------------------------------
Label_1_0135BF65:
 BYTE   N05  Fs1  v112
 BYTE   N05  Fs2
 BYTE   W12
 BYTE   Fs1
 BYTE   N05  Cs3
 BYTE   W12
 BYTE   Fs1
 BYTE   N05  Dn3
 BYTE   W12
 BYTE   Fs1
 BYTE   N05  An2
 BYTE   W12
 BYTE   Fs1
 BYTE   N05  Bn2
 BYTE   W12
 BYTE   Fs1
 BYTE   N05  En2
 BYTE   W12
 BYTE   Fs1
 BYTE   N05  Fs2
 BYTE   W12
 BYTE   Fs1
 BYTE   N05  Bn2
 BYTE   W12
 BYTE   PEND 
// 018   ----------------------------------------
Label_1_0135BF88:
 BYTE   N05  Fs1  v112
 BYTE   N05  Cs3
 BYTE   W12
 BYTE   Fs1
 BYTE   N05  Fs3
 BYTE   W12
 BYTE   Fs1
 BYTE   N05  Cs3
 BYTE   W12
 BYTE   Fs1
 BYTE   N05  En3
 BYTE   W12
 BYTE   Fs1
 BYTE   N05  Fs2
 BYTE   W12
 BYTE   Fs1
 BYTE   N05  Cs3
 BYTE   W12
 BYTE   Fs1
 BYTE   N05  Dn3
 BYTE   W12
 BYTE   Fs1
 BYTE   N05  An2
 BYTE   W12
 BYTE   PEND 
// 019   ----------------------------------------
Label_1_0135BFAB:
 BYTE   N05  Fs1  v112
 BYTE   N05  Bn2
 BYTE   W12
 BYTE   Fs1
 BYTE   N05  En2
 BYTE   W12
 BYTE   Fs1
 BYTE   N05  Fs2
 BYTE   W12
 BYTE   Fs1
 BYTE   N05  Bn2
 BYTE   W12
 BYTE   Fs1
 BYTE   N05  Cs3
 BYTE   W12
 BYTE   Fs1
 BYTE   N05  Fs3
 BYTE   W12
 BYTE   Fs1
 BYTE   N06  Cs3
 BYTE   W12
 BYTE   N05  Fs1
 BYTE   N05  Fs3
 BYTE   W12
 BYTE   PEND 
 BYTE   PATT
  POIN2 Label_1_0135BF65
// 020   ----------------------------------------
Label_1_0135BFD4:
 BYTE   N05  Fs1  v112
 BYTE   N05  Cs3
 BYTE   W12
 BYTE   Fs1
 BYTE   N05  Fs3
 BYTE   W12
 BYTE   Fs1
 BYTE   N06  Cs3
 BYTE   W12
 BYTE   N05  Fs1
 BYTE   N05  An3
 BYTE   W12
 BYTE   Fs1
 BYTE   N05  Fs2
 BYTE   W12
 BYTE   Fs1
 BYTE   N05  Cs3
 BYTE   W12
 BYTE   Fs1
 BYTE   N05  Dn3
 BYTE   W12
 BYTE   Fs1
 BYTE   N05  An2
 BYTE   W12
 BYTE   PEND 
// 021   ----------------------------------------
Label_1_0135BFF8:
 BYTE   N05  Fs1  v112
 BYTE   N05  Bn2
 BYTE   W12
 BYTE   Fs1
 BYTE   N05  En2
 BYTE   W12
 BYTE   Fs1
 BYTE   N05  Fs2
 BYTE   W12
 BYTE   Fs1
 BYTE   N05  Bn2
 BYTE   W12
 BYTE   Fs1
 BYTE   N05  Cs3
 BYTE   W12
 BYTE   Fs1
 BYTE   N05  Fs3
 BYTE   W12
 BYTE   Fs1
 BYTE   N06  Cs3
 BYTE   W12
 BYTE   N05  Fs1
 BYTE   N05  An3
 BYTE   W12
 BYTE   PEND 
// 022   ----------------------------------------
Label_1_0135C01C:
 BYTE   N05  Gn1  v112
 BYTE   N05  Gn2
 BYTE   W12
 BYTE   Gn1
 BYTE   N05  Dn3
 BYTE   W12
 BYTE   Gn1
 BYTE   N05  Ds3
 BYTE   W12
 BYTE   Gn1
 BYTE   N05  Cn3
 BYTE   W12
 BYTE   Gn1
 BYTE   N05  Dn3
 BYTE   W12
 BYTE   Gn1
 BYTE   N05  Fn2
 BYTE   W12
 BYTE   Gn1
 BYTE   N05  Gn2
 BYTE   W12
 BYTE   Gn1
 BYTE   N05  Dn3
 BYTE   W12
 BYTE   PEND 
// 023   ----------------------------------------
Label_1_0135C03F:
 BYTE   N05  Gn1  v112
 BYTE   N05  Ds3
 BYTE   W12
 BYTE   Gn1
 BYTE   N05  Cn3
 BYTE   W12
 BYTE   Gn1
 BYTE   N05  Dn3
 BYTE   W12
 BYTE   Gn1
 BYTE   N05  Fn3
 BYTE   W12
 BYTE   Gn1
 BYTE   N05  Gn2
 BYTE   W12
 BYTE   Gn1
 BYTE   N05  Dn3
 BYTE   W12
 BYTE   Gn1
 BYTE   N05  Ds3
 BYTE   W12
 BYTE   Gn1
 BYTE   N05  Cn3
 BYTE   W12
 BYTE   PEND 
// 024   ----------------------------------------
Label_1_0135C062:
 BYTE   N05  Gn1  v112
 BYTE   N05  Dn3
 BYTE   W12
 BYTE   Gn1
 BYTE   N05  Fn2
 BYTE   W12
 BYTE   Gn1
 BYTE   N05  Gn2
 BYTE   W12
 BYTE   Gn1
 BYTE   N05  Dn3
 BYTE   W12
 BYTE   Gn1
 BYTE   N05  Ds3
 BYTE   W12
 BYTE   Gn1
 BYTE   N05  Cn3
 BYTE   W12
 BYTE   Gn1
 BYTE   N05  Dn3
 BYTE   W12
 BYTE   Gn1
 BYTE   N05  Fn3
 BYTE   W12
 BYTE   PEND 
 BYTE   PATT
  POIN2 Label_1_0135C01C
 BYTE   PATT
  POIN2 Label_1_0135C03F
 BYTE   PATT
  POIN2 Label_1_0135C062
 BYTE   PATT
  POIN2 Label_1_0135BDAC
 BYTE   PATT
  POIN2 Label_1_0135BD66
 BYTE   PATT
  POIN2 Label_1_0135BD89
 BYTE   PATT
  POIN2 Label_1_0135BDAC
 BYTE   PATT
  POIN2 Label_1_0135BD66
 BYTE   PATT
  POIN2 Label_1_0135BD89
 BYTE   PATT
  POIN2 Label_1_0135BDAC
 BYTE   PATT
  POIN2 Label_1_0135BD66
 BYTE   PATT
  POIN2 Label_1_0135BD89
 BYTE   PATT
  POIN2 Label_1_0135BDAC
 BYTE   PATT
  POIN2 Label_1_0135BD66
 BYTE   PATT
  POIN2 Label_1_0135BD89
 BYTE   PATT
  POIN2 Label_1_0135BDAC
 BYTE   PATT
  POIN2 Label_1_0135BD66
 BYTE   PATT
  POIN2 Label_1_0135BD89
 BYTE   PATT
  POIN2 Label_1_0135BDAC
 BYTE   PATT
  POIN2 Label_1_0135BD66
 BYTE   PATT
  POIN2 Label_1_0135BD89
 BYTE   PATT
  POIN2 Label_1_0135BDAC
 BYTE   PATT
  POIN2 Label_1_0135BE1A
 BYTE   PATT
  POIN2 Label_1_0135BE3A
 BYTE   PATT
  POIN2 Label_1_0135BE5B
 BYTE   PATT
  POIN2 Label_1_0135BE74
 BYTE   PATT
  POIN2 Label_1_0135BE93
 BYTE   PATT
  POIN2 Label_1_0135BE5B
 BYTE   PATT
  POIN2 Label_1_0135BEB5
 BYTE   PATT
  POIN2 Label_1_0135BED0
 BYTE   PATT
  POIN2 Label_1_0135BEE1
 BYTE   PATT
  POIN2 Label_1_0135BEF2
 BYTE   PATT
  POIN2 Label_1_0135BF05
 BYTE   PATT
  POIN2 Label_1_0135BF16
 BYTE   PATT
  POIN2 Label_1_0135BF27
 BYTE   PATT
  POIN2 Label_1_0135BF42
 BYTE   PATT
  POIN2 Label_1_0135BF65
 BYTE   PATT
  POIN2 Label_1_0135BF88
 BYTE   PATT
  POIN2 Label_1_0135BFAB
 BYTE   PATT
  POIN2 Label_1_0135BF65
 BYTE   PATT
  POIN2 Label_1_0135BFD4
 BYTE   PATT
  POIN2 Label_1_0135BFF8
 BYTE   PATT
  POIN2 Label_1_0135C01C
 BYTE   PATT
  POIN2 Label_1_0135C03F
 BYTE   PATT
  POIN2 Label_1_0135C062
 BYTE   PATT
  POIN2 Label_1_0135C01C
 BYTE   PATT
  POIN2 Label_1_0135C03F
 BYTE   PATT
  POIN2 Label_1_0135C062
 BYTE   PATT
  POIN2 Label_1_0135BDAC
 BYTE   PATT
  POIN2 Label_1_0135BD66
 BYTE   PATT
  POIN2 Label_1_0135BD89
 BYTE   PATT
  POIN2 Label_1_0135BDAC
 BYTE   PATT
  POIN2 Label_1_0135BD66
// 025   ----------------------------------------
 BYTE   N05  Gn1  v100
 BYTE   N05  Dn3
 BYTE   W12
 BYTE   Gn1
 BYTE   N05  As2
 BYTE   W12
 BYTE   Gn1
 BYTE   N05  Gn2
 BYTE   W12
 BYTE   Gn1
 BYTE   N05  Dn3
 BYTE   W12
 BYTE   Gn1
 BYTE   N05  Ds3
 BYTE   W12
 BYTE   Gn1
 BYTE   N05  Dn3
 BYTE   W12
 BYTE   Gn1
 BYTE   N05  Cn3
 BYTE   W12
 BYTE   Gn1
 BYTE   N05  Dn3
 BYTE   W11
 BYTE   GoTo
  POIN2 Label_1_0135BD3A
 BYTE   FINE

//**************** Track 3 (Midi-Chn.2) ****************//

FF10EnemyAttackAReliableChair_003:
// 000   ----------------------------------------
 BYTE   KEYSH   FF10EnemyAttackAReliableChair_key+0
Label_2_0135C1BA:
 BYTE   VOICE   18
 BYTE   MODT 0
 BYTE   CnM2
 BYTE   LFOS 0
 BYTE   Gs1
 BYTE   VOL   36*FF10EnemyAttackAReliableChair_mvl/mxv
 BYTE   PAN   c_v+0
 BYTE   W96
// 001   ----------------------------------------
 BYTE   W96
// 002   ----------------------------------------
 BYTE   W96
// 003   ----------------------------------------
 BYTE   W96
// 004   ----------------------------------------
 BYTE   W96
// 005   ----------------------------------------
 BYTE   W96
// 006   ----------------------------------------
Label_2_0135C1CA:
 BYTE   TIE  An3  v088
 BYTE   TIE  As3
 BYTE   TIE  Dn4
 BYTE   TIE  Fn4
 BYTE   W96
 BYTE   PEND 
// 007   ----------------------------------------
 BYTE   W96
// 008   ----------------------------------------
 BYTE   W24
 BYTE   EOT
 BYTE   An3  v070
 BYTE   Dn4  v077
 BYTE   N72  Fn3
 BYTE   N72  Gn3
 BYTE   N72  As3
 BYTE   N72  Dn4
 BYTE   W72
// 009   ----------------------------------------
Label_2_0135C1E5:
 BYTE   TIE  Gn3  v088
 BYTE   TIE  Gs3
 BYTE   TIE  Cn4
 BYTE   TIE  Ds4
 BYTE   W96
 BYTE   PEND 
// 010   ----------------------------------------
 BYTE   W96
// 011   ----------------------------------------
 BYTE   W96
// 012   ----------------------------------------
 BYTE   EOT
 BYTE   Gn3  v068
 BYTE   Cn4  v075
 BYTE   PATT
  POIN2 Label_2_0135C1CA
// 013   ----------------------------------------
 BYTE   W96
// 014   ----------------------------------------
 BYTE   W24
 BYTE   EOT
 BYTE   An3  v070
 BYTE   Dn4  v077
 BYTE   N72  Fn3  v088
 BYTE   N72  Gn3
 BYTE   N72  As3
 BYTE   N72  Dn4
 BYTE   W72
 BYTE   PATT
  POIN2 Label_2_0135C1E5
// 015   ----------------------------------------
 BYTE   W96
// 016   ----------------------------------------
Label_2_0135C213:
 BYTE   W92
 BYTE   W02
 BYTE   VOL   35*FF10EnemyAttackAReliableChair_mvl/mxv
 BYTE   W02
 BYTE   PEND 
// 017   ----------------------------------------
Label_2_0135C219:
 BYTE   VOL   35*FF10EnemyAttackAReliableChair_mvl/mxv
 BYTE   W01
 BYTE   As0
 BYTE   W01
 BYTE   As0
 BYTE   W02
 BYTE   An0
 BYTE   W01
 BYTE   An0
 BYTE   W01
 BYTE   An0
 BYTE   W02
 BYTE   Gs0
 BYTE   W02
 BYTE   Gn0
 BYTE   W01
 BYTE   Gn0
 BYTE   W01
 BYTE   Fs0
 BYTE   W02
 BYTE   Fs0
 BYTE   W01
 BYTE   Fs0
 BYTE   W01
 BYTE   Fn0
 BYTE   W02
 BYTE   Fn0
 BYTE   W02
 BYTE   En0
 BYTE   W01
 BYTE   En0
 BYTE   W01
 BYTE   En0
 BYTE   W02
 BYTE   Ds0
 BYTE   W01
 BYTE   Ds0
 BYTE   W01
 BYTE   Dn0
 BYTE   W02
 BYTE   Cs0
 BYTE   W02
 BYTE   Cs0
 BYTE   W01
 BYTE   Cs0
 BYTE   W01
 BYTE   Cs0
 BYTE   W02
 BYTE   Cn0
 BYTE   W01
 BYTE   Cn0
 BYTE   W01
 BYTE   BnM1
 BYTE   W02
 BYTE   BnM1
 BYTE   W02
 BYTE   BnM1
 BYTE   W01
 BYTE   AsM1
 BYTE   W01
 BYTE   AsM1
 BYTE   W02
 BYTE   AnM1
 BYTE   W01
 BYTE   AnM1
 BYTE   W01
 BYTE   AnM1
 BYTE   W02
 BYTE   GsM1
 BYTE   W02
 BYTE   GsM1
 BYTE   W01
 BYTE   GnM1
 BYTE   W01
 BYTE   GnM1
 BYTE   W02
 BYTE   FsM1
 BYTE   W01
 BYTE   FsM1
 BYTE   W01
 BYTE   FsM1
 BYTE   W02
 BYTE   FsM1
 BYTE   W02
 BYTE   FnM1
 BYTE   W01
 BYTE   FnM1
 BYTE   W01
 BYTE   EnM1
 BYTE   W02
 BYTE   EnM1
 BYTE   W01
 BYTE   EnM1
 BYTE   W01
 BYTE   EnM1
 BYTE   W02
 BYTE   DsM1
 BYTE   W02
 BYTE   DnM1
 BYTE   W01
 BYTE   DnM1
 BYTE   W01
 BYTE   DnM1
 BYTE   W02
 BYTE   DnM1
 BYTE   W01
 BYTE   CsM1
 BYTE   W01
 BYTE   CsM1
 BYTE   W02
 BYTE   CnM1
 BYTE   W02
 BYTE   CnM1
 BYTE   W01
 BYTE   CnM1
 BYTE   W01
 BYTE   CnM1
 BYTE   W02
 BYTE   CnM1
 BYTE   W01
 BYTE   BnM2
 BYTE   W01
 BYTE   BnM2
 BYTE   W02
 BYTE   BnM2
 BYTE   W02
 BYTE   BnM2
 BYTE   W01
 BYTE   AsM2
 BYTE   W01
 BYTE   AsM2
 BYTE   W02
 BYTE   AnM2
 BYTE   W01
 BYTE   AnM2
 BYTE   W01
 BYTE   PEND 
// 018   ----------------------------------------
Label_2_0135C2A3:
 BYTE   VOL   9*FF10EnemyAttackAReliableChair_mvl/mxv
 BYTE   W02
 BYTE   AnM2
 BYTE   W02
 BYTE   AnM2
 BYTE   W01
 BYTE   GsM2
 BYTE   W01
 BYTE   GsM2
 BYTE   W02
 BYTE   GnM2
 BYTE   W01
 BYTE   GnM2
 BYTE   W01
 BYTE   GnM2
 BYTE   W02
 BYTE   GnM2
 BYTE   W02
 BYTE   GnM2
 BYTE   W01
 BYTE   FsM2
 BYTE   W01
 BYTE   FsM2
 BYTE   W02
 BYTE   FsM2
 BYTE   W01
 BYTE   FsM2
 BYTE   W01
 BYTE   FnM2
 BYTE   W02
 BYTE   FnM2
 BYTE   W02
 BYTE   FnM2
 BYTE   W01
 BYTE   FnM2
 BYTE   W01
 BYTE   FnM2
 BYTE   W02
 BYTE   EnM2
 BYTE   W01
 BYTE   EnM2
 BYTE   W01
 BYTE   EnM2
 BYTE   W02
 BYTE   DsM2
 BYTE   W02
 BYTE   DsM2
 BYTE   W01
 BYTE   DsM2
 BYTE   W01
 BYTE   DsM2
 BYTE   W02
 BYTE   DsM2
 BYTE   W01
 BYTE   DsM2
 BYTE   W01
 BYTE   DnM2
 BYTE   W02
 BYTE   PEND 
 BYTE   EOT
 BYTE   Gn3  v068
 BYTE   Cn4  v075
 BYTE   W03
 BYTE   VOL   36*FF10EnemyAttackAReliableChair_mvl/mxv
 BYTE   W03
 BYTE   TIE  Cn4  v088
 BYTE   TIE  Cs4
 BYTE   TIE  Fn4
 BYTE   TIE  Gs4
 BYTE   W48
// 019   ----------------------------------------
Label_2_0135C2F2:
 BYTE   W23
 BYTE   VOL   36*FF10EnemyAttackAReliableChair_mvl/mxv
 BYTE   W03
 BYTE   Bn0
 BYTE   W02
 BYTE   Bn0
 BYTE   W02
 BYTE   As0
 BYTE   W02
 BYTE   As0
 BYTE   W02
 BYTE   An0
 BYTE   W02
 BYTE   An0
 BYTE   W02
 BYTE   An0
 BYTE   W02
 BYTE   Gs0
 BYTE   W02
 BYTE   Gn0
 BYTE   W02
 BYTE   Gn0
 BYTE   W02
 BYTE   Fs0
 BYTE   W02
 BYTE   Fs0
 BYTE   W02
 BYTE   Fs0
 BYTE   W02
 BYTE   Fn0
 BYTE   W02
 BYTE   Fn0
 BYTE   W02
 BYTE   En0
 BYTE   W03
 BYTE   En0
 BYTE   W02
 BYTE   En0
 BYTE   W02
 BYTE   Ds0
 BYTE   W02
 BYTE   Ds0
 BYTE   W02
 BYTE   Dn0
 BYTE   W02
 BYTE   Cs0
 BYTE   W02
 BYTE   Cs0
 BYTE   W02
 BYTE   Cs0
 BYTE   W03
 BYTE   Cs0
 BYTE   W02
 BYTE   Cn0
 BYTE   W02
 BYTE   Cn0
 BYTE   W02
 BYTE   BnM1
 BYTE   W02
 BYTE   BnM1
 BYTE   W02
 BYTE   BnM1
 BYTE   W02
 BYTE   AsM1
 BYTE   W02
 BYTE   AsM1
 BYTE   W02
 BYTE   AnM1
 BYTE   W02
 BYTE   AnM1
 BYTE   W02
 BYTE   PEND 
// 020   ----------------------------------------
Label_2_0135C33B:
 BYTE   VOL   21*FF10EnemyAttackAReliableChair_mvl/mxv
 BYTE   W02
 BYTE   GsM1
 BYTE   W02
 BYTE   GsM1
 BYTE   W02
 BYTE   GnM1
 BYTE   W02
 BYTE   GnM1
 BYTE   W02
 BYTE   FsM1
 BYTE   W03
 BYTE   FsM1
 BYTE   W02
 BYTE   FsM1
 BYTE   W02
 BYTE   FsM1
 BYTE   W02
 BYTE   FnM1
 BYTE   W02
 BYTE   FnM1
 BYTE   W02
 BYTE   EnM1
 BYTE   W02
 BYTE   EnM1
 BYTE   W02
 BYTE   EnM1
 BYTE   W03
 BYTE   EnM1
 BYTE   W02
 BYTE   DsM1
 BYTE   W02
 BYTE   DnM1
 BYTE   W02
 BYTE   DnM1
 BYTE   W02
 BYTE   DnM1
 BYTE   W02
 BYTE   DnM1
 BYTE   W02
 BYTE   CsM1
 BYTE   W02
 BYTE   CsM1
 BYTE   W02
 BYTE   CnM1
 BYTE   W02
 BYTE   CnM1
 BYTE   W02
 BYTE   CnM1
 BYTE   W02
 BYTE   CnM1
 BYTE   W02
 BYTE   CnM1
 BYTE   W02
 BYTE   BnM2
 BYTE   W02
 BYTE   BnM2
 BYTE   W02
 BYTE   BnM2
 BYTE   W03
 BYTE   BnM2
 BYTE   W02
 BYTE   AsM2
 BYTE   W02
 BYTE   AsM2
 BYTE   W02
 BYTE   AnM2
 BYTE   W02
 BYTE   AnM2
 BYTE   W02
 BYTE   AnM2
 BYTE   W02
 BYTE   AnM2
 BYTE   W02
 BYTE   AnM2
 BYTE   W03
 BYTE   GsM2
 BYTE   W02
 BYTE   GsM2
 BYTE   W02
 BYTE   GnM2
 BYTE   W02
 BYTE   GnM2
 BYTE   W02
 BYTE   GnM2
 BYTE   W02
 BYTE   GnM2
 BYTE   W02
 BYTE   GnM2
 BYTE   W02
 BYTE   FsM2
 BYTE   W02
 BYTE   PEND 
// 021   ----------------------------------------
Label_2_0135C399:
 BYTE   VOL   6*FF10EnemyAttackAReliableChair_mvl/mxv
 BYTE   W02
 BYTE   FsM2
 BYTE   W02
 BYTE   FsM2
 BYTE   W02
 BYTE   FnM2
 BYTE   W02
 BYTE   FnM2
 BYTE   W02
 BYTE   FnM2
 BYTE   W02
 BYTE   FnM2
 BYTE   W02
 BYTE   FnM2
 BYTE   W03
 BYTE   EnM2
 BYTE   W02
 BYTE   EnM2
 BYTE   W02
 BYTE   EnM2
 BYTE   W02
 BYTE   DsM2
 BYTE   W02
 BYTE   DsM2
 BYTE   W02
 BYTE   DsM2
 BYTE   W02
 BYTE   DsM2
 BYTE   W02
 BYTE   DsM2
 BYTE   W03
 BYTE   DsM2
 BYTE   W02
 BYTE   DnM2
 BYTE   W02
 BYTE   DnM2
 BYTE   W02
 BYTE   DnM2
 BYTE   W02
 BYTE   DnM2
 BYTE   W02
 BYTE   DnM2
 BYTE   W02
 BYTE   CsM2
 BYTE   W02
 BYTE   PEND 
 BYTE   EOT
 BYTE   Cn4  v073
 BYTE   Fn4  v080
 BYTE   VOL   1*FF10EnemyAttackAReliableChair_mvl/mxv
 BYTE   W02
 BYTE   CsM2
 BYTE   W24
 BYTE   W03
 BYTE   Cn1
 BYTE   W01
 BYTE   Bn0
 BYTE   W18
// 022   ----------------------------------------
 BYTE   W96
// 023   ----------------------------------------
 BYTE   W96
// 024   ----------------------------------------
 BYTE   W96
// 025   ----------------------------------------
 BYTE   W96
// 026   ----------------------------------------
 BYTE   W96
// 027   ----------------------------------------
 BYTE   W96
// 028   ----------------------------------------
 BYTE   W96
// 029   ----------------------------------------
 BYTE   W96
// 030   ----------------------------------------
Label_2_0135C3E0:
 BYTE   W24
 BYTE   N03  Fs4  v072
 BYTE   W03
 BYTE   Gn4
 BYTE   W03
 BYTE   An4
 BYTE   W03
 BYTE   Bn4
 BYTE   W03
 BYTE   Cn5
 BYTE   W03
 BYTE   Dn5
 BYTE   W03
 BYTE   En5
 BYTE   W03
 BYTE   Fn5
 BYTE   W03
 BYTE   TIE  Fs5
 BYTE   W48
 BYTE   PEND 
// 031   ----------------------------------------
 BYTE   W96
// 032   ----------------------------------------
 BYTE   EOT
 BYTE   TIE  Gs5
 BYTE   W96
// 033   ----------------------------------------
 BYTE   W48
 BYTE   EOT
 BYTE   TIE  An5
 BYTE   W48
// 034   ----------------------------------------
 BYTE   W96
// 035   ----------------------------------------
 BYTE   EOT
 BYTE   TIE  Bn5
 BYTE   W96
// 036   ----------------------------------------
 BYTE   W48
 BYTE   EOT
 BYTE   TIE  An5
 BYTE   W48
// 037   ----------------------------------------
 BYTE   W96
// 038   ----------------------------------------
 BYTE   EOT
 BYTE   TIE  Gn5
 BYTE   W96
// 039   ----------------------------------------
 BYTE   W48
 BYTE   EOT
 BYTE   TIE  An5
 BYTE   W48
// 040   ----------------------------------------
 BYTE   W96
// 041   ----------------------------------------
 BYTE   EOT
 BYTE   TIE  As5
 BYTE   W96
// 042   ----------------------------------------
 BYTE   W48
 BYTE   EOT
 BYTE   TIE  Cn6
 BYTE   W48
// 043   ----------------------------------------
 BYTE   W96
// 044   ----------------------------------------
 BYTE   EOT
 BYTE   W96
// 045   ----------------------------------------
 BYTE   W96
// 046   ----------------------------------------
 BYTE   W96
// 047   ----------------------------------------
 BYTE   W96
// 048   ----------------------------------------
 BYTE   W96
// 049   ----------------------------------------
 BYTE   W96
 BYTE   PATT
  POIN2 Label_2_0135C1CA
// 050   ----------------------------------------
 BYTE   W96
// 051   ----------------------------------------
 BYTE   W24
 BYTE   EOT
 BYTE   An3  v070
 BYTE   Dn4  v077
 BYTE   N72  Fn3  v088
 BYTE   N72  Gn3
 BYTE   N72  As3
 BYTE   N72  Dn4
 BYTE   W72
 BYTE   PATT
  POIN2 Label_2_0135C1E5
// 052   ----------------------------------------
 BYTE   W96
// 053   ----------------------------------------
 BYTE   W96
// 054   ----------------------------------------
 BYTE   EOT
 BYTE   Gn3  v068
 BYTE   Cn4  v075
 BYTE   PATT
  POIN2 Label_2_0135C1CA
// 055   ----------------------------------------
 BYTE   W96
// 056   ----------------------------------------
 BYTE   W24
 BYTE   EOT
 BYTE   An3  v070
 BYTE   Dn4  v077
 BYTE   N72  Fn3  v088
 BYTE   N72  Gn3
 BYTE   N72  As3
 BYTE   N72  Dn4
 BYTE   W72
 BYTE   PATT
  POIN2 Label_2_0135C1E5
// 057   ----------------------------------------
 BYTE   W96
 BYTE   PATT
  POIN2 Label_2_0135C213
 BYTE   PATT
  POIN2 Label_2_0135C219
 BYTE   PATT
  POIN2 Label_2_0135C2A3
// 058   ----------------------------------------
 BYTE   EOT
 BYTE   Gn3  v068
 BYTE   Cn4  v075
 BYTE   W03
 BYTE   VOL   36*FF10EnemyAttackAReliableChair_mvl/mxv
 BYTE   W03
 BYTE   TIE  Cn4  v088
 BYTE   TIE  Cs4
 BYTE   TIE  Fn4
 BYTE   TIE  Gs4
 BYTE   W48
 BYTE   PATT
  POIN2 Label_2_0135C2F2
 BYTE   PATT
  POIN2 Label_2_0135C33B
 BYTE   PATT
  POIN2 Label_2_0135C399
// 059   ----------------------------------------
 BYTE   EOT
 BYTE   Cn4  v073
 BYTE   Fn4  v080
 BYTE   VOL   1*FF10EnemyAttackAReliableChair_mvl/mxv
 BYTE   W02
 BYTE   CsM2
 BYTE   W24
 BYTE   W03
 BYTE   Cn1
 BYTE   W01
 BYTE   Bn0
 BYTE   W18
 BYTE   W96
// 060   ----------------------------------------
 BYTE   W96
// 061   ----------------------------------------
 BYTE   W96
// 062   ----------------------------------------
 BYTE   W96
// 063   ----------------------------------------
 BYTE   W96
// 064   ----------------------------------------
 BYTE   W96
// 065   ----------------------------------------
 BYTE   W96
// 066   ----------------------------------------
 BYTE   W96
 BYTE   PATT
  POIN2 Label_2_0135C3E0
// 067   ----------------------------------------
 BYTE   W96
// 068   ----------------------------------------
 BYTE   EOT
 BYTE   Fs5
 BYTE   TIE  Gs5  v072
 BYTE   W96
// 069   ----------------------------------------
 BYTE   W48
 BYTE   EOT
 BYTE   TIE  An5
 BYTE   W48
// 070   ----------------------------------------
 BYTE   W96
// 071   ----------------------------------------
 BYTE   EOT
 BYTE   TIE  Bn5
 BYTE   W96
// 072   ----------------------------------------
 BYTE   W48
 BYTE   EOT
 BYTE   TIE  An5
 BYTE   W48
// 073   ----------------------------------------
 BYTE   W96
// 074   ----------------------------------------
 BYTE   EOT
 BYTE   TIE  Gn5
 BYTE   W96
// 075   ----------------------------------------
 BYTE   W48
 BYTE   EOT
 BYTE   TIE  An5
 BYTE   W48
// 076   ----------------------------------------
 BYTE   W96
// 077   ----------------------------------------
 BYTE   EOT
 BYTE   TIE  As5
 BYTE   W96
// 078   ----------------------------------------
 BYTE   W48
 BYTE   EOT
 BYTE   TIE  Cn6
 BYTE   W48
// 079   ----------------------------------------
 BYTE   W96
// 080   ----------------------------------------
 BYTE   EOT
 BYTE   W96
// 081   ----------------------------------------
 BYTE   W96
// 082   ----------------------------------------
 BYTE   W96
// 083   ----------------------------------------
 BYTE   W96
// 084   ----------------------------------------
 BYTE   W96
// 085   ----------------------------------------
 BYTE   W92
 BYTE   W01
 BYTE   VOL   36*FF10EnemyAttackAReliableChair_mvl/mxv
 BYTE   W02
 BYTE   GoTo
  POIN2 Label_2_0135C1BA
 BYTE   FINE

//**************** Track 4 (Midi-Chn.3) ****************//

FF10EnemyAttackAReliableChair_004:
// 000   ----------------------------------------
 BYTE   KEYSH   FF10EnemyAttackAReliableChair_key+0
Label_3_0135C4F2:
 BYTE   VOICE   49
 BYTE   BENDR  61
 BYTE   MODT 0
 BYTE   CnM2
 BYTE   LFOS 0
 BYTE   Gs1
 BYTE   VOL   39*FF10EnemyAttackAReliableChair_mvl/mxv
 BYTE   PAN   c_v+0
 BYTE   W96
// 001   ----------------------------------------
 BYTE   W96
// 002   ----------------------------------------
 BYTE   W96
// 003   ----------------------------------------
 BYTE   W96
// 004   ----------------------------------------
 BYTE   W96
// 005   ----------------------------------------
 BYTE   W96
// 006   ----------------------------------------
 BYTE   W96
// 007   ----------------------------------------
 BYTE   W96
// 008   ----------------------------------------
 BYTE   W96
// 009   ----------------------------------------
 BYTE   W96
// 010   ----------------------------------------
 BYTE   W96
// 011   ----------------------------------------
 BYTE   W96
// 012   ----------------------------------------
 BYTE   TIE  Gn4  v088
 BYTE   W96
// 013   ----------------------------------------
 BYTE   W96
// 014   ----------------------------------------
 BYTE   W96
// 015   ----------------------------------------
 BYTE   W96
// 016   ----------------------------------------
 BYTE   W96
// 017   ----------------------------------------
 BYTE   W96
// 018   ----------------------------------------
 BYTE   W96
// 019   ----------------------------------------
 BYTE   W48
 BYTE   EOT
 BYTE   TIE  As4
 BYTE   W48
// 020   ----------------------------------------
Label_3_0135C519:
 BYTE   W22
 BYTE   VOL   39*FF10EnemyAttackAReliableChair_mvl/mxv
 BYTE   W02
 BYTE   Dn1
 BYTE   W03
 BYTE   Dn1
 BYTE   W03
 BYTE   Cs1
 BYTE   W02
 BYTE   Cs1
 BYTE   W02
 BYTE   Cn1
 BYTE   W03
 BYTE   Bn0
 BYTE   W02
 BYTE   Bn0
 BYTE   W03
 BYTE   Bn0
 BYTE   W02
 BYTE   As0
 BYTE   W02
 BYTE   As0
 BYTE   W03
 BYTE   An0
 BYTE   W03
 BYTE   An0
 BYTE   W02
 BYTE   Gs0
 BYTE   W02
 BYTE   Gn0
 BYTE   W03
 BYTE   Gn0
 BYTE   W02
 BYTE   Gn0
 BYTE   W03
 BYTE   Fs0
 BYTE   W02
 BYTE   Fs0
 BYTE   W02
 BYTE   Fn0
 BYTE   W03
 BYTE   Fn0
 BYTE   W03
 BYTE   En0
 BYTE   W02
 BYTE   En0
 BYTE   W02
 BYTE   En0
 BYTE   W03
 BYTE   Ds0
 BYTE   W03
 BYTE   Ds0
 BYTE   W02
 BYTE   Dn0
 BYTE   W02
 BYTE   Cs0
 BYTE   W03
 BYTE   Cs0
 BYTE   W02
 BYTE   Cs0
 BYTE   W03
 BYTE   PEND 
// 021   ----------------------------------------
Label_3_0135C558:
 BYTE   VOL   25*FF10EnemyAttackAReliableChair_mvl/mxv
 BYTE   W02
 BYTE   Cn0
 BYTE   W02
 BYTE   Cn0
 BYTE   W03
 BYTE   BnM1
 BYTE   W03
 BYTE   BnM1
 BYTE   W02
 BYTE   AsM1
 BYTE   W02
 BYTE   AsM1
 BYTE   W03
 BYTE   AnM1
 BYTE   W02
 BYTE   AnM1
 BYTE   W03
 BYTE   AnM1
 BYTE   W02
 BYTE   GsM1
 BYTE   W02
 BYTE   GsM1
 BYTE   W03
 BYTE   GnM1
 BYTE   W03
 BYTE   GnM1
 BYTE   W02
 BYTE   FsM1
 BYTE   W02
 BYTE   FsM1
 BYTE   W03
 BYTE   FsM1
 BYTE   W03
 BYTE   FsM1
 BYTE   W02
 BYTE   FnM1
 BYTE   W02
 BYTE   FnM1
 BYTE   W03
 BYTE   EnM1
 BYTE   W02
 BYTE   EnM1
 BYTE   W03
 BYTE   EnM1
 BYTE   W02
 BYTE   EnM1
 BYTE   W02
 BYTE   DsM1
 BYTE   W03
 BYTE   DnM1
 BYTE   W03
 BYTE   DnM1
 BYTE   W02
 BYTE   DnM1
 BYTE   W02
 BYTE   CsM1
 BYTE   W03
 BYTE   CsM1
 BYTE   W02
 BYTE   CsM1
 BYTE   W03
 BYTE   CnM1
 BYTE   W02
 BYTE   CnM1
 BYTE   W02
 BYTE   CnM1
 BYTE   W03
 BYTE   CnM1
 BYTE   W03
 BYTE   BnM2
 BYTE   W02
 BYTE   BnM2
 BYTE   W02
 BYTE   BnM2
 BYTE   W03
 BYTE   BnM2
 BYTE   W03
 BYTE   PEND 
// 022   ----------------------------------------
Label_3_0135C5A8:
 BYTE   VOL   10*FF10EnemyAttackAReliableChair_mvl/mxv
 BYTE   W02
 BYTE   AsM2
 BYTE   W02
 BYTE   AnM2
 BYTE   W03
 BYTE   AnM2
 BYTE   W02
 BYTE   AnM2
 BYTE   W03
 BYTE   AnM2
 BYTE   W02
 BYTE   AnM2
 BYTE   W02
 BYTE   GsM2
 BYTE   W03
 BYTE   GsM2
 BYTE   W03
 BYTE   GnM2
 BYTE   W02
 BYTE   GnM2
 BYTE   W02
 BYTE   GnM2
 BYTE   W03
 BYTE   GnM2
 BYTE   W02
 BYTE   FsM2
 BYTE   W03
 BYTE   FsM2
 BYTE   W02
 BYTE   FsM2
 BYTE   W02
 BYTE   FsM2
 BYTE   W03
 BYTE   FnM2
 BYTE   W03
 BYTE   FnM2
 BYTE   W02
 BYTE   FnM2
 BYTE   W02
 BYTE   PEND 
 BYTE   EOT
 BYTE   As4
 BYTE   W21
 BYTE   VOL   39*FF10EnemyAttackAReliableChair_mvl/mxv
 BYTE   W24
 BYTE   W03
// 023   ----------------------------------------
 BYTE   W96
// 024   ----------------------------------------
 BYTE   W96
// 025   ----------------------------------------
Label_3_0135C5DB:
 BYTE   W48
 BYTE   TIE  Fs4  v088
 BYTE   W48
 BYTE   PEND 
// 026   ----------------------------------------
 BYTE   W96
// 027   ----------------------------------------
 BYTE   W96
// 028   ----------------------------------------
 BYTE   W48
 BYTE   EOT
 BYTE   TIE  Gn4
 BYTE   W48
// 029   ----------------------------------------
 BYTE   W96
// 030   ----------------------------------------
 BYTE   EOT
 BYTE   TIE  An4
 BYTE   W96
// 031   ----------------------------------------
 BYTE   W48
 BYTE   EOT
 BYTE   W48
// 032   ----------------------------------------
 BYTE   W96
// 033   ----------------------------------------
 BYTE   W96
// 034   ----------------------------------------
 BYTE   W96
// 035   ----------------------------------------
 BYTE   W96
// 036   ----------------------------------------
 BYTE   W96
// 037   ----------------------------------------
Label_3_0135C5F5:
 BYTE   W48
 BYTE   TIE  Cs5  v088
 BYTE   W48
 BYTE   PEND 
// 038   ----------------------------------------
 BYTE   W96
// 039   ----------------------------------------
 BYTE   EOT
 BYTE   TIE  Dn5
 BYTE   W96
// 040   ----------------------------------------
 BYTE   W48
 BYTE   EOT
 BYTE   TIE  Gn4
 BYTE   W48
// 041   ----------------------------------------
 BYTE   W96
// 042   ----------------------------------------
 BYTE   EOT
 BYTE   TIE
 BYTE   W96
// 043   ----------------------------------------
 BYTE   W48
 BYTE   EOT
 BYTE   TIE
 BYTE   W48
// 044   ----------------------------------------
 BYTE   W96
// 045   ----------------------------------------
 BYTE   EOT
 BYTE   W96
// 046   ----------------------------------------
 BYTE   W96
// 047   ----------------------------------------
 BYTE   W96
// 048   ----------------------------------------
 BYTE   W96
// 049   ----------------------------------------
 BYTE   W96
// 050   ----------------------------------------
 BYTE   W96
// 051   ----------------------------------------
 BYTE   W96
// 052   ----------------------------------------
 BYTE   W96
// 053   ----------------------------------------
 BYTE   W96
// 054   ----------------------------------------
 BYTE   W96
// 055   ----------------------------------------
 BYTE   W96
// 056   ----------------------------------------
 BYTE   W96
// 057   ----------------------------------------
 BYTE   TIE
 BYTE   W96
// 058   ----------------------------------------
 BYTE   W96
// 059   ----------------------------------------
 BYTE   W96
// 060   ----------------------------------------
 BYTE   W96
// 061   ----------------------------------------
 BYTE   W96
// 062   ----------------------------------------
 BYTE   W96
// 063   ----------------------------------------
 BYTE   W96
// 064   ----------------------------------------
 BYTE   W48
 BYTE   EOT
 BYTE   TIE  As4
 BYTE   W48
 BYTE   PATT
  POIN2 Label_3_0135C519
 BYTE   PATT
  POIN2 Label_3_0135C558
 BYTE   PATT
  POIN2 Label_3_0135C5A8
// 065   ----------------------------------------
 BYTE   EOT
 BYTE   As4
 BYTE   W21
 BYTE   VOL   39*FF10EnemyAttackAReliableChair_mvl/mxv
 BYTE   W24
 BYTE   W03
 BYTE   W96
// 066   ----------------------------------------
 BYTE   W96
 BYTE   PATT
  POIN2 Label_3_0135C5DB
// 067   ----------------------------------------
 BYTE   W96
// 068   ----------------------------------------
 BYTE   W96
// 069   ----------------------------------------
 BYTE   W48
 BYTE   EOT
 BYTE   Fs4
 BYTE   TIE  Gn4  v088
 BYTE   W48
// 070   ----------------------------------------
 BYTE   W96
// 071   ----------------------------------------
 BYTE   EOT
 BYTE   TIE  An4
 BYTE   W96
// 072   ----------------------------------------
 BYTE   W48
 BYTE   EOT
 BYTE   W48
// 073   ----------------------------------------
 BYTE   W96
// 074   ----------------------------------------
 BYTE   W96
// 075   ----------------------------------------
 BYTE   W96
// 076   ----------------------------------------
 BYTE   W96
// 077   ----------------------------------------
 BYTE   W96
 BYTE   PATT
  POIN2 Label_3_0135C5F5
// 078   ----------------------------------------
 BYTE   W96
// 079   ----------------------------------------
 BYTE   EOT
 BYTE   Cs5
 BYTE   TIE  Dn5  v088
 BYTE   W96
// 080   ----------------------------------------
 BYTE   W48
 BYTE   EOT
 BYTE   TIE  Gn4
 BYTE   W48
// 081   ----------------------------------------
 BYTE   W96
// 082   ----------------------------------------
 BYTE   EOT
 BYTE   TIE
 BYTE   W96
// 083   ----------------------------------------
 BYTE   W48
 BYTE   EOT
 BYTE   TIE
 BYTE   W48
// 084   ----------------------------------------
 BYTE   W96
// 085   ----------------------------------------
 BYTE   EOT
 BYTE   W96
// 086   ----------------------------------------
 BYTE   W96
// 087   ----------------------------------------
 BYTE   W96
// 088   ----------------------------------------
 BYTE   W96
// 089   ----------------------------------------
 BYTE   W96
// 090   ----------------------------------------
 BYTE   W92
 BYTE   W03
 BYTE   GoTo
  POIN2 Label_3_0135C4F2
 BYTE   FINE

//**************** Track 5 (Midi-Chn.4) ****************//

FF10EnemyAttackAReliableChair_005:
// 000   ----------------------------------------
 BYTE   KEYSH   FF10EnemyAttackAReliableChair_key+0
Label_4_0135C686:
 BYTE   VOICE   48
 BYTE   BENDR  68
 BYTE   MODT 0
 BYTE   CnM2
 BYTE   LFOS 0
 BYTE   Gs1
 BYTE   VOL   39*FF10EnemyAttackAReliableChair_mvl/mxv
 BYTE   PAN   c_v+0
 BYTE   N05  Gn0  v088
 BYTE   N05  Gn1
 BYTE   W12
 BYTE   Gn0
 BYTE   W12
 BYTE   N05
 BYTE   W12
 BYTE   N05
 BYTE   N05  Gn1
 BYTE   W12
 BYTE   Gn0
 BYTE   W12
 BYTE   N05
 BYTE   W12
 BYTE   N05
 BYTE   N05  Gn1
 BYTE   W12
 BYTE   Gn0
 BYTE   W12
// 001   ----------------------------------------
Label_4_0135C6AA:
 BYTE   N05  Gn0  v088
 BYTE   N05  Gn1
 BYTE   W12
 BYTE   Gn0
 BYTE   W12
 BYTE   N05
 BYTE   N05  Gn1
 BYTE   W12
 BYTE   Gn0
 BYTE   W12
 BYTE   N05
 BYTE   N05  Gn1
 BYTE   W12
 BYTE   Gn0
 BYTE   W12
 BYTE   N05
 BYTE   W12
 BYTE   N05
 BYTE   N05  Gn1
 BYTE   W12
 BYTE   PEND 
// 002   ----------------------------------------
Label_4_0135C6C5:
 BYTE   N05  Gn0  v088
 BYTE   W12
 BYTE   N05
 BYTE   W12
 BYTE   N05
 BYTE   N05  Gn1
 BYTE   W12
 BYTE   Gn0
 BYTE   W12
 BYTE   N05
 BYTE   N05  Gn1
 BYTE   W12
 BYTE   Gn0
 BYTE   W12
 BYTE   N05
 BYTE   N05  Gn1
 BYTE   W12
 BYTE   Gn0
 BYTE   W12
 BYTE   PEND 
// 003   ----------------------------------------
Label_4_0135C6DE:
 BYTE   N05  Gn0  v088
 BYTE   N05  Gn1
 BYTE   W12
 BYTE   Gn0
 BYTE   W12
 BYTE   N05
 BYTE   W12
 BYTE   N05
 BYTE   N05  Gn1
 BYTE   W12
 BYTE   Gn0
 BYTE   W12
 BYTE   N05
 BYTE   W12
 BYTE   N05
 BYTE   N05  Gn1
 BYTE   W12
 BYTE   Gn0
 BYTE   W12
 BYTE   PEND 
 BYTE   PATT
  POIN2 Label_4_0135C6AA
 BYTE   PATT
  POIN2 Label_4_0135C6C5
 BYTE   PATT
  POIN2 Label_4_0135C6DE
 BYTE   PATT
  POIN2 Label_4_0135C6AA
 BYTE   PATT
  POIN2 Label_4_0135C6C5
 BYTE   PATT
  POIN2 Label_4_0135C6DE
 BYTE   PATT
  POIN2 Label_4_0135C6AA
 BYTE   PATT
  POIN2 Label_4_0135C6C5
 BYTE   PATT
  POIN2 Label_4_0135C6DE
 BYTE   PATT
  POIN2 Label_4_0135C6AA
 BYTE   PATT
  POIN2 Label_4_0135C6C5
 BYTE   PATT
  POIN2 Label_4_0135C6DE
 BYTE   PATT
  POIN2 Label_4_0135C6AA
 BYTE   PATT
  POIN2 Label_4_0135C6C5
 BYTE   PATT
  POIN2 Label_4_0135C6DE
// 004   ----------------------------------------
Label_4_0135C742:
 BYTE   N05  Gn0  v088
 BYTE   N05  Gn1
 BYTE   W12
 BYTE   Gn0
 BYTE   W12
 BYTE   N05
 BYTE   N05  Gn1
 BYTE   W12
 BYTE   Gn0
 BYTE   W12
 BYTE   As0
 BYTE   N05  As1
 BYTE   W48
 BYTE   PEND 
// 005   ----------------------------------------
Label_4_0135C755:
 BYTE   W12
 BYTE   N05  As0  v088
 BYTE   N05  As1
 BYTE   W24
 BYTE   As0  v052
 BYTE   N05  As1
 BYTE   W12
 BYTE   As0  v088
 BYTE   N05  As1
 BYTE   W24
 BYTE   As0  v040
 BYTE   N05  As1
 BYTE   W12
 BYTE   As0  v064
 BYTE   N05  As1
 BYTE   W12
 BYTE   PEND 
// 006   ----------------------------------------
Label_4_0135C771:
 BYTE   N05  As0  v088
 BYTE   N05  As1
 BYTE   W84
 BYTE   As0  v084
 BYTE   N05  As1
 BYTE   W12
 BYTE   PEND 
// 007   ----------------------------------------
Label_4_0135C77D:
 BYTE   N05  As0  v052
 BYTE   N05  As1
 BYTE   W24
 BYTE   As0  v040
 BYTE   N05  As1
 BYTE   W12
 BYTE   As0  v064
 BYTE   N05  As1
 BYTE   W12
 BYTE   As0  v088
 BYTE   N05  As1
 BYTE   W48
 BYTE   PEND 
// 008   ----------------------------------------
Label_4_0135C793:
 BYTE   W36
 BYTE   N05  As0  v084
 BYTE   N05  As1
 BYTE   W12
 BYTE   As0  v052
 BYTE   N05  As1
 BYTE   W24
 BYTE   As0  v036
 BYTE   N05  As1
 BYTE   W12
 BYTE   As0  v064
 BYTE   N05  As1
 BYTE   W12
 BYTE   PEND 
 BYTE   PATT
  POIN2 Label_4_0135C771
// 009   ----------------------------------------
Label_4_0135C7AF:
 BYTE   N05  As0  v052
 BYTE   N05  As1
 BYTE   W24
 BYTE   As0  v036
 BYTE   N05  As1
 BYTE   W12
 BYTE   As0  v064
 BYTE   N05  As1
 BYTE   W12
 BYTE   Bn0  v088
 BYTE   N05  Bn1
 BYTE   W48
 BYTE   PEND 
// 010   ----------------------------------------
Label_4_0135C7C5:
 BYTE   W36
 BYTE   N05  Bn0  v084
 BYTE   N05  Bn1
 BYTE   W12
 BYTE   Bn0  v052
 BYTE   N05  Bn1
 BYTE   W24
 BYTE   Bn0  v036
 BYTE   N05  Bn1
 BYTE   W12
 BYTE   Bn0  v064
 BYTE   N05  Bn1
 BYTE   W12
 BYTE   PEND 
// 011   ----------------------------------------
Label_4_0135C7DC:
 BYTE   N05  Bn0  v088
 BYTE   N05  Bn1
 BYTE   W84
 BYTE   Bn0  v084
 BYTE   N05  Bn1
 BYTE   W12
 BYTE   PEND 
// 012   ----------------------------------------
Label_4_0135C7E8:
 BYTE   N05  Bn0  v052
 BYTE   N05  Bn1
 BYTE   W24
 BYTE   Bn0  v036
 BYTE   N05  Bn1
 BYTE   W12
 BYTE   Bn0  v064
 BYTE   N05  Bn1
 BYTE   W12
 BYTE   An0  v088
 BYTE   N05  An1
 BYTE   W48
 BYTE   PEND 
// 013   ----------------------------------------
Label_4_0135C7FE:
 BYTE   W36
 BYTE   N05  An0  v084
 BYTE   N05  An1
 BYTE   W12
 BYTE   An0  v052
 BYTE   N05  An1
 BYTE   W24
 BYTE   An0  v036
 BYTE   N05  An1
 BYTE   W12
 BYTE   An0  v064
 BYTE   N05  An1
 BYTE   W12
 BYTE   PEND 
// 014   ----------------------------------------
Label_4_0135C815:
 BYTE   N05  An0  v088
 BYTE   N05  An1
 BYTE   W84
 BYTE   An0  v084
 BYTE   N05  An1
 BYTE   W12
 BYTE   PEND 
// 015   ----------------------------------------
Label_4_0135C821:
 BYTE   N05  An0  v052
 BYTE   N05  An1
 BYTE   W24
 BYTE   An0  v036
 BYTE   N05  An1
 BYTE   W12
 BYTE   An0  v064
 BYTE   N05  An1
 BYTE   W12
 BYTE   Fs2
 BYTE   W12
 BYTE   N05
 BYTE   W12
 BYTE   N05
 BYTE   W12
 BYTE   N05
 BYTE   W12
 BYTE   PEND 
// 016   ----------------------------------------
Label_4_0135C83A:
 BYTE   N05  Fs2  v064
 BYTE   W12
 BYTE   N05
 BYTE   W12
 BYTE   N05
 BYTE   W12
 BYTE   N05
 BYTE   W12
 BYTE   N05
 BYTE   W12
 BYTE   N05
 BYTE   W12
 BYTE   N05
 BYTE   W12
 BYTE   N05
 BYTE   W12
 BYTE   PEND 
 BYTE   PATT
  POIN2 Label_4_0135C83A
 BYTE   PATT
  POIN2 Label_4_0135C83A
 BYTE   PATT
  POIN2 Label_4_0135C83A
 BYTE   PATT
  POIN2 Label_4_0135C83A
 BYTE   PATT
  POIN2 Label_4_0135C83A
 BYTE   PATT
  POIN2 Label_4_0135C83A
// 017   ----------------------------------------
Label_4_0135C86B:
 BYTE   N05  Gn2  v064
 BYTE   W12
 BYTE   N05
 BYTE   W12
 BYTE   N05
 BYTE   W12
 BYTE   N05
 BYTE   W12
 BYTE   N05
 BYTE   W12
 BYTE   N05
 BYTE   W12
 BYTE   N05
 BYTE   W12
 BYTE   N05
 BYTE   W12
 BYTE   PEND 
 BYTE   PATT
  POIN2 Label_4_0135C86B
 BYTE   PATT
  POIN2 Label_4_0135C86B
 BYTE   PATT
  POIN2 Label_4_0135C86B
 BYTE   PATT
  POIN2 Label_4_0135C86B
 BYTE   PATT
  POIN2 Label_4_0135C86B
 BYTE   PATT
  POIN2 Label_4_0135C6DE
 BYTE   PATT
  POIN2 Label_4_0135C6AA
 BYTE   PATT
  POIN2 Label_4_0135C6C5
 BYTE   PATT
  POIN2 Label_4_0135C6DE
 BYTE   PATT
  POIN2 Label_4_0135C6AA
 BYTE   PATT
  POIN2 Label_4_0135C6C5
 BYTE   PATT
  POIN2 Label_4_0135C6DE
 BYTE   PATT
  POIN2 Label_4_0135C6AA
 BYTE   PATT
  POIN2 Label_4_0135C6C5
 BYTE   PATT
  POIN2 Label_4_0135C6DE
 BYTE   PATT
  POIN2 Label_4_0135C6AA
 BYTE   PATT
  POIN2 Label_4_0135C6C5
 BYTE   PATT
  POIN2 Label_4_0135C6DE
 BYTE   PATT
  POIN2 Label_4_0135C6AA
 BYTE   PATT
  POIN2 Label_4_0135C6C5
 BYTE   PATT
  POIN2 Label_4_0135C6DE
 BYTE   PATT
  POIN2 Label_4_0135C6AA
 BYTE   PATT
  POIN2 Label_4_0135C6C5
 BYTE   PATT
  POIN2 Label_4_0135C6DE
 BYTE   PATT
  POIN2 Label_4_0135C742
 BYTE   PATT
  POIN2 Label_4_0135C755
 BYTE   PATT
  POIN2 Label_4_0135C771
 BYTE   PATT
  POIN2 Label_4_0135C77D
 BYTE   PATT
  POIN2 Label_4_0135C793
 BYTE   PATT
  POIN2 Label_4_0135C771
 BYTE   PATT
  POIN2 Label_4_0135C7AF
 BYTE   PATT
  POIN2 Label_4_0135C7C5
 BYTE   PATT
  POIN2 Label_4_0135C7DC
 BYTE   PATT
  POIN2 Label_4_0135C7E8
 BYTE   PATT
  POIN2 Label_4_0135C7FE
 BYTE   PATT
  POIN2 Label_4_0135C815
 BYTE   PATT
  POIN2 Label_4_0135C821
 BYTE   PATT
  POIN2 Label_4_0135C83A
 BYTE   PATT
  POIN2 Label_4_0135C83A
 BYTE   PATT
  POIN2 Label_4_0135C83A
 BYTE   PATT
  POIN2 Label_4_0135C83A
 BYTE   PATT
  POIN2 Label_4_0135C83A
 BYTE   PATT
  POIN2 Label_4_0135C83A
 BYTE   PATT
  POIN2 Label_4_0135C83A
 BYTE   PATT
  POIN2 Label_4_0135C86B
 BYTE   PATT
  POIN2 Label_4_0135C86B
 BYTE   PATT
  POIN2 Label_4_0135C86B
 BYTE   PATT
  POIN2 Label_4_0135C86B
 BYTE   PATT
  POIN2 Label_4_0135C86B
 BYTE   PATT
  POIN2 Label_4_0135C86B
 BYTE   PATT
  POIN2 Label_4_0135C6DE
 BYTE   PATT
  POIN2 Label_4_0135C6AA
 BYTE   PATT
  POIN2 Label_4_0135C6C5
 BYTE   PATT
  POIN2 Label_4_0135C6DE
 BYTE   PATT
  POIN2 Label_4_0135C6AA
// 018   ----------------------------------------
 BYTE   N05  Gn0  v088
 BYTE   W12
 BYTE   N05
 BYTE   W12
 BYTE   N05
 BYTE   N05  Gn1
 BYTE   W12
 BYTE   Gn0
 BYTE   W12
 BYTE   N05
 BYTE   N05  Gn1
 BYTE   W12
 BYTE   Gn0
 BYTE   W12
 BYTE   N05
 BYTE   N05  Gn1
 BYTE   W12
 BYTE   Gn0
 BYTE   W11
 BYTE   GoTo
  POIN2 Label_4_0135C686
 BYTE   FINE

//**************** Track 6 (Midi-Chn.5) ****************//

FF10EnemyAttackAReliableChair_006:
// 000   ----------------------------------------
 BYTE   KEYSH   FF10EnemyAttackAReliableChair_key+0
Label_5_0135C9B2:
 BYTE   VOICE   48
 BYTE   MODT 0
 BYTE   CnM2
 BYTE   LFOS 0
 BYTE   Gs1
 BYTE   VOL   33*FF10EnemyAttackAReliableChair_mvl/mxv
 BYTE   PAN   c_v+0
 BYTE   W96
// 001   ----------------------------------------
 BYTE   W96
// 002   ----------------------------------------
 BYTE   W96
// 003   ----------------------------------------
 BYTE   W96
// 004   ----------------------------------------
 BYTE   W96
// 005   ----------------------------------------
 BYTE   W96
// 006   ----------------------------------------
 BYTE   W96
// 007   ----------------------------------------
 BYTE   W96
// 008   ----------------------------------------
 BYTE   W96
// 009   ----------------------------------------
 BYTE   W96
// 010   ----------------------------------------
 BYTE   W96
// 011   ----------------------------------------
 BYTE   W96
// 012   ----------------------------------------
 BYTE   W96
// 013   ----------------------------------------
 BYTE   W96
// 014   ----------------------------------------
 BYTE   W96
// 015   ----------------------------------------
 BYTE   W96
// 016   ----------------------------------------
 BYTE   W96
// 017   ----------------------------------------
 BYTE   W96
// 018   ----------------------------------------
Label_5_0135C9CE:
 BYTE   W48
 BYTE   N05  Cn4  v088
 BYTE   W06
 BYTE   Dn4
 BYTE   W06
 BYTE   Ds4
 BYTE   W06
 BYTE   Fn4
 BYTE   W06
 BYTE   Gn4
 BYTE   W06
 BYTE   Fn4
 BYTE   W06
 BYTE   Ds4
 BYTE   W06
 BYTE   Dn4
 BYTE   W06
 BYTE   PEND 
// 019   ----------------------------------------
Label_5_0135C9E2:
 BYTE   N05  Cn4  v088
 BYTE   W06
 BYTE   As3
 BYTE   W06
 BYTE   Gs3
 BYTE   W06
 BYTE   Gn3
 BYTE   W06
 BYTE   Fn3
 BYTE   W06
 BYTE   Ds3
 BYTE   W06
 BYTE   Dn3
 BYTE   W06
 BYTE   Cn3
 BYTE   W54
 BYTE   PEND 
// 020   ----------------------------------------
 BYTE   W96
// 021   ----------------------------------------
 BYTE   W96
// 022   ----------------------------------------
 BYTE   W96
// 023   ----------------------------------------
 BYTE   W96
// 024   ----------------------------------------
 BYTE   W96
// 025   ----------------------------------------
 BYTE   W96
// 026   ----------------------------------------
 BYTE   W96
// 027   ----------------------------------------
 BYTE   W96
// 028   ----------------------------------------
 BYTE   W96
// 029   ----------------------------------------
 BYTE   W96
// 030   ----------------------------------------
 BYTE   W96
// 031   ----------------------------------------
 BYTE   W96
// 032   ----------------------------------------
 BYTE   W96
// 033   ----------------------------------------
 BYTE   W96
// 034   ----------------------------------------
 BYTE   W96
// 035   ----------------------------------------
 BYTE   W96
// 036   ----------------------------------------
 BYTE   W96
// 037   ----------------------------------------
 BYTE   W96
// 038   ----------------------------------------
 BYTE   W96
// 039   ----------------------------------------
 BYTE   W96
// 040   ----------------------------------------
 BYTE   W96
// 041   ----------------------------------------
 BYTE   W96
// 042   ----------------------------------------
 BYTE   W96
// 043   ----------------------------------------
 BYTE   W96
// 044   ----------------------------------------
 BYTE   W96
// 045   ----------------------------------------
 BYTE   W96
// 046   ----------------------------------------
 BYTE   W96
// 047   ----------------------------------------
 BYTE   W96
// 048   ----------------------------------------
 BYTE   W96
// 049   ----------------------------------------
 BYTE   W96
// 050   ----------------------------------------
 BYTE   W96
// 051   ----------------------------------------
 BYTE   W96
// 052   ----------------------------------------
 BYTE   W96
// 053   ----------------------------------------
 BYTE   W96
// 054   ----------------------------------------
 BYTE   W96
// 055   ----------------------------------------
 BYTE   W96
// 056   ----------------------------------------
 BYTE   W96
// 057   ----------------------------------------
 BYTE   W96
// 058   ----------------------------------------
 BYTE   W96
// 059   ----------------------------------------
 BYTE   W96
// 060   ----------------------------------------
 BYTE   W96
// 061   ----------------------------------------
 BYTE   W96
// 062   ----------------------------------------
 BYTE   W96
 BYTE   PATT
  POIN2 Label_5_0135C9CE
 BYTE   PATT
  POIN2 Label_5_0135C9E2
// 063   ----------------------------------------
 BYTE   W96
// 064   ----------------------------------------
 BYTE   W96
// 065   ----------------------------------------
 BYTE   W96
// 066   ----------------------------------------
 BYTE   W96
// 067   ----------------------------------------
 BYTE   W96
// 068   ----------------------------------------
 BYTE   W96
// 069   ----------------------------------------
 BYTE   W96
// 070   ----------------------------------------
 BYTE   W96
// 071   ----------------------------------------
 BYTE   W96
// 072   ----------------------------------------
 BYTE   W96
// 073   ----------------------------------------
 BYTE   W96
// 074   ----------------------------------------
 BYTE   W96
// 075   ----------------------------------------
 BYTE   W96
// 076   ----------------------------------------
 BYTE   W96
// 077   ----------------------------------------
 BYTE   W96
// 078   ----------------------------------------
 BYTE   W96
// 079   ----------------------------------------
 BYTE   W96
// 080   ----------------------------------------
 BYTE   W96
// 081   ----------------------------------------
 BYTE   W96
// 082   ----------------------------------------
 BYTE   W96
// 083   ----------------------------------------
 BYTE   W96
// 084   ----------------------------------------
 BYTE   W96
// 085   ----------------------------------------
 BYTE   W96
// 086   ----------------------------------------
 BYTE   W96
// 087   ----------------------------------------
 BYTE   W96
// 088   ----------------------------------------
 BYTE   W96
// 089   ----------------------------------------
 BYTE   W96
// 090   ----------------------------------------
 BYTE   W96
// 091   ----------------------------------------
 BYTE   W96
// 092   ----------------------------------------
 BYTE   W96
// 093   ----------------------------------------
 BYTE   W92
 BYTE   W03
 BYTE   GoTo
  POIN2 Label_5_0135C9B2
 BYTE   FINE

//**************** Track 7 (Midi-Chn.6) ****************//

FF10EnemyAttackAReliableChair_007:
// 000   ----------------------------------------
 BYTE   KEYSH   FF10EnemyAttackAReliableChair_key+0
Label_6_0135CA52:
 BYTE   VOICE   57
 BYTE   BENDR  60
 BYTE   MODT 0
 BYTE   CnM2
 BYTE   LFOS 0
 BYTE   Gs1
 BYTE   VOL   39*FF10EnemyAttackAReliableChair_mvl/mxv
 BYTE   PAN   c_v+0
 BYTE   W96
// 001   ----------------------------------------
 BYTE   W96
// 002   ----------------------------------------
 BYTE   W96
// 003   ----------------------------------------
 BYTE   W96
// 004   ----------------------------------------
 BYTE   W96
// 005   ----------------------------------------
 BYTE   W96
// 006   ----------------------------------------
 BYTE   W96
// 007   ----------------------------------------
 BYTE   W96
// 008   ----------------------------------------
 BYTE   W96
// 009   ----------------------------------------
 BYTE   W96
// 010   ----------------------------------------
 BYTE   W96
// 011   ----------------------------------------
 BYTE   W96
// 012   ----------------------------------------
 BYTE   W96
// 013   ----------------------------------------
 BYTE   W96
// 014   ----------------------------------------
 BYTE   W96
// 015   ----------------------------------------
 BYTE   W96
// 016   ----------------------------------------
 BYTE   W96
// 017   ----------------------------------------
 BYTE   W96
// 018   ----------------------------------------
 BYTE   W96
// 019   ----------------------------------------
 BYTE   W96
// 020   ----------------------------------------
 BYTE   W96
// 021   ----------------------------------------
 BYTE   W96
// 022   ----------------------------------------
 BYTE   W96
// 023   ----------------------------------------
 BYTE   W96
// 024   ----------------------------------------
 BYTE   W96
// 025   ----------------------------------------
Label_6_0135CA77:
 BYTE   W48
 BYTE   TIE  Bn1  v108
 BYTE   TIE  Bn2
 BYTE   W48
 BYTE   PEND 
// 026   ----------------------------------------
 BYTE   W96
// 027   ----------------------------------------
 BYTE   EOT
 BYTE   Bn1  v059
Label_6_0135CA83:
 BYTE   TIE  Cs2  v108
 BYTE   TIE  Cs3
 BYTE   W96
 BYTE   PEND 
// 028   ----------------------------------------
 BYTE   W48
 BYTE   EOT
 BYTE   Cs2  v061
 BYTE   N22  Cn2
 BYTE   N22  Cn3
 BYTE   W24
 BYTE   Bn1
 BYTE   N22  Bn2
 BYTE   W24
// 029   ----------------------------------------
Label_6_0135CA97:
 BYTE   N22  Cn2  v108
 BYTE   N22  Cn3
 BYTE   W24
 BYTE   Dn2
 BYTE   N22  Dn3
 BYTE   W24
 BYTE   Cn2
 BYTE   N22  Cn3
 BYTE   W24
 BYTE   Dn2
 BYTE   N22  Dn3
 BYTE   W24
 BYTE   PEND 
// 030   ----------------------------------------
Label_6_0135CAAA:
 BYTE   TIE  En2  v108
 BYTE   TIE  En3
 BYTE   W96
 BYTE   PEND 
// 031   ----------------------------------------
 BYTE   W48
 BYTE   EOT
 BYTE   En2  v064
 BYTE   W48
// 032   ----------------------------------------
 BYTE   W96
// 033   ----------------------------------------
 BYTE   W96
// 034   ----------------------------------------
 BYTE   W96
// 035   ----------------------------------------
 BYTE   W96
// 036   ----------------------------------------
 BYTE   W96
// 037   ----------------------------------------
 BYTE   W96
// 038   ----------------------------------------
 BYTE   W96
// 039   ----------------------------------------
Label_6_0135CABD:
 BYTE   N18  Dn3  v088
 BYTE   N18  Gn3
 BYTE   N18  An3
 BYTE   W36
 BYTE   Dn3
 BYTE   N18  Gn3
 BYTE   N18  An3
 BYTE   W60
 BYTE   PEND 
// 040   ----------------------------------------
Label_6_0135CACC:
 BYTE   W48
 BYTE   N18  Dn3  v088
 BYTE   N18  Gn3
 BYTE   N18  An3
 BYTE   W36
 BYTE   Dn3
 BYTE   N18  Gn3
 BYTE   N18  An3
 BYTE   W12
 BYTE   PEND 
// 041   ----------------------------------------
 BYTE   W96
 BYTE   PATT
  POIN2 Label_6_0135CABD
 BYTE   PATT
  POIN2 Label_6_0135CACC
// 042   ----------------------------------------
 BYTE   W96
// 043   ----------------------------------------
 BYTE   W96
// 044   ----------------------------------------
 BYTE   W96
// 045   ----------------------------------------
 BYTE   W96
// 046   ----------------------------------------
 BYTE   W96
// 047   ----------------------------------------
 BYTE   W96
// 048   ----------------------------------------
 BYTE   W96
// 049   ----------------------------------------
 BYTE   W96
// 050   ----------------------------------------
 BYTE   W96
// 051   ----------------------------------------
 BYTE   W96
// 052   ----------------------------------------
 BYTE   W96
// 053   ----------------------------------------
 BYTE   W96
// 054   ----------------------------------------
 BYTE   W96
// 055   ----------------------------------------
 BYTE   W96
// 056   ----------------------------------------
 BYTE   W96
// 057   ----------------------------------------
 BYTE   W96
// 058   ----------------------------------------
 BYTE   W96
// 059   ----------------------------------------
 BYTE   W96
// 060   ----------------------------------------
 BYTE   W96
// 061   ----------------------------------------
 BYTE   W96
// 062   ----------------------------------------
 BYTE   W96
// 063   ----------------------------------------
 BYTE   W96
// 064   ----------------------------------------
 BYTE   W96
// 065   ----------------------------------------
 BYTE   W96
// 066   ----------------------------------------
 BYTE   W96
// 067   ----------------------------------------
 BYTE   W96
 BYTE   PATT
  POIN2 Label_6_0135CA77
// 068   ----------------------------------------
 BYTE   W96
// 069   ----------------------------------------
 BYTE   EOT
 BYTE   Bn1  v059
 BYTE   PATT
  POIN2 Label_6_0135CA83
// 070   ----------------------------------------
 BYTE   W48
 BYTE   EOT
 BYTE   Cs2  v061
 BYTE   N22  Cn2  v108
 BYTE   N22  Cn3
 BYTE   W24
 BYTE   Bn1
 BYTE   N22  Bn2
 BYTE   W24
 BYTE   PATT
  POIN2 Label_6_0135CA97
 BYTE   PATT
  POIN2 Label_6_0135CAAA
// 071   ----------------------------------------
 BYTE   W48
 BYTE   EOT
 BYTE   En2  v064
 BYTE   W48
// 072   ----------------------------------------
 BYTE   W96
// 073   ----------------------------------------
 BYTE   W96
// 074   ----------------------------------------
 BYTE   W96
// 075   ----------------------------------------
 BYTE   W96
// 076   ----------------------------------------
 BYTE   W96
// 077   ----------------------------------------
 BYTE   W96
// 078   ----------------------------------------
 BYTE   W96
 BYTE   PATT
  POIN2 Label_6_0135CABD
 BYTE   PATT
  POIN2 Label_6_0135CACC
// 079   ----------------------------------------
 BYTE   W96
 BYTE   PATT
  POIN2 Label_6_0135CABD
 BYTE   PATT
  POIN2 Label_6_0135CACC
// 080   ----------------------------------------
 BYTE   W96
// 081   ----------------------------------------
 BYTE   W96
// 082   ----------------------------------------
 BYTE   W96
// 083   ----------------------------------------
 BYTE   W96
// 084   ----------------------------------------
 BYTE   W96
// 085   ----------------------------------------
 BYTE   W96
// 086   ----------------------------------------
 BYTE   W92
 BYTE   W03
 BYTE   GoTo
  POIN2 Label_6_0135CA52
 BYTE   FINE

//**************** Track 8 (Midi-Chn.7) ****************//

FF10EnemyAttackAReliableChair_008:
// 000   ----------------------------------------
 BYTE   KEYSH   FF10EnemyAttackAReliableChair_key+0
Label_7_0135CB5A:
 BYTE   VOICE   60
 BYTE   MODT 0
 BYTE   CnM2
 BYTE   LFOS 0
 BYTE   Gs1
 BYTE   VOL   28*FF10EnemyAttackAReliableChair_mvl/mxv
 BYTE   PAN   c_v+0
 BYTE   W96
// 001   ----------------------------------------
 BYTE   W96
// 002   ----------------------------------------
 BYTE   W96
// 003   ----------------------------------------
 BYTE   W96
// 004   ----------------------------------------
 BYTE   W96
// 005   ----------------------------------------
 BYTE   W96
// 006   ----------------------------------------
 BYTE   W96
// 007   ----------------------------------------
 BYTE   W96
// 008   ----------------------------------------
 BYTE   W96
// 009   ----------------------------------------
 BYTE   W96
// 010   ----------------------------------------
 BYTE   W96
// 011   ----------------------------------------
 BYTE   W96
// 012   ----------------------------------------
 BYTE   W96
// 013   ----------------------------------------
 BYTE   W96
// 014   ----------------------------------------
 BYTE   W96
// 015   ----------------------------------------
 BYTE   W96
// 016   ----------------------------------------
 BYTE   W96
// 017   ----------------------------------------
 BYTE   W96
// 018   ----------------------------------------
 BYTE   W96
// 019   ----------------------------------------
Label_7_0135CB77:
 BYTE   W48
 BYTE   N10  As1  v112
 BYTE   N10  As2
 BYTE   W48
 BYTE   PEND 
// 020   ----------------------------------------
 BYTE   W96
// 021   ----------------------------------------
 BYTE   As1
 BYTE   N10  As2
 BYTE   W96
 BYTE   PATT
  POIN2 Label_7_0135CB77
// 022   ----------------------------------------
 BYTE   W96
// 023   ----------------------------------------
 BYTE   N10  As1  v112
 BYTE   N10  As2
 BYTE   W96
// 024   ----------------------------------------
Label_7_0135CB90:
 BYTE   W48
 BYTE   N10  Bn1  v112
 BYTE   N10  Bn2
 BYTE   W48
 BYTE   PEND 
// 025   ----------------------------------------
 BYTE   W96
// 026   ----------------------------------------
 BYTE   Bn1
 BYTE   N10  Bn2
 BYTE   W96
// 027   ----------------------------------------
Label_7_0135CB9D:
 BYTE   W48
 BYTE   N10  An1  v112
 BYTE   N10  An2
 BYTE   W48
 BYTE   PEND 
// 028   ----------------------------------------
 BYTE   W96
// 029   ----------------------------------------
 BYTE   An1
 BYTE   N10  An2
 BYTE   W96
// 030   ----------------------------------------
 BYTE   W96
// 031   ----------------------------------------
 BYTE   W96
// 032   ----------------------------------------
 BYTE   W96
// 033   ----------------------------------------
 BYTE   W96
// 034   ----------------------------------------
 BYTE   W96
// 035   ----------------------------------------
 BYTE   W96
// 036   ----------------------------------------
 BYTE   W96
// 037   ----------------------------------------
 BYTE   W96
// 038   ----------------------------------------
 BYTE   W96
// 039   ----------------------------------------
 BYTE   W96
// 040   ----------------------------------------
 BYTE   W96
// 041   ----------------------------------------
 BYTE   W96
// 042   ----------------------------------------
 BYTE   W96
// 043   ----------------------------------------
 BYTE   W96
// 044   ----------------------------------------
 BYTE   W96
// 045   ----------------------------------------
 BYTE   W96
// 046   ----------------------------------------
 BYTE   W96
// 047   ----------------------------------------
 BYTE   W96
// 048   ----------------------------------------
 BYTE   W96
// 049   ----------------------------------------
 BYTE   W96
// 050   ----------------------------------------
 BYTE   W96
// 051   ----------------------------------------
 BYTE   W96
// 052   ----------------------------------------
 BYTE   W96
// 053   ----------------------------------------
 BYTE   W96
// 054   ----------------------------------------
 BYTE   W96
// 055   ----------------------------------------
 BYTE   W96
// 056   ----------------------------------------
 BYTE   W96
// 057   ----------------------------------------
 BYTE   W96
// 058   ----------------------------------------
 BYTE   W96
// 059   ----------------------------------------
 BYTE   W96
// 060   ----------------------------------------
 BYTE   W96
// 061   ----------------------------------------
 BYTE   W96
// 062   ----------------------------------------
 BYTE   W96
 BYTE   PATT
  POIN2 Label_7_0135CB77
// 063   ----------------------------------------
 BYTE   W96
// 064   ----------------------------------------
 BYTE   N10  As1  v112
 BYTE   N10  As2
 BYTE   W96
 BYTE   PATT
  POIN2 Label_7_0135CB77
// 065   ----------------------------------------
 BYTE   W96
// 066   ----------------------------------------
 BYTE   N10  As1  v112
 BYTE   N10  As2
 BYTE   W96
 BYTE   PATT
  POIN2 Label_7_0135CB90
// 067   ----------------------------------------
 BYTE   W96
// 068   ----------------------------------------
 BYTE   N10  Bn1  v112
 BYTE   N10  Bn2
 BYTE   W96
 BYTE   PATT
  POIN2 Label_7_0135CB9D
// 069   ----------------------------------------
 BYTE   W96
// 070   ----------------------------------------
 BYTE   N10  An1  v112
 BYTE   N10  An2
 BYTE   W96
// 071   ----------------------------------------
 BYTE   W96
// 072   ----------------------------------------
 BYTE   W96
// 073   ----------------------------------------
 BYTE   W96
// 074   ----------------------------------------
 BYTE   W96
// 075   ----------------------------------------
 BYTE   W96
// 076   ----------------------------------------
 BYTE   W96
// 077   ----------------------------------------
 BYTE   W96
// 078   ----------------------------------------
 BYTE   W96
// 079   ----------------------------------------
 BYTE   W96
// 080   ----------------------------------------
 BYTE   W96
// 081   ----------------------------------------
 BYTE   W96
// 082   ----------------------------------------
 BYTE   W96
// 083   ----------------------------------------
 BYTE   W96
// 084   ----------------------------------------
 BYTE   W96
// 085   ----------------------------------------
 BYTE   W96
// 086   ----------------------------------------
 BYTE   W96
// 087   ----------------------------------------
 BYTE   W96
// 088   ----------------------------------------
 BYTE   W96
// 089   ----------------------------------------
 BYTE   W96
// 090   ----------------------------------------
 BYTE   W92
 BYTE   W03
 BYTE   GoTo
  POIN2 Label_7_0135CB5A
 BYTE   FINE

//**************** Track 9 (Midi-Chn.8) ****************//

FF10EnemyAttackAReliableChair_009:
// 000   ----------------------------------------
 BYTE   KEYSH   FF10EnemyAttackAReliableChair_key+0
Label_8_0135CC1A:
 BYTE   VOICE   47
 BYTE   MODT 0
 BYTE   CnM2
 BYTE   LFOS 0
 BYTE   Gs1
 BYTE   VOL   33*FF10EnemyAttackAReliableChair_mvl/mxv
 BYTE   PAN   c_v+0
 BYTE   N05  Gn1  v100
 BYTE   W36
 BYTE   N05
 BYTE   W24
 BYTE   N05
 BYTE   W24
 BYTE   N05
 BYTE   W12
// 001   ----------------------------------------
Label_8_0135CC2E:
 BYTE   N05  Dn1  v100
 BYTE   W24
 BYTE   N05
 BYTE   W24
 BYTE   Gn1
 BYTE   W36
 BYTE   N05
 BYTE   W12
 BYTE   PEND 
// 002   ----------------------------------------
Label_8_0135CC39:
 BYTE   W12
 BYTE   N05  Gn1  v100
 BYTE   W12
 BYTE   N05
 BYTE   W24
 BYTE   Dn1
 BYTE   W24
 BYTE   Dn1  v068
 BYTE   W06
 BYTE   Dn1  v076
 BYTE   W06
 BYTE   Dn1  v084
 BYTE   W06
 BYTE   Dn1  v092
 BYTE   W06
 BYTE   PEND 
// 003   ----------------------------------------
Label_8_0135CC4F:
 BYTE   N05  Gn1  v100
 BYTE   W36
 BYTE   N05
 BYTE   W24
 BYTE   N05
 BYTE   W24
 BYTE   N05
 BYTE   W12
 BYTE   PEND 
 BYTE   PATT
  POIN2 Label_8_0135CC2E
// 004   ----------------------------------------
Label_8_0135CC5F:
 BYTE   W12
 BYTE   N05  Gn1  v100
 BYTE   W12
 BYTE   N05
 BYTE   W12
 BYTE   N05
 BYTE   W12
 BYTE   Dn1
 BYTE   W24
 BYTE   Dn1  v064
 BYTE   W06
 BYTE   Dn1  v072
 BYTE   W06
 BYTE   Dn1  v080
 BYTE   W06
 BYTE   Dn1  v092
 BYTE   W06
 BYTE   PEND 
 BYTE   PATT
  POIN2 Label_8_0135CC4F
 BYTE   PATT
  POIN2 Label_8_0135CC2E
// 005   ----------------------------------------
Label_8_0135CC81:
 BYTE   W12
 BYTE   N05  Gn1  v100
 BYTE   W12
 BYTE   N05
 BYTE   W24
 BYTE   Dn1
 BYTE   W24
 BYTE   Dn1  v072
 BYTE   W06
 BYTE   Dn1  v080
 BYTE   W06
 BYTE   Dn1  v084
 BYTE   W06
 BYTE   Dn1  v092
 BYTE   W06
 BYTE   PEND 
 BYTE   PATT
  POIN2 Label_8_0135CC4F
 BYTE   PATT
  POIN2 Label_8_0135CC2E
// 006   ----------------------------------------
Label_8_0135CCA1:
 BYTE   W12
 BYTE   N05  Gn1  v100
 BYTE   W12
 BYTE   N05
 BYTE   W12
 BYTE   N05
 BYTE   W12
 BYTE   Dn1
 BYTE   W24
 BYTE   Dn1  v064
 BYTE   W06
 BYTE   Dn1  v076
 BYTE   W06
 BYTE   Dn1  v084
 BYTE   W06
 BYTE   Dn1  v092
 BYTE   W06
 BYTE   PEND 
// 007   ----------------------------------------
Label_8_0135CCB9:
 BYTE   N05  Gn1  v104
 BYTE   W36
 BYTE   Gn1  v100
 BYTE   W24
 BYTE   N05
 BYTE   W24
 BYTE   N05
 BYTE   W12
 BYTE   PEND 
 BYTE   PATT
  POIN2 Label_8_0135CC2E
 BYTE   PATT
  POIN2 Label_8_0135CC39
 BYTE   PATT
  POIN2 Label_8_0135CCB9
 BYTE   PATT
  POIN2 Label_8_0135CC2E
// 008   ----------------------------------------
Label_8_0135CCD9:
 BYTE   W12
 BYTE   N05  Gn1  v100
 BYTE   W12
 BYTE   N05
 BYTE   W12
 BYTE   N05
 BYTE   W12
 BYTE   Dn1
 BYTE   W24
 BYTE   Dn1  v068
 BYTE   W06
 BYTE   Dn1  v076
 BYTE   W06
 BYTE   Dn1  v088
 BYTE   W06
 BYTE   Dn1  v096
 BYTE   W06
 BYTE   PEND 
 BYTE   PATT
  POIN2 Label_8_0135CCB9
// 009   ----------------------------------------
Label_8_0135CCF6:
 BYTE   N05  Dn1  v100
 BYTE   W24
 BYTE   Dn1  v064
 BYTE   W06
 BYTE   Dn1  v076
 BYTE   W06
 BYTE   Dn1  v084
 BYTE   W06
 BYTE   Dn1  v096
 BYTE   W06
 BYTE   As1  v108
 BYTE   W48
 BYTE   PEND 
// 010   ----------------------------------------
Label_8_0135CD0A:
 BYTE   W12
 BYTE   N05  Fn1  v100
 BYTE   W24
 BYTE   As1
 BYTE   W12
 BYTE   Fn1
 BYTE   W48
 BYTE   PEND 
// 011   ----------------------------------------
Label_8_0135CD14:
 BYTE   N05  As1  v100
 BYTE   W60
 BYTE   Fn1
 BYTE   W24
 BYTE   As1
 BYTE   W12
 BYTE   PEND 
// 012   ----------------------------------------
Label_8_0135CD1D:
 BYTE   N05  Fn1  v100
 BYTE   W48
 BYTE   As1
 BYTE   W48
 BYTE   PEND 
 BYTE   PATT
  POIN2 Label_8_0135CD0A
 BYTE   PATT
  POIN2 Label_8_0135CD14
// 013   ----------------------------------------
Label_8_0135CD2E:
 BYTE   N05  Fn1  v100
 BYTE   W48
 BYTE   Bn1
 BYTE   W48
 BYTE   PEND 
// 014   ----------------------------------------
Label_8_0135CD35:
 BYTE   W12
 BYTE   N05  Fs1  v100
 BYTE   W24
 BYTE   Bn1
 BYTE   W12
 BYTE   Fs1
 BYTE   W48
 BYTE   PEND 
// 015   ----------------------------------------
Label_8_0135CD3F:
 BYTE   N05  Bn1  v100
 BYTE   W60
 BYTE   Fs1
 BYTE   W24
 BYTE   Bn1
 BYTE   W12
 BYTE   PEND 
// 016   ----------------------------------------
Label_8_0135CD48:
 BYTE   N05  Fs1  v100
 BYTE   W48
 BYTE   An1
 BYTE   W48
 BYTE   PEND 
// 017   ----------------------------------------
Label_8_0135CD4F:
 BYTE   W12
 BYTE   N05  En1  v100
 BYTE   W24
 BYTE   An1
 BYTE   W12
 BYTE   En1
 BYTE   W48
 BYTE   PEND 
// 018   ----------------------------------------
Label_8_0135CD59:
 BYTE   N05  An1  v100
 BYTE   W60
 BYTE   En1
 BYTE   W24
 BYTE   An1
 BYTE   W12
 BYTE   PEND 
// 019   ----------------------------------------
Label_8_0135CD62:
 BYTE   N05  En1  v100
 BYTE   W48
 BYTE   Fs1
 BYTE   W36
 BYTE   N05
 BYTE   W12
 BYTE   PEND 
// 020   ----------------------------------------
Label_8_0135CD6B:
 BYTE   W24
 BYTE   N05  Fs1  v100
 BYTE   W24
 BYTE   N05
 BYTE   W24
 BYTE   N05
 BYTE   W24
 BYTE   PEND 
// 021   ----------------------------------------
Label_8_0135CD75:
 BYTE   N05  Fs1  v100
 BYTE   W36
 BYTE   N05
 BYTE   W36
 BYTE   N05
 BYTE   W24
 BYTE   PEND 
// 022   ----------------------------------------
Label_8_0135CD7E:
 BYTE   N05  Fs1  v100
 BYTE   W24
 BYTE   N05
 BYTE   W24
 BYTE   N05
 BYTE   W36
 BYTE   N05
 BYTE   W12
 BYTE   PEND 
 BYTE   PATT
  POIN2 Label_8_0135CD6B
 BYTE   PATT
  POIN2 Label_8_0135CD75
 BYTE   PATT
  POIN2 Label_8_0135CD7E
 BYTE   PATT
  POIN2 Label_8_0135CD6B
// 023   ----------------------------------------
Label_8_0135CD9D:
 BYTE   N05  Gn1  v100
 BYTE   W60
 BYTE   Fn1
 BYTE   W24
 BYTE   N05
 BYTE   W12
 BYTE   PEND 
// 024   ----------------------------------------
Label_8_0135CDA6:
 BYTE   N05  Fn1  v100
 BYTE   W24
 BYTE   N05
 BYTE   W12
 BYTE   N05
 BYTE   W12
 BYTE   Gn1
 BYTE   W48
 BYTE   PEND 
// 025   ----------------------------------------
Label_8_0135CDB1:
 BYTE   W12
 BYTE   N05  Fn1  v100
 BYTE   W24
 BYTE   N05
 BYTE   W12
 BYTE   N05
 BYTE   W24
 BYTE   N05
 BYTE   W12
 BYTE   N05
 BYTE   W12
 BYTE   PEND 
 BYTE   PATT
  POIN2 Label_8_0135CD9D
 BYTE   PATT
  POIN2 Label_8_0135CDA6
 BYTE   PATT
  POIN2 Label_8_0135CDB1
 BYTE   PATT
  POIN2 Label_8_0135CC4F
 BYTE   PATT
  POIN2 Label_8_0135CC2E
 BYTE   PATT
  POIN2 Label_8_0135CC39
 BYTE   PATT
  POIN2 Label_8_0135CC4F
 BYTE   PATT
  POIN2 Label_8_0135CC2E
 BYTE   PATT
  POIN2 Label_8_0135CC5F
 BYTE   PATT
  POIN2 Label_8_0135CC4F
 BYTE   PATT
  POIN2 Label_8_0135CC2E
 BYTE   PATT
  POIN2 Label_8_0135CC81
 BYTE   PATT
  POIN2 Label_8_0135CC4F
 BYTE   PATT
  POIN2 Label_8_0135CC2E
 BYTE   PATT
  POIN2 Label_8_0135CCA1
 BYTE   PATT
  POIN2 Label_8_0135CCB9
 BYTE   PATT
  POIN2 Label_8_0135CC2E
 BYTE   PATT
  POIN2 Label_8_0135CC39
 BYTE   PATT
  POIN2 Label_8_0135CCB9
 BYTE   PATT
  POIN2 Label_8_0135CC2E
 BYTE   PATT
  POIN2 Label_8_0135CCD9
 BYTE   PATT
  POIN2 Label_8_0135CCB9
 BYTE   PATT
  POIN2 Label_8_0135CCF6
 BYTE   PATT
  POIN2 Label_8_0135CD0A
 BYTE   PATT
  POIN2 Label_8_0135CD14
 BYTE   PATT
  POIN2 Label_8_0135CD1D
 BYTE   PATT
  POIN2 Label_8_0135CD0A
 BYTE   PATT
  POIN2 Label_8_0135CD14
 BYTE   PATT
  POIN2 Label_8_0135CD2E
 BYTE   PATT
  POIN2 Label_8_0135CD35
 BYTE   PATT
  POIN2 Label_8_0135CD3F
 BYTE   PATT
  POIN2 Label_8_0135CD48
 BYTE   PATT
  POIN2 Label_8_0135CD4F
 BYTE   PATT
  POIN2 Label_8_0135CD59
 BYTE   PATT
  POIN2 Label_8_0135CD62
 BYTE   PATT
  POIN2 Label_8_0135CD6B
 BYTE   PATT
  POIN2 Label_8_0135CD75
 BYTE   PATT
  POIN2 Label_8_0135CD7E
 BYTE   PATT
  POIN2 Label_8_0135CD6B
 BYTE   PATT
  POIN2 Label_8_0135CD75
 BYTE   PATT
  POIN2 Label_8_0135CD7E
 BYTE   PATT
  POIN2 Label_8_0135CD6B
 BYTE   PATT
  POIN2 Label_8_0135CD9D
 BYTE   PATT
  POIN2 Label_8_0135CDA6
 BYTE   PATT
  POIN2 Label_8_0135CDB1
 BYTE   PATT
  POIN2 Label_8_0135CD9D
 BYTE   PATT
  POIN2 Label_8_0135CDA6
 BYTE   PATT
  POIN2 Label_8_0135CDB1
 BYTE   PATT
  POIN2 Label_8_0135CC4F
 BYTE   PATT
  POIN2 Label_8_0135CC2E
 BYTE   PATT
  POIN2 Label_8_0135CC39
 BYTE   PATT
  POIN2 Label_8_0135CC4F
 BYTE   PATT
  POIN2 Label_8_0135CC2E
// 026   ----------------------------------------
 BYTE   W12
 BYTE   N05  Gn1  v100
 BYTE   W12
 BYTE   N05
 BYTE   W12
 BYTE   N05
 BYTE   W12
 BYTE   Dn1
 BYTE   W24
 BYTE   Dn1  v064
 BYTE   W06
 BYTE   Dn1  v072
 BYTE   W06
 BYTE   Dn1  v080
 BYTE   W06
 BYTE   Dn1  v092
 BYTE   W05
 BYTE   GoTo
  POIN2 Label_8_0135CC1A
 BYTE   FINE

//**************** Track 10 (Midi-Chn.9) ****************//

FF10EnemyAttackAReliableChair_010:
// 000   ----------------------------------------
 BYTE   KEYSH   FF10EnemyAttackAReliableChair_key+0
Label_9_0135CEEA:
 BYTE   VOICE   48
 BYTE   MODT 0
 BYTE   CnM2
 BYTE   LFOS 0
 BYTE   Gs1
 BYTE   VOL   33*FF10EnemyAttackAReliableChair_mvl/mxv
 BYTE   PAN   c_v+0
 BYTE   N03  Dn1  v056
 BYTE   N03  Bn2  v072
 BYTE   W12
 BYTE   Dn1  v024
 BYTE   W12
 BYTE   Dn1  v008
 BYTE   W12
 BYTE   Dn1  v056
 BYTE   W12
 BYTE   Dn1  v024
 BYTE   W12
 BYTE   Dn1  v008
 BYTE   W12
 BYTE   Dn1  v056
 BYTE   W12
 BYTE   Dn1  v008
 BYTE   W12
// 001   ----------------------------------------
Label_9_0135CF10:
 BYTE   N03  Dn1  v056
 BYTE   W12
 BYTE   Dn1  v008
 BYTE   W12
 BYTE   Dn1  v056
 BYTE   W12
 BYTE   Dn1  v008
 BYTE   W12
 BYTE   Dn1  v056
 BYTE   W12
 BYTE   Dn1  v024
 BYTE   W12
 BYTE   Dn1  v008
 BYTE   W12
 BYTE   Dn1  v056
 BYTE   W12
 BYTE   PEND 
// 002   ----------------------------------------
Label_9_0135CF2A:
 BYTE   N03  Dn1  v024
 BYTE   W12
 BYTE   Dn1  v008
 BYTE   W12
 BYTE   Dn1  v056
 BYTE   W12
 BYTE   Dn1  v008
 BYTE   W12
 BYTE   Dn1  v056
 BYTE   W12
 BYTE   Dn1  v008
 BYTE   W12
 BYTE   Dn1  v056
 BYTE   W12
 BYTE   Dn1  v008
 BYTE   W12
 BYTE   PEND 
// 003   ----------------------------------------
Label_9_0135CF44:
 BYTE   N03  Dn1  v056
 BYTE   W12
 BYTE   Dn1  v024
 BYTE   W12
 BYTE   Dn1  v008
 BYTE   W12
 BYTE   Dn1  v056
 BYTE   W12
 BYTE   Dn1  v024
 BYTE   W12
 BYTE   Dn1  v008
 BYTE   W12
 BYTE   Dn1  v056
 BYTE   W12
 BYTE   Dn1  v008
 BYTE   W12
 BYTE   PEND 
 BYTE   PATT
  POIN2 Label_9_0135CF10
 BYTE   PATT
  POIN2 Label_9_0135CF2A
// 004   ----------------------------------------
Label_9_0135CF68:
 BYTE   N03  Dn1  v056
 BYTE   N03  Bn2  v072
 BYTE   W12
 BYTE   Dn1  v024
 BYTE   W12
 BYTE   Dn1  v008
 BYTE   W12
 BYTE   Dn1  v056
 BYTE   W12
 BYTE   Dn1  v024
 BYTE   W12
 BYTE   Dn1  v008
 BYTE   W12
 BYTE   Dn1  v056
 BYTE   W12
 BYTE   Dn1  v008
 BYTE   W12
 BYTE   PEND 
 BYTE   PATT
  POIN2 Label_9_0135CF10
 BYTE   PATT
  POIN2 Label_9_0135CF2A
 BYTE   PATT
  POIN2 Label_9_0135CF44
 BYTE   PATT
  POIN2 Label_9_0135CF10
 BYTE   PATT
  POIN2 Label_9_0135CF2A
 BYTE   PATT
  POIN2 Label_9_0135CF68
 BYTE   PATT
  POIN2 Label_9_0135CF10
 BYTE   PATT
  POIN2 Label_9_0135CF2A
 BYTE   PATT
  POIN2 Label_9_0135CF44
 BYTE   PATT
  POIN2 Label_9_0135CF10
 BYTE   PATT
  POIN2 Label_9_0135CF2A
 BYTE   PATT
  POIN2 Label_9_0135CF44
// 005   ----------------------------------------
Label_9_0135CFC1:
 BYTE   N03  Dn1  v056
 BYTE   W12
 BYTE   Dn1  v008
 BYTE   W12
 BYTE   Dn1  v056
 BYTE   W12
 BYTE   Dn1  v008
 BYTE   W12
 BYTE   Bn2  v072
 BYTE   W48
 BYTE   PEND 
// 006   ----------------------------------------
 BYTE   W96
// 007   ----------------------------------------
Label_9_0135CFD3:
 BYTE   N03  Dn1  v056
 BYTE   W12
 BYTE   Dn1  v024
 BYTE   W12
 BYTE   Dn1  v056
 BYTE   W12
 BYTE   Dn1  v024
 BYTE   W12
 BYTE   Dn1  v056
 BYTE   W12
 BYTE   Dn1  v024
 BYTE   W12
 BYTE   Dn1  v056
 BYTE   W12
 BYTE   Dn1  v024
 BYTE   W12
 BYTE   PEND 
// 008   ----------------------------------------
Label_9_0135CFED:
 BYTE   N03  Dn1  v056
 BYTE   W12
 BYTE   Dn1  v016
 BYTE   W12
 BYTE   Dn1  v024
 BYTE   W06
 BYTE   Dn1  v036
 BYTE   W06
 BYTE   Dn1  v052
 BYTE   W06
 BYTE   N03
 BYTE   W06
 BYTE   Dn1  v056
 BYTE   W12
 BYTE   Dn1  v024
 BYTE   W12
 BYTE   Dn1  v056
 BYTE   W12
 BYTE   Dn1  v024
 BYTE   W12
 BYTE   PEND 
// 009   ----------------------------------------
Label_9_0135D00C:
 BYTE   N03  Dn1  v056
 BYTE   W12
 BYTE   Dn1  v024
 BYTE   W12
 BYTE   Dn1  v056
 BYTE   W12
 BYTE   Dn1  v024
 BYTE   W12
 BYTE   Dn1  v056
 BYTE   W12
 BYTE   Dn1  v016
 BYTE   W12
 BYTE   Dn1  v024
 BYTE   W06
 BYTE   Dn1  v036
 BYTE   W06
 BYTE   Dn1  v052
 BYTE   W06
 BYTE   N03
 BYTE   W06
 BYTE   PEND 
 BYTE   PATT
  POIN2 Label_9_0135CFD3
// 010   ----------------------------------------
Label_9_0135D030:
 BYTE   N03  Dn1  v056
 BYTE   W12
 BYTE   Dn1  v016
 BYTE   W12
 BYTE   Dn1  v020
 BYTE   N03  Bn2
 BYTE   W06
 BYTE   Dn1  v032
 BYTE   N03  Bn2
 BYTE   W06
 BYTE   Dn1  v044
 BYTE   N03  Bn2
 BYTE   W06
 BYTE   Dn1  v056
 BYTE   N03  Bn2
 BYTE   W06
 BYTE   Dn1
 BYTE   N03  Bn2  v096
 BYTE   W12
 BYTE   Dn1  v024
 BYTE   W12
 BYTE   N02  Dn1  v056
 BYTE   W02
 BYTE   N01  Dn1  v052
 BYTE   W02
 BYTE   Dn1  v048
 BYTE   W02
 BYTE   Dn1  v044
 BYTE   W02
 BYTE   Dn1  v040
 BYTE   W02
 BYTE   Dn1  v036
 BYTE   W02
 BYTE   Dn1  v032
 BYTE   W02
 BYTE   N01
 BYTE   W02
 BYTE   Dn1  v028
 BYTE   W02
 BYTE   Dn1  v024
 BYTE   W02
 BYTE   Dn1  v020
 BYTE   W02
 BYTE   N01
 BYTE   W02
 BYTE   PEND 
// 011   ----------------------------------------
Label_9_0135D078:
 BYTE   N01  Dn1  v056
 BYTE   W12
 BYTE   N03  Dn1  v024
 BYTE   W12
 BYTE   Dn1  v056
 BYTE   W12
 BYTE   N02  Dn1  v052
 BYTE   W02
 BYTE   N01  Dn1  v044
 BYTE   W02
 BYTE   Dn1  v032
 BYTE   W02
 BYTE   Dn1  v024
 BYTE   W02
 BYTE   Dn1  v016
 BYTE   W02
 BYTE   Dn1  v012
 BYTE   W02
 BYTE   Dn1  v056
 BYTE   W12
 BYTE   N03  Dn1  v016
 BYTE   W12
 BYTE   Dn1  v052
 BYTE   W12
 BYTE   Dn1  v028
 BYTE   W06
 BYTE   Dn1  v036
 BYTE   W06
 BYTE   PEND 
// 012   ----------------------------------------
Label_9_0135D0A8:
 BYTE   N03  Dn1  v056
 BYTE   W12
 BYTE   N02  Dn1  v052
 BYTE   W02
 BYTE   N01  Dn1  v048
 BYTE   W02
 BYTE   Dn1  v044
 BYTE   W02
 BYTE   Dn1  v040
 BYTE   W02
 BYTE   Dn1  v032
 BYTE   W02
 BYTE   N01
 BYTE   W02
 BYTE   Dn1  v028
 BYTE   W02
 BYTE   Dn1  v024
 BYTE   W02
 BYTE   Dn1  v020
 BYTE   W02
 BYTE   Dn1  v016
 BYTE   W02
 BYTE   Dn1  v012
 BYTE   W02
 BYTE   N01
 BYTE   W02
 BYTE   Dn1  v028
 BYTE   W12
 BYTE   N03  Dn1  v056
 BYTE   W12
 BYTE   Dn1  v024
 BYTE   W12
 BYTE   Dn1  v056
 BYTE   W12
 BYTE   N02  Dn1  v052
 BYTE   W02
 BYTE   N01  Dn1  v044
 BYTE   W02
 BYTE   Dn1  v032
 BYTE   W02
 BYTE   Dn1  v024
 BYTE   W02
 BYTE   Dn1  v016
 BYTE   W02
 BYTE   Dn1  v012
 BYTE   W02
 BYTE   PEND 
// 013   ----------------------------------------
Label_9_0135D0F2:
 BYTE   N01  Dn1  v048
 BYTE   W12
 BYTE   N02  Dn1  v056
 BYTE   W02
 BYTE   N01  Dn1  v052
 BYTE   W02
 BYTE   Dn1  v048
 BYTE   W02
 BYTE   Dn1  v044
 BYTE   W02
 BYTE   Dn1  v040
 BYTE   W02
 BYTE   Dn1  v036
 BYTE   W02
 BYTE   Dn1  v032
 BYTE   W02
 BYTE   Dn1  v028
 BYTE   W02
 BYTE   Dn1  v024
 BYTE   W02
 BYTE   Dn1  v020
 BYTE   W02
 BYTE   N01
 BYTE   W02
 BYTE   Dn1  v016
 BYTE   W02
 BYTE   Dn1  v024
 BYTE   W06
 BYTE   N03  Dn1  v044
 BYTE   W06
 BYTE   Dn1  v056
 BYTE   W12
 BYTE   Dn1  v024
 BYTE   W12
 BYTE   Dn1  v056
 BYTE   W12
 BYTE   Dn1  v024
 BYTE   W12
 BYTE   PEND 
// 014   ----------------------------------------
Label_9_0135D12F:
 BYTE   N03  Dn1  v056
 BYTE   W12
 BYTE   Dn1  v024
 BYTE   W12
 BYTE   Dn1  v056
 BYTE   W12
 BYTE   Dn1  v024
 BYTE   W12
 BYTE   Dn1  v056
 BYTE   W12
 BYTE   Dn1  v016
 BYTE   W12
 BYTE   Dn1  v024
 BYTE   W12
 BYTE   Dn1  v052
 BYTE   W06
 BYTE   N03
 BYTE   W06
 BYTE   PEND 
 BYTE   PATT
  POIN2 Label_9_0135CFD3
// 015   ----------------------------------------
Label_9_0135D150:
 BYTE   N03  Dn1  v056
 BYTE   W12
 BYTE   Dn1  v016
 BYTE   W12
 BYTE   Dn1  v020
 BYTE   N03  Bn2
 BYTE   W06
 BYTE   Dn1  v032
 BYTE   N03  Bn2
 BYTE   W06
 BYTE   Dn1  v044
 BYTE   N03  Bn2
 BYTE   W06
 BYTE   Dn1  v056
 BYTE   N03  Bn2
 BYTE   W06
 BYTE   Cn1  v088
 BYTE   N03  Dn1  v056
 BYTE   N03  Bn2  v096
 BYTE   W12
 BYTE   Dn1  v024
 BYTE   W12
 BYTE   Dn1  v008
 BYTE   W12
 BYTE   Cn1  v088
 BYTE   N03  Dn1  v056
 BYTE   W12
 BYTE   PEND 
// 016   ----------------------------------------
Label_9_0135D181:
 BYTE   N03  Dn1  v024
 BYTE   W12
 BYTE   Dn1  v008
 BYTE   W12
 BYTE   Cn1  v088
 BYTE   N03  Dn1  v056
 BYTE   W12
 BYTE   Dn1  v008
 BYTE   W12
 BYTE   Cn1  v088
 BYTE   N03  Dn1  v056
 BYTE   W12
 BYTE   Dn1  v008
 BYTE   W12
 BYTE   Cn1  v088
 BYTE   N03  Dn1  v056
 BYTE   W12
 BYTE   Dn1  v008
 BYTE   W12
 BYTE   PEND 
// 017   ----------------------------------------
Label_9_0135D1A4:
 BYTE   N03  Cn1  v088
 BYTE   N03  Dn1  v056
 BYTE   W12
 BYTE   Dn1  v024
 BYTE   W12
 BYTE   Dn1  v008
 BYTE   W12
 BYTE   Cn1  v088
 BYTE   N03  Dn1  v056
 BYTE   W12
 BYTE   Dn1  v024
 BYTE   W12
 BYTE   Dn1  v008
 BYTE   W12
 BYTE   Cn1  v088
 BYTE   N03  Dn1  v056
 BYTE   W12
 BYTE   Dn1  v008
 BYTE   W12
 BYTE   PEND 
// 018   ----------------------------------------
Label_9_0135D1C7:
 BYTE   N03  Cn1  v088
 BYTE   N03  Dn1  v056
 BYTE   W12
 BYTE   Dn1  v008
 BYTE   W12
 BYTE   Cn1  v088
 BYTE   N03  Dn1  v056
 BYTE   W12
 BYTE   Dn1  v008
 BYTE   W12
 BYTE   Cn1  v088
 BYTE   N03  Dn1  v056
 BYTE   W12
 BYTE   Dn1  v024
 BYTE   W12
 BYTE   Dn1  v008
 BYTE   W12
 BYTE   Cn1  v088
 BYTE   N03  Dn1  v056
 BYTE   W12
 BYTE   PEND 
 BYTE   PATT
  POIN2 Label_9_0135D181
 BYTE   PATT
  POIN2 Label_9_0135D1A4
 BYTE   PATT
  POIN2 Label_9_0135D1C7
// 019   ----------------------------------------
Label_9_0135D1FC:
 BYTE   N03  Dn1  v024
 BYTE   W12
 BYTE   Dn1  v008
 BYTE   W12
 BYTE   Cn1  v088
 BYTE   N03  Dn1  v056
 BYTE   W12
 BYTE   Dn1  v008
 BYTE   W12
 BYTE   Cn1  v088
 BYTE   N03  Dn1  v056
 BYTE   W12
 BYTE   Dn1  v008
 BYTE   W12
 BYTE   Cn1  v088
 BYTE   N03  Dn1  v016
 BYTE   N03  Bn2  v020
 BYTE   W06
 BYTE   Dn1  v024
 BYTE   N03  Bn2  v032
 BYTE   W06
 BYTE   Dn1
 BYTE   N03  Bn2  v044
 BYTE   W06
 BYTE   Dn1
 BYTE   N03  Bn2  v056
 BYTE   W06
 BYTE   PEND 
// 020   ----------------------------------------
Label_9_0135D22F:
 BYTE   N03  Cn1  v088
 BYTE   N03  Dn1  v056
 BYTE   N03  Bn2  v096
 BYTE   W12
 BYTE   Dn1  v024
 BYTE   W12
 BYTE   Dn1  v008
 BYTE   W12
 BYTE   Cn1  v088
 BYTE   N03  Dn1  v056
 BYTE   W12
 BYTE   Dn1  v024
 BYTE   W12
 BYTE   Dn1  v008
 BYTE   W12
 BYTE   Cn1  v088
 BYTE   N03  Dn1  v056
 BYTE   W12
 BYTE   Dn1  v008
 BYTE   W12
 BYTE   PEND 
 BYTE   PATT
  POIN2 Label_9_0135D1C7
 BYTE   PATT
  POIN2 Label_9_0135D181
 BYTE   PATT
  POIN2 Label_9_0135D1A4
 BYTE   PATT
  POIN2 Label_9_0135D1C7
// 021   ----------------------------------------
Label_9_0135D269:
 BYTE   N03  Dn1  v024
 BYTE   W12
 BYTE   Dn1  v008
 BYTE   W12
 BYTE   Cn1  v088
 BYTE   N03  Dn1  v056
 BYTE   W12
 BYTE   Dn1  v008
 BYTE   W12
 BYTE   Cn1  v088
 BYTE   N03  Dn1  v056
 BYTE   W12
 BYTE   Dn1  v008
 BYTE   W12
 BYTE   Cn1  v088
 BYTE   N03  Dn1  v016
 BYTE   N03  Bn2  v020
 BYTE   W06
 BYTE   Dn1  v024
 BYTE   N03  Bn2  v032
 BYTE   W06
 BYTE   Dn1  v040
 BYTE   N03  Bn2  v044
 BYTE   W06
 BYTE   Dn1  v056
 BYTE   N03  Bn2
 BYTE   W06
 BYTE   PEND 
// 022   ----------------------------------------
Label_9_0135D29D:
 BYTE   N03  Dn1  v056
 BYTE   N03  Bn2  v096
 BYTE   W12
 BYTE   Dn1  v024
 BYTE   W12
 BYTE   Dn1  v008
 BYTE   W12
 BYTE   Dn1  v056
 BYTE   W12
 BYTE   Dn1  v024
 BYTE   W12
 BYTE   Dn1  v008
 BYTE   W12
 BYTE   Dn1  v056
 BYTE   W12
 BYTE   Dn1  v008
 BYTE   W12
 BYTE   PEND 
 BYTE   PATT
  POIN2 Label_9_0135CF10
 BYTE   PATT
  POIN2 Label_9_0135CF2A
 BYTE   PATT
  POIN2 Label_9_0135CF44
 BYTE   PATT
  POIN2 Label_9_0135CF10
 BYTE   PATT
  POIN2 Label_9_0135CF2A
 BYTE   PATT
  POIN2 Label_9_0135CF68
 BYTE   PATT
  POIN2 Label_9_0135CF10
 BYTE   PATT
  POIN2 Label_9_0135CF2A
 BYTE   PATT
  POIN2 Label_9_0135CF44
 BYTE   PATT
  POIN2 Label_9_0135CF10
 BYTE   PATT
  POIN2 Label_9_0135CF2A
 BYTE   PATT
  POIN2 Label_9_0135CF68
 BYTE   PATT
  POIN2 Label_9_0135CF10
 BYTE   PATT
  POIN2 Label_9_0135CF2A
 BYTE   PATT
  POIN2 Label_9_0135CF44
 BYTE   PATT
  POIN2 Label_9_0135CF10
 BYTE   PATT
  POIN2 Label_9_0135CF2A
 BYTE   PATT
  POIN2 Label_9_0135CF44
 BYTE   PATT
  POIN2 Label_9_0135CFC1
// 023   ----------------------------------------
 BYTE   W96
 BYTE   PATT
  POIN2 Label_9_0135CFD3
 BYTE   PATT
  POIN2 Label_9_0135CFED
 BYTE   PATT
  POIN2 Label_9_0135D00C
 BYTE   PATT
  POIN2 Label_9_0135CFD3
 BYTE   PATT
  POIN2 Label_9_0135D030
 BYTE   PATT
  POIN2 Label_9_0135D078
 BYTE   PATT
  POIN2 Label_9_0135D0A8
 BYTE   PATT
  POIN2 Label_9_0135D0F2
 BYTE   PATT
  POIN2 Label_9_0135D12F
 BYTE   PATT
  POIN2 Label_9_0135CFD3
 BYTE   PATT
  POIN2 Label_9_0135D150
 BYTE   PATT
  POIN2 Label_9_0135D181
 BYTE   PATT
  POIN2 Label_9_0135D1A4
 BYTE   PATT
  POIN2 Label_9_0135D1C7
 BYTE   PATT
  POIN2 Label_9_0135D181
 BYTE   PATT
  POIN2 Label_9_0135D1A4
 BYTE   PATT
  POIN2 Label_9_0135D1C7
 BYTE   PATT
  POIN2 Label_9_0135D1FC
 BYTE   PATT
  POIN2 Label_9_0135D22F
 BYTE   PATT
  POIN2 Label_9_0135D1C7
 BYTE   PATT
  POIN2 Label_9_0135D181
 BYTE   PATT
  POIN2 Label_9_0135D1A4
 BYTE   PATT
  POIN2 Label_9_0135D1C7
 BYTE   PATT
  POIN2 Label_9_0135D269
 BYTE   PATT
  POIN2 Label_9_0135D29D
 BYTE   PATT
  POIN2 Label_9_0135CF10
 BYTE   PATT
  POIN2 Label_9_0135CF2A
 BYTE   PATT
  POIN2 Label_9_0135CF44
 BYTE   PATT
  POIN2 Label_9_0135CF10
// 024   ----------------------------------------
 BYTE   N03  Dn1  v024
 BYTE   W12
 BYTE   Dn1  v008
 BYTE   W12
 BYTE   Dn1  v056
 BYTE   W12
 BYTE   Dn1  v008
 BYTE   W12
 BYTE   Dn1  v056
 BYTE   W12
 BYTE   Dn1  v008
 BYTE   W12
 BYTE   Dn1  v056
 BYTE   W12
 BYTE   Dn1  v008
 BYTE   W11
 BYTE   GoTo
  POIN2 Label_9_0135CEEA
 BYTE   FINE

//**************** Track 11 (Midi-Chn.10) ****************//

FF10EnemyAttackAReliableChair_011:
// 000   ----------------------------------------
 BYTE   KEYSH   FF10EnemyAttackAReliableChair_key+0
Label_10_0135D3CE:
 BYTE   VOICE   49
 BYTE   BENDR  64
 BYTE   MODT 0
 BYTE   CnM2
 BYTE   LFOS 0
 BYTE   Gs1
 BYTE   VOL   33*FF10EnemyAttackAReliableChair_mvl/mxv
 BYTE   PAN   c_v+0
 BYTE   W96
// 001   ----------------------------------------
 BYTE   W96
// 002   ----------------------------------------
 BYTE   W96
// 003   ----------------------------------------
 BYTE   W96
// 004   ----------------------------------------
 BYTE   W96
// 005   ----------------------------------------
 BYTE   W96
// 006   ----------------------------------------
 BYTE   W96
// 007   ----------------------------------------
 BYTE   W96
// 008   ----------------------------------------
 BYTE   W96
// 009   ----------------------------------------
 BYTE   W96
// 010   ----------------------------------------
 BYTE   W96
// 011   ----------------------------------------
 BYTE   W96
// 012   ----------------------------------------
 BYTE   W96
// 013   ----------------------------------------
 BYTE   W96
// 014   ----------------------------------------
 BYTE   W96
// 015   ----------------------------------------
 BYTE   W96
// 016   ----------------------------------------
 BYTE   W96
// 017   ----------------------------------------
 BYTE   W96
// 018   ----------------------------------------
 BYTE   W96
// 019   ----------------------------------------
 BYTE   W96
// 020   ----------------------------------------
 BYTE   W96
// 021   ----------------------------------------
 BYTE   W96
// 022   ----------------------------------------
 BYTE   W96
// 023   ----------------------------------------
 BYTE   W96
// 024   ----------------------------------------
 BYTE   W96
// 025   ----------------------------------------
 BYTE   W96
// 026   ----------------------------------------
 BYTE   W96
// 027   ----------------------------------------
 BYTE   W96
// 028   ----------------------------------------
 BYTE   W96
// 029   ----------------------------------------
 BYTE   W96
// 030   ----------------------------------------
 BYTE   W96
// 031   ----------------------------------------
Label_10_0135D3F9:
 BYTE   W48
 BYTE   N03  Gs2  v088
 BYTE   W36
 BYTE   N03
 BYTE   W12
 BYTE   PEND 
// 032   ----------------------------------------
Label_10_0135D401:
 BYTE   W24
 BYTE   N03  Gs2  v088
 BYTE   W24
 BYTE   N03
 BYTE   W24
 BYTE   N03
 BYTE   W24
 BYTE   PEND 
// 033   ----------------------------------------
Label_10_0135D40B:
 BYTE   N03  Gs2  v088
 BYTE   W36
 BYTE   N03
 BYTE   W36
 BYTE   N03
 BYTE   W24
 BYTE   PEND 
// 034   ----------------------------------------
Label_10_0135D414:
 BYTE   N03  Gs2  v088
 BYTE   W24
 BYTE   N03
 BYTE   W24
 BYTE   N03
 BYTE   W36
 BYTE   N03
 BYTE   W12
 BYTE   PEND 
 BYTE   PATT
  POIN2 Label_10_0135D401
 BYTE   PATT
  POIN2 Label_10_0135D40B
 BYTE   PATT
  POIN2 Label_10_0135D414
 BYTE   PATT
  POIN2 Label_10_0135D401
 BYTE   PATT
  POIN2 Label_10_0135D40B
 BYTE   PATT
  POIN2 Label_10_0135D414
 BYTE   PATT
  POIN2 Label_10_0135D401
 BYTE   PATT
  POIN2 Label_10_0135D40B
 BYTE   PATT
  POIN2 Label_10_0135D414
 BYTE   PATT
  POIN2 Label_10_0135D401
// 035   ----------------------------------------
 BYTE   W96
// 036   ----------------------------------------
 BYTE   W96
// 037   ----------------------------------------
 BYTE   W96
// 038   ----------------------------------------
 BYTE   W96
// 039   ----------------------------------------
 BYTE   W96
// 040   ----------------------------------------
 BYTE   W96
// 041   ----------------------------------------
 BYTE   W96
// 042   ----------------------------------------
 BYTE   W96
// 043   ----------------------------------------
 BYTE   W96
// 044   ----------------------------------------
 BYTE   W96
// 045   ----------------------------------------
 BYTE   W96
// 046   ----------------------------------------
 BYTE   W96
// 047   ----------------------------------------
 BYTE   W96
// 048   ----------------------------------------
 BYTE   W96
// 049   ----------------------------------------
 BYTE   W96
// 050   ----------------------------------------
 BYTE   W96
// 051   ----------------------------------------
 BYTE   W96
// 052   ----------------------------------------
 BYTE   W96
// 053   ----------------------------------------
 BYTE   W96
// 054   ----------------------------------------
 BYTE   W96
// 055   ----------------------------------------
 BYTE   W96
// 056   ----------------------------------------
 BYTE   W96
// 057   ----------------------------------------
 BYTE   W96
// 058   ----------------------------------------
 BYTE   W96
// 059   ----------------------------------------
 BYTE   W96
// 060   ----------------------------------------
 BYTE   W96
// 061   ----------------------------------------
 BYTE   W96
// 062   ----------------------------------------
 BYTE   W96
// 063   ----------------------------------------
 BYTE   W96
// 064   ----------------------------------------
 BYTE   W96
// 065   ----------------------------------------
 BYTE   W96
 BYTE   PATT
  POIN2 Label_10_0135D3F9
 BYTE   PATT
  POIN2 Label_10_0135D401
 BYTE   PATT
  POIN2 Label_10_0135D40B
 BYTE   PATT
  POIN2 Label_10_0135D414
 BYTE   PATT
  POIN2 Label_10_0135D401
 BYTE   PATT
  POIN2 Label_10_0135D40B
 BYTE   PATT
  POIN2 Label_10_0135D414
 BYTE   PATT
  POIN2 Label_10_0135D401
 BYTE   PATT
  POIN2 Label_10_0135D40B
 BYTE   PATT
  POIN2 Label_10_0135D414
 BYTE   PATT
  POIN2 Label_10_0135D401
 BYTE   PATT
  POIN2 Label_10_0135D40B
 BYTE   PATT
  POIN2 Label_10_0135D414
 BYTE   PATT
  POIN2 Label_10_0135D401
// 066   ----------------------------------------
 BYTE   W96
// 067   ----------------------------------------
 BYTE   W96
// 068   ----------------------------------------
 BYTE   W96
// 069   ----------------------------------------
 BYTE   W96
// 070   ----------------------------------------
 BYTE   W96
// 071   ----------------------------------------
 BYTE   W92
 BYTE   W03
 BYTE   GoTo
  POIN2 Label_10_0135D3CE
 BYTE   FINE

//**************** Track 12 (Midi-Chn.11) ****************//

FF10EnemyAttackAReliableChair_012:
// 000   ----------------------------------------
 BYTE   KEYSH   FF10EnemyAttackAReliableChair_key+0
Label_11_0135D4C6:
 BYTE   VOICE   52
 BYTE   MODT 0
 BYTE   CnM2
 BYTE   LFOS 0
 BYTE   Gs1
 BYTE   VOL   39*FF10EnemyAttackAReliableChair_mvl/mxv
 BYTE   PAN   c_v+0
 BYTE   W96
// 001   ----------------------------------------
 BYTE   W96
// 002   ----------------------------------------
 BYTE   W96
// 003   ----------------------------------------
 BYTE   W96
// 004   ----------------------------------------
 BYTE   W96
// 005   ----------------------------------------
 BYTE   W96
// 006   ----------------------------------------
 BYTE   W96
// 007   ----------------------------------------
 BYTE   W96
// 008   ----------------------------------------
 BYTE   W96
// 009   ----------------------------------------
 BYTE   W96
// 010   ----------------------------------------
 BYTE   W96
// 011   ----------------------------------------
 BYTE   W96
// 012   ----------------------------------------
 BYTE   W96
// 013   ----------------------------------------
 BYTE   W96
// 014   ----------------------------------------
 BYTE   W96
// 015   ----------------------------------------
 BYTE   W96
// 016   ----------------------------------------
 BYTE   W96
// 017   ----------------------------------------
 BYTE   W96
// 018   ----------------------------------------
 BYTE   W96
// 019   ----------------------------------------
 BYTE   W96
// 020   ----------------------------------------
 BYTE   W96
// 021   ----------------------------------------
 BYTE   W96
// 022   ----------------------------------------
 BYTE   W96
// 023   ----------------------------------------
 BYTE   W96
// 024   ----------------------------------------
 BYTE   W96
// 025   ----------------------------------------
 BYTE   W96
// 026   ----------------------------------------
 BYTE   W96
// 027   ----------------------------------------
 BYTE   W96
// 028   ----------------------------------------
 BYTE   W96
// 029   ----------------------------------------
 BYTE   W96
// 030   ----------------------------------------
 BYTE   W96
// 031   ----------------------------------------
Label_11_0135D4EF:
 BYTE   W48
 BYTE   TIE  Cs3  v088
 BYTE   TIE  Fs3
 BYTE   TIE  Cs4
 BYTE   TIE  Fs4  v112
 BYTE   W48
 BYTE   PEND 
// 032   ----------------------------------------
 BYTE   W96
// 033   ----------------------------------------
 BYTE   EOT
 BYTE   Cs3  v066
 BYTE   Cs4  v078
Label_11_0135D502:
 BYTE   TIE  Cs3  v088
 BYTE   TIE  Gs3
 BYTE   TIE  Cs4
 BYTE   TIE  Gs4  v116
 BYTE   W96
 BYTE   PEND 
// 034   ----------------------------------------
 BYTE   W48
 BYTE   EOT
 BYTE   Cs3  v068
 BYTE   Cs4  v080
 BYTE   TIE  Dn3  v088
 BYTE   TIE  An3
 BYTE   TIE  Dn4
 BYTE   TIE  An4  v116
 BYTE   W48
// 035   ----------------------------------------
 BYTE   W96
// 036   ----------------------------------------
 BYTE   EOT
 BYTE   Dn3  v069
 BYTE   Dn4  v081
Label_11_0135D525:
 BYTE   TIE  En3  v088
 BYTE   TIE  Bn3
 BYTE   TIE  En4
 BYTE   TIE  Bn4  v116
 BYTE   W96
 BYTE   PEND 
// 037   ----------------------------------------
 BYTE   W48
 BYTE   EOT
 BYTE   En3  v071
 BYTE   En4  v083
 BYTE   TIE  Dn3  v088
 BYTE   TIE  An3
 BYTE   TIE  Dn4
 BYTE   TIE  An4  v116
 BYTE   W48
// 038   ----------------------------------------
 BYTE   W96
// 039   ----------------------------------------
 BYTE   EOT
 BYTE   Dn3  v069
 BYTE   Dn4  v081
Label_11_0135D548:
 BYTE   TIE  Dn3  v088
 BYTE   TIE  Gn3
 BYTE   TIE  Dn4
 BYTE   TIE  Gn4  v116
 BYTE   W96
 BYTE   PEND 
// 040   ----------------------------------------
 BYTE   W48
 BYTE   EOT
 BYTE   Dn3  v067
 BYTE   Dn4  v079
 BYTE   TIE  Dn3  v088
 BYTE   TIE  An3  v116
 BYTE   TIE  Dn4  v088
 BYTE   TIE  An4  v116
 BYTE   W48
// 041   ----------------------------------------
 BYTE   W96
// 042   ----------------------------------------
 BYTE   EOT
 BYTE   Dn3  v069
 BYTE   Dn4  v081
Label_11_0135D56D:
 BYTE   TIE  Ds3  v088
 BYTE   TIE  As3  v116
 BYTE   TIE  Ds4  v088
 BYTE   TIE  As4  v116
 BYTE   W96
 BYTE   PEND 
// 043   ----------------------------------------
 BYTE   W48
 BYTE   EOT
 BYTE   Ds3  v070
 BYTE   Ds4  v082
 BYTE   TIE  Fn3  v088
 BYTE   TIE  Cn4  v116
 BYTE   TIE  Fn4  v088
 BYTE   TIE  Cn5  v116
 BYTE   W48
// 044   ----------------------------------------
 BYTE   W96
// 045   ----------------------------------------
 BYTE   EOT
 BYTE   Fn3  v072
 BYTE   Fn4  v084
 BYTE   W96
// 046   ----------------------------------------
 BYTE   W96
// 047   ----------------------------------------
 BYTE   W96
// 048   ----------------------------------------
 BYTE   W96
// 049   ----------------------------------------
 BYTE   W96
// 050   ----------------------------------------
 BYTE   W96
// 051   ----------------------------------------
 BYTE   W96
// 052   ----------------------------------------
 BYTE   W96
// 053   ----------------------------------------
 BYTE   W96
// 054   ----------------------------------------
 BYTE   W96
// 055   ----------------------------------------
 BYTE   W96
// 056   ----------------------------------------
 BYTE   W96
// 057   ----------------------------------------
 BYTE   W96
// 058   ----------------------------------------
 BYTE   W96
// 059   ----------------------------------------
 BYTE   W96
// 060   ----------------------------------------
 BYTE   W96
// 061   ----------------------------------------
 BYTE   W96
// 062   ----------------------------------------
 BYTE   W96
// 063   ----------------------------------------
 BYTE   W96
// 064   ----------------------------------------
 BYTE   W96
// 065   ----------------------------------------
 BYTE   W96
// 066   ----------------------------------------
 BYTE   W96
// 067   ----------------------------------------
 BYTE   W96
// 068   ----------------------------------------
 BYTE   W96
// 069   ----------------------------------------
 BYTE   W96
// 070   ----------------------------------------
 BYTE   W96
// 071   ----------------------------------------
 BYTE   W96
// 072   ----------------------------------------
 BYTE   W96
// 073   ----------------------------------------
 BYTE   W96
// 074   ----------------------------------------
 BYTE   W96
// 075   ----------------------------------------
 BYTE   W96
 BYTE   PATT
  POIN2 Label_11_0135D4EF
// 076   ----------------------------------------
 BYTE   W96
// 077   ----------------------------------------
 BYTE   EOT
 BYTE   Cs3  v066
 BYTE   Cs4  v078
 BYTE   PATT
  POIN2 Label_11_0135D502
// 078   ----------------------------------------
 BYTE   W48
 BYTE   EOT
 BYTE   Cs3  v068
 BYTE   Cs4  v080
 BYTE   TIE  Dn3  v088
 BYTE   TIE  An3
 BYTE   TIE  Dn4
 BYTE   TIE  An4  v116
 BYTE   W48
// 079   ----------------------------------------
 BYTE   W96
// 080   ----------------------------------------
 BYTE   EOT
 BYTE   Dn3  v069
 BYTE   Dn4  v081
 BYTE   PATT
  POIN2 Label_11_0135D525
// 081   ----------------------------------------
 BYTE   W48
 BYTE   EOT
 BYTE   En3  v071
 BYTE   En4  v083
 BYTE   TIE  Dn3  v088
 BYTE   TIE  An3
 BYTE   TIE  Dn4
 BYTE   TIE  An4  v116
 BYTE   W48
// 082   ----------------------------------------
 BYTE   W96
// 083   ----------------------------------------
 BYTE   EOT
 BYTE   Dn3  v069
 BYTE   Dn4  v081
 BYTE   PATT
  POIN2 Label_11_0135D548
// 084   ----------------------------------------
 BYTE   W48
 BYTE   EOT
 BYTE   Dn3  v067
 BYTE   Dn4  v079
 BYTE   TIE  Dn3  v088
 BYTE   TIE  An3  v116
 BYTE   TIE  Dn4  v088
 BYTE   TIE  An4  v116
 BYTE   W48
// 085   ----------------------------------------
 BYTE   W96
// 086   ----------------------------------------
 BYTE   EOT
 BYTE   Dn3  v069
 BYTE   Dn4  v081
 BYTE   PATT
  POIN2 Label_11_0135D56D
// 087   ----------------------------------------
 BYTE   W48
 BYTE   EOT
 BYTE   Ds3  v070
 BYTE   Ds4  v082
 BYTE   TIE  Fn3  v088
 BYTE   TIE  Cn4  v116
 BYTE   TIE  Fn4  v088
 BYTE   TIE  Cn5  v116
 BYTE   W48
// 088   ----------------------------------------
 BYTE   W96
// 089   ----------------------------------------
 BYTE   EOT
 BYTE   Fn3  v072
 BYTE   Fn4  v084
 BYTE   W96
// 090   ----------------------------------------
 BYTE   W96
// 091   ----------------------------------------
 BYTE   W96
// 092   ----------------------------------------
 BYTE   W96
// 093   ----------------------------------------
 BYTE   W96
// 094   ----------------------------------------
 BYTE   W92
 BYTE   W03
 BYTE   GoTo
  POIN2 Label_11_0135D4C6
 BYTE   FINE

//**************** Track 13 (Midi-Chn.12) ****************//

FF10EnemyAttackAReliableChair_013:
// 000   ----------------------------------------
 BYTE   KEYSH   FF10EnemyAttackAReliableChair_key+0
Label_12_0135D642:
 BYTE   VOICE   56
 BYTE   MODT 0
 BYTE   CnM2
 BYTE   LFOS 0
 BYTE   Gs1
 BYTE   VOL   33*FF10EnemyAttackAReliableChair_mvl/mxv
 BYTE   PAN   c_v-32
 BYTE   W96
// 001   ----------------------------------------
 BYTE   W96
// 002   ----------------------------------------
 BYTE   W96
// 003   ----------------------------------------
 BYTE   W96
// 004   ----------------------------------------
 BYTE   W96
// 005   ----------------------------------------
 BYTE   W96
// 006   ----------------------------------------
 BYTE   W96
// 007   ----------------------------------------
 BYTE   W96
// 008   ----------------------------------------
 BYTE   W96
// 009   ----------------------------------------
 BYTE   W96
// 010   ----------------------------------------
 BYTE   W96
// 011   ----------------------------------------
 BYTE   W96
// 012   ----------------------------------------
 BYTE   W96
// 013   ----------------------------------------
 BYTE   W96
// 014   ----------------------------------------
 BYTE   W96
// 015   ----------------------------------------
 BYTE   W96
// 016   ----------------------------------------
 BYTE   W96
// 017   ----------------------------------------
 BYTE   W96
// 018   ----------------------------------------
 BYTE   W96
// 019   ----------------------------------------
 BYTE   W96
// 020   ----------------------------------------
 BYTE   W96
// 021   ----------------------------------------
 BYTE   W96
// 022   ----------------------------------------
 BYTE   W96
// 023   ----------------------------------------
 BYTE   W96
// 024   ----------------------------------------
 BYTE   W96
// 025   ----------------------------------------
 BYTE   W96
// 026   ----------------------------------------
 BYTE   W96
// 027   ----------------------------------------
 BYTE   W96
// 028   ----------------------------------------
 BYTE   W96
// 029   ----------------------------------------
 BYTE   W96
// 030   ----------------------------------------
 BYTE   W96
// 031   ----------------------------------------
 BYTE   W96
// 032   ----------------------------------------
 BYTE   W96
// 033   ----------------------------------------
 BYTE   W96
// 034   ----------------------------------------
 BYTE   W96
// 035   ----------------------------------------
 BYTE   W96
// 036   ----------------------------------------
 BYTE   W96
// 037   ----------------------------------------
 BYTE   W96
// 038   ----------------------------------------
 BYTE   W96
// 039   ----------------------------------------
Label_12_0135D673:
 BYTE   N05  Gn3  v100
 BYTE   W12
 BYTE   Dn4
 BYTE   W12
 BYTE   Ds4
 BYTE   W12
 BYTE   Cn4
 BYTE   W12
 BYTE   Dn4
 BYTE   W12
 BYTE   Fn3
 BYTE   W12
 BYTE   Gn3
 BYTE   W12
 BYTE   Dn4
 BYTE   W12
 BYTE   PEND 
// 040   ----------------------------------------
Label_12_0135D686:
 BYTE   N05  Ds4  v100
 BYTE   W12
 BYTE   Cn4
 BYTE   W12
 BYTE   Dn4
 BYTE   W12
 BYTE   Fn4
 BYTE   W12
 BYTE   Gn3
 BYTE   W12
 BYTE   Dn4
 BYTE   W12
 BYTE   Ds4
 BYTE   W12
 BYTE   Cn4
 BYTE   W12
 BYTE   PEND 
// 041   ----------------------------------------
Label_12_0135D699:
 BYTE   N05  Dn4  v100
 BYTE   W12
 BYTE   Fn3
 BYTE   W12
 BYTE   Gn3
 BYTE   W12
 BYTE   Dn4
 BYTE   W12
 BYTE   Ds4
 BYTE   W12
 BYTE   Cn4
 BYTE   W12
 BYTE   Dn4
 BYTE   W12
 BYTE   Fn4
 BYTE   W12
 BYTE   PEND 
 BYTE   PATT
  POIN2 Label_12_0135D673
 BYTE   PATT
  POIN2 Label_12_0135D686
 BYTE   PATT
  POIN2 Label_12_0135D699
// 042   ----------------------------------------
 BYTE   W96
// 043   ----------------------------------------
 BYTE   W96
// 044   ----------------------------------------
 BYTE   W96
// 045   ----------------------------------------
 BYTE   W96
// 046   ----------------------------------------
 BYTE   W96
// 047   ----------------------------------------
 BYTE   W96
// 048   ----------------------------------------
 BYTE   W96
// 049   ----------------------------------------
 BYTE   W96
// 050   ----------------------------------------
 BYTE   W96
// 051   ----------------------------------------
 BYTE   W96
// 052   ----------------------------------------
 BYTE   W96
// 053   ----------------------------------------
 BYTE   W96
// 054   ----------------------------------------
 BYTE   W96
// 055   ----------------------------------------
 BYTE   W96
// 056   ----------------------------------------
 BYTE   W96
// 057   ----------------------------------------
 BYTE   W96
// 058   ----------------------------------------
 BYTE   W96
// 059   ----------------------------------------
 BYTE   W96
// 060   ----------------------------------------
 BYTE   W96
// 061   ----------------------------------------
 BYTE   W96
// 062   ----------------------------------------
 BYTE   W96
// 063   ----------------------------------------
 BYTE   W96
// 064   ----------------------------------------
 BYTE   W96
// 065   ----------------------------------------
 BYTE   W96
// 066   ----------------------------------------
 BYTE   W96
// 067   ----------------------------------------
 BYTE   W96
// 068   ----------------------------------------
 BYTE   W96
// 069   ----------------------------------------
 BYTE   W96
// 070   ----------------------------------------
 BYTE   W96
// 071   ----------------------------------------
 BYTE   W96
// 072   ----------------------------------------
 BYTE   W96
// 073   ----------------------------------------
 BYTE   W96
// 074   ----------------------------------------
 BYTE   W96
// 075   ----------------------------------------
 BYTE   W96
// 076   ----------------------------------------
 BYTE   W96
// 077   ----------------------------------------
 BYTE   W96
// 078   ----------------------------------------
 BYTE   W96
// 079   ----------------------------------------
 BYTE   W96
// 080   ----------------------------------------
 BYTE   W96
 BYTE   PATT
  POIN2 Label_12_0135D673
 BYTE   PATT
  POIN2 Label_12_0135D686
 BYTE   PATT
  POIN2 Label_12_0135D699
 BYTE   PATT
  POIN2 Label_12_0135D673
 BYTE   PATT
  POIN2 Label_12_0135D686
 BYTE   PATT
  POIN2 Label_12_0135D699
// 081   ----------------------------------------
 BYTE   W96
// 082   ----------------------------------------
 BYTE   W96
// 083   ----------------------------------------
 BYTE   W96
// 084   ----------------------------------------
 BYTE   W96
// 085   ----------------------------------------
 BYTE   W96
// 086   ----------------------------------------
 BYTE   W92
 BYTE   W03
 BYTE   GoTo
  POIN2 Label_12_0135D642
 BYTE   FINE

//******************************************************//
	ALIGN 4

FF10EnemyAttackAReliableChair:
	BYTE	13	// NumTrks
	BYTE	0	// NumBlks
	BYTE	FF10EnemyAttackAReliableChair_pri	// Priority
	BYTE	FF10EnemyAttackAReliableChair_rev	// Reverb.
    
	POIN2	FF10EnemyAttackAReliableChair_grp
    
	POIN2	FF10EnemyAttackAReliableChair_001
	POIN2	FF10EnemyAttackAReliableChair_002
	POIN2	FF10EnemyAttackAReliableChair_003
	POIN2	FF10EnemyAttackAReliableChair_004
	POIN2	FF10EnemyAttackAReliableChair_005
	POIN2	FF10EnemyAttackAReliableChair_006
	POIN2	FF10EnemyAttackAReliableChair_007
	POIN2	FF10EnemyAttackAReliableChair_008
	POIN2	FF10EnemyAttackAReliableChair_009
	POIN2	FF10EnemyAttackAReliableChair_010
	POIN2	FF10EnemyAttackAReliableChair_011
	POIN2	FF10EnemyAttackAReliableChair_012
	POIN2	FF10EnemyAttackAReliableChair_013

	
