//Event file generated from Sappy .s format.
	#include "MPlayDef.event"

	#define	FF2CastlepandemoniumRSflame_grp  voicegroup000
	#define	FF2CastlepandemoniumRSflame_pri  10
	#define	FF2CastlepandemoniumRSflame_rev  0
	#define	FF2CastlepandemoniumRSflame_mvl  127
	#define	FF2CastlepandemoniumRSflame_key  0
	#define	FF2CastlepandemoniumRSflame_tbs  1
	#define	FF2CastlepandemoniumRSflame_exg  0
	#define	FF2CastlepandemoniumRSflame_cmp  1

	// .rodata
	//	FF2CastlepandemoniumRSflame
	ALIGN 4


//**************** Track 1 (Midi-Chn.0) ****************//

FF2CastlepandemoniumRSflame_001:
// 000   ----------------------------------------
Label_0_01EA6980:
 BYTE   KEYSH   FF2CastlepandemoniumRSflame_key+0
 BYTE   VOICE   61
 BYTE   VOL   42*FF2CastlepandemoniumRSflame_mvl/mxv
 BYTE   PAN   c_v+0
 BYTE   TEMPO   138*FF2CastlepandemoniumRSflame_tbs/2
 BYTE   W24
 BYTE   VOL   42*FF2CastlepandemoniumRSflame_mvl/mxv
 BYTE   N01  Gs2  v127
 BYTE   W01
 BYTE   N40  An2
 BYTE   W20
 BYTE   N01
 BYTE   W24
 BYTE   W02
 BYTE   N20  Bn2
 BYTE   W24
 BYTE   Cn3
 BYTE   W24
// 001   ----------------------------------------
 BYTE   N44  Dn3
 BYTE   W48
 BYTE   N20  En3
 BYTE   W24
 BYTE   Fn3
 BYTE   W24
// 002   ----------------------------------------
 BYTE   N30  En3
 BYTE   W15
 BYTE   N01
 BYTE   W21
 BYTE   N09  Cn3
 BYTE   W12
 BYTE   N96  An2
 BYTE   W48
// 003   ----------------------------------------
 BYTE   N30
 BYTE   W15
 BYTE   N01
 BYTE   W68
 BYTE   W01
 BYTE   N03
 BYTE   W03
 BYTE   Bn2
 BYTE   W03
 BYTE   Cn3
 BYTE   W03
 BYTE   Dn3
 BYTE   W03
// 004   ----------------------------------------
 BYTE   N42  En3
 BYTE   W42
 BYTE   N02  Fs3
 BYTE   W02
 BYTE   Gn3
 BYTE   W02
 BYTE   Gs3
 BYTE   W02
 BYTE   N44  An3
 BYTE   W48
// 005   ----------------------------------------
 BYTE   N20  Gs3
 BYTE   W24
 BYTE   An3
 BYTE   W24
 BYTE   Bn3
 BYTE   W24
 BYTE   Gs3
 BYTE   W24
// 006   ----------------------------------------
 BYTE   N42  An3
 BYTE   W42
 BYTE   N02  Gn3
 BYTE   W02
 BYTE   Fs3
 BYTE   W02
 BYTE   Fn3
 BYTE   W02
 BYTE   N96  En3
 BYTE   W44
 BYTE   W03
 BYTE   W01
// 007   ----------------------------------------
 BYTE   N06  En3  v127
 BYTE   W60
 BYTE   N09  Dn3
 BYTE   W12
 BYTE   Dn3
 BYTE   W12
 BYTE   En3
 BYTE   W11
 BYTE   W01
// 008   ----------------------------------------
 BYTE   N44  Fn3  v127
 BYTE   W48
 BYTE   N20  Cn3
 BYTE   W24
 BYTE   An2
 BYTE   W24
// 009   ----------------------------------------
 BYTE   Gs2
 BYTE   W24
 BYTE   En3
 BYTE   W24
 BYTE   Dn3
 BYTE   W24
 BYTE   En3
 BYTE   W24
// 010   ----------------------------------------
 BYTE   N30  Cn3
 BYTE   W15
 BYTE   N01
 BYTE   W21
 BYTE   N09  Bn2
 BYTE   W12
 BYTE   N96  An2
 BYTE   W48
// 011   ----------------------------------------
 BYTE   N06
 BYTE   W60
 BYTE   N09
 BYTE   W12
 BYTE   An2
 BYTE   W12
 BYTE   Bn2
 BYTE   W12
// 012   ----------------------------------------
 BYTE   N44  Cn3
 BYTE   W48
 BYTE   N20  An2
 BYTE   W24
 BYTE   Fn2
 BYTE   W24
// 013   ----------------------------------------
 BYTE   En2
 BYTE   W24
 BYTE   Dn3
 BYTE   W24
 BYTE   Cn3
 BYTE   W24
 BYTE   Bn2
 BYTE   W24
// 014   ----------------------------------------
 BYTE   N64  Cn3
 BYTE   W32
 BYTE   N01
 BYTE   W40
 BYTE   N09  Dn3
 BYTE   W12
 BYTE   Cn3
 BYTE   W12
// 015   ----------------------------------------
 BYTE   N42  Bn2
 BYTE   W42
 BYTE   N02  Cn3
 BYTE   W02
 BYTE   Dn3
 BYTE   W02
 BYTE   Ds3
 BYTE   W02
 BYTE   N44  En3
 BYTE   W44
 BYTE   W01
 BYTE   GoTo
  POIN2 Label_0_01EA6980
 BYTE   FINE

//**************** Track 2 (Midi-Chn.1) ****************//

FF2CastlepandemoniumRSflame_002:
// 000   ----------------------------------------
Label_1_01EA5A98:
 BYTE   KEYSH   FF2CastlepandemoniumRSflame_key+0
 BYTE   VOICE   61
 BYTE   VOL   42*FF2CastlepandemoniumRSflame_mvl/mxv
 BYTE   PAN   c_v+0
 BYTE   TEMPO   138*FF2CastlepandemoniumRSflame_tbs/2
 BYTE   W24
 BYTE   VOL   42*FF2CastlepandemoniumRSflame_mvl/mxv
 BYTE   N01  Gs1  v127
 BYTE   W01
 BYTE   N40  An1
 BYTE   W20
 BYTE   N01
 BYTE   W24
 BYTE   W02
 BYTE   N20  Bn1
 BYTE   W24
 BYTE   Cn2
 BYTE   W24
// 001   ----------------------------------------
 BYTE   N44  Dn2
 BYTE   W48
 BYTE   N20  En2
 BYTE   W24
 BYTE   Fn2
 BYTE   W24
// 002   ----------------------------------------
 BYTE   N30  En2
 BYTE   W15
 BYTE   N01
 BYTE   W21
 BYTE   N09  Cn2
 BYTE   W12
 BYTE   N96  An1
 BYTE   W48
// 003   ----------------------------------------
 BYTE   N30
 BYTE   W15
 BYTE   N01
 BYTE   W80
 BYTE   W01
// 004   ----------------------------------------
 BYTE   N42  En2
 BYTE   W42
 BYTE   N02  Fs2
 BYTE   W02
 BYTE   Gn2
 BYTE   W02
 BYTE   Gs2
 BYTE   W02
 BYTE   N44  An2
 BYTE   W48
// 005   ----------------------------------------
 BYTE   N20  Gs2
 BYTE   W24
 BYTE   An2
 BYTE   W24
 BYTE   Bn2
 BYTE   W24
 BYTE   Gs2
 BYTE   W24
// 006   ----------------------------------------
 BYTE   N42  An2
 BYTE   W42
 BYTE   N02  Gn2
 BYTE   W02
 BYTE   Fs2
 BYTE   W02
 BYTE   Fn2
 BYTE   W02
 BYTE   N96  En2
 BYTE   W44
 BYTE   W03
 BYTE   W01
// 007   ----------------------------------------
 BYTE   N06  En2  v127
 BYTE   W60
 BYTE   N09  Dn2
 BYTE   W12
 BYTE   Dn2
 BYTE   W12
 BYTE   En2
 BYTE   W11
 BYTE   W01
// 008   ----------------------------------------
 BYTE   N44  Fn2  v127
 BYTE   W48
 BYTE   N20  Cn2
 BYTE   W24
 BYTE   An1
 BYTE   W24
// 009   ----------------------------------------
 BYTE   Gs1
 BYTE   W24
 BYTE   En2
 BYTE   W24
 BYTE   Dn2
 BYTE   W24
 BYTE   En2
 BYTE   W24
// 010   ----------------------------------------
 BYTE   N30  Cn2
 BYTE   W15
 BYTE   N01
 BYTE   W21
 BYTE   N09  Bn1
 BYTE   W12
 BYTE   N96  An1
 BYTE   W48
// 011   ----------------------------------------
 BYTE   N06
 BYTE   W60
 BYTE   N09
 BYTE   W12
 BYTE   An1
 BYTE   W12
 BYTE   Bn1
 BYTE   W12
// 012   ----------------------------------------
 BYTE   N44  Cn2
 BYTE   W48
 BYTE   N20  An1
 BYTE   W24
 BYTE   Fn1
 BYTE   W24
// 013   ----------------------------------------
 BYTE   En1
 BYTE   W24
 BYTE   Dn2
 BYTE   W24
 BYTE   Cn2
 BYTE   W24
 BYTE   Bn1
 BYTE   W24
// 014   ----------------------------------------
 BYTE   N64  Cn2
 BYTE   W32
 BYTE   N01
 BYTE   W40
 BYTE   N09  Dn2
 BYTE   W12
 BYTE   Cn2
 BYTE   W12
// 015   ----------------------------------------
 BYTE   N42  Bn1
 BYTE   W48
 BYTE   N44  En2
 BYTE   W44
 BYTE   W01
 BYTE   GoTo
  POIN2 Label_1_01EA5A98
 BYTE   FINE

//**************** Track 3 (Midi-Chn.2) ****************//

FF2CastlepandemoniumRSflame_003:
// 000   ----------------------------------------
Label_2_01EA6870:
 BYTE   KEYSH   FF2CastlepandemoniumRSflame_key+0
 BYTE   VOICE   0
 BYTE   VOL   37*FF2CastlepandemoniumRSflame_mvl/mxv
 BYTE   PAN   c_v+0
 BYTE   TEMPO   138*FF2CastlepandemoniumRSflame_tbs/2
 BYTE   W24
 BYTE   VOL   37*FF2CastlepandemoniumRSflame_mvl/mxv
 BYTE   N90  An0  v127
 BYTE   W96
// 001   ----------------------------------------
 BYTE   Gn0
 BYTE   W96
// 002   ----------------------------------------
 BYTE   Fn0
 BYTE   W96
// 003   ----------------------------------------
 BYTE   Gn0
 BYTE   W96
// 004   ----------------------------------------
 BYTE   An0
 BYTE   W96
// 005   ----------------------------------------
 BYTE   Gs0
 BYTE   W96
// 006   ----------------------------------------
 BYTE   Gn0
 BYTE   W92
 BYTE   W03
 BYTE   W01
// 007   ----------------------------------------
 BYTE   N90  Dn1  v127
 BYTE   W92
 BYTE   W03
 BYTE   W01
// 008   ----------------------------------------
 BYTE   N90  Fn0  v127
 BYTE   W96
// 009   ----------------------------------------
 BYTE   En0
 BYTE   W96
// 010   ----------------------------------------
 BYTE   N80  An0
 BYTE   W40
 BYTE   N01
 BYTE   W44
 BYTE   N20
 BYTE   W24
// 011   ----------------------------------------
 BYTE   N22  Dn1
 BYTE   W24
 BYTE   Cn1
 BYTE   W24
 BYTE   Bn0
 BYTE   W24
 BYTE   N11  Gn0
 BYTE   W12
 BYTE   N90  Fn0
 BYTE   W96
// 012   ----------------------------------------
 BYTE   Bn0
 BYTE   W96
// 013   ----------------------------------------
 BYTE   Dn0
 BYTE   W96
// 014   ----------------------------------------
 BYTE   N56  Bn0
 BYTE   W28
 BYTE   N03
 BYTE   W32
 BYTE   N11  En1
 BYTE   W12
 BYTE   N22  Gs1
 BYTE   W20
 BYTE   W01
 BYTE   GoTo
  POIN2 Label_2_01EA6870
 BYTE   FINE

//**************** Track 4 (Midi-Chn.3) ****************//

FF2CastlepandemoniumRSflame_004:
// 000   ----------------------------------------
Label_3_01EA6F84:
 BYTE   KEYSH   FF2CastlepandemoniumRSflame_key+0
 BYTE   VOICE   49
 BYTE   VOL   30*FF2CastlepandemoniumRSflame_mvl/mxv
 BYTE   PAN   c_v-30
 BYTE   TEMPO   138*FF2CastlepandemoniumRSflame_tbs/2
 BYTE   W24
 BYTE   VOL   30*FF2CastlepandemoniumRSflame_mvl/mxv
 BYTE   N11  An1  v127
 BYTE   W12
 BYTE   N06  En2
 BYTE   W12
 BYTE   N11  Dn2
 BYTE   W12
 BYTE   N06  En2
 BYTE   W12
 BYTE   N11  Cn2
 BYTE   W12
 BYTE   N06  En2
 BYTE   W12
// 001   ----------------------------------------
 BYTE   N11  Bn1
 BYTE   W12
 BYTE   N06  En2
 BYTE   W12
 BYTE   N11  Bn1
 BYTE   W12
 BYTE   N06  Gn2
 BYTE   W12
 BYTE   N11  Fn2
 BYTE   W12
 BYTE   N06  Gn2
 BYTE   W12
 BYTE   N11  En2
 BYTE   W12
 BYTE   N06  Gn2
 BYTE   W12
// 002   ----------------------------------------
 BYTE   N11  Dn2
 BYTE   W12
 BYTE   N06  Gn2
 BYTE   W12
 BYTE   N11  An1
 BYTE   W12
 BYTE   N06  En2
 BYTE   W12
 BYTE   N11  Dn2
 BYTE   W12
 BYTE   N06  En2
 BYTE   W12
 BYTE   N11  Cn2
 BYTE   W12
 BYTE   N06  En2
 BYTE   W12
// 003   ----------------------------------------
 BYTE   N11  Bn1
 BYTE   W12
 BYTE   N06  En2
 BYTE   W12
 BYTE   N11  An1
 BYTE   W12
 BYTE   N06  En2
 BYTE   W12
 BYTE   N11  Bn1
 BYTE   W12
 BYTE   N06  En2
 BYTE   W12
 BYTE   N11  Cn2
 BYTE   W12
 BYTE   N06  En2
 BYTE   W12
// 004   ----------------------------------------
 BYTE   N11  Dn2
 BYTE   W12
 BYTE   N06  En2
 BYTE   W12
 BYTE   N11  An1
 BYTE   W12
 BYTE   N06  En2
 BYTE   W12
 BYTE   N11  Dn2
 BYTE   W12
 BYTE   N06  En2
 BYTE   W12
 BYTE   N11  Cn2
 BYTE   W12
 BYTE   N06  En2
 BYTE   W12
// 005   ----------------------------------------
 BYTE   N11  Bn1
 BYTE   W12
 BYTE   N06  En2
 BYTE   W12
 BYTE   N11  Gs1
 BYTE   W12
 BYTE   N06  En2
 BYTE   W12
 BYTE   N11  Dn2
 BYTE   W12
 BYTE   N06  En2
 BYTE   W12
 BYTE   N11  Cn2
 BYTE   W12
 BYTE   N06  En2
 BYTE   W12
// 006   ----------------------------------------
 BYTE   N11  Bn1
 BYTE   W12
 BYTE   N06  En2
 BYTE   W12
 BYTE   N11  Gn1
 BYTE   W12
 BYTE   N06  En2
 BYTE   W12
 BYTE   N11  Dn2
 BYTE   W12
 BYTE   N06  En2
 BYTE   W12
 BYTE   N11  Cn2
 BYTE   W12
 BYTE   N06  En2
 BYTE   W12
// 007   ----------------------------------------
 BYTE   N11  Bn1
 BYTE   W12
 BYTE   N06  En2
 BYTE   W11
 BYTE   W01
 BYTE   N11  An1  v127
 BYTE   W12
 BYTE   N06  Fs2
 BYTE   W12
 BYTE   N11  Bn1
 BYTE   W12
 BYTE   N06  Fs2
 BYTE   W12
 BYTE   N11  Cn2
 BYTE   W12
 BYTE   N06  Fs2
 BYTE   W12
// 008   ----------------------------------------
 BYTE   N11  Dn2
 BYTE   W12
 BYTE   N06  Fs2
 BYTE   W11
 BYTE   W01
 BYTE   N32  Cn2  v127
 BYTE   W16
 BYTE   N02
 BYTE   W20
 BYTE   N22  Fn2
 BYTE   W24
 BYTE   An2
 BYTE   W24
// 009   ----------------------------------------
 BYTE   N06  Fn2
 BYTE   W12
 BYTE   N11  Bn1
 BYTE   W12
 BYTE   N06  Gs1
 BYTE   W12
 BYTE   N11  Bn1
 BYTE   W12
 BYTE   N22  En2
 BYTE   W24
 BYTE   N06
 BYTE   W12
 BYTE   N11  Gs2
 BYTE   W12
// 010   ----------------------------------------
 BYTE   N06  Bn2
 BYTE   W24
 BYTE   N32  En2
 BYTE   W16
 BYTE   N02
 BYTE   W20
 BYTE   N22  An2
 BYTE   W24
 BYTE   Cn3
 BYTE   W36
// 011   ----------------------------------------
 BYTE   Gn2
 BYTE   W24
 BYTE   N12
 BYTE   W24
 BYTE   N22  Fs2
 BYTE   W24
 BYTE   N06
 BYTE   W12
 BYTE   N32  Fn2
 BYTE   W16
// 012   ----------------------------------------
 BYTE   N02
 BYTE   W20
 BYTE   N22  An2
 BYTE   W24
 BYTE   N06  Fn2
 BYTE   W12
 BYTE   N11  Cn2
 BYTE   W12
 BYTE   N06  An1
 BYTE   W12
 BYTE   N32  En2
 BYTE   W16
// 013   ----------------------------------------
 BYTE   N02
 BYTE   W20
 BYTE   N32  Gs2
 BYTE   W16
 BYTE   N02
 BYTE   W20
 BYTE   N11
 BYTE   W12
 BYTE   N06  En2
 BYTE   W12
 BYTE   N32  Dn2
 BYTE   W16
// 014   ----------------------------------------
 BYTE   N02
 BYTE   W20
 BYTE   N22  Fs2
 BYTE   W24
 BYTE   N32  An2
 BYTE   W16
 BYTE   N02
 BYTE   W20
 BYTE   N44  Fs2
 BYTE   W22
// 015   ----------------------------------------
 BYTE   N02
 BYTE   W24
 BYTE   W02
 BYTE   N22  Gs2
 BYTE   W24
 BYTE   N03  Gs1
 BYTE   W04
 BYTE   Bn1
 BYTE   W04
 BYTE   Dn2
 BYTE   W04
 BYTE   En2
 BYTE   W04
 BYTE   Gs2
 BYTE   W04
 BYTE   Bn2
 BYTE   W01
 BYTE   GoTo
  POIN2 Label_3_01EA6F84
 BYTE   FINE

//**************** Track 5 (Midi-Chn.4) ****************//

FF2CastlepandemoniumRSflame_005:
// 000   ----------------------------------------
Label_4_01EA62A4:
 BYTE   KEYSH   FF2CastlepandemoniumRSflame_key+0
 BYTE   VOICE   49
 BYTE   VOL   30*FF2CastlepandemoniumRSflame_mvl/mxv
 BYTE   PAN   c_v+30
 BYTE   TEMPO   138*FF2CastlepandemoniumRSflame_tbs/2
 BYTE   W24
 BYTE   VOL   30*FF2CastlepandemoniumRSflame_mvl/mxv
 BYTE   N11  En2  v127
 BYTE   W12
 BYTE   N06  Cn3
 BYTE   W12
 BYTE   N11  Bn2
 BYTE   W12
 BYTE   N06  Cn3
 BYTE   W12
 BYTE   N11  An2
 BYTE   W12
 BYTE   N06  Cn3
 BYTE   W12
// 001   ----------------------------------------
 BYTE   N11  Gn2
 BYTE   W12
 BYTE   N06  Cn3
 BYTE   W12
 BYTE   N11  Gn2
 BYTE   W12
 BYTE   N06  En3
 BYTE   W12
 BYTE   N11  Dn3
 BYTE   W12
 BYTE   N06  En3
 BYTE   W12
 BYTE   N11  Cn3
 BYTE   W12
 BYTE   N06  En3
 BYTE   W12
// 002   ----------------------------------------
 BYTE   N11  Bn2
 BYTE   W12
 BYTE   N06  En3
 BYTE   W12
 BYTE   N11  En2
 BYTE   W12
 BYTE   N06  Cn3
 BYTE   W12
 BYTE   N11  Bn2
 BYTE   W12
 BYTE   N06  Cn3
 BYTE   W12
 BYTE   N11  An2
 BYTE   W12
 BYTE   N06  Cn3
 BYTE   W12
// 003   ----------------------------------------
 BYTE   N11  Gn2
 BYTE   W12
 BYTE   N06  Cn3
 BYTE   W12
 BYTE   N11  En2
 BYTE   W12
 BYTE   N06  Cn3
 BYTE   W12
 BYTE   N11  Gn2
 BYTE   W12
 BYTE   N06  Cn3
 BYTE   W12
 BYTE   N11  An2
 BYTE   W12
 BYTE   N06  Cn3
 BYTE   W12
// 004   ----------------------------------------
 BYTE   N11  Bn2
 BYTE   W12
 BYTE   N06  Cn3
 BYTE   W12
 BYTE   N11  En2
 BYTE   W12
 BYTE   N06  Cn3
 BYTE   W12
 BYTE   N11  Bn2
 BYTE   W12
 BYTE   N06  Cn3
 BYTE   W12
 BYTE   N11  An2
 BYTE   W12
 BYTE   N06  Cn3
 BYTE   W12
// 005   ----------------------------------------
 BYTE   N11  Gn2
 BYTE   W12
 BYTE   N06  Cn3
 BYTE   W12
 BYTE   N11  En2
 BYTE   W12
 BYTE   N06  Cn3
 BYTE   W12
 BYTE   N11  Bn2
 BYTE   W12
 BYTE   N06  Cn3
 BYTE   W12
 BYTE   N11  An2
 BYTE   W12
 BYTE   N06  Cn3
 BYTE   W12
// 006   ----------------------------------------
 BYTE   N11  Gs2
 BYTE   W12
 BYTE   N06  Cn3
 BYTE   W12
 BYTE   N11  En2
 BYTE   W12
 BYTE   N06  Cn3
 BYTE   W12
 BYTE   N11  Bn2
 BYTE   W12
 BYTE   N06  Cn3
 BYTE   W12
 BYTE   N11  An2
 BYTE   W12
 BYTE   N06  Cn3
 BYTE   W12
// 007   ----------------------------------------
 BYTE   N11  Gn2
 BYTE   W12
 BYTE   N06  Cn3
 BYTE   W11
 BYTE   W01
 BYTE   N11  Fs2  v127
 BYTE   W12
 BYTE   N06  Dn3
 BYTE   W12
 BYTE   N11  Gn2
 BYTE   W12
 BYTE   N06  Dn3
 BYTE   W12
 BYTE   N11  An2
 BYTE   W12
 BYTE   N06  Dn3
 BYTE   W12
// 008   ----------------------------------------
 BYTE   N11  Bn2
 BYTE   W12
 BYTE   N06  Dn3
 BYTE   W11
 BYTE   W01
 BYTE   N32  An1  v127
 BYTE   W16
 BYTE   N02
 BYTE   W20
 BYTE   N22  Cn2
 BYTE   W24
 BYTE   Fn2
 BYTE   W24
// 009   ----------------------------------------
 BYTE   N06  Cn2
 BYTE   W12
 BYTE   N11  Gs1
 BYTE   W12
 BYTE   N06  En1
 BYTE   W12
 BYTE   N11  Gs1
 BYTE   W12
 BYTE   N22  Bn1
 BYTE   W24
 BYTE   N06
 BYTE   W12
 BYTE   N11  En2
 BYTE   W12
// 010   ----------------------------------------
 BYTE   N06  Gs2
 BYTE   W24
 BYTE   N32  Cn2
 BYTE   W16
 BYTE   N02
 BYTE   W20
 BYTE   N22  En2
 BYTE   W24
 BYTE   An2
 BYTE   W36
// 011   ----------------------------------------
 BYTE   Dn2
 BYTE   W24
 BYTE   N12
 BYTE   W24
 BYTE   N22
 BYTE   W24
 BYTE   N06
 BYTE   W12
 BYTE   N32  Cn2
 BYTE   W16
// 012   ----------------------------------------
 BYTE   N02
 BYTE   W20
 BYTE   N22  Fn2
 BYTE   W24
 BYTE   N06  Cn2
 BYTE   W12
 BYTE   N11  An1
 BYTE   W12
 BYTE   N06  Fn1
 BYTE   W12
 BYTE   N32  Bn1
 BYTE   W16
// 013   ----------------------------------------
 BYTE   N02
 BYTE   W20
 BYTE   N32  En2
 BYTE   W16
 BYTE   N02
 BYTE   W20
 BYTE   N11
 BYTE   W12
 BYTE   N06  Bn1
 BYTE   W12
 BYTE   N32  An1
 BYTE   W16
// 014   ----------------------------------------
 BYTE   N02
 BYTE   W20
 BYTE   N22  Dn2
 BYTE   W24
 BYTE   N32  Fs2
 BYTE   W16
 BYTE   N02
 BYTE   W20
 BYTE   N44  Ds2
 BYTE   W22
// 015   ----------------------------------------
 BYTE   N02
 BYTE   W24
 BYTE   W02
 BYTE   N22  Dn2
 BYTE   W24
 BYTE   N03  En2
 BYTE   W04
 BYTE   Gs2
 BYTE   W04
 BYTE   Bn2
 BYTE   W04
 BYTE   Dn3
 BYTE   W04
 BYTE   En3
 BYTE   W04
 BYTE   Gs3
 BYTE   W01
 BYTE   GoTo
  POIN2 Label_4_01EA62A4
 BYTE   FINE

//**************** Track 6 (Midi-Chn.5) ****************//

FF2CastlepandemoniumRSflame_006:
// 000   ----------------------------------------
Label_5_01EA6CA0:
 BYTE   KEYSH   FF2CastlepandemoniumRSflame_key+0
 BYTE   VOICE   48
 BYTE   VOL   45*FF2CastlepandemoniumRSflame_mvl/mxv
 BYTE   PAN   c_v+10
 BYTE   TEMPO   138*FF2CastlepandemoniumRSflame_tbs/2
 BYTE   W24
 BYTE   VOL   45*FF2CastlepandemoniumRSflame_mvl/mxv
 BYTE   N90  An1  v127
 BYTE   W96
// 001   ----------------------------------------
 BYTE   Gn1
 BYTE   W96
// 002   ----------------------------------------
 BYTE   Fn1
 BYTE   W96
// 003   ----------------------------------------
 BYTE   Gn1
 BYTE   W96
// 004   ----------------------------------------
 BYTE   An1
 BYTE   W96
// 005   ----------------------------------------
 BYTE   Gs1
 BYTE   W96
// 006   ----------------------------------------
 BYTE   Gn1
 BYTE   W92
 BYTE   W03
 BYTE   W01
// 007   ----------------------------------------
 BYTE   N90  Dn2  v127
 BYTE   W92
 BYTE   W03
 BYTE   W01
// 008   ----------------------------------------
 BYTE   N11  Fn2  v127
 BYTE   W12
 BYTE   N06
 BYTE   W12
 BYTE   Cn2
 BYTE   W12
 BYTE   N22  Fn2
 BYTE   W24
 BYTE   N06
 BYTE   W12
 BYTE   N11  Cn2
 BYTE   W12
 BYTE   N06  Fn2
 BYTE   W12
// 009   ----------------------------------------
 BYTE   N11  En2
 BYTE   W12
 BYTE   N06
 BYTE   W12
 BYTE   N11  Bn1
 BYTE   W12
 BYTE   N22  En2
 BYTE   W24
 BYTE   N11
 BYTE   W12
 BYTE   N06
 BYTE   W12
 BYTE   N11  Bn1
 BYTE   W12
// 010   ----------------------------------------
 BYTE   N22  An1
 BYTE   W24
 BYTE   N06  En2
 BYTE   W12
 BYTE   N22  An1
 BYTE   W24
 BYTE   En2
 BYTE   W24
 BYTE   N20  An1
 BYTE   W24
// 011   ----------------------------------------
 BYTE   N12  Dn2
 BYTE   W24
 BYTE   Cn2
 BYTE   W24
 BYTE   Bn1
 BYTE   W24
 BYTE   N06  Gn1
 BYTE   W12
 BYTE   N11  Fn1
 BYTE   W12
// 012   ----------------------------------------
 BYTE   N22  Cn2
 BYTE   W24
 BYTE   Fn2
 BYTE   W24
 BYTE   Cn2
 BYTE   W24
 BYTE   N11  An1
 BYTE   W12
 BYTE   En1
 BYTE   W12
// 013   ----------------------------------------
 BYTE   N22  Bn1
 BYTE   W24
 BYTE   En2
 BYTE   W24
 BYTE   Bn1
 BYTE   W24
 BYTE   N11  Gs1
 BYTE   W12
 BYTE   Dn2
 BYTE   W12
// 014   ----------------------------------------
 BYTE   N06  An1
 BYTE   W12
 BYTE   N11  Dn2
 BYTE   W12
 BYTE   N06  An1
 BYTE   W12
 BYTE   N11  Dn2
 BYTE   W12
 BYTE   N06  An1
 BYTE   W12
 BYTE   N11  Dn2
 BYTE   W12
 BYTE   N06  An1
 BYTE   W12
 BYTE   N11  Bn1
 BYTE   W12
// 015   ----------------------------------------
 BYTE   N06  Fs1
 BYTE   W12
 BYTE   N11  Bn1
 BYTE   W12
 BYTE   N06  Fs1
 BYTE   W12
 BYTE   N11  Bn1
 BYTE   W12
 BYTE   En2
 BYTE   W12
 BYTE   N22  Gs2
 BYTE   W20
 BYTE   W01
 BYTE   GoTo
  POIN2 Label_5_01EA6CA0
 BYTE   FINE

//**************** Track 7 (Midi-Chn.6) ****************//

FF2CastlepandemoniumRSflame_007:
// 000   ----------------------------------------
Label_6_01EA6D50:
 BYTE   KEYSH   FF2CastlepandemoniumRSflame_key+0
 BYTE   VOICE   47
 BYTE   VOL   45*FF2CastlepandemoniumRSflame_mvl/mxv
 BYTE   PAN   c_v-20
 BYTE   N12  En1  v127
 BYTE   TEMPO   138*FF2CastlepandemoniumRSflame_tbs/2
 BYTE   W12
 BYTE   N06  En1  v127
 BYTE   W06
 BYTE   En1
 BYTE   W06
 BYTE   VOL   45*FF2CastlepandemoniumRSflame_mvl/mxv
 BYTE   N48  An1  v127
 BYTE   W96
// 001   ----------------------------------------
 BYTE   Gn1
 BYTE   W96
// 002   ----------------------------------------
 BYTE   Fn1
 BYTE   W96
// 003   ----------------------------------------
 BYTE   Gn1
 BYTE   W96
// 004   ----------------------------------------
 BYTE   An1
 BYTE   W96
// 005   ----------------------------------------
 BYTE   Gs1
 BYTE   W96
// 006   ----------------------------------------
 BYTE   Gn1
 BYTE   W92
 BYTE   W03
 BYTE   W01
// 007   ----------------------------------------
 BYTE   N11  Dn2  v127
 BYTE   W12
 BYTE   Dn2
 BYTE   W12
 BYTE   Dn2
 BYTE   W12
 BYTE   Dn2
 BYTE   W12
 BYTE   Dn2
 BYTE   W12
 BYTE   Dn2
 BYTE   W12
 BYTE   Dn2
 BYTE   W12
 BYTE   Dn2
 BYTE   W11
 BYTE   W01
// 008   ----------------------------------------
 BYTE   N32  Fn1  v127
 BYTE   W16
 BYTE   N02
 BYTE   W20
 BYTE   N22
 BYTE   W24
 BYTE   Fn1
 BYTE   W24
 BYTE   N11
 BYTE   W12
// 009   ----------------------------------------
 BYTE   N32  En1
 BYTE   W16
 BYTE   N02
 BYTE   W20
 BYTE   N22
 BYTE   W24
 BYTE   En1
 BYTE   W24
 BYTE   N11
 BYTE   W12
// 010   ----------------------------------------
 BYTE   N32  An1
 BYTE   W16
 BYTE   N02
 BYTE   W20
 BYTE   N22
 BYTE   W24
 BYTE   An1
 BYTE   W24
 BYTE   N20
 BYTE   W24
// 011   ----------------------------------------
 BYTE   N22  Dn2
 BYTE   W24
 BYTE   Cn2
 BYTE   W24
 BYTE   Bn1
 BYTE   W24
 BYTE   N11  Gn1
 BYTE   W12
 BYTE   N32  Fn1
 BYTE   W16
// 012   ----------------------------------------
 BYTE   N02
 BYTE   W20
 BYTE   N22
 BYTE   W24
 BYTE   Fn1
 BYTE   W24
 BYTE   N11
 BYTE   W12
 BYTE   N32  Bn1
 BYTE   W16
// 013   ----------------------------------------
 BYTE   N02
 BYTE   W20
 BYTE   N22
 BYTE   W24
 BYTE   Bn1
 BYTE   W24
 BYTE   N11
 BYTE   W12
 BYTE   Dn2
 BYTE   W12
 BYTE   An1
 BYTE   W12
// 014   ----------------------------------------
 BYTE   Dn2
 BYTE   W12
 BYTE   An1
 BYTE   W12
 BYTE   Dn2
 BYTE   W12
 BYTE   An1
 BYTE   W12
 BYTE   Dn2
 BYTE   W12
 BYTE   An1
 BYTE   W12
 BYTE   N05  Bn1
 BYTE   W06
 BYTE   Bn1
 BYTE   W06
 BYTE   N11  Fs1
 BYTE   W12
// 015   ----------------------------------------
 BYTE   N05  Bn1
 BYTE   W06
 BYTE   Bn1
 BYTE   W06
 BYTE   N11  Fs1
 BYTE   W12
 BYTE   N06  Bn1
 BYTE   W12
 BYTE   En1
 BYTE   W12
 BYTE   N22  Gs1
 BYTE   W20
 BYTE   W01
 BYTE   GoTo
  POIN2 Label_6_01EA6D50
 BYTE   FINE

//**************** Track 8 (Midi-Chn.7) ****************//

FF2CastlepandemoniumRSflame_008:
// 000   ----------------------------------------
Label_7_01EA63F4:
 BYTE   KEYSH   FF2CastlepandemoniumRSflame_key+0
 BYTE   VOICE   42
 BYTE   VOL   30*FF2CastlepandemoniumRSflame_mvl/mxv
 BYTE   PAN   c_v+20
 BYTE   TEMPO   138*FF2CastlepandemoniumRSflame_tbs/2
 BYTE   W24
 BYTE   VOL   30*FF2CastlepandemoniumRSflame_mvl/mxv
 BYTE   W24
 BYTE   N68  An2  v127
 BYTE   W32
 BYTE   W02
 BYTE   N03
 BYTE   W60
// 001   ----------------------------------------
 BYTE   W02
Label_7_01EA640A:
 BYTE   N68  Gn2  v127
 BYTE   W32
 BYTE   W02
 BYTE   N03
 BYTE   W60
// 002   ----------------------------------------
 BYTE   W02
 BYTE   PEND 
 BYTE   N68  Fn2  v127
 BYTE   W32
 BYTE   W02
 BYTE   N03
 BYTE   W60
// 003   ----------------------------------------
 BYTE   W02
// 004   ----------------------------------------
 BYTE   PATT
  POIN2 Label_7_01EA640A
// 005   ----------------------------------------
 BYTE   N68  An2  v127
 BYTE   W32
 BYTE   W02
 BYTE   N03
 BYTE   W60
 BYTE   W02
// 006   ----------------------------------------
 BYTE   N68  Bn2
 BYTE   W32
 BYTE   W02
 BYTE   N03
 BYTE   W60
 BYTE   W02
// 007   ----------------------------------------
 BYTE   N68  Cn3
 BYTE   W32
 BYTE   W02
 BYTE   N03
 BYTE   W36
 BYTE   W01
 BYTE   W24
 BYTE   W01
// 008   ----------------------------------------
 BYTE   N68  Cn3  v127
 BYTE   W32
 BYTE   W02
 BYTE   N03
 BYTE   W36
 BYTE   W01
 BYTE   W96
// 009   ----------------------------------------
 BYTE   W96
// 010   ----------------------------------------
 BYTE   W96
// 011   ----------------------------------------
 BYTE   W96
// 012   ----------------------------------------
 BYTE   W96
// 013   ----------------------------------------
 BYTE   W96
// 014   ----------------------------------------
 BYTE   W96
// 015   ----------------------------------------
 BYTE   W92
 BYTE   W01
 BYTE   W01
 BYTE   GoTo
  POIN2 Label_7_01EA63F4
 BYTE   FINE

//**************** Track 9 (Midi-Chn.8) ****************//

FF2CastlepandemoniumRSflame_009:
// 000   ----------------------------------------
Label_8_01EA6DFC:
 BYTE   KEYSH   FF2CastlepandemoniumRSflame_key+0
 BYTE   VOICE   42
 BYTE   VOL   30*FF2CastlepandemoniumRSflame_mvl/mxv
 BYTE   PAN   c_v+20
 BYTE   TEMPO   138*FF2CastlepandemoniumRSflame_tbs/2
 BYTE   W24
 BYTE   VOL   30*FF2CastlepandemoniumRSflame_mvl/mxv
 BYTE   W24
 BYTE   N68  En2  v127
 BYTE   W32
 BYTE   W02
 BYTE   N03
 BYTE   W60
// 001   ----------------------------------------
 BYTE   W02
Label_8_01EA6E12:
 BYTE   N68  Dn2  v127
 BYTE   W32
 BYTE   W02
 BYTE   N03
 BYTE   W60
// 002   ----------------------------------------
 BYTE   W02
 BYTE   PEND 
 BYTE   N68  Cn2  v127
 BYTE   W32
 BYTE   W02
 BYTE   N03
 BYTE   W60
// 003   ----------------------------------------
 BYTE   W02
// 004   ----------------------------------------
 BYTE   PATT
  POIN2 Label_8_01EA6E12
// 005   ----------------------------------------
 BYTE   N68  En2  v127
 BYTE   W32
 BYTE   W02
 BYTE   N03
 BYTE   W60
 BYTE   W02
// 006   ----------------------------------------
 BYTE   N68  Gs2
 BYTE   W32
 BYTE   W02
 BYTE   N03
 BYTE   W60
 BYTE   W02
// 007   ----------------------------------------
 BYTE   N68  Gn2
 BYTE   W32
 BYTE   W02
 BYTE   N03
 BYTE   W36
 BYTE   W01
 BYTE   W24
 BYTE   W01
// 008   ----------------------------------------
 BYTE   N68  An2  v127
 BYTE   W32
 BYTE   W02
 BYTE   N03
 BYTE   W36
 BYTE   W01
 BYTE   W96
// 009   ----------------------------------------
 BYTE   W96
// 010   ----------------------------------------
 BYTE   W96
// 011   ----------------------------------------
 BYTE   W96
// 012   ----------------------------------------
 BYTE   W96
// 013   ----------------------------------------
 BYTE   W96
// 014   ----------------------------------------
 BYTE   W96
// 015   ----------------------------------------
 BYTE   W92
 BYTE   W01
 BYTE   W01
 BYTE   GoTo
  POIN2 Label_8_01EA6DFC
 BYTE   FINE

//**************** Track 10 (Midi-Chn.9) ****************//

FF2CastlepandemoniumRSflame_010:
// 000   ----------------------------------------
Label_9_01EA8280:
 BYTE   KEYSH   FF2CastlepandemoniumRSflame_key+0
 BYTE   VOICE   48
 BYTE   VOL   15*FF2CastlepandemoniumRSflame_mvl/mxv
 BYTE   PAN   c_v+10
 BYTE   TEMPO   138*FF2CastlepandemoniumRSflame_tbs/2
 BYTE   W24
 BYTE   VOL   15*FF2CastlepandemoniumRSflame_mvl/mxv
 BYTE   N11  En3  v127
 BYTE   W12
 BYTE   N06  Cn4
 BYTE   W12
 BYTE   N11  Bn3
 BYTE   W12
 BYTE   N06  Cn4
 BYTE   W12
 BYTE   N11  An3
 BYTE   W12
 BYTE   N06  Cn4
 BYTE   W12
// 001   ----------------------------------------
 BYTE   N11  Gn3
 BYTE   W12
 BYTE   N06  Cn4
 BYTE   W12
 BYTE   N11  Gn3
 BYTE   W12
 BYTE   N06  En4
 BYTE   W12
 BYTE   N11  Dn4
 BYTE   W12
 BYTE   N06  En4
 BYTE   W12
 BYTE   N11  Cn4
 BYTE   W12
 BYTE   N06  En4
 BYTE   W12
// 002   ----------------------------------------
 BYTE   N11  Bn3
 BYTE   W12
 BYTE   N06  En4
 BYTE   W12
 BYTE   N11  En3
 BYTE   W12
 BYTE   N06  Cn4
 BYTE   W12
 BYTE   N11  Bn3
 BYTE   W12
 BYTE   N06  Cn4
 BYTE   W12
 BYTE   N11  An3
 BYTE   W12
 BYTE   N06  Cn4
 BYTE   W12
// 003   ----------------------------------------
 BYTE   N11  Gn3
 BYTE   W12
 BYTE   N06  Cn4
 BYTE   W12
 BYTE   N11  En3
 BYTE   W12
 BYTE   N06  Cn4
 BYTE   W12
 BYTE   N11  Gn3
 BYTE   W12
 BYTE   N06  Cn4
 BYTE   W12
 BYTE   N11  An3
 BYTE   W12
 BYTE   N06  Cn4
 BYTE   W12
// 004   ----------------------------------------
 BYTE   N11  Bn3
 BYTE   W12
 BYTE   N06  Cn4
 BYTE   W12
 BYTE   N11  En3
 BYTE   W12
 BYTE   N06  Cn4
 BYTE   W12
 BYTE   N11  Bn3
 BYTE   W12
 BYTE   N06  Cn4
 BYTE   W12
 BYTE   N11  An3
 BYTE   W12
 BYTE   N06  Cn4
 BYTE   W12
// 005   ----------------------------------------
 BYTE   N11  Gn3
 BYTE   W12
 BYTE   N06  Cn4
 BYTE   W12
 BYTE   N11  En3
 BYTE   W12
 BYTE   N06  Cn4
 BYTE   W12
 BYTE   N11  Bn3
 BYTE   W12
 BYTE   N06  Cn4
 BYTE   W12
 BYTE   N11  An3
 BYTE   W12
 BYTE   N06  Cn4
 BYTE   W12
// 006   ----------------------------------------
 BYTE   N11  Gs3
 BYTE   W12
 BYTE   N06  Cn4
 BYTE   W12
 BYTE   N11  En3
 BYTE   W12
 BYTE   N06  Cn4
 BYTE   W12
 BYTE   N11  Bn3
 BYTE   W12
 BYTE   N06  Cn4
 BYTE   W12
 BYTE   N11  An3
 BYTE   W12
 BYTE   N06  Cn4
 BYTE   W12
// 007   ----------------------------------------
 BYTE   N11  Gn3
 BYTE   W12
 BYTE   N06  Cn4
 BYTE   W11
 BYTE   W01
 BYTE   N11  Fs3  v127
 BYTE   W12
 BYTE   N06  Dn4
 BYTE   W12
 BYTE   N11  Gn3
 BYTE   W12
 BYTE   N06  Dn4
 BYTE   W12
 BYTE   N11  An3
 BYTE   W12
 BYTE   N06  Dn4
 BYTE   W12
// 008   ----------------------------------------
 BYTE   N11  Bn3
 BYTE   W12
 BYTE   N06  Dn4
 BYTE   W11
 BYTE   W96
// 009   ----------------------------------------
 BYTE   W96
// 010   ----------------------------------------
 BYTE   W96
// 011   ----------------------------------------
 BYTE   W96
// 012   ----------------------------------------
 BYTE   W96
// 013   ----------------------------------------
 BYTE   W96
// 014   ----------------------------------------
 BYTE   W96
// 015   ----------------------------------------
 BYTE   W72
 BYTE   W01
 BYTE   N03  En3  v127
 BYTE   W04
 BYTE   Gs3
 BYTE   W04
 BYTE   Bn3
 BYTE   W04
 BYTE   Dn4
 BYTE   W04
 BYTE   En4
 BYTE   W04
 BYTE   Gs4
 BYTE   W01
 BYTE   GoTo
  POIN2 Label_9_01EA8280
 BYTE   FINE

//**************** Track 11 (Midi-Chn.10) ****************//

FF2CastlepandemoniumRSflame_011:
// 000   ----------------------------------------
Label_10_01EA73B4:
 BYTE   KEYSH   FF2CastlepandemoniumRSflame_key+0
 BYTE   VOICE   127
 BYTE   VOL   45*FF2CastlepandemoniumRSflame_mvl/mxv
 BYTE   VOL   45*FF2CastlepandemoniumRSflame_mvl/mxv
 BYTE   VOL   37*FF2CastlepandemoniumRSflame_mvl/mxv
 BYTE   PAN   c_v+0
 BYTE   PAN   c_v+0
 BYTE   PAN   c_v+10
 BYTE   TEMPO   138*FF2CastlepandemoniumRSflame_tbs/2
 BYTE   W24
 BYTE   VOL   45*FF2CastlepandemoniumRSflame_mvl/mxv
 BYTE   VOL   45*FF2CastlepandemoniumRSflame_mvl/mxv
 BYTE   VOL   37*FF2CastlepandemoniumRSflame_mvl/mxv
 BYTE   N22  Dn1  v127
 BYTE   N22  Cn0
 BYTE   N72  En2
 BYTE   W72
// 001   ----------------------------------------
Label_10_01EA73D5:
 BYTE   N02  Dn1  v127
 BYTE   W03
 BYTE   Dn1
 BYTE   W03
 BYTE   Dn1
 BYTE   W03
 BYTE   Dn1
 BYTE   W03
 BYTE   Dn1
 BYTE   W03
 BYTE   Dn1
 BYTE   W03
 BYTE   Dn1
 BYTE   W03
 BYTE   Dn1
 BYTE   W03
 BYTE   N11
 BYTE   W72
 BYTE   PEND 
// 002   ----------------------------------------
Label_10_01EA73EA:
 BYTE   N02  Dn1  v127
 BYTE   W03
 BYTE   Dn1
 BYTE   W03
 BYTE   Dn1
 BYTE   W03
 BYTE   Dn1
 BYTE   W03
 BYTE   Dn1
 BYTE   W03
 BYTE   Dn1
 BYTE   W03
 BYTE   Dn1
 BYTE   W03
 BYTE   Dn1
 BYTE   W03
 BYTE   N22
 BYTE   N22  Cn0
 BYTE   N72  En2
 BYTE   W72
 BYTE   PEND 
// 003   ----------------------------------------
 BYTE   PATT
  POIN2 Label_10_01EA73D5
// 004   ----------------------------------------
 BYTE   PATT
  POIN2 Label_10_01EA73EA
// 005   ----------------------------------------
 BYTE   PATT
  POIN2 Label_10_01EA73D5
// 006   ----------------------------------------
 BYTE   PATT
  POIN2 Label_10_01EA73EA
// 007   ----------------------------------------
 BYTE   N02  Dn1  v127
 BYTE   W03
 BYTE   Dn1
 BYTE   W03
 BYTE   Dn1
 BYTE   W03
 BYTE   Dn1
 BYTE   W03
 BYTE   Dn1
 BYTE   W03
 BYTE   Dn1
 BYTE   W03
 BYTE   Dn1
 BYTE   W03
 BYTE   Dn1
 BYTE   W02
 BYTE   W01
 BYTE   N11  Dn1  v127
 BYTE   W72
// 008   ----------------------------------------
 BYTE   N02
 BYTE   W03
 BYTE   Dn1
 BYTE   W03
 BYTE   Dn1
 BYTE   W03
 BYTE   Dn1
 BYTE   W03
 BYTE   Dn1
 BYTE   W03
 BYTE   Dn1
 BYTE   W03
 BYTE   Dn1
 BYTE   W03
 BYTE   Dn1
 BYTE   W02
 BYTE   W01
 BYTE   N08  Gn2  v127
 BYTE   N22  GnM2
 BYTE   N72  En2
 BYTE   W12
 BYTE   N08  Gn2
 BYTE   W12
 BYTE   Dn1
 BYTE   W12
 BYTE   Dn1
 BYTE   W12
 BYTE   Dn1
 BYTE   W12
 BYTE   Dn1
 BYTE   W12
// 009   ----------------------------------------
Label_10_01EA7452:
 BYTE   N08  Dn1  v127
 BYTE   W12
 BYTE   N04
 BYTE   W06
 BYTE   Dn1
 BYTE   W06
 BYTE   N08
 BYTE   W12
 BYTE   Dn1
 BYTE   W12
 BYTE   Dn1
 BYTE   W12
 BYTE   Dn1
 BYTE   W12
 BYTE   Dn1
 BYTE   W12
 BYTE   Dn1
 BYTE   W12
 BYTE   PEND 
// 010   ----------------------------------------
 BYTE   PATT
  POIN2 Label_10_01EA7452
// 011   ----------------------------------------
 BYTE   PATT
  POIN2 Label_10_01EA7452
// 012   ----------------------------------------
 BYTE   PATT
  POIN2 Label_10_01EA7452
// 013   ----------------------------------------
 BYTE   PATT
  POIN2 Label_10_01EA7452
// 014   ----------------------------------------
 BYTE   PATT
  POIN2 Label_10_01EA7452
// 015   ----------------------------------------
 BYTE   N08  Dn1  v127
 BYTE   W12
 BYTE   N04
 BYTE   W06
 BYTE   Dn1
 BYTE   W06
 BYTE   N08
 BYTE   W12
 BYTE   Dn1
 BYTE   W12
 BYTE   Dn1
 BYTE   W12
 BYTE   Dn1
 BYTE   W12
 BYTE   N04
 BYTE   W06
 BYTE   Dn1
 BYTE   W06
 BYTE   N08
 BYTE   W12
// 016   ----------------------------------------
 BYTE   N02
 BYTE   W03
 BYTE   Dn1
 BYTE   W03
 BYTE   Dn1
 BYTE   W03
 BYTE   Dn1
 BYTE   W03
 BYTE   Dn1
 BYTE   W03
 BYTE   Dn1
 BYTE   W03
 BYTE   Dn1
 BYTE   W02
 BYTE   W01
 BYTE   N02  Dn1  v127
 BYTE   GoTo
  POIN2 Label_10_01EA73B4
 BYTE   FINE

//**************** Track 12 (Midi-Chn.11) ****************//

FF2CastlepandemoniumRSflame_012:
// 000   ----------------------------------------
Label_11_01EA74B0:
 BYTE   KEYSH   FF2CastlepandemoniumRSflame_key+0
 BYTE   VOICE   52
 BYTE   VOL   20*FF2CastlepandemoniumRSflame_mvl/mxv
 BYTE   PAN   c_v+0
 BYTE   TEMPO   138*FF2CastlepandemoniumRSflame_tbs/2
 BYTE   W24
 BYTE   VOL   20*FF2CastlepandemoniumRSflame_mvl/mxv
 BYTE   N92  An2  v127
 BYTE   W44
 BYTE   W02
 BYTE   N03
 BYTE   W48
// 001   ----------------------------------------
 BYTE   W02
Label_11_01EA74C5:
 BYTE   N92  Bn2  v127
 BYTE   W44
 BYTE   W02
 BYTE   N03
 BYTE   W48
// 002   ----------------------------------------
 BYTE   W02
 BYTE   PEND 
Label_11_01EA74CE:
 BYTE   N92  An2  v127
 BYTE   W44
 BYTE   W02
 BYTE   N03
 BYTE   W48
// 003   ----------------------------------------
 BYTE   W02
 BYTE   PEND 
// 004   ----------------------------------------
 BYTE   PATT
  POIN2 Label_11_01EA74C5
// 005   ----------------------------------------
 BYTE   PATT
  POIN2 Label_11_01EA74CE
// 006   ----------------------------------------
 BYTE   N92  Gs2  v127
 BYTE   W44
 BYTE   W02
 BYTE   N03
 BYTE   W48
 BYTE   W02
// 007   ----------------------------------------
 BYTE   N92  Gn2
 BYTE   W44
 BYTE   W02
 BYTE   N03
 BYTE   W48
 BYTE   W01
 BYTE   W96
// 008   ----------------------------------------
 BYTE   W96
// 009   ----------------------------------------
 BYTE   W96
// 010   ----------------------------------------
 BYTE   W96
// 011   ----------------------------------------
 BYTE   W96
// 012   ----------------------------------------
 BYTE   W96
// 013   ----------------------------------------
 BYTE   W96
// 014   ----------------------------------------
 BYTE   W96
// 015   ----------------------------------------
 BYTE   W92
 BYTE   W01
 BYTE   W01
 BYTE   GoTo
  POIN2 Label_11_01EA74B0
 BYTE   FINE

//**************** Track 13 (Midi-Chn.12) ****************//

FF2CastlepandemoniumRSflame_013:
// 000   ----------------------------------------
Label_12_01EA6E58:
 BYTE   KEYSH   FF2CastlepandemoniumRSflame_key+0
 BYTE   VOICE   52
 BYTE   VOL   20*FF2CastlepandemoniumRSflame_mvl/mxv
 BYTE   PAN   c_v+0
 BYTE   TEMPO   138*FF2CastlepandemoniumRSflame_tbs/2
 BYTE   W24
 BYTE   VOL   20*FF2CastlepandemoniumRSflame_mvl/mxv
 BYTE   N92  En2  v127
 BYTE   W44
 BYTE   W02
 BYTE   N03
 BYTE   W48
// 001   ----------------------------------------
 BYTE   W02
Label_12_01EA6E6D:
 BYTE   N92  Gn2  v127
 BYTE   W44
 BYTE   W02
 BYTE   N03
 BYTE   W48
// 002   ----------------------------------------
 BYTE   W02
 BYTE   PEND 
 BYTE   N92  Fn2  v127
 BYTE   W44
 BYTE   W02
 BYTE   N03
 BYTE   W48
// 003   ----------------------------------------
 BYTE   W02
// 004   ----------------------------------------
 BYTE   PATT
  POIN2 Label_12_01EA6E6D
// 005   ----------------------------------------
Label_12_01EA6E83:
 BYTE   N92  En2  v127
 BYTE   W44
 BYTE   W02
 BYTE   N03
 BYTE   W48
 BYTE   W02
 BYTE   PEND 
// 006   ----------------------------------------
 BYTE   PATT
  POIN2 Label_12_01EA6E83
// 007   ----------------------------------------
 BYTE   N92  En2  v127
 BYTE   W44
 BYTE   W02
 BYTE   N03
 BYTE   W48
 BYTE   W01
 BYTE   W96
// 008   ----------------------------------------
 BYTE   W96
// 009   ----------------------------------------
 BYTE   W96
// 010   ----------------------------------------
 BYTE   W96
// 011   ----------------------------------------
 BYTE   W96
// 012   ----------------------------------------
 BYTE   W96
// 013   ----------------------------------------
 BYTE   W96
// 014   ----------------------------------------
 BYTE   W96
// 015   ----------------------------------------
 BYTE   W92
 BYTE   W01
 BYTE   W01
 BYTE   GoTo
  POIN2 Label_12_01EA6E58
 BYTE   FINE

//******************************************************//
	ALIGN 4

FF2CastlepandemoniumRSflame:
	BYTE	13	// NumTrks
	BYTE	0	// NumBlks
	BYTE	FF2CastlepandemoniumRSflame_pri	// Priority
	BYTE	FF2CastlepandemoniumRSflame_rev	// Reverb.
    
	POIN2	FF2CastlepandemoniumRSflame_grp
    
	POIN2	FF2CastlepandemoniumRSflame_001
	POIN2	FF2CastlepandemoniumRSflame_002
	POIN2	FF2CastlepandemoniumRSflame_003
	POIN2	FF2CastlepandemoniumRSflame_004
	POIN2	FF2CastlepandemoniumRSflame_005
	POIN2	FF2CastlepandemoniumRSflame_006
	POIN2	FF2CastlepandemoniumRSflame_007
	POIN2	FF2CastlepandemoniumRSflame_008
	POIN2	FF2CastlepandemoniumRSflame_009
	POIN2	FF2CastlepandemoniumRSflame_010
	POIN2	FF2CastlepandemoniumRSflame_011
	POIN2	FF2CastlepandemoniumRSflame_012
	POIN2	FF2CastlepandemoniumRSflame_013

	
