//Event file generated from Sappy .s format.
	#include "MPlayDef.event"

	#define	FF3BossThemeRandomWizard_grp  voicegroup000
	#define	FF3BossThemeRandomWizard_pri  0
	#define	FF3BossThemeRandomWizard_rev  0
	#define	FF3BossThemeRandomWizard_mvl  75
	#define	FF3BossThemeRandomWizard_key  0
	#define	FF3BossThemeRandomWizard_tbs  1
	#define	FF3BossThemeRandomWizard_exg  0
	#define	FF3BossThemeRandomWizard_cmp  1

	// .rodata
	//	FF3BossThemeRandomWizard
	ALIGN 4


//**************** Track 1 (Midi-Chn.0) ****************//

FF3BossThemeRandomWizard_001:
// 000   ----------------------------------------
 BYTE   VOL   80*FF3BossThemeRandomWizard_mvl/mxv
 BYTE   KEYSH   FF3BossThemeRandomWizard_key+0
Label_0_01340B84:
 BYTE   TEMPO   164*FF3BossThemeRandomWizard_tbs/2
 BYTE   VOICE   40
 BYTE   W08
 BYTE   N11  Ds4  v127
 BYTE   W12
 BYTE   En4
 BYTE   W12
 BYTE   Cn4
 BYTE   W12
 BYTE   An3
 BYTE   W12
 BYTE   Gs3
 BYTE   W12
 BYTE   An3
 BYTE   W12
 BYTE   Cn4
 BYTE   W12
 BYTE   En4
 BYTE   W04
// 001   ----------------------------------------
Label_0_01340B9B:
 BYTE   W08
 BYTE   N11  Gn4  v127
 BYTE   W12
 BYTE   Fs4
 BYTE   W12
 BYTE   Dn4
 BYTE   W12
 BYTE   Fn4
 BYTE   W12
 BYTE   N23  En4
 BYTE   W24
 BYTE   N11  Cn4
 BYTE   W16
 BYTE   PEND 
// 002   ----------------------------------------
 BYTE   W08
 BYTE   Ds4
 BYTE   W12
 BYTE   En4
 BYTE   W12
 BYTE   Cn4
 BYTE   W12
 BYTE   An3
 BYTE   W12
 BYTE   Gs3
 BYTE   W12
 BYTE   An3
 BYTE   W12
 BYTE   Cn4
 BYTE   W12
 BYTE   En4
 BYTE   W04
 BYTE   PATT
  POIN2 Label_0_01340B9B
// 003   ----------------------------------------
Label_0_01340BC3:
 BYTE   W08
 BYTE   N11  Gs4  v127
 BYTE   W12
 BYTE   An4
 BYTE   W12
 BYTE   Fn4
 BYTE   W12
 BYTE   Dn4
 BYTE   W12
 BYTE   Cs4
 BYTE   W12
 BYTE   Dn4
 BYTE   W12
 BYTE   Fn4
 BYTE   W12
 BYTE   An4
 BYTE   W04
 BYTE   PEND 
// 004   ----------------------------------------
Label_0_01340BD7:
 BYTE   W08
 BYTE   N11  Cn5  v127
 BYTE   W12
 BYTE   Bn4
 BYTE   W12
 BYTE   Gn4
 BYTE   W12
 BYTE   As4
 BYTE   W12
 BYTE   N23  An4
 BYTE   W24
 BYTE   N11  Fn4
 BYTE   W16
 BYTE   PEND 
 BYTE   PATT
  POIN2 Label_0_01340BC3
 BYTE   PATT
  POIN2 Label_0_01340BD7
// 005   ----------------------------------------
 BYTE   W96
// 006   ----------------------------------------
 BYTE   W96
// 007   ----------------------------------------
 BYTE   W92
 BYTE   N07  En1  v127
 BYTE   W04
// 008   ----------------------------------------
 BYTE   W04
 BYTE   Gn1
 BYTE   W08
 BYTE   Bn1
 BYTE   W08
 BYTE   En2
 BYTE   W10
 BYTE   Gs2
 BYTE   W06
 BYTE   Bn2
 BYTE   W08
 BYTE   En3
 BYTE   W08
 BYTE   Gs3
 BYTE   W08
 BYTE   Bn3
 BYTE   W08
 BYTE   En4
 BYTE   W08
 BYTE   Gs4
 BYTE   W08
 BYTE   Bn4
 BYTE   W08
 BYTE   N11  Dn3
 BYTE   W04
// 009   ----------------------------------------
 BYTE   W08
 BYTE   Fn3
 BYTE   W12
 BYTE   Dn3
 BYTE   W12
 BYTE   Fn3
 BYTE   W12
 BYTE   An3
 BYTE   W12
 BYTE   Gs3
 BYTE   W24
 BYTE   Fn3
 BYTE   W12
 BYTE   Dn3
 BYTE   W04
// 010   ----------------------------------------
 BYTE   W08
 BYTE   Fn3
 BYTE   W12
 BYTE   An3
 BYTE   W12
 BYTE   Gs3
 BYTE   W12
 BYTE   Fn3
 BYTE   W12
 BYTE   An3
 BYTE   W12
 BYTE   Cn4
 BYTE   W12
 BYTE   Bn3
 BYTE   W12
 BYTE   An3
 BYTE   W04
// 011   ----------------------------------------
 BYTE   W08
 BYTE   Cn4
 BYTE   W12
 BYTE   An3
 BYTE   W12
 BYTE   Cn4
 BYTE   W12
 BYTE   En4
 BYTE   W12
 BYTE   Ds4
 BYTE   W24
 BYTE   Cn4
 BYTE   W12
 BYTE   An3
 BYTE   W04
// 012   ----------------------------------------
 BYTE   W08
 BYTE   Cn4
 BYTE   W12
 BYTE   Gn4
 BYTE   W12
 BYTE   Fs4
 BYTE   W12
 BYTE   Dn4
 BYTE   W12
 BYTE   Fn4
 BYTE   W12
 BYTE   Cn5
 BYTE   W12
 BYTE   Bn4
 BYTE   W16
// 013   ----------------------------------------
 BYTE   W96
// 014   ----------------------------------------
 BYTE   W96
// 015   ----------------------------------------
 BYTE   W96
// 016   ----------------------------------------
 BYTE   W96
// 017   ----------------------------------------
 BYTE   W96
// 018   ----------------------------------------
 BYTE   W96
// 019   ----------------------------------------
 BYTE   W96
// 020   ----------------------------------------
 BYTE   W96
// 021   ----------------------------------------
 BYTE   W96
// 022   ----------------------------------------
 BYTE   W96
// 023   ----------------------------------------
 BYTE   W96
// 024   ----------------------------------------
 BYTE   W96
// 025   ----------------------------------------
 BYTE   W96
// 026   ----------------------------------------
 BYTE   W92
 BYTE   N92  En4
 BYTE   W04
// 027   ----------------------------------------
 BYTE   W92
 BYTE   Gs4
 BYTE   W04
// 028   ----------------------------------------
 BYTE   W96
// 029   ----------------------------------------
 BYTE   GoTo
  POIN2 Label_0_01340B84
 BYTE   FINE

//**************** Track 2 (Midi-Chn.1) ****************//

FF3BossThemeRandomWizard_002:
// 000   ----------------------------------------
 BYTE   VOL   80*FF3BossThemeRandomWizard_mvl/mxv
 BYTE   KEYSH   FF3BossThemeRandomWizard_key+0
Label_1_01340C74:
 BYTE   VOICE   61
 BYTE   W12
 BYTE   N11  Cn3  v127
 BYTE   W12
 BYTE   N11
 BYTE   W12
 BYTE   N11
 BYTE   W12
 BYTE   N11
 BYTE   W12
 BYTE   N11
 BYTE   W12
 BYTE   N11
 BYTE   W12
 BYTE   N11
 BYTE   W12
// 001   ----------------------------------------
Label_1_01340C87:
 BYTE   N11  Cn3  v127
 BYTE   W12
 BYTE   Dn3
 BYTE   W12
 BYTE   Ds3
 BYTE   W12
 BYTE   En3
 BYTE   W12
 BYTE   Fn3
 BYTE   W12
 BYTE   N23  Gs3
 BYTE   W24
 BYTE   N11  An3
 BYTE   W12
 BYTE   PEND 
// 002   ----------------------------------------
 BYTE   W12
 BYTE   Cn3
 BYTE   W12
 BYTE   N11
 BYTE   W12
 BYTE   N11
 BYTE   W12
 BYTE   N11
 BYTE   W12
 BYTE   N11
 BYTE   W12
 BYTE   N11
 BYTE   W12
 BYTE   N11
 BYTE   W12
 BYTE   PATT
  POIN2 Label_1_01340C87
// 003   ----------------------------------------
Label_1_01340CAE:
 BYTE   W12
 BYTE   N11  Dn3  v127
 BYTE   W12
 BYTE   N11
 BYTE   W12
 BYTE   N11
 BYTE   W12
 BYTE   N11
 BYTE   W12
 BYTE   N11
 BYTE   W12
 BYTE   N11
 BYTE   W12
 BYTE   N11
 BYTE   W12
 BYTE   PEND 
// 004   ----------------------------------------
Label_1_01340CC0:
 BYTE   N11  Dn3  v127
 BYTE   W12
 BYTE   En3
 BYTE   W12
 BYTE   Fn3
 BYTE   W12
 BYTE   Gs3
 BYTE   W12
 BYTE   An3
 BYTE   W12
 BYTE   N23  Cs4
 BYTE   W24
 BYTE   N11  Dn4
 BYTE   W12
 BYTE   PEND 
 BYTE   PATT
  POIN2 Label_1_01340CAE
 BYTE   PATT
  POIN2 Label_1_01340CC0
// 005   ----------------------------------------
 BYTE   W96
// 006   ----------------------------------------
 BYTE   W96
// 007   ----------------------------------------
 BYTE   W96
// 008   ----------------------------------------
 BYTE   W48
 BYTE   N07  En2  v127
 BYTE   W07
 BYTE   Gs2
 BYTE   W08
 BYTE   Bn2
 BYTE   W09
 BYTE   En3
 BYTE   W07
 BYTE   Gs3
 BYTE   W08
 BYTE   Bn3
 BYTE   W09
// 009   ----------------------------------------
 BYTE   W48
 BYTE   N11  Fn3
 BYTE   W12
 BYTE   En3
 BYTE   W24
 BYTE   Cn3
 BYTE   W12
// 010   ----------------------------------------
 BYTE   An2
 BYTE   W12
 BYTE   Dn3
 BYTE   W12
 BYTE   Fn3
 BYTE   W12
 BYTE   En3
 BYTE   W12
 BYTE   Dn3
 BYTE   W12
 BYTE   Fn3
 BYTE   W12
 BYTE   An3
 BYTE   W12
 BYTE   Gs3
 BYTE   W12
// 011   ----------------------------------------
 BYTE   Fn3
 BYTE   W12
 BYTE   An3
 BYTE   W12
 BYTE   Fn3
 BYTE   W12
 BYTE   An3
 BYTE   W12
 BYTE   Cn4
 BYTE   W12
 BYTE   Bn3
 BYTE   W24
 BYTE   An3
 BYTE   W12
// 012   ----------------------------------------
 BYTE   Fn3
 BYTE   W12
 BYTE   An3
 BYTE   W12
 BYTE   Dn4
 BYTE   W12
 BYTE   Cn4
 BYTE   W12
 BYTE   An3
 BYTE   W12
 BYTE   Dn4
 BYTE   W12
 BYTE   An4
 BYTE   W12
 BYTE   Gn4
 BYTE   W12
// 013   ----------------------------------------
 BYTE   W96
// 014   ----------------------------------------
 BYTE   W96
// 015   ----------------------------------------
 BYTE   W96
// 016   ----------------------------------------
 BYTE   W96
// 017   ----------------------------------------
 BYTE   W96
// 018   ----------------------------------------
 BYTE   W96
// 019   ----------------------------------------
 BYTE   W96
// 020   ----------------------------------------
Label_1_01340D2C:
 BYTE   N11  En4  v127
 BYTE   W12
 BYTE   N11
 BYTE   W12
 BYTE   N11
 BYTE   W12
 BYTE   Fs4
 BYTE   W12
 BYTE   N11
 BYTE   W12
 BYTE   N11
 BYTE   W12
 BYTE   Gs4
 BYTE   W12
 BYTE   N11
 BYTE   W12
 BYTE   PEND 
// 021   ----------------------------------------
 BYTE   W96
// 022   ----------------------------------------
 BYTE   W96
// 023   ----------------------------------------
 BYTE   W96
// 024   ----------------------------------------
 BYTE   W96
// 025   ----------------------------------------
 BYTE   W96
// 026   ----------------------------------------
 BYTE   W96
// 027   ----------------------------------------
 BYTE   W96
 BYTE   PATT
  POIN2 Label_1_01340D2C
// 028   ----------------------------------------
 BYTE   GoTo
  POIN2 Label_1_01340C74
 BYTE   FINE

//**************** Track 3 (Midi-Chn.2) ****************//

FF3BossThemeRandomWizard_003:
// 000   ----------------------------------------
 BYTE   VOL   80*FF3BossThemeRandomWizard_mvl/mxv
 BYTE   KEYSH   FF3BossThemeRandomWizard_key+0
Label_2_01340D58:
 BYTE   VOICE   33
 BYTE   N11  An0  v127
 BYTE   W12
 BYTE   N11
 BYTE   W12
 BYTE   N11
 BYTE   W12
 BYTE   N11
 BYTE   W12
 BYTE   N11
 BYTE   W12
 BYTE   N11
 BYTE   W12
 BYTE   N11
 BYTE   W12
 BYTE   N11
 BYTE   W12
// 001   ----------------------------------------
Label_2_01340D6C:
 BYTE   N11  An0  v127
 BYTE   W12
 BYTE   N11
 BYTE   W12
 BYTE   N11
 BYTE   W12
 BYTE   N11
 BYTE   W12
 BYTE   N11
 BYTE   W12
 BYTE   En1
 BYTE   W12
 BYTE   Gs0
 BYTE   W12
 BYTE   An0
 BYTE   W12
 BYTE   PEND 
// 002   ----------------------------------------
 BYTE   N11
 BYTE   W12
 BYTE   N11
 BYTE   W12
 BYTE   N11
 BYTE   W12
 BYTE   N11
 BYTE   W12
 BYTE   N11
 BYTE   W12
 BYTE   N11
 BYTE   W12
 BYTE   N11
 BYTE   W12
 BYTE   N11
 BYTE   W12
 BYTE   PATT
  POIN2 Label_2_01340D6C
// 003   ----------------------------------------
Label_2_01340D94:
 BYTE   N11  Dn1  v127
 BYTE   W12
 BYTE   N11
 BYTE   W12
 BYTE   N11
 BYTE   W12
 BYTE   N11
 BYTE   W12
 BYTE   N11
 BYTE   W12
 BYTE   N11
 BYTE   W12
 BYTE   N11
 BYTE   W12
 BYTE   N11
 BYTE   W12
 BYTE   PEND 
// 004   ----------------------------------------
 BYTE   N11
 BYTE   W12
 BYTE   N11
 BYTE   W12
 BYTE   N11
 BYTE   W12
 BYTE   N11
 BYTE   W12
 BYTE   N11
 BYTE   W12
 BYTE   An1
 BYTE   W12
 BYTE   Cs1
 BYTE   W12
 BYTE   Dn1
 BYTE   W12
 BYTE   PATT
  POIN2 Label_2_01340D94
// 005   ----------------------------------------
 BYTE   N11  Dn1  v127
 BYTE   W12
 BYTE   N11
 BYTE   W12
 BYTE   N11
 BYTE   W12
 BYTE   N11
 BYTE   W12
 BYTE   N11
 BYTE   W12
 BYTE   En1
 BYTE   W12
 BYTE   Fn1
 BYTE   W12
 BYTE   Gs1
 BYTE   W12
// 006   ----------------------------------------
Label_2_01340DCE:
 BYTE   N68  An0  v127
 BYTE   W72
 BYTE   N23  En1
 BYTE   W24
 BYTE   PEND 
// 007   ----------------------------------------
 BYTE   N68  An1
 BYTE   W72
 BYTE   N23  En1
 BYTE   W24
 BYTE   PATT
  POIN2 Label_2_01340DCE
// 008   ----------------------------------------
 BYTE   N92  En0  v127
 BYTE   W96
// 009   ----------------------------------------
 BYTE   W24
 BYTE   N11  Dn1
 BYTE   W12
 BYTE   N11
 BYTE   W36
 BYTE   N23
 BYTE   W24
// 010   ----------------------------------------
 BYTE   W24
 BYTE   N23
 BYTE   W48
 BYTE   N11
 BYTE   W12
 BYTE   N11
 BYTE   W12
// 011   ----------------------------------------
 BYTE   W24
 BYTE   An0
 BYTE   W12
 BYTE   N11
 BYTE   W36
 BYTE   N23
 BYTE   W24
// 012   ----------------------------------------
 BYTE   W24
 BYTE   N23
 BYTE   W24
 BYTE   N11
 BYTE   W12
 BYTE   Bn0
 BYTE   W12
 BYTE   Cn1
 BYTE   W12
 BYTE   En1
 BYTE   W12
// 013   ----------------------------------------
Label_2_01340E06:
 BYTE   N23  Fn1  v127
 BYTE   W24
 BYTE   Cn1
 BYTE   W24
 BYTE   Fn1
 BYTE   W24
 BYTE   Cn1
 BYTE   W24
 BYTE   PEND 
 BYTE   PATT
  POIN2 Label_2_01340E06
// 014   ----------------------------------------
Label_2_01340E16:
 BYTE   N23  En1  v127
 BYTE   W24
 BYTE   Bn0
 BYTE   W24
 BYTE   En1
 BYTE   W24
 BYTE   Bn0
 BYTE   W24
 BYTE   PEND 
 BYTE   PATT
  POIN2 Label_2_01340E16
// 015   ----------------------------------------
Label_2_01340E26:
 BYTE   N23  Dn1  v127
 BYTE   W24
 BYTE   An0
 BYTE   W24
 BYTE   Dn1
 BYTE   W24
 BYTE   An0
 BYTE   W24
 BYTE   PEND 
 BYTE   PATT
  POIN2 Label_2_01340E26
// 016   ----------------------------------------
Label_2_01340E36:
 BYTE   N23  Cn1  v127
 BYTE   W24
 BYTE   Gn0
 BYTE   W24
 BYTE   Cn1
 BYTE   W24
 BYTE   Gn0
 BYTE   W24
 BYTE   PEND 
// 017   ----------------------------------------
Label_2_01340E41:
 BYTE   N23  En1  v127
 BYTE   W24
 BYTE   Bn0
 BYTE   W24
 BYTE   En1
 BYTE   W24
 BYTE   Gs1
 BYTE   W24
 BYTE   PEND 
 BYTE   PATT
  POIN2 Label_2_01340E06
 BYTE   PATT
  POIN2 Label_2_01340E06
 BYTE   PATT
  POIN2 Label_2_01340E16
 BYTE   PATT
  POIN2 Label_2_01340E16
 BYTE   PATT
  POIN2 Label_2_01340E26
 BYTE   PATT
  POIN2 Label_2_01340E26
 BYTE   PATT
  POIN2 Label_2_01340E36
 BYTE   PATT
  POIN2 Label_2_01340E41
// 018   ----------------------------------------
 BYTE   GoTo
  POIN2 Label_2_01340D58
 BYTE   FINE

//**************** Track 4 (Midi-Chn.3) ****************//

FF3BossThemeRandomWizard_004:
// 000   ----------------------------------------
 BYTE   VOL   80*FF3BossThemeRandomWizard_mvl/mxv
 BYTE   KEYSH   FF3BossThemeRandomWizard_key+0
Label_3_01340E80:
 BYTE   VOICE   56
 BYTE   W96
// 001   ----------------------------------------
 BYTE   W96
// 002   ----------------------------------------
 BYTE   W96
// 003   ----------------------------------------
 BYTE   W96
// 004   ----------------------------------------
 BYTE   W96
// 005   ----------------------------------------
 BYTE   W96
// 006   ----------------------------------------
 BYTE   W96
// 007   ----------------------------------------
 BYTE   W96
// 008   ----------------------------------------
 BYTE   W96
// 009   ----------------------------------------
 BYTE   W96
// 010   ----------------------------------------
 BYTE   W96
// 011   ----------------------------------------
 BYTE   W96
// 012   ----------------------------------------
 BYTE   W96
// 013   ----------------------------------------
 BYTE   W96
// 014   ----------------------------------------
 BYTE   W96
// 015   ----------------------------------------
 BYTE   W96
// 016   ----------------------------------------
Label_3_01340E92:
 BYTE   N68  Fn3  v127
 BYTE   N68  An3
 BYTE   W72
 BYTE   N11  Fn3
 BYTE   N11  An3
 BYTE   W12
 BYTE   N05  Fn3
 BYTE   N05  An3
 BYTE   W06
 BYTE   Gn3
 BYTE   N05  Bn3
 BYTE   W06
 BYTE   PEND 
// 017   ----------------------------------------
Label_3_01340EA7:
 BYTE   N44  Fn3  v127
 BYTE   N44  An3
 BYTE   W48
 BYTE   En3
 BYTE   N44  Gn3
 BYTE   W48
 BYTE   PEND 
 BYTE   PATT
  POIN2 Label_3_01340EA7
// 018   ----------------------------------------
 BYTE   N92  Bn2  v127
 BYTE   N92  Gn3
 BYTE   W96
// 019   ----------------------------------------
Label_3_01340EBD:
 BYTE   N68  Dn3  v127
 BYTE   N68  Fn3
 BYTE   W72
 BYTE   N11  Dn3
 BYTE   N11  Fn3
 BYTE   W12
 BYTE   N05  Dn3
 BYTE   N05  Fn3
 BYTE   W06
 BYTE   En3
 BYTE   N05  Gn3
 BYTE   W06
 BYTE   PEND 
// 020   ----------------------------------------
Label_3_01340ED2:
 BYTE   N44  Dn3  v127
 BYTE   N44  Fn3
 BYTE   W48
 BYTE   An2
 BYTE   N44  Dn3
 BYTE   W48
 BYTE   PEND 
// 021   ----------------------------------------
 BYTE   N92  Cn3
 BYTE   N92  En3
 BYTE   W96
// 022   ----------------------------------------
 BYTE   Bn2
 BYTE   N92  Gs3
 BYTE   W96
 BYTE   PATT
  POIN2 Label_3_01340E92
 BYTE   PATT
  POIN2 Label_3_01340EA7
 BYTE   PATT
  POIN2 Label_3_01340EA7
// 023   ----------------------------------------
 BYTE   N92  Bn2  v127
 BYTE   N92  Gn3
 BYTE   W96
 BYTE   PATT
  POIN2 Label_3_01340EBD
 BYTE   PATT
  POIN2 Label_3_01340ED2
// 024   ----------------------------------------
 BYTE   N92  Cn3  v127
 BYTE   N92  En3
 BYTE   W96
// 025   ----------------------------------------
 BYTE   Bn2
 BYTE   N92  Gs3
 BYTE   W96
// 026   ----------------------------------------
 BYTE   GoTo
  POIN2 Label_3_01340E80
 BYTE   FINE

//**************** Track 5 (Midi-Chn.4) ****************//

FF3BossThemeRandomWizard_005:
// 000   ----------------------------------------
 BYTE   VOL   80*FF3BossThemeRandomWizard_mvl/mxv
 BYTE   KEYSH   FF3BossThemeRandomWizard_key+0
Label_4_01340F1C:
 BYTE   VOICE   46
 BYTE   W96
// 001   ----------------------------------------
 BYTE   W96
// 002   ----------------------------------------
 BYTE   W96
// 003   ----------------------------------------
 BYTE   W96
// 004   ----------------------------------------
 BYTE   W96
// 005   ----------------------------------------
 BYTE   W96
// 006   ----------------------------------------
 BYTE   W96
// 007   ----------------------------------------
 BYTE   W96
// 008   ----------------------------------------
 BYTE   W96
// 009   ----------------------------------------
 BYTE   W96
// 010   ----------------------------------------
 BYTE   W96
// 011   ----------------------------------------
 BYTE   W96
// 012   ----------------------------------------
 BYTE   W96
// 013   ----------------------------------------
 BYTE   W96
// 014   ----------------------------------------
 BYTE   W96
// 015   ----------------------------------------
 BYTE   W96
// 016   ----------------------------------------
Label_4_01340F2E:
 BYTE   N11  An3  v127
 BYTE   W12
 BYTE   N03  Gn3
 BYTE   W03
 BYTE   Gs3
 BYTE   W04
 BYTE   An3
 BYTE   W05
 BYTE   N11  Bn3
 BYTE   W12
 BYTE   Gn3
 BYTE   W12
 BYTE   An3
 BYTE   W12
 BYTE   Gn3
 BYTE   W12
 BYTE   Bn3
 BYTE   W12
 BYTE   Gn3
 BYTE   W12
 BYTE   PEND 
 BYTE   PATT
  POIN2 Label_4_01340F2E
// 017   ----------------------------------------
Label_4_01340F4C:
 BYTE   N11  Gn3  v127
 BYTE   W12
 BYTE   N03  En3
 BYTE   W03
 BYTE   Fn3
 BYTE   W04
 BYTE   Fs3
 BYTE   W05
 BYTE   N11  Gn3
 BYTE   W12
 BYTE   En3
 BYTE   W12
 BYTE   Gn3
 BYTE   W12
 BYTE   En3
 BYTE   W12
 BYTE   Fs3
 BYTE   W12
 BYTE   En3
 BYTE   W12
 BYTE   PEND 
 BYTE   PATT
  POIN2 Label_4_01340F4C
// 018   ----------------------------------------
Label_4_01340F6A:
 BYTE   N11  Fn3  v127
 BYTE   W12
 BYTE   N03  Dn3
 BYTE   W03
 BYTE   Ds3
 BYTE   W04
 BYTE   En3
 BYTE   W05
 BYTE   N11  Fn3
 BYTE   W12
 BYTE   Dn3
 BYTE   W12
 BYTE   Fn3
 BYTE   W12
 BYTE   Dn3
 BYTE   W12
 BYTE   En3
 BYTE   W12
 BYTE   Dn3
 BYTE   W12
 BYTE   PEND 
 BYTE   PATT
  POIN2 Label_4_01340F6A
// 019   ----------------------------------------
Label_4_01340F88:
 BYTE   N11  En3  v127
 BYTE   W12
 BYTE   N03  Cn3
 BYTE   W03
 BYTE   Cs3
 BYTE   W04
 BYTE   Dn3
 BYTE   W05
 BYTE   N11  En3
 BYTE   W12
 BYTE   Cn3
 BYTE   W12
 BYTE   En3
 BYTE   W12
 BYTE   Cn3
 BYTE   W12
 BYTE   Dn3
 BYTE   W12
 BYTE   Cn3
 BYTE   W12
 BYTE   PEND 
// 020   ----------------------------------------
Label_4_01340FA1:
 BYTE   N11  En3  v127
 BYTE   W12
 BYTE   N11
 BYTE   W12
 BYTE   N11
 BYTE   W12
 BYTE   Fs3
 BYTE   W12
 BYTE   N11
 BYTE   W12
 BYTE   N11
 BYTE   W12
 BYTE   Gs3
 BYTE   W12
 BYTE   N11
 BYTE   W12
 BYTE   PEND 
 BYTE   PATT
  POIN2 Label_4_01340F2E
 BYTE   PATT
  POIN2 Label_4_01340F2E
 BYTE   PATT
  POIN2 Label_4_01340F4C
 BYTE   PATT
  POIN2 Label_4_01340F4C
 BYTE   PATT
  POIN2 Label_4_01340F6A
 BYTE   PATT
  POIN2 Label_4_01340F6A
 BYTE   PATT
  POIN2 Label_4_01340F88
 BYTE   PATT
  POIN2 Label_4_01340FA1
// 021   ----------------------------------------
 BYTE   GoTo
  POIN2 Label_4_01340F1C
 BYTE   FINE

//**************** Track 6 (Midi-Chn.5) ****************//

FF3BossThemeRandomWizard_006:
// 000   ----------------------------------------
 BYTE   VOL   80*FF3BossThemeRandomWizard_mvl/mxv
 BYTE   KEYSH   FF3BossThemeRandomWizard_key+0
Label_5_01340FE8:
 BYTE   VOICE   48
 BYTE   TIE  En3  v127
 BYTE   N92  Cn4
 BYTE   W96
// 001   ----------------------------------------
Label_5_01340FF0:
 BYTE   N11  Cn4  v127
 BYTE   W12
 BYTE   Dn4
 BYTE   W12
 BYTE   Ds4
 BYTE   W12
 BYTE   En4
 BYTE   W11
 BYTE   PEND 
 BYTE   EOT
 BYTE   En3
 BYTE   W01
 BYTE   N11  An3
 BYTE   N11  Fn4
 BYTE   W12
 BYTE   N23  Bn3
 BYTE   N23  Gs4
 BYTE   W24
 BYTE   N11  Cn4
 BYTE   N11  An4
 BYTE   W12
// 002   ----------------------------------------
 BYTE   TIE  En3
 BYTE   N92  Cn4
 BYTE   W96
 BYTE   PATT
  POIN2 Label_5_01340FF0
// 003   ----------------------------------------
 BYTE   EOT
 BYTE   En3
 BYTE   W01
 BYTE   N11  An3  v127
 BYTE   N11  Fn4
 BYTE   W12
 BYTE   N23  Bn3
 BYTE   N23  Gs4
 BYTE   W24
 BYTE   N11  Cn4
 BYTE   N11  An4
 BYTE   W12
Label_5_0134102A:
 BYTE   TIE  Fn3  v127
 BYTE   N92  Dn4
 BYTE   W96
 BYTE   PEND 
// 004   ----------------------------------------
Label_5_01341031:
 BYTE   N11  Dn4  v127
 BYTE   W12
 BYTE   En4
 BYTE   W12
 BYTE   Fn4
 BYTE   W12
 BYTE   Gn4
 BYTE   W11
 BYTE   PEND 
 BYTE   EOT
 BYTE   Fn3
 BYTE   W01
 BYTE   N11  Cn4
 BYTE   N11  An4
 BYTE   W12
 BYTE   N23  En4
 BYTE   N23  Cs5
 BYTE   W24
 BYTE   N11  Fs4
 BYTE   N11  Dn5
 BYTE   W12
 BYTE   PATT
  POIN2 Label_5_0134102A
 BYTE   PATT
  POIN2 Label_5_01341031
// 005   ----------------------------------------
 BYTE   EOT
 BYTE   Fn3
 BYTE   W01
 BYTE   N11  Cn4  v127
 BYTE   N11  An4
 BYTE   W12
 BYTE   N23  En4
 BYTE   N23  Cs5
 BYTE   W24
 BYTE   N11  Fs4
 BYTE   N11  Dn5
 BYTE   W12
 BYTE   N23  En5
 BYTE   W24
 BYTE   Cn5
 BYTE   W24
// 006   ----------------------------------------
 BYTE   An4
 BYTE   W24
 BYTE   Fn4
 BYTE   W24
 BYTE   Cn4
 BYTE   N23  En4
 BYTE   W24
 BYTE   An3
 BYTE   N23  Cn4
 BYTE   W24
// 007   ----------------------------------------
 BYTE   En3
 BYTE   N23  An3
 BYTE   W24
 BYTE   Cn3
 BYTE   N23  Fn3
 BYTE   W24
 BYTE   An2
 BYTE   N23  Cn3
 BYTE   N23  En3
 BYTE   W24
 BYTE   En2
 BYTE   N23  An2
 BYTE   N23  Cn3
 BYTE   W24
// 008   ----------------------------------------
 BYTE   Cn2
 BYTE   N23  En2
 BYTE   N23  An2
 BYTE   W24
 BYTE   An1
 BYTE   N23  Cn2
 BYTE   N23  Fn2
 BYTE   W24
 BYTE   N07  En2
 BYTE   W07
 BYTE   Gs2
 BYTE   W08
 BYTE   Bn2
 BYTE   W09
 BYTE   En3
 BYTE   W07
 BYTE   Gs3
 BYTE   W08
 BYTE   Bn3
 BYTE   W09
// 009   ----------------------------------------
 BYTE   En4
 BYTE   W07
 BYTE   Gs4
 BYTE   W08
 BYTE   Bn4
 BYTE   W09
 BYTE   En5
 BYTE   W07
 BYTE   Gs5
 BYTE   W08
 BYTE   Bn5
 BYTE   W09
 BYTE   W96
// 010   ----------------------------------------
 BYTE   W96
// 011   ----------------------------------------
 BYTE   W96
// 012   ----------------------------------------
 BYTE   W48
 BYTE   N05  Dn3
 BYTE   N05  An3
 BYTE   W06
 BYTE   En3
 BYTE   N05  Bn3
 BYTE   W06
 BYTE   Fn3
 BYTE   N05  Cn4
 BYTE   W06
 BYTE   Gn3
 BYTE   N05  Dn4
 BYTE   W06
 BYTE   An3
 BYTE   N05  En4
 BYTE   W06
 BYTE   Bn3
 BYTE   N05  Fs4
 BYTE   W06
 BYTE   Cn4
 BYTE   N05  Gn4
 BYTE   W06
 BYTE   Cs4
 BYTE   N05  Gs4
 BYTE   W06
// 013   ----------------------------------------
 BYTE   N92  Fn4
 BYTE   N92  An4
 BYTE   W96
// 014   ----------------------------------------
Label_5_013410DF:
 BYTE   N44  Fn4  v127
 BYTE   N44  An4
 BYTE   W48
 BYTE   En4
 BYTE   N44  Gn4
 BYTE   W48
 BYTE   PEND 
// 015   ----------------------------------------
Label_5_013410EA:
 BYTE   N44  Dn4  v127
 BYTE   N44  An4
 BYTE   W48
 BYTE   N92  Bn3
 BYTE   TIE  Gn4
 BYTE   W48
 BYTE   PEND 
// 016   ----------------------------------------
Label_5_013410F6:
 BYTE   W48
 BYTE   N05  En3  v127
 BYTE   W06
 BYTE   Fs3
 BYTE   W06
 BYTE   Gn3
 BYTE   W06
 BYTE   Bn3
 BYTE   W06
 BYTE   En4
 BYTE   W06
 BYTE   Fs4
 BYTE   W06
 BYTE   PEND 
 BYTE   EOT
 BYTE   Gn4
 BYTE   N05
 BYTE   W06
 BYTE   Bn4
 BYTE   W06
// 017   ----------------------------------------
 BYTE   N92  An3
 BYTE   N92  Fn4
 BYTE   W96
// 018   ----------------------------------------
Label_5_01341111:
 BYTE   N44  Dn4  v127
 BYTE   N44  An4
 BYTE   W48
 BYTE   An3
 BYTE   N44  Fn4
 BYTE   W48
 BYTE   PEND 
// 019   ----------------------------------------
 BYTE   N92  Cn4
 BYTE   N92  En4
 BYTE   W96
// 020   ----------------------------------------
Label_5_01341121:
 BYTE   N44  Bn3  v127
 BYTE   N60  Gs4
 BYTE   W48
 BYTE   N05  En5
 BYTE   W06
 BYTE   Bn4
 BYTE   W06
 BYTE   Gs4
 BYTE   W06
 BYTE   En4
 BYTE   W06
 BYTE   Bn3
 BYTE   W06
 BYTE   Gs3
 BYTE   W06
 BYTE   En3
 BYTE   W06
 BYTE   Bn2
 BYTE   W06
 BYTE   PEND 
// 021   ----------------------------------------
 BYTE   N92  Fn4
 BYTE   N92  An4
 BYTE   W96
 BYTE   PATT
  POIN2 Label_5_013410DF
 BYTE   PATT
  POIN2 Label_5_013410EA
 BYTE   PATT
  POIN2 Label_5_013410F6
// 022   ----------------------------------------
 BYTE   EOT
 BYTE   Gn4
 BYTE   N05  Gn4  v127
 BYTE   W06
 BYTE   Bn4
 BYTE   W06
 BYTE   N92  An3
 BYTE   N92  Fn4
 BYTE   W96
 BYTE   PATT
  POIN2 Label_5_01341111
// 023   ----------------------------------------
 BYTE   N92  Cn4  v127
 BYTE   N92  En4
 BYTE   W96
 BYTE   PATT
  POIN2 Label_5_01341121
// 024   ----------------------------------------
 BYTE   GoTo
  POIN2 Label_5_01340FE8
 BYTE   FINE

//**************** Track 7 (Midi-Chn.6) ****************//

FF3BossThemeRandomWizard_007:
// 000   ----------------------------------------
 BYTE   VOL   80*FF3BossThemeRandomWizard_mvl/mxv
 BYTE   KEYSH   FF3BossThemeRandomWizard_key+0
Label_6_01341174:
 BYTE   VOICE   2
 BYTE   N02  Cn1  v127
 BYTE   N02  Gs1
 BYTE   N02  Cs2
 BYTE   W12
 BYTE   Gs1
 BYTE   W06
 BYTE   N02
 BYTE   W06
 BYTE   Cn1
 BYTE   N02  Gs1
 BYTE   W12
 BYTE   N02
 BYTE   W06
 BYTE   N02
 BYTE   W06
 BYTE   Cn1
 BYTE   N02  Gs1
 BYTE   W12
 BYTE   As1
 BYTE   W12
 BYTE   Cn1
 BYTE   N02  Gs1
 BYTE   W12
 BYTE   N02
 BYTE   W06
 BYTE   N02
 BYTE   W06
// 001   ----------------------------------------
 BYTE   Cn1
 BYTE   N02  Gs1
 BYTE   W12
 BYTE   N02
 BYTE   W12
 BYTE   Cn1
 BYTE   N02  Gs1
 BYTE   W12
 BYTE   N02
 BYTE   W06
 BYTE   N02
 BYTE   W06
 BYTE   Cn1
 BYTE   N02  Gs1
 BYTE   W12
 BYTE   As1
 BYTE   W12
 BYTE   Cn1
 BYTE   N02  Gs1
 BYTE   W06
 BYTE   N02
 BYTE   W06
 BYTE   N02
 BYTE   W06
 BYTE   N02
 BYTE   W06
// 002   ----------------------------------------
 BYTE   Cn1
 BYTE   N02  Gs1
 BYTE   N02  Cs2
 BYTE   W12
 BYTE   Gs1
 BYTE   W06
 BYTE   N02
 BYTE   W06
 BYTE   Cn1
 BYTE   N02  Gs1
 BYTE   W12
 BYTE   N02
 BYTE   W06
 BYTE   N02
 BYTE   W06
 BYTE   Cn1
 BYTE   N02  Gs1
 BYTE   W12
 BYTE   As1
 BYTE   W12
 BYTE   Cn1
 BYTE   N02  Gs1
 BYTE   W12
 BYTE   N02
 BYTE   W06
 BYTE   N02
 BYTE   W06
// 003   ----------------------------------------
 BYTE   Cn1
 BYTE   N02  Gs1
 BYTE   W12
 BYTE   N02
 BYTE   W12
 BYTE   Cn1
 BYTE   N02  Gs1
 BYTE   W12
 BYTE   N02
 BYTE   W06
 BYTE   N02
 BYTE   W06
 BYTE   Cn1
 BYTE   N02  Gs1
 BYTE   W12
 BYTE   As1
 BYTE   W12
 BYTE   Cn1
 BYTE   N02  Gs1
 BYTE   W06
 BYTE   N02
 BYTE   W06
 BYTE   Dn1
 BYTE   N02  Gs1
 BYTE   W06
 BYTE   Dn1
 BYTE   N02  Gs1
 BYTE   W06
// 004   ----------------------------------------
 BYTE   Cn1
 BYTE   N02  Cs2
 BYTE   W12
 BYTE   Gs1
 BYTE   W06
 BYTE   N02
 BYTE   W06
 BYTE   Cn1
 BYTE   N02  Gs1
 BYTE   W12
 BYTE   N02
 BYTE   W06
 BYTE   N02
 BYTE   W06
 BYTE   Cn1
 BYTE   N02  Gs1
 BYTE   W12
 BYTE   As1
 BYTE   W12
 BYTE   Cn1
 BYTE   N02  Gs1
 BYTE   W12
 BYTE   N02
 BYTE   W06
 BYTE   N02
 BYTE   W06
// 005   ----------------------------------------
 BYTE   Cn1
 BYTE   N02  Gs1
 BYTE   W12
 BYTE   N02
 BYTE   W06
 BYTE   N02
 BYTE   W06
 BYTE   Cn1
 BYTE   N02  Gs1
 BYTE   W12
 BYTE   N02
 BYTE   W06
 BYTE   N02
 BYTE   W06
 BYTE   Cn1
 BYTE   N02  Gs1
 BYTE   W12
 BYTE   As1
 BYTE   W12
 BYTE   Cn1
 BYTE   N02  Gs1
 BYTE   W12
 BYTE   Ds1
 BYTE   N02  Gs1
 BYTE   W06
 BYTE   Ds1
 BYTE   N02  Gs1
 BYTE   W06
// 006   ----------------------------------------
 BYTE   Cn1
 BYTE   N02  Cs2
 BYTE   W12
 BYTE   Gs1
 BYTE   W06
 BYTE   N02
 BYTE   W06
 BYTE   Cn1
 BYTE   N02  As1
 BYTE   W12
 BYTE   Gs1
 BYTE   W06
 BYTE   N02
 BYTE   W06
 BYTE   Cn1
 BYTE   N02  Gs1
 BYTE   W12
 BYTE   N02
 BYTE   W06
 BYTE   N02
 BYTE   W06
 BYTE   Cn1
 BYTE   N02  Gs1
 BYTE   W12
 BYTE   As1
 BYTE   W06
 BYTE   Gs1
 BYTE   W06
// 007   ----------------------------------------
 BYTE   Cn1
 BYTE   N02  Gs1
 BYTE   W12
 BYTE   N02
 BYTE   W06
 BYTE   N02
 BYTE   W06
 BYTE   Cn1
 BYTE   N02  Gs1
 BYTE   W12
 BYTE   As1
 BYTE   W06
 BYTE   Gs1
 BYTE   W06
 BYTE   Cn1
 BYTE   N02  Gs1
 BYTE   W12
 BYTE   Dn1
 BYTE   N02  Gs1
 BYTE   W06
 BYTE   Dn1
 BYTE   N02  Gs1
 BYTE   W06
 BYTE   Cn1
 BYTE   N02  As1
 BYTE   W06
 BYTE   Dn1
 BYTE   W06
 BYTE   N02
 BYTE   N02  Gs1
 BYTE   W06
 BYTE   Dn1
 BYTE   N02  Gs1
 BYTE   W06
// 008   ----------------------------------------
 BYTE   Cn1
 BYTE   N02  Gs1
 BYTE   N02  Cs2
 BYTE   W24
 BYTE   Cn1
 BYTE   N02  Gs1
 BYTE   W12
 BYTE   N02
 BYTE   W12
 BYTE   Cn1
 BYTE   N02  Gs1
 BYTE   W24
 BYTE   Cn1
 BYTE   N02  Gs1
 BYTE   N02  As1
 BYTE   W24
// 009   ----------------------------------------
 BYTE   Cn1
 BYTE   N02  Gs1
 BYTE   W24
 BYTE   Cn1
 BYTE   N02  Gs1
 BYTE   W24
 BYTE   Cn1
 BYTE   N02  Gs1
 BYTE   W24
 BYTE   Cn1
 BYTE   N02  As1
 BYTE   W24
// 010   ----------------------------------------
 BYTE   Cn1
 BYTE   N02  Gs1
 BYTE   N02  Cs2
 BYTE   W24
 BYTE   Cn1
 BYTE   N02  Gs1
 BYTE   W24
 BYTE   Cn1
 BYTE   N02  Gs1
 BYTE   W24
 BYTE   Cn1
 BYTE   N02  As1
 BYTE   W24
// 011   ----------------------------------------
 BYTE   Cn1
 BYTE   N02  Gs1
 BYTE   N02  Cs2
 BYTE   W24
 BYTE   Cn1
 BYTE   N02  Gs1
 BYTE   W24
 BYTE   Cn1
 BYTE   N02  Gs1
 BYTE   W12
 BYTE   Cn2
 BYTE   W06
 BYTE   N02
 BYTE   W06
 BYTE   An1
 BYTE   W06
 BYTE   N02
 BYTE   W06
 BYTE   Gn1
 BYTE   W06
 BYTE   N02
 BYTE   W06
// 012   ----------------------------------------
 BYTE   Cn1
 BYTE   W24
 BYTE   Dn1
 BYTE   W12
 BYTE   N02
 BYTE   W12
 BYTE   Cn1
 BYTE   W24
 BYTE   Dn1
 BYTE   W24
// 013   ----------------------------------------
 BYTE   Cn1
 BYTE   W24
 BYTE   Dn1
 BYTE   W24
 BYTE   Cn1
 BYTE   W24
 BYTE   Dn1
 BYTE   W12
 BYTE   N02
 BYTE   W12
// 014   ----------------------------------------
 BYTE   Cn1
 BYTE   N02  Cs2
 BYTE   W24
 BYTE   Dn1
 BYTE   W12
 BYTE   N02
 BYTE   W12
 BYTE   Cn1
 BYTE   W24
 BYTE   Dn1
 BYTE   W24
// 015   ----------------------------------------
 BYTE   Cn1
 BYTE   W24
 BYTE   Dn1
 BYTE   W24
 BYTE   Cn1
 BYTE   W06
 BYTE   Dn1
 BYTE   W06
 BYTE   N02
 BYTE   W12
 BYTE   N02
 BYTE   W12
 BYTE   N02
 BYTE   W06
 BYTE   N02
 BYTE   W06
// 016   ----------------------------------------
Label_6_01341304:
 BYTE   N02  Cn1  v127
 BYTE   N02  Gs1
 BYTE   N02  Cs2
 BYTE   W12
 BYTE   Gs1
 BYTE   W06
 BYTE   N02
 BYTE   W06
 BYTE   Dn1
 BYTE   N02  As1
 BYTE   W12
 BYTE   Gs1
 BYTE   W06
 BYTE   N02
 BYTE   W06
 BYTE   Cn1
 BYTE   N02  Gs1
 BYTE   W12
 BYTE   Cn1
 BYTE   N02  Gs1
 BYTE   W06
 BYTE   N02
 BYTE   W06
 BYTE   Dn1
 BYTE   N02  Gs1
 BYTE   W06
 BYTE   As1
 BYTE   W06
 BYTE   Gs1
 BYTE   W06
 BYTE   N02
 BYTE   W06
 BYTE   PEND 
// 017   ----------------------------------------
Label_6_0134132D:
 BYTE   N02  Cn1  v127
 BYTE   N02  Gs1
 BYTE   W12
 BYTE   N02
 BYTE   W06
 BYTE   N02
 BYTE   W06
 BYTE   Dn1
 BYTE   N02  Gs1
 BYTE   W12
 BYTE   N02
 BYTE   W06
 BYTE   N02
 BYTE   W06
 BYTE   Cn1
 BYTE   N02  Gs1
 BYTE   W12
 BYTE   N02
 BYTE   W06
 BYTE   N02
 BYTE   W06
 BYTE   Dn1
 BYTE   N02  As1
 BYTE   W12
 BYTE   Cn1
 BYTE   N02  Gs1
 BYTE   W06
 BYTE   N02
 BYTE   W06
 BYTE   PEND 
 BYTE   PATT
  POIN2 Label_6_0134132D
// 018   ----------------------------------------
Label_6_01341357:
 BYTE   N02  Cn1  v127
 BYTE   N02  Gs1
 BYTE   W12
 BYTE   N02
 BYTE   W06
 BYTE   N02
 BYTE   W06
 BYTE   Dn1
 BYTE   N02  As1
 BYTE   W12
 BYTE   Gs1
 BYTE   W06
 BYTE   N02
 BYTE   W06
 BYTE   Cn1
 BYTE   N02  Gs1
 BYTE   W12
 BYTE   Dn1
 BYTE   N02  Gs1
 BYTE   W06
 BYTE   Ds1
 BYTE   N02  Gs1
 BYTE   W06
 BYTE   Cn1
 BYTE   N02  As1
 BYTE   W12
 BYTE   Dn1
 BYTE   N02  Gs1
 BYTE   W06
 BYTE   Dn1
 BYTE   N02  Gs1
 BYTE   W06
 BYTE   PEND 
 BYTE   PATT
  POIN2 Label_6_01341304
// 019   ----------------------------------------
Label_6_01341387:
 BYTE   N02  Cn1  v127
 BYTE   N02  Gs1
 BYTE   W12
 BYTE   N02
 BYTE   W06
 BYTE   N02
 BYTE   W06
 BYTE   Dn1
 BYTE   N02  As1
 BYTE   W12
 BYTE   Gs1
 BYTE   W06
 BYTE   N02
 BYTE   W06
 BYTE   Cn1
 BYTE   N02  Gs1
 BYTE   W12
 BYTE   Cn1
 BYTE   N02  Gs1
 BYTE   W06
 BYTE   N02
 BYTE   W06
 BYTE   Dn1
 BYTE   N02  Gs1
 BYTE   W06
 BYTE   As1
 BYTE   W06
 BYTE   Gs1
 BYTE   W06
 BYTE   N02
 BYTE   W06
 BYTE   PEND 
 BYTE   PATT
  POIN2 Label_6_01341304
// 020   ----------------------------------------
Label_6_013413B3:
 BYTE   N02  Cn1  v127
 BYTE   N02  Gs1
 BYTE   N02  Cs2
 BYTE   W12
 BYTE   Gs1
 BYTE   W06
 BYTE   N02
 BYTE   W06
 BYTE   Dn1
 BYTE   N02  As1
 BYTE   W12
 BYTE   Gs1
 BYTE   W06
 BYTE   N02
 BYTE   W06
 BYTE   Cn1
 BYTE   N02  Gs1
 BYTE   W12
 BYTE   Cn1
 BYTE   N02  Gs1
 BYTE   W06
 BYTE   N02
 BYTE   W06
 BYTE   Dn1
 BYTE   N02  Gs1
 BYTE   W06
 BYTE   Dn1
 BYTE   N02  As1
 BYTE   W06
 BYTE   Dn1
 BYTE   N02  Gs1
 BYTE   W06
 BYTE   Dn1
 BYTE   N02  Gs1
 BYTE   W06
 BYTE   PEND 
 BYTE   PATT
  POIN2 Label_6_01341304
 BYTE   PATT
  POIN2 Label_6_0134132D
 BYTE   PATT
  POIN2 Label_6_0134132D
 BYTE   PATT
  POIN2 Label_6_01341357
 BYTE   PATT
  POIN2 Label_6_01341304
 BYTE   PATT
  POIN2 Label_6_01341387
 BYTE   PATT
  POIN2 Label_6_01341304
 BYTE   PATT
  POIN2 Label_6_013413B3
// 021   ----------------------------------------
 BYTE   GoTo
  POIN2 Label_6_01341174
 BYTE   FINE

//******************************************************//
	ALIGN 4

FF3BossThemeRandomWizard:
	BYTE	7	// NumTrks
	BYTE	0	// NumBlks
	BYTE	FF3BossThemeRandomWizard_pri	// Priority
	BYTE	FF3BossThemeRandomWizard_rev	// Reverb.
    
	POIN2	FF3BossThemeRandomWizard_grp
    
	POIN2	FF3BossThemeRandomWizard_001
	POIN2	FF3BossThemeRandomWizard_002
	POIN2	FF3BossThemeRandomWizard_003
	POIN2	FF3BossThemeRandomWizard_004
	POIN2	FF3BossThemeRandomWizard_005
	POIN2	FF3BossThemeRandomWizard_006
	POIN2	FF3BossThemeRandomWizard_007

	
