//Event file generated from Sappy .s format.
	#include "MPlayDef.event"

	#define	FF5MyHomeSweetHomeMeatOfJustice_grp  voicegroup000
	#define	FF5MyHomeSweetHomeMeatOfJustice_pri  10
	#define	FF5MyHomeSweetHomeMeatOfJustice_rev  0
	#define	FF5MyHomeSweetHomeMeatOfJustice_mvl  127
	#define	FF5MyHomeSweetHomeMeatOfJustice_key  0
	#define	FF5MyHomeSweetHomeMeatOfJustice_tbs  1
	#define	FF5MyHomeSweetHomeMeatOfJustice_exg  0
	#define	FF5MyHomeSweetHomeMeatOfJustice_cmp  1

	// .rodata
	//	FF5MyHomeSweetHomeMeatOfJustice
	ALIGN 4


//**************** Track 1 (Midi-Chn.0) ****************//

FF5MyHomeSweetHomeMeatOfJustice_001:
// 000   ----------------------------------------
Label_0_0164AA54:
 BYTE   KEYSH   FF5MyHomeSweetHomeMeatOfJustice_key+0
 BYTE   VOICE   46
 BYTE   VOL   80*FF5MyHomeSweetHomeMeatOfJustice_mvl/mxv
 BYTE   PAN   c_v-44
 BYTE   N72  Bn2  v100
 BYTE   TEMPO   122*FF5MyHomeSweetHomeMeatOfJustice_tbs/2
 BYTE   W72
 BYTE   N24  An2  v100
 BYTE   W24
// 001   ----------------------------------------
Label_0_0164AA66:
 BYTE   N24  En3  v100
 BYTE   W24
 BYTE   Cs3
 BYTE   W24
 BYTE   N48  Gn2
 BYTE   W48
 BYTE   PEND 
// 002   ----------------------------------------
Label_0_0164AA70:
 BYTE   N24  An2  v100
 BYTE   W24
 BYTE   N72  Bn2
 BYTE   W72
 BYTE   PEND 
// 003   ----------------------------------------
 BYTE   N72  Bn2  v100
 BYTE   W72
 BYTE   N24  An2
 BYTE   W24
 BYTE   PATT
  POIN2 Label_0_0164AA66
 BYTE   PATT
  POIN2 Label_0_0164AA70
// 004   ----------------------------------------
Label_0_0164AA89:
 BYTE   N72  Bn1  v100
 BYTE   W72
 BYTE   En2
 BYTE   W72
 BYTE   PEND 
// 005   ----------------------------------------
Label_0_0164AA90:
 BYTE   N24  Dn2  v100
 BYTE   W24
 BYTE   Bn1
 BYTE   W24
 BYTE   An1
 BYTE   W24
 BYTE   Gn1
 BYTE   W24
 BYTE   PEND 
// 006   ----------------------------------------
Label_0_0164AA9B:
 BYTE   N09  Gn1  v100
 BYTE   W12
 BYTE   An1
 BYTE   W12
 BYTE   Bn1
 BYTE   W12
 BYTE   Cs2
 BYTE   W12
 BYTE   N72  Dn2
 BYTE   W72
 BYTE   PEND 
// 007   ----------------------------------------
Label_0_0164AAA9:
 BYTE   N72  En2  v100
 BYTE   W72
 BYTE   N24  Dn2
 BYTE   W24
 BYTE   PEND 
// 008   ----------------------------------------
Label_0_0164AAB1:
 BYTE   N24  En2  v100
 BYTE   W24
 BYTE   Fs2
 BYTE   W24
 BYTE   Gn2
 BYTE   W24
 BYTE   N09  Dn2
 BYTE   W12
 BYTE   Cs2
 BYTE   W12
 BYTE   PEND 
// 009   ----------------------------------------
Label_0_0164AABF:
 BYTE   N09  Bn1  v100
 BYTE   W12
 BYTE   An1
 BYTE   W12
 BYTE   N48  Bn1
 BYTE   W48
 BYTE   N24  Bn2
 BYTE   W24
 BYTE   PEND 
// 010   ----------------------------------------
Label_0_0164AACC:
 BYTE   N24  An2  v100
 BYTE   W24
 BYTE   N48  An1
 BYTE   W48
 BYTE   N24  Gn1
 BYTE   W24
 BYTE   PEND 
// 011   ----------------------------------------
Label_0_0164AAD7:
 BYTE   N24  Gn2  v100
 BYTE   W24
 BYTE   Fs2
 BYTE   W24
 BYTE   N72  En2
 BYTE   W72
 BYTE   PEND 
 BYTE   PATT
  POIN2 Label_0_0164AA89
// 012   ----------------------------------------
 BYTE   N24  Dn2  v100
 BYTE   W24
 BYTE   En2
 BYTE   W24
 BYTE   Fs2
 BYTE   W24
 BYTE   N72  Gn2
 BYTE   W96
// 013   ----------------------------------------
 BYTE   W96
// 014   ----------------------------------------
 BYTE   W96
// 015   ----------------------------------------
 BYTE   W24
 BYTE   N12  Cs4
 BYTE   W12
 BYTE   Bn3
 BYTE   W12
 BYTE   An3
 BYTE   W12
 BYTE   En3
 BYTE   W96
// 016   ----------------------------------------
 BYTE   W60
 BYTE   Fs3
 BYTE   W12
 BYTE   Gn3
 BYTE   W12
 BYTE   An3
 BYTE   W12
// 017   ----------------------------------------
 BYTE   As3
 BYTE   W12
 BYTE   Bn3
 BYTE   W12
 BYTE   Cs4
 BYTE   W12
 BYTE   N24  Dn4
 BYTE   W72
 BYTE   PATT
  POIN2 Label_0_0164AA89
 BYTE   PATT
  POIN2 Label_0_0164AA90
 BYTE   PATT
  POIN2 Label_0_0164AA9B
 BYTE   PATT
  POIN2 Label_0_0164AAA9
 BYTE   PATT
  POIN2 Label_0_0164AAB1
 BYTE   PATT
  POIN2 Label_0_0164AABF
 BYTE   PATT
  POIN2 Label_0_0164AACC
 BYTE   PATT
  POIN2 Label_0_0164AAD7
 BYTE   PATT
  POIN2 Label_0_0164AA89
// 018   ----------------------------------------
 BYTE   N24  Dn2  v100
 BYTE   W24
 BYTE   En2
 BYTE   W24
 BYTE   Fs2
 BYTE   W24
 BYTE   N72  Gn2
 BYTE   W72
// 019   ----------------------------------------
 BYTE   N72  Bn2  v100
 BYTE   W72
 BYTE   N24  An2
 BYTE   W24
// 020   ----------------------------------------
 BYTE   En3
 BYTE   W24
 BYTE   Cs3
 BYTE   W24
 BYTE   N48  Gn2
 BYTE   W48
// 021   ----------------------------------------
 BYTE   N24  An2
 BYTE   W24
 BYTE   N72  Bn2
 BYTE   W72
// 022   ----------------------------------------
 BYTE   Bn2
 BYTE   W72
 BYTE   N24  An2
 BYTE   W24
// 023   ----------------------------------------
 BYTE   En3
 BYTE   W24
 BYTE   Cs3
 BYTE   W24
 BYTE   N48  Gn2
 BYTE   W48
// 024   ----------------------------------------
 BYTE   N24  An2
 BYTE   W24
 BYTE   N72  Bn2
 BYTE   W72
// 025   ----------------------------------------
 BYTE   Bn1
 BYTE   W72
 BYTE   En2
 BYTE   W72
// 026   ----------------------------------------
 BYTE   N24  Dn2
 BYTE   W24
 BYTE   Bn1
 BYTE   W24
 BYTE   An1
 BYTE   W24
 BYTE   Gn1
 BYTE   W24
// 027   ----------------------------------------
 BYTE   N09
 BYTE   W12
 BYTE   An1
 BYTE   W12
 BYTE   Bn1
 BYTE   W12
 BYTE   Cs2
 BYTE   W12
 BYTE   N72  Dn2
 BYTE   W72
// 028   ----------------------------------------
 BYTE   En2
 BYTE   W72
 BYTE   N24  Dn2
 BYTE   W24
// 029   ----------------------------------------
 BYTE   En2
 BYTE   W24
 BYTE   Fs2
 BYTE   W24
 BYTE   Gn2
 BYTE   W24
 BYTE   N09  Dn2
 BYTE   W12
 BYTE   Cs2
 BYTE   W12
// 030   ----------------------------------------
 BYTE   Bn1
 BYTE   W12
 BYTE   An1
 BYTE   W12
 BYTE   N48  Bn1
 BYTE   W48
 BYTE   N24  Bn2
 BYTE   W24
// 031   ----------------------------------------
 BYTE   An2
 BYTE   W24
 BYTE   N48  An1
 BYTE   W48
 BYTE   N24  Gn1
 BYTE   W24
// 032   ----------------------------------------
 BYTE   Gn2
 BYTE   W24
 BYTE   Fs2
 BYTE   W24
 BYTE   N72  En2
 BYTE   W72
// 033   ----------------------------------------
 BYTE   Bn1
 BYTE   W72
 BYTE   En2
 BYTE   W72
// 034   ----------------------------------------
 BYTE   N24  Dn2
 BYTE   W24
 BYTE   En2
 BYTE   W24
 BYTE   Fs2
 BYTE   W24
 BYTE   N72  Gn2
 BYTE   W96
// 035   ----------------------------------------
 BYTE   W96
// 036   ----------------------------------------
 BYTE   W96
// 037   ----------------------------------------
 BYTE   W24
 BYTE   N12  Cs4
 BYTE   W12
 BYTE   Bn3
 BYTE   W12
 BYTE   An3
 BYTE   W12
 BYTE   En3
 BYTE   W96
// 038   ----------------------------------------
 BYTE   W60
 BYTE   Fs3
 BYTE   W12
 BYTE   Gn3
 BYTE   W12
 BYTE   An3
 BYTE   W12
// 039   ----------------------------------------
 BYTE   As3
 BYTE   W12
 BYTE   Bn3
 BYTE   W12
 BYTE   Cs4
 BYTE   W12
 BYTE   N24  Dn4
 BYTE   W72
// 040   ----------------------------------------
 BYTE   N72  Bn1
 BYTE   W72
 BYTE   En2
 BYTE   W72
// 041   ----------------------------------------
 BYTE   N24  Dn2
 BYTE   W24
 BYTE   Bn1
 BYTE   W24
 BYTE   An1
 BYTE   W24
 BYTE   Gn1
 BYTE   W24
// 042   ----------------------------------------
 BYTE   N09
 BYTE   W12
 BYTE   An1
 BYTE   W12
 BYTE   Bn1
 BYTE   W12
 BYTE   Cs2
 BYTE   W12
 BYTE   N72  Dn2
 BYTE   W72
// 043   ----------------------------------------
 BYTE   En2
 BYTE   W72
 BYTE   N24  Dn2
 BYTE   W24
// 044   ----------------------------------------
 BYTE   En2
 BYTE   W24
 BYTE   Fs2
 BYTE   W24
 BYTE   Gn2
 BYTE   W24
 BYTE   N09  Dn2
 BYTE   W12
 BYTE   Cs2
 BYTE   W12
// 045   ----------------------------------------
 BYTE   Bn1
 BYTE   W12
 BYTE   An1
 BYTE   W12
 BYTE   N48  Bn1
 BYTE   W48
 BYTE   N24  Bn2
 BYTE   W24
// 046   ----------------------------------------
 BYTE   An2
 BYTE   W24
 BYTE   N48  An1
 BYTE   W48
 BYTE   N24  Gn1
 BYTE   W24
// 047   ----------------------------------------
 BYTE   Gn2
 BYTE   W24
 BYTE   Fs2
 BYTE   W24
 BYTE   N72  En2
 BYTE   W72
// 048   ----------------------------------------
 BYTE   Bn1
 BYTE   W72
 BYTE   En2
 BYTE   W72
// 049   ----------------------------------------
 BYTE   N24  Dn2
 BYTE   W24
 BYTE   N24  En2  v100
 BYTE   W24
 BYTE   Fs2
 BYTE   W24
 BYTE   N72  Gn2
 BYTE   GoTo
  POIN2 Label_0_0164AA54
 BYTE   FINE

//**************** Track 2 (Midi-Chn.1) ****************//

FF5MyHomeSweetHomeMeatOfJustice_002:
// 000   ----------------------------------------
Label_1_0164AC30:
 BYTE   KEYSH   FF5MyHomeSweetHomeMeatOfJustice_key+0
 BYTE   VOICE   1
 BYTE   VOL   80*FF5MyHomeSweetHomeMeatOfJustice_mvl/mxv
 BYTE   PAN   c_v+36
 BYTE   N24  Bn3  v100
 BYTE   TEMPO   122*FF5MyHomeSweetHomeMeatOfJustice_tbs/2
 BYTE   W24
 BYTE   N24  Fs4  v100
 BYTE   N24  Cs4
 BYTE   W24
 BYTE   Fs4
 BYTE   N24  Dn4
 BYTE   W24
 BYTE   N12  An4
 BYTE   N24  En4
 BYTE   W12
 BYTE   N12  Gs4
 BYTE   W12
// 001   ----------------------------------------
Label_1_0164AC50:
 BYTE   N12  Fs4  v100
 BYTE   N24  Cs4
 BYTE   W12
 BYTE   N12  En4
 BYTE   W12
 BYTE   Fs4
 BYTE   N24  An3
 BYTE   W12
 BYTE   N12  Gs4
 BYTE   W12
 BYTE   N24  Fs4
 BYTE   N24  Bn3
 BYTE   W24
 BYTE   Bn3
 BYTE   W24
 BYTE   PEND 
// 002   ----------------------------------------
Label_1_0164AC68:
 BYTE   N24  En3  v100
 BYTE   N24  An3
 BYTE   W24
 BYTE   N72  En3
 BYTE   N72  Bn3
 BYTE   W72
 BYTE   PEND 
// 003   ----------------------------------------
Label_1_0164AC74:
 BYTE   N24  Bn3  v100
 BYTE   W24
 BYTE   Cs4
 BYTE   N24  Fs4
 BYTE   W24
 BYTE   Dn4
 BYTE   N24  Fs4
 BYTE   W24
 BYTE   N12  An4
 BYTE   N24  En4
 BYTE   W12
 BYTE   N12  Gs4
 BYTE   W12
 BYTE   PEND 
// 004   ----------------------------------------
Label_1_0164AC89:
 BYTE   N12  Fs4  v100
 BYTE   N24  Cs4
 BYTE   W12
 BYTE   N12  En4
 BYTE   W12
 BYTE   Fs4
 BYTE   N24  An3
 BYTE   W12
 BYTE   N12  Gs4
 BYTE   W12
 BYTE   N24  Bn3
 BYTE   N24  Fs4
 BYTE   W24
 BYTE   Dn4
 BYTE   N24  Bn4
 BYTE   W24
 BYTE   PEND 
// 005   ----------------------------------------
Label_1_0164ACA3:
 BYTE   N24  Cs4  v100
 BYTE   N24  An4
 BYTE   W24
 BYTE   N72  Dn4
 BYTE   N72  Bn4
 BYTE   W72
 BYTE   PEND 
// 006   ----------------------------------------
Label_1_0164ACAF:
 BYTE   N24  Bn3  v100
 BYTE   W24
 BYTE   Cs4
 BYTE   W24
 BYTE   Dn4
 BYTE   W24
 BYTE   N48  En4
 BYTE   W72
 BYTE   PEND 
// 007   ----------------------------------------
Label_1_0164ACBB:
 BYTE   N24  Bn3  v100
 BYTE   N24  Dn4
 BYTE   W24
 BYTE   Bn3
 BYTE   N24  Dn4
 BYTE   W24
 BYTE   Cs4
 BYTE   N24  An3
 BYTE   W24
 BYTE   N72  Bn3
 BYTE   N72  Gn3
 BYTE   W72
 BYTE   PEND 
 BYTE   PATT
  POIN2 Label_1_0164ACAF
// 008   ----------------------------------------
Label_1_0164ACD4:
 BYTE   N24  Bn3  v100
 BYTE   N24  Dn4
 BYTE   W24
 BYTE   Bn3
 BYTE   N24  Dn4
 BYTE   W24
 BYTE   Cs4
 BYTE   N24  An3
 BYTE   W24
 BYTE   N72  Gn3
 BYTE   N72  Dn4
 BYTE   W72
 BYTE   PEND 
// 009   ----------------------------------------
Label_1_0164ACE8:
 BYTE   N12  Bn3  v100
 BYTE   W12
 BYTE   An3
 BYTE   W12
 BYTE   Bn3
 BYTE   W12
 BYTE   Cs4
 BYTE   W12
 BYTE   Dn4
 BYTE   W12
 BYTE   Fs4
 BYTE   W12
 BYTE   N24  En4
 BYTE   W24
 BYTE   PEND 
// 010   ----------------------------------------
Label_1_0164ACFA:
 BYTE   N12  En4  v100
 BYTE   W12
 BYTE   Dn4
 BYTE   W12
 BYTE   Cs4
 BYTE   W12
 BYTE   An3
 BYTE   W12
 BYTE   N24  Dn4
 BYTE   W24
 BYTE   Gn3
 BYTE   N24  Dn4
 BYTE   W24
 BYTE   PEND 
// 011   ----------------------------------------
Label_1_0164AD0C:
 BYTE   N24  Fs3  v100
 BYTE   N24  Cs4
 BYTE   W24
 BYTE   En3
 BYTE   N24  Bn3
 BYTE   W72
 BYTE   PEND 
 BYTE   PATT
  POIN2 Label_1_0164ACAF
 BYTE   PATT
  POIN2 Label_1_0164ACD4
// 012   ----------------------------------------
Label_1_0164AD21:
 BYTE   N24  Bn1  v100
 BYTE   W24
 BYTE   N12
 BYTE   W12
 BYTE   Cs2
 BYTE   W12
 BYTE   Dn2
 BYTE   W12
 BYTE   Fs2
 BYTE   W12
 BYTE   En2
 BYTE   W12
 BYTE   Dn2
 BYTE   W12
 BYTE   PEND 
// 013   ----------------------------------------
Label_1_0164AD32:
 BYTE   N12  Cs2  v100
 BYTE   W12
 BYTE   Dn2
 BYTE   W12
 BYTE   N24  En2
 BYTE   W24
 BYTE   Dn2
 BYTE   W24
 BYTE   Cs2
 BYTE   W24
 BYTE   PEND 
// 014   ----------------------------------------
Label_1_0164AD40:
 BYTE   N24  Bn1  v100
 BYTE   W24
 BYTE   N72  Cs2
 BYTE   W72
 BYTE   PEND 
 BYTE   PATT
  POIN2 Label_1_0164AD21
// 015   ----------------------------------------
Label_1_0164AD4D:
 BYTE   N12  Cs2  v100
 BYTE   W12
 BYTE   Dn2
 BYTE   W12
 BYTE   N24  En2
 BYTE   W24
 BYTE   Bn1
 BYTE   W24
 BYTE   Gn2
 BYTE   W24
 BYTE   PEND 
// 016   ----------------------------------------
Label_1_0164AD5B:
 BYTE   N24  Fs2  v100
 BYTE   W24
 BYTE   Gn2
 BYTE   W72
 BYTE   PEND 
 BYTE   PATT
  POIN2 Label_1_0164ACAF
// 017   ----------------------------------------
Label_1_0164AD67:
 BYTE   N24  Bn3  v100
 BYTE   N24  Dn4
 BYTE   W24
 BYTE   Bn3
 BYTE   N24  Dn4
 BYTE   W24
 BYTE   An3
 BYTE   N24  Cs4
 BYTE   W24
 BYTE   N72  Bn3
 BYTE   N72  Gn3
 BYTE   W72
 BYTE   PEND 
 BYTE   PATT
  POIN2 Label_1_0164ACAF
// 018   ----------------------------------------
Label_1_0164AD80:
 BYTE   N24  Dn4  v100
 BYTE   N24  Bn3
 BYTE   W24
 BYTE   Bn3
 BYTE   N24  Dn4
 BYTE   W24
 BYTE   Cs4
 BYTE   N24  An3
 BYTE   W24
 BYTE   N72  Gn3
 BYTE   N72  Dn4
 BYTE   W72
 BYTE   PEND 
 BYTE   PATT
  POIN2 Label_1_0164ACE8
 BYTE   PATT
  POIN2 Label_1_0164ACFA
// 019   ----------------------------------------
Label_1_0164AD9E:
 BYTE   N24  Cs4  v100
 BYTE   N24  Fs3
 BYTE   W24
 BYTE   Bn3
 BYTE   N24  En3
 BYTE   W72
 BYTE   PEND 
 BYTE   PATT
  POIN2 Label_1_0164ACAF
 BYTE   PATT
  POIN2 Label_1_0164ACD4
// 020   ----------------------------------------
 BYTE   N24  Bn3  v100
 BYTE   W24
 BYTE   Fs4
 BYTE   N24  Cs4
 BYTE   W24
 BYTE   Fs4
 BYTE   N24  Dn4
 BYTE   W24
 BYTE   N12  An4
 BYTE   N24  En4
 BYTE   W12
 BYTE   N12  Gs4
 BYTE   W12
 BYTE   PATT
  POIN2 Label_1_0164AC50
 BYTE   PATT
  POIN2 Label_1_0164AC68
 BYTE   PATT
  POIN2 Label_1_0164AC74
 BYTE   PATT
  POIN2 Label_1_0164AC89
 BYTE   PATT
  POIN2 Label_1_0164ACA3
 BYTE   PATT
  POIN2 Label_1_0164ACAF
 BYTE   PATT
  POIN2 Label_1_0164ACBB
 BYTE   PATT
  POIN2 Label_1_0164ACAF
 BYTE   PATT
  POIN2 Label_1_0164ACD4
 BYTE   PATT
  POIN2 Label_1_0164ACE8
 BYTE   PATT
  POIN2 Label_1_0164ACFA
 BYTE   PATT
  POIN2 Label_1_0164AD0C
 BYTE   PATT
  POIN2 Label_1_0164ACAF
 BYTE   PATT
  POIN2 Label_1_0164ACD4
 BYTE   PATT
  POIN2 Label_1_0164AD21
 BYTE   PATT
  POIN2 Label_1_0164AD32
 BYTE   PATT
  POIN2 Label_1_0164AD40
 BYTE   PATT
  POIN2 Label_1_0164AD21
 BYTE   PATT
  POIN2 Label_1_0164AD4D
 BYTE   PATT
  POIN2 Label_1_0164AD5B
 BYTE   PATT
  POIN2 Label_1_0164ACAF
 BYTE   PATT
  POIN2 Label_1_0164AD67
 BYTE   PATT
  POIN2 Label_1_0164ACAF
 BYTE   PATT
  POIN2 Label_1_0164AD80
 BYTE   PATT
  POIN2 Label_1_0164ACE8
 BYTE   PATT
  POIN2 Label_1_0164ACFA
 BYTE   PATT
  POIN2 Label_1_0164AD9E
 BYTE   PATT
  POIN2 Label_1_0164ACAF
// 021   ----------------------------------------
 BYTE   N24  Bn3  v100
 BYTE   N24  Dn4
 BYTE   W24
 BYTE   N24  Bn3  v100
 BYTE   N24  Dn4
 BYTE   W24
 BYTE   Cs4
 BYTE   N24  An3
 BYTE   W24
 BYTE   N72  Gn3
 BYTE   N72  Dn4
 BYTE   GoTo
  POIN2 Label_1_0164AC30
 BYTE   FINE

//**************** Track 3 (Midi-Chn.2) ****************//

FF5MyHomeSweetHomeMeatOfJustice_003:
// 000   ----------------------------------------
Label_2_0164AE70:
 BYTE   KEYSH   FF5MyHomeSweetHomeMeatOfJustice_key+0
 BYTE   VOICE   110
 BYTE   VOL   116*FF5MyHomeSweetHomeMeatOfJustice_mvl/mxv
 BYTE   PAN   c_v-4
 BYTE   TEMPO   122*FF5MyHomeSweetHomeMeatOfJustice_tbs/2
 BYTE   W96
// 001   ----------------------------------------
 BYTE   W96
// 002   ----------------------------------------
 BYTE   W96
// 003   ----------------------------------------
 BYTE   W96
// 004   ----------------------------------------
 BYTE   W96
// 005   ----------------------------------------
 BYTE   W96
// 006   ----------------------------------------
Label_2_0164AE80:
 BYTE   N24  Bn3  v100
 BYTE   W24
 BYTE   Fs4
 BYTE   W24
 BYTE   Fs4
 BYTE   W24
 BYTE   An4
 BYTE   W24
 BYTE   PEND 
// 007   ----------------------------------------
Label_2_0164AE8B:
 BYTE   N12  Gs4  v100
 BYTE   W12
 BYTE   Fs4
 BYTE   W12
 BYTE   En4
 BYTE   W12
 BYTE   Gs4
 BYTE   W12
 BYTE   N24  Fs4
 BYTE   W24
 BYTE   Bn3
 BYTE   W24
 BYTE   PEND 
// 008   ----------------------------------------
Label_2_0164AE9B:
 BYTE   N24  An3  v100
 BYTE   W24
 BYTE   N72  Bn3
 BYTE   W72
 BYTE   PEND 
 BYTE   PATT
  POIN2 Label_2_0164AE80
// 009   ----------------------------------------
Label_2_0164AEA8:
 BYTE   N12  Gs4  v100
 BYTE   W12
 BYTE   Fs4
 BYTE   W12
 BYTE   En4
 BYTE   W12
 BYTE   Gs4
 BYTE   W12
 BYTE   N24  Fs4
 BYTE   W24
 BYTE   Bn4
 BYTE   W24
 BYTE   PEND 
// 010   ----------------------------------------
Label_2_0164AEB8:
 BYTE   N24  An4  v100
 BYTE   W24
 BYTE   N72  Bn4
 BYTE   W72
 BYTE   PEND 
// 011   ----------------------------------------
Label_2_0164AEC0:
 BYTE   N24  Bn4  v100
 BYTE   W24
 BYTE   N12
 BYTE   W12
 BYTE   Cs5
 BYTE   W12
 BYTE   An4
 BYTE   W12
 BYTE   Fs4
 BYTE   W12
 BYTE   N24  En4
 BYTE   W24
 BYTE   PEND 
// 012   ----------------------------------------
Label_2_0164AED0:
 BYTE   N24  An4  v100
 BYTE   W24
 BYTE   Gs4
 BYTE   W24
 BYTE   Fs4
 BYTE   W24
 BYTE   Bn3
 BYTE   W24
 BYTE   PEND 
 BYTE   PATT
  POIN2 Label_2_0164AE9B
 BYTE   PATT
  POIN2 Label_2_0164AE80
 BYTE   PATT
  POIN2 Label_2_0164AEA8
// 013   ----------------------------------------
Label_2_0164AEEA:
 BYTE   N24  An4  v100
 BYTE   W24
 BYTE   N72  Bn4
 BYTE   W96
// 014   ----------------------------------------
 BYTE   W96
// 015   ----------------------------------------
 BYTE   W96
// 016   ----------------------------------------
 BYTE   W96
// 017   ----------------------------------------
 BYTE   W96
// 018   ----------------------------------------
 BYTE   W96
// 019   ----------------------------------------
 BYTE   W72
 BYTE   PEND 
 BYTE   PATT
  POIN2 Label_2_0164AE80
 BYTE   PATT
  POIN2 Label_2_0164AE8B
 BYTE   PATT
  POIN2 Label_2_0164AE9B
 BYTE   PATT
  POIN2 Label_2_0164AE80
 BYTE   PATT
  POIN2 Label_2_0164AEA8
 BYTE   PATT
  POIN2 Label_2_0164AEB8
 BYTE   PATT
  POIN2 Label_2_0164AEC0
 BYTE   PATT
  POIN2 Label_2_0164AED0
 BYTE   PATT
  POIN2 Label_2_0164AE9B
 BYTE   PATT
  POIN2 Label_2_0164AE80
 BYTE   PATT
  POIN2 Label_2_0164AEA8
 BYTE   PATT
  POIN2 Label_2_0164AEEA
 BYTE   PATT
  POIN2 Label_2_0164AE80
 BYTE   PATT
  POIN2 Label_2_0164AE8B
 BYTE   PATT
  POIN2 Label_2_0164AE9B
 BYTE   PATT
  POIN2 Label_2_0164AE80
 BYTE   PATT
  POIN2 Label_2_0164AEA8
 BYTE   PATT
  POIN2 Label_2_0164AEB8
 BYTE   PATT
  POIN2 Label_2_0164AEC0
 BYTE   PATT
  POIN2 Label_2_0164AED0
 BYTE   PATT
  POIN2 Label_2_0164AE9B
 BYTE   PATT
  POIN2 Label_2_0164AE80
 BYTE   PATT
  POIN2 Label_2_0164AEA8
 BYTE   PATT
  POIN2 Label_2_0164AEEA
 BYTE   PATT
  POIN2 Label_2_0164AE80
 BYTE   PATT
  POIN2 Label_2_0164AE8B
 BYTE   PATT
  POIN2 Label_2_0164AE9B
 BYTE   PATT
  POIN2 Label_2_0164AE80
 BYTE   PATT
  POIN2 Label_2_0164AEA8
 BYTE   PATT
  POIN2 Label_2_0164AEB8
 BYTE   PATT
  POIN2 Label_2_0164AEC0
 BYTE   PATT
  POIN2 Label_2_0164AED0
 BYTE   PATT
  POIN2 Label_2_0164AE9B
 BYTE   PATT
  POIN2 Label_2_0164AE80
// 020   ----------------------------------------
 BYTE   N12  Gs4  v100
 BYTE   W12
 BYTE   Fs4
 BYTE   W12
 BYTE   En4
 BYTE   W12
 BYTE   Gs4
 BYTE   W12
 BYTE   N24  Fs4
 BYTE   W24
 BYTE   N24  Bn4  v100
 BYTE   W24
 BYTE   PATT
  POIN2 Label_2_0164AEB8
// 021   ----------------------------------------
 BYTE   GoTo
  POIN2 Label_2_0164AE70
 BYTE   FINE

//**************** Track 4 (Midi-Chn.3) ****************//

FF5MyHomeSweetHomeMeatOfJustice_004:
// 000   ----------------------------------------
Label_3_0164AFC0:
 BYTE   KEYSH   FF5MyHomeSweetHomeMeatOfJustice_key+0
 BYTE   VOICE   85
 BYTE   VOL   72*FF5MyHomeSweetHomeMeatOfJustice_mvl/mxv
 BYTE   PAN   c_v+16
 BYTE   TEMPO   122*FF5MyHomeSweetHomeMeatOfJustice_tbs/2
 BYTE   W96
// 001   ----------------------------------------
 BYTE   W96
// 002   ----------------------------------------
 BYTE   W96
// 003   ----------------------------------------
 BYTE   W96
// 004   ----------------------------------------
 BYTE   W96
// 005   ----------------------------------------
 BYTE   W96
// 006   ----------------------------------------
 BYTE   W96
// 007   ----------------------------------------
Label_3_0164AFD1:
 BYTE   N12  Bn3  v100
 BYTE   W12
 BYTE   An3
 BYTE   W12
 BYTE   Gs3
 BYTE   W12
 BYTE   Bn3
 BYTE   W96
// 008   ----------------------------------------
 BYTE   W96
// 009   ----------------------------------------
 BYTE   W60
 BYTE   PEND 
Label_3_0164AFDE:
 BYTE   N12  Bn3  v100
 BYTE   W12
 BYTE   An3
 BYTE   W12
 BYTE   Gs3
 BYTE   W12
// 010   ----------------------------------------
 BYTE   Bn3
 BYTE   W96
// 011   ----------------------------------------
 BYTE   W96
// 012   ----------------------------------------
 BYTE   W96
// 013   ----------------------------------------
 BYTE   W96
// 014   ----------------------------------------
 BYTE   W96
// 015   ----------------------------------------
 BYTE   W60
 BYTE   PEND 
Label_3_0164AFEE:
 BYTE   N12  Bn3  v100
 BYTE   W12
 BYTE   An3
 BYTE   W12
 BYTE   Gs3
 BYTE   W12
// 016   ----------------------------------------
 BYTE   Bn3
 BYTE   W96
// 017   ----------------------------------------
 BYTE   W60
 BYTE   PEND 
Label_3_0164AFFA:
 BYTE   N24  Bn3  v100
 BYTE   W72
// 018   ----------------------------------------
 BYTE   An3
 BYTE   W72
 BYTE   PEND 
Label_3_0164B001:
 BYTE   N24  Fs3  v100
 BYTE   W24
// 019   ----------------------------------------
 BYTE   En3
 BYTE   W24
 BYTE   Dn3
 BYTE   W24
 BYTE   En3
 BYTE   W72
 BYTE   PEND 
// 020   ----------------------------------------
Label_3_0164B00C:
 BYTE   N24  Bn3  v100
 BYTE   W72
 BYTE   An3
 BYTE   W96
// 021   ----------------------------------------
 BYTE   W96
// 022   ----------------------------------------
 BYTE   W96
// 023   ----------------------------------------
 BYTE   W24
 BYTE   PEND 
 BYTE   PATT
  POIN2 Label_3_0164AFD1
 BYTE   PATT
  POIN2 Label_3_0164AFDE
// 024   ----------------------------------------
 BYTE   N12  Bn3  v100
 BYTE   W12
 BYTE   An3
 BYTE   W12
 BYTE   Gs3
 BYTE   W12
 BYTE   Bn3
 BYTE   W96
// 025   ----------------------------------------
 BYTE   W96
// 026   ----------------------------------------
 BYTE   W96
// 027   ----------------------------------------
 BYTE   W96
// 028   ----------------------------------------
 BYTE   W96
// 029   ----------------------------------------
 BYTE   W96
// 030   ----------------------------------------
 BYTE   W96
// 031   ----------------------------------------
 BYTE   W96
// 032   ----------------------------------------
 BYTE   W60
 BYTE   PATT
  POIN2 Label_3_0164AFD1
 BYTE   PATT
  POIN2 Label_3_0164AFDE
 BYTE   PATT
  POIN2 Label_3_0164AFEE
 BYTE   PATT
  POIN2 Label_3_0164AFFA
 BYTE   PATT
  POIN2 Label_3_0164B001
 BYTE   PATT
  POIN2 Label_3_0164B00C
 BYTE   PATT
  POIN2 Label_3_0164AFD1
 BYTE   PATT
  POIN2 Label_3_0164AFDE
// 033   ----------------------------------------
 BYTE   N12  Bn3  v100
 BYTE   W12
 BYTE   An3
 BYTE   W12
 BYTE   Gs3
 BYTE   W12
 BYTE   Bn3
 BYTE   W12
 BYTE   W72
// 034   ----------------------------------------
 BYTE   GoTo
  POIN2 Label_3_0164AFC0
 BYTE   FINE

//**************** Track 5 (Midi-Chn.4) ****************//

FF5MyHomeSweetHomeMeatOfJustice_005:
// 000   ----------------------------------------
Label_4_0164B06C:
 BYTE   KEYSH   FF5MyHomeSweetHomeMeatOfJustice_key+0
 BYTE   VOICE   52
 BYTE   VOL   72*FF5MyHomeSweetHomeMeatOfJustice_mvl/mxv
 BYTE   TEMPO   122*FF5MyHomeSweetHomeMeatOfJustice_tbs/2
 BYTE   W96
// 001   ----------------------------------------
 BYTE   W96
// 002   ----------------------------------------
 BYTE   W96
// 003   ----------------------------------------
 BYTE   W96
// 004   ----------------------------------------
 BYTE   W96
// 005   ----------------------------------------
 BYTE   W96
// 006   ----------------------------------------
 BYTE   W96
// 007   ----------------------------------------
 BYTE   W96
// 008   ----------------------------------------
 BYTE   W96
// 009   ----------------------------------------
 BYTE   W96
// 010   ----------------------------------------
 BYTE   W96
// 011   ----------------------------------------
 BYTE   W96
// 012   ----------------------------------------
 BYTE   W96
// 013   ----------------------------------------
 BYTE   W96
// 014   ----------------------------------------
 BYTE   W96
// 015   ----------------------------------------
 BYTE   W96
// 016   ----------------------------------------
 BYTE   W96
// 017   ----------------------------------------
 BYTE   W96
// 018   ----------------------------------------
 BYTE   W24
Label_4_0164B087:
 BYTE   N21  Dn3  v100
 BYTE   N21  Fs3
 BYTE   W24
 BYTE   Dn3
 BYTE   N21  Fs3
 BYTE   W24
 BYTE   Cs3
 BYTE   N21  En3
 BYTE   W24
// 019   ----------------------------------------
 BYTE   En3
 BYTE   N21  An3
 BYTE   W24
 BYTE   PEND 
Label_4_0164B09A:
 BYTE   N21  En3  v100
 BYTE   N21  Gs3
 BYTE   W48
 BYTE   Dn3
 BYTE   N21  Fs3
 BYTE   W24
// 020   ----------------------------------------
 BYTE   Dn3
 BYTE   N21  Fs3
 BYTE   W24
 BYTE   PEND 
Label_4_0164B0A9:
 BYTE   N72  Cs3  v100
 BYTE   N72  En3
 BYTE   W96
 BYTE   PEND 
 BYTE   PATT
  POIN2 Label_4_0164B087
// 021   ----------------------------------------
Label_4_0164B0B5:
 BYTE   N21  En3  v100
 BYTE   N21  Gs3
 BYTE   W24
 BYTE   Bn2
 BYTE   N21  Fs3
 BYTE   W24
 BYTE   Gn3
 BYTE   N21  Bn3
 BYTE   W24
 BYTE   Fs3
 BYTE   N21  An3
 BYTE   W24
 BYTE   PEND 
// 022   ----------------------------------------
Label_4_0164B0C8:
 BYTE   N72  Gn3  v100
 BYTE   N72  Bn3
 BYTE   W96
// 023   ----------------------------------------
 BYTE   W96
// 024   ----------------------------------------
 BYTE   W48
 BYTE   PEND 
Label_4_0164B0D1:
 BYTE   N24  En3  v100
 BYTE   W24
 BYTE   An3
 BYTE   W24
// 025   ----------------------------------------
 BYTE   N72  Gn3
 BYTE   W96
// 026   ----------------------------------------
 BYTE   W96
// 027   ----------------------------------------
 BYTE   W48
 BYTE   PEND 
Label_4_0164B0DD:
 BYTE   N24  Gn3  v100
 BYTE   N24  Bn3
 BYTE   W24
 BYTE   Fs3
 BYTE   N24  An3
 BYTE   W24
// 028   ----------------------------------------
 BYTE   N72  Gn3
 BYTE   N72  Bn3
 BYTE   W96
// 029   ----------------------------------------
 BYTE   W96
// 030   ----------------------------------------
 BYTE   W48
 BYTE   PEND 
 BYTE   N24  Dn3  v100
 BYTE   N24  Gn3
 BYTE   W24
 BYTE   Cs3
 BYTE   N24  Fs3
 BYTE   W24
// 031   ----------------------------------------
 BYTE   N72  Bn2
 BYTE   N72  En3
 BYTE   W96
// 032   ----------------------------------------
 BYTE   W96
// 033   ----------------------------------------
 BYTE   W48
 BYTE   N24  Gn3
 BYTE   N24  Bn3
 BYTE   W24
 BYTE   Fs3
 BYTE   N24  An3
 BYTE   W24
// 034   ----------------------------------------
 BYTE   N72  Gn3
 BYTE   N72  Bn3
 BYTE   W96
// 035   ----------------------------------------
 BYTE   W96
// 036   ----------------------------------------
 BYTE   W96
// 037   ----------------------------------------
 BYTE   W96
// 038   ----------------------------------------
 BYTE   W96
// 039   ----------------------------------------
 BYTE   W96
// 040   ----------------------------------------
 BYTE   W96
// 041   ----------------------------------------
 BYTE   W96
// 042   ----------------------------------------
 BYTE   W96
// 043   ----------------------------------------
 BYTE   W96
// 044   ----------------------------------------
 BYTE   W96
// 045   ----------------------------------------
 BYTE   W96
// 046   ----------------------------------------
 BYTE   W96
// 047   ----------------------------------------
 BYTE   W96
// 048   ----------------------------------------
 BYTE   W96
// 049   ----------------------------------------
 BYTE   W96
// 050   ----------------------------------------
 BYTE   W96
// 051   ----------------------------------------
 BYTE   W96
// 052   ----------------------------------------
 BYTE   W96
 BYTE   PATT
  POIN2 Label_4_0164B087
 BYTE   PATT
  POIN2 Label_4_0164B09A
 BYTE   PATT
  POIN2 Label_4_0164B0A9
 BYTE   PATT
  POIN2 Label_4_0164B087
 BYTE   PATT
  POIN2 Label_4_0164B0B5
 BYTE   PATT
  POIN2 Label_4_0164B0C8
 BYTE   PATT
  POIN2 Label_4_0164B0D1
 BYTE   PATT
  POIN2 Label_4_0164B0DD
// 053   ----------------------------------------
 BYTE   N24  Dn3  v100
 BYTE   N24  Gn3
 BYTE   W24
 BYTE   Cs3
 BYTE   N24  Fs3
 BYTE   W24
 BYTE   N72  Bn2
 BYTE   N72  En3
 BYTE   W96
// 054   ----------------------------------------
 BYTE   W96
// 055   ----------------------------------------
 BYTE   W24
 BYTE   W24
 BYTE   N24  Gn3  v100
 BYTE   N24  Bn3
 BYTE   W24
 BYTE   Fs3
 BYTE   N24  An3
 BYTE   W24
// 056   ----------------------------------------
 BYTE   N72  Gn3
 BYTE   N72  Bn3
 BYTE   GoTo
  POIN2 Label_4_0164B06C
 BYTE   FINE

//**************** Track 6 (Midi-Chn.5) ****************//

FF5MyHomeSweetHomeMeatOfJustice_006:
// 000   ----------------------------------------
Label_5_0164B170:
 BYTE   KEYSH   FF5MyHomeSweetHomeMeatOfJustice_key+0
 BYTE   VOICE   49
 BYTE   VOL   72*FF5MyHomeSweetHomeMeatOfJustice_mvl/mxv
 BYTE   TEMPO   122*FF5MyHomeSweetHomeMeatOfJustice_tbs/2
 BYTE   W96
// 001   ----------------------------------------
 BYTE   W96
// 002   ----------------------------------------
 BYTE   W96
// 003   ----------------------------------------
 BYTE   W96
// 004   ----------------------------------------
 BYTE   W96
// 005   ----------------------------------------
 BYTE   W96
// 006   ----------------------------------------
 BYTE   W96
// 007   ----------------------------------------
 BYTE   W96
// 008   ----------------------------------------
 BYTE   W96
// 009   ----------------------------------------
 BYTE   W96
// 010   ----------------------------------------
 BYTE   W96
// 011   ----------------------------------------
 BYTE   W96
// 012   ----------------------------------------
 BYTE   W96
// 013   ----------------------------------------
 BYTE   W96
// 014   ----------------------------------------
 BYTE   W96
// 015   ----------------------------------------
 BYTE   W96
// 016   ----------------------------------------
 BYTE   W96
// 017   ----------------------------------------
 BYTE   W96
// 018   ----------------------------------------
 BYTE   W96
// 019   ----------------------------------------
 BYTE   W96
// 020   ----------------------------------------
 BYTE   W96
// 021   ----------------------------------------
 BYTE   W96
// 022   ----------------------------------------
 BYTE   W96
// 023   ----------------------------------------
 BYTE   W96
// 024   ----------------------------------------
Label_5_0164B190:
 BYTE   N24  Bn3  v100
 BYTE   W24
 BYTE   Fs4
 BYTE   W24
 BYTE   Fs4
 BYTE   W24
 BYTE   An4
 BYTE   W24
 BYTE   PEND 
// 025   ----------------------------------------
Label_5_0164B19B:
 BYTE   N12  Gs4  v100
 BYTE   W12
 BYTE   Fs4
 BYTE   W12
 BYTE   En4
 BYTE   W12
 BYTE   Gs4
 BYTE   W12
 BYTE   N24  Fs4
 BYTE   W24
 BYTE   Bn3
 BYTE   W24
 BYTE   PEND 
// 026   ----------------------------------------
Label_5_0164B1AB:
 BYTE   N24  An3  v100
 BYTE   W24
 BYTE   N72  Bn3
 BYTE   W72
 BYTE   PEND 
 BYTE   PATT
  POIN2 Label_5_0164B190
// 027   ----------------------------------------
Label_5_0164B1B8:
 BYTE   N12  Gs4  v100
 BYTE   W12
 BYTE   Fs4
 BYTE   W12
 BYTE   En4
 BYTE   W12
 BYTE   Gs4
 BYTE   W12
 BYTE   N24  Fs4
 BYTE   W24
 BYTE   Bn4
 BYTE   W24
 BYTE   PEND 
// 028   ----------------------------------------
Label_5_0164B1C8:
 BYTE   N24  An4  v100
 BYTE   W24
 BYTE   N72  Bn4
 BYTE   W72
 BYTE   PEND 
// 029   ----------------------------------------
Label_5_0164B1D0:
 BYTE   N24  Bn4  v100
 BYTE   W24
 BYTE   N12
 BYTE   W12
 BYTE   Cs5
 BYTE   W12
 BYTE   An4
 BYTE   W12
 BYTE   Fs4
 BYTE   W12
 BYTE   N24  En4
 BYTE   W24
 BYTE   PEND 
// 030   ----------------------------------------
Label_5_0164B1E0:
 BYTE   N24  An4  v100
 BYTE   W24
 BYTE   Gs4
 BYTE   W24
 BYTE   Fs4
 BYTE   W24
 BYTE   Bn3
 BYTE   W24
 BYTE   PEND 
 BYTE   PATT
  POIN2 Label_5_0164B1AB
 BYTE   PATT
  POIN2 Label_5_0164B190
 BYTE   PATT
  POIN2 Label_5_0164B1B8
// 031   ----------------------------------------
 BYTE   N24  An4  v100
 BYTE   W24
 BYTE   N72  Bn4
 BYTE   W96
// 032   ----------------------------------------
 BYTE   W96
// 033   ----------------------------------------
 BYTE   W96
// 034   ----------------------------------------
 BYTE   W96
// 035   ----------------------------------------
 BYTE   W96
// 036   ----------------------------------------
 BYTE   W96
// 037   ----------------------------------------
 BYTE   W96
// 038   ----------------------------------------
 BYTE   W96
// 039   ----------------------------------------
 BYTE   W96
// 040   ----------------------------------------
 BYTE   W96
// 041   ----------------------------------------
 BYTE   W96
// 042   ----------------------------------------
 BYTE   W96
// 043   ----------------------------------------
 BYTE   W96
// 044   ----------------------------------------
 BYTE   W96
// 045   ----------------------------------------
 BYTE   W96
// 046   ----------------------------------------
 BYTE   W96
// 047   ----------------------------------------
 BYTE   W96
// 048   ----------------------------------------
 BYTE   W96
// 049   ----------------------------------------
 BYTE   W96
// 050   ----------------------------------------
 BYTE   W96
// 051   ----------------------------------------
 BYTE   W96
// 052   ----------------------------------------
 BYTE   W96
// 053   ----------------------------------------
 BYTE   W96
// 054   ----------------------------------------
 BYTE   W96
// 055   ----------------------------------------
 BYTE   W72
 BYTE   PATT
  POIN2 Label_5_0164B190
 BYTE   PATT
  POIN2 Label_5_0164B19B
 BYTE   PATT
  POIN2 Label_5_0164B1AB
 BYTE   PATT
  POIN2 Label_5_0164B190
 BYTE   PATT
  POIN2 Label_5_0164B1B8
 BYTE   PATT
  POIN2 Label_5_0164B1C8
 BYTE   PATT
  POIN2 Label_5_0164B1D0
 BYTE   PATT
  POIN2 Label_5_0164B1E0
 BYTE   PATT
  POIN2 Label_5_0164B1AB
 BYTE   PATT
  POIN2 Label_5_0164B190
// 056   ----------------------------------------
 BYTE   N12  Gs4  v100
 BYTE   W12
 BYTE   Fs4
 BYTE   W12
 BYTE   En4
 BYTE   W12
 BYTE   Gs4
 BYTE   W12
 BYTE   N24  Fs4
 BYTE   W24
 BYTE   N24  Bn4  v100
 BYTE   W24
 BYTE   PATT
  POIN2 Label_5_0164B1C8
// 057   ----------------------------------------
 BYTE   GoTo
  POIN2 Label_5_0164B170
 BYTE   FINE

//**************** Track 7 (Midi-Chn.6) ****************//

FF5MyHomeSweetHomeMeatOfJustice_007:
// 000   ----------------------------------------
Label_6_0164B268:
 BYTE   KEYSH   FF5MyHomeSweetHomeMeatOfJustice_key+0
 BYTE   VOICE   41
 BYTE   VOL   72*FF5MyHomeSweetHomeMeatOfJustice_mvl/mxv
 BYTE   TEMPO   122*FF5MyHomeSweetHomeMeatOfJustice_tbs/2
 BYTE   W96
// 001   ----------------------------------------
 BYTE   W96
// 002   ----------------------------------------
 BYTE   W96
// 003   ----------------------------------------
 BYTE   W96
// 004   ----------------------------------------
 BYTE   W96
// 005   ----------------------------------------
 BYTE   W96
// 006   ----------------------------------------
 BYTE   W96
// 007   ----------------------------------------
 BYTE   W96
// 008   ----------------------------------------
 BYTE   W96
// 009   ----------------------------------------
 BYTE   W96
// 010   ----------------------------------------
 BYTE   W96
// 011   ----------------------------------------
 BYTE   W96
// 012   ----------------------------------------
 BYTE   W96
// 013   ----------------------------------------
 BYTE   W96
// 014   ----------------------------------------
 BYTE   W96
// 015   ----------------------------------------
 BYTE   W96
// 016   ----------------------------------------
 BYTE   W96
// 017   ----------------------------------------
 BYTE   W96
// 018   ----------------------------------------
 BYTE   W96
// 019   ----------------------------------------
 BYTE   W96
// 020   ----------------------------------------
 BYTE   W96
// 021   ----------------------------------------
 BYTE   W96
// 022   ----------------------------------------
 BYTE   W96
// 023   ----------------------------------------
 BYTE   W96
// 024   ----------------------------------------
Label_6_0164B288:
 BYTE   N72  Bn1  v100
 BYTE   W72
 BYTE   En2
 BYTE   W72
 BYTE   PEND 
// 025   ----------------------------------------
Label_6_0164B28F:
 BYTE   N24  Dn2  v100
 BYTE   W24
 BYTE   Bn1
 BYTE   W24
 BYTE   An1
 BYTE   W24
 BYTE   N72  Gn1
 BYTE   W72
 BYTE   PEND 
 BYTE   PATT
  POIN2 Label_6_0164B288
// 026   ----------------------------------------
Label_6_0164B2A0:
 BYTE   N24  Dn2  v100
 BYTE   W24
 BYTE   En2
 BYTE   W24
 BYTE   Fs2
 BYTE   W24
 BYTE   N72  Gn2
 BYTE   W72
 BYTE   PEND 
// 027   ----------------------------------------
Label_6_0164B2AC:
 BYTE   N48  Bn1  v100
 BYTE   W48
 BYTE   N24  Bn2
 BYTE   W24
 BYTE   An2
 BYTE   W24
 BYTE   PEND 
// 028   ----------------------------------------
Label_6_0164B2B6:
 BYTE   N48  En2  v100
 BYTE   W48
 BYTE   N24  Bn1
 BYTE   W24
 BYTE   Gn2
 BYTE   W24
 BYTE   PEND 
// 029   ----------------------------------------
Label_6_0164B2C0:
 BYTE   N24  Fs2  v100
 BYTE   W24
 BYTE   N72  En2
 BYTE   W72
 BYTE   PEND 
 BYTE   PATT
  POIN2 Label_6_0164B288
// 030   ----------------------------------------
 BYTE   N24  Dn2  v100
 BYTE   W24
 BYTE   En2
 BYTE   W24
 BYTE   Fs2
 BYTE   W24
 BYTE   N72  En2
 BYTE   W96
// 031   ----------------------------------------
 BYTE   W96
// 032   ----------------------------------------
 BYTE   W96
// 033   ----------------------------------------
 BYTE   W96
// 034   ----------------------------------------
 BYTE   W96
// 035   ----------------------------------------
 BYTE   W96
// 036   ----------------------------------------
 BYTE   W96
// 037   ----------------------------------------
 BYTE   W96
// 038   ----------------------------------------
 BYTE   W96
// 039   ----------------------------------------
 BYTE   W96
// 040   ----------------------------------------
 BYTE   W96
// 041   ----------------------------------------
 BYTE   W96
// 042   ----------------------------------------
 BYTE   W96
// 043   ----------------------------------------
 BYTE   W96
// 044   ----------------------------------------
 BYTE   W96
// 045   ----------------------------------------
 BYTE   W96
// 046   ----------------------------------------
 BYTE   W96
// 047   ----------------------------------------
 BYTE   W96
// 048   ----------------------------------------
 BYTE   W96
// 049   ----------------------------------------
 BYTE   W96
// 050   ----------------------------------------
 BYTE   W96
// 051   ----------------------------------------
 BYTE   W96
// 052   ----------------------------------------
 BYTE   W96
// 053   ----------------------------------------
 BYTE   W96
// 054   ----------------------------------------
 BYTE   W72
 BYTE   PATT
  POIN2 Label_6_0164B288
 BYTE   PATT
  POIN2 Label_6_0164B28F
 BYTE   PATT
  POIN2 Label_6_0164B288
 BYTE   PATT
  POIN2 Label_6_0164B2A0
 BYTE   PATT
  POIN2 Label_6_0164B2AC
 BYTE   PATT
  POIN2 Label_6_0164B2B6
 BYTE   PATT
  POIN2 Label_6_0164B2C0
 BYTE   PATT
  POIN2 Label_6_0164B288
// 055   ----------------------------------------
 BYTE   N24  Dn2  v100
 BYTE   W24
 BYTE   N24  En2  v100
 BYTE   W24
 BYTE   Fs2
 BYTE   W24
 BYTE   N72  En2
 BYTE   GoTo
  POIN2 Label_6_0164B268
 BYTE   FINE

//******************************************************//
	ALIGN 4

FF5MyHomeSweetHomeMeatOfJustice:
	BYTE	7	// NumTrks
	BYTE	0	// NumBlks
	BYTE	FF5MyHomeSweetHomeMeatOfJustice_pri	// Priority
	BYTE	FF5MyHomeSweetHomeMeatOfJustice_rev	// Reverb.
    
	POIN2	FF5MyHomeSweetHomeMeatOfJustice_grp
    
	POIN2	FF5MyHomeSweetHomeMeatOfJustice_001
	POIN2	FF5MyHomeSweetHomeMeatOfJustice_002
	POIN2	FF5MyHomeSweetHomeMeatOfJustice_003
	POIN2	FF5MyHomeSweetHomeMeatOfJustice_004
	POIN2	FF5MyHomeSweetHomeMeatOfJustice_005
	POIN2	FF5MyHomeSweetHomeMeatOfJustice_006
	POIN2	FF5MyHomeSweetHomeMeatOfJustice_007

	
