//Event file generated from Sappy .s format.
	#include "MPlayDef.event"

	#define	FF6TheUnforgivenRandomWizard_grp  voicegroup000
	#define	FF6TheUnforgivenRandomWizard_pri  0
	#define	FF6TheUnforgivenRandomWizard_rev  0
	#define	FF6TheUnforgivenRandomWizard_mvl  60
	#define	FF6TheUnforgivenRandomWizard_key  0
	#define	FF6TheUnforgivenRandomWizard_tbs  1
	#define	FF6TheUnforgivenRandomWizard_exg  0
	#define	FF6TheUnforgivenRandomWizard_cmp  1

	// .rodata
	//	FF6TheUnforgivenRandomWizard
	ALIGN 4

//**************** Track 1 (Midi-Chn.1) ****************//

FF6TheUnforgivenRandomWizard_1:
	BYTE		VOL     127*FF6TheUnforgivenRandomWizard_mvl/mxv
	BYTE	KEYSH   FF6TheUnforgivenRandomWizard_key+0
FF6TheUnforgivenRandomWizard_1_B9:
// 000   ----------------------------------------
	BYTE	TEMPO   168*FF6TheUnforgivenRandomWizard_tbs/2
	BYTE		VOICE   40
	BYTE		N21     As3   v072
	BYTE		N21     Fn4 
	BYTE		N21     As4   v092
	BYTE	W24
	BYTE		        Gs3   v072
	BYTE		N21     Ds4 
	BYTE		N21     Gs4   v092
	BYTE	W24
	BYTE		        Gn3   v072
	BYTE		N21     Dn4 
	BYTE		N21     Gn4   v092
	BYTE	W24
	BYTE		        Fn3   v072
	BYTE		N21     Cn4 
	BYTE		N21     Fn4   v092
	BYTE	W24
// 001   ----------------------------------------
	BYTE		N09     Gn3   v072
	BYTE		N09     Dn4 
	BYTE		N09     Gn4   v092
	BYTE	W12
	BYTE		N10     Fn3   v072
	BYTE		N10     Cn4 
	BYTE		N10     Fn4   v092
	BYTE	W12
	BYTE		        Ds3   v072
	BYTE		N10     As3 
	BYTE		N10     Ds4   v092
	BYTE	W12
	BYTE		N21     Cs3   v072
	BYTE		N21     Gs3 
	BYTE		N21     Cs4   v092
	BYTE	W24
	BYTE		N09     Fn3   v072
	BYTE		N09     Cn4 
	BYTE		N09     Fn4   v092
	BYTE	W12
	BYTE		N21     Cs3   v072
	BYTE		N21     Gs3 
	BYTE		N21     Cs4   v092
	BYTE	W24
// 002   ----------------------------------------
	BYTE		TIE     Cn3   v068
	BYTE		TIE     Gn3 
	BYTE		TIE     Cn4   v084
	BYTE	W96
// 003   ----------------------------------------
	BYTE	W90
	BYTE		EOT     Cn3 
	BYTE		        Gn3 
	BYTE		        Cn4 
	BYTE	W06
FF6TheUnforgivenRandomWizard_1_B10:
// 004   ----------------------------------------
	BYTE		N03     Cn4   v084
	BYTE	W06
	BYTE		        Cs4 
	BYTE	W06
	BYTE		        Ds4 
	BYTE	W06
	BYTE		        Fn4 
	BYTE	W06
	BYTE		        Gn4 
	BYTE	W12
	BYTE		        Cs4 
	BYTE	W06
	BYTE		        Ds4 
	BYTE	W06
	BYTE		        Fn4 
	BYTE	W06
	BYTE		        Gn4 
	BYTE	W06
	BYTE		        Gs4 
	BYTE	W12
	BYTE		        Cn4 
	BYTE	W06
	BYTE		        Cs4 
	BYTE	W06
	BYTE		        Ds4 
	BYTE	W06
	BYTE		        Fn4 
	BYTE	W06
// 005   ----------------------------------------
	BYTE		        Gn4 
	BYTE	W06
	BYTE		        Fn4 
	BYTE	W06
	BYTE		        Ds4 
	BYTE	W06
	BYTE		        Cs4 
	BYTE	W06
	BYTE		        Cn4 
	BYTE	W06
	BYTE		        Cs4 
	BYTE	W06
	BYTE		        Ds4 
	BYTE	W06
	BYTE		        Fn4 
	BYTE	W06
	BYTE		        Gn4 
	BYTE	W12
	BYTE		        Cs4 
	BYTE	W06
	BYTE		        Ds4 
	BYTE	W06
	BYTE		        Fn4 
	BYTE	W06
	BYTE		        Gn4 
	BYTE	W06
	BYTE		        Gs4 
	BYTE	W12
// 006   ----------------------------------------
	BYTE		        Cn4 
	BYTE	W06
	BYTE		        Cs4 
	BYTE	W06
	BYTE		        Ds4 
	BYTE	W06
	BYTE		        Fn4 
	BYTE	W06
	BYTE		        Gn4 
	BYTE	W06
	BYTE		        Gs4 
	BYTE	W06
	BYTE		        As4 
	BYTE	W06
	BYTE		        Cn5 
	BYTE	W06
	BYTE		        Cn4 
	BYTE	W06
	BYTE		        Cs4 
	BYTE	W06
	BYTE		        Ds4 
	BYTE	W06
	BYTE		        Fn4 
	BYTE	W06
	BYTE		        Gn4 
	BYTE	W12
	BYTE		        Cs4 
	BYTE	W06
	BYTE		        Ds4 
	BYTE	W06
// 007   ----------------------------------------
	BYTE		        Fn4 
	BYTE	W06
	BYTE		        Gn4 
	BYTE	W06
	BYTE		        Gs4 
	BYTE	W12
	BYTE		        Cn4 
	BYTE	W06
	BYTE		        Cs4 
	BYTE	W06
	BYTE		        Ds4 
	BYTE	W06
	BYTE		        Fn4 
	BYTE	W06
	BYTE		        Gn4 
	BYTE	W06
	BYTE		        Fn4 
	BYTE	W06
	BYTE		        Ds4 
	BYTE	W06
	BYTE		        Cs4 
	BYTE	W06
	BYTE		        Cn4 
	BYTE	W06
	BYTE		        Cs4 
	BYTE	W06
	BYTE		        Ds4 
	BYTE	W06
	BYTE		        Fn4 
	BYTE	W06
// 008   ----------------------------------------
	BYTE		        Gn4 
	BYTE	W12
	BYTE		        Cs4 
	BYTE	W06
	BYTE		        Ds4 
	BYTE	W06
	BYTE		        Fn4 
	BYTE	W06
	BYTE		        Gn4 
	BYTE	W06
	BYTE		        Gs4 
	BYTE	W12
	BYTE		        Cn4 
	BYTE	W06
	BYTE		        Cs4 
	BYTE	W06
	BYTE		        Ds4 
	BYTE	W06
	BYTE		        Fn4 
	BYTE	W06
	BYTE		        Gn4 
	BYTE	W06
	BYTE		        Gs4 
	BYTE	W06
	BYTE		        As4 
	BYTE	W06
	BYTE		        Cn5 
	BYTE	W06
// 009   ----------------------------------------
	BYTE		        Fn4 
	BYTE	W06
	BYTE		        Fs4 
	BYTE	W06
	BYTE		        Gs4 
	BYTE	W06
	BYTE		        As4 
	BYTE	W06
	BYTE		        Cn5 
	BYTE	W12
	BYTE		        Fs4 
	BYTE	W06
	BYTE		        Gs4 
	BYTE	W06
	BYTE		        As4 
	BYTE	W06
	BYTE		        Cn5 
	BYTE	W06
	BYTE		        Cs5 
	BYTE	W12
	BYTE		        Fn4 
	BYTE	W06
	BYTE		        Fs4 
	BYTE	W06
	BYTE		        Gs4 
	BYTE	W06
	BYTE		        As4 
	BYTE	W06
// 010   ----------------------------------------
	BYTE		        Cn5 
	BYTE	W06
	BYTE		        As4 
	BYTE	W06
	BYTE		        Gs4 
	BYTE	W06
	BYTE		        Fs4 
	BYTE	W06
	BYTE		        Fn4 
	BYTE	W06
	BYTE		        Fs4 
	BYTE	W06
	BYTE		        Gs4 
	BYTE	W06
	BYTE		        As4 
	BYTE	W06
	BYTE		        Cn5 
	BYTE	W12
	BYTE		        Fs4 
	BYTE	W06
	BYTE		        Gs4 
	BYTE	W06
	BYTE		        As4 
	BYTE	W06
	BYTE		        Cn5 
	BYTE	W06
	BYTE		        Cs5 
	BYTE	W12
// 011   ----------------------------------------
	BYTE		        Fn4 
	BYTE	W06
	BYTE		        Fs4 
	BYTE	W06
	BYTE		        Gs4 
	BYTE	W06
	BYTE		        As4 
	BYTE	W06
	BYTE		        Cn5 
	BYTE	W06
	BYTE		        As4 
	BYTE	W06
	BYTE		        Gs4 
	BYTE	W06
	BYTE		        Fs4 
	BYTE	W06
	BYTE		        Fn4 
	BYTE	W06
	BYTE		        Fs4 
	BYTE	W06
	BYTE		        Gs4 
	BYTE	W06
	BYTE		        As4 
	BYTE	W06
	BYTE		        Cn5 
	BYTE	W12
	BYTE		        Fs4 
	BYTE	W06
	BYTE		        Gs4 
	BYTE	W06
// 012   ----------------------------------------
	BYTE		        As4 
	BYTE	W06
	BYTE		        Cn5 
	BYTE	W06
	BYTE		        Cs5 
	BYTE	W12
	BYTE		        Fn4 
	BYTE	W06
	BYTE		        Fs4 
	BYTE	W06
	BYTE		        Gs4 
	BYTE	W06
	BYTE		        As4 
	BYTE	W06
	BYTE		        Cn5 
	BYTE	W06
	BYTE		        As4 
	BYTE	W06
	BYTE		        Gs4 
	BYTE	W06
	BYTE		        Fs4 
	BYTE	W06
	BYTE		        Fn4 
	BYTE	W06
	BYTE		        Fs4 
	BYTE	W06
	BYTE		        Gs4 
	BYTE	W06
	BYTE		        As4 
	BYTE	W06
// 013   ----------------------------------------
	BYTE		        Cn5 
	BYTE	W12
	BYTE		        Fs4 
	BYTE	W06
	BYTE		        Gs4 
	BYTE	W06
	BYTE		        As4 
	BYTE	W06
	BYTE		        Cn5 
	BYTE	W06
	BYTE		        Cs5 
	BYTE	W12
	BYTE		        Fn4 
	BYTE	W06
	BYTE		        Fs4 
	BYTE	W06
	BYTE		        Gs4 
	BYTE	W06
	BYTE		        As4 
	BYTE	W06
	BYTE		        Cn5 
	BYTE	W06
	BYTE		        As4 
	BYTE	W06
	BYTE		        Gs4 
	BYTE	W06
	BYTE		        Fs4 
	BYTE	W06
// 014   ----------------------------------------
	BYTE	W96
// 015   ----------------------------------------
	BYTE	W96
// 016   ----------------------------------------
	BYTE		N04     As3   v076
	BYTE		N04     Ds4   v084
	BYTE	W12
	BYTE		        As3   v076
	BYTE		N04     Ds4   v084
	BYTE	W12
	BYTE		        As3   v076
	BYTE		N04     Ds4   v084
	BYTE	W12
	BYTE		        As3   v076
	BYTE		N04     Ds4   v084
	BYTE	W12
	BYTE		        As3   v076
	BYTE		N04     Ds4   v084
	BYTE	W12
	BYTE		        As3   v076
	BYTE		N04     Ds4   v084
	BYTE	W12
	BYTE		        As3   v076
	BYTE		N04     Ds4   v084
	BYTE	W12
	BYTE		        As3   v076
	BYTE		N04     Ds4   v084
	BYTE	W12
// 017   ----------------------------------------
	BYTE		        As3   v076
	BYTE		N04     Ds4   v084
	BYTE	W12
	BYTE		        As3   v076
	BYTE		N04     Ds4   v084
	BYTE	W12
	BYTE		        Bn3   v076
	BYTE		N04     Fs4   v084
	BYTE	W12
	BYTE		        Bn3   v076
	BYTE		N04     Fs4   v084
	BYTE	W12
	BYTE		        Bn3   v076
	BYTE		N04     Fs4   v084
	BYTE	W12
	BYTE		        Bn3   v076
	BYTE		N04     Fs4   v084
	BYTE	W12
	BYTE		        Bn3   v076
	BYTE		N04     Fs4   v084
	BYTE	W12
	BYTE		        Bn3   v076
	BYTE		N04     Fs4   v084
	BYTE	W12
// 018   ----------------------------------------
	BYTE		        Bn3   v076
	BYTE		N04     Fs4   v084
	BYTE	W12
	BYTE		        Bn3   v076
	BYTE		N04     Fs4   v084
	BYTE	W12
	BYTE		        Bn3   v076
	BYTE		N04     Fs4   v084
	BYTE	W12
	BYTE		        Bn3   v076
	BYTE		N04     Fs4   v084
	BYTE	W12
	BYTE		        As3 
	BYTE		N04     Ds4 
	BYTE	W36
	BYTE		        As3 
	BYTE		N04     Ds4 
	BYTE	W12
// 019   ----------------------------------------
	BYTE	W24
	BYTE		        As3 
	BYTE		N04     Ds4 
	BYTE	W24
	BYTE		        Bn3 
	BYTE		N04     En4 
	BYTE	W24
	BYTE		        As3 
	BYTE		N04     Ds4 
	BYTE	W24
// 020   ----------------------------------------
	BYTE	W12
	BYTE		        As3 
	BYTE		N04     Ds4 
	BYTE	W36
	BYTE		        Gs3 
	BYTE		N04     Cs4 
	BYTE	W24
	BYTE		        An3 
	BYTE		N04     Dn4 
	BYTE	W24
// 021   ----------------------------------------
	BYTE		        As3 
	BYTE		N04     Ds4 
	BYTE	W36
	BYTE		        As3 
	BYTE		N04     Ds4 
	BYTE	W36
	BYTE		        As3 
	BYTE		N04     Ds4 
	BYTE	W24
// 022   ----------------------------------------
	BYTE		        Bn3 
	BYTE		N04     En4 
	BYTE	W24
	BYTE		        As3 
	BYTE		N04     Ds4 
	BYTE	W36
	BYTE		        As3 
	BYTE		N04     Ds4 
	BYTE	W36
// 023   ----------------------------------------
	BYTE		        Gs3 
	BYTE		N04     Cs4 
	BYTE	W24
	BYTE		        An3 
	BYTE		N04     Dn4 
	BYTE	W24
	BYTE		N03     Bn4 
	BYTE	W06
	BYTE		        As4 
	BYTE	W06
	BYTE		        Gs4 
	BYTE	W06
	BYTE		        Gn4 
	BYTE	W06
	BYTE		        Ds5 
	BYTE	W06
	BYTE		        Dn5 
	BYTE	W06
	BYTE		        Cs5 
	BYTE	W06
	BYTE		        Cn5 
	BYTE	W06
// 024   ----------------------------------------
	BYTE		        Cs5 
	BYTE	W06
	BYTE		        Cn5 
	BYTE	W06
	BYTE		        Bn4 
	BYTE	W06
	BYTE		        As4 
	BYTE	W06
	BYTE		        Bn4 
	BYTE	W06
	BYTE		        As4 
	BYTE	W06
	BYTE		        An4 
	BYTE	W06
	BYTE		        Gs4 
	BYTE	W06
	BYTE		        As4 
	BYTE	W06
	BYTE		        An4 
	BYTE	W06
	BYTE		        Gn4 
	BYTE	W06
	BYTE		        Fs4 
	BYTE	W06
	BYTE		        Dn5 
	BYTE	W06
	BYTE		        Cs5 
	BYTE	W06
	BYTE		        Cn5 
	BYTE	W06
	BYTE		        Bn4 
	BYTE	W06
// 025   ----------------------------------------
	BYTE		        Cn5 
	BYTE	W06
	BYTE		        Bn4 
	BYTE	W06
	BYTE		        As4 
	BYTE	W06
	BYTE		        An4 
	BYTE	W06
	BYTE		        As4 
	BYTE	W06
	BYTE		        An4 
	BYTE	W06
	BYTE		        Gs4 
	BYTE	W06
	BYTE		        Gn4 
	BYTE	W06
	BYTE		        An4 
	BYTE	W06
	BYTE		        Gs4 
	BYTE	W06
	BYTE		        Gn4 
	BYTE	W06
	BYTE		        Fs4 
	BYTE	W06
	BYTE		        Cs5 
	BYTE	W06
	BYTE		        Cn5 
	BYTE	W06
	BYTE		        Bn4 
	BYTE	W06
	BYTE		        As4 
	BYTE	W06
// 026   ----------------------------------------
	BYTE		        Bn4 
	BYTE	W06
	BYTE		        As4 
	BYTE	W06
	BYTE		        An4 
	BYTE	W06
	BYTE		        Gs4 
	BYTE	W06
	BYTE		        An4 
	BYTE	W06
	BYTE		        Gs4 
	BYTE	W06
	BYTE		        Gn4 
	BYTE	W06
	BYTE		        Fs4 
	BYTE	W06
	BYTE		        Gs4 
	BYTE	W06
	BYTE		        Gn4 
	BYTE	W06
	BYTE		        Fs4 
	BYTE	W06
	BYTE		        Fn4 
	BYTE	W06
	BYTE		        En4 
	BYTE	W06
	BYTE		        Fn4 
	BYTE	W06
	BYTE		        Fs4 
	BYTE	W06
	BYTE		        Gn4 
	BYTE	W06
// 027   ----------------------------------------
	BYTE		        Gs4 
	BYTE	W06
	BYTE		        An4 
	BYTE	W06
	BYTE		        As4 
	BYTE	W06
	BYTE		        Bn4 
	BYTE	W06
	BYTE		        Cn5 
	BYTE	W06
	BYTE		        Cs5 
	BYTE	W06
	BYTE		        Dn5 
	BYTE	W06
	BYTE		        Ds5 
	BYTE	W06
	BYTE	GoTo
	 POIN2	FF6TheUnforgivenRandomWizard_1_B10
FF6TheUnforgivenRandomWizard_1_B11:
	BYTE	FINE

//**************** Track 2 (Midi-Chn.2) ****************//

FF6TheUnforgivenRandomWizard_2:
	BYTE		VOL     127*FF6TheUnforgivenRandomWizard_mvl/mxv
	BYTE	KEYSH   FF6TheUnforgivenRandomWizard_key+0
FF6TheUnforgivenRandomWizard_2_B9:
// 000   ----------------------------------------
	BYTE		VOICE   60
	BYTE		N22     As3   v076
	BYTE	W24
	BYTE		        Gs3 
	BYTE	W24
	BYTE		        Gn3 
	BYTE	W24
	BYTE		        Fn3 
	BYTE	W24
// 001   ----------------------------------------
	BYTE		N09     Gn3 
	BYTE	W12
	BYTE		        Fn3 
	BYTE	W12
	BYTE		        Ds3 
	BYTE	W12
	BYTE		N23     Cs3 
	BYTE	W24
	BYTE		N09     Fn3 
	BYTE	W12
	BYTE		N23     Cs3 
	BYTE	W24
// 002   ----------------------------------------
	BYTE		N06     Cn3   v072
	BYTE	W12
	BYTE		        Gn2 
	BYTE	W12
	BYTE		        Cn3 
	BYTE	W12
	BYTE		        Cs3 
	BYTE	W12
	BYTE		        Cn3   v076
	BYTE	W12
	BYTE		        Gn2 
	BYTE	W12
	BYTE		        Cn3   v080
	BYTE	W12
	BYTE		        Cs3 
	BYTE	W12
// 003   ----------------------------------------
	BYTE		        Cn3   v084
	BYTE	W12
	BYTE		        Gn2 
	BYTE	W12
	BYTE		        Cn3 
	BYTE	W12
	BYTE		        Cs3 
	BYTE	W12
	BYTE		        Cn3   v088
	BYTE	W12
	BYTE		        Gn2 
	BYTE	W12
	BYTE		        Cn3   v092
	BYTE	W12
	BYTE		        Cs3 
	BYTE	W12
FF6TheUnforgivenRandomWizard_2_B10:
// 004   ----------------------------------------
	BYTE		N09     Cn3   v076
	BYTE	W36
	BYTE		        Cs3 
	BYTE	W36
	BYTE		        Ds3 
	BYTE	W24
// 005   ----------------------------------------
	BYTE		        Cs3 
	BYTE	W24
	BYTE		        Cn3 
	BYTE	W36
	BYTE		        Cs3 
	BYTE	W36
// 006   ----------------------------------------
	BYTE		        Cn3 
	BYTE	W12
	BYTE		        Gn2 
	BYTE	W12
	BYTE		        Cn3 
	BYTE	W12
	BYTE		        Cs3 
	BYTE	W12
	BYTE		        Cn3 
	BYTE	W36
	BYTE		        Cs3 
	BYTE	W12
// 007   ----------------------------------------
	BYTE	W24
	BYTE		        Ds3 
	BYTE	W24
	BYTE		        Cs3 
	BYTE	W24
	BYTE		        Cn3 
	BYTE	W24
// 008   ----------------------------------------
	BYTE	W12
	BYTE		        Cs3 
	BYTE	W36
	BYTE		        Ds3 
	BYTE	W24
	BYTE		        En3 
	BYTE	W24
// 009   ----------------------------------------
	BYTE		        Fn3 
	BYTE	W36
	BYTE		        Fs3 
	BYTE	W36
	BYTE		        Gs3 
	BYTE	W24
// 010   ----------------------------------------
	BYTE		        Fs3 
	BYTE	W24
	BYTE		        Fn3 
	BYTE	W36
	BYTE		        Fs3 
	BYTE	W36
// 011   ----------------------------------------
	BYTE		        Fn3 
	BYTE	W12
	BYTE		        Cn3 
	BYTE	W12
	BYTE		        Fn3 
	BYTE	W12
	BYTE		        Fs3 
	BYTE	W12
	BYTE		        Fn3 
	BYTE	W36
	BYTE		        Fs3 
	BYTE	W12
// 012   ----------------------------------------
	BYTE	W24
	BYTE		        Gs3 
	BYTE	W24
	BYTE		        Fs3 
	BYTE	W24
	BYTE		        Fn3 
	BYTE	W24
// 013   ----------------------------------------
	BYTE	W12
	BYTE		        Fs3 
	BYTE	W36
	BYTE		        Gs3 
	BYTE	W24
	BYTE		        An3 
	BYTE	W24
// 014   ----------------------------------------
	BYTE	W12
	BYTE		N03     As3   v084
	BYTE	W12
	BYTE		        Fs3 
	BYTE	W12
	BYTE		        Fn3 
	BYTE	W12
	BYTE		        Ds3 
	BYTE	W12
	BYTE		        Cs3 
	BYTE	W12
	BYTE		        Cn3 
	BYTE	W12
	BYTE		        As2 
	BYTE	W12
// 015   ----------------------------------------
	BYTE		N96     Ds2   v076
	BYTE	W96
// 016   ----------------------------------------
	BYTE		N32     Ds2   v084
	BYTE	W36
	BYTE		        Fn2 
	BYTE	W36
	BYTE		N22     Fs2 
	BYTE	W24
// 017   ----------------------------------------
	BYTE		        Gs2 
	BYTE	W24
	BYTE		N32     Fs2 
	BYTE	W36
	BYTE		        Gs2 
	BYTE	W36
// 018   ----------------------------------------
	BYTE		N22     An2 
	BYTE	W24
	BYTE		        Bn2 
	BYTE	W24
	BYTE		N04     As2   v096
	BYTE		N04     Ds3 
	BYTE	W36
	BYTE		        As2 
	BYTE		N04     Ds3 
	BYTE	W12
// 019   ----------------------------------------
	BYTE	W24
	BYTE		        As2 
	BYTE		N04     Ds3 
	BYTE	W24
	BYTE		        Bn2 
	BYTE		N04     En3 
	BYTE	W24
	BYTE		        As2 
	BYTE		N04     Ds3 
	BYTE	W24
// 020   ----------------------------------------
	BYTE	W12
	BYTE		        As2 
	BYTE		N04     Ds3 
	BYTE	W36
	BYTE		        Gs2 
	BYTE		N04     Cs3 
	BYTE	W24
	BYTE		        An2 
	BYTE		N04     Dn3 
	BYTE	W24
// 021   ----------------------------------------
	BYTE		        As2 
	BYTE		N04     Ds3 
	BYTE	W36
	BYTE		        As2 
	BYTE		N04     Ds3 
	BYTE	W36
	BYTE		        As2 
	BYTE		N04     Ds3 
	BYTE	W24
// 022   ----------------------------------------
	BYTE		        Bn2 
	BYTE		N04     En3 
	BYTE	W24
	BYTE		        As2 
	BYTE		N04     Ds3 
	BYTE	W36
	BYTE		        As2 
	BYTE		N04     Ds3 
	BYTE	W36
// 023   ----------------------------------------
	BYTE		        Gs2 
	BYTE		N04     Cs3 
	BYTE	W24
	BYTE		        An2 
	BYTE		N04     Dn3 
	BYTE	W72
// 024   ----------------------------------------
	BYTE	W96
// 025   ----------------------------------------
	BYTE	W96
// 026   ----------------------------------------
	BYTE	W96
// 027   ----------------------------------------
	BYTE	W48
	BYTE	GoTo
	 POIN2	FF6TheUnforgivenRandomWizard_2_B10
FF6TheUnforgivenRandomWizard_2_B11:
	BYTE	FINE

//**************** Track 3 (Midi-Chn.3) ****************//

FF6TheUnforgivenRandomWizard_3:
	BYTE		VOL     127*FF6TheUnforgivenRandomWizard_mvl/mxv
	BYTE	KEYSH   FF6TheUnforgivenRandomWizard_key+0
FF6TheUnforgivenRandomWizard_3_B9:
// 000   ----------------------------------------
	BYTE		VOICE   48
	BYTE	W96
// 001   ----------------------------------------
	BYTE	W96
// 002   ----------------------------------------
	BYTE	W96
// 003   ----------------------------------------
	BYTE	W96
FF6TheUnforgivenRandomWizard_3_B10:
// 004   ----------------------------------------
	BYTE	W12
	BYTE		N04     Cn3   v072
	BYTE		N04     Gn3 
	BYTE	W12
	BYTE		        Cn3 
	BYTE		N04     Gn3 
	BYTE	W24
	BYTE		        Cs3 
	BYTE		N04     Gs3 
	BYTE	W12
	BYTE		        Cs3 
	BYTE		N04     Gs3 
	BYTE	W24
	BYTE		        Ds3 
	BYTE		N04     As3 
	BYTE	W12
// 005   ----------------------------------------
	BYTE	W12
	BYTE		        Cs3 
	BYTE		N04     Gs3 
	BYTE	W24
	BYTE		        Cn3 
	BYTE		N04     Gn3 
	BYTE	W12
	BYTE		        Cn3 
	BYTE		N04     Gn3 
	BYTE	W24
	BYTE		        Cs3 
	BYTE		N04     Gs3 
	BYTE	W12
	BYTE		        Cs3 
	BYTE		N04     Gs3 
	BYTE	W12
// 006   ----------------------------------------
	BYTE	W12
	BYTE		        Cn3 
	BYTE		N04     Gn3 
	BYTE	W24
	BYTE		        Cs3 
	BYTE		N04     Gs3 
	BYTE	W24
	BYTE		        Cn3 
	BYTE		N04     Gn3 
	BYTE	W12
	BYTE		        Cn3 
	BYTE		N04     Gn3 
	BYTE	W24
// 007   ----------------------------------------
	BYTE		        Cs3 
	BYTE		N04     Gs3 
	BYTE	W12
	BYTE		        Cs3 
	BYTE		N04     Gs3 
	BYTE	W24
	BYTE		        Ds3 
	BYTE		N04     As3 
	BYTE	W24
	BYTE		        Cs3 
	BYTE		N04     Gs3 
	BYTE	W24
	BYTE		        Cn3 
	BYTE		N04     Gn3 
	BYTE	W12
// 008   ----------------------------------------
	BYTE		        Cn3 
	BYTE		N04     Gn3 
	BYTE	W24
	BYTE		        Cs3 
	BYTE		N04     Gs3 
	BYTE	W12
	BYTE		        Cs3 
	BYTE		N04     Gs3 
	BYTE	W24
	BYTE		        Ds3 
	BYTE		N04     As3 
	BYTE	W24
	BYTE		        En3 
	BYTE		N04     Bn3 
	BYTE	W12
// 009   ----------------------------------------
	BYTE	W12
	BYTE		        Fn3 
	BYTE		N04     Cn4 
	BYTE	W12
	BYTE		        Fn3 
	BYTE		N04     Cn4 
	BYTE	W24
	BYTE		        Fs3 
	BYTE		N04     Cs4 
	BYTE	W12
	BYTE		        Fs3 
	BYTE		N04     Cs4 
	BYTE	W24
	BYTE		        Gs3 
	BYTE		N04     Ds4 
	BYTE	W12
// 010   ----------------------------------------
	BYTE	W12
	BYTE		        Fs3 
	BYTE		N04     Cs4 
	BYTE	W24
	BYTE		        Fn3 
	BYTE		N04     Cn4 
	BYTE	W12
	BYTE		        Fn3 
	BYTE		N04     Cn4 
	BYTE	W24
	BYTE		        Fs3 
	BYTE		N04     Cs4 
	BYTE	W12
	BYTE		        Fs3 
	BYTE		N04     Cs4 
	BYTE	W12
// 011   ----------------------------------------
	BYTE	W12
	BYTE		        Fn3 
	BYTE		N04     Cn4 
	BYTE	W24
	BYTE		        Fs3 
	BYTE		N04     Cs4 
	BYTE	W24
	BYTE		        Fn3 
	BYTE		N04     Cn4 
	BYTE	W12
	BYTE		        Fn3 
	BYTE		N04     Cn4 
	BYTE	W24
// 012   ----------------------------------------
	BYTE		        Fs3 
	BYTE		N04     Cs4 
	BYTE	W12
	BYTE		        Fs3 
	BYTE		N04     Cs4 
	BYTE	W24
	BYTE		        Gs3 
	BYTE		N04     Ds4 
	BYTE	W24
	BYTE		        Fs3 
	BYTE		N04     Cs4 
	BYTE	W24
	BYTE		        Fn3 
	BYTE		N04     Cn4 
	BYTE	W12
// 013   ----------------------------------------
	BYTE		        Fn3 
	BYTE		N04     Cn4 
	BYTE	W24
	BYTE		        Fs3 
	BYTE		N04     Cs4 
	BYTE	W12
	BYTE		        Fs3 
	BYTE		N04     Cs4 
	BYTE	W24
	BYTE		        Gs3 
	BYTE		N04     Ds4 
	BYTE	W24
	BYTE		        An3 
	BYTE		N04     En4 
	BYTE	W12
// 014   ----------------------------------------
	BYTE	W96
// 015   ----------------------------------------
	BYTE	W96
// 016   ----------------------------------------
	BYTE		N32     Ds2   v060
	BYTE	W36
	BYTE		        Fn2 
	BYTE	W36
	BYTE		N21     Fs2 
	BYTE	W24
// 017   ----------------------------------------
	BYTE		        Gs2 
	BYTE	W24
	BYTE		N32     Fs2 
	BYTE	W36
	BYTE		        Gs2 
	BYTE	W36
// 018   ----------------------------------------
	BYTE		N21     An2 
	BYTE	W24
	BYTE		        Bn2 
	BYTE	W72
// 019   ----------------------------------------
	BYTE	W96
// 020   ----------------------------------------
	BYTE	W96
// 021   ----------------------------------------
	BYTE	W96
// 022   ----------------------------------------
	BYTE	W96
// 023   ----------------------------------------
	BYTE	W44
	BYTE	W02
	BYTE		N96     Bn3   v084
	BYTE	W48
	BYTE	W02
// 024   ----------------------------------------
	BYTE	W44
	BYTE	W02
	BYTE		        As3 
	BYTE	W48
	BYTE	W02
// 025   ----------------------------------------
	BYTE	W44
	BYTE	W02
	BYTE		        An3 
	BYTE	W48
	BYTE	W02
// 026   ----------------------------------------
	BYTE	W44
	BYTE	W02
	BYTE		        Gs3 
	BYTE	W48
	BYTE	W02
// 027   ----------------------------------------
	BYTE	W48
	BYTE	GoTo
	 POIN2	FF6TheUnforgivenRandomWizard_3_B10
FF6TheUnforgivenRandomWizard_3_B11:
	BYTE	FINE

//**************** Track 4 (Midi-Chn.4) ****************//

FF6TheUnforgivenRandomWizard_4:
	BYTE		VOL     127*FF6TheUnforgivenRandomWizard_mvl/mxv
	BYTE	KEYSH   FF6TheUnforgivenRandomWizard_key+0
FF6TheUnforgivenRandomWizard_4_B9:
// 000   ----------------------------------------
	BYTE		VOICE   65
	BYTE	W96
// 001   ----------------------------------------
	BYTE	W96
// 002   ----------------------------------------
	BYTE	W96
// 003   ----------------------------------------
	BYTE	W96
FF6TheUnforgivenRandomWizard_4_B10:
// 004   ----------------------------------------
	BYTE	W96
// 005   ----------------------------------------
	BYTE	W96
// 006   ----------------------------------------
	BYTE	W96
// 007   ----------------------------------------
	BYTE	W96
// 008   ----------------------------------------
	BYTE	W96
// 009   ----------------------------------------
	BYTE	W96
// 010   ----------------------------------------
	BYTE	W96
// 011   ----------------------------------------
	BYTE	W96
// 012   ----------------------------------------
	BYTE	W96
// 013   ----------------------------------------
	BYTE	W96
// 014   ----------------------------------------
	BYTE		N09     As3   v096
	BYTE	W12
	BYTE		N04     Gs3   v084
	BYTE	W06
	BYTE		        Fs3 
	BYTE	W06
	BYTE		        Fn3 
	BYTE	W06
	BYTE		        Ds3   v088
	BYTE	W06
	BYTE		        Cs3 
	BYTE	W06
	BYTE		        Cn3 
	BYTE	W06
	BYTE		N40     As2   v092
	BYTE	W48
// 015   ----------------------------------------
	BYTE		N10     Fs3   v084
	BYTE	W12
	BYTE		N05     Fn3 
	BYTE	W06
	BYTE		        Ds3 
	BYTE	W06
	BYTE		        Cs3   v088
	BYTE	W06
	BYTE		        Cn3 
	BYTE	W06
	BYTE		        As2 
	BYTE	W06
	BYTE		        Gs2 
	BYTE	W06
	BYTE		N42     Fs2   v092
	BYTE	W48
// 016   ----------------------------------------
	BYTE	W96
// 017   ----------------------------------------
	BYTE	W96
// 018   ----------------------------------------
	BYTE	W96
// 019   ----------------------------------------
	BYTE	W96
// 020   ----------------------------------------
	BYTE	W96
// 021   ----------------------------------------
	BYTE	W96
// 022   ----------------------------------------
	BYTE	W96
// 023   ----------------------------------------
	BYTE	W48
	BYTE		N96     Fn3   v064
	BYTE	W48
// 024   ----------------------------------------
	BYTE	W48
	BYTE		        En3 
	BYTE	W48
// 025   ----------------------------------------
	BYTE	W48
	BYTE		        Ds3 
	BYTE	W48
// 026   ----------------------------------------
	BYTE	W48
	BYTE		        Dn3 
	BYTE	W48
// 027   ----------------------------------------
	BYTE	W48
	BYTE	GoTo
	 POIN2	FF6TheUnforgivenRandomWizard_4_B10
FF6TheUnforgivenRandomWizard_4_B11:
	BYTE	FINE

//**************** Track 5 (Midi-Chn.5) ****************//

FF6TheUnforgivenRandomWizard_5:
	BYTE		VOL     127*FF6TheUnforgivenRandomWizard_mvl/mxv
	BYTE	KEYSH   FF6TheUnforgivenRandomWizard_key+0
FF6TheUnforgivenRandomWizard_5_B9:
// 000   ----------------------------------------
	BYTE		VOICE   66
	BYTE	W96
// 001   ----------------------------------------
	BYTE	W96
// 002   ----------------------------------------
	BYTE	W96
// 003   ----------------------------------------
	BYTE	W96
FF6TheUnforgivenRandomWizard_5_B10:
// 004   ----------------------------------------
	BYTE	W96
// 005   ----------------------------------------
	BYTE	W96
// 006   ----------------------------------------
	BYTE	W96
// 007   ----------------------------------------
	BYTE	W96
// 008   ----------------------------------------
	BYTE	W96
// 009   ----------------------------------------
	BYTE	W96
// 010   ----------------------------------------
	BYTE	W96
// 011   ----------------------------------------
	BYTE	W96
// 012   ----------------------------------------
	BYTE	W96
// 013   ----------------------------------------
	BYTE	W96
// 014   ----------------------------------------
	BYTE	W48
	BYTE		N10     Fs3   v076
	BYTE	W12
	BYTE		N05     Fn3 
	BYTE	W06
	BYTE		        Ds3 
	BYTE	W06
	BYTE		        Cs3 
	BYTE	W06
	BYTE		        Cn3 
	BYTE	W06
	BYTE		        As2 
	BYTE	W06
	BYTE		        Gs2 
	BYTE	W06
// 015   ----------------------------------------
	BYTE		N42     Fs2   v084
	BYTE	W48
	BYTE		N10     Ds3   v076
	BYTE	W12
	BYTE		N05     Cs3 
	BYTE	W06
	BYTE		        Cn3 
	BYTE	W06
	BYTE		        As2 
	BYTE	W06
	BYTE		        Gs2 
	BYTE	W06
	BYTE		        Fs2 
	BYTE	W06
	BYTE		        Fn2 
	BYTE	W06
// 016   ----------------------------------------
	BYTE		N32     Ds2   v100
	BYTE	W36
	BYTE		        Fn2   v096
	BYTE	W36
	BYTE		N21     Fs2 
	BYTE	W24
// 017   ----------------------------------------
	BYTE		        Gs2 
	BYTE	W24
	BYTE		N32     Fs2 
	BYTE	W36
	BYTE		        Gs2 
	BYTE	W36
// 018   ----------------------------------------
	BYTE		N21     An2 
	BYTE	W24
	BYTE		        Bn2 
	BYTE	W72
// 019   ----------------------------------------
	BYTE	W96
// 020   ----------------------------------------
	BYTE	W96
// 021   ----------------------------------------
	BYTE	W96
// 022   ----------------------------------------
	BYTE	W96
// 023   ----------------------------------------
	BYTE	W96
// 024   ----------------------------------------
	BYTE	W96
// 025   ----------------------------------------
	BYTE	W96
// 026   ----------------------------------------
	BYTE	W96
// 027   ----------------------------------------
	BYTE	W48
	BYTE	GoTo
	 POIN2	FF6TheUnforgivenRandomWizard_5_B10
FF6TheUnforgivenRandomWizard_5_B11:
	BYTE	FINE

//**************** Track 6 (Midi-Chn.6) ****************//

FF6TheUnforgivenRandomWizard_6:
	BYTE		VOL     127*FF6TheUnforgivenRandomWizard_mvl/mxv
	BYTE	KEYSH   FF6TheUnforgivenRandomWizard_key+0
FF6TheUnforgivenRandomWizard_6_B9:
// 000   ----------------------------------------
	BYTE		VOICE   73
	BYTE	W96
// 001   ----------------------------------------
	BYTE	W96
// 002   ----------------------------------------
	BYTE	W96
// 003   ----------------------------------------
	BYTE	W96
FF6TheUnforgivenRandomWizard_6_B10:
// 004   ----------------------------------------
	BYTE	W96
// 005   ----------------------------------------
	BYTE	W96
// 006   ----------------------------------------
	BYTE	W96
// 007   ----------------------------------------
	BYTE	W96
// 008   ----------------------------------------
	BYTE	W96
// 009   ----------------------------------------
	BYTE	W96
// 010   ----------------------------------------
	BYTE	W96
// 011   ----------------------------------------
	BYTE	W96
// 012   ----------------------------------------
	BYTE	W96
// 013   ----------------------------------------
	BYTE	W92
	BYTE	W03
	BYTE		N09     As3   v100
	BYTE	W01
// 014   ----------------------------------------
	BYTE	W11
	BYTE		N04     Gs3 
	BYTE	W06
	BYTE		        Fs3 
	BYTE	W06
	BYTE		        Fn3 
	BYTE	W06
	BYTE		        Ds3 
	BYTE	W06
	BYTE		        Cs3 
	BYTE	W06
	BYTE		        Cn3 
	BYTE	W06
	BYTE		N36     As2 
	BYTE		N10     Fs3   v080
	BYTE	W12
	BYTE		N05     Fn3 
	BYTE	W06
	BYTE		        Ds3 
	BYTE	W06
	BYTE		        Cs3 
	BYTE	W06
	BYTE		        Cn3 
	BYTE	W06
	BYTE		        As2 
	BYTE	W06
	BYTE		        Gs2 
	BYTE	W06
	BYTE		N42     Fs2   v100
	BYTE		N10     Fs3 
	BYTE	W01
// 015   ----------------------------------------
	BYTE	W11
	BYTE		N05     Fn3 
	BYTE	W06
	BYTE		        Ds3 
	BYTE	W06
	BYTE		        Cs3 
	BYTE	W06
	BYTE		        Cn3 
	BYTE	W06
	BYTE		        As2 
	BYTE	W06
	BYTE		        Gs2 
	BYTE	W06
	BYTE		N36     Fs2 
	BYTE		N10     Ds3   v080
	BYTE	W12
	BYTE		N05     Cs3 
	BYTE	W06
	BYTE		        Cn3 
	BYTE	W06
	BYTE		        As2 
	BYTE	W06
	BYTE		        Gs2 
	BYTE	W06
	BYTE		        Fs2 
	BYTE	W06
	BYTE		        Fn2 
	BYTE	W07
// 016   ----------------------------------------
	BYTE	W96
// 017   ----------------------------------------
	BYTE	W96
// 018   ----------------------------------------
	BYTE	W96
// 019   ----------------------------------------
	BYTE	W96
// 020   ----------------------------------------
	BYTE	W96
// 021   ----------------------------------------
	BYTE	W96
// 022   ----------------------------------------
	BYTE	W96
// 023   ----------------------------------------
	BYTE	W44
	BYTE	W03
	BYTE		N96     Fn2   v112
	BYTE	W48
	BYTE	W01
// 024   ----------------------------------------
	BYTE	W44
	BYTE	W03
	BYTE		        En2 
	BYTE	W48
	BYTE	W01
// 025   ----------------------------------------
	BYTE	W44
	BYTE	W03
	BYTE		        Ds2 
	BYTE	W48
	BYTE	W01
// 026   ----------------------------------------
	BYTE	W44
	BYTE	W03
	BYTE		        Dn2 
	BYTE	W48
	BYTE	W01
// 027   ----------------------------------------
	BYTE	W48
	BYTE	GoTo
	 POIN2	FF6TheUnforgivenRandomWizard_6_B10
FF6TheUnforgivenRandomWizard_6_B11:
	BYTE	FINE

//**************** Track 7 (Midi-Chn.7) ****************//

FF6TheUnforgivenRandomWizard_7:
	BYTE		VOL     127*FF6TheUnforgivenRandomWizard_mvl/mxv
	BYTE	KEYSH   FF6TheUnforgivenRandomWizard_key+0
FF6TheUnforgivenRandomWizard_7_B9:
// 000   ----------------------------------------
	BYTE		VOICE   56
	BYTE		N21     As1   v072
	BYTE		N21     As2   v076
	BYTE	W24
	BYTE		        Gs1   v072
	BYTE		N21     Gs2   v076
	BYTE	W24
	BYTE		        Gn1   v072
	BYTE		N21     Gn2   v076
	BYTE	W24
	BYTE		        Fn1   v072
	BYTE		N21     Fn2   v076
	BYTE	W24
// 001   ----------------------------------------
	BYTE		N12     Gn1   v072
	BYTE		N12     Gn2   v076
	BYTE	W12
	BYTE		        Fn1   v072
	BYTE		N12     Fn2   v076
	BYTE	W12
	BYTE		        Ds1   v072
	BYTE		N12     Ds2   v076
	BYTE	W12
	BYTE		N21     Cs1   v072
	BYTE		N21     Cs2   v076
	BYTE	W24
	BYTE		N12     Fn1   v072
	BYTE		N12     Fn2   v076
	BYTE	W12
	BYTE		N21     Cs1   v072
	BYTE		N21     Cs2   v076
	BYTE	W24
// 002   ----------------------------------------
FF6TheUnforgivenRandomWizard_7_002:
	BYTE		N09     Cn2   v080
	BYTE	W12
	BYTE		        Gn1 
	BYTE	W12
	BYTE		        Cn2 
	BYTE	W12
	BYTE		        Cs2 
	BYTE	W12
	BYTE		        Cn2 
	BYTE	W12
	BYTE		        Gn1 
	BYTE	W12
	BYTE		        Cn2 
	BYTE	W12
	BYTE		        Cs2 
	BYTE	W12
	BYTE	PEND
// 003   ----------------------------------------
	BYTE	PATT
	 POIN2	FF6TheUnforgivenRandomWizard_7_002
FF6TheUnforgivenRandomWizard_7_B10:
// 004   ----------------------------------------
	BYTE		N12     Cn1   v084
	BYTE	W36
	BYTE		        Cs1 
	BYTE	W36
	BYTE		        Ds1 
	BYTE	W24
// 005   ----------------------------------------
	BYTE		        Gn0 
	BYTE	W24
	BYTE		        Cn1 
	BYTE	W36
	BYTE		        Cs1 
	BYTE	W36
// 006   ----------------------------------------
	BYTE		        Cn1 
	BYTE	W12
	BYTE		        Gn0 
	BYTE	W12
	BYTE		        Cn1 
	BYTE	W12
	BYTE		        Cs1 
	BYTE	W12
	BYTE		        Cn1 
	BYTE	W36
	BYTE		        Cs1 
	BYTE	W12
// 007   ----------------------------------------
	BYTE	W24
	BYTE		        Ds1 
	BYTE	W24
	BYTE		        Gn0 
	BYTE	W24
	BYTE		        Cn1 
	BYTE	W24
// 008   ----------------------------------------
	BYTE	W12
	BYTE		        Cs1 
	BYTE	W36
	BYTE		        Ds1 
	BYTE	W24
	BYTE		        En1 
	BYTE	W24
// 009   ----------------------------------------
	BYTE		        Fn1 
	BYTE	W36
	BYTE		        Fs1 
	BYTE	W36
	BYTE		        Gs1 
	BYTE	W24
// 010   ----------------------------------------
	BYTE		        Cn1 
	BYTE	W24
	BYTE		        Fn1 
	BYTE	W36
	BYTE		        Fs1 
	BYTE	W36
// 011   ----------------------------------------
	BYTE		        Fn1 
	BYTE	W12
	BYTE		        Cn1 
	BYTE	W12
	BYTE		        Fn1 
	BYTE	W12
	BYTE		        Fs1 
	BYTE	W12
	BYTE		        Fn1 
	BYTE	W36
	BYTE		        Fs1 
	BYTE	W12
// 012   ----------------------------------------
	BYTE	W24
	BYTE		        Gs1 
	BYTE	W24
	BYTE		        Cn1 
	BYTE	W24
	BYTE		        Fn1 
	BYTE	W24
// 013   ----------------------------------------
	BYTE	W12
	BYTE		        Fs1 
	BYTE	W36
	BYTE		        Gs1 
	BYTE	W24
	BYTE		        An1 
	BYTE	W24
// 014   ----------------------------------------
	BYTE	W96
// 015   ----------------------------------------
	BYTE	W96
// 016   ----------------------------------------
	BYTE	W96
// 017   ----------------------------------------
	BYTE	W96
// 018   ----------------------------------------
	BYTE	W96
// 019   ----------------------------------------
	BYTE	W96
// 020   ----------------------------------------
	BYTE	W96
// 021   ----------------------------------------
	BYTE	W96
// 022   ----------------------------------------
	BYTE	W96
// 023   ----------------------------------------
	BYTE	W48
	BYTE		N48     Fn1   v096
	BYTE	W48
// 024   ----------------------------------------
	BYTE		N48   
	BYTE	W48
	BYTE		N96     En1 
	BYTE	W48
// 025   ----------------------------------------
	BYTE	W48
	BYTE		        Ds1 
	BYTE	W48
// 026   ----------------------------------------
	BYTE	W48
	BYTE		        Dn1 
	BYTE	W48
// 027   ----------------------------------------
	BYTE	W48
	BYTE	GoTo
	 POIN2	FF6TheUnforgivenRandomWizard_7_B10
FF6TheUnforgivenRandomWizard_7_B11:
	BYTE	FINE

//**************** Track 8 (Midi-Chn.8) ****************//

FF6TheUnforgivenRandomWizard_8:
	BYTE		VOL     127*FF6TheUnforgivenRandomWizard_mvl/mxv
	BYTE	KEYSH   FF6TheUnforgivenRandomWizard_key+0
FF6TheUnforgivenRandomWizard_8_B9:
// 000   ----------------------------------------
	BYTE		VOICE   47
	BYTE		N15     As1   v084
	BYTE	W96
// 001   ----------------------------------------
	BYTE	W48
	BYTE		N04     Gn1   v060
	BYTE	W06
	BYTE		        Gn1   v064
	BYTE	W06
	BYTE		        Gn1   v068
	BYTE	W06
	BYTE		        Gn1   v072
	BYTE	W06
	BYTE		N04   
	BYTE	W06
	BYTE		        Gn1   v076
	BYTE	W06
	BYTE		        Gn1   v080
	BYTE	W06
	BYTE		        Gn1   v084
	BYTE	W06
// 002   ----------------------------------------
	BYTE		N09     Cn2 
	BYTE	W96
// 003   ----------------------------------------
	BYTE	W48
	BYTE		N04     Gn1   v060
	BYTE	W06
	BYTE		        Gn1   v064
	BYTE	W06
	BYTE		N04   
	BYTE	W06
	BYTE		        Gn1   v068
	BYTE	W06
	BYTE		        Gn1   v072
	BYTE	W06
	BYTE		N04   
	BYTE	W06
	BYTE		        Gn1   v076
	BYTE	W06
	BYTE		        Gn1   v080
	BYTE	W06
FF6TheUnforgivenRandomWizard_8_B10:
// 004   ----------------------------------------
	BYTE		N09     Cn2   v080
	BYTE	W36
	BYTE		        Cs2 
	BYTE	W36
	BYTE		        Ds2 
	BYTE	W24
// 005   ----------------------------------------
	BYTE		        Gn1 
	BYTE	W24
	BYTE		        Cn2 
	BYTE	W36
	BYTE		        Cs2 
	BYTE	W36
// 006   ----------------------------------------
	BYTE		        Cn2 
	BYTE	W12
	BYTE		        Gn1 
	BYTE	W12
	BYTE		        Cn2 
	BYTE	W12
	BYTE		        Cs2 
	BYTE	W12
	BYTE		        Cn2 
	BYTE	W36
	BYTE		        Cs2 
	BYTE	W12
// 007   ----------------------------------------
	BYTE	W24
	BYTE		        Ds2 
	BYTE	W24
	BYTE		        Gn1 
	BYTE	W24
	BYTE		        Cn2 
	BYTE	W24
// 008   ----------------------------------------
	BYTE	W12
	BYTE		        Cs2 
	BYTE	W36
	BYTE		        Ds2 
	BYTE	W24
	BYTE		        En2 
	BYTE	W24
// 009   ----------------------------------------
	BYTE		        Fn2 
	BYTE	W36
	BYTE		        Fs2 
	BYTE	W36
	BYTE		        Gs2 
	BYTE	W24
// 010   ----------------------------------------
	BYTE		        Cn2 
	BYTE	W24
	BYTE		        Fn2 
	BYTE	W36
	BYTE		        Fs2 
	BYTE	W36
// 011   ----------------------------------------
	BYTE		        Fn2 
	BYTE	W12
	BYTE		        Cn2 
	BYTE	W12
	BYTE		        Fn2 
	BYTE	W12
	BYTE		        Fs2 
	BYTE	W12
	BYTE		        Fn2 
	BYTE	W36
	BYTE		        Fs2 
	BYTE	W12
// 012   ----------------------------------------
	BYTE	W24
	BYTE		        Gs2 
	BYTE	W24
	BYTE		        Cn2 
	BYTE	W24
	BYTE		        Fn2 
	BYTE	W24
// 013   ----------------------------------------
	BYTE	W12
	BYTE		        Fs2 
	BYTE	W36
	BYTE		        Gs2 
	BYTE	W24
	BYTE		        An2 
	BYTE	W24
// 014   ----------------------------------------
	BYTE		N24     Fn1 
	BYTE	W96
// 015   ----------------------------------------
	BYTE		        Dn1   v084
	BYTE	W48
	BYTE		N06     Ds1   v060
	BYTE	W06
	BYTE		        Ds1   v064
	BYTE	W06
	BYTE		        Ds1   v068
	BYTE	W06
	BYTE		        Ds1   v072
	BYTE	W06
	BYTE		        Ds1   v076
	BYTE	W06
	BYTE		        Ds1   v080
	BYTE	W06
	BYTE		        Ds1   v084
	BYTE	W06
	BYTE		        Ds1   v092
	BYTE	W06
// 016   ----------------------------------------
	BYTE		N24     Ds2   v088
	BYTE	W36
	BYTE		N24   
	BYTE	W36
	BYTE		        Ds2   v084
	BYTE	W24
// 017   ----------------------------------------
	BYTE		        As1   v080
	BYTE	W24
	BYTE		        Bn1 
	BYTE	W36
	BYTE		N24   
	BYTE	W36
// 018   ----------------------------------------
	BYTE		N24   
	BYTE	W24
	BYTE		N24   
	BYTE	W24
	BYTE		N07     Ds2 
	BYTE	W12
	BYTE		N03     As1 
	BYTE	W06
	BYTE		N03   
	BYTE	W06
	BYTE		N03   
	BYTE	W12
	BYTE		N07     Ds2 
	BYTE	W12
// 019   ----------------------------------------
	BYTE		N03     As1 
	BYTE	W06
	BYTE		N03   
	BYTE	W06
	BYTE		N03   
	BYTE	W12
	BYTE		N07     Ds2 
	BYTE	W12
	BYTE		        As1 
	BYTE	W12
	BYTE		        En2 
	BYTE	W12
	BYTE		        As1 
	BYTE	W12
	BYTE		        Ds2 
	BYTE	W12
	BYTE		N03     As1 
	BYTE	W06
	BYTE		N03   
	BYTE	W06
// 020   ----------------------------------------
	BYTE		N03   
	BYTE	W12
	BYTE		N07     Ds2 
	BYTE	W12
	BYTE		N03     As1 
	BYTE	W06
	BYTE		N03   
	BYTE	W06
	BYTE		N03   
	BYTE	W12
	BYTE		N07     Cs2 
	BYTE	W12
	BYTE		        As1 
	BYTE	W12
	BYTE		        Dn2 
	BYTE	W12
	BYTE		        As1 
	BYTE	W12
// 021   ----------------------------------------
	BYTE		        Ds2 
	BYTE	W12
	BYTE		N03     As1 
	BYTE	W06
	BYTE		N03   
	BYTE	W06
	BYTE		N03   
	BYTE	W12
	BYTE		N07     Ds2 
	BYTE	W12
	BYTE		N03     As1 
	BYTE	W06
	BYTE		N03   
	BYTE	W06
	BYTE		N03   
	BYTE	W12
	BYTE		N07     Ds2 
	BYTE	W12
	BYTE		        As1 
	BYTE	W12
// 022   ----------------------------------------
	BYTE		        En2 
	BYTE	W12
	BYTE		        As1 
	BYTE	W12
	BYTE		        Ds2 
	BYTE	W12
	BYTE		N03     As1 
	BYTE	W06
	BYTE		N03   
	BYTE	W06
	BYTE		N03   
	BYTE	W12
	BYTE		N07     Ds2 
	BYTE	W12
	BYTE		N03     As1 
	BYTE	W06
	BYTE		N03   
	BYTE	W06
	BYTE		N03   
	BYTE	W12
// 023   ----------------------------------------
	BYTE		N07     Cs2 
	BYTE	W12
	BYTE		        As1 
	BYTE	W12
	BYTE		        Dn2 
	BYTE	W12
	BYTE		        As1 
	BYTE	W12
	BYTE		        Fn1 
	BYTE	W12
	BYTE		        Dn1 
	BYTE	W12
	BYTE		        Fn1 
	BYTE	W12
	BYTE		        Dn1 
	BYTE	W12
// 024   ----------------------------------------
	BYTE		        Fn1 
	BYTE	W12
	BYTE		        Dn1 
	BYTE	W12
	BYTE		        Fn1 
	BYTE	W12
	BYTE		        Dn1 
	BYTE	W12
	BYTE		        En1 
	BYTE	W12
	BYTE		        Cs1 
	BYTE	W12
	BYTE		        En1 
	BYTE	W12
	BYTE		        Cs1 
	BYTE	W12
// 025   ----------------------------------------
	BYTE		        En1 
	BYTE	W12
	BYTE		        Cs1 
	BYTE	W12
	BYTE		        En1 
	BYTE	W12
	BYTE		        Cs1 
	BYTE	W12
	BYTE		        Ds1 
	BYTE	W12
	BYTE		        Cn1 
	BYTE	W12
	BYTE		        Ds1 
	BYTE	W12
	BYTE		        Cn1 
	BYTE	W12
// 026   ----------------------------------------
	BYTE		        Ds1 
	BYTE	W12
	BYTE		        Cn1 
	BYTE	W12
	BYTE		        Ds1 
	BYTE	W12
	BYTE		        Cn1 
	BYTE	W12
	BYTE		        Dn1 
	BYTE	W12
	BYTE		        Cn1 
	BYTE	W12
	BYTE		        Dn1 
	BYTE	W12
	BYTE		        Cn1 
	BYTE	W12
// 027   ----------------------------------------
	BYTE		        Dn1 
	BYTE	W12
	BYTE		        Cn1 
	BYTE	W12
	BYTE		        Dn1 
	BYTE	W12
	BYTE		        Cn1 
	BYTE	W12
	BYTE	GoTo
	 POIN2	FF6TheUnforgivenRandomWizard_8_B10
FF6TheUnforgivenRandomWizard_8_B11:
	BYTE	FINE

//**************** Track 9 (Midi-Chn.9) ****************//

FF6TheUnforgivenRandomWizard_9:
	BYTE		VOL     127*FF6TheUnforgivenRandomWizard_mvl/mxv
	BYTE	KEYSH   FF6TheUnforgivenRandomWizard_key+0
FF6TheUnforgivenRandomWizard_9_B9:
// 000   ----------------------------------------
	BYTE		VOICE   0
	BYTE		N07     An2   v044
	BYTE	W96
// 001   ----------------------------------------
	BYTE	W96
// 002   ----------------------------------------
	BYTE		N01     En1   v020
	BYTE	W12
	BYTE		        Dn1   v024
	BYTE	W06
	BYTE		        En1 
	BYTE	W06
	BYTE		        Dn1 
	BYTE	W12
	BYTE		        En1   v028
	BYTE	W06
	BYTE		        Dn1 
	BYTE	W06
	BYTE		        En1 
	BYTE	W12
	BYTE		        Dn1   v032
	BYTE	W06
	BYTE		        En1 
	BYTE	W06
	BYTE		        Dn1 
	BYTE	W12
	BYTE		        En1 
	BYTE	W06
	BYTE		        Dn1   v036
	BYTE	W06
// 003   ----------------------------------------
	BYTE		        En1 
	BYTE	W12
	BYTE		        Dn1   v040
	BYTE	W06
	BYTE		        En1 
	BYTE	W06
	BYTE		        Dn1 
	BYTE	W12
	BYTE		        En1   v044
	BYTE	W06
	BYTE		        Dn1 
	BYTE	W06
	BYTE		        En1 
	BYTE	W12
	BYTE		        Dn1 
	BYTE	W12
	BYTE		        En1   v048
	BYTE	W06
	BYTE		        Dn1 
	BYTE	W06
	BYTE		        En1 
	BYTE	W06
	BYTE		        Dn1   v052
	BYTE	W06
FF6TheUnforgivenRandomWizard_9_B10:
// 004   ----------------------------------------
FF6TheUnforgivenRandomWizard_9_004:
	BYTE		N01     En1   v044
	BYTE		N01     An2   v060
	BYTE	W06
	BYTE		        Dn1   v044
	BYTE	W06
	BYTE		        En1   v048
	BYTE	W06
	BYTE		        Dn1 
	BYTE	W06
	BYTE		        En1   v052
	BYTE	W12
	BYTE		        Dn1   v044
	BYTE	W06
	BYTE		        En1 
	BYTE	W06
	BYTE		        Dn1   v048
	BYTE	W06
	BYTE		        En1 
	BYTE	W06
	BYTE		        Dn1   v052
	BYTE	W12
	BYTE		        En1 
	BYTE	W12
	BYTE		        Dn1   v032
	BYTE	W06
	BYTE		        En1 
	BYTE	W06
	BYTE	PEND
// 005   ----------------------------------------
FF6TheUnforgivenRandomWizard_9_005:
	BYTE		N01     Dn1   v052
	BYTE	W12
	BYTE		        En1   v032
	BYTE	W06
	BYTE		        Dn1 
	BYTE	W06
	BYTE		        En1   v044
	BYTE		N01     An2   v060
	BYTE	W06
	BYTE		        Dn1   v044
	BYTE	W06
	BYTE		        En1   v048
	BYTE	W06
	BYTE		        Dn1 
	BYTE	W06
	BYTE		        En1   v052
	BYTE	W12
	BYTE		        Dn1   v044
	BYTE	W06
	BYTE		        En1 
	BYTE	W06
	BYTE		        Dn1   v048
	BYTE	W06
	BYTE		        En1 
	BYTE	W06
	BYTE		        Dn1   v052
	BYTE	W12
	BYTE	PEND
// 006   ----------------------------------------
FF6TheUnforgivenRandomWizard_9_006:
	BYTE		N01     En1   v052
	BYTE		N01     An2   v060
	BYTE	W12
	BYTE		        Dn1   v032
	BYTE	W06
	BYTE		        En1 
	BYTE	W06
	BYTE		        Dn1   v052
	BYTE		N01     An2   v060
	BYTE	W12
	BYTE		        En1   v032
	BYTE	W06
	BYTE		        Dn1 
	BYTE	W06
	BYTE		        En1   v044
	BYTE		N01     An2   v060
	BYTE	W06
	BYTE		        Dn1   v044
	BYTE	W06
	BYTE		        En1   v048
	BYTE	W06
	BYTE		        Dn1 
	BYTE	W06
	BYTE		        En1   v052
	BYTE	W12
	BYTE		        Dn1   v044
	BYTE	W06
	BYTE		        En1 
	BYTE	W06
	BYTE	PEND
// 007   ----------------------------------------
FF6TheUnforgivenRandomWizard_9_007:
	BYTE		N01     Dn1   v048
	BYTE	W06
	BYTE		        En1 
	BYTE	W06
	BYTE		        Dn1   v052
	BYTE	W12
	BYTE		        En1 
	BYTE	W12
	BYTE		        Dn1   v032
	BYTE	W06
	BYTE		        En1 
	BYTE	W06
	BYTE		        Dn1   v052
	BYTE	W12
	BYTE		        En1   v032
	BYTE	W06
	BYTE		        Dn1 
	BYTE	W06
	BYTE		        En1   v044
	BYTE		N01     An2   v060
	BYTE	W06
	BYTE		        Dn1   v044
	BYTE	W06
	BYTE		        En1   v048
	BYTE	W06
	BYTE		        Dn1 
	BYTE	W06
	BYTE	PEND
// 008   ----------------------------------------
FF6TheUnforgivenRandomWizard_9_008:
	BYTE		N01     En1   v052
	BYTE	W12
	BYTE		        Dn1   v044
	BYTE	W06
	BYTE		        En1 
	BYTE	W06
	BYTE		        Dn1   v048
	BYTE	W06
	BYTE		        En1 
	BYTE	W06
	BYTE		        Dn1   v052
	BYTE	W12
	BYTE		        En1 
	BYTE		N01     An2   v060
	BYTE	W12
	BYTE		        Dn1   v032
	BYTE	W06
	BYTE		        En1 
	BYTE	W06
	BYTE		        Dn1   v052
	BYTE		N01     An2   v060
	BYTE	W12
	BYTE		        En1   v032
	BYTE	W06
	BYTE		        Dn1 
	BYTE	W06
	BYTE	PEND
// 009   ----------------------------------------
	BYTE	PATT
	 POIN2	FF6TheUnforgivenRandomWizard_9_004
// 010   ----------------------------------------
	BYTE	PATT
	 POIN2	FF6TheUnforgivenRandomWizard_9_005
// 011   ----------------------------------------
	BYTE	PATT
	 POIN2	FF6TheUnforgivenRandomWizard_9_006
// 012   ----------------------------------------
	BYTE	PATT
	 POIN2	FF6TheUnforgivenRandomWizard_9_007
// 013   ----------------------------------------
	BYTE	PATT
	 POIN2	FF6TheUnforgivenRandomWizard_9_008
// 014   ----------------------------------------
	BYTE		N01     En1   v052
	BYTE		N01     An2   v060
	BYTE	W12
	BYTE		        Dn1   v052
	BYTE	W06
	BYTE		        En1 
	BYTE	W06
	BYTE		        Dn1 
	BYTE	W06
	BYTE		        En1 
	BYTE	W06
	BYTE		        Dn1 
	BYTE	W06
	BYTE		        En1 
	BYTE	W06
	BYTE		        Dn1   v048
	BYTE	W03
	BYTE		        En1 
	BYTE	W03
	BYTE		        Dn1   v044
	BYTE	W03
	BYTE		        En1 
	BYTE	W03
	BYTE		        Dn1 
	BYTE	W03
	BYTE		        En1 
	BYTE	W03
	BYTE		        Dn1   v040
	BYTE	W03
	BYTE		        En1 
	BYTE	W03
	BYTE		        Dn1   v036
	BYTE	W03
	BYTE		        En1 
	BYTE	W03
	BYTE		        Dn1   v032
	BYTE	W03
	BYTE		        En1 
	BYTE	W03
	BYTE		        Dn1 
	BYTE	W03
	BYTE		        En1 
	BYTE	W03
	BYTE		        Dn1   v028
	BYTE	W03
	BYTE		        En1 
	BYTE	W03
// 015   ----------------------------------------
	BYTE		        Dn1   v052
	BYTE	W12
	BYTE		        En1 
	BYTE	W06
	BYTE		        Dn1 
	BYTE	W06
	BYTE		        En1 
	BYTE	W06
	BYTE		        Dn1 
	BYTE	W06
	BYTE		        En1 
	BYTE	W06
	BYTE		        Dn1 
	BYTE	W06
	BYTE		        En1   v048
	BYTE	W03
	BYTE		        Dn1 
	BYTE	W03
	BYTE		        En1   v044
	BYTE	W03
	BYTE		        Dn1 
	BYTE	W03
	BYTE		        En1 
	BYTE	W03
	BYTE		        Dn1 
	BYTE	W03
	BYTE		        En1   v040
	BYTE	W03
	BYTE		        Dn1 
	BYTE	W03
	BYTE		        En1   v036
	BYTE	W03
	BYTE		        Dn1 
	BYTE	W03
	BYTE		        En1   v032
	BYTE	W03
	BYTE		        Dn1 
	BYTE	W03
	BYTE		        En1 
	BYTE	W03
	BYTE		        Dn1 
	BYTE	W03
	BYTE		        En1   v028
	BYTE	W03
	BYTE		        Dn1 
	BYTE	W03
// 016   ----------------------------------------
	BYTE		        En1   v052
	BYTE	W12
	BYTE		        Dn1   v032
	BYTE	W06
	BYTE		        En1   v040
	BYTE	W06
	BYTE		        Dn1   v052
	BYTE	W12
	BYTE		        En1 
	BYTE	W12
	BYTE		        Dn1   v032
	BYTE	W06
	BYTE		        En1   v040
	BYTE	W06
	BYTE		        Dn1   v052
	BYTE	W12
	BYTE		        En1 
	BYTE	W12
	BYTE		        Dn1   v032
	BYTE	W06
	BYTE		        En1   v040
	BYTE	W06
// 017   ----------------------------------------
	BYTE		        Dn1   v052
	BYTE	W12
	BYTE		        En1   v032
	BYTE	W06
	BYTE		        Dn1   v040
	BYTE	W06
	BYTE		        En1   v052
	BYTE	W12
	BYTE		        Dn1   v032
	BYTE	W06
	BYTE		        En1   v040
	BYTE	W06
	BYTE		        Dn1   v052
	BYTE	W12
	BYTE		        En1 
	BYTE	W12
	BYTE		        Dn1   v032
	BYTE	W06
	BYTE		        En1   v040
	BYTE	W06
	BYTE		        Dn1   v052
	BYTE	W12
// 018   ----------------------------------------
	BYTE		        En1 
	BYTE	W12
	BYTE		        Dn1   v032
	BYTE	W06
	BYTE		        En1   v040
	BYTE	W06
	BYTE		        Dn1   v052
	BYTE	W06
	BYTE		        En1 
	BYTE	W06
	BYTE		        Dn1 
	BYTE	W06
	BYTE		        En1 
	BYTE	W06
	BYTE		        Dn1 
	BYTE	W12
	BYTE		        En1   v032
	BYTE	W12
	BYTE		        Dn1 
	BYTE	W12
	BYTE		        En1   v052
	BYTE	W12
// 019   ----------------------------------------
	BYTE		        Dn1   v032
	BYTE	W12
	BYTE		        En1 
	BYTE	W12
	BYTE		        Dn1   v052
	BYTE	W12
	BYTE		        En1   v032
	BYTE	W12
	BYTE		        Dn1   v052
	BYTE	W12
	BYTE		        En1   v032
	BYTE	W12
	BYTE		        Dn1   v052
	BYTE	W12
	BYTE		        En1   v032
	BYTE	W12
// 020   ----------------------------------------
	BYTE		        Dn1 
	BYTE	W12
	BYTE		        En1   v052
	BYTE	W12
	BYTE		        Dn1   v032
	BYTE	W12
	BYTE		        En1 
	BYTE	W12
	BYTE		        Dn1   v052
	BYTE	W12
	BYTE		        En1   v032
	BYTE	W12
	BYTE		        Dn1   v052
	BYTE	W12
	BYTE		        En1   v032
	BYTE	W12
// 021   ----------------------------------------
	BYTE		        Dn1   v052
	BYTE	W12
	BYTE		        En1   v032
	BYTE	W12
	BYTE		        Dn1 
	BYTE	W12
	BYTE		        En1   v052
	BYTE	W12
	BYTE		        Dn1   v032
	BYTE	W12
	BYTE		        En1 
	BYTE	W12
	BYTE		        Dn1   v052
	BYTE	W12
	BYTE		        En1   v032
	BYTE	W12
// 022   ----------------------------------------
	BYTE		        Dn1   v052
	BYTE	W12
	BYTE		        En1   v032
	BYTE	W12
	BYTE		        Dn1   v052
	BYTE	W12
	BYTE		        En1   v032
	BYTE	W12
	BYTE		        Dn1 
	BYTE	W12
	BYTE		        En1   v052
	BYTE	W12
	BYTE		        Dn1   v032
	BYTE	W12
	BYTE		        En1 
	BYTE	W12
// 023   ----------------------------------------
	BYTE		        Dn1   v052
	BYTE	W12
	BYTE		        En1   v032
	BYTE	W12
	BYTE		        Dn1   v052
	BYTE	W12
	BYTE		        En1   v032
	BYTE	W12
	BYTE		        An2   v060
	BYTE	W48
// 024   ----------------------------------------
	BYTE	W48
	BYTE		N01   
	BYTE	W48
// 025   ----------------------------------------
	BYTE	W48
	BYTE		N01   
	BYTE	W48
// 026   ----------------------------------------
	BYTE	W48
	BYTE		N01   
	BYTE	W48
// 027   ----------------------------------------
	BYTE	W48
	BYTE	GoTo
	 POIN2	FF6TheUnforgivenRandomWizard_9_B10
FF6TheUnforgivenRandomWizard_9_B11:
	BYTE	FINE

//******************************************************//
	ALIGN 4

FF6TheUnforgivenRandomWizard:
	BYTE	9	// NumTrks
	BYTE	0	// NumBlks
	BYTE	FF6TheUnforgivenRandomWizard_pri	// Priority
	BYTE	FF6TheUnforgivenRandomWizard_rev	// Reverb.

	POIN2	FF6TheUnforgivenRandomWizard_grp

	POIN2	FF6TheUnforgivenRandomWizard_1
	POIN2	FF6TheUnforgivenRandomWizard_2
	POIN2	FF6TheUnforgivenRandomWizard_3
	POIN2	FF6TheUnforgivenRandomWizard_4
	POIN2	FF6TheUnforgivenRandomWizard_5
	POIN2	FF6TheUnforgivenRandomWizard_6
	POIN2	FF6TheUnforgivenRandomWizard_7
	POIN2	FF6TheUnforgivenRandomWizard_8
	POIN2	FF6TheUnforgivenRandomWizard_9

	
