//Event file generated from Sappy .s format.
	#include "MPlayDef.event"

	#define	FF6TroopsMarchonTristanHollow_grp  voicegroup000
	#define	FF6TroopsMarchonTristanHollow_pri  10
	#define	FF6TroopsMarchonTristanHollow_rev  180
	#define	FF6TroopsMarchonTristanHollow_mvl  127
	#define	FF6TroopsMarchonTristanHollow_key  0
	#define	FF6TroopsMarchonTristanHollow_tbs  1
	#define	FF6TroopsMarchonTristanHollow_exg  0
	#define	FF6TroopsMarchonTristanHollow_cmp  1

	// .rodata
	//	FF6TroopsMarchonTristanHollow
	ALIGN 4


//**************** Track 1 (Midi-Chn.0) ****************//

FF6TroopsMarchonTristanHollow_001:
// 000   ----------------------------------------
 BYTE   KEYSH   FF6TroopsMarchonTristanHollow_key+0
 BYTE   TEMPO   140*FF6TroopsMarchonTristanHollow_tbs/2
 BYTE   VOICE   48
 BYTE   VOL   29*FF6TroopsMarchonTristanHollow_mvl/mxv
 BYTE   PAN   c_v-17
 BYTE   N10  Cn3  v116
 BYTE   W24
 BYTE   N06  Cn3  v116
 BYTE   W12
 BYTE   N06  Cn3  v116
 BYTE   W12
 BYTE   N22  Cs3  v116
 BYTE   W24
 BYTE   N10  Cn3  v116
 BYTE   W48
// 001   ----------------------------------------
 BYTE   N06  Cn3  v116
 BYTE   W12
 BYTE   N06  Cn3  v116
 BYTE   W12
 BYTE   N22  Cs3  v116
 BYTE   W24
 BYTE   N10  Bn2  v116
 BYTE   W24
 BYTE   N22  Cs3  v116
 BYTE   W24
// 002   ----------------------------------------
 BYTE   N10  Cn3  v116
 BYTE   W24
 BYTE   N22  Cs3  v116
 BYTE   W24
 BYTE   N10  Cn3  v116
 BYTE   W24
 BYTE   N22  Bn2  v116
 BYTE   W24
// 003   ----------------------------------------
 BYTE   N10  Cn3  v116
 BYTE   W24
 BYTE   N22  Cs3  v116
 BYTE   W24
 BYTE   N10  As2  v116
 BYTE   W24
Label_0_0101287A:
 BYTE   VOL   31*FF6TroopsMarchonTristanHollow_mvl/mxv
 BYTE   N10  Cn3  v116
 BYTE   W24
// 004   ----------------------------------------
 BYTE   VOL   23*FF6TroopsMarchonTristanHollow_mvl/mxv
 BYTE   N22  Cn3  v116
 BYTE   W24
 BYTE   VOL   31*FF6TroopsMarchonTristanHollow_mvl/mxv
 BYTE   N10  Cn3  v116
 BYTE   W24
 BYTE   VOL   23*FF6TroopsMarchonTristanHollow_mvl/mxv
 BYTE   N22  Cn3  v116
 BYTE   W24
 BYTE   VOL   31*FF6TroopsMarchonTristanHollow_mvl/mxv
 BYTE   N10  Cn3  v116
 BYTE   W24
// 005   ----------------------------------------
 BYTE   VOL   23*FF6TroopsMarchonTristanHollow_mvl/mxv
 BYTE   N22  Cn3  v116
 BYTE   W24
 BYTE   VOL   31*FF6TroopsMarchonTristanHollow_mvl/mxv
 BYTE   N10  Cn3  v116
 BYTE   W24
 BYTE   VOL   23*FF6TroopsMarchonTristanHollow_mvl/mxv
 BYTE   N22  Cs3  v116
 BYTE   W24
 BYTE   VOL   31*FF6TroopsMarchonTristanHollow_mvl/mxv
 BYTE   N10  Cn3  v116
 BYTE   W24
// 006   ----------------------------------------
 BYTE   VOL   23*FF6TroopsMarchonTristanHollow_mvl/mxv
 BYTE   N22  Cn3  v116
 BYTE   W24
 BYTE   VOL   31*FF6TroopsMarchonTristanHollow_mvl/mxv
 BYTE   N10  Cn3  v116
 BYTE   W24
 BYTE   VOL   23*FF6TroopsMarchonTristanHollow_mvl/mxv
 BYTE   N22  Cn3  v116
 BYTE   W24
 BYTE   VOL   31*FF6TroopsMarchonTristanHollow_mvl/mxv
 BYTE   N10  Cn3  v116
 BYTE   W24
// 007   ----------------------------------------
 BYTE   VOL   23*FF6TroopsMarchonTristanHollow_mvl/mxv
 BYTE   N22  Cn3  v116
 BYTE   W24
 BYTE   VOL   31*FF6TroopsMarchonTristanHollow_mvl/mxv
 BYTE   N10  Cn3  v116
 BYTE   W24
 BYTE   VOL   23*FF6TroopsMarchonTristanHollow_mvl/mxv
 BYTE   N22  Cs3  v116
 BYTE   W24
 BYTE   VOL   31*FF6TroopsMarchonTristanHollow_mvl/mxv
 BYTE   N10  Cn3  v116
 BYTE   W24
// 008   ----------------------------------------
 BYTE   VOL   23*FF6TroopsMarchonTristanHollow_mvl/mxv
 BYTE   N22  Cn3  v116
 BYTE   W24
 BYTE   VOL   31*FF6TroopsMarchonTristanHollow_mvl/mxv
 BYTE   N10  Cn3  v116
 BYTE   W24
 BYTE   VOL   23*FF6TroopsMarchonTristanHollow_mvl/mxv
 BYTE   N22  Cn3  v116
 BYTE   W24
 BYTE   VOL   31*FF6TroopsMarchonTristanHollow_mvl/mxv
 BYTE   N10  Cn3  v116
 BYTE   W24
// 009   ----------------------------------------
 BYTE   VOL   23*FF6TroopsMarchonTristanHollow_mvl/mxv
 BYTE   N22  Cn3  v116
 BYTE   W24
 BYTE   VOL   31*FF6TroopsMarchonTristanHollow_mvl/mxv
 BYTE   N10  Cn3  v116
 BYTE   W24
 BYTE   VOL   23*FF6TroopsMarchonTristanHollow_mvl/mxv
 BYTE   N22  Cs3  v116
 BYTE   W24
 BYTE   VOL   31*FF6TroopsMarchonTristanHollow_mvl/mxv
 BYTE   N10  Cn3  v116
 BYTE   W24
// 010   ----------------------------------------
 BYTE   VOL   23*FF6TroopsMarchonTristanHollow_mvl/mxv
 BYTE   N22  Cn3  v116
 BYTE   W24
 BYTE   VOL   31*FF6TroopsMarchonTristanHollow_mvl/mxv
 BYTE   N10  Cn3  v116
 BYTE   W24
 BYTE   VOL   23*FF6TroopsMarchonTristanHollow_mvl/mxv
 BYTE   N22  Cn3  v116
 BYTE   W24
 BYTE   VOL   31*FF6TroopsMarchonTristanHollow_mvl/mxv
 BYTE   N10  Cn3  v116
 BYTE   W24
// 011   ----------------------------------------
 BYTE   VOL   23*FF6TroopsMarchonTristanHollow_mvl/mxv
 BYTE   N22  Cn3  v116
 BYTE   W24
 BYTE   VOL   31*FF6TroopsMarchonTristanHollow_mvl/mxv
 BYTE   N10  Cn3  v116
 BYTE   W24
 BYTE   VOL   23*FF6TroopsMarchonTristanHollow_mvl/mxv
 BYTE   N22  Cs3  v116
 BYTE   W24
 BYTE   VOL   31*FF6TroopsMarchonTristanHollow_mvl/mxv
 BYTE   N10  Cn3  v116
 BYTE   W24
// 012   ----------------------------------------
 BYTE   VOL   23*FF6TroopsMarchonTristanHollow_mvl/mxv
 BYTE   N22  Cn3  v116
 BYTE   W24
 BYTE   VOL   31*FF6TroopsMarchonTristanHollow_mvl/mxv
 BYTE   N10  Cn3  v116
 BYTE   W24
 BYTE   VOL   23*FF6TroopsMarchonTristanHollow_mvl/mxv
 BYTE   N22  Cn3  v116
 BYTE   W24
 BYTE   VOL   31*FF6TroopsMarchonTristanHollow_mvl/mxv
 BYTE   N10  Cn3  v116
 BYTE   W24
// 013   ----------------------------------------
 BYTE   VOL   23*FF6TroopsMarchonTristanHollow_mvl/mxv
 BYTE   N22  Cn3  v116
 BYTE   W24
 BYTE   VOL   31*FF6TroopsMarchonTristanHollow_mvl/mxv
 BYTE   N10  Cn3  v116
 BYTE   W24
 BYTE   VOL   23*FF6TroopsMarchonTristanHollow_mvl/mxv
 BYTE   N22  Cs3  v116
 BYTE   W24
 BYTE   VOL   31*FF6TroopsMarchonTristanHollow_mvl/mxv
 BYTE   N10  Cn3  v116
 BYTE   W24
// 014   ----------------------------------------
 BYTE   VOL   23*FF6TroopsMarchonTristanHollow_mvl/mxv
 BYTE   N22  Cn3  v116
 BYTE   W24
 BYTE   VOL   31*FF6TroopsMarchonTristanHollow_mvl/mxv
 BYTE   N10  Cn3  v116
 BYTE   W24
 BYTE   VOL   23*FF6TroopsMarchonTristanHollow_mvl/mxv
 BYTE   N22  Cn3  v116
 BYTE   W24
 BYTE   VOL   31*FF6TroopsMarchonTristanHollow_mvl/mxv
 BYTE   N10  Cn3  v116
 BYTE   W24
// 015   ----------------------------------------
 BYTE   VOL   23*FF6TroopsMarchonTristanHollow_mvl/mxv
 BYTE   N22  Cn3  v116
 BYTE   W24
 BYTE   VOL   31*FF6TroopsMarchonTristanHollow_mvl/mxv
 BYTE   N10  Cn3  v116
 BYTE   W24
 BYTE   VOL   23*FF6TroopsMarchonTristanHollow_mvl/mxv
 BYTE   N22  Cs3  v116
 BYTE   W24
 BYTE   VOL   31*FF6TroopsMarchonTristanHollow_mvl/mxv
 BYTE   N10  Cn3  v116
 BYTE   W24
// 016   ----------------------------------------
 BYTE   VOL   23*FF6TroopsMarchonTristanHollow_mvl/mxv
 BYTE   N22  Cn3  v116
 BYTE   W24
 BYTE   VOL   31*FF6TroopsMarchonTristanHollow_mvl/mxv
 BYTE   N10  Cn3  v116
 BYTE   W24
 BYTE   VOL   23*FF6TroopsMarchonTristanHollow_mvl/mxv
 BYTE   N22  Cn3  v116
 BYTE   W24
 BYTE   VOL   31*FF6TroopsMarchonTristanHollow_mvl/mxv
 BYTE   N10  Cn3  v116
 BYTE   W24
// 017   ----------------------------------------
 BYTE   VOL   23*FF6TroopsMarchonTristanHollow_mvl/mxv
 BYTE   N22  Cn3  v116
 BYTE   W24
 BYTE   VOL   31*FF6TroopsMarchonTristanHollow_mvl/mxv
 BYTE   N10  Cn3  v116
 BYTE   W24
 BYTE   VOL   23*FF6TroopsMarchonTristanHollow_mvl/mxv
 BYTE   N22  Cs3  v116
 BYTE   W24
 BYTE   VOL   31*FF6TroopsMarchonTristanHollow_mvl/mxv
 BYTE   N10  Cn3  v116
 BYTE   W24
// 018   ----------------------------------------
 BYTE   VOL   23*FF6TroopsMarchonTristanHollow_mvl/mxv
 BYTE   N22  Cn3  v116
 BYTE   W24
 BYTE   VOL   31*FF6TroopsMarchonTristanHollow_mvl/mxv
 BYTE   N10  Cn3  v116
 BYTE   W24
 BYTE   VOL   23*FF6TroopsMarchonTristanHollow_mvl/mxv
 BYTE   N22  Cn3  v116
 BYTE   W24
 BYTE   VOL   31*FF6TroopsMarchonTristanHollow_mvl/mxv
 BYTE   N10  Cn3  v116
 BYTE   W24
// 019   ----------------------------------------
 BYTE   VOL   23*FF6TroopsMarchonTristanHollow_mvl/mxv
 BYTE   N22  Cn3  v116
 BYTE   W24
 BYTE   VOL   31*FF6TroopsMarchonTristanHollow_mvl/mxv
 BYTE   N10  Cn3  v116
 BYTE   W24
 BYTE   VOL   23*FF6TroopsMarchonTristanHollow_mvl/mxv
 BYTE   N22  Cs3  v116
 BYTE   W24
 BYTE   N10  As4  v116
 BYTE   W24
// 020   ----------------------------------------
 BYTE   N06  As4  v116
 BYTE   W08
 BYTE   N06  As4  v116
 BYTE   W08
 BYTE   N06  An4  v116
 BYTE   W08
 BYTE   N68  Gs4  v116
 BYTE   W72
// 021   ----------------------------------------
 BYTE   N10  Gs4  v116
 BYTE   W12
 BYTE   N10  An4  v116
 BYTE   W12
 BYTE   N10  As4  v116
 BYTE   W12
 BYTE   N10  As4  v116
 BYTE   W12
 BYTE   N10  As4  v116
 BYTE   W12
 BYTE   N10  Gs4  v116
 BYTE   W12
 BYTE   N32  Fs4  v116
 BYTE   W36
// 022   ----------------------------------------
 BYTE   N10  Fn4  v116
 BYTE   W12
 BYTE   N68  Ds4  v116
 BYTE   W72
 BYTE   N10  As3  v116
 BYTE   W12
// 023   ----------------------------------------
 BYTE   N10  Dn4  v116
 BYTE   W12
 BYTE   N10  Ds4  v116
 BYTE   W12
 BYTE   N10  Fn4  v116
 BYTE   W12
 BYTE   N10  Fs4  v116
 BYTE   W12
 BYTE   N10  An4  v116
 BYTE   W12
 BYTE   N10  As4  v116
 BYTE   W24
 BYTE   N06  As4  v116
 BYTE   W08
 BYTE   N06  As4  v116
 BYTE   W08
// 024   ----------------------------------------
 BYTE   N06  An4  v116
 BYTE   W08
 BYTE   N68  Gs4  v116
 BYTE   W72
 BYTE   N10  Gs4  v116
 BYTE   W12
 BYTE   N10  As4  v116
 BYTE   W12
// 025   ----------------------------------------
 BYTE   N10  Bn4  v116
 BYTE   W12
 BYTE   N10  Bn4  v116
 BYTE   W12
 BYTE   N10  Bn4  v116
 BYTE   W12
 BYTE   N10  As4  v116
 BYTE   W12
 BYTE   N32  Gs4  v116
 BYTE   W36
 BYTE   N10  Fs4  v116
 BYTE   W12
// 026   ----------------------------------------
 BYTE   N68  En4  v116
 BYTE   W72
 BYTE   N10  En4  v116
 BYTE   W12
 BYTE   N10  Fs4  v116
 BYTE   W12
// 027   ----------------------------------------
 BYTE   N10  Gs4  v116
 BYTE   W12
 BYTE   N10  Fs4  v116
 BYTE   W12
 BYTE   N10  En4  v116
 BYTE   W12
 BYTE   N10  Dn4  v116
 BYTE   W12
 BYTE   N10  Ds4  v116
 BYTE   W36
 BYTE   N10  As3  v116
 BYTE   W12
// 028   ----------------------------------------
 BYTE   N68  Ds4  v116
 BYTE   W72
 BYTE   N10  En4  v116
 BYTE   W12
 BYTE   N10  Fs4  v116
 BYTE   W12
// 029   ----------------------------------------
 BYTE   N10  Gs4  v116
 BYTE   W12
 BYTE   N10  Fs4  v116
 BYTE   W12
 BYTE   N10  En4  v116
 BYTE   W12
 BYTE   N10  Dn4  v116
 BYTE   W12
 BYTE   N10  Ds4  v116
 BYTE   W36
 BYTE   N10  As3  v116
 BYTE   W12
// 030   ----------------------------------------
 BYTE   TIE  Ds4  v116
 BYTE   W96
// 031   ----------------------------------------
 BYTE   W44
 BYTE   W02
 BYTE   EOT
 BYTE   Ds4
 BYTE   W02
 BYTE   GoTo
  POIN2 Label_0_0101287A
// 032   ----------------------------------------
 BYTE   W02
 BYTE   FINE

//**************** Track 2 (Midi-Chn.1) ****************//

FF6TroopsMarchonTristanHollow_002:
// 000   ----------------------------------------
 BYTE   KEYSH   FF6TroopsMarchonTristanHollow_key+0
 BYTE   VOICE   48
 BYTE   VOL   29*FF6TroopsMarchonTristanHollow_mvl/mxv
 BYTE   PAN   c_v-12
 BYTE   N10  Gn2  v116
 BYTE   W24
 BYTE   N06  Gn2  v116
 BYTE   W12
 BYTE   N06  Gn2  v116
 BYTE   W12
 BYTE   N22  Gs2  v116
 BYTE   W24
 BYTE   N10  Gn2  v116
 BYTE   W48
// 001   ----------------------------------------
 BYTE   N06  Gn2  v116
 BYTE   W12
 BYTE   N06  Gn2  v116
 BYTE   W12
 BYTE   N22  Gs2  v116
 BYTE   W24
 BYTE   N10  Fs2  v116
 BYTE   W24
 BYTE   N22  Gs2  v116
 BYTE   W24
// 002   ----------------------------------------
 BYTE   N10  Gn2  v116
 BYTE   W24
 BYTE   N22  Gs2  v116
 BYTE   W24
 BYTE   N10  Gn2  v116
 BYTE   W24
 BYTE   N22  Fs2  v116
 BYTE   W24
// 003   ----------------------------------------
 BYTE   N10  Gn2  v116
 BYTE   W24
 BYTE   N22  Gs2  v116
 BYTE   W24
 BYTE   N10  Fn2  v116
 BYTE   W24
Label_1_01012B24:
 BYTE   VOL   31*FF6TroopsMarchonTristanHollow_mvl/mxv
 BYTE   N10  Gn2  v116
 BYTE   W24
// 004   ----------------------------------------
 BYTE   VOL   26*FF6TroopsMarchonTristanHollow_mvl/mxv
 BYTE   N22  Gn2  v116
 BYTE   W24
 BYTE   VOL   31*FF6TroopsMarchonTristanHollow_mvl/mxv
 BYTE   N10  Gn2  v116
 BYTE   W24
 BYTE   VOL   26*FF6TroopsMarchonTristanHollow_mvl/mxv
 BYTE   N22  Gn2  v116
 BYTE   W24
 BYTE   VOL   31*FF6TroopsMarchonTristanHollow_mvl/mxv
 BYTE   N10  Gn2  v116
 BYTE   W24
// 005   ----------------------------------------
 BYTE   VOL   26*FF6TroopsMarchonTristanHollow_mvl/mxv
 BYTE   N22  Gn2  v116
 BYTE   W24
 BYTE   VOL   31*FF6TroopsMarchonTristanHollow_mvl/mxv
 BYTE   N10  Gn2  v116
 BYTE   W24
 BYTE   VOL   26*FF6TroopsMarchonTristanHollow_mvl/mxv
 BYTE   N22  Gn2  v116
 BYTE   W24
 BYTE   VOL   31*FF6TroopsMarchonTristanHollow_mvl/mxv
 BYTE   N10  Gn2  v116
 BYTE   W24
// 006   ----------------------------------------
 BYTE   VOL   26*FF6TroopsMarchonTristanHollow_mvl/mxv
 BYTE   N22  Gn2  v116
 BYTE   W24
 BYTE   VOL   31*FF6TroopsMarchonTristanHollow_mvl/mxv
 BYTE   N10  Gn2  v116
 BYTE   W24
 BYTE   VOL   26*FF6TroopsMarchonTristanHollow_mvl/mxv
 BYTE   N22  Gn2  v116
 BYTE   W24
 BYTE   VOL   31*FF6TroopsMarchonTristanHollow_mvl/mxv
 BYTE   N10  Gn2  v116
 BYTE   W24
// 007   ----------------------------------------
 BYTE   VOL   26*FF6TroopsMarchonTristanHollow_mvl/mxv
 BYTE   N22  Gn2  v116
 BYTE   W24
 BYTE   VOL   31*FF6TroopsMarchonTristanHollow_mvl/mxv
 BYTE   N10  Gn2  v116
 BYTE   W24
 BYTE   VOL   26*FF6TroopsMarchonTristanHollow_mvl/mxv
 BYTE   N22  Gn2  v116
 BYTE   W24
 BYTE   VOL   31*FF6TroopsMarchonTristanHollow_mvl/mxv
 BYTE   N10  Gn2  v116
 BYTE   W24
// 008   ----------------------------------------
 BYTE   VOL   26*FF6TroopsMarchonTristanHollow_mvl/mxv
 BYTE   N22  Gn2  v116
 BYTE   W24
 BYTE   VOL   31*FF6TroopsMarchonTristanHollow_mvl/mxv
 BYTE   N10  Gn2  v116
 BYTE   W24
 BYTE   VOL   26*FF6TroopsMarchonTristanHollow_mvl/mxv
 BYTE   N22  Gn2  v116
 BYTE   W24
 BYTE   VOL   31*FF6TroopsMarchonTristanHollow_mvl/mxv
 BYTE   N10  Gn2  v116
 BYTE   W24
// 009   ----------------------------------------
 BYTE   VOL   26*FF6TroopsMarchonTristanHollow_mvl/mxv
 BYTE   N22  Gn2  v116
 BYTE   W24
 BYTE   VOL   31*FF6TroopsMarchonTristanHollow_mvl/mxv
 BYTE   N10  Gn2  v116
 BYTE   W24
 BYTE   VOL   26*FF6TroopsMarchonTristanHollow_mvl/mxv
 BYTE   N22  Gn2  v116
 BYTE   W24
 BYTE   VOL   31*FF6TroopsMarchonTristanHollow_mvl/mxv
 BYTE   N10  Gn2  v116
 BYTE   W24
// 010   ----------------------------------------
 BYTE   VOL   26*FF6TroopsMarchonTristanHollow_mvl/mxv
 BYTE   N22  Gn2  v116
 BYTE   W24
 BYTE   VOL   31*FF6TroopsMarchonTristanHollow_mvl/mxv
 BYTE   N10  Gn2  v116
 BYTE   W24
 BYTE   VOL   26*FF6TroopsMarchonTristanHollow_mvl/mxv
 BYTE   N22  Gn2  v116
 BYTE   W24
 BYTE   VOL   31*FF6TroopsMarchonTristanHollow_mvl/mxv
 BYTE   N10  Gn2  v116
 BYTE   W24
// 011   ----------------------------------------
 BYTE   VOL   26*FF6TroopsMarchonTristanHollow_mvl/mxv
 BYTE   N22  Gn2  v116
 BYTE   W24
 BYTE   VOL   31*FF6TroopsMarchonTristanHollow_mvl/mxv
 BYTE   N10  Gn2  v116
 BYTE   W24
 BYTE   VOL   26*FF6TroopsMarchonTristanHollow_mvl/mxv
 BYTE   N22  Gn2  v116
 BYTE   W24
 BYTE   VOL   31*FF6TroopsMarchonTristanHollow_mvl/mxv
 BYTE   N10  Gn2  v116
 BYTE   W24
// 012   ----------------------------------------
 BYTE   VOL   26*FF6TroopsMarchonTristanHollow_mvl/mxv
 BYTE   N22  Gn2  v116
 BYTE   W24
 BYTE   VOL   31*FF6TroopsMarchonTristanHollow_mvl/mxv
 BYTE   N10  Gn2  v116
 BYTE   W24
 BYTE   VOL   26*FF6TroopsMarchonTristanHollow_mvl/mxv
 BYTE   N22  Gn2  v116
 BYTE   W24
 BYTE   VOL   31*FF6TroopsMarchonTristanHollow_mvl/mxv
 BYTE   N10  Gn2  v116
 BYTE   W24
// 013   ----------------------------------------
 BYTE   VOL   26*FF6TroopsMarchonTristanHollow_mvl/mxv
 BYTE   N22  Gn2  v116
 BYTE   W24
 BYTE   VOL   31*FF6TroopsMarchonTristanHollow_mvl/mxv
 BYTE   N10  Gn2  v116
 BYTE   W24
 BYTE   VOL   26*FF6TroopsMarchonTristanHollow_mvl/mxv
 BYTE   N22  Gn2  v116
 BYTE   W24
 BYTE   VOL   31*FF6TroopsMarchonTristanHollow_mvl/mxv
 BYTE   N10  Gn2  v116
 BYTE   W24
// 014   ----------------------------------------
 BYTE   VOL   26*FF6TroopsMarchonTristanHollow_mvl/mxv
 BYTE   N22  Gn2  v116
 BYTE   W24
 BYTE   VOL   31*FF6TroopsMarchonTristanHollow_mvl/mxv
 BYTE   N10  Gn2  v116
 BYTE   W24
 BYTE   VOL   26*FF6TroopsMarchonTristanHollow_mvl/mxv
 BYTE   N22  Gn2  v116
 BYTE   W24
 BYTE   VOL   31*FF6TroopsMarchonTristanHollow_mvl/mxv
 BYTE   N10  Gn2  v116
 BYTE   W24
// 015   ----------------------------------------
 BYTE   VOL   26*FF6TroopsMarchonTristanHollow_mvl/mxv
 BYTE   N22  Gn2  v116
 BYTE   W24
 BYTE   VOL   31*FF6TroopsMarchonTristanHollow_mvl/mxv
 BYTE   N10  Gn2  v116
 BYTE   W24
 BYTE   VOL   26*FF6TroopsMarchonTristanHollow_mvl/mxv
 BYTE   N22  Gn2  v116
 BYTE   W24
 BYTE   VOL   31*FF6TroopsMarchonTristanHollow_mvl/mxv
 BYTE   N10  Gn2  v116
 BYTE   W24
// 016   ----------------------------------------
 BYTE   VOL   26*FF6TroopsMarchonTristanHollow_mvl/mxv
 BYTE   N22  Gn2  v116
 BYTE   W24
 BYTE   VOL   31*FF6TroopsMarchonTristanHollow_mvl/mxv
 BYTE   N10  Gn2  v116
 BYTE   W24
 BYTE   VOL   26*FF6TroopsMarchonTristanHollow_mvl/mxv
 BYTE   N22  Gn2  v116
 BYTE   W24
 BYTE   VOL   31*FF6TroopsMarchonTristanHollow_mvl/mxv
 BYTE   N10  Gn2  v116
 BYTE   W24
// 017   ----------------------------------------
 BYTE   VOL   26*FF6TroopsMarchonTristanHollow_mvl/mxv
 BYTE   N22  Gn2  v116
 BYTE   W24
 BYTE   VOL   31*FF6TroopsMarchonTristanHollow_mvl/mxv
 BYTE   N10  Gn2  v116
 BYTE   W24
 BYTE   VOL   26*FF6TroopsMarchonTristanHollow_mvl/mxv
 BYTE   N22  Gn2  v116
 BYTE   W24
 BYTE   VOL   31*FF6TroopsMarchonTristanHollow_mvl/mxv
 BYTE   N10  Gn2  v116
 BYTE   W24
// 018   ----------------------------------------
 BYTE   VOL   26*FF6TroopsMarchonTristanHollow_mvl/mxv
 BYTE   N22  Gn2  v116
 BYTE   W24
 BYTE   VOL   31*FF6TroopsMarchonTristanHollow_mvl/mxv
 BYTE   N10  Gn2  v116
 BYTE   W24
 BYTE   VOL   26*FF6TroopsMarchonTristanHollow_mvl/mxv
 BYTE   N22  Gn2  v116
 BYTE   W24
 BYTE   VOL   31*FF6TroopsMarchonTristanHollow_mvl/mxv
 BYTE   N10  Gn2  v116
 BYTE   W24
// 019   ----------------------------------------
 BYTE   VOL   26*FF6TroopsMarchonTristanHollow_mvl/mxv
 BYTE   N22  Gn2  v116
 BYTE   W24
 BYTE   VOL   31*FF6TroopsMarchonTristanHollow_mvl/mxv
 BYTE   N10  Gn2  v116
 BYTE   W24
 BYTE   VOL   26*FF6TroopsMarchonTristanHollow_mvl/mxv
 BYTE   N22  Gn2  v116
 BYTE   W24
 BYTE   N10  As3  v116
 BYTE   W24
// 020   ----------------------------------------
 BYTE   N06  As3  v116
 BYTE   W08
 BYTE   N06  As3  v116
 BYTE   W08
 BYTE   N06  An3  v116
 BYTE   W08
 BYTE   N68  Gs3  v116
 BYTE   W72
// 021   ----------------------------------------
 BYTE   N10  Gs3  v116
 BYTE   W12
 BYTE   N10  An3  v116
 BYTE   W12
 BYTE   N10  As3  v116
 BYTE   W12
 BYTE   N10  As3  v116
 BYTE   W12
 BYTE   N10  As3  v116
 BYTE   W12
 BYTE   N10  Gs3  v116
 BYTE   W12
 BYTE   N32  Fs3  v116
 BYTE   W36
// 022   ----------------------------------------
 BYTE   N10  Fn3  v116
 BYTE   W12
 BYTE   N68  Ds3  v116
 BYTE   W72
 BYTE   N10  As2  v116
 BYTE   W12
// 023   ----------------------------------------
 BYTE   N10  Dn3  v116
 BYTE   W12
 BYTE   N10  Ds3  v116
 BYTE   W12
 BYTE   N10  Fn3  v116
 BYTE   W12
 BYTE   N10  Fs3  v116
 BYTE   W12
 BYTE   N10  An3  v116
 BYTE   W12
 BYTE   N10  As3  v116
 BYTE   W24
 BYTE   N06  As3  v116
 BYTE   W08
 BYTE   N06  As3  v116
 BYTE   W08
// 024   ----------------------------------------
 BYTE   N06  An3  v116
 BYTE   W08
 BYTE   N68  Gs3  v116
 BYTE   W72
 BYTE   N10  Gs3  v116
 BYTE   W12
 BYTE   N10  As3  v116
 BYTE   W12
// 025   ----------------------------------------
 BYTE   N10  Bn3  v116
 BYTE   W12
 BYTE   N10  Bn3  v116
 BYTE   W12
 BYTE   N10  Bn3  v116
 BYTE   W12
 BYTE   N10  As3  v116
 BYTE   W12
 BYTE   N32  Gs3  v116
 BYTE   W36
 BYTE   N10  Fs3  v116
 BYTE   W12
// 026   ----------------------------------------
 BYTE   N68  En3  v116
 BYTE   W72
 BYTE   N10  En3  v116
 BYTE   W12
 BYTE   N10  Fs3  v116
 BYTE   W12
// 027   ----------------------------------------
 BYTE   N10  Gs3  v116
 BYTE   W12
 BYTE   N10  Fs3  v116
 BYTE   W12
 BYTE   N10  En3  v116
 BYTE   W12
 BYTE   N10  Dn3  v116
 BYTE   W12
 BYTE   N10  Ds3  v116
 BYTE   W36
 BYTE   N10  As2  v116
 BYTE   W12
// 028   ----------------------------------------
 BYTE   N68  Ds3  v116
 BYTE   W72
 BYTE   N10  En3  v116
 BYTE   W12
 BYTE   N10  Fs3  v116
 BYTE   W12
// 029   ----------------------------------------
 BYTE   N10  Gs3  v116
 BYTE   W12
 BYTE   N10  Fs3  v116
 BYTE   W12
 BYTE   N10  En3  v116
 BYTE   W12
 BYTE   N10  Dn3  v116
 BYTE   W12
 BYTE   N10  Ds3  v116
 BYTE   W36
 BYTE   N10  As2  v116
 BYTE   W12
// 030   ----------------------------------------
 BYTE   TIE  Ds3  v116
 BYTE   W96
// 031   ----------------------------------------
 BYTE   W44
 BYTE   W02
 BYTE   EOT
 BYTE   Ds3
 BYTE   W02
 BYTE   GoTo
  POIN2 Label_1_01012B24
// 032   ----------------------------------------
 BYTE   W02
 BYTE   FINE

//**************** Track 3 (Midi-Chn.2) ****************//

FF6TroopsMarchonTristanHollow_003:
// 000   ----------------------------------------
 BYTE   KEYSH   FF6TroopsMarchonTristanHollow_key+0
 BYTE   W96
// 001   ----------------------------------------
 BYTE   W96
// 002   ----------------------------------------
 BYTE   W96
// 003   ----------------------------------------
 BYTE   W96
// 004   ----------------------------------------
Label_2_01012D86:
 BYTE   VOICE   61
 BYTE   VOL   34*FF6TroopsMarchonTristanHollow_mvl/mxv
 BYTE   PAN   c_v+18
 BYTE   N10  Cn4  v116
 BYTE   W24
 BYTE   N06  Cn4  v116
 BYTE   W08
 BYTE   N06  Cn4  v116
 BYTE   W08
 BYTE   N06  Cn4  v116
 BYTE   W08
 BYTE   N68  Gn4  v116
 BYTE   W72
// 005   ----------------------------------------
 BYTE   N04  Fn4  v116
 BYTE   W12
 BYTE   N04  Gn4  v116
 BYTE   W12
 BYTE   N10  Fn4  v116
 BYTE   W12
 BYTE   N04  Ds4  v116
 BYTE   W12
 BYTE   N04  Cs4  v116
 BYTE   W12
 BYTE   N04  Ds4  v116
 BYTE   W12
 BYTE   N10  Cn4  v116
 BYTE   W48
// 006   ----------------------------------------
 BYTE   N68  Gn3  v116
 BYTE   W72
 BYTE   N04  Gn3  v116
 BYTE   W12
 BYTE   N04  Gs3  v116
 BYTE   W12
// 007   ----------------------------------------
 BYTE   N22  As3  v116
 BYTE   W24
 BYTE   N04  Gs3  v116
 BYTE   W12
 BYTE   N04  Gn3  v116
 BYTE   W12
 BYTE   N10  Cn4  v116
 BYTE   W48
// 008   ----------------------------------------
 BYTE   N68  Gn3  v116
 BYTE   W72
 BYTE   VOICE   60
 BYTE   VOL   34*FF6TroopsMarchonTristanHollow_mvl/mxv
 BYTE   PAN   c_v+18
 BYTE   N04  Cs3  v116
 BYTE   W12
 BYTE   N04  Ds3  v116
 BYTE   W12
// 009   ----------------------------------------
 BYTE   N10  Fn3  v116
 BYTE   W12
 BYTE   N04  Ds3  v116
 BYTE   W12
 BYTE   N04  Cs3  v116
 BYTE   W12
 BYTE   N04  Ds3  v116
 BYTE   W12
 BYTE   N10  Cn3  v116
 BYTE   W36
 BYTE   N10  Gn2  v116
 BYTE   W12
// 010   ----------------------------------------
 BYTE   TIE  Cn3  v116
 BYTE   W96
// 011   ----------------------------------------
 BYTE   W44
 BYTE   W02
 BYTE   EOT
 BYTE   Cn3
 BYTE   W02
 BYTE   VOICE   61
 BYTE   VOL   34*FF6TroopsMarchonTristanHollow_mvl/mxv
 BYTE   PAN   c_v+18
 BYTE   N10  Cn4  v116
 BYTE   W24
 BYTE   N06  Cn4  v116
 BYTE   W08
 BYTE   N06  Cn4  v116
 BYTE   W08
 BYTE   N06  Cn4  v116
 BYTE   W08
// 012   ----------------------------------------
 BYTE   N68  Gn4  v116
 BYTE   W72
 BYTE   N04  Fn4  v116
 BYTE   W12
 BYTE   N04  Gn4  v116
 BYTE   W12
// 013   ----------------------------------------
 BYTE   N10  Fn4  v116
 BYTE   W12
 BYTE   N04  Ds4  v116
 BYTE   W12
 BYTE   N04  Cs4  v116
 BYTE   W12
 BYTE   N04  Ds4  v116
 BYTE   W12
 BYTE   N10  Cn4  v116
 BYTE   W48
// 014   ----------------------------------------
 BYTE   N68  Gn3  v116
 BYTE   W72
 BYTE   N04  Gn3  v116
 BYTE   W12
 BYTE   N04  Gs3  v116
 BYTE   W12
// 015   ----------------------------------------
 BYTE   N22  As3  v116
 BYTE   W24
 BYTE   N04  Gs3  v116
 BYTE   W12
 BYTE   N04  Gn3  v116
 BYTE   W12
 BYTE   N10  Cn4  v116
 BYTE   W48
// 016   ----------------------------------------
 BYTE   N68  Gn3  v116
 BYTE   W72
 BYTE   VOICE   60
 BYTE   VOL   34*FF6TroopsMarchonTristanHollow_mvl/mxv
 BYTE   PAN   c_v+18
 BYTE   N04  Cs3  v116
 BYTE   W12
 BYTE   N04  Ds3  v116
 BYTE   W12
// 017   ----------------------------------------
 BYTE   N10  Fn3  v116
 BYTE   W12
 BYTE   N04  Ds3  v116
 BYTE   W12
 BYTE   N04  Cs3  v116
 BYTE   W12
 BYTE   N04  Ds3  v116
 BYTE   W12
 BYTE   N10  Cn3  v116
 BYTE   W36
 BYTE   N10  Gn2  v116
 BYTE   W12
// 018   ----------------------------------------
 BYTE   TIE  Cn3  v116
 BYTE   W96
// 019   ----------------------------------------
 BYTE   W44
 BYTE   W02
 BYTE   EOT
 BYTE   Cn3
 BYTE   W02
 BYTE   N10  As2  v116
 BYTE   W24
 BYTE   N10  As2  v116
 BYTE   W24
// 020   ----------------------------------------
 BYTE   N22  Ds3  v116
 BYTE   W24
 BYTE   N10  Cs3  v116
 BYTE   W12
 BYTE   N10  Bn2  v116
 BYTE   W12
 BYTE   N10  As2  v116
 BYTE   W24
 BYTE   N10  As2  v116
 BYTE   W24
// 021   ----------------------------------------
 BYTE   N10  As2  v116
 BYTE   W24
 BYTE   N10  As2  v116
 BYTE   W24
 BYTE   N10  As2  v116
 BYTE   W24
 BYTE   N10  As2  v116
 BYTE   W24
// 022   ----------------------------------------
 BYTE   N22  Ds3  v116
 BYTE   W24
 BYTE   N10  Cs3  v116
 BYTE   W12
 BYTE   N10  Bn2  v116
 BYTE   W12
 BYTE   N10  As2  v116
 BYTE   W24
 BYTE   N10  As2  v116
 BYTE   W24
// 023   ----------------------------------------
 BYTE   N10  As2  v116
 BYTE   W24
 BYTE   N10  As2  v116
 BYTE   W24
 BYTE   N10  Bn2  v116
 BYTE   W24
 BYTE   N10  Bn2  v116
 BYTE   W24
// 024   ----------------------------------------
 BYTE   N22  En3  v116
 BYTE   W24
 BYTE   N10  Ds3  v116
 BYTE   W12
 BYTE   N10  Cs3  v116
 BYTE   W12
 BYTE   N10  Bn2  v116
 BYTE   W24
 BYTE   N10  Bn2  v116
 BYTE   W24
// 025   ----------------------------------------
 BYTE   N10  Bn2  v116
 BYTE   W24
 BYTE   N10  Bn2  v116
 BYTE   W24
 BYTE   N10  Bn2  v116
 BYTE   W24
 BYTE   N10  Bn2  v116
 BYTE   W24
// 026   ----------------------------------------
 BYTE   N22  En3  v116
 BYTE   W24
 BYTE   N10  Ds3  v116
 BYTE   W12
 BYTE   N10  Cs3  v116
 BYTE   W12
 BYTE   N10  Bn2  v116
 BYTE   W24
 BYTE   N10  Bn2  v116
 BYTE   W24
// 027   ----------------------------------------
 BYTE   N10  Bn2  v116
 BYTE   W24
 BYTE   N10  Bn2  v116
 BYTE   W24
 BYTE   N22  As2  v116
 BYTE   W24
 BYTE   N06  An2  v116
 BYTE   W12
 BYTE   N06  An2  v116
 BYTE   W12
// 028   ----------------------------------------
 BYTE   N22  As2  v116
 BYTE   W24
 BYTE   N06  An2  v116
 BYTE   W12
 BYTE   N06  An2  v116
 BYTE   W12
 BYTE   N22  As2  v116
 BYTE   W24
 BYTE   N06  An2  v116
 BYTE   W12
 BYTE   N06  An2  v116
 BYTE   W12
// 029   ----------------------------------------
 BYTE   N10  Bn2  v116
 BYTE   W24
 BYTE   N22  Bn2  v116
 BYTE   W24
 BYTE   N22  As2  v116
 BYTE   W24
 BYTE   N06  An2  v116
 BYTE   W12
 BYTE   N06  An2  v116
 BYTE   W12
// 030   ----------------------------------------
 BYTE   N22  As2  v116
 BYTE   W24
 BYTE   N06  An2  v116
 BYTE   W12
 BYTE   N06  An2  v116
 BYTE   W12
 BYTE   N22  As2  v116
 BYTE   W24
 BYTE   N06  An2  v116
 BYTE   W12
 BYTE   N06  An2  v116
 BYTE   W12
// 031   ----------------------------------------
 BYTE   N10  As2  v116
 BYTE   W24
 BYTE   N22  Ds3  v116
 BYTE   W24
 BYTE   GoTo
  POIN2 Label_2_01012D86
// 032   ----------------------------------------
 BYTE   W02
 BYTE   FINE

//**************** Track 4 (Midi-Chn.3) ****************//

FF6TroopsMarchonTristanHollow_004:
// 000   ----------------------------------------
 BYTE   KEYSH   FF6TroopsMarchonTristanHollow_key+0
 BYTE   W96
// 001   ----------------------------------------
 BYTE   W96
// 002   ----------------------------------------
 BYTE   W96
// 003   ----------------------------------------
 BYTE   W96
// 004   ----------------------------------------
Label_3_01012F86:
 BYTE   VOICE   61
 BYTE   VOL   34*FF6TroopsMarchonTristanHollow_mvl/mxv
 BYTE   PAN   c_v+13
 BYTE   N10  As3  v116
 BYTE   W24
 BYTE   N06  As3  v116
 BYTE   W08
 BYTE   N06  As3  v116
 BYTE   W08
 BYTE   N06  An3  v116
 BYTE   W08
 BYTE   N68  Gn3  v116
 BYTE   W72
// 005   ----------------------------------------
 BYTE   N04  Cs4  v116
 BYTE   W12
 BYTE   N04  Ds4  v116
 BYTE   W12
 BYTE   N10  Cs4  v116
 BYTE   W12
 BYTE   N04  Cn4  v116
 BYTE   W12
 BYTE   N04  As3  v116
 BYTE   W12
 BYTE   N04  Cn4  v116
 BYTE   W12
 BYTE   N10  Gn3  v116
 BYTE   W48
// 006   ----------------------------------------
 BYTE   N68  Cn3  v116
 BYTE   W72
 BYTE   N04  Cn3  v116
 BYTE   W12
 BYTE   N04  Fn3  v116
 BYTE   W12
// 007   ----------------------------------------
 BYTE   N22  Gn3  v116
 BYTE   W24
 BYTE   N04  Fn3  v116
 BYTE   W12
 BYTE   N04  Cn3  v116
 BYTE   W12
 BYTE   N10  Gn3  v116
 BYTE   W48
// 008   ----------------------------------------
 BYTE   N68  Cn3  v116
 BYTE   W72
 BYTE   VOICE   60
 BYTE   VOL   34*FF6TroopsMarchonTristanHollow_mvl/mxv
 BYTE   PAN   c_v+13
 BYTE   N04  As2  v116
 BYTE   W12
 BYTE   N04  Cn3  v116
 BYTE   W12
// 009   ----------------------------------------
 BYTE   N10  Cs3  v116
 BYTE   W12
 BYTE   N04  Cn3  v116
 BYTE   W12
 BYTE   N04  As2  v116
 BYTE   W12
 BYTE   N04  Cn3  v116
 BYTE   W12
 BYTE   N10  Gn2  v116
 BYTE   W36
 BYTE   N10  Fn2  v116
 BYTE   W12
// 010   ----------------------------------------
 BYTE   TIE  Ds2  v116
 BYTE   W96
// 011   ----------------------------------------
 BYTE   W44
 BYTE   W02
 BYTE   EOT
 BYTE   Ds2
 BYTE   W02
 BYTE   VOICE   61
 BYTE   VOL   34*FF6TroopsMarchonTristanHollow_mvl/mxv
 BYTE   PAN   c_v+13
 BYTE   N10  As3  v116
 BYTE   W24
 BYTE   N06  As3  v116
 BYTE   W08
 BYTE   N06  As3  v116
 BYTE   W08
 BYTE   N06  An3  v116
 BYTE   W08
// 012   ----------------------------------------
 BYTE   N68  Gn3  v116
 BYTE   W72
 BYTE   N04  Cs4  v116
 BYTE   W12
 BYTE   N04  Ds4  v116
 BYTE   W12
// 013   ----------------------------------------
 BYTE   N10  Cs4  v116
 BYTE   W12
 BYTE   N04  Cn4  v116
 BYTE   W12
 BYTE   N04  As3  v116
 BYTE   W12
 BYTE   N04  Cn4  v116
 BYTE   W12
 BYTE   N10  Gn3  v116
 BYTE   W48
// 014   ----------------------------------------
 BYTE   N68  Cn3  v116
 BYTE   W72
 BYTE   N04  Cn3  v116
 BYTE   W12
 BYTE   N04  Fn3  v116
 BYTE   W12
// 015   ----------------------------------------
 BYTE   N22  Gn3  v116
 BYTE   W24
 BYTE   N04  Fn3  v116
 BYTE   W12
 BYTE   N04  Cn3  v116
 BYTE   W12
 BYTE   N10  Gn3  v116
 BYTE   W48
// 016   ----------------------------------------
 BYTE   N68  Cn3  v116
 BYTE   W72
 BYTE   VOICE   60
 BYTE   VOL   34*FF6TroopsMarchonTristanHollow_mvl/mxv
 BYTE   PAN   c_v+13
 BYTE   N04  As2  v116
 BYTE   W12
 BYTE   N04  Cn3  v116
 BYTE   W12
// 017   ----------------------------------------
 BYTE   N10  Cs3  v116
 BYTE   W12
 BYTE   N04  Cn3  v116
 BYTE   W12
 BYTE   N04  As2  v116
 BYTE   W12
 BYTE   N04  Cn3  v116
 BYTE   W12
 BYTE   N10  Gn2  v116
 BYTE   W36
 BYTE   N10  Fn2  v116
 BYTE   W12
// 018   ----------------------------------------
 BYTE   TIE  Ds2  v116
 BYTE   W96
// 019   ----------------------------------------
 BYTE   W44
 BYTE   W02
 BYTE   EOT
 BYTE   Ds2
 BYTE   W02
 BYTE   N10  Ds2  v116
 BYTE   W24
 BYTE   N10  Ds2  v116
 BYTE   W24
// 020   ----------------------------------------
 BYTE   N22  Fs2  v116
 BYTE   W24
 BYTE   N10  Fn2  v116
 BYTE   W12
 BYTE   N10  Fn2  v116
 BYTE   W12
 BYTE   N10  Ds2  v116
 BYTE   W24
 BYTE   N10  Ds2  v116
 BYTE   W24
// 021   ----------------------------------------
 BYTE   N10  Ds2  v116
 BYTE   W24
 BYTE   N10  Ds2  v116
 BYTE   W24
 BYTE   N10  Ds2  v116
 BYTE   W24
 BYTE   N10  Ds2  v116
 BYTE   W24
// 022   ----------------------------------------
 BYTE   N22  Fs2  v116
 BYTE   W24
 BYTE   N10  Fn2  v116
 BYTE   W12
 BYTE   N10  Fn2  v116
 BYTE   W12
 BYTE   N10  Ds2  v116
 BYTE   W24
 BYTE   N10  Ds2  v116
 BYTE   W24
// 023   ----------------------------------------
 BYTE   N10  Ds2  v116
 BYTE   W24
 BYTE   N10  Ds2  v116
 BYTE   W24
 BYTE   N10  En2  v116
 BYTE   W24
 BYTE   N10  En2  v116
 BYTE   W24
// 024   ----------------------------------------
 BYTE   N22  Gs2  v116
 BYTE   W24
 BYTE   N10  Fs2  v116
 BYTE   W12
 BYTE   N10  Fs2  v116
 BYTE   W12
 BYTE   N10  En2  v116
 BYTE   W24
 BYTE   N10  En2  v116
 BYTE   W24
// 025   ----------------------------------------
 BYTE   N10  En2  v116
 BYTE   W24
 BYTE   N10  En2  v116
 BYTE   W24
 BYTE   N10  En2  v116
 BYTE   W24
 BYTE   N10  En2  v116
 BYTE   W24
// 026   ----------------------------------------
 BYTE   N22  Gs2  v116
 BYTE   W24
 BYTE   N10  Fs2  v116
 BYTE   W12
 BYTE   N10  Fs2  v116
 BYTE   W12
 BYTE   N10  En2  v116
 BYTE   W24
 BYTE   N10  En2  v116
 BYTE   W24
// 027   ----------------------------------------
 BYTE   N10  En2  v116
 BYTE   W24
 BYTE   N10  En2  v116
 BYTE   W24
 BYTE   N22  Ds2  v116
 BYTE   W24
 BYTE   N06  Ds2  v116
 BYTE   W12
 BYTE   N06  Ds2  v116
 BYTE   W12
// 028   ----------------------------------------
 BYTE   N22  Ds2  v116
 BYTE   W24
 BYTE   N06  Ds2  v116
 BYTE   W12
 BYTE   N06  Ds2  v116
 BYTE   W12
 BYTE   N22  Ds2  v116
 BYTE   W24
 BYTE   N06  Ds2  v116
 BYTE   W12
 BYTE   N06  Ds2  v116
 BYTE   W12
// 029   ----------------------------------------
 BYTE   N10  En2  v116
 BYTE   W24
 BYTE   N22  En2  v116
 BYTE   W24
 BYTE   N22  Ds2  v116
 BYTE   W24
 BYTE   N06  Ds2  v116
 BYTE   W12
 BYTE   N06  Ds2  v116
 BYTE   W12
// 030   ----------------------------------------
 BYTE   N22  Ds2  v116
 BYTE   W24
 BYTE   N06  Ds2  v116
 BYTE   W12
 BYTE   N06  Ds2  v116
 BYTE   W12
 BYTE   N22  Ds2  v116
 BYTE   W24
 BYTE   N06  Ds2  v116
 BYTE   W12
 BYTE   N06  Ds2  v116
 BYTE   W12
// 031   ----------------------------------------
 BYTE   N10  Ds2  v116
 BYTE   W24
 BYTE   N22  Ds2  v116
 BYTE   W24
 BYTE   GoTo
  POIN2 Label_3_01012F86
// 032   ----------------------------------------
 BYTE   W02
 BYTE   FINE

//**************** Track 5 (Midi-Chn.4) ****************//

FF6TroopsMarchonTristanHollow_005:
// 000   ----------------------------------------
 BYTE   KEYSH   FF6TroopsMarchonTristanHollow_key+0
 BYTE   VOICE   34
 BYTE   VOL   40*FF6TroopsMarchonTristanHollow_mvl/mxv
 BYTE   PAN   c_v+0
 BYTE   N10  Cn2  v116
 BYTE   W24
 BYTE   N10  Cn2  v116
 BYTE   W12
 BYTE   N10  Cn2  v116
 BYTE   W12
 BYTE   N10  Cn2  v116
 BYTE   W24
 BYTE   N10  Cn2  v116
 BYTE   W12
 BYTE   N10  Cn2  v116
 BYTE   W12
// 001   ----------------------------------------
 BYTE   N10  Cn2  v116
 BYTE   W24
 BYTE   N10  Cn2  v116
 BYTE   W12
 BYTE   N10  Cn2  v116
 BYTE   W12
 BYTE   N10  Cn2  v116
 BYTE   W24
 BYTE   N10  Cn2  v116
 BYTE   W12
 BYTE   N10  Cn2  v116
 BYTE   W12
// 002   ----------------------------------------
 BYTE   N10  Cn2  v116
 BYTE   W24
 BYTE   N10  Cn2  v116
 BYTE   W12
 BYTE   N10  Cn2  v116
 BYTE   W12
 BYTE   N10  Cn2  v116
 BYTE   W24
 BYTE   N10  Cn2  v116
 BYTE   W12
 BYTE   N10  Cn2  v116
 BYTE   W12
// 003   ----------------------------------------
 BYTE   N10  Cn2  v116
 BYTE   W24
 BYTE   N10  Cn2  v116
 BYTE   W12
 BYTE   N10  Cn2  v116
 BYTE   W12
 BYTE   N10  Cn2  v116
 BYTE   W24
 BYTE   N10  Cn2  v116
 BYTE   W12
 BYTE   N10  Cn2  v116
 BYTE   W12
// 004   ----------------------------------------
Label_4_010131E8:
 BYTE   N10  Cn2  v116
 BYTE   W24
 BYTE   N10  Cn2  v116
 BYTE   W12
 BYTE   N10  Cn2  v116
 BYTE   W12
 BYTE   N10  Cn2  v116
 BYTE   W24
 BYTE   N10  Cn2  v116
 BYTE   W12
 BYTE   N10  Cn2  v116
 BYTE   W12
// 005   ----------------------------------------
 BYTE   N10  Cn2  v116
 BYTE   W24
 BYTE   N10  Cn2  v116
 BYTE   W12
 BYTE   N10  Cn2  v116
 BYTE   W12
 BYTE   N10  Cn2  v116
 BYTE   W24
 BYTE   N22  Cs2  v116
 BYTE   W24
// 006   ----------------------------------------
 BYTE   N10  Cn2  v116
 BYTE   W24
 BYTE   N10  Cn2  v116
 BYTE   W12
 BYTE   N10  Cn2  v116
 BYTE   W12
 BYTE   N10  Cn2  v116
 BYTE   W24
 BYTE   N10  Cn2  v116
 BYTE   W12
 BYTE   N10  Cn2  v116
 BYTE   W12
// 007   ----------------------------------------
 BYTE   N10  Cn2  v116
 BYTE   W24
 BYTE   N10  Cn2  v116
 BYTE   W12
 BYTE   N10  Cn2  v116
 BYTE   W12
 BYTE   N10  Cn2  v116
 BYTE   W24
 BYTE   N22  Cs2  v116
 BYTE   W24
// 008   ----------------------------------------
 BYTE   N10  Cn2  v116
 BYTE   W24
 BYTE   N10  Cn2  v116
 BYTE   W12
 BYTE   N10  Cn2  v116
 BYTE   W12
 BYTE   N10  Cn2  v116
 BYTE   W24
 BYTE   N10  Cn2  v116
 BYTE   W12
 BYTE   N10  Cn2  v116
 BYTE   W12
// 009   ----------------------------------------
 BYTE   N10  Cn2  v116
 BYTE   W24
 BYTE   N10  Cn2  v116
 BYTE   W12
 BYTE   N10  Cn2  v116
 BYTE   W12
 BYTE   N10  Cn2  v116
 BYTE   W24
 BYTE   N22  Cs2  v116
 BYTE   W24
// 010   ----------------------------------------
 BYTE   N10  Cn2  v116
 BYTE   W24
 BYTE   N10  Cn2  v116
 BYTE   W12
 BYTE   N10  Cn2  v116
 BYTE   W12
 BYTE   N10  Cn2  v116
 BYTE   W24
 BYTE   N10  Cn2  v116
 BYTE   W12
 BYTE   N10  Cn2  v116
 BYTE   W12
// 011   ----------------------------------------
 BYTE   N10  Cn2  v116
 BYTE   W24
 BYTE   N10  Cn2  v116
 BYTE   W12
 BYTE   N10  Cn2  v116
 BYTE   W12
 BYTE   N10  Cn2  v116
 BYTE   W24
 BYTE   N22  Cs2  v116
 BYTE   W24
// 012   ----------------------------------------
 BYTE   N10  Cn2  v116
 BYTE   W24
 BYTE   N10  Cn2  v116
 BYTE   W12
 BYTE   N10  Cn2  v116
 BYTE   W12
 BYTE   N10  Cn2  v116
 BYTE   W24
 BYTE   N10  Cn2  v116
 BYTE   W12
 BYTE   N10  Cn2  v116
 BYTE   W12
// 013   ----------------------------------------
 BYTE   N10  Cn2  v116
 BYTE   W24
 BYTE   N10  Cn2  v116
 BYTE   W12
 BYTE   N10  Cn2  v116
 BYTE   W12
 BYTE   N10  Cn2  v116
 BYTE   W24
 BYTE   N22  Cs2  v116
 BYTE   W24
// 014   ----------------------------------------
 BYTE   N10  Cn2  v116
 BYTE   W24
 BYTE   N10  Cn2  v116
 BYTE   W12
 BYTE   N10  Cn2  v116
 BYTE   W12
 BYTE   N10  Cn2  v116
 BYTE   W24
 BYTE   N10  Cn2  v116
 BYTE   W12
 BYTE   N10  Cn2  v116
 BYTE   W12
// 015   ----------------------------------------
 BYTE   N10  Cn2  v116
 BYTE   W24
 BYTE   N10  Cn2  v116
 BYTE   W12
 BYTE   N10  Cn2  v116
 BYTE   W12
 BYTE   N10  Cn2  v116
 BYTE   W24
 BYTE   N22  Cs2  v116
 BYTE   W24
// 016   ----------------------------------------
 BYTE   N10  Cn2  v116
 BYTE   W24
 BYTE   N10  Cn2  v116
 BYTE   W12
 BYTE   N10  Cn2  v116
 BYTE   W12
 BYTE   N10  Cn2  v116
 BYTE   W24
 BYTE   N10  Cn2  v116
 BYTE   W12
 BYTE   N10  Cn2  v116
 BYTE   W12
// 017   ----------------------------------------
 BYTE   N10  Cn2  v116
 BYTE   W24
 BYTE   N10  Cn2  v116
 BYTE   W12
 BYTE   N10  Cn2  v116
 BYTE   W12
 BYTE   N10  Cn2  v116
 BYTE   W24
 BYTE   N22  Cs2  v116
 BYTE   W24
// 018   ----------------------------------------
 BYTE   N10  Cn2  v116
 BYTE   W24
 BYTE   N10  Cn2  v116
 BYTE   W12
 BYTE   N10  Cn2  v116
 BYTE   W12
 BYTE   N10  Cn2  v116
 BYTE   W24
 BYTE   N10  Cn2  v116
 BYTE   W12
 BYTE   N10  Cn2  v116
 BYTE   W12
// 019   ----------------------------------------
 BYTE   N10  Cn2  v116
 BYTE   W24
 BYTE   N10  Cn2  v116
 BYTE   W12
 BYTE   N10  Cn2  v116
 BYTE   W12
 BYTE   N10  Cn2  v116
 BYTE   W24
 BYTE   N22  Cs2  v116
 BYTE   W24
// 020   ----------------------------------------
 BYTE   N10  Ds2  v116
 BYTE   W24
 BYTE   N10  Ds2  v116
 BYTE   W12
 BYTE   N10  Ds2  v116
 BYTE   W12
 BYTE   N10  Ds2  v116
 BYTE   W24
 BYTE   N10  Ds2  v116
 BYTE   W12
 BYTE   N10  Ds2  v116
 BYTE   W12
// 021   ----------------------------------------
 BYTE   N10  Ds2  v116
 BYTE   W24
 BYTE   N10  Ds2  v116
 BYTE   W12
 BYTE   N10  Ds2  v116
 BYTE   W12
 BYTE   N10  Ds2  v116
 BYTE   W24
 BYTE   N22  Ds2  v116
 BYTE   W24
// 022   ----------------------------------------
 BYTE   N10  Ds2  v116
 BYTE   W24
 BYTE   N10  Ds2  v116
 BYTE   W12
 BYTE   N10  Ds2  v116
 BYTE   W12
 BYTE   N10  Ds2  v116
 BYTE   W24
 BYTE   N10  Ds2  v116
 BYTE   W12
 BYTE   N10  Ds2  v116
 BYTE   W12
// 023   ----------------------------------------
 BYTE   N10  Ds2  v116
 BYTE   W24
 BYTE   N10  Ds2  v116
 BYTE   W12
 BYTE   N10  Ds2  v116
 BYTE   W12
 BYTE   N10  Ds2  v116
 BYTE   W24
 BYTE   N22  Ds2  v116
 BYTE   W24
// 024   ----------------------------------------
 BYTE   N10  En2  v116
 BYTE   W24
 BYTE   N10  En2  v116
 BYTE   W12
 BYTE   N10  En2  v116
 BYTE   W12
 BYTE   N10  En2  v116
 BYTE   W24
 BYTE   N10  En2  v116
 BYTE   W12
 BYTE   N10  En2  v116
 BYTE   W12
// 025   ----------------------------------------
 BYTE   N10  En2  v116
 BYTE   W24
 BYTE   N10  En2  v116
 BYTE   W12
 BYTE   N10  En2  v116
 BYTE   W12
 BYTE   N10  En2  v116
 BYTE   W24
 BYTE   N22  En2  v116
 BYTE   W24
// 026   ----------------------------------------
 BYTE   N10  En2  v116
 BYTE   W24
 BYTE   N10  En2  v116
 BYTE   W12
 BYTE   N10  En2  v116
 BYTE   W12
 BYTE   N10  En2  v116
 BYTE   W24
 BYTE   N10  En2  v116
 BYTE   W12
 BYTE   N10  En2  v116
 BYTE   W12
// 027   ----------------------------------------
 BYTE   N10  En2  v116
 BYTE   W24
 BYTE   N10  En2  v116
 BYTE   W12
 BYTE   N10  En2  v116
 BYTE   W12
 BYTE   N10  En2  v116
 BYTE   W24
 BYTE   N22  En2  v116
 BYTE   W24
// 028   ----------------------------------------
 BYTE   N10  Ds2  v116
 BYTE   W24
 BYTE   N10  Ds2  v116
 BYTE   W12
 BYTE   N10  Ds2  v116
 BYTE   W12
 BYTE   N10  Ds2  v116
 BYTE   W24
 BYTE   N10  Ds2  v116
 BYTE   W12
 BYTE   N10  Ds2  v116
 BYTE   W12
// 029   ----------------------------------------
 BYTE   N10  Ds2  v116
 BYTE   W24
 BYTE   N10  Ds2  v116
 BYTE   W12
 BYTE   N10  Ds2  v116
 BYTE   W12
 BYTE   N10  En2  v116
 BYTE   W24
 BYTE   N22  En2  v116
 BYTE   W24
// 030   ----------------------------------------
 BYTE   N10  Ds2  v116
 BYTE   W24
 BYTE   N10  Ds2  v116
 BYTE   W12
 BYTE   N10  Ds2  v116
 BYTE   W12
 BYTE   N10  Ds2  v116
 BYTE   W24
 BYTE   N10  Ds2  v116
 BYTE   W12
 BYTE   N10  Ds2  v116
 BYTE   W12
// 031   ----------------------------------------
 BYTE   N10  Ds2  v116
 BYTE   W24
 BYTE   N10  Ds2  v116
 BYTE   W12
 BYTE   N10  Ds2  v116
 BYTE   W12
 BYTE   N10  Ds2  v116
 BYTE   W24
 BYTE   N22  Ds2  v116
 BYTE   W24
// 032   ----------------------------------------
 BYTE   GoTo
  POIN2 Label_4_010131E8
// 033   ----------------------------------------
 BYTE   W02
 BYTE   FINE

//**************** Track 6 (Midi-Chn.5) ****************//

FF6TroopsMarchonTristanHollow_006:
// 000   ----------------------------------------
 BYTE   KEYSH   FF6TroopsMarchonTristanHollow_key+0
 BYTE   VOICE   127
 BYTE   PAN   c_v-8
 BYTE   W96
// 001   ----------------------------------------
 BYTE   W96
// 002   ----------------------------------------
 BYTE   W96
// 003   ----------------------------------------
 BYTE   W96
// 004   ----------------------------------------
Label_5_01013462:
 BYTE   VOL   26*FF6TroopsMarchonTristanHollow_mvl/mxv
 BYTE   N22  Dn1  v116
 BYTE   W24
 BYTE   VOL   20*FF6TroopsMarchonTristanHollow_mvl/mxv
 BYTE   N12  Dn1  v116
 BYTE   W12
 BYTE   N12  Dn1  v116
 BYTE   W12
 BYTE   VOL   26*FF6TroopsMarchonTristanHollow_mvl/mxv
 BYTE   N22  Dn1  v116
 BYTE   W24
 BYTE   VOL   20*FF6TroopsMarchonTristanHollow_mvl/mxv
 BYTE   N12  Dn1  v116
 BYTE   W12
 BYTE   N12  Dn1  v116
 BYTE   W12
// 005   ----------------------------------------
 BYTE   VOL   26*FF6TroopsMarchonTristanHollow_mvl/mxv
 BYTE   N22  Dn1  v116
 BYTE   W24
 BYTE   VOL   20*FF6TroopsMarchonTristanHollow_mvl/mxv
 BYTE   N12  Dn1  v116
 BYTE   W12
 BYTE   N12  Dn1  v116
 BYTE   W12
 BYTE   VOL   26*FF6TroopsMarchonTristanHollow_mvl/mxv
 BYTE   N22  Dn1  v116
 BYTE   W24
 BYTE   N04  Dn1  v116
 BYTE   W04
 BYTE   N04  Dn1  v116
 BYTE   W04
 BYTE   N04  Dn1  v116
 BYTE   W04
 BYTE   N04  Dn1  v116
 BYTE   W04
 BYTE   N04  Dn1  v116
 BYTE   W04
 BYTE   N04  Dn1  v116
 BYTE   W04
// 006   ----------------------------------------
 BYTE   VOL   26*FF6TroopsMarchonTristanHollow_mvl/mxv
 BYTE   N22  Dn1  v116
 BYTE   W24
 BYTE   VOL   20*FF6TroopsMarchonTristanHollow_mvl/mxv
 BYTE   N12  Dn1  v116
 BYTE   W12
 BYTE   N12  Dn1  v116
 BYTE   W12
 BYTE   VOL   26*FF6TroopsMarchonTristanHollow_mvl/mxv
 BYTE   N22  Dn1  v116
 BYTE   W24
 BYTE   VOL   20*FF6TroopsMarchonTristanHollow_mvl/mxv
 BYTE   N12  Dn1  v116
 BYTE   W12
 BYTE   N12  Dn1  v116
 BYTE   W12
// 007   ----------------------------------------
 BYTE   VOL   26*FF6TroopsMarchonTristanHollow_mvl/mxv
 BYTE   N22  Dn1  v116
 BYTE   W24
 BYTE   VOL   20*FF6TroopsMarchonTristanHollow_mvl/mxv
 BYTE   N12  Dn1  v116
 BYTE   W12
 BYTE   N12  Dn1  v116
 BYTE   W12
 BYTE   VOL   26*FF6TroopsMarchonTristanHollow_mvl/mxv
 BYTE   N22  Dn1  v116
 BYTE   W24
 BYTE   N04  Dn1  v116
 BYTE   W04
 BYTE   N04  Dn1  v116
 BYTE   W04
 BYTE   N04  Dn1  v116
 BYTE   W04
 BYTE   N04  Dn1  v116
 BYTE   W04
 BYTE   N04  Dn1  v116
 BYTE   W04
 BYTE   N04  Dn1  v116
 BYTE   W04
// 008   ----------------------------------------
 BYTE   VOL   26*FF6TroopsMarchonTristanHollow_mvl/mxv
 BYTE   N22  Dn1  v116
 BYTE   W24
 BYTE   VOL   20*FF6TroopsMarchonTristanHollow_mvl/mxv
 BYTE   N12  Dn1  v116
 BYTE   W12
 BYTE   N12  Dn1  v116
 BYTE   W12
 BYTE   VOL   26*FF6TroopsMarchonTristanHollow_mvl/mxv
 BYTE   N22  Dn1  v116
 BYTE   W24
 BYTE   VOL   20*FF6TroopsMarchonTristanHollow_mvl/mxv
 BYTE   N12  Dn1  v116
 BYTE   W12
 BYTE   N12  Dn1  v116
 BYTE   W12
// 009   ----------------------------------------
 BYTE   VOL   26*FF6TroopsMarchonTristanHollow_mvl/mxv
 BYTE   N22  Dn1  v116
 BYTE   W24
 BYTE   VOL   20*FF6TroopsMarchonTristanHollow_mvl/mxv
 BYTE   N12  Dn1  v116
 BYTE   W12
 BYTE   N12  Dn1  v116
 BYTE   W12
 BYTE   VOL   26*FF6TroopsMarchonTristanHollow_mvl/mxv
 BYTE   N22  Dn1  v116
 BYTE   W24
 BYTE   N04  Dn1  v116
 BYTE   W04
 BYTE   N04  Dn1  v116
 BYTE   W04
 BYTE   N04  Dn1  v116
 BYTE   W04
 BYTE   N04  Dn1  v116
 BYTE   W04
 BYTE   N04  Dn1  v116
 BYTE   W04
 BYTE   N04  Dn1  v116
 BYTE   W04
// 010   ----------------------------------------
 BYTE   VOL   26*FF6TroopsMarchonTristanHollow_mvl/mxv
 BYTE   N22  Dn1  v116
 BYTE   W24
 BYTE   VOL   20*FF6TroopsMarchonTristanHollow_mvl/mxv
 BYTE   N12  Dn1  v116
 BYTE   W12
 BYTE   N12  Dn1  v116
 BYTE   W12
 BYTE   VOL   26*FF6TroopsMarchonTristanHollow_mvl/mxv
 BYTE   N22  Dn1  v116
 BYTE   W24
 BYTE   VOL   20*FF6TroopsMarchonTristanHollow_mvl/mxv
 BYTE   N12  Dn1  v116
 BYTE   W12
 BYTE   N12  Dn1  v116
 BYTE   W12
// 011   ----------------------------------------
 BYTE   VOL   26*FF6TroopsMarchonTristanHollow_mvl/mxv
 BYTE   N22  Dn1  v116
 BYTE   W24
 BYTE   VOL   20*FF6TroopsMarchonTristanHollow_mvl/mxv
 BYTE   N12  Dn1  v116
 BYTE   W12
 BYTE   N12  Dn1  v116
 BYTE   W12
 BYTE   VOL   26*FF6TroopsMarchonTristanHollow_mvl/mxv
 BYTE   N22  Dn1  v116
 BYTE   W24
 BYTE   N04  Dn1  v116
 BYTE   W04
 BYTE   N04  Dn1  v116
 BYTE   W04
 BYTE   N04  Dn1  v116
 BYTE   W04
 BYTE   N04  Dn1  v116
 BYTE   W04
 BYTE   N04  Dn1  v116
 BYTE   W04
 BYTE   N04  Dn1  v116
 BYTE   W04
// 012   ----------------------------------------
 BYTE   VOL   26*FF6TroopsMarchonTristanHollow_mvl/mxv
 BYTE   N22  Dn1  v116
 BYTE   W24
 BYTE   VOL   20*FF6TroopsMarchonTristanHollow_mvl/mxv
 BYTE   N12  Dn1  v116
 BYTE   W12
 BYTE   N12  Dn1  v116
 BYTE   W12
 BYTE   VOL   26*FF6TroopsMarchonTristanHollow_mvl/mxv
 BYTE   N22  Dn1  v116
 BYTE   W24
 BYTE   VOL   20*FF6TroopsMarchonTristanHollow_mvl/mxv
 BYTE   N12  Dn1  v116
 BYTE   W12
 BYTE   N12  Dn1  v116
 BYTE   W12
// 013   ----------------------------------------
 BYTE   VOL   26*FF6TroopsMarchonTristanHollow_mvl/mxv
 BYTE   N22  Dn1  v116
 BYTE   W24
 BYTE   VOL   20*FF6TroopsMarchonTristanHollow_mvl/mxv
 BYTE   N12  Dn1  v116
 BYTE   W12
 BYTE   N12  Dn1  v116
 BYTE   W12
 BYTE   VOL   26*FF6TroopsMarchonTristanHollow_mvl/mxv
 BYTE   N22  Dn1  v116
 BYTE   W24
 BYTE   N04  Dn1  v116
 BYTE   W04
 BYTE   N04  Dn1  v116
 BYTE   W04
 BYTE   N04  Dn1  v116
 BYTE   W04
 BYTE   N04  Dn1  v116
 BYTE   W04
 BYTE   N04  Dn1  v116
 BYTE   W04
 BYTE   N04  Dn1  v116
 BYTE   W04
// 014   ----------------------------------------
 BYTE   VOL   26*FF6TroopsMarchonTristanHollow_mvl/mxv
 BYTE   N22  Dn1  v116
 BYTE   W24
 BYTE   VOL   20*FF6TroopsMarchonTristanHollow_mvl/mxv
 BYTE   N12  Dn1  v116
 BYTE   W12
 BYTE   N12  Dn1  v116
 BYTE   W12
 BYTE   VOL   26*FF6TroopsMarchonTristanHollow_mvl/mxv
 BYTE   N22  Dn1  v116
 BYTE   W24
 BYTE   VOL   20*FF6TroopsMarchonTristanHollow_mvl/mxv
 BYTE   N12  Dn1  v116
 BYTE   W12
 BYTE   N12  Dn1  v116
 BYTE   W12
// 015   ----------------------------------------
 BYTE   VOL   26*FF6TroopsMarchonTristanHollow_mvl/mxv
 BYTE   N22  Dn1  v116
 BYTE   W24
 BYTE   VOL   20*FF6TroopsMarchonTristanHollow_mvl/mxv
 BYTE   N12  Dn1  v116
 BYTE   W12
 BYTE   N12  Dn1  v116
 BYTE   W12
 BYTE   VOL   26*FF6TroopsMarchonTristanHollow_mvl/mxv
 BYTE   N22  Dn1  v116
 BYTE   W24
 BYTE   N04  Dn1  v116
 BYTE   W04
 BYTE   N04  Dn1  v116
 BYTE   W04
 BYTE   N04  Dn1  v116
 BYTE   W04
 BYTE   N04  Dn1  v116
 BYTE   W04
 BYTE   N04  Dn1  v116
 BYTE   W04
 BYTE   N04  Dn1  v116
 BYTE   W04
// 016   ----------------------------------------
 BYTE   VOL   26*FF6TroopsMarchonTristanHollow_mvl/mxv
 BYTE   N22  Dn1  v116
 BYTE   W24
 BYTE   VOL   20*FF6TroopsMarchonTristanHollow_mvl/mxv
 BYTE   N12  Dn1  v116
 BYTE   W12
 BYTE   N12  Dn1  v116
 BYTE   W12
 BYTE   VOL   26*FF6TroopsMarchonTristanHollow_mvl/mxv
 BYTE   N22  Dn1  v116
 BYTE   W24
 BYTE   VOL   20*FF6TroopsMarchonTristanHollow_mvl/mxv
 BYTE   N12  Dn1  v116
 BYTE   W12
 BYTE   N12  Dn1  v116
 BYTE   W12
// 017   ----------------------------------------
 BYTE   VOL   26*FF6TroopsMarchonTristanHollow_mvl/mxv
 BYTE   N22  Dn1  v116
 BYTE   W24
 BYTE   VOL   20*FF6TroopsMarchonTristanHollow_mvl/mxv
 BYTE   N12  Dn1  v116
 BYTE   W12
 BYTE   N12  Dn1  v116
 BYTE   W12
 BYTE   VOL   26*FF6TroopsMarchonTristanHollow_mvl/mxv
 BYTE   N22  Dn1  v116
 BYTE   W24
 BYTE   N04  Dn1  v116
 BYTE   W04
 BYTE   N04  Dn1  v116
 BYTE   W04
 BYTE   N04  Dn1  v116
 BYTE   W04
 BYTE   N04  Dn1  v116
 BYTE   W04
 BYTE   N04  Dn1  v116
 BYTE   W04
 BYTE   N04  Dn1  v116
 BYTE   W04
// 018   ----------------------------------------
 BYTE   VOL   26*FF6TroopsMarchonTristanHollow_mvl/mxv
 BYTE   N22  Dn1  v116
 BYTE   W24
 BYTE   VOL   20*FF6TroopsMarchonTristanHollow_mvl/mxv
 BYTE   N12  Dn1  v116
 BYTE   W12
 BYTE   N12  Dn1  v116
 BYTE   W12
 BYTE   VOL   26*FF6TroopsMarchonTristanHollow_mvl/mxv
 BYTE   N22  Dn1  v116
 BYTE   W24
 BYTE   VOL   20*FF6TroopsMarchonTristanHollow_mvl/mxv
 BYTE   N12  Dn1  v116
 BYTE   W12
 BYTE   N12  Dn1  v116
 BYTE   W12
// 019   ----------------------------------------
 BYTE   VOL   26*FF6TroopsMarchonTristanHollow_mvl/mxv
 BYTE   N22  Dn1  v116
 BYTE   W24
 BYTE   VOL   20*FF6TroopsMarchonTristanHollow_mvl/mxv
 BYTE   N12  Dn1  v116
 BYTE   W12
 BYTE   N12  Dn1  v116
 BYTE   W12
 BYTE   VOL   26*FF6TroopsMarchonTristanHollow_mvl/mxv
 BYTE   N22  Dn1  v116
 BYTE   W24
 BYTE   N04  Dn1  v116
 BYTE   W04
 BYTE   N04  Dn1  v116
 BYTE   W04
 BYTE   N04  Dn1  v116
 BYTE   W04
 BYTE   N04  Dn1  v116
 BYTE   W04
 BYTE   N04  Dn1  v116
 BYTE   W04
 BYTE   N04  Dn1  v116
 BYTE   W04
// 020   ----------------------------------------
 BYTE   VOL   26*FF6TroopsMarchonTristanHollow_mvl/mxv
 BYTE   N22  Dn1  v116
 BYTE   W24
 BYTE   VOL   20*FF6TroopsMarchonTristanHollow_mvl/mxv
 BYTE   N12  Dn1  v116
 BYTE   W12
 BYTE   N12  Dn1  v116
 BYTE   W12
 BYTE   VOL   26*FF6TroopsMarchonTristanHollow_mvl/mxv
 BYTE   N22  Dn1  v116
 BYTE   W24
 BYTE   VOL   20*FF6TroopsMarchonTristanHollow_mvl/mxv
 BYTE   N12  Dn1  v116
 BYTE   W12
 BYTE   N12  Dn1  v116
 BYTE   W12
// 021   ----------------------------------------
 BYTE   VOL   26*FF6TroopsMarchonTristanHollow_mvl/mxv
 BYTE   N22  Dn1  v116
 BYTE   W24
 BYTE   VOL   20*FF6TroopsMarchonTristanHollow_mvl/mxv
 BYTE   N12  Dn1  v116
 BYTE   W12
 BYTE   N12  Dn1  v116
 BYTE   W12
 BYTE   VOL   26*FF6TroopsMarchonTristanHollow_mvl/mxv
 BYTE   N22  Dn1  v116
 BYTE   W24
 BYTE   N04  Dn1  v116
 BYTE   W04
 BYTE   N04  Dn1  v116
 BYTE   W04
 BYTE   N04  Dn1  v116
 BYTE   W04
 BYTE   N04  Dn1  v116
 BYTE   W04
 BYTE   N04  Dn1  v116
 BYTE   W04
 BYTE   N04  Dn1  v116
 BYTE   W04
// 022   ----------------------------------------
 BYTE   VOL   26*FF6TroopsMarchonTristanHollow_mvl/mxv
 BYTE   N22  Dn1  v116
 BYTE   W24
 BYTE   VOL   20*FF6TroopsMarchonTristanHollow_mvl/mxv
 BYTE   N12  Dn1  v116
 BYTE   W12
 BYTE   N12  Dn1  v116
 BYTE   W12
 BYTE   VOL   26*FF6TroopsMarchonTristanHollow_mvl/mxv
 BYTE   N22  Dn1  v116
 BYTE   W24
 BYTE   VOL   20*FF6TroopsMarchonTristanHollow_mvl/mxv
 BYTE   N12  Dn1  v116
 BYTE   W12
 BYTE   N12  Dn1  v116
 BYTE   W12
// 023   ----------------------------------------
 BYTE   VOL   26*FF6TroopsMarchonTristanHollow_mvl/mxv
 BYTE   N22  Dn1  v116
 BYTE   W24
 BYTE   VOL   20*FF6TroopsMarchonTristanHollow_mvl/mxv
 BYTE   N12  Dn1  v116
 BYTE   W12
 BYTE   N12  Dn1  v116
 BYTE   W12
 BYTE   VOL   26*FF6TroopsMarchonTristanHollow_mvl/mxv
 BYTE   N22  Dn1  v116
 BYTE   W24
 BYTE   N04  Dn1  v116
 BYTE   W04
 BYTE   N04  Dn1  v116
 BYTE   W04
 BYTE   N04  Dn1  v116
 BYTE   W04
 BYTE   N04  Dn1  v116
 BYTE   W04
 BYTE   N04  Dn1  v116
 BYTE   W04
 BYTE   N04  Dn1  v116
 BYTE   W04
// 024   ----------------------------------------
 BYTE   VOL   26*FF6TroopsMarchonTristanHollow_mvl/mxv
 BYTE   N22  Dn1  v116
 BYTE   W24
 BYTE   VOL   20*FF6TroopsMarchonTristanHollow_mvl/mxv
 BYTE   N12  Dn1  v116
 BYTE   W12
 BYTE   N12  Dn1  v116
 BYTE   W12
 BYTE   VOL   26*FF6TroopsMarchonTristanHollow_mvl/mxv
 BYTE   N22  Dn1  v116
 BYTE   W24
 BYTE   VOL   20*FF6TroopsMarchonTristanHollow_mvl/mxv
 BYTE   N12  Dn1  v116
 BYTE   W12
 BYTE   N12  Dn1  v116
 BYTE   W12
// 025   ----------------------------------------
 BYTE   VOL   26*FF6TroopsMarchonTristanHollow_mvl/mxv
 BYTE   N22  Dn1  v116
 BYTE   W24
 BYTE   VOL   20*FF6TroopsMarchonTristanHollow_mvl/mxv
 BYTE   N12  Dn1  v116
 BYTE   W12
 BYTE   N12  Dn1  v116
 BYTE   W12
 BYTE   VOL   26*FF6TroopsMarchonTristanHollow_mvl/mxv
 BYTE   N22  Dn1  v116
 BYTE   W24
 BYTE   N04  Dn1  v116
 BYTE   W04
 BYTE   N04  Dn1  v116
 BYTE   W04
 BYTE   N04  Dn1  v116
 BYTE   W04
 BYTE   N04  Dn1  v116
 BYTE   W04
 BYTE   N04  Dn1  v116
 BYTE   W04
 BYTE   N04  Dn1  v116
 BYTE   W04
// 026   ----------------------------------------
 BYTE   VOL   26*FF6TroopsMarchonTristanHollow_mvl/mxv
 BYTE   N22  Dn1  v116
 BYTE   W24
 BYTE   VOL   20*FF6TroopsMarchonTristanHollow_mvl/mxv
 BYTE   N12  Dn1  v116
 BYTE   W12
 BYTE   N12  Dn1  v116
 BYTE   W12
 BYTE   VOL   26*FF6TroopsMarchonTristanHollow_mvl/mxv
 BYTE   N22  Dn1  v116
 BYTE   W24
 BYTE   VOL   20*FF6TroopsMarchonTristanHollow_mvl/mxv
 BYTE   N12  Dn1  v116
 BYTE   W12
 BYTE   N12  Dn1  v116
 BYTE   W12
// 027   ----------------------------------------
 BYTE   VOL   26*FF6TroopsMarchonTristanHollow_mvl/mxv
 BYTE   N22  Dn1  v116
 BYTE   W24
 BYTE   VOL   20*FF6TroopsMarchonTristanHollow_mvl/mxv
 BYTE   N12  Dn1  v116
 BYTE   W12
 BYTE   N12  Dn1  v116
 BYTE   W12
 BYTE   VOL   26*FF6TroopsMarchonTristanHollow_mvl/mxv
 BYTE   N22  Dn1  v116
 BYTE   W24
 BYTE   N04  Dn1  v116
 BYTE   W04
 BYTE   N04  Dn1  v116
 BYTE   W04
 BYTE   N04  Dn1  v116
 BYTE   W04
 BYTE   N04  Dn1  v116
 BYTE   W04
 BYTE   N04  Dn1  v116
 BYTE   W04
 BYTE   N04  Dn1  v116
 BYTE   W04
// 028   ----------------------------------------
 BYTE   VOL   26*FF6TroopsMarchonTristanHollow_mvl/mxv
 BYTE   N22  Dn1  v116
 BYTE   W24
 BYTE   VOL   20*FF6TroopsMarchonTristanHollow_mvl/mxv
 BYTE   N12  Dn1  v116
 BYTE   W12
 BYTE   N12  Dn1  v116
 BYTE   W12
 BYTE   VOL   26*FF6TroopsMarchonTristanHollow_mvl/mxv
 BYTE   N22  Dn1  v116
 BYTE   W24
 BYTE   VOL   20*FF6TroopsMarchonTristanHollow_mvl/mxv
 BYTE   N12  Dn1  v116
 BYTE   W12
 BYTE   N12  Dn1  v116
 BYTE   W12
// 029   ----------------------------------------
 BYTE   VOL   26*FF6TroopsMarchonTristanHollow_mvl/mxv
 BYTE   N22  Dn1  v116
 BYTE   W24
 BYTE   VOL   20*FF6TroopsMarchonTristanHollow_mvl/mxv
 BYTE   N12  Dn1  v116
 BYTE   W12
 BYTE   N12  Dn1  v116
 BYTE   W12
 BYTE   VOL   26*FF6TroopsMarchonTristanHollow_mvl/mxv
 BYTE   N22  Dn1  v116
 BYTE   W24
 BYTE   N04  Dn1  v116
 BYTE   W04
 BYTE   N04  Dn1  v116
 BYTE   W04
 BYTE   N04  Dn1  v116
 BYTE   W04
 BYTE   N04  Dn1  v116
 BYTE   W04
 BYTE   N04  Dn1  v116
 BYTE   W04
 BYTE   N04  Dn1  v116
 BYTE   W04
// 030   ----------------------------------------
 BYTE   VOL   26*FF6TroopsMarchonTristanHollow_mvl/mxv
 BYTE   N22  Dn1  v116
 BYTE   W24
 BYTE   VOL   20*FF6TroopsMarchonTristanHollow_mvl/mxv
 BYTE   N12  Dn1  v116
 BYTE   W12
 BYTE   N12  Dn1  v116
 BYTE   W12
 BYTE   VOL   26*FF6TroopsMarchonTristanHollow_mvl/mxv
 BYTE   N22  Dn1  v116
 BYTE   W24
 BYTE   VOL   20*FF6TroopsMarchonTristanHollow_mvl/mxv
 BYTE   N12  Dn1  v116
 BYTE   W12
 BYTE   N12  Dn1  v116
 BYTE   W12
// 031   ----------------------------------------
 BYTE   VOL   26*FF6TroopsMarchonTristanHollow_mvl/mxv
 BYTE   N22  Dn1  v116
 BYTE   W24
 BYTE   VOL   20*FF6TroopsMarchonTristanHollow_mvl/mxv
 BYTE   N12  Dn1  v116
 BYTE   W12
 BYTE   N12  Dn1  v116
 BYTE   W12
 BYTE   VOL   26*FF6TroopsMarchonTristanHollow_mvl/mxv
 BYTE   N22  Dn1  v116
 BYTE   W24
 BYTE   N04  Dn1  v116
 BYTE   W04
 BYTE   N04  Dn1  v116
 BYTE   W04
 BYTE   N04  Dn1  v116
 BYTE   W04
 BYTE   N04  Dn1  v116
 BYTE   W04
 BYTE   N04  Dn1  v116
 BYTE   W04
 BYTE   N04  Dn1  v116
 BYTE   W04
// 032   ----------------------------------------
 BYTE   GoTo
  POIN2 Label_5_01013462
// 033   ----------------------------------------
 BYTE   W02
 BYTE   FINE

//**************** Track 7 (Midi-Chn.6) ****************//

FF6TroopsMarchonTristanHollow_007:
// 000   ----------------------------------------
 BYTE   KEYSH   FF6TroopsMarchonTristanHollow_key+12
 BYTE   VOICE   47
 BYTE   VOL   44*FF6TroopsMarchonTristanHollow_mvl/mxv
 BYTE   PAN   c_v+6
 BYTE   N22  Cn2  v116
 BYTE   W24
 BYTE   N10  Cn2  v116
 BYTE   W12
 BYTE   N10  Cn2  v116
 BYTE   W12
 BYTE   TIE  Cn2  v116
 BYTE   W96
// 001   ----------------------------------------
 BYTE   W44
 BYTE   W02
 BYTE   EOT
 BYTE   Cn2
 BYTE   W02
 BYTE   N22  Cn2  v116
 BYTE   W24
 BYTE   N10  Cn2  v116
 BYTE   W12
 BYTE   N10  Cn2  v116
 BYTE   W12
// 002   ----------------------------------------
 BYTE   TIE  Cn2  v116
 BYTE   W96
// 003   ----------------------------------------
 BYTE   W44
 BYTE   W02
 BYTE   EOT
 BYTE   Cn2
 BYTE   W02
Label_6_010138E2:
 BYTE   N22  Cn2  v116
 BYTE   W24
 BYTE   N10  Cn2  v116
 BYTE   W12
 BYTE   N10  Cn2  v116
 BYTE   W12
// 004   ----------------------------------------
 BYTE   N92  Cn2  v116
 BYTE   W96
// 005   ----------------------------------------
 BYTE   N22  Cn2  v116
 BYTE   W24
 BYTE   N22  Cs2  v116
 BYTE   W24
 BYTE   N22  Cn2  v116
 BYTE   W24
 BYTE   N10  Cn2  v116
 BYTE   W12
 BYTE   N10  Cn2  v116
 BYTE   W12
// 006   ----------------------------------------
 BYTE   N92  Cn2  v116
 BYTE   W96
// 007   ----------------------------------------
 BYTE   N22  Cn2  v116
 BYTE   W24
 BYTE   N22  Cs2  v116
 BYTE   W24
 BYTE   N22  Cn2  v116
 BYTE   W24
 BYTE   N10  Cn2  v116
 BYTE   W12
 BYTE   N10  Cn2  v116
 BYTE   W12
// 008   ----------------------------------------
 BYTE   N92  Cn2  v116
 BYTE   W96
// 009   ----------------------------------------
 BYTE   N22  Cn2  v116
 BYTE   W24
 BYTE   N22  Cs2  v116
 BYTE   W24
 BYTE   N22  Cn2  v116
 BYTE   W24
 BYTE   N10  Cn2  v116
 BYTE   W12
 BYTE   N10  Cn2  v116
 BYTE   W12
// 010   ----------------------------------------
 BYTE   N92  Cn2  v116
 BYTE   W96
// 011   ----------------------------------------
 BYTE   N22  Cn2  v116
 BYTE   W24
 BYTE   N22  Cs2  v116
 BYTE   W24
 BYTE   N22  Cn2  v116
 BYTE   W24
 BYTE   N10  Cn2  v116
 BYTE   W12
 BYTE   N10  Cn2  v116
 BYTE   W12
// 012   ----------------------------------------
 BYTE   N92  Cn2  v116
 BYTE   W96
// 013   ----------------------------------------
 BYTE   N22  Cn2  v116
 BYTE   W24
 BYTE   N22  Cs2  v116
 BYTE   W24
 BYTE   N22  Cn2  v116
 BYTE   W24
 BYTE   N10  Cn2  v116
 BYTE   W12
 BYTE   N10  Cn2  v116
 BYTE   W12
// 014   ----------------------------------------
 BYTE   N92  Cn2  v116
 BYTE   W96
// 015   ----------------------------------------
 BYTE   N22  Cn2  v116
 BYTE   W24
 BYTE   N22  Cs2  v116
 BYTE   W24
 BYTE   N22  Cn2  v116
 BYTE   W24
 BYTE   N10  Cn2  v116
 BYTE   W12
 BYTE   N10  Cn2  v116
 BYTE   W12
// 016   ----------------------------------------
 BYTE   N92  Cn2  v116
 BYTE   W96
// 017   ----------------------------------------
 BYTE   N22  Cn2  v116
 BYTE   W24
 BYTE   N22  Cs2  v116
 BYTE   W24
 BYTE   N22  Cn2  v116
 BYTE   W24
 BYTE   N10  Cn2  v116
 BYTE   W12
 BYTE   N10  Cn2  v116
 BYTE   W12
// 018   ----------------------------------------
 BYTE   N92  Cn2  v116
 BYTE   W96
// 019   ----------------------------------------
 BYTE   N22  Cn2  v116
 BYTE   W24
 BYTE   N22  Cs2  v116
 BYTE   W24
 BYTE   N22  Ds2  v116
 BYTE   W24
 BYTE   N10  Ds2  v116
 BYTE   W12
 BYTE   N10  Ds2  v116
 BYTE   W12
// 020   ----------------------------------------
 BYTE   N92  Ds2  v116
 BYTE   W96
// 021   ----------------------------------------
 BYTE   N22  Ds2  v116
 BYTE   W24
 BYTE   N22  Ds2  v116
 BYTE   W24
 BYTE   N22  Ds2  v116
 BYTE   W24
 BYTE   N10  Ds2  v116
 BYTE   W12
 BYTE   N10  Ds2  v116
 BYTE   W12
// 022   ----------------------------------------
 BYTE   N92  Ds2  v116
 BYTE   W96
// 023   ----------------------------------------
 BYTE   N22  Ds2  v116
 BYTE   W24
 BYTE   N22  Ds2  v116
 BYTE   W24
 BYTE   N22  En2  v116
 BYTE   W24
 BYTE   N10  En2  v116
 BYTE   W12
 BYTE   N10  En2  v116
 BYTE   W12
// 024   ----------------------------------------
 BYTE   N92  En2  v116
 BYTE   W96
// 025   ----------------------------------------
 BYTE   N22  En2  v116
 BYTE   W24
 BYTE   N22  En2  v116
 BYTE   W24
 BYTE   N22  En2  v116
 BYTE   W24
 BYTE   N10  En2  v116
 BYTE   W12
 BYTE   N10  En2  v116
 BYTE   W12
// 026   ----------------------------------------
 BYTE   N92  En2  v116
 BYTE   W96
// 027   ----------------------------------------
 BYTE   N22  En2  v116
 BYTE   W24
 BYTE   N22  En2  v116
 BYTE   W24
 BYTE   N22  Ds2  v116
 BYTE   W24
 BYTE   N10  Ds2  v116
 BYTE   W12
 BYTE   N10  Ds2  v116
 BYTE   W12
// 028   ----------------------------------------
 BYTE   N92  Ds2  v116
 BYTE   W96
// 029   ----------------------------------------
 BYTE   N22  En2  v116
 BYTE   W24
 BYTE   N22  En2  v116
 BYTE   W24
 BYTE   N22  Ds2  v116
 BYTE   W24
 BYTE   N10  Ds2  v116
 BYTE   W12
 BYTE   N10  Ds2  v116
 BYTE   W12
// 030   ----------------------------------------
 BYTE   N92  Ds2  v116
 BYTE   W96
// 031   ----------------------------------------
 BYTE   N22  Ds2  v116
 BYTE   W24
 BYTE   N22  Ds2  v116
 BYTE   W24
 BYTE   GoTo
  POIN2 Label_6_010138E2
// 032   ----------------------------------------
 BYTE   W02
 BYTE   FINE

//**************** Track 8 (Midi-Chn.7) ****************//

FF6TroopsMarchonTristanHollow_008:
// 000   ----------------------------------------
 BYTE   KEYSH   FF6TroopsMarchonTristanHollow_key+0
 BYTE   VOICE   127
 BYTE   BEND   c_v-32
 BYTE   PAN   c_v+10
 BYTE   W96
// 001   ----------------------------------------
 BYTE   W96
// 002   ----------------------------------------
 BYTE   W96
// 003   ----------------------------------------
 BYTE   W96
// 004   ----------------------------------------
Label_7_01013A48:
 BYTE   W02
 BYTE   VOL   26*FF6TroopsMarchonTristanHollow_mvl/mxv
 BYTE   N22  Dn1  v116
 BYTE   W24
 BYTE   VOL   20*FF6TroopsMarchonTristanHollow_mvl/mxv
 BYTE   N12  Dn1  v116
 BYTE   W12
 BYTE   N12  Dn1  v116
 BYTE   W12
 BYTE   VOL   26*FF6TroopsMarchonTristanHollow_mvl/mxv
 BYTE   N22  Dn1  v116
 BYTE   W24
 BYTE   VOL   20*FF6TroopsMarchonTristanHollow_mvl/mxv
 BYTE   N12  Dn1  v116
 BYTE   W12
 BYTE   N12  Dn1  v116
 BYTE   W12
// 005   ----------------------------------------
 BYTE   VOL   26*FF6TroopsMarchonTristanHollow_mvl/mxv
 BYTE   N22  Dn1  v116
 BYTE   W24
 BYTE   VOL   20*FF6TroopsMarchonTristanHollow_mvl/mxv
 BYTE   N12  Dn1  v116
 BYTE   W12
 BYTE   N12  Dn1  v116
 BYTE   W12
 BYTE   VOL   26*FF6TroopsMarchonTristanHollow_mvl/mxv
 BYTE   N22  Dn1  v116
 BYTE   W24
 BYTE   N04  Dn1  v116
 BYTE   W04
 BYTE   N04  Dn1  v116
 BYTE   W04
 BYTE   N04  Dn1  v116
 BYTE   W04
 BYTE   N04  Dn1  v116
 BYTE   W04
 BYTE   N04  Dn1  v116
 BYTE   W04
 BYTE   N04  Dn1  v116
 BYTE   W02
 BYTE   W02
// 006   ----------------------------------------
 BYTE   VOL   26*FF6TroopsMarchonTristanHollow_mvl/mxv
 BYTE   N22  Dn1  v116
 BYTE   W24
 BYTE   VOL   20*FF6TroopsMarchonTristanHollow_mvl/mxv
 BYTE   N12  Dn1  v116
 BYTE   W12
 BYTE   N12  Dn1  v116
 BYTE   W12
 BYTE   VOL   26*FF6TroopsMarchonTristanHollow_mvl/mxv
 BYTE   N22  Dn1  v116
 BYTE   W24
 BYTE   VOL   20*FF6TroopsMarchonTristanHollow_mvl/mxv
 BYTE   N12  Dn1  v116
 BYTE   W12
 BYTE   N12  Dn1  v116
 BYTE   W12
// 007   ----------------------------------------
 BYTE   VOL   26*FF6TroopsMarchonTristanHollow_mvl/mxv
 BYTE   N22  Dn1  v116
 BYTE   W24
 BYTE   VOL   20*FF6TroopsMarchonTristanHollow_mvl/mxv
 BYTE   N12  Dn1  v116
 BYTE   W12
 BYTE   N12  Dn1  v116
 BYTE   W12
 BYTE   VOL   26*FF6TroopsMarchonTristanHollow_mvl/mxv
 BYTE   N22  Dn1  v116
 BYTE   W24
 BYTE   N04  Dn1  v116
 BYTE   W04
 BYTE   N04  Dn1  v116
 BYTE   W04
 BYTE   N04  Dn1  v116
 BYTE   W04
 BYTE   N04  Dn1  v116
 BYTE   W04
 BYTE   N04  Dn1  v116
 BYTE   W04
 BYTE   N04  Dn1  v116
 BYTE   W02
 BYTE   W02
// 008   ----------------------------------------
 BYTE   VOL   26*FF6TroopsMarchonTristanHollow_mvl/mxv
 BYTE   N22  Dn1  v116
 BYTE   W24
 BYTE   VOL   20*FF6TroopsMarchonTristanHollow_mvl/mxv
 BYTE   N12  Dn1  v116
 BYTE   W12
 BYTE   N12  Dn1  v116
 BYTE   W12
 BYTE   VOL   26*FF6TroopsMarchonTristanHollow_mvl/mxv
 BYTE   N22  Dn1  v116
 BYTE   W24
 BYTE   VOL   20*FF6TroopsMarchonTristanHollow_mvl/mxv
 BYTE   N12  Dn1  v116
 BYTE   W12
 BYTE   N12  Dn1  v116
 BYTE   W12
// 009   ----------------------------------------
 BYTE   VOL   26*FF6TroopsMarchonTristanHollow_mvl/mxv
 BYTE   N22  Dn1  v116
 BYTE   W24
 BYTE   VOL   20*FF6TroopsMarchonTristanHollow_mvl/mxv
 BYTE   N12  Dn1  v116
 BYTE   W12
 BYTE   N12  Dn1  v116
 BYTE   W12
 BYTE   VOL   26*FF6TroopsMarchonTristanHollow_mvl/mxv
 BYTE   N22  Dn1  v116
 BYTE   W24
 BYTE   N04  Dn1  v116
 BYTE   W04
 BYTE   N04  Dn1  v116
 BYTE   W04
 BYTE   N04  Dn1  v116
 BYTE   W04
 BYTE   N04  Dn1  v116
 BYTE   W04
 BYTE   N04  Dn1  v116
 BYTE   W04
 BYTE   N04  Dn1  v116
 BYTE   W02
 BYTE   W02
// 010   ----------------------------------------
 BYTE   VOL   26*FF6TroopsMarchonTristanHollow_mvl/mxv
 BYTE   N22  Dn1  v116
 BYTE   W24
 BYTE   VOL   20*FF6TroopsMarchonTristanHollow_mvl/mxv
 BYTE   N12  Dn1  v116
 BYTE   W12
 BYTE   N12  Dn1  v116
 BYTE   W12
 BYTE   VOL   26*FF6TroopsMarchonTristanHollow_mvl/mxv
 BYTE   N22  Dn1  v116
 BYTE   W24
 BYTE   VOL   20*FF6TroopsMarchonTristanHollow_mvl/mxv
 BYTE   N12  Dn1  v116
 BYTE   W12
 BYTE   N12  Dn1  v116
 BYTE   W12
// 011   ----------------------------------------
 BYTE   VOL   26*FF6TroopsMarchonTristanHollow_mvl/mxv
 BYTE   N22  Dn1  v116
 BYTE   W24
 BYTE   VOL   20*FF6TroopsMarchonTristanHollow_mvl/mxv
 BYTE   N12  Dn1  v116
 BYTE   W12
 BYTE   N12  Dn1  v116
 BYTE   W12
 BYTE   VOL   26*FF6TroopsMarchonTristanHollow_mvl/mxv
 BYTE   N22  Dn1  v116
 BYTE   W24
 BYTE   N04  Dn1  v116
 BYTE   W04
 BYTE   N04  Dn1  v116
 BYTE   W04
 BYTE   N04  Dn1  v116
 BYTE   W04
 BYTE   N04  Dn1  v116
 BYTE   W04
 BYTE   N04  Dn1  v116
 BYTE   W04
 BYTE   N04  Dn1  v116
 BYTE   W02
 BYTE   W02
// 012   ----------------------------------------
 BYTE   VOL   26*FF6TroopsMarchonTristanHollow_mvl/mxv
 BYTE   N22  Dn1  v116
 BYTE   W24
 BYTE   VOL   20*FF6TroopsMarchonTristanHollow_mvl/mxv
 BYTE   N12  Dn1  v116
 BYTE   W12
 BYTE   N12  Dn1  v116
 BYTE   W12
 BYTE   VOL   26*FF6TroopsMarchonTristanHollow_mvl/mxv
 BYTE   N22  Dn1  v116
 BYTE   W24
 BYTE   VOL   20*FF6TroopsMarchonTristanHollow_mvl/mxv
 BYTE   N12  Dn1  v116
 BYTE   W12
 BYTE   N12  Dn1  v116
 BYTE   W12
// 013   ----------------------------------------
 BYTE   VOL   26*FF6TroopsMarchonTristanHollow_mvl/mxv
 BYTE   N22  Dn1  v116
 BYTE   W24
 BYTE   VOL   20*FF6TroopsMarchonTristanHollow_mvl/mxv
 BYTE   N12  Dn1  v116
 BYTE   W12
 BYTE   N12  Dn1  v116
 BYTE   W12
 BYTE   VOL   26*FF6TroopsMarchonTristanHollow_mvl/mxv
 BYTE   N22  Dn1  v116
 BYTE   W24
 BYTE   N04  Dn1  v116
 BYTE   W04
 BYTE   N04  Dn1  v116
 BYTE   W04
 BYTE   N04  Dn1  v116
 BYTE   W04
 BYTE   N04  Dn1  v116
 BYTE   W04
 BYTE   N04  Dn1  v116
 BYTE   W04
 BYTE   N04  Dn1  v116
 BYTE   W02
 BYTE   W02
// 014   ----------------------------------------
 BYTE   VOL   26*FF6TroopsMarchonTristanHollow_mvl/mxv
 BYTE   N22  Dn1  v116
 BYTE   W24
 BYTE   VOL   20*FF6TroopsMarchonTristanHollow_mvl/mxv
 BYTE   N12  Dn1  v116
 BYTE   W12
 BYTE   N12  Dn1  v116
 BYTE   W12
 BYTE   VOL   26*FF6TroopsMarchonTristanHollow_mvl/mxv
 BYTE   N22  Dn1  v116
 BYTE   W24
 BYTE   VOL   20*FF6TroopsMarchonTristanHollow_mvl/mxv
 BYTE   N12  Dn1  v116
 BYTE   W12
 BYTE   N12  Dn1  v116
 BYTE   W12
// 015   ----------------------------------------
 BYTE   VOL   26*FF6TroopsMarchonTristanHollow_mvl/mxv
 BYTE   N22  Dn1  v116
 BYTE   W24
 BYTE   VOL   20*FF6TroopsMarchonTristanHollow_mvl/mxv
 BYTE   N12  Dn1  v116
 BYTE   W12
 BYTE   N12  Dn1  v116
 BYTE   W12
 BYTE   VOL   26*FF6TroopsMarchonTristanHollow_mvl/mxv
 BYTE   N22  Dn1  v116
 BYTE   W24
 BYTE   N04  Dn1  v116
 BYTE   W04
 BYTE   N04  Dn1  v116
 BYTE   W04
 BYTE   N04  Dn1  v116
 BYTE   W04
 BYTE   N04  Dn1  v116
 BYTE   W04
 BYTE   N04  Dn1  v116
 BYTE   W04
 BYTE   N04  Dn1  v116
 BYTE   W02
 BYTE   W02
// 016   ----------------------------------------
 BYTE   VOL   26*FF6TroopsMarchonTristanHollow_mvl/mxv
 BYTE   N22  Dn1  v116
 BYTE   W24
 BYTE   VOL   20*FF6TroopsMarchonTristanHollow_mvl/mxv
 BYTE   N12  Dn1  v116
 BYTE   W12
 BYTE   N12  Dn1  v116
 BYTE   W12
 BYTE   VOL   26*FF6TroopsMarchonTristanHollow_mvl/mxv
 BYTE   N22  Dn1  v116
 BYTE   W24
 BYTE   VOL   20*FF6TroopsMarchonTristanHollow_mvl/mxv
 BYTE   N12  Dn1  v116
 BYTE   W12
 BYTE   N12  Dn1  v116
 BYTE   W12
// 017   ----------------------------------------
 BYTE   VOL   26*FF6TroopsMarchonTristanHollow_mvl/mxv
 BYTE   N22  Dn1  v116
 BYTE   W24
 BYTE   VOL   20*FF6TroopsMarchonTristanHollow_mvl/mxv
 BYTE   N12  Dn1  v116
 BYTE   W12
 BYTE   N12  Dn1  v116
 BYTE   W12
 BYTE   VOL   26*FF6TroopsMarchonTristanHollow_mvl/mxv
 BYTE   N22  Dn1  v116
 BYTE   W24
 BYTE   N04  Dn1  v116
 BYTE   W04
 BYTE   N04  Dn1  v116
 BYTE   W04
 BYTE   N04  Dn1  v116
 BYTE   W04
 BYTE   N04  Dn1  v116
 BYTE   W04
 BYTE   N04  Dn1  v116
 BYTE   W04
 BYTE   N04  Dn1  v116
 BYTE   W02
 BYTE   W02
// 018   ----------------------------------------
 BYTE   VOL   26*FF6TroopsMarchonTristanHollow_mvl/mxv
 BYTE   N22  Dn1  v116
 BYTE   W24
 BYTE   VOL   20*FF6TroopsMarchonTristanHollow_mvl/mxv
 BYTE   N12  Dn1  v116
 BYTE   W12
 BYTE   N12  Dn1  v116
 BYTE   W12
 BYTE   VOL   26*FF6TroopsMarchonTristanHollow_mvl/mxv
 BYTE   N22  Dn1  v116
 BYTE   W24
 BYTE   VOL   20*FF6TroopsMarchonTristanHollow_mvl/mxv
 BYTE   N12  Dn1  v116
 BYTE   W12
 BYTE   N12  Dn1  v116
 BYTE   W12
// 019   ----------------------------------------
 BYTE   VOL   26*FF6TroopsMarchonTristanHollow_mvl/mxv
 BYTE   N22  Dn1  v116
 BYTE   W24
 BYTE   VOL   20*FF6TroopsMarchonTristanHollow_mvl/mxv
 BYTE   N12  Dn1  v116
 BYTE   W12
 BYTE   N12  Dn1  v116
 BYTE   W12
 BYTE   VOL   26*FF6TroopsMarchonTristanHollow_mvl/mxv
 BYTE   N22  Dn1  v116
 BYTE   W24
 BYTE   N04  Dn1  v116
 BYTE   W04
 BYTE   N04  Dn1  v116
 BYTE   W04
 BYTE   N04  Dn1  v116
 BYTE   W04
 BYTE   N04  Dn1  v116
 BYTE   W04
 BYTE   N04  Dn1  v116
 BYTE   W04
 BYTE   N04  Dn1  v116
 BYTE   W02
 BYTE   W02
// 020   ----------------------------------------
 BYTE   VOL   26*FF6TroopsMarchonTristanHollow_mvl/mxv
 BYTE   N22  Dn1  v116
 BYTE   W24
 BYTE   VOL   20*FF6TroopsMarchonTristanHollow_mvl/mxv
 BYTE   N12  Dn1  v116
 BYTE   W12
 BYTE   N12  Dn1  v116
 BYTE   W12
 BYTE   VOL   26*FF6TroopsMarchonTristanHollow_mvl/mxv
 BYTE   N22  Dn1  v116
 BYTE   W24
 BYTE   VOL   20*FF6TroopsMarchonTristanHollow_mvl/mxv
 BYTE   N12  Dn1  v116
 BYTE   W12
 BYTE   N12  Dn1  v116
 BYTE   W12
// 021   ----------------------------------------
 BYTE   VOL   26*FF6TroopsMarchonTristanHollow_mvl/mxv
 BYTE   N22  Dn1  v116
 BYTE   W24
 BYTE   VOL   20*FF6TroopsMarchonTristanHollow_mvl/mxv
 BYTE   N12  Dn1  v116
 BYTE   W12
 BYTE   N12  Dn1  v116
 BYTE   W12
 BYTE   VOL   26*FF6TroopsMarchonTristanHollow_mvl/mxv
 BYTE   N22  Dn1  v116
 BYTE   W24
 BYTE   N04  Dn1  v116
 BYTE   W04
 BYTE   N04  Dn1  v116
 BYTE   W04
 BYTE   N04  Dn1  v116
 BYTE   W04
 BYTE   N04  Dn1  v116
 BYTE   W04
 BYTE   N04  Dn1  v116
 BYTE   W04
 BYTE   N04  Dn1  v116
 BYTE   W02
 BYTE   W02
// 022   ----------------------------------------
 BYTE   VOL   26*FF6TroopsMarchonTristanHollow_mvl/mxv
 BYTE   N22  Dn1  v116
 BYTE   W24
 BYTE   VOL   20*FF6TroopsMarchonTristanHollow_mvl/mxv
 BYTE   N12  Dn1  v116
 BYTE   W12
 BYTE   N12  Dn1  v116
 BYTE   W12
 BYTE   VOL   26*FF6TroopsMarchonTristanHollow_mvl/mxv
 BYTE   N22  Dn1  v116
 BYTE   W24
 BYTE   VOL   20*FF6TroopsMarchonTristanHollow_mvl/mxv
 BYTE   N12  Dn1  v116
 BYTE   W12
 BYTE   N12  Dn1  v116
 BYTE   W12
// 023   ----------------------------------------
 BYTE   VOL   26*FF6TroopsMarchonTristanHollow_mvl/mxv
 BYTE   N22  Dn1  v116
 BYTE   W24
 BYTE   VOL   20*FF6TroopsMarchonTristanHollow_mvl/mxv
 BYTE   N12  Dn1  v116
 BYTE   W12
 BYTE   N12  Dn1  v116
 BYTE   W12
 BYTE   VOL   26*FF6TroopsMarchonTristanHollow_mvl/mxv
 BYTE   N22  Dn1  v116
 BYTE   W24
 BYTE   N04  Dn1  v116
 BYTE   W04
 BYTE   N04  Dn1  v116
 BYTE   W04
 BYTE   N04  Dn1  v116
 BYTE   W04
 BYTE   N04  Dn1  v116
 BYTE   W04
 BYTE   N04  Dn1  v116
 BYTE   W04
 BYTE   N04  Dn1  v116
 BYTE   W02
 BYTE   W02
// 024   ----------------------------------------
 BYTE   VOL   26*FF6TroopsMarchonTristanHollow_mvl/mxv
 BYTE   N22  Dn1  v116
 BYTE   W24
 BYTE   VOL   20*FF6TroopsMarchonTristanHollow_mvl/mxv
 BYTE   N12  Dn1  v116
 BYTE   W12
 BYTE   N12  Dn1  v116
 BYTE   W12
 BYTE   VOL   26*FF6TroopsMarchonTristanHollow_mvl/mxv
 BYTE   N22  Dn1  v116
 BYTE   W24
 BYTE   VOL   20*FF6TroopsMarchonTristanHollow_mvl/mxv
 BYTE   N12  Dn1  v116
 BYTE   W12
 BYTE   N12  Dn1  v116
 BYTE   W12
// 025   ----------------------------------------
 BYTE   VOL   26*FF6TroopsMarchonTristanHollow_mvl/mxv
 BYTE   N22  Dn1  v116
 BYTE   W24
 BYTE   VOL   20*FF6TroopsMarchonTristanHollow_mvl/mxv
 BYTE   N12  Dn1  v116
 BYTE   W12
 BYTE   N12  Dn1  v116
 BYTE   W12
 BYTE   VOL   26*FF6TroopsMarchonTristanHollow_mvl/mxv
 BYTE   N22  Dn1  v116
 BYTE   W24
 BYTE   N04  Dn1  v116
 BYTE   W04
 BYTE   N04  Dn1  v116
 BYTE   W04
 BYTE   N04  Dn1  v116
 BYTE   W04
 BYTE   N04  Dn1  v116
 BYTE   W04
 BYTE   N04  Dn1  v116
 BYTE   W04
 BYTE   N04  Dn1  v116
 BYTE   W02
 BYTE   W02
// 026   ----------------------------------------
 BYTE   VOL   26*FF6TroopsMarchonTristanHollow_mvl/mxv
 BYTE   N22  Dn1  v116
 BYTE   W24
 BYTE   VOL   20*FF6TroopsMarchonTristanHollow_mvl/mxv
 BYTE   N12  Dn1  v116
 BYTE   W12
 BYTE   N12  Dn1  v116
 BYTE   W12
 BYTE   VOL   26*FF6TroopsMarchonTristanHollow_mvl/mxv
 BYTE   N22  Dn1  v116
 BYTE   W24
 BYTE   VOL   20*FF6TroopsMarchonTristanHollow_mvl/mxv
 BYTE   N12  Dn1  v116
 BYTE   W12
 BYTE   N12  Dn1  v116
 BYTE   W12
// 027   ----------------------------------------
 BYTE   VOL   26*FF6TroopsMarchonTristanHollow_mvl/mxv
 BYTE   N22  Dn1  v116
 BYTE   W24
 BYTE   VOL   20*FF6TroopsMarchonTristanHollow_mvl/mxv
 BYTE   N12  Dn1  v116
 BYTE   W12
 BYTE   N12  Dn1  v116
 BYTE   W12
 BYTE   VOL   26*FF6TroopsMarchonTristanHollow_mvl/mxv
 BYTE   N22  Dn1  v116
 BYTE   W24
 BYTE   N04  Dn1  v116
 BYTE   W04
 BYTE   N04  Dn1  v116
 BYTE   W04
 BYTE   N04  Dn1  v116
 BYTE   W04
 BYTE   N04  Dn1  v116
 BYTE   W04
 BYTE   N04  Dn1  v116
 BYTE   W04
 BYTE   N04  Dn1  v116
 BYTE   W02
 BYTE   W02
// 028   ----------------------------------------
 BYTE   VOL   26*FF6TroopsMarchonTristanHollow_mvl/mxv
 BYTE   N22  Dn1  v116
 BYTE   W24
 BYTE   VOL   20*FF6TroopsMarchonTristanHollow_mvl/mxv
 BYTE   N12  Dn1  v116
 BYTE   W12
 BYTE   N12  Dn1  v116
 BYTE   W12
 BYTE   VOL   26*FF6TroopsMarchonTristanHollow_mvl/mxv
 BYTE   N22  Dn1  v116
 BYTE   W24
 BYTE   VOL   20*FF6TroopsMarchonTristanHollow_mvl/mxv
 BYTE   N12  Dn1  v116
 BYTE   W12
 BYTE   N12  Dn1  v116
 BYTE   W12
// 029   ----------------------------------------
 BYTE   VOL   26*FF6TroopsMarchonTristanHollow_mvl/mxv
 BYTE   N22  Dn1  v116
 BYTE   W24
 BYTE   VOL   20*FF6TroopsMarchonTristanHollow_mvl/mxv
 BYTE   N12  Dn1  v116
 BYTE   W12
 BYTE   N12  Dn1  v116
 BYTE   W12
 BYTE   VOL   26*FF6TroopsMarchonTristanHollow_mvl/mxv
 BYTE   N22  Dn1  v116
 BYTE   W24
 BYTE   N04  Dn1  v116
 BYTE   W04
 BYTE   N04  Dn1  v116
 BYTE   W04
 BYTE   N04  Dn1  v116
 BYTE   W04
 BYTE   N04  Dn1  v116
 BYTE   W04
 BYTE   N04  Dn1  v116
 BYTE   W04
 BYTE   N04  Dn1  v116
 BYTE   W02
 BYTE   W02
// 030   ----------------------------------------
 BYTE   VOL   26*FF6TroopsMarchonTristanHollow_mvl/mxv
 BYTE   N22  Dn1  v116
 BYTE   W24
 BYTE   VOL   20*FF6TroopsMarchonTristanHollow_mvl/mxv
 BYTE   N12  Dn1  v116
 BYTE   W12
 BYTE   N12  Dn1  v116
 BYTE   W12
 BYTE   VOL   26*FF6TroopsMarchonTristanHollow_mvl/mxv
 BYTE   N22  Dn1  v116
 BYTE   W24
 BYTE   VOL   20*FF6TroopsMarchonTristanHollow_mvl/mxv
 BYTE   N12  Dn1  v116
 BYTE   W12
 BYTE   N12  Dn1  v116
 BYTE   W12
// 031   ----------------------------------------
 BYTE   VOL   26*FF6TroopsMarchonTristanHollow_mvl/mxv
 BYTE   N22  Dn1  v116
 BYTE   W24
 BYTE   VOL   20*FF6TroopsMarchonTristanHollow_mvl/mxv
 BYTE   N12  Dn1  v116
 BYTE   W12
 BYTE   N12  Dn1  v116
 BYTE   W12
 BYTE   VOL   26*FF6TroopsMarchonTristanHollow_mvl/mxv
 BYTE   N22  Dn1  v116
 BYTE   W24
 BYTE   N04  Dn1  v116
 BYTE   W04
 BYTE   N04  Dn1  v116
 BYTE   W04
 BYTE   N04  Dn1  v116
 BYTE   W04
 BYTE   N04  Dn1  v116
 BYTE   W04
 BYTE   N04  Dn1  v116
 BYTE   W04
 BYTE   N04  Dn1  v116
 BYTE   W02
 BYTE   GoTo
  POIN2 Label_7_01013A48
// 032   ----------------------------------------
 BYTE   W02
 BYTE   FINE

//******************************************************//
	ALIGN 4

FF6TroopsMarchonTristanHollow:
	BYTE	8	// NumTrks
	BYTE	0	// NumBlks
	BYTE	FF6TroopsMarchonTristanHollow_pri	// Priority
	BYTE	FF6TroopsMarchonTristanHollow_rev	// Reverb.
    
	POIN2	FF6TroopsMarchonTristanHollow_grp
    
	POIN2	FF6TroopsMarchonTristanHollow_001
	POIN2	FF6TroopsMarchonTristanHollow_002
	POIN2	FF6TroopsMarchonTristanHollow_003
	POIN2	FF6TroopsMarchonTristanHollow_004
	POIN2	FF6TroopsMarchonTristanHollow_005
	POIN2	FF6TroopsMarchonTristanHollow_006
	POIN2	FF6TroopsMarchonTristanHollow_007
	POIN2	FF6TroopsMarchonTristanHollow_008

	
