//Event file generated from Sappy .s format.
	#include "MPlayDef.event"

	#define	YggdraUnionWellNeverFightAloneAeginaSortieSaXortheNobody_grp  voicegroup000
	#define	YggdraUnionWellNeverFightAloneAeginaSortieSaXortheNobody_pri  0
	#define	YggdraUnionWellNeverFightAloneAeginaSortieSaXortheNobody_rev  0
	#define	YggdraUnionWellNeverFightAloneAeginaSortieSaXortheNobody_mvl  115
	#define	YggdraUnionWellNeverFightAloneAeginaSortieSaXortheNobody_key  0
	#define	YggdraUnionWellNeverFightAloneAeginaSortieSaXortheNobody_tbs  1
	#define	YggdraUnionWellNeverFightAloneAeginaSortieSaXortheNobody_exg  0
	#define	YggdraUnionWellNeverFightAloneAeginaSortieSaXortheNobody_cmp  1

	// .rodata
	//	YggdraUnionWellNeverFightAloneAeginaSortieSaXortheNobody
	ALIGN 4

//**************** Track 1 (Midi-Chn.1) ****************//

YggdraUnionWellNeverFightAloneAeginaSortieSaXortheNobody_1:
	BYTE	KEYSH   YggdraUnionWellNeverFightAloneAeginaSortieSaXortheNobody_key+0
// 000   ----------------------------------------
	BYTE	TEMPO   180*YggdraUnionWellNeverFightAloneAeginaSortieSaXortheNobody_tbs/2
	BYTE		VOICE   57
	BYTE		VOL     64*YggdraUnionWellNeverFightAloneAeginaSortieSaXortheNobody_mvl/mxv
	BYTE		PAN     c_v+24
	BYTE		N06     En3   v064
	BYTE		N06     An3 
	BYTE	W06
	BYTE		        En3 
	BYTE		N06     An3 
	BYTE	W06
	BYTE		        En3 
	BYTE		N06     An3 
	BYTE	W06
	BYTE		        An3   v044
	BYTE	W18
	BYTE		        An3   v064
	BYTE		N06     Dn4 
	BYTE	W06
	BYTE		        An3 
	BYTE		N06     Dn4 
	BYTE	W06
	BYTE		        An3 
	BYTE		N06     Dn4 
	BYTE	W06
	BYTE		        Dn4   v044
	BYTE	W18
	BYTE		        Dn4   v064
	BYTE		N06     Gn4 
	BYTE	W06
	BYTE		        Dn4 
	BYTE		N06     Gn4 
	BYTE	W06
	BYTE		        Dn4 
	BYTE		N06     Gn4 
	BYTE	W06
	BYTE		        Gn4   v044
	BYTE	W06
// 001   ----------------------------------------
	BYTE	W12
	BYTE		        Dn4   v064
	BYTE		N06     Fs4 
	BYTE	W06
	BYTE		        Dn4 
	BYTE		N06     Fs4 
	BYTE	W06
	BYTE		        Dn4 
	BYTE		N06     Fs4 
	BYTE	W06
	BYTE		        Fs4   v044
	BYTE	W18
	BYTE		N12     Fn4   v064
	BYTE		N12     Cn5 
	BYTE	W12
	BYTE		N06     Cn5   v044
	BYTE	W06
	BYTE		N12     Fn4   v064
	BYTE		N12     Cn5 
	BYTE	W12
	BYTE		N06     Cn5   v044
	BYTE	W06
	BYTE		N12     Fn4   v064
	BYTE		N12     Cn5 
	BYTE	W12
// 002   ----------------------------------------
	BYTE		        Cn5   v044
	BYTE	W96
YggdraUnionWellNeverFightAloneAeginaSortieSaXortheNobody_1_B1:
// 003   ----------------------------------------
	BYTE		N12     An3   v064
	BYTE	W12
	BYTE		N06     An3   v044
	BYTE		N06     Bn3   v064
	BYTE	W06
	BYTE		        Bn3   v044
	BYTE	W06
	BYTE		N12     Cn4   v064
	BYTE	W12
	BYTE		N06     Cn4   v044
	BYTE		N12     Dn4   v064
	BYTE	W12
	BYTE		        Dn4   v044
	BYTE	W12
	BYTE		N36     Bn3   v064
	BYTE	W36
// 004   ----------------------------------------
	BYTE		N06     Bn3   v044
	BYTE		N12     Cn4   v064
	BYTE	W12
	BYTE		N06     Cn4   v044
	BYTE		N12     Dn4   v064
	BYTE	W12
	BYTE		N06     Dn4   v044
	BYTE		N12     Gn4   v064
	BYTE	W12
	BYTE		N24     Fs4 
	BYTE		N06     Gn4   v044
	BYTE	W24
	BYTE		N24     Dn4   v064
	BYTE		N06     Fs4   v044
	BYTE	W24
	BYTE		N12     Dn4 
	BYTE	W12
// 005   ----------------------------------------
	BYTE	W96
// 006   ----------------------------------------
	BYTE	W96
// 007   ----------------------------------------
	BYTE		        Cn4   v064
	BYTE	W12
	BYTE		N06     Cn4   v044
	BYTE		N06     Dn4   v064
	BYTE	W06
	BYTE		        Dn4   v044
	BYTE	W06
	BYTE		        Ds4   v064
	BYTE	W06
	BYTE		        Ds4   v044
	BYTE	W06
	BYTE		N12     Fn4   v064
	BYTE	W12
	BYTE		        Fn4   v044
	BYTE	W12
	BYTE		N36     Dn4   v064
	BYTE	W36
// 008   ----------------------------------------
	BYTE		N06     Dn4   v044
	BYTE		N12     Ds4   v064
	BYTE	W12
	BYTE		N06     Ds4   v044
	BYTE		N06     Fn4   v064
	BYTE	W06
	BYTE		        Fn4   v044
	BYTE	W06
	BYTE		        As4   v064
	BYTE	W06
	BYTE		        As4   v044
	BYTE	W06
	BYTE		N24     An4   v064
	BYTE	W24
	BYTE		        Fn4 
	BYTE		N06     An4   v044
	BYTE	W24
	BYTE		N12     Cn4   v064
	BYTE		N12     Fn4   v044
	BYTE	W12
// 009   ----------------------------------------
	BYTE		        Cn4 
	BYTE	W96
// 010   ----------------------------------------
	BYTE	W96
// 011   ----------------------------------------
	BYTE	W96
// 012   ----------------------------------------
	BYTE	W96
// 013   ----------------------------------------
	BYTE	W96
// 014   ----------------------------------------
	BYTE	W96
// 015   ----------------------------------------
	BYTE	W96
// 016   ----------------------------------------
	BYTE	W96
// 017   ----------------------------------------
	BYTE	W96
// 018   ----------------------------------------
	BYTE	W96
// 019   ----------------------------------------
	BYTE	W96
// 020   ----------------------------------------
	BYTE	W96
// 021   ----------------------------------------
	BYTE	W96
// 022   ----------------------------------------
	BYTE	W96
// 023   ----------------------------------------
	BYTE	W96
	BYTE	GoTo
	 POIN2	YggdraUnionWellNeverFightAloneAeginaSortieSaXortheNobody_1_B1
YggdraUnionWellNeverFightAloneAeginaSortieSaXortheNobody_1_B2:
// 024   ----------------------------------------
	BYTE	FINE

//**************** Track 2 (Midi-Chn.2) ****************//

YggdraUnionWellNeverFightAloneAeginaSortieSaXortheNobody_2:
	BYTE	KEYSH   YggdraUnionWellNeverFightAloneAeginaSortieSaXortheNobody_key+0
// 000   ----------------------------------------
	BYTE		VOICE   57
	BYTE		VOL     51*YggdraUnionWellNeverFightAloneAeginaSortieSaXortheNobody_mvl/mxv
	BYTE		PAN     c_v-26
	BYTE	W96
// 001   ----------------------------------------
	BYTE	W96
// 002   ----------------------------------------
	BYTE	W96
YggdraUnionWellNeverFightAloneAeginaSortieSaXortheNobody_2_B1:
// 003   ----------------------------------------
	BYTE	W96
// 004   ----------------------------------------
	BYTE	W96
// 005   ----------------------------------------
	BYTE	W96
// 006   ----------------------------------------
	BYTE	W96
// 007   ----------------------------------------
	BYTE	W96
// 008   ----------------------------------------
	BYTE	W96
// 009   ----------------------------------------
	BYTE	W96
// 010   ----------------------------------------
	BYTE	W96
// 011   ----------------------------------------
	BYTE	W96
// 012   ----------------------------------------
	BYTE	W96
// 013   ----------------------------------------
	BYTE	W96
// 014   ----------------------------------------
	BYTE	W96
// 015   ----------------------------------------
	BYTE	W96
// 016   ----------------------------------------
	BYTE	W96
// 017   ----------------------------------------
	BYTE	W96
// 018   ----------------------------------------
	BYTE	W96
// 019   ----------------------------------------
	BYTE	W96
// 020   ----------------------------------------
	BYTE	W96
// 021   ----------------------------------------
	BYTE	W96
// 022   ----------------------------------------
	BYTE		N06     Fn4   v064
	BYTE	W06
	BYTE		N06   
	BYTE	W06
	BYTE		        Fn4   v036
	BYTE	W24
	BYTE		        Fn4   v064
	BYTE	W06
	BYTE		N06   
	BYTE	W06
	BYTE		        Fn4   v036
	BYTE	W24
	BYTE		        Fn4   v064
	BYTE	W06
	BYTE		N06   
	BYTE	W06
	BYTE		        Fn4   v036
	BYTE	W12
// 023   ----------------------------------------
	BYTE		        Fn4   v064
	BYTE	W06
	BYTE		        Fn4   v036
	BYTE	W06
	BYTE		        Fn4   v064
	BYTE	W06
	BYTE		        Fn4   v036
	BYTE	W18
	BYTE		N12     En4   v064
	BYTE	W12
	BYTE		N06     En4   v036
	BYTE	W12
	BYTE		        Gs4   v064
	BYTE	W06
	BYTE		        Gs4   v036
	BYTE	W06
	BYTE		        Bn4   v064
	BYTE	W06
	BYTE		        Bn4   v036
	BYTE	W06
	BYTE		        En5   v064
	BYTE	W06
	BYTE		        En5   v036
	BYTE	W06
	BYTE	GoTo
	 POIN2	YggdraUnionWellNeverFightAloneAeginaSortieSaXortheNobody_2_B1
YggdraUnionWellNeverFightAloneAeginaSortieSaXortheNobody_2_B2:
// 024   ----------------------------------------
	BYTE	FINE

//**************** Track 3 (Midi-Chn.3) ****************//

YggdraUnionWellNeverFightAloneAeginaSortieSaXortheNobody_3:
	BYTE	KEYSH   YggdraUnionWellNeverFightAloneAeginaSortieSaXortheNobody_key+0
// 000   ----------------------------------------
	BYTE		VOICE   61
	BYTE		VOL     51*YggdraUnionWellNeverFightAloneAeginaSortieSaXortheNobody_mvl/mxv
	BYTE		PAN     c_v+24
	BYTE	W96
// 001   ----------------------------------------
	BYTE	W96
// 002   ----------------------------------------
	BYTE	W96
YggdraUnionWellNeverFightAloneAeginaSortieSaXortheNobody_3_B1:
// 003   ----------------------------------------
	BYTE	W96
// 004   ----------------------------------------
	BYTE	W96
// 005   ----------------------------------------
	BYTE	W96
// 006   ----------------------------------------
	BYTE	W96
// 007   ----------------------------------------
	BYTE	W96
// 008   ----------------------------------------
	BYTE	W96
// 009   ----------------------------------------
	BYTE	W96
// 010   ----------------------------------------
	BYTE	W96
// 011   ----------------------------------------
	BYTE	W96
// 012   ----------------------------------------
	BYTE		N48     Cn2   v056
	BYTE	W48
	BYTE		        Gn2 
	BYTE	W48
// 013   ----------------------------------------
	BYTE		        Ds2 
	BYTE	W48
	BYTE		        As2 
	BYTE	W48
// 014   ----------------------------------------
	BYTE		        Ds2 
	BYTE	W48
	BYTE		        Gn2 
	BYTE	W48
// 015   ----------------------------------------
	BYTE		N36     Ds3 
	BYTE	W36
	BYTE		        Dn3 
	BYTE	W36
	BYTE		N24     As2 
	BYTE	W24
// 016   ----------------------------------------
	BYTE		N36     Cn3 
	BYTE	W36
	BYTE		N60     Gn3 
	BYTE	W60
// 017   ----------------------------------------
	BYTE		N36     Ds3 
	BYTE	W36
	BYTE		        As3 
	BYTE	W36
	BYTE		N24     Ds3 
	BYTE	W24
// 018   ----------------------------------------
	BYTE		N48     Gn3 
	BYTE	W48
	BYTE		        Cn3 
	BYTE	W48
// 019   ----------------------------------------
	BYTE		        Ds2 
	BYTE	W48
	BYTE		        Ds3 
	BYTE	W48
// 020   ----------------------------------------
	BYTE		N96     As2 
	BYTE	W96
// 021   ----------------------------------------
	BYTE		        Ds2 
	BYTE	W96
// 022   ----------------------------------------
	BYTE		        Fn2 
	BYTE		N06     Fn3   v064
	BYTE	W06
	BYTE		N06   
	BYTE	W06
	BYTE		        Fn3   v036
	BYTE	W24
	BYTE		        Fn3   v064
	BYTE	W06
	BYTE		N06   
	BYTE	W06
	BYTE		        Fn3   v036
	BYTE	W24
	BYTE		        Fn3   v064
	BYTE	W06
	BYTE		N06   
	BYTE	W06
	BYTE		        Fn3   v036
	BYTE	W12
// 023   ----------------------------------------
	BYTE		N48     Ds2   v056
	BYTE		N06     Fn3   v064
	BYTE	W06
	BYTE		        Fn3   v036
	BYTE	W06
	BYTE		        Fn3   v064
	BYTE	W06
	BYTE		        Fn3   v036
	BYTE	W18
	BYTE		N12     En3   v064
	BYTE	W12
	BYTE		N48     En2   v056
	BYTE		N06     En3   v036
	BYTE	W12
	BYTE		        Gs3   v064
	BYTE	W06
	BYTE		        Gs3   v036
	BYTE	W06
	BYTE		        Bn3   v064
	BYTE	W06
	BYTE		        Bn3   v036
	BYTE	W06
	BYTE		        En4   v064
	BYTE	W06
	BYTE		        En4   v036
	BYTE	W06
	BYTE	GoTo
	 POIN2	YggdraUnionWellNeverFightAloneAeginaSortieSaXortheNobody_3_B1
YggdraUnionWellNeverFightAloneAeginaSortieSaXortheNobody_3_B2:
// 024   ----------------------------------------
	BYTE	FINE

//**************** Track 4 (Midi-Chn.4) ****************//

YggdraUnionWellNeverFightAloneAeginaSortieSaXortheNobody_4:
	BYTE	KEYSH   YggdraUnionWellNeverFightAloneAeginaSortieSaXortheNobody_key+0
// 000   ----------------------------------------
	BYTE		VOICE   41
	BYTE		VOL     51*YggdraUnionWellNeverFightAloneAeginaSortieSaXortheNobody_mvl/mxv
	BYTE		PAN     c_v-26
	BYTE		N36     An2   v064
	BYTE	W36
	BYTE		N06     An2   v044
	BYTE		N36     Dn3   v064
	BYTE	W36
	BYTE		N06     Dn3   v044
	BYTE		N36     Gn3   v064
	BYTE	W24
// 001   ----------------------------------------
	BYTE	W12
	BYTE		        Fs3 
	BYTE		N06     Gn3   v044
	BYTE	W36
	BYTE		        Fs3 
	BYTE		N12     Fn4   v064
	BYTE		N12     Cn5 
	BYTE	W12
	BYTE		N06     Cn5   v044
	BYTE	W06
	BYTE		N12     Fn4   v064
	BYTE		N12     Cn5 
	BYTE	W12
	BYTE		N06     Cn5   v044
	BYTE	W06
	BYTE		N12     Fn4   v064
	BYTE		N12     Cn5 
	BYTE	W12
// 002   ----------------------------------------
	BYTE		        Cn5   v044
	BYTE	W96
YggdraUnionWellNeverFightAloneAeginaSortieSaXortheNobody_4_B1:
// 003   ----------------------------------------
	BYTE	W96
// 004   ----------------------------------------
	BYTE	W84
	BYTE		N12     An2   v044
	BYTE		N12     An3   v064
	BYTE	W12
// 005   ----------------------------------------
	BYTE		N36     Gn3   v044
	BYTE		N36     En4   v052
	BYTE	W03
	BYTE		N06     Ds4   v036
	BYTE	W32
	BYTE	W01
	BYTE		        Fn3   v044
	BYTE		N06     Dn4   v064
	BYTE		N06     En4   v044
	BYTE	W06
	BYTE		        En3 
	BYTE		N06     Cn4   v064
	BYTE		N06     Dn4   v044
	BYTE	W06
	BYTE		N18     Dn3 
	BYTE		N18     Bn3   v064
	BYTE		N06     Cn4   v044
	BYTE	W18
	BYTE		N18     En3 
	BYTE		N12     Bn3 
	BYTE		N18     Cn4   v064
	BYTE	W18
	BYTE		N12     Gn3   v044
	BYTE		N06     Cn4 
	BYTE		N12     Dn4   v064
	BYTE	W12
// 006   ----------------------------------------
	BYTE		N36     Dn3   v044
	BYTE		N36     Cn4   v064
	BYTE	W36
	BYTE		N60     Gn3   v044
	BYTE		N60     Bn3   v064
	BYTE		N06     Cn4   v044
	BYTE	W60
// 007   ----------------------------------------
	BYTE		N12     Bn3 
	BYTE	W96
// 008   ----------------------------------------
	BYTE	W96
// 009   ----------------------------------------
	BYTE		N36     Dn4   v064
	BYTE	W36
	BYTE		N12     Dn4   v036
	BYTE		N60     Gn4   v064
	BYTE	W60
// 010   ----------------------------------------
	BYTE		N36     As3 
	BYTE		N12     Gn4   v036
	BYTE	W36
	BYTE		        As3 
	BYTE		N36     Fn4   v064
	BYTE	W36
	BYTE		N12     Fn4   v036
	BYTE		N24     As4   v064
	BYTE	W24
// 011   ----------------------------------------
	BYTE		N12     As4   v036
	BYTE		N96     Cn5   v064
	BYTE	W96
// 012   ----------------------------------------
	BYTE		TIE     Cn4 
	BYTE		N12     Cn5   v036
	BYTE	W96
// 013   ----------------------------------------
	BYTE	W48
	BYTE		EOT     Cn4 
	BYTE		N12   
	BYTE		N18     Ds4   v064
	BYTE	W18
	BYTE		        Dn4 
	BYTE		N12     Ds4   v036
	BYTE	W18
	BYTE		        Cn4   v064
	BYTE		N12     Dn4   v036
	BYTE	W12
// 014   ----------------------------------------
	BYTE		N72     As3   v064
	BYTE		N12     Cn4   v036
	BYTE	W72
	BYTE		N24     Gs3   v064
	BYTE		N12     As3   v036
	BYTE	W24
// 015   ----------------------------------------
	BYTE		N36     Gn3   v064
	BYTE		N12     Gs3   v036
	BYTE	W36
	BYTE		        Gn3 
	BYTE		N36     Dn4   v064
	BYTE	W36
	BYTE		N24     Gn3 
	BYTE		N12     Dn4   v036
	BYTE	W24
// 016   ----------------------------------------
	BYTE		        Gn3 
	BYTE		N36     Fn4   v064
	BYTE	W36
	BYTE		N60     Ds4 
	BYTE		N12     Fn4   v036
	BYTE	W60
// 017   ----------------------------------------
	BYTE		N36     As3   v064
	BYTE		N12     Ds4   v036
	BYTE	W36
	BYTE		        As3 
	BYTE		N36     Fn4   v064
	BYTE	W36
	BYTE		N24     Gn3 
	BYTE		N12     Fn4   v036
	BYTE	W24
// 018   ----------------------------------------
	BYTE		        Gn3 
	BYTE		N48     Gn4   v064
	BYTE	W48
	BYTE		        Fn4 
	BYTE		N12     Gn4   v036
	BYTE	W48
// 019   ----------------------------------------
	BYTE		        Fn4 
	BYTE		N48     As4   v064
	BYTE	W48
	BYTE		        Gs4 
	BYTE		N12     As4   v036
	BYTE	W48
// 020   ----------------------------------------
	BYTE		TIE     Ds4   v064
	BYTE	W96
// 021   ----------------------------------------
	BYTE	W96
	BYTE		EOT   
// 022   ----------------------------------------
	BYTE		N12     Ds4   v036
	BYTE	W96
// 023   ----------------------------------------
	BYTE	W96
	BYTE	GoTo
	 POIN2	YggdraUnionWellNeverFightAloneAeginaSortieSaXortheNobody_4_B1
YggdraUnionWellNeverFightAloneAeginaSortieSaXortheNobody_4_B2:
// 024   ----------------------------------------
	BYTE	FINE

//**************** Track 5 (Midi-Chn.5) ****************//

YggdraUnionWellNeverFightAloneAeginaSortieSaXortheNobody_5:
	BYTE	KEYSH   YggdraUnionWellNeverFightAloneAeginaSortieSaXortheNobody_key+0
// 000   ----------------------------------------
	BYTE		VOICE   34
	BYTE		VOL     63*YggdraUnionWellNeverFightAloneAeginaSortieSaXortheNobody_mvl/mxv
	BYTE		N12     En1   v080
	BYTE	W12
	BYTE		N12   
	BYTE	W12
	BYTE		        En2 
	BYTE	W12
	BYTE		        En1 
	BYTE	W12
	BYTE		N12   
	BYTE	W12
	BYTE		        En2 
	BYTE	W12
	BYTE		        En1 
	BYTE	W12
	BYTE		N12   
	BYTE	W12
// 001   ----------------------------------------
	BYTE		        En2 
	BYTE	W12
	BYTE		        En1 
	BYTE	W12
	BYTE		N12   
	BYTE	W12
	BYTE		        En2 
	BYTE	W12
	BYTE		        En1 
	BYTE	W18
	BYTE		        Fn1 
	BYTE	W18
	BYTE		        Gn1 
	BYTE	W12
// 002   ----------------------------------------
	BYTE	W96
YggdraUnionWellNeverFightAloneAeginaSortieSaXortheNobody_5_B1:
// 003   ----------------------------------------
	BYTE		N12     An1   v080
	BYTE	W12
	BYTE		N12   
	BYTE	W12
	BYTE		N12   
	BYTE	W12
	BYTE		        Bn1 
	BYTE	W12
	BYTE		N12   
	BYTE	W12
	BYTE		N12   
	BYTE	W12
	BYTE		N12   
	BYTE	W12
	BYTE		N12   
	BYTE	W12
// 004   ----------------------------------------
YggdraUnionWellNeverFightAloneAeginaSortieSaXortheNobody_5_004:
	BYTE		N12     Cn2   v080
	BYTE	W12
	BYTE		N12   
	BYTE	W12
	BYTE		N12   
	BYTE	W12
	BYTE		        Dn2 
	BYTE	W12
	BYTE		N12   
	BYTE	W12
	BYTE		N12   
	BYTE	W12
	BYTE		N12   
	BYTE	W12
	BYTE		N12   
	BYTE	W12
	BYTE	PEND
// 005   ----------------------------------------
	BYTE		        Fn1 
	BYTE	W12
	BYTE		N12   
	BYTE	W12
	BYTE		        Fn2 
	BYTE	W12
	BYTE		        Fn1 
	BYTE	W12
	BYTE		        En2 
	BYTE	W12
	BYTE		        Fn1 
	BYTE	W12
	BYTE		        Dn2 
	BYTE	W12
	BYTE		        Fn1 
	BYTE	W12
// 006   ----------------------------------------
	BYTE		        Gn1 
	BYTE	W12
	BYTE		N12   
	BYTE	W12
	BYTE		        Gn2 
	BYTE	W12
	BYTE		        Gn1 
	BYTE	W12
	BYTE		N12   
	BYTE	W12
	BYTE		N12   
	BYTE	W12
	BYTE		        Cn2 
	BYTE	W12
	BYTE		        Gn1 
	BYTE	W12
// 007   ----------------------------------------
	BYTE	PATT
	 POIN2	YggdraUnionWellNeverFightAloneAeginaSortieSaXortheNobody_5_004
// 008   ----------------------------------------
	BYTE		N12     Ds2   v080
	BYTE	W12
	BYTE		N12   
	BYTE	W12
	BYTE		N12   
	BYTE	W12
	BYTE		        Fn2 
	BYTE	W12
	BYTE		N12   
	BYTE	W12
	BYTE		N12   
	BYTE	W12
	BYTE		N12   
	BYTE	W12
	BYTE		N12   
	BYTE	W12
// 009   ----------------------------------------
	BYTE		        Gs1 
	BYTE	W12
	BYTE		N12   
	BYTE	W12
	BYTE		        Gs2 
	BYTE	W12
	BYTE		        Gs1 
	BYTE	W12
	BYTE		        Gn2 
	BYTE	W12
	BYTE		        Gs1 
	BYTE	W12
	BYTE		        Fn2 
	BYTE	W12
	BYTE		        Gs1 
	BYTE	W12
// 010   ----------------------------------------
YggdraUnionWellNeverFightAloneAeginaSortieSaXortheNobody_5_010:
	BYTE		N12     As1   v080
	BYTE	W12
	BYTE		N12   
	BYTE	W12
	BYTE		N12   
	BYTE	W12
	BYTE		N12   
	BYTE	W12
	BYTE		N12   
	BYTE	W12
	BYTE		N12   
	BYTE	W12
	BYTE		N12   
	BYTE	W12
	BYTE		N12   
	BYTE	W12
	BYTE	PEND
// 011   ----------------------------------------
	BYTE		N18     Cn2 
	BYTE	W18
	BYTE		        As1 
	BYTE	W18
	BYTE		        Ds2 
	BYTE	W18
	BYTE		        Dn2 
	BYTE	W18
	BYTE		N12     As1 
	BYTE	W12
	BYTE		        Fn1 
	BYTE	W12
// 012   ----------------------------------------
YggdraUnionWellNeverFightAloneAeginaSortieSaXortheNobody_5_012:
	BYTE		N12     Cn2   v080
	BYTE	W12
	BYTE		N12   
	BYTE	W12
	BYTE		N12   
	BYTE	W12
	BYTE		N12   
	BYTE	W12
	BYTE		N12   
	BYTE	W12
	BYTE		N12   
	BYTE	W12
	BYTE		N12   
	BYTE	W12
	BYTE		N12   
	BYTE	W12
	BYTE	PEND
// 013   ----------------------------------------
YggdraUnionWellNeverFightAloneAeginaSortieSaXortheNobody_5_013:
	BYTE		N12     Ds2   v080
	BYTE	W12
	BYTE		N12   
	BYTE	W12
	BYTE		N12   
	BYTE	W12
	BYTE		N12   
	BYTE	W12
	BYTE		N12   
	BYTE	W12
	BYTE		N12   
	BYTE	W12
	BYTE		N12   
	BYTE	W12
	BYTE		N12   
	BYTE	W12
	BYTE	PEND
// 014   ----------------------------------------
YggdraUnionWellNeverFightAloneAeginaSortieSaXortheNobody_5_014:
	BYTE		N12     Gs1   v080
	BYTE	W12
	BYTE		N12   
	BYTE	W12
	BYTE		N12   
	BYTE	W12
	BYTE		N12   
	BYTE	W12
	BYTE		N12   
	BYTE	W12
	BYTE		N12   
	BYTE	W12
	BYTE		N12   
	BYTE	W12
	BYTE		N12   
	BYTE	W12
	BYTE	PEND
// 015   ----------------------------------------
	BYTE	PATT
	 POIN2	YggdraUnionWellNeverFightAloneAeginaSortieSaXortheNobody_5_010
// 016   ----------------------------------------
	BYTE	PATT
	 POIN2	YggdraUnionWellNeverFightAloneAeginaSortieSaXortheNobody_5_012
// 017   ----------------------------------------
	BYTE	PATT
	 POIN2	YggdraUnionWellNeverFightAloneAeginaSortieSaXortheNobody_5_013
// 018   ----------------------------------------
	BYTE	PATT
	 POIN2	YggdraUnionWellNeverFightAloneAeginaSortieSaXortheNobody_5_014
// 019   ----------------------------------------
	BYTE		N12     Bn1   v080
	BYTE	W12
	BYTE		N12   
	BYTE	W12
	BYTE		N12   
	BYTE	W12
	BYTE		N12   
	BYTE	W12
	BYTE		N12   
	BYTE	W12
	BYTE		N12   
	BYTE	W12
	BYTE		N12   
	BYTE	W12
	BYTE		N12   
	BYTE	W12
// 020   ----------------------------------------
	BYTE		        Ds1 
	BYTE	W12
	BYTE		N12   
	BYTE	W12
	BYTE		        Ds2 
	BYTE	W12
	BYTE		        Cs2 
	BYTE	W24
	BYTE		        Gs1 
	BYTE	W12
	BYTE		        Fs1 
	BYTE	W12
	BYTE		        Gs1 
	BYTE	W12
// 021   ----------------------------------------
	BYTE		        Bn1 
	BYTE	W12
	BYTE		        Fs1 
	BYTE	W24
	BYTE		N24     Cs2 
	BYTE	W24
	BYTE		N12     Gs1 
	BYTE	W12
	BYTE		        Ds1 
	BYTE	W12
	BYTE		        Fs1 
	BYTE	W12
// 022   ----------------------------------------
	BYTE		N06     Ds1 
	BYTE	W06
	BYTE		N12   
	BYTE	W30
	BYTE		N06   
	BYTE	W06
	BYTE		N12   
	BYTE	W30
	BYTE		N06   
	BYTE	W06
	BYTE		N12   
	BYTE	W18
// 023   ----------------------------------------
	BYTE		        Bn1 
	BYTE	W12
	BYTE		        Fs1 
	BYTE	W24
	BYTE		N24     En1 
	BYTE	W24
	BYTE		N12   
	BYTE	W12
	BYTE		N12   
	BYTE	W12
	BYTE		N12   
	BYTE	W12
	BYTE	GoTo
	 POIN2	YggdraUnionWellNeverFightAloneAeginaSortieSaXortheNobody_5_B1
YggdraUnionWellNeverFightAloneAeginaSortieSaXortheNobody_5_B2:
// 024   ----------------------------------------
	BYTE	FINE

//**************** Track 6 (Midi-Chn.6) ****************//

YggdraUnionWellNeverFightAloneAeginaSortieSaXortheNobody_6:
	BYTE	KEYSH   YggdraUnionWellNeverFightAloneAeginaSortieSaXortheNobody_key+0
// 000   ----------------------------------------
	BYTE		VOICE   41
	BYTE		VOL     51*YggdraUnionWellNeverFightAloneAeginaSortieSaXortheNobody_mvl/mxv
	BYTE		PAN     c_v+24
	BYTE	W96
// 001   ----------------------------------------
	BYTE	W96
// 002   ----------------------------------------
	BYTE	W96
YggdraUnionWellNeverFightAloneAeginaSortieSaXortheNobody_6_B1:
// 003   ----------------------------------------
	BYTE		N36     En3   v044
	BYTE		N36     Cn4 
	BYTE	W36
	BYTE		N60     Gn3 
	BYTE		N60     Dn4 
	BYTE	W60
// 004   ----------------------------------------
	BYTE		N36     Bn3 
	BYTE		N36     Dn4 
	BYTE	W36
	BYTE		N60     An3 
	BYTE		N60     Fs4 
	BYTE	W60
// 005   ----------------------------------------
	BYTE		N96     An3 
	BYTE		N96     En4 
	BYTE	W96
// 006   ----------------------------------------
	BYTE		        Bn3 
	BYTE		N96     Dn4 
	BYTE	W96
// 007   ----------------------------------------
	BYTE		N36     Gn3 
	BYTE		N36     Ds4 
	BYTE	W36
	BYTE		N60     As3 
	BYTE		N60     Fn4 
	BYTE	W60
// 008   ----------------------------------------
	BYTE		N36     Dn4 
	BYTE		N36     Fn4 
	BYTE	W36
	BYTE		N60     Cn4 
	BYTE		N60     An4 
	BYTE	W60
// 009   ----------------------------------------
	BYTE		N96     Cn4 
	BYTE		N96     Gn4 
	BYTE	W96
// 010   ----------------------------------------
	BYTE		        Dn4 
	BYTE		N96     Fn4 
	BYTE	W96
// 011   ----------------------------------------
	BYTE		        Gn3 
	BYTE		N96     Ds4 
	BYTE	W96
// 012   ----------------------------------------
	BYTE		        Ds3 
	BYTE		N96     Gn3 
	BYTE	W96
// 013   ----------------------------------------
	BYTE		N96   
	BYTE		N96     As3 
	BYTE	W96
// 014   ----------------------------------------
	BYTE		        Cn4 
	BYTE		N96     Ds4 
	BYTE	W96
// 015   ----------------------------------------
	BYTE		        Dn4 
	BYTE		N96     Fn4 
	BYTE	W96
// 016   ----------------------------------------
	BYTE		        Ds4 
	BYTE		N96     Gn4 
	BYTE	W96
// 017   ----------------------------------------
	BYTE		N96   
	BYTE		N96     As4 
	BYTE	W96
// 018   ----------------------------------------
	BYTE		        Cn4 
	BYTE	W96
// 019   ----------------------------------------
	BYTE		        Ds4 
	BYTE	W96
// 020   ----------------------------------------
	BYTE		        Cs4 
	BYTE		N96     Fn4 
	BYTE	W96
// 021   ----------------------------------------
	BYTE		        Cs4 
	BYTE		N96     Ds4 
	BYTE	W96
// 022   ----------------------------------------
	BYTE		        Cs4 
	BYTE		N96     Fn4 
	BYTE	W96
// 023   ----------------------------------------
	BYTE		N48     Cs4 
	BYTE		N48     Ds4 
	BYTE	W48
	BYTE		        Gs4 
	BYTE		N48     Bn4 
	BYTE	W48
	BYTE	GoTo
	 POIN2	YggdraUnionWellNeverFightAloneAeginaSortieSaXortheNobody_6_B1
YggdraUnionWellNeverFightAloneAeginaSortieSaXortheNobody_6_B2:
// 024   ----------------------------------------
	BYTE	FINE

//**************** Track 7 (Midi-Chn.7) ****************//

YggdraUnionWellNeverFightAloneAeginaSortieSaXortheNobody_7:
	BYTE	KEYSH   YggdraUnionWellNeverFightAloneAeginaSortieSaXortheNobody_key+0
// 000   ----------------------------------------
	BYTE		VOICE   52
	BYTE		VOL     51*YggdraUnionWellNeverFightAloneAeginaSortieSaXortheNobody_mvl/mxv
	BYTE		PAN     c_v-26
	BYTE	W96
// 001   ----------------------------------------
	BYTE	W96
// 002   ----------------------------------------
	BYTE	W96
YggdraUnionWellNeverFightAloneAeginaSortieSaXortheNobody_7_B1:
// 003   ----------------------------------------
	BYTE		N36     En2   v044
	BYTE		N36     Cn3 
	BYTE	W36
	BYTE		N60     Gn2 
	BYTE		N60     Dn3 
	BYTE	W60
// 004   ----------------------------------------
	BYTE		N36     Bn2 
	BYTE		N36     Dn3 
	BYTE	W36
	BYTE		N60     An2 
	BYTE		N60     Fs3 
	BYTE	W60
// 005   ----------------------------------------
	BYTE		N96     An2 
	BYTE		N96     En3 
	BYTE	W96
// 006   ----------------------------------------
	BYTE		        Bn2 
	BYTE		N96     Dn3 
	BYTE	W96
// 007   ----------------------------------------
	BYTE		N36     Gn2 
	BYTE		N36     Ds3 
	BYTE	W36
	BYTE		N60     As2 
	BYTE		N60     Fn3 
	BYTE	W60
// 008   ----------------------------------------
	BYTE		N36     Dn3 
	BYTE		N36     Fn3 
	BYTE	W36
	BYTE		N60     Cn3 
	BYTE		N60     An3 
	BYTE	W60
// 009   ----------------------------------------
	BYTE		N96     Cn3 
	BYTE		N96     Gn3 
	BYTE	W96
// 010   ----------------------------------------
	BYTE		        Dn3 
	BYTE		N96     Fn3 
	BYTE	W96
// 011   ----------------------------------------
	BYTE		        Gn2 
	BYTE		N96     Ds3 
	BYTE	W96
// 012   ----------------------------------------
	BYTE		        Ds2 
	BYTE		N96     Gn2 
	BYTE	W96
// 013   ----------------------------------------
	BYTE		N96   
	BYTE		N96     As2 
	BYTE	W96
// 014   ----------------------------------------
	BYTE		        Cn3 
	BYTE		N96     Ds3 
	BYTE	W96
// 015   ----------------------------------------
	BYTE		        Dn3 
	BYTE		N96     Fn3 
	BYTE	W96
// 016   ----------------------------------------
	BYTE		        Ds3 
	BYTE		N96     Gn3 
	BYTE	W96
// 017   ----------------------------------------
	BYTE		N96   
	BYTE		N96     As3 
	BYTE	W96
// 018   ----------------------------------------
	BYTE		        Cn3 
	BYTE	W96
// 019   ----------------------------------------
	BYTE		        Ds3 
	BYTE	W96
// 020   ----------------------------------------
	BYTE		        Cs3 
	BYTE		N96     Fn3 
	BYTE	W96
// 021   ----------------------------------------
	BYTE		        Cs3 
	BYTE		N96     Ds3 
	BYTE	W96
// 022   ----------------------------------------
	BYTE		        Cs3 
	BYTE		N96     Fn3 
	BYTE	W96
// 023   ----------------------------------------
	BYTE		N48     Cs3 
	BYTE		N48     Ds3 
	BYTE	W48
	BYTE		        Gs3 
	BYTE		N48     Bn3 
	BYTE	W48
	BYTE	GoTo
	 POIN2	YggdraUnionWellNeverFightAloneAeginaSortieSaXortheNobody_7_B1
YggdraUnionWellNeverFightAloneAeginaSortieSaXortheNobody_7_B2:
// 024   ----------------------------------------
	BYTE	FINE

//**************** Track 8 (Midi-Chn.8) ****************//

YggdraUnionWellNeverFightAloneAeginaSortieSaXortheNobody_8:
	BYTE	KEYSH   YggdraUnionWellNeverFightAloneAeginaSortieSaXortheNobody_key+0
// 000   ----------------------------------------
	BYTE		VOICE   42
	BYTE		VOL     51*YggdraUnionWellNeverFightAloneAeginaSortieSaXortheNobody_mvl/mxv
	BYTE		PAN     c_v+24
	BYTE	W96
// 001   ----------------------------------------
	BYTE	W96
// 002   ----------------------------------------
	BYTE	W96
YggdraUnionWellNeverFightAloneAeginaSortieSaXortheNobody_8_B1:
// 003   ----------------------------------------
	BYTE	W96
// 004   ----------------------------------------
	BYTE	W84
	BYTE		N12     An3   v044
	BYTE	W12
// 005   ----------------------------------------
	BYTE		N36     En4 
	BYTE	W03
	BYTE		N06     Ds4 
	BYTE	W32
	BYTE	W01
	BYTE		        Dn4 
	BYTE	W06
	BYTE		        Cn4 
	BYTE	W06
	BYTE		N18     Bn3 
	BYTE	W18
	BYTE		        Cn4 
	BYTE	W18
	BYTE		N12     Dn4 
	BYTE	W12
// 006   ----------------------------------------
	BYTE		N36     Cn4 
	BYTE	W36
	BYTE		N60     Bn3 
	BYTE	W60
// 007   ----------------------------------------
	BYTE	W96
// 008   ----------------------------------------
	BYTE	W96
// 009   ----------------------------------------
	BYTE	W96
// 010   ----------------------------------------
	BYTE	W96
// 011   ----------------------------------------
	BYTE	W96
// 012   ----------------------------------------
	BYTE		TIE     Cn5   v056
	BYTE	W96
// 013   ----------------------------------------
	BYTE	W48
	BYTE		EOT   
	BYTE		N18     Ds5 
	BYTE	W18
	BYTE		        Dn5 
	BYTE	W18
	BYTE		N12     Cn5 
	BYTE	W12
// 014   ----------------------------------------
	BYTE		N72     As4 
	BYTE	W72
	BYTE		N24     Gs4 
	BYTE	W24
// 015   ----------------------------------------
	BYTE		N36     Gn4 
	BYTE	W36
	BYTE		        Dn5 
	BYTE	W36
	BYTE		N24     Gn4 
	BYTE	W24
// 016   ----------------------------------------
	BYTE		N36     Fn5 
	BYTE	W36
	BYTE		N60     Ds5 
	BYTE	W60
// 017   ----------------------------------------
	BYTE		N36     As4 
	BYTE	W36
	BYTE		        Fn5 
	BYTE	W36
	BYTE		N24     Gn4 
	BYTE	W24
// 018   ----------------------------------------
	BYTE		N48     Gn5   v044
	BYTE	W48
	BYTE		        Fn5 
	BYTE	W48
// 019   ----------------------------------------
	BYTE		        As5 
	BYTE	W48
	BYTE		        Gs5 
	BYTE	W48
// 020   ----------------------------------------
	BYTE		N96     Fn4   v056
	BYTE		TIE     Ds5 
	BYTE	W96
// 021   ----------------------------------------
	BYTE		N96     Ds4 
	BYTE	W96
	BYTE		EOT     Ds5 
// 022   ----------------------------------------
	BYTE	W96
// 023   ----------------------------------------
	BYTE	W96
	BYTE	GoTo
	 POIN2	YggdraUnionWellNeverFightAloneAeginaSortieSaXortheNobody_8_B1
YggdraUnionWellNeverFightAloneAeginaSortieSaXortheNobody_8_B2:
// 024   ----------------------------------------
	BYTE	FINE

//**************** Track 9 (Midi-Chn.9) ****************//

YggdraUnionWellNeverFightAloneAeginaSortieSaXortheNobody_9:
	BYTE	KEYSH   YggdraUnionWellNeverFightAloneAeginaSortieSaXortheNobody_key+0
// 000   ----------------------------------------
	BYTE		VOICE   124
	BYTE		VOL     57*YggdraUnionWellNeverFightAloneAeginaSortieSaXortheNobody_mvl/mxv
	BYTE		PAN     c_v+3
	BYTE		N12     Cn1   v080
	BYTE		N06     Dn1 
	BYTE		N72     Cs2   v064
	BYTE		N72     Gn2 
	BYTE		N72     An2   v044
	BYTE	W06
	BYTE		N06     Dn1   v080
	BYTE	W06
	BYTE		N06   
	BYTE	W12
	BYTE		N12     Cn1 
	BYTE	W12
	BYTE		N06     Bn1   v064
	BYTE	W06
	BYTE		N06   
	BYTE	W06
	BYTE		N12     Cn1   v080
	BYTE		N12     Gn1   v064
	BYTE	W12
	BYTE		        Fn1 
	BYTE	W12
	BYTE		        Cn1   v080
	BYTE		N06     Dn1 
	BYTE		N72     Cs2   v064
	BYTE		N72     Gn2 
	BYTE		N72     An2   v044
	BYTE	W06
	BYTE		N06     Dn1   v080
	BYTE	W06
	BYTE		N06   
	BYTE	W12
// 001   ----------------------------------------
	BYTE		N12     Cn1 
	BYTE	W12
	BYTE		N06     Bn1   v064
	BYTE	W06
	BYTE		N06   
	BYTE	W06
	BYTE		N12     Cn1   v080
	BYTE		N12     Gn1   v064
	BYTE	W12
	BYTE		        Fn1 
	BYTE	W12
	BYTE		        Dn1   v080
	BYTE		N18     Cs2   v064
	BYTE		N18     Gn2 
	BYTE		N18     An2   v044
	BYTE	W18
	BYTE		N12     Dn1   v080
	BYTE		N18     Cs2   v064
	BYTE		N18     Gn2 
	BYTE		N18     An2   v044
	BYTE	W18
	BYTE		N12     Dn1   v080
	BYTE		N60     Cs2   v064
	BYTE		N60     Gn2 
	BYTE		N60     An2   v044
	BYTE	W12
// 002   ----------------------------------------
	BYTE		N12     Cn1   v080
	BYTE	W24
	BYTE		N12   
	BYTE	W12
	BYTE		        Fn1   v064
	BYTE	W12
	BYTE		        Dn1   v080
	BYTE		N12     Cs2   v064
	BYTE		N12     Gn2 
	BYTE		N12     An2   v044
	BYTE	W12
	BYTE		        Cn1   v080
	BYTE	W12
	BYTE		        Dn1 
	BYTE		N12     Cs2   v064
	BYTE		N12     Gn2 
	BYTE		N12     An2   v044
	BYTE	W12
	BYTE		        Cn1   v080
	BYTE	W12
YggdraUnionWellNeverFightAloneAeginaSortieSaXortheNobody_9_B1:
// 003   ----------------------------------------
YggdraUnionWellNeverFightAloneAeginaSortieSaXortheNobody_9_003:
	BYTE		N12     Cn1   v080
	BYTE		N06     Fs1   v064
	BYTE		N96     Cs2 
	BYTE		N96     Gn2 
	BYTE		N96     An2   v044
	BYTE	W12
	BYTE		N06     Fs1   v064
	BYTE	W12
	BYTE		N12     Dn1   v080
	BYTE		N06     Fs1   v064
	BYTE	W12
	BYTE		N12     Cn1   v080
	BYTE		N06     Fs1   v064
	BYTE	W12
	BYTE		N06   
	BYTE	W12
	BYTE		N12     Cn1   v080
	BYTE		N06     Fs1   v064
	BYTE	W12
	BYTE		        Dn1   v080
	BYTE		N06     Fs1   v064
	BYTE	W06
	BYTE		        Dn1   v080
	BYTE	W06
	BYTE		N06   
	BYTE		N06     Fs1   v064
	BYTE	W06
	BYTE		        Dn1   v080
	BYTE		N06     Fs1   v064
	BYTE	W06
	BYTE	PEND
// 004   ----------------------------------------
	BYTE		N12     Cn1   v080
	BYTE		N06     Fs1   v064
	BYTE	W12
	BYTE		N12     Cn1   v080
	BYTE		N06     Fs1   v064
	BYTE	W12
	BYTE		N12     Dn1   v080
	BYTE		N06     Fs1   v064
	BYTE	W12
	BYTE		N12     Cn1   v080
	BYTE		N06     Fs1   v064
	BYTE	W12
	BYTE		N06   
	BYTE	W12
	BYTE		N12     Cn1   v080
	BYTE		N06     Fs1   v064
	BYTE	W12
	BYTE		N12     Dn1   v080
	BYTE		N06     Fs1   v064
	BYTE	W06
	BYTE		N06   
	BYTE	W06
	BYTE		N12     Dn1   v080
	BYTE		N06     Fs1   v064
	BYTE	W12
// 005   ----------------------------------------
	BYTE		N12     Cn1   v080
	BYTE		N96     Cs2   v064
	BYTE		N96     Gn2 
	BYTE	W12
	BYTE		N12     As1 
	BYTE	W12
	BYTE		        Dn1   v080
	BYTE	W12
	BYTE		N06     Cn1 
	BYTE	W06
	BYTE		N06   
	BYTE	W06
	BYTE		N12   
	BYTE	W12
	BYTE		        As1   v064
	BYTE	W12
	BYTE		        Dn1   v080
	BYTE	W12
	BYTE		N06     Cn1 
	BYTE	W06
	BYTE		N06   
	BYTE	W06
// 006   ----------------------------------------
	BYTE		N12   
	BYTE	W12
	BYTE		        As1   v064
	BYTE	W12
	BYTE		        Dn1   v080
	BYTE	W12
	BYTE		N06     Cn1 
	BYTE	W06
	BYTE		N06   
	BYTE	W06
	BYTE		N12   
	BYTE	W12
	BYTE		        As1   v064
	BYTE	W12
	BYTE		N06     Cn1   v080
	BYTE		N12     Dn1 
	BYTE	W06
	BYTE		N06     Cn1 
	BYTE	W06
	BYTE		N06   
	BYTE		N12     As1   v064
	BYTE	W06
	BYTE		N06     Cn1   v080
	BYTE	W06
// 007   ----------------------------------------
	BYTE	PATT
	 POIN2	YggdraUnionWellNeverFightAloneAeginaSortieSaXortheNobody_9_003
// 008   ----------------------------------------
	BYTE		N12     Cn1   v080
	BYTE		N06     Fs1   v064
	BYTE	W12
	BYTE		N12     Cn1   v080
	BYTE		N06     Fs1   v064
	BYTE	W12
	BYTE		N12     Dn1   v080
	BYTE		N06     Fs1   v064
	BYTE	W12
	BYTE		N12     Cn1   v080
	BYTE		N06     Fs1   v064
	BYTE	W12
	BYTE		N06   
	BYTE	W12
	BYTE		N12     Cn1   v080
	BYTE		N06     Fs1   v064
	BYTE	W12
	BYTE		N12     Dn1   v080
	BYTE		N06     Fs1   v064
	BYTE	W06
	BYTE		N06   
	BYTE	W06
	BYTE		N12     Dn1   v080
	BYTE		N06     Fs1   v064
	BYTE	W06
	BYTE		N06   
	BYTE	W06
// 009   ----------------------------------------
	BYTE		N12     Cn1   v080
	BYTE		N96     Cs2   v064
	BYTE		N96     Gn2 
	BYTE		N96     An2   v044
	BYTE	W24
	BYTE		N12     Cn1   v080
	BYTE	W24
	BYTE		N06   
	BYTE	W06
	BYTE		N06   
	BYTE	W06
	BYTE		N06   
	BYTE	W12
	BYTE		N06   
	BYTE	W06
	BYTE		N06   
	BYTE	W06
	BYTE		N06   
	BYTE	W12
// 010   ----------------------------------------
	BYTE		N12     Dn1 
	BYTE		N12     An1   v064
	BYTE		N36     Cs2 
	BYTE		N36     Gn2 
	BYTE		N36     An2   v044
	BYTE	W12
	BYTE		N12     Cn1   v080
	BYTE		N12     Gn1   v064
	BYTE	W12
	BYTE		        Cn1   v080
	BYTE		N12     Fn1   v064
	BYTE	W12
	BYTE		        Dn1   v080
	BYTE		N12     An1   v064
	BYTE		N36     Cs2 
	BYTE		N36     Gn2 
	BYTE		N36     An2   v044
	BYTE	W12
	BYTE		N12     Cn1   v080
	BYTE		N06     Gn1   v064
	BYTE	W06
	BYTE		N06   
	BYTE	W06
	BYTE		N12     Cn1   v080
	BYTE		N12     Fn1   v064
	BYTE	W12
	BYTE		        Dn1   v080
	BYTE		N12     An1   v064
	BYTE		N24     Cs2 
	BYTE		N24     Gn2 
	BYTE		N24     An2   v044
	BYTE	W12
	BYTE		N12     Cn1   v080
	BYTE		N12     Gn1   v064
	BYTE	W12
// 011   ----------------------------------------
	BYTE		        Cn1   v080
	BYTE		N18     Cs2   v064
	BYTE		N18     Gn2 
	BYTE		N18     An2   v044
	BYTE	W18
	BYTE		N06     Dn1   v080
	BYTE		N18     Cs2   v064
	BYTE		N18     Gn2 
	BYTE		N18     An2   v044
	BYTE	W06
	BYTE		N06     Dn1   v080
	BYTE	W12
	BYTE		N12     Cn1 
	BYTE		N18     Cs2   v064
	BYTE		N18     Gn2 
	BYTE		N18     An2   v044
	BYTE	W18
	BYTE		N06     Dn1   v080
	BYTE		N18     Cs2   v064
	BYTE		N18     Gn2 
	BYTE		N18     An2   v044
	BYTE	W06
	BYTE		N06     Dn1   v080
	BYTE	W12
	BYTE		N06   
	BYTE		N12     Cs2   v064
	BYTE		N12     Gn2 
	BYTE		N12     An2   v044
	BYTE	W06
	BYTE		N06     Dn1   v080
	BYTE	W06
	BYTE		N06   
	BYTE		N12     Cs2   v064
	BYTE		N12     Gn2 
	BYTE		N12     An2   v044
	BYTE	W06
	BYTE		N06     Dn1   v080
	BYTE	W06
// 012   ----------------------------------------
YggdraUnionWellNeverFightAloneAeginaSortieSaXortheNobody_9_012:
	BYTE		N12     Cn1   v080
	BYTE		N96     Cs2   v064
	BYTE		N96     Gn2 
	BYTE	W12
	BYTE		N12     Cn1   v080
	BYTE	W12
	BYTE		        Dn1 
	BYTE		N12     As1   v064
	BYTE	W12
	BYTE		        Cn1   v080
	BYTE	W12
	BYTE		        As1   v064
	BYTE	W12
	BYTE		        Cn1   v080
	BYTE	W12
	BYTE		        Dn1 
	BYTE		N12     As1   v064
	BYTE	W24
	BYTE	PEND
// 013   ----------------------------------------
YggdraUnionWellNeverFightAloneAeginaSortieSaXortheNobody_9_013:
	BYTE		N12     Cn1   v080
	BYTE		N12     As1   v064
	BYTE	W12
	BYTE		        Cn1   v080
	BYTE	W12
	BYTE		        Dn1 
	BYTE		N12     As1   v064
	BYTE	W12
	BYTE		        Cn1   v080
	BYTE	W12
	BYTE		        As1   v064
	BYTE	W12
	BYTE		        Cn1   v080
	BYTE	W12
	BYTE		        Dn1 
	BYTE		N12     As1   v064
	BYTE	W12
	BYTE		        Dn1   v080
	BYTE	W12
	BYTE	PEND
// 014   ----------------------------------------
YggdraUnionWellNeverFightAloneAeginaSortieSaXortheNobody_9_014:
	BYTE		N12     Cn1   v080
	BYTE		N12     As1   v064
	BYTE	W12
	BYTE		        Cn1   v080
	BYTE	W12
	BYTE		        Dn1 
	BYTE		N12     As1   v064
	BYTE	W12
	BYTE		        Cn1   v080
	BYTE	W12
	BYTE		        As1   v064
	BYTE	W12
	BYTE		        Cn1   v080
	BYTE	W12
	BYTE		        Dn1 
	BYTE		N12     As1   v064
	BYTE	W12
	BYTE		        Cn1   v080
	BYTE	W12
	BYTE	PEND
// 015   ----------------------------------------
	BYTE		N12   
	BYTE		N12     As1   v064
	BYTE	W12
	BYTE		        Cn1   v080
	BYTE	W12
	BYTE		        Dn1 
	BYTE		N12     As1   v064
	BYTE	W12
	BYTE		        Cn1   v080
	BYTE	W12
	BYTE		N06     Dn1 
	BYTE		N12     As1   v064
	BYTE	W06
	BYTE		N06     Dn1   v080
	BYTE	W06
	BYTE		N12     Cn1 
	BYTE	W12
	BYTE		N06     Dn1 
	BYTE		N12     As1   v064
	BYTE	W06
	BYTE		N06     Dn1   v080
	BYTE	W06
	BYTE		N12     Cn1 
	BYTE	W12
// 016   ----------------------------------------
	BYTE	PATT
	 POIN2	YggdraUnionWellNeverFightAloneAeginaSortieSaXortheNobody_9_012
// 017   ----------------------------------------
	BYTE	PATT
	 POIN2	YggdraUnionWellNeverFightAloneAeginaSortieSaXortheNobody_9_013
// 018   ----------------------------------------
	BYTE	PATT
	 POIN2	YggdraUnionWellNeverFightAloneAeginaSortieSaXortheNobody_9_014
// 019   ----------------------------------------
	BYTE		N12     Cn1   v080
	BYTE		N12     As1   v064
	BYTE		N48     Cs2 
	BYTE		N48     Gn2 
	BYTE		N48     An2   v044
	BYTE	W12
	BYTE		N12     Cn1   v080
	BYTE	W12
	BYTE		        Dn1 
	BYTE		N12     As1   v064
	BYTE	W12
	BYTE		        Cn1   v080
	BYTE	W12
	BYTE		N06     Dn1 
	BYTE		N12     As1   v064
	BYTE		N48     Cs2 
	BYTE		N48     Gn2 
	BYTE		N48     An2   v044
	BYTE	W06
	BYTE		N06     Dn1   v080
	BYTE	W06
	BYTE		N06   
	BYTE	W06
	BYTE		N06   
	BYTE	W06
	BYTE		        Cn1 
	BYTE		N06     Dn1 
	BYTE		N12     As1   v064
	BYTE	W06
	BYTE		N06     Cn1   v080
	BYTE		N06     Dn1 
	BYTE	W06
	BYTE		        Cn1 
	BYTE		N06     Dn1 
	BYTE	W06
	BYTE		        Cn1 
	BYTE		N06     Dn1 
	BYTE	W06
// 020   ----------------------------------------
	BYTE		N12     Cn1 
	BYTE		N96     Cs2   v064
	BYTE		N96     Gn2 
	BYTE		N96     An2   v048
	BYTE	W12
	BYTE		N12     Cn1   v080
	BYTE	W12
	BYTE		        Dn1 
	BYTE		N12     As1   v064
	BYTE	W12
	BYTE		        Cn1   v080
	BYTE	W12
	BYTE		        As1   v064
	BYTE	W12
	BYTE		        Cn1   v080
	BYTE	W12
	BYTE		        Dn1 
	BYTE		N12     As1   v064
	BYTE	W12
	BYTE		        Cn1   v080
	BYTE	W12
// 021   ----------------------------------------
	BYTE	PATT
	 POIN2	YggdraUnionWellNeverFightAloneAeginaSortieSaXortheNobody_9_013
// 022   ----------------------------------------
	BYTE		N12     Cn1   v080
	BYTE		N36     Cs2   v064
	BYTE		N36     Gn2 
	BYTE		N36     An2   v044
	BYTE	W24
	BYTE		N12     Dn1   v080
	BYTE	W12
	BYTE		        Cn1 
	BYTE		N36     Cs2   v064
	BYTE		N36     Gn2 
	BYTE		N36     An2   v044
	BYTE	W24
	BYTE		N12     Cn1   v080
	BYTE	W12
	BYTE		        Dn1 
	BYTE		N24     Cs2   v064
	BYTE		N24     Gn2 
	BYTE		N24     An2   v044
	BYTE	W12
	BYTE		N12     Cn1   v080
	BYTE	W12
// 023   ----------------------------------------
	BYTE		N12   
	BYTE		N96     Cs2   v064
	BYTE		N96     Gn2 
	BYTE		N96     An2   v044
	BYTE	W12
	BYTE		N12     Cn1   v080
	BYTE	W24
	BYTE		N12   
	BYTE	W24
	BYTE		N06     Dn1 
	BYTE	W06
	BYTE		N06   
	BYTE	W06
	BYTE		        An1 
	BYTE	W06
	BYTE		N06   
	BYTE	W06
	BYTE		        Fn1 
	BYTE	W06
	BYTE		N06   
	BYTE	W06
	BYTE	GoTo
	 POIN2	YggdraUnionWellNeverFightAloneAeginaSortieSaXortheNobody_9_B1
YggdraUnionWellNeverFightAloneAeginaSortieSaXortheNobody_9_B2:
// 024   ----------------------------------------
	BYTE	FINE

//******************************************************//
	ALIGN 4

YggdraUnionWellNeverFightAloneAeginaSortieSaXortheNobody:
	BYTE	9	// NumTrks
	BYTE	0	// NumBlks
	BYTE	YggdraUnionWellNeverFightAloneAeginaSortieSaXortheNobody_pri	// Priority
	BYTE	YggdraUnionWellNeverFightAloneAeginaSortieSaXortheNobody_rev	// Reverb.

	POIN2	YggdraUnionWellNeverFightAloneAeginaSortieSaXortheNobody_grp

	POIN2	YggdraUnionWellNeverFightAloneAeginaSortieSaXortheNobody_1
	POIN2	YggdraUnionWellNeverFightAloneAeginaSortieSaXortheNobody_2
	POIN2	YggdraUnionWellNeverFightAloneAeginaSortieSaXortheNobody_3
	POIN2	YggdraUnionWellNeverFightAloneAeginaSortieSaXortheNobody_4
	POIN2	YggdraUnionWellNeverFightAloneAeginaSortieSaXortheNobody_5
	POIN2	YggdraUnionWellNeverFightAloneAeginaSortieSaXortheNobody_6
	POIN2	YggdraUnionWellNeverFightAloneAeginaSortieSaXortheNobody_7
	POIN2	YggdraUnionWellNeverFightAloneAeginaSortieSaXortheNobody_8
	POIN2	YggdraUnionWellNeverFightAloneAeginaSortieSaXortheNobody_9

	
