//Event file generated from Sappy .s format.
	#include "MPlayDef.event"

	#define	YggdraUnionRussellThemeShinKuma_grp  voicegroup000
	#define	YggdraUnionRussellThemeShinKuma_pri  10
	#define	YggdraUnionRussellThemeShinKuma_rev  128
	#define	YggdraUnionRussellThemeShinKuma_mvl  127
	#define	YggdraUnionRussellThemeShinKuma_key  0
	#define	YggdraUnionRussellThemeShinKuma_tbs  1
	#define	YggdraUnionRussellThemeShinKuma_exg  0
	#define	YggdraUnionRussellThemeShinKuma_cmp  1

	// .rodata
	//	YggdraUnionRussellThemeShinKuma
	ALIGN 4


//**************** Track 1 (Midi-Chn.0) ****************//

YggdraUnionRussellThemeShinKuma_001:
// 000   ----------------------------------------
 BYTE   KEYSH   YggdraUnionRussellThemeShinKuma_key+0
 BYTE   TEMPO   204*YggdraUnionRussellThemeShinKuma_tbs/2
 BYTE   VOICE   13
 BYTE   VOL   62*YggdraUnionRussellThemeShinKuma_mvl/mxv
 BYTE   AsM2
 BYTE   W12
 BYTE   N12  Fs3  v088
 BYTE   N12  An3  v127
 BYTE   W12
 BYTE   N06  Fs3  v044
 BYTE   N06  An3  v064
 BYTE   W24
 BYTE   N12  Gs3  v088
 BYTE   N12  Bn3  v127
 BYTE   W12
 BYTE   N06  Gs3  v044
 BYTE   N06  Bn3  v064
 BYTE   W24
 BYTE   N12  An3  v088
 BYTE   N12  Cs4  v127
 BYTE   W12
// 001   ----------------------------------------
 BYTE   N06  An3  v044
 BYTE   N06  Cs4  v064
 BYTE   W12
 BYTE   W12
 BYTE   N12  Bn3  v088
 BYTE   N12  En4  v127
 BYTE   W12
 BYTE   N06  Bn3  v044
 BYTE   N06  En4  v064
 BYTE   W24
 BYTE   N12  En4  v088
 BYTE   N12  Gs4  v127
 BYTE   W12
 BYTE   N06  En4  v044
 BYTE   N06  Gs4  v064
 BYTE   W12
 BYTE   N12  Gs4  v088
 BYTE   N12  Bn4  v127
 BYTE   W12
// 002   ----------------------------------------
 BYTE   N06  Gs4  v044
 BYTE   N06  Bn4  v064
 BYTE   W12
Label_0_011E6D10:
 BYTE   VOICE   17
 BYTE   VOL   47*YggdraUnionRussellThemeShinKuma_mvl/mxv
 BYTE   N32  En3  v088
 BYTE   N36  Gs3  v127
 BYTE   W36
 BYTE   Fs3  v088
 BYTE   N36  An3  v127
 BYTE   W36
 BYTE   N32  Gs3  v088
 BYTE   N36  Bn3  v127
 BYTE   W24
// 003   ----------------------------------------
 BYTE   W12
 BYTE   An3  v088
 BYTE   N36  Cs4  v127
 BYTE   W36
 BYTE   N24  Cs3  v088
 BYTE   N24  Fs3  v127
 BYTE   W24
 BYTE   N23  Fs3  v088
 BYTE   N23  An3  v127
 BYTE   W24
// 004   ----------------------------------------
 BYTE   N12  En3  v088
 BYTE   N12  Gs3  v127
 BYTE   W12
 BYTE   En3  v088
 BYTE   N12  An3  v127
 BYTE   W12
 BYTE   En3  v088
 BYTE   N12  Gs3  v127
 BYTE   W12
 BYTE   N24  Bn2  v088
 BYTE   N24  En3  v127
 BYTE   W24
 BYTE   Gs2  v088
 BYTE   N24  Bn2  v127
 BYTE   W24
 BYTE   N12  En2  v088
 BYTE   N12  Gs2  v127
 BYTE   W12
// 005   ----------------------------------------
 BYTE   N24  Bn2  v088
 BYTE   N24  En3  v127
 BYTE   W24
 BYTE   N12  Gs2  v088
 BYTE   N12  Bn2  v127
 BYTE   W12
 BYTE   N24  En3  v088
 BYTE   N24  Gs3  v127
 BYTE   W24
 BYTE   N12  Bn2  v088
 BYTE   N12  En3  v127
 BYTE   W12
 BYTE   Gs3  v088
 BYTE   N12  Bn3  v127
 BYTE   W12
 BYTE   En3  v088
 BYTE   N12  Gs3  v127
 BYTE   W12
// 006   ----------------------------------------
 BYTE   Fs3  v088
 BYTE   N12  An3  v127
 BYTE   W12
 BYTE   En3  v088
 BYTE   N12  Gs3  v127
 BYTE   W12
 BYTE   Bn2  v088
 BYTE   N12  En3  v127
 BYTE   W12
 BYTE   N60  Dn3  v088
 BYTE   N60  Fs3  v127
 BYTE   W60
// 007   ----------------------------------------
 BYTE   N24  Dn3  v088
 BYTE   N24  An3  v127
 BYTE   W24
 BYTE   Fs3  v088
 BYTE   N24  Bn3  v127
 BYTE   W24
 BYTE   An3  v088
 BYTE   N24  Cs4  v127
 BYTE   W24
 BYTE   Dn3  v088
 BYTE   N24  An3  v127
 BYTE   W24
// 008   ----------------------------------------
 BYTE   N36  En3  v088
 BYTE   N36  Bn3  v127
 BYTE   W36
 BYTE   N06  Cs3  v088
 BYTE   N06  As3  v127
 BYTE   W06
 BYTE   Cn3  v088
 BYTE   N06  An3  v127
 BYTE   W06
 BYTE   N48  Bn2  v088
 BYTE   N48  Gs3  v127
 BYTE   W48
// 009   ----------------------------------------
 BYTE   N24  Gs2  v088
 BYTE   N24  En3  v127
 BYTE   W24
 BYTE   N12  En2  v088
 BYTE   N12  Bn2  v127
 BYTE   W12
 BYTE   N24  Bn2  v088
 BYTE   N24  Gs3  v127
 BYTE   W24
 BYTE   N12  Gs2  v088
 BYTE   N12  En3  v127
 BYTE   W12
 BYTE   En3  v088
 BYTE   N12  Bn3  v127
 BYTE   W12
 BYTE   Bn2  v088
 BYTE   N12  Gs3  v127
 BYTE   W12
// 010   ----------------------------------------
 BYTE   Cs3  v088
 BYTE   N12  An3  v127
 BYTE   W12
 BYTE   Fs3  v088
 BYTE   N12  Bn3  v127
 BYTE   W12
 BYTE   An3  v088
 BYTE   N12  Cs4  v127
 BYTE   W12
 BYTE   N60  Cs4  v088
 BYTE   N60  Fs4  v127
 BYTE   W60
// 011   ----------------------------------------
 BYTE   BEND   c_v-64
 BYTE   N36  Cs4  v088
 BYTE   N36  Fs4  v127
 BYTE   W03
 BYTE   BEND   c_v-57
 BYTE   W02
 BYTE   DnM1
 BYTE   W03
 BYTE   AnM1
 BYTE   W02
 BYTE   En0
 BYTE   W03
 BYTE   Bn0
 BYTE   W02
 BYTE   Fs1
 BYTE   W03
 BYTE   Cs2
 BYTE   W02
 BYTE   Gs2
 BYTE   W03
 BYTE   En3
 BYTE   W13
 BYTE   N36  Bn3  v088
 BYTE   N36  En4  v127
 BYTE   W36
 BYTE   N24  En4  v088
 BYTE   N24  Gs4  v127
 BYTE   W24
// 012   ----------------------------------------
 BYTE   N12  Fs4  v088
 BYTE   N12  An4  v127
 BYTE   W12
 BYTE   En4  v088
 BYTE   N12  Gs4  v127
 BYTE   W12
 BYTE   Bn3  v088
 BYTE   N12  En4  v127
 BYTE   W12
 BYTE   N24  Gs3  v088
 BYTE   N24  Bn3  v127
 BYTE   W24
 BYTE   N12  En3  v088
 BYTE   N12  Gs3  v127
 BYTE   W12
 BYTE   Bn2  v088
 BYTE   N12  En3  v127
 BYTE   W12
 BYTE   Gs2  v088
 BYTE   N12  Bn2  v127
 BYTE   W12
// 013   ----------------------------------------
 BYTE   En3  v088
 BYTE   N12  Gs3  v127
 BYTE   W12
 BYTE   Fs3  v088
 BYTE   N12  An3  v127
 BYTE   W12
 BYTE   Gs3  v088
 BYTE   N12  Bn3  v127
 BYTE   W12
 BYTE   N24  Bn3  v088
 BYTE   N24  En4  v127
 BYTE   W24
 BYTE   N12  Gs3  v088
 BYTE   N12  Bn3  v127
 BYTE   W12
 BYTE   En4  v088
 BYTE   N12  Gs4  v127
 BYTE   W12
 BYTE   Bn3  v088
 BYTE   N12  En4  v127
 BYTE   W12
// 014   ----------------------------------------
 BYTE   N36  Dn4  v088
 BYTE   N36  Fs4  v127
 BYTE   W36
 BYTE   Fs4  v088
 BYTE   N36  An4  v127
 BYTE   W36
 BYTE   N03  Gn4  v088
 BYTE   N03  Bn4  v127
 BYTE   W03
 BYTE   Gs4  v088
 BYTE   N03  Cn5  v127
 BYTE   W03
 BYTE   N18  An4  v088
 BYTE   N18  Cs5  v127
 BYTE   W18
// 015   ----------------------------------------
 BYTE   N24  En4  v088
 BYTE   N24  Bn4  v127
 BYTE   W24
 BYTE   N12  Cs4  v088
 BYTE   N12  An4  v127
 BYTE   W12
 BYTE   N24  Bn3  v088
 BYTE   N24  Gs4  v127
 BYTE   W24
 BYTE   N36  Cs4  v088
 BYTE   N36  An4  v127
 BYTE   W36
// 016   ----------------------------------------
 BYTE   TIE  Cs4  v088
 BYTE   TIE  Fs4  v127
 BYTE   W96
// 017   ----------------------------------------
 BYTE   W96
// 018   ----------------------------------------
 BYTE   EOT
 BYTE   Cs4  v078
 BYTE   VOICE   13
 BYTE   VOL   62*YggdraUnionRussellThemeShinKuma_mvl/mxv
 BYTE   N24  Dn4  v088
 BYTE   N24  Fs4  v127
 BYTE   W24
 BYTE   N12  Bn3  v088
 BYTE   N06  Fs4  v064
 BYTE   W12
 BYTE   N24  Dn4  v088
 BYTE   N24  Gn4  v127
 BYTE   W24
 BYTE   N12  Bn3  v088
 BYTE   N06  Gn4  v064
 BYTE   W12
 BYTE   N24  Dn4  v088
 BYTE   N24  Fs4  v127
 BYTE   W24
// 019   ----------------------------------------
 BYTE   N12  Bn3  v088
 BYTE   N06  Fs4  v064
 BYTE   W12
 BYTE   N24  Bn3  v088
 BYTE   N24  En4  v127
 BYTE   W24
 BYTE   N12  Bn3  v088
 BYTE   N06  En4  v064
 BYTE   W12
 BYTE   N12  Fs3  v088
 BYTE   N12  Dn4  v127
 BYTE   W12
 BYTE   Fs3  v088
 BYTE   N12  Cs4  v127
 BYTE   W12
 BYTE   En3  v088
 BYTE   N12  An3  v127
 BYTE   W12
 BYTE   N60  Fs3  v088
 BYTE   N60  Bn3  v127
 BYTE   W12
// 020   ----------------------------------------
 BYTE   W48
 BYTE   N36  Dn4  v088
 BYTE   N36  An4  v127
 BYTE   W36
 BYTE   N60  Cs4  v088
 BYTE   N56  Fs4  v127
 BYTE   W12
// 021   ----------------------------------------
 BYTE   W48
 BYTE   N48  Bn3  v088
 BYTE   N48  En4  v127
 BYTE   W48
// 022   ----------------------------------------
 BYTE   N24  Dn4  v088
 BYTE   N24  Fs4  v127
 BYTE   W24
 BYTE   N12  Bn3  v088
 BYTE   N06  Fs4  v064
 BYTE   W12
 BYTE   N24  Dn4  v088
 BYTE   N24  Gn4  v127
 BYTE   W24
 BYTE   N12  Bn3  v088
 BYTE   N06  Gn4  v064
 BYTE   W12
 BYTE   N24  Dn4  v088
 BYTE   N24  Fs4  v127
 BYTE   W24
// 023   ----------------------------------------
 BYTE   N12  Bn3  v088
 BYTE   N06  Fs4  v064
 BYTE   W12
 BYTE   N24  Dn4  v088
 BYTE   N24  An4  v127
 BYTE   W24
 BYTE   N12  Bn3  v088
 BYTE   N06  An4  v064
 BYTE   W12
 BYTE   N12  Fs4  v088
 BYTE   N12  Bn4  v127
 BYTE   W12
 BYTE   Dn4  v088
 BYTE   N12  An4  v127
 BYTE   W12
 BYTE   Bn3  v088
 BYTE   N12  Dn4
 BYTE   W12
 BYTE   N60  Fs4
 BYTE   N60  Dn5  v127
 BYTE   W12
// 024   ----------------------------------------
 BYTE   W48
 BYTE   N36  En4  v088
 BYTE   N36  Cs5  v127
 BYTE   W36
 BYTE   N60  An3  v088
 BYTE   N60  En4  v127
 BYTE   W12
// 025   ----------------------------------------
 BYTE   W48
 BYTE   N48  An3  v088
 BYTE   N48  An4  v127
 BYTE   W48
// 026   ----------------------------------------
 BYTE   TIE  Bn3  v088
 BYTE   TIE  Bn4  v127
 BYTE   W96
// 027   ----------------------------------------
 BYTE   W48
 BYTE   EOT
 BYTE   Bn3  v083
 BYTE   N24  En4  v088
 BYTE   N24  An4  v127
 BYTE   W24
 BYTE   En4  v088
 BYTE   N24  Gs4  v127
 BYTE   W24
// 028   ----------------------------------------
 BYTE   GoTo
  POIN2 Label_0_011E6D10
 BYTE   FINE

//**************** Track 2 (Midi-Chn.1) ****************//

YggdraUnionRussellThemeShinKuma_002:
// 000   ----------------------------------------
 BYTE   KEYSH   YggdraUnionRussellThemeShinKuma_key+0
 BYTE   VOICE   18
 BYTE   VOL   25*YggdraUnionRussellThemeShinKuma_mvl/mxv
 BYTE   W12
 BYTE   N12  An3  v100
 BYTE   W12
 BYTE   N12
 BYTE   W12
 BYTE   N12
 BYTE   W12
 BYTE   Bn3
 BYTE   W12
 BYTE   N12
 BYTE   W12
 BYTE   N12
 BYTE   W12
 BYTE   Cs4
 BYTE   W12
// 001   ----------------------------------------
 BYTE   N12
 BYTE   W12
 BYTE   N12
 BYTE   W12
 BYTE   En4
 BYTE   W12
 BYTE   N12
 BYTE   W12
 BYTE   N12
 BYTE   W12
 BYTE   Gs4
 BYTE   W12
 BYTE   En4
 BYTE   W12
 BYTE   N06  Fs4
 BYTE   W06
 BYTE   Gs4
 BYTE   W06
// 002   ----------------------------------------
 BYTE   Bn4
 BYTE   W06
 BYTE   Cs5
 BYTE   W06
Label_1_011E7005:
 BYTE   VOICE   18
 BYTE   N96  Cs4  v076
 BYTE   W96
// 003   ----------------------------------------
 BYTE   N92  An3
 BYTE   W96
// 004   ----------------------------------------
 BYTE   N96  Bn3
 BYTE   W96
// 005   ----------------------------------------
 BYTE   Gs3
 BYTE   W96
// 006   ----------------------------------------
 BYTE   N92  Cs4
 BYTE   W96
// 007   ----------------------------------------
 BYTE   An3
 BYTE   W96
// 008   ----------------------------------------
 BYTE   N96  En4
 BYTE   W96
// 009   ----------------------------------------
 BYTE   Bn3
 BYTE   W96
// 010   ----------------------------------------
 BYTE   Cs4
 BYTE   W96
// 011   ----------------------------------------
 BYTE   N92  An3
 BYTE   W96
// 012   ----------------------------------------
 BYTE   N96  Bn3
 BYTE   W96
// 013   ----------------------------------------
 BYTE   En4
 BYTE   W96
// 014   ----------------------------------------
 BYTE   An3
 BYTE   W96
// 015   ----------------------------------------
 BYTE   Bn3
 BYTE   W96
// 016   ----------------------------------------
 BYTE   TIE  Cs4
 BYTE   W96
// 017   ----------------------------------------
 BYTE   W96
// 018   ----------------------------------------
 BYTE   EOT
 BYTE   VOICE   19
 BYTE   VOL   25*YggdraUnionRussellThemeShinKuma_mvl/mxv
 BYTE   N06  Fs4  v127
 BYTE   W06
 BYTE   Fs4  v076
 BYTE   W06
 BYTE   Bn3  v127
 BYTE   W06
 BYTE   Bn3  v076
 BYTE   W06
 BYTE   Bn3  v127
 BYTE   W06
 BYTE   Bn3  v076
 BYTE   W06
 BYTE   Gn4  v127
 BYTE   W06
 BYTE   Gn4  v076
 BYTE   W06
 BYTE   Bn3  v127
 BYTE   W06
 BYTE   Bn3  v076
 BYTE   W06
 BYTE   Bn3  v127
 BYTE   W06
 BYTE   Bn3  v076
 BYTE   W06
 BYTE   Fs4  v127
 BYTE   W06
 BYTE   Fs4  v076
 BYTE   W06
 BYTE   Bn3  v127
 BYTE   W06
 BYTE   Bn3  v076
 BYTE   W06
// 019   ----------------------------------------
 BYTE   Bn3  v127
 BYTE   W06
 BYTE   Bn3  v076
 BYTE   W06
 BYTE   En4  v127
 BYTE   W06
 BYTE   En4  v076
 BYTE   W06
 BYTE   Bn3  v127
 BYTE   W06
 BYTE   Bn3  v076
 BYTE   W06
 BYTE   Bn3  v127
 BYTE   W06
 BYTE   Bn3  v076
 BYTE   W06
 BYTE   Dn4  v127
 BYTE   W06
 BYTE   Dn4  v076
 BYTE   W06
 BYTE   Cs4  v127
 BYTE   W06
 BYTE   Cs4  v076
 BYTE   W06
 BYTE   An3  v127
 BYTE   W06
 BYTE   An3  v076
 BYTE   W06
 BYTE   Fs4  v127
 BYTE   W06
 BYTE   Fs4  v076
 BYTE   W06
// 020   ----------------------------------------
 BYTE   Bn3  v127
 BYTE   W06
 BYTE   Bn3  v076
 BYTE   W06
 BYTE   Bn3  v127
 BYTE   W06
 BYTE   Bn3  v076
 BYTE   W06
 BYTE   Bn3  v127
 BYTE   W06
 BYTE   Bn3  v076
 BYTE   W06
 BYTE   Bn3  v127
 BYTE   W06
 BYTE   Bn3  v076
 BYTE   W06
 BYTE   An4  v127
 BYTE   W06
 BYTE   An4  v076
 BYTE   W06
 BYTE   Bn3  v127
 BYTE   W06
 BYTE   Bn3  v076
 BYTE   W06
 BYTE   Bn3  v127
 BYTE   W06
 BYTE   Bn3  v076
 BYTE   W06
 BYTE   Fs4  v127
 BYTE   W06
 BYTE   Fs4  v076
 BYTE   W06
// 021   ----------------------------------------
 BYTE   Bn3  v127
 BYTE   W06
 BYTE   Bn3  v076
 BYTE   W06
 BYTE   En4  v127
 BYTE   W06
 BYTE   En4  v076
 BYTE   W06
 BYTE   Bn3  v127
 BYTE   W06
 BYTE   Bn3  v076
 BYTE   W06
 BYTE   Bn3  v127
 BYTE   W06
 BYTE   Bn3  v076
 BYTE   W06
 BYTE   Bn4  v127
 BYTE   W06
 BYTE   Bn4  v076
 BYTE   W06
 BYTE   Bn3  v127
 BYTE   W06
 BYTE   Bn3  v076
 BYTE   W06
 BYTE   Bn3  v127
 BYTE   W06
 BYTE   Bn3  v076
 BYTE   W06
 BYTE   Bn3  v127
 BYTE   W06
 BYTE   Bn3  v076
 BYTE   W06
// 022   ----------------------------------------
 BYTE   Fs4  v127
 BYTE   W06
 BYTE   Fs4  v076
 BYTE   W06
 BYTE   Bn3  v127
 BYTE   W06
 BYTE   Bn3  v076
 BYTE   W06
 BYTE   Bn3  v127
 BYTE   W06
 BYTE   Bn3  v076
 BYTE   W06
 BYTE   Gn4  v127
 BYTE   W06
 BYTE   Gn4  v076
 BYTE   W06
 BYTE   Bn3  v127
 BYTE   W06
 BYTE   Bn3  v076
 BYTE   W06
 BYTE   Bn3  v127
 BYTE   W06
 BYTE   Bn3  v076
 BYTE   W06
 BYTE   Fs4  v127
 BYTE   W06
 BYTE   Fs4  v076
 BYTE   W06
 BYTE   Bn3  v127
 BYTE   W06
 BYTE   Bn3  v076
 BYTE   W06
// 023   ----------------------------------------
 BYTE   Bn3  v127
 BYTE   W06
 BYTE   Bn3  v076
 BYTE   W06
 BYTE   An4  v127
 BYTE   W06
 BYTE   An4  v076
 BYTE   W06
 BYTE   Bn3  v127
 BYTE   W06
 BYTE   Bn3  v076
 BYTE   W06
 BYTE   Bn3  v127
 BYTE   W06
 BYTE   Bn3  v076
 BYTE   W06
 BYTE   N05  Fs4  v127
 BYTE   W06
 BYTE   Fs4  v076
 BYTE   W06
 BYTE   N06  Dn4  v127
 BYTE   W06
 BYTE   Dn4  v076
 BYTE   W06
 BYTE   Bn3  v127
 BYTE   W06
 BYTE   Bn3  v076
 BYTE   W06
 BYTE   Dn5  v127
 BYTE   W06
 BYTE   Dn5  v076
 BYTE   W06
// 024   ----------------------------------------
 BYTE   Bn3  v127
 BYTE   W06
 BYTE   Bn3  v076
 BYTE   W06
 BYTE   Bn3  v127
 BYTE   W06
 BYTE   Bn3  v076
 BYTE   W06
 BYTE   Bn3  v127
 BYTE   W06
 BYTE   Bn3  v076
 BYTE   W06
 BYTE   Bn3  v127
 BYTE   W06
 BYTE   Bn3  v076
 BYTE   W06
 BYTE   Cs5  v127
 BYTE   W06
 BYTE   Cs5  v076
 BYTE   W06
 BYTE   Bn3  v127
 BYTE   W06
 BYTE   Bn3  v076
 BYTE   W06
 BYTE   Bn3  v127
 BYTE   W06
 BYTE   Bn3  v076
 BYTE   W06
 BYTE   En4  v127
 BYTE   W06
 BYTE   En4  v076
 BYTE   W06
// 025   ----------------------------------------
 BYTE   Cn4  v127
 BYTE   W06
 BYTE   Cn4  v076
 BYTE   W06
 BYTE   En4  v127
 BYTE   W06
 BYTE   En4  v076
 BYTE   W06
 BYTE   Cn4  v127
 BYTE   W06
 BYTE   Cn4  v076
 BYTE   W06
 BYTE   Cn4  v127
 BYTE   W06
 BYTE   Cn4  v076
 BYTE   W06
 BYTE   An4  v127
 BYTE   W06
 BYTE   An4  v076
 BYTE   W06
 BYTE   Cn4  v127
 BYTE   W06
 BYTE   Cn4  v076
 BYTE   W06
 BYTE   Cn4  v127
 BYTE   W06
 BYTE   Cn4  v076
 BYTE   W06
 BYTE   Cn4  v127
 BYTE   W06
 BYTE   Cn4  v076
 BYTE   W06
// 026   ----------------------------------------
 BYTE   VOICE   19
 BYTE   VOL   25*YggdraUnionRussellThemeShinKuma_mvl/mxv
 BYTE   TIE  Fs4
 BYTE   W96
// 027   ----------------------------------------
 BYTE   W48
 BYTE   EOT
 BYTE   N24  An4
 BYTE   W24
 BYTE   Gs4
 BYTE   W24
// 028   ----------------------------------------
 BYTE   GoTo
  POIN2 Label_1_011E7005
 BYTE   FINE

//**************** Track 3 (Midi-Chn.2) ****************//

YggdraUnionRussellThemeShinKuma_003:
// 000   ----------------------------------------
 BYTE   KEYSH   YggdraUnionRussellThemeShinKuma_key+0
 BYTE   VOICE   20
 BYTE   VOL   25*YggdraUnionRussellThemeShinKuma_mvl/mxv
 BYTE   W12
 BYTE   N12  Fs3  v100
 BYTE   W12
 BYTE   N12
 BYTE   W12
 BYTE   N12
 BYTE   W12
 BYTE   Gs3
 BYTE   W12
 BYTE   N12
 BYTE   W12
 BYTE   N12
 BYTE   W12
 BYTE   An3
 BYTE   W12
// 001   ----------------------------------------
 BYTE   N12
 BYTE   W12
 BYTE   N12
 BYTE   W12
 BYTE   Bn3
 BYTE   W12
 BYTE   N12
 BYTE   W12
 BYTE   N12
 BYTE   W12
 BYTE   En4
 BYTE   W12
 BYTE   Bn3
 BYTE   W12
 BYTE   N06  Cs4
 BYTE   W06
 BYTE   En4
 BYTE   W06
// 002   ----------------------------------------
 BYTE   Fs4
 BYTE   W06
 BYTE   Gs4
 BYTE   W06
Label_2_011E71F9:
 BYTE   VOICE   20
 BYTE   VOL   25*YggdraUnionRussellThemeShinKuma_mvl/mxv
 BYTE   N96  An3  v076
 BYTE   W96
// 003   ----------------------------------------
 BYTE   Cs3
 BYTE   W96
// 004   ----------------------------------------
 BYTE   Gs3
 BYTE   W96
// 005   ----------------------------------------
 BYTE   Bn2
 BYTE   W96
// 006   ----------------------------------------
 BYTE   Fs3
 BYTE   W96
// 007   ----------------------------------------
 BYTE   Dn3
 BYTE   W96
// 008   ----------------------------------------
 BYTE   Bn3
 BYTE   W96
// 009   ----------------------------------------
 BYTE   En3
 BYTE   W96
// 010   ----------------------------------------
 BYTE   An2
 BYTE   W96
// 011   ----------------------------------------
 BYTE   Cs3
 BYTE   W96
// 012   ----------------------------------------
 BYTE   Gs3
 BYTE   W96
// 013   ----------------------------------------
 BYTE   Bn3
 BYTE   W96
// 014   ----------------------------------------
 BYTE   Fs3
 BYTE   W96
// 015   ----------------------------------------
 BYTE   En3
 BYTE   W96
// 016   ----------------------------------------
 BYTE   TIE  Fs3
 BYTE   W96
// 017   ----------------------------------------
 BYTE   W96
// 018   ----------------------------------------
 BYTE   EOT
 BYTE   VOICE   21
 BYTE   VOL   25*YggdraUnionRussellThemeShinKuma_mvl/mxv
 BYTE   N06  Dn4  v127
 BYTE   W36
 BYTE   N06
 BYTE   W36
 BYTE   N06
 BYTE   W24
// 019   ----------------------------------------
 BYTE   W12
 BYTE   Bn3
 BYTE   W72
 BYTE   N06
 BYTE   W12
// 020   ----------------------------------------
 BYTE   W48
 BYTE   Dn4
 BYTE   W36
 BYTE   Cs4
 BYTE   W12
// 021   ----------------------------------------
 BYTE   W48
 BYTE   Fs4
 BYTE   W48
// 022   ----------------------------------------
 BYTE   Dn4
 BYTE   W36
 BYTE   N06
 BYTE   W36
 BYTE   N06
 BYTE   W24
// 023   ----------------------------------------
 BYTE   W12
 BYTE   N06
 BYTE   W72
 BYTE   Fs4
 BYTE   W12
// 024   ----------------------------------------
 BYTE   W48
 BYTE   En4
 BYTE   W36
 BYTE   An3
 BYTE   W12
// 025   ----------------------------------------
 BYTE   W12
 BYTE   Cn4
 BYTE   W36
 BYTE   An3
 BYTE   W48
// 026   ----------------------------------------
 BYTE   VOICE   21
 BYTE   VOL   25*YggdraUnionRussellThemeShinKuma_mvl/mxv
 BYTE   N12  Bn2  v100
 BYTE   W12
 BYTE   N12
 BYTE   W24
 BYTE   Bn3
 BYTE   W12
 BYTE   An3
 BYTE   W12
 BYTE   En3
 BYTE   W12
 BYTE   N12
 BYTE   W12
 BYTE   Dn3
 BYTE   W12
// 027   ----------------------------------------
 BYTE   En3
 BYTE   W12
 BYTE   Fn3
 BYTE   W12
 BYTE   Bn2
 BYTE   W12
 BYTE   An2
 BYTE   W12
 BYTE   N24  An3
 BYTE   W24
 BYTE   Gs3
 BYTE   W24
// 028   ----------------------------------------
 BYTE   GoTo
  POIN2 Label_2_011E71F9
 BYTE   FINE

//**************** Track 4 (Midi-Chn.3) ****************//

YggdraUnionRussellThemeShinKuma_004:
// 000   ----------------------------------------
 BYTE   KEYSH   YggdraUnionRussellThemeShinKuma_key+0
 BYTE   VOICE   27
 BYTE   VOL   47*YggdraUnionRussellThemeShinKuma_mvl/mxv
 BYTE   W12
 BYTE   N36  Cs2  v100
 BYTE   N36  Fs2
 BYTE   W36
 BYTE   Bn1
 BYTE   N36  En2
 BYTE   W36
 BYTE   N36
 BYTE   N36  An2
 BYTE   W24
// 001   ----------------------------------------
 BYTE   W12
 BYTE   Bn1
 BYTE   N36  En2
 BYTE   W36
 BYTE   N23  Fs1
 BYTE   N24  Cs2
 BYTE   W23
 BYTE   An1
 BYTE   W01
 BYTE   En2
 BYTE   W24
// 002   ----------------------------------------
Label_3_011E7298:
 BYTE   N24  Cs2  v100
 BYTE   N24  Fs2
 BYTE   W23
 BYTE   N12  Fs1
 BYTE   W13
 BYTE   N11
 BYTE   W11
 BYTE   N12
 BYTE   W13
 BYTE   N12
 BYTE   W12
 BYTE   N11
 BYTE   W11
 BYTE   N12
 BYTE   W13
// 003   ----------------------------------------
 BYTE   N12
 BYTE   W11
 BYTE   Cs2
 BYTE   N12  Fs2
 BYTE   W13
 BYTE   N11  Fs1
 BYTE   W11
 BYTE   N12
 BYTE   W12
 BYTE   Cs2
 BYTE   N12  Fs2
 BYTE   W13
 BYTE   N11  Fs1
 BYTE   W11
 BYTE   N12
 BYTE   W13
 BYTE   N12
 BYTE   W11
 BYTE   N24  Bn1
 BYTE   N24  En2
 BYTE   W01
// 004   ----------------------------------------
Label_3_011E72C6:
 BYTE   W23
 BYTE   N12  En1  v100
 BYTE   W12
 BYTE   N12
 BYTE   W12
 BYTE   N12
 BYTE   W12
 BYTE   N12
 BYTE   W12
 BYTE   N12
 BYTE   W12
 BYTE   N12
 BYTE   W12
 BYTE   N12
 BYTE   W01
 BYTE   PEND 
// 005   ----------------------------------------
Label_3_011E72D8:
 BYTE   W11
 BYTE   N12  Bn1  v100
 BYTE   N12  En2
 BYTE   W12
 BYTE   En1
 BYTE   W12
 BYTE   N12
 BYTE   W12
 BYTE   Bn1
 BYTE   N12  En2
 BYTE   W12
 BYTE   En1
 BYTE   W12
 BYTE   N12
 BYTE   W12
 BYTE   N12
 BYTE   W13
 BYTE   PEND 
// 006   ----------------------------------------
 BYTE   N23  An1
 BYTE   N23  Dn2
 BYTE   W23
 BYTE   N12  Dn1
 BYTE   W12
 BYTE   N12
 BYTE   W12
 BYTE   N12
 BYTE   W12
 BYTE   N12
 BYTE   W12
 BYTE   N12
 BYTE   W12
 BYTE   N12
 BYTE   W12
 BYTE   N12
 BYTE   W01
// 007   ----------------------------------------
 BYTE   W11
 BYTE   An1
 BYTE   N12  Dn2
 BYTE   W12
 BYTE   Dn1
 BYTE   W12
 BYTE   N12
 BYTE   W12
 BYTE   An1
 BYTE   N12  Dn2
 BYTE   W12
 BYTE   Dn1
 BYTE   W12
 BYTE   N12
 BYTE   W12
 BYTE   N12
 BYTE   W12
 BYTE   N24  Bn1
 BYTE   N24  En2
 BYTE   W01
 BYTE   PATT
  POIN2 Label_3_011E72C6
 BYTE   PATT
  POIN2 Label_3_011E72D8
// 008   ----------------------------------------
 BYTE   N24  Cs2  v100
 BYTE   W23
 BYTE   N12  Fs1
 BYTE   W13
 BYTE   N11
 BYTE   W11
 BYTE   N12
 BYTE   W12
 BYTE   N12
 BYTE   W13
 BYTE   N11
 BYTE   W11
 BYTE   N12
 BYTE   W13
// 009   ----------------------------------------
 BYTE   N11
 BYTE   W11
 BYTE   N12  Cs2
 BYTE   N12  Fs2
 BYTE   W13
 BYTE   N11  Fs1
 BYTE   W11
 BYTE   N12
 BYTE   W12
 BYTE   Cs2
 BYTE   N12  Fs2
 BYTE   W13
 BYTE   N11  Fs1
 BYTE   W11
 BYTE   N12
 BYTE   W13
 BYTE   N11
 BYTE   W11
 BYTE   N24  Bn1
 BYTE   N24  En2
 BYTE   W01
 BYTE   PATT
  POIN2 Label_3_011E72C6
// 010   ----------------------------------------
 BYTE   W11
 BYTE   N12  Bn1  v100
 BYTE   N12  En2
 BYTE   W12
 BYTE   En1
 BYTE   W12
 BYTE   N12
 BYTE   W12
 BYTE   Bn1
 BYTE   N12  En2
 BYTE   W12
 BYTE   En1
 BYTE   W12
 BYTE   N12
 BYTE   W12
 BYTE   N12
 BYTE   W12
 BYTE   N24  An1
 BYTE   N24  Dn2
 BYTE   W01
// 011   ----------------------------------------
 BYTE   W23
 BYTE   N12  Dn1
 BYTE   W12
 BYTE   N12
 BYTE   W12
 BYTE   N12
 BYTE   W12
 BYTE   N12
 BYTE   W12
 BYTE   N12
 BYTE   W12
 BYTE   N12
 BYTE   W12
 BYTE   N24  Bn1
 BYTE   N24  En2
 BYTE   W01
// 012   ----------------------------------------
 BYTE   W23
 BYTE   N12  En1
 BYTE   W12
 BYTE   N12
 BYTE   W12
 BYTE   N12
 BYTE   W12
 BYTE   N12
 BYTE   W12
 BYTE   N12
 BYTE   W12
 BYTE   N12
 BYTE   W12
 BYTE   N24  Cs2
 BYTE   N24  Fs2
 BYTE   W01
// 013   ----------------------------------------
 BYTE   W23
 BYTE   N12  Fs1
 BYTE   W12
 BYTE   N12
 BYTE   W12
 BYTE   N12
 BYTE   W12
 BYTE   N12
 BYTE   W12
 BYTE   N12
 BYTE   W12
 BYTE   N12
 BYTE   W12
 BYTE   Fs2
 BYTE   W01
// 014   ----------------------------------------
 BYTE   W12
 BYTE   En2
 BYTE   W12
 BYTE   Cs2
 BYTE   W12
 BYTE   N11  Bn1
 BYTE   W11
 BYTE   N12  Fs1
 BYTE   W12
 BYTE   En1
 BYTE   W12
 BYTE   Fs1
 BYTE   W12
 BYTE   An1
 BYTE   W13
// 015   ----------------------------------------
 BYTE   N23  Fs2
 BYTE   N24  Bn2
 BYTE   W24
 BYTE   N12  Bn1
 BYTE   W12
 BYTE   N24  Gn2
 BYTE   N24  Bn2
 BYTE   W24
 BYTE   N12  Bn1
 BYTE   W12
 BYTE   N24  Fs2
 BYTE   N24  Bn2
 BYTE   W24
// 016   ----------------------------------------
 BYTE   N12  Bn1
 BYTE   W12
 BYTE   N11
 BYTE   W11
 BYTE   N12
 BYTE   W13
 BYTE   N12
 BYTE   W12
 BYTE   N12
 BYTE   W12
 BYTE   N11
 BYTE   W11
 BYTE   N12
 BYTE   W13
 BYTE   N23  Dn2
 BYTE   N23  Gn2
 BYTE   W12
// 017   ----------------------------------------
 BYTE   W12
 BYTE   N11  Gn1
 BYTE   W11
 BYTE   N12
 BYTE   W13
 BYTE   N11
 BYTE   W11
 BYTE   N12
 BYTE   W13
 BYTE   N12
 BYTE   W12
 BYTE   N12
 BYTE   W11
 BYTE   N24  An2
 BYTE   W01
 BYTE   N23  En2
 BYTE   W12
// 018   ----------------------------------------
 BYTE   W11
 BYTE   N12  An1
 BYTE   W13
 BYTE   N11
 BYTE   W11
 BYTE   N12
 BYTE   W12
 BYTE   N12
 BYTE   W13
 BYTE   N11
 BYTE   W11
 BYTE   N12
 BYTE   W13
 BYTE   N12
 BYTE   W12
// 019   ----------------------------------------
 BYTE   N36  En1
 BYTE   N36  Bn1
 BYTE   W36
 BYTE   N36
 BYTE   N36  En2
 BYTE   W36
 BYTE   N11
 BYTE   W11
 BYTE   N12
 BYTE   W13
// 020   ----------------------------------------
 BYTE   N12
 BYTE   W12
 BYTE   N12
 BYTE   W12
 BYTE   N12
 BYTE   W12
 BYTE   N12
 BYTE   W11
 BYTE   Bn1
 BYTE   W13
 BYTE   Gn1
 BYTE   W12
 BYTE   En1
 BYTE   W12
 BYTE   N23  Dn2
 BYTE   N24  Gn2
 BYTE   W12
// 021   ----------------------------------------
 BYTE   W12
 BYTE   N11  Gn1
 BYTE   W11
 BYTE   N12
 BYTE   W13
 BYTE   N11
 BYTE   W11
 BYTE   N12
 BYTE   W13
 BYTE   N12
 BYTE   W12
 BYTE   N12
 BYTE   W11
 BYTE   N24  Gn2
 BYTE   N24  Cn3
 BYTE   W13
// 022   ----------------------------------------
 BYTE   W11
 BYTE   N12  Cn2
 BYTE   W13
 BYTE   N11
 BYTE   W11
 BYTE   N12
 BYTE   W12
 BYTE   N12
 BYTE   W13
 BYTE   N11
 BYTE   W11
 BYTE   N12
 BYTE   W13
 BYTE   N12
 BYTE   W12
// 023   ----------------------------------------
 BYTE   N36  Bn1
 BYTE   N36  Bn2
 BYTE   W36
 BYTE   N23  Bn1
 BYTE   N24  Fn2
 BYTE   W24
 BYTE   N12  Bn1
 BYTE   W12
 BYTE   N23
 BYTE   N24  En2
 BYTE   W24
// 024   ----------------------------------------
 BYTE   N12  Bn1
 BYTE   W12
 BYTE   N24  Dn2
 BYTE   N23  Bn2
 BYTE   W24
 BYTE   N12  Bn1
 BYTE   W12
 BYTE   N24  En1
 BYTE   N23  Bn1
 BYTE   W23
 BYTE   N24
 BYTE   W01
 BYTE   En1
 BYTE   W24
// 025   ----------------------------------------
 BYTE   GoTo
  POIN2 Label_3_011E7298
 BYTE   FINE

//**************** Track 5 (Midi-Chn.4) ****************//

YggdraUnionRussellThemeShinKuma_005:
// 000   ----------------------------------------
 BYTE   KEYSH   YggdraUnionRussellThemeShinKuma_key+0
 BYTE   VOICE   32
 BYTE   VOL   66*YggdraUnionRussellThemeShinKuma_mvl/mxv
 BYTE   AnM2
 BYTE   W12
 BYTE   N36  Fs0  v127
 BYTE   W36
 BYTE   En0
 BYTE   W36
 BYTE   An0
 BYTE   W24
// 001   ----------------------------------------
 BYTE   W12
 BYTE   En0
 BYTE   W36
 BYTE   N24  Cs0
 BYTE   W24
 BYTE   En0
 BYTE   W24
// 002   ----------------------------------------
Label_4_011E748B:
 BYTE   N09  Fs0  v127
 BYTE   W12
 BYTE   N09
 BYTE   W12
 BYTE   N09
 BYTE   W12
 BYTE   N09
 BYTE   W12
 BYTE   N09
 BYTE   W12
 BYTE   N09
 BYTE   W12
 BYTE   N09
 BYTE   W12
 BYTE   N09
 BYTE   W12
 BYTE   PEND 
 BYTE   PATT
  POIN2 Label_4_011E748B
// 003   ----------------------------------------
Label_4_011E74A3:
 BYTE   N09  En0  v127
 BYTE   W12
 BYTE   N09
 BYTE   W12
 BYTE   N09
 BYTE   W12
 BYTE   N09
 BYTE   W12
 BYTE   N09
 BYTE   W12
 BYTE   N09
 BYTE   W12
 BYTE   N09
 BYTE   W12
 BYTE   N09
 BYTE   W12
 BYTE   PEND 
 BYTE   PATT
  POIN2 Label_4_011E74A3
// 004   ----------------------------------------
Label_4_011E74BB:
 BYTE   N09  Dn0  v127
 BYTE   W12
 BYTE   N09
 BYTE   W12
 BYTE   N09
 BYTE   W12
 BYTE   N09
 BYTE   W12
 BYTE   N09
 BYTE   W12
 BYTE   N09
 BYTE   W12
 BYTE   N09
 BYTE   W12
 BYTE   N09
 BYTE   W12
 BYTE   PEND 
 BYTE   PATT
  POIN2 Label_4_011E74BB
 BYTE   PATT
  POIN2 Label_4_011E74A3
 BYTE   PATT
  POIN2 Label_4_011E74A3
 BYTE   PATT
  POIN2 Label_4_011E748B
 BYTE   PATT
  POIN2 Label_4_011E748B
 BYTE   PATT
  POIN2 Label_4_011E74A3
 BYTE   PATT
  POIN2 Label_4_011E74A3
 BYTE   PATT
  POIN2 Label_4_011E74BB
 BYTE   PATT
  POIN2 Label_4_011E74A3
 BYTE   PATT
  POIN2 Label_4_011E748B
// 005   ----------------------------------------
 BYTE   N09  Fs1  v127
 BYTE   W12
 BYTE   En1
 BYTE   W12
 BYTE   Cs1
 BYTE   W12
 BYTE   Bn0
 BYTE   W12
 BYTE   Fs0
 BYTE   W12
 BYTE   Fn0
 BYTE   W12
 BYTE   Fs0
 BYTE   W12
 BYTE   An0
 BYTE   W12
// 006   ----------------------------------------
 BYTE   Bn0
 BYTE   W12
 BYTE   N09
 BYTE   W12
 BYTE   N09
 BYTE   W12
 BYTE   N09
 BYTE   W12
 BYTE   N09
 BYTE   W12
 BYTE   N09
 BYTE   W12
 BYTE   N09
 BYTE   W12
 BYTE   N09
 BYTE   W12
// 007   ----------------------------------------
 BYTE   N09
 BYTE   W12
 BYTE   N09
 BYTE   W12
 BYTE   N09
 BYTE   W12
 BYTE   N09
 BYTE   W12
 BYTE   N09
 BYTE   W12
 BYTE   N09
 BYTE   W12
 BYTE   N09
 BYTE   W12
 BYTE   N18  Gn0
 BYTE   W12
// 008   ----------------------------------------
 BYTE   W12
 BYTE   N09
 BYTE   W12
 BYTE   N09
 BYTE   W12
 BYTE   N09
 BYTE   W12
 BYTE   N09
 BYTE   W12
 BYTE   N09
 BYTE   W12
 BYTE   N09
 BYTE   W12
 BYTE   N18  An0
 BYTE   W12
// 009   ----------------------------------------
 BYTE   W12
 BYTE   N09
 BYTE   W12
 BYTE   N09
 BYTE   W12
 BYTE   N09
 BYTE   W12
 BYTE   N09
 BYTE   W12
 BYTE   N09
 BYTE   W12
 BYTE   N09
 BYTE   W12
 BYTE   N09
 BYTE   W12
// 010   ----------------------------------------
 BYTE   En0
 BYTE   W12
 BYTE   N09
 BYTE   W12
 BYTE   N09
 BYTE   W12
 BYTE   En1
 BYTE   W12
 BYTE   N09
 BYTE   W12
 BYTE   N09
 BYTE   W12
 BYTE   N09
 BYTE   W12
 BYTE   N09
 BYTE   W12
// 011   ----------------------------------------
 BYTE   N09
 BYTE   W12
 BYTE   N09
 BYTE   W12
 BYTE   N09
 BYTE   W12
 BYTE   N09
 BYTE   W12
 BYTE   Bn0
 BYTE   W12
 BYTE   Gn0
 BYTE   W12
 BYTE   En0
 BYTE   W12
 BYTE   N18  Gn0
 BYTE   W12
// 012   ----------------------------------------
 BYTE   W12
 BYTE   N09
 BYTE   W12
 BYTE   N09
 BYTE   W12
 BYTE   N09
 BYTE   W12
 BYTE   N09
 BYTE   W12
 BYTE   N09
 BYTE   W12
 BYTE   N09
 BYTE   W12
 BYTE   N18  Cn1
 BYTE   W12
// 013   ----------------------------------------
 BYTE   W12
 BYTE   N09
 BYTE   W12
 BYTE   N09
 BYTE   W12
 BYTE   N09
 BYTE   W12
 BYTE   N09
 BYTE   W12
 BYTE   N09
 BYTE   W12
 BYTE   N09
 BYTE   W12
 BYTE   N09
 BYTE   W12
// 014   ----------------------------------------
 BYTE   N36  Bn0
 BYTE   W36
 BYTE   N24  Fn1
 BYTE   W24
 BYTE   N12  Bn0
 BYTE   W12
 BYTE   N24  En1
 BYTE   W24
// 015   ----------------------------------------
 BYTE   N12  Bn0
 BYTE   W12
 BYTE   N24  Dn1
 BYTE   W24
 BYTE   N12  Bn0
 BYTE   W12
 BYTE   N24  En0
 BYTE   W24
 BYTE   N24
 BYTE   W24
// 016   ----------------------------------------
 BYTE   GoTo
  POIN2 Label_4_011E748B
 BYTE   FINE

//**************** Track 6 (Midi-Chn.5) ****************//

YggdraUnionRussellThemeShinKuma_006:
// 000   ----------------------------------------
 BYTE   KEYSH   YggdraUnionRussellThemeShinKuma_key+0
 BYTE   VOICE   0
 BYTE   VOL   56*YggdraUnionRussellThemeShinKuma_mvl/mxv
 BYTE   An0
 BYTE   W12
 BYTE   N06  As0  v092
 BYTE   N06  Bn0  v076
 BYTE   W12
 BYTE   Cn1  v108
 BYTE   W12
 BYTE   N06
 BYTE   N06  Cs1  v060
 BYTE   W12
 BYTE   As0  v092
 BYTE   N06  Bn0  v076
 BYTE   W12
 BYTE   Cn1  v108
 BYTE   W12
 BYTE   N06
 BYTE   W12
 BYTE   As0  v092
 BYTE   N06  Bn0  v076
 BYTE   W12
// 001   ----------------------------------------
 BYTE   Cn1  v108
 BYTE   W12
 BYTE   N06
 BYTE   N06  Cs1  v060
 BYTE   W12
 BYTE   As0  v092
 BYTE   N06  Bn0  v076
 BYTE   W12
 BYTE   Cn1  v108
 BYTE   W12
 BYTE   N06
 BYTE   W12
 BYTE   As0  v092
 BYTE   N06  Bn0  v076
 BYTE   W12
 BYTE   Cn1  v108
 BYTE   W12
 BYTE   As0  v092
 BYTE   W06
 BYTE   N06
 BYTE   W06
// 002   ----------------------------------------
 BYTE   N06
 BYTE   W06
 BYTE   N06
 BYTE   W06
Label_5_011E7600:
 BYTE   N06  Cn1  v108
 BYTE   N06  Bn0  v076
 BYTE   W24
 BYTE   As0  v092
 BYTE   N06  Cs1  v060
 BYTE   W24
 BYTE   Cn1  v108
 BYTE   N06  Cs1  v060
 BYTE   W12
 BYTE   Cn1  v108
 BYTE   W12
 BYTE   As0  v092
 BYTE   N06  Cs1  v060
 BYTE   W24
 BYTE   PEND 
// 003   ----------------------------------------
Label_5_011E761D:
 BYTE   N06  Cn1  v108
 BYTE   N06  Cs1  v060
 BYTE   W24
 BYTE   As0  v092
 BYTE   N06  Cs1  v060
 BYTE   W24
 BYTE   Cn1  v108
 BYTE   N06  Cs1  v060
 BYTE   W12
 BYTE   Cn1  v108
 BYTE   W12
 BYTE   As0  v092
 BYTE   N06  Cs1  v060
 BYTE   W24
 BYTE   PEND 
 BYTE   PATT
  POIN2 Label_5_011E761D
 BYTE   PATT
  POIN2 Label_5_011E761D
 BYTE   PATT
  POIN2 Label_5_011E761D
 BYTE   PATT
  POIN2 Label_5_011E761D
 BYTE   PATT
  POIN2 Label_5_011E761D
// 004   ----------------------------------------
 BYTE   N06  Cn1  v108
 BYTE   N06  Cs1  v060
 BYTE   W24
 BYTE   As0  v092
 BYTE   N06  Cs1  v060
 BYTE   W12
 BYTE   Cn1  v108
 BYTE   W12
 BYTE   Cs1  v060
 BYTE   W12
 BYTE   Cn1  v108
 BYTE   W06
 BYTE   N06
 BYTE   W06
 BYTE   As0  v092
 BYTE   N06  Bn0  v076
 BYTE   W24
 BYTE   PATT
  POIN2 Label_5_011E7600
 BYTE   PATT
  POIN2 Label_5_011E761D
 BYTE   PATT
  POIN2 Label_5_011E761D
 BYTE   PATT
  POIN2 Label_5_011E761D
 BYTE   PATT
  POIN2 Label_5_011E7600
 BYTE   PATT
  POIN2 Label_5_011E761D
 BYTE   PATT
  POIN2 Label_5_011E761D
// 005   ----------------------------------------
 BYTE   N06  As0  v092
 BYTE   N06  Cs1  v060
 BYTE   W06
 BYTE   As0  v092
 BYTE   W06
 BYTE   N06
 BYTE   W12
 BYTE   N06
 BYTE   N06  Cs1  v060
 BYTE   W12
 BYTE   As0  v092
 BYTE   W12
 BYTE   N06
 BYTE   N06  Cs1  v060
 BYTE   W12
 BYTE   As0  v092
 BYTE   W12
 BYTE   N06
 BYTE   N06  Cs1  v060
 BYTE   W12
 BYTE   As0  v092
 BYTE   W12
// 006   ----------------------------------------
Label_5_011E76B8:
 BYTE   N06  Cn1  v108
 BYTE   N06  Bn0  v076
 BYTE   W24
 BYTE   As0  v092
 BYTE   N06  Cs1  v060
 BYTE   W12
 BYTE   Cn1  v108
 BYTE   N06  Bn0  v076
 BYTE   W24
 BYTE   Cn1  v108
 BYTE   W12
 BYTE   As0  v092
 BYTE   N06  Bn0  v076
 BYTE   W24
 BYTE   PEND 
// 007   ----------------------------------------
Label_5_011E76D5:
 BYTE   N06  Cn1  v108
 BYTE   N06  Cs1  v060
 BYTE   W24
 BYTE   As0  v092
 BYTE   N06  Cs1  v060
 BYTE   W24
 BYTE   Cn1  v108
 BYTE   N06  Cs1  v060
 BYTE   W12
 BYTE   Cn1  v108
 BYTE   W12
 BYTE   As0  v092
 BYTE   N06  Cs1  v060
 BYTE   W12
 BYTE   Cn1  v108
 BYTE   N06  Bn0  v076
 BYTE   W12
 BYTE   PEND 
// 008   ----------------------------------------
Label_5_011E76F8:
 BYTE   W12
 BYTE   N06  Cn1  v108
 BYTE   W12
 BYTE   As0  v092
 BYTE   N06  Cs1  v060
 BYTE   W24
 BYTE   Cn1  v108
 BYTE   N06  Cs1  v060
 BYTE   W12
 BYTE   Cn1  v108
 BYTE   W12
 BYTE   As0  v092
 BYTE   N06  Cs1  v060
 BYTE   W12
 BYTE   Cn1  v108
 BYTE   N06  Bn0  v076
 BYTE   W12
 BYTE   PEND 
// 009   ----------------------------------------
 BYTE   W12
 BYTE   Cn1  v108
 BYTE   W12
 BYTE   As0  v092
 BYTE   N06  Cs1  v060
 BYTE   W24
 BYTE   Cn1  v108
 BYTE   N06  Cs1  v060
 BYTE   W12
 BYTE   Cn1  v108
 BYTE   W12
 BYTE   As0  v092
 BYTE   N06  Cs1  v060
 BYTE   W12
 BYTE   As0  v092
 BYTE   W12
 BYTE   PATT
  POIN2 Label_5_011E76B8
 BYTE   PATT
  POIN2 Label_5_011E76D5
 BYTE   PATT
  POIN2 Label_5_011E76F8
// 010   ----------------------------------------
 BYTE   W12
 BYTE   N06  Cn1  v108
 BYTE   W12
 BYTE   As0  v092
 BYTE   N06  Cs1  v060
 BYTE   W12
 BYTE   As0  v092
 BYTE   W12
 BYTE   Cn1  v108
 BYTE   N06  Cs1  v060
 BYTE   W06
 BYTE   Cn1  v108
 BYTE   W06
 BYTE   N06
 BYTE   W12
 BYTE   As0  v092
 BYTE   N06  Bn0  v076
 BYTE   W12
 BYTE   As0  v092
 BYTE   W12
// 011   ----------------------------------------
 BYTE   N06
 BYTE   N06  Bn0  v076
 BYTE   W12
 BYTE   As0  v092
 BYTE   W12
 BYTE   Cn1  v108
 BYTE   W12
 BYTE   As0  v092
 BYTE   W12
 BYTE   N06
 BYTE   W12
 BYTE   Cn1  v108
 BYTE   W12
 BYTE   As0  v092
 BYTE   W06
 BYTE   N06
 BYTE   W06
 BYTE   N06
 BYTE   W12
// 012   ----------------------------------------
 BYTE   Cn1  v108
 BYTE   W12
 BYTE   Dn1  v120
 BYTE   W06
 BYTE   N06
 BYTE   W06
 BYTE   N06
 BYTE   W12
 BYTE   Cn1  v108
 BYTE   W12
 BYTE   As0  v092
 BYTE   W12
 BYTE   N06
 BYTE   W12
 BYTE   N06
 BYTE   W12
 BYTE   N06
 BYTE   W12
// 013   ----------------------------------------
 BYTE   GoTo
  POIN2 Label_5_011E7600
 BYTE   FINE

//******************************************************//
	ALIGN 4

YggdraUnionRussellThemeShinKuma:
	BYTE	6	// NumTrks
	BYTE	0	// NumBlks
	BYTE	YggdraUnionRussellThemeShinKuma_pri	// Priority
	BYTE	YggdraUnionRussellThemeShinKuma_rev	// Reverb.
    
	POIN2	YggdraUnionRussellThemeShinKuma_grp
    
	POIN2	YggdraUnionRussellThemeShinKuma_001
	POIN2	YggdraUnionRussellThemeShinKuma_002
	POIN2	YggdraUnionRussellThemeShinKuma_003
	POIN2	YggdraUnionRussellThemeShinKuma_004
	POIN2	YggdraUnionRussellThemeShinKuma_005
	POIN2	YggdraUnionRussellThemeShinKuma_006

	
