//Event file generated from Sappy .s format.
	#include "MPlayDef.event"

	#define	Touhou123FaithisfortheTransientTak_grp  voicegroup000
	#define	Touhou123FaithisfortheTransientTak_pri  0
	#define	Touhou123FaithisfortheTransientTak_rev  0
	#define	Touhou123FaithisfortheTransientTak_mvl  127
	#define	Touhou123FaithisfortheTransientTak_key  0
	#define	Touhou123FaithisfortheTransientTak_tbs  1
	#define	Touhou123FaithisfortheTransientTak_exg  0
	#define	Touhou123FaithisfortheTransientTak_cmp  1

	// .rodata
	//	Touhou123FaithisfortheTransientTak
	ALIGN 4


//**************** Track 1 (Midi-Chn.0) ****************//

Touhou123FaithisfortheTransientTak_001:
//  #01 //000   ----------------------------------------
 BYTE   KEYSH   Touhou123FaithisfortheTransientTak_key+0
 BYTE   TEMPO   166*Touhou123FaithisfortheTransientTak_tbs/2
 BYTE   VOICE   34
 BYTE   BENDR  12
 BYTE   VOL   85*Touhou123FaithisfortheTransientTak_mvl/mxv
 BYTE   N11  Fs1  v116
 BYTE   W12
 BYTE   TIE  Bn1
 BYTE   W84
//  #01 //001   ----------------------------------------
 BYTE   W92
 BYTE   W03
 BYTE   EOT
 BYTE   W01
//  #01 //002   ----------------------------------------
 BYTE   N05  An1
 BYTE   W06
 BYTE   An1
 BYTE   W06
 BYTE   TIE
 BYTE   W84
//  #01 //003   ----------------------------------------
 BYTE   W92
 BYTE   W03
 BYTE   EOT
 BYTE   W01
//  #01 //004   ----------------------------------------
 BYTE   N05  Gn1
 BYTE   W06
 BYTE   Gn1
 BYTE   W06
 BYTE   N92  Gn1  v116  gtp3
 BYTE   W84
//  #01 //005   ----------------------------------------
 BYTE   W12
 BYTE   En1
 BYTE   W84
//  #01 //006   ----------------------------------------
 BYTE   W12
 BYTE   TIE  Fs1
 BYTE   W84
//  #01 //007   ----------------------------------------
 BYTE   W23
 BYTE   EOT
 BYTE   W01
 BYTE   N11
 BYTE   W12
 BYTE   Cs2
 BYTE   W12
 BYTE   N05  En2
 BYTE   W06
 BYTE   BEND   c_v-2
 BYTE   N17  Fs2
 BYTE   W01
 BYTE   BEND   c_v-1
 BYTE   W03
 BYTE   BEND   c_v+0
 BYTE   W14
 BYTE   N11  En2
 BYTE   W12
 BYTE   Dn2
 BYTE   W12
//  #01 //008   ----------------------------------------
 BYTE   Cs2
 BYTE   W12
Label_01003D9C:
 BYTE   N11  Bn1  v116
 BYTE   W12
 BYTE   Bn1
 BYTE   W12
 BYTE   Bn1
 BYTE   W12
 BYTE   Bn1
 BYTE   W12
 BYTE   Bn1
 BYTE   W12
 BYTE   Bn1
 BYTE   W12
 BYTE   Bn1
 BYTE   W12
//  #01 //009   ----------------------------------------
Label_01003DAC:
 BYTE   N11  Bn1  v116
 BYTE   W12
 BYTE   Bn1
 BYTE   W12
 BYTE   Bn1
 BYTE   W12
 BYTE   Bn1
 BYTE   W12
 BYTE   Bn1
 BYTE   W12
 BYTE   Bn1
 BYTE   W12
 BYTE   Bn1
 BYTE   W12
 BYTE   Bn1
 BYTE   W12
 BYTE   PEND 
//  #01 //010   ----------------------------------------
Label_01003DBF:
 BYTE   N11  Bn1  v116
 BYTE   W12
 BYTE   An1
 BYTE   W12
 BYTE   An1
 BYTE   W12
 BYTE   An1
 BYTE   W12
 BYTE   An1
 BYTE   W12
 BYTE   An1
 BYTE   W12
 BYTE   An1
 BYTE   W12
 BYTE   An1
 BYTE   W12
 BYTE   PEND 
//  #01 //011   ----------------------------------------
Label_01003DD2:
 BYTE   N11  An1  v116
 BYTE   W12
 BYTE   An1
 BYTE   W12
 BYTE   An1
 BYTE   W12
 BYTE   An1
 BYTE   W12
 BYTE   An1
 BYTE   W12
 BYTE   An1
 BYTE   W12
 BYTE   An1
 BYTE   W12
 BYTE   An1
 BYTE   W12
 BYTE   PEND 
//  #01 //012   ----------------------------------------
Label_01003DE5:
 BYTE   N11  An1  v116
 BYTE   W12
 BYTE   Gn1
 BYTE   W12
 BYTE   Gn1
 BYTE   W12
 BYTE   Gn1
 BYTE   W12
 BYTE   Gn1
 BYTE   W12
 BYTE   Gn1
 BYTE   W12
 BYTE   Gn1
 BYTE   W12
 BYTE   Gn1
 BYTE   W12
 BYTE   PEND 
//  #01 //013   ----------------------------------------
Label_01003DF8:
 BYTE   N11  Gn1  v116
 BYTE   W12
 BYTE   En1
 BYTE   W12
 BYTE   En1
 BYTE   W12
 BYTE   En1
 BYTE   W12
 BYTE   En1
 BYTE   W12
 BYTE   En1
 BYTE   W12
 BYTE   En1
 BYTE   W12
 BYTE   En1
 BYTE   W12
 BYTE   PEND 
//  #01 //014   ----------------------------------------
Label_01003E0B:
 BYTE   N11  En1  v116
 BYTE   W12
 BYTE   Fs1
 BYTE   W12
 BYTE   Fs1
 BYTE   W12
 BYTE   Fs1
 BYTE   W12
 BYTE   Fs1
 BYTE   W12
 BYTE   Fs1
 BYTE   W12
 BYTE   Fs1
 BYTE   W12
 BYTE   Fs1
 BYTE   W12
 BYTE   PEND 
//  #01 //015   ----------------------------------------
 BYTE   Fs1
 BYTE   W12
 BYTE   Fs1
 BYTE   W12
 BYTE   N05
 BYTE   W06
 BYTE   N17  En2
 BYTE   W01
 BYTE   BEND   c_v+1
 BYTE   W02
 BYTE   BEND   c_v+2
 BYTE   W15
 BYTE   BEND   c_v+0
 BYTE   N11  Cs2
 BYTE   W12
 BYTE   N17  An1
 BYTE   W01
 BYTE   BEND   c_v+1
 BYTE   W02
 BYTE   BEND   c_v+2
 BYTE   W15
 BYTE   BEND   c_v+0
 BYTE   N17  Fs1
 BYTE   W18
//  #01 //016   ----------------------------------------
 BYTE   PATT
  POIN2 Label_01003DAC
//  #01 //017   ----------------------------------------
 BYTE   PATT
  POIN2 Label_01003DAC
//  #01 //018   ----------------------------------------
 BYTE   PATT
  POIN2 Label_01003DBF
//  #01 //019   ----------------------------------------
 BYTE   PATT
  POIN2 Label_01003DD2
//  #01 //020   ----------------------------------------
 BYTE   PATT
  POIN2 Label_01003DE5
//  #01 //021   ----------------------------------------
 BYTE   PATT
  POIN2 Label_01003DF8
//  #01 //022   ----------------------------------------
 BYTE   PATT
  POIN2 Label_01003E0B
//  #01 //023   ----------------------------------------
 BYTE   N11  Fs1  v116
 BYTE   W12
 BYTE   Fs1
 BYTE   W12
 BYTE   Fs1
 BYTE   W12
 BYTE   En2
 BYTE   W01
 BYTE   BEND   c_v+1
 BYTE   W03
 BYTE   BEND   c_v+2
 BYTE   W08
 BYTE   BEND   c_v+0
 BYTE   N11  Cs2
 BYTE   W12
 BYTE   Bn2
 BYTE   W01
 BYTE   BEND   c_v+1
 BYTE   W03
 BYTE   BEND   c_v+2
 BYTE   W08
 BYTE   BEND   c_v+0
 BYTE   N11  Cs3
 BYTE   W12
 BYTE   Fs2
 BYTE   W12
//  #01 //024   ----------------------------------------
 BYTE   Cs2
 BYTE   W12
 BYTE   N17  En2
 BYTE   W18
 BYTE   Bn1
 BYTE   W18
 BYTE   N11  En2
 BYTE   W12
 BYTE   En2
 BYTE   W12
 BYTE   En2
 BYTE   W12
 BYTE   Bn1
 BYTE   W12
//  #01 //025   ----------------------------------------
Label_01003E8F:
 BYTE   N11  En2  v116
 BYTE   W12
 BYTE   N17  Dn2
 BYTE   W18
 BYTE   An1
 BYTE   W18
 BYTE   N11  Dn2
 BYTE   W12
 BYTE   Dn2
 BYTE   W12
 BYTE   Dn2
 BYTE   W12
 BYTE   An1
 BYTE   W12
 BYTE   PEND 
//  #01 //026   ----------------------------------------
Label_01003EA2:
 BYTE   N11  Dn2  v116
 BYTE   W12
 BYTE   N17  Cn2
 BYTE   W18
 BYTE   Gn1
 BYTE   W18
 BYTE   N11  Cn2
 BYTE   W12
 BYTE   Cn2
 BYTE   W12
 BYTE   Cn2
 BYTE   W12
 BYTE   Gn1
 BYTE   W12
 BYTE   PEND 
//  #01 //027   ----------------------------------------
 BYTE   Cn2
 BYTE   W12
 BYTE   N17  Dn2
 BYTE   W18
 BYTE   An1
 BYTE   W18
 BYTE   N11  Dn2
 BYTE   W12
 BYTE   N17
 BYTE   W18
 BYTE   En2
 BYTE   W18
//  #01 //028   ----------------------------------------
 BYTE   N11  Fs2
 BYTE   W12
 BYTE   N17  En2
 BYTE   W18
 BYTE   Bn1
 BYTE   W18
 BYTE   N11  En2
 BYTE   W12
 BYTE   En2
 BYTE   W12
 BYTE   En2
 BYTE   W12
 BYTE   Bn1
 BYTE   W12
//  #01 //029   ----------------------------------------
 BYTE   PATT
  POIN2 Label_01003E8F
//  #01 //030   ----------------------------------------
 BYTE   PATT
  POIN2 Label_01003EA2
//  #01 //031   ----------------------------------------
 BYTE   N11  Cn2  v116
 BYTE   W12
 BYTE   Bn1
 BYTE   W12
 BYTE   Bn1
 BYTE   W12
 BYTE   Bn2
 BYTE   W03
 BYTE   BEND   c_v+1
 BYTE   W09
 BYTE   BEND   c_v+0
 BYTE   N23
 BYTE   W24
 BYTE   N11  An2
 BYTE   W12
 BYTE   Fs2
 BYTE   W12
//  #01 //032   ----------------------------------------
 BYTE   Dn2
 BYTE   W12
 BYTE   N17  En2
 BYTE   W18
 BYTE   Bn1
 BYTE   W18
 BYTE   N11  En2
 BYTE   W12
 BYTE   En2
 BYTE   W12
 BYTE   En2
 BYTE   W12
 BYTE   Bn1
 BYTE   W12
//  #01 //033   ----------------------------------------
 BYTE   PATT
  POIN2 Label_01003E8F
//  #01 //034   ----------------------------------------
 BYTE   PATT
  POIN2 Label_01003EA2
//  #01 //035   ----------------------------------------
 BYTE   N11  Cn2  v116
 BYTE   W12
 BYTE   N17  Dn2
 BYTE   W18
 BYTE   N05
 BYTE   W06
 BYTE   N23  An1
 BYTE   W24
 BYTE   N17  Dn2
 BYTE   W18
 BYTE   Bn1
 BYTE   W18
//  #01 //036   ----------------------------------------
 BYTE   N11  Fs1
 BYTE   W12
 BYTE   N17  En1
 BYTE   W18
 BYTE   N05
 BYTE   W06
 BYTE   N11  Bn1
 BYTE   W12
 BYTE   En1
 BYTE   W12
 BYTE   En1
 BYTE   W12
 BYTE   En1
 BYTE   W12
 BYTE   Bn1
 BYTE   W12
//  #01 //037   ----------------------------------------
 BYTE   En1
 BYTE   W12
 BYTE   N17  Gn1
 BYTE   W18
 BYTE   N05
 BYTE   W06
 BYTE   N11  Dn2
 BYTE   W12
 BYTE   Gn1
 BYTE   W12
 BYTE   Gn1
 BYTE   W12
 BYTE   Gn1
 BYTE   W12
 BYTE   Dn2
 BYTE   W12
//  #01 //038   ----------------------------------------
 BYTE   Gn1
 BYTE   W12
 BYTE   N17  An1
 BYTE   W18
 BYTE   N05
 BYTE   W06
 BYTE   N11  En2
 BYTE   W12
 BYTE   An1
 BYTE   W12
 BYTE   An1
 BYTE   W12
 BYTE   Gn2
 BYTE   W12
 BYTE   En2
 BYTE   W12
//  #01 //039   ----------------------------------------
 BYTE   An1
 BYTE   W12
 BYTE   As1
 BYTE   W12
 BYTE   As1
 BYTE   W12
 BYTE   As1
 BYTE   W12
 BYTE   As1
 BYTE   W12
 BYTE   Fs1
 BYTE   W12
 BYTE   En2
 BYTE   W12
 BYTE   Cs2
 BYTE   W12
//  #01 //040   ----------------------------------------
 BYTE   Fs1
 BYTE   W12
 BYTE   Gn1
 BYTE   W12
 BYTE   N05
 BYTE   W06
 BYTE   Gn1
 BYTE   W06
 BYTE   N11
 BYTE   W12
 BYTE   N05
 BYTE   W06
 BYTE   Gn1
 BYTE   W06
 BYTE   N11
 BYTE   W12
 BYTE   N05
 BYTE   W06
 BYTE   Gn1
 BYTE   W06
 BYTE   N11
 BYTE   W12
//  #01 //041   ----------------------------------------
Label_01003F7B:
 BYTE   N05  Gn1  v116
 BYTE   W06
 BYTE   Gn1
 BYTE   W06
 BYTE   N11  An1
 BYTE   W12
 BYTE   N05
 BYTE   W06
 BYTE   An1
 BYTE   W06
 BYTE   N11
 BYTE   W12
 BYTE   N05
 BYTE   W06
 BYTE   An1
 BYTE   W06
 BYTE   N11
 BYTE   W12
 BYTE   N05
 BYTE   W06
 BYTE   An1
 BYTE   W06
 BYTE   N11
 BYTE   W12
 BYTE   PEND 
//  #01 //042   ----------------------------------------
Label_01003F97:
 BYTE   N05  An1  v116
 BYTE   W06
 BYTE   An1
 BYTE   W06
 BYTE   N11  Fs1
 BYTE   W12
 BYTE   N05
 BYTE   W06
 BYTE   Fs1
 BYTE   W06
 BYTE   N11
 BYTE   W12
 BYTE   N05
 BYTE   W06
 BYTE   Fs1
 BYTE   W06
 BYTE   N11
 BYTE   W12
 BYTE   N05
 BYTE   W06
 BYTE   Fs1
 BYTE   W06
 BYTE   N11
 BYTE   W12
 BYTE   PEND 
//  #01 //043   ----------------------------------------
Label_01003FB3:
 BYTE   N05  Fs1  v116
 BYTE   W06
 BYTE   Fs1
 BYTE   W06
 BYTE   N23  Gn1
 BYTE   W24
 BYTE   An1
 BYTE   W24
 BYTE   N11  Bn1
 BYTE   W12
 BYTE   An2
 BYTE   W12
 BYTE   Fs2
 BYTE   W12
 BYTE   PEND 
//  #01 //044   ----------------------------------------
Label_01003FC6:
 BYTE   N11  Bn1  v116
 BYTE   W12
 BYTE   En1
 BYTE   W12
 BYTE   N05
 BYTE   W06
 BYTE   En1
 BYTE   W06
 BYTE   N11
 BYTE   W12
 BYTE   N05
 BYTE   W06
 BYTE   En1
 BYTE   W06
 BYTE   N11
 BYTE   W12
 BYTE   N05
 BYTE   W06
 BYTE   En1
 BYTE   W06
 BYTE   N11
 BYTE   W12
 BYTE   PEND 
//  #01 //045   ----------------------------------------
Label_01003FDF:
 BYTE   N05  En1  v116
 BYTE   W06
 BYTE   En1
 BYTE   W06
 BYTE   N11  Fs1
 BYTE   W12
 BYTE   N05
 BYTE   W06
 BYTE   Fs1
 BYTE   W06
 BYTE   N11
 BYTE   W12
 BYTE   N05
 BYTE   W06
 BYTE   Fs1
 BYTE   W06
 BYTE   N11
 BYTE   W12
 BYTE   N05
 BYTE   W06
 BYTE   Fs1
 BYTE   W06
 BYTE   N11
 BYTE   W12
 BYTE   PEND 
//  #01 //046   ----------------------------------------
Label_01003FFB:
 BYTE   N05  Fs1  v116
 BYTE   W06
 BYTE   Fs1
 BYTE   W06
 BYTE   N11  Gn1
 BYTE   W12
 BYTE   N05
 BYTE   W06
 BYTE   Gn1
 BYTE   W06
 BYTE   N11
 BYTE   W12
 BYTE   N05
 BYTE   W06
 BYTE   Gn1
 BYTE   W06
 BYTE   N11
 BYTE   W12
 BYTE   N05
 BYTE   W06
 BYTE   Gn1
 BYTE   W06
 BYTE   N11
 BYTE   W12
 BYTE   PEND 
//  #01 //047   ----------------------------------------
Label_01004017:
 BYTE   N05  Gn1  v116
 BYTE   W06
 BYTE   Gn1
 BYTE   W06
 BYTE   N17  As1
 BYTE   W18
 BYTE   En2
 BYTE   W18
 BYTE   N11  As1
 BYTE   W12
 BYTE   Fs1
 BYTE   W12
 BYTE   Fs1
 BYTE   W12
 BYTE   As1
 BYTE   W12
 BYTE   PEND 
//  #01 //048   ----------------------------------------
 BYTE   As1
 BYTE   W12
 BYTE   Gn1
 BYTE   W12
 BYTE   N05
 BYTE   W06
 BYTE   Gn1
 BYTE   W06
 BYTE   N11
 BYTE   W12
 BYTE   N05
 BYTE   W06
 BYTE   Gn1
 BYTE   W06
 BYTE   N11
 BYTE   W12
 BYTE   N05
 BYTE   W06
 BYTE   Gn1
 BYTE   W06
 BYTE   N11
 BYTE   W12
//  #01 //049   ----------------------------------------
 BYTE   PATT
  POIN2 Label_01003F7B
//  #01 //050   ----------------------------------------
 BYTE   PATT
  POIN2 Label_01003F97
//  #01 //051   ----------------------------------------
 BYTE   PATT
  POIN2 Label_01003FB3
//  #01 //052   ----------------------------------------
 BYTE   PATT
  POIN2 Label_01003FC6
//  #01 //053   ----------------------------------------
 BYTE   PATT
  POIN2 Label_01003FDF
//  #01 //054   ----------------------------------------
 BYTE   PATT
  POIN2 Label_01003FFB
//  #01 //055   ----------------------------------------
 BYTE   PATT
  POIN2 Label_01004017
//  #01 //056   ----------------------------------------
 BYTE   N11  As1  v116
 BYTE   W12
 BYTE   Bn1
 BYTE   W12
 BYTE   Bn1
 BYTE   W12
 BYTE   Bn1
 BYTE   W12
 BYTE   Bn1
 BYTE   W12
 BYTE   Bn1
 BYTE   W12
 BYTE   Bn1
 BYTE   W12
 BYTE   Bn1
 BYTE   W12
//  #01 //057   ----------------------------------------
 BYTE   PATT
  POIN2 Label_01003DAC
//  #01 //058   ----------------------------------------
 BYTE   PATT
  POIN2 Label_01003DBF
//  #01 //059   ----------------------------------------
 BYTE   PATT
  POIN2 Label_01003DD2
//  #01 //060   ----------------------------------------
 BYTE   PATT
  POIN2 Label_01003DE5
//  #01 //061   ----------------------------------------
 BYTE   PATT
  POIN2 Label_01003DF8
//  #01 //062   ----------------------------------------
 BYTE   PATT
  POIN2 Label_01003E0B
//  #01 //063   ----------------------------------------
 BYTE   N11  Fs1  v116
 BYTE   W12
 BYTE   Fs1
 BYTE   W12
 BYTE   N05
 BYTE   W06
 BYTE   N17  En2
 BYTE   W01
 BYTE   BEND   c_v+1
 BYTE   W02
 BYTE   BEND   c_v+2
 BYTE   W15
 BYTE   BEND   c_v+0
 BYTE   N11  Cs2
 BYTE   W12
 BYTE   An1
 BYTE   W01
 BYTE   BEND   c_v+1
 BYTE   W02
 BYTE   BEND   c_v+2
 BYTE   W09
 BYTE   BEND   c_v+0
 BYTE   N11  Bn1
 BYTE   W12
 BYTE   Fs1
 BYTE   W12
//  #01 //064   ----------------------------------------
 BYTE   Bn1
 BYTE   W12
 BYTE   GoTo
  POIN2 Label_01003D9C
 BYTE   FINE

//**************** Track 2 (Midi-Chn.1) ****************//

Touhou123FaithisfortheTransientTak_002:
//  #02 //000   ----------------------------------------
 BYTE   KEYSH   Touhou123FaithisfortheTransientTak_key+0
 BYTE   VOICE   80
 BYTE   PAN   c_v+23
 BYTE   VOL   58*Touhou123FaithisfortheTransientTak_mvl/mxv
 BYTE   BENDR  12
 BYTE   W96
//  #02 //001   ----------------------------------------
 BYTE   W96
//  #02 //002   ----------------------------------------
 BYTE   W96
//  #02 //003   ----------------------------------------
 BYTE   W96
//  #02 //004   ----------------------------------------
 BYTE   W96
//  #02 //005   ----------------------------------------
 BYTE   W96
//  #02 //006   ----------------------------------------
 BYTE   W96
//  #02 //007   ----------------------------------------
 BYTE   W96
//  #02 //008   ----------------------------------------
 BYTE   W12
Label_01003037:
 BYTE   W84
//  #02 //009   ----------------------------------------
 BYTE   W96
//  #02 //010   ----------------------------------------
 BYTE   W96
//  #02 //011   ----------------------------------------
 BYTE   W96
//  #02 //012   ----------------------------------------
 BYTE   W96
//  #02 //013   ----------------------------------------
 BYTE   W96
//  #02 //014   ----------------------------------------
 BYTE   W96
//  #02 //015   ----------------------------------------
 BYTE   W96
//  #02 //016   ----------------------------------------
 BYTE   W96
//  #02 //017   ----------------------------------------
 BYTE   W96
//  #02 //018   ----------------------------------------
 BYTE   W96
//  #02 //019   ----------------------------------------
 BYTE   W96
//  #02 //020   ----------------------------------------
 BYTE   W96
//  #02 //021   ----------------------------------------
 BYTE   W96
//  #02 //022   ----------------------------------------
 BYTE   W96
//  #02 //023   ----------------------------------------
 BYTE   W96
//  #02 //024   ----------------------------------------
 BYTE   W96
//  #02 //025   ----------------------------------------
 BYTE   W96
//  #02 //026   ----------------------------------------
 BYTE   W96
//  #02 //027   ----------------------------------------
 BYTE   W96
//  #02 //028   ----------------------------------------
 BYTE   W96
//  #02 //029   ----------------------------------------
 BYTE   W96
//  #02 //030   ----------------------------------------
 BYTE   W96
//  #02 //031   ----------------------------------------
 BYTE   W96
//  #02 //032   ----------------------------------------
 BYTE   W96
//  #02 //033   ----------------------------------------
 BYTE   W96
//  #02 //034   ----------------------------------------
 BYTE   W96
//  #02 //035   ----------------------------------------
 BYTE   W96
//  #02 //036   ----------------------------------------
 BYTE   W96
//  #02 //037   ----------------------------------------
 BYTE   W96
//  #02 //038   ----------------------------------------
 BYTE   W96
//  #02 //039   ----------------------------------------
 BYTE   W60
 BYTE   N03  Dn4  v085
 BYTE   N03  Dn5  v047
 BYTE   W03
 BYTE   Ds5
 BYTE   N03  Ds4  v085
 BYTE   W03
 BYTE   En5  v047
 BYTE   N03  En4  v085
 BYTE   W03
 BYTE   Fs5  v047
 BYTE   N03  Fs4  v085
 BYTE   W03
 BYTE   Gs5  v047
 BYTE   N03  Gs4  v085
 BYTE   W03
 BYTE   As5  v047
 BYTE   N03  As4  v085
 BYTE   W03
 BYTE   Bn5  v047
 BYTE   N03  Bn4  v085
 BYTE   W03
 BYTE   Cs6  v047
 BYTE   N03  Cs5  v085
 BYTE   W03
 BYTE   Dn5
 BYTE   N03  Dn6  v047
 BYTE   W03
 BYTE   Ds6
 BYTE   N03  Ds5  v085
 BYTE   W03
 BYTE   En5
 BYTE   N03  En6  v047
 BYTE   W03
 BYTE   Fs6
 BYTE   N03  Fs5  v085
 BYTE   W03
//  #02 //040   ----------------------------------------
 BYTE   Gs5
 BYTE   N03  Gs6  v047
 BYTE   W03
 BYTE   As6
 BYTE   N03  As5  v085
 BYTE   W03
 BYTE   Bn5
 BYTE   N03  Bn6  v047
 BYTE   W03
 BYTE   Cs7
 BYTE   N03  Cs6  v085
 BYTE   W84
 BYTE   W03
//  #02 //041   ----------------------------------------
 BYTE   W96
//  #02 //042   ----------------------------------------
 BYTE   W96
//  #02 //043   ----------------------------------------
 BYTE   W96
//  #02 //044   ----------------------------------------
 BYTE   W96
//  #02 //045   ----------------------------------------
 BYTE   W96
//  #02 //046   ----------------------------------------
 BYTE   W96
//  #02 //047   ----------------------------------------
 BYTE   W96
//  #02 //048   ----------------------------------------
 BYTE   W96
//  #02 //049   ----------------------------------------
 BYTE   W96
//  #02 //050   ----------------------------------------
 BYTE   W96
//  #02 //051   ----------------------------------------
 BYTE   W96
//  #02 //052   ----------------------------------------
 BYTE   W96
//  #02 //053   ----------------------------------------
 BYTE   W96
//  #02 //054   ----------------------------------------
 BYTE   W96
//  #02 //055   ----------------------------------------
 BYTE   W96
//  #02 //056   ----------------------------------------
 BYTE   W96
//  #02 //057   ----------------------------------------
 BYTE   W96
//  #02 //058   ----------------------------------------
 BYTE   W96
//  #02 //059   ----------------------------------------
 BYTE   W96
//  #02 //060   ----------------------------------------
 BYTE   W96
//  #02 //061   ----------------------------------------
 BYTE   W96
//  #02 //062   ----------------------------------------
 BYTE   W96
//  #02 //063   ----------------------------------------
 BYTE   W96
//  #02 //064   ----------------------------------------
 BYTE   W12
 BYTE   GoTo
  POIN2 Label_01003037
 BYTE   FINE

//**************** Track 3 (Midi-Chn.2) ****************//

Touhou123FaithisfortheTransientTak_003:
//  #03 //000   ----------------------------------------
 BYTE   KEYSH   Touhou123FaithisfortheTransientTak_key+0
 BYTE   VOICE   30
 BYTE   PAN   c_v-39
 BYTE   VOL   78*Touhou123FaithisfortheTransientTak_mvl/mxv
 BYTE   BENDR  12
 BYTE   N05  Bn1  v085
 BYTE   W06
 BYTE   Bn1
 BYTE   W06
 BYTE   TIE
 BYTE   W84
//  #03 //001   ----------------------------------------
 BYTE   W92
 BYTE   W03
 BYTE   EOT
 BYTE   W01
//  #03 //002   ----------------------------------------
 BYTE   N05  An1
 BYTE   W06
 BYTE   An1
 BYTE   W06
 BYTE   TIE
 BYTE   W84
//  #03 //003   ----------------------------------------
 BYTE   W92
 BYTE   W03
 BYTE   EOT
 BYTE   W01
//  #03 //004   ----------------------------------------
 BYTE   N05  Gn1
 BYTE   W06
 BYTE   Gn1
 BYTE   W06
 BYTE   N92  Gn1  v085  gtp3
 BYTE   W84
//  #03 //005   ----------------------------------------
 BYTE   W12
 BYTE   En1
 BYTE   W84
//  #03 //006   ----------------------------------------
 BYTE   W12
 BYTE   TIE  Fs1
 BYTE   W84
//  #03 //007   ----------------------------------------
 BYTE   W96
//  #03 //008   ----------------------------------------
 BYTE   W11
 BYTE   EOT
 BYTE   W01
Label_0100410A:
 BYTE   N23  Bn1  v072
 BYTE   W36
 BYTE   Bn1
 BYTE   W36
 BYTE   N11
 BYTE   W12
//  #03 //009   ----------------------------------------
Label_01004112:
 BYTE   W12
 BYTE   N23  Bn1  v072
 BYTE   W36
 BYTE   Bn1
 BYTE   W36
 BYTE   N11
 BYTE   W12
 BYTE   PEND 
//  #03 //010   ----------------------------------------
Label_0100411C:
 BYTE   W12
 BYTE   N23  An1  v072
 BYTE   W36
 BYTE   An1
 BYTE   W24
 BYTE   N11
 BYTE   W12
 BYTE   An1
 BYTE   W12
 BYTE   PEND 
//  #03 //011   ----------------------------------------
Label_01004128:
 BYTE   W12
 BYTE   N23  An1  v072
 BYTE   W36
 BYTE   An1
 BYTE   W36
 BYTE   N11
 BYTE   W12
 BYTE   PEND 
//  #03 //012   ----------------------------------------
Label_01004132:
 BYTE   W12
 BYTE   N23  Gn1  v072
 BYTE   W36
 BYTE   Gn1
 BYTE   W36
 BYTE   N11
 BYTE   W12
 BYTE   PEND 
//  #03 //013   ----------------------------------------
Label_0100413C:
 BYTE   W12
 BYTE   N23  En1  v072
 BYTE   W36
 BYTE   En1
 BYTE   W36
 BYTE   N11
 BYTE   W12
 BYTE   PEND 
//  #03 //014   ----------------------------------------
Label_01004146:
 BYTE   W12
 BYTE   N23  Fs1  v072
 BYTE   W36
 BYTE   Fs1
 BYTE   W24
 BYTE   N11
 BYTE   W12
 BYTE   Fs1
 BYTE   W12
 BYTE   PEND 
//  #03 //015   ----------------------------------------
Label_01004152:
 BYTE   W12
 BYTE   N23  Fs1  v072
 BYTE   W36
 BYTE   Fs1
 BYTE   W36
 BYTE   N11
 BYTE   W12
 BYTE   PEND 
//  #03 //016   ----------------------------------------
 BYTE   PATT
  POIN2 Label_01004112
//  #03 //017   ----------------------------------------
 BYTE   PATT
  POIN2 Label_01004112
//  #03 //018   ----------------------------------------
 BYTE   PATT
  POIN2 Label_0100411C
//  #03 //019   ----------------------------------------
 BYTE   PATT
  POIN2 Label_01004128
//  #03 //020   ----------------------------------------
 BYTE   PATT
  POIN2 Label_01004132
//  #03 //021   ----------------------------------------
 BYTE   PATT
  POIN2 Label_0100413C
//  #03 //022   ----------------------------------------
 BYTE   PATT
  POIN2 Label_01004146
//  #03 //023   ----------------------------------------
 BYTE   PATT
  POIN2 Label_01004152
//  #03 //024   ----------------------------------------
Label_01004184:
 BYTE   W12
 BYTE   N23  En2  v072
 BYTE   W36
 BYTE   En2
 BYTE   W36
 BYTE   N11
 BYTE   W12
 BYTE   PEND 
//  #03 //025   ----------------------------------------
Label_0100418E:
 BYTE   W12
 BYTE   N23  Dn2  v072
 BYTE   W36
 BYTE   Dn2
 BYTE   W36
 BYTE   N11
 BYTE   W12
 BYTE   PEND 
//  #03 //026   ----------------------------------------
Label_01004198:
 BYTE   W12
 BYTE   N23  Cn2  v072
 BYTE   W36
 BYTE   Cn2
 BYTE   W36
 BYTE   N11
 BYTE   W12
 BYTE   PEND 
//  #03 //027   ----------------------------------------
 BYTE   PATT
  POIN2 Label_0100418E
//  #03 //028   ----------------------------------------
 BYTE   PATT
  POIN2 Label_01004184
//  #03 //029   ----------------------------------------
 BYTE   PATT
  POIN2 Label_0100418E
//  #03 //030   ----------------------------------------
 BYTE   PATT
  POIN2 Label_01004198
//  #03 //031   ----------------------------------------
 BYTE   PATT
  POIN2 Label_01004112
//  #03 //032   ----------------------------------------
 BYTE   PATT
  POIN2 Label_01004184
//  #03 //033   ----------------------------------------
 BYTE   PATT
  POIN2 Label_0100418E
//  #03 //034   ----------------------------------------
 BYTE   PATT
  POIN2 Label_01004198
//  #03 //035   ----------------------------------------
 BYTE   W12
 BYTE   N23  Dn1  v036
 BYTE   N23  Dn2  v085
 BYTE   W24
 BYTE   An0  v036
 BYTE   N23  An1  v085
 BYTE   W24
 BYTE   N17  Dn1  v036
 BYTE   N17  Dn2  v085
 BYTE   W18
 BYTE   An0  v036
 BYTE   N17  An1  v085
 BYTE   W18
//  #03 //036   ----------------------------------------
 BYTE   N11  Fs1
 BYTE   N11  Fs0  v036
 BYTE   W12
 BYTE   N23  En1  v072
 BYTE   W36
 BYTE   En1
 BYTE   W36
 BYTE   N11
 BYTE   W12
//  #03 //037   ----------------------------------------
 BYTE   PATT
  POIN2 Label_01004132
//  #03 //038   ----------------------------------------
 BYTE   PATT
  POIN2 Label_0100411C
//  #03 //039   ----------------------------------------
 BYTE   W12
 BYTE   N44  As1  v072  gtp3
 BYTE   W48
 BYTE   Fs1
 BYTE   W36
//  #03 //040   ----------------------------------------
 BYTE   W96
//  #03 //041   ----------------------------------------
 BYTE   W96
//  #03 //042   ----------------------------------------
 BYTE   W96
//  #03 //043   ----------------------------------------
Label_01004208:
 BYTE   W12
 BYTE   N23  Gn1  v085
 BYTE   W24
 BYTE   An1
 BYTE   W24
 BYTE   N44  Bn1  v085  gtp3
 BYTE   W36
 BYTE   PEND 
//  #03 //044   ----------------------------------------
 BYTE   W96
//  #03 //045   ----------------------------------------
 BYTE   W96
//  #03 //046   ----------------------------------------
 BYTE   W96
//  #03 //047   ----------------------------------------
 BYTE   W12
 BYTE   N17  En2
 BYTE   W18
 BYTE   N28  En2  v085  gtp1
 BYTE   W30
 BYTE   N23  Fs1
 BYTE   W24
 BYTE   Fs1
 BYTE   W12
//  #03 //048   ----------------------------------------
 BYTE   W96
//  #03 //049   ----------------------------------------
 BYTE   W96
//  #03 //050   ----------------------------------------
 BYTE   W96
//  #03 //051   ----------------------------------------
 BYTE   PATT
  POIN2 Label_01004208
//  #03 //052   ----------------------------------------
 BYTE   W96
//  #03 //053   ----------------------------------------
 BYTE   W96
//  #03 //054   ----------------------------------------
 BYTE   W96
//  #03 //055   ----------------------------------------
 BYTE   W12
 BYTE   N44  As1  v085  gtp3
 BYTE   W48
 BYTE   Fs1
 BYTE   W36
//  #03 //056   ----------------------------------------
 BYTE   PATT
  POIN2 Label_01004112
//  #03 //057   ----------------------------------------
 BYTE   PATT
  POIN2 Label_01004112
//  #03 //058   ----------------------------------------
 BYTE   PATT
  POIN2 Label_0100411C
//  #03 //059   ----------------------------------------
 BYTE   PATT
  POIN2 Label_01004128
//  #03 //060   ----------------------------------------
 BYTE   PATT
  POIN2 Label_01004132
//  #03 //061   ----------------------------------------
 BYTE   PATT
  POIN2 Label_0100413C
//  #03 //062   ----------------------------------------
 BYTE   PATT
  POIN2 Label_01004146
//  #03 //063   ----------------------------------------
 BYTE   PATT
  POIN2 Label_01004152
//  #03 //064   ----------------------------------------
 BYTE   W12
 BYTE   GoTo
  POIN2 Label_0100410A
 BYTE   FINE

//**************** Track 4 (Midi-Chn.3) ****************//

Touhou123FaithisfortheTransientTak_004:
//  #04 //000   ----------------------------------------
 BYTE   KEYSH   Touhou123FaithisfortheTransientTak_key+0
 BYTE   VOICE   18
 BYTE   PAN   c_v+26
 BYTE   VOL   56*Touhou123FaithisfortheTransientTak_mvl/mxv
 BYTE   BENDR  12
 BYTE   W12
 BYTE   N11  Bn4  v059
 BYTE   N11  Bn5  v085
 BYTE   W12
 BYTE   Fs4  v059
 BYTE   N11  Fs5  v085
 BYTE   W12
 BYTE   Cs5  v059
 BYTE   N11  Cs6  v085
 BYTE   W12
 BYTE   Fs4  v059
 BYTE   N11  Fs5  v085
 BYTE   W12
 BYTE   Dn5  v059
 BYTE   N11  Dn6  v085
 BYTE   W12
 BYTE   Fs4  v059
 BYTE   N11  Fs5  v085
 BYTE   W12
 BYTE   En5  v059
 BYTE   N11  En6  v085
 BYTE   W12
//  #04 //001   ----------------------------------------
Label_01025BC6:
 BYTE   N11  Fs4  v059
 BYTE   N11  Fs5  v085
 BYTE   W12
 BYTE   Bn4  v059
 BYTE   N11  Bn5  v085
 BYTE   W12
 BYTE   Fs4  v059
 BYTE   N11  Fs5  v085
 BYTE   W12
 BYTE   Cs5  v059
 BYTE   N11  Cs6  v085
 BYTE   W12
 BYTE   Fs4  v059
 BYTE   N11  Fs5  v085
 BYTE   W12
 BYTE   Dn5  v059
 BYTE   N11  Dn6  v085
 BYTE   W12
 BYTE   Fs4  v059
 BYTE   N11  Fs5  v085
 BYTE   W12
 BYTE   En5  v059
 BYTE   N11  En6  v085
 BYTE   W12
 BYTE   PEND 
//  #04 //002   ----------------------------------------
Label_01025BF8:
 BYTE   N11  Fs4  v059
 BYTE   N11  Fs5  v085
 BYTE   W12
 BYTE   An4  v059
 BYTE   N11  An5  v085
 BYTE   W12
 BYTE   En5
 BYTE   W12
 BYTE   Bn4  v059
 BYTE   N11  Bn5  v085
 BYTE   W12
 BYTE   En5
 BYTE   W12
 BYTE   Cs5  v059
 BYTE   N11  Cs6  v085
 BYTE   W12
 BYTE   En5
 BYTE   W12
 BYTE   Dn5  v059
 BYTE   N11  Dn6  v085
 BYTE   W12
 BYTE   PEND 
//  #04 //003   ----------------------------------------
Label_01025C1E:
 BYTE   N11  En5  v085
 BYTE   W12
 BYTE   An4  v059
 BYTE   N11  An5  v085
 BYTE   W12
 BYTE   En5
 BYTE   W12
 BYTE   Bn4  v059
 BYTE   N11  Bn5  v085
 BYTE   W12
 BYTE   En5
 BYTE   W12
 BYTE   Cs5  v059
 BYTE   N11  Cs6  v085
 BYTE   W12
 BYTE   En5
 BYTE   W12
 BYTE   Dn5  v059
 BYTE   N11  Dn6  v085
 BYTE   W12
 BYTE   PEND 
//  #04 //004   ----------------------------------------
Label_01025C41:
 BYTE   N11  En5  v085
 BYTE   W12
 BYTE   Gn4  v059
 BYTE   N11  Gn5  v085
 BYTE   W12
 BYTE   Dn5
 BYTE   W12
 BYTE   An4  v059
 BYTE   N11  An5  v085
 BYTE   W12
 BYTE   Dn5
 BYTE   W12
 BYTE   Bn4  v059
 BYTE   N11  Bn5  v085
 BYTE   W12
 BYTE   N05  Dn5
 BYTE   W06
 BYTE   N11  Gn4  v059
 BYTE   N11  Gn5  v085
 BYTE   W12
 BYTE   N05  Cs5
 BYTE   W06
 BYTE   PEND 
//  #04 //005   ----------------------------------------
Label_01025C69:
 BYTE   N11  Dn5  v085
 BYTE   W12
 BYTE   An4  v059
 BYTE   N11  An5  v085
 BYTE   W12
 BYTE   En5
 BYTE   W12
 BYTE   Bn4  v059
 BYTE   N11  Bn5  v085
 BYTE   W12
 BYTE   N05  En5
 BYTE   W06
 BYTE   N17  Cs5  v059
 BYTE   N17  Cs6  v085
 BYTE   W18
 BYTE   N11  En5
 BYTE   W12
 BYTE   An4  v059
 BYTE   N11  An5  v085
 BYTE   W12
 BYTE   PEND 
//  #04 //006   ----------------------------------------
Label_01025C8F:
 BYTE   N11  En5  v085
 BYTE   W12
 BYTE   As4  v059
 BYTE   N11  As5  v085
 BYTE   W12
 BYTE   Fs4  v059
 BYTE   N11  Fs5  v085
 BYTE   W12
 BYTE   Bn4  v059
 BYTE   N11  Bn5  v085
 BYTE   W12
 BYTE   Fs4  v059
 BYTE   N11  Fs5  v085
 BYTE   W12
 BYTE   Cs5  v059
 BYTE   N11  Cs6  v085
 BYTE   W12
 BYTE   N05  Fs4  v059
 BYTE   N05  Fs5  v085
 BYTE   W06
 BYTE   N11  En5  v059
 BYTE   N11  En6  v085
 BYTE   W12
 BYTE   N05  Cs5  v059
 BYTE   N05  Cs6  v085
 BYTE   W06
 BYTE   PEND 
//  #04 //007   ----------------------------------------
 BYTE   N11  Fs4  v059
 BYTE   N11  Fs5  v085
 BYTE   W12
 BYTE   Dn6
 BYTE   N11  Dn5  v059
 BYTE   W12
 BYTE   Dn5  v085
 BYTE   W12
 BYTE   Cs5  v059
 BYTE   N11  Cs6  v085
 BYTE   W12
 BYTE   Cs5
 BYTE   W12
 BYTE   N05  Bn4  v059
 BYTE   N05  Bn5  v085
 BYTE   W06
 BYTE   Cs5  v059
 BYTE   N05  Cs6  v085
 BYTE   W06
 BYTE   Bn4  v059
 BYTE   N05  Bn5  v085
 BYTE   W06
 BYTE   As4  v059
 BYTE   N05  As5  v085
 BYTE   W06
 BYTE   Fs4  v059
 BYTE   N05  Fs5  v085
 BYTE   W06
 BYTE   En5
 BYTE   W06
//  #04 //008   ----------------------------------------
 BYTE   Fs4  v059
 BYTE   N05  Fs5  v085
 BYTE   W06
 BYTE   As4  v059
 BYTE   N05  As5  v085
 BYTE   W06
Label_01025D0B:
 BYTE   N11  Bn4  v059
 BYTE   N11  Bn5  v085
 BYTE   W12
 BYTE   Fs4  v059
 BYTE   N11  Fs5  v085
 BYTE   W12
 BYTE   Cs5  v059
 BYTE   N11  Cs6  v085
 BYTE   W12
 BYTE   Fs4  v059
 BYTE   N11  Fs5  v085
 BYTE   W12
 BYTE   Dn5  v059
 BYTE   N11  Dn6  v085
 BYTE   W12
 BYTE   Fs4  v059
 BYTE   N11  Fs5  v085
 BYTE   W12
 BYTE   En5  v059
 BYTE   N11  En6  v085
 BYTE   W12
//  #04 //009   ----------------------------------------
 BYTE   PATT
  POIN2 Label_01025BC6
//  #04 //010   ----------------------------------------
 BYTE   PATT
  POIN2 Label_01025BF8
//  #04 //011   ----------------------------------------
 BYTE   PATT
  POIN2 Label_01025C1E
//  #04 //012   ----------------------------------------
 BYTE   PATT
  POIN2 Label_01025C41
//  #04 //013   ----------------------------------------
 BYTE   PATT
  POIN2 Label_01025C69
//  #04 //014   ----------------------------------------
 BYTE   PATT
  POIN2 Label_01025C8F
//  #04 //015   ----------------------------------------
 BYTE   N11  Fs4  v059
 BYTE   N11  Fs5  v085
 BYTE   W12
 BYTE   N23  Cs5  v059
 BYTE   N23  As4
 BYTE   N23  As5  v085
 BYTE   W24
 BYTE   Dn5  v059
 BYTE   N23  Bn4
 BYTE   N23  Bn5  v085
 BYTE   W24
 BYTE   N17  En5  v059
 BYTE   N17  Cs5
 BYTE   N17  Cs6  v085
 BYTE   W18
 BYTE   As4  v059
 BYTE   N17  Fs4
 BYTE   N17  Fs5  v085
 BYTE   W18
//  #04 //016   ----------------------------------------
 BYTE   N11  Cs5  v059
 BYTE   N11  As4
 BYTE   N11  As5  v085
 BYTE   W12
 BYTE   Bn4  v059
 BYTE   N11  Bn5  v085
 BYTE   W12
 BYTE   Fs4  v059
 BYTE   N11  Fs5  v085
 BYTE   W12
 BYTE   Cs5  v059
 BYTE   N11  Cs6  v085
 BYTE   W12
 BYTE   Fs4  v059
 BYTE   N11  Fs5  v085
 BYTE   W12
 BYTE   Dn5  v059
 BYTE   N11  Dn6  v085
 BYTE   W12
 BYTE   Fs4  v059
 BYTE   N11  Fs5  v085
 BYTE   W12
 BYTE   En5  v059
 BYTE   N11  En6  v085
 BYTE   W12
//  #04 //017   ----------------------------------------
 BYTE   PATT
  POIN2 Label_01025BC6
//  #04 //018   ----------------------------------------
 BYTE   PATT
  POIN2 Label_01025BF8
//  #04 //019   ----------------------------------------
 BYTE   PATT
  POIN2 Label_01025C1E
//  #04 //020   ----------------------------------------
 BYTE   PATT
  POIN2 Label_01025C41
//  #04 //021   ----------------------------------------
 BYTE   PATT
  POIN2 Label_01025C69
//  #04 //022   ----------------------------------------
 BYTE   PATT
  POIN2 Label_01025C8F
//  #04 //023   ----------------------------------------
 BYTE   N11  Fs4  v059
 BYTE   N11  Fs5  v085
 BYTE   W12
 BYTE   N23  Cs5  v059
 BYTE   N23  As4
 BYTE   N23  As5  v085
 BYTE   W24
 BYTE   Dn5  v059
 BYTE   N23  Bn4
 BYTE   N23  Bn5  v085
 BYTE   W24
 BYTE   N17  En5  v059
 BYTE   N17  Cs5
 BYTE   N17  Cs6  v085
 BYTE   W18
 BYTE   Fs5  v059
 BYTE   N17  Dn5
 BYTE   N17  Dn6  v085
 BYTE   W18
//  #04 //024   ----------------------------------------
 BYTE   N11  An5  v059
 BYTE   N11  Fs5
 BYTE   N11  Fs6  v085
 BYTE   W12
 BYTE   N44  Bn4  v059  gtp3
 BYTE   Gn4
 BYTE   N44  Gn5  v085  gtp3
 BYTE   W48
 BYTE   N17  Bn4  v059
 BYTE   N17  Gn4
 BYTE   N17  Gn5  v085
 BYTE   W18
 BYTE   Cs5  v059
 BYTE   N17  An4
 BYTE   N17  An5  v085
 BYTE   W18
//  #04 //025   ----------------------------------------
Label_01025E1B:
 BYTE   N11  Dn5  v059
 BYTE   N11  Bn4
 BYTE   N11  Bn5  v085
 BYTE   W12
 BYTE   N23  Bn4  v059
 BYTE   N23  Fs4
 BYTE   N23  Fs5  v085
 BYTE   W24
 BYTE   N11  Bn4  v059
 BYTE   N11  Gn4
 BYTE   N11  Gn5  v085
 BYTE   W12
 BYTE   N23  Bn4  v059
 BYTE   N23  Fs4
 BYTE   N23  Fs5  v085
 BYTE   W24
 BYTE   N11  Fs4  v059
 BYTE   N11  Dn5  v085
 BYTE   W12
 BYTE   N23  En4  v059
 BYTE   N23  Bn4  v085
 BYTE   W12
 BYTE   PEND 
//  #04 //026   ----------------------------------------
 BYTE   W12
 BYTE   N44  Gn4  v059  gtp3
 BYTE   En4
 BYTE   N44  En5  v085  gtp3
 BYTE   W48
 BYTE   N17  Gn4  v059
 BYTE   N17  En4
 BYTE   N17  En5  v085
 BYTE   W18
 BYTE   Bn4  v059
 BYTE   N17  Fs4
 BYTE   N17  Fs5  v085
 BYTE   W18
//  #04 //027   ----------------------------------------
 BYTE   N11  Bn4  v059
 BYTE   N11  Gn4
 BYTE   N11  Gn5  v085
 BYTE   W12
 BYTE   N23  Fs4  v059
 BYTE   N23  Dn5  v085
 BYTE   W24
 BYTE   Cs5  v059
 BYTE   N23  An4
 BYTE   N23  An5  v085
 BYTE   W24
 BYTE   N17  Bn4  v059
 BYTE   N17  Gn4
 BYTE   N17  Gn5  v085
 BYTE   W18
 BYTE   Bn4  v059
 BYTE   N17  Fs4
 BYTE   N17  Fs5  v085
 BYTE   W18
//  #04 //028   ----------------------------------------
 BYTE   N11  Bn4  v059
 BYTE   N11  Gn4
 BYTE   N11  Gn5  v085
 BYTE   W12
 BYTE   N44  Bn4  v059  gtp3
 BYTE   Gn4
 BYTE   N44  Gn5  v085  gtp3
 BYTE   W48
 BYTE   N17  Bn4  v059
 BYTE   N17  Gn4
 BYTE   N17  Gn5  v085
 BYTE   W18
 BYTE   Cs5  v059
 BYTE   N17  An4
 BYTE   N17  An5  v085
 BYTE   W18
//  #04 //029   ----------------------------------------
 BYTE   N11  Dn5  v059
 BYTE   N11  Bn4
 BYTE   N11  Bn5  v085
 BYTE   W12
 BYTE   N23  Cs5  v059
 BYTE   N23  An4
 BYTE   N23  An5  v085
 BYTE   W24
 BYTE   N11  Dn5  v059
 BYTE   N11  Bn4
 BYTE   N11  Bn5  v085
 BYTE   W12
 BYTE   N23  Cs5  v059
 BYTE   N23  An4
 BYTE   N23  An5  v085
 BYTE   W24
 BYTE   N11  Bn4  v059
 BYTE   N11  Gn4
 BYTE   N11  Gn5  v085
 BYTE   W12
 BYTE   Bn4  v059
 BYTE   N11  Fs4
 BYTE   N11  Fs5  v085
 BYTE   W12
//  #04 //030   ----------------------------------------
 BYTE   N23  Gn4  v059
 BYTE   N23  En4
 BYTE   N23  En5  v085
 BYTE   W24
 BYTE   N11  En4  v059
 BYTE   N11  Bn4  v085
 BYTE   W12
 BYTE   Dn5
 BYTE   W12
 BYTE   Gn4  v059
 BYTE   N11  En4
 BYTE   N11  En5  v085
 BYTE   W12
 BYTE   Bn4  v059
 BYTE   N11  Fs4
 BYTE   N11  Fs5  v085
 BYTE   W12
 BYTE   Bn4  v059
 BYTE   N11  Gn4
 BYTE   N11  Gn5  v085
 BYTE   W12
 BYTE   Cs5  v059
 BYTE   N11  An4
 BYTE   N11  An5  v085
 BYTE   W12
//  #04 //031   ----------------------------------------
 BYTE   Bn4  v059
 BYTE   N11  Fs4
 BYTE   N11  Fs5  v085
 BYTE   W12
 BYTE   N32  Gn4  v059  gtp3
 BYTE   En4
 BYTE   N32  En5  v085  gtp3
 BYTE   W36
 BYTE   N23  Fs4  v059
 BYTE   N23  Ds4
 BYTE   N23  Ds5  v085
 BYTE   W24
 BYTE   N11  Fs4  v059
 BYTE   N11  Ds4
 BYTE   N11  Ds5  v085
 BYTE   W12
 BYTE   Gn4  v059
 BYTE   N11  En4
 BYTE   N11  En5  v085
 BYTE   W12
//  #04 //032   ----------------------------------------
 BYTE   Bn4  v059
 BYTE   N11  Fs4
 BYTE   N11  Fs5  v085
 BYTE   W12
 BYTE   N44  Bn4  v059  gtp3
 BYTE   Gn4
 BYTE   N44  Gn5  v085  gtp3
 BYTE   W48
 BYTE   N17  Bn4  v059
 BYTE   N17  Gn4
 BYTE   N17  Gn5  v085
 BYTE   W18
 BYTE   Cs5  v059
 BYTE   N17  An4
 BYTE   N17  An5  v085
 BYTE   W18
//  #04 //033   ----------------------------------------
 BYTE   PATT
  POIN2 Label_01025E1B
//  #04 //034   ----------------------------------------
 BYTE   W12
 BYTE   N44  Gn4  v059  gtp3
 BYTE   En4
 BYTE   N44  En5  v085  gtp3
 BYTE   W48
 BYTE   N17
 BYTE   N17  En4  v059
 BYTE   N17  Gn4
 BYTE   W18
 BYTE   Fs5  v085
 BYTE   N17  Fs4  v059
 BYTE   N17  Bn4
 BYTE   W18
//  #04 //035   ----------------------------------------
 BYTE   N11
 BYTE   N11  Gn4
 BYTE   N11  Gn5  v085
 BYTE   W12
 BYTE   N23  Dn5
 BYTE   N23  Fs4  v059
 BYTE   W24
 BYTE   An5  v085
 BYTE   N23  An4  v059
 BYTE   N23  Cs5
 BYTE   W24
 BYTE   N17  Bn4
 BYTE   N17  Gn4
 BYTE   N17  Gn5  v085
 BYTE   W18
 BYTE   Bn4  v059
 BYTE   N17  Fs4
 BYTE   N17  Fs5  v085
 BYTE   W18
//  #04 //036   ----------------------------------------
 BYTE   N11  Gn5
 BYTE   N11  Gn4  v059
 BYTE   N11  Bn4
 BYTE   W12
 BYTE   N44  Bn4  v059  gtp3
 BYTE   Gn4
 BYTE   N44  Gn5  v085  gtp3
 BYTE   W48
 BYTE   N17  Bn4  v059
 BYTE   N17  Gn4
 BYTE   N17  Gn5  v085
 BYTE   W18
 BYTE   Cs5  v059
 BYTE   N17  An4
 BYTE   N17  An5  v085
 BYTE   W18
//  #04 //037   ----------------------------------------
 BYTE   N11  Dn5  v059
 BYTE   N11  Bn4
 BYTE   N11  Bn5  v085
 BYTE   W12
 BYTE   N44  Dn5  v059  gtp3
 BYTE   Bn4
 BYTE   N44  Bn5  v085  gtp3
 BYTE   W48
 BYTE   N17  Dn5  v059
 BYTE   N17  Bn4
 BYTE   N17  Bn5  v085
 BYTE   W18
 BYTE   En5  v059
 BYTE   N17  Cs5
 BYTE   N17  Cs6  v085
 BYTE   W18
//  #04 //038   ----------------------------------------
 BYTE   N11  Fs5  v059
 BYTE   N11  Dn5
 BYTE   N11  Dn6  v085
 BYTE   W12
 BYTE   N23  Fs5  v059
 BYTE   N23  Dn5
 BYTE   N23  Dn6  v085
 BYTE   W24
 BYTE   En5  v059
 BYTE   N23  Cs5
 BYTE   N23  Cs6  v085
 BYTE   W24
 BYTE   Dn5  v059
 BYTE   N23  Bn4
 BYTE   N23  Bn5  v085
 BYTE   W24
 BYTE   Fs5  v059
 BYTE   N23  Dn5
 BYTE   N23  Dn6  v085
 BYTE   W12
//  #04 //039   ----------------------------------------
 BYTE   W12
 BYTE   N44  As5  v059  gtp3
 BYTE   En5
 BYTE   N44  En6  v085  gtp3
 BYTE   W48
 BYTE   Fs6
 BYTE   N44  Fs5  v059  gtp3
 BYTE   As5
 BYTE   W36
//  #04 //040   ----------------------------------------
 BYTE   W12
 BYTE   Bn4  v085
 BYTE   N44  Dn5  v085  gtp3
 BYTE   Fs5
 BYTE   W48
 BYTE   Fs5
 BYTE   N44  Bn5  v085  gtp3
 BYTE   Dn6
 BYTE   W36
//  #04 //041   ----------------------------------------
 BYTE   W12
 BYTE   N23  En5
 BYTE   N23  An5
 BYTE   N23  Cs6
 BYTE   W24
 BYTE   Cs5
 BYTE   N23  En5
 BYTE   N23  An5
 BYTE   W24
 BYTE   N44  Cs5  v085  gtp3
 BYTE   En5
 BYTE   W36
//  #04 //042   ----------------------------------------
Label_01026058:
 BYTE   W12
 BYTE   N44  Cs5  v085  gtp3
 BYTE   Fs5
 BYTE   W48
 BYTE   N32  An5  v085  gtp3
 BYTE   Cs6
 BYTE   N32  En6  v085  gtp3
 BYTE   W36
 BYTE   PEND 
//  #04 //043   ----------------------------------------
 BYTE   N05  Gn5
 BYTE   N05  Bn5
 BYTE   N05  Dn6
 BYTE   W06
 BYTE   An5
 BYTE   N05  Cs6
 BYTE   N05  En6
 BYTE   W06
 BYTE   N23  Gn5
 BYTE   N23  Bn5
 BYTE   N23  Dn6
 BYTE   W24
 BYTE   En5
 BYTE   N23  An5
 BYTE   N23  Cs6
 BYTE   W24
 BYTE   N44  Bn4  v047  gtp3
 BYTE   Fs5  v085
 BYTE   N44  Bn5  v085  gtp3
 BYTE   W36
//  #04 //044   ----------------------------------------
Label_0102608F:
 BYTE   W12
 BYTE   N44  En5  v085  gtp3
 BYTE   Gn5
 BYTE   N44  Bn5  v085  gtp3
 BYTE   W48
 BYTE   Bn5
 BYTE   N44  Dn6  v085  gtp3
 BYTE   Fs6
 BYTE   W36
 BYTE   PEND 
//  #04 //045   ----------------------------------------
Label_010260A2:
 BYTE   W12
 BYTE   N23  As5  v085
 BYTE   N23  Cs6
 BYTE   N23  En6
 BYTE   W24
 BYTE   As5
 BYTE   N23  Cs6
 BYTE   N23  Fs6
 BYTE   W24
 BYTE   Cs6
 BYTE   N23  Fs6
 BYTE   N23  An6
 BYTE   W24
 BYTE   N11  Fs5
 BYTE   N11  As5
 BYTE   N11  Cs6
 BYTE   W12
 BYTE   PEND 
//  #04 //046   ----------------------------------------
Label_010260BF:
 BYTE   N32  Gn5  v085  gtp3
 BYTE   Bn5
 BYTE   N32  Dn6  v085  gtp3
 BYTE   W36
 BYTE   N23  Gn5
 BYTE   N23  Bn5
 BYTE   N23  En6
 BYTE   W24
 BYTE   Bn5
 BYTE   N23  Dn6
 BYTE   N23  Fs6
 BYTE   W24
 BYTE   Dn6
 BYTE   N23  Fs6
 BYTE   N23  An6
 BYTE   W12
 BYTE   PEND 
//  #04 //047   ----------------------------------------
 BYTE   W12
 BYTE   N32  Fs5  v085  gtp3
 BYTE   As5
 BYTE   N32  Dn6  v085  gtp3
 BYTE   W36
 BYTE   N05  Fs5
 BYTE   N05  As5
 BYTE   N05  Dn6
 BYTE   W06
 BYTE   Fs5
 BYTE   N05  As5
 BYTE   N05  En6
 BYTE   W06
 BYTE   N23  Fs5
 BYTE   N23  As5
 BYTE   N23  Dn6
 BYTE   W24
 BYTE   Fs5
 BYTE   N23  As5
 BYTE   N23  Cs6
 BYTE   W12
//  #04 //048   ----------------------------------------
 BYTE   W12
 BYTE   N44  Bn4  v085  gtp3
 BYTE   Dn5
 BYTE   N44  Fs5  v085  gtp3
 BYTE   W48
 BYTE   N32  Fs5  v085  gtp3
 BYTE   Bn5
 BYTE   N32  Dn6  v085  gtp3
 BYTE   W36
//  #04 //049   ----------------------------------------
 BYTE   N05  Fs5
 BYTE   N05  Bn5
 BYTE   N05  Cs6
 BYTE   W06
 BYTE   Fs5
 BYTE   N05  Bn5
 BYTE   N05  Dn6
 BYTE   W06
 BYTE   N23  En5
 BYTE   N23  An5
 BYTE   N23  Cs6
 BYTE   W24
 BYTE   Cs5
 BYTE   N23  En5
 BYTE   N23  An5
 BYTE   W24
 BYTE   N05  Cs5
 BYTE   N05  En5
 BYTE   N05  An5
 BYTE   W06
 BYTE   Cs5
 BYTE   N05  En5
 BYTE   N05  Bn5
 BYTE   W06
 BYTE   N11  Cs5
 BYTE   N11  En5
 BYTE   N11  An5
 BYTE   W12
 BYTE   N23  Cs5
 BYTE   N23  En5
 BYTE   W12
//  #04 //050   ----------------------------------------
 BYTE   PATT
  POIN2 Label_01026058
//  #04 //051   ----------------------------------------
 BYTE   N05  Gn5  v085
 BYTE   N05  Bn5
 BYTE   N05  Dn6
 BYTE   W06
 BYTE   An5
 BYTE   N05  Cs6
 BYTE   N05  En6
 BYTE   W06
 BYTE   N23  Gn5
 BYTE   N23  Bn5
 BYTE   N23  Dn6
 BYTE   W24
 BYTE   En5
 BYTE   N23  An5
 BYTE   N23  Cs6
 BYTE   W24
 BYTE   N44  Dn5  v085  gtp3
 BYTE   Fs5
 BYTE   N44  Bn5  v085  gtp3
 BYTE   W36
//  #04 //052   ----------------------------------------
 BYTE   PATT
  POIN2 Label_0102608F
//  #04 //053   ----------------------------------------
 BYTE   PATT
  POIN2 Label_010260A2
//  #04 //054   ----------------------------------------
 BYTE   PATT
  POIN2 Label_010260BF
//  #04 //055   ----------------------------------------
 BYTE   W12
 BYTE   N17  Cs6  v085
 BYTE   N17  Fs6
 BYTE   N17  As6
 BYTE   W18
 BYTE   Fs4  v047
 BYTE   N17  Fs5  v085
 BYTE   N17  As5
 BYTE   N17  Cs6
 BYTE   W18
 BYTE   N11  As5
 BYTE   N11  Cs6
 BYTE   N11  En6
 BYTE   W12
 BYTE   Fs4  v047
 BYTE   N11  Fs5  v085
 BYTE   N11  As5
 BYTE   N11  Dn6
 BYTE   W12
 BYTE   Fs4  v047
 BYTE   N11  Fs5  v085
 BYTE   N11  As5
 BYTE   N11  Cs6
 BYTE   W12
 BYTE   Fs4  v047
 BYTE   N11  Fs5  v085
 BYTE   N11  As5
 BYTE   N11  Bn5
 BYTE   W12
//  #04 //056   ----------------------------------------
 BYTE   Fs4  v047
 BYTE   N11  Fs5  v085
 BYTE   N11  As5
 BYTE   W12
 BYTE   Bn5
 BYTE   W12
 BYTE   Fs4  v059
 BYTE   N11  Fs5  v085
 BYTE   W12
 BYTE   Cs5  v059
 BYTE   N11  Cs6  v085
 BYTE   W12
 BYTE   Fs4  v059
 BYTE   N11  Fs5  v085
 BYTE   W12
 BYTE   Dn5  v059
 BYTE   N11  Dn6  v085
 BYTE   W12
 BYTE   Fs4  v059
 BYTE   N11  Fs5  v085
 BYTE   W12
 BYTE   En5  v059
 BYTE   N11  En6  v085
 BYTE   W12
//  #04 //057   ----------------------------------------
 BYTE   PATT
  POIN2 Label_01025BC6
//  #04 //058   ----------------------------------------
 BYTE   PATT
  POIN2 Label_01025BF8
//  #04 //059   ----------------------------------------
 BYTE   PATT
  POIN2 Label_01025C1E
//  #04 //060   ----------------------------------------
 BYTE   PATT
  POIN2 Label_01025C41
//  #04 //061   ----------------------------------------
 BYTE   PATT
  POIN2 Label_01025C69
//  #04 //062   ----------------------------------------
 BYTE   PATT
  POIN2 Label_01025C8F
//  #04 //063   ----------------------------------------
 BYTE   N11  Fs4  v059
 BYTE   N11  Fs5  v085
 BYTE   W12
 BYTE   Dn5  v059
 BYTE   N11  Dn6  v085
 BYTE   W12
 BYTE   Dn5
 BYTE   W12
 BYTE   Cs5  v059
 BYTE   N11  Cs6  v085
 BYTE   W12
 BYTE   Cs5
 BYTE   W12
 BYTE   N05  Bn4  v059
 BYTE   N05  Bn5  v085
 BYTE   W06
 BYTE   Cs5  v059
 BYTE   N05  Cs6  v085
 BYTE   W06
 BYTE   Bn4  v059
 BYTE   N05  Bn5  v085
 BYTE   W06
 BYTE   As4  v059
 BYTE   N05  As5  v085
 BYTE   W06
 BYTE   Fs4  v059
 BYTE   N05  Fs5  v085
 BYTE   W06
 BYTE   En5
 BYTE   W06
//  #04 //064   ----------------------------------------
 BYTE   Fs4  v059
 BYTE   N05  Fs5  v085
 BYTE   W06
 BYTE   As4  v059
 BYTE   N05  As5  v085
 BYTE   W06
 BYTE   GoTo
  POIN2 Label_01025D0B
 BYTE   FINE

//**************** Track 5 (Midi-Chn.4) ****************//

Touhou123FaithisfortheTransientTak_005:
//  #05 //000   ----------------------------------------
 BYTE   KEYSH   Touhou123FaithisfortheTransientTak_key+0
 BYTE   VOICE   124
 BYTE   VOL   78*Touhou123FaithisfortheTransientTak_mvl/mxv
 BYTE   BENDR  12
 BYTE   N05  Bn1  v059
 BYTE   W06
 BYTE   Bn1
 BYTE   W06
 BYTE   N78  An2  v127  gtp1
 BYTE   N05  Cn1  v085
 BYTE   N05  Fs1
 BYTE   N05  Bn1  v059
 BYTE   W06
 BYTE   Fs1  v011
 BYTE   W06
 BYTE   Fs1  v047
 BYTE   W06
 BYTE   Fs1  v059
 BYTE   W06
 BYTE   Cn1  v085
 BYTE   N05  Fs1
 BYTE   W06
 BYTE   Fs1  v011
 BYTE   W06
 BYTE   Fs1  v047
 BYTE   W06
 BYTE   Fs1  v059
 BYTE   W06
 BYTE   Cn1  v085
 BYTE   N05  Fs1
 BYTE   W06
 BYTE   Fs1  v011
 BYTE   W06
 BYTE   Fs1  v047
 BYTE   W06
 BYTE   Fs1  v059
 BYTE   W06
 BYTE   Cn1  v085
 BYTE   N05  Fs1
 BYTE   W06
 BYTE   Fs1  v011
 BYTE   W06
//  #05 //001   ----------------------------------------
Label_0102629C:
 BYTE   N05  Fs1  v047
 BYTE   W06
 BYTE   Fs1  v059
 BYTE   W06
 BYTE   Cn1  v085
 BYTE   N05  Fs1
 BYTE   W06
 BYTE   Fs1  v011
 BYTE   W06
 BYTE   Fs1  v047
 BYTE   W06
 BYTE   Fs1  v059
 BYTE   W06
 BYTE   Cn1  v085
 BYTE   N05  Fs1
 BYTE   W06
 BYTE   Fs1  v011
 BYTE   W06
 BYTE   Fs1  v047
 BYTE   W06
 BYTE   Fs1  v059
 BYTE   W06
 BYTE   Cn1  v085
 BYTE   N05  Fs1
 BYTE   W06
 BYTE   Fs1  v011
 BYTE   W06
 BYTE   Fs1  v047
 BYTE   W06
 BYTE   Fs1  v059
 BYTE   W06
 BYTE   Cn1  v085
 BYTE   N05  Fs1
 BYTE   W06
 BYTE   Fs1  v011
 BYTE   W06
 BYTE   PEND 
//  #05 //002   ----------------------------------------
 BYTE   An1  v059
 BYTE   N05  Fs1  v047
 BYTE   W06
 BYTE   An1  v059
 BYTE   N05  Fs1
 BYTE   W06
 BYTE   N78  An2  v127  gtp1
 BYTE   N05  Cn1  v085
 BYTE   N05  Fs1
 BYTE   N05  An1  v059
 BYTE   W06
 BYTE   Fs1  v011
 BYTE   W06
 BYTE   Fs1  v047
 BYTE   W06
 BYTE   Fs1  v059
 BYTE   W06
 BYTE   Cn1  v085
 BYTE   N05  Fs1
 BYTE   W06
 BYTE   Fs1  v011
 BYTE   W06
 BYTE   Fs1  v047
 BYTE   W06
 BYTE   Fs1  v059
 BYTE   W06
 BYTE   Cn1  v085
 BYTE   N05  Fs1
 BYTE   W06
 BYTE   Fs1  v011
 BYTE   W06
 BYTE   Fs1  v047
 BYTE   W06
 BYTE   Fs1  v059
 BYTE   W06
 BYTE   Cn1  v085
 BYTE   N05  Fs1
 BYTE   W06
 BYTE   Fs1  v011
 BYTE   W06
//  #05 //003   ----------------------------------------
 BYTE   PATT
  POIN2 Label_0102629C
//  #05 //004   ----------------------------------------
 BYTE   N05  Gn1  v059
 BYTE   N05  Fs1  v047
 BYTE   W06
 BYTE   Gn1  v059
 BYTE   N05  Fs1
 BYTE   W06
 BYTE   N78  An2  v127  gtp1
 BYTE   N05  Fs1  v085
 BYTE   N05  Cn1
 BYTE   N05  Gn1  v059
 BYTE   W06
 BYTE   Fs1  v011
 BYTE   W06
 BYTE   Fs1  v047
 BYTE   W06
 BYTE   Fs1  v059
 BYTE   W06
 BYTE   Fs1  v085
 BYTE   N05  Cn1
 BYTE   W06
 BYTE   Fs1  v011
 BYTE   W06
 BYTE   Fs1  v047
 BYTE   W06
 BYTE   Fs1  v059
 BYTE   W06
 BYTE   Fs1  v085
 BYTE   N05  Cn1
 BYTE   W06
 BYTE   Fs1  v011
 BYTE   W06
 BYTE   Fs1  v047
 BYTE   W06
 BYTE   Fs1  v059
 BYTE   W06
 BYTE   Fs1  v085
 BYTE   N05  Cn1
 BYTE   W06
 BYTE   Fs1  v011
 BYTE   W06
//  #05 //005   ----------------------------------------
 BYTE   Fs1  v047
 BYTE   W06
 BYTE   Fs1  v059
 BYTE   W06
 BYTE   N78  An2  v127  gtp1
 BYTE   N05  Fn1  v059
 BYTE   N05  Fs1  v085
 BYTE   N05  Cn1
 BYTE   W06
 BYTE   Fs1  v011
 BYTE   W06
 BYTE   Fs1  v047
 BYTE   W06
 BYTE   Fs1  v059
 BYTE   W06
 BYTE   Fs1  v085
 BYTE   N05  Cn1
 BYTE   W06
 BYTE   Fs1  v011
 BYTE   W06
 BYTE   Fs1  v047
 BYTE   W06
 BYTE   Fs1  v059
 BYTE   W06
 BYTE   Fs1  v085
 BYTE   N05  Cn1
 BYTE   W06
 BYTE   Fs1  v011
 BYTE   W06
 BYTE   Fs1  v047
 BYTE   W06
 BYTE   Fs1  v059
 BYTE   W06
 BYTE   Fs1  v085
 BYTE   N05  Cn1
 BYTE   W06
 BYTE   Fs1  v011
 BYTE   W06
//  #05 //006   ----------------------------------------
 BYTE   Gn1  v059
 BYTE   N05  Fs1  v047
 BYTE   W06
 BYTE   Gn1  v059
 BYTE   N05  Fs1
 BYTE   W06
 BYTE   N78  An2  v127  gtp1
 BYTE   N05  An1  v059
 BYTE   N05  Fs1  v085
 BYTE   N05  Cn1
 BYTE   W06
 BYTE   Fs1  v011
 BYTE   W06
 BYTE   Fs1  v047
 BYTE   W06
 BYTE   Fs1  v059
 BYTE   W06
 BYTE   Cn1  v085
 BYTE   N05  Fs1
 BYTE   W06
 BYTE   Fs1  v011
 BYTE   W06
 BYTE   Fs1  v047
 BYTE   W06
 BYTE   Fs1  v059
 BYTE   W06
 BYTE   Cn1  v085
 BYTE   N05  Fs1
 BYTE   W06
 BYTE   Fs1  v011
 BYTE   W06
 BYTE   Fs1  v047
 BYTE   W06
 BYTE   Fs1  v059
 BYTE   W06
 BYTE   Cn1  v085
 BYTE   N05  Fs1
 BYTE   W06
 BYTE   Fs1  v011
 BYTE   W06
//  #05 //007   ----------------------------------------
 BYTE   Fs1  v047
 BYTE   W06
 BYTE   TIE  En2  v091
 BYTE   N05  Fs1  v059
 BYTE   W06
 BYTE   En1  v036
 BYTE   N05  Fs1  v085
 BYTE   N05  Cn1
 BYTE   W06
 BYTE   Fs1  v011
 BYTE   N05  En1  v047
 BYTE   W06
 BYTE   Fs1
 BYTE   N05  En1  v059
 BYTE   W06
 BYTE   Fs1
 BYTE   W06
 BYTE   En1
 BYTE   N05  Fs1  v085
 BYTE   N05  Cn1
 BYTE   W06
 BYTE   En1  v036
 BYTE   N05  Fs1  v011
 BYTE   W06
 BYTE   En1  v036
 BYTE   N05  Fs1  v047
 BYTE   W06
 BYTE   Fs1  v059
 BYTE   W06
 BYTE   En1
 BYTE   N05  Cn1  v085
 BYTE   N05  Fs1
 BYTE   W06
 BYTE   En1  v047
 BYTE   N05  Fs1  v011
 BYTE   W06
 BYTE   En1  v036
 BYTE   N05  Fs1  v047
 BYTE   W06
 BYTE   Fs1  v059
 BYTE   W06
 BYTE   En1
 BYTE   N05  Cn1  v085
 BYTE   N05  Fs1
 BYTE   W06
 BYTE   En1  v036
 BYTE   N05  Fs1  v011
 BYTE   W06
//  #05 //008   ----------------------------------------
 BYTE   En1  v047
 BYTE   N05  Fs1
 BYTE   W06
 BYTE   En1  v059
 BYTE   N05  Fs1
 BYTE   W06
 BYTE   EOT
 BYTE   En2
Label_0102644F:
 BYTE   N78  An2  v127  gtp1
 BYTE   N05  Fs1  v085
 BYTE   N05  Cn1
 BYTE   W06
 BYTE   Fs1  v011
 BYTE   W06
 BYTE   Fs1  v047
 BYTE   N05  Cn1
 BYTE   W06
 BYTE   Fs1  v059
 BYTE   N05  Cn1  v036
 BYTE   W06
 BYTE   Fs1  v085
 BYTE   N05  En1
 BYTE   W06
 BYTE   Fs1  v011
 BYTE   W06
 BYTE   Fs1  v047
 BYTE   N05  Cn1  v036
 BYTE   W06
 BYTE   Fs1  v059
 BYTE   N05  Cn1  v036
 BYTE   W06
 BYTE   Fs1  v085
 BYTE   N05  Cn1
 BYTE   W06
 BYTE   Fs1  v011
 BYTE   W06
 BYTE   Fs1  v047
 BYTE   N05  Cn1  v072
 BYTE   W06
 BYTE   Fs1  v059
 BYTE   N05  Cn1  v036
 BYTE   W06
 BYTE   Fs1  v085
 BYTE   N05  En1
 BYTE   W06
 BYTE   Fs1  v011
 BYTE   W06
//  #05 //009   ----------------------------------------
Label_01026497:
 BYTE   N05  Fs1  v047
 BYTE   N05  Cn1  v036
 BYTE   W06
 BYTE   Fs1  v059
 BYTE   W06
 BYTE   Fs1  v085
 BYTE   N05  Cn1
 BYTE   W06
 BYTE   Fs1  v011
 BYTE   W06
 BYTE   Fs1  v047
 BYTE   N05  Cn1
 BYTE   W06
 BYTE   Fs1  v059
 BYTE   N05  Cn1  v036
 BYTE   W06
 BYTE   Fs1  v085
 BYTE   N05  En1
 BYTE   W06
 BYTE   Fs1  v011
 BYTE   W06
 BYTE   Fs1  v047
 BYTE   N05  Cn1  v036
 BYTE   W06
 BYTE   Fs1  v059
 BYTE   N05  Cn1  v036
 BYTE   W06
 BYTE   Fs1  v085
 BYTE   N05  Cn1
 BYTE   W06
 BYTE   Fs1  v011
 BYTE   W06
 BYTE   Fs1  v047
 BYTE   N05  Cn1  v072
 BYTE   W06
 BYTE   Fs1  v059
 BYTE   N05  Cn1  v036
 BYTE   W06
 BYTE   Fs1  v085
 BYTE   N05  En1
 BYTE   W06
 BYTE   Fs1  v011
 BYTE   W06
 BYTE   PEND 
//  #05 //010   ----------------------------------------
 BYTE   PATT
  POIN2 Label_01026497
//  #05 //011   ----------------------------------------
 BYTE   PATT
  POIN2 Label_01026497
//  #05 //012   ----------------------------------------
 BYTE   PATT
  POIN2 Label_01026497
//  #05 //013   ----------------------------------------
 BYTE   PATT
  POIN2 Label_01026497
//  #05 //014   ----------------------------------------
 BYTE   PATT
  POIN2 Label_01026497
//  #05 //015   ----------------------------------------
Label_010264FE:
 BYTE   N05  Fs1  v047
 BYTE   N05  Cn1  v036
 BYTE   W06
 BYTE   Fs1  v059
 BYTE   W06
 BYTE   Fs1  v085
 BYTE   N05  Cn1
 BYTE   W06
 BYTE   Fs1  v011
 BYTE   W06
 BYTE   Fs1  v047
 BYTE   N05  Cn1
 BYTE   W06
 BYTE   Fs1  v059
 BYTE   N05  Cn1  v036
 BYTE   W06
 BYTE   Fs1  v085
 BYTE   N05  En1
 BYTE   W06
 BYTE   Fs1  v011
 BYTE   W06
 BYTE   Fs1  v047
 BYTE   N05  Cn1  v036
 BYTE   W06
 BYTE   Fs1  v059
 BYTE   N05  Cn1  v036
 BYTE   W06
 BYTE   An1  v059
 BYTE   N05  Cn1  v085
 BYTE   W06
 BYTE   An1  v059
 BYTE   W06
 BYTE   Cn2
 BYTE   N05  Cn1  v072
 BYTE   W06
 BYTE   Cn2  v059
 BYTE   N05  Cn1  v036
 BYTE   W06
 BYTE   En1  v085
 BYTE   W12
 BYTE   PEND 
//  #05 //016   ----------------------------------------
 BYTE   Fn1  v059
 BYTE   N05  Cn1  v036
 BYTE   W06
 BYTE   An1  v059
 BYTE   W06
 BYTE   N78  An2  v127  gtp1
 BYTE   N05  Fs1  v085
 BYTE   N05  Cn1
 BYTE   W06
 BYTE   Fs1  v011
 BYTE   W06
 BYTE   Fs1  v047
 BYTE   N05  Cn1
 BYTE   W06
 BYTE   Fs1  v059
 BYTE   N05  Cn1  v036
 BYTE   W06
 BYTE   Fs1  v085
 BYTE   N05  En1
 BYTE   W06
 BYTE   Fs1  v011
 BYTE   W06
 BYTE   Fs1  v047
 BYTE   N05  Cn1  v036
 BYTE   W06
 BYTE   Fs1  v059
 BYTE   N05  Cn1  v036
 BYTE   W06
 BYTE   Fs1  v085
 BYTE   N05  Cn1
 BYTE   W06
 BYTE   Fs1  v011
 BYTE   W06
 BYTE   Fs1  v047
 BYTE   N05  Cn1  v072
 BYTE   W06
 BYTE   Fs1  v059
 BYTE   N05  Cn1  v036
 BYTE   W06
 BYTE   Fs1  v085
 BYTE   N05  En1
 BYTE   W06
 BYTE   Fs1  v011
 BYTE   W06
//  #05 //017   ----------------------------------------
 BYTE   PATT
  POIN2 Label_01026497
//  #05 //018   ----------------------------------------
 BYTE   PATT
  POIN2 Label_01026497
//  #05 //019   ----------------------------------------
 BYTE   PATT
  POIN2 Label_01026497
//  #05 //020   ----------------------------------------
 BYTE   PATT
  POIN2 Label_01026497
//  #05 //021   ----------------------------------------
 BYTE   PATT
  POIN2 Label_01026497
//  #05 //022   ----------------------------------------
 BYTE   PATT
  POIN2 Label_01026497
//  #05 //023   ----------------------------------------
 BYTE   PATT
  POIN2 Label_010264FE
//  #05 //024   ----------------------------------------
 BYTE   N05  Fn1  v059
 BYTE   N05  Cn1  v036
 BYTE   W06
 BYTE   An1  v059
 BYTE   W06
 BYTE   N78  An2  v127  gtp1
 BYTE   N23  As1  v055
 BYTE   N05  Cn1  v085
 BYTE   W12
 BYTE   Cn1  v047
 BYTE   W06
 BYTE   Cn1  v036
 BYTE   W06
 BYTE   En1  v085
 BYTE   N23  As1  v100
 BYTE   W12
 BYTE   N05  Cn1  v036
 BYTE   W06
 BYTE   Cn1
 BYTE   W06
 BYTE   N23  As1  v055
 BYTE   N05  Cn1  v085
 BYTE   W12
 BYTE   Cn1  v072
 BYTE   W06
 BYTE   Cn1  v036
 BYTE   W06
 BYTE   N23  As1  v100
 BYTE   N05  En1  v085
 BYTE   W12
//  #05 //025   ----------------------------------------
Label_010265F6:
 BYTE   N05  Cn1  v036
 BYTE   W12
 BYTE   N23  As1  v055
 BYTE   N05  Cn1  v085
 BYTE   W12
 BYTE   Cn1  v047
 BYTE   W06
 BYTE   Cn1  v036
 BYTE   W06
 BYTE   N23  As1  v100
 BYTE   N05  En1  v085
 BYTE   W12
 BYTE   Cn1
 BYTE   W06
 BYTE   Cn1  v036
 BYTE   W06
 BYTE   N23  As1  v055
 BYTE   N05  Cn1  v036
 BYTE   W12
 BYTE   Cn1  v047
 BYTE   W06
 BYTE   Cn1  v036
 BYTE   W06
 BYTE   N23  As1  v100
 BYTE   N05  En1  v085
 BYTE   W12
 BYTE   PEND 
//  #05 //026   ----------------------------------------
Label_01026628:
 BYTE   N05  Cn1  v036
 BYTE   W12
 BYTE   Cn1  v085
 BYTE   N23  As1  v055
 BYTE   W12
 BYTE   N05  Cn1  v047
 BYTE   W06
 BYTE   Cn1  v036
 BYTE   W06
 BYTE   En1  v085
 BYTE   N23  As1  v100
 BYTE   W12
 BYTE   N05  Cn1  v036
 BYTE   W06
 BYTE   Cn1
 BYTE   W06
 BYTE   Cn1  v085
 BYTE   N23  As1  v055
 BYTE   W12
 BYTE   N05  Cn1  v072
 BYTE   W06
 BYTE   Cn1  v036
 BYTE   W06
 BYTE   En1  v085
 BYTE   N23  As1  v100
 BYTE   W12
 BYTE   PEND 
//  #05 //027   ----------------------------------------
 BYTE   N05  Cn1  v036
 BYTE   W12
 BYTE   Cn1  v085
 BYTE   N23  As1  v055
 BYTE   W12
 BYTE   N05  Cn1  v047
 BYTE   W06
 BYTE   Cn1  v036
 BYTE   W06
 BYTE   En1  v085
 BYTE   N23  As1  v100
 BYTE   W12
 BYTE   N05  Cn1  v085
 BYTE   W06
 BYTE   Cn1  v036
 BYTE   W06
 BYTE   Cn1
 BYTE   N23  As1  v055
 BYTE   W12
 BYTE   N05  Cn1  v047
 BYTE   W06
 BYTE   Cn1  v036
 BYTE   W06
 BYTE   En1  v085
 BYTE   N23  As1  v100
 BYTE   W12
//  #05 //028   ----------------------------------------
Label_01026689:
 BYTE   N05  Cn1  v036
 BYTE   W12
 BYTE   N23  As1  v055
 BYTE   N05  Cn1  v085
 BYTE   W12
 BYTE   Cn1  v047
 BYTE   W06
 BYTE   Cn1  v036
 BYTE   W06
 BYTE   En1  v085
 BYTE   N23  As1  v100
 BYTE   W12
 BYTE   N05  Cn1  v036
 BYTE   W06
 BYTE   Cn1
 BYTE   W06
 BYTE   N23  As1  v055
 BYTE   N05  Cn1  v085
 BYTE   W12
 BYTE   Cn1  v072
 BYTE   W06
 BYTE   Cn1  v036
 BYTE   W06
 BYTE   N23  As1  v100
 BYTE   N05  En1  v085
 BYTE   W12
 BYTE   PEND 
//  #05 //029   ----------------------------------------
 BYTE   PATT
  POIN2 Label_010265F6
//  #05 //030   ----------------------------------------
 BYTE   PATT
  POIN2 Label_01026628
//  #05 //031   ----------------------------------------
 BYTE   N05  Cn1  v036
 BYTE   W12
 BYTE   En1
 BYTE   N05  Cn1  v085
 BYTE   N11  As1  v055
 BYTE   W06
 BYTE   N05  En1  v047
 BYTE   W06
 BYTE   N11  As1  v100
 BYTE   N05  En1  v059
 BYTE   N05  Cn1  v047
 BYTE   W06
 BYTE   Cn1  v036
 BYTE   W06
 BYTE   N11  As1  v043
 BYTE   N05  En1  v059
 BYTE   W06
 BYTE   En1  v036
 BYTE   W06
 BYTE   N11  As1  v043
 BYTE   N05  En1  v036
 BYTE   N05  Cn1  v085
 BYTE   W06
 BYTE   Cn1  v036
 BYTE   W06
 BYTE   En1  v059
 BYTE   N05  Cn1  v036
 BYTE   N11  As1  v055
 BYTE   W06
 BYTE   N05  En1  v047
 BYTE   W06
 BYTE   N11  As1  v055
 BYTE   N05  En1  v036
 BYTE   N05  Cn1  v047
 BYTE   W06
 BYTE   Cn1  v036
 BYTE   W06
 BYTE   En1  v059
 BYTE   N23  As1  v100
 BYTE   W06
 BYTE   N05  En1  v036
 BYTE   W06
//  #05 //032   ----------------------------------------
 BYTE   En1  v047
 BYTE   N05  Cn1  v036
 BYTE   W06
 BYTE   En1  v059
 BYTE   W06
 BYTE   N78  An2  v127  gtp1
 BYTE   N23  As1  v055
 BYTE   N05  Cn1  v085
 BYTE   W12
 BYTE   Cn1  v047
 BYTE   W06
 BYTE   Cn1  v036
 BYTE   W06
 BYTE   En1  v085
 BYTE   N23  As1  v100
 BYTE   W12
 BYTE   N05  Cn1  v036
 BYTE   W06
 BYTE   Cn1
 BYTE   W06
 BYTE   N23  As1  v055
 BYTE   N05  Cn1  v085
 BYTE   W12
 BYTE   Cn1  v072
 BYTE   W06
 BYTE   Cn1  v036
 BYTE   W06
 BYTE   N23  As1  v100
 BYTE   N05  En1  v085
 BYTE   W12
//  #05 //033   ----------------------------------------
 BYTE   PATT
  POIN2 Label_010265F6
//  #05 //034   ----------------------------------------
 BYTE   N05  Cn1  v036
 BYTE   W12
 BYTE   Cn1  v085
 BYTE   N23  As1  v055
 BYTE   W12
 BYTE   N05  Cn1  v047
 BYTE   W06
 BYTE   Cn1  v036
 BYTE   W06
 BYTE   En1  v085
 BYTE   N23  As1  v100
 BYTE   W12
 BYTE   N05  Cn1  v036
 BYTE   W06
 BYTE   Cn1
 BYTE   W06
 BYTE   N23  As1  v055
 BYTE   N05  Cn1  v085
 BYTE   W12
 BYTE   Cn1  v072
 BYTE   W06
 BYTE   Cn1  v036
 BYTE   W06
 BYTE   En1  v085
 BYTE   N23  As1  v100
 BYTE   W12
//  #05 //035   ----------------------------------------
 BYTE   N05  Cn1  v036
 BYTE   W12
 BYTE   N23  As1  v055
 BYTE   N05  Cn1  v085
 BYTE   W12
 BYTE   Cn1  v047
 BYTE   W06
 BYTE   Cn1  v036
 BYTE   W06
 BYTE   N23  As1  v100
 BYTE   N05  En1  v085
 BYTE   W12
 BYTE   Cn1
 BYTE   W06
 BYTE   Cn1  v036
 BYTE   W06
 BYTE   Cn1
 BYTE   N23  As1  v055
 BYTE   W12
 BYTE   N05  Cn1  v047
 BYTE   W06
 BYTE   Cn1  v036
 BYTE   W06
 BYTE   N23  As1  v100
 BYTE   N05  En1  v085
 BYTE   W12
//  #05 //036   ----------------------------------------
 BYTE   PATT
  POIN2 Label_01026689
//  #05 //037   ----------------------------------------
 BYTE   PATT
  POIN2 Label_010265F6
//  #05 //038   ----------------------------------------
 BYTE   PATT
  POIN2 Label_01026628
//  #05 //039   ----------------------------------------
 BYTE   N05  Cn1  v036
 BYTE   W12
 BYTE   N18  Cs2  v090
 BYTE   N05  Cn1  v085
 BYTE   N05  Gn1  v047
 BYTE   W12
 BYTE   En1  v085
 BYTE   W06
 BYTE   N18  Cs2  v090
 BYTE   N05  Cn1  v085
 BYTE   N05  Gn1  v047
 BYTE   W12
 BYTE   En1  v085
 BYTE   W06
 BYTE   N17  Cs2  v090
 BYTE   N05  Cn1  v085
 BYTE   W12
 BYTE   Cn1
 BYTE   W24
 BYTE   En1  v047
 BYTE   W06
 BYTE   En1  v059
 BYTE   W06
//  #05 //040   ----------------------------------------
 BYTE   En1  v072
 BYTE   W06
 BYTE   En1  v085
 BYTE   W06
 BYTE   N78  An2  v127  gtp1
 BYTE   N05  Fs1  v085
 BYTE   N05  Cn1
 BYTE   W06
 BYTE   Fs1  v011
 BYTE   W06
 BYTE   Fs1  v047
 BYTE   N05  Cn1
 BYTE   W06
 BYTE   Fs1  v059
 BYTE   N05  Cn1  v036
 BYTE   W06
 BYTE   Fs1  v085
 BYTE   N05  En1
 BYTE   W06
 BYTE   Fs1  v011
 BYTE   W06
 BYTE   Fs1  v047
 BYTE   N05  Cn1  v036
 BYTE   W06
 BYTE   Fs1  v059
 BYTE   N05  Cn1  v036
 BYTE   W06
 BYTE   Fs1  v085
 BYTE   N05  Cn1
 BYTE   W06
 BYTE   Fs1  v011
 BYTE   W06
 BYTE   Fs1  v047
 BYTE   N05  Cn1  v072
 BYTE   W06
 BYTE   Fs1  v059
 BYTE   N05  Cn1  v036
 BYTE   W06
 BYTE   Fs1  v085
 BYTE   N05  En1
 BYTE   W06
 BYTE   Fs1  v011
 BYTE   W06
//  #05 //041   ----------------------------------------
 BYTE   PATT
  POIN2 Label_01026497
//  #05 //042   ----------------------------------------
 BYTE   PATT
  POIN2 Label_01026497
//  #05 //043   ----------------------------------------
Label_01026850:
 BYTE   N05  Fs1  v047
 BYTE   N05  Cn1  v036
 BYTE   W06
 BYTE   Fs1  v059
 BYTE   W06
 BYTE   N48  Cs2  v114
 BYTE   N05  Cn1  v085
 BYTE   N05  En1
 BYTE   W12
 BYTE   Cn1  v059
 BYTE   W12
 BYTE   N66  An2  v094  gtp1
 BYTE   N05  Cn1  v085
 BYTE   N05  En1
 BYTE   W12
 BYTE   Cn1  v059
 BYTE   N05  Gn1
 BYTE   W12
 BYTE   Cs2  v114
 BYTE   N05  Cn1  v085
 BYTE   N05  En1
 BYTE   W12
 BYTE   Gn1  v059
 BYTE   N05  Cn1
 BYTE   W06
 BYTE   Fn1
 BYTE   W06
 BYTE   Fs1  v085
 BYTE   N05  En1
 BYTE   W06
 BYTE   Fs1  v011
 BYTE   W06
 BYTE   PEND 
//  #05 //044   ----------------------------------------
Label_0102688D:
 BYTE   N05  Fs1  v047
 BYTE   N05  En1
 BYTE   W06
 BYTE   Fs1  v059
 BYTE   N05  En1
 BYTE   W06
 BYTE   N78  An2  v094  gtp1
 BYTE   N05  Fs1  v085
 BYTE   N05  Cn1
 BYTE   W06
 BYTE   Fs1  v011
 BYTE   W06
 BYTE   Fs1  v047
 BYTE   N05  Cn1
 BYTE   W06
 BYTE   Fs1  v059
 BYTE   N05  Cn1  v036
 BYTE   W06
 BYTE   Fs1  v085
 BYTE   N05  En1
 BYTE   W06
 BYTE   Fs1  v011
 BYTE   W06
 BYTE   Fs1  v047
 BYTE   N05  Cn1  v036
 BYTE   W06
 BYTE   Fs1  v059
 BYTE   N05  Cn1  v036
 BYTE   W06
 BYTE   Fs1  v085
 BYTE   N05  Cn1
 BYTE   W06
 BYTE   Fs1  v011
 BYTE   W06
 BYTE   Fs1  v047
 BYTE   N05  Cn1  v072
 BYTE   W06
 BYTE   Fs1  v059
 BYTE   N05  Cn1  v036
 BYTE   W06
 BYTE   Fs1  v085
 BYTE   N05  En1
 BYTE   W06
 BYTE   Fs1  v011
 BYTE   W06
 BYTE   PEND 
//  #05 //045   ----------------------------------------
 BYTE   PATT
  POIN2 Label_01026497
//  #05 //046   ----------------------------------------
 BYTE   PATT
  POIN2 Label_01026497
//  #05 //047   ----------------------------------------
 BYTE   N05  Fs1  v047
 BYTE   N05  Cn1  v036
 BYTE   W06
 BYTE   En1  v059
 BYTE   N05  Fs1
 BYTE   W06
 BYTE   N78  An2  v094  gtp1
 BYTE   N05  Cn1  v085
 BYTE   N05  En1  v036
 BYTE   N05  Fs1  v085
 BYTE   W06
 BYTE   En1  v047
 BYTE   N05  Fs1  v011
 BYTE   W06
 BYTE   En1  v059
 BYTE   N05  Fs1  v047
 BYTE   W06
 BYTE   Fs1  v059
 BYTE   W06
 BYTE   En1
 BYTE   N05  Cn1  v085
 BYTE   N05  Fs1
 BYTE   W06
 BYTE   En1  v036
 BYTE   N05  Fs1  v011
 BYTE   W06
 BYTE   En1  v036
 BYTE   N05  Fs1  v047
 BYTE   W06
 BYTE   Fs1  v059
 BYTE   W06
 BYTE   N24  Cs2  v052
 BYTE   N05  En1  v059
 BYTE   N05  Cn1  v085
 BYTE   N05  Fs1
 BYTE   W06
 BYTE   En1  v047
 BYTE   N05  Fs1  v011
 BYTE   W06
 BYTE   En1  v036
 BYTE   N05  Fs1  v047
 BYTE   W06
 BYTE   Fs1  v059
 BYTE   W06
 BYTE   N28  Cs2  v052  gtp1
 BYTE   N05  En1  v059
 BYTE   N05  Cn1  v085
 BYTE   N05  Fs1
 BYTE   W06
 BYTE   En1  v036
 BYTE   N05  Fs1  v011
 BYTE   W06
//  #05 //048   ----------------------------------------
 BYTE   En1  v047
 BYTE   N05  Fs1
 BYTE   W06
 BYTE   En1  v059
 BYTE   N05  Fs1
 BYTE   W06
 BYTE   N78  An2  v127  gtp1
 BYTE   N05  Fs1  v085
 BYTE   N05  Cn1
 BYTE   W06
 BYTE   Fs1  v011
 BYTE   W06
 BYTE   Fs1  v047
 BYTE   N05  Cn1
 BYTE   W06
 BYTE   Fs1  v059
 BYTE   N05  Cn1  v036
 BYTE   W06
 BYTE   Fs1  v085
 BYTE   N05  En1
 BYTE   W06
 BYTE   Fs1  v011
 BYTE   W06
 BYTE   Fs1  v047
 BYTE   N05  Cn1  v036
 BYTE   W06
 BYTE   Fs1  v059
 BYTE   N05  Cn1  v036
 BYTE   W06
 BYTE   Fs1  v085
 BYTE   N05  Cn1
 BYTE   W06
 BYTE   Fs1  v011
 BYTE   W06
 BYTE   Fs1  v047
 BYTE   N05  Cn1  v072
 BYTE   W06
 BYTE   Fs1  v059
 BYTE   N05  Cn1  v036
 BYTE   W06
 BYTE   Fs1  v085
 BYTE   N05  En1
 BYTE   W06
 BYTE   Fs1  v011
 BYTE   W06
//  #05 //049   ----------------------------------------
 BYTE   PATT
  POIN2 Label_01026497
//  #05 //050   ----------------------------------------
 BYTE   PATT
  POIN2 Label_01026497
//  #05 //051   ----------------------------------------
 BYTE   PATT
  POIN2 Label_01026850
//  #05 //052   ----------------------------------------
 BYTE   PATT
  POIN2 Label_0102688D
//  #05 //053   ----------------------------------------
 BYTE   PATT
  POIN2 Label_01026497
//  #05 //054   ----------------------------------------
 BYTE   PATT
  POIN2 Label_01026497
//  #05 //055   ----------------------------------------
 BYTE   N05  Fs1  v047
 BYTE   N05  Cn1  v036
 BYTE   W06
 BYTE   En1  v059
 BYTE   N05  Fs1
 BYTE   W06
 BYTE   N78  An2  v127  gtp1
 BYTE   N05  Cn1  v085
 BYTE   N05  An1  v059
 BYTE   W12
 BYTE   En1  v085
 BYTE   W06
 BYTE   Cn1
 BYTE   N05  An1  v059
 BYTE   W12
 BYTE   Cn1  v085
 BYTE   N05  An1  v036
 BYTE   W06
 BYTE   En1  v085
 BYTE   W12
 BYTE   N64  Cs2  v127  gtp1
 BYTE   N05  Cn1  v059
 BYTE   N05  Bn1
 BYTE   W06
 BYTE   Cn1
 BYTE   N05  Bn1
 BYTE   W06
 BYTE   Cn1
 BYTE   N05  Bn1
 BYTE   W06
 BYTE   Cn1
 BYTE   N05  Bn1
 BYTE   W06
 BYTE   Cn1
 BYTE   N05  An1
 BYTE   W06
 BYTE   Cn1
 BYTE   N05  An1
 BYTE   W06
//  #05 //056   ----------------------------------------
 BYTE   Cn1
 BYTE   N05  Gn1
 BYTE   W06
 BYTE   Cn1
 BYTE   N05  Gn1
 BYTE   W06
 BYTE   N78  An2  v127  gtp1
 BYTE   N05  Fs1  v085
 BYTE   N05  Cn1
 BYTE   W06
 BYTE   Fs1  v011
 BYTE   W06
 BYTE   Fs1  v047
 BYTE   N05  Cn1
 BYTE   W06
 BYTE   Fs1  v059
 BYTE   N05  Cn1  v036
 BYTE   W06
 BYTE   Fs1  v085
 BYTE   N05  En1
 BYTE   W06
 BYTE   Fs1  v011
 BYTE   W06
 BYTE   Fs1  v047
 BYTE   N05  Cn1  v036
 BYTE   W06
 BYTE   Fs1  v059
 BYTE   N05  Cn1  v036
 BYTE   W06
 BYTE   Fs1  v085
 BYTE   N05  Cn1
 BYTE   W06
 BYTE   Fs1  v011
 BYTE   W06
 BYTE   Fs1  v047
 BYTE   N05  Cn1  v072
 BYTE   W06
 BYTE   Fs1  v059
 BYTE   N05  Cn1  v036
 BYTE   W06
 BYTE   Fs1  v085
 BYTE   N05  En1
 BYTE   W06
 BYTE   Fs1  v011
 BYTE   W06
//  #05 //057   ----------------------------------------
 BYTE   PATT
  POIN2 Label_01026497
//  #05 //058   ----------------------------------------
 BYTE   PATT
  POIN2 Label_01026497
//  #05 //059   ----------------------------------------
 BYTE   PATT
  POIN2 Label_01026497
//  #05 //060   ----------------------------------------
 BYTE   PATT
  POIN2 Label_01026497
//  #05 //061   ----------------------------------------
 BYTE   PATT
  POIN2 Label_01026497
//  #05 //062   ----------------------------------------
 BYTE   PATT
  POIN2 Label_01026497
//  #05 //063   ----------------------------------------
 BYTE   N05  Fs1  v047
 BYTE   N05  Cn1  v036
 BYTE   W06
 BYTE   Fs1  v059
 BYTE   W06
 BYTE   En1  v036
 BYTE   N05  Fs1  v085
 BYTE   N05  Cn1
 BYTE   W06
 BYTE   En1  v047
 BYTE   N05  Fs1  v011
 BYTE   W06
 BYTE   En1  v059
 BYTE   N05  Fs1  v047
 BYTE   N05  Cn1
 BYTE   W06
 BYTE   Fs1  v059
 BYTE   N05  Cn1  v036
 BYTE   W06
 BYTE   En1  v059
 BYTE   N05  Fs1  v085
 BYTE   W06
 BYTE   En1  v036
 BYTE   N05  Fs1  v011
 BYTE   W06
 BYTE   En1  v036
 BYTE   N05  Fs1  v047
 BYTE   N05  Cn1  v036
 BYTE   W06
 BYTE   Fs1  v059
 BYTE   N05  Cn1  v036
 BYTE   W06
 BYTE   En1  v059
 BYTE   N05  Fs1  v085
 BYTE   N05  Cn1
 BYTE   W06
 BYTE   En1  v047
 BYTE   N05  Fs1  v011
 BYTE   W06
 BYTE   En1  v036
 BYTE   N05  Fs1  v047
 BYTE   N05  Cn1  v072
 BYTE   W06
 BYTE   Fs1  v059
 BYTE   N05  Cn1  v036
 BYTE   W06
 BYTE   En1  v059
 BYTE   N05  Fs1  v085
 BYTE   W06
 BYTE   En1  v036
 BYTE   N05  Fs1  v011
 BYTE   W06
//  #05 //064   ----------------------------------------
 BYTE   En1  v047
 BYTE   N05  Fs1
 BYTE   N05  Cn1  v036
 BYTE   W06
 BYTE   En1  v059
 BYTE   N05  Fs1
 BYTE   W06
 BYTE   GoTo
  POIN2 Label_0102644F
 BYTE   FINE

//**************** Track 6 (Midi-Chn.5) ****************//

Touhou123FaithisfortheTransientTak_006:
//  #06 //000   ----------------------------------------
 BYTE   KEYSH   Touhou123FaithisfortheTransientTak_key+0
 BYTE   VOICE   68
 BYTE   VOL   90*Touhou123FaithisfortheTransientTak_mvl/mxv
 BYTE   BENDR  12
 BYTE   BEND   c_v-1
 BYTE   W96
//  #06 //001   ----------------------------------------
 BYTE   W96
//  #06 //002   ----------------------------------------
 BYTE   W96
//  #06 //003   ----------------------------------------
 BYTE   W96
//  #06 //004   ----------------------------------------
 BYTE   W96
//  #06 //005   ----------------------------------------
 BYTE   W96
//  #06 //006   ----------------------------------------
 BYTE   W96
//  #06 //007   ----------------------------------------
 BYTE   W96
//  #06 //008   ----------------------------------------
 BYTE   W11
 BYTE   BEND   c_v-2
 BYTE   W01
Label_01026B11:
 BYTE   N44  Bn3  v085  gtp3
 BYTE   BEND   c_v-1
 BYTE   W04
 BYTE   BEND   c_v+0
 BYTE   W44
 BYTE   N17
 BYTE   W18
 BYTE   Cs4
 BYTE   W17
 BYTE   BEND   c_v-1
 BYTE   W01
//  #06 //009   ----------------------------------------
Label_01026B21:
 BYTE   N11  Dn4  v085
 BYTE   W01
 BYTE   BEND   c_v+0
 BYTE   W11
 BYTE   N44  Bn3  v085  gtp3
 BYTE   W48
 BYTE   N17  Cs4
 BYTE   W17
 BYTE   BEND   c_v-1
 BYTE   W01
 BYTE   N17  Dn4
 BYTE   W01
 BYTE   BEND   c_v+0
 BYTE   W16
 BYTE   BEND   c_v-1
 BYTE   W01
 BYTE   PEND 
//  #06 //010   ----------------------------------------
Label_01026B3C:
 BYTE   N11  En4  v085
 BYTE   W01
 BYTE   BEND   c_v+0
 BYTE   W11
 BYTE   N23  Cs4
 BYTE   W23
 BYTE   BEND   c_v-1
 BYTE   W01
 BYTE   N11  Dn4
 BYTE   W01
 BYTE   BEND   c_v+0
 BYTE   W11
 BYTE   N23  Cs4
 BYTE   W24
 BYTE   N11  An3
 BYTE   W12
 BYTE   N92  Fs3  v085  gtp3
 BYTE   W12
 BYTE   PEND 
//  #06 //011   ----------------------------------------
Label_01026B5B:
 BYTE   W80
 BYTE   W03
 BYTE   BEND   c_v-1
 BYTE   W01
 BYTE   N23  Fs3  v085
 BYTE   W01
 BYTE   BEND   c_v+0
 BYTE   W11
 BYTE   PEND 
//  #06 //012   ----------------------------------------
Label_01026B68:
 BYTE   W11
 BYTE   BEND   c_v-1
 BYTE   W01
 BYTE   N32  Gn3  v085  gtp3
 BYTE   W01
 BYTE   BEND   c_v+0
 BYTE   W32
 BYTE   W03
 BYTE   N11
 BYTE   W12
 BYTE   N17
 BYTE   W18
 BYTE   An3
 BYTE   W18
 BYTE   PEND 
//  #06 //013   ----------------------------------------
Label_01026B7C:
 BYTE   N11  Bn3  v085
 BYTE   W11
 BYTE   BEND   c_v-1
 BYTE   W01
 BYTE   N44  Bn3  v085  gtp3
 BYTE   W01
 BYTE   BEND   c_v+0
 BYTE   W44
 BYTE   W03
 BYTE   N17
 BYTE   W18
 BYTE   Cs4
 BYTE   W17
 BYTE   BEND   c_v-1
 BYTE   W01
 BYTE   PEND 
//  #06 //014   ----------------------------------------
Label_01026B94:
 BYTE   N11  Dn4  v085
 BYTE   W01
 BYTE   BEND   c_v+0
 BYTE   W11
 BYTE   N23  As3
 BYTE   W24
 BYTE   Bn3
 BYTE   W24
 BYTE   N17  Cs4
 BYTE   W17
 BYTE   BEND   c_v-1
 BYTE   W01
 BYTE   N17  Dn4
 BYTE   W01
 BYTE   BEND   c_v+0
 BYTE   W16
 BYTE   BEND   c_v-2
 BYTE   W01
 BYTE   PEND 
//  #06 //015   ----------------------------------------
 BYTE   N11  En4
 BYTE   BEND   c_v-1
 BYTE   W04
 BYTE   BEND   c_v+0
 BYTE   W08
 BYTE   N92  Cs4  v085  gtp3
 BYTE   W84
//  #06 //016   ----------------------------------------
 BYTE   W11
 BYTE   BEND   c_v-2
 BYTE   W01
 BYTE   N44  Bn3  v085  gtp3
 BYTE   BEND   c_v-1
 BYTE   W04
 BYTE   BEND   c_v+0
 BYTE   W44
 BYTE   N17
 BYTE   W18
 BYTE   Cs4
 BYTE   W17
 BYTE   BEND   c_v-1
 BYTE   W01
//  #06 //017   ----------------------------------------
 BYTE   PATT
  POIN2 Label_01026B21
//  #06 //018   ----------------------------------------
 BYTE   PATT
  POIN2 Label_01026B3C
//  #06 //019   ----------------------------------------
 BYTE   PATT
  POIN2 Label_01026B5B
//  #06 //020   ----------------------------------------
 BYTE   PATT
  POIN2 Label_01026B68
//  #06 //021   ----------------------------------------
 BYTE   PATT
  POIN2 Label_01026B7C
//  #06 //022   ----------------------------------------
 BYTE   PATT
  POIN2 Label_01026B94
//  #06 //023   ----------------------------------------
 BYTE   N11  En4  v085
 BYTE   BEND   c_v-1
 BYTE   W04
 BYTE   BEND   c_v+0
 BYTE   W07
 BYTE   BEND   c_v-2
 BYTE   W01
 BYTE   N92  Fs4  v085  gtp3
 BYTE   BEND   c_v-1
 BYTE   W04
 BYTE   BEND   c_v+0
 BYTE   W80
//  #06 //024   ----------------------------------------
 BYTE   W96
//  #06 //025   ----------------------------------------
 BYTE   W96
//  #06 //026   ----------------------------------------
 BYTE   W96
//  #06 //027   ----------------------------------------
 BYTE   W96
//  #06 //028   ----------------------------------------
 BYTE   W96
//  #06 //029   ----------------------------------------
 BYTE   W96
//  #06 //030   ----------------------------------------
 BYTE   W96
//  #06 //031   ----------------------------------------
 BYTE   W96
//  #06 //032   ----------------------------------------
 BYTE   W96
//  #06 //033   ----------------------------------------
 BYTE   W96
//  #06 //034   ----------------------------------------
 BYTE   W96
//  #06 //035   ----------------------------------------
 BYTE   W96
//  #06 //036   ----------------------------------------
 BYTE   W96
//  #06 //037   ----------------------------------------
 BYTE   W96
//  #06 //038   ----------------------------------------
 BYTE   W72
 BYTE   N11  An3
 BYTE   W12
 BYTE   Dn4
 BYTE   W12
//  #06 //039   ----------------------------------------
 BYTE   Ds4
 BYTE   W12
 BYTE   N17  En4
 BYTE   W18
 BYTE   En4
 BYTE   W18
 BYTE   N11
 BYTE   W12
 BYTE   N44  Fs4  v085  gtp3
 BYTE   W02
 BYTE   BEND   c_v+1
 BYTE   W32
 BYTE   W02
//  #06 //040   ----------------------------------------
 BYTE   W12
 BYTE   BEND   c_v+0
 BYTE   N44  Fs3  v085  gtp3
 BYTE   W48
 BYTE   Dn4
 BYTE   W36
//  #06 //041   ----------------------------------------
 BYTE   W12
 BYTE   N23  Cs4
 BYTE   W24
 BYTE   An3
 BYTE   W24
 BYTE   N44  En3  v085  gtp3
 BYTE   W36
//  #06 //042   ----------------------------------------
Label_01026C3A:
 BYTE   W11
 BYTE   BEND   c_v-1
 BYTE   W01
 BYTE   N44  Fs3  v085  gtp3
 BYTE   W01
 BYTE   BEND   c_v+0
 BYTE   W44
 BYTE   W02
 BYTE   BEND   c_v-2
 BYTE   W01
 BYTE   N32  En4  v085  gtp3
 BYTE   BEND   c_v-1
 BYTE   W04
 BYTE   BEND   c_v+0
 BYTE   W32
 BYTE   PEND 
//  #06 //043   ----------------------------------------
 BYTE   N05  Dn4
 BYTE   W06
 BYTE   En4
 BYTE   W06
 BYTE   N23  Dn4
 BYTE   W24
 BYTE   Cs4
 BYTE   W24
 BYTE   N44  Bn3  v085  gtp3
 BYTE   W36
//  #06 //044   ----------------------------------------
Label_01026C62:
 BYTE   W11
 BYTE   BEND   c_v-1
 BYTE   W01
 BYTE   N44  Bn3  v085  gtp3
 BYTE   W01
 BYTE   BEND   c_v+0
 BYTE   W44
 BYTE   W02
 BYTE   BEND   c_v-2
 BYTE   W01
 BYTE   N44  Fs4  v085  gtp3
 BYTE   BEND   c_v-1
 BYTE   W04
 BYTE   BEND   c_v+0
 BYTE   W32
 BYTE   PEND 
//  #06 //045   ----------------------------------------
Label_01026C7B:
 BYTE   W12
 BYTE   N23  En4  v085
 BYTE   W24
 BYTE   Fs4
 BYTE   W23
 BYTE   BEND   c_v-2
 BYTE   W01
 BYTE   N23  An4
 BYTE   BEND   c_v-1
 BYTE   W04
 BYTE   BEND   c_v+0
 BYTE   W20
 BYTE   N11  Cs4
 BYTE   W11
 BYTE   BEND   c_v-1
 BYTE   W01
 BYTE   PEND 
//  #06 //046   ----------------------------------------
Label_01026C93:
 BYTE   N32  Dn4  v085  gtp3
 BYTE   W01
 BYTE   BEND   c_v+0
 BYTE   W32
 BYTE   W03
 BYTE   N23  En4
 BYTE   W24
 BYTE   Fs4
 BYTE   W24
 BYTE   An4
 BYTE   W12
 BYTE   PEND 
//  #06 //047   ----------------------------------------
 BYTE   W12
 BYTE   N32  En4  v085  gtp3
 BYTE   W02
 BYTE   BEND   c_v+1
 BYTE   W32
 BYTE   W01
 BYTE   BEND   c_v+0
 BYTE   W01
 BYTE   N05  Dn4
 BYTE   W06
 BYTE   En4
 BYTE   W06
 BYTE   N23  Dn4
 BYTE   W24
 BYTE   Cs4
 BYTE   W12
//  #06 //048   ----------------------------------------
 BYTE   W12
 BYTE   N44  Fs3  v085  gtp3
 BYTE   W48
 BYTE   N32  Dn4  v085  gtp3
 BYTE   W36
//  #06 //049   ----------------------------------------
 BYTE   N05  Cs4
 BYTE   W06
 BYTE   Dn4
 BYTE   W06
 BYTE   N23  Cs4
 BYTE   W24
 BYTE   An3
 BYTE   W24
 BYTE   N05
 BYTE   W06
 BYTE   Bn3
 BYTE   W06
 BYTE   N11  An3
 BYTE   W12
 BYTE   N23  En3
 BYTE   W12
//  #06 //050   ----------------------------------------
 BYTE   PATT
  POIN2 Label_01026C3A
//  #06 //051   ----------------------------------------
 BYTE   N05  Dn4  v085
 BYTE   W06
 BYTE   En4
 BYTE   W06
 BYTE   Dn4
 BYTE   W06
 BYTE   En4
 BYTE   W06
 BYTE   N11  Dn4
 BYTE   W12
 BYTE   N23  Cs4
 BYTE   W24
 BYTE   N44  Bn3  v085  gtp3
 BYTE   W36
//  #06 //052   ----------------------------------------
 BYTE   PATT
  POIN2 Label_01026C62
//  #06 //053   ----------------------------------------
 BYTE   PATT
  POIN2 Label_01026C7B
//  #06 //054   ----------------------------------------
 BYTE   PATT
  POIN2 Label_01026C93
//  #06 //055   ----------------------------------------
 BYTE   W12
 BYTE   N17  As4  v085
 BYTE   W18
 BYTE   Cs4
 BYTE   W18
 BYTE   N11  En4
 BYTE   W12
 BYTE   Dn4
 BYTE   W12
 BYTE   Cs4
 BYTE   W12
 BYTE   Bn3
 BYTE   W12
//  #06 //056   ----------------------------------------
 BYTE   As3
 BYTE   W12
 BYTE   TIE  Bn3
 BYTE   W84
//  #06 //057   ----------------------------------------
 BYTE   W96
//  #06 //058   ----------------------------------------
 BYTE   W03
 BYTE   BEND   c_v-1
 BYTE   W02
 BYTE   BEND   c_v-2
 BYTE   W01
 BYTE   BEND   c_v-3
 BYTE   W01
 BYTE   BEND   c_v-4
 BYTE   W01
 BYTE   BEND   c_v-5
 BYTE   W01
 BYTE   BEND   c_v-7
 BYTE   W01
 BYTE   BEND   c_v-8
 BYTE   W01
 BYTE   EOT
 BYTE   BEND   c_v-10
 BYTE   W01
 BYTE   BEND   c_v-11
 BYTE   W24
 BYTE   BEND   c_v+0
 BYTE   W60
//  #06 //059   ----------------------------------------
 BYTE   W96
//  #06 //060   ----------------------------------------
 BYTE   N11  Fs4
 BYTE   W12
 BYTE   N17
 BYTE   W18
 BYTE   N64  Bn3  v085  gtp1
 BYTE   W66
//  #06 //061   ----------------------------------------
 BYTE   N11  Fs4
 BYTE   W12
 BYTE   N17  Gn4
 BYTE   W18
 BYTE   N64  Bn3  v085  gtp1
 BYTE   W66
//  #06 //062   ----------------------------------------
 BYTE   N11  An4
 BYTE   W04
 BYTE   BEND   c_v+1
 BYTE   W08
 BYTE   BEND   c_v+0
 BYTE   N17  As4
 BYTE   W18
 BYTE   Fs4
 BYTE   W18
 BYTE   N11  En4
 BYTE   W12
 BYTE   N17  Fs4
 BYTE   W06
 BYTE   BEND   c_v+1
 BYTE   W07
 BYTE   BEND   c_v+0
 BYTE   W05
 BYTE   N17  En4
 BYTE   W18
//  #06 //063   ----------------------------------------
 BYTE   N11  Cs4
 BYTE   W12
 BYTE   N17  En4
 BYTE   W18
 BYTE   Cs4
 BYTE   W18
 BYTE   N11  Bn3
 BYTE   W12
 BYTE   N17  As3
 BYTE   W06
 BYTE   BEND   c_v+1
 BYTE   W07
 BYTE   BEND   c_v+0
 BYTE   W05
 BYTE   N17  Fs3
 BYTE   W18
//  #06 //064   ----------------------------------------
 BYTE   N11  As3
 BYTE   W11
 BYTE   BEND   c_v-1
 BYTE   W01
 BYTE   GoTo
  POIN2 Label_01026B11
 BYTE   FINE

//******************************************************//
	ALIGN 4

Touhou123FaithisfortheTransientTak:
	BYTE	6	// NumTrks
	BYTE	0	// NumBlks
	BYTE	Touhou123FaithisfortheTransientTak_pri	// Priority
	BYTE	Touhou123FaithisfortheTransientTak_rev	// Reverb.
    
	POIN2	Touhou123FaithisfortheTransientTak_grp
    
	POIN2	Touhou123FaithisfortheTransientTak_001
	POIN2	Touhou123FaithisfortheTransientTak_002
	POIN2	Touhou123FaithisfortheTransientTak_003
	POIN2	Touhou123FaithisfortheTransientTak_004
	POIN2	Touhou123FaithisfortheTransientTak_005
	POIN2	Touhou123FaithisfortheTransientTak_006

	
