//Event file generated from Sappy .s format.
	#include "MPlayDef.event"

	#define	Touhou7BorderofLifeMrGreen3339_grp  voicegroup000
	#define	Touhou7BorderofLifeMrGreen3339_pri  0
	#define	Touhou7BorderofLifeMrGreen3339_rev  0
	#define	Touhou7BorderofLifeMrGreen3339_mvl  127
	#define	Touhou7BorderofLifeMrGreen3339_key  0
	#define	Touhou7BorderofLifeMrGreen3339_tbs  1
	#define	Touhou7BorderofLifeMrGreen3339_exg  0
	#define	Touhou7BorderofLifeMrGreen3339_cmp  1

	// .rodata
	//	Touhou7BorderofLifeMrGreen3339
	ALIGN 4


//**************** Track 1 (Midi-Chn.0) ****************//

Touhou7BorderofLifeMrGreen3339_001:
// 000   ----------------------------------------
 BYTE   KEYSH   Touhou7BorderofLifeMrGreen3339_key+0
 BYTE   TEMPO   142*Touhou7BorderofLifeMrGreen3339_tbs/2
 BYTE   VOICE   0
 BYTE   VOL   45*Touhou7BorderofLifeMrGreen3339_mvl/mxv
 BYTE   PAN   c_v+8
 BYTE   N36  Gs3  v100
 BYTE   N36  Cn4
 BYTE   N36  Gs4
 BYTE   N36  Cn5
 BYTE   W36
 BYTE   Gs3
 BYTE   N36  Fn4
 BYTE   N36  Gs4
 BYTE   N36  Fn5
 BYTE   W36
 BYTE   N24  As3
 BYTE   N24  Gn4
 BYTE   N24  As4
 BYTE   N24  Gn5
 BYTE   W24
// 001   ----------------------------------------
 BYTE   N36  Gs3
 BYTE   N36  Cn4
 BYTE   N36  Gs4
 BYTE   N36  Cn5
 BYTE   W36
 BYTE   Gs3
 BYTE   N36  Fn4
 BYTE   N36  Gs4
 BYTE   N36  Fn5
 BYTE   W36
 BYTE   N24  As3
 BYTE   N24  Gn4
 BYTE   N24  As4
 BYTE   N24  Gn5
 BYTE   W24
// 002   ----------------------------------------
 BYTE   N03  As3
 BYTE   N03  Gn4
 BYTE   N03  As4
 BYTE   N03  Gn5
 BYTE   W03
 BYTE   N21  Cn4
 BYTE   N21  Gs4
 BYTE   N21  Cn5
 BYTE   N21  Gs5
 BYTE   W21
 BYTE   N24  Gs3
 BYTE   N24  Fn4
 BYTE   N24  Gs4
 BYTE   N24  Fn5
 BYTE   W24
 BYTE   As3
 BYTE   N24  Gn4
 BYTE   N24  As4
 BYTE   N24  Gn5
 BYTE   W24
 BYTE   Gn3
 BYTE   N24  Ds4
 BYTE   N24  Gn4
 BYTE   N24  Ds5
 BYTE   W24
// 003   ----------------------------------------
 BYTE   N96  Gs3
 BYTE   N96  Fn4
 BYTE   N96  Gs4
 BYTE   N96  Fn5
 BYTE   W96
// 004   ----------------------------------------
 BYTE   N36  Fn3
 BYTE   N36  Cn4
 BYTE   N36  Fn4
 BYTE   N36  Cn5
 BYTE   W36
 BYTE   Fn3
 BYTE   N36  Ds4
 BYTE   N36  Fn4
 BYTE   N36  Ds5
 BYTE   W36
 BYTE   N24  Gs3
 BYTE   N24  Fn4
 BYTE   N24  Gs4
 BYTE   N24  Fn5
 BYTE   W24
// 005   ----------------------------------------
 BYTE   N36  Gn3
 BYTE   N36  As3
 BYTE   N36  Gn4
 BYTE   N36  As4
 BYTE   W36
 BYTE   Gn3
 BYTE   N36  Ds4
 BYTE   N36  Gn4
 BYTE   N36  Ds5
 BYTE   W36
 BYTE   N24  Gs3
 BYTE   N24  Fn4
 BYTE   N24  Gs4
 BYTE   N24  Fn5
 BYTE   W24
// 006   ----------------------------------------
 BYTE   Cn3
 BYTE   N24  Gs3
 BYTE   N24  Cn4
 BYTE   N24  Gs4
 BYTE   W24
 BYTE   Gs2
 BYTE   N24  Fn3
 BYTE   N24  Gs3
 BYTE   N24  Fn4
 BYTE   W24
 BYTE   As2
 BYTE   N24  Gn3
 BYTE   N24  As3
 BYTE   N24  Gn4
 BYTE   W24
 BYTE   Gn2
 BYTE   N24  Ds3
 BYTE   N24  Gn3
 BYTE   N24  Ds4
 BYTE   W24
// 007   ----------------------------------------
 BYTE   N96  Gs2
 BYTE   N96  Fn3
 BYTE   N96  Gs3
 BYTE   N96  Fn4
 BYTE   W96
// 008   ----------------------------------------
Label_0_01228004:
 BYTE   TEMPO   156*Touhou7BorderofLifeMrGreen3339_tbs/2
 BYTE   W48
Label_0_01228007:
 BYTE   N12  Bn3  v100
 BYTE   N12  Bn4
 BYTE   W12
 BYTE   Gs3
 BYTE   N12  Gs4
 BYTE   W12
 BYTE   En3
 BYTE   N12  En4
 BYTE   W12
 BYTE   As3
 BYTE   N12  As4
 BYTE   W12
// 009   ----------------------------------------
 BYTE   Gn3
 BYTE   N12  Gn4
 BYTE   W12
 BYTE   N24  Ds3
 BYTE   N24  Ds4
 BYTE   W24
 BYTE   Bn3
 BYTE   N24  Bn4
 BYTE   W12
 BYTE   PEND 
Label_0_01228027:
 BYTE   W12
 BYTE   N12  Gs3  v100
 BYTE   N12  Gs4
 BYTE   W12
 BYTE   En3
 BYTE   N12  En4
 BYTE   W12
 BYTE   As3
 BYTE   N12  As4
 BYTE   W12
// 010   ----------------------------------------
 BYTE   Gn3
 BYTE   N12  Gn4
 BYTE   W12
 BYTE   N24  Ds3
 BYTE   N24  Ds4
 BYTE   W24
 BYTE   N12  Cs4
 BYTE   N12  Cs5
 BYTE   W12
 BYTE   PEND 
 BYTE   PATT
  POIN2 Label_0_01228007
 BYTE   PATT
  POIN2 Label_0_01228027
// 011   ----------------------------------------
Label_0_0122804F:
 BYTE   N12  Ds4  v100
 BYTE   N12  Ds5
 BYTE   W12
 BYTE   Bn3
 BYTE   N12  Bn4
 BYTE   W12
 BYTE   Gs3
 BYTE   N12  Gs4
 BYTE   W12
 BYTE   Cs4
 BYTE   N12  Cs5
 BYTE   W12
 BYTE   As3
 BYTE   N12  As4
 BYTE   W12
 BYTE   N24  Gn3
 BYTE   N24  Gn4
 BYTE   W24
 BYTE   Ds4
 BYTE   N24  Ds5
 BYTE   W12
 BYTE   PEND 
// 012   ----------------------------------------
 BYTE   W12
 BYTE   N12  Bn3
 BYTE   N12  Bn4
 BYTE   W12
 BYTE   Gs3
 BYTE   N12  Gs4
 BYTE   W12
 BYTE   Cs4
 BYTE   N12  Cs5
 BYTE   W12
 BYTE   As3
 BYTE   N12  As4
 BYTE   W12
 BYTE   N24  Gn3
 BYTE   N24  Gn4
 BYTE   W24
 BYTE   N12  En4
 BYTE   N12  En5
 BYTE   W12
 BYTE   PATT
  POIN2 Label_0_0122804F
// 013   ----------------------------------------
 BYTE   W12
 BYTE   N12  Bn3  v100
 BYTE   N12  Bn4
 BYTE   W12
 BYTE   Gs3
 BYTE   N12  Gs4
 BYTE   W12
 BYTE   En4
 BYTE   N12  En5
 BYTE   W12
 BYTE   Cs4
 BYTE   N12  Cs5
 BYTE   W12
 BYTE   As3
 BYTE   N12  As4
 BYTE   W12
 BYTE   Gs3
 BYTE   N12  Bn3
 BYTE   N12  Gs4
 BYTE   N12  Bn4
 BYTE   W12
 BYTE   As3
 BYTE   N12  Cs4
 BYTE   N12  As4
 BYTE   N12  Cs5
 BYTE   W12
// 014   ----------------------------------------
Label_0_012280B7:
 BYTE   N36  Bn3  v100
 BYTE   N36  Ds4
 BYTE   N36  Bn4
 BYTE   N36  Ds5
 BYTE   W36
 BYTE   Bn3
 BYTE   N36  Gs4
 BYTE   N36  Bn4
 BYTE   N36  Gs5
 BYTE   W36
 BYTE   N24  Cs4
 BYTE   N24  As4
 BYTE   N24  Cs5
 BYTE   N24  As5
 BYTE   W24
 BYTE   PEND 
 BYTE   PATT
  POIN2 Label_0_012280B7
// 015   ----------------------------------------
 BYTE   N24  Ds4  v100
 BYTE   N24  Bn4
 BYTE   N24  Ds5
 BYTE   N24  Bn5
 BYTE   W24
 BYTE   Bn3
 BYTE   N24  Gs4
 BYTE   N24  Bn4
 BYTE   N24  Gs5
 BYTE   W24
 BYTE   Cs4
 BYTE   N24  As4
 BYTE   N24  Cs5
 BYTE   N24  As5
 BYTE   W24
 BYTE   As3
 BYTE   N24  Fs4
 BYTE   N24  As4
 BYTE   N24  Fs5
 BYTE   W24
// 016   ----------------------------------------
 BYTE   N96  Bn3
 BYTE   N96  Gs4
 BYTE   N96  Bn4
 BYTE   N96  Gs5
 BYTE   W96
// 017   ----------------------------------------
 BYTE   N36  Gs3
 BYTE   N36  Ds4
 BYTE   N36  Gs4
 BYTE   N36  Ds5
 BYTE   W36
 BYTE   Ds4
 BYTE   N36  Fs4
 BYTE   N36  Ds5
 BYTE   N36  Fs5
 BYTE   W36
 BYTE   N24  Ds4
 BYTE   N24  Gs4
 BYTE   N24  Ds5
 BYTE   N24  Gs5
 BYTE   W24
// 018   ----------------------------------------
 BYTE   N36  As3
 BYTE   N36  Cs4
 BYTE   N36  As4
 BYTE   N36  Cs5
 BYTE   W36
 BYTE   As3
 BYTE   N36  Fs4
 BYTE   N36  As4
 BYTE   N36  Fs5
 BYTE   W36
 BYTE   N24  Bn3
 BYTE   N24  Gs4
 BYTE   N24  Bn4
 BYTE   N24  Gs5
 BYTE   W24
// 019   ----------------------------------------
 BYTE   Ds3
 BYTE   N24  Bn3
 BYTE   N24  Ds4
 BYTE   N24  Bn4
 BYTE   W24
 BYTE   Bn2
 BYTE   N24  Gs3
 BYTE   N24  Bn3
 BYTE   N24  Gs4
 BYTE   W24
 BYTE   Cs3
 BYTE   N24  As3
 BYTE   N24  Cs4
 BYTE   N24  As4
 BYTE   W24
 BYTE   As2
 BYTE   N24  Fs3
 BYTE   N24  As3
 BYTE   N24  Fs4
 BYTE   W24
// 020   ----------------------------------------
 BYTE   N72  Bn2
 BYTE   N72  Gs3
 BYTE   N72  Bn3
 BYTE   N72  Gs4
 BYTE   W72
 BYTE   N12  Gs3
 BYTE   N12  Bn3
 BYTE   N12  Gs4
 BYTE   N12  Bn4
 BYTE   W12
 BYTE   Gs3
 BYTE   N12  Cs4
 BYTE   N12  Gs4
 BYTE   N12  Cs5
 BYTE   W12
 BYTE   PATT
  POIN2 Label_0_012280B7
 BYTE   PATT
  POIN2 Label_0_012280B7
// 021   ----------------------------------------
 BYTE   N24  Gs4  v100
 BYTE   N24  Bn4
 BYTE   N24  Gs5
 BYTE   N24  Bn5
 BYTE   W24
 BYTE   As4
 BYTE   N24  Cs5
 BYTE   N24  As5
 BYTE   N24  Cs6
 BYTE   W24
 BYTE   Bn4
 BYTE   N24  Ds5
 BYTE   N24  Bn5
 BYTE   N24  Ds6
 BYTE   W24
 BYTE   Cs5
 BYTE   N24  Fs5
 BYTE   N24  Cs6
 BYTE   N24  Fs6
 BYTE   W24
// 022   ----------------------------------------
 BYTE   N96  Bn4
 BYTE   N96  Ds5
 BYTE   N96  Bn5
 BYTE   N96  Ds6
 BYTE   W96
// 023   ----------------------------------------
 BYTE   N36  Bn4
 BYTE   N36  Ds5
 BYTE   N36  Bn5
 BYTE   N36  Ds6
 BYTE   W36
 BYTE   Ds4
 BYTE   N36  Gs4
 BYTE   N36  Ds5
 BYTE   N36  Gs5
 BYTE   W36
 BYTE   N24  Bn4
 BYTE   N24  Ds5
 BYTE   N24  Bn5
 BYTE   N24  Ds6
 BYTE   W24
// 024   ----------------------------------------
 BYTE   N36  As4
 BYTE   N36  Ds5
 BYTE   N36  As5
 BYTE   N36  Ds6
 BYTE   W36
 BYTE   Ds4
 BYTE   N36  Gs4
 BYTE   N36  Ds5
 BYTE   N36  Gs5
 BYTE   W36
 BYTE   N24  As4
 BYTE   N24  Ds5
 BYTE   N24  As5
 BYTE   N24  Ds6
 BYTE   W24
// 025   ----------------------------------------
 BYTE   Bn3
 BYTE   N24  Gs4
 BYTE   N24  Bn4
 BYTE   N24  Gs5
 BYTE   W24
 BYTE   Fs4
 BYTE   N24  As4
 BYTE   N24  Fs5
 BYTE   N24  As5
 BYTE   W24
 BYTE   Bn4
 BYTE   N24  Ds5
 BYTE   N24  Bn5
 BYTE   N24  Ds6
 BYTE   W24
 BYTE   Bn4
 BYTE   N24  Fs5
 BYTE   N24  Bn5
 BYTE   N24  Fs6
 BYTE   W24
// 026   ----------------------------------------
 BYTE   N96  Bn4
 BYTE   N96  Gs5
 BYTE   N96  Bn5
 BYTE   N96  Gs6
 BYTE   W96
// 027   ----------------------------------------
 BYTE   N24  Bn3
 BYTE   N24  Fs4
 BYTE   N24  Bn4
 BYTE   W24
 BYTE   N12  An3
 BYTE   N12  En4
 BYTE   N12  An4
 BYTE   W12
 BYTE   N24  Bn3
 BYTE   N24  Fs4
 BYTE   N24  Bn4
 BYTE   W24
 BYTE   N12  Bn3
 BYTE   N12  Fs4
 BYTE   N12  Bn4
 BYTE   W12
 BYTE   An3
 BYTE   N12  En4
 BYTE   N12  An4
 BYTE   W12
 BYTE   Bn3
 BYTE   N12  Fs4
 BYTE   N12  Bn4
 BYTE   W12
// 028   ----------------------------------------
 BYTE   N24  Fs3
 BYTE   N24  Dn4
 BYTE   N24  Fs4
 BYTE   W24
 BYTE   Dn4
 BYTE   N24  Fs4
 BYTE   N24  Dn5
 BYTE   W24
 BYTE   Cs4
 BYTE   N24  En4
 BYTE   N24  Cs5
 BYTE   W24
 BYTE   Bn3
 BYTE   N24  Dn4
 BYTE   N24  Bn4
 BYTE   W24
// 029   ----------------------------------------
 BYTE   Bn3
 BYTE   N24  Dn4
 BYTE   N24  Bn4
 BYTE   W24
 BYTE   N12  An3
 BYTE   N12  Cs4
 BYTE   N12  An4
 BYTE   W12
 BYTE   N24  Bn3
 BYTE   N24  Dn4
 BYTE   N24  Bn4
 BYTE   W24
 BYTE   N12  Bn3
 BYTE   N12  Dn4
 BYTE   N12  Bn4
 BYTE   W12
 BYTE   An3
 BYTE   N12  Cs4
 BYTE   N12  An4
 BYTE   W12
 BYTE   TIE  Bn3
 BYTE   TIE  Dn4
 BYTE   TIE  Bn4
 BYTE   W12
// 030   ----------------------------------------
 BYTE   W96
// 031   ----------------------------------------
 BYTE   EOT
 BYTE   Bn3  v074
 BYTE   Bn4
 BYTE   N24  Dn4
 BYTE   N24  Fs4
 BYTE   N24  Dn5
 BYTE   W24
 BYTE   N12  Cs4
 BYTE   N12  En4
 BYTE   N12  Cs5
 BYTE   W12
 BYTE   N24  Dn4
 BYTE   N24  Fs4
 BYTE   N24  Dn5
 BYTE   W24
 BYTE   N12  Dn4
 BYTE   N12  Fs4
 BYTE   N12  Dn5
 BYTE   W12
 BYTE   An3
 BYTE   N12  Cs4
 BYTE   N12  An4
 BYTE   W12
 BYTE   Dn4
 BYTE   N12  Fs4
 BYTE   N12  Dn5
 BYTE   W12
// 032   ----------------------------------------
 BYTE   N24  Bn3
 BYTE   N24  Fs4
 BYTE   N24  Bn4
 BYTE   W24
 BYTE   Fs4
 BYTE   N24  Dn5
 BYTE   N24  Fs5
 BYTE   W24
 BYTE   En4
 BYTE   N24  Cs5
 BYTE   N24  En5
 BYTE   W24
 BYTE   Dn4
 BYTE   N24  Bn4
 BYTE   N24  Dn5
 BYTE   W24
// 033   ----------------------------------------
 BYTE   Dn4
 BYTE   N24  Fs4
 BYTE   N24  Dn5
 BYTE   W24
 BYTE   N12  Cs4
 BYTE   N12  En4
 BYTE   N12  Cs5
 BYTE   W12
 BYTE   N24  Dn4
 BYTE   N24  Fs4
 BYTE   N24  Dn5
 BYTE   W24
 BYTE   N12  Dn4
 BYTE   N12  Fs4
 BYTE   N12  Dn5
 BYTE   W12
 BYTE   Cs4
 BYTE   N12  En4
 BYTE   N12  Cs5
 BYTE   W12
 BYTE   Dn4
 BYTE   N12  Fs4
 BYTE   N12  Dn5
 BYTE   W12
// 034   ----------------------------------------
 BYTE   N48  Cs4
 BYTE   N48  En4
 BYTE   N48  Cs5
 BYTE   W48
 BYTE   N18  Fs4
 BYTE   N18  As4
 BYTE   N18  Fs5
 BYTE   W18
 BYTE   Fs4
 BYTE   N18  As4
 BYTE   N18  Fs5
 BYTE   W18
 BYTE   N12  Fs4
 BYTE   N12  As4
 BYTE   N12  Fs5
 BYTE   W12
// 035   ----------------------------------------
Label_0_012282F4:
 BYTE   W60
 BYTE   N12  Bn3  v100
 BYTE   N12  Bn4
 BYTE   W12
 BYTE   En4
 BYTE   N12  En5
 BYTE   W12
 BYTE   Fs4
 BYTE   N12  Fs5
 BYTE   W12
 BYTE   PEND 
// 036   ----------------------------------------
Label_0_01228304:
 BYTE   N60  Gn4  v100
 BYTE   N60  Gn5
 BYTE   W60
 BYTE   N12  Bn3
 BYTE   N12  Bn4
 BYTE   W12
 BYTE   En4
 BYTE   N12  En5
 BYTE   W12
 BYTE   Fs4
 BYTE   N12  Fs5
 BYTE   W12
 BYTE   PEND 
// 037   ----------------------------------------
Label_0_01228318:
 BYTE   N60  Gn4  v100
 BYTE   N60  Gn5
 BYTE   W60
 BYTE   N12  En4
 BYTE   N12  En5
 BYTE   W12
 BYTE   Fs4
 BYTE   N12  Fs5
 BYTE   W12
 BYTE   Gn4
 BYTE   N12  Gn5
 BYTE   W12
 BYTE   PEND 
// 038   ----------------------------------------
Label_0_0122832C:
 BYTE   N12  Bn4  v100
 BYTE   N12  Bn5
 BYTE   W12
 BYTE   An4
 BYTE   N12  An5
 BYTE   W12
 BYTE   Bn4
 BYTE   N12  Bn5
 BYTE   W12
 BYTE   Gn4
 BYTE   N12  Gn5
 BYTE   W12
 BYTE   An4
 BYTE   N12  An5
 BYTE   W12
 BYTE   En4
 BYTE   N12  En5
 BYTE   W12
 BYTE   Fs4
 BYTE   N12  Fs5
 BYTE   W12
 BYTE   N72  Gn4
 BYTE   N72  Gn5
 BYTE   W12
 BYTE   PEND 
// 039   ----------------------------------------
Label_0_01228350:
 BYTE   W60
 BYTE   N12  Gn4  v100
 BYTE   N12  Gn5
 BYTE   W12
 BYTE   An4
 BYTE   N12  An5
 BYTE   W12
 BYTE   Bn4
 BYTE   N12  Bn5
 BYTE   W12
 BYTE   PEND 
// 040   ----------------------------------------
Label_0_01228360:
 BYTE   N60  En5  v100
 BYTE   N60  En6
 BYTE   W60
 BYTE   N12  Bn4
 BYTE   N12  Bn5
 BYTE   W12
 BYTE   Fs5
 BYTE   N12  Fs6
 BYTE   W12
 BYTE   N72  Gn5
 BYTE   N72  Gn6
 BYTE   W12
 BYTE   PEND 
// 041   ----------------------------------------
Label_0_01228375:
 BYTE   W60
 BYTE   N12  En5  v100
 BYTE   N12  En6
 BYTE   W12
 BYTE   Fs5
 BYTE   N12  Fs6
 BYTE   W12
 BYTE   Gn5
 BYTE   N12  Gn6
 BYTE   W12
 BYTE   PEND 
// 042   ----------------------------------------
Label_0_01228385:
 BYTE   N12  Gn5  v100
 BYTE   N12  Gn6
 BYTE   W12
 BYTE   En5
 BYTE   N12  En6
 BYTE   W12
 BYTE   Cn5
 BYTE   N12  Cn6
 BYTE   W12
 BYTE   Gn5
 BYTE   N12  Gn6
 BYTE   W12
 BYTE   Fs5
 BYTE   N12  Fs6
 BYTE   W12
 BYTE   Dn5
 BYTE   N12  Dn6
 BYTE   W12
 BYTE   An4
 BYTE   N12  An5
 BYTE   W12
 BYTE   N72  Bn4
 BYTE   N72  Bn5
 BYTE   W12
 BYTE   PEND 
 BYTE   PATT
  POIN2 Label_0_012282F4
 BYTE   PATT
  POIN2 Label_0_01228304
 BYTE   PATT
  POIN2 Label_0_01228318
 BYTE   PATT
  POIN2 Label_0_0122832C
 BYTE   PATT
  POIN2 Label_0_01228350
 BYTE   PATT
  POIN2 Label_0_01228360
 BYTE   PATT
  POIN2 Label_0_01228375
 BYTE   PATT
  POIN2 Label_0_01228385
// 043   ----------------------------------------
 BYTE   W96
// 044   ----------------------------------------
Label_0_012283D2:
 BYTE   N36  Cn4  v100
 BYTE   N36  Fn4
 BYTE   W36
 BYTE   N12  As3
 BYTE   N12  Ds4
 BYTE   W12
 BYTE   N48  Cn4
 BYTE   N48  Fn4
 BYTE   W48
 BYTE   PEND 
// 045   ----------------------------------------
Label_0_012283E3:
 BYTE   N12  Fn4  v100
 BYTE   N12  Gs4
 BYTE   W12
 BYTE   Ds4
 BYTE   N12  Gn4
 BYTE   W12
 BYTE   Cn4
 BYTE   N12  Fn4
 BYTE   W12
 BYTE   As3
 BYTE   N12  Ds4
 BYTE   W12
 BYTE   Cn4
 BYTE   N12  Fn4
 BYTE   W12
 BYTE   As3
 BYTE   N12  Ds4
 BYTE   W12
 BYTE   N24  Gn3
 BYTE   N24  As3
 BYTE   W24
 BYTE   PEND 
// 046   ----------------------------------------
Label_0_01228403:
 BYTE   N24  Cn4  v100
 BYTE   N24  Fn4
 BYTE   W24
 BYTE   N12  As3
 BYTE   N12  Ds4
 BYTE   W12
 BYTE   N24  Cn4
 BYTE   N24  Fn4
 BYTE   W24
 BYTE   N12  As3
 BYTE   N12  Ds4
 BYTE   W12
 BYTE   Cn4
 BYTE   N12  Fn4
 BYTE   W12
 BYTE   As3
 BYTE   N12  Ds4
 BYTE   W12
 BYTE   PEND 
// 047   ----------------------------------------
Label_0_01228421:
 BYTE   N12  Gs3  v100
 BYTE   N12  Cn4
 BYTE   W12
 BYTE   As3
 BYTE   N12  Ds4
 BYTE   W12
 BYTE   Gn3
 BYTE   N12  As3
 BYTE   W12
 BYTE   Gs3
 BYTE   N12  Cn4
 BYTE   W12
 BYTE   N12
 BYTE   N12  Fn4
 BYTE   W12
 BYTE   As3
 BYTE   N12  Ds4
 BYTE   W12
 BYTE   Gs3
 BYTE   N12  Cn4
 BYTE   W12
 BYTE   As3
 BYTE   N12  Ds4
 BYTE   W12
 BYTE   PEND 
// 048   ----------------------------------------
Label_0_01228444:
 BYTE   W12
 BYTE   N12  Gs3  v100
 BYTE   N12  Cn4
 BYTE   W12
 BYTE   Gs3
 BYTE   N12  Cn4
 BYTE   W12
 BYTE   N12
 BYTE   N12  Ds4
 BYTE   W12
 BYTE   Gs3
 BYTE   N12  Cn4
 BYTE   W24
 BYTE   Gs3
 BYTE   N12  Cn4
 BYTE   W12
 BYTE   N12
 BYTE   N12  Ds4
 BYTE   W12
 BYTE   PEND 
// 049   ----------------------------------------
Label_0_01228460:
 BYTE   N12  Cn4  v100
 BYTE   N12  Fn4
 BYTE   W12
 BYTE   As3
 BYTE   N12  Ds4
 BYTE   W12
 BYTE   Gs3
 BYTE   N12  Cn4
 BYTE   W12
 BYTE   As3
 BYTE   N12  Ds4
 BYTE   W12
 BYTE   Gs3
 BYTE   N12  Cn4
 BYTE   W12
 BYTE   Gn3
 BYTE   N12  As3
 BYTE   W12
 BYTE   Fn3
 BYTE   N12  Gs3
 BYTE   W12
 BYTE   Ds3
 BYTE   N12  Gn3
 BYTE   W12
 BYTE   PEND 
// 050   ----------------------------------------
Label_0_01228483:
 BYTE   N12  Cn3  v100
 BYTE   N12  Fn3
 BYTE   W12
 BYTE   Gs2
 BYTE   N12  Cn3
 BYTE   W12
 BYTE   N12
 BYTE   N12  Fn3
 BYTE   W12
 BYTE   Ds3
 BYTE   N12  Gn3
 BYTE   W12
 BYTE   Fn3
 BYTE   N12  Gs3
 BYTE   W12
 BYTE   Ds3
 BYTE   N12  Gn3
 BYTE   W12
 BYTE   Fn3
 BYTE   N12  Gs3
 BYTE   W12
 BYTE   Gn3
 BYTE   N12  As3
 BYTE   W12
 BYTE   PEND 
// 051   ----------------------------------------
Label_0_012284A6:
 BYTE   N24  Gs3  v100
 BYTE   N24  Cn4
 BYTE   W24
 BYTE   Gs3
 BYTE   N24  Ds4
 BYTE   W24
 BYTE   N12  As3
 BYTE   N12  Fn4
 BYTE   W12
 BYTE   Cn4
 BYTE   N12  Gn4
 BYTE   W12
 BYTE   Ds4
 BYTE   N12  Gs4
 BYTE   W12
 BYTE   Cn4
 BYTE   N12  Gn4
 BYTE   W12
 BYTE   PEND 
 BYTE   PATT
  POIN2 Label_0_012283D2
 BYTE   PATT
  POIN2 Label_0_012283E3
 BYTE   PATT
  POIN2 Label_0_01228403
 BYTE   PATT
  POIN2 Label_0_01228421
 BYTE   PATT
  POIN2 Label_0_01228444
 BYTE   PATT
  POIN2 Label_0_01228460
 BYTE   PATT
  POIN2 Label_0_01228483
 BYTE   PATT
  POIN2 Label_0_012284A6
// 052   ----------------------------------------
 BYTE   TEMPO   148*Touhou7BorderofLifeMrGreen3339_tbs/2
 BYTE   W96
// 053   ----------------------------------------
 BYTE   W96
// 054   ----------------------------------------
 BYTE   W96
// 055   ----------------------------------------
 BYTE   W96
// 056   ----------------------------------------
 BYTE   W96
// 057   ----------------------------------------
 BYTE   W96
// 058   ----------------------------------------
 BYTE   W96
// 059   ----------------------------------------
 BYTE   W96
// 060   ----------------------------------------
Label_0_012284F4:
 BYTE   N36  An3  v100
 BYTE   N36  Cs4
 BYTE   N36  An4
 BYTE   N36  Cs5
 BYTE   W36
 BYTE   An3
 BYTE   N36  Fs4
 BYTE   N36  An4
 BYTE   N36  Fs5
 BYTE   W36
 BYTE   N24  Bn3
 BYTE   N24  Gs4
 BYTE   N24  Bn4
 BYTE   N24  Gs5
 BYTE   W24
 BYTE   PEND 
 BYTE   PATT
  POIN2 Label_0_012284F4
// 061   ----------------------------------------
 BYTE   N24  Fs4  v100
 BYTE   N24  An4
 BYTE   N24  Fs5
 BYTE   N24  An5
 BYTE   W24
 BYTE   Gs4
 BYTE   N24  Bn4
 BYTE   N24  Gs5
 BYTE   N24  Bn5
 BYTE   W24
 BYTE   An4
 BYTE   N24  Cs5
 BYTE   N24  An5
 BYTE   N24  Cs6
 BYTE   W24
 BYTE   Bn4
 BYTE   N24  En5
 BYTE   N24  Bn5
 BYTE   N24  En6
 BYTE   W24
// 062   ----------------------------------------
 BYTE   N96  An4
 BYTE   N96  Cs5
 BYTE   N96  An5
 BYTE   N96  Cs6
 BYTE   W96
// 063   ----------------------------------------
 BYTE   N36  An4
 BYTE   N36  Cs5
 BYTE   N36  An5
 BYTE   N36  Cs6
 BYTE   W36
 BYTE   Cs4
 BYTE   N36  Fs4
 BYTE   N36  Cs5
 BYTE   N36  Fs5
 BYTE   W36
 BYTE   N24  An4
 BYTE   N24  Cs5
 BYTE   N24  An5
 BYTE   N24  Cs6
 BYTE   W24
// 064   ----------------------------------------
 BYTE   N36  Gs4
 BYTE   N36  Cs5
 BYTE   N36  Gs5
 BYTE   N36  Cs6
 BYTE   W36
 BYTE   Cs4
 BYTE   N36  Fs4
 BYTE   N36  Cs5
 BYTE   N36  Fs5
 BYTE   W36
 BYTE   N24  Gs4
 BYTE   N24  Cs5
 BYTE   N24  Gs5
 BYTE   N24  Cs6
 BYTE   W24
// 065   ----------------------------------------
 BYTE   An3
 BYTE   N24  Fs4
 BYTE   N24  An4
 BYTE   N24  Fs5
 BYTE   W24
 BYTE   En4
 BYTE   N24  Gs4
 BYTE   N24  En5
 BYTE   N24  Gs5
 BYTE   W24
 BYTE   An4
 BYTE   N24  Cs5
 BYTE   N24  An5
 BYTE   N24  Cs6
 BYTE   W24
 BYTE   An4
 BYTE   N24  En5
 BYTE   N24  An5
 BYTE   N24  En6
 BYTE   W24
// 066   ----------------------------------------
 BYTE   N96  An4
 BYTE   N96  Fs5
 BYTE   N96  An5
 BYTE   N96  Fs6
 BYTE   W96
// 067   ----------------------------------------
 BYTE   GoTo
  POIN2 Label_0_01228004
 BYTE   FINE

//**************** Track 2 (Midi-Chn.1) ****************//

Touhou7BorderofLifeMrGreen3339_002:
// 000   ----------------------------------------
 BYTE   KEYSH   Touhou7BorderofLifeMrGreen3339_key+0
 BYTE   VOICE   6
 BYTE   VOL   45*Touhou7BorderofLifeMrGreen3339_mvl/mxv
 BYTE   PAN   c_v-22
 BYTE   W12
 BYTE   N12  As3  v076
 BYTE   W12
 BYTE   Cn4
 BYTE   W12
 BYTE   Gs3
 BYTE   W12
 BYTE   As3
 BYTE   W12
 BYTE   Gn3
 BYTE   W12
 BYTE   Gs3
 BYTE   W12
 BYTE   N24  Fn3
 BYTE   W12
// 001   ----------------------------------------
 BYTE   W12
 BYTE   N12  As3
 BYTE   W12
 BYTE   Cn4
 BYTE   W12
 BYTE   Gs3
 BYTE   W12
 BYTE   As3
 BYTE   W12
 BYTE   Gn3
 BYTE   W12
 BYTE   Gs3
 BYTE   W12
 BYTE   Fn3
 BYTE   W12
// 002   ----------------------------------------
 BYTE   Gs3
 BYTE   W12
 BYTE   Fn3
 BYTE   W12
 BYTE   Cn3
 BYTE   W12
 BYTE   Gs3
 BYTE   W12
 BYTE   Gn3
 BYTE   W12
 BYTE   Ds3
 BYTE   W12
 BYTE   N24  As2
 BYTE   W24
// 003   ----------------------------------------
 BYTE   N12  Cn3
 BYTE   W12
 BYTE   Gn3
 BYTE   W12
 BYTE   Gs3
 BYTE   W12
 BYTE   N06  Ds3
 BYTE   W06
 BYTE   Fn3
 BYTE   W06
 BYTE   Gn3
 BYTE   W06
 BYTE   Cn3
 BYTE   W06
 BYTE   Fn3
 BYTE   W06
 BYTE   As2
 BYTE   W06
 BYTE   Cn3
 BYTE   W06
 BYTE   Ds3
 BYTE   W06
 BYTE   N24  Gs2
 BYTE   W12
// 004   ----------------------------------------
 BYTE   W12
 BYTE   N12  As2
 BYTE   W12
 BYTE   Cn3
 BYTE   W12
 BYTE   Ds3
 BYTE   W12
 BYTE   As2
 BYTE   W12
 BYTE   Cn3
 BYTE   W12
 BYTE   Ds3
 BYTE   W12
 BYTE   N24  As2
 BYTE   W12
// 005   ----------------------------------------
 BYTE   W12
 BYTE   N12  Cn3
 BYTE   W12
 BYTE   En3
 BYTE   W12
 BYTE   Gn3
 BYTE   W12
 BYTE   Cn3
 BYTE   W12
 BYTE   En3
 BYTE   W12
 BYTE   Gn3
 BYTE   W12
 BYTE   Cn3
 BYTE   W12
// 006   ----------------------------------------
 BYTE   Cn4
 BYTE   W12
 BYTE   Gs3
 BYTE   W12
 BYTE   Fn3
 BYTE   W12
 BYTE   Cn4
 BYTE   W12
 BYTE   As3
 BYTE   W12
 BYTE   Gn3
 BYTE   W12
 BYTE   Ds3
 BYTE   W12
 BYTE   As3
 BYTE   W12
// 007   ----------------------------------------
 BYTE   Gs3
 BYTE   W12
 BYTE   Fn3
 BYTE   W12
 BYTE   Cn3
 BYTE   W12
 BYTE   Gs2
 BYTE   W12
 BYTE   Gs3
 BYTE   W12
 BYTE   Fn3
 BYTE   W12
 BYTE   Cn3
 BYTE   W12
 BYTE   As2
 BYTE   W12
// 008   ----------------------------------------
Label_1_01228639:
 BYTE   W48
 BYTE   W96
// 009   ----------------------------------------
 BYTE   W96
// 010   ----------------------------------------
 BYTE   W96
// 011   ----------------------------------------
 BYTE   W96
// 012   ----------------------------------------
 BYTE   W96
// 013   ----------------------------------------
 BYTE   W96
// 014   ----------------------------------------
 BYTE   W96
// 015   ----------------------------------------
 BYTE   W96
// 016   ----------------------------------------
Label_1_01228642:
 BYTE   W12
 BYTE   N12  Cs4  v076
 BYTE   W12
 BYTE   Ds4
 BYTE   W12
 BYTE   Bn3
 BYTE   W12
 BYTE   Cs4
 BYTE   W12
 BYTE   As3
 BYTE   W12
 BYTE   Bn3
 BYTE   W12
 BYTE   N24  Gs3
 BYTE   W12
 BYTE   PEND 
// 017   ----------------------------------------
Label_1_01228655:
 BYTE   W12
 BYTE   N12  Cs4  v076
 BYTE   W12
 BYTE   Ds4
 BYTE   W12
 BYTE   Bn3
 BYTE   W12
 BYTE   Cs4
 BYTE   W12
 BYTE   As3
 BYTE   W12
 BYTE   Bn3
 BYTE   W12
 BYTE   Gs3
 BYTE   W12
 BYTE   PEND 
// 018   ----------------------------------------
Label_1_01228667:
 BYTE   N12  Bn3  v076
 BYTE   W12
 BYTE   Gs3
 BYTE   W12
 BYTE   Ds3
 BYTE   W12
 BYTE   Bn3
 BYTE   W12
 BYTE   As3
 BYTE   W12
 BYTE   Fs3
 BYTE   W12
 BYTE   N24  Cs3
 BYTE   W24
 BYTE   PEND 
// 019   ----------------------------------------
Label_1_01228679:
 BYTE   N12  Ds3  v076
 BYTE   W12
 BYTE   As3
 BYTE   W12
 BYTE   Bn3
 BYTE   W12
 BYTE   N06  Fs3
 BYTE   W06
 BYTE   Gs3
 BYTE   W06
 BYTE   As3
 BYTE   W06
 BYTE   Ds3
 BYTE   W06
 BYTE   Gs3
 BYTE   W06
 BYTE   Cs3
 BYTE   W06
 BYTE   Ds3
 BYTE   W06
 BYTE   Fs3
 BYTE   W06
 BYTE   N24  Bn2
 BYTE   W12
 BYTE   PEND 
// 020   ----------------------------------------
Label_1_01228696:
 BYTE   W12
 BYTE   N12  Cs3  v076
 BYTE   W12
 BYTE   Ds3
 BYTE   W12
 BYTE   Fs3
 BYTE   W12
 BYTE   Cs3
 BYTE   W12
 BYTE   Ds3
 BYTE   W12
 BYTE   Fs3
 BYTE   W12
 BYTE   N24  Cs3
 BYTE   W12
 BYTE   PEND 
// 021   ----------------------------------------
Label_1_012286A9:
 BYTE   W12
 BYTE   N12  Ds3  v076
 BYTE   W12
 BYTE   Gn3
 BYTE   W12
 BYTE   As3
 BYTE   W12
 BYTE   Ds3
 BYTE   W12
 BYTE   Gn3
 BYTE   W12
 BYTE   As3
 BYTE   W12
 BYTE   Ds3
 BYTE   W12
 BYTE   PEND 
// 022   ----------------------------------------
Label_1_012286BB:
 BYTE   N12  Ds4  v076
 BYTE   W12
 BYTE   Bn3
 BYTE   W12
 BYTE   Gs3
 BYTE   W12
 BYTE   Ds4
 BYTE   W12
 BYTE   Cs4
 BYTE   W12
 BYTE   As3
 BYTE   W12
 BYTE   Fs3
 BYTE   W12
 BYTE   Cs4
 BYTE   W12
 BYTE   PEND 
// 023   ----------------------------------------
Label_1_012286CE:
 BYTE   N12  Bn3  v076
 BYTE   W12
 BYTE   Gs3
 BYTE   W12
 BYTE   Ds3
 BYTE   W12
 BYTE   Bn2
 BYTE   W12
 BYTE   Bn3
 BYTE   W12
 BYTE   Gs3
 BYTE   W12
 BYTE   Ds3
 BYTE   W12
 BYTE   Cs3
 BYTE   W12
 BYTE   PEND 
 BYTE   PATT
  POIN2 Label_1_01228642
 BYTE   PATT
  POIN2 Label_1_01228655
 BYTE   PATT
  POIN2 Label_1_01228667
 BYTE   PATT
  POIN2 Label_1_01228679
 BYTE   PATT
  POIN2 Label_1_01228696
 BYTE   PATT
  POIN2 Label_1_012286A9
 BYTE   PATT
  POIN2 Label_1_012286BB
 BYTE   PATT
  POIN2 Label_1_012286CE
// 024   ----------------------------------------
 BYTE   W96
// 025   ----------------------------------------
 BYTE   W96
// 026   ----------------------------------------
 BYTE   W96
// 027   ----------------------------------------
 BYTE   W96
// 028   ----------------------------------------
 BYTE   W96
// 029   ----------------------------------------
 BYTE   W96
// 030   ----------------------------------------
 BYTE   W96
// 031   ----------------------------------------
 BYTE   W96
// 032   ----------------------------------------
 BYTE   W96
// 033   ----------------------------------------
Label_1_01228712:
 BYTE   W12
 BYTE   N12  Bn2  v076
 BYTE   W12
 BYTE   En3
 BYTE   W12
 BYTE   Fs3
 BYTE   W12
 BYTE   N48  Gn3
 BYTE   W48
 BYTE   PEND 
 BYTE   PATT
  POIN2 Label_1_01228712
// 034   ----------------------------------------
 BYTE   W12
 BYTE   N12  En3  v076
 BYTE   W12
 BYTE   Fs3
 BYTE   W12
 BYTE   Gn3
 BYTE   W12
 BYTE   An3
 BYTE   W12
 BYTE   Gn3
 BYTE   W12
 BYTE   Fs3
 BYTE   W12
 BYTE   N36  Gn3
 BYTE   W12
// 035   ----------------------------------------
 BYTE   W24
 BYTE   N24  Fs3
 BYTE   W24
 BYTE   N12  En3
 BYTE   W12
 BYTE   N24  Dn3
 BYTE   W24
 BYTE   N12  Bn2
 BYTE   W12
// 036   ----------------------------------------
 BYTE   W12
 BYTE   N12
 BYTE   W12
 BYTE   En3
 BYTE   W12
 BYTE   Fs3
 BYTE   W12
 BYTE   N24  Gn3
 BYTE   W24
 BYTE   Fs3
 BYTE   W24
// 037   ----------------------------------------
 BYTE   W12
 BYTE   N12  En3
 BYTE   W12
 BYTE   Fs3
 BYTE   W12
 BYTE   Gn3
 BYTE   W12
 BYTE   N24  Bn3
 BYTE   W24
 BYTE   An3
 BYTE   W24
// 038   ----------------------------------------
 BYTE   N12  Fs3
 BYTE   W12
 BYTE   Gn3
 BYTE   W12
 BYTE   An3
 BYTE   W12
 BYTE   N24  Bn3
 BYTE   W24
 BYTE   N12  Dn4
 BYTE   W12
 BYTE   Bn3
 BYTE   W12
 BYTE   Dn4
 BYTE   W12
// 039   ----------------------------------------
 BYTE   N24  En4
 BYTE   W24
 BYTE   Fs4
 BYTE   W24
 BYTE   N12  Gn4
 BYTE   W12
 BYTE   Fs4
 BYTE   W12
 BYTE   En4
 BYTE   W12
 BYTE   Dn4
 BYTE   W12
// 040   ----------------------------------------
 BYTE   N36  Bn3
 BYTE   N36  En4
 BYTE   W36
 BYTE   N12  An3
 BYTE   N12  Dn4
 BYTE   W12
 BYTE   N48  Bn3
 BYTE   N48  En4
 BYTE   W48
// 041   ----------------------------------------
 BYTE   N12
 BYTE   N12  Gn4
 BYTE   W12
 BYTE   Dn4
 BYTE   N12  Fs4
 BYTE   W12
 BYTE   Bn3
 BYTE   N12  En4
 BYTE   W12
 BYTE   An3
 BYTE   N12  Dn4
 BYTE   W12
 BYTE   Bn3
 BYTE   N12  En4
 BYTE   W12
 BYTE   An3
 BYTE   N12  Dn4
 BYTE   W12
 BYTE   N24  Fs3
 BYTE   N24  An3
 BYTE   W24
// 042   ----------------------------------------
 BYTE   Bn3
 BYTE   N24  En4
 BYTE   W24
 BYTE   N12  An3
 BYTE   N12  Dn4
 BYTE   W12
 BYTE   N24  Bn3
 BYTE   N24  En4
 BYTE   W24
 BYTE   N12  An3
 BYTE   N12  Dn4
 BYTE   W12
 BYTE   Bn3
 BYTE   N12  En4
 BYTE   W12
 BYTE   An3
 BYTE   N12  Dn4
 BYTE   W12
// 043   ----------------------------------------
 BYTE   Gn3
 BYTE   N12  Bn3
 BYTE   W12
 BYTE   An3
 BYTE   N12  Dn4
 BYTE   W12
 BYTE   Fs3
 BYTE   N12  An3
 BYTE   W12
 BYTE   Gn3
 BYTE   N12  Bn3
 BYTE   W12
 BYTE   N12
 BYTE   N12  En4
 BYTE   W12
 BYTE   An3
 BYTE   N12  Dn4
 BYTE   W12
 BYTE   Gn3
 BYTE   N12  Bn3
 BYTE   W12
 BYTE   An3
 BYTE   N12  Dn4
 BYTE   W12
// 044   ----------------------------------------
 BYTE   W12
 BYTE   Gn3
 BYTE   N12  Bn3
 BYTE   W12
 BYTE   Gn3
 BYTE   N12  Bn3
 BYTE   W12
 BYTE   N12
 BYTE   N12  Dn4
 BYTE   W12
 BYTE   Gn3
 BYTE   N12  Bn3
 BYTE   W24
 BYTE   Gn3
 BYTE   N12  Bn3
 BYTE   W12
 BYTE   N12
 BYTE   N12  Dn4
 BYTE   W12
// 045   ----------------------------------------
 BYTE   Bn3
 BYTE   N12  En4
 BYTE   W12
 BYTE   An3
 BYTE   N12  Dn4
 BYTE   W12
 BYTE   Gn3
 BYTE   N12  Bn3
 BYTE   W12
 BYTE   An3
 BYTE   N12  Dn4
 BYTE   W12
 BYTE   Gn3
 BYTE   N12  Bn3
 BYTE   W12
 BYTE   Fs3
 BYTE   N12  An3
 BYTE   W12
 BYTE   En3
 BYTE   N12  Gn3
 BYTE   W12
 BYTE   Dn3
 BYTE   N12  Fs3
 BYTE   W12
// 046   ----------------------------------------
 BYTE   Bn2
 BYTE   N12  En3
 BYTE   W12
 BYTE   Gn2
 BYTE   N12  Bn2
 BYTE   W12
 BYTE   N12
 BYTE   N12  En3
 BYTE   W12
 BYTE   Dn3
 BYTE   N12  Fs3
 BYTE   W12
 BYTE   En3
 BYTE   N12  Gn3
 BYTE   W12
 BYTE   Dn3
 BYTE   N12  Fs3
 BYTE   W12
 BYTE   En3
 BYTE   N12  Gn3
 BYTE   W12
 BYTE   Fs3
 BYTE   N12  An3
 BYTE   W12
// 047   ----------------------------------------
 BYTE   N24  Gn3
 BYTE   N24  Bn3
 BYTE   W24
 BYTE   Gn3
 BYTE   N24  Dn4
 BYTE   W24
 BYTE   N12  An3
 BYTE   N12  En4
 BYTE   W12
 BYTE   Bn3
 BYTE   N12  Fs4
 BYTE   W12
 BYTE   Dn4
 BYTE   N12  Gn4
 BYTE   W12
 BYTE   Bn3
 BYTE   N12  Fs4
 BYTE   W12
// 048   ----------------------------------------
Label_1_01228855:
 BYTE   N36  Cn4  v076
 BYTE   N36  Fn4
 BYTE   W36
 BYTE   N12  As3
 BYTE   N12  Ds4
 BYTE   W12
 BYTE   N48  Cn4
 BYTE   N48  Fn4
 BYTE   W48
 BYTE   PEND 
// 049   ----------------------------------------
Label_1_01228866:
 BYTE   N12  Fn4  v076
 BYTE   N12  Gs4
 BYTE   W12
 BYTE   Ds4
 BYTE   N12  Gn4
 BYTE   W12
 BYTE   Cn4
 BYTE   N12  Fn4
 BYTE   W12
 BYTE   As3
 BYTE   N12  Ds4
 BYTE   W12
 BYTE   Cn4
 BYTE   N12  Fn4
 BYTE   W12
 BYTE   As3
 BYTE   N12  Ds4
 BYTE   W12
 BYTE   N24  Gn3
 BYTE   N24  As3
 BYTE   W24
 BYTE   PEND 
// 050   ----------------------------------------
Label_1_01228886:
 BYTE   N24  Cn4  v076
 BYTE   N24  Fn4
 BYTE   W24
 BYTE   N12  As3
 BYTE   N12  Ds4
 BYTE   W12
 BYTE   N24  Cn4
 BYTE   N24  Fn4
 BYTE   W24
 BYTE   N12  As3
 BYTE   N12  Ds4
 BYTE   W12
 BYTE   Cn4
 BYTE   N12  Fn4
 BYTE   W12
 BYTE   As3
 BYTE   N12  Ds4
 BYTE   W12
 BYTE   PEND 
// 051   ----------------------------------------
Label_1_012288A4:
 BYTE   N12  Gs3  v076
 BYTE   N12  Cn4
 BYTE   W12
 BYTE   As3
 BYTE   N12  Ds4
 BYTE   W12
 BYTE   Gn3
 BYTE   N12  As3
 BYTE   W12
 BYTE   Gs3
 BYTE   N12  Cn4
 BYTE   W12
 BYTE   N12
 BYTE   N12  Fn4
 BYTE   W12
 BYTE   As3
 BYTE   N12  Ds4
 BYTE   W12
 BYTE   Gs3
 BYTE   N12  Cn4
 BYTE   W12
 BYTE   As3
 BYTE   N12  Ds4
 BYTE   W12
 BYTE   PEND 
// 052   ----------------------------------------
Label_1_012288C7:
 BYTE   W12
 BYTE   N12  Gs3  v076
 BYTE   N12  Cn4
 BYTE   W12
 BYTE   Gs3
 BYTE   N12  Cn4
 BYTE   W12
 BYTE   N12
 BYTE   N12  Ds4
 BYTE   W12
 BYTE   Gs3
 BYTE   N12  Cn4
 BYTE   W24
 BYTE   Gs3
 BYTE   N12  Cn4
 BYTE   W12
 BYTE   N12
 BYTE   N12  Ds4
 BYTE   W12
 BYTE   PEND 
// 053   ----------------------------------------
Label_1_012288E3:
 BYTE   N12  Cn4  v076
 BYTE   N12  Fn4
 BYTE   W12
 BYTE   As3
 BYTE   N12  Ds4
 BYTE   W12
 BYTE   Gs3
 BYTE   N12  Cn4
 BYTE   W12
 BYTE   As3
 BYTE   N12  Ds4
 BYTE   W12
 BYTE   Gs3
 BYTE   N12  Cn4
 BYTE   W12
 BYTE   Gn3
 BYTE   N12  As3
 BYTE   W12
 BYTE   Fn3
 BYTE   N12  Gs3
 BYTE   W12
 BYTE   Ds3
 BYTE   N12  Gn3
 BYTE   W12
 BYTE   PEND 
// 054   ----------------------------------------
Label_1_01228906:
 BYTE   N12  Cn3  v076
 BYTE   N12  Fn3
 BYTE   W12
 BYTE   Gs2
 BYTE   N12  Cn3
 BYTE   W12
 BYTE   N12
 BYTE   N12  Fn3
 BYTE   W12
 BYTE   Ds3
 BYTE   N12  Gn3
 BYTE   W12
 BYTE   Fn3
 BYTE   N12  Gs3
 BYTE   W12
 BYTE   Ds3
 BYTE   N12  Gn3
 BYTE   W12
 BYTE   Fn3
 BYTE   N12  Gs3
 BYTE   W12
 BYTE   Gn3
 BYTE   N12  As3
 BYTE   W12
 BYTE   PEND 
// 055   ----------------------------------------
Label_1_01228929:
 BYTE   N24  Gs3  v076
 BYTE   N24  Cn4
 BYTE   W24
 BYTE   Gs3
 BYTE   N24  Ds4
 BYTE   W24
 BYTE   N12  As3
 BYTE   N12  Fn4
 BYTE   W12
 BYTE   Cn4
 BYTE   N12  Gn4
 BYTE   W12
 BYTE   Ds4
 BYTE   N12  Gs4
 BYTE   W12
 BYTE   Cn4
 BYTE   N12  Gn4
 BYTE   W12
 BYTE   PEND 
 BYTE   PATT
  POIN2 Label_1_01228855
 BYTE   PATT
  POIN2 Label_1_01228866
 BYTE   PATT
  POIN2 Label_1_01228886
 BYTE   PATT
  POIN2 Label_1_012288A4
 BYTE   PATT
  POIN2 Label_1_012288C7
 BYTE   PATT
  POIN2 Label_1_012288E3
 BYTE   PATT
  POIN2 Label_1_01228906
 BYTE   PATT
  POIN2 Label_1_01228929
// 056   ----------------------------------------
Label_1_0122896D:
 BYTE   W12
 BYTE   N12  Bn3  v076
 BYTE   W12
 BYTE   Cs4
 BYTE   W12
 BYTE   An3
 BYTE   W12
 BYTE   Bn3
 BYTE   W12
 BYTE   Gs3
 BYTE   W12
 BYTE   An3
 BYTE   W12
 BYTE   N24  Fs3
 BYTE   W12
 BYTE   PEND 
// 057   ----------------------------------------
Label_1_01228980:
 BYTE   W12
 BYTE   N12  Bn3  v076
 BYTE   W12
 BYTE   Cs4
 BYTE   W12
 BYTE   An3
 BYTE   W12
 BYTE   Bn3
 BYTE   W12
 BYTE   Gs3
 BYTE   W12
 BYTE   An3
 BYTE   W12
 BYTE   Fs3
 BYTE   W12
 BYTE   PEND 
// 058   ----------------------------------------
Label_1_01228992:
 BYTE   N12  An3  v076
 BYTE   W12
 BYTE   Fs3
 BYTE   W12
 BYTE   Cs3
 BYTE   W12
 BYTE   An3
 BYTE   W12
 BYTE   Gs3
 BYTE   W12
 BYTE   En3
 BYTE   W12
 BYTE   N24  Bn2
 BYTE   W24
 BYTE   PEND 
// 059   ----------------------------------------
Label_1_012289A4:
 BYTE   N12  Cs3  v076
 BYTE   W12
 BYTE   Gs3
 BYTE   W12
 BYTE   An3
 BYTE   W12
 BYTE   N06  En3
 BYTE   W06
 BYTE   Fs3
 BYTE   W06
 BYTE   Gs3
 BYTE   W06
 BYTE   Cs3
 BYTE   W06
 BYTE   Fs3
 BYTE   W06
 BYTE   Bn2
 BYTE   W06
 BYTE   Cs3
 BYTE   W06
 BYTE   En3
 BYTE   W06
 BYTE   N24  An2
 BYTE   W12
 BYTE   PEND 
// 060   ----------------------------------------
Label_1_012289C1:
 BYTE   W12
 BYTE   N12  Bn2  v076
 BYTE   W12
 BYTE   Cs3
 BYTE   W12
 BYTE   En3
 BYTE   W12
 BYTE   Bn2
 BYTE   W12
 BYTE   Cs3
 BYTE   W12
 BYTE   En3
 BYTE   W12
 BYTE   N24  Bn2
 BYTE   W12
 BYTE   PEND 
// 061   ----------------------------------------
Label_1_012289D4:
 BYTE   W12
 BYTE   N12  Cs3  v076
 BYTE   W12
 BYTE   Fn3
 BYTE   W12
 BYTE   Gs3
 BYTE   W12
 BYTE   Cs3
 BYTE   W12
 BYTE   Fn3
 BYTE   W12
 BYTE   Gs3
 BYTE   W12
 BYTE   Cs3
 BYTE   W12
 BYTE   PEND 
// 062   ----------------------------------------
Label_1_012289E6:
 BYTE   N12  Cs4  v076
 BYTE   W12
 BYTE   An3
 BYTE   W12
 BYTE   Fs3
 BYTE   W12
 BYTE   Cs4
 BYTE   W12
 BYTE   Bn3
 BYTE   W12
 BYTE   Gs3
 BYTE   W12
 BYTE   En3
 BYTE   W12
 BYTE   Bn3
 BYTE   W12
 BYTE   PEND 
// 063   ----------------------------------------
Label_1_012289F9:
 BYTE   N12  An3  v076
 BYTE   W12
 BYTE   Fs3
 BYTE   W12
 BYTE   Cs3
 BYTE   W12
 BYTE   An2
 BYTE   W12
 BYTE   An3
 BYTE   W12
 BYTE   Fs3
 BYTE   W12
 BYTE   Cs3
 BYTE   W12
 BYTE   Bn2
 BYTE   W12
 BYTE   PEND 
 BYTE   PATT
  POIN2 Label_1_0122896D
 BYTE   PATT
  POIN2 Label_1_01228980
 BYTE   PATT
  POIN2 Label_1_01228992
 BYTE   PATT
  POIN2 Label_1_012289A4
 BYTE   PATT
  POIN2 Label_1_012289C1
 BYTE   PATT
  POIN2 Label_1_012289D4
 BYTE   PATT
  POIN2 Label_1_012289E6
 BYTE   PATT
  POIN2 Label_1_012289F9
// 064   ----------------------------------------
 BYTE   GoTo
  POIN2 Label_1_01228639
 BYTE   FINE

//**************** Track 3 (Midi-Chn.2) ****************//

Touhou7BorderofLifeMrGreen3339_003:
// 000   ----------------------------------------
 BYTE   KEYSH   Touhou7BorderofLifeMrGreen3339_key+0
 BYTE   VOICE   56
 BYTE   VOL   45*Touhou7BorderofLifeMrGreen3339_mvl/mxv
 BYTE   PAN   c_v+16
 BYTE   W96
// 001   ----------------------------------------
 BYTE   W96
// 002   ----------------------------------------
 BYTE   W96
// 003   ----------------------------------------
 BYTE   W96
// 004   ----------------------------------------
 BYTE   W96
// 005   ----------------------------------------
 BYTE   W96
// 006   ----------------------------------------
 BYTE   W96
// 007   ----------------------------------------
 BYTE   W96
// 008   ----------------------------------------
Label_2_01228A4C:
 BYTE   W48
 BYTE   W96
// 009   ----------------------------------------
 BYTE   W96
// 010   ----------------------------------------
 BYTE   W96
// 011   ----------------------------------------
 BYTE   W96
// 012   ----------------------------------------
 BYTE   W96
// 013   ----------------------------------------
 BYTE   W96
// 014   ----------------------------------------
 BYTE   W96
// 015   ----------------------------------------
 BYTE   W72
 BYTE   N12  Gs3  v088
 BYTE   N12  Bn3
 BYTE   W12
 BYTE   As3
 BYTE   N12  Cs4
 BYTE   W12
// 016   ----------------------------------------
Label_2_01228A5F:
 BYTE   N36  Bn3  v088
 BYTE   N36  Ds4
 BYTE   W36
 BYTE   Bn3
 BYTE   N36  Gs4
 BYTE   W36
 BYTE   N24  Cs4
 BYTE   N24  As4
 BYTE   W24
 BYTE   PEND 
 BYTE   PATT
  POIN2 Label_2_01228A5F
// 017   ----------------------------------------
 BYTE   N24  Ds4  v088
 BYTE   N24  Bn4
 BYTE   W24
 BYTE   Bn3
 BYTE   N24  Gs4
 BYTE   W24
 BYTE   Cs4
 BYTE   N24  As4
 BYTE   W24
 BYTE   As3
 BYTE   N24  Fs4
 BYTE   W24
// 018   ----------------------------------------
 BYTE   N96  Bn3
 BYTE   N96  Gs4
 BYTE   W96
// 019   ----------------------------------------
 BYTE   N36  Gs3
 BYTE   N36  Ds4
 BYTE   W36
 BYTE   N36
 BYTE   N36  Fs4
 BYTE   W36
 BYTE   N24  Ds4
 BYTE   N24  Gs4
 BYTE   W24
// 020   ----------------------------------------
 BYTE   N36  As3
 BYTE   N36  Cs4
 BYTE   W36
 BYTE   As3
 BYTE   N36  Fs4
 BYTE   W36
 BYTE   N24  Bn3
 BYTE   N24  Gs4
 BYTE   W24
// 021   ----------------------------------------
 BYTE   Ds3
 BYTE   N24  Bn3
 BYTE   W24
 BYTE   Bn2
 BYTE   N24  Gs3
 BYTE   W24
 BYTE   Cs3
 BYTE   N24  As3
 BYTE   W24
 BYTE   As2
 BYTE   N24  Fs3
 BYTE   W24
// 022   ----------------------------------------
 BYTE   N72  Bn2
 BYTE   N72  Gs3
 BYTE   W72
 BYTE   N12
 BYTE   N12  Bn3
 BYTE   W12
 BYTE   As3
 BYTE   N12  Cs4
 BYTE   W12
 BYTE   PATT
  POIN2 Label_2_01228A5F
 BYTE   PATT
  POIN2 Label_2_01228A5F
// 023   ----------------------------------------
 BYTE   N24  Gs4  v088
 BYTE   N24  Bn4
 BYTE   W24
 BYTE   As4
 BYTE   N24  Cs5
 BYTE   W24
 BYTE   Bn4
 BYTE   N24  Ds5
 BYTE   W24
 BYTE   Cs5
 BYTE   N24  Fs5
 BYTE   W24
// 024   ----------------------------------------
 BYTE   N96  Bn4
 BYTE   N96  Ds5
 BYTE   W96
// 025   ----------------------------------------
 BYTE   N36  Bn4
 BYTE   N36  Ds5
 BYTE   W36
 BYTE   Ds4
 BYTE   N36  Gs4
 BYTE   W36
 BYTE   N24  Bn4
 BYTE   N24  Ds5
 BYTE   W24
// 026   ----------------------------------------
 BYTE   N36  As4
 BYTE   N36  Ds5
 BYTE   W36
 BYTE   Ds4
 BYTE   N36  Gs4
 BYTE   W36
 BYTE   N24  As4
 BYTE   N24  Ds5
 BYTE   W24
// 027   ----------------------------------------
 BYTE   Bn3
 BYTE   N24  Gs4
 BYTE   W24
 BYTE   Fs4
 BYTE   N24  As4
 BYTE   W24
 BYTE   Bn4
 BYTE   N24  Ds5
 BYTE   W24
 BYTE   Bn4
 BYTE   N24  Fs5
 BYTE   W24
// 028   ----------------------------------------
 BYTE   N96  Bn4
 BYTE   N96  Gs5
 BYTE   W96
// 029   ----------------------------------------
 BYTE   W96
// 030   ----------------------------------------
 BYTE   W96
// 031   ----------------------------------------
 BYTE   W96
// 032   ----------------------------------------
 BYTE   W96
// 033   ----------------------------------------
 BYTE   W96
// 034   ----------------------------------------
 BYTE   W96
// 035   ----------------------------------------
 BYTE   W96
// 036   ----------------------------------------
 BYTE   W96
// 037   ----------------------------------------
 BYTE   W96
// 038   ----------------------------------------
 BYTE   W96
// 039   ----------------------------------------
 BYTE   W96
// 040   ----------------------------------------
 BYTE   W96
// 041   ----------------------------------------
 BYTE   W96
// 042   ----------------------------------------
 BYTE   W96
// 043   ----------------------------------------
 BYTE   W96
// 044   ----------------------------------------
 BYTE   W96
// 045   ----------------------------------------
 BYTE   W96
// 046   ----------------------------------------
 BYTE   W96
// 047   ----------------------------------------
 BYTE   W96
// 048   ----------------------------------------
 BYTE   W96
// 049   ----------------------------------------
 BYTE   W96
// 050   ----------------------------------------
 BYTE   W96
// 051   ----------------------------------------
 BYTE   W96
// 052   ----------------------------------------
 BYTE   W96
// 053   ----------------------------------------
 BYTE   W48
 BYTE   N02  As3
 BYTE   W02
 BYTE   Bn3
 BYTE   W02
 BYTE   Cn4
 BYTE   W02
 BYTE   Cs4
 BYTE   W02
 BYTE   Dn4
 BYTE   W02
 BYTE   Ds4
 BYTE   W02
 BYTE   En4
 BYTE   W02
 BYTE   Fn4
 BYTE   W02
 BYTE   Fs4
 BYTE   W02
 BYTE   Gn4
 BYTE   W02
 BYTE   Gs4
 BYTE   W02
 BYTE   An4
 BYTE   W02
 BYTE   As4
 BYTE   W02
 BYTE   Bn4
 BYTE   W02
 BYTE   Cn5
 BYTE   W02
 BYTE   Cs5
 BYTE   W02
 BYTE   Dn5
 BYTE   W02
 BYTE   Ds5
 BYTE   W02
 BYTE   En5
 BYTE   W02
 BYTE   Fn5
 BYTE   W02
 BYTE   Fs5
 BYTE   W02
 BYTE   Gn5
 BYTE   W02
 BYTE   Gs5
 BYTE   W02
 BYTE   An5
 BYTE   W02
// 054   ----------------------------------------
 BYTE   N36  Fn4
 BYTE   W36
 BYTE   N12  Ds4
 BYTE   W12
 BYTE   N24  Fn4
 BYTE   W24
 BYTE   Ds4
 BYTE   W24
// 055   ----------------------------------------
 BYTE   N72  Fn4
 BYTE   W72
 BYTE   N24  Ds4
 BYTE   W24
// 056   ----------------------------------------
 BYTE   Fn4
 BYTE   W24
 BYTE   N12  Ds4
 BYTE   W12
 BYTE   N24  Fn4
 BYTE   W24
 BYTE   N12  Ds4
 BYTE   W12
 BYTE   Fn4
 BYTE   W12
 BYTE   Ds4
 BYTE   W12
// 057   ----------------------------------------
 BYTE   N24  Gs4
 BYTE   W24
 BYTE   Gn4
 BYTE   W24
 BYTE   N12  Fn4
 BYTE   W12
 BYTE   Ds4
 BYTE   W12
 BYTE   Cn4
 BYTE   W12
 BYTE   Ds4
 BYTE   W12
// 058   ----------------------------------------
 BYTE   N48  Fn4
 BYTE   W48
 BYTE   Cn5
 BYTE   W48
// 059   ----------------------------------------
 BYTE   N72  Gn4
 BYTE   W72
 BYTE   N12  Fn4
 BYTE   W12
 BYTE   Ds4
 BYTE   W12
// 060   ----------------------------------------
 BYTE   N24  Fn4
 BYTE   W24
 BYTE   Cn5
 BYTE   W24
 BYTE   As4
 BYTE   W24
 BYTE   Ds5
 BYTE   W24
// 061   ----------------------------------------
Label_2_01228BA4:
 BYTE   N72  Fn5  v088
 BYTE   W72
 BYTE   N12  Cn5
 BYTE   W12
 BYTE   Ds5
 BYTE   W12
 BYTE   PEND 
 BYTE   PATT
  POIN2 Label_2_01228BA4
 BYTE   PATT
  POIN2 Label_2_01228BA4
// 062   ----------------------------------------
 BYTE   N24  Fn5  v088
 BYTE   W24
 BYTE   N12  Ds5
 BYTE   W12
 BYTE   N24  Fn5
 BYTE   W24
 BYTE   N12  Ds5
 BYTE   W12
 BYTE   Fn5
 BYTE   W12
 BYTE   Ds5
 BYTE   W12
// 063   ----------------------------------------
 BYTE   N24  Gs5
 BYTE   W24
 BYTE   Gn5
 BYTE   W24
 BYTE   N12  Fn5
 BYTE   W12
 BYTE   Ds5
 BYTE   W12
 BYTE   Cn5
 BYTE   W12
 BYTE   Ds5
 BYTE   W12
 BYTE   PATT
  POIN2 Label_2_01228BA4
// 064   ----------------------------------------
 BYTE   N60  As4  v088
 BYTE   W72
 BYTE   N12  Gs4
 BYTE   W12
 BYTE   Gn4
 BYTE   W12
// 065   ----------------------------------------
 BYTE   N24  Gs4
 BYTE   W24
 BYTE   N12  Gn4
 BYTE   W12
 BYTE   N24  Gs4
 BYTE   W24
 BYTE   N12  Fn4
 BYTE   W12
 BYTE   Gn4
 BYTE   W12
 BYTE   Ds4
 BYTE   W12
// 066   ----------------------------------------
 BYTE   Fn4
 BYTE   W12
 BYTE   Cn4
 BYTE   W12
 BYTE   Ds4
 BYTE   W12
 BYTE   As3
 BYTE   W12
 BYTE   Cn4
 BYTE   W12
 BYTE   Gs3
 BYTE   W12
 BYTE   As3
 BYTE   W12
 BYTE   Gn3
 BYTE   W12
// 067   ----------------------------------------
 BYTE   W96
// 068   ----------------------------------------
 BYTE   W96
// 069   ----------------------------------------
 BYTE   W96
// 070   ----------------------------------------
 BYTE   W96
// 071   ----------------------------------------
 BYTE   W96
// 072   ----------------------------------------
 BYTE   W96
// 073   ----------------------------------------
 BYTE   W96
// 074   ----------------------------------------
 BYTE   W96
// 075   ----------------------------------------
Label_2_01228C0D:
 BYTE   N36  An3  v088
 BYTE   N36  Cs4
 BYTE   W36
 BYTE   An3
 BYTE   N36  Fs4
 BYTE   W36
 BYTE   N24  Bn3
 BYTE   N24  Gs4
 BYTE   W24
 BYTE   PEND 
 BYTE   PATT
  POIN2 Label_2_01228C0D
// 076   ----------------------------------------
 BYTE   N24  Fs4  v088
 BYTE   N24  An4
 BYTE   W24
 BYTE   Gs4
 BYTE   N24  Bn4
 BYTE   W24
 BYTE   An4
 BYTE   N24  Cs5
 BYTE   W24
 BYTE   Bn4
 BYTE   N24  En5
 BYTE   W24
// 077   ----------------------------------------
 BYTE   N96  An4
 BYTE   N96  Cs5
 BYTE   W96
// 078   ----------------------------------------
 BYTE   N36  An4
 BYTE   N36  Cs5
 BYTE   W36
 BYTE   Cs4
 BYTE   N36  Fs4
 BYTE   W36
 BYTE   N24  An4
 BYTE   N24  Cs5
 BYTE   W24
// 079   ----------------------------------------
 BYTE   N36  Gs4
 BYTE   N36  Cs5
 BYTE   W36
 BYTE   Cs4
 BYTE   N36  Fs4
 BYTE   W36
 BYTE   N24  Gs4
 BYTE   N24  Cs5
 BYTE   W24
// 080   ----------------------------------------
 BYTE   An3
 BYTE   N24  Fs4
 BYTE   W24
 BYTE   En4
 BYTE   N24  Gs4
 BYTE   W24
 BYTE   An4
 BYTE   N24  Cs5
 BYTE   W24
 BYTE   An4
 BYTE   N24  En5
 BYTE   W24
// 081   ----------------------------------------
 BYTE   N96  An4
 BYTE   N96  Fs5
 BYTE   W96
// 082   ----------------------------------------
 BYTE   GoTo
  POIN2 Label_2_01228A4C
 BYTE   FINE

//**************** Track 4 (Midi-Chn.3) ****************//

Touhou7BorderofLifeMrGreen3339_004:
// 000   ----------------------------------------
 BYTE   KEYSH   Touhou7BorderofLifeMrGreen3339_key+0
 BYTE   VOICE   0
 BYTE   VOL   45*Touhou7BorderofLifeMrGreen3339_mvl/mxv
 BYTE   PAN   c_v+0
 BYTE   W96
// 001   ----------------------------------------
 BYTE   W96
// 002   ----------------------------------------
 BYTE   W96
// 003   ----------------------------------------
 BYTE   W96
// 004   ----------------------------------------
 BYTE   W96
// 005   ----------------------------------------
 BYTE   W96
// 006   ----------------------------------------
 BYTE   W96
// 007   ----------------------------------------
 BYTE   W96
// 008   ----------------------------------------
Label_3_01228C80:
 BYTE   W48
 BYTE   N06  En2  v048
 BYTE   W06
 BYTE   Gs2
 BYTE   W06
 BYTE   Bn2
 BYTE   W06
 BYTE   En3
 BYTE   W06
 BYTE   Gs3
 BYTE   W06
 BYTE   Bn3
 BYTE   W06
 BYTE   As4
 BYTE   W06
 BYTE   Gn4
 BYTE   W06
// 009   ----------------------------------------
 BYTE   Ds4
 BYTE   W06
 BYTE   Gs4
 BYTE   W06
 BYTE   Gn4
 BYTE   W06
 BYTE   Ds4
 BYTE   W06
 BYTE   As3
 BYTE   W06
 BYTE   Gn3
 BYTE   W06
 BYTE   En3
 BYTE   W06
 BYTE   Gs3
 BYTE   W06
 BYTE   Bn3
 BYTE   W06
 BYTE   En4
 BYTE   W06
 BYTE   Gs4
 BYTE   W06
 BYTE   Bn4
 BYTE   W06
 BYTE   Gs4
 BYTE   W06
 BYTE   Bn4
 BYTE   W06
 BYTE   Cs5
 BYTE   W06
 BYTE   As4
 BYTE   W06
// 010   ----------------------------------------
 BYTE   Gn4
 BYTE   W06
 BYTE   As4
 BYTE   W06
 BYTE   Gs4
 BYTE   W06
 BYTE   Gn4
 BYTE   W06
 BYTE   Cs4
 BYTE   W06
 BYTE   Ds4
 BYTE   W06
 BYTE   Bn3
 BYTE   W06
 BYTE   As3
 BYTE   W06
 BYTE   Gs3
 BYTE   W06
 BYTE   En3
 BYTE   W06
 BYTE   Bn3
 BYTE   W06
 BYTE   En3
 BYTE   W06
 BYTE   Fs4
 BYTE   W06
 BYTE   Gs4
 BYTE   W06
 BYTE   As4
 BYTE   W06
 BYTE   Cs4
 BYTE   W06
// 011   ----------------------------------------
 BYTE   As4
 BYTE   W06
 BYTE   Gs4
 BYTE   W06
 BYTE   Bn3
 BYTE   W06
 BYTE   Gs4
 BYTE   W06
 BYTE   Gn4
 BYTE   W06
 BYTE   As3
 BYTE   W06
 BYTE   Gn4
 BYTE   W06
 BYTE   Fs4
 BYTE   W06
 BYTE   En4
 BYTE   W06
 BYTE   Cs4
 BYTE   W06
 BYTE   En4
 BYTE   W06
 BYTE   Ds4
 BYTE   W06
 BYTE   Gs3
 BYTE   W06
 BYTE   Ds4
 BYTE   W06
 BYTE   Cs4
 BYTE   W06
 BYTE   Fs3
 BYTE   W06
// 012   ----------------------------------------
 BYTE   Cs4
 BYTE   W06
 BYTE   Bn3
 BYTE   W06
 BYTE   As3
 BYTE   W06
 BYTE   Gs3
 BYTE   W06
 BYTE   As3
 BYTE   W06
 BYTE   Fs3
 BYTE   W06
 BYTE   Gs3
 BYTE   W06
 BYTE   Cs3
 BYTE   W06
 BYTE   En3
 BYTE   N06  Gs3
 BYTE   W06
 BYTE   Gs4
 BYTE   W06
 BYTE   Bn4
 BYTE   W06
 BYTE   As4
 BYTE   W06
 BYTE   Gs4
 BYTE   W06
 BYTE   Fs4
 BYTE   W06
 BYTE   As4
 BYTE   W06
 BYTE   Gn4
 BYTE   W06
// 013   ----------------------------------------
 BYTE   Gs4
 BYTE   W06
 BYTE   As4
 BYTE   W06
 BYTE   Gs4
 BYTE   W06
 BYTE   Gn4
 BYTE   W06
 BYTE   Bn3
 BYTE   W06
 BYTE   As3
 BYTE   W06
 BYTE   Fs3
 BYTE   W06
 BYTE   As2
 BYTE   W06
 BYTE   Bn2
 BYTE   W06
 BYTE   Gs2
 BYTE   W06
 BYTE   Bn3
 BYTE   W06
 BYTE   Gs3
 BYTE   W06
 BYTE   As3
 BYTE   W06
 BYTE   Fs3
 BYTE   W06
 BYTE   Gn3
 BYTE   W06
 BYTE   As3
 BYTE   W06
// 014   ----------------------------------------
 BYTE   Gn4
 BYTE   W06
 BYTE   As4
 BYTE   W06
 BYTE   Bn4
 BYTE   W06
 BYTE   Cs5
 BYTE   W06
 BYTE   Bn4
 BYTE   W06
 BYTE   Gn4
 BYTE   W06
 BYTE   Cs5
 BYTE   W06
 BYTE   Bn4
 BYTE   W06
 BYTE   Bn3
 BYTE   W06
 BYTE   Gs3
 BYTE   W06
 BYTE   As3
 BYTE   W06
 BYTE   Gn3
 BYTE   W06
 BYTE   Gs3
 BYTE   W06
 BYTE   Gn3
 BYTE   W06
 BYTE   As3
 BYTE   W06
 BYTE   Gs3
 BYTE   W06
// 015   ----------------------------------------
 BYTE   As3
 BYTE   W06
 BYTE   Gs3
 BYTE   W06
 BYTE   Cs4
 BYTE   W06
 BYTE   As3
 BYTE   W06
 BYTE   Gn4
 BYTE   W06
 BYTE   Gs4
 BYTE   W06
 BYTE   As4
 BYTE   W06
 BYTE   Gn4
 BYTE   W06
 BYTE   Cs4
 BYTE   W06
 BYTE   Bn3
 BYTE   W06
 BYTE   As3
 BYTE   W06
 BYTE   Gs3
 BYTE   W06
 BYTE   Bn2
 BYTE   W06
 BYTE   As2
 BYTE   W06
 BYTE   Bn2
 BYTE   W06
 BYTE   Cs3
 BYTE   W06
// 016   ----------------------------------------
 BYTE   Bn2
 BYTE   W06
 BYTE   As2
 BYTE   W06
 BYTE   Gs2
 BYTE   W06
 BYTE   Gn2
 BYTE   W06
 BYTE   Fs2
 BYTE   W06
 BYTE   En2
 BYTE   W06
 BYTE   Ds2
 BYTE   W06
 BYTE   Cs2
 BYTE   W06
Label_3_01228D85:
 BYTE   N06  Ds5  v048
 BYTE   W06
 BYTE   Bn4
 BYTE   W06
 BYTE   Cs5
 BYTE   W06
 BYTE   As4
 BYTE   W06
 BYTE   Bn4
 BYTE   W06
 BYTE   Gs4
 BYTE   W06
 BYTE   Cs5
 BYTE   W06
 BYTE   As4
 BYTE   W06
// 017   ----------------------------------------
 BYTE   Ds5
 BYTE   W06
 BYTE   Bn4
 BYTE   W06
 BYTE   Cs5
 BYTE   W06
 BYTE   As4
 BYTE   W06
 BYTE   Bn4
 BYTE   W06
 BYTE   Gs4
 BYTE   W06
 BYTE   Cs5
 BYTE   W06
 BYTE   As4
 BYTE   W06
 BYTE   PEND 
 BYTE   PATT
  POIN2 Label_3_01228D85
// 018   ----------------------------------------
Label_3_01228DAD:
 BYTE   N06  Gs4  v048
 BYTE   W06
 BYTE   Ds4
 BYTE   W06
 BYTE   Bn3
 BYTE   W06
 BYTE   Gs4
 BYTE   W06
 BYTE   Fs4
 BYTE   W06
 BYTE   Ds4
 BYTE   W06
 BYTE   Bn3
 BYTE   W06
 BYTE   Gs4
 BYTE   W06
 BYTE   Fs4
 BYTE   W06
 BYTE   Cs4
 BYTE   W06
 BYTE   As3
 BYTE   W06
 BYTE   Fs4
 BYTE   W06
 BYTE   Ds4
 BYTE   W06
 BYTE   Cs4
 BYTE   W06
 BYTE   As3
 BYTE   W06
 BYTE   Fs4
 BYTE   W06
 BYTE   PEND 
// 019   ----------------------------------------
Label_3_01228DD0:
 BYTE   N06  Ds4  v048
 BYTE   W06
 BYTE   Bn3
 BYTE   W06
 BYTE   Gs3
 BYTE   W06
 BYTE   Ds4
 BYTE   W06
 BYTE   Cs4
 BYTE   W06
 BYTE   As3
 BYTE   W06
 BYTE   Fs3
 BYTE   W06
 BYTE   Cs4
 BYTE   W06
 BYTE   Bn3
 BYTE   W06
 BYTE   As3
 BYTE   W06
 BYTE   Gs3
 BYTE   W06
 BYTE   Fs3
 BYTE   W06
 BYTE   Ds3
 BYTE   W06
 BYTE   Fs3
 BYTE   W06
 BYTE   Ds3
 BYTE   W06
 BYTE   Cs3
 BYTE   W06
 BYTE   PEND 
// 020   ----------------------------------------
Label_3_01228DF3:
 BYTE   N06  Gs3  v048
 BYTE   W06
 BYTE   Ds3
 BYTE   W06
 BYTE   Cs3
 BYTE   W06
 BYTE   Bn2
 BYTE   W06
 BYTE   Gs3
 BYTE   W06
 BYTE   Ds3
 BYTE   W06
 BYTE   Cs3
 BYTE   W06
 BYTE   Bn2
 BYTE   W06
 BYTE   Ds3
 BYTE   W06
 BYTE   Cs3
 BYTE   W06
 BYTE   Bn2
 BYTE   W06
 BYTE   As2
 BYTE   W06
 BYTE   Cs3
 BYTE   W06
 BYTE   As2
 BYTE   W06
 BYTE   Gs2
 BYTE   W06
 BYTE   Fs2
 BYTE   W06
 BYTE   PEND 
// 021   ----------------------------------------
Label_3_01228E16:
 BYTE   N06  As3  v048
 BYTE   W06
 BYTE   Ds3
 BYTE   W06
 BYTE   Cs3
 BYTE   W06
 BYTE   Ds3
 BYTE   W06
 BYTE   As3
 BYTE   W06
 BYTE   Ds3
 BYTE   W06
 BYTE   Cs3
 BYTE   W06
 BYTE   Ds3
 BYTE   W06
 BYTE   As3
 BYTE   W06
 BYTE   Ds3
 BYTE   W06
 BYTE   Cs3
 BYTE   W06
 BYTE   Ds3
 BYTE   W06
 BYTE   As3
 BYTE   W06
 BYTE   Ds3
 BYTE   W06
 BYTE   Cs3
 BYTE   W06
 BYTE   Ds3
 BYTE   W06
 BYTE   PEND 
// 022   ----------------------------------------
Label_3_01228E39:
 BYTE   N06  Bn3  v048
 BYTE   W06
 BYTE   Gs3
 BYTE   W06
 BYTE   Ds3
 BYTE   W06
 BYTE   Bn3
 BYTE   W06
 BYTE   Gs3
 BYTE   W06
 BYTE   Ds3
 BYTE   W06
 BYTE   Bn3
 BYTE   W06
 BYTE   Gs3
 BYTE   W06
 BYTE   Cs4
 BYTE   W06
 BYTE   As3
 BYTE   W06
 BYTE   Fs3
 BYTE   W06
 BYTE   Cs4
 BYTE   W06
 BYTE   As3
 BYTE   W06
 BYTE   Fs3
 BYTE   W06
 BYTE   Cs4
 BYTE   W06
 BYTE   As3
 BYTE   W06
 BYTE   PEND 
// 023   ----------------------------------------
Label_3_01228E5C:
 BYTE   N06  Bn3  v048
 BYTE   W06
 BYTE   Cs4
 BYTE   W06
 BYTE   Ds4
 BYTE   W06
 BYTE   Gs4
 BYTE   W06
 BYTE   Bn3
 BYTE   W06
 BYTE   Cs4
 BYTE   W06
 BYTE   Ds4
 BYTE   W06
 BYTE   As4
 BYTE   W06
 BYTE   Bn3
 BYTE   W06
 BYTE   Cs4
 BYTE   W06
 BYTE   Ds4
 BYTE   W06
 BYTE   Bn4
 BYTE   W06
 BYTE   Cs5
 BYTE   W06
 BYTE   As4
 BYTE   W06
 BYTE   Gs4
 BYTE   W06
 BYTE   Fs4
 BYTE   W06
 BYTE   PEND 
 BYTE   PATT
  POIN2 Label_3_01228D85
 BYTE   PATT
  POIN2 Label_3_01228D85
 BYTE   PATT
  POIN2 Label_3_01228DAD
 BYTE   PATT
  POIN2 Label_3_01228DD0
 BYTE   PATT
  POIN2 Label_3_01228DF3
 BYTE   PATT
  POIN2 Label_3_01228E16
 BYTE   PATT
  POIN2 Label_3_01228E39
 BYTE   PATT
  POIN2 Label_3_01228E5C
// 024   ----------------------------------------
 BYTE   W96
// 025   ----------------------------------------
 BYTE   W96
// 026   ----------------------------------------
 BYTE   W96
// 027   ----------------------------------------
 BYTE   W96
// 028   ----------------------------------------
 BYTE   W96
// 029   ----------------------------------------
 BYTE   W96
// 030   ----------------------------------------
 BYTE   W96
// 031   ----------------------------------------
 BYTE   W96
// 032   ----------------------------------------
 BYTE   W96
// 033   ----------------------------------------
 BYTE   W96
// 034   ----------------------------------------
 BYTE   W96
// 035   ----------------------------------------
 BYTE   W96
// 036   ----------------------------------------
 BYTE   W96
// 037   ----------------------------------------
 BYTE   W96
// 038   ----------------------------------------
 BYTE   W96
// 039   ----------------------------------------
 BYTE   W96
// 040   ----------------------------------------
 BYTE   W96
// 041   ----------------------------------------
 BYTE   W96
// 042   ----------------------------------------
 BYTE   W96
// 043   ----------------------------------------
 BYTE   W96
// 044   ----------------------------------------
 BYTE   W96
// 045   ----------------------------------------
 BYTE   W96
// 046   ----------------------------------------
 BYTE   W96
// 047   ----------------------------------------
 BYTE   W96
// 048   ----------------------------------------
 BYTE   W96
// 049   ----------------------------------------
 BYTE   W96
// 050   ----------------------------------------
 BYTE   W96
// 051   ----------------------------------------
 BYTE   W96
// 052   ----------------------------------------
 BYTE   W96
// 053   ----------------------------------------
 BYTE   W96
// 054   ----------------------------------------
 BYTE   W96
// 055   ----------------------------------------
 BYTE   W96
// 056   ----------------------------------------
 BYTE   W96
// 057   ----------------------------------------
 BYTE   W96
// 058   ----------------------------------------
 BYTE   W96
// 059   ----------------------------------------
 BYTE   W96
// 060   ----------------------------------------
 BYTE   W96
// 061   ----------------------------------------
 BYTE   W96
// 062   ----------------------------------------
 BYTE   W96
// 063   ----------------------------------------
 BYTE   W96
// 064   ----------------------------------------
 BYTE   W96
// 065   ----------------------------------------
 BYTE   W96
// 066   ----------------------------------------
 BYTE   W96
// 067   ----------------------------------------
 BYTE   W96
// 068   ----------------------------------------
 BYTE   W96
// 069   ----------------------------------------
 BYTE   W96
// 070   ----------------------------------------
 BYTE   W96
// 071   ----------------------------------------
 BYTE   W96
// 072   ----------------------------------------
 BYTE   W96
// 073   ----------------------------------------
 BYTE   W96
// 074   ----------------------------------------
 BYTE   W96
// 075   ----------------------------------------
 BYTE   W96
// 076   ----------------------------------------
 BYTE   W96
// 077   ----------------------------------------
 BYTE   W96
// 078   ----------------------------------------
 BYTE   W96
// 079   ----------------------------------------
 BYTE   W96
// 080   ----------------------------------------
 BYTE   W96
// 081   ----------------------------------------
 BYTE   GoTo
  POIN2 Label_3_01228C80
 BYTE   FINE

//**************** Track 5 (Midi-Chn.4) ****************//

Touhou7BorderofLifeMrGreen3339_005:
// 000   ----------------------------------------
 BYTE   KEYSH   Touhou7BorderofLifeMrGreen3339_key+0
 BYTE   VOICE   15
 BYTE   VOL   45*Touhou7BorderofLifeMrGreen3339_mvl/mxv
 BYTE   PAN   c_v+0
 BYTE   W96
// 001   ----------------------------------------
 BYTE   W96
// 002   ----------------------------------------
 BYTE   W96
// 003   ----------------------------------------
 BYTE   W96
// 004   ----------------------------------------
 BYTE   W96
// 005   ----------------------------------------
 BYTE   W96
// 006   ----------------------------------------
 BYTE   W96
// 007   ----------------------------------------
 BYTE   W96
// 008   ----------------------------------------
Label_4_01228EF8:
 BYTE   W48
 BYTE   W96
// 009   ----------------------------------------
 BYTE   W96
// 010   ----------------------------------------
 BYTE   W96
// 011   ----------------------------------------
 BYTE   W96
// 012   ----------------------------------------
 BYTE   W96
// 013   ----------------------------------------
 BYTE   W96
// 014   ----------------------------------------
 BYTE   W96
// 015   ----------------------------------------
 BYTE   W96
// 016   ----------------------------------------
 BYTE   W96
// 017   ----------------------------------------
 BYTE   W96
// 018   ----------------------------------------
 BYTE   W96
// 019   ----------------------------------------
 BYTE   W96
// 020   ----------------------------------------
 BYTE   W96
// 021   ----------------------------------------
 BYTE   W96
// 022   ----------------------------------------
 BYTE   W96
// 023   ----------------------------------------
 BYTE   W96
// 024   ----------------------------------------
 BYTE   W96
// 025   ----------------------------------------
 BYTE   W96
// 026   ----------------------------------------
 BYTE   W96
// 027   ----------------------------------------
 BYTE   W96
// 028   ----------------------------------------
 BYTE   W96
// 029   ----------------------------------------
 BYTE   W96
// 030   ----------------------------------------
 BYTE   W96
// 031   ----------------------------------------
 BYTE   W96
// 032   ----------------------------------------
 BYTE   W96
// 033   ----------------------------------------
 BYTE   W96
// 034   ----------------------------------------
 BYTE   W96
// 035   ----------------------------------------
 BYTE   W96
// 036   ----------------------------------------
 BYTE   W96
// 037   ----------------------------------------
 BYTE   W96
// 038   ----------------------------------------
 BYTE   W96
// 039   ----------------------------------------
 BYTE   W96
// 040   ----------------------------------------
 BYTE   W96
// 041   ----------------------------------------
Label_4_01228F1A:
 BYTE   N06  Bn2  v064
 BYTE   W06
 BYTE   Gn3
 BYTE   W06
 BYTE   Fs3
 BYTE   W06
 BYTE   Gn3
 BYTE   W06
 BYTE   Bn3
 BYTE   W06
 BYTE   Gn3
 BYTE   W06
 BYTE   Fs3
 BYTE   W06
 BYTE   Gn3
 BYTE   W06
 BYTE   Bn2
 BYTE   W06
 BYTE   Gn3
 BYTE   W06
 BYTE   Fs3
 BYTE   W06
 BYTE   Gn3
 BYTE   W06
 BYTE   Bn3
 BYTE   W06
 BYTE   Gn3
 BYTE   W06
 BYTE   Fs3
 BYTE   W06
 BYTE   Gn3
 BYTE   W06
 BYTE   PEND 
// 042   ----------------------------------------
Label_4_01228F3D:
 BYTE   N06  En3  v064
 BYTE   W06
 BYTE   Bn3
 BYTE   W06
 BYTE   An3
 BYTE   W06
 BYTE   Bn3
 BYTE   W06
 BYTE   En4
 BYTE   W06
 BYTE   Bn3
 BYTE   W06
 BYTE   An3
 BYTE   W06
 BYTE   Bn3
 BYTE   W06
 BYTE   En3
 BYTE   W06
 BYTE   Bn3
 BYTE   W06
 BYTE   An3
 BYTE   W06
 BYTE   Bn3
 BYTE   W06
 BYTE   En4
 BYTE   W06
 BYTE   Bn3
 BYTE   W06
 BYTE   An3
 BYTE   W06
 BYTE   Gn3
 BYTE   W06
 BYTE   PEND 
// 043   ----------------------------------------
Label_4_01228F60:
 BYTE   N06  An3  v064
 BYTE   W06
 BYTE   Fs3
 BYTE   W06
 BYTE   Cn3
 BYTE   W06
 BYTE   Gn4
 BYTE   W06
 BYTE   Fs4
 BYTE   W06
 BYTE   En4
 BYTE   W06
 BYTE   Dn4
 BYTE   W06
 BYTE   Cn4
 BYTE   W06
 BYTE   An3
 BYTE   W06
 BYTE   Gn3
 BYTE   W06
 BYTE   Dn3
 BYTE   W06
 BYTE   An4
 BYTE   W06
 BYTE   Gn4
 BYTE   W06
 BYTE   Fs4
 BYTE   W06
 BYTE   En4
 BYTE   W06
 BYTE   Dn4
 BYTE   W06
 BYTE   PEND 
// 044   ----------------------------------------
Label_4_01228F83:
 BYTE   N06  En3  v064
 BYTE   W06
 BYTE   Fs3
 BYTE   W06
 BYTE   Gn3
 BYTE   W06
 BYTE   Bn3
 BYTE   W06
 BYTE   En4
 BYTE   W06
 BYTE   Fs4
 BYTE   W06
 BYTE   Gn4
 BYTE   W06
 BYTE   Bn4
 BYTE   W06
 BYTE   En3
 BYTE   W06
 BYTE   Fs3
 BYTE   W06
 BYTE   Gn3
 BYTE   W06
 BYTE   Bn3
 BYTE   W06
 BYTE   An3
 BYTE   W06
 BYTE   Gn3
 BYTE   W06
 BYTE   Fs3
 BYTE   W06
 BYTE   En3
 BYTE   W06
 BYTE   PEND 
// 045   ----------------------------------------
Label_4_01228FA6:
 BYTE   N06  Bn3  v064
 BYTE   W06
 BYTE   Gn4
 BYTE   W06
 BYTE   Fs4
 BYTE   W06
 BYTE   Gn4
 BYTE   W06
 BYTE   Bn4
 BYTE   W06
 BYTE   Gn4
 BYTE   W06
 BYTE   Fs4
 BYTE   W06
 BYTE   Gn4
 BYTE   W06
 BYTE   Bn3
 BYTE   W06
 BYTE   Gn4
 BYTE   W06
 BYTE   Fs4
 BYTE   W06
 BYTE   Gn4
 BYTE   W06
 BYTE   Bn4
 BYTE   W06
 BYTE   Gn4
 BYTE   W06
 BYTE   Fs4
 BYTE   W06
 BYTE   Gn4
 BYTE   W06
 BYTE   PEND 
// 046   ----------------------------------------
Label_4_01228FC9:
 BYTE   N06  En4  v064
 BYTE   W06
 BYTE   Bn4
 BYTE   W06
 BYTE   An4
 BYTE   W06
 BYTE   Bn4
 BYTE   W06
 BYTE   En5
 BYTE   W06
 BYTE   Bn4
 BYTE   W06
 BYTE   An4
 BYTE   W06
 BYTE   Bn4
 BYTE   W06
 BYTE   En4
 BYTE   W06
 BYTE   Bn4
 BYTE   W06
 BYTE   An4
 BYTE   W06
 BYTE   Bn4
 BYTE   W06
 BYTE   En5
 BYTE   W06
 BYTE   Bn4
 BYTE   W06
 BYTE   An4
 BYTE   W06
 BYTE   Gn4
 BYTE   W06
 BYTE   PEND 
// 047   ----------------------------------------
Label_4_01228FEC:
 BYTE   N06  An4  v064
 BYTE   W06
 BYTE   Fs4
 BYTE   W06
 BYTE   Cn4
 BYTE   W06
 BYTE   Gn5
 BYTE   W06
 BYTE   Fs5
 BYTE   W06
 BYTE   En5
 BYTE   W06
 BYTE   Dn5
 BYTE   W06
 BYTE   Cn5
 BYTE   W06
 BYTE   An4
 BYTE   W06
 BYTE   Gn4
 BYTE   W06
 BYTE   Dn4
 BYTE   W06
 BYTE   An5
 BYTE   W06
 BYTE   Gn5
 BYTE   W06
 BYTE   Fs5
 BYTE   W06
 BYTE   En5
 BYTE   W06
 BYTE   Dn5
 BYTE   W06
 BYTE   PEND 
// 048   ----------------------------------------
Label_4_0122900F:
 BYTE   N06  En4  v064
 BYTE   W06
 BYTE   Fs4
 BYTE   W06
 BYTE   Gn4
 BYTE   W06
 BYTE   Bn4
 BYTE   W06
 BYTE   En5
 BYTE   W06
 BYTE   Fs5
 BYTE   W06
 BYTE   Gn5
 BYTE   W06
 BYTE   Bn5
 BYTE   W06
 BYTE   En4
 BYTE   W06
 BYTE   Fs4
 BYTE   W06
 BYTE   Gn4
 BYTE   W06
 BYTE   Bn4
 BYTE   W06
 BYTE   An4
 BYTE   W06
 BYTE   Gn4
 BYTE   W06
 BYTE   Fs4
 BYTE   W06
 BYTE   En4
 BYTE   W06
 BYTE   PEND 
 BYTE   PATT
  POIN2 Label_4_01228F1A
 BYTE   PATT
  POIN2 Label_4_01228F3D
 BYTE   PATT
  POIN2 Label_4_01228F60
 BYTE   PATT
  POIN2 Label_4_01228F83
 BYTE   PATT
  POIN2 Label_4_01228FA6
 BYTE   PATT
  POIN2 Label_4_01228FC9
 BYTE   PATT
  POIN2 Label_4_01228FEC
 BYTE   PATT
  POIN2 Label_4_0122900F
// 049   ----------------------------------------
Label_4_0122905A:
 BYTE   N06  Cn3  v064
 BYTE   W06
 BYTE   Gs3
 BYTE   W06
 BYTE   Gn3
 BYTE   W06
 BYTE   Gs3
 BYTE   W06
 BYTE   Cn4
 BYTE   W06
 BYTE   Gs3
 BYTE   W06
 BYTE   Gn3
 BYTE   W06
 BYTE   Gs3
 BYTE   W06
 BYTE   Cn3
 BYTE   W06
 BYTE   Gs3
 BYTE   W06
 BYTE   Gn3
 BYTE   W06
 BYTE   Gs3
 BYTE   W06
 BYTE   Cn4
 BYTE   W06
 BYTE   Gs3
 BYTE   W06
 BYTE   Gn3
 BYTE   W06
 BYTE   Gs3
 BYTE   W06
 BYTE   PEND 
// 050   ----------------------------------------
Label_4_0122907D:
 BYTE   N06  Fn3  v064
 BYTE   W06
 BYTE   Cn4
 BYTE   W06
 BYTE   As3
 BYTE   W06
 BYTE   Cn4
 BYTE   W06
 BYTE   Fn4
 BYTE   W06
 BYTE   Cn4
 BYTE   W06
 BYTE   As3
 BYTE   W06
 BYTE   Cn4
 BYTE   W06
 BYTE   Fn3
 BYTE   W06
 BYTE   Cn4
 BYTE   W06
 BYTE   As3
 BYTE   W06
 BYTE   Cn4
 BYTE   W06
 BYTE   Fn4
 BYTE   W06
 BYTE   Cn4
 BYTE   W06
 BYTE   As3
 BYTE   W06
 BYTE   Gs3
 BYTE   W06
 BYTE   PEND 
// 051   ----------------------------------------
Label_4_012290A0:
 BYTE   N06  As3  v064
 BYTE   W06
 BYTE   Gn3
 BYTE   W06
 BYTE   Cs3
 BYTE   W06
 BYTE   Gs4
 BYTE   W06
 BYTE   Gn4
 BYTE   W06
 BYTE   Fn4
 BYTE   W06
 BYTE   Ds4
 BYTE   W06
 BYTE   Cs4
 BYTE   W06
 BYTE   As3
 BYTE   W06
 BYTE   Gs3
 BYTE   W06
 BYTE   Ds3
 BYTE   W06
 BYTE   As4
 BYTE   W06
 BYTE   Gs4
 BYTE   W06
 BYTE   Gn4
 BYTE   W06
 BYTE   Fn4
 BYTE   W06
 BYTE   Ds4
 BYTE   W06
 BYTE   PEND 
// 052   ----------------------------------------
Label_4_012290C3:
 BYTE   N06  Fn3  v064
 BYTE   W06
 BYTE   Gn3
 BYTE   W06
 BYTE   Gs3
 BYTE   W06
 BYTE   Cn4
 BYTE   W06
 BYTE   Fn4
 BYTE   W06
 BYTE   Gn4
 BYTE   W06
 BYTE   Gs4
 BYTE   W06
 BYTE   Cn5
 BYTE   W06
 BYTE   Fn3
 BYTE   W06
 BYTE   Gn3
 BYTE   W06
 BYTE   Gs3
 BYTE   W06
 BYTE   Cn4
 BYTE   W06
 BYTE   As3
 BYTE   W06
 BYTE   Gs3
 BYTE   W06
 BYTE   Gn3
 BYTE   W06
 BYTE   Fn3
 BYTE   W06
 BYTE   PEND 
// 053   ----------------------------------------
Label_4_012290E6:
 BYTE   N06  Cn4  v064
 BYTE   W06
 BYTE   Gs4
 BYTE   W06
 BYTE   Gn4
 BYTE   W06
 BYTE   Gs4
 BYTE   W06
 BYTE   Cn5
 BYTE   W06
 BYTE   Gs4
 BYTE   W06
 BYTE   Gn4
 BYTE   W06
 BYTE   Gs4
 BYTE   W06
 BYTE   Cn4
 BYTE   W06
 BYTE   Gs4
 BYTE   W06
 BYTE   Gn4
 BYTE   W06
 BYTE   Gs4
 BYTE   W06
 BYTE   Cn5
 BYTE   W06
 BYTE   Gs4
 BYTE   W06
 BYTE   Gn4
 BYTE   W06
 BYTE   Gs4
 BYTE   W06
 BYTE   PEND 
// 054   ----------------------------------------
Label_4_01229109:
 BYTE   N06  Fn4  v064
 BYTE   W06
 BYTE   Cn5
 BYTE   W06
 BYTE   As4
 BYTE   W06
 BYTE   Cn5
 BYTE   W06
 BYTE   Fn5
 BYTE   W06
 BYTE   Cn5
 BYTE   W06
 BYTE   As4
 BYTE   W06
 BYTE   Cn5
 BYTE   W06
 BYTE   Fn4
 BYTE   W06
 BYTE   Cn5
 BYTE   W06
 BYTE   As4
 BYTE   W06
 BYTE   Cn5
 BYTE   W06
 BYTE   Fn5
 BYTE   W06
 BYTE   Cn5
 BYTE   W06
 BYTE   As4
 BYTE   W06
 BYTE   Gs4
 BYTE   W06
 BYTE   PEND 
// 055   ----------------------------------------
Label_4_0122912C:
 BYTE   N06  As4  v064
 BYTE   W06
 BYTE   Gn4
 BYTE   W06
 BYTE   Cs4
 BYTE   W06
 BYTE   Gs5
 BYTE   W06
 BYTE   Gn5
 BYTE   W06
 BYTE   Fn5
 BYTE   W06
 BYTE   Ds5
 BYTE   W06
 BYTE   Cs5
 BYTE   W06
 BYTE   As4
 BYTE   W06
 BYTE   Gs4
 BYTE   W06
 BYTE   Ds4
 BYTE   W06
 BYTE   As5
 BYTE   W06
 BYTE   Gs5
 BYTE   W06
 BYTE   Gn5
 BYTE   W06
 BYTE   Fn5
 BYTE   W06
 BYTE   Ds5
 BYTE   W06
 BYTE   PEND 
// 056   ----------------------------------------
Label_4_0122914F:
 BYTE   N06  Fn4  v064
 BYTE   W06
 BYTE   Gn4
 BYTE   W06
 BYTE   Gs4
 BYTE   W06
 BYTE   Cn5
 BYTE   W06
 BYTE   Fn5
 BYTE   W06
 BYTE   Gn5
 BYTE   W06
 BYTE   Gs5
 BYTE   W06
 BYTE   Cn6
 BYTE   W06
 BYTE   Fn4
 BYTE   W06
 BYTE   Gn4
 BYTE   W06
 BYTE   Gs4
 BYTE   W06
 BYTE   Cn5
 BYTE   W06
 BYTE   As4
 BYTE   W06
 BYTE   Gs4
 BYTE   W06
 BYTE   Gn4
 BYTE   W06
 BYTE   Fn4
 BYTE   W06
 BYTE   PEND 
 BYTE   PATT
  POIN2 Label_4_0122905A
 BYTE   PATT
  POIN2 Label_4_0122907D
 BYTE   PATT
  POIN2 Label_4_012290A0
 BYTE   PATT
  POIN2 Label_4_012290C3
 BYTE   PATT
  POIN2 Label_4_012290E6
 BYTE   PATT
  POIN2 Label_4_01229109
 BYTE   PATT
  POIN2 Label_4_0122912C
 BYTE   PATT
  POIN2 Label_4_0122914F
// 057   ----------------------------------------
 BYTE   W96
// 058   ----------------------------------------
 BYTE   W96
// 059   ----------------------------------------
 BYTE   W96
// 060   ----------------------------------------
 BYTE   W96
// 061   ----------------------------------------
 BYTE   W96
// 062   ----------------------------------------
 BYTE   W96
// 063   ----------------------------------------
 BYTE   W96
// 064   ----------------------------------------
 BYTE   W96
// 065   ----------------------------------------
 BYTE   W96
// 066   ----------------------------------------
 BYTE   W96
// 067   ----------------------------------------
 BYTE   W96
// 068   ----------------------------------------
 BYTE   W96
// 069   ----------------------------------------
 BYTE   W96
// 070   ----------------------------------------
 BYTE   W96
// 071   ----------------------------------------
 BYTE   W96
// 072   ----------------------------------------
 BYTE   W96
// 073   ----------------------------------------
 BYTE   GoTo
  POIN2 Label_4_01228EF8
 BYTE   FINE

//**************** Track 6 (Midi-Chn.5) ****************//

Touhou7BorderofLifeMrGreen3339_006:
// 000   ----------------------------------------
 BYTE   KEYSH   Touhou7BorderofLifeMrGreen3339_key+0
 BYTE   VOICE   24
 BYTE   VOL   45*Touhou7BorderofLifeMrGreen3339_mvl/mxv
 BYTE   PAN   c_v-24
 BYTE   N12  Fn2  v068
 BYTE   W12
 BYTE   Gs2
 BYTE   W12
 BYTE   Cn3
 BYTE   W12
 BYTE   Fn3
 BYTE   W12
 BYTE   Cn3
 BYTE   W12
 BYTE   Fn3
 BYTE   W12
 BYTE   Gs3
 BYTE   W12
 BYTE   Cn4
 BYTE   W12
// 001   ----------------------------------------
 BYTE   Ds2
 BYTE   W12
 BYTE   Gn2
 BYTE   W12
 BYTE   Cn3
 BYTE   W12
 BYTE   Ds3
 BYTE   W12
 BYTE   Cn3
 BYTE   W12
 BYTE   Ds3
 BYTE   W12
 BYTE   Gn3
 BYTE   W12
 BYTE   Cn4
 BYTE   W12
// 002   ----------------------------------------
 BYTE   Cs1
 BYTE   W12
 BYTE   Gs1
 BYTE   W12
 BYTE   Fn2
 BYTE   W12
 BYTE   Gs2
 BYTE   W12
 BYTE   Ds2
 BYTE   W12
 BYTE   As2
 BYTE   W12
 BYTE   Gn3
 BYTE   W12
 BYTE   As3
 BYTE   W12
// 003   ----------------------------------------
 BYTE   Fn2
 BYTE   W12
 BYTE   Gs2
 BYTE   W12
 BYTE   Cn3
 BYTE   W12
 BYTE   Fn3
 BYTE   W12
 BYTE   Cn3
 BYTE   W12
 BYTE   Fn3
 BYTE   W12
 BYTE   Gs3
 BYTE   W12
 BYTE   Cn4
 BYTE   W12
// 004   ----------------------------------------
 BYTE   As1
 BYTE   W12
 BYTE   Fn2
 BYTE   W12
 BYTE   As2
 BYTE   W12
 BYTE   Fn3
 BYTE   W12
 BYTE   As2
 BYTE   W12
 BYTE   Cs3
 BYTE   W12
 BYTE   Fn3
 BYTE   W12
 BYTE   As3
 BYTE   W12
// 005   ----------------------------------------
 BYTE   Cn1
 BYTE   W12
 BYTE   En1
 BYTE   W12
 BYTE   Gn1
 BYTE   W12
 BYTE   Cn2
 BYTE   W12
 BYTE   Gn2
 BYTE   W12
 BYTE   Cn3
 BYTE   W12
 BYTE   En3
 BYTE   W12
 BYTE   Gn3
 BYTE   W12
// 006   ----------------------------------------
 BYTE   Cs2
 BYTE   W12
 BYTE   Gs2
 BYTE   W12
 BYTE   Cs3
 BYTE   W12
 BYTE   Gs3
 BYTE   W12
 BYTE   Ds2
 BYTE   W12
 BYTE   As2
 BYTE   W12
 BYTE   Ds3
 BYTE   W12
 BYTE   As3
 BYTE   W12
// 007   ----------------------------------------
 BYTE   Gs1
 BYTE   W12
 BYTE   Cn2
 BYTE   W12
 BYTE   Fn2
 BYTE   W12
 BYTE   Gs1
 BYTE   W12
 BYTE   Cn2
 BYTE   W12
 BYTE   Fn2
 BYTE   W12
 BYTE   N24  Gs2
 BYTE   W24
// 008   ----------------------------------------
Label_5_01229239:
 BYTE   W48
 BYTE   W96
// 009   ----------------------------------------
 BYTE   W96
// 010   ----------------------------------------
 BYTE   W96
// 011   ----------------------------------------
 BYTE   W96
// 012   ----------------------------------------
 BYTE   W96
// 013   ----------------------------------------
 BYTE   W96
// 014   ----------------------------------------
 BYTE   W96
// 015   ----------------------------------------
 BYTE   W96
// 016   ----------------------------------------
 BYTE   W96
// 017   ----------------------------------------
 BYTE   W96
// 018   ----------------------------------------
 BYTE   W96
// 019   ----------------------------------------
 BYTE   W96
// 020   ----------------------------------------
 BYTE   W96
// 021   ----------------------------------------
 BYTE   W96
// 022   ----------------------------------------
 BYTE   W96
// 023   ----------------------------------------
 BYTE   W96
// 024   ----------------------------------------
 BYTE   W96
// 025   ----------------------------------------
 BYTE   W96
// 026   ----------------------------------------
 BYTE   W96
// 027   ----------------------------------------
 BYTE   W96
// 028   ----------------------------------------
 BYTE   W96
// 029   ----------------------------------------
 BYTE   W96
// 030   ----------------------------------------
 BYTE   W96
// 031   ----------------------------------------
 BYTE   W96
// 032   ----------------------------------------
 BYTE   W96
// 033   ----------------------------------------
 BYTE   W96
// 034   ----------------------------------------
 BYTE   W96
// 035   ----------------------------------------
 BYTE   W96
// 036   ----------------------------------------
 BYTE   W96
// 037   ----------------------------------------
 BYTE   W96
// 038   ----------------------------------------
 BYTE   W96
// 039   ----------------------------------------
 BYTE   W96
// 040   ----------------------------------------
 BYTE   W96
// 041   ----------------------------------------
 BYTE   W96
// 042   ----------------------------------------
 BYTE   W96
// 043   ----------------------------------------
 BYTE   W96
// 044   ----------------------------------------
 BYTE   W96
// 045   ----------------------------------------
 BYTE   W96
// 046   ----------------------------------------
 BYTE   W96
// 047   ----------------------------------------
 BYTE   W96
// 048   ----------------------------------------
 BYTE   W96
// 049   ----------------------------------------
 BYTE   W96
// 050   ----------------------------------------
 BYTE   W96
// 051   ----------------------------------------
 BYTE   W96
// 052   ----------------------------------------
 BYTE   W96
// 053   ----------------------------------------
 BYTE   W96
// 054   ----------------------------------------
 BYTE   W96
// 055   ----------------------------------------
 BYTE   W96
// 056   ----------------------------------------
 BYTE   W96
// 057   ----------------------------------------
 BYTE   W96
// 058   ----------------------------------------
 BYTE   W96
// 059   ----------------------------------------
 BYTE   W96
// 060   ----------------------------------------
 BYTE   W96
// 061   ----------------------------------------
 BYTE   W96
// 062   ----------------------------------------
 BYTE   W96
// 063   ----------------------------------------
 BYTE   W96
// 064   ----------------------------------------
 BYTE   W96
// 065   ----------------------------------------
 BYTE   W96
// 066   ----------------------------------------
 BYTE   W96
// 067   ----------------------------------------
 BYTE   W96
// 068   ----------------------------------------
 BYTE   W96
// 069   ----------------------------------------
 BYTE   W96
// 070   ----------------------------------------
 BYTE   W96
// 071   ----------------------------------------
 BYTE   W96
// 072   ----------------------------------------
 BYTE   W96
// 073   ----------------------------------------
Label_5_0122927B:
 BYTE   N12  Fs2  v068
 BYTE   W12
 BYTE   An2
 BYTE   W12
 BYTE   Cs3
 BYTE   W12
 BYTE   Fs3
 BYTE   W12
 BYTE   Cs3
 BYTE   W12
 BYTE   Fs3
 BYTE   W12
 BYTE   An3
 BYTE   W12
 BYTE   Cs4
 BYTE   W12
 BYTE   PEND 
// 074   ----------------------------------------
Label_5_0122928E:
 BYTE   N12  En2  v068
 BYTE   W12
 BYTE   Gs2
 BYTE   W12
 BYTE   Cs3
 BYTE   W12
 BYTE   En3
 BYTE   W12
 BYTE   Cs3
 BYTE   W12
 BYTE   En3
 BYTE   W12
 BYTE   Gs3
 BYTE   W12
 BYTE   Cs4
 BYTE   W12
 BYTE   PEND 
// 075   ----------------------------------------
Label_5_012292A1:
 BYTE   N12  Dn1  v068
 BYTE   W12
 BYTE   An1
 BYTE   W12
 BYTE   Fs2
 BYTE   W12
 BYTE   An2
 BYTE   W12
 BYTE   En2
 BYTE   W12
 BYTE   Bn2
 BYTE   W12
 BYTE   Gs3
 BYTE   W12
 BYTE   Bn3
 BYTE   W12
 BYTE   PEND 
 BYTE   PATT
  POIN2 Label_5_0122927B
// 076   ----------------------------------------
Label_5_012292B9:
 BYTE   N12  Bn1  v068
 BYTE   W12
 BYTE   Fs2
 BYTE   W12
 BYTE   Bn2
 BYTE   W12
 BYTE   Fs3
 BYTE   W12
 BYTE   Bn2
 BYTE   W12
 BYTE   Dn3
 BYTE   W12
 BYTE   Fs3
 BYTE   W12
 BYTE   Bn3
 BYTE   W12
 BYTE   PEND 
// 077   ----------------------------------------
Label_5_012292CC:
 BYTE   N12  Cs1  v068
 BYTE   W12
 BYTE   Fn1
 BYTE   W12
 BYTE   Gs1
 BYTE   W12
 BYTE   Cs2
 BYTE   W12
 BYTE   Gs2
 BYTE   W12
 BYTE   Cs3
 BYTE   W12
 BYTE   Fn3
 BYTE   W12
 BYTE   Gs3
 BYTE   W12
 BYTE   PEND 
// 078   ----------------------------------------
Label_5_012292DF:
 BYTE   N12  Dn2  v068
 BYTE   W12
 BYTE   An2
 BYTE   W12
 BYTE   Dn3
 BYTE   W12
 BYTE   An3
 BYTE   W12
 BYTE   En2
 BYTE   W12
 BYTE   Bn2
 BYTE   W12
 BYTE   En3
 BYTE   W12
 BYTE   Bn3
 BYTE   W12
 BYTE   PEND 
// 079   ----------------------------------------
Label_5_012292F2:
 BYTE   N12  An1  v068
 BYTE   W12
 BYTE   Cs2
 BYTE   W12
 BYTE   Fs2
 BYTE   W12
 BYTE   An1
 BYTE   W12
 BYTE   Cs2
 BYTE   W12
 BYTE   Fs2
 BYTE   W12
 BYTE   N24  An2
 BYTE   W24
 BYTE   PEND 
 BYTE   PATT
  POIN2 Label_5_0122927B
 BYTE   PATT
  POIN2 Label_5_0122928E
 BYTE   PATT
  POIN2 Label_5_012292A1
 BYTE   PATT
  POIN2 Label_5_0122927B
 BYTE   PATT
  POIN2 Label_5_012292B9
 BYTE   PATT
  POIN2 Label_5_012292CC
 BYTE   PATT
  POIN2 Label_5_012292DF
 BYTE   PATT
  POIN2 Label_5_012292F2
// 080   ----------------------------------------
 BYTE   GoTo
  POIN2 Label_5_01229239
 BYTE   FINE

//**************** Track 7 (Midi-Chn.6) ****************//

Touhou7BorderofLifeMrGreen3339_007:
// 000   ----------------------------------------
 BYTE   KEYSH   Touhou7BorderofLifeMrGreen3339_key+0
 BYTE   VOICE   48
 BYTE   VOL   45*Touhou7BorderofLifeMrGreen3339_mvl/mxv
 BYTE   PAN   c_v+8
 BYTE   N36  Gs3  v068
 BYTE   N36  Cn4
 BYTE   W36
 BYTE   Gs3
 BYTE   N36  Fn4
 BYTE   W36
 BYTE   N24  As3
 BYTE   N24  Gn4
 BYTE   W24
// 001   ----------------------------------------
 BYTE   N36  Gs3
 BYTE   N36  Cn4
 BYTE   W36
 BYTE   Gs3
 BYTE   N36  Fn4
 BYTE   W36
 BYTE   N24  As3
 BYTE   N24  Gn4
 BYTE   W24
// 002   ----------------------------------------
 BYTE   Cn4
 BYTE   N24  Gs4
 BYTE   W24
 BYTE   Gs3
 BYTE   N24  Fn4
 BYTE   W24
 BYTE   As3
 BYTE   N24  Gn4
 BYTE   W24
 BYTE   Gn3
 BYTE   N24  Ds4
 BYTE   W24
// 003   ----------------------------------------
 BYTE   N96  Gs3
 BYTE   N96  Fn4
 BYTE   W96
// 004   ----------------------------------------
 BYTE   N36  Fn3
 BYTE   N36  Cn4
 BYTE   W36
 BYTE   Fn3
 BYTE   N36  Ds4
 BYTE   W36
 BYTE   N24  Gs3
 BYTE   N24  Fn4
 BYTE   W24
// 005   ----------------------------------------
 BYTE   N36  Gn3
 BYTE   N36  As3
 BYTE   W36
 BYTE   Gn3
 BYTE   N36  Ds4
 BYTE   W36
 BYTE   N24  Gs3
 BYTE   N24  Fn4
 BYTE   W24
// 006   ----------------------------------------
 BYTE   Cn3
 BYTE   N24  Gs3
 BYTE   W24
 BYTE   Gs2
 BYTE   N24  Fn3
 BYTE   W24
 BYTE   As2
 BYTE   N24  Gn3
 BYTE   W24
 BYTE   Gn2
 BYTE   N24  Ds3
 BYTE   W24
// 007   ----------------------------------------
 BYTE   N96  Gs2
 BYTE   N96  Fn3
 BYTE   W96
// 008   ----------------------------------------
Label_6_0122939F:
 BYTE   W48
Label_6_012293A0:
 BYTE   N12  Bn2  v068
 BYTE   N12  Bn3
 BYTE   W12
 BYTE   Gs2
 BYTE   N12  Gs3
 BYTE   W12
 BYTE   En2
 BYTE   N12  En3
 BYTE   W12
 BYTE   As2
 BYTE   N12  As3
 BYTE   W12
// 009   ----------------------------------------
 BYTE   Gn2
 BYTE   N12  Gn3
 BYTE   W12
 BYTE   N24  Ds2
 BYTE   N24  Ds3
 BYTE   W24
 BYTE   Bn2
 BYTE   N24  Bn3
 BYTE   W12
 BYTE   PEND 
Label_6_012293C0:
 BYTE   W12
 BYTE   N12  Gs2  v068
 BYTE   N12  Gs3
 BYTE   W12
 BYTE   En2
 BYTE   N12  En3
 BYTE   W12
 BYTE   As2
 BYTE   N12  As3
 BYTE   W12
// 010   ----------------------------------------
 BYTE   Gn2
 BYTE   N12  Gn3
 BYTE   W12
 BYTE   N24  Ds2
 BYTE   N24  Ds3
 BYTE   W24
 BYTE   N12  Cs3
 BYTE   N12  Cs4
 BYTE   W12
 BYTE   PEND 
 BYTE   PATT
  POIN2 Label_6_012293A0
 BYTE   PATT
  POIN2 Label_6_012293C0
// 011   ----------------------------------------
Label_6_012293E8:
 BYTE   N12  Ds3  v068
 BYTE   N12  Ds4
 BYTE   W12
 BYTE   Bn2
 BYTE   N12  Bn3
 BYTE   W12
 BYTE   Gs2
 BYTE   N12  Gs3
 BYTE   W12
 BYTE   Cs3
 BYTE   N12  Cs4
 BYTE   W12
 BYTE   As2
 BYTE   N12  As3
 BYTE   W12
 BYTE   N24  Gn2
 BYTE   N24  Gn3
 BYTE   W24
 BYTE   Ds3
 BYTE   N24  Ds4
 BYTE   W12
 BYTE   PEND 
// 012   ----------------------------------------
 BYTE   W12
 BYTE   N12  Bn2
 BYTE   N12  Bn3
 BYTE   W12
 BYTE   Gs2
 BYTE   N12  Gs3
 BYTE   W12
 BYTE   Cs3
 BYTE   N12  Cs4
 BYTE   W12
 BYTE   As2
 BYTE   N12  As3
 BYTE   W12
 BYTE   N24  Gn2
 BYTE   N24  Gn3
 BYTE   W24
 BYTE   N12  En3
 BYTE   N12  En4
 BYTE   W12
 BYTE   PATT
  POIN2 Label_6_012293E8
// 013   ----------------------------------------
 BYTE   W12
 BYTE   N12  Bn2  v068
 BYTE   N12  Bn3
 BYTE   W12
 BYTE   Gs2
 BYTE   N12  Gs3
 BYTE   W12
 BYTE   En3
 BYTE   N12  En4
 BYTE   W12
 BYTE   Cs3
 BYTE   N12  Cs4
 BYTE   W12
 BYTE   As2
 BYTE   N12  As3
 BYTE   W12
 BYTE   Bn2
 BYTE   N12  Bn3
 BYTE   W12
 BYTE   Cs3
 BYTE   N12  Cs4
 BYTE   W12
// 014   ----------------------------------------
Label_6_01229448:
 BYTE   N36  Bn3  v068
 BYTE   N36  Ds4
 BYTE   W36
 BYTE   Bn3
 BYTE   N36  Gs4
 BYTE   W36
 BYTE   N24  Cs4
 BYTE   N24  As4
 BYTE   W24
 BYTE   PEND 
 BYTE   PATT
  POIN2 Label_6_01229448
// 015   ----------------------------------------
 BYTE   N24  Ds4  v068
 BYTE   N24  Bn4
 BYTE   W24
 BYTE   Bn3
 BYTE   N24  Gs4
 BYTE   W24
 BYTE   Cs4
 BYTE   N24  As4
 BYTE   W24
 BYTE   As3
 BYTE   N24  Fs4
 BYTE   W24
// 016   ----------------------------------------
 BYTE   N96  Bn3
 BYTE   N96  Gs4
 BYTE   W96
// 017   ----------------------------------------
 BYTE   N36  Gs3
 BYTE   N36  Ds4
 BYTE   W36
 BYTE   N36
 BYTE   N36  Fs4
 BYTE   W36
 BYTE   N24  Ds4
 BYTE   N24  Gs4
 BYTE   W24
// 018   ----------------------------------------
 BYTE   N36  As3
 BYTE   N36  Cs4
 BYTE   W36
 BYTE   As3
 BYTE   N36  Fs4
 BYTE   W36
 BYTE   N24  Bn3
 BYTE   N24  Gs4
 BYTE   W24
// 019   ----------------------------------------
 BYTE   Ds3
 BYTE   N24  Bn3
 BYTE   W24
 BYTE   Bn2
 BYTE   N24  Gs3
 BYTE   W24
 BYTE   Cs3
 BYTE   N24  As3
 BYTE   W24
 BYTE   As2
 BYTE   N24  Fs3
 BYTE   W24
// 020   ----------------------------------------
 BYTE   N72  Bn2
 BYTE   N72  Gs3
 BYTE   W72
 BYTE   N12
 BYTE   N12  Bn3
 BYTE   W12
 BYTE   Gs3
 BYTE   N12  Cs4
 BYTE   W12
 BYTE   PATT
  POIN2 Label_6_01229448
 BYTE   PATT
  POIN2 Label_6_01229448
// 021   ----------------------------------------
 BYTE   N24  Gs4  v068
 BYTE   N24  Bn4
 BYTE   W24
 BYTE   As4
 BYTE   N24  Cs5
 BYTE   W24
 BYTE   Bn4
 BYTE   N24  Ds5
 BYTE   W24
 BYTE   Cs5
 BYTE   N24  Fs5
 BYTE   W24
// 022   ----------------------------------------
 BYTE   N96  Bn4
 BYTE   N96  Ds5
 BYTE   W96
// 023   ----------------------------------------
 BYTE   N36  Bn4
 BYTE   N36  Ds5
 BYTE   W36
 BYTE   Ds4
 BYTE   N36  Gs4
 BYTE   W36
 BYTE   N24  Bn4
 BYTE   N24  Ds5
 BYTE   W24
// 024   ----------------------------------------
 BYTE   N36  As4
 BYTE   N36  Ds5
 BYTE   W36
 BYTE   Ds4
 BYTE   N36  Gs4
 BYTE   W36
 BYTE   N24  As4
 BYTE   N24  Ds5
 BYTE   W24
// 025   ----------------------------------------
 BYTE   Bn3
 BYTE   N24  Gs4
 BYTE   W24
 BYTE   Fs4
 BYTE   N24  As4
 BYTE   W24
 BYTE   Bn4
 BYTE   N24  Ds5
 BYTE   W24
 BYTE   Bn4
 BYTE   N24  Fs5
 BYTE   W24
// 026   ----------------------------------------
 BYTE   N96  Bn4
 BYTE   N96  Gs5
 BYTE   W96
// 027   ----------------------------------------
 BYTE   W96
// 028   ----------------------------------------
 BYTE   W96
// 029   ----------------------------------------
 BYTE   W96
// 030   ----------------------------------------
 BYTE   W96
// 031   ----------------------------------------
 BYTE   W96
// 032   ----------------------------------------
 BYTE   W96
// 033   ----------------------------------------
 BYTE   W96
// 034   ----------------------------------------
 BYTE   W96
// 035   ----------------------------------------
Label_6_01229507:
 BYTE   W60
 BYTE   N12  Bn2  v068
 BYTE   N12  Bn3
 BYTE   W12
 BYTE   En3
 BYTE   N12  En4
 BYTE   W12
 BYTE   Fs3
 BYTE   N12  Fs4
 BYTE   W12
 BYTE   PEND 
// 036   ----------------------------------------
Label_6_01229517:
 BYTE   N60  Gn3  v068
 BYTE   N60  Gn4
 BYTE   W60
 BYTE   N12  Bn2
 BYTE   N12  Bn3
 BYTE   W12
 BYTE   En3
 BYTE   N12  En4
 BYTE   W12
 BYTE   Fs3
 BYTE   N12  Fs4
 BYTE   W12
 BYTE   PEND 
// 037   ----------------------------------------
Label_6_0122952B:
 BYTE   N60  Gn3  v068
 BYTE   N60  Gn4
 BYTE   W60
 BYTE   N12  En3
 BYTE   N12  En4
 BYTE   W12
 BYTE   Fs3
 BYTE   N12  Fs4
 BYTE   W12
 BYTE   Gn3
 BYTE   N12  Gn4
 BYTE   W12
 BYTE   PEND 
// 038   ----------------------------------------
Label_6_0122953F:
 BYTE   N12  Bn3  v068
 BYTE   N12  Bn4
 BYTE   W12
 BYTE   An3
 BYTE   N12  An4
 BYTE   W12
 BYTE   Bn3
 BYTE   N12  Bn4
 BYTE   W12
 BYTE   Gn3
 BYTE   N12  Gn4
 BYTE   W12
 BYTE   An3
 BYTE   N12  An4
 BYTE   W12
 BYTE   En3
 BYTE   N12  En4
 BYTE   W12
 BYTE   Fs3
 BYTE   N12  Fs4
 BYTE   W12
 BYTE   N72  Gn3
 BYTE   N72  Gn4
 BYTE   W12
 BYTE   PEND 
// 039   ----------------------------------------
Label_6_01229563:
 BYTE   W60
 BYTE   N12  Gn3  v068
 BYTE   N12  Gn4
 BYTE   W12
 BYTE   An3
 BYTE   N12  An4
 BYTE   W12
 BYTE   Bn3
 BYTE   N12  Bn4
 BYTE   W12
 BYTE   PEND 
// 040   ----------------------------------------
Label_6_01229573:
 BYTE   N60  En4  v068
 BYTE   N60  En5
 BYTE   W60
 BYTE   N12  Bn3
 BYTE   N12  Bn4
 BYTE   W12
 BYTE   Fs4
 BYTE   N12  Fs5
 BYTE   W12
 BYTE   N72  Gn4
 BYTE   N72  Gn5
 BYTE   W12
 BYTE   PEND 
// 041   ----------------------------------------
Label_6_01229588:
 BYTE   W60
 BYTE   N12  En4  v068
 BYTE   N12  En5
 BYTE   W12
 BYTE   Fs4
 BYTE   N12  Fs5
 BYTE   W12
 BYTE   Gn4
 BYTE   N12  Gn5
 BYTE   W12
 BYTE   PEND 
// 042   ----------------------------------------
Label_6_01229598:
 BYTE   N12  Gn4  v068
 BYTE   N12  Gn5
 BYTE   W12
 BYTE   En4
 BYTE   N12  En5
 BYTE   W12
 BYTE   Cn4
 BYTE   N12  Cn5
 BYTE   W12
 BYTE   Gn4
 BYTE   N12  Gn5
 BYTE   W12
 BYTE   Fs4
 BYTE   N12  Fs5
 BYTE   W12
 BYTE   Dn4
 BYTE   N12  Dn5
 BYTE   W12
 BYTE   An3
 BYTE   N12  An4
 BYTE   W12
 BYTE   N72  Bn3
 BYTE   N72  Bn4
 BYTE   W12
 BYTE   PEND 
 BYTE   PATT
  POIN2 Label_6_01229507
 BYTE   PATT
  POIN2 Label_6_01229517
 BYTE   PATT
  POIN2 Label_6_0122952B
 BYTE   PATT
  POIN2 Label_6_0122953F
 BYTE   PATT
  POIN2 Label_6_01229563
 BYTE   PATT
  POIN2 Label_6_01229573
 BYTE   PATT
  POIN2 Label_6_01229588
 BYTE   PATT
  POIN2 Label_6_01229598
// 043   ----------------------------------------
 BYTE   W96
// 044   ----------------------------------------
 BYTE   W96
// 045   ----------------------------------------
 BYTE   W96
// 046   ----------------------------------------
 BYTE   W96
// 047   ----------------------------------------
 BYTE   W96
// 048   ----------------------------------------
 BYTE   W96
// 049   ----------------------------------------
 BYTE   W96
// 050   ----------------------------------------
 BYTE   W96
// 051   ----------------------------------------
 BYTE   W96
// 052   ----------------------------------------
 BYTE   W96
// 053   ----------------------------------------
 BYTE   W96
// 054   ----------------------------------------
 BYTE   W96
// 055   ----------------------------------------
 BYTE   W96
// 056   ----------------------------------------
 BYTE   W96
// 057   ----------------------------------------
 BYTE   W96
// 058   ----------------------------------------
 BYTE   W96
// 059   ----------------------------------------
 BYTE   W96
// 060   ----------------------------------------
 BYTE   W96
// 061   ----------------------------------------
 BYTE   W96
// 062   ----------------------------------------
 BYTE   W96
// 063   ----------------------------------------
 BYTE   W96
// 064   ----------------------------------------
 BYTE   W96
// 065   ----------------------------------------
 BYTE   W96
// 066   ----------------------------------------
 BYTE   W96
// 067   ----------------------------------------
 BYTE   W96
// 068   ----------------------------------------
Label_6_012295FD:
 BYTE   N36  An3  v068
 BYTE   N36  Cs4
 BYTE   W36
 BYTE   An3
 BYTE   N36  Fs4
 BYTE   W36
 BYTE   N24  Bn3
 BYTE   N24  Gs4
 BYTE   W24
 BYTE   PEND 
 BYTE   PATT
  POIN2 Label_6_012295FD
// 069   ----------------------------------------
 BYTE   N24  Fs4  v068
 BYTE   N24  An4
 BYTE   W24
 BYTE   Gs4
 BYTE   N24  Bn4
 BYTE   W24
 BYTE   An4
 BYTE   N24  Cs5
 BYTE   W24
 BYTE   Bn4
 BYTE   N24  En5
 BYTE   W24
// 070   ----------------------------------------
 BYTE   N96  An4
 BYTE   N96  Cs5
 BYTE   W96
// 071   ----------------------------------------
 BYTE   N36  An4
 BYTE   N36  Cs5
 BYTE   W36
 BYTE   Cs4
 BYTE   N36  Fs4
 BYTE   W36
 BYTE   N24  An4
 BYTE   N24  Cs5
 BYTE   W24
// 072   ----------------------------------------
 BYTE   N36  Gs4
 BYTE   N36  Cs5
 BYTE   W36
 BYTE   Cs4
 BYTE   N36  Fs4
 BYTE   W36
 BYTE   N24  Gs4
 BYTE   N24  Cs5
 BYTE   W24
// 073   ----------------------------------------
 BYTE   An3
 BYTE   N24  Fs4
 BYTE   W24
 BYTE   En4
 BYTE   N24  Gs4
 BYTE   W24
 BYTE   An4
 BYTE   N24  Cs5
 BYTE   W24
 BYTE   An4
 BYTE   N24  En5
 BYTE   W24
// 074   ----------------------------------------
 BYTE   N96  An4
 BYTE   N96  Fs5
 BYTE   W96
// 075   ----------------------------------------
 BYTE   GoTo
  POIN2 Label_6_0122939F
 BYTE   FINE

//**************** Track 8 (Midi-Chn.7) ****************//

Touhou7BorderofLifeMrGreen3339_008:
// 000   ----------------------------------------
 BYTE   KEYSH   Touhou7BorderofLifeMrGreen3339_key+0
 BYTE   VOICE   50
 BYTE   VOL   45*Touhou7BorderofLifeMrGreen3339_mvl/mxv
 BYTE   PAN   c_v+0
 BYTE   W96
// 001   ----------------------------------------
 BYTE   W96
// 002   ----------------------------------------
 BYTE   W96
// 003   ----------------------------------------
 BYTE   W96
// 004   ----------------------------------------
 BYTE   W96
// 005   ----------------------------------------
 BYTE   W96
// 006   ----------------------------------------
 BYTE   W96
// 007   ----------------------------------------
 BYTE   W96
// 008   ----------------------------------------
Label_7_01229670:
 BYTE   W48
Label_7_01229671:
 BYTE   N36  Bn1  v076
 BYTE   N36  En2
 BYTE   N36  Bn2
 BYTE   W36
 BYTE   N60  As1
 BYTE   N60  Ds2
 BYTE   N60  As2
 BYTE   W60
 BYTE   PEND 
// 009   ----------------------------------------
Label_7_01229681:
 BYTE   N36  En2  v076
 BYTE   N36  Bn2
 BYTE   N36  En3
 BYTE   W36
 BYTE   N60  Ds2
 BYTE   N60  As2
 BYTE   N60  Ds3
 BYTE   W60
 BYTE   PEND 
 BYTE   PATT
  POIN2 Label_7_01229671
 BYTE   PATT
  POIN2 Label_7_01229681
 BYTE   PATT
  POIN2 Label_7_01229671
 BYTE   PATT
  POIN2 Label_7_01229681
 BYTE   PATT
  POIN2 Label_7_01229671
// 010   ----------------------------------------
 BYTE   N36  Bn2  v076
 BYTE   N36  Bn3
 BYTE   N36  En4
 BYTE   W36
 BYTE   N60  Cs3
 BYTE   N60  Cs4
 BYTE   N60  Fs4
 BYTE   W60
// 011   ----------------------------------------
 BYTE   N96  Ds3
 BYTE   N96  Gs3
 BYTE   N96  Ds4
 BYTE   W96
// 012   ----------------------------------------
 BYTE   Ds3
 BYTE   N96  Fs3
 BYTE   N96  Ds4
 BYTE   W96
// 013   ----------------------------------------
 BYTE   N48  Bn2
 BYTE   N48  En3
 BYTE   N48  Bn3
 BYTE   W48
 BYTE   Cs3
 BYTE   N48  Fs3
 BYTE   N48  Cs4
 BYTE   W48
// 014   ----------------------------------------
 BYTE   N96  Bn2
 BYTE   N96  Gs3
 BYTE   N96  Bn3
 BYTE   W96
// 015   ----------------------------------------
Label_7_012296DA:
 BYTE   N96  Gs2  v076
 BYTE   N96  Cs3
 BYTE   N96  Gs3
 BYTE   W96
 BYTE   PEND 
// 016   ----------------------------------------
 BYTE   As2
 BYTE   N96  Ds3
 BYTE   N96  As3
 BYTE   W96
// 017   ----------------------------------------
 BYTE   N24  Bn2
 BYTE   N24  En3
 BYTE   N24  Bn3
 BYTE   W24
 BYTE   Gs3
 BYTE   N24  Bn3
 BYTE   N24  Gs4
 BYTE   W24
 BYTE   Cs3
 BYTE   N24  As3
 BYTE   N24  Cs4
 BYTE   W24
 BYTE   As3
 BYTE   N24  Cs4
 BYTE   N24  As4
 BYTE   W24
// 018   ----------------------------------------
 BYTE   N96  Bn3
 BYTE   N96  Ds4
 BYTE   N96  Bn4
 BYTE   W96
// 019   ----------------------------------------
 BYTE   Ds4
 BYTE   N96  Gs4
 BYTE   N96  Ds5
 BYTE   W96
// 020   ----------------------------------------
 BYTE   Ds4
 BYTE   N96  Fs4
 BYTE   N96  Ds5
 BYTE   W96
// 021   ----------------------------------------
 BYTE   N48  Bn3
 BYTE   N48  En4
 BYTE   N48  Bn4
 BYTE   W48
 BYTE   Cs4
 BYTE   N48  Fs4
 BYTE   N48  Cs5
 BYTE   W48
// 022   ----------------------------------------
 BYTE   N96  Bn3
 BYTE   N96  Gs4
 BYTE   N96  Bn4
 BYTE   W96
// 023   ----------------------------------------
 BYTE   Cs4
 BYTE   N96  Gs4
 BYTE   N96  Cs5
 BYTE   W96
// 024   ----------------------------------------
 BYTE   As3
 BYTE   N96  Ds4
 BYTE   N96  As4
 BYTE   W96
// 025   ----------------------------------------
 BYTE   N24  Bn3
 BYTE   N24  En4
 BYTE   N24  Bn4
 BYTE   W24
 BYTE   Gs4
 BYTE   N24  Bn4
 BYTE   N24  Gs5
 BYTE   W24
 BYTE   Cs4
 BYTE   N24  As4
 BYTE   N24  Cs5
 BYTE   W24
 BYTE   As4
 BYTE   N24  Cs5
 BYTE   N24  As5
 BYTE   W24
// 026   ----------------------------------------
 BYTE   N96  Bn4
 BYTE   N96  Ds5
 BYTE   N96  Bn5
 BYTE   W96
// 027   ----------------------------------------
Label_7_01229755:
 BYTE   N48  Dn2  v076
 BYTE   N48  Gn2
 BYTE   N48  Dn3
 BYTE   W48
 BYTE   En2
 BYTE   N48  An2
 BYTE   N48  En3
 BYTE   W48
 BYTE   PEND 
// 028   ----------------------------------------
 BYTE   En2
 BYTE   N48  Bn2
 BYTE   N48  En3
 BYTE   W48
 BYTE   Dn2
 BYTE   N48  Bn2
 BYTE   N48  Dn3
 BYTE   W48
 BYTE   PATT
  POIN2 Label_7_01229755
// 029   ----------------------------------------
 BYTE   N48  En2  v076
 BYTE   N48  Bn2
 BYTE   N48  En3
 BYTE   W48
 BYTE   Fs2
 BYTE   N48  Bn2
 BYTE   N48  Fs3
 BYTE   W48
// 030   ----------------------------------------
 BYTE   Gn2
 BYTE   N48  Bn2
 BYTE   N48  Gn3
 BYTE   W48
 BYTE   An2
 BYTE   N48  Cs3
 BYTE   N48  An3
 BYTE   W48
// 031   ----------------------------------------
Label_7_0122978F:
 BYTE   N48  Bn2  v076
 BYTE   N48  Dn3
 BYTE   N48  Bn3
 BYTE   W48
 BYTE   Cs3
 BYTE   N48  En3
 BYTE   N48  Cs4
 BYTE   W48
 BYTE   PEND 
 BYTE   PATT
  POIN2 Label_7_0122978F
// 032   ----------------------------------------
 BYTE   N48  Cs3  v076
 BYTE   N48  As3
 BYTE   N48  Cs4
 BYTE   W48
 BYTE   N18  Fs3
 BYTE   N18  As3
 BYTE   N18  Fs4
 BYTE   W18
 BYTE   Fs3
 BYTE   N18  As3
 BYTE   N18  Fs4
 BYTE   W18
 BYTE   N12  Fs3
 BYTE   N12  As3
 BYTE   N12  Fs4
 BYTE   W12
// 033   ----------------------------------------
 BYTE   W96
// 034   ----------------------------------------
Label_7_012297C0:
 BYTE   N96  Gn2  v076
 BYTE   N96  Cn3
 BYTE   N96  Gn3
 BYTE   W96
 BYTE   PEND 
// 035   ----------------------------------------
Label_7_012297C9:
 BYTE   N96  Bn2  v076
 BYTE   N96  En3
 BYTE   N96  Bn3
 BYTE   W96
 BYTE   PEND 
// 036   ----------------------------------------
Label_7_012297D2:
 BYTE   N48  Gn2  v076
 BYTE   N48  Cn3
 BYTE   N48  Gn3
 BYTE   W48
 BYTE   An2
 BYTE   N48  Dn3
 BYTE   N48  An3
 BYTE   W48
 BYTE   PEND 
 BYTE   PATT
  POIN2 Label_7_012297C9
 BYTE   PATT
  POIN2 Label_7_012297C0
 BYTE   PATT
  POIN2 Label_7_012297C9
// 037   ----------------------------------------
Label_7_012297F0:
 BYTE   N48  Cn3  v076
 BYTE   N48  En3
 BYTE   N48  Cn4
 BYTE   W48
 BYTE   Dn3
 BYTE   N48  Fs3
 BYTE   N48  Dn4
 BYTE   W48
 BYTE   PEND 
// 038   ----------------------------------------
 BYTE   N96  En3
 BYTE   N96  Gn3
 BYTE   N96  En4
 BYTE   W96
 BYTE   PATT
  POIN2 Label_7_012297C0
 BYTE   PATT
  POIN2 Label_7_012297C9
 BYTE   PATT
  POIN2 Label_7_012297D2
 BYTE   PATT
  POIN2 Label_7_012297C9
 BYTE   PATT
  POIN2 Label_7_012297C0
 BYTE   PATT
  POIN2 Label_7_012297C9
 BYTE   PATT
  POIN2 Label_7_012297F0
// 039   ----------------------------------------
 BYTE   N96  En3  v076
 BYTE   N96  Gn3
 BYTE   N96  En4
 BYTE   W96
 BYTE   PATT
  POIN2 Label_7_012296DA
// 040   ----------------------------------------
Label_7_01229836:
 BYTE   N96  Cn3  v076
 BYTE   N96  Fn3
 BYTE   N96  Cn4
 BYTE   W96
 BYTE   PEND 
// 041   ----------------------------------------
Label_7_0122983F:
 BYTE   N48  Gs2  v076
 BYTE   N48  Cs3
 BYTE   N48  Gs3
 BYTE   W48
 BYTE   As2
 BYTE   N48  Ds3
 BYTE   N48  As3
 BYTE   W48
 BYTE   PEND 
 BYTE   PATT
  POIN2 Label_7_01229836
 BYTE   PATT
  POIN2 Label_7_012296DA
 BYTE   PATT
  POIN2 Label_7_01229836
// 042   ----------------------------------------
Label_7_0122985D:
 BYTE   N48  Cs3  v076
 BYTE   N48  Fn3
 BYTE   N48  Cs4
 BYTE   W48
 BYTE   Ds3
 BYTE   N48  Gn3
 BYTE   N48  Ds4
 BYTE   W48
 BYTE   PEND 
// 043   ----------------------------------------
Label_7_0122986C:
 BYTE   N96  Fn3  v076
 BYTE   N96  Gs3
 BYTE   N96  Fn4
 BYTE   W96
 BYTE   PEND 
 BYTE   PATT
  POIN2 Label_7_012296DA
 BYTE   PATT
  POIN2 Label_7_01229836
 BYTE   PATT
  POIN2 Label_7_0122983F
 BYTE   PATT
  POIN2 Label_7_01229836
 BYTE   PATT
  POIN2 Label_7_012296DA
 BYTE   PATT
  POIN2 Label_7_01229836
 BYTE   PATT
  POIN2 Label_7_0122985D
 BYTE   PATT
  POIN2 Label_7_0122986C
// 044   ----------------------------------------
 BYTE   W96
// 045   ----------------------------------------
 BYTE   W96
// 046   ----------------------------------------
 BYTE   W96
// 047   ----------------------------------------
 BYTE   W96
// 048   ----------------------------------------
 BYTE   W96
// 049   ----------------------------------------
 BYTE   W96
// 050   ----------------------------------------
 BYTE   W96
// 051   ----------------------------------------
 BYTE   W96
// 052   ----------------------------------------
 BYTE   W96
// 053   ----------------------------------------
 BYTE   W96
// 054   ----------------------------------------
 BYTE   W96
// 055   ----------------------------------------
 BYTE   W96
// 056   ----------------------------------------
 BYTE   W96
// 057   ----------------------------------------
 BYTE   W96
// 058   ----------------------------------------
 BYTE   W96
// 059   ----------------------------------------
 BYTE   W96
// 060   ----------------------------------------
 BYTE   GoTo
  POIN2 Label_7_01229670
 BYTE   FINE

//**************** Track 9 (Midi-Chn.8) ****************//

Touhou7BorderofLifeMrGreen3339_009:
// 000   ----------------------------------------
 BYTE   KEYSH   Touhou7BorderofLifeMrGreen3339_key+0
 BYTE   VOICE   36
 BYTE   VOL   45*Touhou7BorderofLifeMrGreen3339_mvl/mxv
 BYTE   PAN   c_v+0
 BYTE   W96
// 001   ----------------------------------------
 BYTE   W96
// 002   ----------------------------------------
 BYTE   W96
// 003   ----------------------------------------
 BYTE   W96
// 004   ----------------------------------------
 BYTE   W96
// 005   ----------------------------------------
 BYTE   W96
// 006   ----------------------------------------
 BYTE   W96
// 007   ----------------------------------------
 BYTE   W96
// 008   ----------------------------------------
Label_8_012298C4:
 BYTE   W48
Label_8_012298C5:
 BYTE   N06  En1  v112
 BYTE   W06
 BYTE   Bn1
 BYTE   W06
 BYTE   En1
 BYTE   W06
 BYTE   Bn1
 BYTE   W06
 BYTE   En1
 BYTE   W06
 BYTE   Bn1
 BYTE   W06
 BYTE   Ds1
 BYTE   W06
 BYTE   As1
 BYTE   W06
// 009   ----------------------------------------
 BYTE   Ds1
 BYTE   W06
 BYTE   As1
 BYTE   W06
 BYTE   Ds1
 BYTE   W06
 BYTE   As1
 BYTE   W06
 BYTE   Ds1
 BYTE   W06
 BYTE   As1
 BYTE   W06
 BYTE   En1
 BYTE   W06
 BYTE   Bn1
 BYTE   W06
 BYTE   PEND 
Label_8_012298E8:
 BYTE   N06  En1  v112
 BYTE   W06
 BYTE   Bn1
 BYTE   W06
 BYTE   En1
 BYTE   W06
 BYTE   Bn1
 BYTE   W06
 BYTE   En1
 BYTE   W06
 BYTE   Bn1
 BYTE   W06
 BYTE   Ds1
 BYTE   W06
 BYTE   As1
 BYTE   W06
// 010   ----------------------------------------
 BYTE   Ds1
 BYTE   W06
 BYTE   As1
 BYTE   W06
 BYTE   Ds1
 BYTE   W06
 BYTE   As1
 BYTE   W06
 BYTE   Ds1
 BYTE   W06
 BYTE   As1
 BYTE   W06
 BYTE   Ds1
 BYTE   W06
 BYTE   As1
 BYTE   W06
 BYTE   PEND 
 BYTE   PATT
  POIN2 Label_8_012298C5
 BYTE   PATT
  POIN2 Label_8_012298E8
 BYTE   PATT
  POIN2 Label_8_012298C5
 BYTE   PATT
  POIN2 Label_8_012298E8
 BYTE   PATT
  POIN2 Label_8_012298C5
// 011   ----------------------------------------
 BYTE   N06  En1  v112
 BYTE   W06
 BYTE   Bn1
 BYTE   W06
 BYTE   En1
 BYTE   W06
 BYTE   Bn1
 BYTE   W06
 BYTE   En1
 BYTE   W06
 BYTE   Bn1
 BYTE   W06
 BYTE   Fs1
 BYTE   W06
 BYTE   Cs2
 BYTE   W06
 BYTE   Fs1
 BYTE   W06
 BYTE   Cs2
 BYTE   W06
 BYTE   Fs1
 BYTE   W06
 BYTE   Cs2
 BYTE   W06
 BYTE   Fs1
 BYTE   W06
 BYTE   Cs2
 BYTE   W06
 BYTE   Fs1
 BYTE   W06
 BYTE   Cs2
 BYTE   W06
// 012   ----------------------------------------
Label_8_01229946:
 BYTE   N06  Gs1  v112
 BYTE   W06
 BYTE   N06
 BYTE   W06
 BYTE   Ds2
 BYTE   W06
 BYTE   N06
 BYTE   W06
 BYTE   Gs1
 BYTE   W06
 BYTE   N06
 BYTE   W06
 BYTE   Ds2
 BYTE   W06
 BYTE   N06
 BYTE   W06
 BYTE   Gs1
 BYTE   W06
 BYTE   N06
 BYTE   W06
 BYTE   Ds2
 BYTE   W06
 BYTE   N06
 BYTE   W06
 BYTE   Gs1
 BYTE   W06
 BYTE   N06
 BYTE   W06
 BYTE   Ds2
 BYTE   W06
 BYTE   N06
 BYTE   W06
 BYTE   PEND 
// 013   ----------------------------------------
Label_8_01229969:
 BYTE   N06  Fs1  v112
 BYTE   W06
 BYTE   N06
 BYTE   W06
 BYTE   Ds2
 BYTE   W06
 BYTE   N06
 BYTE   W06
 BYTE   Fs1
 BYTE   W06
 BYTE   N06
 BYTE   W06
 BYTE   Ds2
 BYTE   W06
 BYTE   N06
 BYTE   W06
 BYTE   Fs1
 BYTE   W06
 BYTE   N06
 BYTE   W06
 BYTE   Ds2
 BYTE   W06
 BYTE   N06
 BYTE   W06
 BYTE   Fs1
 BYTE   W06
 BYTE   N06
 BYTE   W06
 BYTE   Ds2
 BYTE   W06
 BYTE   N06
 BYTE   W06
 BYTE   PEND 
// 014   ----------------------------------------
Label_8_0122998C:
 BYTE   N06  En1  v112
 BYTE   W06
 BYTE   N06
 BYTE   W06
 BYTE   Bn1
 BYTE   W06
 BYTE   N06
 BYTE   W06
 BYTE   En1
 BYTE   W06
 BYTE   N06
 BYTE   W06
 BYTE   Bn1
 BYTE   W06
 BYTE   N06
 BYTE   W06
 BYTE   Fs1
 BYTE   W06
 BYTE   N06
 BYTE   W06
 BYTE   Cs2
 BYTE   W06
 BYTE   N06
 BYTE   W06
 BYTE   Fs1
 BYTE   W06
 BYTE   N06
 BYTE   W06
 BYTE   Cs2
 BYTE   W06
 BYTE   N06
 BYTE   W06
 BYTE   PEND 
 BYTE   PATT
  POIN2 Label_8_01229946
// 015   ----------------------------------------
Label_8_012299B4:
 BYTE   N06  Cs1  v112
 BYTE   W06
 BYTE   N06
 BYTE   W06
 BYTE   Gs1
 BYTE   W06
 BYTE   N06
 BYTE   W06
 BYTE   Cs1
 BYTE   W06
 BYTE   N06
 BYTE   W06
 BYTE   Gs1
 BYTE   W06
 BYTE   N06
 BYTE   W06
 BYTE   Cs1
 BYTE   W06
 BYTE   N06
 BYTE   W06
 BYTE   Gs1
 BYTE   W06
 BYTE   N06
 BYTE   W06
 BYTE   Cs1
 BYTE   W06
 BYTE   N06
 BYTE   W06
 BYTE   Gs1
 BYTE   W06
 BYTE   N06
 BYTE   W06
 BYTE   PEND 
// 016   ----------------------------------------
Label_8_012299D7:
 BYTE   N06  Ds1  v112
 BYTE   W06
 BYTE   N06
 BYTE   W06
 BYTE   As1
 BYTE   W06
 BYTE   N06
 BYTE   W06
 BYTE   Ds1
 BYTE   W06
 BYTE   N06
 BYTE   W06
 BYTE   As1
 BYTE   W06
 BYTE   N06
 BYTE   W06
 BYTE   Ds1
 BYTE   W06
 BYTE   N06
 BYTE   W06
 BYTE   As1
 BYTE   W06
 BYTE   N06
 BYTE   W06
 BYTE   Ds1
 BYTE   W06
 BYTE   N06
 BYTE   W06
 BYTE   As1
 BYTE   W06
 BYTE   N06
 BYTE   W06
 BYTE   PEND 
 BYTE   PATT
  POIN2 Label_8_0122998C
 BYTE   PATT
  POIN2 Label_8_01229946
 BYTE   PATT
  POIN2 Label_8_01229946
 BYTE   PATT
  POIN2 Label_8_01229969
 BYTE   PATT
  POIN2 Label_8_0122998C
 BYTE   PATT
  POIN2 Label_8_01229946
 BYTE   PATT
  POIN2 Label_8_012299B4
 BYTE   PATT
  POIN2 Label_8_012299D7
 BYTE   PATT
  POIN2 Label_8_0122998C
 BYTE   PATT
  POIN2 Label_8_01229946
// 017   ----------------------------------------
Label_8_01229A2C:
 BYTE   N36  Gn1  v112
 BYTE   W36
 BYTE   N12
 BYTE   W12
 BYTE   N36  An1
 BYTE   W36
 BYTE   N12
 BYTE   W12
 BYTE   PEND 
// 018   ----------------------------------------
Label_8_01229A38:
 BYTE   N12  Bn1  v112
 BYTE   W12
 BYTE   Bn2
 BYTE   W12
 BYTE   Bn1
 BYTE   W12
 BYTE   Bn2
 BYTE   W12
 BYTE   Bn1
 BYTE   W12
 BYTE   Bn2
 BYTE   W12
 BYTE   An1
 BYTE   W12
 BYTE   An2
 BYTE   W12
 BYTE   PEND 
// 019   ----------------------------------------
Label_8_01229A4B:
 BYTE   N12  Gn1  v112
 BYTE   W12
 BYTE   Gn2
 BYTE   W12
 BYTE   Gn1
 BYTE   W12
 BYTE   Gn2
 BYTE   W12
 BYTE   An1
 BYTE   W12
 BYTE   An2
 BYTE   W12
 BYTE   An1
 BYTE   W12
 BYTE   An2
 BYTE   W12
 BYTE   PEND 
// 020   ----------------------------------------
 BYTE   Bn1
 BYTE   W12
 BYTE   Bn2
 BYTE   W12
 BYTE   Bn1
 BYTE   W12
 BYTE   Bn2
 BYTE   W12
 BYTE   Bn1
 BYTE   W12
 BYTE   Bn2
 BYTE   W12
 BYTE   Bn1
 BYTE   W12
 BYTE   Bn2
 BYTE   W12
 BYTE   PATT
  POIN2 Label_8_01229A2C
 BYTE   PATT
  POIN2 Label_8_01229A38
 BYTE   PATT
  POIN2 Label_8_01229A4B
// 021   ----------------------------------------
 BYTE   N12  As1  v112
 BYTE   W12
 BYTE   As2
 BYTE   W12
 BYTE   As1
 BYTE   W12
 BYTE   As2
 BYTE   W12
 BYTE   As1
 BYTE   W12
 BYTE   Cs3
 BYTE   W12
 BYTE   As1
 BYTE   W12
 BYTE   Cs3
 BYTE   W12
// 022   ----------------------------------------
 BYTE   W96
// 023   ----------------------------------------
Label_8_01229A90:
 BYTE   N06  Cn2  v112
 BYTE   W06
 BYTE   N06
 BYTE   W06
 BYTE   Gn2
 BYTE   W06
 BYTE   Cn2
 BYTE   W06
 BYTE   N06
 BYTE   W06
 BYTE   Gn2
 BYTE   W06
 BYTE   Cn2
 BYTE   W06
 BYTE   N06
 BYTE   W06
 BYTE   N06
 BYTE   W06
 BYTE   N06
 BYTE   W06
 BYTE   Gn2
 BYTE   W06
 BYTE   Cn2
 BYTE   W06
 BYTE   N06
 BYTE   W06
 BYTE   Gn2
 BYTE   W06
 BYTE   Dn2
 BYTE   W06
 BYTE   Cn2
 BYTE   W06
 BYTE   PEND 
// 024   ----------------------------------------
Label_8_01229AB3:
 BYTE   N06  En2  v112
 BYTE   W06
 BYTE   N06
 BYTE   W06
 BYTE   Bn2
 BYTE   W06
 BYTE   En2
 BYTE   W06
 BYTE   N06
 BYTE   W06
 BYTE   Bn2
 BYTE   W06
 BYTE   En2
 BYTE   W06
 BYTE   N06
 BYTE   W06
 BYTE   N06
 BYTE   W06
 BYTE   N06
 BYTE   W06
 BYTE   Bn2
 BYTE   W06
 BYTE   En2
 BYTE   W06
 BYTE   N06
 BYTE   W06
 BYTE   Bn2
 BYTE   W06
 BYTE   Dn2
 BYTE   W06
 BYTE   En2
 BYTE   W06
 BYTE   PEND 
// 025   ----------------------------------------
Label_8_01229AD6:
 BYTE   N06  Cn2  v112
 BYTE   W06
 BYTE   N06
 BYTE   W06
 BYTE   Gn2
 BYTE   W06
 BYTE   Cn2
 BYTE   W06
 BYTE   N06
 BYTE   W06
 BYTE   N06
 BYTE   W06
 BYTE   Gn2
 BYTE   W06
 BYTE   Cn2
 BYTE   W06
 BYTE   Dn2
 BYTE   W06
 BYTE   N06
 BYTE   W06
 BYTE   An2
 BYTE   W06
 BYTE   Dn2
 BYTE   W06
 BYTE   N06
 BYTE   W06
 BYTE   An2
 BYTE   W06
 BYTE   Fs2
 BYTE   W06
 BYTE   Dn2
 BYTE   W06
 BYTE   PEND 
// 026   ----------------------------------------
Label_8_01229AF9:
 BYTE   N06  En2  v112
 BYTE   W06
 BYTE   N06
 BYTE   W06
 BYTE   Bn2
 BYTE   W06
 BYTE   En2
 BYTE   W06
 BYTE   N06
 BYTE   W06
 BYTE   N06
 BYTE   W06
 BYTE   Bn2
 BYTE   W06
 BYTE   En2
 BYTE   W06
 BYTE   N06
 BYTE   W06
 BYTE   Bn2
 BYTE   W06
 BYTE   En2
 BYTE   W06
 BYTE   N06
 BYTE   W06
 BYTE   Dn2
 BYTE   W06
 BYTE   An2
 BYTE   W06
 BYTE   Gn2
 BYTE   W06
 BYTE   Dn2
 BYTE   W06
 BYTE   PEND 
// 027   ----------------------------------------
Label_8_01229B1C:
 BYTE   N06  Cn2  v112
 BYTE   W06
 BYTE   N06
 BYTE   W06
 BYTE   Gn2
 BYTE   W06
 BYTE   Cn2
 BYTE   W06
 BYTE   N06
 BYTE   W06
 BYTE   N06
 BYTE   W06
 BYTE   Gn2
 BYTE   W06
 BYTE   Cn2
 BYTE   W06
 BYTE   N06
 BYTE   W06
 BYTE   Gn2
 BYTE   W06
 BYTE   Cn2
 BYTE   W06
 BYTE   N06
 BYTE   W06
 BYTE   N06
 BYTE   W06
 BYTE   Gn2
 BYTE   W06
 BYTE   Bn1
 BYTE   W06
 BYTE   Cn2
 BYTE   W06
 BYTE   PEND 
// 028   ----------------------------------------
Label_8_01229B3F:
 BYTE   N06  En2  v112
 BYTE   W06
 BYTE   N06
 BYTE   W06
 BYTE   Bn2
 BYTE   W06
 BYTE   En2
 BYTE   W06
 BYTE   N06
 BYTE   W06
 BYTE   N06
 BYTE   W06
 BYTE   Bn2
 BYTE   W06
 BYTE   En2
 BYTE   W06
 BYTE   N06
 BYTE   W06
 BYTE   Bn2
 BYTE   W06
 BYTE   En2
 BYTE   W06
 BYTE   N06
 BYTE   W06
 BYTE   N06
 BYTE   W06
 BYTE   Bn2
 BYTE   W06
 BYTE   Fs2
 BYTE   W06
 BYTE   En2
 BYTE   W06
 BYTE   PEND 
// 029   ----------------------------------------
Label_8_01229B62:
 BYTE   N06  Gn2  v112
 BYTE   W06
 BYTE   N06
 BYTE   W06
 BYTE   En3
 BYTE   W06
 BYTE   Gn2
 BYTE   W06
 BYTE   N06
 BYTE   W06
 BYTE   N06
 BYTE   W06
 BYTE   En3
 BYTE   W06
 BYTE   Gn2
 BYTE   W06
 BYTE   An2
 BYTE   W06
 BYTE   N06
 BYTE   W06
 BYTE   Fs3
 BYTE   W06
 BYTE   An2
 BYTE   W06
 BYTE   N06
 BYTE   W06
 BYTE   Fs3
 BYTE   W06
 BYTE   En3
 BYTE   W06
 BYTE   An2
 BYTE   W06
 BYTE   PEND 
// 030   ----------------------------------------
Label_8_01229B85:
 BYTE   N06  Bn2  v112
 BYTE   W06
 BYTE   N06
 BYTE   W06
 BYTE   Gn3
 BYTE   W06
 BYTE   Bn2
 BYTE   W06
 BYTE   N06
 BYTE   W06
 BYTE   N06
 BYTE   W06
 BYTE   Gn3
 BYTE   W06
 BYTE   Bn2
 BYTE   W06
 BYTE   N06
 BYTE   W06
 BYTE   N06
 BYTE   W06
 BYTE   Gn3
 BYTE   W06
 BYTE   Bn2
 BYTE   W06
 BYTE   N06
 BYTE   W06
 BYTE   An2
 BYTE   W06
 BYTE   Gn2
 BYTE   W06
 BYTE   Fs2
 BYTE   W06
 BYTE   PEND 
 BYTE   PATT
  POIN2 Label_8_01229A90
 BYTE   PATT
  POIN2 Label_8_01229AB3
 BYTE   PATT
  POIN2 Label_8_01229AD6
 BYTE   PATT
  POIN2 Label_8_01229AF9
 BYTE   PATT
  POIN2 Label_8_01229B1C
 BYTE   PATT
  POIN2 Label_8_01229B3F
 BYTE   PATT
  POIN2 Label_8_01229B62
 BYTE   PATT
  POIN2 Label_8_01229B85
// 031   ----------------------------------------
Label_8_01229BD0:
 BYTE   N06  Cs2  v112
 BYTE   W06
 BYTE   N06
 BYTE   W06
 BYTE   Gs2
 BYTE   W06
 BYTE   Cs2
 BYTE   W06
 BYTE   N06
 BYTE   W06
 BYTE   Gs2
 BYTE   W06
 BYTE   Cs2
 BYTE   W06
 BYTE   N06
 BYTE   W06
 BYTE   N06
 BYTE   W06
 BYTE   N06
 BYTE   W06
 BYTE   Gs2
 BYTE   W06
 BYTE   Cs2
 BYTE   W06
 BYTE   N06
 BYTE   W06
 BYTE   Gs2
 BYTE   W06
 BYTE   Ds2
 BYTE   W06
 BYTE   Cs2
 BYTE   W06
 BYTE   PEND 
// 032   ----------------------------------------
Label_8_01229BF3:
 BYTE   N06  Fn2  v112
 BYTE   W06
 BYTE   N06
 BYTE   W06
 BYTE   Cn3
 BYTE   W06
 BYTE   Fn2
 BYTE   W06
 BYTE   N06
 BYTE   W06
 BYTE   Cn3
 BYTE   W06
 BYTE   Fn2
 BYTE   W06
 BYTE   N06
 BYTE   W06
 BYTE   N06
 BYTE   W06
 BYTE   N06
 BYTE   W06
 BYTE   Cn3
 BYTE   W06
 BYTE   Fn2
 BYTE   W06
 BYTE   N06
 BYTE   W06
 BYTE   Cn3
 BYTE   W06
 BYTE   Ds2
 BYTE   W06
 BYTE   Fn2
 BYTE   W06
 BYTE   PEND 
// 033   ----------------------------------------
Label_8_01229C16:
 BYTE   N06  Cs2  v112
 BYTE   W06
 BYTE   N06
 BYTE   W06
 BYTE   Gs2
 BYTE   W06
 BYTE   Cs2
 BYTE   W06
 BYTE   N06
 BYTE   W06
 BYTE   N06
 BYTE   W06
 BYTE   Gs2
 BYTE   W06
 BYTE   Cs2
 BYTE   W06
 BYTE   Ds2
 BYTE   W06
 BYTE   N06
 BYTE   W06
 BYTE   As2
 BYTE   W06
 BYTE   Ds2
 BYTE   W06
 BYTE   N06
 BYTE   W06
 BYTE   As2
 BYTE   W06
 BYTE   Gn2
 BYTE   W06
 BYTE   Ds2
 BYTE   W06
 BYTE   PEND 
// 034   ----------------------------------------
Label_8_01229C39:
 BYTE   N06  Fn2  v112
 BYTE   W06
 BYTE   N06
 BYTE   W06
 BYTE   Cn3
 BYTE   W06
 BYTE   Fn2
 BYTE   W06
 BYTE   N06
 BYTE   W06
 BYTE   N06
 BYTE   W06
 BYTE   Cn3
 BYTE   W06
 BYTE   Fn2
 BYTE   W06
 BYTE   N06
 BYTE   W06
 BYTE   Cn3
 BYTE   W06
 BYTE   Fn2
 BYTE   W06
 BYTE   N06
 BYTE   W06
 BYTE   Ds2
 BYTE   W06
 BYTE   As2
 BYTE   W06
 BYTE   Gs2
 BYTE   W06
 BYTE   Ds2
 BYTE   W06
 BYTE   PEND 
// 035   ----------------------------------------
Label_8_01229C5C:
 BYTE   N06  Cs2  v112
 BYTE   W06
 BYTE   N06
 BYTE   W06
 BYTE   Gs2
 BYTE   W06
 BYTE   Cs2
 BYTE   W06
 BYTE   N06
 BYTE   W06
 BYTE   N06
 BYTE   W06
 BYTE   Gs2
 BYTE   W06
 BYTE   Cs2
 BYTE   W06
 BYTE   N06
 BYTE   W06
 BYTE   Gs2
 BYTE   W06
 BYTE   Cs2
 BYTE   W06
 BYTE   N06
 BYTE   W06
 BYTE   N06
 BYTE   W06
 BYTE   Gs2
 BYTE   W06
 BYTE   Cn2
 BYTE   W06
 BYTE   Cs2
 BYTE   W06
 BYTE   PEND 
// 036   ----------------------------------------
Label_8_01229C7F:
 BYTE   N06  Fn2  v112
 BYTE   W06
 BYTE   N06
 BYTE   W06
 BYTE   Cn3
 BYTE   W06
 BYTE   Fn2
 BYTE   W06
 BYTE   N06
 BYTE   W06
 BYTE   N06
 BYTE   W06
 BYTE   Cn3
 BYTE   W06
 BYTE   Fn2
 BYTE   W06
 BYTE   N06
 BYTE   W06
 BYTE   Cn3
 BYTE   W06
 BYTE   Fn2
 BYTE   W06
 BYTE   N06
 BYTE   W06
 BYTE   N06
 BYTE   W06
 BYTE   Cn3
 BYTE   W06
 BYTE   Gn2
 BYTE   W06
 BYTE   Fn2
 BYTE   W06
 BYTE   PEND 
// 037   ----------------------------------------
Label_8_01229CA2:
 BYTE   N06  Gs2  v112
 BYTE   W06
 BYTE   N06
 BYTE   W06
 BYTE   Fn3
 BYTE   W06
 BYTE   Gs2
 BYTE   W06
 BYTE   N06
 BYTE   W06
 BYTE   N06
 BYTE   W06
 BYTE   Fn3
 BYTE   W06
 BYTE   Gs2
 BYTE   W06
 BYTE   As2
 BYTE   W06
 BYTE   N06
 BYTE   W06
 BYTE   Gn3
 BYTE   W06
 BYTE   As2
 BYTE   W06
 BYTE   N06
 BYTE   W06
 BYTE   Gn3
 BYTE   W06
 BYTE   Fn3
 BYTE   W06
 BYTE   As2
 BYTE   W06
 BYTE   PEND 
// 038   ----------------------------------------
Label_8_01229CC5:
 BYTE   N06  Cn3  v112
 BYTE   W06
 BYTE   N06
 BYTE   W06
 BYTE   Gs3
 BYTE   W06
 BYTE   Cn3
 BYTE   W06
 BYTE   N06
 BYTE   W06
 BYTE   N06
 BYTE   W06
 BYTE   Gs3
 BYTE   W06
 BYTE   Cn3
 BYTE   W06
 BYTE   N06
 BYTE   W06
 BYTE   N06
 BYTE   W06
 BYTE   Gs3
 BYTE   W06
 BYTE   Cn3
 BYTE   W06
 BYTE   N06
 BYTE   W06
 BYTE   As2
 BYTE   W06
 BYTE   Gs2
 BYTE   W06
 BYTE   Gn2
 BYTE   W06
 BYTE   PEND 
 BYTE   PATT
  POIN2 Label_8_01229BD0
 BYTE   PATT
  POIN2 Label_8_01229BF3
 BYTE   PATT
  POIN2 Label_8_01229C16
 BYTE   PATT
  POIN2 Label_8_01229C39
 BYTE   PATT
  POIN2 Label_8_01229C5C
 BYTE   PATT
  POIN2 Label_8_01229C7F
 BYTE   PATT
  POIN2 Label_8_01229CA2
 BYTE   PATT
  POIN2 Label_8_01229CC5
// 039   ----------------------------------------
 BYTE   W96
// 040   ----------------------------------------
 BYTE   W96
// 041   ----------------------------------------
 BYTE   W96
// 042   ----------------------------------------
 BYTE   W96
// 043   ----------------------------------------
 BYTE   W96
// 044   ----------------------------------------
 BYTE   W96
// 045   ----------------------------------------
 BYTE   W96
// 046   ----------------------------------------
 BYTE   W96
// 047   ----------------------------------------
 BYTE   W96
// 048   ----------------------------------------
 BYTE   W96
// 049   ----------------------------------------
 BYTE   W96
// 050   ----------------------------------------
 BYTE   W96
// 051   ----------------------------------------
 BYTE   W96
// 052   ----------------------------------------
 BYTE   W96
// 053   ----------------------------------------
 BYTE   W96
// 054   ----------------------------------------
 BYTE   W96
// 055   ----------------------------------------
 BYTE   GoTo
  POIN2 Label_8_012298C4
 BYTE   FINE

//**************** Track 10 (Midi-Chn.9) ****************//

Touhou7BorderofLifeMrGreen3339_010:
// 000   ----------------------------------------
 BYTE   KEYSH   Touhou7BorderofLifeMrGreen3339_key+0
 BYTE   VOICE   61
 BYTE   VOL   45*Touhou7BorderofLifeMrGreen3339_mvl/mxv
 BYTE   PAN   c_v-32
 BYTE   W96
// 001   ----------------------------------------
 BYTE   W96
// 002   ----------------------------------------
 BYTE   W96
// 003   ----------------------------------------
 BYTE   W96
// 004   ----------------------------------------
 BYTE   W96
// 005   ----------------------------------------
 BYTE   W96
// 006   ----------------------------------------
 BYTE   W96
// 007   ----------------------------------------
 BYTE   W96
// 008   ----------------------------------------
Label_9_01229D38:
 BYTE   W48
 BYTE   W96
// 009   ----------------------------------------
 BYTE   W96
// 010   ----------------------------------------
 BYTE   W96
// 011   ----------------------------------------
 BYTE   W96
// 012   ----------------------------------------
 BYTE   W96
// 013   ----------------------------------------
 BYTE   W96
// 014   ----------------------------------------
 BYTE   W96
// 015   ----------------------------------------
 BYTE   W72
 BYTE   N12  Gs2  v088
 BYTE   N12  Bn2
 BYTE   W12
 BYTE   As2
 BYTE   N12  Cs3
 BYTE   W12
// 016   ----------------------------------------
Label_9_01229D4B:
 BYTE   N36  Bn2  v088
 BYTE   N36  Ds3
 BYTE   W36
 BYTE   Bn2
 BYTE   N36  Gs3
 BYTE   W36
 BYTE   N24  Cs3
 BYTE   N24  As3
 BYTE   W24
 BYTE   PEND 
 BYTE   PATT
  POIN2 Label_9_01229D4B
// 017   ----------------------------------------
 BYTE   N24  Ds3  v088
 BYTE   N24  Bn3
 BYTE   W24
 BYTE   Bn2
 BYTE   N24  Gs3
 BYTE   W24
 BYTE   Cs3
 BYTE   N24  As3
 BYTE   W24
 BYTE   As2
 BYTE   N24  Fs3
 BYTE   W24
// 018   ----------------------------------------
 BYTE   N96  Bn2
 BYTE   N96  Gs3
 BYTE   W96
// 019   ----------------------------------------
 BYTE   N36  Gs2
 BYTE   N36  Ds3
 BYTE   W36
 BYTE   N36
 BYTE   N36  Fs3
 BYTE   W36
 BYTE   N24  Ds3
 BYTE   N24  Gs3
 BYTE   W24
// 020   ----------------------------------------
 BYTE   N36  As2
 BYTE   N36  Cs3
 BYTE   W36
 BYTE   As2
 BYTE   N36  Fs3
 BYTE   W36
 BYTE   N24  Bn2
 BYTE   N24  Gs3
 BYTE   W24
// 021   ----------------------------------------
 BYTE   Ds2
 BYTE   N24  Bn2
 BYTE   W24
 BYTE   Bn1
 BYTE   N24  Gs2
 BYTE   W24
 BYTE   Cs2
 BYTE   N24  As2
 BYTE   W24
 BYTE   As1
 BYTE   N24  Fs2
 BYTE   W24
// 022   ----------------------------------------
 BYTE   N72  Bn1
 BYTE   N72  Gs2
 BYTE   W72
 BYTE   N12
 BYTE   N12  Bn2
 BYTE   W12
 BYTE   As2
 BYTE   N12  Cs3
 BYTE   W12
 BYTE   PATT
  POIN2 Label_9_01229D4B
 BYTE   PATT
  POIN2 Label_9_01229D4B
// 023   ----------------------------------------
 BYTE   N24  Gs3  v088
 BYTE   N24  Bn3
 BYTE   W24
 BYTE   As3
 BYTE   N24  Cs4
 BYTE   W24
 BYTE   Bn3
 BYTE   N24  Ds4
 BYTE   W24
 BYTE   Cs4
 BYTE   N24  Fs4
 BYTE   W24
// 024   ----------------------------------------
 BYTE   N96  Bn3
 BYTE   N96  Ds4
 BYTE   W96
// 025   ----------------------------------------
 BYTE   N36  Bn3
 BYTE   N36  Ds4
 BYTE   W36
 BYTE   Ds3
 BYTE   N36  Gs3
 BYTE   W36
 BYTE   N24  Bn3
 BYTE   N24  Ds4
 BYTE   W24
// 026   ----------------------------------------
 BYTE   N36  As3
 BYTE   N36  Ds4
 BYTE   W36
 BYTE   Ds3
 BYTE   N36  Gs3
 BYTE   W36
 BYTE   N24  As3
 BYTE   N24  Ds4
 BYTE   W24
// 027   ----------------------------------------
 BYTE   Bn2
 BYTE   N24  Gs3
 BYTE   W24
 BYTE   Fs3
 BYTE   N24  As3
 BYTE   W24
 BYTE   Bn3
 BYTE   N24  Ds4
 BYTE   W24
 BYTE   Bn3
 BYTE   N24  Fs4
 BYTE   W24
// 028   ----------------------------------------
 BYTE   N96  Bn3
 BYTE   N96  Gs4
 BYTE   W96
// 029   ----------------------------------------
 BYTE   W96
// 030   ----------------------------------------
 BYTE   W96
// 031   ----------------------------------------
 BYTE   W96
// 032   ----------------------------------------
 BYTE   W96
// 033   ----------------------------------------
 BYTE   W96
// 034   ----------------------------------------
 BYTE   W96
// 035   ----------------------------------------
 BYTE   W96
// 036   ----------------------------------------
 BYTE   W96
// 037   ----------------------------------------
 BYTE   W96
// 038   ----------------------------------------
 BYTE   W96
// 039   ----------------------------------------
 BYTE   W96
// 040   ----------------------------------------
 BYTE   W96
// 041   ----------------------------------------
 BYTE   W96
// 042   ----------------------------------------
 BYTE   W96
// 043   ----------------------------------------
 BYTE   W96
// 044   ----------------------------------------
 BYTE   W96
// 045   ----------------------------------------
 BYTE   W96
// 046   ----------------------------------------
 BYTE   W96
// 047   ----------------------------------------
 BYTE   W96
// 048   ----------------------------------------
 BYTE   W96
// 049   ----------------------------------------
 BYTE   W96
// 050   ----------------------------------------
 BYTE   W96
// 051   ----------------------------------------
 BYTE   W96
// 052   ----------------------------------------
 BYTE   W96
// 053   ----------------------------------------
 BYTE   W48
 BYTE   N02  As2
 BYTE   W02
 BYTE   Bn2
 BYTE   W02
 BYTE   Cn3
 BYTE   W02
 BYTE   Cs3
 BYTE   W02
 BYTE   Dn3
 BYTE   W02
 BYTE   Ds3
 BYTE   W02
 BYTE   En3
 BYTE   W02
 BYTE   Fn3
 BYTE   W02
 BYTE   Fs3
 BYTE   W02
 BYTE   Gn3
 BYTE   W02
 BYTE   Gs3
 BYTE   W02
 BYTE   An3
 BYTE   W02
 BYTE   As3
 BYTE   W02
 BYTE   Bn3
 BYTE   W02
 BYTE   Cn4
 BYTE   W02
 BYTE   Cs4
 BYTE   W02
 BYTE   Dn4
 BYTE   W02
 BYTE   Ds4
 BYTE   W02
 BYTE   En4
 BYTE   W02
 BYTE   Fn4
 BYTE   W02
 BYTE   Fs4
 BYTE   W02
 BYTE   Gn4
 BYTE   W02
 BYTE   Gs4
 BYTE   W02
 BYTE   An4
 BYTE   W02
// 054   ----------------------------------------
 BYTE   N36  Fn3
 BYTE   W36
 BYTE   N12  Ds3
 BYTE   W12
 BYTE   N24  Fn3
 BYTE   W24
 BYTE   Ds3
 BYTE   W24
// 055   ----------------------------------------
 BYTE   N72  Fn3
 BYTE   W72
 BYTE   N24  Ds3
 BYTE   W24
// 056   ----------------------------------------
 BYTE   Fn3
 BYTE   W24
 BYTE   N12  Ds3
 BYTE   W12
 BYTE   N24  Fn3
 BYTE   W24
 BYTE   N12  Ds3
 BYTE   W12
 BYTE   Fn3
 BYTE   W12
 BYTE   Ds3
 BYTE   W12
// 057   ----------------------------------------
 BYTE   N24  Gs3
 BYTE   W24
 BYTE   Gn3
 BYTE   W24
 BYTE   N12  Fn3
 BYTE   W12
 BYTE   Ds3
 BYTE   W12
 BYTE   Cn3
 BYTE   W12
 BYTE   Ds3
 BYTE   W12
// 058   ----------------------------------------
 BYTE   N48  Fn3
 BYTE   W48
 BYTE   Cn4
 BYTE   W48
// 059   ----------------------------------------
 BYTE   N72  Gn3
 BYTE   W72
 BYTE   N12  Fn3
 BYTE   W12
 BYTE   Ds3
 BYTE   W12
// 060   ----------------------------------------
 BYTE   N24  Fn3
 BYTE   W24
 BYTE   Cn4
 BYTE   W24
 BYTE   As3
 BYTE   W24
 BYTE   Ds4
 BYTE   W24
// 061   ----------------------------------------
Label_9_01229E90:
 BYTE   N72  Fn4  v088
 BYTE   W72
 BYTE   N12  Cn4
 BYTE   W12
 BYTE   Ds4
 BYTE   W12
 BYTE   PEND 
 BYTE   PATT
  POIN2 Label_9_01229E90
 BYTE   PATT
  POIN2 Label_9_01229E90
// 062   ----------------------------------------
 BYTE   N24  Fn4  v088
 BYTE   W24
 BYTE   N12  Ds4
 BYTE   W12
 BYTE   N24  Fn4
 BYTE   W24
 BYTE   N12  Ds4
 BYTE   W12
 BYTE   Fn4
 BYTE   W12
 BYTE   Ds4
 BYTE   W12
// 063   ----------------------------------------
 BYTE   N24  Gs4
 BYTE   W24
 BYTE   Gn4
 BYTE   W24
 BYTE   N12  Fn4
 BYTE   W12
 BYTE   Ds4
 BYTE   W12
 BYTE   Cn4
 BYTE   W12
 BYTE   Ds4
 BYTE   W12
 BYTE   PATT
  POIN2 Label_9_01229E90
// 064   ----------------------------------------
 BYTE   N60  As3  v088
 BYTE   W72
 BYTE   N12  Gs3
 BYTE   W12
 BYTE   Gn3
 BYTE   W12
// 065   ----------------------------------------
 BYTE   N24  Gs3
 BYTE   W24
 BYTE   N12  Gn3
 BYTE   W12
 BYTE   N24  Gs3
 BYTE   W24
 BYTE   N12  Fn3
 BYTE   W12
 BYTE   Gn3
 BYTE   W12
 BYTE   Ds3
 BYTE   W12
// 066   ----------------------------------------
 BYTE   Fn3
 BYTE   W12
 BYTE   Cn3
 BYTE   W12
 BYTE   Ds3
 BYTE   W12
 BYTE   As2
 BYTE   W12
 BYTE   Cn3
 BYTE   W12
 BYTE   Gs2
 BYTE   W12
 BYTE   As2
 BYTE   W12
 BYTE   Gn2
 BYTE   W12
// 067   ----------------------------------------
 BYTE   W96
// 068   ----------------------------------------
 BYTE   W96
// 069   ----------------------------------------
 BYTE   W96
// 070   ----------------------------------------
 BYTE   W96
// 071   ----------------------------------------
 BYTE   W96
// 072   ----------------------------------------
 BYTE   W96
// 073   ----------------------------------------
 BYTE   W96
// 074   ----------------------------------------
 BYTE   W96
// 075   ----------------------------------------
Label_9_01229EF9:
 BYTE   N36  An2  v088
 BYTE   N36  Cs3
 BYTE   W36
 BYTE   An2
 BYTE   N36  Fs3
 BYTE   W36
 BYTE   N24  Bn2
 BYTE   N24  Gs3
 BYTE   W24
 BYTE   PEND 
 BYTE   PATT
  POIN2 Label_9_01229EF9
// 076   ----------------------------------------
 BYTE   N24  Fs3  v088
 BYTE   N24  An3
 BYTE   W24
 BYTE   Gs3
 BYTE   N24  Bn3
 BYTE   W24
 BYTE   An3
 BYTE   N24  Cs4
 BYTE   W24
 BYTE   Bn3
 BYTE   N24  En4
 BYTE   W24
// 077   ----------------------------------------
 BYTE   N96  An3
 BYTE   N96  Cs4
 BYTE   W96
// 078   ----------------------------------------
 BYTE   N36  An3
 BYTE   N36  Cs4
 BYTE   W36
 BYTE   Cs3
 BYTE   N36  Fs3
 BYTE   W36
 BYTE   N24  An3
 BYTE   N24  Cs4
 BYTE   W24
// 079   ----------------------------------------
 BYTE   N36  Gs3
 BYTE   N36  Cs4
 BYTE   W36
 BYTE   Cs3
 BYTE   N36  Fs3
 BYTE   W36
 BYTE   N24  Gs3
 BYTE   N24  Cs4
 BYTE   W24
// 080   ----------------------------------------
 BYTE   An2
 BYTE   N24  Fs3
 BYTE   W24
 BYTE   En3
 BYTE   N24  Gs3
 BYTE   W24
 BYTE   An3
 BYTE   N24  Cs4
 BYTE   W24
 BYTE   An3
 BYTE   N24  En4
 BYTE   W24
// 081   ----------------------------------------
 BYTE   N96  An3
 BYTE   N96  Fs4
 BYTE   W96
// 082   ----------------------------------------
 BYTE   GoTo
  POIN2 Label_9_01229D38
 BYTE   FINE

//**************** Track 11 (Midi-Chn.10) ****************//

Touhou7BorderofLifeMrGreen3339_011:
// 000   ----------------------------------------
 BYTE   KEYSH   Touhou7BorderofLifeMrGreen3339_key+0
 BYTE   VOICE   127
 BYTE   VOL   45*Touhou7BorderofLifeMrGreen3339_mvl/mxv
 BYTE   PAN   c_v+0
 BYTE   W96
// 001   ----------------------------------------
 BYTE   W96
// 002   ----------------------------------------
 BYTE   W96
// 003   ----------------------------------------
 BYTE   W96
// 004   ----------------------------------------
 BYTE   W96
// 005   ----------------------------------------
 BYTE   W96
// 006   ----------------------------------------
 BYTE   W96
// 007   ----------------------------------------
 BYTE   W48
 BYTE   N03  En1  v040
 BYTE   W03
 BYTE   En1  v044
 BYTE   W03
 BYTE   En1  v048
 BYTE   W03
 BYTE   N03
 BYTE   W03
 BYTE   En1  v052
 BYTE   W03
 BYTE   En1  v056
 BYTE   W03
 BYTE   En1  v060
 BYTE   W03
 BYTE   En1  v064
 BYTE   W03
 BYTE   N03
 BYTE   W03
 BYTE   En1  v068
 BYTE   W03
 BYTE   En1  v072
 BYTE   W03
 BYTE   En1  v076
 BYTE   W03
 BYTE   N03
 BYTE   W03
 BYTE   En1  v080
 BYTE   W03
 BYTE   En1  v084
 BYTE   W03
 BYTE   En1  v088
 BYTE   W03
// 008   ----------------------------------------
Label_10_01229F9A:
 BYTE   W48
 BYTE   W96
// 009   ----------------------------------------
 BYTE   W96
// 010   ----------------------------------------
 BYTE   W96
// 011   ----------------------------------------
 BYTE   W96
// 012   ----------------------------------------
 BYTE   W96
// 013   ----------------------------------------
 BYTE   W96
// 014   ----------------------------------------
Label_10_01229FA1:
 BYTE   W72
 BYTE   N03  En1  v060
 BYTE   W03
 BYTE   En1  v064
 BYTE   W03
 BYTE   En1  v068
 BYTE   W03
 BYTE   En1  v072
 BYTE   W03
 BYTE   En1  v076
 BYTE   W03
 BYTE   En1  v080
 BYTE   W03
 BYTE   En1  v084
 BYTE   W03
 BYTE   En1  v088
 BYTE   W03
 BYTE   PEND 
// 015   ----------------------------------------
 BYTE   W48
 BYTE   En1  v032
 BYTE   W03
 BYTE   En1  v036
 BYTE   W03
 BYTE   En1  v040
 BYTE   W03
 BYTE   En1  v044
 BYTE   W03
 BYTE   En1  v048
 BYTE   W03
 BYTE   En1  v052
 BYTE   W03
 BYTE   En1  v056
 BYTE   W03
 BYTE   N03
 BYTE   W03
 BYTE   En1  v060
 BYTE   W03
 BYTE   En1  v064
 BYTE   W03
 BYTE   En1  v068
 BYTE   W03
 BYTE   En1  v072
 BYTE   W03
 BYTE   En1  v076
 BYTE   W03
 BYTE   En1  v080
 BYTE   W03
 BYTE   En1  v084
 BYTE   W03
 BYTE   En1  v088
 BYTE   W03
// 016   ----------------------------------------
 BYTE   W96
// 017   ----------------------------------------
 BYTE   W96
// 018   ----------------------------------------
 BYTE   W96
// 019   ----------------------------------------
 BYTE   W96
// 020   ----------------------------------------
 BYTE   W96
// 021   ----------------------------------------
 BYTE   W96
// 022   ----------------------------------------
 BYTE   W96
// 023   ----------------------------------------
 BYTE   W48
 BYTE   En1  v044
 BYTE   W03
 BYTE   N03
 BYTE   W03
 BYTE   En1  v048
 BYTE   W03
 BYTE   En1  v052
 BYTE   W03
 BYTE   En1  v056
 BYTE   W03
 BYTE   En1  v060
 BYTE   W03
 BYTE   N03
 BYTE   W03
 BYTE   En1  v064
 BYTE   W03
 BYTE   En1  v068
 BYTE   W03
 BYTE   En1  v072
 BYTE   W03
 BYTE   En1  v076
 BYTE   W03
 BYTE   En1  v080
 BYTE   W03
 BYTE   N03
 BYTE   W03
 BYTE   En1  v084
 BYTE   W03
 BYTE   En1  v088
 BYTE   W03
 BYTE   En1  v092
 BYTE   W03
// 024   ----------------------------------------
 BYTE   W96
// 025   ----------------------------------------
 BYTE   W96
// 026   ----------------------------------------
 BYTE   W96
// 027   ----------------------------------------
 BYTE   W96
// 028   ----------------------------------------
 BYTE   W96
// 029   ----------------------------------------
 BYTE   W96
// 030   ----------------------------------------
 BYTE   W96
// 031   ----------------------------------------
 BYTE   En1  v088
 BYTE   W24
 BYTE   N03
 BYTE   W24
 BYTE   N03
 BYTE   W03
 BYTE   En1  v044
 BYTE   W03
 BYTE   En1  v048
 BYTE   W03
 BYTE   En1  v052
 BYTE   W03
 BYTE   En1  v056
 BYTE   W03
 BYTE   En1  v060
 BYTE   W03
 BYTE   N03
 BYTE   W03
 BYTE   En1  v064
 BYTE   W03
 BYTE   En1  v068
 BYTE   W03
 BYTE   En1  v072
 BYTE   W03
 BYTE   En1  v076
 BYTE   W03
 BYTE   En1  v080
 BYTE   W03
 BYTE   N03
 BYTE   W03
 BYTE   En1  v084
 BYTE   W03
 BYTE   En1  v088
 BYTE   W03
 BYTE   En1  v092
 BYTE   W03
// 032   ----------------------------------------
 BYTE   W96
// 033   ----------------------------------------
 BYTE   W96
// 034   ----------------------------------------
 BYTE   W96
// 035   ----------------------------------------
 BYTE   W96
// 036   ----------------------------------------
 BYTE   W96
// 037   ----------------------------------------
 BYTE   W96
// 038   ----------------------------------------
 BYTE   W48
 BYTE   En1  v088
 BYTE   W24
 BYTE   En1  v056
 BYTE   W03
 BYTE   En1  v060
 BYTE   W03
 BYTE   En1  v064
 BYTE   W03
 BYTE   En1  v068
 BYTE   W03
 BYTE   En1  v072
 BYTE   W03
 BYTE   En1  v080
 BYTE   W03
 BYTE   En1  v084
 BYTE   W03
 BYTE   En1  v088
 BYTE   W03
 BYTE   PATT
  POIN2 Label_10_01229FA1
// 039   ----------------------------------------
 BYTE   W96
// 040   ----------------------------------------
 BYTE   W96
// 041   ----------------------------------------
 BYTE   W96
// 042   ----------------------------------------
 BYTE   W96
// 043   ----------------------------------------
 BYTE   W96
// 044   ----------------------------------------
 BYTE   W96
// 045   ----------------------------------------
 BYTE   W96
// 046   ----------------------------------------
 BYTE   W96
// 047   ----------------------------------------
 BYTE   N03  En1  v004
 BYTE   W03
 BYTE   N03
 BYTE   W03
 BYTE   En1  v008
 BYTE   W03
 BYTE   En1  v012
 BYTE   W03
 BYTE   N03
 BYTE   W03
 BYTE   En1  v016
 BYTE   W03
 BYTE   En1  v020
 BYTE   W03
 BYTE   N03
 BYTE   W03
 BYTE   En1  v024
 BYTE   W03
 BYTE   En1  v028
 BYTE   W03
 BYTE   N03
 BYTE   W03
 BYTE   En1  v032
 BYTE   W03
 BYTE   En1  v036
 BYTE   W03
 BYTE   En1  v040
 BYTE   W03
 BYTE   N03
 BYTE   W03
 BYTE   En1  v044
 BYTE   W03
 BYTE   En1  v048
 BYTE   W03
 BYTE   N03
 BYTE   W03
 BYTE   En1  v052
 BYTE   W03
 BYTE   En1  v056
 BYTE   W03
 BYTE   N03
 BYTE   W03
 BYTE   En1  v060
 BYTE   W03
 BYTE   En1  v064
 BYTE   W03
 BYTE   En1  v068
 BYTE   W03
 BYTE   N03
 BYTE   W03
 BYTE   En1  v072
 BYTE   W03
 BYTE   En1  v076
 BYTE   W03
 BYTE   N03
 BYTE   W03
 BYTE   En1  v080
 BYTE   W03
 BYTE   En1  v084
 BYTE   W03
 BYTE   N03
 BYTE   W03
 BYTE   En1  v088
 BYTE   W03
// 048   ----------------------------------------
 BYTE   W96
// 049   ----------------------------------------
 BYTE   W96
// 050   ----------------------------------------
 BYTE   W96
// 051   ----------------------------------------
 BYTE   W96
// 052   ----------------------------------------
 BYTE   W96
// 053   ----------------------------------------
 BYTE   W96
// 054   ----------------------------------------
 BYTE   W96
// 055   ----------------------------------------
Label_10_0122A0E7:
 BYTE   W24
 BYTE   N03  En1  v020
 BYTE   W03
 BYTE   En1  v024
 BYTE   W03
 BYTE   N03
 BYTE   W03
 BYTE   En1  v028
 BYTE   W03
 BYTE   En1  v032
 BYTE   W03
 BYTE   N03
 BYTE   W03
 BYTE   En1  v036
 BYTE   W03
 BYTE   En1  v040
 BYTE   W03
 BYTE   En1  v044
 BYTE   W03
 BYTE   N03
 BYTE   W03
 BYTE   En1  v048
 BYTE   W03
 BYTE   En1  v052
 BYTE   W03
 BYTE   N03
 BYTE   W03
 BYTE   En1  v056
 BYTE   W03
 BYTE   En1  v060
 BYTE   W03
 BYTE   N03
 BYTE   W03
 BYTE   En1  v064
 BYTE   W03
 BYTE   En1  v068
 BYTE   W03
 BYTE   N03
 BYTE   W03
 BYTE   En1  v072
 BYTE   W03
 BYTE   En1  v076
 BYTE   W03
 BYTE   En1  v080
 BYTE   W03
 BYTE   N03
 BYTE   W03
 BYTE   En1  v084
 BYTE   W03
 BYTE   PEND 
// 056   ----------------------------------------
 BYTE   W96
// 057   ----------------------------------------
 BYTE   W96
// 058   ----------------------------------------
 BYTE   W96
// 059   ----------------------------------------
 BYTE   W96
// 060   ----------------------------------------
 BYTE   W96
// 061   ----------------------------------------
 BYTE   W96
// 062   ----------------------------------------
 BYTE   W96
 BYTE   PATT
  POIN2 Label_10_0122A0E7
// 063   ----------------------------------------
 BYTE   W96
// 064   ----------------------------------------
 BYTE   W96
// 065   ----------------------------------------
 BYTE   W96
// 066   ----------------------------------------
 BYTE   W96
// 067   ----------------------------------------
 BYTE   W96
// 068   ----------------------------------------
 BYTE   W96
// 069   ----------------------------------------
 BYTE   W96
 BYTE   PATT
  POIN2 Label_10_0122A0E7
// 070   ----------------------------------------
 BYTE   W96
// 071   ----------------------------------------
 BYTE   W96
// 072   ----------------------------------------
 BYTE   W96
// 073   ----------------------------------------
 BYTE   W96
// 074   ----------------------------------------
 BYTE   W96
// 075   ----------------------------------------
 BYTE   W96
// 076   ----------------------------------------
 BYTE   W96
// 077   ----------------------------------------
 BYTE   W24
 BYTE   N03  En1  v024
 BYTE   W03
 BYTE   En1  v028
 BYTE   W03
 BYTE   En1  v032
 BYTE   W03
 BYTE   N03
 BYTE   W03
 BYTE   En1  v036
 BYTE   W03
 BYTE   En1  v040
 BYTE   W03
 BYTE   N03
 BYTE   W03
 BYTE   En1  v044
 BYTE   W03
 BYTE   En1  v048
 BYTE   W03
 BYTE   N03
 BYTE   W03
 BYTE   En1  v052
 BYTE   W03
 BYTE   En1  v056
 BYTE   W03
 BYTE   N03
 BYTE   W03
 BYTE   En1  v060
 BYTE   W03
 BYTE   En1  v064
 BYTE   W03
 BYTE   N03
 BYTE   W03
 BYTE   En1  v068
 BYTE   W03
 BYTE   En1  v072
 BYTE   W03
 BYTE   N03
 BYTE   W03
 BYTE   En1  v076
 BYTE   W03
 BYTE   En1  v080
 BYTE   W03
 BYTE   N03
 BYTE   W03
 BYTE   En1  v084
 BYTE   W03
 BYTE   En1  v088
 BYTE   W03
// 078   ----------------------------------------
 BYTE   W96
// 079   ----------------------------------------
 BYTE   W96
// 080   ----------------------------------------
 BYTE   W96
// 081   ----------------------------------------
 BYTE   W96
// 082   ----------------------------------------
 BYTE   W96
// 083   ----------------------------------------
 BYTE   W96
// 084   ----------------------------------------
 BYTE   W96
// 085   ----------------------------------------
 BYTE   En1  v016
 BYTE   W03
 BYTE   En1  v020
 BYTE   W03
 BYTE   En1  v024
 BYTE   W03
 BYTE   N03
 BYTE   W03
 BYTE   En1  v028
 BYTE   W03
 BYTE   N03
 BYTE   W03
 BYTE   En1  v032
 BYTE   W03
 BYTE   N03
 BYTE   W03
 BYTE   En1  v036
 BYTE   W03
 BYTE   N03
 BYTE   W03
 BYTE   En1  v040
 BYTE   W03
 BYTE   En1  v044
 BYTE   W03
 BYTE   N03
 BYTE   W03
 BYTE   En1  v048
 BYTE   W03
 BYTE   N03
 BYTE   W03
 BYTE   En1  v052
 BYTE   W03
 BYTE   N03
 BYTE   W03
 BYTE   En1  v056
 BYTE   W03
 BYTE   En1  v060
 BYTE   W03
 BYTE   N03
 BYTE   W03
 BYTE   En1  v064
 BYTE   W03
 BYTE   N03
 BYTE   W03
 BYTE   En1  v068
 BYTE   W03
 BYTE   N03
 BYTE   W03
 BYTE   En1  v072
 BYTE   W03
 BYTE   N03
 BYTE   W03
 BYTE   En1  v076
 BYTE   W03
 BYTE   En1  v080
 BYTE   W03
 BYTE   N03
 BYTE   W03
 BYTE   En1  v084
 BYTE   W03
 BYTE   N03
 BYTE   W03
 BYTE   En1  v088
 BYTE   W03
// 086   ----------------------------------------
 BYTE   GoTo
  POIN2 Label_10_01229F9A
 BYTE   FINE

//**************** Track 12 (Midi-Chn.11) ****************//

Touhou7BorderofLifeMrGreen3339_012:
// 000   ----------------------------------------
 BYTE   KEYSH   Touhou7BorderofLifeMrGreen3339_key+0
 BYTE   VOICE   127
 BYTE   VOL   45*Touhou7BorderofLifeMrGreen3339_mvl/mxv
 BYTE   PAN   c_v+0
 BYTE   W96
// 001   ----------------------------------------
 BYTE   W96
// 002   ----------------------------------------
 BYTE   W96
// 003   ----------------------------------------
 BYTE   W96
// 004   ----------------------------------------
 BYTE   W96
// 005   ----------------------------------------
 BYTE   W96
// 006   ----------------------------------------
 BYTE   W96
// 007   ----------------------------------------
 BYTE   W96
// 008   ----------------------------------------
Label_11_0122A200:
 BYTE   W48
 BYTE   W96
// 009   ----------------------------------------
 BYTE   W96
// 010   ----------------------------------------
 BYTE   W96
// 011   ----------------------------------------
 BYTE   W96
// 012   ----------------------------------------
 BYTE   W96
// 013   ----------------------------------------
 BYTE   W96
// 014   ----------------------------------------
 BYTE   W72
 BYTE   N03  Cn2  v044
 BYTE   W03
 BYTE   Cn2  v048
 BYTE   W03
 BYTE   Bn1  v052
 BYTE   W03
 BYTE   Bn1  v056
 BYTE   W03
 BYTE   An1  v060
 BYTE   W03
 BYTE   An1  v064
 BYTE   W03
 BYTE   Cn2
 BYTE   W03
 BYTE   Cn2  v068
 BYTE   W03
// 015   ----------------------------------------
 BYTE   W48
 BYTE   Cn2  v076
 BYTE   W03
 BYTE   N03
 BYTE   W03
 BYTE   Cn2  v072
 BYTE   W03
 BYTE   Cn2  v068
 BYTE   W03
 BYTE   N03
 BYTE   W03
 BYTE   Cn2  v064
 BYTE   W03
 BYTE   Cn2  v060
 BYTE   W03
 BYTE   N03
 BYTE   W03
 BYTE   Bn1  v056
 BYTE   W03
 BYTE   Bn1  v052
 BYTE   W03
 BYTE   N03
 BYTE   W03
 BYTE   Bn1  v048
 BYTE   W03
 BYTE   An1  v044
 BYTE   W03
 BYTE   N03
 BYTE   W03
 BYTE   Gn1  v040
 BYTE   W03
 BYTE   Gn1  v036
 BYTE   W03
// 016   ----------------------------------------
 BYTE   W96
// 017   ----------------------------------------
 BYTE   W96
// 018   ----------------------------------------
 BYTE   W96
// 019   ----------------------------------------
 BYTE   W96
// 020   ----------------------------------------
 BYTE   W96
// 021   ----------------------------------------
 BYTE   W96
// 022   ----------------------------------------
 BYTE   W96
// 023   ----------------------------------------
 BYTE   W96
// 024   ----------------------------------------
 BYTE   W96
// 025   ----------------------------------------
 BYTE   W96
// 026   ----------------------------------------
 BYTE   W96
// 027   ----------------------------------------
 BYTE   W96
// 028   ----------------------------------------
 BYTE   W96
// 029   ----------------------------------------
 BYTE   W96
// 030   ----------------------------------------
 BYTE   W96
// 031   ----------------------------------------
 BYTE   W96
// 032   ----------------------------------------
 BYTE   W96
// 033   ----------------------------------------
 BYTE   W96
// 034   ----------------------------------------
 BYTE   W96
// 035   ----------------------------------------
 BYTE   W96
// 036   ----------------------------------------
 BYTE   W96
// 037   ----------------------------------------
 BYTE   W96
// 038   ----------------------------------------
 BYTE   W96
// 039   ----------------------------------------
 BYTE   W96
// 040   ----------------------------------------
 BYTE   W96
// 041   ----------------------------------------
 BYTE   W96
// 042   ----------------------------------------
 BYTE   W96
// 043   ----------------------------------------
 BYTE   W96
// 044   ----------------------------------------
 BYTE   W96
// 045   ----------------------------------------
 BYTE   W96
// 046   ----------------------------------------
 BYTE   W96
// 047   ----------------------------------------
 BYTE   W96
// 048   ----------------------------------------
 BYTE   W96
// 049   ----------------------------------------
 BYTE   W96
// 050   ----------------------------------------
 BYTE   W96
// 051   ----------------------------------------
 BYTE   W96
// 052   ----------------------------------------
 BYTE   W96
// 053   ----------------------------------------
 BYTE   W96
// 054   ----------------------------------------
 BYTE   W96
// 055   ----------------------------------------
 BYTE   W96
// 056   ----------------------------------------
Label_11_0122A274:
 BYTE   W24
 BYTE   N03  Cn2  v076
 BYTE   W03
 BYTE   N03
 BYTE   W03
 BYTE   N03
 BYTE   W03
 BYTE   N03
 BYTE   W03
 BYTE   N03
 BYTE   W03
 BYTE   N03
 BYTE   W03
 BYTE   N03
 BYTE   W03
 BYTE   N03
 BYTE   W03
 BYTE   Bn1
 BYTE   W03
 BYTE   N03
 BYTE   W03
 BYTE   N03
 BYTE   W03
 BYTE   N03
 BYTE   W03
 BYTE   N03
 BYTE   W03
 BYTE   N03
 BYTE   W03
 BYTE   N03
 BYTE   W03
 BYTE   N03
 BYTE   W03
 BYTE   An1
 BYTE   W03
 BYTE   N03
 BYTE   W03
 BYTE   N03
 BYTE   W03
 BYTE   N03
 BYTE   W03
 BYTE   Cn2
 BYTE   W03
 BYTE   N03
 BYTE   W03
 BYTE   N03
 BYTE   W03
 BYTE   N03
 BYTE   W03
 BYTE   PEND 
// 057   ----------------------------------------
 BYTE   W96
// 058   ----------------------------------------
 BYTE   W96
// 059   ----------------------------------------
 BYTE   W96
// 060   ----------------------------------------
 BYTE   W96
// 061   ----------------------------------------
 BYTE   W96
// 062   ----------------------------------------
 BYTE   W96
// 063   ----------------------------------------
 BYTE   W96
 BYTE   PATT
  POIN2 Label_11_0122A274
// 064   ----------------------------------------
 BYTE   W96
// 065   ----------------------------------------
 BYTE   W96
// 066   ----------------------------------------
 BYTE   W96
// 067   ----------------------------------------
 BYTE   W96
// 068   ----------------------------------------
 BYTE   W96
// 069   ----------------------------------------
 BYTE   W96
// 070   ----------------------------------------
 BYTE   W96
 BYTE   PATT
  POIN2 Label_11_0122A274
// 071   ----------------------------------------
 BYTE   W96
// 072   ----------------------------------------
 BYTE   W96
// 073   ----------------------------------------
 BYTE   W96
// 074   ----------------------------------------
 BYTE   W96
// 075   ----------------------------------------
 BYTE   W96
// 076   ----------------------------------------
 BYTE   W96
// 077   ----------------------------------------
 BYTE   W96
// 078   ----------------------------------------
 BYTE   W24
 BYTE   N03  Cn2  v076
 BYTE   W03
 BYTE   N03
 BYTE   W03
 BYTE   N03
 BYTE   W03
 BYTE   N03
 BYTE   W03
 BYTE   N03
 BYTE   W03
 BYTE   N03
 BYTE   W03
 BYTE   N03
 BYTE   W03
 BYTE   N03
 BYTE   W03
 BYTE   Bn1
 BYTE   W03
 BYTE   N03
 BYTE   W03
 BYTE   N03
 BYTE   W03
 BYTE   N03
 BYTE   W03
 BYTE   N03
 BYTE   W03
 BYTE   N03
 BYTE   W03
 BYTE   N03
 BYTE   W03
 BYTE   N03
 BYTE   W03
 BYTE   An1
 BYTE   W03
 BYTE   N03
 BYTE   W03
 BYTE   N03
 BYTE   W03
 BYTE   N03
 BYTE   W03
 BYTE   Bn1
 BYTE   W03
 BYTE   N03
 BYTE   W03
 BYTE   N03
 BYTE   W03
 BYTE   N03
 BYTE   W03
// 079   ----------------------------------------
 BYTE   W96
// 080   ----------------------------------------
 BYTE   W96
// 081   ----------------------------------------
 BYTE   W96
// 082   ----------------------------------------
 BYTE   W96
// 083   ----------------------------------------
 BYTE   W96
// 084   ----------------------------------------
 BYTE   W96
// 085   ----------------------------------------
 BYTE   W96
// 086   ----------------------------------------
 BYTE   W96
// 087   ----------------------------------------
 BYTE   GoTo
  POIN2 Label_11_0122A200
 BYTE   FINE

//**************** Track 13 (Midi-Chn.12) ****************//

Touhou7BorderofLifeMrGreen3339_013:
// 000   ----------------------------------------
 BYTE   KEYSH   Touhou7BorderofLifeMrGreen3339_key+0
 BYTE   VOICE   127
 BYTE   VOL   45*Touhou7BorderofLifeMrGreen3339_mvl/mxv
 BYTE   PAN   c_v+0
 BYTE   W96
// 001   ----------------------------------------
 BYTE   W96
// 002   ----------------------------------------
 BYTE   W96
// 003   ----------------------------------------
 BYTE   W96
// 004   ----------------------------------------
 BYTE   W96
// 005   ----------------------------------------
 BYTE   W96
// 006   ----------------------------------------
 BYTE   W96
// 007   ----------------------------------------
 BYTE   W96
// 008   ----------------------------------------
Label_12_0122A318:
 BYTE   W48
Label_12_0122A319:
 BYTE   N03  Fs1  v068
 BYTE   W06
 BYTE   N03
 BYTE   W06
 BYTE   As1
 BYTE   W12
 BYTE   Fs1
 BYTE   W06
 BYTE   N03
 BYTE   W06
 BYTE   As1
 BYTE   W12
// 009   ----------------------------------------
 BYTE   Fs1
 BYTE   W06
 BYTE   N03
 BYTE   W06
 BYTE   As1
 BYTE   W12
 BYTE   Fs1
 BYTE   W03
 BYTE   N03
 BYTE   W03
 BYTE   N03
 BYTE   W06
 BYTE   As1
 BYTE   W12
 BYTE   PEND 
 BYTE   Fs1
 BYTE   W06
 BYTE   N03
 BYTE   W06
 BYTE   As1
 BYTE   W06
 BYTE   Fs1
 BYTE   W03
 BYTE   N03
 BYTE   W03
 BYTE   N03
 BYTE   W06
 BYTE   N03
 BYTE   W06
 BYTE   As1
 BYTE   W12
// 010   ----------------------------------------
 BYTE   Fs1
 BYTE   W03
 BYTE   N03
 BYTE   W03
 BYTE   N03
 BYTE   W06
 BYTE   As1
 BYTE   W12
 BYTE   Fs1
 BYTE   W06
 BYTE   N03
 BYTE   W06
 BYTE   N03
 BYTE   W06
 BYTE   N03
 BYTE   W06
 BYTE   N03
 BYTE   W03
 BYTE   N03
 BYTE   W03
 BYTE   N03
 BYTE   W06
 BYTE   As1
 BYTE   W12
 BYTE   Fs1
 BYTE   W06
 BYTE   N03
 BYTE   W06
 BYTE   As1
 BYTE   W12
// 011   ----------------------------------------
 BYTE   Fs1
 BYTE   W06
 BYTE   N03
 BYTE   W06
 BYTE   As1
 BYTE   W12
 BYTE   Fs1
 BYTE   W03
 BYTE   N03
 BYTE   W03
 BYTE   N03
 BYTE   W06
 BYTE   As1
 BYTE   W12
Label_12_0122A372:
 BYTE   N03  Fs1  v068
 BYTE   W06
 BYTE   N03
 BYTE   W06
 BYTE   As1
 BYTE   W06
 BYTE   Fs1
 BYTE   W03
 BYTE   N03
 BYTE   W03
 BYTE   N03
 BYTE   W06
 BYTE   N03
 BYTE   W06
 BYTE   As1
 BYTE   W12
// 012   ----------------------------------------
 BYTE   Fs1
 BYTE   W06
 BYTE   N03
 BYTE   W06
 BYTE   As1
 BYTE   W12
 BYTE   Fs1
 BYTE   W06
 BYTE   N03
 BYTE   W06
 BYTE   As1
 BYTE   W12
 BYTE   PEND 
 BYTE   PATT
  POIN2 Label_12_0122A319
// 013   ----------------------------------------
 BYTE   N03  Fs1  v068
 BYTE   W06
 BYTE   N03
 BYTE   W06
 BYTE   As1
 BYTE   W12
 BYTE   Fs1
 BYTE   W06
 BYTE   N03
 BYTE   W06
 BYTE   As1
 BYTE   W06
 BYTE   Fs1
 BYTE   W03
 BYTE   N03
 BYTE   W03
 BYTE   N03
 BYTE   W06
 BYTE   N03
 BYTE   W06
 BYTE   As1
 BYTE   W12
 BYTE   Fs1
 BYTE   W06
 BYTE   N03
 BYTE   W06
 BYTE   As1
 BYTE   W12
 BYTE   PATT
  POIN2 Label_12_0122A372
// 014   ----------------------------------------
Label_12_0122A3B9:
 BYTE   N03  Fs1  v068
 BYTE   W06
 BYTE   N03
 BYTE   W06
 BYTE   As1
 BYTE   W12
 BYTE   Fs1
 BYTE   W06
 BYTE   N03
 BYTE   W06
 BYTE   As1
 BYTE   W12
 BYTE   Fs1
 BYTE   W06
 BYTE   N03
 BYTE   W06
 BYTE   As1
 BYTE   W12
 BYTE   Fs1
 BYTE   W06
 BYTE   N03
 BYTE   W06
 BYTE   As1
 BYTE   W12
 BYTE   PEND 
 BYTE   PATT
  POIN2 Label_12_0122A3B9
 BYTE   PATT
  POIN2 Label_12_0122A3B9
 BYTE   PATT
  POIN2 Label_12_0122A3B9
 BYTE   PATT
  POIN2 Label_12_0122A3B9
 BYTE   PATT
  POIN2 Label_12_0122A3B9
 BYTE   PATT
  POIN2 Label_12_0122A3B9
 BYTE   PATT
  POIN2 Label_12_0122A3B9
 BYTE   PATT
  POIN2 Label_12_0122A3B9
 BYTE   PATT
  POIN2 Label_12_0122A3B9
 BYTE   PATT
  POIN2 Label_12_0122A3B9
 BYTE   PATT
  POIN2 Label_12_0122A3B9
 BYTE   PATT
  POIN2 Label_12_0122A3B9
 BYTE   PATT
  POIN2 Label_12_0122A3B9
 BYTE   PATT
  POIN2 Label_12_0122A3B9
 BYTE   PATT
  POIN2 Label_12_0122A3B9
 BYTE   PATT
  POIN2 Label_12_0122A3B9
 BYTE   PATT
  POIN2 Label_12_0122A319
// 015   ----------------------------------------
Label_12_0122A429:
 BYTE   N03  Fs1  v068
 BYTE   W06
 BYTE   N03
 BYTE   W06
 BYTE   As1
 BYTE   W12
 BYTE   Fs1
 BYTE   W03
 BYTE   N03
 BYTE   W03
 BYTE   N03
 BYTE   W03
 BYTE   As1
 BYTE   W15
 BYTE   Fs1
 BYTE   W03
 BYTE   N03
 BYTE   W03
 BYTE   N03
 BYTE   W06
 BYTE   As1
 BYTE   W12
 BYTE   Fs1
 BYTE   W06
 BYTE   N03
 BYTE   W06
 BYTE   As1
 BYTE   W12
 BYTE   PEND 
 BYTE   PATT
  POIN2 Label_12_0122A319
 BYTE   PATT
  POIN2 Label_12_0122A429
 BYTE   PATT
  POIN2 Label_12_0122A319
// 016   ----------------------------------------
 BYTE   N03  Fs1  v068
 BYTE   W06
 BYTE   N03
 BYTE   W06
 BYTE   As1
 BYTE   W12
 BYTE   Fs1
 BYTE   W06
 BYTE   N03
 BYTE   W06
 BYTE   As1
 BYTE   W12
 BYTE   Fs1
 BYTE   W03
 BYTE   N03
 BYTE   W03
 BYTE   N03
 BYTE   W06
 BYTE   As1
 BYTE   W12
 BYTE   Fs1
 BYTE   W06
 BYTE   N03
 BYTE   W06
 BYTE   As1
 BYTE   W12
 BYTE   PATT
  POIN2 Label_12_0122A3B9
 BYTE   PATT
  POIN2 Label_12_0122A3B9
// 017   ----------------------------------------
 BYTE   W96
// 018   ----------------------------------------
Label_12_0122A47E:
 BYTE   N03  Fs1  v068
 BYTE   W06
 BYTE   N03
 BYTE   W06
 BYTE   As1
 BYTE   W06
 BYTE   Fs1
 BYTE   W06
 BYTE   N03
 BYTE   W06
 BYTE   N03
 BYTE   W06
 BYTE   As1
 BYTE   W06
 BYTE   Fs1
 BYTE   W06
 BYTE   N03
 BYTE   W06
 BYTE   N03
 BYTE   W06
 BYTE   As1
 BYTE   W06
 BYTE   Fs1
 BYTE   W06
 BYTE   N03
 BYTE   W06
 BYTE   N03
 BYTE   W06
 BYTE   As1
 BYTE   W06
 BYTE   Fs1
 BYTE   W03
 BYTE   N03
 BYTE   W03
 BYTE   PEND 
 BYTE   PATT
  POIN2 Label_12_0122A47E
 BYTE   PATT
  POIN2 Label_12_0122A47E
 BYTE   PATT
  POIN2 Label_12_0122A47E
 BYTE   PATT
  POIN2 Label_12_0122A47E
 BYTE   PATT
  POIN2 Label_12_0122A47E
 BYTE   PATT
  POIN2 Label_12_0122A47E
 BYTE   PATT
  POIN2 Label_12_0122A47E
 BYTE   PATT
  POIN2 Label_12_0122A47E
 BYTE   PATT
  POIN2 Label_12_0122A47E
 BYTE   PATT
  POIN2 Label_12_0122A47E
 BYTE   PATT
  POIN2 Label_12_0122A47E
 BYTE   PATT
  POIN2 Label_12_0122A47E
 BYTE   PATT
  POIN2 Label_12_0122A47E
 BYTE   PATT
  POIN2 Label_12_0122A47E
 BYTE   PATT
  POIN2 Label_12_0122A47E
 BYTE   PATT
  POIN2 Label_12_0122A47E
 BYTE   PATT
  POIN2 Label_12_0122A47E
 BYTE   PATT
  POIN2 Label_12_0122A47E
 BYTE   PATT
  POIN2 Label_12_0122A47E
 BYTE   PATT
  POIN2 Label_12_0122A47E
 BYTE   PATT
  POIN2 Label_12_0122A47E
 BYTE   PATT
  POIN2 Label_12_0122A47E
 BYTE   PATT
  POIN2 Label_12_0122A47E
 BYTE   PATT
  POIN2 Label_12_0122A47E
 BYTE   PATT
  POIN2 Label_12_0122A47E
 BYTE   PATT
  POIN2 Label_12_0122A47E
 BYTE   PATT
  POIN2 Label_12_0122A47E
 BYTE   PATT
  POIN2 Label_12_0122A47E
 BYTE   PATT
  POIN2 Label_12_0122A47E
 BYTE   PATT
  POIN2 Label_12_0122A47E
 BYTE   PATT
  POIN2 Label_12_0122A47E
// 019   ----------------------------------------
 BYTE   W96
// 020   ----------------------------------------
 BYTE   W96
// 021   ----------------------------------------
 BYTE   W96
// 022   ----------------------------------------
 BYTE   W96
// 023   ----------------------------------------
 BYTE   W96
// 024   ----------------------------------------
 BYTE   W96
// 025   ----------------------------------------
 BYTE   W96
// 026   ----------------------------------------
 BYTE   W96
 BYTE   PATT
  POIN2 Label_12_0122A319
// 027   ----------------------------------------
 BYTE   N03  Fs1  v068
 BYTE   W06
 BYTE   N03
 BYTE   W06
 BYTE   As1
 BYTE   W12
 BYTE   Fs1
 BYTE   W03
 BYTE   N03
 BYTE   W03
 BYTE   N03
 BYTE   W06
 BYTE   As1
 BYTE   W12
 BYTE   Fs1
 BYTE   W03
 BYTE   N03
 BYTE   W03
 BYTE   N03
 BYTE   W06
 BYTE   As1
 BYTE   W12
 BYTE   Fs1
 BYTE   W06
 BYTE   N03
 BYTE   W06
 BYTE   As1
 BYTE   W12
// 028   ----------------------------------------
Label_12_0122A569:
 BYTE   N03  Fs1  v068
 BYTE   W03
 BYTE   N03
 BYTE   W03
 BYTE   N03
 BYTE   W06
 BYTE   As1
 BYTE   W12
 BYTE   Fs1
 BYTE   W06
 BYTE   N03
 BYTE   W06
 BYTE   As1
 BYTE   W12
 BYTE   Fs1
 BYTE   W06
 BYTE   N03
 BYTE   W06
 BYTE   As1
 BYTE   W12
 BYTE   Fs1
 BYTE   W06
 BYTE   N03
 BYTE   W06
 BYTE   As1
 BYTE   W12
 BYTE   PEND 
 BYTE   PATT
  POIN2 Label_12_0122A569
 BYTE   PATT
  POIN2 Label_12_0122A319
 BYTE   PATT
  POIN2 Label_12_0122A429
// 029   ----------------------------------------
 BYTE   N03  Fs1  v068
 BYTE   W03
 BYTE   N03
 BYTE   W03
 BYTE   N03
 BYTE   W06
 BYTE   As1
 BYTE   W12
 BYTE   Fs1
 BYTE   W06
 BYTE   N03
 BYTE   W03
 BYTE   As1
 BYTE   W15
 BYTE   Fs1
 BYTE   W06
 BYTE   N03
 BYTE   W06
 BYTE   As1
 BYTE   W12
 BYTE   Fs1
 BYTE   W03
 BYTE   N03
 BYTE   W03
 BYTE   N03
 BYTE   W06
 BYTE   As1
 BYTE   W12
 BYTE   PATT
  POIN2 Label_12_0122A429
// 030   ----------------------------------------
 BYTE   GoTo
  POIN2 Label_12_0122A318
 BYTE   FINE

//**************** Track 14 (Midi-Chn.13) ****************//

Touhou7BorderofLifeMrGreen3339_014:
// 000   ----------------------------------------
 BYTE   KEYSH   Touhou7BorderofLifeMrGreen3339_key+0
 BYTE   VOICE   127
 BYTE   VOL   45*Touhou7BorderofLifeMrGreen3339_mvl/mxv
 BYTE   PAN   c_v+0
 BYTE   N03  Cs2  v100
 BYTE   W96
// 001   ----------------------------------------
 BYTE   W96
// 002   ----------------------------------------
 BYTE   W96
// 003   ----------------------------------------
 BYTE   W96
// 004   ----------------------------------------
 BYTE   W96
// 005   ----------------------------------------
 BYTE   W96
// 006   ----------------------------------------
 BYTE   W96
// 007   ----------------------------------------
Label_13_0122A5D2:
 BYTE   W72
 BYTE   N03  Cn1  v100
 BYTE   W06
 BYTE   N03
 BYTE   W06
 BYTE   Dn1
 BYTE   W06
 BYTE   N03
 BYTE   W06
 BYTE   PEND 
// 008   ----------------------------------------
Label_13_0122A5DE:
 BYTE   W48
Label_13_0122A5DF:
 BYTE   N03  Cn1  v100
 BYTE   N03  Dn1
 BYTE   N03  Cs2
 BYTE   W84
// 009   ----------------------------------------
 BYTE   Dn1
 BYTE   W06
 BYTE   Cn1
 BYTE   W03
 BYTE   N03
 BYTE   W03
 BYTE   PEND 
 BYTE   N03
 BYTE   W48
 BYTE   N03
 BYTE   W03
 BYTE   N03
 BYTE   W03
 BYTE   N03
 BYTE   W12
 BYTE   N03
 BYTE   W03
 BYTE   N03
 BYTE   W03
 BYTE   N03
 BYTE   W06
 BYTE   N03
 BYTE   W06
// 010   ----------------------------------------
 BYTE   Dn1
 BYTE   W06
 BYTE   Cn1
 BYTE   W03
 BYTE   N03
 BYTE   W03
Label_13_0122A604:
 BYTE   N03  Cn1  v100
 BYTE   W42
 BYTE   N03
 BYTE   W06
 BYTE   N03
 BYTE   W12
 BYTE   Dn1
 BYTE   W06
 BYTE   Cn1
 BYTE   W03
 BYTE   N03
 BYTE   W03
 BYTE   N03
 BYTE   W18
// 011   ----------------------------------------
 BYTE   N03
 BYTE   W03
 BYTE   N03
 BYTE   W03
 BYTE   PEND 
 BYTE   N03
 BYTE   W06
 BYTE   N03
 BYTE   W42
 BYTE   N03
 BYTE   W03
 BYTE   N03
 BYTE   W03
 BYTE   N03
 BYTE   W12
 BYTE   N03
 BYTE   W03
 BYTE   N03
 BYTE   W03
 BYTE   N03
 BYTE   W06
 BYTE   N03
 BYTE   W06
 BYTE   Dn1
 BYTE   W06
// 012   ----------------------------------------
 BYTE   Cn1
 BYTE   W03
 BYTE   N03
 BYTE   W03
 BYTE   N03
 BYTE   W06
 BYTE   N03
 BYTE   W06
 BYTE   N03
 BYTE   W06
 BYTE   N03
 BYTE   W06
 BYTE   Dn1
 BYTE   W06
 BYTE   Cn1
 BYTE   W06
 BYTE   N03
 BYTE   W06
 BYTE   N03
 BYTE   W06
 BYTE   N03
 BYTE   W12
 BYTE   Dn1
 BYTE   W06
 BYTE   Cn1
 BYTE   W03
 BYTE   N03
 BYTE   W03
 BYTE   N03
 BYTE   W12
 BYTE   Dn1
 BYTE   W06
// 013   ----------------------------------------
 BYTE   Cn1
 BYTE   W03
 BYTE   N03
 BYTE   W03
 BYTE   N03
 BYTE   W06
 BYTE   N03
 BYTE   W06
 BYTE   N03
 BYTE   W06
 BYTE   N03
 BYTE   W06
 BYTE   Dn1
 BYTE   W06
 BYTE   Cn1
 BYTE   W03
 BYTE   N03
 BYTE   W03
 BYTE   N03
 BYTE   W06
 BYTE   N03
 BYTE   W06
 BYTE   N03
 BYTE   W03
 BYTE   N03
 BYTE   W03
 BYTE   N03
 BYTE   W06
 BYTE   Dn1
 BYTE   W12
 BYTE   Cn1
 BYTE   W06
 BYTE   N03
 BYTE   W06
 BYTE   Dn1
 BYTE   W06
// 014   ----------------------------------------
 BYTE   Cn1
 BYTE   W06
 BYTE   N03
 BYTE   W06
 BYTE   N03
 BYTE   W06
 BYTE   N03
 BYTE   W06
 BYTE   N03
 BYTE   W06
 BYTE   Dn1
 BYTE   W06
 BYTE   Cn1
 BYTE   W06
 BYTE   N03
 BYTE   W06
 BYTE   N03
 BYTE   W06
 BYTE   N03
 BYTE   W12
 BYTE   Dn1
 BYTE   W06
 BYTE   Cn1
 BYTE   W03
 BYTE   N03
 BYTE   W03
 BYTE   N03
 BYTE   W12
 BYTE   Dn1
 BYTE   W12
// 015   ----------------------------------------
 BYTE   Cn1
 BYTE   N03  Cs2
 BYTE   W66
 BYTE   Cn1
 BYTE   W03
 BYTE   N03
 BYTE   W03
 BYTE   N03
 BYTE   W06
 BYTE   N03
 BYTE   W06
 BYTE   Dn1
 BYTE   W12
// 016   ----------------------------------------
Label_13_0122A69D:
 BYTE   N03  Cn1  v100
 BYTE   N03  Cs2
 BYTE   W06
 BYTE   Cn1
 BYTE   W06
 BYTE   Dn1
 BYTE   W12
 BYTE   Cn1
 BYTE   W12
 BYTE   Dn1
 BYTE   W06
 BYTE   Cn1
 BYTE   W06
 BYTE   N03
 BYTE   W06
 BYTE   N03
 BYTE   W06
 BYTE   Dn1
 BYTE   W06
 BYTE   Cn1
 BYTE   W06
 BYTE   N03
 BYTE   W06
 BYTE   N03
 BYTE   W06
 BYTE   Dn1
 BYTE   W12
 BYTE   PEND 
// 017   ----------------------------------------
Label_13_0122A6BC:
 BYTE   N03  Cn1  v100
 BYTE   W06
 BYTE   N03
 BYTE   W06
 BYTE   Dn1
 BYTE   W12
 BYTE   Cn1
 BYTE   W12
 BYTE   Dn1
 BYTE   W06
 BYTE   Cn1
 BYTE   W06
 BYTE   N03
 BYTE   W06
 BYTE   N03
 BYTE   W06
 BYTE   Dn1
 BYTE   W06
 BYTE   Cn1
 BYTE   W06
 BYTE   N03
 BYTE   W06
 BYTE   N03
 BYTE   W06
 BYTE   Dn1
 BYTE   W12
 BYTE   PEND 
 BYTE   PATT
  POIN2 Label_13_0122A6BC
// 018   ----------------------------------------
Label_13_0122A6DE:
 BYTE   N03  Cn1  v100
 BYTE   W06
 BYTE   N03
 BYTE   W06
 BYTE   Dn1
 BYTE   W12
 BYTE   Cn1
 BYTE   W12
 BYTE   Dn1
 BYTE   W06
 BYTE   Cn1
 BYTE   W06
 BYTE   N03
 BYTE   W06
 BYTE   N03
 BYTE   W06
 BYTE   Dn1
 BYTE   W06
 BYTE   Cn1
 BYTE   W06
 BYTE   N03
 BYTE   W06
 BYTE   N03
 BYTE   W06
 BYTE   Dn1
 BYTE   W06
 BYTE   Cn1
 BYTE   W06
 BYTE   PEND 
 BYTE   PATT
  POIN2 Label_13_0122A69D
 BYTE   PATT
  POIN2 Label_13_0122A6BC
 BYTE   PATT
  POIN2 Label_13_0122A6BC
// 019   ----------------------------------------
 BYTE   N03  Cn1  v100
 BYTE   W06
 BYTE   N03
 BYTE   W06
 BYTE   Dn1
 BYTE   W12
 BYTE   Cn1
 BYTE   W12
 BYTE   Dn1
 BYTE   W06
 BYTE   Cn1
 BYTE   W06
 BYTE   N03
 BYTE   W06
 BYTE   N03
 BYTE   W06
 BYTE   Dn1
 BYTE   W06
 BYTE   Cn1
 BYTE   W06
 BYTE   N03
 BYTE   W06
 BYTE   N03
 BYTE   W06
 BYTE   Dn1
 BYTE   W06
 BYTE   Cn1
 BYTE   N03  Dn1
 BYTE   W06
 BYTE   PATT
  POIN2 Label_13_0122A69D
 BYTE   PATT
  POIN2 Label_13_0122A6BC
 BYTE   PATT
  POIN2 Label_13_0122A6BC
 BYTE   PATT
  POIN2 Label_13_0122A6DE
 BYTE   PATT
  POIN2 Label_13_0122A69D
 BYTE   PATT
  POIN2 Label_13_0122A6BC
 BYTE   PATT
  POIN2 Label_13_0122A6BC
// 020   ----------------------------------------
 BYTE   N03  Cn1  v100
 BYTE   N03  Cs2
 BYTE   W18
 BYTE   Cn1
 BYTE   W06
 BYTE   N03
 BYTE   N03  Cs2
 BYTE   W18
 BYTE   Cn1
 BYTE   W06
 BYTE   N03
 BYTE   N03  Cs2
 BYTE   W18
 BYTE   Cn1
 BYTE   W06
 BYTE   N03
 BYTE   W18
 BYTE   N03
 BYTE   W06
// 021   ----------------------------------------
Label_13_0122A767:
 BYTE   N03  Cn1  v100
 BYTE   N03  Cs2
 BYTE   W84
 BYTE   Dn1
 BYTE   W06
 BYTE   Cn1
 BYTE   W03
 BYTE   N03
 BYTE   W03
 BYTE   PEND 
// 022   ----------------------------------------
 BYTE   N03
 BYTE   W48
 BYTE   N03
 BYTE   W03
 BYTE   N03
 BYTE   W03
 BYTE   N03
 BYTE   W18
 BYTE   N03
 BYTE   W06
 BYTE   N03
 BYTE   W06
 BYTE   Dn1
 BYTE   W06
 BYTE   Cn1
 BYTE   W06
 BYTE   PATT
  POIN2 Label_13_0122A604
// 023   ----------------------------------------
 BYTE   N03  Cn1  v100
 BYTE   W06
 BYTE   N03
 BYTE   W42
 BYTE   N03
 BYTE   W03
 BYTE   N03
 BYTE   W03
 BYTE   N03
 BYTE   W18
 BYTE   N03
 BYTE   W06
 BYTE   N03
 BYTE   W06
 BYTE   Dn1
 BYTE   W06
 BYTE   Cn1
 BYTE   W06
// 024   ----------------------------------------
 BYTE   N03
 BYTE   W06
 BYTE   N03
 BYTE   W06
 BYTE   N03
 BYTE   W06
 BYTE   N03
 BYTE   W06
 BYTE   Dn1
 BYTE   W06
 BYTE   Cn1
 BYTE   W12
 BYTE   N03
 BYTE   W06
 BYTE   N03
 BYTE   W06
 BYTE   N03
 BYTE   W06
 BYTE   Dn1
 BYTE   W06
 BYTE   Cn1
 BYTE   W03
 BYTE   N03
 BYTE   W03
 BYTE   N03
 BYTE   W12
 BYTE   Dn1
 BYTE   W06
 BYTE   Cn1
 BYTE   W03
 BYTE   N03
 BYTE   W03
// 025   ----------------------------------------
 BYTE   N03
 BYTE   W06
 BYTE   N03
 BYTE   W06
 BYTE   N03
 BYTE   W06
 BYTE   N03
 BYTE   W03
 BYTE   N03
 BYTE   W03
 BYTE   Dn1
 BYTE   W06
 BYTE   Cn1
 BYTE   W06
 BYTE   N03
 BYTE   W06
 BYTE   N03
 BYTE   W06
 BYTE   N03
 BYTE   W03
 BYTE   N03
 BYTE   W03
 BYTE   N03
 BYTE   W06
 BYTE   Dn1
 BYTE   W12
 BYTE   Cn1
 BYTE   W06
 BYTE   N03
 BYTE   W06
 BYTE   Dn1
 BYTE   W06
 BYTE   Cn1
 BYTE   W06
// 026   ----------------------------------------
 BYTE   N03
 BYTE   W06
 BYTE   N03
 BYTE   W06
 BYTE   N03
 BYTE   W06
 BYTE   N03
 BYTE   W06
 BYTE   Dn1
 BYTE   W06
 BYTE   Cn1
 BYTE   W06
 BYTE   N03
 BYTE   W06
 BYTE   N03
 BYTE   W06
 BYTE   N03
 BYTE   W12
 BYTE   Dn1
 BYTE   W06
 BYTE   Cn1
 BYTE   W03
 BYTE   N03
 BYTE   W03
 BYTE   N03
 BYTE   W12
 BYTE   Dn1
 BYTE   W03
 BYTE   Cn1
 BYTE   W03
 BYTE   N03
 BYTE   W03
 BYTE   N03
 BYTE   W03
// 027   ----------------------------------------
 BYTE   N03
 BYTE   N03  Dn1
 BYTE   N03  Cs2
 BYTE   W48
 BYTE   Dn1
 BYTE   W12
 BYTE   N03
 BYTE   W12
 BYTE   Cn1
 BYTE   W03
 BYTE   N03
 BYTE   W03
 BYTE   N03
 BYTE   W06
 BYTE   Dn1
 BYTE   W06
 BYTE   Cn1
 BYTE   W06
// 028   ----------------------------------------
 BYTE   W96
// 029   ----------------------------------------
Label_13_0122A816:
 BYTE   N03  Cn1  v100
 BYTE   N03  Cs2
 BYTE   W24
 BYTE   Cn1
 BYTE   W24
 BYTE   N03
 BYTE   W24
 BYTE   N03
 BYTE   W24
 BYTE   PEND 
 BYTE   PATT
  POIN2 Label_13_0122A816
// 030   ----------------------------------------
Label_13_0122A828:
 BYTE   N03  Cn1  v100
 BYTE   N03  Cs2
 BYTE   W24
 BYTE   Cn1
 BYTE   W24
 BYTE   N03
 BYTE   N03  Cs2
 BYTE   W24
 BYTE   Cn1
 BYTE   W24
 BYTE   PEND 
 BYTE   PATT
  POIN2 Label_13_0122A816
 BYTE   PATT
  POIN2 Label_13_0122A816
 BYTE   PATT
  POIN2 Label_13_0122A816
 BYTE   PATT
  POIN2 Label_13_0122A828
// 031   ----------------------------------------
 BYTE   N03  Cn1  v100
 BYTE   N03  Cs2
 BYTE   W24
 BYTE   Cn1
 BYTE   W24
 BYTE   N03
 BYTE   W24
 BYTE   N03
 BYTE   N03  Dn1
 BYTE   W12
 BYTE   N03
 BYTE   W06
 BYTE   N03
 BYTE   W06
// 032   ----------------------------------------
Label_13_0122A85D:
 BYTE   N03  Cn1  v100
 BYTE   N03  Cs2
 BYTE   W12
 BYTE   Dn1
 BYTE   W12
 BYTE   Cn1
 BYTE   W12
 BYTE   Dn1
 BYTE   W06
 BYTE   Cn1
 BYTE   W06
 BYTE   N03
 BYTE   W06
 BYTE   N03
 BYTE   W06
 BYTE   Dn1
 BYTE   W06
 BYTE   Cn1
 BYTE   W06
 BYTE   N03
 BYTE   W12
 BYTE   Dn1
 BYTE   W06
 BYTE   Cn1
 BYTE   W06
 BYTE   PEND 
// 033   ----------------------------------------
Label_13_0122A87A:
 BYTE   N03  Cn1  v100
 BYTE   W12
 BYTE   Dn1
 BYTE   W12
 BYTE   Cn1
 BYTE   W12
 BYTE   Dn1
 BYTE   W06
 BYTE   Cn1
 BYTE   W06
 BYTE   N03
 BYTE   W06
 BYTE   N03
 BYTE   W06
 BYTE   Dn1
 BYTE   W06
 BYTE   Cn1
 BYTE   W06
 BYTE   N03
 BYTE   W12
 BYTE   Dn1
 BYTE   W06
 BYTE   Cn1
 BYTE   W06
 BYTE   PEND 
// 034   ----------------------------------------
Label_13_0122A895:
 BYTE   N03  Cn1  v100
 BYTE   N03  Cs2
 BYTE   W12
 BYTE   Dn1
 BYTE   W12
 BYTE   Cn1
 BYTE   W12
 BYTE   Dn1
 BYTE   W06
 BYTE   Cn1
 BYTE   W06
 BYTE   N03
 BYTE   N03  Cs2
 BYTE   W06
 BYTE   Cn1
 BYTE   W06
 BYTE   Dn1
 BYTE   W06
 BYTE   Cn1
 BYTE   W06
 BYTE   N03
 BYTE   W12
 BYTE   Dn1
 BYTE   W06
 BYTE   Cn1
 BYTE   W06
 BYTE   PEND 
 BYTE   PATT
  POIN2 Label_13_0122A85D
 BYTE   PATT
  POIN2 Label_13_0122A87A
 BYTE   PATT
  POIN2 Label_13_0122A87A
 BYTE   PATT
  POIN2 Label_13_0122A895
 BYTE   PATT
  POIN2 Label_13_0122A85D
 BYTE   PATT
  POIN2 Label_13_0122A85D
 BYTE   PATT
  POIN2 Label_13_0122A87A
 BYTE   PATT
  POIN2 Label_13_0122A895
 BYTE   PATT
  POIN2 Label_13_0122A85D
 BYTE   PATT
  POIN2 Label_13_0122A85D
 BYTE   PATT
  POIN2 Label_13_0122A87A
 BYTE   PATT
  POIN2 Label_13_0122A895
 BYTE   PATT
  POIN2 Label_13_0122A85D
 BYTE   PATT
  POIN2 Label_13_0122A85D
 BYTE   PATT
  POIN2 Label_13_0122A87A
 BYTE   PATT
  POIN2 Label_13_0122A895
 BYTE   PATT
  POIN2 Label_13_0122A85D
 BYTE   PATT
  POIN2 Label_13_0122A85D
 BYTE   PATT
  POIN2 Label_13_0122A87A
 BYTE   PATT
  POIN2 Label_13_0122A895
 BYTE   PATT
  POIN2 Label_13_0122A85D
// 035   ----------------------------------------
 BYTE   N03  Cs2  v100
 BYTE   W96
// 036   ----------------------------------------
 BYTE   W96
// 037   ----------------------------------------
 BYTE   W96
// 038   ----------------------------------------
 BYTE   W96
// 039   ----------------------------------------
 BYTE   W96
// 040   ----------------------------------------
 BYTE   W96
// 041   ----------------------------------------
 BYTE   W96
 BYTE   PATT
  POIN2 Label_13_0122A5D2
 BYTE   PATT
  POIN2 Label_13_0122A5DF
// 042   ----------------------------------------
Label_13_0122A931:
 BYTE   N03  Cn1  v100
 BYTE   W48
 BYTE   N03
 BYTE   W48
 BYTE   PEND 
// 043   ----------------------------------------
 BYTE   N03
 BYTE   W48
 BYTE   N03
 BYTE   W12
 BYTE   Dn1
 BYTE   W36
// 044   ----------------------------------------
 BYTE   Cn1
 BYTE   W84
 BYTE   Dn1
 BYTE   W12
 BYTE   PATT
  POIN2 Label_13_0122A767
 BYTE   PATT
  POIN2 Label_13_0122A931
// 045   ----------------------------------------
 BYTE   N03  Cn1  v100
 BYTE   W60
 BYTE   Dn1
 BYTE   W36
// 046   ----------------------------------------
 BYTE   Cn1
 BYTE   W24
 BYTE   N03
 BYTE   W12
 BYTE   N03
 BYTE   W12
 BYTE   N03
 BYTE   N03  Dn1
 BYTE   W12
 BYTE   Cn1
 BYTE   N03  Dn1
 BYTE   W12
 BYTE   Cn1
 BYTE   N03  Dn1  v064
 BYTE   W03
 BYTE   Dn1  v068
 BYTE   W03
 BYTE   Dn1  v076
 BYTE   W03
 BYTE   Dn1  v080
 BYTE   W03
 BYTE   Dn1  v084
 BYTE   W03
 BYTE   Dn1  v088
 BYTE   W03
 BYTE   Dn1  v096
 BYTE   W03
 BYTE   Dn1  v100
 BYTE   W03
// 047   ----------------------------------------
 BYTE   GoTo
  POIN2 Label_13_0122A5DE
 BYTE   FINE

//******************************************************//
	ALIGN 4

Touhou7BorderofLifeMrGreen3339:
	BYTE	14	// NumTrks
	BYTE	0	// NumBlks
	BYTE	Touhou7BorderofLifeMrGreen3339_pri	// Priority
	BYTE	Touhou7BorderofLifeMrGreen3339_rev	// Reverb.
    
	POIN2	Touhou7BorderofLifeMrGreen3339_grp
    
	POIN2	Touhou7BorderofLifeMrGreen3339_001
	POIN2	Touhou7BorderofLifeMrGreen3339_002
	POIN2	Touhou7BorderofLifeMrGreen3339_003
	POIN2	Touhou7BorderofLifeMrGreen3339_004
	POIN2	Touhou7BorderofLifeMrGreen3339_005
	POIN2	Touhou7BorderofLifeMrGreen3339_006
	POIN2	Touhou7BorderofLifeMrGreen3339_007
	POIN2	Touhou7BorderofLifeMrGreen3339_008
	POIN2	Touhou7BorderofLifeMrGreen3339_009
	POIN2	Touhou7BorderofLifeMrGreen3339_010
	POIN2	Touhou7BorderofLifeMrGreen3339_011
	POIN2	Touhou7BorderofLifeMrGreen3339_012
	POIN2	Touhou7BorderofLifeMrGreen3339_013
	POIN2	Touhou7BorderofLifeMrGreen3339_014

	
