//Event file generated from Sappy .s format.
	#include "MPlayDef.event"

	#define	MarioKartDSChocoMountain_grp  voicegroup000
	#define	MarioKartDSChocoMountain_pri  0
	#define	MarioKartDSChocoMountain_rev  0
	#define	MarioKartDSChocoMountain_mvl  127
	#define	MarioKartDSChocoMountain_key  0
	#define	MarioKartDSChocoMountain_tbs  1
	#define	MarioKartDSChocoMountain_exg  0
	#define	MarioKartDSChocoMountain_cmp  1

	// .rodata
	//	MarioKartDSChocoMountain
	ALIGN 4


//**************** Track 1 (Midi-Chn.0) ****************//

MarioKartDSChocoMountain_001:
//  #01 //000   ----------------------------------------
 BYTE   KEYSH   MarioKartDSChocoMountain_key+0
 BYTE   TEMPO   150*MarioKartDSChocoMountain_tbs/2
 BYTE   VOICE   33
 BYTE   MODT 0
 BYTE   LFOS 44
 BYTE   VOL   76*MarioKartDSChocoMountain_mvl/mxv
 BYTE   N06  Gn1  v127
 BYTE   W12
 BYTE   N06
 BYTE   W12
 BYTE   Bn1
 BYTE   W12
 BYTE   N06
 BYTE   W12
 BYTE   Dn1
 BYTE   W12
 BYTE   N06
 BYTE   W12
 BYTE   N12  En1
 BYTE   W12
 BYTE   Fs1
 BYTE   W12
//  #01 //001   ----------------------------------------
Label_0100E44F:
 BYTE   N06  Gn1  v127
 BYTE   W12
 BYTE   N06
 BYTE   W12
 BYTE   Bn1
 BYTE   W12
 BYTE   N06
 BYTE   W12
 BYTE   Dn1
 BYTE   W12
 BYTE   N06
 BYTE   W12
 BYTE   N12  En1
 BYTE   W12
 BYTE   Fs1
 BYTE   W12
 BYTE   PEND 
//  #01 //002   ----------------------------------------
 BYTE   PATT
  POIN2 Label_0100E44F
//  #01 //003   ----------------------------------------
Label_0100E468:
 BYTE   N06  Cn1  v127
 BYTE   W12
 BYTE   N06
 BYTE   W12
 BYTE   Gn1
 BYTE   W12
 BYTE   N06
 BYTE   W12
 BYTE   Cn2
 BYTE   W12
 BYTE   N06
 BYTE   W12
 BYTE   N12  Gn1
 BYTE   W12
 BYTE   Cn1
 BYTE   W12
 BYTE   PEND 
//  #01 //004   ----------------------------------------
Label_0100E47C:
 BYTE   N06  Gn1  v127
 BYTE   W12
 BYTE   N06
 BYTE   W12
 BYTE   N12  Bn1
 BYTE   W12
 BYTE   N06  Dn2
 BYTE   W12
 BYTE   Fs1
 BYTE   W12
 BYTE   N06
 BYTE   W12
 BYTE   N12  As1
 BYTE   W12
 BYTE   N06  Dn2
 BYTE   W12
 BYTE   PEND 
//  #01 //005   ----------------------------------------
Label_0100E493:
 BYTE   N06  Fn1  v127
 BYTE   W12
 BYTE   N06
 BYTE   W12
 BYTE   N12  Dn2
 BYTE   W12
 BYTE   N06  Fn2
 BYTE   W12
 BYTE   Cn1
 BYTE   W12
 BYTE   N06
 BYTE   W12
 BYTE   N12  Gn1
 BYTE   W12
 BYTE   N06  Dn2
 BYTE   W12
 BYTE   PEND 
//  #01 //006   ----------------------------------------
Label_0100E4AA:
 BYTE   N06  An0  v127
 BYTE   W12
 BYTE   N06
 BYTE   W12
 BYTE   Cs1
 BYTE   W12
 BYTE   N06
 BYTE   W12
 BYTE   En1
 BYTE   W12
 BYTE   N06
 BYTE   W12
 BYTE   An1
 BYTE   W12
 BYTE   En1
 BYTE   W12
 BYTE   PEND 
//  #01 //007   ----------------------------------------
Label_0100E4BD:
 BYTE   N06  Dn1  v127
 BYTE   W12
 BYTE   N06
 BYTE   W12
 BYTE   N12  Fs1
 BYTE   W12
 BYTE   N06  Dn1
 BYTE   W12
 BYTE   Dn2
 BYTE   W48
 BYTE   PEND 
//  #01 //008   ----------------------------------------
 BYTE   PATT
  POIN2 Label_0100E44F
//  #01 //009   ----------------------------------------
 BYTE   PATT
  POIN2 Label_0100E44F
//  #01 //010   ----------------------------------------
 BYTE   PATT
  POIN2 Label_0100E44F
//  #01 //011   ----------------------------------------
 BYTE   PATT
  POIN2 Label_0100E468
//  #01 //012   ----------------------------------------
 BYTE   PATT
  POIN2 Label_0100E47C
//  #01 //013   ----------------------------------------
 BYTE   PATT
  POIN2 Label_0100E493
//  #01 //014   ----------------------------------------
Label_0100E4EA:
 BYTE   N06  Dn1  v127
 BYTE   W12
 BYTE   N06
 BYTE   W12
 BYTE   N06
 BYTE   W12
 BYTE   N06
 BYTE   W12
 BYTE   Fn1
 BYTE   W12
 BYTE   N06
 BYTE   W12
 BYTE   An1
 BYTE   W12
 BYTE   En1
 BYTE   W12
 BYTE   PEND 
//  #01 //015   ----------------------------------------
Label_0100E4FD:
 BYTE   N06  Gn1  v127
 BYTE   W12
 BYTE   N06
 BYTE   W12
 BYTE   N12  Gn0
 BYTE   W12
 BYTE   N06  Gn1
 BYTE   W12
 BYTE   Gn0
 BYTE   W48
 BYTE   PEND 
//  #01 //016   ----------------------------------------
Label_0100E50C:
 BYTE   N24  Cn2  v127
 BYTE   W24
 BYTE   Gn1
 BYTE   W24
 BYTE   Cn2
 BYTE   W24
 BYTE   Gn1
 BYTE   W24
 BYTE   PEND 
//  #01 //017   ----------------------------------------
Label_0100E517:
 BYTE   N24  Gn1  v127
 BYTE   W24
 BYTE   Dn1
 BYTE   W24
 BYTE   Gn1
 BYTE   W24
 BYTE   Dn1
 BYTE   W24
 BYTE   PEND 
//  #01 //018   ----------------------------------------
Label_0100E522:
 BYTE   N24  Dn2  v127
 BYTE   W24
 BYTE   An1
 BYTE   W24
 BYTE   Dn2
 BYTE   W24
 BYTE   An1
 BYTE   W24
 BYTE   PEND 
//  #01 //019   ----------------------------------------
Label_0100E52D:
 BYTE   N24  Gn1  v127
 BYTE   W24
 BYTE   Dn1
 BYTE   W24
 BYTE   N06  Gn1
 BYTE   W12
 BYTE   N12
 BYTE   W12
 BYTE   An1
 BYTE   W12
 BYTE   Bn1
 BYTE   W12
 BYTE   PEND 
//  #01 //020   ----------------------------------------
 BYTE   PATT
  POIN2 Label_0100E50C
//  #01 //021   ----------------------------------------
 BYTE   PATT
  POIN2 Label_0100E517
//  #01 //022   ----------------------------------------
Label_0100E547:
 BYTE   N24  Dn2  v127
 BYTE   W24
 BYTE   An1
 BYTE   W24
 BYTE   Dn1
 BYTE   W24
 BYTE   Dn2
 BYTE   W24
 BYTE   PEND 
//  #01 //023   ----------------------------------------
 BYTE   PATT
  POIN2 Label_0100E52D
//  #01 //024   ----------------------------------------
 BYTE   PATT
  POIN2 Label_0100E50C
//  #01 //025   ----------------------------------------
 BYTE   PATT
  POIN2 Label_0100E517
//  #01 //026   ----------------------------------------
 BYTE   PATT
  POIN2 Label_0100E522
//  #01 //027   ----------------------------------------
 BYTE   PATT
  POIN2 Label_0100E52D
//  #01 //028   ----------------------------------------
 BYTE   PATT
  POIN2 Label_0100E50C
//  #01 //029   ----------------------------------------
 BYTE   PATT
  POIN2 Label_0100E517
//  #01 //030   ----------------------------------------
 BYTE   PATT
  POIN2 Label_0100E547
//  #01 //031   ----------------------------------------
Label_0100E57A:
 BYTE   N24  Dn1  v127
 BYTE   W24
 BYTE   Dn2
 BYTE   W24
 BYTE   N12  Dn1
 BYTE   W12
 BYTE   N12
 BYTE   W12
 BYTE   Dn2
 BYTE   W12
 BYTE   Dn1
 BYTE   W12
 BYTE   PEND 
//  #01 //032   ----------------------------------------
Label_0100E58A:
 BYTE   N18  Gn1  v127
 BYTE   W24
 BYTE   Dn1
 BYTE   W24
 BYTE   En1
 BYTE   W24
 BYTE   Fs1
 BYTE   W24
 BYTE   PEND 
//  #01 //033   ----------------------------------------
 BYTE   PATT
  POIN2 Label_0100E58A
//  #01 //034   ----------------------------------------
 BYTE   PATT
  POIN2 Label_0100E58A
//  #01 //035   ----------------------------------------
 BYTE   PATT
  POIN2 Label_0100E58A
//  #01 //036   ----------------------------------------
 BYTE   PATT
  POIN2 Label_0100E58A
//  #01 //037   ----------------------------------------
 BYTE   PATT
  POIN2 Label_0100E58A
//  #01 //038   ----------------------------------------
 BYTE   PATT
  POIN2 Label_0100E58A
//  #01 //039   ----------------------------------------
 BYTE   PATT
  POIN2 Label_0100E58A
//  #01 //040   ----------------------------------------
 BYTE   PATT
  POIN2 Label_0100E44F
//  #01 //041   ----------------------------------------
 BYTE   PATT
  POIN2 Label_0100E44F
//  #01 //042   ----------------------------------------
 BYTE   PATT
  POIN2 Label_0100E44F
//  #01 //043   ----------------------------------------
Label_0100E5C7:
 BYTE   N06  Gn1  v127
 BYTE   W12
 BYTE   N06
 BYTE   W12
 BYTE   Bn1
 BYTE   W12
 BYTE   N06
 BYTE   W12
 BYTE   Dn1
 BYTE   W12
 BYTE   N06
 BYTE   W12
 BYTE   N12
 BYTE   W12
 BYTE   Cs1
 BYTE   W12
 BYTE   PEND 
//  #01 //044   ----------------------------------------
Label_0100E5DA:
 BYTE   N06  Cn1  v127
 BYTE   W12
 BYTE   N06
 BYTE   W12
 BYTE   En1
 BYTE   W12
 BYTE   N06
 BYTE   W12
 BYTE   Gn0
 BYTE   W12
 BYTE   N06
 BYTE   W12
 BYTE   N12  An0
 BYTE   W12
 BYTE   Bn0
 BYTE   W12
 BYTE   PEND 
//  #01 //045   ----------------------------------------
Label_0100E5EE:
 BYTE   N06  Cn1  v127
 BYTE   W12
 BYTE   N06
 BYTE   W12
 BYTE   En1
 BYTE   W12
 BYTE   N06
 BYTE   W12
 BYTE   Gn0
 BYTE   W12
 BYTE   N06
 BYTE   W12
 BYTE   N12  Dn1
 BYTE   W12
 BYTE   Fs1
 BYTE   W12
 BYTE   PEND 
//  #01 //046   ----------------------------------------
 BYTE   PATT
  POIN2 Label_0100E44F
//  #01 //047   ----------------------------------------
 BYTE   PATT
  POIN2 Label_0100E44F
//  #01 //048   ----------------------------------------
Label_0100E60C:
 BYTE   N06  Dn1  v127
 BYTE   W12
 BYTE   N06
 BYTE   W12
 BYTE   Fs1
 BYTE   W12
 BYTE   N06
 BYTE   W12
 BYTE   An1
 BYTE   W12
 BYTE   N06
 BYTE   W12
 BYTE   N12  Dn1
 BYTE   W12
 BYTE   Cs1
 BYTE   W12
 BYTE   PEND 
//  #01 //049   ----------------------------------------
Label_0100E620:
 BYTE   N06  Cn1  v127
 BYTE   W12
 BYTE   N06
 BYTE   W12
 BYTE   En1
 BYTE   W12
 BYTE   N06
 BYTE   W12
 BYTE   Gn1
 BYTE   W12
 BYTE   N06
 BYTE   W12
 BYTE   N12  Cn1
 BYTE   W12
 BYTE   Cs1
 BYTE   W12
 BYTE   PEND 
//  #01 //050   ----------------------------------------
 BYTE   PATT
  POIN2 Label_0100E60C
//  #01 //051   ----------------------------------------
 BYTE   PATT
  POIN2 Label_0100E620
//  #01 //052   ----------------------------------------
 BYTE   PATT
  POIN2 Label_0100E60C
//  #01 //053   ----------------------------------------
 BYTE   PATT
  POIN2 Label_0100E620
//  #01 //054   ----------------------------------------
Label_0100E648:
 BYTE   N06  Dn1  v127
 BYTE   W12
 BYTE   N06
 BYTE   W12
 BYTE   Fs1
 BYTE   W12
 BYTE   N06
 BYTE   W12
 BYTE   An1
 BYTE   W12
 BYTE   N06
 BYTE   W12
 BYTE   Fs1
 BYTE   W12
 BYTE   N06
 BYTE   W12
 BYTE   PEND 
//  #01 //055   ----------------------------------------
Label_0100E65B:
 BYTE   N06  Dn1  v127
 BYTE   W12
 BYTE   N06
 BYTE   W12
 BYTE   N06
 BYTE   W12
 BYTE   N06
 BYTE   W12
 BYTE   N06
 BYTE   W12
 BYTE   N06
 BYTE   W12
 BYTE   N06
 BYTE   W12
 BYTE   N06
 BYTE   W12
 BYTE   PEND 
//  #01 //056   ----------------------------------------
 BYTE   PATT
  POIN2 Label_0100E44F
//  #01 //057   ----------------------------------------
 BYTE   PATT
  POIN2 Label_0100E44F
//  #01 //058   ----------------------------------------
 BYTE   PATT
  POIN2 Label_0100E44F
//  #01 //059   ----------------------------------------
 BYTE   PATT
  POIN2 Label_0100E468
//  #01 //060   ----------------------------------------
 BYTE   PATT
  POIN2 Label_0100E47C
//  #01 //061   ----------------------------------------
 BYTE   PATT
  POIN2 Label_0100E493
//  #01 //062   ----------------------------------------
 BYTE   PATT
  POIN2 Label_0100E4AA
//  #01 //063   ----------------------------------------
 BYTE   PATT
  POIN2 Label_0100E4BD
//  #01 //064   ----------------------------------------
 BYTE   PATT
  POIN2 Label_0100E44F
//  #01 //065   ----------------------------------------
 BYTE   PATT
  POIN2 Label_0100E44F
//  #01 //066   ----------------------------------------
 BYTE   PATT
  POIN2 Label_0100E44F
//  #01 //067   ----------------------------------------
 BYTE   PATT
  POIN2 Label_0100E468
//  #01 //068   ----------------------------------------
 BYTE   PATT
  POIN2 Label_0100E47C
//  #01 //069   ----------------------------------------
 BYTE   PATT
  POIN2 Label_0100E493
//  #01 //070   ----------------------------------------
 BYTE   PATT
  POIN2 Label_0100E4EA
//  #01 //071   ----------------------------------------
 BYTE   PATT
  POIN2 Label_0100E4FD
//  #01 //072   ----------------------------------------
 BYTE   PATT
  POIN2 Label_0100E50C
//  #01 //073   ----------------------------------------
 BYTE   PATT
  POIN2 Label_0100E517
//  #01 //074   ----------------------------------------
 BYTE   PATT
  POIN2 Label_0100E522
//  #01 //075   ----------------------------------------
 BYTE   PATT
  POIN2 Label_0100E52D
//  #01 //076   ----------------------------------------
 BYTE   PATT
  POIN2 Label_0100E50C
//  #01 //077   ----------------------------------------
 BYTE   PATT
  POIN2 Label_0100E517
//  #01 //078   ----------------------------------------
 BYTE   PATT
  POIN2 Label_0100E547
//  #01 //079   ----------------------------------------
 BYTE   PATT
  POIN2 Label_0100E52D
//  #01 //080   ----------------------------------------
 BYTE   PATT
  POIN2 Label_0100E50C
//  #01 //081   ----------------------------------------
 BYTE   PATT
  POIN2 Label_0100E517
//  #01 //082   ----------------------------------------
 BYTE   PATT
  POIN2 Label_0100E522
//  #01 //083   ----------------------------------------
 BYTE   PATT
  POIN2 Label_0100E52D
//  #01 //084   ----------------------------------------
 BYTE   PATT
  POIN2 Label_0100E50C
//  #01 //085   ----------------------------------------
 BYTE   PATT
  POIN2 Label_0100E517
//  #01 //086   ----------------------------------------
 BYTE   PATT
  POIN2 Label_0100E547
//  #01 //087   ----------------------------------------
 BYTE   PATT
  POIN2 Label_0100E57A
//  #01 //088   ----------------------------------------
 BYTE   PATT
  POIN2 Label_0100E58A
//  #01 //089   ----------------------------------------
 BYTE   PATT
  POIN2 Label_0100E58A
//  #01 //090   ----------------------------------------
 BYTE   PATT
  POIN2 Label_0100E58A
//  #01 //091   ----------------------------------------
 BYTE   PATT
  POIN2 Label_0100E58A
//  #01 //092   ----------------------------------------
 BYTE   PATT
  POIN2 Label_0100E58A
//  #01 //093   ----------------------------------------
 BYTE   PATT
  POIN2 Label_0100E58A
//  #01 //094   ----------------------------------------
 BYTE   PATT
  POIN2 Label_0100E58A
//  #01 //095   ----------------------------------------
 BYTE   PATT
  POIN2 Label_0100E58A
//  #01 //096   ----------------------------------------
 BYTE   PATT
  POIN2 Label_0100E44F
//  #01 //097   ----------------------------------------
 BYTE   PATT
  POIN2 Label_0100E44F
//  #01 //098   ----------------------------------------
 BYTE   PATT
  POIN2 Label_0100E44F
//  #01 //099   ----------------------------------------
 BYTE   PATT
  POIN2 Label_0100E5C7
//  #01 //100   ----------------------------------------
 BYTE   PATT
  POIN2 Label_0100E5DA
//  #01 //101   ----------------------------------------
 BYTE   PATT
  POIN2 Label_0100E5EE
//  #01 //102   ----------------------------------------
 BYTE   PATT
  POIN2 Label_0100E44F
//  #01 //103   ----------------------------------------
 BYTE   PATT
  POIN2 Label_0100E44F
//  #01 //104   ----------------------------------------
 BYTE   PATT
  POIN2 Label_0100E60C
//  #01 //105   ----------------------------------------
 BYTE   PATT
  POIN2 Label_0100E620
//  #01 //106   ----------------------------------------
 BYTE   PATT
  POIN2 Label_0100E60C
//  #01 //107   ----------------------------------------
 BYTE   PATT
  POIN2 Label_0100E620
//  #01 //108   ----------------------------------------
 BYTE   PATT
  POIN2 Label_0100E60C
//  #01 //109   ----------------------------------------
 BYTE   PATT
  POIN2 Label_0100E620
//  #01 //110   ----------------------------------------
 BYTE   PATT
  POIN2 Label_0100E648
//  #01 //111   ----------------------------------------
 BYTE   PATT
  POIN2 Label_0100E65B
 BYTE   FINE

//**************** Track 2 (Midi-Chn.1) ****************//

MarioKartDSChocoMountain_002:
//  #02 //000   ----------------------------------------
 BYTE   VOL   81*MarioKartDSChocoMountain_mvl/mxv
 BYTE   KEYSH   MarioKartDSChocoMountain_key+0
 BYTE   VOICE   104
 BYTE   MODT 0
 BYTE   LFOS 44
 BYTE   W96
//  #02 //001   ----------------------------------------
 BYTE   W96
//  #02 //002   ----------------------------------------
 BYTE   W96
//  #02 //003   ----------------------------------------
 BYTE   W96
//  #02 //004   ----------------------------------------
 BYTE   W96
//  #02 //005   ----------------------------------------
 BYTE   W96
//  #02 //006   ----------------------------------------
 BYTE   W96
//  #02 //007   ----------------------------------------
 BYTE   W96
//  #02 //008   ----------------------------------------
 BYTE   W96
//  #02 //009   ----------------------------------------
 BYTE   W96
//  #02 //010   ----------------------------------------
 BYTE   W96
//  #02 //011   ----------------------------------------
 BYTE   W96
//  #02 //012   ----------------------------------------
 BYTE   W96
//  #02 //013   ----------------------------------------
 BYTE   W96
//  #02 //014   ----------------------------------------
 BYTE   W96
//  #02 //015   ----------------------------------------
 BYTE   W96
//  #02 //016   ----------------------------------------
Label_0100E7A2:
 BYTE   N48  Cn4  v127
 BYTE   N48  En4
 BYTE   W48
 BYTE   N24
 BYTE   N24  Gn4
 BYTE   W24
 BYTE   Cn4
 BYTE   N24  En4
 BYTE   W24
 BYTE   PEND 
//  #02 //017   ----------------------------------------
Label_0100E7B1:
 BYTE   N06  Bn3  v127
 BYTE   N06  Dn4
 BYTE   W12
 BYTE   N84
 BYTE   N84  Gn4
 BYTE   W84
 BYTE   PEND 
//  #02 //018   ----------------------------------------
Label_0100E7BC:
 BYTE   N48  An3  v127
 BYTE   N48  Dn4
 BYTE   W48
 BYTE   N18  An3
 BYTE   N18  Cn4
 BYTE   W24
 BYTE   An3
 BYTE   N18  Cn4
 BYTE   W24
 BYTE   PEND 
//  #02 //019   ----------------------------------------
Label_0100E7CC:
 BYTE   N06  Gn3  v127
 BYTE   N06  Bn3
 BYTE   W12
 BYTE   N12  Gn3
 BYTE   N12  Bn3
 BYTE   W24
 BYTE   N24  An3
 BYTE   N24  Cn4
 BYTE   W24
 BYTE   N06  Bn3
 BYTE   N06  Dn4
 BYTE   W12
 BYTE   N24  Bn3
 BYTE   N24  Dn4
 BYTE   W24
 BYTE   PEND 
//  #02 //020   ----------------------------------------
 BYTE   PATT
  POIN2 Label_0100E7A2
//  #02 //021   ----------------------------------------
 BYTE   PATT
  POIN2 Label_0100E7B1
//  #02 //022   ----------------------------------------
Label_0100E7F1:
 BYTE   N24  Dn4  v127
 BYTE   N24  Fs4
 BYTE   W24
 BYTE   N18  Dn4
 BYTE   N18  Fs4
 BYTE   W18
 BYTE   Dn4
 BYTE   N06  Fs4
 BYTE   W06
 BYTE   An4
 BYTE   W12
 BYTE   N24  Dn4
 BYTE   N24  Gn4
 BYTE   W24
 BYTE   N06  Cn4
 BYTE   N06  En4
 BYTE   W12
 BYTE   PEND 
//  #02 //023   ----------------------------------------
 BYTE   N72  Dn4
 BYTE   N72  Gn4
 BYTE   W96
//  #02 //024   ----------------------------------------
 BYTE   PATT
  POIN2 Label_0100E7A2
//  #02 //025   ----------------------------------------
 BYTE   PATT
  POIN2 Label_0100E7B1
//  #02 //026   ----------------------------------------
 BYTE   PATT
  POIN2 Label_0100E7BC
//  #02 //027   ----------------------------------------
 BYTE   PATT
  POIN2 Label_0100E7CC
//  #02 //028   ----------------------------------------
Label_0100E826:
 BYTE   N48  Cn4  v127
 BYTE   N48  En4
 BYTE   W48
 BYTE   N24
 BYTE   N24  Gn4
 BYTE   W24
 BYTE   En4
 BYTE   N24  Bn4
 BYTE   W24
 BYTE   PEND 
//  #02 //029   ----------------------------------------
Label_0100E835:
 BYTE   N12  Bn3  v127
 BYTE   N12  Dn4
 BYTE   N06  An4
 BYTE   W12
 BYTE   N84  Dn4
 BYTE   N84  Gn4
 BYTE   W84
 BYTE   PEND 
//  #02 //030   ----------------------------------------
Label_0100E843:
 BYTE   N24  Dn4  v127
 BYTE   N24  Fs4
 BYTE   W24
 BYTE   N18  Dn4
 BYTE   N18  Fs4
 BYTE   W18
 BYTE   N06  Dn4
 BYTE   N06  Fs4
 BYTE   W06
 BYTE   Dn4
 BYTE   N06  Fs4
 BYTE   W12
 BYTE   N24  Dn4
 BYTE   N24  Gn4
 BYTE   W24
 BYTE   N06  Dn4
 BYTE   N06  An4
 BYTE   W12
 BYTE   PEND 
//  #02 //031   ----------------------------------------
 BYTE   N72  Dn4
 BYTE   N72  An4
 BYTE   W96
//  #02 //032   ----------------------------------------
 BYTE   W96
//  #02 //033   ----------------------------------------
 BYTE   W96
//  #02 //034   ----------------------------------------
 BYTE   W96
//  #02 //035   ----------------------------------------
 BYTE   W96
//  #02 //036   ----------------------------------------
 BYTE   W96
//  #02 //037   ----------------------------------------
 BYTE   W96
//  #02 //038   ----------------------------------------
 BYTE   W96
//  #02 //039   ----------------------------------------
 BYTE   W96
//  #02 //040   ----------------------------------------
 BYTE   W96
//  #02 //041   ----------------------------------------
 BYTE   W96
//  #02 //042   ----------------------------------------
 BYTE   W96
//  #02 //043   ----------------------------------------
 BYTE   W96
//  #02 //044   ----------------------------------------
 BYTE   W96
//  #02 //045   ----------------------------------------
 BYTE   W96
//  #02 //046   ----------------------------------------
 BYTE   W96
//  #02 //047   ----------------------------------------
 BYTE   W96
//  #02 //048   ----------------------------------------
 BYTE   W96
//  #02 //049   ----------------------------------------
 BYTE   W96
//  #02 //050   ----------------------------------------
 BYTE   W96
//  #02 //051   ----------------------------------------
 BYTE   W96
//  #02 //052   ----------------------------------------
 BYTE   W96
//  #02 //053   ----------------------------------------
 BYTE   W96
//  #02 //054   ----------------------------------------
 BYTE   W96
//  #02 //055   ----------------------------------------
 BYTE   W96
//  #02 //056   ----------------------------------------
 BYTE   W96
//  #02 //057   ----------------------------------------
 BYTE   W96
//  #02 //058   ----------------------------------------
 BYTE   W96
//  #02 //059   ----------------------------------------
 BYTE   W96
//  #02 //060   ----------------------------------------
 BYTE   W96
//  #02 //061   ----------------------------------------
 BYTE   W96
//  #02 //062   ----------------------------------------
 BYTE   W96
//  #02 //063   ----------------------------------------
 BYTE   W96
//  #02 //064   ----------------------------------------
 BYTE   W96
//  #02 //065   ----------------------------------------
 BYTE   W96
//  #02 //066   ----------------------------------------
 BYTE   W96
//  #02 //067   ----------------------------------------
 BYTE   W96
//  #02 //068   ----------------------------------------
 BYTE   W96
//  #02 //069   ----------------------------------------
 BYTE   W96
//  #02 //070   ----------------------------------------
 BYTE   W96
//  #02 //071   ----------------------------------------
 BYTE   W96
//  #02 //072   ----------------------------------------
 BYTE   PATT
  POIN2 Label_0100E7A2
//  #02 //073   ----------------------------------------
Label_0100E894:
 BYTE   N12  Bn3  v127
 BYTE   N12  Dn4
 BYTE   W12
 BYTE   N84
 BYTE   N84  Gn4
 BYTE   W84
 BYTE   PEND 
//  #02 //074   ----------------------------------------
 BYTE   PATT
  POIN2 Label_0100E7BC
//  #02 //075   ----------------------------------------
 BYTE   PATT
  POIN2 Label_0100E7CC
//  #02 //076   ----------------------------------------
 BYTE   PATT
  POIN2 Label_0100E7A2
//  #02 //077   ----------------------------------------
 BYTE   PATT
  POIN2 Label_0100E894
//  #02 //078   ----------------------------------------
 BYTE   PATT
  POIN2 Label_0100E7F1
//  #02 //079   ----------------------------------------
 BYTE   N72  Dn4  v127
 BYTE   N72  Gn4
 BYTE   W96
//  #02 //080   ----------------------------------------
 BYTE   PATT
  POIN2 Label_0100E7A2
//  #02 //081   ----------------------------------------
 BYTE   PATT
  POIN2 Label_0100E894
//  #02 //082   ----------------------------------------
 BYTE   PATT
  POIN2 Label_0100E7BC
//  #02 //083   ----------------------------------------
 BYTE   PATT
  POIN2 Label_0100E7CC
//  #02 //084   ----------------------------------------
 BYTE   PATT
  POIN2 Label_0100E826
//  #02 //085   ----------------------------------------
 BYTE   PATT
  POIN2 Label_0100E835
//  #02 //086   ----------------------------------------
 BYTE   PATT
  POIN2 Label_0100E843
//  #02 //087   ----------------------------------------
 BYTE   N72  Dn4  v127
 BYTE   N72  An4
 BYTE   W96
//  #02 //088   ----------------------------------------
 BYTE   W96
//  #02 //089   ----------------------------------------
 BYTE   W96
//  #02 //090   ----------------------------------------
 BYTE   W96
//  #02 //091   ----------------------------------------
 BYTE   W96
//  #02 //092   ----------------------------------------
 BYTE   W96
//  #02 //093   ----------------------------------------
 BYTE   W96
//  #02 //094   ----------------------------------------
 BYTE   W96
//  #02 //095   ----------------------------------------
 BYTE   W96
//  #02 //096   ----------------------------------------
 BYTE   W96
//  #02 //097   ----------------------------------------
 BYTE   W96
//  #02 //098   ----------------------------------------
 BYTE   W96
//  #02 //099   ----------------------------------------
 BYTE   W96
//  #02 //100   ----------------------------------------
 BYTE   W96
//  #02 //101   ----------------------------------------
 BYTE   W96
//  #02 //102   ----------------------------------------
 BYTE   W96
//  #02 //103   ----------------------------------------
 BYTE   W96
//  #02 //104   ----------------------------------------
 BYTE   W96
//  #02 //105   ----------------------------------------
 BYTE   W96
//  #02 //106   ----------------------------------------
 BYTE   W96
//  #02 //107   ----------------------------------------
 BYTE   W96
//  #02 //108   ----------------------------------------
 BYTE   W96
//  #02 //109   ----------------------------------------
 BYTE   W96
//  #02 //110   ----------------------------------------
 BYTE   W96
//  #02 //111   ----------------------------------------
 BYTE   W96
 BYTE   FINE

//**************** Track 3 (Midi-Chn.2) ****************//

MarioKartDSChocoMountain_003:
//  #03 //000   ----------------------------------------
 BYTE   KEYSH   MarioKartDSChocoMountain_key+0
 BYTE   VOICE   40
 BYTE   MODT 0
 BYTE   LFOS 44
 BYTE   VOL   76*MarioKartDSChocoMountain_mvl/mxv
 BYTE   N24  Dn4  v127
 BYTE   W24
 BYTE   N18
 BYTE   W18
 BYTE   N06
 BYTE   W06
 BYTE   Bn3
 BYTE   W12
 BYTE   N24  Dn4
 BYTE   W24
 BYTE   N06
 BYTE   W12
//  #03 //001   ----------------------------------------
Label_0100E919:
 BYTE   N06  En4  v127
 BYTE   W12
 BYTE   N84  Dn4
 BYTE   W84
 BYTE   PEND 
//  #03 //002   ----------------------------------------
Label_0100E921:
 BYTE   N24  Dn4  v127
 BYTE   W24
 BYTE   N18
 BYTE   W18
 BYTE   N06
 BYTE   W06
 BYTE   Bn3
 BYTE   W12
 BYTE   N24  Dn4
 BYTE   W24
 BYTE   N06
 BYTE   W12
 BYTE   PEND 
//  #03 //003   ----------------------------------------
Label_0100E931:
 BYTE   N06  Gn4  v127
 BYTE   W12
 BYTE   N60  Gn3
 BYTE   W60
 BYTE   N06
 BYTE   W12
 BYTE   An3
 BYTE   W12
 BYTE   PEND 
//  #03 //004   ----------------------------------------
Label_0100E93D:
 BYTE   N18  Bn3  v127
 BYTE   W24
 BYTE   N12
 BYTE   W18
 BYTE   N06
 BYTE   W06
 BYTE   An3
 BYTE   W12
 BYTE   N06
 BYTE   W12
 BYTE   Dn4
 BYTE   W12
 BYTE   Cn4
 BYTE   W12
 BYTE   PEND 
//  #03 //005   ----------------------------------------
Label_0100E94E:
 BYTE   N18  Bn3  v127
 BYTE   W24
 BYTE   N12
 BYTE   W18
 BYTE   N06  Dn4
 BYTE   W06
 BYTE   N18  Gn4
 BYTE   W24
 BYTE   N06  En4
 BYTE   W12
 BYTE   Dn4
 BYTE   W12
 BYTE   PEND 
//  #03 //006   ----------------------------------------
Label_0100E960:
 BYTE   N18  Cs4  v127
 BYTE   W24
 BYTE   N12
 BYTE   W18
 BYTE   N06
 BYTE   W06
 BYTE   N06
 BYTE   W12
 BYTE   N06
 BYTE   W12
 BYTE   Dn4
 BYTE   W12
 BYTE   En4
 BYTE   W12
 BYTE   PEND 
//  #03 //007   ----------------------------------------
 BYTE   N48  Dn4
 BYTE   W96
//  #03 //008   ----------------------------------------
 BYTE   PATT
  POIN2 Label_0100E921
//  #03 //009   ----------------------------------------
 BYTE   PATT
  POIN2 Label_0100E919
//  #03 //010   ----------------------------------------
 BYTE   PATT
  POIN2 Label_0100E921
//  #03 //011   ----------------------------------------
 BYTE   PATT
  POIN2 Label_0100E931
//  #03 //012   ----------------------------------------
Label_0100E988:
 BYTE   N18  Bn3  v127
 BYTE   W24
 BYTE   N12
 BYTE   W18
 BYTE   N06
 BYTE   W06
 BYTE   An3
 BYTE   W12
 BYTE   N06
 BYTE   W12
 BYTE   Bn3
 BYTE   W12
 BYTE   An3
 BYTE   W12
 BYTE   PEND 
//  #03 //013   ----------------------------------------
Label_0100E999:
 BYTE   N18  Gn3  v127
 BYTE   W24
 BYTE   N12
 BYTE   W18
 BYTE   N06  Bn3
 BYTE   W06
 BYTE   N18  En4
 BYTE   W24
 BYTE   N06  Dn4
 BYTE   W12
 BYTE   Cn4
 BYTE   W12
 BYTE   PEND 
//  #03 //014   ----------------------------------------
Label_0100E9AB:
 BYTE   N18  Bn3  v127
 BYTE   W24
 BYTE   N12
 BYTE   W18
 BYTE   N06
 BYTE   W06
 BYTE   Cn4
 BYTE   W12
 BYTE   An3
 BYTE   W12
 BYTE   Gn3
 BYTE   W12
 BYTE   Fs3
 BYTE   W12
 BYTE   PEND 
//  #03 //015   ----------------------------------------
 BYTE   N48  Gn3
 BYTE   W96
//  #03 //016   ----------------------------------------
 BYTE   W96
//  #03 //017   ----------------------------------------
 BYTE   W96
//  #03 //018   ----------------------------------------
 BYTE   W96
//  #03 //019   ----------------------------------------
 BYTE   W96
//  #03 //020   ----------------------------------------
 BYTE   W96
//  #03 //021   ----------------------------------------
 BYTE   W96
//  #03 //022   ----------------------------------------
 BYTE   W96
//  #03 //023   ----------------------------------------
 BYTE   W96
//  #03 //024   ----------------------------------------
 BYTE   W96
//  #03 //025   ----------------------------------------
 BYTE   W96
//  #03 //026   ----------------------------------------
 BYTE   W96
//  #03 //027   ----------------------------------------
 BYTE   W96
//  #03 //028   ----------------------------------------
 BYTE   W96
//  #03 //029   ----------------------------------------
 BYTE   W96
//  #03 //030   ----------------------------------------
 BYTE   W96
//  #03 //031   ----------------------------------------
 BYTE   W96
//  #03 //032   ----------------------------------------
 BYTE   N96
 BYTE   W96
//  #03 //033   ----------------------------------------
Label_0100E9D1:
 BYTE   N06  An3  v127
 BYTE   W12
 BYTE   N84  Gn3
 BYTE   W84
 BYTE   PEND 
//  #03 //034   ----------------------------------------
 BYTE   N96
 BYTE   W96
//  #03 //035   ----------------------------------------
Label_0100E9DB:
 BYTE   N06  En3  v127
 BYTE   W12
 BYTE   N84  Gn3
 BYTE   W84
 BYTE   PEND 
//  #03 //036   ----------------------------------------
 BYTE   N96
 BYTE   W96
//  #03 //037   ----------------------------------------
 BYTE   PATT
  POIN2 Label_0100E9D1
//  #03 //038   ----------------------------------------
 BYTE   N96  Gn3  v127
 BYTE   W96
//  #03 //039   ----------------------------------------
 BYTE   PATT
  POIN2 Label_0100E9DB
//  #03 //040   ----------------------------------------
 BYTE   W96
//  #03 //041   ----------------------------------------
 BYTE   W96
//  #03 //042   ----------------------------------------
 BYTE   W96
//  #03 //043   ----------------------------------------
 BYTE   W96
//  #03 //044   ----------------------------------------
 BYTE   W96
//  #03 //045   ----------------------------------------
 BYTE   W96
//  #03 //046   ----------------------------------------
 BYTE   W96
//  #03 //047   ----------------------------------------
 BYTE   W96
//  #03 //048   ----------------------------------------
 BYTE   W96
//  #03 //049   ----------------------------------------
 BYTE   W96
//  #03 //050   ----------------------------------------
 BYTE   W96
//  #03 //051   ----------------------------------------
 BYTE   W96
//  #03 //052   ----------------------------------------
 BYTE   W96
//  #03 //053   ----------------------------------------
 BYTE   W96
//  #03 //054   ----------------------------------------
 BYTE   W96
//  #03 //055   ----------------------------------------
 BYTE   W96
//  #03 //056   ----------------------------------------
 BYTE   PATT
  POIN2 Label_0100E921
//  #03 //057   ----------------------------------------
 BYTE   PATT
  POIN2 Label_0100E919
//  #03 //058   ----------------------------------------
 BYTE   PATT
  POIN2 Label_0100E921
//  #03 //059   ----------------------------------------
 BYTE   PATT
  POIN2 Label_0100E931
//  #03 //060   ----------------------------------------
 BYTE   PATT
  POIN2 Label_0100E93D
//  #03 //061   ----------------------------------------
 BYTE   PATT
  POIN2 Label_0100E94E
//  #03 //062   ----------------------------------------
 BYTE   PATT
  POIN2 Label_0100E960
//  #03 //063   ----------------------------------------
 BYTE   N48  Dn4  v127
 BYTE   W96
//  #03 //064   ----------------------------------------
 BYTE   PATT
  POIN2 Label_0100E921
//  #03 //065   ----------------------------------------
 BYTE   PATT
  POIN2 Label_0100E919
//  #03 //066   ----------------------------------------
 BYTE   PATT
  POIN2 Label_0100E921
//  #03 //067   ----------------------------------------
 BYTE   PATT
  POIN2 Label_0100E931
//  #03 //068   ----------------------------------------
 BYTE   PATT
  POIN2 Label_0100E988
//  #03 //069   ----------------------------------------
 BYTE   PATT
  POIN2 Label_0100E999
//  #03 //070   ----------------------------------------
 BYTE   PATT
  POIN2 Label_0100E9AB
//  #03 //071   ----------------------------------------
 BYTE   N48  Gn3  v127
 BYTE   W96
//  #03 //072   ----------------------------------------
 BYTE   W96
//  #03 //073   ----------------------------------------
 BYTE   W96
//  #03 //074   ----------------------------------------
 BYTE   W96
//  #03 //075   ----------------------------------------
 BYTE   W96
//  #03 //076   ----------------------------------------
 BYTE   W96
//  #03 //077   ----------------------------------------
 BYTE   W96
//  #03 //078   ----------------------------------------
 BYTE   W96
//  #03 //079   ----------------------------------------
 BYTE   W96
//  #03 //080   ----------------------------------------
 BYTE   W96
//  #03 //081   ----------------------------------------
 BYTE   W96
//  #03 //082   ----------------------------------------
 BYTE   W96
//  #03 //083   ----------------------------------------
 BYTE   W96
//  #03 //084   ----------------------------------------
 BYTE   W96
//  #03 //085   ----------------------------------------
 BYTE   W96
//  #03 //086   ----------------------------------------
 BYTE   W96
//  #03 //087   ----------------------------------------
 BYTE   W96
//  #03 //088   ----------------------------------------
 BYTE   N96
 BYTE   W96
//  #03 //089   ----------------------------------------
 BYTE   PATT
  POIN2 Label_0100E9D1
//  #03 //090   ----------------------------------------
 BYTE   N96  Gn3  v127
 BYTE   W96
//  #03 //091   ----------------------------------------
 BYTE   PATT
  POIN2 Label_0100E9DB
//  #03 //092   ----------------------------------------
 BYTE   N96  Gn3  v127
 BYTE   W96
//  #03 //093   ----------------------------------------
 BYTE   PATT
  POIN2 Label_0100E9D1
//  #03 //094   ----------------------------------------
 BYTE   N96  Gn3  v127
 BYTE   W96
//  #03 //095   ----------------------------------------
 BYTE   PATT
  POIN2 Label_0100E9DB
//  #03 //096   ----------------------------------------
 BYTE   W96
//  #03 //097   ----------------------------------------
 BYTE   W96
//  #03 //098   ----------------------------------------
 BYTE   W96
//  #03 //099   ----------------------------------------
 BYTE   W96
//  #03 //100   ----------------------------------------
 BYTE   W96
//  #03 //101   ----------------------------------------
 BYTE   W96
//  #03 //102   ----------------------------------------
 BYTE   W96
//  #03 //103   ----------------------------------------
 BYTE   W96
//  #03 //104   ----------------------------------------
 BYTE   W96
//  #03 //105   ----------------------------------------
 BYTE   W96
//  #03 //106   ----------------------------------------
 BYTE   W96
//  #03 //107   ----------------------------------------
 BYTE   W96
//  #03 //108   ----------------------------------------
 BYTE   W96
//  #03 //109   ----------------------------------------
 BYTE   W96
//  #03 //110   ----------------------------------------
 BYTE   W96
//  #03 //111   ----------------------------------------
 BYTE   W96
 BYTE   FINE

//**************** Track 4 (Midi-Chn.3) ****************//

MarioKartDSChocoMountain_004:
//  #04 //000   ----------------------------------------
 BYTE   VOL   91*MarioKartDSChocoMountain_mvl/mxv
 BYTE   KEYSH   MarioKartDSChocoMountain_key+0
 BYTE   VOICE   18
 BYTE   MODT 0
 BYTE   LFOS 44
 BYTE   N24  Dn3  v127
 BYTE   N24  Bn3
 BYTE   W24
 BYTE   N18  Dn3
 BYTE   N18  Bn3
 BYTE   W18
 BYTE   N12  Dn3
 BYTE   N06  Bn3
 BYTE   W06
 BYTE   An3
 BYTE   W12
 BYTE   N24  Dn3
 BYTE   N24  Bn3
 BYTE   W24
 BYTE   N06  Dn3
 BYTE   N06  Bn3
 BYTE   W12
//  #04 //001   ----------------------------------------
Label_0100EABA:
 BYTE   N06  En3  v127
 BYTE   N06  Cn4
 BYTE   W12
 BYTE   N84  Dn3
 BYTE   N84  Bn3
 BYTE   W84
 BYTE   PEND 
//  #04 //002   ----------------------------------------
Label_0100EAC6:
 BYTE   N24  Dn3  v127
 BYTE   N24  Bn3
 BYTE   W24
 BYTE   N18  Dn3
 BYTE   N18  Bn3
 BYTE   W18
 BYTE   N12  Dn3
 BYTE   N06  Bn3
 BYTE   W06
 BYTE   An3
 BYTE   W12
 BYTE   N24  Dn3
 BYTE   N24  Bn3
 BYTE   W24
 BYTE   N06  Dn3
 BYTE   N06  Bn3
 BYTE   W12
 BYTE   PEND 
//  #04 //003   ----------------------------------------
Label_0100EAE3:
 BYTE   N06  En3  v127
 BYTE   N06  Cn4
 BYTE   W12
 BYTE   N84  En3
 BYTE   N84  Cn4
 BYTE   W84
 BYTE   PEND 
//  #04 //004   ----------------------------------------
 BYTE   W96
//  #04 //005   ----------------------------------------
 BYTE   W96
//  #04 //006   ----------------------------------------
 BYTE   W96
//  #04 //007   ----------------------------------------
 BYTE   W96
//  #04 //008   ----------------------------------------
 BYTE   PATT
  POIN2 Label_0100EAC6
//  #04 //009   ----------------------------------------
 BYTE   PATT
  POIN2 Label_0100EABA
//  #04 //010   ----------------------------------------
 BYTE   PATT
  POIN2 Label_0100EAC6
//  #04 //011   ----------------------------------------
 BYTE   PATT
  POIN2 Label_0100EAE3
//  #04 //012   ----------------------------------------
 BYTE   W96
//  #04 //013   ----------------------------------------
 BYTE   W96
//  #04 //014   ----------------------------------------
 BYTE   W96
//  #04 //015   ----------------------------------------
 BYTE   W96
//  #04 //016   ----------------------------------------
 BYTE   N96  En4  v127
 BYTE   N96  Cn5
 BYTE   W96
//  #04 //017   ----------------------------------------
 BYTE   Dn4
 BYTE   N96  Bn4
 BYTE   W96
//  #04 //018   ----------------------------------------
 BYTE   Dn4
 BYTE   N96  An4
 BYTE   W96
//  #04 //019   ----------------------------------------
 BYTE   Dn4
 BYTE   N96  Bn4
 BYTE   W96
//  #04 //020   ----------------------------------------
 BYTE   En4
 BYTE   N96  Cn5
 BYTE   W96
//  #04 //021   ----------------------------------------
 BYTE   Dn4
 BYTE   N96  Bn4
 BYTE   W96
//  #04 //022   ----------------------------------------
 BYTE   Dn4
 BYTE   N96  An4
 BYTE   W96
//  #04 //023   ----------------------------------------
 BYTE   Dn4
 BYTE   N96  Gn4
 BYTE   W96
//  #04 //024   ----------------------------------------
 BYTE   En4
 BYTE   N96  Cn5
 BYTE   W96
//  #04 //025   ----------------------------------------
 BYTE   Dn4
 BYTE   N96  Bn4
 BYTE   W96
//  #04 //026   ----------------------------------------
 BYTE   Dn4
 BYTE   N96  An4
 BYTE   W96
//  #04 //027   ----------------------------------------
 BYTE   Dn4
 BYTE   N96  Bn4
 BYTE   W96
//  #04 //028   ----------------------------------------
 BYTE   En4
 BYTE   N96  Cn5
 BYTE   W96
//  #04 //029   ----------------------------------------
 BYTE   Dn4
 BYTE   N96  Bn4
 BYTE   W96
//  #04 //030   ----------------------------------------
 BYTE   Dn4
 BYTE   N96  An4
 BYTE   W96
//  #04 //031   ----------------------------------------
 BYTE   Fs4
 BYTE   N96  Dn5
 BYTE   W96
//  #04 //032   ----------------------------------------
 BYTE   Gn4
 BYTE   N96  Bn4
 BYTE   W96
//  #04 //033   ----------------------------------------
Label_0100EB51:
 BYTE   N06  An4  v127
 BYTE   N06  Cn5
 BYTE   W12
 BYTE   N84  Gn4
 BYTE   N84  Bn4
 BYTE   W84
 BYTE   PEND 
//  #04 //034   ----------------------------------------
 BYTE   N96  Gn4
 BYTE   N96  Bn4
 BYTE   W96
//  #04 //035   ----------------------------------------
 BYTE   PATT
  POIN2 Label_0100EB51
//  #04 //036   ----------------------------------------
 BYTE   N96  Gn4  v127
 BYTE   N96  Bn4
 BYTE   W96
//  #04 //037   ----------------------------------------
 BYTE   PATT
  POIN2 Label_0100EB51
//  #04 //038   ----------------------------------------
 BYTE   N96  Gn4  v127
 BYTE   N96  Bn4
 BYTE   W96
//  #04 //039   ----------------------------------------
 BYTE   PATT
  POIN2 Label_0100EB51
//  #04 //040   ----------------------------------------
Label_0100EB7D:
 BYTE   N18  Gn3  v127
 BYTE   N18  Dn4
 BYTE   N18  Bn4
 BYTE   W24
 BYTE   Gn3
 BYTE   N18  Dn4
 BYTE   N18  Bn4
 BYTE   W24
 BYTE   Gn3
 BYTE   N18  Dn4
 BYTE   N18  Bn4
 BYTE   W24
 BYTE   N06  Gn3
 BYTE   N06  Dn4
 BYTE   N06  Bn4
 BYTE   W12
 BYTE   Fs3
 BYTE   N06  Cs4
 BYTE   N06  As4
 BYTE   W12
 BYTE   PEND 
//  #04 //041   ----------------------------------------
Label_0100EB9F:
 BYTE   N06  En3  v127
 BYTE   N06  Cn4
 BYTE   N06  An4
 BYTE   W12
 BYTE   N12  Dn3
 BYTE   N12  Bn3
 BYTE   N12  Gn4
 BYTE   W24
 BYTE   N48  Dn3
 BYTE   N48  Bn3
 BYTE   N48  Gn4
 BYTE   W48
 BYTE   N06  Dn3
 BYTE   W06
 BYTE   En3
 BYTE   W06
 BYTE   PEND 
//  #04 //042   ----------------------------------------
Label_0100EBBB:
 BYTE   N18  Gn3  v127
 BYTE   N18  Dn4
 BYTE   N18  Bn4
 BYTE   W24
 BYTE   Gn3
 BYTE   N18  Dn4
 BYTE   N18  Bn4
 BYTE   W24
 BYTE   Gn3
 BYTE   N18  Dn4
 BYTE   N18  Bn4
 BYTE   W24
 BYTE   N06  Fs3
 BYTE   N06  Cs4
 BYTE   N06  As4
 BYTE   W12
 BYTE   Gn3
 BYTE   N06  Dn4
 BYTE   N06  Bn4
 BYTE   W12
 BYTE   PEND 
//  #04 //043   ----------------------------------------
Label_0100EBDD:
 BYTE   N06  Bn3  v127
 BYTE   N06  Gn4
 BYTE   N06  Dn5
 BYTE   W12
 BYTE   N12  Bn3
 BYTE   N12  Gn4
 BYTE   N12  Dn5
 BYTE   W24
 BYTE   N48  Bn3
 BYTE   N48  Gn4
 BYTE   N48  Dn5
 BYTE   W60
 BYTE   PEND 
//  #04 //044   ----------------------------------------
Label_0100EBF4:
 BYTE   N30  Gn3  v127
 BYTE   N30  En4
 BYTE   N30  Cn5
 BYTE   W36
 BYTE   N12  Gn3
 BYTE   N12  En4
 BYTE   N12  Cn5
 BYTE   W12
 BYTE   N24  Cn4
 BYTE   N24  Gn4
 BYTE   N24  En5
 BYTE   W36
 BYTE   N06  Cn4
 BYTE   N06  Gn4
 BYTE   N06  En5
 BYTE   W12
 BYTE   PEND 
//  #04 //045   ----------------------------------------
Label_0100EC12:
 BYTE   N06  Cn4  v127
 BYTE   N06  Gn4
 BYTE   N06  En5
 BYTE   W12
 BYTE   Bn3
 BYTE   N06  Fs4
 BYTE   N06  Ds5
 BYTE   W12
 BYTE   Cn4
 BYTE   N06  Gn4
 BYTE   N06  En5
 BYTE   W12
 BYTE   N48  Cn4
 BYTE   N48  Gn4
 BYTE   N48  En5
 BYTE   W60
 BYTE   PEND 
//  #04 //046   ----------------------------------------
Label_0100EC2E:
 BYTE   N18  Bn3  v127
 BYTE   N18  Gn4
 BYTE   N18  Dn5
 BYTE   W24
 BYTE   Bn3
 BYTE   N18  Gn4
 BYTE   N18  Dn5
 BYTE   W24
 BYTE   N06  Gn4
 BYTE   N06  Dn5
 BYTE   N06  Bn5
 BYTE   W12
 BYTE   N18  Gn4
 BYTE   N18  Dn5
 BYTE   N18  Bn5
 BYTE   W24
 BYTE   N06  Bn3
 BYTE   N06  Gn4
 BYTE   N06  Dn5
 BYTE   W12
 BYTE   PEND 
//  #04 //047   ----------------------------------------
Label_0100EC52:
 BYTE   N06  Gn4  v127
 BYTE   N06  Dn5
 BYTE   N06  Bn5
 BYTE   W12
 BYTE   N18  Gn4
 BYTE   N18  Dn5
 BYTE   N18  Bn5
 BYTE   W24
 BYTE   N48  Bn3
 BYTE   N48  Gn4
 BYTE   N48  Dn5
 BYTE   W60
 BYTE   PEND 
//  #04 //048   ----------------------------------------
Label_0100EC69:
 BYTE   N30  Fs4  v127
 BYTE   N30  An4
 BYTE   N30  Dn5
 BYTE   W36
 BYTE   Fs4
 BYTE   N30  An4
 BYTE   N30  Dn5
 BYTE   W36
 BYTE   N06  Fs4
 BYTE   N06  An4
 BYTE   N06  Dn5
 BYTE   W12
 BYTE   Fn4
 BYTE   N06  Gs4
 BYTE   N06  Cs5
 BYTE   W12
 BYTE   PEND 
//  #04 //049   ----------------------------------------
Label_0100EC85:
 BYTE   N24  En4  v127
 BYTE   N24  Gn4
 BYTE   N24  Cn5
 BYTE   W36
 BYTE   N54  En4
 BYTE   N54  Gn4
 BYTE   N54  Cn5
 BYTE   W60
 BYTE   PEND 
//  #04 //050   ----------------------------------------
Label_0100EC95:
 BYTE   N30  Dn4  v127
 BYTE   N30  Fs4
 BYTE   N30  An4
 BYTE   W36
 BYTE   Dn4
 BYTE   N30  Fs4
 BYTE   N30  An4
 BYTE   W36
 BYTE   N06  Dn4
 BYTE   N06  Fs4
 BYTE   N06  An4
 BYTE   W12
 BYTE   Dn4
 BYTE   N06  Gn4
 BYTE   N06  Bn4
 BYTE   W12
 BYTE   PEND 
//  #04 //051   ----------------------------------------
 BYTE   PATT
  POIN2 Label_0100EC85
//  #04 //052   ----------------------------------------
 BYTE   PATT
  POIN2 Label_0100EC69
//  #04 //053   ----------------------------------------
 BYTE   PATT
  POIN2 Label_0100EC85
//  #04 //054   ----------------------------------------
Label_0100ECC0:
 BYTE   N18  Dn4  v127
 BYTE   N18  Fs4
 BYTE   N18  An4
 BYTE   W24
 BYTE   Dn4
 BYTE   N18  Fs4
 BYTE   N18  An4
 BYTE   W24
 BYTE   An3
 BYTE   N18  Dn4
 BYTE   N18  Fs4
 BYTE   W24
 BYTE   An3
 BYTE   N18  Dn4
 BYTE   N18  Fs4
 BYTE   W24
 BYTE   PEND 
//  #04 //055   ----------------------------------------
Label_0100ECDB:
 BYTE   N06  Fs3  v127
 BYTE   N06  An3
 BYTE   N06  Dn4
 BYTE   W12
 BYTE   Fs3
 BYTE   N06  An3
 BYTE   N06  Dn4
 BYTE   W12
 BYTE   An3
 BYTE   N06  Dn4
 BYTE   N06  Fs4
 BYTE   W12
 BYTE   An3
 BYTE   N06  Dn4
 BYTE   N06  Fs4
 BYTE   W12
 BYTE   N42  Dn4
 BYTE   N42  Fs4
 BYTE   N42  An4
 BYTE   W48
 BYTE   PEND 
//  #04 //056   ----------------------------------------
 BYTE   PATT
  POIN2 Label_0100EAC6
//  #04 //057   ----------------------------------------
 BYTE   PATT
  POIN2 Label_0100EABA
//  #04 //058   ----------------------------------------
 BYTE   PATT
  POIN2 Label_0100EAC6
//  #04 //059   ----------------------------------------
 BYTE   PATT
  POIN2 Label_0100EAE3
//  #04 //060   ----------------------------------------
 BYTE   W96
//  #04 //061   ----------------------------------------
 BYTE   W96
//  #04 //062   ----------------------------------------
 BYTE   W96
//  #04 //063   ----------------------------------------
 BYTE   W96
//  #04 //064   ----------------------------------------
 BYTE   PATT
  POIN2 Label_0100EAC6
//  #04 //065   ----------------------------------------
 BYTE   PATT
  POIN2 Label_0100EABA
//  #04 //066   ----------------------------------------
 BYTE   PATT
  POIN2 Label_0100EAC6
//  #04 //067   ----------------------------------------
 BYTE   PATT
  POIN2 Label_0100EAE3
//  #04 //068   ----------------------------------------
 BYTE   W96
//  #04 //069   ----------------------------------------
 BYTE   W96
//  #04 //070   ----------------------------------------
 BYTE   W96
//  #04 //071   ----------------------------------------
 BYTE   W96
//  #04 //072   ----------------------------------------
 BYTE   N96  En4  v127
 BYTE   N96  Cn5
 BYTE   W96
//  #04 //073   ----------------------------------------
 BYTE   Dn4
 BYTE   N96  Bn4
 BYTE   W96
//  #04 //074   ----------------------------------------
 BYTE   Dn4
 BYTE   N96  An4
 BYTE   W96
//  #04 //075   ----------------------------------------
 BYTE   Dn4
 BYTE   N96  Bn4
 BYTE   W96
//  #04 //076   ----------------------------------------
 BYTE   En4
 BYTE   N96  Cn5
 BYTE   W96
//  #04 //077   ----------------------------------------
 BYTE   Dn4
 BYTE   N96  Bn4
 BYTE   W96
//  #04 //078   ----------------------------------------
 BYTE   Dn4
 BYTE   N96  An4
 BYTE   W96
//  #04 //079   ----------------------------------------
 BYTE   Dn4
 BYTE   N96  Gn4
 BYTE   W96
//  #04 //080   ----------------------------------------
 BYTE   En4
 BYTE   N96  Cn5
 BYTE   W96
//  #04 //081   ----------------------------------------
 BYTE   Dn4
 BYTE   N96  Bn4
 BYTE   W96
//  #04 //082   ----------------------------------------
 BYTE   Dn4
 BYTE   N96  An4
 BYTE   W96
//  #04 //083   ----------------------------------------
 BYTE   Dn4
 BYTE   N96  Bn4
 BYTE   W96
//  #04 //084   ----------------------------------------
 BYTE   En4
 BYTE   N96  Cn5
 BYTE   W96
//  #04 //085   ----------------------------------------
 BYTE   Dn4
 BYTE   N96  Bn4
 BYTE   W96
//  #04 //086   ----------------------------------------
 BYTE   Dn4
 BYTE   N96  An4
 BYTE   W96
//  #04 //087   ----------------------------------------
 BYTE   Fs4
 BYTE   N96  Dn5
 BYTE   W96
//  #04 //088   ----------------------------------------
 BYTE   Gn4
 BYTE   N96  Bn4
 BYTE   W96
//  #04 //089   ----------------------------------------
 BYTE   PATT
  POIN2 Label_0100EB51
//  #04 //090   ----------------------------------------
 BYTE   N96  Gn4  v127
 BYTE   N96  Bn4
 BYTE   W96
//  #04 //091   ----------------------------------------
 BYTE   PATT
  POIN2 Label_0100EB51
//  #04 //092   ----------------------------------------
 BYTE   N96  Gn4  v127
 BYTE   N96  Bn4
 BYTE   W96
//  #04 //093   ----------------------------------------
 BYTE   PATT
  POIN2 Label_0100EB51
//  #04 //094   ----------------------------------------
 BYTE   N96  Gn4  v127
 BYTE   N96  Bn4
 BYTE   W96
//  #04 //095   ----------------------------------------
 BYTE   PATT
  POIN2 Label_0100EB51
//  #04 //096   ----------------------------------------
 BYTE   PATT
  POIN2 Label_0100EB7D
//  #04 //097   ----------------------------------------
 BYTE   PATT
  POIN2 Label_0100EB9F
//  #04 //098   ----------------------------------------
 BYTE   PATT
  POIN2 Label_0100EBBB
//  #04 //099   ----------------------------------------
 BYTE   PATT
  POIN2 Label_0100EBDD
//  #04 //100   ----------------------------------------
 BYTE   PATT
  POIN2 Label_0100EBF4
//  #04 //101   ----------------------------------------
 BYTE   PATT
  POIN2 Label_0100EC12
//  #04 //102   ----------------------------------------
 BYTE   PATT
  POIN2 Label_0100EC2E
//  #04 //103   ----------------------------------------
 BYTE   PATT
  POIN2 Label_0100EC52
//  #04 //104   ----------------------------------------
 BYTE   PATT
  POIN2 Label_0100EC69
//  #04 //105   ----------------------------------------
 BYTE   PATT
  POIN2 Label_0100EC85
//  #04 //106   ----------------------------------------
 BYTE   PATT
  POIN2 Label_0100EC95
//  #04 //107   ----------------------------------------
 BYTE   PATT
  POIN2 Label_0100EC85
//  #04 //108   ----------------------------------------
 BYTE   PATT
  POIN2 Label_0100EC69
//  #04 //109   ----------------------------------------
 BYTE   PATT
  POIN2 Label_0100EC85
//  #04 //110   ----------------------------------------
 BYTE   PATT
  POIN2 Label_0100ECC0
//  #04 //111   ----------------------------------------
 BYTE   PATT
  POIN2 Label_0100ECDB
 BYTE   FINE

//**************** Track 5 (Midi-Chn.4) ****************//

MarioKartDSChocoMountain_005:
//  #05 //000   ----------------------------------------
 BYTE   KEYSH   MarioKartDSChocoMountain_key+0
 BYTE   VOICE   71
 BYTE   MODT 0
 BYTE   LFOS 44
 BYTE   VOL   64*MarioKartDSChocoMountain_mvl/mxv
 BYTE   W12
 BYTE   N18  Dn3  v127
 BYTE   N18  Gn3
 BYTE   W24
 BYTE   N06  Dn3
 BYTE   N06  Gn3
 BYTE   W24
 BYTE   N18  Dn3
 BYTE   N18  Fs3
 BYTE   W24
 BYTE   N06  Dn3
 BYTE   N06  Fs3
 BYTE   W12
//  #05 //001   ----------------------------------------
Label_0100EE0C:
 BYTE   W12
 BYTE   N18  Dn3  v127
 BYTE   N18  Gn3
 BYTE   W24
 BYTE   N06  Dn3
 BYTE   N06  Gn3
 BYTE   W24
 BYTE   N18  Dn3
 BYTE   N18  Fs3
 BYTE   W24
 BYTE   N06  Dn3
 BYTE   N06  Fs3
 BYTE   W12
 BYTE   PEND 
//  #05 //002   ----------------------------------------
 BYTE   PATT
  POIN2 Label_0100EE0C
//  #05 //003   ----------------------------------------
Label_0100EE28:
 BYTE   W12
 BYTE   N18  En3  v127
 BYTE   N18  Gn3
 BYTE   W24
 BYTE   N06  En3
 BYTE   N06  Gn3
 BYTE   W24
 BYTE   N18  Cn3
 BYTE   N18  Gn3
 BYTE   W24
 BYTE   N06  Cn3
 BYTE   N06  Gn3
 BYTE   W12
 BYTE   PEND 
//  #05 //004   ----------------------------------------
 BYTE   PATT
  POIN2 Label_0100EE0C
//  #05 //005   ----------------------------------------
Label_0100EE44:
 BYTE   W12
 BYTE   N18  Fn3  v127
 BYTE   N18  An3
 BYTE   W24
 BYTE   N06  Fn3
 BYTE   N06  An3
 BYTE   W24
 BYTE   N18  En3
 BYTE   N18  Gn3
 BYTE   W24
 BYTE   N06  En3
 BYTE   N06  Gn3
 BYTE   W12
 BYTE   PEND 
//  #05 //006   ----------------------------------------
Label_0100EE5B:
 BYTE   W12
 BYTE   N18  En3  v127
 BYTE   N18  An3
 BYTE   W24
 BYTE   N06  En3
 BYTE   N06  An3
 BYTE   W24
 BYTE   N18  En3
 BYTE   N18  An3
 BYTE   W24
 BYTE   N06  En3
 BYTE   N06  An3
 BYTE   W12
 BYTE   PEND 
//  #05 //007   ----------------------------------------
Label_0100EE72:
 BYTE   W12
 BYTE   N18  Fs3  v127
 BYTE   N18  An3
 BYTE   W24
 BYTE   N06  Fs3
 BYTE   N06  An3
 BYTE   W12
 BYTE   Fs3
 BYTE   N06  An3
 BYTE   W48
 BYTE   PEND 
//  #05 //008   ----------------------------------------
 BYTE   PATT
  POIN2 Label_0100EE0C
//  #05 //009   ----------------------------------------
 BYTE   PATT
  POIN2 Label_0100EE0C
//  #05 //010   ----------------------------------------
 BYTE   PATT
  POIN2 Label_0100EE0C
//  #05 //011   ----------------------------------------
 BYTE   PATT
  POIN2 Label_0100EE28
//  #05 //012   ----------------------------------------
 BYTE   PATT
  POIN2 Label_0100EE0C
//  #05 //013   ----------------------------------------
 BYTE   PATT
  POIN2 Label_0100EE44
//  #05 //014   ----------------------------------------
Label_0100EEA1:
 BYTE   W12
 BYTE   N18  Dn3  v127
 BYTE   N18  Fs3
 BYTE   W24
 BYTE   N06  Dn3
 BYTE   N06  Fs3
 BYTE   W24
 BYTE   N18
 BYTE   N18  An3
 BYTE   W24
 BYTE   N06  Fs3
 BYTE   N06  An3
 BYTE   W12
 BYTE   PEND 
//  #05 //015   ----------------------------------------
Label_0100EEB7:
 BYTE   W12
 BYTE   N18  Gn3  v127
 BYTE   N18  Bn3
 BYTE   W24
 BYTE   N06  Gn3
 BYTE   N06  Bn3
 BYTE   W12
 BYTE   Gn3
 BYTE   N06  Bn3
 BYTE   W48
 BYTE   PEND 
//  #05 //016   ----------------------------------------
Label_0100EEC8:
 BYTE   N06  Gn3  v127
 BYTE   W06
 BYTE   Gn4
 BYTE   W06
 BYTE   Cn4
 BYTE   W06
 BYTE   En4
 BYTE   W06
 BYTE   Gn4
 BYTE   W06
 BYTE   Gn3
 BYTE   W06
 BYTE   En4
 BYTE   W06
 BYTE   Cn4
 BYTE   W06
 BYTE   Gn4
 BYTE   W06
 BYTE   En4
 BYTE   W06
 BYTE   Cn4
 BYTE   W06
 BYTE   Gn4
 BYTE   W06
 BYTE   Cn4
 BYTE   W06
 BYTE   En4
 BYTE   W06
 BYTE   Gn3
 BYTE   W06
 BYTE   Cn4
 BYTE   W06
 BYTE   PEND 
//  #05 //017   ----------------------------------------
Label_0100EEEB:
 BYTE   N06  Gn4  v127
 BYTE   W06
 BYTE   Dn4
 BYTE   W06
 BYTE   Bn3
 BYTE   W06
 BYTE   Gn4
 BYTE   W06
 BYTE   Dn4
 BYTE   W06
 BYTE   Bn3
 BYTE   W06
 BYTE   Gn4
 BYTE   W06
 BYTE   Bn3
 BYTE   W06
 BYTE   Dn4
 BYTE   W06
 BYTE   Gn3
 BYTE   W06
 BYTE   Bn3
 BYTE   W06
 BYTE   Gn4
 BYTE   W06
 BYTE   Dn4
 BYTE   W06
 BYTE   Gn3
 BYTE   W06
 BYTE   Dn4
 BYTE   W06
 BYTE   Bn3
 BYTE   W06
 BYTE   PEND 
//  #05 //018   ----------------------------------------
Label_0100EF0E:
 BYTE   N06  Fs3  v127
 BYTE   W06
 BYTE   Fs4
 BYTE   W06
 BYTE   An3
 BYTE   W06
 BYTE   Dn4
 BYTE   W06
 BYTE   An3
 BYTE   W06
 BYTE   Fs4
 BYTE   W06
 BYTE   Dn4
 BYTE   W06
 BYTE   An3
 BYTE   W06
 BYTE   Fs4
 BYTE   W06
 BYTE   Fs3
 BYTE   W06
 BYTE   An3
 BYTE   W06
 BYTE   Fs3
 BYTE   W06
 BYTE   An3
 BYTE   W06
 BYTE   Dn4
 BYTE   W06
 BYTE   Fs4
 BYTE   W06
 BYTE   An3
 BYTE   W06
 BYTE   PEND 
//  #05 //019   ----------------------------------------
 BYTE   PATT
  POIN2 Label_0100EEEB
//  #05 //020   ----------------------------------------
 BYTE   PATT
  POIN2 Label_0100EEC8
//  #05 //021   ----------------------------------------
 BYTE   PATT
  POIN2 Label_0100EEEB
//  #05 //022   ----------------------------------------
 BYTE   PATT
  POIN2 Label_0100EF0E
//  #05 //023   ----------------------------------------
 BYTE   PATT
  POIN2 Label_0100EEEB
//  #05 //024   ----------------------------------------
 BYTE   PATT
  POIN2 Label_0100EEC8
//  #05 //025   ----------------------------------------
 BYTE   PATT
  POIN2 Label_0100EEEB
//  #05 //026   ----------------------------------------
 BYTE   PATT
  POIN2 Label_0100EF0E
//  #05 //027   ----------------------------------------
 BYTE   PATT
  POIN2 Label_0100EEEB
//  #05 //028   ----------------------------------------
 BYTE   PATT
  POIN2 Label_0100EEC8
//  #05 //029   ----------------------------------------
 BYTE   PATT
  POIN2 Label_0100EEEB
//  #05 //030   ----------------------------------------
 BYTE   PATT
  POIN2 Label_0100EF0E
//  #05 //031   ----------------------------------------
Label_0100EF6D:
 BYTE   N06  An4  v127
 BYTE   W06
 BYTE   Fs4
 BYTE   W06
 BYTE   Dn4
 BYTE   W06
 BYTE   An4
 BYTE   W06
 BYTE   An3
 BYTE   W06
 BYTE   Dn4
 BYTE   W06
 BYTE   An4
 BYTE   W06
 BYTE   Dn4
 BYTE   W06
 BYTE   An4
 BYTE   W48
 BYTE   PEND 
//  #05 //032   ----------------------------------------
Label_0100EF82:
 BYTE   W12
 BYTE   N06  Gn3  v127
 BYTE   N06  Bn3
 BYTE   W24
 BYTE   Gn3
 BYTE   N06  Bn3
 BYTE   W24
 BYTE   Gn3
 BYTE   N06  Bn3
 BYTE   W24
 BYTE   Gn3
 BYTE   N06  Bn3
 BYTE   W12
 BYTE   PEND 
//  #05 //033   ----------------------------------------
 BYTE   PATT
  POIN2 Label_0100EF82
//  #05 //034   ----------------------------------------
 BYTE   PATT
  POIN2 Label_0100EF82
//  #05 //035   ----------------------------------------
 BYTE   PATT
  POIN2 Label_0100EF82
//  #05 //036   ----------------------------------------
 BYTE   PATT
  POIN2 Label_0100EF82
//  #05 //037   ----------------------------------------
 BYTE   PATT
  POIN2 Label_0100EF82
//  #05 //038   ----------------------------------------
 BYTE   PATT
  POIN2 Label_0100EF82
//  #05 //039   ----------------------------------------
 BYTE   PATT
  POIN2 Label_0100EF82
//  #05 //040   ----------------------------------------
Label_0100EFB9:
 BYTE   W12
 BYTE   N06  Dn3  v127
 BYTE   N06  Gn3
 BYTE   W24
 BYTE   Dn3
 BYTE   N06  Gn3
 BYTE   W24
 BYTE   N18  Dn3
 BYTE   N18  Fs3
 BYTE   W24
 BYTE   N06  Dn3
 BYTE   N06  Fs3
 BYTE   W12
 BYTE   PEND 
//  #05 //041   ----------------------------------------
 BYTE   PATT
  POIN2 Label_0100EFB9
//  #05 //042   ----------------------------------------
 BYTE   PATT
  POIN2 Label_0100EFB9
//  #05 //043   ----------------------------------------
 BYTE   PATT
  POIN2 Label_0100EFB9
//  #05 //044   ----------------------------------------
Label_0100EFDE:
 BYTE   W12
 BYTE   N06  En3  v127
 BYTE   N06  Gn3
 BYTE   W24
 BYTE   En3
 BYTE   N06  Gn3
 BYTE   W24
 BYTE   N18  Dn3
 BYTE   N18  Gn3
 BYTE   W24
 BYTE   N06  Dn3
 BYTE   N06  Gn3
 BYTE   W12
 BYTE   PEND 
//  #05 //045   ----------------------------------------
 BYTE   PATT
  POIN2 Label_0100EFDE
//  #05 //046   ----------------------------------------
 BYTE   PATT
  POIN2 Label_0100EFB9
//  #05 //047   ----------------------------------------
 BYTE   PATT
  POIN2 Label_0100EFB9
//  #05 //048   ----------------------------------------
Label_0100F003:
 BYTE   W12
 BYTE   N06  Fs3  v127
 BYTE   N06  An3
 BYTE   W24
 BYTE   Fs3
 BYTE   N06  An3
 BYTE   W24
 BYTE   Fs3
 BYTE   N06  An3
 BYTE   W12
 BYTE   N12  Fs3
 BYTE   N12  An3
 BYTE   W12
 BYTE   Fn3
 BYTE   N12  An3
 BYTE   W12
 BYTE   PEND 
//  #05 //049   ----------------------------------------
Label_0100F01C:
 BYTE   W12
 BYTE   N06  En3  v127
 BYTE   N06  An3
 BYTE   W24
 BYTE   En3
 BYTE   N06  An3
 BYTE   W24
 BYTE   En3
 BYTE   N06  An3
 BYTE   W12
 BYTE   N12  En3
 BYTE   N24  An3
 BYTE   W12
 BYTE   N12  Fn3
 BYTE   W12
 BYTE   PEND 
//  #05 //050   ----------------------------------------
 BYTE   PATT
  POIN2 Label_0100F003
//  #05 //051   ----------------------------------------
 BYTE   PATT
  POIN2 Label_0100F01C
//  #05 //052   ----------------------------------------
 BYTE   PATT
  POIN2 Label_0100F003
//  #05 //053   ----------------------------------------
 BYTE   PATT
  POIN2 Label_0100F01C
//  #05 //054   ----------------------------------------
Label_0100F048:
 BYTE   W12
 BYTE   N06  Fs3  v127
 BYTE   N06  An3
 BYTE   W24
 BYTE   Fs3
 BYTE   N06  An3
 BYTE   W24
 BYTE   Fs3
 BYTE   N06  An3
 BYTE   W12
 BYTE   N12  Fs3
 BYTE   N12  An3
 BYTE   W12
 BYTE   Fs3
 BYTE   N12  An3
 BYTE   W12
 BYTE   PEND 
//  #05 //055   ----------------------------------------
Label_0100F061:
 BYTE   W12
 BYTE   N06  Fs3  v127
 BYTE   N06  An3
 BYTE   W24
 BYTE   Fs3
 BYTE   N06  An3
 BYTE   W24
 BYTE   Fs3
 BYTE   N06  An3
 BYTE   W12
 BYTE   Fs3
 BYTE   N06  An3
 BYTE   W12
 BYTE   Fs3
 BYTE   N06  An3
 BYTE   W12
 BYTE   PEND 
//  #05 //056   ----------------------------------------
 BYTE   PATT
  POIN2 Label_0100EE0C
//  #05 //057   ----------------------------------------
 BYTE   PATT
  POIN2 Label_0100EE0C
//  #05 //058   ----------------------------------------
 BYTE   PATT
  POIN2 Label_0100EE0C
//  #05 //059   ----------------------------------------
 BYTE   PATT
  POIN2 Label_0100EE28
//  #05 //060   ----------------------------------------
 BYTE   PATT
  POIN2 Label_0100EE0C
//  #05 //061   ----------------------------------------
 BYTE   PATT
  POIN2 Label_0100EE44
//  #05 //062   ----------------------------------------
 BYTE   PATT
  POIN2 Label_0100EE5B
//  #05 //063   ----------------------------------------
 BYTE   PATT
  POIN2 Label_0100EE72
//  #05 //064   ----------------------------------------
 BYTE   PATT
  POIN2 Label_0100EE0C
//  #05 //065   ----------------------------------------
 BYTE   PATT
  POIN2 Label_0100EE0C
//  #05 //066   ----------------------------------------
 BYTE   PATT
  POIN2 Label_0100EE0C
//  #05 //067   ----------------------------------------
 BYTE   PATT
  POIN2 Label_0100EE28
//  #05 //068   ----------------------------------------
 BYTE   PATT
  POIN2 Label_0100EE0C
//  #05 //069   ----------------------------------------
 BYTE   PATT
  POIN2 Label_0100EE44
//  #05 //070   ----------------------------------------
 BYTE   PATT
  POIN2 Label_0100EEA1
//  #05 //071   ----------------------------------------
 BYTE   PATT
  POIN2 Label_0100EEB7
//  #05 //072   ----------------------------------------
 BYTE   PATT
  POIN2 Label_0100EEC8
//  #05 //073   ----------------------------------------
 BYTE   PATT
  POIN2 Label_0100EEEB
//  #05 //074   ----------------------------------------
 BYTE   PATT
  POIN2 Label_0100EF0E
//  #05 //075   ----------------------------------------
 BYTE   PATT
  POIN2 Label_0100EEEB
//  #05 //076   ----------------------------------------
 BYTE   PATT
  POIN2 Label_0100EEC8
//  #05 //077   ----------------------------------------
 BYTE   PATT
  POIN2 Label_0100EEEB
//  #05 //078   ----------------------------------------
 BYTE   PATT
  POIN2 Label_0100EF0E
//  #05 //079   ----------------------------------------
 BYTE   PATT
  POIN2 Label_0100EEEB
//  #05 //080   ----------------------------------------
 BYTE   PATT
  POIN2 Label_0100EEC8
//  #05 //081   ----------------------------------------
 BYTE   PATT
  POIN2 Label_0100EEEB
//  #05 //082   ----------------------------------------
 BYTE   PATT
  POIN2 Label_0100EF0E
//  #05 //083   ----------------------------------------
 BYTE   PATT
  POIN2 Label_0100EEEB
//  #05 //084   ----------------------------------------
 BYTE   PATT
  POIN2 Label_0100EEC8
//  #05 //085   ----------------------------------------
 BYTE   PATT
  POIN2 Label_0100EEEB
//  #05 //086   ----------------------------------------
 BYTE   PATT
  POIN2 Label_0100EF0E
//  #05 //087   ----------------------------------------
 BYTE   PATT
  POIN2 Label_0100EF6D
//  #05 //088   ----------------------------------------
 BYTE   PATT
  POIN2 Label_0100EF82
//  #05 //089   ----------------------------------------
 BYTE   PATT
  POIN2 Label_0100EF82
//  #05 //090   ----------------------------------------
 BYTE   PATT
  POIN2 Label_0100EF82
//  #05 //091   ----------------------------------------
 BYTE   PATT
  POIN2 Label_0100EF82
//  #05 //092   ----------------------------------------
 BYTE   PATT
  POIN2 Label_0100EF82
//  #05 //093   ----------------------------------------
 BYTE   PATT
  POIN2 Label_0100EF82
//  #05 //094   ----------------------------------------
 BYTE   PATT
  POIN2 Label_0100EF82
//  #05 //095   ----------------------------------------
 BYTE   PATT
  POIN2 Label_0100EF82
//  #05 //096   ----------------------------------------
 BYTE   PATT
  POIN2 Label_0100EFB9
//  #05 //097   ----------------------------------------
 BYTE   PATT
  POIN2 Label_0100EFB9
//  #05 //098   ----------------------------------------
 BYTE   PATT
  POIN2 Label_0100EFB9
//  #05 //099   ----------------------------------------
 BYTE   PATT
  POIN2 Label_0100EFB9
//  #05 //100   ----------------------------------------
 BYTE   PATT
  POIN2 Label_0100EFDE
//  #05 //101   ----------------------------------------
 BYTE   PATT
  POIN2 Label_0100EFDE
//  #05 //102   ----------------------------------------
 BYTE   PATT
  POIN2 Label_0100EFB9
//  #05 //103   ----------------------------------------
 BYTE   PATT
  POIN2 Label_0100EFB9
//  #05 //104   ----------------------------------------
 BYTE   PATT
  POIN2 Label_0100F003
//  #05 //105   ----------------------------------------
 BYTE   PATT
  POIN2 Label_0100F01C
//  #05 //106   ----------------------------------------
 BYTE   PATT
  POIN2 Label_0100F003
//  #05 //107   ----------------------------------------
 BYTE   PATT
  POIN2 Label_0100F01C
//  #05 //108   ----------------------------------------
 BYTE   PATT
  POIN2 Label_0100F003
//  #05 //109   ----------------------------------------
 BYTE   PATT
  POIN2 Label_0100F01C
//  #05 //110   ----------------------------------------
 BYTE   PATT
  POIN2 Label_0100F048
//  #05 //111   ----------------------------------------
 BYTE   PATT
  POIN2 Label_0100F061
 BYTE   FINE

//**************** Track 6 (Midi-Chn.5) ****************//

MarioKartDSChocoMountain_006:
//  #06 //000   ----------------------------------------
 BYTE   KEYSH   MarioKartDSChocoMountain_key+0
 BYTE   VOICE   41
 BYTE   MODT 0
 BYTE   LFOS 44
 BYTE   VOL   27*MarioKartDSChocoMountain_mvl/mxv
 BYTE   N24  Gn4  v127
 BYTE   W24
 BYTE   N18
 BYTE   W18
 BYTE   N06
 BYTE   W06
 BYTE   En4
 BYTE   W12
 BYTE   N24  Gn4
 BYTE   W24
 BYTE   N06
 BYTE   W12
//  #06 //001   ----------------------------------------
Label_0100F1AD:
 BYTE   N06  An4  v127
 BYTE   W12
 BYTE   N84  Gn4
 BYTE   W84
 BYTE   PEND 
//  #06 //002   ----------------------------------------
Label_0100F1B5:
 BYTE   N24  Gn4  v127
 BYTE   W24
 BYTE   N18
 BYTE   W18
 BYTE   N06
 BYTE   W06
 BYTE   En4
 BYTE   W12
 BYTE   N24  Gn4
 BYTE   W24
 BYTE   N06
 BYTE   W12
 BYTE   PEND 
//  #06 //003   ----------------------------------------
Label_0100F1C5:
 BYTE   N06  Cn5  v127
 BYTE   W12
 BYTE   N84  En4
 BYTE   W84
 BYTE   PEND 
//  #06 //004   ----------------------------------------
 BYTE   W96
//  #06 //005   ----------------------------------------
 BYTE   W96
//  #06 //006   ----------------------------------------
 BYTE   W96
//  #06 //007   ----------------------------------------
 BYTE   W96
//  #06 //008   ----------------------------------------
 BYTE   PATT
  POIN2 Label_0100F1B5
//  #06 //009   ----------------------------------------
 BYTE   PATT
  POIN2 Label_0100F1AD
//  #06 //010   ----------------------------------------
 BYTE   PATT
  POIN2 Label_0100F1B5
//  #06 //011   ----------------------------------------
 BYTE   PATT
  POIN2 Label_0100F1C5
//  #06 //012   ----------------------------------------
 BYTE   W96
//  #06 //013   ----------------------------------------
 BYTE   W96
//  #06 //014   ----------------------------------------
 BYTE   W96
//  #06 //015   ----------------------------------------
 BYTE   W96
//  #06 //016   ----------------------------------------
 BYTE   W96
//  #06 //017   ----------------------------------------
 BYTE   W96
//  #06 //018   ----------------------------------------
 BYTE   W96
//  #06 //019   ----------------------------------------
 BYTE   W96
//  #06 //020   ----------------------------------------
 BYTE   W96
//  #06 //021   ----------------------------------------
 BYTE   W96
//  #06 //022   ----------------------------------------
 BYTE   W96
//  #06 //023   ----------------------------------------
 BYTE   W96
//  #06 //024   ----------------------------------------
 BYTE   W96
//  #06 //025   ----------------------------------------
 BYTE   W96
//  #06 //026   ----------------------------------------
 BYTE   W96
//  #06 //027   ----------------------------------------
 BYTE   W96
//  #06 //028   ----------------------------------------
 BYTE   W96
//  #06 //029   ----------------------------------------
 BYTE   W96
//  #06 //030   ----------------------------------------
 BYTE   W96
//  #06 //031   ----------------------------------------
 BYTE   W96
//  #06 //032   ----------------------------------------
 BYTE   W96
//  #06 //033   ----------------------------------------
 BYTE   W96
//  #06 //034   ----------------------------------------
 BYTE   W96
//  #06 //035   ----------------------------------------
 BYTE   W96
//  #06 //036   ----------------------------------------
 BYTE   W96
//  #06 //037   ----------------------------------------
 BYTE   W96
//  #06 //038   ----------------------------------------
 BYTE   W96
//  #06 //039   ----------------------------------------
 BYTE   W96
//  #06 //040   ----------------------------------------
 BYTE   W96
//  #06 //041   ----------------------------------------
 BYTE   W96
//  #06 //042   ----------------------------------------
 BYTE   W96
//  #06 //043   ----------------------------------------
 BYTE   W96
//  #06 //044   ----------------------------------------
 BYTE   W96
//  #06 //045   ----------------------------------------
 BYTE   W96
//  #06 //046   ----------------------------------------
 BYTE   W96
//  #06 //047   ----------------------------------------
 BYTE   W96
//  #06 //048   ----------------------------------------
 BYTE   W96
//  #06 //049   ----------------------------------------
 BYTE   W96
//  #06 //050   ----------------------------------------
 BYTE   W96
//  #06 //051   ----------------------------------------
 BYTE   W96
//  #06 //052   ----------------------------------------
 BYTE   W96
//  #06 //053   ----------------------------------------
 BYTE   W96
//  #06 //054   ----------------------------------------
 BYTE   W96
//  #06 //055   ----------------------------------------
 BYTE   W96
//  #06 //056   ----------------------------------------
 BYTE   PATT
  POIN2 Label_0100F1B5
//  #06 //057   ----------------------------------------
 BYTE   PATT
  POIN2 Label_0100F1AD
//  #06 //058   ----------------------------------------
 BYTE   PATT
  POIN2 Label_0100F1B5
//  #06 //059   ----------------------------------------
 BYTE   PATT
  POIN2 Label_0100F1C5
//  #06 //060   ----------------------------------------
 BYTE   W96
//  #06 //061   ----------------------------------------
 BYTE   W96
//  #06 //062   ----------------------------------------
 BYTE   W96
//  #06 //063   ----------------------------------------
 BYTE   W96
//  #06 //064   ----------------------------------------
 BYTE   PATT
  POIN2 Label_0100F1B5
//  #06 //065   ----------------------------------------
 BYTE   PATT
  POIN2 Label_0100F1AD
//  #06 //066   ----------------------------------------
 BYTE   PATT
  POIN2 Label_0100F1B5
//  #06 //067   ----------------------------------------
 BYTE   PATT
  POIN2 Label_0100F1C5
//  #06 //068   ----------------------------------------
 BYTE   W96
//  #06 //069   ----------------------------------------
 BYTE   W96
//  #06 //070   ----------------------------------------
 BYTE   W96
//  #06 //071   ----------------------------------------
 BYTE   W96
//  #06 //072   ----------------------------------------
 BYTE   W96
//  #06 //073   ----------------------------------------
 BYTE   W96
//  #06 //074   ----------------------------------------
 BYTE   W96
//  #06 //075   ----------------------------------------
 BYTE   W96
//  #06 //076   ----------------------------------------
 BYTE   W96
//  #06 //077   ----------------------------------------
 BYTE   W96
//  #06 //078   ----------------------------------------
 BYTE   W96
//  #06 //079   ----------------------------------------
 BYTE   W96
//  #06 //080   ----------------------------------------
 BYTE   W96
//  #06 //081   ----------------------------------------
 BYTE   W96
//  #06 //082   ----------------------------------------
 BYTE   W96
//  #06 //083   ----------------------------------------
 BYTE   W96
//  #06 //084   ----------------------------------------
 BYTE   W96
//  #06 //085   ----------------------------------------
 BYTE   W96
//  #06 //086   ----------------------------------------
 BYTE   W96
//  #06 //087   ----------------------------------------
 BYTE   W96
//  #06 //088   ----------------------------------------
 BYTE   W96
//  #06 //089   ----------------------------------------
 BYTE   W96
//  #06 //090   ----------------------------------------
 BYTE   W96
//  #06 //091   ----------------------------------------
 BYTE   W96
//  #06 //092   ----------------------------------------
 BYTE   W96
//  #06 //093   ----------------------------------------
 BYTE   W96
//  #06 //094   ----------------------------------------
 BYTE   W96
//  #06 //095   ----------------------------------------
 BYTE   W96
//  #06 //096   ----------------------------------------
 BYTE   W96
//  #06 //097   ----------------------------------------
 BYTE   W96
//  #06 //098   ----------------------------------------
 BYTE   W96
//  #06 //099   ----------------------------------------
 BYTE   W96
//  #06 //100   ----------------------------------------
 BYTE   W96
//  #06 //101   ----------------------------------------
 BYTE   W96
//  #06 //102   ----------------------------------------
 BYTE   W96
//  #06 //103   ----------------------------------------
 BYTE   W96
//  #06 //104   ----------------------------------------
 BYTE   W96
//  #06 //105   ----------------------------------------
 BYTE   W96
//  #06 //106   ----------------------------------------
 BYTE   W96
//  #06 //107   ----------------------------------------
 BYTE   W96
//  #06 //108   ----------------------------------------
 BYTE   W96
//  #06 //109   ----------------------------------------
 BYTE   W96
//  #06 //110   ----------------------------------------
 BYTE   W96
//  #06 //111   ----------------------------------------
 BYTE   W96
 BYTE   FINE

//**************** Track 7 (Midi-Chn.6) ****************//

MarioKartDSChocoMountain_007:
//  #07 //000   ----------------------------------------
 BYTE   KEYSH   MarioKartDSChocoMountain_key+0
 BYTE   VOICE   121
 BYTE   MODT 0
 BYTE   LFOS 44
 BYTE   VOL   76*MarioKartDSChocoMountain_mvl/mxv
 BYTE   N06  Cn1  v127
 BYTE   N06  Cs2
 BYTE   N06  Fs2
 BYTE   W12
 BYTE   Dn1
 BYTE   N06  As1
 BYTE   W12
 BYTE   Cn1
 BYTE   W12
 BYTE   Dn1
 BYTE   N06  As1
 BYTE   W12
 BYTE   Cn1
 BYTE   W12
 BYTE   Dn1
 BYTE   N06  As1
 BYTE   W12
 BYTE   Cn1
 BYTE   W12
 BYTE   Dn1
 BYTE   N06  As1
 BYTE   W12
//  #07 //001   ----------------------------------------
Label_0100F294:
 BYTE   N06  Cn1  v127
 BYTE   W12
 BYTE   Dn1
 BYTE   N06  As1
 BYTE   W12
 BYTE   Cn1
 BYTE   W12
 BYTE   Dn1
 BYTE   N06  As1
 BYTE   W12
 BYTE   Cn1
 BYTE   W12
 BYTE   Dn1
 BYTE   N06  As1
 BYTE   W12
 BYTE   Cn1
 BYTE   W12
 BYTE   Dn1
 BYTE   N06  As1
 BYTE   W12
 BYTE   PEND 
//  #07 //002   ----------------------------------------
 BYTE   PATT
  POIN2 Label_0100F294
//  #07 //003   ----------------------------------------
Label_0100F2B4:
 BYTE   N06  Cn1  v127
 BYTE   W12
 BYTE   Dn1
 BYTE   N06  As1
 BYTE   W12
 BYTE   Cn1
 BYTE   W12
 BYTE   Dn1
 BYTE   N06  As1
 BYTE   W12
 BYTE   Cn1
 BYTE   W12
 BYTE   Dn1
 BYTE   N06  As1
 BYTE   N06  Cn2
 BYTE   W12
 BYTE   Cn1
 BYTE   W12
 BYTE   Dn1
 BYTE   N06  As1
 BYTE   W12
 BYTE   PEND 
//  #07 //004   ----------------------------------------
 BYTE   PATT
  POIN2 Label_0100F294
//  #07 //005   ----------------------------------------
 BYTE   PATT
  POIN2 Label_0100F294
//  #07 //006   ----------------------------------------
 BYTE   PATT
  POIN2 Label_0100F294
//  #07 //007   ----------------------------------------
Label_0100F2E0:
 BYTE   N06  Cn1  v127
 BYTE   W12
 BYTE   Dn1
 BYTE   N06  As1
 BYTE   W12
 BYTE   Cn1
 BYTE   W12
 BYTE   Dn1
 BYTE   N06  As1
 BYTE   W12
 BYTE   Cn1
 BYTE   W12
 BYTE   Fs2
 BYTE   N06  Fn3
 BYTE   N06  Gs3
 BYTE   W12
 BYTE   Fs2
 BYTE   N06  Fn3
 BYTE   N06  Gs3
 BYTE   W12
 BYTE   Fs2
 BYTE   N06  Fn3
 BYTE   N06  Gs3
 BYTE   W12
 BYTE   PEND 
//  #07 //008   ----------------------------------------
Label_0100F303:
 BYTE   N06  Cn1  v127
 BYTE   N06  Cs2
 BYTE   N06  Fs2
 BYTE   W12
 BYTE   Dn1
 BYTE   N06  As1
 BYTE   W12
 BYTE   Cn1
 BYTE   W12
 BYTE   Dn1
 BYTE   N06  As1
 BYTE   W12
 BYTE   Cn1
 BYTE   W12
 BYTE   Dn1
 BYTE   N06  As1
 BYTE   W12
 BYTE   Cn1
 BYTE   W12
 BYTE   Dn1
 BYTE   N06  As1
 BYTE   W12
 BYTE   PEND 
//  #07 //009   ----------------------------------------
 BYTE   PATT
  POIN2 Label_0100F294
//  #07 //010   ----------------------------------------
 BYTE   PATT
  POIN2 Label_0100F294
//  #07 //011   ----------------------------------------
 BYTE   PATT
  POIN2 Label_0100F2B4
//  #07 //012   ----------------------------------------
 BYTE   PATT
  POIN2 Label_0100F294
//  #07 //013   ----------------------------------------
 BYTE   PATT
  POIN2 Label_0100F294
//  #07 //014   ----------------------------------------
 BYTE   PATT
  POIN2 Label_0100F294
//  #07 //015   ----------------------------------------
 BYTE   PATT
  POIN2 Label_0100F2E0
//  #07 //016   ----------------------------------------
Label_0100F345:
 BYTE   N06  Cn1  v127
 BYTE   N06  Gs1
 BYTE   N06  Cs2
 BYTE   N06  Fs2
 BYTE   W06
 BYTE   Gs1
 BYTE   W06
 BYTE   Dn1
 BYTE   N06  As1
 BYTE   W12
 BYTE   Cn1
 BYTE   N06  Gs1
 BYTE   W06
 BYTE   N06
 BYTE   W06
 BYTE   Dn1
 BYTE   N06  As1
 BYTE   W12
 BYTE   Cn1
 BYTE   N06  Gs1
 BYTE   W06
 BYTE   N06
 BYTE   W06
 BYTE   Dn1
 BYTE   N06  As1
 BYTE   W12
 BYTE   Cn1
 BYTE   N06  Gs1
 BYTE   W06
 BYTE   N06
 BYTE   W06
 BYTE   Dn1
 BYTE   N06  As1
 BYTE   W12
 BYTE   PEND 
//  #07 //017   ----------------------------------------
Label_0100F374:
 BYTE   N06  Cn1  v127
 BYTE   N06  Gs1
 BYTE   W06
 BYTE   N06
 BYTE   W06
 BYTE   Dn1
 BYTE   N06  As1
 BYTE   W12
 BYTE   Cn1
 BYTE   N06  Gs1
 BYTE   W06
 BYTE   N06
 BYTE   W06
 BYTE   Dn1
 BYTE   N06  As1
 BYTE   W12
 BYTE   Cn1
 BYTE   N06  Gs1
 BYTE   W06
 BYTE   N06
 BYTE   W06
 BYTE   Dn1
 BYTE   N06  As1
 BYTE   W12
 BYTE   Cn1
 BYTE   N06  Gs1
 BYTE   W06
 BYTE   N06
 BYTE   W06
 BYTE   Dn1
 BYTE   N06  As1
 BYTE   W12
 BYTE   PEND 
//  #07 //018   ----------------------------------------
 BYTE   PATT
  POIN2 Label_0100F374
//  #07 //019   ----------------------------------------
 BYTE   PATT
  POIN2 Label_0100F374
//  #07 //020   ----------------------------------------
 BYTE   PATT
  POIN2 Label_0100F374
//  #07 //021   ----------------------------------------
 BYTE   PATT
  POIN2 Label_0100F374
//  #07 //022   ----------------------------------------
 BYTE   PATT
  POIN2 Label_0100F374
//  #07 //023   ----------------------------------------
Label_0100F3B8:
 BYTE   N06  Cn1  v127
 BYTE   N06  Gs1
 BYTE   W06
 BYTE   N06
 BYTE   W06
 BYTE   Dn1
 BYTE   N06  As1
 BYTE   W12
 BYTE   Cn1
 BYTE   N06  Gs1
 BYTE   W06
 BYTE   N06
 BYTE   W06
 BYTE   Dn1
 BYTE   N06  As1
 BYTE   W12
 BYTE   Cn1
 BYTE   N06  Gs1
 BYTE   W12
 BYTE   Fs2
 BYTE   N06  Fn3
 BYTE   N06  Gs3
 BYTE   W12
 BYTE   Fs2
 BYTE   N06  Fn3
 BYTE   N06  Gs3
 BYTE   W12
 BYTE   Fs2
 BYTE   N06  Fn3
 BYTE   N06  Gs3
 BYTE   W12
 BYTE   PEND 
//  #07 //024   ----------------------------------------
 BYTE   PATT
  POIN2 Label_0100F345
//  #07 //025   ----------------------------------------
 BYTE   PATT
  POIN2 Label_0100F374
//  #07 //026   ----------------------------------------
 BYTE   PATT
  POIN2 Label_0100F374
//  #07 //027   ----------------------------------------
 BYTE   PATT
  POIN2 Label_0100F374
//  #07 //028   ----------------------------------------
 BYTE   PATT
  POIN2 Label_0100F374
//  #07 //029   ----------------------------------------
 BYTE   PATT
  POIN2 Label_0100F374
//  #07 //030   ----------------------------------------
 BYTE   PATT
  POIN2 Label_0100F374
//  #07 //031   ----------------------------------------
 BYTE   PATT
  POIN2 Label_0100F3B8
//  #07 //032   ----------------------------------------
 BYTE   PATT
  POIN2 Label_0100F303
//  #07 //033   ----------------------------------------
 BYTE   PATT
  POIN2 Label_0100F294
//  #07 //034   ----------------------------------------
 BYTE   PATT
  POIN2 Label_0100F294
//  #07 //035   ----------------------------------------
 BYTE   PATT
  POIN2 Label_0100F294
//  #07 //036   ----------------------------------------
 BYTE   PATT
  POIN2 Label_0100F294
//  #07 //037   ----------------------------------------
 BYTE   PATT
  POIN2 Label_0100F294
//  #07 //038   ----------------------------------------
 BYTE   PATT
  POIN2 Label_0100F294
//  #07 //039   ----------------------------------------
 BYTE   PATT
  POIN2 Label_0100F294
//  #07 //040   ----------------------------------------
 BYTE   PATT
  POIN2 Label_0100F303
//  #07 //041   ----------------------------------------
 BYTE   PATT
  POIN2 Label_0100F294
//  #07 //042   ----------------------------------------
 BYTE   PATT
  POIN2 Label_0100F294
//  #07 //043   ----------------------------------------
 BYTE   PATT
  POIN2 Label_0100F294
//  #07 //044   ----------------------------------------
 BYTE   PATT
  POIN2 Label_0100F294
//  #07 //045   ----------------------------------------
 BYTE   PATT
  POIN2 Label_0100F294
//  #07 //046   ----------------------------------------
 BYTE   PATT
  POIN2 Label_0100F294
//  #07 //047   ----------------------------------------
 BYTE   PATT
  POIN2 Label_0100F294
//  #07 //048   ----------------------------------------
 BYTE   PATT
  POIN2 Label_0100F303
//  #07 //049   ----------------------------------------
 BYTE   PATT
  POIN2 Label_0100F294
//  #07 //050   ----------------------------------------
 BYTE   PATT
  POIN2 Label_0100F294
//  #07 //051   ----------------------------------------
 BYTE   PATT
  POIN2 Label_0100F294
//  #07 //052   ----------------------------------------
 BYTE   PATT
  POIN2 Label_0100F294
//  #07 //053   ----------------------------------------
 BYTE   PATT
  POIN2 Label_0100F294
//  #07 //054   ----------------------------------------
 BYTE   PATT
  POIN2 Label_0100F294
//  #07 //055   ----------------------------------------
 BYTE   PATT
  POIN2 Label_0100F294
//  #07 //056   ----------------------------------------
 BYTE   PATT
  POIN2 Label_0100F303
//  #07 //057   ----------------------------------------
 BYTE   PATT
  POIN2 Label_0100F294
//  #07 //058   ----------------------------------------
 BYTE   PATT
  POIN2 Label_0100F294
//  #07 //059   ----------------------------------------
 BYTE   PATT
  POIN2 Label_0100F2B4
//  #07 //060   ----------------------------------------
 BYTE   PATT
  POIN2 Label_0100F294
//  #07 //061   ----------------------------------------
 BYTE   PATT
  POIN2 Label_0100F294
//  #07 //062   ----------------------------------------
 BYTE   PATT
  POIN2 Label_0100F294
//  #07 //063   ----------------------------------------
 BYTE   PATT
  POIN2 Label_0100F2E0
//  #07 //064   ----------------------------------------
 BYTE   PATT
  POIN2 Label_0100F303
//  #07 //065   ----------------------------------------
 BYTE   PATT
  POIN2 Label_0100F294
//  #07 //066   ----------------------------------------
 BYTE   PATT
  POIN2 Label_0100F294
//  #07 //067   ----------------------------------------
 BYTE   PATT
  POIN2 Label_0100F2B4
//  #07 //068   ----------------------------------------
 BYTE   PATT
  POIN2 Label_0100F294
//  #07 //069   ----------------------------------------
 BYTE   PATT
  POIN2 Label_0100F294
//  #07 //070   ----------------------------------------
 BYTE   PATT
  POIN2 Label_0100F294
//  #07 //071   ----------------------------------------
 BYTE   PATT
  POIN2 Label_0100F2E0
//  #07 //072   ----------------------------------------
 BYTE   PATT
  POIN2 Label_0100F345
//  #07 //073   ----------------------------------------
 BYTE   PATT
  POIN2 Label_0100F374
//  #07 //074   ----------------------------------------
 BYTE   PATT
  POIN2 Label_0100F374
//  #07 //075   ----------------------------------------
 BYTE   PATT
  POIN2 Label_0100F374
//  #07 //076   ----------------------------------------
 BYTE   PATT
  POIN2 Label_0100F374
//  #07 //077   ----------------------------------------
 BYTE   PATT
  POIN2 Label_0100F374
//  #07 //078   ----------------------------------------
 BYTE   PATT
  POIN2 Label_0100F374
//  #07 //079   ----------------------------------------
 BYTE   PATT
  POIN2 Label_0100F3B8
//  #07 //080   ----------------------------------------
 BYTE   PATT
  POIN2 Label_0100F345
//  #07 //081   ----------------------------------------
 BYTE   PATT
  POIN2 Label_0100F374
//  #07 //082   ----------------------------------------
 BYTE   PATT
  POIN2 Label_0100F374
//  #07 //083   ----------------------------------------
 BYTE   PATT
  POIN2 Label_0100F374
//  #07 //084   ----------------------------------------
 BYTE   PATT
  POIN2 Label_0100F374
//  #07 //085   ----------------------------------------
 BYTE   PATT
  POIN2 Label_0100F374
//  #07 //086   ----------------------------------------
 BYTE   PATT
  POIN2 Label_0100F374
//  #07 //087   ----------------------------------------
 BYTE   PATT
  POIN2 Label_0100F3B8
//  #07 //088   ----------------------------------------
 BYTE   PATT
  POIN2 Label_0100F303
//  #07 //089   ----------------------------------------
 BYTE   PATT
  POIN2 Label_0100F294
//  #07 //090   ----------------------------------------
 BYTE   PATT
  POIN2 Label_0100F294
//  #07 //091   ----------------------------------------
 BYTE   PATT
  POIN2 Label_0100F294
//  #07 //092   ----------------------------------------
 BYTE   PATT
  POIN2 Label_0100F294
//  #07 //093   ----------------------------------------
 BYTE   PATT
  POIN2 Label_0100F294
//  #07 //094   ----------------------------------------
 BYTE   PATT
  POIN2 Label_0100F294
//  #07 //095   ----------------------------------------
 BYTE   PATT
  POIN2 Label_0100F294
//  #07 //096   ----------------------------------------
 BYTE   PATT
  POIN2 Label_0100F303
//  #07 //097   ----------------------------------------
 BYTE   PATT
  POIN2 Label_0100F294
//  #07 //098   ----------------------------------------
 BYTE   PATT
  POIN2 Label_0100F294
//  #07 //099   ----------------------------------------
 BYTE   PATT
  POIN2 Label_0100F294
//  #07 //100   ----------------------------------------
 BYTE   PATT
  POIN2 Label_0100F294
//  #07 //101   ----------------------------------------
 BYTE   PATT
  POIN2 Label_0100F294
//  #07 //102   ----------------------------------------
 BYTE   PATT
  POIN2 Label_0100F294
//  #07 //103   ----------------------------------------
 BYTE   PATT
  POIN2 Label_0100F294
//  #07 //104   ----------------------------------------
 BYTE   PATT
  POIN2 Label_0100F303
//  #07 //105   ----------------------------------------
 BYTE   PATT
  POIN2 Label_0100F294
//  #07 //106   ----------------------------------------
 BYTE   PATT
  POIN2 Label_0100F294
//  #07 //107   ----------------------------------------
 BYTE   PATT
  POIN2 Label_0100F294
//  #07 //108   ----------------------------------------
 BYTE   PATT
  POIN2 Label_0100F294
//  #07 //109   ----------------------------------------
 BYTE   PATT
  POIN2 Label_0100F294
//  #07 //110   ----------------------------------------
 BYTE   PATT
  POIN2 Label_0100F294
//  #07 //111   ----------------------------------------
 BYTE   PATT
  POIN2 Label_0100F294
 BYTE   FINE

//******************************************************//
	ALIGN 4

MarioKartDSChocoMountain:
	BYTE	7	// NumTrks
	BYTE	0	// NumBlks
	BYTE	MarioKartDSChocoMountain_pri	// Priority
	BYTE	MarioKartDSChocoMountain_rev	// Reverb.
    
	POIN2	MarioKartDSChocoMountain_grp
    
	POIN2	MarioKartDSChocoMountain_001
	POIN2	MarioKartDSChocoMountain_002
	POIN2	MarioKartDSChocoMountain_003
	POIN2	MarioKartDSChocoMountain_004
	POIN2	MarioKartDSChocoMountain_005
	POIN2	MarioKartDSChocoMountain_006
	POIN2	MarioKartDSChocoMountain_007

	
