//Event file generated from Sappy .s format.
	#include "MPlayDef.event"

	#define	MarioGolfRingMatchPandan_grp  voicegroup000
	#define	MarioGolfRingMatchPandan_pri  10
	#define	MarioGolfRingMatchPandan_rev  0
	#define	MarioGolfRingMatchPandan_mvl  127
	#define	MarioGolfRingMatchPandan_key  0
	#define	MarioGolfRingMatchPandan_tbs  1
	#define	MarioGolfRingMatchPandan_exg  0
	#define	MarioGolfRingMatchPandan_cmp  1

	// .rodata
	//	MarioGolfRingMatchPandan
	ALIGN 4


//**************** Track 1 (Midi-Chn.0) ****************//

MarioGolfRingMatchPandan_001:
// 000   ----------------------------------------
Label_0_011DE4EC:
 BYTE   TEMPO   80*MarioGolfRingMatchPandan_tbs/2
 BYTE   TEMPO   80*MarioGolfRingMatchPandan_tbs/2
 BYTE   KEYSH   MarioGolfRingMatchPandan_key+0
 BYTE   VOICE   75
 BYTE   VOL   52*MarioGolfRingMatchPandan_mvl/mxv
 BYTE   PAN   c_v+0
 BYTE   N24  Gs4  v127
 BYTE   W24
 BYTE   N08
 BYTE   W08
 BYTE   Fs4
 BYTE   W08
 BYTE   En4
 BYTE   W08
 BYTE   N24  An4
 BYTE   W24
 BYTE   N08
 BYTE   W08
 BYTE   Gs4
 BYTE   W08
 BYTE   Fs4
 BYTE   W08
// 001   ----------------------------------------
Label_0_011DE50B:
 BYTE   N24  Ds4  v127
 BYTE   W24
 BYTE   N08
 BYTE   W08
 BYTE   En4
 BYTE   W08
 BYTE   Fs4
 BYTE   W08
 BYTE   N42  Gs4
 BYTE   W48
 BYTE   PEND 
// 002   ----------------------------------------
Label_0_011DE519:
 BYTE   N24  An4  v127
 BYTE   W24
 BYTE   N08
 BYTE   W08
 BYTE   Gs4
 BYTE   W08
 BYTE   Fs4
 BYTE   W08
 BYTE   N24  En4
 BYTE   W24
 BYTE   Bn3
 BYTE   W24
 BYTE   PEND 
// 003   ----------------------------------------
Label_0_011DE529:
 BYTE   N24  An4  v127
 BYTE   W24
 BYTE   N08
 BYTE   W08
 BYTE   Gs4
 BYTE   W08
 BYTE   En4
 BYTE   W08
 BYTE   N24  Fs4
 BYTE   W24
 BYTE   N20  Bn4
 BYTE   W32
 BYTE   PEND 
// 004   ----------------------------------------
Label_0_011DE53A:
 BYTE   N07  Gs4  v127
 BYTE   W08
 BYTE   N04
 BYTE   W04
 BYTE   Gs4
 BYTE   W04
 BYTE   Gs4
 BYTE   W04
 BYTE   N03
 BYTE   W08
 BYTE   An4
 BYTE   W04
 BYTE   Bn4
 BYTE   W16
 BYTE   N07  En4
 BYTE   W08
 BYTE   N04
 BYTE   W04
 BYTE   En4
 BYTE   W04
 BYTE   En4
 BYTE   W04
 BYTE   N03
 BYTE   W08
 BYTE   Fs4
 BYTE   W04
 BYTE   Gs4
 BYTE   W16
 BYTE   PEND 
// 005   ----------------------------------------
Label_0_011DE55A:
 BYTE   N07  Fs4  v127
 BYTE   W08
 BYTE   N04
 BYTE   W04
 BYTE   Fs4
 BYTE   W04
 BYTE   Fs4
 BYTE   W04
 BYTE   N03
 BYTE   W08
 BYTE   Gs4
 BYTE   W04
 BYTE   An4
 BYTE   W08
 BYTE   N42  Bn4
 BYTE   W48
 BYTE   N30  En4
 BYTE   W03
 BYTE   N01
 BYTE   W28
 BYTE   PEND 
// 006   ----------------------------------------
 BYTE   N07  Bn4  v127
 BYTE   W08
 BYTE   En4
 BYTE   W08
 BYTE   Bn4
 BYTE   W08
 BYTE   En4
 BYTE   W08
 BYTE   N16  Bn4
 BYTE   W16
 BYTE   N15  En4
 BYTE   W16
 BYTE   N24  An4
 BYTE   W24
 BYTE   N07
 BYTE   W08
// 007   ----------------------------------------
 BYTE   Gs4
 BYTE   W08
 BYTE   N08  An4
 BYTE   W08
 BYTE   N42  Bn4
 BYTE   W96
// 008   ----------------------------------------
 BYTE   W96
// 009   ----------------------------------------
 BYTE   W96
// 010   ----------------------------------------
 BYTE   W96
// 011   ----------------------------------------
 BYTE   W96
// 012   ----------------------------------------
 BYTE   W96
// 013   ----------------------------------------
 BYTE   W96
// 014   ----------------------------------------
 BYTE   W96
// 015   ----------------------------------------
 BYTE   W48
 BYTE   N24  Gs4
 BYTE   W24
 BYTE   N08
 BYTE   W08
 BYTE   Fs4
 BYTE   W08
 BYTE   En4
 BYTE   W08
// 016   ----------------------------------------
 BYTE   N24  An4
 BYTE   W24
 BYTE   N08
 BYTE   W08
 BYTE   Gs4
 BYTE   W08
 BYTE   Fs4
 BYTE   W08
 BYTE   PATT
  POIN2 Label_0_011DE50B
 BYTE   PATT
  POIN2 Label_0_011DE519
 BYTE   PATT
  POIN2 Label_0_011DE529
 BYTE   PATT
  POIN2 Label_0_011DE53A
 BYTE   PATT
  POIN2 Label_0_011DE55A
// 017   ----------------------------------------
 BYTE   N07  Bn4  v127
 BYTE   W08
 BYTE   En4
 BYTE   W08
 BYTE   Bn4
 BYTE   W08
 BYTE   En4
 BYTE   W08
 BYTE   N08  Bn4
 BYTE   W08
 BYTE   Bn4
 BYTE   W08
 BYTE   N15  En4
 BYTE   W16
 BYTE   N24  An4
 BYTE   W24
 BYTE   N07
 BYTE   W08
// 018   ----------------------------------------
 BYTE   Gs4
 BYTE   W08
 BYTE   N08  An4
 BYTE   W08
 BYTE   N42  Bn4
 BYTE   W96
// 019   ----------------------------------------
 BYTE   W96
// 020   ----------------------------------------
 BYTE   W96
// 021   ----------------------------------------
 BYTE   W96
// 022   ----------------------------------------
 BYTE   W48
 BYTE   TEMPO   80*MarioGolfRingMatchPandan_tbs/2
 BYTE   TEMPO   80*MarioGolfRingMatchPandan_tbs/2
 BYTE   N24  Gs4  v127
 BYTE   W24
 BYTE   N08
 BYTE   W08
 BYTE   Fs4
 BYTE   W08
 BYTE   En4
 BYTE   W08
// 023   ----------------------------------------
 BYTE   N24  An4
 BYTE   W24
 BYTE   N08
 BYTE   W08
 BYTE   Gs4
 BYTE   W08
 BYTE   Fs4
 BYTE   W08
 BYTE   PATT
  POIN2 Label_0_011DE50B
 BYTE   PATT
  POIN2 Label_0_011DE519
// 024   ----------------------------------------
 BYTE   N24  An4  v127
 BYTE   W24
 BYTE   N08
 BYTE   W08
 BYTE   Gs4
 BYTE   W08
 BYTE   En4
 BYTE   W08
 BYTE   N24  Fs4
 BYTE   W24
 BYTE   N20  Bn4
 BYTE   W24
// 025   ----------------------------------------
 BYTE   VOL   52*MarioGolfRingMatchPandan_mvl/mxv
 BYTE   W02
 BYTE   VOL   50*MarioGolfRingMatchPandan_mvl/mxv
 BYTE   W02
 BYTE   VOL   49*MarioGolfRingMatchPandan_mvl/mxv
 BYTE   W02
 BYTE   VOL   47*MarioGolfRingMatchPandan_mvl/mxv
 BYTE   W01
 BYTE   N07  Gs4  v127
 BYTE   W01
 BYTE   VOL   45*MarioGolfRingMatchPandan_mvl/mxv
 BYTE   W02
 BYTE   VOL   44*MarioGolfRingMatchPandan_mvl/mxv
 BYTE   W02
 BYTE   VOL   42*MarioGolfRingMatchPandan_mvl/mxv
 BYTE   W02
 BYTE   VOL   41*MarioGolfRingMatchPandan_mvl/mxv
 BYTE   N04  Gs4  v127
 BYTE   W02
 BYTE   VOL   39*MarioGolfRingMatchPandan_mvl/mxv
 BYTE   W01
 BYTE   N04  Gs4  v127
 BYTE   VOL   37*MarioGolfRingMatchPandan_mvl/mxv
 BYTE   W02
 BYTE   VOL   36*MarioGolfRingMatchPandan_mvl/mxv
 BYTE   W01
 BYTE   N04  Gs4  v127
 BYTE   W01
 BYTE   VOL   34*MarioGolfRingMatchPandan_mvl/mxv
 BYTE   W02
 BYTE   VOL   33*MarioGolfRingMatchPandan_mvl/mxv
 BYTE   N03  Gs4  v127
 BYTE   W01
 BYTE   VOL   31*MarioGolfRingMatchPandan_mvl/mxv
 BYTE   W02
 BYTE   VOL   30*MarioGolfRingMatchPandan_mvl/mxv
 BYTE   W02
 BYTE   VOL   28*MarioGolfRingMatchPandan_mvl/mxv
 BYTE   W01
 BYTE   N03  An4  v127
 BYTE   VOL   26*MarioGolfRingMatchPandan_mvl/mxv
 BYTE   W02
 BYTE   VOL   25*MarioGolfRingMatchPandan_mvl/mxv
 BYTE   W01
 BYTE   N03  Bn4  v127
 BYTE   W01
 BYTE   VOL   25*MarioGolfRingMatchPandan_mvl/mxv
 BYTE   W02
 BYTE   VOL   25*MarioGolfRingMatchPandan_mvl/mxv
 BYTE   W02
 BYTE   VOL   25*MarioGolfRingMatchPandan_mvl/mxv
 BYTE   W02
 BYTE   VOL   25*MarioGolfRingMatchPandan_mvl/mxv
 BYTE   W02
 BYTE   VOL   25*MarioGolfRingMatchPandan_mvl/mxv
 BYTE   W02
 BYTE   VOL   25*MarioGolfRingMatchPandan_mvl/mxv
 BYTE   W02
 BYTE   VOL   25*MarioGolfRingMatchPandan_mvl/mxv
 BYTE   W01
 BYTE   N07  En4  v127
 BYTE   W01
 BYTE   VOL   25*MarioGolfRingMatchPandan_mvl/mxv
 BYTE   W02
 BYTE   VOL   25*MarioGolfRingMatchPandan_mvl/mxv
 BYTE   W02
 BYTE   VOL   25*MarioGolfRingMatchPandan_mvl/mxv
 BYTE   W02
 BYTE   VOL   25*MarioGolfRingMatchPandan_mvl/mxv
 BYTE   N04  En4  v127
 BYTE   W02
 BYTE   VOL   25*MarioGolfRingMatchPandan_mvl/mxv
 BYTE   W01
 BYTE   N04  En4  v127
 BYTE   VOL   25*MarioGolfRingMatchPandan_mvl/mxv
 BYTE   W02
 BYTE   VOL   25*MarioGolfRingMatchPandan_mvl/mxv
 BYTE   W01
 BYTE   N04  En4  v127
 BYTE   W01
 BYTE   VOL   25*MarioGolfRingMatchPandan_mvl/mxv
 BYTE   W02
 BYTE   VOL   25*MarioGolfRingMatchPandan_mvl/mxv
 BYTE   N03  En4  v127
 BYTE   W01
 BYTE   VOL   25*MarioGolfRingMatchPandan_mvl/mxv
 BYTE   W02
 BYTE   VOL   25*MarioGolfRingMatchPandan_mvl/mxv
 BYTE   W02
 BYTE   VOL   25*MarioGolfRingMatchPandan_mvl/mxv
 BYTE   W01
 BYTE   N03  Fs4  v127
 BYTE   VOL   25*MarioGolfRingMatchPandan_mvl/mxv
 BYTE   W02
 BYTE   VOL   25*MarioGolfRingMatchPandan_mvl/mxv
 BYTE   W01
 BYTE   N03  Gs4  v127
 BYTE   W01
 BYTE   VOL   25*MarioGolfRingMatchPandan_mvl/mxv
 BYTE   W02
 BYTE   VOL   25*MarioGolfRingMatchPandan_mvl/mxv
 BYTE   W02
 BYTE   VOL   25*MarioGolfRingMatchPandan_mvl/mxv
 BYTE   W02
 BYTE   VOL   25*MarioGolfRingMatchPandan_mvl/mxv
 BYTE   W02
 BYTE   VOL   25*MarioGolfRingMatchPandan_mvl/mxv
 BYTE   W02
 BYTE   VOL   25*MarioGolfRingMatchPandan_mvl/mxv
 BYTE   W02
 BYTE   VOL   25*MarioGolfRingMatchPandan_mvl/mxv
 BYTE   W01
 BYTE   N07  Fs4  v127
 BYTE   VOL   25*MarioGolfRingMatchPandan_mvl/mxv
 BYTE   W02
 BYTE   VOL   25*MarioGolfRingMatchPandan_mvl/mxv
 BYTE   W02
 BYTE   VOL   25*MarioGolfRingMatchPandan_mvl/mxv
 BYTE   W02
 BYTE   VOL   25*MarioGolfRingMatchPandan_mvl/mxv
 BYTE   N04  Fs4  v127
 BYTE   W01
 BYTE   VOL   25*MarioGolfRingMatchPandan_mvl/mxv
 BYTE   W02
 BYTE   VOL   25*MarioGolfRingMatchPandan_mvl/mxv
 BYTE   N04  Fs4  v127
 BYTE   W01
 BYTE   VOL   25*MarioGolfRingMatchPandan_mvl/mxv
 BYTE   W02
// 026   ----------------------------------------
 BYTE   VOL   25*MarioGolfRingMatchPandan_mvl/mxv
 BYTE   N04  Fs4  v127
 BYTE   W02
 BYTE   VOL   25*MarioGolfRingMatchPandan_mvl/mxv
 BYTE   W01
 BYTE   N03  Fs4  v127
 BYTE   VOL   25*MarioGolfRingMatchPandan_mvl/mxv
 BYTE   W02
 BYTE   VOL   25*MarioGolfRingMatchPandan_mvl/mxv
 BYTE   W02
 BYTE   VOL   25*MarioGolfRingMatchPandan_mvl/mxv
 BYTE   W02
 BYTE   VOL   25*MarioGolfRingMatchPandan_mvl/mxv
 BYTE   W01
 BYTE   N03  Gs4  v127
 BYTE   W01
 BYTE   VOL   25*MarioGolfRingMatchPandan_mvl/mxv
 BYTE   W02
 BYTE   VOL   25*MarioGolfRingMatchPandan_mvl/mxv
 BYTE   N03  An4  v127
 BYTE   W01
 BYTE   VOL   25*MarioGolfRingMatchPandan_mvl/mxv
 BYTE   W02
 BYTE   VOL   25*MarioGolfRingMatchPandan_mvl/mxv
 BYTE   W02
 BYTE   VOL   25*MarioGolfRingMatchPandan_mvl/mxv
 BYTE   W02
 BYTE   VOL   25*MarioGolfRingMatchPandan_mvl/mxv
 BYTE   N42  Bn4  v127
 BYTE   W02
 BYTE   VOL   25*MarioGolfRingMatchPandan_mvl/mxv
 BYTE   W02
 BYTE   VOL   25*MarioGolfRingMatchPandan_mvl/mxv
 BYTE   W02
 BYTE   VOL   25*MarioGolfRingMatchPandan_mvl/mxv
 BYTE   W02
 BYTE   VOL   25*MarioGolfRingMatchPandan_mvl/mxv
 BYTE   W02
 BYTE   VOL   25*MarioGolfRingMatchPandan_mvl/mxv
 BYTE   W02
 BYTE   VOL   25*MarioGolfRingMatchPandan_mvl/mxv
 BYTE   W02
 BYTE   VOL   25*MarioGolfRingMatchPandan_mvl/mxv
 BYTE   W02
 BYTE   VOL   25*MarioGolfRingMatchPandan_mvl/mxv
 BYTE   W02
 BYTE   VOL   25*MarioGolfRingMatchPandan_mvl/mxv
 BYTE   W02
 BYTE   VOL   25*MarioGolfRingMatchPandan_mvl/mxv
 BYTE   W02
 BYTE   VOL   25*MarioGolfRingMatchPandan_mvl/mxv
 BYTE   W02
 BYTE   VOL   25*MarioGolfRingMatchPandan_mvl/mxv
 BYTE   W02
 BYTE   VOL   25*MarioGolfRingMatchPandan_mvl/mxv
 BYTE   W02
 BYTE   VOL   25*MarioGolfRingMatchPandan_mvl/mxv
 BYTE   W02
 BYTE   VOL   25*MarioGolfRingMatchPandan_mvl/mxv
 BYTE   W02
 BYTE   VOL   25*MarioGolfRingMatchPandan_mvl/mxv
 BYTE   W02
 BYTE   VOL   25*MarioGolfRingMatchPandan_mvl/mxv
 BYTE   W02
 BYTE   VOL   25*MarioGolfRingMatchPandan_mvl/mxv
 BYTE   W02
 BYTE   VOL   25*MarioGolfRingMatchPandan_mvl/mxv
 BYTE   W02
 BYTE   VOL   25*MarioGolfRingMatchPandan_mvl/mxv
 BYTE   W02
 BYTE   VOL   25*MarioGolfRingMatchPandan_mvl/mxv
 BYTE   W02
 BYTE   VOL   25*MarioGolfRingMatchPandan_mvl/mxv
 BYTE   N30  En4  v127
 BYTE   W02
 BYTE   VOL   25*MarioGolfRingMatchPandan_mvl/mxv
 BYTE   W01
 BYTE   N01  En4  v127
 BYTE   VOL   25*MarioGolfRingMatchPandan_mvl/mxv
 BYTE   W02
 BYTE   VOL   25*MarioGolfRingMatchPandan_mvl/mxv
 BYTE   W02
 BYTE   VOL   25*MarioGolfRingMatchPandan_mvl/mxv
 BYTE   W02
 BYTE   VOL   25*MarioGolfRingMatchPandan_mvl/mxv
 BYTE   W02
 BYTE   VOL   25*MarioGolfRingMatchPandan_mvl/mxv
 BYTE   W02
 BYTE   VOL   25*MarioGolfRingMatchPandan_mvl/mxv
 BYTE   W02
 BYTE   VOL   25*MarioGolfRingMatchPandan_mvl/mxv
 BYTE   W02
 BYTE   VOL   25*MarioGolfRingMatchPandan_mvl/mxv
 BYTE   W02
 BYTE   VOL   25*MarioGolfRingMatchPandan_mvl/mxv
 BYTE   W02
 BYTE   VOL   25*MarioGolfRingMatchPandan_mvl/mxv
 BYTE   W02
 BYTE   VOL   25*MarioGolfRingMatchPandan_mvl/mxv
 BYTE   W02
 BYTE   VOL   25*MarioGolfRingMatchPandan_mvl/mxv
 BYTE   W01
 BYTE   N07  Bn4  v127
 BYTE   VOL   25*MarioGolfRingMatchPandan_mvl/mxv
 BYTE   W02
 BYTE   VOL   25*MarioGolfRingMatchPandan_mvl/mxv
 BYTE   W02
 BYTE   VOL   25*MarioGolfRingMatchPandan_mvl/mxv
 BYTE   W02
// 027   ----------------------------------------
 BYTE   VOL   25*MarioGolfRingMatchPandan_mvl/mxv
 BYTE   N07  En4  v127
 BYTE   W02
 BYTE   VOL   25*MarioGolfRingMatchPandan_mvl/mxv
 BYTE   W02
 BYTE   VOL   25*MarioGolfRingMatchPandan_mvl/mxv
 BYTE   W02
 BYTE   VOL   25*MarioGolfRingMatchPandan_mvl/mxv
 BYTE   W01
 BYTE   N07  Bn4  v127
 BYTE   W01
 BYTE   VOL   25*MarioGolfRingMatchPandan_mvl/mxv
 BYTE   W02
 BYTE   VOL   25*MarioGolfRingMatchPandan_mvl/mxv
 BYTE   W02
 BYTE   VOL   25*MarioGolfRingMatchPandan_mvl/mxv
 BYTE   W02
 BYTE   N07  En4  v127
 BYTE   VOL   25*MarioGolfRingMatchPandan_mvl/mxv
 BYTE   W02
 BYTE   VOL   25*MarioGolfRingMatchPandan_mvl/mxv
 BYTE   W02
 BYTE   VOL   25*MarioGolfRingMatchPandan_mvl/mxv
 BYTE   W02
 BYTE   VOL   25*MarioGolfRingMatchPandan_mvl/mxv
 BYTE   N16  Bn4  v127
 BYTE   W01
 BYTE   VOL   25*MarioGolfRingMatchPandan_mvl/mxv
 BYTE   W02
 BYTE   VOL   25*MarioGolfRingMatchPandan_mvl/mxv
 BYTE   W02
 BYTE   VOL   25*MarioGolfRingMatchPandan_mvl/mxv
 BYTE   W02
 BYTE   VOL   25*MarioGolfRingMatchPandan_mvl/mxv
 BYTE   W02
 BYTE   VOL   25*MarioGolfRingMatchPandan_mvl/mxv
 BYTE   W02
 BYTE   VOL   25*MarioGolfRingMatchPandan_mvl/mxv
 BYTE   W02
 BYTE   VOL   25*MarioGolfRingMatchPandan_mvl/mxv
 BYTE   N15  En4  v127
 BYTE   W01
 BYTE   VOL   25*MarioGolfRingMatchPandan_mvl/mxv
 BYTE   W02
 BYTE   VOL   25*MarioGolfRingMatchPandan_mvl/mxv
 BYTE   W02
 BYTE   VOL   25*MarioGolfRingMatchPandan_mvl/mxv
 BYTE   W02
 BYTE   VOL   25*MarioGolfRingMatchPandan_mvl/mxv
 BYTE   W02
 BYTE   VOL   25*MarioGolfRingMatchPandan_mvl/mxv
 BYTE   W02
 BYTE   VOL   25*MarioGolfRingMatchPandan_mvl/mxv
 BYTE   W02
 BYTE   VOL   25*MarioGolfRingMatchPandan_mvl/mxv
 BYTE   N24  An4  v127
 BYTE   W24
 BYTE   N07
 BYTE   W08
 BYTE   Gs4
 BYTE   W08
 BYTE   N08  An4
 BYTE   W08
 BYTE   N42  Bn4
 BYTE   W48
// 028   ----------------------------------------
 BYTE   GoTo
  POIN2 Label_0_011DE4EC
 BYTE   FINE

//**************** Track 2 (Midi-Chn.1) ****************//

MarioGolfRingMatchPandan_002:
// 000   ----------------------------------------
Label_1_011DE80C:
 BYTE   TEMPO   80*MarioGolfRingMatchPandan_tbs/2
 BYTE   TEMPO   80*MarioGolfRingMatchPandan_tbs/2
 BYTE   KEYSH   MarioGolfRingMatchPandan_key+0
 BYTE   VOICE   4
 BYTE   VOL   32*MarioGolfRingMatchPandan_mvl/mxv
 BYTE   PAN   c_v+0
 BYTE   N24  Bn3  v127
 BYTE   N24  Bn2
 BYTE   W24
 BYTE   En4
 BYTE   N24  En3
 BYTE   W24
 BYTE   Cs4
 BYTE   N24  Cs3
 BYTE   W24
 BYTE   En4
 BYTE   N24  En3
 BYTE   W24
// 001   ----------------------------------------
 BYTE   Ds4
 BYTE   N24  Ds3
 BYTE   W24
 BYTE   Bn3
 BYTE   N24  Bn2
 BYTE   W24
 BYTE   En4
 BYTE   N24  En3
 BYTE   W24
 BYTE   Bn3
 BYTE   N24  Bn2
 BYTE   W24
// 002   ----------------------------------------
 BYTE   En4
 BYTE   N24  En3
 BYTE   W24
 BYTE   An3
 BYTE   N24  An2
 BYTE   W24
 BYTE   En4
 BYTE   N24  En3
 BYTE   W24
 BYTE   Bn3
 BYTE   N24  Bn2
 BYTE   W24
// 003   ----------------------------------------
 BYTE   En4
 BYTE   N24  En3
 BYTE   W24
 BYTE   Cs4
 BYTE   N24  Cs3
 BYTE   W24
 BYTE   Bn3
 BYTE   N24  Bn2
 BYTE   W48
// 004   ----------------------------------------
 BYTE   VOICE   4
 BYTE   N24  Bn3  v127
 BYTE   W24
 BYTE   En4
 BYTE   W24
 BYTE   Cs4
 BYTE   W24
 BYTE   En4
 BYTE   W24
// 005   ----------------------------------------
 BYTE   Ds4
 BYTE   W24
 BYTE   Bn3
 BYTE   W24
 BYTE   En4
 BYTE   W24
 BYTE   N20  Bn3
 BYTE   W24
// 006   ----------------------------------------
 BYTE   En4
 BYTE   W24
 BYTE   An3
 BYTE   W24
 BYTE   En4
 BYTE   W24
 BYTE   Bn3
 BYTE   W24
// 007   ----------------------------------------
 BYTE   En4
 BYTE   W24
 BYTE   Cs4
 BYTE   W24
 BYTE   Bn3
 BYTE   W24
 BYTE   Ds4
 BYTE   W24
// 008   ----------------------------------------
 BYTE   N24  En4
 BYTE   W24
 BYTE   N08  Ds4
 BYTE   W08
 BYTE   En4
 BYTE   W08
 BYTE   Fs4
 BYTE   W08
 BYTE   N24  Gs4
 BYTE   W24
 BYTE   Bn3
 BYTE   W24
// 009   ----------------------------------------
 BYTE   N20  Dn4
 BYTE   W24
 BYTE   N24  An3
 BYTE   W24
 BYTE   En4
 BYTE   W24
 BYTE   Bn3
 BYTE   W24
// 010   ----------------------------------------
 BYTE   Cn4
 BYTE   W24
 BYTE   N08
 BYTE   W08
 BYTE   Dn4
 BYTE   W08
 BYTE   En4
 BYTE   W08
 BYTE   N24  Fs4
 BYTE   W24
 BYTE   Bn3
 BYTE   W24
// 011   ----------------------------------------
 BYTE   Gn4
 BYTE   W24
 BYTE   Cn4
 BYTE   W24
 BYTE   N03  Bn4
 BYTE   W04
 BYTE   Gn4
 BYTE   W04
 BYTE   En4
 BYTE   W04
 BYTE   Cn4
 BYTE   W04
 BYTE   Bn3
 BYTE   W04
 BYTE   Gn3
 BYTE   W04
 BYTE   En3
 BYTE   W04
 BYTE   Cn3
 BYTE   W04
 BYTE   En3
 BYTE   W04
 BYTE   Gn3
 BYTE   W04
 BYTE   Bn3
 BYTE   W04
 BYTE   Cn4
 BYTE   W04
// 012   ----------------------------------------
 BYTE   N08  Fn2
 BYTE   W08
 BYTE   N04  Gn2
 BYTE   W04
 BYTE   N08  An2
 BYTE   W08
 BYTE   N04  Bn2
 BYTE   W04
 BYTE   N08  Cn3
 BYTE   W08
 BYTE   Dn3
 BYTE   W08
 BYTE   En3
 BYTE   W08
 BYTE   N24  Dn3
 BYTE   W24
 BYTE   Gn3
 BYTE   W24
// 013   ----------------------------------------
 BYTE   N07  An3
 BYTE   W08
 BYTE   N03  Gn3
 BYTE   W04
 BYTE   N07  Fn3
 BYTE   W08
 BYTE   N03  En3
 BYTE   W04
 BYTE   N07  Dn3
 BYTE   W08
 BYTE   Cn3
 BYTE   W08
 BYTE   Dn3
 BYTE   W08
 BYTE   N20  En3
 BYTE   W24
 BYTE   En3
 BYTE   W24
// 014   ----------------------------------------
 BYTE   N04  Fn3
 BYTE   W04
 BYTE   N03  Cn3
 BYTE   W08
 BYTE   Cn3
 BYTE   W08
 BYTE   N04
 BYTE   W04
 BYTE   N08
 BYTE   W08
 BYTE   Bn2
 BYTE   W08
 BYTE   Cn3
 BYTE   W08
 BYTE   N24  Dn3
 BYTE   W24
 BYTE   Gn3
 BYTE   W24
// 015   ----------------------------------------
 BYTE   N20  Fn3
 BYTE   W24
 BYTE   N08
 BYTE   W08
 BYTE   En3
 BYTE   W08
 BYTE   Fn3
 BYTE   W08
 BYTE   Gn3
 BYTE   W08
 BYTE   Dn3
 BYTE   W08
 BYTE   Bn2
 BYTE   W08
 BYTE   Gn3
 BYTE   W08
 BYTE   Dn3
 BYTE   W08
 BYTE   Bn2
 BYTE   W08
// 016   ----------------------------------------
 BYTE   VOICE   4
 BYTE   N24  Bn3  v127
 BYTE   N24  Bn2
 BYTE   W24
 BYTE   En4
 BYTE   N24  En3
 BYTE   W24
 BYTE   Cs4
 BYTE   N24  Cs3
 BYTE   W24
 BYTE   En4
 BYTE   N24  En3
 BYTE   W24
// 017   ----------------------------------------
 BYTE   Ds4
 BYTE   N24  Ds3
 BYTE   W24
 BYTE   Bn3
 BYTE   N24  Bn2
 BYTE   W24
 BYTE   En4
 BYTE   N24  En3
 BYTE   W24
 BYTE   Bn3
 BYTE   N24  Bn2
 BYTE   W24
// 018   ----------------------------------------
 BYTE   En4
 BYTE   N24  En3
 BYTE   W24
 BYTE   An3
 BYTE   N24  An2
 BYTE   W24
 BYTE   En4
 BYTE   N24  En3
 BYTE   W24
 BYTE   Bn3
 BYTE   N24  Bn2
 BYTE   W24
// 019   ----------------------------------------
 BYTE   En4
 BYTE   N24  En3
 BYTE   W24
 BYTE   Cs4
 BYTE   N24  Cs3
 BYTE   W24
 BYTE   Bn3
 BYTE   N24  Bn2
 BYTE   W48
// 020   ----------------------------------------
 BYTE   VOICE   4
 BYTE   N24  Bn3  v127
 BYTE   W24
 BYTE   En4
 BYTE   W24
 BYTE   Cs4
 BYTE   W24
 BYTE   En4
 BYTE   W24
// 021   ----------------------------------------
 BYTE   Ds4
 BYTE   W24
 BYTE   Bn3
 BYTE   W24
 BYTE   En4
 BYTE   W24
 BYTE   N20  Bn3
 BYTE   W24
// 022   ----------------------------------------
 BYTE   En4
 BYTE   W24
 BYTE   An3
 BYTE   W24
 BYTE   En4
 BYTE   W24
 BYTE   Bn3
 BYTE   W24
// 023   ----------------------------------------
 BYTE   En4
 BYTE   W24
 BYTE   Cs4
 BYTE   W24
 BYTE   Bn3
 BYTE   W24
 BYTE   Ds4
 BYTE   W24
// 024   ----------------------------------------
 BYTE   VOICE   4
 BYTE   N11  Bn3  v127
 BYTE   N11  Bn2
 BYTE   W12
 BYTE   Cn4
 BYTE   N11  Cn3
 BYTE   W12
 BYTE   N07  Dn4
 BYTE   N07  Dn3
 BYTE   W08
 BYTE   Cn4
 BYTE   N07  Cn3
 BYTE   W08
 BYTE   Bn3
 BYTE   N07  Bn2
 BYTE   W08
 BYTE   N03  An3
 BYTE   N03  An2
 BYTE   W04
 BYTE   N05  Bn3
 BYTE   N05  Bn2
 BYTE   W08
 BYTE   N06  Gn3
 BYTE   N06  Gn2
 BYTE   W09
 BYTE   N24  Fn3
 BYTE   N24  Fn2
 BYTE   W03
 BYTE   N02  Fn3
 BYTE   N02  Fn2
 BYTE   W24
// 025   ----------------------------------------
 BYTE   N11  En4
 BYTE   N11  En3
 BYTE   W12
 BYTE   Dn4
 BYTE   N11  Dn3
 BYTE   W12
 BYTE   N07  Cn4
 BYTE   N07  Cn3
 BYTE   W08
 BYTE   Bn3
 BYTE   N07  Bn2
 BYTE   W08
 BYTE   An3
 BYTE   N07  An2
 BYTE   W08
 BYTE   N03  Gn3
 BYTE   N03  Gn2
 BYTE   W04
 BYTE   N05  An3
 BYTE   N05  An2
 BYTE   W08
 BYTE   N06  An3
 BYTE   N06  An2
 BYTE   W09
 BYTE   N24  Bn3
 BYTE   N24  Bn2
 BYTE   W03
 BYTE   N02  Bn3
 BYTE   N02  Bn2
 BYTE   W24
// 026   ----------------------------------------
 BYTE   N11  Bn3
 BYTE   N11  Bn2
 BYTE   W12
 BYTE   Cn4
 BYTE   N11  Cn3
 BYTE   W12
 BYTE   N07  Dn4
 BYTE   N07  Dn3
 BYTE   W08
 BYTE   Cn4
 BYTE   N07  Cn3
 BYTE   W08
 BYTE   Bn3
 BYTE   N07  Bn2
 BYTE   W08
 BYTE   N03  An3
 BYTE   N03  An2
 BYTE   W04
 BYTE   N05  Bn3
 BYTE   N05  Bn2
 BYTE   W08
 BYTE   N06  Gn3
 BYTE   N06  Gn2
 BYTE   W09
 BYTE   N24  Fn3
 BYTE   N24  Fn2
 BYTE   W03
 BYTE   N02  Fn3
 BYTE   N02  Fn2
 BYTE   W24
// 027   ----------------------------------------
 BYTE   N11  En4
 BYTE   N11  En3
 BYTE   W12
 BYTE   Dn4
 BYTE   N11  Dn3
 BYTE   W12
 BYTE   N07  Cn4
 BYTE   N07  Cn3
 BYTE   W08
 BYTE   Bn3
 BYTE   N07  Bn2
 BYTE   W08
 BYTE   An3
 BYTE   N07  An2
 BYTE   W08
 BYTE   N03  Gn3
 BYTE   N03  Gn2
 BYTE   W04
 BYTE   N05  An3
 BYTE   N05  An2
 BYTE   W08
 BYTE   N06  An3
 BYTE   N06  An2
 BYTE   W09
 BYTE   N24  Bn3
 BYTE   N24  Bn2
 BYTE   W03
 BYTE   N02  Bn3
 BYTE   N02  Bn2
 BYTE   W24
// 028   ----------------------------------------
 BYTE   TEMPO   80*MarioGolfRingMatchPandan_tbs/2
 BYTE   TEMPO   80*MarioGolfRingMatchPandan_tbs/2
 BYTE   N24  Bn3  v127
 BYTE   N24  Bn2
 BYTE   W24
 BYTE   En3
 BYTE   N24  En4
 BYTE   W24
 BYTE   Cs4
 BYTE   N24  Cs3
 BYTE   W24
 BYTE   En4
 BYTE   N24  En3
 BYTE   W24
// 029   ----------------------------------------
 BYTE   Ds4
 BYTE   N24  Ds3
 BYTE   W24
 BYTE   Bn3
 BYTE   N24  Bn2
 BYTE   W24
 BYTE   En4
 BYTE   N24  En3
 BYTE   W24
 BYTE   Bn3
 BYTE   N24  Bn2
 BYTE   W24
// 030   ----------------------------------------
 BYTE   En4
 BYTE   N24  En3
 BYTE   W24
 BYTE   An3
 BYTE   N24  An2
 BYTE   W24
 BYTE   En4
 BYTE   N24  En3
 BYTE   W24
 BYTE   Bn3
 BYTE   N24  Bn2
 BYTE   W24
// 031   ----------------------------------------
 BYTE   En4
 BYTE   N24  En3
 BYTE   W24
 BYTE   Cs4
 BYTE   N24  Cs3
 BYTE   W24
 BYTE   Bn3
 BYTE   N24  Bn2
 BYTE   W48
// 032   ----------------------------------------
 BYTE   VOL   32*MarioGolfRingMatchPandan_mvl/mxv
 BYTE   N24  Bn3  v127
 BYTE   W02
 BYTE   VOL   30*MarioGolfRingMatchPandan_mvl/mxv
 BYTE   W02
 BYTE   VOL   29*MarioGolfRingMatchPandan_mvl/mxv
 BYTE   W02
 BYTE   VOL   27*MarioGolfRingMatchPandan_mvl/mxv
 BYTE   W02
 BYTE   VOL   25*MarioGolfRingMatchPandan_mvl/mxv
 BYTE   W02
 BYTE   VOL   24*MarioGolfRingMatchPandan_mvl/mxv
 BYTE   W02
 BYTE   VOL   22*MarioGolfRingMatchPandan_mvl/mxv
 BYTE   W02
 BYTE   VOL   21*MarioGolfRingMatchPandan_mvl/mxv
 BYTE   W02
 BYTE   VOL   19*MarioGolfRingMatchPandan_mvl/mxv
 BYTE   W02
 BYTE   VOL   17*MarioGolfRingMatchPandan_mvl/mxv
 BYTE   W02
 BYTE   VOL   16*MarioGolfRingMatchPandan_mvl/mxv
 BYTE   W01
 BYTE   N24  En4  v127
 BYTE   W01
 BYTE   VOL   14*MarioGolfRingMatchPandan_mvl/mxv
 BYTE   W02
 BYTE   VOL   13*MarioGolfRingMatchPandan_mvl/mxv
 BYTE   W02
 BYTE   VOL   11*MarioGolfRingMatchPandan_mvl/mxv
 BYTE   W02
 BYTE   VOL   10*MarioGolfRingMatchPandan_mvl/mxv
 BYTE   W02
 BYTE   VOL   8*MarioGolfRingMatchPandan_mvl/mxv
 BYTE   W02
 BYTE   VOL   6*MarioGolfRingMatchPandan_mvl/mxv
 BYTE   W02
 BYTE   VOL   5*MarioGolfRingMatchPandan_mvl/mxv
 BYTE   W02
 BYTE   VOL   3*MarioGolfRingMatchPandan_mvl/mxv
 BYTE   W02
 BYTE   VOL   2*MarioGolfRingMatchPandan_mvl/mxv
 BYTE   W02
 BYTE   VOL   0*MarioGolfRingMatchPandan_mvl/mxv
 BYTE   W02
 BYTE   VOL   0*MarioGolfRingMatchPandan_mvl/mxv
 BYTE   N24  Cs4  v127
 BYTE   W02
 BYTE   VOL   0*MarioGolfRingMatchPandan_mvl/mxv
 BYTE   W02
 BYTE   VOL   0*MarioGolfRingMatchPandan_mvl/mxv
 BYTE   W02
 BYTE   VOL   0*MarioGolfRingMatchPandan_mvl/mxv
 BYTE   W02
 BYTE   VOL   0*MarioGolfRingMatchPandan_mvl/mxv
 BYTE   W02
 BYTE   VOL   0*MarioGolfRingMatchPandan_mvl/mxv
 BYTE   W02
 BYTE   VOL   0*MarioGolfRingMatchPandan_mvl/mxv
 BYTE   W02
 BYTE   VOL   0*MarioGolfRingMatchPandan_mvl/mxv
 BYTE   W02
 BYTE   VOL   0*MarioGolfRingMatchPandan_mvl/mxv
 BYTE   W02
 BYTE   VOL   0*MarioGolfRingMatchPandan_mvl/mxv
 BYTE   W02
 BYTE   VOL   0*MarioGolfRingMatchPandan_mvl/mxv
 BYTE   W01
 BYTE   N24  En4  v127
 BYTE   W01
 BYTE   VOL   0*MarioGolfRingMatchPandan_mvl/mxv
 BYTE   W02
 BYTE   VOL   0*MarioGolfRingMatchPandan_mvl/mxv
 BYTE   W02
 BYTE   VOL   0*MarioGolfRingMatchPandan_mvl/mxv
 BYTE   W02
 BYTE   VOL   0*MarioGolfRingMatchPandan_mvl/mxv
 BYTE   W02
 BYTE   VOL   0*MarioGolfRingMatchPandan_mvl/mxv
 BYTE   W02
 BYTE   VOL   0*MarioGolfRingMatchPandan_mvl/mxv
 BYTE   W02
 BYTE   VOL   0*MarioGolfRingMatchPandan_mvl/mxv
 BYTE   W02
 BYTE   VOL   0*MarioGolfRingMatchPandan_mvl/mxv
 BYTE   W02
 BYTE   VOL   0*MarioGolfRingMatchPandan_mvl/mxv
 BYTE   W02
 BYTE   VOL   0*MarioGolfRingMatchPandan_mvl/mxv
 BYTE   W02
 BYTE   VOL   0*MarioGolfRingMatchPandan_mvl/mxv
 BYTE   N24  Ds4  v127
 BYTE   W02
 BYTE   VOL   0*MarioGolfRingMatchPandan_mvl/mxv
 BYTE   W02
 BYTE   VOL   0*MarioGolfRingMatchPandan_mvl/mxv
 BYTE   W02
 BYTE   VOL   0*MarioGolfRingMatchPandan_mvl/mxv
 BYTE   W02
 BYTE   VOL   0*MarioGolfRingMatchPandan_mvl/mxv
 BYTE   W02
 BYTE   VOL   0*MarioGolfRingMatchPandan_mvl/mxv
 BYTE   W02
// 033   ----------------------------------------
 BYTE   VOL   0*MarioGolfRingMatchPandan_mvl/mxv
 BYTE   W02
 BYTE   VOL   0*MarioGolfRingMatchPandan_mvl/mxv
 BYTE   W02
 BYTE   VOL   0*MarioGolfRingMatchPandan_mvl/mxv
 BYTE   W02
 BYTE   VOL   0*MarioGolfRingMatchPandan_mvl/mxv
 BYTE   W02
 BYTE   VOL   0*MarioGolfRingMatchPandan_mvl/mxv
 BYTE   W02
 BYTE   VOL   0*MarioGolfRingMatchPandan_mvl/mxv
 BYTE   N24  Bn3  v127
 BYTE   W02
 BYTE   VOL   0*MarioGolfRingMatchPandan_mvl/mxv
 BYTE   W02
 BYTE   VOL   0*MarioGolfRingMatchPandan_mvl/mxv
 BYTE   W02
 BYTE   VOL   0*MarioGolfRingMatchPandan_mvl/mxv
 BYTE   W02
 BYTE   VOL   0*MarioGolfRingMatchPandan_mvl/mxv
 BYTE   W02
 BYTE   VOL   0*MarioGolfRingMatchPandan_mvl/mxv
 BYTE   W02
 BYTE   VOL   0*MarioGolfRingMatchPandan_mvl/mxv
 BYTE   W02
 BYTE   VOL   0*MarioGolfRingMatchPandan_mvl/mxv
 BYTE   W02
 BYTE   VOL   0*MarioGolfRingMatchPandan_mvl/mxv
 BYTE   W02
 BYTE   VOL   0*MarioGolfRingMatchPandan_mvl/mxv
 BYTE   W02
 BYTE   VOL   0*MarioGolfRingMatchPandan_mvl/mxv
 BYTE   W02
 BYTE   VOL   0*MarioGolfRingMatchPandan_mvl/mxv
 BYTE   N24  En4  v127
 BYTE   W02
 BYTE   VOL   0*MarioGolfRingMatchPandan_mvl/mxv
 BYTE   W02
 BYTE   VOL   0*MarioGolfRingMatchPandan_mvl/mxv
 BYTE   W02
 BYTE   VOL   0*MarioGolfRingMatchPandan_mvl/mxv
 BYTE   W02
 BYTE   VOL   0*MarioGolfRingMatchPandan_mvl/mxv
 BYTE   W02
 BYTE   VOL   0*MarioGolfRingMatchPandan_mvl/mxv
 BYTE   W02
 BYTE   VOL   0*MarioGolfRingMatchPandan_mvl/mxv
 BYTE   W02
 BYTE   VOL   0*MarioGolfRingMatchPandan_mvl/mxv
 BYTE   W02
 BYTE   VOL   0*MarioGolfRingMatchPandan_mvl/mxv
 BYTE   W02
 BYTE   VOL   0*MarioGolfRingMatchPandan_mvl/mxv
 BYTE   W02
 BYTE   VOL   0*MarioGolfRingMatchPandan_mvl/mxv
 BYTE   W02
 BYTE   VOL   0*MarioGolfRingMatchPandan_mvl/mxv
 BYTE   N20  Bn3  v127
 BYTE   W02
 BYTE   VOL   0*MarioGolfRingMatchPandan_mvl/mxv
 BYTE   W02
 BYTE   VOL   0*MarioGolfRingMatchPandan_mvl/mxv
 BYTE   W02
 BYTE   VOL   0*MarioGolfRingMatchPandan_mvl/mxv
 BYTE   W02
 BYTE   VOL   0*MarioGolfRingMatchPandan_mvl/mxv
 BYTE   W02
 BYTE   VOL   0*MarioGolfRingMatchPandan_mvl/mxv
 BYTE   W02
 BYTE   VOL   0*MarioGolfRingMatchPandan_mvl/mxv
 BYTE   W02
 BYTE   VOL   0*MarioGolfRingMatchPandan_mvl/mxv
 BYTE   W02
 BYTE   VOL   0*MarioGolfRingMatchPandan_mvl/mxv
 BYTE   W02
 BYTE   VOL   0*MarioGolfRingMatchPandan_mvl/mxv
 BYTE   W02
 BYTE   VOL   0*MarioGolfRingMatchPandan_mvl/mxv
 BYTE   W02
 BYTE   VOL   0*MarioGolfRingMatchPandan_mvl/mxv
 BYTE   N20  En4  v127
 BYTE   W02
 BYTE   VOL   0*MarioGolfRingMatchPandan_mvl/mxv
 BYTE   W02
 BYTE   VOL   0*MarioGolfRingMatchPandan_mvl/mxv
 BYTE   W02
 BYTE   VOL   0*MarioGolfRingMatchPandan_mvl/mxv
 BYTE   W02
 BYTE   VOL   0*MarioGolfRingMatchPandan_mvl/mxv
 BYTE   W02
 BYTE   VOL   0*MarioGolfRingMatchPandan_mvl/mxv
 BYTE   W02
 BYTE   VOL   0*MarioGolfRingMatchPandan_mvl/mxv
 BYTE   W02
 BYTE   VOL   0*MarioGolfRingMatchPandan_mvl/mxv
 BYTE   W02
 BYTE   VOL   0*MarioGolfRingMatchPandan_mvl/mxv
 BYTE   W02
 BYTE   VOL   0*MarioGolfRingMatchPandan_mvl/mxv
 BYTE   W02
// 034   ----------------------------------------
 BYTE   VOL   0*MarioGolfRingMatchPandan_mvl/mxv
 BYTE   N20  An3  v127
 BYTE   W01
 BYTE   VOL   0*MarioGolfRingMatchPandan_mvl/mxv
 BYTE   W02
 BYTE   VOL   0*MarioGolfRingMatchPandan_mvl/mxv
 BYTE   W02
 BYTE   VOL   0*MarioGolfRingMatchPandan_mvl/mxv
 BYTE   W02
 BYTE   VOL   0*MarioGolfRingMatchPandan_mvl/mxv
 BYTE   W02
 BYTE   VOL   0*MarioGolfRingMatchPandan_mvl/mxv
 BYTE   W02
 BYTE   VOL   0*MarioGolfRingMatchPandan_mvl/mxv
 BYTE   W02
 BYTE   VOL   0*MarioGolfRingMatchPandan_mvl/mxv
 BYTE   W02
 BYTE   VOL   0*MarioGolfRingMatchPandan_mvl/mxv
 BYTE   W02
 BYTE   VOL   0*MarioGolfRingMatchPandan_mvl/mxv
 BYTE   W02
 BYTE   VOL   0*MarioGolfRingMatchPandan_mvl/mxv
 BYTE   W01
 BYTE   N20  En4  v127
 BYTE   W01
 BYTE   VOL   0*MarioGolfRingMatchPandan_mvl/mxv
 BYTE   W02
 BYTE   VOL   0*MarioGolfRingMatchPandan_mvl/mxv
 BYTE   W02
 BYTE   VOL   0*MarioGolfRingMatchPandan_mvl/mxv
 BYTE   W02
 BYTE   VOL   0*MarioGolfRingMatchPandan_mvl/mxv
 BYTE   W02
 BYTE   VOL   0*MarioGolfRingMatchPandan_mvl/mxv
 BYTE   W02
 BYTE   VOL   0*MarioGolfRingMatchPandan_mvl/mxv
 BYTE   W02
 BYTE   VOL   0*MarioGolfRingMatchPandan_mvl/mxv
 BYTE   W02
 BYTE   VOL   0*MarioGolfRingMatchPandan_mvl/mxv
 BYTE   W02
 BYTE   VOL   0*MarioGolfRingMatchPandan_mvl/mxv
 BYTE   W02
 BYTE   VOL   0*MarioGolfRingMatchPandan_mvl/mxv
 BYTE   W01
 BYTE   N20  Bn3  v127
 BYTE   VOL   0*MarioGolfRingMatchPandan_mvl/mxv
 BYTE   W02
 BYTE   VOL   0*MarioGolfRingMatchPandan_mvl/mxv
 BYTE   W02
 BYTE   VOL   0*MarioGolfRingMatchPandan_mvl/mxv
 BYTE   W02
 BYTE   VOL   0*MarioGolfRingMatchPandan_mvl/mxv
 BYTE   W02
 BYTE   VOL   0*MarioGolfRingMatchPandan_mvl/mxv
 BYTE   W02
 BYTE   VOL   0*MarioGolfRingMatchPandan_mvl/mxv
 BYTE   W02
 BYTE   VOL   0*MarioGolfRingMatchPandan_mvl/mxv
 BYTE   W02
 BYTE   VOL   0*MarioGolfRingMatchPandan_mvl/mxv
 BYTE   W02
 BYTE   VOL   0*MarioGolfRingMatchPandan_mvl/mxv
 BYTE   W02
 BYTE   VOL   0*MarioGolfRingMatchPandan_mvl/mxv
 BYTE   W02
 BYTE   VOL   0*MarioGolfRingMatchPandan_mvl/mxv
 BYTE   N20  En4  v127
 BYTE   W24
 BYTE   Cs4
 BYTE   W24
// 035   ----------------------------------------
 BYTE   Bn3
 BYTE   W24
 BYTE   Ds4
 BYTE   W24
 BYTE   GoTo
  POIN2 Label_1_011DE80C
 BYTE   FINE

//**************** Track 3 (Midi-Chn.2) ****************//

MarioGolfRingMatchPandan_003:
// 000   ----------------------------------------
Label_2_011DEC34:
 BYTE   TEMPO   80*MarioGolfRingMatchPandan_tbs/2
 BYTE   TEMPO   80*MarioGolfRingMatchPandan_tbs/2
 BYTE   KEYSH   MarioGolfRingMatchPandan_key+0
 BYTE   VOICE   14
 BYTE   VOICE   14
 BYTE   VOL   27*MarioGolfRingMatchPandan_mvl/mxv
 BYTE   VOL   27*MarioGolfRingMatchPandan_mvl/mxv
 BYTE   PAN   c_v+0
 BYTE   PAN   c_v+0
 BYTE   N08  Bn2  v127
 BYTE   W08
 BYTE   Gs3
 BYTE   W08
 BYTE   En3
 BYTE   W08
 BYTE   N04  Bn2
 BYTE   W04
 BYTE   N12  Gs3
 BYTE   W12
 BYTE   N08  Bn2  v092
 BYTE   N08  En3  v127
 BYTE   W08
 BYTE   Cs3
 BYTE   W08
 BYTE   An3
 BYTE   W08
 BYTE   En3
 BYTE   W08
 BYTE   N04  Cs3
 BYTE   W04
 BYTE   N12  An3
 BYTE   W12
 BYTE   N08  Cs3  v092
 BYTE   N08  En3  v127
 BYTE   W08
// 001   ----------------------------------------
Label_2_011DEC6E:
 BYTE   N08  Bn2  v127
 BYTE   W08
 BYTE   Fs3
 BYTE   W08
 BYTE   Ds3
 BYTE   W08
 BYTE   N04  Bn2
 BYTE   W04
 BYTE   N12  Fs3
 BYTE   W12
 BYTE   N08  Bn2  v092
 BYTE   N08  Ds3  v127
 BYTE   W08
 BYTE   Bn2
 BYTE   W08
 BYTE   Gs3
 BYTE   W08
 BYTE   En3
 BYTE   W08
 BYTE   N04  Bn2
 BYTE   W04
 BYTE   N12  Gs3
 BYTE   W12
 BYTE   N08  Bn2  v092
 BYTE   N08  En3  v127
 BYTE   W08
 BYTE   PEND 
// 002   ----------------------------------------
Label_2_011DEC97:
 BYTE   N08  An2  v127
 BYTE   W08
 BYTE   En3
 BYTE   W08
 BYTE   Cs3
 BYTE   W08
 BYTE   N04  An2
 BYTE   W04
 BYTE   N12  En3
 BYTE   W12
 BYTE   N08  An2  v092
 BYTE   N08  Cs3  v127
 BYTE   W08
 BYTE   Gs2
 BYTE   W08
 BYTE   En3
 BYTE   W08
 BYTE   Bn2
 BYTE   W08
 BYTE   N04  Gs2
 BYTE   W04
 BYTE   N12  En3
 BYTE   W12
 BYTE   N08  Gs2  v092
 BYTE   N08  Bn2  v127
 BYTE   W08
 BYTE   PEND 
// 003   ----------------------------------------
Label_2_011DECC0:
 BYTE   N08  An2  v127
 BYTE   W08
 BYTE   En3
 BYTE   W08
 BYTE   Cs3
 BYTE   W08
 BYTE   N04  An2
 BYTE   W04
 BYTE   N12  En3
 BYTE   W12
 BYTE   N08  An2  v092
 BYTE   N08  Cs3  v127
 BYTE   W08
 BYTE   Bn2
 BYTE   W08
 BYTE   Fs3
 BYTE   W08
 BYTE   Ds3
 BYTE   W08
 BYTE   N04  Bn2
 BYTE   W04
 BYTE   N12  Fs3
 BYTE   W12
 BYTE   N08  Bn2  v092
 BYTE   N08  Ds3  v127
 BYTE   W08
 BYTE   PEND 
// 004   ----------------------------------------
Label_2_011DECE9:
 BYTE   N08  Bn2  v127
 BYTE   W08
 BYTE   Gs3
 BYTE   W08
 BYTE   En3
 BYTE   W08
 BYTE   N04  Bn2
 BYTE   W04
 BYTE   N12  Gs3
 BYTE   W12
 BYTE   N08  Bn2  v092
 BYTE   N08  En3  v127
 BYTE   W08
 BYTE   Cs3
 BYTE   W08
 BYTE   An3
 BYTE   W08
 BYTE   En3
 BYTE   W08
 BYTE   N04  Cs3
 BYTE   W04
 BYTE   N12  An3
 BYTE   W12
 BYTE   N08  Cs3  v092
 BYTE   N08  En3  v127
 BYTE   W08
 BYTE   PEND 
 BYTE   PATT
  POIN2 Label_2_011DEC6E
// 005   ----------------------------------------
 BYTE   N08  An2  v127
 BYTE   W08
 BYTE   En3
 BYTE   W08
 BYTE   Cs3
 BYTE   W08
 BYTE   N04  An2
 BYTE   W04
 BYTE   N12  En3
 BYTE   W12
 BYTE   N08  An2  v092
 BYTE   N08  Cs3  v127
 BYTE   W08
 BYTE   Gs2
 BYTE   W08
 BYTE   En3
 BYTE   W08
 BYTE   Bn2
 BYTE   W08
 BYTE   N04  Gs2
 BYTE   W04
 BYTE   N12  En3
 BYTE   W12
 BYTE   N08  Bn2
 BYTE   N08  Gs2  v092
 BYTE   W08
 BYTE   PATT
  POIN2 Label_2_011DECC0
// 006   ----------------------------------------
 BYTE   N08  An2  v127
 BYTE   W08
 BYTE   En3
 BYTE   W08
 BYTE   Cs3
 BYTE   W08
 BYTE   N04  An2
 BYTE   W04
 BYTE   N12  En3
 BYTE   W12
 BYTE   N08  Cs3
 BYTE   W08
 BYTE   Gs2
 BYTE   W08
 BYTE   En3
 BYTE   W08
 BYTE   Bn2
 BYTE   W08
 BYTE   N04  Gs2
 BYTE   W04
 BYTE   N12  En3
 BYTE   W12
 BYTE   N08  Bn2
 BYTE   W08
// 007   ----------------------------------------
 BYTE   N07  An2
 BYTE   W08
 BYTE   Fs3
 BYTE   W08
 BYTE   Dn3
 BYTE   W08
 BYTE   N03  An2
 BYTE   W04
 BYTE   N11  Fs3
 BYTE   W12
 BYTE   N07  Dn3
 BYTE   W08
 BYTE   N08  Bn2
 BYTE   W08
 BYTE   Gs3
 BYTE   W08
 BYTE   En3
 BYTE   W08
 BYTE   N04  Bn2
 BYTE   W04
 BYTE   N12  Gs3
 BYTE   W12
 BYTE   N08  En3
 BYTE   W08
// 008   ----------------------------------------
 BYTE   N07  Cn3
 BYTE   W08
 BYTE   Gn3
 BYTE   W08
 BYTE   En3
 BYTE   W08
 BYTE   N03  Cn3
 BYTE   W04
 BYTE   N11  Gn3
 BYTE   W12
 BYTE   N07  En3
 BYTE   W08
 BYTE   Dn3
 BYTE   W08
 BYTE   An3
 BYTE   W08
 BYTE   Fs3
 BYTE   W08
 BYTE   N03  Dn3
 BYTE   W04
 BYTE   N11  An3
 BYTE   W12
 BYTE   N07  Fs3
 BYTE   W08
// 009   ----------------------------------------
 BYTE   Dn3
 BYTE   W08
 BYTE   Bn3
 BYTE   W08
 BYTE   Gn3
 BYTE   W08
 BYTE   N03  Dn3
 BYTE   W04
 BYTE   N11  Bn3
 BYTE   W12
 BYTE   N07  Gn3
 BYTE   W08
 BYTE   Dn3
 BYTE   W08
 BYTE   Bn3
 BYTE   W08
 BYTE   Gn3
 BYTE   W08
 BYTE   N03  Dn3
 BYTE   W04
 BYTE   N11  Bn3
 BYTE   W12
 BYTE   N07  Gn3
 BYTE   W96
// 010   ----------------------------------------
 BYTE   W96
// 011   ----------------------------------------
 BYTE   W96
// 012   ----------------------------------------
 BYTE   W96
// 013   ----------------------------------------
 BYTE   W08
 BYTE   PATT
  POIN2 Label_2_011DECE9
 BYTE   PATT
  POIN2 Label_2_011DEC6E
 BYTE   PATT
  POIN2 Label_2_011DEC97
 BYTE   PATT
  POIN2 Label_2_011DECC0
 BYTE   PATT
  POIN2 Label_2_011DECE9
 BYTE   PATT
  POIN2 Label_2_011DEC6E
// 014   ----------------------------------------
 BYTE   N08  An2  v127
 BYTE   W08
 BYTE   En3
 BYTE   W08
 BYTE   Cs3
 BYTE   W08
 BYTE   N04  An2
 BYTE   W04
 BYTE   N12  En3
 BYTE   W12
 BYTE   N08  Cs3
 BYTE   N08  An2  v092
 BYTE   W08
 BYTE   Gs2  v127
 BYTE   W08
 BYTE   En3
 BYTE   W08
 BYTE   Bn2
 BYTE   W08
 BYTE   N04  Gs2
 BYTE   W04
 BYTE   N12  En3
 BYTE   W12
 BYTE   N08  Gs2  v092
 BYTE   N08  Bn2  v127
 BYTE   W08
 BYTE   PATT
  POIN2 Label_2_011DECC0
// 015   ----------------------------------------
Label_2_011DEE0F:
 BYTE   N11  Bn4  v127
 BYTE   N11  Bn3
 BYTE   W12
 BYTE   Cn5
 BYTE   N11  Cn4
 BYTE   W12
 BYTE   N07  Dn5
 BYTE   N07  Dn4
 BYTE   W08
 BYTE   Cn5
 BYTE   N07  Cn4
 BYTE   W08
 BYTE   Bn4
 BYTE   N07  Bn3
 BYTE   W08
 BYTE   N03  An4
 BYTE   N03  An3
 BYTE   W04
 BYTE   N05  Bn4
 BYTE   N05  Bn3
 BYTE   W08
 BYTE   N06  Gn4
 BYTE   N06  Gn3
 BYTE   W09
 BYTE   N24  Fn4
 BYTE   N24  Fn3
 BYTE   W03
 BYTE   N02  Fn4
 BYTE   N02  Fn3
 BYTE   W24
 BYTE   PEND 
// 016   ----------------------------------------
Label_2_011DEE40:
 BYTE   N11  En5  v127
 BYTE   N11  En4
 BYTE   W12
 BYTE   Dn5
 BYTE   N11  Dn4
 BYTE   W12
 BYTE   N07  Cn5
 BYTE   N07  Cn4
 BYTE   W08
 BYTE   Bn4
 BYTE   N07  Bn3
 BYTE   W08
 BYTE   An4
 BYTE   N07  An3
 BYTE   W08
 BYTE   N03  Gn4
 BYTE   N03  Gn3
 BYTE   W04
 BYTE   N05  An4
 BYTE   N05  An3
 BYTE   W08
 BYTE   N06  An4
 BYTE   N06  An3
 BYTE   W09
 BYTE   N24  Bn4
 BYTE   N24  Bn3
 BYTE   W03
 BYTE   N02  Bn4
 BYTE   N02  Bn3
 BYTE   W24
 BYTE   PEND 
 BYTE   PATT
  POIN2 Label_2_011DEE0F
 BYTE   PATT
  POIN2 Label_2_011DEE40
// 017   ----------------------------------------
 BYTE   TEMPO   80*MarioGolfRingMatchPandan_tbs/2
 BYTE   TEMPO   80*MarioGolfRingMatchPandan_tbs/2
 BYTE   N08  Bn2  v127
 BYTE   W08
 BYTE   Gs3
 BYTE   W08
 BYTE   En3
 BYTE   W08
 BYTE   N04  Bn2
 BYTE   W04
 BYTE   N12  Gs3
 BYTE   W12
 BYTE   N08  En3
 BYTE   N08  Bn2  v075
 BYTE   W08
 BYTE   Cs3  v127
 BYTE   W08
 BYTE   An3
 BYTE   W08
 BYTE   En3
 BYTE   W08
 BYTE   N04  Cs3
 BYTE   W04
 BYTE   N12  An3
 BYTE   W12
 BYTE   N08  Cs3  v075
 BYTE   N08  En3  v127
 BYTE   W08
// 018   ----------------------------------------
 BYTE   Bn2
 BYTE   W08
 BYTE   Fs3
 BYTE   W08
 BYTE   Ds3
 BYTE   W08
 BYTE   N04  Bn2
 BYTE   W04
 BYTE   N12  Fs3
 BYTE   W12
 BYTE   N08  Bn2  v075
 BYTE   N08  Ds3  v127
 BYTE   W08
 BYTE   Bn2
 BYTE   W08
 BYTE   Gs3
 BYTE   W08
 BYTE   En3
 BYTE   W08
 BYTE   N04  Bn2
 BYTE   W04
 BYTE   N12  Gs3
 BYTE   W12
 BYTE   N08  Bn2  v075
 BYTE   N08  En3  v127
 BYTE   W08
// 019   ----------------------------------------
 BYTE   An2
 BYTE   W08
 BYTE   En3
 BYTE   W08
 BYTE   Cs3
 BYTE   W08
 BYTE   N04  An2
 BYTE   W04
 BYTE   N12  En3
 BYTE   W12
 BYTE   N08  An2  v075
 BYTE   N08  Cs3  v127
 BYTE   W08
 BYTE   Gs2
 BYTE   W08
 BYTE   En3
 BYTE   W08
 BYTE   Bn2
 BYTE   W08
 BYTE   N04  Gs2
 BYTE   W04
 BYTE   N12  En3
 BYTE   W12
 BYTE   N08  Gs2  v075
 BYTE   N08  Bn2  v127
 BYTE   W08
// 020   ----------------------------------------
 BYTE   An2
 BYTE   W08
 BYTE   En3
 BYTE   W08
 BYTE   Cs3
 BYTE   W08
 BYTE   N04  An2
 BYTE   W04
 BYTE   N12  En3
 BYTE   W12
 BYTE   N08  An2  v075
 BYTE   N08  Cs3  v127
 BYTE   W08
 BYTE   Bn2
 BYTE   W08
 BYTE   Fs3
 BYTE   W08
 BYTE   Ds3
 BYTE   W08
 BYTE   N04  Bn2
 BYTE   W04
 BYTE   N12  Fs3
 BYTE   W12
 BYTE   N08  Bn2  v075
 BYTE   N08  Ds3  v127
 BYTE   W08
// 021   ----------------------------------------
 BYTE   VOL   27*MarioGolfRingMatchPandan_mvl/mxv
 BYTE   VOL   27*MarioGolfRingMatchPandan_mvl/mxv
 BYTE   N08  Bn2  v127
 BYTE   W02
 BYTE   VOL   25*MarioGolfRingMatchPandan_mvl/mxv
 BYTE   VOL   25*MarioGolfRingMatchPandan_mvl/mxv
 BYTE   W02
 BYTE   VOL   24*MarioGolfRingMatchPandan_mvl/mxv
 BYTE   VOL   24*MarioGolfRingMatchPandan_mvl/mxv
 BYTE   W02
 BYTE   VOL   22*MarioGolfRingMatchPandan_mvl/mxv
 BYTE   VOL   22*MarioGolfRingMatchPandan_mvl/mxv
 BYTE   W01
 BYTE   N08  Gs3  v127
 BYTE   W01
 BYTE   VOL   20*MarioGolfRingMatchPandan_mvl/mxv
 BYTE   VOL   20*MarioGolfRingMatchPandan_mvl/mxv
 BYTE   W02
 BYTE   VOL   19*MarioGolfRingMatchPandan_mvl/mxv
 BYTE   VOL   19*MarioGolfRingMatchPandan_mvl/mxv
 BYTE   W02
 BYTE   VOL   17*MarioGolfRingMatchPandan_mvl/mxv
 BYTE   VOL   17*MarioGolfRingMatchPandan_mvl/mxv
 BYTE   W02
 BYTE   VOL   16*MarioGolfRingMatchPandan_mvl/mxv
 BYTE   VOL   16*MarioGolfRingMatchPandan_mvl/mxv
 BYTE   N08  En3  v127
 BYTE   W02
 BYTE   VOL   14*MarioGolfRingMatchPandan_mvl/mxv
 BYTE   VOL   14*MarioGolfRingMatchPandan_mvl/mxv
 BYTE   W02
 BYTE   VOL   12*MarioGolfRingMatchPandan_mvl/mxv
 BYTE   VOL   12*MarioGolfRingMatchPandan_mvl/mxv
 BYTE   W02
 BYTE   VOL   11*MarioGolfRingMatchPandan_mvl/mxv
 BYTE   VOL   11*MarioGolfRingMatchPandan_mvl/mxv
 BYTE   W01
 BYTE   N04  Bn2  v127
 BYTE   W01
 BYTE   VOL   9*MarioGolfRingMatchPandan_mvl/mxv
 BYTE   VOL   9*MarioGolfRingMatchPandan_mvl/mxv
 BYTE   W02
 BYTE   VOL   8*MarioGolfRingMatchPandan_mvl/mxv
 BYTE   VOL   8*MarioGolfRingMatchPandan_mvl/mxv
 BYTE   N12  Gs3  v127
 BYTE   W01
 BYTE   VOL   6*MarioGolfRingMatchPandan_mvl/mxv
 BYTE   VOL   6*MarioGolfRingMatchPandan_mvl/mxv
 BYTE   W02
 BYTE   VOL   5*MarioGolfRingMatchPandan_mvl/mxv
 BYTE   VOL   5*MarioGolfRingMatchPandan_mvl/mxv
 BYTE   W02
 BYTE   VOL   3*MarioGolfRingMatchPandan_mvl/mxv
 BYTE   VOL   3*MarioGolfRingMatchPandan_mvl/mxv
 BYTE   W02
 BYTE   VOL   1*MarioGolfRingMatchPandan_mvl/mxv
 BYTE   VOL   1*MarioGolfRingMatchPandan_mvl/mxv
 BYTE   W02
 BYTE   VOL   0*MarioGolfRingMatchPandan_mvl/mxv
 BYTE   VOL   0*MarioGolfRingMatchPandan_mvl/mxv
 BYTE   W01
 BYTE   N08  En3  v127
 BYTE   N08  Bn2  v075
 BYTE   W01
 BYTE   VOL   0*MarioGolfRingMatchPandan_mvl/mxv
 BYTE   VOL   0*MarioGolfRingMatchPandan_mvl/mxv
 BYTE   W02
 BYTE   VOL   0*MarioGolfRingMatchPandan_mvl/mxv
 BYTE   VOL   0*MarioGolfRingMatchPandan_mvl/mxv
 BYTE   W02
 BYTE   VOL   0*MarioGolfRingMatchPandan_mvl/mxv
 BYTE   VOL   0*MarioGolfRingMatchPandan_mvl/mxv
 BYTE   W02
 BYTE   VOL   0*MarioGolfRingMatchPandan_mvl/mxv
 BYTE   VOL   0*MarioGolfRingMatchPandan_mvl/mxv
 BYTE   N08  Cs3  v127
 BYTE   W02
 BYTE   VOL   0*MarioGolfRingMatchPandan_mvl/mxv
 BYTE   VOL   0*MarioGolfRingMatchPandan_mvl/mxv
 BYTE   W02
 BYTE   VOL   0*MarioGolfRingMatchPandan_mvl/mxv
 BYTE   VOL   0*MarioGolfRingMatchPandan_mvl/mxv
 BYTE   W02
 BYTE   VOL   0*MarioGolfRingMatchPandan_mvl/mxv
 BYTE   VOL   0*MarioGolfRingMatchPandan_mvl/mxv
 BYTE   W01
 BYTE   N08  An3  v127
 BYTE   W01
 BYTE   VOL   0*MarioGolfRingMatchPandan_mvl/mxv
 BYTE   VOL   0*MarioGolfRingMatchPandan_mvl/mxv
 BYTE   W02
 BYTE   VOL   0*MarioGolfRingMatchPandan_mvl/mxv
 BYTE   VOL   0*MarioGolfRingMatchPandan_mvl/mxv
 BYTE   W02
 BYTE   VOL   0*MarioGolfRingMatchPandan_mvl/mxv
 BYTE   VOL   0*MarioGolfRingMatchPandan_mvl/mxv
 BYTE   W02
 BYTE   VOL   0*MarioGolfRingMatchPandan_mvl/mxv
 BYTE   VOL   0*MarioGolfRingMatchPandan_mvl/mxv
 BYTE   N08  En3  v127
 BYTE   W02
 BYTE   VOL   0*MarioGolfRingMatchPandan_mvl/mxv
 BYTE   VOL   0*MarioGolfRingMatchPandan_mvl/mxv
 BYTE   W02
 BYTE   VOL   0*MarioGolfRingMatchPandan_mvl/mxv
 BYTE   VOL   0*MarioGolfRingMatchPandan_mvl/mxv
 BYTE   W02
 BYTE   VOL   0*MarioGolfRingMatchPandan_mvl/mxv
 BYTE   VOL   0*MarioGolfRingMatchPandan_mvl/mxv
 BYTE   W01
 BYTE   N04  Cs3  v127
 BYTE   W01
 BYTE   VOL   0*MarioGolfRingMatchPandan_mvl/mxv
 BYTE   VOL   0*MarioGolfRingMatchPandan_mvl/mxv
 BYTE   W02
 BYTE   VOL   0*MarioGolfRingMatchPandan_mvl/mxv
 BYTE   VOL   0*MarioGolfRingMatchPandan_mvl/mxv
 BYTE   N12  An3  v127
 BYTE   W01
 BYTE   VOL   0*MarioGolfRingMatchPandan_mvl/mxv
 BYTE   VOL   0*MarioGolfRingMatchPandan_mvl/mxv
 BYTE   W02
 BYTE   VOL   0*MarioGolfRingMatchPandan_mvl/mxv
 BYTE   VOL   0*MarioGolfRingMatchPandan_mvl/mxv
 BYTE   W02
 BYTE   VOL   0*MarioGolfRingMatchPandan_mvl/mxv
 BYTE   VOL   0*MarioGolfRingMatchPandan_mvl/mxv
 BYTE   W02
 BYTE   VOL   0*MarioGolfRingMatchPandan_mvl/mxv
 BYTE   VOL   0*MarioGolfRingMatchPandan_mvl/mxv
 BYTE   W02
 BYTE   VOL   0*MarioGolfRingMatchPandan_mvl/mxv
 BYTE   VOL   0*MarioGolfRingMatchPandan_mvl/mxv
 BYTE   W01
 BYTE   N08  En3  v127
 BYTE   N08  Cs3  v075
 BYTE   W01
 BYTE   VOL   0*MarioGolfRingMatchPandan_mvl/mxv
 BYTE   VOL   0*MarioGolfRingMatchPandan_mvl/mxv
 BYTE   W02
 BYTE   VOL   0*MarioGolfRingMatchPandan_mvl/mxv
 BYTE   VOL   0*MarioGolfRingMatchPandan_mvl/mxv
 BYTE   W02
 BYTE   VOL   0*MarioGolfRingMatchPandan_mvl/mxv
 BYTE   VOL   0*MarioGolfRingMatchPandan_mvl/mxv
 BYTE   W02
 BYTE   VOL   0*MarioGolfRingMatchPandan_mvl/mxv
 BYTE   VOL   0*MarioGolfRingMatchPandan_mvl/mxv
 BYTE   N08  Bn2  v127
 BYTE   W02
 BYTE   VOL   0*MarioGolfRingMatchPandan_mvl/mxv
 BYTE   VOL   0*MarioGolfRingMatchPandan_mvl/mxv
 BYTE   W02
 BYTE   VOL   0*MarioGolfRingMatchPandan_mvl/mxv
 BYTE   VOL   0*MarioGolfRingMatchPandan_mvl/mxv
 BYTE   W02
 BYTE   VOL   0*MarioGolfRingMatchPandan_mvl/mxv
 BYTE   VOL   0*MarioGolfRingMatchPandan_mvl/mxv
 BYTE   W01
 BYTE   N08  Fs3  v127
 BYTE   VOL   0*MarioGolfRingMatchPandan_mvl/mxv
 BYTE   VOL   0*MarioGolfRingMatchPandan_mvl/mxv
 BYTE   W02
 BYTE   VOL   0*MarioGolfRingMatchPandan_mvl/mxv
 BYTE   VOL   0*MarioGolfRingMatchPandan_mvl/mxv
 BYTE   W02
 BYTE   VOL   0*MarioGolfRingMatchPandan_mvl/mxv
 BYTE   VOL   0*MarioGolfRingMatchPandan_mvl/mxv
 BYTE   W02
 BYTE   VOL   0*MarioGolfRingMatchPandan_mvl/mxv
 BYTE   VOL   0*MarioGolfRingMatchPandan_mvl/mxv
 BYTE   N08  Ds3  v127
 BYTE   W01
// 022   ----------------------------------------
 BYTE   VOL   0*MarioGolfRingMatchPandan_mvl/mxv
 BYTE   VOL   0*MarioGolfRingMatchPandan_mvl/mxv
 BYTE   W02
 BYTE   VOL   0*MarioGolfRingMatchPandan_mvl/mxv
 BYTE   VOL   0*MarioGolfRingMatchPandan_mvl/mxv
 BYTE   W02
 BYTE   VOL   0*MarioGolfRingMatchPandan_mvl/mxv
 BYTE   VOL   0*MarioGolfRingMatchPandan_mvl/mxv
 BYTE   W02
 BYTE   VOL   0*MarioGolfRingMatchPandan_mvl/mxv
 BYTE   VOL   0*MarioGolfRingMatchPandan_mvl/mxv
 BYTE   N04  Bn2  v127
 BYTE   W02
 BYTE   VOL   0*MarioGolfRingMatchPandan_mvl/mxv
 BYTE   VOL   0*MarioGolfRingMatchPandan_mvl/mxv
 BYTE   W01
 BYTE   N12  Fs3  v127
 BYTE   VOL   0*MarioGolfRingMatchPandan_mvl/mxv
 BYTE   VOL   0*MarioGolfRingMatchPandan_mvl/mxv
 BYTE   W02
 BYTE   VOL   0*MarioGolfRingMatchPandan_mvl/mxv
 BYTE   VOL   0*MarioGolfRingMatchPandan_mvl/mxv
 BYTE   W02
 BYTE   VOL   0*MarioGolfRingMatchPandan_mvl/mxv
 BYTE   VOL   0*MarioGolfRingMatchPandan_mvl/mxv
 BYTE   W02
 BYTE   VOL   0*MarioGolfRingMatchPandan_mvl/mxv
 BYTE   VOL   0*MarioGolfRingMatchPandan_mvl/mxv
 BYTE   W02
 BYTE   VOL   0*MarioGolfRingMatchPandan_mvl/mxv
 BYTE   VOL   0*MarioGolfRingMatchPandan_mvl/mxv
 BYTE   W02
 BYTE   VOL   0*MarioGolfRingMatchPandan_mvl/mxv
 BYTE   VOL   0*MarioGolfRingMatchPandan_mvl/mxv
 BYTE   N08  Ds3  v127
 BYTE   N08  Bn2  v075
 BYTE   W01
 BYTE   VOL   0*MarioGolfRingMatchPandan_mvl/mxv
 BYTE   VOL   0*MarioGolfRingMatchPandan_mvl/mxv
 BYTE   W02
 BYTE   VOL   0*MarioGolfRingMatchPandan_mvl/mxv
 BYTE   VOL   0*MarioGolfRingMatchPandan_mvl/mxv
 BYTE   W02
 BYTE   VOL   0*MarioGolfRingMatchPandan_mvl/mxv
 BYTE   VOL   0*MarioGolfRingMatchPandan_mvl/mxv
 BYTE   W02
 BYTE   VOL   0*MarioGolfRingMatchPandan_mvl/mxv
 BYTE   VOL   0*MarioGolfRingMatchPandan_mvl/mxv
 BYTE   N08  Bn2  v127
 BYTE   W02
 BYTE   VOL   0*MarioGolfRingMatchPandan_mvl/mxv
 BYTE   VOL   0*MarioGolfRingMatchPandan_mvl/mxv
 BYTE   W02
 BYTE   VOL   0*MarioGolfRingMatchPandan_mvl/mxv
 BYTE   VOL   0*MarioGolfRingMatchPandan_mvl/mxv
 BYTE   W02
 BYTE   VOL   0*MarioGolfRingMatchPandan_mvl/mxv
 BYTE   VOL   0*MarioGolfRingMatchPandan_mvl/mxv
 BYTE   W01
 BYTE   N08  Gs3  v127
 BYTE   VOL   0*MarioGolfRingMatchPandan_mvl/mxv
 BYTE   VOL   0*MarioGolfRingMatchPandan_mvl/mxv
 BYTE   W02
 BYTE   VOL   0*MarioGolfRingMatchPandan_mvl/mxv
 BYTE   VOL   0*MarioGolfRingMatchPandan_mvl/mxv
 BYTE   W02
 BYTE   VOL   0*MarioGolfRingMatchPandan_mvl/mxv
 BYTE   VOL   0*MarioGolfRingMatchPandan_mvl/mxv
 BYTE   W02
 BYTE   VOL   0*MarioGolfRingMatchPandan_mvl/mxv
 BYTE   VOL   0*MarioGolfRingMatchPandan_mvl/mxv
 BYTE   N08  En3  v127
 BYTE   W01
 BYTE   VOL   0*MarioGolfRingMatchPandan_mvl/mxv
 BYTE   VOL   0*MarioGolfRingMatchPandan_mvl/mxv
 BYTE   W02
 BYTE   VOL   0*MarioGolfRingMatchPandan_mvl/mxv
 BYTE   VOL   0*MarioGolfRingMatchPandan_mvl/mxv
 BYTE   W02
 BYTE   VOL   0*MarioGolfRingMatchPandan_mvl/mxv
 BYTE   VOL   0*MarioGolfRingMatchPandan_mvl/mxv
 BYTE   W02
 BYTE   VOL   0*MarioGolfRingMatchPandan_mvl/mxv
 BYTE   VOL   0*MarioGolfRingMatchPandan_mvl/mxv
 BYTE   N04  Bn2  v127
 BYTE   W02
 BYTE   VOL   0*MarioGolfRingMatchPandan_mvl/mxv
 BYTE   VOL   0*MarioGolfRingMatchPandan_mvl/mxv
 BYTE   W01
 BYTE   N12  Gs3  v127
 BYTE   VOL   0*MarioGolfRingMatchPandan_mvl/mxv
 BYTE   VOL   0*MarioGolfRingMatchPandan_mvl/mxv
 BYTE   W02
 BYTE   VOL   0*MarioGolfRingMatchPandan_mvl/mxv
 BYTE   VOL   0*MarioGolfRingMatchPandan_mvl/mxv
 BYTE   W02
 BYTE   VOL   0*MarioGolfRingMatchPandan_mvl/mxv
 BYTE   VOL   0*MarioGolfRingMatchPandan_mvl/mxv
 BYTE   W02
 BYTE   VOL   0*MarioGolfRingMatchPandan_mvl/mxv
 BYTE   VOL   0*MarioGolfRingMatchPandan_mvl/mxv
 BYTE   W02
 BYTE   VOL   0*MarioGolfRingMatchPandan_mvl/mxv
 BYTE   VOL   0*MarioGolfRingMatchPandan_mvl/mxv
 BYTE   W02
 BYTE   VOL   0*MarioGolfRingMatchPandan_mvl/mxv
 BYTE   VOL   0*MarioGolfRingMatchPandan_mvl/mxv
 BYTE   N08  En3  v127
 BYTE   N08  Bn2  v075
 BYTE   W01
 BYTE   VOL   0*MarioGolfRingMatchPandan_mvl/mxv
 BYTE   VOL   0*MarioGolfRingMatchPandan_mvl/mxv
 BYTE   W02
 BYTE   VOL   0*MarioGolfRingMatchPandan_mvl/mxv
 BYTE   VOL   0*MarioGolfRingMatchPandan_mvl/mxv
 BYTE   W02
 BYTE   VOL   0*MarioGolfRingMatchPandan_mvl/mxv
 BYTE   VOL   0*MarioGolfRingMatchPandan_mvl/mxv
 BYTE   W02
 BYTE   VOL   0*MarioGolfRingMatchPandan_mvl/mxv
 BYTE   VOL   0*MarioGolfRingMatchPandan_mvl/mxv
 BYTE   N08  An2  v127
 BYTE   W02
 BYTE   VOL   0*MarioGolfRingMatchPandan_mvl/mxv
 BYTE   VOL   0*MarioGolfRingMatchPandan_mvl/mxv
 BYTE   W02
 BYTE   VOL   0*MarioGolfRingMatchPandan_mvl/mxv
 BYTE   VOL   0*MarioGolfRingMatchPandan_mvl/mxv
 BYTE   W02
 BYTE   VOL   0*MarioGolfRingMatchPandan_mvl/mxv
 BYTE   VOL   0*MarioGolfRingMatchPandan_mvl/mxv
 BYTE   W01
 BYTE   N08  En3  v127
 BYTE   W01
 BYTE   VOL   0*MarioGolfRingMatchPandan_mvl/mxv
 BYTE   VOL   0*MarioGolfRingMatchPandan_mvl/mxv
 BYTE   W02
 BYTE   VOL   0*MarioGolfRingMatchPandan_mvl/mxv
 BYTE   VOL   0*MarioGolfRingMatchPandan_mvl/mxv
 BYTE   W02
 BYTE   VOL   0*MarioGolfRingMatchPandan_mvl/mxv
 BYTE   VOL   0*MarioGolfRingMatchPandan_mvl/mxv
 BYTE   W02
 BYTE   N08  Cs3  v127
 BYTE   VOL   0*MarioGolfRingMatchPandan_mvl/mxv
 BYTE   VOL   0*MarioGolfRingMatchPandan_mvl/mxv
 BYTE   W02
 BYTE   VOL   0*MarioGolfRingMatchPandan_mvl/mxv
 BYTE   VOL   0*MarioGolfRingMatchPandan_mvl/mxv
 BYTE   W02
 BYTE   VOL   0*MarioGolfRingMatchPandan_mvl/mxv
 BYTE   VOL   0*MarioGolfRingMatchPandan_mvl/mxv
 BYTE   W02
 BYTE   VOL   0*MarioGolfRingMatchPandan_mvl/mxv
 BYTE   VOL   0*MarioGolfRingMatchPandan_mvl/mxv
 BYTE   N04  An2  v127
 BYTE   W01
 BYTE   VOL   0*MarioGolfRingMatchPandan_mvl/mxv
 BYTE   VOL   0*MarioGolfRingMatchPandan_mvl/mxv
 BYTE   W02
 BYTE   VOL   0*MarioGolfRingMatchPandan_mvl/mxv
 BYTE   VOL   0*MarioGolfRingMatchPandan_mvl/mxv
 BYTE   N12  En3  v127
 BYTE   W02
 BYTE   VOL   0*MarioGolfRingMatchPandan_mvl/mxv
 BYTE   VOL   0*MarioGolfRingMatchPandan_mvl/mxv
 BYTE   W02
 BYTE   VOL   0*MarioGolfRingMatchPandan_mvl/mxv
 BYTE   VOL   0*MarioGolfRingMatchPandan_mvl/mxv
 BYTE   W02
 BYTE   VOL   0*MarioGolfRingMatchPandan_mvl/mxv
 BYTE   VOL   0*MarioGolfRingMatchPandan_mvl/mxv
 BYTE   W02
// 023   ----------------------------------------
 BYTE   VOL   0*MarioGolfRingMatchPandan_mvl/mxv
 BYTE   VOL   0*MarioGolfRingMatchPandan_mvl/mxv
 BYTE   W02
 BYTE   VOL   0*MarioGolfRingMatchPandan_mvl/mxv
 BYTE   VOL   0*MarioGolfRingMatchPandan_mvl/mxv
 BYTE   N08  An2  v075
 BYTE   N08  Cs3  v127
 BYTE   W02
 BYTE   VOL   0*MarioGolfRingMatchPandan_mvl/mxv
 BYTE   VOL   0*MarioGolfRingMatchPandan_mvl/mxv
 BYTE   W02
 BYTE   VOL   0*MarioGolfRingMatchPandan_mvl/mxv
 BYTE   VOL   0*MarioGolfRingMatchPandan_mvl/mxv
 BYTE   W02
 BYTE   VOL   0*MarioGolfRingMatchPandan_mvl/mxv
 BYTE   VOL   0*MarioGolfRingMatchPandan_mvl/mxv
 BYTE   W01
 BYTE   N08  Gs2  v127
 BYTE   W01
 BYTE   VOL   0*MarioGolfRingMatchPandan_mvl/mxv
 BYTE   VOL   0*MarioGolfRingMatchPandan_mvl/mxv
 BYTE   W02
 BYTE   VOL   0*MarioGolfRingMatchPandan_mvl/mxv
 BYTE   VOL   0*MarioGolfRingMatchPandan_mvl/mxv
 BYTE   W02
 BYTE   VOL   0*MarioGolfRingMatchPandan_mvl/mxv
 BYTE   VOL   0*MarioGolfRingMatchPandan_mvl/mxv
 BYTE   W02
 BYTE   N08  En3  v127
 BYTE   VOL   0*MarioGolfRingMatchPandan_mvl/mxv
 BYTE   VOL   0*MarioGolfRingMatchPandan_mvl/mxv
 BYTE   W02
 BYTE   VOL   0*MarioGolfRingMatchPandan_mvl/mxv
 BYTE   VOL   0*MarioGolfRingMatchPandan_mvl/mxv
 BYTE   W02
 BYTE   VOL   0*MarioGolfRingMatchPandan_mvl/mxv
 BYTE   VOL   0*MarioGolfRingMatchPandan_mvl/mxv
 BYTE   W02
 BYTE   VOL   0*MarioGolfRingMatchPandan_mvl/mxv
 BYTE   VOL   0*MarioGolfRingMatchPandan_mvl/mxv
 BYTE   N08  Bn2  v127
 BYTE   W01
 BYTE   VOL   0*MarioGolfRingMatchPandan_mvl/mxv
 BYTE   VOL   0*MarioGolfRingMatchPandan_mvl/mxv
 BYTE   W02
 BYTE   VOL   0*MarioGolfRingMatchPandan_mvl/mxv
 BYTE   VOL   0*MarioGolfRingMatchPandan_mvl/mxv
 BYTE   W02
 BYTE   VOL   0*MarioGolfRingMatchPandan_mvl/mxv
 BYTE   VOL   0*MarioGolfRingMatchPandan_mvl/mxv
 BYTE   W01
 BYTE   N04  Gs2  v127
 BYTE   VOL   0*MarioGolfRingMatchPandan_mvl/mxv
 BYTE   VOL   0*MarioGolfRingMatchPandan_mvl/mxv
 BYTE   W02
 BYTE   VOL   0*MarioGolfRingMatchPandan_mvl/mxv
 BYTE   VOL   0*MarioGolfRingMatchPandan_mvl/mxv
 BYTE   W01
 BYTE   N12  En3  v127
 BYTE   W01
 BYTE   VOL   0*MarioGolfRingMatchPandan_mvl/mxv
 BYTE   VOL   0*MarioGolfRingMatchPandan_mvl/mxv
 BYTE   W02
 BYTE   VOL   0*MarioGolfRingMatchPandan_mvl/mxv
 BYTE   VOL   0*MarioGolfRingMatchPandan_mvl/mxv
 BYTE   W02
 BYTE   VOL   0*MarioGolfRingMatchPandan_mvl/mxv
 BYTE   VOL   0*MarioGolfRingMatchPandan_mvl/mxv
 BYTE   W02
 BYTE   VOL   0*MarioGolfRingMatchPandan_mvl/mxv
 BYTE   VOL   0*MarioGolfRingMatchPandan_mvl/mxv
 BYTE   W02
 BYTE   VOL   0*MarioGolfRingMatchPandan_mvl/mxv
 BYTE   VOL   0*MarioGolfRingMatchPandan_mvl/mxv
 BYTE   W01
 BYTE   N08  Bn2  v127
 BYTE   N08  Gs2  v075
 BYTE   VOL   0*MarioGolfRingMatchPandan_mvl/mxv
 BYTE   VOL   0*MarioGolfRingMatchPandan_mvl/mxv
 BYTE   W02
 BYTE   VOL   0*MarioGolfRingMatchPandan_mvl/mxv
 BYTE   VOL   0*MarioGolfRingMatchPandan_mvl/mxv
 BYTE   W02
 BYTE   VOL   0*MarioGolfRingMatchPandan_mvl/mxv
 BYTE   VOL   0*MarioGolfRingMatchPandan_mvl/mxv
 BYTE   W02
 BYTE   VOL   0*MarioGolfRingMatchPandan_mvl/mxv
 BYTE   VOL   0*MarioGolfRingMatchPandan_mvl/mxv
 BYTE   N08  An2  v127
 BYTE   W08
 BYTE   En3
 BYTE   W08
 BYTE   Cs3
 BYTE   W08
 BYTE   N04  An2
 BYTE   W04
 BYTE   N12  En3
 BYTE   W12
 BYTE   N08  An2  v075
 BYTE   N08  Cs3  v127
 BYTE   W08
 BYTE   Bn2
 BYTE   W08
// 024   ----------------------------------------
 BYTE   Fs3
 BYTE   W08
 BYTE   Ds3
 BYTE   W08
 BYTE   N04  Bn2
 BYTE   W04
 BYTE   N12  Fs3
 BYTE   W12
 BYTE   N08  Bn2  v075
 BYTE   N08  Ds3  v127
 BYTE   W08
 BYTE   GoTo
  POIN2 Label_2_011DEC34
 BYTE   FINE

//**************** Track 4 (Midi-Chn.3) ****************//

MarioGolfRingMatchPandan_004:
// 000   ----------------------------------------
Label_3_011DF250:
 BYTE   TEMPO   80*MarioGolfRingMatchPandan_tbs/2
 BYTE   TEMPO   80*MarioGolfRingMatchPandan_tbs/2
 BYTE   KEYSH   MarioGolfRingMatchPandan_key+0
 BYTE   VOICE   36
 BYTE   VOL   35*MarioGolfRingMatchPandan_mvl/mxv
 BYTE   PAN   c_v+0
 BYTE   N05  En0  v110
 BYTE   W06
 BYTE   En0
 BYTE   W12
 BYTE   En0
 BYTE   W06
 BYTE   En0
 BYTE   W12
 BYTE   En0
 BYTE   W12
 BYTE   An0
 BYTE   W18
 BYTE   An0
 BYTE   W06
 BYTE   N11  En1
 BYTE   W12
 BYTE   N05  An0
 BYTE   W12
// 001   ----------------------------------------
Label_3_011DF272:
 BYTE   N05  Bn0  v110
 BYTE   W18
 BYTE   Bn0
 BYTE   W06
 BYTE   Bn0
 BYTE   W12
 BYTE   Bn0
 BYTE   W12
 BYTE   En0
 BYTE   W06
 BYTE   N11
 BYTE   W12
 BYTE   N05
 BYTE   W06
 BYTE   N11
 BYTE   W12
 BYTE   N05
 BYTE   W12
 BYTE   PEND 
// 002   ----------------------------------------
Label_3_011DF287:
 BYTE   N05  An0  v110
 BYTE   W06
 BYTE   An0
 BYTE   W12
 BYTE   An0
 BYTE   W06
 BYTE   An0
 BYTE   W12
 BYTE   En1
 BYTE   W12
 BYTE   N11  Bn0
 BYTE   W18
 BYTE   N05
 BYTE   W06
 BYTE   N11  Gs1
 BYTE   W12
 BYTE   N05  Bn0
 BYTE   W12
 BYTE   PEND 
// 003   ----------------------------------------
Label_3_011DF29F:
 BYTE   N05  An0  v110
 BYTE   W06
 BYTE   N11
 BYTE   W12
 BYTE   N05
 BYTE   W06
 BYTE   An0
 BYTE   W12
 BYTE   En1
 BYTE   W06
 BYTE   En1
 BYTE   W06
 BYTE   N11  Bn0
 BYTE   W18
 BYTE   N05
 BYTE   W06
 BYTE   N08  Bn1
 BYTE   W08
 BYTE   Fs1
 BYTE   W08
 BYTE   N07  Bn0
 BYTE   W08
 BYTE   PEND 
// 004   ----------------------------------------
Label_3_011DF2BB:
 BYTE   N05  En0  v110
 BYTE   W06
 BYTE   En0
 BYTE   W12
 BYTE   En0
 BYTE   W06
 BYTE   En0
 BYTE   W12
 BYTE   En0
 BYTE   W12
 BYTE   An0
 BYTE   W18
 BYTE   An0
 BYTE   W06
 BYTE   N11  En1
 BYTE   W12
 BYTE   N05  An0
 BYTE   W12
 BYTE   PEND 
 BYTE   PATT
  POIN2 Label_3_011DF272
 BYTE   PATT
  POIN2 Label_3_011DF287
 BYTE   PATT
  POIN2 Label_3_011DF29F
// 005   ----------------------------------------
 BYTE   N05  An0  v110
 BYTE   W06
 BYTE   An0
 BYTE   W12
 BYTE   An0
 BYTE   W06
 BYTE   An0
 BYTE   W12
 BYTE   An0
 BYTE   W12
 BYTE   En1
 BYTE   W18
 BYTE   En1
 BYTE   W06
 BYTE   N11  Bn1
 BYTE   W12
 BYTE   N05  En1
 BYTE   W12
// 006   ----------------------------------------
 BYTE   Bn0
 BYTE   W18
 BYTE   Bn0
 BYTE   W06
 BYTE   N17  Fs1
 BYTE   W24
 BYTE   N05  Bn0
 BYTE   W06
 BYTE   N11
 BYTE   W12
 BYTE   N05
 BYTE   W06
 BYTE   N11
 BYTE   W12
 BYTE   N05
 BYTE   W12
// 007   ----------------------------------------
 BYTE   Cn1
 BYTE   W06
 BYTE   Cn1
 BYTE   W12
 BYTE   Cn1
 BYTE   W06
 BYTE   N11  Gn1
 BYTE   W12
 BYTE   N05  Cn1
 BYTE   W12
 BYTE   N11  Dn1
 BYTE   W18
 BYTE   N05
 BYTE   W06
 BYTE   N17  An1
 BYTE   W24
// 008   ----------------------------------------
 BYTE   N05  Gn0
 BYTE   W06
 BYTE   N11
 BYTE   W12
 BYTE   N05
 BYTE   W06
 BYTE   Gn0
 BYTE   W12
 BYTE   Dn1
 BYTE   W06
 BYTE   Dn1
 BYTE   W54
// 009   ----------------------------------------
 BYTE   Fn0
 BYTE   W06
 BYTE   N11
 BYTE   W12
 BYTE   N05
 BYTE   W06
 BYTE   Fn0
 BYTE   W12
 BYTE   N11
 BYTE   W12
 BYTE   N05  Gn0
 BYTE   W18
 BYTE   Gn0
 BYTE   W06
 BYTE   N17  Dn1
 BYTE   W24
// 010   ----------------------------------------
 BYTE   N11  Fn0
 BYTE   W18
 BYTE   N05
 BYTE   W06
 BYTE   N11
 BYTE   W12
 BYTE   N05
 BYTE   W12
 BYTE   Cn1
 BYTE   W06
 BYTE   N11
 BYTE   W12
 BYTE   N05
 BYTE   W06
 BYTE   N17
 BYTE   W24
// 011   ----------------------------------------
 BYTE   N05  Fn0
 BYTE   W06
 BYTE   Fn0
 BYTE   W12
 BYTE   Fn0
 BYTE   W06
 BYTE   N11
 BYTE   W12
 BYTE   N05  Cn1
 BYTE   W12
 BYTE   N11  Gn0
 BYTE   W18
 BYTE   N05
 BYTE   W06
 BYTE   N11  Dn1
 BYTE   W12
 BYTE   N05  Gn0
 BYTE   W12
// 012   ----------------------------------------
 BYTE   Fn0
 BYTE   W06
 BYTE   N11
 BYTE   W12
 BYTE   N05
 BYTE   W06
 BYTE   N20
 BYTE   W24
 BYTE   N11  Gn0
 BYTE   W12
 BYTE   N05
 BYTE   W06
 BYTE   Gn0
 BYTE   W06
 BYTE   N20
 BYTE   W24
 BYTE   PATT
  POIN2 Label_3_011DF2BB
 BYTE   PATT
  POIN2 Label_3_011DF272
 BYTE   PATT
  POIN2 Label_3_011DF287
 BYTE   PATT
  POIN2 Label_3_011DF29F
 BYTE   PATT
  POIN2 Label_3_011DF2BB
 BYTE   PATT
  POIN2 Label_3_011DF272
 BYTE   PATT
  POIN2 Label_3_011DF287
 BYTE   PATT
  POIN2 Label_3_011DF29F
 BYTE   PATT
  POIN2 Label_3_011DF2BB
 BYTE   PATT
  POIN2 Label_3_011DF272
 BYTE   PATT
  POIN2 Label_3_011DF287
 BYTE   PATT
  POIN2 Label_3_011DF29F
// 013   ----------------------------------------
 BYTE   TEMPO   80*MarioGolfRingMatchPandan_tbs/2
 BYTE   TEMPO   80*MarioGolfRingMatchPandan_tbs/2
 BYTE   N05  En0  v110
 BYTE   W06
 BYTE   En0
 BYTE   W12
 BYTE   En0
 BYTE   W06
 BYTE   En0
 BYTE   W12
 BYTE   En0
 BYTE   W12
 BYTE   An0
 BYTE   W18
 BYTE   An0
 BYTE   W06
 BYTE   N11  En1
 BYTE   W12
 BYTE   N05  An0
 BYTE   W12
 BYTE   PATT
  POIN2 Label_3_011DF272
 BYTE   PATT
  POIN2 Label_3_011DF287
// 014   ----------------------------------------
 BYTE   N05  An0  v110
 BYTE   W06
 BYTE   N11
 BYTE   W12
 BYTE   N05
 BYTE   W06
 BYTE   An0
 BYTE   W12
 BYTE   En1
 BYTE   W06
 BYTE   En1
 BYTE   W06
 BYTE   N11  Bn0
 BYTE   W18
 BYTE   N05
 BYTE   W06
 BYTE   N08  Bn1
 BYTE   W08
 BYTE   Fs1
 BYTE   W08
 BYTE   N07  Bn0
 BYTE   W08
// 015   ----------------------------------------
 BYTE   VOL   35*MarioGolfRingMatchPandan_mvl/mxv
 BYTE   N05  En0  v110
 BYTE   W02
 BYTE   VOL   33*MarioGolfRingMatchPandan_mvl/mxv
 BYTE   W02
 BYTE   VOL   32*MarioGolfRingMatchPandan_mvl/mxv
 BYTE   W01
 BYTE   N05  En0  v110
 BYTE   VOL   30*MarioGolfRingMatchPandan_mvl/mxv
 BYTE   W02
 BYTE   VOL   28*MarioGolfRingMatchPandan_mvl/mxv
 BYTE   W02
 BYTE   VOL   27*MarioGolfRingMatchPandan_mvl/mxv
 BYTE   W02
 BYTE   VOL   25*MarioGolfRingMatchPandan_mvl/mxv
 BYTE   W02
 BYTE   VOL   24*MarioGolfRingMatchPandan_mvl/mxv
 BYTE   W02
 BYTE   N05  En0  v110
 BYTE   VOL   22*MarioGolfRingMatchPandan_mvl/mxv
 BYTE   W02
 BYTE   VOL   20*MarioGolfRingMatchPandan_mvl/mxv
 BYTE   W02
 BYTE   VOL   19*MarioGolfRingMatchPandan_mvl/mxv
 BYTE   W01
 BYTE   N05  En0  v110
 BYTE   W01
 BYTE   VOL   17*MarioGolfRingMatchPandan_mvl/mxv
 BYTE   W02
 BYTE   VOL   16*MarioGolfRingMatchPandan_mvl/mxv
 BYTE   W02
 BYTE   VOL   14*MarioGolfRingMatchPandan_mvl/mxv
 BYTE   W02
 BYTE   VOL   13*MarioGolfRingMatchPandan_mvl/mxv
 BYTE   W02
 BYTE   VOL   11*MarioGolfRingMatchPandan_mvl/mxv
 BYTE   W01
 BYTE   N05  En0  v110
 BYTE   VOL   9*MarioGolfRingMatchPandan_mvl/mxv
 BYTE   W02
 BYTE   VOL   8*MarioGolfRingMatchPandan_mvl/mxv
 BYTE   W02
 BYTE   VOL   6*MarioGolfRingMatchPandan_mvl/mxv
 BYTE   W02
 BYTE   VOL   5*MarioGolfRingMatchPandan_mvl/mxv
 BYTE   W02
 BYTE   VOL   3*MarioGolfRingMatchPandan_mvl/mxv
 BYTE   W02
 BYTE   VOL   2*MarioGolfRingMatchPandan_mvl/mxv
 BYTE   N05  An0  v110
 BYTE   W02
 BYTE   VOL   0*MarioGolfRingMatchPandan_mvl/mxv
 BYTE   W02
 BYTE   VOL   0*MarioGolfRingMatchPandan_mvl/mxv
 BYTE   W02
 BYTE   VOL   0*MarioGolfRingMatchPandan_mvl/mxv
 BYTE   W02
 BYTE   VOL   0*MarioGolfRingMatchPandan_mvl/mxv
 BYTE   W02
 BYTE   VOL   0*MarioGolfRingMatchPandan_mvl/mxv
 BYTE   W02
 BYTE   VOL   0*MarioGolfRingMatchPandan_mvl/mxv
 BYTE   W02
 BYTE   VOL   0*MarioGolfRingMatchPandan_mvl/mxv
 BYTE   W02
 BYTE   N05  An0  v110
 BYTE   VOL   0*MarioGolfRingMatchPandan_mvl/mxv
 BYTE   W02
 BYTE   VOL   0*MarioGolfRingMatchPandan_mvl/mxv
 BYTE   W02
 BYTE   VOL   0*MarioGolfRingMatchPandan_mvl/mxv
 BYTE   W01
 BYTE   N11  En1  v110
 BYTE   W01
 BYTE   VOL   0*MarioGolfRingMatchPandan_mvl/mxv
 BYTE   W02
 BYTE   VOL   0*MarioGolfRingMatchPandan_mvl/mxv
 BYTE   W02
 BYTE   VOL   0*MarioGolfRingMatchPandan_mvl/mxv
 BYTE   W02
 BYTE   VOL   0*MarioGolfRingMatchPandan_mvl/mxv
 BYTE   W02
 BYTE   VOL   0*MarioGolfRingMatchPandan_mvl/mxv
 BYTE   W01
 BYTE   N05  An0  v110
 BYTE   VOL   0*MarioGolfRingMatchPandan_mvl/mxv
 BYTE   W02
 BYTE   VOL   0*MarioGolfRingMatchPandan_mvl/mxv
 BYTE   W02
 BYTE   VOL   0*MarioGolfRingMatchPandan_mvl/mxv
 BYTE   W02
 BYTE   VOL   0*MarioGolfRingMatchPandan_mvl/mxv
 BYTE   W02
 BYTE   VOL   0*MarioGolfRingMatchPandan_mvl/mxv
 BYTE   W02
 BYTE   VOL   0*MarioGolfRingMatchPandan_mvl/mxv
 BYTE   N05  Bn0  v110
 BYTE   W02
 BYTE   VOL   0*MarioGolfRingMatchPandan_mvl/mxv
 BYTE   W02
 BYTE   VOL   0*MarioGolfRingMatchPandan_mvl/mxv
 BYTE   W02
 BYTE   VOL   0*MarioGolfRingMatchPandan_mvl/mxv
 BYTE   W02
 BYTE   VOL   0*MarioGolfRingMatchPandan_mvl/mxv
 BYTE   W02
 BYTE   VOL   0*MarioGolfRingMatchPandan_mvl/mxv
 BYTE   W02
 BYTE   VOL   0*MarioGolfRingMatchPandan_mvl/mxv
 BYTE   W02
 BYTE   VOL   0*MarioGolfRingMatchPandan_mvl/mxv
 BYTE   W02
// 016   ----------------------------------------
 BYTE   VOL   0*MarioGolfRingMatchPandan_mvl/mxv
 BYTE   N05  Bn0  v110
 BYTE   W01
 BYTE   VOL   0*MarioGolfRingMatchPandan_mvl/mxv
 BYTE   W02
 BYTE   VOL   0*MarioGolfRingMatchPandan_mvl/mxv
 BYTE   W02
 BYTE   VOL   0*MarioGolfRingMatchPandan_mvl/mxv
 BYTE   N05  Bn0  v110
 BYTE   W02
 BYTE   VOL   0*MarioGolfRingMatchPandan_mvl/mxv
 BYTE   W02
 BYTE   VOL   0*MarioGolfRingMatchPandan_mvl/mxv
 BYTE   W02
 BYTE   VOL   0*MarioGolfRingMatchPandan_mvl/mxv
 BYTE   W02
 BYTE   VOL   0*MarioGolfRingMatchPandan_mvl/mxv
 BYTE   W02
 BYTE   VOL   0*MarioGolfRingMatchPandan_mvl/mxv
 BYTE   W01
 BYTE   N05  Bn0  v110
 BYTE   W01
 BYTE   VOL   0*MarioGolfRingMatchPandan_mvl/mxv
 BYTE   W02
 BYTE   VOL   0*MarioGolfRingMatchPandan_mvl/mxv
 BYTE   W02
 BYTE   VOL   0*MarioGolfRingMatchPandan_mvl/mxv
 BYTE   W02
 BYTE   VOL   0*MarioGolfRingMatchPandan_mvl/mxv
 BYTE   W02
 BYTE   VOL   0*MarioGolfRingMatchPandan_mvl/mxv
 BYTE   W02
 BYTE   VOL   0*MarioGolfRingMatchPandan_mvl/mxv
 BYTE   N05  En0  v110
 BYTE   W02
 BYTE   VOL   0*MarioGolfRingMatchPandan_mvl/mxv
 BYTE   W02
 BYTE   VOL   0*MarioGolfRingMatchPandan_mvl/mxv
 BYTE   W01
 BYTE   N11  En0  v110
 BYTE   VOL   0*MarioGolfRingMatchPandan_mvl/mxv
 BYTE   W02
 BYTE   VOL   0*MarioGolfRingMatchPandan_mvl/mxv
 BYTE   W02
 BYTE   VOL   0*MarioGolfRingMatchPandan_mvl/mxv
 BYTE   W02
 BYTE   VOL   0*MarioGolfRingMatchPandan_mvl/mxv
 BYTE   W02
 BYTE   VOL   0*MarioGolfRingMatchPandan_mvl/mxv
 BYTE   W02
 BYTE   VOL   0*MarioGolfRingMatchPandan_mvl/mxv
 BYTE   N05  En0  v110
 BYTE   W01
 BYTE   VOL   0*MarioGolfRingMatchPandan_mvl/mxv
 BYTE   W02
 BYTE   VOL   0*MarioGolfRingMatchPandan_mvl/mxv
 BYTE   W02
 BYTE   VOL   0*MarioGolfRingMatchPandan_mvl/mxv
 BYTE   N11  En0  v110
 BYTE   W02
 BYTE   VOL   0*MarioGolfRingMatchPandan_mvl/mxv
 BYTE   W02
 BYTE   VOL   0*MarioGolfRingMatchPandan_mvl/mxv
 BYTE   W02
 BYTE   VOL   0*MarioGolfRingMatchPandan_mvl/mxv
 BYTE   W02
 BYTE   VOL   0*MarioGolfRingMatchPandan_mvl/mxv
 BYTE   W02
 BYTE   VOL   0*MarioGolfRingMatchPandan_mvl/mxv
 BYTE   W01
 BYTE   N05  En0  v110
 BYTE   W01
 BYTE   VOL   0*MarioGolfRingMatchPandan_mvl/mxv
 BYTE   W02
 BYTE   VOL   0*MarioGolfRingMatchPandan_mvl/mxv
 BYTE   W02
 BYTE   VOL   0*MarioGolfRingMatchPandan_mvl/mxv
 BYTE   W02
 BYTE   VOL   0*MarioGolfRingMatchPandan_mvl/mxv
 BYTE   W02
 BYTE   VOL   0*MarioGolfRingMatchPandan_mvl/mxv
 BYTE   W02
 BYTE   VOL   0*MarioGolfRingMatchPandan_mvl/mxv
 BYTE   N05  An0  v110
 BYTE   W02
 BYTE   VOL   0*MarioGolfRingMatchPandan_mvl/mxv
 BYTE   W02
 BYTE   VOL   0*MarioGolfRingMatchPandan_mvl/mxv
 BYTE   W01
 BYTE   N05  An0  v110
 BYTE   W01
 BYTE   VOL   0*MarioGolfRingMatchPandan_mvl/mxv
 BYTE   W02
 BYTE   VOL   0*MarioGolfRingMatchPandan_mvl/mxv
 BYTE   W02
 BYTE   VOL   0*MarioGolfRingMatchPandan_mvl/mxv
 BYTE   W02
 BYTE   VOL   0*MarioGolfRingMatchPandan_mvl/mxv
 BYTE   W02
 BYTE   VOL   0*MarioGolfRingMatchPandan_mvl/mxv
 BYTE   W01
 BYTE   N05  An0  v110
 BYTE   VOL   0*MarioGolfRingMatchPandan_mvl/mxv
 BYTE   W02
 BYTE   VOL   0*MarioGolfRingMatchPandan_mvl/mxv
 BYTE   W02
 BYTE   VOL   0*MarioGolfRingMatchPandan_mvl/mxv
 BYTE   N05  An0  v110
 BYTE   W01
 BYTE   VOL   0*MarioGolfRingMatchPandan_mvl/mxv
 BYTE   W02
 BYTE   VOL   0*MarioGolfRingMatchPandan_mvl/mxv
 BYTE   W02
 BYTE   VOL   0*MarioGolfRingMatchPandan_mvl/mxv
 BYTE   W02
 BYTE   VOL   0*MarioGolfRingMatchPandan_mvl/mxv
 BYTE   W02
// 017   ----------------------------------------
 BYTE   VOL   0*MarioGolfRingMatchPandan_mvl/mxv
 BYTE   W01
 BYTE   N05  En1  v110
 BYTE   W01
 BYTE   VOL   0*MarioGolfRingMatchPandan_mvl/mxv
 BYTE   W02
 BYTE   VOL   0*MarioGolfRingMatchPandan_mvl/mxv
 BYTE   W02
 BYTE   VOL   0*MarioGolfRingMatchPandan_mvl/mxv
 BYTE   W02
 BYTE   VOL   0*MarioGolfRingMatchPandan_mvl/mxv
 BYTE   W02
 BYTE   VOL   0*MarioGolfRingMatchPandan_mvl/mxv
 BYTE   W01
 BYTE   N11  Bn0  v110
 BYTE   W01
 BYTE   VOL   0*MarioGolfRingMatchPandan_mvl/mxv
 BYTE   W02
 BYTE   VOL   0*MarioGolfRingMatchPandan_mvl/mxv
 BYTE   W02
 BYTE   VOL   0*MarioGolfRingMatchPandan_mvl/mxv
 BYTE   W02
 BYTE   VOL   0*MarioGolfRingMatchPandan_mvl/mxv
 BYTE   W02
 BYTE   VOL   0*MarioGolfRingMatchPandan_mvl/mxv
 BYTE   W02
 BYTE   VOL   0*MarioGolfRingMatchPandan_mvl/mxv
 BYTE   W02
 BYTE   VOL   0*MarioGolfRingMatchPandan_mvl/mxv
 BYTE   W02
 BYTE   VOL   0*MarioGolfRingMatchPandan_mvl/mxv
 BYTE   N05  Bn0  v110
 BYTE   W01
 BYTE   VOL   0*MarioGolfRingMatchPandan_mvl/mxv
 BYTE   W02
 BYTE   VOL   0*MarioGolfRingMatchPandan_mvl/mxv
 BYTE   W01
 BYTE   N11  Gs1  v110
 BYTE   VOL   0*MarioGolfRingMatchPandan_mvl/mxv
 BYTE   W02
 BYTE   VOL   0*MarioGolfRingMatchPandan_mvl/mxv
 BYTE   W02
 BYTE   VOL   0*MarioGolfRingMatchPandan_mvl/mxv
 BYTE   W02
 BYTE   VOL   0*MarioGolfRingMatchPandan_mvl/mxv
 BYTE   W02
 BYTE   VOL   0*MarioGolfRingMatchPandan_mvl/mxv
 BYTE   W02
 BYTE   N05  Bn0  v110
 BYTE   VOL   0*MarioGolfRingMatchPandan_mvl/mxv
 BYTE   W02
 BYTE   VOL   0*MarioGolfRingMatchPandan_mvl/mxv
 BYTE   W02
 BYTE   VOL   0*MarioGolfRingMatchPandan_mvl/mxv
 BYTE   W02
 BYTE   VOL   0*MarioGolfRingMatchPandan_mvl/mxv
 BYTE   W02
 BYTE   VOL   0*MarioGolfRingMatchPandan_mvl/mxv
 BYTE   W02
 BYTE   VOL   0*MarioGolfRingMatchPandan_mvl/mxv
 BYTE   N05  An0  v110
 BYTE   W06
 BYTE   N11
 BYTE   W12
 BYTE   N05
 BYTE   W06
 BYTE   An0
 BYTE   W12
 BYTE   En1
 BYTE   W06
 BYTE   En1
 BYTE   W06
// 018   ----------------------------------------
 BYTE   N11  Bn0
 BYTE   W18
 BYTE   N05
 BYTE   W06
 BYTE   N08  Bn1
 BYTE   W08
 BYTE   Fs1
 BYTE   W08
 BYTE   N07  Bn0
 BYTE   W08
 BYTE   GoTo
  POIN2 Label_3_011DF250
 BYTE   FINE

//**************** Track 5 (Midi-Chn.4) ****************//

MarioGolfRingMatchPandan_005:
// 000   ----------------------------------------
Label_4_011DF5E8:
 BYTE   TEMPO   80*MarioGolfRingMatchPandan_tbs/2
 BYTE   TEMPO   80*MarioGolfRingMatchPandan_tbs/2
 BYTE   KEYSH   MarioGolfRingMatchPandan_key+0
 BYTE   VOICE   51
 BYTE   VOL   32*MarioGolfRingMatchPandan_mvl/mxv
 BYTE   PAN   c_v+0
 BYTE   W96
// 001   ----------------------------------------
 BYTE   W96
// 002   ----------------------------------------
 BYTE   W96
// 003   ----------------------------------------
 BYTE   W96
// 004   ----------------------------------------
 BYTE   W96
// 005   ----------------------------------------
 BYTE   W96
// 006   ----------------------------------------
 BYTE   W96
// 007   ----------------------------------------
 BYTE   W96
// 008   ----------------------------------------
 BYTE   W96
// 009   ----------------------------------------
 BYTE   W96
// 010   ----------------------------------------
 BYTE   W96
// 011   ----------------------------------------
 BYTE   W96
// 012   ----------------------------------------
 BYTE   W96
// 013   ----------------------------------------
 BYTE   W96
// 014   ----------------------------------------
 BYTE   W96
// 015   ----------------------------------------
 BYTE   W96
// 016   ----------------------------------------
 BYTE   W96
// 017   ----------------------------------------
 BYTE   W96
// 018   ----------------------------------------
 BYTE   W96
// 019   ----------------------------------------
 BYTE   W96
// 020   ----------------------------------------
 BYTE   W96
// 021   ----------------------------------------
 BYTE   W96
// 022   ----------------------------------------
 BYTE   W96
// 023   ----------------------------------------
 BYTE   W96
// 024   ----------------------------------------
Label_4_011DF60C:
 BYTE   N48  En4  v127
 BYTE   W48
 BYTE   Fn4
 BYTE   W48
 BYTE   PEND 
// 025   ----------------------------------------
 BYTE   N48  Gn4  v127
 BYTE   W48
 BYTE   N24  Dn4
 BYTE   W24
 BYTE   En4
 BYTE   W24
 BYTE   PATT
  POIN2 Label_4_011DF60C
// 026   ----------------------------------------
 BYTE   N48  Gn4  v127
 BYTE   W48
 BYTE   N24  Dn4
 BYTE   W24
 BYTE   N20  En4
 BYTE   W24
// 027   ----------------------------------------
 BYTE   TEMPO   80*MarioGolfRingMatchPandan_tbs/2
 BYTE   TEMPO   80*MarioGolfRingMatchPandan_tbs/2
 BYTE   W96
// 028   ----------------------------------------
 BYTE   W96
// 029   ----------------------------------------
 BYTE   W96
// 030   ----------------------------------------
 BYTE   W96
// 031   ----------------------------------------
 BYTE   W96
// 032   ----------------------------------------
 BYTE   W96
// 033   ----------------------------------------
 BYTE   W96
// 034   ----------------------------------------
 BYTE   W96
// 035   ----------------------------------------
 BYTE   GoTo
  POIN2 Label_4_011DF5E8
 BYTE   FINE

//**************** Track 6 (Midi-Chn.5) ****************//

MarioGolfRingMatchPandan_006:
// 000   ----------------------------------------
Label_5_011DF640:
 BYTE   TEMPO   80*MarioGolfRingMatchPandan_tbs/2
 BYTE   TEMPO   80*MarioGolfRingMatchPandan_tbs/2
 BYTE   KEYSH   MarioGolfRingMatchPandan_key+0
 BYTE   VOICE   81
 BYTE   VOL   32*MarioGolfRingMatchPandan_mvl/mxv
 BYTE   PAN   c_v+0
 BYTE   W96
// 001   ----------------------------------------
 BYTE   W96
// 002   ----------------------------------------
 BYTE   W96
// 003   ----------------------------------------
 BYTE   W96
// 004   ----------------------------------------
 BYTE   W96
// 005   ----------------------------------------
 BYTE   W96
// 006   ----------------------------------------
 BYTE   W96
// 007   ----------------------------------------
 BYTE   W96
// 008   ----------------------------------------
 BYTE   W96
// 009   ----------------------------------------
 BYTE   W96
// 010   ----------------------------------------
 BYTE   W96
// 011   ----------------------------------------
 BYTE   W96
// 012   ----------------------------------------
 BYTE   N08  Fn3  v127
 BYTE   W08
 BYTE   N04  Gn3
 BYTE   W04
 BYTE   N08  An3
 BYTE   W08
 BYTE   N04  Bn3
 BYTE   W04
 BYTE   N08  Cn4
 BYTE   W08
 BYTE   Dn4
 BYTE   W08
 BYTE   En4
 BYTE   W08
 BYTE   N24  Dn4
 BYTE   W24
 BYTE   Gn4
 BYTE   W24
// 013   ----------------------------------------
 BYTE   N07  An4
 BYTE   W08
 BYTE   N03  Gn4
 BYTE   W04
 BYTE   N07  Fn4
 BYTE   W08
 BYTE   N03  En4
 BYTE   W04
 BYTE   N07  Dn4
 BYTE   W08
 BYTE   Cn4
 BYTE   W08
 BYTE   Dn4
 BYTE   W08
 BYTE   N42  En4
 BYTE   W48
// 014   ----------------------------------------
 BYTE   N04  Fn4
 BYTE   W04
 BYTE   N03  Cn4
 BYTE   W08
 BYTE   Cn4
 BYTE   W08
 BYTE   N04
 BYTE   W04
 BYTE   N08
 BYTE   W08
 BYTE   Bn3
 BYTE   W08
 BYTE   Cn4
 BYTE   W08
 BYTE   N24  Dn4
 BYTE   W24
 BYTE   Gn4
 BYTE   W24
// 015   ----------------------------------------
 BYTE   Fn4
 BYTE   W24
 BYTE   N08
 BYTE   W08
 BYTE   En4
 BYTE   W08
 BYTE   Fn4
 BYTE   W08
 BYTE   Gn4
 BYTE   W08
 BYTE   Dn4
 BYTE   W08
 BYTE   Bn3
 BYTE   W08
 BYTE   Gn4
 BYTE   W08
 BYTE   Dn4
 BYTE   W08
 BYTE   Bn3
 BYTE   W96
// 016   ----------------------------------------
 BYTE   W96
// 017   ----------------------------------------
 BYTE   W96
// 018   ----------------------------------------
 BYTE   W96
// 019   ----------------------------------------
 BYTE   W96
// 020   ----------------------------------------
 BYTE   W96
// 021   ----------------------------------------
 BYTE   W96
// 022   ----------------------------------------
 BYTE   W96
// 023   ----------------------------------------
 BYTE   W96
// 024   ----------------------------------------
 BYTE   W96
// 025   ----------------------------------------
 BYTE   W96
// 026   ----------------------------------------
 BYTE   W96
// 027   ----------------------------------------
 BYTE   W08
 BYTE   TEMPO   80*MarioGolfRingMatchPandan_tbs/2
 BYTE   TEMPO   80*MarioGolfRingMatchPandan_tbs/2
 BYTE   W96
// 028   ----------------------------------------
 BYTE   W96
// 029   ----------------------------------------
 BYTE   W96
// 030   ----------------------------------------
 BYTE   W96
// 031   ----------------------------------------
 BYTE   W96
// 032   ----------------------------------------
 BYTE   W96
// 033   ----------------------------------------
 BYTE   W96
// 034   ----------------------------------------
 BYTE   W96
// 035   ----------------------------------------
 BYTE   GoTo
  POIN2 Label_5_011DF640
 BYTE   FINE

//**************** Track 7 (Midi-Chn.6) ****************//

MarioGolfRingMatchPandan_007:
// 000   ----------------------------------------
Label_6_011DF6D0:
 BYTE   TEMPO   80*MarioGolfRingMatchPandan_tbs/2
 BYTE   TEMPO   80*MarioGolfRingMatchPandan_tbs/2
 BYTE   KEYSH   MarioGolfRingMatchPandan_key+0
 BYTE   VOL   42*MarioGolfRingMatchPandan_mvl/mxv
 BYTE   VOL   42*MarioGolfRingMatchPandan_mvl/mxv
 BYTE   VOL   42*MarioGolfRingMatchPandan_mvl/mxv
 BYTE   PAN   c_v+0
 BYTE   PAN   c_v+0
 BYTE   PAN   c_v+0
 BYTE   N07  Ds2  v092
 BYTE   N42  En2  v127
 BYTE   W08
 BYTE   N07  Fs2  v092
 BYTE   W08
 BYTE   Fs2
 BYTE   W08
 BYTE   Fs2
 BYTE   N20  Dn1  v127
 BYTE   W08
 BYTE   N03  Fs2  v092
 BYTE   W04
 BYTE   N07  Ds2
 BYTE   W08
 BYTE   N03  Fs2
 BYTE   W04
 BYTE   N07  Ds2
 BYTE   W08
 BYTE   Fs2
 BYTE   W08
 BYTE   Fs2
 BYTE   W08
 BYTE   Fs2
 BYTE   N20  Dn1  v127
 BYTE   W08
 BYTE   N03  Fs2  v092
 BYTE   W04
 BYTE   N07  Ds2
 BYTE   W08
 BYTE   N03  Fs2
 BYTE   W04
// 001   ----------------------------------------
Label_6_011DF714:
 BYTE   N07  Ds2  v092
 BYTE   W08
 BYTE   Fs2
 BYTE   W08
 BYTE   Fs2
 BYTE   W08
 BYTE   Fs2
 BYTE   N20  Dn1  v127
 BYTE   W08
 BYTE   N03  Fs2  v092
 BYTE   W04
 BYTE   N07  Ds2
 BYTE   W08
 BYTE   N03  Fs2
 BYTE   W04
 BYTE   N07  Ds2
 BYTE   W08
 BYTE   Fs2
 BYTE   W08
 BYTE   Fs2
 BYTE   W08
 BYTE   Fs2
 BYTE   N20  Dn1  v127
 BYTE   W08
 BYTE   N03  Fs2  v092
 BYTE   W04
 BYTE   N07  Ds2
 BYTE   W08
 BYTE   N03  Fs2
 BYTE   W04
 BYTE   PEND 
 BYTE   PATT
  POIN2 Label_6_011DF714
// 002   ----------------------------------------
Label_6_011DF747:
 BYTE   N07  Ds2  v092
 BYTE   W08
 BYTE   Fs2
 BYTE   W08
 BYTE   Fs2
 BYTE   W08
 BYTE   Fs2
 BYTE   N20  Dn1  v127
 BYTE   W08
 BYTE   N03  Fs2  v092
 BYTE   W04
 BYTE   N07  Ds2
 BYTE   W08
 BYTE   N03  Fs2
 BYTE   W04
 BYTE   N07  Ds2
 BYTE   W08
 BYTE   Fs2
 BYTE   W08
 BYTE   Fs2
 BYTE   W08
 BYTE   Dn1  v127
 BYTE   N07  Fs2  v092
 BYTE   W08
 BYTE   N03  Dn1  v127
 BYTE   N03  Fs2  v092
 BYTE   W04
 BYTE   N07  Dn1  v127
 BYTE   N07  Ds2  v092
 BYTE   W08
 BYTE   N03  Dn1  v127
 BYTE   N03  Fs2  v092
 BYTE   W04
 BYTE   PEND 
// 003   ----------------------------------------
Label_6_011DF781:
 BYTE   N07  Ds2  v092
 BYTE   N90  En2  v127
 BYTE   W08
 BYTE   N07  Fs2  v092
 BYTE   W08
 BYTE   Fs2
 BYTE   W08
 BYTE   Fs2
 BYTE   N20  Dn1  v127
 BYTE   W08
 BYTE   N03  Fs2  v092
 BYTE   W04
 BYTE   N07  Ds2
 BYTE   W08
 BYTE   N03  Fs2
 BYTE   W04
 BYTE   N07  Ds2
 BYTE   W08
 BYTE   Fs2
 BYTE   W08
 BYTE   Fs2
 BYTE   W08
 BYTE   Fs2
 BYTE   N20  Dn1  v127
 BYTE   W08
 BYTE   N03  Fs2  v092
 BYTE   W04
 BYTE   N07  Ds2
 BYTE   W08
 BYTE   N03  Fs2
 BYTE   W04
 BYTE   PEND 
 BYTE   PATT
  POIN2 Label_6_011DF714
 BYTE   PATT
  POIN2 Label_6_011DF714
 BYTE   PATT
  POIN2 Label_6_011DF747
 BYTE   PATT
  POIN2 Label_6_011DF781
 BYTE   PATT
  POIN2 Label_6_011DF714
 BYTE   PATT
  POIN2 Label_6_011DF781
// 004   ----------------------------------------
 BYTE   N90  En2  v127
 BYTE   W48
 BYTE   N07  Ds2  v092
 BYTE   W08
 BYTE   Fs2
 BYTE   W08
 BYTE   Fs2
 BYTE   W08
 BYTE   Dn1  v127
 BYTE   N07  Fs2  v092
 BYTE   W08
 BYTE   N03
 BYTE   N03  Dn1  v127
 BYTE   W04
 BYTE   Dn1
 BYTE   N07  Ds2  v092
 BYTE   W04
 BYTE   N03  Dn1  v127
 BYTE   W04
 BYTE   Dn1
 BYTE   N03  Fs2  v092
 BYTE   W04
// 005   ----------------------------------------
 BYTE   N07  Ds2
 BYTE   N90  En2  v127
 BYTE   W08
 BYTE   N07  Fs2  v092
 BYTE   W08
 BYTE   Fs2
 BYTE   W08
 BYTE   Fs2
 BYTE   N07  Dn1  v127
 BYTE   W08
 BYTE   N03  Fs2  v092
 BYTE   N03  Dn1  v127
 BYTE   W04
 BYTE   N07
 BYTE   N07  Ds2  v092
 BYTE   W08
 BYTE   N03  Fs2
 BYTE   N03  Dn1  v127
 BYTE   W04
 BYTE   N07  Ds2  v092
 BYTE   W08
 BYTE   Fs2
 BYTE   W08
 BYTE   Fs2
 BYTE   W08
 BYTE   Dn1  v127
 BYTE   N07  Fs2  v092
 BYTE   W08
 BYTE   N03  Dn1  v127
 BYTE   N03  Fs2  v092
 BYTE   W04
 BYTE   N07  Dn1  v127
 BYTE   N07  Ds2  v092
 BYTE   W08
 BYTE   N03  Dn1  v127
 BYTE   N03  Fs2  v092
 BYTE   W04
// 006   ----------------------------------------
 BYTE   N07  Ds2
 BYTE   W08
 BYTE   Fs2
 BYTE   W08
 BYTE   Fs2
 BYTE   W08
 BYTE   Dn1  v127
 BYTE   N07  Fs2  v092
 BYTE   W08
 BYTE   N03  Dn1  v127
 BYTE   N03  Fs2  v092
 BYTE   W04
 BYTE   N07  Dn1  v127
 BYTE   N07  Ds2  v092
 BYTE   W08
 BYTE   N03  Dn1  v127
 BYTE   N03  Fs2  v092
 BYTE   W04
 BYTE   N07  Ds2
 BYTE   W08
 BYTE   Fs2
 BYTE   W08
 BYTE   Fs2
 BYTE   W08
 BYTE   Dn1  v127
 BYTE   N07  Fs2  v092
 BYTE   W08
 BYTE   N03  Dn1  v127
 BYTE   N03  Fs2  v092
 BYTE   W04
 BYTE   Dn1  v127
 BYTE   N07  Ds2  v092
 BYTE   W04
 BYTE   N03  Dn1  v127
 BYTE   W04
 BYTE   Dn1
 BYTE   N03  Fs2  v092
 BYTE   W04
// 007   ----------------------------------------
 BYTE   N07  Ds2
 BYTE   N90  En2  v127
 BYTE   W08
 BYTE   N07  Fs2  v092
 BYTE   W08
 BYTE   Fs2
 BYTE   W08
 BYTE   Fs2
 BYTE   N07  Dn1  v127
 BYTE   W08
 BYTE   N03  Fs2  v092
 BYTE   N03  Dn1  v127
 BYTE   W04
 BYTE   N07  Ds2  v092
 BYTE   N07  Dn1  v127
 BYTE   W08
 BYTE   N03
 BYTE   N03  Fs2  v092
 BYTE   W04
 BYTE   N07  Ds2
 BYTE   W08
 BYTE   Fs2
 BYTE   W08
 BYTE   Fs2
 BYTE   W08
 BYTE   Fs2
 BYTE   N07  Dn1  v127
 BYTE   W08
 BYTE   N03
 BYTE   N03  Fs2  v092
 BYTE   W04
 BYTE   N07  Dn1  v127
 BYTE   N07  Ds2  v092
 BYTE   W08
 BYTE   N03  Dn1  v127
 BYTE   N03  Fs2  v092
 BYTE   W04
// 008   ----------------------------------------
 BYTE   N07  Ds2
 BYTE   W08
 BYTE   Fs2
 BYTE   W08
 BYTE   Fs2
 BYTE   W08
 BYTE   Dn1  v127
 BYTE   N07  Fs2  v092
 BYTE   W08
 BYTE   N03  Dn1  v127
 BYTE   N03  Fs2  v092
 BYTE   W04
 BYTE   N07  Ds2
 BYTE   N07  Dn1  v127
 BYTE   W08
 BYTE   N03  Fs2  v092
 BYTE   N03  Dn1  v127
 BYTE   W04
 BYTE   N07  Ds2  v092
 BYTE   W08
 BYTE   Fs2
 BYTE   W08
 BYTE   Fs2
 BYTE   W08
 BYTE   Dn1  v127
 BYTE   N07  Fs2  v092
 BYTE   W08
 BYTE   N03  Dn1  v127
 BYTE   N03  Fs2  v092
 BYTE   W04
 BYTE   Dn1  v127
 BYTE   N07  Ds2  v092
 BYTE   W04
 BYTE   N03  Dn1  v127
 BYTE   W04
 BYTE   Dn1
 BYTE   N03  Fs2  v092
 BYTE   W04
// 009   ----------------------------------------
 BYTE   N07  Ds2
 BYTE   N42  En2  v127
 BYTE   W08
 BYTE   N07  Fs2  v092
 BYTE   W08
 BYTE   Fs2
 BYTE   W08
 BYTE   Fs2
 BYTE   N20  Dn1  v127
 BYTE   W08
 BYTE   N03  Fs2  v092
 BYTE   W04
 BYTE   N07  Ds2
 BYTE   W08
 BYTE   N03  Fs2
 BYTE   W04
 BYTE   N07  Ds2
 BYTE   W08
 BYTE   Fs2
 BYTE   W08
 BYTE   Fs2
 BYTE   W08
 BYTE   Fs2
 BYTE   N20  Dn1  v127
 BYTE   W08
 BYTE   N03  Fs2  v092
 BYTE   W04
 BYTE   N07  Ds2
 BYTE   W08
 BYTE   N03  Fs2
 BYTE   W04
 BYTE   PATT
  POIN2 Label_6_011DF714
 BYTE   PATT
  POIN2 Label_6_011DF714
 BYTE   PATT
  POIN2 Label_6_011DF747
 BYTE   PATT
  POIN2 Label_6_011DF781
 BYTE   PATT
  POIN2 Label_6_011DF714
 BYTE   PATT
  POIN2 Label_6_011DF714
 BYTE   PATT
  POIN2 Label_6_011DF747
// 010   ----------------------------------------
 BYTE   N07  Ds2  v092
 BYTE   N90  En2  v127
 BYTE   W08
 BYTE   N07  Fs2  v092
 BYTE   W08
 BYTE   Fs2
 BYTE   W08
 BYTE   Fs2
 BYTE   N07  Dn1  v108
 BYTE   W08
 BYTE   N03
 BYTE   N03  Fs2  v092
 BYTE   W04
 BYTE   N07  Ds2
 BYTE   N07  Dn1  v108
 BYTE   W08
 BYTE   N03
 BYTE   N03  Fs2  v092
 BYTE   W04
 BYTE   N07  Ds2
 BYTE   W08
 BYTE   Fs2
 BYTE   W08
 BYTE   Fs2
 BYTE   W08
 BYTE   Dn1  v108
 BYTE   N07  Fs2  v092
 BYTE   W08
 BYTE   N03  Dn1  v108
 BYTE   N03  Fs2  v092
 BYTE   W04
 BYTE   N07  Dn1  v108
 BYTE   N07  Ds2  v092
 BYTE   W08
 BYTE   N03  Dn1  v108
 BYTE   N03  Fs2  v092
 BYTE   W04
// 011   ----------------------------------------
Label_6_011DF9A2:
 BYTE   N07  Ds2  v092
 BYTE   W08
 BYTE   Fs2
 BYTE   W08
 BYTE   Fs2
 BYTE   W08
 BYTE   Dn1  v108
 BYTE   N07  Fs2  v092
 BYTE   W08
 BYTE   N03  Dn1  v108
 BYTE   N03  Fs2  v092
 BYTE   W04
 BYTE   N07  Dn1  v108
 BYTE   N07  Ds2  v092
 BYTE   W08
 BYTE   N03  Dn1  v108
 BYTE   N03  Fs2  v092
 BYTE   W04
 BYTE   Dn1  v108
 BYTE   N07  Ds2  v092
 BYTE   W04
 BYTE   Dn1  v108
 BYTE   W04
 BYTE   Fs2  v092
 BYTE   W04
 BYTE   N08  Dn1  v108
 BYTE   W04
 BYTE   N07  Fs2  v092
 BYTE   W05
 BYTE   N11  Dn1  v108
 BYTE   W03
 BYTE   N07  Fs2  v092
 BYTE   W08
 BYTE   N03
 BYTE   W04
 BYTE   N07  Ds2
 BYTE   N11  Dn1
 BYTE   W08
 BYTE   N03  Fs2
 BYTE   W04
 BYTE   PEND 
// 012   ----------------------------------------
 BYTE   N07  Ds2  v092
 BYTE   N90  En2  v127
 BYTE   W08
 BYTE   N07  Fs2  v092
 BYTE   W08
 BYTE   Fs2
 BYTE   W08
 BYTE   Fs2
 BYTE   N07  Dn1  v108
 BYTE   W08
 BYTE   N03  Fs2  v092
 BYTE   N03  Dn1  v108
 BYTE   W04
 BYTE   N07  Ds2  v092
 BYTE   N07  Dn1  v108
 BYTE   W08
 BYTE   N03
 BYTE   N03  Fs2  v092
 BYTE   W04
 BYTE   N07  Ds2
 BYTE   W08
 BYTE   Fs2
 BYTE   W08
 BYTE   Fs2
 BYTE   W08
 BYTE   Fs2
 BYTE   N07  Dn1  v108
 BYTE   W08
 BYTE   N03
 BYTE   N03  Fs2  v092
 BYTE   W04
 BYTE   N07  Dn1  v108
 BYTE   N07  Ds2  v092
 BYTE   W08
 BYTE   N03  Dn1  v108
 BYTE   N03  Fs2  v092
 BYTE   W04
 BYTE   PATT
  POIN2 Label_6_011DF9A2
// 013   ----------------------------------------
 BYTE   TEMPO   80*MarioGolfRingMatchPandan_tbs/2
 BYTE   TEMPO   80*MarioGolfRingMatchPandan_tbs/2
 BYTE   N07  Ds2  v092
 BYTE   N42  En2  v108
 BYTE   W08
 BYTE   N07  Fs2  v092
 BYTE   W08
 BYTE   Fs2
 BYTE   W08
 BYTE   Fs2
 BYTE   N20  Dn1  v127
 BYTE   W08
 BYTE   N03  Fs2  v092
 BYTE   W04
 BYTE   N07  Ds2
 BYTE   W08
 BYTE   N03  Fs2
 BYTE   W04
 BYTE   N07  Ds2
 BYTE   W08
 BYTE   Fs2
 BYTE   W08
 BYTE   Fs2
 BYTE   W08
 BYTE   Fs2
 BYTE   N20  Dn1  v127
 BYTE   W08
 BYTE   N03  Fs2  v092
 BYTE   W04
 BYTE   N07  Ds2
 BYTE   W08
 BYTE   N03  Fs2
 BYTE   W04
 BYTE   PATT
  POIN2 Label_6_011DF714
 BYTE   PATT
  POIN2 Label_6_011DF714
// 014   ----------------------------------------
 BYTE   N07  Ds2  v092
 BYTE   W08
 BYTE   Fs2
 BYTE   W08
 BYTE   Fs2
 BYTE   W08
 BYTE   Fs2
 BYTE   N20  Dn1  v127
 BYTE   W08
 BYTE   N03  Fs2  v092
 BYTE   W04
 BYTE   N07  Ds2
 BYTE   W08
 BYTE   N03  Fs2
 BYTE   W04
 BYTE   N07  Ds2
 BYTE   W08
 BYTE   Fs2
 BYTE   W08
 BYTE   Fs2
 BYTE   W08
 BYTE   Dn1  v127
 BYTE   N07  Fs2  v092
 BYTE   W08
 BYTE   N03  Dn1  v127
 BYTE   N03  Fs2  v092
 BYTE   W04
 BYTE   N07  Dn1  v127
 BYTE   N07  Ds2  v092
 BYTE   W08
 BYTE   N03  Dn1  v127
 BYTE   N03  Fs2  v092
 BYTE   W04
// 015   ----------------------------------------
 BYTE   VOL   42*MarioGolfRingMatchPandan_mvl/mxv
 BYTE   VOL   42*MarioGolfRingMatchPandan_mvl/mxv
 BYTE   VOL   42*MarioGolfRingMatchPandan_mvl/mxv
 BYTE   N07  Ds2  v092
 BYTE   N90  En2  v108
 BYTE   W02
 BYTE   VOL   40*MarioGolfRingMatchPandan_mvl/mxv
 BYTE   VOL   40*MarioGolfRingMatchPandan_mvl/mxv
 BYTE   VOL   40*MarioGolfRingMatchPandan_mvl/mxv
 BYTE   W02
 BYTE   VOL   39*MarioGolfRingMatchPandan_mvl/mxv
 BYTE   VOL   39*MarioGolfRingMatchPandan_mvl/mxv
 BYTE   VOL   39*MarioGolfRingMatchPandan_mvl/mxv
 BYTE   W02
 BYTE   VOL   37*MarioGolfRingMatchPandan_mvl/mxv
 BYTE   VOL   37*MarioGolfRingMatchPandan_mvl/mxv
 BYTE   VOL   37*MarioGolfRingMatchPandan_mvl/mxv
 BYTE   W01
 BYTE   N07  Fs2  v092
 BYTE   W01
 BYTE   VOL   35*MarioGolfRingMatchPandan_mvl/mxv
 BYTE   VOL   35*MarioGolfRingMatchPandan_mvl/mxv
 BYTE   VOL   35*MarioGolfRingMatchPandan_mvl/mxv
 BYTE   W02
 BYTE   VOL   34*MarioGolfRingMatchPandan_mvl/mxv
 BYTE   VOL   34*MarioGolfRingMatchPandan_mvl/mxv
 BYTE   VOL   34*MarioGolfRingMatchPandan_mvl/mxv
 BYTE   W02
 BYTE   VOL   32*MarioGolfRingMatchPandan_mvl/mxv
 BYTE   VOL   32*MarioGolfRingMatchPandan_mvl/mxv
 BYTE   VOL   32*MarioGolfRingMatchPandan_mvl/mxv
 BYTE   W02
 BYTE   VOL   31*MarioGolfRingMatchPandan_mvl/mxv
 BYTE   VOL   31*MarioGolfRingMatchPandan_mvl/mxv
 BYTE   VOL   31*MarioGolfRingMatchPandan_mvl/mxv
 BYTE   N07  Fs2  v092
 BYTE   W02
 BYTE   VOL   29*MarioGolfRingMatchPandan_mvl/mxv
 BYTE   VOL   29*MarioGolfRingMatchPandan_mvl/mxv
 BYTE   VOL   29*MarioGolfRingMatchPandan_mvl/mxv
 BYTE   W02
 BYTE   VOL   27*MarioGolfRingMatchPandan_mvl/mxv
 BYTE   VOL   27*MarioGolfRingMatchPandan_mvl/mxv
 BYTE   VOL   27*MarioGolfRingMatchPandan_mvl/mxv
 BYTE   W02
 BYTE   VOL   26*MarioGolfRingMatchPandan_mvl/mxv
 BYTE   VOL   26*MarioGolfRingMatchPandan_mvl/mxv
 BYTE   VOL   26*MarioGolfRingMatchPandan_mvl/mxv
 BYTE   W01
 BYTE   N07  Fs2  v092
 BYTE   N20  Dn1  v127
 BYTE   W01
 BYTE   VOL   24*MarioGolfRingMatchPandan_mvl/mxv
 BYTE   VOL   24*MarioGolfRingMatchPandan_mvl/mxv
 BYTE   VOL   24*MarioGolfRingMatchPandan_mvl/mxv
 BYTE   W02
 BYTE   VOL   23*MarioGolfRingMatchPandan_mvl/mxv
 BYTE   VOL   23*MarioGolfRingMatchPandan_mvl/mxv
 BYTE   VOL   23*MarioGolfRingMatchPandan_mvl/mxv
 BYTE   W02
 BYTE   VOL   21*MarioGolfRingMatchPandan_mvl/mxv
 BYTE   VOL   21*MarioGolfRingMatchPandan_mvl/mxv
 BYTE   VOL   21*MarioGolfRingMatchPandan_mvl/mxv
 BYTE   W02
 BYTE   VOL   20*MarioGolfRingMatchPandan_mvl/mxv
 BYTE   VOL   20*MarioGolfRingMatchPandan_mvl/mxv
 BYTE   VOL   20*MarioGolfRingMatchPandan_mvl/mxv
 BYTE   N03  Fs2  v092
 BYTE   W02
 BYTE   VOL   18*MarioGolfRingMatchPandan_mvl/mxv
 BYTE   VOL   18*MarioGolfRingMatchPandan_mvl/mxv
 BYTE   VOL   18*MarioGolfRingMatchPandan_mvl/mxv
 BYTE   W01
 BYTE   N07  Ds2  v092
 BYTE   VOL   16*MarioGolfRingMatchPandan_mvl/mxv
 BYTE   VOL   16*MarioGolfRingMatchPandan_mvl/mxv
 BYTE   VOL   16*MarioGolfRingMatchPandan_mvl/mxv
 BYTE   W02
 BYTE   VOL   15*MarioGolfRingMatchPandan_mvl/mxv
 BYTE   VOL   15*MarioGolfRingMatchPandan_mvl/mxv
 BYTE   VOL   15*MarioGolfRingMatchPandan_mvl/mxv
 BYTE   W02
 BYTE   VOL   13*MarioGolfRingMatchPandan_mvl/mxv
 BYTE   VOL   13*MarioGolfRingMatchPandan_mvl/mxv
 BYTE   VOL   13*MarioGolfRingMatchPandan_mvl/mxv
 BYTE   W02
 BYTE   VOL   12*MarioGolfRingMatchPandan_mvl/mxv
 BYTE   VOL   12*MarioGolfRingMatchPandan_mvl/mxv
 BYTE   VOL   12*MarioGolfRingMatchPandan_mvl/mxv
 BYTE   N03  Fs2  v092
 BYTE   W01
 BYTE   VOL   10*MarioGolfRingMatchPandan_mvl/mxv
 BYTE   VOL   10*MarioGolfRingMatchPandan_mvl/mxv
 BYTE   VOL   10*MarioGolfRingMatchPandan_mvl/mxv
 BYTE   W02
 BYTE   VOL   9*MarioGolfRingMatchPandan_mvl/mxv
 BYTE   VOL   9*MarioGolfRingMatchPandan_mvl/mxv
 BYTE   VOL   9*MarioGolfRingMatchPandan_mvl/mxv
 BYTE   N07  Ds2  v092
 BYTE   W02
 BYTE   VOL   7*MarioGolfRingMatchPandan_mvl/mxv
 BYTE   VOL   7*MarioGolfRingMatchPandan_mvl/mxv
 BYTE   VOL   7*MarioGolfRingMatchPandan_mvl/mxv
 BYTE   W02
 BYTE   VOL   6*MarioGolfRingMatchPandan_mvl/mxv
 BYTE   VOL   6*MarioGolfRingMatchPandan_mvl/mxv
 BYTE   VOL   6*MarioGolfRingMatchPandan_mvl/mxv
 BYTE   W02
 BYTE   VOL   5*MarioGolfRingMatchPandan_mvl/mxv
 BYTE   VOL   5*MarioGolfRingMatchPandan_mvl/mxv
 BYTE   VOL   5*MarioGolfRingMatchPandan_mvl/mxv
 BYTE   W01
 BYTE   N07  Fs2  v092
 BYTE   W01
 BYTE   VOL   3*MarioGolfRingMatchPandan_mvl/mxv
 BYTE   VOL   3*MarioGolfRingMatchPandan_mvl/mxv
 BYTE   VOL   3*MarioGolfRingMatchPandan_mvl/mxv
 BYTE   W02
 BYTE   VOL   2*MarioGolfRingMatchPandan_mvl/mxv
 BYTE   VOL   2*MarioGolfRingMatchPandan_mvl/mxv
 BYTE   VOL   2*MarioGolfRingMatchPandan_mvl/mxv
 BYTE   W02
 BYTE   VOL   0*MarioGolfRingMatchPandan_mvl/mxv
 BYTE   VOL   0*MarioGolfRingMatchPandan_mvl/mxv
 BYTE   VOL   0*MarioGolfRingMatchPandan_mvl/mxv
 BYTE   W02
 BYTE   VOL   0*MarioGolfRingMatchPandan_mvl/mxv
 BYTE   VOL   0*MarioGolfRingMatchPandan_mvl/mxv
 BYTE   VOL   0*MarioGolfRingMatchPandan_mvl/mxv
 BYTE   N07  Fs2  v092
 BYTE   W02
 BYTE   VOL   0*MarioGolfRingMatchPandan_mvl/mxv
 BYTE   VOL   0*MarioGolfRingMatchPandan_mvl/mxv
 BYTE   VOL   0*MarioGolfRingMatchPandan_mvl/mxv
 BYTE   W02
 BYTE   VOL   0*MarioGolfRingMatchPandan_mvl/mxv
 BYTE   VOL   0*MarioGolfRingMatchPandan_mvl/mxv
 BYTE   VOL   0*MarioGolfRingMatchPandan_mvl/mxv
 BYTE   W02
 BYTE   VOL   0*MarioGolfRingMatchPandan_mvl/mxv
 BYTE   VOL   0*MarioGolfRingMatchPandan_mvl/mxv
 BYTE   VOL   0*MarioGolfRingMatchPandan_mvl/mxv
 BYTE   W01
 BYTE   N07  Fs2  v092
 BYTE   N20  Dn1  v127
 BYTE   W01
 BYTE   VOL   0*MarioGolfRingMatchPandan_mvl/mxv
 BYTE   VOL   0*MarioGolfRingMatchPandan_mvl/mxv
 BYTE   VOL   0*MarioGolfRingMatchPandan_mvl/mxv
 BYTE   W02
 BYTE   VOL   0*MarioGolfRingMatchPandan_mvl/mxv
 BYTE   VOL   0*MarioGolfRingMatchPandan_mvl/mxv
 BYTE   VOL   0*MarioGolfRingMatchPandan_mvl/mxv
 BYTE   W02
 BYTE   VOL   0*MarioGolfRingMatchPandan_mvl/mxv
 BYTE   VOL   0*MarioGolfRingMatchPandan_mvl/mxv
 BYTE   VOL   0*MarioGolfRingMatchPandan_mvl/mxv
 BYTE   W02
 BYTE   VOL   0*MarioGolfRingMatchPandan_mvl/mxv
 BYTE   VOL   0*MarioGolfRingMatchPandan_mvl/mxv
 BYTE   VOL   0*MarioGolfRingMatchPandan_mvl/mxv
 BYTE   N03  Fs2  v092
 BYTE   W02
 BYTE   VOL   0*MarioGolfRingMatchPandan_mvl/mxv
 BYTE   VOL   0*MarioGolfRingMatchPandan_mvl/mxv
 BYTE   VOL   0*MarioGolfRingMatchPandan_mvl/mxv
 BYTE   W01
 BYTE   N07  Ds2  v092
 BYTE   VOL   0*MarioGolfRingMatchPandan_mvl/mxv
 BYTE   VOL   0*MarioGolfRingMatchPandan_mvl/mxv
 BYTE   VOL   0*MarioGolfRingMatchPandan_mvl/mxv
 BYTE   W02
 BYTE   VOL   0*MarioGolfRingMatchPandan_mvl/mxv
 BYTE   VOL   0*MarioGolfRingMatchPandan_mvl/mxv
 BYTE   VOL   0*MarioGolfRingMatchPandan_mvl/mxv
 BYTE   W02
 BYTE   VOL   0*MarioGolfRingMatchPandan_mvl/mxv
 BYTE   VOL   0*MarioGolfRingMatchPandan_mvl/mxv
 BYTE   VOL   0*MarioGolfRingMatchPandan_mvl/mxv
 BYTE   W02
 BYTE   VOL   0*MarioGolfRingMatchPandan_mvl/mxv
 BYTE   VOL   0*MarioGolfRingMatchPandan_mvl/mxv
 BYTE   VOL   0*MarioGolfRingMatchPandan_mvl/mxv
 BYTE   N03  Fs2  v092
 BYTE   W01
 BYTE   VOL   0*MarioGolfRingMatchPandan_mvl/mxv
 BYTE   VOL   0*MarioGolfRingMatchPandan_mvl/mxv
 BYTE   VOL   0*MarioGolfRingMatchPandan_mvl/mxv
 BYTE   W02
 BYTE   VOL   0*MarioGolfRingMatchPandan_mvl/mxv
 BYTE   VOL   0*MarioGolfRingMatchPandan_mvl/mxv
 BYTE   VOL   0*MarioGolfRingMatchPandan_mvl/mxv
 BYTE   N07  Ds2  v092
 BYTE   W02
 BYTE   VOL   0*MarioGolfRingMatchPandan_mvl/mxv
 BYTE   VOL   0*MarioGolfRingMatchPandan_mvl/mxv
 BYTE   VOL   0*MarioGolfRingMatchPandan_mvl/mxv
 BYTE   W02
 BYTE   VOL   0*MarioGolfRingMatchPandan_mvl/mxv
 BYTE   VOL   0*MarioGolfRingMatchPandan_mvl/mxv
 BYTE   VOL   0*MarioGolfRingMatchPandan_mvl/mxv
 BYTE   W02
 BYTE   VOL   0*MarioGolfRingMatchPandan_mvl/mxv
 BYTE   VOL   0*MarioGolfRingMatchPandan_mvl/mxv
 BYTE   VOL   0*MarioGolfRingMatchPandan_mvl/mxv
 BYTE   W01
 BYTE   N07  Fs2  v092
 BYTE   VOL   0*MarioGolfRingMatchPandan_mvl/mxv
 BYTE   VOL   0*MarioGolfRingMatchPandan_mvl/mxv
 BYTE   VOL   0*MarioGolfRingMatchPandan_mvl/mxv
 BYTE   W02
 BYTE   VOL   0*MarioGolfRingMatchPandan_mvl/mxv
 BYTE   VOL   0*MarioGolfRingMatchPandan_mvl/mxv
 BYTE   VOL   0*MarioGolfRingMatchPandan_mvl/mxv
 BYTE   W02
 BYTE   VOL   0*MarioGolfRingMatchPandan_mvl/mxv
 BYTE   VOL   0*MarioGolfRingMatchPandan_mvl/mxv
 BYTE   VOL   0*MarioGolfRingMatchPandan_mvl/mxv
 BYTE   W02
 BYTE   VOL   0*MarioGolfRingMatchPandan_mvl/mxv
 BYTE   VOL   0*MarioGolfRingMatchPandan_mvl/mxv
 BYTE   VOL   0*MarioGolfRingMatchPandan_mvl/mxv
 BYTE   N07  Fs2  v092
 BYTE   W01
 BYTE   VOL   0*MarioGolfRingMatchPandan_mvl/mxv
 BYTE   VOL   0*MarioGolfRingMatchPandan_mvl/mxv
 BYTE   VOL   0*MarioGolfRingMatchPandan_mvl/mxv
 BYTE   W02
// 016   ----------------------------------------
 BYTE   VOL   0*MarioGolfRingMatchPandan_mvl/mxv
 BYTE   VOL   0*MarioGolfRingMatchPandan_mvl/mxv
 BYTE   VOL   0*MarioGolfRingMatchPandan_mvl/mxv
 BYTE   W02
 BYTE   VOL   0*MarioGolfRingMatchPandan_mvl/mxv
 BYTE   VOL   0*MarioGolfRingMatchPandan_mvl/mxv
 BYTE   VOL   0*MarioGolfRingMatchPandan_mvl/mxv
 BYTE   W02
 BYTE   VOL   0*MarioGolfRingMatchPandan_mvl/mxv
 BYTE   VOL   0*MarioGolfRingMatchPandan_mvl/mxv
 BYTE   VOL   0*MarioGolfRingMatchPandan_mvl/mxv
 BYTE   N07  Fs2  v092
 BYTE   N20  Dn1  v127
 BYTE   W02
 BYTE   VOL   0*MarioGolfRingMatchPandan_mvl/mxv
 BYTE   VOL   0*MarioGolfRingMatchPandan_mvl/mxv
 BYTE   VOL   0*MarioGolfRingMatchPandan_mvl/mxv
 BYTE   W02
 BYTE   VOL   0*MarioGolfRingMatchPandan_mvl/mxv
 BYTE   VOL   0*MarioGolfRingMatchPandan_mvl/mxv
 BYTE   VOL   0*MarioGolfRingMatchPandan_mvl/mxv
 BYTE   W02
 BYTE   VOL   0*MarioGolfRingMatchPandan_mvl/mxv
 BYTE   VOL   0*MarioGolfRingMatchPandan_mvl/mxv
 BYTE   VOL   0*MarioGolfRingMatchPandan_mvl/mxv
 BYTE   W01
 BYTE   N03  Fs2  v092
 BYTE   VOL   0*MarioGolfRingMatchPandan_mvl/mxv
 BYTE   VOL   0*MarioGolfRingMatchPandan_mvl/mxv
 BYTE   VOL   0*MarioGolfRingMatchPandan_mvl/mxv
 BYTE   W02
 BYTE   VOL   0*MarioGolfRingMatchPandan_mvl/mxv
 BYTE   VOL   0*MarioGolfRingMatchPandan_mvl/mxv
 BYTE   VOL   0*MarioGolfRingMatchPandan_mvl/mxv
 BYTE   W01
 BYTE   N07  Ds2  v092
 BYTE   W01
 BYTE   VOL   0*MarioGolfRingMatchPandan_mvl/mxv
 BYTE   VOL   0*MarioGolfRingMatchPandan_mvl/mxv
 BYTE   VOL   0*MarioGolfRingMatchPandan_mvl/mxv
 BYTE   W02
 BYTE   VOL   0*MarioGolfRingMatchPandan_mvl/mxv
 BYTE   VOL   0*MarioGolfRingMatchPandan_mvl/mxv
 BYTE   VOL   0*MarioGolfRingMatchPandan_mvl/mxv
 BYTE   W02
 BYTE   VOL   0*MarioGolfRingMatchPandan_mvl/mxv
 BYTE   VOL   0*MarioGolfRingMatchPandan_mvl/mxv
 BYTE   VOL   0*MarioGolfRingMatchPandan_mvl/mxv
 BYTE   W02
 BYTE   VOL   0*MarioGolfRingMatchPandan_mvl/mxv
 BYTE   VOL   0*MarioGolfRingMatchPandan_mvl/mxv
 BYTE   VOL   0*MarioGolfRingMatchPandan_mvl/mxv
 BYTE   N03  Fs2  v092
 BYTE   W01
 BYTE   VOL   0*MarioGolfRingMatchPandan_mvl/mxv
 BYTE   VOL   0*MarioGolfRingMatchPandan_mvl/mxv
 BYTE   VOL   0*MarioGolfRingMatchPandan_mvl/mxv
 BYTE   W02
 BYTE   VOL   0*MarioGolfRingMatchPandan_mvl/mxv
 BYTE   VOL   0*MarioGolfRingMatchPandan_mvl/mxv
 BYTE   VOL   0*MarioGolfRingMatchPandan_mvl/mxv
 BYTE   N07  Ds2  v092
 BYTE   W02
 BYTE   VOL   0*MarioGolfRingMatchPandan_mvl/mxv
 BYTE   VOL   0*MarioGolfRingMatchPandan_mvl/mxv
 BYTE   VOL   0*MarioGolfRingMatchPandan_mvl/mxv
 BYTE   W02
 BYTE   VOL   0*MarioGolfRingMatchPandan_mvl/mxv
 BYTE   VOL   0*MarioGolfRingMatchPandan_mvl/mxv
 BYTE   VOL   0*MarioGolfRingMatchPandan_mvl/mxv
 BYTE   W02
 BYTE   VOL   0*MarioGolfRingMatchPandan_mvl/mxv
 BYTE   VOL   0*MarioGolfRingMatchPandan_mvl/mxv
 BYTE   VOL   0*MarioGolfRingMatchPandan_mvl/mxv
 BYTE   W01
 BYTE   N07  Fs2  v092
 BYTE   VOL   0*MarioGolfRingMatchPandan_mvl/mxv
 BYTE   VOL   0*MarioGolfRingMatchPandan_mvl/mxv
 BYTE   VOL   0*MarioGolfRingMatchPandan_mvl/mxv
 BYTE   W02
 BYTE   VOL   0*MarioGolfRingMatchPandan_mvl/mxv
 BYTE   VOL   0*MarioGolfRingMatchPandan_mvl/mxv
 BYTE   VOL   0*MarioGolfRingMatchPandan_mvl/mxv
 BYTE   W02
 BYTE   VOL   0*MarioGolfRingMatchPandan_mvl/mxv
 BYTE   VOL   0*MarioGolfRingMatchPandan_mvl/mxv
 BYTE   VOL   0*MarioGolfRingMatchPandan_mvl/mxv
 BYTE   W02
 BYTE   VOL   0*MarioGolfRingMatchPandan_mvl/mxv
 BYTE   VOL   0*MarioGolfRingMatchPandan_mvl/mxv
 BYTE   VOL   0*MarioGolfRingMatchPandan_mvl/mxv
 BYTE   N07  Fs2  v092
 BYTE   W01
 BYTE   VOL   0*MarioGolfRingMatchPandan_mvl/mxv
 BYTE   VOL   0*MarioGolfRingMatchPandan_mvl/mxv
 BYTE   VOL   0*MarioGolfRingMatchPandan_mvl/mxv
 BYTE   W02
 BYTE   VOL   0*MarioGolfRingMatchPandan_mvl/mxv
 BYTE   VOL   0*MarioGolfRingMatchPandan_mvl/mxv
 BYTE   VOL   0*MarioGolfRingMatchPandan_mvl/mxv
 BYTE   W02
 BYTE   VOL   0*MarioGolfRingMatchPandan_mvl/mxv
 BYTE   VOL   0*MarioGolfRingMatchPandan_mvl/mxv
 BYTE   VOL   0*MarioGolfRingMatchPandan_mvl/mxv
 BYTE   W02
 BYTE   VOL   0*MarioGolfRingMatchPandan_mvl/mxv
 BYTE   VOL   0*MarioGolfRingMatchPandan_mvl/mxv
 BYTE   VOL   0*MarioGolfRingMatchPandan_mvl/mxv
 BYTE   N07  Fs2  v092
 BYTE   N20  Dn1  v127
 BYTE   W02
 BYTE   VOL   0*MarioGolfRingMatchPandan_mvl/mxv
 BYTE   VOL   0*MarioGolfRingMatchPandan_mvl/mxv
 BYTE   VOL   0*MarioGolfRingMatchPandan_mvl/mxv
 BYTE   W02
 BYTE   VOL   0*MarioGolfRingMatchPandan_mvl/mxv
 BYTE   VOL   0*MarioGolfRingMatchPandan_mvl/mxv
 BYTE   VOL   0*MarioGolfRingMatchPandan_mvl/mxv
 BYTE   W02
 BYTE   VOL   0*MarioGolfRingMatchPandan_mvl/mxv
 BYTE   VOL   0*MarioGolfRingMatchPandan_mvl/mxv
 BYTE   VOL   0*MarioGolfRingMatchPandan_mvl/mxv
 BYTE   W01
 BYTE   N03  Fs2  v092
 BYTE   VOL   0*MarioGolfRingMatchPandan_mvl/mxv
 BYTE   VOL   0*MarioGolfRingMatchPandan_mvl/mxv
 BYTE   VOL   0*MarioGolfRingMatchPandan_mvl/mxv
 BYTE   W02
 BYTE   VOL   0*MarioGolfRingMatchPandan_mvl/mxv
 BYTE   VOL   0*MarioGolfRingMatchPandan_mvl/mxv
 BYTE   VOL   0*MarioGolfRingMatchPandan_mvl/mxv
 BYTE   W01
 BYTE   N07  Ds2  v092
 BYTE   W01
 BYTE   VOL   0*MarioGolfRingMatchPandan_mvl/mxv
 BYTE   VOL   0*MarioGolfRingMatchPandan_mvl/mxv
 BYTE   VOL   0*MarioGolfRingMatchPandan_mvl/mxv
 BYTE   W02
 BYTE   VOL   0*MarioGolfRingMatchPandan_mvl/mxv
 BYTE   VOL   0*MarioGolfRingMatchPandan_mvl/mxv
 BYTE   VOL   0*MarioGolfRingMatchPandan_mvl/mxv
 BYTE   W02
 BYTE   VOL   0*MarioGolfRingMatchPandan_mvl/mxv
 BYTE   VOL   0*MarioGolfRingMatchPandan_mvl/mxv
 BYTE   VOL   0*MarioGolfRingMatchPandan_mvl/mxv
 BYTE   W02
 BYTE   VOL   0*MarioGolfRingMatchPandan_mvl/mxv
 BYTE   VOL   0*MarioGolfRingMatchPandan_mvl/mxv
 BYTE   VOL   0*MarioGolfRingMatchPandan_mvl/mxv
 BYTE   N03  Fs2  v092
 BYTE   W01
 BYTE   VOL   0*MarioGolfRingMatchPandan_mvl/mxv
 BYTE   VOL   0*MarioGolfRingMatchPandan_mvl/mxv
 BYTE   VOL   0*MarioGolfRingMatchPandan_mvl/mxv
 BYTE   W02
 BYTE   VOL   0*MarioGolfRingMatchPandan_mvl/mxv
 BYTE   VOL   0*MarioGolfRingMatchPandan_mvl/mxv
 BYTE   VOL   0*MarioGolfRingMatchPandan_mvl/mxv
 BYTE   N07  Ds2  v092
 BYTE   W02
 BYTE   VOL   0*MarioGolfRingMatchPandan_mvl/mxv
 BYTE   VOL   0*MarioGolfRingMatchPandan_mvl/mxv
 BYTE   VOL   0*MarioGolfRingMatchPandan_mvl/mxv
 BYTE   W02
 BYTE   VOL   0*MarioGolfRingMatchPandan_mvl/mxv
 BYTE   VOL   0*MarioGolfRingMatchPandan_mvl/mxv
 BYTE   VOL   0*MarioGolfRingMatchPandan_mvl/mxv
 BYTE   W02
 BYTE   VOL   0*MarioGolfRingMatchPandan_mvl/mxv
 BYTE   VOL   0*MarioGolfRingMatchPandan_mvl/mxv
 BYTE   VOL   0*MarioGolfRingMatchPandan_mvl/mxv
 BYTE   W01
 BYTE   N07  Fs2  v092
 BYTE   W01
 BYTE   VOL   0*MarioGolfRingMatchPandan_mvl/mxv
 BYTE   VOL   0*MarioGolfRingMatchPandan_mvl/mxv
 BYTE   VOL   0*MarioGolfRingMatchPandan_mvl/mxv
 BYTE   W02
 BYTE   VOL   0*MarioGolfRingMatchPandan_mvl/mxv
 BYTE   VOL   0*MarioGolfRingMatchPandan_mvl/mxv
 BYTE   VOL   0*MarioGolfRingMatchPandan_mvl/mxv
 BYTE   W02
 BYTE   VOL   0*MarioGolfRingMatchPandan_mvl/mxv
 BYTE   VOL   0*MarioGolfRingMatchPandan_mvl/mxv
 BYTE   VOL   0*MarioGolfRingMatchPandan_mvl/mxv
 BYTE   W02
 BYTE   N07  Fs2  v092
 BYTE   VOL   0*MarioGolfRingMatchPandan_mvl/mxv
 BYTE   VOL   0*MarioGolfRingMatchPandan_mvl/mxv
 BYTE   VOL   0*MarioGolfRingMatchPandan_mvl/mxv
 BYTE   W02
 BYTE   VOL   0*MarioGolfRingMatchPandan_mvl/mxv
 BYTE   VOL   0*MarioGolfRingMatchPandan_mvl/mxv
 BYTE   VOL   0*MarioGolfRingMatchPandan_mvl/mxv
 BYTE   W02
 BYTE   VOL   0*MarioGolfRingMatchPandan_mvl/mxv
 BYTE   VOL   0*MarioGolfRingMatchPandan_mvl/mxv
 BYTE   VOL   0*MarioGolfRingMatchPandan_mvl/mxv
 BYTE   W02
 BYTE   VOL   0*MarioGolfRingMatchPandan_mvl/mxv
 BYTE   VOL   0*MarioGolfRingMatchPandan_mvl/mxv
 BYTE   VOL   0*MarioGolfRingMatchPandan_mvl/mxv
 BYTE   N07  Fs2  v092
 BYTE   N20  Dn1  v127
 BYTE   W01
 BYTE   VOL   0*MarioGolfRingMatchPandan_mvl/mxv
 BYTE   VOL   0*MarioGolfRingMatchPandan_mvl/mxv
 BYTE   VOL   0*MarioGolfRingMatchPandan_mvl/mxv
 BYTE   W02
 BYTE   VOL   0*MarioGolfRingMatchPandan_mvl/mxv
 BYTE   VOL   0*MarioGolfRingMatchPandan_mvl/mxv
 BYTE   VOL   0*MarioGolfRingMatchPandan_mvl/mxv
 BYTE   W02
 BYTE   VOL   0*MarioGolfRingMatchPandan_mvl/mxv
 BYTE   VOL   0*MarioGolfRingMatchPandan_mvl/mxv
 BYTE   VOL   0*MarioGolfRingMatchPandan_mvl/mxv
 BYTE   W01
 BYTE   N03  Fs2  v092
 BYTE   VOL   0*MarioGolfRingMatchPandan_mvl/mxv
 BYTE   VOL   0*MarioGolfRingMatchPandan_mvl/mxv
 BYTE   VOL   0*MarioGolfRingMatchPandan_mvl/mxv
 BYTE   W02
 BYTE   VOL   0*MarioGolfRingMatchPandan_mvl/mxv
 BYTE   VOL   0*MarioGolfRingMatchPandan_mvl/mxv
 BYTE   VOL   0*MarioGolfRingMatchPandan_mvl/mxv
 BYTE   W01
 BYTE   N07  Ds2  v092
 BYTE   W01
 BYTE   VOL   0*MarioGolfRingMatchPandan_mvl/mxv
 BYTE   VOL   0*MarioGolfRingMatchPandan_mvl/mxv
 BYTE   VOL   0*MarioGolfRingMatchPandan_mvl/mxv
 BYTE   W02
// 017   ----------------------------------------
 BYTE   VOL   0*MarioGolfRingMatchPandan_mvl/mxv
 BYTE   VOL   0*MarioGolfRingMatchPandan_mvl/mxv
 BYTE   VOL   0*MarioGolfRingMatchPandan_mvl/mxv
 BYTE   W02
 BYTE   VOL   0*MarioGolfRingMatchPandan_mvl/mxv
 BYTE   VOL   0*MarioGolfRingMatchPandan_mvl/mxv
 BYTE   VOL   0*MarioGolfRingMatchPandan_mvl/mxv
 BYTE   W01
 BYTE   N03  Fs2  v092
 BYTE   VOL   0*MarioGolfRingMatchPandan_mvl/mxv
 BYTE   VOL   0*MarioGolfRingMatchPandan_mvl/mxv
 BYTE   VOL   0*MarioGolfRingMatchPandan_mvl/mxv
 BYTE   W02
 BYTE   VOL   0*MarioGolfRingMatchPandan_mvl/mxv
 BYTE   VOL   0*MarioGolfRingMatchPandan_mvl/mxv
 BYTE   VOL   0*MarioGolfRingMatchPandan_mvl/mxv
 BYTE   W01
 BYTE   N07  Ds2  v092
 BYTE   W01
 BYTE   VOL   0*MarioGolfRingMatchPandan_mvl/mxv
 BYTE   VOL   0*MarioGolfRingMatchPandan_mvl/mxv
 BYTE   VOL   0*MarioGolfRingMatchPandan_mvl/mxv
 BYTE   W02
 BYTE   VOL   0*MarioGolfRingMatchPandan_mvl/mxv
 BYTE   VOL   0*MarioGolfRingMatchPandan_mvl/mxv
 BYTE   VOL   0*MarioGolfRingMatchPandan_mvl/mxv
 BYTE   W02
 BYTE   VOL   0*MarioGolfRingMatchPandan_mvl/mxv
 BYTE   VOL   0*MarioGolfRingMatchPandan_mvl/mxv
 BYTE   VOL   0*MarioGolfRingMatchPandan_mvl/mxv
 BYTE   W02
 BYTE   N07  Fs2  v092
 BYTE   VOL   0*MarioGolfRingMatchPandan_mvl/mxv
 BYTE   VOL   0*MarioGolfRingMatchPandan_mvl/mxv
 BYTE   VOL   0*MarioGolfRingMatchPandan_mvl/mxv
 BYTE   W02
 BYTE   VOL   0*MarioGolfRingMatchPandan_mvl/mxv
 BYTE   VOL   0*MarioGolfRingMatchPandan_mvl/mxv
 BYTE   VOL   0*MarioGolfRingMatchPandan_mvl/mxv
 BYTE   W02
 BYTE   VOL   0*MarioGolfRingMatchPandan_mvl/mxv
 BYTE   VOL   0*MarioGolfRingMatchPandan_mvl/mxv
 BYTE   VOL   0*MarioGolfRingMatchPandan_mvl/mxv
 BYTE   W02
 BYTE   VOL   0*MarioGolfRingMatchPandan_mvl/mxv
 BYTE   VOL   0*MarioGolfRingMatchPandan_mvl/mxv
 BYTE   VOL   0*MarioGolfRingMatchPandan_mvl/mxv
 BYTE   N07  Fs2  v092
 BYTE   W01
 BYTE   VOL   0*MarioGolfRingMatchPandan_mvl/mxv
 BYTE   VOL   0*MarioGolfRingMatchPandan_mvl/mxv
 BYTE   VOL   0*MarioGolfRingMatchPandan_mvl/mxv
 BYTE   W02
 BYTE   VOL   0*MarioGolfRingMatchPandan_mvl/mxv
 BYTE   VOL   0*MarioGolfRingMatchPandan_mvl/mxv
 BYTE   VOL   0*MarioGolfRingMatchPandan_mvl/mxv
 BYTE   W02
 BYTE   VOL   0*MarioGolfRingMatchPandan_mvl/mxv
 BYTE   VOL   0*MarioGolfRingMatchPandan_mvl/mxv
 BYTE   VOL   0*MarioGolfRingMatchPandan_mvl/mxv
 BYTE   W01
 BYTE   N07  Fs2  v092
 BYTE   N20  Dn1  v127
 BYTE   VOL   0*MarioGolfRingMatchPandan_mvl/mxv
 BYTE   VOL   0*MarioGolfRingMatchPandan_mvl/mxv
 BYTE   VOL   0*MarioGolfRingMatchPandan_mvl/mxv
 BYTE   W02
 BYTE   VOL   0*MarioGolfRingMatchPandan_mvl/mxv
 BYTE   VOL   0*MarioGolfRingMatchPandan_mvl/mxv
 BYTE   VOL   0*MarioGolfRingMatchPandan_mvl/mxv
 BYTE   W02
 BYTE   VOL   0*MarioGolfRingMatchPandan_mvl/mxv
 BYTE   VOL   0*MarioGolfRingMatchPandan_mvl/mxv
 BYTE   VOL   0*MarioGolfRingMatchPandan_mvl/mxv
 BYTE   W02
 BYTE   VOL   0*MarioGolfRingMatchPandan_mvl/mxv
 BYTE   VOL   0*MarioGolfRingMatchPandan_mvl/mxv
 BYTE   VOL   0*MarioGolfRingMatchPandan_mvl/mxv
 BYTE   N03  Fs2  v092
 BYTE   W01
 BYTE   VOL   0*MarioGolfRingMatchPandan_mvl/mxv
 BYTE   VOL   0*MarioGolfRingMatchPandan_mvl/mxv
 BYTE   VOL   0*MarioGolfRingMatchPandan_mvl/mxv
 BYTE   W02
 BYTE   N07  Ds2  v092
 BYTE   VOL   0*MarioGolfRingMatchPandan_mvl/mxv
 BYTE   VOL   0*MarioGolfRingMatchPandan_mvl/mxv
 BYTE   VOL   0*MarioGolfRingMatchPandan_mvl/mxv
 BYTE   W02
 BYTE   VOL   0*MarioGolfRingMatchPandan_mvl/mxv
 BYTE   VOL   0*MarioGolfRingMatchPandan_mvl/mxv
 BYTE   VOL   0*MarioGolfRingMatchPandan_mvl/mxv
 BYTE   W02
 BYTE   VOL   0*MarioGolfRingMatchPandan_mvl/mxv
 BYTE   VOL   0*MarioGolfRingMatchPandan_mvl/mxv
 BYTE   VOL   0*MarioGolfRingMatchPandan_mvl/mxv
 BYTE   W02
 BYTE   VOL   0*MarioGolfRingMatchPandan_mvl/mxv
 BYTE   VOL   0*MarioGolfRingMatchPandan_mvl/mxv
 BYTE   VOL   0*MarioGolfRingMatchPandan_mvl/mxv
 BYTE   N03  Fs2  v092
 BYTE   W01
 BYTE   VOL   0*MarioGolfRingMatchPandan_mvl/mxv
 BYTE   VOL   0*MarioGolfRingMatchPandan_mvl/mxv
 BYTE   VOL   0*MarioGolfRingMatchPandan_mvl/mxv
 BYTE   W02
 BYTE   VOL   0*MarioGolfRingMatchPandan_mvl/mxv
 BYTE   VOL   0*MarioGolfRingMatchPandan_mvl/mxv
 BYTE   VOL   0*MarioGolfRingMatchPandan_mvl/mxv
 BYTE   N07  Ds2  v092
 BYTE   W08
 BYTE   Fs2
 BYTE   W08
 BYTE   Fs2
 BYTE   W08
 BYTE   Fs2
 BYTE   N20  Dn1  v127
 BYTE   W08
 BYTE   N03  Fs2  v092
 BYTE   W04
 BYTE   N07  Ds2
 BYTE   W08
 BYTE   N03  Fs2
 BYTE   W04
 BYTE   N07  Ds2
 BYTE   W08
// 018   ----------------------------------------
 BYTE   Fs2
 BYTE   W08
 BYTE   Fs2
 BYTE   W08
 BYTE   Dn1  v127
 BYTE   N07  Fs2  v092
 BYTE   W08
 BYTE   N03  Dn1  v127
 BYTE   N03  Fs2  v092
 BYTE   W04
 BYTE   N07  Dn1  v127
 BYTE   N07  Ds2  v092
 BYTE   W08
 BYTE   N03  Dn1  v127
 BYTE   N03  Fs2  v092
 BYTE   W04
 BYTE   GoTo
  POIN2 Label_6_011DF6D0
 BYTE   FINE

//**************** Track 8 (Midi-Chn.7) ****************//

MarioGolfRingMatchPandan_008:
// 000   ----------------------------------------
Label_7_011DFF08:
 BYTE   TEMPO   80*MarioGolfRingMatchPandan_tbs/2
 BYTE   TEMPO   80*MarioGolfRingMatchPandan_tbs/2
 BYTE   KEYSH   MarioGolfRingMatchPandan_key+0
 BYTE   VOICE   118
 BYTE   VOL   25*MarioGolfRingMatchPandan_mvl/mxv
 BYTE   PAN   c_v+0
 BYTE   N07  Bn1  v127
 BYTE   W16
 BYTE   Bn1
 BYTE   W32
 BYTE   Bn1
 BYTE   W16
 BYTE   Bn1
 BYTE   W32
// 001   ----------------------------------------
Label_7_011DFF1E:
 BYTE   N07  Bn1  v127
 BYTE   W16
 BYTE   Bn1
 BYTE   W32
 BYTE   Bn1
 BYTE   W16
 BYTE   Bn1
 BYTE   W32
 BYTE   PEND 
// 002   ----------------------------------------
Label_7_011DFF29:
 BYTE   N07  Bn1  v127
 BYTE   W16
 BYTE   Bn1
 BYTE   W32
 BYTE   Bn1
 BYTE   W08
 BYTE   Bn1
 BYTE   W08
 BYTE   Bn1
 BYTE   W32
 BYTE   PEND 
// 003   ----------------------------------------
Label_7_011DFF36:
 BYTE   N07  Bn1  v127
 BYTE   W16
 BYTE   Bn1
 BYTE   W32
 BYTE   Bn1
 BYTE   W16
 BYTE   Bn1
 BYTE   W16
 BYTE   Bn1
 BYTE   W08
 BYTE   Bn1
 BYTE   W08
 BYTE   PEND 
 BYTE   PATT
  POIN2 Label_7_011DFF1E
 BYTE   PATT
  POIN2 Label_7_011DFF1E
 BYTE   PATT
  POIN2 Label_7_011DFF29
 BYTE   PATT
  POIN2 Label_7_011DFF1E
 BYTE   PATT
  POIN2 Label_7_011DFF29
 BYTE   PATT
  POIN2 Label_7_011DFF36
// 004   ----------------------------------------
 BYTE   N07  Bn1  v127
 BYTE   W16
 BYTE   Bn1
 BYTE   W32
 BYTE   Bn1
 BYTE   W08
 BYTE   Bn1
 BYTE   W08
 BYTE   Bn1
 BYTE   W80
 BYTE   PATT
  POIN2 Label_7_011DFF1E
 BYTE   PATT
  POIN2 Label_7_011DFF29
 BYTE   PATT
  POIN2 Label_7_011DFF36
 BYTE   PATT
  POIN2 Label_7_011DFF29
 BYTE   PATT
  POIN2 Label_7_011DFF1E
 BYTE   PATT
  POIN2 Label_7_011DFF1E
 BYTE   PATT
  POIN2 Label_7_011DFF1E
 BYTE   PATT
  POIN2 Label_7_011DFF29
 BYTE   PATT
  POIN2 Label_7_011DFF36
 BYTE   PATT
  POIN2 Label_7_011DFF1E
 BYTE   PATT
  POIN2 Label_7_011DFF1E
 BYTE   PATT
  POIN2 Label_7_011DFF29
 BYTE   PATT
  POIN2 Label_7_011DFF1E
 BYTE   PATT
  POIN2 Label_7_011DFF1E
 BYTE   PATT
  POIN2 Label_7_011DFF1E
 BYTE   PATT
  POIN2 Label_7_011DFF1E
// 005   ----------------------------------------
 BYTE   N07  Bn1  v127
 BYTE   W16
 BYTE   Bn1
 BYTE   W32
 BYTE   TEMPO   80*MarioGolfRingMatchPandan_tbs/2
 BYTE   TEMPO   80*MarioGolfRingMatchPandan_tbs/2
 BYTE   N07  Bn1  v108
 BYTE   W16
 BYTE   Bn1
 BYTE   W32
// 006   ----------------------------------------
Label_7_011DFFCF:
 BYTE   N07  Bn1  v108
 BYTE   W16
 BYTE   Bn1
 BYTE   W32
 BYTE   Bn1
 BYTE   W16
 BYTE   Bn1
 BYTE   W32
 BYTE   PEND 
 BYTE   PATT
  POIN2 Label_7_011DFFCF
 BYTE   PATT
  POIN2 Label_7_011DFFCF
// 007   ----------------------------------------
 BYTE   N07  Bn1  v108
 BYTE   W16
 BYTE   Bn1
 BYTE   W32
 BYTE   VOL   25*MarioGolfRingMatchPandan_mvl/mxv
 BYTE   N07  Bn1  v108
 BYTE   W02
 BYTE   VOL   25*MarioGolfRingMatchPandan_mvl/mxv
 BYTE   W02
 BYTE   VOL   25*MarioGolfRingMatchPandan_mvl/mxv
 BYTE   W02
 BYTE   VOL   25*MarioGolfRingMatchPandan_mvl/mxv
 BYTE   W02
 BYTE   VOL   25*MarioGolfRingMatchPandan_mvl/mxv
 BYTE   W02
 BYTE   VOL   25*MarioGolfRingMatchPandan_mvl/mxv
 BYTE   W02
 BYTE   VOL   25*MarioGolfRingMatchPandan_mvl/mxv
 BYTE   W02
 BYTE   VOL   25*MarioGolfRingMatchPandan_mvl/mxv
 BYTE   N07  Bn1  v108
 BYTE   W02
 BYTE   VOL   25*MarioGolfRingMatchPandan_mvl/mxv
 BYTE   W02
 BYTE   VOL   25*MarioGolfRingMatchPandan_mvl/mxv
 BYTE   W02
 BYTE   VOL   25*MarioGolfRingMatchPandan_mvl/mxv
 BYTE   W02
 BYTE   VOL   25*MarioGolfRingMatchPandan_mvl/mxv
 BYTE   W02
 BYTE   VOL   25*MarioGolfRingMatchPandan_mvl/mxv
 BYTE   W02
 BYTE   VOL   25*MarioGolfRingMatchPandan_mvl/mxv
 BYTE   W02
 BYTE   VOL   25*MarioGolfRingMatchPandan_mvl/mxv
 BYTE   W02
 BYTE   VOL   25*MarioGolfRingMatchPandan_mvl/mxv
 BYTE   W02
 BYTE   VOL   25*MarioGolfRingMatchPandan_mvl/mxv
 BYTE   W02
 BYTE   VOL   25*MarioGolfRingMatchPandan_mvl/mxv
 BYTE   W02
 BYTE   VOL   25*MarioGolfRingMatchPandan_mvl/mxv
 BYTE   W02
 BYTE   VOL   25*MarioGolfRingMatchPandan_mvl/mxv
 BYTE   W02
 BYTE   VOL   25*MarioGolfRingMatchPandan_mvl/mxv
 BYTE   W02
 BYTE   VOL   25*MarioGolfRingMatchPandan_mvl/mxv
 BYTE   N07  Bn1  v108
 BYTE   W02
 BYTE   VOL   25*MarioGolfRingMatchPandan_mvl/mxv
 BYTE   W02
 BYTE   VOL   25*MarioGolfRingMatchPandan_mvl/mxv
 BYTE   W02
// 008   ----------------------------------------
 BYTE   VOL   25*MarioGolfRingMatchPandan_mvl/mxv
 BYTE   W02
 BYTE   VOL   25*MarioGolfRingMatchPandan_mvl/mxv
 BYTE   W02
 BYTE   VOL   25*MarioGolfRingMatchPandan_mvl/mxv
 BYTE   W02
 BYTE   VOL   25*MarioGolfRingMatchPandan_mvl/mxv
 BYTE   W02
 BYTE   VOL   25*MarioGolfRingMatchPandan_mvl/mxv
 BYTE   N07  Bn1  v108
 BYTE   W02
 BYTE   VOL   25*MarioGolfRingMatchPandan_mvl/mxv
 BYTE   W02
 BYTE   VOL   25*MarioGolfRingMatchPandan_mvl/mxv
 BYTE   W02
 BYTE   VOL   25*MarioGolfRingMatchPandan_mvl/mxv
 BYTE   W02
 BYTE   VOL   25*MarioGolfRingMatchPandan_mvl/mxv
 BYTE   W02
 BYTE   VOL   25*MarioGolfRingMatchPandan_mvl/mxv
 BYTE   W02
 BYTE   VOL   25*MarioGolfRingMatchPandan_mvl/mxv
 BYTE   W02
 BYTE   VOL   25*MarioGolfRingMatchPandan_mvl/mxv
 BYTE   W02
 BYTE   VOL   25*MarioGolfRingMatchPandan_mvl/mxv
 BYTE   W02
 BYTE   VOL   25*MarioGolfRingMatchPandan_mvl/mxv
 BYTE   W02
 BYTE   VOL   25*MarioGolfRingMatchPandan_mvl/mxv
 BYTE   W02
 BYTE   VOL   25*MarioGolfRingMatchPandan_mvl/mxv
 BYTE   W02
 BYTE   VOL   25*MarioGolfRingMatchPandan_mvl/mxv
 BYTE   W02
 BYTE   VOL   25*MarioGolfRingMatchPandan_mvl/mxv
 BYTE   W02
 BYTE   VOL   25*MarioGolfRingMatchPandan_mvl/mxv
 BYTE   N07  Bn1  v108
 BYTE   W02
 BYTE   VOL   25*MarioGolfRingMatchPandan_mvl/mxv
 BYTE   W02
 BYTE   VOL   25*MarioGolfRingMatchPandan_mvl/mxv
 BYTE   W02
 BYTE   VOL   25*MarioGolfRingMatchPandan_mvl/mxv
 BYTE   W02
 BYTE   VOL   25*MarioGolfRingMatchPandan_mvl/mxv
 BYTE   W02
 BYTE   VOL   25*MarioGolfRingMatchPandan_mvl/mxv
 BYTE   W02
 BYTE   VOL   25*MarioGolfRingMatchPandan_mvl/mxv
 BYTE   W02
 BYTE   VOL   25*MarioGolfRingMatchPandan_mvl/mxv
 BYTE   N07  Bn1  v108
 BYTE   W01
 BYTE   VOL   25*MarioGolfRingMatchPandan_mvl/mxv
 BYTE   W02
 BYTE   VOL   25*MarioGolfRingMatchPandan_mvl/mxv
 BYTE   W02
 BYTE   VOL   25*MarioGolfRingMatchPandan_mvl/mxv
 BYTE   W02
 BYTE   VOL   25*MarioGolfRingMatchPandan_mvl/mxv
 BYTE   W02
 BYTE   VOL   25*MarioGolfRingMatchPandan_mvl/mxv
 BYTE   W02
 BYTE   VOL   25*MarioGolfRingMatchPandan_mvl/mxv
 BYTE   W02
 BYTE   VOL   25*MarioGolfRingMatchPandan_mvl/mxv
 BYTE   W02
 BYTE   VOL   25*MarioGolfRingMatchPandan_mvl/mxv
 BYTE   W02
 BYTE   VOL   25*MarioGolfRingMatchPandan_mvl/mxv
 BYTE   W02
 BYTE   VOL   25*MarioGolfRingMatchPandan_mvl/mxv
 BYTE   W02
 BYTE   VOL   25*MarioGolfRingMatchPandan_mvl/mxv
 BYTE   W02
 BYTE   VOL   25*MarioGolfRingMatchPandan_mvl/mxv
 BYTE   W02
 BYTE   VOL   25*MarioGolfRingMatchPandan_mvl/mxv
 BYTE   W02
 BYTE   VOL   25*MarioGolfRingMatchPandan_mvl/mxv
 BYTE   W02
 BYTE   VOL   25*MarioGolfRingMatchPandan_mvl/mxv
 BYTE   N07  Bn1  v108
 BYTE   W02
 BYTE   VOL   25*MarioGolfRingMatchPandan_mvl/mxv
 BYTE   W02
 BYTE   VOL   25*MarioGolfRingMatchPandan_mvl/mxv
 BYTE   W02
 BYTE   VOL   25*MarioGolfRingMatchPandan_mvl/mxv
 BYTE   W02
 BYTE   VOL   25*MarioGolfRingMatchPandan_mvl/mxv
 BYTE   W02
 BYTE   VOL   25*MarioGolfRingMatchPandan_mvl/mxv
 BYTE   W02
 BYTE   VOL   25*MarioGolfRingMatchPandan_mvl/mxv
 BYTE   W02
 BYTE   VOL   25*MarioGolfRingMatchPandan_mvl/mxv
 BYTE   N07  Bn1  v108
 BYTE   W01
 BYTE   VOL   25*MarioGolfRingMatchPandan_mvl/mxv
 BYTE   W02
// 009   ----------------------------------------
 BYTE   VOL   25*MarioGolfRingMatchPandan_mvl/mxv
 BYTE   W02
 BYTE   VOL   25*MarioGolfRingMatchPandan_mvl/mxv
 BYTE   W02
 BYTE   VOL   25*MarioGolfRingMatchPandan_mvl/mxv
 BYTE   W02
 BYTE   VOL   25*MarioGolfRingMatchPandan_mvl/mxv
 BYTE   W02
 BYTE   VOL   25*MarioGolfRingMatchPandan_mvl/mxv
 BYTE   W02
 BYTE   VOL   25*MarioGolfRingMatchPandan_mvl/mxv
 BYTE   W02
 BYTE   VOL   25*MarioGolfRingMatchPandan_mvl/mxv
 BYTE   W02
 BYTE   VOL   25*MarioGolfRingMatchPandan_mvl/mxv
 BYTE   W02
 BYTE   VOL   25*MarioGolfRingMatchPandan_mvl/mxv
 BYTE   W02
 BYTE   VOL   25*MarioGolfRingMatchPandan_mvl/mxv
 BYTE   W02
 BYTE   VOL   25*MarioGolfRingMatchPandan_mvl/mxv
 BYTE   W02
 BYTE   VOL   25*MarioGolfRingMatchPandan_mvl/mxv
 BYTE   W02
 BYTE   VOL   25*MarioGolfRingMatchPandan_mvl/mxv
 BYTE   W02
 BYTE   VOL   25*MarioGolfRingMatchPandan_mvl/mxv
 BYTE   N07  Bn1  v108
 BYTE   W02
 BYTE   VOL   25*MarioGolfRingMatchPandan_mvl/mxv
 BYTE   W02
 BYTE   VOL   25*MarioGolfRingMatchPandan_mvl/mxv
 BYTE   W02
 BYTE   VOL   25*MarioGolfRingMatchPandan_mvl/mxv
 BYTE   W02
 BYTE   VOL   25*MarioGolfRingMatchPandan_mvl/mxv
 BYTE   W02
 BYTE   VOL   25*MarioGolfRingMatchPandan_mvl/mxv
 BYTE   W02
 BYTE   VOL   25*MarioGolfRingMatchPandan_mvl/mxv
 BYTE   W02
 BYTE   N07  Bn1  v108
 BYTE   VOL   25*MarioGolfRingMatchPandan_mvl/mxv
 BYTE   W02
 BYTE   VOL   25*MarioGolfRingMatchPandan_mvl/mxv
 BYTE   W02
 BYTE   VOL   25*MarioGolfRingMatchPandan_mvl/mxv
 BYTE   W02
 BYTE   VOL   25*MarioGolfRingMatchPandan_mvl/mxv
 BYTE   W02
 BYTE   VOL   25*MarioGolfRingMatchPandan_mvl/mxv
 BYTE   W02
 BYTE   VOL   25*MarioGolfRingMatchPandan_mvl/mxv
 BYTE   W02
 BYTE   VOL   25*MarioGolfRingMatchPandan_mvl/mxv
 BYTE   W02
 BYTE   VOL   25*MarioGolfRingMatchPandan_mvl/mxv
 BYTE   W02
 BYTE   VOL   25*MarioGolfRingMatchPandan_mvl/mxv
 BYTE   W02
 BYTE   VOL   25*MarioGolfRingMatchPandan_mvl/mxv
 BYTE   W02
 BYTE   VOL   25*MarioGolfRingMatchPandan_mvl/mxv
 BYTE   W02
 BYTE   VOL   25*MarioGolfRingMatchPandan_mvl/mxv
 BYTE   W02
 BYTE   VOL   25*MarioGolfRingMatchPandan_mvl/mxv
 BYTE   W02
 BYTE   VOL   25*MarioGolfRingMatchPandan_mvl/mxv
 BYTE   W01
 BYTE   N07  Bn1  v108
 BYTE   W01
 BYTE   VOL   25*MarioGolfRingMatchPandan_mvl/mxv
 BYTE   W02
 BYTE   VOL   25*MarioGolfRingMatchPandan_mvl/mxv
 BYTE   W02
 BYTE   VOL   25*MarioGolfRingMatchPandan_mvl/mxv
 BYTE   W02
 BYTE   VOL   25*MarioGolfRingMatchPandan_mvl/mxv
 BYTE   W02
 BYTE   VOL   25*MarioGolfRingMatchPandan_mvl/mxv
 BYTE   W02
 BYTE   VOL   25*MarioGolfRingMatchPandan_mvl/mxv
 BYTE   W02
 BYTE   VOL   25*MarioGolfRingMatchPandan_mvl/mxv
 BYTE   N07  Bn1  v108
 BYTE   W01
 BYTE   VOL   25*MarioGolfRingMatchPandan_mvl/mxv
 BYTE   W02
 BYTE   VOL   25*MarioGolfRingMatchPandan_mvl/mxv
 BYTE   W02
 BYTE   VOL   25*MarioGolfRingMatchPandan_mvl/mxv
 BYTE   W02
 BYTE   VOL   25*MarioGolfRingMatchPandan_mvl/mxv
 BYTE   W02
 BYTE   VOL   25*MarioGolfRingMatchPandan_mvl/mxv
 BYTE   W02
 BYTE   VOL   25*MarioGolfRingMatchPandan_mvl/mxv
 BYTE   W02
 BYTE   VOL   25*MarioGolfRingMatchPandan_mvl/mxv
 BYTE   W02
 BYTE   VOL   25*MarioGolfRingMatchPandan_mvl/mxv
 BYTE   W02
// 010   ----------------------------------------
 BYTE   VOL   25*MarioGolfRingMatchPandan_mvl/mxv
 BYTE   W02
 BYTE   VOL   25*MarioGolfRingMatchPandan_mvl/mxv
 BYTE   W02
 BYTE   VOL   25*MarioGolfRingMatchPandan_mvl/mxv
 BYTE   W02
 BYTE   VOL   25*MarioGolfRingMatchPandan_mvl/mxv
 BYTE   W02
 BYTE   VOL   25*MarioGolfRingMatchPandan_mvl/mxv
 BYTE   W02
 BYTE   VOL   25*MarioGolfRingMatchPandan_mvl/mxv
 BYTE   N07  Bn1  v108
 BYTE   W16
 BYTE   Bn1
 BYTE   W32
 BYTE   Bn1
 BYTE   W16
 BYTE   Bn1
 BYTE   W32
// 011   ----------------------------------------
 BYTE   GoTo
  POIN2 Label_7_011DFF08
 BYTE   FINE

//**************** Track 9 (Midi-Chn.8) ****************//

MarioGolfRingMatchPandan_009:
// 000   ----------------------------------------
Label_8_011E01A0:
 BYTE   TEMPO   80*MarioGolfRingMatchPandan_tbs/2
 BYTE   TEMPO   80*MarioGolfRingMatchPandan_tbs/2
 BYTE   KEYSH   MarioGolfRingMatchPandan_key+0
 BYTE   VOICE   4
 BYTE   VOL   22*MarioGolfRingMatchPandan_mvl/mxv
 BYTE   PAN   c_v+0
 BYTE   N24  Bn3  v127
 BYTE   N24  Bn2
 BYTE   W24
 BYTE   En4
 BYTE   N24  En3
 BYTE   W24
 BYTE   Cs4
 BYTE   N24  Cs3
 BYTE   W24
 BYTE   En4
 BYTE   N24  En3
 BYTE   W24
// 001   ----------------------------------------
 BYTE   Ds4
 BYTE   N24  Ds3
 BYTE   W24
 BYTE   Bn3
 BYTE   N24  Bn2
 BYTE   W24
 BYTE   En4
 BYTE   N24  En3
 BYTE   W24
 BYTE   Bn3
 BYTE   N24  Bn2
 BYTE   W24
// 002   ----------------------------------------
 BYTE   En4
 BYTE   N24  En3
 BYTE   W24
 BYTE   An3
 BYTE   N24  An2
 BYTE   W24
 BYTE   En4
 BYTE   N24  En3
 BYTE   W24
 BYTE   Bn3
 BYTE   N24  Bn2
 BYTE   W24
// 003   ----------------------------------------
 BYTE   En4
 BYTE   N24  En3
 BYTE   W24
 BYTE   Cs4
 BYTE   N24  Cs3
 BYTE   W24
 BYTE   Bn3
 BYTE   N24  Bn2
 BYTE   W48
// 004   ----------------------------------------
 BYTE   VOICE   2
 BYTE   N24  Bn3  v127
 BYTE   W24
 BYTE   En4
 BYTE   W24
 BYTE   Cs4
 BYTE   W24
 BYTE   En4
 BYTE   W24
// 005   ----------------------------------------
 BYTE   Ds4
 BYTE   W24
 BYTE   Bn3
 BYTE   W24
 BYTE   En4
 BYTE   W24
 BYTE   N20  Bn3
 BYTE   W24
// 006   ----------------------------------------
 BYTE   En4
 BYTE   W24
 BYTE   An3
 BYTE   W24
 BYTE   En4
 BYTE   W24
 BYTE   Bn3
 BYTE   W24
// 007   ----------------------------------------
 BYTE   En4
 BYTE   W24
 BYTE   Cs4
 BYTE   W24
 BYTE   Bn3
 BYTE   W24
 BYTE   Ds4
 BYTE   W24
// 008   ----------------------------------------
 BYTE   N24  En4
 BYTE   W24
 BYTE   N08  Ds4
 BYTE   W08
 BYTE   En4
 BYTE   W08
 BYTE   Fs4
 BYTE   W08
 BYTE   N24  Gs4
 BYTE   W24
 BYTE   Bn3
 BYTE   W24
// 009   ----------------------------------------
 BYTE   N20  Dn4
 BYTE   W24
 BYTE   N24  An3
 BYTE   W24
 BYTE   En4
 BYTE   W24
 BYTE   Bn3
 BYTE   W24
// 010   ----------------------------------------
 BYTE   Cn4
 BYTE   W24
 BYTE   N08
 BYTE   W08
 BYTE   Dn4
 BYTE   W08
 BYTE   En4
 BYTE   W08
 BYTE   N24  Fs4
 BYTE   W24
 BYTE   Bn3
 BYTE   W24
// 011   ----------------------------------------
 BYTE   Gn4
 BYTE   W24
 BYTE   Cn4
 BYTE   W24
 BYTE   N03  Bn4
 BYTE   W04
 BYTE   Gn4
 BYTE   W04
 BYTE   En4
 BYTE   W04
 BYTE   Cn4
 BYTE   W04
 BYTE   Bn3
 BYTE   W04
 BYTE   Gn3
 BYTE   W04
 BYTE   En3
 BYTE   W04
 BYTE   Cn3
 BYTE   W04
 BYTE   En3
 BYTE   W04
 BYTE   Gn3
 BYTE   W04
 BYTE   Bn3
 BYTE   W04
 BYTE   Cn4
 BYTE   W04
// 012   ----------------------------------------
 BYTE   N08  Fn2
 BYTE   W08
 BYTE   N04  Gn2
 BYTE   W04
 BYTE   N08  An2
 BYTE   W08
 BYTE   N04  Bn2
 BYTE   W04
 BYTE   N08  Cn3
 BYTE   W08
 BYTE   Dn3
 BYTE   W08
 BYTE   En3
 BYTE   W08
 BYTE   N24  Dn3
 BYTE   W24
 BYTE   Gn3
 BYTE   W24
// 013   ----------------------------------------
 BYTE   N07  An3
 BYTE   W08
 BYTE   N03  Gn3
 BYTE   W04
 BYTE   N07  Fn3
 BYTE   W08
 BYTE   N03  En3
 BYTE   W04
 BYTE   N07  Dn3
 BYTE   W08
 BYTE   Cn3
 BYTE   W08
 BYTE   Dn3
 BYTE   W08
 BYTE   N20  En3
 BYTE   W24
 BYTE   En3
 BYTE   W24
// 014   ----------------------------------------
 BYTE   N04  Fn3
 BYTE   W04
 BYTE   N03  Cn3
 BYTE   W08
 BYTE   Cn3
 BYTE   W08
 BYTE   N04
 BYTE   W04
 BYTE   N08
 BYTE   W08
 BYTE   Bn2
 BYTE   W08
 BYTE   Cn3
 BYTE   W08
 BYTE   N24  Dn3
 BYTE   W24
 BYTE   Gn3
 BYTE   W24
// 015   ----------------------------------------
 BYTE   N20  Fn3
 BYTE   W24
 BYTE   N08
 BYTE   W08
 BYTE   En3
 BYTE   W08
 BYTE   Fn3
 BYTE   W08
 BYTE   Gn3
 BYTE   W08
 BYTE   Dn3
 BYTE   W08
 BYTE   Bn2
 BYTE   W08
 BYTE   Gn3
 BYTE   W08
 BYTE   Dn3
 BYTE   W08
 BYTE   Bn2
 BYTE   W08
// 016   ----------------------------------------
 BYTE   VOICE   4
 BYTE   N24  Bn3  v127
 BYTE   N24  Bn2
 BYTE   W24
 BYTE   En4
 BYTE   N24  En3
 BYTE   W24
 BYTE   Cs4
 BYTE   N24  Cs3
 BYTE   W24
 BYTE   En4
 BYTE   N24  En3
 BYTE   W24
// 017   ----------------------------------------
 BYTE   Ds4
 BYTE   N24  Ds3
 BYTE   W24
 BYTE   Bn3
 BYTE   N24  Bn2
 BYTE   W24
 BYTE   En4
 BYTE   N24  En3
 BYTE   W24
 BYTE   Bn3
 BYTE   N24  Bn2
 BYTE   W24
// 018   ----------------------------------------
 BYTE   En4
 BYTE   N24  En3
 BYTE   W24
 BYTE   An3
 BYTE   N24  An2
 BYTE   W24
 BYTE   En4
 BYTE   N24  En3
 BYTE   W24
 BYTE   Bn3
 BYTE   N24  Bn2
 BYTE   W24
// 019   ----------------------------------------
 BYTE   En4
 BYTE   N24  En3
 BYTE   W24
 BYTE   Cs4
 BYTE   N24  Cs3
 BYTE   W24
 BYTE   Bn3
 BYTE   N24  Bn2
 BYTE   W48
// 020   ----------------------------------------
 BYTE   VOICE   2
 BYTE   N24  Bn3  v127
 BYTE   W24
 BYTE   En4
 BYTE   W24
 BYTE   Cs4
 BYTE   W24
 BYTE   En4
 BYTE   W24
// 021   ----------------------------------------
 BYTE   Ds4
 BYTE   W24
 BYTE   Bn3
 BYTE   W24
 BYTE   En4
 BYTE   W24
 BYTE   N20  Bn3
 BYTE   W24
// 022   ----------------------------------------
 BYTE   En4
 BYTE   W24
 BYTE   An3
 BYTE   W24
 BYTE   En4
 BYTE   W24
 BYTE   Bn3
 BYTE   W24
// 023   ----------------------------------------
 BYTE   En4
 BYTE   W24
 BYTE   Cs4
 BYTE   W24
 BYTE   Bn3
 BYTE   W24
 BYTE   Ds4
 BYTE   W24
// 024   ----------------------------------------
 BYTE   VOICE   4
 BYTE   N11  Bn4  v127
 BYTE   N11  Bn3
 BYTE   W12
 BYTE   Cn5
 BYTE   N11  Cn4
 BYTE   W12
 BYTE   N07  Dn5
 BYTE   N07  Dn4
 BYTE   W08
 BYTE   Cn5
 BYTE   N07  Cn4
 BYTE   W08
 BYTE   Bn4
 BYTE   N07  Bn3
 BYTE   W08
 BYTE   N03  An4
 BYTE   N03  An3
 BYTE   W04
 BYTE   N05  Bn4
 BYTE   N05  Bn3
 BYTE   W08
 BYTE   N06  Gn4
 BYTE   N06  Gn3
 BYTE   W09
 BYTE   N24  Fn4
 BYTE   N24  Fn3
 BYTE   W03
 BYTE   N02  Fn4
 BYTE   N02  Fn3
 BYTE   W24
// 025   ----------------------------------------
 BYTE   N11  En5
 BYTE   N11  En4
 BYTE   W12
 BYTE   Dn5
 BYTE   N11  Dn4
 BYTE   W12
 BYTE   N07  Cn5
 BYTE   N07  Cn4
 BYTE   W08
 BYTE   Bn4
 BYTE   N07  Bn3
 BYTE   W08
 BYTE   An4
 BYTE   N07  An3
 BYTE   W08
 BYTE   N03  Gn4
 BYTE   N03  Gn3
 BYTE   W04
 BYTE   N05  An4
 BYTE   N05  An3
 BYTE   W08
 BYTE   N06  An4
 BYTE   N06  An3
 BYTE   W09
 BYTE   N24  Bn4
 BYTE   N24  Bn3
 BYTE   W03
 BYTE   N02  Bn4
 BYTE   N02  Bn3
 BYTE   W24
// 026   ----------------------------------------
 BYTE   N11  Bn4
 BYTE   N11  Bn3
 BYTE   W12
 BYTE   Cn5
 BYTE   N11  Cn4
 BYTE   W12
 BYTE   N07  Dn5
 BYTE   N07  Dn4
 BYTE   W08
 BYTE   Cn5
 BYTE   N07  Cn4
 BYTE   W08
 BYTE   Bn4
 BYTE   N07  Bn3
 BYTE   W08
 BYTE   N03  An4
 BYTE   N03  An3
 BYTE   W04
 BYTE   N05  Bn4
 BYTE   N05  Bn3
 BYTE   W08
 BYTE   N06  Gn4
 BYTE   N06  Gn3
 BYTE   W09
 BYTE   N24  Fn4
 BYTE   N24  Fn3
 BYTE   W03
 BYTE   N02  Fn4
 BYTE   N02  Fn3
 BYTE   W24
// 027   ----------------------------------------
 BYTE   N11  En5
 BYTE   N11  En4
 BYTE   W12
 BYTE   Dn5
 BYTE   N11  Dn4
 BYTE   W12
 BYTE   N07  Cn5
 BYTE   N07  Cn4
 BYTE   W08
 BYTE   Bn4
 BYTE   N07  Bn3
 BYTE   W08
 BYTE   An4
 BYTE   N07  An3
 BYTE   W08
 BYTE   N03  Gn4
 BYTE   N03  Gn3
 BYTE   W04
 BYTE   N05  An4
 BYTE   N05  An3
 BYTE   W08
 BYTE   N06  An4
 BYTE   N06  An3
 BYTE   W09
 BYTE   N24  Bn4
 BYTE   N24  Bn3
 BYTE   W03
 BYTE   N02  Bn4
 BYTE   N02  Bn3
 BYTE   W24
// 028   ----------------------------------------
 BYTE   TEMPO   80*MarioGolfRingMatchPandan_tbs/2
 BYTE   TEMPO   80*MarioGolfRingMatchPandan_tbs/2
 BYTE   N24  Bn4  v127
 BYTE   N24  Bn3
 BYTE   W24
 BYTE   En4
 BYTE   N24  En5
 BYTE   W24
 BYTE   Cs5
 BYTE   N24  Cs4
 BYTE   W24
 BYTE   En5
 BYTE   N24  En4
 BYTE   W24
// 029   ----------------------------------------
 BYTE   Ds5
 BYTE   N24  Ds4
 BYTE   W24
 BYTE   Bn4
 BYTE   N24  Bn3
 BYTE   W24
 BYTE   En5
 BYTE   N24  En4
 BYTE   W24
 BYTE   Bn4
 BYTE   N24  Bn3
 BYTE   W24
// 030   ----------------------------------------
 BYTE   En5
 BYTE   N24  En4
 BYTE   W24
 BYTE   An4
 BYTE   N24  An3
 BYTE   W24
 BYTE   En5
 BYTE   N24  En4
 BYTE   W24
 BYTE   Bn4
 BYTE   N24  Bn3
 BYTE   W24
// 031   ----------------------------------------
 BYTE   En5
 BYTE   N24  En4
 BYTE   W24
 BYTE   Cs5
 BYTE   N24  Cs4
 BYTE   W24
 BYTE   Bn4
 BYTE   N24  Bn3
 BYTE   W48
// 032   ----------------------------------------
 BYTE   VOL   22*MarioGolfRingMatchPandan_mvl/mxv
 BYTE   N24  Bn4  v127
 BYTE   W02
 BYTE   VOL   20*MarioGolfRingMatchPandan_mvl/mxv
 BYTE   W02
 BYTE   VOL   19*MarioGolfRingMatchPandan_mvl/mxv
 BYTE   W02
 BYTE   VOL   17*MarioGolfRingMatchPandan_mvl/mxv
 BYTE   W02
 BYTE   VOL   15*MarioGolfRingMatchPandan_mvl/mxv
 BYTE   W02
 BYTE   VOL   14*MarioGolfRingMatchPandan_mvl/mxv
 BYTE   W02
 BYTE   VOL   12*MarioGolfRingMatchPandan_mvl/mxv
 BYTE   W02
 BYTE   VOL   11*MarioGolfRingMatchPandan_mvl/mxv
 BYTE   W02
 BYTE   VOL   9*MarioGolfRingMatchPandan_mvl/mxv
 BYTE   W02
 BYTE   VOL   7*MarioGolfRingMatchPandan_mvl/mxv
 BYTE   W02
 BYTE   VOL   6*MarioGolfRingMatchPandan_mvl/mxv
 BYTE   W01
 BYTE   N24  En5  v127
 BYTE   W01
 BYTE   VOL   4*MarioGolfRingMatchPandan_mvl/mxv
 BYTE   W02
 BYTE   VOL   3*MarioGolfRingMatchPandan_mvl/mxv
 BYTE   W02
 BYTE   VOL   1*MarioGolfRingMatchPandan_mvl/mxv
 BYTE   W02
 BYTE   VOL   0*MarioGolfRingMatchPandan_mvl/mxv
 BYTE   W02
 BYTE   VOL   0*MarioGolfRingMatchPandan_mvl/mxv
 BYTE   W02
 BYTE   VOL   0*MarioGolfRingMatchPandan_mvl/mxv
 BYTE   W02
 BYTE   VOL   0*MarioGolfRingMatchPandan_mvl/mxv
 BYTE   W02
 BYTE   VOL   0*MarioGolfRingMatchPandan_mvl/mxv
 BYTE   W02
 BYTE   VOL   0*MarioGolfRingMatchPandan_mvl/mxv
 BYTE   W02
 BYTE   VOL   0*MarioGolfRingMatchPandan_mvl/mxv
 BYTE   W02
 BYTE   VOL   0*MarioGolfRingMatchPandan_mvl/mxv
 BYTE   N24  Cs5  v127
 BYTE   W02
 BYTE   VOL   0*MarioGolfRingMatchPandan_mvl/mxv
 BYTE   W02
 BYTE   VOL   0*MarioGolfRingMatchPandan_mvl/mxv
 BYTE   W02
 BYTE   VOL   0*MarioGolfRingMatchPandan_mvl/mxv
 BYTE   W02
 BYTE   VOL   0*MarioGolfRingMatchPandan_mvl/mxv
 BYTE   W02
 BYTE   VOL   0*MarioGolfRingMatchPandan_mvl/mxv
 BYTE   W02
 BYTE   VOL   0*MarioGolfRingMatchPandan_mvl/mxv
 BYTE   W02
 BYTE   VOL   0*MarioGolfRingMatchPandan_mvl/mxv
 BYTE   W02
 BYTE   VOL   0*MarioGolfRingMatchPandan_mvl/mxv
 BYTE   W02
 BYTE   VOL   0*MarioGolfRingMatchPandan_mvl/mxv
 BYTE   W02
 BYTE   VOL   0*MarioGolfRingMatchPandan_mvl/mxv
 BYTE   W01
 BYTE   N24  En5  v127
 BYTE   W01
 BYTE   VOL   0*MarioGolfRingMatchPandan_mvl/mxv
 BYTE   W02
 BYTE   VOL   0*MarioGolfRingMatchPandan_mvl/mxv
 BYTE   W02
 BYTE   VOL   0*MarioGolfRingMatchPandan_mvl/mxv
 BYTE   W02
 BYTE   VOL   0*MarioGolfRingMatchPandan_mvl/mxv
 BYTE   W02
 BYTE   VOL   0*MarioGolfRingMatchPandan_mvl/mxv
 BYTE   W02
 BYTE   VOL   0*MarioGolfRingMatchPandan_mvl/mxv
 BYTE   W02
 BYTE   VOL   0*MarioGolfRingMatchPandan_mvl/mxv
 BYTE   W02
 BYTE   VOL   0*MarioGolfRingMatchPandan_mvl/mxv
 BYTE   W02
 BYTE   VOL   0*MarioGolfRingMatchPandan_mvl/mxv
 BYTE   W02
 BYTE   VOL   0*MarioGolfRingMatchPandan_mvl/mxv
 BYTE   W02
 BYTE   VOL   0*MarioGolfRingMatchPandan_mvl/mxv
 BYTE   N24  Ds5  v127
 BYTE   W02
 BYTE   VOL   0*MarioGolfRingMatchPandan_mvl/mxv
 BYTE   W02
 BYTE   VOL   0*MarioGolfRingMatchPandan_mvl/mxv
 BYTE   W02
 BYTE   VOL   0*MarioGolfRingMatchPandan_mvl/mxv
 BYTE   W02
 BYTE   VOL   0*MarioGolfRingMatchPandan_mvl/mxv
 BYTE   W02
 BYTE   VOL   0*MarioGolfRingMatchPandan_mvl/mxv
 BYTE   W02
// 033   ----------------------------------------
 BYTE   VOL   0*MarioGolfRingMatchPandan_mvl/mxv
 BYTE   W02
 BYTE   VOL   0*MarioGolfRingMatchPandan_mvl/mxv
 BYTE   W02
 BYTE   VOL   0*MarioGolfRingMatchPandan_mvl/mxv
 BYTE   W02
 BYTE   VOL   0*MarioGolfRingMatchPandan_mvl/mxv
 BYTE   W02
 BYTE   VOL   0*MarioGolfRingMatchPandan_mvl/mxv
 BYTE   W02
 BYTE   VOL   0*MarioGolfRingMatchPandan_mvl/mxv
 BYTE   N24  Bn4  v127
 BYTE   W02
 BYTE   VOL   0*MarioGolfRingMatchPandan_mvl/mxv
 BYTE   W02
 BYTE   VOL   0*MarioGolfRingMatchPandan_mvl/mxv
 BYTE   W02
 BYTE   VOL   0*MarioGolfRingMatchPandan_mvl/mxv
 BYTE   W02
 BYTE   VOL   0*MarioGolfRingMatchPandan_mvl/mxv
 BYTE   W02
 BYTE   VOL   0*MarioGolfRingMatchPandan_mvl/mxv
 BYTE   W02
 BYTE   VOL   0*MarioGolfRingMatchPandan_mvl/mxv
 BYTE   W02
 BYTE   VOL   0*MarioGolfRingMatchPandan_mvl/mxv
 BYTE   W02
 BYTE   VOL   0*MarioGolfRingMatchPandan_mvl/mxv
 BYTE   W02
 BYTE   VOL   0*MarioGolfRingMatchPandan_mvl/mxv
 BYTE   W02
 BYTE   VOL   0*MarioGolfRingMatchPandan_mvl/mxv
 BYTE   W02
 BYTE   VOL   0*MarioGolfRingMatchPandan_mvl/mxv
 BYTE   N24  En5  v127
 BYTE   W02
 BYTE   VOL   0*MarioGolfRingMatchPandan_mvl/mxv
 BYTE   W02
 BYTE   VOL   0*MarioGolfRingMatchPandan_mvl/mxv
 BYTE   W02
 BYTE   VOL   0*MarioGolfRingMatchPandan_mvl/mxv
 BYTE   W02
 BYTE   VOL   0*MarioGolfRingMatchPandan_mvl/mxv
 BYTE   W02
 BYTE   VOL   0*MarioGolfRingMatchPandan_mvl/mxv
 BYTE   W02
 BYTE   VOL   0*MarioGolfRingMatchPandan_mvl/mxv
 BYTE   W02
 BYTE   VOL   0*MarioGolfRingMatchPandan_mvl/mxv
 BYTE   W02
 BYTE   VOL   0*MarioGolfRingMatchPandan_mvl/mxv
 BYTE   W02
 BYTE   VOL   0*MarioGolfRingMatchPandan_mvl/mxv
 BYTE   W02
 BYTE   VOL   0*MarioGolfRingMatchPandan_mvl/mxv
 BYTE   W02
 BYTE   VOL   0*MarioGolfRingMatchPandan_mvl/mxv
 BYTE   N20  Bn4  v127
 BYTE   W02
 BYTE   VOL   0*MarioGolfRingMatchPandan_mvl/mxv
 BYTE   W02
 BYTE   VOL   0*MarioGolfRingMatchPandan_mvl/mxv
 BYTE   W02
 BYTE   VOL   0*MarioGolfRingMatchPandan_mvl/mxv
 BYTE   W02
 BYTE   VOL   0*MarioGolfRingMatchPandan_mvl/mxv
 BYTE   W02
 BYTE   VOL   0*MarioGolfRingMatchPandan_mvl/mxv
 BYTE   W02
 BYTE   VOL   0*MarioGolfRingMatchPandan_mvl/mxv
 BYTE   W02
 BYTE   VOL   0*MarioGolfRingMatchPandan_mvl/mxv
 BYTE   W02
 BYTE   VOL   0*MarioGolfRingMatchPandan_mvl/mxv
 BYTE   W02
 BYTE   VOL   0*MarioGolfRingMatchPandan_mvl/mxv
 BYTE   W02
 BYTE   VOL   0*MarioGolfRingMatchPandan_mvl/mxv
 BYTE   W02
 BYTE   VOL   0*MarioGolfRingMatchPandan_mvl/mxv
 BYTE   N20  En5  v127
 BYTE   W02
 BYTE   VOL   0*MarioGolfRingMatchPandan_mvl/mxv
 BYTE   W02
 BYTE   VOL   0*MarioGolfRingMatchPandan_mvl/mxv
 BYTE   W02
 BYTE   VOL   0*MarioGolfRingMatchPandan_mvl/mxv
 BYTE   W02
 BYTE   VOL   0*MarioGolfRingMatchPandan_mvl/mxv
 BYTE   W02
 BYTE   VOL   0*MarioGolfRingMatchPandan_mvl/mxv
 BYTE   W02
 BYTE   VOL   0*MarioGolfRingMatchPandan_mvl/mxv
 BYTE   W02
 BYTE   VOL   0*MarioGolfRingMatchPandan_mvl/mxv
 BYTE   W02
 BYTE   VOL   0*MarioGolfRingMatchPandan_mvl/mxv
 BYTE   W02
 BYTE   VOL   0*MarioGolfRingMatchPandan_mvl/mxv
 BYTE   W02
// 034   ----------------------------------------
 BYTE   VOL   0*MarioGolfRingMatchPandan_mvl/mxv
 BYTE   N20  An4  v127
 BYTE   W01
 BYTE   VOL   0*MarioGolfRingMatchPandan_mvl/mxv
 BYTE   W02
 BYTE   VOL   0*MarioGolfRingMatchPandan_mvl/mxv
 BYTE   W02
 BYTE   VOL   0*MarioGolfRingMatchPandan_mvl/mxv
 BYTE   W02
 BYTE   VOL   0*MarioGolfRingMatchPandan_mvl/mxv
 BYTE   W02
 BYTE   VOL   0*MarioGolfRingMatchPandan_mvl/mxv
 BYTE   W02
 BYTE   VOL   0*MarioGolfRingMatchPandan_mvl/mxv
 BYTE   W02
 BYTE   VOL   0*MarioGolfRingMatchPandan_mvl/mxv
 BYTE   W02
 BYTE   VOL   0*MarioGolfRingMatchPandan_mvl/mxv
 BYTE   W02
 BYTE   VOL   0*MarioGolfRingMatchPandan_mvl/mxv
 BYTE   W02
 BYTE   VOL   0*MarioGolfRingMatchPandan_mvl/mxv
 BYTE   W01
 BYTE   N20  En5  v127
 BYTE   W01
 BYTE   VOL   0*MarioGolfRingMatchPandan_mvl/mxv
 BYTE   W02
 BYTE   VOL   0*MarioGolfRingMatchPandan_mvl/mxv
 BYTE   W02
 BYTE   VOL   0*MarioGolfRingMatchPandan_mvl/mxv
 BYTE   W02
 BYTE   VOL   0*MarioGolfRingMatchPandan_mvl/mxv
 BYTE   W02
 BYTE   VOL   0*MarioGolfRingMatchPandan_mvl/mxv
 BYTE   W02
 BYTE   VOL   0*MarioGolfRingMatchPandan_mvl/mxv
 BYTE   W02
 BYTE   VOL   0*MarioGolfRingMatchPandan_mvl/mxv
 BYTE   W02
 BYTE   VOL   0*MarioGolfRingMatchPandan_mvl/mxv
 BYTE   W02
 BYTE   VOL   0*MarioGolfRingMatchPandan_mvl/mxv
 BYTE   W02
 BYTE   VOL   0*MarioGolfRingMatchPandan_mvl/mxv
 BYTE   W01
 BYTE   N20  Bn4  v127
 BYTE   VOL   0*MarioGolfRingMatchPandan_mvl/mxv
 BYTE   W02
 BYTE   VOL   0*MarioGolfRingMatchPandan_mvl/mxv
 BYTE   W02
 BYTE   VOL   0*MarioGolfRingMatchPandan_mvl/mxv
 BYTE   W02
 BYTE   VOL   0*MarioGolfRingMatchPandan_mvl/mxv
 BYTE   W02
 BYTE   VOL   0*MarioGolfRingMatchPandan_mvl/mxv
 BYTE   W02
 BYTE   VOL   0*MarioGolfRingMatchPandan_mvl/mxv
 BYTE   W02
 BYTE   VOL   0*MarioGolfRingMatchPandan_mvl/mxv
 BYTE   W02
 BYTE   VOL   0*MarioGolfRingMatchPandan_mvl/mxv
 BYTE   W02
 BYTE   VOL   0*MarioGolfRingMatchPandan_mvl/mxv
 BYTE   W02
 BYTE   VOL   0*MarioGolfRingMatchPandan_mvl/mxv
 BYTE   W02
 BYTE   VOL   0*MarioGolfRingMatchPandan_mvl/mxv
 BYTE   N20  En5  v127
 BYTE   W24
 BYTE   Cs5
 BYTE   W24
// 035   ----------------------------------------
 BYTE   Bn4
 BYTE   W24
 BYTE   Ds5
 BYTE   W24
 BYTE   GoTo
  POIN2 Label_8_011E01A0
 BYTE   FINE

//**************** Track 10 (Midi-Chn.9) ****************//

MarioGolfRingMatchPandan_010:
// 000   ----------------------------------------
Label_9_011E05C8:
 BYTE   TEMPO   80*MarioGolfRingMatchPandan_tbs/2
 BYTE   TEMPO   80*MarioGolfRingMatchPandan_tbs/2
 BYTE   KEYSH   MarioGolfRingMatchPandan_key+0
 BYTE   VOICE   73
 BYTE   VOL   32*MarioGolfRingMatchPandan_mvl/mxv
 BYTE   PAN   c_v+0
 BYTE   N24  Gs4  v127
 BYTE   W24
 BYTE   N08
 BYTE   W08
 BYTE   Fs4
 BYTE   W08
 BYTE   En4
 BYTE   W08
 BYTE   N24  An4
 BYTE   W24
 BYTE   N08
 BYTE   W08
 BYTE   Gs4
 BYTE   W08
 BYTE   Fs4
 BYTE   W08
// 001   ----------------------------------------
Label_9_011E05E7:
 BYTE   N24  Ds4  v127
 BYTE   W24
 BYTE   N08
 BYTE   W08
 BYTE   En4
 BYTE   W08
 BYTE   Fs4
 BYTE   W08
 BYTE   N42  Gs4
 BYTE   W48
 BYTE   PEND 
// 002   ----------------------------------------
Label_9_011E05F5:
 BYTE   N24  An4  v127
 BYTE   W24
 BYTE   N08
 BYTE   W08
 BYTE   Gs4
 BYTE   W08
 BYTE   Fs4
 BYTE   W08
 BYTE   N24  En4
 BYTE   W24
 BYTE   Bn3
 BYTE   W24
 BYTE   PEND 
// 003   ----------------------------------------
Label_9_011E0605:
 BYTE   N24  An4  v127
 BYTE   W24
 BYTE   N08
 BYTE   W08
 BYTE   Gs4
 BYTE   W08
 BYTE   En4
 BYTE   W08
 BYTE   N24  Fs4
 BYTE   W24
 BYTE   N20  Bn4
 BYTE   W32
 BYTE   PEND 
// 004   ----------------------------------------
Label_9_011E0616:
 BYTE   N07  Gs4  v127
 BYTE   W08
 BYTE   N04
 BYTE   W04
 BYTE   Gs4
 BYTE   W04
 BYTE   Gs4
 BYTE   W04
 BYTE   N03
 BYTE   W08
 BYTE   An4
 BYTE   W04
 BYTE   Bn4
 BYTE   W16
 BYTE   N07  En4
 BYTE   W08
 BYTE   N04
 BYTE   W04
 BYTE   En4
 BYTE   W04
 BYTE   En4
 BYTE   W04
 BYTE   N03
 BYTE   W08
 BYTE   Fs4
 BYTE   W04
 BYTE   Gs4
 BYTE   W16
 BYTE   PEND 
// 005   ----------------------------------------
Label_9_011E0636:
 BYTE   N07  Fs4  v127
 BYTE   W08
 BYTE   N04
 BYTE   W04
 BYTE   Fs4
 BYTE   W04
 BYTE   Fs4
 BYTE   W04
 BYTE   N03
 BYTE   W08
 BYTE   Gs4
 BYTE   W04
 BYTE   An4
 BYTE   W08
 BYTE   N42  Bn4
 BYTE   W48
 BYTE   N30  En4
 BYTE   W03
 BYTE   N01
 BYTE   W28
 BYTE   PEND 
// 006   ----------------------------------------
 BYTE   N07  Bn4  v127
 BYTE   W08
 BYTE   En4
 BYTE   W08
 BYTE   Bn4
 BYTE   W08
 BYTE   En4
 BYTE   W08
 BYTE   N16  Bn4
 BYTE   W16
 BYTE   N15  En4
 BYTE   W16
 BYTE   N24  An4
 BYTE   W24
 BYTE   N07
 BYTE   W08
// 007   ----------------------------------------
 BYTE   Gs4
 BYTE   W08
 BYTE   N08  An4
 BYTE   W08
 BYTE   N42  Bn4
 BYTE   W96
// 008   ----------------------------------------
 BYTE   W96
// 009   ----------------------------------------
 BYTE   W96
// 010   ----------------------------------------
 BYTE   W96
// 011   ----------------------------------------
 BYTE   W96
// 012   ----------------------------------------
 BYTE   W96
// 013   ----------------------------------------
 BYTE   W96
// 014   ----------------------------------------
 BYTE   W96
// 015   ----------------------------------------
 BYTE   W48
 BYTE   N24  Gs4
 BYTE   W24
 BYTE   N08
 BYTE   W08
 BYTE   Fs4
 BYTE   W08
 BYTE   En4
 BYTE   W08
// 016   ----------------------------------------
 BYTE   N24  An4
 BYTE   W24
 BYTE   N08
 BYTE   W08
 BYTE   Gs4
 BYTE   W08
 BYTE   Fs4
 BYTE   W08
 BYTE   PATT
  POIN2 Label_9_011E05E7
 BYTE   PATT
  POIN2 Label_9_011E05F5
 BYTE   PATT
  POIN2 Label_9_011E0605
 BYTE   PATT
  POIN2 Label_9_011E0616
 BYTE   PATT
  POIN2 Label_9_011E0636
// 017   ----------------------------------------
 BYTE   N07  Bn4  v127
 BYTE   W08
 BYTE   En4
 BYTE   W08
 BYTE   Bn4
 BYTE   W08
 BYTE   En4
 BYTE   W08
 BYTE   N08  Bn4
 BYTE   W08
 BYTE   Bn4
 BYTE   W08
 BYTE   N15  En4
 BYTE   W16
 BYTE   N24  An4
 BYTE   W24
 BYTE   N07
 BYTE   W08
// 018   ----------------------------------------
 BYTE   Gs4
 BYTE   W08
 BYTE   N08  An4
 BYTE   W08
 BYTE   N42  Bn4
 BYTE   W96
// 019   ----------------------------------------
 BYTE   W96
// 020   ----------------------------------------
 BYTE   W96
// 021   ----------------------------------------
 BYTE   W96
// 022   ----------------------------------------
 BYTE   W48
 BYTE   TEMPO   80*MarioGolfRingMatchPandan_tbs/2
 BYTE   TEMPO   80*MarioGolfRingMatchPandan_tbs/2
 BYTE   N24  Gs4  v127
 BYTE   W24
 BYTE   N08
 BYTE   W08
 BYTE   Fs4
 BYTE   W08
 BYTE   En4
 BYTE   W08
// 023   ----------------------------------------
 BYTE   N24  An4
 BYTE   W24
 BYTE   N08
 BYTE   W08
 BYTE   Gs4
 BYTE   W08
 BYTE   Fs4
 BYTE   W08
 BYTE   PATT
  POIN2 Label_9_011E05E7
 BYTE   PATT
  POIN2 Label_9_011E05F5
// 024   ----------------------------------------
 BYTE   N24  An4  v127
 BYTE   W24
 BYTE   N08
 BYTE   W08
 BYTE   Gs4
 BYTE   W08
 BYTE   En4
 BYTE   W08
 BYTE   N24  Fs4
 BYTE   W24
 BYTE   N20  Bn4
 BYTE   W24
// 025   ----------------------------------------
 BYTE   VOL   32*MarioGolfRingMatchPandan_mvl/mxv
 BYTE   W02
 BYTE   VOL   30*MarioGolfRingMatchPandan_mvl/mxv
 BYTE   W02
 BYTE   VOL   29*MarioGolfRingMatchPandan_mvl/mxv
 BYTE   W02
 BYTE   VOL   27*MarioGolfRingMatchPandan_mvl/mxv
 BYTE   W01
 BYTE   N07  Gs4  v127
 BYTE   W01
 BYTE   VOL   25*MarioGolfRingMatchPandan_mvl/mxv
 BYTE   W02
 BYTE   VOL   24*MarioGolfRingMatchPandan_mvl/mxv
 BYTE   W02
 BYTE   VOL   22*MarioGolfRingMatchPandan_mvl/mxv
 BYTE   W02
 BYTE   VOL   21*MarioGolfRingMatchPandan_mvl/mxv
 BYTE   N04  Gs4  v127
 BYTE   W02
 BYTE   VOL   19*MarioGolfRingMatchPandan_mvl/mxv
 BYTE   W01
 BYTE   N04  Gs4  v127
 BYTE   VOL   17*MarioGolfRingMatchPandan_mvl/mxv
 BYTE   W02
 BYTE   VOL   16*MarioGolfRingMatchPandan_mvl/mxv
 BYTE   W01
 BYTE   N04  Gs4  v127
 BYTE   W01
 BYTE   VOL   14*MarioGolfRingMatchPandan_mvl/mxv
 BYTE   W02
 BYTE   VOL   13*MarioGolfRingMatchPandan_mvl/mxv
 BYTE   N03  Gs4  v127
 BYTE   W01
 BYTE   VOL   11*MarioGolfRingMatchPandan_mvl/mxv
 BYTE   W02
 BYTE   VOL   10*MarioGolfRingMatchPandan_mvl/mxv
 BYTE   W02
 BYTE   VOL   8*MarioGolfRingMatchPandan_mvl/mxv
 BYTE   W01
 BYTE   N03  An4  v127
 BYTE   VOL   6*MarioGolfRingMatchPandan_mvl/mxv
 BYTE   W02
 BYTE   VOL   5*MarioGolfRingMatchPandan_mvl/mxv
 BYTE   W01
 BYTE   N03  Bn4  v127
 BYTE   W01
 BYTE   VOL   3*MarioGolfRingMatchPandan_mvl/mxv
 BYTE   W02
 BYTE   VOL   2*MarioGolfRingMatchPandan_mvl/mxv
 BYTE   W02
 BYTE   VOL   0*MarioGolfRingMatchPandan_mvl/mxv
 BYTE   W02
 BYTE   VOL   0*MarioGolfRingMatchPandan_mvl/mxv
 BYTE   W02
 BYTE   VOL   0*MarioGolfRingMatchPandan_mvl/mxv
 BYTE   W02
 BYTE   VOL   0*MarioGolfRingMatchPandan_mvl/mxv
 BYTE   W02
 BYTE   VOL   0*MarioGolfRingMatchPandan_mvl/mxv
 BYTE   W01
 BYTE   N07  En4  v127
 BYTE   W01
 BYTE   VOL   0*MarioGolfRingMatchPandan_mvl/mxv
 BYTE   W02
 BYTE   VOL   0*MarioGolfRingMatchPandan_mvl/mxv
 BYTE   W02
 BYTE   VOL   0*MarioGolfRingMatchPandan_mvl/mxv
 BYTE   W02
 BYTE   VOL   0*MarioGolfRingMatchPandan_mvl/mxv
 BYTE   N04  En4  v127
 BYTE   W02
 BYTE   VOL   0*MarioGolfRingMatchPandan_mvl/mxv
 BYTE   W01
 BYTE   N04  En4  v127
 BYTE   VOL   0*MarioGolfRingMatchPandan_mvl/mxv
 BYTE   W02
 BYTE   VOL   0*MarioGolfRingMatchPandan_mvl/mxv
 BYTE   W01
 BYTE   N04  En4  v127
 BYTE   W01
 BYTE   VOL   0*MarioGolfRingMatchPandan_mvl/mxv
 BYTE   W02
 BYTE   VOL   0*MarioGolfRingMatchPandan_mvl/mxv
 BYTE   N03  En4  v127
 BYTE   W01
 BYTE   VOL   0*MarioGolfRingMatchPandan_mvl/mxv
 BYTE   W02
 BYTE   VOL   0*MarioGolfRingMatchPandan_mvl/mxv
 BYTE   W02
 BYTE   VOL   0*MarioGolfRingMatchPandan_mvl/mxv
 BYTE   W01
 BYTE   N03  Fs4  v127
 BYTE   VOL   0*MarioGolfRingMatchPandan_mvl/mxv
 BYTE   W02
 BYTE   VOL   0*MarioGolfRingMatchPandan_mvl/mxv
 BYTE   W01
 BYTE   N03  Gs4  v127
 BYTE   W01
 BYTE   VOL   0*MarioGolfRingMatchPandan_mvl/mxv
 BYTE   W02
 BYTE   VOL   0*MarioGolfRingMatchPandan_mvl/mxv
 BYTE   W02
 BYTE   VOL   0*MarioGolfRingMatchPandan_mvl/mxv
 BYTE   W02
 BYTE   VOL   0*MarioGolfRingMatchPandan_mvl/mxv
 BYTE   W02
 BYTE   VOL   0*MarioGolfRingMatchPandan_mvl/mxv
 BYTE   W02
 BYTE   VOL   0*MarioGolfRingMatchPandan_mvl/mxv
 BYTE   W02
 BYTE   VOL   0*MarioGolfRingMatchPandan_mvl/mxv
 BYTE   W01
 BYTE   N07  Fs4  v127
 BYTE   VOL   0*MarioGolfRingMatchPandan_mvl/mxv
 BYTE   W02
 BYTE   VOL   0*MarioGolfRingMatchPandan_mvl/mxv
 BYTE   W02
 BYTE   VOL   0*MarioGolfRingMatchPandan_mvl/mxv
 BYTE   W02
 BYTE   VOL   0*MarioGolfRingMatchPandan_mvl/mxv
 BYTE   N04  Fs4  v127
 BYTE   W01
 BYTE   VOL   0*MarioGolfRingMatchPandan_mvl/mxv
 BYTE   W02
 BYTE   VOL   0*MarioGolfRingMatchPandan_mvl/mxv
 BYTE   N04  Fs4  v127
 BYTE   W01
 BYTE   VOL   0*MarioGolfRingMatchPandan_mvl/mxv
 BYTE   W02
// 026   ----------------------------------------
 BYTE   VOL   0*MarioGolfRingMatchPandan_mvl/mxv
 BYTE   N04  Fs4  v127
 BYTE   W02
 BYTE   VOL   0*MarioGolfRingMatchPandan_mvl/mxv
 BYTE   W01
 BYTE   N03  Fs4  v127
 BYTE   VOL   0*MarioGolfRingMatchPandan_mvl/mxv
 BYTE   W02
 BYTE   VOL   0*MarioGolfRingMatchPandan_mvl/mxv
 BYTE   W02
 BYTE   VOL   0*MarioGolfRingMatchPandan_mvl/mxv
 BYTE   W02
 BYTE   VOL   0*MarioGolfRingMatchPandan_mvl/mxv
 BYTE   W01
 BYTE   N03  Gs4  v127
 BYTE   W01
 BYTE   VOL   0*MarioGolfRingMatchPandan_mvl/mxv
 BYTE   W02
 BYTE   VOL   0*MarioGolfRingMatchPandan_mvl/mxv
 BYTE   N03  An4  v127
 BYTE   W01
 BYTE   VOL   0*MarioGolfRingMatchPandan_mvl/mxv
 BYTE   W02
 BYTE   VOL   0*MarioGolfRingMatchPandan_mvl/mxv
 BYTE   W02
 BYTE   VOL   0*MarioGolfRingMatchPandan_mvl/mxv
 BYTE   W02
 BYTE   VOL   0*MarioGolfRingMatchPandan_mvl/mxv
 BYTE   N42  Bn4  v127
 BYTE   W02
 BYTE   VOL   0*MarioGolfRingMatchPandan_mvl/mxv
 BYTE   W02
 BYTE   VOL   0*MarioGolfRingMatchPandan_mvl/mxv
 BYTE   W02
 BYTE   VOL   0*MarioGolfRingMatchPandan_mvl/mxv
 BYTE   W02
 BYTE   VOL   0*MarioGolfRingMatchPandan_mvl/mxv
 BYTE   W02
 BYTE   VOL   0*MarioGolfRingMatchPandan_mvl/mxv
 BYTE   W02
 BYTE   VOL   0*MarioGolfRingMatchPandan_mvl/mxv
 BYTE   W02
 BYTE   VOL   0*MarioGolfRingMatchPandan_mvl/mxv
 BYTE   W02
 BYTE   VOL   0*MarioGolfRingMatchPandan_mvl/mxv
 BYTE   W02
 BYTE   VOL   0*MarioGolfRingMatchPandan_mvl/mxv
 BYTE   W02
 BYTE   VOL   0*MarioGolfRingMatchPandan_mvl/mxv
 BYTE   W02
 BYTE   VOL   0*MarioGolfRingMatchPandan_mvl/mxv
 BYTE   W02
 BYTE   VOL   0*MarioGolfRingMatchPandan_mvl/mxv
 BYTE   W02
 BYTE   VOL   0*MarioGolfRingMatchPandan_mvl/mxv
 BYTE   W02
 BYTE   VOL   0*MarioGolfRingMatchPandan_mvl/mxv
 BYTE   W02
 BYTE   VOL   0*MarioGolfRingMatchPandan_mvl/mxv
 BYTE   W02
 BYTE   VOL   0*MarioGolfRingMatchPandan_mvl/mxv
 BYTE   W02
 BYTE   VOL   0*MarioGolfRingMatchPandan_mvl/mxv
 BYTE   W02
 BYTE   VOL   0*MarioGolfRingMatchPandan_mvl/mxv
 BYTE   W02
 BYTE   VOL   0*MarioGolfRingMatchPandan_mvl/mxv
 BYTE   W02
 BYTE   VOL   0*MarioGolfRingMatchPandan_mvl/mxv
 BYTE   W02
 BYTE   VOL   0*MarioGolfRingMatchPandan_mvl/mxv
 BYTE   W02
 BYTE   VOL   0*MarioGolfRingMatchPandan_mvl/mxv
 BYTE   N30  En4  v127
 BYTE   W02
 BYTE   VOL   0*MarioGolfRingMatchPandan_mvl/mxv
 BYTE   W01
 BYTE   N01  En4  v127
 BYTE   VOL   0*MarioGolfRingMatchPandan_mvl/mxv
 BYTE   W02
 BYTE   VOL   0*MarioGolfRingMatchPandan_mvl/mxv
 BYTE   W02
 BYTE   VOL   0*MarioGolfRingMatchPandan_mvl/mxv
 BYTE   W02
 BYTE   VOL   0*MarioGolfRingMatchPandan_mvl/mxv
 BYTE   W02
 BYTE   VOL   0*MarioGolfRingMatchPandan_mvl/mxv
 BYTE   W02
 BYTE   VOL   0*MarioGolfRingMatchPandan_mvl/mxv
 BYTE   W02
 BYTE   VOL   0*MarioGolfRingMatchPandan_mvl/mxv
 BYTE   W02
 BYTE   VOL   0*MarioGolfRingMatchPandan_mvl/mxv
 BYTE   W02
 BYTE   VOL   0*MarioGolfRingMatchPandan_mvl/mxv
 BYTE   W02
 BYTE   VOL   0*MarioGolfRingMatchPandan_mvl/mxv
 BYTE   W02
 BYTE   VOL   0*MarioGolfRingMatchPandan_mvl/mxv
 BYTE   W02
 BYTE   VOL   0*MarioGolfRingMatchPandan_mvl/mxv
 BYTE   W01
 BYTE   N07  Bn4  v127
 BYTE   VOL   0*MarioGolfRingMatchPandan_mvl/mxv
 BYTE   W02
 BYTE   VOL   0*MarioGolfRingMatchPandan_mvl/mxv
 BYTE   W02
 BYTE   VOL   0*MarioGolfRingMatchPandan_mvl/mxv
 BYTE   W02
// 027   ----------------------------------------
 BYTE   VOL   0*MarioGolfRingMatchPandan_mvl/mxv
 BYTE   N07  En4  v127
 BYTE   W02
 BYTE   VOL   0*MarioGolfRingMatchPandan_mvl/mxv
 BYTE   W02
 BYTE   VOL   0*MarioGolfRingMatchPandan_mvl/mxv
 BYTE   W02
 BYTE   VOL   0*MarioGolfRingMatchPandan_mvl/mxv
 BYTE   W01
 BYTE   N07  Bn4  v127
 BYTE   W01
 BYTE   VOL   0*MarioGolfRingMatchPandan_mvl/mxv
 BYTE   W02
 BYTE   VOL   0*MarioGolfRingMatchPandan_mvl/mxv
 BYTE   W02
 BYTE   VOL   0*MarioGolfRingMatchPandan_mvl/mxv
 BYTE   W02
 BYTE   N07  En4  v127
 BYTE   VOL   0*MarioGolfRingMatchPandan_mvl/mxv
 BYTE   W02
 BYTE   VOL   0*MarioGolfRingMatchPandan_mvl/mxv
 BYTE   W02
 BYTE   VOL   0*MarioGolfRingMatchPandan_mvl/mxv
 BYTE   W02
 BYTE   VOL   0*MarioGolfRingMatchPandan_mvl/mxv
 BYTE   N16  Bn4  v127
 BYTE   W01
 BYTE   VOL   0*MarioGolfRingMatchPandan_mvl/mxv
 BYTE   W02
 BYTE   VOL   0*MarioGolfRingMatchPandan_mvl/mxv
 BYTE   W02
 BYTE   VOL   0*MarioGolfRingMatchPandan_mvl/mxv
 BYTE   W02
 BYTE   VOL   0*MarioGolfRingMatchPandan_mvl/mxv
 BYTE   W02
 BYTE   VOL   0*MarioGolfRingMatchPandan_mvl/mxv
 BYTE   W02
 BYTE   VOL   0*MarioGolfRingMatchPandan_mvl/mxv
 BYTE   W02
 BYTE   VOL   0*MarioGolfRingMatchPandan_mvl/mxv
 BYTE   N15  En4  v127
 BYTE   W01
 BYTE   VOL   0*MarioGolfRingMatchPandan_mvl/mxv
 BYTE   W02
 BYTE   VOL   0*MarioGolfRingMatchPandan_mvl/mxv
 BYTE   W02
 BYTE   VOL   0*MarioGolfRingMatchPandan_mvl/mxv
 BYTE   W02
 BYTE   VOL   0*MarioGolfRingMatchPandan_mvl/mxv
 BYTE   W02
 BYTE   VOL   0*MarioGolfRingMatchPandan_mvl/mxv
 BYTE   W02
 BYTE   VOL   0*MarioGolfRingMatchPandan_mvl/mxv
 BYTE   W02
 BYTE   VOL   0*MarioGolfRingMatchPandan_mvl/mxv
 BYTE   N24  An4  v127
 BYTE   W24
 BYTE   N07
 BYTE   W08
 BYTE   Gs4
 BYTE   W08
 BYTE   N08  An4
 BYTE   W08
 BYTE   N42  Bn4
 BYTE   W48
// 028   ----------------------------------------
 BYTE   GoTo
  POIN2 Label_9_011E05C8
 BYTE   FINE

//******************************************************//
	ALIGN 4

MarioGolfRingMatchPandan:
	BYTE	10	// NumTrks
	BYTE	0	// NumBlks
	BYTE	MarioGolfRingMatchPandan_pri	// Priority
	BYTE	MarioGolfRingMatchPandan_rev	// Reverb.
    
	POIN2	MarioGolfRingMatchPandan_grp
    
	POIN2	MarioGolfRingMatchPandan_001
	POIN2	MarioGolfRingMatchPandan_002
	POIN2	MarioGolfRingMatchPandan_003
	POIN2	MarioGolfRingMatchPandan_004
	POIN2	MarioGolfRingMatchPandan_005
	POIN2	MarioGolfRingMatchPandan_006
	POIN2	MarioGolfRingMatchPandan_007
	POIN2	MarioGolfRingMatchPandan_008
	POIN2	MarioGolfRingMatchPandan_009
	POIN2	MarioGolfRingMatchPandan_010

	
