//Event file generated from Sappy .s format.
	#include "MPlayDef.event"

	#define	MarioTennisBreakPointPandan_grp  voicegroup000
	#define	MarioTennisBreakPointPandan_pri  0
	#define	MarioTennisBreakPointPandan_rev  0
	#define	MarioTennisBreakPointPandan_mvl  127
	#define	MarioTennisBreakPointPandan_key  0
	#define	MarioTennisBreakPointPandan_tbs  1
	#define	MarioTennisBreakPointPandan_exg  0
	#define	MarioTennisBreakPointPandan_cmp  1

	// .rodata
	//	MarioTennisBreakPointPandan
	ALIGN 4


//**************** Track 1 (Midi-Chn.0) ****************//

MarioTennisBreakPointPandan_001:
// 000   ----------------------------------------
 BYTE   KEYSH   MarioTennisBreakPointPandan_key+0
 BYTE   TEMPO   240*MarioTennisBreakPointPandan_tbs/2
 BYTE   VOICE   36
 BYTE   VOL   13*MarioTennisBreakPointPandan_mvl/mxv
 BYTE   N12  En0  v104
 BYTE   W12
 BYTE   N12
 BYTE   W12
 BYTE   En1
 BYTE   W12
 BYTE   En0
 BYTE   W12
 BYTE   Dn1
 BYTE   W12
 BYTE   En0
 BYTE   W12
 BYTE   En1
 BYTE   W12
 BYTE   En0
 BYTE   W12
// 001   ----------------------------------------
Label_0_01498FA2:
 BYTE   N12  En1  v104
 BYTE   W12
 BYTE   En0
 BYTE   W12
 BYTE   N12
 BYTE   W12
 BYTE   En1
 BYTE   W12
 BYTE   En0
 BYTE   W12
 BYTE   N12
 BYTE   W12
 BYTE   Dn1
 BYTE   W12
 BYTE   En1
 BYTE   W12
 BYTE   PEND 
// 002   ----------------------------------------
Label_0_01498FB5:
 BYTE   N12  Cn1  v104
 BYTE   W12
 BYTE   Cn0
 BYTE   W12
 BYTE   N12
 BYTE   W12
 BYTE   Cn1
 BYTE   W12
 BYTE   Cn0
 BYTE   W12
 BYTE   N12
 BYTE   W12
 BYTE   Cn1
 BYTE   W12
 BYTE   Cn0
 BYTE   W12
 BYTE   PEND 
// 003   ----------------------------------------
Label_0_01498FC8:
 BYTE   N12  Dn0  v104
 BYTE   W12
 BYTE   N12
 BYTE   W12
 BYTE   Dn1
 BYTE   W12
 BYTE   Dn0
 BYTE   W12
 BYTE   Cn1
 BYTE   W12
 BYTE   Dn0
 BYTE   W12
 BYTE   Dn1
 BYTE   W12
 BYTE   Dn0
 BYTE   W12
 BYTE   PEND 
// 004   ----------------------------------------
Label_0_01498FDB:
 BYTE   N12  En0  v104
 BYTE   W12
 BYTE   N12
 BYTE   W12
 BYTE   En1
 BYTE   W12
 BYTE   En0
 BYTE   W12
 BYTE   Dn1
 BYTE   W12
 BYTE   En0
 BYTE   W12
 BYTE   En1
 BYTE   W12
 BYTE   En0
 BYTE   W12
 BYTE   PEND 
 BYTE   PATT
  POIN2 Label_0_01498FC8
 BYTE   PATT
  POIN2 Label_0_01498FB5
 BYTE   PATT
  POIN2 Label_0_01498FC8
 BYTE   PATT
  POIN2 Label_0_01498FDB
 BYTE   PATT
  POIN2 Label_0_01498FA2
// 005   ----------------------------------------
Label_0_01499007:
 BYTE   N12  Gn0  v104
 BYTE   W12
 BYTE   N12
 BYTE   W12
 BYTE   N12
 BYTE   W12
 BYTE   N12
 BYTE   W12
 BYTE   N12
 BYTE   W12
 BYTE   N12
 BYTE   W12
 BYTE   N12
 BYTE   W12
 BYTE   N12
 BYTE   W12
 BYTE   PEND 
// 006   ----------------------------------------
Label_0_0149901A:
 BYTE   N12  An0  v104
 BYTE   W12
 BYTE   N12
 BYTE   W12
 BYTE   N12
 BYTE   W12
 BYTE   N12
 BYTE   W12
 BYTE   N12
 BYTE   W12
 BYTE   N12
 BYTE   W12
 BYTE   N12
 BYTE   W12
 BYTE   N12
 BYTE   W12
 BYTE   PEND 
 BYTE   PATT
  POIN2 Label_0_01498FB5
 BYTE   PATT
  POIN2 Label_0_01498FC8
 BYTE   PATT
  POIN2 Label_0_01498FDB
 BYTE   PATT
  POIN2 Label_0_01498FA2
 BYTE   PATT
  POIN2 Label_0_01498FDB
 BYTE   PATT
  POIN2 Label_0_01498FA2
 BYTE   PATT
  POIN2 Label_0_01498FB5
 BYTE   PATT
  POIN2 Label_0_01498FC8
 BYTE   PATT
  POIN2 Label_0_01498FDB
 BYTE   PATT
  POIN2 Label_0_01498FC8
 BYTE   PATT
  POIN2 Label_0_01498FB5
 BYTE   PATT
  POIN2 Label_0_01498FC8
 BYTE   PATT
  POIN2 Label_0_01498FDB
 BYTE   PATT
  POIN2 Label_0_01498FA2
 BYTE   PATT
  POIN2 Label_0_01499007
 BYTE   PATT
  POIN2 Label_0_0149901A
 BYTE   PATT
  POIN2 Label_0_01498FB5
 BYTE   PATT
  POIN2 Label_0_01498FC8
 BYTE   PATT
  POIN2 Label_0_01498FDB
 BYTE   PATT
  POIN2 Label_0_01498FA2
 BYTE   PATT
  POIN2 Label_0_01498FDB
 BYTE   PATT
  POIN2 Label_0_01498FDB
 BYTE   PATT
  POIN2 Label_0_01498FDB
// 007   ----------------------------------------
Label_0_014990A0:
 BYTE   N12  En0  v104
 BYTE   W12
 BYTE   N12
 BYTE   W12
 BYTE   N12
 BYTE   W12
 BYTE   Dn0
 BYTE   W12
 BYTE   En0
 BYTE   W12
 BYTE   Dn0
 BYTE   W12
 BYTE   BnM1
 BYTE   W12
 BYTE   Dn0
 BYTE   W12
 BYTE   PEND 
 BYTE   PATT
  POIN2 Label_0_01498FDB
// 008   ----------------------------------------
Label_0_014990B8:
 BYTE   N12  En1  v104
 BYTE   W12
 BYTE   En0
 BYTE   W12
 BYTE   N12
 BYTE   W12
 BYTE   Dn1
 BYTE   W12
 BYTE   En0
 BYTE   W12
 BYTE   N12
 BYTE   W12
 BYTE   En1
 BYTE   W12
 BYTE   En0
 BYTE   W12
 BYTE   PEND 
// 009   ----------------------------------------
Label_0_014990CB:
 BYTE   N12  Bn0  v104
 BYTE   W12
 BYTE   N12
 BYTE   W12
 BYTE   N12
 BYTE   W12
 BYTE   Fs0
 BYTE   W12
 BYTE   Bn0
 BYTE   W12
 BYTE   N12
 BYTE   W12
 BYTE   N12
 BYTE   W12
 BYTE   Fs0
 BYTE   W12
 BYTE   PEND 
// 010   ----------------------------------------
Label_0_014990DE:
 BYTE   N12  Bn0  v104
 BYTE   W12
 BYTE   Fs0
 BYTE   W12
 BYTE   Bn0
 BYTE   W12
 BYTE   Ds1
 BYTE   W12
 BYTE   Fs1
 BYTE   W12
 BYTE   Ds1
 BYTE   W12
 BYTE   Bn0
 BYTE   W12
 BYTE   Fs0
 BYTE   W12
 BYTE   PEND 
// 011   ----------------------------------------
Label_0_014990F1:
 BYTE   N12  Dn0  v104
 BYTE   W12
 BYTE   En0
 BYTE   W12
 BYTE   N12
 BYTE   W12
 BYTE   Dn0
 BYTE   W12
 BYTE   En0
 BYTE   W12
 BYTE   Dn0
 BYTE   W12
 BYTE   BnM1
 BYTE   W12
 BYTE   Dn0
 BYTE   W12
 BYTE   PEND 
 BYTE   PATT
  POIN2 Label_0_014990F1
 BYTE   PATT
  POIN2 Label_0_014990F1
// 012   ----------------------------------------
Label_0_0149910E:
 BYTE   N12  Dn0  v104
 BYTE   W12
 BYTE   En0
 BYTE   W12
 BYTE   N12
 BYTE   W12
 BYTE   Dn0
 BYTE   W12
 BYTE   En0
 BYTE   W12
 BYTE   Bn0
 BYTE   W12
 BYTE   En1
 BYTE   W12
 BYTE   En0
 BYTE   W12
 BYTE   PEND 
 BYTE   PATT
  POIN2 Label_0_01498FB5
 BYTE   PATT
  POIN2 Label_0_01498FC8
// 013   ----------------------------------------
Label_0_0149912B:
 BYTE   N12  Ds1  v104
 BYTE   W12
 BYTE   Ds0
 BYTE   W12
 BYTE   N12
 BYTE   W12
 BYTE   Ds1
 BYTE   W12
 BYTE   Ds0
 BYTE   W12
 BYTE   N12
 BYTE   W12
 BYTE   Ds1
 BYTE   W12
 BYTE   Ds0
 BYTE   W12
 BYTE   PEND 
// 014   ----------------------------------------
Label_0_0149913E:
 BYTE   N12  Fn0  v104
 BYTE   W12
 BYTE   N12
 BYTE   W12
 BYTE   Fn1
 BYTE   W12
 BYTE   Fn0
 BYTE   W12
 BYTE   Ds1
 BYTE   W12
 BYTE   Fn0
 BYTE   W12
 BYTE   Fn1
 BYTE   W12
 BYTE   Fn0
 BYTE   W12
 BYTE   PEND 
// 015   ----------------------------------------
Label_0_01499151:
 BYTE   N12  Gn0  v104
 BYTE   W12
 BYTE   Gn0  v076
 BYTE   W12
 BYTE   Gn0  v104
 BYTE   W12
 BYTE   Gn0  v076
 BYTE   W12
 BYTE   Gn0  v104
 BYTE   W12
 BYTE   Gn0  v076
 BYTE   W12
 BYTE   Gn0  v104
 BYTE   W12
 BYTE   Gn0  v076
 BYTE   W12
 BYTE   PEND 
// 016   ----------------------------------------
Label_0_0149916B:
 BYTE   N12  Fn0  v104
 BYTE   W12
 BYTE   Fn0  v076
 BYTE   W12
 BYTE   Fn0  v104
 BYTE   W12
 BYTE   Fn0  v076
 BYTE   W12
 BYTE   Fn0  v104
 BYTE   W12
 BYTE   Fn0  v076
 BYTE   W12
 BYTE   Fn0  v104
 BYTE   W12
 BYTE   Fn0  v076
 BYTE   W12
 BYTE   PEND 
// 017   ----------------------------------------
Label_0_01499185:
 BYTE   N12  Ds0  v104
 BYTE   W12
 BYTE   Ds0  v076
 BYTE   W12
 BYTE   Ds0  v104
 BYTE   W12
 BYTE   Ds0  v076
 BYTE   W12
 BYTE   Ds0  v104
 BYTE   W12
 BYTE   Ds0  v076
 BYTE   W12
 BYTE   Ds0  v104
 BYTE   W12
 BYTE   Ds0  v076
 BYTE   W12
 BYTE   PEND 
 BYTE   PATT
  POIN2 Label_0_01499185
// 018   ----------------------------------------
Label_0_014991A4:
 BYTE   N12  An0  v104
 BYTE   W12
 BYTE   N12
 BYTE   W12
 BYTE   N12
 BYTE   W12
 BYTE   Gn0
 BYTE   W12
 BYTE   An0
 BYTE   W12
 BYTE   Gn0
 BYTE   W12
 BYTE   An0
 BYTE   W12
 BYTE   N12
 BYTE   W12
 BYTE   PEND 
// 019   ----------------------------------------
Label_0_014991B7:
 BYTE   N12  An0  v104
 BYTE   W12
 BYTE   Gn0
 BYTE   W12
 BYTE   An0
 BYTE   W12
 BYTE   Gn0
 BYTE   W12
 BYTE   An0
 BYTE   W12
 BYTE   N12
 BYTE   W12
 BYTE   Gn0
 BYTE   W12
 BYTE   An0
 BYTE   W12
 BYTE   PEND 
// 020   ----------------------------------------
Label_0_014991CA:
 BYTE   N12  An0  v104
 BYTE   W12
 BYTE   N12
 BYTE   W12
 BYTE   N12
 BYTE   W12
 BYTE   Gn0
 BYTE   W12
 BYTE   An0
 BYTE   W12
 BYTE   Gn0
 BYTE   W12
 BYTE   An0
 BYTE   W12
 BYTE   Gn0
 BYTE   W12
 BYTE   PEND 
 BYTE   PATT
  POIN2 Label_0_014991A4
// 021   ----------------------------------------
Label_0_014991E2:
 BYTE   N12  Gn0  v104
 BYTE   W12
 BYTE   N12
 BYTE   W12
 BYTE   N12
 BYTE   W12
 BYTE   Dn0
 BYTE   W12
 BYTE   Gn0
 BYTE   W12
 BYTE   Dn0
 BYTE   W12
 BYTE   Gn0
 BYTE   W12
 BYTE   N12
 BYTE   W12
 BYTE   PEND 
 BYTE   PATT
  POIN2 Label_0_0149913E
// 022   ----------------------------------------
Label_0_014991FA:
 BYTE   N12  Ds0  v104
 BYTE   W12
 BYTE   N12
 BYTE   W12
 BYTE   Ds1
 BYTE   W12
 BYTE   Ds0
 BYTE   W12
 BYTE   Dn1
 BYTE   W12
 BYTE   Ds0
 BYTE   W12
 BYTE   Ds1
 BYTE   W12
 BYTE   Ds0
 BYTE   W12
 BYTE   PEND 
// 023   ----------------------------------------
Label_0_0149920D:
 BYTE   N12  Ds1  v104
 BYTE   W12
 BYTE   Ds0
 BYTE   W12
 BYTE   N12
 BYTE   W12
 BYTE   Ds1
 BYTE   W12
 BYTE   Ds0
 BYTE   W12
 BYTE   N12
 BYTE   W12
 BYTE   Dn1
 BYTE   W12
 BYTE   Ds1
 BYTE   W12
 BYTE   PEND 
// 024   ----------------------------------------
Label_0_01499220:
 BYTE   N12  An0  v104
 BYTE   W12
 BYTE   An0  v076
 BYTE   W12
 BYTE   An0  v104
 BYTE   W12
 BYTE   An0  v076
 BYTE   W12
 BYTE   An0  v104
 BYTE   W12
 BYTE   An0  v076
 BYTE   W12
 BYTE   An0  v104
 BYTE   W12
 BYTE   An0  v076
 BYTE   W12
 BYTE   PEND 
 BYTE   PATT
  POIN2 Label_0_01499220
 BYTE   PATT
  POIN2 Label_0_01499220
 BYTE   PATT
  POIN2 Label_0_01499220
 BYTE   PATT
  POIN2 Label_0_01498FC8
// 025   ----------------------------------------
Label_0_0149924E:
 BYTE   N12  Dn1  v104
 BYTE   W12
 BYTE   Dn0
 BYTE   W12
 BYTE   N12
 BYTE   W12
 BYTE   Dn1
 BYTE   W12
 BYTE   Dn0
 BYTE   W12
 BYTE   N12
 BYTE   W12
 BYTE   Cn1
 BYTE   W12
 BYTE   Dn1
 BYTE   W12
 BYTE   PEND 
 BYTE   PATT
  POIN2 Label_0_01498FC8
 BYTE   PATT
  POIN2 Label_0_0149924E
// 026   ----------------------------------------
Label_0_0149926B:
 BYTE   N12  Dn0  v104
 BYTE   W12
 BYTE   N12
 BYTE   W12
 BYTE   Dn1
 BYTE   W12
 BYTE   Dn0
 BYTE   W12
 BYTE   Cn1
 BYTE   W12
 BYTE   N12
 BYTE   W12
 BYTE   Dn1
 BYTE   W12
 BYTE   Dn0
 BYTE   W12
 BYTE   PEND 
// 027   ----------------------------------------
Label_0_0149927E:
 BYTE   N12  Dn0  v104
 BYTE   W12
 BYTE   N12
 BYTE   W12
 BYTE   N12
 BYTE   W12
 BYTE   Cn0
 BYTE   W12
 BYTE   Dn0
 BYTE   W12
 BYTE   N12
 BYTE   W12
 BYTE   An0
 BYTE   W12
 BYTE   Dn0
 BYTE   W12
 BYTE   PEND 
// 028   ----------------------------------------
Label_0_01499291:
 BYTE   N12  An0  v104
 BYTE   W12
 BYTE   Gn0
 BYTE   W12
 BYTE   An0
 BYTE   W12
 BYTE   N12
 BYTE   W12
 BYTE   Gn0
 BYTE   W12
 BYTE   An0
 BYTE   W12
 BYTE   N12
 BYTE   W12
 BYTE   Gn0
 BYTE   W12
 BYTE   PEND 
// 029   ----------------------------------------
Label_0_014992A4:
 BYTE   N12  An0  v104
 BYTE   W12
 BYTE   N12
 BYTE   W12
 BYTE   N12
 BYTE   W12
 BYTE   Gn0
 BYTE   W12
 BYTE   An0
 BYTE   W12
 BYTE   N12
 BYTE   W12
 BYTE   Gn0
 BYTE   W12
 BYTE   An0
 BYTE   W12
 BYTE   PEND 
 BYTE   PATT
  POIN2 Label_0_01498FC8
 BYTE   PATT
  POIN2 Label_0_0149924E
 BYTE   PATT
  POIN2 Label_0_01498FC8
 BYTE   PATT
  POIN2 Label_0_0149924E
 BYTE   PATT
  POIN2 Label_0_0149926B
 BYTE   PATT
  POIN2 Label_0_0149927E
 BYTE   PATT
  POIN2 Label_0_01499291
 BYTE   PATT
  POIN2 Label_0_014992A4
 BYTE   PATT
  POIN2 Label_0_01499220
 BYTE   PATT
  POIN2 Label_0_01499220
 BYTE   PATT
  POIN2 Label_0_01499220
 BYTE   PATT
  POIN2 Label_0_01499220
 BYTE   PATT
  POIN2 Label_0_01499220
 BYTE   PATT
  POIN2 Label_0_01499220
 BYTE   PATT
  POIN2 Label_0_01499220
 BYTE   PATT
  POIN2 Label_0_01499220
 BYTE   PATT
  POIN2 Label_0_014991A4
 BYTE   PATT
  POIN2 Label_0_014991B7
 BYTE   PATT
  POIN2 Label_0_014991CA
 BYTE   PATT
  POIN2 Label_0_014991A4
 BYTE   PATT
  POIN2 Label_0_014991A4
 BYTE   PATT
  POIN2 Label_0_014991B7
 BYTE   PATT
  POIN2 Label_0_014991CA
 BYTE   PATT
  POIN2 Label_0_014991A4
 BYTE   PATT
  POIN2 Label_0_014991E2
 BYTE   PATT
  POIN2 Label_0_0149913E
 BYTE   PATT
  POIN2 Label_0_014991FA
 BYTE   PATT
  POIN2 Label_0_0149920D
 BYTE   PATT
  POIN2 Label_0_01498FC8
 BYTE   PATT
  POIN2 Label_0_0149924E
 BYTE   PATT
  POIN2 Label_0_014991E2
 BYTE   PATT
  POIN2 Label_0_014991E2
 BYTE   PATT
  POIN2 Label_0_014991E2
 BYTE   PATT
  POIN2 Label_0_0149913E
 BYTE   PATT
  POIN2 Label_0_014991FA
 BYTE   PATT
  POIN2 Label_0_0149920D
 BYTE   PATT
  POIN2 Label_0_01498FC8
 BYTE   PATT
  POIN2 Label_0_0149924E
 BYTE   PATT
  POIN2 Label_0_014991E2
 BYTE   PATT
  POIN2 Label_0_014991E2
// 030   ----------------------------------------
 BYTE   VOL   13*MarioTennisBreakPointPandan_mvl/mxv
 BYTE   N12  En0  v104
 BYTE   W12
 BYTE   N12
 BYTE   W12
 BYTE   En1
 BYTE   W12
 BYTE   En0
 BYTE   W12
 BYTE   Dn1
 BYTE   W12
 BYTE   En0
 BYTE   W12
 BYTE   En1
 BYTE   W12
 BYTE   En0
 BYTE   W12
 BYTE   PATT
  POIN2 Label_0_01498FA2
 BYTE   PATT
  POIN2 Label_0_01498FB5
 BYTE   PATT
  POIN2 Label_0_01498FC8
 BYTE   PATT
  POIN2 Label_0_01498FDB
 BYTE   PATT
  POIN2 Label_0_01498FC8
 BYTE   PATT
  POIN2 Label_0_01498FB5
 BYTE   PATT
  POIN2 Label_0_01498FC8
 BYTE   PATT
  POIN2 Label_0_01498FDB
 BYTE   PATT
  POIN2 Label_0_01498FA2
 BYTE   PATT
  POIN2 Label_0_01499007
 BYTE   PATT
  POIN2 Label_0_0149901A
 BYTE   PATT
  POIN2 Label_0_01498FB5
 BYTE   PATT
  POIN2 Label_0_01498FC8
 BYTE   PATT
  POIN2 Label_0_01498FDB
 BYTE   PATT
  POIN2 Label_0_01498FA2
 BYTE   PATT
  POIN2 Label_0_01498FDB
 BYTE   PATT
  POIN2 Label_0_01498FA2
 BYTE   PATT
  POIN2 Label_0_01498FB5
 BYTE   PATT
  POIN2 Label_0_01498FC8
 BYTE   PATT
  POIN2 Label_0_01498FDB
 BYTE   PATT
  POIN2 Label_0_01498FC8
 BYTE   PATT
  POIN2 Label_0_01498FB5
 BYTE   PATT
  POIN2 Label_0_01498FC8
 BYTE   PATT
  POIN2 Label_0_01498FDB
 BYTE   PATT
  POIN2 Label_0_01498FA2
 BYTE   PATT
  POIN2 Label_0_01499007
 BYTE   PATT
  POIN2 Label_0_0149901A
 BYTE   PATT
  POIN2 Label_0_01498FB5
 BYTE   PATT
  POIN2 Label_0_01498FC8
 BYTE   PATT
  POIN2 Label_0_01498FDB
 BYTE   PATT
  POIN2 Label_0_01498FA2
 BYTE   PATT
  POIN2 Label_0_01498FDB
 BYTE   PATT
  POIN2 Label_0_01498FDB
 BYTE   PATT
  POIN2 Label_0_01498FDB
 BYTE   PATT
  POIN2 Label_0_014990A0
 BYTE   PATT
  POIN2 Label_0_01498FDB
 BYTE   PATT
  POIN2 Label_0_014990B8
 BYTE   PATT
  POIN2 Label_0_014990CB
 BYTE   PATT
  POIN2 Label_0_014990DE
 BYTE   PATT
  POIN2 Label_0_014990F1
 BYTE   PATT
  POIN2 Label_0_014990F1
 BYTE   PATT
  POIN2 Label_0_014990F1
 BYTE   PATT
  POIN2 Label_0_0149910E
 BYTE   PATT
  POIN2 Label_0_01498FB5
 BYTE   PATT
  POIN2 Label_0_01498FC8
 BYTE   PATT
  POIN2 Label_0_0149912B
 BYTE   PATT
  POIN2 Label_0_0149913E
 BYTE   PATT
  POIN2 Label_0_01499151
 BYTE   PATT
  POIN2 Label_0_0149916B
 BYTE   PATT
  POIN2 Label_0_01499185
 BYTE   PATT
  POIN2 Label_0_01499185
 BYTE   PATT
  POIN2 Label_0_014991A4
 BYTE   PATT
  POIN2 Label_0_014991B7
 BYTE   PATT
  POIN2 Label_0_014991CA
 BYTE   PATT
  POIN2 Label_0_014991A4
 BYTE   PATT
  POIN2 Label_0_014991E2
 BYTE   PATT
  POIN2 Label_0_0149913E
 BYTE   PATT
  POIN2 Label_0_014991FA
 BYTE   PATT
  POIN2 Label_0_0149920D
 BYTE   PATT
  POIN2 Label_0_01499220
 BYTE   PATT
  POIN2 Label_0_01499220
 BYTE   PATT
  POIN2 Label_0_01499220
 BYTE   PATT
  POIN2 Label_0_01499220
 BYTE   PATT
  POIN2 Label_0_01498FC8
 BYTE   PATT
  POIN2 Label_0_0149924E
 BYTE   PATT
  POIN2 Label_0_01498FC8
 BYTE   PATT
  POIN2 Label_0_0149924E
 BYTE   PATT
  POIN2 Label_0_0149926B
 BYTE   PATT
  POIN2 Label_0_0149927E
 BYTE   PATT
  POIN2 Label_0_01499291
 BYTE   PATT
  POIN2 Label_0_014992A4
 BYTE   PATT
  POIN2 Label_0_01498FC8
 BYTE   PATT
  POIN2 Label_0_0149924E
 BYTE   PATT
  POIN2 Label_0_01498FC8
 BYTE   PATT
  POIN2 Label_0_0149924E
 BYTE   PATT
  POIN2 Label_0_0149926B
 BYTE   PATT
  POIN2 Label_0_0149927E
 BYTE   PATT
  POIN2 Label_0_01499291
 BYTE   PATT
  POIN2 Label_0_014992A4
 BYTE   PATT
  POIN2 Label_0_01499220
 BYTE   PATT
  POIN2 Label_0_01499220
 BYTE   PATT
  POIN2 Label_0_01499220
 BYTE   PATT
  POIN2 Label_0_01499220
 BYTE   PATT
  POIN2 Label_0_01499220
 BYTE   PATT
  POIN2 Label_0_01499220
 BYTE   PATT
  POIN2 Label_0_01499220
 BYTE   PATT
  POIN2 Label_0_01499220
 BYTE   PATT
  POIN2 Label_0_014991A4
 BYTE   PATT
  POIN2 Label_0_014991B7
 BYTE   PATT
  POIN2 Label_0_014991CA
 BYTE   PATT
  POIN2 Label_0_014991A4
 BYTE   PATT
  POIN2 Label_0_014991A4
 BYTE   PATT
  POIN2 Label_0_014991B7
 BYTE   PATT
  POIN2 Label_0_014991CA
 BYTE   PATT
  POIN2 Label_0_014991A4
 BYTE   PATT
  POIN2 Label_0_014991E2
 BYTE   PATT
  POIN2 Label_0_0149913E
 BYTE   PATT
  POIN2 Label_0_014991FA
 BYTE   PATT
  POIN2 Label_0_0149920D
 BYTE   PATT
  POIN2 Label_0_01498FC8
 BYTE   PATT
  POIN2 Label_0_0149924E
 BYTE   PATT
  POIN2 Label_0_014991E2
 BYTE   PATT
  POIN2 Label_0_014991E2
 BYTE   PATT
  POIN2 Label_0_014991E2
 BYTE   PATT
  POIN2 Label_0_0149913E
 BYTE   PATT
  POIN2 Label_0_014991FA
 BYTE   PATT
  POIN2 Label_0_0149920D
 BYTE   PATT
  POIN2 Label_0_01498FC8
 BYTE   PATT
  POIN2 Label_0_0149924E
 BYTE   PATT
  POIN2 Label_0_014991E2
 BYTE   PATT
  POIN2 Label_0_014991E2
// 031   ----------------------------------------
 BYTE   VOL   13*MarioTennisBreakPointPandan_mvl/mxv
 BYTE   N12  En0  v104
 BYTE   W01
 BYTE   VOL   13*MarioTennisBreakPointPandan_mvl/mxv
 BYTE   W11
 BYTE   N12
 BYTE   W09
 BYTE   VOL   12*MarioTennisBreakPointPandan_mvl/mxv
 BYTE   W03
 BYTE   N12  En1
 BYTE   W12
 BYTE   En0
 BYTE   W04
 BYTE   VOL   11*MarioTennisBreakPointPandan_mvl/mxv
 BYTE   W08
 BYTE   N12  Dn1
 BYTE   W12
 BYTE   VOL   10*MarioTennisBreakPointPandan_mvl/mxv
 BYTE   N12  En0
 BYTE   W12
 BYTE   En1
 BYTE   W08
 BYTE   VOL   9*MarioTennisBreakPointPandan_mvl/mxv
 BYTE   W04
 BYTE   N12  En0
 BYTE   W12
// 032   ----------------------------------------
 BYTE   En1
 BYTE   W03
 BYTE   VOL   8*MarioTennisBreakPointPandan_mvl/mxv
 BYTE   W09
 BYTE   N12  En0
 BYTE   W11
 BYTE   VOL   7*MarioTennisBreakPointPandan_mvl/mxv
 BYTE   W01
 BYTE   N12
 BYTE   W12
 BYTE   En1
 BYTE   W07
 BYTE   VOL   6*MarioTennisBreakPointPandan_mvl/mxv
 BYTE   W05
 BYTE   N12  En0
 BYTE   W12
 BYTE   N12
 BYTE   W02
 BYTE   VOL   5*MarioTennisBreakPointPandan_mvl/mxv
 BYTE   W10
 BYTE   N12  Dn1
 BYTE   W10
 BYTE   VOL   4*MarioTennisBreakPointPandan_mvl/mxv
 BYTE   W02
 BYTE   N12  En1
 BYTE   W12
// 033   ----------------------------------------
 BYTE   Cn1
 BYTE   W06
 BYTE   VOL   3*MarioTennisBreakPointPandan_mvl/mxv
 BYTE   W06
 BYTE   N12  Cn0
 BYTE   W12
 BYTE   N12
 BYTE   W01
 BYTE   VOL   2*MarioTennisBreakPointPandan_mvl/mxv
 BYTE   W11
 BYTE   N12  Cn1
 BYTE   W09
 BYTE   VOL   1*MarioTennisBreakPointPandan_mvl/mxv
 BYTE   W03
 BYTE   N12  Cn0
 BYTE   W12
 BYTE   N12
 BYTE   W05
 BYTE   VOL   0*MarioTennisBreakPointPandan_mvl/mxv
 BYTE   W07
 BYTE   N12  Cn1
 BYTE   W12
 BYTE   VOL   0*MarioTennisBreakPointPandan_mvl/mxv
 BYTE   N12  Cn0
 BYTE   W12
// 034   ----------------------------------------
 BYTE   Dn0
 BYTE   W08
 BYTE   VOL   0*MarioTennisBreakPointPandan_mvl/mxv
 BYTE   W04
 BYTE   N12
 BYTE   W12
 BYTE   Dn1
 BYTE   W04
 BYTE   VOL   0*MarioTennisBreakPointPandan_mvl/mxv
 BYTE   W08
 BYTE   N12  Dn0
 BYTE   W11
 BYTE   VOL   0*MarioTennisBreakPointPandan_mvl/mxv
 BYTE   W01
 BYTE   N12  Cn1
 BYTE   W12
 BYTE   Dn0
 BYTE   W07
 BYTE   VOL   0*MarioTennisBreakPointPandan_mvl/mxv
 BYTE   W05
 BYTE   N12  Dn1
 BYTE   W12
 BYTE   Dn0
 BYTE   W03
 BYTE   VOL   0*MarioTennisBreakPointPandan_mvl/mxv
 BYTE   W09
// 035   ----------------------------------------
 BYTE   N12  En0
 BYTE   W10
 BYTE   VOL   0*MarioTennisBreakPointPandan_mvl/mxv
 BYTE   W02
 BYTE   N12
 BYTE   W12
 BYTE   En1
 BYTE   W06
 BYTE   VOL   0*MarioTennisBreakPointPandan_mvl/mxv
 BYTE   W06
 BYTE   N12  En0
 BYTE   W12
 BYTE   Dn1
 BYTE   W02
 BYTE   VOL   0*MarioTennisBreakPointPandan_mvl/mxv
 BYTE   W10
 BYTE   N12  En0
 BYTE   W09
 BYTE   VOL   0*MarioTennisBreakPointPandan_mvl/mxv
 BYTE   W03
 BYTE   N12  En1
 BYTE   W12
 BYTE   En0
 BYTE   W05
 BYTE   VOL   0*MarioTennisBreakPointPandan_mvl/mxv
 BYTE   W07
// 036   ----------------------------------------
 BYTE   N12  Dn0
 BYTE   W12
 BYTE   N12
 BYTE   W01
 BYTE   VOL   0*MarioTennisBreakPointPandan_mvl/mxv
 BYTE   W11
 BYTE   N12  Dn1
 BYTE   W09
 BYTE   VOL   0*MarioTennisBreakPointPandan_mvl/mxv
 BYTE   W03
 BYTE   N12  Dn0
 BYTE   W12
 BYTE   Cn1
 BYTE   W04
 BYTE   VOL   0*MarioTennisBreakPointPandan_mvl/mxv
 BYTE   W08
 BYTE   N12  Dn0
 BYTE   W12
 BYTE   VOL   0*MarioTennisBreakPointPandan_mvl/mxv
 BYTE   N12  Dn1
 BYTE   W12
 BYTE   Dn0
 BYTE   W08
 BYTE   VOL   0*MarioTennisBreakPointPandan_mvl/mxv
 BYTE   W04
// 037   ----------------------------------------
 BYTE   N12  Cn1
 BYTE   W12
 BYTE   Cn0
 BYTE   W03
 BYTE   VOL   0*MarioTennisBreakPointPandan_mvl/mxv
 BYTE   W09
 BYTE   N12
 BYTE   W11
 BYTE   VOL   0*MarioTennisBreakPointPandan_mvl/mxv
 BYTE   W01
 BYTE   N12  Cn1
 BYTE   W12
 BYTE   Cn0
 BYTE   W07
 BYTE   VOL   0*MarioTennisBreakPointPandan_mvl/mxv
 BYTE   W05
 BYTE   N12
 BYTE   W12
 BYTE   Cn1
 BYTE   W02
 BYTE   VOL   0*MarioTennisBreakPointPandan_mvl/mxv
 BYTE   W10
 BYTE   N12  Cn0
 BYTE   W10
 BYTE   VOL   0*MarioTennisBreakPointPandan_mvl/mxv
 BYTE   W02
// 038   ----------------------------------------
 BYTE   N12  Dn0
 BYTE   W12
 BYTE   N12
 BYTE   W06
 BYTE   VOL   0*MarioTennisBreakPointPandan_mvl/mxv
 BYTE   W06
 BYTE   N12  Dn1
 BYTE   W12
 BYTE   Dn0
 BYTE   W01
 BYTE   VOL   0*MarioTennisBreakPointPandan_mvl/mxv
 BYTE   W11
 BYTE   N12  Cn1
 BYTE   W09
 BYTE   VOL   0*MarioTennisBreakPointPandan_mvl/mxv
 BYTE   W03
 BYTE   N12  Dn0
 BYTE   W12
 BYTE   Dn1
 BYTE   W05
 BYTE   VOL   0*MarioTennisBreakPointPandan_mvl/mxv
 BYTE   W07
 BYTE   N12  Dn0
 BYTE   W12
// 039   ----------------------------------------
 BYTE   VOL   0*MarioTennisBreakPointPandan_mvl/mxv
 BYTE   N12  En0
 BYTE   W12
 BYTE   N12
 BYTE   W08
 BYTE   VOL   0*MarioTennisBreakPointPandan_mvl/mxv
 BYTE   W04
 BYTE   N12  En1
 BYTE   W12
 BYTE   En0
 BYTE   W04
 BYTE   VOL   0*MarioTennisBreakPointPandan_mvl/mxv
 BYTE   W08
 BYTE   N12  Dn1
 BYTE   W11
 BYTE   VOL   0*MarioTennisBreakPointPandan_mvl/mxv
 BYTE   W01
 BYTE   N12  En0
 BYTE   W12
 BYTE   En1
 BYTE   W07
 BYTE   VOL   0*MarioTennisBreakPointPandan_mvl/mxv
 BYTE   W05
 BYTE   N12  En0
 BYTE   W12
// 040   ----------------------------------------
 BYTE   En1
 BYTE   W03
 BYTE   VOL   0*MarioTennisBreakPointPandan_mvl/mxv
 BYTE   W09
 BYTE   N12  En0
 BYTE   W10
 BYTE   VOL   0*MarioTennisBreakPointPandan_mvl/mxv
 BYTE   W02
 BYTE   N12
 BYTE   W12
 BYTE   En1
 BYTE   W06
 BYTE   VOL   0*MarioTennisBreakPointPandan_mvl/mxv
 BYTE   W06
 BYTE   N12  En0
 BYTE   W12
 BYTE   N12
 BYTE   W02
 BYTE   VOL   0*MarioTennisBreakPointPandan_mvl/mxv
 BYTE   W10
 BYTE   N12  Dn1
 BYTE   W09
 BYTE   VOL   0*MarioTennisBreakPointPandan_mvl/mxv
 BYTE   W03
 BYTE   N12  En1
 BYTE   W12
// 041   ----------------------------------------
 BYTE   Gn0
 BYTE   W05
 BYTE   VOL   0*MarioTennisBreakPointPandan_mvl/mxv
 BYTE   W07
 BYTE   N12
 BYTE   W12
 BYTE   N12
 BYTE   W01
 BYTE   VOL   0*MarioTennisBreakPointPandan_mvl/mxv
 BYTE   W11
 BYTE   N12
 BYTE   W08
 BYTE   VOL   0*MarioTennisBreakPointPandan_mvl/mxv
 BYTE   W04
 BYTE   N12
 BYTE   W12
 BYTE   N12
 BYTE   W04
 BYTE   VOL   0*MarioTennisBreakPointPandan_mvl/mxv
 BYTE   W08
 BYTE   N12
 BYTE   W12
 BYTE   VOL   0*MarioTennisBreakPointPandan_mvl/mxv
 BYTE   N12
 BYTE   W12
// 042   ----------------------------------------
 BYTE   An0
 BYTE   W07
 BYTE   VOL   0*MarioTennisBreakPointPandan_mvl/mxv
 BYTE   W05
 BYTE   N12
 BYTE   W12
 BYTE   N12
 BYTE   W03
 BYTE   VOL   0*MarioTennisBreakPointPandan_mvl/mxv
 BYTE   W09
 BYTE   N12
 BYTE   W11
 BYTE   VOL   0*MarioTennisBreakPointPandan_mvl/mxv
 BYTE   W01
 BYTE   N12
 BYTE   W12
 BYTE   N12
 BYTE   W06
 BYTE   VOL   0*MarioTennisBreakPointPandan_mvl/mxv
 BYTE   W06
 BYTE   N12
 BYTE   W12
 BYTE   N12
 BYTE   W02
 BYTE   VOL   0*MarioTennisBreakPointPandan_mvl/mxv
 BYTE   W10
// 043   ----------------------------------------
 BYTE   N12  Cn1
 BYTE   W10
 BYTE   VOL   0*MarioTennisBreakPointPandan_mvl/mxv
 BYTE   W02
 BYTE   N12  Cn0
 BYTE   W12
 BYTE   N12
 BYTE   W05
 BYTE   VOL   0*MarioTennisBreakPointPandan_mvl/mxv
 BYTE   W07
 BYTE   N12  Cn1
 BYTE   W12
 BYTE   Cn0
 BYTE   W01
 BYTE   VOL   0*MarioTennisBreakPointPandan_mvl/mxv
 BYTE   W11
 BYTE   N12
 BYTE   W09
 BYTE   VOL   0*MarioTennisBreakPointPandan_mvl/mxv
 BYTE   W03
 BYTE   N12  Cn1
 BYTE   W12
 BYTE   Cn0
 BYTE   W04
 BYTE   VOL   0*MarioTennisBreakPointPandan_mvl/mxv
 BYTE   W08
// 044   ----------------------------------------
 BYTE   N12  Dn0
 BYTE   W12
 BYTE   VOL   0*MarioTennisBreakPointPandan_mvl/mxv
 BYTE   N12
 BYTE   W12
 BYTE   Dn1
 BYTE   W08
 BYTE   VOL   0*MarioTennisBreakPointPandan_mvl/mxv
 BYTE   W04
 BYTE   N12  Dn0
 BYTE   W12
 BYTE   Cn1
 BYTE   W03
 BYTE   VOL   0*MarioTennisBreakPointPandan_mvl/mxv
 BYTE   W09
 BYTE   N12  Dn0
 BYTE   W11
 BYTE   VOL   0*MarioTennisBreakPointPandan_mvl/mxv
 BYTE   W01
 BYTE   N12  Dn1
 BYTE   W12
 BYTE   Dn0
 BYTE   W07
 BYTE   VOL   0*MarioTennisBreakPointPandan_mvl/mxv
 BYTE   W05
// 045   ----------------------------------------
 BYTE   N12  En0
 BYTE   W12
 BYTE   N12
 BYTE   W02
 BYTE   VOL   0*MarioTennisBreakPointPandan_mvl/mxv
 BYTE   W10
 BYTE   N12  En1
 BYTE   W10
 BYTE   VOL   0*MarioTennisBreakPointPandan_mvl/mxv
 BYTE   W02
 BYTE   N12  En0
 BYTE   W12
 BYTE   Dn1
 BYTE   W06
 BYTE   VOL   0*MarioTennisBreakPointPandan_mvl/mxv
 BYTE   W06
 BYTE   N12  En0
 BYTE   W12
 BYTE   En1
 BYTE   W01
 BYTE   VOL   0*MarioTennisBreakPointPandan_mvl/mxv
 BYTE   W11
 BYTE   N12  En0
 BYTE   W09
 BYTE   VOL   0*MarioTennisBreakPointPandan_mvl/mxv
 BYTE   W03
// 046   ----------------------------------------
 BYTE   N12  En1
 BYTE   W12
 BYTE   En0
 BYTE   W05
 BYTE   VOL   0*MarioTennisBreakPointPandan_mvl/mxv
 BYTE   W07
 BYTE   N12
 BYTE   W12
 BYTE   VOL   0*MarioTennisBreakPointPandan_mvl/mxv
 BYTE   N12  En1
 BYTE   W12
 BYTE   En0
 BYTE   W08
 BYTE   VOL   0*MarioTennisBreakPointPandan_mvl/mxv
 BYTE   W04
 BYTE   N12
 BYTE   W12
 BYTE   Dn1
 BYTE   W04
 BYTE   VOL   0*MarioTennisBreakPointPandan_mvl/mxv
 BYTE   W08
 BYTE   N12  En1
 BYTE   W12
 BYTE   FINE

//**************** Track 2 (Midi-Chn.1) ****************//

MarioTennisBreakPointPandan_002:
// 000   ----------------------------------------
 BYTE   KEYSH   MarioTennisBreakPointPandan_key+0
 BYTE   VOICE   34
 BYTE   VOL   87*MarioTennisBreakPointPandan_mvl/mxv
 BYTE   N12  En0  v104
 BYTE   W12
 BYTE   N12
 BYTE   W12
 BYTE   En1
 BYTE   W12
 BYTE   En0
 BYTE   W12
 BYTE   Dn1
 BYTE   W12
 BYTE   En0
 BYTE   W12
 BYTE   En1
 BYTE   W12
 BYTE   En0
 BYTE   W12
// 001   ----------------------------------------
Label_1_014997F8:
 BYTE   N12  En1  v104
 BYTE   W12
 BYTE   En0
 BYTE   W12
 BYTE   N12
 BYTE   W12
 BYTE   En1
 BYTE   W12
 BYTE   En0
 BYTE   W12
 BYTE   N12
 BYTE   W12
 BYTE   Dn1
 BYTE   W12
 BYTE   En1
 BYTE   W12
 BYTE   PEND 
// 002   ----------------------------------------
Label_1_0149980B:
 BYTE   N12  Cn1  v104
 BYTE   W12
 BYTE   Cn0
 BYTE   W12
 BYTE   N12
 BYTE   W12
 BYTE   Cn1
 BYTE   W12
 BYTE   Cn0
 BYTE   W12
 BYTE   N12
 BYTE   W12
 BYTE   Cn1
 BYTE   W12
 BYTE   Cn0
 BYTE   W12
 BYTE   PEND 
// 003   ----------------------------------------
Label_1_0149981E:
 BYTE   N12  Dn0  v104
 BYTE   W12
 BYTE   N12
 BYTE   W12
 BYTE   Dn1
 BYTE   W12
 BYTE   Dn0
 BYTE   W12
 BYTE   Cn1
 BYTE   W12
 BYTE   Dn0
 BYTE   W12
 BYTE   Dn1
 BYTE   W12
 BYTE   Dn0
 BYTE   W12
 BYTE   PEND 
// 004   ----------------------------------------
Label_1_01499831:
 BYTE   N12  En0  v104
 BYTE   W12
 BYTE   N12
 BYTE   W12
 BYTE   En1
 BYTE   W12
 BYTE   En0
 BYTE   W12
 BYTE   Dn1
 BYTE   W12
 BYTE   En0
 BYTE   W12
 BYTE   En1
 BYTE   W12
 BYTE   En0
 BYTE   W12
 BYTE   PEND 
 BYTE   PATT
  POIN2 Label_1_0149981E
 BYTE   PATT
  POIN2 Label_1_0149980B
 BYTE   PATT
  POIN2 Label_1_0149981E
 BYTE   PATT
  POIN2 Label_1_01499831
 BYTE   PATT
  POIN2 Label_1_014997F8
// 005   ----------------------------------------
Label_1_0149985D:
 BYTE   N12  Gn0  v104
 BYTE   W12
 BYTE   N12
 BYTE   W12
 BYTE   N12
 BYTE   W12
 BYTE   N12
 BYTE   W12
 BYTE   N12
 BYTE   W12
 BYTE   N12
 BYTE   W12
 BYTE   N12
 BYTE   W12
 BYTE   N12
 BYTE   W12
 BYTE   PEND 
// 006   ----------------------------------------
Label_1_01499870:
 BYTE   N12  An0  v104
 BYTE   W12
 BYTE   N12
 BYTE   W12
 BYTE   N12
 BYTE   W12
 BYTE   N12
 BYTE   W12
 BYTE   N12
 BYTE   W12
 BYTE   N12
 BYTE   W12
 BYTE   N12
 BYTE   W12
 BYTE   N12
 BYTE   W12
 BYTE   PEND 
 BYTE   PATT
  POIN2 Label_1_0149980B
 BYTE   PATT
  POIN2 Label_1_0149981E
 BYTE   PATT
  POIN2 Label_1_01499831
 BYTE   PATT
  POIN2 Label_1_014997F8
 BYTE   PATT
  POIN2 Label_1_01499831
 BYTE   PATT
  POIN2 Label_1_014997F8
 BYTE   PATT
  POIN2 Label_1_0149980B
 BYTE   PATT
  POIN2 Label_1_0149981E
 BYTE   PATT
  POIN2 Label_1_01499831
 BYTE   PATT
  POIN2 Label_1_0149981E
 BYTE   PATT
  POIN2 Label_1_0149980B
 BYTE   PATT
  POIN2 Label_1_0149981E
 BYTE   PATT
  POIN2 Label_1_01499831
 BYTE   PATT
  POIN2 Label_1_014997F8
 BYTE   PATT
  POIN2 Label_1_0149985D
 BYTE   PATT
  POIN2 Label_1_01499870
 BYTE   PATT
  POIN2 Label_1_0149980B
 BYTE   PATT
  POIN2 Label_1_0149981E
 BYTE   PATT
  POIN2 Label_1_01499831
 BYTE   PATT
  POIN2 Label_1_014997F8
 BYTE   PATT
  POIN2 Label_1_01499831
 BYTE   PATT
  POIN2 Label_1_01499831
 BYTE   PATT
  POIN2 Label_1_01499831
// 007   ----------------------------------------
Label_1_014998F6:
 BYTE   N12  En0  v104
 BYTE   W12
 BYTE   N12
 BYTE   W12
 BYTE   N12
 BYTE   W12
 BYTE   Dn0
 BYTE   W12
 BYTE   En0
 BYTE   W12
 BYTE   Dn0
 BYTE   W12
 BYTE   BnM1
 BYTE   W12
 BYTE   Dn0
 BYTE   W12
 BYTE   PEND 
 BYTE   PATT
  POIN2 Label_1_01499831
// 008   ----------------------------------------
Label_1_0149990E:
 BYTE   N12  En1  v104
 BYTE   W12
 BYTE   En0
 BYTE   W12
 BYTE   N12
 BYTE   W12
 BYTE   Dn1
 BYTE   W12
 BYTE   En0
 BYTE   W12
 BYTE   N12
 BYTE   W12
 BYTE   En1
 BYTE   W12
 BYTE   En0
 BYTE   W12
 BYTE   PEND 
// 009   ----------------------------------------
Label_1_01499921:
 BYTE   N12  Bn0  v104
 BYTE   W12
 BYTE   N12
 BYTE   W12
 BYTE   N12
 BYTE   W12
 BYTE   Fs0
 BYTE   W12
 BYTE   Bn0
 BYTE   W12
 BYTE   N12
 BYTE   W12
 BYTE   N12
 BYTE   W12
 BYTE   Fs0
 BYTE   W12
 BYTE   PEND 
// 010   ----------------------------------------
Label_1_01499934:
 BYTE   N12  Bn0  v104
 BYTE   W12
 BYTE   Fs0
 BYTE   W12
 BYTE   Bn0
 BYTE   W12
 BYTE   Ds1
 BYTE   W12
 BYTE   Fs1
 BYTE   W12
 BYTE   Ds1
 BYTE   W12
 BYTE   Bn0
 BYTE   W12
 BYTE   Fs0
 BYTE   W12
 BYTE   PEND 
// 011   ----------------------------------------
Label_1_01499947:
 BYTE   N12  Dn0  v104
 BYTE   W12
 BYTE   En0
 BYTE   W12
 BYTE   N12
 BYTE   W12
 BYTE   Dn0
 BYTE   W12
 BYTE   En0
 BYTE   W12
 BYTE   Dn0
 BYTE   W12
 BYTE   BnM1
 BYTE   W12
 BYTE   Dn0
 BYTE   W12
 BYTE   PEND 
 BYTE   PATT
  POIN2 Label_1_01499947
 BYTE   PATT
  POIN2 Label_1_01499947
// 012   ----------------------------------------
Label_1_01499964:
 BYTE   N12  Dn0  v104
 BYTE   W12
 BYTE   En0
 BYTE   W12
 BYTE   N12
 BYTE   W12
 BYTE   Dn0
 BYTE   W12
 BYTE   En0
 BYTE   W12
 BYTE   Bn0
 BYTE   W12
 BYTE   En1
 BYTE   W12
 BYTE   En0
 BYTE   W12
 BYTE   PEND 
 BYTE   PATT
  POIN2 Label_1_0149980B
 BYTE   PATT
  POIN2 Label_1_0149981E
// 013   ----------------------------------------
Label_1_01499981:
 BYTE   N12  Ds1  v104
 BYTE   W12
 BYTE   Ds0
 BYTE   W12
 BYTE   N12
 BYTE   W12
 BYTE   Ds1
 BYTE   W12
 BYTE   Ds0
 BYTE   W12
 BYTE   N12
 BYTE   W12
 BYTE   Ds1
 BYTE   W12
 BYTE   Ds0
 BYTE   W12
 BYTE   PEND 
// 014   ----------------------------------------
Label_1_01499994:
 BYTE   N12  Fn0  v104
 BYTE   W12
 BYTE   N12
 BYTE   W12
 BYTE   Fn1
 BYTE   W12
 BYTE   Fn0
 BYTE   W12
 BYTE   Ds1
 BYTE   W12
 BYTE   Fn0
 BYTE   W12
 BYTE   Fn1
 BYTE   W12
 BYTE   Fn0
 BYTE   W12
 BYTE   PEND 
// 015   ----------------------------------------
Label_1_014999A7:
 BYTE   N12  Gn0  v104
 BYTE   W12
 BYTE   Gn0  v076
 BYTE   W12
 BYTE   Gn0  v104
 BYTE   W12
 BYTE   Gn0  v076
 BYTE   W12
 BYTE   Gn0  v104
 BYTE   W12
 BYTE   Gn0  v076
 BYTE   W12
 BYTE   Gn0  v104
 BYTE   W12
 BYTE   Gn0  v076
 BYTE   W12
 BYTE   PEND 
// 016   ----------------------------------------
Label_1_014999C1:
 BYTE   N12  Fn0  v104
 BYTE   W12
 BYTE   Fn0  v076
 BYTE   W12
 BYTE   Fn0  v104
 BYTE   W12
 BYTE   Fn0  v076
 BYTE   W12
 BYTE   Fn0  v104
 BYTE   W12
 BYTE   Fn0  v076
 BYTE   W12
 BYTE   Fn0  v104
 BYTE   W12
 BYTE   Fn0  v076
 BYTE   W12
 BYTE   PEND 
// 017   ----------------------------------------
Label_1_014999DB:
 BYTE   N12  Ds0  v104
 BYTE   W12
 BYTE   Ds0  v076
 BYTE   W12
 BYTE   Ds0  v104
 BYTE   W12
 BYTE   Ds0  v076
 BYTE   W12
 BYTE   Ds0  v104
 BYTE   W12
 BYTE   Ds0  v076
 BYTE   W12
 BYTE   Ds0  v104
 BYTE   W12
 BYTE   Ds0  v076
 BYTE   W12
 BYTE   PEND 
 BYTE   PATT
  POIN2 Label_1_014999DB
// 018   ----------------------------------------
Label_1_014999FA:
 BYTE   N12  An0  v104
 BYTE   W12
 BYTE   N12
 BYTE   W12
 BYTE   N12
 BYTE   W12
 BYTE   Gn0
 BYTE   W12
 BYTE   An0
 BYTE   W12
 BYTE   Gn0
 BYTE   W12
 BYTE   An0
 BYTE   W12
 BYTE   N12
 BYTE   W12
 BYTE   PEND 
// 019   ----------------------------------------
Label_1_01499A0D:
 BYTE   N12  An0  v104
 BYTE   W12
 BYTE   Gn0
 BYTE   W12
 BYTE   An0
 BYTE   W12
 BYTE   Gn0
 BYTE   W12
 BYTE   An0
 BYTE   W12
 BYTE   N12
 BYTE   W12
 BYTE   Gn0
 BYTE   W12
 BYTE   An0
 BYTE   W12
 BYTE   PEND 
// 020   ----------------------------------------
Label_1_01499A20:
 BYTE   N12  An0  v104
 BYTE   W12
 BYTE   N12
 BYTE   W12
 BYTE   N12
 BYTE   W12
 BYTE   Gn0
 BYTE   W12
 BYTE   An0
 BYTE   W12
 BYTE   Gn0
 BYTE   W12
 BYTE   An0
 BYTE   W12
 BYTE   Gn0
 BYTE   W12
 BYTE   PEND 
 BYTE   PATT
  POIN2 Label_1_014999FA
// 021   ----------------------------------------
Label_1_01499A38:
 BYTE   N12  Gn0  v104
 BYTE   W12
 BYTE   N12
 BYTE   W12
 BYTE   N12
 BYTE   W12
 BYTE   Dn0
 BYTE   W12
 BYTE   Gn0
 BYTE   W12
 BYTE   Dn0
 BYTE   W12
 BYTE   Gn0
 BYTE   W12
 BYTE   N12
 BYTE   W12
 BYTE   PEND 
 BYTE   PATT
  POIN2 Label_1_01499994
// 022   ----------------------------------------
Label_1_01499A50:
 BYTE   N12  Ds0  v104
 BYTE   W12
 BYTE   N12
 BYTE   W12
 BYTE   Ds1
 BYTE   W12
 BYTE   Ds0
 BYTE   W12
 BYTE   Dn1
 BYTE   W12
 BYTE   Ds0
 BYTE   W12
 BYTE   Ds1
 BYTE   W12
 BYTE   Ds0
 BYTE   W12
 BYTE   PEND 
// 023   ----------------------------------------
Label_1_01499A63:
 BYTE   N12  Ds1  v104
 BYTE   W12
 BYTE   Ds0
 BYTE   W12
 BYTE   N12
 BYTE   W12
 BYTE   Ds1
 BYTE   W12
 BYTE   Ds0
 BYTE   W12
 BYTE   N12
 BYTE   W12
 BYTE   Dn1
 BYTE   W12
 BYTE   Ds1
 BYTE   W12
 BYTE   PEND 
// 024   ----------------------------------------
Label_1_01499A76:
 BYTE   N12  An0  v104
 BYTE   W12
 BYTE   An0  v076
 BYTE   W12
 BYTE   An0  v104
 BYTE   W12
 BYTE   An0  v076
 BYTE   W12
 BYTE   An0  v104
 BYTE   W12
 BYTE   An0  v076
 BYTE   W12
 BYTE   An0  v104
 BYTE   W12
 BYTE   An0  v076
 BYTE   W12
 BYTE   PEND 
 BYTE   PATT
  POIN2 Label_1_01499A76
 BYTE   PATT
  POIN2 Label_1_01499A76
 BYTE   PATT
  POIN2 Label_1_01499A76
 BYTE   PATT
  POIN2 Label_1_0149981E
// 025   ----------------------------------------
Label_1_01499AA4:
 BYTE   N12  Dn1  v104
 BYTE   W12
 BYTE   Dn0
 BYTE   W12
 BYTE   N12
 BYTE   W12
 BYTE   Dn1
 BYTE   W12
 BYTE   Dn0
 BYTE   W12
 BYTE   N12
 BYTE   W12
 BYTE   Cn1
 BYTE   W12
 BYTE   Dn1
 BYTE   W12
 BYTE   PEND 
 BYTE   PATT
  POIN2 Label_1_0149981E
 BYTE   PATT
  POIN2 Label_1_01499AA4
// 026   ----------------------------------------
Label_1_01499AC1:
 BYTE   N12  Dn0  v104
 BYTE   W12
 BYTE   N12
 BYTE   W12
 BYTE   Dn1
 BYTE   W12
 BYTE   Dn0
 BYTE   W12
 BYTE   Cn1
 BYTE   W12
 BYTE   N12
 BYTE   W12
 BYTE   Dn1
 BYTE   W12
 BYTE   Dn0
 BYTE   W12
 BYTE   PEND 
// 027   ----------------------------------------
Label_1_01499AD4:
 BYTE   N12  Dn0  v104
 BYTE   W12
 BYTE   N12
 BYTE   W12
 BYTE   N12
 BYTE   W12
 BYTE   Cn0
 BYTE   W12
 BYTE   Dn0
 BYTE   W12
 BYTE   N12
 BYTE   W12
 BYTE   An0
 BYTE   W12
 BYTE   Dn0
 BYTE   W12
 BYTE   PEND 
// 028   ----------------------------------------
Label_1_01499AE7:
 BYTE   N12  An0  v104
 BYTE   W12
 BYTE   Gn0
 BYTE   W12
 BYTE   An0
 BYTE   W12
 BYTE   N12
 BYTE   W12
 BYTE   Gn0
 BYTE   W12
 BYTE   An0
 BYTE   W12
 BYTE   N12
 BYTE   W12
 BYTE   Gn0
 BYTE   W12
 BYTE   PEND 
// 029   ----------------------------------------
Label_1_01499AFA:
 BYTE   N12  An0  v104
 BYTE   W12
 BYTE   N12
 BYTE   W12
 BYTE   N12
 BYTE   W12
 BYTE   Gn0
 BYTE   W12
 BYTE   An0
 BYTE   W12
 BYTE   N12
 BYTE   W12
 BYTE   Gn0
 BYTE   W12
 BYTE   An0
 BYTE   W12
 BYTE   PEND 
 BYTE   PATT
  POIN2 Label_1_0149981E
 BYTE   PATT
  POIN2 Label_1_01499AA4
 BYTE   PATT
  POIN2 Label_1_0149981E
 BYTE   PATT
  POIN2 Label_1_01499AA4
 BYTE   PATT
  POIN2 Label_1_01499AC1
 BYTE   PATT
  POIN2 Label_1_01499AD4
 BYTE   PATT
  POIN2 Label_1_01499AE7
 BYTE   PATT
  POIN2 Label_1_01499AFA
 BYTE   PATT
  POIN2 Label_1_01499A76
 BYTE   PATT
  POIN2 Label_1_01499A76
 BYTE   PATT
  POIN2 Label_1_01499A76
 BYTE   PATT
  POIN2 Label_1_01499A76
 BYTE   PATT
  POIN2 Label_1_01499A76
 BYTE   PATT
  POIN2 Label_1_01499A76
 BYTE   PATT
  POIN2 Label_1_01499A76
 BYTE   PATT
  POIN2 Label_1_01499A76
 BYTE   PATT
  POIN2 Label_1_014999FA
 BYTE   PATT
  POIN2 Label_1_01499A0D
 BYTE   PATT
  POIN2 Label_1_01499A20
 BYTE   PATT
  POIN2 Label_1_014999FA
 BYTE   PATT
  POIN2 Label_1_014999FA
 BYTE   PATT
  POIN2 Label_1_01499A0D
 BYTE   PATT
  POIN2 Label_1_01499A20
 BYTE   PATT
  POIN2 Label_1_014999FA
 BYTE   PATT
  POIN2 Label_1_01499A38
 BYTE   PATT
  POIN2 Label_1_01499994
 BYTE   PATT
  POIN2 Label_1_01499A50
 BYTE   PATT
  POIN2 Label_1_01499A63
 BYTE   PATT
  POIN2 Label_1_0149981E
 BYTE   PATT
  POIN2 Label_1_01499AA4
 BYTE   PATT
  POIN2 Label_1_01499A38
 BYTE   PATT
  POIN2 Label_1_01499A38
 BYTE   PATT
  POIN2 Label_1_01499A38
 BYTE   PATT
  POIN2 Label_1_01499994
 BYTE   PATT
  POIN2 Label_1_01499A50
 BYTE   PATT
  POIN2 Label_1_01499A63
 BYTE   PATT
  POIN2 Label_1_0149981E
 BYTE   PATT
  POIN2 Label_1_01499AA4
 BYTE   PATT
  POIN2 Label_1_01499A38
 BYTE   PATT
  POIN2 Label_1_01499A38
// 030   ----------------------------------------
 BYTE   VOL   87*MarioTennisBreakPointPandan_mvl/mxv
 BYTE   N12  En0  v104
 BYTE   W12
 BYTE   N12
 BYTE   W12
 BYTE   En1
 BYTE   W12
 BYTE   En0
 BYTE   W12
 BYTE   Dn1
 BYTE   W12
 BYTE   En0
 BYTE   W12
 BYTE   En1
 BYTE   W12
 BYTE   En0
 BYTE   W12
 BYTE   PATT
  POIN2 Label_1_014997F8
 BYTE   PATT
  POIN2 Label_1_0149980B
 BYTE   PATT
  POIN2 Label_1_0149981E
 BYTE   PATT
  POIN2 Label_1_01499831
 BYTE   PATT
  POIN2 Label_1_0149981E
 BYTE   PATT
  POIN2 Label_1_0149980B
 BYTE   PATT
  POIN2 Label_1_0149981E
 BYTE   PATT
  POIN2 Label_1_01499831
 BYTE   PATT
  POIN2 Label_1_014997F8
 BYTE   PATT
  POIN2 Label_1_0149985D
 BYTE   PATT
  POIN2 Label_1_01499870
 BYTE   PATT
  POIN2 Label_1_0149980B
 BYTE   PATT
  POIN2 Label_1_0149981E
 BYTE   PATT
  POIN2 Label_1_01499831
 BYTE   PATT
  POIN2 Label_1_014997F8
 BYTE   PATT
  POIN2 Label_1_01499831
 BYTE   PATT
  POIN2 Label_1_014997F8
 BYTE   PATT
  POIN2 Label_1_0149980B
 BYTE   PATT
  POIN2 Label_1_0149981E
 BYTE   PATT
  POIN2 Label_1_01499831
 BYTE   PATT
  POIN2 Label_1_0149981E
 BYTE   PATT
  POIN2 Label_1_0149980B
 BYTE   PATT
  POIN2 Label_1_0149981E
 BYTE   PATT
  POIN2 Label_1_01499831
 BYTE   PATT
  POIN2 Label_1_014997F8
 BYTE   PATT
  POIN2 Label_1_0149985D
 BYTE   PATT
  POIN2 Label_1_01499870
 BYTE   PATT
  POIN2 Label_1_0149980B
 BYTE   PATT
  POIN2 Label_1_0149981E
 BYTE   PATT
  POIN2 Label_1_01499831
 BYTE   PATT
  POIN2 Label_1_014997F8
 BYTE   PATT
  POIN2 Label_1_01499831
 BYTE   PATT
  POIN2 Label_1_01499831
 BYTE   PATT
  POIN2 Label_1_01499831
 BYTE   PATT
  POIN2 Label_1_014998F6
 BYTE   PATT
  POIN2 Label_1_01499831
 BYTE   PATT
  POIN2 Label_1_0149990E
 BYTE   PATT
  POIN2 Label_1_01499921
 BYTE   PATT
  POIN2 Label_1_01499934
 BYTE   PATT
  POIN2 Label_1_01499947
 BYTE   PATT
  POIN2 Label_1_01499947
 BYTE   PATT
  POIN2 Label_1_01499947
 BYTE   PATT
  POIN2 Label_1_01499964
 BYTE   PATT
  POIN2 Label_1_0149980B
 BYTE   PATT
  POIN2 Label_1_0149981E
 BYTE   PATT
  POIN2 Label_1_01499981
 BYTE   PATT
  POIN2 Label_1_01499994
 BYTE   PATT
  POIN2 Label_1_014999A7
 BYTE   PATT
  POIN2 Label_1_014999C1
 BYTE   PATT
  POIN2 Label_1_014999DB
 BYTE   PATT
  POIN2 Label_1_014999DB
 BYTE   PATT
  POIN2 Label_1_014999FA
 BYTE   PATT
  POIN2 Label_1_01499A0D
 BYTE   PATT
  POIN2 Label_1_01499A20
 BYTE   PATT
  POIN2 Label_1_014999FA
 BYTE   PATT
  POIN2 Label_1_01499A38
 BYTE   PATT
  POIN2 Label_1_01499994
 BYTE   PATT
  POIN2 Label_1_01499A50
 BYTE   PATT
  POIN2 Label_1_01499A63
 BYTE   PATT
  POIN2 Label_1_01499A76
 BYTE   PATT
  POIN2 Label_1_01499A76
 BYTE   PATT
  POIN2 Label_1_01499A76
 BYTE   PATT
  POIN2 Label_1_01499A76
 BYTE   PATT
  POIN2 Label_1_0149981E
 BYTE   PATT
  POIN2 Label_1_01499AA4
 BYTE   PATT
  POIN2 Label_1_0149981E
 BYTE   PATT
  POIN2 Label_1_01499AA4
 BYTE   PATT
  POIN2 Label_1_01499AC1
 BYTE   PATT
  POIN2 Label_1_01499AD4
 BYTE   PATT
  POIN2 Label_1_01499AE7
 BYTE   PATT
  POIN2 Label_1_01499AFA
 BYTE   PATT
  POIN2 Label_1_0149981E
 BYTE   PATT
  POIN2 Label_1_01499AA4
 BYTE   PATT
  POIN2 Label_1_0149981E
 BYTE   PATT
  POIN2 Label_1_01499AA4
 BYTE   PATT
  POIN2 Label_1_01499AC1
 BYTE   PATT
  POIN2 Label_1_01499AD4
 BYTE   PATT
  POIN2 Label_1_01499AE7
 BYTE   PATT
  POIN2 Label_1_01499AFA
 BYTE   PATT
  POIN2 Label_1_01499A76
 BYTE   PATT
  POIN2 Label_1_01499A76
 BYTE   PATT
  POIN2 Label_1_01499A76
 BYTE   PATT
  POIN2 Label_1_01499A76
 BYTE   PATT
  POIN2 Label_1_01499A76
 BYTE   PATT
  POIN2 Label_1_01499A76
 BYTE   PATT
  POIN2 Label_1_01499A76
 BYTE   PATT
  POIN2 Label_1_01499A76
 BYTE   PATT
  POIN2 Label_1_014999FA
 BYTE   PATT
  POIN2 Label_1_01499A0D
 BYTE   PATT
  POIN2 Label_1_01499A20
 BYTE   PATT
  POIN2 Label_1_014999FA
 BYTE   PATT
  POIN2 Label_1_014999FA
 BYTE   PATT
  POIN2 Label_1_01499A0D
 BYTE   PATT
  POIN2 Label_1_01499A20
 BYTE   PATT
  POIN2 Label_1_014999FA
 BYTE   PATT
  POIN2 Label_1_01499A38
 BYTE   PATT
  POIN2 Label_1_01499994
 BYTE   PATT
  POIN2 Label_1_01499A50
 BYTE   PATT
  POIN2 Label_1_01499A63
 BYTE   PATT
  POIN2 Label_1_0149981E
 BYTE   PATT
  POIN2 Label_1_01499AA4
 BYTE   PATT
  POIN2 Label_1_01499A38
 BYTE   PATT
  POIN2 Label_1_01499A38
 BYTE   PATT
  POIN2 Label_1_01499A38
 BYTE   PATT
  POIN2 Label_1_01499994
 BYTE   PATT
  POIN2 Label_1_01499A50
 BYTE   PATT
  POIN2 Label_1_01499A63
 BYTE   PATT
  POIN2 Label_1_0149981E
 BYTE   PATT
  POIN2 Label_1_01499AA4
 BYTE   PATT
  POIN2 Label_1_01499A38
// 031   ----------------------------------------
 BYTE   N12  Gn0  v104
 BYTE   W12
 BYTE   N12
 BYTE   W12
 BYTE   N12
 BYTE   W12
 BYTE   Dn0
 BYTE   W12
 BYTE   Gn0
 BYTE   W12
 BYTE   Dn0
 BYTE   W12
 BYTE   Gn0
 BYTE   W12
 BYTE   N12
 BYTE   W10
 BYTE   VOL   87*MarioTennisBreakPointPandan_mvl/mxv
 BYTE   W02
// 032   ----------------------------------------
 BYTE   N12  En0
 BYTE   W10
 BYTE   VOL   86*MarioTennisBreakPointPandan_mvl/mxv
 BYTE   W02
 BYTE   N12
 BYTE   W10
 BYTE   VOL   85*MarioTennisBreakPointPandan_mvl/mxv
 BYTE   W02
 BYTE   N12  En1
 BYTE   W10
 BYTE   VOL   84*MarioTennisBreakPointPandan_mvl/mxv
 BYTE   W02
 BYTE   N12  En0
 BYTE   W10
 BYTE   VOL   83*MarioTennisBreakPointPandan_mvl/mxv
 BYTE   W02
 BYTE   N12  Dn1
 BYTE   W10
 BYTE   VOL   82*MarioTennisBreakPointPandan_mvl/mxv
 BYTE   W02
 BYTE   N12  En0
 BYTE   W11
 BYTE   VOL   81*MarioTennisBreakPointPandan_mvl/mxv
 BYTE   W01
 BYTE   N12  En1
 BYTE   W11
 BYTE   VOL   80*MarioTennisBreakPointPandan_mvl/mxv
 BYTE   W01
 BYTE   N12  En0
 BYTE   W11
 BYTE   VOL   79*MarioTennisBreakPointPandan_mvl/mxv
 BYTE   W01
// 033   ----------------------------------------
 BYTE   N12  En1
 BYTE   W11
 BYTE   VOL   78*MarioTennisBreakPointPandan_mvl/mxv
 BYTE   W01
 BYTE   N12  En0
 BYTE   W11
 BYTE   VOL   77*MarioTennisBreakPointPandan_mvl/mxv
 BYTE   W01
 BYTE   N12
 BYTE   W11
 BYTE   VOL   76*MarioTennisBreakPointPandan_mvl/mxv
 BYTE   W01
 BYTE   N12  En1
 BYTE   W11
 BYTE   VOL   75*MarioTennisBreakPointPandan_mvl/mxv
 BYTE   W01
 BYTE   N12  En0
 BYTE   W11
 BYTE   VOL   74*MarioTennisBreakPointPandan_mvl/mxv
 BYTE   W01
 BYTE   N12
 BYTE   W11
 BYTE   VOL   73*MarioTennisBreakPointPandan_mvl/mxv
 BYTE   W01
 BYTE   N12  Dn1
 BYTE   W11
 BYTE   VOL   72*MarioTennisBreakPointPandan_mvl/mxv
 BYTE   W01
 BYTE   N12  En1
 BYTE   W11
 BYTE   VOL   71*MarioTennisBreakPointPandan_mvl/mxv
 BYTE   W01
// 034   ----------------------------------------
 BYTE   N12  Cn1
 BYTE   W11
 BYTE   VOL   70*MarioTennisBreakPointPandan_mvl/mxv
 BYTE   W01
 BYTE   N12  Cn0
 BYTE   W12
 BYTE   VOL   69*MarioTennisBreakPointPandan_mvl/mxv
 BYTE   N12
 BYTE   W12
 BYTE   VOL   68*MarioTennisBreakPointPandan_mvl/mxv
 BYTE   N12  Cn1
 BYTE   W12
 BYTE   VOL   67*MarioTennisBreakPointPandan_mvl/mxv
 BYTE   N12  Cn0
 BYTE   W12
 BYTE   VOL   66*MarioTennisBreakPointPandan_mvl/mxv
 BYTE   N12
 BYTE   W12
 BYTE   VOL   65*MarioTennisBreakPointPandan_mvl/mxv
 BYTE   N12  Cn1
 BYTE   W12
 BYTE   VOL   64*MarioTennisBreakPointPandan_mvl/mxv
 BYTE   N12  Cn0
 BYTE   W12
// 035   ----------------------------------------
 BYTE   VOL   63*MarioTennisBreakPointPandan_mvl/mxv
 BYTE   N12  Dn0
 BYTE   W12
 BYTE   VOL   62*MarioTennisBreakPointPandan_mvl/mxv
 BYTE   N12
 BYTE   W12
 BYTE   VOL   61*MarioTennisBreakPointPandan_mvl/mxv
 BYTE   N12  Dn1
 BYTE   W12
 BYTE   VOL   60*MarioTennisBreakPointPandan_mvl/mxv
 BYTE   N12  Dn0
 BYTE   W12
 BYTE   VOL   59*MarioTennisBreakPointPandan_mvl/mxv
 BYTE   N12  Cn1
 BYTE   W12
 BYTE   VOL   58*MarioTennisBreakPointPandan_mvl/mxv
 BYTE   N12  Dn0
 BYTE   W12
 BYTE   VOL   57*MarioTennisBreakPointPandan_mvl/mxv
 BYTE   N12  Dn1
 BYTE   W12
 BYTE   Dn0
 BYTE   W01
 BYTE   VOL   56*MarioTennisBreakPointPandan_mvl/mxv
 BYTE   W11
// 036   ----------------------------------------
 BYTE   N12  En0
 BYTE   W01
 BYTE   VOL   55*MarioTennisBreakPointPandan_mvl/mxv
 BYTE   W11
 BYTE   N12
 BYTE   W01
 BYTE   VOL   54*MarioTennisBreakPointPandan_mvl/mxv
 BYTE   W11
 BYTE   N12  En1
 BYTE   W01
 BYTE   VOL   53*MarioTennisBreakPointPandan_mvl/mxv
 BYTE   W11
 BYTE   N12  En0
 BYTE   W01
 BYTE   VOL   52*MarioTennisBreakPointPandan_mvl/mxv
 BYTE   W11
 BYTE   N12  Dn1
 BYTE   W01
 BYTE   VOL   51*MarioTennisBreakPointPandan_mvl/mxv
 BYTE   W11
 BYTE   N12  En0
 BYTE   W01
 BYTE   VOL   50*MarioTennisBreakPointPandan_mvl/mxv
 BYTE   W11
 BYTE   N12  En1
 BYTE   W01
 BYTE   VOL   49*MarioTennisBreakPointPandan_mvl/mxv
 BYTE   W11
 BYTE   N12  En0
 BYTE   W01
 BYTE   VOL   48*MarioTennisBreakPointPandan_mvl/mxv
 BYTE   W11
// 037   ----------------------------------------
 BYTE   N12  Dn0
 BYTE   W01
 BYTE   VOL   47*MarioTennisBreakPointPandan_mvl/mxv
 BYTE   W11
 BYTE   N12
 BYTE   W01
 BYTE   VOL   46*MarioTennisBreakPointPandan_mvl/mxv
 BYTE   W11
 BYTE   N12  Dn1
 BYTE   W01
 BYTE   VOL   45*MarioTennisBreakPointPandan_mvl/mxv
 BYTE   W11
 BYTE   N12  Dn0
 BYTE   W02
 BYTE   VOL   44*MarioTennisBreakPointPandan_mvl/mxv
 BYTE   W10
 BYTE   N12  Cn1
 BYTE   W02
 BYTE   VOL   43*MarioTennisBreakPointPandan_mvl/mxv
 BYTE   W10
 BYTE   N12  Dn0
 BYTE   W02
 BYTE   VOL   42*MarioTennisBreakPointPandan_mvl/mxv
 BYTE   W10
 BYTE   N12  Dn1
 BYTE   W02
 BYTE   VOL   41*MarioTennisBreakPointPandan_mvl/mxv
 BYTE   W10
 BYTE   N12  Dn0
 BYTE   W02
 BYTE   VOL   40*MarioTennisBreakPointPandan_mvl/mxv
 BYTE   W10
// 038   ----------------------------------------
 BYTE   N12  Cn1
 BYTE   W02
 BYTE   VOL   39*MarioTennisBreakPointPandan_mvl/mxv
 BYTE   W10
 BYTE   N12  Cn0
 BYTE   W02
 BYTE   VOL   38*MarioTennisBreakPointPandan_mvl/mxv
 BYTE   W10
 BYTE   N12
 BYTE   W02
 BYTE   VOL   37*MarioTennisBreakPointPandan_mvl/mxv
 BYTE   W10
 BYTE   N12  Cn1
 BYTE   W02
 BYTE   VOL   36*MarioTennisBreakPointPandan_mvl/mxv
 BYTE   W10
 BYTE   N12  Cn0
 BYTE   W02
 BYTE   VOL   35*MarioTennisBreakPointPandan_mvl/mxv
 BYTE   W10
 BYTE   N12
 BYTE   W02
 BYTE   VOL   34*MarioTennisBreakPointPandan_mvl/mxv
 BYTE   W10
 BYTE   N12  Cn1
 BYTE   W02
 BYTE   VOL   33*MarioTennisBreakPointPandan_mvl/mxv
 BYTE   W10
 BYTE   N12  Cn0
 BYTE   W03
 BYTE   VOL   32*MarioTennisBreakPointPandan_mvl/mxv
 BYTE   W09
// 039   ----------------------------------------
 BYTE   N12  Dn0
 BYTE   W03
 BYTE   VOL   31*MarioTennisBreakPointPandan_mvl/mxv
 BYTE   W09
 BYTE   N12
 BYTE   W03
 BYTE   VOL   30*MarioTennisBreakPointPandan_mvl/mxv
 BYTE   W09
 BYTE   N12  Dn1
 BYTE   W03
 BYTE   VOL   29*MarioTennisBreakPointPandan_mvl/mxv
 BYTE   W09
 BYTE   N12  Dn0
 BYTE   W03
 BYTE   VOL   28*MarioTennisBreakPointPandan_mvl/mxv
 BYTE   W09
 BYTE   N12  Cn1
 BYTE   W03
 BYTE   VOL   27*MarioTennisBreakPointPandan_mvl/mxv
 BYTE   W09
 BYTE   N12  Dn0
 BYTE   W03
 BYTE   VOL   26*MarioTennisBreakPointPandan_mvl/mxv
 BYTE   W09
 BYTE   N12  Dn1
 BYTE   W03
 BYTE   VOL   25*MarioTennisBreakPointPandan_mvl/mxv
 BYTE   W09
 BYTE   N12  Dn0
 BYTE   W03
 BYTE   VOL   25*MarioTennisBreakPointPandan_mvl/mxv
 BYTE   W09
// 040   ----------------------------------------
 BYTE   N12  En0
 BYTE   W03
 BYTE   VOL   25*MarioTennisBreakPointPandan_mvl/mxv
 BYTE   W09
 BYTE   N12
 BYTE   W03
 BYTE   VOL   25*MarioTennisBreakPointPandan_mvl/mxv
 BYTE   W09
 BYTE   N12  En1
 BYTE   W03
 BYTE   VOL   25*MarioTennisBreakPointPandan_mvl/mxv
 BYTE   W09
 BYTE   N12  En0
 BYTE   W04
 BYTE   VOL   25*MarioTennisBreakPointPandan_mvl/mxv
 BYTE   W08
 BYTE   N12  Dn1
 BYTE   W04
 BYTE   VOL   25*MarioTennisBreakPointPandan_mvl/mxv
 BYTE   W08
 BYTE   N12  En0
 BYTE   W04
 BYTE   VOL   25*MarioTennisBreakPointPandan_mvl/mxv
 BYTE   W08
 BYTE   N12  En1
 BYTE   W04
 BYTE   VOL   25*MarioTennisBreakPointPandan_mvl/mxv
 BYTE   W08
 BYTE   N12  En0
 BYTE   W04
 BYTE   VOL   25*MarioTennisBreakPointPandan_mvl/mxv
 BYTE   W08
// 041   ----------------------------------------
 BYTE   N12  En1
 BYTE   W04
 BYTE   VOL   25*MarioTennisBreakPointPandan_mvl/mxv
 BYTE   W08
 BYTE   N12  En0
 BYTE   W04
 BYTE   VOL   25*MarioTennisBreakPointPandan_mvl/mxv
 BYTE   W08
 BYTE   N12
 BYTE   W04
 BYTE   VOL   25*MarioTennisBreakPointPandan_mvl/mxv
 BYTE   W08
 BYTE   N12  En1
 BYTE   W04
 BYTE   VOL   25*MarioTennisBreakPointPandan_mvl/mxv
 BYTE   W08
 BYTE   N12  En0
 BYTE   W04
 BYTE   VOL   25*MarioTennisBreakPointPandan_mvl/mxv
 BYTE   W08
 BYTE   N12
 BYTE   W04
 BYTE   VOL   25*MarioTennisBreakPointPandan_mvl/mxv
 BYTE   W08
 BYTE   N12  Dn1
 BYTE   W04
 BYTE   VOL   25*MarioTennisBreakPointPandan_mvl/mxv
 BYTE   W08
 BYTE   N12  En1
 BYTE   W05
 BYTE   VOL   25*MarioTennisBreakPointPandan_mvl/mxv
 BYTE   W07
// 042   ----------------------------------------
 BYTE   N12  Gn0
 BYTE   W05
 BYTE   VOL   25*MarioTennisBreakPointPandan_mvl/mxv
 BYTE   W07
 BYTE   N12
 BYTE   W05
 BYTE   VOL   25*MarioTennisBreakPointPandan_mvl/mxv
 BYTE   W07
 BYTE   N12
 BYTE   W05
 BYTE   VOL   25*MarioTennisBreakPointPandan_mvl/mxv
 BYTE   W07
 BYTE   N12
 BYTE   W05
 BYTE   VOL   25*MarioTennisBreakPointPandan_mvl/mxv
 BYTE   W07
 BYTE   N12
 BYTE   W05
 BYTE   VOL   25*MarioTennisBreakPointPandan_mvl/mxv
 BYTE   W07
 BYTE   N12
 BYTE   W05
 BYTE   VOL   25*MarioTennisBreakPointPandan_mvl/mxv
 BYTE   W07
 BYTE   N12
 BYTE   W05
 BYTE   VOL   25*MarioTennisBreakPointPandan_mvl/mxv
 BYTE   W07
 BYTE   N12
 BYTE   W05
 BYTE   VOL   25*MarioTennisBreakPointPandan_mvl/mxv
 BYTE   W07
// 043   ----------------------------------------
 BYTE   N12  An0
 BYTE   W05
 BYTE   VOL   25*MarioTennisBreakPointPandan_mvl/mxv
 BYTE   W07
 BYTE   N12
 BYTE   W05
 BYTE   VOL   25*MarioTennisBreakPointPandan_mvl/mxv
 BYTE   W07
 BYTE   N12
 BYTE   W05
 BYTE   VOL   25*MarioTennisBreakPointPandan_mvl/mxv
 BYTE   W07
 BYTE   N12
 BYTE   W06
 BYTE   VOL   25*MarioTennisBreakPointPandan_mvl/mxv
 BYTE   W06
 BYTE   N12
 BYTE   W06
 BYTE   VOL   25*MarioTennisBreakPointPandan_mvl/mxv
 BYTE   W06
 BYTE   N12
 BYTE   W06
 BYTE   VOL   25*MarioTennisBreakPointPandan_mvl/mxv
 BYTE   W06
 BYTE   N12
 BYTE   W06
 BYTE   VOL   25*MarioTennisBreakPointPandan_mvl/mxv
 BYTE   W06
 BYTE   N12
 BYTE   W06
 BYTE   VOL   25*MarioTennisBreakPointPandan_mvl/mxv
 BYTE   W06
// 044   ----------------------------------------
 BYTE   N12  Cn1
 BYTE   W06
 BYTE   VOL   25*MarioTennisBreakPointPandan_mvl/mxv
 BYTE   W06
 BYTE   N12  Cn0
 BYTE   W06
 BYTE   VOL   25*MarioTennisBreakPointPandan_mvl/mxv
 BYTE   W06
 BYTE   N12
 BYTE   W06
 BYTE   VOL   25*MarioTennisBreakPointPandan_mvl/mxv
 BYTE   W06
 BYTE   N12  Cn1
 BYTE   W06
 BYTE   VOL   25*MarioTennisBreakPointPandan_mvl/mxv
 BYTE   W06
 BYTE   N12  Cn0
 BYTE   W06
 BYTE   VOL   25*MarioTennisBreakPointPandan_mvl/mxv
 BYTE   W06
 BYTE   N12
 BYTE   W06
 BYTE   VOL   25*MarioTennisBreakPointPandan_mvl/mxv
 BYTE   W06
 BYTE   N12  Cn1
 BYTE   W06
 BYTE   VOL   25*MarioTennisBreakPointPandan_mvl/mxv
 BYTE   W06
 BYTE   N12  Cn0
 BYTE   W07
 BYTE   VOL   25*MarioTennisBreakPointPandan_mvl/mxv
 BYTE   W05
// 045   ----------------------------------------
 BYTE   N12  Dn0
 BYTE   W07
 BYTE   VOL   25*MarioTennisBreakPointPandan_mvl/mxv
 BYTE   W05
 BYTE   N12
 BYTE   W07
 BYTE   VOL   25*MarioTennisBreakPointPandan_mvl/mxv
 BYTE   W05
 BYTE   N12  Dn1
 BYTE   W07
 BYTE   VOL   25*MarioTennisBreakPointPandan_mvl/mxv
 BYTE   W05
 BYTE   N12  Dn0
 BYTE   W07
 BYTE   VOL   25*MarioTennisBreakPointPandan_mvl/mxv
 BYTE   W05
 BYTE   N12  Cn1
 BYTE   W07
 BYTE   VOL   25*MarioTennisBreakPointPandan_mvl/mxv
 BYTE   W05
 BYTE   N12  Dn0
 BYTE   W07
 BYTE   VOL   25*MarioTennisBreakPointPandan_mvl/mxv
 BYTE   W05
 BYTE   N12  Dn1
 BYTE   W07
 BYTE   VOL   25*MarioTennisBreakPointPandan_mvl/mxv
 BYTE   W05
 BYTE   N12  Dn0
 BYTE   W07
 BYTE   VOL   25*MarioTennisBreakPointPandan_mvl/mxv
 BYTE   W05
// 046   ----------------------------------------
 BYTE   N12  En0
 BYTE   W07
 BYTE   VOL   25*MarioTennisBreakPointPandan_mvl/mxv
 BYTE   W05
 BYTE   N12
 BYTE   W07
 BYTE   VOL   25*MarioTennisBreakPointPandan_mvl/mxv
 BYTE   W05
 BYTE   N12  En1
 BYTE   W07
 BYTE   VOL   25*MarioTennisBreakPointPandan_mvl/mxv
 BYTE   W05
 BYTE   N12  En0
 BYTE   W08
 BYTE   VOL   25*MarioTennisBreakPointPandan_mvl/mxv
 BYTE   W04
 BYTE   N12  Dn1
 BYTE   W08
 BYTE   VOL   25*MarioTennisBreakPointPandan_mvl/mxv
 BYTE   W04
 BYTE   N12  En0
 BYTE   W08
 BYTE   VOL   25*MarioTennisBreakPointPandan_mvl/mxv
 BYTE   W04
 BYTE   N12  En1
 BYTE   W08
 BYTE   VOL   25*MarioTennisBreakPointPandan_mvl/mxv
 BYTE   W04
 BYTE   N12  En0
 BYTE   W08
 BYTE   VOL   25*MarioTennisBreakPointPandan_mvl/mxv
 BYTE   W04
// 047   ----------------------------------------
 BYTE   N12  En1
 BYTE   W08
 BYTE   VOL   25*MarioTennisBreakPointPandan_mvl/mxv
 BYTE   W04
 BYTE   N12  En0
 BYTE   W08
 BYTE   VOL   25*MarioTennisBreakPointPandan_mvl/mxv
 BYTE   W04
 BYTE   N12
 BYTE   W08
 BYTE   VOL   25*MarioTennisBreakPointPandan_mvl/mxv
 BYTE   W04
 BYTE   N12  En1
 BYTE   W08
 BYTE   VOL   25*MarioTennisBreakPointPandan_mvl/mxv
 BYTE   W04
 BYTE   N12  En0
 BYTE   W08
 BYTE   VOL   25*MarioTennisBreakPointPandan_mvl/mxv
 BYTE   W04
 BYTE   N12
 BYTE   W08
 BYTE   VOL   25*MarioTennisBreakPointPandan_mvl/mxv
 BYTE   W04
 BYTE   N12  Dn1
 BYTE   W08
 BYTE   VOL   25*MarioTennisBreakPointPandan_mvl/mxv
 BYTE   W04
 BYTE   N12  En1
 BYTE   W12
 BYTE   FINE

//**************** Track 3 (Midi-Chn.2) ****************//

MarioTennisBreakPointPandan_003:
// 000   ----------------------------------------
 BYTE   KEYSH   MarioTennisBreakPointPandan_key+0
 BYTE   VOICE   30
 BYTE   VOL   62*MarioTennisBreakPointPandan_mvl/mxv
 BYTE   PAN   c_v-13
 BYTE   N12  En1  v104
 BYTE   W12
 BYTE   N12
 BYTE   W12
 BYTE   En2
 BYTE   W12
 BYTE   En1
 BYTE   W12
 BYTE   Dn2
 BYTE   W12
 BYTE   En1
 BYTE   W12
 BYTE   En2
 BYTE   W12
 BYTE   En1
 BYTE   W12
// 001   ----------------------------------------
Label_2_0149A10A:
 BYTE   N12  En2  v104
 BYTE   W12
 BYTE   En1
 BYTE   W12
 BYTE   N12
 BYTE   W12
 BYTE   En2
 BYTE   W12
 BYTE   En1
 BYTE   W12
 BYTE   N12
 BYTE   W12
 BYTE   Dn2
 BYTE   W12
 BYTE   En2
 BYTE   W12
 BYTE   PEND 
// 002   ----------------------------------------
Label_2_0149A11D:
 BYTE   N12  Cn2  v104
 BYTE   W12
 BYTE   Cn1
 BYTE   W12
 BYTE   N12
 BYTE   W12
 BYTE   Cn2
 BYTE   W12
 BYTE   Cn1
 BYTE   W12
 BYTE   N12
 BYTE   W12
 BYTE   Cn2
 BYTE   W12
 BYTE   Cn1
 BYTE   W12
 BYTE   PEND 
// 003   ----------------------------------------
Label_2_0149A130:
 BYTE   N12  Dn1  v104
 BYTE   W12
 BYTE   N12
 BYTE   W12
 BYTE   Dn2
 BYTE   W12
 BYTE   Dn1
 BYTE   W12
 BYTE   Cn2
 BYTE   W12
 BYTE   Dn1
 BYTE   W12
 BYTE   Dn2
 BYTE   W12
 BYTE   Dn1
 BYTE   W12
 BYTE   PEND 
// 004   ----------------------------------------
Label_2_0149A143:
 BYTE   N12  En1  v104
 BYTE   W12
 BYTE   N12
 BYTE   W12
 BYTE   En2
 BYTE   W12
 BYTE   En1
 BYTE   W12
 BYTE   Dn2
 BYTE   W12
 BYTE   En1
 BYTE   W12
 BYTE   En2
 BYTE   W12
 BYTE   En1
 BYTE   W12
 BYTE   PEND 
 BYTE   PATT
  POIN2 Label_2_0149A130
 BYTE   PATT
  POIN2 Label_2_0149A11D
 BYTE   PATT
  POIN2 Label_2_0149A130
 BYTE   PATT
  POIN2 Label_2_0149A143
 BYTE   PATT
  POIN2 Label_2_0149A10A
// 005   ----------------------------------------
Label_2_0149A16F:
 BYTE   N12  Gn1  v104
 BYTE   W12
 BYTE   N12
 BYTE   W12
 BYTE   N12
 BYTE   W12
 BYTE   N12
 BYTE   W12
 BYTE   N12
 BYTE   W12
 BYTE   N12
 BYTE   W12
 BYTE   N12
 BYTE   W12
 BYTE   N12
 BYTE   W12
 BYTE   PEND 
// 006   ----------------------------------------
Label_2_0149A182:
 BYTE   N12  An1  v104
 BYTE   W12
 BYTE   N12
 BYTE   W12
 BYTE   N12
 BYTE   W12
 BYTE   N12
 BYTE   W12
 BYTE   N12
 BYTE   W12
 BYTE   N12
 BYTE   W12
 BYTE   N12
 BYTE   W12
 BYTE   N12
 BYTE   W12
 BYTE   PEND 
 BYTE   PATT
  POIN2 Label_2_0149A11D
 BYTE   PATT
  POIN2 Label_2_0149A130
 BYTE   PATT
  POIN2 Label_2_0149A143
 BYTE   PATT
  POIN2 Label_2_0149A10A
 BYTE   PATT
  POIN2 Label_2_0149A143
 BYTE   PATT
  POIN2 Label_2_0149A10A
 BYTE   PATT
  POIN2 Label_2_0149A11D
 BYTE   PATT
  POIN2 Label_2_0149A130
 BYTE   PATT
  POIN2 Label_2_0149A143
 BYTE   PATT
  POIN2 Label_2_0149A130
 BYTE   PATT
  POIN2 Label_2_0149A11D
 BYTE   PATT
  POIN2 Label_2_0149A130
 BYTE   PATT
  POIN2 Label_2_0149A143
 BYTE   PATT
  POIN2 Label_2_0149A10A
 BYTE   PATT
  POIN2 Label_2_0149A16F
 BYTE   PATT
  POIN2 Label_2_0149A182
 BYTE   PATT
  POIN2 Label_2_0149A11D
 BYTE   PATT
  POIN2 Label_2_0149A130
 BYTE   PATT
  POIN2 Label_2_0149A143
 BYTE   PATT
  POIN2 Label_2_0149A10A
 BYTE   PATT
  POIN2 Label_2_0149A143
 BYTE   PATT
  POIN2 Label_2_0149A143
 BYTE   PATT
  POIN2 Label_2_0149A143
// 007   ----------------------------------------
Label_2_0149A208:
 BYTE   N12  En1  v104
 BYTE   W12
 BYTE   N12
 BYTE   W12
 BYTE   N12
 BYTE   W12
 BYTE   Dn1
 BYTE   W12
 BYTE   En1
 BYTE   W12
 BYTE   Dn1
 BYTE   W12
 BYTE   Bn0
 BYTE   W12
 BYTE   Dn1
 BYTE   W12
 BYTE   PEND 
 BYTE   PATT
  POIN2 Label_2_0149A143
// 008   ----------------------------------------
Label_2_0149A220:
 BYTE   N12  En2  v104
 BYTE   W12
 BYTE   En1
 BYTE   W12
 BYTE   N12
 BYTE   W12
 BYTE   Dn2
 BYTE   W12
 BYTE   En1
 BYTE   W12
 BYTE   N12
 BYTE   W12
 BYTE   En2
 BYTE   W12
 BYTE   En1
 BYTE   W12
 BYTE   PEND 
// 009   ----------------------------------------
Label_2_0149A233:
 BYTE   N12  Bn1  v104
 BYTE   W12
 BYTE   N12
 BYTE   W12
 BYTE   N12
 BYTE   W12
 BYTE   Fs1
 BYTE   W12
 BYTE   Bn1
 BYTE   W12
 BYTE   N12
 BYTE   W12
 BYTE   N12
 BYTE   W12
 BYTE   Fs1
 BYTE   W12
 BYTE   PEND 
// 010   ----------------------------------------
Label_2_0149A246:
 BYTE   N12  Bn1  v104
 BYTE   W12
 BYTE   Fs1
 BYTE   W12
 BYTE   Bn1
 BYTE   W12
 BYTE   Ds2
 BYTE   W12
 BYTE   Fs2
 BYTE   W12
 BYTE   Ds2
 BYTE   W12
 BYTE   Bn1
 BYTE   W12
 BYTE   Fs1
 BYTE   W12
 BYTE   PEND 
// 011   ----------------------------------------
Label_2_0149A259:
 BYTE   N12  Dn1  v104
 BYTE   W12
 BYTE   En1
 BYTE   W12
 BYTE   N12
 BYTE   W12
 BYTE   Dn1
 BYTE   W12
 BYTE   En1
 BYTE   W12
 BYTE   Dn1
 BYTE   W12
 BYTE   Bn0
 BYTE   W12
 BYTE   Dn1
 BYTE   W12
 BYTE   PEND 
 BYTE   PATT
  POIN2 Label_2_0149A259
 BYTE   PATT
  POIN2 Label_2_0149A259
// 012   ----------------------------------------
Label_2_0149A276:
 BYTE   N12  Dn1  v104
 BYTE   W12
 BYTE   En1
 BYTE   W12
 BYTE   N12
 BYTE   W12
 BYTE   Dn1
 BYTE   W12
 BYTE   En1
 BYTE   W12
 BYTE   Bn1
 BYTE   W12
 BYTE   En2
 BYTE   W12
 BYTE   En1
 BYTE   W12
 BYTE   PEND 
 BYTE   PATT
  POIN2 Label_2_0149A11D
 BYTE   PATT
  POIN2 Label_2_0149A130
// 013   ----------------------------------------
Label_2_0149A293:
 BYTE   N12  Ds2  v104
 BYTE   W12
 BYTE   Ds1
 BYTE   W12
 BYTE   N12
 BYTE   W12
 BYTE   Ds2
 BYTE   W12
 BYTE   Ds1
 BYTE   W12
 BYTE   N12
 BYTE   W12
 BYTE   Ds2
 BYTE   W12
 BYTE   Ds1
 BYTE   W12
 BYTE   PEND 
// 014   ----------------------------------------
Label_2_0149A2A6:
 BYTE   N12  Fn1  v104
 BYTE   W12
 BYTE   N12
 BYTE   W12
 BYTE   Fn2
 BYTE   W12
 BYTE   Fn1
 BYTE   W12
 BYTE   Ds2
 BYTE   W12
 BYTE   Fn1
 BYTE   W12
 BYTE   Fn2
 BYTE   W12
 BYTE   Fn1
 BYTE   W12
 BYTE   PEND 
// 015   ----------------------------------------
Label_2_0149A2B9:
 BYTE   N12  Gn1  v104
 BYTE   W12
 BYTE   Gn1  v076
 BYTE   W12
 BYTE   Gn1  v104
 BYTE   W12
 BYTE   Gn1  v076
 BYTE   W12
 BYTE   Gn1  v104
 BYTE   W12
 BYTE   Gn1  v076
 BYTE   W12
 BYTE   Gn1  v104
 BYTE   W12
 BYTE   Gn1  v076
 BYTE   W12
 BYTE   PEND 
// 016   ----------------------------------------
Label_2_0149A2D3:
 BYTE   N12  Fn1  v104
 BYTE   W12
 BYTE   Fn1  v076
 BYTE   W12
 BYTE   Fn1  v104
 BYTE   W12
 BYTE   Fn1  v076
 BYTE   W12
 BYTE   Fn1  v104
 BYTE   W12
 BYTE   Fn1  v076
 BYTE   W12
 BYTE   Fn1  v104
 BYTE   W12
 BYTE   Fn1  v076
 BYTE   W12
 BYTE   PEND 
// 017   ----------------------------------------
Label_2_0149A2ED:
 BYTE   N12  Ds1  v104
 BYTE   W12
 BYTE   Ds1  v076
 BYTE   W12
 BYTE   Ds1  v104
 BYTE   W12
 BYTE   Ds1  v076
 BYTE   W12
 BYTE   Ds1  v104
 BYTE   W12
 BYTE   Ds1  v076
 BYTE   W12
 BYTE   Ds1  v104
 BYTE   W12
 BYTE   Ds1  v076
 BYTE   W12
 BYTE   PEND 
 BYTE   PATT
  POIN2 Label_2_0149A2ED
// 018   ----------------------------------------
Label_2_0149A30C:
 BYTE   N12  An1  v104
 BYTE   W12
 BYTE   N12
 BYTE   W12
 BYTE   N12
 BYTE   W12
 BYTE   Gn1
 BYTE   W12
 BYTE   An1
 BYTE   W12
 BYTE   Gn1
 BYTE   W12
 BYTE   An1
 BYTE   W12
 BYTE   N12
 BYTE   W12
 BYTE   PEND 
// 019   ----------------------------------------
Label_2_0149A31F:
 BYTE   N12  An1  v104
 BYTE   W12
 BYTE   Gn1
 BYTE   W12
 BYTE   An1
 BYTE   W12
 BYTE   Gn1
 BYTE   W12
 BYTE   An1
 BYTE   W12
 BYTE   N12
 BYTE   W12
 BYTE   Gn1
 BYTE   W12
 BYTE   An1
 BYTE   W12
 BYTE   PEND 
// 020   ----------------------------------------
Label_2_0149A332:
 BYTE   N12  An1  v104
 BYTE   W12
 BYTE   N12
 BYTE   W12
 BYTE   N12
 BYTE   W12
 BYTE   Gn1
 BYTE   W12
 BYTE   An1
 BYTE   W12
 BYTE   Gn1
 BYTE   W12
 BYTE   An1
 BYTE   W12
 BYTE   Gn1
 BYTE   W12
 BYTE   PEND 
 BYTE   PATT
  POIN2 Label_2_0149A30C
// 021   ----------------------------------------
Label_2_0149A34A:
 BYTE   N12  Gn1  v104
 BYTE   W12
 BYTE   N12
 BYTE   W12
 BYTE   N12
 BYTE   W12
 BYTE   Dn1
 BYTE   W12
 BYTE   Gn1
 BYTE   W12
 BYTE   Dn1
 BYTE   W12
 BYTE   Gn1
 BYTE   W12
 BYTE   N12
 BYTE   W12
 BYTE   PEND 
 BYTE   PATT
  POIN2 Label_2_0149A2A6
// 022   ----------------------------------------
Label_2_0149A362:
 BYTE   N12  Ds1  v104
 BYTE   W12
 BYTE   N12
 BYTE   W12
 BYTE   Ds2
 BYTE   W12
 BYTE   Ds1
 BYTE   W12
 BYTE   Dn2
 BYTE   W12
 BYTE   Ds1
 BYTE   W12
 BYTE   Ds2
 BYTE   W12
 BYTE   Ds1
 BYTE   W12
 BYTE   PEND 
// 023   ----------------------------------------
Label_2_0149A375:
 BYTE   N12  Ds2  v104
 BYTE   W12
 BYTE   Ds1
 BYTE   W12
 BYTE   N12
 BYTE   W12
 BYTE   Ds2
 BYTE   W12
 BYTE   Ds1
 BYTE   W12
 BYTE   N12
 BYTE   W12
 BYTE   Dn2
 BYTE   W12
 BYTE   Ds2
 BYTE   W12
 BYTE   PEND 
// 024   ----------------------------------------
Label_2_0149A388:
 BYTE   N12  An1  v104
 BYTE   W12
 BYTE   An1  v076
 BYTE   W12
 BYTE   An1  v104
 BYTE   W12
 BYTE   An1  v076
 BYTE   W12
 BYTE   An1  v104
 BYTE   W12
 BYTE   An1  v076
 BYTE   W12
 BYTE   An1  v104
 BYTE   W12
 BYTE   An1  v076
 BYTE   W12
 BYTE   PEND 
 BYTE   PATT
  POIN2 Label_2_0149A388
 BYTE   PATT
  POIN2 Label_2_0149A388
 BYTE   PATT
  POIN2 Label_2_0149A388
 BYTE   PATT
  POIN2 Label_2_0149A130
// 025   ----------------------------------------
Label_2_0149A3B6:
 BYTE   N12  Dn2  v104
 BYTE   W12
 BYTE   Dn1
 BYTE   W12
 BYTE   N12
 BYTE   W12
 BYTE   Dn2
 BYTE   W12
 BYTE   Dn1
 BYTE   W12
 BYTE   N12
 BYTE   W12
 BYTE   Cn2
 BYTE   W12
 BYTE   Dn2
 BYTE   W12
 BYTE   PEND 
 BYTE   PATT
  POIN2 Label_2_0149A130
 BYTE   PATT
  POIN2 Label_2_0149A3B6
// 026   ----------------------------------------
Label_2_0149A3D3:
 BYTE   N12  Dn1  v104
 BYTE   W12
 BYTE   N12
 BYTE   W12
 BYTE   Dn2
 BYTE   W12
 BYTE   Dn1
 BYTE   W12
 BYTE   Cn2
 BYTE   W12
 BYTE   N12
 BYTE   W12
 BYTE   Dn2
 BYTE   W12
 BYTE   Dn1
 BYTE   W12
 BYTE   PEND 
// 027   ----------------------------------------
Label_2_0149A3E6:
 BYTE   N12  Dn1  v104
 BYTE   W12
 BYTE   N12
 BYTE   W12
 BYTE   N12
 BYTE   W12
 BYTE   Cn1
 BYTE   W12
 BYTE   Dn1
 BYTE   W12
 BYTE   N12
 BYTE   W12
 BYTE   An1
 BYTE   W12
 BYTE   Dn1
 BYTE   W12
 BYTE   PEND 
// 028   ----------------------------------------
Label_2_0149A3F9:
 BYTE   N12  An1  v104
 BYTE   W12
 BYTE   Gn1
 BYTE   W12
 BYTE   An1
 BYTE   W12
 BYTE   N12
 BYTE   W12
 BYTE   Gn1
 BYTE   W12
 BYTE   An1
 BYTE   W12
 BYTE   N12
 BYTE   W12
 BYTE   Gn1
 BYTE   W12
 BYTE   PEND 
// 029   ----------------------------------------
Label_2_0149A40C:
 BYTE   N12  An1  v104
 BYTE   W12
 BYTE   N12
 BYTE   W12
 BYTE   N12
 BYTE   W12
 BYTE   Gn1
 BYTE   W12
 BYTE   An1
 BYTE   W12
 BYTE   N12
 BYTE   W12
 BYTE   Gn1
 BYTE   W12
 BYTE   An1
 BYTE   W12
 BYTE   PEND 
 BYTE   PATT
  POIN2 Label_2_0149A130
 BYTE   PATT
  POIN2 Label_2_0149A3B6
 BYTE   PATT
  POIN2 Label_2_0149A130
 BYTE   PATT
  POIN2 Label_2_0149A3B6
 BYTE   PATT
  POIN2 Label_2_0149A3D3
 BYTE   PATT
  POIN2 Label_2_0149A3E6
 BYTE   PATT
  POIN2 Label_2_0149A3F9
 BYTE   PATT
  POIN2 Label_2_0149A40C
 BYTE   PATT
  POIN2 Label_2_0149A388
 BYTE   PATT
  POIN2 Label_2_0149A388
 BYTE   PATT
  POIN2 Label_2_0149A388
 BYTE   PATT
  POIN2 Label_2_0149A388
 BYTE   PATT
  POIN2 Label_2_0149A388
 BYTE   PATT
  POIN2 Label_2_0149A388
 BYTE   PATT
  POIN2 Label_2_0149A388
 BYTE   PATT
  POIN2 Label_2_0149A388
 BYTE   PATT
  POIN2 Label_2_0149A30C
 BYTE   PATT
  POIN2 Label_2_0149A31F
 BYTE   PATT
  POIN2 Label_2_0149A332
 BYTE   PATT
  POIN2 Label_2_0149A30C
 BYTE   PATT
  POIN2 Label_2_0149A30C
 BYTE   PATT
  POIN2 Label_2_0149A31F
 BYTE   PATT
  POIN2 Label_2_0149A332
 BYTE   PATT
  POIN2 Label_2_0149A30C
 BYTE   PATT
  POIN2 Label_2_0149A34A
 BYTE   PATT
  POIN2 Label_2_0149A2A6
 BYTE   PATT
  POIN2 Label_2_0149A362
 BYTE   PATT
  POIN2 Label_2_0149A375
 BYTE   PATT
  POIN2 Label_2_0149A130
 BYTE   PATT
  POIN2 Label_2_0149A3B6
 BYTE   PATT
  POIN2 Label_2_0149A34A
 BYTE   PATT
  POIN2 Label_2_0149A34A
 BYTE   PATT
  POIN2 Label_2_0149A34A
 BYTE   PATT
  POIN2 Label_2_0149A2A6
 BYTE   PATT
  POIN2 Label_2_0149A362
 BYTE   PATT
  POIN2 Label_2_0149A375
 BYTE   PATT
  POIN2 Label_2_0149A130
 BYTE   PATT
  POIN2 Label_2_0149A3B6
 BYTE   PATT
  POIN2 Label_2_0149A34A
 BYTE   PATT
  POIN2 Label_2_0149A34A
// 030   ----------------------------------------
 BYTE   VOL   62*MarioTennisBreakPointPandan_mvl/mxv
 BYTE   PAN   c_v-13
 BYTE   N12  En1  v104
 BYTE   W12
 BYTE   N12
 BYTE   W12
 BYTE   En2
 BYTE   W12
 BYTE   En1
 BYTE   W12
 BYTE   Dn2
 BYTE   W12
 BYTE   En1
 BYTE   W12
 BYTE   En2
 BYTE   W12
 BYTE   En1
 BYTE   W12
 BYTE   PATT
  POIN2 Label_2_0149A10A
 BYTE   PATT
  POIN2 Label_2_0149A11D
 BYTE   PATT
  POIN2 Label_2_0149A130
 BYTE   PATT
  POIN2 Label_2_0149A143
 BYTE   PATT
  POIN2 Label_2_0149A130
 BYTE   PATT
  POIN2 Label_2_0149A11D
 BYTE   PATT
  POIN2 Label_2_0149A130
 BYTE   PATT
  POIN2 Label_2_0149A143
 BYTE   PATT
  POIN2 Label_2_0149A10A
 BYTE   PATT
  POIN2 Label_2_0149A16F
 BYTE   PATT
  POIN2 Label_2_0149A182
 BYTE   PATT
  POIN2 Label_2_0149A11D
 BYTE   PATT
  POIN2 Label_2_0149A130
 BYTE   PATT
  POIN2 Label_2_0149A143
 BYTE   PATT
  POIN2 Label_2_0149A10A
 BYTE   PATT
  POIN2 Label_2_0149A143
 BYTE   PATT
  POIN2 Label_2_0149A10A
 BYTE   PATT
  POIN2 Label_2_0149A11D
 BYTE   PATT
  POIN2 Label_2_0149A130
 BYTE   PATT
  POIN2 Label_2_0149A143
 BYTE   PATT
  POIN2 Label_2_0149A130
 BYTE   PATT
  POIN2 Label_2_0149A11D
 BYTE   PATT
  POIN2 Label_2_0149A130
 BYTE   PATT
  POIN2 Label_2_0149A143
 BYTE   PATT
  POIN2 Label_2_0149A10A
 BYTE   PATT
  POIN2 Label_2_0149A16F
 BYTE   PATT
  POIN2 Label_2_0149A182
 BYTE   PATT
  POIN2 Label_2_0149A11D
 BYTE   PATT
  POIN2 Label_2_0149A130
 BYTE   PATT
  POIN2 Label_2_0149A143
 BYTE   PATT
  POIN2 Label_2_0149A10A
 BYTE   PATT
  POIN2 Label_2_0149A143
 BYTE   PATT
  POIN2 Label_2_0149A143
 BYTE   PATT
  POIN2 Label_2_0149A143
 BYTE   PATT
  POIN2 Label_2_0149A208
 BYTE   PATT
  POIN2 Label_2_0149A143
 BYTE   PATT
  POIN2 Label_2_0149A220
 BYTE   PATT
  POIN2 Label_2_0149A233
 BYTE   PATT
  POIN2 Label_2_0149A246
 BYTE   PATT
  POIN2 Label_2_0149A259
 BYTE   PATT
  POIN2 Label_2_0149A259
 BYTE   PATT
  POIN2 Label_2_0149A259
 BYTE   PATT
  POIN2 Label_2_0149A276
 BYTE   PATT
  POIN2 Label_2_0149A11D
 BYTE   PATT
  POIN2 Label_2_0149A130
 BYTE   PATT
  POIN2 Label_2_0149A293
 BYTE   PATT
  POIN2 Label_2_0149A2A6
 BYTE   PATT
  POIN2 Label_2_0149A2B9
 BYTE   PATT
  POIN2 Label_2_0149A2D3
 BYTE   PATT
  POIN2 Label_2_0149A2ED
 BYTE   PATT
  POIN2 Label_2_0149A2ED
 BYTE   PATT
  POIN2 Label_2_0149A30C
 BYTE   PATT
  POIN2 Label_2_0149A31F
 BYTE   PATT
  POIN2 Label_2_0149A332
 BYTE   PATT
  POIN2 Label_2_0149A30C
 BYTE   PATT
  POIN2 Label_2_0149A34A
 BYTE   PATT
  POIN2 Label_2_0149A2A6
 BYTE   PATT
  POIN2 Label_2_0149A362
 BYTE   PATT
  POIN2 Label_2_0149A375
 BYTE   PATT
  POIN2 Label_2_0149A388
 BYTE   PATT
  POIN2 Label_2_0149A388
 BYTE   PATT
  POIN2 Label_2_0149A388
 BYTE   PATT
  POIN2 Label_2_0149A388
 BYTE   PATT
  POIN2 Label_2_0149A130
 BYTE   PATT
  POIN2 Label_2_0149A3B6
 BYTE   PATT
  POIN2 Label_2_0149A130
 BYTE   PATT
  POIN2 Label_2_0149A3B6
 BYTE   PATT
  POIN2 Label_2_0149A3D3
 BYTE   PATT
  POIN2 Label_2_0149A3E6
 BYTE   PATT
  POIN2 Label_2_0149A3F9
 BYTE   PATT
  POIN2 Label_2_0149A40C
 BYTE   PATT
  POIN2 Label_2_0149A130
 BYTE   PATT
  POIN2 Label_2_0149A3B6
 BYTE   PATT
  POIN2 Label_2_0149A130
 BYTE   PATT
  POIN2 Label_2_0149A3B6
 BYTE   PATT
  POIN2 Label_2_0149A3D3
 BYTE   PATT
  POIN2 Label_2_0149A3E6
 BYTE   PATT
  POIN2 Label_2_0149A3F9
 BYTE   PATT
  POIN2 Label_2_0149A40C
 BYTE   PATT
  POIN2 Label_2_0149A388
 BYTE   PATT
  POIN2 Label_2_0149A388
 BYTE   PATT
  POIN2 Label_2_0149A388
 BYTE   PATT
  POIN2 Label_2_0149A388
 BYTE   PATT
  POIN2 Label_2_0149A388
 BYTE   PATT
  POIN2 Label_2_0149A388
 BYTE   PATT
  POIN2 Label_2_0149A388
 BYTE   PATT
  POIN2 Label_2_0149A388
 BYTE   PATT
  POIN2 Label_2_0149A30C
 BYTE   PATT
  POIN2 Label_2_0149A31F
 BYTE   PATT
  POIN2 Label_2_0149A332
 BYTE   PATT
  POIN2 Label_2_0149A30C
 BYTE   PATT
  POIN2 Label_2_0149A30C
 BYTE   PATT
  POIN2 Label_2_0149A31F
 BYTE   PATT
  POIN2 Label_2_0149A332
 BYTE   PATT
  POIN2 Label_2_0149A30C
 BYTE   PATT
  POIN2 Label_2_0149A34A
 BYTE   PATT
  POIN2 Label_2_0149A2A6
 BYTE   PATT
  POIN2 Label_2_0149A362
 BYTE   PATT
  POIN2 Label_2_0149A375
 BYTE   PATT
  POIN2 Label_2_0149A130
 BYTE   PATT
  POIN2 Label_2_0149A3B6
 BYTE   PATT
  POIN2 Label_2_0149A34A
 BYTE   PATT
  POIN2 Label_2_0149A34A
 BYTE   PATT
  POIN2 Label_2_0149A34A
 BYTE   PATT
  POIN2 Label_2_0149A2A6
 BYTE   PATT
  POIN2 Label_2_0149A362
 BYTE   PATT
  POIN2 Label_2_0149A375
 BYTE   PATT
  POIN2 Label_2_0149A130
 BYTE   PATT
  POIN2 Label_2_0149A3B6
 BYTE   PATT
  POIN2 Label_2_0149A34A
// 031   ----------------------------------------
 BYTE   N12  Gn1  v104
 BYTE   W12
 BYTE   N12
 BYTE   W12
 BYTE   N12
 BYTE   W12
 BYTE   Dn1
 BYTE   W12
 BYTE   Gn1
 BYTE   W12
 BYTE   Dn1
 BYTE   W12
 BYTE   Gn1
 BYTE   W12
 BYTE   N12
 BYTE   W10
 BYTE   VOL   61*MarioTennisBreakPointPandan_mvl/mxv
 BYTE   W02
// 032   ----------------------------------------
 BYTE   PAN   c_v-13
 BYTE   N12  En1
 BYTE   W10
 BYTE   VOL   60*MarioTennisBreakPointPandan_mvl/mxv
 BYTE   W02
 BYTE   N12
 BYTE   W10
 BYTE   VOL   59*MarioTennisBreakPointPandan_mvl/mxv
 BYTE   W02
 BYTE   N12  En2
 BYTE   W11
 BYTE   VOL   58*MarioTennisBreakPointPandan_mvl/mxv
 BYTE   W01
 BYTE   N12  En1
 BYTE   W11
 BYTE   VOL   57*MarioTennisBreakPointPandan_mvl/mxv
 BYTE   W01
 BYTE   N12  Dn2
 BYTE   W11
 BYTE   VOL   56*MarioTennisBreakPointPandan_mvl/mxv
 BYTE   W01
 BYTE   N12  En1
 BYTE   W11
 BYTE   VOL   55*MarioTennisBreakPointPandan_mvl/mxv
 BYTE   W01
 BYTE   N12  En2
 BYTE   W11
 BYTE   VOL   54*MarioTennisBreakPointPandan_mvl/mxv
 BYTE   W01
 BYTE   N12  En1
 BYTE   W12
// 033   ----------------------------------------
 BYTE   VOL   53*MarioTennisBreakPointPandan_mvl/mxv
 BYTE   N12  En2
 BYTE   W12
 BYTE   VOL   52*MarioTennisBreakPointPandan_mvl/mxv
 BYTE   N12  En1
 BYTE   W12
 BYTE   VOL   51*MarioTennisBreakPointPandan_mvl/mxv
 BYTE   N12
 BYTE   W12
 BYTE   VOL   50*MarioTennisBreakPointPandan_mvl/mxv
 BYTE   N12  En2
 BYTE   W12
 BYTE   VOL   49*MarioTennisBreakPointPandan_mvl/mxv
 BYTE   N12  En1
 BYTE   W12
 BYTE   VOL   48*MarioTennisBreakPointPandan_mvl/mxv
 BYTE   N12
 BYTE   W12
 BYTE   Dn2
 BYTE   W01
 BYTE   VOL   47*MarioTennisBreakPointPandan_mvl/mxv
 BYTE   W11
 BYTE   N12  En2
 BYTE   W01
 BYTE   VOL   46*MarioTennisBreakPointPandan_mvl/mxv
 BYTE   W11
// 034   ----------------------------------------
 BYTE   N12  Cn2
 BYTE   W01
 BYTE   VOL   45*MarioTennisBreakPointPandan_mvl/mxv
 BYTE   W11
 BYTE   N12  Cn1
 BYTE   W01
 BYTE   VOL   44*MarioTennisBreakPointPandan_mvl/mxv
 BYTE   W11
 BYTE   N12
 BYTE   W01
 BYTE   VOL   43*MarioTennisBreakPointPandan_mvl/mxv
 BYTE   W11
 BYTE   N12  Cn2
 BYTE   W02
 BYTE   VOL   42*MarioTennisBreakPointPandan_mvl/mxv
 BYTE   W10
 BYTE   N12  Cn1
 BYTE   W02
 BYTE   VOL   41*MarioTennisBreakPointPandan_mvl/mxv
 BYTE   W10
 BYTE   N12
 BYTE   W02
 BYTE   VOL   40*MarioTennisBreakPointPandan_mvl/mxv
 BYTE   W10
 BYTE   N12  Cn2
 BYTE   W02
 BYTE   VOL   39*MarioTennisBreakPointPandan_mvl/mxv
 BYTE   W10
 BYTE   N12  Cn1
 BYTE   W02
 BYTE   VOL   38*MarioTennisBreakPointPandan_mvl/mxv
 BYTE   W10
// 035   ----------------------------------------
 BYTE   N12  Dn1
 BYTE   W03
 BYTE   VOL   37*MarioTennisBreakPointPandan_mvl/mxv
 BYTE   W09
 BYTE   N12
 BYTE   W03
 BYTE   VOL   36*MarioTennisBreakPointPandan_mvl/mxv
 BYTE   W09
 BYTE   N12  Dn2
 BYTE   W03
 BYTE   VOL   35*MarioTennisBreakPointPandan_mvl/mxv
 BYTE   W09
 BYTE   N12  Dn1
 BYTE   W03
 BYTE   VOL   34*MarioTennisBreakPointPandan_mvl/mxv
 BYTE   W09
 BYTE   N12  Cn2
 BYTE   W03
 BYTE   VOL   33*MarioTennisBreakPointPandan_mvl/mxv
 BYTE   W09
 BYTE   N12  Dn1
 BYTE   W04
 BYTE   VOL   32*MarioTennisBreakPointPandan_mvl/mxv
 BYTE   W08
 BYTE   N12  Dn2
 BYTE   W04
 BYTE   VOL   31*MarioTennisBreakPointPandan_mvl/mxv
 BYTE   W08
 BYTE   N12  Dn1
 BYTE   W04
 BYTE   VOL   30*MarioTennisBreakPointPandan_mvl/mxv
 BYTE   W08
// 036   ----------------------------------------
 BYTE   N12  En1
 BYTE   W04
 BYTE   VOL   29*MarioTennisBreakPointPandan_mvl/mxv
 BYTE   W08
 BYTE   N12
 BYTE   W04
 BYTE   VOL   28*MarioTennisBreakPointPandan_mvl/mxv
 BYTE   W08
 BYTE   N12  En2
 BYTE   W04
 BYTE   VOL   27*MarioTennisBreakPointPandan_mvl/mxv
 BYTE   W08
 BYTE   N12  En1
 BYTE   W05
 BYTE   VOL   26*MarioTennisBreakPointPandan_mvl/mxv
 BYTE   W07
 BYTE   N12  Dn2
 BYTE   W05
 BYTE   VOL   25*MarioTennisBreakPointPandan_mvl/mxv
 BYTE   W07
 BYTE   N12  En1
 BYTE   W05
 BYTE   VOL   24*MarioTennisBreakPointPandan_mvl/mxv
 BYTE   W07
 BYTE   N12  En2
 BYTE   W05
 BYTE   VOL   23*MarioTennisBreakPointPandan_mvl/mxv
 BYTE   W07
 BYTE   N12  En1
 BYTE   W05
 BYTE   VOL   22*MarioTennisBreakPointPandan_mvl/mxv
 BYTE   W07
// 037   ----------------------------------------
 BYTE   N12  Dn1
 BYTE   W06
 BYTE   VOL   21*MarioTennisBreakPointPandan_mvl/mxv
 BYTE   W06
 BYTE   N12
 BYTE   W06
 BYTE   VOL   20*MarioTennisBreakPointPandan_mvl/mxv
 BYTE   W06
 BYTE   N12  Dn2
 BYTE   W06
 BYTE   VOL   19*MarioTennisBreakPointPandan_mvl/mxv
 BYTE   W06
 BYTE   N12  Dn1
 BYTE   W06
 BYTE   VOL   18*MarioTennisBreakPointPandan_mvl/mxv
 BYTE   W06
 BYTE   N12  Cn2
 BYTE   W06
 BYTE   VOL   17*MarioTennisBreakPointPandan_mvl/mxv
 BYTE   W06
 BYTE   N12  Dn1
 BYTE   W07
 BYTE   VOL   16*MarioTennisBreakPointPandan_mvl/mxv
 BYTE   W05
 BYTE   N12  Dn2
 BYTE   W07
 BYTE   VOL   15*MarioTennisBreakPointPandan_mvl/mxv
 BYTE   W05
 BYTE   N12  Dn1
 BYTE   W07
 BYTE   VOL   14*MarioTennisBreakPointPandan_mvl/mxv
 BYTE   W05
// 038   ----------------------------------------
 BYTE   N12  Cn2
 BYTE   W07
 BYTE   VOL   13*MarioTennisBreakPointPandan_mvl/mxv
 BYTE   W05
 BYTE   N12  Cn1
 BYTE   W07
 BYTE   VOL   12*MarioTennisBreakPointPandan_mvl/mxv
 BYTE   W05
 BYTE   N12
 BYTE   W08
 BYTE   VOL   11*MarioTennisBreakPointPandan_mvl/mxv
 BYTE   W04
 BYTE   N12  Cn2
 BYTE   W08
 BYTE   VOL   10*MarioTennisBreakPointPandan_mvl/mxv
 BYTE   W04
 BYTE   N12  Cn1
 BYTE   W08
 BYTE   VOL   9*MarioTennisBreakPointPandan_mvl/mxv
 BYTE   W04
 BYTE   N12
 BYTE   W08
 BYTE   VOL   8*MarioTennisBreakPointPandan_mvl/mxv
 BYTE   W04
 BYTE   N12  Cn2
 BYTE   W08
 BYTE   VOL   7*MarioTennisBreakPointPandan_mvl/mxv
 BYTE   W04
 BYTE   N12  Cn1
 BYTE   W08
 BYTE   VOL   6*MarioTennisBreakPointPandan_mvl/mxv
 BYTE   W04
// 039   ----------------------------------------
 BYTE   N12  Dn1
 BYTE   W09
 BYTE   VOL   5*MarioTennisBreakPointPandan_mvl/mxv
 BYTE   W03
 BYTE   N12
 BYTE   W09
 BYTE   VOL   4*MarioTennisBreakPointPandan_mvl/mxv
 BYTE   W03
 BYTE   N12  Dn2
 BYTE   W09
 BYTE   VOL   3*MarioTennisBreakPointPandan_mvl/mxv
 BYTE   W03
 BYTE   N12  Dn1
 BYTE   W09
 BYTE   VOL   2*MarioTennisBreakPointPandan_mvl/mxv
 BYTE   W03
 BYTE   N12  Cn2
 BYTE   W09
 BYTE   VOL   1*MarioTennisBreakPointPandan_mvl/mxv
 BYTE   W03
 BYTE   N12  Dn1
 BYTE   W10
 BYTE   VOL   0*MarioTennisBreakPointPandan_mvl/mxv
 BYTE   W02
 BYTE   N12  Dn2
 BYTE   W10
 BYTE   VOL   0*MarioTennisBreakPointPandan_mvl/mxv
 BYTE   W02
 BYTE   N12  Dn1
 BYTE   W10
 BYTE   VOL   0*MarioTennisBreakPointPandan_mvl/mxv
 BYTE   W02
// 040   ----------------------------------------
 BYTE   N12  En1
 BYTE   W10
 BYTE   VOL   0*MarioTennisBreakPointPandan_mvl/mxv
 BYTE   W02
 BYTE   N12
 BYTE   W10
 BYTE   VOL   0*MarioTennisBreakPointPandan_mvl/mxv
 BYTE   W02
 BYTE   N12  En2
 BYTE   W11
 BYTE   VOL   0*MarioTennisBreakPointPandan_mvl/mxv
 BYTE   W01
 BYTE   N12  En1
 BYTE   W11
 BYTE   VOL   0*MarioTennisBreakPointPandan_mvl/mxv
 BYTE   W01
 BYTE   N12  Dn2
 BYTE   W11
 BYTE   VOL   0*MarioTennisBreakPointPandan_mvl/mxv
 BYTE   W01
 BYTE   N12  En1
 BYTE   W11
 BYTE   VOL   0*MarioTennisBreakPointPandan_mvl/mxv
 BYTE   W01
 BYTE   N12  En2
 BYTE   W11
 BYTE   VOL   0*MarioTennisBreakPointPandan_mvl/mxv
 BYTE   W01
 BYTE   N12  En1
 BYTE   W12
// 041   ----------------------------------------
 BYTE   VOL   0*MarioTennisBreakPointPandan_mvl/mxv
 BYTE   N12  En2
 BYTE   W12
 BYTE   VOL   0*MarioTennisBreakPointPandan_mvl/mxv
 BYTE   N12  En1
 BYTE   W12
 BYTE   VOL   0*MarioTennisBreakPointPandan_mvl/mxv
 BYTE   N12
 BYTE   W12
 BYTE   VOL   0*MarioTennisBreakPointPandan_mvl/mxv
 BYTE   N12  En2
 BYTE   W12
 BYTE   VOL   0*MarioTennisBreakPointPandan_mvl/mxv
 BYTE   N12  En1
 BYTE   W12
 BYTE   VOL   0*MarioTennisBreakPointPandan_mvl/mxv
 BYTE   N12
 BYTE   W12
 BYTE   Dn2
 BYTE   W01
 BYTE   VOL   0*MarioTennisBreakPointPandan_mvl/mxv
 BYTE   W11
 BYTE   N12  En2
 BYTE   W01
 BYTE   VOL   0*MarioTennisBreakPointPandan_mvl/mxv
 BYTE   W11
// 042   ----------------------------------------
 BYTE   N12  Gn1
 BYTE   W01
 BYTE   VOL   0*MarioTennisBreakPointPandan_mvl/mxv
 BYTE   W11
 BYTE   N12
 BYTE   W01
 BYTE   VOL   0*MarioTennisBreakPointPandan_mvl/mxv
 BYTE   W11
 BYTE   N12
 BYTE   W01
 BYTE   VOL   0*MarioTennisBreakPointPandan_mvl/mxv
 BYTE   W11
 BYTE   N12
 BYTE   W02
 BYTE   VOL   0*MarioTennisBreakPointPandan_mvl/mxv
 BYTE   W10
 BYTE   N12
 BYTE   W02
 BYTE   VOL   0*MarioTennisBreakPointPandan_mvl/mxv
 BYTE   W10
 BYTE   N12
 BYTE   W02
 BYTE   VOL   0*MarioTennisBreakPointPandan_mvl/mxv
 BYTE   W10
 BYTE   N12
 BYTE   W02
 BYTE   VOL   0*MarioTennisBreakPointPandan_mvl/mxv
 BYTE   W10
 BYTE   N12
 BYTE   W02
 BYTE   VOL   0*MarioTennisBreakPointPandan_mvl/mxv
 BYTE   W10
// 043   ----------------------------------------
 BYTE   N12  An1
 BYTE   W03
 BYTE   VOL   0*MarioTennisBreakPointPandan_mvl/mxv
 BYTE   W09
 BYTE   N12
 BYTE   W03
 BYTE   VOL   0*MarioTennisBreakPointPandan_mvl/mxv
 BYTE   W09
 BYTE   N12
 BYTE   W03
 BYTE   VOL   0*MarioTennisBreakPointPandan_mvl/mxv
 BYTE   W09
 BYTE   N12
 BYTE   W03
 BYTE   VOL   0*MarioTennisBreakPointPandan_mvl/mxv
 BYTE   W09
 BYTE   N12
 BYTE   W03
 BYTE   VOL   0*MarioTennisBreakPointPandan_mvl/mxv
 BYTE   W09
 BYTE   N12
 BYTE   W04
 BYTE   VOL   0*MarioTennisBreakPointPandan_mvl/mxv
 BYTE   W08
 BYTE   N12
 BYTE   W04
 BYTE   VOL   0*MarioTennisBreakPointPandan_mvl/mxv
 BYTE   W08
 BYTE   N12
 BYTE   W04
 BYTE   VOL   0*MarioTennisBreakPointPandan_mvl/mxv
 BYTE   W08
// 044   ----------------------------------------
 BYTE   N12  Cn2
 BYTE   W04
 BYTE   VOL   0*MarioTennisBreakPointPandan_mvl/mxv
 BYTE   W08
 BYTE   N12  Cn1
 BYTE   W04
 BYTE   VOL   0*MarioTennisBreakPointPandan_mvl/mxv
 BYTE   W08
 BYTE   N12
 BYTE   W04
 BYTE   VOL   0*MarioTennisBreakPointPandan_mvl/mxv
 BYTE   W08
 BYTE   N12  Cn2
 BYTE   W05
 BYTE   VOL   0*MarioTennisBreakPointPandan_mvl/mxv
 BYTE   W07
 BYTE   N12  Cn1
 BYTE   W05
 BYTE   VOL   0*MarioTennisBreakPointPandan_mvl/mxv
 BYTE   W07
 BYTE   N12
 BYTE   W05
 BYTE   VOL   0*MarioTennisBreakPointPandan_mvl/mxv
 BYTE   W07
 BYTE   N12  Cn2
 BYTE   W05
 BYTE   VOL   0*MarioTennisBreakPointPandan_mvl/mxv
 BYTE   W07
 BYTE   N12  Cn1
 BYTE   W05
 BYTE   VOL   0*MarioTennisBreakPointPandan_mvl/mxv
 BYTE   W07
// 045   ----------------------------------------
 BYTE   N12  Dn1
 BYTE   W06
 BYTE   VOL   0*MarioTennisBreakPointPandan_mvl/mxv
 BYTE   W06
 BYTE   N12
 BYTE   W06
 BYTE   VOL   0*MarioTennisBreakPointPandan_mvl/mxv
 BYTE   W06
 BYTE   N12  Dn2
 BYTE   W06
 BYTE   VOL   0*MarioTennisBreakPointPandan_mvl/mxv
 BYTE   W06
 BYTE   N12  Dn1
 BYTE   W06
 BYTE   VOL   0*MarioTennisBreakPointPandan_mvl/mxv
 BYTE   W06
 BYTE   N12  Cn2
 BYTE   W06
 BYTE   VOL   0*MarioTennisBreakPointPandan_mvl/mxv
 BYTE   W06
 BYTE   N12  Dn1
 BYTE   W07
 BYTE   VOL   0*MarioTennisBreakPointPandan_mvl/mxv
 BYTE   W05
 BYTE   N12  Dn2
 BYTE   W07
 BYTE   VOL   0*MarioTennisBreakPointPandan_mvl/mxv
 BYTE   W05
 BYTE   N12  Dn1
 BYTE   W07
 BYTE   VOL   0*MarioTennisBreakPointPandan_mvl/mxv
 BYTE   W05
// 046   ----------------------------------------
 BYTE   N12  En1
 BYTE   W07
 BYTE   VOL   0*MarioTennisBreakPointPandan_mvl/mxv
 BYTE   W05
 BYTE   N12
 BYTE   W07
 BYTE   VOL   0*MarioTennisBreakPointPandan_mvl/mxv
 BYTE   W05
 BYTE   N12  En2
 BYTE   W08
 BYTE   VOL   0*MarioTennisBreakPointPandan_mvl/mxv
 BYTE   W04
 BYTE   N12  En1
 BYTE   W08
 BYTE   VOL   0*MarioTennisBreakPointPandan_mvl/mxv
 BYTE   W04
 BYTE   N12  Dn2
 BYTE   W08
 BYTE   VOL   0*MarioTennisBreakPointPandan_mvl/mxv
 BYTE   W04
 BYTE   N12  En1
 BYTE   W08
 BYTE   VOL   0*MarioTennisBreakPointPandan_mvl/mxv
 BYTE   W04
 BYTE   N12  En2
 BYTE   W08
 BYTE   VOL   0*MarioTennisBreakPointPandan_mvl/mxv
 BYTE   W04
 BYTE   N12  En1
 BYTE   W08
 BYTE   VOL   0*MarioTennisBreakPointPandan_mvl/mxv
 BYTE   W04
// 047   ----------------------------------------
 BYTE   N12  En2
 BYTE   W09
 BYTE   VOL   0*MarioTennisBreakPointPandan_mvl/mxv
 BYTE   W03
 BYTE   N12  En1
 BYTE   W09
 BYTE   VOL   0*MarioTennisBreakPointPandan_mvl/mxv
 BYTE   W03
 BYTE   N12
 BYTE   W09
 BYTE   VOL   0*MarioTennisBreakPointPandan_mvl/mxv
 BYTE   W03
 BYTE   N12  En2
 BYTE   W09
 BYTE   VOL   0*MarioTennisBreakPointPandan_mvl/mxv
 BYTE   W03
 BYTE   N12  En1
 BYTE   W09
 BYTE   VOL   0*MarioTennisBreakPointPandan_mvl/mxv
 BYTE   W03
 BYTE   N12
 BYTE   W10
 BYTE   VOL   0*MarioTennisBreakPointPandan_mvl/mxv
 BYTE   W02
 BYTE   N12  Dn2
 BYTE   W10
 BYTE   VOL   0*MarioTennisBreakPointPandan_mvl/mxv
 BYTE   W02
 BYTE   N12  En2
 BYTE   W12
 BYTE   FINE

//**************** Track 4 (Midi-Chn.3) ****************//

MarioTennisBreakPointPandan_004:
// 000   ----------------------------------------
 BYTE   KEYSH   MarioTennisBreakPointPandan_key+0
 BYTE   VOICE   30
 BYTE   PAN   c_v+6
 BYTE   VOL   62*MarioTennisBreakPointPandan_mvl/mxv
 BYTE   N10  Gn2  v104
 BYTE   N10  Bn2
 BYTE   W12
 BYTE   Cn3
 BYTE   N10  En3
 BYTE   W12
 BYTE   Dn3
 BYTE   N10  Fs3
 BYTE   W12
 BYTE   N12  En3
 BYTE   N12  Gn3
 BYTE   W24
 BYTE   An3
 BYTE   N12  Cn4
 BYTE   W24
 BYTE   Gn3
 BYTE   N12  Bn3
 BYTE   W12
// 001   ----------------------------------------
Label_3_0149AA27:
 BYTE   W12
 BYTE   N12  Fs3  v104
 BYTE   N12  An3
 BYTE   W24
 BYTE   N10  En3
 BYTE   N10  Gn3
 BYTE   W12
 BYTE   Fs3
 BYTE   N10  An3
 BYTE   W12
 BYTE   En3
 BYTE   N10  Gn3
 BYTE   W12
 BYTE   Dn3
 BYTE   N10  Fs3
 BYTE   W12
 BYTE   Bn2
 BYTE   N10  Dn3
 BYTE   W12
 BYTE   PEND 
// 002   ----------------------------------------
Label_3_0149AA44:
 BYTE   N32  Cn3  v104
 BYTE   N32  En3
 BYTE   W36
 BYTE   Gn2
 BYTE   N32  Cn3
 BYTE   W36
 BYTE   N22  En3
 BYTE   N22  Gn3
 BYTE   W24
 BYTE   PEND 
// 003   ----------------------------------------
Label_3_0149AA54:
 BYTE   N32  Dn3  v104
 BYTE   N32  Fs3
 BYTE   W36
 BYTE   N56  An2
 BYTE   N56  Dn3
 BYTE   W60
 BYTE   PEND 
// 004   ----------------------------------------
Label_3_0149AA60:
 BYTE   N56  Bn2  v104
 BYTE   N56  En3
 BYTE   W60
 BYTE   N10  Dn3
 BYTE   N10  Fs3
 BYTE   W12
 BYTE   En3
 BYTE   N10  Gn3
 BYTE   W12
 BYTE   N10
 BYTE   N10  Bn3
 BYTE   W12
 BYTE   PEND 
// 005   ----------------------------------------
Label_3_0149AA74:
 BYTE   N44  Fs3  v104
 BYTE   N44  An3
 BYTE   W48
 BYTE   N44
 BYTE   N44  Dn4
 BYTE   W48
 BYTE   PEND 
// 006   ----------------------------------------
Label_3_0149AA7F:
 BYTE   N56  An3  v104
 BYTE   N56  Cn4
 BYTE   W60
 BYTE   N10  Gn3
 BYTE   N10  Bn3
 BYTE   W12
 BYTE   Fs3
 BYTE   N10  An3
 BYTE   W12
 BYTE   En3
 BYTE   N10  Gn3
 BYTE   W12
 BYTE   PEND 
// 007   ----------------------------------------
 BYTE   N92  Fs3
 BYTE   N92  An3
 BYTE   W96
// 008   ----------------------------------------
Label_3_0149AA98:
 BYTE   N10  Gn3  v104
 BYTE   N10  Bn3
 BYTE   W12
 BYTE   Fs3
 BYTE   N10  An3
 BYTE   W12
 BYTE   En3
 BYTE   N10  Gn3
 BYTE   W12
 BYTE   Fs3
 BYTE   N10  An3
 BYTE   W24
 BYTE   En3
 BYTE   N10  Gn3
 BYTE   W24
 BYTE   Dn3
 BYTE   N10  Fs3
 BYTE   W12
 BYTE   PEND 
// 009   ----------------------------------------
Label_3_0149AAB3:
 BYTE   W12
 BYTE   N10  En3  v104
 BYTE   N10  Gn3
 BYTE   W24
 BYTE   Dn3
 BYTE   N10  Fs3
 BYTE   W12
 BYTE   Bn2
 BYTE   N10  En3
 BYTE   W12
 BYTE   Bn2
 BYTE   N10  Dn3
 BYTE   W12
 BYTE   Gn2
 BYTE   N10  Bn2
 BYTE   W12
 BYTE   N10
 BYTE   N10  Dn3
 BYTE   W12
 BYTE   PEND 
// 010   ----------------------------------------
Label_3_0149AACF:
 BYTE   N10  Dn2  v104
 BYTE   N10  Gn2
 BYTE   W12
 BYTE   N10
 BYTE   N10  Bn2
 BYTE   W12
 BYTE   N10
 BYTE   N10  Dn3
 BYTE   W12
 BYTE   Dn2
 BYTE   N10  Gn2
 BYTE   W12
 BYTE   N10
 BYTE   N10  Bn2
 BYTE   W12
 BYTE   N10
 BYTE   N10  Dn3
 BYTE   W12
 BYTE   Gn2
 BYTE   N10  Bn2
 BYTE   W12
 BYTE   N10
 BYTE   N10  Dn3
 BYTE   W12
 BYTE   PEND 
// 011   ----------------------------------------
Label_3_0149AAF2:
 BYTE   N10  En3  v104
 BYTE   N10  An3
 BYTE   W12
 BYTE   En2
 BYTE   N10  An2
 BYTE   W12
 BYTE   En2
 BYTE   N10  An2
 BYTE   W12
 BYTE   En3
 BYTE   N10  An3
 BYTE   W12
 BYTE   En2
 BYTE   N10  An2
 BYTE   W12
 BYTE   En2
 BYTE   N10  An2
 BYTE   W12
 BYTE   En3
 BYTE   N10  Gn3
 BYTE   W12
 BYTE   En3
 BYTE   N10  An3
 BYTE   W12
 BYTE   PEND 
// 012   ----------------------------------------
Label_3_0149AB15:
 BYTE   N32  Cn3  v104
 BYTE   N32  En3
 BYTE   W36
 BYTE   Gn2
 BYTE   N32  Cn3
 BYTE   W36
 BYTE   N22
 BYTE   N22  En3
 BYTE   W24
 BYTE   PEND 
// 013   ----------------------------------------
Label_3_0149AB24:
 BYTE   N32  Dn3  v104
 BYTE   N32  Fs3
 BYTE   W36
 BYTE   En3
 BYTE   N32  Gn3
 BYTE   W36
 BYTE   N22  Fs3
 BYTE   N22  An3
 BYTE   W24
 BYTE   PEND 
// 014   ----------------------------------------
Label_3_0149AB34:
 BYTE   N92  En3  v104
 BYTE   N68  Bn3
 BYTE   W72
 BYTE   N06  An3
 BYTE   W08
 BYTE   Bn3
 BYTE   W08
 BYTE   An3
 BYTE   W08
 BYTE   PEND 
// 015   ----------------------------------------
 BYTE   N92  En3
 BYTE   N92  Gs3
 BYTE   W96
// 016   ----------------------------------------
Label_3_0149AB47:
 BYTE   N10  Gn2  v104
 BYTE   N10  Bn2
 BYTE   W12
 BYTE   Cn3
 BYTE   N10  En3
 BYTE   W12
 BYTE   Dn3
 BYTE   N10  Fs3
 BYTE   W12
 BYTE   N12  En3
 BYTE   N12  Gn3
 BYTE   W24
 BYTE   An3
 BYTE   N12  Cn4
 BYTE   W24
 BYTE   Gn3
 BYTE   N12  Bn3
 BYTE   W12
 BYTE   PEND 
 BYTE   PATT
  POIN2 Label_3_0149AA27
 BYTE   PATT
  POIN2 Label_3_0149AA44
 BYTE   PATT
  POIN2 Label_3_0149AA54
 BYTE   PATT
  POIN2 Label_3_0149AA60
 BYTE   PATT
  POIN2 Label_3_0149AA74
 BYTE   PATT
  POIN2 Label_3_0149AA7F
// 017   ----------------------------------------
 BYTE   N92  Fs3  v104
 BYTE   N92  An3
 BYTE   W96
 BYTE   PATT
  POIN2 Label_3_0149AA98
 BYTE   PATT
  POIN2 Label_3_0149AAB3
 BYTE   PATT
  POIN2 Label_3_0149AACF
 BYTE   PATT
  POIN2 Label_3_0149AAF2
 BYTE   PATT
  POIN2 Label_3_0149AB15
 BYTE   PATT
  POIN2 Label_3_0149AB24
// 018   ----------------------------------------
 BYTE   N92  En3  v104
 BYTE   N92  Bn3
 BYTE   W96
// 019   ----------------------------------------
Label_3_0149ABAB:
 BYTE   N10  En3  v104
 BYTE   N10  Gs3
 BYTE   W12
 BYTE   Fs3
 BYTE   N10  An3
 BYTE   W12
 BYTE   En3
 BYTE   N10  Gs3
 BYTE   W12
 BYTE   Bn2
 BYTE   N10  En3
 BYTE   W12
 BYTE   Gs2
 BYTE   N10  Bn2
 BYTE   W12
 BYTE   Fs2
 BYTE   N10  An2
 BYTE   W12
 BYTE   En2
 BYTE   N10  Gs2
 BYTE   W12
 BYTE   Bn1
 BYTE   N10  En2
 BYTE   W12
 BYTE   PEND 
// 020   ----------------------------------------
 BYTE   W96
// 021   ----------------------------------------
 BYTE   W96
// 022   ----------------------------------------
 BYTE   W96
// 023   ----------------------------------------
 BYTE   W96
// 024   ----------------------------------------
 BYTE   W96
// 025   ----------------------------------------
 BYTE   W96
// 026   ----------------------------------------
 BYTE   W96
// 027   ----------------------------------------
 BYTE   W96
// 028   ----------------------------------------
 BYTE   W96
// 029   ----------------------------------------
 BYTE   W96
// 030   ----------------------------------------
 BYTE   W96
// 031   ----------------------------------------
 BYTE   W96
// 032   ----------------------------------------
 BYTE   W96
// 033   ----------------------------------------
 BYTE   W96
// 034   ----------------------------------------
 BYTE   W96
// 035   ----------------------------------------
 BYTE   W96
// 036   ----------------------------------------
Label_3_0149ABDE:
 BYTE   N32  As3  v104
 BYTE   N32  Dn4
 BYTE   W36
 BYTE   An3
 BYTE   N32  Cn4
 BYTE   W36
 BYTE   N22  Gn3
 BYTE   N22  As3
 BYTE   W24
 BYTE   PEND 
// 037   ----------------------------------------
Label_3_0149ABEE:
 BYTE   N32  An3  v104
 BYTE   N32  Cn4
 BYTE   W36
 BYTE   Gn3
 BYTE   N32  As3
 BYTE   W36
 BYTE   N22  Fn3
 BYTE   N22  An3
 BYTE   W24
 BYTE   PEND 
// 038   ----------------------------------------
Label_3_0149ABFE:
 BYTE   N10  Gn3  v104
 BYTE   N10  As3
 BYTE   W12
 BYTE   Fn3
 BYTE   N10  An3
 BYTE   W12
 BYTE   TIE  Ds3
 BYTE   TIE  Gn3
 BYTE   W72
 BYTE   PEND 
// 039   ----------------------------------------
 BYTE   W92
 BYTE   W02
 BYTE   EOT
 BYTE   Ds3  v067
 BYTE   W02
// 040   ----------------------------------------
Label_3_0149AC14:
 BYTE   N92  Dn3  v104
 BYTE   N92  En3
 BYTE   N92  An3
 BYTE   W96
 BYTE   PEND 
// 041   ----------------------------------------
Label_3_0149AC1D:
 BYTE   N92  Fn3  v104
 BYTE   N92  Gn3
 BYTE   N92  Cn4
 BYTE   W96
 BYTE   PEND 
// 042   ----------------------------------------
 BYTE   En3
 BYTE   N92  Fs3
 BYTE   N92  Bn3
 BYTE   W96
// 043   ----------------------------------------
Label_3_0149AC2C:
 BYTE   N92  Cn3  v104
 BYTE   N92  Dn3
 BYTE   N92  Gn3
 BYTE   W96
 BYTE   PEND 
 BYTE   PATT
  POIN2 Label_3_0149ABDE
 BYTE   PATT
  POIN2 Label_3_0149ABEE
 BYTE   PATT
  POIN2 Label_3_0149ABFE
// 044   ----------------------------------------
 BYTE   W92
 BYTE   W02
 BYTE   EOT
 BYTE   Ds3  v067
 BYTE   W02
 BYTE   PATT
  POIN2 Label_3_0149AC14
 BYTE   PATT
  POIN2 Label_3_0149AC1D
// 045   ----------------------------------------
Label_3_0149AC54:
 BYTE   N92  Ds3  v104
 BYTE   N92  Fn3
 BYTE   N92  As3
 BYTE   W96
 BYTE   PEND 
// 046   ----------------------------------------
Label_3_0149AC5D:
 BYTE   N92  As2  v104
 BYTE   N92  Cn3
 BYTE   N92  Fn3
 BYTE   W96
 BYTE   PEND 
// 047   ----------------------------------------
Label_3_0149AC66:
 BYTE   N10  An2  v084
 BYTE   N10  Dn3
 BYTE   W12
 BYTE   Cn3
 BYTE   N10  En3
 BYTE   W12
 BYTE   Dn3
 BYTE   N10  Fn3
 BYTE   W12
 BYTE   An2
 BYTE   N10  Dn3
 BYTE   W12
 BYTE   Cn3
 BYTE   N10  En3
 BYTE   W12
 BYTE   Dn3
 BYTE   N10  Fn3
 BYTE   W12
 BYTE   En3
 BYTE   N10  Gn3
 BYTE   W12
 BYTE   Cn3
 BYTE   N10  En3
 BYTE   W12
 BYTE   PEND 
// 048   ----------------------------------------
Label_3_0149AC89:
 BYTE   N10  Dn3  v084
 BYTE   N10  Fn3
 BYTE   W12
 BYTE   En3
 BYTE   N10  Gn3
 BYTE   W12
 BYTE   Fn3
 BYTE   N10  An3
 BYTE   W12
 BYTE   Dn3
 BYTE   N10  Fn3
 BYTE   W12
 BYTE   En3
 BYTE   N10  Gn3
 BYTE   W12
 BYTE   Fn3
 BYTE   N10  An3
 BYTE   W12
 BYTE   Gn3
 BYTE   N10  As3
 BYTE   W12
 BYTE   En3
 BYTE   N10  Gn3
 BYTE   W12
 BYTE   PEND 
// 049   ----------------------------------------
Label_3_0149ACAC:
 BYTE   N10  Fn3  v084
 BYTE   N10  An3
 BYTE   W12
 BYTE   Dn3
 BYTE   N10  Fn3
 BYTE   W12
 BYTE   En3
 BYTE   N10  Gn3
 BYTE   W12
 BYTE   Cn3
 BYTE   N10  En3
 BYTE   W12
 BYTE   Dn3
 BYTE   N10  Fn3
 BYTE   W12
 BYTE   An2
 BYTE   N10  Dn3
 BYTE   W12
 BYTE   Cn3
 BYTE   N10  En3
 BYTE   W12
 BYTE   An2
 BYTE   N10  Cn3
 BYTE   W12
 BYTE   PEND 
// 050   ----------------------------------------
Label_3_0149ACCF:
 BYTE   N10  Cn3  v084
 BYTE   N10  En3
 BYTE   W12
 BYTE   Dn3
 BYTE   N10  Fn3
 BYTE   W12
 BYTE   En3
 BYTE   N10  Gn3
 BYTE   W12
 BYTE   Fn3
 BYTE   N10  An3
 BYTE   W12
 BYTE   En3
 BYTE   N10  Gn3
 BYTE   W12
 BYTE   Dn3
 BYTE   N10  Fn3
 BYTE   W12
 BYTE   Cn3
 BYTE   N10  En3
 BYTE   W12
 BYTE   An2
 BYTE   N10  Cn3
 BYTE   W12
 BYTE   PEND 
 BYTE   PATT
  POIN2 Label_3_0149AC66
 BYTE   PATT
  POIN2 Label_3_0149AC89
// 051   ----------------------------------------
Label_3_0149ACFC:
 BYTE   N92  Dn3  v084
 BYTE   N92  En3
 BYTE   N92  An3
 BYTE   W96
 BYTE   PEND 
// 052   ----------------------------------------
Label_3_0149AD05:
 BYTE   N92  An2  v084
 BYTE   N92  Dn3
 BYTE   N92  En3
 BYTE   W96
 BYTE   PEND 
 BYTE   PATT
  POIN2 Label_3_0149AC66
 BYTE   PATT
  POIN2 Label_3_0149AC89
 BYTE   PATT
  POIN2 Label_3_0149ACAC
 BYTE   PATT
  POIN2 Label_3_0149ACCF
 BYTE   PATT
  POIN2 Label_3_0149AC66
 BYTE   PATT
  POIN2 Label_3_0149AC89
// 053   ----------------------------------------
Label_3_0149AD2C:
 BYTE   N92  Dn3  v084
 BYTE   N92  En3
 BYTE   N56  An3
 BYTE   W60
 BYTE   N10  As3
 BYTE   W12
 BYTE   An3
 BYTE   W12
 BYTE   Gn3
 BYTE   W12
 BYTE   PEND 
 BYTE   PATT
  POIN2 Label_3_0149ACFC
 BYTE   PATT
  POIN2 Label_3_0149AC14
 BYTE   PATT
  POIN2 Label_3_0149AC1D
// 054   ----------------------------------------
 BYTE   N92  En3  v104
 BYTE   N92  Fs3
 BYTE   N92  Bn3
 BYTE   W96
 BYTE   PATT
  POIN2 Label_3_0149AC2C
 BYTE   PATT
  POIN2 Label_3_0149AC14
 BYTE   PATT
  POIN2 Label_3_0149AC1D
 BYTE   PATT
  POIN2 Label_3_0149AC54
 BYTE   PATT
  POIN2 Label_3_0149AC5D
 BYTE   PATT
  POIN2 Label_3_0149AC14
 BYTE   PATT
  POIN2 Label_3_0149AC1D
// 055   ----------------------------------------
 BYTE   N92  En3  v104
 BYTE   N92  Fs3
 BYTE   N92  Bn3
 BYTE   W96
 BYTE   PATT
  POIN2 Label_3_0149AC2C
 BYTE   PATT
  POIN2 Label_3_0149AC14
 BYTE   PATT
  POIN2 Label_3_0149AC1D
 BYTE   PATT
  POIN2 Label_3_0149AC54
 BYTE   PATT
  POIN2 Label_3_0149AC5D
 BYTE   PATT
  POIN2 Label_3_0149ABDE
 BYTE   PATT
  POIN2 Label_3_0149ABEE
 BYTE   PATT
  POIN2 Label_3_0149ABFE
// 056   ----------------------------------------
 BYTE   W92
 BYTE   W02
 BYTE   EOT
 BYTE   Ds3  v067
 BYTE   W02
// 057   ----------------------------------------
Label_3_0149ADAC:
 BYTE   N32  Fn3  v104
 BYTE   N32  An3
 BYTE   W36
 BYTE   Gn3
 BYTE   N32  As3
 BYTE   W36
 BYTE   N22  An3
 BYTE   N22  Cn4
 BYTE   W24
 BYTE   PEND 
// 058   ----------------------------------------
Label_3_0149ADBC:
 BYTE   N32  Gn3  v104
 BYTE   N32  As3
 BYTE   W36
 BYTE   Fn3
 BYTE   N32  An3
 BYTE   W36
 BYTE   N22  Dn3
 BYTE   N22  Fn3
 BYTE   W24
 BYTE   PEND 
// 059   ----------------------------------------
 BYTE   N92  Dn3
 BYTE   N92  Gn3
 BYTE   W96
// 060   ----------------------------------------
 BYTE   As2
 BYTE   N92  Dn3
 BYTE   W96
 BYTE   PATT
  POIN2 Label_3_0149ABDE
 BYTE   PATT
  POIN2 Label_3_0149ABEE
 BYTE   PATT
  POIN2 Label_3_0149ABFE
// 061   ----------------------------------------
 BYTE   W92
 BYTE   W02
 BYTE   EOT
 BYTE   Ds3  v067
 BYTE   W02
// 062   ----------------------------------------
 BYTE   N92  Fn3  v104
 BYTE   N92  An3
 BYTE   W96
// 063   ----------------------------------------
Label_3_0149ADF0:
 BYTE   N32  Fn3  v104
 BYTE   N32  An3
 BYTE   W36
 BYTE   En3
 BYTE   N32  Gn3
 BYTE   W36
 BYTE   N22  Dn3
 BYTE   N22  Fn3
 BYTE   W24
 BYTE   PEND 
// 064   ----------------------------------------
Label_3_0149AE00:
 BYTE   TIE  Dn3  v104
 BYTE   TIE  Gn3
 BYTE   W96
 BYTE   PEND 
// 065   ----------------------------------------
 BYTE   W92
 BYTE   W02
 BYTE   EOT
 BYTE   Dn3  v067
 BYTE   W02
// 066   ----------------------------------------
 BYTE   PAN   c_v+6
 BYTE   VOL   62*MarioTennisBreakPointPandan_mvl/mxv
 BYTE   N10  Gn2
 BYTE   N10  Bn2
 BYTE   W12
 BYTE   Cn3
 BYTE   N10  En3
 BYTE   W12
 BYTE   Dn3
 BYTE   N10  Fs3
 BYTE   W12
 BYTE   N12  En3
 BYTE   N12  Gn3
 BYTE   W24
 BYTE   An3
 BYTE   N12  Cn4
 BYTE   W24
 BYTE   Gn3
 BYTE   N12  Bn3
 BYTE   W12
 BYTE   PATT
  POIN2 Label_3_0149AA27
 BYTE   PATT
  POIN2 Label_3_0149AA44
 BYTE   PATT
  POIN2 Label_3_0149AA54
 BYTE   PATT
  POIN2 Label_3_0149AA60
 BYTE   PATT
  POIN2 Label_3_0149AA74
 BYTE   PATT
  POIN2 Label_3_0149AA7F
// 067   ----------------------------------------
 BYTE   N92  Fs3  v104
 BYTE   N92  An3
 BYTE   W96
 BYTE   PATT
  POIN2 Label_3_0149AA98
 BYTE   PATT
  POIN2 Label_3_0149AAB3
 BYTE   PATT
  POIN2 Label_3_0149AACF
 BYTE   PATT
  POIN2 Label_3_0149AAF2
 BYTE   PATT
  POIN2 Label_3_0149AB15
 BYTE   PATT
  POIN2 Label_3_0149AB24
 BYTE   PATT
  POIN2 Label_3_0149AB34
// 068   ----------------------------------------
 BYTE   N92  En3  v104
 BYTE   N92  Gs3
 BYTE   W96
 BYTE   PATT
  POIN2 Label_3_0149AB47
 BYTE   PATT
  POIN2 Label_3_0149AA27
 BYTE   PATT
  POIN2 Label_3_0149AA44
 BYTE   PATT
  POIN2 Label_3_0149AA54
 BYTE   PATT
  POIN2 Label_3_0149AA60
 BYTE   PATT
  POIN2 Label_3_0149AA74
 BYTE   PATT
  POIN2 Label_3_0149AA7F
// 069   ----------------------------------------
 BYTE   N92  Fs3  v104
 BYTE   N92  An3
 BYTE   W96
 BYTE   PATT
  POIN2 Label_3_0149AA98
 BYTE   PATT
  POIN2 Label_3_0149AAB3
 BYTE   PATT
  POIN2 Label_3_0149AACF
 BYTE   PATT
  POIN2 Label_3_0149AAF2
 BYTE   PATT
  POIN2 Label_3_0149AB15
 BYTE   PATT
  POIN2 Label_3_0149AB24
// 070   ----------------------------------------
 BYTE   N92  En3  v104
 BYTE   N92  Bn3
 BYTE   W96
 BYTE   PATT
  POIN2 Label_3_0149ABAB
// 071   ----------------------------------------
 BYTE   W96
// 072   ----------------------------------------
 BYTE   W96
// 073   ----------------------------------------
 BYTE   W96
// 074   ----------------------------------------
 BYTE   W96
// 075   ----------------------------------------
 BYTE   W96
// 076   ----------------------------------------
 BYTE   W96
// 077   ----------------------------------------
 BYTE   W96
// 078   ----------------------------------------
 BYTE   W96
// 079   ----------------------------------------
 BYTE   W96
// 080   ----------------------------------------
 BYTE   W96
// 081   ----------------------------------------
 BYTE   W96
// 082   ----------------------------------------
 BYTE   W96
// 083   ----------------------------------------
 BYTE   W96
// 084   ----------------------------------------
 BYTE   W96
// 085   ----------------------------------------
 BYTE   W96
// 086   ----------------------------------------
 BYTE   W96
 BYTE   PATT
  POIN2 Label_3_0149ABDE
 BYTE   PATT
  POIN2 Label_3_0149ABEE
 BYTE   PATT
  POIN2 Label_3_0149ABFE
// 087   ----------------------------------------
 BYTE   W92
 BYTE   W02
 BYTE   EOT
 BYTE   Ds3  v067
 BYTE   W02
 BYTE   PATT
  POIN2 Label_3_0149AC14
 BYTE   PATT
  POIN2 Label_3_0149AC1D
// 088   ----------------------------------------
 BYTE   N92  En3  v104
 BYTE   N92  Fs3
 BYTE   N92  Bn3
 BYTE   W96
 BYTE   PATT
  POIN2 Label_3_0149AC2C
 BYTE   PATT
  POIN2 Label_3_0149ABDE
 BYTE   PATT
  POIN2 Label_3_0149ABEE
 BYTE   PATT
  POIN2 Label_3_0149ABFE
// 089   ----------------------------------------
 BYTE   W92
 BYTE   W02
 BYTE   EOT
 BYTE   Ds3  v067
 BYTE   W02
 BYTE   PATT
  POIN2 Label_3_0149AC14
 BYTE   PATT
  POIN2 Label_3_0149AC1D
 BYTE   PATT
  POIN2 Label_3_0149AC54
 BYTE   PATT
  POIN2 Label_3_0149AC5D
 BYTE   PATT
  POIN2 Label_3_0149AC66
 BYTE   PATT
  POIN2 Label_3_0149AC89
 BYTE   PATT
  POIN2 Label_3_0149ACAC
 BYTE   PATT
  POIN2 Label_3_0149ACCF
 BYTE   PATT
  POIN2 Label_3_0149AC66
 BYTE   PATT
  POIN2 Label_3_0149AC89
 BYTE   PATT
  POIN2 Label_3_0149ACFC
 BYTE   PATT
  POIN2 Label_3_0149AD05
 BYTE   PATT
  POIN2 Label_3_0149AC66
 BYTE   PATT
  POIN2 Label_3_0149AC89
 BYTE   PATT
  POIN2 Label_3_0149ACAC
 BYTE   PATT
  POIN2 Label_3_0149ACCF
 BYTE   PATT
  POIN2 Label_3_0149AC66
 BYTE   PATT
  POIN2 Label_3_0149AC89
 BYTE   PATT
  POIN2 Label_3_0149AD2C
 BYTE   PATT
  POIN2 Label_3_0149ACFC
 BYTE   PATT
  POIN2 Label_3_0149AC14
 BYTE   PATT
  POIN2 Label_3_0149AC1D
// 090   ----------------------------------------
 BYTE   N92  En3  v104
 BYTE   N92  Fs3
 BYTE   N92  Bn3
 BYTE   W96
 BYTE   PATT
  POIN2 Label_3_0149AC2C
 BYTE   PATT
  POIN2 Label_3_0149AC14
 BYTE   PATT
  POIN2 Label_3_0149AC1D
 BYTE   PATT
  POIN2 Label_3_0149AC54
 BYTE   PATT
  POIN2 Label_3_0149AC5D
 BYTE   PATT
  POIN2 Label_3_0149AC14
 BYTE   PATT
  POIN2 Label_3_0149AC1D
// 091   ----------------------------------------
 BYTE   N92  En3  v104
 BYTE   N92  Fs3
 BYTE   N92  Bn3
 BYTE   W96
 BYTE   PATT
  POIN2 Label_3_0149AC2C
 BYTE   PATT
  POIN2 Label_3_0149AC14
 BYTE   PATT
  POIN2 Label_3_0149AC1D
 BYTE   PATT
  POIN2 Label_3_0149AC54
 BYTE   PATT
  POIN2 Label_3_0149AC5D
 BYTE   PATT
  POIN2 Label_3_0149ABDE
 BYTE   PATT
  POIN2 Label_3_0149ABEE
 BYTE   PATT
  POIN2 Label_3_0149ABFE
// 092   ----------------------------------------
 BYTE   W92
 BYTE   W02
 BYTE   EOT
 BYTE   Ds3  v067
 BYTE   W02
 BYTE   PATT
  POIN2 Label_3_0149ADAC
 BYTE   PATT
  POIN2 Label_3_0149ADBC
// 093   ----------------------------------------
 BYTE   N92  Dn3  v104
 BYTE   N92  Gn3
 BYTE   W96
// 094   ----------------------------------------
 BYTE   As2
 BYTE   N92  Dn3
 BYTE   W96
 BYTE   PATT
  POIN2 Label_3_0149ABDE
 BYTE   PATT
  POIN2 Label_3_0149ABEE
 BYTE   PATT
  POIN2 Label_3_0149ABFE
// 095   ----------------------------------------
 BYTE   W92
 BYTE   W02
 BYTE   EOT
 BYTE   Ds3  v067
 BYTE   W02
// 096   ----------------------------------------
 BYTE   N92  Fn3  v104
 BYTE   N92  An3
 BYTE   W96
 BYTE   PATT
  POIN2 Label_3_0149ADF0
 BYTE   PATT
  POIN2 Label_3_0149AE00
// 097   ----------------------------------------
 BYTE   W92
 BYTE   W02
 BYTE   EOT
 BYTE   Dn3  v067
 BYTE   W02
// 098   ----------------------------------------
 BYTE   PAN   c_v+6
 BYTE   VOL   62*MarioTennisBreakPointPandan_mvl/mxv
 BYTE   N10  Gn2  v104
 BYTE   N10  Bn2
 BYTE   W12
 BYTE   VOL   61*MarioTennisBreakPointPandan_mvl/mxv
 BYTE   N10  Cn3
 BYTE   N10  En3
 BYTE   W12
 BYTE   VOL   60*MarioTennisBreakPointPandan_mvl/mxv
 BYTE   N10  Dn3
 BYTE   N10  Fs3
 BYTE   W12
 BYTE   VOL   59*MarioTennisBreakPointPandan_mvl/mxv
 BYTE   N12  En3
 BYTE   N12  Gn3
 BYTE   W12
 BYTE   VOL   58*MarioTennisBreakPointPandan_mvl/mxv
 BYTE   W12
 BYTE   Dn8
 BYTE   N12  An3
 BYTE   N12  Cn4
 BYTE   W12
 BYTE   VOL   56*MarioTennisBreakPointPandan_mvl/mxv
 BYTE   W12
 BYTE   Cn8
 BYTE   N12  Gn3
 BYTE   N12  Bn3
 BYTE   W12
// 099   ----------------------------------------
 BYTE   VOL   54*MarioTennisBreakPointPandan_mvl/mxv
 BYTE   W12
 BYTE   As7
 BYTE   N12  Fs3
 BYTE   N12  An3
 BYTE   W12
 BYTE   VOL   52*MarioTennisBreakPointPandan_mvl/mxv
 BYTE   W12
 BYTE   Gs7
 BYTE   N10  En3
 BYTE   N10  Gn3
 BYTE   W12
 BYTE   VOL   50*MarioTennisBreakPointPandan_mvl/mxv
 BYTE   N10  Fs3
 BYTE   N10  An3
 BYTE   W12
 BYTE   VOL   49*MarioTennisBreakPointPandan_mvl/mxv
 BYTE   N10  En3
 BYTE   N10  Gn3
 BYTE   W12
 BYTE   VOL   48*MarioTennisBreakPointPandan_mvl/mxv
 BYTE   N10  Dn3
 BYTE   N10  Fs3
 BYTE   W12
 BYTE   VOL   47*MarioTennisBreakPointPandan_mvl/mxv
 BYTE   N10  Bn2
 BYTE   N10  Dn3
 BYTE   W12
// 100   ----------------------------------------
 BYTE   VOL   46*MarioTennisBreakPointPandan_mvl/mxv
 BYTE   N32  Cn3
 BYTE   N32  En3
 BYTE   W12
 BYTE   VOL   45*MarioTennisBreakPointPandan_mvl/mxv
 BYTE   W12
 BYTE   Cs7
 BYTE   W12
 BYTE   Cn7
 BYTE   N32  Gn2
 BYTE   N32  Cn3
 BYTE   W12
 BYTE   VOL   42*MarioTennisBreakPointPandan_mvl/mxv
 BYTE   W13
 BYTE   As6
 BYTE   W11
 BYTE   N22  En3
 BYTE   N22  Gn3
 BYTE   W01
 BYTE   VOL   40*MarioTennisBreakPointPandan_mvl/mxv
 BYTE   W12
 BYTE   Gs6
 BYTE   W11
// 101   ----------------------------------------
 BYTE   N32  Dn3
 BYTE   N32  Fs3
 BYTE   W01
 BYTE   VOL   38*MarioTennisBreakPointPandan_mvl/mxv
 BYTE   W12
 BYTE   Fs6
 BYTE   W12
 BYTE   Fn6
 BYTE   W11
 BYTE   N56  An2
 BYTE   N56  Dn3
 BYTE   W01
 BYTE   VOL   35*MarioTennisBreakPointPandan_mvl/mxv
 BYTE   W12
 BYTE   Ds6
 BYTE   W12
 BYTE   Dn6
 BYTE   W12
 BYTE   Cs6
 BYTE   W12
 BYTE   Cn6
 BYTE   W11
// 102   ----------------------------------------
 BYTE   N56  Bn2
 BYTE   N56  En3
 BYTE   W01
 BYTE   VOL   30*MarioTennisBreakPointPandan_mvl/mxv
 BYTE   W12
 BYTE   As5
 BYTE   W12
 BYTE   An5
 BYTE   W12
 BYTE   Gs5
 BYTE   W12
 BYTE   Gn5
 BYTE   W11
 BYTE   N10  Dn3
 BYTE   N10  Fs3
 BYTE   W01
 BYTE   VOL   25*MarioTennisBreakPointPandan_mvl/mxv
 BYTE   W11
 BYTE   N10  En3
 BYTE   N10  Gn3
 BYTE   W01
 BYTE   VOL   24*MarioTennisBreakPointPandan_mvl/mxv
 BYTE   W11
 BYTE   N10
 BYTE   N10  Bn3
 BYTE   W01
 BYTE   VOL   23*MarioTennisBreakPointPandan_mvl/mxv
 BYTE   W11
// 103   ----------------------------------------
 BYTE   N44  Fs3
 BYTE   N44  An3
 BYTE   W01
 BYTE   VOL   22*MarioTennisBreakPointPandan_mvl/mxv
 BYTE   W12
 BYTE   Dn5
 BYTE   W12
 BYTE   Cs5
 BYTE   W13
 BYTE   Cn5
 BYTE   W10
 BYTE   N44
 BYTE   N44  Dn4
 BYTE   W02
 BYTE   VOL   18*MarioTennisBreakPointPandan_mvl/mxv
 BYTE   W12
 BYTE   As4
 BYTE   W12
 BYTE   An4
 BYTE   W12
 BYTE   Gs4
 BYTE   W10
// 104   ----------------------------------------
 BYTE   N56  An3
 BYTE   N56  Cn4
 BYTE   W02
 BYTE   VOL   14*MarioTennisBreakPointPandan_mvl/mxv
 BYTE   W12
 BYTE   Fs4
 BYTE   W12
 BYTE   Fn4
 BYTE   W12
 BYTE   En4
 BYTE   W12
 BYTE   Ds4
 BYTE   W10
 BYTE   N10  Gn3
 BYTE   N10  Bn3
 BYTE   W02
 BYTE   VOL   9*MarioTennisBreakPointPandan_mvl/mxv
 BYTE   W10
 BYTE   N10  Fs3
 BYTE   N10  An3
 BYTE   W02
 BYTE   VOL   8*MarioTennisBreakPointPandan_mvl/mxv
 BYTE   W10
 BYTE   N10  En3
 BYTE   N10  Gn3
 BYTE   W02
 BYTE   VOL   7*MarioTennisBreakPointPandan_mvl/mxv
 BYTE   W10
// 105   ----------------------------------------
 BYTE   N92  Fs3
 BYTE   N92  An3
 BYTE   W02
 BYTE   VOL   6*MarioTennisBreakPointPandan_mvl/mxv
 BYTE   W12
 BYTE   As3
 BYTE   W12
 BYTE   An3
 BYTE   W12
 BYTE   Gs3
 BYTE   W12
 BYTE   Gn3
 BYTE   W12
 BYTE   Fs3
 BYTE   W12
 BYTE   Fn3
 BYTE   W12
 BYTE   En3
 BYTE   W10
// 106   ----------------------------------------
 BYTE   N10  Gn3
 BYTE   N10  Bn3
 BYTE   W03
 BYTE   VOL   0*MarioTennisBreakPointPandan_mvl/mxv
 BYTE   W09
 BYTE   N10  Fs3
 BYTE   N10  An3
 BYTE   W03
 BYTE   VOL   0*MarioTennisBreakPointPandan_mvl/mxv
 BYTE   W09
 BYTE   N10  En3
 BYTE   N10  Gn3
 BYTE   W03
 BYTE   VOL   0*MarioTennisBreakPointPandan_mvl/mxv
 BYTE   W09
 BYTE   N10  Fs3
 BYTE   N10  An3
 BYTE   W03
 BYTE   VOL   0*MarioTennisBreakPointPandan_mvl/mxv
 BYTE   W12
 BYTE   Bn2
 BYTE   W09
 BYTE   N10  En3
 BYTE   N10  Gn3
 BYTE   W03
 BYTE   VOL   0*MarioTennisBreakPointPandan_mvl/mxv
 BYTE   W12
 BYTE   An2
 BYTE   W09
 BYTE   N10  Dn3
 BYTE   N10  Fs3
 BYTE   W03
 BYTE   VOL   0*MarioTennisBreakPointPandan_mvl/mxv
 BYTE   W09
// 107   ----------------------------------------
 BYTE   W03
 BYTE   Gn2
 BYTE   W09
 BYTE   N10  En3
 BYTE   N10  Gn3
 BYTE   W03
 BYTE   VOL   0*MarioTennisBreakPointPandan_mvl/mxv
 BYTE   W12
 BYTE   Fn2
 BYTE   W09
 BYTE   N10  Dn3
 BYTE   N10  Fs3
 BYTE   W03
 BYTE   VOL   0*MarioTennisBreakPointPandan_mvl/mxv
 BYTE   W09
 BYTE   N10  Bn2
 BYTE   N10  En3
 BYTE   W03
 BYTE   VOL   0*MarioTennisBreakPointPandan_mvl/mxv
 BYTE   W09
 BYTE   N10  Bn2
 BYTE   N10  Dn3
 BYTE   W03
 BYTE   VOL   0*MarioTennisBreakPointPandan_mvl/mxv
 BYTE   W09
 BYTE   N10  Gn2
 BYTE   N10  Bn2
 BYTE   W03
 BYTE   VOL   0*MarioTennisBreakPointPandan_mvl/mxv
 BYTE   W09
 BYTE   N10
 BYTE   N10  Dn3
 BYTE   W03
 BYTE   VOL   0*MarioTennisBreakPointPandan_mvl/mxv
 BYTE   W09
// 108   ----------------------------------------
 BYTE   N10  Dn2
 BYTE   N10  Gn2
 BYTE   W03
 BYTE   VOL   0*MarioTennisBreakPointPandan_mvl/mxv
 BYTE   W09
 BYTE   N10
 BYTE   N10  Bn2
 BYTE   W03
 BYTE   VOL   0*MarioTennisBreakPointPandan_mvl/mxv
 BYTE   W09
 BYTE   N10
 BYTE   N10  Dn3
 BYTE   W03
 BYTE   VOL   0*MarioTennisBreakPointPandan_mvl/mxv
 BYTE   W09
 BYTE   N10  Dn2
 BYTE   N10  Gn2
 BYTE   W03
 BYTE   VOL   0*MarioTennisBreakPointPandan_mvl/mxv
 BYTE   W09
 BYTE   N10
 BYTE   N10  Bn2
 BYTE   W03
 BYTE   VOL   0*MarioTennisBreakPointPandan_mvl/mxv
 BYTE   W09
 BYTE   N10
 BYTE   N10  Dn3
 BYTE   W04
 BYTE   VOL   0*MarioTennisBreakPointPandan_mvl/mxv
 BYTE   W08
 BYTE   N10  Gn2
 BYTE   N10  Bn2
 BYTE   W04
 BYTE   VOL   0*MarioTennisBreakPointPandan_mvl/mxv
 BYTE   W08
 BYTE   N10
 BYTE   N10  Dn3
 BYTE   W04
 BYTE   VOL   0*MarioTennisBreakPointPandan_mvl/mxv
 BYTE   W08
// 109   ----------------------------------------
 BYTE   N10  En3
 BYTE   N10  An3
 BYTE   W04
 BYTE   VOL   0*MarioTennisBreakPointPandan_mvl/mxv
 BYTE   W08
 BYTE   N10  En2
 BYTE   N10  An2
 BYTE   W04
 BYTE   VOL   0*MarioTennisBreakPointPandan_mvl/mxv
 BYTE   W08
 BYTE   N10  En2
 BYTE   N10  An2
 BYTE   W04
 BYTE   VOL   0*MarioTennisBreakPointPandan_mvl/mxv
 BYTE   W08
 BYTE   N10  En3
 BYTE   N10  An3
 BYTE   W04
 BYTE   VOL   0*MarioTennisBreakPointPandan_mvl/mxv
 BYTE   W08
 BYTE   N10  En2
 BYTE   N10  An2
 BYTE   W04
 BYTE   VOL   0*MarioTennisBreakPointPandan_mvl/mxv
 BYTE   W08
 BYTE   N10  En2
 BYTE   N10  An2
 BYTE   W04
 BYTE   VOL   0*MarioTennisBreakPointPandan_mvl/mxv
 BYTE   W08
 BYTE   N10  En3
 BYTE   N10  Gn3
 BYTE   W04
 BYTE   VOL   0*MarioTennisBreakPointPandan_mvl/mxv
 BYTE   W08
 BYTE   N10  En3
 BYTE   N10  An3
 BYTE   W04
 BYTE   VOL   0*MarioTennisBreakPointPandan_mvl/mxv
 BYTE   W08
// 110   ----------------------------------------
 BYTE   N32  Cn3
 BYTE   N32  En3
 BYTE   W04
 BYTE   VOL   0*MarioTennisBreakPointPandan_mvl/mxv
 BYTE   W12
 BYTE   Fs0
 BYTE   W12
 BYTE   Fn0
 BYTE   W08
 BYTE   N32  Gn2
 BYTE   N32  Cn3
 BYTE   W04
 BYTE   VOL   0*MarioTennisBreakPointPandan_mvl/mxv
 BYTE   W12
 BYTE   Ds0
 BYTE   W12
 BYTE   Dn0
 BYTE   W08
 BYTE   N22
 BYTE   N22  En3
 BYTE   W04
 BYTE   VOL   0*MarioTennisBreakPointPandan_mvl/mxv
 BYTE   W12
 BYTE   Cn0
 BYTE   W08
// 111   ----------------------------------------
 BYTE   N32  Dn3
 BYTE   N32  Fs3
 BYTE   W04
 BYTE   VOL   0*MarioTennisBreakPointPandan_mvl/mxv
 BYTE   W12
 BYTE   AsM1
 BYTE   W13
 BYTE   AnM1
 BYTE   W07
 BYTE   N32  En3
 BYTE   N32  Gn3
 BYTE   W05
 BYTE   VOL   0*MarioTennisBreakPointPandan_mvl/mxv
 BYTE   W12
 BYTE   GnM1
 BYTE   W12
 BYTE   FsM1
 BYTE   W07
 BYTE   N22  Fs3
 BYTE   N22  An3
 BYTE   W05
 BYTE   VOL   0*MarioTennisBreakPointPandan_mvl/mxv
 BYTE   W12
 BYTE   EnM1
 BYTE   W07
// 112   ----------------------------------------
 BYTE   N92  En3
 BYTE   N68  Bn3
 BYTE   W05
 BYTE   VOL   0*MarioTennisBreakPointPandan_mvl/mxv
 BYTE   W12
 BYTE   DnM1
 BYTE   W12
 BYTE   CsM1
 BYTE   W12
 BYTE   CnM1
 BYTE   W12
 BYTE   BnM2
 BYTE   W12
 BYTE   AsM2
 BYTE   W07
 BYTE   N06  An3
 BYTE   W05
 BYTE   VOL   0*MarioTennisBreakPointPandan_mvl/mxv
 BYTE   W03
 BYTE   N06  Bn3
 BYTE   W08
 BYTE   An3
 BYTE   W01
 BYTE   VOL   0*MarioTennisBreakPointPandan_mvl/mxv
 BYTE   W07
// 113   ----------------------------------------
 BYTE   N92  En3
 BYTE   N92  Gs3
 BYTE   W05
 BYTE   VOL   0*MarioTennisBreakPointPandan_mvl/mxv
 BYTE   W12
 BYTE   FsM2
 BYTE   W12
 BYTE   FnM2
 BYTE   W12
 BYTE   EnM2
 BYTE   W12
 BYTE   DsM2
 BYTE   W12
 BYTE   DnM2
 BYTE   W12
 BYTE   CsM2
 BYTE   W19
 BYTE   FINE

//**************** Track 5 (Midi-Chn.4) ****************//

MarioTennisBreakPointPandan_005:
// 000   ----------------------------------------
 BYTE   VOL   62*MarioTennisBreakPointPandan_mvl/mxv
 BYTE   KEYSH   MarioTennisBreakPointPandan_key+0
 BYTE   VOICE   30
 BYTE   W96
// 001   ----------------------------------------
 BYTE   W96
// 002   ----------------------------------------
 BYTE   W96
// 003   ----------------------------------------
 BYTE   W96
// 004   ----------------------------------------
 BYTE   W96
// 005   ----------------------------------------
 BYTE   W96
// 006   ----------------------------------------
 BYTE   W96
// 007   ----------------------------------------
 BYTE   W96
// 008   ----------------------------------------
 BYTE   W96
// 009   ----------------------------------------
 BYTE   W96
// 010   ----------------------------------------
 BYTE   W96
// 011   ----------------------------------------
 BYTE   W96
// 012   ----------------------------------------
 BYTE   W96
// 013   ----------------------------------------
 BYTE   W96
// 014   ----------------------------------------
 BYTE   W96
// 015   ----------------------------------------
 BYTE   W96
// 016   ----------------------------------------
 BYTE   W96
// 017   ----------------------------------------
 BYTE   W96
// 018   ----------------------------------------
 BYTE   W96
// 019   ----------------------------------------
 BYTE   W96
// 020   ----------------------------------------
 BYTE   W96
// 021   ----------------------------------------
 BYTE   W96
// 022   ----------------------------------------
 BYTE   W96
// 023   ----------------------------------------
 BYTE   W96
// 024   ----------------------------------------
 BYTE   W96
// 025   ----------------------------------------
 BYTE   W96
// 026   ----------------------------------------
 BYTE   W96
// 027   ----------------------------------------
 BYTE   W96
// 028   ----------------------------------------
 BYTE   W96
// 029   ----------------------------------------
 BYTE   W96
// 030   ----------------------------------------
 BYTE   W96
// 031   ----------------------------------------
 BYTE   W96
// 032   ----------------------------------------
 BYTE   W96
// 033   ----------------------------------------
 BYTE   W96
// 034   ----------------------------------------
 BYTE   W96
// 035   ----------------------------------------
 BYTE   W96
// 036   ----------------------------------------
 BYTE   W96
// 037   ----------------------------------------
 BYTE   W96
// 038   ----------------------------------------
 BYTE   W96
// 039   ----------------------------------------
 BYTE   W96
// 040   ----------------------------------------
 BYTE   W96
// 041   ----------------------------------------
 BYTE   W96
// 042   ----------------------------------------
 BYTE   W96
// 043   ----------------------------------------
 BYTE   W96
// 044   ----------------------------------------
 BYTE   W96
// 045   ----------------------------------------
 BYTE   W96
// 046   ----------------------------------------
 BYTE   W96
// 047   ----------------------------------------
 BYTE   W96
// 048   ----------------------------------------
 BYTE   W96
// 049   ----------------------------------------
 BYTE   W96
// 050   ----------------------------------------
 BYTE   W96
// 051   ----------------------------------------
 BYTE   W96
// 052   ----------------------------------------
 BYTE   W96
// 053   ----------------------------------------
 BYTE   W96
// 054   ----------------------------------------
 BYTE   W96
// 055   ----------------------------------------
 BYTE   W96
// 056   ----------------------------------------
 BYTE   W96
// 057   ----------------------------------------
 BYTE   W96
// 058   ----------------------------------------
 BYTE   W96
// 059   ----------------------------------------
 BYTE   W96
// 060   ----------------------------------------
 BYTE   W96
// 061   ----------------------------------------
 BYTE   W96
// 062   ----------------------------------------
 BYTE   W96
// 063   ----------------------------------------
 BYTE   W96
// 064   ----------------------------------------
 BYTE   W96
// 065   ----------------------------------------
 BYTE   W96
// 066   ----------------------------------------
 BYTE   W96
// 067   ----------------------------------------
 BYTE   W96
// 068   ----------------------------------------
 BYTE   W96
// 069   ----------------------------------------
 BYTE   W96
// 070   ----------------------------------------
 BYTE   W96
// 071   ----------------------------------------
 BYTE   W96
// 072   ----------------------------------------
 BYTE   W96
// 073   ----------------------------------------
 BYTE   W96
// 074   ----------------------------------------
 BYTE   W96
// 075   ----------------------------------------
 BYTE   W96
// 076   ----------------------------------------
 BYTE   W96
// 077   ----------------------------------------
 BYTE   W96
// 078   ----------------------------------------
 BYTE   W96
// 079   ----------------------------------------
 BYTE   W96
// 080   ----------------------------------------
 BYTE   W96
// 081   ----------------------------------------
 BYTE   W96
// 082   ----------------------------------------
 BYTE   W96
// 083   ----------------------------------------
 BYTE   W96
// 084   ----------------------------------------
 BYTE   W96
// 085   ----------------------------------------
 BYTE   W96
// 086   ----------------------------------------
 BYTE   W96
// 087   ----------------------------------------
 BYTE   W96
// 088   ----------------------------------------
 BYTE   W96
// 089   ----------------------------------------
 BYTE   W96
// 090   ----------------------------------------
 BYTE   W96
// 091   ----------------------------------------
 BYTE   W96
// 092   ----------------------------------------
 BYTE   W96
// 093   ----------------------------------------
 BYTE   W96
// 094   ----------------------------------------
 BYTE   W96
// 095   ----------------------------------------
 BYTE   W96
// 096   ----------------------------------------
 BYTE   W24
 BYTE   N92  Gn2  v104
 BYTE   W72
// 097   ----------------------------------------
Label_4_0149B30B:
 BYTE   W24
 BYTE   N32  Gn2  v104
 BYTE   W36
 BYTE   Dn2
 BYTE   W36
 BYTE   PEND 
// 098   ----------------------------------------
Label_4_0149B313:
 BYTE   N22  Dn2  v104
 BYTE   W24
 BYTE   N92  Ds2
 BYTE   W72
 BYTE   PEND 
// 099   ----------------------------------------
 BYTE   W24
 BYTE   As2
 BYTE   W72
// 100   ----------------------------------------
 BYTE   W24
 BYTE   Dn2
 BYTE   W72
// 101   ----------------------------------------
 BYTE   W24
 BYTE   N92
 BYTE   W72
// 102   ----------------------------------------
 BYTE   W24
 BYTE   N92
 BYTE   W72
 BYTE   PATT
  POIN2 Label_4_0149B30B
// 103   ----------------------------------------
Label_4_0149B32C:
 BYTE   N22  Gn2  v104
 BYTE   W24
 BYTE   N92
 BYTE   W72
 BYTE   PEND 
 BYTE   PATT
  POIN2 Label_4_0149B30B
 BYTE   PATT
  POIN2 Label_4_0149B313
// 104   ----------------------------------------
 BYTE   W24
 BYTE   N92  As2  v104
 BYTE   W72
// 105   ----------------------------------------
 BYTE   W24
 BYTE   Dn2
 BYTE   W72
// 106   ----------------------------------------
 BYTE   W24
 BYTE   N92
 BYTE   W72
// 107   ----------------------------------------
 BYTE   W24
 BYTE   N92
 BYTE   W72
// 108   ----------------------------------------
Label_4_0149B34B:
 BYTE   W24
 BYTE   N32  Dn2  v104
 BYTE   W36
 BYTE   Cn2
 BYTE   W36
 BYTE   PEND 
// 109   ----------------------------------------
 BYTE   N22  Dn2
 BYTE   W96
// 110   ----------------------------------------
 BYTE   W96
// 111   ----------------------------------------
 BYTE   W96
// 112   ----------------------------------------
 BYTE   W96
// 113   ----------------------------------------
 BYTE   W96
// 114   ----------------------------------------
 BYTE   W96
// 115   ----------------------------------------
 BYTE   W96
// 116   ----------------------------------------
 BYTE   W96
// 117   ----------------------------------------
 BYTE   W96
// 118   ----------------------------------------
 BYTE   W96
// 119   ----------------------------------------
 BYTE   W96
// 120   ----------------------------------------
 BYTE   W96
// 121   ----------------------------------------
 BYTE   W96
// 122   ----------------------------------------
 BYTE   W96
// 123   ----------------------------------------
 BYTE   W96
// 124   ----------------------------------------
 BYTE   W96
// 125   ----------------------------------------
 BYTE   W96
// 126   ----------------------------------------
 BYTE   W96
// 127   ----------------------------------------
 BYTE   W96
// 128   ----------------------------------------
 BYTE   W96
// 129   ----------------------------------------
 BYTE   W96
// 130   ----------------------------------------
 BYTE   W96
// 131   ----------------------------------------
 BYTE   W96
// 132   ----------------------------------------
 BYTE   W96
// 133   ----------------------------------------
 BYTE   W96
// 134   ----------------------------------------
 BYTE   W96
// 135   ----------------------------------------
 BYTE   W96
// 136   ----------------------------------------
 BYTE   W96
// 137   ----------------------------------------
 BYTE   W96
// 138   ----------------------------------------
 BYTE   W96
// 139   ----------------------------------------
 BYTE   W96
// 140   ----------------------------------------
 BYTE   W96
// 141   ----------------------------------------
 BYTE   W96
// 142   ----------------------------------------
 BYTE   W96
// 143   ----------------------------------------
 BYTE   W96
// 144   ----------------------------------------
 BYTE   W96
// 145   ----------------------------------------
 BYTE   W96
// 146   ----------------------------------------
 BYTE   W96
// 147   ----------------------------------------
 BYTE   W96
// 148   ----------------------------------------
 BYTE   W96
// 149   ----------------------------------------
 BYTE   W96
// 150   ----------------------------------------
 BYTE   W96
// 151   ----------------------------------------
 BYTE   W96
// 152   ----------------------------------------
 BYTE   W96
// 153   ----------------------------------------
 BYTE   W96
// 154   ----------------------------------------
 BYTE   W96
// 155   ----------------------------------------
 BYTE   W96
// 156   ----------------------------------------
 BYTE   W96
// 157   ----------------------------------------
 BYTE   W96
// 158   ----------------------------------------
 BYTE   W96
// 159   ----------------------------------------
 BYTE   W96
// 160   ----------------------------------------
 BYTE   W96
// 161   ----------------------------------------
 BYTE   W96
// 162   ----------------------------------------
 BYTE   W96
// 163   ----------------------------------------
 BYTE   W96
// 164   ----------------------------------------
 BYTE   W96
// 165   ----------------------------------------
 BYTE   W96
// 166   ----------------------------------------
 BYTE   W96
// 167   ----------------------------------------
 BYTE   W96
// 168   ----------------------------------------
 BYTE   W96
// 169   ----------------------------------------
 BYTE   W96
// 170   ----------------------------------------
 BYTE   W96
// 171   ----------------------------------------
 BYTE   W96
// 172   ----------------------------------------
 BYTE   W96
// 173   ----------------------------------------
 BYTE   W96
// 174   ----------------------------------------
 BYTE   W96
// 175   ----------------------------------------
 BYTE   W96
// 176   ----------------------------------------
 BYTE   W96
// 177   ----------------------------------------
 BYTE   W96
// 178   ----------------------------------------
 BYTE   W96
// 179   ----------------------------------------
 BYTE   W96
// 180   ----------------------------------------
 BYTE   W96
// 181   ----------------------------------------
 BYTE   W96
// 182   ----------------------------------------
 BYTE   W96
// 183   ----------------------------------------
 BYTE   W96
// 184   ----------------------------------------
 BYTE   W96
// 185   ----------------------------------------
 BYTE   W96
// 186   ----------------------------------------
 BYTE   W96
// 187   ----------------------------------------
 BYTE   W96
// 188   ----------------------------------------
 BYTE   W96
// 189   ----------------------------------------
 BYTE   W96
// 190   ----------------------------------------
 BYTE   W96
// 191   ----------------------------------------
 BYTE   W96
// 192   ----------------------------------------
 BYTE   W96
// 193   ----------------------------------------
 BYTE   W96
// 194   ----------------------------------------
 BYTE   W96
// 195   ----------------------------------------
 BYTE   W96
// 196   ----------------------------------------
 BYTE   W96
// 197   ----------------------------------------
 BYTE   W96
// 198   ----------------------------------------
 BYTE   W96
// 199   ----------------------------------------
 BYTE   W96
// 200   ----------------------------------------
 BYTE   W96
// 201   ----------------------------------------
 BYTE   W96
// 202   ----------------------------------------
 BYTE   W96
// 203   ----------------------------------------
 BYTE   W96
// 204   ----------------------------------------
 BYTE   W96
// 205   ----------------------------------------
 BYTE   W24
 BYTE   N92  Gn2
 BYTE   W72
 BYTE   PATT
  POIN2 Label_4_0149B30B
 BYTE   PATT
  POIN2 Label_4_0149B313
// 206   ----------------------------------------
 BYTE   W24
 BYTE   N92  As2  v104
 BYTE   W72
// 207   ----------------------------------------
 BYTE   W24
 BYTE   Dn2
 BYTE   W72
// 208   ----------------------------------------
 BYTE   W24
 BYTE   N92
 BYTE   W72
// 209   ----------------------------------------
 BYTE   W24
 BYTE   N92
 BYTE   W72
 BYTE   PATT
  POIN2 Label_4_0149B30B
 BYTE   PATT
  POIN2 Label_4_0149B32C
 BYTE   PATT
  POIN2 Label_4_0149B30B
 BYTE   PATT
  POIN2 Label_4_0149B313
// 210   ----------------------------------------
 BYTE   W24
 BYTE   N92  As2  v104
 BYTE   W72
// 211   ----------------------------------------
 BYTE   W24
 BYTE   Dn2
 BYTE   W72
// 212   ----------------------------------------
 BYTE   W24
 BYTE   N92
 BYTE   W72
// 213   ----------------------------------------
 BYTE   W24
 BYTE   N92
 BYTE   W72
 BYTE   PATT
  POIN2 Label_4_0149B34B
// 214   ----------------------------------------
 BYTE   N22  Dn2  v104
 BYTE   W96
// 215   ----------------------------------------
 BYTE   W96
// 216   ----------------------------------------
 BYTE   W96
// 217   ----------------------------------------
 BYTE   W96
// 218   ----------------------------------------
 BYTE   W96
// 219   ----------------------------------------
 BYTE   W96
// 220   ----------------------------------------
 BYTE   W96
// 221   ----------------------------------------
 BYTE   W96
// 222   ----------------------------------------
 BYTE   W96
// 223   ----------------------------------------
 BYTE   W96
// 224   ----------------------------------------
 BYTE   W96
// 225   ----------------------------------------
 BYTE   W96
// 226   ----------------------------------------
 BYTE   W96
// 227   ----------------------------------------
 BYTE   W96
// 228   ----------------------------------------
 BYTE   W96
// 229   ----------------------------------------
 BYTE   W96
 BYTE   FINE

//**************** Track 6 (Midi-Chn.5) ****************//

MarioTennisBreakPointPandan_006:
// 000   ----------------------------------------
 BYTE   KEYSH   MarioTennisBreakPointPandan_key+0
 BYTE   VOICE   52
 BYTE   VOL   24*MarioTennisBreakPointPandan_mvl/mxv
 BYTE   W96
// 001   ----------------------------------------
 BYTE   W96
// 002   ----------------------------------------
 BYTE   W96
// 003   ----------------------------------------
 BYTE   W96
// 004   ----------------------------------------
 BYTE   W96
// 005   ----------------------------------------
 BYTE   W96
// 006   ----------------------------------------
 BYTE   W96
// 007   ----------------------------------------
 BYTE   W96
// 008   ----------------------------------------
 BYTE   N96  Gn4  v104
 BYTE   W96
// 009   ----------------------------------------
Label_5_0149B41E:
 BYTE   N48  Fs4  v104
 BYTE   W48
 BYTE   TIE  Dn4
 BYTE   W48
 BYTE   PEND 
// 010   ----------------------------------------
 BYTE   W96
// 011   ----------------------------------------
 BYTE   EOT
 BYTE   N96  Cs4
 BYTE   W96
// 012   ----------------------------------------
 BYTE   Cn4
 BYTE   W96
// 013   ----------------------------------------
 BYTE   Dn4
 BYTE   W96
// 014   ----------------------------------------
 BYTE   TIE  En4
 BYTE   W96
// 015   ----------------------------------------
 BYTE   W96
// 016   ----------------------------------------
 BYTE   EOT
 BYTE   W96
// 017   ----------------------------------------
 BYTE   W96
// 018   ----------------------------------------
 BYTE   W96
// 019   ----------------------------------------
 BYTE   W96
// 020   ----------------------------------------
 BYTE   W96
// 021   ----------------------------------------
 BYTE   W96
// 022   ----------------------------------------
 BYTE   W96
// 023   ----------------------------------------
 BYTE   W96
// 024   ----------------------------------------
 BYTE   N96  Gn4
 BYTE   W96
 BYTE   PATT
  POIN2 Label_5_0149B41E
// 025   ----------------------------------------
 BYTE   W96
// 026   ----------------------------------------
 BYTE   EOT
 BYTE   Dn4
 BYTE   N96  Cs4  v104
 BYTE   W96
// 027   ----------------------------------------
 BYTE   Cn4
 BYTE   W96
// 028   ----------------------------------------
 BYTE   Dn4
 BYTE   W96
// 029   ----------------------------------------
 BYTE   TIE  En4
 BYTE   W96
// 030   ----------------------------------------
 BYTE   W96
// 031   ----------------------------------------
 BYTE   EOT
 BYTE   N96
 BYTE   W96
// 032   ----------------------------------------
 BYTE   Fs4
 BYTE   W96
// 033   ----------------------------------------
 BYTE   TIE  Gn4
 BYTE   W96
// 034   ----------------------------------------
 BYTE   W96
// 035   ----------------------------------------
 BYTE   W96
// 036   ----------------------------------------
 BYTE   EOT
Label_5_0149B45E:
 BYTE   N48  Fs4  v104
 BYTE   W48
 BYTE   Dn4
 BYTE   W48
 BYTE   PEND 
// 037   ----------------------------------------
 BYTE   N96  En4
 BYTE   W96
// 038   ----------------------------------------
 BYTE   Fs4
 BYTE   W96
// 039   ----------------------------------------
 BYTE   TIE  Gn4
 BYTE   W96
// 040   ----------------------------------------
 BYTE   W96
// 041   ----------------------------------------
 BYTE   W96
// 042   ----------------------------------------
 BYTE   EOT
 BYTE   PATT
  POIN2 Label_5_0149B45E
// 043   ----------------------------------------
 BYTE   N96  En4  v104
 BYTE   W96
// 044   ----------------------------------------
 BYTE   Fs4
 BYTE   W96
// 045   ----------------------------------------
 BYTE   Gn4
 BYTE   W96
// 046   ----------------------------------------
 BYTE   An4
 BYTE   W96
// 047   ----------------------------------------
 BYTE   TIE  Gn4
 BYTE   W96
// 048   ----------------------------------------
 BYTE   W96
// 049   ----------------------------------------
 BYTE   W96
// 050   ----------------------------------------
 BYTE   W96
// 051   ----------------------------------------
 BYTE   EOT
 BYTE   TIE  An4
 BYTE   W96
// 052   ----------------------------------------
 BYTE   W96
// 053   ----------------------------------------
 BYTE   W96
// 054   ----------------------------------------
 BYTE   W96
// 055   ----------------------------------------
 BYTE   EOT
 BYTE   TIE  Gn4
 BYTE   W96
// 056   ----------------------------------------
 BYTE   W96
// 057   ----------------------------------------
 BYTE   W96
// 058   ----------------------------------------
 BYTE   W96
// 059   ----------------------------------------
 BYTE   EOT
 BYTE   TIE  An4
 BYTE   W96
// 060   ----------------------------------------
 BYTE   W96
// 061   ----------------------------------------
 BYTE   EOT
 BYTE   TIE  As4
 BYTE   W96
// 062   ----------------------------------------
 BYTE   W96
// 063   ----------------------------------------
 BYTE   EOT
 BYTE   W96
// 064   ----------------------------------------
 BYTE   W96
// 065   ----------------------------------------
 BYTE   W96
// 066   ----------------------------------------
 BYTE   W96
// 067   ----------------------------------------
 BYTE   W96
// 068   ----------------------------------------
 BYTE   W96
// 069   ----------------------------------------
 BYTE   W96
// 070   ----------------------------------------
 BYTE   W96
// 071   ----------------------------------------
 BYTE   W96
// 072   ----------------------------------------
 BYTE   W96
// 073   ----------------------------------------
 BYTE   W96
// 074   ----------------------------------------
 BYTE   W96
// 075   ----------------------------------------
 BYTE   W96
// 076   ----------------------------------------
 BYTE   W96
// 077   ----------------------------------------
 BYTE   W96
// 078   ----------------------------------------
 BYTE   W96
// 079   ----------------------------------------
 BYTE   TIE  An4
 BYTE   W96
// 080   ----------------------------------------
 BYTE   W96
// 081   ----------------------------------------
 BYTE   W96
// 082   ----------------------------------------
 BYTE   W48
 BYTE   EOT
 BYTE   N48  Dn4
 BYTE   W48
// 083   ----------------------------------------
 BYTE   TIE  An4
 BYTE   W96
// 084   ----------------------------------------
 BYTE   W96
// 085   ----------------------------------------
 BYTE   EOT
 BYTE   TIE  As4
 BYTE   W96
// 086   ----------------------------------------
 BYTE   W48
 BYTE   EOT
 BYTE   N48  Fn4
 BYTE   W48
// 087   ----------------------------------------
 BYTE   TIE  An4
 BYTE   W96
// 088   ----------------------------------------
 BYTE   W96
// 089   ----------------------------------------
 BYTE   W96
// 090   ----------------------------------------
 BYTE   W48
 BYTE   EOT
 BYTE   N48  Dn4
 BYTE   W48
// 091   ----------------------------------------
 BYTE   TIE  An4
 BYTE   W96
// 092   ----------------------------------------
 BYTE   W96
// 093   ----------------------------------------
 BYTE   EOT
 BYTE   TIE  As4
 BYTE   W96
// 094   ----------------------------------------
 BYTE   W48
 BYTE   EOT
 BYTE   N48  Fn4
 BYTE   W48
// 095   ----------------------------------------
 BYTE   TIE  Gn4
 BYTE   W96
// 096   ----------------------------------------
 BYTE   W96
// 097   ----------------------------------------
 BYTE   W96
// 098   ----------------------------------------
 BYTE   W96
// 099   ----------------------------------------
 BYTE   EOT
 BYTE   TIE  Fn4
 BYTE   W96
// 100   ----------------------------------------
 BYTE   W96
// 101   ----------------------------------------
 BYTE   EOT
 BYTE   TIE  Gn4
 BYTE   W96
// 102   ----------------------------------------
 BYTE   W96
// 103   ----------------------------------------
 BYTE   EOT
 BYTE   TIE
 BYTE   W96
// 104   ----------------------------------------
 BYTE   W96
// 105   ----------------------------------------
 BYTE   W96
// 106   ----------------------------------------
 BYTE   W96
// 107   ----------------------------------------
 BYTE   EOT
 BYTE   TIE  Fn4
 BYTE   W96
// 108   ----------------------------------------
 BYTE   W96
// 109   ----------------------------------------
 BYTE   EOT
 BYTE   TIE  Gn4
 BYTE   W96
// 110   ----------------------------------------
 BYTE   W96
// 111   ----------------------------------------
 BYTE   EOT
 BYTE   VOL   24*MarioTennisBreakPointPandan_mvl/mxv
 BYTE   W96
// 112   ----------------------------------------
 BYTE   W96
// 113   ----------------------------------------
 BYTE   W96
// 114   ----------------------------------------
 BYTE   W96
// 115   ----------------------------------------
 BYTE   W96
// 116   ----------------------------------------
 BYTE   W96
// 117   ----------------------------------------
 BYTE   W96
// 118   ----------------------------------------
 BYTE   W96
// 119   ----------------------------------------
 BYTE   N96
 BYTE   W96
 BYTE   PATT
  POIN2 Label_5_0149B41E
// 120   ----------------------------------------
 BYTE   W96
// 121   ----------------------------------------
 BYTE   EOT
 BYTE   Dn4
 BYTE   N96  Cs4  v104
 BYTE   W96
// 122   ----------------------------------------
 BYTE   Cn4
 BYTE   W96
// 123   ----------------------------------------
 BYTE   Dn4
 BYTE   W96
// 124   ----------------------------------------
 BYTE   TIE  En4
 BYTE   W96
// 125   ----------------------------------------
 BYTE   W96
// 126   ----------------------------------------
 BYTE   EOT
 BYTE   W96
// 127   ----------------------------------------
 BYTE   W96
// 128   ----------------------------------------
 BYTE   W96
// 129   ----------------------------------------
 BYTE   W96
// 130   ----------------------------------------
 BYTE   W96
// 131   ----------------------------------------
 BYTE   W96
// 132   ----------------------------------------
 BYTE   W96
// 133   ----------------------------------------
 BYTE   W96
// 134   ----------------------------------------
 BYTE   N96  Gn4
 BYTE   W96
 BYTE   PATT
  POIN2 Label_5_0149B41E
// 135   ----------------------------------------
 BYTE   W96
// 136   ----------------------------------------
 BYTE   EOT
 BYTE   Dn4
 BYTE   N96  Cs4  v104
 BYTE   W96
// 137   ----------------------------------------
 BYTE   Cn4
 BYTE   W96
// 138   ----------------------------------------
 BYTE   Dn4
 BYTE   W96
// 139   ----------------------------------------
 BYTE   TIE  En4
 BYTE   W96
// 140   ----------------------------------------
 BYTE   W96
// 141   ----------------------------------------
 BYTE   EOT
 BYTE   N96
 BYTE   W96
// 142   ----------------------------------------
 BYTE   Fs4
 BYTE   W96
// 143   ----------------------------------------
 BYTE   TIE  Gn4
 BYTE   W96
// 144   ----------------------------------------
 BYTE   W96
// 145   ----------------------------------------
 BYTE   W96
// 146   ----------------------------------------
 BYTE   EOT
 BYTE   PATT
  POIN2 Label_5_0149B45E
// 147   ----------------------------------------
 BYTE   N96  En4  v104
 BYTE   W96
// 148   ----------------------------------------
 BYTE   Fs4
 BYTE   W96
// 149   ----------------------------------------
 BYTE   TIE  Gn4
 BYTE   W96
// 150   ----------------------------------------
 BYTE   W96
// 151   ----------------------------------------
 BYTE   W96
// 152   ----------------------------------------
 BYTE   EOT
 BYTE   PATT
  POIN2 Label_5_0149B45E
// 153   ----------------------------------------
 BYTE   N96  En4  v104
 BYTE   W96
// 154   ----------------------------------------
 BYTE   Fs4
 BYTE   W96
// 155   ----------------------------------------
 BYTE   Gn4
 BYTE   W96
// 156   ----------------------------------------
 BYTE   An4
 BYTE   W96
// 157   ----------------------------------------
 BYTE   TIE  Gn4
 BYTE   W96
// 158   ----------------------------------------
 BYTE   W96
// 159   ----------------------------------------
 BYTE   W96
// 160   ----------------------------------------
 BYTE   W96
// 161   ----------------------------------------
 BYTE   EOT
 BYTE   TIE  An4
 BYTE   W96
// 162   ----------------------------------------
 BYTE   W96
// 163   ----------------------------------------
 BYTE   W96
// 164   ----------------------------------------
 BYTE   W96
// 165   ----------------------------------------
 BYTE   EOT
 BYTE   TIE  Gn4
 BYTE   W96
// 166   ----------------------------------------
 BYTE   W96
// 167   ----------------------------------------
 BYTE   W96
// 168   ----------------------------------------
 BYTE   W96
// 169   ----------------------------------------
 BYTE   EOT
 BYTE   TIE  An4
 BYTE   W96
// 170   ----------------------------------------
 BYTE   W96
// 171   ----------------------------------------
 BYTE   EOT
 BYTE   TIE  As4
 BYTE   W96
// 172   ----------------------------------------
 BYTE   W96
// 173   ----------------------------------------
 BYTE   EOT
 BYTE   W96
// 174   ----------------------------------------
 BYTE   W96
// 175   ----------------------------------------
 BYTE   W96
// 176   ----------------------------------------
 BYTE   W96
// 177   ----------------------------------------
 BYTE   W96
// 178   ----------------------------------------
 BYTE   W96
// 179   ----------------------------------------
 BYTE   W96
// 180   ----------------------------------------
 BYTE   W96
// 181   ----------------------------------------
 BYTE   W96
// 182   ----------------------------------------
 BYTE   W96
// 183   ----------------------------------------
 BYTE   W96
// 184   ----------------------------------------
 BYTE   W96
// 185   ----------------------------------------
 BYTE   W96
// 186   ----------------------------------------
 BYTE   W96
// 187   ----------------------------------------
 BYTE   W96
// 188   ----------------------------------------
 BYTE   W96
// 189   ----------------------------------------
 BYTE   TIE  An4
 BYTE   W96
// 190   ----------------------------------------
 BYTE   W96
// 191   ----------------------------------------
 BYTE   W96
// 192   ----------------------------------------
 BYTE   W48
 BYTE   EOT
 BYTE   N48  Dn4
 BYTE   W48
// 193   ----------------------------------------
 BYTE   TIE  An4
 BYTE   W96
// 194   ----------------------------------------
 BYTE   W96
// 195   ----------------------------------------
 BYTE   EOT
 BYTE   TIE  As4
 BYTE   W96
// 196   ----------------------------------------
 BYTE   W48
 BYTE   EOT
 BYTE   N48  Fn4
 BYTE   W48
// 197   ----------------------------------------
 BYTE   TIE  An4
 BYTE   W96
// 198   ----------------------------------------
 BYTE   W96
// 199   ----------------------------------------
 BYTE   W96
// 200   ----------------------------------------
 BYTE   W48
 BYTE   EOT
 BYTE   N48  Dn4
 BYTE   W48
// 201   ----------------------------------------
 BYTE   TIE  An4
 BYTE   W96
// 202   ----------------------------------------
 BYTE   W96
// 203   ----------------------------------------
 BYTE   EOT
 BYTE   TIE  As4
 BYTE   W96
// 204   ----------------------------------------
 BYTE   W48
 BYTE   EOT
 BYTE   N48  Fn4
 BYTE   W48
// 205   ----------------------------------------
 BYTE   TIE  Gn4
 BYTE   W96
// 206   ----------------------------------------
 BYTE   W96
// 207   ----------------------------------------
 BYTE   W96
// 208   ----------------------------------------
 BYTE   W96
// 209   ----------------------------------------
 BYTE   EOT
 BYTE   TIE  Fn4
 BYTE   W96
// 210   ----------------------------------------
 BYTE   W96
// 211   ----------------------------------------
 BYTE   EOT
 BYTE   TIE  Gn4
 BYTE   W96
// 212   ----------------------------------------
 BYTE   W96
// 213   ----------------------------------------
 BYTE   EOT
 BYTE   TIE
 BYTE   W96
// 214   ----------------------------------------
 BYTE   W96
// 215   ----------------------------------------
 BYTE   W96
// 216   ----------------------------------------
 BYTE   W96
// 217   ----------------------------------------
 BYTE   EOT
 BYTE   TIE  Fn4
 BYTE   W96
// 218   ----------------------------------------
 BYTE   W96
// 219   ----------------------------------------
 BYTE   EOT
 BYTE   TIE  Gn4
 BYTE   W96
// 220   ----------------------------------------
 BYTE   W96
// 221   ----------------------------------------
 BYTE   EOT
 BYTE   VOL   24*MarioTennisBreakPointPandan_mvl/mxv
 BYTE   W01
 BYTE   En5
 BYTE   W17
 BYTE   Ds5
 BYTE   W18
 BYTE   Dn5
 BYTE   W17
 BYTE   Cs5
 BYTE   W18
 BYTE   Cn5
 BYTE   W17
 BYTE   Bn4
 BYTE   W08
// 222   ----------------------------------------
 BYTE   W10
 BYTE   As4
 BYTE   W17
 BYTE   An4
 BYTE   W17
 BYTE   Gs4
 BYTE   W18
 BYTE   Gn4
 BYTE   W17
 BYTE   Fs4
 BYTE   W17
// 223   ----------------------------------------
 BYTE   W01
 BYTE   Fn4
 BYTE   W17
 BYTE   En4
 BYTE   W17
 BYTE   Ds4
 BYTE   W18
 BYTE   Dn4
 BYTE   W17
 BYTE   Cs4
 BYTE   W18
 BYTE   Cn4
 BYTE   W08
// 224   ----------------------------------------
 BYTE   W09
 BYTE   Bn3
 BYTE   W18
 BYTE   As3
 BYTE   W17
 BYTE   An3
 BYTE   W17
 BYTE   Gs3
 BYTE   W18
 BYTE   Gn3
 BYTE   W17
// 225   ----------------------------------------
 BYTE   Fs3
 BYTE   W18
 BYTE   Fn3
 BYTE   W17
 BYTE   En3
 BYTE   W18
 BYTE   Ds3
 BYTE   W17
 BYTE   Dn3
 BYTE   W17
 BYTE   Cs3
 BYTE   W09
// 226   ----------------------------------------
 BYTE   W09
 BYTE   Cn3
 BYTE   W17
 BYTE   Bn2
 BYTE   W18
 BYTE   As2
 BYTE   W17
 BYTE   An2
 BYTE   W17
 BYTE   Gs2
 BYTE   W18
// 227   ----------------------------------------
 BYTE   Gn2
 BYTE   W17
 BYTE   Fs2
 BYTE   W18
 BYTE   Fn2
 BYTE   W17
 BYTE   En2
 BYTE   W18
 BYTE   Ds2
 BYTE   W17
 BYTE   Dn2
 BYTE   W09
// 228   ----------------------------------------
 BYTE   W08
 BYTE   Cs2
 BYTE   W18
 BYTE   Cn2
 BYTE   W17
 BYTE   Bn1
 BYTE   W18
 BYTE   As1
 BYTE   W17
 BYTE   An1
 BYTE   W18
// 229   ----------------------------------------
 BYTE   Gs1
 BYTE   N96
 BYTE   W17
 BYTE   VOL   0*MarioTennisBreakPointPandan_mvl/mxv
 BYTE   W17
 BYTE   Fs1
 BYTE   W18
 BYTE   Fn1
 BYTE   W17
 BYTE   En1
 BYTE   W18
 BYTE   Ds1
 BYTE   W09
// 230   ----------------------------------------
 BYTE   N48  Fs4
 BYTE   W08
 BYTE   VOL   0*MarioTennisBreakPointPandan_mvl/mxv
 BYTE   W17
 BYTE   Cs1
 BYTE   W18
 BYTE   Cn1
 BYTE   W05
 BYTE   TIE  Dn4
 BYTE   W12
 BYTE   VOL   0*MarioTennisBreakPointPandan_mvl/mxv
 BYTE   W18
 BYTE   As0
 BYTE   W17
 BYTE   An0
 BYTE   W01
// 231   ----------------------------------------
 BYTE   W17
 BYTE   Gs0
 BYTE   W17
 BYTE   Gn0
 BYTE   W17
 BYTE   Fs0
 BYTE   W18
 BYTE   Fn0
 BYTE   W17
 BYTE   En0
 BYTE   W10
// 232   ----------------------------------------
 BYTE   EOT
 BYTE   N96  Cs4
 BYTE   W08
 BYTE   VOL   0*MarioTennisBreakPointPandan_mvl/mxv
 BYTE   W17
 BYTE   Dn0
 BYTE   W18
 BYTE   Cs0
 BYTE   W17
 BYTE   Cn0
 BYTE   W17
 BYTE   BnM1
 BYTE   W18
 BYTE   AsM1
 BYTE   W01
// 233   ----------------------------------------
 BYTE   N96  Cn4
 BYTE   W16
 BYTE   VOL   0*MarioTennisBreakPointPandan_mvl/mxv
 BYTE   W18
 BYTE   GsM1
 BYTE   W17
 BYTE   GnM1
 BYTE   W17
 BYTE   FsM1
 BYTE   W18
 BYTE   FnM1
 BYTE   W10
// 234   ----------------------------------------
 BYTE   N96  Dn4
 BYTE   W07
 BYTE   VOL   0*MarioTennisBreakPointPandan_mvl/mxv
 BYTE   W18
 BYTE   DsM1
 BYTE   W17
 BYTE   DnM1
 BYTE   W18
 BYTE   CsM1
 BYTE   W17
 BYTE   CnM1
 BYTE   W17
 BYTE   BnM2
 BYTE   W02
// 235   ----------------------------------------
 BYTE   TIE  En4
 BYTE   W16
 BYTE   VOL   0*MarioTennisBreakPointPandan_mvl/mxv
 BYTE   W17
 BYTE   AnM2
 BYTE   W18
 BYTE   GsM2
 BYTE   W17
 BYTE   GnM2
 BYTE   W17
 BYTE   FsM2
 BYTE   W11
// 236   ----------------------------------------
 BYTE   W07
 BYTE   FnM2
 BYTE   W17
 BYTE   EnM2
 BYTE   W18
 BYTE   DsM2
 BYTE   W17
 BYTE   DnM2
 BYTE   W18
 BYTE   CsM2
 BYTE   W19
// 237   ----------------------------------------
 BYTE   EOT
 BYTE   FINE

//**************** Track 7 (Midi-Chn.6) ****************//

MarioTennisBreakPointPandan_007:
// 000   ----------------------------------------
 BYTE   KEYSH   MarioTennisBreakPointPandan_key+0
 BYTE   VOICE   20
 BYTE   VOL   35*MarioTennisBreakPointPandan_mvl/mxv
 BYTE   N06  Cn1  v104
 BYTE   N06  As1
 BYTE   N06  Cs2
 BYTE   W24
 BYTE   Dn1
 BYTE   N06  As1
 BYTE   W24
 BYTE   Cn1
 BYTE   N06  As1
 BYTE   W12
 BYTE   Cn1
 BYTE   W12
 BYTE   Dn1
 BYTE   N06  As1
 BYTE   W24
// 001   ----------------------------------------
Label_6_0149B6DC:
 BYTE   N06  Cn1  v104
 BYTE   N06  As1
 BYTE   W24
 BYTE   Dn1
 BYTE   N06  As1
 BYTE   W24
 BYTE   Cn1
 BYTE   N06  As1
 BYTE   W12
 BYTE   Cn1
 BYTE   W12
 BYTE   Dn1
 BYTE   N06  As1
 BYTE   W24
 BYTE   PEND 
 BYTE   PATT
  POIN2 Label_6_0149B6DC
// 002   ----------------------------------------
Label_6_0149B6F6:
 BYTE   N06  Dn1  v104
 BYTE   N06  As1
 BYTE   W12
 BYTE   Cn1
 BYTE   W12
 BYTE   N06
 BYTE   N06  As1
 BYTE   W12
 BYTE   Dn1
 BYTE   W12
 BYTE   Cn1
 BYTE   N06  As1
 BYTE   W12
 BYTE   Cn1
 BYTE   W12
 BYTE   Dn1
 BYTE   N06  As1
 BYTE   W12
 BYTE   Dn1
 BYTE   W12
 BYTE   PEND 
 BYTE   PATT
  POIN2 Label_6_0149B6DC
 BYTE   PATT
  POIN2 Label_6_0149B6DC
 BYTE   PATT
  POIN2 Label_6_0149B6DC
// 003   ----------------------------------------
Label_6_0149B720:
 BYTE   N06  Cn1  v104
 BYTE   N06  As1
 BYTE   W24
 BYTE   Dn1
 BYTE   N06  As1
 BYTE   W24
 BYTE   Cn1
 BYTE   N06  As1
 BYTE   W12
 BYTE   Cn1
 BYTE   W12
 BYTE   Dn1
 BYTE   N06  As1
 BYTE   W12
 BYTE   Dn1
 BYTE   W12
 BYTE   PEND 
// 004   ----------------------------------------
Label_6_0149B737:
 BYTE   N06  Cn1  v104
 BYTE   N06  As1
 BYTE   N06  Cs2
 BYTE   W24
 BYTE   Dn1
 BYTE   N06  As1
 BYTE   W24
 BYTE   Cn1
 BYTE   N06  As1
 BYTE   W12
 BYTE   Cn1
 BYTE   W12
 BYTE   Dn1
 BYTE   N06  As1
 BYTE   W24
 BYTE   PEND 
 BYTE   PATT
  POIN2 Label_6_0149B6DC
// 005   ----------------------------------------
Label_6_0149B753:
 BYTE   N06  Cn1  v104
 BYTE   N06  As1
 BYTE   N06  Cs2
 BYTE   W24
 BYTE   Dn1
 BYTE   N06  As1
 BYTE   W12
 BYTE   Cs2
 BYTE   W12
 BYTE   Cn1
 BYTE   N06  As1
 BYTE   W12
 BYTE   Cn1
 BYTE   W12
 BYTE   Dn1
 BYTE   N06  As1
 BYTE   N06  Cs2
 BYTE   W24
 BYTE   PEND 
// 006   ----------------------------------------
Label_6_0149B76E:
 BYTE   N06  Dn1  v104
 BYTE   N06  As1
 BYTE   N06  Cs2
 BYTE   W12
 BYTE   Cn1
 BYTE   W12
 BYTE   N06
 BYTE   N06  As1
 BYTE   W12
 BYTE   Dn1
 BYTE   W12
 BYTE   Cn1
 BYTE   N06  As1
 BYTE   W12
 BYTE   Cn1
 BYTE   W12
 BYTE   Dn1
 BYTE   N06  As1
 BYTE   W12
 BYTE   Dn1
 BYTE   W12
 BYTE   PEND 
 BYTE   PATT
  POIN2 Label_6_0149B737
 BYTE   PATT
  POIN2 Label_6_0149B6DC
 BYTE   PATT
  POIN2 Label_6_0149B737
 BYTE   PATT
  POIN2 Label_6_0149B720
 BYTE   PATT
  POIN2 Label_6_0149B737
 BYTE   PATT
  POIN2 Label_6_0149B6DC
 BYTE   PATT
  POIN2 Label_6_0149B6DC
 BYTE   PATT
  POIN2 Label_6_0149B6F6
 BYTE   PATT
  POIN2 Label_6_0149B6DC
 BYTE   PATT
  POIN2 Label_6_0149B6DC
 BYTE   PATT
  POIN2 Label_6_0149B6DC
 BYTE   PATT
  POIN2 Label_6_0149B720
 BYTE   PATT
  POIN2 Label_6_0149B737
 BYTE   PATT
  POIN2 Label_6_0149B6DC
 BYTE   PATT
  POIN2 Label_6_0149B753
 BYTE   PATT
  POIN2 Label_6_0149B76E
 BYTE   PATT
  POIN2 Label_6_0149B737
 BYTE   PATT
  POIN2 Label_6_0149B6DC
 BYTE   PATT
  POIN2 Label_6_0149B737
 BYTE   PATT
  POIN2 Label_6_0149B720
 BYTE   PATT
  POIN2 Label_6_0149B737
 BYTE   PATT
  POIN2 Label_6_0149B6DC
 BYTE   PATT
  POIN2 Label_6_0149B6DC
 BYTE   PATT
  POIN2 Label_6_0149B720
 BYTE   PATT
  POIN2 Label_6_0149B737
 BYTE   PATT
  POIN2 Label_6_0149B6DC
 BYTE   PATT
  POIN2 Label_6_0149B737
// 007   ----------------------------------------
Label_6_0149B812:
 BYTE   N06  Cn1  v104
 BYTE   N06  As1
 BYTE   N06  Cs2
 BYTE   W24
 BYTE   Dn1
 BYTE   N06  As1
 BYTE   W24
 BYTE   Cn1
 BYTE   N06  As1
 BYTE   W12
 BYTE   Cn1
 BYTE   W12
 BYTE   Dn1
 BYTE   N06  As1
 BYTE   W12
 BYTE   Dn1
 BYTE   W12
 BYTE   PEND 
 BYTE   PATT
  POIN2 Label_6_0149B737
 BYTE   PATT
  POIN2 Label_6_0149B6DC
 BYTE   PATT
  POIN2 Label_6_0149B6DC
 BYTE   PATT
  POIN2 Label_6_0149B720
 BYTE   PATT
  POIN2 Label_6_0149B737
 BYTE   PATT
  POIN2 Label_6_0149B6DC
 BYTE   PATT
  POIN2 Label_6_0149B737
 BYTE   PATT
  POIN2 Label_6_0149B812
// 008   ----------------------------------------
Label_6_0149B853:
 BYTE   N06  Dn1  v104
 BYTE   N06  As1
 BYTE   N06  Cs2
 BYTE   W24
 BYTE   Cn1
 BYTE   W24
 BYTE   Dn1
 BYTE   N06  As1
 BYTE   W24
 BYTE   Cn1
 BYTE   W24
 BYTE   PEND 
// 009   ----------------------------------------
Label_6_0149B864:
 BYTE   N06  Dn1  v104
 BYTE   N06  As1
 BYTE   W24
 BYTE   Cn1
 BYTE   W24
 BYTE   Dn1
 BYTE   N06  As1
 BYTE   W24
 BYTE   Cn1
 BYTE   W24
 BYTE   PEND 
 BYTE   PATT
  POIN2 Label_6_0149B864
// 010   ----------------------------------------
Label_6_0149B878:
 BYTE   N06  Dn1  v104
 BYTE   N06  As1
 BYTE   W24
 BYTE   Cn1
 BYTE   W24
 BYTE   Dn1
 BYTE   N06  As1
 BYTE   W24
 BYTE   Dn1
 BYTE   W12
 BYTE   N06
 BYTE   W12
 BYTE   PEND 
 BYTE   PATT
  POIN2 Label_6_0149B737
 BYTE   PATT
  POIN2 Label_6_0149B6DC
// 011   ----------------------------------------
Label_6_0149B893:
 BYTE   N06  Cn1  v104
 BYTE   N06  As1
 BYTE   N06  Cs2
 BYTE   W24
 BYTE   Dn1
 BYTE   N06  As1
 BYTE   W24
 BYTE   Cn1
 BYTE   N06  As1
 BYTE   W12
 BYTE   Cn1
 BYTE   W12
 BYTE   Dn1
 BYTE   N06  As1
 BYTE   N06  An2
 BYTE   W24
 BYTE   PEND 
// 012   ----------------------------------------
Label_6_0149B8AC:
 BYTE   N06  Cn1  v104
 BYTE   N06  As1
 BYTE   N06  An2
 BYTE   W24
 BYTE   Dn1
 BYTE   N06  As1
 BYTE   W24
 BYTE   Cn1
 BYTE   N06  As1
 BYTE   W12
 BYTE   Cn1
 BYTE   W12
 BYTE   Dn1
 BYTE   N06  As1
 BYTE   W12
 BYTE   Dn1
 BYTE   W12
 BYTE   PEND 
 BYTE   PATT
  POIN2 Label_6_0149B853
 BYTE   PATT
  POIN2 Label_6_0149B864
 BYTE   PATT
  POIN2 Label_6_0149B864
 BYTE   PATT
  POIN2 Label_6_0149B878
 BYTE   PATT
  POIN2 Label_6_0149B737
 BYTE   PATT
  POIN2 Label_6_0149B6DC
 BYTE   PATT
  POIN2 Label_6_0149B893
 BYTE   PATT
  POIN2 Label_6_0149B8AC
 BYTE   PATT
  POIN2 Label_6_0149B737
 BYTE   PATT
  POIN2 Label_6_0149B6DC
 BYTE   PATT
  POIN2 Label_6_0149B6DC
// 013   ----------------------------------------
Label_6_0149B8FC:
 BYTE   N06  Dn1  v104
 BYTE   N06  Cs2
 BYTE   W12
 BYTE   Cn1
 BYTE   W12
 BYTE   N06
 BYTE   W12
 BYTE   Dn1
 BYTE   N06  Cs2
 BYTE   W12
 BYTE   Cn1
 BYTE   W12
 BYTE   N06
 BYTE   W12
 BYTE   Dn1
 BYTE   N06  Cs2
 BYTE   W12
 BYTE   Dn1
 BYTE   W12
 BYTE   PEND 
 BYTE   PATT
  POIN2 Label_6_0149B737
 BYTE   PATT
  POIN2 Label_6_0149B6DC
 BYTE   PATT
  POIN2 Label_6_0149B737
 BYTE   PATT
  POIN2 Label_6_0149B812
 BYTE   PATT
  POIN2 Label_6_0149B737
 BYTE   PATT
  POIN2 Label_6_0149B6DC
 BYTE   PATT
  POIN2 Label_6_0149B6DC
 BYTE   PATT
  POIN2 Label_6_0149B8FC
 BYTE   PATT
  POIN2 Label_6_0149B737
 BYTE   PATT
  POIN2 Label_6_0149B6DC
 BYTE   PATT
  POIN2 Label_6_0149B737
 BYTE   PATT
  POIN2 Label_6_0149B812
 BYTE   PATT
  POIN2 Label_6_0149B737
 BYTE   PATT
  POIN2 Label_6_0149B6DC
 BYTE   PATT
  POIN2 Label_6_0149B6DC
 BYTE   PATT
  POIN2 Label_6_0149B6F6
 BYTE   PATT
  POIN2 Label_6_0149B737
 BYTE   PATT
  POIN2 Label_6_0149B6DC
 BYTE   PATT
  POIN2 Label_6_0149B737
// 014   ----------------------------------------
Label_6_0149B974:
 BYTE   N06  Cn1  v104
 BYTE   N06  As1
 BYTE   N06  Cs2
 BYTE   W24
 BYTE   Dn1
 BYTE   N06  As1
 BYTE   W12
 BYTE   Cs2
 BYTE   W12
 BYTE   Cn1
 BYTE   N06  As1
 BYTE   W12
 BYTE   Cn1
 BYTE   W12
 BYTE   Dn1
 BYTE   N06  As1
 BYTE   N06  Cs2
 BYTE   W12
 BYTE   Dn1
 BYTE   W12
 BYTE   PEND 
 BYTE   PATT
  POIN2 Label_6_0149B737
 BYTE   PATT
  POIN2 Label_6_0149B6DC
 BYTE   PATT
  POIN2 Label_6_0149B6DC
 BYTE   PATT
  POIN2 Label_6_0149B6F6
 BYTE   PATT
  POIN2 Label_6_0149B737
 BYTE   PATT
  POIN2 Label_6_0149B6DC
 BYTE   PATT
  POIN2 Label_6_0149B737
 BYTE   PATT
  POIN2 Label_6_0149B974
 BYTE   PATT
  POIN2 Label_6_0149B853
 BYTE   PATT
  POIN2 Label_6_0149B864
 BYTE   PATT
  POIN2 Label_6_0149B864
 BYTE   PATT
  POIN2 Label_6_0149B864
 BYTE   PATT
  POIN2 Label_6_0149B737
 BYTE   PATT
  POIN2 Label_6_0149B720
 BYTE   PATT
  POIN2 Label_6_0149B6DC
 BYTE   PATT
  POIN2 Label_6_0149B6F6
 BYTE   PATT
  POIN2 Label_6_0149B737
 BYTE   PATT
  POIN2 Label_6_0149B6DC
 BYTE   PATT
  POIN2 Label_6_0149B6DC
 BYTE   PATT
  POIN2 Label_6_0149B720
 BYTE   PATT
  POIN2 Label_6_0149B6DC
 BYTE   PATT
  POIN2 Label_6_0149B6DC
 BYTE   PATT
  POIN2 Label_6_0149B737
// 015   ----------------------------------------
Label_6_0149BA04:
 BYTE   N06  Dn1  v104
 BYTE   N06  Cs2
 BYTE   W12
 BYTE   Cn1
 BYTE   W12
 BYTE   N06
 BYTE   W12
 BYTE   Dn1
 BYTE   N06  Cs2
 BYTE   W12
 BYTE   Cn1
 BYTE   W12
 BYTE   N06
 BYTE   W12
 BYTE   Dn1
 BYTE   N06  Cs2
 BYTE   W12
 BYTE   Cn1
 BYTE   W12
 BYTE   PEND 
// 016   ----------------------------------------
 BYTE   VOL   35*MarioTennisBreakPointPandan_mvl/mxv
 BYTE   N06
 BYTE   N06  As1
 BYTE   N06  Cs2
 BYTE   W24
 BYTE   Dn1
 BYTE   N06  As1
 BYTE   W24
 BYTE   Cn1
 BYTE   N06  As1
 BYTE   W12
 BYTE   Cn1
 BYTE   W12
 BYTE   Dn1
 BYTE   N06  As1
 BYTE   W24
 BYTE   PATT
  POIN2 Label_6_0149B6DC
 BYTE   PATT
  POIN2 Label_6_0149B6DC
 BYTE   PATT
  POIN2 Label_6_0149B6F6
 BYTE   PATT
  POIN2 Label_6_0149B6DC
 BYTE   PATT
  POIN2 Label_6_0149B6DC
 BYTE   PATT
  POIN2 Label_6_0149B6DC
 BYTE   PATT
  POIN2 Label_6_0149B720
 BYTE   PATT
  POIN2 Label_6_0149B737
 BYTE   PATT
  POIN2 Label_6_0149B6DC
 BYTE   PATT
  POIN2 Label_6_0149B753
 BYTE   PATT
  POIN2 Label_6_0149B76E
 BYTE   PATT
  POIN2 Label_6_0149B737
 BYTE   PATT
  POIN2 Label_6_0149B6DC
 BYTE   PATT
  POIN2 Label_6_0149B737
 BYTE   PATT
  POIN2 Label_6_0149B720
 BYTE   PATT
  POIN2 Label_6_0149B737
 BYTE   PATT
  POIN2 Label_6_0149B6DC
 BYTE   PATT
  POIN2 Label_6_0149B6DC
 BYTE   PATT
  POIN2 Label_6_0149B6F6
 BYTE   PATT
  POIN2 Label_6_0149B6DC
 BYTE   PATT
  POIN2 Label_6_0149B6DC
 BYTE   PATT
  POIN2 Label_6_0149B6DC
 BYTE   PATT
  POIN2 Label_6_0149B720
 BYTE   PATT
  POIN2 Label_6_0149B737
 BYTE   PATT
  POIN2 Label_6_0149B6DC
 BYTE   PATT
  POIN2 Label_6_0149B753
 BYTE   PATT
  POIN2 Label_6_0149B76E
 BYTE   PATT
  POIN2 Label_6_0149B737
 BYTE   PATT
  POIN2 Label_6_0149B6DC
 BYTE   PATT
  POIN2 Label_6_0149B737
 BYTE   PATT
  POIN2 Label_6_0149B720
 BYTE   PATT
  POIN2 Label_6_0149B737
 BYTE   PATT
  POIN2 Label_6_0149B6DC
 BYTE   PATT
  POIN2 Label_6_0149B6DC
 BYTE   PATT
  POIN2 Label_6_0149B720
 BYTE   PATT
  POIN2 Label_6_0149B737
 BYTE   PATT
  POIN2 Label_6_0149B6DC
 BYTE   PATT
  POIN2 Label_6_0149B737
 BYTE   PATT
  POIN2 Label_6_0149B812
 BYTE   PATT
  POIN2 Label_6_0149B737
 BYTE   PATT
  POIN2 Label_6_0149B6DC
 BYTE   PATT
  POIN2 Label_6_0149B6DC
 BYTE   PATT
  POIN2 Label_6_0149B720
 BYTE   PATT
  POIN2 Label_6_0149B737
 BYTE   PATT
  POIN2 Label_6_0149B6DC
 BYTE   PATT
  POIN2 Label_6_0149B737
 BYTE   PATT
  POIN2 Label_6_0149B812
 BYTE   PATT
  POIN2 Label_6_0149B853
 BYTE   PATT
  POIN2 Label_6_0149B864
 BYTE   PATT
  POIN2 Label_6_0149B864
 BYTE   PATT
  POIN2 Label_6_0149B878
 BYTE   PATT
  POIN2 Label_6_0149B737
 BYTE   PATT
  POIN2 Label_6_0149B6DC
 BYTE   PATT
  POIN2 Label_6_0149B893
 BYTE   PATT
  POIN2 Label_6_0149B8AC
 BYTE   PATT
  POIN2 Label_6_0149B853
 BYTE   PATT
  POIN2 Label_6_0149B864
 BYTE   PATT
  POIN2 Label_6_0149B864
 BYTE   PATT
  POIN2 Label_6_0149B878
 BYTE   PATT
  POIN2 Label_6_0149B737
 BYTE   PATT
  POIN2 Label_6_0149B6DC
 BYTE   PATT
  POIN2 Label_6_0149B893
 BYTE   PATT
  POIN2 Label_6_0149B8AC
 BYTE   PATT
  POIN2 Label_6_0149B737
 BYTE   PATT
  POIN2 Label_6_0149B6DC
 BYTE   PATT
  POIN2 Label_6_0149B6DC
 BYTE   PATT
  POIN2 Label_6_0149B8FC
 BYTE   PATT
  POIN2 Label_6_0149B737
 BYTE   PATT
  POIN2 Label_6_0149B6DC
 BYTE   PATT
  POIN2 Label_6_0149B737
 BYTE   PATT
  POIN2 Label_6_0149B812
 BYTE   PATT
  POIN2 Label_6_0149B737
 BYTE   PATT
  POIN2 Label_6_0149B6DC
 BYTE   PATT
  POIN2 Label_6_0149B6DC
 BYTE   PATT
  POIN2 Label_6_0149B8FC
 BYTE   PATT
  POIN2 Label_6_0149B737
 BYTE   PATT
  POIN2 Label_6_0149B6DC
 BYTE   PATT
  POIN2 Label_6_0149B737
 BYTE   PATT
  POIN2 Label_6_0149B812
 BYTE   PATT
  POIN2 Label_6_0149B737
 BYTE   PATT
  POIN2 Label_6_0149B6DC
 BYTE   PATT
  POIN2 Label_6_0149B6DC
 BYTE   PATT
  POIN2 Label_6_0149B6F6
 BYTE   PATT
  POIN2 Label_6_0149B737
 BYTE   PATT
  POIN2 Label_6_0149B6DC
 BYTE   PATT
  POIN2 Label_6_0149B737
 BYTE   PATT
  POIN2 Label_6_0149B974
 BYTE   PATT
  POIN2 Label_6_0149B737
 BYTE   PATT
  POIN2 Label_6_0149B6DC
 BYTE   PATT
  POIN2 Label_6_0149B6DC
 BYTE   PATT
  POIN2 Label_6_0149B6F6
 BYTE   PATT
  POIN2 Label_6_0149B737
 BYTE   PATT
  POIN2 Label_6_0149B6DC
 BYTE   PATT
  POIN2 Label_6_0149B737
 BYTE   PATT
  POIN2 Label_6_0149B974
 BYTE   PATT
  POIN2 Label_6_0149B853
 BYTE   PATT
  POIN2 Label_6_0149B864
 BYTE   PATT
  POIN2 Label_6_0149B864
 BYTE   PATT
  POIN2 Label_6_0149B864
 BYTE   PATT
  POIN2 Label_6_0149B737
 BYTE   PATT
  POIN2 Label_6_0149B720
 BYTE   PATT
  POIN2 Label_6_0149B6DC
 BYTE   PATT
  POIN2 Label_6_0149B6F6
 BYTE   PATT
  POIN2 Label_6_0149B737
 BYTE   PATT
  POIN2 Label_6_0149B6DC
 BYTE   PATT
  POIN2 Label_6_0149B6DC
 BYTE   PATT
  POIN2 Label_6_0149B720
 BYTE   PATT
  POIN2 Label_6_0149B6DC
 BYTE   PATT
  POIN2 Label_6_0149B6DC
 BYTE   PATT
  POIN2 Label_6_0149B737
 BYTE   PATT
  POIN2 Label_6_0149BA04
// 017   ----------------------------------------
 BYTE   VOL   34*MarioTennisBreakPointPandan_mvl/mxv
 BYTE   N06  Cn1  v104
 BYTE   N06  As1
 BYTE   N06  Cs2
 BYTE   W15
 BYTE   VOL   33*MarioTennisBreakPointPandan_mvl/mxv
 BYTE   W09
 BYTE   N06  Dn1
 BYTE   N06  As1
 BYTE   W06
 BYTE   VOL   32*MarioTennisBreakPointPandan_mvl/mxv
 BYTE   W16
 BYTE   Cn6
 BYTE   W02
 BYTE   N06  Cn1
 BYTE   N06  As1
 BYTE   W12
 BYTE   Cn1
 BYTE   W01
 BYTE   VOL   30*MarioTennisBreakPointPandan_mvl/mxv
 BYTE   W11
 BYTE   N06  Dn1
 BYTE   N06  As1
 BYTE   W05
 BYTE   VOL   29*MarioTennisBreakPointPandan_mvl/mxv
 BYTE   W15
 BYTE   An5
 BYTE   W04
// 018   ----------------------------------------
 BYTE   N06  Cn1
 BYTE   N06  As1
 BYTE   W12
 BYTE   VOL   27*MarioTennisBreakPointPandan_mvl/mxv
 BYTE   W12
 BYTE   N06  Dn1
 BYTE   N06  As1
 BYTE   W03
 BYTE   VOL   26*MarioTennisBreakPointPandan_mvl/mxv
 BYTE   W16
 BYTE   Fs5
 BYTE   W05
 BYTE   N06  Cn1
 BYTE   N06  As1
 BYTE   W10
 BYTE   VOL   24*MarioTennisBreakPointPandan_mvl/mxv
 BYTE   W02
 BYTE   N06  Cn1
 BYTE   W12
 BYTE   Dn1
 BYTE   N06  As1
 BYTE   W02
 BYTE   VOL   23*MarioTennisBreakPointPandan_mvl/mxv
 BYTE   W15
 BYTE   Ds5
 BYTE   W07
// 019   ----------------------------------------
 BYTE   N06  Cn1
 BYTE   N06  As1
 BYTE   W09
 BYTE   VOL   21*MarioTennisBreakPointPandan_mvl/mxv
 BYTE   W15
 BYTE   Cs5
 BYTE   N06  Dn1
 BYTE   N06  As1
 BYTE   W16
 BYTE   VOL   19*MarioTennisBreakPointPandan_mvl/mxv
 BYTE   W08
 BYTE   N06  Cn1
 BYTE   N06  As1
 BYTE   W07
 BYTE   VOL   18*MarioTennisBreakPointPandan_mvl/mxv
 BYTE   W05
 BYTE   N06  Cn1
 BYTE   W10
 BYTE   VOL   17*MarioTennisBreakPointPandan_mvl/mxv
 BYTE   W02
 BYTE   N06  Dn1
 BYTE   N06  As1
 BYTE   W14
 BYTE   VOL   16*MarioTennisBreakPointPandan_mvl/mxv
 BYTE   W10
// 020   ----------------------------------------
 BYTE   N06  Dn1
 BYTE   N06  As1
 BYTE   W05
 BYTE   VOL   15*MarioTennisBreakPointPandan_mvl/mxv
 BYTE   W07
 BYTE   N06  Cn1
 BYTE   W09
 BYTE   VOL   14*MarioTennisBreakPointPandan_mvl/mxv
 BYTE   W03
 BYTE   N06
 BYTE   N06  As1
 BYTE   W12
 BYTE   VOL   13*MarioTennisBreakPointPandan_mvl/mxv
 BYTE   N06  Dn1
 BYTE   W12
 BYTE   Cn1
 BYTE   N06  As1
 BYTE   W04
 BYTE   VOL   12*MarioTennisBreakPointPandan_mvl/mxv
 BYTE   W08
 BYTE   N06  Cn1
 BYTE   W07
 BYTE   VOL   11*MarioTennisBreakPointPandan_mvl/mxv
 BYTE   W05
 BYTE   N06  Dn1
 BYTE   N06  As1
 BYTE   W11
 BYTE   VOL   10*MarioTennisBreakPointPandan_mvl/mxv
 BYTE   W01
 BYTE   N06  Dn1
 BYTE   W12
// 021   ----------------------------------------
 BYTE   Cn1
 BYTE   N06  As1
 BYTE   W02
 BYTE   VOL   9*MarioTennisBreakPointPandan_mvl/mxv
 BYTE   W16
 BYTE   Cs4
 BYTE   W06
 BYTE   N06  Dn1
 BYTE   N06  As1
 BYTE   W09
 BYTE   VOL   7*MarioTennisBreakPointPandan_mvl/mxv
 BYTE   W15
 BYTE   N06  Cn1
 BYTE   N06  As1
 BYTE   W01
 BYTE   VOL   6*MarioTennisBreakPointPandan_mvl/mxv
 BYTE   W11
 BYTE   N06  Cn1
 BYTE   W04
 BYTE   VOL   5*MarioTennisBreakPointPandan_mvl/mxv
 BYTE   W08
 BYTE   N06  Dn1
 BYTE   N06  As1
 BYTE   W08
 BYTE   VOL   4*MarioTennisBreakPointPandan_mvl/mxv
 BYTE   W15
 BYTE   Gs3
 BYTE   W01
// 022   ----------------------------------------
 BYTE   N06  Cn1
 BYTE   N06  As1
 BYTE   W15
 BYTE   VOL   2*MarioTennisBreakPointPandan_mvl/mxv
 BYTE   W09
 BYTE   N06  Dn1
 BYTE   N06  As1
 BYTE   W06
 BYTE   VOL   1*MarioTennisBreakPointPandan_mvl/mxv
 BYTE   W15
 BYTE   Fn3
 BYTE   W03
 BYTE   N06  Cn1
 BYTE   N06  As1
 BYTE   W12
 BYTE   Cn1
 BYTE   W01
 BYTE   VOL   0*MarioTennisBreakPointPandan_mvl/mxv
 BYTE   W11
 BYTE   N06  Dn1
 BYTE   N06  As1
 BYTE   W04
 BYTE   VOL   0*MarioTennisBreakPointPandan_mvl/mxv
 BYTE   W16
 BYTE   Dn3
 BYTE   W04
// 023   ----------------------------------------
 BYTE   N06  Cn1
 BYTE   N06  As1
 BYTE   W11
 BYTE   VOL   0*MarioTennisBreakPointPandan_mvl/mxv
 BYTE   W13
 BYTE   N06  Dn1
 BYTE   N06  As1
 BYTE   W03
 BYTE   VOL   0*MarioTennisBreakPointPandan_mvl/mxv
 BYTE   W15
 BYTE   Bn2
 BYTE   W06
 BYTE   N06  Cn1
 BYTE   N06  As1
 BYTE   W10
 BYTE   VOL   0*MarioTennisBreakPointPandan_mvl/mxv
 BYTE   W02
 BYTE   N06  Cn1
 BYTE   W12
 BYTE   Dn1
 BYTE   N06  As1
 BYTE   W01
 BYTE   VOL   0*MarioTennisBreakPointPandan_mvl/mxv
 BYTE   W16
 BYTE   Gs2
 BYTE   W07
// 024   ----------------------------------------
 BYTE   N06  Cn1
 BYTE   N06  As1
 BYTE   W08
 BYTE   VOL   0*MarioTennisBreakPointPandan_mvl/mxv
 BYTE   W16
 BYTE   Fs2
 BYTE   N06  Dn1
 BYTE   N06  As1
 BYTE   W15
 BYTE   VOL   0*MarioTennisBreakPointPandan_mvl/mxv
 BYTE   W09
 BYTE   N06  Cn1
 BYTE   N06  As1
 BYTE   W07
 BYTE   VOL   0*MarioTennisBreakPointPandan_mvl/mxv
 BYTE   W05
 BYTE   N06  Cn1
 BYTE   W10
 BYTE   VOL   0*MarioTennisBreakPointPandan_mvl/mxv
 BYTE   W02
 BYTE   N06  Dn1
 BYTE   N06  As1
 BYTE   W12
 BYTE   Dn1
 BYTE   W02
 BYTE   VOL   0*MarioTennisBreakPointPandan_mvl/mxv
 BYTE   W10
// 025   ----------------------------------------
 BYTE   N06  Cn1
 BYTE   N06  As1
 BYTE   N06  Cs2
 BYTE   W05
 BYTE   VOL   0*MarioTennisBreakPointPandan_mvl/mxv
 BYTE   W15
 BYTE   Cn2
 BYTE   W04
 BYTE   N06  Dn1
 BYTE   N06  As1
 BYTE   W12
 BYTE   VOL   0*MarioTennisBreakPointPandan_mvl/mxv
 BYTE   W12
 BYTE   N06  Cn1
 BYTE   N06  As1
 BYTE   W03
 BYTE   VOL   0*MarioTennisBreakPointPandan_mvl/mxv
 BYTE   W09
 BYTE   N06  Cn1
 BYTE   W07
 BYTE   VOL   0*MarioTennisBreakPointPandan_mvl/mxv
 BYTE   W05
 BYTE   N06  Dn1
 BYTE   N06  As1
 BYTE   W10
 BYTE   VOL   0*MarioTennisBreakPointPandan_mvl/mxv
 BYTE   W14
// 026   ----------------------------------------
 BYTE   N06  Cn1
 BYTE   N06  As1
 BYTE   W02
 BYTE   VOL   0*MarioTennisBreakPointPandan_mvl/mxv
 BYTE   W15
 BYTE   Fs1
 BYTE   W07
 BYTE   N06  Dn1
 BYTE   N06  As1
 BYTE   W09
 BYTE   VOL   0*MarioTennisBreakPointPandan_mvl/mxv
 BYTE   W15
 BYTE   En1
 BYTE   N06  Cn1
 BYTE   N06  As1
 BYTE   W12
 BYTE   Cn1
 BYTE   W04
 BYTE   VOL   0*MarioTennisBreakPointPandan_mvl/mxv
 BYTE   W08
 BYTE   N06  Dn1
 BYTE   N06  As1
 BYTE   W07
 BYTE   VOL   0*MarioTennisBreakPointPandan_mvl/mxv
 BYTE   W16
 BYTE   Cs1
 BYTE   W01
// 027   ----------------------------------------
 BYTE   N06  Cn1
 BYTE   N06  As1
 BYTE   N06  Cs2
 BYTE   W14
 BYTE   VOL   0*MarioTennisBreakPointPandan_mvl/mxv
 BYTE   W10
 BYTE   N06  Dn1
 BYTE   N06  As1
 BYTE   W06
 BYTE   VOL   0*MarioTennisBreakPointPandan_mvl/mxv
 BYTE   W06
 BYTE   N06  Cs2
 BYTE   W09
 BYTE   VOL   0*MarioTennisBreakPointPandan_mvl/mxv
 BYTE   W03
 BYTE   N06  Cn1
 BYTE   N06  As1
 BYTE   W12
 BYTE   Cn1
 BYTE   W01
 BYTE   VOL   0*MarioTennisBreakPointPandan_mvl/mxv
 BYTE   W11
 BYTE   N06  Dn1
 BYTE   N06  As1
 BYTE   N06  Cs2
 BYTE   W04
 BYTE   VOL   0*MarioTennisBreakPointPandan_mvl/mxv
 BYTE   W15
 BYTE   Gn0
 BYTE   W05
// 028   ----------------------------------------
 BYTE   N06  Dn1
 BYTE   N06  As1
 BYTE   N06  Cs2
 BYTE   W11
 BYTE   VOL   0*MarioTennisBreakPointPandan_mvl/mxv
 BYTE   W01
 BYTE   N06  Cn1
 BYTE   W12
 BYTE   N06
 BYTE   N06  As1
 BYTE   W02
 BYTE   VOL   0*MarioTennisBreakPointPandan_mvl/mxv
 BYTE   W10
 BYTE   N06  Dn1
 BYTE   W06
 BYTE   VOL   0*MarioTennisBreakPointPandan_mvl/mxv
 BYTE   W06
 BYTE   N06  Cn1
 BYTE   N06  As1
 BYTE   W09
 BYTE   VOL   0*MarioTennisBreakPointPandan_mvl/mxv
 BYTE   W03
 BYTE   N06  Cn1
 BYTE   W12
 BYTE   Dn1
 BYTE   N06  As1
 BYTE   W01
 BYTE   VOL   0*MarioTennisBreakPointPandan_mvl/mxv
 BYTE   W11
 BYTE   N06  Dn1
 BYTE   W04
 BYTE   VOL   0*MarioTennisBreakPointPandan_mvl/mxv
 BYTE   W08
// 029   ----------------------------------------
 BYTE   N06  Cn1
 BYTE   N06  As1
 BYTE   N06  Cs2
 BYTE   W08
 BYTE   VOL   0*MarioTennisBreakPointPandan_mvl/mxv
 BYTE   W15
 BYTE   BnM1
 BYTE   W01
 BYTE   N06  Dn1
 BYTE   N06  As1
 BYTE   W15
 BYTE   VOL   0*MarioTennisBreakPointPandan_mvl/mxv
 BYTE   W09
 BYTE   N06  Cn1
 BYTE   N06  As1
 BYTE   W06
 BYTE   VOL   0*MarioTennisBreakPointPandan_mvl/mxv
 BYTE   W06
 BYTE   N06  Cn1
 BYTE   W10
 BYTE   VOL   0*MarioTennisBreakPointPandan_mvl/mxv
 BYTE   W02
 BYTE   N06  Dn1
 BYTE   N06  As1
 BYTE   W13
 BYTE   VOL   0*MarioTennisBreakPointPandan_mvl/mxv
 BYTE   W11
// 030   ----------------------------------------
 BYTE   N06  Cn1
 BYTE   N06  As1
 BYTE   W05
 BYTE   VOL   0*MarioTennisBreakPointPandan_mvl/mxv
 BYTE   W15
 BYTE   FnM1
 BYTE   W04
 BYTE   N06  Dn1
 BYTE   N06  As1
 BYTE   W11
 BYTE   VOL   0*MarioTennisBreakPointPandan_mvl/mxv
 BYTE   W13
 BYTE   N06  Cn1
 BYTE   N06  As1
 BYTE   W03
 BYTE   VOL   0*MarioTennisBreakPointPandan_mvl/mxv
 BYTE   W09
 BYTE   N06  Cn1
 BYTE   W06
 BYTE   VOL   0*MarioTennisBreakPointPandan_mvl/mxv
 BYTE   W06
 BYTE   N06  Dn1
 BYTE   N06  As1
 BYTE   W10
 BYTE   VOL   0*MarioTennisBreakPointPandan_mvl/mxv
 BYTE   W14
// 031   ----------------------------------------
 BYTE   N06  Cn1
 BYTE   N06  As1
 BYTE   N06  Cs2
 BYTE   W01
 BYTE   VOL   0*MarioTennisBreakPointPandan_mvl/mxv
 BYTE   W16
 BYTE   BnM2
 BYTE   W07
 BYTE   N06  Dn1
 BYTE   N06  As1
 BYTE   W08
 BYTE   VOL   0*MarioTennisBreakPointPandan_mvl/mxv
 BYTE   W16
 BYTE   AnM2
 BYTE   N06  Cn1
 BYTE   N06  As1
 BYTE   W12
 BYTE   Cn1
 BYTE   W03
 BYTE   VOL   0*MarioTennisBreakPointPandan_mvl/mxv
 BYTE   W09
 BYTE   N06  Dn1
 BYTE   N06  As1
 BYTE   W07
 BYTE   VOL   0*MarioTennisBreakPointPandan_mvl/mxv
 BYTE   W15
 BYTE   FsM2
 BYTE   W02
// 032   ----------------------------------------
 BYTE   N06  Cn1
 BYTE   N06  As1
 BYTE   W14
 BYTE   VOL   0*MarioTennisBreakPointPandan_mvl/mxv
 BYTE   W10
 BYTE   N06  Dn1
 BYTE   N06  As1
 BYTE   W05
 BYTE   VOL   0*MarioTennisBreakPointPandan_mvl/mxv
 BYTE   W16
 BYTE   DsM2
 BYTE   W03
 BYTE   N06  Cn1
 BYTE   N06  As1
 BYTE   W12
 BYTE   VOL   0*MarioTennisBreakPointPandan_mvl/mxv
 BYTE   N06  Cn1
 BYTE   W12
 BYTE   Dn1
 BYTE   N06  As1
 BYTE   W04
 BYTE   VOL   0*MarioTennisBreakPointPandan_mvl/mxv
 BYTE   W08
 BYTE   N06  Dn1
 BYTE   W12
 BYTE   FINE

//**************** Track 8 (Midi-Chn.7) ****************//

MarioTennisBreakPointPandan_008:
// 000   ----------------------------------------
 BYTE   KEYSH   MarioTennisBreakPointPandan_key+0
 BYTE   VOICE   40
 BYTE   VOL   50*MarioTennisBreakPointPandan_mvl/mxv
 BYTE   PAN   c_v+7
 BYTE   W96
// 001   ----------------------------------------
 BYTE   W96
// 002   ----------------------------------------
 BYTE   W96
// 003   ----------------------------------------
 BYTE   W96
// 004   ----------------------------------------
 BYTE   W96
// 005   ----------------------------------------
 BYTE   W96
// 006   ----------------------------------------
 BYTE   W96
// 007   ----------------------------------------
 BYTE   W96
// 008   ----------------------------------------
 BYTE   W96
// 009   ----------------------------------------
 BYTE   W96
// 010   ----------------------------------------
 BYTE   W96
// 011   ----------------------------------------
 BYTE   W96
// 012   ----------------------------------------
 BYTE   W96
// 013   ----------------------------------------
 BYTE   W96
// 014   ----------------------------------------
 BYTE   W96
// 015   ----------------------------------------
 BYTE   W96
// 016   ----------------------------------------
 BYTE   W96
// 017   ----------------------------------------
 BYTE   W96
// 018   ----------------------------------------
 BYTE   W96
// 019   ----------------------------------------
 BYTE   W96
// 020   ----------------------------------------
 BYTE   W96
// 021   ----------------------------------------
 BYTE   W96
// 022   ----------------------------------------
 BYTE   W96
// 023   ----------------------------------------
 BYTE   W96
// 024   ----------------------------------------
 BYTE   W96
// 025   ----------------------------------------
 BYTE   W96
// 026   ----------------------------------------
 BYTE   W96
// 027   ----------------------------------------
 BYTE   W96
// 028   ----------------------------------------
 BYTE   W96
// 029   ----------------------------------------
 BYTE   W96
// 030   ----------------------------------------
 BYTE   W96
// 031   ----------------------------------------
 BYTE   W96
// 032   ----------------------------------------
Label_7_0149BF20:
 BYTE   N36  En3  v104
 BYTE   N36  Gn3
 BYTE   W36
 BYTE   Dn3
 BYTE   N36  Fs3
 BYTE   W36
 BYTE   N24  En3
 BYTE   N24  Gn3
 BYTE   W24
 BYTE   PEND 
// 033   ----------------------------------------
Label_7_0149BF30:
 BYTE   N36  Fs3  v104
 BYTE   N36  An3
 BYTE   W36
 BYTE   Gn3
 BYTE   N36  Bn3
 BYTE   W36
 BYTE   N24  An3
 BYTE   N24  Cn4
 BYTE   W24
 BYTE   PEND 
// 034   ----------------------------------------
Label_7_0149BF40:
 BYTE   TIE  Gn3  v104
 BYTE   TIE  Bn3
 BYTE   W96
 BYTE   PEND 
// 035   ----------------------------------------
 BYTE   W96
// 036   ----------------------------------------
 BYTE   EOT
 BYTE   Gn3  v071
 BYTE   PATT
  POIN2 Label_7_0149BF20
 BYTE   PATT
  POIN2 Label_7_0149BF30
// 037   ----------------------------------------
 BYTE   N96  Bn3  v104
 BYTE   N96  En4
 BYTE   W96
// 038   ----------------------------------------
 BYTE   Bn3
 BYTE   N96  Ds4
 BYTE   W96
 BYTE   PATT
  POIN2 Label_7_0149BF20
 BYTE   PATT
  POIN2 Label_7_0149BF30
 BYTE   PATT
  POIN2 Label_7_0149BF40
// 039   ----------------------------------------
 BYTE   W96
// 040   ----------------------------------------
 BYTE   EOT
 BYTE   Gn3  v071
Label_7_0149BF72:
 BYTE   N36  Cn3  v104
 BYTE   N36  En3
 BYTE   W36
 BYTE   Dn3
 BYTE   N36  Fs3
 BYTE   W36
 BYTE   N24  En3
 BYTE   N24  Gn3
 BYTE   W24
 BYTE   PEND 
// 041   ----------------------------------------
Label_7_0149BF82:
 BYTE   N36  Dn3  v104
 BYTE   N36  Fs3
 BYTE   W36
 BYTE   En3
 BYTE   N36  Gn3
 BYTE   W36
 BYTE   N24  Fs3
 BYTE   N24  An3
 BYTE   W24
 BYTE   PEND 
// 042   ----------------------------------------
Label_7_0149BF92:
 BYTE   N36  Ds3  v104
 BYTE   N36  Gn3
 BYTE   W36
 BYTE   Fn3
 BYTE   N36  An3
 BYTE   W36
 BYTE   N24  Gn3
 BYTE   N24  As3
 BYTE   W24
 BYTE   PEND 
// 043   ----------------------------------------
Label_7_0149BFA2:
 BYTE   N36  Fn3  v104
 BYTE   N36  An3
 BYTE   W36
 BYTE   Gn3
 BYTE   N36  As3
 BYTE   W36
 BYTE   N24  An3
 BYTE   N24  Cn4
 BYTE   W24
 BYTE   PEND 
// 044   ----------------------------------------
 BYTE   W96
// 045   ----------------------------------------
 BYTE   W96
// 046   ----------------------------------------
 BYTE   W96
// 047   ----------------------------------------
 BYTE   W96
// 048   ----------------------------------------
 BYTE   W96
// 049   ----------------------------------------
 BYTE   W96
// 050   ----------------------------------------
 BYTE   W96
// 051   ----------------------------------------
 BYTE   W96
// 052   ----------------------------------------
 BYTE   W96
// 053   ----------------------------------------
 BYTE   W96
// 054   ----------------------------------------
 BYTE   W96
// 055   ----------------------------------------
 BYTE   W96
// 056   ----------------------------------------
 BYTE   W96
// 057   ----------------------------------------
 BYTE   W96
// 058   ----------------------------------------
 BYTE   W96
// 059   ----------------------------------------
 BYTE   W96
// 060   ----------------------------------------
 BYTE   W96
// 061   ----------------------------------------
 BYTE   W96
// 062   ----------------------------------------
 BYTE   W96
// 063   ----------------------------------------
 BYTE   W96
// 064   ----------------------------------------
 BYTE   W96
// 065   ----------------------------------------
 BYTE   W96
// 066   ----------------------------------------
 BYTE   W96
// 067   ----------------------------------------
 BYTE   W96
// 068   ----------------------------------------
 BYTE   W96
// 069   ----------------------------------------
 BYTE   W96
// 070   ----------------------------------------
 BYTE   W96
// 071   ----------------------------------------
 BYTE   W96
// 072   ----------------------------------------
 BYTE   W96
// 073   ----------------------------------------
 BYTE   W96
// 074   ----------------------------------------
 BYTE   W96
// 075   ----------------------------------------
 BYTE   W96
// 076   ----------------------------------------
 BYTE   W96
// 077   ----------------------------------------
 BYTE   W96
// 078   ----------------------------------------
 BYTE   W96
// 079   ----------------------------------------
 BYTE   W96
// 080   ----------------------------------------
 BYTE   W96
// 081   ----------------------------------------
 BYTE   W96
// 082   ----------------------------------------
 BYTE   W96
// 083   ----------------------------------------
 BYTE   W96
// 084   ----------------------------------------
 BYTE   W96
// 085   ----------------------------------------
 BYTE   W96
// 086   ----------------------------------------
 BYTE   W96
// 087   ----------------------------------------
 BYTE   W96
// 088   ----------------------------------------
 BYTE   W96
// 089   ----------------------------------------
 BYTE   W96
// 090   ----------------------------------------
 BYTE   W96
// 091   ----------------------------------------
 BYTE   W96
// 092   ----------------------------------------
 BYTE   W96
// 093   ----------------------------------------
 BYTE   W96
// 094   ----------------------------------------
 BYTE   W96
// 095   ----------------------------------------
 BYTE   W96
// 096   ----------------------------------------
 BYTE   W96
// 097   ----------------------------------------
 BYTE   W96
// 098   ----------------------------------------
 BYTE   W96
// 099   ----------------------------------------
 BYTE   W96
// 100   ----------------------------------------
 BYTE   W96
// 101   ----------------------------------------
 BYTE   W96
// 102   ----------------------------------------
 BYTE   W96
// 103   ----------------------------------------
 BYTE   W96
// 104   ----------------------------------------
 BYTE   W96
// 105   ----------------------------------------
 BYTE   W96
// 106   ----------------------------------------
 BYTE   W96
// 107   ----------------------------------------
 BYTE   W96
// 108   ----------------------------------------
 BYTE   VOL   50*MarioTennisBreakPointPandan_mvl/mxv
 BYTE   PAN   c_v+7
 BYTE   W96
// 109   ----------------------------------------
 BYTE   W96
// 110   ----------------------------------------
 BYTE   W96
// 111   ----------------------------------------
 BYTE   W96
// 112   ----------------------------------------
 BYTE   W96
// 113   ----------------------------------------
 BYTE   W96
// 114   ----------------------------------------
 BYTE   W96
// 115   ----------------------------------------
 BYTE   W96
// 116   ----------------------------------------
 BYTE   W96
// 117   ----------------------------------------
 BYTE   W96
// 118   ----------------------------------------
 BYTE   W96
// 119   ----------------------------------------
 BYTE   W96
// 120   ----------------------------------------
 BYTE   W96
// 121   ----------------------------------------
 BYTE   W96
// 122   ----------------------------------------
 BYTE   W96
// 123   ----------------------------------------
 BYTE   W96
// 124   ----------------------------------------
 BYTE   W96
// 125   ----------------------------------------
 BYTE   W96
// 126   ----------------------------------------
 BYTE   W96
// 127   ----------------------------------------
 BYTE   W96
// 128   ----------------------------------------
 BYTE   W96
// 129   ----------------------------------------
 BYTE   W96
// 130   ----------------------------------------
 BYTE   W96
// 131   ----------------------------------------
 BYTE   W96
// 132   ----------------------------------------
 BYTE   W96
// 133   ----------------------------------------
 BYTE   W96
// 134   ----------------------------------------
 BYTE   W96
// 135   ----------------------------------------
 BYTE   W96
// 136   ----------------------------------------
 BYTE   W96
// 137   ----------------------------------------
 BYTE   W96
// 138   ----------------------------------------
 BYTE   W96
// 139   ----------------------------------------
 BYTE   W96
 BYTE   PATT
  POIN2 Label_7_0149BF20
 BYTE   PATT
  POIN2 Label_7_0149BF30
 BYTE   PATT
  POIN2 Label_7_0149BF40
// 140   ----------------------------------------
 BYTE   W96
// 141   ----------------------------------------
 BYTE   EOT
 BYTE   Gn3  v071
 BYTE   PATT
  POIN2 Label_7_0149BF20
 BYTE   PATT
  POIN2 Label_7_0149BF30
// 142   ----------------------------------------
 BYTE   N96  Bn3  v104
 BYTE   N96  En4
 BYTE   W96
// 143   ----------------------------------------
 BYTE   Bn3
 BYTE   N96  Ds4
 BYTE   W96
 BYTE   PATT
  POIN2 Label_7_0149BF20
 BYTE   PATT
  POIN2 Label_7_0149BF30
 BYTE   PATT
  POIN2 Label_7_0149BF40
// 144   ----------------------------------------
 BYTE   W96
// 145   ----------------------------------------
 BYTE   EOT
 BYTE   Gn3  v071
 BYTE   PATT
  POIN2 Label_7_0149BF72
 BYTE   PATT
  POIN2 Label_7_0149BF82
 BYTE   PATT
  POIN2 Label_7_0149BF92
 BYTE   PATT
  POIN2 Label_7_0149BFA2
// 146   ----------------------------------------
 BYTE   W96
// 147   ----------------------------------------
 BYTE   W96
// 148   ----------------------------------------
 BYTE   W96
// 149   ----------------------------------------
 BYTE   W96
// 150   ----------------------------------------
 BYTE   W96
// 151   ----------------------------------------
 BYTE   W96
// 152   ----------------------------------------
 BYTE   W96
// 153   ----------------------------------------
 BYTE   W96
// 154   ----------------------------------------
 BYTE   W96
// 155   ----------------------------------------
 BYTE   W96
// 156   ----------------------------------------
 BYTE   W96
// 157   ----------------------------------------
 BYTE   W96
// 158   ----------------------------------------
 BYTE   W96
// 159   ----------------------------------------
 BYTE   W96
// 160   ----------------------------------------
 BYTE   W96
// 161   ----------------------------------------
 BYTE   W96
// 162   ----------------------------------------
 BYTE   W96
// 163   ----------------------------------------
 BYTE   W96
// 164   ----------------------------------------
 BYTE   W96
// 165   ----------------------------------------
 BYTE   W96
// 166   ----------------------------------------
 BYTE   W96
// 167   ----------------------------------------
 BYTE   W96
// 168   ----------------------------------------
 BYTE   W96
// 169   ----------------------------------------
 BYTE   W96
// 170   ----------------------------------------
 BYTE   W96
// 171   ----------------------------------------
 BYTE   W96
// 172   ----------------------------------------
 BYTE   W96
// 173   ----------------------------------------
 BYTE   W96
// 174   ----------------------------------------
 BYTE   W96
// 175   ----------------------------------------
 BYTE   W96
// 176   ----------------------------------------
 BYTE   W96
// 177   ----------------------------------------
 BYTE   W96
// 178   ----------------------------------------
 BYTE   W96
// 179   ----------------------------------------
 BYTE   W96
// 180   ----------------------------------------
 BYTE   W96
// 181   ----------------------------------------
 BYTE   W96
// 182   ----------------------------------------
 BYTE   W96
// 183   ----------------------------------------
 BYTE   W96
// 184   ----------------------------------------
 BYTE   W96
// 185   ----------------------------------------
 BYTE   W96
// 186   ----------------------------------------
 BYTE   W96
// 187   ----------------------------------------
 BYTE   W96
// 188   ----------------------------------------
 BYTE   W96
// 189   ----------------------------------------
 BYTE   W96
// 190   ----------------------------------------
 BYTE   W96
// 191   ----------------------------------------
 BYTE   W96
// 192   ----------------------------------------
 BYTE   W96
// 193   ----------------------------------------
 BYTE   W96
// 194   ----------------------------------------
 BYTE   W96
// 195   ----------------------------------------
 BYTE   W96
// 196   ----------------------------------------
 BYTE   W96
// 197   ----------------------------------------
 BYTE   W96
// 198   ----------------------------------------
 BYTE   W96
// 199   ----------------------------------------
 BYTE   W96
// 200   ----------------------------------------
 BYTE   W96
// 201   ----------------------------------------
 BYTE   W96
// 202   ----------------------------------------
 BYTE   W96
// 203   ----------------------------------------
 BYTE   W96
// 204   ----------------------------------------
 BYTE   W96
// 205   ----------------------------------------
 BYTE   W96
// 206   ----------------------------------------
 BYTE   W96
// 207   ----------------------------------------
 BYTE   W96
// 208   ----------------------------------------
 BYTE   W96
// 209   ----------------------------------------
 BYTE   W96
// 210   ----------------------------------------
 BYTE   VOL   50*MarioTennisBreakPointPandan_mvl/mxv
 BYTE   PAN   c_v+7
 BYTE   W96
// 211   ----------------------------------------
 BYTE   W96
// 212   ----------------------------------------
 BYTE   W96
// 213   ----------------------------------------
 BYTE   W96
// 214   ----------------------------------------
 BYTE   W96
// 215   ----------------------------------------
 BYTE   W96
// 216   ----------------------------------------
 BYTE   W96
// 217   ----------------------------------------
 BYTE   W96
// 218   ----------------------------------------
 BYTE   W96
// 219   ----------------------------------------
 BYTE   W96
// 220   ----------------------------------------
 BYTE   W96
// 221   ----------------------------------------
 BYTE   W96
// 222   ----------------------------------------
 BYTE   W96
// 223   ----------------------------------------
 BYTE   W96
// 224   ----------------------------------------
 BYTE   W96
// 225   ----------------------------------------
 BYTE   W96
 BYTE   FINE

//**************** Track 9 (Midi-Chn.8) ****************//

MarioTennisBreakPointPandan_009:
// 000   ----------------------------------------
 BYTE   KEYSH   MarioTennisBreakPointPandan_key+0
 BYTE   VOICE   30
 BYTE   PAN   c_v+25
 BYTE   VOL   62*MarioTennisBreakPointPandan_mvl/mxv
 BYTE   W96
// 001   ----------------------------------------
 BYTE   W96
// 002   ----------------------------------------
 BYTE   W96
// 003   ----------------------------------------
 BYTE   W96
// 004   ----------------------------------------
 BYTE   W96
// 005   ----------------------------------------
 BYTE   W96
// 006   ----------------------------------------
 BYTE   W96
// 007   ----------------------------------------
 BYTE   W96
// 008   ----------------------------------------
 BYTE   W96
// 009   ----------------------------------------
 BYTE   W96
// 010   ----------------------------------------
 BYTE   W96
// 011   ----------------------------------------
 BYTE   W96
// 012   ----------------------------------------
 BYTE   W96
// 013   ----------------------------------------
 BYTE   W96
// 014   ----------------------------------------
 BYTE   W96
// 015   ----------------------------------------
 BYTE   W96
// 016   ----------------------------------------
 BYTE   W96
// 017   ----------------------------------------
 BYTE   W96
// 018   ----------------------------------------
 BYTE   W96
// 019   ----------------------------------------
 BYTE   W96
// 020   ----------------------------------------
 BYTE   W96
// 021   ----------------------------------------
 BYTE   W96
// 022   ----------------------------------------
 BYTE   W96
// 023   ----------------------------------------
 BYTE   W96
// 024   ----------------------------------------
 BYTE   W96
// 025   ----------------------------------------
 BYTE   W96
// 026   ----------------------------------------
 BYTE   W96
// 027   ----------------------------------------
 BYTE   W96
// 028   ----------------------------------------
 BYTE   W96
// 029   ----------------------------------------
 BYTE   W96
// 030   ----------------------------------------
 BYTE   W96
// 031   ----------------------------------------
 BYTE   W96
// 032   ----------------------------------------
 BYTE   W96
// 033   ----------------------------------------
 BYTE   W96
// 034   ----------------------------------------
 BYTE   W96
// 035   ----------------------------------------
 BYTE   W96
// 036   ----------------------------------------
 BYTE   W96
// 037   ----------------------------------------
 BYTE   W96
// 038   ----------------------------------------
 BYTE   W96
// 039   ----------------------------------------
 BYTE   W96
// 040   ----------------------------------------
 BYTE   W96
// 041   ----------------------------------------
 BYTE   W96
// 042   ----------------------------------------
 BYTE   W96
// 043   ----------------------------------------
 BYTE   W96
// 044   ----------------------------------------
 BYTE   W96
// 045   ----------------------------------------
 BYTE   W96
// 046   ----------------------------------------
 BYTE   W96
// 047   ----------------------------------------
 BYTE   W96
// 048   ----------------------------------------
 BYTE   W96
// 049   ----------------------------------------
 BYTE   W96
// 050   ----------------------------------------
 BYTE   W96
// 051   ----------------------------------------
 BYTE   W96
// 052   ----------------------------------------
 BYTE   W96
// 053   ----------------------------------------
 BYTE   W96
// 054   ----------------------------------------
 BYTE   W96
// 055   ----------------------------------------
 BYTE   W96
// 056   ----------------------------------------
 BYTE   W96
// 057   ----------------------------------------
 BYTE   W96
// 058   ----------------------------------------
 BYTE   W96
// 059   ----------------------------------------
 BYTE   W96
// 060   ----------------------------------------
 BYTE   W96
// 061   ----------------------------------------
 BYTE   W96
// 062   ----------------------------------------
 BYTE   W96
// 063   ----------------------------------------
 BYTE   W96
// 064   ----------------------------------------
 BYTE   W96
// 065   ----------------------------------------
 BYTE   W96
// 066   ----------------------------------------
 BYTE   W96
// 067   ----------------------------------------
 BYTE   W96
// 068   ----------------------------------------
 BYTE   W96
// 069   ----------------------------------------
 BYTE   W96
// 070   ----------------------------------------
 BYTE   W96
// 071   ----------------------------------------
 BYTE   W96
// 072   ----------------------------------------
 BYTE   W96
// 073   ----------------------------------------
 BYTE   W96
// 074   ----------------------------------------
 BYTE   W96
// 075   ----------------------------------------
 BYTE   W96
// 076   ----------------------------------------
 BYTE   W96
// 077   ----------------------------------------
 BYTE   W96
// 078   ----------------------------------------
 BYTE   W96
// 079   ----------------------------------------
 BYTE   W96
// 080   ----------------------------------------
 BYTE   W96
// 081   ----------------------------------------
 BYTE   W96
// 082   ----------------------------------------
 BYTE   W96
// 083   ----------------------------------------
 BYTE   W96
// 084   ----------------------------------------
 BYTE   W96
// 085   ----------------------------------------
 BYTE   W96
// 086   ----------------------------------------
 BYTE   W96
// 087   ----------------------------------------
 BYTE   W96
// 088   ----------------------------------------
 BYTE   W96
// 089   ----------------------------------------
 BYTE   W96
// 090   ----------------------------------------
 BYTE   W96
// 091   ----------------------------------------
 BYTE   W96
// 092   ----------------------------------------
 BYTE   W96
// 093   ----------------------------------------
 BYTE   W96
// 094   ----------------------------------------
 BYTE   W96
// 095   ----------------------------------------
 BYTE   W96
// 096   ----------------------------------------
 BYTE   N92  Gn2  v104
 BYTE   W96
// 097   ----------------------------------------
Label_8_0149C128:
 BYTE   N32  Gn2  v104
 BYTE   W36
 BYTE   Dn2
 BYTE   W36
 BYTE   N22
 BYTE   W24
 BYTE   PEND 
// 098   ----------------------------------------
 BYTE   N92  Ds2
 BYTE   W96
// 099   ----------------------------------------
 BYTE   As2
 BYTE   W96
// 100   ----------------------------------------
 BYTE   Dn2
 BYTE   W96
// 101   ----------------------------------------
 BYTE   N92
 BYTE   W96
// 102   ----------------------------------------
 BYTE   N92
 BYTE   W96
// 103   ----------------------------------------
Label_8_0149C13C:
 BYTE   N32  Gn2  v104
 BYTE   W36
 BYTE   Dn2
 BYTE   W36
 BYTE   N22  Gn2
 BYTE   W24
 BYTE   PEND 
// 104   ----------------------------------------
 BYTE   N92
 BYTE   W96
 BYTE   PATT
  POIN2 Label_8_0149C128
// 105   ----------------------------------------
 BYTE   N92  Ds2  v104
 BYTE   W96
// 106   ----------------------------------------
 BYTE   As2
 BYTE   W96
// 107   ----------------------------------------
 BYTE   Dn2
 BYTE   W96
// 108   ----------------------------------------
 BYTE   N92
 BYTE   W96
// 109   ----------------------------------------
 BYTE   N92
 BYTE   W96
// 110   ----------------------------------------
Label_8_0149C159:
 BYTE   N32  Dn2  v104
 BYTE   W36
 BYTE   Cn2
 BYTE   W36
 BYTE   N22  Dn2
 BYTE   W24
 BYTE   PEND 
// 111   ----------------------------------------
 BYTE   PAN   c_v+25
 BYTE   VOL   62*MarioTennisBreakPointPandan_mvl/mxv
 BYTE   W96
// 112   ----------------------------------------
 BYTE   W96
// 113   ----------------------------------------
 BYTE   W96
// 114   ----------------------------------------
 BYTE   W96
// 115   ----------------------------------------
 BYTE   W96
// 116   ----------------------------------------
 BYTE   W96
// 117   ----------------------------------------
 BYTE   W96
// 118   ----------------------------------------
 BYTE   W96
// 119   ----------------------------------------
 BYTE   W96
// 120   ----------------------------------------
 BYTE   W96
// 121   ----------------------------------------
 BYTE   W96
// 122   ----------------------------------------
 BYTE   W96
// 123   ----------------------------------------
 BYTE   W96
// 124   ----------------------------------------
 BYTE   W96
// 125   ----------------------------------------
 BYTE   W96
// 126   ----------------------------------------
 BYTE   W96
// 127   ----------------------------------------
 BYTE   W96
// 128   ----------------------------------------
 BYTE   W96
// 129   ----------------------------------------
 BYTE   W96
// 130   ----------------------------------------
 BYTE   W96
// 131   ----------------------------------------
 BYTE   W96
// 132   ----------------------------------------
 BYTE   W96
// 133   ----------------------------------------
 BYTE   W96
// 134   ----------------------------------------
 BYTE   W96
// 135   ----------------------------------------
 BYTE   W96
// 136   ----------------------------------------
 BYTE   W96
// 137   ----------------------------------------
 BYTE   W96
// 138   ----------------------------------------
 BYTE   W96
// 139   ----------------------------------------
 BYTE   W96
// 140   ----------------------------------------
 BYTE   W96
// 141   ----------------------------------------
 BYTE   W96
// 142   ----------------------------------------
 BYTE   W96
// 143   ----------------------------------------
 BYTE   W96
// 144   ----------------------------------------
 BYTE   W96
// 145   ----------------------------------------
 BYTE   W96
// 146   ----------------------------------------
 BYTE   W96
// 147   ----------------------------------------
 BYTE   W96
// 148   ----------------------------------------
 BYTE   W96
// 149   ----------------------------------------
 BYTE   W96
// 150   ----------------------------------------
 BYTE   W96
// 151   ----------------------------------------
 BYTE   W96
// 152   ----------------------------------------
 BYTE   W96
// 153   ----------------------------------------
 BYTE   W96
// 154   ----------------------------------------
 BYTE   W96
// 155   ----------------------------------------
 BYTE   W96
// 156   ----------------------------------------
 BYTE   W96
// 157   ----------------------------------------
 BYTE   W96
// 158   ----------------------------------------
 BYTE   W96
// 159   ----------------------------------------
 BYTE   W96
// 160   ----------------------------------------
 BYTE   W96
// 161   ----------------------------------------
 BYTE   W96
// 162   ----------------------------------------
 BYTE   W96
// 163   ----------------------------------------
 BYTE   W96
// 164   ----------------------------------------
 BYTE   W96
// 165   ----------------------------------------
 BYTE   W96
// 166   ----------------------------------------
 BYTE   W96
// 167   ----------------------------------------
 BYTE   W96
// 168   ----------------------------------------
 BYTE   W96
// 169   ----------------------------------------
 BYTE   W96
// 170   ----------------------------------------
 BYTE   W96
// 171   ----------------------------------------
 BYTE   W96
// 172   ----------------------------------------
 BYTE   W96
// 173   ----------------------------------------
 BYTE   W96
// 174   ----------------------------------------
 BYTE   W96
// 175   ----------------------------------------
 BYTE   W96
// 176   ----------------------------------------
 BYTE   W96
// 177   ----------------------------------------
 BYTE   W96
// 178   ----------------------------------------
 BYTE   W96
// 179   ----------------------------------------
 BYTE   W96
// 180   ----------------------------------------
 BYTE   W96
// 181   ----------------------------------------
 BYTE   W96
// 182   ----------------------------------------
 BYTE   W96
// 183   ----------------------------------------
 BYTE   W96
// 184   ----------------------------------------
 BYTE   W96
// 185   ----------------------------------------
 BYTE   W96
// 186   ----------------------------------------
 BYTE   W96
// 187   ----------------------------------------
 BYTE   W96
// 188   ----------------------------------------
 BYTE   W96
// 189   ----------------------------------------
 BYTE   W96
// 190   ----------------------------------------
 BYTE   W96
// 191   ----------------------------------------
 BYTE   W96
// 192   ----------------------------------------
 BYTE   W96
// 193   ----------------------------------------
 BYTE   W96
// 194   ----------------------------------------
 BYTE   W96
// 195   ----------------------------------------
 BYTE   W96
// 196   ----------------------------------------
 BYTE   W96
// 197   ----------------------------------------
 BYTE   W96
// 198   ----------------------------------------
 BYTE   W96
// 199   ----------------------------------------
 BYTE   W96
// 200   ----------------------------------------
 BYTE   W96
// 201   ----------------------------------------
 BYTE   W96
// 202   ----------------------------------------
 BYTE   W96
// 203   ----------------------------------------
 BYTE   W96
// 204   ----------------------------------------
 BYTE   W96
// 205   ----------------------------------------
 BYTE   W96
// 206   ----------------------------------------
 BYTE   W96
// 207   ----------------------------------------
 BYTE   N92  Gn2
 BYTE   W96
 BYTE   PATT
  POIN2 Label_8_0149C128
// 208   ----------------------------------------
 BYTE   N92  Ds2  v104
 BYTE   W96
// 209   ----------------------------------------
 BYTE   As2
 BYTE   W96
// 210   ----------------------------------------
 BYTE   Dn2
 BYTE   W96
// 211   ----------------------------------------
 BYTE   N92
 BYTE   W96
// 212   ----------------------------------------
 BYTE   N92
 BYTE   W96
 BYTE   PATT
  POIN2 Label_8_0149C13C
// 213   ----------------------------------------
 BYTE   N92  Gn2  v104
 BYTE   W96
 BYTE   PATT
  POIN2 Label_8_0149C128
// 214   ----------------------------------------
 BYTE   N92  Ds2  v104
 BYTE   W96
// 215   ----------------------------------------
 BYTE   As2
 BYTE   W96
// 216   ----------------------------------------
 BYTE   Dn2
 BYTE   W96
// 217   ----------------------------------------
 BYTE   N92
 BYTE   W96
// 218   ----------------------------------------
 BYTE   N92
 BYTE   W96
 BYTE   PATT
  POIN2 Label_8_0149C159
// 219   ----------------------------------------
 BYTE   PAN   c_v+25
 BYTE   VOL   62*MarioTennisBreakPointPandan_mvl/mxv
 BYTE   W96
// 220   ----------------------------------------
 BYTE   W96
// 221   ----------------------------------------
 BYTE   W96
// 222   ----------------------------------------
 BYTE   W96
// 223   ----------------------------------------
 BYTE   W96
// 224   ----------------------------------------
 BYTE   W96
// 225   ----------------------------------------
 BYTE   W96
// 226   ----------------------------------------
 BYTE   W96
// 227   ----------------------------------------
 BYTE   W96
// 228   ----------------------------------------
 BYTE   W96
// 229   ----------------------------------------
 BYTE   W96
// 230   ----------------------------------------
 BYTE   W96
// 231   ----------------------------------------
 BYTE   W96
// 232   ----------------------------------------
 BYTE   W96
// 233   ----------------------------------------
 BYTE   W96
// 234   ----------------------------------------
 BYTE   W96
 BYTE   FINE

//******************************************************//
	ALIGN 4

MarioTennisBreakPointPandan:
	BYTE	9	// NumTrks
	BYTE	0	// NumBlks
	BYTE	MarioTennisBreakPointPandan_pri	// Priority
	BYTE	MarioTennisBreakPointPandan_rev	// Reverb.
    
	POIN2	MarioTennisBreakPointPandan_grp
    
	POIN2	MarioTennisBreakPointPandan_001
	POIN2	MarioTennisBreakPointPandan_002
	POIN2	MarioTennisBreakPointPandan_003
	POIN2	MarioTennisBreakPointPandan_004
	POIN2	MarioTennisBreakPointPandan_005
	POIN2	MarioTennisBreakPointPandan_006
	POIN2	MarioTennisBreakPointPandan_007
	POIN2	MarioTennisBreakPointPandan_008
	POIN2	MarioTennisBreakPointPandan_009

	
