//Event file generated from Sappy .s format.
	#include "MPlayDef.event"

	#define	MarioKartDoubleDashBabyParkSme_grp  voicegroup000
	#define	MarioKartDoubleDashBabyParkSme_pri  0
	#define	MarioKartDoubleDashBabyParkSme_rev  0
	#define	MarioKartDoubleDashBabyParkSme_mvl  85
	#define	MarioKartDoubleDashBabyParkSme_key  0
	#define	MarioKartDoubleDashBabyParkSme_tbs  1
	#define	MarioKartDoubleDashBabyParkSme_exg  0
	#define	MarioKartDoubleDashBabyParkSme_cmp  1

	// .rodata
	//	MarioKartDoubleDashBabyParkSme
	ALIGN 4

//**************** Track 1 (Midi-Chn.1) ****************//

MarioKartDoubleDashBabyParkSme_1:
	BYTE	KEYSH   MarioKartDoubleDashBabyParkSme_key+0
// 000   ----------------------------------------
	BYTE	TEMPO   172*MarioKartDoubleDashBabyParkSme_tbs/2
	BYTE		VOICE   59
	BYTE		VOL     103*MarioKartDoubleDashBabyParkSme_mvl/mxv
	BYTE		PAN     c_v-24
	BYTE	W20
	BYTE		VOICE   59
	BYTE	W04
	BYTE		N05     Cn3   v064
	BYTE	W06
	BYTE		N05   
	BYTE	W12
	BYTE		N05   
	BYTE	W06
	BYTE		        Dn3 
	BYTE	W12
	BYTE		        Ds3 
	BYTE	W12
	BYTE		N44     En3 
	BYTE	W24
// 001   ----------------------------------------
	BYTE	W24
MarioKartDoubleDashBabyParkSme_1_B1:
	BYTE	W12
	BYTE		N05     Cn4   v127
	BYTE	W06
	BYTE		N05   
	BYTE	W06
	BYTE		N11   
	BYTE	W12
	BYTE		N11   
	BYTE	W12
	BYTE		        Fn4 
	BYTE	W12
	BYTE		        Cn4 
	BYTE	W12
// 002   ----------------------------------------
MarioKartDoubleDashBabyParkSme_1_002:
	BYTE		N11     An3   v127
	BYTE	W12
	BYTE		        Fn3 
	BYTE	W84
	BYTE	PEND
// 003   ----------------------------------------
MarioKartDoubleDashBabyParkSme_1_003:
	BYTE	W36
	BYTE		N05     Cn4   v127
	BYTE	W06
	BYTE		N05   
	BYTE	W06
	BYTE		N11   
	BYTE	W12
	BYTE		N11   
	BYTE	W12
	BYTE		        Fn4 
	BYTE	W12
	BYTE		        Cn4 
	BYTE	W12
	BYTE	PEND
// 004   ----------------------------------------
	BYTE	PATT
	 POIN2	MarioKartDoubleDashBabyParkSme_1_002
// 005   ----------------------------------------
MarioKartDoubleDashBabyParkSme_1_005:
	BYTE	W24
	BYTE		N11     An3   v127
	BYTE	W12
	BYTE		        Fn3 
	BYTE	W12
	BYTE		        An3 
	BYTE	W12
	BYTE		        Cn4 
	BYTE	W12
	BYTE		        As3 
	BYTE	W12
	BYTE		        Gn3 
	BYTE	W12
	BYTE	PEND
// 006   ----------------------------------------
MarioKartDoubleDashBabyParkSme_1_006:
	BYTE		N11     As3   v127
	BYTE	W12
	BYTE		        Dn4 
	BYTE	W12
	BYTE		        Cn4 
	BYTE	W24
	BYTE		        En4 
	BYTE	W24
	BYTE		        Fn4 
	BYTE	W24
	BYTE	PEND
// 007   ----------------------------------------
	BYTE		        Cn4 
	BYTE	W96
// 008   ----------------------------------------
	BYTE	W96
// 009   ----------------------------------------
	BYTE	PATT
	 POIN2	MarioKartDoubleDashBabyParkSme_1_003
// 010   ----------------------------------------
	BYTE	PATT
	 POIN2	MarioKartDoubleDashBabyParkSme_1_002
// 011   ----------------------------------------
	BYTE	PATT
	 POIN2	MarioKartDoubleDashBabyParkSme_1_003
// 012   ----------------------------------------
	BYTE	PATT
	 POIN2	MarioKartDoubleDashBabyParkSme_1_002
// 013   ----------------------------------------
	BYTE	PATT
	 POIN2	MarioKartDoubleDashBabyParkSme_1_005
// 014   ----------------------------------------
	BYTE	PATT
	 POIN2	MarioKartDoubleDashBabyParkSme_1_006
// 015   ----------------------------------------
	BYTE		N11     Cn4   v127
	BYTE	W36
	BYTE		N05     Dn4 
	BYTE	W06
	BYTE		N05   
	BYTE	W06
	BYTE		N05   
	BYTE	W12
	BYTE		N05   
	BYTE	W12
	BYTE		        Cn4 
	BYTE	W12
	BYTE		N05   
	BYTE	W12
// 016   ----------------------------------------
	BYTE		        Dn4 
	BYTE	W12
	BYTE		        En4 
	BYTE	W12
	BYTE		N20     Fn4 
	BYTE	W24
	BYTE		        Cn4 
	BYTE	W24
	BYTE		N44     Fn4 
	BYTE	W24
// 017   ----------------------------------------
MarioKartDoubleDashBabyParkSme_1_017:
	BYTE	W36
	BYTE		N05     Cs4   v127
	BYTE	W06
	BYTE		N05   
	BYTE	W06
	BYTE		N11   
	BYTE	W12
	BYTE		N11   
	BYTE	W12
	BYTE		        Fs4 
	BYTE	W12
	BYTE		        Cs4 
	BYTE	W12
	BYTE	PEND
// 018   ----------------------------------------
MarioKartDoubleDashBabyParkSme_1_018:
	BYTE		N11     As3   v127
	BYTE	W12
	BYTE		        Fs3 
	BYTE	W84
	BYTE	PEND
// 019   ----------------------------------------
	BYTE	PATT
	 POIN2	MarioKartDoubleDashBabyParkSme_1_017
// 020   ----------------------------------------
	BYTE	PATT
	 POIN2	MarioKartDoubleDashBabyParkSme_1_018
// 021   ----------------------------------------
MarioKartDoubleDashBabyParkSme_1_021:
	BYTE	W24
	BYTE		N11     As3   v127
	BYTE	W12
	BYTE		        Fs3 
	BYTE	W12
	BYTE		        As3 
	BYTE	W12
	BYTE		        Cs4 
	BYTE	W12
	BYTE		        Bn3 
	BYTE	W12
	BYTE		        Gs3 
	BYTE	W12
	BYTE	PEND
// 022   ----------------------------------------
MarioKartDoubleDashBabyParkSme_1_022:
	BYTE		N11     Bn3   v127
	BYTE	W12
	BYTE		        Ds4 
	BYTE	W12
	BYTE		        Cs4 
	BYTE	W24
	BYTE		        Fn4 
	BYTE	W24
	BYTE		        Fs4 
	BYTE	W24
	BYTE	PEND
// 023   ----------------------------------------
	BYTE		        Cs4 
	BYTE	W96
// 024   ----------------------------------------
	BYTE	W96
// 025   ----------------------------------------
	BYTE	PATT
	 POIN2	MarioKartDoubleDashBabyParkSme_1_017
// 026   ----------------------------------------
	BYTE	PATT
	 POIN2	MarioKartDoubleDashBabyParkSme_1_018
// 027   ----------------------------------------
	BYTE	PATT
	 POIN2	MarioKartDoubleDashBabyParkSme_1_017
// 028   ----------------------------------------
	BYTE	PATT
	 POIN2	MarioKartDoubleDashBabyParkSme_1_018
// 029   ----------------------------------------
	BYTE	PATT
	 POIN2	MarioKartDoubleDashBabyParkSme_1_021
// 030   ----------------------------------------
	BYTE	PATT
	 POIN2	MarioKartDoubleDashBabyParkSme_1_022
// 031   ----------------------------------------
	BYTE		N11     Cs4   v127
	BYTE	W36
	BYTE		N05     Ds4 
	BYTE	W06
	BYTE		N05   
	BYTE	W06
	BYTE		N05   
	BYTE	W12
	BYTE		N05   
	BYTE	W12
	BYTE		        Cs4 
	BYTE	W12
	BYTE		N05   
	BYTE	W12
// 032   ----------------------------------------
	BYTE		        Ds4 
	BYTE	W12
	BYTE		        Fn4 
	BYTE	W12
	BYTE		N20     Fs4 
	BYTE	W24
	BYTE		        Cs4 
	BYTE	W24
	BYTE		N44     Fs4 
	BYTE	W24
// 033   ----------------------------------------
MarioKartDoubleDashBabyParkSme_1_033:
	BYTE	W36
	BYTE		N05     Dn4   v127
	BYTE	W06
	BYTE		N05   
	BYTE	W06
	BYTE		N11   
	BYTE	W12
	BYTE		N11   
	BYTE	W12
	BYTE		        Gn4 
	BYTE	W12
	BYTE		        Dn4 
	BYTE	W12
	BYTE	PEND
// 034   ----------------------------------------
MarioKartDoubleDashBabyParkSme_1_034:
	BYTE		N11     Bn3   v127
	BYTE	W12
	BYTE		        Gn3 
	BYTE	W84
	BYTE	PEND
// 035   ----------------------------------------
	BYTE	PATT
	 POIN2	MarioKartDoubleDashBabyParkSme_1_033
// 036   ----------------------------------------
	BYTE	PATT
	 POIN2	MarioKartDoubleDashBabyParkSme_1_034
// 037   ----------------------------------------
MarioKartDoubleDashBabyParkSme_1_037:
	BYTE	W24
	BYTE		N11     Bn3   v127
	BYTE	W12
	BYTE		        Gn3 
	BYTE	W12
	BYTE		        Bn3 
	BYTE	W12
	BYTE		        Dn4 
	BYTE	W12
	BYTE		        Cn4 
	BYTE	W12
	BYTE		        An3 
	BYTE	W12
	BYTE	PEND
// 038   ----------------------------------------
MarioKartDoubleDashBabyParkSme_1_038:
	BYTE		N11     Cn4   v127
	BYTE	W12
	BYTE		        En4 
	BYTE	W12
	BYTE		        Dn4 
	BYTE	W24
	BYTE		        Fs4 
	BYTE	W24
	BYTE		        Gn4 
	BYTE	W24
	BYTE	PEND
// 039   ----------------------------------------
	BYTE		        Dn4 
	BYTE	W96
// 040   ----------------------------------------
	BYTE	W96
// 041   ----------------------------------------
	BYTE	PATT
	 POIN2	MarioKartDoubleDashBabyParkSme_1_033
// 042   ----------------------------------------
	BYTE	PATT
	 POIN2	MarioKartDoubleDashBabyParkSme_1_034
// 043   ----------------------------------------
	BYTE	PATT
	 POIN2	MarioKartDoubleDashBabyParkSme_1_033
// 044   ----------------------------------------
	BYTE	PATT
	 POIN2	MarioKartDoubleDashBabyParkSme_1_034
// 045   ----------------------------------------
	BYTE	PATT
	 POIN2	MarioKartDoubleDashBabyParkSme_1_037
// 046   ----------------------------------------
	BYTE	PATT
	 POIN2	MarioKartDoubleDashBabyParkSme_1_038
// 047   ----------------------------------------
	BYTE		N11     Dn4   v127
	BYTE	W36
	BYTE		N05     En4 
	BYTE	W06
	BYTE		N05   
	BYTE	W06
	BYTE		N05   
	BYTE	W12
	BYTE		N05   
	BYTE	W12
	BYTE		        Dn4 
	BYTE	W12
	BYTE		N05   
	BYTE	W12
// 048   ----------------------------------------
	BYTE		        En4 
	BYTE	W12
	BYTE		        Fs4 
	BYTE	W12
	BYTE		N20     Gn4 
	BYTE	W24
	BYTE		        Dn4 
	BYTE	W24
	BYTE		N44     Gn4 
	BYTE	W24
// 049   ----------------------------------------
	BYTE	W24
	BYTE		N11     Gn3 
	BYTE	W12
	BYTE		        Bn3 
	BYTE	W24
	BYTE		        Dn3 
	BYTE	W12
	BYTE		        Gn3 
	BYTE	W12
	BYTE		        Bn3 
	BYTE	W12
// 050   ----------------------------------------
MarioKartDoubleDashBabyParkSme_1_050:
	BYTE	W12
	BYTE		N11     Dn3   v127
	BYTE	W12
	BYTE		        Gn3 
	BYTE	W12
	BYTE		        Bn3 
	BYTE	W24
	BYTE		        Dn3 
	BYTE	W12
	BYTE		        Fs3 
	BYTE	W12
	BYTE		        An3 
	BYTE	W12
	BYTE	PEND
// 051   ----------------------------------------
MarioKartDoubleDashBabyParkSme_1_051:
	BYTE	W12
	BYTE		N11     Dn3   v127
	BYTE	W12
	BYTE		        Fs3 
	BYTE	W12
	BYTE		        An3 
	BYTE	W24
	BYTE		        Dn3 
	BYTE	W12
	BYTE		        Fs3 
	BYTE	W12
	BYTE		        An3 
	BYTE	W12
	BYTE	PEND
// 052   ----------------------------------------
MarioKartDoubleDashBabyParkSme_1_052:
	BYTE	W24
	BYTE		N11     Fs3   v127
	BYTE	W12
	BYTE		        Dn3 
	BYTE	W12
	BYTE		        En3 
	BYTE	W12
	BYTE		        Fs3 
	BYTE	W12
	BYTE		        Gn3 
	BYTE	W24
	BYTE	PEND
// 053   ----------------------------------------
MarioKartDoubleDashBabyParkSme_1_053:
	BYTE		N11     Gn3   v127
	BYTE	W24
	BYTE		        Cn4 
	BYTE	W12
	BYTE		        Bn3 
	BYTE	W24
	BYTE		        Dn3 
	BYTE	W12
	BYTE		        Cn4 
	BYTE	W12
	BYTE		        Bn3 
	BYTE	W12
	BYTE	PEND
// 054   ----------------------------------------
MarioKartDoubleDashBabyParkSme_1_054:
	BYTE	W12
	BYTE		N11     Dn3   v127
	BYTE	W12
	BYTE		        Cn4 
	BYTE	W12
	BYTE		        En4 
	BYTE	W24
	BYTE		        Dn3 
	BYTE	W12
	BYTE		        An3 
	BYTE	W12
	BYTE		        Dn4 
	BYTE	W12
	BYTE	PEND
// 055   ----------------------------------------
MarioKartDoubleDashBabyParkSme_1_055:
	BYTE	W12
	BYTE		N11     Dn3   v127
	BYTE	W12
	BYTE		        Dn4 
	BYTE	W12
	BYTE		        Fs4 
	BYTE	W24
	BYTE		        Dn3 
	BYTE	W12
	BYTE		        Dn4 
	BYTE	W12
	BYTE		        Fs4 
	BYTE	W12
	BYTE	PEND
// 056   ----------------------------------------
MarioKartDoubleDashBabyParkSme_1_056:
	BYTE	W12
	BYTE		N11     Dn3   v127
	BYTE	W12
	BYTE		        Fs4 
	BYTE	W12
	BYTE		        Dn4 
	BYTE	W12
	BYTE		        En4 
	BYTE	W12
	BYTE		        Fs4 
	BYTE	W12
	BYTE		        Gn4 
	BYTE	W12
	BYTE		        Dn4 
	BYTE	W12
	BYTE	PEND
// 057   ----------------------------------------
	BYTE		        Gn4 
	BYTE	W24
	BYTE		        Gn3 
	BYTE	W12
	BYTE		        Bn3 
	BYTE	W24
	BYTE		        Dn3 
	BYTE	W12
	BYTE		        Gn3 
	BYTE	W12
	BYTE		        Bn3 
	BYTE	W12
// 058   ----------------------------------------
	BYTE	PATT
	 POIN2	MarioKartDoubleDashBabyParkSme_1_050
// 059   ----------------------------------------
	BYTE	PATT
	 POIN2	MarioKartDoubleDashBabyParkSme_1_051
// 060   ----------------------------------------
	BYTE	PATT
	 POIN2	MarioKartDoubleDashBabyParkSme_1_052
// 061   ----------------------------------------
	BYTE	PATT
	 POIN2	MarioKartDoubleDashBabyParkSme_1_053
// 062   ----------------------------------------
	BYTE	PATT
	 POIN2	MarioKartDoubleDashBabyParkSme_1_054
// 063   ----------------------------------------
	BYTE	PATT
	 POIN2	MarioKartDoubleDashBabyParkSme_1_055
// 064   ----------------------------------------
	BYTE	PATT
	 POIN2	MarioKartDoubleDashBabyParkSme_1_056
// 065   ----------------------------------------
	BYTE		N11     Gn4   v127
	BYTE	W96
// 066   ----------------------------------------
	BYTE	W96
// 067   ----------------------------------------
	BYTE	W24
	BYTE		N05     Bn3 
	BYTE	W12
	BYTE		        Cn4 
	BYTE	W12
	BYTE		        Dn4 
	BYTE	W12
	BYTE		        Bn3 
	BYTE	W12
	BYTE		        Cn4 
	BYTE	W12
	BYTE		N16     En4 
	BYTE	W12
// 068   ----------------------------------------
	BYTE	W12
	BYTE		N05   
	BYTE	W12
	BYTE		        Dn4 
	BYTE	W12
	BYTE		        En4 
	BYTE	W12
	BYTE		        Dn4 
	BYTE	W12
	BYTE		        Cn4 
	BYTE	W12
	BYTE		N16     Bn3 
	BYTE	W24
// 069   ----------------------------------------
	BYTE		N11     An3 
	BYTE	W96
// 070   ----------------------------------------
	BYTE	W96
// 071   ----------------------------------------
	BYTE	W96
// 072   ----------------------------------------
	BYTE	W96
// 073   ----------------------------------------
	BYTE	W24
	BYTE	GoTo
	 POIN2	MarioKartDoubleDashBabyParkSme_1_B1
MarioKartDoubleDashBabyParkSme_1_B2:
	BYTE	FINE

//**************** Track 2 (Midi-Chn.2) ****************//

MarioKartDoubleDashBabyParkSme_2:
	BYTE	KEYSH   MarioKartDoubleDashBabyParkSme_key+0
// 000   ----------------------------------------
	BYTE		VOICE   54
	BYTE		VOL     76*MarioKartDoubleDashBabyParkSme_mvl/mxv
	BYTE		PAN     c_v+24
	BYTE	W20
	BYTE		VOICE   54
	BYTE	W76
// 001   ----------------------------------------
	BYTE	W24
MarioKartDoubleDashBabyParkSme_2_B1:
	BYTE	W12
	BYTE		N05     Cn4   v127
	BYTE	W06
	BYTE		N05   
	BYTE	W06
	BYTE		N11   
	BYTE	W12
	BYTE		N11   
	BYTE	W12
	BYTE		        Fn4 
	BYTE	W12
	BYTE		        Cn4 
	BYTE	W12
// 002   ----------------------------------------
MarioKartDoubleDashBabyParkSme_2_002:
	BYTE		N11     An3   v127
	BYTE	W12
	BYTE		        Fn3 
	BYTE	W84
	BYTE	PEND
// 003   ----------------------------------------
MarioKartDoubleDashBabyParkSme_2_003:
	BYTE	W36
	BYTE		N05     Cn4   v127
	BYTE	W06
	BYTE		N05   
	BYTE	W06
	BYTE		N11   
	BYTE	W12
	BYTE		N11   
	BYTE	W12
	BYTE		        Fn4 
	BYTE	W12
	BYTE		        Cn4 
	BYTE	W12
	BYTE	PEND
// 004   ----------------------------------------
	BYTE	PATT
	 POIN2	MarioKartDoubleDashBabyParkSme_2_002
// 005   ----------------------------------------
MarioKartDoubleDashBabyParkSme_2_005:
	BYTE	W24
	BYTE		N11     An3   v127
	BYTE	W12
	BYTE		        Fn3 
	BYTE	W12
	BYTE		        An3 
	BYTE	W12
	BYTE		        Cn4 
	BYTE	W12
	BYTE		        As3 
	BYTE	W12
	BYTE		        Gn3 
	BYTE	W12
	BYTE	PEND
// 006   ----------------------------------------
MarioKartDoubleDashBabyParkSme_2_006:
	BYTE		N11     As3   v127
	BYTE	W12
	BYTE		        Dn4 
	BYTE	W12
	BYTE		        Cn4 
	BYTE	W24
	BYTE		        En4 
	BYTE	W24
	BYTE		        Fn4 
	BYTE	W24
	BYTE	PEND
// 007   ----------------------------------------
	BYTE		        Cn4 
	BYTE	W96
// 008   ----------------------------------------
	BYTE	W96
// 009   ----------------------------------------
	BYTE	PATT
	 POIN2	MarioKartDoubleDashBabyParkSme_2_003
// 010   ----------------------------------------
	BYTE	PATT
	 POIN2	MarioKartDoubleDashBabyParkSme_2_002
// 011   ----------------------------------------
	BYTE	PATT
	 POIN2	MarioKartDoubleDashBabyParkSme_2_003
// 012   ----------------------------------------
	BYTE	PATT
	 POIN2	MarioKartDoubleDashBabyParkSme_2_002
// 013   ----------------------------------------
	BYTE	PATT
	 POIN2	MarioKartDoubleDashBabyParkSme_2_005
// 014   ----------------------------------------
	BYTE	PATT
	 POIN2	MarioKartDoubleDashBabyParkSme_2_006
// 015   ----------------------------------------
	BYTE		N11     Cn4   v127
	BYTE	W36
	BYTE		N05     Dn4 
	BYTE	W06
	BYTE		N05   
	BYTE	W06
	BYTE		N05   
	BYTE	W12
	BYTE		N05   
	BYTE	W12
	BYTE		        Cn4 
	BYTE	W12
	BYTE		N05   
	BYTE	W12
// 016   ----------------------------------------
	BYTE		        Dn4 
	BYTE	W12
	BYTE		        En4 
	BYTE	W12
	BYTE		N20     Fn4 
	BYTE	W24
	BYTE		        Cn4 
	BYTE	W24
	BYTE		N44     Fn4 
	BYTE	W24
// 017   ----------------------------------------
MarioKartDoubleDashBabyParkSme_2_017:
	BYTE	W36
	BYTE		N05     Cs4   v127
	BYTE	W06
	BYTE		N05   
	BYTE	W06
	BYTE		N11   
	BYTE	W12
	BYTE		N11   
	BYTE	W12
	BYTE		        Fs4 
	BYTE	W12
	BYTE		        Cs4 
	BYTE	W12
	BYTE	PEND
// 018   ----------------------------------------
MarioKartDoubleDashBabyParkSme_2_018:
	BYTE		N11     As3   v127
	BYTE	W12
	BYTE		        Fs3 
	BYTE	W84
	BYTE	PEND
// 019   ----------------------------------------
	BYTE	PATT
	 POIN2	MarioKartDoubleDashBabyParkSme_2_017
// 020   ----------------------------------------
	BYTE	PATT
	 POIN2	MarioKartDoubleDashBabyParkSme_2_018
// 021   ----------------------------------------
MarioKartDoubleDashBabyParkSme_2_021:
	BYTE	W24
	BYTE		N11     As3   v127
	BYTE	W12
	BYTE		        Fs3 
	BYTE	W12
	BYTE		        As3 
	BYTE	W12
	BYTE		        Cs4 
	BYTE	W12
	BYTE		        Bn3 
	BYTE	W12
	BYTE		        Gs3 
	BYTE	W12
	BYTE	PEND
// 022   ----------------------------------------
MarioKartDoubleDashBabyParkSme_2_022:
	BYTE		N11     Bn3   v127
	BYTE	W12
	BYTE		        Ds4 
	BYTE	W12
	BYTE		        Cs4 
	BYTE	W24
	BYTE		        Fn4 
	BYTE	W24
	BYTE		        Fs4 
	BYTE	W24
	BYTE	PEND
// 023   ----------------------------------------
	BYTE		        Cs4 
	BYTE	W96
// 024   ----------------------------------------
	BYTE	W96
// 025   ----------------------------------------
	BYTE	PATT
	 POIN2	MarioKartDoubleDashBabyParkSme_2_017
// 026   ----------------------------------------
	BYTE	PATT
	 POIN2	MarioKartDoubleDashBabyParkSme_2_018
// 027   ----------------------------------------
	BYTE	PATT
	 POIN2	MarioKartDoubleDashBabyParkSme_2_017
// 028   ----------------------------------------
	BYTE	PATT
	 POIN2	MarioKartDoubleDashBabyParkSme_2_018
// 029   ----------------------------------------
	BYTE	PATT
	 POIN2	MarioKartDoubleDashBabyParkSme_2_021
// 030   ----------------------------------------
	BYTE	PATT
	 POIN2	MarioKartDoubleDashBabyParkSme_2_022
// 031   ----------------------------------------
	BYTE		N11     Cs4   v127
	BYTE	W36
	BYTE		N05     Ds4 
	BYTE	W06
	BYTE		N05   
	BYTE	W06
	BYTE		N05   
	BYTE	W12
	BYTE		N05   
	BYTE	W12
	BYTE		        Cs4 
	BYTE	W12
	BYTE		N05   
	BYTE	W12
// 032   ----------------------------------------
	BYTE		        Ds4 
	BYTE	W12
	BYTE		        Fn4 
	BYTE	W12
	BYTE		N20     Fs4 
	BYTE	W24
	BYTE		        Cs4 
	BYTE	W24
	BYTE		N44     Fs4 
	BYTE	W24
// 033   ----------------------------------------
MarioKartDoubleDashBabyParkSme_2_033:
	BYTE	W36
	BYTE		N05     Dn4   v127
	BYTE	W06
	BYTE		N05   
	BYTE	W06
	BYTE		N11   
	BYTE	W12
	BYTE		N11   
	BYTE	W12
	BYTE		        Gn4 
	BYTE	W12
	BYTE		        Dn4 
	BYTE	W12
	BYTE	PEND
// 034   ----------------------------------------
MarioKartDoubleDashBabyParkSme_2_034:
	BYTE		N11     Bn3   v127
	BYTE	W12
	BYTE		        Gn3 
	BYTE	W84
	BYTE	PEND
// 035   ----------------------------------------
	BYTE	PATT
	 POIN2	MarioKartDoubleDashBabyParkSme_2_033
// 036   ----------------------------------------
	BYTE	PATT
	 POIN2	MarioKartDoubleDashBabyParkSme_2_034
// 037   ----------------------------------------
MarioKartDoubleDashBabyParkSme_2_037:
	BYTE	W24
	BYTE		N11     Bn3   v127
	BYTE	W12
	BYTE		        Gn3 
	BYTE	W12
	BYTE		        Bn3 
	BYTE	W12
	BYTE		        Dn4 
	BYTE	W12
	BYTE		        Cn4 
	BYTE	W12
	BYTE		        An3 
	BYTE	W12
	BYTE	PEND
// 038   ----------------------------------------
MarioKartDoubleDashBabyParkSme_2_038:
	BYTE		N11     Cn4   v127
	BYTE	W12
	BYTE		        En4 
	BYTE	W12
	BYTE		        Dn4 
	BYTE	W24
	BYTE		        Fs4 
	BYTE	W24
	BYTE		        Gn4 
	BYTE	W24
	BYTE	PEND
// 039   ----------------------------------------
	BYTE		        Dn4 
	BYTE	W96
// 040   ----------------------------------------
	BYTE	W96
// 041   ----------------------------------------
	BYTE	PATT
	 POIN2	MarioKartDoubleDashBabyParkSme_2_033
// 042   ----------------------------------------
	BYTE	PATT
	 POIN2	MarioKartDoubleDashBabyParkSme_2_034
// 043   ----------------------------------------
	BYTE	PATT
	 POIN2	MarioKartDoubleDashBabyParkSme_2_033
// 044   ----------------------------------------
	BYTE	PATT
	 POIN2	MarioKartDoubleDashBabyParkSme_2_034
// 045   ----------------------------------------
	BYTE	PATT
	 POIN2	MarioKartDoubleDashBabyParkSme_2_037
// 046   ----------------------------------------
	BYTE	PATT
	 POIN2	MarioKartDoubleDashBabyParkSme_2_038
// 047   ----------------------------------------
	BYTE		N11     Dn4   v127
	BYTE	W36
	BYTE		N05     En4 
	BYTE	W06
	BYTE		N05   
	BYTE	W06
	BYTE		N05   
	BYTE	W12
	BYTE		N05   
	BYTE	W12
	BYTE		        Dn4 
	BYTE	W12
	BYTE		N05   
	BYTE	W12
// 048   ----------------------------------------
	BYTE		        En4 
	BYTE	W12
	BYTE		        Fs4 
	BYTE	W12
	BYTE		N20     Gn4 
	BYTE	W24
	BYTE		        Dn4 
	BYTE	W24
	BYTE		N44     Gn4 
	BYTE	W24
// 049   ----------------------------------------
	BYTE	W24
	BYTE		N11     Gn3 
	BYTE	W12
	BYTE		        Bn3 
	BYTE	W24
	BYTE		        Dn3 
	BYTE	W12
	BYTE		        Gn3 
	BYTE	W12
	BYTE		        Bn3 
	BYTE	W12
// 050   ----------------------------------------
MarioKartDoubleDashBabyParkSme_2_050:
	BYTE	W12
	BYTE		N11     Dn3   v127
	BYTE	W12
	BYTE		        Gn3 
	BYTE	W12
	BYTE		        Bn3 
	BYTE	W24
	BYTE		        Dn3 
	BYTE	W12
	BYTE		        Fs3 
	BYTE	W12
	BYTE		        An3 
	BYTE	W12
	BYTE	PEND
// 051   ----------------------------------------
MarioKartDoubleDashBabyParkSme_2_051:
	BYTE	W12
	BYTE		N11     Dn3   v127
	BYTE	W12
	BYTE		        Fs3 
	BYTE	W12
	BYTE		        An3 
	BYTE	W24
	BYTE		        Dn3 
	BYTE	W12
	BYTE		        Fs3 
	BYTE	W12
	BYTE		        An3 
	BYTE	W12
	BYTE	PEND
// 052   ----------------------------------------
MarioKartDoubleDashBabyParkSme_2_052:
	BYTE	W24
	BYTE		N11     Fs3   v127
	BYTE	W12
	BYTE		        Dn3 
	BYTE	W12
	BYTE		        En3 
	BYTE	W12
	BYTE		        Fs3 
	BYTE	W12
	BYTE		        Gn3 
	BYTE	W24
	BYTE	PEND
// 053   ----------------------------------------
MarioKartDoubleDashBabyParkSme_2_053:
	BYTE		N11     Gn3   v127
	BYTE	W24
	BYTE		        Cn4 
	BYTE	W12
	BYTE		        Bn3 
	BYTE	W24
	BYTE		        Dn3 
	BYTE	W12
	BYTE		        Cn4 
	BYTE	W12
	BYTE		        Bn3 
	BYTE	W12
	BYTE	PEND
// 054   ----------------------------------------
MarioKartDoubleDashBabyParkSme_2_054:
	BYTE	W12
	BYTE		N11     Dn3   v127
	BYTE	W12
	BYTE		        Cn4 
	BYTE	W12
	BYTE		        En4 
	BYTE	W24
	BYTE		        Dn3 
	BYTE	W12
	BYTE		        An3 
	BYTE	W12
	BYTE		        Dn4 
	BYTE	W12
	BYTE	PEND
// 055   ----------------------------------------
MarioKartDoubleDashBabyParkSme_2_055:
	BYTE	W12
	BYTE		N11     Dn3   v127
	BYTE	W12
	BYTE		        Dn4 
	BYTE	W12
	BYTE		        Fs4 
	BYTE	W24
	BYTE		        Dn3 
	BYTE	W12
	BYTE		        Dn4 
	BYTE	W12
	BYTE		        Fs4 
	BYTE	W12
	BYTE	PEND
// 056   ----------------------------------------
MarioKartDoubleDashBabyParkSme_2_056:
	BYTE	W12
	BYTE		N11     Dn3   v127
	BYTE	W12
	BYTE		        Fs4 
	BYTE	W12
	BYTE		        Dn4 
	BYTE	W12
	BYTE		        En4 
	BYTE	W12
	BYTE		        Fs4 
	BYTE	W12
	BYTE		        Gn4 
	BYTE	W12
	BYTE		        Dn4 
	BYTE	W12
	BYTE	PEND
// 057   ----------------------------------------
	BYTE		        Gn4 
	BYTE	W24
	BYTE		        Gn3 
	BYTE	W12
	BYTE		        Bn3 
	BYTE	W24
	BYTE		        Dn3 
	BYTE	W12
	BYTE		        Gn3 
	BYTE	W12
	BYTE		        Bn3 
	BYTE	W12
// 058   ----------------------------------------
	BYTE	PATT
	 POIN2	MarioKartDoubleDashBabyParkSme_2_050
// 059   ----------------------------------------
	BYTE	PATT
	 POIN2	MarioKartDoubleDashBabyParkSme_2_051
// 060   ----------------------------------------
	BYTE	PATT
	 POIN2	MarioKartDoubleDashBabyParkSme_2_052
// 061   ----------------------------------------
	BYTE	PATT
	 POIN2	MarioKartDoubleDashBabyParkSme_2_053
// 062   ----------------------------------------
	BYTE	PATT
	 POIN2	MarioKartDoubleDashBabyParkSme_2_054
// 063   ----------------------------------------
	BYTE	PATT
	 POIN2	MarioKartDoubleDashBabyParkSme_2_055
// 064   ----------------------------------------
	BYTE	PATT
	 POIN2	MarioKartDoubleDashBabyParkSme_2_056
// 065   ----------------------------------------
	BYTE		N11     Gn4   v127
	BYTE	W96
// 066   ----------------------------------------
	BYTE	W96
// 067   ----------------------------------------
	BYTE	W24
	BYTE		N05     Bn3 
	BYTE	W12
	BYTE		        Cn4 
	BYTE	W12
	BYTE		        Dn4 
	BYTE	W12
	BYTE		        Bn3 
	BYTE	W12
	BYTE		        Cn4 
	BYTE	W12
	BYTE		N16     En4 
	BYTE	W12
// 068   ----------------------------------------
	BYTE	W12
	BYTE		N05   
	BYTE	W12
	BYTE		        Dn4 
	BYTE	W12
	BYTE		        En4 
	BYTE	W12
	BYTE		        Dn4 
	BYTE	W12
	BYTE		        Cn4 
	BYTE	W12
	BYTE		N16     Bn3 
	BYTE	W24
// 069   ----------------------------------------
	BYTE		N11     An3 
	BYTE	W96
// 070   ----------------------------------------
	BYTE	W96
// 071   ----------------------------------------
	BYTE	W96
// 072   ----------------------------------------
	BYTE	W96
// 073   ----------------------------------------
	BYTE	W24
	BYTE	GoTo
	 POIN2	MarioKartDoubleDashBabyParkSme_2_B1
MarioKartDoubleDashBabyParkSme_2_B2:
	BYTE	FINE

//**************** Track 3 (Midi-Chn.4) ****************//

MarioKartDoubleDashBabyParkSme_3:
	BYTE	KEYSH   MarioKartDoubleDashBabyParkSme_key+0
// 000   ----------------------------------------
	BYTE		VOICE   61
	BYTE		VOL     101*MarioKartDoubleDashBabyParkSme_mvl/mxv
	BYTE		PAN     c_v+36
	BYTE	W96
// 001   ----------------------------------------
	BYTE	W24
MarioKartDoubleDashBabyParkSme_3_B1:
	BYTE	W72
// 002   ----------------------------------------
MarioKartDoubleDashBabyParkSme_3_002:
	BYTE	W24
	BYTE		N21     Cn3   v112
	BYTE		N21     Cn4 
	BYTE	W24
	BYTE		        An2 
	BYTE		N21     An3 
	BYTE	W24
	BYTE		        Cn3 
	BYTE		N21     Cn4 
	BYTE	W24
	BYTE	PEND
// 003   ----------------------------------------
	BYTE		        An2 
	BYTE		N21     An3 
	BYTE	W96
// 004   ----------------------------------------
MarioKartDoubleDashBabyParkSme_3_004:
	BYTE	W24
	BYTE		N21     Cn3   v112
	BYTE		N21     Cn4 
	BYTE	W24
	BYTE		        As2 
	BYTE		N21     As3 
	BYTE	W24
	BYTE		        An2 
	BYTE		N21     An3 
	BYTE	W24
	BYTE	PEND
// 005   ----------------------------------------
	BYTE		        Gn2 
	BYTE		N21     Gn3 
	BYTE	W96
// 006   ----------------------------------------
	BYTE	W96
// 007   ----------------------------------------
	BYTE	W36
	BYTE		N05     As2 
	BYTE		N05     As3 
	BYTE	W06
	BYTE		        As2 
	BYTE		N05     As3 
	BYTE	W06
	BYTE		        As2 
	BYTE		N05     As3 
	BYTE	W12
	BYTE		        An2 
	BYTE		N05     An3 
	BYTE	W12
	BYTE		N11     As2 
	BYTE		N11     As3 
	BYTE	W12
	BYTE		N05     An2 
	BYTE		N05     An3 
	BYTE	W12
// 008   ----------------------------------------
	BYTE		        Gn2 
	BYTE		N05     Gn3 
	BYTE	W12
	BYTE		        Fn2 
	BYTE		N05     Fn3 
	BYTE	W12
	BYTE		N21     En2 
	BYTE		N21     En3 
	BYTE	W24
	BYTE		        Fn2 
	BYTE		N21     Fn3 
	BYTE	W24
	BYTE		        Gn2 
	BYTE		N21     Gn3 
	BYTE	W24
// 009   ----------------------------------------
	BYTE		        Cn2 
	BYTE		N21     Cn3 
	BYTE	W96
// 010   ----------------------------------------
	BYTE	PATT
	 POIN2	MarioKartDoubleDashBabyParkSme_3_002
// 011   ----------------------------------------
	BYTE		N21     An2   v112
	BYTE		N21     An3 
	BYTE	W96
// 012   ----------------------------------------
	BYTE	PATT
	 POIN2	MarioKartDoubleDashBabyParkSme_3_004
// 013   ----------------------------------------
	BYTE		N21     Gn2   v112
	BYTE		N21     Gn3 
	BYTE	W96
// 014   ----------------------------------------
	BYTE	W96
// 015   ----------------------------------------
	BYTE	W96
// 016   ----------------------------------------
	BYTE	W96
// 017   ----------------------------------------
	BYTE	W96
// 018   ----------------------------------------
MarioKartDoubleDashBabyParkSme_3_018:
	BYTE	W24
	BYTE		N21     Cs3   v112
	BYTE		N21     Cs4 
	BYTE	W24
	BYTE		        As2 
	BYTE		N21     As3 
	BYTE	W24
	BYTE		        Cs3 
	BYTE		N21     Cs4 
	BYTE	W24
	BYTE	PEND
// 019   ----------------------------------------
	BYTE		        As2 
	BYTE		N21     As3 
	BYTE	W96
// 020   ----------------------------------------
MarioKartDoubleDashBabyParkSme_3_020:
	BYTE	W24
	BYTE		N21     Cs3   v112
	BYTE		N21     Cs4 
	BYTE	W24
	BYTE		        Bn2 
	BYTE		N21     Bn3 
	BYTE	W24
	BYTE		        As2 
	BYTE		N21     As3 
	BYTE	W24
	BYTE	PEND
// 021   ----------------------------------------
	BYTE		        Gs2 
	BYTE		N21     Gs3 
	BYTE	W96
// 022   ----------------------------------------
	BYTE	W96
// 023   ----------------------------------------
	BYTE	W36
	BYTE		N05     Bn2 
	BYTE		N05     Bn3 
	BYTE	W06
	BYTE		        Bn2 
	BYTE		N05     Bn3 
	BYTE	W06
	BYTE		        Bn2 
	BYTE		N05     Bn3 
	BYTE	W12
	BYTE		        As2 
	BYTE		N05     As3 
	BYTE	W12
	BYTE		N11     Bn2 
	BYTE		N11     Bn3 
	BYTE	W12
	BYTE		N05     As2 
	BYTE		N05     As3 
	BYTE	W12
// 024   ----------------------------------------
	BYTE		        Gs2 
	BYTE		N05     Gs3 
	BYTE	W12
	BYTE		        Fs2 
	BYTE		N05     Fs3 
	BYTE	W12
	BYTE		N21     Fn2 
	BYTE		N21     Fn3 
	BYTE	W24
	BYTE		        Fs2 
	BYTE		N21     Fs3 
	BYTE	W24
	BYTE		        Gs2 
	BYTE		N21     Gs3 
	BYTE	W24
// 025   ----------------------------------------
	BYTE		        Cs2 
	BYTE		N21     Cs3 
	BYTE	W96
// 026   ----------------------------------------
	BYTE	PATT
	 POIN2	MarioKartDoubleDashBabyParkSme_3_018
// 027   ----------------------------------------
	BYTE		N21     As2   v112
	BYTE		N21     As3 
	BYTE	W96
// 028   ----------------------------------------
	BYTE	PATT
	 POIN2	MarioKartDoubleDashBabyParkSme_3_020
// 029   ----------------------------------------
	BYTE		N21     Gs2   v112
	BYTE		N21     Gs3 
	BYTE	W96
// 030   ----------------------------------------
	BYTE	W96
// 031   ----------------------------------------
	BYTE	W96
// 032   ----------------------------------------
	BYTE	W96
// 033   ----------------------------------------
	BYTE	W96
// 034   ----------------------------------------
MarioKartDoubleDashBabyParkSme_3_034:
	BYTE	W24
	BYTE		N21     Dn3   v112
	BYTE		N21     Dn4 
	BYTE	W24
	BYTE		        Bn2 
	BYTE		N21     Bn3 
	BYTE	W24
	BYTE		        Dn3 
	BYTE		N21     Dn4 
	BYTE	W24
	BYTE	PEND
// 035   ----------------------------------------
	BYTE		        Bn2 
	BYTE		N21     Bn3 
	BYTE	W96
// 036   ----------------------------------------
MarioKartDoubleDashBabyParkSme_3_036:
	BYTE	W24
	BYTE		N21     Dn3   v112
	BYTE		N21     Dn4 
	BYTE	W24
	BYTE		        Cn3 
	BYTE		N21     Cn4 
	BYTE	W24
	BYTE		        Bn2 
	BYTE		N21     Bn3 
	BYTE	W24
	BYTE	PEND
// 037   ----------------------------------------
	BYTE		        An2 
	BYTE		N21     An3 
	BYTE	W96
// 038   ----------------------------------------
	BYTE	W96
// 039   ----------------------------------------
	BYTE	W36
	BYTE		N05     Cn3 
	BYTE		N05     Cn4 
	BYTE	W06
	BYTE		        Cn3 
	BYTE		N05     Cn4 
	BYTE	W06
	BYTE		        Cn3 
	BYTE		N05     Cn4 
	BYTE	W12
	BYTE		        Bn2 
	BYTE		N05     Bn3 
	BYTE	W12
	BYTE		N11     Cn3 
	BYTE		N11     Cn4 
	BYTE	W12
	BYTE		N05     Bn2 
	BYTE		N05     Bn3 
	BYTE	W12
// 040   ----------------------------------------
	BYTE		        An2 
	BYTE		N05     An3 
	BYTE	W12
	BYTE		        Gn2 
	BYTE		N05     Gn3 
	BYTE	W12
	BYTE		N21     Fs2 
	BYTE		N21     Fs3 
	BYTE	W24
	BYTE		        Gn2 
	BYTE		N21     Gn3 
	BYTE	W24
	BYTE		        An2 
	BYTE		N21     An3 
	BYTE	W24
// 041   ----------------------------------------
	BYTE		        Dn2 
	BYTE		N21     Dn3 
	BYTE	W96
// 042   ----------------------------------------
	BYTE	PATT
	 POIN2	MarioKartDoubleDashBabyParkSme_3_034
// 043   ----------------------------------------
	BYTE		N21     Bn2   v112
	BYTE		N21     Bn3 
	BYTE	W96
// 044   ----------------------------------------
	BYTE	PATT
	 POIN2	MarioKartDoubleDashBabyParkSme_3_036
// 045   ----------------------------------------
	BYTE		N21     An2   v112
	BYTE		N21     An3 
	BYTE	W96
// 046   ----------------------------------------
	BYTE	W96
// 047   ----------------------------------------
	BYTE	W96
// 048   ----------------------------------------
	BYTE	W96
// 049   ----------------------------------------
	BYTE	W96
// 050   ----------------------------------------
	BYTE	W96
// 051   ----------------------------------------
	BYTE	W96
// 052   ----------------------------------------
	BYTE	W96
// 053   ----------------------------------------
	BYTE	W96
// 054   ----------------------------------------
	BYTE	W96
// 055   ----------------------------------------
	BYTE	W96
// 056   ----------------------------------------
	BYTE	W96
// 057   ----------------------------------------
	BYTE	W96
// 058   ----------------------------------------
	BYTE	W96
// 059   ----------------------------------------
	BYTE	W96
// 060   ----------------------------------------
	BYTE	W96
// 061   ----------------------------------------
	BYTE	W96
// 062   ----------------------------------------
	BYTE	W96
// 063   ----------------------------------------
	BYTE	W96
// 064   ----------------------------------------
	BYTE	W96
// 065   ----------------------------------------
	BYTE	W36
	BYTE		N22     Gn3   v127
	BYTE		N22     Gn4 
	BYTE	W24
	BYTE		N05     Gn3 
	BYTE		N05     Gn4 
	BYTE	W06
	BYTE		        Gn3 
	BYTE		N05     Gn4 
	BYTE	W06
	BYTE		        En3 
	BYTE		N05     En4 
	BYTE	W12
	BYTE		        En3 
	BYTE		N05     En4 
	BYTE	W12
// 066   ----------------------------------------
	BYTE		        En3 
	BYTE		N05     En4 
	BYTE	W12
	BYTE		        En3 
	BYTE		N05     En4 
	BYTE	W12
	BYTE		N19     Dn3 
	BYTE		N19     Dn4 
	BYTE	W24
	BYTE		        Dn3 
	BYTE		N19     Dn4 
	BYTE	W24
	BYTE		        Cn3 
	BYTE		N19     Cn4 
	BYTE	W24
// 067   ----------------------------------------
	BYTE		        Cn3 
	BYTE		N19     Cn4 
	BYTE	W96
// 068   ----------------------------------------
	BYTE	W96
// 069   ----------------------------------------
	BYTE	W36
	BYTE		N22     Gn3 
	BYTE		N22     Gn4 
	BYTE	W24
	BYTE		N05     Gn3 
	BYTE		N05     Gn4 
	BYTE	W06
	BYTE		        Gn3 
	BYTE		N05     Gn4 
	BYTE	W06
	BYTE		        Fs3 
	BYTE		N05     Fs4 
	BYTE	W12
	BYTE		        Gn3 
	BYTE		N05     Gn4 
	BYTE	W12
// 070   ----------------------------------------
	BYTE		        Fs3 
	BYTE		N05     Fs4 
	BYTE	W12
	BYTE		        En3 
	BYTE		N05     En4 
	BYTE	W12
	BYTE		N19     Dn3 
	BYTE		N19     Dn4 
	BYTE	W24
	BYTE		        Dn3 
	BYTE		N19     Dn4 
	BYTE	W24
	BYTE		        Cn3 
	BYTE		N19     Cn4 
	BYTE	W24
// 071   ----------------------------------------
	BYTE		        Cn3 
	BYTE		N19     Cn4 
	BYTE	W96
// 072   ----------------------------------------
	BYTE	W96
// 073   ----------------------------------------
	BYTE	W24
	BYTE	GoTo
	 POIN2	MarioKartDoubleDashBabyParkSme_3_B1
MarioKartDoubleDashBabyParkSme_3_B2:
	BYTE	FINE

//**************** Track 4 (Midi-Chn.5) ****************//

MarioKartDoubleDashBabyParkSme_4:
	BYTE	KEYSH   MarioKartDoubleDashBabyParkSme_key+0
// 000   ----------------------------------------
	BYTE		VOICE   41
	BYTE		VOL     67*MarioKartDoubleDashBabyParkSme_mvl/mxv
	BYTE		PAN     c_v-36
	BYTE	W96
// 001   ----------------------------------------
	BYTE	W24
MarioKartDoubleDashBabyParkSme_4_B1:
	BYTE		N20     Fn1   v112
	BYTE	W24
	BYTE		        Cn1 
	BYTE	W24
	BYTE		        Fn1 
	BYTE	W24
// 002   ----------------------------------------
MarioKartDoubleDashBabyParkSme_4_002:
	BYTE		N20     Cn1   v112
	BYTE	W24
	BYTE		        Fn1 
	BYTE	W24
	BYTE		        Cn1 
	BYTE	W24
	BYTE		        Dn1 
	BYTE	W24
	BYTE	PEND
// 003   ----------------------------------------
MarioKartDoubleDashBabyParkSme_4_003:
	BYTE		N20     En1   v112
	BYTE	W24
	BYTE		        Fn1 
	BYTE	W24
	BYTE		        Cn1 
	BYTE	W24
	BYTE		        Fn1 
	BYTE	W24
	BYTE	PEND
// 004   ----------------------------------------
	BYTE	PATT
	 POIN2	MarioKartDoubleDashBabyParkSme_4_002
// 005   ----------------------------------------
MarioKartDoubleDashBabyParkSme_4_005:
	BYTE		N20     En1   v112
	BYTE	W24
	BYTE		        Fn1 
	BYTE	W24
	BYTE		        Cn1 
	BYTE	W24
	BYTE		        Gn1 
	BYTE	W24
	BYTE	PEND
// 006   ----------------------------------------
MarioKartDoubleDashBabyParkSme_4_006:
	BYTE		N20     Cn1   v112
	BYTE	W24
	BYTE		        An1 
	BYTE	W24
	BYTE		        Cn1 
	BYTE	W24
	BYTE		        Fn1 
	BYTE	W24
	BYTE	PEND
// 007   ----------------------------------------
	BYTE		        Cn1 
	BYTE	W24
	BYTE		        Gn1 
	BYTE	W24
	BYTE		        Cn1 
	BYTE	W24
	BYTE		        Gn1 
	BYTE	W24
// 008   ----------------------------------------
	BYTE		        Cn1 
	BYTE	W24
	BYTE		        Gn1 
	BYTE	W24
	BYTE		        Cn1 
	BYTE	W24
	BYTE		        Dn1 
	BYTE	W24
// 009   ----------------------------------------
	BYTE	PATT
	 POIN2	MarioKartDoubleDashBabyParkSme_4_003
// 010   ----------------------------------------
	BYTE	PATT
	 POIN2	MarioKartDoubleDashBabyParkSme_4_002
// 011   ----------------------------------------
	BYTE	PATT
	 POIN2	MarioKartDoubleDashBabyParkSme_4_003
// 012   ----------------------------------------
	BYTE	PATT
	 POIN2	MarioKartDoubleDashBabyParkSme_4_002
// 013   ----------------------------------------
	BYTE	PATT
	 POIN2	MarioKartDoubleDashBabyParkSme_4_005
// 014   ----------------------------------------
	BYTE	PATT
	 POIN2	MarioKartDoubleDashBabyParkSme_4_006
// 015   ----------------------------------------
	BYTE		N20     Cn1   v112
	BYTE	W24
	BYTE		        As0 
	BYTE	W24
	BYTE		N20   
	BYTE	W24
	BYTE		        Cn1 
	BYTE	W24
// 016   ----------------------------------------
	BYTE		N20   
	BYTE	W24
	BYTE		        Fn1 
	BYTE	W24
	BYTE		        Cn1 
	BYTE	W24
	BYTE		        Fn1 
	BYTE	W24
// 017   ----------------------------------------
MarioKartDoubleDashBabyParkSme_4_017:
	BYTE		N20     Fn1   v112
	BYTE	W24
	BYTE		        Fs1 
	BYTE	W24
	BYTE		        Cs1 
	BYTE	W24
	BYTE		        Fs1 
	BYTE	W24
	BYTE	PEND
// 018   ----------------------------------------
MarioKartDoubleDashBabyParkSme_4_018:
	BYTE		N20     Cs1   v112
	BYTE	W24
	BYTE		        Fs1 
	BYTE	W24
	BYTE		        Cs1 
	BYTE	W24
	BYTE		        Ds1 
	BYTE	W24
	BYTE	PEND
// 019   ----------------------------------------
	BYTE	PATT
	 POIN2	MarioKartDoubleDashBabyParkSme_4_017
// 020   ----------------------------------------
	BYTE	PATT
	 POIN2	MarioKartDoubleDashBabyParkSme_4_018
// 021   ----------------------------------------
MarioKartDoubleDashBabyParkSme_4_021:
	BYTE		N20     Fn1   v112
	BYTE	W24
	BYTE		        Fs1 
	BYTE	W24
	BYTE		        Cs1 
	BYTE	W24
	BYTE		        Gs1 
	BYTE	W24
	BYTE	PEND
// 022   ----------------------------------------
MarioKartDoubleDashBabyParkSme_4_022:
	BYTE		N20     Cs1   v112
	BYTE	W24
	BYTE		        As1 
	BYTE	W24
	BYTE		        Cs1 
	BYTE	W24
	BYTE		        Fs1 
	BYTE	W24
	BYTE	PEND
// 023   ----------------------------------------
	BYTE		        Cs1 
	BYTE	W24
	BYTE		        Gs1 
	BYTE	W24
	BYTE		        Cs1 
	BYTE	W24
	BYTE		        Gs1 
	BYTE	W24
// 024   ----------------------------------------
	BYTE		        Cs1 
	BYTE	W24
	BYTE		        Gs1 
	BYTE	W24
	BYTE		        Cs1 
	BYTE	W24
	BYTE		        Ds1 
	BYTE	W24
// 025   ----------------------------------------
	BYTE	PATT
	 POIN2	MarioKartDoubleDashBabyParkSme_4_017
// 026   ----------------------------------------
	BYTE	PATT
	 POIN2	MarioKartDoubleDashBabyParkSme_4_018
// 027   ----------------------------------------
	BYTE	PATT
	 POIN2	MarioKartDoubleDashBabyParkSme_4_017
// 028   ----------------------------------------
	BYTE	PATT
	 POIN2	MarioKartDoubleDashBabyParkSme_4_018
// 029   ----------------------------------------
	BYTE	PATT
	 POIN2	MarioKartDoubleDashBabyParkSme_4_021
// 030   ----------------------------------------
	BYTE	PATT
	 POIN2	MarioKartDoubleDashBabyParkSme_4_022
// 031   ----------------------------------------
	BYTE		N20     Cs1   v112
	BYTE	W24
	BYTE		        Bn0 
	BYTE	W24
	BYTE		N20   
	BYTE	W24
	BYTE		        Cs1 
	BYTE	W24
// 032   ----------------------------------------
	BYTE		N20   
	BYTE	W24
	BYTE		        Fs1 
	BYTE	W24
	BYTE		        Cs1 
	BYTE	W24
	BYTE		        Fs1 
	BYTE	W24
// 033   ----------------------------------------
MarioKartDoubleDashBabyParkSme_4_033:
	BYTE		N20     Fs1   v112
	BYTE	W24
	BYTE		        Gn1 
	BYTE	W24
	BYTE		        Dn1 
	BYTE	W24
	BYTE		        Gn1 
	BYTE	W24
	BYTE	PEND
// 034   ----------------------------------------
MarioKartDoubleDashBabyParkSme_4_034:
	BYTE		N20     Dn1   v112
	BYTE	W24
	BYTE		        Gn1 
	BYTE	W24
	BYTE		        Dn1 
	BYTE	W24
	BYTE		        En1 
	BYTE	W24
	BYTE	PEND
// 035   ----------------------------------------
	BYTE	PATT
	 POIN2	MarioKartDoubleDashBabyParkSme_4_033
// 036   ----------------------------------------
	BYTE	PATT
	 POIN2	MarioKartDoubleDashBabyParkSme_4_034
// 037   ----------------------------------------
MarioKartDoubleDashBabyParkSme_4_037:
	BYTE		N20     Fs1   v112
	BYTE	W24
	BYTE		        Gn1 
	BYTE	W24
	BYTE		        Dn1 
	BYTE	W24
	BYTE		        An1 
	BYTE	W24
	BYTE	PEND
// 038   ----------------------------------------
MarioKartDoubleDashBabyParkSme_4_038:
	BYTE		N20     Dn1   v112
	BYTE	W24
	BYTE		        Bn1 
	BYTE	W24
	BYTE		        Dn1 
	BYTE	W24
	BYTE		        Gn1 
	BYTE	W24
	BYTE	PEND
// 039   ----------------------------------------
	BYTE		        Dn1 
	BYTE	W24
	BYTE		        An1 
	BYTE	W24
	BYTE		        Dn1 
	BYTE	W24
	BYTE		        An1 
	BYTE	W24
// 040   ----------------------------------------
	BYTE		        Dn1 
	BYTE	W24
	BYTE		        An1 
	BYTE	W24
	BYTE		        Dn1 
	BYTE	W24
	BYTE		        En1 
	BYTE	W24
// 041   ----------------------------------------
	BYTE	PATT
	 POIN2	MarioKartDoubleDashBabyParkSme_4_033
// 042   ----------------------------------------
	BYTE	PATT
	 POIN2	MarioKartDoubleDashBabyParkSme_4_034
// 043   ----------------------------------------
	BYTE	PATT
	 POIN2	MarioKartDoubleDashBabyParkSme_4_033
// 044   ----------------------------------------
	BYTE	PATT
	 POIN2	MarioKartDoubleDashBabyParkSme_4_034
// 045   ----------------------------------------
	BYTE	PATT
	 POIN2	MarioKartDoubleDashBabyParkSme_4_037
// 046   ----------------------------------------
	BYTE	PATT
	 POIN2	MarioKartDoubleDashBabyParkSme_4_038
// 047   ----------------------------------------
	BYTE		N20     Dn1   v112
	BYTE	W24
	BYTE		        Cn1 
	BYTE	W24
	BYTE		N20   
	BYTE	W24
	BYTE		        Dn1 
	BYTE	W24
// 048   ----------------------------------------
MarioKartDoubleDashBabyParkSme_4_048:
	BYTE		N20     Dn1   v112
	BYTE	W24
	BYTE		        Gn1 
	BYTE	W24
	BYTE		        Dn1 
	BYTE	W24
	BYTE		        Gn1 
	BYTE	W24
	BYTE	PEND
// 049   ----------------------------------------
	BYTE		N20   
	BYTE	W24
	BYTE		N20   
	BYTE	W24
	BYTE		        Dn1 
	BYTE	W24
	BYTE		        Gn1 
	BYTE	W24
// 050   ----------------------------------------
MarioKartDoubleDashBabyParkSme_4_050:
	BYTE		N20     Dn1   v112
	BYTE	W24
	BYTE		        Gn1 
	BYTE	W24
	BYTE		        Dn1 
	BYTE	W24
	BYTE		        An1 
	BYTE	W24
	BYTE	PEND
// 051   ----------------------------------------
MarioKartDoubleDashBabyParkSme_4_051:
	BYTE		N20     Dn1   v112
	BYTE	W24
	BYTE		        An1 
	BYTE	W24
	BYTE		        Dn1 
	BYTE	W24
	BYTE		        Fs1 
	BYTE	W24
	BYTE	PEND
// 052   ----------------------------------------
MarioKartDoubleDashBabyParkSme_4_052:
	BYTE		N20     Dn1   v112
	BYTE	W24
	BYTE		        An1 
	BYTE	W24
	BYTE		        Dn1 
	BYTE	W24
	BYTE		        Gn1 
	BYTE	W24
	BYTE	PEND
// 053   ----------------------------------------
	BYTE	PATT
	 POIN2	MarioKartDoubleDashBabyParkSme_4_048
// 054   ----------------------------------------
	BYTE	PATT
	 POIN2	MarioKartDoubleDashBabyParkSme_4_050
// 055   ----------------------------------------
	BYTE	PATT
	 POIN2	MarioKartDoubleDashBabyParkSme_4_051
// 056   ----------------------------------------
	BYTE	PATT
	 POIN2	MarioKartDoubleDashBabyParkSme_4_052
// 057   ----------------------------------------
	BYTE	PATT
	 POIN2	MarioKartDoubleDashBabyParkSme_4_048
// 058   ----------------------------------------
	BYTE	PATT
	 POIN2	MarioKartDoubleDashBabyParkSme_4_050
// 059   ----------------------------------------
	BYTE	PATT
	 POIN2	MarioKartDoubleDashBabyParkSme_4_051
// 060   ----------------------------------------
	BYTE	PATT
	 POIN2	MarioKartDoubleDashBabyParkSme_4_052
// 061   ----------------------------------------
	BYTE	PATT
	 POIN2	MarioKartDoubleDashBabyParkSme_4_048
// 062   ----------------------------------------
	BYTE	PATT
	 POIN2	MarioKartDoubleDashBabyParkSme_4_050
// 063   ----------------------------------------
	BYTE	PATT
	 POIN2	MarioKartDoubleDashBabyParkSme_4_051
// 064   ----------------------------------------
	BYTE	PATT
	 POIN2	MarioKartDoubleDashBabyParkSme_4_052
// 065   ----------------------------------------
MarioKartDoubleDashBabyParkSme_4_065:
	BYTE		N20     Dn1   v112
	BYTE	W24
	BYTE		        Gn1 
	BYTE	W24
	BYTE		        Dn1 
	BYTE	W24
	BYTE		        Cn1 
	BYTE	W24
	BYTE	PEND
// 066   ----------------------------------------
MarioKartDoubleDashBabyParkSme_4_066:
	BYTE		N20     Gn1   v112
	BYTE	W24
	BYTE		        Bn0 
	BYTE	W24
	BYTE		        Gn1 
	BYTE	W24
	BYTE		        Cn1 
	BYTE	W24
	BYTE	PEND
// 067   ----------------------------------------
MarioKartDoubleDashBabyParkSme_4_067:
	BYTE		N20     Gn1   v112
	BYTE	W24
	BYTE		N20   
	BYTE	W24
	BYTE		        Dn1 
	BYTE	W24
	BYTE		        An1 
	BYTE	W24
	BYTE	PEND
// 068   ----------------------------------------
MarioKartDoubleDashBabyParkSme_4_068:
	BYTE		N20     Dn1   v112
	BYTE	W24
	BYTE		        Bn1 
	BYTE	W24
	BYTE		        Dn1 
	BYTE	W24
	BYTE		        An1 
	BYTE	W24
	BYTE	PEND
// 069   ----------------------------------------
	BYTE	PATT
	 POIN2	MarioKartDoubleDashBabyParkSme_4_065
// 070   ----------------------------------------
	BYTE	PATT
	 POIN2	MarioKartDoubleDashBabyParkSme_4_066
// 071   ----------------------------------------
	BYTE	PATT
	 POIN2	MarioKartDoubleDashBabyParkSme_4_067
// 072   ----------------------------------------
	BYTE	PATT
	 POIN2	MarioKartDoubleDashBabyParkSme_4_068
// 073   ----------------------------------------
	BYTE		N20     Dn1   v112
	BYTE	W24
	BYTE	GoTo
	 POIN2	MarioKartDoubleDashBabyParkSme_4_B1
MarioKartDoubleDashBabyParkSme_4_B2:
	BYTE	FINE

//**************** Track 5 (Midi-Chn.6) ****************//

MarioKartDoubleDashBabyParkSme_5:
	BYTE	KEYSH   MarioKartDoubleDashBabyParkSme_key+0
// 000   ----------------------------------------
	BYTE		VOICE   39
	BYTE		VOL     76*MarioKartDoubleDashBabyParkSme_mvl/mxv
	BYTE		PAN     c_v+36
	BYTE	W19
	BYTE		VOICE   39
	BYTE	W76
	BYTE	W01
// 001   ----------------------------------------
	BYTE	W24
MarioKartDoubleDashBabyParkSme_5_B1:
	BYTE		N20     Fn1   v112
	BYTE	W24
	BYTE		        Cn1 
	BYTE	W24
	BYTE		        Fn1 
	BYTE	W24
// 002   ----------------------------------------
MarioKartDoubleDashBabyParkSme_5_002:
	BYTE		N20     Cn1   v112
	BYTE	W24
	BYTE		        Fn1 
	BYTE	W24
	BYTE		        Cn1 
	BYTE	W24
	BYTE		        Dn1 
	BYTE	W24
	BYTE	PEND
// 003   ----------------------------------------
MarioKartDoubleDashBabyParkSme_5_003:
	BYTE		N20     En1   v112
	BYTE	W24
	BYTE		        Fn1 
	BYTE	W24
	BYTE		        Cn1 
	BYTE	W24
	BYTE		        Fn1 
	BYTE	W24
	BYTE	PEND
// 004   ----------------------------------------
	BYTE	PATT
	 POIN2	MarioKartDoubleDashBabyParkSme_5_002
// 005   ----------------------------------------
MarioKartDoubleDashBabyParkSme_5_005:
	BYTE		N20     En1   v112
	BYTE	W24
	BYTE		        Fn1 
	BYTE	W24
	BYTE		        Cn1 
	BYTE	W24
	BYTE		        Gn1 
	BYTE	W24
	BYTE	PEND
// 006   ----------------------------------------
MarioKartDoubleDashBabyParkSme_5_006:
	BYTE		N20     Cn1   v112
	BYTE	W24
	BYTE		        An1 
	BYTE	W24
	BYTE		        Cn1 
	BYTE	W24
	BYTE		        Fn1 
	BYTE	W24
	BYTE	PEND
// 007   ----------------------------------------
	BYTE		        Cn1 
	BYTE	W24
	BYTE		        Gn1 
	BYTE	W24
	BYTE		        Cn1 
	BYTE	W24
	BYTE		        Gn1 
	BYTE	W24
// 008   ----------------------------------------
	BYTE		        Cn1 
	BYTE	W24
	BYTE		        Gn1 
	BYTE	W24
	BYTE		        Cn1 
	BYTE	W24
	BYTE		        Dn1 
	BYTE	W24
// 009   ----------------------------------------
	BYTE	PATT
	 POIN2	MarioKartDoubleDashBabyParkSme_5_003
// 010   ----------------------------------------
	BYTE	PATT
	 POIN2	MarioKartDoubleDashBabyParkSme_5_002
// 011   ----------------------------------------
	BYTE	PATT
	 POIN2	MarioKartDoubleDashBabyParkSme_5_003
// 012   ----------------------------------------
	BYTE	PATT
	 POIN2	MarioKartDoubleDashBabyParkSme_5_002
// 013   ----------------------------------------
	BYTE	PATT
	 POIN2	MarioKartDoubleDashBabyParkSme_5_005
// 014   ----------------------------------------
	BYTE	PATT
	 POIN2	MarioKartDoubleDashBabyParkSme_5_006
// 015   ----------------------------------------
	BYTE		N20     Cn1   v112
	BYTE	W24
	BYTE		        As0 
	BYTE	W24
	BYTE		N20   
	BYTE	W24
	BYTE		        Cn1 
	BYTE	W24
// 016   ----------------------------------------
	BYTE		N20   
	BYTE	W24
	BYTE		        Fn1 
	BYTE	W24
	BYTE		        Cn1 
	BYTE	W24
	BYTE		        Fn1 
	BYTE	W24
// 017   ----------------------------------------
MarioKartDoubleDashBabyParkSme_5_017:
	BYTE		N20     Fn1   v112
	BYTE	W24
	BYTE		        Fs1 
	BYTE	W24
	BYTE		        Cs1 
	BYTE	W24
	BYTE		        Fs1 
	BYTE	W24
	BYTE	PEND
// 018   ----------------------------------------
MarioKartDoubleDashBabyParkSme_5_018:
	BYTE		N20     Cs1   v112
	BYTE	W24
	BYTE		        Fs1 
	BYTE	W24
	BYTE		        Cs1 
	BYTE	W24
	BYTE		        Ds1 
	BYTE	W24
	BYTE	PEND
// 019   ----------------------------------------
	BYTE	PATT
	 POIN2	MarioKartDoubleDashBabyParkSme_5_017
// 020   ----------------------------------------
	BYTE	PATT
	 POIN2	MarioKartDoubleDashBabyParkSme_5_018
// 021   ----------------------------------------
MarioKartDoubleDashBabyParkSme_5_021:
	BYTE		N20     Fn1   v112
	BYTE	W24
	BYTE		        Fs1 
	BYTE	W24
	BYTE		        Cs1 
	BYTE	W24
	BYTE		        Gs1 
	BYTE	W24
	BYTE	PEND
// 022   ----------------------------------------
MarioKartDoubleDashBabyParkSme_5_022:
	BYTE		N20     Cs1   v112
	BYTE	W24
	BYTE		        As1 
	BYTE	W24
	BYTE		        Cs1 
	BYTE	W24
	BYTE		        Fs1 
	BYTE	W24
	BYTE	PEND
// 023   ----------------------------------------
	BYTE		        Cs1 
	BYTE	W24
	BYTE		        Gs1 
	BYTE	W24
	BYTE		        Cs1 
	BYTE	W24
	BYTE		        Gs1 
	BYTE	W24
// 024   ----------------------------------------
	BYTE		        Cs1 
	BYTE	W24
	BYTE		        Gs1 
	BYTE	W24
	BYTE		        Cs1 
	BYTE	W24
	BYTE		        Ds1 
	BYTE	W24
// 025   ----------------------------------------
	BYTE	PATT
	 POIN2	MarioKartDoubleDashBabyParkSme_5_017
// 026   ----------------------------------------
	BYTE	PATT
	 POIN2	MarioKartDoubleDashBabyParkSme_5_018
// 027   ----------------------------------------
	BYTE	PATT
	 POIN2	MarioKartDoubleDashBabyParkSme_5_017
// 028   ----------------------------------------
	BYTE	PATT
	 POIN2	MarioKartDoubleDashBabyParkSme_5_018
// 029   ----------------------------------------
	BYTE	PATT
	 POIN2	MarioKartDoubleDashBabyParkSme_5_021
// 030   ----------------------------------------
	BYTE	PATT
	 POIN2	MarioKartDoubleDashBabyParkSme_5_022
// 031   ----------------------------------------
	BYTE		N20     Cs1   v112
	BYTE	W24
	BYTE		        Bn0 
	BYTE	W24
	BYTE		N20   
	BYTE	W24
	BYTE		        Cs1 
	BYTE	W24
// 032   ----------------------------------------
	BYTE		N20   
	BYTE	W24
	BYTE		        Fs1 
	BYTE	W24
	BYTE		        Cs1 
	BYTE	W24
	BYTE		        Fs1 
	BYTE	W24
// 033   ----------------------------------------
MarioKartDoubleDashBabyParkSme_5_033:
	BYTE		N20     Fs1   v112
	BYTE	W24
	BYTE		        Gn1 
	BYTE	W24
	BYTE		        Dn1 
	BYTE	W24
	BYTE		        Gn1 
	BYTE	W24
	BYTE	PEND
// 034   ----------------------------------------
MarioKartDoubleDashBabyParkSme_5_034:
	BYTE		N20     Dn1   v112
	BYTE	W24
	BYTE		        Gn1 
	BYTE	W24
	BYTE		        Dn1 
	BYTE	W24
	BYTE		        En1 
	BYTE	W24
	BYTE	PEND
// 035   ----------------------------------------
	BYTE	PATT
	 POIN2	MarioKartDoubleDashBabyParkSme_5_033
// 036   ----------------------------------------
	BYTE	PATT
	 POIN2	MarioKartDoubleDashBabyParkSme_5_034
// 037   ----------------------------------------
MarioKartDoubleDashBabyParkSme_5_037:
	BYTE		N20     Fs1   v112
	BYTE	W24
	BYTE		        Gn1 
	BYTE	W24
	BYTE		        Dn1 
	BYTE	W24
	BYTE		        An1 
	BYTE	W24
	BYTE	PEND
// 038   ----------------------------------------
MarioKartDoubleDashBabyParkSme_5_038:
	BYTE		N20     Dn1   v112
	BYTE	W24
	BYTE		        Bn1 
	BYTE	W24
	BYTE		        Dn1 
	BYTE	W24
	BYTE		        Gn1 
	BYTE	W24
	BYTE	PEND
// 039   ----------------------------------------
	BYTE		        Dn1 
	BYTE	W24
	BYTE		        An1 
	BYTE	W24
	BYTE		        Dn1 
	BYTE	W24
	BYTE		        An1 
	BYTE	W24
// 040   ----------------------------------------
	BYTE		        Dn1 
	BYTE	W24
	BYTE		        An1 
	BYTE	W24
	BYTE		        Dn1 
	BYTE	W24
	BYTE		        En1 
	BYTE	W24
// 041   ----------------------------------------
	BYTE	PATT
	 POIN2	MarioKartDoubleDashBabyParkSme_5_033
// 042   ----------------------------------------
	BYTE	PATT
	 POIN2	MarioKartDoubleDashBabyParkSme_5_034
// 043   ----------------------------------------
	BYTE	PATT
	 POIN2	MarioKartDoubleDashBabyParkSme_5_033
// 044   ----------------------------------------
	BYTE	PATT
	 POIN2	MarioKartDoubleDashBabyParkSme_5_034
// 045   ----------------------------------------
	BYTE	PATT
	 POIN2	MarioKartDoubleDashBabyParkSme_5_037
// 046   ----------------------------------------
	BYTE	PATT
	 POIN2	MarioKartDoubleDashBabyParkSme_5_038
// 047   ----------------------------------------
	BYTE		N20     Dn1   v112
	BYTE	W24
	BYTE		        Cn1 
	BYTE	W24
	BYTE		N20   
	BYTE	W24
	BYTE		        Dn1 
	BYTE	W24
// 048   ----------------------------------------
MarioKartDoubleDashBabyParkSme_5_048:
	BYTE		N20     Dn1   v112
	BYTE	W24
	BYTE		        Gn1 
	BYTE	W24
	BYTE		        Dn1 
	BYTE	W24
	BYTE		        Gn1 
	BYTE	W24
	BYTE	PEND
// 049   ----------------------------------------
	BYTE		N20   
	BYTE	W24
	BYTE		N20   
	BYTE	W24
	BYTE		        Dn1 
	BYTE	W24
	BYTE		        Gn1 
	BYTE	W24
// 050   ----------------------------------------
MarioKartDoubleDashBabyParkSme_5_050:
	BYTE		N20     Dn1   v112
	BYTE	W24
	BYTE		        Gn1 
	BYTE	W24
	BYTE		        Dn1 
	BYTE	W24
	BYTE		        An1 
	BYTE	W24
	BYTE	PEND
// 051   ----------------------------------------
MarioKartDoubleDashBabyParkSme_5_051:
	BYTE		N20     Dn1   v112
	BYTE	W24
	BYTE		        An1 
	BYTE	W24
	BYTE		        Dn1 
	BYTE	W24
	BYTE		        Fs1 
	BYTE	W24
	BYTE	PEND
// 052   ----------------------------------------
MarioKartDoubleDashBabyParkSme_5_052:
	BYTE		N20     Dn1   v112
	BYTE	W24
	BYTE		        An1 
	BYTE	W24
	BYTE		        Dn1 
	BYTE	W24
	BYTE		        Gn1 
	BYTE	W24
	BYTE	PEND
// 053   ----------------------------------------
	BYTE	PATT
	 POIN2	MarioKartDoubleDashBabyParkSme_5_048
// 054   ----------------------------------------
	BYTE	PATT
	 POIN2	MarioKartDoubleDashBabyParkSme_5_050
// 055   ----------------------------------------
	BYTE	PATT
	 POIN2	MarioKartDoubleDashBabyParkSme_5_051
// 056   ----------------------------------------
	BYTE	PATT
	 POIN2	MarioKartDoubleDashBabyParkSme_5_052
// 057   ----------------------------------------
	BYTE	PATT
	 POIN2	MarioKartDoubleDashBabyParkSme_5_048
// 058   ----------------------------------------
	BYTE	PATT
	 POIN2	MarioKartDoubleDashBabyParkSme_5_050
// 059   ----------------------------------------
	BYTE	PATT
	 POIN2	MarioKartDoubleDashBabyParkSme_5_051
// 060   ----------------------------------------
	BYTE	PATT
	 POIN2	MarioKartDoubleDashBabyParkSme_5_052
// 061   ----------------------------------------
	BYTE	PATT
	 POIN2	MarioKartDoubleDashBabyParkSme_5_048
// 062   ----------------------------------------
	BYTE	PATT
	 POIN2	MarioKartDoubleDashBabyParkSme_5_050
// 063   ----------------------------------------
	BYTE	PATT
	 POIN2	MarioKartDoubleDashBabyParkSme_5_051
// 064   ----------------------------------------
	BYTE	PATT
	 POIN2	MarioKartDoubleDashBabyParkSme_5_052
// 065   ----------------------------------------
MarioKartDoubleDashBabyParkSme_5_065:
	BYTE		N20     Dn1   v112
	BYTE	W24
	BYTE		        Gn1 
	BYTE	W24
	BYTE		        Dn1 
	BYTE	W24
	BYTE		        Cn1 
	BYTE	W24
	BYTE	PEND
// 066   ----------------------------------------
MarioKartDoubleDashBabyParkSme_5_066:
	BYTE		N20     Gn1   v112
	BYTE	W24
	BYTE		        Bn0 
	BYTE	W24
	BYTE		        Gn1 
	BYTE	W24
	BYTE		        Cn1 
	BYTE	W24
	BYTE	PEND
// 067   ----------------------------------------
MarioKartDoubleDashBabyParkSme_5_067:
	BYTE		N20     Gn1   v112
	BYTE	W24
	BYTE		N20   
	BYTE	W24
	BYTE		        Dn1 
	BYTE	W24
	BYTE		        An1 
	BYTE	W24
	BYTE	PEND
// 068   ----------------------------------------
MarioKartDoubleDashBabyParkSme_5_068:
	BYTE		N20     Dn1   v112
	BYTE	W24
	BYTE		        Bn1 
	BYTE	W24
	BYTE		        Dn1 
	BYTE	W24
	BYTE		        An1 
	BYTE	W24
	BYTE	PEND
// 069   ----------------------------------------
	BYTE	PATT
	 POIN2	MarioKartDoubleDashBabyParkSme_5_065
// 070   ----------------------------------------
	BYTE	PATT
	 POIN2	MarioKartDoubleDashBabyParkSme_5_066
// 071   ----------------------------------------
	BYTE	PATT
	 POIN2	MarioKartDoubleDashBabyParkSme_5_067
// 072   ----------------------------------------
	BYTE	PATT
	 POIN2	MarioKartDoubleDashBabyParkSme_5_068
// 073   ----------------------------------------
	BYTE		N20     Dn1   v112
	BYTE	W24
	BYTE	GoTo
	 POIN2	MarioKartDoubleDashBabyParkSme_5_B1
MarioKartDoubleDashBabyParkSme_5_B2:
	BYTE	FINE

//**************** Track 6 (Midi-Chn.7) ****************//

MarioKartDoubleDashBabyParkSme_6:
	BYTE	KEYSH   MarioKartDoubleDashBabyParkSme_key+0
// 000   ----------------------------------------
	BYTE		VOICE   60
	BYTE		VOL     81*MarioKartDoubleDashBabyParkSme_mvl/mxv
	BYTE		PAN     c_v+0
	BYTE	W84
	BYTE		N11     Cn4   v064
	BYTE	W12
// 001   ----------------------------------------
	BYTE		N03     Dn4   v100
	BYTE	W03
	BYTE		        En4 
	BYTE	W03
	BYTE		        Fn4 
	BYTE	W03
	BYTE		        Gn4 
	BYTE	W03
	BYTE		        An4 
	BYTE	W03
	BYTE		        Bn4 
	BYTE	W03
	BYTE		        Cn5 
	BYTE	W03
	BYTE		        Dn5 
	BYTE	W03
MarioKartDoubleDashBabyParkSme_6_B1:
	BYTE	W12
	BYTE		N05     Fn3   v100
	BYTE		N05     An3 
	BYTE	W24
	BYTE		        Fn3 
	BYTE		N05     An3 
	BYTE	W24
	BYTE		        Fn3 
	BYTE		N05     An3 
	BYTE	W12
// 002   ----------------------------------------
MarioKartDoubleDashBabyParkSme_6_002:
	BYTE	W12
	BYTE		N05     Fn3   v100
	BYTE		N05     An3 
	BYTE	W24
	BYTE		        Fn3 
	BYTE		N05     An3 
	BYTE	W24
	BYTE		        Fn3 
	BYTE		N05     An3 
	BYTE	W24
	BYTE		        Fn3 
	BYTE		N05     An3 
	BYTE	W12
	BYTE	PEND
// 003   ----------------------------------------
	BYTE	PATT
	 POIN2	MarioKartDoubleDashBabyParkSme_6_002
// 004   ----------------------------------------
MarioKartDoubleDashBabyParkSme_6_004:
	BYTE	W12
	BYTE		N05     Fn3   v100
	BYTE		N05     An3 
	BYTE	W24
	BYTE		        Cn3 
	BYTE		N05     En3 
	BYTE	W24
	BYTE		        Cn3 
	BYTE		N05     En3 
	BYTE	W24
	BYTE		        Cn3 
	BYTE		N05     En3 
	BYTE	W12
	BYTE	PEND
// 005   ----------------------------------------
MarioKartDoubleDashBabyParkSme_6_005:
	BYTE	W12
	BYTE		N05     Cn3   v100
	BYTE		N05     En3 
	BYTE	W24
	BYTE		        Fn3 
	BYTE		N05     An3 
	BYTE	W24
	BYTE		        Fn3 
	BYTE		N05     An3 
	BYTE	W24
	BYTE		        Fn3 
	BYTE		N05     An3 
	BYTE	W12
	BYTE	PEND
// 006   ----------------------------------------
MarioKartDoubleDashBabyParkSme_6_006:
	BYTE	W12
	BYTE		N05     Fn3   v100
	BYTE		N05     An3 
	BYTE	W24
	BYTE		        Gn3 
	BYTE		N05     Cn4 
	BYTE	W24
	BYTE		        Gn3 
	BYTE		N05     Cn4 
	BYTE	W24
	BYTE		        Fn3 
	BYTE		N05     An3 
	BYTE	W12
	BYTE	PEND
// 007   ----------------------------------------
	BYTE	W12
	BYTE		        Fn3 
	BYTE		N05     An3 
	BYTE	W24
	BYTE		        Gn3 
	BYTE		N05     Cn4 
	BYTE	W24
	BYTE		        Gn3 
	BYTE		N05     Cn4 
	BYTE	W24
	BYTE		        Gn3 
	BYTE		N05     Cn4 
	BYTE	W12
// 008   ----------------------------------------
	BYTE	W12
	BYTE		        Gn3 
	BYTE		N05     Cn4 
	BYTE	W24
	BYTE		        Gn3 
	BYTE		N05     Cn4 
	BYTE	W24
	BYTE		        Gn3 
	BYTE		N05     Cn4 
	BYTE	W24
	BYTE		        Gn3 
	BYTE		N05     Cn4 
	BYTE	W12
// 009   ----------------------------------------
	BYTE	W12
	BYTE		        Gn3 
	BYTE		N05     As3 
	BYTE	W24
	BYTE		        Fn3 
	BYTE		N05     An3 
	BYTE	W24
	BYTE		        Fn3 
	BYTE		N05     An3 
	BYTE	W24
	BYTE		        Fn3 
	BYTE		N05     An3 
	BYTE	W12
// 010   ----------------------------------------
	BYTE	PATT
	 POIN2	MarioKartDoubleDashBabyParkSme_6_002
// 011   ----------------------------------------
	BYTE	PATT
	 POIN2	MarioKartDoubleDashBabyParkSme_6_002
// 012   ----------------------------------------
	BYTE	PATT
	 POIN2	MarioKartDoubleDashBabyParkSme_6_004
// 013   ----------------------------------------
	BYTE	PATT
	 POIN2	MarioKartDoubleDashBabyParkSme_6_005
// 014   ----------------------------------------
	BYTE	PATT
	 POIN2	MarioKartDoubleDashBabyParkSme_6_006
// 015   ----------------------------------------
	BYTE	W12
	BYTE		N05     Fn3   v100
	BYTE		N05     An3 
	BYTE	W24
	BYTE		        Fn3 
	BYTE		N05     As3 
	BYTE	W24
	BYTE		        Fn3 
	BYTE		N05     As3 
	BYTE	W24
	BYTE		        En3 
	BYTE		N05     Gn3 
	BYTE	W12
// 016   ----------------------------------------
	BYTE	W12
	BYTE		        En3 
	BYTE		N05     Gn3 
	BYTE	W24
	BYTE		        An3 
	BYTE		N05     Cn4 
	BYTE	W24
	BYTE		        Fn3 
	BYTE		N05     An3 
	BYTE	W12
	BYTE		N03   
	BYTE	W03
	BYTE		        Bn3 
	BYTE	W03
	BYTE		        Cn4 
	BYTE	W03
	BYTE		        Dn4 
	BYTE	W03
	BYTE		N05     Cn3 
	BYTE		N05     Fn3 
	BYTE		N03     En4 
	BYTE	W03
	BYTE		        Fs4 
	BYTE	W03
	BYTE		        Gn4 
	BYTE	W03
	BYTE		        An4 
	BYTE	W03
// 017   ----------------------------------------
	BYTE		N23     Fn4   v127
	BYTE		N23     An4 
	BYTE	W36
	BYTE		N05     Fs3   v100
	BYTE		N05     As3 
	BYTE	W24
	BYTE		        Fs3 
	BYTE		N05     As3 
	BYTE	W24
	BYTE		        Fs3 
	BYTE		N05     As3 
	BYTE	W12
// 018   ----------------------------------------
MarioKartDoubleDashBabyParkSme_6_018:
	BYTE	W12
	BYTE		N05     Fs3   v100
	BYTE		N05     As3 
	BYTE	W24
	BYTE		        Fs3 
	BYTE		N05     As3 
	BYTE	W24
	BYTE		        Fs3 
	BYTE		N05     As3 
	BYTE	W24
	BYTE		        Fs3 
	BYTE		N05     As3 
	BYTE	W12
	BYTE	PEND
// 019   ----------------------------------------
	BYTE	PATT
	 POIN2	MarioKartDoubleDashBabyParkSme_6_018
// 020   ----------------------------------------
MarioKartDoubleDashBabyParkSme_6_020:
	BYTE	W12
	BYTE		N05     Fs3   v100
	BYTE		N05     As3 
	BYTE	W24
	BYTE		        Cs3 
	BYTE		N05     Fn3 
	BYTE	W24
	BYTE		        Cs3 
	BYTE		N05     Fn3 
	BYTE	W24
	BYTE		        Cs3 
	BYTE		N05     Fn3 
	BYTE	W12
	BYTE	PEND
// 021   ----------------------------------------
MarioKartDoubleDashBabyParkSme_6_021:
	BYTE	W12
	BYTE		N05     Cs3   v100
	BYTE		N05     Fn3 
	BYTE	W24
	BYTE		        Fs3 
	BYTE		N05     As3 
	BYTE	W24
	BYTE		        Fs3 
	BYTE		N05     As3 
	BYTE	W24
	BYTE		        Fs3 
	BYTE		N05     As3 
	BYTE	W12
	BYTE	PEND
// 022   ----------------------------------------
MarioKartDoubleDashBabyParkSme_6_022:
	BYTE	W12
	BYTE		N05     Fs3   v100
	BYTE		N05     As3 
	BYTE	W24
	BYTE		        Gs3 
	BYTE		N05     Cs4 
	BYTE	W24
	BYTE		        Gs3 
	BYTE		N05     Cs4 
	BYTE	W24
	BYTE		        Fs3 
	BYTE		N05     As3 
	BYTE	W12
	BYTE	PEND
// 023   ----------------------------------------
	BYTE	W12
	BYTE		        Fs3 
	BYTE		N05     As3 
	BYTE	W24
	BYTE		        Gs3 
	BYTE		N05     Cs4 
	BYTE	W24
	BYTE		        Gs3 
	BYTE		N05     Cs4 
	BYTE	W24
	BYTE		        Gs3 
	BYTE		N05     Cs4 
	BYTE	W12
// 024   ----------------------------------------
	BYTE	W12
	BYTE		        Gs3 
	BYTE		N05     Cs4 
	BYTE	W24
	BYTE		        Gs3 
	BYTE		N05     Cs4 
	BYTE	W24
	BYTE		        Gs3 
	BYTE		N05     Cs4 
	BYTE	W24
	BYTE		        Gs3 
	BYTE		N05     Cs4 
	BYTE	W12
// 025   ----------------------------------------
	BYTE	W12
	BYTE		        Gs3 
	BYTE		N05     Bn3 
	BYTE	W24
	BYTE		        Fs3 
	BYTE		N05     As3 
	BYTE	W24
	BYTE		        Fs3 
	BYTE		N05     As3 
	BYTE	W24
	BYTE		        Fs3 
	BYTE		N05     As3 
	BYTE	W12
// 026   ----------------------------------------
	BYTE	PATT
	 POIN2	MarioKartDoubleDashBabyParkSme_6_018
// 027   ----------------------------------------
	BYTE	PATT
	 POIN2	MarioKartDoubleDashBabyParkSme_6_018
// 028   ----------------------------------------
	BYTE	PATT
	 POIN2	MarioKartDoubleDashBabyParkSme_6_020
// 029   ----------------------------------------
	BYTE	PATT
	 POIN2	MarioKartDoubleDashBabyParkSme_6_021
// 030   ----------------------------------------
	BYTE	PATT
	 POIN2	MarioKartDoubleDashBabyParkSme_6_022
// 031   ----------------------------------------
	BYTE	W12
	BYTE		N05     Fs3   v100
	BYTE		N05     As3 
	BYTE	W24
	BYTE		        Fs3 
	BYTE		N05     Bn3 
	BYTE	W24
	BYTE		        Fs3 
	BYTE		N05     Bn3 
	BYTE	W24
	BYTE		        Fn3 
	BYTE		N05     Gs3 
	BYTE	W12
// 032   ----------------------------------------
	BYTE	W12
	BYTE		        Fn3 
	BYTE		N05     Gs3 
	BYTE	W24
	BYTE		        As3 
	BYTE		N05     Cs4 
	BYTE	W24
	BYTE		        Fs3 
	BYTE		N05     As3 
	BYTE	W12
	BYTE		N03   
	BYTE	W03
	BYTE		        Cn4 
	BYTE	W03
	BYTE		        Cs4 
	BYTE	W03
	BYTE		        Ds4 
	BYTE	W03
	BYTE		N05     Cs3 
	BYTE		N05     Fs3 
	BYTE		N03     Fn4 
	BYTE	W03
	BYTE		        Gn4 
	BYTE	W03
	BYTE		        Gs4 
	BYTE	W03
	BYTE		        As4 
	BYTE	W03
// 033   ----------------------------------------
	BYTE		N23     Fs4   v127
	BYTE	W36
	BYTE		N05     Gn3   v100
	BYTE		N05     Bn3 
	BYTE	W24
	BYTE		        Gn3 
	BYTE		N05     Bn3 
	BYTE	W24
	BYTE		        Gn3 
	BYTE		N05     Bn3 
	BYTE	W12
// 034   ----------------------------------------
MarioKartDoubleDashBabyParkSme_6_034:
	BYTE	W12
	BYTE		N05     Gn3   v100
	BYTE		N05     Bn3 
	BYTE	W24
	BYTE		        Gn3 
	BYTE		N05     Bn3 
	BYTE	W24
	BYTE		        Gn3 
	BYTE		N05     Bn3 
	BYTE	W24
	BYTE		        Gn3 
	BYTE		N05     Bn3 
	BYTE	W12
	BYTE	PEND
// 035   ----------------------------------------
	BYTE	PATT
	 POIN2	MarioKartDoubleDashBabyParkSme_6_034
// 036   ----------------------------------------
MarioKartDoubleDashBabyParkSme_6_036:
	BYTE	W12
	BYTE		N05     Gn3   v100
	BYTE		N05     Bn3 
	BYTE	W24
	BYTE		        Dn3 
	BYTE		N05     Fs3 
	BYTE	W24
	BYTE		        Dn3 
	BYTE		N05     Fs3 
	BYTE	W24
	BYTE		        Dn3 
	BYTE		N05     Fs3 
	BYTE	W12
	BYTE	PEND
// 037   ----------------------------------------
MarioKartDoubleDashBabyParkSme_6_037:
	BYTE	W12
	BYTE		N05     Dn3   v100
	BYTE		N05     Fs3 
	BYTE	W24
	BYTE		        Gn3 
	BYTE		N05     Bn3 
	BYTE	W24
	BYTE		        Gn3 
	BYTE		N05     Bn3 
	BYTE	W24
	BYTE		        Gn3 
	BYTE		N05     Bn3 
	BYTE	W12
	BYTE	PEND
// 038   ----------------------------------------
MarioKartDoubleDashBabyParkSme_6_038:
	BYTE	W12
	BYTE		N05     Gn3   v100
	BYTE		N05     Bn3 
	BYTE	W24
	BYTE		        An3 
	BYTE		N05     Dn4 
	BYTE	W24
	BYTE		        An3 
	BYTE		N05     Dn4 
	BYTE	W24
	BYTE		        Gn3 
	BYTE		N05     Bn3 
	BYTE	W12
	BYTE	PEND
// 039   ----------------------------------------
	BYTE	W12
	BYTE		        Gn3 
	BYTE		N05     Bn3 
	BYTE	W24
	BYTE		        An3 
	BYTE		N05     Dn4 
	BYTE	W24
	BYTE		        An3 
	BYTE		N05     Dn4 
	BYTE	W24
	BYTE		        An3 
	BYTE		N05     Dn4 
	BYTE	W12
// 040   ----------------------------------------
	BYTE	W12
	BYTE		        An3 
	BYTE		N05     Dn4 
	BYTE	W24
	BYTE		        An3 
	BYTE		N05     Dn4 
	BYTE	W24
	BYTE		        An3 
	BYTE		N05     Dn4 
	BYTE	W24
	BYTE		        An3 
	BYTE		N05     Dn4 
	BYTE	W12
// 041   ----------------------------------------
	BYTE	W12
	BYTE		        An3 
	BYTE		N05     Cn4 
	BYTE	W24
	BYTE		        Gn3 
	BYTE		N05     Bn3 
	BYTE	W24
	BYTE		        Gn3 
	BYTE		N05     Bn3 
	BYTE	W24
	BYTE		        Gn3 
	BYTE		N05     Bn3 
	BYTE	W12
// 042   ----------------------------------------
	BYTE	PATT
	 POIN2	MarioKartDoubleDashBabyParkSme_6_034
// 043   ----------------------------------------
	BYTE	PATT
	 POIN2	MarioKartDoubleDashBabyParkSme_6_034
// 044   ----------------------------------------
	BYTE	PATT
	 POIN2	MarioKartDoubleDashBabyParkSme_6_036
// 045   ----------------------------------------
	BYTE	PATT
	 POIN2	MarioKartDoubleDashBabyParkSme_6_037
// 046   ----------------------------------------
	BYTE	PATT
	 POIN2	MarioKartDoubleDashBabyParkSme_6_038
// 047   ----------------------------------------
	BYTE	W12
	BYTE		N05     Gn3   v100
	BYTE		N05     Bn3 
	BYTE	W24
	BYTE		        Gn3 
	BYTE		N05     Cn4 
	BYTE	W24
	BYTE		        Gn3 
	BYTE		N05     Cn4 
	BYTE	W24
	BYTE		        Fs3 
	BYTE		N05     An3 
	BYTE	W12
// 048   ----------------------------------------
	BYTE	W12
	BYTE		        Fs3 
	BYTE		N05     An3 
	BYTE	W24
	BYTE		        Bn3 
	BYTE		N05     Dn4 
	BYTE	W24
	BYTE		        Gn3 
	BYTE		N05     Bn3 
	BYTE	W12
	BYTE		N03   
	BYTE	W03
	BYTE		        Cs4 
	BYTE	W03
	BYTE		        Dn4 
	BYTE	W03
	BYTE		        En4 
	BYTE	W03
	BYTE		N05     Dn3 
	BYTE		N05     Gn3 
	BYTE		N03     Fs4 
	BYTE	W03
	BYTE		        Gs4 
	BYTE	W03
	BYTE		        An4 
	BYTE	W03
	BYTE		        Bn4 
	BYTE	W03
// 049   ----------------------------------------
	BYTE		N23     Gn4   v127
	BYTE		N23     Bn4 
	BYTE	W96
// 050   ----------------------------------------
	BYTE	W96
// 051   ----------------------------------------
	BYTE	W96
// 052   ----------------------------------------
	BYTE	W96
// 053   ----------------------------------------
	BYTE	W96
// 054   ----------------------------------------
	BYTE	W96
// 055   ----------------------------------------
	BYTE	W96
// 056   ----------------------------------------
	BYTE	W96
// 057   ----------------------------------------
	BYTE	W96
// 058   ----------------------------------------
	BYTE	W96
// 059   ----------------------------------------
	BYTE	W96
// 060   ----------------------------------------
	BYTE	W96
// 061   ----------------------------------------
	BYTE	W96
// 062   ----------------------------------------
	BYTE	W96
// 063   ----------------------------------------
	BYTE	W96
// 064   ----------------------------------------
	BYTE	W96
// 065   ----------------------------------------
	BYTE	W96
// 066   ----------------------------------------
	BYTE	W96
// 067   ----------------------------------------
	BYTE	W96
// 068   ----------------------------------------
	BYTE	W96
// 069   ----------------------------------------
	BYTE	W96
// 070   ----------------------------------------
	BYTE	W96
// 071   ----------------------------------------
	BYTE	W24
	BYTE		N11     Bn3 
	BYTE	W12
	BYTE		        An3 
	BYTE	W12
	BYTE		        Bn3 
	BYTE	W12
	BYTE		        Dn4 
	BYTE	W12
	BYTE		        Cn4 
	BYTE	W12
	BYTE		        Gn3 
	BYTE	W12
// 072   ----------------------------------------
	BYTE		        Cn4 
	BYTE	W12
	BYTE		        En4 
	BYTE	W12
	BYTE		        Dn4 
	BYTE	W12
	BYTE		        An3 
	BYTE	W12
	BYTE		        Dn4 
	BYTE	W24
	BYTE		N44   
	BYTE	W24
// 073   ----------------------------------------
	BYTE	W24
	BYTE	GoTo
	 POIN2	MarioKartDoubleDashBabyParkSme_6_B1
MarioKartDoubleDashBabyParkSme_6_B2:
	BYTE	FINE

//**************** Track 7 (Midi-Chn.8) ****************//

MarioKartDoubleDashBabyParkSme_7:
	BYTE	KEYSH   MarioKartDoubleDashBabyParkSme_key+0
// 000   ----------------------------------------
	BYTE		VOICE   45
	BYTE		VOL     87*MarioKartDoubleDashBabyParkSme_mvl/mxv
	BYTE		PAN     c_v+0
	BYTE	W19
	BYTE		VOICE   45
	BYTE	W76
	BYTE	W01
// 001   ----------------------------------------
	BYTE	W24
MarioKartDoubleDashBabyParkSme_7_B1:
	BYTE		N11     Fn1   v127
	BYTE	W12
	BYTE		N05     Cn4 
	BYTE	W06
	BYTE		N05   
	BYTE	W06
	BYTE		N11     Cn1 
	BYTE		N11     Cn4 
	BYTE	W12
	BYTE		N11   
	BYTE	W12
	BYTE		        Fn1 
	BYTE		N11     Fn4 
	BYTE	W12
	BYTE		        Cn4 
	BYTE	W12
// 002   ----------------------------------------
MarioKartDoubleDashBabyParkSme_7_002:
	BYTE		N11     Cn1   v127
	BYTE		N11     An3 
	BYTE	W12
	BYTE		        Fn3 
	BYTE	W12
	BYTE		        Fn1 
	BYTE	W24
	BYTE		        Cn1 
	BYTE	W24
	BYTE		        Dn1 
	BYTE	W24
	BYTE	PEND
// 003   ----------------------------------------
MarioKartDoubleDashBabyParkSme_7_003:
	BYTE		N11     En1   v127
	BYTE	W24
	BYTE		        Fn1 
	BYTE	W12
	BYTE		N05     Cn4 
	BYTE	W06
	BYTE		N05   
	BYTE	W06
	BYTE		N11     Cn1 
	BYTE		N11     Cn4 
	BYTE	W12
	BYTE		N11   
	BYTE	W12
	BYTE		        Fn1 
	BYTE		N11     Fn4 
	BYTE	W12
	BYTE		        Cn4 
	BYTE	W12
	BYTE	PEND
// 004   ----------------------------------------
	BYTE	PATT
	 POIN2	MarioKartDoubleDashBabyParkSme_7_002
// 005   ----------------------------------------
MarioKartDoubleDashBabyParkSme_7_005:
	BYTE		N11     En1   v127
	BYTE	W24
	BYTE		        Fn1 
	BYTE		N11     An3 
	BYTE	W12
	BYTE		        Fn3 
	BYTE	W12
	BYTE		        Cn1 
	BYTE		N11     An3 
	BYTE	W12
	BYTE		        Cn4 
	BYTE	W12
	BYTE		        Gn1 
	BYTE		N11     As3 
	BYTE	W12
	BYTE		        Gn3 
	BYTE	W12
	BYTE	PEND
// 006   ----------------------------------------
MarioKartDoubleDashBabyParkSme_7_006:
	BYTE		N11     Cn1   v127
	BYTE		N11     As3 
	BYTE	W12
	BYTE		        Dn4 
	BYTE	W12
	BYTE		        An1 
	BYTE		N11     Cn4 
	BYTE	W24
	BYTE		        Cn1 
	BYTE		N11     En4 
	BYTE	W24
	BYTE		        Fn1 
	BYTE		N11     Fn4 
	BYTE	W24
	BYTE	PEND
// 007   ----------------------------------------
	BYTE		        Cn1 
	BYTE		N11     Cn4 
	BYTE	W24
	BYTE		        Gn1 
	BYTE	W24
	BYTE		        Cn1 
	BYTE	W24
	BYTE		        Gn1 
	BYTE	W24
// 008   ----------------------------------------
	BYTE		        Cn1 
	BYTE	W24
	BYTE		        Gn1 
	BYTE	W24
	BYTE		        Cn1 
	BYTE	W24
	BYTE		        Dn1 
	BYTE	W24
// 009   ----------------------------------------
	BYTE	PATT
	 POIN2	MarioKartDoubleDashBabyParkSme_7_003
// 010   ----------------------------------------
	BYTE	PATT
	 POIN2	MarioKartDoubleDashBabyParkSme_7_002
// 011   ----------------------------------------
	BYTE	PATT
	 POIN2	MarioKartDoubleDashBabyParkSme_7_003
// 012   ----------------------------------------
	BYTE	PATT
	 POIN2	MarioKartDoubleDashBabyParkSme_7_002
// 013   ----------------------------------------
	BYTE	PATT
	 POIN2	MarioKartDoubleDashBabyParkSme_7_005
// 014   ----------------------------------------
	BYTE	PATT
	 POIN2	MarioKartDoubleDashBabyParkSme_7_006
// 015   ----------------------------------------
	BYTE		N11     Cn1   v127
	BYTE		N11     Cn4 
	BYTE	W24
	BYTE		        As0 
	BYTE	W12
	BYTE		N05     Dn4 
	BYTE	W06
	BYTE		N05   
	BYTE	W06
	BYTE		N11     As0 
	BYTE		N05     Dn4 
	BYTE	W12
	BYTE		N05   
	BYTE	W12
	BYTE		N11     Cn1 
	BYTE		N05     Cn4 
	BYTE	W12
	BYTE		N05   
	BYTE	W12
// 016   ----------------------------------------
	BYTE		N11     Cn1 
	BYTE		N05     Dn4 
	BYTE	W12
	BYTE		        En4 
	BYTE	W12
	BYTE		N11     Fn1 
	BYTE		N20     Fn4 
	BYTE	W24
	BYTE		N11     Cn1 
	BYTE		N20     Cn4 
	BYTE	W24
	BYTE		N11     Fn1 
	BYTE		N44     Fn4 
	BYTE	W24
// 017   ----------------------------------------
MarioKartDoubleDashBabyParkSme_7_017:
	BYTE		N11     Fn1   v127
	BYTE	W24
	BYTE		        Fs1 
	BYTE	W12
	BYTE		N05     Cs4 
	BYTE	W06
	BYTE		N05   
	BYTE	W06
	BYTE		N11     Cs1 
	BYTE		N11     Cs4 
	BYTE	W12
	BYTE		N11   
	BYTE	W12
	BYTE		        Fs1 
	BYTE		N11     Fs4 
	BYTE	W12
	BYTE		        Cs4 
	BYTE	W12
	BYTE	PEND
// 018   ----------------------------------------
MarioKartDoubleDashBabyParkSme_7_018:
	BYTE		N11     Cs1   v127
	BYTE		N11     As3 
	BYTE	W12
	BYTE		        Fs3 
	BYTE	W12
	BYTE		        Fs1 
	BYTE	W24
	BYTE		        Cs1 
	BYTE	W24
	BYTE		        Ds1 
	BYTE	W24
	BYTE	PEND
// 019   ----------------------------------------
	BYTE	PATT
	 POIN2	MarioKartDoubleDashBabyParkSme_7_017
// 020   ----------------------------------------
	BYTE	PATT
	 POIN2	MarioKartDoubleDashBabyParkSme_7_018
// 021   ----------------------------------------
MarioKartDoubleDashBabyParkSme_7_021:
	BYTE		N11     Fn1   v127
	BYTE	W24
	BYTE		        Fs1 
	BYTE		N11     As3 
	BYTE	W12
	BYTE		        Fs3 
	BYTE	W12
	BYTE		        Cs1 
	BYTE		N11     As3 
	BYTE	W12
	BYTE		        Cs4 
	BYTE	W12
	BYTE		        Gs1 
	BYTE		N11     Bn3 
	BYTE	W12
	BYTE		        Gs3 
	BYTE	W12
	BYTE	PEND
// 022   ----------------------------------------
MarioKartDoubleDashBabyParkSme_7_022:
	BYTE		N11     Cs1   v127
	BYTE		N11     Bn3 
	BYTE	W12
	BYTE		        Ds4 
	BYTE	W12
	BYTE		        As1 
	BYTE		N11     Cs4 
	BYTE	W24
	BYTE		        Cs1 
	BYTE		N11     Fn4 
	BYTE	W24
	BYTE		        Fs1 
	BYTE		N11     Fs4 
	BYTE	W24
	BYTE	PEND
// 023   ----------------------------------------
	BYTE		        Cs1 
	BYTE		N11     Cs4 
	BYTE	W24
	BYTE		        Gs1 
	BYTE	W24
	BYTE		        Cs1 
	BYTE	W24
	BYTE		        Gs1 
	BYTE	W24
// 024   ----------------------------------------
	BYTE		        Cs1 
	BYTE	W24
	BYTE		        Gs1 
	BYTE	W24
	BYTE		        Cs1 
	BYTE	W24
	BYTE		        Ds1 
	BYTE	W24
// 025   ----------------------------------------
	BYTE	PATT
	 POIN2	MarioKartDoubleDashBabyParkSme_7_017
// 026   ----------------------------------------
	BYTE	PATT
	 POIN2	MarioKartDoubleDashBabyParkSme_7_018
// 027   ----------------------------------------
	BYTE	PATT
	 POIN2	MarioKartDoubleDashBabyParkSme_7_017
// 028   ----------------------------------------
	BYTE	PATT
	 POIN2	MarioKartDoubleDashBabyParkSme_7_018
// 029   ----------------------------------------
	BYTE	PATT
	 POIN2	MarioKartDoubleDashBabyParkSme_7_021
// 030   ----------------------------------------
	BYTE	PATT
	 POIN2	MarioKartDoubleDashBabyParkSme_7_022
// 031   ----------------------------------------
	BYTE		N11     Cs1   v127
	BYTE		N11     Cs4 
	BYTE	W24
	BYTE		        Bn0 
	BYTE	W12
	BYTE		N05     Ds4 
	BYTE	W06
	BYTE		N05   
	BYTE	W06
	BYTE		N11     Bn0 
	BYTE		N05     Ds4 
	BYTE	W12
	BYTE		N05   
	BYTE	W12
	BYTE		N11     Cs1 
	BYTE		N05     Cs4 
	BYTE	W12
	BYTE		N05   
	BYTE	W12
// 032   ----------------------------------------
	BYTE		N11     Cs1 
	BYTE		N05     Ds4 
	BYTE	W12
	BYTE		        Fn4 
	BYTE	W12
	BYTE		N11     Fs1 
	BYTE		N20     Fs4 
	BYTE	W24
	BYTE		N11     Cs1 
	BYTE		N20     Cs4 
	BYTE	W24
	BYTE		N11     Fs1 
	BYTE		N44     Fs4 
	BYTE	W24
// 033   ----------------------------------------
MarioKartDoubleDashBabyParkSme_7_033:
	BYTE		N11     Fs1   v127
	BYTE	W24
	BYTE		        Gn1 
	BYTE	W12
	BYTE		N05     Dn4 
	BYTE	W06
	BYTE		N05   
	BYTE	W06
	BYTE		N11     Dn1 
	BYTE		N11     Dn4 
	BYTE	W12
	BYTE		N11   
	BYTE	W12
	BYTE		        Gn1 
	BYTE		N11     Gn4 
	BYTE	W12
	BYTE		        Dn4 
	BYTE	W12
	BYTE	PEND
// 034   ----------------------------------------
MarioKartDoubleDashBabyParkSme_7_034:
	BYTE		N11     Dn1   v127
	BYTE		N11     Bn3 
	BYTE	W12
	BYTE		        Gn3 
	BYTE	W12
	BYTE		        Gn1 
	BYTE	W24
	BYTE		        Dn1 
	BYTE	W24
	BYTE		        En1 
	BYTE	W24
	BYTE	PEND
// 035   ----------------------------------------
	BYTE	PATT
	 POIN2	MarioKartDoubleDashBabyParkSme_7_033
// 036   ----------------------------------------
	BYTE	PATT
	 POIN2	MarioKartDoubleDashBabyParkSme_7_034
// 037   ----------------------------------------
MarioKartDoubleDashBabyParkSme_7_037:
	BYTE		N11     Fs1   v127
	BYTE	W24
	BYTE		        Gn1 
	BYTE		N11     Bn3 
	BYTE	W12
	BYTE		        Gn3 
	BYTE	W12
	BYTE		        Dn1 
	BYTE		N11     Bn3 
	BYTE	W12
	BYTE		        Dn4 
	BYTE	W12
	BYTE		        An1 
	BYTE		N11     Cn4 
	BYTE	W12
	BYTE		        An3 
	BYTE	W12
	BYTE	PEND
// 038   ----------------------------------------
MarioKartDoubleDashBabyParkSme_7_038:
	BYTE		N11     Dn1   v127
	BYTE		N11     Cn4 
	BYTE	W12
	BYTE		        En4 
	BYTE	W12
	BYTE		        Bn1 
	BYTE		N11     Dn4 
	BYTE	W24
	BYTE		        Dn1 
	BYTE		N11     Fs4 
	BYTE	W24
	BYTE		        Gn1 
	BYTE		N11     Gn4 
	BYTE	W24
	BYTE	PEND
// 039   ----------------------------------------
	BYTE		        Dn1 
	BYTE		N11     Dn4 
	BYTE	W24
	BYTE		        An1 
	BYTE	W24
	BYTE		        Dn1 
	BYTE	W24
	BYTE		        An1 
	BYTE	W24
// 040   ----------------------------------------
	BYTE		        Dn1 
	BYTE	W24
	BYTE		        An1 
	BYTE	W24
	BYTE		        Dn1 
	BYTE	W24
	BYTE		        En1 
	BYTE	W24
// 041   ----------------------------------------
	BYTE	PATT
	 POIN2	MarioKartDoubleDashBabyParkSme_7_033
// 042   ----------------------------------------
	BYTE	PATT
	 POIN2	MarioKartDoubleDashBabyParkSme_7_034
// 043   ----------------------------------------
	BYTE	PATT
	 POIN2	MarioKartDoubleDashBabyParkSme_7_033
// 044   ----------------------------------------
	BYTE	PATT
	 POIN2	MarioKartDoubleDashBabyParkSme_7_034
// 045   ----------------------------------------
	BYTE	PATT
	 POIN2	MarioKartDoubleDashBabyParkSme_7_037
// 046   ----------------------------------------
	BYTE	PATT
	 POIN2	MarioKartDoubleDashBabyParkSme_7_038
// 047   ----------------------------------------
	BYTE		N11     Dn1   v127
	BYTE		N11     Dn4 
	BYTE	W24
	BYTE		        Cn1 
	BYTE	W12
	BYTE		N05     En4 
	BYTE	W06
	BYTE		N05   
	BYTE	W06
	BYTE		N11     Cn1 
	BYTE		N05     En4 
	BYTE	W12
	BYTE		N05   
	BYTE	W12
	BYTE		N11     Dn1 
	BYTE		N05     Dn4 
	BYTE	W12
	BYTE		N05   
	BYTE	W12
// 048   ----------------------------------------
	BYTE		N11     Dn1 
	BYTE		N05     En4 
	BYTE	W12
	BYTE		        Fs4 
	BYTE	W12
	BYTE		N11     Gn1 
	BYTE		N20     Gn4 
	BYTE	W24
	BYTE		N11     Dn1 
	BYTE		N20     Dn4 
	BYTE	W24
	BYTE		N11     Gn1 
	BYTE		N44     Gn4 
	BYTE	W24
// 049   ----------------------------------------
	BYTE		N11     Gn1 
	BYTE	W24
	BYTE		N11   
	BYTE		N11     Gn3 
	BYTE	W12
	BYTE		        Bn3 
	BYTE	W12
	BYTE		        Dn1 
	BYTE	W12
	BYTE		        Dn3 
	BYTE	W12
	BYTE		        Gn1 
	BYTE		N11     Gn3 
	BYTE	W12
	BYTE		        Bn3 
	BYTE	W12
// 050   ----------------------------------------
MarioKartDoubleDashBabyParkSme_7_050:
	BYTE		N11     Dn1   v127
	BYTE	W12
	BYTE		        Dn3 
	BYTE	W12
	BYTE		        Gn1 
	BYTE		N11     Gn3 
	BYTE	W12
	BYTE		        Bn3 
	BYTE	W12
	BYTE		        Dn1 
	BYTE	W12
	BYTE		        Dn3 
	BYTE	W12
	BYTE		        An1 
	BYTE		N11     Fs3 
	BYTE	W12
	BYTE		        An3 
	BYTE	W12
	BYTE	PEND
// 051   ----------------------------------------
MarioKartDoubleDashBabyParkSme_7_051:
	BYTE		N11     Dn1   v127
	BYTE	W12
	BYTE		        Dn3 
	BYTE	W12
	BYTE		        An1 
	BYTE		N11     Fs3 
	BYTE	W12
	BYTE		        An3 
	BYTE	W12
	BYTE		        Dn1 
	BYTE	W12
	BYTE		        Dn3 
	BYTE	W12
	BYTE		        Fs1 
	BYTE		N11     Fs3 
	BYTE	W12
	BYTE		        An3 
	BYTE	W12
	BYTE	PEND
// 052   ----------------------------------------
MarioKartDoubleDashBabyParkSme_7_052:
	BYTE		N11     Dn1   v127
	BYTE	W24
	BYTE		        An1 
	BYTE		N11     Fs3 
	BYTE	W12
	BYTE		        Dn3 
	BYTE	W12
	BYTE		        Dn1 
	BYTE		N11     En3 
	BYTE	W12
	BYTE		        Fs3 
	BYTE	W12
	BYTE		        Gn1 
	BYTE		N11     Gn3 
	BYTE	W24
	BYTE	PEND
// 053   ----------------------------------------
MarioKartDoubleDashBabyParkSme_7_053:
	BYTE		N11     Dn1   v127
	BYTE		N11     Gn3 
	BYTE	W24
	BYTE		        Gn1 
	BYTE		N11     Cn4 
	BYTE	W12
	BYTE		        Bn3 
	BYTE	W12
	BYTE		        Dn1 
	BYTE	W12
	BYTE		        Dn3 
	BYTE	W12
	BYTE		        Gn1 
	BYTE		N11     Cn4 
	BYTE	W12
	BYTE		        Bn3 
	BYTE	W12
	BYTE	PEND
// 054   ----------------------------------------
MarioKartDoubleDashBabyParkSme_7_054:
	BYTE		N11     Dn1   v127
	BYTE	W12
	BYTE		        Dn3 
	BYTE	W12
	BYTE		        Gn1 
	BYTE		N11     Cn4 
	BYTE	W12
	BYTE		        En4 
	BYTE	W12
	BYTE		        Dn1 
	BYTE	W12
	BYTE		        Dn3 
	BYTE	W12
	BYTE		        An1 
	BYTE		N11     An3 
	BYTE	W12
	BYTE		        Dn4 
	BYTE	W12
	BYTE	PEND
// 055   ----------------------------------------
MarioKartDoubleDashBabyParkSme_7_055:
	BYTE		N11     Dn1   v127
	BYTE	W12
	BYTE		        Dn3 
	BYTE	W12
	BYTE		        An1 
	BYTE		N11     Dn4 
	BYTE	W12
	BYTE		        Fs4 
	BYTE	W12
	BYTE		        Dn1 
	BYTE	W12
	BYTE		        Dn3 
	BYTE	W12
	BYTE		        Fs1 
	BYTE		N11     Dn4 
	BYTE	W12
	BYTE		        Fs4 
	BYTE	W12
	BYTE	PEND
// 056   ----------------------------------------
MarioKartDoubleDashBabyParkSme_7_056:
	BYTE		N11     Dn1   v127
	BYTE	W12
	BYTE		        Dn3 
	BYTE	W12
	BYTE		        An1 
	BYTE		N11     Fs4 
	BYTE	W12
	BYTE		        Dn4 
	BYTE	W12
	BYTE		        Dn1 
	BYTE		N11     En4 
	BYTE	W12
	BYTE		        Fs4 
	BYTE	W12
	BYTE		        Gn1 
	BYTE		N11     Gn4 
	BYTE	W12
	BYTE		        Dn4 
	BYTE	W12
	BYTE	PEND
// 057   ----------------------------------------
	BYTE		        Dn1 
	BYTE		N11     Gn4 
	BYTE	W24
	BYTE		        Gn1 
	BYTE		N11     Gn3 
	BYTE	W12
	BYTE		        Bn3 
	BYTE	W12
	BYTE		        Dn1 
	BYTE	W12
	BYTE		        Dn3 
	BYTE	W12
	BYTE		        Gn1 
	BYTE		N11     Gn3 
	BYTE	W12
	BYTE		        Bn3 
	BYTE	W12
// 058   ----------------------------------------
	BYTE	PATT
	 POIN2	MarioKartDoubleDashBabyParkSme_7_050
// 059   ----------------------------------------
	BYTE	PATT
	 POIN2	MarioKartDoubleDashBabyParkSme_7_051
// 060   ----------------------------------------
	BYTE	PATT
	 POIN2	MarioKartDoubleDashBabyParkSme_7_052
// 061   ----------------------------------------
	BYTE	PATT
	 POIN2	MarioKartDoubleDashBabyParkSme_7_053
// 062   ----------------------------------------
	BYTE	PATT
	 POIN2	MarioKartDoubleDashBabyParkSme_7_054
// 063   ----------------------------------------
	BYTE	PATT
	 POIN2	MarioKartDoubleDashBabyParkSme_7_055
// 064   ----------------------------------------
	BYTE	PATT
	 POIN2	MarioKartDoubleDashBabyParkSme_7_056
// 065   ----------------------------------------
	BYTE		N11     Dn1   v127
	BYTE		N11     Gn4 
	BYTE	W24
	BYTE		        Gn1 
	BYTE	W24
	BYTE		        Dn1 
	BYTE	W24
	BYTE		        Cn1 
	BYTE	W24
// 066   ----------------------------------------
MarioKartDoubleDashBabyParkSme_7_066:
	BYTE		N11     Gn1   v127
	BYTE	W24
	BYTE		        Bn0 
	BYTE	W24
	BYTE		        Gn1 
	BYTE	W24
	BYTE		        Cn1 
	BYTE	W24
	BYTE	PEND
// 067   ----------------------------------------
	BYTE		        Gn1 
	BYTE	W24
	BYTE		N11   
	BYTE		N05     Bn3 
	BYTE	W12
	BYTE		        Cn4 
	BYTE	W12
	BYTE		N11     Dn1 
	BYTE		N05     Dn4 
	BYTE	W12
	BYTE		        Bn3 
	BYTE	W12
	BYTE		N11     An1 
	BYTE		N05     Cn4 
	BYTE	W12
	BYTE		N16     En4 
	BYTE	W12
// 068   ----------------------------------------
	BYTE		N11     Dn1 
	BYTE	W12
	BYTE		N05     En4 
	BYTE	W12
	BYTE		N11     Bn1 
	BYTE		N05     Dn4 
	BYTE	W12
	BYTE		        En4 
	BYTE	W12
	BYTE		N11     Dn1 
	BYTE		N05     Dn4 
	BYTE	W12
	BYTE		        Cn4 
	BYTE	W12
	BYTE		N11     An1 
	BYTE		N16     Bn3 
	BYTE	W24
// 069   ----------------------------------------
	BYTE		N11     Dn1 
	BYTE		N11     An3 
	BYTE	W24
	BYTE		        Gn1 
	BYTE	W24
	BYTE		        Dn1 
	BYTE	W24
	BYTE		        Cn1 
	BYTE	W24
// 070   ----------------------------------------
	BYTE	PATT
	 POIN2	MarioKartDoubleDashBabyParkSme_7_066
// 071   ----------------------------------------
	BYTE		N11     Gn1   v127
	BYTE	W24
	BYTE		N11   
	BYTE	W24
	BYTE		        Dn1 
	BYTE	W24
	BYTE		        An1 
	BYTE	W24
// 072   ----------------------------------------
	BYTE		        Dn1 
	BYTE	W24
	BYTE		        Bn1 
	BYTE	W24
	BYTE		        Dn1 
	BYTE	W24
	BYTE		        An1 
	BYTE	W24
// 073   ----------------------------------------
	BYTE		        Dn1 
	BYTE	W12
	BYTE		N11   
	BYTE	W12
	BYTE	GoTo
	 POIN2	MarioKartDoubleDashBabyParkSme_7_B1
MarioKartDoubleDashBabyParkSme_7_B2:
	BYTE	FINE

//**************** Track 8 (Midi-Chn.9) ****************//

MarioKartDoubleDashBabyParkSme_8:
	BYTE	KEYSH   MarioKartDoubleDashBabyParkSme_key+0
// 000   ----------------------------------------
	BYTE		VOICE   1
	BYTE		VOL     80*MarioKartDoubleDashBabyParkSme_mvl/mxv
	BYTE		PAN     c_v-24
	BYTE	W96
// 001   ----------------------------------------
	BYTE	W24
MarioKartDoubleDashBabyParkSme_8_B1:
	BYTE	W72
// 002   ----------------------------------------
	BYTE	W96
// 003   ----------------------------------------
	BYTE	W96
// 004   ----------------------------------------
	BYTE	W96
// 005   ----------------------------------------
	BYTE	W96
// 006   ----------------------------------------
	BYTE	W96
// 007   ----------------------------------------
	BYTE	W96
// 008   ----------------------------------------
	BYTE	W96
// 009   ----------------------------------------
	BYTE	W96
// 010   ----------------------------------------
	BYTE	W96
// 011   ----------------------------------------
	BYTE	W96
// 012   ----------------------------------------
	BYTE	W96
// 013   ----------------------------------------
	BYTE	W96
// 014   ----------------------------------------
	BYTE	W96
// 015   ----------------------------------------
	BYTE	W96
// 016   ----------------------------------------
	BYTE	W96
// 017   ----------------------------------------
	BYTE	W96
// 018   ----------------------------------------
	BYTE	W96
// 019   ----------------------------------------
	BYTE	W96
// 020   ----------------------------------------
	BYTE	W96
// 021   ----------------------------------------
	BYTE	W96
// 022   ----------------------------------------
	BYTE	W96
// 023   ----------------------------------------
	BYTE	W96
// 024   ----------------------------------------
	BYTE	W96
// 025   ----------------------------------------
	BYTE	W96
// 026   ----------------------------------------
	BYTE	W96
// 027   ----------------------------------------
	BYTE	W96
// 028   ----------------------------------------
	BYTE	W96
// 029   ----------------------------------------
	BYTE	W96
// 030   ----------------------------------------
	BYTE	W96
// 031   ----------------------------------------
	BYTE	W96
// 032   ----------------------------------------
	BYTE	W96
// 033   ----------------------------------------
	BYTE	W96
// 034   ----------------------------------------
	BYTE	W96
// 035   ----------------------------------------
	BYTE	W96
// 036   ----------------------------------------
	BYTE	W96
// 037   ----------------------------------------
	BYTE	W96
// 038   ----------------------------------------
	BYTE	W96
// 039   ----------------------------------------
	BYTE	W96
// 040   ----------------------------------------
	BYTE	W96
// 041   ----------------------------------------
	BYTE	W96
// 042   ----------------------------------------
	BYTE	W96
// 043   ----------------------------------------
	BYTE	W96
// 044   ----------------------------------------
	BYTE	W96
// 045   ----------------------------------------
	BYTE	W96
// 046   ----------------------------------------
	BYTE	W96
// 047   ----------------------------------------
	BYTE	W96
// 048   ----------------------------------------
	BYTE	W96
// 049   ----------------------------------------
	BYTE	W30
	BYTE		N05     Gn3   v112
	BYTE	W12
	BYTE		        Bn3 
	BYTE	W06
	BYTE		        Dn3 
	BYTE	W06
	BYTE		        Gn3 
	BYTE	W06
	BYTE		        Dn3 
	BYTE	W12
	BYTE		N05   
	BYTE	W12
	BYTE		        Gn3 
	BYTE	W06
	BYTE		        Bn3 
	BYTE	W06
// 050   ----------------------------------------
MarioKartDoubleDashBabyParkSme_8_050:
	BYTE		N05     Dn3   v112
	BYTE	W06
	BYTE		        Gn3 
	BYTE	W06
	BYTE		        Dn3 
	BYTE	W06
	BYTE		        Gn3 
	BYTE	W18
	BYTE		N05   
	BYTE	W06
	BYTE		        Bn3 
	BYTE	W12
	BYTE		        Gn3 
	BYTE	W06
	BYTE		        Dn3 
	BYTE	W18
	BYTE		        Fs3 
	BYTE	W12
	BYTE		        An3 
	BYTE	W06
	BYTE	PEND
// 051   ----------------------------------------
MarioKartDoubleDashBabyParkSme_8_051:
	BYTE	W06
	BYTE		N05     Fs3   v112
	BYTE	W06
	BYTE		        Dn3 
	BYTE	W18
	BYTE		        Fs3 
	BYTE	W12
	BYTE		        An3 
	BYTE	W12
	BYTE		        Fs3 
	BYTE	W06
	BYTE		        Dn3 
	BYTE	W18
	BYTE		        Fs3 
	BYTE	W12
	BYTE		        An3 
	BYTE	W06
	BYTE	PEND
// 052   ----------------------------------------
MarioKartDoubleDashBabyParkSme_8_052:
	BYTE	W06
	BYTE		N05     Fs3   v112
	BYTE	W06
	BYTE		        Dn3 
	BYTE	W06
	BYTE		        Fs3 
	BYTE	W12
	BYTE		N05   
	BYTE	W06
	BYTE		        An3 
	BYTE	W18
	BYTE		        Fs3 
	BYTE	W06
	BYTE		        Dn3 
	BYTE	W18
	BYTE		        Gn3 
	BYTE	W06
	BYTE		        Bn3 
	BYTE	W12
	BYTE	PEND
// 053   ----------------------------------------
MarioKartDoubleDashBabyParkSme_8_053:
	BYTE	W06
	BYTE		N05     Gn3   v112
	BYTE	W06
	BYTE		        Dn3 
	BYTE	W24
	BYTE		        Gn3 
	BYTE	W06
	BYTE		        Bn3 
	BYTE	W12
	BYTE		        Gn3 
	BYTE	W06
	BYTE		        Dn3 
	BYTE	W24
	BYTE		        Gn3 
	BYTE	W06
	BYTE		        Bn3 
	BYTE	W06
	BYTE	PEND
// 054   ----------------------------------------
MarioKartDoubleDashBabyParkSme_8_054:
	BYTE	W06
	BYTE		N05     Gn3   v112
	BYTE	W06
	BYTE		        Dn3 
	BYTE	W06
	BYTE		        Gn3 
	BYTE	W18
	BYTE		N05   
	BYTE	W06
	BYTE		        Bn3 
	BYTE	W12
	BYTE		        Gn3 
	BYTE	W06
	BYTE		        Dn3 
	BYTE	W24
	BYTE		        Fs3 
	BYTE	W06
	BYTE		        An3 
	BYTE	W06
	BYTE	PEND
// 055   ----------------------------------------
MarioKartDoubleDashBabyParkSme_8_055:
	BYTE	W06
	BYTE		N05     Fs3   v112
	BYTE	W06
	BYTE		        Dn3 
	BYTE	W24
	BYTE		        Fs3 
	BYTE	W06
	BYTE		        An3 
	BYTE	W06
	BYTE		        As3 
	BYTE	W06
	BYTE		        Fs3 
	BYTE	W06
	BYTE		        Dn3 
	BYTE	W24
	BYTE		        Fs3 
	BYTE	W06
	BYTE		        An3 
	BYTE	W06
	BYTE	PEND
// 056   ----------------------------------------
MarioKartDoubleDashBabyParkSme_8_056:
	BYTE		N05     As3   v112
	BYTE	W06
	BYTE		        Fs3 
	BYTE	W06
	BYTE		        Dn3 
	BYTE	W06
	BYTE		        Fs3 
	BYTE	W18
	BYTE		N05   
	BYTE	W06
	BYTE		        An3 
	BYTE	W12
	BYTE		        Fs3 
	BYTE	W06
	BYTE		        Dn3 
	BYTE	W18
	BYTE		        Gn3 
	BYTE	W06
	BYTE		        Bn3 
	BYTE	W12
	BYTE	PEND
// 057   ----------------------------------------
	BYTE	W06
	BYTE		        Gn3 
	BYTE	W06
	BYTE		        Dn3 
	BYTE	W18
	BYTE		        Gn3 
	BYTE	W12
	BYTE		        Bn3 
	BYTE	W06
	BYTE		        Dn3 
	BYTE	W06
	BYTE		        Gn3 
	BYTE	W06
	BYTE		        Dn3 
	BYTE	W12
	BYTE		N05   
	BYTE	W12
	BYTE		        Gn3 
	BYTE	W06
	BYTE		        Bn3 
	BYTE	W06
// 058   ----------------------------------------
	BYTE	PATT
	 POIN2	MarioKartDoubleDashBabyParkSme_8_050
// 059   ----------------------------------------
	BYTE	PATT
	 POIN2	MarioKartDoubleDashBabyParkSme_8_051
// 060   ----------------------------------------
	BYTE	PATT
	 POIN2	MarioKartDoubleDashBabyParkSme_8_052
// 061   ----------------------------------------
	BYTE	PATT
	 POIN2	MarioKartDoubleDashBabyParkSme_8_053
// 062   ----------------------------------------
	BYTE	PATT
	 POIN2	MarioKartDoubleDashBabyParkSme_8_054
// 063   ----------------------------------------
	BYTE	PATT
	 POIN2	MarioKartDoubleDashBabyParkSme_8_055
// 064   ----------------------------------------
	BYTE	PATT
	 POIN2	MarioKartDoubleDashBabyParkSme_8_056
// 065   ----------------------------------------
	BYTE	W06
	BYTE		N05     Gn3   v112
	BYTE	W06
	BYTE		        Dn3 
	BYTE	W84
// 066   ----------------------------------------
	BYTE	W96
// 067   ----------------------------------------
	BYTE	W96
// 068   ----------------------------------------
	BYTE	W96
// 069   ----------------------------------------
	BYTE	W96
// 070   ----------------------------------------
	BYTE	W96
// 071   ----------------------------------------
	BYTE	W24
	BYTE		N11     Bn3   v127
	BYTE	W12
	BYTE		        An3 
	BYTE	W12
	BYTE		        Bn3 
	BYTE	W12
	BYTE		        Dn4 
	BYTE	W12
	BYTE		        Cn4 
	BYTE	W12
	BYTE		        Gn3 
	BYTE	W12
// 072   ----------------------------------------
	BYTE		        Cn4 
	BYTE	W12
	BYTE		        En4 
	BYTE	W12
	BYTE		        Dn4 
	BYTE	W12
	BYTE		        An3 
	BYTE	W12
	BYTE		        Dn4 
	BYTE	W24
	BYTE		N44   
	BYTE	W24
// 073   ----------------------------------------
	BYTE	W24
	BYTE	GoTo
	 POIN2	MarioKartDoubleDashBabyParkSme_8_B1
MarioKartDoubleDashBabyParkSme_8_B2:
	BYTE	FINE

//**************** Track 9 (Midi-Chn.11) ****************//

MarioKartDoubleDashBabyParkSme_9:
	BYTE	KEYSH   MarioKartDoubleDashBabyParkSme_key+0
// 000   ----------------------------------------
	BYTE		VOICE   57
	BYTE		VOL     83*MarioKartDoubleDashBabyParkSme_mvl/mxv
	BYTE		PAN     c_v+24
	BYTE	W96
// 001   ----------------------------------------
	BYTE	W24
MarioKartDoubleDashBabyParkSme_9_B1:
	BYTE	W72
// 002   ----------------------------------------
	BYTE	W96
// 003   ----------------------------------------
	BYTE	W96
// 004   ----------------------------------------
	BYTE	W96
// 005   ----------------------------------------
	BYTE	W96
// 006   ----------------------------------------
	BYTE	W96
// 007   ----------------------------------------
	BYTE	W96
// 008   ----------------------------------------
	BYTE	W96
// 009   ----------------------------------------
	BYTE	W96
// 010   ----------------------------------------
	BYTE	W96
// 011   ----------------------------------------
	BYTE	W96
// 012   ----------------------------------------
	BYTE	W96
// 013   ----------------------------------------
	BYTE	W96
// 014   ----------------------------------------
	BYTE	W96
// 015   ----------------------------------------
	BYTE	W96
// 016   ----------------------------------------
	BYTE	W96
// 017   ----------------------------------------
	BYTE	W96
// 018   ----------------------------------------
	BYTE	W96
// 019   ----------------------------------------
	BYTE	W96
// 020   ----------------------------------------
	BYTE	W96
// 021   ----------------------------------------
	BYTE	W96
// 022   ----------------------------------------
	BYTE	W96
// 023   ----------------------------------------
	BYTE	W96
// 024   ----------------------------------------
	BYTE	W96
// 025   ----------------------------------------
	BYTE	W96
// 026   ----------------------------------------
	BYTE	W96
// 027   ----------------------------------------
	BYTE	W96
// 028   ----------------------------------------
	BYTE	W96
// 029   ----------------------------------------
	BYTE	W96
// 030   ----------------------------------------
	BYTE	W96
// 031   ----------------------------------------
	BYTE	W96
// 032   ----------------------------------------
	BYTE	W96
// 033   ----------------------------------------
	BYTE	W96
// 034   ----------------------------------------
	BYTE	W96
// 035   ----------------------------------------
	BYTE	W96
// 036   ----------------------------------------
	BYTE	W96
// 037   ----------------------------------------
	BYTE	W96
// 038   ----------------------------------------
	BYTE	W96
// 039   ----------------------------------------
	BYTE	W96
// 040   ----------------------------------------
	BYTE	W96
// 041   ----------------------------------------
	BYTE	W96
// 042   ----------------------------------------
	BYTE	W96
// 043   ----------------------------------------
	BYTE	W96
// 044   ----------------------------------------
	BYTE	W96
// 045   ----------------------------------------
	BYTE	W96
// 046   ----------------------------------------
	BYTE	W96
// 047   ----------------------------------------
	BYTE	W96
// 048   ----------------------------------------
	BYTE	W96
// 049   ----------------------------------------
MarioKartDoubleDashBabyParkSme_9_049:
	BYTE	W36
	BYTE		N11     Gn4   v100
	BYTE	W24
	BYTE		N11   
	BYTE	W24
	BYTE		N11   
	BYTE	W12
	BYTE	PEND
// 050   ----------------------------------------
MarioKartDoubleDashBabyParkSme_9_050:
	BYTE	W12
	BYTE		N11     Gn4   v100
	BYTE	W24
	BYTE		N11   
	BYTE	W24
	BYTE		        Fs4 
	BYTE	W24
	BYTE		N11   
	BYTE	W12
	BYTE	PEND
// 051   ----------------------------------------
MarioKartDoubleDashBabyParkSme_9_051:
	BYTE	W12
	BYTE		N11     Fs4   v100
	BYTE	W24
	BYTE		N11   
	BYTE	W24
	BYTE		N11   
	BYTE	W24
	BYTE		N11   
	BYTE	W12
	BYTE	PEND
// 052   ----------------------------------------
MarioKartDoubleDashBabyParkSme_9_052:
	BYTE	W12
	BYTE		N11     Fs4   v100
	BYTE	W24
	BYTE		N11   
	BYTE	W24
	BYTE		        Gn4 
	BYTE	W24
	BYTE		N11   
	BYTE	W12
	BYTE	PEND
// 053   ----------------------------------------
	BYTE	W12
	BYTE		N11   
	BYTE	W84
// 054   ----------------------------------------
	BYTE	W96
// 055   ----------------------------------------
	BYTE	W96
// 056   ----------------------------------------
	BYTE	W96
// 057   ----------------------------------------
	BYTE	PATT
	 POIN2	MarioKartDoubleDashBabyParkSme_9_049
// 058   ----------------------------------------
	BYTE	PATT
	 POIN2	MarioKartDoubleDashBabyParkSme_9_050
// 059   ----------------------------------------
	BYTE	PATT
	 POIN2	MarioKartDoubleDashBabyParkSme_9_051
// 060   ----------------------------------------
	BYTE	PATT
	 POIN2	MarioKartDoubleDashBabyParkSme_9_052
// 061   ----------------------------------------
	BYTE	W12
	BYTE		N11     Gn4   v100
	BYTE	W84
// 062   ----------------------------------------
	BYTE	W96
// 063   ----------------------------------------
	BYTE	W96
// 064   ----------------------------------------
	BYTE	W96
// 065   ----------------------------------------
	BYTE	W96
// 066   ----------------------------------------
	BYTE	W96
// 067   ----------------------------------------
	BYTE	W96
// 068   ----------------------------------------
	BYTE	W96
// 069   ----------------------------------------
	BYTE	W96
// 070   ----------------------------------------
	BYTE	W96
// 071   ----------------------------------------
	BYTE	W96
// 072   ----------------------------------------
	BYTE	W96
// 073   ----------------------------------------
	BYTE	W24
	BYTE	GoTo
	 POIN2	MarioKartDoubleDashBabyParkSme_9_B1
MarioKartDoubleDashBabyParkSme_9_B2:
	BYTE	FINE

//**************** Track 10 (Midi-Chn.12) ****************//

MarioKartDoubleDashBabyParkSme_10:
	BYTE	KEYSH   MarioKartDoubleDashBabyParkSme_key+0
// 000   ----------------------------------------
	BYTE		VOICE   52
	BYTE		VOL     81*MarioKartDoubleDashBabyParkSme_mvl/mxv
	BYTE		PAN     c_v-24
	BYTE	W18
	BYTE		VOICE   52
	BYTE	W78
// 001   ----------------------------------------
	BYTE	W24
MarioKartDoubleDashBabyParkSme_10_B1:
	BYTE	W72
// 002   ----------------------------------------
	BYTE	W96
// 003   ----------------------------------------
	BYTE	W96
// 004   ----------------------------------------
	BYTE	W96
// 005   ----------------------------------------
	BYTE	W96
// 006   ----------------------------------------
	BYTE	W96
// 007   ----------------------------------------
	BYTE	W96
// 008   ----------------------------------------
	BYTE	W96
// 009   ----------------------------------------
	BYTE	W96
// 010   ----------------------------------------
	BYTE	W96
// 011   ----------------------------------------
	BYTE	W96
// 012   ----------------------------------------
	BYTE	W96
// 013   ----------------------------------------
	BYTE	W96
// 014   ----------------------------------------
	BYTE	W96
// 015   ----------------------------------------
	BYTE	W96
// 016   ----------------------------------------
	BYTE	W96
// 017   ----------------------------------------
	BYTE	W96
// 018   ----------------------------------------
	BYTE	W96
// 019   ----------------------------------------
	BYTE	W96
// 020   ----------------------------------------
	BYTE	W96
// 021   ----------------------------------------
	BYTE	W96
// 022   ----------------------------------------
	BYTE	W96
// 023   ----------------------------------------
	BYTE	W96
// 024   ----------------------------------------
	BYTE	W96
// 025   ----------------------------------------
	BYTE	W96
// 026   ----------------------------------------
	BYTE	W96
// 027   ----------------------------------------
	BYTE	W96
// 028   ----------------------------------------
	BYTE	W96
// 029   ----------------------------------------
	BYTE	W96
// 030   ----------------------------------------
	BYTE	W96
// 031   ----------------------------------------
	BYTE	W96
// 032   ----------------------------------------
	BYTE	W96
// 033   ----------------------------------------
	BYTE	W96
// 034   ----------------------------------------
	BYTE	W96
// 035   ----------------------------------------
	BYTE	W96
// 036   ----------------------------------------
	BYTE	W96
// 037   ----------------------------------------
	BYTE	W96
// 038   ----------------------------------------
	BYTE	W96
// 039   ----------------------------------------
	BYTE	W96
// 040   ----------------------------------------
	BYTE	W96
// 041   ----------------------------------------
	BYTE	W96
// 042   ----------------------------------------
	BYTE	W96
// 043   ----------------------------------------
	BYTE	W96
// 044   ----------------------------------------
	BYTE	W96
// 045   ----------------------------------------
	BYTE	W96
// 046   ----------------------------------------
	BYTE	W96
// 047   ----------------------------------------
	BYTE	W96
// 048   ----------------------------------------
	BYTE	W96
// 049   ----------------------------------------
	BYTE	W36
	BYTE		N11     Gn3   v100
	BYTE	W24
	BYTE		N11   
	BYTE	W24
	BYTE		N11   
	BYTE	W12
// 050   ----------------------------------------
MarioKartDoubleDashBabyParkSme_10_050:
	BYTE	W12
	BYTE		N11     Gn3   v100
	BYTE	W24
	BYTE		N11   
	BYTE	W24
	BYTE		        Fs3 
	BYTE	W24
	BYTE		N11   
	BYTE	W12
	BYTE	PEND
// 051   ----------------------------------------
MarioKartDoubleDashBabyParkSme_10_051:
	BYTE	W12
	BYTE		N11     Fs3   v100
	BYTE	W24
	BYTE		N11   
	BYTE	W24
	BYTE		N11   
	BYTE	W24
	BYTE		N11   
	BYTE	W12
	BYTE	PEND
// 052   ----------------------------------------
MarioKartDoubleDashBabyParkSme_10_052:
	BYTE	W12
	BYTE		N11     Fs3   v100
	BYTE	W24
	BYTE		N11   
	BYTE	W24
	BYTE		        Gn3 
	BYTE	W24
	BYTE		N11   
	BYTE	W12
	BYTE	PEND
// 053   ----------------------------------------
MarioKartDoubleDashBabyParkSme_10_053:
	BYTE	W12
	BYTE		N11     Gn3   v100
	BYTE	W12
	BYTE		        Cn3 
	BYTE	W12
	BYTE		        Bn2 
	BYTE	W36
	BYTE		        Cn3 
	BYTE	W12
	BYTE		        Bn2 
	BYTE	W12
	BYTE	PEND
// 054   ----------------------------------------
MarioKartDoubleDashBabyParkSme_10_054:
	BYTE	W24
	BYTE		N11     Cn3   v100
	BYTE	W12
	BYTE		        Bn2 
	BYTE	W36
	BYTE		        An2 
	BYTE	W12
	BYTE		        Dn3 
	BYTE	W12
	BYTE	PEND
// 055   ----------------------------------------
MarioKartDoubleDashBabyParkSme_10_055:
	BYTE	W24
	BYTE		N11     Dn3   v100
	BYTE	W12
	BYTE		        Fs3 
	BYTE	W36
	BYTE		        Dn3 
	BYTE	W12
	BYTE		        Fs3 
	BYTE	W12
	BYTE	PEND
// 056   ----------------------------------------
MarioKartDoubleDashBabyParkSme_10_056:
	BYTE	W24
	BYTE		N11     Gn2   v100
	BYTE		N11     Gn3 
	BYTE	W12
	BYTE		        Dn2 
	BYTE		N11     Dn3 
	BYTE	W12
	BYTE		        En2 
	BYTE		N11     En3 
	BYTE	W12
	BYTE		        Fs2 
	BYTE		N11     Fs3 
	BYTE	W12
	BYTE		        Gn2 
	BYTE		N11     Gn3 
	BYTE	W12
	BYTE		        Dn2 
	BYTE		N11     Dn3 
	BYTE	W12
	BYTE	PEND
// 057   ----------------------------------------
	BYTE		        Gn2 
	BYTE		N11     Gn3 
	BYTE	W36
	BYTE		N11   
	BYTE	W24
	BYTE		N11   
	BYTE	W24
	BYTE		N11   
	BYTE	W12
// 058   ----------------------------------------
	BYTE	PATT
	 POIN2	MarioKartDoubleDashBabyParkSme_10_050
// 059   ----------------------------------------
	BYTE	PATT
	 POIN2	MarioKartDoubleDashBabyParkSme_10_051
// 060   ----------------------------------------
	BYTE	PATT
	 POIN2	MarioKartDoubleDashBabyParkSme_10_052
// 061   ----------------------------------------
	BYTE	PATT
	 POIN2	MarioKartDoubleDashBabyParkSme_10_053
// 062   ----------------------------------------
	BYTE	PATT
	 POIN2	MarioKartDoubleDashBabyParkSme_10_054
// 063   ----------------------------------------
	BYTE	PATT
	 POIN2	MarioKartDoubleDashBabyParkSme_10_055
// 064   ----------------------------------------
	BYTE	PATT
	 POIN2	MarioKartDoubleDashBabyParkSme_10_056
// 065   ----------------------------------------
	BYTE		N11     Gn2   v100
	BYTE		N11     Gn3 
	BYTE	W96
// 066   ----------------------------------------
	BYTE	W96
// 067   ----------------------------------------
	BYTE	W24
	BYTE		N44     Bn2 
	BYTE		N44     Gn3 
	BYTE		N44     Bn3 
	BYTE	W48
	BYTE		        An2 
	BYTE		N44     An3 
	BYTE		N44     Cn4 
	BYTE	W24
// 068   ----------------------------------------
MarioKartDoubleDashBabyParkSme_10_068:
	BYTE	W24
	BYTE		N44     Bn2   v100
	BYTE		N44     Bn3 
	BYTE		N44     Dn4 
	BYTE	W48
	BYTE		        Cn3 
	BYTE		N44     Cn4 
	BYTE		N44     En4 
	BYTE	W24
	BYTE	PEND
// 069   ----------------------------------------
	BYTE	W96
// 070   ----------------------------------------
	BYTE	W96
// 071   ----------------------------------------
	BYTE	PATT
	 POIN2	MarioKartDoubleDashBabyParkSme_10_068
// 072   ----------------------------------------
	BYTE	W24
	BYTE		N44     Dn3   v100
	BYTE		N44     Dn4 
	BYTE		N44     Fs4 
	BYTE	W48
	BYTE		        Gn2 
	BYTE		N44     Dn4 
	BYTE		N44     Gn4 
	BYTE	W24
// 073   ----------------------------------------
	BYTE	W24
	BYTE	GoTo
	 POIN2	MarioKartDoubleDashBabyParkSme_10_B1
MarioKartDoubleDashBabyParkSme_10_B2:
	BYTE	FINE

//**************** Track 11 (Midi-Chn.13) ****************//

MarioKartDoubleDashBabyParkSme_11:
	BYTE	KEYSH   MarioKartDoubleDashBabyParkSme_key+0
// 000   ----------------------------------------
	BYTE		VOICE   50
	BYTE		VOL     79*MarioKartDoubleDashBabyParkSme_mvl/mxv
	BYTE		PAN     c_v+24
	BYTE	W19
	BYTE		VOICE   50
	BYTE	W76
	BYTE	W01
// 001   ----------------------------------------
	BYTE	W24
MarioKartDoubleDashBabyParkSme_11_B1:
	BYTE	W72
// 002   ----------------------------------------
	BYTE	W96
// 003   ----------------------------------------
	BYTE	W96
// 004   ----------------------------------------
	BYTE	W96
// 005   ----------------------------------------
	BYTE	W96
// 006   ----------------------------------------
	BYTE	W96
// 007   ----------------------------------------
	BYTE	W96
// 008   ----------------------------------------
	BYTE	W96
// 009   ----------------------------------------
	BYTE	W96
// 010   ----------------------------------------
	BYTE	W96
// 011   ----------------------------------------
	BYTE	W96
// 012   ----------------------------------------
	BYTE	W96
// 013   ----------------------------------------
	BYTE	W96
// 014   ----------------------------------------
	BYTE	W96
// 015   ----------------------------------------
	BYTE	W96
// 016   ----------------------------------------
	BYTE	W96
// 017   ----------------------------------------
	BYTE	W96
// 018   ----------------------------------------
	BYTE	W96
// 019   ----------------------------------------
	BYTE	W96
// 020   ----------------------------------------
	BYTE	W96
// 021   ----------------------------------------
	BYTE	W96
// 022   ----------------------------------------
	BYTE	W96
// 023   ----------------------------------------
	BYTE	W96
// 024   ----------------------------------------
	BYTE	W96
// 025   ----------------------------------------
	BYTE	W96
// 026   ----------------------------------------
	BYTE	W96
// 027   ----------------------------------------
	BYTE	W96
// 028   ----------------------------------------
	BYTE	W96
// 029   ----------------------------------------
	BYTE	W96
// 030   ----------------------------------------
	BYTE	W96
// 031   ----------------------------------------
	BYTE	W96
// 032   ----------------------------------------
	BYTE	W96
// 033   ----------------------------------------
	BYTE	W96
// 034   ----------------------------------------
	BYTE	W96
// 035   ----------------------------------------
	BYTE	W96
// 036   ----------------------------------------
	BYTE	W96
// 037   ----------------------------------------
	BYTE	W96
// 038   ----------------------------------------
	BYTE	W96
// 039   ----------------------------------------
	BYTE	W96
// 040   ----------------------------------------
	BYTE	W96
// 041   ----------------------------------------
	BYTE	W96
// 042   ----------------------------------------
	BYTE	W96
// 043   ----------------------------------------
	BYTE	W96
// 044   ----------------------------------------
	BYTE	W96
// 045   ----------------------------------------
	BYTE	W96
// 046   ----------------------------------------
	BYTE	W96
// 047   ----------------------------------------
	BYTE	W96
// 048   ----------------------------------------
	BYTE	W96
// 049   ----------------------------------------
	BYTE	W96
// 050   ----------------------------------------
	BYTE	W96
// 051   ----------------------------------------
	BYTE	W96
// 052   ----------------------------------------
	BYTE	W96
// 053   ----------------------------------------
MarioKartDoubleDashBabyParkSme_11_053:
	BYTE	W24
	BYTE		N11     Gn3   v112
	BYTE	W12
	BYTE		        Bn3 
	BYTE	W12
	BYTE		N05     Dn3 
	BYTE	W12
	BYTE		N05   
	BYTE	W12
	BYTE		N11     Gn3 
	BYTE	W12
	BYTE		        Bn3 
	BYTE	W12
	BYTE	PEND
// 054   ----------------------------------------
MarioKartDoubleDashBabyParkSme_11_054:
	BYTE		N05     Dn3   v112
	BYTE	W12
	BYTE		N05   
	BYTE	W12
	BYTE		N11     Gn3 
	BYTE	W12
	BYTE		        Bn3 
	BYTE	W12
	BYTE		N05     Dn3 
	BYTE	W12
	BYTE		N05   
	BYTE	W12
	BYTE		N11     Fs3 
	BYTE	W12
	BYTE		        An3 
	BYTE	W12
	BYTE	PEND
// 055   ----------------------------------------
MarioKartDoubleDashBabyParkSme_11_055:
	BYTE		N05     Dn3   v112
	BYTE	W12
	BYTE		N05   
	BYTE	W12
	BYTE		N11     Fs3 
	BYTE	W12
	BYTE		        An3 
	BYTE	W12
	BYTE		N05     Dn3 
	BYTE	W12
	BYTE		N05   
	BYTE	W12
	BYTE		N11     Fs3 
	BYTE	W12
	BYTE		        An3 
	BYTE	W12
	BYTE	PEND
// 056   ----------------------------------------
MarioKartDoubleDashBabyParkSme_11_056:
	BYTE		N05     Dn3   v112
	BYTE	W12
	BYTE		N05   
	BYTE	W12
	BYTE		N11     Gn3 
	BYTE	W12
	BYTE		        Dn3 
	BYTE	W12
	BYTE		        En3 
	BYTE	W12
	BYTE		        Fs3 
	BYTE	W12
	BYTE		        Gn3 
	BYTE	W12
	BYTE		        Dn3 
	BYTE	W12
	BYTE	PEND
// 057   ----------------------------------------
	BYTE		        Gn3 
	BYTE	W96
// 058   ----------------------------------------
	BYTE	W96
// 059   ----------------------------------------
	BYTE	W96
// 060   ----------------------------------------
	BYTE	W96
// 061   ----------------------------------------
	BYTE	PATT
	 POIN2	MarioKartDoubleDashBabyParkSme_11_053
// 062   ----------------------------------------
	BYTE	PATT
	 POIN2	MarioKartDoubleDashBabyParkSme_11_054
// 063   ----------------------------------------
	BYTE	PATT
	 POIN2	MarioKartDoubleDashBabyParkSme_11_055
// 064   ----------------------------------------
	BYTE	PATT
	 POIN2	MarioKartDoubleDashBabyParkSme_11_056
// 065   ----------------------------------------
	BYTE		N11     Gn3   v112
	BYTE	W96
// 066   ----------------------------------------
	BYTE	W96
// 067   ----------------------------------------
	BYTE	W24
	BYTE		N44     Gn4   v100
	BYTE		N44     Bn4 
	BYTE	W48
	BYTE		        An4 
	BYTE		N44     Cn5 
	BYTE	W24
// 068   ----------------------------------------
MarioKartDoubleDashBabyParkSme_11_068:
	BYTE	W24
	BYTE		N44     Bn4   v100
	BYTE		N44     Dn5 
	BYTE	W48
	BYTE		        Cn5 
	BYTE		N44     En5 
	BYTE	W24
	BYTE	PEND
// 069   ----------------------------------------
	BYTE	W96
// 070   ----------------------------------------
	BYTE	W96
// 071   ----------------------------------------
	BYTE	PATT
	 POIN2	MarioKartDoubleDashBabyParkSme_11_068
// 072   ----------------------------------------
	BYTE	W24
	BYTE		N44     Dn5   v100
	BYTE		N44     Fs5 
	BYTE	W48
	BYTE		        Gn1 
	BYTE		N44     Gn4 
	BYTE		N44     Dn5 
	BYTE		N44     Gn5 
	BYTE	W24
// 073   ----------------------------------------
	BYTE	W24
	BYTE	GoTo
	 POIN2	MarioKartDoubleDashBabyParkSme_11_B1
MarioKartDoubleDashBabyParkSme_11_B2:
	BYTE	FINE

//**************** Track 12 (Midi-Chn.14) ****************//

MarioKartDoubleDashBabyParkSme_12:
	BYTE	KEYSH   MarioKartDoubleDashBabyParkSme_key+0
// 000   ----------------------------------------
	BYTE		VOICE   123
	BYTE		VOL     79*MarioKartDoubleDashBabyParkSme_mvl/mxv
	BYTE		PAN     c_v+0
	BYTE	W72
	BYTE		N36     As2   v127
	BYTE	W24
// 001   ----------------------------------------
	BYTE	W24
MarioKartDoubleDashBabyParkSme_12_B1:
	BYTE		N11     As1   v100
	BYTE		N36     Cs2   v127
	BYTE	W12
	BYTE		N11     En1   v100
	BYTE		N11     Fs2 
	BYTE	W12
	BYTE		        As1 
	BYTE	W12
	BYTE		        En1 
	BYTE		N11     Fs2 
	BYTE	W12
	BYTE		        As1 
	BYTE	W12
	BYTE		        En1 
	BYTE		N11     Fs2 
	BYTE	W12
// 002   ----------------------------------------
MarioKartDoubleDashBabyParkSme_12_002:
	BYTE		N11     As1   v100
	BYTE	W12
	BYTE		        En1 
	BYTE		N11     Fs2 
	BYTE	W12
	BYTE		        As1 
	BYTE	W12
	BYTE		        En1 
	BYTE		N11     Fs2 
	BYTE	W12
	BYTE		        As1 
	BYTE	W12
	BYTE		        En1 
	BYTE		N11     Fs2 
	BYTE	W12
	BYTE		        As1 
	BYTE	W12
	BYTE		        En1 
	BYTE		N11     Fs2 
	BYTE	W12
	BYTE	PEND
// 003   ----------------------------------------
	BYTE	PATT
	 POIN2	MarioKartDoubleDashBabyParkSme_12_002
// 004   ----------------------------------------
	BYTE	PATT
	 POIN2	MarioKartDoubleDashBabyParkSme_12_002
// 005   ----------------------------------------
	BYTE	PATT
	 POIN2	MarioKartDoubleDashBabyParkSme_12_002
// 006   ----------------------------------------
	BYTE	PATT
	 POIN2	MarioKartDoubleDashBabyParkSme_12_002
// 007   ----------------------------------------
	BYTE	PATT
	 POIN2	MarioKartDoubleDashBabyParkSme_12_002
// 008   ----------------------------------------
	BYTE	PATT
	 POIN2	MarioKartDoubleDashBabyParkSme_12_002
// 009   ----------------------------------------
MarioKartDoubleDashBabyParkSme_12_009:
	BYTE		N11     As1   v100
	BYTE	W12
	BYTE		        En1 
	BYTE		N11     Fs2 
	BYTE	W12
	BYTE		        As1 
	BYTE		N36     Cs2   v127
	BYTE	W12
	BYTE		N11     En1   v100
	BYTE		N11     Fs2 
	BYTE	W12
	BYTE		        As1 
	BYTE	W12
	BYTE		        En1 
	BYTE		N11     Fs2 
	BYTE	W12
	BYTE		        As1 
	BYTE	W12
	BYTE		        En1 
	BYTE		N11     Fs2 
	BYTE	W12
	BYTE	PEND
// 010   ----------------------------------------
	BYTE	PATT
	 POIN2	MarioKartDoubleDashBabyParkSme_12_002
// 011   ----------------------------------------
	BYTE	PATT
	 POIN2	MarioKartDoubleDashBabyParkSme_12_002
// 012   ----------------------------------------
	BYTE	PATT
	 POIN2	MarioKartDoubleDashBabyParkSme_12_002
// 013   ----------------------------------------
	BYTE	PATT
	 POIN2	MarioKartDoubleDashBabyParkSme_12_002
// 014   ----------------------------------------
	BYTE	PATT
	 POIN2	MarioKartDoubleDashBabyParkSme_12_002
// 015   ----------------------------------------
	BYTE	PATT
	 POIN2	MarioKartDoubleDashBabyParkSme_12_002
// 016   ----------------------------------------
	BYTE	PATT
	 POIN2	MarioKartDoubleDashBabyParkSme_12_002
// 017   ----------------------------------------
	BYTE	PATT
	 POIN2	MarioKartDoubleDashBabyParkSme_12_009
// 018   ----------------------------------------
	BYTE	PATT
	 POIN2	MarioKartDoubleDashBabyParkSme_12_002
// 019   ----------------------------------------
	BYTE	PATT
	 POIN2	MarioKartDoubleDashBabyParkSme_12_002
// 020   ----------------------------------------
	BYTE	PATT
	 POIN2	MarioKartDoubleDashBabyParkSme_12_002
// 021   ----------------------------------------
	BYTE	PATT
	 POIN2	MarioKartDoubleDashBabyParkSme_12_002
// 022   ----------------------------------------
	BYTE	PATT
	 POIN2	MarioKartDoubleDashBabyParkSme_12_002
// 023   ----------------------------------------
	BYTE	PATT
	 POIN2	MarioKartDoubleDashBabyParkSme_12_002
// 024   ----------------------------------------
	BYTE	PATT
	 POIN2	MarioKartDoubleDashBabyParkSme_12_002
// 025   ----------------------------------------
	BYTE	PATT
	 POIN2	MarioKartDoubleDashBabyParkSme_12_009
// 026   ----------------------------------------
	BYTE	PATT
	 POIN2	MarioKartDoubleDashBabyParkSme_12_002
// 027   ----------------------------------------
	BYTE	PATT
	 POIN2	MarioKartDoubleDashBabyParkSme_12_002
// 028   ----------------------------------------
	BYTE	PATT
	 POIN2	MarioKartDoubleDashBabyParkSme_12_002
// 029   ----------------------------------------
	BYTE	PATT
	 POIN2	MarioKartDoubleDashBabyParkSme_12_002
// 030   ----------------------------------------
	BYTE	PATT
	 POIN2	MarioKartDoubleDashBabyParkSme_12_002
// 031   ----------------------------------------
	BYTE	PATT
	 POIN2	MarioKartDoubleDashBabyParkSme_12_002
// 032   ----------------------------------------
	BYTE	PATT
	 POIN2	MarioKartDoubleDashBabyParkSme_12_002
// 033   ----------------------------------------
	BYTE	PATT
	 POIN2	MarioKartDoubleDashBabyParkSme_12_009
// 034   ----------------------------------------
	BYTE	PATT
	 POIN2	MarioKartDoubleDashBabyParkSme_12_002
// 035   ----------------------------------------
	BYTE	PATT
	 POIN2	MarioKartDoubleDashBabyParkSme_12_002
// 036   ----------------------------------------
	BYTE	PATT
	 POIN2	MarioKartDoubleDashBabyParkSme_12_002
// 037   ----------------------------------------
	BYTE	PATT
	 POIN2	MarioKartDoubleDashBabyParkSme_12_002
// 038   ----------------------------------------
	BYTE	PATT
	 POIN2	MarioKartDoubleDashBabyParkSme_12_002
// 039   ----------------------------------------
	BYTE	PATT
	 POIN2	MarioKartDoubleDashBabyParkSme_12_002
// 040   ----------------------------------------
	BYTE	PATT
	 POIN2	MarioKartDoubleDashBabyParkSme_12_002
// 041   ----------------------------------------
	BYTE	PATT
	 POIN2	MarioKartDoubleDashBabyParkSme_12_009
// 042   ----------------------------------------
	BYTE	PATT
	 POIN2	MarioKartDoubleDashBabyParkSme_12_002
// 043   ----------------------------------------
	BYTE	PATT
	 POIN2	MarioKartDoubleDashBabyParkSme_12_002
// 044   ----------------------------------------
	BYTE	PATT
	 POIN2	MarioKartDoubleDashBabyParkSme_12_002
// 045   ----------------------------------------
	BYTE	PATT
	 POIN2	MarioKartDoubleDashBabyParkSme_12_002
// 046   ----------------------------------------
	BYTE	PATT
	 POIN2	MarioKartDoubleDashBabyParkSme_12_002
// 047   ----------------------------------------
	BYTE	PATT
	 POIN2	MarioKartDoubleDashBabyParkSme_12_002
// 048   ----------------------------------------
	BYTE	PATT
	 POIN2	MarioKartDoubleDashBabyParkSme_12_002
// 049   ----------------------------------------
	BYTE	PATT
	 POIN2	MarioKartDoubleDashBabyParkSme_12_009
// 050   ----------------------------------------
	BYTE	PATT
	 POIN2	MarioKartDoubleDashBabyParkSme_12_002
// 051   ----------------------------------------
	BYTE	PATT
	 POIN2	MarioKartDoubleDashBabyParkSme_12_002
// 052   ----------------------------------------
	BYTE	PATT
	 POIN2	MarioKartDoubleDashBabyParkSme_12_002
// 053   ----------------------------------------
	BYTE	PATT
	 POIN2	MarioKartDoubleDashBabyParkSme_12_002
// 054   ----------------------------------------
	BYTE	PATT
	 POIN2	MarioKartDoubleDashBabyParkSme_12_002
// 055   ----------------------------------------
	BYTE	PATT
	 POIN2	MarioKartDoubleDashBabyParkSme_12_002
// 056   ----------------------------------------
	BYTE	PATT
	 POIN2	MarioKartDoubleDashBabyParkSme_12_002
// 057   ----------------------------------------
	BYTE	PATT
	 POIN2	MarioKartDoubleDashBabyParkSme_12_009
// 058   ----------------------------------------
	BYTE	PATT
	 POIN2	MarioKartDoubleDashBabyParkSme_12_002
// 059   ----------------------------------------
	BYTE	PATT
	 POIN2	MarioKartDoubleDashBabyParkSme_12_002
// 060   ----------------------------------------
	BYTE	PATT
	 POIN2	MarioKartDoubleDashBabyParkSme_12_002
// 061   ----------------------------------------
	BYTE	PATT
	 POIN2	MarioKartDoubleDashBabyParkSme_12_002
// 062   ----------------------------------------
	BYTE	PATT
	 POIN2	MarioKartDoubleDashBabyParkSme_12_002
// 063   ----------------------------------------
	BYTE	PATT
	 POIN2	MarioKartDoubleDashBabyParkSme_12_002
// 064   ----------------------------------------
	BYTE	PATT
	 POIN2	MarioKartDoubleDashBabyParkSme_12_002
// 065   ----------------------------------------
	BYTE	PATT
	 POIN2	MarioKartDoubleDashBabyParkSme_12_009
// 066   ----------------------------------------
	BYTE	PATT
	 POIN2	MarioKartDoubleDashBabyParkSme_12_002
// 067   ----------------------------------------
	BYTE	PATT
	 POIN2	MarioKartDoubleDashBabyParkSme_12_002
// 068   ----------------------------------------
	BYTE	PATT
	 POIN2	MarioKartDoubleDashBabyParkSme_12_002
// 069   ----------------------------------------
	BYTE	PATT
	 POIN2	MarioKartDoubleDashBabyParkSme_12_002
// 070   ----------------------------------------
	BYTE	PATT
	 POIN2	MarioKartDoubleDashBabyParkSme_12_002
// 071   ----------------------------------------
	BYTE	PATT
	 POIN2	MarioKartDoubleDashBabyParkSme_12_002
// 072   ----------------------------------------
	BYTE	PATT
	 POIN2	MarioKartDoubleDashBabyParkSme_12_002
// 073   ----------------------------------------
	BYTE		N11     As1   v100
	BYTE	W12
	BYTE		        En1 
	BYTE		N11     Fs2 
	BYTE	W12
	BYTE	GoTo
	 POIN2	MarioKartDoubleDashBabyParkSme_12_B1
MarioKartDoubleDashBabyParkSme_12_B2:
	BYTE	FINE

//******************************************************//
	ALIGN 4

MarioKartDoubleDashBabyParkSme:
	BYTE	12	// NumTrks
	BYTE	0	// NumBlks
	BYTE	MarioKartDoubleDashBabyParkSme_pri	// Priority
	BYTE	MarioKartDoubleDashBabyParkSme_rev	// Reverb.

	POIN2	MarioKartDoubleDashBabyParkSme_grp

	POIN2	MarioKartDoubleDashBabyParkSme_1
	POIN2	MarioKartDoubleDashBabyParkSme_2
	POIN2	MarioKartDoubleDashBabyParkSme_3
	POIN2	MarioKartDoubleDashBabyParkSme_4
	POIN2	MarioKartDoubleDashBabyParkSme_5
	POIN2	MarioKartDoubleDashBabyParkSme_6
	POIN2	MarioKartDoubleDashBabyParkSme_7
	POIN2	MarioKartDoubleDashBabyParkSme_8
	POIN2	MarioKartDoubleDashBabyParkSme_9
	POIN2	MarioKartDoubleDashBabyParkSme_10
	POIN2	MarioKartDoubleDashBabyParkSme_11
	POIN2	MarioKartDoubleDashBabyParkSme_12

	
