//Event file generated from Sappy .s format.
	#include "MPlayDef.event"

	#define	MarioKartWiiMapleTreewaySme_grp  voicegroup000
	#define	MarioKartWiiMapleTreewaySme_pri  0
	#define	MarioKartWiiMapleTreewaySme_rev  0
	#define	MarioKartWiiMapleTreewaySme_mvl  85
	#define	MarioKartWiiMapleTreewaySme_key  0
	#define	MarioKartWiiMapleTreewaySme_tbs  1
	#define	MarioKartWiiMapleTreewaySme_exg  0
	#define	MarioKartWiiMapleTreewaySme_cmp  1

	// .rodata
	//	MarioKartWiiMapleTreewaySme
	ALIGN 4

//**************** Track 1 (Midi-Chn.1) ****************//

MarioKartWiiMapleTreewaySme_1:
	BYTE	KEYSH   MarioKartWiiMapleTreewaySme_key+0
// 000   ----------------------------------------
	BYTE	TEMPO   144*MarioKartWiiMapleTreewaySme_tbs/2
	BYTE		VOICE   64
	BYTE		PAN     c_v-5
	BYTE		VOL     69*MarioKartWiiMapleTreewaySme_mvl/mxv
	BYTE	W12
	BYTE		N06     As2   v100
	BYTE	W12
	BYTE		        Ds3 
	BYTE	W12
	BYTE		        Gn3   v104
	BYTE	W12
	BYTE		N12     As3 
	BYTE	W12
	BYTE		N06     Gs3   v108
	BYTE	W12
	BYTE		        Gn3   v104
	BYTE	W12
	BYTE		        Fn3 
	BYTE	W12
// 001   ----------------------------------------
	BYTE		N48     Ds3 
	BYTE	W48
	BYTE		N06     Ds4   v127
	BYTE	W48
MarioKartWiiMapleTreewaySme_1_B1:
// 002   ----------------------------------------
	BYTE	W96
// 003   ----------------------------------------
	BYTE	W96
// 004   ----------------------------------------
	BYTE	W96
// 005   ----------------------------------------
	BYTE	W96
// 006   ----------------------------------------
	BYTE	W96
// 007   ----------------------------------------
	BYTE	W96
// 008   ----------------------------------------
	BYTE	W96
// 009   ----------------------------------------
	BYTE	W96
// 010   ----------------------------------------
	BYTE	W12
	BYTE		N12     Dn3   v104
	BYTE	W12
	BYTE		        Gn3   v124
	BYTE	W12
	BYTE		N08     As3   v120
	BYTE	W08
	BYTE		N03     As3   v096
	BYTE	W04
	BYTE		N12     Cn4   v120
	BYTE	W12
	BYTE		        As3   v108
	BYTE	W12
	BYTE		        Cn4   v124
	BYTE	W12
	BYTE		N08     Dn4 
	BYTE	W08
	BYTE		N03     Dn4   v100
	BYTE	W04
// 011   ----------------------------------------
	BYTE		N12     Ds4   v116
	BYTE	W12
	BYTE		        Cs4   v108
	BYTE	W12
	BYTE		        Bn3   v104
	BYTE	W12
	BYTE		        Cs4   v124
	BYTE	W12
	BYTE		N24     As3   v108
	BYTE	W24
	BYTE		N12     Gn3   v104
	BYTE	W12
	BYTE		        Fn3   v108
	BYTE	W12
// 012   ----------------------------------------
	BYTE	W12
	BYTE		        Ds3   v104
	BYTE	W12
	BYTE		        Gn3   v127
	BYTE	W12
	BYTE		N08     Cn4 
	BYTE	W08
	BYTE		N03     Cn4   v104
	BYTE	W04
	BYTE		N12     Dn4   v116
	BYTE	W12
	BYTE		        Cn4   v104
	BYTE	W12
	BYTE		        Dn4   v120
	BYTE	W12
	BYTE		N06     Ds4 
	BYTE	W12
// 013   ----------------------------------------
	BYTE		N24     Fn4   v108
	BYTE	W24
	BYTE		N12     Ds4 
	BYTE	W12
	BYTE		N08     Fn4   v116
	BYTE	W08
	BYTE		N03     Fn4   v104
	BYTE	W04
	BYTE		N24     Gn4   v120
	BYTE	W24
	BYTE		        Fn4   v104
	BYTE	W24
// 014   ----------------------------------------
	BYTE	W12
	BYTE		N12     Dn3 
	BYTE	W12
	BYTE		        Gn3   v127
	BYTE	W12
	BYTE		        As3 
	BYTE	W12
	BYTE		        Cn4   v120
	BYTE	W12
	BYTE		        As3   v112
	BYTE	W12
	BYTE		        Cn4   v116
	BYTE	W12
	BYTE		        Dn4   v120
	BYTE	W12
// 015   ----------------------------------------
	BYTE		        Ds4 
	BYTE	W12
	BYTE		        Cs4   v108
	BYTE	W12
	BYTE		        Bn3   v100
	BYTE	W12
	BYTE		        Gs3   v104
	BYTE	W12
	BYTE		N24     Gn3   v108
	BYTE	W24
	BYTE		        Fn3 
	BYTE	W24
// 016   ----------------------------------------
	BYTE	W12
	BYTE		N12     Ds3   v104
	BYTE	W12
	BYTE		        Gn3   v124
	BYTE	W12
	BYTE		        Cn4   v127
	BYTE	W12
	BYTE		        Dn4   v124
	BYTE	W12
	BYTE		        Cn4   v108
	BYTE	W12
	BYTE		        Dn4   v124
	BYTE	W12
	BYTE		        Ds4   v120
	BYTE	W12
// 017   ----------------------------------------
	BYTE		N48     Fn4   v124
	BYTE	W48
	BYTE		N24     Cn4   v100
	BYTE	W24
	BYTE		        Fn4   v124
	BYTE	W24
// 018   ----------------------------------------
	BYTE		N96     Gn4   v127
	BYTE	W96
// 019   ----------------------------------------
	BYTE	W96
// 020   ----------------------------------------
	BYTE	W96
// 021   ----------------------------------------
	BYTE	W96
// 022   ----------------------------------------
	BYTE	W96
// 023   ----------------------------------------
	BYTE	W96
// 024   ----------------------------------------
	BYTE	W96
// 025   ----------------------------------------
	BYTE	W96
// 026   ----------------------------------------
	BYTE	W96
// 027   ----------------------------------------
	BYTE	W96
// 028   ----------------------------------------
	BYTE	W96
// 029   ----------------------------------------
	BYTE	W96
// 030   ----------------------------------------
	BYTE	W96
// 031   ----------------------------------------
	BYTE	W96
// 032   ----------------------------------------
	BYTE	W96
// 033   ----------------------------------------
	BYTE	W96
// 034   ----------------------------------------
	BYTE	W96
// 035   ----------------------------------------
	BYTE	W96
// 036   ----------------------------------------
	BYTE	W96
// 037   ----------------------------------------
	BYTE	W96
// 038   ----------------------------------------
	BYTE	W96
// 039   ----------------------------------------
	BYTE	W96
	BYTE	GoTo
	 POIN2	MarioKartWiiMapleTreewaySme_1_B1
MarioKartWiiMapleTreewaySme_1_B2:
// 040   ----------------------------------------
	BYTE	FINE

//**************** Track 2 (Midi-Chn.2) ****************//

MarioKartWiiMapleTreewaySme_2:
	BYTE	KEYSH   MarioKartWiiMapleTreewaySme_key+0
// 000   ----------------------------------------
	BYTE		VOICE   2
	BYTE		PAN     c_v+13
	BYTE		VOL     58*MarioKartWiiMapleTreewaySme_mvl/mxv
	BYTE	W12
	BYTE		N06     As3   v060
	BYTE	W12
	BYTE		        Ds4   v052
	BYTE	W12
	BYTE		        Gn4   v056
	BYTE	W12
	BYTE		N12     As4   v052
	BYTE	W12
	BYTE		N06     Gs4   v056
	BYTE	W12
	BYTE		        Gn4 
	BYTE	W12
	BYTE		        Fn4   v052
	BYTE	W12
// 001   ----------------------------------------
	BYTE		N48     Ds4   v060
	BYTE	W48
	BYTE		N06     Ds5   v127
	BYTE	W48
MarioKartWiiMapleTreewaySme_2_B1:
// 002   ----------------------------------------
	BYTE	W96
// 003   ----------------------------------------
	BYTE	W96
// 004   ----------------------------------------
	BYTE	W96
// 005   ----------------------------------------
	BYTE	W96
// 006   ----------------------------------------
	BYTE	W96
// 007   ----------------------------------------
	BYTE	W96
// 008   ----------------------------------------
	BYTE	W96
// 009   ----------------------------------------
	BYTE	W96
// 010   ----------------------------------------
	BYTE	W96
// 011   ----------------------------------------
	BYTE	W96
// 012   ----------------------------------------
	BYTE	W96
// 013   ----------------------------------------
	BYTE	W96
// 014   ----------------------------------------
	BYTE	W96
// 015   ----------------------------------------
	BYTE	W96
// 016   ----------------------------------------
	BYTE	W96
// 017   ----------------------------------------
	BYTE		N09     Fn3   v048
	BYTE		N09     An3 
	BYTE		N09     Cn4 
	BYTE	W18
	BYTE		        Fn3   v040
	BYTE		N09     An3 
	BYTE		N09     Cn4 
	BYTE	W18
	BYTE		        Fn3   v044
	BYTE		N09     An3 
	BYTE		N09     Cn4 
	BYTE	W36
	BYTE		        Fn3   v048
	BYTE		N09     Cn4 
	BYTE	W12
	BYTE		        Fn3   v044
	BYTE		N09     An3 
	BYTE	W12
// 018   ----------------------------------------
	BYTE		        Dn3   v052
	BYTE		N09     Gn3 
	BYTE		N09     Bn3 
	BYTE	W18
	BYTE		        Dn3   v048
	BYTE		N09     Gn3 
	BYTE		N09     Bn3 
	BYTE	W18
	BYTE		        Dn3   v044
	BYTE		N09     Gn3 
	BYTE		N09     Bn3 
	BYTE	W60
// 019   ----------------------------------------
	BYTE	W12
	BYTE		        En3   v064
	BYTE		N09     Gn3 
	BYTE	W12
	BYTE		N09   
	BYTE		N09     Cn4 
	BYTE	W12
	BYTE		        Cn4   v068
	BYTE		N09     En4 
	BYTE	W12
	BYTE		        Cn4   v064
	BYTE		N09     Fn4 
	BYTE	W12
	BYTE		        Cn4 
	BYTE		N09     En4 
	BYTE	W12
	BYTE		        Bn3   v068
	BYTE		N09     Dn4 
	BYTE	W12
	BYTE		        Gn3 
	BYTE		N09     Cn4 
	BYTE	W12
// 020   ----------------------------------------
	BYTE		        Dn3   v060
	BYTE		N09     Gn3 
	BYTE		N09     Bn3 
	BYTE	W12
	BYTE		        Fn3   v064
	BYTE		N09     Gn3 
	BYTE		N09     Cn4 
	BYTE	W12
	BYTE		        Bn3   v068
	BYTE		N09     Dn4 
	BYTE	W12
	BYTE		        Dn3   v072
	BYTE		N09     En3 
	BYTE		N09     Gn3 
	BYTE	W60
// 021   ----------------------------------------
	BYTE	W12
	BYTE		        En3   v068
	BYTE		N09     Gn3 
	BYTE	W12
	BYTE		        Gn3   v064
	BYTE		N09     Cn4 
	BYTE	W12
	BYTE		N09   
	BYTE		N09     En4 
	BYTE	W12
	BYTE		        Cn4 
	BYTE		N09     Fn4 
	BYTE	W12
	BYTE		        Cn4 
	BYTE		N09     En4 
	BYTE	W12
	BYTE		        Bn3 
	BYTE		N09     Dn4 
	BYTE	W12
	BYTE		        Fn3   v068
	BYTE		N09     Gn3 
	BYTE		N09     Cn4 
	BYTE	W12
// 022   ----------------------------------------
MarioKartWiiMapleTreewaySme_2_022:
	BYTE		N09     Gn3   v064
	BYTE		N09     Cn4 
	BYTE		N09     En4 
	BYTE	W96
	BYTE	PEND
// 023   ----------------------------------------
	BYTE	W12
	BYTE		        En3 
	BYTE		N09     Gn3 
	BYTE	W12
	BYTE		N09   
	BYTE		N09     Cn4 
	BYTE	W12
	BYTE		        Cn4   v068
	BYTE		N09     En4 
	BYTE	W12
	BYTE		        Cn4   v060
	BYTE		N09     Fn4 
	BYTE	W12
	BYTE		        Cn4   v064
	BYTE		N09     En4 
	BYTE	W12
	BYTE		        Bn3   v060
	BYTE		N09     Dn4 
	BYTE	W12
	BYTE		        Gn3   v064
	BYTE		N09     Cn4 
	BYTE	W12
// 024   ----------------------------------------
	BYTE		        Dn3 
	BYTE		N09     Gn3 
	BYTE		N09     Bn3 
	BYTE	W12
	BYTE		        Gn3 
	BYTE		N09     An3 
	BYTE		N09     Cn4 
	BYTE	W12
	BYTE		        Bn3   v060
	BYTE		N09     Dn4 
	BYTE	W12
	BYTE		        Dn3   v064
	BYTE		N09     En3 
	BYTE		N09     Gn3 
	BYTE	W60
// 025   ----------------------------------------
	BYTE	W12
	BYTE		        En3 
	BYTE		N09     Gn3 
	BYTE	W12
	BYTE		N09   
	BYTE		N09     Cn4 
	BYTE	W12
	BYTE		N09   
	BYTE		N09     En4 
	BYTE	W12
	BYTE		        Cn4 
	BYTE		N09     Fn4 
	BYTE	W12
	BYTE		        Cn4   v068
	BYTE		N09     En4 
	BYTE	W12
	BYTE		        Cn4   v064
	BYTE		N09     Fn4 
	BYTE	W12
	BYTE		        Bn3   v068
	BYTE		N09     Cn4 
	BYTE		N09     Gn4 
	BYTE	W12
// 026   ----------------------------------------
	BYTE		        Cn4 
	BYTE		N09     En4 
	BYTE	W36
	BYTE		N06     En4   v064
	BYTE	W06
	BYTE		N02     Fn4   v072
	BYTE	W02
	BYTE		N03     En4   v064
	BYTE	W04
	BYTE		N06     Dn4   v068
	BYTE	W06
	BYTE		        Cn4   v064
	BYTE	W06
	BYTE		        Bn3   v072
	BYTE	W06
	BYTE		        An3   v064
	BYTE	W06
	BYTE		        Gn3   v068
	BYTE	W06
	BYTE		        Fn3   v072
	BYTE	W06
	BYTE		        En3   v068
	BYTE	W06
	BYTE		        Dn3   v064
	BYTE	W06
// 027   ----------------------------------------
	BYTE		N24     Cn3   v072
	BYTE	W96
// 028   ----------------------------------------
	BYTE	W96
// 029   ----------------------------------------
	BYTE	W96
// 030   ----------------------------------------
	BYTE	W36
	BYTE		N06     Cn5   v052
	BYTE	W06
	BYTE		        Bn4   v056
	BYTE	W06
	BYTE		        An4   v060
	BYTE	W06
	BYTE		        Gn4 
	BYTE	W06
	BYTE		        Fn4   v056
	BYTE	W06
	BYTE		        En4 
	BYTE	W06
	BYTE		        Dn4   v060
	BYTE	W06
	BYTE		        Cn4   v056
	BYTE	W06
	BYTE		        Bn3   v060
	BYTE	W06
	BYTE		        An3 
	BYTE	W06
// 031   ----------------------------------------
	BYTE		N09     Gn3   v056
	BYTE	W12
	BYTE		        En3   v060
	BYTE		N09     Gn3 
	BYTE	W12
	BYTE		        Gn3   v068
	BYTE		N09     Cn4 
	BYTE	W12
	BYTE		        Cn4   v064
	BYTE		N09     En4 
	BYTE	W12
	BYTE		        Cn4 
	BYTE		N09     Fn4 
	BYTE	W12
	BYTE		        Cn4   v060
	BYTE		N09     En4 
	BYTE	W12
	BYTE		        Bn3   v068
	BYTE		N09     Dn4 
	BYTE	W12
	BYTE		        Gn3   v064
	BYTE		N09     Cn4 
	BYTE	W12
// 032   ----------------------------------------
	BYTE		        Dn3 
	BYTE		N09     Gn3 
	BYTE		N09     Bn3 
	BYTE	W12
	BYTE		        Gn3 
	BYTE		N09     An3 
	BYTE		N09     Cn4 
	BYTE	W12
	BYTE		        Bn3 
	BYTE		N09     Dn4 
	BYTE	W12
	BYTE		        Dn3 
	BYTE		N09     En3 
	BYTE		N09     Gn3 
	BYTE	W60
// 033   ----------------------------------------
	BYTE	W12
	BYTE		        En3 
	BYTE		N09     Gn3 
	BYTE	W12
	BYTE		N09   
	BYTE		N09     Cn4 
	BYTE	W12
	BYTE		        Cn4   v068
	BYTE		N09     En4 
	BYTE	W12
	BYTE		        Cn4   v064
	BYTE		N09     Fn4 
	BYTE	W12
	BYTE		        Cn4 
	BYTE		N09     En4 
	BYTE	W12
	BYTE		        Bn3 
	BYTE		N09     Dn4 
	BYTE	W12
	BYTE		        Fn3   v068
	BYTE		N09     Gn3 
	BYTE		N09     Cn4 
	BYTE	W12
// 034   ----------------------------------------
	BYTE	PATT
	 POIN2	MarioKartWiiMapleTreewaySme_2_022
// 035   ----------------------------------------
	BYTE	W12
	BYTE		N09     En3   v068
	BYTE		N09     Gn3 
	BYTE	W12
	BYTE		        Gn3   v064
	BYTE		N09     Cn4 
	BYTE	W12
	BYTE		N09   
	BYTE		N09     En4 
	BYTE	W12
	BYTE		        Cn4 
	BYTE		N09     Fn4 
	BYTE	W12
	BYTE		        Cn4 
	BYTE		N09     En4 
	BYTE	W12
	BYTE		        Bn3   v068
	BYTE		N09     Dn4 
	BYTE	W12
	BYTE		        Gn3   v064
	BYTE		N09     Cn4 
	BYTE	W12
// 036   ----------------------------------------
	BYTE		        Dn3 
	BYTE		N09     Gn3 
	BYTE		N09     Bn3 
	BYTE	W12
	BYTE		        Gn3   v060
	BYTE		N09     An3 
	BYTE		N09     Cn4 
	BYTE	W12
	BYTE		        Bn3   v064
	BYTE		N09     Dn4 
	BYTE	W12
	BYTE		        Dn3   v068
	BYTE		N09     En3 
	BYTE		N09     Gn3 
	BYTE	W24
	BYTE		        Gn4   v088
	BYTE	W12
	BYTE		        Fn4   v092
	BYTE	W12
	BYTE		        En4   v088
	BYTE	W12
// 037   ----------------------------------------
	BYTE		        Gn4 
	BYTE	W24
	BYTE		        Gs4 
	BYTE	W12
	BYTE		N12     As4 
	BYTE	W24
	BYTE		        Ds4   v064
	BYTE	W12
	BYTE		        Gn4   v076
	BYTE	W12
	BYTE		        As4   v080
	BYTE	W12
// 038   ----------------------------------------
	BYTE		N09     Cn4   v064
	BYTE	W24
	BYTE		        Dn4   v068
	BYTE	W12
	BYTE		N12     Ds4   v072
	BYTE	W12
	BYTE		        Fn5 
	BYTE	W24
	BYTE		        Fn4   v076
	BYTE	W12
	BYTE		        Gn4   v084
	BYTE	W12
// 039   ----------------------------------------
	BYTE		N48     As3 
	BYTE		N48     Gn4 
	BYTE	W48
	BYTE		        Gs3   v076
	BYTE		N48     Fn4 
	BYTE	W48
	BYTE	GoTo
	 POIN2	MarioKartWiiMapleTreewaySme_2_B1
MarioKartWiiMapleTreewaySme_2_B2:
// 040   ----------------------------------------
	BYTE	FINE

//**************** Track 3 (Midi-Chn.3) ****************//

MarioKartWiiMapleTreewaySme_3:
	BYTE	KEYSH   MarioKartWiiMapleTreewaySme_key+0
// 000   ----------------------------------------
	BYTE		VOICE   24
	BYTE		PAN     c_v-15
	BYTE		VOL     70*MarioKartWiiMapleTreewaySme_mvl/mxv
	BYTE	W12
	BYTE		N06     As1   v048
	BYTE		N06     As2   v104
	BYTE	W12
	BYTE		        Ds2   v048
	BYTE		N06     Ds3   v108
	BYTE	W12
	BYTE		        Gn2   v048
	BYTE		N06     Gn3   v108
	BYTE	W12
	BYTE		N01     Gn2   v048
	BYTE		N01     Gn3   v100
	BYTE	W01
	BYTE		        Gs2   v048
	BYTE		N01     Gs3   v120
	BYTE	W02
	BYTE		N06     As2   v056
	BYTE		N06     As3   v112
	BYTE	W09
	BYTE		        Gs2   v048
	BYTE		N06     Gs3   v104
	BYTE	W12
	BYTE		        Gn2   v048
	BYTE		N06     Gn3   v104
	BYTE	W12
	BYTE		        Fn2   v048
	BYTE		N06     Fn3   v104
	BYTE	W12
// 001   ----------------------------------------
	BYTE		N01     Cn2   v040
	BYTE		N01     Cn3   v108
	BYTE	W01
	BYTE		        Dn2   v048
	BYTE		N01     Dn3   v116
	BYTE	W02
	BYTE		N44     Ds2   v056
	BYTE		N44     Ds3   v120
	BYTE	W44
	BYTE	W01
	BYTE		N06     Ds3   v064
	BYTE		N06     Ds4   v124
	BYTE	W48
MarioKartWiiMapleTreewaySme_3_B1:
// 002   ----------------------------------------
	BYTE		N12     Ds2   v076
	BYTE	W12
	BYTE		N06     As2   v092
	BYTE	W06
	BYTE		N12     Ds3   v096
	BYTE	W12
	BYTE		N18     Gn3   v100
	BYTE	W06
	BYTE		N06     Ds3   v076
	BYTE	W06
	BYTE		        As2   v072
	BYTE	W06
	BYTE		N12     Ds2   v076
	BYTE	W12
	BYTE		N06     Bn2   v088
	BYTE	W06
	BYTE		N12     Ds3   v096
	BYTE	W12
	BYTE		N18     Gs3   v092
	BYTE	W06
	BYTE		N06     Ds3   v080
	BYTE	W06
	BYTE		        Bn2   v072
	BYTE	W06
// 003   ----------------------------------------
	BYTE		N12     Ds2   v076
	BYTE	W12
	BYTE		N06   
	BYTE	W06
	BYTE		N12     Gs2   v088
	BYTE	W12
	BYTE		N18     Cs3   v096
	BYTE	W06
	BYTE		N06     Gs2   v072
	BYTE	W06
	BYTE		        Ds2 
	BYTE	W06
	BYTE		N12     Ds2   v076
	BYTE	W12
	BYTE		N06     Ds2   v088
	BYTE	W06
	BYTE		N12     Gs2 
	BYTE	W12
	BYTE		N18     Cn3   v092
	BYTE	W06
	BYTE		N06     Gs2   v076
	BYTE	W06
	BYTE		        Ds2   v072
	BYTE	W06
// 004   ----------------------------------------
	BYTE		N12     Ds2   v076
	BYTE	W12
	BYTE		N06     As2   v092
	BYTE	W06
	BYTE		N12     Ds3   v096
	BYTE	W12
	BYTE		N18     Gn3 
	BYTE	W06
	BYTE		N06     Ds3   v072
	BYTE	W06
	BYTE		        As2 
	BYTE	W06
	BYTE		N12     Ds2   v076
	BYTE	W12
	BYTE		N06     Bn2   v096
	BYTE	W06
	BYTE		N12     Ds3   v092
	BYTE	W12
	BYTE		N18     Gs3 
	BYTE	W06
	BYTE		N06     Ds3   v080
	BYTE	W06
	BYTE		        Bn2   v072
	BYTE	W06
// 005   ----------------------------------------
	BYTE		N12     Ds2 
	BYTE	W12
	BYTE		N06     As2   v092
	BYTE	W06
	BYTE		N12     Ds3   v100
	BYTE	W12
	BYTE		N18     Gn3 
	BYTE	W06
	BYTE		N06     Ds3   v072
	BYTE	W06
	BYTE		        As2 
	BYTE	W06
	BYTE		N12     Ds2   v076
	BYTE	W12
	BYTE		N06     As2   v088
	BYTE	W06
	BYTE		N12     Ds3   v096
	BYTE	W12
	BYTE		N18     Gn3 
	BYTE	W06
	BYTE		N06     Ds3   v076
	BYTE	W06
	BYTE		        As2   v068
	BYTE	W06
// 006   ----------------------------------------
	BYTE		N12     Ds2 
	BYTE	W12
	BYTE		N06     As2   v092
	BYTE	W06
	BYTE		N12     Ds3   v096
	BYTE	W12
	BYTE		N18     Gn3 
	BYTE	W06
	BYTE		N06     Ds3   v072
	BYTE	W06
	BYTE		        As2 
	BYTE	W06
	BYTE		N12     Ds2 
	BYTE	W12
	BYTE		N06     Bn2   v088
	BYTE	W06
	BYTE		N12     Ds3   v096
	BYTE	W12
	BYTE		N18     Gs3 
	BYTE	W06
	BYTE		N06     Ds3   v076
	BYTE	W06
	BYTE		        Bn2   v072
	BYTE	W06
// 007   ----------------------------------------
	BYTE		N12     Ds2 
	BYTE	W12
	BYTE		N06     Ds2   v080
	BYTE	W06
	BYTE		N12     Gs2   v092
	BYTE	W12
	BYTE		N18     Cs3   v096
	BYTE	W06
	BYTE		N06     Gs2   v072
	BYTE	W06
	BYTE		        Ds2   v080
	BYTE	W06
	BYTE		N12     Ds2   v076
	BYTE	W12
	BYTE		N06     Ds2   v084
	BYTE	W06
	BYTE		N12     Gs2   v092
	BYTE	W12
	BYTE		N18     Cn3   v096
	BYTE	W06
	BYTE		N06     Gs2   v076
	BYTE	W06
	BYTE		        Ds2   v072
	BYTE	W06
// 008   ----------------------------------------
	BYTE		N12     Ds2   v076
	BYTE	W12
	BYTE		N06     As2   v088
	BYTE	W06
	BYTE		N12     Ds3   v096
	BYTE	W12
	BYTE		N18     Gn3   v092
	BYTE	W06
	BYTE		N06     Ds3   v072
	BYTE	W06
	BYTE		        As2   v076
	BYTE	W06
	BYTE		N12     Ds2   v072
	BYTE	W12
	BYTE		N06     Bn2   v088
	BYTE	W06
	BYTE		N12     Ds3   v096
	BYTE	W12
	BYTE		N18     Gs3 
	BYTE	W06
	BYTE		N06     Ds3   v076
	BYTE	W06
	BYTE		        Bn2 
	BYTE	W06
// 009   ----------------------------------------
	BYTE		N12     Ds2 
	BYTE	W12
	BYTE		N06     As2   v088
	BYTE	W06
	BYTE		N12     Ds3   v096
	BYTE	W12
	BYTE		N18     Gn3   v092
	BYTE	W06
	BYTE		N06     Ds3   v072
	BYTE	W06
	BYTE		        As2 
	BYTE	W06
	BYTE		N12     Ds2 
	BYTE	W12
	BYTE		N06     As2   v092
	BYTE	W06
	BYTE		N12     Ds3   v100
	BYTE	W12
	BYTE		N18     Gn3   v096
	BYTE	W06
	BYTE		N06     Ds3   v072
	BYTE	W06
	BYTE		        As2 
	BYTE	W06
// 010   ----------------------------------------
	BYTE		N12     Gn1   v064
	BYTE	W12
	BYTE		N06     Dn2   v076
	BYTE	W06
	BYTE		N12     Gn2   v080
	BYTE	W12
	BYTE		N18     As2   v072
	BYTE	W06
	BYTE		N06     Gn2   v060
	BYTE	W06
	BYTE		        Dn2 
	BYTE	W06
	BYTE		N12     Gn1   v064
	BYTE	W12
	BYTE		N06     Gn2   v084
	BYTE	W06
	BYTE		N12     Cn3   v080
	BYTE	W12
	BYTE		N18     Ds3   v084
	BYTE	W06
	BYTE		N06     Cn3   v064
	BYTE	W06
	BYTE		        Gn2 
	BYTE	W06
// 011   ----------------------------------------
	BYTE		N12     Gn1 
	BYTE	W12
	BYTE		N06     Ds2   v080
	BYTE	W06
	BYTE		N12     Gs2   v076
	BYTE	W12
	BYTE		N18     Bn2   v072
	BYTE	W06
	BYTE		N06     Gs2   v064
	BYTE	W06
	BYTE		        Ds2   v068
	BYTE	W06
	BYTE		N12   
	BYTE	W12
	BYTE		N06     As2   v076
	BYTE	W06
	BYTE		        Ds3   v084
	BYTE	W06
	BYTE		N12     Dn2   v064
	BYTE	W12
	BYTE		N06     Fn2   v072
	BYTE	W06
	BYTE		        As2 
	BYTE	W06
// 012   ----------------------------------------
	BYTE		N12     Cn2   v064
	BYTE	W12
	BYTE		N06     Gn2   v080
	BYTE	W06
	BYTE		N12     Cn3 
	BYTE	W12
	BYTE		N18     Ds3 
	BYTE	W06
	BYTE		N06     Cn3   v064
	BYTE	W06
	BYTE		        Gn2   v060
	BYTE	W06
	BYTE		N12     As1 
	BYTE	W12
	BYTE		N06     Fn2   v076
	BYTE	W06
	BYTE		N12     As2 
	BYTE	W12
	BYTE		N18     Dn3   v080
	BYTE	W06
	BYTE		N06     As2   v064
	BYTE	W06
	BYTE		        Fn2   v060
	BYTE	W06
// 013   ----------------------------------------
	BYTE		N12     Gs1   v064
	BYTE	W12
	BYTE		N06     Ds2   v076
	BYTE	W06
	BYTE		N12     Gs2   v080
	BYTE	W12
	BYTE		N18     Cn3 
	BYTE	W06
	BYTE		N06     Gs2   v064
	BYTE	W06
	BYTE		        Ds2 
	BYTE	W06
	BYTE		N12     As1 
	BYTE	W12
	BYTE		N06     Fn2   v076
	BYTE	W06
	BYTE		N12     As2   v072
	BYTE	W12
	BYTE		N18     Dn3   v080
	BYTE	W06
	BYTE		N06     As2   v064
	BYTE	W06
	BYTE		        Fn2   v056
	BYTE	W06
// 014   ----------------------------------------
	BYTE		N12     Gn1   v064
	BYTE	W12
	BYTE		N06     Dn2   v076
	BYTE	W06
	BYTE		N12     Gn2   v080
	BYTE	W12
	BYTE		N18     As2 
	BYTE	W06
	BYTE		N06     Gn2   v060
	BYTE	W06
	BYTE		        Dn2 
	BYTE	W06
	BYTE		N12     Gn1 
	BYTE	W12
	BYTE		N06     Gn2   v080
	BYTE	W06
	BYTE		N12     Cn3   v084
	BYTE	W12
	BYTE		N18     Ds3   v080
	BYTE	W06
	BYTE		N06     Cn3   v060
	BYTE	W06
	BYTE		        Gn2   v064
	BYTE	W06
// 015   ----------------------------------------
	BYTE		N12     Gn1 
	BYTE	W12
	BYTE		N06     Ds2   v080
	BYTE	W06
	BYTE		N12     Gs2   v072
	BYTE	W12
	BYTE		N18     Bn2   v076
	BYTE	W06
	BYTE		N06     Gs2   v060
	BYTE	W06
	BYTE		        Ds2   v064
	BYTE	W06
	BYTE		N12   
	BYTE	W12
	BYTE		N06     As2   v080
	BYTE	W06
	BYTE		        Ds3   v084
	BYTE	W06
	BYTE		N12     Dn2   v064
	BYTE	W12
	BYTE		N06     Fn2   v072
	BYTE	W06
	BYTE		        As2   v076
	BYTE	W06
// 016   ----------------------------------------
	BYTE		N12     Cn2   v064
	BYTE	W12
	BYTE		N06     Gn2   v076
	BYTE	W06
	BYTE		N12     Cn3   v084
	BYTE	W12
	BYTE		N18     Ds3   v076
	BYTE	W06
	BYTE		N06     Cn3   v056
	BYTE	W06
	BYTE		        Gn2   v060
	BYTE	W06
	BYTE		N12     As1   v068
	BYTE	W12
	BYTE		N06     Fn2   v076
	BYTE	W06
	BYTE		N12     As2   v080
	BYTE	W12
	BYTE		N18     Dn3 
	BYTE	W06
	BYTE		N06     As2   v064
	BYTE	W06
	BYTE		        Fn2   v060
	BYTE	W06
// 017   ----------------------------------------
	BYTE	W96
// 018   ----------------------------------------
	BYTE	W96
// 019   ----------------------------------------
	BYTE	W96
// 020   ----------------------------------------
	BYTE	W54
	BYTE		BEND    c_v-64
	BYTE	W01
	BYTE		N16     Gn3   v120
	BYTE		N16     Bn3 
	BYTE	W02
	BYTE		BEND    c_v-58
	BYTE	W01
	BYTE		        c_v-44
	BYTE	W01
	BYTE		        c_v-24
	BYTE	W01
	BYTE		        c_v-4
	BYTE	W01
	BYTE		        c_v+0
	BYTE	W02
	BYTE		        c_v+0
	BYTE	W09
	BYTE		N06     En3   v100
	BYTE		N06     Gn3 
	BYTE	W12
	BYTE		        Dn3   v104
	BYTE		N06     Fn3 
	BYTE	W12
// 021   ----------------------------------------
	BYTE		        Cn3 
	BYTE		N06     En3 
	BYTE	W96
// 022   ----------------------------------------
	BYTE	W24
	BYTE		N12     Gn3   v127
	BYTE	W07
	BYTE		BEND    c_v+36
	BYTE	W05
	BYTE		        c_v+0
	BYTE		N12   
	BYTE	W12
	BYTE		N24     Dn3   v124
	BYTE	W24
	BYTE		N03     Cn4   v127
	BYTE	W03
	BYTE		        Cs4 
	BYTE	W03
	BYTE		N18     Dn4 
	BYTE	W18
// 023   ----------------------------------------
	BYTE		N24     Cn4 
	BYTE	W96
// 024   ----------------------------------------
	BYTE	W54
	BYTE		BEND    c_v-64
	BYTE	W01
	BYTE		N16     Gn3   v120
	BYTE		N16     Bn3 
	BYTE	W02
	BYTE		BEND    c_v-58
	BYTE	W01
	BYTE		        c_v-44
	BYTE	W01
	BYTE		        c_v-24
	BYTE	W01
	BYTE		        c_v-4
	BYTE	W01
	BYTE		        c_v+0
	BYTE	W02
	BYTE		        c_v+0
	BYTE	W09
	BYTE		N06     En3   v100
	BYTE		N06     Gn3 
	BYTE	W12
	BYTE		        Bn3 
	BYTE		N06     Dn4 
	BYTE	W12
// 025   ----------------------------------------
	BYTE		        Gn3   v104
	BYTE		N06     Cn4 
	BYTE	W96
// 026   ----------------------------------------
	BYTE	W36
	BYTE		        En4   v127
	BYTE	W06
	BYTE		N02     Fn4 
	BYTE	W02
	BYTE		N03     En4 
	BYTE	W04
	BYTE		N06     Dn4 
	BYTE	W06
	BYTE		        Cn4 
	BYTE	W06
	BYTE		        Bn3 
	BYTE	W06
	BYTE		        An3 
	BYTE	W06
	BYTE		        Gn3 
	BYTE	W06
	BYTE		        Fn3 
	BYTE	W06
	BYTE		        En3 
	BYTE	W06
	BYTE		        Dn3   v124
	BYTE	W06
// 027   ----------------------------------------
	BYTE		N24     Cn3   v104
	BYTE	W96
// 028   ----------------------------------------
	BYTE	W96
// 029   ----------------------------------------
	BYTE	W96
// 030   ----------------------------------------
	BYTE	W36
	BYTE		N06     Cn5   v076
	BYTE	W06
	BYTE		        Bn4 
	BYTE	W06
	BYTE		        An4   v080
	BYTE	W06
	BYTE		        Gn4 
	BYTE	W06
	BYTE		        Fn4 
	BYTE	W06
	BYTE		        En4   v076
	BYTE	W06
	BYTE		        Dn4   v084
	BYTE	W06
	BYTE		        Cn4   v080
	BYTE	W06
	BYTE		        Bn3 
	BYTE	W06
	BYTE		        An3 
	BYTE	W06
// 031   ----------------------------------------
	BYTE		N09     Gn3   v076
	BYTE	W96
// 032   ----------------------------------------
	BYTE	W54
	BYTE		BEND    c_v-64
	BYTE	W01
	BYTE		N16     Gn3   v120
	BYTE		N16     Bn3 
	BYTE	W02
	BYTE		BEND    c_v-58
	BYTE	W01
	BYTE		        c_v-44
	BYTE	W01
	BYTE		        c_v-24
	BYTE	W01
	BYTE		        c_v-4
	BYTE	W01
	BYTE		        c_v+0
	BYTE	W02
	BYTE		        c_v+0
	BYTE	W09
	BYTE		N06     En3   v100
	BYTE		N06     Gn3 
	BYTE	W12
	BYTE		        Dn3   v104
	BYTE		N06     Fn3 
	BYTE	W12
// 033   ----------------------------------------
	BYTE		        Cn3   v100
	BYTE		N06     En3 
	BYTE	W96
// 034   ----------------------------------------
	BYTE	W24
	BYTE		N12     Gn3   v127
	BYTE	W07
	BYTE		BEND    c_v+36
	BYTE	W05
	BYTE		        c_v+0
	BYTE		N12   
	BYTE	W12
	BYTE		N24     Dn3 
	BYTE	W24
	BYTE		N03     Cn4 
	BYTE	W03
	BYTE		        Cs4 
	BYTE	W03
	BYTE		N18     Dn4 
	BYTE	W18
// 035   ----------------------------------------
	BYTE		N24     Cn4 
	BYTE	W96
// 036   ----------------------------------------
	BYTE	W96
// 037   ----------------------------------------
	BYTE	W96
// 038   ----------------------------------------
	BYTE	W96
// 039   ----------------------------------------
	BYTE		N12     As1   v076
	BYTE	W12
	BYTE		N06     Fn2   v092
	BYTE	W06
	BYTE		N12     As2 
	BYTE	W12
	BYTE		N18     Ds3   v100
	BYTE	W06
	BYTE		N06     As2   v076
	BYTE	W06
	BYTE		        Fn2   v072
	BYTE	W06
	BYTE		N12     As1   v076
	BYTE	W12
	BYTE		N06     Fn2   v088
	BYTE	W06
	BYTE		N12     As2   v092
	BYTE	W12
	BYTE		N18     Dn3 
	BYTE	W06
	BYTE		N06     As2   v076
	BYTE	W06
	BYTE		        Fn2 
	BYTE	W06
	BYTE	GoTo
	 POIN2	MarioKartWiiMapleTreewaySme_3_B1
MarioKartWiiMapleTreewaySme_3_B2:
// 040   ----------------------------------------
	BYTE		BEND    c_v+0
	BYTE	FINE

//**************** Track 4 (Midi-Chn.4) ****************//

MarioKartWiiMapleTreewaySme_4:
	BYTE	KEYSH   MarioKartWiiMapleTreewaySme_key+0
// 000   ----------------------------------------
	BYTE		VOICE   34
	BYTE		VOL     70*MarioKartWiiMapleTreewaySme_mvl/mxv
	BYTE		PAN     c_v+0
	BYTE	W12
	BYTE		N06     As1   v116
	BYTE	W12
	BYTE		        Ds2 
	BYTE	W12
	BYTE		        Gn2   v112
	BYTE	W12
	BYTE		N12     As2 
	BYTE	W12
	BYTE		N06     Gs2   v120
	BYTE	W12
	BYTE		        Gn2   v112
	BYTE	W12
	BYTE		        Fn2   v116
	BYTE	W12
// 001   ----------------------------------------
	BYTE		N48     Ds2   v112
	BYTE	W48
	BYTE		N06     Ds3   v116
	BYTE	W24
	BYTE		N24     As1   v100
	BYTE	W24
MarioKartWiiMapleTreewaySme_4_B1:
// 002   ----------------------------------------
	BYTE		N18     Ds2   v120
	BYTE	W18
	BYTE		N06     As2   v124
	BYTE	W18
	BYTE		N24     Ds3   v100
	BYTE	W24
	BYTE		N12     As2   v108
	BYTE	W12
	BYTE		        Ds2   v104
	BYTE	W12
	BYTE		        As1 
	BYTE	W12
// 003   ----------------------------------------
	BYTE		N18     As1   v112
	BYTE	W18
	BYTE		N06     Fn2   v120
	BYTE	W18
	BYTE		N24     Gs2   v108
	BYTE	W24
	BYTE		N12     Ds2   v104
	BYTE	W12
	BYTE		        Gs1   v100
	BYTE	W12
	BYTE		        Ds2   v120
	BYTE	W12
// 004   ----------------------------------------
	BYTE		N18     Ds2   v116
	BYTE	W18
	BYTE		N06     As2   v124
	BYTE	W18
	BYTE		N24     Ds3   v104
	BYTE	W24
	BYTE		N12     As2   v112
	BYTE	W12
	BYTE		        Ds2   v104
	BYTE	W12
	BYTE		        As1 
	BYTE	W12
// 005   ----------------------------------------
	BYTE		N18     Ds2   v124
	BYTE	W18
	BYTE		N06     As2 
	BYTE	W18
	BYTE		N24     Ds3   v108
	BYTE	W24
	BYTE		N12     As1   v096
	BYTE	W12
	BYTE		N24     As1   v108
	BYTE	W24
// 006   ----------------------------------------
MarioKartWiiMapleTreewaySme_4_006:
	BYTE		N18     Ds2   v116
	BYTE	W18
	BYTE		N06     As2   v127
	BYTE	W18
	BYTE		N24     Ds3   v104
	BYTE	W24
	BYTE		N12     As2 
	BYTE	W12
	BYTE		        Ds2 
	BYTE	W12
	BYTE		        As1 
	BYTE	W12
	BYTE	PEND
// 007   ----------------------------------------
	BYTE		N18     As1   v112
	BYTE	W18
	BYTE		N06     Fn2   v124
	BYTE	W18
	BYTE		N24     Gs2   v100
	BYTE	W24
	BYTE		N12     Ds2   v104
	BYTE	W12
	BYTE		        Gs1 
	BYTE	W12
	BYTE		        Ds2   v124
	BYTE	W12
// 008   ----------------------------------------
	BYTE	PATT
	 POIN2	MarioKartWiiMapleTreewaySme_4_006
// 009   ----------------------------------------
	BYTE		N18     Ds2   v116
	BYTE	W18
	BYTE		N06     As2   v127
	BYTE	W18
	BYTE		N24     Ds3   v100
	BYTE	W24
	BYTE		N12     Ds2 
	BYTE	W12
	BYTE		N24     Ds2   v108
	BYTE	W24
// 010   ----------------------------------------
	BYTE		N18     Gn2   v116
	BYTE	W18
	BYTE		N06     Dn3   v124
	BYTE	W18
	BYTE		N24     Gn3   v104
	BYTE	W24
	BYTE		N12     Gn2   v096
	BYTE	W12
	BYTE		        Cn2   v100
	BYTE	W12
	BYTE		        Gn2   v120
	BYTE	W12
// 011   ----------------------------------------
	BYTE		N18     Gs1   v104
	BYTE	W18
	BYTE		N06     Ds2   v124
	BYTE	W18
	BYTE		N12     Gs2   v104
	BYTE	W12
	BYTE		N24     Ds2   v100
	BYTE	W24
	BYTE		N12     Dn2   v108
	BYTE	W12
	BYTE		        Dn2   v112
	BYTE	W12
// 012   ----------------------------------------
	BYTE		N18     Cn2 
	BYTE	W18
	BYTE		N06     Gn2   v124
	BYTE	W18
	BYTE		N24     Cn3   v096
	BYTE	W24
	BYTE		N12     As1   v100
	BYTE	W12
	BYTE		        As1   v116
	BYTE	W12
	BYTE		        As1   v112
	BYTE	W12
// 013   ----------------------------------------
	BYTE		N18     Gs1   v108
	BYTE	W18
	BYTE		N06     Ds2   v124
	BYTE	W18
	BYTE		N12     Gs2   v104
	BYTE	W12
	BYTE		N18     As1   v100
	BYTE	W18
	BYTE		N06     Fn2   v120
	BYTE	W18
	BYTE		N12     As2   v100
	BYTE	W12
// 014   ----------------------------------------
	BYTE		N18     Gn2   v108
	BYTE	W18
	BYTE		N06     Dn3   v124
	BYTE	W18
	BYTE		N24     Gn3   v104
	BYTE	W24
	BYTE		N12     Gn2   v100
	BYTE	W12
	BYTE		        Cn2 
	BYTE	W12
	BYTE		        Gn2   v124
	BYTE	W12
// 015   ----------------------------------------
	BYTE		N18     Gs1   v104
	BYTE	W18
	BYTE		N06     Ds2   v116
	BYTE	W18
	BYTE		N12     Gs2   v104
	BYTE	W12
	BYTE		N24     Ds2   v108
	BYTE	W24
	BYTE		N12     Dn2   v112
	BYTE	W12
	BYTE		        Dn2   v116
	BYTE	W12
// 016   ----------------------------------------
	BYTE		N18     Cn2   v104
	BYTE	W18
	BYTE		N06     Gn2   v120
	BYTE	W18
	BYTE		N24     Cn3   v100
	BYTE	W24
	BYTE		N12     As1 
	BYTE	W12
	BYTE		        As1   v112
	BYTE	W12
	BYTE		N12   
	BYTE	W12
// 017   ----------------------------------------
	BYTE		        Fn2   v127
	BYTE	W18
	BYTE		        Fn2   v124
	BYTE	W18
	BYTE		        Fn2   v127
	BYTE	W60
// 018   ----------------------------------------
	BYTE		        Gn2 
	BYTE	W18
	BYTE		N12   
	BYTE	W18
	BYTE		        Gn2   v124
	BYTE	W60
// 019   ----------------------------------------
	BYTE		        Cn2 
	BYTE	W18
	BYTE		        Cn2   v127
	BYTE	W36
	BYTE		        Cn2   v124
	BYTE	W30
	BYTE		        Cn2   v127
	BYTE	W12
// 020   ----------------------------------------
MarioKartWiiMapleTreewaySme_4_020:
	BYTE		N12     Cn2   v127
	BYTE	W18
	BYTE		N12   
	BYTE	W36
	BYTE		        Cn2   v124
	BYTE	W30
	BYTE		        Cn2   v127
	BYTE	W12
	BYTE	PEND
// 021   ----------------------------------------
	BYTE	PATT
	 POIN2	MarioKartWiiMapleTreewaySme_4_020
// 022   ----------------------------------------
	BYTE		N12     Cn2   v127
	BYTE	W18
	BYTE		N12   
	BYTE	W36
	BYTE		        Cn2   v124
	BYTE	W30
	BYTE		N12   
	BYTE	W12
// 023   ----------------------------------------
MarioKartWiiMapleTreewaySme_4_023:
	BYTE		N12     Cn2   v127
	BYTE	W18
	BYTE		        Cn2   v124
	BYTE	W36
	BYTE		        Cn2   v127
	BYTE	W30
	BYTE		N12   
	BYTE	W12
	BYTE	PEND
// 024   ----------------------------------------
	BYTE		N12   
	BYTE	W18
	BYTE		N12   
	BYTE	W36
	BYTE		N12   
	BYTE	W30
	BYTE		        Cn2   v124
	BYTE	W12
// 025   ----------------------------------------
	BYTE	PATT
	 POIN2	MarioKartWiiMapleTreewaySme_4_020
// 026   ----------------------------------------
	BYTE		N12     Cn2   v127
	BYTE	W18
	BYTE		N12   
	BYTE	W36
	BYTE		        Cn2   v120
	BYTE	W30
	BYTE		        Bn1   v127
	BYTE	W12
// 027   ----------------------------------------
	BYTE		        An2 
	BYTE	W18
	BYTE		N12   
	BYTE	W36
	BYTE		N12   
	BYTE	W30
	BYTE		N12   
	BYTE	W12
// 028   ----------------------------------------
	BYTE		        Gn2 
	BYTE	W18
	BYTE		        Gn2   v124
	BYTE	W18
	BYTE		        Fn2 
	BYTE	W24
	BYTE		        En2 
	BYTE	W24
	BYTE		        En2   v127
	BYTE	W12
// 029   ----------------------------------------
	BYTE		        Dn2 
	BYTE	W18
	BYTE		N12   
	BYTE	W36
	BYTE		        En2   v124
	BYTE	W30
	BYTE		        Fn2   v127
	BYTE	W12
// 030   ----------------------------------------
	BYTE		        Gn2 
	BYTE	W18
	BYTE		N12   
	BYTE	W36
	BYTE		N12   
	BYTE	W30
	BYTE		N12   
	BYTE	W12
// 031   ----------------------------------------
	BYTE		        Cn2   v124
	BYTE	W18
	BYTE		        Cn2   v127
	BYTE	W36
	BYTE		N12   
	BYTE	W30
	BYTE		        Cn2   v120
	BYTE	W12
// 032   ----------------------------------------
MarioKartWiiMapleTreewaySme_4_032:
	BYTE		N12     Cn2   v127
	BYTE	W18
	BYTE		N12   
	BYTE	W36
	BYTE		N12   
	BYTE	W30
	BYTE		N12   
	BYTE	W12
	BYTE	PEND
// 033   ----------------------------------------
	BYTE	PATT
	 POIN2	MarioKartWiiMapleTreewaySme_4_023
// 034   ----------------------------------------
MarioKartWiiMapleTreewaySme_4_034:
	BYTE		N12     Cn2   v127
	BYTE	W18
	BYTE		        Cn2   v124
	BYTE	W36
	BYTE		        Cn2   v127
	BYTE	W30
	BYTE		        Cn2   v124
	BYTE	W12
	BYTE	PEND
// 035   ----------------------------------------
	BYTE	PATT
	 POIN2	MarioKartWiiMapleTreewaySme_4_034
// 036   ----------------------------------------
	BYTE	PATT
	 POIN2	MarioKartWiiMapleTreewaySme_4_032
// 037   ----------------------------------------
	BYTE		N12     Ds2   v127
	BYTE	W18
	BYTE		N12   
	BYTE	W36
	BYTE		N12   
	BYTE	W30
	BYTE		N12   
	BYTE	W12
// 038   ----------------------------------------
	BYTE		        Gs2 
	BYTE	W18
	BYTE		N12   
	BYTE	W36
	BYTE		        Ds2 
	BYTE	W30
	BYTE		        Gs1   v124
	BYTE	W12
// 039   ----------------------------------------
	BYTE		N96     As2   v127
	BYTE	W96
	BYTE	GoTo
	 POIN2	MarioKartWiiMapleTreewaySme_4_B1
MarioKartWiiMapleTreewaySme_4_B2:
// 040   ----------------------------------------
	BYTE	FINE

//**************** Track 5 (Midi-Chn.5) ****************//

MarioKartWiiMapleTreewaySme_5:
	BYTE	KEYSH   MarioKartWiiMapleTreewaySme_key+0
// 000   ----------------------------------------
	BYTE		VOICE   21
	BYTE		VOL     42*MarioKartWiiMapleTreewaySme_mvl/mxv
	BYTE		PAN     c_v+16
	BYTE		BEND    c_v-4
	BYTE	W96
// 001   ----------------------------------------
	BYTE	W96
MarioKartWiiMapleTreewaySme_5_B1:
// 002   ----------------------------------------
	BYTE	W12
	BYTE		N12     As3   v104
	BYTE	W12
	BYTE		        Ds4   v127
	BYTE	W12
	BYTE		        Gn4 
	BYTE	W12
	BYTE		        Gs4   v124
	BYTE	W12
	BYTE		        Gn4   v112
	BYTE	W12
	BYTE		        Fn4   v108
	BYTE	W12
	BYTE		        Ds4   v104
	BYTE	W12
// 003   ----------------------------------------
	BYTE		        Cs4 
	BYTE	W12
	BYTE		        Ds4   v120
	BYTE	W12
	BYTE		        Fn4   v124
	BYTE	W12
	BYTE		BEND    c_v-64
	BYTE	W01
	BYTE		N22     Cn4   v120
	BYTE	W04
	BYTE		BEND    c_v-55
	BYTE	W01
	BYTE		        c_v-41
	BYTE	W01
	BYTE		        c_v-31
	BYTE	W01
	BYTE		        c_v-17
	BYTE	W01
	BYTE		        c_v-3
	BYTE	W01
	BYTE		        c_v+0
	BYTE	W02
	BYTE		        c_v-4
	BYTE	W12
	BYTE		N12     Cs4   v124
	BYTE	W12
	BYTE		        Cn4   v112
	BYTE	W12
	BYTE		        Gs3   v100
	BYTE	W12
// 004   ----------------------------------------
	BYTE	W12
	BYTE		        As3   v108
	BYTE	W12
	BYTE		        Ds4   v127
	BYTE	W12
	BYTE		        Gn4 
	BYTE	W12
	BYTE		        Gs4   v124
	BYTE	W12
	BYTE		        Gn4   v108
	BYTE	W12
	BYTE		        Fn4 
	BYTE	W12
	BYTE		        Ds4 
	BYTE	W12
// 005   ----------------------------------------
	BYTE		N84     Gn4   v124
	BYTE	W96
// 006   ----------------------------------------
	BYTE	W12
	BYTE		N12     As3   v100
	BYTE	W12
	BYTE		        Ds4   v124
	BYTE	W12
	BYTE		        Gn4 
	BYTE	W12
	BYTE		        Gs4   v120
	BYTE	W12
	BYTE		        Gn4   v108
	BYTE	W12
	BYTE		        Fn4   v104
	BYTE	W12
	BYTE		        Ds4   v112
	BYTE	W12
// 007   ----------------------------------------
	BYTE		        Cs4   v108
	BYTE	W12
	BYTE		        Ds4   v120
	BYTE	W12
	BYTE		        Fn4 
	BYTE	W12
	BYTE		BEND    c_v-64
	BYTE	W01
	BYTE		N22     Cn4   v116
	BYTE	W04
	BYTE		BEND    c_v-55
	BYTE	W01
	BYTE		        c_v-41
	BYTE	W01
	BYTE		        c_v-31
	BYTE	W01
	BYTE		        c_v-17
	BYTE	W01
	BYTE		        c_v-3
	BYTE	W01
	BYTE		        c_v+0
	BYTE	W02
	BYTE		        c_v-4
	BYTE	W12
	BYTE		N12     Cs4 
	BYTE	W12
	BYTE		        Cn4   v112
	BYTE	W12
	BYTE		        Gs3   v100
	BYTE	W12
// 008   ----------------------------------------
	BYTE	W12
	BYTE		        As3 
	BYTE	W12
	BYTE		        Ds4   v127
	BYTE	W12
	BYTE		        Gn4 
	BYTE	W12
	BYTE		        Gs4   v120
	BYTE	W12
	BYTE		        Gn4   v108
	BYTE	W12
	BYTE		        Gs4   v116
	BYTE	W12
	BYTE		        As4   v120
	BYTE	W12
// 009   ----------------------------------------
	BYTE		N84     Gn4   v104
	BYTE	W96
// 010   ----------------------------------------
	BYTE	W96
// 011   ----------------------------------------
	BYTE	W96
// 012   ----------------------------------------
	BYTE	W96
// 013   ----------------------------------------
	BYTE	W96
// 014   ----------------------------------------
	BYTE	W12
	BYTE		N12     Dn3 
	BYTE	W12
	BYTE		        Gn3   v127
	BYTE	W12
	BYTE		        As3 
	BYTE	W12
	BYTE		        Cn4   v116
	BYTE	W12
	BYTE		        As3   v108
	BYTE	W12
	BYTE		        Cn4   v120
	BYTE	W12
	BYTE		        Dn4   v124
	BYTE	W12
// 015   ----------------------------------------
	BYTE		        Ds4   v116
	BYTE	W12
	BYTE		        Cs4   v112
	BYTE	W12
	BYTE		        Bn3   v108
	BYTE	W12
	BYTE		        Gs3   v104
	BYTE	W12
	BYTE		N24     Gn3   v108
	BYTE	W24
	BYTE		        Fn3 
	BYTE	W24
// 016   ----------------------------------------
	BYTE	W12
	BYTE		N12     Ds3   v100
	BYTE	W12
	BYTE		        Gn3   v124
	BYTE	W12
	BYTE		        Cn4   v127
	BYTE	W12
	BYTE		        Dn4   v120
	BYTE	W12
	BYTE		        Cn4   v108
	BYTE	W12
	BYTE		        Dn4   v120
	BYTE	W12
	BYTE		        Ds4   v116
	BYTE	W12
// 017   ----------------------------------------
	BYTE		N48     Fn4   v124
	BYTE	W48
	BYTE		N24     Cn4   v100
	BYTE	W24
	BYTE		        Fn4   v127
	BYTE	W24
// 018   ----------------------------------------
	BYTE		N96     Gn4   v120
	BYTE	W96
// 019   ----------------------------------------
	BYTE		BEND    c_v-4
	BYTE	W96
// 020   ----------------------------------------
	BYTE	W96
// 021   ----------------------------------------
	BYTE	W96
// 022   ----------------------------------------
	BYTE	W96
// 023   ----------------------------------------
	BYTE	W96
// 024   ----------------------------------------
	BYTE	W96
// 025   ----------------------------------------
	BYTE	W96
// 026   ----------------------------------------
	BYTE	W96
// 027   ----------------------------------------
	BYTE	W96
// 028   ----------------------------------------
	BYTE	W96
// 029   ----------------------------------------
	BYTE	W96
// 030   ----------------------------------------
	BYTE	W96
// 031   ----------------------------------------
	BYTE	W96
// 032   ----------------------------------------
	BYTE	W96
// 033   ----------------------------------------
	BYTE	W96
// 034   ----------------------------------------
	BYTE	W96
// 035   ----------------------------------------
	BYTE	W96
// 036   ----------------------------------------
	BYTE	W96
// 037   ----------------------------------------
	BYTE	W96
// 038   ----------------------------------------
	BYTE	W96
// 039   ----------------------------------------
	BYTE	W96
	BYTE	GoTo
	 POIN2	MarioKartWiiMapleTreewaySme_5_B1
MarioKartWiiMapleTreewaySme_5_B2:
// 040   ----------------------------------------
	BYTE	FINE

//**************** Track 6 (Midi-Chn.6) ****************//

MarioKartWiiMapleTreewaySme_6:
	BYTE	KEYSH   MarioKartWiiMapleTreewaySme_key+0
// 000   ----------------------------------------
	BYTE		VOICE   20
	BYTE		VOL     54*MarioKartWiiMapleTreewaySme_mvl/mxv
	BYTE		PAN     c_v+6
	BYTE	W96
// 001   ----------------------------------------
	BYTE	W96
MarioKartWiiMapleTreewaySme_6_B1:
// 002   ----------------------------------------
	BYTE	W12
	BYTE		N12     As3   v096
	BYTE	W12
	BYTE		        Ds4   v127
	BYTE	W12
	BYTE		        Gn4 
	BYTE	W12
	BYTE		        Gs4   v120
	BYTE	W12
	BYTE		        Gn4   v108
	BYTE	W12
	BYTE		        Fn4 
	BYTE	W12
	BYTE		        Ds4   v104
	BYTE	W12
// 003   ----------------------------------------
	BYTE		        Cs4   v108
	BYTE	W12
	BYTE		        Ds4   v120
	BYTE	W12
	BYTE		        Fn4 
	BYTE	W12
	BYTE		BEND    c_v-64
	BYTE	W01
	BYTE		N22     Cn4   v124
	BYTE	W04
	BYTE		BEND    c_v-55
	BYTE	W01
	BYTE		        c_v-41
	BYTE	W01
	BYTE		        c_v-31
	BYTE	W01
	BYTE		        c_v-17
	BYTE	W01
	BYTE		        c_v-3
	BYTE	W01
	BYTE		        c_v+0
	BYTE	W02
	BYTE		        c_v+0
	BYTE	W12
	BYTE		N12     Cs4   v116
	BYTE	W12
	BYTE		        Cn4   v112
	BYTE	W12
	BYTE		        Gs3   v104
	BYTE	W12
// 004   ----------------------------------------
	BYTE	W12
	BYTE		        As3   v100
	BYTE	W12
	BYTE		        Ds4   v127
	BYTE	W12
	BYTE		        Gn4 
	BYTE	W12
	BYTE		        Gs4   v124
	BYTE	W12
	BYTE		        Gn4   v112
	BYTE	W12
	BYTE		        Fn4   v108
	BYTE	W12
	BYTE		        Ds4   v104
	BYTE	W12
// 005   ----------------------------------------
	BYTE		N84     Gn4   v124
	BYTE	W96
// 006   ----------------------------------------
	BYTE	W12
	BYTE		N12     As3   v104
	BYTE	W12
	BYTE		        Ds4   v127
	BYTE	W12
	BYTE		        Gn4 
	BYTE	W12
	BYTE		        Gs4   v124
	BYTE	W12
	BYTE		        Gn4   v104
	BYTE	W12
	BYTE		        Fn4   v108
	BYTE	W12
	BYTE		        Ds4   v104
	BYTE	W12
// 007   ----------------------------------------
	BYTE		        Cs4   v108
	BYTE	W12
	BYTE		        Ds4   v120
	BYTE	W12
	BYTE		        Fn4   v124
	BYTE	W12
	BYTE		BEND    c_v-64
	BYTE	W01
	BYTE		N22     Cn4   v120
	BYTE	W04
	BYTE		BEND    c_v-55
	BYTE	W01
	BYTE		        c_v-41
	BYTE	W01
	BYTE		        c_v-31
	BYTE	W01
	BYTE		        c_v-17
	BYTE	W01
	BYTE		        c_v-3
	BYTE	W01
	BYTE		        c_v+0
	BYTE	W02
	BYTE		        c_v+0
	BYTE	W12
	BYTE		N12     Cs4 
	BYTE	W12
	BYTE		        Cn4   v112
	BYTE	W12
	BYTE		        Gs3   v100
	BYTE	W12
// 008   ----------------------------------------
	BYTE	W12
	BYTE		        As3   v104
	BYTE	W12
	BYTE		        Ds4   v127
	BYTE	W12
	BYTE		        Gn4 
	BYTE	W12
	BYTE		        Gs4   v124
	BYTE	W12
	BYTE		        Gn4   v112
	BYTE	W12
	BYTE		        Gs4   v116
	BYTE	W12
	BYTE		        As4   v127
	BYTE	W12
// 009   ----------------------------------------
	BYTE		N84     Gn4   v108
	BYTE	W96
// 010   ----------------------------------------
	BYTE	W96
// 011   ----------------------------------------
	BYTE	W96
// 012   ----------------------------------------
	BYTE	W96
// 013   ----------------------------------------
	BYTE	W96
// 014   ----------------------------------------
	BYTE	W12
	BYTE		N12     Dn3   v104
	BYTE	W12
	BYTE		        Gn3   v127
	BYTE	W12
	BYTE		        As3 
	BYTE	W12
	BYTE		        Cn4   v124
	BYTE	W12
	BYTE		        As3   v112
	BYTE	W12
	BYTE		        Cn4   v116
	BYTE	W12
	BYTE		        Dn4   v124
	BYTE	W12
// 015   ----------------------------------------
	BYTE		        Ds4 
	BYTE	W12
	BYTE		        Cs4   v108
	BYTE	W12
	BYTE		        Bn3 
	BYTE	W12
	BYTE		        Gs3   v096
	BYTE	W12
	BYTE		N24     Gn3   v108
	BYTE	W24
	BYTE		        Fn3   v104
	BYTE	W24
// 016   ----------------------------------------
	BYTE	W12
	BYTE		N12     Ds3   v100
	BYTE	W12
	BYTE		        Gn3   v124
	BYTE	W12
	BYTE		        Cn4   v127
	BYTE	W12
	BYTE		        Dn4   v124
	BYTE	W12
	BYTE		        Cn4   v108
	BYTE	W12
	BYTE		        Dn4   v120
	BYTE	W12
	BYTE		        Ds4   v112
	BYTE	W12
// 017   ----------------------------------------
	BYTE		N48     Fn4   v120
	BYTE	W48
	BYTE		N24     Cn4   v096
	BYTE	W24
	BYTE		        Fn4   v120
	BYTE	W24
// 018   ----------------------------------------
	BYTE		N96     Gn4   v124
	BYTE	W96
// 019   ----------------------------------------
	BYTE		BEND    c_v+0
	BYTE	W96
// 020   ----------------------------------------
	BYTE	W96
// 021   ----------------------------------------
	BYTE	W96
// 022   ----------------------------------------
	BYTE	W96
// 023   ----------------------------------------
	BYTE	W96
// 024   ----------------------------------------
	BYTE	W96
// 025   ----------------------------------------
	BYTE	W96
// 026   ----------------------------------------
	BYTE	W96
// 027   ----------------------------------------
	BYTE	W96
// 028   ----------------------------------------
	BYTE	W96
// 029   ----------------------------------------
	BYTE	W96
// 030   ----------------------------------------
	BYTE	W96
// 031   ----------------------------------------
	BYTE	W96
// 032   ----------------------------------------
	BYTE	W96
// 033   ----------------------------------------
	BYTE	W96
// 034   ----------------------------------------
	BYTE	W96
// 035   ----------------------------------------
	BYTE	W96
// 036   ----------------------------------------
	BYTE	W96
// 037   ----------------------------------------
	BYTE	W96
// 038   ----------------------------------------
	BYTE	W96
// 039   ----------------------------------------
	BYTE	W96
	BYTE	GoTo
	 POIN2	MarioKartWiiMapleTreewaySme_6_B1
MarioKartWiiMapleTreewaySme_6_B2:
// 040   ----------------------------------------
	BYTE	FINE

//**************** Track 7 (Midi-Chn.7) ****************//

MarioKartWiiMapleTreewaySme_7:
	BYTE	KEYSH   MarioKartWiiMapleTreewaySme_key+0
// 000   ----------------------------------------
	BYTE		VOICE   79
	BYTE		VOL     32*MarioKartWiiMapleTreewaySme_mvl/mxv
	BYTE		PAN     c_v+0
	BYTE	W96
// 001   ----------------------------------------
	BYTE	W96
MarioKartWiiMapleTreewaySme_7_B1:
// 002   ----------------------------------------
	BYTE	W96
// 003   ----------------------------------------
	BYTE	W96
// 004   ----------------------------------------
	BYTE	W96
// 005   ----------------------------------------
	BYTE	W96
// 006   ----------------------------------------
	BYTE	W96
// 007   ----------------------------------------
	BYTE	W96
// 008   ----------------------------------------
	BYTE	W96
// 009   ----------------------------------------
	BYTE	W96
// 010   ----------------------------------------
	BYTE	W96
// 011   ----------------------------------------
	BYTE	W96
// 012   ----------------------------------------
	BYTE	W96
// 013   ----------------------------------------
	BYTE	W96
// 014   ----------------------------------------
	BYTE	W96
// 015   ----------------------------------------
	BYTE	W96
// 016   ----------------------------------------
	BYTE	W96
// 017   ----------------------------------------
	BYTE	W96
// 018   ----------------------------------------
	BYTE	W96
// 019   ----------------------------------------
	BYTE	W12
	BYTE		N09     En3   v088
	BYTE		N09     Gn3   v100
	BYTE	W12
	BYTE		        Gn3   v092
	BYTE		N09     Cn4   v100
	BYTE	W12
	BYTE		        Cn4   v084
	BYTE		N09     En4   v104
	BYTE	W12
	BYTE		        Cn4   v088
	BYTE		N09     Fn4   v104
	BYTE	W12
	BYTE		        Cn4   v088
	BYTE		N09     En4   v104
	BYTE	W12
	BYTE		        Bn3   v088
	BYTE		N09     Dn4   v100
	BYTE	W12
	BYTE		        Gn3   v088
	BYTE		N09     Cn4   v104
	BYTE	W12
// 020   ----------------------------------------
	BYTE		        Dn3   v088
	BYTE		N09     Bn3   v108
	BYTE	W12
	BYTE		        Gn3   v088
	BYTE		N09     Cn4   v104
	BYTE	W12
	BYTE		        Bn3   v088
	BYTE		N09     Dn4   v104
	BYTE	W12
	BYTE		        En3   v088
	BYTE		N09     Gn3   v100
	BYTE	W60
// 021   ----------------------------------------
	BYTE	W12
	BYTE		        En3   v088
	BYTE		N09     Gn3   v104
	BYTE	W12
	BYTE		        Gn3   v092
	BYTE		N09     Cn4   v104
	BYTE	W12
	BYTE		        Cn4   v092
	BYTE		N09     En4   v100
	BYTE	W12
	BYTE		        Cn4   v092
	BYTE		N09     Fn4   v104
	BYTE	W12
	BYTE		        Cn4   v084
	BYTE		N09     En4   v100
	BYTE	W12
	BYTE		        Bn3   v088
	BYTE		N09     Dn4   v104
	BYTE	W12
	BYTE		        Gn3   v084
	BYTE		N09     Cn4   v100
	BYTE	W12
// 022   ----------------------------------------
	BYTE		        Gn3   v092
	BYTE		N09     En4   v104
	BYTE	W96
// 023   ----------------------------------------
	BYTE	W12
	BYTE		        En3   v084
	BYTE		N09     Gn3   v100
	BYTE	W12
	BYTE		        Gn3   v088
	BYTE		N09     Cn4   v104
	BYTE	W12
	BYTE		        Cn4   v092
	BYTE		N09     En4   v104
	BYTE	W12
	BYTE		        Cn4   v092
	BYTE		N09     Fn4   v108
	BYTE	W12
	BYTE		        Cn4   v084
	BYTE		N09     En4   v104
	BYTE	W12
	BYTE		        Bn3   v088
	BYTE		N09     Dn4   v104
	BYTE	W12
	BYTE		        Gn3   v088
	BYTE		N09     Cn4   v104
	BYTE	W12
// 024   ----------------------------------------
	BYTE		        Dn3   v088
	BYTE		N09     Bn3   v096
	BYTE	W12
	BYTE		        An3   v092
	BYTE		N09     Cn4   v100
	BYTE	W12
	BYTE		        Bn3   v088
	BYTE		N09     Dn4   v100
	BYTE	W12
	BYTE		        En3   v092
	BYTE		N09     Gn3   v104
	BYTE	W60
// 025   ----------------------------------------
	BYTE	W12
	BYTE		        En3   v088
	BYTE		N09     Gn3   v104
	BYTE	W12
	BYTE		        Gn3   v088
	BYTE		N09     Cn4   v100
	BYTE	W12
	BYTE		        Cn4   v088
	BYTE		N09     En4   v104
	BYTE	W12
	BYTE		        Cn4   v088
	BYTE		N09     Fn4   v104
	BYTE	W12
	BYTE		        Cn4   v096
	BYTE		N09     En4   v104
	BYTE	W12
	BYTE		        Cn4   v088
	BYTE		N09     Fn4   v100
	BYTE	W12
	BYTE		        Bn3   v092
	BYTE		N09     Gn4   v104
	BYTE	W12
// 026   ----------------------------------------
	BYTE		        Cn4   v092
	BYTE		N09     En4   v100
	BYTE	W96
// 027   ----------------------------------------
	BYTE	W12
	BYTE		N12     En3   v076
	BYTE		N12     An3   v092
	BYTE	W12
	BYTE		        An3   v096
	BYTE		N12     Cn4   v104
	BYTE	W12
	BYTE		        An3   v088
	BYTE		N12     Cn4 
	BYTE		N12     En4   v112
	BYTE	W12
	BYTE		N09     An3   v088
	BYTE		N09     Cn4 
	BYTE		N09     Fn4   v104
	BYTE	W12
	BYTE		N12     Gn3   v080
	BYTE		N12     Cn4 
	BYTE		N12     En4   v084
	BYTE	W12
	BYTE		        An3 
	BYTE		N12     Cn4 
	BYTE		N12     Fn4   v108
	BYTE	W12
	BYTE		        Bn3   v088
	BYTE		N12     Dn4 
	BYTE		N12     Gn4   v104
	BYTE	W12
// 028   ----------------------------------------
	BYTE		N09     Cn4   v092
	BYTE		N09     Fn4 
	BYTE		N09     An4   v100
	BYTE	W12
	BYTE		N12     Cn4   v080
	BYTE		N12     Gn4   v088
	BYTE	W12
	BYTE		        Cn4   v092
	BYTE		N12     Fn4 
	BYTE		N12     An4   v112
	BYTE	W12
	BYTE		        Dn4   v088
	BYTE		N12     Fn4 
	BYTE		N12     Bn4   v104
	BYTE	W12
	BYTE		N09     En4   v092
	BYTE		N09     Gn4 
	BYTE		N09     Cn5   v104
	BYTE	W12
	BYTE		        Cn4   v076
	BYTE		N09     En4 
	BYTE		N09     Gn4   v088
	BYTE	W12
	BYTE		        Gn3   v076
	BYTE		N09     Cn4 
	BYTE		N09     En4   v084
	BYTE	W12
	BYTE		        Cn4   v076
	BYTE		N09     En4 
	BYTE		N09     Gn4   v092
	BYTE	W12
// 029   ----------------------------------------
	BYTE		N12     An3   v076
	BYTE		N12     Cn4 
	BYTE		N12     Fn4   v092
	BYTE	W24
	BYTE		        An3   v080
	BYTE		N12     Cn4 
	BYTE		N12     Fn4   v088
	BYTE	W24
	BYTE		N09     An3   v076
	BYTE		N09     Cn4 
	BYTE		N09     Fn4   v088
	BYTE	W12
	BYTE		        An3   v072
	BYTE		N09     Cn4 
	BYTE		N09     En4   v088
	BYTE	W12
	BYTE		        Fn3   v076
	BYTE		N09     An3 
	BYTE		N09     Dn4   v088
	BYTE	W12
	BYTE		        Fn3   v076
	BYTE		N09     An3 
	BYTE		N09     Cn4   v088
	BYTE	W12
// 030   ----------------------------------------
	BYTE		        Fn3 
	BYTE		N09     An3 
	BYTE		N09     Dn4 
	BYTE	W18
	BYTE		        Fn3 
	BYTE		N09     An3 
	BYTE		N09     Dn4 
	BYTE	W18
	BYTE		        Fn3   v092
	BYTE		N09     An3 
	BYTE		N09     Dn4 
	BYTE		N06     Cn5   v127
	BYTE	W06
	BYTE		        Bn4 
	BYTE	W06
	BYTE		        An4 
	BYTE	W06
	BYTE		N09     Gn3   v088
	BYTE		N09     Bn3 
	BYTE		N09     Dn4 
	BYTE		N06     Gn4   v127
	BYTE	W06
	BYTE		        Fn4 
	BYTE	W06
	BYTE		        En4 
	BYTE	W06
	BYTE		N09     Gn3   v088
	BYTE		N09     Bn3 
	BYTE		N06     Dn4   v127
	BYTE	W06
	BYTE		        Cn4 
	BYTE	W06
	BYTE		N09     Bn2   v088
	BYTE		N09     Dn3 
	BYTE		N09     Gn3 
	BYTE		N06     Bn3   v127
	BYTE	W06
	BYTE		        An3 
	BYTE	W06
// 031   ----------------------------------------
	BYTE		N09     Gn3   v108
	BYTE	W18
	BYTE		        En3   v080
	BYTE		N09     Gn3 
	BYTE	W12
	BYTE		        Gn3   v072
	BYTE		N09     Cn4   v080
	BYTE	W12
	BYTE		        Cn4   v072
	BYTE		N09     En4   v076
	BYTE	W12
	BYTE		        Cn4   v072
	BYTE		N09     Fn4 
	BYTE	W12
	BYTE		        Cn4   v076
	BYTE		N09     En4   v080
	BYTE	W12
	BYTE		        Bn3 
	BYTE		N09     Dn4 
	BYTE	W12
	BYTE		        Gn3   v076
	BYTE		N09     Cn4 
	BYTE	W06
// 032   ----------------------------------------
	BYTE	W06
	BYTE		        Dn3   v072
	BYTE		N09     Bn3   v076
	BYTE	W12
	BYTE		        Gn3 
	BYTE		N09     Cn4   v072
	BYTE	W12
	BYTE		        Bn3   v080
	BYTE		N09     Dn4   v076
	BYTE	W12
	BYTE		        En3   v068
	BYTE		N09     Gn3   v076
	BYTE	W54
// 033   ----------------------------------------
	BYTE	W18
	BYTE		        En3 
	BYTE		N09     Gn3 
	BYTE	W12
	BYTE		N09   
	BYTE		N09     Cn4   v084
	BYTE	W12
	BYTE		        Cn4   v080
	BYTE		N09     En4   v076
	BYTE	W12
	BYTE		        Cn4   v080
	BYTE		N09     Fn4   v072
	BYTE	W12
	BYTE		        Cn4 
	BYTE		N09     En4 
	BYTE	W12
	BYTE		        Bn3   v076
	BYTE		N09     Dn4   v080
	BYTE	W12
	BYTE		        Gn3   v076
	BYTE		N09     Cn4   v080
	BYTE	W06
// 034   ----------------------------------------
	BYTE	W06
	BYTE		        Gn3   v076
	BYTE		N09     En4   v080
	BYTE	W90
// 035   ----------------------------------------
	BYTE	W18
	BYTE		        En3   v076
	BYTE		N09     Gn3 
	BYTE	W12
	BYTE		N09   
	BYTE		N09     Cn4   v080
	BYTE	W12
	BYTE		N09   
	BYTE		N09     En4 
	BYTE	W12
	BYTE		        Cn4   v076
	BYTE		N09     Fn4 
	BYTE	W12
	BYTE		        Cn4 
	BYTE		N09     En4 
	BYTE	W12
	BYTE		        Bn3 
	BYTE		N09     Dn4   v080
	BYTE	W12
	BYTE		        Gn3 
	BYTE		N09     Cn4 
	BYTE	W06
// 036   ----------------------------------------
	BYTE	W06
	BYTE		        Dn3   v076
	BYTE		N09     Bn3 
	BYTE	W12
	BYTE		        An3 
	BYTE		N09     Cn4 
	BYTE	W12
	BYTE		        Bn3 
	BYTE		N09     Dn4   v080
	BYTE	W12
	BYTE		        En3 
	BYTE		N09     Gn3   v076
	BYTE	W18
	BYTE		        Gn4   v088
	BYTE	W12
	BYTE		        Fn4 
	BYTE	W12
	BYTE		        En4 
	BYTE	W12
// 037   ----------------------------------------
	BYTE	W03
	BYTE		N06     Gn4   v092
	BYTE	W21
	BYTE		N09     Gs4   v088
	BYTE	W12
	BYTE		N12     As4   v092
	BYTE	W60
// 038   ----------------------------------------
	BYTE	W96
// 039   ----------------------------------------
	BYTE	W96
	BYTE	GoTo
	 POIN2	MarioKartWiiMapleTreewaySme_7_B1
MarioKartWiiMapleTreewaySme_7_B2:
// 040   ----------------------------------------
	BYTE	FINE

//**************** Track 8 (Midi-Chn.8) ****************//

MarioKartWiiMapleTreewaySme_8:
	BYTE	KEYSH   MarioKartWiiMapleTreewaySme_key+0
// 000   ----------------------------------------
	BYTE		VOICE   61
	BYTE		VOL     41*MarioKartWiiMapleTreewaySme_mvl/mxv
	BYTE		PAN     c_v-22
	BYTE	W96
// 001   ----------------------------------------
	BYTE	W96
MarioKartWiiMapleTreewaySme_8_B1:
// 002   ----------------------------------------
	BYTE	W96
// 003   ----------------------------------------
	BYTE	W96
// 004   ----------------------------------------
	BYTE	W96
// 005   ----------------------------------------
	BYTE	W96
// 006   ----------------------------------------
	BYTE	W96
// 007   ----------------------------------------
	BYTE	W96
// 008   ----------------------------------------
	BYTE	W96
// 009   ----------------------------------------
	BYTE	W96
// 010   ----------------------------------------
	BYTE	W96
// 011   ----------------------------------------
	BYTE	W96
// 012   ----------------------------------------
	BYTE	W96
// 013   ----------------------------------------
	BYTE	W96
// 014   ----------------------------------------
	BYTE	W96
// 015   ----------------------------------------
	BYTE	W96
// 016   ----------------------------------------
	BYTE	W96
// 017   ----------------------------------------
	BYTE		N09     Cn3   v076
	BYTE		N09     An3 
	BYTE	W18
	BYTE		        Cn3   v072
	BYTE		N09     An3 
	BYTE	W18
	BYTE		        Cn3   v080
	BYTE		N09     An3 
	BYTE	W36
	BYTE		        Cn3   v076
	BYTE		N09     Gn3 
	BYTE	W12
	BYTE		        An2 
	BYTE		N09     Fn3 
	BYTE	W12
// 018   ----------------------------------------
	BYTE		        Dn3 
	BYTE		N09     Gn3 
	BYTE	W18
	BYTE		        Dn3 
	BYTE		N09     Gn3 
	BYTE	W18
	BYTE		        Dn3 
	BYTE		N09     Gn3 
	BYTE	W60
// 019   ----------------------------------------
	BYTE		        Gn2   v064
	BYTE		N09     Cn3 
	BYTE	W18
	BYTE		        Gn2 
	BYTE		N09     Cn3 
	BYTE	W78
// 020   ----------------------------------------
	BYTE		        Gn2 
	BYTE		N09     Dn3 
	BYTE	W18
	BYTE		        Gn2 
	BYTE		N09     Dn3 
	BYTE	W78
// 021   ----------------------------------------
	BYTE		        Gn2 
	BYTE		N09     Cn3 
	BYTE	W18
	BYTE		        Gn2   v060
	BYTE		N09     Cn3 
	BYTE	W78
// 022   ----------------------------------------
	BYTE	W96
// 023   ----------------------------------------
MarioKartWiiMapleTreewaySme_8_023:
	BYTE		N09     Gn2   v068
	BYTE		N09     Cn3 
	BYTE	W18
	BYTE		        Gn2   v064
	BYTE		N09     Cn3 
	BYTE	W78
	BYTE	PEND
// 024   ----------------------------------------
	BYTE		        Gn2 
	BYTE		N09     Dn3 
	BYTE	W18
	BYTE		        Gn2   v068
	BYTE		N09     Dn3 
	BYTE	W78
// 025   ----------------------------------------
	BYTE		        Gn2   v064
	BYTE		N09     Cn3 
	BYTE	W18
	BYTE		        Gn2   v072
	BYTE		N09     Cn3 
	BYTE	W78
// 026   ----------------------------------------
	BYTE	PATT
	 POIN2	MarioKartWiiMapleTreewaySme_8_023
// 027   ----------------------------------------
	BYTE	W96
// 028   ----------------------------------------
	BYTE	W96
// 029   ----------------------------------------
	BYTE	W96
// 030   ----------------------------------------
	BYTE	W96
// 031   ----------------------------------------
	BYTE	PATT
	 POIN2	MarioKartWiiMapleTreewaySme_8_023
// 032   ----------------------------------------
	BYTE		N09     Gn2   v056
	BYTE		N09     Dn3 
	BYTE	W18
	BYTE		        Gn2   v064
	BYTE		N09     Dn3 
	BYTE	W78
// 033   ----------------------------------------
	BYTE		        Gn2   v060
	BYTE		N09     Cn3 
	BYTE	W18
	BYTE		        Gn2   v064
	BYTE		N09     Cn3 
	BYTE	W78
// 034   ----------------------------------------
	BYTE	W96
// 035   ----------------------------------------
	BYTE	PATT
	 POIN2	MarioKartWiiMapleTreewaySme_8_023
// 036   ----------------------------------------
	BYTE		N09     Gn2   v068
	BYTE		N09     Dn3 
	BYTE	W18
	BYTE		        Gn2   v064
	BYTE		N09     Dn3 
	BYTE	W66
	BYTE		        As2 
	BYTE		N09     Gn3 
	BYTE	W12
// 037   ----------------------------------------
	BYTE		        Gn2 
	BYTE		N09     Ds3 
	BYTE	W18
	BYTE		        Gn2   v068
	BYTE		N09     Ds3 
	BYTE	W12
	BYTE		        As2 
	BYTE		N09     Gn3 
	BYTE	W30
	BYTE		        As2   v064
	BYTE		N09     Gn3 
	BYTE	W12
	BYTE		        Gs2 
	BYTE		N09     Fn3 
	BYTE	W12
	BYTE		        Gn2   v068
	BYTE		N09     Ds3 
	BYTE	W12
// 038   ----------------------------------------
	BYTE		        Cn3   v060
	BYTE		N09     Ds3 
	BYTE	W18
	BYTE		        Cn3   v064
	BYTE		N09     Ds3 
	BYTE	W18
	BYTE		        Cn3 
	BYTE		N09     Ds3 
	BYTE	W60
// 039   ----------------------------------------
	BYTE	W96
	BYTE	GoTo
	 POIN2	MarioKartWiiMapleTreewaySme_8_B1
MarioKartWiiMapleTreewaySme_8_B2:
// 040   ----------------------------------------
	BYTE	FINE

//**************** Track 9 (Midi-Chn.9) ****************//

MarioKartWiiMapleTreewaySme_9:
	BYTE	KEYSH   MarioKartWiiMapleTreewaySme_key+0
// 000   ----------------------------------------
	BYTE		VOICE   21
	BYTE		VOL     16*MarioKartWiiMapleTreewaySme_mvl/mxv
	BYTE		PAN     c_v-20
	BYTE		BEND    c_v-4
	BYTE	W96
// 001   ----------------------------------------
	BYTE	W96
MarioKartWiiMapleTreewaySme_9_B1:
// 002   ----------------------------------------
	BYTE	W96
// 003   ----------------------------------------
	BYTE	W96
// 004   ----------------------------------------
	BYTE	W96
// 005   ----------------------------------------
	BYTE	W96
// 006   ----------------------------------------
	BYTE	W96
// 007   ----------------------------------------
	BYTE	W96
// 008   ----------------------------------------
	BYTE	W96
// 009   ----------------------------------------
	BYTE	W96
// 010   ----------------------------------------
	BYTE		N48     Dn3   v100
	BYTE		N96     Gn3 
	BYTE		N48     As3 
	BYTE	W01
	BYTE	W01
	BYTE	W01
	BYTE	W01
	BYTE	W01
	BYTE	W01
	BYTE	W01
	BYTE	W01
	BYTE	W01
	BYTE	W01
	BYTE	W01
	BYTE	W01
	BYTE	W01
	BYTE	W01
	BYTE	W01
	BYTE	W01
	BYTE	W01
	BYTE	W01
	BYTE	W01
	BYTE	W01
	BYTE	W01
	BYTE	W01
	BYTE	W01
	BYTE	W01
	BYTE	W01
	BYTE	W01
	BYTE	W01
	BYTE	W01
	BYTE	W01
	BYTE	W01
	BYTE	W01
	BYTE	W01
	BYTE	W01
	BYTE	W01
	BYTE	W01
	BYTE	W01
	BYTE	W01
	BYTE	W01
	BYTE	W01
	BYTE	W01
	BYTE	W01
	BYTE	W01
	BYTE	W01
	BYTE	W01
	BYTE	W01
	BYTE	W01
	BYTE	W02
	BYTE		TIE     Ds3   v112
	BYTE		N48     Cn4 
	BYTE	W01
	BYTE	W01
	BYTE	W01
	BYTE	W01
	BYTE	W01
	BYTE	W01
	BYTE	W01
	BYTE	W01
	BYTE	W01
	BYTE	W01
	BYTE	W01
	BYTE	W01
	BYTE	W01
	BYTE	W01
	BYTE	W01
	BYTE	W01
	BYTE	W01
	BYTE	W01
	BYTE	W01
	BYTE	W01
	BYTE	W01
	BYTE	W01
	BYTE	W01
	BYTE	W01
	BYTE	W01
	BYTE	W01
	BYTE	W01
	BYTE	W01
	BYTE	W01
	BYTE	W01
	BYTE	W01
	BYTE	W01
	BYTE	W01
	BYTE	W01
	BYTE	W01
	BYTE	W01
	BYTE	W01
	BYTE	W01
	BYTE	W01
	BYTE	W01
	BYTE	W01
	BYTE	W01
	BYTE	W01
	BYTE	W01
	BYTE	W01
	BYTE	W01
	BYTE	W01
	BYTE	W01
// 011   ----------------------------------------
	BYTE		        Gs3   v124
	BYTE		N48     Bn3 
	BYTE	W01
	BYTE	W02
	BYTE	W01
	BYTE	W02
	BYTE	W01
	BYTE	W02
	BYTE	W01
	BYTE	W02
	BYTE	W01
	BYTE	W02
	BYTE	W01
	BYTE	W02
	BYTE	W01
	BYTE	W02
	BYTE	W01
	BYTE	W02
	BYTE	W01
	BYTE	W02
	BYTE	W01
	BYTE	W02
	BYTE	W01
	BYTE	W02
	BYTE	W01
	BYTE	W02
	BYTE	W01
	BYTE	W02
	BYTE	W01
	BYTE	W02
	BYTE	W01
	BYTE	W02
	BYTE	W01
	BYTE	W02
	BYTE		        Gn3   v112
	BYTE		N48     As3 
	BYTE	W01
	BYTE	W01
	BYTE	W01
	BYTE	W01
	BYTE	W01
	BYTE	W01
	BYTE	W01
	BYTE	W01
	BYTE	W01
	BYTE	W01
	BYTE	W01
	BYTE	W01
	BYTE	W01
	BYTE	W01
	BYTE	W01
	BYTE	W01
	BYTE	W01
	BYTE	W01
	BYTE	W01
	BYTE	W01
	BYTE	W01
	BYTE	W01
	BYTE	W01
	BYTE	W01
	BYTE	W01
	BYTE	W01
	BYTE	W01
	BYTE	W01
	BYTE	W01
	BYTE	W01
	BYTE	W01
	BYTE	W01
	BYTE	W01
	BYTE	W01
	BYTE	W01
	BYTE	W01
	BYTE	W01
	BYTE	W01
	BYTE	W01
	BYTE	W01
	BYTE	W01
	BYTE	W01
	BYTE	W01
	BYTE	W01
	BYTE	W01
	BYTE	W01
	BYTE	W02
// 012   ----------------------------------------
	BYTE		        Gn3   v100
	BYTE		N48     Cn4 
	BYTE	W01
	BYTE	W01
	BYTE	W01
	BYTE	W01
	BYTE	W01
	BYTE	W01
	BYTE	W01
	BYTE	W01
	BYTE	W01
	BYTE	W01
	BYTE	W01
	BYTE	W01
	BYTE	W01
	BYTE	W01
	BYTE	W01
	BYTE	W01
	BYTE	W01
	BYTE	W01
	BYTE	W01
	BYTE	W01
	BYTE	W01
	BYTE	W01
	BYTE	W01
	BYTE	W01
	BYTE	W01
	BYTE	W01
	BYTE	W01
	BYTE	W01
	BYTE	W01
	BYTE	W01
	BYTE	W01
	BYTE	W01
	BYTE	W01
	BYTE	W01
	BYTE	W01
	BYTE	W01
	BYTE	W01
	BYTE	W01
	BYTE	W01
	BYTE	W01
	BYTE	W01
	BYTE	W01
	BYTE	W01
	BYTE	W01
	BYTE	W01
	BYTE	W03
	BYTE		EOT     Ds3 
	BYTE		N48     Dn3   v112
	BYTE		N48     Fn3 
	BYTE		N48     As3 
	BYTE	W01
	BYTE	W01
	BYTE	W01
	BYTE	W01
	BYTE	W01
	BYTE	W01
	BYTE	W01
	BYTE	W02
	BYTE	W01
	BYTE	W01
	BYTE	W01
	BYTE	W01
	BYTE	W01
	BYTE	W01
	BYTE	W01
	BYTE	W02
	BYTE	W01
	BYTE	W01
	BYTE	W01
	BYTE	W01
	BYTE	W01
	BYTE	W01
	BYTE	W01
	BYTE	W02
	BYTE	W01
	BYTE	W01
	BYTE	W01
	BYTE	W01
	BYTE	W01
	BYTE	W01
	BYTE	W01
	BYTE	W02
	BYTE	W01
	BYTE	W01
	BYTE	W01
	BYTE	W01
	BYTE	W01
	BYTE	W01
	BYTE	W01
	BYTE	W02
	BYTE	W01
	BYTE	W01
	BYTE	W01
// 013   ----------------------------------------
	BYTE		        Ds3   v100
	BYTE		N48     Gs3 
	BYTE		N48     Cn4 
	BYTE	W01
	BYTE	W02
	BYTE	W01
	BYTE	W02
	BYTE	W01
	BYTE	W02
	BYTE	W01
	BYTE	W02
	BYTE	W01
	BYTE	W02
	BYTE	W01
	BYTE	W02
	BYTE	W01
	BYTE	W02
	BYTE	W01
	BYTE	W02
	BYTE	W01
	BYTE	W02
	BYTE	W01
	BYTE	W02
	BYTE	W01
	BYTE	W02
	BYTE	W01
	BYTE	W02
	BYTE	W01
	BYTE	W02
	BYTE	W01
	BYTE	W02
	BYTE	W01
	BYTE	W02
	BYTE	W01
	BYTE	W02
	BYTE		        Fn3   v112
	BYTE		N96     As3 
	BYTE		N96     Dn4 
	BYTE	W01
	BYTE	W01
	BYTE	W01
	BYTE	W01
	BYTE	W01
	BYTE	W01
	BYTE	W01
	BYTE	W01
	BYTE	W01
	BYTE	W01
	BYTE	W01
	BYTE	W01
	BYTE	W01
	BYTE	W01
	BYTE	W01
	BYTE	W01
	BYTE	W01
	BYTE	W01
	BYTE	W01
	BYTE	W01
	BYTE	W01
	BYTE	W01
	BYTE	W01
	BYTE	W01
	BYTE	W01
	BYTE	W01
	BYTE	W01
	BYTE	W01
	BYTE	W01
	BYTE	W01
	BYTE	W01
	BYTE	W01
	BYTE	W01
	BYTE	W01
	BYTE	W01
	BYTE	W01
	BYTE	W01
	BYTE	W01
	BYTE	W01
	BYTE	W01
	BYTE	W01
	BYTE	W01
	BYTE	W01
	BYTE	W01
	BYTE	W01
	BYTE	W01
	BYTE	W01
	BYTE	W01
// 014   ----------------------------------------
	BYTE		        Gn3   v124
	BYTE	W01
	BYTE	W01
	BYTE	W01
	BYTE	W01
	BYTE	W01
	BYTE	W01
	BYTE	W01
	BYTE	W01
	BYTE	W01
	BYTE	W01
	BYTE	W01
	BYTE	W01
	BYTE	W01
	BYTE	W01
	BYTE	W01
	BYTE	W01
	BYTE	W01
	BYTE	W01
	BYTE	W01
	BYTE	W01
	BYTE	W01
	BYTE	W01
	BYTE	W01
	BYTE	W01
	BYTE	W01
	BYTE	W01
	BYTE	W01
	BYTE	W01
	BYTE	W01
	BYTE	W01
	BYTE	W01
	BYTE	W02
	BYTE	W01
	BYTE	W01
	BYTE	W01
	BYTE	W01
	BYTE	W01
	BYTE	W01
	BYTE	W01
	BYTE	W01
	BYTE	W01
	BYTE	W01
	BYTE	W01
	BYTE	W01
	BYTE	W01
	BYTE	W01
	BYTE	W01
	BYTE		N48     Cn4   v112
	BYTE		TIE     Ds4 
	BYTE	W01
	BYTE	W01
	BYTE	W02
	BYTE	W01
	BYTE	W02
	BYTE	W01
	BYTE	W01
	BYTE	W02
	BYTE	W01
	BYTE	W02
	BYTE	W01
	BYTE	W01
	BYTE	W02
	BYTE	W01
	BYTE	W02
	BYTE	W01
	BYTE	W01
	BYTE	W02
	BYTE	W01
	BYTE	W02
	BYTE	W01
	BYTE	W01
	BYTE	W02
	BYTE	W01
	BYTE	W02
	BYTE	W01
	BYTE	W01
	BYTE	W02
	BYTE	W01
	BYTE	W02
	BYTE	W01
	BYTE	W02
	BYTE	W01
	BYTE	W01
	BYTE	W01
// 015   ----------------------------------------
	BYTE		N48     Gs3   v124
	BYTE		N48     Bn3 
	BYTE	W01
	BYTE	W01
	BYTE	W01
	BYTE	W01
	BYTE	W01
	BYTE	W01
	BYTE	W01
	BYTE	W01
	BYTE	W01
	BYTE	W01
	BYTE	W01
	BYTE	W01
	BYTE	W01
	BYTE	W01
	BYTE	W01
	BYTE	W01
	BYTE	W01
	BYTE	W01
	BYTE	W01
	BYTE	W01
	BYTE	W01
	BYTE	W01
	BYTE	W01
	BYTE	W01
	BYTE	W01
	BYTE	W01
	BYTE	W01
	BYTE	W01
	BYTE	W01
	BYTE	W01
	BYTE	W01
	BYTE	W01
	BYTE	W01
	BYTE	W01
	BYTE	W01
	BYTE	W01
	BYTE	W01
	BYTE	W01
	BYTE	W01
	BYTE	W01
	BYTE	W01
	BYTE	W01
	BYTE	W01
	BYTE	W01
	BYTE	W01
	BYTE	W01
	BYTE	W01
	BYTE	W01
	BYTE		N96     Gn3   v112
	BYTE		N48     As3 
	BYTE	W01
	BYTE	W01
	BYTE	W01
	BYTE	W01
	BYTE	W01
	BYTE	W01
	BYTE	W01
	BYTE	W01
	BYTE	W01
	BYTE	W01
	BYTE	W01
	BYTE	W01
	BYTE	W01
	BYTE	W01
	BYTE	W01
	BYTE	W01
	BYTE	W01
	BYTE	W01
	BYTE	W01
	BYTE	W01
	BYTE	W01
	BYTE	W01
	BYTE	W01
	BYTE	W01
	BYTE	W01
	BYTE	W01
	BYTE	W01
	BYTE	W01
	BYTE	W01
	BYTE	W01
	BYTE	W01
	BYTE	W02
	BYTE	W01
	BYTE	W01
	BYTE	W01
	BYTE	W01
	BYTE	W01
	BYTE	W01
	BYTE	W01
	BYTE	W01
	BYTE	W01
	BYTE	W01
	BYTE	W01
	BYTE	W01
	BYTE	W01
	BYTE	W01
	BYTE	W01
// 016   ----------------------------------------
	BYTE		        Cn4   v124
	BYTE	W01
	BYTE	W01
	BYTE	W01
	BYTE	W01
	BYTE	W01
	BYTE	W01
	BYTE	W01
	BYTE	W01
	BYTE	W01
	BYTE	W01
	BYTE	W01
	BYTE	W01
	BYTE	W01
	BYTE	W01
	BYTE	W01
	BYTE	W01
	BYTE	W01
	BYTE	W01
	BYTE	W01
	BYTE	W01
	BYTE	W01
	BYTE	W01
	BYTE	W01
	BYTE	W01
	BYTE	W01
	BYTE	W01
	BYTE	W01
	BYTE	W01
	BYTE	W01
	BYTE	W01
	BYTE	W01
	BYTE	W01
	BYTE	W01
	BYTE	W01
	BYTE	W01
	BYTE	W01
	BYTE	W01
	BYTE	W01
	BYTE	W01
	BYTE	W02
	BYTE	W01
	BYTE	W01
	BYTE	W02
	BYTE	W01
	BYTE	W01
	BYTE	W01
	BYTE		EOT     Ds4 
	BYTE		N48     Fn3   v116
	BYTE		N48     As3 
	BYTE		N48     Dn4 
	BYTE	W01
	BYTE	W01
	BYTE	W01
	BYTE	W02
	BYTE	W01
	BYTE	W01
	BYTE	W02
	BYTE	W01
	BYTE	W01
	BYTE	W01
	BYTE	W02
	BYTE	W01
	BYTE	W01
	BYTE	W02
	BYTE	W01
	BYTE	W01
	BYTE	W02
	BYTE	W01
	BYTE	W01
	BYTE	W02
	BYTE	W01
	BYTE	W01
	BYTE	W02
	BYTE	W01
	BYTE	W01
	BYTE	W01
	BYTE	W02
	BYTE	W01
	BYTE	W01
	BYTE	W02
	BYTE	W01
	BYTE	W01
	BYTE	W02
	BYTE	W01
	BYTE	W01
	BYTE	W02
	BYTE	W01
// 017   ----------------------------------------
	BYTE	W96
// 018   ----------------------------------------
	BYTE	W96
// 019   ----------------------------------------
	BYTE	W96
// 020   ----------------------------------------
	BYTE	W96
// 021   ----------------------------------------
	BYTE	W96
// 022   ----------------------------------------
	BYTE	W96
// 023   ----------------------------------------
	BYTE	W96
// 024   ----------------------------------------
	BYTE	W96
// 025   ----------------------------------------
	BYTE	W96
// 026   ----------------------------------------
	BYTE	W96
// 027   ----------------------------------------
	BYTE	W96
// 028   ----------------------------------------
	BYTE	W96
// 029   ----------------------------------------
	BYTE	W96
// 030   ----------------------------------------
	BYTE	W96
// 031   ----------------------------------------
	BYTE	W96
// 032   ----------------------------------------
	BYTE	W96
// 033   ----------------------------------------
	BYTE	W96
// 034   ----------------------------------------
	BYTE	W96
// 035   ----------------------------------------
	BYTE	W96
// 036   ----------------------------------------
	BYTE	W96
// 037   ----------------------------------------
	BYTE	W96
// 038   ----------------------------------------
	BYTE	W96
// 039   ----------------------------------------
	BYTE	W96
	BYTE	GoTo
	 POIN2	MarioKartWiiMapleTreewaySme_9_B1
MarioKartWiiMapleTreewaySme_9_B2:
// 040   ----------------------------------------
	BYTE	FINE

//**************** Track 10 (Midi-Chn.10) ****************//

MarioKartWiiMapleTreewaySme_10:
	BYTE	KEYSH   MarioKartWiiMapleTreewaySme_key+0
// 000   ----------------------------------------
	BYTE		VOICE   127
	BYTE		VOL     86*MarioKartWiiMapleTreewaySme_mvl/mxv
	BYTE		PAN     c_v+6
	BYTE	W96
// 001   ----------------------------------------
	BYTE	W48
	BYTE		N18     Dn1   v064
	BYTE	W18
	BYTE		N06     Ds3   v096
	BYTE	W06
	BYTE		N12     En3   v080
	BYTE	W12
	BYTE		        En3   v076
	BYTE	W12
MarioKartWiiMapleTreewaySme_10_B1:
// 002   ----------------------------------------
	BYTE		N12     Ds3   v092
	BYTE		N06     Gs4   v056
	BYTE	W06
	BYTE		N06   
	BYTE	W06
	BYTE		N12     Ds3   v096
	BYTE		N12     An4   v072
	BYTE	W12
	BYTE		N24     Gs2   v060
	BYTE		N24     An3 
	BYTE		N06     Gs4   v056
	BYTE	W06
	BYTE		N06   
	BYTE	W06
	BYTE		        En0   v064
	BYTE		N06     Dn1 
	BYTE		N12     Ds3   v088
	BYTE		N12     An4   v076
	BYTE	W12
	BYTE		        Ds3   v100
	BYTE		N06     Gs4   v064
	BYTE	W06
	BYTE		        En0   v048
	BYTE		N06     Dn1 
	BYTE		N06     Gs4   v060
	BYTE	W06
	BYTE		        En0   v044
	BYTE		N06     Dn1 
	BYTE		N24     Gs2   v060
	BYTE		N24     An3 
	BYTE		N12     An4   v076
	BYTE	W12
	BYTE		N06     En0   v064
	BYTE		N06     Dn1 
	BYTE		N06     Gs4   v056
	BYTE	W06
	BYTE		        Gs4   v060
	BYTE	W06
	BYTE		N12     An4   v072
	BYTE	W12
// 003   ----------------------------------------
	BYTE		        Ds3   v096
	BYTE		N24     An3   v060
	BYTE		N06     Gs4   v056
	BYTE	W06
	BYTE		        Gs4   v064
	BYTE	W06
	BYTE		N12     Ds3   v100
	BYTE		N12     An4   v076
	BYTE	W12
	BYTE		        Gs2   v052
	BYTE		N06     Gs4 
	BYTE	W06
	BYTE		        Gs4   v060
	BYTE	W06
	BYTE		        En0   v064
	BYTE		N06     Dn1 
	BYTE		N12     Ds3   v088
	BYTE		N24     An3   v076
	BYTE		N12     An4   v072
	BYTE	W12
	BYTE		        Ds3   v100
	BYTE		N06     Gs4   v052
	BYTE	W06
	BYTE		        En0   v048
	BYTE		N06     Dn1 
	BYTE		N06     Gs4   v056
	BYTE	W06
	BYTE		        En0   v048
	BYTE		N06     Dn1 
	BYTE		N12     Gs2   v060
	BYTE		N12     An4   v076
	BYTE	W12
	BYTE		N06     En0   v064
	BYTE		N06     Dn1 
	BYTE		N12     An3   v076
	BYTE		N06     Gs4   v060
	BYTE	W06
	BYTE		N06   
	BYTE	W06
	BYTE		N12     As1   v052
	BYTE		N12     An4   v076
	BYTE	W12
// 004   ----------------------------------------
	BYTE		        Gs1   v048
	BYTE		N12     Ds3   v084
	BYTE		N06     Gs4   v056
	BYTE	W06
	BYTE		        Gs4   v060
	BYTE	W06
	BYTE		N12     Ds3   v100
	BYTE		N12     An4   v076
	BYTE	W12
	BYTE		N24     Gs2   v052
	BYTE		N24     An3 
	BYTE		N06     Gs4   v060
	BYTE	W06
	BYTE		N06   
	BYTE	W06
	BYTE		        En0   v068
	BYTE		N06     Dn1 
	BYTE		N12     Ds3   v084
	BYTE		N12     An4   v080
	BYTE	W12
	BYTE		        Ds3   v096
	BYTE		N06     Gs4   v060
	BYTE	W06
	BYTE		        En0   v048
	BYTE		N06     Dn1 
	BYTE		N06     Gs4   v060
	BYTE	W06
	BYTE		        En0   v056
	BYTE		N06     Dn1 
	BYTE		N24     Gs2 
	BYTE		N24     An3 
	BYTE		N12     An4   v068
	BYTE	W12
	BYTE		N06     En0   v064
	BYTE		N06     Dn1 
	BYTE		N06     Gs4   v068
	BYTE	W06
	BYTE		N06   
	BYTE	W06
	BYTE		N12     An4   v076
	BYTE	W12
// 005   ----------------------------------------
	BYTE		        Ds3   v088
	BYTE		N24     An3   v060
	BYTE		N06     Gs4 
	BYTE	W06
	BYTE		        Gs4   v064
	BYTE	W06
	BYTE		N12     Ds3   v100
	BYTE		N12     An4   v076
	BYTE	W12
	BYTE		        Gs2   v056
	BYTE		N06     Gs4 
	BYTE	W06
	BYTE		        Gs4   v060
	BYTE	W06
	BYTE		        En0   v068
	BYTE		N06     Dn1 
	BYTE		N12     Ds3   v088
	BYTE		N12     An3   v080
	BYTE		N12     An4   v076
	BYTE	W12
	BYTE		        Ds3   v096
	BYTE		N06     Gs4   v056
	BYTE	W06
	BYTE		        En0   v044
	BYTE		N06     Dn1 
	BYTE		N06     Gs1   v056
	BYTE		N06     Gs4   v064
	BYTE	W06
	BYTE		        En0   v052
	BYTE		N06     Dn1 
	BYTE		N12     Gs1   v068
	BYTE		N12     Gs2 
	BYTE		N12     An4   v076
	BYTE	W12
	BYTE		N06     En0   v064
	BYTE		N06     Dn1 
	BYTE		N12     An3   v080
	BYTE		N06     Gs4   v060
	BYTE	W06
	BYTE		        Gs4   v068
	BYTE	W06
	BYTE		N12     As1   v060
	BYTE		N12     An4   v076
	BYTE	W12
// 006   ----------------------------------------
	BYTE		        Gs1   v048
	BYTE		N12     Ds3   v088
	BYTE		N06     Gs4   v060
	BYTE	W06
	BYTE		N06   
	BYTE	W06
	BYTE		N12     Ds3   v100
	BYTE		N12     An4   v072
	BYTE	W12
	BYTE		N24     Gs2   v056
	BYTE		N24     An3 
	BYTE		N06     Gs4   v064
	BYTE	W06
	BYTE		        Gs4   v060
	BYTE	W06
	BYTE		        En0   v064
	BYTE		N06     Dn1 
	BYTE		N12     Ds3   v088
	BYTE		N12     An4   v076
	BYTE	W12
	BYTE		        Ds3   v096
	BYTE		N06     Gs4   v060
	BYTE	W06
	BYTE		        En0   v044
	BYTE		N06     Dn1 
	BYTE		N06     Gs4   v064
	BYTE	W06
	BYTE		        En0   v048
	BYTE		N06     Dn1 
	BYTE		N24     Gs2   v056
	BYTE		N24     An3 
	BYTE		N12     An4   v076
	BYTE	W12
	BYTE		N06     En0   v064
	BYTE		N06     Dn1 
	BYTE		N06     Gs4   v056
	BYTE	W06
	BYTE		        Gs4   v064
	BYTE	W06
	BYTE		N12     An4   v072
	BYTE	W12
// 007   ----------------------------------------
	BYTE		        Ds3   v088
	BYTE		N24     An3   v056
	BYTE		N06     Gs4   v060
	BYTE	W06
	BYTE		        Gs4   v068
	BYTE	W06
	BYTE		N12     Ds3   v092
	BYTE		N12     An4   v072
	BYTE	W12
	BYTE		        Gs2   v056
	BYTE		N06     Gs4   v060
	BYTE	W06
	BYTE		        Gs4   v064
	BYTE	W06
	BYTE		        En0 
	BYTE		N06     Dn1 
	BYTE		N12     Ds3   v084
	BYTE		N24     An3   v080
	BYTE		N12     An4   v072
	BYTE	W12
	BYTE		        Ds3   v096
	BYTE		N06     Gs4   v060
	BYTE	W06
	BYTE		        En0   v044
	BYTE		N06     Dn1 
	BYTE		N06     Gs4   v060
	BYTE	W06
	BYTE		        En0   v048
	BYTE		N06     Dn1 
	BYTE		N12     Gs2   v060
	BYTE		N12     An4   v076
	BYTE	W12
	BYTE		N06     En0   v064
	BYTE		N06     Dn1 
	BYTE		N12     An3   v080
	BYTE		N06     Gs4   v060
	BYTE	W06
	BYTE		        Gs4   v068
	BYTE	W06
	BYTE		N12     As1   v060
	BYTE		N12     An4   v076
	BYTE	W12
// 008   ----------------------------------------
	BYTE		        Gs1   v048
	BYTE		N12     Ds3   v092
	BYTE		N06     Gs4   v060
	BYTE	W06
	BYTE		N06   
	BYTE	W06
	BYTE		N12     Ds3   v096
	BYTE		N12     An4   v080
	BYTE	W12
	BYTE		N24     Gs2   v052
	BYTE		N24     An3 
	BYTE		N06     Gs4   v064
	BYTE	W06
	BYTE		        Gs4   v068
	BYTE	W06
	BYTE		        En0   v064
	BYTE		N06     Dn1 
	BYTE		N12     Ds3   v088
	BYTE		N12     An4   v080
	BYTE	W12
	BYTE		        Ds3   v100
	BYTE		N06     Gs4   v064
	BYTE	W06
	BYTE		        En0   v048
	BYTE		N06     Dn1 
	BYTE		N06     Gs4   v060
	BYTE	W06
	BYTE		        En0   v048
	BYTE		N06     Dn1 
	BYTE		N24     Gs2   v056
	BYTE		N24     An3 
	BYTE		N12     An4   v076
	BYTE	W12
	BYTE		N06     En0   v068
	BYTE		N06     Dn1 
	BYTE		N06     Gs4   v060
	BYTE	W06
	BYTE		N06   
	BYTE	W06
	BYTE		N12     An4   v076
	BYTE	W12
// 009   ----------------------------------------
	BYTE		        Ds3   v088
	BYTE		N24     An3   v060
	BYTE		N06     Gs4 
	BYTE	W06
	BYTE		N06   
	BYTE	W06
	BYTE		N12     Ds3   v096
	BYTE		N12     An4   v076
	BYTE	W12
	BYTE		        Gs2   v052
	BYTE		N06     Gs4   v056
	BYTE	W06
	BYTE		        Gs4   v060
	BYTE	W06
	BYTE		        En0   v064
	BYTE		N06     Dn1 
	BYTE		N12     Ds3   v088
	BYTE		N12     An3   v080
	BYTE		N12     An4   v076
	BYTE	W12
	BYTE		        Ds3   v096
	BYTE		N06     Gs4   v064
	BYTE	W06
	BYTE		        En0   v048
	BYTE		N06     Dn1 
	BYTE		N06     Gs1   v056
	BYTE		N06     Gs4   v060
	BYTE	W06
	BYTE		        En0   v052
	BYTE		N06     Dn1 
	BYTE		N12     Gs1   v072
	BYTE		N12     Gs2 
	BYTE		N12     An4 
	BYTE	W12
	BYTE		N06     En0   v060
	BYTE		N06     Dn1 
	BYTE		N12     An3   v080
	BYTE		N06     Gs4   v060
	BYTE	W06
	BYTE		        Gs4   v064
	BYTE	W06
	BYTE		        En0 
	BYTE		N06     Dn1 
	BYTE		N06     Gs1 
	BYTE		N12     An4   v076
	BYTE	W06
	BYTE		N06     En0   v068
	BYTE		N06     Dn1 
	BYTE		N06     Gs1   v060
	BYTE	W06
// 010   ----------------------------------------
	BYTE		N24     Cs2 
	BYTE		N12     Ds3   v096
	BYTE		N06     Gs4   v056
	BYTE	W06
	BYTE		        Gs4   v064
	BYTE	W06
	BYTE		N12     Ds3   v100
	BYTE		N12     An4   v076
	BYTE	W12
	BYTE		N24     Gs2   v080
	BYTE		N24     An3 
	BYTE		N06     Gs4   v056
	BYTE	W06
	BYTE		        Gs4   v060
	BYTE	W06
	BYTE		        En0   v068
	BYTE		N06     Dn1 
	BYTE		N12     Ds3   v092
	BYTE		N12     An4   v080
	BYTE	W12
	BYTE		        Ds3   v096
	BYTE		N06     Gs4   v060
	BYTE	W06
	BYTE		        En0   v048
	BYTE		N06     Dn1 
	BYTE		N06     Gs4   v060
	BYTE	W06
	BYTE		        En0   v052
	BYTE		N06     Dn1 
	BYTE		N24     Gs2   v056
	BYTE		N24     An3 
	BYTE		N12     An4   v076
	BYTE	W12
	BYTE		N06     En0   v064
	BYTE		N06     Dn1 
	BYTE		N06     Gs4   v060
	BYTE	W06
	BYTE		        Gs4   v068
	BYTE	W06
	BYTE		N12     An4 
	BYTE	W12
// 011   ----------------------------------------
	BYTE		        Ds3   v092
	BYTE		N24     An3   v060
	BYTE		N06     Gs4   v056
	BYTE	W06
	BYTE		        Gs4   v064
	BYTE	W06
	BYTE		N12     Ds3   v100
	BYTE		N12     An4   v076
	BYTE	W12
	BYTE		        Gs2   v052
	BYTE		N06     Gs4   v060
	BYTE	W06
	BYTE		N06   
	BYTE	W06
	BYTE		        En0   v064
	BYTE		N06     Dn1 
	BYTE		N12     Ds3   v088
	BYTE		N24     An3   v076
	BYTE		N12     An4 
	BYTE	W12
	BYTE		        Ds3   v096
	BYTE		N06     Gs4   v060
	BYTE	W06
	BYTE		        En0   v040
	BYTE		N06     Dn1 
	BYTE		N06     Gs4   v064
	BYTE	W06
	BYTE		        En0   v056
	BYTE		N06     Dn1 
	BYTE		N12     Gs2 
	BYTE		N12     An4   v072
	BYTE	W12
	BYTE		N06     En0   v064
	BYTE		N06     Dn1 
	BYTE		N12     An3   v080
	BYTE		N06     Gs4   v056
	BYTE	W06
	BYTE		N06   
	BYTE	W06
	BYTE		N12     As1   v052
	BYTE		N12     An4   v076
	BYTE	W12
// 012   ----------------------------------------
	BYTE		        Gs1   v048
	BYTE		N12     Ds3   v092
	BYTE		N06     Gs4   v056
	BYTE	W06
	BYTE		        Gs4   v060
	BYTE	W06
	BYTE		N12     Ds3   v092
	BYTE		N12     An4   v072
	BYTE	W12
	BYTE		N24     Gs2   v052
	BYTE		N24     An3 
	BYTE		N06     Gs4   v064
	BYTE	W06
	BYTE		        Gs4   v060
	BYTE	W06
	BYTE		        En0   v068
	BYTE		N06     Dn1 
	BYTE		N12     Ds3   v084
	BYTE		N12     An4   v076
	BYTE	W12
	BYTE		        Ds3   v100
	BYTE		N06     Gs4   v056
	BYTE	W06
	BYTE		        En0   v048
	BYTE		N06     Dn1 
	BYTE		N06     Gs4   v064
	BYTE	W06
	BYTE		        En0   v052
	BYTE		N06     Dn1 
	BYTE		N24     Gs2   v056
	BYTE		N24     An3 
	BYTE		N12     An4   v080
	BYTE	W12
	BYTE		N06     En0   v060
	BYTE		N06     Dn1 
	BYTE		N06     Gs4   v056
	BYTE	W06
	BYTE		        Gs4   v060
	BYTE	W06
	BYTE		N12     An4   v068
	BYTE	W12
// 013   ----------------------------------------
	BYTE		        Ds3   v084
	BYTE		N24     An3   v056
	BYTE		N06     Gs4 
	BYTE	W06
	BYTE		        Gs4   v064
	BYTE	W06
	BYTE		N12     Ds3   v096
	BYTE		N12     An4   v076
	BYTE	W12
	BYTE		        Gs2   v056
	BYTE		N06     Gs4 
	BYTE	W06
	BYTE		        Gs4   v060
	BYTE	W06
	BYTE		        En0   v064
	BYTE		N06     Dn1 
	BYTE		N12     Ds3   v088
	BYTE		N12     An3   v076
	BYTE		N12     An4   v072
	BYTE	W12
	BYTE		        Ds3   v096
	BYTE		N06     Gs4   v060
	BYTE	W06
	BYTE		        En0   v044
	BYTE		N06     Dn1 
	BYTE		N06     Gs1   v056
	BYTE		N06     Gs4   v060
	BYTE	W06
	BYTE		        En0   v052
	BYTE		N06     Dn1 
	BYTE		N12     Gs1   v068
	BYTE		N12     Gs2 
	BYTE		N12     An4   v080
	BYTE	W12
	BYTE		N06     En0   v064
	BYTE		N06     Dn1 
	BYTE		N12     An3   v080
	BYTE		N06     Gs4   v060
	BYTE	W06
	BYTE		N06   
	BYTE	W06
	BYTE		N12     As1   v056
	BYTE		N12     An4   v076
	BYTE	W12
// 014   ----------------------------------------
	BYTE		        Gs1   v052
	BYTE		N12     Ds3   v088
	BYTE		N06     Gs4   v060
	BYTE	W06
	BYTE		N06   
	BYTE	W06
	BYTE		N12     Ds3   v096
	BYTE		N12     An4   v076
	BYTE	W12
	BYTE		N24     Gs2   v052
	BYTE		N24     An3 
	BYTE		N06     Gs4   v068
	BYTE	W06
	BYTE		N06   
	BYTE	W06
	BYTE		        En0 
	BYTE		N06     Dn1 
	BYTE		N12     Ds3   v088
	BYTE		N12     An4   v072
	BYTE	W12
	BYTE		        Ds3   v096
	BYTE		N06     Gs4   v060
	BYTE	W06
	BYTE		        En0   v048
	BYTE		N06     Dn1 
	BYTE		N06     Gs4   v064
	BYTE	W06
	BYTE		        En0   v052
	BYTE		N06     Dn1 
	BYTE		N24     Gs2   v056
	BYTE		N24     An3 
	BYTE		N12     An4   v076
	BYTE	W12
	BYTE		N06     En0   v060
	BYTE		N06     Dn1 
	BYTE		N06     Gs4 
	BYTE	W06
	BYTE		        Gs4   v064
	BYTE	W06
	BYTE		N12     An4   v072
	BYTE	W12
// 015   ----------------------------------------
	BYTE		        Ds3   v088
	BYTE		N24     An3   v056
	BYTE		N06     Gs4   v064
	BYTE	W06
	BYTE		N06   
	BYTE	W06
	BYTE		N12     Ds3   v100
	BYTE		N12     An4   v072
	BYTE	W12
	BYTE		        Gs2   v052
	BYTE		N06     Gs4   v060
	BYTE	W06
	BYTE		        Gs4   v064
	BYTE	W06
	BYTE		        En0 
	BYTE		N06     Dn1 
	BYTE		N12     Ds3   v084
	BYTE		N24     An3   v076
	BYTE		N12     An4 
	BYTE	W12
	BYTE		        Ds3   v100
	BYTE		N06     Gs4   v060
	BYTE	W06
	BYTE		        En0   v048
	BYTE		N06     Dn1 
	BYTE		N06     Gs4   v060
	BYTE	W06
	BYTE		        En0   v048
	BYTE		N06     Dn1 
	BYTE		N12     Gs2   v056
	BYTE		N12     An4   v076
	BYTE	W12
	BYTE		N06     En0   v068
	BYTE		N06     Dn1 
	BYTE		N12     An3   v076
	BYTE		N06     Gs4   v060
	BYTE	W06
	BYTE		        Gs4   v064
	BYTE	W06
	BYTE		N12     As1   v056
	BYTE		N12     An4   v072
	BYTE	W12
// 016   ----------------------------------------
	BYTE		        Gs1   v048
	BYTE		N12     Ds3   v088
	BYTE		N06     Gs4   v060
	BYTE	W06
	BYTE		        Gs4   v064
	BYTE	W06
	BYTE		N12     Ds3   v096
	BYTE		N12     An4   v076
	BYTE	W12
	BYTE		N24     Gs2   v056
	BYTE		N24     An3 
	BYTE		N06     Gs4   v064
	BYTE	W06
	BYTE		N06   
	BYTE	W06
	BYTE		        En0   v068
	BYTE		N06     Dn1 
	BYTE		N12     Ds3   v092
	BYTE		N12     An4   v076
	BYTE	W12
	BYTE		        Ds3   v096
	BYTE		N06     Gs4   v064
	BYTE	W06
	BYTE		        En0   v048
	BYTE		N06     Dn1 
	BYTE		N06     Gs4   v064
	BYTE	W06
	BYTE		        En0   v044
	BYTE		N06     Dn1 
	BYTE		N24     Gs2   v060
	BYTE		N24     An3 
	BYTE		N12     An4   v072
	BYTE	W12
	BYTE		N06     En0   v068
	BYTE		N06     Dn1 
	BYTE		N06     Gs4   v060
	BYTE	W06
	BYTE		        Gs4   v064
	BYTE	W06
	BYTE		N12     An4   v072
	BYTE	W12
// 017   ----------------------------------------
	BYTE		N18     En0   v060
	BYTE		N18     Dn1 
	BYTE		N12     Ds3   v088
	BYTE		N24     An3   v052
	BYTE		N06     Gs4   v064
	BYTE	W06
	BYTE		        Gs4   v060
	BYTE	W06
	BYTE		N12     Ds3   v100
	BYTE		N12     An4   v072
	BYTE	W06
	BYTE		N18     En0 
	BYTE		N18     Dn1 
	BYTE	W06
	BYTE		N12     Gs2   v052
	BYTE		N06     Gs4   v064
	BYTE	W06
	BYTE		        Gs4   v060
	BYTE	W06
	BYTE		N18     En0   v068
	BYTE		N18     Dn1 
	BYTE		N12     Ds3   v088
	BYTE		N12     An3   v072
	BYTE		N12     An4   v080
	BYTE	W12
	BYTE		        Ds3   v096
	BYTE		N06     Gs4   v064
	BYTE	W06
	BYTE		N18     En0   v076
	BYTE		N18     Dn1 
	BYTE		N06     Gs1   v056
	BYTE		N06     Gs4   v064
	BYTE	W06
	BYTE		N12     Gs1   v068
	BYTE		N12     Gs2 
	BYTE		N12     An4   v076
	BYTE	W12
	BYTE		        En0   v068
	BYTE		N12     Dn1 
	BYTE		N12     An3   v080
	BYTE		N06     Gs4   v056
	BYTE	W06
	BYTE		        Gs4   v064
	BYTE	W06
	BYTE		N12     En0   v072
	BYTE		N12     Dn1 
	BYTE		N12     As1   v060
	BYTE		N12     An4   v076
	BYTE	W12
// 018   ----------------------------------------
	BYTE		        En0   v072
	BYTE		N12     Dn1 
	BYTE		N12     Gs1   v052
	BYTE		N12     Ds3   v084
	BYTE		N06     Gs4   v064
	BYTE	W06
	BYTE		        Gs4   v060
	BYTE	W06
	BYTE		N12     Ds3   v096
	BYTE		N12     An4   v080
	BYTE	W06
	BYTE		N06     En0   v048
	BYTE		N06     Dn1 
	BYTE	W06
	BYTE		        En0 
	BYTE		N06     Dn1 
	BYTE		N06     Gs4   v060
	BYTE	W06
	BYTE		        En0 
	BYTE		N06     Dn1 
	BYTE		N06     Gs4   v064
	BYTE	W06
	BYTE		        En0   v068
	BYTE		N06     Dn1 
	BYTE		N12     Ds3   v084
	BYTE		N12     An4   v076
	BYTE	W06
	BYTE		N06     En0 
	BYTE		N06     Dn1 
	BYTE	W06
	BYTE		        En0   v088
	BYTE		N06     Dn1 
	BYTE		N12     Ds3   v096
	BYTE		N06     Gs4   v056
	BYTE	W06
	BYTE		        En0   v088
	BYTE		N06     Dn1 
	BYTE		N06     Gs4   v060
	BYTE	W06
	BYTE		        En0   v096
	BYTE		N06     Dn1 
	BYTE		N12     An4   v076
	BYTE	W06
	BYTE		N06     En0   v096
	BYTE		N06     Dn1 
	BYTE	W06
	BYTE		        En0   v116
	BYTE		N06     Dn1 
	BYTE		N06     Gs4   v064
	BYTE	W06
	BYTE		        En0   v116
	BYTE		N06     Dn1 
	BYTE		N06     Gs4   v064
	BYTE	W06
	BYTE		        En0   v127
	BYTE		N06     Dn1 
	BYTE		N06     Dn3 
	BYTE		N12     An4   v076
	BYTE	W06
	BYTE		N06     En0   v120
	BYTE		N06     Dn1 
	BYTE		N06     Dn3 
	BYTE	W06
// 019   ----------------------------------------
	BYTE		N12     Cn1   v100
	BYTE		N24     An2   v048
	BYTE		N12     Ds3   v092
	BYTE		N06     Gs4   v060
	BYTE	W06
	BYTE		        Gs4   v064
	BYTE	W06
	BYTE		N12     Ds3   v100
	BYTE		N12     An4   v076
	BYTE	W06
	BYTE		        Cn1   v100
	BYTE	W06
	BYTE		N24     Gs2   v080
	BYTE		N24     An3 
	BYTE		N06     Gs4   v056
	BYTE	W06
	BYTE		        Gs4   v060
	BYTE	W06
	BYTE		N12     En0   v076
	BYTE		N12     Dn1 
	BYTE		N12     Ds3   v088
	BYTE		N12     An4   v072
	BYTE	W12
	BYTE		        Ds3   v096
	BYTE		N06     Gs4   v064
	BYTE	W06
	BYTE		        En0   v052
	BYTE		N06     Cn1 
	BYTE		N06     Dn1 
	BYTE		N06     Gs4   v064
	BYTE	W06
	BYTE		        En0   v060
	BYTE		N06     Dn1 
	BYTE		N24     Gs2   v052
	BYTE		N24     An3 
	BYTE		N12     An4   v076
	BYTE	W12
	BYTE		        En0 
	BYTE		N12     Dn1 
	BYTE		N06     Gs4   v064
	BYTE	W06
	BYTE		N06   
	BYTE	W06
	BYTE		N12     Cn1   v104
	BYTE		N12     An4   v076
	BYTE	W12
// 020   ----------------------------------------
	BYTE		        Cn1   v112
	BYTE		N12     Ds3   v092
	BYTE		N24     An3   v056
	BYTE		N06     Gs4   v064
	BYTE	W06
	BYTE		        Gs4   v068
	BYTE	W06
	BYTE		N12     Ds3   v096
	BYTE		N12     An4   v076
	BYTE	W06
	BYTE		        Cn1   v104
	BYTE	W06
	BYTE		        Gs2   v052
	BYTE		N06     Gs4   v064
	BYTE	W06
	BYTE		N06   
	BYTE	W06
	BYTE		N12     En0   v076
	BYTE		N12     Dn1 
	BYTE		N12     Ds3   v088
	BYTE		N24     An3   v076
	BYTE		N12     An4 
	BYTE	W12
	BYTE		        Ds3   v096
	BYTE		N06     Gs4   v060
	BYTE	W06
	BYTE		        En0   v056
	BYTE		N06     Cn1 
	BYTE		N06     Dn1 
	BYTE		N06     Gs4   v060
	BYTE	W06
	BYTE		        En0   v064
	BYTE		N06     Dn1 
	BYTE		N12     Gs2   v060
	BYTE		N12     An4   v076
	BYTE	W12
	BYTE		        En0   v072
	BYTE		N12     Dn1 
	BYTE		N12     An3   v080
	BYTE		N06     Gs4   v060
	BYTE	W06
	BYTE		        Gs4   v064
	BYTE	W06
	BYTE		N12     Cn1   v104
	BYTE		N12     As1   v060
	BYTE		N12     An4   v072
	BYTE	W12
// 021   ----------------------------------------
	BYTE		        Cn1   v108
	BYTE		N12     Gs1   v052
	BYTE		N12     Ds3   v088
	BYTE		N06     Gs4   v064
	BYTE	W06
	BYTE		        Gs4   v060
	BYTE	W06
	BYTE		N12     Ds3   v096
	BYTE		N12     An4   v076
	BYTE	W06
	BYTE		        Cn1   v100
	BYTE	W06
	BYTE		N24     Gs2   v056
	BYTE		N24     An3 
	BYTE		N06     Gs4   v060
	BYTE	W06
	BYTE		        Gs4   v064
	BYTE	W06
	BYTE		N12     En0   v076
	BYTE		N12     Dn1 
	BYTE		N12     Ds3   v088
	BYTE		N12     An4   v076
	BYTE	W12
	BYTE		        Ds3   v100
	BYTE		N06     Gs4   v060
	BYTE	W06
	BYTE		        En0 
	BYTE		N06     Cn1 
	BYTE		N06     Dn1 
	BYTE		N06     Gs4 
	BYTE	W06
	BYTE		        En0 
	BYTE		N06     Dn1 
	BYTE		N24     Gs2   v056
	BYTE		N24     An3 
	BYTE		N12     An4   v076
	BYTE	W12
	BYTE		        En0 
	BYTE		N12     Dn1 
	BYTE		N06     Gs4   v056
	BYTE	W06
	BYTE		        Gs4   v060
	BYTE	W06
	BYTE		N12     Cn1   v104
	BYTE		N12     An4   v076
	BYTE	W12
// 022   ----------------------------------------
	BYTE		        Cn1   v112
	BYTE		N12     Ds3   v084
	BYTE		N24     An3   v052
	BYTE		N06     Gs4   v060
	BYTE	W06
	BYTE		        Gs4   v064
	BYTE	W06
	BYTE		N12     Ds3   v096
	BYTE		N12     An4   v076
	BYTE	W06
	BYTE		        Cn1   v104
	BYTE	W06
	BYTE		        Gs2   v048
	BYTE		N06     Gs4   v060
	BYTE	W06
	BYTE		N06   
	BYTE	W06
	BYTE		N12     En0   v080
	BYTE		N12     Dn1 
	BYTE		N12     Ds3   v084
	BYTE		N12     An3   v076
	BYTE		N12     An4 
	BYTE	W12
	BYTE		        Ds3   v096
	BYTE		N06     Gs4   v060
	BYTE	W06
	BYTE		        En0 
	BYTE		N06     Cn1 
	BYTE		N06     Dn1 
	BYTE		N06     Gs1   v056
	BYTE		N06     Gs4 
	BYTE	W06
	BYTE		        En0   v060
	BYTE		N06     Dn1 
	BYTE		N12     Gs1   v068
	BYTE		N12     Gs2 
	BYTE		N12     An4   v076
	BYTE	W12
	BYTE		        En0 
	BYTE		N12     Dn1 
	BYTE		N12     An3   v084
	BYTE		N06     Gs4   v060
	BYTE	W06
	BYTE		N06   
	BYTE	W06
	BYTE		N12     Cn1   v104
	BYTE		N12     As1   v056
	BYTE		N12     An4   v076
	BYTE	W12
// 023   ----------------------------------------
	BYTE		        Cn1   v108
	BYTE		N12     Gs1   v048
	BYTE		N12     Ds3   v088
	BYTE		N06     Gs4   v056
	BYTE	W06
	BYTE		N06   
	BYTE	W06
	BYTE		N12     Ds3   v100
	BYTE		N12     An4   v076
	BYTE	W06
	BYTE		        Cn1   v100
	BYTE	W06
	BYTE		N24     Gs2   v056
	BYTE		N24     An3 
	BYTE		N06     Gs4   v060
	BYTE	W06
	BYTE		        Gs4   v064
	BYTE	W06
	BYTE		N12     En0   v076
	BYTE		N12     Dn1 
	BYTE		N12     Ds3   v088
	BYTE		N12     An4   v076
	BYTE	W12
	BYTE		        Ds3   v100
	BYTE		N06     Gs4   v060
	BYTE	W06
	BYTE		        En0   v056
	BYTE		N06     Cn1 
	BYTE		N06     Dn1 
	BYTE		N06     Gs4   v060
	BYTE	W06
	BYTE		        En0 
	BYTE		N06     Dn1 
	BYTE		N24     Gs2 
	BYTE		N24     An3 
	BYTE		N12     An4   v072
	BYTE	W12
	BYTE		        En0   v080
	BYTE		N12     Dn1 
	BYTE		N06     Gs4   v056
	BYTE	W06
	BYTE		        Gs4   v064
	BYTE	W06
	BYTE		N12     Cn1   v108
	BYTE		N12     An4   v076
	BYTE	W12
// 024   ----------------------------------------
	BYTE		        Cn1   v108
	BYTE		N12     Ds3   v088
	BYTE		N24     An3   v056
	BYTE		N06     Gs4   v052
	BYTE	W06
	BYTE		        Gs4   v060
	BYTE	W06
	BYTE		N12     Ds3   v100
	BYTE		N12     An4   v080
	BYTE	W06
	BYTE		        Cn1   v100
	BYTE	W06
	BYTE		        Gs2   v052
	BYTE		N06     Gs4   v060
	BYTE	W06
	BYTE		N06   
	BYTE	W06
	BYTE		N12     En0   v076
	BYTE		N12     Dn1 
	BYTE		N12     Ds3   v088
	BYTE		N24     An3   v072
	BYTE		N12     An4   v076
	BYTE	W12
	BYTE		        Ds3   v092
	BYTE		N06     Gs4   v060
	BYTE	W06
	BYTE		        En0   v056
	BYTE		N06     Cn1 
	BYTE		N06     Dn1 
	BYTE		N06     Gs4   v064
	BYTE	W06
	BYTE		        En0   v060
	BYTE		N06     Dn1 
	BYTE		N12     Gs2   v056
	BYTE		N12     An4   v076
	BYTE	W12
	BYTE		        En0 
	BYTE		N12     Dn1 
	BYTE		N12     An3   v080
	BYTE		N06     Gs4   v060
	BYTE	W06
	BYTE		N06   
	BYTE	W06
	BYTE		N12     Cn1   v104
	BYTE		N12     As1   v060
	BYTE		N12     An4   v076
	BYTE	W12
// 025   ----------------------------------------
	BYTE		        Cn1   v112
	BYTE		N12     Gs1   v052
	BYTE		N12     Ds3   v092
	BYTE		N06     Gs4   v060
	BYTE	W06
	BYTE		N06   
	BYTE	W06
	BYTE		N12     Ds3   v096
	BYTE		N12     An4   v076
	BYTE	W06
	BYTE		        Cn1   v104
	BYTE	W06
	BYTE		N24     Gs2   v060
	BYTE		N24     An3 
	BYTE		N06     Gs4 
	BYTE	W06
	BYTE		N06   
	BYTE	W06
	BYTE		N12     En0   v076
	BYTE		N12     Dn1 
	BYTE		N12     Ds3   v092
	BYTE		N12     An4   v072
	BYTE	W12
	BYTE		        Ds3   v100
	BYTE		N06     Gs4   v064
	BYTE	W06
	BYTE		        En0   v056
	BYTE		N06     Cn1 
	BYTE		N06     Dn1 
	BYTE		N06     Gs4   v064
	BYTE	W06
	BYTE		        En0 
	BYTE		N06     Dn1 
	BYTE		N24     Gs2   v060
	BYTE		N24     An3 
	BYTE		N12     An4   v076
	BYTE	W12
	BYTE		        En0 
	BYTE		N12     Dn1 
	BYTE		N06     Gs4   v064
	BYTE	W06
	BYTE		        Gs4   v060
	BYTE	W06
	BYTE		N12     Cn1   v104
	BYTE		N12     An4   v076
	BYTE	W12
// 026   ----------------------------------------
	BYTE		        Cn1   v108
	BYTE		N12     Ds3   v084
	BYTE		N24     An3   v052
	BYTE		N06     Gs4   v060
	BYTE	W06
	BYTE		        Gs4   v064
	BYTE	W06
	BYTE		N12     Ds3   v100
	BYTE		N12     An4   v076
	BYTE	W06
	BYTE		        Cn1   v104
	BYTE	W06
	BYTE		        Gs2   v048
	BYTE		N06     Gs4   v064
	BYTE	W06
	BYTE		N06   
	BYTE	W06
	BYTE		N12     En0   v076
	BYTE		N12     Dn1 
	BYTE		N12     Ds3   v084
	BYTE		N12     An3   v076
	BYTE		N12     An4 
	BYTE	W12
	BYTE		        Ds3   v100
	BYTE		N06     Gs4   v068
	BYTE	W06
	BYTE		        En0   v056
	BYTE		N06     Cn1 
	BYTE		N06     Dn1 
	BYTE		N06     Gs1 
	BYTE		N06     Gs4   v060
	BYTE	W06
	BYTE		        En0 
	BYTE		N06     Dn1 
	BYTE		N12     Gs1   v068
	BYTE		N12     Gs2 
	BYTE		N12     An4   v076
	BYTE	W12
	BYTE		        En0   v080
	BYTE		N12     Dn1 
	BYTE		N12     An3 
	BYTE		N06     Gs4   v060
	BYTE	W06
	BYTE		N06   
	BYTE	W06
	BYTE		        En0   v064
	BYTE		N06     Cn1 
	BYTE		N06     Dn1 
	BYTE		N06     Gs1   v056
	BYTE		N06     As1 
	BYTE		N12     An4   v076
	BYTE	W06
	BYTE		N06     En0   v060
	BYTE		N06     Dn1 
	BYTE		N06     Gs1 
	BYTE	W06
// 027   ----------------------------------------
	BYTE		N12     Cn1   v104
	BYTE		N12     Gs1   v052
	BYTE		N12     Ds3   v088
	BYTE		N06     Gs4   v056
	BYTE	W06
	BYTE		        Gs4   v060
	BYTE	W06
	BYTE		N12     Ds3   v100
	BYTE		N12     An4   v076
	BYTE	W06
	BYTE		        Cn1   v100
	BYTE	W06
	BYTE		N24     Gs2   v056
	BYTE		N24     An3 
	BYTE		N06     Gs4   v060
	BYTE	W06
	BYTE		N06   
	BYTE	W06
	BYTE		N12     En0   v076
	BYTE		N12     Dn1 
	BYTE		N12     Ds3   v088
	BYTE		N12     An4   v076
	BYTE	W12
	BYTE		        Ds3   v100
	BYTE		N06     Gs4   v064
	BYTE	W06
	BYTE		        En0   v060
	BYTE		N06     Cn1 
	BYTE		N06     Dn1 
	BYTE		N06     Gs4 
	BYTE	W06
	BYTE		        En0   v056
	BYTE		N06     Dn1 
	BYTE		N24     Gs2 
	BYTE		N24     An3 
	BYTE		N12     An4   v072
	BYTE	W12
	BYTE		        En0   v076
	BYTE		N12     Dn1 
	BYTE		N06     Gs4   v056
	BYTE	W06
	BYTE		        Gs4   v060
	BYTE	W06
	BYTE		N12     Cn1   v104
	BYTE		N12     An4   v076
	BYTE	W12
// 028   ----------------------------------------
	BYTE		        Cn1   v108
	BYTE		N12     Ds3   v088
	BYTE		N24     An3   v060
	BYTE		N06     Gs4   v056
	BYTE	W06
	BYTE		        Gs4   v064
	BYTE	W06
	BYTE		N12     Ds3   v100
	BYTE		N12     An4   v076
	BYTE	W06
	BYTE		        Cn1   v104
	BYTE	W06
	BYTE		        Gs2   v056
	BYTE		N06     Gs4   v060
	BYTE	W06
	BYTE		N06   
	BYTE	W06
	BYTE		N12     En0   v080
	BYTE		N12     Dn1 
	BYTE		N12     Ds3   v088
	BYTE		N24     An3   v076
	BYTE		N12     An4   v072
	BYTE	W12
	BYTE		        Ds3   v096
	BYTE		N06     Gs4   v064
	BYTE	W06
	BYTE		        En0   v052
	BYTE		N06     Cn1 
	BYTE		N06     Dn1 
	BYTE		N06     Gs4   v064
	BYTE	W06
	BYTE		        En0   v060
	BYTE		N06     Dn1 
	BYTE		N12     Gs2 
	BYTE		N12     An4   v072
	BYTE	W12
	BYTE		        En0   v076
	BYTE		N12     Dn1 
	BYTE		N12     An3 
	BYTE		N06     Gs4   v060
	BYTE	W06
	BYTE		        Gs4   v064
	BYTE	W06
	BYTE		N12     Cn1   v100
	BYTE		N12     As1   v056
	BYTE		N12     An4   v080
	BYTE	W12
// 029   ----------------------------------------
	BYTE		        Cn1   v116
	BYTE		N12     Gs1   v052
	BYTE		N12     Ds3   v080
	BYTE		N06     Gs4   v056
	BYTE	W06
	BYTE		        Gs4   v060
	BYTE	W06
	BYTE		N12     Ds3   v096
	BYTE		N12     An4   v072
	BYTE	W06
	BYTE		        Cn1   v100
	BYTE	W06
	BYTE		N24     Gs2   v056
	BYTE		N24     An3 
	BYTE		N06     Gs4   v064
	BYTE	W06
	BYTE		N06   
	BYTE	W06
	BYTE		N12     En0   v076
	BYTE		N12     Dn1 
	BYTE		N12     Ds3   v088
	BYTE		N12     An4   v080
	BYTE	W12
	BYTE		        Ds3   v096
	BYTE		N06     Gs4   v060
	BYTE	W06
	BYTE		        En0   v056
	BYTE		N06     Cn1 
	BYTE		N06     Dn1 
	BYTE		N06     Gs4   v068
	BYTE	W06
	BYTE		        En0   v060
	BYTE		N06     Dn1 
	BYTE		N24     Gs2   v056
	BYTE		N24     An3 
	BYTE		N12     An4   v076
	BYTE	W12
	BYTE		        En0   v080
	BYTE		N12     Dn1 
	BYTE		N06     Gs4   v060
	BYTE	W06
	BYTE		        Gs4   v064
	BYTE	W06
	BYTE		N12     Cn1   v104
	BYTE		N12     An4   v076
	BYTE	W12
// 030   ----------------------------------------
	BYTE		        Cn1   v108
	BYTE		N12     Ds3   v088
	BYTE		N24     An3   v060
	BYTE		N06     Gs4   v056
	BYTE	W06
	BYTE		        Gs4   v064
	BYTE	W06
	BYTE		N12     Ds3   v096
	BYTE		N12     An4   v072
	BYTE	W06
	BYTE		        Cn1   v100
	BYTE	W06
	BYTE		        Gs2   v052
	BYTE		N06     Gs4   v060
	BYTE	W06
	BYTE		N06   
	BYTE	W06
	BYTE		N12     En0   v076
	BYTE		N12     Dn1 
	BYTE		N12     Ds3   v092
	BYTE		N12     An3   v076
	BYTE		N12     An4 
	BYTE	W12
	BYTE		        Ds3   v092
	BYTE		N06     Gs4   v064
	BYTE	W06
	BYTE		        En0   v060
	BYTE		N06     Cn1 
	BYTE		N06     Dn1 
	BYTE		N06     Gs1   v056
	BYTE		N06     Gs4   v068
	BYTE	W06
	BYTE		        En0   v056
	BYTE		N06     Dn1 
	BYTE		N12     Gs1   v072
	BYTE		N12     Gs2 
	BYTE		N12     An4 
	BYTE	W12
	BYTE		N06     En0   v076
	BYTE		N06     Dn1 
	BYTE		N12     An3   v084
	BYTE		N06     Gs4   v060
	BYTE	W06
	BYTE		        En0   v056
	BYTE		N06     Dn1 
	BYTE		N06     Gs4   v060
	BYTE	W06
	BYTE		        En0 
	BYTE		N06     Cn1 
	BYTE		N06     Dn1 
	BYTE		N12     As1   v056
	BYTE		N12     An4   v076
	BYTE	W06
	BYTE		N06     En0   v064
	BYTE		N06     Dn1 
	BYTE	W06
// 031   ----------------------------------------
	BYTE		N12     Cn1   v100
	BYTE		N12     Gs1   v048
	BYTE		N12     Ds3   v088
	BYTE		N06     Gs4   v060
	BYTE	W06
	BYTE		        Gs4   v064
	BYTE	W06
	BYTE		N12     Ds3   v100
	BYTE		N12     An4   v076
	BYTE	W06
	BYTE		        Cn1   v100
	BYTE	W06
	BYTE		N24     Gs2   v052
	BYTE		N24     An3 
	BYTE		N06     Gs4   v056
	BYTE	W06
	BYTE		        Gs4   v064
	BYTE	W06
	BYTE		N12     En0   v072
	BYTE		N12     Dn1 
	BYTE		N12     Ds3   v092
	BYTE		N12     An4   v076
	BYTE	W12
	BYTE		        Ds3   v100
	BYTE		N06     Gs4   v064
	BYTE	W06
	BYTE		        En0   v060
	BYTE		N06     Cn1 
	BYTE		N06     Dn1 
	BYTE		N06     Gs4   v064
	BYTE	W06
	BYTE		        En0 
	BYTE		N06     Dn1 
	BYTE		N24     Gs2   v056
	BYTE		N24     An3 
	BYTE		N12     An4   v076
	BYTE	W12
	BYTE		        En0   v080
	BYTE		N12     Dn1 
	BYTE		N06     Gs4   v056
	BYTE	W06
	BYTE		        Gs4   v060
	BYTE	W06
	BYTE		N12     Cn1   v104
	BYTE		N12     An4   v080
	BYTE	W12
// 032   ----------------------------------------
	BYTE		        Cn1   v112
	BYTE		N12     Ds3   v084
	BYTE		N24     An3   v060
	BYTE		N06     Gs4   v056
	BYTE	W06
	BYTE		        Gs4   v064
	BYTE	W06
	BYTE		N12     Ds3   v092
	BYTE		N12     An4   v076
	BYTE	W06
	BYTE		        Cn1   v100
	BYTE	W06
	BYTE		        Gs2   v052
	BYTE		N06     Gs4   v060
	BYTE	W06
	BYTE		N06   
	BYTE	W06
	BYTE		N12     En0   v080
	BYTE		N12     Dn1 
	BYTE		N12     Ds3   v092
	BYTE		N24     An3   v076
	BYTE		N12     An4   v072
	BYTE	W12
	BYTE		        Ds3   v100
	BYTE		N06     Gs4   v060
	BYTE	W06
	BYTE		        En0   v048
	BYTE		N06     Cn1 
	BYTE		N06     Dn1 
	BYTE		N06     Gs4   v060
	BYTE	W06
	BYTE		        En0 
	BYTE		N06     Dn1 
	BYTE		N12     Gs2   v056
	BYTE		N12     An4   v076
	BYTE	W12
	BYTE		        En0   v080
	BYTE		N12     Dn1 
	BYTE		N12     An3   v076
	BYTE		N06     Gs4   v060
	BYTE	W06
	BYTE		N06   
	BYTE	W06
	BYTE		N12     Cn1   v104
	BYTE		N12     As1   v056
	BYTE		N12     An4   v076
	BYTE	W12
// 033   ----------------------------------------
	BYTE		        Cn1   v108
	BYTE		N12     Gs1   v048
	BYTE		N12     Ds3   v088
	BYTE		N06     Gs4   v056
	BYTE	W06
	BYTE		        Gs4   v064
	BYTE	W06
	BYTE		N12     Ds3   v104
	BYTE		N12     An4   v072
	BYTE	W06
	BYTE		        Cn1   v100
	BYTE	W06
	BYTE		N24     Gs2   v052
	BYTE		N24     An3 
	BYTE		N06     Gs4   v056
	BYTE	W06
	BYTE		        Gs4   v060
	BYTE	W06
	BYTE		N12     En0   v080
	BYTE		N12     Dn1 
	BYTE		N12     Ds3   v092
	BYTE		N12     An4   v076
	BYTE	W12
	BYTE		        Ds3   v100
	BYTE		N06     Gs4   v060
	BYTE	W06
	BYTE		        En0 
	BYTE		N06     Cn1 
	BYTE		N06     Dn1 
	BYTE		N06     Gs4   v064
	BYTE	W06
	BYTE		        En0   v060
	BYTE		N06     Dn1 
	BYTE		N24     Gs2   v056
	BYTE		N24     An3 
	BYTE		N12     An4   v080
	BYTE	W12
	BYTE		        En0   v076
	BYTE		N12     Dn1 
	BYTE		N06     Gs4   v060
	BYTE	W06
	BYTE		N06   
	BYTE	W06
	BYTE		N12     Cn1   v104
	BYTE		N12     An4   v076
	BYTE	W12
// 034   ----------------------------------------
	BYTE		        Cn1   v108
	BYTE		N12     Ds3   v088
	BYTE		N24     An3   v056
	BYTE		N06     Gs4 
	BYTE	W06
	BYTE		        Gs4   v064
	BYTE	W06
	BYTE		N12     Ds3   v096
	BYTE		N12     An4   v072
	BYTE	W06
	BYTE		        Cn1   v100
	BYTE	W06
	BYTE		        Gs2   v052
	BYTE		N06     Gs4   v064
	BYTE	W06
	BYTE		N06   
	BYTE	W06
	BYTE		N12     En0   v080
	BYTE		N12     Dn1 
	BYTE		N12     Ds3   v084
	BYTE		N12     An3   v076
	BYTE		N12     An4 
	BYTE	W12
	BYTE		        Ds3   v100
	BYTE		N06     Gs4   v060
	BYTE	W06
	BYTE		        En0   v052
	BYTE		N06     Cn1 
	BYTE		N06     Dn1 
	BYTE		N06     Gs1   v056
	BYTE		N06     Gs4   v060
	BYTE	W06
	BYTE		        En0 
	BYTE		N06     Dn1 
	BYTE		N12     Gs1   v068
	BYTE		N12     Gs2 
	BYTE		N12     An4   v080
	BYTE	W12
	BYTE		        En0   v076
	BYTE		N12     Dn1 
	BYTE		N12     An3   v080
	BYTE		N06     Gs4   v056
	BYTE	W06
	BYTE		N06   
	BYTE	W06
	BYTE		N12     Cn1   v104
	BYTE		N12     As1   v056
	BYTE		N12     An4   v076
	BYTE	W12
// 035   ----------------------------------------
	BYTE		        Cn1   v104
	BYTE		N12     Ds3   v092
	BYTE		N06     Gs4   v056
	BYTE	W06
	BYTE		        Gs4   v064
	BYTE	W06
	BYTE		N12     Ds3   v096
	BYTE		N12     An4   v076
	BYTE	W06
	BYTE		        Cn1   v100
	BYTE	W06
	BYTE		N24     Gs2   v056
	BYTE		N24     An3 
	BYTE		N06     Gs4 
	BYTE	W06
	BYTE		        Gs4   v060
	BYTE	W06
	BYTE		N12     En0   v076
	BYTE		N12     Dn1 
	BYTE		N12     Ds3   v088
	BYTE		N12     An4   v072
	BYTE	W12
	BYTE		        Ds3   v096
	BYTE		N06     Gs4   v056
	BYTE	W06
	BYTE		        En0 
	BYTE		N06     Cn1 
	BYTE		N06     Dn1 
	BYTE		N06     Gs4   v060
	BYTE	W06
	BYTE		        En0   v056
	BYTE		N06     Dn1 
	BYTE		N24     Gs2   v064
	BYTE		N24     An3 
	BYTE		N12     An4   v076
	BYTE	W12
	BYTE		        En0   v080
	BYTE		N12     Dn1 
	BYTE		N06     Gs4   v060
	BYTE	W06
	BYTE		N06   
	BYTE	W06
	BYTE		N12     Cn1   v104
	BYTE		N12     An4   v080
	BYTE	W12
// 036   ----------------------------------------
	BYTE		        Cn1   v108
	BYTE		N12     Ds3   v092
	BYTE		N24     An3   v056
	BYTE		N06     Gs4   v060
	BYTE	W06
	BYTE		N06   
	BYTE	W06
	BYTE		N12     Ds3   v096
	BYTE		N12     An4   v076
	BYTE	W06
	BYTE		        Cn1   v104
	BYTE	W06
	BYTE		        Gs2   v052
	BYTE		N06     Gs4   v060
	BYTE	W06
	BYTE		N06   
	BYTE	W06
	BYTE		N12     En0   v072
	BYTE		N12     Dn1 
	BYTE		N12     Ds3   v088
	BYTE		N24     An3   v076
	BYTE		N12     An4   v080
	BYTE	W12
	BYTE		        Ds3   v096
	BYTE		N06     Gs4   v068
	BYTE	W06
	BYTE		        En0   v052
	BYTE		N06     Cn1 
	BYTE		N06     Dn1 
	BYTE		N06     Gs4   v060
	BYTE	W06
	BYTE		        En0   v064
	BYTE		N06     Dn1 
	BYTE		N12     Gs2   v056
	BYTE		N12     An4   v080
	BYTE	W12
	BYTE		        En0 
	BYTE		N12     Dn1 
	BYTE		N12     An3   v076
	BYTE		N06     Gs4   v060
	BYTE	W06
	BYTE		        Gs4   v068
	BYTE	W06
	BYTE		N12     Cn1   v104
	BYTE		N12     As1   v056
	BYTE		N12     An4   v076
	BYTE	W12
// 037   ----------------------------------------
	BYTE		        Cn1   v112
	BYTE		N12     Gs1   v048
	BYTE		N12     Ds3   v080
	BYTE		N06     Gs4   v060
	BYTE	W06
	BYTE		        Gs4   v064
	BYTE	W06
	BYTE		N12     Ds3   v100
	BYTE		N12     An4   v076
	BYTE	W06
	BYTE		        Cn1   v104
	BYTE	W06
	BYTE		N24     Gs2   v056
	BYTE		N24     An3 
	BYTE		N06     Gs4 
	BYTE	W06
	BYTE		        Gs4   v060
	BYTE	W06
	BYTE		N12     En0   v080
	BYTE		N12     Dn1 
	BYTE		N12     Ds3   v092
	BYTE		N12     An4   v072
	BYTE	W12
	BYTE		        Ds3   v096
	BYTE		N06     Gs4   v060
	BYTE	W06
	BYTE		        En0 
	BYTE		N06     Cn1 
	BYTE		N06     Dn1 
	BYTE		N06     Gs4 
	BYTE	W06
	BYTE		        En0   v064
	BYTE		N06     Dn1 
	BYTE		N24     Gs2   v060
	BYTE		N24     An3 
	BYTE		N12     An4   v076
	BYTE	W12
	BYTE		        En0   v072
	BYTE		N12     Dn1 
	BYTE		N06     Gs4   v064
	BYTE	W06
	BYTE		        Gs4   v060
	BYTE	W06
	BYTE		N12     Cn1   v104
	BYTE		N12     An4   v080
	BYTE	W12
// 038   ----------------------------------------
	BYTE		        Cn1   v108
	BYTE		N12     Ds3   v088
	BYTE		N24     An3   v052
	BYTE		N06     Gs4   v060
	BYTE	W06
	BYTE		        Gs4   v068
	BYTE	W06
	BYTE		N12     Ds3   v092
	BYTE		N12     An4   v076
	BYTE	W06
	BYTE		        Cn1   v100
	BYTE	W06
	BYTE		        Gs2   v052
	BYTE		N06     Gs4   v064
	BYTE	W06
	BYTE		        Gs4   v060
	BYTE	W06
	BYTE		N12     En0   v064
	BYTE		N12     Dn1 
	BYTE		N12     Ds3   v084
	BYTE		N12     An3   v080
	BYTE		N12     An4   v076
	BYTE	W12
	BYTE		        Ds3   v096
	BYTE		N06     Gs4   v056
	BYTE	W06
	BYTE		        En0   v040
	BYTE		N06     Cn1 
	BYTE		N06     Dn1 
	BYTE		N06     Gs1   v056
	BYTE		N06     Gs4   v060
	BYTE	W06
	BYTE		        En0   v052
	BYTE		N06     Dn1 
	BYTE		N12     Gs1   v072
	BYTE		N12     Gs2 
	BYTE		N12     An4   v076
	BYTE	W12
	BYTE		        En0   v064
	BYTE		N12     Dn1 
	BYTE		N12     An3   v084
	BYTE		N06     Gs4   v056
	BYTE	W06
	BYTE		        Gs4   v060
	BYTE	W06
	BYTE		N12     Cn1   v088
	BYTE		N12     As1   v056
	BYTE		N12     An4   v080
	BYTE	W12
// 039   ----------------------------------------
	BYTE		        Gs1   v048
	BYTE		N12     Ds3   v088
	BYTE		N06     Gs4   v060
	BYTE	W06
	BYTE		N06   
	BYTE	W06
	BYTE		N12     Ds3   v096
	BYTE		N12     An4   v072
	BYTE	W12
	BYTE		N24     Gs2   v056
	BYTE		N24     An3 
	BYTE		N06     Gs4 
	BYTE	W06
	BYTE		        Gs4   v064
	BYTE	W06
	BYTE		N12     En0   v068
	BYTE		N12     Dn1 
	BYTE		N12     Ds3   v084
	BYTE		N12     An4   v080
	BYTE	W12
	BYTE		        Ds3   v096
	BYTE		N06     Gs4   v060
	BYTE	W06
	BYTE		        En0   v044
	BYTE		N06     Dn1 
	BYTE		N06     Gs4   v064
	BYTE	W06
	BYTE		        En0   v048
	BYTE		N06     Dn1 
	BYTE		N24     Gs2   v056
	BYTE		N24     An3 
	BYTE		N12     An4   v076
	BYTE	W12
	BYTE		        En0   v064
	BYTE		N12     Dn1 
	BYTE		N06     Gs4   v060
	BYTE	W06
	BYTE		        Gs4   v056
	BYTE	W06
	BYTE		N12     An4   v080
	BYTE	W12
	BYTE	GoTo
	 POIN2	MarioKartWiiMapleTreewaySme_10_B1
MarioKartWiiMapleTreewaySme_10_B2:
// 040   ----------------------------------------
	BYTE	FINE

//**************** Track 11 (Midi-Chn.11) ****************//

MarioKartWiiMapleTreewaySme_11:
	BYTE	KEYSH   MarioKartWiiMapleTreewaySme_key+0
// 000   ----------------------------------------
	BYTE		VOICE   48
	BYTE		VOL     36*MarioKartWiiMapleTreewaySme_mvl/mxv
	BYTE		PAN     c_v+47
	BYTE	W96
// 001   ----------------------------------------
	BYTE	W96
MarioKartWiiMapleTreewaySme_11_B1:
// 002   ----------------------------------------
	BYTE	W96
// 003   ----------------------------------------
	BYTE	W96
// 004   ----------------------------------------
	BYTE	W96
// 005   ----------------------------------------
	BYTE	W96
// 006   ----------------------------------------
	BYTE	W96
// 007   ----------------------------------------
	BYTE	W96
// 008   ----------------------------------------
	BYTE	W96
// 009   ----------------------------------------
	BYTE	W96
// 010   ----------------------------------------
	BYTE	W96
// 011   ----------------------------------------
	BYTE	W96
// 012   ----------------------------------------
	BYTE	W96
// 013   ----------------------------------------
	BYTE	W96
// 014   ----------------------------------------
	BYTE	W96
// 015   ----------------------------------------
	BYTE	W96
// 016   ----------------------------------------
	BYTE	W96
// 017   ----------------------------------------
	BYTE	W96
// 018   ----------------------------------------
	BYTE	W96
// 019   ----------------------------------------
	BYTE	W12
	BYTE		N09     Gn3   v104
	BYTE	W12
	BYTE		        Cn4 
	BYTE	W12
	BYTE		        En4   v108
	BYTE	W12
	BYTE		        Fn4   v100
	BYTE	W12
	BYTE		        En4   v104
	BYTE	W12
	BYTE		        Dn4 
	BYTE	W12
	BYTE		        Cn4 
	BYTE	W12
// 020   ----------------------------------------
	BYTE		        Bn3   v100
	BYTE	W12
	BYTE		        Cn4   v104
	BYTE	W12
	BYTE		        Dn4   v100
	BYTE	W12
	BYTE		        Gn3 
	BYTE	W60
// 021   ----------------------------------------
	BYTE	W12
	BYTE		        Gn3   v104
	BYTE	W12
	BYTE		        Cn4 
	BYTE	W12
	BYTE		        En4 
	BYTE	W12
	BYTE		        Fn4   v100
	BYTE	W12
	BYTE		        En4 
	BYTE	W12
	BYTE		        Dn4 
	BYTE	W12
	BYTE		        Cn4   v108
	BYTE	W12
// 022   ----------------------------------------
	BYTE		        En4   v100
	BYTE	W96
// 023   ----------------------------------------
	BYTE	W12
	BYTE		        Gn3   v104
	BYTE	W12
	BYTE		        Cn4 
	BYTE	W12
	BYTE		        En4 
	BYTE	W12
	BYTE		        Fn4   v108
	BYTE	W12
	BYTE		        En4   v104
	BYTE	W12
	BYTE		        Dn4   v100
	BYTE	W12
	BYTE		        Cn4   v096
	BYTE	W12
// 024   ----------------------------------------
	BYTE		        Bn3   v100
	BYTE	W12
	BYTE		        Cn4   v104
	BYTE	W12
	BYTE		        Dn4   v100
	BYTE	W12
	BYTE		        Gn3   v108
	BYTE	W60
// 025   ----------------------------------------
	BYTE	W12
	BYTE		        Gn3   v100
	BYTE	W12
	BYTE		        Cn4   v108
	BYTE	W12
	BYTE		        En4   v100
	BYTE	W12
	BYTE		        Fn4 
	BYTE	W12
	BYTE		        En4   v108
	BYTE	W12
	BYTE		        Fn4   v100
	BYTE	W12
	BYTE		        Gn4   v104
	BYTE	W12
// 026   ----------------------------------------
	BYTE		        En4 
	BYTE	W96
// 027   ----------------------------------------
	BYTE	W12
	BYTE		        An3 
	BYTE	W12
	BYTE		        Cn4 
	BYTE	W12
	BYTE		        En4   v100
	BYTE	W12
	BYTE		        Fn4   v096
	BYTE	W12
	BYTE		        En4   v100
	BYTE	W12
	BYTE		        Fn4 
	BYTE	W12
	BYTE		        Gn4 
	BYTE	W12
// 028   ----------------------------------------
	BYTE		        An4 
	BYTE	W12
	BYTE		        Gn4 
	BYTE	W12
	BYTE		        An4 
	BYTE	W12
	BYTE		        Bn4   v104
	BYTE	W12
	BYTE		        Cn5   v100
	BYTE	W12
	BYTE		        Gn4   v104
	BYTE	W12
	BYTE		        En4 
	BYTE	W12
	BYTE		        Gn4 
	BYTE	W12
// 029   ----------------------------------------
	BYTE		        Fn4 
	BYTE	W24
	BYTE		        Fn4   v100
	BYTE	W24
	BYTE		        Fn4   v108
	BYTE	W12
	BYTE		        En4   v100
	BYTE	W12
	BYTE		        Dn4 
	BYTE	W12
	BYTE		        Cn4 
	BYTE	W12
// 030   ----------------------------------------
	BYTE		        Dn4   v104
	BYTE	W96
// 031   ----------------------------------------
	BYTE	W12
	BYTE		        Gn4   v080
	BYTE	W12
	BYTE		        Cn5 
	BYTE	W12
	BYTE		        En5   v076
	BYTE	W12
	BYTE		        Fn5   v080
	BYTE	W12
	BYTE		        En5 
	BYTE	W12
	BYTE		        Dn5   v076
	BYTE	W12
	BYTE		        Cn5   v080
	BYTE	W12
// 032   ----------------------------------------
	BYTE		        Bn4 
	BYTE	W12
	BYTE		        Cn5 
	BYTE	W12
	BYTE		        Dn5   v072
	BYTE	W12
	BYTE		        Gn4   v076
	BYTE	W60
// 033   ----------------------------------------
	BYTE	W12
	BYTE		N09   
	BYTE	W12
	BYTE		        Cn5   v080
	BYTE	W12
	BYTE		        En5   v072
	BYTE	W12
	BYTE		        Fn5 
	BYTE	W12
	BYTE		        En5   v080
	BYTE	W12
	BYTE		        Dn5   v076
	BYTE	W12
	BYTE		        Cn5 
	BYTE	W12
// 034   ----------------------------------------
	BYTE		        En5 
	BYTE	W96
// 035   ----------------------------------------
	BYTE	W12
	BYTE		        Gn4 
	BYTE	W12
	BYTE		        Cn5 
	BYTE	W12
	BYTE		        En5   v080
	BYTE	W12
	BYTE		        Fn5 
	BYTE	W12
	BYTE		        En5   v076
	BYTE	W12
	BYTE		        Dn5   v072
	BYTE	W12
	BYTE		        Cn5   v076
	BYTE	W12
// 036   ----------------------------------------
	BYTE		        Bn4   v072
	BYTE	W12
	BYTE		        Cn5   v076
	BYTE	W12
	BYTE		        Dn5 
	BYTE	W12
	BYTE		        Gn4 
	BYTE	W24
	BYTE		        Gn3   v088
	BYTE	W12
	BYTE		        Cn4   v092
	BYTE	W12
	BYTE		        En4   v088
	BYTE	W12
// 037   ----------------------------------------
	BYTE		        Gn4   v092
	BYTE	W24
	BYTE		        Gs4 
	BYTE	W12
	BYTE		N12     As4   v088
	BYTE	W12
	BYTE		N24     Ds4   v076
	BYTE	W24
	BYTE		N12     Gn3   v072
	BYTE	W12
	BYTE		        As3   v100
	BYTE	W12
// 038   ----------------------------------------
	BYTE		N09     Cn4   v104
	BYTE	W24
	BYTE		        Dn4   v088
	BYTE	W12
	BYTE		N36     Ds4 
	BYTE	W36
	BYTE		N12     Fn4   v104
	BYTE	W12
	BYTE		        Gn4   v108
	BYTE	W12
// 039   ----------------------------------------
	BYTE		N48     As3   v084
	BYTE		N48     Gn4 
	BYTE	W48
	BYTE		        Gs3   v080
	BYTE		N48     Fn4 
	BYTE	W48
	BYTE	GoTo
	 POIN2	MarioKartWiiMapleTreewaySme_11_B1
MarioKartWiiMapleTreewaySme_11_B2:
// 040   ----------------------------------------
	BYTE	FINE

//**************** Track 12 (Midi-Chn.12) ****************//

MarioKartWiiMapleTreewaySme_12:
	BYTE	KEYSH   MarioKartWiiMapleTreewaySme_key+0
// 000   ----------------------------------------
	BYTE		VOICE   49
	BYTE		VOL     38*MarioKartWiiMapleTreewaySme_mvl/mxv
	BYTE		PAN     c_v-48
	BYTE	W96
// 001   ----------------------------------------
	BYTE	W96
MarioKartWiiMapleTreewaySme_12_B1:
// 002   ----------------------------------------
	BYTE	W96
// 003   ----------------------------------------
	BYTE	W96
// 004   ----------------------------------------
	BYTE	W96
// 005   ----------------------------------------
	BYTE	W96
// 006   ----------------------------------------
	BYTE	W96
// 007   ----------------------------------------
	BYTE	W96
// 008   ----------------------------------------
	BYTE	W96
// 009   ----------------------------------------
	BYTE	W96
// 010   ----------------------------------------
	BYTE	W96
// 011   ----------------------------------------
	BYTE	W96
// 012   ----------------------------------------
	BYTE	W96
// 013   ----------------------------------------
	BYTE	W96
// 014   ----------------------------------------
	BYTE	W96
// 015   ----------------------------------------
	BYTE	W96
// 016   ----------------------------------------
	BYTE	W96
// 017   ----------------------------------------
	BYTE	W96
// 018   ----------------------------------------
	BYTE	W96
// 019   ----------------------------------------
	BYTE	W12
	BYTE		N09     En3   v088
	BYTE		N09     Gn3   v104
	BYTE	W12
	BYTE		        Gn3   v088
	BYTE		N09     Cn4   v104
	BYTE	W12
	BYTE		        Gn3   v084
	BYTE		N09     En4   v100
	BYTE	W12
	BYTE		        An3   v088
	BYTE		N09     Fn4   v104
	BYTE	W12
	BYTE		        Gn3   v088
	BYTE		N09     En4   v104
	BYTE	W12
	BYTE		        Gn3   v092
	BYTE		N09     Dn4   v104
	BYTE	W12
	BYTE		        Fn3   v088
	BYTE		N09     Cn4   v100
	BYTE	W12
// 020   ----------------------------------------
	BYTE		        Dn3   v092
	BYTE		N09     Bn3   v104
	BYTE	W12
	BYTE		        Fn3   v092
	BYTE		N09     Cn4   v104
	BYTE	W12
	BYTE		        Bn3   v084
	BYTE		N09     Dn4   v100
	BYTE	W12
	BYTE		        En3   v092
	BYTE		N09     Gn3   v104
	BYTE	W60
// 021   ----------------------------------------
	BYTE	W12
	BYTE		        En3   v092
	BYTE		N09     Gn3   v096
	BYTE	W12
	BYTE		        Gn3   v088
	BYTE		N09     Cn4   v100
	BYTE	W12
	BYTE		        Gn3   v088
	BYTE		N09     En4   v108
	BYTE	W12
	BYTE		        An3   v088
	BYTE		N09     Fn4   v104
	BYTE	W12
	BYTE		        Gn3   v092
	BYTE		N09     En4   v100
	BYTE	W12
	BYTE		        Gn3   v092
	BYTE		N09     Dn4   v100
	BYTE	W12
	BYTE		        Fn3   v092
	BYTE		N09     Cn4   v104
	BYTE	W12
// 022   ----------------------------------------
	BYTE		        Gn3   v092
	BYTE		N09     En4   v100
	BYTE	W96
// 023   ----------------------------------------
	BYTE	W12
	BYTE		        En3   v088
	BYTE		N09     Gn3   v104
	BYTE	W12
	BYTE		        Gn3   v088
	BYTE		N09     Cn4   v104
	BYTE	W12
	BYTE		        Gn3   v088
	BYTE		N09     En4   v100
	BYTE	W12
	BYTE		        An3   v088
	BYTE		N09     Fn4   v104
	BYTE	W12
	BYTE		        Gn3   v084
	BYTE		N09     En4   v104
	BYTE	W12
	BYTE		        Gn3   v092
	BYTE		N09     Dn4   v104
	BYTE	W12
	BYTE		        Fn3   v084
	BYTE		N09     Cn4   v100
	BYTE	W12
// 024   ----------------------------------------
	BYTE		        Dn3   v084
	BYTE		N09     Bn3   v100
	BYTE	W12
	BYTE		        An3   v092
	BYTE		N09     Cn4   v104
	BYTE	W12
	BYTE		        Bn3   v084
	BYTE		N09     Dn4   v104
	BYTE	W12
	BYTE		        En3   v092
	BYTE		N09     Gn3   v104
	BYTE	W60
// 025   ----------------------------------------
	BYTE	W12
	BYTE		        En3   v092
	BYTE		N09     Gn3   v104
	BYTE	W12
	BYTE		        Gn3   v084
	BYTE		N09     Cn4   v104
	BYTE	W12
	BYTE		        Gn3   v088
	BYTE		N09     En4   v100
	BYTE	W12
	BYTE		        An3   v088
	BYTE		N09     Fn4   v104
	BYTE	W12
	BYTE		        Gn3   v088
	BYTE		N09     En4   v104
	BYTE	W12
	BYTE		        An3   v084
	BYTE		N09     Fn4   v104
	BYTE	W12
	BYTE		        Bn3   v084
	BYTE		N09     Gn4   v104
	BYTE	W12
// 026   ----------------------------------------
	BYTE		        Gn3   v088
	BYTE		N09     En4   v100
	BYTE	W96
// 027   ----------------------------------------
	BYTE	W12
	BYTE		        En3   v092
	BYTE		N09     An3   v104
	BYTE	W12
	BYTE		        An3   v088
	BYTE		N09     Cn4   v104
	BYTE	W12
	BYTE		        Cn4   v088
	BYTE		N09     En4   v104
	BYTE	W12
	BYTE		        Cn4   v088
	BYTE		N09     Fn4   v104
	BYTE	W12
	BYTE		        Cn4   v092
	BYTE		N09     En4   v108
	BYTE	W12
	BYTE		        Cn4   v088
	BYTE		N09     Fn4   v100
	BYTE	W12
	BYTE		        Dn4   v092
	BYTE		N09     Gn4   v104
	BYTE	W12
// 028   ----------------------------------------
	BYTE		        Cn4   v088
	BYTE		N09     An4   v104
	BYTE	W12
	BYTE		        Cn4   v092
	BYTE		N09     Gn4   v108
	BYTE	W12
	BYTE		        Cn4   v088
	BYTE		N09     An4   v104
	BYTE	W12
	BYTE		        Dn4   v092
	BYTE		N09     Bn4   v104
	BYTE	W12
	BYTE		        En4   v088
	BYTE		N09     Cn5   v104
	BYTE	W12
	BYTE		        En4   v084
	BYTE		N09     Gn4   v104
	BYTE	W12
	BYTE		        Cn4   v084
	BYTE		N09     En4   v104
	BYTE	W12
	BYTE		        En4   v088
	BYTE		N09     Gn4   v108
	BYTE	W12
// 029   ----------------------------------------
	BYTE		        Cn4   v088
	BYTE		N09     Fn4   v104
	BYTE	W24
	BYTE		        Cn4   v088
	BYTE		N09     Fn4   v100
	BYTE	W24
	BYTE		        Cn4   v088
	BYTE		N09     Fn4   v104
	BYTE	W12
	BYTE		        Cn4   v088
	BYTE		N09     En4   v104
	BYTE	W12
	BYTE		        An3   v088
	BYTE		N09     Dn4   v100
	BYTE	W12
	BYTE		        An3   v092
	BYTE		N09     Cn4   v100
	BYTE	W12
// 030   ----------------------------------------
	BYTE		        Fn3   v088
	BYTE		N09     Dn4   v100
	BYTE	W96
// 031   ----------------------------------------
	BYTE	W12
	BYTE		        En3   v092
	BYTE		N09     Gn3   v096
	BYTE	W12
	BYTE		        Gn3   v088
	BYTE		N09     Cn4   v092
	BYTE	W12
	BYTE		        Cn4   v084
	BYTE		N09     En4 
	BYTE	W12
	BYTE		        Cn4   v088
	BYTE		N09     Fn4 
	BYTE	W12
	BYTE		        Cn4 
	BYTE		N09     En4   v092
	BYTE	W12
	BYTE		        Bn3   v088
	BYTE		N09     Dn4 
	BYTE	W12
	BYTE		        Gn3 
	BYTE		N09     Cn4   v092
	BYTE	W12
// 032   ----------------------------------------
	BYTE		        Dn3   v096
	BYTE		N09     Bn3   v088
	BYTE	W12
	BYTE		        An3 
	BYTE		N09     Cn4 
	BYTE	W12
	BYTE		        Bn3 
	BYTE		N09     Dn4 
	BYTE	W12
	BYTE		        En3 
	BYTE		N09     Gn3   v084
	BYTE	W60
// 033   ----------------------------------------
	BYTE	W12
	BYTE		        En3   v088
	BYTE		N09     Gn3   v092
	BYTE	W12
	BYTE		N09   
	BYTE		N09     Cn4   v084
	BYTE	W12
	BYTE		        Cn4   v092
	BYTE		N09     En4   v088
	BYTE	W12
	BYTE		        Cn4 
	BYTE		N09     Fn4   v092
	BYTE	W12
	BYTE		        Cn4   v088
	BYTE		N09     En4   v092
	BYTE	W12
	BYTE		        Bn3 
	BYTE		N09     Dn4 
	BYTE	W12
	BYTE		        Gn3   v088
	BYTE		N09     Cn4 
	BYTE	W12
// 034   ----------------------------------------
	BYTE		        Gn3   v084
	BYTE		N09     En4   v088
	BYTE	W96
// 035   ----------------------------------------
	BYTE	W12
	BYTE		        En3 
	BYTE		N09     Gn3 
	BYTE	W12
	BYTE		N09   
	BYTE		N09     Cn4   v092
	BYTE	W12
	BYTE		N09   
	BYTE		N09     En4   v084
	BYTE	W12
	BYTE		        Cn4 
	BYTE		N09     Fn4   v092
	BYTE	W12
	BYTE		        Cn4   v084
	BYTE		N09     En4   v088
	BYTE	W12
	BYTE		        Bn3   v096
	BYTE		N09     Dn4   v080
	BYTE	W12
	BYTE		        Gn3   v092
	BYTE		N09     Cn4   v088
	BYTE	W12
// 036   ----------------------------------------
	BYTE		        Dn3 
	BYTE		N09     Bn3   v092
	BYTE	W12
	BYTE		        An3   v088
	BYTE		N09     Cn4   v092
	BYTE	W12
	BYTE		        Bn3 
	BYTE		N09     Dn4   v088
	BYTE	W12
	BYTE		        En3   v092
	BYTE		N09     Gn3 
	BYTE	W24
	BYTE		N09   
	BYTE	W12
	BYTE		        Cn4 
	BYTE	W12
	BYTE		        En4   v088
	BYTE	W12
// 037   ----------------------------------------
	BYTE		        Gn3   v092
	BYTE	W24
	BYTE		        Gs3 
	BYTE	W12
	BYTE		N36     As3 
	BYTE	W36
	BYTE		N12     Gn3 
	BYTE	W12
	BYTE		        As3   v108
	BYTE	W12
// 038   ----------------------------------------
	BYTE		N24     Cn4 
	BYTE	W24
	BYTE		N12     Dn4 
	BYTE	W12
	BYTE		N36     Ds4   v104
	BYTE	W36
	BYTE		N12     Fn4   v100
	BYTE	W12
	BYTE		        Gn4   v112
	BYTE	W12
// 039   ----------------------------------------
	BYTE		N48     As3   v084
	BYTE		N48     Gn4 
	BYTE	W48
	BYTE		        Gs3   v076
	BYTE		N48     Fn4 
	BYTE	W48
	BYTE	GoTo
	 POIN2	MarioKartWiiMapleTreewaySme_12_B1
MarioKartWiiMapleTreewaySme_12_B2:
// 040   ----------------------------------------
	BYTE	FINE

//**************** Track 13 (Midi-Chn.13) ****************//

MarioKartWiiMapleTreewaySme_13:
	BYTE	KEYSH   MarioKartWiiMapleTreewaySme_key+0
// 000   ----------------------------------------
	BYTE		VOICE   48
	BYTE		VOL     25*MarioKartWiiMapleTreewaySme_mvl/mxv
	BYTE		PAN     c_v-32
	BYTE	W96
// 001   ----------------------------------------
	BYTE	W96
MarioKartWiiMapleTreewaySme_13_B1:
// 002   ----------------------------------------
	BYTE	W96
// 003   ----------------------------------------
	BYTE	W96
// 004   ----------------------------------------
	BYTE	W96
// 005   ----------------------------------------
	BYTE	W96
// 006   ----------------------------------------
	BYTE	W96
// 007   ----------------------------------------
	BYTE	W96
// 008   ----------------------------------------
	BYTE	W96
// 009   ----------------------------------------
	BYTE	W96
// 010   ----------------------------------------
	BYTE	W96
// 011   ----------------------------------------
	BYTE	W96
// 012   ----------------------------------------
	BYTE	W96
// 013   ----------------------------------------
	BYTE	W96
// 014   ----------------------------------------
	BYTE	W96
// 015   ----------------------------------------
	BYTE	W96
// 016   ----------------------------------------
	BYTE	W96
// 017   ----------------------------------------
	BYTE	W96
// 018   ----------------------------------------
	BYTE	W96
// 019   ----------------------------------------
	BYTE	W96
// 020   ----------------------------------------
	BYTE	W96
// 021   ----------------------------------------
	BYTE	W96
// 022   ----------------------------------------
	BYTE	W96
// 023   ----------------------------------------
	BYTE	W96
// 024   ----------------------------------------
	BYTE	W96
// 025   ----------------------------------------
	BYTE	W96
// 026   ----------------------------------------
	BYTE	W96
// 027   ----------------------------------------
	BYTE		N72     An1   v104
	BYTE	W72
	BYTE		N24     Fn1   v108
	BYTE	W24
// 028   ----------------------------------------
	BYTE		N36     Gn1   v120
	BYTE	W36
	BYTE		        Fn1   v112
	BYTE	W36
	BYTE		N24     En1   v108
	BYTE	W24
// 029   ----------------------------------------
	BYTE		N72     Dn1 
	BYTE	W72
	BYTE		N24     Fn1   v116
	BYTE	W24
// 030   ----------------------------------------
	BYTE		N96     Gn1 
	BYTE	W36
	BYTE		N60     Gn2   v127
	BYTE	W60
// 031   ----------------------------------------
	BYTE		TIE     Cn2   v076
	BYTE		N96     En2   v084
	BYTE		N96     Gn2 
	BYTE	W96
// 032   ----------------------------------------
	BYTE		        Dn2   v080
	BYTE		N96     Gn2 
	BYTE	W96
// 033   ----------------------------------------
	BYTE		TIE     En2   v084
	BYTE		TIE     Gn2 
	BYTE	W96
// 034   ----------------------------------------
	BYTE	W24
	BYTE		EOT     En2 
	BYTE		        Gn2 
	BYTE		N24     Fn2   v080
	BYTE		N24     An2 
	BYTE	W24
	BYTE		        Gn2   v084
	BYTE		N24     Bn2 
	BYTE	W24
	BYTE		        Fn2   v080
	BYTE		N24     An2 
	BYTE	W24
	BYTE		EOT     Cn2 
// 035   ----------------------------------------
	BYTE		TIE     Cn2   v084
	BYTE		N96     En2 
	BYTE		N96     Gn2 
	BYTE	W96
// 036   ----------------------------------------
	BYTE		        Dn2   v088
	BYTE		N96     Gn2 
	BYTE	W96
	BYTE		EOT     Cn2 
// 037   ----------------------------------------
	BYTE		N96     Ds2   v084
	BYTE		N96     Gn2 
	BYTE	W96
// 038   ----------------------------------------
	BYTE		N72     Gs1   v072
	BYTE	W72
	BYTE		N24     Gn2   v096
	BYTE		N24     As2 
	BYTE	W24
// 039   ----------------------------------------
	BYTE		N48     Gn2   v084
	BYTE		N48     As2 
	BYTE	W48
	BYTE		        Fn2   v080
	BYTE		N48     Gs2 
	BYTE	W48
	BYTE	GoTo
	 POIN2	MarioKartWiiMapleTreewaySme_13_B1
MarioKartWiiMapleTreewaySme_13_B2:
// 040   ----------------------------------------
	BYTE	FINE

//**************** Track 14 (Midi-Chn.14) ****************//

MarioKartWiiMapleTreewaySme_14:
	BYTE	KEYSH   MarioKartWiiMapleTreewaySme_key+0
// 000   ----------------------------------------
	BYTE		VOICE   41
	BYTE		VOL     24*MarioKartWiiMapleTreewaySme_mvl/mxv
	BYTE		PAN     c_v+31
	BYTE	W96
// 001   ----------------------------------------
	BYTE	W96
MarioKartWiiMapleTreewaySme_14_B1:
// 002   ----------------------------------------
	BYTE	W96
// 003   ----------------------------------------
	BYTE	W96
// 004   ----------------------------------------
	BYTE	W96
// 005   ----------------------------------------
	BYTE	W96
// 006   ----------------------------------------
	BYTE	W96
// 007   ----------------------------------------
	BYTE	W96
// 008   ----------------------------------------
	BYTE	W96
// 009   ----------------------------------------
	BYTE	W96
// 010   ----------------------------------------
	BYTE	W96
// 011   ----------------------------------------
	BYTE	W96
// 012   ----------------------------------------
	BYTE	W96
// 013   ----------------------------------------
	BYTE	W96
// 014   ----------------------------------------
	BYTE	W96
// 015   ----------------------------------------
	BYTE	W96
// 016   ----------------------------------------
	BYTE	W96
// 017   ----------------------------------------
	BYTE	W96
// 018   ----------------------------------------
	BYTE	W96
// 019   ----------------------------------------
	BYTE	W12
	BYTE		N09     En2   v064
	BYTE		N09     Gn2   v104
	BYTE	W12
	BYTE		        Gn2   v064
	BYTE		N09     Cn3   v104
	BYTE	W12
	BYTE		        Cn3   v064
	BYTE		N09     En3   v104
	BYTE	W12
	BYTE		        Cn3   v064
	BYTE		N09     Fn3   v100
	BYTE	W12
	BYTE		        Cn3   v068
	BYTE		N09     En3   v104
	BYTE	W12
	BYTE		        Bn2   v064
	BYTE		N09     Dn3   v108
	BYTE	W12
	BYTE		        Gn2   v072
	BYTE		N09     Cn3   v096
	BYTE	W12
// 020   ----------------------------------------
	BYTE		        Dn2   v068
	BYTE		N09     Bn2   v108
	BYTE	W12
	BYTE		        Gn2   v060
	BYTE		N09     Cn3   v100
	BYTE	W12
	BYTE		        Bn2   v060
	BYTE		N09     Dn3   v104
	BYTE	W12
	BYTE		        En2   v064
	BYTE		N09     Gn2   v108
	BYTE	W60
// 021   ----------------------------------------
	BYTE	W12
	BYTE		        En2   v064
	BYTE		N09     Gn2   v100
	BYTE	W12
	BYTE		        Gn2   v068
	BYTE		N09     Cn3   v108
	BYTE	W12
	BYTE		        Cn3   v064
	BYTE		N09     En3   v096
	BYTE	W12
	BYTE		        Cn3   v060
	BYTE		N09     Fn3   v100
	BYTE	W12
	BYTE		        Cn3   v064
	BYTE		N09     En3   v104
	BYTE	W12
	BYTE		        Bn2   v064
	BYTE		N09     Dn3   v100
	BYTE	W12
	BYTE		        Gn2   v064
	BYTE		N09     Cn3   v104
	BYTE	W12
// 022   ----------------------------------------
	BYTE		        Gn2   v068
	BYTE		N09     En3   v104
	BYTE	W96
// 023   ----------------------------------------
	BYTE	W12
	BYTE		        En2   v064
	BYTE		N09     Gn2   v104
	BYTE	W12
	BYTE		        Gn2   v064
	BYTE		N09     Cn3   v112
	BYTE	W12
	BYTE		        Cn3   v064
	BYTE		N09     En3   v104
	BYTE	W12
	BYTE		        Cn3   v064
	BYTE		N09     Fn3   v104
	BYTE	W12
	BYTE		        Cn3   v068
	BYTE		N09     En3   v104
	BYTE	W12
	BYTE		        Bn2   v068
	BYTE		N09     Dn3   v104
	BYTE	W12
	BYTE		        Gn2   v064
	BYTE		N09     Cn3   v100
	BYTE	W12
// 024   ----------------------------------------
	BYTE		        Dn2   v068
	BYTE		N09     Bn2   v100
	BYTE	W12
	BYTE		        An2   v064
	BYTE		N09     Cn3   v104
	BYTE	W12
	BYTE		        Bn2   v064
	BYTE		N09     Dn3   v108
	BYTE	W12
	BYTE		        En2   v064
	BYTE		N09     Gn2   v108
	BYTE	W60
// 025   ----------------------------------------
	BYTE	W12
	BYTE		        En2   v064
	BYTE		N09     Gn2   v104
	BYTE	W12
	BYTE		        Gn2   v064
	BYTE		N09     Cn3   v100
	BYTE	W12
	BYTE		        Cn3   v064
	BYTE		N09     En3   v100
	BYTE	W12
	BYTE		        Cn3   v068
	BYTE		N09     Fn3   v096
	BYTE	W12
	BYTE		        Cn3   v064
	BYTE		N09     En3   v108
	BYTE	W12
	BYTE		        Cn3   v064
	BYTE		N09     Fn3   v104
	BYTE	W12
	BYTE		        Bn2   v068
	BYTE		N09     Gn3   v104
	BYTE	W12
// 026   ----------------------------------------
	BYTE		        Cn3   v068
	BYTE		N09     En3   v100
	BYTE	W96
// 027   ----------------------------------------
	BYTE		N72     An2   v104
	BYTE	W72
	BYTE		N24     Fn2   v108
	BYTE	W24
// 028   ----------------------------------------
	BYTE		N36     Gn2   v124
	BYTE	W36
	BYTE		        Fn2   v108
	BYTE	W36
	BYTE		N24     En2   v112
	BYTE	W24
// 029   ----------------------------------------
	BYTE		N72     Dn2 
	BYTE	W72
	BYTE		N24     Fn2   v116
	BYTE	W24
// 030   ----------------------------------------
	BYTE		N36     Gn2   v108
	BYTE	W36
	BYTE		N60     Gn2   v100
	BYTE	W60
// 031   ----------------------------------------
	BYTE		TIE     Cn2   v084
	BYTE		N96     En2 
	BYTE		N96     Gn2 
	BYTE	W96
// 032   ----------------------------------------
	BYTE		        Dn2 
	BYTE		N96     Gn2 
	BYTE	W96
// 033   ----------------------------------------
	BYTE		        En2   v088
	BYTE		N96     Gn2 
	BYTE	W96
// 034   ----------------------------------------
	BYTE		N24     En2   v084
	BYTE		N24     Gn2 
	BYTE	W24
	BYTE		        Fn2   v088
	BYTE		N24     An2 
	BYTE	W24
	BYTE		        Gn2 
	BYTE		N24     Bn2 
	BYTE	W24
	BYTE		        Fn2   v084
	BYTE		N24     An2 
	BYTE	W24
	BYTE		EOT     Cn2 
// 035   ----------------------------------------
	BYTE		TIE     Cn2   v080
	BYTE		N96     En2   v084
	BYTE		N96     Gn2 
	BYTE	W96
// 036   ----------------------------------------
	BYTE		        Dn2   v088
	BYTE		N96     Gn2 
	BYTE	W96
	BYTE		EOT     Cn2 
// 037   ----------------------------------------
	BYTE		N96     Ds2   v080
	BYTE		N96     Gn2 
	BYTE	W96
// 038   ----------------------------------------
	BYTE		N72     Gs1   v076
	BYTE	W72
	BYTE		N24     Gn2   v096
	BYTE		N24     As2 
	BYTE	W24
// 039   ----------------------------------------
	BYTE		N48     Gn2   v084
	BYTE		N48     As2 
	BYTE	W48
	BYTE		        Fn2 
	BYTE		N48     Gs2 
	BYTE	W48
	BYTE	GoTo
	 POIN2	MarioKartWiiMapleTreewaySme_14_B1
MarioKartWiiMapleTreewaySme_14_B2:
// 040   ----------------------------------------
	BYTE	FINE

//**************** Track 15 (Midi-Chn.15) ****************//

MarioKartWiiMapleTreewaySme_15:
	BYTE	KEYSH   MarioKartWiiMapleTreewaySme_key+0
// 000   ----------------------------------------
	BYTE		VOICE   21
	BYTE		VOL     39*MarioKartWiiMapleTreewaySme_mvl/mxv
	BYTE		PAN     c_v-4
	BYTE	W96
// 001   ----------------------------------------
	BYTE	W96
MarioKartWiiMapleTreewaySme_15_B1:
// 002   ----------------------------------------
	BYTE	W96
// 003   ----------------------------------------
	BYTE	W96
// 004   ----------------------------------------
	BYTE	W96
// 005   ----------------------------------------
	BYTE	W96
// 006   ----------------------------------------
	BYTE	W96
// 007   ----------------------------------------
	BYTE	W96
// 008   ----------------------------------------
	BYTE	W96
// 009   ----------------------------------------
	BYTE	W96
// 010   ----------------------------------------
	BYTE		N48     Dn3   v100
	BYTE		N96     Gn3 
	BYTE		N48     As3 
	BYTE	W01
	BYTE	W01
	BYTE	W01
	BYTE	W01
	BYTE	W01
	BYTE	W01
	BYTE	W01
	BYTE	W01
	BYTE	W01
	BYTE	W01
	BYTE	W01
	BYTE	W01
	BYTE	W01
	BYTE	W01
	BYTE	W01
	BYTE	W01
	BYTE	W01
	BYTE	W01
	BYTE	W01
	BYTE	W01
	BYTE	W01
	BYTE	W01
	BYTE	W01
	BYTE	W01
	BYTE	W01
	BYTE	W01
	BYTE	W01
	BYTE	W01
	BYTE	W01
	BYTE	W01
	BYTE	W01
	BYTE	W01
	BYTE	W01
	BYTE	W01
	BYTE	W01
	BYTE	W01
	BYTE	W01
	BYTE	W01
	BYTE	W01
	BYTE	W01
	BYTE	W01
	BYTE	W01
	BYTE	W01
	BYTE	W01
	BYTE	W01
	BYTE	W01
	BYTE	W02
	BYTE		TIE     Ds3   v112
	BYTE		N48     Cn4 
	BYTE	W01
	BYTE	W01
	BYTE	W01
	BYTE	W01
	BYTE	W01
	BYTE	W01
	BYTE	W01
	BYTE	W01
	BYTE	W01
	BYTE	W01
	BYTE	W01
	BYTE	W01
	BYTE	W01
	BYTE	W01
	BYTE	W01
	BYTE	W01
	BYTE	W01
	BYTE	W01
	BYTE	W01
	BYTE	W01
	BYTE	W01
	BYTE	W01
	BYTE	W01
	BYTE	W01
	BYTE	W01
	BYTE	W01
	BYTE	W01
	BYTE	W01
	BYTE	W01
	BYTE	W01
	BYTE	W01
	BYTE	W01
	BYTE	W01
	BYTE	W01
	BYTE	W01
	BYTE	W01
	BYTE	W01
	BYTE	W01
	BYTE	W01
	BYTE	W01
	BYTE	W01
	BYTE	W01
	BYTE	W01
	BYTE	W01
	BYTE	W01
	BYTE	W01
	BYTE	W01
	BYTE	W01
// 011   ----------------------------------------
	BYTE		        Gs3   v124
	BYTE		N48     Bn3 
	BYTE	W01
	BYTE	W02
	BYTE	W01
	BYTE	W02
	BYTE	W01
	BYTE	W02
	BYTE	W01
	BYTE	W02
	BYTE	W01
	BYTE	W02
	BYTE	W01
	BYTE	W02
	BYTE	W01
	BYTE	W02
	BYTE	W01
	BYTE	W02
	BYTE	W01
	BYTE	W02
	BYTE	W01
	BYTE	W02
	BYTE	W01
	BYTE	W02
	BYTE	W01
	BYTE	W02
	BYTE	W01
	BYTE	W02
	BYTE	W01
	BYTE	W02
	BYTE	W01
	BYTE	W02
	BYTE	W01
	BYTE	W02
	BYTE		        Gn3   v112
	BYTE		N48     As3 
	BYTE	W01
	BYTE	W01
	BYTE	W01
	BYTE	W01
	BYTE	W01
	BYTE	W01
	BYTE	W01
	BYTE	W01
	BYTE	W01
	BYTE	W01
	BYTE	W01
	BYTE	W01
	BYTE	W01
	BYTE	W01
	BYTE	W01
	BYTE	W01
	BYTE	W01
	BYTE	W01
	BYTE	W01
	BYTE	W01
	BYTE	W01
	BYTE	W01
	BYTE	W01
	BYTE	W01
	BYTE	W01
	BYTE	W01
	BYTE	W01
	BYTE	W01
	BYTE	W01
	BYTE	W01
	BYTE	W01
	BYTE	W01
	BYTE	W01
	BYTE	W01
	BYTE	W01
	BYTE	W01
	BYTE	W01
	BYTE	W01
	BYTE	W01
	BYTE	W01
	BYTE	W01
	BYTE	W01
	BYTE	W01
	BYTE	W01
	BYTE	W01
	BYTE	W01
	BYTE	W02
// 012   ----------------------------------------
	BYTE		        Gn3   v100
	BYTE		N48     Cn4 
	BYTE	W01
	BYTE	W01
	BYTE	W01
	BYTE	W01
	BYTE	W01
	BYTE	W01
	BYTE	W01
	BYTE	W01
	BYTE	W01
	BYTE	W01
	BYTE	W01
	BYTE	W01
	BYTE	W01
	BYTE	W01
	BYTE	W01
	BYTE	W01
	BYTE	W01
	BYTE	W01
	BYTE	W01
	BYTE	W01
	BYTE	W01
	BYTE	W01
	BYTE	W01
	BYTE	W01
	BYTE	W01
	BYTE	W01
	BYTE	W01
	BYTE	W01
	BYTE	W01
	BYTE	W01
	BYTE	W01
	BYTE	W01
	BYTE	W01
	BYTE	W01
	BYTE	W01
	BYTE	W01
	BYTE	W01
	BYTE	W01
	BYTE	W01
	BYTE	W01
	BYTE	W01
	BYTE	W01
	BYTE	W01
	BYTE	W01
	BYTE	W01
	BYTE	W03
	BYTE		EOT     Ds3 
	BYTE		N48     Dn3   v112
	BYTE		N48     Fn3 
	BYTE		N48     As3 
	BYTE	W01
	BYTE	W01
	BYTE	W01
	BYTE	W01
	BYTE	W01
	BYTE	W01
	BYTE	W01
	BYTE	W02
	BYTE	W01
	BYTE	W01
	BYTE	W01
	BYTE	W01
	BYTE	W01
	BYTE	W01
	BYTE	W01
	BYTE	W02
	BYTE	W01
	BYTE	W01
	BYTE	W01
	BYTE	W01
	BYTE	W01
	BYTE	W01
	BYTE	W01
	BYTE	W02
	BYTE	W01
	BYTE	W01
	BYTE	W01
	BYTE	W01
	BYTE	W01
	BYTE	W01
	BYTE	W01
	BYTE	W02
	BYTE	W01
	BYTE	W01
	BYTE	W01
	BYTE	W01
	BYTE	W01
	BYTE	W01
	BYTE	W01
	BYTE	W02
	BYTE	W01
	BYTE	W01
	BYTE	W01
// 013   ----------------------------------------
	BYTE		        Ds3   v100
	BYTE		N48     Gs3 
	BYTE		N48     Cn4 
	BYTE	W01
	BYTE	W02
	BYTE	W01
	BYTE	W02
	BYTE	W01
	BYTE	W02
	BYTE	W01
	BYTE	W02
	BYTE	W01
	BYTE	W02
	BYTE	W01
	BYTE	W02
	BYTE	W01
	BYTE	W02
	BYTE	W01
	BYTE	W02
	BYTE	W01
	BYTE	W02
	BYTE	W01
	BYTE	W02
	BYTE	W01
	BYTE	W02
	BYTE	W01
	BYTE	W02
	BYTE	W01
	BYTE	W02
	BYTE	W01
	BYTE	W02
	BYTE	W01
	BYTE	W02
	BYTE	W01
	BYTE	W02
	BYTE		        Fn3   v112
	BYTE		N96     As3 
	BYTE		N96     Dn4 
	BYTE	W01
	BYTE	W01
	BYTE	W01
	BYTE	W01
	BYTE	W01
	BYTE	W01
	BYTE	W01
	BYTE	W01
	BYTE	W01
	BYTE	W01
	BYTE	W01
	BYTE	W01
	BYTE	W01
	BYTE	W01
	BYTE	W01
	BYTE	W01
	BYTE	W01
	BYTE	W01
	BYTE	W01
	BYTE	W01
	BYTE	W01
	BYTE	W01
	BYTE	W01
	BYTE	W01
	BYTE	W01
	BYTE	W01
	BYTE	W01
	BYTE	W01
	BYTE	W01
	BYTE	W01
	BYTE	W01
	BYTE	W01
	BYTE	W01
	BYTE	W01
	BYTE	W01
	BYTE	W01
	BYTE	W01
	BYTE	W01
	BYTE	W01
	BYTE	W01
	BYTE	W01
	BYTE	W01
	BYTE	W01
	BYTE	W01
	BYTE	W01
	BYTE	W01
	BYTE	W01
	BYTE	W01
// 014   ----------------------------------------
	BYTE		        Gn3   v124
	BYTE	W01
	BYTE	W01
	BYTE	W01
	BYTE	W01
	BYTE	W01
	BYTE	W01
	BYTE	W01
	BYTE	W01
	BYTE	W01
	BYTE	W01
	BYTE	W01
	BYTE	W01
	BYTE	W01
	BYTE	W01
	BYTE	W01
	BYTE	W01
	BYTE	W01
	BYTE	W01
	BYTE	W01
	BYTE	W01
	BYTE	W01
	BYTE	W01
	BYTE	W01
	BYTE	W01
	BYTE	W01
	BYTE	W01
	BYTE	W01
	BYTE	W01
	BYTE	W01
	BYTE	W01
	BYTE	W01
	BYTE	W02
	BYTE	W01
	BYTE	W01
	BYTE	W01
	BYTE	W01
	BYTE	W01
	BYTE	W01
	BYTE	W01
	BYTE	W01
	BYTE	W01
	BYTE	W01
	BYTE	W01
	BYTE	W01
	BYTE	W01
	BYTE	W01
	BYTE	W01
	BYTE		N48     Cn4   v112
	BYTE		TIE     Ds4 
	BYTE	W01
	BYTE	W01
	BYTE	W02
	BYTE	W01
	BYTE	W02
	BYTE	W01
	BYTE	W01
	BYTE	W02
	BYTE	W01
	BYTE	W02
	BYTE	W01
	BYTE	W01
	BYTE	W02
	BYTE	W01
	BYTE	W02
	BYTE	W01
	BYTE	W01
	BYTE	W02
	BYTE	W01
	BYTE	W02
	BYTE	W01
	BYTE	W01
	BYTE	W02
	BYTE	W01
	BYTE	W02
	BYTE	W01
	BYTE	W01
	BYTE	W02
	BYTE	W01
	BYTE	W02
	BYTE	W01
	BYTE	W02
	BYTE	W01
	BYTE	W01
	BYTE	W01
// 015   ----------------------------------------
	BYTE		N48     Gs3   v124
	BYTE		N48     Bn3 
	BYTE	W01
	BYTE	W01
	BYTE	W01
	BYTE	W01
	BYTE	W01
	BYTE	W01
	BYTE	W01
	BYTE	W01
	BYTE	W01
	BYTE	W01
	BYTE	W01
	BYTE	W01
	BYTE	W01
	BYTE	W01
	BYTE	W01
	BYTE	W01
	BYTE	W01
	BYTE	W01
	BYTE	W01
	BYTE	W01
	BYTE	W01
	BYTE	W01
	BYTE	W01
	BYTE	W01
	BYTE	W01
	BYTE	W01
	BYTE	W01
	BYTE	W01
	BYTE	W01
	BYTE	W01
	BYTE	W01
	BYTE	W01
	BYTE	W01
	BYTE	W01
	BYTE	W01
	BYTE	W01
	BYTE	W01
	BYTE	W01
	BYTE	W01
	BYTE	W01
	BYTE	W01
	BYTE	W01
	BYTE	W01
	BYTE	W01
	BYTE	W01
	BYTE	W01
	BYTE	W01
	BYTE	W01
	BYTE		N96     Gn3   v112
	BYTE		N48     As3 
	BYTE	W01
	BYTE	W01
	BYTE	W01
	BYTE	W01
	BYTE	W01
	BYTE	W01
	BYTE	W01
	BYTE	W01
	BYTE	W01
	BYTE	W01
	BYTE	W01
	BYTE	W01
	BYTE	W01
	BYTE	W01
	BYTE	W01
	BYTE	W01
	BYTE	W01
	BYTE	W01
	BYTE	W01
	BYTE	W01
	BYTE	W01
	BYTE	W01
	BYTE	W01
	BYTE	W01
	BYTE	W01
	BYTE	W01
	BYTE	W01
	BYTE	W01
	BYTE	W01
	BYTE	W01
	BYTE	W01
	BYTE	W02
	BYTE	W01
	BYTE	W01
	BYTE	W01
	BYTE	W01
	BYTE	W01
	BYTE	W01
	BYTE	W01
	BYTE	W01
	BYTE	W01
	BYTE	W01
	BYTE	W01
	BYTE	W01
	BYTE	W01
	BYTE	W01
	BYTE	W01
// 016   ----------------------------------------
	BYTE		        Cn4   v124
	BYTE	W01
	BYTE	W01
	BYTE	W01
	BYTE	W01
	BYTE	W01
	BYTE	W01
	BYTE	W01
	BYTE	W01
	BYTE	W01
	BYTE	W01
	BYTE	W01
	BYTE	W01
	BYTE	W01
	BYTE	W01
	BYTE	W01
	BYTE	W01
	BYTE	W01
	BYTE	W01
	BYTE	W01
	BYTE	W01
	BYTE	W01
	BYTE	W01
	BYTE	W01
	BYTE	W01
	BYTE	W01
	BYTE	W01
	BYTE	W01
	BYTE	W01
	BYTE	W01
	BYTE	W01
	BYTE	W01
	BYTE	W01
	BYTE	W01
	BYTE	W01
	BYTE	W01
	BYTE	W01
	BYTE	W01
	BYTE	W01
	BYTE	W01
	BYTE	W02
	BYTE	W01
	BYTE	W01
	BYTE	W02
	BYTE	W01
	BYTE	W01
	BYTE	W01
	BYTE		EOT     Ds4 
	BYTE		N48     Fn3   v116
	BYTE		N48     As3 
	BYTE		N48     Dn4 
	BYTE	W01
	BYTE	W01
	BYTE	W01
	BYTE	W02
	BYTE	W01
	BYTE	W01
	BYTE	W02
	BYTE	W01
	BYTE	W01
	BYTE	W01
	BYTE	W02
	BYTE	W01
	BYTE	W01
	BYTE	W02
	BYTE	W01
	BYTE	W01
	BYTE	W02
	BYTE	W01
	BYTE	W01
	BYTE	W02
	BYTE	W01
	BYTE	W01
	BYTE	W02
	BYTE	W01
	BYTE	W01
	BYTE	W01
	BYTE	W02
	BYTE	W01
	BYTE	W01
	BYTE	W02
	BYTE	W01
	BYTE	W01
	BYTE	W02
	BYTE	W01
	BYTE	W01
	BYTE	W02
	BYTE	W01
// 017   ----------------------------------------
	BYTE	W96
// 018   ----------------------------------------
	BYTE	W96
// 019   ----------------------------------------
	BYTE	W96
// 020   ----------------------------------------
	BYTE	W96
// 021   ----------------------------------------
	BYTE	W96
// 022   ----------------------------------------
	BYTE	W96
// 023   ----------------------------------------
	BYTE	W96
// 024   ----------------------------------------
	BYTE	W96
// 025   ----------------------------------------
	BYTE	W96
// 026   ----------------------------------------
	BYTE	W96
// 027   ----------------------------------------
	BYTE	W96
// 028   ----------------------------------------
	BYTE	W96
// 029   ----------------------------------------
	BYTE	W96
// 030   ----------------------------------------
	BYTE	W96
// 031   ----------------------------------------
	BYTE	W96
// 032   ----------------------------------------
	BYTE	W96
// 033   ----------------------------------------
	BYTE	W96
// 034   ----------------------------------------
	BYTE	W96
// 035   ----------------------------------------
	BYTE	W96
// 036   ----------------------------------------
	BYTE	W96
// 037   ----------------------------------------
	BYTE	W96
// 038   ----------------------------------------
	BYTE	W96
// 039   ----------------------------------------
	BYTE	W96
	BYTE	GoTo
	 POIN2	MarioKartWiiMapleTreewaySme_15_B1
MarioKartWiiMapleTreewaySme_15_B2:
// 040   ----------------------------------------
	BYTE	FINE

//******************************************************//
	ALIGN 4

MarioKartWiiMapleTreewaySme:
	BYTE	15	// NumTrks
	BYTE	0	// NumBlks
	BYTE	MarioKartWiiMapleTreewaySme_pri	// Priority
	BYTE	MarioKartWiiMapleTreewaySme_rev	// Reverb.

	POIN2	MarioKartWiiMapleTreewaySme_grp

	POIN2	MarioKartWiiMapleTreewaySme_1
	POIN2	MarioKartWiiMapleTreewaySme_2
	POIN2	MarioKartWiiMapleTreewaySme_3
	POIN2	MarioKartWiiMapleTreewaySme_4
	POIN2	MarioKartWiiMapleTreewaySme_5
	POIN2	MarioKartWiiMapleTreewaySme_6
	POIN2	MarioKartWiiMapleTreewaySme_7
	POIN2	MarioKartWiiMapleTreewaySme_8
	POIN2	MarioKartWiiMapleTreewaySme_9
	POIN2	MarioKartWiiMapleTreewaySme_10
	POIN2	MarioKartWiiMapleTreewaySme_11
	POIN2	MarioKartWiiMapleTreewaySme_12
	POIN2	MarioKartWiiMapleTreewaySme_13
	POIN2	MarioKartWiiMapleTreewaySme_14
	POIN2	MarioKartWiiMapleTreewaySme_15

	
