//Event file generated from Sappy .s format.
	#include "MPlayDef.event"

	#define	MLBowsersInsideStoryTheGrandFinaleFE8MeteorSR23_grp  voicegroup000
	#define	MLBowsersInsideStoryTheGrandFinaleFE8MeteorSR23_pri  0
	#define	MLBowsersInsideStoryTheGrandFinaleFE8MeteorSR23_rev  0
	#define	MLBowsersInsideStoryTheGrandFinaleFE8MeteorSR23_mvl  127
	#define	MLBowsersInsideStoryTheGrandFinaleFE8MeteorSR23_key  0
	#define	MLBowsersInsideStoryTheGrandFinaleFE8MeteorSR23_tbs  1
	#define	MLBowsersInsideStoryTheGrandFinaleFE8MeteorSR23_exg  0
	#define	MLBowsersInsideStoryTheGrandFinaleFE8MeteorSR23_cmp  1

	// .rodata
	//	MLBowsersInsideStoryTheGrandFinaleFE8MeteorSR23
	ALIGN 4


//**************** Track 1 (Midi-Chn.0) ****************//

MLBowsersInsideStoryTheGrandFinaleFE8MeteorSR23_001:
//  #01 //000   ----------------------------------------
 BYTE   KEYSH   MLBowsersInsideStoryTheGrandFinaleFE8MeteorSR23_key+0
 BYTE   TEMPO   156*MLBowsersInsideStoryTheGrandFinaleFE8MeteorSR23_tbs/2
 BYTE   VOICE   2
 BYTE   PAN   c_v+4
 BYTE   N44  Gs3  v072  gtp3
 BYTE   VOL   64*MLBowsersInsideStoryTheGrandFinaleFE8MeteorSR23_mvl/mxv
 BYTE   W12
 BYTE   N11  Ds3  v067
 BYTE   W12
 BYTE   Bn2
 BYTE   W12
 BYTE   Gs2
 BYTE   W12
 BYTE   N44  Gs3  v072  gtp3
 BYTE   W12
 BYTE   N11  Ds3  v067
 BYTE   W12
 BYTE   Bn2
 BYTE   W12
 BYTE   Gs2
 BYTE   W12
//  #01 //001   ----------------------------------------
 BYTE   N44  Fs3  v072  gtp3
 BYTE   W12
 BYTE   N11  Cs3  v067
 BYTE   W12
 BYTE   As2
 BYTE   W12
 BYTE   Fs2
 BYTE   W12
 BYTE   N44  Fs3  v072  gtp3
 BYTE   W12
 BYTE   N11  Cs3  v067
 BYTE   W12
 BYTE   As2
 BYTE   W12
 BYTE   Fs2
 BYTE   W12
//  #01 //002   ----------------------------------------
 BYTE   N44  Gs3  v072  gtp3
 BYTE   W12
 BYTE   N11  Ds3  v067
 BYTE   W12
 BYTE   Bn2
 BYTE   W12
 BYTE   Gs2
 BYTE   W12
 BYTE   N44  Gs3  v072  gtp3
 BYTE   W12
 BYTE   N11  Ds3  v067
 BYTE   W12
 BYTE   Bn2
 BYTE   W12
 BYTE   Gs2
 BYTE   W12
//  #01 //003   ----------------------------------------
 BYTE   N44  Gs3  v072  gtp3
 BYTE   W12
 BYTE   N11  Ds3  v067
 BYTE   W12
 BYTE   Bn2
 BYTE   W12
 BYTE   Gs2
 BYTE   W12
 BYTE   N44  Fs2  v072  gtp3
 BYTE   W12
 BYTE   N11  Bn2  v067
 BYTE   W12
 BYTE   Ds3  v072
 BYTE   W12
 BYTE   Fs3  v077
 BYTE   W12
//  #01 //004   ----------------------------------------
Label_010033E0:
 BYTE   N92  Bn2  v077  gtp3
 BYTE   W02
 BYTE   N92  Gs3  v087  gtp1
 BYTE   W92
 BYTE   W02
 BYTE   PEND 
//  #01 //005   ----------------------------------------
 BYTE   W96
//  #01 //006   ----------------------------------------
Label_010033ED:
 BYTE   N68  Ds2  v097  gtp3
 BYTE   N68  Ds3
 BYTE   W72
 BYTE   N23  Gs2
 BYTE   N23  Gs3
 BYTE   W24
//  #01 //007   ----------------------------------------
Label_010033F9:
 BYTE   N44  Cs3  v097  gtp3
 BYTE   N44  Cs4
 BYTE   W48
 BYTE   Bn2
 BYTE   N44  Bn3  v097  gtp3
 BYTE   W48
 BYTE   PEND 
//  #01 //008   ----------------------------------------
Label_01003407:
 BYTE   N68  As2  v097  gtp3
 BYTE   N68  As3
 BYTE   W72
 BYTE   N23  Ds2
 BYTE   N23  Ds3
 BYTE   W24
 BYTE   PEND 
//  #01 //009   ----------------------------------------
Label_01003414:
 BYTE   N44  As2  v097  gtp3
 BYTE   N44  As3
 BYTE   W48
 BYTE   N23  As2
 BYTE   N23  As3
 BYTE   W24
 BYTE   Bn2
 BYTE   N23  Bn3
 BYTE   W24
 BYTE   PEND 
//  #01 //010   ----------------------------------------
 BYTE   N68  As2  v097  gtp3
 BYTE   N68  As3
 BYTE   W72
 BYTE   N23  Gs2
 BYTE   N23  Gs3
 BYTE   W24
//  #01 //011   ----------------------------------------
 BYTE   N68  Cs3  v097  gtp3
 BYTE   N68  Cs4
 BYTE   W72
 BYTE   N23  Bn2
 BYTE   N23  Bn3
 BYTE   W24
//  #01 //012   ----------------------------------------
 BYTE   N80  As2
 BYTE   N80  As3
 BYTE   W84
 BYTE   N05  As2
 BYTE   N05  As3
 BYTE   W06
 BYTE   Bn2
 BYTE   N05  Bn3
 BYTE   W06
//  #01 //013   ----------------------------------------
 BYTE   N44  Cs3  v097  gtp3
 BYTE   N44  Cs4
 BYTE   W48
 BYTE   Ds3
 BYTE   N44  Ds4  v097  gtp3
 BYTE   W48
//  #01 //014   ----------------------------------------
Label_01003458:
 BYTE   W12
 BYTE   N05  Ds3  v077
 BYTE   N05  Ds4
 BYTE   W12
 BYTE   Ds3
 BYTE   N05  Ds4
 BYTE   W12
 BYTE   Cs3
 BYTE   N05  Cs4
 BYTE   W12
 BYTE   En3
 BYTE   N05  En4
 BYTE   W12
 BYTE   En3
 BYTE   N05  En4
 BYTE   W12
 BYTE   En3
 BYTE   N05  En4
 BYTE   W12
 BYTE   Ds3
 BYTE   N05  Ds4
 BYTE   W12
 BYTE   PEND 
//  #01 //015   ----------------------------------------
 BYTE   Ds3
 BYTE   N05  Ds4
 BYTE   W12
 BYTE   Gs2
 BYTE   N05  Gs3
 BYTE   W12
 BYTE   As2
 BYTE   N05  As3
 BYTE   W12
 BYTE   Bn2
 BYTE   N05  Bn3
 BYTE   W12
 BYTE   Cs3
 BYTE   N05  Cs4
 BYTE   W12
 BYTE   Gn2
 BYTE   N05  Gn3
 BYTE   W12
 BYTE   Gs2
 BYTE   N05  Gs3
 BYTE   W12
 BYTE   As2
 BYTE   N05  As3
 BYTE   W12
//  #01 //016   ----------------------------------------
Label_01003498:
 BYTE   W12
 BYTE   N05  Ds3  v077
 BYTE   N05  Ds4
 BYTE   W12
 BYTE   Ds3
 BYTE   N05  Ds4
 BYTE   W12
 BYTE   En3
 BYTE   N05  En4
 BYTE   W12
 BYTE   Fs3
 BYTE   N05  Fs4
 BYTE   W12
 BYTE   En3
 BYTE   N05  En4
 BYTE   W12
 BYTE   Ds3
 BYTE   N05  Ds4
 BYTE   W12
 BYTE   Cs3
 BYTE   N05  Cs4
 BYTE   W12
 BYTE   PEND 
//  #01 //017   ----------------------------------------
Label_010034B8:
 BYTE   N05  Ds3  v077
 BYTE   N05  Ds4
 BYTE   W12
 BYTE   Gs2
 BYTE   N05  Gs3
 BYTE   W12
 BYTE   As2
 BYTE   N05  As3
 BYTE   W12
 BYTE   Bn2
 BYTE   N05  Bn3
 BYTE   W12
 BYTE   Cs3
 BYTE   N05  Cs4
 BYTE   W12
 BYTE   Ds3
 BYTE   N05  Ds4
 BYTE   W12
 BYTE   Cs3
 BYTE   N05  Cs4
 BYTE   W12
 BYTE   Bn2
 BYTE   N05  Bn3
 BYTE   W12
 BYTE   PEND 
//  #01 //018   ----------------------------------------
 BYTE   N68  Ds2  v097  gtp3
 BYTE   N68  Ds3
 BYTE   W72
 BYTE   N23  Gs2
 BYTE   N23  Gs3
 BYTE   W24
//  #01 //019   ----------------------------------------
 BYTE   PATT
  POIN2 Label_010033F9
//  #01 //020   ----------------------------------------
 BYTE   PATT
  POIN2 Label_01003407
//  #01 //021   ----------------------------------------
 BYTE   PATT
  POIN2 Label_01003414
//  #01 //022   ----------------------------------------
 BYTE   N07  Cs3  v102
 BYTE   N07  Cs4
 BYTE   W08
 BYTE   Bn2  v097
 BYTE   N07  Bn3
 BYTE   W08
 BYTE   As2
 BYTE   N07  As3
 BYTE   W08
 BYTE   TIE  Bn2
 BYTE   TIE  Bn3
 BYTE   W72
//  #01 //023   ----------------------------------------
 BYTE   W44
 BYTE   W03
 BYTE   EOT
 BYTE   Bn2  v071
 BYTE   W01
 BYTE   N23  Bn2
 BYTE   N23  Bn3
 BYTE   W24
 BYTE   Cs3
 BYTE   N23  Cs4
 BYTE   W24
//  #01 //024   ----------------------------------------
 BYTE   N68  Cs3  v097  gtp3
 BYTE   N68  Cs4
 BYTE   W72
 BYTE   N23  As2
 BYTE   N23  As3
 BYTE   W24
//  #01 //025   ----------------------------------------
 BYTE   N44  Cs3  v097  gtp3
 BYTE   N44  Cs4
 BYTE   W48
 BYTE   N23  Ds3  v102
 BYTE   N23  Ds4
 BYTE   W48
//  #01 //026   ----------------------------------------
 BYTE   N07  Ds3  v070
 BYTE   N07  Ds4
 BYTE   N07  Gs3
 BYTE   W24
 BYTE   Gs3
 BYTE   N07  Ds4
 BYTE   W24
 BYTE   Gs3
 BYTE   N07  Ds4
 BYTE   W24
 BYTE   Gs3
 BYTE   N07  Ds4
 BYTE   W24
//  #01 //027   ----------------------------------------
Label_01003546:
 BYTE   N07  Gs3  v070
 BYTE   N07  Ds4
 BYTE   W24
 BYTE   Gs3
 BYTE   N07  Ds4
 BYTE   W24
 BYTE   Gs3
 BYTE   N07  Ds4
 BYTE   W24
 BYTE   Gs3
 BYTE   N07  Ds4
 BYTE   W24
 BYTE   PEND 
//  #01 //028   ----------------------------------------
 BYTE   PATT
  POIN2 Label_01003546
//  #01 //029   ----------------------------------------
 BYTE   PATT
  POIN2 Label_01003546
//  #01 //030   ----------------------------------------
 BYTE   N07  Fs3  v070
 BYTE   N07  Cs4
 BYTE   W24
 BYTE   Fs3
 BYTE   N07  Cs4
 BYTE   W24
 BYTE   Fs3
 BYTE   N07  Cs4
 BYTE   W24
 BYTE   Fs3
 BYTE   N07  Cs4
 BYTE   W24
//  #01 //031   ----------------------------------------
 BYTE   Gn3
 BYTE   N07  Cs4
 BYTE   W24
 BYTE   Gn3
 BYTE   N07  Cs4
 BYTE   W24
 BYTE   Gn3
 BYTE   N07  Cs4
 BYTE   W24
 BYTE   Gn3
 BYTE   N07  Cs4
 BYTE   W24
//  #01 //032   ----------------------------------------
 BYTE   As3
 BYTE   N07  Ds4
 BYTE   W24
 BYTE   As3
 BYTE   N07  Ds4
 BYTE   W24
 BYTE   As3
 BYTE   N07  Ds4
 BYTE   W24
 BYTE   As3
 BYTE   N07  Ds4
 BYTE   W24
//  #01 //033   ----------------------------------------
 BYTE   As3
 BYTE   N07  Ds4
 BYTE   W24
 BYTE   As3
 BYTE   N07  Ds4
 BYTE   W48
 BYTE   N17  As3
 BYTE   N17  Ds4
 BYTE   W24
//  #01 //034   ----------------------------------------
Label_010035A2:
 BYTE   W24
 BYTE   N23  Ds3  v087
 BYTE   N23  Ds4
 BYTE   W24
 BYTE   Cs3
 BYTE   N23  Cs4
 BYTE   W24
 BYTE   Bn2
 BYTE   N23  Bn3
 BYTE   W24
 BYTE   PEND 
//  #01 //035   ----------------------------------------
 BYTE   As2
 BYTE   N23  As3
 BYTE   W24
 BYTE   Ds3
 BYTE   N23  Ds4
 BYTE   W24
 BYTE   Cs3
 BYTE   N23  Cs4
 BYTE   W24
 BYTE   Bn2
 BYTE   N23  Bn3
 BYTE   W24
//  #01 //036   ----------------------------------------
Label_010035C2:
 BYTE   N32  As2  v087  gtp3
 BYTE   N32  As3
 BYTE   W36
 BYTE   N05  Gs2
 BYTE   N05  Gs3
 BYTE   W06
 BYTE   As2
 BYTE   N05  As3
 BYTE   W06
 BYTE   N92  Bn2  v087  gtp3
 BYTE   N92  Bn3
 BYTE   W48
 BYTE   PEND 
//  #01 //037   ----------------------------------------
 BYTE   W48
 BYTE   N23  As2
 BYTE   N23  As3
 BYTE   W24
 BYTE   Bn2
 BYTE   N23  Bn3
 BYTE   W24
//  #01 //038   ----------------------------------------
Label_010035E4:
 BYTE   N15  Cs3  v092
 BYTE   N15  Cs4
 BYTE   W16
 BYTE   N11  Gs2  v087
 BYTE   N11  Gs3
 BYTE   W16
 BYTE   Cs2
 BYTE   N11  Cs3
 BYTE   W16
 BYTE   N88  Cs2  v087  gtp1
 BYTE   N88  Cs3
 BYTE   W48
 BYTE   PEND 
//  #01 //039   ----------------------------------------
Label_010035FC:
 BYTE   W48
 BYTE   N23  Gs2  v087
 BYTE   N23  Gs3
 BYTE   W24
 BYTE   As2
 BYTE   N23  As3
 BYTE   W24
 BYTE   PEND 
//  #01 //040   ----------------------------------------
 BYTE   N32  Bn2  v087  gtp3
 BYTE   N32  Bn3
 BYTE   W36
 BYTE   N05  As2
 BYTE   N05  As3
 BYTE   W06
 BYTE   Gs2
 BYTE   N05  Gs3
 BYTE   W06
 BYTE   N88  As2  v087  gtp1
 BYTE   N88  As3
 BYTE   W48
//  #01 //041   ----------------------------------------
 BYTE   W48
 BYTE   N23  Cs3
 BYTE   N23  Cs4
 BYTE   W24
 BYTE   N20  Ds3
 BYTE   N20  Ds4
 BYTE   W24
//  #01 //042   ----------------------------------------
 BYTE   PATT
  POIN2 Label_010035A2
//  #01 //043   ----------------------------------------
 BYTE   N23  As2  v087
 BYTE   N23  As3
 BYTE   W24
 BYTE   Ds3
 BYTE   N23  Ds4
 BYTE   W24
 BYTE   En3
 BYTE   N23  En4
 BYTE   W24
 BYTE   Bn2
 BYTE   N23  Bn3
 BYTE   W24
//  #01 //044   ----------------------------------------
 BYTE   PATT
  POIN2 Label_010035C2
//  #01 //045   ----------------------------------------
 BYTE   W48
 BYTE   N11  As2  v087
 BYTE   N11  As3
 BYTE   W18
 BYTE   Bn2
 BYTE   N11  Bn3
 BYTE   W18
 BYTE   N08  Cs3
 BYTE   N08  Cs4
 BYTE   W12
//  #01 //046   ----------------------------------------
 BYTE   PATT
  POIN2 Label_010035E4
//  #01 //047   ----------------------------------------
 BYTE   PATT
  POIN2 Label_010035FC
//  #01 //048   ----------------------------------------
 BYTE   N32  Bn2  v087  gtp3
 BYTE   N32  Bn3
 BYTE   W36
 BYTE   N05  As2
 BYTE   N05  As3
 BYTE   W06
 BYTE   Gs2
 BYTE   N05  Gs3
 BYTE   W06
 BYTE   N44  As2  v087  gtp3
 BYTE   N44  As3
 BYTE   W48
//  #01 //049   ----------------------------------------
 BYTE   N32  Ds3  v087  gtp3
 BYTE   N32  Ds4
 BYTE   W36
 BYTE   N05  Cs3
 BYTE   N05  Cs4
 BYTE   W06
 BYTE   Bn2
 BYTE   N05  Bn3
 BYTE   W06
 BYTE   N23  Cs3  v092
 BYTE   N23  Cs4
 BYTE   W24
 BYTE   N20  Ds3  v102
 BYTE   N20  Ds4
 BYTE   W24
//  #01 //050   ----------------------------------------
 BYTE   PATT
  POIN2 Label_01003458
//  #01 //051   ----------------------------------------
Label_01003698:
 BYTE   N05  Ds3  v077
 BYTE   N05  Ds4
 BYTE   W12
 BYTE   Gs2
 BYTE   N05  Gs3
 BYTE   W12
 BYTE   As2
 BYTE   N05  As3
 BYTE   W12
 BYTE   Bn2
 BYTE   N05  Bn3
 BYTE   W12
 BYTE   Cs3
 BYTE   N05  Cs4
 BYTE   W12
 BYTE   Fs2
 BYTE   N05  Fs3
 BYTE   W12
 BYTE   Gs2
 BYTE   N05  Gs3
 BYTE   W12
 BYTE   As2
 BYTE   N05  As3
 BYTE   W12
 BYTE   PEND 
//  #01 //052   ----------------------------------------
 BYTE   PATT
  POIN2 Label_01003498
//  #01 //053   ----------------------------------------
 BYTE   PATT
  POIN2 Label_010034B8
//  #01 //054   ----------------------------------------
 BYTE   PATT
  POIN2 Label_01003458
//  #01 //055   ----------------------------------------
 BYTE   PATT
  POIN2 Label_01003698
//  #01 //056   ----------------------------------------
 BYTE   PATT
  POIN2 Label_01003498
//  #01 //057   ----------------------------------------
 BYTE   PATT
  POIN2 Label_010034B8
//  #01 //058   ----------------------------------------
 BYTE   PATT
  POIN2 Label_010033E0
//  #01 //059   ----------------------------------------
 BYTE   W96
//  #01 //060   ----------------------------------------
 BYTE   GoTo
  POIN2 Label_010033ED
 BYTE   FINE

//**************** Track 2 (Midi-Chn.1) ****************//

MLBowsersInsideStoryTheGrandFinaleFE8MeteorSR23_002:
//  #02 //000   ----------------------------------------
 BYTE   KEYSH   MLBowsersInsideStoryTheGrandFinaleFE8MeteorSR23_key+0
 BYTE   VOICE   1
 BYTE   N44  Gs1  v073  gtp3
 BYTE   N44  Gs2
 BYTE   VOL   62*MLBowsersInsideStoryTheGrandFinaleFE8MeteorSR23_mvl/mxv
 BYTE   W48
 BYTE   N44  Gs0  v073  gtp3
 BYTE   N44  Gs1
 BYTE   W48
//  #02 //001   ----------------------------------------
Label_01003D24:
 BYTE   N44  Fs1  v073  gtp3
 BYTE   N44  Fs2
 BYTE   W48
 BYTE   Fs0
 BYTE   N44  Fs1  v073  gtp3
 BYTE   W48
 BYTE   PEND 
//  #02 //002   ----------------------------------------
 BYTE   N48  En1
 BYTE   N23  En2
 BYTE   W24
 BYTE   N11  Gs0
 BYTE   W12
 BYTE   Bn0
 BYTE   W12
 BYTE   En1
 BYTE   W12
 BYTE   Gs1
 BYTE   W12
 BYTE   Bn1
 BYTE   W12
 BYTE   En2
 BYTE   W12
//  #02 //003   ----------------------------------------
 BYTE   N44  En1  v073  gtp3
 BYTE   N11  Gs2
 BYTE   W12
 BYTE   En2
 BYTE   W12
 BYTE   Bn2
 BYTE   W12
 BYTE   Gs2
 BYTE   W12
 BYTE   N32  Fs1  v083  gtp3
 BYTE   N44  Fs2  v073  gtp3
 BYTE   W36
 BYTE   N11  Fs0  v088
 BYTE   W12
//  #02 //004   ----------------------------------------
Label_01003D5E:
 BYTE   N92  Gs0  v078  gtp3
 BYTE   W08
 BYTE   N07  Ds1  v073
 BYTE   W08
 BYTE   Gs1
 BYTE   W08
 BYTE   Bn1
 BYTE   W08
 BYTE   Ds2
 BYTE   W08
 BYTE   Gs2
 BYTE   W08
 BYTE   Bn2
 BYTE   W08
 BYTE   Gs2
 BYTE   W08
 BYTE   Ds2
 BYTE   W08
 BYTE   Bn1
 BYTE   W08
 BYTE   Gs1
 BYTE   W08
 BYTE   Ds1
 BYTE   W08
 BYTE   PEND 
//  #02 //005   ----------------------------------------
Label_01003D7C:
 BYTE   N68  Gs0  v078  gtp3
 BYTE   W08
 BYTE   N07  Ds1  v073
 BYTE   W08
 BYTE   Gs1
 BYTE   W08
 BYTE   Bn1
 BYTE   W08
 BYTE   Ds2
 BYTE   W08
 BYTE   Gs2
 BYTE   W08
 BYTE   Bn2
 BYTE   W08
 BYTE   Gs2
 BYTE   W08
 BYTE   Ds2
 BYTE   W08
 BYTE   Bn1
 BYTE   W08
 BYTE   Gs1
 BYTE   W08
 BYTE   Ds1
 BYTE   W08
 BYTE   PEND 
//  #02 //006   ----------------------------------------
Label_01003D9A:
 BYTE   N92  Gs0  v078  gtp3
 BYTE   W08
 BYTE   N07  Ds1  v073
 BYTE   W08
 BYTE   Gs1
 BYTE   W08
 BYTE   Bn1
 BYTE   W08
 BYTE   Ds2
 BYTE   W08
 BYTE   Gs2
 BYTE   W08
 BYTE   Bn2
 BYTE   W08
 BYTE   Gs2
 BYTE   W08
 BYTE   Ds2
 BYTE   W08
 BYTE   Bn1
 BYTE   W08
 BYTE   Gs1
 BYTE   W08
 BYTE   Ds1
 BYTE   W08
//  #02 //007   ----------------------------------------
Label_01003DB7:
 BYTE   N92  Fs0  v078  gtp3
 BYTE   W08
 BYTE   N07  Ds1  v073
 BYTE   W08
 BYTE   Fs1
 BYTE   W08
 BYTE   As1
 BYTE   W08
 BYTE   Ds2
 BYTE   W08
 BYTE   Fs2
 BYTE   W08
 BYTE   As2
 BYTE   W08
 BYTE   Fs2
 BYTE   W08
 BYTE   Ds2
 BYTE   W08
 BYTE   As1
 BYTE   W08
 BYTE   Fs1
 BYTE   W08
 BYTE   Ds1
 BYTE   W08
 BYTE   PEND 
//  #02 //008   ----------------------------------------
Label_01003DD5:
 BYTE   N92  En0  v078  gtp3
 BYTE   W08
 BYTE   N07  Bn0  v073
 BYTE   W08
 BYTE   En1
 BYTE   W08
 BYTE   Gs1
 BYTE   W08
 BYTE   Bn1
 BYTE   W08
 BYTE   En2
 BYTE   W08
 BYTE   Gs2
 BYTE   W08
 BYTE   En2
 BYTE   W08
 BYTE   Bn1
 BYTE   W08
 BYTE   Gs1
 BYTE   W08
 BYTE   En1
 BYTE   W08
 BYTE   Bn0
 BYTE   W08
 BYTE   PEND 
//  #02 //009   ----------------------------------------
Label_01003DF3:
 BYTE   N92  Ds1  v078  gtp3
 BYTE   W08
 BYTE   N07  As1  v073
 BYTE   W08
 BYTE   Ds2
 BYTE   W08
 BYTE   Gn2
 BYTE   W08
 BYTE   As2
 BYTE   W08
 BYTE   Ds3
 BYTE   W08
 BYTE   N05  Gn3
 BYTE   W06
 BYTE   Ds3
 BYTE   W06
 BYTE   As2
 BYTE   W06
 BYTE   Gn2
 BYTE   W06
 BYTE   Ds3
 BYTE   W06
 BYTE   As2
 BYTE   W06
 BYTE   Gn2
 BYTE   W06
 BYTE   Ds2
 BYTE   W06
 BYTE   PEND 
//  #02 //010   ----------------------------------------
Label_01003E16:
 BYTE   N92  En0  v078  gtp3
 BYTE   W06
 BYTE   N05  Bn0  v073
 BYTE   W06
 BYTE   En1
 BYTE   W06
 BYTE   Gs1
 BYTE   W06
 BYTE   Bn1
 BYTE   W06
 BYTE   En2
 BYTE   W06
 BYTE   Gs2
 BYTE   W06
 BYTE   Bn2
 BYTE   W06
 BYTE   En3
 BYTE   W06
 BYTE   Bn2
 BYTE   W06
 BYTE   Gs2
 BYTE   W06
 BYTE   En2
 BYTE   W06
 BYTE   Bn1
 BYTE   W06
 BYTE   Gs1
 BYTE   W06
 BYTE   En1
 BYTE   W06
 BYTE   Bn0
 BYTE   W06
 BYTE   PEND 
//  #02 //011   ----------------------------------------
Label_01003E3C:
 BYTE   N92  En0  v078  gtp3
 BYTE   W06
 BYTE   N05  Bn0  v073
 BYTE   W06
 BYTE   Gs1
 BYTE   W06
 BYTE   Bn1
 BYTE   W06
 BYTE   En2
 BYTE   W06
 BYTE   Gs2
 BYTE   W06
 BYTE   Bn2
 BYTE   W06
 BYTE   En3
 BYTE   W06
 BYTE   Gs3
 BYTE   W06
 BYTE   En3
 BYTE   W06
 BYTE   Bn2
 BYTE   W06
 BYTE   Gs2
 BYTE   W06
 BYTE   En2
 BYTE   W06
 BYTE   Bn1
 BYTE   W06
 BYTE   Gs1
 BYTE   W06
 BYTE   En1
 BYTE   W06
 BYTE   PEND 
//  #02 //012   ----------------------------------------
Label_01003E62:
 BYTE   N92  Fs0  v078  gtp3
 BYTE   W06
 BYTE   N05  Cs1  v073
 BYTE   W06
 BYTE   Fs1
 BYTE   W06
 BYTE   As1
 BYTE   W06
 BYTE   Cs2
 BYTE   W06
 BYTE   Fs2
 BYTE   W06
 BYTE   As2
 BYTE   W06
 BYTE   Cs3
 BYTE   W06
 BYTE   Fs3
 BYTE   W06
 BYTE   Cs3
 BYTE   W06
 BYTE   As2
 BYTE   W06
 BYTE   Fs2
 BYTE   W06
 BYTE   Cs2
 BYTE   W06
 BYTE   As1
 BYTE   W06
 BYTE   Fs1
 BYTE   W06
 BYTE   Cs1
 BYTE   W06
 BYTE   PEND 
//  #02 //013   ----------------------------------------
 BYTE   N92  Gn0  v078  gtp3
 BYTE   W06
 BYTE   N05  As0  v073
 BYTE   W06
 BYTE   Ds1
 BYTE   W06
 BYTE   Gn1
 BYTE   W06
 BYTE   As1
 BYTE   W06
 BYTE   Ds2
 BYTE   W06
 BYTE   Gn2
 BYTE   W06
 BYTE   As2
 BYTE   W06
 BYTE   N03  Ds3  v078
 BYTE   W04
 BYTE   As2  v073
 BYTE   W04
 BYTE   Gn2
 BYTE   W04
 BYTE   Ds2
 BYTE   W04
 BYTE   As1
 BYTE   W04
 BYTE   Gn1
 BYTE   W04
 BYTE   As2
 BYTE   W04
 BYTE   Gn2
 BYTE   W04
 BYTE   Ds2
 BYTE   W04
 BYTE   As1
 BYTE   W04
 BYTE   Gn1
 BYTE   W04
 BYTE   N02  Ds1
 BYTE   W04
//  #02 //014   ----------------------------------------
Label_01003EB9:
 BYTE   N17  Gs0  v083
 BYTE   N17  Gs1
 BYTE   W96
 BYTE   PEND 
//  #02 //015   ----------------------------------------
 BYTE   W96
//  #02 //016   ----------------------------------------
 BYTE   PATT
  POIN2 Label_01003EB9
//  #02 //017   ----------------------------------------
 BYTE   W96
//  #02 //018   ----------------------------------------
 BYTE   PATT
  POIN2 Label_01003D5E
//  #02 //019   ----------------------------------------
 BYTE   PATT
  POIN2 Label_01003DB7
//  #02 //020   ----------------------------------------
 BYTE   PATT
  POIN2 Label_01003DD5
//  #02 //021   ----------------------------------------
 BYTE   PATT
  POIN2 Label_01003DF3
//  #02 //022   ----------------------------------------
 BYTE   PATT
  POIN2 Label_01003E16
//  #02 //023   ----------------------------------------
 BYTE   PATT
  POIN2 Label_01003E3C
//  #02 //024   ----------------------------------------
 BYTE   PATT
  POIN2 Label_01003E62
//  #02 //025   ----------------------------------------
 BYTE   N44  Gn0  v078  gtp3
 BYTE   W06
 BYTE   N05  As0  v073
 BYTE   W06
 BYTE   Ds1
 BYTE   W06
 BYTE   Gn1
 BYTE   W06
 BYTE   As1
 BYTE   W06
 BYTE   Ds2
 BYTE   W06
 BYTE   Gn2
 BYTE   W06
 BYTE   As2
 BYTE   W06
 BYTE   N03  Ds3  v070
 BYTE   W04
 BYTE   As2  v068
 BYTE   W04
 BYTE   Gn2
 BYTE   W04
 BYTE   Ds2
 BYTE   W04
 BYTE   As1
 BYTE   W04
 BYTE   Gn1
 BYTE   W04
 BYTE   As2
 BYTE   W04
 BYTE   Gn2
 BYTE   W04
 BYTE   Ds2
 BYTE   W04
 BYTE   As1
 BYTE   W04
 BYTE   Gn1
 BYTE   W04
 BYTE   N02  Ds1
 BYTE   W04
//  #02 //026   ----------------------------------------
 BYTE   W96
//  #02 //027   ----------------------------------------
 BYTE   W96
//  #02 //028   ----------------------------------------
 BYTE   W96
//  #02 //029   ----------------------------------------
 BYTE   W96
//  #02 //030   ----------------------------------------
 BYTE   W96
//  #02 //031   ----------------------------------------
 BYTE   W96
//  #02 //032   ----------------------------------------
 BYTE   W96
//  #02 //033   ----------------------------------------
 BYTE   W48
 BYTE   N44  Ds0  v083  gtp3
 BYTE   W06
 BYTE   N05  As0  v078
 BYTE   W06
 BYTE   Ds1
 BYTE   W06
 BYTE   Gn1
 BYTE   W06
 BYTE   As1
 BYTE   W06
 BYTE   Ds2  v083
 BYTE   W06
 BYTE   Gn2  v088
 BYTE   W06
 BYTE   As2  v093
 BYTE   W06
//  #02 //034   ----------------------------------------
 BYTE   N92  Gs0  v093  gtp3
 BYTE   W06
 BYTE   N05  Ds1  v073
 BYTE   W06
 BYTE   Gs1
 BYTE   W06
 BYTE   Bn1
 BYTE   W06
 BYTE   Ds2
 BYTE   W06
 BYTE   Gs2
 BYTE   W06
 BYTE   Bn2
 BYTE   W06
 BYTE   Ds3
 BYTE   W06
 BYTE   Gs3
 BYTE   W06
 BYTE   Ds3
 BYTE   W06
 BYTE   Bn2
 BYTE   W06
 BYTE   Gs2
 BYTE   W06
 BYTE   Ds2
 BYTE   W06
 BYTE   Bn1
 BYTE   W06
 BYTE   Gs1
 BYTE   W06
 BYTE   Ds1
 BYTE   W06
//  #02 //035   ----------------------------------------
Label_01003F60:
 BYTE   N92  Fs0  v078  gtp3
 BYTE   W06
 BYTE   N05  Ds1  v073
 BYTE   W06
 BYTE   Fs1
 BYTE   W06
 BYTE   As1
 BYTE   W06
 BYTE   Ds2
 BYTE   W06
 BYTE   Fs2
 BYTE   W06
 BYTE   As2
 BYTE   W06
 BYTE   Ds3
 BYTE   W06
 BYTE   Fs3
 BYTE   W06
 BYTE   Ds3
 BYTE   W06
 BYTE   As2
 BYTE   W06
 BYTE   Fs2
 BYTE   W06
 BYTE   Ds2
 BYTE   W06
 BYTE   As1
 BYTE   W06
 BYTE   Fs1
 BYTE   W06
 BYTE   Ds1
 BYTE   W06
 BYTE   PEND 
//  #02 //036   ----------------------------------------
Label_01003F86:
 BYTE   N92  Fn0  v078  gtp3
 BYTE   W06
 BYTE   N05  Bn0  v073
 BYTE   W06
 BYTE   Fn1
 BYTE   W06
 BYTE   Gs1
 BYTE   W06
 BYTE   Bn1
 BYTE   W06
 BYTE   Fn2
 BYTE   W06
 BYTE   Gs2
 BYTE   W06
 BYTE   Bn2
 BYTE   W06
 BYTE   Fn3
 BYTE   W06
 BYTE   Bn2
 BYTE   W06
 BYTE   Gs2
 BYTE   W06
 BYTE   Gs2
 BYTE   W06
 BYTE   Bn1
 BYTE   W06
 BYTE   Gs1
 BYTE   W06
 BYTE   Fn1
 BYTE   W06
 BYTE   Bn0
 BYTE   W06
 BYTE   PEND 
//  #02 //037   ----------------------------------------
 BYTE   N44  En0  v078  gtp3
 BYTE   W06
 BYTE   N05  Bn0  v073
 BYTE   W06
 BYTE   En1
 BYTE   W06
 BYTE   Gs1
 BYTE   W06
 BYTE   Bn1
 BYTE   W06
 BYTE   En2
 BYTE   W06
 BYTE   Gs2
 BYTE   W06
 BYTE   En2
 BYTE   W06
 BYTE   N44  Fs0  v078  gtp3
 BYTE   W06
 BYTE   N05  Cs1  v073
 BYTE   W06
 BYTE   Fs1
 BYTE   W06
 BYTE   As1
 BYTE   W06
 BYTE   Cs2
 BYTE   W06
 BYTE   Fs2
 BYTE   W06
 BYTE   As2
 BYTE   W06
 BYTE   Fs2
 BYTE   W06
//  #02 //038   ----------------------------------------
Label_01003FD6:
 BYTE   N92  Fn0  v078  gtp3
 BYTE   W06
 BYTE   N05  Cs1  v073
 BYTE   W06
 BYTE   Fn1
 BYTE   W06
 BYTE   Gs1
 BYTE   W06
 BYTE   Cs2
 BYTE   W06
 BYTE   Fn2
 BYTE   W06
 BYTE   Gs2
 BYTE   W06
 BYTE   Cs3
 BYTE   W06
 BYTE   Fn3
 BYTE   W06
 BYTE   Cs3
 BYTE   W06
 BYTE   Gs2
 BYTE   W06
 BYTE   Fn2
 BYTE   W06
 BYTE   Cs2
 BYTE   W06
 BYTE   Gs1
 BYTE   W06
 BYTE   Fn1
 BYTE   W06
 BYTE   Cs1
 BYTE   W06
 BYTE   PEND 
//  #02 //039   ----------------------------------------
 BYTE   PATT
  POIN2 Label_01003FD6
//  #02 //040   ----------------------------------------
 BYTE   PATT
  POIN2 Label_01003E62
//  #02 //041   ----------------------------------------
 BYTE   N44  Gn0  v078  gtp3
 BYTE   W06
 BYTE   N05  Ds1  v073
 BYTE   W06
 BYTE   Gn1
 BYTE   W06
 BYTE   As1
 BYTE   W06
 BYTE   Ds2
 BYTE   W06
 BYTE   Gn2
 BYTE   W06
 BYTE   As2
 BYTE   W06
 BYTE   Gn2
 BYTE   W06
 BYTE   N44  Ds1  v078  gtp3
 BYTE   W06
 BYTE   N05  As1  v073
 BYTE   W06
 BYTE   Ds2
 BYTE   W06
 BYTE   Gn2
 BYTE   W06
 BYTE   As2
 BYTE   W06
 BYTE   Ds3
 BYTE   W06
 BYTE   Gn3
 BYTE   W06
 BYTE   Ds3
 BYTE   W06
//  #02 //042   ----------------------------------------
 BYTE   N92  Gs0  v078  gtp3
 BYTE   W06
 BYTE   N05  Ds1  v073
 BYTE   W06
 BYTE   Gs1
 BYTE   W06
 BYTE   Bn1
 BYTE   W06
 BYTE   Ds2
 BYTE   W06
 BYTE   Gs2
 BYTE   W06
 BYTE   Bn2
 BYTE   W06
 BYTE   Ds3
 BYTE   W06
 BYTE   Gs3
 BYTE   W06
 BYTE   Ds3
 BYTE   W06
 BYTE   Bn2
 BYTE   W06
 BYTE   Gs2
 BYTE   W06
 BYTE   Ds2
 BYTE   W06
 BYTE   Bn1
 BYTE   W06
 BYTE   Gs1
 BYTE   W06
 BYTE   Ds1
 BYTE   W06
//  #02 //043   ----------------------------------------
 BYTE   PATT
  POIN2 Label_01003F60
//  #02 //044   ----------------------------------------
 BYTE   PATT
  POIN2 Label_01003F86
//  #02 //045   ----------------------------------------
 BYTE   N44  En0  v078  gtp3
 BYTE   W06
 BYTE   N05  Bn0  v073
 BYTE   W06
 BYTE   En1
 BYTE   W06
 BYTE   Gs1
 BYTE   W06
 BYTE   Bn1
 BYTE   W06
 BYTE   En2
 BYTE   W06
 BYTE   Gs2
 BYTE   W06
 BYTE   En2
 BYTE   W06
 BYTE   N23  Fs0  v078
 BYTE   W06
 BYTE   N05  Cs1  v073
 BYTE   W06
 BYTE   Fs1
 BYTE   W06
 BYTE   As1
 BYTE   W06
 BYTE   N23  Cs2  v078
 BYTE   W06
 BYTE   N05  Fs2  v073
 BYTE   W06
 BYTE   As2  v075
 BYTE   W06
 BYTE   Cs3  v077
 BYTE   W06
//  #02 //046   ----------------------------------------
 BYTE   PATT
  POIN2 Label_01003FD6
//  #02 //047   ----------------------------------------
 BYTE   PATT
  POIN2 Label_01003FD6
//  #02 //048   ----------------------------------------
 BYTE   PATT
  POIN2 Label_01003E62
//  #02 //049   ----------------------------------------
 BYTE   N44  Gn0  v078  gtp3
 BYTE   W06
 BYTE   N05  Ds1  v073
 BYTE   W06
 BYTE   Gn1
 BYTE   W06
 BYTE   As1
 BYTE   W06
 BYTE   Ds2
 BYTE   W06
 BYTE   Gn2
 BYTE   W06
 BYTE   As2
 BYTE   W06
 BYTE   Gn2
 BYTE   W06
 BYTE   N28  Ds1  v078  gtp1
 BYTE   W06
 BYTE   N05  As1  v073
 BYTE   W06
 BYTE   Ds2
 BYTE   W06
 BYTE   Gn2  v075
 BYTE   W06
 BYTE   As2  v077
 BYTE   W06
 BYTE   Ds3  v079
 BYTE   W06
 BYTE   Gn3  v081
 BYTE   W06
 BYTE   Ds3  v079
 BYTE   W06
//  #02 //050   ----------------------------------------
 BYTE   N44  Gs1  v083  gtp3
 BYTE   N44  Gs2  v078
 BYTE   W48
 BYTE   Gs0  v073
 BYTE   N44  Gs1  v073  gtp3
 BYTE   W48
//  #02 //051   ----------------------------------------
 BYTE   PATT
  POIN2 Label_01003D24
//  #02 //052   ----------------------------------------
Label_010040E0:
 BYTE   N48  En1  v073
 BYTE   N23  En2
 BYTE   W24
 BYTE   N11  Gs0
 BYTE   W12
 BYTE   Bn0
 BYTE   W12
 BYTE   En1
 BYTE   W12
 BYTE   Gs1
 BYTE   W12
 BYTE   Bn1
 BYTE   W12
 BYTE   Gs1
 BYTE   W12
 BYTE   PEND 
//  #02 //053   ----------------------------------------
 BYTE   N44  En1  v073  gtp3
 BYTE   N11  Gs2
 BYTE   W12
 BYTE   N23  En2
 BYTE   W24
 BYTE   N11  Gs2
 BYTE   W12
 BYTE   N44  Ds1  v073  gtp3
 BYTE   N44  Ds2
 BYTE   W48
//  #02 //054   ----------------------------------------
 BYTE   Gs1
 BYTE   N44  Gs2  v073  gtp3
 BYTE   W48
 BYTE   N44  Gs0
 BYTE   N44  Gs1  v073  gtp3
 BYTE   W48
//  #02 //055   ----------------------------------------
 BYTE   PATT
  POIN2 Label_01003D24
//  #02 //056   ----------------------------------------
 BYTE   PATT
  POIN2 Label_010040E0
//  #02 //057   ----------------------------------------
 BYTE   N44  En1  v073  gtp3
 BYTE   N11  Gs2
 BYTE   W12
 BYTE   N23  En2
 BYTE   W24
 BYTE   N11  Gs2
 BYTE   W12
 BYTE   N44  Ds0  v083  gtp3
 BYTE   W06
 BYTE   N05  As0  v078
 BYTE   W06
 BYTE   Ds1
 BYTE   W06
 BYTE   Gn1
 BYTE   W06
 BYTE   As1
 BYTE   W06
 BYTE   Ds2  v083
 BYTE   W06
 BYTE   Gn2  v088
 BYTE   W06
 BYTE   As2  v083
 BYTE   W06
//  #02 //058   ----------------------------------------
 BYTE   N92  Gs0  v083  gtp3
 BYTE   W08
 BYTE   N07  Ds1  v073
 BYTE   W08
 BYTE   Gs1
 BYTE   W08
 BYTE   Bn1
 BYTE   W08
 BYTE   Ds2
 BYTE   W08
 BYTE   Gs2
 BYTE   W08
 BYTE   Bn2
 BYTE   W08
 BYTE   Gs2
 BYTE   W08
 BYTE   Ds2
 BYTE   W08
 BYTE   Bn1
 BYTE   W08
 BYTE   Gs1
 BYTE   W08
 BYTE   Ds1
 BYTE   W08
//  #02 //059   ----------------------------------------
 BYTE   PATT
  POIN2 Label_01003D7C
//  #02 //060   ----------------------------------------
 BYTE   GoTo
  POIN2 Label_01003D9A
 BYTE   FINE

//**************** Track 3 (Midi-Chn.2) ****************//

MLBowsersInsideStoryTheGrandFinaleFE8MeteorSR23_003:
//  #03 //000   ----------------------------------------
 BYTE   KEYSH   MLBowsersInsideStoryTheGrandFinaleFE8MeteorSR23_key+0
 BYTE   VOICE   48
 BYTE   PAN   c_v-14
 BYTE   VOL   63*MLBowsersInsideStoryTheGrandFinaleFE8MeteorSR23_mvl/mxv
 BYTE   W96
//  #03 //001   ----------------------------------------
 BYTE   W96
//  #03 //002   ----------------------------------------
 BYTE   W96
//  #03 //003   ----------------------------------------
 BYTE   W96
//  #03 //004   ----------------------------------------
 BYTE   TIE  Ds1  v074
 BYTE   W96
//  #03 //005   ----------------------------------------
Label_01002AE8:
 BYTE   W68
 BYTE   W03
 BYTE   EOT
 BYTE   Ds1
 BYTE   W01
 BYTE   N03  En2  v100
 BYTE   W04
 BYTE   Fs2  v090
 BYTE   W04
 BYTE   Gs2
 BYTE   W04
 BYTE   As2
 BYTE   W04
 BYTE   Bn2
 BYTE   W04
 BYTE   Cs3
 BYTE   W04
 BYTE   PEND 
//  #03 //006   ----------------------------------------
Label_01002AFD:
 BYTE   N68  Ds3  v079  gtp3
 BYTE   W72
 BYTE   N23  Gs3  v074
 BYTE   W24
//  #03 //007   ----------------------------------------
Label_01002B06:
 BYTE   N44  Cs4  v074  gtp3
 BYTE   W48
 BYTE   N44  Bn3
 BYTE   W48
 BYTE   PEND 
//  #03 //008   ----------------------------------------
Label_01002B0F:
 BYTE   N68  As3  v074  gtp3
 BYTE   W72
 BYTE   N23  Ds3
 BYTE   W24
 BYTE   PEND 
//  #03 //009   ----------------------------------------
 BYTE   N40  As3  v074  gtp1
 BYTE   W48
 BYTE   N23
 BYTE   W24
 BYTE   Bn3
 BYTE   W24
//  #03 //010   ----------------------------------------
 BYTE   N68  As3  v074  gtp3
 BYTE   W72
 BYTE   N23  Gs3
 BYTE   W24
//  #03 //011   ----------------------------------------
 BYTE   N68  Cs4  v074  gtp3
 BYTE   W72
 BYTE   N23  Bn3
 BYTE   W24
//  #03 //012   ----------------------------------------
 BYTE   N80  As3
 BYTE   W84
 BYTE   N05
 BYTE   W06
 BYTE   Bn3
 BYTE   W06
//  #03 //013   ----------------------------------------
 BYTE   N44  Cs4  v074  gtp3
 BYTE   W48
 BYTE   N44  Ds4
 BYTE   W48
//  #03 //014   ----------------------------------------
 BYTE   W96
//  #03 //015   ----------------------------------------
 BYTE   W96
//  #03 //016   ----------------------------------------
 BYTE   W96
//  #03 //017   ----------------------------------------
 BYTE   W96
//  #03 //018   ----------------------------------------
 BYTE   N68  Ds3  v074  gtp3
 BYTE   W72
 BYTE   N23  Gs3
 BYTE   W24
//  #03 //019   ----------------------------------------
 BYTE   PATT
  POIN2 Label_01002B06
//  #03 //020   ----------------------------------------
 BYTE   PATT
  POIN2 Label_01002B0F
//  #03 //021   ----------------------------------------
 BYTE   N44  As3  v074
 BYTE   W48
 BYTE   N23
 BYTE   W24
 BYTE   Bn3
 BYTE   W24
//  #03 //022   ----------------------------------------
 BYTE   N07  Cs4
 BYTE   W08
 BYTE   Bn3
 BYTE   W08
 BYTE   As3
 BYTE   W08
 BYTE   TIE  Bn3
 BYTE   W72
//  #03 //023   ----------------------------------------
 BYTE   W44
 BYTE   W03
 BYTE   EOT
 BYTE   W01
 BYTE   N23
 BYTE   W24
 BYTE   Cs4
 BYTE   W24
//  #03 //024   ----------------------------------------
 BYTE   N68  Cs4  v074  gtp3
 BYTE   W72
 BYTE   N23  As3
 BYTE   W24
//  #03 //025   ----------------------------------------
 BYTE   N44  Cs4
 BYTE   W48
 BYTE   N07  Ds3  v089
 BYTE   W08
 BYTE   Gn3
 BYTE   W08
 BYTE   Gs3
 BYTE   W08
 BYTE   As3
 BYTE   W08
 BYTE   Bn3
 BYTE   W08
 BYTE   Cs4
 BYTE   W08
//  #03 //026   ----------------------------------------
 BYTE   N32  Ds4  v082  gtp3
 BYTE   W36
 BYTE   N05  Gs3
 BYTE   W12
 BYTE   N68  Gs3  v082  gtp3
 BYTE   W48
//  #03 //027   ----------------------------------------
 BYTE   W24
 BYTE   N23  Cs4
 BYTE   W24
 BYTE   Bn3
 BYTE   W24
 BYTE   As3
 BYTE   W24
//  #03 //028   ----------------------------------------
 BYTE   N32  As3  v082  gtp3
 BYTE   W36
 BYTE   N05  Gs3
 BYTE   W06
 BYTE   As3
 BYTE   W06
 BYTE   N88  Bn3  v082  gtp1
 BYTE   W48
//  #03 //029   ----------------------------------------
 BYTE   W48
 BYTE   N23  Cs4
 BYTE   W24
 BYTE   Ds4
 BYTE   W24
//  #03 //030   ----------------------------------------
 BYTE   N32  Cs4  v082  gtp3
 BYTE   W36
 BYTE   N05  Fs3
 BYTE   W12
 BYTE   N44  Fs3  v082  gtp3
 BYTE   W48
//  #03 //031   ----------------------------------------
 BYTE   N23  Gn3  v072
 BYTE   W24
 BYTE   En4  v082
 BYTE   W24
 BYTE   Ds4
 BYTE   W24
 BYTE   Cs4
 BYTE   W24
//  #03 //032   ----------------------------------------
 BYTE   N32  Cs4  v082  gtp3
 BYTE   W36
 BYTE   N05  Bn3
 BYTE   W06
 BYTE   Cs4
 BYTE   W06
 BYTE   N92  Ds4  v082  gtp3
 BYTE   W48
//  #03 //033   ----------------------------------------
 BYTE   W48
 BYTE   N23  Cs4
 BYTE   W24
 BYTE   N20  Ds4
 BYTE   W24
//  #03 //034   ----------------------------------------
Label_01002BE1:
 BYTE   W24
 BYTE   N23  Ds4  v079
 BYTE   W24
 BYTE   Cs4
 BYTE   W24
 BYTE   Bn3
 BYTE   W24
 BYTE   PEND 
//  #03 //035   ----------------------------------------
 BYTE   As3
 BYTE   W24
 BYTE   Ds4
 BYTE   W24
 BYTE   Cs4
 BYTE   W24
 BYTE   Bn3
 BYTE   W24
//  #03 //036   ----------------------------------------
Label_01002BF3:
 BYTE   N32  As3  v079  gtp3
 BYTE   W36
 BYTE   N05  Gs3
 BYTE   W06
 BYTE   As3
 BYTE   W06
 BYTE   N92  Bn3  v079  gtp3
 BYTE   W48
 BYTE   PEND 
//  #03 //037   ----------------------------------------
 BYTE   W48
 BYTE   N23  As3
 BYTE   W24
 BYTE   Bn3
 BYTE   W24
//  #03 //038   ----------------------------------------
 BYTE   N15  Cs4  v084
 BYTE   W16
 BYTE   N11  Gs3  v079
 BYTE   W16
 BYTE   Cs3
 BYTE   W16
 BYTE   N88  Cs3  v079  gtp1
 BYTE   W48
//  #03 //039   ----------------------------------------
 BYTE   W48
 BYTE   N23  Gs3
 BYTE   W24
 BYTE   As3
 BYTE   W24
//  #03 //040   ----------------------------------------
 BYTE   N32  Bn3  v079  gtp3
 BYTE   W36
 BYTE   N05  As3
 BYTE   W06
 BYTE   Gs3
 BYTE   W06
 BYTE   N88  As3  v079  gtp1
 BYTE   W48
//  #03 //041   ----------------------------------------
 BYTE   W48
 BYTE   N23  Cs4
 BYTE   W24
 BYTE   N20  Ds4
 BYTE   W24
//  #03 //042   ----------------------------------------
 BYTE   PATT
  POIN2 Label_01002BE1
//  #03 //043   ----------------------------------------
 BYTE   N23  As3  v079
 BYTE   W24
 BYTE   Ds4
 BYTE   W24
 BYTE   En4
 BYTE   W24
 BYTE   Bn3
 BYTE   W24
//  #03 //044   ----------------------------------------
 BYTE   PATT
  POIN2 Label_01002BF3
//  #03 //045   ----------------------------------------
 BYTE   W48
 BYTE   N17  As3  v079
 BYTE   W18
 BYTE   Bn3
 BYTE   W18
 BYTE   N11  Cs4
 BYTE   W12
//  #03 //046   ----------------------------------------
 BYTE   N15  Cs4  v084
 BYTE   W16
 BYTE   N11  Gs3  v079
 BYTE   W16
 BYTE   Cs3
 BYTE   W16
 BYTE   N15  Cs4
 BYTE   W16
 BYTE   Gs3  v074
 BYTE   W16
 BYTE   Cs3  v079
 BYTE   W16
//  #03 //047   ----------------------------------------
 BYTE   N40  Cs3  v079  gtp1
 BYTE   W48
 BYTE   N23  Gs3
 BYTE   W24
 BYTE   As3
 BYTE   W24
//  #03 //048   ----------------------------------------
 BYTE   N32  Bn3  v079  gtp3
 BYTE   W36
 BYTE   N05  As3
 BYTE   W06
 BYTE   Gs3
 BYTE   W06
 BYTE   N44  As3  v079  gtp3
 BYTE   W48
//  #03 //049   ----------------------------------------
 BYTE   N32  Ds4  v079  gtp3
 BYTE   W36
 BYTE   N05  Cs4
 BYTE   W06
 BYTE   Bn3
 BYTE   W06
 BYTE   N20  Cs4
 BYTE   W24
 BYTE   N03  En3  v085
 BYTE   W04
 BYTE   Gn3
 BYTE   W04
 BYTE   Gs3
 BYTE   W04
 BYTE   As3
 BYTE   W04
 BYTE   Bn3
 BYTE   W04
 BYTE   Cs4
 BYTE   W04
//  #03 //050   ----------------------------------------
 BYTE   TIE  Ds4  v064
 BYTE   W24
 BYTE   VOL   62*MLBowsersInsideStoryTheGrandFinaleFE8MeteorSR23_mvl/mxv
 BYTE   W03
 BYTE   VOL   61*MLBowsersInsideStoryTheGrandFinaleFE8MeteorSR23_mvl/mxv
 BYTE   W01
 BYTE   VOL   60*MLBowsersInsideStoryTheGrandFinaleFE8MeteorSR23_mvl/mxv
 BYTE   W03
 BYTE   VOL   58*MLBowsersInsideStoryTheGrandFinaleFE8MeteorSR23_mvl/mxv
 BYTE   W03
 BYTE   VOL   57*MLBowsersInsideStoryTheGrandFinaleFE8MeteorSR23_mvl/mxv
 BYTE   W01
 BYTE   VOL   56*MLBowsersInsideStoryTheGrandFinaleFE8MeteorSR23_mvl/mxv
 BYTE   W03
 BYTE   VOL   55*MLBowsersInsideStoryTheGrandFinaleFE8MeteorSR23_mvl/mxv
 BYTE   W01
 BYTE   VOL   54*MLBowsersInsideStoryTheGrandFinaleFE8MeteorSR23_mvl/mxv
 BYTE   W02
 BYTE   VOL   53*MLBowsersInsideStoryTheGrandFinaleFE8MeteorSR23_mvl/mxv
 BYTE   W01
 BYTE   VOL   52*MLBowsersInsideStoryTheGrandFinaleFE8MeteorSR23_mvl/mxv
 BYTE   W03
 BYTE   VOL   51*MLBowsersInsideStoryTheGrandFinaleFE8MeteorSR23_mvl/mxv
 BYTE   W01
 BYTE   VOL   50*MLBowsersInsideStoryTheGrandFinaleFE8MeteorSR23_mvl/mxv
 BYTE   W03
 BYTE   VOL   48*MLBowsersInsideStoryTheGrandFinaleFE8MeteorSR23_mvl/mxv
 BYTE   W03
 BYTE   VOL   47*MLBowsersInsideStoryTheGrandFinaleFE8MeteorSR23_mvl/mxv
 BYTE   W01
 BYTE   VOL   46*MLBowsersInsideStoryTheGrandFinaleFE8MeteorSR23_mvl/mxv
 BYTE   W03
 BYTE   VOL   44*MLBowsersInsideStoryTheGrandFinaleFE8MeteorSR23_mvl/mxv
 BYTE   W03
 BYTE   VOL   43*MLBowsersInsideStoryTheGrandFinaleFE8MeteorSR23_mvl/mxv
 BYTE   W01
 BYTE   VOL   42*MLBowsersInsideStoryTheGrandFinaleFE8MeteorSR23_mvl/mxv
 BYTE   W03
 BYTE   VOL   41*MLBowsersInsideStoryTheGrandFinaleFE8MeteorSR23_mvl/mxv
 BYTE   W01
 BYTE   VOL   40*MLBowsersInsideStoryTheGrandFinaleFE8MeteorSR23_mvl/mxv
 BYTE   W02
 BYTE   VOL   39*MLBowsersInsideStoryTheGrandFinaleFE8MeteorSR23_mvl/mxv
 BYTE   W01
 BYTE   VOL   38*MLBowsersInsideStoryTheGrandFinaleFE8MeteorSR23_mvl/mxv
 BYTE   W03
 BYTE   VOL   37*MLBowsersInsideStoryTheGrandFinaleFE8MeteorSR23_mvl/mxv
 BYTE   W01
 BYTE   VOL   36*MLBowsersInsideStoryTheGrandFinaleFE8MeteorSR23_mvl/mxv
 BYTE   W03
 BYTE   VOL   34*MLBowsersInsideStoryTheGrandFinaleFE8MeteorSR23_mvl/mxv
 BYTE   W03
 BYTE   VOL   33*MLBowsersInsideStoryTheGrandFinaleFE8MeteorSR23_mvl/mxv
 BYTE   W01
 BYTE   VOL   32*MLBowsersInsideStoryTheGrandFinaleFE8MeteorSR23_mvl/mxv
 BYTE   W03
 BYTE   VOL   31*MLBowsersInsideStoryTheGrandFinaleFE8MeteorSR23_mvl/mxv
 BYTE   W01
 BYTE   VOL   30*MLBowsersInsideStoryTheGrandFinaleFE8MeteorSR23_mvl/mxv
 BYTE   W02
 BYTE   VOL   29*MLBowsersInsideStoryTheGrandFinaleFE8MeteorSR23_mvl/mxv
 BYTE   W01
 BYTE   VOL   28*MLBowsersInsideStoryTheGrandFinaleFE8MeteorSR23_mvl/mxv
 BYTE   W03
 BYTE   VOL   27*MLBowsersInsideStoryTheGrandFinaleFE8MeteorSR23_mvl/mxv
 BYTE   W01
 BYTE   VOL   26*MLBowsersInsideStoryTheGrandFinaleFE8MeteorSR23_mvl/mxv
 BYTE   W03
 BYTE   VOL   24*MLBowsersInsideStoryTheGrandFinaleFE8MeteorSR23_mvl/mxv
 BYTE   W03
 BYTE   VOL   23*MLBowsersInsideStoryTheGrandFinaleFE8MeteorSR23_mvl/mxv
 BYTE   W01
//  #03 //051   ----------------------------------------
 BYTE   VOL   22*MLBowsersInsideStoryTheGrandFinaleFE8MeteorSR23_mvl/mxv
 BYTE   W03
 BYTE   VOL   20*MLBowsersInsideStoryTheGrandFinaleFE8MeteorSR23_mvl/mxv
 BYTE   W03
 BYTE   VOL   19*MLBowsersInsideStoryTheGrandFinaleFE8MeteorSR23_mvl/mxv
 BYTE   W01
 BYTE   VOL   18*MLBowsersInsideStoryTheGrandFinaleFE8MeteorSR23_mvl/mxv
 BYTE   W03
 BYTE   VOL   17*MLBowsersInsideStoryTheGrandFinaleFE8MeteorSR23_mvl/mxv
 BYTE   W01
 BYTE   VOL   16*MLBowsersInsideStoryTheGrandFinaleFE8MeteorSR23_mvl/mxv
 BYTE   W02
 BYTE   VOL   15*MLBowsersInsideStoryTheGrandFinaleFE8MeteorSR23_mvl/mxv
 BYTE   W01
 BYTE   VOL   14*MLBowsersInsideStoryTheGrandFinaleFE8MeteorSR23_mvl/mxv
 BYTE   W03
 BYTE   VOL   13*MLBowsersInsideStoryTheGrandFinaleFE8MeteorSR23_mvl/mxv
 BYTE   W01
 BYTE   VOL   12*MLBowsersInsideStoryTheGrandFinaleFE8MeteorSR23_mvl/mxv
 BYTE   W03
 BYTE   VOL   10*MLBowsersInsideStoryTheGrandFinaleFE8MeteorSR23_mvl/mxv
 BYTE   W03
 BYTE   VOL   9*MLBowsersInsideStoryTheGrandFinaleFE8MeteorSR23_mvl/mxv
 BYTE   W01
 BYTE   VOL   8*MLBowsersInsideStoryTheGrandFinaleFE8MeteorSR23_mvl/mxv
 BYTE   W03
 BYTE   VOL   7*MLBowsersInsideStoryTheGrandFinaleFE8MeteorSR23_mvl/mxv
 BYTE   W01
 BYTE   VOL   6*MLBowsersInsideStoryTheGrandFinaleFE8MeteorSR23_mvl/mxv
 BYTE   W02
 BYTE   VOL   5*MLBowsersInsideStoryTheGrandFinaleFE8MeteorSR23_mvl/mxv
 BYTE   W01
 BYTE   VOL   4*MLBowsersInsideStoryTheGrandFinaleFE8MeteorSR23_mvl/mxv
 BYTE   W03
 BYTE   VOL   3*MLBowsersInsideStoryTheGrandFinaleFE8MeteorSR23_mvl/mxv
 BYTE   W01
 BYTE   VOL   2*MLBowsersInsideStoryTheGrandFinaleFE8MeteorSR23_mvl/mxv
 BYTE   W03
 BYTE   VOL   0*MLBowsersInsideStoryTheGrandFinaleFE8MeteorSR23_mvl/mxv
 BYTE   W02
 BYTE   EOT
 BYTE   W54
 BYTE   W01
//  #03 //052   ----------------------------------------
 BYTE   W96
//  #03 //053   ----------------------------------------
 BYTE   VOL   63*MLBowsersInsideStoryTheGrandFinaleFE8MeteorSR23_mvl/mxv
 BYTE   W96
//  #03 //054   ----------------------------------------
 BYTE   W96
//  #03 //055   ----------------------------------------
 BYTE   W96
//  #03 //056   ----------------------------------------
 BYTE   W96
//  #03 //057   ----------------------------------------
 BYTE   W96
//  #03 //058   ----------------------------------------
 BYTE   TIE  Ds1  v074
 BYTE   W96
//  #03 //059   ----------------------------------------
 BYTE   PATT
  POIN2 Label_01002AE8
//  #03 //060   ----------------------------------------
 BYTE   GoTo
  POIN2 Label_01002AFD
 BYTE   FINE

//**************** Track 4 (Midi-Chn.3) ****************//

MLBowsersInsideStoryTheGrandFinaleFE8MeteorSR23_004:
//  #04 //000   ----------------------------------------
 BYTE   KEYSH   MLBowsersInsideStoryTheGrandFinaleFE8MeteorSR23_key+0
 BYTE   VOICE   45
 BYTE   PAN   c_v-8
 BYTE   VOL   67*MLBowsersInsideStoryTheGrandFinaleFE8MeteorSR23_mvl/mxv
 BYTE   W96
//  #04 //001   ----------------------------------------
 BYTE   W96
//  #04 //002   ----------------------------------------
 BYTE   W96
//  #04 //003   ----------------------------------------
 BYTE   W96
//  #04 //004   ----------------------------------------
 BYTE   W96
//  #04 //005   ----------------------------------------
 BYTE   W96
//  #04 //006   ----------------------------------------
Label_01003BBE:
 BYTE   W96
//  #04 //007   ----------------------------------------
 BYTE   W96
//  #04 //008   ----------------------------------------
 BYTE   W96
//  #04 //009   ----------------------------------------
 BYTE   W96
//  #04 //010   ----------------------------------------
 BYTE   W96
//  #04 //011   ----------------------------------------
 BYTE   W96
//  #04 //012   ----------------------------------------
 BYTE   W96
//  #04 //013   ----------------------------------------
 BYTE   W96
//  #04 //014   ----------------------------------------
 BYTE   W12
 BYTE   N11  Gs2  v062
 BYTE   W12
 BYTE   Gs2
 BYTE   W12
 BYTE   Gn2
 BYTE   N11  Gs2
 BYTE   W12
 BYTE   Gn2
 BYTE   N11  Gs2
 BYTE   W12
 BYTE   Fs2
 BYTE   N11  Gs2
 BYTE   W12
 BYTE   Fs2
 BYTE   N11  Gs2
 BYTE   W12
 BYTE   Fn2
 BYTE   N11  Gs2
 BYTE   W12
//  #04 //015   ----------------------------------------
 BYTE   En2
 BYTE   N11  Gs2
 BYTE   W12
 BYTE   Ds2
 BYTE   N11  Gs2
 BYTE   W12
 BYTE   Ds2
 BYTE   N11  Gs2
 BYTE   W12
 BYTE   Dn2
 BYTE   N11  Gs2
 BYTE   W12
 BYTE   Dn2
 BYTE   N11  Gs2
 BYTE   W12
 BYTE   Cs2
 BYTE   N11  Gs2
 BYTE   W12
 BYTE   Cs2
 BYTE   N11  Gs2
 BYTE   W12
 BYTE   Bn1
 BYTE   N11  Gs2
 BYTE   W12
//  #04 //016   ----------------------------------------
 BYTE   W12
 BYTE   Gs2  v057
 BYTE   W12
 BYTE   Gs2
 BYTE   W12
 BYTE   Gn2
 BYTE   N11  Gs2
 BYTE   W12
 BYTE   Gn2
 BYTE   N11  Gs2
 BYTE   W12
 BYTE   Fs2
 BYTE   N11  Gs2
 BYTE   W12
 BYTE   Fs2
 BYTE   N11  Gs2
 BYTE   W12
 BYTE   Fn2
 BYTE   N11  Gs2
 BYTE   W12
//  #04 //017   ----------------------------------------
 BYTE   En2
 BYTE   N11  Gs2
 BYTE   W12
 BYTE   Ds2
 BYTE   N11  Gs2
 BYTE   W12
 BYTE   Ds2
 BYTE   N11  Gs2
 BYTE   W12
 BYTE   Dn2
 BYTE   N11  Gs2
 BYTE   W12
 BYTE   Dn2
 BYTE   N11  Gs2
 BYTE   W12
 BYTE   Cs2
 BYTE   N11  Gs2
 BYTE   W12
 BYTE   Cs2
 BYTE   N11  Gs2
 BYTE   W12
 BYTE   Bn1
 BYTE   N11  Gs2
 BYTE   W12
//  #04 //018   ----------------------------------------
 BYTE   W96
//  #04 //019   ----------------------------------------
 BYTE   W96
//  #04 //020   ----------------------------------------
 BYTE   W96
//  #04 //021   ----------------------------------------
 BYTE   W96
//  #04 //022   ----------------------------------------
 BYTE   W96
//  #04 //023   ----------------------------------------
 BYTE   W96
//  #04 //024   ----------------------------------------
 BYTE   W96
//  #04 //025   ----------------------------------------
 BYTE   W96
//  #04 //026   ----------------------------------------
 BYTE   W96
//  #04 //027   ----------------------------------------
 BYTE   W96
//  #04 //028   ----------------------------------------
 BYTE   W96
//  #04 //029   ----------------------------------------
 BYTE   W96
//  #04 //030   ----------------------------------------
 BYTE   W96
//  #04 //031   ----------------------------------------
 BYTE   W96
//  #04 //032   ----------------------------------------
 BYTE   W96
//  #04 //033   ----------------------------------------
 BYTE   W96
//  #04 //034   ----------------------------------------
 BYTE   W96
//  #04 //035   ----------------------------------------
 BYTE   W96
//  #04 //036   ----------------------------------------
 BYTE   W96
//  #04 //037   ----------------------------------------
 BYTE   W96
//  #04 //038   ----------------------------------------
 BYTE   W96
//  #04 //039   ----------------------------------------
 BYTE   W96
//  #04 //040   ----------------------------------------
 BYTE   W96
//  #04 //041   ----------------------------------------
 BYTE   W96
//  #04 //042   ----------------------------------------
 BYTE   W96
//  #04 //043   ----------------------------------------
 BYTE   W96
//  #04 //044   ----------------------------------------
 BYTE   W96
//  #04 //045   ----------------------------------------
 BYTE   W96
//  #04 //046   ----------------------------------------
 BYTE   W96
//  #04 //047   ----------------------------------------
 BYTE   W96
//  #04 //048   ----------------------------------------
 BYTE   W96
//  #04 //049   ----------------------------------------
 BYTE   W96
//  #04 //050   ----------------------------------------
Label_01003C5B:
 BYTE   W12
 BYTE   N11  Gs2  v062
 BYTE   W12
 BYTE   Gn2
 BYTE   N11  Gs2
 BYTE   W12
 BYTE   Fs2
 BYTE   N11  Gs2
 BYTE   W12
 BYTE   Fn2
 BYTE   N11  Gs2
 BYTE   W12
 BYTE   En2
 BYTE   N11  Gs2
 BYTE   W12
 BYTE   En2
 BYTE   N11  Gs2
 BYTE   W12
 BYTE   Ds2
 BYTE   N11  Gs2
 BYTE   W12
 BYTE   PEND 
//  #04 //051   ----------------------------------------
Label_01003C79:
 BYTE   N11  Ds2  v062
 BYTE   N11  Fs2
 BYTE   W12
 BYTE   Gs1
 BYTE   N11  Bn1
 BYTE   W12
 BYTE   As1
 BYTE   N11  Cs2
 BYTE   W12
 BYTE   Bn1
 BYTE   N11  Ds2
 BYTE   W12
 BYTE   Cs2
 BYTE   N11  En2
 BYTE   W12
 BYTE   As1
 BYTE   N11  Cs2
 BYTE   W12
 BYTE   Bn1
 BYTE   N11  Ds2
 BYTE   W12
 BYTE   Cs2
 BYTE   N11  En2
 BYTE   W12
 BYTE   PEND 
//  #04 //052   ----------------------------------------
Label_01003C9C:
 BYTE   W12
 BYTE   N11  Gs2  v062
 BYTE   W12
 BYTE   Gn2
 BYTE   N11  Gs2
 BYTE   W12
 BYTE   Fs2
 BYTE   N11  Gs2
 BYTE   W12
 BYTE   Fn2
 BYTE   N11  Gs2
 BYTE   W12
 BYTE   En2
 BYTE   N11  Gs2
 BYTE   W12
 BYTE   Ds2
 BYTE   N11  Gs2
 BYTE   W12
 BYTE   Cs2
 BYTE   N11  Gs2
 BYTE   W12
 BYTE   PEND 
//  #04 //053   ----------------------------------------
Label_01003CBA:
 BYTE   N11  Ds2  v062
 BYTE   N11  Gs2
 BYTE   W12
 BYTE   Gs1
 BYTE   N11  Bn1
 BYTE   W12
 BYTE   As1
 BYTE   N11  Cs2
 BYTE   W12
 BYTE   Bn1
 BYTE   N11  Ds2
 BYTE   W12
 BYTE   Cs2
 BYTE   N11  Gn2
 BYTE   W12
 BYTE   Ds2
 BYTE   N11  Gn2
 BYTE   W12
 BYTE   Cs2
 BYTE   N11  Gn2
 BYTE   W12
 BYTE   Bn1
 BYTE   N11  Gn2
 BYTE   W12
 BYTE   PEND 
//  #04 //054   ----------------------------------------
 BYTE   PATT
  POIN2 Label_01003C5B
//  #04 //055   ----------------------------------------
 BYTE   PATT
  POIN2 Label_01003C79
//  #04 //056   ----------------------------------------
 BYTE   PATT
  POIN2 Label_01003C9C
//  #04 //057   ----------------------------------------
 BYTE   PATT
  POIN2 Label_01003CBA
//  #04 //058   ----------------------------------------
 BYTE   W96
//  #04 //059   ----------------------------------------
 BYTE   W96
//  #04 //060   ----------------------------------------
 BYTE   GoTo
  POIN2 Label_01003BBE
 BYTE   FINE

//**************** Track 5 (Midi-Chn.4) ****************//

MLBowsersInsideStoryTheGrandFinaleFE8MeteorSR23_005:
//  #05 //000   ----------------------------------------
 BYTE   KEYSH   MLBowsersInsideStoryTheGrandFinaleFE8MeteorSR23_key+0
 BYTE   VOICE   52
 BYTE   N92  Gs0  v051  gtp3
 BYTE   N92  Gs1
 BYTE   N92  Ds2  v051  gtp3
 BYTE   N92  Gs2
 BYTE   N92  Bn2  v051  gtp3
 BYTE   VOL   67*MLBowsersInsideStoryTheGrandFinaleFE8MeteorSR23_mvl/mxv
 BYTE   W96
//  #05 //001   ----------------------------------------
 BYTE   N92  Fs0  v051  gtp3
 BYTE   N92  Fs1
 BYTE   N92  Ds2  v051  gtp3
 BYTE   N92  Fs2
 BYTE   N92  As2  v051  gtp3
 BYTE   W96
//  #05 //002   ----------------------------------------
 BYTE   TIE  En0
 BYTE   TIE  En1
 BYTE   TIE  Ds2
 BYTE   TIE  Gs2
 BYTE   TIE  Bn2
 BYTE   W96
//  #05 //003   ----------------------------------------
 BYTE   W44
 BYTE   W03
 BYTE   EOT
 BYTE   En0  v040
 BYTE   Ds2  v056
 BYTE   Bn2
 BYTE   W01
 BYTE   N44  Fs0  v051  gtp3
 BYTE   N44  Fs1
 BYTE   N44  Ds2  v051  gtp3
 BYTE   N44  Gs2
 BYTE   N44  Bn2  v051  gtp3
 BYTE   W48
//  #05 //004   ----------------------------------------
 BYTE   TIE  Ds2
 BYTE   TIE  Bn2
 BYTE   W96
//  #05 //005   ----------------------------------------
 BYTE   W92
 BYTE   W03
 BYTE   EOT
 BYTE   Ds2  v059
 BYTE   W01
//  #05 //006   ----------------------------------------
Label_010031B0:
 BYTE   N92  Ds2  v051  gtp3
 BYTE   N92  Bn2
 BYTE   W96
//  #05 //007   ----------------------------------------
Label_010031B7:
 BYTE   N92  Ds2  v051  gtp3
 BYTE   N92  As2
 BYTE   W96
 BYTE   PEND 
//  #05 //008   ----------------------------------------
Label_010031BF:
 BYTE   N92  En2  v051  gtp3
 BYTE   N92  Bn2
 BYTE   W96
 BYTE   PEND 
//  #05 //009   ----------------------------------------
 BYTE   PATT
  POIN2 Label_010031B7
//  #05 //010   ----------------------------------------
Label_010031CC:
 BYTE   N92  Ds2  v051  gtp3
 BYTE   TIE  Bn2
 BYTE   W96
 BYTE   PEND 
//  #05 //011   ----------------------------------------
Label_010031D4:
 BYTE   N92  En2  v051  gtp3
 BYTE   W92
 BYTE   W03
 BYTE   EOT
 BYTE   Bn2
 BYTE   W01
 BYTE   PEND 
//  #05 //012   ----------------------------------------
Label_010031DE:
 BYTE   VOICE   54
 BYTE   N92  Fs2  v051  gtp3
 BYTE   N92  Cs3
 BYTE   W96
 BYTE   PEND 
//  #05 //013   ----------------------------------------
Label_010031E8:
 BYTE   N92  Gn2  v051  gtp3
 BYTE   N92  Cs3
 BYTE   W96
 BYTE   PEND 
//  #05 //014   ----------------------------------------
 BYTE   W96
//  #05 //015   ----------------------------------------
 BYTE   W96
//  #05 //016   ----------------------------------------
 BYTE   W96
//  #05 //017   ----------------------------------------
 BYTE   W72
 BYTE   VOICE   52
 BYTE   W24
//  #05 //018   ----------------------------------------
 BYTE   N92  Ds2  v051  gtp3
 BYTE   N92  Bn2
 BYTE   W96
//  #05 //019   ----------------------------------------
 BYTE   PATT
  POIN2 Label_010031B7
//  #05 //020   ----------------------------------------
 BYTE   PATT
  POIN2 Label_010031BF
//  #05 //021   ----------------------------------------
 BYTE   PATT
  POIN2 Label_010031B7
//  #05 //022   ----------------------------------------
 BYTE   PATT
  POIN2 Label_010031CC
//  #05 //023   ----------------------------------------
 BYTE   PATT
  POIN2 Label_010031D4
//  #05 //024   ----------------------------------------
 BYTE   PATT
  POIN2 Label_010031DE
//  #05 //025   ----------------------------------------
 BYTE   PATT
  POIN2 Label_010031E8
//  #05 //026   ----------------------------------------
 BYTE   TIE  Gs1  v063
 BYTE   TIE  En2
 BYTE   TIE  Bn2
 BYTE   W96
//  #05 //027   ----------------------------------------
 BYTE   W92
 BYTE   W03
 BYTE   EOT
 BYTE   Gs1  v052
 BYTE   Bn2
 BYTE   W01
//  #05 //028   ----------------------------------------
 BYTE   TIE  Gs1
 BYTE   TIE  Fn2
 BYTE   TIE  Bn2
 BYTE   W96
//  #05 //029   ----------------------------------------
 BYTE   W92
 BYTE   W03
 BYTE   EOT
 BYTE   Gs1  v053
 BYTE   Bn2
 BYTE   W01
//  #05 //030   ----------------------------------------
 BYTE   TIE  As1
 BYTE   N92  Fs2  v063  gtp3
 BYTE   TIE  Cs3
 BYTE   W96
//  #05 //031   ----------------------------------------
 BYTE   N92  Gn2  v063  gtp3
 BYTE   W92
 BYTE   W03
 BYTE   EOT
 BYTE   As1  v061
 BYTE   W01
//  #05 //032   ----------------------------------------
 BYTE   TIE  As1
 BYTE   TIE  Gn2
 BYTE   TIE  Ds3
 BYTE   W96
//  #05 //033   ----------------------------------------
 BYTE   W68
 BYTE   W03
 BYTE   EOT
 BYTE   As1  v055
 BYTE   Ds3
 BYTE   W24
 BYTE   W01
//  #05 //034   ----------------------------------------
Label_01003260:
 BYTE   N92  Gs1  v063  gtp3
 BYTE   N92  Ds2
 BYTE   W96
 BYTE   PEND 
//  #05 //035   ----------------------------------------
Label_01003268:
 BYTE   N92  Fs1  v063  gtp3
 BYTE   N92  Ds2
 BYTE   W96
 BYTE   PEND 
//  #05 //036   ----------------------------------------
Label_01003270:
 BYTE   N92  Fn1  v063  gtp3
 BYTE   N92  Ds2
 BYTE   W96
 BYTE   PEND 
//  #05 //037   ----------------------------------------
Label_01003278:
 BYTE   N44  En1  v063  gtp3
 BYTE   N44  Ds2
 BYTE   W48
 BYTE   Fs1
 BYTE   N44  Cs2  v063  gtp3
 BYTE   W48
 BYTE   PEND 
//  #05 //038   ----------------------------------------
Label_01003286:
 BYTE   TIE  Fn1  v063
 BYTE   TIE  Cs2
 BYTE   W96
 BYTE   PEND 
//  #05 //039   ----------------------------------------
Label_0100328D:
 BYTE   W92
 BYTE   W03
 BYTE   EOT
 BYTE   Fn1  v049
 BYTE   W01
 BYTE   PEND 
//  #05 //040   ----------------------------------------
Label_01003294:
 BYTE   N92  Fs1  v063  gtp3
 BYTE   N92  Cs2
 BYTE   W96
 BYTE   PEND 
//  #05 //041   ----------------------------------------
Label_0100329C:
 BYTE   N92  Gn1  v063  gtp3
 BYTE   N92  Ds2
 BYTE   W96
 BYTE   PEND 
//  #05 //042   ----------------------------------------
 BYTE   PATT
  POIN2 Label_01003260
//  #05 //043   ----------------------------------------
 BYTE   PATT
  POIN2 Label_01003268
//  #05 //044   ----------------------------------------
 BYTE   PATT
  POIN2 Label_01003270
//  #05 //045   ----------------------------------------
 BYTE   PATT
  POIN2 Label_01003278
//  #05 //046   ----------------------------------------
 BYTE   PATT
  POIN2 Label_01003286
//  #05 //047   ----------------------------------------
 BYTE   PATT
  POIN2 Label_0100328D
//  #05 //048   ----------------------------------------
 BYTE   PATT
  POIN2 Label_01003294
//  #05 //049   ----------------------------------------
 BYTE   PATT
  POIN2 Label_0100329C
//  #05 //050   ----------------------------------------
 BYTE   W96
//  #05 //051   ----------------------------------------
 BYTE   W96
//  #05 //052   ----------------------------------------
 BYTE   W96
//  #05 //053   ----------------------------------------
 BYTE   W96
//  #05 //054   ----------------------------------------
 BYTE   W96
//  #05 //055   ----------------------------------------
 BYTE   W96
//  #05 //056   ----------------------------------------
 BYTE   W96
//  #05 //057   ----------------------------------------
 BYTE   W72
 BYTE   VOICE   52
 BYTE   W24
//  #05 //058   ----------------------------------------
 BYTE   TIE  Ds2  v051
 BYTE   TIE  Gs2
 BYTE   TIE  Bn2
 BYTE   W96
//  #05 //059   ----------------------------------------
 BYTE   W92
 BYTE   W03
 BYTE   EOT
 BYTE   Ds2  v056
 BYTE   Bn2
 BYTE   W01
//  #05 //060   ----------------------------------------
 BYTE   GoTo
  POIN2 Label_010031B0
 BYTE   FINE

//**************** Track 6 (Midi-Chn.5) ****************//

MLBowsersInsideStoryTheGrandFinaleFE8MeteorSR23_006:
//  #06 //000   ----------------------------------------
 BYTE   KEYSH   MLBowsersInsideStoryTheGrandFinaleFE8MeteorSR23_key+0
 BYTE   VOICE   56
 BYTE   PAN   c_v-6
 BYTE   VOL   67*MLBowsersInsideStoryTheGrandFinaleFE8MeteorSR23_mvl/mxv
 BYTE   W96
//  #06 //001   ----------------------------------------
 BYTE   W96
//  #06 //002   ----------------------------------------
 BYTE   W96
//  #06 //003   ----------------------------------------
 BYTE   W96
//  #06 //004   ----------------------------------------
 BYTE   W96
//  #06 //005   ----------------------------------------
 BYTE   W96
//  #06 //006   ----------------------------------------
Label_0100261E:
 BYTE   W96
//  #06 //007   ----------------------------------------
 BYTE   W96
//  #06 //008   ----------------------------------------
 BYTE   W96
//  #06 //009   ----------------------------------------
 BYTE   W96
//  #06 //010   ----------------------------------------
 BYTE   W96
//  #06 //011   ----------------------------------------
 BYTE   W96
//  #06 //012   ----------------------------------------
 BYTE   W96
//  #06 //013   ----------------------------------------
 BYTE   W96
//  #06 //014   ----------------------------------------
 BYTE   TIE  Gs0  v098
 BYTE   W96
//  #06 //015   ----------------------------------------
 BYTE   W96
//  #06 //016   ----------------------------------------
 BYTE   W96
//  #06 //017   ----------------------------------------
 BYTE   W92
 BYTE   W03
 BYTE   EOT
 BYTE   W01
//  #06 //018   ----------------------------------------
 BYTE   W96
//  #06 //019   ----------------------------------------
 BYTE   W96
//  #06 //020   ----------------------------------------
 BYTE   W96
//  #06 //021   ----------------------------------------
 BYTE   W96
//  #06 //022   ----------------------------------------
 BYTE   W96
//  #06 //023   ----------------------------------------
 BYTE   W96
//  #06 //024   ----------------------------------------
 BYTE   W96
//  #06 //025   ----------------------------------------
 BYTE   W96
//  #06 //026   ----------------------------------------
 BYTE   PAN   c_v+0
 BYTE   TIE  En0  v114
 BYTE   W96
//  #06 //027   ----------------------------------------
 BYTE   W92
 BYTE   W03
 BYTE   EOT
 BYTE   W01
//  #06 //028   ----------------------------------------
 BYTE   TIE  Fn0
 BYTE   W96
//  #06 //029   ----------------------------------------
 BYTE   W92
 BYTE   W03
 BYTE   EOT
 BYTE   W01
//  #06 //030   ----------------------------------------
 BYTE   N92  Fs0  v114  gtp3
 BYTE   W96
//  #06 //031   ----------------------------------------
 BYTE   N92  Gn0
 BYTE   W96
//  #06 //032   ----------------------------------------
 BYTE   TIE  Ds0
 BYTE   W96
//  #06 //033   ----------------------------------------
 BYTE   W44
 BYTE   W03
 BYTE   EOT
 BYTE   W48
 BYTE   W01
//  #06 //034   ----------------------------------------
 BYTE   W96
//  #06 //035   ----------------------------------------
 BYTE   W96
//  #06 //036   ----------------------------------------
 BYTE   W96
//  #06 //037   ----------------------------------------
 BYTE   W96
//  #06 //038   ----------------------------------------
 BYTE   W96
//  #06 //039   ----------------------------------------
 BYTE   W96
//  #06 //040   ----------------------------------------
 BYTE   W96
//  #06 //041   ----------------------------------------
 BYTE   W96
//  #06 //042   ----------------------------------------
 BYTE   W96
//  #06 //043   ----------------------------------------
 BYTE   W96
//  #06 //044   ----------------------------------------
 BYTE   W96
//  #06 //045   ----------------------------------------
 BYTE   W96
//  #06 //046   ----------------------------------------
 BYTE   W96
//  #06 //047   ----------------------------------------
 BYTE   W96
//  #06 //048   ----------------------------------------
 BYTE   W96
//  #06 //049   ----------------------------------------
 BYTE   W72
 BYTE   PAN   c_v-6
 BYTE   W24
//  #06 //050   ----------------------------------------
 BYTE   N92  Gs0  v098  gtp3
 BYTE   W96
//  #06 //051   ----------------------------------------
 BYTE   N92  Fs0
 BYTE   W96
//  #06 //052   ----------------------------------------
 BYTE   TIE  En0  v108
 BYTE   W96
//  #06 //053   ----------------------------------------
Label_01002678:
 BYTE   W44
 BYTE   W03
 BYTE   EOT
 BYTE   En0
 BYTE   W01
 BYTE   N44  Ds0  v108  gtp3
 BYTE   W48
 BYTE   PEND 
//  #06 //054   ----------------------------------------
 BYTE   N92  Gs0  v098  gtp3
 BYTE   W96
//  #06 //055   ----------------------------------------
 BYTE   N92  Fs0
 BYTE   W96
//  #06 //056   ----------------------------------------
 BYTE   TIE  En0  v108
 BYTE   W96
//  #06 //057   ----------------------------------------
 BYTE   PATT
  POIN2 Label_01002678
//  #06 //058   ----------------------------------------
 BYTE   W96
//  #06 //059   ----------------------------------------
 BYTE   W96
//  #06 //060   ----------------------------------------
 BYTE   GoTo
  POIN2 Label_0100261E
 BYTE   FINE

//**************** Track 7 (Midi-Chn.6) ****************//

MLBowsersInsideStoryTheGrandFinaleFE8MeteorSR23_007:
//  #07 //000   ----------------------------------------
 BYTE   KEYSH   MLBowsersInsideStoryTheGrandFinaleFE8MeteorSR23_key+0
 BYTE   VOICE   30
 BYTE   PAN   c_v+6
 BYTE   VOL   67*MLBowsersInsideStoryTheGrandFinaleFE8MeteorSR23_mvl/mxv
 BYTE   W96
//  #07 //001   ----------------------------------------
 BYTE   W96
//  #07 //002   ----------------------------------------
 BYTE   W96
//  #07 //003   ----------------------------------------
 BYTE   W96
//  #07 //004   ----------------------------------------
 BYTE   W96
//  #07 //005   ----------------------------------------
 BYTE   W96
//  #07 //006   ----------------------------------------
Label_01003A2E:
 BYTE   W96
//  #07 //007   ----------------------------------------
 BYTE   W96
//  #07 //008   ----------------------------------------
 BYTE   W96
//  #07 //009   ----------------------------------------
 BYTE   W96
//  #07 //010   ----------------------------------------
 BYTE   W96
//  #07 //011   ----------------------------------------
 BYTE   W96
//  #07 //012   ----------------------------------------
 BYTE   W96
//  #07 //013   ----------------------------------------
 BYTE   W96
//  #07 //014   ----------------------------------------
 BYTE   TIE  Gs0  v078
 BYTE   W96
//  #07 //015   ----------------------------------------
 BYTE   W96
//  #07 //016   ----------------------------------------
 BYTE   W96
//  #07 //017   ----------------------------------------
 BYTE   W92
 BYTE   W03
 BYTE   EOT
 BYTE   W01
//  #07 //018   ----------------------------------------
 BYTE   W96
//  #07 //019   ----------------------------------------
 BYTE   W96
//  #07 //020   ----------------------------------------
 BYTE   W96
//  #07 //021   ----------------------------------------
 BYTE   W96
//  #07 //022   ----------------------------------------
 BYTE   W96
//  #07 //023   ----------------------------------------
 BYTE   W96
//  #07 //024   ----------------------------------------
 BYTE   W96
//  #07 //025   ----------------------------------------
 BYTE   W96
//  #07 //026   ----------------------------------------
 BYTE   W96
//  #07 //027   ----------------------------------------
 BYTE   W96
//  #07 //028   ----------------------------------------
 BYTE   W96
//  #07 //029   ----------------------------------------
 BYTE   W96
//  #07 //030   ----------------------------------------
 BYTE   W96
//  #07 //031   ----------------------------------------
 BYTE   W96
//  #07 //032   ----------------------------------------
 BYTE   W96
//  #07 //033   ----------------------------------------
 BYTE   W96
//  #07 //034   ----------------------------------------
 BYTE   W96
//  #07 //035   ----------------------------------------
 BYTE   W96
//  #07 //036   ----------------------------------------
 BYTE   W96
//  #07 //037   ----------------------------------------
 BYTE   W96
//  #07 //038   ----------------------------------------
 BYTE   W96
//  #07 //039   ----------------------------------------
 BYTE   W96
//  #07 //040   ----------------------------------------
 BYTE   W96
//  #07 //041   ----------------------------------------
 BYTE   W96
//  #07 //042   ----------------------------------------
 BYTE   W96
//  #07 //043   ----------------------------------------
 BYTE   W96
//  #07 //044   ----------------------------------------
 BYTE   W96
//  #07 //045   ----------------------------------------
 BYTE   W96
//  #07 //046   ----------------------------------------
 BYTE   W96
//  #07 //047   ----------------------------------------
 BYTE   W96
//  #07 //048   ----------------------------------------
 BYTE   W96
//  #07 //049   ----------------------------------------
 BYTE   W96
//  #07 //050   ----------------------------------------
 BYTE   N92  Gs0  v068  gtp3
 BYTE   W96
//  #07 //051   ----------------------------------------
 BYTE   N92  Fs0
 BYTE   W96
//  #07 //052   ----------------------------------------
 BYTE   TIE  En0  v078
 BYTE   W96
//  #07 //053   ----------------------------------------
Label_01003A6C:
 BYTE   W44
 BYTE   W03
 BYTE   EOT
 BYTE   En0
 BYTE   W01
 BYTE   N44  Ds0  v078  gtp3
 BYTE   W48
 BYTE   PEND 
//  #07 //054   ----------------------------------------
 BYTE   N92  Gs0  v068  gtp3
 BYTE   W96
//  #07 //055   ----------------------------------------
 BYTE   N92  Fs0
 BYTE   W96
//  #07 //056   ----------------------------------------
 BYTE   TIE  En0  v078
 BYTE   W96
//  #07 //057   ----------------------------------------
 BYTE   PATT
  POIN2 Label_01003A6C
//  #07 //058   ----------------------------------------
 BYTE   W96
//  #07 //059   ----------------------------------------
 BYTE   W96
//  #07 //060   ----------------------------------------
 BYTE   GoTo
  POIN2 Label_01003A2E
 BYTE   FINE

//**************** Track 8 (Midi-Chn.7) ****************//

MLBowsersInsideStoryTheGrandFinaleFE8MeteorSR23_008:
//  #08 //000   ----------------------------------------
 BYTE   KEYSH   MLBowsersInsideStoryTheGrandFinaleFE8MeteorSR23_key+0
 BYTE   VOICE   38
 BYTE   VOL   61*MLBowsersInsideStoryTheGrandFinaleFE8MeteorSR23_mvl/mxv
 BYTE   W96
//  #08 //001   ----------------------------------------
 BYTE   W96
//  #08 //002   ----------------------------------------
 BYTE   W96
//  #08 //003   ----------------------------------------
 BYTE   W96
//  #08 //004   ----------------------------------------
Label_01002DFE:
 BYTE   N02  Gs1  v102
 BYTE   W12
 BYTE   Gs1
 BYTE   W12
 BYTE   Gs2
 BYTE   W12
 BYTE   Gs1
 BYTE   W06
 BYTE   Gs1
 BYTE   W06
 BYTE   N01  Gs2
 BYTE   W06
 BYTE   Gs1
 BYTE   W12
 BYTE   Gs1
 BYTE   W06
 BYTE   N02  Gs2
 BYTE   W12
 BYTE   Gs1
 BYTE   W06
 BYTE   N01  Gs2
 BYTE   W06
 BYTE   PEND 
//  #08 //005   ----------------------------------------
Label_01002E1A:
 BYTE   N02  Gs1  v102
 BYTE   W12
 BYTE   Gs1
 BYTE   W12
 BYTE   Gs2
 BYTE   W12
 BYTE   Gs1
 BYTE   W06
 BYTE   N08  Gs1  v112
 BYTE   W12
 BYTE   N01  Gs1  v102
 BYTE   W12
 BYTE   Gs1
 BYTE   W06
 BYTE   N02  Gs2
 BYTE   W12
 BYTE   Gs1
 BYTE   W06
 BYTE   N01  Gs2
 BYTE   W06
 BYTE   PEND 
//  #08 //006   ----------------------------------------
Label_01002E37:
 BYTE   N02  Gs1  v102
 BYTE   W12
 BYTE   Gs1
 BYTE   W12
 BYTE   Gs2
 BYTE   W12
 BYTE   Gs1
 BYTE   W06
 BYTE   Gs1
 BYTE   W06
 BYTE   N01  Gs2
 BYTE   W06
 BYTE   Gs1
 BYTE   W12
 BYTE   Gs1
 BYTE   W06
 BYTE   N02  Gs2
 BYTE   W12
 BYTE   Gs1
 BYTE   W06
 BYTE   N01  Gs2
 BYTE   W06
//  #08 //007   ----------------------------------------
Label_01002E52:
 BYTE   N02  Fs1  v102
 BYTE   W12
 BYTE   Fs1
 BYTE   W12
 BYTE   Fs2
 BYTE   W12
 BYTE   Fs1
 BYTE   W06
 BYTE   N08  Fs1  v112
 BYTE   W12
 BYTE   N01  Fs1  v102
 BYTE   W12
 BYTE   Fs1
 BYTE   W06
 BYTE   N02  Fs2
 BYTE   W12
 BYTE   Fs1
 BYTE   W06
 BYTE   N01  Fs2
 BYTE   W06
 BYTE   PEND 
//  #08 //008   ----------------------------------------
Label_01002E6F:
 BYTE   N02  En1  v102
 BYTE   W12
 BYTE   En1
 BYTE   W12
 BYTE   En2
 BYTE   W12
 BYTE   En1
 BYTE   W06
 BYTE   En1
 BYTE   W06
 BYTE   N01  En2
 BYTE   W06
 BYTE   En1
 BYTE   W12
 BYTE   En1
 BYTE   W06
 BYTE   N02  En2
 BYTE   W12
 BYTE   En1
 BYTE   W06
 BYTE   N01  En2
 BYTE   W06
 BYTE   PEND 
//  #08 //009   ----------------------------------------
Label_01002E8B:
 BYTE   N02  Ds1  v102
 BYTE   W12
 BYTE   Ds1
 BYTE   W12
 BYTE   Ds2
 BYTE   W12
 BYTE   Ds1
 BYTE   W06
 BYTE   N08  Ds1  v112
 BYTE   W12
 BYTE   N01  Ds1  v102
 BYTE   W12
 BYTE   Ds1
 BYTE   W06
 BYTE   N02  Ds2
 BYTE   W12
 BYTE   Ds1
 BYTE   W06
 BYTE   N01  Ds2
 BYTE   W06
 BYTE   PEND 
//  #08 //010   ----------------------------------------
 BYTE   PATT
  POIN2 Label_01002E6F
//  #08 //011   ----------------------------------------
Label_01002EAD:
 BYTE   N02  En1  v102
 BYTE   W12
 BYTE   En1
 BYTE   W12
 BYTE   En2
 BYTE   W12
 BYTE   En1
 BYTE   W06
 BYTE   N08  En1  v112
 BYTE   W12
 BYTE   N01  En1  v102
 BYTE   W12
 BYTE   En1
 BYTE   W06
 BYTE   N02  En2
 BYTE   W12
 BYTE   En1
 BYTE   W06
 BYTE   N01  En2
 BYTE   W06
 BYTE   PEND 
//  #08 //012   ----------------------------------------
Label_01002ECA:
 BYTE   N02  Fs1  v102
 BYTE   W12
 BYTE   Fs1
 BYTE   W12
 BYTE   Fs2
 BYTE   W12
 BYTE   Fs1
 BYTE   W06
 BYTE   Fs1
 BYTE   W06
 BYTE   N01  Fs2
 BYTE   W06
 BYTE   Fs1
 BYTE   W12
 BYTE   Fs1
 BYTE   W06
 BYTE   N02  Fs2
 BYTE   W12
 BYTE   Fs1
 BYTE   W06
 BYTE   N01  Fs2
 BYTE   W06
 BYTE   PEND 
//  #08 //013   ----------------------------------------
 BYTE   PATT
  POIN2 Label_01002E8B
//  #08 //014   ----------------------------------------
 BYTE   W96
//  #08 //015   ----------------------------------------
 BYTE   W96
//  #08 //016   ----------------------------------------
 BYTE   W96
//  #08 //017   ----------------------------------------
 BYTE   W96
//  #08 //018   ----------------------------------------
 BYTE   PATT
  POIN2 Label_01002DFE
//  #08 //019   ----------------------------------------
 BYTE   PATT
  POIN2 Label_01002E52
//  #08 //020   ----------------------------------------
 BYTE   PATT
  POIN2 Label_01002E6F
//  #08 //021   ----------------------------------------
 BYTE   PATT
  POIN2 Label_01002E8B
//  #08 //022   ----------------------------------------
 BYTE   PATT
  POIN2 Label_01002E6F
//  #08 //023   ----------------------------------------
 BYTE   PATT
  POIN2 Label_01002EAD
//  #08 //024   ----------------------------------------
 BYTE   PATT
  POIN2 Label_01002ECA
//  #08 //025   ----------------------------------------
 BYTE   PATT
  POIN2 Label_01002E8B
//  #08 //026   ----------------------------------------
 BYTE   PATT
  POIN2 Label_01002E6F
//  #08 //027   ----------------------------------------
 BYTE   PATT
  POIN2 Label_01002EAD
//  #08 //028   ----------------------------------------
Label_01002F21:
 BYTE   N02  Fn1  v102
 BYTE   W12
 BYTE   Fn1
 BYTE   W12
 BYTE   Fn2
 BYTE   W12
 BYTE   Fn1
 BYTE   W06
 BYTE   Fn1
 BYTE   W06
 BYTE   N01  Fn2
 BYTE   W06
 BYTE   Fn1
 BYTE   W12
 BYTE   Fn1
 BYTE   W06
 BYTE   N02  Fn2
 BYTE   W12
 BYTE   Fn1
 BYTE   W06
 BYTE   N01  Fn2
 BYTE   W06
 BYTE   PEND 
//  #08 //029   ----------------------------------------
Label_01002F3D:
 BYTE   N02  Fn1  v102
 BYTE   W12
 BYTE   Fn1
 BYTE   W12
 BYTE   Fn2
 BYTE   W12
 BYTE   Fn1
 BYTE   W06
 BYTE   N08  Fn1  v112
 BYTE   W12
 BYTE   N01  Fn1  v102
 BYTE   W12
 BYTE   Fn1
 BYTE   W06
 BYTE   N02  Fn2
 BYTE   W12
 BYTE   Fn1
 BYTE   W06
 BYTE   N01  Fn2
 BYTE   W06
 BYTE   PEND 
//  #08 //030   ----------------------------------------
 BYTE   PATT
  POIN2 Label_01002ECA
//  #08 //031   ----------------------------------------
 BYTE   N02  Gn1  v102
 BYTE   W12
 BYTE   Gn1
 BYTE   W12
 BYTE   Gn2
 BYTE   W12
 BYTE   Gn1
 BYTE   W06
 BYTE   N08  Gn1  v112
 BYTE   W12
 BYTE   N01  Gn1  v102
 BYTE   W12
 BYTE   Gn1
 BYTE   W06
 BYTE   N02  Gn2
 BYTE   W12
 BYTE   Gn1
 BYTE   W06
 BYTE   N01  Gn2
 BYTE   W06
//  #08 //032   ----------------------------------------
 BYTE   N02  Ds1
 BYTE   W12
 BYTE   Ds1
 BYTE   W12
 BYTE   Ds2
 BYTE   W12
 BYTE   Ds1
 BYTE   W06
 BYTE   Ds1
 BYTE   W06
 BYTE   N01  Ds2
 BYTE   W06
 BYTE   Ds1
 BYTE   W12
 BYTE   Ds1
 BYTE   W06
 BYTE   N02  Ds2
 BYTE   W12
 BYTE   Ds1
 BYTE   W06
 BYTE   N01  Ds2
 BYTE   W06
//  #08 //033   ----------------------------------------
 BYTE   N02  Ds1
 BYTE   W12
 BYTE   Ds1
 BYTE   W12
 BYTE   Fn1
 BYTE   W12
 BYTE   Fn2
 BYTE   W06
 BYTE   N08  Gn1  v112
 BYTE   W12
 BYTE   N01  Gn1  v102
 BYTE   W12
 BYTE   Gn2
 BYTE   W06
 BYTE   N02  Ds1
 BYTE   W12
 BYTE   Ds2
 BYTE   W06
 BYTE   N01  Ds1
 BYTE   W06
//  #08 //034   ----------------------------------------
 BYTE   PATT
  POIN2 Label_01002DFE
//  #08 //035   ----------------------------------------
 BYTE   PATT
  POIN2 Label_01002E52
//  #08 //036   ----------------------------------------
 BYTE   PATT
  POIN2 Label_01002F21
//  #08 //037   ----------------------------------------
Label_01002FBF:
 BYTE   N02  En1  v102
 BYTE   W12
 BYTE   En1
 BYTE   W12
 BYTE   En2
 BYTE   W12
 BYTE   En1
 BYTE   W06
 BYTE   N08  Fs1  v112
 BYTE   W12
 BYTE   N01  Fs1  v102
 BYTE   W12
 BYTE   Fs1
 BYTE   W06
 BYTE   N02  Fs2
 BYTE   W12
 BYTE   Fs1
 BYTE   W06
 BYTE   N01  Fs2
 BYTE   W06
 BYTE   PEND 
//  #08 //038   ----------------------------------------
 BYTE   PATT
  POIN2 Label_01002F21
//  #08 //039   ----------------------------------------
 BYTE   PATT
  POIN2 Label_01002F3D
//  #08 //040   ----------------------------------------
 BYTE   PATT
  POIN2 Label_01002ECA
//  #08 //041   ----------------------------------------
Label_01002FEB:
 BYTE   N02  Gn1  v102
 BYTE   W12
 BYTE   Gn1
 BYTE   W12
 BYTE   Gn2
 BYTE   W12
 BYTE   Gn1
 BYTE   W06
 BYTE   N08  Ds1  v112
 BYTE   W12
 BYTE   N01  Ds1  v102
 BYTE   W12
 BYTE   Ds1
 BYTE   W06
 BYTE   N02  Ds2
 BYTE   W12
 BYTE   Ds1
 BYTE   W06
 BYTE   N01  Ds2
 BYTE   W06
 BYTE   PEND 
//  #08 //042   ----------------------------------------
 BYTE   PATT
  POIN2 Label_01002DFE
//  #08 //043   ----------------------------------------
 BYTE   PATT
  POIN2 Label_01002E52
//  #08 //044   ----------------------------------------
 BYTE   PATT
  POIN2 Label_01002F21
//  #08 //045   ----------------------------------------
 BYTE   PATT
  POIN2 Label_01002FBF
//  #08 //046   ----------------------------------------
 BYTE   PATT
  POIN2 Label_01002F21
//  #08 //047   ----------------------------------------
 BYTE   PATT
  POIN2 Label_01002F3D
//  #08 //048   ----------------------------------------
 BYTE   PATT
  POIN2 Label_01002ECA
//  #08 //049   ----------------------------------------
 BYTE   PATT
  POIN2 Label_01002FEB
//  #08 //050   ----------------------------------------
 BYTE   W96
//  #08 //051   ----------------------------------------
 BYTE   W96
//  #08 //052   ----------------------------------------
 BYTE   W96
//  #08 //053   ----------------------------------------
 BYTE   W96
//  #08 //054   ----------------------------------------
 BYTE   W96
//  #08 //055   ----------------------------------------
 BYTE   W96
//  #08 //056   ----------------------------------------
 BYTE   W96
//  #08 //057   ----------------------------------------
 BYTE   W96
//  #08 //058   ----------------------------------------
 BYTE   PATT
  POIN2 Label_01002DFE
//  #08 //059   ----------------------------------------
 BYTE   PATT
  POIN2 Label_01002E1A
//  #08 //060   ----------------------------------------
 BYTE   GoTo
  POIN2 Label_01002E37
 BYTE   FINE

//**************** Track 9 (Midi-Chn.8) ****************//

MLBowsersInsideStoryTheGrandFinaleFE8MeteorSR23_009:
//  #09 //000   ----------------------------------------
 BYTE   KEYSH   MLBowsersInsideStoryTheGrandFinaleFE8MeteorSR23_key+0
 BYTE   VOICE   100
 BYTE   VOL   64*MLBowsersInsideStoryTheGrandFinaleFE8MeteorSR23_mvl/mxv
 BYTE   PAN   c_v+16
 BYTE   N02  Gs1  v077
 BYTE   W06
 BYTE   Bn1
 BYTE   W06
 BYTE   Ds2
 BYTE   W06
 BYTE   Gs2
 BYTE   W06
 BYTE   Bn2
 BYTE   W06
 BYTE   Ds3
 BYTE   W06
 BYTE   Gs3
 BYTE   W06
 BYTE   Ds3
 BYTE   W06
 BYTE   Bn3
 BYTE   W06
 BYTE   Gs3
 BYTE   W06
 BYTE   Ds3
 BYTE   W06
 BYTE   Bn2
 BYTE   W06
 BYTE   Gs2
 BYTE   W06
 BYTE   Ds2
 BYTE   W06
 BYTE   Bn1
 BYTE   W06
 BYTE   Ds2
 BYTE   W06
//  #09 //001   ----------------------------------------
 BYTE   Fs1
 BYTE   W06
 BYTE   As1
 BYTE   W06
 BYTE   Cs2
 BYTE   W06
 BYTE   Fs2
 BYTE   W06
 BYTE   As2
 BYTE   W06
 BYTE   Cs3
 BYTE   W06
 BYTE   Fs3
 BYTE   W06
 BYTE   Cs3
 BYTE   W06
 BYTE   As3
 BYTE   W06
 BYTE   Fs3
 BYTE   W06
 BYTE   Cs3
 BYTE   W06
 BYTE   As2
 BYTE   W06
 BYTE   Fs2
 BYTE   W06
 BYTE   Cs2
 BYTE   W06
 BYTE   As1
 BYTE   W06
 BYTE   Cs2
 BYTE   W06
//  #09 //002   ----------------------------------------
 BYTE   Gs1
 BYTE   W06
 BYTE   Bn1
 BYTE   W06
 BYTE   Ds2
 BYTE   W06
 BYTE   Gs2
 BYTE   W06
 BYTE   Bn2
 BYTE   W06
 BYTE   Ds3
 BYTE   W06
 BYTE   Gs3
 BYTE   W06
 BYTE   Ds3
 BYTE   W06
 BYTE   Bn3
 BYTE   W06
 BYTE   Gs3
 BYTE   W06
 BYTE   Ds3
 BYTE   W06
 BYTE   Bn2
 BYTE   W06
 BYTE   Gs2
 BYTE   W06
 BYTE   Ds2
 BYTE   W06
 BYTE   Bn1
 BYTE   W06
 BYTE   Ds2
 BYTE   W06
//  #09 //003   ----------------------------------------
 BYTE   Gs1
 BYTE   W06
 BYTE   Bn1
 BYTE   W06
 BYTE   Ds2
 BYTE   W06
 BYTE   Gs2
 BYTE   W06
 BYTE   Bn2
 BYTE   W06
 BYTE   Ds3
 BYTE   W06
 BYTE   Gs3
 BYTE   W06
 BYTE   Ds3
 BYTE   W06
 BYTE   As3
 BYTE   W06
 BYTE   Fs3
 BYTE   W06
 BYTE   Ds3
 BYTE   W06
 BYTE   As2
 BYTE   W06
 BYTE   Fs2
 BYTE   W06
 BYTE   Ds2
 BYTE   W06
 BYTE   As1
 BYTE   W06
 BYTE   Ds2
 BYTE   W06
//  #09 //004   ----------------------------------------
 BYTE   W96
//  #09 //005   ----------------------------------------
 BYTE   W96
//  #09 //006   ----------------------------------------
Label_01003774:
 BYTE   N02  Gs2  v078
 BYTE   W12
 BYTE   Gs2
 BYTE   W12
 BYTE   Gs3
 BYTE   W12
 BYTE   Gs2
 BYTE   W12
 BYTE   Gs2
 BYTE   W12
 BYTE   Gs3
 BYTE   W12
 BYTE   Gs2
 BYTE   W12
 BYTE   Gs2
 BYTE   W12
//  #09 //007   ----------------------------------------
Label_01003786:
 BYTE   N02  Gs3  v078
 BYTE   W12
 BYTE   Gs2
 BYTE   W12
 BYTE   Gs2
 BYTE   W12
 BYTE   Gs3
 BYTE   W12
 BYTE   Gs2
 BYTE   W12
 BYTE   Gs2
 BYTE   W12
 BYTE   Gs3
 BYTE   W12
 BYTE   Gs2
 BYTE   W12
 BYTE   PEND 
//  #09 //008   ----------------------------------------
Label_01003799:
 BYTE   N02  Gs2  v078
 BYTE   W12
 BYTE   Gs2
 BYTE   W12
 BYTE   Gs3
 BYTE   W12
 BYTE   Gs2
 BYTE   W12
 BYTE   Gs2
 BYTE   W12
 BYTE   Gs3
 BYTE   W12
 BYTE   Gs2
 BYTE   W12
 BYTE   Gs2
 BYTE   W12
 BYTE   PEND 
//  #09 //009   ----------------------------------------
Label_010037AC:
 BYTE   N02  Gn3  v078
 BYTE   W12
 BYTE   Gn2
 BYTE   W12
 BYTE   Gn2
 BYTE   W12
 BYTE   Gn3
 BYTE   W12
 BYTE   N04  Ds1  v085
 BYTE   W06
 BYTE   Gn1
 BYTE   W06
 BYTE   As1
 BYTE   W06
 BYTE   Cs2
 BYTE   W06
 BYTE   Ds2
 BYTE   W06
 BYTE   Gn2
 BYTE   W06
 BYTE   As2
 BYTE   W06
 BYTE   N05  Cs3
 BYTE   W06
 BYTE   PEND 
//  #09 //010   ----------------------------------------
 BYTE   PATT
  POIN2 Label_01003799
//  #09 //011   ----------------------------------------
 BYTE   PATT
  POIN2 Label_01003786
//  #09 //012   ----------------------------------------
 BYTE   N02  Fs2  v078
 BYTE   W12
 BYTE   Fs2
 BYTE   W12
 BYTE   Fs3
 BYTE   W12
 BYTE   Fs2
 BYTE   W12
 BYTE   Fs2
 BYTE   W12
 BYTE   Fs3
 BYTE   W12
 BYTE   Fs2
 BYTE   W12
 BYTE   Fs2
 BYTE   W12
//  #09 //013   ----------------------------------------
 BYTE   PATT
  POIN2 Label_010037AC
//  #09 //014   ----------------------------------------
 BYTE   N11  Ds3  v085
 BYTE   W96
//  #09 //015   ----------------------------------------
 BYTE   W48
 BYTE   N02  Gs0  v090
 BYTE   W06
 BYTE   Ds1
 BYTE   W06
 BYTE   Gs1
 BYTE   W06
 BYTE   Ds2
 BYTE   W06
 BYTE   Gs2
 BYTE   W06
 BYTE   Ds3
 BYTE   W06
 BYTE   Gs3
 BYTE   W06
 BYTE   Ds4
 BYTE   W06
//  #09 //016   ----------------------------------------
Label_01003802:
 BYTE   N02  Gs2  v079
 BYTE   W12
 BYTE   Gs2
 BYTE   W12
 BYTE   Gs3
 BYTE   W12
 BYTE   Gs2
 BYTE   W12
 BYTE   Gs2
 BYTE   W12
 BYTE   Gs3
 BYTE   W12
 BYTE   Gs2
 BYTE   W12
 BYTE   Gs2
 BYTE   W12
 BYTE   PEND 
//  #09 //017   ----------------------------------------
Label_01003815:
 BYTE   N02  Gs3  v079
 BYTE   W12
 BYTE   Gs2
 BYTE   W12
 BYTE   Gs2
 BYTE   W12
 BYTE   Gs3
 BYTE   W12
 BYTE   Gs2
 BYTE   W12
 BYTE   Gs2
 BYTE   W12
 BYTE   Gs3
 BYTE   W12
 BYTE   Gs2
 BYTE   W12
 BYTE   PEND 
//  #09 //018   ----------------------------------------
Label_01003828:
 BYTE   N02  Gs2  v083
 BYTE   W12
 BYTE   Gs2
 BYTE   W12
 BYTE   Gs3
 BYTE   W12
 BYTE   Gs2
 BYTE   W12
 BYTE   Gs2
 BYTE   W12
 BYTE   Gs3
 BYTE   W12
 BYTE   Gs2
 BYTE   W12
 BYTE   Gs2
 BYTE   W12
 BYTE   PEND 
//  #09 //019   ----------------------------------------
Label_0100383B:
 BYTE   N02  Gs3  v083
 BYTE   W12
 BYTE   Gs2
 BYTE   W12
 BYTE   Gs2
 BYTE   W12
 BYTE   Gs3
 BYTE   W12
 BYTE   Gs2
 BYTE   W12
 BYTE   Gs2
 BYTE   W12
 BYTE   Gs3
 BYTE   W12
 BYTE   Gs2
 BYTE   W12
 BYTE   PEND 
//  #09 //020   ----------------------------------------
 BYTE   PATT
  POIN2 Label_01003828
//  #09 //021   ----------------------------------------
 BYTE   N02  Gn3  v083
 BYTE   W12
 BYTE   Gn2
 BYTE   W12
 BYTE   Gn2
 BYTE   W12
 BYTE   Gn3
 BYTE   W12
 BYTE   N04  Ds1  v090
 BYTE   W06
 BYTE   Gn1
 BYTE   W06
 BYTE   As1
 BYTE   W06
 BYTE   Cs2
 BYTE   W06
 BYTE   Ds2
 BYTE   W06
 BYTE   Gn2
 BYTE   W06
 BYTE   As2
 BYTE   W06
 BYTE   N05  Cs3
 BYTE   W06
//  #09 //022   ----------------------------------------
 BYTE   PATT
  POIN2 Label_01003828
//  #09 //023   ----------------------------------------
 BYTE   PATT
  POIN2 Label_0100383B
//  #09 //024   ----------------------------------------
 BYTE   N02  Fs2  v083
 BYTE   W12
 BYTE   Fs2
 BYTE   W12
 BYTE   Fs3
 BYTE   W12
 BYTE   Fs2
 BYTE   W12
 BYTE   Fs2
 BYTE   W12
 BYTE   Fs3
 BYTE   W12
 BYTE   Fs2
 BYTE   W12
 BYTE   Fs2
 BYTE   W12
//  #09 //025   ----------------------------------------
 BYTE   Gn3
 BYTE   W12
 BYTE   Gn2
 BYTE   W12
 BYTE   Gn2
 BYTE   W12
 BYTE   Gn3
 BYTE   W12
 BYTE   N04  Ds1  v095
 BYTE   W06
 BYTE   Gn1
 BYTE   W06
 BYTE   As1
 BYTE   W06
 BYTE   Cs2
 BYTE   W06
 BYTE   Ds2
 BYTE   W06
 BYTE   Gn2
 BYTE   W06
 BYTE   As2
 BYTE   W06
 BYTE   N05  Cs3
 BYTE   W06
//  #09 //026   ----------------------------------------
 BYTE   N11  Bn2
 BYTE   W12
 BYTE   N02  Bn1  v093
 BYTE   W12
 BYTE   En2
 BYTE   W12
 BYTE   Bn1
 BYTE   W12
 BYTE   Gs2
 BYTE   W12
 BYTE   En2
 BYTE   W12
 BYTE   Bn1
 BYTE   W12
 BYTE   Gs1
 BYTE   W12
//  #09 //027   ----------------------------------------
 BYTE   Gs1
 BYTE   W12
 BYTE   Bn1
 BYTE   W12
 BYTE   En2
 BYTE   W12
 BYTE   Bn1
 BYTE   W12
 BYTE   Gs2
 BYTE   W12
 BYTE   En2
 BYTE   W12
 BYTE   Bn1
 BYTE   W12
 BYTE   Gs1
 BYTE   W12
//  #09 //028   ----------------------------------------
Label_010038CA:
 BYTE   N02  Gs1  v093
 BYTE   W12
 BYTE   Bn1
 BYTE   W12
 BYTE   Fn2
 BYTE   W12
 BYTE   Bn1
 BYTE   W12
 BYTE   Gs2
 BYTE   W12
 BYTE   Fn2
 BYTE   W12
 BYTE   Bn1
 BYTE   W12
 BYTE   Gs1
 BYTE   W12
 BYTE   PEND 
//  #09 //029   ----------------------------------------
 BYTE   PATT
  POIN2 Label_010038CA
//  #09 //030   ----------------------------------------
 BYTE   N02  As1  v093
 BYTE   W12
 BYTE   Cs2
 BYTE   W12
 BYTE   Fs2
 BYTE   W12
 BYTE   Cs2
 BYTE   W12
 BYTE   As2
 BYTE   W12
 BYTE   Fs2
 BYTE   W12
 BYTE   Cs2
 BYTE   W12
 BYTE   As1
 BYTE   W12
//  #09 //031   ----------------------------------------
 BYTE   As1
 BYTE   W12
 BYTE   Cs2
 BYTE   W12
 BYTE   Gn2
 BYTE   W12
 BYTE   Cs2
 BYTE   W12
 BYTE   As2
 BYTE   W12
 BYTE   Gn2
 BYTE   W12
 BYTE   Cs2
 BYTE   W12
 BYTE   As1
 BYTE   W12
//  #09 //032   ----------------------------------------
Label_01003904:
 BYTE   N02  As1  v093
 BYTE   W12
 BYTE   Ds2
 BYTE   W12
 BYTE   Gn2
 BYTE   W12
 BYTE   Ds2
 BYTE   W12
 BYTE   As2
 BYTE   W12
 BYTE   Gn2
 BYTE   W12
 BYTE   Ds2
 BYTE   W12
 BYTE   As1
 BYTE   W12
 BYTE   PEND 
//  #09 //033   ----------------------------------------
 BYTE   PATT
  POIN2 Label_01003904
//  #09 //034   ----------------------------------------
Label_0100391C:
 BYTE   N02  Gs2  v091
 BYTE   W12
 BYTE   Gs2
 BYTE   W12
 BYTE   Gs3
 BYTE   W12
 BYTE   Gs2
 BYTE   W12
 BYTE   Gs2
 BYTE   W12
 BYTE   Gs3
 BYTE   W12
 BYTE   Gs2
 BYTE   W12
 BYTE   Gs2
 BYTE   W12
 BYTE   PEND 
//  #09 //035   ----------------------------------------
Label_0100392F:
 BYTE   N02  Gs3  v091
 BYTE   W12
 BYTE   Gs2
 BYTE   W12
 BYTE   Gs2
 BYTE   W12
 BYTE   Gs3
 BYTE   W12
 BYTE   Gs2
 BYTE   W12
 BYTE   Gs2
 BYTE   W12
 BYTE   Gs3
 BYTE   W12
 BYTE   Gs2
 BYTE   W12
 BYTE   PEND 
//  #09 //036   ----------------------------------------
 BYTE   PATT
  POIN2 Label_0100391C
//  #09 //037   ----------------------------------------
Label_01003947:
 BYTE   N02  Gs3  v091
 BYTE   W12
 BYTE   Gs2
 BYTE   W12
 BYTE   Gs2
 BYTE   W12
 BYTE   Gs3
 BYTE   W12
 BYTE   Fs2
 BYTE   W12
 BYTE   Fs2
 BYTE   W12
 BYTE   Fs3
 BYTE   W12
 BYTE   Fs2
 BYTE   W12
 BYTE   PEND 
//  #09 //038   ----------------------------------------
 BYTE   PATT
  POIN2 Label_0100391C
//  #09 //039   ----------------------------------------
 BYTE   PATT
  POIN2 Label_0100392F
//  #09 //040   ----------------------------------------
Label_01003964:
 BYTE   N02  Fs2  v091
 BYTE   W12
 BYTE   Fs2
 BYTE   W12
 BYTE   Fs3
 BYTE   W12
 BYTE   Fs2
 BYTE   W12
 BYTE   Fs2
 BYTE   W12
 BYTE   Fs3
 BYTE   W12
 BYTE   Fs2
 BYTE   W12
 BYTE   Fs2
 BYTE   W12
 BYTE   PEND 
//  #09 //041   ----------------------------------------
Label_01003977:
 BYTE   N02  Gn3  v091
 BYTE   W12
 BYTE   Gn2
 BYTE   W12
 BYTE   Gn2
 BYTE   W12
 BYTE   Gn3
 BYTE   W12
 BYTE   Gn2
 BYTE   W12
 BYTE   Gn2
 BYTE   W12
 BYTE   Gn3
 BYTE   W12
 BYTE   Gn2
 BYTE   W12
 BYTE   PEND 
//  #09 //042   ----------------------------------------
 BYTE   PATT
  POIN2 Label_0100391C
//  #09 //043   ----------------------------------------
 BYTE   PATT
  POIN2 Label_0100392F
//  #09 //044   ----------------------------------------
 BYTE   PATT
  POIN2 Label_0100391C
//  #09 //045   ----------------------------------------
 BYTE   PATT
  POIN2 Label_01003947
//  #09 //046   ----------------------------------------
 BYTE   PATT
  POIN2 Label_0100391C
//  #09 //047   ----------------------------------------
 BYTE   PATT
  POIN2 Label_0100392F
//  #09 //048   ----------------------------------------
 BYTE   PATT
  POIN2 Label_01003964
//  #09 //049   ----------------------------------------
 BYTE   PATT
  POIN2 Label_01003977
//  #09 //050   ----------------------------------------
 BYTE   N11  Ds3  v102
 BYTE   W96
//  #09 //051   ----------------------------------------
 BYTE   W48
 BYTE   N02  Fs0  v087
 BYTE   W06
 BYTE   Ds1
 BYTE   W06
 BYTE   Fs1
 BYTE   W06
 BYTE   Ds2
 BYTE   W06
 BYTE   Fs2
 BYTE   W06
 BYTE   Ds3
 BYTE   W06
 BYTE   Fs3
 BYTE   W06
 BYTE   Ds4
 BYTE   W06
//  #09 //052   ----------------------------------------
 BYTE   PATT
  POIN2 Label_01003802
//  #09 //053   ----------------------------------------
 BYTE   PATT
  POIN2 Label_01003815
//  #09 //054   ----------------------------------------
 BYTE   PATT
  POIN2 Label_01003802
//  #09 //055   ----------------------------------------
 BYTE   PATT
  POIN2 Label_01003815
//  #09 //056   ----------------------------------------
 BYTE   N02  Gs2  v079
 BYTE   W12
 BYTE   Gs2
 BYTE   W12
 BYTE   Gs3
 BYTE   W12
 BYTE   Gs2
 BYTE   W12
 BYTE   Gs2
 BYTE   W12
 BYTE   Gs3
 BYTE   W12
 BYTE   Gs2  v071
 BYTE   W12
 BYTE   Gs2
 BYTE   W12
//  #09 //057   ----------------------------------------
 BYTE   Gs1  v083
 BYTE   W06
 BYTE   Bn1
 BYTE   W06
 BYTE   Ds2
 BYTE   W06
 BYTE   Gs2
 BYTE   W06
 BYTE   Bn2
 BYTE   W06
 BYTE   Ds3
 BYTE   W06
 BYTE   Gs3
 BYTE   W06
 BYTE   Ds3
 BYTE   W06
 BYTE   As3
 BYTE   W06
 BYTE   Fs3
 BYTE   W06
 BYTE   Ds3
 BYTE   W06
 BYTE   As2
 BYTE   W06
 BYTE   Fs2
 BYTE   W06
 BYTE   Ds2
 BYTE   W06
 BYTE   As1
 BYTE   W06
 BYTE   Ds2
 BYTE   W06
//  #09 //058   ----------------------------------------
 BYTE   W96
//  #09 //059   ----------------------------------------
 BYTE   W96
//  #09 //060   ----------------------------------------
 BYTE   GoTo
  POIN2 Label_01003774
 BYTE   FINE

//**************** Track 10 (Midi-Chn.9) ****************//

MLBowsersInsideStoryTheGrandFinaleFE8MeteorSR23_010:
//  #10 //000   ----------------------------------------
 BYTE   KEYSH   MLBowsersInsideStoryTheGrandFinaleFE8MeteorSR23_key+0
 BYTE   VOICE   100
 BYTE   VOL   55*MLBowsersInsideStoryTheGrandFinaleFE8MeteorSR23_mvl/mxv
 BYTE   PAN   c_v-21
 BYTE   W09
 BYTE   N02  Gs1  v038
 BYTE   W06
 BYTE   Bn1
 BYTE   W06
 BYTE   Ds2
 BYTE   W06
 BYTE   Gs2
 BYTE   W06
 BYTE   Bn2
 BYTE   W06
 BYTE   Ds3
 BYTE   W06
 BYTE   Gs3
 BYTE   W06
 BYTE   Ds3
 BYTE   W06
 BYTE   Bn3
 BYTE   W06
 BYTE   Gs3
 BYTE   W06
 BYTE   Ds3
 BYTE   W06
 BYTE   Bn2
 BYTE   W06
 BYTE   Gs2
 BYTE   W06
 BYTE   Ds2
 BYTE   W06
 BYTE   Bn1
 BYTE   W03
//  #10 //001   ----------------------------------------
 BYTE   W03
 BYTE   Ds2
 BYTE   W06
 BYTE   Fs1
 BYTE   W06
 BYTE   As1
 BYTE   W06
 BYTE   Cs2
 BYTE   W06
 BYTE   Fs2
 BYTE   W06
 BYTE   As2
 BYTE   W06
 BYTE   Cs3
 BYTE   W06
 BYTE   Fs3
 BYTE   W06
 BYTE   Cs3
 BYTE   W06
 BYTE   As3
 BYTE   W06
 BYTE   Fs3
 BYTE   W06
 BYTE   Cs3
 BYTE   W06
 BYTE   As2
 BYTE   W06
 BYTE   Fs2
 BYTE   W06
 BYTE   Cs2
 BYTE   W06
 BYTE   As1
 BYTE   W03
//  #10 //002   ----------------------------------------
 BYTE   W03
 BYTE   Cs2
 BYTE   W06
 BYTE   Gs1
 BYTE   W06
 BYTE   Bn1
 BYTE   W06
 BYTE   Ds2
 BYTE   W06
 BYTE   Gs2
 BYTE   W06
 BYTE   Bn2
 BYTE   W06
 BYTE   Ds3
 BYTE   W06
 BYTE   Gs3
 BYTE   W06
 BYTE   Ds3
 BYTE   W06
 BYTE   Bn3
 BYTE   W06
 BYTE   Gs3
 BYTE   W06
 BYTE   Ds3
 BYTE   W06
 BYTE   Bn2
 BYTE   W06
 BYTE   Gs2
 BYTE   W06
 BYTE   Ds2
 BYTE   W06
 BYTE   Bn1
 BYTE   W03
//  #10 //003   ----------------------------------------
 BYTE   W03
 BYTE   Ds2
 BYTE   W06
 BYTE   Gs1
 BYTE   W06
 BYTE   Bn1
 BYTE   W06
 BYTE   Ds2
 BYTE   W06
 BYTE   Gs2
 BYTE   W06
 BYTE   Bn2
 BYTE   W06
 BYTE   Ds3
 BYTE   W06
 BYTE   Gs3
 BYTE   W06
 BYTE   Ds3
 BYTE   W06
 BYTE   As3
 BYTE   W06
 BYTE   Fs3
 BYTE   W06
 BYTE   Ds3
 BYTE   W06
 BYTE   As2
 BYTE   W06
 BYTE   Fs2
 BYTE   W06
 BYTE   Ds2
 BYTE   W06
 BYTE   As1
 BYTE   W03
//  #10 //004   ----------------------------------------
Label_010041F8:
 BYTE   W03
 BYTE   N02  Ds2  v038
 BYTE   W92
 BYTE   W01
 BYTE   PEND 
//  #10 //005   ----------------------------------------
 BYTE   W96
//  #10 //006   ----------------------------------------
Label_01004200:
 BYTE   W96
//  #10 //007   ----------------------------------------
 BYTE   W96
//  #10 //008   ----------------------------------------
 BYTE   W96
//  #10 //009   ----------------------------------------
 BYTE   W96
//  #10 //010   ----------------------------------------
 BYTE   W96
//  #10 //011   ----------------------------------------
 BYTE   W96
//  #10 //012   ----------------------------------------
 BYTE   W96
//  #10 //013   ----------------------------------------
 BYTE   W96
//  #10 //014   ----------------------------------------
 BYTE   W96
//  #10 //015   ----------------------------------------
 BYTE   W56
 BYTE   W01
 BYTE   N02  Gs0  v042
 BYTE   W06
 BYTE   Ds1
 BYTE   W06
 BYTE   Gs1
 BYTE   W06
 BYTE   Ds2
 BYTE   W06
 BYTE   Gs2
 BYTE   W06
 BYTE   Ds3
 BYTE   W06
 BYTE   Gs3
 BYTE   W03
//  #10 //016   ----------------------------------------
 BYTE   W03
 BYTE   Ds4
 BYTE   W15
 BYTE   PAN   c_v-64
 BYTE   N02  Gs2  v040
 BYTE   W12
 BYTE   Gs2
 BYTE   W12
 BYTE   Gs3
 BYTE   W12
 BYTE   Gs2
 BYTE   W12
 BYTE   Gs2
 BYTE   W12
 BYTE   Gs3
 BYTE   W12
 BYTE   Gs2
 BYTE   W06
//  #10 //017   ----------------------------------------
 BYTE   W06
 BYTE   Gs2
 BYTE   W12
 BYTE   PAN   c_v+42
 BYTE   N02  Gs3
 BYTE   W12
 BYTE   Gs2
 BYTE   W12
 BYTE   Gs2
 BYTE   W12
 BYTE   Gs3
 BYTE   W12
 BYTE   Gs2
 BYTE   W12
 BYTE   Gs2
 BYTE   W12
 BYTE   Gs3
 BYTE   W06
//  #10 //018   ----------------------------------------
 BYTE   W06
 BYTE   Gs2
 BYTE   W90
//  #10 //019   ----------------------------------------
 BYTE   W96
//  #10 //020   ----------------------------------------
 BYTE   W96
//  #10 //021   ----------------------------------------
 BYTE   W96
//  #10 //022   ----------------------------------------
 BYTE   W96
//  #10 //023   ----------------------------------------
 BYTE   W96
//  #10 //024   ----------------------------------------
 BYTE   W96
//  #10 //025   ----------------------------------------
 BYTE   W96
//  #10 //026   ----------------------------------------
 BYTE   W96
//  #10 //027   ----------------------------------------
 BYTE   W96
//  #10 //028   ----------------------------------------
 BYTE   W96
//  #10 //029   ----------------------------------------
 BYTE   W96
//  #10 //030   ----------------------------------------
 BYTE   W96
//  #10 //031   ----------------------------------------
 BYTE   W96
//  #10 //032   ----------------------------------------
 BYTE   W96
//  #10 //033   ----------------------------------------
 BYTE   W96
//  #10 //034   ----------------------------------------
 BYTE   W96
//  #10 //035   ----------------------------------------
 BYTE   W96
//  #10 //036   ----------------------------------------
 BYTE   W96
//  #10 //037   ----------------------------------------
 BYTE   W96
//  #10 //038   ----------------------------------------
 BYTE   W96
//  #10 //039   ----------------------------------------
 BYTE   W96
//  #10 //040   ----------------------------------------
 BYTE   W96
//  #10 //041   ----------------------------------------
 BYTE   W96
//  #10 //042   ----------------------------------------
 BYTE   W96
//  #10 //043   ----------------------------------------
 BYTE   W96
//  #10 //044   ----------------------------------------
 BYTE   W96
//  #10 //045   ----------------------------------------
 BYTE   W96
//  #10 //046   ----------------------------------------
 BYTE   W96
//  #10 //047   ----------------------------------------
 BYTE   W96
//  #10 //048   ----------------------------------------
 BYTE   W96
//  #10 //049   ----------------------------------------
 BYTE   W96
//  #10 //050   ----------------------------------------
 BYTE   W96
//  #10 //051   ----------------------------------------
 BYTE   W56
 BYTE   W01
 BYTE   PAN   c_v-21
 BYTE   N02  Fs0  v041
 BYTE   W06
 BYTE   Ds1
 BYTE   W06
 BYTE   Fs1
 BYTE   W06
 BYTE   Ds2
 BYTE   W06
 BYTE   Fs2
 BYTE   W06
 BYTE   Ds3
 BYTE   W06
 BYTE   Fs3
 BYTE   W03
//  #10 //052   ----------------------------------------
 BYTE   W03
 BYTE   Ds4
 BYTE   W15
 BYTE   PAN   c_v-64
 BYTE   N02  Gs2
 BYTE   W12
 BYTE   Gs2
 BYTE   W12
 BYTE   Gs3
 BYTE   W12
 BYTE   Gs2
 BYTE   W12
 BYTE   Gs2
 BYTE   W12
 BYTE   Gs3
 BYTE   W12
 BYTE   Gs2
 BYTE   W06
//  #10 //053   ----------------------------------------
Label_0100428F:
 BYTE   W06
 BYTE   N02  Gs2  v041
 BYTE   W12
 BYTE   PAN   c_v+42
 BYTE   N02  Gs3
 BYTE   W12
 BYTE   Gs2
 BYTE   W12
 BYTE   Gs2
 BYTE   W12
 BYTE   Gs3
 BYTE   W12
 BYTE   Gs2
 BYTE   W12
 BYTE   Gs2
 BYTE   W12
 BYTE   Gs3
 BYTE   W03
 BYTE   PAN   c_v-21
 BYTE   N02  Gs3  v051
 BYTE   W03
 BYTE   PEND 
//  #10 //054   ----------------------------------------
Label_010042AC:
 BYTE   W03
 BYTE   N02  Ds4  v051
 BYTE   W15
 BYTE   PAN   c_v-64
 BYTE   N02  Gs2  v041
 BYTE   W12
 BYTE   Gs2
 BYTE   W12
 BYTE   Gs3
 BYTE   W12
 BYTE   Gs2
 BYTE   W12
 BYTE   Gs2
 BYTE   W12
 BYTE   Gs3
 BYTE   W12
 BYTE   Gs2
 BYTE   W06
 BYTE   PEND 
//  #10 //055   ----------------------------------------
 BYTE   PATT
  POIN2 Label_0100428F
//  #10 //056   ----------------------------------------
 BYTE   PATT
  POIN2 Label_010042AC
//  #10 //057   ----------------------------------------
 BYTE   W09
 BYTE   PAN   c_v-21
 BYTE   N02  Gs1  v038
 BYTE   W06
 BYTE   Bn1
 BYTE   W06
 BYTE   Ds2
 BYTE   W06
 BYTE   Gs2
 BYTE   W06
 BYTE   Bn2
 BYTE   W06
 BYTE   Ds3
 BYTE   W06
 BYTE   Gs3
 BYTE   W06
 BYTE   Ds3
 BYTE   W06
 BYTE   As3
 BYTE   W06
 BYTE   Fs3
 BYTE   W06
 BYTE   Ds3
 BYTE   W06
 BYTE   As2
 BYTE   W06
 BYTE   Fs2
 BYTE   W06
 BYTE   Ds2
 BYTE   W06
 BYTE   As1
 BYTE   W03
//  #10 //058   ----------------------------------------
 BYTE   PATT
  POIN2 Label_010041F8
//  #10 //059   ----------------------------------------
 BYTE   W96
//  #10 //060   ----------------------------------------
 BYTE   GoTo
  POIN2 Label_01004200
 BYTE   FINE

//**************** Track 11 (Midi-Chn.10) ****************//

MLBowsersInsideStoryTheGrandFinaleFE8MeteorSR23_011:
//  #11 //000   ----------------------------------------
 BYTE   KEYSH   MLBowsersInsideStoryTheGrandFinaleFE8MeteorSR23_key+0
 BYTE   VOICE   126
 BYTE   VOL   51*MLBowsersInsideStoryTheGrandFinaleFE8MeteorSR23_mvl/mxv
 BYTE   W96
//  #11 //001   ----------------------------------------
 BYTE   W96
//  #11 //002   ----------------------------------------
 BYTE   W96
//  #11 //003   ----------------------------------------
 BYTE   W96
//  #11 //004   ----------------------------------------
 BYTE   W96
//  #11 //005   ----------------------------------------
 BYTE   W96
//  #11 //006   ----------------------------------------
Label_01003A9C:
 BYTE   W96
//  #11 //007   ----------------------------------------
 BYTE   W96
//  #11 //008   ----------------------------------------
 BYTE   W96
//  #11 //009   ----------------------------------------
 BYTE   W96
//  #11 //010   ----------------------------------------
 BYTE   W96
//  #11 //011   ----------------------------------------
 BYTE   W96
//  #11 //012   ----------------------------------------
 BYTE   W96
//  #11 //013   ----------------------------------------
 BYTE   W96
//  #11 //014   ----------------------------------------
 BYTE   N11  Gs5  v092
 BYTE   W12
 BYTE   Gs5  v042
 BYTE   W84
//  #11 //015   ----------------------------------------
Label_01003AAB:
 BYTE   W84
 BYTE   N11  Gs5  v082
 BYTE   W12
 BYTE   PEND 
//  #11 //016   ----------------------------------------
 BYTE   Gs5
 BYTE   W12
 BYTE   Gs5  v032
 BYTE   W84
//  #11 //017   ----------------------------------------
 BYTE   PATT
  POIN2 Label_01003AAB
//  #11 //018   ----------------------------------------
 BYTE   N23  Gs5  v092
 BYTE   W96
//  #11 //019   ----------------------------------------
 BYTE   W96
//  #11 //020   ----------------------------------------
 BYTE   W96
//  #11 //021   ----------------------------------------
 BYTE   W96
//  #11 //022   ----------------------------------------
 BYTE   W96
//  #11 //023   ----------------------------------------
 BYTE   W96
//  #11 //024   ----------------------------------------
 BYTE   W96
//  #11 //025   ----------------------------------------
 BYTE   W96
//  #11 //026   ----------------------------------------
 BYTE   W96
//  #11 //027   ----------------------------------------
 BYTE   W96
//  #11 //028   ----------------------------------------
 BYTE   W96
//  #11 //029   ----------------------------------------
 BYTE   W96
//  #11 //030   ----------------------------------------
 BYTE   W96
//  #11 //031   ----------------------------------------
 BYTE   W96
//  #11 //032   ----------------------------------------
 BYTE   W96
//  #11 //033   ----------------------------------------
 BYTE   W72
 BYTE   N11  Ds5  v097
 BYTE   W12
 BYTE   Ds5  v047
 BYTE   W12
//  #11 //034   ----------------------------------------
Label_01003AD5:
 BYTE   N11  Gs5  v102
 BYTE   W12
 BYTE   Gs5  v052
 BYTE   W84
 BYTE   PEND 
//  #11 //035   ----------------------------------------
 BYTE   W96
//  #11 //036   ----------------------------------------
 BYTE   W96
//  #11 //037   ----------------------------------------
 BYTE   W96
//  #11 //038   ----------------------------------------
 BYTE   W96
//  #11 //039   ----------------------------------------
 BYTE   W96
//  #11 //040   ----------------------------------------
 BYTE   W96
//  #11 //041   ----------------------------------------
 BYTE   W96
//  #11 //042   ----------------------------------------
 BYTE   PATT
  POIN2 Label_01003AD5
//  #11 //043   ----------------------------------------
 BYTE   W96
//  #11 //044   ----------------------------------------
 BYTE   W96
//  #11 //045   ----------------------------------------
 BYTE   W96
//  #11 //046   ----------------------------------------
 BYTE   W96
//  #11 //047   ----------------------------------------
 BYTE   W96
//  #11 //048   ----------------------------------------
 BYTE   W96
//  #11 //049   ----------------------------------------
 BYTE   W96
//  #11 //050   ----------------------------------------
Label_01003AF0:
 BYTE   N11  Gs5  v097
 BYTE   W12
 BYTE   Gs5  v047
 BYTE   W84
 BYTE   PEND 
//  #11 //051   ----------------------------------------
Label_01003AF8:
 BYTE   W72
 BYTE   N11  Gs5  v087
 BYTE   W12
 BYTE   Gs5  v037
 BYTE   W12
 BYTE   PEND 
//  #11 //052   ----------------------------------------
Label_01003B01:
 BYTE   N11  Gs5  v087
 BYTE   W12
 BYTE   Gs5  v037
 BYTE   W84
 BYTE   PEND 
//  #11 //053   ----------------------------------------
 BYTE   W72
 BYTE   Ds5  v087
 BYTE   W12
 BYTE   Ds5  v037
 BYTE   W12
//  #11 //054   ----------------------------------------
 BYTE   PATT
  POIN2 Label_01003AF0
//  #11 //055   ----------------------------------------
 BYTE   PATT
  POIN2 Label_01003AF8
//  #11 //056   ----------------------------------------
 BYTE   PATT
  POIN2 Label_01003B01
//  #11 //057   ----------------------------------------
 BYTE   W96
//  #11 //058   ----------------------------------------
 BYTE   W96
//  #11 //059   ----------------------------------------
 BYTE   W96
//  #11 //060   ----------------------------------------
 BYTE   GoTo
  POIN2 Label_01003A9C
 BYTE   FINE

//**************** Track 12 (Midi-Chn.11) ****************//

MLBowsersInsideStoryTheGrandFinaleFE8MeteorSR23_012:
//  #12 //000   ----------------------------------------
 BYTE   KEYSH   MLBowsersInsideStoryTheGrandFinaleFE8MeteorSR23_key+0
 BYTE   VOICE   47
 BYTE   VOL   63*MLBowsersInsideStoryTheGrandFinaleFE8MeteorSR23_mvl/mxv
 BYTE   W96
//  #12 //001   ----------------------------------------
 BYTE   W96
//  #12 //002   ----------------------------------------
 BYTE   W96
//  #12 //003   ----------------------------------------
 BYTE   W84
 BYTE   N03  Ds1  v108
 BYTE   W04
 BYTE   Ds1  v098
 BYTE   W04
 BYTE   Ds1  v108
 BYTE   W04
//  #12 //004   ----------------------------------------
 BYTE   N23  Gs1  v118
 BYTE   W96
//  #12 //005   ----------------------------------------
Label_01004318:
 BYTE   W84
 BYTE   N05  Ds1  v108
 BYTE   W06
 BYTE   Ds1  v098
 BYTE   W06
 BYTE   PEND 
//  #12 //006   ----------------------------------------
Label_01004321:
 BYTE   N23  Gs1  v118
 BYTE   W96
//  #12 //007   ----------------------------------------
 BYTE   W96
//  #12 //008   ----------------------------------------
 BYTE   W96
//  #12 //009   ----------------------------------------
 BYTE   W96
//  #12 //010   ----------------------------------------
 BYTE   W96
//  #12 //011   ----------------------------------------
 BYTE   W96
//  #12 //012   ----------------------------------------
 BYTE   W96
//  #12 //013   ----------------------------------------
Label_0100432B:
 BYTE   W72
 BYTE   N11  Ds1  v108
 BYTE   W12
 BYTE   N03  Ds1  v098
 BYTE   W04
 BYTE   Ds1  v088
 BYTE   W04
 BYTE   Ds1  v108
 BYTE   W04
 BYTE   PEND 
//  #12 //014   ----------------------------------------
 BYTE   N23  Gs1  v118
 BYTE   W96
//  #12 //015   ----------------------------------------
 BYTE   W72
 BYTE   N11  Ds1  v108
 BYTE   W12
 BYTE   N05  Ds1  v098
 BYTE   W06
 BYTE   Ds1  v108
 BYTE   W06
//  #12 //016   ----------------------------------------
 BYTE   N23  Gs1  v118
 BYTE   W96
//  #12 //017   ----------------------------------------
 BYTE   PATT
  POIN2 Label_01004318
//  #12 //018   ----------------------------------------
 BYTE   N23  Gs1  v118
 BYTE   W96
//  #12 //019   ----------------------------------------
 BYTE   W84
 BYTE   N11  Ds1  v108
 BYTE   W12
//  #12 //020   ----------------------------------------
 BYTE   N23  En1
 BYTE   W96
//  #12 //021   ----------------------------------------
 BYTE   W48
 BYTE   Ds1
 BYTE   W24
 BYTE   N11
 BYTE   W12
 BYTE   Ds1
 BYTE   W12
//  #12 //022   ----------------------------------------
 BYTE   N23  En1
 BYTE   W96
//  #12 //023   ----------------------------------------
 BYTE   W84
 BYTE   N03  En1  v098
 BYTE   W04
 BYTE   En1  v088
 BYTE   W04
 BYTE   En1  v108
 BYTE   W04
//  #12 //024   ----------------------------------------
 BYTE   N28  Fs1  v118  gtp1
 BYTE   W96
//  #12 //025   ----------------------------------------
 BYTE   N23  Ds1  v108
 BYTE   W48
 BYTE   Ds1
 BYTE   W24
 BYTE   N11
 BYTE   W12
 BYTE   N03  Ds1  v098
 BYTE   W04
 BYTE   Ds1  v088
 BYTE   W04
 BYTE   Ds1  v108
 BYTE   W04
//  #12 //026   ----------------------------------------
 BYTE   N23  En1  v118
 BYTE   W96
//  #12 //027   ----------------------------------------
 BYTE   W96
//  #12 //028   ----------------------------------------
 BYTE   W96
//  #12 //029   ----------------------------------------
 BYTE   W96
//  #12 //030   ----------------------------------------
 BYTE   W96
//  #12 //031   ----------------------------------------
 BYTE   W96
//  #12 //032   ----------------------------------------
 BYTE   W96
//  #12 //033   ----------------------------------------
 BYTE   PATT
  POIN2 Label_0100432B
//  #12 //034   ----------------------------------------
Label_0100439B:
 BYTE   N23  Gs1  v118
 BYTE   W84
 BYTE   N11  Gs1  v108
 BYTE   W12
 BYTE   PEND 
//  #12 //035   ----------------------------------------
 BYTE   N23  Fs1
 BYTE   W96
//  #12 //036   ----------------------------------------
Label_010043A7:
 BYTE   N23  Fn1  v108
 BYTE   W84
 BYTE   N05
 BYTE   W06
 BYTE   Fn1  v098
 BYTE   W06
 BYTE   PEND 
//  #12 //037   ----------------------------------------
Label_010043B1:
 BYTE   N23  En1  v118
 BYTE   W48
 BYTE   Fs1  v108
 BYTE   W24
 BYTE   N11
 BYTE   W12
 BYTE   Cs2
 BYTE   W12
 BYTE   PEND 
//  #12 //038   ----------------------------------------
Label_010043BD:
 BYTE   N23  Fn1  v118
 BYTE   W84
 BYTE   N11  Fn1  v108
 BYTE   W12
 BYTE   PEND 
//  #12 //039   ----------------------------------------
 BYTE   N23
 BYTE   W96
//  #12 //040   ----------------------------------------
Label_010043C8:
 BYTE   N23  Fs1  v108
 BYTE   W84
 BYTE   N05
 BYTE   W06
 BYTE   Fs1  v098
 BYTE   W06
 BYTE   PEND 
//  #12 //041   ----------------------------------------
 BYTE   N23  Ds1  v118
 BYTE   W48
 BYTE   Ds1  v108
 BYTE   W24
 BYTE   N11
 BYTE   W12
 BYTE   As1
 BYTE   W12
//  #12 //042   ----------------------------------------
 BYTE   PATT
  POIN2 Label_0100439B
//  #12 //043   ----------------------------------------
 BYTE   N23  Fs1  v108
 BYTE   W96
//  #12 //044   ----------------------------------------
 BYTE   PATT
  POIN2 Label_010043A7
//  #12 //045   ----------------------------------------
 BYTE   PATT
  POIN2 Label_010043B1
//  #12 //046   ----------------------------------------
 BYTE   PATT
  POIN2 Label_010043BD
//  #12 //047   ----------------------------------------
 BYTE   N23  Fn1  v108
 BYTE   W96
//  #12 //048   ----------------------------------------
 BYTE   PATT
  POIN2 Label_010043C8
//  #12 //049   ----------------------------------------
 BYTE   N23  Ds1  v118
 BYTE   W48
 BYTE   Ds1  v108
 BYTE   W24
 BYTE   N11
 BYTE   W12
 BYTE   N03  Ds1  v098
 BYTE   W04
 BYTE   Ds1  v088
 BYTE   W04
 BYTE   Ds1  v108
 BYTE   W04
//  #12 //050   ----------------------------------------
 BYTE   N23  Gs1  v118
 BYTE   W96
//  #12 //051   ----------------------------------------
Label_01004415:
 BYTE   W72
 BYTE   N23  Fs1  v108
 BYTE   W24
 BYTE   PEND 
//  #12 //052   ----------------------------------------
 BYTE   En1  v118
 BYTE   W96
//  #12 //053   ----------------------------------------
Label_0100441E:
 BYTE   W72
 BYTE   N07  Fs1  v098
 BYTE   W08
 BYTE   Fs1  v088
 BYTE   W08
 BYTE   Fs1  v108
 BYTE   W08
 BYTE   PEND 
//  #12 //054   ----------------------------------------
 BYTE   N23  Gs1  v118
 BYTE   W96
//  #12 //055   ----------------------------------------
 BYTE   PATT
  POIN2 Label_01004415
//  #12 //056   ----------------------------------------
 BYTE   N23  En1  v118
 BYTE   W96
//  #12 //057   ----------------------------------------
 BYTE   PATT
  POIN2 Label_0100441E
//  #12 //058   ----------------------------------------
 BYTE   N23  Gs1  v118
 BYTE   W96
//  #12 //059   ----------------------------------------
 BYTE   PATT
  POIN2 Label_01004318
//  #12 //060   ----------------------------------------
 BYTE   GoTo
  POIN2 Label_01004321
 BYTE   FINE

//**************** Track 13 (Midi-Chn.12) ****************//

MLBowsersInsideStoryTheGrandFinaleFE8MeteorSR23_013:
//  #13 //000   ----------------------------------------
 BYTE   KEYSH   MLBowsersInsideStoryTheGrandFinaleFE8MeteorSR23_key+0
 BYTE   VOICE   126
 BYTE   VOL   20*MLBowsersInsideStoryTheGrandFinaleFE8MeteorSR23_mvl/mxv
 BYTE   W96
//  #13 //001   ----------------------------------------
 BYTE   W96
//  #13 //002   ----------------------------------------
 BYTE   W96
//  #13 //003   ----------------------------------------
 BYTE   W96
//  #13 //004   ----------------------------------------
Label_01003052:
 BYTE   TIE  Cn3  v103
 BYTE   TIE  Cs3
 BYTE   W96
 BYTE   PEND 
//  #13 //005   ----------------------------------------
Label_01003059:
 BYTE   W92
 BYTE   W03
 BYTE   EOT
 BYTE   Cn3  v061
 BYTE   W01
 BYTE   PEND 
//  #13 //006   ----------------------------------------
Label_01003060:
 BYTE   TIE  Cn3  v103
 BYTE   TIE  Cs3
 BYTE   W96
//  #13 //007   ----------------------------------------
 BYTE   PATT
  POIN2 Label_01003059
//  #13 //008   ----------------------------------------
 BYTE   PATT
  POIN2 Label_01003052
//  #13 //009   ----------------------------------------
 BYTE   PATT
  POIN2 Label_01003059
//  #13 //010   ----------------------------------------
 BYTE   PATT
  POIN2 Label_01003052
//  #13 //011   ----------------------------------------
 BYTE   PATT
  POIN2 Label_01003059
//  #13 //012   ----------------------------------------
 BYTE   PATT
  POIN2 Label_01003052
//  #13 //013   ----------------------------------------
 BYTE   PATT
  POIN2 Label_01003059
//  #13 //014   ----------------------------------------
 BYTE   W96
//  #13 //015   ----------------------------------------
 BYTE   W96
//  #13 //016   ----------------------------------------
 BYTE   W96
//  #13 //017   ----------------------------------------
 BYTE   W72
 BYTE   N23  Cn3  v103
 BYTE   N23  Cs3
 BYTE   W24
//  #13 //018   ----------------------------------------
 BYTE   PATT
  POIN2 Label_01003052
//  #13 //019   ----------------------------------------
 BYTE   PATT
  POIN2 Label_01003059
//  #13 //020   ----------------------------------------
 BYTE   PATT
  POIN2 Label_01003052
//  #13 //021   ----------------------------------------
 BYTE   PATT
  POIN2 Label_01003059
//  #13 //022   ----------------------------------------
 BYTE   PATT
  POIN2 Label_01003052
//  #13 //023   ----------------------------------------
 BYTE   PATT
  POIN2 Label_01003059
//  #13 //024   ----------------------------------------
 BYTE   PATT
  POIN2 Label_01003052
//  #13 //025   ----------------------------------------
 BYTE   PATT
  POIN2 Label_01003059
//  #13 //026   ----------------------------------------
 BYTE   PATT
  POIN2 Label_01003052
//  #13 //027   ----------------------------------------
 BYTE   PATT
  POIN2 Label_01003059
//  #13 //028   ----------------------------------------
 BYTE   PATT
  POIN2 Label_01003052
//  #13 //029   ----------------------------------------
 BYTE   PATT
  POIN2 Label_01003059
//  #13 //030   ----------------------------------------
 BYTE   PATT
  POIN2 Label_01003052
//  #13 //031   ----------------------------------------
 BYTE   PATT
  POIN2 Label_01003059
//  #13 //032   ----------------------------------------
 BYTE   PATT
  POIN2 Label_01003052
//  #13 //033   ----------------------------------------
 BYTE   PATT
  POIN2 Label_01003059
//  #13 //034   ----------------------------------------
 BYTE   PATT
  POIN2 Label_01003052
//  #13 //035   ----------------------------------------
 BYTE   PATT
  POIN2 Label_01003059
//  #13 //036   ----------------------------------------
 BYTE   PATT
  POIN2 Label_01003052
//  #13 //037   ----------------------------------------
 BYTE   PATT
  POIN2 Label_01003059
//  #13 //038   ----------------------------------------
 BYTE   PATT
  POIN2 Label_01003052
//  #13 //039   ----------------------------------------
 BYTE   PATT
  POIN2 Label_01003059
//  #13 //040   ----------------------------------------
 BYTE   PATT
  POIN2 Label_01003052
//  #13 //041   ----------------------------------------
 BYTE   PATT
  POIN2 Label_01003059
//  #13 //042   ----------------------------------------
 BYTE   PATT
  POIN2 Label_01003052
//  #13 //043   ----------------------------------------
 BYTE   PATT
  POIN2 Label_01003059
//  #13 //044   ----------------------------------------
 BYTE   PATT
  POIN2 Label_01003052
//  #13 //045   ----------------------------------------
 BYTE   PATT
  POIN2 Label_01003059
//  #13 //046   ----------------------------------------
 BYTE   PATT
  POIN2 Label_01003052
//  #13 //047   ----------------------------------------
 BYTE   PATT
  POIN2 Label_01003059
//  #13 //048   ----------------------------------------
 BYTE   PATT
  POIN2 Label_01003052
//  #13 //049   ----------------------------------------
 BYTE   PATT
  POIN2 Label_01003059
//  #13 //050   ----------------------------------------
 BYTE   W96
//  #13 //051   ----------------------------------------
 BYTE   W96
//  #13 //052   ----------------------------------------
 BYTE   W96
//  #13 //053   ----------------------------------------
 BYTE   W96
//  #13 //054   ----------------------------------------
 BYTE   W96
//  #13 //055   ----------------------------------------
 BYTE   W96
//  #13 //056   ----------------------------------------
 BYTE   W96
//  #13 //057   ----------------------------------------
 BYTE   W72
 BYTE   N23  Fs3  v106
 BYTE   N23  Gn3
 BYTE   W24
//  #13 //058   ----------------------------------------
 BYTE   PATT
  POIN2 Label_01003052
//  #13 //059   ----------------------------------------
 BYTE   PATT
  POIN2 Label_01003059
//  #13 //060   ----------------------------------------
 BYTE   GoTo
  POIN2 Label_01003060
 BYTE   FINE

//**************** Track 14 (Midi-Chn.13) ****************//

MLBowsersInsideStoryTheGrandFinaleFE8MeteorSR23_014:
//  #14 //000   ----------------------------------------
 BYTE   KEYSH   MLBowsersInsideStoryTheGrandFinaleFE8MeteorSR23_key+0
 BYTE   VOICE   48
 BYTE   PAN   c_v+15
 BYTE   VOL   63*MLBowsersInsideStoryTheGrandFinaleFE8MeteorSR23_mvl/mxv
 BYTE   W96
//  #14 //001   ----------------------------------------
 BYTE   W96
//  #14 //002   ----------------------------------------
 BYTE   W96
//  #14 //003   ----------------------------------------
 BYTE   W96
//  #14 //004   ----------------------------------------
 BYTE   TIE  Gs0  v074
 BYTE   W96
//  #14 //005   ----------------------------------------
Label_0100445C:
 BYTE   W68
 BYTE   W03
 BYTE   EOT
 BYTE   Gs0
 BYTE   W01
 BYTE   N03  Cs2  v090
 BYTE   W04
 BYTE   Ds2
 BYTE   W04
 BYTE   En2
 BYTE   W04
 BYTE   Fs2
 BYTE   W04
 BYTE   Gs2
 BYTE   W04
 BYTE   As2
 BYTE   W04
 BYTE   PEND 
//  #14 //006   ----------------------------------------
Label_01004470:
 BYTE   N68  Gs2  v079  gtp3
 BYTE   W72
 BYTE   N23  Ds3  v074
 BYTE   W24
//  #14 //007   ----------------------------------------
Label_01004479:
 BYTE   N44  Gs3  v074  gtp3
 BYTE   W48
 BYTE   N44
 BYTE   W48
 BYTE   PEND 
//  #14 //008   ----------------------------------------
Label_01004481:
 BYTE   N68  Ds3  v074  gtp3
 BYTE   W72
 BYTE   N23  As2
 BYTE   W24
 BYTE   PEND 
//  #14 //009   ----------------------------------------
 BYTE   N40  Ds3  v074  gtp1
 BYTE   W48
 BYTE   N23
 BYTE   W24
 BYTE   Ds3
 BYTE   W24
//  #14 //010   ----------------------------------------
 BYTE   N68  En3  v074  gtp3
 BYTE   W72
 BYTE   N23
 BYTE   W24
//  #14 //011   ----------------------------------------
 BYTE   N68  Gs3  v074  gtp3
 BYTE   W72
 BYTE   N23
 BYTE   W24
//  #14 //012   ----------------------------------------
 BYTE   N80  Fs3
 BYTE   W84
 BYTE   N11
 BYTE   W12
//  #14 //013   ----------------------------------------
 BYTE   N44  Gn3  v074  gtp3
 BYTE   W48
 BYTE   N44
 BYTE   W48
//  #14 //014   ----------------------------------------
 BYTE   W96
//  #14 //015   ----------------------------------------
 BYTE   W96
//  #14 //016   ----------------------------------------
 BYTE   W96
//  #14 //017   ----------------------------------------
 BYTE   W96
//  #14 //018   ----------------------------------------
 BYTE   N68  Gs2  v074  gtp3
 BYTE   W72
 BYTE   N23  Ds3
 BYTE   W24
//  #14 //019   ----------------------------------------
 BYTE   PATT
  POIN2 Label_01004479
//  #14 //020   ----------------------------------------
 BYTE   PATT
  POIN2 Label_01004481
//  #14 //021   ----------------------------------------
 BYTE   N44  Ds3  v074
 BYTE   W48
 BYTE   N23
 BYTE   W24
 BYTE   Ds3
 BYTE   W24
//  #14 //022   ----------------------------------------
 BYTE   En3
 BYTE   W24
 BYTE   TIE
 BYTE   W72
//  #14 //023   ----------------------------------------
 BYTE   W44
 BYTE   W03
 BYTE   EOT
 BYTE   W01
 BYTE   N23  Gs3
 BYTE   W24
 BYTE   Gs3
 BYTE   W24
//  #14 //024   ----------------------------------------
 BYTE   N68  Fs3  v074  gtp3
 BYTE   W72
 BYTE   N23
 BYTE   W24
//  #14 //025   ----------------------------------------
 BYTE   N44  Gn3
 BYTE   W48
 BYTE   N07  As2  v089
 BYTE   W08
 BYTE   Ds3
 BYTE   W08
 BYTE   Fn3
 BYTE   W08
 BYTE   Gn3
 BYTE   W08
 BYTE   Gs3
 BYTE   W08
 BYTE   As3
 BYTE   W08
//  #14 //026   ----------------------------------------
 BYTE   N32  Gs3  v065  gtp3
 BYTE   W36
 BYTE   N05  En3
 BYTE   W12
 BYTE   N68  En3  v065  gtp3
 BYTE   W48
//  #14 //027   ----------------------------------------
 BYTE   W24
 BYTE   N23  As3
 BYTE   W24
 BYTE   Gs3
 BYTE   W24
 BYTE   Fs3
 BYTE   W24
//  #14 //028   ----------------------------------------
 BYTE   N32  Fs3  v065  gtp3
 BYTE   W36
 BYTE   N05  Fn3
 BYTE   W06
 BYTE   Fs3
 BYTE   W06
 BYTE   N88  Gs3  v065  gtp1
 BYTE   W48
//  #14 //029   ----------------------------------------
 BYTE   W48
 BYTE   N23  As3
 BYTE   W24
 BYTE   Bn3
 BYTE   W24
//  #14 //030   ----------------------------------------
 BYTE   N32  As3  v065  gtp3
 BYTE   W36
 BYTE   N05  Cs3
 BYTE   W12
 BYTE   N44  Cs3  v065  gtp3
 BYTE   W48
//  #14 //031   ----------------------------------------
 BYTE   N23  Cs3  v060
 BYTE   W24
 BYTE   Cs4  v065
 BYTE   W24
 BYTE   Bn3
 BYTE   W24
 BYTE   As3
 BYTE   W24
//  #14 //032   ----------------------------------------
 BYTE   N32  As3  v065  gtp3
 BYTE   W36
 BYTE   N05  Gs3
 BYTE   W06
 BYTE   As3
 BYTE   W06
 BYTE   N92  As3  v065  gtp3
 BYTE   W48
//  #14 //033   ----------------------------------------
 BYTE   W48
 BYTE   N23
 BYTE   W24
 BYTE   N20
 BYTE   W24
//  #14 //034   ----------------------------------------
Label_01004546:
 BYTE   W24
 BYTE   N23  Bn3  v069
 BYTE   W24
 BYTE   As3
 BYTE   W24
 BYTE   Gs3
 BYTE   W24
 BYTE   PEND 
//  #14 //035   ----------------------------------------
 BYTE   Fs3
 BYTE   W24
 BYTE   As3
 BYTE   W24
 BYTE   As3
 BYTE   W24
 BYTE   Gs3
 BYTE   W24
//  #14 //036   ----------------------------------------
 BYTE   N32  Fs3  v069  gtp3
 BYTE   W36
 BYTE   N05  Fn3
 BYTE   W06
 BYTE   Fs3
 BYTE   W06
 BYTE   N92  Gs3  v069  gtp3
 BYTE   W48
//  #14 //037   ----------------------------------------
 BYTE   W48
 BYTE   N23  Fs3
 BYTE   W24
 BYTE   Gs3
 BYTE   W24
//  #14 //038   ----------------------------------------
 BYTE   N15  Gs3  v074
 BYTE   W16
 BYTE   N11  Fn3  v069
 BYTE   W16
 BYTE   Gs2
 BYTE   W16
 BYTE   N88  Gs2  v069  gtp1
 BYTE   W48
//  #14 //039   ----------------------------------------
 BYTE   W48
 BYTE   N23  Cs3
 BYTE   W24
 BYTE   Cs3
 BYTE   W24
//  #14 //040   ----------------------------------------
 BYTE   N32  Cs3  v069  gtp3
 BYTE   W36
 BYTE   N05
 BYTE   W06
 BYTE   Bn2
 BYTE   W06
 BYTE   N88  Cs3  v069  gtp1
 BYTE   W48
//  #14 //041   ----------------------------------------
 BYTE   W48
 BYTE   N23  As3
 BYTE   W24
 BYTE   N20
 BYTE   W24
//  #14 //042   ----------------------------------------
 BYTE   PATT
  POIN2 Label_01004546
//  #14 //043   ----------------------------------------
 BYTE   N23  Fs3  v069
 BYTE   W24
 BYTE   As3
 BYTE   W24
 BYTE   Cs4
 BYTE   W24
 BYTE   Gs3
 BYTE   W24
//  #14 //044   ----------------------------------------
 BYTE   N32  Fn3  v069  gtp3
 BYTE   W36
 BYTE   N05
 BYTE   W06
 BYTE   Fn3
 BYTE   W06
 BYTE   N44  Fn3  v069  gtp3
 BYTE   W48
//  #14 //045   ----------------------------------------
 BYTE   N44  En3
 BYTE   W48
 BYTE   N17  Fs3
 BYTE   W18
 BYTE   Gs3
 BYTE   W18
 BYTE   N11  As3
 BYTE   W12
//  #14 //046   ----------------------------------------
 BYTE   N15  Gs3  v074
 BYTE   W16
 BYTE   N11  Fn3  v069
 BYTE   W16
 BYTE   Gs2
 BYTE   W16
 BYTE   N30  Cs3  v069  gtp1
 BYTE   W32
 BYTE   N15  Gs2  v049
 BYTE   W16
//  #14 //047   ----------------------------------------
 BYTE   N40  Gs2  v069  gtp1
 BYTE   W48
 BYTE   N23  Cs3
 BYTE   W24
 BYTE   Cs3
 BYTE   W24
//  #14 //048   ----------------------------------------
 BYTE   N32  Cs3  v069  gtp3
 BYTE   W36
 BYTE   N05
 BYTE   W06
 BYTE   Bn2
 BYTE   W06
 BYTE   N44  Cs3  v069  gtp3
 BYTE   W48
//  #14 //049   ----------------------------------------
 BYTE   N32  As3  v069  gtp3
 BYTE   W36
 BYTE   N05  Gn3
 BYTE   W06
 BYTE   Gn3
 BYTE   W06
 BYTE   N20
 BYTE   W24
 BYTE   N03  Cs3  v085
 BYTE   W04
 BYTE   Ds3
 BYTE   W04
 BYTE   En3
 BYTE   W04
 BYTE   Gn3
 BYTE   W04
 BYTE   Gs3
 BYTE   W04
 BYTE   As3
 BYTE   W04
//  #14 //050   ----------------------------------------
 BYTE   TIE  Bn3  v064
 BYTE   W24
 BYTE   VOL   62*MLBowsersInsideStoryTheGrandFinaleFE8MeteorSR23_mvl/mxv
 BYTE   W03
 BYTE   VOL   61*MLBowsersInsideStoryTheGrandFinaleFE8MeteorSR23_mvl/mxv
 BYTE   W01
 BYTE   VOL   60*MLBowsersInsideStoryTheGrandFinaleFE8MeteorSR23_mvl/mxv
 BYTE   W03
 BYTE   VOL   58*MLBowsersInsideStoryTheGrandFinaleFE8MeteorSR23_mvl/mxv
 BYTE   W03
 BYTE   VOL   57*MLBowsersInsideStoryTheGrandFinaleFE8MeteorSR23_mvl/mxv
 BYTE   W01
 BYTE   VOL   56*MLBowsersInsideStoryTheGrandFinaleFE8MeteorSR23_mvl/mxv
 BYTE   W03
 BYTE   VOL   55*MLBowsersInsideStoryTheGrandFinaleFE8MeteorSR23_mvl/mxv
 BYTE   W01
 BYTE   VOL   54*MLBowsersInsideStoryTheGrandFinaleFE8MeteorSR23_mvl/mxv
 BYTE   W02
 BYTE   VOL   53*MLBowsersInsideStoryTheGrandFinaleFE8MeteorSR23_mvl/mxv
 BYTE   W01
 BYTE   VOL   52*MLBowsersInsideStoryTheGrandFinaleFE8MeteorSR23_mvl/mxv
 BYTE   W03
 BYTE   VOL   51*MLBowsersInsideStoryTheGrandFinaleFE8MeteorSR23_mvl/mxv
 BYTE   W01
 BYTE   VOL   50*MLBowsersInsideStoryTheGrandFinaleFE8MeteorSR23_mvl/mxv
 BYTE   W03
 BYTE   VOL   48*MLBowsersInsideStoryTheGrandFinaleFE8MeteorSR23_mvl/mxv
 BYTE   W03
 BYTE   VOL   47*MLBowsersInsideStoryTheGrandFinaleFE8MeteorSR23_mvl/mxv
 BYTE   W01
 BYTE   VOL   46*MLBowsersInsideStoryTheGrandFinaleFE8MeteorSR23_mvl/mxv
 BYTE   W03
 BYTE   VOL   44*MLBowsersInsideStoryTheGrandFinaleFE8MeteorSR23_mvl/mxv
 BYTE   W03
 BYTE   VOL   43*MLBowsersInsideStoryTheGrandFinaleFE8MeteorSR23_mvl/mxv
 BYTE   W01
 BYTE   VOL   42*MLBowsersInsideStoryTheGrandFinaleFE8MeteorSR23_mvl/mxv
 BYTE   W03
 BYTE   VOL   41*MLBowsersInsideStoryTheGrandFinaleFE8MeteorSR23_mvl/mxv
 BYTE   W01
 BYTE   VOL   40*MLBowsersInsideStoryTheGrandFinaleFE8MeteorSR23_mvl/mxv
 BYTE   W02
 BYTE   VOL   39*MLBowsersInsideStoryTheGrandFinaleFE8MeteorSR23_mvl/mxv
 BYTE   W01
 BYTE   VOL   38*MLBowsersInsideStoryTheGrandFinaleFE8MeteorSR23_mvl/mxv
 BYTE   W03
 BYTE   VOL   37*MLBowsersInsideStoryTheGrandFinaleFE8MeteorSR23_mvl/mxv
 BYTE   W01
 BYTE   VOL   36*MLBowsersInsideStoryTheGrandFinaleFE8MeteorSR23_mvl/mxv
 BYTE   W03
 BYTE   VOL   34*MLBowsersInsideStoryTheGrandFinaleFE8MeteorSR23_mvl/mxv
 BYTE   W03
 BYTE   VOL   33*MLBowsersInsideStoryTheGrandFinaleFE8MeteorSR23_mvl/mxv
 BYTE   W01
 BYTE   VOL   32*MLBowsersInsideStoryTheGrandFinaleFE8MeteorSR23_mvl/mxv
 BYTE   W03
 BYTE   VOL   31*MLBowsersInsideStoryTheGrandFinaleFE8MeteorSR23_mvl/mxv
 BYTE   W01
 BYTE   VOL   30*MLBowsersInsideStoryTheGrandFinaleFE8MeteorSR23_mvl/mxv
 BYTE   W02
 BYTE   VOL   29*MLBowsersInsideStoryTheGrandFinaleFE8MeteorSR23_mvl/mxv
 BYTE   W01
 BYTE   VOL   28*MLBowsersInsideStoryTheGrandFinaleFE8MeteorSR23_mvl/mxv
 BYTE   W03
 BYTE   VOL   27*MLBowsersInsideStoryTheGrandFinaleFE8MeteorSR23_mvl/mxv
 BYTE   W01
 BYTE   VOL   26*MLBowsersInsideStoryTheGrandFinaleFE8MeteorSR23_mvl/mxv
 BYTE   W03
 BYTE   VOL   24*MLBowsersInsideStoryTheGrandFinaleFE8MeteorSR23_mvl/mxv
 BYTE   W03
 BYTE   VOL   23*MLBowsersInsideStoryTheGrandFinaleFE8MeteorSR23_mvl/mxv
 BYTE   W01
//  #14 //051   ----------------------------------------
 BYTE   VOL   22*MLBowsersInsideStoryTheGrandFinaleFE8MeteorSR23_mvl/mxv
 BYTE   W03
 BYTE   VOL   20*MLBowsersInsideStoryTheGrandFinaleFE8MeteorSR23_mvl/mxv
 BYTE   W03
 BYTE   VOL   19*MLBowsersInsideStoryTheGrandFinaleFE8MeteorSR23_mvl/mxv
 BYTE   W01
 BYTE   VOL   18*MLBowsersInsideStoryTheGrandFinaleFE8MeteorSR23_mvl/mxv
 BYTE   W03
 BYTE   VOL   17*MLBowsersInsideStoryTheGrandFinaleFE8MeteorSR23_mvl/mxv
 BYTE   W01
 BYTE   VOL   16*MLBowsersInsideStoryTheGrandFinaleFE8MeteorSR23_mvl/mxv
 BYTE   W02
 BYTE   VOL   15*MLBowsersInsideStoryTheGrandFinaleFE8MeteorSR23_mvl/mxv
 BYTE   W01
 BYTE   VOL   14*MLBowsersInsideStoryTheGrandFinaleFE8MeteorSR23_mvl/mxv
 BYTE   W03
 BYTE   VOL   13*MLBowsersInsideStoryTheGrandFinaleFE8MeteorSR23_mvl/mxv
 BYTE   W01
 BYTE   VOL   12*MLBowsersInsideStoryTheGrandFinaleFE8MeteorSR23_mvl/mxv
 BYTE   W03
 BYTE   VOL   10*MLBowsersInsideStoryTheGrandFinaleFE8MeteorSR23_mvl/mxv
 BYTE   W03
 BYTE   VOL   9*MLBowsersInsideStoryTheGrandFinaleFE8MeteorSR23_mvl/mxv
 BYTE   W01
 BYTE   VOL   8*MLBowsersInsideStoryTheGrandFinaleFE8MeteorSR23_mvl/mxv
 BYTE   W03
 BYTE   VOL   7*MLBowsersInsideStoryTheGrandFinaleFE8MeteorSR23_mvl/mxv
 BYTE   W01
 BYTE   VOL   6*MLBowsersInsideStoryTheGrandFinaleFE8MeteorSR23_mvl/mxv
 BYTE   W02
 BYTE   VOL   5*MLBowsersInsideStoryTheGrandFinaleFE8MeteorSR23_mvl/mxv
 BYTE   W01
 BYTE   VOL   4*MLBowsersInsideStoryTheGrandFinaleFE8MeteorSR23_mvl/mxv
 BYTE   W03
 BYTE   VOL   3*MLBowsersInsideStoryTheGrandFinaleFE8MeteorSR23_mvl/mxv
 BYTE   W01
 BYTE   VOL   2*MLBowsersInsideStoryTheGrandFinaleFE8MeteorSR23_mvl/mxv
 BYTE   W03
 BYTE   VOL   0*MLBowsersInsideStoryTheGrandFinaleFE8MeteorSR23_mvl/mxv
 BYTE   W02
 BYTE   EOT
 BYTE   W54
 BYTE   W01
//  #14 //052   ----------------------------------------
 BYTE   W96
//  #14 //053   ----------------------------------------
 BYTE   VOL   63*MLBowsersInsideStoryTheGrandFinaleFE8MeteorSR23_mvl/mxv
 BYTE   W96
//  #14 //054   ----------------------------------------
 BYTE   W96
//  #14 //055   ----------------------------------------
 BYTE   W96
//  #14 //056   ----------------------------------------
 BYTE   W96
//  #14 //057   ----------------------------------------
 BYTE   W96
//  #14 //058   ----------------------------------------
 BYTE   TIE  Gs0  v074
 BYTE   W96
//  #14 //059   ----------------------------------------
 BYTE   PATT
  POIN2 Label_0100445C
//  #14 //060   ----------------------------------------
 BYTE   GoTo
  POIN2 Label_01004470
 BYTE   FINE

//******************************************************//
	ALIGN 4

MLBowsersInsideStoryTheGrandFinaleFE8MeteorSR23:
	BYTE	14	// NumTrks
	BYTE	0	// NumBlks
	BYTE	MLBowsersInsideStoryTheGrandFinaleFE8MeteorSR23_pri	// Priority
	BYTE	MLBowsersInsideStoryTheGrandFinaleFE8MeteorSR23_rev	// Reverb.
    
	POIN2	MLBowsersInsideStoryTheGrandFinaleFE8MeteorSR23_grp
    
	POIN2	MLBowsersInsideStoryTheGrandFinaleFE8MeteorSR23_001
	POIN2	MLBowsersInsideStoryTheGrandFinaleFE8MeteorSR23_002
	POIN2	MLBowsersInsideStoryTheGrandFinaleFE8MeteorSR23_003
	POIN2	MLBowsersInsideStoryTheGrandFinaleFE8MeteorSR23_004
	POIN2	MLBowsersInsideStoryTheGrandFinaleFE8MeteorSR23_005
	POIN2	MLBowsersInsideStoryTheGrandFinaleFE8MeteorSR23_006
	POIN2	MLBowsersInsideStoryTheGrandFinaleFE8MeteorSR23_007
	POIN2	MLBowsersInsideStoryTheGrandFinaleFE8MeteorSR23_008
	POIN2	MLBowsersInsideStoryTheGrandFinaleFE8MeteorSR23_009
	POIN2	MLBowsersInsideStoryTheGrandFinaleFE8MeteorSR23_010
	POIN2	MLBowsersInsideStoryTheGrandFinaleFE8MeteorSR23_011
	POIN2	MLBowsersInsideStoryTheGrandFinaleFE8MeteorSR23_012
	POIN2	MLBowsersInsideStoryTheGrandFinaleFE8MeteorSR23_013
	POIN2	MLBowsersInsideStoryTheGrandFinaleFE8MeteorSR23_014

	
