//Event file generated from Sappy .s format.
	#include "MPlayDef.event"

	#define	MLPartnersinTimeGritzyDesertSme_grp  voicegroup000
	#define	MLPartnersinTimeGritzyDesertSme_pri  0
	#define	MLPartnersinTimeGritzyDesertSme_rev  0
	#define	MLPartnersinTimeGritzyDesertSme_mvl  127
	#define	MLPartnersinTimeGritzyDesertSme_key  0
	#define	MLPartnersinTimeGritzyDesertSme_tbs  1
	#define	MLPartnersinTimeGritzyDesertSme_exg  0
	#define	MLPartnersinTimeGritzyDesertSme_cmp  1

	// .rodata
	//	MLPartnersinTimeGritzyDesertSme
	ALIGN 4


//**************** Track 1 (Midi-Chn.0) ****************//

MLPartnersinTimeGritzyDesertSme_001:
//  #01 //000   ----------------------------------------
 BYTE   KEYSH   MLPartnersinTimeGritzyDesertSme_key+0
 BYTE   TEMPO   122*MLPartnersinTimeGritzyDesertSme_tbs/2
 BYTE   VOICE   68
 BYTE   VOL   85*MLPartnersinTimeGritzyDesertSme_mvl/mxv
 BYTE   W96
//  #01 //001   ----------------------------------------
 BYTE   W96
//  #01 //002   ----------------------------------------
 BYTE   W96
//  #01 //003   ----------------------------------------
 BYTE   W96
//  #01 //004   ----------------------------------------
Label_01002138:
 BYTE   TIE  As2  v084
 BYTE   W03
 BYTE   W04
 BYTE   W03
 BYTE   W04
 BYTE   W03
 BYTE   W04
 BYTE   W03
 BYTE   MOD 28
 BYTE   W04
 BYTE   W04
 BYTE   W03
 BYTE   W04
 BYTE   W03
 BYTE   W04
 BYTE   W03
 BYTE   W04
 BYTE   W03
 BYTE   W04
 BYTE   W04
 BYTE   W03
 BYTE   W04
 BYTE   W03
 BYTE   W04
 BYTE   W03
 BYTE   W04
 BYTE   W03
 BYTE   W04
 BYTE   W04
//  #01 //005   ----------------------------------------
 BYTE   W44
 BYTE   W03
 BYTE   EOT
 BYTE   W01
 BYTE   MOD 0
 BYTE   N23  Dn3
 BYTE   W12
 BYTE   MOD 28
 BYTE   W12
 BYTE   MOD 0
 BYTE   N23  Ds3
 BYTE   W12
 BYTE   MOD 28
 BYTE   W12
//  #01 //006   ----------------------------------------
 BYTE   MOD 0
 BYTE   N32  Fn3
 BYTE   W18
 BYTE   MOD 27
 BYTE   W18
 BYTE   MOD 0
 BYTE   N01  Gs3
 BYTE   W01
 BYTE   TIE  As3
 BYTE   W32
 BYTE   W03
 BYTE   MOD 28
 BYTE   W24
//  #01 //007   ----------------------------------------
 BYTE   W44
 BYTE   W03
 BYTE   EOT
 BYTE   W01
 BYTE   MOD 0
 BYTE   N23  Fn3
 BYTE   W12
 BYTE   MOD 28
 BYTE   W12
 BYTE   MOD 0
 BYTE   N17  Ds3
 BYTE   W18
 BYTE   N02  Fn3
 BYTE   W03
 BYTE   Ds3
 BYTE   W03
//  #01 //008   ----------------------------------------
 BYTE   N32  Dn3
 BYTE   W18
 BYTE   MOD 28
 BYTE   W18
 BYTE   MOD 0
 BYTE   TIE  As2
 BYTE   W36
 BYTE   MOD 28
 BYTE   W24
//  #01 //009   ----------------------------------------
 BYTE   W44
 BYTE   W03
 BYTE   EOT
 BYTE   W01
 BYTE   MOD 0
 BYTE   N23  Cn3
 BYTE   W24
 BYTE   Ds3
 BYTE   W18
 BYTE   MOD 28
 BYTE   W06
//  #01 //010   ----------------------------------------
 BYTE   N11
 BYTE   W12
 BYTE   MOD 0
 BYTE   N11  Dn3
 BYTE   W12
 BYTE   Cn3
 BYTE   W12
 BYTE   TIE  Dn3
 BYTE   W36
 BYTE   MOD 27
 BYTE   W24
//  #01 //011   ----------------------------------------
 BYTE   W48
 BYTE   W01
 BYTE   W02
 BYTE   W01
 BYTE   W02
 BYTE   W02
 BYTE   W01
 BYTE   W02
 BYTE   W02
 BYTE   W01
 BYTE   W02
 BYTE   W02
 BYTE   W01
 BYTE   W02
 BYTE   W02
 BYTE   W01
 BYTE   W02
 BYTE   W02
 BYTE   W01
 BYTE   W02
 BYTE   W02
 BYTE   W01
 BYTE   W02
 BYTE   W01
 BYTE   W02
 BYTE   W02
 BYTE   W01
 BYTE   W02
 BYTE   W02
 BYTE   W01
 BYTE   EOT
 BYTE   W01
//  #01 //012   ----------------------------------------
 BYTE   MOD 0
 BYTE   W96
//  #01 //013   ----------------------------------------
 BYTE   W96
//  #01 //014   ----------------------------------------
 BYTE   W96
//  #01 //015   ----------------------------------------
 BYTE   W96
//  #01 //016   ----------------------------------------
 BYTE   W96
//  #01 //017   ----------------------------------------
 BYTE   W96
//  #01 //018   ----------------------------------------
 BYTE   W96
//  #01 //019   ----------------------------------------
 BYTE   W96
//  #01 //020   ----------------------------------------
 BYTE   TIE  As2
 BYTE   W02
 BYTE   W03
 BYTE   W03
 BYTE   W02
 BYTE   W03
 BYTE   W03
 BYTE   W02
 BYTE   MOD 26
 BYTE   W03
 BYTE   W03
 BYTE   W02
 BYTE   W03
 BYTE   W03
 BYTE   W02
 BYTE   W03
 BYTE   W03
 BYTE   W02
 BYTE   W03
 BYTE   W03
 BYTE   W02
 BYTE   W03
 BYTE   W03
 BYTE   W02
 BYTE   W03
 BYTE   W03
 BYTE   W02
 BYTE   W03
 BYTE   W03
 BYTE   W24
//  #01 //021   ----------------------------------------
 BYTE   W44
 BYTE   W03
 BYTE   EOT
 BYTE   W01
 BYTE   MOD 0
 BYTE   N23  Dn3
 BYTE   W12
 BYTE   MOD 26
 BYTE   W12
 BYTE   MOD 0
 BYTE   N23  Ds3
 BYTE   W12
 BYTE   MOD 26
 BYTE   W12
//  #01 //022   ----------------------------------------
 BYTE   MOD 0
 BYTE   N32  Fn3
 BYTE   W18
 BYTE   MOD 26
 BYTE   W18
 BYTE   MOD 0
 BYTE   TIE  As2
 BYTE   W30
 BYTE   MOD 27
 BYTE   W30
//  #01 //023   ----------------------------------------
 BYTE   W44
 BYTE   W03
 BYTE   EOT
 BYTE   W01
 BYTE   MOD 0
 BYTE   N23  Gs2
 BYTE   W12
 BYTE   MOD 28
 BYTE   W12
 BYTE   MOD 0
 BYTE   N23  As2
 BYTE   W12
 BYTE   MOD 28
 BYTE   W12
//  #01 //024   ----------------------------------------
 BYTE   MOD 0
 BYTE   N02  Dn3
 BYTE   W03
 BYTE   Ds3
 BYTE   W03
 BYTE   N28  Dn3
 BYTE   W18
 BYTE   MOD 28
 BYTE   W12
 BYTE   MOD 0
 BYTE   N32  Ds3
 BYTE   W18
 BYTE   MOD 28
 BYTE   W18
 BYTE   MOD 0
 BYTE   N23  Fn3
 BYTE   W12
 BYTE   MOD 28
 BYTE   W12
//  #01 //025   ----------------------------------------
 BYTE   MOD 0
 BYTE   N68  As3
 BYTE   W24
 BYTE   MOD 28
 BYTE   W48
 BYTE   MOD 0
 BYTE   N23  Fn3
 BYTE   W24
//  #01 //026   ----------------------------------------
 BYTE   N02  Ds3
 BYTE   W03
 BYTE   Fn3
 BYTE   W03
 BYTE   N28  Ds3
 BYTE   W12
 BYTE   MOD 29
 BYTE   W18
 BYTE   MOD 0
 BYTE   N32  Dn3
 BYTE   W18
 BYTE   MOD 30
 BYTE   W18
 BYTE   MOD 0
 BYTE   N23  Cn3
 BYTE   W24
//  #01 //027   ----------------------------------------
 BYTE   N92  Dn3
 BYTE   W24
 BYTE   MOD 26
 BYTE   W48
 BYTE   W01
 BYTE   W02
 BYTE   W01
 BYTE   W02
 BYTE   W02
 BYTE   W01
 BYTE   W02
 BYTE   W02
 BYTE   W01
 BYTE   W02
 BYTE   W02
 BYTE   W01
 BYTE   W02
 BYTE   W02
 BYTE   W01
//  #01 //028   ----------------------------------------
 BYTE   MOD 0
 BYTE   W96
//  #01 //029   ----------------------------------------
 BYTE   W96
//  #01 //030   ----------------------------------------
 BYTE   W96
//  #01 //031   ----------------------------------------
 BYTE   W96
//  #01 //032   ----------------------------------------
 BYTE   W96
//  #01 //033   ----------------------------------------
 BYTE   W96
//  #01 //034   ----------------------------------------
 BYTE   W96
//  #01 //035   ----------------------------------------
 BYTE   W92
 BYTE   W03
 BYTE   GoTo
  POIN2 Label_01002138
 BYTE   FINE

//**************** Track 2 (Midi-Chn.1) ****************//

MLPartnersinTimeGritzyDesertSme_002:
//  #02 //000   ----------------------------------------
 BYTE   KEYSH   MLPartnersinTimeGritzyDesertSme_key+0
 BYTE   VOICE   48
 BYTE   VOL   85*MLPartnersinTimeGritzyDesertSme_mvl/mxv
 BYTE   PAN   c_v-30
 BYTE   W96
//  #02 //001   ----------------------------------------
 BYTE   W96
//  #02 //002   ----------------------------------------
 BYTE   W96
//  #02 //003   ----------------------------------------
 BYTE   W96
//  #02 //004   ----------------------------------------
Label_010028B8:
 BYTE   TIE  As4  v064
 BYTE   W96
//  #02 //005   ----------------------------------------
 BYTE   W44
 BYTE   W03
 BYTE   EOT
 BYTE   W01
 BYTE   N44  Fn4
 BYTE   W48
//  #02 //006   ----------------------------------------
 BYTE   TIE  Ds4
 BYTE   W96
//  #02 //007   ----------------------------------------
 BYTE   W44
 BYTE   W03
 BYTE   EOT
 BYTE   W01
 BYTE   N44  As3
 BYTE   W48
//  #02 //008   ----------------------------------------
 BYTE   TIE  As4
 BYTE   W96
//  #02 //009   ----------------------------------------
 BYTE   W68
 BYTE   W03
 BYTE   EOT
 BYTE   W01
 BYTE   N23  Fn4
 BYTE   W24
//  #02 //010   ----------------------------------------
 BYTE   N32  Ds4
 BYTE   W36
 BYTE   TIE  Fn4
 BYTE   W60
//  #02 //011   ----------------------------------------
 BYTE   W68
 BYTE   W03
 BYTE   EOT
 BYTE   W01
 BYTE   N23  Gs4
 BYTE   W24
//  #02 //012   ----------------------------------------
 BYTE   TIE  As4  v068
 BYTE   W96
//  #02 //013   ----------------------------------------
 BYTE   W44
 BYTE   W03
 BYTE   EOT
 BYTE   W01
 BYTE   N44  Fn4
 BYTE   W48
//  #02 //014   ----------------------------------------
 BYTE   TIE  Ds4
 BYTE   W96
//  #02 //015   ----------------------------------------
 BYTE   W44
 BYTE   W03
 BYTE   EOT
 BYTE   W01
 BYTE   N44  As3
 BYTE   W48
//  #02 //016   ----------------------------------------
 BYTE   TIE  As4
 BYTE   W96
//  #02 //017   ----------------------------------------
 BYTE   W68
 BYTE   W03
 BYTE   EOT
 BYTE   W01
 BYTE   N23  Fn4
 BYTE   W24
//  #02 //018   ----------------------------------------
 BYTE   N92  Ds4
 BYTE   W96
//  #02 //019   ----------------------------------------
 BYTE   Fn4
 BYTE   W96
//  #02 //020   ----------------------------------------
 BYTE   TIE  As4  v064
 BYTE   W96
//  #02 //021   ----------------------------------------
 BYTE   W44
 BYTE   W03
 BYTE   EOT
 BYTE   W01
 BYTE   N44  Fn4
 BYTE   W48
//  #02 //022   ----------------------------------------
 BYTE   N32  Ds4
 BYTE   W36
 BYTE   Fn4
 BYTE   W36
 BYTE   N68  As3
 BYTE   W24
//  #02 //023   ----------------------------------------
 BYTE   W48
 BYTE   N23  Gs3
 BYTE   W24
 BYTE   As3
 BYTE   W24
//  #02 //024   ----------------------------------------
 BYTE   TIE  As4
 BYTE   W96
//  #02 //025   ----------------------------------------
 BYTE   W68
 BYTE   W03
 BYTE   EOT
 BYTE   W01
 BYTE   N23  Fn4
 BYTE   W24
//  #02 //026   ----------------------------------------
 BYTE   N32  Ds4
 BYTE   W36
 BYTE   Fn4
 BYTE   W36
 BYTE   N23  Ds4
 BYTE   W24
//  #02 //027   ----------------------------------------
 BYTE   N92  Fn4
 BYTE   W96
//  #02 //028   ----------------------------------------
 BYTE   W96
//  #02 //029   ----------------------------------------
 BYTE   W96
//  #02 //030   ----------------------------------------
 BYTE   W96
//  #02 //031   ----------------------------------------
 BYTE   W96
//  #02 //032   ----------------------------------------
 BYTE   TIE  As4
 BYTE   W07
 BYTE   W07
 BYTE   W07
 BYTE   W07
 BYTE   W07
 BYTE   W07
 BYTE   W07
 BYTE   W07
 BYTE   W08
 BYTE   W07
 BYTE   W07
 BYTE   W07
 BYTE   W07
 BYTE   W04
//  #02 //033   ----------------------------------------
 BYTE   W03
 BYTE   W07
 BYTE   W07
 BYTE   W07
 BYTE   W08
 BYTE   W07
 BYTE   W07
 BYTE   W07
 BYTE   W07
 BYTE   W07
 BYTE   W07
 BYTE   W07
 BYTE   W07
 BYTE   W08
//  #02 //034   ----------------------------------------
 BYTE   W96
//  #02 //035   ----------------------------------------
 BYTE   W04
 BYTE   W04
 BYTE   W04
 BYTE   W01
 BYTE   W03
 BYTE   W01
 BYTE   W03
 BYTE   W01
 BYTE   W03
 BYTE   W01
 BYTE   W03
 BYTE   W01
 BYTE   W03
 BYTE   W01
 BYTE   W03
 BYTE   W01
 BYTE   W03
 BYTE   W01
 BYTE   W03
 BYTE   W01
 BYTE   W04
 BYTE   W04
 BYTE   W04
 BYTE   W04
 BYTE   W01
 BYTE   W03
 BYTE   W01
 BYTE   W03
 BYTE   W01
 BYTE   W03
 BYTE   W01
 BYTE   W03
 BYTE   W01
 BYTE   W03
 BYTE   W01
 BYTE   W03
 BYTE   W01
 BYTE   W03
 BYTE   W01
 BYTE   W03
 BYTE   W01
 BYTE   W01
 BYTE   EOT
 BYTE   GoTo
  POIN2 Label_010028B8
 BYTE   FINE

//**************** Track 3 (Midi-Chn.2) ****************//

MLPartnersinTimeGritzyDesertSme_003:
//  #03 //000   ----------------------------------------
 BYTE   KEYSH   MLPartnersinTimeGritzyDesertSme_key+0
 BYTE   VOICE   48
 BYTE   VOL   85*MLPartnersinTimeGritzyDesertSme_mvl/mxv
 BYTE   TIE  As0  v088
 BYTE   W96
//  #03 //001   ----------------------------------------
 BYTE   W68
 BYTE   EOT
 BYTE   W04
 BYTE   N20
 BYTE   W24
//  #03 //002   ----------------------------------------
 BYTE   TIE
 BYTE   W96
//  #03 //003   ----------------------------------------
 BYTE   W92
 BYTE   EOT
 BYTE   W04
//  #03 //004   ----------------------------------------
Label_545B88:
 BYTE   W96
//  #03 //005   ----------------------------------------
 BYTE   W96
//  #03 //006   ----------------------------------------
 BYTE   W96
//  #03 //007   ----------------------------------------
 BYTE   W96
//  #03 //008   ----------------------------------------
 BYTE   W96
//  #03 //009   ----------------------------------------
 BYTE   W96
//  #03 //010   ----------------------------------------
 BYTE   W96
//  #03 //011   ----------------------------------------
 BYTE   W96
//  #03 //012   ----------------------------------------
 BYTE   TIE  As0  v088
 BYTE   W96
//  #03 //013   ----------------------------------------
 BYTE   W68
 BYTE   EOT
 BYTE   W04
 BYTE   N20
 BYTE   W24
//  #03 //014   ----------------------------------------
 BYTE   TIE
 BYTE   W96
//  #03 //015   ----------------------------------------
 BYTE   W92
 BYTE   EOT
 BYTE   W04
//  #03 //016   ----------------------------------------
 BYTE   TIE
 BYTE   W96
//  #03 //017   ----------------------------------------
 BYTE   W68
 BYTE   EOT
 BYTE   W04
 BYTE   N20
 BYTE   W24
//  #03 //018   ----------------------------------------
 BYTE   TIE
 BYTE   W96
//  #03 //019   ----------------------------------------
 BYTE   W92
 BYTE   EOT
 BYTE   W04
//  #03 //020   ----------------------------------------
 BYTE   W96
//  #03 //021   ----------------------------------------
 BYTE   W96
//  #03 //022   ----------------------------------------
 BYTE   W96
//  #03 //023   ----------------------------------------
 BYTE   W96
//  #03 //024   ----------------------------------------
 BYTE   W96
//  #03 //025   ----------------------------------------
 BYTE   W96
//  #03 //026   ----------------------------------------
 BYTE   W96
//  #03 //027   ----------------------------------------
 BYTE   W96
//  #03 //028   ----------------------------------------
 BYTE   TIE
 BYTE   W96
//  #03 //029   ----------------------------------------
 BYTE   W68
 BYTE   EOT
 BYTE   W04
 BYTE   N20
 BYTE   W24
//  #03 //030   ----------------------------------------
 BYTE   TIE
 BYTE   W96
//  #03 //031   ----------------------------------------
 BYTE   W92
 BYTE   EOT
 BYTE   W04
//  #03 //032   ----------------------------------------
 BYTE   TIE
 BYTE   W96
//  #03 //033   ----------------------------------------
 BYTE   W68
 BYTE   EOT
 BYTE   W04
 BYTE   N20
 BYTE   W24
//  #03 //034   ----------------------------------------
 BYTE   TIE
 BYTE   W96
//  #03 //035   ----------------------------------------
 BYTE   W92
 BYTE   EOT
 BYTE   W03
 BYTE   GoTo
  POIN2 Label_545B88
 BYTE   FINE

//**************** Track 4 (Midi-Chn.3) ****************//

MLPartnersinTimeGritzyDesertSme_004:
//  #04 //000   ----------------------------------------
 BYTE   KEYSH   MLPartnersinTimeGritzyDesertSme_key+0
 BYTE   VOICE   6
 BYTE   VOL   85*MLPartnersinTimeGritzyDesertSme_mvl/mxv
 BYTE   N05  As2  v072
 BYTE   W06
 BYTE   Dn3
 BYTE   W06
 BYTE   N11  Ds3
 BYTE   W12
 BYTE   Fn3
 BYTE   W12
 BYTE   Gs3
 BYTE   W12
 BYTE   Fn3
 BYTE   W12
 BYTE   Ds3
 BYTE   W12
 BYTE   Dn3
 BYTE   W12
 BYTE   As2
 BYTE   W12
//  #04 //001   ----------------------------------------
Label_010024D7:
 BYTE   N05  Dn3  v072
 BYTE   W06
 BYTE   Ds3
 BYTE   W06
 BYTE   N11  Fn3
 BYTE   W12
 BYTE   Gs3
 BYTE   W12
 BYTE   Fn3
 BYTE   W12
 BYTE   Ds3
 BYTE   W12
 BYTE   Dn3
 BYTE   W12
 BYTE   N23  As2
 BYTE   W24
 BYTE   PEND 
//  #04 //002   ----------------------------------------
Label_010024EC:
 BYTE   N05  As2  v072
 BYTE   W06
 BYTE   Dn3
 BYTE   W06
 BYTE   N11  Ds3
 BYTE   W12
 BYTE   Fn3
 BYTE   W12
 BYTE   Gs3
 BYTE   W12
 BYTE   Fn3
 BYTE   W12
 BYTE   Ds3
 BYTE   W12
 BYTE   Dn3
 BYTE   W12
 BYTE   As2
 BYTE   W12
 BYTE   PEND 
//  #04 //003   ----------------------------------------
 BYTE   PATT
  POIN2 Label_010024D7
//  #04 //004   ----------------------------------------
Label_01002507:
//  #04 //005   ----------------------------------------
 BYTE   PATT
  POIN2 Label_010024EC
//  #04 //006   ----------------------------------------
 BYTE   PATT
  POIN2 Label_010024D7
//  #04 //007   ----------------------------------------
 BYTE   PATT
  POIN2 Label_010024EC
//  #04 //008   ----------------------------------------
 BYTE   PATT
  POIN2 Label_010024D7
//  #04 //009   ----------------------------------------
 BYTE   PATT
  POIN2 Label_010024EC
//  #04 //010   ----------------------------------------
 BYTE   PATT
  POIN2 Label_010024D7
//  #04 //011   ----------------------------------------
 BYTE   PATT
  POIN2 Label_010024EC
//  #04 //012   ----------------------------------------
 BYTE   PATT
  POIN2 Label_010024D7
//  #04 //013   ----------------------------------------
 BYTE   PATT
  POIN2 Label_010024EC
//  #04 //014   ----------------------------------------
 BYTE   PATT
  POIN2 Label_010024D7
//  #04 //015   ----------------------------------------
 BYTE   PATT
  POIN2 Label_010024EC
//  #04 //016   ----------------------------------------
 BYTE   PATT
  POIN2 Label_010024D7
//  #04 //017   ----------------------------------------
 BYTE   PATT
  POIN2 Label_010024EC
//  #04 //018   ----------------------------------------
 BYTE   PATT
  POIN2 Label_010024D7
//  #04 //019   ----------------------------------------
 BYTE   PATT
  POIN2 Label_010024EC
//  #04 //020   ----------------------------------------
 BYTE   PATT
  POIN2 Label_010024D7
//  #04 //021   ----------------------------------------
 BYTE   PATT
  POIN2 Label_010024EC
//  #04 //022   ----------------------------------------
 BYTE   PATT
  POIN2 Label_010024D7
//  #04 //023   ----------------------------------------
 BYTE   PATT
  POIN2 Label_010024EC
//  #04 //024   ----------------------------------------
 BYTE   PATT
  POIN2 Label_010024D7
//  #04 //025   ----------------------------------------
 BYTE   PATT
  POIN2 Label_010024EC
//  #04 //026   ----------------------------------------
 BYTE   PATT
  POIN2 Label_010024D7
//  #04 //027   ----------------------------------------
 BYTE   PATT
  POIN2 Label_010024EC
//  #04 //028   ----------------------------------------
 BYTE   PATT
  POIN2 Label_010024D7
//  #04 //029   ----------------------------------------
 BYTE   PATT
  POIN2 Label_010024EC
//  #04 //030   ----------------------------------------
 BYTE   PATT
  POIN2 Label_010024D7
//  #04 //031   ----------------------------------------
 BYTE   PATT
  POIN2 Label_010024EC
//  #04 //032   ----------------------------------------
 BYTE   PATT
  POIN2 Label_010024D7
//  #04 //033   ----------------------------------------
 BYTE   PATT
  POIN2 Label_010024EC
//  #04 //034   ----------------------------------------
 BYTE   PATT
  POIN2 Label_010024D7
//  #04 //035   ----------------------------------------
 BYTE   PATT
  POIN2 Label_010024EC
//  #04 //036   ----------------------------------------
 BYTE   N05  Dn3  v072
 BYTE   W06
 BYTE   Ds3
 BYTE   W06
 BYTE   N11  Fn3
 BYTE   W12
 BYTE   Gs3
 BYTE   W12
 BYTE   Fn3
 BYTE   W12
 BYTE   Ds3
 BYTE   W12
 BYTE   Dn3
 BYTE   W12
 BYTE   N23  As2
 BYTE   W23
 BYTE   GoTo
  POIN2 Label_01002507
 BYTE   FINE

//**************** Track 5 (Midi-Chn.4) ****************//

MLPartnersinTimeGritzyDesertSme_005:
//  #05 //000   ----------------------------------------
 BYTE   KEYSH   MLPartnersinTimeGritzyDesertSme_key+0
 BYTE   VOICE   1
 BYTE   VOL   85*MLPartnersinTimeGritzyDesertSme_mvl/mxv
 BYTE   W96
//  #05 //001   ----------------------------------------
 BYTE   W96
//  #05 //002   ----------------------------------------
 BYTE   W96
//  #05 //003   ----------------------------------------
 BYTE   W96
//  #05 //004   ----------------------------------------
Label_545DA6:
 BYTE   W96
//  #05 //005   ----------------------------------------
 BYTE   W96
//  #05 //006   ----------------------------------------
 BYTE   W96
//  #05 //007   ----------------------------------------
 BYTE   W96
//  #05 //008   ----------------------------------------
 BYTE   W96
//  #05 //009   ----------------------------------------
 BYTE   W96
//  #05 //010   ----------------------------------------
 BYTE   W96
//  #05 //011   ----------------------------------------
 BYTE   W96
//  #05 //012   ----------------------------------------
 BYTE   TIE  Fn2  v100
 BYTE   W96
//  #05 //013   ----------------------------------------
 BYTE   W44
 BYTE   W03
 BYTE   EOT
 BYTE   W48
 BYTE   W01
//  #05 //014   ----------------------------------------
 BYTE   W96
//  #05 //015   ----------------------------------------
 BYTE   W96
//  #05 //016   ----------------------------------------
 BYTE   TIE
 BYTE   W96
//  #05 //017   ----------------------------------------
 BYTE   W44
 BYTE   W03
 BYTE   EOT
 BYTE   W48
 BYTE   W01
//  #05 //018   ----------------------------------------
 BYTE   W96
//  #05 //019   ----------------------------------------
 BYTE   W96
//  #05 //020   ----------------------------------------
 BYTE   TIE
 BYTE   W96
//  #05 //021   ----------------------------------------
 BYTE   W44
 BYTE   W03
 BYTE   EOT
 BYTE   W48
 BYTE   W01
//  #05 //022   ----------------------------------------
 BYTE   W96
//  #05 //023   ----------------------------------------
 BYTE   W96
//  #05 //024   ----------------------------------------
 BYTE   W96
//  #05 //025   ----------------------------------------
 BYTE   W96
//  #05 //026   ----------------------------------------
 BYTE   W96
//  #05 //027   ----------------------------------------
 BYTE   W96
//  #05 //028   ----------------------------------------
 BYTE   TIE
 BYTE   W96
//  #05 //029   ----------------------------------------
 BYTE   W44
 BYTE   W03
 BYTE   EOT
 BYTE   W48
 BYTE   W01
//  #05 //030   ----------------------------------------
 BYTE   W96
//  #05 //031   ----------------------------------------
 BYTE   W96
//  #05 //032   ----------------------------------------
 BYTE   TIE
 BYTE   W96
//  #05 //033   ----------------------------------------
 BYTE   W44
 BYTE   W03
 BYTE   EOT
 BYTE   W48
 BYTE   W01
//  #05 //034   ----------------------------------------
 BYTE   W96
//  #05 //035   ----------------------------------------
 BYTE   W92
 BYTE   W03
 BYTE   GoTo
  POIN2 Label_545DA6
 BYTE   FINE

//**************** Track 6 (Midi-Chn.5) ****************//

MLPartnersinTimeGritzyDesertSme_006:
//  #06 //000   ----------------------------------------
 BYTE   KEYSH   MLPartnersinTimeGritzyDesertSme_key+0
 BYTE   VOICE   0
 BYTE   VOL   85*MLPartnersinTimeGritzyDesertSme_mvl/mxv
 BYTE   TIE  As1  v076
 BYTE   W96
//  #06 //001   ----------------------------------------
 BYTE   W92
 BYTE   W03
 BYTE   EOT
 BYTE   W01
//  #06 //002   ----------------------------------------
 BYTE   TIE  As0
 BYTE   W96
//  #06 //003   ----------------------------------------
 BYTE   W92
 BYTE   W03
 BYTE   EOT
 BYTE   W01
//  #06 //004   ----------------------------------------
Label_545DFD:
 BYTE   W96
//  #06 //005   ----------------------------------------
 BYTE   W96
//  #06 //006   ----------------------------------------
 BYTE   W96
//  #06 //007   ----------------------------------------
 BYTE   W96
//  #06 //008   ----------------------------------------
 BYTE   W96
//  #06 //009   ----------------------------------------
 BYTE   W96
//  #06 //010   ----------------------------------------
 BYTE   W96
//  #06 //011   ----------------------------------------
 BYTE   W96
//  #06 //012   ----------------------------------------
 BYTE   TIE  As1  v084
 BYTE   W96
//  #06 //013   ----------------------------------------
 BYTE   W92
 BYTE   W03
 BYTE   EOT
 BYTE   W01
//  #06 //014   ----------------------------------------
 BYTE   W96
//  #06 //015   ----------------------------------------
 BYTE   W96
//  #06 //016   ----------------------------------------
 BYTE   TIE  As0  v096
 BYTE   W96
//  #06 //017   ----------------------------------------
 BYTE   W92
 BYTE   W03
 BYTE   EOT
 BYTE   W01
//  #06 //018   ----------------------------------------
 BYTE   W96
//  #06 //019   ----------------------------------------
 BYTE   W96
//  #06 //020   ----------------------------------------
 BYTE   W96
//  #06 //021   ----------------------------------------
 BYTE   W96
//  #06 //022   ----------------------------------------
 BYTE   W96
//  #06 //023   ----------------------------------------
 BYTE   W96
//  #06 //024   ----------------------------------------
 BYTE   W96
//  #06 //025   ----------------------------------------
 BYTE   W96
//  #06 //026   ----------------------------------------
 BYTE   W96
//  #06 //027   ----------------------------------------
 BYTE   W96
//  #06 //028   ----------------------------------------
 BYTE   TIE  As1  v084
 BYTE   W96
//  #06 //029   ----------------------------------------
 BYTE   W92
 BYTE   W03
 BYTE   EOT
 BYTE   W01
//  #06 //030   ----------------------------------------
 BYTE   W96
//  #06 //031   ----------------------------------------
 BYTE   W96
//  #06 //032   ----------------------------------------
 BYTE   TIE  As0  v096
 BYTE   W96
//  #06 //033   ----------------------------------------
 BYTE   W92
 BYTE   W03
 BYTE   EOT
 BYTE   W01
//  #06 //034   ----------------------------------------
 BYTE   W96
//  #06 //035   ----------------------------------------
 BYTE   W92
 BYTE   W03
 BYTE   GoTo
  POIN2 Label_545DFD
 BYTE   FINE

//**************** Track 7 (Midi-Chn.6) ****************//

MLPartnersinTimeGritzyDesertSme_007:
//  #07 //000   ----------------------------------------
 BYTE   KEYSH   MLPartnersinTimeGritzyDesertSme_key+0
 BYTE   VOICE   38
 BYTE   VOL   85*MLPartnersinTimeGritzyDesertSme_mvl/mxv
 BYTE   W96
//  #07 //001   ----------------------------------------
 BYTE   W96
//  #07 //002   ----------------------------------------
 BYTE   W96
//  #07 //003   ----------------------------------------
 BYTE   W96
//  #07 //004   ----------------------------------------
Label_5451DA:
 BYTE   N28  As0  v116
 BYTE   W36
 BYTE   N11  As1
 BYTE   W12
 BYTE   N17  As0
 BYTE   W24
 BYTE   As1
 BYTE   W24
 BYTE   PEND 
//  #07 //005   ----------------------------------------
Label_5451E7:
 BYTE   N08  As0  v116
 BYTE   W12
 BYTE   N17
 BYTE   W24
 BYTE   N11  As1
 BYTE   W12
 BYTE   N17  As0
 BYTE   W24
 BYTE   As1
 BYTE   W24
 BYTE   PEND 
//  #07 //006   ----------------------------------------
 BYTE   PATT
  POIN2 Label_5451DA
//  #07 //007   ----------------------------------------
 BYTE   PATT
  POIN2 Label_5451E7
//  #07 //008   ----------------------------------------
 BYTE   PATT
  POIN2 Label_5451DA
//  #07 //009   ----------------------------------------
 BYTE   PATT
  POIN2 Label_5451E7
//  #07 //010   ----------------------------------------
 BYTE   PATT
  POIN2 Label_5451DA
//  #07 //011   ----------------------------------------
 BYTE   PATT
  POIN2 Label_5451E7
//  #07 //012   ----------------------------------------
 BYTE   PATT
  POIN2 Label_5451DA
//  #07 //013   ----------------------------------------
 BYTE   PATT
  POIN2 Label_5451E7
//  #07 //014   ----------------------------------------
 BYTE   PATT
  POIN2 Label_5451DA
//  #07 //015   ----------------------------------------
 BYTE   PATT
  POIN2 Label_5451E7
//  #07 //016   ----------------------------------------
 BYTE   PATT
  POIN2 Label_5451DA
//  #07 //017   ----------------------------------------
 BYTE   PATT
  POIN2 Label_5451E7
//  #07 //018   ----------------------------------------
 BYTE   PATT
  POIN2 Label_5451DA
//  #07 //019   ----------------------------------------
 BYTE   PATT
  POIN2 Label_5451E7
//  #07 //020   ----------------------------------------
 BYTE   PATT
  POIN2 Label_5451DA
//  #07 //021   ----------------------------------------
 BYTE   PATT
  POIN2 Label_5451E7
//  #07 //022   ----------------------------------------
 BYTE   PATT
  POIN2 Label_5451DA
//  #07 //023   ----------------------------------------
 BYTE   PATT
  POIN2 Label_5451E7
//  #07 //024   ----------------------------------------
 BYTE   PATT
  POIN2 Label_5451DA
//  #07 //025   ----------------------------------------
 BYTE   PATT
  POIN2 Label_5451E7
//  #07 //026   ----------------------------------------
 BYTE   PATT
  POIN2 Label_5451DA
//  #07 //027   ----------------------------------------
 BYTE   PATT
  POIN2 Label_5451E7
//  #07 //028   ----------------------------------------
 BYTE   PATT
  POIN2 Label_5451DA
//  #07 //029   ----------------------------------------
 BYTE   PATT
  POIN2 Label_5451E7
//  #07 //030   ----------------------------------------
 BYTE   PATT
  POIN2 Label_5451DA
//  #07 //031   ----------------------------------------
 BYTE   PATT
  POIN2 Label_5451E7
//  #07 //032   ----------------------------------------
 BYTE   PATT
  POIN2 Label_5451DA
//  #07 //033   ----------------------------------------
 BYTE   PATT
  POIN2 Label_5451E7
//  #07 //034   ----------------------------------------
 BYTE   PATT
  POIN2 Label_5451DA
//  #07 //035   ----------------------------------------
 BYTE   N08  As0  v116
 BYTE   W12
 BYTE   N17
 BYTE   W24
 BYTE   N11  As1
 BYTE   W12
 BYTE   N17  As0
 BYTE   W24
 BYTE   As1
 BYTE   W23
 BYTE   GoTo
  POIN2 Label_5451DA
 BYTE   FINE

//**************** Track 8 (Midi-Chn.7) ****************//

MLPartnersinTimeGritzyDesertSme_008:
//  #08 //000   ----------------------------------------
 BYTE   KEYSH   MLPartnersinTimeGritzyDesertSme_key+0
 BYTE   VOICE   127
 BYTE   VOL   85*MLPartnersinTimeGritzyDesertSme_mvl/mxv
 BYTE   W96
//  #08 //001   ----------------------------------------
 BYTE   W96
//  #08 //002   ----------------------------------------
 BYTE   W96
//  #08 //003   ----------------------------------------
Label_0100236D:
 BYTE   W48
 BYTE   N05  Bn0  v124
 BYTE   W06
 BYTE   En1  v092
 BYTE   W06
 BYTE   En1  v112
 BYTE   W12
 BYTE   En1  v124
 BYTE   W06
 BYTE   Bn0
 BYTE   W06
 BYTE   En1  v104
 BYTE   W06
 BYTE   En1  v112
 BYTE   W06
 BYTE   PEND 
//  #08 //004   ----------------------------------------
Label_01002384:
 BYTE   N05  Bn0  v124
 BYTE   W12
 BYTE   N05
 BYTE   W12
 BYTE   En1  v112
 BYTE   W12
 BYTE   Bn0  v124
 BYTE   W06
 BYTE   En1  v092
 BYTE   W06
 BYTE   Bn0  v124
 BYTE   W06
 BYTE   En1  v112
 BYTE   W06
 BYTE   Bn0  v124
 BYTE   W12
 BYTE   En1
 BYTE   W12
 BYTE   Bn0
 BYTE   W06
 BYTE   En1  v104
 BYTE   W06
 BYTE   PEND 
//  #08 //005   ----------------------------------------
 BYTE   PATT
  POIN2 Label_01002384
//  #08 //006   ----------------------------------------
 BYTE   PATT
  POIN2 Label_01002384
//  #08 //007   ----------------------------------------
 BYTE   PATT
  POIN2 Label_01002384
//  #08 //008   ----------------------------------------
 BYTE   PATT
  POIN2 Label_01002384
//  #08 //009   ----------------------------------------
 BYTE   PATT
  POIN2 Label_01002384
//  #08 //010   ----------------------------------------
 BYTE   PATT
  POIN2 Label_01002384
//  #08 //011   ----------------------------------------
 BYTE   PATT
  POIN2 Label_01002384
//  #08 //012   ----------------------------------------
 BYTE   PATT
  POIN2 Label_01002384
//  #08 //013   ----------------------------------------
 BYTE   PATT
  POIN2 Label_01002384
//  #08 //014   ----------------------------------------
 BYTE   PATT
  POIN2 Label_01002384
//  #08 //015   ----------------------------------------
 BYTE   PATT
  POIN2 Label_01002384
//  #08 //016   ----------------------------------------
 BYTE   PATT
  POIN2 Label_01002384
//  #08 //017   ----------------------------------------
 BYTE   PATT
  POIN2 Label_01002384
//  #08 //018   ----------------------------------------
 BYTE   PATT
  POIN2 Label_01002384
//  #08 //019   ----------------------------------------
 BYTE   PATT
  POIN2 Label_01002384
//  #08 //020   ----------------------------------------
 BYTE   PATT
  POIN2 Label_01002384
//  #08 //021   ----------------------------------------
 BYTE   PATT
  POIN2 Label_01002384
//  #08 //022   ----------------------------------------
 BYTE   PATT
  POIN2 Label_01002384
//  #08 //023   ----------------------------------------
 BYTE   PATT
  POIN2 Label_01002384
//  #08 //024   ----------------------------------------
 BYTE   PATT
  POIN2 Label_01002384
//  #08 //025   ----------------------------------------
 BYTE   PATT
  POIN2 Label_01002384
//  #08 //026   ----------------------------------------
 BYTE   PATT
  POIN2 Label_01002384
//  #08 //027   ----------------------------------------
 BYTE   PATT
  POIN2 Label_01002384
//  #08 //028   ----------------------------------------
 BYTE   W96
//  #08 //029   ----------------------------------------
 BYTE   W72
 BYTE   N05  En1  v124
 BYTE   W06
 BYTE   En1  v104
 BYTE   W06
 BYTE   Bn0  v124
 BYTE   W06
 BYTE   En1  v112
 BYTE   W06
//  #08 //030   ----------------------------------------
 BYTE   W96
//  #08 //031   ----------------------------------------
 BYTE   PATT
  POIN2 Label_0100236D
//  #08 //032   ----------------------------------------
 BYTE   PATT
  POIN2 Label_01002384
//  #08 //033   ----------------------------------------
 BYTE   N05  Bn0  v124
 BYTE   W12
 BYTE   N05
 BYTE   W12
 BYTE   En1  v112
 BYTE   W12
 BYTE   Bn0  v124
 BYTE   W06
 BYTE   En1  v092
 BYTE   W06
 BYTE   Bn0  v124
 BYTE   W06
 BYTE   En1  v112
 BYTE   W06
 BYTE   Bn0  v124
 BYTE   W12
 BYTE   En1  v127
 BYTE   W06
 BYTE   En1  v112
 BYTE   W06
 BYTE   Bn0  v127
 BYTE   W06
 BYTE   En1  v104
 BYTE   W06
//  #08 //034   ----------------------------------------
 BYTE   PATT
  POIN2 Label_01002384
//  #08 //035   ----------------------------------------
 BYTE   N05  Bn0  v124
 BYTE   W12
 BYTE   N05
 BYTE   W12
 BYTE   En1  v112
 BYTE   W12
 BYTE   Bn0  v124
 BYTE   W06
 BYTE   En1  v092
 BYTE   W06
 BYTE   Bn0  v127
 BYTE   W06
 BYTE   En1  v104
 BYTE   W06
 BYTE   En1  v124
 BYTE   W12
 BYTE   En1  v127
 BYTE   W06
 BYTE   Bn0
 BYTE   W06
 BYTE   En1  v112
 BYTE   W06
 BYTE   En1  v124
 BYTE   W05
 BYTE   GoTo
  POIN2 Label_01002384
 BYTE   FINE

//**************** Track 9 (Midi-Chn.8) ****************//

MLPartnersinTimeGritzyDesertSme_009:
//  #09 //000   ----------------------------------------
 BYTE   KEYSH   MLPartnersinTimeGritzyDesertSme_key+0
 BYTE   VOICE   127
 BYTE   VOL   85*MLPartnersinTimeGritzyDesertSme_mvl/mxv
 BYTE   W96
//  #09 //001   ----------------------------------------
Label_54566B:
 BYTE   W78
 BYTE   N05  An1  v092
 BYTE   N05  Cn2
 BYTE   W12
 BYTE   Fn1  v104
 BYTE   N05  An1  v092
 BYTE   W06
 BYTE   PEND 
//  #09 //002   ----------------------------------------
 BYTE   W96
//  #09 //003   ----------------------------------------
 BYTE   W72
 BYTE   Cn2  v104
 BYTE   W06
 BYTE   An1
 BYTE   W06
 BYTE   Fn1
 BYTE   W06
 BYTE   Cn2
 BYTE   W06
//  #09 //004   ----------------------------------------
Label_545684:
 BYTE   N11  Fn1  v104
 BYTE   W96
//  #09 //005   ----------------------------------------
 BYTE   W96
//  #09 //006   ----------------------------------------
 BYTE   W96
//  #09 //007   ----------------------------------------
 BYTE   W96
//  #09 //008   ----------------------------------------
 BYTE   W96
//  #09 //009   ----------------------------------------
 BYTE   W96
//  #09 //010   ----------------------------------------
 BYTE   W96
//  #09 //011   ----------------------------------------
 BYTE   W72
 BYTE   N05  Cn2  v092
 BYTE   W06
 BYTE   An1
 BYTE   W06
 BYTE   Fn1
 BYTE   W06
 BYTE   Cn2
 BYTE   W06
//  #09 //012   ----------------------------------------
Label_545699:
 BYTE   N11  Fn1  v092
 BYTE   W12
 BYTE   Cn2
 BYTE   W12
 BYTE   An1
 BYTE   W12
 BYTE   Fn1
 BYTE   W12
 BYTE   Cn2
 BYTE   W12
 BYTE   An1
 BYTE   W12
 BYTE   N05  Fn1
 BYTE   W06
 BYTE   Cn2
 BYTE   W06
 BYTE   An1
 BYTE   W06
 BYTE   Fn1
 BYTE   W06
 BYTE   PEND 
//  #09 //013   ----------------------------------------
Label_5456B1:
 BYTE   N05  Fn1  v092
 BYTE   W06
 BYTE   Cn2
 BYTE   W06
 BYTE   N11  An1
 BYTE   W12
 BYTE   Fn1
 BYTE   W12
 BYTE   Cn2
 BYTE   W12
 BYTE   An1
 BYTE   W12
 BYTE   Fn1
 BYTE   W12
 BYTE   N05  Cn2
 BYTE   W06
 BYTE   An1
 BYTE   W06
 BYTE   Fn1
 BYTE   W06
 BYTE   Cn2
 BYTE   W06
 BYTE   PEND 
//  #09 //014   ----------------------------------------
 BYTE   PATT
  POIN2 Label_545699
//  #09 //015   ----------------------------------------
 BYTE   PATT
  POIN2 Label_5456B1
//  #09 //016   ----------------------------------------
 BYTE   PATT
  POIN2 Label_545699
//  #09 //017   ----------------------------------------
 BYTE   PATT
  POIN2 Label_5456B1
//  #09 //018   ----------------------------------------
 BYTE   PATT
  POIN2 Label_545699
//  #09 //019   ----------------------------------------
 BYTE   PATT
  POIN2 Label_5456B1
//  #09 //020   ----------------------------------------
 BYTE   PATT
  POIN2 Label_545699
//  #09 //021   ----------------------------------------
 BYTE   PATT
  POIN2 Label_5456B1
//  #09 //022   ----------------------------------------
 BYTE   PATT
  POIN2 Label_545699
//  #09 //023   ----------------------------------------
 BYTE   PATT
  POIN2 Label_5456B1
//  #09 //024   ----------------------------------------
 BYTE   PATT
  POIN2 Label_545699
//  #09 //025   ----------------------------------------
 BYTE   PATT
  POIN2 Label_5456B1
//  #09 //026   ----------------------------------------
 BYTE   PATT
  POIN2 Label_545699
//  #09 //027   ----------------------------------------
 BYTE   PATT
  POIN2 Label_5456B1
//  #09 //028   ----------------------------------------
 BYTE   PATT
  POIN2 Label_545699
//  #09 //029   ----------------------------------------
 BYTE   PATT
  POIN2 Label_5456B1
//  #09 //030   ----------------------------------------
 BYTE   PATT
  POIN2 Label_545699
//  #09 //031   ----------------------------------------
 BYTE   PATT
  POIN2 Label_5456B1
//  #09 //032   ----------------------------------------
 BYTE   N11  Fn1  v092
 BYTE   W96
//  #09 //033   ----------------------------------------
 BYTE   PATT
  POIN2 Label_54566B
//  #09 //034   ----------------------------------------
 BYTE   W96
//  #09 //035   ----------------------------------------
 BYTE   W72
 BYTE   N05  Cn2  v104
 BYTE   W06
 BYTE   An1
 BYTE   W06
 BYTE   Fn1
 BYTE   W06
 BYTE   Cn2
 BYTE   W05
 BYTE   GoTo
  POIN2 Label_545684
 BYTE   FINE

//**************** Track 10 (Midi-Chn.9) ****************//

MLPartnersinTimeGritzyDesertSme_010:
//  #10 //000   ----------------------------------------
 BYTE   KEYSH   MLPartnersinTimeGritzyDesertSme_key+0
 BYTE   VOICE   127
 BYTE   VOL   85*MLPartnersinTimeGritzyDesertSme_mvl/mxv
 BYTE   N05  Fs2  v052
 BYTE   W06
 BYTE   Fs2  v040
 BYTE   W06
 BYTE   Fs2  v072
 BYTE   W06
 BYTE   Fs2  v040
 BYTE   W06
 BYTE   Fs2  v052
 BYTE   W06
 BYTE   Fs2  v040
 BYTE   W06
 BYTE   Fs2  v072
 BYTE   W06
 BYTE   Fs2  v040
 BYTE   W06
 BYTE   Fs2  v052
 BYTE   W06
 BYTE   Fs2  v040
 BYTE   W06
 BYTE   Fs2  v072
 BYTE   W06
 BYTE   Fs2  v040
 BYTE   W06
 BYTE   Fs2  v052
 BYTE   W06
 BYTE   Fs2  v040
 BYTE   W06
 BYTE   Fs2  v072
 BYTE   W06
 BYTE   Fs2  v040
 BYTE   W06
//  #10 //001   ----------------------------------------
Label_54577B:
 BYTE   N05  Fs2  v052
 BYTE   W06
 BYTE   Fs2  v040
 BYTE   W06
 BYTE   Fs2  v072
 BYTE   W06
 BYTE   Fs2  v040
 BYTE   W06
 BYTE   Fs2  v052
 BYTE   W06
 BYTE   Fs2  v040
 BYTE   W06
 BYTE   Fs2  v072
 BYTE   W06
 BYTE   Fs2  v040
 BYTE   W06
 BYTE   Fs2  v052
 BYTE   W06
 BYTE   Fs2  v040
 BYTE   W06
 BYTE   Fs2  v072
 BYTE   W06
 BYTE   Fs2  v040
 BYTE   W06
 BYTE   Fs2  v052
 BYTE   W06
 BYTE   Fs2  v040
 BYTE   W06
 BYTE   Fs2  v072
 BYTE   W06
 BYTE   Fs2  v040
 BYTE   W06
 BYTE   PEND 
//  #10 //002   ----------------------------------------
 BYTE   PATT
  POIN2 Label_54577B
//  #10 //003   ----------------------------------------
 BYTE   PATT
  POIN2 Label_54577B
//  #10 //004   ----------------------------------------
Label_5457B7:
//  #10 //005   ----------------------------------------
 BYTE   PATT
  POIN2 Label_54577B
//  #10 //006   ----------------------------------------
 BYTE   PATT
  POIN2 Label_54577B
//  #10 //007   ----------------------------------------
 BYTE   PATT
  POIN2 Label_54577B
//  #10 //008   ----------------------------------------
 BYTE   PATT
  POIN2 Label_54577B
//  #10 //009   ----------------------------------------
 BYTE   PATT
  POIN2 Label_54577B
//  #10 //010   ----------------------------------------
 BYTE   PATT
  POIN2 Label_54577B
//  #10 //011   ----------------------------------------
 BYTE   PATT
  POIN2 Label_54577B
//  #10 //012   ----------------------------------------
 BYTE   PATT
  POIN2 Label_54577B
//  #10 //013   ----------------------------------------
 BYTE   PATT
  POIN2 Label_54577B
//  #10 //014   ----------------------------------------
 BYTE   PATT
  POIN2 Label_54577B
//  #10 //015   ----------------------------------------
 BYTE   PATT
  POIN2 Label_54577B
//  #10 //016   ----------------------------------------
 BYTE   PATT
  POIN2 Label_54577B
//  #10 //017   ----------------------------------------
 BYTE   PATT
  POIN2 Label_54577B
//  #10 //018   ----------------------------------------
 BYTE   PATT
  POIN2 Label_54577B
//  #10 //019   ----------------------------------------
 BYTE   PATT
  POIN2 Label_54577B
//  #10 //020   ----------------------------------------
 BYTE   PATT
  POIN2 Label_54577B
//  #10 //021   ----------------------------------------
 BYTE   PATT
  POIN2 Label_54577B
//  #10 //022   ----------------------------------------
 BYTE   PATT
  POIN2 Label_54577B
//  #10 //023   ----------------------------------------
 BYTE   PATT
  POIN2 Label_54577B
//  #10 //024   ----------------------------------------
 BYTE   PATT
  POIN2 Label_54577B
//  #10 //025   ----------------------------------------
 BYTE   PATT
  POIN2 Label_54577B
//  #10 //026   ----------------------------------------
 BYTE   PATT
  POIN2 Label_54577B
//  #10 //027   ----------------------------------------
 BYTE   PATT
  POIN2 Label_54577B
//  #10 //028   ----------------------------------------
 BYTE   PATT
  POIN2 Label_54577B
//  #10 //029   ----------------------------------------
 BYTE   PATT
  POIN2 Label_54577B
//  #10 //030   ----------------------------------------
 BYTE   PATT
  POIN2 Label_54577B
//  #10 //031   ----------------------------------------
 BYTE   PATT
  POIN2 Label_54577B
//  #10 //032   ----------------------------------------
 BYTE   PATT
  POIN2 Label_54577B
//  #10 //033   ----------------------------------------
 BYTE   PATT
  POIN2 Label_54577B
//  #10 //034   ----------------------------------------
 BYTE   PATT
  POIN2 Label_54577B
//  #10 //035   ----------------------------------------
 BYTE   PATT
  POIN2 Label_54577B
//  #10 //036   ----------------------------------------
 BYTE   N05  Fs2  v052
 BYTE   W06
 BYTE   Fs2  v040
 BYTE   W06
 BYTE   Fs2  v072
 BYTE   W06
 BYTE   Fs2  v040
 BYTE   W06
 BYTE   Fs2  v052
 BYTE   W06
 BYTE   Fs2  v040
 BYTE   W06
 BYTE   Fs2  v072
 BYTE   W06
 BYTE   Fs2  v040
 BYTE   W06
 BYTE   Fs2  v052
 BYTE   W06
 BYTE   Fs2  v040
 BYTE   W06
 BYTE   Fs2  v072
 BYTE   W06
 BYTE   Fs2  v040
 BYTE   W06
 BYTE   Fs2  v052
 BYTE   W06
 BYTE   Fs2  v040
 BYTE   W06
 BYTE   Fs2  v072
 BYTE   W06
 BYTE   Fs2  v040
 BYTE   W05
 BYTE   GoTo
  POIN2 Label_5457B7
 BYTE   FINE

//**************** Track 11 (Midi-Chn.10) ****************//

MLPartnersinTimeGritzyDesertSme_011:
//  #11 //000   ----------------------------------------
 BYTE   KEYSH   MLPartnersinTimeGritzyDesertSme_key+0
 BYTE   VOICE   127
 BYTE   VOL   85*MLPartnersinTimeGritzyDesertSme_mvl/mxv
 BYTE   N05  As3  v056
 BYTE   W06
 BYTE   An3  v036
 BYTE   W06
 BYTE   As3  v056
 BYTE   W06
 BYTE   An3  v036
 BYTE   W06
 BYTE   As3  v056
 BYTE   W06
 BYTE   An3  v036
 BYTE   W06
 BYTE   As3  v056
 BYTE   W06
 BYTE   An3  v036
 BYTE   W06
 BYTE   As3  v056
 BYTE   W06
 BYTE   An3  v036
 BYTE   W06
 BYTE   As3  v056
 BYTE   W06
 BYTE   An3  v036
 BYTE   W06
 BYTE   As3  v056
 BYTE   W06
 BYTE   An3  v036
 BYTE   W06
 BYTE   As3  v056
 BYTE   W06
 BYTE   An3  v036
 BYTE   W06
//  #11 //001   ----------------------------------------
Label_01002647:
 BYTE   N05  As3  v056
 BYTE   W06
 BYTE   An3  v036
 BYTE   W06
 BYTE   As3  v056
 BYTE   W06
 BYTE   An3  v036
 BYTE   W06
 BYTE   As3  v056
 BYTE   W06
 BYTE   An3  v036
 BYTE   W06
 BYTE   As3  v056
 BYTE   W06
 BYTE   An3  v036
 BYTE   W06
 BYTE   As3  v056
 BYTE   W06
 BYTE   An3  v036
 BYTE   W06
 BYTE   As3  v056
 BYTE   W06
 BYTE   An3  v036
 BYTE   W06
 BYTE   As3  v056
 BYTE   W06
 BYTE   An3  v036
 BYTE   W06
 BYTE   As3  v056
 BYTE   W06
 BYTE   An3  v036
 BYTE   W06
 BYTE   PEND 
//  #11 //002   ----------------------------------------
 BYTE   PATT
  POIN2 Label_01002647
//  #11 //003   ----------------------------------------
 BYTE   PATT
  POIN2 Label_01002647
//  #11 //004   ----------------------------------------
Label_01002683:
//  #11 //005   ----------------------------------------
 BYTE   PATT
  POIN2 Label_01002647
//  #11 //006   ----------------------------------------
 BYTE   PATT
  POIN2 Label_01002647
//  #11 //007   ----------------------------------------
 BYTE   PATT
  POIN2 Label_01002647
//  #11 //008   ----------------------------------------
 BYTE   PATT
  POIN2 Label_01002647
//  #11 //009   ----------------------------------------
 BYTE   PATT
  POIN2 Label_01002647
//  #11 //010   ----------------------------------------
 BYTE   PATT
  POIN2 Label_01002647
//  #11 //011   ----------------------------------------
 BYTE   PATT
  POIN2 Label_01002647
//  #11 //012   ----------------------------------------
 BYTE   PATT
  POIN2 Label_01002647
//  #11 //013   ----------------------------------------
 BYTE   PATT
  POIN2 Label_01002647
//  #11 //014   ----------------------------------------
 BYTE   PATT
  POIN2 Label_01002647
//  #11 //015   ----------------------------------------
 BYTE   PATT
  POIN2 Label_01002647
//  #11 //016   ----------------------------------------
 BYTE   PATT
  POIN2 Label_01002647
//  #11 //017   ----------------------------------------
 BYTE   PATT
  POIN2 Label_01002647
//  #11 //018   ----------------------------------------
 BYTE   PATT
  POIN2 Label_01002647
//  #11 //019   ----------------------------------------
 BYTE   PATT
  POIN2 Label_01002647
//  #11 //020   ----------------------------------------
 BYTE   PATT
  POIN2 Label_01002647
//  #11 //021   ----------------------------------------
 BYTE   PATT
  POIN2 Label_01002647
//  #11 //022   ----------------------------------------
 BYTE   PATT
  POIN2 Label_01002647
//  #11 //023   ----------------------------------------
 BYTE   PATT
  POIN2 Label_01002647
//  #11 //024   ----------------------------------------
 BYTE   PATT
  POIN2 Label_01002647
//  #11 //025   ----------------------------------------
 BYTE   PATT
  POIN2 Label_01002647
//  #11 //026   ----------------------------------------
 BYTE   PATT
  POIN2 Label_01002647
//  #11 //027   ----------------------------------------
 BYTE   PATT
  POIN2 Label_01002647
//  #11 //028   ----------------------------------------
 BYTE   PATT
  POIN2 Label_01002647
//  #11 //029   ----------------------------------------
 BYTE   W96
//  #11 //030   ----------------------------------------
 BYTE   W96
//  #11 //031   ----------------------------------------
 BYTE   W96
//  #11 //032   ----------------------------------------
 BYTE   W96
//  #11 //033   ----------------------------------------
 BYTE   W96
//  #11 //034   ----------------------------------------
 BYTE   W72
 BYTE   N05  As3  v056
 BYTE   W06
 BYTE   An3  v036
 BYTE   W06
 BYTE   As3  v056
 BYTE   W06
 BYTE   An3  v036
 BYTE   W06
//  #11 //035   ----------------------------------------
 BYTE   PATT
  POIN2 Label_01002647
//  #11 //036   ----------------------------------------
 BYTE   N05  As3  v056
 BYTE   W06
 BYTE   An3  v036
 BYTE   W06
 BYTE   As3  v056
 BYTE   W06
 BYTE   An3  v036
 BYTE   W06
 BYTE   As3  v056
 BYTE   W06
 BYTE   An3  v036
 BYTE   W06
 BYTE   As3  v056
 BYTE   W06
 BYTE   An3  v036
 BYTE   W06
 BYTE   As3  v056
 BYTE   W06
 BYTE   An3  v036
 BYTE   W06
 BYTE   As3  v056
 BYTE   W06
 BYTE   An3  v036
 BYTE   W06
 BYTE   As3  v056
 BYTE   W06
 BYTE   An3  v036
 BYTE   W06
 BYTE   As3  v056
 BYTE   W06
 BYTE   An3  v036
 BYTE   W05
 BYTE   GoTo
  POIN2 Label_01002683
 BYTE   FINE

//**************** Track 12 (Midi-Chn.11) ****************//

MLPartnersinTimeGritzyDesertSme_012:
//  #12 //000   ----------------------------------------
 BYTE   KEYSH   MLPartnersinTimeGritzyDesertSme_key+0
 BYTE   VOICE   48
 BYTE   VOL   85*MLPartnersinTimeGritzyDesertSme_mvl/mxv
 BYTE   PAN   c_v+30
 BYTE   W96
//  #12 //001   ----------------------------------------
 BYTE   W96
//  #12 //002   ----------------------------------------
 BYTE   W96
//  #12 //003   ----------------------------------------
 BYTE   W96
//  #12 //004   ----------------------------------------
Label_010022A8:
 BYTE   TIE  Fn4  v056
 BYTE   W96
//  #12 //005   ----------------------------------------
 BYTE   W44
 BYTE   W03
 BYTE   EOT
 BYTE   W01
 BYTE   N44  As3
 BYTE   W48
//  #12 //006   ----------------------------------------
 BYTE   TIE
 BYTE   W96
//  #12 //007   ----------------------------------------
 BYTE   W44
 BYTE   W03
 BYTE   EOT
 BYTE   W01
 BYTE   N44  Fn3
 BYTE   W48
//  #12 //008   ----------------------------------------
 BYTE   TIE  Fn4
 BYTE   W96
//  #12 //009   ----------------------------------------
 BYTE   W68
 BYTE   W03
 BYTE   EOT
 BYTE   W01
 BYTE   N23  As3
 BYTE   W24
//  #12 //010   ----------------------------------------
 BYTE   TIE
 BYTE   W96
//  #12 //011   ----------------------------------------
 BYTE   W92
 BYTE   W03
 BYTE   EOT
 BYTE   W01
//  #12 //012   ----------------------------------------
 BYTE   TIE  Fn4  v064
 BYTE   W96
//  #12 //013   ----------------------------------------
 BYTE   W44
 BYTE   W03
 BYTE   EOT
 BYTE   W01
 BYTE   N44  As3
 BYTE   W48
//  #12 //014   ----------------------------------------
 BYTE   TIE
 BYTE   W96
//  #12 //015   ----------------------------------------
 BYTE   W44
 BYTE   W03
 BYTE   EOT
 BYTE   W01
 BYTE   N44  Fn3
 BYTE   W48
//  #12 //016   ----------------------------------------
 BYTE   TIE  Fn4
 BYTE   W96
//  #12 //017   ----------------------------------------
 BYTE   W68
 BYTE   W03
 BYTE   EOT
 BYTE   W01
 BYTE   N23  As3
 BYTE   W24
//  #12 //018   ----------------------------------------
 BYTE   N92
 BYTE   W96
//  #12 //019   ----------------------------------------
 BYTE   N92
 BYTE   W96
//  #12 //020   ----------------------------------------
 BYTE   TIE  Fn4  v056
 BYTE   W96
//  #12 //021   ----------------------------------------
 BYTE   W44
 BYTE   W03
 BYTE   EOT
 BYTE   W01
 BYTE   N44  As3
 BYTE   W48
//  #12 //022   ----------------------------------------
 BYTE   N68
 BYTE   W72
 BYTE   Fn3
 BYTE   W24
//  #12 //023   ----------------------------------------
 BYTE   W48
 BYTE   N44
 BYTE   W48
//  #12 //024   ----------------------------------------
 BYTE   TIE  Fn4
 BYTE   W96
//  #12 //025   ----------------------------------------
 BYTE   W68
 BYTE   W03
 BYTE   EOT
 BYTE   W01
 BYTE   N23  As3
 BYTE   W24
//  #12 //026   ----------------------------------------
 BYTE   N92
 BYTE   W96
//  #12 //027   ----------------------------------------
 BYTE   N92
 BYTE   W96
//  #12 //028   ----------------------------------------
 BYTE   W96
//  #12 //029   ----------------------------------------
 BYTE   W96
//  #12 //030   ----------------------------------------
 BYTE   W96
//  #12 //031   ----------------------------------------
 BYTE   W96
//  #12 //032   ----------------------------------------
 BYTE   TIE  Fn4  v064
 BYTE   W07
 BYTE   W07
 BYTE   W07
 BYTE   W07
 BYTE   W07
 BYTE   W07
 BYTE   W07
 BYTE   W07
 BYTE   W08
 BYTE   W07
 BYTE   W07
 BYTE   W07
 BYTE   W07
 BYTE   W04
//  #12 //033   ----------------------------------------
 BYTE   W03
 BYTE   W07
 BYTE   W07
 BYTE   W07
 BYTE   W08
 BYTE   W07
 BYTE   W07
 BYTE   W07
 BYTE   W07
 BYTE   W07
 BYTE   W07
 BYTE   W07
 BYTE   W07
 BYTE   W08
//  #12 //034   ----------------------------------------
 BYTE   W96
//  #12 //035   ----------------------------------------
 BYTE   W04
 BYTE   W04
 BYTE   W04
 BYTE   W01
 BYTE   W03
 BYTE   W01
 BYTE   W03
 BYTE   W01
 BYTE   W03
 BYTE   W01
 BYTE   W03
 BYTE   W01
 BYTE   W03
 BYTE   W01
 BYTE   W03
 BYTE   W01
 BYTE   W03
 BYTE   W01
 BYTE   W03
 BYTE   W01
 BYTE   W04
 BYTE   W04
 BYTE   W04
 BYTE   W04
 BYTE   W01
 BYTE   W03
 BYTE   W01
 BYTE   W03
 BYTE   W01
 BYTE   W03
 BYTE   W01
 BYTE   W03
 BYTE   W01
 BYTE   W03
 BYTE   W01
 BYTE   W03
 BYTE   W01
 BYTE   W03
 BYTE   W01
 BYTE   W03
 BYTE   W01
 BYTE   W01
 BYTE   EOT
 BYTE   GoTo
  POIN2 Label_010022A8
 BYTE   FINE

//******************************************************//
	ALIGN 4

MLPartnersinTimeGritzyDesertSme:
	BYTE	12	// NumTrks
	BYTE	0	// NumBlks
	BYTE	MLPartnersinTimeGritzyDesertSme_pri	// Priority
	BYTE	MLPartnersinTimeGritzyDesertSme_rev	// Reverb.
    
	POIN2	MLPartnersinTimeGritzyDesertSme_grp
    
	POIN2	MLPartnersinTimeGritzyDesertSme_001
	POIN2	MLPartnersinTimeGritzyDesertSme_002
	POIN2	MLPartnersinTimeGritzyDesertSme_003
	POIN2	MLPartnersinTimeGritzyDesertSme_004
	POIN2	MLPartnersinTimeGritzyDesertSme_005
	POIN2	MLPartnersinTimeGritzyDesertSme_006
	POIN2	MLPartnersinTimeGritzyDesertSme_007
	POIN2	MLPartnersinTimeGritzyDesertSme_008
	POIN2	MLPartnersinTimeGritzyDesertSme_009
	POIN2	MLPartnersinTimeGritzyDesertSme_010
	POIN2	MLPartnersinTimeGritzyDesertSme_011
	POIN2	MLPartnersinTimeGritzyDesertSme_012

	
