//Event file generated from Sappy .s format.
	#include "MPlayDef.event"

	#define	PaperMarioTTYDRegularEnemyPandan_grp  voicegroup000
	#define	PaperMarioTTYDRegularEnemyPandan_pri  0
	#define	PaperMarioTTYDRegularEnemyPandan_rev  0
	#define	PaperMarioTTYDRegularEnemyPandan_mvl  127
	#define	PaperMarioTTYDRegularEnemyPandan_key  0
	#define	PaperMarioTTYDRegularEnemyPandan_tbs  1
	#define	PaperMarioTTYDRegularEnemyPandan_exg  0
	#define	PaperMarioTTYDRegularEnemyPandan_cmp  1

	// .rodata
	//	PaperMarioTTYDRegularEnemyPandan
	ALIGN 4


//**************** Track 1 (Midi-Chn.0) ****************//

PaperMarioTTYDRegularEnemyPandan_001:
// 000   ----------------------------------------
 BYTE   KEYSH   PaperMarioTTYDRegularEnemyPandan_key+0
Label_0_0187ACDE:
 BYTE   TEMPO   136*PaperMarioTTYDRegularEnemyPandan_tbs/2
 BYTE   VOICE   4
 BYTE   PAN   c_v-1
 BYTE   VOL   59*PaperMarioTTYDRegularEnemyPandan_mvl/mxv
 BYTE   Bn2
 BYTE   VOL   59*PaperMarioTTYDRegularEnemyPandan_mvl/mxv
 BYTE   VOL   59*PaperMarioTTYDRegularEnemyPandan_mvl/mxv
 BYTE   VOL   59*PaperMarioTTYDRegularEnemyPandan_mvl/mxv
 BYTE   VOL   59*PaperMarioTTYDRegularEnemyPandan_mvl/mxv
 BYTE   N01  An6  v096
 BYTE   W01
 BYTE   Gn6  v088
 BYTE   W02
 BYTE   Fn6  v080
 BYTE   W01
 BYTE   En6  v072
 BYTE   W02
 BYTE   Dn6  v068
 BYTE   W01
 BYTE   Cn6  v060
 BYTE   W02
 BYTE   Bn5  v056
 BYTE   W01
 BYTE   An5  v068
 BYTE   W02
 BYTE   Gn5
 BYTE   W01
 BYTE   Fn5  v064
 BYTE   W02
 BYTE   En5
 BYTE   W01
 BYTE   Dn5  v060
 BYTE   W02
 BYTE   Cn5  v056
 BYTE   W01
 BYTE   Bn4  v064
 BYTE   W02
 BYTE   An4  v060
 BYTE   W01
 BYTE   Gn4  v056
 BYTE   W02
 BYTE   Fn4  v052
 BYTE   W01
 BYTE   En4  v056
 BYTE   W02
 BYTE   Dn4
 BYTE   W01
 BYTE   Cn4  v060
 BYTE   W02
 BYTE   Bn3  v056
 BYTE   W01
 BYTE   An3  v052
 BYTE   W02
 BYTE   Gn3
 BYTE   W01
 BYTE   Fn3  v048
 BYTE   W02
 BYTE   En3  v036
 BYTE   W01
 BYTE   Dn3  v032
 BYTE   W02
 BYTE   Cn3  v028
 BYTE   W01
 BYTE   Bn2  v024
 BYTE   W02
 BYTE   An2  v016
 BYTE   W01
 BYTE   Gn2  v012
 BYTE   W02
 BYTE   Fn2  v008
 BYTE   W01
 BYTE   En2  v004
 BYTE   W02
 BYTE   N05  Dn4  v052
 BYTE   W12
 BYTE   An3  v024
 BYTE   W06
 BYTE   Dn4  v052
 BYTE   W12
 BYTE   An3  v020
 BYTE   W06
 BYTE   Dn4  v052
 BYTE   W12
// 001   ----------------------------------------
Label_0_0187AD5C:
 BYTE   W48
 BYTE   N05  En3  v064
 BYTE   N05  Gn3
 BYTE   W06
 BYTE   En3  v048
 BYTE   N05  Gn3
 BYTE   W06
 BYTE   En3  v032
 BYTE   N05  Gn3
 BYTE   W06
 BYTE   Gn3  v072
 BYTE   N05  Cn4
 BYTE   W06
 BYTE   Gn3  v056
 BYTE   N05  Cn4
 BYTE   W06
 BYTE   Gn3  v044
 BYTE   N05  Cn4
 BYTE   W06
 BYTE   Cn4  v088
 BYTE   N05  En4
 BYTE   W06
 BYTE   Cn4  v072
 BYTE   N05  En4
 BYTE   W06
 BYTE   PEND 
// 002   ----------------------------------------
Label_0_0187AD87:
 BYTE   N05  Cn4  v052
 BYTE   N05  En4
 BYTE   W06
 BYTE   Dn4  v072
 BYTE   N05  Gn4
 BYTE   W12
 BYTE   Dn4  v068
 BYTE   N05  Gn4
 BYTE   W06
 BYTE   En4
 BYTE   N05  An4
 BYTE   W12
 BYTE   Cn4
 BYTE   N05  En4
 BYTE   W12
 BYTE   Dn4  v052
 BYTE   W12
 BYTE   An3  v024
 BYTE   W06
 BYTE   Dn4  v052
 BYTE   W12
 BYTE   An3  v020
 BYTE   W06
 BYTE   Dn4  v052
 BYTE   W12
 BYTE   PEND 
 BYTE   PATT
  POIN2 Label_0_0187AD5C
// 003   ----------------------------------------
Label_0_0187ADB4:
 BYTE   N05  Cn4  v052
 BYTE   N05  En4
 BYTE   W12
 BYTE   N32  Cn4  v072
 BYTE   N32  En4
 BYTE   W84
 BYTE   PEND 
// 004   ----------------------------------------
 BYTE   W96
// 005   ----------------------------------------
 BYTE   W96
// 006   ----------------------------------------
 BYTE   W96
// 007   ----------------------------------------
 BYTE   W96
// 008   ----------------------------------------
 BYTE   W96
// 009   ----------------------------------------
 BYTE   W96
// 010   ----------------------------------------
 BYTE   W96
// 011   ----------------------------------------
 BYTE   W96
// 012   ----------------------------------------
 BYTE   W96
// 013   ----------------------------------------
 BYTE   W96
// 014   ----------------------------------------
 BYTE   W96
// 015   ----------------------------------------
 BYTE   W96
// 016   ----------------------------------------
 BYTE   W96
// 017   ----------------------------------------
 BYTE   W96
// 018   ----------------------------------------
 BYTE   W96
// 019   ----------------------------------------
 BYTE   W48
 BYTE   N05  Dn4  v052
 BYTE   W12
 BYTE   An3  v024
 BYTE   W06
 BYTE   Dn4  v052
 BYTE   W12
 BYTE   An3  v020
 BYTE   W06
 BYTE   Dn4  v052
 BYTE   W12
 BYTE   PATT
  POIN2 Label_0_0187AD5C
 BYTE   PATT
  POIN2 Label_0_0187AD87
 BYTE   PATT
  POIN2 Label_0_0187AD5C
 BYTE   PATT
  POIN2 Label_0_0187ADB4
// 020   ----------------------------------------
 BYTE   W96
// 021   ----------------------------------------
 BYTE   W96
// 022   ----------------------------------------
 BYTE   W96
// 023   ----------------------------------------
 BYTE   W96
// 024   ----------------------------------------
 BYTE   W96
// 025   ----------------------------------------
 BYTE   W96
// 026   ----------------------------------------
 BYTE   W96
// 027   ----------------------------------------
 BYTE   W96
// 028   ----------------------------------------
 BYTE   W96
// 029   ----------------------------------------
 BYTE   W96
// 030   ----------------------------------------
 BYTE   W96
// 031   ----------------------------------------
 BYTE   W96
// 032   ----------------------------------------
 BYTE   W96
// 033   ----------------------------------------
 BYTE   W96
// 034   ----------------------------------------
 BYTE   W96
// 035   ----------------------------------------
 BYTE   W84
 BYTE   GoTo
  POIN2 Label_0_0187ACDE
// 036   ----------------------------------------
 BYTE   W12
 BYTE   W96
// 037   ----------------------------------------
 BYTE   TEMPO   136*PaperMarioTTYDRegularEnemyPandan_tbs/2
 BYTE   VOICE   4
 BYTE   VOL   59*PaperMarioTTYDRegularEnemyPandan_mvl/mxv
 BYTE   VOL   59*PaperMarioTTYDRegularEnemyPandan_mvl/mxv
 BYTE   VOL   59*PaperMarioTTYDRegularEnemyPandan_mvl/mxv
 BYTE   FINE

//**************** Track 2 (Midi-Chn.1) ****************//

PaperMarioTTYDRegularEnemyPandan_002:
// 000   ----------------------------------------
 BYTE   KEYSH   PaperMarioTTYDRegularEnemyPandan_key+0
Label_1_0187AE1A:
 BYTE   VOICE   62
 BYTE   PAN   c_v+1
 BYTE   VOL   52*PaperMarioTTYDRegularEnemyPandan_mvl/mxv
 BYTE   En2
 BYTE   VOL   52*PaperMarioTTYDRegularEnemyPandan_mvl/mxv
 BYTE   VOL   52*PaperMarioTTYDRegularEnemyPandan_mvl/mxv
 BYTE   VOL   52*PaperMarioTTYDRegularEnemyPandan_mvl/mxv
 BYTE   VOL   52*PaperMarioTTYDRegularEnemyPandan_mvl/mxv
 BYTE   W09
 BYTE   W36
 BYTE   W03
 BYTE   N05  Dn4  v092
 BYTE   W18
 BYTE   An3  v080
 BYTE   W18
 BYTE   Fs3
 BYTE   W12
// 001   ----------------------------------------
Label_1_0187AE35:
 BYTE   N05  Bn3  v080
 BYTE   W06
 BYTE   N05
 BYTE   W12
 BYTE   N05
 BYTE   W12
 BYTE   Bn3  v048
 BYTE   W06
 BYTE   As3  v080
 BYTE   W06
 BYTE   Bn3
 BYTE   W06
 BYTE   Cn4  v084
 BYTE   W06
 BYTE   Cn4  v064
 BYTE   W12
 BYTE   Dn4  v092
 BYTE   W06
 BYTE   Dn4  v076
 BYTE   W12
 BYTE   En4  v096
 BYTE   W06
 BYTE   En4  v084
 BYTE   W06
 BYTE   PEND 
// 002   ----------------------------------------
Label_1_0187AE58:
 BYTE   W12
 BYTE   N11  Gn4  v112
 BYTE   W12
 BYTE   N05  Fs4  v092
 BYTE   W12
 BYTE   En4  v080
 BYTE   W12
 BYTE   Dn4  v092
 BYTE   W18
 BYTE   An3  v080
 BYTE   W18
 BYTE   Fs3
 BYTE   W12
 BYTE   PEND 
// 003   ----------------------------------------
Label_1_0187AE6D:
 BYTE   N05  Bn3  v080
 BYTE   W06
 BYTE   N05
 BYTE   W12
 BYTE   N05
 BYTE   W12
 BYTE   Bn3  v052
 BYTE   W06
 BYTE   As3  v080
 BYTE   W06
 BYTE   Bn3
 BYTE   W06
 BYTE   Cn4  v084
 BYTE   W06
 BYTE   Cn4  v064
 BYTE   W12
 BYTE   Dn4  v092
 BYTE   W06
 BYTE   Dn4  v076
 BYTE   W12
 BYTE   En4  v096
 BYTE   W06
 BYTE   En4  v084
 BYTE   W06
 BYTE   PEND 
// 004   ----------------------------------------
 BYTE   W12
 BYTE   N32  An4  v096
 BYTE   W84
// 005   ----------------------------------------
 BYTE   W96
// 006   ----------------------------------------
Label_1_0187AE96:
 BYTE   W30
 BYTE   N05  En3  v084
 BYTE   W06
 BYTE   Fn3
 BYTE   W06
 BYTE   Fs3
 BYTE   W06
 BYTE   Gn3
 BYTE   W12
 BYTE   Fs3  v076
 BYTE   W06
 BYTE   Gn3  v084
 BYTE   W18
 BYTE   Gn3  v052
 BYTE   N05  Bn3  v088
 BYTE   W12
 BYTE   PEND 
// 007   ----------------------------------------
Label_1_0187AEAE:
 BYTE   N05  Fs3  v052
 BYTE   N05  As3  v080
 BYTE   W06
 BYTE   Gn3  v052
 BYTE   N05  Bn3  v088
 BYTE   W12
 BYTE   Gn3  v052
 BYTE   N05  Bn3  v088
 BYTE   W06
 BYTE   En3  v052
 BYTE   W06
 BYTE   N05
 BYTE   N05  En4  v080
 BYTE   W06
 BYTE   Fn3  v052
 BYTE   N05  Fn4  v080
 BYTE   W06
 BYTE   Fs3  v056
 BYTE   N05  Fs4  v080
 BYTE   W06
 BYTE   En4  v044
 BYTE   N05  Gn4  v084
 BYTE   W06
 BYTE   En4  v044
 BYTE   N05  Gn4  v088
 BYTE   W06
 BYTE   En4  v048
 BYTE   N05  Gn4  v092
 BYTE   W06
 BYTE   Dn4  v052
 BYTE   N05  Gs4  v096
 BYTE   W12
 BYTE   Dn4  v044
 BYTE   N05  Gs4  v088
 BYTE   W12
 BYTE   Cs4  v052
 BYTE   N05  An4  v100
 BYTE   W06
 BYTE   PEND 
// 008   ----------------------------------------
Label_1_0187AEFA:
 BYTE   W06
 BYTE   N05  Cs4  v052
 BYTE   N05  An4  v104
 BYTE   W12
 BYTE   Cs4  v052
 BYTE   N05  An4  v116
 BYTE   W06
 BYTE   Cs4  v052
 BYTE   N05  An4  v088
 BYTE   W72
 BYTE   PEND 
// 009   ----------------------------------------
 BYTE   W96
// 010   ----------------------------------------
 BYTE   W96
// 011   ----------------------------------------
 BYTE   W96
// 012   ----------------------------------------
 BYTE   W96
// 013   ----------------------------------------
 BYTE   W96
// 014   ----------------------------------------
 BYTE   W96
// 015   ----------------------------------------
 BYTE   W96
// 016   ----------------------------------------
 BYTE   W96
// 017   ----------------------------------------
 BYTE   W96
// 018   ----------------------------------------
 BYTE   W96
// 019   ----------------------------------------
 BYTE   W96
// 020   ----------------------------------------
 BYTE   W48
 BYTE   Dn4  v076
 BYTE   W18
 BYTE   An3  v080
 BYTE   W18
 BYTE   Fs3
 BYTE   W12
 BYTE   PATT
  POIN2 Label_1_0187AE35
 BYTE   PATT
  POIN2 Label_1_0187AE58
 BYTE   PATT
  POIN2 Label_1_0187AE6D
// 021   ----------------------------------------
 BYTE   W12
 BYTE   N32  An4  v096
 BYTE   W84
// 022   ----------------------------------------
 BYTE   W96
 BYTE   PATT
  POIN2 Label_1_0187AE96
 BYTE   PATT
  POIN2 Label_1_0187AEAE
 BYTE   PATT
  POIN2 Label_1_0187AEFA
// 023   ----------------------------------------
 BYTE   W96
// 024   ----------------------------------------
 BYTE   W96
// 025   ----------------------------------------
 BYTE   W96
// 026   ----------------------------------------
 BYTE   W96
// 027   ----------------------------------------
 BYTE   W96
// 028   ----------------------------------------
 BYTE   W96
// 029   ----------------------------------------
 BYTE   W96
// 030   ----------------------------------------
 BYTE   W96
// 031   ----------------------------------------
 BYTE   W96
// 032   ----------------------------------------
 BYTE   W96
// 033   ----------------------------------------
 BYTE   W96
// 034   ----------------------------------------
 BYTE   W84
 BYTE   GoTo
  POIN2 Label_1_0187AE1A
// 035   ----------------------------------------
 BYTE   W12
 BYTE   W96
// 036   ----------------------------------------
 BYTE   VOICE   62
 BYTE   VOL   52*PaperMarioTTYDRegularEnemyPandan_mvl/mxv
 BYTE   VOL   52*PaperMarioTTYDRegularEnemyPandan_mvl/mxv
 BYTE   VOL   52*PaperMarioTTYDRegularEnemyPandan_mvl/mxv
 BYTE   FINE

//**************** Track 3 (Midi-Chn.2) ****************//

PaperMarioTTYDRegularEnemyPandan_003:
// 000   ----------------------------------------
 BYTE   KEYSH   PaperMarioTTYDRegularEnemyPandan_key+0
Label_2_0187AF66:
 BYTE   VOICE   36
 BYTE   PAN   c_v-1
 BYTE   VOL   68*PaperMarioTTYDRegularEnemyPandan_mvl/mxv
 BYTE   Gs3  v068
 BYTE   Gs3
 BYTE   W48
 BYTE   N05  Dn1  v084
 BYTE   W18
 BYTE   Fs1
 BYTE   W18
 BYTE   Gn1
 BYTE   W12
// 001   ----------------------------------------
Label_2_0187AF78:
 BYTE   N05  Gn1  v068
 BYTE   W06
 BYTE   Gs1  v084
 BYTE   W12
 BYTE   Gs1  v060
 BYTE   W06
 BYTE   An1  v084
 BYTE   W12
 BYTE   N05
 BYTE   W12
 BYTE   Cn1
 BYTE   W18
 BYTE   En1
 BYTE   W18
 BYTE   Gn1
 BYTE   W12
 BYTE   PEND 
// 002   ----------------------------------------
Label_2_0187AF8E:
 BYTE   W06
 BYTE   N05  Cn1  v084
 BYTE   W12
 BYTE   Dn1
 BYTE   W06
 BYTE   En1
 BYTE   W12
 BYTE   Cn1
 BYTE   W12
 BYTE   Dn1
 BYTE   W18
 BYTE   Fs1
 BYTE   W18
 BYTE   Gn1
 BYTE   W12
 BYTE   PEND 
// 003   ----------------------------------------
Label_2_0187AFA0:
 BYTE   N05  Gn1  v072
 BYTE   W06
 BYTE   Gs1  v084
 BYTE   W12
 BYTE   Gs1  v060
 BYTE   W06
 BYTE   An1  v084
 BYTE   W12
 BYTE   N05
 BYTE   W12
 BYTE   Cn1
 BYTE   W18
 BYTE   En1
 BYTE   W18
 BYTE   Gn1
 BYTE   W12
 BYTE   PEND 
 BYTE   PATT
  POIN2 Label_2_0187AF8E
 BYTE   PATT
  POIN2 Label_2_0187AF78
// 004   ----------------------------------------
Label_2_0187AFC0:
 BYTE   N05  Gn1  v084
 BYTE   W06
 BYTE   N05
 BYTE   W12
 BYTE   Cn2
 BYTE   W12
 BYTE   Gn1
 BYTE   W06
 BYTE   En1  v072
 BYTE   W12
 BYTE   En1  v084
 BYTE   W18
 BYTE   Gn1
 BYTE   W18
 BYTE   Bn1
 BYTE   W12
 BYTE   PEND 
// 005   ----------------------------------------
Label_2_0187AFD5:
 BYTE   N05  En1  v084
 BYTE   W06
 BYTE   N05
 BYTE   W12
 BYTE   Gn1
 BYTE   W18
 BYTE   Bn1
 BYTE   W12
 BYTE   En1
 BYTE   W06
 BYTE   N05
 BYTE   W06
 BYTE   N05
 BYTE   W06
 BYTE   N05
 BYTE   W12
 BYTE   N05
 BYTE   W12
 BYTE   An1
 BYTE   W06
 BYTE   PEND 
// 006   ----------------------------------------
Label_2_0187AFEC:
 BYTE   W06
 BYTE   N05  An1  v084
 BYTE   W12
 BYTE   N05
 BYTE   W06
 BYTE   N05
 BYTE   W24
 BYTE   Dn1  v096
 BYTE   W06
 BYTE   N05
 BYTE   W12
 BYTE   N05
 BYTE   W06
 BYTE   N05
 BYTE   W12
 BYTE   N05
 BYTE   W06
 BYTE   N05
 BYTE   W06
 BYTE   PEND 
// 007   ----------------------------------------
Label_2_0187B003:
 BYTE   W12
 BYTE   N23  Cn1  v084
 BYTE   W24
 BYTE   N11  Cs1  v096
 BYTE   W12
 BYTE   N05  Dn1
 BYTE   W06
 BYTE   N05
 BYTE   W12
 BYTE   N05
 BYTE   W06
 BYTE   N05
 BYTE   W12
 BYTE   N05
 BYTE   W06
 BYTE   N05
 BYTE   W06
 BYTE   PEND 
// 008   ----------------------------------------
Label_2_0187B01A:
 BYTE   W12
 BYTE   N23  Cn1  v084
 BYTE   W24
 BYTE   N11  An0  v096
 BYTE   W12
 BYTE   N05  Dn1
 BYTE   W06
 BYTE   N05
 BYTE   W12
 BYTE   N05
 BYTE   W06
 BYTE   N05
 BYTE   W12
 BYTE   N05
 BYTE   W06
 BYTE   N05
 BYTE   W06
 BYTE   PEND 
 BYTE   PATT
  POIN2 Label_2_0187B003
// 009   ----------------------------------------
Label_2_0187B036:
 BYTE   W12
 BYTE   N23  An0  v084
 BYTE   W24
 BYTE   N11  An0  v096
 BYTE   W12
 BYTE   N05  Dn1
 BYTE   W06
 BYTE   N05
 BYTE   W12
 BYTE   N05
 BYTE   W06
 BYTE   N05
 BYTE   W12
 BYTE   N05
 BYTE   W06
 BYTE   N05
 BYTE   W06
 BYTE   PEND 
 BYTE   PATT
  POIN2 Label_2_0187B003
 BYTE   PATT
  POIN2 Label_2_0187B01A
 BYTE   PATT
  POIN2 Label_2_0187B003
 BYTE   PATT
  POIN2 Label_2_0187B01A
 BYTE   PATT
  POIN2 Label_2_0187B003
// 010   ----------------------------------------
 BYTE   W12
 BYTE   N23  Cn1  v084
 BYTE   W24
 BYTE   N11  An0  v096
 BYTE   W12
 BYTE   N05  Bn0
 BYTE   W06
 BYTE   N05
 BYTE   W12
 BYTE   N05
 BYTE   W06
 BYTE   N05
 BYTE   W12
 BYTE   N05
 BYTE   W06
 BYTE   N05
 BYTE   W06
// 011   ----------------------------------------
 BYTE   W06
 BYTE   N05
 BYTE   W06
 BYTE   N05
 BYTE   W12
 BYTE   N05
 BYTE   W06
 BYTE   N05
 BYTE   W06
 BYTE   N05
 BYTE   W06
 BYTE   N05
 BYTE   W06
 BYTE   En1
 BYTE   W06
 BYTE   N05
 BYTE   W12
 BYTE   N05
 BYTE   W12
 BYTE   N05
 BYTE   W06
 BYTE   N05
 BYTE   W12
// 012   ----------------------------------------
 BYTE   An1
 BYTE   W18
 BYTE   An0
 BYTE   W12
 BYTE   An0  v088
 BYTE   W06
 BYTE   Bn0
 BYTE   W06
 BYTE   Cs1  v084
 BYTE   W06
 BYTE   Dn1
 BYTE   W18
 BYTE   Fs1
 BYTE   W18
 BYTE   Gn1
 BYTE   W12
 BYTE   PATT
  POIN2 Label_2_0187AF78
 BYTE   PATT
  POIN2 Label_2_0187AF8E
 BYTE   PATT
  POIN2 Label_2_0187AFA0
 BYTE   PATT
  POIN2 Label_2_0187AF8E
 BYTE   PATT
  POIN2 Label_2_0187AF78
 BYTE   PATT
  POIN2 Label_2_0187AFC0
 BYTE   PATT
  POIN2 Label_2_0187AFD5
 BYTE   PATT
  POIN2 Label_2_0187AFEC
 BYTE   PATT
  POIN2 Label_2_0187B003
 BYTE   PATT
  POIN2 Label_2_0187B01A
 BYTE   PATT
  POIN2 Label_2_0187B003
 BYTE   PATT
  POIN2 Label_2_0187B036
 BYTE   PATT
  POIN2 Label_2_0187B003
 BYTE   PATT
  POIN2 Label_2_0187B01A
 BYTE   PATT
  POIN2 Label_2_0187B003
 BYTE   PATT
  POIN2 Label_2_0187B01A
 BYTE   PATT
  POIN2 Label_2_0187B003
// 013   ----------------------------------------
 BYTE   W03
 BYTE   VOL   56*PaperMarioTTYDRegularEnemyPandan_mvl/mxv
 BYTE   W03
 BYTE   Gs2
 BYTE   W03
 BYTE   Gn2
 BYTE   W03
 BYTE   Fs2
 BYTE   N23  Cn1  v084
 BYTE   W04
 BYTE   VOL   54*PaperMarioTTYDRegularEnemyPandan_mvl/mxv
 BYTE   W03
 BYTE   Fn2
 BYTE   W03
 BYTE   En2
 BYTE   W03
 BYTE   En2
 BYTE   W03
 BYTE   Ds2
 BYTE   W03
 BYTE   Ds2
 BYTE   W04
 BYTE   Dn2
 BYTE   W01
 BYTE   N11  An0  v096
 BYTE   W02
 BYTE   VOL   49*PaperMarioTTYDRegularEnemyPandan_mvl/mxv
 BYTE   W03
 BYTE   Cs2
 BYTE   W03
 BYTE   Cn2
 BYTE   W03
 BYTE   Bn1
 BYTE   W01
 BYTE   N05  Bn0
 BYTE   W02
 BYTE   VOL   47*PaperMarioTTYDRegularEnemyPandan_mvl/mxv
 BYTE   W04
 BYTE   As1
 BYTE   N05
 BYTE   W03
 BYTE   VOL   45*PaperMarioTTYDRegularEnemyPandan_mvl/mxv
 BYTE   W03
 BYTE   An1
 BYTE   W03
 BYTE   Gs1
 BYTE   W03
 BYTE   Gs1
 BYTE   N05
 BYTE   W03
 BYTE   VOL   43*PaperMarioTTYDRegularEnemyPandan_mvl/mxv
 BYTE   W03
 BYTE   N05
 BYTE   W01
 BYTE   VOL   42*PaperMarioTTYDRegularEnemyPandan_mvl/mxv
 BYTE   W03
 BYTE   Fs1
 BYTE   W03
 BYTE   Fn1
 BYTE   W03
 BYTE   En1
 BYTE   W02
 BYTE   N05
 BYTE   W01
 BYTE   VOL   40*PaperMarioTTYDRegularEnemyPandan_mvl/mxv
 BYTE   W03
 BYTE   Ds1
 BYTE   W02
 BYTE   N05
 BYTE   W02
 BYTE   VOL   39*PaperMarioTTYDRegularEnemyPandan_mvl/mxv
 BYTE   W03
 BYTE   Dn1
 BYTE   W01
// 014   ----------------------------------------
 BYTE   W02
 BYTE   Cs1
 BYTE   W03
 BYTE   Cs1
 BYTE   W01
 BYTE   N05
 BYTE   W02
 BYTE   VOL   36*PaperMarioTTYDRegularEnemyPandan_mvl/mxv
 BYTE   W03
 BYTE   Bn0
 BYTE   W01
 BYTE   N05
 BYTE   W03
 BYTE   VOL   35*PaperMarioTTYDRegularEnemyPandan_mvl/mxv
 BYTE   W03
 BYTE   As0
 BYTE   W03
 BYTE   As0
 BYTE   W03
 BYTE   An0
 BYTE   N05
 BYTE   W03
 BYTE   VOL   32*PaperMarioTTYDRegularEnemyPandan_mvl/mxv
 BYTE   W03
 BYTE   Gs0
 BYTE   N05
 BYTE   W04
 BYTE   VOL   31*PaperMarioTTYDRegularEnemyPandan_mvl/mxv
 BYTE   W02
 BYTE   N05
 BYTE   W01
 BYTE   VOL   30*PaperMarioTTYDRegularEnemyPandan_mvl/mxv
 BYTE   W03
 BYTE   Fs0
 BYTE   W02
 BYTE   N05
 BYTE   W01
 BYTE   VOL   29*PaperMarioTTYDRegularEnemyPandan_mvl/mxv
 BYTE   W03
 BYTE   En0
 BYTE   W02
 BYTE   N05  En1
 BYTE   W01
 BYTE   VOL   28*PaperMarioTTYDRegularEnemyPandan_mvl/mxv
 BYTE   W03
 BYTE   Ds0
 BYTE   W02
 BYTE   N05
 BYTE   W02
 BYTE   VOL   27*PaperMarioTTYDRegularEnemyPandan_mvl/mxv
 BYTE   W03
 BYTE   Dn0
 BYTE   W03
 BYTE   Cs0
 BYTE   W03
 BYTE   Cs0
 BYTE   W01
 BYTE   N05
 BYTE   W02
 BYTE   VOL   24*PaperMarioTTYDRegularEnemyPandan_mvl/mxv
 BYTE   W03
 BYTE   BnM1
 BYTE   W04
 BYTE   BnM1
 BYTE   W03
 BYTE   AsM1
 BYTE   N05
 BYTE   W03
 BYTE   VOL   22*PaperMarioTTYDRegularEnemyPandan_mvl/mxv
 BYTE   W03
 BYTE   AnM1
 BYTE   N05
 BYTE   W03
 BYTE   VOL   20*PaperMarioTTYDRegularEnemyPandan_mvl/mxv
 BYTE   W03
 BYTE   GsM1
 BYTE   W04
 BYTE   GnM1
 BYTE   W02
// 015   ----------------------------------------
 BYTE   N05  An1
 BYTE   W01
 BYTE   VOL   18*PaperMarioTTYDRegularEnemyPandan_mvl/mxv
 BYTE   W03
 BYTE   FsM1
 BYTE   W03
 BYTE   FnM1
 BYTE   W03
 BYTE   FnM1
 BYTE   W03
 BYTE   EnM1
 BYTE   W04
 BYTE   DsM1
 BYTE   W01
 BYTE   N05  An0
 BYTE   W02
 BYTE   VOL   15*PaperMarioTTYDRegularEnemyPandan_mvl/mxv
 BYTE   W03
 BYTE   DnM1
 BYTE   W03
 BYTE   CsM1
 BYTE   W03
 BYTE   CsM1
 BYTE   W01
 BYTE   N05
 BYTE   W02
 BYTE   VOL   12*PaperMarioTTYDRegularEnemyPandan_mvl/mxv
 BYTE   W04
 BYTE   BnM2
 BYTE   N05  Bn0
 BYTE   W03
 BYTE   VOL   11*PaperMarioTTYDRegularEnemyPandan_mvl/mxv
 BYTE   W03
 BYTE   AsM2
 BYTE   N05  Cs1
 BYTE   W03
 BYTE   VOL   10*PaperMarioTTYDRegularEnemyPandan_mvl/mxv
 BYTE   W03
 BYTE   AnM2
 BYTE   W03
 BYTE   GsM2
 BYTE   W04
 BYTE   GsM2
 BYTE   W03
 BYTE   GnM2
 BYTE   W03
 BYTE   FsM2
 BYTE   W03
 BYTE   FsM2
 BYTE   W03
 BYTE   FnM2
 BYTE   W03
 BYTE   FnM2
 BYTE   W04
 BYTE   EnM2
 BYTE   W03
 BYTE   DsM2
 BYTE   W03
 BYTE   DsM2
 BYTE   W03
 BYTE   DnM2
 BYTE   W01
 BYTE   GoTo
  POIN2 Label_2_0187AF66
// 016   ----------------------------------------
 BYTE   W02
 BYTE   VOL   1*PaperMarioTTYDRegularEnemyPandan_mvl/mxv
 BYTE   W03
 BYTE   CsM2
 BYTE   W04
 BYTE   CnM2
 BYTE   W03
 BYTE   CnM2
 BYTE   W96
// 017   ----------------------------------------
 BYTE   VOICE   36
 BYTE   FINE

//**************** Track 4 (Midi-Chn.3) ****************//

PaperMarioTTYDRegularEnemyPandan_004:
// 000   ----------------------------------------
 BYTE   KEYSH   PaperMarioTTYDRegularEnemyPandan_key+0
Label_3_0187B20A:
 BYTE   VOICE   50
 BYTE   PAN   c_v-1
 BYTE   VOL   45*PaperMarioTTYDRegularEnemyPandan_mvl/mxv
 BYTE   An1  v045
 BYTE   An1
 BYTE   W60
 BYTE   N05  An2  v084
 BYTE   N05  Dn3
 BYTE   W18
 BYTE   An2  v080
 BYTE   N05  Dn3
 BYTE   W18
// 001   ----------------------------------------
Label_3_0187B21F:
 BYTE   N05  An2  v084
 BYTE   N05  Cs3
 BYTE   W06
 BYTE   An2  v096
 BYTE   N05  Dn3
 BYTE   W12
 BYTE   An2  v100
 BYTE   N05  Dn3
 BYTE   W12
 BYTE   An2  v104
 BYTE   N05  Dn3
 BYTE   W06
 BYTE   An2
 BYTE   N05  Dn3
 BYTE   W24
 BYTE   Gn2  v080
 BYTE   N05  Cn3
 BYTE   W18
 BYTE   Gn2  v076
 BYTE   N05  Cn3
 BYTE   W18
 BYTE   PEND 
// 002   ----------------------------------------
Label_3_0187B243:
 BYTE   N05  Gn2  v084
 BYTE   N05  Bn2
 BYTE   W06
 BYTE   Gn2  v096
 BYTE   N05  Cn3
 BYTE   W12
 BYTE   Gn2  v100
 BYTE   N05  Cn3
 BYTE   W12
 BYTE   Gn2  v092
 BYTE   N05  Cn3
 BYTE   W06
 BYTE   Gn2  v080
 BYTE   N05  Cn3
 BYTE   W24
 BYTE   An2  v084
 BYTE   N05  Dn3
 BYTE   W18
 BYTE   An2  v080
 BYTE   N05  Dn3
 BYTE   W18
 BYTE   PEND 
 BYTE   PATT
  POIN2 Label_3_0187B21F
 BYTE   PATT
  POIN2 Label_3_0187B243
 BYTE   PATT
  POIN2 Label_3_0187B21F
// 003   ----------------------------------------
Label_3_0187B277:
 BYTE   N05  Gn2  v084
 BYTE   N05  Bn2
 BYTE   W06
 BYTE   Gn2  v096
 BYTE   N05  Cn3
 BYTE   W12
 BYTE   Gn2  v100
 BYTE   N05  Cn3
 BYTE   W12
 BYTE   Gn2  v092
 BYTE   N05  Cn3
 BYTE   W06
 BYTE   Gn2  v080
 BYTE   N05  Cn3
 BYTE   W30
 BYTE   Gn3  v108
 BYTE   W18
 BYTE   N05
 BYTE   W12
 BYTE   PEND 
// 004   ----------------------------------------
Label_3_0187B297:
 BYTE   N05  Fs3  v096
 BYTE   W06
 BYTE   Gn3  v108
 BYTE   W12
 BYTE   N05
 BYTE   W06
 BYTE   En3  v092
 BYTE   W06
 BYTE   En3  v096
 BYTE   W06
 BYTE   Fn3  v100
 BYTE   W06
 BYTE   Fs3  v104
 BYTE   W06
 BYTE   En3  v076
 BYTE   N05  Gn3  v104
 BYTE   W06
 BYTE   En3  v076
 BYTE   N05  Gn3  v108
 BYTE   W06
 BYTE   En3  v076
 BYTE   N05  Gn3  v108
 BYTE   W06
 BYTE   Dn3  v076
 BYTE   N05  Gs3  v112
 BYTE   W12
 BYTE   Dn3  v080
 BYTE   N05  Gs3  v112
 BYTE   W12
 BYTE   Cs3  v080
 BYTE   N05  An3  v116
 BYTE   W06
 BYTE   PEND 
// 005   ----------------------------------------
Label_3_0187B2D1:
 BYTE   W06
 BYTE   N05  Cs3  v084
 BYTE   N05  An3  v116
 BYTE   W12
 BYTE   Cs3  v084
 BYTE   N05  An3  v124
 BYTE   W06
 BYTE   Cs3  v084
 BYTE   N05  An3  v116
 BYTE   W72
 BYTE   PEND 
// 006   ----------------------------------------
 BYTE   W96
// 007   ----------------------------------------
 BYTE   W96
// 008   ----------------------------------------
 BYTE   W96
// 009   ----------------------------------------
 BYTE   W96
// 010   ----------------------------------------
 BYTE   W96
// 011   ----------------------------------------
 BYTE   W96
// 012   ----------------------------------------
 BYTE   W96
// 013   ----------------------------------------
 BYTE   W96
// 014   ----------------------------------------
 BYTE   W96
// 015   ----------------------------------------
 BYTE   W96
// 016   ----------------------------------------
 BYTE   W96
// 017   ----------------------------------------
 BYTE   W60
 BYTE   An2  v084
 BYTE   N05  Dn3
 BYTE   W18
 BYTE   An2  v080
 BYTE   N05  Dn3
 BYTE   W18
 BYTE   PATT
  POIN2 Label_3_0187B21F
 BYTE   PATT
  POIN2 Label_3_0187B243
 BYTE   PATT
  POIN2 Label_3_0187B21F
 BYTE   PATT
  POIN2 Label_3_0187B243
 BYTE   PATT
  POIN2 Label_3_0187B21F
 BYTE   PATT
  POIN2 Label_3_0187B277
 BYTE   PATT
  POIN2 Label_3_0187B297
 BYTE   PATT
  POIN2 Label_3_0187B2D1
// 018   ----------------------------------------
 BYTE   W96
// 019   ----------------------------------------
 BYTE   W96
// 020   ----------------------------------------
 BYTE   W96
// 021   ----------------------------------------
 BYTE   W96
// 022   ----------------------------------------
 BYTE   W96
// 023   ----------------------------------------
 BYTE   W96
// 024   ----------------------------------------
 BYTE   W96
// 025   ----------------------------------------
 BYTE   W96
// 026   ----------------------------------------
 BYTE   W96
// 027   ----------------------------------------
 BYTE   W96
// 028   ----------------------------------------
 BYTE   W96
// 029   ----------------------------------------
 BYTE   W84
 BYTE   GoTo
  POIN2 Label_3_0187B20A
// 030   ----------------------------------------
 BYTE   W12
 BYTE   W96
// 031   ----------------------------------------
 BYTE   VOICE   50
 BYTE   VOL   45*PaperMarioTTYDRegularEnemyPandan_mvl/mxv
 BYTE   An1  v045
 BYTE   FINE

//**************** Track 5 (Midi-Chn.4) ****************//

PaperMarioTTYDRegularEnemyPandan_005:
// 000   ----------------------------------------
 BYTE   KEYSH   PaperMarioTTYDRegularEnemyPandan_key+0
Label_4_0187B342:
 BYTE   VOICE   13
 BYTE   PAN   c_v-1
 BYTE   VOL   42*PaperMarioTTYDRegularEnemyPandan_mvl/mxv
 BYTE   Fs1  v042
 BYTE   Fs1
 BYTE   W48
 BYTE   N05  Dn5  v080
 BYTE   W12
 BYTE   An4  v036
 BYTE   W06
 BYTE   Dn5  v080
 BYTE   W12
 BYTE   An4  v036
 BYTE   W06
 BYTE   Dn5  v080
 BYTE   W12
// 001   ----------------------------------------
Label_4_0187B35C:
 BYTE   W48
 BYTE   N05  En4  v060
 BYTE   N05  Gn4
 BYTE   W06
 BYTE   En4  v040
 BYTE   N05  Gn4
 BYTE   W06
 BYTE   En4  v024
 BYTE   N05  Gn4
 BYTE   W06
 BYTE   Gn4  v068
 BYTE   N05  Cn5
 BYTE   W06
 BYTE   Gn4  v052
 BYTE   N05  Cn5
 BYTE   W06
 BYTE   Gn4  v040
 BYTE   N05  Cn5
 BYTE   W06
 BYTE   Cn5  v080
 BYTE   N05  En5
 BYTE   W06
 BYTE   Cn5  v064
 BYTE   N05  En5
 BYTE   W06
 BYTE   PEND 
// 002   ----------------------------------------
Label_4_0187B387:
 BYTE   N05  Cn5  v040
 BYTE   N05  En5
 BYTE   W06
 BYTE   Dn5  v080
 BYTE   N05  Gn5
 BYTE   W12
 BYTE   Dn5
 BYTE   N05  Gn5
 BYTE   W06
 BYTE   En5  v072
 BYTE   N05  An5
 BYTE   W12
 BYTE   Cn5  v076
 BYTE   N05  En5
 BYTE   W12
 BYTE   Dn5  v080
 BYTE   W12
 BYTE   An4  v036
 BYTE   W06
 BYTE   Dn5  v080
 BYTE   W12
 BYTE   An4  v036
 BYTE   W06
 BYTE   Dn5  v080
 BYTE   W12
 BYTE   PEND 
 BYTE   PATT
  POIN2 Label_4_0187B35C
// 003   ----------------------------------------
Label_4_0187B3B5:
 BYTE   N05  Cn5  v040
 BYTE   N05  En5
 BYTE   W12
 BYTE   N11  Cn5  v080
 BYTE   N11  En5
 BYTE   W84
 BYTE   PEND 
// 004   ----------------------------------------
 BYTE   W96
// 005   ----------------------------------------
 BYTE   W96
// 006   ----------------------------------------
 BYTE   W96
// 007   ----------------------------------------
 BYTE   W96
// 008   ----------------------------------------
 BYTE   W96
// 009   ----------------------------------------
 BYTE   W96
// 010   ----------------------------------------
 BYTE   W96
// 011   ----------------------------------------
 BYTE   W96
// 012   ----------------------------------------
 BYTE   W96
// 013   ----------------------------------------
 BYTE   W96
// 014   ----------------------------------------
 BYTE   W96
// 015   ----------------------------------------
 BYTE   W96
// 016   ----------------------------------------
 BYTE   W96
// 017   ----------------------------------------
 BYTE   W96
// 018   ----------------------------------------
 BYTE   W96
// 019   ----------------------------------------
 BYTE   W48
 BYTE   N05  Dn5
 BYTE   W12
 BYTE   An4  v036
 BYTE   W06
 BYTE   Dn5  v080
 BYTE   W12
 BYTE   An4  v036
 BYTE   W06
 BYTE   Dn5  v080
 BYTE   W12
 BYTE   PATT
  POIN2 Label_4_0187B35C
 BYTE   PATT
  POIN2 Label_4_0187B387
 BYTE   PATT
  POIN2 Label_4_0187B35C
 BYTE   PATT
  POIN2 Label_4_0187B3B5
// 020   ----------------------------------------
 BYTE   W96
// 021   ----------------------------------------
 BYTE   W96
// 022   ----------------------------------------
 BYTE   W96
// 023   ----------------------------------------
 BYTE   W96
// 024   ----------------------------------------
 BYTE   W96
// 025   ----------------------------------------
 BYTE   W96
// 026   ----------------------------------------
 BYTE   W96
// 027   ----------------------------------------
 BYTE   W96
// 028   ----------------------------------------
 BYTE   W96
// 029   ----------------------------------------
 BYTE   W96
// 030   ----------------------------------------
 BYTE   W96
// 031   ----------------------------------------
 BYTE   W96
// 032   ----------------------------------------
 BYTE   W96
// 033   ----------------------------------------
 BYTE   W96
// 034   ----------------------------------------
 BYTE   W96
// 035   ----------------------------------------
 BYTE   W84
 BYTE   GoTo
  POIN2 Label_4_0187B342
// 036   ----------------------------------------
 BYTE   W12
 BYTE   W96
// 037   ----------------------------------------
 BYTE   VOICE   13
 BYTE   VOL   42*PaperMarioTTYDRegularEnemyPandan_mvl/mxv
 BYTE   Fs1  v042
 BYTE   FINE

//**************** Track 6 (Midi-Chn.5) ****************//

PaperMarioTTYDRegularEnemyPandan_006:
// 000   ----------------------------------------
 BYTE   KEYSH   PaperMarioTTYDRegularEnemyPandan_key+0
Label_5_0187B416:
 BYTE   VOICE   50
 BYTE   PAN   c_v-1
 BYTE   VOL   64*PaperMarioTTYDRegularEnemyPandan_mvl/mxv
 BYTE   En3  v064
 BYTE   En3
 BYTE   W96
// 001   ----------------------------------------
 BYTE   W96
// 002   ----------------------------------------
 BYTE   W96
// 003   ----------------------------------------
 BYTE   W96
// 004   ----------------------------------------
Label_5_0187B423:
 BYTE   W60
 BYTE   N05  Dn4  v092
 BYTE   W18
 BYTE   An3  v080
 BYTE   W12
 BYTE   Fs3
 BYTE   W06
 BYTE   PEND 
// 005   ----------------------------------------
Label_5_0187B42E:
 BYTE   N05  Bn3  v080
 BYTE   W06
 BYTE   N05
 BYTE   W12
 BYTE   N05
 BYTE   W12
 BYTE   Bn3  v056
 BYTE   W06
 BYTE   As3  v080
 BYTE   W06
 BYTE   Bn3
 BYTE   W18
 BYTE   Cn4  v104
 BYTE   W18
 BYTE   Gn3  v080
 BYTE   W12
 BYTE   En3
 BYTE   W06
 BYTE   PEND 
// 006   ----------------------------------------
Label_5_0187B447:
 BYTE   N05  Gn3  v080
 BYTE   W06
 BYTE   N05
 BYTE   W12
 BYTE   N05
 BYTE   W78
 BYTE   PEND 
// 007   ----------------------------------------
 BYTE   W96
// 008   ----------------------------------------
 BYTE   W96
// 009   ----------------------------------------
 BYTE   W96
// 010   ----------------------------------------
 BYTE   W96
// 011   ----------------------------------------
 BYTE   W96
// 012   ----------------------------------------
 BYTE   W96
// 013   ----------------------------------------
 BYTE   W96
// 014   ----------------------------------------
 BYTE   W96
// 015   ----------------------------------------
 BYTE   W96
// 016   ----------------------------------------
 BYTE   W96
// 017   ----------------------------------------
 BYTE   W96
// 018   ----------------------------------------
 BYTE   W96
// 019   ----------------------------------------
 BYTE   W30
 BYTE   Cs4  v076
 BYTE   W06
 BYTE   Dn4
 BYTE   W06
 BYTE   Fs4  v084
 BYTE   W06
 BYTE   En4  v072
 BYTE   W06
 BYTE   En4  v080
 BYTE   W12
 BYTE   En4  v076
 BYTE   W06
 BYTE   En4  v036
 BYTE   W06
 BYTE   Ds4  v076
 BYTE   W06
 BYTE   En4  v068
 BYTE   W12
// 020   ----------------------------------------
 BYTE   An4  v080
 BYTE   W18
 BYTE   An3  v068
 BYTE   N05  An4  v044
 BYTE   W78
// 021   ----------------------------------------
 BYTE   W96
// 022   ----------------------------------------
 BYTE   W96
// 023   ----------------------------------------
 BYTE   W96
 BYTE   PATT
  POIN2 Label_5_0187B423
 BYTE   PATT
  POIN2 Label_5_0187B42E
 BYTE   PATT
  POIN2 Label_5_0187B447
// 024   ----------------------------------------
 BYTE   W96
// 025   ----------------------------------------
 BYTE   W96
// 026   ----------------------------------------
 BYTE   W96
// 027   ----------------------------------------
 BYTE   W96
// 028   ----------------------------------------
 BYTE   W96
// 029   ----------------------------------------
 BYTE   W96
// 030   ----------------------------------------
 BYTE   W96
// 031   ----------------------------------------
 BYTE   W96
// 032   ----------------------------------------
 BYTE   W96
// 033   ----------------------------------------
 BYTE   W96
// 034   ----------------------------------------
 BYTE   W96
// 035   ----------------------------------------
 BYTE   VOL   63*PaperMarioTTYDRegularEnemyPandan_mvl/mxv
 BYTE   W03
 BYTE   Dn3
 BYTE   W02
 BYTE   Dn3
 BYTE   W03
 BYTE   Cs3
 BYTE   W03
 BYTE   Cs3
 BYTE   W03
 BYTE   Cn3
 BYTE   W03
 BYTE   Bn2
 BYTE   W03
 BYTE   Bn2
 BYTE   W03
 BYTE   As2
 BYTE   W02
 BYTE   An2
 BYTE   W03
 BYTE   An2
 BYTE   W03
 BYTE   Gs2
 BYTE   W03
 BYTE   Gs2
 BYTE   W03
 BYTE   Gn2
 BYTE   W03
 BYTE   Fs2
 BYTE   W03
 BYTE   Fs2
 BYTE   W02
 BYTE   Fn2
 BYTE   W03
 BYTE   En2
 BYTE   W03
 BYTE   En2
 BYTE   W03
 BYTE   Ds2
 BYTE   W03
 BYTE   Ds2
 BYTE   W03
 BYTE   Dn2
 BYTE   W02
 BYTE   Cs2
 BYTE   W03
 BYTE   Cs2
 BYTE   W03
 BYTE   Cn2
 BYTE   W03
 BYTE   Bn1
 BYTE   W03
 BYTE   Bn1
 BYTE   W03
 BYTE   As1
 BYTE   W03
 BYTE   An1
 BYTE   W02
 BYTE   An1
 BYTE   W03
 BYTE   Gs1
 BYTE   W03
 BYTE   Gs1
 BYTE   W03
 BYTE   Gn1
 BYTE   W03
 BYTE   Fs1
 BYTE   W02
// 036   ----------------------------------------
 BYTE   W01
 BYTE   Fs1
 BYTE   W03
 BYTE   Fn1
 BYTE   W02
 BYTE   En1
 BYTE   W03
 BYTE   En1
 BYTE   W03
 BYTE   Ds1
 BYTE   W03
 BYTE   Ds1
 BYTE   W03
 BYTE   Dn1
 BYTE   W03
 BYTE   Cs1
 BYTE   W03
 BYTE   Cs1
 BYTE   W02
 BYTE   Cn1
 BYTE   W03
 BYTE   Bn0
 BYTE   W01
 BYTE   N05  Cs4  v076
 BYTE   W02
 BYTE   VOL   35*PaperMarioTTYDRegularEnemyPandan_mvl/mxv
 BYTE   W03
 BYTE   As0
 BYTE   W01
 BYTE   N05  Dn4
 BYTE   W02
 BYTE   VOL   34*PaperMarioTTYDRegularEnemyPandan_mvl/mxv
 BYTE   W03
 BYTE   An0
 BYTE   W01
 BYTE   N05  Fs4  v084
 BYTE   W01
 BYTE   VOL   32*PaperMarioTTYDRegularEnemyPandan_mvl/mxv
 BYTE   W03
 BYTE   Gs0
 BYTE   W02
 BYTE   N05  En4  v072
 BYTE   W01
 BYTE   VOL   31*PaperMarioTTYDRegularEnemyPandan_mvl/mxv
 BYTE   W03
 BYTE   Fs0
 BYTE   W02
 BYTE   N05  En4  v080
 BYTE   W01
 BYTE   VOL   30*PaperMarioTTYDRegularEnemyPandan_mvl/mxv
 BYTE   W03
 BYTE   Fn0
 BYTE   W03
 BYTE   En0
 BYTE   W02
 BYTE   En0
 BYTE   W03
 BYTE   Ds0
 BYTE   N05  En4  v076
 BYTE   W03
 BYTE   VOL   27*PaperMarioTTYDRegularEnemyPandan_mvl/mxv
 BYTE   W03
 BYTE   Dn0
 BYTE   N05  En4  v036
 BYTE   W03
 BYTE   VOL   25*PaperMarioTTYDRegularEnemyPandan_mvl/mxv
 BYTE   W03
 BYTE   Cs0
 BYTE   N05  Ds4  v076
 BYTE   W03
 BYTE   VOL   24*PaperMarioTTYDRegularEnemyPandan_mvl/mxv
 BYTE   W02
 BYTE   BnM1
 BYTE   W01
 BYTE   N05  En4  v068
 BYTE   W02
 BYTE   VOL   23*PaperMarioTTYDRegularEnemyPandan_mvl/mxv
 BYTE   W03
 BYTE   AsM1
 BYTE   W03
 BYTE   AsM1
 BYTE   W03
 BYTE   AnM1
 BYTE   W01
// 037   ----------------------------------------
 BYTE   N05  An4  v080
 BYTE   W02
 BYTE   VOL   20*PaperMarioTTYDRegularEnemyPandan_mvl/mxv
 BYTE   W03
 BYTE   GsM1
 BYTE   W02
 BYTE   GnM1
 BYTE   W03
 BYTE   FsM1
 BYTE   W03
 BYTE   FsM1
 BYTE   W03
 BYTE   FnM1
 BYTE   W02
 BYTE   N05  An3  v068
 BYTE   N05  An4  v044
 BYTE   W01
 BYTE   VOL   17*PaperMarioTTYDRegularEnemyPandan_mvl/mxv
 BYTE   W03
 BYTE   EnM1
 BYTE   W02
 BYTE   DsM1
 BYTE   W03
 BYTE   DsM1
 BYTE   W03
 BYTE   DnM1
 BYTE   W03
 BYTE   CsM1
 BYTE   W03
 BYTE   CsM1
 BYTE   W03
 BYTE   CnM1
 BYTE   W03
 BYTE   BnM2
 BYTE   W02
 BYTE   BnM2
 BYTE   W03
 BYTE   AsM2
 BYTE   W03
 BYTE   AsM2
 BYTE   W03
 BYTE   AnM2
 BYTE   W03
 BYTE   GsM2
 BYTE   W03
 BYTE   GsM2
 BYTE   W03
 BYTE   GnM2
 BYTE   W02
 BYTE   FsM2
 BYTE   W03
 BYTE   FsM2
 BYTE   W03
 BYTE   FnM2
 BYTE   W03
 BYTE   FnM2
 BYTE   W03
 BYTE   EnM2
 BYTE   W03
 BYTE   DsM2
 BYTE   W02
 BYTE   DsM2
 BYTE   W03
 BYTE   GoTo
  POIN2 Label_5_0187B416
// 038   ----------------------------------------
 BYTE   VOL   2*PaperMarioTTYDRegularEnemyPandan_mvl/mxv
 BYTE   W03
 BYTE   CsM2
 BYTE   W03
 BYTE   CsM2
 BYTE   W03
 BYTE   CnM2
 BYTE   W03
 BYTE   CnM2
 BYTE   W96
// 039   ----------------------------------------
 BYTE   VOICE   50
 BYTE   FINE

//**************** Track 7 (Midi-Chn.6) ****************//

PaperMarioTTYDRegularEnemyPandan_007:
// 000   ----------------------------------------
 BYTE   KEYSH   PaperMarioTTYDRegularEnemyPandan_key+0
Label_6_0187B5AE:
 BYTE   VOICE   123
 BYTE   PAN   c_v+1
 BYTE   VOL   71*PaperMarioTTYDRegularEnemyPandan_mvl/mxv
 BYTE   Bn3  v071
 BYTE   Bn3
 BYTE   N02  Dn1  v040
 BYTE   N02  Fs1  v056
 BYTE   N02  Cn2  v072
 BYTE   W06
 BYTE   N02
 BYTE   N02  Cn3  v036
 BYTE   W06
 BYTE   N03  Dn1
 BYTE   N03  Fs1  v056
 BYTE   N02  Cn3  v036
 BYTE   W04
 BYTE   N03  Dn1  v032
 BYTE   N03  Fs1  v052
 BYTE   W02
 BYTE   N02  Bn1  v064
 BYTE   N02  Cn3  v036
 BYTE   W02
 BYTE   N03  Dn1  v040
 BYTE   N03  Fs1  v060
 BYTE   W04
 BYTE   Dn1  v040
 BYTE   N03  Fs1  v060
 BYTE   N02  Bn1
 BYTE   N02  Cs3  v036
 BYTE   W06
 BYTE   Cn3
 BYTE   W06
 BYTE   Dn1  v044
 BYTE   N02  Fs1  v060
 BYTE   N02  An1  v056
 BYTE   N02  Cs3  v032
 BYTE   W06
 BYTE   An1  v028
 BYTE   N02  Cn3  v032
 BYTE   W06
 BYTE   Cn1  v080
 BYTE   N02  Gs1  v092
 BYTE   N02  Gn2  v084
 BYTE   W12
 BYTE   As1  v060
 BYTE   W06
 BYTE   N05  Cs3  v064
 BYTE   W06
 BYTE   N02  Ds1  v068
 BYTE   N02  En1  v040
 BYTE   N02  Fs1  v060
 BYTE   N02  Gs1  v072
 BYTE   W06
 BYTE   N02
 BYTE   W06
 BYTE   Cn1  v080
 BYTE   N02  As1  v060
 BYTE   N05  Cn3  v064
 BYTE   W12
// 001   ----------------------------------------
Label_6_0187B62B:
 BYTE   N02  Cn1  v080
 BYTE   N02  Gs1  v072
 BYTE   W06
 BYTE   N02
 BYTE   W06
 BYTE   As1  v060
 BYTE   W06
 BYTE   Cn1  v080
 BYTE   N05  Cs3  v064
 BYTE   W06
 BYTE   N02  Ds1  v072
 BYTE   N02  En1  v040
 BYTE   N02  Fs1  v060
 BYTE   N02  Gs1  v072
 BYTE   W06
 BYTE   N02
 BYTE   W06
 BYTE   As1  v060
 BYTE   N05  Cn3  v064
 BYTE   W12
 BYTE   N02  Cn1  v080
 BYTE   N02  Gs1  v072
 BYTE   W06
 BYTE   N02
 BYTE   W06
 BYTE   As1  v060
 BYTE   W06
 BYTE   N05  Cs3  v064
 BYTE   W06
 BYTE   N02  Ds1  v072
 BYTE   N02  En1  v040
 BYTE   N02  Fs1  v060
 BYTE   N02  Gs1  v072
 BYTE   W06
 BYTE   N02
 BYTE   W06
 BYTE   Cn1  v080
 BYTE   N02  As1  v060
 BYTE   N05  Cn3  v064
 BYTE   W12
 BYTE   PEND 
// 002   ----------------------------------------
Label_6_0187B67B:
 BYTE   N02  Cn1  v080
 BYTE   N02  Gs1  v072
 BYTE   W06
 BYTE   N02
 BYTE   W06
 BYTE   As1  v060
 BYTE   W06
 BYTE   Cn1  v076
 BYTE   N05  Cs3  v064
 BYTE   W06
 BYTE   N02  Ds1  v072
 BYTE   N02  En1  v040
 BYTE   N02  Fs1  v060
 BYTE   N02  Gs1  v072
 BYTE   W06
 BYTE   N02
 BYTE   W06
 BYTE   As1  v060
 BYTE   N05  Cn3  v064
 BYTE   W12
 BYTE   N02  Cn1  v080
 BYTE   N02  Gs1  v072
 BYTE   W06
 BYTE   N02
 BYTE   W06
 BYTE   As1  v060
 BYTE   W06
 BYTE   N05  Cs3  v064
 BYTE   W06
 BYTE   N02  Ds1  v068
 BYTE   N02  En1  v040
 BYTE   N02  Fs1  v060
 BYTE   N02  Gs1  v072
 BYTE   W06
 BYTE   N02
 BYTE   W06
 BYTE   Cn1  v080
 BYTE   N02  As1  v060
 BYTE   N05  Cn3  v064
 BYTE   W12
 BYTE   PEND 
 BYTE   PATT
  POIN2 Label_6_0187B62B
// 003   ----------------------------------------
 BYTE   N02  Cn1  v080
 BYTE   N02  Gs1  v072
 BYTE   W06
 BYTE   N02
 BYTE   W06
 BYTE   Ds1
 BYTE   N02  En1  v040
 BYTE   N02  Fs1  v060
 BYTE   N02  As1
 BYTE   N03  En4  v072
 BYTE   W04
 BYTE   N03
 BYTE   W02
 BYTE   N02  Cn1  v080
 BYTE   N05  Cs3  v064
 BYTE   W02
 BYTE   N03  En4  v072
 BYTE   W04
 BYTE   N02  Ds1
 BYTE   N02  En1  v040
 BYTE   N02  Fs1  v060
 BYTE   N02  Gs1  v072
 BYTE   N03  En4
 BYTE   W06
 BYTE   N02  Ds1
 BYTE   N02  En1  v040
 BYTE   N02  Fs1  v060
 BYTE   N02  Gs1  v072
 BYTE   W06
 BYTE   As1  v060
 BYTE   N05  Cn3  v064
 BYTE   N03  En4  v072
 BYTE   W12
 BYTE   N02  Cn1  v080
 BYTE   N02  Gs1  v072
 BYTE   W06
 BYTE   N02
 BYTE   W06
 BYTE   As1  v060
 BYTE   W06
 BYTE   N05  Cs3  v064
 BYTE   W06
 BYTE   N02  Ds1  v072
 BYTE   N02  En1  v040
 BYTE   N02  Fs1  v060
 BYTE   N02  Gs1  v072
 BYTE   W06
 BYTE   N02
 BYTE   W06
 BYTE   Cn1  v080
 BYTE   N02  As1  v060
 BYTE   N05  Cn3  v064
 BYTE   W12
 BYTE   PATT
  POIN2 Label_6_0187B67B
// 004   ----------------------------------------
Label_6_0187B743:
 BYTE   N02  Cn1  v080
 BYTE   N02  Gs1  v072
 BYTE   W06
 BYTE   N02
 BYTE   W06
 BYTE   As1  v060
 BYTE   W06
 BYTE   Cn1  v076
 BYTE   N05  Cs3  v064
 BYTE   W06
 BYTE   N02  Ds1  v072
 BYTE   N02  En1  v040
 BYTE   N02  Fs1  v060
 BYTE   N02  Gs1  v072
 BYTE   W06
 BYTE   N02
 BYTE   W06
 BYTE   As1  v060
 BYTE   N05  Cn3  v064
 BYTE   W12
 BYTE   N02  Cn1  v080
 BYTE   N02  Gs1  v072
 BYTE   W06
 BYTE   N02
 BYTE   W06
 BYTE   As1  v060
 BYTE   W06
 BYTE   N05  Cs3  v064
 BYTE   W06
 BYTE   N02  Ds1  v072
 BYTE   N02  En1  v040
 BYTE   N02  Fs1  v060
 BYTE   N02  Gs1  v072
 BYTE   W06
 BYTE   N02
 BYTE   W06
 BYTE   Cn1  v080
 BYTE   N02  As1  v060
 BYTE   N05  Cn3  v064
 BYTE   W12
 BYTE   PEND 
// 005   ----------------------------------------
 BYTE   N02  Cn1  v080
 BYTE   N02  Gs1  v072
 BYTE   W06
 BYTE   N02
 BYTE   W06
 BYTE   Ds1
 BYTE   N02  En1  v040
 BYTE   N02  Fs1  v060
 BYTE   N02  As1
 BYTE   W06
 BYTE   Cn1  v080
 BYTE   N05  Cs3  v064
 BYTE   W06
 BYTE   N02  Ds1  v072
 BYTE   N02  En1  v040
 BYTE   N02  Fs1  v060
 BYTE   N02  Gs1  v072
 BYTE   W06
 BYTE   Ds1
 BYTE   N02  En1  v040
 BYTE   N02  Fs1  v060
 BYTE   N02  Gs1  v072
 BYTE   W06
 BYTE   As1  v060
 BYTE   N05  Cn3  v064
 BYTE   W12
 BYTE   N02  Cn1  v068
 BYTE   N02  Ds1  v088
 BYTE   N02  En1  v048
 BYTE   N02  Fs1
 BYTE   N05  Cs3  v064
 BYTE   W06
 BYTE   N02  Cn1
 BYTE   N02  Ds1  v080
 BYTE   N02  En1  v044
 BYTE   N02  Fs1
 BYTE   N05  Cn3  v064
 BYTE   W06
 BYTE   N02  Cn1  v060
 BYTE   N02  Ds1  v080
 BYTE   N02  En1  v040
 BYTE   N02  Fs1
 BYTE   N05  Cn3  v064
 BYTE   W06
 BYTE   N02  Cn1
 BYTE   N02  Ds1  v080
 BYTE   N02  En1  v036
 BYTE   N02  Fs1
 BYTE   N05  Cn3  v064
 BYTE   W12
 BYTE   N02  Cn1  v060
 BYTE   N02  Ds1  v080
 BYTE   N02  En1  v044
 BYTE   N02  Fs1
 BYTE   N05  Cs3  v064
 BYTE   W12
 BYTE   N02  Cn1
 BYTE   N02  Ds1  v084
 BYTE   N02  En1  v044
 BYTE   N02  Fs1
 BYTE   N05  Cs3  v064
 BYTE   W06
// 006   ----------------------------------------
Label_6_0187B821:
 BYTE   W06
 BYTE   N02  Cn1  v064
 BYTE   N02  Ds1  v084
 BYTE   N02  En1  v040
 BYTE   N02  Fs1
 BYTE   N05  Cn3  v064
 BYTE   W12
 BYTE   N02  Cn1
 BYTE   N02  Ds1  v080
 BYTE   N02  En1  v040
 BYTE   N02  Fs1  v044
 BYTE   N05  Cn3  v064
 BYTE   W06
 BYTE   N02  Cn1  v060
 BYTE   N02  Ds1  v088
 BYTE   N02  En1  v044
 BYTE   N02  Fs1
 BYTE   W06
 BYTE   N05  Dn2  v068
 BYTE   W06
 BYTE   Cn2
 BYTE   W06
 BYTE   An1
 BYTE   W06
 BYTE   N02  Cn1  v080
 BYTE   N02  Gs1
 BYTE   N02  Gn2  v100
 BYTE   W06
 BYTE   Gs1  v080
 BYTE   W06
 BYTE   N02
 BYTE   W06
 BYTE   Cn1
 BYTE   N02  Gs1
 BYTE   N02  Cs3  v064
 BYTE   W06
 BYTE   Ds1  v072
 BYTE   N02  En1  v040
 BYTE   N02  Fs1  v060
 BYTE   N02  Gs1  v080
 BYTE   W06
 BYTE   N02
 BYTE   W06
 BYTE   Cn1
 BYTE   N02  Gs1
 BYTE   W06
 BYTE   N02
 BYTE   W06
 BYTE   PEND 
// 007   ----------------------------------------
Label_6_0187B87E:
 BYTE   N02  Gs1  v080
 BYTE   W06
 BYTE   N02
 BYTE   N02  Cs3  v064
 BYTE   W06
 BYTE   Cn1  v080
 BYTE   N02  As1  v072
 BYTE   N02  Cs3  v064
 BYTE   W06
 BYTE   Gs1  v080
 BYTE   W06
 BYTE   Ds1  v072
 BYTE   N02  En1  v040
 BYTE   N02  Fs1  v060
 BYTE   N02  Gs1  v080
 BYTE   W06
 BYTE   N02
 BYTE   W06
 BYTE   Cn1
 BYTE   N02  Gs1
 BYTE   N02  Cs3  v064
 BYTE   W06
 BYTE   Gs1  v080
 BYTE   N02  Cs3  v064
 BYTE   W06
 BYTE   Cn1  v080
 BYTE   N02  Gs1
 BYTE   W06
 BYTE   N02
 BYTE   W06
 BYTE   N02
 BYTE   W06
 BYTE   Cn1
 BYTE   N02  Gs1
 BYTE   N02  Cs3  v064
 BYTE   W06
 BYTE   Ds1  v072
 BYTE   N02  En1  v040
 BYTE   N02  Fs1  v060
 BYTE   N02  Gs1  v080
 BYTE   W06
 BYTE   N02
 BYTE   W06
 BYTE   Cn1
 BYTE   N02  Gs1
 BYTE   N02  Cn3  v064
 BYTE   W06
 BYTE   Gs1  v080
 BYTE   N02  Cn3  v044
 BYTE   W06
 BYTE   PEND 
// 008   ----------------------------------------
Label_6_0187B8DA:
 BYTE   N02  Gs1  v080
 BYTE   W06
 BYTE   Ds1  v064
 BYTE   N02  En1  v036
 BYTE   N02  Fs1  v056
 BYTE   N02  As1  v072
 BYTE   N02  Cs3  v056
 BYTE   W06
 BYTE   Cn1  v080
 BYTE   N02  Gs1
 BYTE   N02  Cs3  v064
 BYTE   W06
 BYTE   Ds1
 BYTE   N02  En1  v036
 BYTE   N02  Fs1  v056
 BYTE   N02  Gs1  v080
 BYTE   W06
 BYTE   Ds1  v072
 BYTE   N02  En1  v040
 BYTE   N02  Fs1  v060
 BYTE   N02  Gs1  v080
 BYTE   W06
 BYTE   Ds1  v056
 BYTE   N02  En1  v032
 BYTE   N02  Fs1  v056
 BYTE   N02  Gs1  v080
 BYTE   W06
 BYTE   Cn1
 BYTE   N02  Ds1  v056
 BYTE   N02  En1  v032
 BYTE   N02  Fs1  v056
 BYTE   N02  As1  v072
 BYTE   N02  Cs3  v064
 BYTE   W06
 BYTE   Ds1  v056
 BYTE   N02  En1  v032
 BYTE   N02  Fs1  v056
 BYTE   N02  Gs1  v080
 BYTE   W06
 BYTE   Cn1
 BYTE   N02  Ds1  v056
 BYTE   N02  En1  v032
 BYTE   N02  Fs1  v056
 BYTE   N02  Gs1  v080
 BYTE   W06
 BYTE   N02
 BYTE   W06
 BYTE   N02
 BYTE   W06
 BYTE   Cn1
 BYTE   N02  Gs1
 BYTE   N02  Cs3  v064
 BYTE   W06
 BYTE   Ds1  v072
 BYTE   N02  En1  v040
 BYTE   N02  Fs1  v060
 BYTE   N02  Gs1  v080
 BYTE   W06
 BYTE   N02
 BYTE   W06
 BYTE   Cn1
 BYTE   N02  Gs1
 BYTE   W06
 BYTE   N02
 BYTE   W06
 BYTE   PEND 
// 009   ----------------------------------------
Label_6_0187B963:
 BYTE   N02  Gs1  v080
 BYTE   W06
 BYTE   N02
 BYTE   N02  Cs3  v064
 BYTE   W06
 BYTE   Cn1  v080
 BYTE   N02  As1  v072
 BYTE   N02  Cs3  v064
 BYTE   W06
 BYTE   Gs1  v080
 BYTE   W06
 BYTE   Ds1  v072
 BYTE   N02  En1  v040
 BYTE   N02  Fs1  v060
 BYTE   N02  Gs1  v080
 BYTE   W06
 BYTE   N02
 BYTE   W06
 BYTE   Cn1
 BYTE   N02  Gs1
 BYTE   N02  Cs3  v064
 BYTE   W06
 BYTE   Gs1  v080
 BYTE   N02  Cs3  v064
 BYTE   W06
 BYTE   Cn1  v080
 BYTE   N02  Gs1
 BYTE   N02  Cn3  v056
 BYTE   W06
 BYTE   Gs1  v080
 BYTE   N02  Cn3  v052
 BYTE   W06
 BYTE   Gs1  v080
 BYTE   W06
 BYTE   Cn1
 BYTE   N02  Gs1
 BYTE   N02  Cs3  v064
 BYTE   W06
 BYTE   Ds1  v072
 BYTE   N02  En1  v040
 BYTE   N02  Fs1  v060
 BYTE   N02  Gs1  v080
 BYTE   W06
 BYTE   N02
 BYTE   W06
 BYTE   Cn1
 BYTE   N02  Gs1
 BYTE   N02  Cn3  v064
 BYTE   W06
 BYTE   Gs1  v080
 BYTE   N02  Cn3  v052
 BYTE   W06
 BYTE   PEND 
// 010   ----------------------------------------
Label_6_0187B9C7:
 BYTE   N02  Gs1  v080
 BYTE   N02  Cs3  v056
 BYTE   W06
 BYTE   Ds1  v064
 BYTE   N02  En1  v036
 BYTE   N02  Fs1  v056
 BYTE   N02  As1  v072
 BYTE   N02  Cs3  v060
 BYTE   W06
 BYTE   Cn1  v080
 BYTE   N02  Gs1
 BYTE   W06
 BYTE   Ds1  v064
 BYTE   N02  En1  v036
 BYTE   N02  Fs1  v056
 BYTE   N02  Gs1  v080
 BYTE   N02  Cs3  v060
 BYTE   W06
 BYTE   Ds1  v072
 BYTE   N02  En1  v040
 BYTE   N02  Fs1  v060
 BYTE   N02  Gs1  v080
 BYTE   N02  Cn3  v064
 BYTE   W06
 BYTE   Ds1  v056
 BYTE   N02  En1  v032
 BYTE   N02  Fs1  v056
 BYTE   N02  Gs1  v080
 BYTE   N02  Cn3  v064
 BYTE   W06
 BYTE   Cn1  v076
 BYTE   N02  Ds1  v056
 BYTE   N02  En1  v032
 BYTE   N02  Fs1  v056
 BYTE   N02  As1  v072
 BYTE   W06
 BYTE   Ds1  v056
 BYTE   N02  En1  v032
 BYTE   N02  Fs1  v056
 BYTE   N02  Gs1  v080
 BYTE   W06
 BYTE   Cn1
 BYTE   N02  Ds1  v056
 BYTE   N02  En1  v032
 BYTE   N02  Fs1  v056
 BYTE   N02  Gs1  v080
 BYTE   N02  Gn2  v100
 BYTE   W06
 BYTE   Gs1  v080
 BYTE   W06
 BYTE   N02
 BYTE   W06
 BYTE   Cn1
 BYTE   N02  Gs1
 BYTE   N02  Cs3  v060
 BYTE   W06
 BYTE   Ds1  v072
 BYTE   N02  En1  v040
 BYTE   N02  Fs1  v060
 BYTE   N02  Gs1  v080
 BYTE   W06
 BYTE   N02
 BYTE   W06
 BYTE   Cn1
 BYTE   N02  Gs1
 BYTE   W06
 BYTE   N02
 BYTE   W06
 BYTE   PEND 
// 011   ----------------------------------------
Label_6_0187BA5C:
 BYTE   N02  Gs1  v080
 BYTE   W06
 BYTE   N02
 BYTE   N02  Cs3  v060
 BYTE   W06
 BYTE   Cn1  v080
 BYTE   N02  As1  v072
 BYTE   N02  Cs3  v048
 BYTE   W06
 BYTE   Gs1  v080
 BYTE   W06
 BYTE   Ds1  v072
 BYTE   N02  En1  v040
 BYTE   N02  Fs1  v060
 BYTE   N02  Gs1  v080
 BYTE   W06
 BYTE   N02
 BYTE   W06
 BYTE   Cn1
 BYTE   N02  Gs1
 BYTE   N02  Cs3  v064
 BYTE   W06
 BYTE   Gs1  v080
 BYTE   N02  Cs3  v064
 BYTE   W06
 BYTE   Cn1  v080
 BYTE   N02  Gs1
 BYTE   W06
 BYTE   N02
 BYTE   W06
 BYTE   N02
 BYTE   W06
 BYTE   Cn1
 BYTE   N02  Gs1
 BYTE   N02  Cs3  v060
 BYTE   W06
 BYTE   Ds1  v072
 BYTE   N02  En1  v040
 BYTE   N02  Fs1  v060
 BYTE   N02  Gs1  v080
 BYTE   W06
 BYTE   N02
 BYTE   W06
 BYTE   Cn1
 BYTE   N02  Gs1
 BYTE   N02  Cn3  v060
 BYTE   W06
 BYTE   Gs1  v080
 BYTE   N02  Cn3  v052
 BYTE   W06
 BYTE   PEND 
// 012   ----------------------------------------
Label_6_0187BAB8:
 BYTE   N02  Gs1  v080
 BYTE   W06
 BYTE   Cs1  v084
 BYTE   N02  Ds1  v064
 BYTE   N02  En1  v036
 BYTE   N02  Fs1  v056
 BYTE   N02  As1  v072
 BYTE   N02  Cs3  v056
 BYTE   W06
 BYTE   Cn1  v080
 BYTE   N02  Gs1
 BYTE   N02  Cs3  v064
 BYTE   W06
 BYTE   Cs1  v080
 BYTE   N02  Ds1  v064
 BYTE   N02  En1  v036
 BYTE   N02  Fs1  v056
 BYTE   N02  Gs1  v080
 BYTE   W06
 BYTE   Cs1  v092
 BYTE   N02  Ds1  v072
 BYTE   N02  En1  v040
 BYTE   N02  Fs1  v060
 BYTE   N02  Gs1  v080
 BYTE   W06
 BYTE   Cs1
 BYTE   N02  Ds1  v056
 BYTE   N02  En1  v032
 BYTE   N02  Fs1  v056
 BYTE   N02  Gs1  v080
 BYTE   W06
 BYTE   Cn1
 BYTE   N02  Cs1
 BYTE   N02  Ds1  v056
 BYTE   N02  En1  v032
 BYTE   N02  Fs1  v056
 BYTE   N02  As1  v072
 BYTE   N02  Cs3  v064
 BYTE   W06
 BYTE   Cs1  v080
 BYTE   N02  Ds1  v056
 BYTE   N02  En1  v032
 BYTE   N02  Fs1  v056
 BYTE   N02  Gs1  v080
 BYTE   W06
 BYTE   Cn1
 BYTE   N02  Cs1
 BYTE   N02  Ds1  v056
 BYTE   N02  En1  v032
 BYTE   N02  Fs1  v056
 BYTE   N02  Gs1  v080
 BYTE   W06
 BYTE   N02
 BYTE   W06
 BYTE   N02
 BYTE   W06
 BYTE   Cn1
 BYTE   N02  Gs1
 BYTE   N02  Cs3  v064
 BYTE   W06
 BYTE   Ds1  v072
 BYTE   N02  En1  v040
 BYTE   N02  Fs1  v060
 BYTE   N02  Gs1  v080
 BYTE   W06
 BYTE   N02
 BYTE   W06
 BYTE   Cn1
 BYTE   N02  Gs1
 BYTE   W06
 BYTE   N02
 BYTE   W06
 BYTE   PEND 
// 013   ----------------------------------------
Label_6_0187BB54:
 BYTE   N02  Gs1  v080
 BYTE   W06
 BYTE   N02
 BYTE   N02  Cs3  v064
 BYTE   W06
 BYTE   Cn1  v080
 BYTE   N02  As1  v072
 BYTE   N02  Cs3  v052
 BYTE   W06
 BYTE   Gs1  v080
 BYTE   W06
 BYTE   Ds1  v072
 BYTE   N02  En1  v040
 BYTE   N02  Fs1  v060
 BYTE   N02  Gs1  v080
 BYTE   W06
 BYTE   N02
 BYTE   W06
 BYTE   Cn1
 BYTE   N02  Gs1
 BYTE   N02  Cs3  v064
 BYTE   W06
 BYTE   Gs1  v080
 BYTE   N02  Cs3  v064
 BYTE   W06
 BYTE   Cn1  v080
 BYTE   N02  Gs1
 BYTE   N02  Cn3  v056
 BYTE   W06
 BYTE   Gs1  v080
 BYTE   N02  Cn3  v056
 BYTE   W06
 BYTE   Gs1  v080
 BYTE   W06
 BYTE   Cn1
 BYTE   N02  Gs1
 BYTE   N02  Cs3  v060
 BYTE   W06
 BYTE   Ds1  v072
 BYTE   N02  En1  v040
 BYTE   N02  Fs1  v060
 BYTE   N02  Gs1  v080
 BYTE   W06
 BYTE   N02
 BYTE   W06
 BYTE   Cn1
 BYTE   N02  Gs1
 BYTE   N02  Cn3  v064
 BYTE   W06
 BYTE   Gs1  v080
 BYTE   N02  Cn3  v048
 BYTE   W06
 BYTE   PEND 
// 014   ----------------------------------------
 BYTE   Cs1  v080
 BYTE   N02  Ds1  v060
 BYTE   N02  En1  v036
 BYTE   N02  Fs1  v060
 BYTE   N02  Dn2  v072
 BYTE   N02  Cs3  v060
 BYTE   W06
 BYTE   Cs1  v092
 BYTE   N02  Ds1  v068
 BYTE   N02  En1  v048
 BYTE   N02  Fs1  v068
 BYTE   N02  Cs3  v064
 BYTE   W03
 BYTE   Cs1  v072
 BYTE   N02  Ds1  v056
 BYTE   N02  En1  v036
 BYTE   N02  Fs1  v056
 BYTE   W03
 BYTE   Cn1  v080
 BYTE   N02  Dn2  v072
 BYTE   W06
 BYTE   Cs1  v080
 BYTE   N02  Ds1  v056
 BYTE   N02  En1  v044
 BYTE   N02  Fs1  v056
 BYTE   N02  Cn2  v072
 BYTE   N02  Cn3  v056
 BYTE   W12
 BYTE   Cs1  v072
 BYTE   N02  Ds1  v048
 BYTE   N02  En1  v036
 BYTE   N02  Fs1  v048
 BYTE   N02  Bn1  v072
 BYTE   N02  Cn3  v056
 BYTE   W06
 BYTE   Cn1  v076
 BYTE   N02  Cs1  v064
 BYTE   N02  Ds1  v056
 BYTE   N02  En1  v048
 BYTE   N02  Fs1  v056
 BYTE   N02  Cn3  v064
 BYTE   W06
 BYTE   Cs1  v056
 BYTE   N02  Ds1  v040
 BYTE   N02  En1  v028
 BYTE   N02  Fs1  v040
 BYTE   N02  Cs3  v056
 BYTE   W06
 BYTE   Cn1  v076
 BYTE   N02  Gs1  v072
 BYTE   N02  Gn2  v100
 BYTE   N02  Cs3  v056
 BYTE   W06
 BYTE   Gs1  v072
 BYTE   N02  Cs3  v056
 BYTE   W06
 BYTE   Gs1  v072
 BYTE   W06
 BYTE   Cn1  v076
 BYTE   N02  Gs1  v072
 BYTE   N02  Cs3  v056
 BYTE   W06
 BYTE   Ds1  v072
 BYTE   N02  En1  v040
 BYTE   N02  Fs1  v060
 BYTE   N02  Gs1  v072
 BYTE   N02  Cs3  v052
 BYTE   W06
 BYTE   Gs1  v072
 BYTE   W06
 BYTE   Cn1  v076
 BYTE   N02  As1  v060
 BYTE   N02  Cs3  v052
 BYTE   W06
 BYTE   Gs1  v072
 BYTE   N02  Cs3  v052
 BYTE   W06
// 015   ----------------------------------------
 BYTE   Gs1  v072
 BYTE   W06
 BYTE   N02
 BYTE   N02  Cn3  v052
 BYTE   W06
 BYTE   Cn1  v076
 BYTE   N02  As1  v060
 BYTE   N02  Cn3  v052
 BYTE   W06
 BYTE   Gs1  v072
 BYTE   W06
 BYTE   Ds1
 BYTE   N02  En1  v040
 BYTE   N02  Fs1  v060
 BYTE   N02  Gs1  v072
 BYTE   W06
 BYTE   N02
 BYTE   W06
 BYTE   Cn1  v076
 BYTE   N02  As1  v060
 BYTE   N02  Cn3  v052
 BYTE   W06
 BYTE   Gs1  v072
 BYTE   N02  Cn3  v052
 BYTE   W06
 BYTE   Cn1  v076
 BYTE   N02  Gs1  v072
 BYTE   N02  Cs3  v056
 BYTE   W06
 BYTE   Gs1  v072
 BYTE   N02  Cs3  v056
 BYTE   W06
 BYTE   As1  v060
 BYTE   W06
 BYTE   Cn1  v076
 BYTE   N02  Gs1  v072
 BYTE   N02  Cs3  v056
 BYTE   W06
 BYTE   Ds1  v072
 BYTE   N02  En1  v040
 BYTE   N02  Fs1  v060
 BYTE   N02  Gs1  v072
 BYTE   N02  Cs3  v052
 BYTE   W06
 BYTE   Gs1  v072
 BYTE   W06
 BYTE   Cn1  v076
 BYTE   N02  As1  v060
 BYTE   N02  Cs3  v052
 BYTE   W06
 BYTE   Gs1  v072
 BYTE   N02  Cs3  v052
 BYTE   W06
// 016   ----------------------------------------
 BYTE   Gs1  v072
 BYTE   W06
 BYTE   N02
 BYTE   N02  Cn3  v052
 BYTE   W06
 BYTE   Cn1  v076
 BYTE   N02  As1  v060
 BYTE   N02  Cn3  v052
 BYTE   W06
 BYTE   Ds1  v072
 BYTE   N02  En1  v040
 BYTE   N02  Fs1  v060
 BYTE   N02  Gs1  v072
 BYTE   W06
 BYTE   Ds1  v052
 BYTE   N02  En1  v024
 BYTE   N02  Fs1  v048
 BYTE   N02  Gs1  v072
 BYTE   W06
 BYTE   N02
 BYTE   W06
 BYTE   Cn1  v076
 BYTE   N02  As1  v060
 BYTE   N02  Cn3  v052
 BYTE   W06
 BYTE   Gs1  v072
 BYTE   N02  Cn3  v052
 BYTE   W06
 BYTE   Cn1  v076
 BYTE   N02  Gs1  v072
 BYTE   N02  Gn2  v100
 BYTE   N02  Cn3  v052
 BYTE   W06
 BYTE   Gs1  v072
 BYTE   N02  Cs3  v052
 BYTE   W06
 BYTE   As1  v060
 BYTE   W06
 BYTE   Cn1  v076
 BYTE   N02  Gs1  v072
 BYTE   N02  Cn3  v052
 BYTE   W06
 BYTE   Ds1  v072
 BYTE   N02  En1  v040
 BYTE   N02  Fs1  v060
 BYTE   N02  Gs1  v072
 BYTE   N02  Cs3  v052
 BYTE   W06
 BYTE   Gs1  v072
 BYTE   W06
 BYTE   Cn1  v076
 BYTE   N02  As1  v060
 BYTE   N02  Cn3  v052
 BYTE   W06
 BYTE   Gs1  v072
 BYTE   N02  Cs3  v052
 BYTE   W06
// 017   ----------------------------------------
 BYTE   Gs1  v072
 BYTE   W06
 BYTE   N02
 BYTE   N02  Cn3  v052
 BYTE   W06
 BYTE   Cn1  v076
 BYTE   N02  As1  v060
 BYTE   N02  Cs3  v052
 BYTE   W06
 BYTE   Ds1  v072
 BYTE   N02  En1  v040
 BYTE   N02  Fs1  v060
 BYTE   N02  Gs1  v072
 BYTE   W06
 BYTE   Cn1  v076
 BYTE   N02  Ds1  v048
 BYTE   N02  En1  v028
 BYTE   N02  Fs1  v048
 BYTE   N02  Gs1  v072
 BYTE   N02  Cn3  v052
 BYTE   W06
 BYTE   Cs3
 BYTE   W06
 BYTE   Dn2  v064
 BYTE   N02  Cs3  v052
 BYTE   W06
 BYTE   Cn2  v064
 BYTE   N02  Cs3  v052
 BYTE   W06
 BYTE   Cn1  v076
 BYTE   N02  Ds1  v052
 BYTE   N02  En1  v024
 BYTE   N02  Fs1  v048
 BYTE   N02  An1  v064
 BYTE   N02  Cs3  v052
 BYTE   W06
 BYTE   Cn1  v076
 BYTE   N02  Ds1  v072
 BYTE   N02  En1  v040
 BYTE   N02  Fs1  v060
 BYTE   N02  Cs3  v052
 BYTE   W12
 BYTE   Cn1  v076
 BYTE   N02  Ds1  v072
 BYTE   N02  En1  v040
 BYTE   N02  Fs1  v060
 BYTE   N02  Cs3  v052
 BYTE   W12
 BYTE   Cn1  v076
 BYTE   N02  Ds1  v052
 BYTE   N02  En1  v024
 BYTE   N02  Fs1  v048
 BYTE   N02  Cn3  v052
 BYTE   W06
 BYTE   Ds1  v072
 BYTE   N02  En1  v040
 BYTE   N02  Fs1  v060
 BYTE   N02  Cs3  v052
 BYTE   W12
// 018   ----------------------------------------
 BYTE   Cn1  v076
 BYTE   N02  Ds1  v072
 BYTE   N02  En1  v040
 BYTE   N02  Fs1  v060
 BYTE   N02  Gs1  v072
 BYTE   N02  Cs3  v052
 BYTE   W06
 BYTE   Gs1  v072
 BYTE   W06
 BYTE   N02
 BYTE   W06
 BYTE   Cn1  v076
 BYTE   N02  Ds1  v072
 BYTE   N02  En1  v040
 BYTE   N02  Fs1  v060
 BYTE   N02  Gs1  v072
 BYTE   N02  Cs3  v052
 BYTE   W12
 BYTE   Ds1
 BYTE   N02  En1  v024
 BYTE   N02  Fs1  v048
 BYTE   N02  Gs1  v072
 BYTE   N02  Cs3  v036
 BYTE   W06
 BYTE   Ds1  v072
 BYTE   N02  En1  v040
 BYTE   N02  Fs1  v060
 BYTE   N02  Gs1  v072
 BYTE   N02  Cs3  v036
 BYTE   W06
 BYTE   Ds1  v072
 BYTE   N02  En1  v040
 BYTE   N02  Fs1  v060
 BYTE   N02  Gs1  v072
 BYTE   N02  Cn3  v036
 BYTE   W06
 BYTE   Cn1  v080
 BYTE   N02  Gs1  v084
 BYTE   N02  Gn2
 BYTE   W12
 BYTE   As1  v060
 BYTE   W06
 BYTE   N05  Cs3  v064
 BYTE   W06
 BYTE   N02  Ds1  v068
 BYTE   N02  En1  v040
 BYTE   N02  Fs1  v060
 BYTE   N02  Gs1  v072
 BYTE   W06
 BYTE   N02
 BYTE   W06
 BYTE   Cn1  v080
 BYTE   N02  As1  v060
 BYTE   N05  Cn3  v064
 BYTE   W12
 BYTE   PATT
  POIN2 Label_6_0187B62B
 BYTE   PATT
  POIN2 Label_6_0187B67B
 BYTE   PATT
  POIN2 Label_6_0187B62B
// 019   ----------------------------------------
 BYTE   N02  Cn1  v080
 BYTE   N02  Gs1  v072
 BYTE   W06
 BYTE   N02
 BYTE   W06
 BYTE   Ds1
 BYTE   N02  En1  v040
 BYTE   N02  Fs1  v060
 BYTE   N02  As1
 BYTE   N03  En4  v064
 BYTE   W04
 BYTE   N03
 BYTE   W02
 BYTE   N02  Cn1  v080
 BYTE   N05  Cs3  v064
 BYTE   W02
 BYTE   N03  En4  v060
 BYTE   W04
 BYTE   N02  Ds1  v072
 BYTE   N02  En1  v040
 BYTE   N02  Fs1  v060
 BYTE   N02  Gs1  v072
 BYTE   N03  En4  v060
 BYTE   W06
 BYTE   N02  Ds1  v072
 BYTE   N02  En1  v040
 BYTE   N02  Fs1  v060
 BYTE   N02  Gs1  v072
 BYTE   W06
 BYTE   As1  v060
 BYTE   N05  Cn3  v064
 BYTE   N03  En4  v060
 BYTE   W12
 BYTE   N02  Cn1  v080
 BYTE   N02  Gs1  v072
 BYTE   W06
 BYTE   N02
 BYTE   W06
 BYTE   As1  v060
 BYTE   W06
 BYTE   N05  Cs3  v064
 BYTE   W06
 BYTE   N02  Ds1  v072
 BYTE   N02  En1  v040
 BYTE   N02  Fs1  v060
 BYTE   N02  Gs1  v072
 BYTE   W06
 BYTE   N02
 BYTE   W06
 BYTE   Cn1  v080
 BYTE   N02  As1  v060
 BYTE   N05  Cn3  v064
 BYTE   W12
 BYTE   PATT
  POIN2 Label_6_0187B67B
 BYTE   PATT
  POIN2 Label_6_0187B743
// 020   ----------------------------------------
 BYTE   N02  Cn1  v080
 BYTE   N02  Gs1  v072
 BYTE   W06
 BYTE   N02
 BYTE   W06
 BYTE   Ds1
 BYTE   N02  En1  v040
 BYTE   N02  Fs1  v060
 BYTE   N02  As1
 BYTE   W06
 BYTE   Cn1  v080
 BYTE   N05  Cs3  v064
 BYTE   W06
 BYTE   N02  Ds1  v072
 BYTE   N02  En1  v040
 BYTE   N02  Fs1  v060
 BYTE   N02  Gs1  v064
 BYTE   W06
 BYTE   Ds1  v072
 BYTE   N02  En1  v040
 BYTE   N02  Fs1  v060
 BYTE   N02  Gs1  v064
 BYTE   W06
 BYTE   As1  v060
 BYTE   N05  Cn3  v064
 BYTE   W12
 BYTE   N02  Cn1  v068
 BYTE   N02  Ds1  v088
 BYTE   N02  En1  v048
 BYTE   N02  Fs1
 BYTE   N05  Cs3  v064
 BYTE   W06
 BYTE   N02  Cn1
 BYTE   N02  Ds1  v080
 BYTE   N02  En1  v044
 BYTE   N02  Fs1
 BYTE   N05  Cn3  v064
 BYTE   W06
 BYTE   N02  Cn1  v060
 BYTE   N02  Ds1  v080
 BYTE   N02  En1  v040
 BYTE   N02  Fs1
 BYTE   N05  Cn3  v064
 BYTE   W06
 BYTE   N02  Cn1
 BYTE   N02  Ds1  v080
 BYTE   N02  En1  v036
 BYTE   N02  Fs1
 BYTE   N05  Cn3  v064
 BYTE   W12
 BYTE   N02  Cn1  v060
 BYTE   N02  Ds1  v080
 BYTE   N02  En1  v044
 BYTE   N02  Fs1
 BYTE   N05  Cs3  v064
 BYTE   W12
 BYTE   N02  Cn1
 BYTE   N02  Ds1  v084
 BYTE   N02  En1  v044
 BYTE   N02  Fs1
 BYTE   N05  Cs3  v064
 BYTE   W06
 BYTE   PATT
  POIN2 Label_6_0187B821
 BYTE   PATT
  POIN2 Label_6_0187B87E
 BYTE   PATT
  POIN2 Label_6_0187B8DA
 BYTE   PATT
  POIN2 Label_6_0187B963
 BYTE   PATT
  POIN2 Label_6_0187B9C7
 BYTE   PATT
  POIN2 Label_6_0187BA5C
 BYTE   PATT
  POIN2 Label_6_0187BAB8
 BYTE   PATT
  POIN2 Label_6_0187BB54
// 021   ----------------------------------------
 BYTE   N02  Cs1  v080
 BYTE   N02  Ds1  v060
 BYTE   N02  En1  v036
 BYTE   N02  Fs1  v060
 BYTE   N02  Dn2  v072
 BYTE   N02  Cs3  v060
 BYTE   W06
 BYTE   Cs1  v092
 BYTE   N02  Ds1  v068
 BYTE   N02  En1  v048
 BYTE   N02  Fs1  v068
 BYTE   N02  Cs3  v064
 BYTE   W03
 BYTE   Cs1  v072
 BYTE   N02  Ds1  v056
 BYTE   N02  En1  v036
 BYTE   N02  Fs1  v056
 BYTE   W03
 BYTE   Cn1  v080
 BYTE   N02  Dn2  v072
 BYTE   W06
 BYTE   Cs1  v080
 BYTE   N02  Ds1  v056
 BYTE   N02  En1  v044
 BYTE   N02  Fs1  v056
 BYTE   N02  Cn2  v072
 BYTE   N02  Cn3  v056
 BYTE   W12
 BYTE   Cs1  v072
 BYTE   N02  Ds1  v048
 BYTE   N02  En1  v036
 BYTE   N02  Fs1  v048
 BYTE   N02  Bn1  v072
 BYTE   N02  Cn3  v056
 BYTE   W06
 BYTE   Cn1  v076
 BYTE   N02  Cs1  v064
 BYTE   N02  Ds1  v056
 BYTE   N02  En1  v048
 BYTE   N02  Fs1  v056
 BYTE   N02  Cn3  v064
 BYTE   W06
 BYTE   Cs1  v056
 BYTE   N02  Ds1  v040
 BYTE   N02  En1  v028
 BYTE   N02  Fs1  v040
 BYTE   N02  Cs3  v056
 BYTE   W06
 BYTE   Cn1  v076
 BYTE   N02  Gs1  v072
 BYTE   N02  Gn2  v100
 BYTE   N02  Cs3  v056
 BYTE   W06
 BYTE   Gs1  v072
 BYTE   N02  Cs3  v056
 BYTE   W06
 BYTE   Gs1  v072
 BYTE   W06
 BYTE   Cn1  v076
 BYTE   N02  Gs1  v072
 BYTE   N02  Cs3  v056
 BYTE   W06
 BYTE   Ds1  v072
 BYTE   N02  En1  v040
 BYTE   N02  Fs1  v060
 BYTE   N02  Gs1  v072
 BYTE   N02  Cs3  v052
 BYTE   W06
 BYTE   Gs1  v072
 BYTE   W06
 BYTE   Cn1  v076
 BYTE   N02  As1  v064
 BYTE   N02  Cs3  v052
 BYTE   W06
 BYTE   Gs1  v072
 BYTE   N02  Cs3  v052
 BYTE   W06
// 022   ----------------------------------------
 BYTE   Gs1  v072
 BYTE   W06
 BYTE   N02
 BYTE   N02  Cn3  v052
 BYTE   W06
 BYTE   Cn1  v076
 BYTE   N02  As1  v064
 BYTE   N02  Cn3  v052
 BYTE   W06
 BYTE   Gs1  v072
 BYTE   W06
 BYTE   Ds1
 BYTE   N02  En1  v040
 BYTE   N02  Fs1  v060
 BYTE   N02  Gs1  v072
 BYTE   W06
 BYTE   N02
 BYTE   W06
 BYTE   Cn1  v076
 BYTE   N02  As1  v064
 BYTE   N02  Cn3  v052
 BYTE   W06
 BYTE   Gs1  v072
 BYTE   N02  Cn3  v052
 BYTE   W06
 BYTE   Cn1  v076
 BYTE   N02  Gs1  v072
 BYTE   N02  Cs3  v056
 BYTE   W06
 BYTE   Gs1  v072
 BYTE   N02  Cs3  v056
 BYTE   W06
 BYTE   As1  v064
 BYTE   W06
 BYTE   Cn1  v076
 BYTE   N02  Gs1  v072
 BYTE   N02  Cs3  v056
 BYTE   W06
 BYTE   Ds1  v072
 BYTE   N02  En1  v040
 BYTE   N02  Fs1  v060
 BYTE   N02  Gs1  v072
 BYTE   N02  Cs3  v052
 BYTE   W06
 BYTE   Gs1  v072
 BYTE   W06
 BYTE   Cn1  v076
 BYTE   N02  As1  v064
 BYTE   N02  Cs3  v052
 BYTE   W06
 BYTE   Gs1  v072
 BYTE   N02  Cs3  v052
 BYTE   W06
// 023   ----------------------------------------
 BYTE   VOL   59*PaperMarioTTYDRegularEnemyPandan_mvl/mxv
 BYTE   N02  Gs1  v072
 BYTE   W03
 BYTE   VOL   58*PaperMarioTTYDRegularEnemyPandan_mvl/mxv
 BYTE   W03
 BYTE   An2
 BYTE   N02
 BYTE   N02  Cn3  v052
 BYTE   W03
 BYTE   VOL   57*PaperMarioTTYDRegularEnemyPandan_mvl/mxv
 BYTE   W03
 BYTE   Gs2
 BYTE   N02  Cn1  v076
 BYTE   N02  As1  v064
 BYTE   N02  Cn3  v052
 BYTE   W03
 BYTE   VOL   56*PaperMarioTTYDRegularEnemyPandan_mvl/mxv
 BYTE   W03
 BYTE   Gn2
 BYTE   N02  Ds1  v072
 BYTE   N02  En1  v040
 BYTE   N02  Fs1  v060
 BYTE   N02  Gs1  v072
 BYTE   W03
 BYTE   VOL   54*PaperMarioTTYDRegularEnemyPandan_mvl/mxv
 BYTE   W03
 BYTE   Fs2
 BYTE   N02  Ds1  v052
 BYTE   N02  En1  v024
 BYTE   N02  Fs1  v048
 BYTE   N02  Gs1  v072
 BYTE   W03
 BYTE   VOL   53*PaperMarioTTYDRegularEnemyPandan_mvl/mxv
 BYTE   W03
 BYTE   En2
 BYTE   N02
 BYTE   W03
 BYTE   VOL   52*PaperMarioTTYDRegularEnemyPandan_mvl/mxv
 BYTE   W03
 BYTE   N02  Cn1  v076
 BYTE   N02  As1  v064
 BYTE   N02  Cn3  v052
 BYTE   W01
 BYTE   VOL   51*PaperMarioTTYDRegularEnemyPandan_mvl/mxv
 BYTE   W03
 BYTE   Ds2
 BYTE   W02
 BYTE   N02  Gs1  v072
 BYTE   N02  Cn3  v052
 BYTE   W01
 BYTE   VOL   50*PaperMarioTTYDRegularEnemyPandan_mvl/mxv
 BYTE   W03
 BYTE   Cs2
 BYTE   W02
 BYTE   N02  Cn1  v076
 BYTE   N02  Gs1  v072
 BYTE   N02  Gn2  v100
 BYTE   N02  Cn3  v052
 BYTE   W01
 BYTE   VOL   49*PaperMarioTTYDRegularEnemyPandan_mvl/mxv
 BYTE   W03
 BYTE   Cn2
 BYTE   W02
 BYTE   N02  Gs1  v072
 BYTE   N02  Cs3  v052
 BYTE   W01
 BYTE   VOL   47*PaperMarioTTYDRegularEnemyPandan_mvl/mxv
 BYTE   W03
 BYTE   Bn1
 BYTE   W02
 BYTE   N02  As1  v064
 BYTE   W01
 BYTE   VOL   46*PaperMarioTTYDRegularEnemyPandan_mvl/mxv
 BYTE   W03
 BYTE   An1
 BYTE   W02
 BYTE   N02  Cn1  v076
 BYTE   N02  Gs1  v072
 BYTE   N02  Cn3  v052
 BYTE   W01
 BYTE   VOL   45*PaperMarioTTYDRegularEnemyPandan_mvl/mxv
 BYTE   W03
 BYTE   Gs1
 BYTE   W02
 BYTE   N02  Ds1  v072
 BYTE   N02  En1  v040
 BYTE   N02  Fs1  v060
 BYTE   N02  Gs1  v072
 BYTE   N02  Cs3  v052
 BYTE   W01
 BYTE   VOL   44*PaperMarioTTYDRegularEnemyPandan_mvl/mxv
 BYTE   W03
 BYTE   Gn1
 BYTE   W02
 BYTE   N02  Gs1  v072
 BYTE   W01
 BYTE   VOL   42*PaperMarioTTYDRegularEnemyPandan_mvl/mxv
 BYTE   W03
 BYTE   Fs1
 BYTE   W02
 BYTE   N02  Cn1  v076
 BYTE   N02  As1  v064
 BYTE   N02  Cn3  v052
 BYTE   W02
 BYTE   VOL   41*PaperMarioTTYDRegularEnemyPandan_mvl/mxv
 BYTE   W03
 BYTE   En1
 BYTE   W01
 BYTE   N02  Gs1  v072
 BYTE   N02  Cs3  v052
 BYTE   W02
 BYTE   VOL   40*PaperMarioTTYDRegularEnemyPandan_mvl/mxv
 BYTE   W03
 BYTE   Ds1
 BYTE   W01
// 024   ----------------------------------------
 BYTE   N02  Gs1  v072
 BYTE   W02
 BYTE   VOL   39*PaperMarioTTYDRegularEnemyPandan_mvl/mxv
 BYTE   W03
 BYTE   Dn1
 BYTE   W01
 BYTE   N02
 BYTE   N02  Cn3  v052
 BYTE   W02
 BYTE   VOL   37*PaperMarioTTYDRegularEnemyPandan_mvl/mxv
 BYTE   W03
 BYTE   Cs1
 BYTE   W01
 BYTE   N02  Cn1  v076
 BYTE   N02  As1  v064
 BYTE   N02  Cs3  v052
 BYTE   W02
 BYTE   VOL   36*PaperMarioTTYDRegularEnemyPandan_mvl/mxv
 BYTE   W03
 BYTE   Bn0
 BYTE   W01
 BYTE   N02  Ds1  v072
 BYTE   N02  En1  v040
 BYTE   N02  Fs1  v060
 BYTE   N02  Gs1  v072
 BYTE   W02
 BYTE   VOL   35*PaperMarioTTYDRegularEnemyPandan_mvl/mxv
 BYTE   W03
 BYTE   As0
 BYTE   W01
 BYTE   N02  Cn1  v076
 BYTE   N02  Ds1  v048
 BYTE   N02  En1  v028
 BYTE   N02  Fs1  v048
 BYTE   N02  Gs1  v072
 BYTE   N02  Cn3  v052
 BYTE   W02
 BYTE   VOL   34*PaperMarioTTYDRegularEnemyPandan_mvl/mxv
 BYTE   W03
 BYTE   An0
 BYTE   W01
 BYTE   N02  Cs3
 BYTE   W02
 BYTE   VOL   32*PaperMarioTTYDRegularEnemyPandan_mvl/mxv
 BYTE   W03
 BYTE   Gs0
 BYTE   W01
 BYTE   N02  Dn2  v064
 BYTE   N02  Cs3  v052
 BYTE   W03
 BYTE   VOL   31*PaperMarioTTYDRegularEnemyPandan_mvl/mxv
 BYTE   W03
 BYTE   Fs0
 BYTE   N02  Cn2  v064
 BYTE   N02  Cs3  v052
 BYTE   W03
 BYTE   VOL   30*PaperMarioTTYDRegularEnemyPandan_mvl/mxv
 BYTE   W03
 BYTE   Fn0
 BYTE   N02  Cn1  v076
 BYTE   N02  Ds1  v052
 BYTE   N02  En1  v024
 BYTE   N02  Fs1  v048
 BYTE   N02  An1  v064
 BYTE   N02  Cs3  v052
 BYTE   W03
 BYTE   VOL   28*PaperMarioTTYDRegularEnemyPandan_mvl/mxv
 BYTE   W03
 BYTE   En0
 BYTE   N02  Cn1  v076
 BYTE   N02  Ds1  v072
 BYTE   N02  En1  v040
 BYTE   N02  Fs1  v060
 BYTE   N02  Cs3  v052
 BYTE   W03
 BYTE   VOL   27*PaperMarioTTYDRegularEnemyPandan_mvl/mxv
 BYTE   W03
 BYTE   Ds0
 BYTE   W03
 BYTE   Dn0
 BYTE   W03
 BYTE   Cs0
 BYTE   N02  Cn1  v076
 BYTE   N02  Ds1  v072
 BYTE   N02  En1  v040
 BYTE   N02  Fs1  v060
 BYTE   N02  Cs3  v052
 BYTE   W03
 BYTE   VOL   25*PaperMarioTTYDRegularEnemyPandan_mvl/mxv
 BYTE   W03
 BYTE   Cn0
 BYTE   W03
 BYTE   BnM1
 BYTE   W03
 BYTE   BnM1
 BYTE   N02  Cn1  v076
 BYTE   N02  Ds1  v052
 BYTE   N02  En1  v024
 BYTE   N02  Fs1  v048
 BYTE   N02  Cn3  v052
 BYTE   W03
 BYTE   VOL   22*PaperMarioTTYDRegularEnemyPandan_mvl/mxv
 BYTE   W03
 BYTE   N02  Ds1  v072
 BYTE   N02  En1  v040
 BYTE   N02  Fs1  v060
 BYTE   N02  Cs3  v052
 BYTE   W01
 BYTE   VOL   22*PaperMarioTTYDRegularEnemyPandan_mvl/mxv
 BYTE   W03
 BYTE   AnM1
 BYTE   W03
 BYTE   GsM1
 BYTE   W03
 BYTE   GsM1
 BYTE   W02
// 025   ----------------------------------------
 BYTE   N02  Cn1  v076
 BYTE   N02  Ds1  v072
 BYTE   N02  En1  v040
 BYTE   N02  Fs1  v060
 BYTE   N02  Gs1  v072
 BYTE   N02  Cs3  v052
 BYTE   W01
 BYTE   VOL   19*PaperMarioTTYDRegularEnemyPandan_mvl/mxv
 BYTE   W03
 BYTE   FsM1
 BYTE   W02
 BYTE   N02  Gs1  v072
 BYTE   W01
 BYTE   VOL   18*PaperMarioTTYDRegularEnemyPandan_mvl/mxv
 BYTE   W03
 BYTE   FnM1
 BYTE   W02
 BYTE   N02
 BYTE   W01
 BYTE   VOL   17*PaperMarioTTYDRegularEnemyPandan_mvl/mxv
 BYTE   W03
 BYTE   EnM1
 BYTE   W02
 BYTE   N02  Cn1  v076
 BYTE   N02  Ds1  v072
 BYTE   N02  En1  v040
 BYTE   N02  Fs1  v060
 BYTE   N02  Gs1  v072
 BYTE   N02  Cs3  v052
 BYTE   W01
 BYTE   VOL   15*PaperMarioTTYDRegularEnemyPandan_mvl/mxv
 BYTE   W03
 BYTE   DsM1
 BYTE   W03
 BYTE   DnM1
 BYTE   W03
 BYTE   CsM1
 BYTE   W02
 BYTE   N02  Ds1
 BYTE   N02  En1  v024
 BYTE   N02  Fs1  v048
 BYTE   N02  Gs1  v072
 BYTE   N02  Cs3  v036
 BYTE   W01
 BYTE   VOL   13*PaperMarioTTYDRegularEnemyPandan_mvl/mxv
 BYTE   W03
 BYTE   CnM1
 BYTE   W02
 BYTE   N02  Ds1  v072
 BYTE   N02  En1  v040
 BYTE   N02  Fs1  v060
 BYTE   N02  Gs1  v072
 BYTE   N02  Cs3  v036
 BYTE   W02
 BYTE   VOL   11*PaperMarioTTYDRegularEnemyPandan_mvl/mxv
 BYTE   W03
 BYTE   BnM2
 BYTE   W01
 BYTE   N02  Ds1  v072
 BYTE   N02  En1  v040
 BYTE   N02  Fs1  v060
 BYTE   N02  Gs1  v072
 BYTE   N02  Cn3  v036
 BYTE   W02
 BYTE   VOL   10*PaperMarioTTYDRegularEnemyPandan_mvl/mxv
 BYTE   W03
 BYTE   AsM2
 BYTE   W03
 BYTE   AnM2
 BYTE   W03
 BYTE   GsM2
 BYTE   W03
 BYTE   GsM2
 BYTE   W03
 BYTE   GnM2
 BYTE   W03
 BYTE   FsM2
 BYTE   W03
 BYTE   FsM2
 BYTE   W03
 BYTE   FnM2
 BYTE   W03
 BYTE   FnM2
 BYTE   W03
 BYTE   EnM2
 BYTE   W03
 BYTE   DsM2
 BYTE   W03
 BYTE   DsM2
 BYTE   W03
 BYTE   DnM2
 BYTE   W01
 BYTE   GoTo
  POIN2 Label_6_0187B5AE
// 026   ----------------------------------------
 BYTE   W03
 BYTE   VOL   1*PaperMarioTTYDRegularEnemyPandan_mvl/mxv
 BYTE   W03
 BYTE   CsM2
 BYTE   W03
 BYTE   CnM2
 BYTE   W03
 BYTE   CnM2
 BYTE   W96
// 027   ----------------------------------------
 BYTE   VOICE   123
 BYTE   FINE

//**************** Track 8 (Midi-Chn.7) ****************//

PaperMarioTTYDRegularEnemyPandan_008:
// 000   ----------------------------------------
 BYTE   KEYSH   PaperMarioTTYDRegularEnemyPandan_key+0
Label_7_0187C31A:
 BYTE   VOICE   18
 BYTE   PAN   c_v+7
 BYTE   VOL   66*PaperMarioTTYDRegularEnemyPandan_mvl/mxv
 BYTE   Fs3
 BYTE   VOL   66*PaperMarioTTYDRegularEnemyPandan_mvl/mxv
 BYTE   VOL   66*PaperMarioTTYDRegularEnemyPandan_mvl/mxv
 BYTE   Fs3
 BYTE   VOL   66*PaperMarioTTYDRegularEnemyPandan_mvl/mxv
 BYTE   W96
// 001   ----------------------------------------
 BYTE   W96
// 002   ----------------------------------------
 BYTE   W96
// 003   ----------------------------------------
 BYTE   W96
// 004   ----------------------------------------
 BYTE   W96
// 005   ----------------------------------------
 BYTE   W96
// 006   ----------------------------------------
 BYTE   W96
// 007   ----------------------------------------
 BYTE   W96
// 008   ----------------------------------------
Label_7_0187C330:
 BYTE   W48
 BYTE   N05  Bn3  v064
 BYTE   W06
 BYTE   N05
 BYTE   W12
 BYTE   N05
 BYTE   W06
 BYTE   N05
 BYTE   W12
 BYTE   N05
 BYTE   W06
 BYTE   N05
 BYTE   W06
 BYTE   PEND 
// 009   ----------------------------------------
Label_7_0187C340:
 BYTE   W12
 BYTE   N23  An3  v064
 BYTE   W24
 BYTE   N11  As3
 BYTE   W12
 BYTE   N05  Bn3
 BYTE   W06
 BYTE   N05
 BYTE   W12
 BYTE   N05
 BYTE   W06
 BYTE   N05
 BYTE   W12
 BYTE   N05
 BYTE   W06
 BYTE   N05
 BYTE   W06
 BYTE   PEND 
// 010   ----------------------------------------
Label_7_0187C356:
 BYTE   W12
 BYTE   N23  An3  v064
 BYTE   W24
 BYTE   N11
 BYTE   W12
 BYTE   N05  Bn3
 BYTE   W06
 BYTE   N05
 BYTE   W12
 BYTE   N05
 BYTE   W06
 BYTE   N05
 BYTE   W12
 BYTE   N05
 BYTE   W06
 BYTE   N05
 BYTE   W06
 BYTE   PEND 
 BYTE   PATT
  POIN2 Label_7_0187C340
// 011   ----------------------------------------
Label_7_0187C370:
 BYTE   W12
 BYTE   N23  An3  v064
 BYTE   W24
 BYTE   N11
 BYTE   W12
 BYTE   N05  Cn4  v048
 BYTE   W06
 BYTE   N05
 BYTE   W12
 BYTE   N05
 BYTE   W06
 BYTE   N05
 BYTE   W12
 BYTE   N05
 BYTE   W06
 BYTE   N05
 BYTE   W06
 BYTE   PEND 
// 012   ----------------------------------------
Label_7_0187C386:
 BYTE   W12
 BYTE   N23  As3  v048
 BYTE   W24
 BYTE   N11
 BYTE   W12
 BYTE   N05  Cn4
 BYTE   W06
 BYTE   N05
 BYTE   W12
 BYTE   N05
 BYTE   W06
 BYTE   N05
 BYTE   W12
 BYTE   N05
 BYTE   W06
 BYTE   N05
 BYTE   W06
 BYTE   PEND 
// 013   ----------------------------------------
Label_7_0187C39B:
 BYTE   W12
 BYTE   N23  As3  v048
 BYTE   W36
 BYTE   N05  Cn4
 BYTE   W06
 BYTE   N05
 BYTE   W12
 BYTE   N05
 BYTE   W06
 BYTE   N05
 BYTE   W12
 BYTE   N05
 BYTE   W06
 BYTE   N05
 BYTE   W06
 BYTE   PEND 
 BYTE   PATT
  POIN2 Label_7_0187C386
// 014   ----------------------------------------
Label_7_0187C3B3:
 BYTE   W12
 BYTE   N23  As3  v048
 BYTE   W36
 BYTE   N05  Fs3  v056
 BYTE   W06
 BYTE   N05
 BYTE   W12
 BYTE   N05
 BYTE   W06
 BYTE   N05
 BYTE   W12
 BYTE   N05
 BYTE   W06
 BYTE   N05
 BYTE   W06
 BYTE   PEND 
// 015   ----------------------------------------
Label_7_0187C3C7:
 BYTE   W12
 BYTE   N23  En3  v056
 BYTE   W24
 BYTE   N11  Fn3
 BYTE   W12
 BYTE   N05  Fs3
 BYTE   W06
 BYTE   N05
 BYTE   W12
 BYTE   N05
 BYTE   W06
 BYTE   N05
 BYTE   W12
 BYTE   N05
 BYTE   W06
 BYTE   N05
 BYTE   W06
 BYTE   PEND 
// 016   ----------------------------------------
 BYTE   W12
 BYTE   N23
 BYTE   W24
 BYTE   N11
 BYTE   W12
 BYTE   N05
 BYTE   W06
 BYTE   N05
 BYTE   W12
 BYTE   N05
 BYTE   W06
 BYTE   N05
 BYTE   W12
 BYTE   N05
 BYTE   W06
 BYTE   N05
 BYTE   W06
// 017   ----------------------------------------
 BYTE   W24
 BYTE   N05
 BYTE   W06
 BYTE   N05
 BYTE   W06
 BYTE   N05
 BYTE   W06
 BYTE   N05
 BYTE   W06
 BYTE   Gn4
 BYTE   W06
 BYTE   N05
 BYTE   W12
 BYTE   N05
 BYTE   W12
 BYTE   Fs4
 BYTE   W06
 BYTE   Gn4
 BYTE   W12
// 018   ----------------------------------------
 BYTE   Fs4
 BYTE   W18
 BYTE   En4
 BYTE   W78
// 019   ----------------------------------------
 BYTE   W96
// 020   ----------------------------------------
 BYTE   W96
// 021   ----------------------------------------
 BYTE   W96
// 022   ----------------------------------------
 BYTE   W96
// 023   ----------------------------------------
 BYTE   W96
// 024   ----------------------------------------
 BYTE   W96
// 025   ----------------------------------------
 BYTE   W96
 BYTE   PATT
  POIN2 Label_7_0187C330
 BYTE   PATT
  POIN2 Label_7_0187C340
 BYTE   PATT
  POIN2 Label_7_0187C356
 BYTE   PATT
  POIN2 Label_7_0187C340
 BYTE   PATT
  POIN2 Label_7_0187C370
 BYTE   PATT
  POIN2 Label_7_0187C386
 BYTE   PATT
  POIN2 Label_7_0187C39B
 BYTE   PATT
  POIN2 Label_7_0187C386
 BYTE   PATT
  POIN2 Label_7_0187C3B3
 BYTE   PATT
  POIN2 Label_7_0187C3C7
// 026   ----------------------------------------
 BYTE   VOL   56*PaperMarioTTYDRegularEnemyPandan_mvl/mxv
 BYTE   W03
 BYTE   Gs2
 BYTE   W03
 BYTE   Gn2
 BYTE   W03
 BYTE   Fs2
 BYTE   W03
 BYTE   N23  Fs3  v056
 BYTE   W01
 BYTE   VOL   54*PaperMarioTTYDRegularEnemyPandan_mvl/mxv
 BYTE   W03
 BYTE   Fn2
 BYTE   W03
 BYTE   En2
 BYTE   W03
 BYTE   En2
 BYTE   W03
 BYTE   Ds2
 BYTE   W04
 BYTE   Ds2
 BYTE   W03
 BYTE   Dn2
 BYTE   W03
 BYTE   Cs2
 BYTE   W01
 BYTE   N11
 BYTE   W02
 BYTE   VOL   49*PaperMarioTTYDRegularEnemyPandan_mvl/mxv
 BYTE   W03
 BYTE   Cn2
 BYTE   W04
 BYTE   Bn1
 BYTE   W03
 BYTE   Bn1
 BYTE   N05
 BYTE   W03
 BYTE   VOL   46*PaperMarioTTYDRegularEnemyPandan_mvl/mxv
 BYTE   W03
 BYTE   An1
 BYTE   N05
 BYTE   W03
 BYTE   VOL   45*PaperMarioTTYDRegularEnemyPandan_mvl/mxv
 BYTE   W04
 BYTE   Gs1
 BYTE   W03
 BYTE   Gs1
 BYTE   W02
 BYTE   N05
 BYTE   W01
 BYTE   VOL   43*PaperMarioTTYDRegularEnemyPandan_mvl/mxv
 BYTE   W03
 BYTE   Fs1
 BYTE   W02
 BYTE   N05
 BYTE   W01
 BYTE   VOL   42*PaperMarioTTYDRegularEnemyPandan_mvl/mxv
 BYTE   W04
 BYTE   Fn1
 BYTE   W03
 BYTE   En1
 BYTE   W03
 BYTE   En1
 BYTE   W01
 BYTE   N05
 BYTE   W02
 BYTE   VOL   39*PaperMarioTTYDRegularEnemyPandan_mvl/mxv
 BYTE   W03
 BYTE   Ds1
 BYTE   W01
 BYTE   N05
 BYTE   W03
 BYTE   VOL   38*PaperMarioTTYDRegularEnemyPandan_mvl/mxv
 BYTE   W03
// 027   ----------------------------------------
 BYTE   Cs1
 BYTE   W03
 BYTE   Cs1
 BYTE   W03
 BYTE   Cn1
 BYTE   W03
 BYTE   Bn0
 BYTE   W04
 BYTE   Bn0
 BYTE   W03
 BYTE   As0
 BYTE   W03
 BYTE   As0
 BYTE   W03
 BYTE   An0
 BYTE   W02
 BYTE   N05
 BYTE   W01
 BYTE   VOL   32*PaperMarioTTYDRegularEnemyPandan_mvl/mxv
 BYTE   W04
 BYTE   Gs0
 BYTE   W01
 BYTE   N05
 BYTE   W02
 BYTE   VOL   31*PaperMarioTTYDRegularEnemyPandan_mvl/mxv
 BYTE   W03
 BYTE   Fs0
 BYTE   W01
 BYTE   N05
 BYTE   W02
 BYTE   VOL   30*PaperMarioTTYDRegularEnemyPandan_mvl/mxv
 BYTE   W03
 BYTE   Fn0
 BYTE   W01
 BYTE   N05
 BYTE   W03
 BYTE   VOL   28*PaperMarioTTYDRegularEnemyPandan_mvl/mxv
 BYTE   W03
 BYTE   En0
 BYTE   N05  Gn4
 BYTE   W03
 BYTE   VOL   27*PaperMarioTTYDRegularEnemyPandan_mvl/mxv
 BYTE   W03
 BYTE   Ds0
 BYTE   N05
 BYTE   W03
 BYTE   VOL   26*PaperMarioTTYDRegularEnemyPandan_mvl/mxv
 BYTE   W04
 BYTE   Cs0
 BYTE   W03
 BYTE   Cs0
 BYTE   W02
 BYTE   N05
 BYTE   W01
 BYTE   VOL   24*PaperMarioTTYDRegularEnemyPandan_mvl/mxv
 BYTE   W03
 BYTE   BnM1
 BYTE   W03
 BYTE   BnM1
 BYTE   W04
 BYTE   AsM1
 BYTE   W01
 BYTE   N05  Fs4
 BYTE   W02
 BYTE   VOL   22*PaperMarioTTYDRegularEnemyPandan_mvl/mxv
 BYTE   W03
 BYTE   AnM1
 BYTE   W01
 BYTE   N05  Gn4
 BYTE   W02
 BYTE   VOL   20*PaperMarioTTYDRegularEnemyPandan_mvl/mxv
 BYTE   W03
 BYTE   GsM1
 BYTE   W04
 BYTE   GnM1
 BYTE   W03
// 028   ----------------------------------------
 BYTE   FsM1
 BYTE   N05  Fs4
 BYTE   W03
 BYTE   VOL   18*PaperMarioTTYDRegularEnemyPandan_mvl/mxv
 BYTE   W03
 BYTE   FnM1
 BYTE   W03
 BYTE   FnM1
 BYTE   W04
 BYTE   EnM1
 BYTE   W03
 BYTE   DsM1
 BYTE   W02
 BYTE   N05  En4
 BYTE   W01
 BYTE   VOL   15*PaperMarioTTYDRegularEnemyPandan_mvl/mxv
 BYTE   W03
 BYTE   DnM1
 BYTE   W03
 BYTE   CsM1
 BYTE   W04
 BYTE   CsM1
 BYTE   W03
 BYTE   CnM1
 BYTE   W03
 BYTE   BnM2
 BYTE   W03
 BYTE   BnM2
 BYTE   W03
 BYTE   AsM2
 BYTE   W04
 BYTE   AsM2
 BYTE   W03
 BYTE   AnM2
 BYTE   W03
 BYTE   GsM2
 BYTE   W03
 BYTE   GsM2
 BYTE   W03
 BYTE   GnM2
 BYTE   W04
 BYTE   FsM2
 BYTE   W03
 BYTE   FsM2
 BYTE   W03
 BYTE   FnM2
 BYTE   W03
 BYTE   FnM2
 BYTE   W03
 BYTE   EnM2
 BYTE   W04
 BYTE   DsM2
 BYTE   W03
 BYTE   DsM2
 BYTE   W03
 BYTE   DnM2
 BYTE   W01
 BYTE   GoTo
  POIN2 Label_7_0187C31A
// 029   ----------------------------------------
 BYTE   W02
 BYTE   VOL   1*PaperMarioTTYDRegularEnemyPandan_mvl/mxv
 BYTE   W03
 BYTE   CsM2
 BYTE   W04
 BYTE   CnM2
 BYTE   W03
 BYTE   CnM2
 BYTE   W96
// 030   ----------------------------------------
 BYTE   VOICE   18
 BYTE   Gn8  v127
 BYTE   FINE

//**************** Track 9 (Midi-Chn.8) ****************//

PaperMarioTTYDRegularEnemyPandan_009:
// 000   ----------------------------------------
 BYTE   KEYSH   PaperMarioTTYDRegularEnemyPandan_key+0
Label_8_0187C53E:
 BYTE   VOICE   40
 BYTE   PAN   c_v+0
 BYTE   VOL   49*PaperMarioTTYDRegularEnemyPandan_mvl/mxv
 BYTE   PAN   c_v+0
 BYTE   VOL   49*PaperMarioTTYDRegularEnemyPandan_mvl/mxv
 BYTE   PAN   c_v+0
 BYTE   VOL   49*PaperMarioTTYDRegularEnemyPandan_mvl/mxv
 BYTE   VOL   49*PaperMarioTTYDRegularEnemyPandan_mvl/mxv
 BYTE   PAN   c_v+0
 BYTE   VOL   49*PaperMarioTTYDRegularEnemyPandan_mvl/mxv
 BYTE   VOL   49*PaperMarioTTYDRegularEnemyPandan_mvl/mxv
 BYTE   W96
// 001   ----------------------------------------
 BYTE   W96
// 002   ----------------------------------------
 BYTE   W96
// 003   ----------------------------------------
 BYTE   W96
// 004   ----------------------------------------
 BYTE   W96
// 005   ----------------------------------------
 BYTE   W96
// 006   ----------------------------------------
 BYTE   W96
// 007   ----------------------------------------
 BYTE   W96
// 008   ----------------------------------------
 BYTE   W96
// 009   ----------------------------------------
 BYTE   W96
// 010   ----------------------------------------
Label_8_0187C55E:
 BYTE   W60
 BYTE   N05  An4  v100
 BYTE   W12
 BYTE   Gn4  v092
 BYTE   W06
 BYTE   En4  v088
 BYTE   W12
 BYTE   Fn4
 BYTE   W06
 BYTE   PEND 
// 011   ----------------------------------------
Label_8_0187C56C:
 BYTE   W06
 BYTE   N05  An3  v084
 BYTE   W06
 BYTE   Bn3  v088
 BYTE   W06
 BYTE   Dn4  v092
 BYTE   W12
 BYTE   Bn3  v084
 BYTE   W06
 BYTE   Dn4  v088
 BYTE   W06
 BYTE   En4  v092
 BYTE   W18
 BYTE   An4  v100
 BYTE   W12
 BYTE   Gn4  v092
 BYTE   W06
 BYTE   En4  v088
 BYTE   W12
 BYTE   Fn4  v096
 BYTE   W06
 BYTE   PEND 
// 012   ----------------------------------------
Label_8_0187C58D:
 BYTE   W06
 BYTE   N05  Dn4  v088
 BYTE   W12
 BYTE   An3
 BYTE   W42
 BYTE   An4
 BYTE   N05  Cn5
 BYTE   W12
 BYTE   Gn4  v084
 BYTE   N05  Bn4
 BYTE   W06
 BYTE   En4  v076
 BYTE   N05  Gn4
 BYTE   W12
 BYTE   Fn4
 BYTE   N05  An4
 BYTE   W06
 BYTE   PEND 
// 013   ----------------------------------------
Label_8_0187C5A7:
 BYTE   W06
 BYTE   N05  An3  v068
 BYTE   N05  Cn4
 BYTE   W06
 BYTE   N11  Bn3  v072
 BYTE   N11  Dn4
 BYTE   W18
 BYTE   N05  Bn3  v068
 BYTE   N05  Dn4
 BYTE   W06
 BYTE   Dn4  v072
 BYTE   N05  Fn4
 BYTE   W06
 BYTE   En4
 BYTE   N05  Gn4
 BYTE   W18
 BYTE   An4  v076
 BYTE   N05  Cn5
 BYTE   W12
 BYTE   Gn4  v072
 BYTE   N05  Bn4
 BYTE   W06
 BYTE   En4  v068
 BYTE   N05  Gn4
 BYTE   W12
 BYTE   Fn4  v084
 BYTE   N05  An4
 BYTE   W06
 BYTE   PEND 
// 014   ----------------------------------------
Label_8_0187C5D8:
 BYTE   W06
 BYTE   N05  Dn4  v072
 BYTE   N05  Fn4
 BYTE   W12
 BYTE   An3  v068
 BYTE   N05  Cn4
 BYTE   W42
 BYTE   An4  v080
 BYTE   N05  Cn5
 BYTE   N05  En5
 BYTE   W12
 BYTE   Gn4  v068
 BYTE   N05  Bn4
 BYTE   N05  Dn5
 BYTE   W06
 BYTE   En4  v064
 BYTE   N05  Gn4
 BYTE   N05  Bn4
 BYTE   W12
 BYTE   Fn4  v068
 BYTE   N05  An4
 BYTE   N05  Cn5
 BYTE   W06
 BYTE   PEND 
// 015   ----------------------------------------
Label_8_0187C601:
 BYTE   W06
 BYTE   N05  An3  v064
 BYTE   N05  Cn4
 BYTE   N05  En4
 BYTE   W06
 BYTE   Bn3  v068
 BYTE   N05  Dn4
 BYTE   N05  Fn4
 BYTE   W06
 BYTE   Dn4  v072
 BYTE   N05  Fn4
 BYTE   N05  An4
 BYTE   W12
 BYTE   Bn3  v068
 BYTE   N05  Dn4
 BYTE   N05  Fn4
 BYTE   W06
 BYTE   Dn4  v072
 BYTE   N05  Fn4
 BYTE   N05  An4
 BYTE   W06
 BYTE   En4  v080
 BYTE   N05  Gn4
 BYTE   N05  Bn4
 BYTE   W18
 BYTE   An4  v076
 BYTE   N05  Cn5
 BYTE   N05  En5
 BYTE   W12
 BYTE   Gn4
 BYTE   N05  Bn4
 BYTE   N05  Dn5
 BYTE   W06
 BYTE   En4  v068
 BYTE   N05  Gn4
 BYTE   N05  Bn4
 BYTE   W12
 BYTE   Fn4  v076
 BYTE   N05  An4
 BYTE   N05  Cn5
 BYTE   W06
 BYTE   PEND 
// 016   ----------------------------------------
Label_8_0187C649:
 BYTE   W06
 BYTE   N05  Dn4  v072
 BYTE   N05  Fn4
 BYTE   N05  An4
 BYTE   W12
 BYTE   An3  v064
 BYTE   N05  Cn4
 BYTE   N05  En4
 BYTE   W30
 BYTE   Cn4  v068
 BYTE   W06
 BYTE   Cn4  v072
 BYTE   W12
 BYTE   N05
 BYTE   W12
 BYTE   N05
 BYTE   W06
 BYTE   En4  v076
 BYTE   W12
 BYTE   PEND 
// 017   ----------------------------------------
Label_8_0187C667:
 BYTE   N05  Fs4  v084
 BYTE   W18
 BYTE   Dn4  v076
 BYTE   W18
 BYTE   An3  v068
 BYTE   W12
 BYTE   Cn4  v072
 BYTE   W06
 BYTE   N05
 BYTE   W12
 BYTE   N05
 BYTE   W12
 BYTE   Cn4  v068
 BYTE   W06
 BYTE   En4  v076
 BYTE   W12
 BYTE   PEND 
// 018   ----------------------------------------
 BYTE   Fs4
 BYTE   W18
 BYTE   An4
 BYTE   W18
 BYTE   Dn5  v084
 BYTE   W12
 BYTE   Bn3  v068
 BYTE   W06
 BYTE   Bn3  v076
 BYTE   W12
 BYTE   Bn3  v072
 BYTE   W06
 BYTE   Bn3  v036
 BYTE   W06
 BYTE   As3  v072
 BYTE   W06
 BYTE   Bn3  v068
 BYTE   W12
// 019   ----------------------------------------
 BYTE   Dn4  v076
 BYTE   W06
 BYTE   Dn4  v080
 BYTE   W12
 BYTE   Dn4  v076
 BYTE   W06
 BYTE   Dn4  v036
 BYTE   W06
 BYTE   Cs4  v076
 BYTE   W06
 BYTE   Dn4
 BYTE   W06
 BYTE   Fs4  v084
 BYTE   W06
 BYTE   En4  v072
 BYTE   W06
 BYTE   En4  v080
 BYTE   W12
 BYTE   En4  v076
 BYTE   W06
 BYTE   En4  v036
 BYTE   W06
 BYTE   Ds4  v076
 BYTE   W06
 BYTE   En4  v068
 BYTE   W12
// 020   ----------------------------------------
 BYTE   An4  v080
 BYTE   W18
 BYTE   An3  v068
 BYTE   W78
// 021   ----------------------------------------
 BYTE   W96
// 022   ----------------------------------------
 BYTE   W96
// 023   ----------------------------------------
 BYTE   W96
// 024   ----------------------------------------
 BYTE   W96
// 025   ----------------------------------------
 BYTE   W96
// 026   ----------------------------------------
 BYTE   W96
// 027   ----------------------------------------
 BYTE   W96
// 028   ----------------------------------------
 BYTE   W96
// 029   ----------------------------------------
 BYTE   W96
 BYTE   PATT
  POIN2 Label_8_0187C55E
 BYTE   PATT
  POIN2 Label_8_0187C56C
 BYTE   PATT
  POIN2 Label_8_0187C58D
 BYTE   PATT
  POIN2 Label_8_0187C5A7
 BYTE   PATT
  POIN2 Label_8_0187C5D8
 BYTE   PATT
  POIN2 Label_8_0187C601
 BYTE   PATT
  POIN2 Label_8_0187C649
 BYTE   PATT
  POIN2 Label_8_0187C667
// 030   ----------------------------------------
 BYTE   VOL   49*PaperMarioTTYDRegularEnemyPandan_mvl/mxv
 BYTE   N05  Fs4  v076
 BYTE   W03
 BYTE   VOL   49*PaperMarioTTYDRegularEnemyPandan_mvl/mxv
 BYTE   W04
 BYTE   Cn2
 BYTE   W04
 BYTE   Bn1
 BYTE   W03
 BYTE   Bn1
 BYTE   W04
 BYTE   As1
 BYTE   N05  An4
 BYTE   W04
 BYTE   VOL   45*PaperMarioTTYDRegularEnemyPandan_mvl/mxv
 BYTE   W03
 BYTE   An1
 BYTE   W04
 BYTE   Gs1
 BYTE   W04
 BYTE   Gs1
 BYTE   W03
 BYTE   Gn1
 BYTE   N05  Dn5  v084
 BYTE   W04
 BYTE   VOL   42*PaperMarioTTYDRegularEnemyPandan_mvl/mxv
 BYTE   W03
 BYTE   Fs1
 BYTE   W04
 BYTE   Fn1
 BYTE   W01
 BYTE   N05  Bn3  v068
 BYTE   W03
 BYTE   VOL   40*PaperMarioTTYDRegularEnemyPandan_mvl/mxv
 BYTE   W03
 BYTE   En1
 BYTE   N05  Bn3  v076
 BYTE   W04
 BYTE   VOL   39*PaperMarioTTYDRegularEnemyPandan_mvl/mxv
 BYTE   W04
 BYTE   Ds1
 BYTE   W03
 BYTE   Dn1
 BYTE   W01
 BYTE   N05  Bn3  v072
 BYTE   W03
 BYTE   VOL   37*PaperMarioTTYDRegularEnemyPandan_mvl/mxv
 BYTE   W03
 BYTE   N05  Bn3  v036
 BYTE   W01
 BYTE   VOL   37*PaperMarioTTYDRegularEnemyPandan_mvl/mxv
 BYTE   W03
 BYTE   Cn1
 BYTE   W02
 BYTE   N05  As3  v072
 BYTE   W02
 BYTE   VOL   35*PaperMarioTTYDRegularEnemyPandan_mvl/mxv
 BYTE   W04
 BYTE   Bn0
 BYTE   N05  Bn3  v068
 BYTE   W03
 BYTE   VOL   34*PaperMarioTTYDRegularEnemyPandan_mvl/mxv
 BYTE   W04
 BYTE   As0
 BYTE   W04
 BYTE   An0
 BYTE   W01
// 031   ----------------------------------------
 BYTE   N05  Dn4  v076
 BYTE   W02
 BYTE   VOL   32*PaperMarioTTYDRegularEnemyPandan_mvl/mxv
 BYTE   W04
 BYTE   Gs0
 BYTE   N05  Dn4  v080
 BYTE   W03
 BYTE   VOL   31*PaperMarioTTYDRegularEnemyPandan_mvl/mxv
 BYTE   W04
 BYTE   Fs0
 BYTE   W04
 BYTE   Fs0
 BYTE   W01
 BYTE   N05  Dn4  v076
 BYTE   W02
 BYTE   VOL   29*PaperMarioTTYDRegularEnemyPandan_mvl/mxv
 BYTE   W04
 BYTE   En0
 BYTE   N05  Dn4  v036
 BYTE   W04
 BYTE   VOL   28*PaperMarioTTYDRegularEnemyPandan_mvl/mxv
 BYTE   W02
 BYTE   N05  Cs4  v076
 BYTE   W01
 BYTE   VOL   27*PaperMarioTTYDRegularEnemyPandan_mvl/mxv
 BYTE   W04
 BYTE   Ds0
 BYTE   W01
 BYTE   N05  Dn4
 BYTE   W03
 BYTE   VOL   26*PaperMarioTTYDRegularEnemyPandan_mvl/mxv
 BYTE   W03
 BYTE   Cs0
 BYTE   N05  Fs4  v084
 BYTE   W04
 BYTE   VOL   25*PaperMarioTTYDRegularEnemyPandan_mvl/mxv
 BYTE   W02
 BYTE   N05  En4  v072
 BYTE   W02
 BYTE   VOL   24*PaperMarioTTYDRegularEnemyPandan_mvl/mxv
 BYTE   W03
 BYTE   BnM1
 BYTE   W01
 BYTE   N05  En4  v080
 BYTE   W03
 BYTE   VOL   23*PaperMarioTTYDRegularEnemyPandan_mvl/mxv
 BYTE   W04
 BYTE   AsM1
 BYTE   W03
 BYTE   AsM1
 BYTE   W02
 BYTE   N05  En4  v076
 BYTE   W02
 BYTE   VOL   21*PaperMarioTTYDRegularEnemyPandan_mvl/mxv
 BYTE   W03
 BYTE   GsM1
 BYTE   W01
 BYTE   N05  En4  v036
 BYTE   W03
 BYTE   VOL   20*PaperMarioTTYDRegularEnemyPandan_mvl/mxv
 BYTE   W03
 BYTE   N05  Ds4  v076
 BYTE   W01
 BYTE   VOL   19*PaperMarioTTYDRegularEnemyPandan_mvl/mxv
 BYTE   W03
 BYTE   FsM1
 BYTE   W02
 BYTE   N05  En4  v068
 BYTE   W02
 BYTE   VOL   18*PaperMarioTTYDRegularEnemyPandan_mvl/mxv
 BYTE   W04
 BYTE   FnM1
 BYTE   W03
 BYTE   FnM1
 BYTE   W03
// 032   ----------------------------------------
 BYTE   N05  An4  v080
 BYTE   W01
 BYTE   VOL   16*PaperMarioTTYDRegularEnemyPandan_mvl/mxv
 BYTE   W04
 BYTE   DsM1
 BYTE   W03
 BYTE   DsM1
 BYTE   W04
 BYTE   DnM1
 BYTE   W04
 BYTE   CsM1
 BYTE   W02
 BYTE   N05  An3  v068
 BYTE   W01
 BYTE   VOL   13*PaperMarioTTYDRegularEnemyPandan_mvl/mxv
 BYTE   W04
 BYTE   CnM1
 BYTE   W03
 BYTE   BnM2
 BYTE   W04
 BYTE   BnM2
 BYTE   W04
 BYTE   AsM2
 BYTE   W03
 BYTE   AsM2
 BYTE   W04
 BYTE   AnM2
 BYTE   W04
 BYTE   GsM2
 BYTE   W03
 BYTE   GsM2
 BYTE   W04
 BYTE   GnM2
 BYTE   W04
 BYTE   FsM2
 BYTE   W03
 BYTE   FsM2
 BYTE   W04
 BYTE   FnM2
 BYTE   W04
 BYTE   FnM2
 BYTE   W03
 BYTE   EnM2
 BYTE   W04
 BYTE   DsM2
 BYTE   W04
 BYTE   DsM2
 BYTE   W03
 BYTE   DnM2
 BYTE   W03
 BYTE   GoTo
  POIN2 Label_8_0187C53E
// 033   ----------------------------------------
 BYTE   W01
 BYTE   VOL   1*PaperMarioTTYDRegularEnemyPandan_mvl/mxv
 BYTE   W03
 BYTE   CsM2
 BYTE   W04
 BYTE   CnM2
 BYTE   W04
 BYTE   CnM2
 BYTE   W96
// 034   ----------------------------------------
 BYTE   VOICE   40
 BYTE   PAN   c_v+0
 BYTE   PAN   c_v+0
 BYTE   PAN   c_v+0
 BYTE   FINE

//**************** Track 10 (Midi-Chn.9) ****************//

PaperMarioTTYDRegularEnemyPandan_010:
// 000   ----------------------------------------
 BYTE   KEYSH   PaperMarioTTYDRegularEnemyPandan_key+0
Label_9_0187C816:
 BYTE   VOICE   80
 BYTE   PAN   c_v-1
 BYTE   VOL   54*PaperMarioTTYDRegularEnemyPandan_mvl/mxv
 BYTE   Fs2
 BYTE   VOL   54*PaperMarioTTYDRegularEnemyPandan_mvl/mxv
 BYTE   VOL   54*PaperMarioTTYDRegularEnemyPandan_mvl/mxv
 BYTE   VOL   54*PaperMarioTTYDRegularEnemyPandan_mvl/mxv
 BYTE   VOL   54*PaperMarioTTYDRegularEnemyPandan_mvl/mxv
 BYTE   W96
// 001   ----------------------------------------
 BYTE   W96
// 002   ----------------------------------------
 BYTE   W96
// 003   ----------------------------------------
 BYTE   W96
// 004   ----------------------------------------
 BYTE   W96
// 005   ----------------------------------------
 BYTE   W96
// 006   ----------------------------------------
 BYTE   W96
// 007   ----------------------------------------
 BYTE   W96
// 008   ----------------------------------------
 BYTE   W44
 BYTE   W01
 BYTE   En3
 BYTE   W01
 BYTE   N01  Gs4  v024
 BYTE   W02
 BYTE   En4  v032
 BYTE   W03
 BYTE   Fn4
 BYTE   W01
 BYTE   En4
 BYTE   W02
 BYTE   As3  v020
 BYTE   W01
 BYTE   An4
 BYTE   W02
 BYTE   Fn4  v032
 BYTE   N01  Dn5  v024
 BYTE   W01
 BYTE   En4  v032
 BYTE   N01  Gs4  v024
 BYTE   N01  Cs5
 BYTE   W02
 BYTE   En3  v020
 BYTE   W01
 BYTE   As3  v024
 BYTE   N01  En4  v036
 BYTE   W02
 BYTE   Fn4
 BYTE   W01
 BYTE   En4
 BYTE   W02
 BYTE   Gs2  v028
 BYTE   N01  En3
 BYTE   W01
 BYTE   Gn4  v024
 BYTE   W02
 BYTE   En4  v036
 BYTE   N01  Fn4
 BYTE   W03
 BYTE   En4  v040
 BYTE   W03
 BYTE   En4  v036
 BYTE   N01  Fn4
 BYTE   N01  Cs5  v024
 BYTE   W03
 BYTE   As4
 BYTE   W01
 BYTE   Fs3
 BYTE   W02
 BYTE   En4  v028
 BYTE   W03
 BYTE   Bn2  v024
 BYTE   N01  Fn4  v028
 BYTE   W01
 BYTE   En4  v032
 BYTE   W03
 BYTE   N01
 BYTE   W02
 BYTE   Cn4  v020
 BYTE   N01  Fn4  v032
 BYTE   N01  Ds5  v020
 BYTE   W03
 BYTE   En4  v036
 BYTE   W01
 BYTE   En3  v024
 BYTE   W02
// 009   ----------------------------------------
Label_9_0187C895:
 BYTE   N01  Cn3  v024
 BYTE   N01  Gn3
 BYTE   N01  Fn4  v036
 BYTE   W01
 BYTE   Bn4  v024
 BYTE   W03
 BYTE   En4  v032
 BYTE   W02
 BYTE   En4  v028
 BYTE   N01  Gn4  v020
 BYTE   W03
 BYTE   Dn4
 BYTE   N01  En4  v028
 BYTE   N01  Gs4  v020
 BYTE   W03
 BYTE   Cn3
 BYTE   N01  Fn4  v028
 BYTE   W01
 BYTE   En4  v032
 BYTE   W05
 BYTE   An3  v020
 BYTE   N01  Fn4  v032
 BYTE   W03
 BYTE   Fn3  v028
 BYTE   N01  En4  v032
 BYTE   N01  Dn5  v028
 BYTE   W03
 BYTE   Ds3  v020
 BYTE   W03
 BYTE   En4  v032
 BYTE   W03
 BYTE   As2  v024
 BYTE   N01  En4  v028
 BYTE   N01  Fs4  v020
 BYTE   N01  Cn5  v024
 BYTE   W01
 BYTE   An4  v020
 BYTE   W02
 BYTE   Bn2
 BYTE   N01  Fn4  v028
 BYTE   W01
 BYTE   En4
 BYTE   W02
 BYTE   Gn3  v020
 BYTE   W03
 BYTE   En4  v028
 BYTE   W01
 BYTE   N01
 BYTE   W02
 BYTE   Fn4
 BYTE   W01
 BYTE   En4
 BYTE   W02
 BYTE   Bn3  v012
 BYTE   W01
 BYTE   En4  v024
 BYTE   W03
 BYTE   Dn4  v020
 BYTE   N01  En4  v024
 BYTE   W02
 BYTE   Fn4
 BYTE   N01  An4  v020
 BYTE   W03
 BYTE   En4  v024
 BYTE   W03
 BYTE   N01
 BYTE   W01
 BYTE   Gn4  v020
 BYTE   W02
 BYTE   Cs3  v012
 BYTE   W01
 BYTE   Fs3  v024
 BYTE   W02
 BYTE   As3  v020
 BYTE   N01  Fn4
 BYTE   W03
 BYTE   En4
 BYTE   N01  Bn4  v016
 BYTE   W01
 BYTE   Gn4
 BYTE   W02
 BYTE   Gn2
 BYTE   N01  Gs3
 BYTE   N01  En4  v020
 BYTE   W03
 BYTE   Fn4
 BYTE   W01
 BYTE   En4  v016
 BYTE   W02
 BYTE   Dn3  v008
 BYTE   W01
 BYTE   En4  v016
 BYTE   W03
 BYTE   Bn4  v008
 BYTE   W06
 BYTE   Ds3  v012
 BYTE   W02
 BYTE   Cn4  v008
 BYTE   W01
 BYTE   En4  v012
 BYTE   W08
 BYTE   PEND 
// 010   ----------------------------------------
 BYTE   W96
// 011   ----------------------------------------
 BYTE   W96
// 012   ----------------------------------------
Label_9_0187C93D:
 BYTE   W06
 BYTE   N05  An5  v040
 BYTE   W06
 BYTE   Cn6  v048
 BYTE   W06
 BYTE   Gn5  v044
 BYTE   W06
 BYTE   N02  An5  v052
 BYTE   W03
 BYTE   Gn5  v048
 BYTE   W03
 BYTE   Fn5  v044
 BYTE   W03
 BYTE   En5  v040
 BYTE   W03
 BYTE   Dn5
 BYTE   W03
 BYTE   Cn5  v036
 BYTE   W03
 BYTE   Bn4  v032
 BYTE   W03
 BYTE   An4  v028
 BYTE   W48
 BYTE   W03
 BYTE   PEND 
// 013   ----------------------------------------
 BYTE   W96
// 014   ----------------------------------------
Label_9_0187C963:
 BYTE   W18
 BYTE   N02  An3  v052
 BYTE   W06
 BYTE   An4  v064
 BYTE   W06
 BYTE   An3  v056
 BYTE   W06
 BYTE   An4  v072
 BYTE   W06
 BYTE   An3  v060
 BYTE   W06
 BYTE   An4  v080
 BYTE   W06
 BYTE   An3  v072
 BYTE   W06
 BYTE   An4  v088
 BYTE   W06
 BYTE   An3  v064
 BYTE   W06
 BYTE   An4  v068
 BYTE   W06
 BYTE   An3  v048
 BYTE   W06
 BYTE   An4  v056
 BYTE   W06
 BYTE   An3  v044
 BYTE   W06
 BYTE   PEND 
// 015   ----------------------------------------
Label_9_0187C98D:
 BYTE   N02  An4  v052
 BYTE   W06
 BYTE   An3  v028
 BYTE   W06
 BYTE   An4  v036
 BYTE   W06
 BYTE   An3  v040
 BYTE   W06
 BYTE   An4  v044
 BYTE   W06
 BYTE   An3  v036
 BYTE   W06
 BYTE   An4  v040
 BYTE   W60
 BYTE   PEND 
// 016   ----------------------------------------
 BYTE   W96
// 017   ----------------------------------------
 BYTE   W96
// 018   ----------------------------------------
 BYTE   W96
// 019   ----------------------------------------
 BYTE   W96
// 020   ----------------------------------------
 BYTE   W96
// 021   ----------------------------------------
 BYTE   W96
// 022   ----------------------------------------
 BYTE   W96
// 023   ----------------------------------------
 BYTE   W96
// 024   ----------------------------------------
 BYTE   W96
// 025   ----------------------------------------
 BYTE   W96
// 026   ----------------------------------------
 BYTE   W96
// 027   ----------------------------------------
 BYTE   W96
// 028   ----------------------------------------
 BYTE   W44
 BYTE   W02
 BYTE   N01  Gs4  v024
 BYTE   W02
 BYTE   En4  v032
 BYTE   W03
 BYTE   Fn4
 BYTE   W01
 BYTE   En4
 BYTE   W02
 BYTE   As3  v020
 BYTE   W01
 BYTE   An4
 BYTE   W02
 BYTE   Fn4  v032
 BYTE   N01  Dn5  v024
 BYTE   W01
 BYTE   En4  v032
 BYTE   N01  Gs4  v024
 BYTE   N01  Cs5
 BYTE   W02
 BYTE   En3  v020
 BYTE   W01
 BYTE   As3  v024
 BYTE   N01  En4  v036
 BYTE   W02
 BYTE   Fn4
 BYTE   W01
 BYTE   En4
 BYTE   W02
 BYTE   Gs2  v028
 BYTE   N01  En3
 BYTE   W01
 BYTE   Gn4  v024
 BYTE   W02
 BYTE   En4  v036
 BYTE   N01  Fn4
 BYTE   W03
 BYTE   En4  v040
 BYTE   W03
 BYTE   En4  v036
 BYTE   N01  Fn4
 BYTE   N01  Cs5  v024
 BYTE   W03
 BYTE   As4
 BYTE   W01
 BYTE   Fs3
 BYTE   W02
 BYTE   En4  v028
 BYTE   W03
 BYTE   Bn2  v024
 BYTE   N01  Fn4  v028
 BYTE   W01
 BYTE   En4  v032
 BYTE   W03
 BYTE   N01
 BYTE   W02
 BYTE   Cn4  v020
 BYTE   N01  Fn4  v032
 BYTE   N01  Ds5  v020
 BYTE   W03
 BYTE   En4  v036
 BYTE   W01
 BYTE   En3  v024
 BYTE   W02
 BYTE   PATT
  POIN2 Label_9_0187C895
// 029   ----------------------------------------
 BYTE   W96
// 030   ----------------------------------------
 BYTE   W96
 BYTE   PATT
  POIN2 Label_9_0187C93D
// 031   ----------------------------------------
 BYTE   W96
 BYTE   PATT
  POIN2 Label_9_0187C963
 BYTE   PATT
  POIN2 Label_9_0187C98D
// 032   ----------------------------------------
 BYTE   W96
// 033   ----------------------------------------
 BYTE   W96
// 034   ----------------------------------------
 BYTE   W96
// 035   ----------------------------------------
 BYTE   W96
// 036   ----------------------------------------
 BYTE   W84
 BYTE   GoTo
  POIN2 Label_9_0187C816
// 037   ----------------------------------------
 BYTE   W12
 BYTE   W96
// 038   ----------------------------------------
 BYTE   VOICE   80
 BYTE   VOL   54*PaperMarioTTYDRegularEnemyPandan_mvl/mxv
 BYTE   VOL   54*PaperMarioTTYDRegularEnemyPandan_mvl/mxv
 BYTE   VOL   54*PaperMarioTTYDRegularEnemyPandan_mvl/mxv
 BYTE   FINE

//******************************************************//
	ALIGN 4

PaperMarioTTYDRegularEnemyPandan:
	BYTE	10	// NumTrks
	BYTE	0	// NumBlks
	BYTE	PaperMarioTTYDRegularEnemyPandan_pri	// Priority
	BYTE	PaperMarioTTYDRegularEnemyPandan_rev	// Reverb.
    
	POIN2	PaperMarioTTYDRegularEnemyPandan_grp
    
	POIN2	PaperMarioTTYDRegularEnemyPandan_001
	POIN2	PaperMarioTTYDRegularEnemyPandan_002
	POIN2	PaperMarioTTYDRegularEnemyPandan_003
	POIN2	PaperMarioTTYDRegularEnemyPandan_004
	POIN2	PaperMarioTTYDRegularEnemyPandan_005
	POIN2	PaperMarioTTYDRegularEnemyPandan_006
	POIN2	PaperMarioTTYDRegularEnemyPandan_007
	POIN2	PaperMarioTTYDRegularEnemyPandan_008
	POIN2	PaperMarioTTYDRegularEnemyPandan_009
	POIN2	PaperMarioTTYDRegularEnemyPandan_010

	
