//Event file generated from Sappy .s format.
	#include "MPlayDef.event"

	#define	PaperMarioTTYDDooplissSme_grp  voicegroup000
	#define	PaperMarioTTYDDooplissSme_pri  0
	#define	PaperMarioTTYDDooplissSme_rev  0
	#define	PaperMarioTTYDDooplissSme_mvl  85
	#define	PaperMarioTTYDDooplissSme_key  0
	#define	PaperMarioTTYDDooplissSme_tbs  1
	#define	PaperMarioTTYDDooplissSme_exg  0
	#define	PaperMarioTTYDDooplissSme_cmp  1

	// .rodata
	//	PaperMarioTTYDDooplissSme
	ALIGN 4

//**************** Track 1 (Midi-Chn.1) ****************//

PaperMarioTTYDDooplissSme_1:
	BYTE	KEYSH   PaperMarioTTYDDooplissSme_key+0
// 000   ----------------------------------------
	BYTE	TEMPO   125*PaperMarioTTYDDooplissSme_tbs/2
	BYTE		VOICE   79
	BYTE		VOL     81*PaperMarioTTYDDooplissSme_mvl/mxv
	BYTE		PAN     c_v+0
	BYTE	W48
	BYTE		N02     Bn3   v112
	BYTE	W03
	BYTE		        Dn4 
	BYTE	W03
	BYTE		        Fn4 
	BYTE	W03
	BYTE		        An4 
	BYTE	W03
	BYTE		        Bn4 
	BYTE	W03
	BYTE		        Cn5 
	BYTE	W03
	BYTE		        Dn5 
	BYTE	W03
	BYTE		        Bn5 
	BYTE	W24
	BYTE	W03
PaperMarioTTYDDooplissSme_1_B1:
// 001   ----------------------------------------
	BYTE	W96
// 002   ----------------------------------------
	BYTE	W96
// 003   ----------------------------------------
	BYTE	W96
// 004   ----------------------------------------
	BYTE	W96
// 005   ----------------------------------------
	BYTE	W96
// 006   ----------------------------------------
	BYTE	W96
// 007   ----------------------------------------
	BYTE	W96
// 008   ----------------------------------------
	BYTE	W96
// 009   ----------------------------------------
	BYTE	W96
// 010   ----------------------------------------
	BYTE	W96
// 011   ----------------------------------------
	BYTE	W96
// 012   ----------------------------------------
	BYTE	W96
// 013   ----------------------------------------
	BYTE	W96
// 014   ----------------------------------------
	BYTE	W96
// 015   ----------------------------------------
	BYTE	W96
// 016   ----------------------------------------
	BYTE	W96
// 017   ----------------------------------------
	BYTE	W96
// 018   ----------------------------------------
	BYTE	W96
// 019   ----------------------------------------
	BYTE	W96
// 020   ----------------------------------------
	BYTE	W96
// 021   ----------------------------------------
	BYTE	W96
// 022   ----------------------------------------
PaperMarioTTYDDooplissSme_1_022:
	BYTE		N11     An4   v112
	BYTE	W12
	BYTE		N05     An5 
	BYTE	W06
	BYTE		        Gs5 
	BYTE	W06
	BYTE		N04     Gn5 
	BYTE	W12
	BYTE		        Fs5 
	BYTE	W12
	BYTE		        Fn5 
	BYTE	W12
	BYTE		        En5 
	BYTE	W12
	BYTE		        Ds5 
	BYTE	W12
	BYTE		        En5 
	BYTE	W12
	BYTE	PEND
// 023   ----------------------------------------
PaperMarioTTYDDooplissSme_1_023:
	BYTE		N11     Fn5   v112
	BYTE	W12
	BYTE		N05     En5 
	BYTE	W06
	BYTE		N05   
	BYTE	W06
	BYTE		N04     Ds5 
	BYTE	W12
	BYTE		        En5 
	BYTE	W12
	BYTE		        Fn5 
	BYTE	W12
	BYTE		        En5 
	BYTE	W12
	BYTE		        Cn5 
	BYTE	W12
	BYTE		        Bn4 
	BYTE	W12
	BYTE	PEND
// 024   ----------------------------------------
	BYTE	PATT
	 POIN2	PaperMarioTTYDDooplissSme_1_022
// 025   ----------------------------------------
PaperMarioTTYDDooplissSme_1_025:
	BYTE		N11     Fn5   v112
	BYTE	W12
	BYTE		N05     En5 
	BYTE	W06
	BYTE		N05   
	BYTE	W06
	BYTE		N04     Ds5 
	BYTE	W12
	BYTE		        En5 
	BYTE	W12
	BYTE		        Fn5 
	BYTE	W12
	BYTE		        Gs5 
	BYTE	W12
	BYTE		        An5 
	BYTE	W12
	BYTE		        Bn5 
	BYTE	W12
	BYTE	PEND
// 026   ----------------------------------------
	BYTE	PATT
	 POIN2	PaperMarioTTYDDooplissSme_1_022
// 027   ----------------------------------------
	BYTE	PATT
	 POIN2	PaperMarioTTYDDooplissSme_1_023
// 028   ----------------------------------------
	BYTE	PATT
	 POIN2	PaperMarioTTYDDooplissSme_1_022
// 029   ----------------------------------------
	BYTE	W96
// 030   ----------------------------------------
	BYTE	W96
// 031   ----------------------------------------
	BYTE	W96
// 032   ----------------------------------------
	BYTE	W96
// 033   ----------------------------------------
	BYTE	W96
// 034   ----------------------------------------
	BYTE	W96
// 035   ----------------------------------------
	BYTE	W96
// 036   ----------------------------------------
	BYTE	W96
// 037   ----------------------------------------
	BYTE	W96
// 038   ----------------------------------------
	BYTE	W96
// 039   ----------------------------------------
	BYTE	W96
// 040   ----------------------------------------
	BYTE	W96
// 041   ----------------------------------------
	BYTE	W96
// 042   ----------------------------------------
	BYTE	W96
// 043   ----------------------------------------
	BYTE	W96
// 044   ----------------------------------------
	BYTE	W96
// 045   ----------------------------------------
	BYTE	W96
// 046   ----------------------------------------
	BYTE	W96
// 047   ----------------------------------------
	BYTE	W96
// 048   ----------------------------------------
	BYTE	W96
// 049   ----------------------------------------
	BYTE	W96
// 050   ----------------------------------------
	BYTE	W96
// 051   ----------------------------------------
	BYTE	PATT
	 POIN2	PaperMarioTTYDDooplissSme_1_022
// 052   ----------------------------------------
	BYTE	PATT
	 POIN2	PaperMarioTTYDDooplissSme_1_023
// 053   ----------------------------------------
	BYTE	PATT
	 POIN2	PaperMarioTTYDDooplissSme_1_022
// 054   ----------------------------------------
	BYTE	PATT
	 POIN2	PaperMarioTTYDDooplissSme_1_025
// 055   ----------------------------------------
	BYTE	PATT
	 POIN2	PaperMarioTTYDDooplissSme_1_022
// 056   ----------------------------------------
	BYTE	PATT
	 POIN2	PaperMarioTTYDDooplissSme_1_023
// 057   ----------------------------------------
	BYTE	PATT
	 POIN2	PaperMarioTTYDDooplissSme_1_022
// 058   ----------------------------------------
	BYTE	W96
// 059   ----------------------------------------
	BYTE	W18
	BYTE	GoTo
	 POIN2	PaperMarioTTYDDooplissSme_1_B1
PaperMarioTTYDDooplissSme_1_B2:
	BYTE	FINE

//**************** Track 2 (Midi-Chn.2) ****************//

PaperMarioTTYDDooplissSme_2:
	BYTE	KEYSH   PaperMarioTTYDDooplissSme_key+0
// 000   ----------------------------------------
	BYTE		VOICE   79
	BYTE		VOL     77*PaperMarioTTYDDooplissSme_mvl/mxv
	BYTE		PAN     c_v+0
	BYTE	W96
PaperMarioTTYDDooplissSme_2_B1:
// 001   ----------------------------------------
	BYTE	W96
// 002   ----------------------------------------
	BYTE	W96
// 003   ----------------------------------------
	BYTE	W96
// 004   ----------------------------------------
	BYTE	W96
// 005   ----------------------------------------
	BYTE	W96
// 006   ----------------------------------------
	BYTE	W96
// 007   ----------------------------------------
	BYTE	W96
// 008   ----------------------------------------
	BYTE	W96
// 009   ----------------------------------------
	BYTE	W96
// 010   ----------------------------------------
PaperMarioTTYDDooplissSme_2_010:
	BYTE		N11     An1   v092
	BYTE	W06
	BYTE		N05     En3   v112
	BYTE	W06
	BYTE		N11     Cn2   v092
	BYTE		N11     An3   v112
	BYTE	W12
	BYTE		        Bn1   v092
	BYTE		N05     En3   v112
	BYTE	W06
	BYTE		        Ds3 
	BYTE	W06
	BYTE		N11     An1   v092
	BYTE		N05     En3   v112
	BYTE	W06
	BYTE		        Cn3 
	BYTE	W06
	BYTE		N11     Dn2   v092
	BYTE		N05     An3   v112
	BYTE	W06
	BYTE		        Gs3 
	BYTE	W06
	BYTE		N11     Fs2   v092
	BYTE		N05     An3   v112
	BYTE	W12
	BYTE		N11     Gs2   v092
	BYTE		N05     Bn3   v112
	BYTE	W06
	BYTE		        An3 
	BYTE	W06
	BYTE		N11     Fn2   v092
	BYTE		N05     Bn3   v112
	BYTE	W12
	BYTE	PEND
// 011   ----------------------------------------
PaperMarioTTYDDooplissSme_2_011:
	BYTE		N11     Fs2   v092
	BYTE		N05     Cn4   v112
	BYTE	W06
	BYTE		        Bn3 
	BYTE	W06
	BYTE		N11     Dn2   v092
	BYTE		N05     Cn4   v112
	BYTE	W12
	BYTE		N11     Ds2   v092
	BYTE		N05     Bn3   v112
	BYTE	W06
	BYTE		        An3 
	BYTE	W06
	BYTE		N11     Bn1   v092
	BYTE		N05     Bn3   v112
	BYTE	W12
	BYTE		N11     En1   v092
	BYTE		N05     An3   v112
	BYTE	W06
	BYTE		        Gs3 
	BYTE	W06
	BYTE		N11     Cn1   v092
	BYTE		N05     An3   v112
	BYTE	W12
	BYTE		N11     Ds1   v092
	BYTE		N05     Fn3   v112
	BYTE	W06
	BYTE		        En3 
	BYTE	W06
	BYTE		N11     Cn1   v092
	BYTE		N05     Ds3   v112
	BYTE	W06
	BYTE		        En3 
	BYTE	W06
	BYTE	PEND
// 012   ----------------------------------------
PaperMarioTTYDDooplissSme_2_012:
	BYTE		N11     An1   v092
	BYTE	W06
	BYTE		N05     En3   v112
	BYTE	W06
	BYTE		N11     Cn2   v092
	BYTE		N11     An3   v112
	BYTE	W12
	BYTE		        Bn1   v092
	BYTE		N05     En3   v112
	BYTE	W06
	BYTE		        Ds3 
	BYTE	W06
	BYTE		N11     An1   v092
	BYTE		N05     En3   v112
	BYTE	W06
	BYTE		        Cn3 
	BYTE	W06
	BYTE		N11     As1   v092
	BYTE		N05     Cs3   v112
	BYTE	W06
	BYTE		        Ds3 
	BYTE	W06
	BYTE		N11     Cn2   v092
	BYTE		N05     En3   v112
	BYTE	W06
	BYTE		        Gn3 
	BYTE	W06
	BYTE		N11     Dn2   v092
	BYTE		N05     Fn3   v112
	BYTE	W06
	BYTE		        Dn3 
	BYTE	W06
	BYTE		N11     Fn2   v092
	BYTE		N05     An3   v112
	BYTE	W06
	BYTE		        Fn3 
	BYTE	W06
	BYTE	PEND
// 013   ----------------------------------------
PaperMarioTTYDDooplissSme_2_013:
	BYTE		N11     As1   v092
	BYTE		N05     Gn3   v112
	BYTE	W06
	BYTE		        En3 
	BYTE	W06
	BYTE		N11     An1   v092
	BYTE		N05     Fn3   v112
	BYTE	W06
	BYTE		        Dn3 
	BYTE	W06
	BYTE		N11     Gn1   v092
	BYTE		N05     En3   v112
	BYTE	W06
	BYTE		        Cs3 
	BYTE	W06
	BYTE		N11     Fs1   v092
	BYTE		N05     Dn3   v112
	BYTE	W06
	BYTE		        Bn2 
	BYTE	W06
	BYTE		N11     En1   v092
	BYTE		N05     Cs3   v112
	BYTE	W06
	BYTE		        An2 
	BYTE	W06
	BYTE		N11     Ds1   v092
	BYTE		N05     Fn2   v112
	BYTE	W06
	BYTE		        Gn2 
	BYTE	W06
	BYTE		N20     En1   v092
	BYTE		N05     En2   v112
	BYTE	W06
	BYTE		        Fn2 
	BYTE	W06
	BYTE		        Dn2 
	BYTE	W12
	BYTE	PEND
// 014   ----------------------------------------
	BYTE	PATT
	 POIN2	PaperMarioTTYDDooplissSme_2_010
// 015   ----------------------------------------
	BYTE	PATT
	 POIN2	PaperMarioTTYDDooplissSme_2_011
// 016   ----------------------------------------
PaperMarioTTYDDooplissSme_2_016:
	BYTE		N11     An1   v092
	BYTE	W06
	BYTE		N05     En3   v112
	BYTE	W06
	BYTE		N11     Cn2   v092
	BYTE		N11     An3   v112
	BYTE	W12
	BYTE		        Bn1   v092
	BYTE		N05     En3   v112
	BYTE	W06
	BYTE		        Ds3 
	BYTE	W06
	BYTE		N11     An1   v092
	BYTE		N05     En3   v112
	BYTE	W06
	BYTE		        Bn3 
	BYTE	W06
	BYTE		N11     As1   v092
	BYTE	W06
	BYTE		        An3   v112
	BYTE	W06
	BYTE		        Cn2   v092
	BYTE	W12
	BYTE		        Dn2 
	BYTE	W06
	BYTE		N05     Bn3   v112
	BYTE	W06
	BYTE		N11     Fn2   v092
	BYTE		N05     An3   v112
	BYTE	W12
	BYTE	PEND
// 017   ----------------------------------------
PaperMarioTTYDDooplissSme_2_017:
	BYTE		N05     Bn3   v112
	BYTE	W06
	BYTE		        Dn2 
	BYTE	W06
	BYTE		        Fn2 
	BYTE	W06
	BYTE		        Gs2 
	BYTE	W06
	BYTE		        Bn3 
	BYTE	W06
	BYTE		        Gs2 
	BYTE	W06
	BYTE		        Fn2 
	BYTE	W06
	BYTE		        Dn2 
	BYTE	W06
	BYTE		        Bn3 
	BYTE	W06
	BYTE		        Gs3 
	BYTE	W06
	BYTE		        Fn3 
	BYTE	W06
	BYTE		        Dn3 
	BYTE	W06
	BYTE		        Bn1 
	BYTE	W06
	BYTE		        Gs1 
	BYTE	W06
	BYTE		        Fn1 
	BYTE	W06
	BYTE		        Dn1 
	BYTE	W06
	BYTE	PEND
// 018   ----------------------------------------
	BYTE	W96
// 019   ----------------------------------------
	BYTE	W96
// 020   ----------------------------------------
	BYTE	W96
// 021   ----------------------------------------
	BYTE	W96
// 022   ----------------------------------------
PaperMarioTTYDDooplissSme_2_022:
	BYTE		N20     An3   v112
	BYTE	W48
	BYTE		        Bn3 
	BYTE	W48
	BYTE	PEND
// 023   ----------------------------------------
PaperMarioTTYDDooplissSme_2_023:
	BYTE		N20     Cn4   v112
	BYTE	W48
	BYTE		        Dn4 
	BYTE	W48
	BYTE	PEND
// 024   ----------------------------------------
	BYTE	PATT
	 POIN2	PaperMarioTTYDDooplissSme_2_022
// 025   ----------------------------------------
PaperMarioTTYDDooplissSme_2_025:
	BYTE		N20     Cn4   v112
	BYTE	W24
	BYTE		        Bn3 
	BYTE	W24
	BYTE		        Dn4 
	BYTE	W48
	BYTE	PEND
// 026   ----------------------------------------
	BYTE	PATT
	 POIN2	PaperMarioTTYDDooplissSme_2_022
// 027   ----------------------------------------
	BYTE	PATT
	 POIN2	PaperMarioTTYDDooplissSme_2_023
// 028   ----------------------------------------
	BYTE	PATT
	 POIN2	PaperMarioTTYDDooplissSme_2_022
// 029   ----------------------------------------
	BYTE	W96
// 030   ----------------------------------------
	BYTE	W96
// 031   ----------------------------------------
	BYTE	W96
// 032   ----------------------------------------
	BYTE	W96
// 033   ----------------------------------------
	BYTE	W96
// 034   ----------------------------------------
	BYTE	W96
// 035   ----------------------------------------
	BYTE	W96
// 036   ----------------------------------------
	BYTE	W96
// 037   ----------------------------------------
	BYTE	W96
// 038   ----------------------------------------
	BYTE	W96
// 039   ----------------------------------------
	BYTE	PATT
	 POIN2	PaperMarioTTYDDooplissSme_2_010
// 040   ----------------------------------------
	BYTE	PATT
	 POIN2	PaperMarioTTYDDooplissSme_2_011
// 041   ----------------------------------------
	BYTE	PATT
	 POIN2	PaperMarioTTYDDooplissSme_2_012
// 042   ----------------------------------------
	BYTE	PATT
	 POIN2	PaperMarioTTYDDooplissSme_2_013
// 043   ----------------------------------------
	BYTE	PATT
	 POIN2	PaperMarioTTYDDooplissSme_2_010
// 044   ----------------------------------------
	BYTE	PATT
	 POIN2	PaperMarioTTYDDooplissSme_2_011
// 045   ----------------------------------------
	BYTE	PATT
	 POIN2	PaperMarioTTYDDooplissSme_2_016
// 046   ----------------------------------------
	BYTE	PATT
	 POIN2	PaperMarioTTYDDooplissSme_2_017
// 047   ----------------------------------------
	BYTE	W96
// 048   ----------------------------------------
	BYTE	W96
// 049   ----------------------------------------
	BYTE	W96
// 050   ----------------------------------------
	BYTE	W96
// 051   ----------------------------------------
	BYTE	PATT
	 POIN2	PaperMarioTTYDDooplissSme_2_022
// 052   ----------------------------------------
	BYTE	PATT
	 POIN2	PaperMarioTTYDDooplissSme_2_023
// 053   ----------------------------------------
	BYTE	PATT
	 POIN2	PaperMarioTTYDDooplissSme_2_022
// 054   ----------------------------------------
	BYTE	PATT
	 POIN2	PaperMarioTTYDDooplissSme_2_025
// 055   ----------------------------------------
	BYTE	PATT
	 POIN2	PaperMarioTTYDDooplissSme_2_022
// 056   ----------------------------------------
	BYTE	PATT
	 POIN2	PaperMarioTTYDDooplissSme_2_023
// 057   ----------------------------------------
	BYTE	PATT
	 POIN2	PaperMarioTTYDDooplissSme_2_022
// 058   ----------------------------------------
	BYTE	W96
// 059   ----------------------------------------
	BYTE	W18
	BYTE	GoTo
	 POIN2	PaperMarioTTYDDooplissSme_2_B1
PaperMarioTTYDDooplissSme_2_B2:
	BYTE	FINE

//**************** Track 3 (Midi-Chn.3) ****************//

PaperMarioTTYDDooplissSme_3:
	BYTE	KEYSH   PaperMarioTTYDDooplissSme_key+0
// 000   ----------------------------------------
	BYTE		VOICE   24
	BYTE		VOL     111*PaperMarioTTYDDooplissSme_mvl/mxv
	BYTE		PAN     c_v+0
	BYTE	W96
PaperMarioTTYDDooplissSme_3_B1:
// 001   ----------------------------------------
PaperMarioTTYDDooplissSme_3_001:
	BYTE		N11     Fn3   v112
	BYTE	W12
	BYTE		N05     En3 
	BYTE	W06
	BYTE		N05   
	BYTE	W06
	BYTE		N04     Ds3 
	BYTE	W12
	BYTE		        En3 
	BYTE	W12
	BYTE		        Fn3 
	BYTE	W12
	BYTE		        En3 
	BYTE	W12
	BYTE		        Ds3 
	BYTE	W12
	BYTE		        En3 
	BYTE	W12
	BYTE	PEND
// 002   ----------------------------------------
PaperMarioTTYDDooplissSme_3_002:
	BYTE		N11     Fn3   v112
	BYTE	W12
	BYTE		N05     En3 
	BYTE	W06
	BYTE		N05   
	BYTE	W06
	BYTE		N04     Ds3 
	BYTE	W12
	BYTE		        En3 
	BYTE	W12
	BYTE		        Fn3 
	BYTE	W12
	BYTE		        En3 
	BYTE	W12
	BYTE		        Cn3 
	BYTE	W12
	BYTE		        Bn2 
	BYTE	W12
	BYTE	PEND
// 003   ----------------------------------------
	BYTE	PATT
	 POIN2	PaperMarioTTYDDooplissSme_3_001
// 004   ----------------------------------------
	BYTE	PATT
	 POIN2	PaperMarioTTYDDooplissSme_3_002
// 005   ----------------------------------------
PaperMarioTTYDDooplissSme_3_005:
	BYTE		N11     Fn3   v127
	BYTE	W12
	BYTE		N05     En3 
	BYTE	W06
	BYTE		N05   
	BYTE	W06
	BYTE		N04     Ds3 
	BYTE	W12
	BYTE		        En3 
	BYTE	W12
	BYTE		        Fn3 
	BYTE	W12
	BYTE		        En3 
	BYTE	W12
	BYTE		        Ds3 
	BYTE	W12
	BYTE		        En3 
	BYTE	W12
	BYTE	PEND
// 006   ----------------------------------------
PaperMarioTTYDDooplissSme_3_006:
	BYTE		N11     Fn3   v127
	BYTE	W12
	BYTE		N05     En3 
	BYTE	W06
	BYTE		N05   
	BYTE	W06
	BYTE		N04     Ds3 
	BYTE	W12
	BYTE		        En3 
	BYTE	W12
	BYTE		        Fn3 
	BYTE	W12
	BYTE		        En3 
	BYTE	W12
	BYTE		        Cn3 
	BYTE	W12
	BYTE		        Bn2 
	BYTE	W12
	BYTE	PEND
// 007   ----------------------------------------
	BYTE	PATT
	 POIN2	PaperMarioTTYDDooplissSme_3_005
// 008   ----------------------------------------
	BYTE	PATT
	 POIN2	PaperMarioTTYDDooplissSme_3_006
// 009   ----------------------------------------
PaperMarioTTYDDooplissSme_3_009:
	BYTE		N04     An3   v127
	BYTE	W12
	BYTE		N05   
	BYTE	W06
	BYTE		        Gs3 
	BYTE	W06
	BYTE		N11     Gn3 
	BYTE	W12
	BYTE		        Fs3 
	BYTE	W12
	BYTE		        Fn3 
	BYTE	W12
	BYTE		        En3 
	BYTE	W12
	BYTE		        Ds3 
	BYTE	W12
	BYTE		        En3 
	BYTE	W12
	BYTE	PEND
// 010   ----------------------------------------
	BYTE	W96
// 011   ----------------------------------------
	BYTE	W96
// 012   ----------------------------------------
	BYTE	W96
// 013   ----------------------------------------
	BYTE	W96
// 014   ----------------------------------------
	BYTE	W96
// 015   ----------------------------------------
	BYTE	W96
// 016   ----------------------------------------
	BYTE	W96
// 017   ----------------------------------------
	BYTE	W96
// 018   ----------------------------------------
	BYTE	W96
// 019   ----------------------------------------
	BYTE	W96
// 020   ----------------------------------------
	BYTE	W96
// 021   ----------------------------------------
	BYTE	W96
// 022   ----------------------------------------
	BYTE	W96
// 023   ----------------------------------------
	BYTE	W96
// 024   ----------------------------------------
	BYTE	W96
// 025   ----------------------------------------
	BYTE	W96
// 026   ----------------------------------------
PaperMarioTTYDDooplissSme_3_026:
	BYTE		N11     Fn3   v108
	BYTE	W12
	BYTE		N05     En3 
	BYTE	W06
	BYTE		N05   
	BYTE	W06
	BYTE		N04     Ds3 
	BYTE	W12
	BYTE		        En3 
	BYTE	W12
	BYTE		        Fn3 
	BYTE	W12
	BYTE		        En3 
	BYTE	W12
	BYTE		        Ds3 
	BYTE	W12
	BYTE		        En3 
	BYTE	W12
	BYTE	PEND
// 027   ----------------------------------------
PaperMarioTTYDDooplissSme_3_027:
	BYTE		N11     Fn3   v108
	BYTE	W12
	BYTE		N05     En3 
	BYTE	W06
	BYTE		N05   
	BYTE	W06
	BYTE		N04     Ds3 
	BYTE	W12
	BYTE		        En3 
	BYTE	W12
	BYTE		        Fn3 
	BYTE	W12
	BYTE		        En3 
	BYTE	W12
	BYTE		        Cn3 
	BYTE	W12
	BYTE		        Bn2 
	BYTE	W12
	BYTE	PEND
// 028   ----------------------------------------
	BYTE	PATT
	 POIN2	PaperMarioTTYDDooplissSme_3_026
// 029   ----------------------------------------
	BYTE	PATT
	 POIN2	PaperMarioTTYDDooplissSme_3_027
// 030   ----------------------------------------
	BYTE	PATT
	 POIN2	PaperMarioTTYDDooplissSme_3_026
// 031   ----------------------------------------
	BYTE	PATT
	 POIN2	PaperMarioTTYDDooplissSme_3_027
// 032   ----------------------------------------
	BYTE	PATT
	 POIN2	PaperMarioTTYDDooplissSme_3_026
// 033   ----------------------------------------
	BYTE	PATT
	 POIN2	PaperMarioTTYDDooplissSme_3_027
// 034   ----------------------------------------
	BYTE	PATT
	 POIN2	PaperMarioTTYDDooplissSme_3_005
// 035   ----------------------------------------
	BYTE	PATT
	 POIN2	PaperMarioTTYDDooplissSme_3_006
// 036   ----------------------------------------
	BYTE	PATT
	 POIN2	PaperMarioTTYDDooplissSme_3_005
// 037   ----------------------------------------
	BYTE	PATT
	 POIN2	PaperMarioTTYDDooplissSme_3_006
// 038   ----------------------------------------
	BYTE	PATT
	 POIN2	PaperMarioTTYDDooplissSme_3_009
// 039   ----------------------------------------
	BYTE	W96
// 040   ----------------------------------------
	BYTE	W96
// 041   ----------------------------------------
	BYTE	W96
// 042   ----------------------------------------
	BYTE	W96
// 043   ----------------------------------------
	BYTE	W96
// 044   ----------------------------------------
	BYTE	W96
// 045   ----------------------------------------
	BYTE	W96
// 046   ----------------------------------------
	BYTE	W96
// 047   ----------------------------------------
	BYTE	W96
// 048   ----------------------------------------
	BYTE	W96
// 049   ----------------------------------------
	BYTE	W96
// 050   ----------------------------------------
	BYTE	W96
// 051   ----------------------------------------
	BYTE	W96
// 052   ----------------------------------------
	BYTE	W96
// 053   ----------------------------------------
	BYTE	W96
// 054   ----------------------------------------
	BYTE	W96
// 055   ----------------------------------------
	BYTE	PATT
	 POIN2	PaperMarioTTYDDooplissSme_3_026
// 056   ----------------------------------------
	BYTE	PATT
	 POIN2	PaperMarioTTYDDooplissSme_3_027
// 057   ----------------------------------------
	BYTE	PATT
	 POIN2	PaperMarioTTYDDooplissSme_3_026
// 058   ----------------------------------------
	BYTE	PATT
	 POIN2	PaperMarioTTYDDooplissSme_3_027
// 059   ----------------------------------------
	BYTE	W18
	BYTE	GoTo
	 POIN2	PaperMarioTTYDDooplissSme_3_B1
PaperMarioTTYDDooplissSme_3_B2:
	BYTE	FINE

//**************** Track 4 (Midi-Chn.4) ****************//

PaperMarioTTYDDooplissSme_4:
	BYTE	KEYSH   PaperMarioTTYDDooplissSme_key+0
// 000   ----------------------------------------
	BYTE		VOICE   11
	BYTE		VOL     112*PaperMarioTTYDDooplissSme_mvl/mxv
	BYTE		PAN     c_v+0
	BYTE	W96
PaperMarioTTYDDooplissSme_4_B1:
// 001   ----------------------------------------
PaperMarioTTYDDooplissSme_4_001:
	BYTE		N11     Fn3   v112
	BYTE	W12
	BYTE		N05     En3 
	BYTE	W06
	BYTE		N05   
	BYTE	W06
	BYTE		N04     Ds3 
	BYTE	W12
	BYTE		        En3 
	BYTE	W12
	BYTE		        Fn3 
	BYTE	W12
	BYTE		        En3 
	BYTE	W12
	BYTE		        Ds3 
	BYTE	W12
	BYTE		        En3 
	BYTE	W12
	BYTE	PEND
// 002   ----------------------------------------
PaperMarioTTYDDooplissSme_4_002:
	BYTE		N11     Fn3   v112
	BYTE	W12
	BYTE		N05     En3 
	BYTE	W06
	BYTE		N05   
	BYTE	W06
	BYTE		N04     Ds3 
	BYTE	W12
	BYTE		        En3 
	BYTE	W12
	BYTE		        Fn3 
	BYTE	W12
	BYTE		        En3 
	BYTE	W12
	BYTE		        Cn3 
	BYTE	W12
	BYTE		        Bn2 
	BYTE	W12
	BYTE	PEND
// 003   ----------------------------------------
	BYTE	PATT
	 POIN2	PaperMarioTTYDDooplissSme_4_001
// 004   ----------------------------------------
	BYTE	PATT
	 POIN2	PaperMarioTTYDDooplissSme_4_002
// 005   ----------------------------------------
PaperMarioTTYDDooplissSme_4_005:
	BYTE		N11     Fn3   v127
	BYTE	W12
	BYTE		N05     En3 
	BYTE	W06
	BYTE		N05   
	BYTE	W06
	BYTE		N04     Ds3 
	BYTE	W12
	BYTE		        En3 
	BYTE	W12
	BYTE		        Fn3 
	BYTE	W12
	BYTE		        En3 
	BYTE	W12
	BYTE		        Ds3 
	BYTE	W12
	BYTE		        En3 
	BYTE	W12
	BYTE	PEND
// 006   ----------------------------------------
PaperMarioTTYDDooplissSme_4_006:
	BYTE		N11     Fn3   v127
	BYTE	W12
	BYTE		N05     En3 
	BYTE	W06
	BYTE		N05   
	BYTE	W06
	BYTE		N04     Ds3 
	BYTE	W12
	BYTE		        En3 
	BYTE	W12
	BYTE		        Fn3 
	BYTE	W12
	BYTE		        En3 
	BYTE	W12
	BYTE		        Cn3 
	BYTE	W12
	BYTE		        Bn2 
	BYTE	W12
	BYTE	PEND
// 007   ----------------------------------------
	BYTE	PATT
	 POIN2	PaperMarioTTYDDooplissSme_4_005
// 008   ----------------------------------------
	BYTE	PATT
	 POIN2	PaperMarioTTYDDooplissSme_4_006
// 009   ----------------------------------------
PaperMarioTTYDDooplissSme_4_009:
	BYTE		N04     An3   v127
	BYTE	W12
	BYTE		N05   
	BYTE	W06
	BYTE		        Gs3 
	BYTE	W06
	BYTE		N11     Gn3 
	BYTE	W12
	BYTE		        Fs3 
	BYTE	W12
	BYTE		        Fn3 
	BYTE	W12
	BYTE		        En3 
	BYTE	W12
	BYTE		        Ds3 
	BYTE	W12
	BYTE		        En3 
	BYTE	W12
	BYTE	PEND
// 010   ----------------------------------------
	BYTE	W96
// 011   ----------------------------------------
	BYTE	W96
// 012   ----------------------------------------
	BYTE	W96
// 013   ----------------------------------------
	BYTE	W96
// 014   ----------------------------------------
	BYTE	W96
// 015   ----------------------------------------
	BYTE	W96
// 016   ----------------------------------------
	BYTE	W96
// 017   ----------------------------------------
	BYTE	W96
// 018   ----------------------------------------
	BYTE	W96
// 019   ----------------------------------------
	BYTE	W96
// 020   ----------------------------------------
	BYTE	W96
// 021   ----------------------------------------
	BYTE	W96
// 022   ----------------------------------------
	BYTE	W96
// 023   ----------------------------------------
	BYTE	W96
// 024   ----------------------------------------
	BYTE	W96
// 025   ----------------------------------------
	BYTE	W96
// 026   ----------------------------------------
PaperMarioTTYDDooplissSme_4_026:
	BYTE		N11     Fn3   v108
	BYTE	W12
	BYTE		N05     En3 
	BYTE	W06
	BYTE		N05   
	BYTE	W06
	BYTE		N04     Ds3 
	BYTE	W12
	BYTE		        En3 
	BYTE	W12
	BYTE		        Fn3 
	BYTE	W12
	BYTE		        En3 
	BYTE	W12
	BYTE		        Ds3 
	BYTE	W12
	BYTE		        En3 
	BYTE	W12
	BYTE	PEND
// 027   ----------------------------------------
PaperMarioTTYDDooplissSme_4_027:
	BYTE		N11     Fn3   v108
	BYTE	W12
	BYTE		N05     En3 
	BYTE	W06
	BYTE		N05   
	BYTE	W06
	BYTE		N04     Ds3 
	BYTE	W12
	BYTE		        En3 
	BYTE	W12
	BYTE		        Fn3 
	BYTE	W12
	BYTE		        En3 
	BYTE	W12
	BYTE		        Cn3 
	BYTE	W12
	BYTE		        Bn2 
	BYTE	W12
	BYTE	PEND
// 028   ----------------------------------------
	BYTE	PATT
	 POIN2	PaperMarioTTYDDooplissSme_4_026
// 029   ----------------------------------------
	BYTE	PATT
	 POIN2	PaperMarioTTYDDooplissSme_4_027
// 030   ----------------------------------------
	BYTE	PATT
	 POIN2	PaperMarioTTYDDooplissSme_4_026
// 031   ----------------------------------------
	BYTE	PATT
	 POIN2	PaperMarioTTYDDooplissSme_4_027
// 032   ----------------------------------------
	BYTE	PATT
	 POIN2	PaperMarioTTYDDooplissSme_4_026
// 033   ----------------------------------------
	BYTE	PATT
	 POIN2	PaperMarioTTYDDooplissSme_4_027
// 034   ----------------------------------------
	BYTE	PATT
	 POIN2	PaperMarioTTYDDooplissSme_4_005
// 035   ----------------------------------------
	BYTE	PATT
	 POIN2	PaperMarioTTYDDooplissSme_4_006
// 036   ----------------------------------------
	BYTE	PATT
	 POIN2	PaperMarioTTYDDooplissSme_4_005
// 037   ----------------------------------------
	BYTE	PATT
	 POIN2	PaperMarioTTYDDooplissSme_4_006
// 038   ----------------------------------------
	BYTE	PATT
	 POIN2	PaperMarioTTYDDooplissSme_4_009
// 039   ----------------------------------------
	BYTE	W96
// 040   ----------------------------------------
	BYTE	W96
// 041   ----------------------------------------
	BYTE	W96
// 042   ----------------------------------------
	BYTE	W96
// 043   ----------------------------------------
	BYTE	W96
// 044   ----------------------------------------
	BYTE	W96
// 045   ----------------------------------------
	BYTE	W96
// 046   ----------------------------------------
	BYTE	W96
// 047   ----------------------------------------
	BYTE	W96
// 048   ----------------------------------------
	BYTE	W96
// 049   ----------------------------------------
	BYTE	W96
// 050   ----------------------------------------
	BYTE	W96
// 051   ----------------------------------------
	BYTE	W96
// 052   ----------------------------------------
	BYTE	W96
// 053   ----------------------------------------
	BYTE	W96
// 054   ----------------------------------------
	BYTE	W96
// 055   ----------------------------------------
	BYTE	PATT
	 POIN2	PaperMarioTTYDDooplissSme_4_026
// 056   ----------------------------------------
	BYTE	PATT
	 POIN2	PaperMarioTTYDDooplissSme_4_027
// 057   ----------------------------------------
	BYTE	PATT
	 POIN2	PaperMarioTTYDDooplissSme_4_026
// 058   ----------------------------------------
	BYTE	PATT
	 POIN2	PaperMarioTTYDDooplissSme_4_027
// 059   ----------------------------------------
	BYTE	W18
	BYTE	GoTo
	 POIN2	PaperMarioTTYDDooplissSme_4_B1
PaperMarioTTYDDooplissSme_4_B2:
	BYTE	FINE

//**************** Track 5 (Midi-Chn.5) ****************//

PaperMarioTTYDDooplissSme_5:
	BYTE	KEYSH   PaperMarioTTYDDooplissSme_key+0
// 000   ----------------------------------------
	BYTE		VOICE   125
	BYTE		VOL     74*PaperMarioTTYDDooplissSme_mvl/mxv
	BYTE		PAN     c_v+0
	BYTE	W96
PaperMarioTTYDDooplissSme_5_B1:
// 001   ----------------------------------------
PaperMarioTTYDDooplissSme_5_001:
	BYTE	W24
	BYTE		N11     An1   v112
	BYTE	W12
	BYTE		N11   
	BYTE	W36
	BYTE		        Gn2 
	BYTE	W12
	BYTE		N11   
	BYTE	W12
	BYTE	PEND
// 002   ----------------------------------------
PaperMarioTTYDDooplissSme_5_002:
	BYTE	W24
	BYTE		N11     An1   v112
	BYTE	W12
	BYTE		N11   
	BYTE	W60
	BYTE	PEND
// 003   ----------------------------------------
	BYTE	PATT
	 POIN2	PaperMarioTTYDDooplissSme_5_001
// 004   ----------------------------------------
	BYTE	PATT
	 POIN2	PaperMarioTTYDDooplissSme_5_002
// 005   ----------------------------------------
	BYTE	PATT
	 POIN2	PaperMarioTTYDDooplissSme_5_001
// 006   ----------------------------------------
	BYTE	PATT
	 POIN2	PaperMarioTTYDDooplissSme_5_002
// 007   ----------------------------------------
	BYTE	PATT
	 POIN2	PaperMarioTTYDDooplissSme_5_001
// 008   ----------------------------------------
	BYTE	PATT
	 POIN2	PaperMarioTTYDDooplissSme_5_002
// 009   ----------------------------------------
PaperMarioTTYDDooplissSme_5_009:
	BYTE		N11     Gn2   v112
	BYTE	W18
	BYTE		N02   
	BYTE	W03
	BYTE		N02   
	BYTE	W03
	BYTE		N02   
	BYTE	W03
	BYTE		N02   
	BYTE	W03
	BYTE		N02   
	BYTE	W03
	BYTE		N02   
	BYTE	W32
	BYTE	W01
	BYTE		N05   
	BYTE	W06
	BYTE		N05   
	BYTE	W24
	BYTE	PEND
// 010   ----------------------------------------
	BYTE	W96
// 011   ----------------------------------------
	BYTE	W96
// 012   ----------------------------------------
	BYTE	W96
// 013   ----------------------------------------
	BYTE	W96
// 014   ----------------------------------------
	BYTE	W96
// 015   ----------------------------------------
	BYTE	W96
// 016   ----------------------------------------
	BYTE	W96
// 017   ----------------------------------------
	BYTE	W96
// 018   ----------------------------------------
	BYTE	W96
// 019   ----------------------------------------
	BYTE	W96
// 020   ----------------------------------------
	BYTE	W96
// 021   ----------------------------------------
	BYTE	W96
// 022   ----------------------------------------
	BYTE	W96
// 023   ----------------------------------------
	BYTE	W96
// 024   ----------------------------------------
	BYTE	W96
// 025   ----------------------------------------
	BYTE	W96
// 026   ----------------------------------------
	BYTE	W96
// 027   ----------------------------------------
	BYTE	W96
// 028   ----------------------------------------
	BYTE	W96
// 029   ----------------------------------------
	BYTE	W96
// 030   ----------------------------------------
	BYTE	PATT
	 POIN2	PaperMarioTTYDDooplissSme_5_001
// 031   ----------------------------------------
	BYTE	PATT
	 POIN2	PaperMarioTTYDDooplissSme_5_002
// 032   ----------------------------------------
	BYTE	PATT
	 POIN2	PaperMarioTTYDDooplissSme_5_001
// 033   ----------------------------------------
	BYTE	PATT
	 POIN2	PaperMarioTTYDDooplissSme_5_002
// 034   ----------------------------------------
	BYTE	PATT
	 POIN2	PaperMarioTTYDDooplissSme_5_001
// 035   ----------------------------------------
	BYTE	PATT
	 POIN2	PaperMarioTTYDDooplissSme_5_002
// 036   ----------------------------------------
	BYTE	PATT
	 POIN2	PaperMarioTTYDDooplissSme_5_001
// 037   ----------------------------------------
	BYTE	PATT
	 POIN2	PaperMarioTTYDDooplissSme_5_002
// 038   ----------------------------------------
	BYTE	PATT
	 POIN2	PaperMarioTTYDDooplissSme_5_009
// 039   ----------------------------------------
	BYTE	W96
// 040   ----------------------------------------
	BYTE	W96
// 041   ----------------------------------------
	BYTE	W96
// 042   ----------------------------------------
	BYTE	W96
// 043   ----------------------------------------
	BYTE	W96
// 044   ----------------------------------------
	BYTE	W96
// 045   ----------------------------------------
	BYTE	W96
// 046   ----------------------------------------
	BYTE	W96
// 047   ----------------------------------------
	BYTE	W96
// 048   ----------------------------------------
	BYTE	W96
// 049   ----------------------------------------
	BYTE	W96
// 050   ----------------------------------------
	BYTE	W96
// 051   ----------------------------------------
	BYTE	W96
// 052   ----------------------------------------
	BYTE	W96
// 053   ----------------------------------------
	BYTE	W96
// 054   ----------------------------------------
	BYTE	W96
// 055   ----------------------------------------
	BYTE	W96
// 056   ----------------------------------------
	BYTE	W96
// 057   ----------------------------------------
	BYTE	W96
// 058   ----------------------------------------
	BYTE	W96
// 059   ----------------------------------------
	BYTE	W18
	BYTE	GoTo
	 POIN2	PaperMarioTTYDDooplissSme_5_B1
PaperMarioTTYDDooplissSme_5_B2:
	BYTE	FINE

//**************** Track 6 (Midi-Chn.6) ****************//

PaperMarioTTYDDooplissSme_6:
	BYTE	KEYSH   PaperMarioTTYDDooplissSme_key+0
// 000   ----------------------------------------
	BYTE		VOICE   118
	BYTE		VOL     80*PaperMarioTTYDDooplissSme_mvl/mxv
	BYTE		PAN     c_v+0
	BYTE	W96
PaperMarioTTYDDooplissSme_6_B1:
// 001   ----------------------------------------
	BYTE	W96
// 002   ----------------------------------------
	BYTE	W96
// 003   ----------------------------------------
	BYTE	W96
// 004   ----------------------------------------
	BYTE	W96
// 005   ----------------------------------------
	BYTE	W96
// 006   ----------------------------------------
	BYTE	W96
// 007   ----------------------------------------
	BYTE	W96
// 008   ----------------------------------------
	BYTE	W96
// 009   ----------------------------------------
PaperMarioTTYDDooplissSme_6_009:
	BYTE	W24
	BYTE		N11     Fn4   v112
	BYTE	W12
	BYTE		        En3 
	BYTE	W60
	BYTE	PEND
// 010   ----------------------------------------
	BYTE	W96
// 011   ----------------------------------------
	BYTE	W96
// 012   ----------------------------------------
	BYTE	W96
// 013   ----------------------------------------
	BYTE	W96
// 014   ----------------------------------------
	BYTE	W96
// 015   ----------------------------------------
	BYTE	W96
// 016   ----------------------------------------
	BYTE	W96
// 017   ----------------------------------------
	BYTE	W96
// 018   ----------------------------------------
	BYTE	W96
// 019   ----------------------------------------
	BYTE	W96
// 020   ----------------------------------------
	BYTE	W96
// 021   ----------------------------------------
	BYTE	W96
// 022   ----------------------------------------
	BYTE	W96
// 023   ----------------------------------------
	BYTE	W96
// 024   ----------------------------------------
	BYTE	W96
// 025   ----------------------------------------
	BYTE	W96
// 026   ----------------------------------------
	BYTE	W96
// 027   ----------------------------------------
	BYTE	W96
// 028   ----------------------------------------
	BYTE	W96
// 029   ----------------------------------------
	BYTE	W96
// 030   ----------------------------------------
	BYTE	W96
// 031   ----------------------------------------
	BYTE	W96
// 032   ----------------------------------------
	BYTE	W96
// 033   ----------------------------------------
	BYTE	W96
// 034   ----------------------------------------
	BYTE	W96
// 035   ----------------------------------------
	BYTE	W96
// 036   ----------------------------------------
	BYTE	W96
// 037   ----------------------------------------
	BYTE	W96
// 038   ----------------------------------------
	BYTE	PATT
	 POIN2	PaperMarioTTYDDooplissSme_6_009
// 039   ----------------------------------------
	BYTE	W96
// 040   ----------------------------------------
	BYTE	W96
// 041   ----------------------------------------
	BYTE	W96
// 042   ----------------------------------------
	BYTE	W96
// 043   ----------------------------------------
	BYTE	W96
// 044   ----------------------------------------
	BYTE	W96
// 045   ----------------------------------------
	BYTE	W96
// 046   ----------------------------------------
	BYTE	W96
// 047   ----------------------------------------
	BYTE	W96
// 048   ----------------------------------------
	BYTE	W96
// 049   ----------------------------------------
	BYTE	W96
// 050   ----------------------------------------
	BYTE	W96
// 051   ----------------------------------------
	BYTE	W96
// 052   ----------------------------------------
	BYTE	W96
// 053   ----------------------------------------
	BYTE	W96
// 054   ----------------------------------------
	BYTE	W96
// 055   ----------------------------------------
	BYTE	W96
// 056   ----------------------------------------
	BYTE	W96
// 057   ----------------------------------------
	BYTE	W96
// 058   ----------------------------------------
	BYTE	W96
// 059   ----------------------------------------
	BYTE	W18
	BYTE	GoTo
	 POIN2	PaperMarioTTYDDooplissSme_6_B1
PaperMarioTTYDDooplissSme_6_B2:
	BYTE	FINE

//**************** Track 7 (Midi-Chn.7) ****************//

PaperMarioTTYDDooplissSme_7:
	BYTE	KEYSH   PaperMarioTTYDDooplissSme_key+0
// 000   ----------------------------------------
	BYTE		VOICE   14
	BYTE		VOL     87*PaperMarioTTYDDooplissSme_mvl/mxv
	BYTE		PAN     c_v+0
	BYTE	W96
PaperMarioTTYDDooplissSme_7_B1:
// 001   ----------------------------------------
PaperMarioTTYDDooplissSme_7_001:
	BYTE		N48     Fn2   v127
	BYTE		N48     Fn3 
	BYTE		N48     Fn4 
	BYTE	W48
	BYTE		N42     Fn2   v076
	BYTE		N42     Fn3 
	BYTE		N42     Fn4 
	BYTE	W48
	BYTE	PEND
// 002   ----------------------------------------
PaperMarioTTYDDooplissSme_7_002:
	BYTE		N48     Fn2   v127
	BYTE		N48     Fn3 
	BYTE		N48     Fn4 
	BYTE	W24
	BYTE		N20     Cn2   v108
	BYTE		N20     Cn3 
	BYTE		N20     Cn4 
	BYTE	W24
	BYTE		N42     Fn2   v092
	BYTE		N42     Fn3 
	BYTE		N42     Fn4 
	BYTE	W48
	BYTE	PEND
// 003   ----------------------------------------
	BYTE	W96
// 004   ----------------------------------------
	BYTE	PATT
	 POIN2	PaperMarioTTYDDooplissSme_7_002
// 005   ----------------------------------------
	BYTE	W96
// 006   ----------------------------------------
	BYTE	W96
// 007   ----------------------------------------
	BYTE	W96
// 008   ----------------------------------------
	BYTE	W96
// 009   ----------------------------------------
	BYTE	W96
// 010   ----------------------------------------
	BYTE	W96
// 011   ----------------------------------------
	BYTE	W96
// 012   ----------------------------------------
	BYTE	W96
// 013   ----------------------------------------
	BYTE	W96
// 014   ----------------------------------------
	BYTE	W96
// 015   ----------------------------------------
	BYTE	W96
// 016   ----------------------------------------
	BYTE	W96
// 017   ----------------------------------------
	BYTE	W96
// 018   ----------------------------------------
PaperMarioTTYDDooplissSme_7_018:
	BYTE		N48     An1   v127
	BYTE		N48     An2 
	BYTE	W48
	BYTE		N42     An1   v092
	BYTE		N42     An2 
	BYTE	W48
	BYTE	PEND
// 019   ----------------------------------------
PaperMarioTTYDDooplissSme_7_019:
	BYTE		N42     An1   v060
	BYTE		N42     An2 
	BYTE	W48
	BYTE		        An1   v048
	BYTE		N42     An2 
	BYTE	W48
	BYTE	PEND
// 020   ----------------------------------------
PaperMarioTTYDDooplissSme_7_020:
	BYTE		N48     Fn2   v127
	BYTE		N48     Fn3 
	BYTE	W24
	BYTE		N24     An1   v076
	BYTE		N24     An2 
	BYTE	W24
	BYTE		        Fn2 
	BYTE		N24     Fn3 
	BYTE	W24
	BYTE		        An1   v060
	BYTE		N24     An2 
	BYTE	W24
	BYTE	PEND
// 021   ----------------------------------------
PaperMarioTTYDDooplissSme_7_021:
	BYTE		N24     Fn2   v048
	BYTE		N24     Fn3 
	BYTE	W24
	BYTE		        An1   v032
	BYTE		N24     An2 
	BYTE	W72
	BYTE	PEND
// 022   ----------------------------------------
PaperMarioTTYDDooplissSme_7_022:
	BYTE		N48     An1   v127
	BYTE		N48     An2 
	BYTE	W48
	BYTE		N42     An1   v076
	BYTE		N42     An2 
	BYTE	W48
	BYTE	PEND
// 023   ----------------------------------------
	BYTE	PATT
	 POIN2	PaperMarioTTYDDooplissSme_7_019
// 024   ----------------------------------------
	BYTE	PATT
	 POIN2	PaperMarioTTYDDooplissSme_7_020
// 025   ----------------------------------------
	BYTE	PATT
	 POIN2	PaperMarioTTYDDooplissSme_7_021
// 026   ----------------------------------------
	BYTE	W96
// 027   ----------------------------------------
	BYTE	W96
// 028   ----------------------------------------
	BYTE	W96
// 029   ----------------------------------------
	BYTE	W96
// 030   ----------------------------------------
	BYTE	PATT
	 POIN2	PaperMarioTTYDDooplissSme_7_001
// 031   ----------------------------------------
	BYTE	PATT
	 POIN2	PaperMarioTTYDDooplissSme_7_002
// 032   ----------------------------------------
	BYTE	W96
// 033   ----------------------------------------
	BYTE	PATT
	 POIN2	PaperMarioTTYDDooplissSme_7_002
// 034   ----------------------------------------
	BYTE	W96
// 035   ----------------------------------------
	BYTE	W96
// 036   ----------------------------------------
	BYTE	W96
// 037   ----------------------------------------
	BYTE	W96
// 038   ----------------------------------------
	BYTE	W96
// 039   ----------------------------------------
	BYTE	W96
// 040   ----------------------------------------
	BYTE	W96
// 041   ----------------------------------------
	BYTE	W96
// 042   ----------------------------------------
	BYTE	W96
// 043   ----------------------------------------
	BYTE	W96
// 044   ----------------------------------------
	BYTE	W96
// 045   ----------------------------------------
	BYTE	W96
// 046   ----------------------------------------
	BYTE	W96
// 047   ----------------------------------------
	BYTE	PATT
	 POIN2	PaperMarioTTYDDooplissSme_7_018
// 048   ----------------------------------------
	BYTE	PATT
	 POIN2	PaperMarioTTYDDooplissSme_7_019
// 049   ----------------------------------------
	BYTE	PATT
	 POIN2	PaperMarioTTYDDooplissSme_7_020
// 050   ----------------------------------------
	BYTE	PATT
	 POIN2	PaperMarioTTYDDooplissSme_7_021
// 051   ----------------------------------------
	BYTE	PATT
	 POIN2	PaperMarioTTYDDooplissSme_7_022
// 052   ----------------------------------------
	BYTE	PATT
	 POIN2	PaperMarioTTYDDooplissSme_7_019
// 053   ----------------------------------------
	BYTE	PATT
	 POIN2	PaperMarioTTYDDooplissSme_7_020
// 054   ----------------------------------------
	BYTE	PATT
	 POIN2	PaperMarioTTYDDooplissSme_7_021
// 055   ----------------------------------------
	BYTE	W96
// 056   ----------------------------------------
	BYTE	W96
// 057   ----------------------------------------
	BYTE	W96
// 058   ----------------------------------------
	BYTE	W96
// 059   ----------------------------------------
	BYTE	W18
	BYTE	GoTo
	 POIN2	PaperMarioTTYDDooplissSme_7_B1
PaperMarioTTYDDooplissSme_7_B2:
	BYTE	FINE

//**************** Track 8 (Midi-Chn.8) ****************//

PaperMarioTTYDDooplissSme_8:
	BYTE	KEYSH   PaperMarioTTYDDooplissSme_key+0
// 000   ----------------------------------------
	BYTE		VOICE   11
	BYTE		VOL     62*PaperMarioTTYDDooplissSme_mvl/mxv
	BYTE		PAN     c_v+0
	BYTE	W96
PaperMarioTTYDDooplissSme_8_B1:
// 001   ----------------------------------------
	BYTE		N42     Fn3   v112
	BYTE		N90     Fn4 
	BYTE	W48
	BYTE		N42     Fn3 
	BYTE	W48
// 002   ----------------------------------------
	BYTE		TIE   
	BYTE		TIE     Fn4 
	BYTE	W96
// 003   ----------------------------------------
	BYTE	W90
	BYTE		EOT     Fn3 
	BYTE		        Fn4 
	BYTE	W06
// 004   ----------------------------------------
PaperMarioTTYDDooplissSme_8_004:
	BYTE		TIE     Fn3   v076
	BYTE		TIE     Fn4 
	BYTE	W96
	BYTE	PEND
// 005   ----------------------------------------
	BYTE	W90
	BYTE		EOT     Fn3 
	BYTE		        Fn4 
	BYTE	W06
// 006   ----------------------------------------
	BYTE	W96
// 007   ----------------------------------------
	BYTE	W96
// 008   ----------------------------------------
	BYTE	W96
// 009   ----------------------------------------
	BYTE	W96
// 010   ----------------------------------------
	BYTE	W96
// 011   ----------------------------------------
	BYTE	W96
// 012   ----------------------------------------
	BYTE	W96
// 013   ----------------------------------------
	BYTE	W96
// 014   ----------------------------------------
	BYTE	W96
// 015   ----------------------------------------
	BYTE	W96
// 016   ----------------------------------------
	BYTE	W96
// 017   ----------------------------------------
	BYTE	W96
// 018   ----------------------------------------
PaperMarioTTYDDooplissSme_8_018:
	BYTE		TIE     An1   v076
	BYTE		TIE     An2 
	BYTE	W96
	BYTE	PEND
// 019   ----------------------------------------
	BYTE	W90
	BYTE		EOT     An1 
	BYTE		        An2 
	BYTE	W06
// 020   ----------------------------------------
PaperMarioTTYDDooplissSme_8_020:
	BYTE		TIE     Fn2   v076
	BYTE		TIE     Fn3 
	BYTE	W96
	BYTE	PEND
// 021   ----------------------------------------
	BYTE	W90
	BYTE		EOT     Fn2 
	BYTE		        Fn3 
	BYTE	W06
// 022   ----------------------------------------
PaperMarioTTYDDooplissSme_8_022:
	BYTE		TIE     An1   v127
	BYTE		TIE     An2 
	BYTE	W96
	BYTE	PEND
// 023   ----------------------------------------
	BYTE	W90
	BYTE		EOT     An1 
	BYTE		        An2 
	BYTE	W06
// 024   ----------------------------------------
PaperMarioTTYDDooplissSme_8_024:
	BYTE		TIE     Fn2   v127
	BYTE		TIE     Fn3 
	BYTE	W96
	BYTE	PEND
// 025   ----------------------------------------
	BYTE	W90
	BYTE		EOT     Fn2 
	BYTE		        Fn3 
	BYTE	W06
// 026   ----------------------------------------
	BYTE	W96
// 027   ----------------------------------------
	BYTE	W96
// 028   ----------------------------------------
	BYTE	W96
// 029   ----------------------------------------
	BYTE	W96
// 030   ----------------------------------------
	BYTE		N42   
	BYTE		N90     Fn4 
	BYTE	W48
	BYTE		N42     Fn3 
	BYTE	W48
// 031   ----------------------------------------
	BYTE		TIE   
	BYTE		TIE     Fn4 
	BYTE	W96
// 032   ----------------------------------------
	BYTE	W90
	BYTE		EOT     Fn3 
	BYTE		        Fn4 
	BYTE	W06
// 033   ----------------------------------------
	BYTE	PATT
	 POIN2	PaperMarioTTYDDooplissSme_8_004
// 034   ----------------------------------------
	BYTE	W90
	BYTE		EOT     Fn3 
	BYTE		        Fn4 
	BYTE	W06
// 035   ----------------------------------------
	BYTE	W96
// 036   ----------------------------------------
	BYTE	W96
// 037   ----------------------------------------
	BYTE	W96
// 038   ----------------------------------------
	BYTE	W96
// 039   ----------------------------------------
	BYTE	W96
// 040   ----------------------------------------
	BYTE	W96
// 041   ----------------------------------------
	BYTE	W96
// 042   ----------------------------------------
	BYTE	W96
// 043   ----------------------------------------
	BYTE	W96
// 044   ----------------------------------------
	BYTE	W96
// 045   ----------------------------------------
	BYTE	W96
// 046   ----------------------------------------
	BYTE	W96
// 047   ----------------------------------------
	BYTE	PATT
	 POIN2	PaperMarioTTYDDooplissSme_8_018
// 048   ----------------------------------------
	BYTE	W90
	BYTE		EOT     An1 
	BYTE		        An2 
	BYTE	W06
// 049   ----------------------------------------
	BYTE	PATT
	 POIN2	PaperMarioTTYDDooplissSme_8_020
// 050   ----------------------------------------
	BYTE	W90
	BYTE		EOT     Fn2 
	BYTE		        Fn3 
	BYTE	W06
// 051   ----------------------------------------
	BYTE	PATT
	 POIN2	PaperMarioTTYDDooplissSme_8_022
// 052   ----------------------------------------
	BYTE	W90
	BYTE		EOT     An1 
	BYTE		        An2 
	BYTE	W06
// 053   ----------------------------------------
	BYTE	PATT
	 POIN2	PaperMarioTTYDDooplissSme_8_024
// 054   ----------------------------------------
	BYTE	W90
	BYTE		EOT     Fn2 
	BYTE		        Fn3 
	BYTE	W06
// 055   ----------------------------------------
	BYTE	W96
// 056   ----------------------------------------
	BYTE	W96
// 057   ----------------------------------------
	BYTE	W96
// 058   ----------------------------------------
	BYTE	W96
// 059   ----------------------------------------
	BYTE	W18
	BYTE	GoTo
	 POIN2	PaperMarioTTYDDooplissSme_8_B1
PaperMarioTTYDDooplissSme_8_B2:
	BYTE	FINE

//**************** Track 9 (Midi-Chn.9) ****************//

PaperMarioTTYDDooplissSme_9:
	BYTE	KEYSH   PaperMarioTTYDDooplissSme_key+0
// 000   ----------------------------------------
	BYTE		VOICE   33
	BYTE		VOL     50*PaperMarioTTYDDooplissSme_mvl/mxv
	BYTE		PAN     c_v+0
	BYTE	W96
PaperMarioTTYDDooplissSme_9_B1:
// 001   ----------------------------------------
PaperMarioTTYDDooplissSme_9_001:
	BYTE		N06     An0   v112
	BYTE	W24
	BYTE		N04   
	BYTE	W12
	BYTE		N04   
	BYTE	W12
	BYTE		N20   
	BYTE	W30
	BYTE		N05   
	BYTE	W06
	BYTE		N05   
	BYTE	W06
	BYTE		N05   
	BYTE	W06
	BYTE	PEND
// 002   ----------------------------------------
	BYTE	PATT
	 POIN2	PaperMarioTTYDDooplissSme_9_001
// 003   ----------------------------------------
	BYTE	PATT
	 POIN2	PaperMarioTTYDDooplissSme_9_001
// 004   ----------------------------------------
	BYTE	PATT
	 POIN2	PaperMarioTTYDDooplissSme_9_001
// 005   ----------------------------------------
	BYTE	PATT
	 POIN2	PaperMarioTTYDDooplissSme_9_001
// 006   ----------------------------------------
	BYTE	PATT
	 POIN2	PaperMarioTTYDDooplissSme_9_001
// 007   ----------------------------------------
	BYTE	PATT
	 POIN2	PaperMarioTTYDDooplissSme_9_001
// 008   ----------------------------------------
	BYTE	PATT
	 POIN2	PaperMarioTTYDDooplissSme_9_001
// 009   ----------------------------------------
	BYTE	W96
// 010   ----------------------------------------
	BYTE	W96
// 011   ----------------------------------------
	BYTE	W96
// 012   ----------------------------------------
	BYTE	W96
// 013   ----------------------------------------
	BYTE	W96
// 014   ----------------------------------------
	BYTE	W96
// 015   ----------------------------------------
	BYTE	W96
// 016   ----------------------------------------
	BYTE	W96
// 017   ----------------------------------------
	BYTE	W96
// 018   ----------------------------------------
	BYTE	W96
// 019   ----------------------------------------
	BYTE	W96
// 020   ----------------------------------------
	BYTE	W96
// 021   ----------------------------------------
	BYTE	W96
// 022   ----------------------------------------
	BYTE	W96
// 023   ----------------------------------------
	BYTE	W96
// 024   ----------------------------------------
	BYTE	W96
// 025   ----------------------------------------
	BYTE	W96
// 026   ----------------------------------------
	BYTE	W96
// 027   ----------------------------------------
	BYTE	W96
// 028   ----------------------------------------
	BYTE	W96
// 029   ----------------------------------------
	BYTE	W96
// 030   ----------------------------------------
	BYTE	PATT
	 POIN2	PaperMarioTTYDDooplissSme_9_001
// 031   ----------------------------------------
	BYTE	PATT
	 POIN2	PaperMarioTTYDDooplissSme_9_001
// 032   ----------------------------------------
	BYTE	PATT
	 POIN2	PaperMarioTTYDDooplissSme_9_001
// 033   ----------------------------------------
	BYTE	PATT
	 POIN2	PaperMarioTTYDDooplissSme_9_001
// 034   ----------------------------------------
	BYTE	PATT
	 POIN2	PaperMarioTTYDDooplissSme_9_001
// 035   ----------------------------------------
	BYTE	PATT
	 POIN2	PaperMarioTTYDDooplissSme_9_001
// 036   ----------------------------------------
	BYTE	PATT
	 POIN2	PaperMarioTTYDDooplissSme_9_001
// 037   ----------------------------------------
	BYTE	PATT
	 POIN2	PaperMarioTTYDDooplissSme_9_001
// 038   ----------------------------------------
	BYTE	W96
// 039   ----------------------------------------
	BYTE	W96
// 040   ----------------------------------------
	BYTE	W96
// 041   ----------------------------------------
	BYTE	W96
// 042   ----------------------------------------
	BYTE	W96
// 043   ----------------------------------------
	BYTE	W96
// 044   ----------------------------------------
	BYTE	W96
// 045   ----------------------------------------
	BYTE	W96
// 046   ----------------------------------------
	BYTE	W96
// 047   ----------------------------------------
	BYTE	W96
// 048   ----------------------------------------
	BYTE	W96
// 049   ----------------------------------------
	BYTE	W96
// 050   ----------------------------------------
	BYTE	W96
// 051   ----------------------------------------
	BYTE	W96
// 052   ----------------------------------------
	BYTE	W96
// 053   ----------------------------------------
	BYTE	W96
// 054   ----------------------------------------
	BYTE	W96
// 055   ----------------------------------------
	BYTE	W96
// 056   ----------------------------------------
	BYTE	W96
// 057   ----------------------------------------
	BYTE	W96
// 058   ----------------------------------------
	BYTE	W96
// 059   ----------------------------------------
	BYTE	W18
	BYTE	GoTo
	 POIN2	PaperMarioTTYDDooplissSme_9_B1
PaperMarioTTYDDooplissSme_9_B2:
	BYTE	FINE

//**************** Track 10 (Midi-Chn.11) ****************//

PaperMarioTTYDDooplissSme_10:
	BYTE	KEYSH   PaperMarioTTYDDooplissSme_key+0
// 000   ----------------------------------------
	BYTE		VOICE   59
	BYTE		VOL     66*PaperMarioTTYDDooplissSme_mvl/mxv
	BYTE		PAN     c_v+0
	BYTE	W96
PaperMarioTTYDDooplissSme_10_B1:
// 001   ----------------------------------------
	BYTE	W96
// 002   ----------------------------------------
	BYTE	W96
// 003   ----------------------------------------
PaperMarioTTYDDooplissSme_10_003:
	BYTE		N06     Fn4   v112
	BYTE		N06     An4 
	BYTE	W36
	BYTE		        Fn4 
	BYTE		N06     An4 
	BYTE	W36
	BYTE		        Fn4 
	BYTE		N06     An4 
	BYTE	W24
	BYTE	PEND
// 004   ----------------------------------------
PaperMarioTTYDDooplissSme_10_004:
	BYTE		N06     En4   v112
	BYTE		N06     Gs4 
	BYTE	W18
	BYTE		        En4 
	BYTE		N06     Gs4 
	BYTE	W36
	BYTE		        En4 
	BYTE		N06     Gs4 
	BYTE	W18
	BYTE		N04     Fn4 
	BYTE		N04     An4 
	BYTE	W12
	BYTE		        Gs4 
	BYTE		N04     Bn4 
	BYTE	W12
	BYTE	PEND
// 005   ----------------------------------------
	BYTE	PATT
	 POIN2	PaperMarioTTYDDooplissSme_10_003
// 006   ----------------------------------------
	BYTE	PATT
	 POIN2	PaperMarioTTYDDooplissSme_10_004
// 007   ----------------------------------------
	BYTE	PATT
	 POIN2	PaperMarioTTYDDooplissSme_10_003
// 008   ----------------------------------------
	BYTE	PATT
	 POIN2	PaperMarioTTYDDooplissSme_10_004
// 009   ----------------------------------------
PaperMarioTTYDDooplissSme_10_009:
	BYTE		N04     An3   v112
	BYTE	W12
	BYTE		N05   
	BYTE	W06
	BYTE		        Gs3 
	BYTE	W06
	BYTE		N11     Gn3 
	BYTE	W12
	BYTE		        Fs3 
	BYTE	W12
	BYTE		        Fn3 
	BYTE	W12
	BYTE		        En3 
	BYTE	W12
	BYTE		        Ds3 
	BYTE	W12
	BYTE		        En3 
	BYTE	W12
	BYTE	PEND
// 010   ----------------------------------------
	BYTE	W96
// 011   ----------------------------------------
	BYTE	W96
// 012   ----------------------------------------
	BYTE	W96
// 013   ----------------------------------------
	BYTE	W96
// 014   ----------------------------------------
	BYTE	W96
// 015   ----------------------------------------
	BYTE	W96
// 016   ----------------------------------------
	BYTE	W96
// 017   ----------------------------------------
	BYTE	W96
// 018   ----------------------------------------
	BYTE	W96
// 019   ----------------------------------------
	BYTE	W96
// 020   ----------------------------------------
	BYTE	W96
// 021   ----------------------------------------
	BYTE	W96
// 022   ----------------------------------------
	BYTE	W96
// 023   ----------------------------------------
	BYTE	W96
// 024   ----------------------------------------
	BYTE	W96
// 025   ----------------------------------------
	BYTE	W96
// 026   ----------------------------------------
	BYTE	W96
// 027   ----------------------------------------
	BYTE	W96
// 028   ----------------------------------------
	BYTE	W96
// 029   ----------------------------------------
	BYTE	W96
// 030   ----------------------------------------
	BYTE	W96
// 031   ----------------------------------------
	BYTE	W96
// 032   ----------------------------------------
	BYTE	PATT
	 POIN2	PaperMarioTTYDDooplissSme_10_003
// 033   ----------------------------------------
	BYTE	PATT
	 POIN2	PaperMarioTTYDDooplissSme_10_004
// 034   ----------------------------------------
	BYTE	PATT
	 POIN2	PaperMarioTTYDDooplissSme_10_003
// 035   ----------------------------------------
	BYTE	PATT
	 POIN2	PaperMarioTTYDDooplissSme_10_004
// 036   ----------------------------------------
	BYTE	PATT
	 POIN2	PaperMarioTTYDDooplissSme_10_003
// 037   ----------------------------------------
	BYTE	PATT
	 POIN2	PaperMarioTTYDDooplissSme_10_004
// 038   ----------------------------------------
	BYTE	PATT
	 POIN2	PaperMarioTTYDDooplissSme_10_009
// 039   ----------------------------------------
	BYTE	W96
// 040   ----------------------------------------
	BYTE	W96
// 041   ----------------------------------------
	BYTE	W96
// 042   ----------------------------------------
	BYTE	W96
// 043   ----------------------------------------
	BYTE	W96
// 044   ----------------------------------------
	BYTE	W96
// 045   ----------------------------------------
	BYTE	W96
// 046   ----------------------------------------
	BYTE	W96
// 047   ----------------------------------------
	BYTE	W96
// 048   ----------------------------------------
	BYTE	W96
// 049   ----------------------------------------
	BYTE	W96
// 050   ----------------------------------------
	BYTE	W96
// 051   ----------------------------------------
	BYTE	W96
// 052   ----------------------------------------
	BYTE	W96
// 053   ----------------------------------------
	BYTE	W96
// 054   ----------------------------------------
	BYTE	W96
// 055   ----------------------------------------
	BYTE	W96
// 056   ----------------------------------------
	BYTE	W96
// 057   ----------------------------------------
	BYTE	W96
// 058   ----------------------------------------
	BYTE	W96
// 059   ----------------------------------------
	BYTE	W18
	BYTE	GoTo
	 POIN2	PaperMarioTTYDDooplissSme_10_B1
PaperMarioTTYDDooplissSme_10_B2:
	BYTE	FINE

//**************** Track 11 (Midi-Chn.12) ****************//

PaperMarioTTYDDooplissSme_11:
	BYTE	KEYSH   PaperMarioTTYDDooplissSme_key+0
// 000   ----------------------------------------
	BYTE		VOICE   49
	BYTE		VOL     48*PaperMarioTTYDDooplissSme_mvl/mxv
	BYTE		PAN     c_v+0
	BYTE	W96
PaperMarioTTYDDooplissSme_11_B1:
// 001   ----------------------------------------
	BYTE	W96
// 002   ----------------------------------------
	BYTE	W96
// 003   ----------------------------------------
	BYTE	W96
// 004   ----------------------------------------
	BYTE	W96
// 005   ----------------------------------------
PaperMarioTTYDDooplissSme_11_005:
	BYTE		N06     An3   v112
	BYTE		N06     An4 
	BYTE	W36
	BYTE		        An3 
	BYTE		N06     An4 
	BYTE	W36
	BYTE		        An3 
	BYTE		N06     An4 
	BYTE	W24
	BYTE	PEND
// 006   ----------------------------------------
PaperMarioTTYDDooplissSme_11_006:
	BYTE		N06     Gs3   v112
	BYTE		N06     Gs4 
	BYTE	W18
	BYTE		        Gs3 
	BYTE		N06     Gs4 
	BYTE	W36
	BYTE		        Gs3 
	BYTE		N06     Gs4 
	BYTE	W18
	BYTE		N04     An3 
	BYTE		N04     An4 
	BYTE	W12
	BYTE		        Bn3 
	BYTE		N04     Bn4 
	BYTE	W12
	BYTE	PEND
// 007   ----------------------------------------
	BYTE	PATT
	 POIN2	PaperMarioTTYDDooplissSme_11_005
// 008   ----------------------------------------
	BYTE	PATT
	 POIN2	PaperMarioTTYDDooplissSme_11_006
// 009   ----------------------------------------
PaperMarioTTYDDooplissSme_11_009:
	BYTE		N11     An3   v112
	BYTE	W12
	BYTE		N05   
	BYTE	W06
	BYTE		        Gs3 
	BYTE	W06
	BYTE		N11     Gn3 
	BYTE	W12
	BYTE		        Fs3 
	BYTE	W12
	BYTE		        Fn3 
	BYTE	W12
	BYTE		        En3 
	BYTE	W12
	BYTE		        Ds3 
	BYTE	W12
	BYTE		        En3 
	BYTE	W12
	BYTE	PEND
// 010   ----------------------------------------
	BYTE	W96
// 011   ----------------------------------------
	BYTE	W96
// 012   ----------------------------------------
	BYTE	W96
// 013   ----------------------------------------
	BYTE	W96
// 014   ----------------------------------------
	BYTE	W96
// 015   ----------------------------------------
	BYTE	W96
// 016   ----------------------------------------
	BYTE	W96
// 017   ----------------------------------------
	BYTE	W96
// 018   ----------------------------------------
	BYTE	W96
// 019   ----------------------------------------
	BYTE	W96
// 020   ----------------------------------------
	BYTE	W96
// 021   ----------------------------------------
	BYTE	W96
// 022   ----------------------------------------
	BYTE	W96
// 023   ----------------------------------------
	BYTE	W96
// 024   ----------------------------------------
	BYTE	W96
// 025   ----------------------------------------
	BYTE	W96
// 026   ----------------------------------------
	BYTE	W96
// 027   ----------------------------------------
	BYTE	W96
// 028   ----------------------------------------
	BYTE	W96
// 029   ----------------------------------------
	BYTE	W96
// 030   ----------------------------------------
	BYTE	W96
// 031   ----------------------------------------
	BYTE	W96
// 032   ----------------------------------------
	BYTE	W96
// 033   ----------------------------------------
	BYTE	W96
// 034   ----------------------------------------
	BYTE	PATT
	 POIN2	PaperMarioTTYDDooplissSme_11_005
// 035   ----------------------------------------
	BYTE	PATT
	 POIN2	PaperMarioTTYDDooplissSme_11_006
// 036   ----------------------------------------
	BYTE	PATT
	 POIN2	PaperMarioTTYDDooplissSme_11_005
// 037   ----------------------------------------
	BYTE	PATT
	 POIN2	PaperMarioTTYDDooplissSme_11_006
// 038   ----------------------------------------
	BYTE	PATT
	 POIN2	PaperMarioTTYDDooplissSme_11_009
// 039   ----------------------------------------
	BYTE	W96
// 040   ----------------------------------------
	BYTE	W96
// 041   ----------------------------------------
	BYTE	W96
// 042   ----------------------------------------
	BYTE	W96
// 043   ----------------------------------------
	BYTE	W96
// 044   ----------------------------------------
	BYTE	W96
// 045   ----------------------------------------
	BYTE	W96
// 046   ----------------------------------------
	BYTE	W96
// 047   ----------------------------------------
	BYTE	W96
// 048   ----------------------------------------
	BYTE	W96
// 049   ----------------------------------------
	BYTE	W96
// 050   ----------------------------------------
	BYTE	W96
// 051   ----------------------------------------
	BYTE	W96
// 052   ----------------------------------------
	BYTE	W96
// 053   ----------------------------------------
	BYTE	W96
// 054   ----------------------------------------
	BYTE	W96
// 055   ----------------------------------------
	BYTE	W96
// 056   ----------------------------------------
	BYTE	W96
// 057   ----------------------------------------
	BYTE	W96
// 058   ----------------------------------------
	BYTE	W96
// 059   ----------------------------------------
	BYTE	W18
	BYTE	GoTo
	 POIN2	PaperMarioTTYDDooplissSme_11_B1
PaperMarioTTYDDooplissSme_11_B2:
	BYTE	FINE

//**************** Track 12 (Midi-Chn.13) ****************//

PaperMarioTTYDDooplissSme_12:
	BYTE	KEYSH   PaperMarioTTYDDooplissSme_key+0
// 000   ----------------------------------------
	BYTE		VOICE   81
	BYTE		VOL     63*PaperMarioTTYDDooplissSme_mvl/mxv
	BYTE		PAN     c_v+0
	BYTE	W96
PaperMarioTTYDDooplissSme_12_B1:
// 001   ----------------------------------------
	BYTE	W96
// 002   ----------------------------------------
	BYTE	W96
// 003   ----------------------------------------
PaperMarioTTYDDooplissSme_12_003:
	BYTE		N05     An1   v076
	BYTE	W06
	BYTE		        As1 
	BYTE	W06
	BYTE		        An1 
	BYTE	W06
	BYTE		        Gs1 
	BYTE	W06
	BYTE		        An1 
	BYTE	W06
	BYTE		        As1 
	BYTE	W06
	BYTE		        An1 
	BYTE	W06
	BYTE		        Gs1 
	BYTE	W06
	BYTE		        An1 
	BYTE	W06
	BYTE		        As1 
	BYTE	W06
	BYTE		        An1 
	BYTE	W06
	BYTE		        Gs1 
	BYTE	W06
	BYTE		        An1 
	BYTE	W06
	BYTE		        Bn1 
	BYTE	W06
	BYTE		        Cn2 
	BYTE	W06
	BYTE		        En2 
	BYTE	W06
	BYTE	PEND
// 004   ----------------------------------------
PaperMarioTTYDDooplissSme_12_004:
	BYTE		N05     An1   v076
	BYTE	W06
	BYTE		        As1 
	BYTE	W06
	BYTE		        An1 
	BYTE	W06
	BYTE		        Gs1 
	BYTE	W06
	BYTE		        An1 
	BYTE	W06
	BYTE		        As1 
	BYTE	W06
	BYTE		        An1 
	BYTE	W06
	BYTE		        Gs1 
	BYTE	W06
	BYTE		        An1 
	BYTE	W06
	BYTE		        As1 
	BYTE	W06
	BYTE		        An1 
	BYTE	W06
	BYTE		        Gs1 
	BYTE	W06
	BYTE		        An1 
	BYTE	W06
	BYTE		        Bn1 
	BYTE	W06
	BYTE		        Cn2 
	BYTE	W06
	BYTE		        Fn2 
	BYTE	W06
	BYTE	PEND
// 005   ----------------------------------------
PaperMarioTTYDDooplissSme_12_005:
	BYTE		N05     An1   v092
	BYTE	W06
	BYTE		        As1 
	BYTE	W06
	BYTE		        An1 
	BYTE	W06
	BYTE		        Gs1 
	BYTE	W06
	BYTE		        An1 
	BYTE	W06
	BYTE		        As1 
	BYTE	W06
	BYTE		        An1 
	BYTE	W06
	BYTE		        Gs1 
	BYTE	W06
	BYTE		        An1 
	BYTE	W06
	BYTE		        As1 
	BYTE	W06
	BYTE		        An1 
	BYTE	W06
	BYTE		        Gs1 
	BYTE	W06
	BYTE		        An1 
	BYTE	W06
	BYTE		        Bn1 
	BYTE	W06
	BYTE		        Cn2 
	BYTE	W06
	BYTE		        En2 
	BYTE	W06
	BYTE	PEND
// 006   ----------------------------------------
PaperMarioTTYDDooplissSme_12_006:
	BYTE		N05     An1   v092
	BYTE	W06
	BYTE		        As1 
	BYTE	W06
	BYTE		        An1 
	BYTE	W06
	BYTE		        Gs1 
	BYTE	W06
	BYTE		        An1 
	BYTE	W06
	BYTE		        As1 
	BYTE	W06
	BYTE		        An1 
	BYTE	W06
	BYTE		        Gs1 
	BYTE	W06
	BYTE		        An1 
	BYTE	W06
	BYTE		        As1 
	BYTE	W06
	BYTE		        An1 
	BYTE	W06
	BYTE		        Gs1 
	BYTE	W06
	BYTE		        An1 
	BYTE	W06
	BYTE		        Bn1 
	BYTE	W06
	BYTE		        Cn2 
	BYTE	W06
	BYTE		        Fn2 
	BYTE	W06
	BYTE	PEND
// 007   ----------------------------------------
PaperMarioTTYDDooplissSme_12_007:
	BYTE		N05     An1   v108
	BYTE	W06
	BYTE		        As1 
	BYTE	W06
	BYTE		        An1 
	BYTE	W06
	BYTE		        Gs1 
	BYTE	W06
	BYTE		        An1 
	BYTE	W06
	BYTE		        As1 
	BYTE	W06
	BYTE		        An1 
	BYTE	W06
	BYTE		        Gs1 
	BYTE	W06
	BYTE		        An1 
	BYTE	W06
	BYTE		        As1 
	BYTE	W06
	BYTE		        An1 
	BYTE	W06
	BYTE		        Gs1 
	BYTE	W06
	BYTE		        An1 
	BYTE	W06
	BYTE		        Bn1 
	BYTE	W06
	BYTE		        Cn2 
	BYTE	W06
	BYTE		        En2 
	BYTE	W06
	BYTE	PEND
// 008   ----------------------------------------
PaperMarioTTYDDooplissSme_12_008:
	BYTE		N05     An1   v108
	BYTE	W06
	BYTE		        As1 
	BYTE	W06
	BYTE		        An1 
	BYTE	W06
	BYTE		        Gs1 
	BYTE	W06
	BYTE		        An1 
	BYTE	W06
	BYTE		        As1 
	BYTE	W06
	BYTE		        An1 
	BYTE	W06
	BYTE		        Gs1 
	BYTE	W06
	BYTE		        An1 
	BYTE	W06
	BYTE		        As1 
	BYTE	W06
	BYTE		        An1 
	BYTE	W06
	BYTE		        Gs1 
	BYTE	W06
	BYTE		        An1 
	BYTE	W06
	BYTE		        Bn1 
	BYTE	W06
	BYTE		        Cn2 
	BYTE	W06
	BYTE		        Fn2 
	BYTE	W06
	BYTE	PEND
// 009   ----------------------------------------
	BYTE	W96
// 010   ----------------------------------------
	BYTE	W96
// 011   ----------------------------------------
	BYTE	W96
// 012   ----------------------------------------
	BYTE	W96
// 013   ----------------------------------------
	BYTE	W96
// 014   ----------------------------------------
	BYTE	W96
// 015   ----------------------------------------
	BYTE	W96
// 016   ----------------------------------------
	BYTE	W96
// 017   ----------------------------------------
	BYTE	W96
// 018   ----------------------------------------
PaperMarioTTYDDooplissSme_12_018:
	BYTE		N05     An1   v076
	BYTE	W06
	BYTE		        As1 
	BYTE	W06
	BYTE		        An1 
	BYTE	W06
	BYTE		        Gs1 
	BYTE	W06
	BYTE		        An1 
	BYTE	W06
	BYTE		        As1 
	BYTE	W06
	BYTE		        An1 
	BYTE	W06
	BYTE		        Gs1 
	BYTE	W06
	BYTE		        An1 
	BYTE	W06
	BYTE		        As1 
	BYTE	W06
	BYTE		        An1 
	BYTE	W06
	BYTE		        Gs1 
	BYTE	W06
	BYTE		        An1 
	BYTE	W06
	BYTE		        As1 
	BYTE	W06
	BYTE		        An1 
	BYTE	W06
	BYTE		        Gs1 
	BYTE	W06
	BYTE	PEND
// 019   ----------------------------------------
PaperMarioTTYDDooplissSme_12_019:
	BYTE		N05     An1   v076
	BYTE	W06
	BYTE		        As1 
	BYTE	W06
	BYTE		        An1 
	BYTE	W06
	BYTE		        Gs1 
	BYTE	W06
	BYTE		        An1 
	BYTE	W06
	BYTE		        As1 
	BYTE	W06
	BYTE		        An1 
	BYTE	W06
	BYTE		        Gs1 
	BYTE	W06
	BYTE		        An1 
	BYTE	W06
	BYTE		        As1 
	BYTE	W06
	BYTE		        An1 
	BYTE	W06
	BYTE		        Gs1 
	BYTE	W06
	BYTE		        An1 
	BYTE	W06
	BYTE		        As1 
	BYTE	W06
	BYTE		        Dn2 
	BYTE	W06
	BYTE		        Fn2 
	BYTE	W06
	BYTE	PEND
// 020   ----------------------------------------
	BYTE	PATT
	 POIN2	PaperMarioTTYDDooplissSme_12_018
// 021   ----------------------------------------
PaperMarioTTYDDooplissSme_12_021:
	BYTE		N05     An1   v076
	BYTE	W06
	BYTE		        As1 
	BYTE	W06
	BYTE		        An1 
	BYTE	W06
	BYTE		        Gs1 
	BYTE	W06
	BYTE		        An1 
	BYTE	W06
	BYTE		        As1 
	BYTE	W06
	BYTE		        An1 
	BYTE	W06
	BYTE		        Gs1 
	BYTE	W06
	BYTE		        An1 
	BYTE	W06
	BYTE		        As1 
	BYTE	W06
	BYTE		        An1 
	BYTE	W06
	BYTE		        Gs1 
	BYTE	W06
	BYTE		        Fn2 
	BYTE	W06
	BYTE		        Dn2 
	BYTE	W06
	BYTE		        As1 
	BYTE	W06
	BYTE		        Gs1 
	BYTE	W06
	BYTE	PEND
// 022   ----------------------------------------
	BYTE	PATT
	 POIN2	PaperMarioTTYDDooplissSme_12_018
// 023   ----------------------------------------
	BYTE	PATT
	 POIN2	PaperMarioTTYDDooplissSme_12_019
// 024   ----------------------------------------
	BYTE	PATT
	 POIN2	PaperMarioTTYDDooplissSme_12_018
// 025   ----------------------------------------
	BYTE	PATT
	 POIN2	PaperMarioTTYDDooplissSme_12_021
// 026   ----------------------------------------
	BYTE	PATT
	 POIN2	PaperMarioTTYDDooplissSme_12_018
// 027   ----------------------------------------
	BYTE	PATT
	 POIN2	PaperMarioTTYDDooplissSme_12_019
// 028   ----------------------------------------
	BYTE	PATT
	 POIN2	PaperMarioTTYDDooplissSme_12_018
// 029   ----------------------------------------
	BYTE	W96
// 030   ----------------------------------------
	BYTE	W96
// 031   ----------------------------------------
	BYTE	W96
// 032   ----------------------------------------
	BYTE	PATT
	 POIN2	PaperMarioTTYDDooplissSme_12_003
// 033   ----------------------------------------
	BYTE	PATT
	 POIN2	PaperMarioTTYDDooplissSme_12_004
// 034   ----------------------------------------
	BYTE	PATT
	 POIN2	PaperMarioTTYDDooplissSme_12_005
// 035   ----------------------------------------
	BYTE	PATT
	 POIN2	PaperMarioTTYDDooplissSme_12_006
// 036   ----------------------------------------
	BYTE	PATT
	 POIN2	PaperMarioTTYDDooplissSme_12_007
// 037   ----------------------------------------
	BYTE	PATT
	 POIN2	PaperMarioTTYDDooplissSme_12_008
// 038   ----------------------------------------
	BYTE	W96
// 039   ----------------------------------------
	BYTE	W96
// 040   ----------------------------------------
	BYTE	W96
// 041   ----------------------------------------
	BYTE	W96
// 042   ----------------------------------------
	BYTE	W96
// 043   ----------------------------------------
	BYTE	W96
// 044   ----------------------------------------
	BYTE	W96
// 045   ----------------------------------------
	BYTE	W96
// 046   ----------------------------------------
	BYTE	W96
// 047   ----------------------------------------
	BYTE	PATT
	 POIN2	PaperMarioTTYDDooplissSme_12_018
// 048   ----------------------------------------
	BYTE	PATT
	 POIN2	PaperMarioTTYDDooplissSme_12_019
// 049   ----------------------------------------
	BYTE	PATT
	 POIN2	PaperMarioTTYDDooplissSme_12_018
// 050   ----------------------------------------
	BYTE	PATT
	 POIN2	PaperMarioTTYDDooplissSme_12_021
// 051   ----------------------------------------
	BYTE	PATT
	 POIN2	PaperMarioTTYDDooplissSme_12_018
// 052   ----------------------------------------
	BYTE	PATT
	 POIN2	PaperMarioTTYDDooplissSme_12_019
// 053   ----------------------------------------
	BYTE	PATT
	 POIN2	PaperMarioTTYDDooplissSme_12_018
// 054   ----------------------------------------
	BYTE	PATT
	 POIN2	PaperMarioTTYDDooplissSme_12_021
// 055   ----------------------------------------
	BYTE	PATT
	 POIN2	PaperMarioTTYDDooplissSme_12_018
// 056   ----------------------------------------
	BYTE	PATT
	 POIN2	PaperMarioTTYDDooplissSme_12_019
// 057   ----------------------------------------
	BYTE	PATT
	 POIN2	PaperMarioTTYDDooplissSme_12_018
// 058   ----------------------------------------
	BYTE	W96
// 059   ----------------------------------------
	BYTE	W18
	BYTE	GoTo
	 POIN2	PaperMarioTTYDDooplissSme_12_B1
PaperMarioTTYDDooplissSme_12_B2:
	BYTE	FINE

//**************** Track 13 (Midi-Chn.14) ****************//

PaperMarioTTYDDooplissSme_13:
	BYTE	KEYSH   PaperMarioTTYDDooplissSme_key+0
// 000   ----------------------------------------
	BYTE		VOICE   54
	BYTE		VOL     63*PaperMarioTTYDDooplissSme_mvl/mxv
	BYTE		PAN     c_v+0
	BYTE		N01     Gs3   v048
	BYTE		N01     Gs4 
	BYTE	W01
	BYTE		        Gs3 
	BYTE		N01     Gs4 
	BYTE	W02
	BYTE		        Gs3 
	BYTE		N01     Gs4 
	BYTE	W01
	BYTE		        Gs3 
	BYTE		N01     Gs4 
	BYTE	W02
	BYTE		        Gs3 
	BYTE		N01     Gs4 
	BYTE	W01
	BYTE		        Gs3 
	BYTE		N01     Gs4 
	BYTE	W02
	BYTE		        Gs3 
	BYTE		N01     Gs4 
	BYTE	W01
	BYTE		        Gs3 
	BYTE		N01     Gs4 
	BYTE	W02
	BYTE		        Gs3 
	BYTE		N01     Gs4 
	BYTE	W01
	BYTE		        Gs3 
	BYTE		N01     Gs4 
	BYTE	W02
	BYTE		        Gs3 
	BYTE		N01     Gs4 
	BYTE	W01
	BYTE		        Gs3 
	BYTE		N01     Gs4 
	BYTE	W02
	BYTE		        Gs3   v060
	BYTE		N01     Gs4 
	BYTE	W01
	BYTE		        Gs3 
	BYTE		N01     Gs4 
	BYTE	W02
	BYTE		        Gs3 
	BYTE		N01     Gs4 
	BYTE	W01
	BYTE		        Gs3 
	BYTE		N01     Gs4 
	BYTE	W02
	BYTE		        Gs3   v076
	BYTE		N01     Gs4 
	BYTE	W01
	BYTE		        Gs3 
	BYTE		N01     Gs4 
	BYTE	W02
	BYTE		        Gs3 
	BYTE		N01     Gs4 
	BYTE	W01
	BYTE		        Gs3 
	BYTE		N01     Gs4 
	BYTE	W02
	BYTE		        Gs3 
	BYTE		N01     Gs4 
	BYTE	W01
	BYTE		        Gs3 
	BYTE		N01     Gs4 
	BYTE	W02
	BYTE		        Gs3   v092
	BYTE		N01     Gs4 
	BYTE	W01
	BYTE		        Gs3 
	BYTE		N01     Gs4 
	BYTE	W02
	BYTE		        Gs3 
	BYTE		N01     Gs4 
	BYTE	W01
	BYTE		        Gs3   v108
	BYTE		N01     Gs4 
	BYTE	W02
	BYTE		        Gs3 
	BYTE		N01     Gs4 
	BYTE	W01
	BYTE		        Gs3 
	BYTE		N01     Gs4 
	BYTE	W02
	BYTE		        Gs3 
	BYTE		N01     Gs4 
	BYTE	W01
	BYTE		        Gs3 
	BYTE		N01     Gs4 
	BYTE	W02
	BYTE		        Gs3 
	BYTE		N01     Gs4 
	BYTE	W01
	BYTE		        Gs3 
	BYTE		N01     Gs4 
	BYTE	W02
	BYTE		        Gs3 
	BYTE		N01     Gs4 
	BYTE	W01
	BYTE		        Gs3 
	BYTE		N01     Gs4 
	BYTE	W02
	BYTE		        Gs3 
	BYTE		N01     Gs4 
	BYTE	W01
	BYTE		        Gs3 
	BYTE		N01     Gs4 
	BYTE	W02
	BYTE		        Gs3 
	BYTE		N01     Gs4 
	BYTE	W01
	BYTE		        Gs3 
	BYTE		N01     Gs4 
	BYTE	W02
	BYTE		        Gs3 
	BYTE		N01     Gs4 
	BYTE	W01
	BYTE		        Gs3 
	BYTE		N01     Gs4 
	BYTE	W02
	BYTE		        Gs3 
	BYTE		N01     Gs4 
	BYTE	W01
	BYTE		        Gs3 
	BYTE		N01     Gs4 
	BYTE	W02
	BYTE		        Gs3 
	BYTE		N01     Gs4 
	BYTE	W01
	BYTE		        Gs3 
	BYTE		N01     Gs4 
	BYTE	W02
	BYTE		        Gs3 
	BYTE		N01     Gs4 
	BYTE	W01
	BYTE		        Gs3 
	BYTE		N01     Gs4 
	BYTE	W02
	BYTE		        Gs3 
	BYTE		N01     Gs4 
	BYTE	W01
	BYTE		        Gs3 
	BYTE		N01     Gs4 
	BYTE	W24
	BYTE	W02
PaperMarioTTYDDooplissSme_13_B1:
// 001   ----------------------------------------
	BYTE	W96
// 002   ----------------------------------------
	BYTE	W96
// 003   ----------------------------------------
	BYTE	W96
// 004   ----------------------------------------
PaperMarioTTYDDooplissSme_13_004:
	BYTE	W48
	BYTE		N01     Gs3   v108
	BYTE		N01     Gs4 
	BYTE	W01
	BYTE		        Gs3 
	BYTE		N01     Gs4 
	BYTE	W02
	BYTE		        Gs3 
	BYTE		N01     Gs4 
	BYTE	W01
	BYTE		        Gs3 
	BYTE		N01     Gs4 
	BYTE	W02
	BYTE		        Gs3 
	BYTE		N01     Gs4 
	BYTE	W01
	BYTE		        Gs3 
	BYTE		N01     Gs4 
	BYTE	W02
	BYTE		        Gs3 
	BYTE		N01     Gs4 
	BYTE	W01
	BYTE		        Gs3 
	BYTE		N01     Gs4 
	BYTE	W02
	BYTE		        Gs3 
	BYTE		N01     Gs4 
	BYTE	W01
	BYTE		        Gs3 
	BYTE		N01     Gs4 
	BYTE	W02
	BYTE		        Gs3 
	BYTE		N01     Gs4 
	BYTE	W01
	BYTE		        Gs3 
	BYTE		N01     Gs4 
	BYTE	W02
	BYTE		        Gs3   v060
	BYTE		N01     Gs4 
	BYTE	W01
	BYTE		        Gs3 
	BYTE		N01     Gs4 
	BYTE	W02
	BYTE		        Gs3 
	BYTE		N01     Gs4 
	BYTE	W01
	BYTE		        Gs3 
	BYTE		N01     Gs4 
	BYTE	W02
	BYTE		        Gs3   v076
	BYTE		N01     Gs4 
	BYTE	W01
	BYTE		        Gs3 
	BYTE		N01     Gs4 
	BYTE	W02
	BYTE		        Gs3 
	BYTE		N01     Gs4 
	BYTE	W01
	BYTE		        Gs3 
	BYTE		N01     Gs4 
	BYTE	W02
	BYTE		        Gs3 
	BYTE		N01     Gs4 
	BYTE	W01
	BYTE		        Gs3 
	BYTE		N01     Gs4 
	BYTE	W02
	BYTE		        Gs3   v092
	BYTE		N01     Gs4 
	BYTE	W01
	BYTE		        Gs3 
	BYTE		N01     Gs4 
	BYTE	W02
	BYTE		        Gs3 
	BYTE		N01     Gs4 
	BYTE	W01
	BYTE		        Gs3   v108
	BYTE		N01     Gs4 
	BYTE	W02
	BYTE		        Gs3 
	BYTE		N01     Gs4 
	BYTE	W01
	BYTE		        Gs3 
	BYTE		N01     Gs4 
	BYTE	W02
	BYTE		        Gs3 
	BYTE		N01     Gs4 
	BYTE	W01
	BYTE		        Gs3 
	BYTE		N01     Gs4 
	BYTE	W02
	BYTE		        Gs3 
	BYTE		N01     Gs4 
	BYTE	W01
	BYTE		        Gs3 
	BYTE		N01     Gs4 
	BYTE	W02
	BYTE	PEND
// 005   ----------------------------------------
	BYTE	W96
// 006   ----------------------------------------
	BYTE	W96
// 007   ----------------------------------------
	BYTE	W96
// 008   ----------------------------------------
	BYTE	W96
// 009   ----------------------------------------
PaperMarioTTYDDooplissSme_13_009:
	BYTE		N04     An3   v108
	BYTE	W12
	BYTE		N05   
	BYTE	W06
	BYTE		        Gs3 
	BYTE	W06
	BYTE		N11     Gn3 
	BYTE	W12
	BYTE		        Fs3 
	BYTE	W12
	BYTE		        Fn3 
	BYTE	W12
	BYTE		        En3 
	BYTE	W12
	BYTE		        Ds3 
	BYTE	W12
	BYTE		        En3 
	BYTE	W12
	BYTE	PEND
// 010   ----------------------------------------
	BYTE	W96
// 011   ----------------------------------------
	BYTE	W96
// 012   ----------------------------------------
	BYTE	W96
// 013   ----------------------------------------
	BYTE	W96
// 014   ----------------------------------------
	BYTE	W96
// 015   ----------------------------------------
	BYTE	W96
// 016   ----------------------------------------
	BYTE	W96
// 017   ----------------------------------------
	BYTE	W96
// 018   ----------------------------------------
	BYTE	W96
// 019   ----------------------------------------
	BYTE	W96
// 020   ----------------------------------------
	BYTE	W96
// 021   ----------------------------------------
	BYTE	W96
// 022   ----------------------------------------
	BYTE	W96
// 023   ----------------------------------------
	BYTE	W96
// 024   ----------------------------------------
	BYTE	W96
// 025   ----------------------------------------
	BYTE	PATT
	 POIN2	PaperMarioTTYDDooplissSme_13_004
// 026   ----------------------------------------
	BYTE	W96
// 027   ----------------------------------------
	BYTE	W96
// 028   ----------------------------------------
	BYTE	PATT
	 POIN2	PaperMarioTTYDDooplissSme_13_004
// 029   ----------------------------------------
	BYTE	W96
// 030   ----------------------------------------
	BYTE	W96
// 031   ----------------------------------------
	BYTE	W96
// 032   ----------------------------------------
	BYTE	W96
// 033   ----------------------------------------
	BYTE	PATT
	 POIN2	PaperMarioTTYDDooplissSme_13_004
// 034   ----------------------------------------
	BYTE	W96
// 035   ----------------------------------------
	BYTE	W96
// 036   ----------------------------------------
	BYTE	W96
// 037   ----------------------------------------
	BYTE	W96
// 038   ----------------------------------------
	BYTE	PATT
	 POIN2	PaperMarioTTYDDooplissSme_13_009
// 039   ----------------------------------------
	BYTE	W96
// 040   ----------------------------------------
	BYTE	W96
// 041   ----------------------------------------
	BYTE	W96
// 042   ----------------------------------------
	BYTE	W96
// 043   ----------------------------------------
	BYTE	W96
// 044   ----------------------------------------
	BYTE	W96
// 045   ----------------------------------------
	BYTE	W96
// 046   ----------------------------------------
	BYTE	W96
// 047   ----------------------------------------
	BYTE	W96
// 048   ----------------------------------------
	BYTE	W96
// 049   ----------------------------------------
	BYTE	W96
// 050   ----------------------------------------
	BYTE	W96
// 051   ----------------------------------------
	BYTE	W96
// 052   ----------------------------------------
	BYTE	W96
// 053   ----------------------------------------
	BYTE	W96
// 054   ----------------------------------------
	BYTE	PATT
	 POIN2	PaperMarioTTYDDooplissSme_13_004
// 055   ----------------------------------------
	BYTE	W96
// 056   ----------------------------------------
	BYTE	W96
// 057   ----------------------------------------
	BYTE	PATT
	 POIN2	PaperMarioTTYDDooplissSme_13_004
// 058   ----------------------------------------
	BYTE	W96
// 059   ----------------------------------------
	BYTE	W18
	BYTE	GoTo
	 POIN2	PaperMarioTTYDDooplissSme_13_B1
PaperMarioTTYDDooplissSme_13_B2:
	BYTE	FINE

//**************** Track 14 (Midi-Chn.15) ****************//

PaperMarioTTYDDooplissSme_14:
	BYTE	KEYSH   PaperMarioTTYDDooplissSme_key+0
// 000   ----------------------------------------
	BYTE		VOICE   127
	BYTE		VOL     86*PaperMarioTTYDDooplissSme_mvl/mxv
	BYTE		PAN     c_v+0
	BYTE	W72
	BYTE		N20     Ds2   v112
	BYTE		N20     En2 
	BYTE		N20     Fn2 
	BYTE	W24
PaperMarioTTYDDooplissSme_14_B1:
// 001   ----------------------------------------
PaperMarioTTYDDooplissSme_14_001:
	BYTE		N20     Fn1   v112
	BYTE		N20     Gn1 
	BYTE		N20     An1 
	BYTE		N20     Bn1 
	BYTE		N20     Cn2 
	BYTE		N20     Dn2 
	BYTE	W12
	BYTE		N11     An3 
	BYTE	W12
	BYTE		        Cn3 
	BYTE	W12
	BYTE		N11   
	BYTE		N11     An3 
	BYTE	W24
	BYTE		N11   
	BYTE	W12
	BYTE		        An0 
	BYTE		N11     Dn3 
	BYTE	W12
	BYTE		        An0 
	BYTE		N11     Dn3 
	BYTE		N11     An3 
	BYTE	W12
	BYTE	PEND
// 002   ----------------------------------------
PaperMarioTTYDDooplissSme_14_002:
	BYTE	W12
	BYTE		N11     An3   v112
	BYTE	W12
	BYTE		        Cn3 
	BYTE	W12
	BYTE		N11   
	BYTE		N11     An3 
	BYTE	W24
	BYTE		N11   
	BYTE	W12
	BYTE		N20     Ds2 
	BYTE		N20     En2 
	BYTE		N20     Fn2 
	BYTE	W12
	BYTE		N11     An3 
	BYTE	W12
	BYTE	PEND
// 003   ----------------------------------------
	BYTE	PATT
	 POIN2	PaperMarioTTYDDooplissSme_14_001
// 004   ----------------------------------------
PaperMarioTTYDDooplissSme_14_004:
	BYTE	W12
	BYTE		N11     An3   v112
	BYTE	W12
	BYTE		        Cn3 
	BYTE	W12
	BYTE		N11   
	BYTE		N11     An3 
	BYTE	W24
	BYTE		N11   
	BYTE	W12
	BYTE		N02     Dn1 
	BYTE		N20     Ds2 
	BYTE		N20     En2 
	BYTE		N20     Fn2 
	BYTE	W03
	BYTE		N02     Dn1 
	BYTE	W03
	BYTE		N02   
	BYTE	W03
	BYTE		N02   
	BYTE	W03
	BYTE		N11     An3 
	BYTE	W12
	BYTE	PEND
// 005   ----------------------------------------
PaperMarioTTYDDooplissSme_14_005:
	BYTE		N20     Fn1   v112
	BYTE		N20     Gn1 
	BYTE		N20     An1 
	BYTE		N20     Bn1 
	BYTE		N20     Cn2 
	BYTE		N20     Dn2 
	BYTE	W12
	BYTE		N11     An3 
	BYTE	W12
	BYTE		N20     Dn1 
	BYTE		N11     Cn3 
	BYTE	W12
	BYTE		N11   
	BYTE		N11     An3 
	BYTE	W24
	BYTE		N11   
	BYTE	W12
	BYTE		        An0 
	BYTE		N05     Dn1 
	BYTE		N11     Dn3 
	BYTE	W06
	BYTE		N05     Dn1 
	BYTE	W06
	BYTE		N11     An0 
	BYTE		N11     Dn3 
	BYTE		N11     An3 
	BYTE	W12
	BYTE	PEND
// 006   ----------------------------------------
PaperMarioTTYDDooplissSme_14_006:
	BYTE	W12
	BYTE		N11     An3   v112
	BYTE	W12
	BYTE		N20     Dn1 
	BYTE		N11     Cn3 
	BYTE	W12
	BYTE		N11   
	BYTE		N11     An3 
	BYTE	W24
	BYTE		N11   
	BYTE	W12
	BYTE		N02     Dn1 
	BYTE		N20     Ds2 
	BYTE		N20     En2 
	BYTE		N20     Fn2 
	BYTE	W03
	BYTE		N02     Dn1 
	BYTE	W03
	BYTE		N02   
	BYTE	W03
	BYTE		N02   
	BYTE	W03
	BYTE		N11     An3 
	BYTE	W12
	BYTE	PEND
// 007   ----------------------------------------
	BYTE	PATT
	 POIN2	PaperMarioTTYDDooplissSme_14_005
// 008   ----------------------------------------
	BYTE	PATT
	 POIN2	PaperMarioTTYDDooplissSme_14_006
// 009   ----------------------------------------
PaperMarioTTYDDooplissSme_14_009:
	BYTE		N11     Cn3   v112
	BYTE	W18
	BYTE		N02   
	BYTE	W03
	BYTE		N02   
	BYTE	W03
	BYTE		N02   
	BYTE	W03
	BYTE		N02   
	BYTE	W03
	BYTE		N02   
	BYTE	W03
	BYTE		N02   
	BYTE	W32
	BYTE	W01
	BYTE		N05   
	BYTE	W06
	BYTE		N20     Dn1 
	BYTE		N05     Cn3 
	BYTE	W12
	BYTE		N11     Dn2 
	BYTE		N11     En2 
	BYTE		N11     Fn2 
	BYTE	W12
	BYTE	PEND
// 010   ----------------------------------------
PaperMarioTTYDDooplissSme_14_010:
	BYTE	W06
	BYTE		N05     En3   v112
	BYTE	W06
	BYTE		N05   
	BYTE		N11     An3 
	BYTE	W12
	BYTE		N20     Dn1 
	BYTE	W12
	BYTE		N11     An3 
	BYTE	W18
	BYTE		N05     En3 
	BYTE	W06
	BYTE		N05   
	BYTE		N11     An3 
	BYTE	W12
	BYTE		N05     Dn1 
	BYTE	W06
	BYTE		N05   
	BYTE	W06
	BYTE		N11     An3 
	BYTE	W12
	BYTE	PEND
// 011   ----------------------------------------
PaperMarioTTYDDooplissSme_14_011:
	BYTE	W06
	BYTE		N05     En3   v112
	BYTE	W06
	BYTE		N05   
	BYTE		N11     An3 
	BYTE	W12
	BYTE		N20     Dn1 
	BYTE	W12
	BYTE		N11     An3 
	BYTE	W18
	BYTE		N05     En3 
	BYTE	W06
	BYTE		N05   
	BYTE		N11     An3 
	BYTE	W12
	BYTE		N02     Dn1 
	BYTE	W03
	BYTE		N02   
	BYTE	W03
	BYTE		N02   
	BYTE	W03
	BYTE		N02   
	BYTE	W03
	BYTE		N11     An3 
	BYTE	W12
	BYTE	PEND
// 012   ----------------------------------------
	BYTE	PATT
	 POIN2	PaperMarioTTYDDooplissSme_14_010
// 013   ----------------------------------------
	BYTE	PATT
	 POIN2	PaperMarioTTYDDooplissSme_14_011
// 014   ----------------------------------------
	BYTE	PATT
	 POIN2	PaperMarioTTYDDooplissSme_14_010
// 015   ----------------------------------------
PaperMarioTTYDDooplissSme_14_015:
	BYTE	W06
	BYTE		N05     En3   v112
	BYTE	W06
	BYTE		N05   
	BYTE		N11     An3 
	BYTE	W12
	BYTE		N20     Dn1 
	BYTE	W12
	BYTE		N11     An3 
	BYTE	W18
	BYTE		N05     En3 
	BYTE	W06
	BYTE		N05   
	BYTE		N11     An3 
	BYTE	W12
	BYTE		N05     Dn1 
	BYTE	W06
	BYTE		N11   
	BYTE	W06
	BYTE		        An3 
	BYTE	W06
	BYTE		N05     Dn1 
	BYTE	W06
	BYTE	PEND
// 016   ----------------------------------------
	BYTE	PATT
	 POIN2	PaperMarioTTYDDooplissSme_14_010
// 017   ----------------------------------------
PaperMarioTTYDDooplissSme_14_017:
	BYTE		N02     Dn1   v112
	BYTE	W03
	BYTE		N02   
	BYTE	W03
	BYTE		N02   
	BYTE	W03
	BYTE		N02   
	BYTE	W03
	BYTE		N02   
	BYTE		N11     An3 
	BYTE	W03
	BYTE		N02     Dn1 
	BYTE	W03
	BYTE		N02   
	BYTE	W03
	BYTE		N02   
	BYTE	W03
	BYTE		N02   
	BYTE	W03
	BYTE		N02   
	BYTE	W03
	BYTE		N02   
	BYTE	W03
	BYTE		N02   
	BYTE	W03
	BYTE		N02   
	BYTE		N11     An3 
	BYTE	W03
	BYTE		N02     Dn1 
	BYTE	W03
	BYTE		N02   
	BYTE	W03
	BYTE		N02   
	BYTE	W03
	BYTE		N02   
	BYTE	W03
	BYTE		N02   
	BYTE	W09
	BYTE		N11     An3 
	BYTE	W24
	BYTE		N11   
	BYTE	W12
	BYTE	PEND
// 018   ----------------------------------------
PaperMarioTTYDDooplissSme_14_018:
	BYTE		N11     Cn1   v112
	BYTE	W12
	BYTE		N05     En3 
	BYTE		N11     An3 
	BYTE	W06
	BYTE		N05     En3 
	BYTE	W18
	BYTE		N11     An3 
	BYTE	W12
	BYTE		        Cn1 
	BYTE	W12
	BYTE		N05     En3 
	BYTE		N11     An3 
	BYTE	W06
	BYTE		N05     En3 
	BYTE	W18
	BYTE		N11     An3 
	BYTE	W12
	BYTE	PEND
// 019   ----------------------------------------
	BYTE	PATT
	 POIN2	PaperMarioTTYDDooplissSme_14_018
// 020   ----------------------------------------
PaperMarioTTYDDooplissSme_14_020:
	BYTE		N11     Cn1   v112
	BYTE	W12
	BYTE		N05     En3 
	BYTE		N11     An3 
	BYTE	W06
	BYTE		N05     En3 
	BYTE	W18
	BYTE		N11   
	BYTE		N11     An3 
	BYTE	W12
	BYTE		        Cn1 
	BYTE	W12
	BYTE		N05     En3 
	BYTE		N11     An3 
	BYTE	W06
	BYTE		N05     En3 
	BYTE	W18
	BYTE		N11   
	BYTE		N11     An3 
	BYTE	W12
	BYTE	PEND
// 021   ----------------------------------------
	BYTE	PATT
	 POIN2	PaperMarioTTYDDooplissSme_14_020
// 022   ----------------------------------------
	BYTE	PATT
	 POIN2	PaperMarioTTYDDooplissSme_14_018
// 023   ----------------------------------------
	BYTE	PATT
	 POIN2	PaperMarioTTYDDooplissSme_14_018
// 024   ----------------------------------------
	BYTE	PATT
	 POIN2	PaperMarioTTYDDooplissSme_14_020
// 025   ----------------------------------------
	BYTE	PATT
	 POIN2	PaperMarioTTYDDooplissSme_14_020
// 026   ----------------------------------------
PaperMarioTTYDDooplissSme_14_026:
	BYTE		N11     Cn1   v112
	BYTE		N11     Fn1 
	BYTE		N11     Gn1 
	BYTE		N11     An1 
	BYTE		N11     Bn1 
	BYTE		N11     Cn2 
	BYTE		N11     Dn2 
	BYTE	W12
	BYTE		N05     En3 
	BYTE		N11     An3 
	BYTE	W06
	BYTE		N05     En3 
	BYTE	W18
	BYTE		N11   
	BYTE		N11     An3 
	BYTE	W12
	BYTE		        Cn1 
	BYTE	W12
	BYTE		N05     En3 
	BYTE		N11     An3 
	BYTE	W06
	BYTE		N05     En3 
	BYTE	W18
	BYTE		N11   
	BYTE		N11     An3 
	BYTE	W12
	BYTE	PEND
// 027   ----------------------------------------
	BYTE	PATT
	 POIN2	PaperMarioTTYDDooplissSme_14_026
// 028   ----------------------------------------
	BYTE	PATT
	 POIN2	PaperMarioTTYDDooplissSme_14_026
// 029   ----------------------------------------
PaperMarioTTYDDooplissSme_14_029:
	BYTE		N20     Fn1   v112
	BYTE		N20     Gn1 
	BYTE		N20     An1 
	BYTE		N20     Bn1 
	BYTE		N20     Cn2 
	BYTE		N20     Dn2 
	BYTE	W96
	BYTE	PEND
// 030   ----------------------------------------
	BYTE	PATT
	 POIN2	PaperMarioTTYDDooplissSme_14_001
// 031   ----------------------------------------
	BYTE	PATT
	 POIN2	PaperMarioTTYDDooplissSme_14_002
// 032   ----------------------------------------
	BYTE	PATT
	 POIN2	PaperMarioTTYDDooplissSme_14_001
// 033   ----------------------------------------
	BYTE	PATT
	 POIN2	PaperMarioTTYDDooplissSme_14_004
// 034   ----------------------------------------
	BYTE	PATT
	 POIN2	PaperMarioTTYDDooplissSme_14_005
// 035   ----------------------------------------
	BYTE	PATT
	 POIN2	PaperMarioTTYDDooplissSme_14_006
// 036   ----------------------------------------
	BYTE	PATT
	 POIN2	PaperMarioTTYDDooplissSme_14_005
// 037   ----------------------------------------
	BYTE	PATT
	 POIN2	PaperMarioTTYDDooplissSme_14_006
// 038   ----------------------------------------
	BYTE	PATT
	 POIN2	PaperMarioTTYDDooplissSme_14_009
// 039   ----------------------------------------
	BYTE	PATT
	 POIN2	PaperMarioTTYDDooplissSme_14_010
// 040   ----------------------------------------
	BYTE	PATT
	 POIN2	PaperMarioTTYDDooplissSme_14_011
// 041   ----------------------------------------
	BYTE	PATT
	 POIN2	PaperMarioTTYDDooplissSme_14_010
// 042   ----------------------------------------
	BYTE	PATT
	 POIN2	PaperMarioTTYDDooplissSme_14_011
// 043   ----------------------------------------
	BYTE	PATT
	 POIN2	PaperMarioTTYDDooplissSme_14_010
// 044   ----------------------------------------
	BYTE	PATT
	 POIN2	PaperMarioTTYDDooplissSme_14_015
// 045   ----------------------------------------
	BYTE	PATT
	 POIN2	PaperMarioTTYDDooplissSme_14_010
// 046   ----------------------------------------
	BYTE	PATT
	 POIN2	PaperMarioTTYDDooplissSme_14_017
// 047   ----------------------------------------
	BYTE	PATT
	 POIN2	PaperMarioTTYDDooplissSme_14_018
// 048   ----------------------------------------
	BYTE	PATT
	 POIN2	PaperMarioTTYDDooplissSme_14_018
// 049   ----------------------------------------
	BYTE	PATT
	 POIN2	PaperMarioTTYDDooplissSme_14_020
// 050   ----------------------------------------
	BYTE	PATT
	 POIN2	PaperMarioTTYDDooplissSme_14_020
// 051   ----------------------------------------
	BYTE	PATT
	 POIN2	PaperMarioTTYDDooplissSme_14_018
// 052   ----------------------------------------
	BYTE	PATT
	 POIN2	PaperMarioTTYDDooplissSme_14_018
// 053   ----------------------------------------
	BYTE	PATT
	 POIN2	PaperMarioTTYDDooplissSme_14_020
// 054   ----------------------------------------
	BYTE	PATT
	 POIN2	PaperMarioTTYDDooplissSme_14_020
// 055   ----------------------------------------
	BYTE	PATT
	 POIN2	PaperMarioTTYDDooplissSme_14_026
// 056   ----------------------------------------
	BYTE	PATT
	 POIN2	PaperMarioTTYDDooplissSme_14_026
// 057   ----------------------------------------
	BYTE	PATT
	 POIN2	PaperMarioTTYDDooplissSme_14_026
// 058   ----------------------------------------
	BYTE	PATT
	 POIN2	PaperMarioTTYDDooplissSme_14_029
// 059   ----------------------------------------
	BYTE	W18
	BYTE	GoTo
	 POIN2	PaperMarioTTYDDooplissSme_14_B1
PaperMarioTTYDDooplissSme_14_B2:
	BYTE	FINE

//**************** Track 15 (Midi-Chn.16) ****************//

PaperMarioTTYDDooplissSme_15:
	BYTE	KEYSH   PaperMarioTTYDDooplissSme_key+0
// 000   ----------------------------------------
	BYTE		VOICE   19
	BYTE		VOL     80*PaperMarioTTYDDooplissSme_mvl/mxv
	BYTE		PAN     c_v+0
	BYTE		N01     Gs3   v048
	BYTE		N01     Gs4 
	BYTE	W01
	BYTE		        Gs3 
	BYTE		N01     Gs4 
	BYTE	W02
	BYTE		        Gs3 
	BYTE		N01     Gs4 
	BYTE	W01
	BYTE		        Gs3 
	BYTE		N01     Gs4 
	BYTE	W02
	BYTE		        Gs3 
	BYTE		N01     Gs4 
	BYTE	W01
	BYTE		        Gs3 
	BYTE		N01     Gs4 
	BYTE	W02
	BYTE		        Gs3 
	BYTE		N01     Gs4 
	BYTE	W01
	BYTE		        Gs3 
	BYTE		N01     Gs4 
	BYTE	W02
	BYTE		        Gs3 
	BYTE		N01     Gs4 
	BYTE	W01
	BYTE		        Gs3 
	BYTE		N01     Gs4 
	BYTE	W02
	BYTE		        Gs3 
	BYTE		N01     Gs4 
	BYTE	W01
	BYTE		        Gs3 
	BYTE		N01     Gs4 
	BYTE	W02
	BYTE		        Gs3   v060
	BYTE		N01     Gs4 
	BYTE	W01
	BYTE		        Gs3 
	BYTE		N01     Gs4 
	BYTE	W02
	BYTE		        Gs3 
	BYTE		N01     Gs4 
	BYTE	W01
	BYTE		        Gs3 
	BYTE		N01     Gs4 
	BYTE	W02
	BYTE		        Gs3   v076
	BYTE		N01     Gs4 
	BYTE	W01
	BYTE		        Gs3 
	BYTE		N01     Gs4 
	BYTE	W02
	BYTE		        Gs3 
	BYTE		N01     Gs4 
	BYTE	W01
	BYTE		        Gs3 
	BYTE		N01     Gs4 
	BYTE	W02
	BYTE		        Gs3 
	BYTE		N01     Gs4 
	BYTE	W01
	BYTE		        Gs3 
	BYTE		N01     Gs4 
	BYTE	W02
	BYTE		        Gs3   v092
	BYTE		N01     Gs4 
	BYTE	W01
	BYTE		        Gs3 
	BYTE		N01     Gs4 
	BYTE	W02
	BYTE		        Gs3 
	BYTE		N01     Gs4 
	BYTE	W01
	BYTE		        Gs3   v108
	BYTE		N01     Gs4 
	BYTE	W02
	BYTE		        Gs3 
	BYTE		N01     Gs4 
	BYTE	W01
	BYTE		        Gs3 
	BYTE		N01     Gs4 
	BYTE	W02
	BYTE		        Gs3 
	BYTE		N01     Gs4 
	BYTE	W01
	BYTE		        Gs3 
	BYTE		N01     Gs4 
	BYTE	W02
	BYTE		        Gs3 
	BYTE		N01     Gs4 
	BYTE	W01
	BYTE		        Gs3 
	BYTE		N01     Gs4 
	BYTE	W02
	BYTE		        Gs3 
	BYTE		N01     Gs4 
	BYTE	W01
	BYTE		        Gs3 
	BYTE		N01     Gs4 
	BYTE	W02
	BYTE		        Gs3 
	BYTE		N01     Gs4 
	BYTE	W01
	BYTE		        Gs3 
	BYTE		N01     Gs4 
	BYTE	W02
	BYTE		        Gs3 
	BYTE		N01     Gs4 
	BYTE	W01
	BYTE		        Gs3 
	BYTE		N01     Gs4 
	BYTE	W02
	BYTE		        Gs3 
	BYTE		N01     Gs4 
	BYTE	W01
	BYTE		        Gs3 
	BYTE		N01     Gs4 
	BYTE	W02
	BYTE		        Gs3 
	BYTE		N01     Gs4 
	BYTE	W01
	BYTE		        Gs3 
	BYTE		N01     Gs4 
	BYTE	W02
	BYTE		        Gs3 
	BYTE		N01     Gs4 
	BYTE	W01
	BYTE		        Gs3 
	BYTE		N01     Gs4 
	BYTE	W02
	BYTE		        Gs3 
	BYTE		N01     Gs4 
	BYTE	W01
	BYTE		        Gs3 
	BYTE		N01     Gs4 
	BYTE	W02
	BYTE		        Gs3 
	BYTE		N01     Gs4 
	BYTE	W01
	BYTE		        Gs3 
	BYTE		N01     Gs4 
	BYTE	W24
	BYTE	W02
PaperMarioTTYDDooplissSme_15_B1:
// 001   ----------------------------------------
	BYTE	W96
// 002   ----------------------------------------
	BYTE	W96
// 003   ----------------------------------------
	BYTE	W96
// 004   ----------------------------------------
PaperMarioTTYDDooplissSme_15_004:
	BYTE	W48
	BYTE		N01     Gs3   v108
	BYTE		N01     Gs4 
	BYTE	W01
	BYTE		        Gs3 
	BYTE		N01     Gs4 
	BYTE	W02
	BYTE		        Gs3 
	BYTE		N01     Gs4 
	BYTE	W01
	BYTE		        Gs3 
	BYTE		N01     Gs4 
	BYTE	W02
	BYTE		        Gs3 
	BYTE		N01     Gs4 
	BYTE	W01
	BYTE		        Gs3 
	BYTE		N01     Gs4 
	BYTE	W02
	BYTE		        Gs3 
	BYTE		N01     Gs4 
	BYTE	W01
	BYTE		        Gs3 
	BYTE		N01     Gs4 
	BYTE	W02
	BYTE		        Gs3 
	BYTE		N01     Gs4 
	BYTE	W01
	BYTE		        Gs3 
	BYTE		N01     Gs4 
	BYTE	W02
	BYTE		        Gs3 
	BYTE		N01     Gs4 
	BYTE	W01
	BYTE		        Gs3 
	BYTE		N01     Gs4 
	BYTE	W02
	BYTE		        Gs3   v060
	BYTE		N01     Gs4 
	BYTE	W01
	BYTE		        Gs3 
	BYTE		N01     Gs4 
	BYTE	W02
	BYTE		        Gs3 
	BYTE		N01     Gs4 
	BYTE	W01
	BYTE		        Gs3 
	BYTE		N01     Gs4 
	BYTE	W02
	BYTE		        Gs3   v076
	BYTE		N01     Gs4 
	BYTE	W01
	BYTE		        Gs3 
	BYTE		N01     Gs4 
	BYTE	W02
	BYTE		        Gs3 
	BYTE		N01     Gs4 
	BYTE	W01
	BYTE		        Gs3 
	BYTE		N01     Gs4 
	BYTE	W02
	BYTE		        Gs3 
	BYTE		N01     Gs4 
	BYTE	W01
	BYTE		        Gs3 
	BYTE		N01     Gs4 
	BYTE	W02
	BYTE		        Gs3   v092
	BYTE		N01     Gs4 
	BYTE	W01
	BYTE		        Gs3 
	BYTE		N01     Gs4 
	BYTE	W02
	BYTE		        Gs3 
	BYTE		N01     Gs4 
	BYTE	W01
	BYTE		        Gs3   v108
	BYTE		N01     Gs4 
	BYTE	W02
	BYTE		        Gs3 
	BYTE		N01     Gs4 
	BYTE	W01
	BYTE		        Gs3 
	BYTE		N01     Gs4 
	BYTE	W02
	BYTE		        Gs3 
	BYTE		N01     Gs4 
	BYTE	W01
	BYTE		        Gs3 
	BYTE		N01     Gs4 
	BYTE	W02
	BYTE		        Gs3 
	BYTE		N01     Gs4 
	BYTE	W01
	BYTE		        Gs3 
	BYTE		N01     Gs4 
	BYTE	W02
	BYTE	PEND
// 005   ----------------------------------------
	BYTE	W96
// 006   ----------------------------------------
	BYTE	W96
// 007   ----------------------------------------
	BYTE	W96
// 008   ----------------------------------------
	BYTE	W96
// 009   ----------------------------------------
	BYTE	W96
// 010   ----------------------------------------
PaperMarioTTYDDooplissSme_15_010:
	BYTE		N11     An1   v092
	BYTE	W06
	BYTE		N05     En3   v112
	BYTE	W06
	BYTE		N11     Cn2   v092
	BYTE		N11     An3   v112
	BYTE	W12
	BYTE		        Bn1   v092
	BYTE		N05     En3   v112
	BYTE	W06
	BYTE		        Ds3 
	BYTE	W06
	BYTE		N11     An1   v092
	BYTE		N05     En3   v112
	BYTE	W06
	BYTE		        Cn3 
	BYTE	W06
	BYTE		N11     Dn2   v092
	BYTE		N05     An3   v112
	BYTE	W06
	BYTE		        Gs3 
	BYTE	W06
	BYTE		N11     Fs2   v092
	BYTE		N05     An3   v112
	BYTE	W12
	BYTE		N11     Gs2   v092
	BYTE		N05     Bn3   v112
	BYTE	W06
	BYTE		        An3 
	BYTE	W06
	BYTE		N11     Fn2   v092
	BYTE		N05     Bn3   v112
	BYTE	W12
	BYTE	PEND
// 011   ----------------------------------------
PaperMarioTTYDDooplissSme_15_011:
	BYTE		N11     Fs2   v092
	BYTE		N05     Cn4   v112
	BYTE	W06
	BYTE		        Bn3 
	BYTE	W06
	BYTE		N11     Dn2   v092
	BYTE		N05     Cn4   v112
	BYTE	W12
	BYTE		N11     Ds2   v092
	BYTE		N05     Bn3   v112
	BYTE	W06
	BYTE		        An3 
	BYTE	W06
	BYTE		N11     Bn1   v092
	BYTE		N05     Bn3   v112
	BYTE	W12
	BYTE		N11     En1   v092
	BYTE		N05     An3   v112
	BYTE	W06
	BYTE		        Gs3 
	BYTE	W06
	BYTE		N11     Cn1   v092
	BYTE		N05     An3   v112
	BYTE	W12
	BYTE		N11     Ds1   v092
	BYTE		N05     Fn3   v112
	BYTE	W06
	BYTE		        En3 
	BYTE	W06
	BYTE		N11     Cn1   v092
	BYTE		N05     Ds3   v112
	BYTE	W06
	BYTE		        En3 
	BYTE	W06
	BYTE	PEND
// 012   ----------------------------------------
PaperMarioTTYDDooplissSme_15_012:
	BYTE		N11     An1   v092
	BYTE	W06
	BYTE		N05     En3   v112
	BYTE	W06
	BYTE		N11     Cn2   v092
	BYTE		N11     An3   v112
	BYTE	W12
	BYTE		        Bn1   v092
	BYTE		N05     En3   v112
	BYTE	W06
	BYTE		        Ds3 
	BYTE	W06
	BYTE		N11     An1   v092
	BYTE		N05     En3   v112
	BYTE	W06
	BYTE		        Cn3 
	BYTE	W06
	BYTE		N11     As1   v092
	BYTE		N05     Cs3   v112
	BYTE	W06
	BYTE		        Ds3 
	BYTE	W06
	BYTE		N11     Cn2   v092
	BYTE		N05     En3   v112
	BYTE	W06
	BYTE		        Gn3 
	BYTE	W06
	BYTE		N11     Dn2   v092
	BYTE		N05     Fn3   v112
	BYTE	W06
	BYTE		        Dn3 
	BYTE	W06
	BYTE		N11     Fn2   v092
	BYTE		N05     An3   v112
	BYTE	W06
	BYTE		        Fn3 
	BYTE	W06
	BYTE	PEND
// 013   ----------------------------------------
PaperMarioTTYDDooplissSme_15_013:
	BYTE		N11     As1   v092
	BYTE		N05     Gn3   v112
	BYTE	W06
	BYTE		        En3 
	BYTE	W06
	BYTE		N11     An1   v092
	BYTE		N05     Fn3   v112
	BYTE	W06
	BYTE		        Dn3 
	BYTE	W06
	BYTE		N11     Gn1   v092
	BYTE		N05     En3   v112
	BYTE	W06
	BYTE		        Cs3 
	BYTE	W06
	BYTE		N11     Fs1   v092
	BYTE		N05     Dn3   v112
	BYTE	W06
	BYTE		        Bn2 
	BYTE	W06
	BYTE		N11     En1   v092
	BYTE		N05     Cs3   v112
	BYTE	W06
	BYTE		        An2 
	BYTE		N05     An4 
	BYTE	W06
	BYTE		N11     Ds1   v092
	BYTE		N05     Fn2   v112
	BYTE		N11     Bn4 
	BYTE	W06
	BYTE		N05     Gn2 
	BYTE	W06
	BYTE		N20     En1   v092
	BYTE		N05     En2   v112
	BYTE		N11     An4 
	BYTE	W06
	BYTE		N05     Fn2 
	BYTE	W06
	BYTE		        Dn2 
	BYTE		N05     Gs4 
	BYTE	W06
	BYTE		        Bn4 
	BYTE	W06
	BYTE	PEND
// 014   ----------------------------------------
	BYTE	PATT
	 POIN2	PaperMarioTTYDDooplissSme_15_010
// 015   ----------------------------------------
	BYTE	PATT
	 POIN2	PaperMarioTTYDDooplissSme_15_011
// 016   ----------------------------------------
PaperMarioTTYDDooplissSme_15_016:
	BYTE		N11     An1   v092
	BYTE	W06
	BYTE		N05     En3   v112
	BYTE	W06
	BYTE		N11     Cn2   v092
	BYTE		N11     An3   v112
	BYTE	W12
	BYTE		        Bn1   v092
	BYTE		N05     En3   v112
	BYTE	W06
	BYTE		        Ds3 
	BYTE	W06
	BYTE		N11     An1   v092
	BYTE		N05     En3   v112
	BYTE	W06
	BYTE		        Bn3 
	BYTE	W06
	BYTE		N11     As1   v092
	BYTE	W06
	BYTE		        An3   v112
	BYTE	W06
	BYTE		        Cn2   v092
	BYTE	W12
	BYTE		        Dn2 
	BYTE	W06
	BYTE		N05     Bn3   v112
	BYTE	W06
	BYTE		N11     Fn2   v092
	BYTE		N05     An3   v112
	BYTE	W12
	BYTE	PEND
// 017   ----------------------------------------
PaperMarioTTYDDooplissSme_15_017:
	BYTE		N05     Bn3   v112
	BYTE	W06
	BYTE		        Dn2 
	BYTE	W06
	BYTE		        Fn2 
	BYTE	W06
	BYTE		        Gs2 
	BYTE	W06
	BYTE		        Bn3 
	BYTE	W06
	BYTE		        Gs2 
	BYTE	W06
	BYTE		        Fn2 
	BYTE	W06
	BYTE		        Dn2 
	BYTE	W06
	BYTE		        Bn3 
	BYTE	W06
	BYTE		        Gs3 
	BYTE	W06
	BYTE		        Fn3 
	BYTE	W06
	BYTE		        Dn3 
	BYTE	W06
	BYTE		        Bn1 
	BYTE	W06
	BYTE		        Gs1 
	BYTE	W06
	BYTE		        Fn1 
	BYTE	W06
	BYTE		        Dn1 
	BYTE	W06
	BYTE	PEND
// 018   ----------------------------------------
	BYTE	W96
// 019   ----------------------------------------
	BYTE	W96
// 020   ----------------------------------------
	BYTE	W96
// 021   ----------------------------------------
	BYTE	W96
// 022   ----------------------------------------
	BYTE	W96
// 023   ----------------------------------------
	BYTE	W96
// 024   ----------------------------------------
	BYTE	W96
// 025   ----------------------------------------
PaperMarioTTYDDooplissSme_15_025:
	BYTE	W48
	BYTE		N01     Gs3   v048
	BYTE		N01     Gs4 
	BYTE	W01
	BYTE		        Gs3 
	BYTE		N01     Gs4 
	BYTE	W02
	BYTE		        Gs3 
	BYTE		N01     Gs4 
	BYTE	W01
	BYTE		        Gs3 
	BYTE		N01     Gs4 
	BYTE	W02
	BYTE		        Gs3 
	BYTE		N01     Gs4 
	BYTE	W01
	BYTE		        Gs3 
	BYTE		N01     Gs4 
	BYTE	W02
	BYTE		        Gs3 
	BYTE		N01     Gs4 
	BYTE	W01
	BYTE		        Gs3 
	BYTE		N01     Gs4 
	BYTE	W02
	BYTE		        Gs3 
	BYTE		N01     Gs4 
	BYTE	W01
	BYTE		        Gs3 
	BYTE		N01     Gs4 
	BYTE	W02
	BYTE		        Gs3 
	BYTE		N01     Gs4 
	BYTE	W01
	BYTE		        Gs3 
	BYTE		N01     Gs4 
	BYTE	W02
	BYTE		        Gs3   v060
	BYTE		N01     Gs4 
	BYTE	W01
	BYTE		        Gs3 
	BYTE		N01     Gs4 
	BYTE	W02
	BYTE		        Gs3 
	BYTE		N01     Gs4 
	BYTE	W01
	BYTE		        Gs3 
	BYTE		N01     Gs4 
	BYTE	W02
	BYTE		        Gs3   v076
	BYTE		N01     Gs4 
	BYTE	W01
	BYTE		        Gs3 
	BYTE		N01     Gs4 
	BYTE	W02
	BYTE		        Gs3 
	BYTE		N01     Gs4 
	BYTE	W01
	BYTE		        Gs3 
	BYTE		N01     Gs4 
	BYTE	W02
	BYTE		        Gs3 
	BYTE		N01     Gs4 
	BYTE	W01
	BYTE		        Gs3 
	BYTE		N01     Gs4 
	BYTE	W02
	BYTE		        Gs3   v092
	BYTE		N01     Gs4 
	BYTE	W01
	BYTE		        Gs3 
	BYTE		N01     Gs4 
	BYTE	W02
	BYTE		        Gs3 
	BYTE		N01     Gs4 
	BYTE	W01
	BYTE		        Gs3   v108
	BYTE		N01     Gs4 
	BYTE	W02
	BYTE		        Gs3 
	BYTE		N01     Gs4 
	BYTE	W01
	BYTE		        Gs3 
	BYTE		N01     Gs4 
	BYTE	W02
	BYTE		        Gs3 
	BYTE		N01     Gs4 
	BYTE	W01
	BYTE		        Gs3 
	BYTE		N01     Gs4 
	BYTE	W02
	BYTE		        Gs3 
	BYTE		N01     Gs4 
	BYTE	W01
	BYTE		        Gs3 
	BYTE		N01     Gs4 
	BYTE	W02
	BYTE	PEND
// 026   ----------------------------------------
	BYTE	W96
// 027   ----------------------------------------
	BYTE	W96
// 028   ----------------------------------------
	BYTE	PATT
	 POIN2	PaperMarioTTYDDooplissSme_15_025
// 029   ----------------------------------------
	BYTE	W96
// 030   ----------------------------------------
	BYTE	W96
// 031   ----------------------------------------
	BYTE	W96
// 032   ----------------------------------------
	BYTE	W96
// 033   ----------------------------------------
	BYTE	PATT
	 POIN2	PaperMarioTTYDDooplissSme_15_004
// 034   ----------------------------------------
	BYTE	W96
// 035   ----------------------------------------
	BYTE	W96
// 036   ----------------------------------------
	BYTE	W96
// 037   ----------------------------------------
	BYTE	W96
// 038   ----------------------------------------
	BYTE	W96
// 039   ----------------------------------------
	BYTE	PATT
	 POIN2	PaperMarioTTYDDooplissSme_15_010
// 040   ----------------------------------------
	BYTE	PATT
	 POIN2	PaperMarioTTYDDooplissSme_15_011
// 041   ----------------------------------------
	BYTE	PATT
	 POIN2	PaperMarioTTYDDooplissSme_15_012
// 042   ----------------------------------------
	BYTE	PATT
	 POIN2	PaperMarioTTYDDooplissSme_15_013
// 043   ----------------------------------------
	BYTE	PATT
	 POIN2	PaperMarioTTYDDooplissSme_15_010
// 044   ----------------------------------------
	BYTE	PATT
	 POIN2	PaperMarioTTYDDooplissSme_15_011
// 045   ----------------------------------------
	BYTE	PATT
	 POIN2	PaperMarioTTYDDooplissSme_15_016
// 046   ----------------------------------------
	BYTE	PATT
	 POIN2	PaperMarioTTYDDooplissSme_15_017
// 047   ----------------------------------------
	BYTE	W96
// 048   ----------------------------------------
	BYTE	W96
// 049   ----------------------------------------
	BYTE	W96
// 050   ----------------------------------------
	BYTE	W96
// 051   ----------------------------------------
	BYTE	W96
// 052   ----------------------------------------
	BYTE	W96
// 053   ----------------------------------------
	BYTE	W96
// 054   ----------------------------------------
	BYTE	PATT
	 POIN2	PaperMarioTTYDDooplissSme_15_025
// 055   ----------------------------------------
	BYTE	W96
// 056   ----------------------------------------
	BYTE	W96
// 057   ----------------------------------------
	BYTE	PATT
	 POIN2	PaperMarioTTYDDooplissSme_15_025
// 058   ----------------------------------------
	BYTE	W96
// 059   ----------------------------------------
	BYTE	W18
	BYTE	GoTo
	 POIN2	PaperMarioTTYDDooplissSme_15_B1
PaperMarioTTYDDooplissSme_15_B2:
	BYTE	FINE

//******************************************************//
	ALIGN 4

PaperMarioTTYDDooplissSme:
	BYTE	15	// NumTrks
	BYTE	0	// NumBlks
	BYTE	PaperMarioTTYDDooplissSme_pri	// Priority
	BYTE	PaperMarioTTYDDooplissSme_rev	// Reverb.

	POIN2	PaperMarioTTYDDooplissSme_grp

	POIN2	PaperMarioTTYDDooplissSme_1
	POIN2	PaperMarioTTYDDooplissSme_2
	POIN2	PaperMarioTTYDDooplissSme_3
	POIN2	PaperMarioTTYDDooplissSme_4
	POIN2	PaperMarioTTYDDooplissSme_5
	POIN2	PaperMarioTTYDDooplissSme_6
	POIN2	PaperMarioTTYDDooplissSme_7
	POIN2	PaperMarioTTYDDooplissSme_8
	POIN2	PaperMarioTTYDDooplissSme_9
	POIN2	PaperMarioTTYDDooplissSme_10
	POIN2	PaperMarioTTYDDooplissSme_11
	POIN2	PaperMarioTTYDDooplissSme_12
	POIN2	PaperMarioTTYDDooplissSme_13
	POIN2	PaperMarioTTYDDooplissSme_14
	POIN2	PaperMarioTTYDDooplissSme_15

	
