//Event file generated from Sappy .s format.
	#include "MPlayDef.event"

	#define	PaperMarioVsTutankoopaDolkar_grp  voicegroup000
	#define	PaperMarioVsTutankoopaDolkar_pri  0
	#define	PaperMarioVsTutankoopaDolkar_rev  0
	#define	PaperMarioVsTutankoopaDolkar_mvl  127
	#define	PaperMarioVsTutankoopaDolkar_key  0
	#define	PaperMarioVsTutankoopaDolkar_tbs  1
	#define	PaperMarioVsTutankoopaDolkar_exg  0
	#define	PaperMarioVsTutankoopaDolkar_cmp  1

	// .rodata
	//	PaperMarioVsTutankoopaDolkar
	ALIGN 4


//**************** Track 1 (Midi-Chn.0) ****************//

PaperMarioVsTutankoopaDolkar_001:
// 000   ----------------------------------------
 BYTE   KEYSH   PaperMarioVsTutankoopaDolkar_key+0
Label_0_0190DFC2:
 BYTE   TEMPO   120*PaperMarioVsTutankoopaDolkar_tbs/2
 BYTE   VOICE   104
 BYTE   VOL   80*PaperMarioVsTutankoopaDolkar_mvl/mxv
 BYTE   PAN   c_v+0
 BYTE   N96  Gs1  v100
 BYTE   N96  Cs2
 BYTE   W48
 BYTE   W48
// 001   ----------------------------------------
 BYTE   TEMPO   130*PaperMarioVsTutankoopaDolkar_tbs/2
 BYTE   N03  Cs3
 BYTE   W06
 BYTE   Dn3
 BYTE   W06
 BYTE   En3
 BYTE   W12
 BYTE   Dn3
 BYTE   W06
 BYTE   Cs3
 BYTE   W06
 BYTE   As2
 BYTE   W06
 BYTE   Gn2
 BYTE   W06
 BYTE   N48  Fs2
 BYTE   W48
// 002   ----------------------------------------
 BYTE   W48
 BYTE   W48
// 003   ----------------------------------------
Label_0_0190DFE7:
 BYTE   N03  Gs3  v100
 BYTE   W06
 BYTE   N03
 BYTE   W06
 BYTE   Gn3
 BYTE   W06
 BYTE   Gs3
 BYTE   W06
 BYTE   En3
 BYTE   W06
 BYTE   Cs3
 BYTE   W06
 BYTE   N48  Gs2
 BYTE   W12
 BYTE   PEND 
 BYTE   W48
// 004   ----------------------------------------
Label_0_0190DFFA:
 BYTE   W24
 BYTE   N03  Gs3  v100
 BYTE   W06
 BYTE   N03
 BYTE   W06
 BYTE   Gn3
 BYTE   W06
 BYTE   Gs3
 BYTE   W06
 BYTE   PEND 
Label_0_0190E006:
 BYTE   N03  En3  v100
 BYTE   W12
 BYTE   Cs3
 BYTE   W12
 BYTE   N24  Gs2
 BYTE   W24
 BYTE   PEND 
// 005   ----------------------------------------
 BYTE   N96  Gn2
 BYTE   W48
 BYTE   W48
// 006   ----------------------------------------
 BYTE   N03  Gs2
 BYTE   W48
 BYTE   W48
// 007   ----------------------------------------
 BYTE   N88  Gn2
 BYTE   W48
 BYTE   W42
 BYTE   N03  An2
 BYTE   W06
// 008   ----------------------------------------
 BYTE   Gs2
 BYTE   W48
 BYTE   W48
// 009   ----------------------------------------
Label_0_0190E022:
 BYTE   N06  En3  v100
 BYTE   W18
 BYTE   Cs3
 BYTE   W18
 BYTE   Gs2
 BYTE   W12
 BYTE   PEND 
 BYTE   W36
 BYTE   Gn2
 BYTE   W12
// 010   ----------------------------------------
 BYTE   W36
 BYTE   Gs2
 BYTE   W12
 BYTE   W48
// 011   ----------------------------------------
Label_0_0190E032:
 BYTE   N03  Cs3  v100
 BYTE   W06
 BYTE   Dn3
 BYTE   W06
 BYTE   En3
 BYTE   W12
 BYTE   Dn3
 BYTE   W06
 BYTE   Cs3
 BYTE   W06
 BYTE   As2
 BYTE   W06
 BYTE   Gn2
 BYTE   W06
 BYTE   PEND 
 BYTE   N48  Fs2
 BYTE   W48
// 012   ----------------------------------------
 BYTE   W48
 BYTE   W48
 BYTE   PATT
  POIN2 Label_0_0190DFE7
// 013   ----------------------------------------
 BYTE   W48
 BYTE   PATT
  POIN2 Label_0_0190DFFA
 BYTE   PATT
  POIN2 Label_0_0190E006
// 014   ----------------------------------------
 BYTE   N96  Gn2  v100
 BYTE   W48
 BYTE   W48
// 015   ----------------------------------------
 BYTE   N03  Gs2
 BYTE   W48
 BYTE   W48
// 016   ----------------------------------------
 BYTE   N88  Gn2
 BYTE   W48
 BYTE   W42
 BYTE   N03  An2
 BYTE   W06
// 017   ----------------------------------------
 BYTE   Gs2
 BYTE   W48
 BYTE   W48
 BYTE   PATT
  POIN2 Label_0_0190E022
// 018   ----------------------------------------
 BYTE   W36
 BYTE   N06  Gn2  v100
 BYTE   W12
 BYTE   W36
 BYTE   Gs2
 BYTE   W12
// 019   ----------------------------------------
 BYTE   W48
 BYTE   PATT
  POIN2 Label_0_0190E032
// 020   ----------------------------------------
 BYTE   N48  Fs2  v100
 BYTE   W48
 BYTE   W48
// 021   ----------------------------------------
 BYTE   W48
 BYTE   PATT
  POIN2 Label_0_0190DFE7
// 022   ----------------------------------------
 BYTE   W48
 BYTE   PATT
  POIN2 Label_0_0190DFFA
 BYTE   PATT
  POIN2 Label_0_0190E006
// 023   ----------------------------------------
 BYTE   N96  Gn2  v100
 BYTE   W48
 BYTE   W48
// 024   ----------------------------------------
 BYTE   N03  Gs2
 BYTE   W48
 BYTE   W48
// 025   ----------------------------------------
 BYTE   N88  Gn2
 BYTE   W48
 BYTE   W42
 BYTE   N03  An2
 BYTE   W06
// 026   ----------------------------------------
 BYTE   Gs2
 BYTE   W48
 BYTE   W48
 BYTE   PATT
  POIN2 Label_0_0190E022
// 027   ----------------------------------------
 BYTE   W36
 BYTE   N06  Gn2  v100
 BYTE   W12
 BYTE   W36
 BYTE   Gs2
 BYTE   W12
// 028   ----------------------------------------
 BYTE   W48
 BYTE   PATT
  POIN2 Label_0_0190E032
// 029   ----------------------------------------
 BYTE   N48  Fs2  v100
 BYTE   W48
 BYTE   W48
// 030   ----------------------------------------
 BYTE   W48
 BYTE   PATT
  POIN2 Label_0_0190DFE7
// 031   ----------------------------------------
 BYTE   W48
 BYTE   PATT
  POIN2 Label_0_0190DFFA
 BYTE   PATT
  POIN2 Label_0_0190E006
// 032   ----------------------------------------
 BYTE   N96  Gn2  v100
 BYTE   W48
 BYTE   W48
// 033   ----------------------------------------
 BYTE   N03  Gs2
 BYTE   W48
 BYTE   W48
// 034   ----------------------------------------
 BYTE   N88  Gn2
 BYTE   W48
 BYTE   W42
 BYTE   N03  An2
 BYTE   W06
// 035   ----------------------------------------
 BYTE   Gs2
 BYTE   W48
 BYTE   W48
 BYTE   PATT
  POIN2 Label_0_0190E022
// 036   ----------------------------------------
 BYTE   W36
 BYTE   N06  Gn2  v100
 BYTE   W12
 BYTE   W36
 BYTE   Gs2
 BYTE   W12
// 037   ----------------------------------------
 BYTE   W48
 BYTE   W17
 BYTE   GoTo
  POIN2 Label_0_0190DFC2
// 038   ----------------------------------------
 BYTE   W01
 BYTE   FINE

//**************** Track 2 (Midi-Chn.1) ****************//

PaperMarioVsTutankoopaDolkar_002:
// 000   ----------------------------------------
 BYTE   KEYSH   PaperMarioVsTutankoopaDolkar_key+0
Label_1_0190E0FE:
 BYTE   VOICE   54
 BYTE   VOL   80*PaperMarioVsTutankoopaDolkar_mvl/mxv
 BYTE   PAN   c_v+0
 BYTE   N11  En3  v100
 BYTE   N12  En4
 BYTE   W18
 BYTE   N11  Cs3
 BYTE   N12  Cs4
 BYTE   W18
 BYTE   N11  Gs2
 BYTE   N12  Gs3
 BYTE   W12
 BYTE   W48
// 001   ----------------------------------------
 BYTE   W48
 BYTE   W48
// 002   ----------------------------------------
 BYTE   W48
 BYTE   W48
// 003   ----------------------------------------
 BYTE   W48
 BYTE   W48
// 004   ----------------------------------------
 BYTE   W48
 BYTE   W48
// 005   ----------------------------------------
 BYTE   W48
 BYTE   W48
// 006   ----------------------------------------
 BYTE   W48
 BYTE   W48
// 007   ----------------------------------------
 BYTE   W48
 BYTE   W48
// 008   ----------------------------------------
 BYTE   W48
 BYTE   W48
// 009   ----------------------------------------
Label_1_0190E125:
 BYTE   N11  En3  v100
 BYTE   N12  En4
 BYTE   W18
 BYTE   N11  Cs3
 BYTE   N12  Cs4
 BYTE   W18
 BYTE   N11  Gs2
 BYTE   N12  Gs3
 BYTE   W12
 BYTE   PEND 
Label_1_0190E136:
 BYTE   W36
 BYTE   N12  Gn2  v100
 BYTE   N12  Gn3
 BYTE   W12
 BYTE   PEND 
// 010   ----------------------------------------
Label_1_0190E13E:
 BYTE   W36
 BYTE   N12  Gs2  v100
 BYTE   N12  Gs3
 BYTE   W12
 BYTE   PEND 
 BYTE   W48
// 011   ----------------------------------------
 BYTE   W48
 BYTE   W48
// 012   ----------------------------------------
 BYTE   W48
 BYTE   W48
// 013   ----------------------------------------
 BYTE   W48
 BYTE   W48
// 014   ----------------------------------------
 BYTE   W48
 BYTE   W48
// 015   ----------------------------------------
 BYTE   W48
 BYTE   W48
// 016   ----------------------------------------
 BYTE   W48
 BYTE   W48
// 017   ----------------------------------------
 BYTE   W48
 BYTE   W48
// 018   ----------------------------------------
 BYTE   W48
 BYTE   W48
 BYTE   PATT
  POIN2 Label_1_0190E125
 BYTE   PATT
  POIN2 Label_1_0190E136
 BYTE   PATT
  POIN2 Label_1_0190E13E
// 019   ----------------------------------------
 BYTE   W48
 BYTE   W48
// 020   ----------------------------------------
 BYTE   W48
 BYTE   W48
// 021   ----------------------------------------
 BYTE   W48
 BYTE   W48
// 022   ----------------------------------------
 BYTE   W48
 BYTE   W48
// 023   ----------------------------------------
 BYTE   W48
 BYTE   W48
// 024   ----------------------------------------
 BYTE   W48
 BYTE   W48
// 025   ----------------------------------------
 BYTE   W48
 BYTE   W48
// 026   ----------------------------------------
 BYTE   W48
 BYTE   W48
// 027   ----------------------------------------
 BYTE   W48
 BYTE   PATT
  POIN2 Label_1_0190E125
 BYTE   PATT
  POIN2 Label_1_0190E136
 BYTE   PATT
  POIN2 Label_1_0190E13E
// 028   ----------------------------------------
 BYTE   W48
 BYTE   W48
// 029   ----------------------------------------
 BYTE   W48
 BYTE   W48
// 030   ----------------------------------------
 BYTE   W48
 BYTE   W48
// 031   ----------------------------------------
 BYTE   W48
 BYTE   W48
// 032   ----------------------------------------
 BYTE   W48
 BYTE   W48
// 033   ----------------------------------------
 BYTE   W48
 BYTE   W48
// 034   ----------------------------------------
 BYTE   W48
 BYTE   W48
// 035   ----------------------------------------
 BYTE   W48
 BYTE   W48
// 036   ----------------------------------------
 BYTE   W48
 BYTE   PATT
  POIN2 Label_1_0190E125
 BYTE   PATT
  POIN2 Label_1_0190E136
 BYTE   PATT
  POIN2 Label_1_0190E13E
// 037   ----------------------------------------
 BYTE   W48
 BYTE   W17
 BYTE   GoTo
  POIN2 Label_1_0190E0FE
// 038   ----------------------------------------
 BYTE   W01
 BYTE   FINE

//**************** Track 3 (Midi-Chn.2) ****************//

PaperMarioVsTutankoopaDolkar_003:
// 000   ----------------------------------------
 BYTE   KEYSH   PaperMarioVsTutankoopaDolkar_key+0
Label_2_0190E1B2:
 BYTE   VOICE   71
 BYTE   VOL   80*PaperMarioVsTutankoopaDolkar_mvl/mxv
 BYTE   PAN   c_v+0
 BYTE   W48
 BYTE   W48
// 001   ----------------------------------------
 BYTE   W48
 BYTE   W48
// 002   ----------------------------------------
 BYTE   W48
 BYTE   W48
// 003   ----------------------------------------
 BYTE   W48
 BYTE   W48
// 004   ----------------------------------------
 BYTE   W48
 BYTE   W48
// 005   ----------------------------------------
 BYTE   W48
 BYTE   W48
// 006   ----------------------------------------
Label_2_0190E1C4:
 BYTE   W12
 BYTE   N06  Cs4  v100
 BYTE   N06  En4
 BYTE   W06
 BYTE   Cs4
 BYTE   N06  En4
 BYTE   W18
 BYTE   Cs4
 BYTE   N06  En4
 BYTE   W06
 BYTE   Cs4
 BYTE   N06  En4
 BYTE   W06
 BYTE   PEND 
Label_2_0190E1D8:
 BYTE   W12
 BYTE   N06  Cs4  v100
 BYTE   N06  En4
 BYTE   W06
 BYTE   Cs4
 BYTE   N06  En4
 BYTE   W30
 BYTE   PEND 
// 007   ----------------------------------------
 BYTE   W48
 BYTE   W48
 BYTE   PATT
  POIN2 Label_2_0190E1C4
 BYTE   PATT
  POIN2 Label_2_0190E1D8
// 008   ----------------------------------------
 BYTE   W48
 BYTE   W48
// 009   ----------------------------------------
 BYTE   W48
 BYTE   W48
// 010   ----------------------------------------
 BYTE   W48
 BYTE   W48
// 011   ----------------------------------------
 BYTE   W48
 BYTE   W48
// 012   ----------------------------------------
 BYTE   W48
 BYTE   W48
// 013   ----------------------------------------
 BYTE   W48
 BYTE   W48
// 014   ----------------------------------------
 BYTE   W48
 BYTE   W48
 BYTE   PATT
  POIN2 Label_2_0190E1C4
 BYTE   PATT
  POIN2 Label_2_0190E1D8
// 015   ----------------------------------------
 BYTE   W48
 BYTE   W48
 BYTE   PATT
  POIN2 Label_2_0190E1C4
 BYTE   PATT
  POIN2 Label_2_0190E1D8
// 016   ----------------------------------------
 BYTE   W48
 BYTE   W48
// 017   ----------------------------------------
 BYTE   W48
 BYTE   W48
// 018   ----------------------------------------
 BYTE   W48
 BYTE   W48
// 019   ----------------------------------------
 BYTE   W48
 BYTE   W48
// 020   ----------------------------------------
 BYTE   W48
 BYTE   W48
// 021   ----------------------------------------
 BYTE   W48
 BYTE   W48
// 022   ----------------------------------------
 BYTE   W48
 BYTE   W48
 BYTE   PATT
  POIN2 Label_2_0190E1C4
 BYTE   PATT
  POIN2 Label_2_0190E1D8
// 023   ----------------------------------------
 BYTE   W48
 BYTE   W48
 BYTE   PATT
  POIN2 Label_2_0190E1C4
 BYTE   PATT
  POIN2 Label_2_0190E1D8
// 024   ----------------------------------------
 BYTE   W48
 BYTE   W48
// 025   ----------------------------------------
 BYTE   W48
 BYTE   W48
// 026   ----------------------------------------
 BYTE   W48
 BYTE   W48
// 027   ----------------------------------------
 BYTE   W48
 BYTE   W48
// 028   ----------------------------------------
 BYTE   W48
 BYTE   W48
// 029   ----------------------------------------
 BYTE   W48
 BYTE   W48
// 030   ----------------------------------------
 BYTE   W48
 BYTE   W48
 BYTE   PATT
  POIN2 Label_2_0190E1C4
 BYTE   PATT
  POIN2 Label_2_0190E1D8
// 031   ----------------------------------------
 BYTE   W48
 BYTE   W48
 BYTE   PATT
  POIN2 Label_2_0190E1C4
 BYTE   PATT
  POIN2 Label_2_0190E1D8
// 032   ----------------------------------------
 BYTE   W48
 BYTE   W48
// 033   ----------------------------------------
 BYTE   W48
 BYTE   W48
// 034   ----------------------------------------
 BYTE   W17
 BYTE   GoTo
  POIN2 Label_2_0190E1B2
// 035   ----------------------------------------
 BYTE   W01
 BYTE   FINE

//**************** Track 4 (Midi-Chn.3) ****************//

PaperMarioVsTutankoopaDolkar_004:
// 000   ----------------------------------------
 BYTE   KEYSH   PaperMarioVsTutankoopaDolkar_key+0
Label_3_0190E26A:
 BYTE   VOICE   68
 BYTE   VOL   47*PaperMarioVsTutankoopaDolkar_mvl/mxv
 BYTE   PAN   c_v+0
 BYTE   N96  Gs2  v100
 BYTE   N96  Cs3
 BYTE   W48
 BYTE   W48
// 001   ----------------------------------------
 BYTE   W48
Label_3_0190E278:
 BYTE   N11  Cs3  v100
 BYTE   W12
 BYTE   N12  En3
 BYTE   W12
 BYTE   N06  Dn3
 BYTE   W06
 BYTE   Cs3
 BYTE   W06
 BYTE   As2
 BYTE   W06
 BYTE   Gn2
 BYTE   W06
 BYTE   PEND 
// 002   ----------------------------------------
 BYTE   N96  Fs2
 BYTE   W48
 BYTE   W48
// 003   ----------------------------------------
 BYTE   W48
Label_3_0190E28E:
 BYTE   N17  Gs3  v100
 BYTE   W18
 BYTE   N06  Gn3
 BYTE   W06
 BYTE   Gs3
 BYTE   W06
 BYTE   En3
 BYTE   W06
 BYTE   Cs3
 BYTE   W06
 BYTE   TIE  Gs2
 BYTE   W06
 BYTE   PEND 
// 004   ----------------------------------------
 BYTE   W48
 BYTE   W48
// 005   ----------------------------------------
 BYTE   EOT
Label_3_0190E2A2:
 BYTE   N96  Gn2  v100
 BYTE   N96  Cs3
 BYTE   N96  En3
 BYTE   W48
 BYTE   PEND 
 BYTE   W48
// 006   ----------------------------------------
Label_3_0190E2AC:
 BYTE   N11  Gs2  v100
 BYTE   N11  Cs3
 BYTE   N11  En3
 BYTE   W48
 BYTE   PEND 
 BYTE   W48
 BYTE   PATT
  POIN2 Label_3_0190E2A2
// 007   ----------------------------------------
 BYTE   W48
 BYTE   PATT
  POIN2 Label_3_0190E2AC
// 008   ----------------------------------------
 BYTE   W48
Label_3_0190E2C2:
 BYTE   N17  En3  v100
 BYTE   W18
 BYTE   N18  Cs3
 BYTE   W18
 BYTE   N48  Gs2
 BYTE   W12
 BYTE   PEND 
// 009   ----------------------------------------
 BYTE   W36
 BYTE   Gn2
 BYTE   W12
 BYTE   W36
 BYTE   N60  Gs2
 BYTE   W12
// 010   ----------------------------------------
 BYTE   W48
 BYTE   W48
 BYTE   PATT
  POIN2 Label_3_0190E278
// 011   ----------------------------------------
 BYTE   N96  Fs2  v100
 BYTE   W48
 BYTE   W48
// 012   ----------------------------------------
 BYTE   W48
 BYTE   PATT
  POIN2 Label_3_0190E28E
// 013   ----------------------------------------
 BYTE   W48
 BYTE   W48
// 014   ----------------------------------------
 BYTE   EOT
 BYTE   Gs2
 BYTE   PATT
  POIN2 Label_3_0190E2A2
// 015   ----------------------------------------
 BYTE   W48
 BYTE   PATT
  POIN2 Label_3_0190E2AC
// 016   ----------------------------------------
 BYTE   W48
 BYTE   PATT
  POIN2 Label_3_0190E2A2
// 017   ----------------------------------------
 BYTE   W48
 BYTE   PATT
  POIN2 Label_3_0190E2AC
// 018   ----------------------------------------
 BYTE   W48
 BYTE   PATT
  POIN2 Label_3_0190E2C2
// 019   ----------------------------------------
 BYTE   W36
 BYTE   N48  Gn2  v100
 BYTE   W12
 BYTE   W36
 BYTE   N60  Gs2
 BYTE   W12
// 020   ----------------------------------------
 BYTE   W48
 BYTE   W48
 BYTE   PATT
  POIN2 Label_3_0190E278
// 021   ----------------------------------------
 BYTE   N96  Fs2  v100
 BYTE   W48
 BYTE   W48
// 022   ----------------------------------------
 BYTE   W48
 BYTE   PATT
  POIN2 Label_3_0190E28E
// 023   ----------------------------------------
 BYTE   W48
 BYTE   W48
// 024   ----------------------------------------
 BYTE   EOT
 BYTE   Gs2
 BYTE   PATT
  POIN2 Label_3_0190E2A2
// 025   ----------------------------------------
 BYTE   W48
 BYTE   PATT
  POIN2 Label_3_0190E2AC
// 026   ----------------------------------------
 BYTE   W48
 BYTE   PATT
  POIN2 Label_3_0190E2A2
// 027   ----------------------------------------
 BYTE   W48
 BYTE   PATT
  POIN2 Label_3_0190E2AC
// 028   ----------------------------------------
 BYTE   W48
 BYTE   PATT
  POIN2 Label_3_0190E2C2
// 029   ----------------------------------------
 BYTE   W36
 BYTE   N48  Gn2  v100
 BYTE   W12
 BYTE   W36
 BYTE   N60  Gs2
 BYTE   W12
// 030   ----------------------------------------
 BYTE   W48
 BYTE   W48
 BYTE   PATT
  POIN2 Label_3_0190E278
// 031   ----------------------------------------
 BYTE   N96  Fs2  v100
 BYTE   W48
 BYTE   W48
// 032   ----------------------------------------
 BYTE   W48
 BYTE   PATT
  POIN2 Label_3_0190E28E
// 033   ----------------------------------------
 BYTE   W48
 BYTE   W48
// 034   ----------------------------------------
 BYTE   EOT
 BYTE   Gs2
 BYTE   PATT
  POIN2 Label_3_0190E2A2
// 035   ----------------------------------------
 BYTE   W48
 BYTE   PATT
  POIN2 Label_3_0190E2AC
// 036   ----------------------------------------
 BYTE   W48
 BYTE   PATT
  POIN2 Label_3_0190E2A2
// 037   ----------------------------------------
 BYTE   W48
 BYTE   PATT
  POIN2 Label_3_0190E2AC
// 038   ----------------------------------------
 BYTE   W48
 BYTE   PATT
  POIN2 Label_3_0190E2C2
// 039   ----------------------------------------
 BYTE   W36
 BYTE   N48  Gn2  v100
 BYTE   W12
 BYTE   W36
 BYTE   N60  Gs2
 BYTE   W12
// 040   ----------------------------------------
 BYTE   W48
 BYTE   W17
 BYTE   GoTo
  POIN2 Label_3_0190E26A
// 041   ----------------------------------------
 BYTE   W01
 BYTE   FINE

//**************** Track 5 (Midi-Chn.4) ****************//

PaperMarioVsTutankoopaDolkar_005:
// 000   ----------------------------------------
 BYTE   KEYSH   PaperMarioVsTutankoopaDolkar_key+0
Label_4_0190E396:
 BYTE   VOICE   38
 BYTE   VOL   67*PaperMarioVsTutankoopaDolkar_mvl/mxv
 BYTE   PAN   c_v+0
 BYTE   N96  Gs1  v100
 BYTE   N96  Cs2
 BYTE   W48
 BYTE   W48
// 001   ----------------------------------------
Label_4_0190E3A3:
 BYTE   N12  Cs1  v100
 BYTE   W12
 BYTE   Cs2
 BYTE   W12
 BYTE   N06  Cs1
 BYTE   W06
 BYTE   Gs1
 BYTE   W12
 BYTE   N06
 BYTE   W06
 BYTE   PEND 
Label_4_0190E3B1:
 BYTE   N06  Cs1  v100
 BYTE   W12
 BYTE   En1
 BYTE   W12
 BYTE   Cs1
 BYTE   W12
 BYTE   En1
 BYTE   W12
 BYTE   PEND 
 BYTE   PATT
  POIN2 Label_4_0190E3A3
 BYTE   PATT
  POIN2 Label_4_0190E3B1
 BYTE   PATT
  POIN2 Label_4_0190E3A3
 BYTE   PATT
  POIN2 Label_4_0190E3B1
 BYTE   PATT
  POIN2 Label_4_0190E3A3
 BYTE   PATT
  POIN2 Label_4_0190E3B1
 BYTE   PATT
  POIN2 Label_4_0190E3A3
 BYTE   PATT
  POIN2 Label_4_0190E3B1
 BYTE   PATT
  POIN2 Label_4_0190E3A3
 BYTE   PATT
  POIN2 Label_4_0190E3B1
 BYTE   PATT
  POIN2 Label_4_0190E3A3
 BYTE   PATT
  POIN2 Label_4_0190E3B1
 BYTE   PATT
  POIN2 Label_4_0190E3A3
 BYTE   PATT
  POIN2 Label_4_0190E3B1
 BYTE   PATT
  POIN2 Label_4_0190E3A3
 BYTE   PATT
  POIN2 Label_4_0190E3B1
 BYTE   PATT
  POIN2 Label_4_0190E3A3
 BYTE   PATT
  POIN2 Label_4_0190E3B1
 BYTE   PATT
  POIN2 Label_4_0190E3A3
 BYTE   PATT
  POIN2 Label_4_0190E3B1
 BYTE   PATT
  POIN2 Label_4_0190E3A3
 BYTE   PATT
  POIN2 Label_4_0190E3B1
 BYTE   PATT
  POIN2 Label_4_0190E3A3
 BYTE   PATT
  POIN2 Label_4_0190E3B1
 BYTE   PATT
  POIN2 Label_4_0190E3A3
 BYTE   PATT
  POIN2 Label_4_0190E3B1
 BYTE   PATT
  POIN2 Label_4_0190E3A3
 BYTE   PATT
  POIN2 Label_4_0190E3B1
 BYTE   PATT
  POIN2 Label_4_0190E3A3
 BYTE   PATT
  POIN2 Label_4_0190E3B1
 BYTE   PATT
  POIN2 Label_4_0190E3A3
 BYTE   PATT
  POIN2 Label_4_0190E3B1
 BYTE   PATT
  POIN2 Label_4_0190E3A3
 BYTE   PATT
  POIN2 Label_4_0190E3B1
 BYTE   PATT
  POIN2 Label_4_0190E3A3
 BYTE   PATT
  POIN2 Label_4_0190E3B1
 BYTE   PATT
  POIN2 Label_4_0190E3A3
 BYTE   PATT
  POIN2 Label_4_0190E3B1
 BYTE   PATT
  POIN2 Label_4_0190E3A3
 BYTE   PATT
  POIN2 Label_4_0190E3B1
 BYTE   PATT
  POIN2 Label_4_0190E3A3
 BYTE   PATT
  POIN2 Label_4_0190E3B1
 BYTE   PATT
  POIN2 Label_4_0190E3A3
 BYTE   PATT
  POIN2 Label_4_0190E3B1
 BYTE   PATT
  POIN2 Label_4_0190E3A3
 BYTE   PATT
  POIN2 Label_4_0190E3B1
 BYTE   PATT
  POIN2 Label_4_0190E3A3
 BYTE   PATT
  POIN2 Label_4_0190E3B1
 BYTE   PATT
  POIN2 Label_4_0190E3A3
 BYTE   PATT
  POIN2 Label_4_0190E3B1
 BYTE   PATT
  POIN2 Label_4_0190E3A3
 BYTE   PATT
  POIN2 Label_4_0190E3B1
 BYTE   PATT
  POIN2 Label_4_0190E3A3
 BYTE   PATT
  POIN2 Label_4_0190E3B1
 BYTE   PATT
  POIN2 Label_4_0190E3A3
 BYTE   PATT
  POIN2 Label_4_0190E3B1
 BYTE   PATT
  POIN2 Label_4_0190E3A3
 BYTE   PATT
  POIN2 Label_4_0190E3B1
 BYTE   PATT
  POIN2 Label_4_0190E3A3
 BYTE   PATT
  POIN2 Label_4_0190E3B1
 BYTE   PATT
  POIN2 Label_4_0190E3A3
 BYTE   PATT
  POIN2 Label_4_0190E3B1
 BYTE   PATT
  POIN2 Label_4_0190E3A3
 BYTE   PATT
  POIN2 Label_4_0190E3B1
 BYTE   PATT
  POIN2 Label_4_0190E3A3
 BYTE   PATT
  POIN2 Label_4_0190E3B1
 BYTE   PATT
  POIN2 Label_4_0190E3A3
 BYTE   PATT
  POIN2 Label_4_0190E3B1
 BYTE   PATT
  POIN2 Label_4_0190E3A3
 BYTE   PATT
  POIN2 Label_4_0190E3B1
 BYTE   PATT
  POIN2 Label_4_0190E3A3
 BYTE   PATT
  POIN2 Label_4_0190E3B1
 BYTE   PATT
  POIN2 Label_4_0190E3A3
 BYTE   PATT
  POIN2 Label_4_0190E3B1
 BYTE   PATT
  POIN2 Label_4_0190E3A3
 BYTE   PATT
  POIN2 Label_4_0190E3B1
 BYTE   PATT
  POIN2 Label_4_0190E3A3
 BYTE   PATT
  POIN2 Label_4_0190E3B1
// 002   ----------------------------------------
 BYTE   W17
 BYTE   GoTo
  POIN2 Label_4_0190E396
// 003   ----------------------------------------
 BYTE   W01
 BYTE   FINE

//**************** Track 6 (Midi-Chn.5) ****************//

PaperMarioVsTutankoopaDolkar_006:
// 000   ----------------------------------------
 BYTE   KEYSH   PaperMarioVsTutankoopaDolkar_key+0
Label_5_0190E54E:
 BYTE   VOICE   127
 BYTE   VOL   61*PaperMarioVsTutankoopaDolkar_mvl/mxv
 BYTE   PAN   c_v+0
 BYTE   N06  Cs2  v100
 BYTE   N03  Fs2
 BYTE   W08
 BYTE   N03
 BYTE   W04
 BYTE   N03
 BYTE   W08
 BYTE   N03
 BYTE   W04
 BYTE   N03
 BYTE   N06  Gn4
 BYTE   W08
 BYTE   N03  Fs2
 BYTE   W04
 BYTE   N03
 BYTE   N06  Fs4
 BYTE   W08
 BYTE   N03  Fs2
 BYTE   W04
 BYTE   N03
 BYTE   W08
 BYTE   N03
 BYTE   W04
 BYTE   N03
 BYTE   W08
 BYTE   N03
 BYTE   W04
 BYTE   N03
 BYTE   W08
 BYTE   N03
 BYTE   W04
 BYTE   N03
 BYTE   W08
 BYTE   N03
 BYTE   W04
// 001   ----------------------------------------
Label_5_0190E57E:
 BYTE   VOL   75*PaperMarioVsTutankoopaDolkar_mvl/mxv
 BYTE   N06  Bn0  v100
 BYTE   N06  Cn1
 BYTE   N06  Cs2
 BYTE   N03  Fs2
 BYTE   W18
 BYTE   N06  Bn0
 BYTE   N06  Cn1
 BYTE   W18
 BYTE   Bn0
 BYTE   N06  Cn1
 BYTE   W12
 BYTE   PEND 
Label_5_0190E594:
 BYTE   W12
 BYTE   N06  Bn0  v100
 BYTE   N06  Cn1
 BYTE   W12
 BYTE   Bn0
 BYTE   N06  Cn1
 BYTE   W12
 BYTE   Bn0
 BYTE   N06  Cn1
 BYTE   N06  Gn4
 BYTE   W12
 BYTE   PEND 
// 002   ----------------------------------------
Label_5_0190E5A6:
 BYTE   N06  Bn0  v100
 BYTE   N06  Cn1
 BYTE   N06  Fs4
 BYTE   W18
 BYTE   Bn0
 BYTE   N06  Cn1
 BYTE   W18
 BYTE   Bn0
 BYTE   N06  Cn1
 BYTE   W12
 BYTE   PEND 
Label_5_0190E5B7:
 BYTE   W12
 BYTE   N06  Bn0  v100
 BYTE   N06  Cn1
 BYTE   W12
 BYTE   Bn0
 BYTE   N06  Cn1
 BYTE   N06  Dn4
 BYTE   W12
 BYTE   Bn0
 BYTE   N06  Cn1
 BYTE   N06  Gn4
 BYTE   W12
 BYTE   PEND 
 BYTE   PATT
  POIN2 Label_5_0190E5A6
// 003   ----------------------------------------
Label_5_0190E5D0:
 BYTE   W12
 BYTE   N06  Bn0  v100
 BYTE   N06  Cn1
 BYTE   W12
 BYTE   Bn0
 BYTE   N06  Cn1
 BYTE   W12
 BYTE   Bn0
 BYTE   N06  Cn1
 BYTE   W12
 BYTE   PEND 
Label_5_0190E5E0:
 BYTE   N06  Bn0  v100
 BYTE   N06  Cn1
 BYTE   W18
 BYTE   Bn0
 BYTE   N06  Cn1
 BYTE   W18
 BYTE   Bn0
 BYTE   N06  Cn1
 BYTE   W12
 BYTE   PEND 
// 004   ----------------------------------------
Label_5_0190E5EF:
 BYTE   W12
 BYTE   N06  Bn0  v100
 BYTE   N06  Cn1
 BYTE   W12
 BYTE   Bn0
 BYTE   N06  Cn1
 BYTE   W12
 BYTE   Bn0
 BYTE   N06  Cn1
 BYTE   N06  Dn4
 BYTE   W06
 BYTE   Cs4
 BYTE   W06
 BYTE   PEND 
 BYTE   PATT
  POIN2 Label_5_0190E5E0
 BYTE   PATT
  POIN2 Label_5_0190E5D0
// 005   ----------------------------------------
Label_5_0190E60D:
 BYTE   N06  Bn0  v100
 BYTE   N06  Cn1
 BYTE   W18
 BYTE   Bn0
 BYTE   N06  Cn1
 BYTE   W18
 BYTE   Bn0
 BYTE   N06  Cn1
 BYTE   N06  Gn4
 BYTE   W12
 BYTE   PEND 
Label_5_0190E61E:
 BYTE   N06  Fs4  v100
 BYTE   W12
 BYTE   Bn0
 BYTE   N06  Cn1
 BYTE   W12
 BYTE   Bn0
 BYTE   N06  Cn1
 BYTE   W12
 BYTE   Bn0
 BYTE   N06  Cn1
 BYTE   N06  Dn4
 BYTE   W06
 BYTE   Cs4
 BYTE   W06
 BYTE   PEND 
 BYTE   PATT
  POIN2 Label_5_0190E5E0
 BYTE   PATT
  POIN2 Label_5_0190E5D0
 BYTE   PATT
  POIN2 Label_5_0190E60D
// 006   ----------------------------------------
Label_5_0190E642:
 BYTE   N06  Fs4  v100
 BYTE   W12
 BYTE   Bn0
 BYTE   N06  Cn1
 BYTE   W12
 BYTE   Bn0
 BYTE   N06  Cn1
 BYTE   W12
 BYTE   Bn0
 BYTE   N06  Cn1
 BYTE   W12
 BYTE   PEND 
Label_5_0190E653:
 BYTE   N06  Cs2  v100
 BYTE   W36
 BYTE   Gn4
 BYTE   W12
 BYTE   PEND 
// 007   ----------------------------------------
 BYTE   Fs4
 BYTE   W48
Label_5_0190E65C:
 BYTE   N06  Bn0  v100
 BYTE   N06  Cn1
 BYTE   W36
 BYTE   Bn0
 BYTE   N06  Cn1
 BYTE   W12
 BYTE   PEND 
// 008   ----------------------------------------
Label_5_0190E667:
 BYTE   W12
 BYTE   N06  Bn0  v100
 BYTE   N06  Cn1
 BYTE   W12
 BYTE   Bn0
 BYTE   N06  Cn1
 BYTE   N06  Cs2
 BYTE   W12
 BYTE   Bn0
 BYTE   N06  Cn1
 BYTE   W12
 BYTE   PEND 
 BYTE   PATT
  POIN2 Label_5_0190E57E
 BYTE   PATT
  POIN2 Label_5_0190E594
 BYTE   PATT
  POIN2 Label_5_0190E5A6
 BYTE   PATT
  POIN2 Label_5_0190E5B7
 BYTE   PATT
  POIN2 Label_5_0190E5A6
 BYTE   PATT
  POIN2 Label_5_0190E5D0
 BYTE   PATT
  POIN2 Label_5_0190E5E0
 BYTE   PATT
  POIN2 Label_5_0190E5EF
 BYTE   PATT
  POIN2 Label_5_0190E5E0
 BYTE   PATT
  POIN2 Label_5_0190E5D0
 BYTE   PATT
  POIN2 Label_5_0190E60D
 BYTE   PATT
  POIN2 Label_5_0190E61E
 BYTE   PATT
  POIN2 Label_5_0190E5E0
 BYTE   PATT
  POIN2 Label_5_0190E5D0
 BYTE   PATT
  POIN2 Label_5_0190E60D
 BYTE   PATT
  POIN2 Label_5_0190E642
 BYTE   PATT
  POIN2 Label_5_0190E653
// 009   ----------------------------------------
 BYTE   N06  Fs4  v100
 BYTE   W48
 BYTE   PATT
  POIN2 Label_5_0190E65C
 BYTE   PATT
  POIN2 Label_5_0190E667
 BYTE   PATT
  POIN2 Label_5_0190E57E
 BYTE   PATT
  POIN2 Label_5_0190E594
 BYTE   PATT
  POIN2 Label_5_0190E5A6
 BYTE   PATT
  POIN2 Label_5_0190E5B7
 BYTE   PATT
  POIN2 Label_5_0190E5A6
 BYTE   PATT
  POIN2 Label_5_0190E5D0
 BYTE   PATT
  POIN2 Label_5_0190E5E0
 BYTE   PATT
  POIN2 Label_5_0190E5EF
 BYTE   PATT
  POIN2 Label_5_0190E5E0
 BYTE   PATT
  POIN2 Label_5_0190E5D0
 BYTE   PATT
  POIN2 Label_5_0190E60D
 BYTE   PATT
  POIN2 Label_5_0190E61E
 BYTE   PATT
  POIN2 Label_5_0190E5E0
 BYTE   PATT
  POIN2 Label_5_0190E5D0
 BYTE   PATT
  POIN2 Label_5_0190E60D
 BYTE   PATT
  POIN2 Label_5_0190E642
 BYTE   PATT
  POIN2 Label_5_0190E653
// 010   ----------------------------------------
 BYTE   N06  Fs4  v100
 BYTE   W48
 BYTE   PATT
  POIN2 Label_5_0190E65C
 BYTE   PATT
  POIN2 Label_5_0190E667
 BYTE   PATT
  POIN2 Label_5_0190E57E
 BYTE   PATT
  POIN2 Label_5_0190E594
 BYTE   PATT
  POIN2 Label_5_0190E5A6
 BYTE   PATT
  POIN2 Label_5_0190E5B7
 BYTE   PATT
  POIN2 Label_5_0190E5A6
 BYTE   PATT
  POIN2 Label_5_0190E5D0
 BYTE   PATT
  POIN2 Label_5_0190E5E0
 BYTE   PATT
  POIN2 Label_5_0190E5EF
 BYTE   PATT
  POIN2 Label_5_0190E5E0
 BYTE   PATT
  POIN2 Label_5_0190E5D0
 BYTE   PATT
  POIN2 Label_5_0190E60D
 BYTE   PATT
  POIN2 Label_5_0190E61E
 BYTE   PATT
  POIN2 Label_5_0190E5E0
 BYTE   PATT
  POIN2 Label_5_0190E5D0
 BYTE   PATT
  POIN2 Label_5_0190E60D
 BYTE   PATT
  POIN2 Label_5_0190E642
 BYTE   PATT
  POIN2 Label_5_0190E653
// 011   ----------------------------------------
 BYTE   N06  Fs4  v100
 BYTE   W48
 BYTE   PATT
  POIN2 Label_5_0190E65C
 BYTE   PATT
  POIN2 Label_5_0190E667
// 012   ----------------------------------------
 BYTE   N18  Bn0  v100
 BYTE   N18  Cn1
 BYTE   N18  Cs2
 BYTE   W17
 BYTE   GoTo
  POIN2 Label_5_0190E54E
// 013   ----------------------------------------
 BYTE   W01
 BYTE   FINE

//******************************************************//
	ALIGN 4

PaperMarioVsTutankoopaDolkar:
	BYTE	6	// NumTrks
	BYTE	0	// NumBlks
	BYTE	PaperMarioVsTutankoopaDolkar_pri	// Priority
	BYTE	PaperMarioVsTutankoopaDolkar_rev	// Reverb.
    
	POIN2	PaperMarioVsTutankoopaDolkar_grp
    
	POIN2	PaperMarioVsTutankoopaDolkar_001
	POIN2	PaperMarioVsTutankoopaDolkar_002
	POIN2	PaperMarioVsTutankoopaDolkar_003
	POIN2	PaperMarioVsTutankoopaDolkar_004
	POIN2	PaperMarioVsTutankoopaDolkar_005
	POIN2	PaperMarioVsTutankoopaDolkar_006

	
