//Event file generated from Sappy .s format.
	#include "MPlayDef.event"

	#define	PaperMarioVsLavaPirahnaDolkar_grp  voicegroup000
	#define	PaperMarioVsLavaPirahnaDolkar_pri  0
	#define	PaperMarioVsLavaPirahnaDolkar_rev  0
	#define	PaperMarioVsLavaPirahnaDolkar_mvl  127
	#define	PaperMarioVsLavaPirahnaDolkar_key  0
	#define	PaperMarioVsLavaPirahnaDolkar_tbs  1
	#define	PaperMarioVsLavaPirahnaDolkar_exg  0
	#define	PaperMarioVsLavaPirahnaDolkar_cmp  1

	// .rodata
	//	PaperMarioVsLavaPirahnaDolkar
	ALIGN 4


//**************** Track 1 (Midi-Chn.0) ****************//

PaperMarioVsLavaPirahnaDolkar_001:
// 000   ----------------------------------------
 BYTE   KEYSH   PaperMarioVsLavaPirahnaDolkar_key+0
Label_0_0190C6FE:
 BYTE   TEMPO   140*PaperMarioVsLavaPirahnaDolkar_tbs/2
 BYTE   VOICE   104
 BYTE   VOL   80*PaperMarioVsLavaPirahnaDolkar_mvl/mxv
 BYTE   W24
Label_0_0190C705:
 BYTE   N12  An1  v124
 BYTE   W12
 BYTE   Cn2
 BYTE   W12
 BYTE   Ds2
 BYTE   W12
 BYTE   Fs2
 BYTE   W12
 BYTE   An2
 BYTE   W12
 BYTE   Cn3
 BYTE   W12
// 001   ----------------------------------------
 BYTE   Ds3
 BYTE   W12
 BYTE   Fs3
 BYTE   W12
 BYTE   PEND 
 BYTE   N96  An3
 BYTE   W96
// 002   ----------------------------------------
 BYTE   W96
// 003   ----------------------------------------
 BYTE   W96
// 004   ----------------------------------------
 BYTE   W96
// 005   ----------------------------------------
 BYTE   W96
// 006   ----------------------------------------
 BYTE   W96
// 007   ----------------------------------------
Label_0_0190C720:
 BYTE   N06  An1  v100
 BYTE   W06
 BYTE   Cn2
 BYTE   W06
 BYTE   Ds2
 BYTE   W06
 BYTE   Fs2
 BYTE   W06
 BYTE   An2
 BYTE   W06
 BYTE   Cn3
 BYTE   W06
 BYTE   Ds3
 BYTE   W06
 BYTE   Fs3
 BYTE   W06
 BYTE   An3
 BYTE   W06
 BYTE   Cn4
 BYTE   W06
 BYTE   Ds4
 BYTE   W06
 BYTE   Fs4
 BYTE   W06
 BYTE   An4
 BYTE   W06
 BYTE   Cn4
 BYTE   W06
 BYTE   Ds4
 BYTE   W06
 BYTE   Fs4
 BYTE   W06
 BYTE   PEND 
// 008   ----------------------------------------
 BYTE   W96
// 009   ----------------------------------------
 BYTE   W96
// 010   ----------------------------------------
 BYTE   W96
 BYTE   PATT
  POIN2 Label_0_0190C720
// 011   ----------------------------------------
 BYTE   W96
// 012   ----------------------------------------
 BYTE   W96
// 013   ----------------------------------------
 BYTE   W96
// 014   ----------------------------------------
 BYTE   W96
// 015   ----------------------------------------
 BYTE   W96
// 016   ----------------------------------------
 BYTE   N24  Cn2  v100
 BYTE   W96
// 017   ----------------------------------------
Label_0_0190C754:
 BYTE   N12  Cn2  v100
 BYTE   W12
 BYTE   N12
 BYTE   W12
 BYTE   Ds2
 BYTE   W12
 BYTE   N12
 BYTE   W12
 BYTE   Fs2
 BYTE   W12
 BYTE   N12
 BYTE   W12
 BYTE   An2
 BYTE   W12
 BYTE   N12
 BYTE   W12
 BYTE   PEND 
// 018   ----------------------------------------
 BYTE   W96
 BYTE   PATT
  POIN2 Label_0_0190C754
// 019   ----------------------------------------
Label_0_0190C76D:
 BYTE   N12  Cn3  v100
 BYTE   W12
 BYTE   N12
 BYTE   W12
 BYTE   Ds3
 BYTE   W12
 BYTE   N12
 BYTE   W60
 BYTE   PEND 
// 020   ----------------------------------------
Label_0_0190C778:
 BYTE   N12  Cn2  v100
 BYTE   W12
 BYTE   N12
 BYTE   W12
 BYTE   Ds2
 BYTE   W12
 BYTE   N12
 BYTE   W12
 BYTE   Fs2
 BYTE   W12
 BYTE   N12
 BYTE   W12
 BYTE   Gn2
 BYTE   W12
 BYTE   An2
 BYTE   W12
 BYTE   PEND 
// 021   ----------------------------------------
Label_0_0190C78B:
 BYTE   N12  Cn3  v100
 BYTE   W12
 BYTE   N12
 BYTE   W12
 BYTE   Ds3
 BYTE   W12
 BYTE   N12
 BYTE   W12
 BYTE   Fs3
 BYTE   W12
 BYTE   N12
 BYTE   W12
 BYTE   An3
 BYTE   W12
 BYTE   N12
 BYTE   W12
 BYTE   PEND 
// 022   ----------------------------------------
 BYTE   N72  As3
 BYTE   W96
// 023   ----------------------------------------
Label_0_0190C7A1:
 BYTE   N04  An3  v100
 BYTE   W04
 BYTE   As3
 BYTE   W05
 BYTE   An3
 BYTE   W05
 BYTE   As3
 BYTE   W05
 BYTE   An3
 BYTE   W05
 BYTE   As3  v096
 BYTE   W04
 BYTE   An3
 BYTE   W05
 BYTE   As3
 BYTE   W05
 BYTE   An3
 BYTE   W05
 BYTE   As3  v092
 BYTE   W05
 BYTE   An3
 BYTE   W04
 BYTE   As3
 BYTE   W05
 BYTE   An3
 BYTE   W05
 BYTE   As3  v088
 BYTE   W05
 BYTE   An3
 BYTE   W05
 BYTE   As3
 BYTE   W04
 BYTE   An3
 BYTE   W08
 BYTE   An3  v100
 BYTE   W06
 BYTE   Gs3  v112
 BYTE   W06
 BYTE   PEND 
// 024   ----------------------------------------
 BYTE   N96  Gn3  v124
 BYTE   W96
// 025   ----------------------------------------
 BYTE   W96
// 026   ----------------------------------------
 BYTE   W96
// 027   ----------------------------------------
 BYTE   W96
// 028   ----------------------------------------
 BYTE   W96
// 029   ----------------------------------------
 BYTE   W96
// 030   ----------------------------------------
 BYTE   W96
// 031   ----------------------------------------
 BYTE   W96
 BYTE   PATT
  POIN2 Label_0_0190C705
// 032   ----------------------------------------
 BYTE   N96  An3  v124
 BYTE   W96
// 033   ----------------------------------------
 BYTE   W96
// 034   ----------------------------------------
 BYTE   W96
// 035   ----------------------------------------
 BYTE   W96
// 036   ----------------------------------------
 BYTE   W96
// 037   ----------------------------------------
 BYTE   W96
 BYTE   PATT
  POIN2 Label_0_0190C720
// 038   ----------------------------------------
 BYTE   W96
// 039   ----------------------------------------
 BYTE   W96
// 040   ----------------------------------------
 BYTE   W96
 BYTE   PATT
  POIN2 Label_0_0190C720
// 041   ----------------------------------------
 BYTE   W96
// 042   ----------------------------------------
 BYTE   W96
// 043   ----------------------------------------
 BYTE   W96
// 044   ----------------------------------------
 BYTE   W96
// 045   ----------------------------------------
 BYTE   W96
// 046   ----------------------------------------
 BYTE   N24  Cn2  v100
 BYTE   W96
 BYTE   PATT
  POIN2 Label_0_0190C754
// 047   ----------------------------------------
 BYTE   W96
 BYTE   PATT
  POIN2 Label_0_0190C754
 BYTE   PATT
  POIN2 Label_0_0190C76D
 BYTE   PATT
  POIN2 Label_0_0190C778
 BYTE   PATT
  POIN2 Label_0_0190C78B
// 048   ----------------------------------------
 BYTE   N72  As3  v100
 BYTE   W96
 BYTE   PATT
  POIN2 Label_0_0190C7A1
// 049   ----------------------------------------
 BYTE   N96  Gn3  v124
 BYTE   W96
// 050   ----------------------------------------
 BYTE   W96
// 051   ----------------------------------------
 BYTE   W96
// 052   ----------------------------------------
 BYTE   W96
// 053   ----------------------------------------
 BYTE   W96
// 054   ----------------------------------------
 BYTE   W96
// 055   ----------------------------------------
 BYTE   W96
// 056   ----------------------------------------
 BYTE   W96
 BYTE   PATT
  POIN2 Label_0_0190C705
// 057   ----------------------------------------
 BYTE   N96  An3  v124
 BYTE   W96
// 058   ----------------------------------------
 BYTE   W96
// 059   ----------------------------------------
 BYTE   W96
// 060   ----------------------------------------
 BYTE   W96
// 061   ----------------------------------------
 BYTE   W96
// 062   ----------------------------------------
 BYTE   W96
// 063   ----------------------------------------
 BYTE   N06  An1  v072
 BYTE   W06
 BYTE   Cn2
 BYTE   W06
 BYTE   Ds2
 BYTE   W06
 BYTE   Fs2  v068
 BYTE   W06
 BYTE   An2
 BYTE   W06
 BYTE   Cn3
 BYTE   W06
 BYTE   Ds3
 BYTE   W06
 BYTE   Fs3  v064
 BYTE   W06
 BYTE   An3
 BYTE   W06
 BYTE   Cn4
 BYTE   W06
 BYTE   Ds4
 BYTE   W06
 BYTE   Fs4
 BYTE   W06
 BYTE   An4  v060
 BYTE   W06
 BYTE   Cn4
 BYTE   W06
 BYTE   Ds4
 BYTE   W06
 BYTE   Fs4
 BYTE   W06
// 064   ----------------------------------------
 BYTE   W96
// 065   ----------------------------------------
 BYTE   W96
// 066   ----------------------------------------
 BYTE   W96
// 067   ----------------------------------------
 BYTE   An1  v016
 BYTE   W06
 BYTE   Cn2  v012
 BYTE   W06
 BYTE   Ds2
 BYTE   W06
 BYTE   Fs2
 BYTE   W06
 BYTE   An2
 BYTE   W06
 BYTE   Cn3  v008
 BYTE   W06
 BYTE   Ds3
 BYTE   W06
 BYTE   Fs3
 BYTE   W06
 BYTE   An3
 BYTE   W06
 BYTE   Cn4
 BYTE   W06
 BYTE   Ds4  v004
 BYTE   W06
 BYTE   Fs4
 BYTE   W06
 BYTE   An4
 BYTE   W06
 BYTE   Cn4
 BYTE   W06
 BYTE   Ds4
 BYTE   W06
 BYTE   Fs4
 BYTE   W06
// 068   ----------------------------------------
 BYTE   GoTo
  POIN2 Label_0_0190C6FE
 BYTE   FINE

//**************** Track 2 (Midi-Chn.1) ****************//

PaperMarioVsLavaPirahnaDolkar_002:
// 000   ----------------------------------------
 BYTE   KEYSH   PaperMarioVsLavaPirahnaDolkar_key+0
Label_1_0190C88E:
 BYTE   VOICE   15
 BYTE   VOL   80*PaperMarioVsLavaPirahnaDolkar_mvl/mxv
 BYTE   W24
Label_1_0190C893:
 BYTE   TIE  En4  v127
 BYTE   TIE  An4
 BYTE   TIE  En5  v104
 BYTE   W96
 BYTE   PEND 
// 001   ----------------------------------------
Label_1_0190C89D:
 BYTE   W72
 BYTE   VOL   76*PaperMarioVsLavaPirahnaDolkar_mvl/mxv
 BYTE   W03
 BYTE   Cs4
 BYTE   W03
 BYTE   As3
 BYTE   W03
 BYTE   Gn3
 BYTE   W03
 BYTE   En3
 BYTE   W02
 BYTE   Cs3
 BYTE   W02
 BYTE   Fs2
 BYTE   W02
 BYTE   Cn2
 BYTE   W02
 BYTE   Fs1
 BYTE   W02
 BYTE   Bn0
 BYTE   W02
 BYTE   PEND 
// 002   ----------------------------------------
Label_1_0190C8B4:
 BYTE   VOL   29*PaperMarioVsLavaPirahnaDolkar_mvl/mxv
 BYTE   W24
 BYTE   Gs0
 BYTE   W06
 BYTE   Bn0
 BYTE   W06
 BYTE   Ds1
 BYTE   W06
 BYTE   Fs1
 BYTE   W06
 BYTE   An1
 BYTE   W06
 BYTE   Cn2
 BYTE   W06
 BYTE   Ds2
 BYTE   W06
 BYTE   Fs2
 BYTE   W06
 BYTE   An2
 BYTE   W06
 BYTE   Cs3
 BYTE   W06
 BYTE   Gn3
 BYTE   W06
 BYTE   Cs4
 BYTE   W06
 BYTE   PEND 
// 003   ----------------------------------------
 BYTE   Gs4
 BYTE   W72
 BYTE   EOT
 BYTE   En4  v081
 BYTE   En5
 BYTE   W24
// 004   ----------------------------------------
Label_1_0190C8D7:
 BYTE   N09  En4  v127
 BYTE   N09  An4
 BYTE   N09  En5  v104
 BYTE   W24
 BYTE   En3  v127
 BYTE   N09  An3
 BYTE   N09  En4  v104
 BYTE   W24
 BYTE   N06  Gn3  v127
 BYTE   N06  Cn4
 BYTE   N06  Gn4  v104
 BYTE   W12
 BYTE   Gn3  v127
 BYTE   N06  Cn4
 BYTE   N06  Gn4  v104
 BYTE   W06
 BYTE   N22  Fs3  v127
 BYTE   N22  Bn3
 BYTE   N22  Fs4  v104
 BYTE   W30
 BYTE   PEND 
// 005   ----------------------------------------
Label_1_0190C903:
 BYTE   N09  En3  v127
 BYTE   N09  An3
 BYTE   N09  En4  v104
 BYTE   W12
 BYTE   N06  En4  v127
 BYTE   N06  An4
 BYTE   N06  En5  v104
 BYTE   W12
 BYTE   En4  v127
 BYTE   N06  An4
 BYTE   N06  En5  v104
 BYTE   W12
 BYTE   En3  v127
 BYTE   N06  An3
 BYTE   N06  En4  v104
 BYTE   W12
 BYTE   Gn3  v127
 BYTE   N06  Cn4
 BYTE   N06  Gn4  v104
 BYTE   W12
 BYTE   Gn3  v127
 BYTE   N06  Cn4
 BYTE   N06  Gn4  v104
 BYTE   W06
 BYTE   N30  Fs3  v127
 BYTE   N30  Bn3
 BYTE   N30  Fs4  v104
 BYTE   W30
 BYTE   PEND 
// 006   ----------------------------------------
 BYTE   W96
// 007   ----------------------------------------
 BYTE   W96
 BYTE   PATT
  POIN2 Label_1_0190C8D7
 BYTE   PATT
  POIN2 Label_1_0190C903
// 008   ----------------------------------------
 BYTE   W96
// 009   ----------------------------------------
 BYTE   W96
// 010   ----------------------------------------
Label_1_0190C94D:
 BYTE   N48  Cn4  v127
 BYTE   N48  Gn4
 BYTE   W48
 BYTE   Ds4
 BYTE   N48  As4
 BYTE   W48
 BYTE   PEND 
// 011   ----------------------------------------
Label_1_0190C958:
 BYTE   N48  Dn4  v127
 BYTE   N48  An4
 BYTE   W48
 BYTE   Fn4
 BYTE   N48  Cn5
 BYTE   W48
 BYTE   PEND 
// 012   ----------------------------------------
Label_1_0190C963:
 BYTE   N06  Fs4  v127
 BYTE   N06  Cs5
 BYTE   W12
 BYTE   Fn4
 BYTE   N06  Cn5
 BYTE   W12
 BYTE   En4
 BYTE   N06  Bn4
 BYTE   W12
 BYTE   N54  Ds4
 BYTE   N54  As4
 BYTE   W60
 BYTE   PEND 
// 013   ----------------------------------------
Label_1_0190C977:
 BYTE   N06  Ds4  v127
 BYTE   N06  As4
 BYTE   W12
 BYTE   Dn4
 BYTE   N06  An4
 BYTE   W12
 BYTE   Cs4
 BYTE   N06  Gs4
 BYTE   W12
 BYTE   N60  Cn4
 BYTE   N60  Gn4
 BYTE   W60
 BYTE   PEND 
// 014   ----------------------------------------
 BYTE   W96
// 015   ----------------------------------------
 BYTE   W96
// 016   ----------------------------------------
 BYTE   W96
// 017   ----------------------------------------
 BYTE   W96
// 018   ----------------------------------------
 BYTE   W96
// 019   ----------------------------------------
 BYTE   W96
// 020   ----------------------------------------
 BYTE   W96
// 021   ----------------------------------------
 BYTE   W96
// 022   ----------------------------------------
 BYTE   W96
// 023   ----------------------------------------
 BYTE   W96
// 024   ----------------------------------------
Label_1_0190C995:
 BYTE   N11  Gn3  v084
 BYTE   N11  Cn4  v092
 BYTE   N11  Gn4  v080
 BYTE   W12
 BYTE   As3  v084
 BYTE   N11  Ds4  v092
 BYTE   N11  As4  v080
 BYTE   W12
 BYTE   Cs4  v084
 BYTE   N11  Fs4  v092
 BYTE   N11  Cs5  v080
 BYTE   W12
 BYTE   Dn4  v084
 BYTE   N11  Gn4  v092
 BYTE   N11  Dn5  v080
 BYTE   W12
 BYTE   Cs4  v084
 BYTE   N11  Fs4  v092
 BYTE   N11  Cs5  v080
 BYTE   W12
 BYTE   Dn4  v084
 BYTE   N11  Gn4  v092
 BYTE   N11  Dn5  v080
 BYTE   W12
 BYTE   Cs4  v084
 BYTE   N11  Fs4  v092
 BYTE   N11  Cs5  v080
 BYTE   W12
 BYTE   Dn4  v084
 BYTE   N11  Gn4  v092
 BYTE   N11  Dn5  v080
 BYTE   W12
 BYTE   PEND 
 BYTE   PATT
  POIN2 Label_1_0190C995
 BYTE   PATT
  POIN2 Label_1_0190C995
// 025   ----------------------------------------
Label_1_0190C9E9:
 BYTE   N11  Gn3  v084
 BYTE   N11  Cn4  v092
 BYTE   N11  Gn4  v080
 BYTE   W12
 BYTE   As3  v084
 BYTE   N11  Ds4  v092
 BYTE   N11  As4  v080
 BYTE   W12
 BYTE   Cs4  v084
 BYTE   N11  Fs4  v092
 BYTE   N11  Cs5  v080
 BYTE   W12
 BYTE   Dn4  v084
 BYTE   N11  Gn4  v092
 BYTE   N11  Dn5  v080
 BYTE   W24
 BYTE   Cs4  v084
 BYTE   N11  Fs4  v092
 BYTE   N11  Cs5  v080
 BYTE   W12
 BYTE   Dn4  v084
 BYTE   N11  Gn4  v092
 BYTE   N11  Dn5  v080
 BYTE   W12
 BYTE   Cs4  v084
 BYTE   N11  Fs4  v092
 BYTE   N11  Cs5  v080
 BYTE   W12
 BYTE   PEND 
 BYTE   PATT
  POIN2 Label_1_0190C995
 BYTE   PATT
  POIN2 Label_1_0190C995
// 026   ----------------------------------------
Label_1_0190CA34:
 BYTE   N14  Gn3  v112
 BYTE   N14  Cn4  v124
 BYTE   N14  Gn4  v100
 BYTE   W24
 BYTE   As3  v112
 BYTE   N14  Ds4  v124
 BYTE   N14  As4  v100
 BYTE   W24
 BYTE   N30  Cs4  v112
 BYTE   N30  Fs4  v124
 BYTE   N30  Cs5  v100
 BYTE   W36
 BYTE   N11  Dn4  v112
 BYTE   N11  Gn4  v124
 BYTE   N11  Dn5  v100
 BYTE   W12
 BYTE   PEND 
// 027   ----------------------------------------
Label_1_0190CA5C:
 BYTE   N11  Cs4  v112
 BYTE   N11  Fs4  v124
 BYTE   N11  Cs5  v100
 BYTE   W12
 BYTE   Dn4  v112
 BYTE   N11  Gn4  v124
 BYTE   N11  Dn5  v100
 BYTE   W12
 BYTE   Cs4  v112
 BYTE   N11  Fs4  v124
 BYTE   N11  Cs5  v100
 BYTE   W12
 BYTE   N14  Dn4  v112
 BYTE   N14  Gn4  v124
 BYTE   N14  Dn5  v100
 BYTE   W60
 BYTE   PEND 
 BYTE   PATT
  POIN2 Label_1_0190C893
 BYTE   PATT
  POIN2 Label_1_0190C89D
 BYTE   PATT
  POIN2 Label_1_0190C8B4
// 028   ----------------------------------------
 BYTE   VOL   80*PaperMarioVsLavaPirahnaDolkar_mvl/mxv
 BYTE   W72
 BYTE   EOT
 BYTE   En4  v081
 BYTE   En5
 BYTE   W24
 BYTE   PATT
  POIN2 Label_1_0190C8D7
 BYTE   PATT
  POIN2 Label_1_0190C903
// 029   ----------------------------------------
 BYTE   W96
// 030   ----------------------------------------
 BYTE   W96
 BYTE   PATT
  POIN2 Label_1_0190C8D7
 BYTE   PATT
  POIN2 Label_1_0190C903
// 031   ----------------------------------------
 BYTE   W96
// 032   ----------------------------------------
 BYTE   W96
 BYTE   PATT
  POIN2 Label_1_0190C94D
 BYTE   PATT
  POIN2 Label_1_0190C958
 BYTE   PATT
  POIN2 Label_1_0190C963
 BYTE   PATT
  POIN2 Label_1_0190C977
// 033   ----------------------------------------
 BYTE   W96
// 034   ----------------------------------------
 BYTE   W96
// 035   ----------------------------------------
 BYTE   W96
// 036   ----------------------------------------
 BYTE   W96
// 037   ----------------------------------------
 BYTE   W96
// 038   ----------------------------------------
 BYTE   W96
// 039   ----------------------------------------
 BYTE   W96
// 040   ----------------------------------------
 BYTE   W96
// 041   ----------------------------------------
 BYTE   W96
// 042   ----------------------------------------
 BYTE   W96
 BYTE   PATT
  POIN2 Label_1_0190C995
 BYTE   PATT
  POIN2 Label_1_0190C995
 BYTE   PATT
  POIN2 Label_1_0190C995
 BYTE   PATT
  POIN2 Label_1_0190C9E9
 BYTE   PATT
  POIN2 Label_1_0190C995
 BYTE   PATT
  POIN2 Label_1_0190C995
 BYTE   PATT
  POIN2 Label_1_0190CA34
 BYTE   PATT
  POIN2 Label_1_0190CA5C
 BYTE   PATT
  POIN2 Label_1_0190C893
 BYTE   PATT
  POIN2 Label_1_0190C89D
 BYTE   PATT
  POIN2 Label_1_0190C8B4
// 043   ----------------------------------------
 BYTE   VOL   80*PaperMarioVsLavaPirahnaDolkar_mvl/mxv
 BYTE   W72
 BYTE   EOT
 BYTE   En4  v081
 BYTE   En5
 BYTE   W24
 BYTE   PATT
  POIN2 Label_1_0190C8D7
// 044   ----------------------------------------
 BYTE   N09  En3  v127
 BYTE   N09  An3
 BYTE   N09  En4  v104
 BYTE   W12
 BYTE   N06  En4  v127
 BYTE   N06  An4
 BYTE   N06  En5  v104
 BYTE   W12
 BYTE   En4  v124
 BYTE   N06  An4
 BYTE   N06  En5  v100
 BYTE   W12
 BYTE   En3  v120
 BYTE   N06  An3
 BYTE   N06  En4  v100
 BYTE   W12
 BYTE   Gn3  v120
 BYTE   N06  Cn4
 BYTE   N06  Gn4  v096
 BYTE   W12
 BYTE   Gn3  v116
 BYTE   N06  Cn4
 BYTE   N06  Gn4  v096
 BYTE   W06
 BYTE   N30  Fs3  v116
 BYTE   N30  Bn3
 BYTE   N30  Fs4  v096
 BYTE   W30
// 045   ----------------------------------------
 BYTE   W96
// 046   ----------------------------------------
 BYTE   W96
// 047   ----------------------------------------
 BYTE   N09  En4  v072
 BYTE   N09  An4
 BYTE   N09  En5  v060
 BYTE   W24
 BYTE   En3  v068
 BYTE   N09  An3
 BYTE   N09  En4  v056
 BYTE   W24
 BYTE   N06  Gn3  v064
 BYTE   N06  Cn4
 BYTE   N06  Gn4  v052
 BYTE   W12
 BYTE   Gn3  v060
 BYTE   N06  Cn4
 BYTE   N06  Gn4  v052
 BYTE   W06
 BYTE   N22  Fs3  v060
 BYTE   N22  Bn3
 BYTE   N22  Fs4  v048
 BYTE   W30
// 048   ----------------------------------------
 BYTE   N09  En3  v056
 BYTE   N09  An3
 BYTE   N09  En4  v044
 BYTE   W12
 BYTE   N06  En4  v052
 BYTE   N06  An4
 BYTE   N06  En5  v044
 BYTE   W12
 BYTE   En4  v052
 BYTE   N06  An4
 BYTE   N06  En5  v040
 BYTE   W12
 BYTE   En3  v048
 BYTE   N06  An3
 BYTE   N06  En4  v040
 BYTE   W12
 BYTE   Gn3  v048
 BYTE   N06  Cn4
 BYTE   N06  Gn4  v040
 BYTE   W12
 BYTE   Gn3  v044
 BYTE   N06  Cn4
 BYTE   N06  Gn4  v036
 BYTE   W06
 BYTE   N30  Fs3  v044
 BYTE   N30  Bn3
 BYTE   N30  Fs4  v036
 BYTE   W30
// 049   ----------------------------------------
 BYTE   W96
// 050   ----------------------------------------
 BYTE   W96
// 051   ----------------------------------------
 BYTE   GoTo
  POIN2 Label_1_0190C88E
 BYTE   FINE

//**************** Track 3 (Midi-Chn.2) ****************//

PaperMarioVsLavaPirahnaDolkar_003:
// 000   ----------------------------------------
 BYTE   KEYSH   PaperMarioVsLavaPirahnaDolkar_key+0
Label_2_0190CBC2:
 BYTE   VOICE   38
 BYTE   VOL   80*PaperMarioVsLavaPirahnaDolkar_mvl/mxv
 BYTE   W24
Label_2_0190CBC7:
 BYTE   N09  Cn1  v120
 BYTE   W12
 BYTE   N09
 BYTE   W12
 BYTE   Fn0
 BYTE   W12
 BYTE   N09
 BYTE   W12
 BYTE   Gn0
 BYTE   W12
 BYTE   N05
 BYTE   W06
 BYTE   N15  An0
 BYTE   W18
// 001   ----------------------------------------
 BYTE   N08  Gn0
 BYTE   W12
 BYTE   PEND 
 BYTE   PATT
  POIN2 Label_2_0190CBC7
 BYTE   PATT
  POIN2 Label_2_0190CBC7
 BYTE   PATT
  POIN2 Label_2_0190CBC7
 BYTE   PATT
  POIN2 Label_2_0190CBC7
 BYTE   PATT
  POIN2 Label_2_0190CBC7
 BYTE   PATT
  POIN2 Label_2_0190CBC7
 BYTE   PATT
  POIN2 Label_2_0190CBC7
 BYTE   PATT
  POIN2 Label_2_0190CBC7
 BYTE   PATT
  POIN2 Label_2_0190CBC7
 BYTE   PATT
  POIN2 Label_2_0190CBC7
 BYTE   PATT
  POIN2 Label_2_0190CBC7
// 002   ----------------------------------------
 BYTE   TIE  Cn1  v120
 BYTE   W96
// 003   ----------------------------------------
 BYTE   W96
// 004   ----------------------------------------
 BYTE   EOT
 BYTE   W96
// 005   ----------------------------------------
 BYTE   W96
 BYTE   PATT
  POIN2 Label_2_0190CBC7
 BYTE   PATT
  POIN2 Label_2_0190CBC7
 BYTE   PATT
  POIN2 Label_2_0190CBC7
 BYTE   PATT
  POIN2 Label_2_0190CBC7
 BYTE   PATT
  POIN2 Label_2_0190CBC7
 BYTE   PATT
  POIN2 Label_2_0190CBC7
 BYTE   PATT
  POIN2 Label_2_0190CBC7
 BYTE   PATT
  POIN2 Label_2_0190CBC7
 BYTE   PATT
  POIN2 Label_2_0190CBC7
 BYTE   PATT
  POIN2 Label_2_0190CBC7
 BYTE   PATT
  POIN2 Label_2_0190CBC7
 BYTE   PATT
  POIN2 Label_2_0190CBC7
 BYTE   PATT
  POIN2 Label_2_0190CBC7
 BYTE   PATT
  POIN2 Label_2_0190CBC7
 BYTE   PATT
  POIN2 Label_2_0190CBC7
 BYTE   PATT
  POIN2 Label_2_0190CBC7
// 006   ----------------------------------------
 BYTE   W96
// 007   ----------------------------------------
 BYTE   W96
 BYTE   PATT
  POIN2 Label_2_0190CBC7
 BYTE   PATT
  POIN2 Label_2_0190CBC7
 BYTE   PATT
  POIN2 Label_2_0190CBC7
 BYTE   PATT
  POIN2 Label_2_0190CBC7
 BYTE   PATT
  POIN2 Label_2_0190CBC7
 BYTE   PATT
  POIN2 Label_2_0190CBC7
 BYTE   PATT
  POIN2 Label_2_0190CBC7
 BYTE   PATT
  POIN2 Label_2_0190CBC7
 BYTE   PATT
  POIN2 Label_2_0190CBC7
 BYTE   PATT
  POIN2 Label_2_0190CBC7
 BYTE   PATT
  POIN2 Label_2_0190CBC7
 BYTE   PATT
  POIN2 Label_2_0190CBC7
// 008   ----------------------------------------
 BYTE   TIE  Cn1  v120
 BYTE   W96
// 009   ----------------------------------------
 BYTE   W96
// 010   ----------------------------------------
 BYTE   EOT
 BYTE   W96
// 011   ----------------------------------------
 BYTE   W96
 BYTE   PATT
  POIN2 Label_2_0190CBC7
 BYTE   PATT
  POIN2 Label_2_0190CBC7
 BYTE   PATT
  POIN2 Label_2_0190CBC7
 BYTE   PATT
  POIN2 Label_2_0190CBC7
 BYTE   PATT
  POIN2 Label_2_0190CBC7
 BYTE   PATT
  POIN2 Label_2_0190CBC7
 BYTE   PATT
  POIN2 Label_2_0190CBC7
 BYTE   PATT
  POIN2 Label_2_0190CBC7
 BYTE   PATT
  POIN2 Label_2_0190CBC7
 BYTE   PATT
  POIN2 Label_2_0190CBC7
 BYTE   PATT
  POIN2 Label_2_0190CBC7
 BYTE   PATT
  POIN2 Label_2_0190CBC7
 BYTE   PATT
  POIN2 Label_2_0190CBC7
 BYTE   PATT
  POIN2 Label_2_0190CBC7
 BYTE   PATT
  POIN2 Label_2_0190CBC7
 BYTE   PATT
  POIN2 Label_2_0190CBC7
// 012   ----------------------------------------
 BYTE   W96
// 013   ----------------------------------------
 BYTE   W96
 BYTE   PATT
  POIN2 Label_2_0190CBC7
 BYTE   PATT
  POIN2 Label_2_0190CBC7
 BYTE   PATT
  POIN2 Label_2_0190CBC7
 BYTE   PATT
  POIN2 Label_2_0190CBC7
 BYTE   PATT
  POIN2 Label_2_0190CBC7
// 014   ----------------------------------------
 BYTE   N09  Cn1  v120
 BYTE   W12
 BYTE   Cn1  v116
 BYTE   W12
 BYTE   Fn0
 BYTE   W12
 BYTE   Fn0  v112
 BYTE   W12
 BYTE   Gn0  v108
 BYTE   W12
 BYTE   N05
 BYTE   W06
 BYTE   N15  An0
 BYTE   W18
 BYTE   N08  Gn0  v104
 BYTE   W12
// 015   ----------------------------------------
 BYTE   N09  Cn1  v100
 BYTE   W12
 BYTE   N09
 BYTE   W12
 BYTE   Fn0  v096
 BYTE   W12
 BYTE   N09
 BYTE   W12
 BYTE   Gn0  v092
 BYTE   W12
 BYTE   N05
 BYTE   W06
 BYTE   N15  An0  v088
 BYTE   W18
 BYTE   N08  Gn0
 BYTE   W12
// 016   ----------------------------------------
 BYTE   N09  Cn1  v084
 BYTE   W12
 BYTE   N09
 BYTE   W12
 BYTE   Fn0  v080
 BYTE   W12
 BYTE   N09
 BYTE   W12
 BYTE   Gn0  v076
 BYTE   W12
 BYTE   N05
 BYTE   W06
 BYTE   N15  An0  v072
 BYTE   W18
 BYTE   N08  Gn0
 BYTE   W12
// 017   ----------------------------------------
 BYTE   N09  Cn1  v068
 BYTE   W12
 BYTE   Cn1  v064
 BYTE   W12
 BYTE   Fn0
 BYTE   W12
 BYTE   Fn0  v060
 BYTE   W12
 BYTE   Gn0
 BYTE   W12
 BYTE   N05  Gn0  v056
 BYTE   W06
 BYTE   N15  An0
 BYTE   W18
 BYTE   N08  Gn0  v052
 BYTE   W12
// 018   ----------------------------------------
 BYTE   N09  Cn1
 BYTE   W12
 BYTE   Cn1  v048
 BYTE   W12
 BYTE   Fn0
 BYTE   W12
 BYTE   Fn0  v044
 BYTE   W12
 BYTE   Gn0
 BYTE   W12
 BYTE   N05  Gn0  v040
 BYTE   W06
 BYTE   N15  An0
 BYTE   W18
 BYTE   N08  Gn0  v036
 BYTE   W12
// 019   ----------------------------------------
 BYTE   N09  Cn1  v032
 BYTE   W12
 BYTE   N09
 BYTE   W12
 BYTE   Fn0
 BYTE   W12
 BYTE   Fn0  v028
 BYTE   W12
 BYTE   Gn0  v024
 BYTE   W12
 BYTE   N05
 BYTE   W06
 BYTE   N15  An0
 BYTE   W18
 BYTE   N08  Gn0  v020
 BYTE   W12
// 020   ----------------------------------------
 BYTE   N09  Cn1  v016
 BYTE   W12
 BYTE   N09
 BYTE   W12
 BYTE   Fn0  v012
 BYTE   W12
 BYTE   N09
 BYTE   W12
 BYTE   Gn0  v008
 BYTE   W12
 BYTE   N05
 BYTE   W06
 BYTE   N15  An0  v004
 BYTE   W18
 BYTE   N08  Gn0
 BYTE   W12
// 021   ----------------------------------------
 BYTE   GoTo
  POIN2 Label_2_0190CBC2
 BYTE   FINE

//**************** Track 4 (Midi-Chn.3) ****************//

PaperMarioVsLavaPirahnaDolkar_004:
// 000   ----------------------------------------
 BYTE   KEYSH   PaperMarioVsLavaPirahnaDolkar_key+0
Label_3_0190CDCA:
 BYTE   VOICE   59
 BYTE   VOL   80*PaperMarioVsLavaPirahnaDolkar_mvl/mxv
 BYTE   W24
 BYTE   W96
// 001   ----------------------------------------
 BYTE   W96
// 002   ----------------------------------------
 BYTE   W96
// 003   ----------------------------------------
 BYTE   W96
// 004   ----------------------------------------
 BYTE   W96
// 005   ----------------------------------------
 BYTE   W96
// 006   ----------------------------------------
 BYTE   W96
// 007   ----------------------------------------
 BYTE   W96
// 008   ----------------------------------------
 BYTE   W96
// 009   ----------------------------------------
 BYTE   W96
// 010   ----------------------------------------
 BYTE   W96
// 011   ----------------------------------------
 BYTE   W96
// 012   ----------------------------------------
 BYTE   W96
// 013   ----------------------------------------
 BYTE   W96
// 014   ----------------------------------------
 BYTE   W96
// 015   ----------------------------------------
 BYTE   W96
// 016   ----------------------------------------
 BYTE   W96
// 017   ----------------------------------------
 BYTE   W96
// 018   ----------------------------------------
 BYTE   W96
// 019   ----------------------------------------
Label_3_0190CDE2:
 BYTE   N06  Cn4  v127
 BYTE   W12
 BYTE   N06
 BYTE   W12
 BYTE   Ds4
 BYTE   W12
 BYTE   N06
 BYTE   W12
 BYTE   Fs4
 BYTE   W12
 BYTE   N06
 BYTE   W12
 BYTE   An4
 BYTE   W12
 BYTE   N06
 BYTE   W12
 BYTE   PEND 
// 020   ----------------------------------------
 BYTE   W96
// 021   ----------------------------------------
 BYTE   W72
 BYTE   Cn4
 BYTE   W24
// 022   ----------------------------------------
 BYTE   W96
// 023   ----------------------------------------
 BYTE   W96
// 024   ----------------------------------------
 BYTE   W96
// 025   ----------------------------------------
 BYTE   W96
// 026   ----------------------------------------
 BYTE   W96
// 027   ----------------------------------------
 BYTE   W96
// 028   ----------------------------------------
 BYTE   N06
 BYTE   W96
// 029   ----------------------------------------
Label_3_0190CE01:
 BYTE   N06  Cn4  v127
 BYTE   W24
 BYTE   Ds4
 BYTE   W24
 BYTE   Fs4
 BYTE   W36
 BYTE   Gn4
 BYTE   W12
 BYTE   PEND 
// 030   ----------------------------------------
Label_3_0190CE0C:
 BYTE   N06  Fs4  v127
 BYTE   W12
 BYTE   Gn4
 BYTE   W12
 BYTE   Fs4
 BYTE   W12
 BYTE   Gn4
 BYTE   W60
 BYTE   PEND 
// 031   ----------------------------------------
 BYTE   W72
 BYTE   Cn4
 BYTE   W24
// 032   ----------------------------------------
 BYTE   W96
// 033   ----------------------------------------
 BYTE   W96
// 034   ----------------------------------------
 BYTE   W96
// 035   ----------------------------------------
 BYTE   W96
// 036   ----------------------------------------
 BYTE   W96
// 037   ----------------------------------------
 BYTE   W96
// 038   ----------------------------------------
 BYTE   W96
// 039   ----------------------------------------
 BYTE   W96
// 040   ----------------------------------------
 BYTE   W96
// 041   ----------------------------------------
 BYTE   W96
// 042   ----------------------------------------
 BYTE   W96
// 043   ----------------------------------------
 BYTE   W96
// 044   ----------------------------------------
 BYTE   W96
// 045   ----------------------------------------
 BYTE   W96
// 046   ----------------------------------------
 BYTE   W96
// 047   ----------------------------------------
 BYTE   W96
// 048   ----------------------------------------
 BYTE   W96
// 049   ----------------------------------------
 BYTE   W96
// 050   ----------------------------------------
 BYTE   W96
// 051   ----------------------------------------
 BYTE   W96
// 052   ----------------------------------------
 BYTE   W96
 BYTE   PATT
  POIN2 Label_3_0190CDE2
// 053   ----------------------------------------
 BYTE   W96
// 054   ----------------------------------------
 BYTE   W72
 BYTE   N06  Cn4  v127
 BYTE   W24
// 055   ----------------------------------------
 BYTE   W96
// 056   ----------------------------------------
 BYTE   W96
// 057   ----------------------------------------
 BYTE   W96
// 058   ----------------------------------------
 BYTE   W96
// 059   ----------------------------------------
 BYTE   W96
// 060   ----------------------------------------
 BYTE   W96
// 061   ----------------------------------------
 BYTE   N06
 BYTE   W96
 BYTE   PATT
  POIN2 Label_3_0190CE01
 BYTE   PATT
  POIN2 Label_3_0190CE0C
// 062   ----------------------------------------
 BYTE   W72
 BYTE   N06  Cn4  v127
 BYTE   W24
// 063   ----------------------------------------
 BYTE   W96
// 064   ----------------------------------------
 BYTE   W96
// 065   ----------------------------------------
 BYTE   W96
// 066   ----------------------------------------
 BYTE   W96
// 067   ----------------------------------------
 BYTE   W96
// 068   ----------------------------------------
 BYTE   W96
// 069   ----------------------------------------
 BYTE   W96
// 070   ----------------------------------------
 BYTE   W96
// 071   ----------------------------------------
 BYTE   W96
// 072   ----------------------------------------
 BYTE   W96
// 073   ----------------------------------------
 BYTE   W96
// 074   ----------------------------------------
 BYTE   W96
// 075   ----------------------------------------
 BYTE   W96
// 076   ----------------------------------------
 BYTE   W96
// 077   ----------------------------------------
 BYTE   GoTo
  POIN2 Label_3_0190CDCA
 BYTE   FINE

//**************** Track 5 (Midi-Chn.4) ****************//

PaperMarioVsLavaPirahnaDolkar_005:
// 000   ----------------------------------------
 BYTE   KEYSH   PaperMarioVsLavaPirahnaDolkar_key+0
Label_4_0190CE6A:
 BYTE   VOICE   117
 BYTE   VOL   80*PaperMarioVsLavaPirahnaDolkar_mvl/mxv
 BYTE   W24
Label_4_0190CE6F:
 BYTE   W12
 BYTE   N06  Gn3  v092
 BYTE   W06
 BYTE   N06
 BYTE   W18
 BYTE   N06
 BYTE   W06
 BYTE   N06
 BYTE   W18
 BYTE   N06
 BYTE   W06
 BYTE   N06
 BYTE   W18
// 001   ----------------------------------------
 BYTE   N06
 BYTE   W12
 BYTE   PEND 
 BYTE   PATT
  POIN2 Label_4_0190CE6F
 BYTE   PATT
  POIN2 Label_4_0190CE6F
 BYTE   PATT
  POIN2 Label_4_0190CE6F
 BYTE   PATT
  POIN2 Label_4_0190CE6F
 BYTE   PATT
  POIN2 Label_4_0190CE6F
 BYTE   PATT
  POIN2 Label_4_0190CE6F
 BYTE   PATT
  POIN2 Label_4_0190CE6F
 BYTE   PATT
  POIN2 Label_4_0190CE6F
 BYTE   PATT
  POIN2 Label_4_0190CE6F
 BYTE   PATT
  POIN2 Label_4_0190CE6F
 BYTE   PATT
  POIN2 Label_4_0190CE6F
// 002   ----------------------------------------
 BYTE   W96
// 003   ----------------------------------------
 BYTE   W96
// 004   ----------------------------------------
 BYTE   W96
// 005   ----------------------------------------
 BYTE   W96
 BYTE   PATT
  POIN2 Label_4_0190CE6F
 BYTE   PATT
  POIN2 Label_4_0190CE6F
 BYTE   PATT
  POIN2 Label_4_0190CE6F
 BYTE   PATT
  POIN2 Label_4_0190CE6F
 BYTE   PATT
  POIN2 Label_4_0190CE6F
 BYTE   PATT
  POIN2 Label_4_0190CE6F
 BYTE   PATT
  POIN2 Label_4_0190CE6F
 BYTE   PATT
  POIN2 Label_4_0190CE6F
 BYTE   PATT
  POIN2 Label_4_0190CE6F
 BYTE   PATT
  POIN2 Label_4_0190CE6F
 BYTE   PATT
  POIN2 Label_4_0190CE6F
 BYTE   PATT
  POIN2 Label_4_0190CE6F
 BYTE   PATT
  POIN2 Label_4_0190CE6F
 BYTE   PATT
  POIN2 Label_4_0190CE6F
 BYTE   PATT
  POIN2 Label_4_0190CE6F
 BYTE   PATT
  POIN2 Label_4_0190CE6F
// 006   ----------------------------------------
 BYTE   W96
// 007   ----------------------------------------
 BYTE   W96
 BYTE   PATT
  POIN2 Label_4_0190CE6F
 BYTE   PATT
  POIN2 Label_4_0190CE6F
 BYTE   PATT
  POIN2 Label_4_0190CE6F
 BYTE   PATT
  POIN2 Label_4_0190CE6F
 BYTE   PATT
  POIN2 Label_4_0190CE6F
 BYTE   PATT
  POIN2 Label_4_0190CE6F
 BYTE   PATT
  POIN2 Label_4_0190CE6F
 BYTE   PATT
  POIN2 Label_4_0190CE6F
 BYTE   PATT
  POIN2 Label_4_0190CE6F
 BYTE   PATT
  POIN2 Label_4_0190CE6F
 BYTE   PATT
  POIN2 Label_4_0190CE6F
 BYTE   PATT
  POIN2 Label_4_0190CE6F
// 008   ----------------------------------------
 BYTE   W96
// 009   ----------------------------------------
 BYTE   W96
// 010   ----------------------------------------
 BYTE   W96
// 011   ----------------------------------------
 BYTE   W96
 BYTE   PATT
  POIN2 Label_4_0190CE6F
 BYTE   PATT
  POIN2 Label_4_0190CE6F
 BYTE   PATT
  POIN2 Label_4_0190CE6F
 BYTE   PATT
  POIN2 Label_4_0190CE6F
 BYTE   PATT
  POIN2 Label_4_0190CE6F
 BYTE   PATT
  POIN2 Label_4_0190CE6F
 BYTE   PATT
  POIN2 Label_4_0190CE6F
 BYTE   PATT
  POIN2 Label_4_0190CE6F
 BYTE   PATT
  POIN2 Label_4_0190CE6F
 BYTE   PATT
  POIN2 Label_4_0190CE6F
 BYTE   PATT
  POIN2 Label_4_0190CE6F
 BYTE   PATT
  POIN2 Label_4_0190CE6F
 BYTE   PATT
  POIN2 Label_4_0190CE6F
 BYTE   PATT
  POIN2 Label_4_0190CE6F
 BYTE   PATT
  POIN2 Label_4_0190CE6F
 BYTE   PATT
  POIN2 Label_4_0190CE6F
// 012   ----------------------------------------
 BYTE   W96
// 013   ----------------------------------------
 BYTE   W96
 BYTE   PATT
  POIN2 Label_4_0190CE6F
 BYTE   PATT
  POIN2 Label_4_0190CE6F
 BYTE   PATT
  POIN2 Label_4_0190CE6F
 BYTE   PATT
  POIN2 Label_4_0190CE6F
 BYTE   PATT
  POIN2 Label_4_0190CE6F
// 014   ----------------------------------------
 BYTE   W12
 BYTE   N06  Gn3  v092
 BYTE   W06
 BYTE   Gn3  v088
 BYTE   W18
 BYTE   N06
 BYTE   W06
 BYTE   Gn3  v084
 BYTE   W18
 BYTE   N06
 BYTE   W06
 BYTE   N06
 BYTE   W18
 BYTE   Gn3  v080
 BYTE   W12
// 015   ----------------------------------------
 BYTE   W12
 BYTE   Gn3  v076
 BYTE   W06
 BYTE   N06
 BYTE   W18
 BYTE   Gn3  v072
 BYTE   W06
 BYTE   N06
 BYTE   W18
 BYTE   N06
 BYTE   W06
 BYTE   Gn3  v068
 BYTE   W18
 BYTE   N06
 BYTE   W12
// 016   ----------------------------------------
 BYTE   W12
 BYTE   Gn3  v064
 BYTE   W06
 BYTE   N06
 BYTE   W18
 BYTE   Gn3  v060
 BYTE   W06
 BYTE   N06
 BYTE   W18
 BYTE   Gn3  v056
 BYTE   W06
 BYTE   N06
 BYTE   W18
 BYTE   N06
 BYTE   W12
// 017   ----------------------------------------
 BYTE   W12
 BYTE   Gn3  v052
 BYTE   W06
 BYTE   Gn3  v048
 BYTE   W18
 BYTE   N06
 BYTE   W06
 BYTE   N06
 BYTE   W18
 BYTE   Gn3  v044
 BYTE   W06
 BYTE   N06
 BYTE   W18
 BYTE   Gn3  v040
 BYTE   W12
// 018   ----------------------------------------
 BYTE   W12
 BYTE   Gn3  v036
 BYTE   W06
 BYTE   N06
 BYTE   W18
 BYTE   N06
 BYTE   W06
 BYTE   Gn3  v032
 BYTE   W18
 BYTE   N06
 BYTE   W06
 BYTE   N06
 BYTE   W18
 BYTE   Gn3  v028
 BYTE   W12
// 019   ----------------------------------------
 BYTE   W12
 BYTE   Gn3  v024
 BYTE   W06
 BYTE   N06
 BYTE   W18
 BYTE   Gn3  v020
 BYTE   W06
 BYTE   N06
 BYTE   W18
 BYTE   N06
 BYTE   W06
 BYTE   Gn3  v016
 BYTE   W18
 BYTE   N06
 BYTE   W12
// 020   ----------------------------------------
 BYTE   W12
 BYTE   Gn3  v012
 BYTE   W06
 BYTE   N06
 BYTE   W18
 BYTE   Gn3  v008
 BYTE   W06
 BYTE   N06
 BYTE   W18
 BYTE   Gn3  v004
 BYTE   W06
 BYTE   N06
 BYTE   W18
 BYTE   N06
 BYTE   W12
// 021   ----------------------------------------
 BYTE   GoTo
  POIN2 Label_4_0190CE6A
 BYTE   FINE

//**************** Track 6 (Midi-Chn.5) ****************//

PaperMarioVsLavaPirahnaDolkar_006:
// 000   ----------------------------------------
 BYTE   KEYSH   PaperMarioVsLavaPirahnaDolkar_key+0
Label_5_0190D042:
 BYTE   VOICE   127
 BYTE   VOL   80*PaperMarioVsLavaPirahnaDolkar_mvl/mxv
 BYTE   W24
Label_5_0190D047:
 BYTE   N12  Bn0  v100
 BYTE   N96  Cs2
 BYTE   N96  Gn2
 BYTE   N06  Cs3
 BYTE   N24  An3
 BYTE   W12
 BYTE   N06  Cn3
 BYTE   W12
 BYTE   N12  Bn0
 BYTE   N06  Cn3
 BYTE   W12
 BYTE   Cs3
 BYTE   W06
 BYTE   N06
 BYTE   W06
 BYTE   N12  Bn0
 BYTE   W12
 BYTE   N06  Cn3
 BYTE   W06
 BYTE   N06
 BYTE   W06
// 001   ----------------------------------------
 BYTE   N12  Bn0
 BYTE   W12
 BYTE   N06  Cs3
 BYTE   W06
 BYTE   N06
 BYTE   W06
 BYTE   PEND 
Label_5_0190D070:
 BYTE   N12  Bn0  v100
 BYTE   N96  An2  v080
 BYTE   N06  Cs3  v100
 BYTE   N24  An3
 BYTE   W12
 BYTE   N06  Cn3
 BYTE   W12
 BYTE   N12  Bn0
 BYTE   N06  Cn3
 BYTE   W12
 BYTE   Cs3
 BYTE   W06
 BYTE   N06
 BYTE   W06
 BYTE   N12  Bn0
 BYTE   W12
 BYTE   N06  Cn3
 BYTE   W06
 BYTE   N06
 BYTE   W06
// 002   ----------------------------------------
 BYTE   N12  Bn0
 BYTE   W12
 BYTE   N06  Cs3
 BYTE   W06
 BYTE   N06
 BYTE   W06
 BYTE   PEND 
Label_5_0190D099:
 BYTE   N12  Bn0  v100
 BYTE   N06  Cs3
 BYTE   N24  An3
 BYTE   W12
 BYTE   N06  Cn3
 BYTE   W12
 BYTE   N12  Bn0
 BYTE   N06  Cn3
 BYTE   W12
 BYTE   Cs3
 BYTE   W06
 BYTE   N06
 BYTE   W06
 BYTE   N12  Bn0
 BYTE   W12
 BYTE   N06  Cn3
 BYTE   W06
 BYTE   N06
 BYTE   W06
// 003   ----------------------------------------
 BYTE   N12  Bn0
 BYTE   W12
 BYTE   N06  Cs3
 BYTE   W06
 BYTE   N06
 BYTE   W06
 BYTE   PEND 
Label_5_0190D0BE:
 BYTE   N12  Bn0  v100
 BYTE   N06  Dn1
 BYTE   N06  En1
 BYTE   N96  An2  v080
 BYTE   N06  Cs3  v100
 BYTE   N24  An3
 BYTE   W12
 BYTE   N06  Cn3
 BYTE   W12
 BYTE   N12  Bn0
 BYTE   N06  Cn3
 BYTE   W12
 BYTE   Dn1
 BYTE   N06  En1
 BYTE   N06  Cs3
 BYTE   W06
 BYTE   N06
 BYTE   W06
 BYTE   N12  Bn0
 BYTE   W12
 BYTE   N06  Cn3
 BYTE   W06
 BYTE   Dn1  v108
 BYTE   N06  En1
 BYTE   N06  Cn3  v100
 BYTE   W06
// 004   ----------------------------------------
 BYTE   N12  Bn0
 BYTE   N06  Dn1  v112
 BYTE   N06  En1
 BYTE   W12
 BYTE   Dn1
 BYTE   N06  En1
 BYTE   N06  Cs3  v100
 BYTE   W06
 BYTE   N06
 BYTE   W06
 BYTE   PEND 
 BYTE   PATT
  POIN2 Label_5_0190D099
 BYTE   PATT
  POIN2 Label_5_0190D099
// 005   ----------------------------------------
Label_5_0190D108:
 BYTE   N12  Bn0  v100
 BYTE   N06  Dn1
 BYTE   N06  En1
 BYTE   N06  Cs3
 BYTE   N24  An3
 BYTE   W12
 BYTE   N06  Cn3
 BYTE   W12
 BYTE   N12  Bn0
 BYTE   N06  Cn3
 BYTE   W12
 BYTE   Dn1
 BYTE   N06  En1
 BYTE   N06  Cs3
 BYTE   W06
 BYTE   Dn1
 BYTE   N06  En1
 BYTE   N06  Cs3
 BYTE   W06
 BYTE   N12  Bn0
 BYTE   W12
 BYTE   N06  Cn3
 BYTE   W06
 BYTE   N06
 BYTE   W06
 BYTE   N12  Bn0
 BYTE   W12
 BYTE   N06  Dn1
 BYTE   N06  En1
 BYTE   N06  Cs3
 BYTE   W06
 BYTE   N06
 BYTE   W06
 BYTE   PEND 
 BYTE   PATT
  POIN2 Label_5_0190D099
 BYTE   PATT
  POIN2 Label_5_0190D099
 BYTE   PATT
  POIN2 Label_5_0190D099
 BYTE   PATT
  POIN2 Label_5_0190D099
 BYTE   PATT
  POIN2 Label_5_0190D099
// 006   ----------------------------------------
Label_5_0190D156:
 BYTE   N12  Bn0  v100
 BYTE   N06  Cs3
 BYTE   N12  Ds3  v108
 BYTE   N24  An3  v100
 BYTE   W12
 BYTE   N06  Cn3
 BYTE   N12  En3  v108
 BYTE   W12
 BYTE   Bn0  v100
 BYTE   N06  Cn3
 BYTE   N12  Ds3  v108
 BYTE   W12
 BYTE   N06  Cs3  v100
 BYTE   N06  Ds3  v108
 BYTE   W06
 BYTE   Cs3  v100
 BYTE   N06  En3  v108
 BYTE   W06
 BYTE   N12  Bn0  v100
 BYTE   W12
 BYTE   N06  Cn3
 BYTE   N12  Ds3  v108
 BYTE   W06
 BYTE   N06  Cn3  v100
 BYTE   W06
 BYTE   N12  Bn0
 BYTE   N12  Ds3  v108
 BYTE   W12
 BYTE   N06  Cs3  v100
 BYTE   N12  En3  v108
 BYTE   W06
 BYTE   N06  Cs3  v100
 BYTE   W06
 BYTE   PEND 
// 007   ----------------------------------------
Label_5_0190D19D:
 BYTE   N12  Bn0  v100
 BYTE   N06  Cs3
 BYTE   N12  Ds3  v108
 BYTE   N12  An3  v100
 BYTE   W12
 BYTE   N06  Cn3
 BYTE   N12  En3  v108
 BYTE   N12  An3  v100
 BYTE   W12
 BYTE   Bn0
 BYTE   N06  Cn3
 BYTE   N12  Ds3  v108
 BYTE   W12
 BYTE   N06  Cs3  v100
 BYTE   N06  Ds3  v108
 BYTE   W06
 BYTE   Cs3  v100
 BYTE   N06  En3  v108
 BYTE   W06
 BYTE   N12  Bn0  v100
 BYTE   W12
 BYTE   N06  Cn3
 BYTE   N12  Ds3  v108
 BYTE   N12  An3  v100
 BYTE   W06
 BYTE   N06  Cn3
 BYTE   W06
 BYTE   N12  Bn0
 BYTE   N12  Ds3  v108
 BYTE   W12
 BYTE   N06  Cs3  v100
 BYTE   N12  En3  v108
 BYTE   W06
 BYTE   N06  Cs3  v100
 BYTE   W06
 BYTE   PEND 
// 008   ----------------------------------------
Label_5_0190D1E8:
 BYTE   N12  Bn0  v100
 BYTE   N06  Cs3
 BYTE   N12  Ds3  v108
 BYTE   N12  An3  v100
 BYTE   W12
 BYTE   N06  Cn3
 BYTE   N12  En3  v108
 BYTE   W12
 BYTE   Bn0  v100
 BYTE   N06  Cn3
 BYTE   N12  Ds3  v108
 BYTE   N12  An3  v100
 BYTE   W12
 BYTE   N06  Cs3
 BYTE   N06  Ds3  v108
 BYTE   W06
 BYTE   Cs3  v100
 BYTE   N06  En3  v108
 BYTE   W06
 BYTE   N12  Bn0  v100
 BYTE   W12
 BYTE   N06  Cn3
 BYTE   N12  Ds3  v108
 BYTE   W06
 BYTE   N06  Cn3  v100
 BYTE   W06
 BYTE   N12  Bn0
 BYTE   N12  Ds3  v108
 BYTE   W12
 BYTE   N06  Cs3  v100
 BYTE   N12  En3  v108
 BYTE   N12  An3  v100
 BYTE   W06
 BYTE   N06  Cs3
 BYTE   W06
 BYTE   PEND 
// 009   ----------------------------------------
Label_5_0190D233:
 BYTE   N12  Bn0  v100
 BYTE   N06  Cs3
 BYTE   N12  Ds3  v108
 BYTE   N12  An3  v100
 BYTE   W12
 BYTE   N06  Cn3
 BYTE   N12  En3  v108
 BYTE   W12
 BYTE   Bn0  v100
 BYTE   N06  Cn3
 BYTE   N12  Ds3  v108
 BYTE   N12  An3  v100
 BYTE   W12
 BYTE   N06  Cs3
 BYTE   N06  Ds3  v108
 BYTE   W06
 BYTE   Cs3  v100
 BYTE   N06  En3  v108
 BYTE   W06
 BYTE   N12  Bn0  v100
 BYTE   N12  An3
 BYTE   W12
 BYTE   N06  Cn3
 BYTE   N12  Ds3  v108
 BYTE   W06
 BYTE   N06  Cn3  v100
 BYTE   W06
 BYTE   N12  Bn0
 BYTE   N12  Ds3  v108
 BYTE   W12
 BYTE   N06  Cs3  v100
 BYTE   N12  En3  v108
 BYTE   W06
 BYTE   N06  Cs3  v100
 BYTE   W06
 BYTE   PEND 
// 010   ----------------------------------------
Label_5_0190D27E:
 BYTE   N12  Bn0  v100
 BYTE   N06  Cs3
 BYTE   N24  An3
 BYTE   W12
 BYTE   N06  Cn3
 BYTE   W12
 BYTE   N12  Bn0
 BYTE   N06  Cn3
 BYTE   N12  An3
 BYTE   W12
 BYTE   N06  Cs3
 BYTE   W06
 BYTE   N06
 BYTE   W06
 BYTE   N12  Bn0
 BYTE   W12
 BYTE   N06  Cn3
 BYTE   N12  An3
 BYTE   W06
 BYTE   N06  Cn3
 BYTE   W06
 BYTE   N12  Bn0
 BYTE   W12
 BYTE   N06  Cs3
 BYTE   W06
 BYTE   N06
 BYTE   W06
 BYTE   PEND 
 BYTE   PATT
  POIN2 Label_5_0190D27E
 BYTE   PATT
  POIN2 Label_5_0190D27E
// 011   ----------------------------------------
Label_5_0190D2B3:
 BYTE   N12  Bn0  v100
 BYTE   N06  Cs3
 BYTE   N12  An3
 BYTE   W12
 BYTE   N06  Cn3
 BYTE   N12  An3
 BYTE   W12
 BYTE   Bn0
 BYTE   N06  Cn3
 BYTE   N12  An3
 BYTE   W12
 BYTE   N06  Cs3
 BYTE   W06
 BYTE   N06
 BYTE   W06
 BYTE   N12  Bn0
 BYTE   W12
 BYTE   N06  Cn3
 BYTE   N12  An3
 BYTE   W06
 BYTE   N06  Cn3
 BYTE   W06
 BYTE   N12  Bn0
 BYTE   W12
 BYTE   N06  Cs3
 BYTE   W06
 BYTE   N06
 BYTE   W06
 BYTE   PEND 
 BYTE   PATT
  POIN2 Label_5_0190D2B3
 BYTE   PATT
  POIN2 Label_5_0190D2B3
 BYTE   PATT
  POIN2 Label_5_0190D2B3
// 012   ----------------------------------------
Label_5_0190D2EE:
 BYTE   N12  Bn0  v100
 BYTE   N06  Cs3
 BYTE   N24  An3
 BYTE   W12
 BYTE   N06  Cn3
 BYTE   W12
 BYTE   N12  Bn0
 BYTE   N06  Cn3
 BYTE   N12  An3
 BYTE   W12
 BYTE   N06  Cs3
 BYTE   W06
 BYTE   N06
 BYTE   W06
 BYTE   N12  Bn0
 BYTE   N12  An3
 BYTE   W12
 BYTE   N06  Cn3
 BYTE   W06
 BYTE   N06
 BYTE   W06
 BYTE   N12  Bn0
 BYTE   N12  An3
 BYTE   W12
 BYTE   N06  Cs3
 BYTE   N12  An3
 BYTE   W06
 BYTE   N06  Cs3
 BYTE   W06
 BYTE   PEND 
 BYTE   PATT
  POIN2 Label_5_0190D2B3
// 013   ----------------------------------------
Label_5_0190D322:
 BYTE   N12  Bn0  v100
 BYTE   N06  Cs3
 BYTE   N24  An3
 BYTE   W12
 BYTE   N06  Cn3
 BYTE   W12
 BYTE   N12  Bn0
 BYTE   N06  Cn3
 BYTE   W12
 BYTE   Cs3
 BYTE   W06
 BYTE   N06
 BYTE   W06
 BYTE   N12  Bn0
 BYTE   W12
 BYTE   N06  Cn3
 BYTE   W06
 BYTE   N06
 BYTE   W06
 BYTE   N12  Bn0
 BYTE   N12  An3
 BYTE   W12
 BYTE   N06  Cs3
 BYTE   W06
 BYTE   N06
 BYTE   W06
 BYTE   PEND 
// 014   ----------------------------------------
Label_5_0190D349:
 BYTE   N12  Bn0  v100
 BYTE   N96  An2  v080
 BYTE   N06  Cs3  v100
 BYTE   N12  An3
 BYTE   W06
 BYTE   N06  Cn2  v092
 BYTE   W06
 BYTE   Cn2  v100
 BYTE   N06  Cn3
 BYTE   N12  An3
 BYTE   W12
 BYTE   Bn0
 BYTE   N06  Fn1
 BYTE   N06  Cn3
 BYTE   W12
 BYTE   An1  v092
 BYTE   N06  Cs3  v100
 BYTE   W06
 BYTE   An1
 BYTE   N06  Cs3
 BYTE   W06
 BYTE   N12  Bn0
 BYTE   W06
 BYTE   N06  An1
 BYTE   W06
 BYTE   Fn1
 BYTE   N06  Cn3
 BYTE   W06
 BYTE   N06
 BYTE   W06
 BYTE   N12  Bn0
 BYTE   N06  Fn1
 BYTE   N12  An3
 BYTE   W12
 BYTE   N06  Gn1
 BYTE   N06  Cs3
 BYTE   W06
 BYTE   Bn1  v112
 BYTE   N06  Cs3  v100
 BYTE   W06
 BYTE   PEND 
// 015   ----------------------------------------
Label_5_0190D38F:
 BYTE   N12  Bn0  v100
 BYTE   N06  Cs3
 BYTE   N24  An3
 BYTE   W06
 BYTE   N06  Cn2  v092
 BYTE   W06
 BYTE   Cn2  v100
 BYTE   N06  Cn3
 BYTE   W12
 BYTE   N12  Bn0
 BYTE   N06  Fn1
 BYTE   N06  Cn3
 BYTE   N12  An3
 BYTE   W12
 BYTE   N06  An1  v092
 BYTE   N06  Cs3  v100
 BYTE   W06
 BYTE   An1
 BYTE   N06  Cs3
 BYTE   W06
 BYTE   N12  Bn0
 BYTE   N12  An3
 BYTE   W06
 BYTE   N06  An1
 BYTE   W06
 BYTE   Fn1
 BYTE   N06  Cn3
 BYTE   W06
 BYTE   N06
 BYTE   W06
 BYTE   N12  Bn0
 BYTE   N06  Fn1
 BYTE   N12  An3
 BYTE   W12
 BYTE   N06  Gn1
 BYTE   N06  Cs3
 BYTE   W06
 BYTE   Bn1  v112
 BYTE   N06  Cs3  v100
 BYTE   W06
 BYTE   PEND 
// 016   ----------------------------------------
Label_5_0190D3D5:
 BYTE   N12  Bn0  v100
 BYTE   N06  Cs3
 BYTE   N24  An3
 BYTE   W06
 BYTE   N06  Cn2  v092
 BYTE   W06
 BYTE   Cn2  v100
 BYTE   N06  Cn3
 BYTE   W12
 BYTE   N12  Bn0
 BYTE   N06  Fn1
 BYTE   N06  Cn3
 BYTE   N12  An3
 BYTE   W12
 BYTE   N06  An1  v092
 BYTE   N06  Cs3  v100
 BYTE   W06
 BYTE   An1
 BYTE   N06  Cs3
 BYTE   W06
 BYTE   N12  Bn0
 BYTE   W06
 BYTE   N06  An1
 BYTE   W06
 BYTE   Fn1
 BYTE   N06  Cn3
 BYTE   N12  An3
 BYTE   W06
 BYTE   N06  Cn3
 BYTE   W06
 BYTE   N12  Bn0
 BYTE   N06  Fn1
 BYTE   W12
 BYTE   Gn1
 BYTE   N06  Cs3
 BYTE   N12  An3
 BYTE   W06
 BYTE   N06  Bn1  v112
 BYTE   N06  Cs3  v100
 BYTE   W06
 BYTE   PEND 
// 017   ----------------------------------------
Label_5_0190D41C:
 BYTE   N12  Bn0  v100
 BYTE   N06  Cs3
 BYTE   W06
 BYTE   Cn2  v092
 BYTE   W06
 BYTE   Cn2  v100
 BYTE   N06  Cn3
 BYTE   W12
 BYTE   N12  Bn0
 BYTE   N06  Fn1
 BYTE   N06  Cn3
 BYTE   N12  An3
 BYTE   W12
 BYTE   N06  An1  v092
 BYTE   N06  Cs3  v100
 BYTE   W06
 BYTE   An1
 BYTE   N06  Cs3
 BYTE   W06
 BYTE   N12  Bn0
 BYTE   W06
 BYTE   N06  An1
 BYTE   W06
 BYTE   Fn1
 BYTE   N06  Cn3
 BYTE   N12  An3
 BYTE   W06
 BYTE   N06  Cn3
 BYTE   W06
 BYTE   N12  Bn0
 BYTE   N06  Fn1
 BYTE   W12
 BYTE   Gn1
 BYTE   N06  Cs3
 BYTE   W06
 BYTE   Bn1  v112
 BYTE   N06  Cs3  v100
 BYTE   W06
 BYTE   PEND 
// 018   ----------------------------------------
Label_5_0190D45D:
 BYTE   N12  Bn0  v100
 BYTE   N06  Cs3
 BYTE   N12  An3
 BYTE   W06
 BYTE   N06  Cn2  v092
 BYTE   W06
 BYTE   Cn2  v100
 BYTE   N06  Cn3
 BYTE   W12
 BYTE   N12  Bn0
 BYTE   N06  Fn1
 BYTE   N06  Cn3
 BYTE   N12  An3
 BYTE   W12
 BYTE   N06  An1  v092
 BYTE   N06  Cs3  v100
 BYTE   W06
 BYTE   An1
 BYTE   N06  Cs3
 BYTE   W06
 BYTE   N12  Bn0
 BYTE   W06
 BYTE   N06  An1
 BYTE   W06
 BYTE   Fn1
 BYTE   N06  Cn3
 BYTE   N12  An3
 BYTE   W06
 BYTE   N06  Cn3
 BYTE   W06
 BYTE   N12  Bn0
 BYTE   N06  Fn1
 BYTE   W12
 BYTE   Gn1
 BYTE   N06  Cs3
 BYTE   W06
 BYTE   Bn1  v112
 BYTE   N06  Cs3  v100
 BYTE   W06
 BYTE   PEND 
 BYTE   PATT
  POIN2 Label_5_0190D45D
// 019   ----------------------------------------
Label_5_0190D4A6:
 BYTE   N12  Bn0  v100
 BYTE   N12  An3
 BYTE   W06
 BYTE   N06  Cn2  v092
 BYTE   W06
 BYTE   Cn2  v100
 BYTE   W12
 BYTE   N12  Bn0
 BYTE   N06  Fn1
 BYTE   W12
 BYTE   An1  v092
 BYTE   W06
 BYTE   An1  v100
 BYTE   W06
 BYTE   N12  Bn0
 BYTE   W06
 BYTE   N06  An1
 BYTE   W06
 BYTE   Fn1
 BYTE   W12
 BYTE   N12  Bn0
 BYTE   N06  Fn1
 BYTE   W12
 BYTE   Gn1
 BYTE   W06
 BYTE   Bn1  v112
 BYTE   W06
 BYTE   PEND 
// 020   ----------------------------------------
Label_5_0190D4D1:
 BYTE   W48
 BYTE   N06  Bn0  v124
 BYTE   W06
 BYTE   Dn1  v100
 BYTE   N06  En1
 BYTE   W30
 BYTE   Dn1  v092
 BYTE   N06  En1
 BYTE   W06
 BYTE   Dn1  v108
 BYTE   N06  En1
 BYTE   W06
 BYTE   PEND 
 BYTE   PATT
  POIN2 Label_5_0190D047
 BYTE   PATT
  POIN2 Label_5_0190D070
 BYTE   PATT
  POIN2 Label_5_0190D099
 BYTE   PATT
  POIN2 Label_5_0190D0BE
 BYTE   PATT
  POIN2 Label_5_0190D099
 BYTE   PATT
  POIN2 Label_5_0190D099
 BYTE   PATT
  POIN2 Label_5_0190D108
 BYTE   PATT
  POIN2 Label_5_0190D099
 BYTE   PATT
  POIN2 Label_5_0190D099
 BYTE   PATT
  POIN2 Label_5_0190D099
 BYTE   PATT
  POIN2 Label_5_0190D099
 BYTE   PATT
  POIN2 Label_5_0190D099
 BYTE   PATT
  POIN2 Label_5_0190D156
 BYTE   PATT
  POIN2 Label_5_0190D19D
 BYTE   PATT
  POIN2 Label_5_0190D1E8
 BYTE   PATT
  POIN2 Label_5_0190D233
 BYTE   PATT
  POIN2 Label_5_0190D27E
 BYTE   PATT
  POIN2 Label_5_0190D27E
 BYTE   PATT
  POIN2 Label_5_0190D27E
 BYTE   PATT
  POIN2 Label_5_0190D2B3
 BYTE   PATT
  POIN2 Label_5_0190D2B3
 BYTE   PATT
  POIN2 Label_5_0190D2B3
 BYTE   PATT
  POIN2 Label_5_0190D2B3
 BYTE   PATT
  POIN2 Label_5_0190D2EE
 BYTE   PATT
  POIN2 Label_5_0190D2B3
 BYTE   PATT
  POIN2 Label_5_0190D322
 BYTE   PATT
  POIN2 Label_5_0190D349
 BYTE   PATT
  POIN2 Label_5_0190D38F
 BYTE   PATT
  POIN2 Label_5_0190D3D5
 BYTE   PATT
  POIN2 Label_5_0190D41C
 BYTE   PATT
  POIN2 Label_5_0190D45D
 BYTE   PATT
  POIN2 Label_5_0190D45D
 BYTE   PATT
  POIN2 Label_5_0190D4A6
 BYTE   PATT
  POIN2 Label_5_0190D4D1
 BYTE   PATT
  POIN2 Label_5_0190D047
 BYTE   PATT
  POIN2 Label_5_0190D070
 BYTE   PATT
  POIN2 Label_5_0190D099
 BYTE   PATT
  POIN2 Label_5_0190D0BE
 BYTE   PATT
  POIN2 Label_5_0190D099
// 021   ----------------------------------------
 BYTE   N12  Bn0  v100
 BYTE   N06  Cs3
 BYTE   N24  An3
 BYTE   W12
 BYTE   N06  Cn3
 BYTE   W12
 BYTE   N12  Bn0
 BYTE   N06  Cn3
 BYTE   W12
 BYTE   Cs3  v096
 BYTE   W06
 BYTE   N06
 BYTE   W06
 BYTE   N12  Bn0
 BYTE   W12
 BYTE   N06  Cn3  v092
 BYTE   W06
 BYTE   N06
 BYTE   W06
 BYTE   N12  Bn0
 BYTE   W12
 BYTE   N06  Cs3  v088
 BYTE   W06
 BYTE   N06
 BYTE   W06
// 022   ----------------------------------------
 BYTE   N12  Bn0
 BYTE   N06  Dn1
 BYTE   N06  En1
 BYTE   N06  Cs3
 BYTE   N24  An3
 BYTE   W12
 BYTE   N06  Cn3  v084
 BYTE   W12
 BYTE   N12  Bn0
 BYTE   N06  Cn3
 BYTE   W12
 BYTE   Dn1  v080
 BYTE   N06  En1
 BYTE   N06  Cs3  v084
 BYTE   W06
 BYTE   Dn1  v080
 BYTE   N06  En1
 BYTE   N06  Cs3
 BYTE   W06
 BYTE   N12  Bn0
 BYTE   W12
 BYTE   N06  Cn3
 BYTE   W06
 BYTE   Cn3  v076
 BYTE   W06
 BYTE   N12  Bn0
 BYTE   W12
 BYTE   N06  Dn1  v072
 BYTE   N06  En1
 BYTE   N06  Cs3  v076
 BYTE   W06
 BYTE   N06
 BYTE   W06
// 023   ----------------------------------------
 BYTE   N12  Bn0  v072
 BYTE   N06  Cs3
 BYTE   N24  An3
 BYTE   W12
 BYTE   N06  Cn3
 BYTE   W12
 BYTE   N12  Bn0  v068
 BYTE   N06  Cn3
 BYTE   W12
 BYTE   Cs3
 BYTE   W06
 BYTE   N06
 BYTE   W06
 BYTE   N12  Bn0  v064
 BYTE   W12
 BYTE   N06  Cn3
 BYTE   W06
 BYTE   N06
 BYTE   W06
 BYTE   N12  Bn0
 BYTE   W12
 BYTE   N06  Cs3  v060
 BYTE   W06
 BYTE   N06
 BYTE   W06
// 024   ----------------------------------------
 BYTE   N12  Bn0
 BYTE   N06  Cs3
 BYTE   N24  An3
 BYTE   W12
 BYTE   N06  Cn3  v056
 BYTE   W12
 BYTE   N12  Bn0
 BYTE   N06  Cn3
 BYTE   W12
 BYTE   Cs3  v052
 BYTE   W06
 BYTE   N06
 BYTE   W06
 BYTE   N12  Bn0
 BYTE   W12
 BYTE   N06  Cn3  v048
 BYTE   W06
 BYTE   N06
 BYTE   W06
 BYTE   N12  Bn0
 BYTE   W12
 BYTE   N06  Cs3
 BYTE   W06
 BYTE   Cs3  v044
 BYTE   W06
// 025   ----------------------------------------
 BYTE   N12  Bn0
 BYTE   N06  Cs3
 BYTE   N24  An3
 BYTE   W12
 BYTE   N06  Cn3
 BYTE   W12
 BYTE   N12  Bn0  v040
 BYTE   N06  Cn3
 BYTE   W12
 BYTE   Cs3
 BYTE   W06
 BYTE   Cs3  v036
 BYTE   W06
 BYTE   N12  Bn0
 BYTE   W12
 BYTE   N06  Cn3
 BYTE   W06
 BYTE   N06
 BYTE   W06
 BYTE   N12  Bn0  v032
 BYTE   W12
 BYTE   N06  Cs3
 BYTE   W06
 BYTE   Cs3  v028
 BYTE   W06
// 026   ----------------------------------------
 BYTE   N12  Bn0
 BYTE   N06  Cs3
 BYTE   N24  An3
 BYTE   W12
 BYTE   N06  Cn3
 BYTE   W12
 BYTE   N12  Bn0
 BYTE   N06  Cn3
 BYTE   W12
 BYTE   Cs3  v024
 BYTE   W06
 BYTE   N06
 BYTE   W06
 BYTE   N12  Bn0
 BYTE   W12
 BYTE   N06  Cn3  v020
 BYTE   W06
 BYTE   N06
 BYTE   W06
 BYTE   N12  Bn0
 BYTE   W12
 BYTE   N06  Cs3  v016
 BYTE   W06
 BYTE   N06
 BYTE   W06
// 027   ----------------------------------------
 BYTE   N12  Bn0
 BYTE   N06  Cs3
 BYTE   N24  An3
 BYTE   W12
 BYTE   N06  Cn3  v012
 BYTE   W12
 BYTE   N12  Bn0
 BYTE   N06  Cn3
 BYTE   W12
 BYTE   Cs3  v008
 BYTE   W06
 BYTE   N06
 BYTE   W06
 BYTE   N12  Bn0
 BYTE   W12
 BYTE   N06  Cn3
 BYTE   W06
 BYTE   Cn3  v004
 BYTE   W06
 BYTE   N12  Bn0
 BYTE   W12
 BYTE   N06  Cs3
 BYTE   W06
 BYTE   N06
 BYTE   W06
// 028   ----------------------------------------
 BYTE   GoTo
  POIN2 Label_5_0190D042
 BYTE   FINE

//******************************************************//
	ALIGN 4

PaperMarioVsLavaPirahnaDolkar:
	BYTE	6	// NumTrks
	BYTE	0	// NumBlks
	BYTE	PaperMarioVsLavaPirahnaDolkar_pri	// Priority
	BYTE	PaperMarioVsLavaPirahnaDolkar_rev	// Reverb.
    
	POIN2	PaperMarioVsLavaPirahnaDolkar_grp
    
	POIN2	PaperMarioVsLavaPirahnaDolkar_001
	POIN2	PaperMarioVsLavaPirahnaDolkar_002
	POIN2	PaperMarioVsLavaPirahnaDolkar_003
	POIN2	PaperMarioVsLavaPirahnaDolkar_004
	POIN2	PaperMarioVsLavaPirahnaDolkar_005
	POIN2	PaperMarioVsLavaPirahnaDolkar_006

	
