//Event file generated from Sappy .s format.
	#include "MPlayDef.event"

	#define	SuperMarioBros2OverworldPandan_grp  voicegroup000
	#define	SuperMarioBros2OverworldPandan_pri  0
	#define	SuperMarioBros2OverworldPandan_rev  0
	#define	SuperMarioBros2OverworldPandan_mvl  127
	#define	SuperMarioBros2OverworldPandan_key  0
	#define	SuperMarioBros2OverworldPandan_tbs  1
	#define	SuperMarioBros2OverworldPandan_exg  0
	#define	SuperMarioBros2OverworldPandan_cmp  1

	// .rodata
	//	SuperMarioBros2OverworldPandan
	ALIGN 4


//**************** Track 1 (Midi-Chn.0) ****************//

SuperMarioBros2OverworldPandan_001:
// 000   ----------------------------------------
 BYTE   KEYSH   SuperMarioBros2OverworldPandan_key+0
Label_0_0117BEE6:
 BYTE   TEMPO   180*SuperMarioBros2OverworldPandan_tbs/2
 BYTE   VOICE   4
 BYTE   VOL   45*SuperMarioBros2OverworldPandan_mvl/mxv
 BYTE   PAN   c_v+0
 BYTE   N13  Gn3  v127
 BYTE   W15
 BYTE   N12  Cn3
 BYTE   W09
 BYTE   N14  En3
 BYTE   W15
 BYTE   N21  Gn3
 BYTE   W24
 BYTE   N11  Cn3
 BYTE   W09
 BYTE   N16  En3
 BYTE   W15
 BYTE   N12  Gn3
 BYTE   W09
// 001   ----------------------------------------
Label_0_0117BF04:
 BYTE   N12  Cn3  v127
 BYTE   W09
 BYTE   N11  En3
 BYTE   W06
 BYTE   N08  Gn3
 BYTE   W09
 BYTE   N18  Bn3
 BYTE   W15
 BYTE   N40  An3
 BYTE   W48
 BYTE   W03
 BYTE   N05  Cn3
 BYTE   W06
 BYTE   PEND 
// 002   ----------------------------------------
Label_0_0117BF19:
 BYTE   VOL   45*SuperMarioBros2OverworldPandan_mvl/mxv
 BYTE   N13  Gn3  v127
 BYTE   W15
 BYTE   N12  Cn3
 BYTE   W09
 BYTE   N14  En3
 BYTE   W15
 BYTE   N21  Gn3
 BYTE   W24
 BYTE   N11  Cn3
 BYTE   W09
 BYTE   N16  En3
 BYTE   W15
 BYTE   N12  Gn3
 BYTE   W09
 BYTE   PEND 
// 003   ----------------------------------------
Label_0_0117BF32:
 BYTE   N12  Cs3  v127
 BYTE   W09
 BYTE   N11  En3
 BYTE   W06
 BYTE   N08  Gn3
 BYTE   W09
 BYTE   N18  Bn3
 BYTE   W14
 BYTE   N40  An3
 BYTE   W52
 BYTE   N01  Bn3
 BYTE   W06
 BYTE   PEND 
// 004   ----------------------------------------
Label_0_0117BF46:
 BYTE   N15  Cn4  v127
 BYTE   W17
 BYTE   N08  Bn3
 BYTE   W07
 BYTE   N12  Cn4
 BYTE   W16
 BYTE   N20  An3
 BYTE   W23
 BYTE   N10  Cn4
 BYTE   W08
 BYTE   N13  Bn3
 BYTE   W15
 BYTE   N09  An3
 BYTE   W10
 BYTE   PEND 
// 005   ----------------------------------------
Label_0_0117BF5D:
 BYTE   N14  Gn3  v127
 BYTE   W15
 BYTE   N08  Fs3
 BYTE   W09
 BYTE   N14  Gn3
 BYTE   W15
 BYTE   N23  En3
 BYTE   W24
 BYTE   N09  Cn3
 BYTE   W09
 BYTE   N14  Dn3
 BYTE   W15
 BYTE   N08  En3
 BYTE   W09
 BYTE   PEND 
// 006   ----------------------------------------
Label_0_0117BF74:
 BYTE   N14  Fn3  v127
 BYTE   W13
 BYTE   N08  En3
 BYTE   W10
 BYTE   N12  Fn3
 BYTE   W15
 BYTE   N17  Bn2
 BYTE   W24
 BYTE   W01
 BYTE   N09  En3
 BYTE   W09
 BYTE   N12  Dn3
 BYTE   W24
 BYTE   PEND 
// 007   ----------------------------------------
Label_0_0117BF89:
 BYTE   N76  En2  v127
 BYTE   N78  Cn3
 BYTE   W96
 BYTE   PEND 
// 008   ----------------------------------------
Label_0_0117BF90:
 BYTE   W15
 BYTE   N17  Cn4  v127
 BYTE   N17  En4
 BYTE   W32
 BYTE   W01
 BYTE   N07  Gn4
 BYTE   W01
 BYTE   N06  En4
 BYTE   W23
 BYTE   N04
 BYTE   N03  An4
 BYTE   W15
 BYTE   N40  Gn4
 BYTE   N40  Cn5
 BYTE   W09
 BYTE   PEND 
// 009   ----------------------------------------
Label_0_0117BFA8:
 BYTE   W48
 BYTE   N13  En4  v127
 BYTE   N16  An4
 BYTE   W15
 BYTE   N04  Gn4
 BYTE   W09
 BYTE   En4
 BYTE   W01
 BYTE   Cn4
 BYTE   W14
 BYTE   N11
 BYTE   W09
 BYTE   PEND 
// 010   ----------------------------------------
Label_0_0117BFB9:
 BYTE   N11  An3  v127
 BYTE   N15  Dn4
 BYTE   W16
 BYTE   N09  En4
 BYTE   W08
 BYTE   N11  An3
 BYTE   W01
 BYTE   N12  Dn4
 BYTE   W14
 BYTE   N11  En4
 BYTE   W09
 BYTE   N05  An3
 BYTE   N04  Dn4
 BYTE   W16
 BYTE   N03  Fs3
 BYTE   N03  An3
 BYTE   W24
 BYTE   N16
 BYTE   N20  Dn4
 BYTE   W08
 BYTE   PEND 
// 011   ----------------------------------------
Label_0_0117BFDA:
 BYTE   W17
 BYTE   N06  An3  v127
 BYTE   W08
 BYTE   N04  Dn4
 BYTE   W05
 BYTE   N03  An3
 BYTE   W05
 BYTE   Dn4
 BYTE   W05
 BYTE   An3
 BYTE   W05
 BYTE   N04  Dn4
 BYTE   W05
 BYTE   An3
 BYTE   W05
 BYTE   Dn4
 BYTE   W06
 BYTE   An3
 BYTE   W04
 BYTE   N05  Dn4
 BYTE   W22
 BYTE   N20  Gn3
 BYTE   N20  Dn4
 BYTE   W09
 BYTE   PEND 
// 012   ----------------------------------------
Label_0_0117BFFB:
 BYTE   W14
 BYTE   N10  En4  v127
 BYTE   W08
 BYTE   N13  Gn3
 BYTE   W01
 BYTE   Dn4
 BYTE   W15
 BYTE   N11  En4
 BYTE   W10
 BYTE   Gn3
 BYTE   N14  Dn4
 BYTE   W15
 BYTE   N11  En4
 BYTE   W24
 BYTE   W01
 BYTE   N24
 BYTE   N24  An4
 BYTE   W08
 BYTE   PEND 
// 013   ----------------------------------------
Label_0_0117C015:
 BYTE   W15
 BYTE   N10  Gn4  v127
 BYTE   W09
 BYTE   N15  An4
 BYTE   W15
 BYTE   N04  Gn4
 BYTE   W09
 BYTE   N09  Cn4
 BYTE   N09  En4
 BYTE   W16
 BYTE   N08  Dn4
 BYTE   W08
 BYTE   N05  Cn4
 BYTE   W17
 BYTE   N07  Gn3
 BYTE   N11  En4
 BYTE   W07
 BYTE   PEND 
// 014   ----------------------------------------
Label_0_0117C031:
 BYTE   W15
 BYTE   N05  Gn3  v127
 BYTE   W07
 BYTE   N04  En4
 BYTE   W06
 BYTE   N02  Gn3
 BYTE   W05
 BYTE   N03  En4
 BYTE   W04
 BYTE   N01  Gn3
 BYTE   W04
 BYTE   N02  En4
 BYTE   W03
 BYTE   N04  Gn3
 BYTE   W06
 BYTE   N03  En4
 BYTE   W05
 BYTE   N04  Gn3
 BYTE   W05
 BYTE   N05  En4
 BYTE   W05
 BYTE   N03  Gn3
 BYTE   W04
 BYTE   N05  En4
 BYTE   W05
 BYTE   N03  Gn3
 BYTE   W22
 BYTE   PEND 
// 015   ----------------------------------------
 BYTE   W96
// 016   ----------------------------------------
 BYTE   PATT
  POIN2 Label_0_0117BF90
// 017   ----------------------------------------
 BYTE   PATT
  POIN2 Label_0_0117BFA8
// 018   ----------------------------------------
 BYTE   PATT
  POIN2 Label_0_0117BFB9
// 019   ----------------------------------------
 BYTE   PATT
  POIN2 Label_0_0117BFDA
// 020   ----------------------------------------
Label_0_0117C070:
 BYTE   W14
 BYTE   N10  En4  v127
 BYTE   W08
 BYTE   N13  Gn3
 BYTE   W01
 BYTE   Dn4
 BYTE   W15
 BYTE   N11  En4
 BYTE   W10
 BYTE   Gn3
 BYTE   N14  Dn4
 BYTE   W15
 BYTE   N11  En4
 BYTE   W24
 BYTE   W01
 BYTE   N24  Dn4
 BYTE   N24  An4
 BYTE   W08
 BYTE   PEND 
// 021   ----------------------------------------
Label_0_0117C08B:
 BYTE   W14
 BYTE   N08  Gn4  v127
 BYTE   W10
 BYTE   N10  Dn4
 BYTE   N14  An4
 BYTE   W14
 BYTE   N08  Gn4
 BYTE   W09
 BYTE   N13  Dn4
 BYTE   N15  An4
 BYTE   W15
 BYTE   N10  Gn4
 BYTE   W10
 BYTE   N12  En4
 BYTE   W15
 BYTE   N07  En3
 BYTE   N11  Cn4
 BYTE   W09
 BYTE   PEND 
// 022   ----------------------------------------
Label_0_0117C0A9:
 BYTE   W40
 BYTE   N07  Fs3  v127
 BYTE   W08
 BYTE   N17  Gn3
 BYTE   W15
 BYTE   N12  An3
 BYTE   W08
 BYTE   N06  Fn3
 BYTE   W01
 BYTE   N09  Bn3
 BYTE   W14
 BYTE   N07  En3
 BYTE   W01
 BYTE   Cn4
 BYTE   W09
 BYTE   PEND 
// 023   ----------------------------------------
Label_0_0117C0C0:
 BYTE   W36
 BYTE   W02
 BYTE   N06  En3  v127
 BYTE   N06  Cn4
 BYTE   W48
 BYTE   W01
 BYTE   N28  En3
 BYTE   W09
 BYTE   PEND 
// 024   ----------------------------------------
Label_0_0117C0CD:
 BYTE   W14
 BYTE   N13  Fn3  v127
 BYTE   W10
 BYTE   N17  En3
 BYTE   W17
 BYTE   N08  Ds3
 BYTE   W07
 BYTE   N17  En3
 BYTE   W15
 BYTE   N10  Fn3
 BYTE   W09
 BYTE   N08  En3
 BYTE   W13
 BYTE   N32  Bn3
 BYTE   W01
 BYTE   N36  En3
 BYTE   W10
 BYTE   PEND 
// 025   ----------------------------------------
Label_0_0117C0E8:
 BYTE   W24
 BYTE   N22  Gs3  v127
 BYTE   W24
 BYTE   N24  Fn3
 BYTE   W24
 BYTE   N20  En3
 BYTE   W24
 BYTE   PEND 
// 026   ----------------------------------------
Label_0_0117C0F4:
 BYTE   N06  Dn3  v127
 BYTE   W06
 BYTE   N10  En3
 BYTE   W07
 BYTE   Dn3
 BYTE   W08
 BYTE   N08  Cn3
 BYTE   W03
 BYTE   N20  Bn2
 BYTE   W18
 BYTE   N08  Cn3
 BYTE   W06
 BYTE   N14  Dn3
 BYTE   W15
 BYTE   N08  Cn3
 BYTE   W09
 BYTE   N11  Bn2
 BYTE   W14
 BYTE   N28  Cn3
 BYTE   W10
 BYTE   PEND 
// 027   ----------------------------------------
Label_0_0117C113:
 BYTE   W36
 BYTE   W03
 BYTE   N17  An2  v127
 BYTE   N09  Cn3
 BYTE   W09
 BYTE   N20  Bn2
 BYTE   W24
 BYTE   N16  Cn3
 BYTE   W01
 BYTE   N15  An2
 BYTE   W23
 BYTE   PEND 
// 028   ----------------------------------------
Label_0_0117C125:
 BYTE   W15
 BYTE   N30  Dn3  v127
 BYTE   W32
 BYTE   W01
 BYTE   N15  Cs3
 BYTE   W23
 BYTE   N04  Dn3
 BYTE   W16
 BYTE   N28  Fs3
 BYTE   N32  An3
 BYTE   W09
 BYTE   PEND 
// 029   ----------------------------------------
Label_0_0117C137:
 BYTE   W24
 BYTE   N24  Fs3  v127
 BYTE   W24
 BYTE   N23  Gn3
 BYTE   W24
 BYTE   N22  An3
 BYTE   W24
 BYTE   PEND 
// 030   ----------------------------------------
Label_0_0117C143:
 BYTE   N24  Bn3  v127
 BYTE   W18
 BYTE   N07  As2
 BYTE   W06
 BYTE   N08  Bn2
 BYTE   W15
 BYTE   N11  Bn3
 BYTE   W09
 BYTE   N24  An3
 BYTE   W18
 BYTE   N08  Gs2
 BYTE   W06
 BYTE   N09  An2
 BYTE   W15
 BYTE   N08  An3
 BYTE   W09
 BYTE   PEND 
// 031   ----------------------------------------
Label_0_0117C15D:
 BYTE   N17  Gs3  v127
 BYTE   W18
 BYTE   N06  Gn2
 BYTE   W06
 BYTE   N07  Gs2
 BYTE   N14  Gs3
 BYTE   W18
 BYTE   N20  Gn2
 BYTE   N23  Gn3
 BYTE   W21
 BYTE   N10  Dn3
 BYTE   W09
 BYTE   N17  Dn2
 BYTE   N15  Bn2
 BYTE   W16
 BYTE   N09  Gn2
 BYTE   W08
 BYTE   PEND 
// 032   ----------------------------------------
 BYTE   PATT
  POIN2 Label_0_0117BF19
// 033   ----------------------------------------
 BYTE   PATT
  POIN2 Label_0_0117BF04
// 034   ----------------------------------------
 BYTE   PATT
  POIN2 Label_0_0117BF19
// 035   ----------------------------------------
 BYTE   PATT
  POIN2 Label_0_0117BF32
// 036   ----------------------------------------
 BYTE   PATT
  POIN2 Label_0_0117BF46
// 037   ----------------------------------------
 BYTE   PATT
  POIN2 Label_0_0117BF5D
// 038   ----------------------------------------
 BYTE   PATT
  POIN2 Label_0_0117BF74
// 039   ----------------------------------------
 BYTE   PATT
  POIN2 Label_0_0117BF89
// 040   ----------------------------------------
 BYTE   PATT
  POIN2 Label_0_0117BF90
// 041   ----------------------------------------
 BYTE   PATT
  POIN2 Label_0_0117BFA8
// 042   ----------------------------------------
 BYTE   PATT
  POIN2 Label_0_0117BFB9
// 043   ----------------------------------------
 BYTE   PATT
  POIN2 Label_0_0117BFDA
// 044   ----------------------------------------
 BYTE   PATT
  POIN2 Label_0_0117BFFB
// 045   ----------------------------------------
 BYTE   PATT
  POIN2 Label_0_0117C015
// 046   ----------------------------------------
 BYTE   PATT
  POIN2 Label_0_0117C031
// 047   ----------------------------------------
 BYTE   W96
// 048   ----------------------------------------
 BYTE   PATT
  POIN2 Label_0_0117BF90
// 049   ----------------------------------------
 BYTE   PATT
  POIN2 Label_0_0117BFA8
// 050   ----------------------------------------
 BYTE   PATT
  POIN2 Label_0_0117BFB9
// 051   ----------------------------------------
 BYTE   PATT
  POIN2 Label_0_0117BFDA
// 052   ----------------------------------------
 BYTE   PATT
  POIN2 Label_0_0117C070
// 053   ----------------------------------------
 BYTE   PATT
  POIN2 Label_0_0117C08B
// 054   ----------------------------------------
 BYTE   PATT
  POIN2 Label_0_0117C0A9
// 055   ----------------------------------------
 BYTE   PATT
  POIN2 Label_0_0117C0C0
// 056   ----------------------------------------
 BYTE   PATT
  POIN2 Label_0_0117C0CD
// 057   ----------------------------------------
 BYTE   PATT
  POIN2 Label_0_0117C0E8
// 058   ----------------------------------------
 BYTE   PATT
  POIN2 Label_0_0117C0F4
// 059   ----------------------------------------
 BYTE   PATT
  POIN2 Label_0_0117C113
// 060   ----------------------------------------
 BYTE   PATT
  POIN2 Label_0_0117C125
// 061   ----------------------------------------
 BYTE   PATT
  POIN2 Label_0_0117C137
// 062   ----------------------------------------
 BYTE   PATT
  POIN2 Label_0_0117C143
// 063   ----------------------------------------
 BYTE   PATT
  POIN2 Label_0_0117C15D
// 064   ----------------------------------------
 BYTE   PATT
  POIN2 Label_0_0117BF19
// 065   ----------------------------------------
 BYTE   PATT
  POIN2 Label_0_0117BF04
// 066   ----------------------------------------
 BYTE   PATT
  POIN2 Label_0_0117BF19
// 067   ----------------------------------------
 BYTE   PATT
  POIN2 Label_0_0117BF32
// 068   ----------------------------------------
 BYTE   PATT
  POIN2 Label_0_0117BF46
// 069   ----------------------------------------
 BYTE   PATT
  POIN2 Label_0_0117BF5D
// 070   ----------------------------------------
 BYTE   PATT
  POIN2 Label_0_0117BF74
// 071   ----------------------------------------
 BYTE   PATT
  POIN2 Label_0_0117BF89
// 072   ----------------------------------------
 BYTE   W96
// 073   ----------------------------------------
 BYTE   W96
// 074   ----------------------------------------
 BYTE   W96
// 075   ----------------------------------------
 BYTE   W96
// 076   ----------------------------------------
 BYTE   W96
// 077   ----------------------------------------
 BYTE   W96
// 078   ----------------------------------------
 BYTE   W96
// 079   ----------------------------------------
 BYTE   W96
// 080   ----------------------------------------
 BYTE   W96
// 081   ----------------------------------------
 BYTE   W96
// 082   ----------------------------------------
 BYTE   W96
// 083   ----------------------------------------
 BYTE   W96
// 084   ----------------------------------------
 BYTE   W96
// 085   ----------------------------------------
 BYTE   W96
// 086   ----------------------------------------
 BYTE   W96
// 087   ----------------------------------------
 BYTE   W96
// 088   ----------------------------------------
 BYTE   W96
// 089   ----------------------------------------
 BYTE   W96
// 090   ----------------------------------------
 BYTE   W96
// 091   ----------------------------------------
 BYTE   W96
// 092   ----------------------------------------
 BYTE   W96
// 093   ----------------------------------------
 BYTE   W96
// 094   ----------------------------------------
 BYTE   W96
// 095   ----------------------------------------
 BYTE   W96
// 096   ----------------------------------------
 BYTE   N28  Cn1  v127
 BYTE   N19  En3
 BYTE   N22  Gn3
 BYTE   N22  Cn4
 BYTE   W24
 BYTE   N24  Cn3
 BYTE   W15
 BYTE   N06  En3
 BYTE   N09  Gn3
 BYTE   N11  Cn4
 BYTE   W09
 BYTE   N24  Gn0
 BYTE   W14
 BYTE   N07  En3
 BYTE   W10
 BYTE   N22  Cn3
 BYTE   N15  Gn3
 BYTE   N16  Cn4
 BYTE   W24
// 097   ----------------------------------------
 BYTE   N32  Bn0
 BYTE   N21  Gn3
 BYTE   N20  Bn3
 BYTE   W24
 BYTE   N18  Cn3
 BYTE   N21  En3
 BYTE   W14
 BYTE   N09  Gn3
 BYTE   W01
 BYTE   N10  Bn3
 BYTE   W09
 BYTE   N24  Gn0
 BYTE   W14
 BYTE   N09  Gn3
 BYTE   W01
 BYTE   N06  En3
 BYTE   N09  Bn3
 BYTE   W32
 BYTE   W01
// 098   ----------------------------------------
 BYTE   N23  As0
 BYTE   N11  Cn3
 BYTE   W24
 BYTE   N16  As2
 BYTE   N17  En3
 BYTE   N17  Gn3
 BYTE   W12
 BYTE   N13  As1
 BYTE   W12
 BYTE   N15  As0
 BYTE   N06  Gn2
 BYTE   N07  En3
 BYTE   N08  Gn3
 BYTE   W15
 BYTE   As2
 BYTE   N09  En3
 BYTE   N11  Gn3
 BYTE   W09
 BYTE   N18  As0
 BYTE   W24
// 099   ----------------------------------------
 BYTE   N12  An1
 BYTE   N04  An2
 BYTE   N08  Cs3
 BYTE   N10  En3
 BYTE   W15
 BYTE   An2
 BYTE   N02  En3  v092
 BYTE   W09
 BYTE   N10  An1  v127
 BYTE   W15
 BYTE   N22  An2
 BYTE   N24  Cs3
 BYTE   W01
 BYTE   N16  Bn2
 BYTE   W02
 BYTE   N19  En2
 BYTE   W06
 BYTE   N40  En1
 BYTE   W24
 BYTE   N22  An2
 BYTE   N23  Cs3
 BYTE   W01
 BYTE   N22  En2
 BYTE   W23
// 100   ----------------------------------------
 BYTE   N20  Fn1
 BYTE   N14  Fn2
 BYTE   N21  An2
 BYTE   N28  Cn3
 BYTE   W22
 BYTE   N15  Fn2
 BYTE   W16
 BYTE   N08  Fn0
 BYTE   W09
 BYTE   N19  An2
 BYTE   W01
 BYTE   N23  Fs1
 BYTE   N11  Fs2
 BYTE   N20  Cn3
 BYTE   W23
 BYTE   N09  Fs2
 BYTE   W16
 BYTE   N08  Fs0
 BYTE   W09
// 101   ----------------------------------------
 BYTE   N20  Gn0
 BYTE   N06  Gn2
 BYTE   N20  En3
 BYTE   W01
 BYTE   N18  Cn3
 BYTE   W14
 BYTE   N11  Gn2
 BYTE   W09
 BYTE   N19  Gn0
 BYTE   W16
 BYTE   N11  Cs3
 BYTE   W01
 BYTE   N06  An2
 BYTE   N11  En3
 BYTE   W07
 BYTE   N15  An0
 BYTE   W16
 BYTE   N06  Cs3
 BYTE   N06  En3
 BYTE   W01
 BYTE   N05  An2
 BYTE   W07
 BYTE   N08  An0
 BYTE   W15
 BYTE   N19  Fs2
 BYTE   N19  An2
 BYTE   W01
 BYTE   N09  Dn2
 BYTE   N20  Cn3
 BYTE   W08
// 102   ----------------------------------------
 BYTE   N22  Dn1
 BYTE   W14
 BYTE   N20  Dn2
 BYTE   W10
 BYTE   N14  Fs2
 BYTE   N13  An2
 BYTE   N12  Cn3
 BYTE   W14
 BYTE   N13  Dn1
 BYTE   W09
 BYTE   N30  Fn2
 BYTE   W01
 BYTE   N06  Dn2
 BYTE   N30  Gn2
 BYTE   N13  Bn2
 BYTE   W01
 BYTE   N21  Gn1
 BYTE   W23
 BYTE   N12  Dn2
 BYTE   W13
 BYTE   N11  Gn1
 BYTE   W11
// 103   ----------------------------------------
 BYTE   N23  Cn2
 BYTE   N72  En2
 BYTE   N68  Gn2
 BYTE   N02  Gs2  v100
 BYTE   N66  Cn3  v127
 BYTE   W23
 BYTE   N09  Gn1
 BYTE   W24
 BYTE   N22  Cn1
 BYTE   W24
 BYTE   W02
 BYTE   GoTo
  POIN2 Label_0_0117BEE6
 BYTE   FINE

//**************** Track 2 (Midi-Chn.1) ****************//

SuperMarioBros2OverworldPandan_002:
// 000   ----------------------------------------
 BYTE   KEYSH   SuperMarioBros2OverworldPandan_key+0
Label_1_0117C36E:
 BYTE   VOICE   4
 BYTE   VOL   36*SuperMarioBros2OverworldPandan_mvl/mxv
 BYTE   PAN   c_v+0
 BYTE   W01
 BYTE   N24  Cn2  v127
 BYTE   W23
 BYTE   N22  En2
 BYTE   N24  Gn2
 BYTE   N24  Cn3
 BYTE   W24
 BYTE   Cn2
 BYTE   W24
 BYTE   Gn2
 BYTE   N24  Cn3
 BYTE   W01
 BYTE   En2
 BYTE   W23
// 001   ----------------------------------------
Label_1_0117C388:
 BYTE   N24  Bn1  v127
 BYTE   W24
 BYTE   N22  En2
 BYTE   N23  Gn2
 BYTE   N23  Bn2
 BYTE   W24
 BYTE   N24  Bn1
 BYTE   W23
 BYTE   Bn2
 BYTE   W01
 BYTE   N23  En2
 BYTE   N24  Gn2
 BYTE   W24
 BYTE   PEND 
// 002   ----------------------------------------
Label_1_0117C39E:
 BYTE   N24  As1  v127
 BYTE   W24
 BYTE   N22  En2
 BYTE   N24  Gn2
 BYTE   N24  As2
 BYTE   W23
 BYTE   As1
 BYTE   W24
 BYTE   W01
 BYTE   N14  En2
 BYTE   N16  Gn2
 BYTE   N15  As2
 BYTE   W15
 BYTE   N07  As1
 BYTE   W09
 BYTE   PEND 
// 003   ----------------------------------------
Label_1_0117C3B7:
 BYTE   N24  An1  v127
 BYTE   W23
 BYTE   N21  Gn2
 BYTE   W01
 BYTE   N20  En2
 BYTE   N21  Cs3
 BYTE   W24
 BYTE   N24  En1
 BYTE   W24
 BYTE   N18  En2
 BYTE   N18  Gn2
 BYTE   N20  Cs3
 BYTE   W24
 BYTE   PEND 
// 004   ----------------------------------------
Label_1_0117C3CE:
 BYTE   N24  Fn1  v127
 BYTE   W23
 BYTE   N23  Fn2
 BYTE   W01
 BYTE   N24  An2
 BYTE   N24  Cn3
 BYTE   W24
 BYTE   Fs1
 BYTE   W24
 BYTE   N19  Fs2
 BYTE   N19  An2
 BYTE   N17  Cn3
 BYTE   W24
 BYTE   PEND 
// 005   ----------------------------------------
Label_1_0117C3E4:
 BYTE   N24  Gn1  v127
 BYTE   W24
 BYTE   N17  Gn2
 BYTE   N20  Cn3
 BYTE   N22  En3
 BYTE   W18
 BYTE   N05  Gn1
 BYTE   W06
 BYTE   N24  An1
 BYTE   W24
 BYTE   N17  An2
 BYTE   N17  Cs3
 BYTE   N17  En3
 BYTE   W24
 BYTE   PEND 
// 006   ----------------------------------------
Label_1_0117C3FD:
 BYTE   N24  Dn1  v127
 BYTE   W24
 BYTE   N17  Dn2
 BYTE   N18  An2
 BYTE   N18  Cn3
 BYTE   W16
 BYTE   N11  Dn1
 BYTE   W08
 BYTE   N20  Gn1
 BYTE   W23
 BYTE   N12  Dn2
 BYTE   W01
 BYTE   N11  Fn2
 BYTE   N11  Bn2
 BYTE   W13
 BYTE   Gn1
 BYTE   W11
 BYTE   PEND 
// 007   ----------------------------------------
Label_1_0117C419:
 BYTE   N23  Cn2  v127
 BYTE   N22  En2
 BYTE   N22  Gn2
 BYTE   N20  Cn3
 BYTE   W24
 BYTE   N15  Gn1
 BYTE   W24
 BYTE   N16  Cn1
 BYTE   W48
 BYTE   PEND 
// 008   ----------------------------------------
Label_1_0117C42A:
 BYTE   N24  Cn1  v127
 BYTE   W24
 BYTE   N17  En2
 BYTE   N17  Gn2
 BYTE   N17  Cn3
 BYTE   W24
 BYTE   N24  Gn0
 BYTE   W24
 BYTE   N17  En2
 BYTE   N17  Gn2
 BYTE   N17  Cn3
 BYTE   W24
 BYTE   PEND 
// 009   ----------------------------------------
Label_1_0117C440:
 BYTE   N24  Cn1  v127
 BYTE   W24
 BYTE   N17  En2
 BYTE   N17  Gn2
 BYTE   N17  Cn3
 BYTE   W24
 BYTE   N21  Gn0
 BYTE   W24
 BYTE   Cn1
 BYTE   N17  En2
 BYTE   N17  Gn2
 BYTE   N20  Cn3
 BYTE   W24
 BYTE   PEND 
// 010   ----------------------------------------
Label_1_0117C457:
 BYTE   N23  Dn1  v127
 BYTE   W24
 BYTE   N19  Dn2
 BYTE   N21  Fs2
 BYTE   N21  An2
 BYTE   W24
 BYTE   N30  An0
 BYTE   W24
 BYTE   N20  Dn2
 BYTE   N22  Fs2
 BYTE   N22  An2
 BYTE   W24
 BYTE   PEND 
// 011   ----------------------------------------
Label_1_0117C46D:
 BYTE   N24  Dn1  v127
 BYTE   W24
 BYTE   N20  Dn2
 BYTE   N21  Fs2
 BYTE   N21  An2
 BYTE   W24
 BYTE   N24  An0
 BYTE   W24
 BYTE   N16  Dn2
 BYTE   N16  Fs2
 BYTE   N17  An2
 BYTE   W24
 BYTE   PEND 
// 012   ----------------------------------------
Label_1_0117C483:
 BYTE   N24  Gn1  v127
 BYTE   W24
 BYTE   N22  Dn2
 BYTE   N23  Gn2
 BYTE   N22  Bn2
 BYTE   W24
 BYTE   N24  Dn1
 BYTE   W24
 BYTE   N22  Dn2
 BYTE   N23  Gn2
 BYTE   N22  Bn2
 BYTE   W24
 BYTE   PEND 
// 013   ----------------------------------------
Label_1_0117C499:
 BYTE   N24  Gn1  v127
 BYTE   W24
 BYTE   N21  Dn2
 BYTE   N21  Gn2
 BYTE   N19  Bn2
 BYTE   W24
 BYTE   N24  Dn1
 BYTE   W24
 BYTE   N14  Gn1
 BYTE   N17  Dn2
 BYTE   N18  Gn2
 BYTE   N17  Dn3
 BYTE   W24
 BYTE   PEND 
// 014   ----------------------------------------
Label_1_0117C4B1:
 BYTE   N21  Cn1  v127
 BYTE   N08  En2
 BYTE   N23  Gn2
 BYTE   N24  Cn3
 BYTE   W24
 BYTE   N16  En2
 BYTE   W18
 BYTE   N09  Cn1
 BYTE   W06
 BYTE   N23  Cs1
 BYTE   N09  En2
 BYTE   N30  Gn2
 BYTE   N32  Cs3
 BYTE   W24
 BYTE   N12  En2
 BYTE   W15
 BYTE   N09  Cs1
 BYTE   W09
 BYTE   PEND 
// 015   ----------------------------------------
Label_1_0117C4D1:
 BYTE   N23  Dn1  v127
 BYTE   N08  Fn2
 BYTE   N23  An2
 BYTE   N24  Dn3
 BYTE   W23
 BYTE   N12  Fn2
 BYTE   W16
 BYTE   N09  Dn1
 BYTE   W09
 BYTE   N23  Gn0
 BYTE   N04  Dn2
 BYTE   N09  Gn2
 BYTE   N07  Bn2
 BYTE   N07  Cn3
 BYTE   W17
 BYTE   N09  Gn2
 BYTE   N08  Bn2
 BYTE   W01
 BYTE   N09  Dn2
 BYTE   W06
 BYTE   N17  Gn1
 BYTE   W24
 BYTE   PEND 
// 016   ----------------------------------------
 BYTE   PATT
  POIN2 Label_1_0117C42A
// 017   ----------------------------------------
 BYTE   PATT
  POIN2 Label_1_0117C440
// 018   ----------------------------------------
 BYTE   PATT
  POIN2 Label_1_0117C457
// 019   ----------------------------------------
 BYTE   PATT
  POIN2 Label_1_0117C46D
// 020   ----------------------------------------
Label_1_0117C50C:
 BYTE   N24  Gn1  v127
 BYTE   W24
 BYTE   N22  Dn2
 BYTE   N23  Gn2
 BYTE   N22  Bn2
 BYTE   W24
 BYTE   N20  Dn1
 BYTE   W24
 BYTE   N22  Dn2
 BYTE   N23  Gn2
 BYTE   N22  Bn2
 BYTE   W24
 BYTE   PEND 
// 021   ----------------------------------------
Label_1_0117C522:
 BYTE   N20  Gn1  v127
 BYTE   W24
 BYTE   N21  Dn2
 BYTE   N21  Gn2
 BYTE   N19  Bn2
 BYTE   W24
 BYTE   N20  Dn1
 BYTE   W24
 BYTE   N14  Gn1
 BYTE   N17  Dn2
 BYTE   N18  Gn2
 BYTE   N17  Dn3
 BYTE   W24
 BYTE   PEND 
// 022   ----------------------------------------
Label_1_0117C53A:
 BYTE   N21  Cn1  v127
 BYTE   W15
 BYTE   N09  En2
 BYTE   N11  Gn2
 BYTE   N13  Cn3
 BYTE   W09
 BYTE   N17  Gn0
 BYTE   W24
 BYTE   An0
 BYTE   N17  En2
 BYTE   N17  Gn2
 BYTE   N17  Cn3
 BYTE   W24
 BYTE   Bn0
 BYTE   W24
 BYTE   PEND 
// 023   ----------------------------------------
Label_1_0117C553:
 BYTE   N24  Cn1  v127
 BYTE   N22  En2
 BYTE   N23  Gn2
 BYTE   N24  Cn3
 BYTE   W36
 BYTE   W03
 BYTE   N17  Cn1
 BYTE   N15  En2
 BYTE   N18  Gn2
 BYTE   N18  Cn3
 BYTE   W32
 BYTE   W01
 BYTE   N23  Ds1
 BYTE   W24
 BYTE   PEND 
// 024   ----------------------------------------
Label_1_0117C56C:
 BYTE   N23  En1  v127
 BYTE   W24
 BYTE   N21  En2
 BYTE   N23  Gs2
 BYTE   N21  Bn2
 BYTE   W24
 BYTE   N24  Bn0
 BYTE   W24
 BYTE   N22  En2
 BYTE   N23  Gs2
 BYTE   N20  Bn2
 BYTE   W24
 BYTE   PEND 
// 025   ----------------------------------------
Label_1_0117C582:
 BYTE   N24  En1  v127
 BYTE   W24
 BYTE   N21  En2
 BYTE   N23  Gs2
 BYTE   N22  Bn2
 BYTE   W24
 BYTE   N23  Bn0
 BYTE   W24
 BYTE   Gs0
 BYTE   N20  En2
 BYTE   N20  Gs2
 BYTE   N17  Bn2
 BYTE   W24
 BYTE   PEND 
// 026   ----------------------------------------
Label_1_0117C599:
 BYTE   N23  An0  v127
 BYTE   W24
 BYTE   N24  En2
 BYTE   N24  Cn3
 BYTE   W24
 BYTE   N23  En1
 BYTE   W24
 BYTE   En2
 BYTE   N24  An2
 BYTE   N24  Cn3
 BYTE   W24
 BYTE   PEND 
// 027   ----------------------------------------
Label_1_0117C5AC:
 BYTE   N23  An0  v127
 BYTE   W24
 BYTE   N21  En2
 BYTE   N22  An2
 BYTE   N23  Cn3
 BYTE   W24
 BYTE   En1
 BYTE   W24
 BYTE   An0
 BYTE   N19  En2
 BYTE   N21  An2
 BYTE   N21  Cn3
 BYTE   W24
 BYTE   PEND 
// 028   ----------------------------------------
Label_1_0117C5C2:
 BYTE   N23  Dn1  v127
 BYTE   W24
 BYTE   N20  Dn2
 BYTE   N20  Fs2
 BYTE   N20  An2
 BYTE   W24
 BYTE   N23  An0
 BYTE   W24
 BYTE   N20  Dn2
 BYTE   N20  Fs2
 BYTE   N20  An2
 BYTE   W24
 BYTE   PEND 
// 029   ----------------------------------------
Label_1_0117C5D8:
 BYTE   N23  Dn1  v127
 BYTE   W24
 BYTE   N17  Dn2
 BYTE   N20  Fs2
 BYTE   N20  An2
 BYTE   W24
 BYTE   N21  An0
 BYTE   W24
 BYTE   Dn2
 BYTE   N22  Fs2
 BYTE   N21  An2
 BYTE   W24
 BYTE   PEND 
// 030   ----------------------------------------
Label_1_0117C5ED:
 BYTE   N23  Gn1  v127
 BYTE   W24
 BYTE   N14  Dn2
 BYTE   N14  Gn2
 BYTE   N14  Bn2
 BYTE   W24
 BYTE   N23  Dn1
 BYTE   N32  Dn2
 BYTE   N28  Gn2
 BYTE   N32  Bn2
 BYTE   W48
 BYTE   PEND 
// 031   ----------------------------------------
Label_1_0117C602:
 BYTE   N23  Gn0  v127
 BYTE   N24  Gn2
 BYTE   N24  Bn2
 BYTE   N24  Dn3
 BYTE   W36
 BYTE   W03
 BYTE   N09  Bn2
 BYTE   W09
 BYTE   N23  Gn1
 BYTE   N08  Dn3
 BYTE   W06
 BYTE   N11  Gn3
 BYTE   W18
 BYTE   N12  Bn2
 BYTE   N11  Dn3
 BYTE   N13  Gn3
 BYTE   W24
 BYTE   PEND 
// 032   ----------------------------------------
Label_1_0117C620:
 BYTE   W01
 BYTE   N24  Cn2  v127
 BYTE   W23
 BYTE   N22  En2
 BYTE   N24  Gn2
 BYTE   N24  Cn3
 BYTE   W24
 BYTE   Cn2
 BYTE   W24
 BYTE   Gn2
 BYTE   N24  Cn3
 BYTE   W01
 BYTE   En2
 BYTE   W23
 BYTE   PEND 
// 033   ----------------------------------------
 BYTE   PATT
  POIN2 Label_1_0117C388
// 034   ----------------------------------------
 BYTE   PATT
  POIN2 Label_1_0117C39E
// 035   ----------------------------------------
 BYTE   PATT
  POIN2 Label_1_0117C3B7
// 036   ----------------------------------------
 BYTE   PATT
  POIN2 Label_1_0117C3CE
// 037   ----------------------------------------
 BYTE   PATT
  POIN2 Label_1_0117C3E4
// 038   ----------------------------------------
 BYTE   PATT
  POIN2 Label_1_0117C3FD
// 039   ----------------------------------------
 BYTE   PATT
  POIN2 Label_1_0117C419
// 040   ----------------------------------------
 BYTE   PATT
  POIN2 Label_1_0117C42A
// 041   ----------------------------------------
 BYTE   PATT
  POIN2 Label_1_0117C440
// 042   ----------------------------------------
 BYTE   PATT
  POIN2 Label_1_0117C457
// 043   ----------------------------------------
 BYTE   PATT
  POIN2 Label_1_0117C46D
// 044   ----------------------------------------
 BYTE   PATT
  POIN2 Label_1_0117C483
// 045   ----------------------------------------
 BYTE   PATT
  POIN2 Label_1_0117C499
// 046   ----------------------------------------
 BYTE   PATT
  POIN2 Label_1_0117C4B1
// 047   ----------------------------------------
 BYTE   PATT
  POIN2 Label_1_0117C4D1
// 048   ----------------------------------------
 BYTE   PATT
  POIN2 Label_1_0117C42A
// 049   ----------------------------------------
 BYTE   PATT
  POIN2 Label_1_0117C440
// 050   ----------------------------------------
 BYTE   PATT
  POIN2 Label_1_0117C457
// 051   ----------------------------------------
 BYTE   PATT
  POIN2 Label_1_0117C46D
// 052   ----------------------------------------
 BYTE   PATT
  POIN2 Label_1_0117C50C
// 053   ----------------------------------------
 BYTE   PATT
  POIN2 Label_1_0117C522
// 054   ----------------------------------------
 BYTE   PATT
  POIN2 Label_1_0117C53A
// 055   ----------------------------------------
 BYTE   PATT
  POIN2 Label_1_0117C553
// 056   ----------------------------------------
 BYTE   PATT
  POIN2 Label_1_0117C56C
// 057   ----------------------------------------
 BYTE   PATT
  POIN2 Label_1_0117C582
// 058   ----------------------------------------
 BYTE   PATT
  POIN2 Label_1_0117C599
// 059   ----------------------------------------
 BYTE   PATT
  POIN2 Label_1_0117C5AC
// 060   ----------------------------------------
 BYTE   PATT
  POIN2 Label_1_0117C5C2
// 061   ----------------------------------------
 BYTE   PATT
  POIN2 Label_1_0117C5D8
// 062   ----------------------------------------
 BYTE   PATT
  POIN2 Label_1_0117C5ED
// 063   ----------------------------------------
 BYTE   PATT
  POIN2 Label_1_0117C602
// 064   ----------------------------------------
 BYTE   PATT
  POIN2 Label_1_0117C620
// 065   ----------------------------------------
 BYTE   PATT
  POIN2 Label_1_0117C388
// 066   ----------------------------------------
 BYTE   PATT
  POIN2 Label_1_0117C39E
// 067   ----------------------------------------
 BYTE   PATT
  POIN2 Label_1_0117C3B7
// 068   ----------------------------------------
 BYTE   PATT
  POIN2 Label_1_0117C3CE
// 069   ----------------------------------------
 BYTE   PATT
  POIN2 Label_1_0117C3E4
// 070   ----------------------------------------
 BYTE   PATT
  POIN2 Label_1_0117C3FD
// 071   ----------------------------------------
 BYTE   PATT
  POIN2 Label_1_0117C419
// 072   ----------------------------------------
 BYTE   W96
// 073   ----------------------------------------
 BYTE   W96
// 074   ----------------------------------------
 BYTE   W96
// 075   ----------------------------------------
 BYTE   W96
// 076   ----------------------------------------
 BYTE   W96
// 077   ----------------------------------------
 BYTE   W96
// 078   ----------------------------------------
 BYTE   W96
// 079   ----------------------------------------
 BYTE   W96
// 080   ----------------------------------------
 BYTE   W96
// 081   ----------------------------------------
 BYTE   W96
// 082   ----------------------------------------
 BYTE   W96
// 083   ----------------------------------------
 BYTE   W96
// 084   ----------------------------------------
 BYTE   W96
// 085   ----------------------------------------
 BYTE   W96
// 086   ----------------------------------------
 BYTE   W96
// 087   ----------------------------------------
 BYTE   W96
// 088   ----------------------------------------
 BYTE   W96
// 089   ----------------------------------------
 BYTE   W96
// 090   ----------------------------------------
 BYTE   W96
// 091   ----------------------------------------
 BYTE   W96
// 092   ----------------------------------------
 BYTE   W96
// 093   ----------------------------------------
 BYTE   W96
// 094   ----------------------------------------
 BYTE   W96
// 095   ----------------------------------------
 BYTE   W96
// 096   ----------------------------------------
 BYTE   W96
// 097   ----------------------------------------
 BYTE   W96
// 098   ----------------------------------------
 BYTE   W96
// 099   ----------------------------------------
 BYTE   W96
// 100   ----------------------------------------
 BYTE   W96
// 101   ----------------------------------------
 BYTE   W96
// 102   ----------------------------------------
 BYTE   W96
// 103   ----------------------------------------
 BYTE   W72
 BYTE   W01
 BYTE   GoTo
  POIN2 Label_1_0117C36E
 BYTE   FINE

//**************** Track 3 (Midi-Chn.2) ****************//

SuperMarioBros2OverworldPandan_003:
// 000   ----------------------------------------
 BYTE   KEYSH   SuperMarioBros2OverworldPandan_key+0
Label_2_0117C722:
 BYTE   VOICE   36
 BYTE   VOL   17*SuperMarioBros2OverworldPandan_mvl/mxv
 BYTE   PAN   c_v+0
 BYTE   W96
// 001   ----------------------------------------
 BYTE   W96
// 002   ----------------------------------------
 BYTE   W96
// 003   ----------------------------------------
 BYTE   W96
// 004   ----------------------------------------
 BYTE   W96
// 005   ----------------------------------------
 BYTE   W96
// 006   ----------------------------------------
 BYTE   W96
// 007   ----------------------------------------
 BYTE   W96
// 008   ----------------------------------------
 BYTE   W96
// 009   ----------------------------------------
 BYTE   W96
// 010   ----------------------------------------
 BYTE   W96
// 011   ----------------------------------------
 BYTE   W96
// 012   ----------------------------------------
 BYTE   W96
// 013   ----------------------------------------
 BYTE   W96
// 014   ----------------------------------------
 BYTE   W96
// 015   ----------------------------------------
 BYTE   W96
// 016   ----------------------------------------
 BYTE   W96
// 017   ----------------------------------------
 BYTE   W96
// 018   ----------------------------------------
 BYTE   W96
// 019   ----------------------------------------
 BYTE   W96
// 020   ----------------------------------------
 BYTE   W96
// 021   ----------------------------------------
 BYTE   W96
// 022   ----------------------------------------
 BYTE   W96
// 023   ----------------------------------------
 BYTE   W96
// 024   ----------------------------------------
 BYTE   W96
// 025   ----------------------------------------
 BYTE   W96
// 026   ----------------------------------------
 BYTE   W96
// 027   ----------------------------------------
 BYTE   W96
// 028   ----------------------------------------
 BYTE   W96
// 029   ----------------------------------------
 BYTE   W96
// 030   ----------------------------------------
 BYTE   W96
// 031   ----------------------------------------
 BYTE   W96
// 032   ----------------------------------------
 BYTE   VOL   17*SuperMarioBros2OverworldPandan_mvl/mxv
 BYTE   N28  Cn1  v100
 BYTE   W48
 BYTE   N24
 BYTE   W36
 BYTE   W03
 BYTE   N10
 BYTE   W09
// 033   ----------------------------------------
Label_2_0117C753:
 BYTE   N30  Bn0  v100
 BYTE   W48
 BYTE   N40
 BYTE   W48
 BYTE   PEND 
// 034   ----------------------------------------
Label_2_0117C75A:
 BYTE   N24  As0  v124
 BYTE   W48
 BYTE   N22
 BYTE   W36
 BYTE   W03
 BYTE   N08  As0  v127
 BYTE   W09
 BYTE   PEND 
// 035   ----------------------------------------
Label_2_0117C766:
 BYTE   N23  An0  v124
 BYTE   W24
 BYTE   Bn0  v127
 BYTE   W24
 BYTE   N24  Cn1  v116
 BYTE   W24
 BYTE   N23  Cs1  v127
 BYTE   W24
 BYTE   PEND 
// 036   ----------------------------------------
Label_2_0117C776:
 BYTE   N24  Fn0  v116
 BYTE   W42
 BYTE   N08  Fn0  v100
 BYTE   W06
 BYTE   N24  Fs0  v124
 BYTE   W40
 BYTE   W01
 BYTE   N07
 BYTE   W07
 BYTE   PEND 
// 037   ----------------------------------------
Label_2_0117C786:
 BYTE   N18  Gn0  v124
 BYTE   W24
 BYTE   N10  As0  v112
 BYTE   W16
 BYTE   N21  An0  v127
 BYTE   W32
 BYTE   N23  Cs0  v112
 BYTE   W24
 BYTE   PEND 
// 038   ----------------------------------------
Label_2_0117C797:
 BYTE   N24  Dn0  v116
 BYTE   W36
 BYTE   W03
 BYTE   N08  Dn0  v092
 BYTE   W09
 BYTE   N20  Gn0  v124
 BYTE   W24
 BYTE   N23  Gn0  v108
 BYTE   W24
 BYTE   PEND 
// 039   ----------------------------------------
 BYTE   N66  Cn0  v100
 BYTE   W96
// 040   ----------------------------------------
Label_2_0117C7AD:
 BYTE   N24  Cn1  v116
 BYTE   W24
 BYTE   Dn1  v124
 BYTE   W24
 BYTE   N30  En1  v092
 BYTE   W24
 BYTE   N23  Gn1  v112
 BYTE   W24
 BYTE   PEND 
// 041   ----------------------------------------
Label_2_0117C7BD:
 BYTE   N24  An1  v116
 BYTE   W24
 BYTE   Gn1  v112
 BYTE   W24
 BYTE   N21  En1  v104
 BYTE   W24
 BYTE   N24  Cn1  v116
 BYTE   W24
 BYTE   PEND 
// 042   ----------------------------------------
Label_2_0117C7CD:
 BYTE   N24  Dn1  v124
 BYTE   W23
 BYTE   N28  En1  v100
 BYTE   W24
 BYTE   W01
 BYTE   Fs1  v112
 BYTE   W24
 BYTE   N24  An0  v124
 BYTE   W24
 BYTE   PEND 
// 043   ----------------------------------------
 BYTE   N17  Dn1  v104
 BYTE   W18
 BYTE   N11  En1  v088
 BYTE   W06
 BYTE   N24  Cn1  v116
 BYTE   W24
 BYTE   N21  Bn0  v112
 BYTE   W24
 BYTE   N20  An0  v124
 BYTE   W24
// 044   ----------------------------------------
Label_2_0117C7F2:
 BYTE   N23  Gn0  v124
 BYTE   W24
 BYTE   Gn1  v112
 BYTE   W24
 BYTE   Fn1  v127
 BYTE   W24
 BYTE   N24  Dn1  v116
 BYTE   W24
 BYTE   PEND 
// 045   ----------------------------------------
Label_2_0117C801:
 BYTE   N22  Bn0  v116
 BYTE   W24
 BYTE   N23  Gn0  v124
 BYTE   W24
 BYTE   An0  v116
 BYTE   W24
 BYTE   N24  Bn0
 BYTE   W24
 BYTE   PEND 
// 046   ----------------------------------------
 BYTE   N23  Cn1  v124
 BYTE   W24
 BYTE   Cs1  v092
 BYTE   W24
 BYTE   Dn1  v124
 BYTE   W24
 BYTE   W01
 BYTE   N22  Ds1  v112
 BYTE   W23
// 047   ----------------------------------------
 BYTE   N16  En1  v092
 BYTE   W18
 BYTE   N05  Bn0  v116
 BYTE   W06
 BYTE   N24  An0  v127
 BYTE   W24
 BYTE   Gn0
 BYTE   W24
 BYTE   N21  Bn0
 BYTE   W24
// 048   ----------------------------------------
Label_2_0117C830:
 BYTE   N24  Cn1  v116
 BYTE   W24
 BYTE   Dn1  v124
 BYTE   W24
 BYTE   N23  En1  v092
 BYTE   W24
 BYTE   Gn1  v112
 BYTE   W24
 BYTE   PEND 
// 049   ----------------------------------------
Label_2_0117C83F:
 BYTE   N23  An1  v116
 BYTE   W24
 BYTE   Gn1  v112
 BYTE   W24
 BYTE   En1  v104
 BYTE   W24
 BYTE   Cn1  v116
 BYTE   W24
 BYTE   PEND 
// 050   ----------------------------------------
Label_2_0117C84D:
 BYTE   N23  Dn1  v124
 BYTE   W23
 BYTE   En1  v100
 BYTE   W24
 BYTE   W01
 BYTE   Fs1  v112
 BYTE   W24
 BYTE   An0  v124
 BYTE   W24
 BYTE   PEND 
// 051   ----------------------------------------
Label_2_0117C85C:
 BYTE   N17  Dn1  v104
 BYTE   W18
 BYTE   N05  En1  v088
 BYTE   W06
 BYTE   N23  Cn1  v116
 BYTE   W24
 BYTE   Bn0  v112
 BYTE   W24
 BYTE   An0  v124
 BYTE   W24
 BYTE   PEND 
// 052   ----------------------------------------
 BYTE   PATT
  POIN2 Label_2_0117C7F2
// 053   ----------------------------------------
Label_2_0117C874:
 BYTE   N22  Bn0  v116
 BYTE   W24
 BYTE   N23  Gn0  v124
 BYTE   W24
 BYTE   N21  An0  v116
 BYTE   W24
 BYTE   N23  Bn0
 BYTE   W24
 BYTE   PEND 
// 054   ----------------------------------------
Label_2_0117C884:
 BYTE   N24  Cn1  v100
 BYTE   W24
 BYTE   Gn0  v112
 BYTE   W24
 BYTE   N23  An0  v116
 BYTE   W24
 BYTE   Bn0  v104
 BYTE   W24
 BYTE   PEND 
// 055   ----------------------------------------
Label_2_0117C893:
 BYTE   N24  Cn1  v100
 BYTE   W36
 BYTE   W03
 BYTE   N23  Cn1  v116
 BYTE   W56
 BYTE   W01
 BYTE   PEND 
// 056   ----------------------------------------
Label_2_0117C89E:
 BYTE   N22  En1  v112
 BYTE   W24
 BYTE   N21  Bn1  v116
 BYTE   W24
 BYTE   N24  Gs1  v092
 BYTE   W24
 BYTE   N22  Fn1  v127
 BYTE   W24
 BYTE   PEND 
// 057   ----------------------------------------
Label_2_0117C8AF:
 BYTE   N21  En1  v100
 BYTE   W24
 BYTE   N24  Dn1  v116
 BYTE   W24
 BYTE   N23  Bn0  v104
 BYTE   W24
 BYTE   N24  Gs0  v100
 BYTE   W24
 BYTE   PEND 
// 058   ----------------------------------------
 BYTE   W01
 BYTE   N23  An0  v124
 BYTE   W23
 BYTE   N24  Bn0  v104
 BYTE   W24
 BYTE   N28  Cn1  v088
 BYTE   W24
 BYTE   N23  Dn1  v100
 BYTE   W24
// 059   ----------------------------------------
 BYTE   N24  En1  v080
 BYTE   W24
 BYTE   N23  Cn1  v100
 BYTE   W24
 BYTE   N22  Bn0
 BYTE   W24
 BYTE   An0  v116
 BYTE   W24
// 060   ----------------------------------------
 BYTE   N24  Dn1  v112
 BYTE   W24
 BYTE   En1  v092
 BYTE   W24
 BYTE   N22  Fs1  v076
 BYTE   W24
 BYTE   N20  An1  v112
 BYTE   W24
// 061   ----------------------------------------
Label_2_0117C8EE:
 BYTE   N24  Dn1  v116
 BYTE   W24
 BYTE   N21  An0  v104
 BYTE   W24
 BYTE   N24  Dn1  v112
 BYTE   W24
 BYTE   Fs1  v100
 BYTE   W24
 BYTE   PEND 
// 062   ----------------------------------------
Label_2_0117C8FE:
 BYTE   N24  Gn1  v116
 BYTE   W24
 BYTE   Fn1  v100
 BYTE   W24
 BYTE   Dn1  v092
 BYTE   W24
 BYTE   N23  Bn0  v100
 BYTE   W24
 BYTE   PEND 
// 063   ----------------------------------------
Label_2_0117C90D:
 BYTE   N24  Dn1  v100
 BYTE   W24
 BYTE   Bn0  v112
 BYTE   W24
 BYTE   An0
 BYTE   W24
 BYTE   N21  Gn0  v116
 BYTE   W24
 BYTE   PEND 
// 064   ----------------------------------------
 BYTE   VOL   20*SuperMarioBros2OverworldPandan_mvl/mxv
 BYTE   PAN   c_v+0
 BYTE   N28  Cn1  v100
 BYTE   W48
 BYTE   N24
 BYTE   W36
 BYTE   W03
 BYTE   N10
 BYTE   W09
// 065   ----------------------------------------
 BYTE   PATT
  POIN2 Label_2_0117C753
// 066   ----------------------------------------
 BYTE   PATT
  POIN2 Label_2_0117C75A
// 067   ----------------------------------------
 BYTE   PATT
  POIN2 Label_2_0117C766
// 068   ----------------------------------------
 BYTE   PATT
  POIN2 Label_2_0117C776
// 069   ----------------------------------------
 BYTE   PATT
  POIN2 Label_2_0117C786
// 070   ----------------------------------------
 BYTE   PATT
  POIN2 Label_2_0117C797
// 071   ----------------------------------------
 BYTE   N66  Cn0  v100
 BYTE   W96
// 072   ----------------------------------------
 BYTE   PATT
  POIN2 Label_2_0117C7AD
// 073   ----------------------------------------
 BYTE   PATT
  POIN2 Label_2_0117C7BD
// 074   ----------------------------------------
 BYTE   PATT
  POIN2 Label_2_0117C7CD
// 075   ----------------------------------------
 BYTE   N17  Dn1  v104
 BYTE   W18
 BYTE   N11  En1  v100
 BYTE   W06
 BYTE   N24  Cn1  v116
 BYTE   W24
 BYTE   N21  Bn0  v112
 BYTE   W24
 BYTE   N20  An0  v124
 BYTE   W24
// 076   ----------------------------------------
 BYTE   PATT
  POIN2 Label_2_0117C7F2
// 077   ----------------------------------------
 BYTE   PATT
  POIN2 Label_2_0117C801
// 078   ----------------------------------------
 BYTE   N23  Cn1  v124
 BYTE   W24
 BYTE   Cs1  v108
 BYTE   W24
 BYTE   Dn1  v124
 BYTE   W24
 BYTE   W01
 BYTE   N22  Ds1  v112
 BYTE   W23
// 079   ----------------------------------------
 BYTE   N16  En1  v104
 BYTE   W18
 BYTE   N05  Bn0  v116
 BYTE   W06
 BYTE   N24  An0  v127
 BYTE   W24
 BYTE   Gn0
 BYTE   W24
 BYTE   N21  Bn0
 BYTE   W24
// 080   ----------------------------------------
 BYTE   PATT
  POIN2 Label_2_0117C830
// 081   ----------------------------------------
 BYTE   PATT
  POIN2 Label_2_0117C83F
// 082   ----------------------------------------
 BYTE   PATT
  POIN2 Label_2_0117C84D
// 083   ----------------------------------------
 BYTE   PATT
  POIN2 Label_2_0117C85C
// 084   ----------------------------------------
 BYTE   PATT
  POIN2 Label_2_0117C7F2
// 085   ----------------------------------------
 BYTE   PATT
  POIN2 Label_2_0117C874
// 086   ----------------------------------------
 BYTE   PATT
  POIN2 Label_2_0117C884
// 087   ----------------------------------------
 BYTE   PATT
  POIN2 Label_2_0117C893
// 088   ----------------------------------------
 BYTE   PATT
  POIN2 Label_2_0117C89E
// 089   ----------------------------------------
 BYTE   PATT
  POIN2 Label_2_0117C8AF
// 090   ----------------------------------------
 BYTE   W01
 BYTE   N23  An0  v124
 BYTE   W23
 BYTE   N24  Bn0  v104
 BYTE   W24
 BYTE   N28  Cn1  v088
 BYTE   W24
 BYTE   N23  Dn1  v112
 BYTE   W24
// 091   ----------------------------------------
 BYTE   N24  En1
 BYTE   W24
 BYTE   N23  Cn1  v100
 BYTE   W24
 BYTE   N22  Bn0
 BYTE   W24
 BYTE   An0  v116
 BYTE   W24
// 092   ----------------------------------------
 BYTE   N24  Dn1  v120
 BYTE   W24
 BYTE   En1  v104
 BYTE   W24
 BYTE   N22  Fs1  v116
 BYTE   W24
 BYTE   N23  An1  v112
 BYTE   W24
// 093   ----------------------------------------
 BYTE   PATT
  POIN2 Label_2_0117C8EE
// 094   ----------------------------------------
 BYTE   PATT
  POIN2 Label_2_0117C8FE
// 095   ----------------------------------------
 BYTE   PATT
  POIN2 Label_2_0117C90D
// 096   ----------------------------------------
 BYTE   VOL   17*SuperMarioBros2OverworldPandan_mvl/mxv
 BYTE   PAN   c_v+0
 BYTE   N28  Cn1  v100
 BYTE   W48
 BYTE   N24
 BYTE   W36
 BYTE   W03
 BYTE   N10
 BYTE   W09
// 097   ----------------------------------------
 BYTE   PATT
  POIN2 Label_2_0117C753
// 098   ----------------------------------------
 BYTE   PATT
  POIN2 Label_2_0117C75A
// 099   ----------------------------------------
 BYTE   PATT
  POIN2 Label_2_0117C766
// 100   ----------------------------------------
 BYTE   PATT
  POIN2 Label_2_0117C776
// 101   ----------------------------------------
 BYTE   PATT
  POIN2 Label_2_0117C786
// 102   ----------------------------------------
 BYTE   PATT
  POIN2 Label_2_0117C797
// 103   ----------------------------------------
 BYTE   N66  Cn0  v100
 BYTE   W72
 BYTE   W01
 BYTE   GoTo
  POIN2 Label_2_0117C722
 BYTE   FINE

//**************** Track 4 (Midi-Chn.3) ****************//

SuperMarioBros2OverworldPandan_004:
// 000   ----------------------------------------
 BYTE   KEYSH   SuperMarioBros2OverworldPandan_key+0
Label_3_0117CA3E:
 BYTE   VOICE   121
 BYTE   VOL   39*SuperMarioBros2OverworldPandan_mvl/mxv
 BYTE   PAN   c_v+0
 BYTE   VOL   39*SuperMarioBros2OverworldPandan_mvl/mxv
 BYTE   PAN   c_v+0
 BYTE   N05  Fs1  v116
 BYTE   W24
 BYTE   Fs1  v112
 BYTE   W18
 BYTE   N03  Fs1  v100
 BYTE   W06
 BYTE   N04  Fs1  v112
 BYTE   W24
 BYTE   N03
 BYTE   W18
 BYTE   N05  Fs1  v088
 BYTE   W06
// 001   ----------------------------------------
 BYTE   N04  Fs1  v116
 BYTE   W24
 BYTE   N02  Fs1  v112
 BYTE   W18
 BYTE   N03  Fs1  v076
 BYTE   W06
 BYTE   N02  Fs1  v112
 BYTE   W18
 BYTE   As1  v116
 BYTE   W06
 BYTE   N05  Fs1  v100
 BYTE   W18
 BYTE   N02  Fs1  v112
 BYTE   W06
// 002   ----------------------------------------
 BYTE   N06  Fs1  v104
 BYTE   W24
 BYTE   W01
 BYTE   N04  Fs1  v112
 BYTE   W17
 BYTE   Fs1  v080
 BYTE   W06
 BYTE   N03  Fs1  v104
 BYTE   W24
 BYTE   N04  Fs1  v116
 BYTE   W18
 BYTE   N03  Fs1  v076
 BYTE   W06
// 003   ----------------------------------------
 BYTE   Fs1  v104
 BYTE   W24
 BYTE   N03
 BYTE   W18
 BYTE   N02  Fs1  v068
 BYTE   W06
 BYTE   N03  Fs1  v116
 BYTE   W18
 BYTE   N04  Fs1  v088
 BYTE   W06
 BYTE   N02  As1  v116
 BYTE   W24
// 004   ----------------------------------------
 BYTE   N04  Fs1  v092
 BYTE   W24
 BYTE   N03  Fs1  v112
 BYTE   W18
 BYTE   N04  Fs1  v076
 BYTE   W06
 BYTE   N03  Fs1  v116
 BYTE   W24
 BYTE   N02  Fs1  v112
 BYTE   W18
 BYTE   N04  Fs1  v072
 BYTE   W06
// 005   ----------------------------------------
 BYTE   N03  Fs1  v116
 BYTE   W24
 BYTE   Fs1  v100
 BYTE   N02  As1  v116
 BYTE   W18
 BYTE   N03  Fs1  v068
 BYTE   W06
 BYTE   Fs1  v100
 BYTE   W24
 BYTE   N05  Fs1  v092
 BYTE   W18
 BYTE   N01  Fs1  v088
 BYTE   W06
// 006   ----------------------------------------
 BYTE   N06  Fs1  v100
 BYTE   W24
 BYTE   N03  Fs1  v116
 BYTE   W18
 BYTE   N02
 BYTE   W06
 BYTE   N05  Fs1  v080
 BYTE   W18
 BYTE   N03  Fs1  v100
 BYTE   W06
 BYTE   N05  Fs1  v104
 BYTE   W24
// 007   ----------------------------------------
 BYTE   N03  Fs1  v116
 BYTE   W18
 BYTE   N04  Fs1  v088
 BYTE   W06
 BYTE   N02  Fs1  v116
 BYTE   W24
 BYTE   N04
 BYTE   W15
 BYTE   Fs1  v104
 BYTE   W09
 BYTE   N03  As1  v116
 BYTE   W24
// 008   ----------------------------------------
Label_3_0117CB01:
 BYTE   N05  Fs1  v116
 BYTE   N03  Ds2  v100
 BYTE   W24
 BYTE   N05  Cs1
 BYTE   N05  Fs1  v112
 BYTE   N03  Ds2  v124
 BYTE   W18
 BYTE   Fs1  v100
 BYTE   N01  Ds2  v104
 BYTE   W06
 BYTE   N04  Fs1  v112
 BYTE   N03  Ds2  v104
 BYTE   W24
 BYTE   N06  Cs1  v124
 BYTE   N03  Fs1  v112
 BYTE   N03  Ds2  v116
 BYTE   W18
 BYTE   N05  Fs1  v088
 BYTE   N02  Ds2  v100
 BYTE   W06
 BYTE   PEND 
// 009   ----------------------------------------
Label_3_0117CB30:
 BYTE   N04  Fs1  v116
 BYTE   N03  Ds2  v100
 BYTE   W24
 BYTE   N06  Cs1  v116
 BYTE   N02  Fs1  v112
 BYTE   N03  Ds2  v116
 BYTE   W18
 BYTE   Fs1  v076
 BYTE   N02  Ds2  v100
 BYTE   W06
 BYTE   Fs1  v112
 BYTE   N03  Ds2  v092
 BYTE   W18
 BYTE   N02  As1  v116
 BYTE   N02  Ds2  v112
 BYTE   W06
 BYTE   N05  Cs1  v116
 BYTE   N05  Fs1  v100
 BYTE   N01  Ds2  v072
 BYTE   W18
 BYTE   N02  Fs1  v112
 BYTE   N02  Ds2  v104
 BYTE   W06
 BYTE   PEND 
// 010   ----------------------------------------
Label_3_0117CB66:
 BYTE   N06  Fs1  v104
 BYTE   N04  Ds2  v112
 BYTE   W24
 BYTE   N05  Cs1  v116
 BYTE   N03  Ds2  v104
 BYTE   W01
 BYTE   N04  Fs1  v112
 BYTE   W17
 BYTE   Fs1  v080
 BYTE   N02  Ds2  v100
 BYTE   W06
 BYTE   N03  Fs1  v104
 BYTE   N05  Ds2  v100
 BYTE   W24
 BYTE   N06  Cs1  v116
 BYTE   N04  Fs1
 BYTE   N03  Ds2
 BYTE   W18
 BYTE   Fs1  v076
 BYTE   N02  Ds2  v092
 BYTE   W06
 BYTE   PEND 
// 011   ----------------------------------------
Label_3_0117CB94:
 BYTE   N03  Fs1  v104
 BYTE   N04  Ds2  v088
 BYTE   W24
 BYTE   N06  Cs1  v112
 BYTE   N03  Fs1  v104
 BYTE   N04  Ds2  v116
 BYTE   W18
 BYTE   N02  Fs1  v068
 BYTE   N02  Ds2  v100
 BYTE   W06
 BYTE   N03  Fs1  v116
 BYTE   N03  Ds2  v100
 BYTE   W18
 BYTE   N04  Fs1  v088
 BYTE   N03  Ds2  v116
 BYTE   W06
 BYTE   N06  Cs1  v112
 BYTE   N02  As1  v116
 BYTE   W18
 BYTE   Ds2
 BYTE   W06
 BYTE   PEND 
// 012   ----------------------------------------
Label_3_0117CBC4:
 BYTE   N04  Fs1  v092
 BYTE   N05  Ds2  v116
 BYTE   W24
 BYTE   N06  Cs1  v112
 BYTE   N03  Fs1
 BYTE   N03  Ds2  v116
 BYTE   W18
 BYTE   N04  Fs1  v076
 BYTE   N02  Ds2  v100
 BYTE   W06
 BYTE   N03  Fs1  v116
 BYTE   N04  Ds2  v100
 BYTE   W24
 BYTE   N05  Cs1  v112
 BYTE   N02  Fs1
 BYTE   W01
 BYTE   N04  Ds2  v124
 BYTE   W17
 BYTE   Fs1  v072
 BYTE   N02  Ds2  v104
 BYTE   W06
 BYTE   PEND 
// 013   ----------------------------------------
Label_3_0117CBF3:
 BYTE   N03  Fs1  v116
 BYTE   N04  Ds2  v100
 BYTE   W24
 BYTE   N05  Cs1  v104
 BYTE   N03  Fs1  v100
 BYTE   N03  Ds2  v116
 BYTE   W18
 BYTE   Fs1  v068
 BYTE   N02  Ds2  v104
 BYTE   W06
 BYTE   N03  Fs1  v100
 BYTE   N05  Ds2
 BYTE   W18
 BYTE   N02  As1  v116
 BYTE   N04  Ds2
 BYTE   W06
 BYTE   N06  Cs1
 BYTE   N05  Fs1  v092
 BYTE   W18
 BYTE   N01  Fs1  v088
 BYTE   N02  Ds2  v112
 BYTE   W06
 BYTE   PEND 
// 014   ----------------------------------------
Label_3_0117CC24:
 BYTE   N06  Fs1  v100
 BYTE   N04  Ds2  v112
 BYTE   W24
 BYTE   N05  Cs1  v116
 BYTE   N03  Fs1
 BYTE   N03  Ds2
 BYTE   W18
 BYTE   N02  Fs1
 BYTE   N02  Ds2  v092
 BYTE   W06
 BYTE   N05  Fs1  v080
 BYTE   N02  Ds2
 BYTE   W18
 BYTE   N03  Fs1  v100
 BYTE   W06
 BYTE   N05  Cs1  v112
 BYTE   N05  Fs1  v104
 BYTE   N03  Ds2  v100
 BYTE   W18
 BYTE   N02  Ds2  v092
 BYTE   W06
 BYTE   PEND 
// 015   ----------------------------------------
Label_3_0117CC52:
 BYTE   N03  Fs1  v116
 BYTE   N03  Ds2  v080
 BYTE   W18
 BYTE   N04  Fs1  v088
 BYTE   W06
 BYTE   N07  Cs1  v104
 BYTE   N02  Fs1  v116
 BYTE   N04  Ds2
 BYTE   W18
 BYTE   N02  Ds2  v080
 BYTE   W06
 BYTE   N04  Fs1  v116
 BYTE   N04  Ds2  v092
 BYTE   W15
 BYTE   Fs1  v104
 BYTE   W03
 BYTE   N03  Ds2  v116
 BYTE   W06
 BYTE   N05  Cs1
 BYTE   N03  As1
 BYTE   W24
 BYTE   PEND 
// 016   ----------------------------------------
 BYTE   PATT
  POIN2 Label_3_0117CB01
// 017   ----------------------------------------
 BYTE   PATT
  POIN2 Label_3_0117CB30
// 018   ----------------------------------------
 BYTE   PATT
  POIN2 Label_3_0117CB66
// 019   ----------------------------------------
 BYTE   PATT
  POIN2 Label_3_0117CB94
// 020   ----------------------------------------
 BYTE   PATT
  POIN2 Label_3_0117CBC4
// 021   ----------------------------------------
 BYTE   PATT
  POIN2 Label_3_0117CBF3
// 022   ----------------------------------------
 BYTE   PATT
  POIN2 Label_3_0117CC24
// 023   ----------------------------------------
 BYTE   PATT
  POIN2 Label_3_0117CC52
// 024   ----------------------------------------
 BYTE   N05  Fs1  v116
 BYTE   N03  En4  v100
 BYTE   W24
 BYTE   N05  Fs1  v112
 BYTE   N04  Fs2
 BYTE   N04  En4
 BYTE   W18
 BYTE   N03  Fs1  v100
 BYTE   N04  Fs2  v116
 BYTE   W06
 BYTE   Fs1  v112
 BYTE   N03  En4  v092
 BYTE   W24
 BYTE   Fs1  v112
 BYTE   N03  Fs2  v116
 BYTE   N04  En4  v100
 BYTE   W18
 BYTE   N05  Fs1  v088
 BYTE   N04  Fs2  v112
 BYTE   W06
// 025   ----------------------------------------
 BYTE   Fs1  v116
 BYTE   N03  En4  v104
 BYTE   W24
 BYTE   N02  Fs1  v112
 BYTE   N03  Fs2  v116
 BYTE   N03  En4  v104
 BYTE   W18
 BYTE   Fs1  v076
 BYTE   N03  Fs2  v104
 BYTE   W06
 BYTE   N02  Fs1  v112
 BYTE   N03  En4  v104
 BYTE   W18
 BYTE   N02  As1  v116
 BYTE   W06
 BYTE   N05  Fs1  v100
 BYTE   N03  Fs2  v124
 BYTE   N03  En4  v116
 BYTE   W18
 BYTE   N02  Fs1  v112
 BYTE   N03  Fs2
 BYTE   N02  En4  v104
 BYTE   W06
// 026   ----------------------------------------
 BYTE   N06  Fs1
 BYTE   N03  En4  v100
 BYTE   W24
 BYTE   Fs2  v112
 BYTE   N03  En4
 BYTE   W01
 BYTE   N04  Fs1
 BYTE   W17
 BYTE   Fs1  v080
 BYTE   N03  Fs2  v104
 BYTE   W06
 BYTE   Fs1
 BYTE   N03  En4  v100
 BYTE   W24
 BYTE   N04  Fs1  v116
 BYTE   N03  Fs2
 BYTE   N03  En4  v112
 BYTE   W18
 BYTE   Fs1  v076
 BYTE   N04  Fs2  v112
 BYTE   W06
// 027   ----------------------------------------
 BYTE   N03  Fs1  v104
 BYTE   N03  En4  v100
 BYTE   W24
 BYTE   Fs1  v104
 BYTE   N03  Fs2  v116
 BYTE   N04  En4  v104
 BYTE   W18
 BYTE   N02  Fs1  v068
 BYTE   N03  Fs2  v112
 BYTE   W06
 BYTE   Fs1  v116
 BYTE   N03  En4  v104
 BYTE   W18
 BYTE   N04  Fs1  v088
 BYTE   W06
 BYTE   N02  As1  v116
 BYTE   N03  Fs2
 BYTE   N02  En4  v112
 BYTE   W18
 BYTE   N03  Fs2
 BYTE   N01  En4  v092
 BYTE   W06
// 028   ----------------------------------------
 BYTE   N04  Fs1
 BYTE   N03  En4  v100
 BYTE   W24
 BYTE   Fs1  v112
 BYTE   N03  Fs2  v124
 BYTE   N03  En4  v112
 BYTE   W18
 BYTE   N04  Fs1  v076
 BYTE   N03  Fs2  v116
 BYTE   W06
 BYTE   Fs1
 BYTE   N03  En4  v100
 BYTE   W24
 BYTE   N02  Fs1  v112
 BYTE   N03  Fs2  v116
 BYTE   N03  En4  v104
 BYTE   W18
 BYTE   N04  Fs1  v072
 BYTE   N03  Fs2  v112
 BYTE   W06
// 029   ----------------------------------------
 BYTE   Fs1  v116
 BYTE   N03  En4  v112
 BYTE   W24
 BYTE   Fs1  v100
 BYTE   N03  Fs2  v116
 BYTE   N03  En4  v104
 BYTE   W18
 BYTE   Fs1  v068
 BYTE   N03  Fs2  v116
 BYTE   W06
 BYTE   Fs1  v100
 BYTE   N03  En4  v104
 BYTE   W18
 BYTE   N02  As1  v116
 BYTE   W06
 BYTE   N05  Fs1  v092
 BYTE   N03  Fs2  v116
 BYTE   N03  En4  v112
 BYTE   W18
 BYTE   N01  Fs1  v088
 BYTE   N03  Fs2  v116
 BYTE   N02  En4  v100
 BYTE   W06
// 030   ----------------------------------------
 BYTE   N06  Fs1
 BYTE   N04  En4
 BYTE   W24
 BYTE   N03  Fs1  v116
 BYTE   N03  Fs2  v124
 BYTE   N03  En4  v104
 BYTE   W18
 BYTE   N02  Fs1  v116
 BYTE   N03  Fs2
 BYTE   W06
 BYTE   N05  Fs1  v080
 BYTE   N03  En4  v100
 BYTE   W18
 BYTE   Fs1
 BYTE   W06
 BYTE   N05  Fs1  v104
 BYTE   N04  Fs2  v124
 BYTE   N03  En4  v100
 BYTE   W18
 BYTE   Fs2  v116
 BYTE   W06
// 031   ----------------------------------------
 BYTE   Fs1
 BYTE   N03  En4  v104
 BYTE   W15
 BYTE   N05  Dn1  v127
 BYTE   W03
 BYTE   N04  Fs1  v088
 BYTE   W06
 BYTE   N03  Fs1  v116
 BYTE   N04  Fs2  v124
 BYTE   N03  En4  v112
 BYTE   W18
 BYTE   N04  Dn1  v100
 BYTE   N03  Fs1  v068
 BYTE   N04  Fs2  v116
 BYTE   W06
 BYTE   N03  Dn1  v127
 BYTE   N04  Fs1  v116
 BYTE   N03  En4  v112
 BYTE   W15
 BYTE   N04  Fs1  v104
 BYTE   W02
 BYTE   N05  An2  v127
 BYTE   W01
 BYTE   N04  Dn1  v100
 BYTE   N02  As1  v116
 BYTE   W06
 BYTE   N03  Dn1  v127
 BYTE   N05  Fs1  v092
 BYTE   N03  As1  v116
 BYTE   N04  Fs2
 BYTE   N03  En4
 BYTE   W18
 BYTE   N01  Fs1  v088
 BYTE   N03  Fs2  v116
 BYTE   N02  En4  v124
 BYTE   W06
// 032   ----------------------------------------
Label_3_0117CE3A:
 BYTE   N05  Fs1  v116
 BYTE   N04  An2  v127
 BYTE   W01
 BYTE   N08  Cn1  v116
 BYTE   W23
 BYTE   N05  Dn1  v127
 BYTE   N05  Fs1  v112
 BYTE   W18
 BYTE   N03  Fs1  v100
 BYTE   W06
 BYTE   N08  Cn1  v116
 BYTE   N04  Fs1  v112
 BYTE   W24
 BYTE   Dn1  v127
 BYTE   N03  Fs1  v112
 BYTE   W18
 BYTE   N05  Fs1  v088
 BYTE   W06
 BYTE   PEND 
// 033   ----------------------------------------
Label_3_0117CE62:
 BYTE   N08  Cn1  v116
 BYTE   N04  Fs1
 BYTE   W24
 BYTE   Dn1  v127
 BYTE   N02  Fs1  v112
 BYTE   W18
 BYTE   N03  Fs1  v076
 BYTE   W06
 BYTE   N07  Cn1  v112
 BYTE   N02  Fs1
 BYTE   W18
 BYTE   As1  v116
 BYTE   W06
 BYTE   N04  Dn1  v127
 BYTE   N05  Fs1  v100
 BYTE   W18
 BYTE   N02  Fs1  v112
 BYTE   W06
 BYTE   PEND 
// 034   ----------------------------------------
Label_3_0117CE87:
 BYTE   N09  Cn1  v124
 BYTE   N06  Fs1  v104
 BYTE   W24
 BYTE   N04  Dn1  v127
 BYTE   W01
 BYTE   Fs1  v112
 BYTE   W17
 BYTE   Fs1  v080
 BYTE   W06
 BYTE   N08  Cn1  v100
 BYTE   N03  Fs1  v104
 BYTE   W24
 BYTE   N05  Dn1  v127
 BYTE   N04  Fs1  v116
 BYTE   W18
 BYTE   N03  Fs1  v076
 BYTE   W06
 BYTE   PEND 
// 035   ----------------------------------------
 BYTE   N08  Cn1  v112
 BYTE   N03  Fs1  v104
 BYTE   W24
 BYTE   N05  Dn1  v127
 BYTE   N03  Fs1  v104
 BYTE   W18
 BYTE   N02  Fs1  v068
 BYTE   W06
 BYTE   N07  Cn1  v116
 BYTE   N03  Fs1
 BYTE   W15
 BYTE   Dn1  v127
 BYTE   W03
 BYTE   N04  Fs1  v088
 BYTE   W06
 BYTE   N05  Cn1  v116
 BYTE   N02  As1
 BYTE   W18
 BYTE   N03  Cn1  v080
 BYTE   W06
// 036   ----------------------------------------
 BYTE   N06  Cn1  v127
 BYTE   N04  Fs1  v092
 BYTE   W24
 BYTE   N05  Dn1  v127
 BYTE   N03  Fs1  v112
 BYTE   W18
 BYTE   N04  Fs1  v076
 BYTE   W06
 BYTE   N07  Cn1  v116
 BYTE   N03  Fs1
 BYTE   W24
 BYTE   N05  Dn1  v127
 BYTE   N02  Fs1  v112
 BYTE   W18
 BYTE   N04  Fs1  v072
 BYTE   W06
// 037   ----------------------------------------
 BYTE   N08  Cn1  v100
 BYTE   N03  Fs1  v116
 BYTE   W24
 BYTE   N05  Dn1  v127
 BYTE   N03  Fs1  v100
 BYTE   W18
 BYTE   Fs1  v068
 BYTE   W06
 BYTE   N06  Cn1  v116
 BYTE   N03  Fs1  v100
 BYTE   W18
 BYTE   N02  As1  v116
 BYTE   W06
 BYTE   N04  Dn1  v127
 BYTE   N05  Fs1  v092
 BYTE   W18
 BYTE   N01  Fs1  v088
 BYTE   W06
// 038   ----------------------------------------
 BYTE   N08  Cn1  v116
 BYTE   N06  Fs1  v100
 BYTE   W24
 BYTE   N05  Dn1  v127
 BYTE   N03  Fs1  v116
 BYTE   W18
 BYTE   N02
 BYTE   W06
 BYTE   N07  Cn1  v112
 BYTE   N05  Fs1  v080
 BYTE   W18
 BYTE   N03  Fs1  v100
 BYTE   W06
 BYTE   N04  Dn1  v127
 BYTE   N05  Fs1  v104
 BYTE   W24
// 039   ----------------------------------------
 BYTE   N07  Cn1
 BYTE   N03  Fs1  v116
 BYTE   W15
 BYTE   N04  Dn1  v127
 BYTE   W03
 BYTE   Fs1  v088
 BYTE   W06
 BYTE   N02  Fs1  v116
 BYTE   W18
 BYTE   N05  Cn1  v088
 BYTE   W06
 BYTE   N04  Dn1  v127
 BYTE   N04  Fs1  v116
 BYTE   W15
 BYTE   Fs1  v104
 BYTE   W02
 BYTE   N03  Dn1  v127
 BYTE   W07
 BYTE   As1  v116
 BYTE   W01
 BYTE   N05  Cn1  v112
 BYTE   W15
 BYTE   N03  Dn1  v127
 BYTE   W08
// 040   ----------------------------------------
 BYTE   N08  Cn1  v116
 BYTE   N05  Fs1
 BYTE   N03  Ds2  v100
 BYTE   N04  An2  v127
 BYTE   W24
 BYTE   N05  Cs1  v100
 BYTE   N05  Dn1  v127
 BYTE   N05  Fs1  v112
 BYTE   N03  Ds2  v124
 BYTE   W18
 BYTE   Fs1  v100
 BYTE   N01  Ds2  v104
 BYTE   W06
 BYTE   N08  Cn1  v116
 BYTE   N04  Fs1  v112
 BYTE   N03  Ds2  v104
 BYTE   W24
 BYTE   N06  Cs1  v124
 BYTE   N04  Dn1  v127
 BYTE   N03  Fs1  v112
 BYTE   N03  Ds2  v116
 BYTE   W18
 BYTE   N05  Fs1  v088
 BYTE   N02  Ds2  v100
 BYTE   W06
// 041   ----------------------------------------
Label_3_0117CFAB:
 BYTE   N08  Cn1  v116
 BYTE   N04  Fs1
 BYTE   N03  Ds2  v100
 BYTE   W24
 BYTE   N06  Cs1  v116
 BYTE   N04  Dn1  v127
 BYTE   N02  Fs1  v112
 BYTE   N03  Ds2  v116
 BYTE   W18
 BYTE   Fs1  v076
 BYTE   N02  Ds2  v100
 BYTE   W06
 BYTE   N07  Cn1  v112
 BYTE   N02  Fs1
 BYTE   N03  Ds2  v092
 BYTE   W15
 BYTE   N02  Dn1  v127
 BYTE   W03
 BYTE   As1  v116
 BYTE   N02  Ds2  v112
 BYTE   W06
 BYTE   N05  Cs1  v116
 BYTE   N05  Fs1  v100
 BYTE   N01  Ds2  v072
 BYTE   W15
 BYTE   N04  Dn1  v127
 BYTE   W03
 BYTE   N02  Fs1  v112
 BYTE   N02  Ds2  v104
 BYTE   W06
 BYTE   PEND 
// 042   ----------------------------------------
Label_3_0117CFF0:
 BYTE   N09  Cn1  v124
 BYTE   N06  Fs1  v104
 BYTE   N04  Ds2  v112
 BYTE   W24
 BYTE   N05  Cs1  v116
 BYTE   N04  Dn1  v127
 BYTE   N03  Ds2  v104
 BYTE   W01
 BYTE   N04  Fs1  v112
 BYTE   W17
 BYTE   Fs1  v080
 BYTE   N02  Ds2  v100
 BYTE   W06
 BYTE   N08  Cn1
 BYTE   N03  Fs1  v104
 BYTE   N05  Ds2  v100
 BYTE   W24
 BYTE   N06  Cs1  v116
 BYTE   N05  Dn1  v127
 BYTE   N04  Fs1  v116
 BYTE   N03  Ds2
 BYTE   W18
 BYTE   Fs1  v076
 BYTE   N02  Ds2  v092
 BYTE   W06
 BYTE   PEND 
// 043   ----------------------------------------
Label_3_0117D02A:
 BYTE   N08  Cn1  v112
 BYTE   N03  Fs1  v104
 BYTE   N04  Ds2  v088
 BYTE   W24
 BYTE   N06  Cs1  v112
 BYTE   N05  Dn1  v127
 BYTE   N03  Fs1  v104
 BYTE   N04  Ds2  v116
 BYTE   W18
 BYTE   N02  Fs1  v068
 BYTE   N02  Ds2  v100
 BYTE   W06
 BYTE   N07  Cn1  v116
 BYTE   N03  Fs1
 BYTE   N03  Ds2  v100
 BYTE   W15
 BYTE   Dn1  v127
 BYTE   W03
 BYTE   N04  Fs1  v088
 BYTE   N03  Ds2  v116
 BYTE   W06
 BYTE   N05  Cn1
 BYTE   N06  Cs1  v112
 BYTE   N02  As1  v116
 BYTE   W18
 BYTE   N03  Cn1  v080
 BYTE   N02  Ds2  v116
 BYTE   W06
 BYTE   PEND 
// 044   ----------------------------------------
Label_3_0117D06C:
 BYTE   N06  Cn1  v127
 BYTE   N04  Fs1  v092
 BYTE   N05  Ds2  v116
 BYTE   W24
 BYTE   N06  Cs1  v112
 BYTE   N05  Dn1  v127
 BYTE   N03  Fs1  v112
 BYTE   N03  Ds2  v116
 BYTE   W18
 BYTE   N04  Fs1  v076
 BYTE   N02  Ds2  v100
 BYTE   W06
 BYTE   N07  Cn1  v116
 BYTE   N03  Fs1
 BYTE   N04  Ds2  v100
 BYTE   W24
 BYTE   N05  Cs1  v112
 BYTE   N05  Dn1  v127
 BYTE   N02  Fs1  v112
 BYTE   W01
 BYTE   N04  Ds2  v124
 BYTE   W17
 BYTE   Fs1  v072
 BYTE   N02  Ds2  v104
 BYTE   W06
 BYTE   PEND 
// 045   ----------------------------------------
Label_3_0117D0A8:
 BYTE   N08  Cn1  v100
 BYTE   N03  Fs1  v116
 BYTE   N04  Ds2  v100
 BYTE   W24
 BYTE   N05  Cs1  v104
 BYTE   N05  Dn1  v127
 BYTE   N03  Fs1  v100
 BYTE   N03  Ds2  v116
 BYTE   W18
 BYTE   Fs1  v068
 BYTE   N02  Ds2  v104
 BYTE   W06
 BYTE   N06  Cn1  v116
 BYTE   N03  Fs1  v100
 BYTE   N05  Ds2
 BYTE   W18
 BYTE   N03  Dn1  v127
 BYTE   N02  As1  v116
 BYTE   N04  Ds2
 BYTE   W06
 BYTE   N06  Cs1
 BYTE   N06  Dn1  v124
 BYTE   N05  Fs1  v092
 BYTE   W18
 BYTE   N03  Cn1  v116
 BYTE   N01  Fs1  v088
 BYTE   N02  Ds2  v112
 BYTE   W06
 BYTE   PEND 
// 046   ----------------------------------------
Label_3_0117D0EB:
 BYTE   N08  Cn1  v124
 BYTE   N06  Fs1  v100
 BYTE   N04  Ds2  v112
 BYTE   W24
 BYTE   N05  Cs1  v116
 BYTE   N05  Dn1  v127
 BYTE   N03  Fs1  v116
 BYTE   N03  Ds2
 BYTE   W18
 BYTE   N02  Fs1
 BYTE   N02  Ds2  v092
 BYTE   W06
 BYTE   N07  Cn1  v112
 BYTE   N05  Fs1  v080
 BYTE   N02  Ds2
 BYTE   W18
 BYTE   N03  Fs1  v100
 BYTE   W06
 BYTE   N05  Cs1  v112
 BYTE   N04  Dn1  v127
 BYTE   N05  Fs1  v104
 BYTE   N03  Ds2  v100
 BYTE   W18
 BYTE   N02  Ds2  v092
 BYTE   W06
 BYTE   PEND 
// 047   ----------------------------------------
 BYTE   N07  Cn1  v104
 BYTE   N03  Fs1  v116
 BYTE   N03  Ds2  v080
 BYTE   W15
 BYTE   N04  Dn1  v127
 BYTE   W03
 BYTE   Fs1  v088
 BYTE   W06
 BYTE   N07  Cs1  v104
 BYTE   N02  Fs1  v116
 BYTE   N04  Ds2
 BYTE   W18
 BYTE   N05  Cn1  v088
 BYTE   N02  Ds2  v080
 BYTE   W06
 BYTE   N04  Dn1  v127
 BYTE   N04  Fs1  v116
 BYTE   N04  Ds2  v092
 BYTE   W15
 BYTE   Fs1  v104
 BYTE   W02
 BYTE   N03  Dn1  v127
 BYTE   W01
 BYTE   Ds2  v116
 BYTE   W06
 BYTE   N05  Cn1  v112
 BYTE   N05  Cs1  v116
 BYTE   N03  As1
 BYTE   W16
 BYTE   Dn1  v127
 BYTE   W08
// 048   ----------------------------------------
Label_3_0117D167:
 BYTE   N05  Fs1  v116
 BYTE   N03  Ds2  v100
 BYTE   N04  An2  v127
 BYTE   W01
 BYTE   N08  Cn1  v116
 BYTE   W23
 BYTE   N05  Cs1  v100
 BYTE   N05  Dn1  v127
 BYTE   N05  Fs1  v112
 BYTE   N03  Ds2  v124
 BYTE   W18
 BYTE   Fs1  v100
 BYTE   N01  Ds2  v104
 BYTE   W06
 BYTE   N08  Cn1  v116
 BYTE   N04  Fs1  v112
 BYTE   N03  Ds2  v104
 BYTE   W24
 BYTE   N06  Cs1  v124
 BYTE   N04  Dn1  v127
 BYTE   N03  Fs1  v112
 BYTE   N03  Ds2  v116
 BYTE   W18
 BYTE   N05  Fs1  v088
 BYTE   N02  Ds2  v100
 BYTE   W06
 BYTE   PEND 
// 049   ----------------------------------------
Label_3_0117D1A7:
 BYTE   N08  Cn1  v116
 BYTE   N04  Fs1
 BYTE   N03  Ds2  v100
 BYTE   W24
 BYTE   N06  Cs1  v116
 BYTE   N04  Dn1  v127
 BYTE   N02  Fs1  v112
 BYTE   N03  Ds2  v116
 BYTE   W18
 BYTE   Fs1  v076
 BYTE   N02  Ds2  v100
 BYTE   W06
 BYTE   N07  Cn1  v112
 BYTE   N02  Fs1
 BYTE   N03  Ds2  v092
 BYTE   W18
 BYTE   N02  As1  v116
 BYTE   N02  Ds2  v112
 BYTE   W06
 BYTE   N05  Cs1  v116
 BYTE   N04  Dn1  v127
 BYTE   N05  Fs1  v100
 BYTE   N01  Ds2  v072
 BYTE   W18
 BYTE   N02  Fs1  v112
 BYTE   N02  Ds2  v104
 BYTE   W06
 BYTE   PEND 
// 050   ----------------------------------------
 BYTE   PATT
  POIN2 Label_3_0117CFF0
// 051   ----------------------------------------
 BYTE   PATT
  POIN2 Label_3_0117D02A
// 052   ----------------------------------------
 BYTE   PATT
  POIN2 Label_3_0117D06C
// 053   ----------------------------------------
 BYTE   N08  Cn1  v100
 BYTE   N03  Fs1  v116
 BYTE   N04  Ds2  v100
 BYTE   W24
 BYTE   N05  Cs1  v104
 BYTE   N05  Dn1  v127
 BYTE   N03  Fs1  v100
 BYTE   N03  Ds2  v116
 BYTE   W18
 BYTE   Fs1  v068
 BYTE   N02  Ds2  v104
 BYTE   W06
 BYTE   N06  Cn1  v116
 BYTE   N03  Fs1  v100
 BYTE   N05  Ds2
 BYTE   W18
 BYTE   N03  Dn1  v127
 BYTE   N02  As1  v116
 BYTE   N04  Ds2
 BYTE   W06
 BYTE   N06  Cs1
 BYTE   N06  Dn1  v124
 BYTE   N05  Fs1  v092
 BYTE   W18
 BYTE   N03  Cn1  v088
 BYTE   N01  Fs1
 BYTE   N02  Ds2  v112
 BYTE   W06
// 054   ----------------------------------------
 BYTE   PATT
  POIN2 Label_3_0117D0EB
// 055   ----------------------------------------
 BYTE   N07  Cn1  v104
 BYTE   N03  Fs1  v116
 BYTE   N03  Ds2  v080
 BYTE   W15
 BYTE   N04  Dn1  v127
 BYTE   W03
 BYTE   Fs1  v088
 BYTE   W06
 BYTE   N07  Cs1  v104
 BYTE   N02  Fs1  v116
 BYTE   N04  Ds2
 BYTE   W18
 BYTE   N05  Cn1  v088
 BYTE   N02  Ds2  v080
 BYTE   W06
 BYTE   N04  Dn1  v127
 BYTE   N04  Fs1  v116
 BYTE   N04  Ds2  v092
 BYTE   W15
 BYTE   Fs1  v104
 BYTE   W02
 BYTE   N03  Dn1  v127
 BYTE   W01
 BYTE   Ds2  v116
 BYTE   W06
 BYTE   N05  Cn1  v112
 BYTE   N05  Cs1  v116
 BYTE   N03  As1
 BYTE   W24
// 056   ----------------------------------------
 BYTE   N08  Cn1
 BYTE   N05  Fs1
 BYTE   N04  An2  v127
 BYTE   N03  En4  v100
 BYTE   W24
 BYTE   N05  Dn1  v127
 BYTE   N05  Fs1  v112
 BYTE   N04  Fs2
 BYTE   N04  En4
 BYTE   W18
 BYTE   N03  Fs1  v100
 BYTE   N04  Fs2  v116
 BYTE   W06
 BYTE   N08  Cn1
 BYTE   N04  Fs1  v112
 BYTE   N03  En4  v092
 BYTE   W24
 BYTE   N04  Dn1  v127
 BYTE   N03  Fs1  v112
 BYTE   N03  Fs2  v116
 BYTE   N04  En4  v100
 BYTE   W18
 BYTE   N05  Fs1  v088
 BYTE   N04  Fs2  v112
 BYTE   W06
// 057   ----------------------------------------
Label_3_0117D2B5:
 BYTE   N08  Cn1  v116
 BYTE   N04  Fs1
 BYTE   N03  En4  v104
 BYTE   W24
 BYTE   N04  Dn1  v127
 BYTE   N02  Fs1  v112
 BYTE   N03  Fs2  v116
 BYTE   N03  En4  v104
 BYTE   W18
 BYTE   Fs1  v076
 BYTE   N03  Fs2  v104
 BYTE   W06
 BYTE   N07  Cn1  v112
 BYTE   N02  Fs1
 BYTE   N03  En4  v104
 BYTE   W18
 BYTE   N02  Dn1  v127
 BYTE   N02  As1  v116
 BYTE   W06
 BYTE   N04  Dn1  v127
 BYTE   N05  Fs1  v100
 BYTE   N03  Fs2  v124
 BYTE   N03  En4  v116
 BYTE   W18
 BYTE   N02  Fs1  v112
 BYTE   N03  Fs2
 BYTE   N02  En4  v104
 BYTE   W06
 BYTE   PEND 
// 058   ----------------------------------------
Label_3_0117D2F8:
 BYTE   N09  Cn1  v124
 BYTE   N06  Fs1  v104
 BYTE   N03  En4  v100
 BYTE   W24
 BYTE   N04  Dn1  v127
 BYTE   N03  Fs2  v112
 BYTE   N03  En4
 BYTE   W01
 BYTE   N04  Fs1
 BYTE   W17
 BYTE   Fs1  v080
 BYTE   N03  Fs2  v104
 BYTE   W06
 BYTE   N08  Cn1  v100
 BYTE   N03  Fs1  v104
 BYTE   N03  En4  v100
 BYTE   W24
 BYTE   N05  Dn1  v127
 BYTE   N04  Fs1  v116
 BYTE   N03  Fs2
 BYTE   N03  En4  v112
 BYTE   W18
 BYTE   Fs1  v076
 BYTE   N04  Fs2  v112
 BYTE   W06
 BYTE   PEND 
// 059   ----------------------------------------
Label_3_0117D331:
 BYTE   N08  Cn1  v112
 BYTE   N03  Fs1  v104
 BYTE   N03  En4  v100
 BYTE   W24
 BYTE   N05  Dn1  v127
 BYTE   N03  Fs1  v104
 BYTE   N03  Fs2  v116
 BYTE   N04  En4  v104
 BYTE   W18
 BYTE   N02  Fs1  v068
 BYTE   N03  Fs2  v112
 BYTE   W06
 BYTE   N07  Cn1  v116
 BYTE   N03  Fs1
 BYTE   N03  En4  v104
 BYTE   W15
 BYTE   Dn1  v127
 BYTE   W03
 BYTE   N04  Fs1  v088
 BYTE   W06
 BYTE   N05  Cn1  v116
 BYTE   N02  As1
 BYTE   N03  Fs2
 BYTE   N02  En4  v112
 BYTE   W18
 BYTE   N03  Fs2
 BYTE   N01  En4  v092
 BYTE   W06
 BYTE   PEND 
// 060   ----------------------------------------
Label_3_0117D371:
 BYTE   N06  Cn1  v127
 BYTE   N04  Fs1  v092
 BYTE   N03  En4  v100
 BYTE   W24
 BYTE   N05  Dn1  v127
 BYTE   N03  Fs1  v112
 BYTE   N03  Fs2  v124
 BYTE   N03  En4  v112
 BYTE   W18
 BYTE   N04  Fs1  v076
 BYTE   N03  Fs2  v116
 BYTE   W06
 BYTE   N07  Cn1
 BYTE   N03  Fs1
 BYTE   N03  En4  v100
 BYTE   W24
 BYTE   N05  Dn1  v127
 BYTE   N02  Fs1  v112
 BYTE   N03  Fs2  v116
 BYTE   N03  En4  v104
 BYTE   W18
 BYTE   N04  Fs1  v072
 BYTE   N03  Fs2  v112
 BYTE   W06
 BYTE   PEND 
// 061   ----------------------------------------
 BYTE   N08  Cn1  v100
 BYTE   N03  Fs1  v116
 BYTE   N03  En4  v112
 BYTE   W24
 BYTE   N05  Dn1  v127
 BYTE   N03  Fs1  v100
 BYTE   N03  Fs2  v116
 BYTE   N03  En4  v104
 BYTE   W18
 BYTE   Fs1  v068
 BYTE   N03  Fs2  v116
 BYTE   W06
 BYTE   N06  Cn1
 BYTE   N03  Fs1  v100
 BYTE   N03  En4  v104
 BYTE   W18
 BYTE   Dn1  v127
 BYTE   N02  As1  v116
 BYTE   W06
 BYTE   N06  Dn1  v124
 BYTE   N05  Fs1  v092
 BYTE   N03  Fs2  v116
 BYTE   N03  En4  v112
 BYTE   W18
 BYTE   N01  Fs1  v088
 BYTE   N03  Fs2  v116
 BYTE   N02  En4  v100
 BYTE   W06
// 062   ----------------------------------------
 BYTE   N08  Cn1  v112
 BYTE   N06  Fs1  v100
 BYTE   N04  En4
 BYTE   W24
 BYTE   N05  Dn1  v127
 BYTE   N03  Fs1  v116
 BYTE   N03  Fs2  v124
 BYTE   N03  En4  v104
 BYTE   W18
 BYTE   N02  Fs1  v116
 BYTE   N03  Fs2
 BYTE   W06
 BYTE   N07  Cn1  v112
 BYTE   N05  Fs1  v080
 BYTE   N03  En4  v100
 BYTE   W18
 BYTE   Fs1
 BYTE   W06
 BYTE   N04  Dn1  v127
 BYTE   N05  Fs1  v104
 BYTE   N04  Fs2  v124
 BYTE   N03  En4  v100
 BYTE   W18
 BYTE   Fs2  v116
 BYTE   W06
// 063   ----------------------------------------
Label_3_0117D427:
 BYTE   N07  Cn1  v104
 BYTE   N03  Fs1  v116
 BYTE   N03  En4  v112
 BYTE   W15
 BYTE   N04  Dn1  v127
 BYTE   W09
 BYTE   N03  Fs1  v100
 BYTE   N03  Fs2  v116
 BYTE   N03  En4  v104
 BYTE   W18
 BYTE   N05  Cn1  v088
 BYTE   N03  Fs1  v068
 BYTE   N03  Fs2  v116
 BYTE   W06
 BYTE   N04  Dn1  v127
 BYTE   N03  Fs1  v100
 BYTE   N03  En4  v104
 BYTE   W17
 BYTE   Dn1  v127
 BYTE   W01
 BYTE   N02  As1  v116
 BYTE   W06
 BYTE   N05  Fs1  v092
 BYTE   N03  Fs2  v116
 BYTE   N03  En4  v112
 BYTE   W01
 BYTE   N05  Cn1
 BYTE   W15
 BYTE   N03  Dn1  v127
 BYTE   W02
 BYTE   N01  Fs1  v088
 BYTE   N03  Fs2  v116
 BYTE   N02  En4  v100
 BYTE   W06
 BYTE   PEND 
// 064   ----------------------------------------
 BYTE   PATT
  POIN2 Label_3_0117CE3A
// 065   ----------------------------------------
 BYTE   PATT
  POIN2 Label_3_0117CE62
// 066   ----------------------------------------
 BYTE   PATT
  POIN2 Label_3_0117CE87
// 067   ----------------------------------------
 BYTE   N08  Cn1  v112
 BYTE   N03  Fs1  v104
 BYTE   W24
 BYTE   N05  Dn1  v127
 BYTE   N03  Fs1  v104
 BYTE   W18
 BYTE   N02  Fs1  v068
 BYTE   W06
 BYTE   N07  Cn1  v116
 BYTE   N03  Fs1
 BYTE   W15
 BYTE   Dn1  v127
 BYTE   W03
 BYTE   N04  Fs1  v088
 BYTE   W06
 BYTE   N05  Cn1  v116
 BYTE   N02  As1
 BYTE   W24
// 068   ----------------------------------------
 BYTE   N09  Cn1
 BYTE   N04  Fs1  v092
 BYTE   W24
 BYTE   N05  Dn1  v127
 BYTE   N03  Fs1  v112
 BYTE   W18
 BYTE   N04  Fs1  v076
 BYTE   W06
 BYTE   N07  Cn1  v116
 BYTE   N03  Fs1
 BYTE   W24
 BYTE   N05  Dn1  v127
 BYTE   N02  Fs1  v112
 BYTE   W18
 BYTE   N04  Fs1  v072
 BYTE   W06
// 069   ----------------------------------------
 BYTE   N08  Cn1  v100
 BYTE   N03  Fs1  v116
 BYTE   W24
 BYTE   N05  Dn1  v127
 BYTE   N03  Fs1  v100
 BYTE   W18
 BYTE   Fs1  v068
 BYTE   W06
 BYTE   N06  Cn1  v116
 BYTE   N03  Fs1  v100
 BYTE   W18
 BYTE   N02  As1  v116
 BYTE   W06
 BYTE   N03  Dn1  v127
 BYTE   N05  Fs1  v092
 BYTE   W18
 BYTE   N01  Fs1  v088
 BYTE   W06
// 070   ----------------------------------------
 BYTE   N11  Cn1  v104
 BYTE   N06  Fs1  v100
 BYTE   W24
 BYTE   N05  Dn1  v127
 BYTE   N03  Fs1  v116
 BYTE   W18
 BYTE   N02
 BYTE   W06
 BYTE   N07  Cn1  v112
 BYTE   N05  Fs1  v080
 BYTE   W18
 BYTE   N03  Fs1  v100
 BYTE   W06
 BYTE   N04  Dn1  v127
 BYTE   N05  Fs1  v104
 BYTE   W24
// 071   ----------------------------------------
 BYTE   N07  Cn1
 BYTE   N05  Dn1  v112
 BYTE   N03  Fs1  v116
 BYTE   W15
 BYTE   N04  Dn1  v127
 BYTE   W03
 BYTE   Fs1  v088
 BYTE   W06
 BYTE   N02  Fs1  v116
 BYTE   W12
 BYTE   Cn1  v104
 BYTE   W06
 BYTE   Cn1  v088
 BYTE   W06
 BYTE   N04  Dn1  v127
 BYTE   N04  Fs1  v116
 BYTE   W15
 BYTE   N03  Dn1  v127
 BYTE   N04  Fs1  v104
 BYTE   W09
 BYTE   N05  Cn1  v112
 BYTE   N03  As1  v116
 BYTE   W24
// 072   ----------------------------------------
 BYTE   PATT
  POIN2 Label_3_0117D167
// 073   ----------------------------------------
 BYTE   PATT
  POIN2 Label_3_0117CFAB
// 074   ----------------------------------------
 BYTE   PATT
  POIN2 Label_3_0117CFF0
// 075   ----------------------------------------
 BYTE   PATT
  POIN2 Label_3_0117D02A
// 076   ----------------------------------------
 BYTE   PATT
  POIN2 Label_3_0117D06C
// 077   ----------------------------------------
 BYTE   N08  Cn1  v100
 BYTE   N03  Fs1  v116
 BYTE   N04  Ds2  v100
 BYTE   W24
 BYTE   N05  Cs1  v104
 BYTE   N05  Dn1  v127
 BYTE   N03  Fs1  v100
 BYTE   N03  Ds2  v116
 BYTE   W18
 BYTE   Fs1  v068
 BYTE   N02  Ds2  v104
 BYTE   W06
 BYTE   N06  Cn1  v116
 BYTE   N03  Fs1  v100
 BYTE   N05  Ds2
 BYTE   W18
 BYTE   N02  As1  v116
 BYTE   N04  Ds2
 BYTE   W06
 BYTE   N06  Cs1
 BYTE   N03  Dn1  v127
 BYTE   N05  Fs1  v092
 BYTE   W18
 BYTE   N06  Dn1  v124
 BYTE   N01  Fs1  v088
 BYTE   N02  Ds2  v112
 BYTE   W06
// 078   ----------------------------------------
 BYTE   N08  Cn1
 BYTE   N06  Fs1  v100
 BYTE   N04  Ds2  v112
 BYTE   W24
 BYTE   N05  Cs1  v116
 BYTE   N05  Dn1  v127
 BYTE   N03  Fs1  v116
 BYTE   N03  Ds2
 BYTE   W18
 BYTE   N02  Fs1
 BYTE   N02  Ds2  v092
 BYTE   W06
 BYTE   N07  Cn1  v112
 BYTE   N05  Fs1  v080
 BYTE   N02  Ds2
 BYTE   W18
 BYTE   N03  Fs1  v100
 BYTE   W06
 BYTE   N05  Cs1  v112
 BYTE   N04  Dn1  v127
 BYTE   N05  Fs1  v104
 BYTE   N03  Ds2  v100
 BYTE   W18
 BYTE   N02  Ds2  v092
 BYTE   W06
// 079   ----------------------------------------
 BYTE   N07  Cn1  v104
 BYTE   N03  Fs1  v116
 BYTE   N03  Ds2  v080
 BYTE   W15
 BYTE   N04  Dn1  v127
 BYTE   W03
 BYTE   Fs1  v088
 BYTE   W06
 BYTE   N07  Cs1  v104
 BYTE   N02  Fs1  v116
 BYTE   N04  Ds2
 BYTE   W18
 BYTE   N05  Cn1  v088
 BYTE   N02  Ds2  v080
 BYTE   W06
 BYTE   N04  Dn1  v127
 BYTE   N04  Fs1  v116
 BYTE   N04  Ds2  v092
 BYTE   W15
 BYTE   Fs1  v104
 BYTE   W02
 BYTE   N03  Dn1  v127
 BYTE   W01
 BYTE   Ds2  v116
 BYTE   W06
 BYTE   N05  Cs1
 BYTE   N03  As1
 BYTE   W01
 BYTE   N05  Cn1  v112
 BYTE   W15
 BYTE   N03  Dn1  v127
 BYTE   W08
// 080   ----------------------------------------
 BYTE   N05  Fs1  v116
 BYTE   N03  Ds2  v100
 BYTE   W01
 BYTE   N08  Cn1  v116
 BYTE   W23
 BYTE   N05  Cs1  v100
 BYTE   N05  Dn1  v127
 BYTE   N05  Fs1  v112
 BYTE   N03  Ds2  v124
 BYTE   W18
 BYTE   Fs1  v100
 BYTE   N01  Ds2  v104
 BYTE   W06
 BYTE   N08  Cn1  v116
 BYTE   N04  Fs1  v112
 BYTE   N03  Ds2  v104
 BYTE   W24
 BYTE   N06  Cs1  v124
 BYTE   N04  Dn1  v127
 BYTE   N03  Fs1  v112
 BYTE   N03  Ds2  v116
 BYTE   W18
 BYTE   N05  Fs1  v088
 BYTE   N02  Ds2  v100
 BYTE   W06
// 081   ----------------------------------------
 BYTE   PATT
  POIN2 Label_3_0117D1A7
// 082   ----------------------------------------
 BYTE   PATT
  POIN2 Label_3_0117CFF0
// 083   ----------------------------------------
 BYTE   PATT
  POIN2 Label_3_0117D02A
// 084   ----------------------------------------
 BYTE   PATT
  POIN2 Label_3_0117D06C
// 085   ----------------------------------------
 BYTE   PATT
  POIN2 Label_3_0117D0A8
// 086   ----------------------------------------
 BYTE   PATT
  POIN2 Label_3_0117D0EB
// 087   ----------------------------------------
 BYTE   N07  Cn1  v104
 BYTE   N03  Fs1  v116
 BYTE   N03  Ds2  v080
 BYTE   W15
 BYTE   N04  Dn1  v127
 BYTE   W03
 BYTE   Fs1  v088
 BYTE   W06
 BYTE   N07  Cs1  v104
 BYTE   N02  Fs1  v116
 BYTE   N04  Ds2
 BYTE   W18
 BYTE   N05  Cn1  v088
 BYTE   N02  Ds2  v080
 BYTE   W06
 BYTE   N04  Dn1  v127
 BYTE   N04  Fs1  v116
 BYTE   N04  Ds2  v092
 BYTE   W15
 BYTE   Fs1  v104
 BYTE   W03
 BYTE   N03  Ds2  v116
 BYTE   W06
 BYTE   N05  Cn1  v112
 BYTE   N05  Cs1  v116
 BYTE   N03  Dn1  v127
 BYTE   N03  As1  v116
 BYTE   W16
 BYTE   Dn1  v127
 BYTE   W08
// 088   ----------------------------------------
 BYTE   N05  Fs1  v116
 BYTE   N04  An2  v127
 BYTE   N03  En4  v100
 BYTE   W01
 BYTE   N08  Cn1  v116
 BYTE   W23
 BYTE   N05  Dn1  v127
 BYTE   N05  Fs1  v112
 BYTE   N04  Fs2
 BYTE   N04  En4
 BYTE   W18
 BYTE   N03  Fs1  v100
 BYTE   N04  Fs2  v116
 BYTE   W06
 BYTE   N08  Cn1
 BYTE   N04  Fs1  v112
 BYTE   N03  En4  v092
 BYTE   W24
 BYTE   N04  Dn1  v127
 BYTE   N03  Fs1  v112
 BYTE   N03  Fs2  v116
 BYTE   N04  En4  v100
 BYTE   W18
 BYTE   N05  Fs1  v088
 BYTE   N04  Fs2  v112
 BYTE   W06
// 089   ----------------------------------------
 BYTE   PATT
  POIN2 Label_3_0117D2B5
// 090   ----------------------------------------
 BYTE   PATT
  POIN2 Label_3_0117D2F8
// 091   ----------------------------------------
 BYTE   PATT
  POIN2 Label_3_0117D331
// 092   ----------------------------------------
 BYTE   PATT
  POIN2 Label_3_0117D371
// 093   ----------------------------------------
 BYTE   N08  Cn1  v100
 BYTE   N03  Fs1  v116
 BYTE   N03  En4  v112
 BYTE   W24
 BYTE   N05  Dn1  v127
 BYTE   N03  Fs1  v100
 BYTE   N03  Fs2  v116
 BYTE   N03  En4  v104
 BYTE   W18
 BYTE   Fs1  v068
 BYTE   N03  Fs2  v116
 BYTE   W06
 BYTE   N06  Cn1
 BYTE   N03  Fs1  v100
 BYTE   N03  En4  v104
 BYTE   W18
 BYTE   Dn1  v127
 BYTE   N02  As1  v116
 BYTE   W06
 BYTE   N06  Dn1  v124
 BYTE   N05  Fs1  v092
 BYTE   N03  Fs2  v116
 BYTE   N03  En4  v112
 BYTE   W18
 BYTE   Cn1  v116
 BYTE   N01  Fs1  v088
 BYTE   N03  Fs2  v116
 BYTE   N02  En4  v100
 BYTE   W06
// 094   ----------------------------------------
 BYTE   N08  Cn1  v124
 BYTE   N06  Fs1  v100
 BYTE   N04  En4
 BYTE   W24
 BYTE   N05  Dn1  v127
 BYTE   N03  Fs1  v116
 BYTE   N03  Fs2  v124
 BYTE   N03  En4  v104
 BYTE   W18
 BYTE   N02  Fs1  v116
 BYTE   N03  Fs2
 BYTE   W06
 BYTE   N07  Cn1  v112
 BYTE   N05  Fs1  v080
 BYTE   N03  En4  v100
 BYTE   W18
 BYTE   Fs1
 BYTE   W06
 BYTE   N04  Dn1  v127
 BYTE   N05  Fs1  v104
 BYTE   N04  Fs2  v124
 BYTE   N03  En4  v100
 BYTE   W18
 BYTE   Fs2  v116
 BYTE   W06
// 095   ----------------------------------------
 BYTE   PATT
  POIN2 Label_3_0117D427
// 096   ----------------------------------------
 BYTE   PATT
  POIN2 Label_3_0117CE3A
// 097   ----------------------------------------
 BYTE   PATT
  POIN2 Label_3_0117CE62
// 098   ----------------------------------------
 BYTE   PATT
  POIN2 Label_3_0117CE87
// 099   ----------------------------------------
 BYTE   N08  Cn1  v112
 BYTE   N03  Fs1  v104
 BYTE   W24
 BYTE   N05  Dn1  v127
 BYTE   N03  Fs1  v104
 BYTE   W18
 BYTE   N02  Fs1  v068
 BYTE   W06
 BYTE   N07  Cn1  v116
 BYTE   N03  Fs1
 BYTE   W15
 BYTE   Dn1  v127
 BYTE   W03
 BYTE   N04  Fs1  v088
 BYTE   W06
 BYTE   N05  Cn1  v116
 BYTE   N02  As1  v088
 BYTE   W24
// 100   ----------------------------------------
 BYTE   N04  Fs1  v004
 BYTE   W96
// 101   ----------------------------------------
 BYTE   W96
// 102   ----------------------------------------
 BYTE   W96
// 103   ----------------------------------------
 BYTE   W72
 BYTE   W01
 BYTE   GoTo
  POIN2 Label_3_0117CA3E
 BYTE   FINE

//******************************************************//
	ALIGN 4

SuperMarioBros2OverworldPandan:
	BYTE	4	// NumTrks
	BYTE	0	// NumBlks
	BYTE	SuperMarioBros2OverworldPandan_pri	// Priority
	BYTE	SuperMarioBros2OverworldPandan_rev	// Reverb.
    
	POIN2	SuperMarioBros2OverworldPandan_grp
    
	POIN2	SuperMarioBros2OverworldPandan_001
	POIN2	SuperMarioBros2OverworldPandan_002
	POIN2	SuperMarioBros2OverworldPandan_003
	POIN2	SuperMarioBros2OverworldPandan_004

	
