//Event file generated from Sappy .s format.
	#include "MPlayDef.event"

	#define	SuperSmashBrosUltimateMenuMrGreen3339_grp  voicegroup000
	#define	SuperSmashBrosUltimateMenuMrGreen3339_pri  0
	#define	SuperSmashBrosUltimateMenuMrGreen3339_rev  0
	#define	SuperSmashBrosUltimateMenuMrGreen3339_mvl  127
	#define	SuperSmashBrosUltimateMenuMrGreen3339_key  0
	#define	SuperSmashBrosUltimateMenuMrGreen3339_tbs  1
	#define	SuperSmashBrosUltimateMenuMrGreen3339_exg  0
	#define	SuperSmashBrosUltimateMenuMrGreen3339_cmp  1

	// .rodata
	//	SuperSmashBrosUltimateMenuMrGreen3339
	ALIGN 4


//**************** Track 1 (Midi-Chn.0) ****************//

SuperSmashBrosUltimateMenuMrGreen3339_001:
// 000   ----------------------------------------
 BYTE   KEYSH   SuperSmashBrosUltimateMenuMrGreen3339_key+0
 BYTE   TEMPO   136*SuperSmashBrosUltimateMenuMrGreen3339_tbs/2
 BYTE   VOICE   56
 BYTE   VOL   51*SuperSmashBrosUltimateMenuMrGreen3339_mvl/mxv
 BYTE   PAN   c_v+0
 BYTE   VOL   51*SuperSmashBrosUltimateMenuMrGreen3339_mvl/mxv
 BYTE   PAN   c_v+0
 BYTE   N05  Cn4  v088
 BYTE   W06
 BYTE   Bn3  v096
 BYTE   W06
 BYTE   An3  v100
 BYTE   W06
 BYTE   Gn3  v092
 BYTE   W06
 BYTE   N23  En3  v112
 BYTE   N05  An3  v092
 BYTE   W06
 BYTE   Cn4  v084
 BYTE   W06
 BYTE   Dn4  v096
 BYTE   W06
 BYTE   En4  v104
 BYTE   W06
 BYTE   N23  An3  v112
 BYTE   N05  Fs4  v104
 BYTE   W06
 BYTE   En4  v096
 BYTE   W06
 BYTE   Dn4  v076
 BYTE   W06
 BYTE   Gn4  v096
 BYTE   W06
 BYTE   N12  Dn4  v112
 BYTE   N05  Fs4  v108
 BYTE   W06
 BYTE   En4  v096
 BYTE   W06
 BYTE   Dn4  v092
 BYTE   W06
 BYTE   Fs4  v080
 BYTE   W06
// 001   ----------------------------------------
 BYTE   N17  Bn3  v108
 BYTE   N05  Gn4  v092
 BYTE   W06
 BYTE   Fs4  v096
 BYTE   W06
 BYTE   En4  v088
 BYTE   W06
 BYTE   Bn3  v112
 BYTE   W06
 BYTE   Gn4  v096
 BYTE   W06
 BYTE   Fs4  v088
 BYTE   W06
 BYTE   En4  v116
 BYTE   W06
 BYTE   Bn3  v096
 BYTE   W06
 BYTE   N06  Dn4  v116
 BYTE   N05  An4  v096
 BYTE   W06
 BYTE   Dn4  v092
 BYTE   W06
 BYTE   Fs4
 BYTE   W06
 BYTE   N06  En4  v116
 BYTE   N05  An4  v096
 BYTE   W06
 BYTE   N02  En4  v068
 BYTE   W03
 BYTE   Fs4  v076
 BYTE   W03
 BYTE   Gn4  v080
 BYTE   W03
 BYTE   An4  v088
 BYTE   W03
 BYTE   N11  Fs4  v120
 BYTE   N02  Bn4  v096
 BYTE   W03
 BYTE   Cn5  v100
 BYTE   W03
 BYTE   Dn5  v104
 BYTE   W03
 BYTE   Ds5  v108
 BYTE   W03
// 002   ----------------------------------------
 BYTE   N92  Bn3  v120
 BYTE   N92  En4
 BYTE   N92  Bn4  v112
 BYTE   N92  En5
 BYTE   W96
// 003   ----------------------------------------
Label_0_015C3ACA:
 BYTE   W96
// 004   ----------------------------------------
 BYTE   W96
// 005   ----------------------------------------
 BYTE   W96
// 006   ----------------------------------------
 BYTE   W84
 BYTE   N05  Bn3  v112
 BYTE   W06
 BYTE   Cn4
 BYTE   W06
// 007   ----------------------------------------
 BYTE   N92  Bn3
 BYTE   W96
// 008   ----------------------------------------
 BYTE   N08  Cn4
 BYTE   W18
 BYTE   N11  Dn4
 BYTE   W18
 BYTE   En4
 BYTE   W12
 BYTE   Dn4
 BYTE   W24
 BYTE   N23  Gn4
 BYTE   W24
// 009   ----------------------------------------
 BYTE   N92  An4
 BYTE   W96
// 010   ----------------------------------------
 BYTE   N05  An3  v104
 BYTE   N05  Dn4  v116
 BYTE   W06
 BYTE   N08  An3  v104
 BYTE   N08  Dn4  v116
 BYTE   W18
 BYTE   N17  An3  v104
 BYTE   N17  Fn4  v120
 BYTE   W18
 BYTE   N11  Gn3  v112
 BYTE   N11  En4  v120
 BYTE   W18
 BYTE   N17  Gn3
 BYTE   N17  Bn3
 BYTE   N17  Gn4  v127
 BYTE   W12
 BYTE   N05  Fn4  v112
 BYTE   W06
 BYTE   Fs4
 BYTE   W06
 BYTE   Gn4
 BYTE   W06
 BYTE   An4
 BYTE   W06
// 011   ----------------------------------------
 BYTE   N76  Bn4
 BYTE   W78
 BYTE   N05
 BYTE   W06
 BYTE   Cn5
 BYTE   W06
 BYTE   Bn4
 BYTE   W06
// 012   ----------------------------------------
 BYTE   N76  Dn4  v100
 BYTE   W78
 BYTE   N05  Bn3  v104
 BYTE   W06
 BYTE   Cn4
 BYTE   W06
 BYTE   Bn3
 BYTE   W06
// 013   ----------------------------------------
 BYTE   N92  Dn3
 BYTE   W96
// 014   ----------------------------------------
 BYTE   N68  An2  v076
 BYTE   W84
 BYTE   N05  Gn3  v096
 BYTE   W06
 BYTE   An3  v100
 BYTE   W06
// 015   ----------------------------------------
 BYTE   Bn3  v108
 BYTE   W06
 BYTE   Cn4  v112
 BYTE   W06
 BYTE   N56  Bn3
 BYTE   W60
 BYTE   N05  An3  v096
 BYTE   W06
 BYTE   Bn3  v100
 BYTE   W06
 BYTE   Cn4
 BYTE   W06
 BYTE   Dn4  v104
 BYTE   W06
// 016   ----------------------------------------
 BYTE   N23  En4  v112
 BYTE   W24
 BYTE   Bn3
 BYTE   W24
 BYTE   Dn4
 BYTE   W24
 BYTE   Gn4
 BYTE   W24
// 017   ----------------------------------------
 BYTE   N92  An4
 BYTE   W96
// 018   ----------------------------------------
 BYTE   N23  Gn4
 BYTE   W24
 BYTE   Dn4  v108
 BYTE   W24
 BYTE   Fn4  v112
 BYTE   W24
 BYTE   N11  En4  v092
 BYTE   W12
 BYTE   Dn4
 BYTE   W12
// 019   ----------------------------------------
 BYTE   N17  An3  v127
 BYTE   W18
 BYTE   N17
 BYTE   W18
 BYTE   N11  An3  v124
 BYTE   W03
 BYTE   N02  Bn3  v076
 BYTE   W03
 BYTE   Cn4  v084
 BYTE   W03
 BYTE   Dn4  v092
 BYTE   W03
 BYTE   N44  An3  v124
 BYTE   N23  En4  v092
 BYTE   W24
 BYTE   Cn4
 BYTE   W24
// 020   ----------------------------------------
 BYTE   N17  Gn3  v124
 BYTE   N44  Dn4  v092
 BYTE   W18
 BYTE   N17  Fn3  v124
 BYTE   W18
 BYTE   N11  Gn3
 BYTE   W12
 BYTE   N44  Dn3  v127
 BYTE   W24
 BYTE   N23  An4  v092
 BYTE   W24
// 021   ----------------------------------------
 BYTE   N17  Bn3  v124
 BYTE   N92  Gn4  v092
 BYTE   W18
 BYTE   N17  Bn3  v124
 BYTE   W18
 BYTE   N11
 BYTE   W12
 BYTE   N23  Bn3  v127
 BYTE   W24
 BYTE   N11  Gn3
 BYTE   W12
 BYTE   En3
 BYTE   W12
// 022   ----------------------------------------
 BYTE   N23  Dn3
 BYTE   W24
 BYTE   N32  Cn3
 BYTE   W36
 BYTE   N11  Cn4  v124
 BYTE   W12
 BYTE   Bn3
 BYTE   W12
 BYTE   Cn4
 BYTE   W12
// 023   ----------------------------------------
 BYTE   N32  An3
 BYTE   W36
 BYTE   An4
 BYTE   W36
 BYTE   N11  En4
 BYTE   W12
 BYTE   N44  Ds4
 BYTE   W12
// 024   ----------------------------------------
 BYTE   W36
 BYTE   N11  Fs4
 BYTE   W24
 BYTE   Cn5
 BYTE   W12
 BYTE   Bn4
 BYTE   W12
 BYTE   An4
 BYTE   W12
// 025   ----------------------------------------
 BYTE   N44
 BYTE   W48
 BYTE   N11
 BYTE   W12
 BYTE   Gs4
 BYTE   W12
 BYTE   An4
 BYTE   W12
 BYTE   TIE  Bn4
 BYTE   W12
// 026   ----------------------------------------
 BYTE   N17  Bn3  v120
 BYTE   N17  En4
 BYTE   W18
 BYTE   N08  An3
 BYTE   N08  Dn4
 BYTE   W18
 BYTE   N11
 BYTE   N11  Gn4
 BYTE   W24
 BYTE   N32  Dn4
 BYTE   N32  Gn4
 BYTE   W32
 BYTE   W03
 BYTE   EOT
 BYTE   Bn4
 BYTE   W01
// 027   ----------------------------------------
Label_0_015C3BF8:
 BYTE   N17  En3  v120
 BYTE   N11  En5  v112
 BYTE   W18
 BYTE   N17  Fs3  v120
 BYTE   W06
 BYTE   N11  En5  v112
 BYTE   W12
 BYTE   N23  Gn3  v120
 BYTE   W12
 BYTE   N11  En5  v112
 BYTE   W12
 BYTE   En3  v120
 BYTE   W12
 BYTE   Gn3
 BYTE   N11  En5  v112
 BYTE   W12
 BYTE   Dn4  v120
 BYTE   W12
 BYTE   PEND 
// 028   ----------------------------------------
 BYTE   N17  Cs4
 BYTE   N11  En5  v112
 BYTE   W18
 BYTE   N17  Bn3  v120
 BYTE   W06
 BYTE   N11  En5  v112
 BYTE   W12
 BYTE   Cs4  v120
 BYTE   W12
 BYTE   N44  An3
 BYTE   N11  En5  v112
 BYTE   W24
 BYTE   N11
 BYTE   W24
// 029   ----------------------------------------
Label_0_015C3C34:
 BYTE   N17  Cn4  v120
 BYTE   N11  En5  v112
 BYTE   W18
 BYTE   N17  Bn3  v120
 BYTE   W06
 BYTE   N11  En5  v112
 BYTE   W12
 BYTE   N23  An3  v120
 BYTE   W12
 BYTE   N11  En5  v112
 BYTE   W12
 BYTE   Gn3  v120
 BYTE   W12
 BYTE   An3
 BYTE   N11  En5  v112
 BYTE   W12
 BYTE   Bn3  v120
 BYTE   W12
 BYTE   PEND 
// 030   ----------------------------------------
 BYTE   N17  An3
 BYTE   N11  En5  v112
 BYTE   W18
 BYTE   N17  Gn3  v120
 BYTE   W06
 BYTE   N11  En5  v112
 BYTE   W12
 BYTE   An3  v120
 BYTE   W12
 BYTE   N44  Fs3
 BYTE   N11  En5  v112
 BYTE   W24
 BYTE   N11
 BYTE   W24
 BYTE   PATT
  POIN2 Label_0_015C3BF8
// 031   ----------------------------------------
 BYTE   N17  Cs4  v120
 BYTE   N11  En5  v112
 BYTE   W18
 BYTE   N17  Bn3  v120
 BYTE   W06
 BYTE   N11  En5  v112
 BYTE   W12
 BYTE   Cs4  v120
 BYTE   W12
 BYTE   N44  En4
 BYTE   N11  En5  v112
 BYTE   W48
 BYTE   PATT
  POIN2 Label_0_015C3C34
// 032   ----------------------------------------
 BYTE   N17  An3  v120
 BYTE   N11  En5  v112
 BYTE   W18
 BYTE   N17  Gn3  v120
 BYTE   W06
 BYTE   N11  En5  v112
 BYTE   W12
 BYTE   An3  v120
 BYTE   W12
 BYTE   N44  Fs3
 BYTE   N08  En5  v112
 BYTE   W18
 BYTE   N05  Bn3
 BYTE   W06
 BYTE   Cn4
 BYTE   W06
 BYTE   Cs4
 BYTE   W06
 BYTE   Dn4
 BYTE   W06
 BYTE   Ds4
 BYTE   W06
// 033   ----------------------------------------
 BYTE   N17  En4  v127
 BYTE   W18
 BYTE   Fs4
 BYTE   W18
 BYTE   N23  Gn4
 BYTE   W24
 BYTE   N11  En4
 BYTE   W12
 BYTE   Gn4
 BYTE   W12
 BYTE   Dn5
 BYTE   W12
// 034   ----------------------------------------
 BYTE   N17  Cs5
 BYTE   W18
 BYTE   Bn4
 BYTE   W06
 BYTE   N23  En4  v100
 BYTE   W12
 BYTE   N11  Cs5  v127
 BYTE   W12
 BYTE   N44  An4
 BYTE   W12
 BYTE   N11  En4  v100
 BYTE   W36
// 035   ----------------------------------------
 BYTE   N17  Cn5  v127
 BYTE   W18
 BYTE   Bn4
 BYTE   W18
 BYTE   N23  An4
 BYTE   W24
 BYTE   N11  Gn4
 BYTE   W12
 BYTE   An4
 BYTE   W12
 BYTE   Bn4
 BYTE   W12
// 036   ----------------------------------------
 BYTE   N17  An4
 BYTE   W18
 BYTE   Gn4
 BYTE   W18
 BYTE   N11  An4
 BYTE   W12
 BYTE   N44  Fs4
 BYTE   W48
// 037   ----------------------------------------
 BYTE   N17  En4  v096
 BYTE   W18
 BYTE   Fs4  v127
 BYTE   W18
 BYTE   N23  Gn4
 BYTE   W12
 BYTE   N44  Bn3  v096
 BYTE   W12
 BYTE   N11  En4  v127
 BYTE   W12
 BYTE   Gn4
 BYTE   W12
 BYTE   Dn5
 BYTE   W12
// 038   ----------------------------------------
 BYTE   N23  En4  v100
 BYTE   N17  Cs5  v127
 BYTE   W18
 BYTE   N06  Bn4
 BYTE   W06
 BYTE   N11  Bn4  v104
 BYTE   W12
 BYTE   Cs5  v127
 BYTE   W12
 BYTE   N44  An4  v108
 BYTE   N44  En5  v127
 BYTE   W48
// 039   ----------------------------------------
 BYTE   N17  Bn3  v096
 BYTE   N17  En4  v108
 BYTE   N17  Cn5  v127
 BYTE   W18
 BYTE   N05  Bn3  v092
 BYTE   N05  En4  v112
 BYTE   N17  Bn4  v127
 BYTE   W18
 BYTE   N44  Dn4  v100
 BYTE   N44  Fs4  v112
 BYTE   N23  An4  v127
 BYTE   W24
 BYTE   N11  Gn4
 BYTE   W12
 BYTE   An4
 BYTE   W12
 BYTE   Bn4
 BYTE   W12
// 040   ----------------------------------------
 BYTE   N17  En4  v100
 BYTE   N17  Gn4  v108
 BYTE   N17  An4  v127
 BYTE   W18
 BYTE   N05  En4  v096
 BYTE   N05  Gn4  v112
 BYTE   W18
 BYTE   N12  Fs4  v100
 BYTE   N11  An4  v112
 BYTE   W12
 BYTE   N08  Fs4  v127
 BYTE   W18
 BYTE   N11  An4
 BYTE   W18
 BYTE   Dn5
 BYTE   W12
// 041   ----------------------------------------
 BYTE   TIE  En5
 BYTE   W24
 BYTE   N23  En2  v120
 BYTE   W24
 BYTE   An2
 BYTE   W24
 BYTE   En2
 BYTE   W24
// 042   ----------------------------------------
 BYTE   N44  Bn2
 BYTE   W48
 BYTE   An2
 BYTE   W44
 BYTE   W03
 BYTE   EOT
 BYTE   En5
 BYTE   W01
// 043   ----------------------------------------
 BYTE   N05  En4  v112
 BYTE   W12
 BYTE   Bn3  v096
 BYTE   W06
 BYTE   Bn3  v092
 BYTE   W06
 BYTE   N11  An2
 BYTE   N11  Dn3
 BYTE   N05  Dn4  v112
 BYTE   W06
 BYTE   En4
 BYTE   W12
 BYTE   N17
 BYTE   W06
 BYTE   N11  Bn2  v092
 BYTE   N11  Cs3
 BYTE   W12
 BYTE   N05  Bn3  v104
 BYTE   W06
 BYTE   Bn3  v100
 BYTE   W06
 BYTE   Dn4  v112
 BYTE   W06
 BYTE   En4
 BYTE   W12
 BYTE   N17
 BYTE   W06
// 044   ----------------------------------------
 BYTE   N08  An2  v092
 BYTE   N08  Dn3
 BYTE   W12
 BYTE   N05  Bn3
 BYTE   W06
 BYTE   N11  An2
 BYTE   N11  Dn3
 BYTE   N05  Bn3  v104
 BYTE   W06
 BYTE   Dn4  v108
 BYTE   W06
 BYTE   En4  v112
 BYTE   W06
 BYTE   N32  Bn2  v092
 BYTE   N32  Cs3
 BYTE   W06
 BYTE   N05  Gn4  v112
 BYTE   W12
 BYTE   N05
 BYTE   W06
 BYTE   Fs4
 BYTE   W12
 BYTE   En4  v104
 BYTE   W12
 BYTE   Dn4
 BYTE   W12
// 045   ----------------------------------------
 BYTE   TIE  En4
 BYTE   W96
// 046   ----------------------------------------
 BYTE   W72
 BYTE   N05  Dn4  v024
 BYTE   W06
 BYTE   Bn3  v044
 BYTE   W06
 BYTE   Dn4  v064
 BYTE   W06
 BYTE   Ds4  v060
 BYTE   W05
 BYTE   EOT
 BYTE   En4
 BYTE   W01
// 047   ----------------------------------------
 BYTE   N08  Bn2  v092
 BYTE   N08  Dn3
 BYTE   N05  Bn3  v104
 BYTE   N05  En4
 BYTE   W12
 BYTE   Gn3  v092
 BYTE   N05  Bn3
 BYTE   W06
 BYTE   N11  Bn2  v064
 BYTE   N11  Dn3
 BYTE   N05  Gn3  v092
 BYTE   N05  Bn3
 BYTE   W06
 BYTE   An3  v096
 BYTE   N05  Dn4
 BYTE   W06
 BYTE   Bn3  v104
 BYTE   N05  En4
 BYTE   W06
 BYTE   N11  An2  v092
 BYTE   N11  Cs3
 BYTE   W06
 BYTE   N17  Bn3  v104
 BYTE   N17  En4
 BYTE   W18
 BYTE   N05  Gn3  v092
 BYTE   N05  Bn3
 BYTE   W06
 BYTE   Gn3
 BYTE   N05  Bn3
 BYTE   W06
 BYTE   N11  An2
 BYTE   N11  Cs3
 BYTE   N05  An3  v096
 BYTE   N05  Dn4
 BYTE   W06
 BYTE   Bn3  v100
 BYTE   N05  En4
 BYTE   W12
 BYTE   N17  Bn3
 BYTE   N17  En4
 BYTE   W06
// 048   ----------------------------------------
 BYTE   N08  An2  v088
 BYTE   N08  Dn3
 BYTE   W12
 BYTE   N05  Gn3  v092
 BYTE   N05  Bn3
 BYTE   W06
 BYTE   N11  An2  v064
 BYTE   N11  Dn3
 BYTE   N05  Gn3  v092
 BYTE   N05  Bn3
 BYTE   W06
 BYTE   An3  v104
 BYTE   N05  Dn4
 BYTE   W06
 BYTE   Bn3
 BYTE   N05  En4
 BYTE   W06
 BYTE   N52  An2  v080
 BYTE   N52  Dn3
 BYTE   W06
 BYTE   N05  Dn4  v104
 BYTE   N05  Gn4
 BYTE   W12
 BYTE   Dn4
 BYTE   N05  Gn4
 BYTE   W06
 BYTE   Cs4
 BYTE   N05  Fs4
 BYTE   W12
 BYTE   Bn3  v096
 BYTE   N05  En4
 BYTE   W12
 BYTE   An3
 BYTE   N05  Dn4
 BYTE   W12
// 049   ----------------------------------------
 BYTE   N17  En3  v120
 BYTE   W18
 BYTE   Fs3
 BYTE   W18
 BYTE   N23  Gn3
 BYTE   W24
 BYTE   N11  En3
 BYTE   W12
 BYTE   Gn3
 BYTE   W12
 BYTE   Bn3
 BYTE   W12
// 050   ----------------------------------------
 BYTE   N17  An3
 BYTE   W18
 BYTE   Gn3
 BYTE   W18
 BYTE   N11  Fs3
 BYTE   W12
 BYTE   N23  Dn3
 BYTE   W24
 BYTE   N11  Dn4
 BYTE   N23  Dn5  v112
 BYTE   W24
// 051   ----------------------------------------
 BYTE   N68  Cn5
 BYTE   W72
 BYTE   N23  Gn5
 BYTE   W24
// 052   ----------------------------------------
 BYTE   Fs5
 BYTE   W24
 BYTE   Dn5
 BYTE   W24
 BYTE   N17  An4
 BYTE   W18
 BYTE   Gn4
 BYTE   W18
 BYTE   N11  Fs4
 BYTE   W12
// 053   ----------------------------------------
 BYTE   N80  En4  v120
 BYTE   W84
 BYTE   N05
 BYTE   W06
 BYTE   N05
 BYTE   W06
// 054   ----------------------------------------
 BYTE   N32
 BYTE   W36
 BYTE   N05
 BYTE   W12
 BYTE   N17  An4  v112
 BYTE   W12
 BYTE   N05  En4  v120
 BYTE   W06
 BYTE   N17  Gn4  v112
 BYTE   W12
 BYTE   N08  En4  v120
 BYTE   W06
 BYTE   N11  Fs4  v112
 BYTE   W12
// 055   ----------------------------------------
 BYTE   N80  En4  v120
 BYTE   W84
 BYTE   N05  Ds4  v112
 BYTE   W06
 BYTE   En4
 BYTE   W06
// 056   ----------------------------------------
 BYTE   N18  Ds4  v120
 BYTE   N17  Fs4  v116
 BYTE   W18
 BYTE   Ds4  v100
 BYTE   W18
 BYTE   N11  Bn3  v088
 BYTE   W12
 BYTE   N23  Fs3  v084
 BYTE   W48
// 057   ----------------------------------------
 BYTE   N08  An3  v108
 BYTE   W18
 BYTE   N11
 BYTE   W18
 BYTE   An3  v104
 BYTE   W03
 BYTE   N02  Bn3  v076
 BYTE   W03
 BYTE   Cn4  v084
 BYTE   W03
 BYTE   Dn4  v092
 BYTE   W03
 BYTE   N44  An3  v104
 BYTE   N23  En4  v092
 BYTE   W24
 BYTE   Cn4
 BYTE   W24
// 058   ----------------------------------------
 BYTE   N17  Gn3  v104
 BYTE   N44  Dn4  v092
 BYTE   W18
 BYTE   N17  Fn3  v104
 BYTE   W18
 BYTE   N11  Gn3
 BYTE   W12
 BYTE   N44  Dn3  v108
 BYTE   W24
 BYTE   N23  An4  v092
 BYTE   W24
// 059   ----------------------------------------
 BYTE   N08  Bn3  v108
 BYTE   TIE  Gn4  v092
 BYTE   W18
 BYTE   N11  Bn3  v108
 BYTE   W18
 BYTE   N11
 BYTE   W12
 BYTE   N23
 BYTE   W24
 BYTE   N11  Gn3
 BYTE   W12
 BYTE   En3
 BYTE   W12
// 060   ----------------------------------------
 BYTE   N23  Dn3
 BYTE   W23
 BYTE   EOT
 BYTE   Gn4
 BYTE   W01
 BYTE   N32  Cn3
 BYTE   W36
 BYTE   N11  Cn4  v112
 BYTE   W12
 BYTE   Bn3
 BYTE   W12
 BYTE   Cn4
 BYTE   W12
// 061   ----------------------------------------
 BYTE   N32  An3
 BYTE   W36
 BYTE   An4
 BYTE   W36
 BYTE   N11  En4
 BYTE   W12
 BYTE   N44  Ds4
 BYTE   W12
// 062   ----------------------------------------
 BYTE   W36
 BYTE   N11  Fs4
 BYTE   W24
 BYTE   Cn5
 BYTE   W12
 BYTE   Bn4
 BYTE   W12
 BYTE   An4
 BYTE   W12
// 063   ----------------------------------------
 BYTE   N44
 BYTE   W48
 BYTE   N11
 BYTE   W12
 BYTE   Gs4
 BYTE   W12
 BYTE   An4
 BYTE   W12
 BYTE   TIE  Bn4
 BYTE   W12
// 064   ----------------------------------------
 BYTE   N17  Bn3  v120
 BYTE   N17  En4
 BYTE   W18
 BYTE   An3
 BYTE   N17  Dn4
 BYTE   W18
 BYTE   N11
 BYTE   N11  Gn4
 BYTE   W24
 BYTE   N17  Dn4
 BYTE   N17  Gn4
 BYTE   W32
 BYTE   W03
 BYTE   EOT
 BYTE   Bn4
 BYTE   W01
// 065   ----------------------------------------
 BYTE   N17  Cn4
 BYTE   N17  Fn4
 BYTE   W18
 BYTE   As3
 BYTE   N17  Ds4
 BYTE   W18
 BYTE   N11
 BYTE   N11  Gs4
 BYTE   W24
 BYTE   N17  Ds4
 BYTE   N17  Gs4
 BYTE   W12
 BYTE   N05  Cn5  v112
 BYTE   W06
 BYTE   Dn5
 BYTE   W06
 BYTE   Ds5
 BYTE   W06
 BYTE   En5
 BYTE   W06
// 066   ----------------------------------------
Label_0_015C3F89:
 BYTE   N17  Fn3  v120
 BYTE   TIE  Fn5  v112
 BYTE   W18
 BYTE   N17  Gn3  v120
 BYTE   W18
 BYTE   N23  Gs3
 BYTE   W24
 BYTE   N11  Fn3
 BYTE   W12
 BYTE   Gs3
 BYTE   W12
 BYTE   Ds4
 BYTE   W12
 BYTE   PEND 
// 067   ----------------------------------------
 BYTE   N17  Dn4
 BYTE   W18
 BYTE   Cn4
 BYTE   W18
 BYTE   N11  Dn4
 BYTE   W12
 BYTE   N44  As3
 BYTE   W48
// 068   ----------------------------------------
Label_0_015C3FAA:
 BYTE   N17  Cs4  v120
 BYTE   W18
 BYTE   Cn4
 BYTE   W18
 BYTE   N23  As3
 BYTE   W24
 BYTE   N11  Gs3
 BYTE   W12
 BYTE   As3
 BYTE   W12
 BYTE   Cn4
 BYTE   W11
 BYTE   PEND 
 BYTE   EOT
 BYTE   Fn5
 BYTE   W01
// 069   ----------------------------------------
 BYTE   N17  As3
 BYTE   W18
 BYTE   Gs3
 BYTE   W18
 BYTE   N11  As3
 BYTE   W12
 BYTE   N44  Gn3
 BYTE   N23  As5  v112
 BYTE   W24
 BYTE   N05  Gs5
 BYTE   W12
 BYTE   Gn5
 BYTE   W12
 BYTE   PATT
  POIN2 Label_0_015C3F89
// 070   ----------------------------------------
 BYTE   N17  Dn4  v120
 BYTE   W18
 BYTE   Cn4
 BYTE   W18
 BYTE   N11  Dn4
 BYTE   W12
 BYTE   N44  Fn4
 BYTE   W48
 BYTE   PATT
  POIN2 Label_0_015C3FAA
// 071   ----------------------------------------
 BYTE   EOT
 BYTE   Fn5
 BYTE   W01
 BYTE   N17  As3  v120
 BYTE   W18
 BYTE   Gs3
 BYTE   W18
 BYTE   N11  As3
 BYTE   W12
 BYTE   N44  Gn3
 BYTE   W48
// 072   ----------------------------------------
 BYTE   N17  Fn4  v112
 BYTE   W18
 BYTE   Gn4
 BYTE   W18
 BYTE   N23  Gs4
 BYTE   W24
 BYTE   N11  Fn4
 BYTE   W12
 BYTE   Gs4
 BYTE   W12
 BYTE   Ds5
 BYTE   W12
// 073   ----------------------------------------
 BYTE   N17  Dn5
 BYTE   W18
 BYTE   Cn5
 BYTE   W18
 BYTE   N11  Dn5
 BYTE   W12
 BYTE   N44  As4
 BYTE   W48
// 074   ----------------------------------------
 BYTE   N17  Cs5
 BYTE   W18
 BYTE   Cn5
 BYTE   W18
 BYTE   N23  As4
 BYTE   W24
 BYTE   N11  Gs4
 BYTE   W12
 BYTE   As4
 BYTE   W12
 BYTE   Cn5
 BYTE   W12
// 075   ----------------------------------------
 BYTE   N17  As4
 BYTE   W18
 BYTE   Gs4
 BYTE   W18
 BYTE   N11  As4
 BYTE   W12
 BYTE   N44  Gn4
 BYTE   W48
// 076   ----------------------------------------
 BYTE   N17  Fn4  v096
 BYTE   W18
 BYTE   Gn4  v112
 BYTE   W18
 BYTE   N23  Gs4
 BYTE   W12
 BYTE   N44  Cn4  v096
 BYTE   W12
 BYTE   N11  Fn4  v112
 BYTE   W12
 BYTE   Gs4
 BYTE   W12
 BYTE   Ds5
 BYTE   W12
// 077   ----------------------------------------
 BYTE   N23  Fn4  v100
 BYTE   N17  Dn5  v112
 BYTE   W18
 BYTE   N06  Cn5
 BYTE   W06
 BYTE   N11  Cn5  v104
 BYTE   W12
 BYTE   Dn5  v112
 BYTE   W12
 BYTE   N44  As4  v108
 BYTE   N44  Fn5  v112
 BYTE   W48
// 078   ----------------------------------------
 BYTE   N17  Cn4  v096
 BYTE   N17  Fn4  v108
 BYTE   N17  Cs5  v112
 BYTE   W18
 BYTE   N05  Cn4  v092
 BYTE   N05  Fn4  v112
 BYTE   N17  Cn5
 BYTE   W18
 BYTE   N44  Ds4  v100
 BYTE   N44  Gn4  v112
 BYTE   N23  As4
 BYTE   W24
 BYTE   N11  Gs4
 BYTE   W12
 BYTE   As4
 BYTE   W12
 BYTE   Cn5
 BYTE   W12
// 079   ----------------------------------------
 BYTE   N17  Fn4  v100
 BYTE   N17  Gs4  v108
 BYTE   N17  As4  v112
 BYTE   W18
 BYTE   N05  Fn4  v096
 BYTE   N05  Gs4  v112
 BYTE   W18
 BYTE   N12  Gn4  v100
 BYTE   N11  As4  v112
 BYTE   W12
 BYTE   N08  Gn4
 BYTE   W18
 BYTE   N11  As4
 BYTE   W18
 BYTE   Ds5
 BYTE   W12
// 080   ----------------------------------------
 BYTE   TIE  Fn5
 BYTE   W96
// 081   ----------------------------------------
 BYTE   W92
 BYTE   W03
 BYTE   EOT
 BYTE   W01
// 082   ----------------------------------------
 BYTE   N76  Cs4  v127
 BYTE   W84
 BYTE   N56  Ds4
 BYTE   W12
// 083   ----------------------------------------
 BYTE   W36
 BYTE   N02  Ds5  v068
 BYTE   W03
 BYTE   En5  v076
 BYTE   W03
 BYTE   Fn5  v088
 BYTE   W03
 BYTE   Fs5  v100
 BYTE   W03
 BYTE   N11  Gn4  v127
 BYTE   N11  Gn5  v112
 BYTE   W24
 BYTE   Fn4  v127
 BYTE   N11  Fn5  v112
 BYTE   W24
// 084   ----------------------------------------
 BYTE   GoTo
  POIN2 Label_0_015C3ACA
 BYTE   FINE

//**************** Track 2 (Midi-Chn.1) ****************//

SuperSmashBrosUltimateMenuMrGreen3339_002:
// 000   ----------------------------------------
 BYTE   KEYSH   SuperSmashBrosUltimateMenuMrGreen3339_key+0
 BYTE   VOICE   127
 BYTE   VOL   51*SuperSmashBrosUltimateMenuMrGreen3339_mvl/mxv
 BYTE   PAN   c_v+0
 BYTE   VOL   51*SuperSmashBrosUltimateMenuMrGreen3339_mvl/mxv
 BYTE   PAN   c_v+0
 BYTE   N23  An2  v108
 BYTE   W24
 BYTE   N11  Ds2  v096
 BYTE   W12
 BYTE   Ds2  v072
 BYTE   W12
 BYTE   N05  Ds2  v096
 BYTE   W06
 BYTE   Ds2  v080
 BYTE   W06
 BYTE   N11  Ds2  v096
 BYTE   W12
 BYTE   N11
 BYTE   W12
 BYTE   Ds2  v068
 BYTE   W12
// 001   ----------------------------------------
 BYTE   Ds2  v096
 BYTE   W12
 BYTE   Ds2  v068
 BYTE   W12
 BYTE   Ds2  v096
 BYTE   W12
 BYTE   Ds2  v072
 BYTE   W12
 BYTE   Ds2  v096
 BYTE   W12
 BYTE   Ds2  v072
 BYTE   N32  Cn3  v124
 BYTE   W12
 BYTE   N11  Ds2  v096
 BYTE   W12
 BYTE   Ds2  v072
 BYTE   W12
// 002   ----------------------------------------
 BYTE   N23  An2  v108
 BYTE   W48
 BYTE   N05  Dn1  v124
 BYTE   N05  An1  v127
 BYTE   W06
 BYTE   N11  Dn1  v112
 BYTE   N11  An1  v127
 BYTE   W12
 BYTE   N05  Dn1  v124
 BYTE   N05  An1  v127
 BYTE   W06
 BYTE   N11  Cn1
 BYTE   N11  Fn1
 BYTE   W12
 BYTE   Cn1
 BYTE   N11  Fn1
 BYTE   W12
// 003   ----------------------------------------
Label_1_015C4131:
 BYTE   N11  Cn1  v127
 BYTE   N23  As1  v088
 BYTE   N23  An2  v108
 BYTE   W12
 BYTE   N11  Cn1  v127
 BYTE   N11  Gs1  v116
 BYTE   W12
 BYTE   N23  Dn1  v124
 BYTE   N23  As1  v088
 BYTE   W12
 BYTE   N05  Gs1  v116
 BYTE   W06
 BYTE   Cn1  v127
 BYTE   W06
 BYTE   N23  As1  v088
 BYTE   W12
 BYTE   N11  Cn1  v127
 BYTE   N11  Gs1  v116
 BYTE   W12
 BYTE   N23  Dn1  v124
 BYTE   N23  As1  v088
 BYTE   W12
 BYTE   N11  Gs1  v116
 BYTE   W12
// 004   ----------------------------------------
Label_1_015C4166:
 BYTE   N11  Cn1  v127
 BYTE   N23  As1  v088
 BYTE   W12
 BYTE   N11  Cn1  v127
 BYTE   N11  Gs1  v116
 BYTE   W12
 BYTE   N23  Dn1  v124
 BYTE   N23  As1  v088
 BYTE   W12
 BYTE   N05  Gs1  v116
 BYTE   W06
 BYTE   Cn1  v127
 BYTE   W06
 BYTE   N23  As1  v088
 BYTE   W12
 BYTE   N11  Cn1  v127
 BYTE   N11  Gs1  v116
 BYTE   W12
 BYTE   N23  Dn1  v124
 BYTE   N23  As1  v088
 BYTE   W12
 BYTE   N11  Gs1  v116
 BYTE   W12
 BYTE   PEND 
// 005   ----------------------------------------
Label_1_015C4199:
 BYTE   N11  Cn1  v127
 BYTE   N23  As1  v088
 BYTE   W12
 BYTE   N11  Cn1  v127
 BYTE   N11  Gs1  v116
 BYTE   W12
 BYTE   N23  Dn1  v124
 BYTE   N23  As1  v088
 BYTE   W12
 BYTE   N11  Gs1  v116
 BYTE   W12
 BYTE   N23  As1  v088
 BYTE   W12
 BYTE   N11  Cn1  v127
 BYTE   N11  Gs1  v116
 BYTE   W12
 BYTE   N23  Dn1  v124
 BYTE   N23  As1  v088
 BYTE   W12
 BYTE   N11  Gs1  v116
 BYTE   W12
 BYTE   PEND 
// 006   ----------------------------------------
 BYTE   Cn1  v127
 BYTE   N23  As1  v088
 BYTE   W12
 BYTE   N11  Cn1  v127
 BYTE   N11  Gs1  v116
 BYTE   W12
 BYTE   N23  Dn1  v124
 BYTE   N23  As1  v088
 BYTE   W12
 BYTE   N11  Gs1  v116
 BYTE   W12
 BYTE   N23  As1  v088
 BYTE   W12
 BYTE   N11  Cn1  v127
 BYTE   N11  Gs1  v116
 BYTE   W12
 BYTE   N23  Dn1  v124
 BYTE   N23  As1  v088
 BYTE   W24
 BYTE   PATT
  POIN2 Label_1_015C4199
 BYTE   PATT
  POIN2 Label_1_015C4199
// 007   ----------------------------------------
 BYTE   N11  Cn1  v127
 BYTE   N23  As1  v088
 BYTE   W12
 BYTE   N11  Cn1  v127
 BYTE   N11  Gs1  v116
 BYTE   W12
 BYTE   N23  Dn1  v124
 BYTE   N23  As1  v088
 BYTE   W12
 BYTE   N11  Gs1  v116
 BYTE   W12
 BYTE   N23  As1  v088
 BYTE   W12
 BYTE   N11  Cn1  v127
 BYTE   N11  Gs1  v116
 BYTE   W12
 BYTE   N23  Dn1  v124
 BYTE   N23  As1  v088
 BYTE   W12
 BYTE   N11  Cn1  v127
 BYTE   N11  Gs1  v116
 BYTE   W12
// 008   ----------------------------------------
 BYTE   N05  Dn1  v124
 BYTE   N11  Gs1  v127
 BYTE   W06
 BYTE   N17  Dn1  v092
 BYTE   W06
 BYTE   N11  Gs1  v127
 BYTE   W12
 BYTE   N17  Dn1  v124
 BYTE   N11  Gs1  v127
 BYTE   W12
 BYTE   N11
 BYTE   W06
 BYTE   N05  Dn1  v124
 BYTE   W06
 BYTE   N11  Gs1  v127
 BYTE   W12
 BYTE   Cn1
 BYTE   N11  Dn1  v124
 BYTE   N11  Gs1  v127
 BYTE   N11  An2  v088
 BYTE   W12
 BYTE   N05  Dn1  v124
 BYTE   N11  Gs1  v127
 BYTE   W06
 BYTE   N05  Dn1  v124
 BYTE   W06
 BYTE   N05
 BYTE   N11  Gs1  v127
 BYTE   W06
 BYTE   N05  Dn1  v124
 BYTE   W06
// 009   ----------------------------------------
 BYTE   N11  Cn1  v127
 BYTE   N23  As1  v088
 BYTE   N23  An2  v108
 BYTE   W12
 BYTE   N11  Cn1  v127
 BYTE   N11  Gs1  v116
 BYTE   W12
 BYTE   N23  Dn1  v124
 BYTE   N23  As1  v088
 BYTE   W12
 BYTE   N11  Gs1  v116
 BYTE   W12
 BYTE   As1  v088
 BYTE   W12
 BYTE   N05  Cn1  v127
 BYTE   N11  As1  v088
 BYTE   W06
 BYTE   N05  Gs1  v116
 BYTE   W06
 BYTE   N23  Dn1  v124
 BYTE   W12
 BYTE   N11  Gs1  v116
 BYTE   W12
// 010   ----------------------------------------
 BYTE   Cn1  v127
 BYTE   N11  Gs1  v116
 BYTE   W12
 BYTE   Cn1  v127
 BYTE   N11  As1  v084
 BYTE   W12
 BYTE   N23  Dn1  v124
 BYTE   N11  Gs1  v116
 BYTE   W12
 BYTE   N05
 BYTE   W06
 BYTE   Cn1  v127
 BYTE   W06
 BYTE   N23  As1  v088
 BYTE   W12
 BYTE   N11  Cn1  v127
 BYTE   N11  Gs1  v116
 BYTE   W12
 BYTE   N23  Dn1  v124
 BYTE   N23  As1  v088
 BYTE   W12
 BYTE   N11  Gs1  v116
 BYTE   W12
// 011   ----------------------------------------
 BYTE   Cn1  v127
 BYTE   N11  Gs1  v116
 BYTE   W12
 BYTE   Cn1  v127
 BYTE   N11  Gs1  v116
 BYTE   W12
 BYTE   N23  Dn1  v124
 BYTE   N23  As1  v088
 BYTE   W12
 BYTE   N11  Gs1  v116
 BYTE   W12
 BYTE   N23  As1  v088
 BYTE   W12
 BYTE   N11  Cn1  v127
 BYTE   N11  Gs1  v116
 BYTE   W12
 BYTE   N23  Dn1  v124
 BYTE   N11  Gs1  v060
 BYTE   W12
 BYTE   Gs1  v116
 BYTE   W12
// 012   ----------------------------------------
 BYTE   Cn1  v127
 BYTE   N11  Gs1  v060
 BYTE   W12
 BYTE   Cn1  v127
 BYTE   N11  As1  v084
 BYTE   W12
 BYTE   N23  Dn1  v124
 BYTE   W12
 BYTE   N05  Gs1  v116
 BYTE   W06
 BYTE   Cn1  v127
 BYTE   W06
 BYTE   N11  Gs1  v116
 BYTE   W12
 BYTE   Cn1  v127
 BYTE   N11  Gs1  v064
 BYTE   W12
 BYTE   N23  Dn1  v124
 BYTE   N11  Gs1  v116
 BYTE   W12
 BYTE   Gs1  v064
 BYTE   W12
 BYTE   PATT
  POIN2 Label_1_015C4166
 BYTE   PATT
  POIN2 Label_1_015C4166
 BYTE   PATT
  POIN2 Label_1_015C4199
// 013   ----------------------------------------
 BYTE   N11  Cn1  v127
 BYTE   W12
 BYTE   N11
 BYTE   N11  Gn1  v116
 BYTE   W12
 BYTE   N05  Dn1  v124
 BYTE   N05  Bn1  v116
 BYTE   N05  Ds2  v127
 BYTE   W06
 BYTE   N17  An1  v116
 BYTE   W18
 BYTE   N23  Cn1  v127
 BYTE   N11  Dn1  v124
 BYTE   N11  Ds2  v127
 BYTE   W12
 BYTE   N05  Dn1  v124
 BYTE   W06
 BYTE   N05
 BYTE   W06
 BYTE   N23  Cn1  v127
 BYTE   N11  Dn1  v124
 BYTE   N11  Ds2  v127
 BYTE   N11  An2  v088
 BYTE   W12
 BYTE   N05  An1  v116
 BYTE   W06
 BYTE   N05
 BYTE   W06
// 014   ----------------------------------------
Label_1_015C436E:
 BYTE   N17  Cn1  v127
 BYTE   N11  Ds2  v104
 BYTE   N11  An2  v088
 BYTE   W12
 BYTE   Ds2  v056
 BYTE   W06
 BYTE   N05  Cn1  v127
 BYTE   W06
 BYTE   N11  Ds2  v104
 BYTE   W12
 BYTE   Cn1  v127
 BYTE   N11  Ds2  v056
 BYTE   W12
 BYTE   Dn1  v124
 BYTE   N11  Ds2  v104
 BYTE   W12
 BYTE   Ds2  v056
 BYTE   W12
 BYTE   Ds2  v104
 BYTE   W12
 BYTE   Cn1  v127
 BYTE   N11  Ds2  v056
 BYTE   W12
 BYTE   PEND 
// 015   ----------------------------------------
Label_1_015C439C:
 BYTE   N23  Cn1  v127
 BYTE   N11  Ds2  v104
 BYTE   W12
 BYTE   Ds2  v056
 BYTE   W12
 BYTE   Ds2  v104
 BYTE   W12
 BYTE   Cn1  v127
 BYTE   N11  Ds2  v056
 BYTE   W12
 BYTE   Dn1  v124
 BYTE   N11  Ds2  v104
 BYTE   W12
 BYTE   Ds2  v056
 BYTE   W12
 BYTE   Ds2  v104
 BYTE   W12
 BYTE   Cn1  v127
 BYTE   N11  Ds2  v056
 BYTE   W12
 BYTE   PEND 
// 016   ----------------------------------------
Label_1_015C43C2:
 BYTE   N17  Cn1  v127
 BYTE   N11  Ds2  v104
 BYTE   W12
 BYTE   Ds2  v056
 BYTE   W06
 BYTE   N05  Cn1  v127
 BYTE   W06
 BYTE   N11  Ds2  v104
 BYTE   W12
 BYTE   Cn1  v127
 BYTE   N11  Ds2  v056
 BYTE   W12
 BYTE   Dn1  v124
 BYTE   N11  Ds2  v104
 BYTE   W12
 BYTE   Ds2  v056
 BYTE   W12
 BYTE   N23  Ds2  v104
 BYTE   W12
 BYTE   N11  Cn1  v127
 BYTE   W12
 BYTE   PEND 
// 017   ----------------------------------------
Label_1_015C43EC:
 BYTE   N23  Cn1  v127
 BYTE   N23  An2  v064
 BYTE   W24
 BYTE   Cn1  v127
 BYTE   N23  An2  v088
 BYTE   W24
 BYTE   N11  Dn1  v124
 BYTE   N11  Ds2  v100
 BYTE   W12
 BYTE   Cn1  v127
 BYTE   N11  Ds2  v056
 BYTE   W12
 BYTE   N23  Ds2  v104
 BYTE   N23  Cn3  v112
 BYTE   W12
 BYTE   N11  Cn1  v127
 BYTE   W12
 BYTE   PEND 
// 018   ----------------------------------------
Label_1_015C4412:
 BYTE   N17  Cn1  v127
 BYTE   N11  Ds2  v104
 BYTE   N11  An2  v088
 BYTE   W12
 BYTE   Ds2  v056
 BYTE   W06
 BYTE   N05  Cn1  v127
 BYTE   W06
 BYTE   N11  Ds2  v104
 BYTE   W12
 BYTE   Cn1  v127
 BYTE   N11  Ds2  v056
 BYTE   W12
 BYTE   Dn1  v124
 BYTE   N11  Ds2  v104
 BYTE   W12
 BYTE   Ds2  v056
 BYTE   W12
 BYTE   Ds2  v104
 BYTE   W12
 BYTE   Cn1  v127
 BYTE   N11  Ds2  v056
 BYTE   N11  An2  v088
 BYTE   W12
 BYTE   PEND 
// 019   ----------------------------------------
Label_1_015C4443:
 BYTE   N11  Ds2  v104
 BYTE   W12
 BYTE   Cn1  v127
 BYTE   N11  Ds2  v056
 BYTE   W12
 BYTE   N23  Cn1  v127
 BYTE   N11  Ds2  v104
 BYTE   W12
 BYTE   Ds2  v056
 BYTE   W12
 BYTE   Dn1  v124
 BYTE   N11  Ds2  v104
 BYTE   W12
 BYTE   Cn1  v127
 BYTE   N11  Ds2  v056
 BYTE   W12
 BYTE   Ds2  v104
 BYTE   W12
 BYTE   Cn1  v127
 BYTE   N11  Ds2  v056
 BYTE   W12
 BYTE   PEND 
// 020   ----------------------------------------
 BYTE   N17  Cn1  v127
 BYTE   N23  An2  v088
 BYTE   W18
 BYTE   N05  Cn1  v127
 BYTE   W18
 BYTE   N11
 BYTE   W12
 BYTE   N23  Dn1  v124
 BYTE   W24
 BYTE   N05  Dn1  v112
 BYTE   W06
 BYTE   Dn1  v092
 BYTE   W06
 BYTE   N11  Dn1  v064
 BYTE   W12
// 021   ----------------------------------------
 BYTE   N23  Cn1  v112
 BYTE   N23  Cs2  v100
 BYTE   W36
 BYTE   N11  Cn1  v127
 BYTE   N11  An2  v088
 BYTE   W12
 BYTE   N02  Bn1  v104
 BYTE   W03
 BYTE   N08  An1
 BYTE   W03
 BYTE   N05  Gn1
 BYTE   W06
 BYTE   N11  Cn1  v127
 BYTE   N11  Gn2  v120
 BYTE   W36
// 022   ----------------------------------------
 BYTE   Cn1  v127
 BYTE   N23  As1  v088
 BYTE   N23  An2  v112
 BYTE   W12
 BYTE   N05  Cn1  v127
 BYTE   N05  Gs1  v120
 BYTE   W06
 BYTE   N05
 BYTE   W06
 BYTE   N23  Dn1  v124
 BYTE   N23  As1  v088
 BYTE   W12
 BYTE   N05  Gs1  v120
 BYTE   W06
 BYTE   Cn1  v127
 BYTE   N05  Gs1  v120
 BYTE   W06
 BYTE   N23  As1  v088
 BYTE   W12
 BYTE   N05  Cn1  v127
 BYTE   N05  Gs1  v120
 BYTE   W06
 BYTE   N05
 BYTE   W06
 BYTE   N23  Dn1  v124
 BYTE   N23  As1  v088
 BYTE   W12
 BYTE   N05  Gs1  v120
 BYTE   W06
 BYTE   N05
 BYTE   W06
// 023   ----------------------------------------
 BYTE   N11  Cn1  v127
 BYTE   N23  As1  v088
 BYTE   W12
 BYTE   N05  Gs1  v120
 BYTE   W06
 BYTE   N05
 BYTE   W06
 BYTE   N23  Dn1  v124
 BYTE   N23  As1  v088
 BYTE   W12
 BYTE   N05  Gs1  v120
 BYTE   W06
 BYTE   N05
 BYTE   W06
 BYTE   As1  v088
 BYTE   W06
 BYTE   N17  Dn1  v124
 BYTE   W06
 BYTE   N05  Cn1  v127
 BYTE   N05  Gs1  v120
 BYTE   W06
 BYTE   N05
 BYTE   W06
 BYTE   N23  Dn1  v124
 BYTE   N23  As1  v088
 BYTE   W12
 BYTE   N05  Gs1  v120
 BYTE   W06
 BYTE   N05
 BYTE   W06
// 024   ----------------------------------------
Label_1_015C451C:
 BYTE   N11  Cn1  v127
 BYTE   N23  As1  v088
 BYTE   W12
 BYTE   N05  Cn1  v127
 BYTE   N05  Gs1  v120
 BYTE   W06
 BYTE   N05
 BYTE   W06
 BYTE   N23  Dn1  v124
 BYTE   N23  As1  v088
 BYTE   W12
 BYTE   N05  Gs1  v120
 BYTE   W06
 BYTE   N05
 BYTE   W06
 BYTE   N23  As1  v088
 BYTE   W12
 BYTE   N05  Cn1  v127
 BYTE   N05  Gs1  v120
 BYTE   W06
 BYTE   N05
 BYTE   W06
 BYTE   N23  Dn1  v124
 BYTE   N23  As1  v088
 BYTE   W12
 BYTE   N05  Gs1  v120
 BYTE   W06
 BYTE   N05
 BYTE   W06
 BYTE   PEND 
 BYTE   PATT
  POIN2 Label_1_015C451C
// 025   ----------------------------------------
Label_1_015C4559:
 BYTE   N11  Cn1  v127
 BYTE   N23  As1  v088
 BYTE   N23  An2  v112
 BYTE   W12
 BYTE   N05  Cn1  v127
 BYTE   N05  Gs1  v120
 BYTE   W06
 BYTE   N05
 BYTE   W06
 BYTE   N23  Dn1  v124
 BYTE   N23  As1  v088
 BYTE   W12
 BYTE   N05  Gs1  v120
 BYTE   W06
 BYTE   N05
 BYTE   W06
 BYTE   As1  v088
 BYTE   W06
 BYTE   N17  Dn1  v124
 BYTE   W06
 BYTE   N05  Cn1  v127
 BYTE   N05  Gs1  v120
 BYTE   W06
 BYTE   N05
 BYTE   W06
 BYTE   N23  Dn1  v124
 BYTE   N23  As1  v088
 BYTE   W12
 BYTE   N05  Gs1  v120
 BYTE   W06
 BYTE   N05
 BYTE   W06
 BYTE   PEND 
// 026   ----------------------------------------
Label_1_015C4597:
 BYTE   N11  Cn1  v127
 BYTE   N23  As1  v088
 BYTE   W12
 BYTE   N05  Cn1  v127
 BYTE   N05  Gs1  v120
 BYTE   W06
 BYTE   N05
 BYTE   W06
 BYTE   N17  Dn1  v124
 BYTE   N17  As1  v088
 BYTE   W12
 BYTE   N05  Gs1  v120
 BYTE   W06
 BYTE   Dn1  v116
 BYTE   N05  Gs1  v120
 BYTE   W06
 BYTE   N11  As1  v088
 BYTE   W12
 BYTE   N05  Cn1  v127
 BYTE   N11  Dn1  v124
 BYTE   N05  Gs1  v120
 BYTE   W06
 BYTE   Cn1  v127
 BYTE   N05  Gs1  v120
 BYTE   W06
 BYTE   Dn1
 BYTE   N05  As1  v088
 BYTE   W06
 BYTE   Dn1  v096
 BYTE   W06
 BYTE   Dn1  v116
 BYTE   N05  Gs1  v120
 BYTE   W06
 BYTE   Dn1  v104
 BYTE   N05  Gs1  v120
 BYTE   W06
 BYTE   PEND 
// 027   ----------------------------------------
Label_1_015C45E1:
 BYTE   N11  Cn1  v127
 BYTE   N11  Gs1  v120
 BYTE   N11  Cs2  v072
 BYTE   W12
 BYTE   Dn1  v124
 BYTE   N05  Gs1  v120
 BYTE   W06
 BYTE   Cn1  v127
 BYTE   W06
 BYTE   N11  Gs1  v120
 BYTE   W12
 BYTE   Cn1  v127
 BYTE   N11  An2  v084
 BYTE   W24
 BYTE   Cn1  v127
 BYTE   N11  As1  v088
 BYTE   W24
 BYTE   Cn1  v104
 BYTE   W12
 BYTE   PEND 
// 028   ----------------------------------------
 BYTE   Cn1  v127
 BYTE   N11  Gs1  v120
 BYTE   N11  Cs2  v072
 BYTE   W12
 BYTE   Dn1  v124
 BYTE   N05  Gs1  v120
 BYTE   W06
 BYTE   Cn1  v127
 BYTE   W06
 BYTE   N11  Gs1  v120
 BYTE   W12
 BYTE   Cn1  v127
 BYTE   N11  An2  v084
 BYTE   W24
 BYTE   Cn1  v127
 BYTE   N11  An2  v104
 BYTE   W36
// 029   ----------------------------------------
 BYTE   Cn1  v127
 BYTE   N23  As1  v088
 BYTE   N23  An2  v112
 BYTE   W12
 BYTE   N05  Cn1  v127
 BYTE   N05  Gs1  v120
 BYTE   W06
 BYTE   N05
 BYTE   W06
 BYTE   N23  Dn1  v124
 BYTE   N23  As1  v088
 BYTE   W12
 BYTE   N05  Gs1  v120
 BYTE   W06
 BYTE   N05
 BYTE   W06
 BYTE   N23  As1  v088
 BYTE   W12
 BYTE   N05  Cn1  v127
 BYTE   N05  Gs1  v120
 BYTE   W06
 BYTE   N05
 BYTE   W06
 BYTE   N23  Dn1  v124
 BYTE   N23  As1  v088
 BYTE   W12
 BYTE   N05  Gs1  v120
 BYTE   W06
 BYTE   N05
 BYTE   W06
// 030   ----------------------------------------
 BYTE   N11  Cn1  v127
 BYTE   N23  As1  v088
 BYTE   W12
 BYTE   N05  Cn1  v127
 BYTE   N05  Gs1  v120
 BYTE   W06
 BYTE   N05
 BYTE   W06
 BYTE   N23  Dn1  v124
 BYTE   N23  As1  v088
 BYTE   W12
 BYTE   N05  Gs1  v120
 BYTE   W06
 BYTE   N05
 BYTE   W06
 BYTE   As1  v088
 BYTE   W06
 BYTE   N17  Dn1  v124
 BYTE   W06
 BYTE   N05  Cn1  v127
 BYTE   N05  Gs1  v120
 BYTE   W06
 BYTE   N05
 BYTE   W06
 BYTE   N23  Dn1  v124
 BYTE   N23  As1  v088
 BYTE   W12
 BYTE   N05  Gs1  v120
 BYTE   W06
 BYTE   N05
 BYTE   W06
 BYTE   PATT
  POIN2 Label_1_015C451C
 BYTE   PATT
  POIN2 Label_1_015C451C
 BYTE   PATT
  POIN2 Label_1_015C4559
 BYTE   PATT
  POIN2 Label_1_015C4597
 BYTE   PATT
  POIN2 Label_1_015C45E1
// 031   ----------------------------------------
 BYTE   N11  Cn1  v127
 BYTE   N11  Gs1  v120
 BYTE   N11  Cs2  v072
 BYTE   W12
 BYTE   Dn1  v124
 BYTE   N05  Gs1  v120
 BYTE   W06
 BYTE   Cn1  v127
 BYTE   W06
 BYTE   N11  Gs1  v120
 BYTE   W12
 BYTE   Cn1  v127
 BYTE   N11  An2  v084
 BYTE   W12
 BYTE   N05  Cn2  v124
 BYTE   W06
 BYTE   Cn2  v096
 BYTE   W06
 BYTE   N11  Cn1  v127
 BYTE   N05  Cn2  v124
 BYTE   N05  An2  v104
 BYTE   N32  Cn3  v112
 BYTE   W06
 BYTE   N05  Cn2  v096
 BYTE   W06
 BYTE   Bn1  v116
 BYTE   W06
 BYTE   Bn1  v096
 BYTE   W06
 BYTE   Bn1  v116
 BYTE   W06
 BYTE   Bn1  v084
 BYTE   W06
// 032   ----------------------------------------
 BYTE   N11  Cn1  v127
 BYTE   N11  Gs1  v120
 BYTE   N23  Cs2  v076
 BYTE   W12
 BYTE   N11  Cn1  v127
 BYTE   N11  Gs1  v120
 BYTE   W12
 BYTE   N17  Dn1  v124
 BYTE   N11  Gs1  v120
 BYTE   W12
 BYTE   Cn1  v127
 BYTE   N11  Gs1  v120
 BYTE   W06
 BYTE   N05  Dn1  v124
 BYTE   W06
 BYTE   Gs1  v120
 BYTE   W06
 BYTE   Cn1  v127
 BYTE   W06
 BYTE   N11  Dn1  v124
 BYTE   N11  Gs1  v120
 BYTE   W12
 BYTE   Cn1  v127
 BYTE   N11  Gs1  v120
 BYTE   W12
 BYTE   N11
 BYTE   W12
// 033   ----------------------------------------
Label_1_015C472E:
 BYTE   N11  Cn1  v127
 BYTE   N11  Gs1  v120
 BYTE   W12
 BYTE   Cn1  v127
 BYTE   N11  Gs1  v120
 BYTE   W12
 BYTE   N17  Dn1  v124
 BYTE   N11  Gs1  v120
 BYTE   W12
 BYTE   Cn1  v127
 BYTE   N11  Gs1  v120
 BYTE   W06
 BYTE   N05  Dn1  v124
 BYTE   W06
 BYTE   N11  Gs1  v120
 BYTE   W12
 BYTE   Cn1  v127
 BYTE   N11  Gs1  v120
 BYTE   W12
 BYTE   N23  Dn1  v124
 BYTE   N11  Gs1  v120
 BYTE   W12
 BYTE   N11
 BYTE   W12
 BYTE   PEND 
// 034   ----------------------------------------
Label_1_015C4760:
 BYTE   N23  Cn1  v127
 BYTE   N23  Gs1  v120
 BYTE   W24
 BYTE   Dn1  v124
 BYTE   N11  Gs1  v120
 BYTE   W12
 BYTE   Cn1  v127
 BYTE   W12
 BYTE   N05  Gs1  v120
 BYTE   W06
 BYTE   N17  Cn1  v127
 BYTE   W18
 BYTE   N23  Dn1  v124
 BYTE   N23  Gs1  v120
 BYTE   W24
 BYTE   PEND 
// 035   ----------------------------------------
 BYTE   Cn1  v127
 BYTE   N23  Gs1  v120
 BYTE   W24
 BYTE   Dn1  v124
 BYTE   N11  Gs1  v120
 BYTE   W12
 BYTE   Cn1  v127
 BYTE   W12
 BYTE   Gs1  v120
 BYTE   W12
 BYTE   Cn1  v127
 BYTE   W12
 BYTE   N23  Dn1  v124
 BYTE   N23  Gs1  v120
 BYTE   W24
// 036   ----------------------------------------
 BYTE   N11  Cn1  v127
 BYTE   N11  Gs1  v120
 BYTE   N23  An2  v112
 BYTE   W12
 BYTE   N11  Cn1  v127
 BYTE   N11  Gs1  v120
 BYTE   W12
 BYTE   N17  Dn1  v124
 BYTE   N11  Gs1  v120
 BYTE   W12
 BYTE   Cn1  v127
 BYTE   N11  Gs1  v120
 BYTE   W06
 BYTE   N05  Dn1  v124
 BYTE   W06
 BYTE   Gs1  v120
 BYTE   W06
 BYTE   Cn1  v127
 BYTE   W06
 BYTE   N11  Dn1  v124
 BYTE   N11  Gs1  v120
 BYTE   W12
 BYTE   Cn1  v127
 BYTE   N11  Gs1  v120
 BYTE   W12
 BYTE   N11
 BYTE   W12
 BYTE   PATT
  POIN2 Label_1_015C472E
 BYTE   PATT
  POIN2 Label_1_015C4760
// 037   ----------------------------------------
 BYTE   N11  Cn1  v127
 BYTE   N11  Gs1  v120
 BYTE   W12
 BYTE   Cn1  v124
 BYTE   W12
 BYTE   N05  Dn1
 BYTE   N23  Gs1  v120
 BYTE   W06
 BYTE   N05  Dn1  v088
 BYTE   W06
 BYTE   N05
 BYTE   W06
 BYTE   Dn1  v124
 BYTE   W06
 BYTE   Dn1  v088
 BYTE   N23  Gs1  v120
 BYTE   W06
 BYTE   N05  Dn1  v096
 BYTE   W06
 BYTE   Dn1  v116
 BYTE   W06
 BYTE   Dn1  v104
 BYTE   W06
 BYTE   Dn1  v120
 BYTE   N23  Gs1
 BYTE   W06
 BYTE   N05  Dn1  v096
 BYTE   W06
 BYTE   Dn1  v116
 BYTE   W06
 BYTE   Dn1  v104
 BYTE   W06
// 038   ----------------------------------------
Label_1_015C4815:
 BYTE   N11  Cn1  v127
 BYTE   N11  Gs1  v120
 BYTE   N23  An2  v112
 BYTE   W12
 BYTE   N11  Gs1  v120
 BYTE   W12
 BYTE   N23  Dn1  v124
 BYTE   N11  Gs1  v120
 BYTE   W12
 BYTE   N11
 BYTE   W12
 BYTE   N11
 BYTE   W12
 BYTE   Cn1  v127
 BYTE   N11  Gs1  v120
 BYTE   W12
 BYTE   N23  Dn1  v124
 BYTE   N11  Gs1  v120
 BYTE   W12
 BYTE   N11
 BYTE   W12
 BYTE   PEND 
// 039   ----------------------------------------
Label_1_015C483E:
 BYTE   N11  Gs1  v120
 BYTE   W12
 BYTE   Cn1  v124
 BYTE   N11  Gs1  v120
 BYTE   W12
 BYTE   N23  Dn1  v124
 BYTE   N11  Gs1  v120
 BYTE   W12
 BYTE   N11
 BYTE   W12
 BYTE   N11
 BYTE   W06
 BYTE   N17  Dn1  v112
 BYTE   W06
 BYTE   N11  Cn1  v124
 BYTE   N11  Gs1  v120
 BYTE   W12
 BYTE   N23  Dn1  v124
 BYTE   N11  Gs1  v120
 BYTE   W12
 BYTE   N11
 BYTE   W12
 BYTE   PEND 
// 040   ----------------------------------------
Label_1_015C4868:
 BYTE   N11  Cn1  v127
 BYTE   N11  Gs1  v120
 BYTE   W12
 BYTE   N11
 BYTE   W12
 BYTE   N23  Dn1  v124
 BYTE   N11  Gs1  v120
 BYTE   W12
 BYTE   N11
 BYTE   W12
 BYTE   N11
 BYTE   W12
 BYTE   Cn1  v127
 BYTE   N11  Gs1  v120
 BYTE   W12
 BYTE   N23  Dn1  v124
 BYTE   N11  Gs1  v120
 BYTE   W12
 BYTE   N11
 BYTE   W12
 BYTE   PEND 
 BYTE   PATT
  POIN2 Label_1_015C483E
 BYTE   PATT
  POIN2 Label_1_015C4815
 BYTE   PATT
  POIN2 Label_1_015C483E
 BYTE   PATT
  POIN2 Label_1_015C4868
// 041   ----------------------------------------
 BYTE   N11  Cn1  v124
 BYTE   W12
 BYTE   N11
 BYTE   W12
 BYTE   N05  Dn1
 BYTE   N05  Cn2
 BYTE   W06
 BYTE   N05
 BYTE   W06
 BYTE   N11  Cn1
 BYTE   N05  Cn2
 BYTE   W06
 BYTE   N05
 BYTE   W06
 BYTE   Dn1
 BYTE   N05  Bn1
 BYTE   W06
 BYTE   N05
 BYTE   W06
 BYTE   N11  Cn1
 BYTE   N05  Bn1
 BYTE   W06
 BYTE   N05
 BYTE   W06
 BYTE   N11  An1
 BYTE   W12
 BYTE   Fn1
 BYTE   W12
 BYTE   PATT
  POIN2 Label_1_015C436E
 BYTE   PATT
  POIN2 Label_1_015C439C
 BYTE   PATT
  POIN2 Label_1_015C43C2
 BYTE   PATT
  POIN2 Label_1_015C43EC
 BYTE   PATT
  POIN2 Label_1_015C4412
 BYTE   PATT
  POIN2 Label_1_015C4443
// 042   ----------------------------------------
 BYTE   N17  Cn1  v127
 BYTE   N23  An2  v088
 BYTE   W18
 BYTE   N05  Cn1  v127
 BYTE   W18
 BYTE   N11
 BYTE   W12
 BYTE   N23  Dn1  v124
 BYTE   W24
 BYTE   N05  Dn1  v112
 BYTE   W06
 BYTE   Dn1  v092
 BYTE   W06
 BYTE   N11  Dn1  v072
 BYTE   W12
// 043   ----------------------------------------
 BYTE   N23  Cn1  v112
 BYTE   N23  Cs2  v100
 BYTE   W36
 BYTE   N11  Cn1  v127
 BYTE   N11  An2  v088
 BYTE   W12
 BYTE   N02  Bn1  v104
 BYTE   W03
 BYTE   N08  An1
 BYTE   W03
 BYTE   N17  Gn1
 BYTE   W06
 BYTE   N11  Gn2  v120
 BYTE   W36
// 044   ----------------------------------------
 BYTE   N23  Dn1  v124
 BYTE   N23  Ds2
 BYTE   W12
 BYTE   N11  Bn0
 BYTE   W12
 BYTE   Ds2
 BYTE   W12
 BYTE   Dn1
 BYTE   W12
 BYTE   Ds2
 BYTE   W12
 BYTE   N05  Bn0  v072
 BYTE   N05  Dn1
 BYTE   W06
 BYTE   Bn0  v080
 BYTE   N05  Dn1
 BYTE   W06
 BYTE   Bn0  v092
 BYTE   N05  Dn1
 BYTE   N05  Ds2  v124
 BYTE   W06
 BYTE   Bn0  v100
 BYTE   N05  Dn1
 BYTE   W06
 BYTE   Bn0  v112
 BYTE   N05  Dn1
 BYTE   W06
 BYTE   Bn0  v120
 BYTE   N05  Dn1
 BYTE   W06
// 045   ----------------------------------------
 BYTE   N23  An2  v124
 BYTE   W96
// 046   ----------------------------------------
 BYTE   W96
// 047   ----------------------------------------
 BYTE   W96
// 048   ----------------------------------------
 BYTE   W36
 BYTE   N11  Bn1  v108
 BYTE   W12
 BYTE   Cn2  v112
 BYTE   W12
 BYTE   Bn1  v092
 BYTE   W12
 BYTE   An1  v120
 BYTE   N23  Ds3  v112
 BYTE   W12
 BYTE   N11  An1  v088
 BYTE   W12
// 049   ----------------------------------------
 BYTE   N23  Cn1  v127
 BYTE   N23  As1  v100
 BYTE   N23  An2  v116
 BYTE   W24
 BYTE   As1  v108
 BYTE   W12
 BYTE   N11  Cn1  v127
 BYTE   W12
 BYTE   N23  Dn1  v124
 BYTE   N23  As1  v108
 BYTE   W24
 BYTE   N23
 BYTE   W24
// 050   ----------------------------------------
Label_1_015C4982:
 BYTE   N23  Cn1  v127
 BYTE   N23  As1  v108
 BYTE   W24
 BYTE   N23
 BYTE   W12
 BYTE   N11  Cn1  v127
 BYTE   W12
 BYTE   N23  Dn1  v124
 BYTE   N23  As1  v108
 BYTE   W24
 BYTE   N23
 BYTE   W24
 BYTE   PEND 
 BYTE   PATT
  POIN2 Label_1_015C4982
// 051   ----------------------------------------
 BYTE   N23  Cn1  v127
 BYTE   W36
 BYTE   N11
 BYTE   W12
 BYTE   N23  Dn1  v124
 BYTE   W24
 BYTE   N05  Dn1  v112
 BYTE   W06
 BYTE   Dn1  v084
 BYTE   W06
 BYTE   Dn1  v060
 BYTE   W06
 BYTE   Dn1  v048
 BYTE   W06
// 052   ----------------------------------------
Label_1_015C49B5:
 BYTE   N11  Cn1  v127
 BYTE   N11  Gs1
 BYTE   N23  An2  v104
 BYTE   W12
 BYTE   N05  Gs1  v127
 BYTE   W06
 BYTE   N05
 BYTE   W06
 BYTE   N23  Dn1  v124
 BYTE   N11  Gs1  v127
 BYTE   W12
 BYTE   N05
 BYTE   W06
 BYTE   N05
 BYTE   W06
 BYTE   Cn1
 BYTE   N05  Gs1
 BYTE   W06
 BYTE   N05
 BYTE   W06
 BYTE   N11  Cn1
 BYTE   N11  Gs1
 BYTE   W12
 BYTE   N23  Dn1  v124
 BYTE   N23  Gs1  v127
 BYTE   W24
 BYTE   PEND 
// 053   ----------------------------------------
Label_1_015C49E2:
 BYTE   N11  Cn1  v127
 BYTE   N11  Gs1
 BYTE   W12
 BYTE   N05
 BYTE   W06
 BYTE   N05
 BYTE   W06
 BYTE   N23  Dn1  v124
 BYTE   N11  Gs1  v127
 BYTE   W12
 BYTE   N05
 BYTE   W06
 BYTE   N05
 BYTE   W06
 BYTE   Cn1
 BYTE   N05  Gs1
 BYTE   W06
 BYTE   N05
 BYTE   W06
 BYTE   N11  Cn1
 BYTE   N11  Gs1
 BYTE   W12
 BYTE   N23  Dn1  v124
 BYTE   N23  Gs1  v127
 BYTE   W24
 BYTE   PEND 
 BYTE   PATT
  POIN2 Label_1_015C49E2
 BYTE   PATT
  POIN2 Label_1_015C49E2
 BYTE   PATT
  POIN2 Label_1_015C49B5
// 054   ----------------------------------------
 BYTE   N11  Cn1  v127
 BYTE   N11  Gs1
 BYTE   W12
 BYTE   N05
 BYTE   W06
 BYTE   N05
 BYTE   W06
 BYTE   N23  Dn1  v124
 BYTE   N11  Gs1  v127
 BYTE   W12
 BYTE   N05
 BYTE   W06
 BYTE   N05
 BYTE   W06
 BYTE   Cn1
 BYTE   N05  Gs1
 BYTE   W06
 BYTE   N05
 BYTE   W06
 BYTE   N11  Cn1
 BYTE   N11  Gs1
 BYTE   W12
 BYTE   N05  Dn1  v124
 BYTE   N23  Gs1  v127
 BYTE   W06
 BYTE   N05  Dn1  v124
 BYTE   W06
 BYTE   N05
 BYTE   W06
 BYTE   N05
 BYTE   W06
// 055   ----------------------------------------
 BYTE   N11  Cn1  v127
 BYTE   N11  Gs1
 BYTE   N17  An2
 BYTE   W12
 BYTE   N11  Gs1
 BYTE   W06
 BYTE   N05  Dn1  v124
 BYTE   W06
 BYTE   N11  Gs1  v127
 BYTE   W12
 BYTE   Cn1
 BYTE   N11  Gs1
 BYTE   N11  An2
 BYTE   W12
 BYTE   Gs1
 BYTE   W12
 BYTE   Cn1
 BYTE   N11  Gs1
 BYTE   W12
 BYTE   N05  Dn1  v124
 BYTE   N11  Gs1  v127
 BYTE   W06
 BYTE   N05  Dn1  v124
 BYTE   W06
 BYTE   N05
 BYTE   N11  Gs1  v127
 BYTE   W06
 BYTE   N05  Dn1  v124
 BYTE   W06
// 056   ----------------------------------------
 BYTE   N11  Cn1  v127
 BYTE   N11  Gs1
 BYTE   N17  An2
 BYTE   W12
 BYTE   N11  Gs1
 BYTE   W06
 BYTE   N05  Dn1  v124
 BYTE   W06
 BYTE   N11  Gs1  v127
 BYTE   W12
 BYTE   Cn1
 BYTE   N11  Gs1
 BYTE   N11  An2
 BYTE   W12
 BYTE   Gs1
 BYTE   W12
 BYTE   Cn1
 BYTE   N11  Gs1
 BYTE   W12
 BYTE   N05  Dn1  v124
 BYTE   N11  Gs1  v127
 BYTE   N05  Dn2  v116
 BYTE   N23  Ds3  v112
 BYTE   W06
 BYTE   N05  Dn1  v124
 BYTE   W06
 BYTE   N05
 BYTE   N11  Gs1  v127
 BYTE   N05  Cn2  v108
 BYTE   W06
 BYTE   Dn1  v124
 BYTE   W06
 BYTE   PATT
  POIN2 Label_1_015C49B5
 BYTE   PATT
  POIN2 Label_1_015C49E2
 BYTE   PATT
  POIN2 Label_1_015C49E2
// 057   ----------------------------------------
 BYTE   N11  Cn1  v127
 BYTE   N11  Gs1
 BYTE   W12
 BYTE   N05
 BYTE   W06
 BYTE   N05
 BYTE   W06
 BYTE   N23  Dn1  v124
 BYTE   N11  Gs1  v127
 BYTE   W12
 BYTE   N05  Cn1
 BYTE   N05  Gs1
 BYTE   W06
 BYTE   N05
 BYTE   W06
 BYTE   N23  Dn1  v124
 BYTE   N23  An2  v116
 BYTE   W24
 BYTE   Dn1  v124
 BYTE   N23  An2  v116
 BYTE   W24
// 058   ----------------------------------------
 BYTE   GoTo
  POIN2 Label_1_015C4131
 BYTE   FINE

//**************** Track 3 (Midi-Chn.2) ****************//

SuperSmashBrosUltimateMenuMrGreen3339_003:
// 000   ----------------------------------------
 BYTE   KEYSH   SuperSmashBrosUltimateMenuMrGreen3339_key+0
 BYTE   VOICE   45
 BYTE   VOL   51*SuperSmashBrosUltimateMenuMrGreen3339_mvl/mxv
 BYTE   PAN   c_v+0
 BYTE   VOL   51*SuperSmashBrosUltimateMenuMrGreen3339_mvl/mxv
 BYTE   PAN   c_v+0
 BYTE   W96
// 001   ----------------------------------------
 BYTE   W96
// 002   ----------------------------------------
 BYTE   W96
// 003   ----------------------------------------
Label_2_015C4AFF:
 BYTE   W96
// 004   ----------------------------------------
 BYTE   W96
// 005   ----------------------------------------
 BYTE   W96
// 006   ----------------------------------------
 BYTE   W96
// 007   ----------------------------------------
 BYTE   W96
// 008   ----------------------------------------
 BYTE   W96
// 009   ----------------------------------------
 BYTE   W96
// 010   ----------------------------------------
 BYTE   W96
// 011   ----------------------------------------
 BYTE   W96
// 012   ----------------------------------------
 BYTE   W96
// 013   ----------------------------------------
 BYTE   W96
// 014   ----------------------------------------
 BYTE   W96
// 015   ----------------------------------------
 BYTE   W96
// 016   ----------------------------------------
 BYTE   W96
// 017   ----------------------------------------
 BYTE   W96
// 018   ----------------------------------------
 BYTE   W96
// 019   ----------------------------------------
 BYTE   W96
// 020   ----------------------------------------
 BYTE   W96
// 021   ----------------------------------------
 BYTE   W96
// 022   ----------------------------------------
 BYTE   W96
// 023   ----------------------------------------
 BYTE   W96
// 024   ----------------------------------------
 BYTE   W96
// 025   ----------------------------------------
 BYTE   W96
// 026   ----------------------------------------
 BYTE   W96
// 027   ----------------------------------------
Label_2_015C4B17:
 BYTE   N11  En2  v127
 BYTE   W12
 BYTE   En1  v092
 BYTE   W12
 BYTE   N11
 BYTE   W12
 BYTE   N11
 BYTE   W12
 BYTE   En2  v127
 BYTE   W12
 BYTE   En1  v092
 BYTE   W12
 BYTE   N11
 BYTE   W12
 BYTE   N11
 BYTE   W12
 BYTE   PEND 
// 028   ----------------------------------------
Label_2_015C4B2D:
 BYTE   N11  En2  v127
 BYTE   W12
 BYTE   En1  v092
 BYTE   W12
 BYTE   N11
 BYTE   W12
 BYTE   N11
 BYTE   W12
 BYTE   N23  An2  v127
 BYTE   W24
 BYTE   N11  Gn2
 BYTE   W12
 BYTE   Fs2
 BYTE   W12
 BYTE   PEND 
// 029   ----------------------------------------
 BYTE   TIE  En2
 BYTE   W96
// 030   ----------------------------------------
 BYTE   W44
 BYTE   W03
 BYTE   EOT
 BYTE   W01
 BYTE   N23  An2
 BYTE   W24
 BYTE   N11  Gn2
 BYTE   W12
 BYTE   Fs2
 BYTE   W12
// 031   ----------------------------------------
 BYTE   TIE  En2
 BYTE   W96
// 032   ----------------------------------------
 BYTE   W44
 BYTE   W03
 BYTE   EOT
 BYTE   W01
 BYTE   N23  An2
 BYTE   W24
 BYTE   N11  Gn2
 BYTE   W12
 BYTE   Fs2
 BYTE   W12
// 033   ----------------------------------------
 BYTE   N32  Cn2
 BYTE   W36
 BYTE   Dn2
 BYTE   W36
 BYTE   N11  Dn2  v092
 BYTE   W12
 BYTE   N11
 BYTE   W12
// 034   ----------------------------------------
Label_2_015C4B6B:
 BYTE   N32  En2  v127
 BYTE   W36
 BYTE   N44  Fs2
 BYTE   W60
 BYTE   PEND 
 BYTE   PATT
  POIN2 Label_2_015C4B17
 BYTE   PATT
  POIN2 Label_2_015C4B2D
// 035   ----------------------------------------
 BYTE   TIE  En2  v127
 BYTE   W96
// 036   ----------------------------------------
 BYTE   W44
 BYTE   W03
 BYTE   EOT
 BYTE   W01
 BYTE   N23  An2
 BYTE   W24
 BYTE   N11  Gn2
 BYTE   W12
 BYTE   Fs2
 BYTE   W12
// 037   ----------------------------------------
 BYTE   TIE  En2
 BYTE   W96
// 038   ----------------------------------------
 BYTE   W44
 BYTE   W03
 BYTE   EOT
 BYTE   W01
 BYTE   N23  An2
 BYTE   W24
 BYTE   N11  Gn2
 BYTE   W12
 BYTE   Fs2
 BYTE   W12
// 039   ----------------------------------------
 BYTE   N32  Cn2
 BYTE   W36
 BYTE   N44  Dn2
 BYTE   W60
 BYTE   PATT
  POIN2 Label_2_015C4B6B
// 040   ----------------------------------------
 BYTE   N44  Dn3  v092
 BYTE   W48
 BYTE   Cs3
 BYTE   W48
// 041   ----------------------------------------
 BYTE   Bn2
 BYTE   W48
 BYTE   An2
 BYTE   W48
// 042   ----------------------------------------
 BYTE   N11  Dn3
 BYTE   W12
 BYTE   N05  En2  v100
 BYTE   W06
 BYTE   N05
 BYTE   W06
 BYTE   N11  Dn3  v092
 BYTE   W24
 BYTE   Cs3
 BYTE   W12
 BYTE   N05  En2  v100
 BYTE   W12
 BYTE   N05
 BYTE   W12
 BYTE   N05
 BYTE   W12
// 043   ----------------------------------------
 BYTE   N11  Dn3  v092
 BYTE   W12
 BYTE   N05  En2  v100
 BYTE   W12
 BYTE   N05
 BYTE   W12
 BYTE   N11  Cs3  v092
 BYTE   W12
 BYTE   N05  En2  v100
 BYTE   W12
 BYTE   N23  Cs3  v092
 BYTE   W24
 BYTE   N05  En2  v100
 BYTE   W06
 BYTE   N05
 BYTE   W06
// 044   ----------------------------------------
 BYTE   N44  Dn3
 BYTE   W48
 BYTE   Cs3
 BYTE   W48
// 045   ----------------------------------------
 BYTE   Bn2
 BYTE   W48
 BYTE   An2
 BYTE   W48
// 046   ----------------------------------------
 BYTE   N11  Dn3  v092
 BYTE   W12
 BYTE   N05  Gn1  v100
 BYTE   W06
 BYTE   N05
 BYTE   W06
 BYTE   N11  Dn3  v092
 BYTE   W24
 BYTE   Cs3
 BYTE   W12
 BYTE   N05  Gn1  v100
 BYTE   W12
 BYTE   N05
 BYTE   W12
 BYTE   N05
 BYTE   W12
// 047   ----------------------------------------
 BYTE   N11  Dn3  v092
 BYTE   W12
 BYTE   N05  Gn1  v100
 BYTE   W12
 BYTE   N05
 BYTE   W12
 BYTE   N11  Cs3  v092
 BYTE   W12
 BYTE   N05  Gn1  v100
 BYTE   W12
 BYTE   N23  Cs3  v092
 BYTE   W24
 BYTE   N05  Gn1  v100
 BYTE   W06
 BYTE   N05
 BYTE   W06
// 048   ----------------------------------------
 BYTE   W12
 BYTE   N11  Cn2
 BYTE   W24
 BYTE   N11
 BYTE   W24
 BYTE   N11
 BYTE   W24
 BYTE   N11
 BYTE   W12
// 049   ----------------------------------------
 BYTE   W24
 BYTE   Bn1
 BYTE   W24
 BYTE   N23
 BYTE   W48
// 050   ----------------------------------------
 BYTE   N11  Fn1
 BYTE   W12
 BYTE   N11
 BYTE   W24
 BYTE   N11
 BYTE   W24
 BYTE   N11
 BYTE   W24
 BYTE   N11
 BYTE   W12
// 051   ----------------------------------------
 BYTE   W24
 BYTE   Bn1
 BYTE   W12
 BYTE   N11
 BYTE   W12
 BYTE   N23
 BYTE   W48
// 052   ----------------------------------------
 BYTE   W12
 BYTE   N11  Cs2
 BYTE   W24
 BYTE   N11
 BYTE   W24
 BYTE   N11
 BYTE   W36
// 053   ----------------------------------------
 BYTE   N11
 BYTE   W12
 BYTE   N11
 BYTE   W24
 BYTE   N11
 BYTE   W24
 BYTE   N11
 BYTE   W24
 BYTE   N11
 BYTE   W12
// 054   ----------------------------------------
 BYTE   Bn1
 BYTE   W12
 BYTE   N11
 BYTE   W24
 BYTE   N11
 BYTE   W24
 BYTE   N11
 BYTE   W24
 BYTE   N11
 BYTE   W12
// 055   ----------------------------------------
 BYTE   N11
 BYTE   W12
 BYTE   N11
 BYTE   W24
 BYTE   N11
 BYTE   W24
 BYTE   N11
 BYTE   W36
// 056   ----------------------------------------
 BYTE   W96
// 057   ----------------------------------------
 BYTE   W96
// 058   ----------------------------------------
 BYTE   W96
// 059   ----------------------------------------
 BYTE   W96
// 060   ----------------------------------------
 BYTE   W96
// 061   ----------------------------------------
 BYTE   W96
// 062   ----------------------------------------
 BYTE   W96
// 063   ----------------------------------------
 BYTE   W96
// 064   ----------------------------------------
 BYTE   W96
// 065   ----------------------------------------
 BYTE   W96
// 066   ----------------------------------------
 BYTE   W96
// 067   ----------------------------------------
 BYTE   W96
// 068   ----------------------------------------
 BYTE   W96
// 069   ----------------------------------------
 BYTE   W96
// 070   ----------------------------------------
 BYTE   W96
// 071   ----------------------------------------
 BYTE   W96
// 072   ----------------------------------------
 BYTE   W96
// 073   ----------------------------------------
 BYTE   Fn2  v127
 BYTE   W12
 BYTE   Cn2  v092
 BYTE   W12
 BYTE   N11
 BYTE   W12
 BYTE   N11
 BYTE   W12
 BYTE   Fn2  v127
 BYTE   W12
 BYTE   Cn2  v092
 BYTE   W12
 BYTE   N11
 BYTE   W12
 BYTE   N11
 BYTE   W12
// 074   ----------------------------------------
 BYTE   Fn2  v127
 BYTE   W12
 BYTE   Cn2  v092
 BYTE   W12
 BYTE   N11
 BYTE   W12
 BYTE   N11
 BYTE   W12
 BYTE   N23  As2  v127
 BYTE   W24
 BYTE   N11  Gs2
 BYTE   W12
 BYTE   Gn2
 BYTE   W12
// 075   ----------------------------------------
 BYTE   TIE  Fn2
 BYTE   W96
// 076   ----------------------------------------
 BYTE   W44
 BYTE   W03
 BYTE   EOT
 BYTE   W01
 BYTE   N23  As2
 BYTE   W24
 BYTE   N11  Gs2
 BYTE   W12
 BYTE   Gn2
 BYTE   W12
// 077   ----------------------------------------
 BYTE   TIE  Fn2
 BYTE   W96
// 078   ----------------------------------------
 BYTE   W44
 BYTE   W03
 BYTE   EOT
 BYTE   W01
 BYTE   N23  As2
 BYTE   W24
 BYTE   N11  Gs2
 BYTE   W12
 BYTE   Gn2
 BYTE   W12
// 079   ----------------------------------------
 BYTE   N32  Cs2
 BYTE   W36
 BYTE   N44  Ds2
 BYTE   W60
// 080   ----------------------------------------
 BYTE   N32  Fn2
 BYTE   W36
 BYTE   N44  Gn2
 BYTE   W60
// 081   ----------------------------------------
 BYTE   W96
// 082   ----------------------------------------
 BYTE   W96
// 083   ----------------------------------------
 BYTE   W96
// 084   ----------------------------------------
 BYTE   W96
// 085   ----------------------------------------
 BYTE   GoTo
  POIN2 Label_2_015C4AFF
 BYTE   FINE

//**************** Track 4 (Midi-Chn.3) ****************//

SuperSmashBrosUltimateMenuMrGreen3339_004:
// 000   ----------------------------------------
 BYTE   KEYSH   SuperSmashBrosUltimateMenuMrGreen3339_key+0
 BYTE   VOICE   46
 BYTE   VOL   51*SuperSmashBrosUltimateMenuMrGreen3339_mvl/mxv
 BYTE   PAN   c_v+0
 BYTE   VOL   51*SuperSmashBrosUltimateMenuMrGreen3339_mvl/mxv
 BYTE   PAN   c_v+0
 BYTE   W96
// 001   ----------------------------------------
 BYTE   W96
// 002   ----------------------------------------
 BYTE   W96
// 003   ----------------------------------------
Label_3_015C4CE3:
 BYTE   W96
// 004   ----------------------------------------
 BYTE   W96
// 005   ----------------------------------------
 BYTE   W96
// 006   ----------------------------------------
 BYTE   W96
// 007   ----------------------------------------
 BYTE   W96
// 008   ----------------------------------------
 BYTE   W96
// 009   ----------------------------------------
 BYTE   W96
// 010   ----------------------------------------
 BYTE   W96
// 011   ----------------------------------------
 BYTE   W96
// 012   ----------------------------------------
 BYTE   W96
// 013   ----------------------------------------
 BYTE   W96
// 014   ----------------------------------------
 BYTE   W96
// 015   ----------------------------------------
 BYTE   W96
// 016   ----------------------------------------
 BYTE   W96
// 017   ----------------------------------------
 BYTE   W96
// 018   ----------------------------------------
 BYTE   W96
// 019   ----------------------------------------
 BYTE   W96
// 020   ----------------------------------------
 BYTE   W96
// 021   ----------------------------------------
 BYTE   W96
// 022   ----------------------------------------
 BYTE   W96
// 023   ----------------------------------------
 BYTE   W96
// 024   ----------------------------------------
 BYTE   W72
 BYTE   N23  An2  v116
 BYTE   W24
// 025   ----------------------------------------
Label_3_015C4CFD:
 BYTE   N44  An2  v116
 BYTE   W48
 BYTE   N11
 BYTE   W12
 BYTE   Gs2
 BYTE   W12
 BYTE   An2
 BYTE   W12
 BYTE   TIE  Bn2
 BYTE   W12
 BYTE   PEND 
// 026   ----------------------------------------
 BYTE   W92
 BYTE   W03
 BYTE   EOT
 BYTE   W01
// 027   ----------------------------------------
 BYTE   TIE  En2  v127
 BYTE   W96
// 028   ----------------------------------------
 BYTE   W44
 BYTE   W03
 BYTE   EOT
 BYTE   W01
 BYTE   N05  Gn2  v120
 BYTE   W06
 BYTE   N17  An2  v127
 BYTE   W18
 BYTE   N11  Gn2
 BYTE   W12
 BYTE   Fs2
 BYTE   W12
// 029   ----------------------------------------
 BYTE   N92  En2
 BYTE   W96
// 030   ----------------------------------------
Label_3_015C4D27:
 BYTE   W24
 BYTE   N23  Dn2  v127
 BYTE   W24
 BYTE   N17  Fs2
 BYTE   W18
 BYTE   Gn2
 BYTE   W18
 BYTE   N11  An2
 BYTE   W12
 BYTE   PEND 
// 031   ----------------------------------------
 BYTE   N92  Bn2
 BYTE   W96
// 032   ----------------------------------------
Label_3_015C4D38:
 BYTE   N44  En2  v127
 BYTE   W48
 BYTE   En3
 BYTE   W48
 BYTE   PEND 
// 033   ----------------------------------------
 BYTE   N32  En2
 BYTE   W36
 BYTE   Fs2
 BYTE   W36
 BYTE   N11
 BYTE   W12
 BYTE   N11
 BYTE   W12
// 034   ----------------------------------------
Label_3_015C4D48:
 BYTE   N32  Gn2  v127
 BYTE   W36
 BYTE   N44  An2
 BYTE   W60
 BYTE   PEND 
// 035   ----------------------------------------
 BYTE   TIE  En2
 BYTE   W96
// 036   ----------------------------------------
 BYTE   W44
 BYTE   W03
 BYTE   EOT
 BYTE   W01
 BYTE   N23  An2
 BYTE   W24
 BYTE   N11  Gn2
 BYTE   W12
 BYTE   Fs2
 BYTE   W12
// 037   ----------------------------------------
 BYTE   N92  En2
 BYTE   W96
 BYTE   PATT
  POIN2 Label_3_015C4D27
// 038   ----------------------------------------
 BYTE   N92  Bn2  v127
 BYTE   W96
 BYTE   PATT
  POIN2 Label_3_015C4D38
// 039   ----------------------------------------
 BYTE   N32  En2  v127
 BYTE   W36
 BYTE   N44  Fs2
 BYTE   W60
 BYTE   PATT
  POIN2 Label_3_015C4D48
// 040   ----------------------------------------
 BYTE   N92  En2  v127
 BYTE   W96
// 041   ----------------------------------------
Label_3_015C4D80:
 BYTE   N32  An2  v127
 BYTE   W36
 BYTE   Gn2
 BYTE   W36
 BYTE   N23  Fs2
 BYTE   W24
 BYTE   PEND 
// 042   ----------------------------------------
Label_3_015C4D8A:
 BYTE   N05  En2  v104
 BYTE   W12
 BYTE   Bn1  v088
 BYTE   W06
 BYTE   Bn1  v084
 BYTE   W06
 BYTE   Dn2  v096
 BYTE   W06
 BYTE   En2  v104
 BYTE   W12
 BYTE   N17  En2  v100
 BYTE   W18
 BYTE   N05  Bn1  v092
 BYTE   W06
 BYTE   Bn1  v088
 BYTE   W06
 BYTE   Dn2  v100
 BYTE   W06
 BYTE   En2  v108
 BYTE   W12
 BYTE   N17
 BYTE   W06
 BYTE   PEND 
// 043   ----------------------------------------
Label_3_015C4DAE:
 BYTE   W12
 BYTE   N05  Bn1  v084
 BYTE   W06
 BYTE   Bn1  v092
 BYTE   W06
 BYTE   Dn2  v096
 BYTE   W06
 BYTE   En2  v104
 BYTE   W12
 BYTE   Gn2
 BYTE   W12
 BYTE   N05
 BYTE   W06
 BYTE   Fs2  v100
 BYTE   W12
 BYTE   En2  v092
 BYTE   W12
 BYTE   Dn2
 BYTE   W12
 BYTE   PEND 
// 044   ----------------------------------------
 BYTE   N92  En2  v127
 BYTE   W96
 BYTE   PATT
  POIN2 Label_3_015C4D80
 BYTE   PATT
  POIN2 Label_3_015C4D8A
 BYTE   PATT
  POIN2 Label_3_015C4DAE
// 045   ----------------------------------------
 BYTE   N17  En2  v127
 BYTE   W18
 BYTE   Fs2
 BYTE   W18
 BYTE   N23  Gn2
 BYTE   W24
 BYTE   N11  En2
 BYTE   W12
 BYTE   Gn2
 BYTE   W12
 BYTE   Bn2
 BYTE   W12
// 046   ----------------------------------------
 BYTE   N17  An2
 BYTE   W18
 BYTE   Gn2
 BYTE   W18
 BYTE   N11  Fs2
 BYTE   W12
 BYTE   N23  Dn2
 BYTE   W24
 BYTE   N11  Dn3
 BYTE   W24
// 047   ----------------------------------------
 BYTE   N92  Cn3
 BYTE   W96
// 048   ----------------------------------------
 BYTE   N08  Bn2
 BYTE   W18
 BYTE   N11  Gn2
 BYTE   W18
 BYTE   Dn2
 BYTE   W12
 BYTE   Cn2
 BYTE   W48
// 049   ----------------------------------------
 BYTE   TIE  En2
 BYTE   W96
// 050   ----------------------------------------
 BYTE   W44
 BYTE   W03
 BYTE   EOT
 BYTE   W01
 BYTE   N08  An2
 BYTE   W18
 BYTE   N11  Gn2
 BYTE   W18
 BYTE   Fs2
 BYTE   W12
// 051   ----------------------------------------
 BYTE   N92  En2
 BYTE   W96
// 052   ----------------------------------------
 BYTE   N68  Ds2
 BYTE   W56
 BYTE   W01
 BYTE   N03  Ds4  v040
 BYTE   W04
 BYTE   N01  Fn4  v056
 BYTE   W03
 BYTE   N03  Fs4  v068
 BYTE   W03
 BYTE   N02  An4  v076
 BYTE   W05
 BYTE   N03  Bn4  v100
 BYTE   W04
 BYTE   Fs4  v040
 BYTE   W04
 BYTE   N01  An4  v060
 BYTE   W04
 BYTE   N05  Bn4  v084
 BYTE   W06
 BYTE   Fs5  v052
 BYTE   W06
// 053   ----------------------------------------
 BYTE   N11  En2  v096
 BYTE   W12
 BYTE   En2  v060
 BYTE   W12
 BYTE   En2  v096
 BYTE   W12
 BYTE   En2  v056
 BYTE   W12
 BYTE   An2  v096
 BYTE   W12
 BYTE   En2  v052
 BYTE   W12
 BYTE   En2  v092
 BYTE   W12
 BYTE   En2  v056
 BYTE   W12
// 054   ----------------------------------------
 BYTE   N68  Dn2  v088
 BYTE   W72
 BYTE   N11  Dn2  v080
 BYTE   W12
 BYTE   En2
 BYTE   W12
// 055   ----------------------------------------
 BYTE   N44  Gn2
 BYTE   W48
 BYTE   N23  Bn2
 BYTE   W24
 BYTE   N11  Gn2
 BYTE   W12
 BYTE   En2
 BYTE   W12
// 056   ----------------------------------------
 BYTE   N23  Dn2  v084
 BYTE   W24
 BYTE   Cn3  v096
 BYTE   W24
 BYTE   N11
 BYTE   W12
 BYTE   N23  Bn2
 BYTE   W24
 BYTE   N11  Cn3
 BYTE   W12
// 057   ----------------------------------------
 BYTE   N68  An2  v084
 BYTE   W72
 BYTE   N11  En2
 BYTE   W12
 BYTE   N44  Ds2
 BYTE   W12
// 058   ----------------------------------------
 BYTE   W36
 BYTE   N11  Fs2  v088
 BYTE   W36
 BYTE   N23  An2  v116
 BYTE   W24
 BYTE   PATT
  POIN2 Label_3_015C4CFD
// 059   ----------------------------------------
 BYTE   W92
 BYTE   W03
 BYTE   EOT
 BYTE   Bn2
 BYTE   W01
// 060   ----------------------------------------
 BYTE   N17  Gs2  v104
 BYTE   W18
 BYTE   Fs2  v108
 BYTE   W18
 BYTE   N11  Bn2  v104
 BYTE   W24
 BYTE   N32  Cn3
 BYTE   W36
// 061   ----------------------------------------
 BYTE   W96
// 062   ----------------------------------------
 BYTE   W96
// 063   ----------------------------------------
 BYTE   W96
// 064   ----------------------------------------
 BYTE   W96
// 065   ----------------------------------------
 BYTE   W96
// 066   ----------------------------------------
 BYTE   W96
// 067   ----------------------------------------
 BYTE   W96
// 068   ----------------------------------------
 BYTE   W96
// 069   ----------------------------------------
 BYTE   TIE  Fn2  v127
 BYTE   W96
// 070   ----------------------------------------
 BYTE   W44
 BYTE   W03
 BYTE   EOT
 BYTE   W01
 BYTE   N05  Gs2  v120
 BYTE   W06
 BYTE   N17  As2  v127
 BYTE   W18
 BYTE   N11  Gs2
 BYTE   W12
 BYTE   Gn2
 BYTE   W12
// 071   ----------------------------------------
 BYTE   N92  Fn2
 BYTE   W96
// 072   ----------------------------------------
 BYTE   W24
 BYTE   N23  Ds2
 BYTE   W24
 BYTE   N17  Gn2
 BYTE   W18
 BYTE   Gs2
 BYTE   W18
 BYTE   N11  As2
 BYTE   W12
// 073   ----------------------------------------
 BYTE   N92  Cn3
 BYTE   W96
// 074   ----------------------------------------
 BYTE   N44  Fn2
 BYTE   W48
 BYTE   Fn3
 BYTE   W48
// 075   ----------------------------------------
 BYTE   N32  Fn2
 BYTE   W36
 BYTE   N44  Gn2
 BYTE   W60
// 076   ----------------------------------------
 BYTE   N32  Gs2
 BYTE   W36
 BYTE   N44  As2
 BYTE   W60
// 077   ----------------------------------------
 BYTE   W24
 BYTE   N23  Gs2
 BYTE   W24
 BYTE   Gs3
 BYTE   W24
 BYTE   N11  Ds3
 BYTE   W12
 BYTE   N32  Dn3
 BYTE   W12
// 078   ----------------------------------------
 BYTE   W36
 BYTE   N28  As3  v124
 BYTE   W36
 BYTE   N11  Gs3  v127
 BYTE   W12
 BYTE   Gn3
 BYTE   W12
// 079   ----------------------------------------
 BYTE   N44  Fn3
 BYTE   W48
 BYTE   N23  Cs3
 BYTE   W36
 BYTE   N32  Ds3
 BYTE   W12
// 080   ----------------------------------------
 BYTE   W96
// 081   ----------------------------------------
 BYTE   GoTo
  POIN2 Label_3_015C4CE3
 BYTE   FINE

//**************** Track 5 (Midi-Chn.4) ****************//

SuperSmashBrosUltimateMenuMrGreen3339_005:
// 000   ----------------------------------------
 BYTE   KEYSH   SuperSmashBrosUltimateMenuMrGreen3339_key+0
 BYTE   VOICE   45
 BYTE   VOL   51*SuperSmashBrosUltimateMenuMrGreen3339_mvl/mxv
 BYTE   PAN   c_v+0
 BYTE   VOL   51*SuperSmashBrosUltimateMenuMrGreen3339_mvl/mxv
 BYTE   PAN   c_v+0
 BYTE   N44  An0  v120
 BYTE   W48
 BYTE   Bn0
 BYTE   W48
// 001   ----------------------------------------
 BYTE   Cn1  v116
 BYTE   W48
 BYTE   Dn1
 BYTE   W48
// 002   ----------------------------------------
 BYTE   En1
 BYTE   W72
 BYTE   N05
 BYTE   W06
 BYTE   N01  Ds1  v112
 BYTE   W02
 BYTE   Dn1  v116
 BYTE   W02
 BYTE   Cs1  v120
 BYTE   W02
 BYTE   Cn1
 BYTE   W02
 BYTE   Bn0  v116
 BYTE   W02
 BYTE   As0  v108
 BYTE   W02
 BYTE   An0  v100
 BYTE   W02
 BYTE   Gs0  v088
 BYTE   W02
 BYTE   Gn0  v068
 BYTE   W02
// 003   ----------------------------------------
Label_4_015C4F46:
 BYTE   N11  An0  v116
 BYTE   W12
 BYTE   N11
 BYTE   W12
 BYTE   Dn1
 BYTE   W12
 BYTE   N05  En1
 BYTE   W06
 BYTE   N05
 BYTE   W06
 BYTE   N17  An1
 BYTE   W18
 BYTE   En1
 BYTE   W18
 BYTE   N11  Gn0
 BYTE   W12
 BYTE   PEND 
// 004   ----------------------------------------
Label_4_015C4F5C:
 BYTE   N11  An0  v116
 BYTE   W12
 BYTE   N11
 BYTE   W12
 BYTE   Cn1
 BYTE   W12
 BYTE   En1
 BYTE   W18
 BYTE   N05  Gn1
 BYTE   W06
 BYTE   En1
 BYTE   W06
 BYTE   Dn1
 BYTE   W06
 BYTE   N11  Gn0
 BYTE   W12
 BYTE   An0
 BYTE   W12
 BYTE   PEND 
// 005   ----------------------------------------
Label_4_015C4F73:
 BYTE   N11  An0  v116
 BYTE   W12
 BYTE   N11
 BYTE   W12
 BYTE   Dn1
 BYTE   W12
 BYTE   N05  En1
 BYTE   W06
 BYTE   En1  v100
 BYTE   W06
 BYTE   N17  An1  v116
 BYTE   W18
 BYTE   En1
 BYTE   W18
 BYTE   N11  En0
 BYTE   W12
 BYTE   PEND 
// 006   ----------------------------------------
 BYTE   Fn0
 BYTE   W12
 BYTE   N11
 BYTE   W12
 BYTE   N11
 BYTE   W12
 BYTE   N11
 BYTE   W24
 BYTE   En1
 BYTE   W12
 BYTE   Gn0
 BYTE   W12
 BYTE   Gs0
 BYTE   W12
// 007   ----------------------------------------
Label_4_015C4F99:
 BYTE   N11  An0  v116
 BYTE   W12
 BYTE   N11
 BYTE   W12
 BYTE   Cn1
 BYTE   W12
 BYTE   N05  En1
 BYTE   W06
 BYTE   N05
 BYTE   W06
 BYTE   N17  An1
 BYTE   W18
 BYTE   En1
 BYTE   W18
 BYTE   N11  Gn0
 BYTE   W12
 BYTE   PEND 
// 008   ----------------------------------------
Label_4_015C4FAF:
 BYTE   N11  Fn0  v116
 BYTE   W12
 BYTE   N11
 BYTE   W18
 BYTE   N05  Gn1
 BYTE   W06
 BYTE   N11  Cn1
 BYTE   W12
 BYTE   En1
 BYTE   W12
 BYTE   N11
 BYTE   W12
 BYTE   Gn0
 BYTE   W12
 BYTE   Gs0
 BYTE   W12
 BYTE   PEND 
// 009   ----------------------------------------
Label_4_015C4FC4:
 BYTE   N11  An0  v116
 BYTE   W12
 BYTE   Dn1
 BYTE   W18
 BYTE   N05  An0
 BYTE   W06
 BYTE   N11  Cn1
 BYTE   W12
 BYTE   N05  Dn1
 BYTE   W12
 BYTE   N11
 BYTE   W12
 BYTE   Cn1
 BYTE   W12
 BYTE   Dn1
 BYTE   W12
 BYTE   PEND 
// 010   ----------------------------------------
 BYTE   N05
 BYTE   W06
 BYTE   N05
 BYTE   W12
 BYTE   Dn1  v092
 BYTE   W06
 BYTE   N08  Dn1  v116
 BYTE   W18
 BYTE   N05
 BYTE   W18
 BYTE   N23  En1
 BYTE   W24
 BYTE   N05  Dn1
 BYTE   W06
 BYTE   En1
 BYTE   W06
 BYTE   PATT
  POIN2 Label_4_015C4F46
 BYTE   PATT
  POIN2 Label_4_015C4F5C
 BYTE   PATT
  POIN2 Label_4_015C4F73
// 011   ----------------------------------------
 BYTE   N52  Fn0  v116
 BYTE   W60
 BYTE   N11  En1
 BYTE   W12
 BYTE   Gn0
 BYTE   W12
 BYTE   Gs0
 BYTE   W12
 BYTE   PATT
  POIN2 Label_4_015C4F99
 BYTE   PATT
  POIN2 Label_4_015C4FAF
 BYTE   PATT
  POIN2 Label_4_015C4FC4
// 012   ----------------------------------------
 BYTE   N05  En1  v116
 BYTE   W12
 BYTE   N05
 BYTE   W12
 BYTE   An1
 BYTE   W06
 BYTE   N08  Bn1
 BYTE   W18
 BYTE   N05  Fs1
 BYTE   W06
 BYTE   Gs1
 BYTE   W06
 BYTE   En1
 BYTE   W06
 BYTE   Fs1
 BYTE   W06
 BYTE   En1
 BYTE   W06
 BYTE   N01  Ds1  v096
 BYTE   W02
 BYTE   Dn1  v100
 BYTE   W02
 BYTE   Cs1
 BYTE   W02
 BYTE   Cn1  v092
 BYTE   W02
 BYTE   Bn0  v084
 BYTE   W02
 BYTE   As0  v064
 BYTE   W02
 BYTE   N02  An0  v044
 BYTE   W06
// 013   ----------------------------------------
 BYTE   N17  Fn0  v116
 BYTE   W18
 BYTE   N17
 BYTE   W18
 BYTE   N11
 BYTE   W12
 BYTE   N23
 BYTE   W24
 BYTE   Cn1
 BYTE   W24
// 014   ----------------------------------------
 BYTE   N17  Fn0
 BYTE   W18
 BYTE   N17
 BYTE   W18
 BYTE   N23
 BYTE   W24
 BYTE   N11
 BYTE   W12
 BYTE   Gn0
 BYTE   W12
 BYTE   Fn0
 BYTE   W12
// 015   ----------------------------------------
 BYTE   N17  En0
 BYTE   W18
 BYTE   N17
 BYTE   W18
 BYTE   N11
 BYTE   W12
 BYTE   N11
 BYTE   W12
 BYTE   N11
 BYTE   W12
 BYTE   Gn0
 BYTE   W12
 BYTE   Gs0
 BYTE   W12
// 016   ----------------------------------------
 BYTE   An0
 BYTE   W24
 BYTE   N44
 BYTE   W48
 BYTE   N23  Gn0
 BYTE   W24
// 017   ----------------------------------------
 BYTE   N17  Fs0
 BYTE   W18
 BYTE   N17
 BYTE   W18
 BYTE   N11
 BYTE   W12
 BYTE   Gn0
 BYTE   W12
 BYTE   An0
 BYTE   W12
 BYTE   Cn1
 BYTE   W12
 BYTE   N23  Bn0
 BYTE   W12
// 018   ----------------------------------------
 BYTE   W12
 BYTE   N11
 BYTE   W12
 BYTE   N32
 BYTE   W36
 BYTE   N11  Fs0
 BYTE   W12
 BYTE   Bn0
 BYTE   W12
 BYTE   N11
 BYTE   W12
// 019   ----------------------------------------
 BYTE   N56  En0
 BYTE   W60
 BYTE   N11  Dn0
 BYTE   W12
 BYTE   N01  Fn1  v108
 BYTE   W02
 BYTE   Fs1  v112
 BYTE   W02
 BYTE   Fn1
 BYTE   W02
 BYTE   En1
 BYTE   W02
 BYTE   Ds1  v108
 BYTE   W02
 BYTE   Dn1  v104
 BYTE   W02
 BYTE   Cs1  v096
 BYTE   W02
 BYTE   Cn1  v092
 BYTE   W02
 BYTE   Bn0  v088
 BYTE   W02
 BYTE   As0  v076
 BYTE   W02
 BYTE   An0  v068
 BYTE   W02
 BYTE   Gs0  v060
 BYTE   W02
// 020   ----------------------------------------
 BYTE   N17  Gn0  v104
 BYTE   W18
 BYTE   Fn0  v108
 BYTE   W18
 BYTE   As0  v104
 BYTE   W24
 BYTE   N32  Bn0
 BYTE   W36
// 021   ----------------------------------------
 BYTE   N08  En1  v108
 BYTE   W18
 BYTE   N11  En1  v104
 BYTE   W18
 BYTE   N23  En1  v108
 BYTE   W24
 BYTE   N11  En0  v112
 BYTE   W12
 BYTE   N05  An0
 BYTE   W06
 BYTE   Bn0
 BYTE   W06
 BYTE   Dn1
 BYTE   W06
 BYTE   En1
 BYTE   W06
// 022   ----------------------------------------
 BYTE   N11  An0
 BYTE   W12
 BYTE   N11
 BYTE   W12
 BYTE   N05  Dn1
 BYTE   W06
 BYTE   N11  En1
 BYTE   W12
 BYTE   N05
 BYTE   W06
 BYTE   N11  An1
 BYTE   W12
 BYTE   N11
 BYTE   W12
 BYTE   An0  v108
 BYTE   W12
 BYTE   Bn0
 BYTE   W12
// 023   ----------------------------------------
Label_4_015C50F5:
 BYTE   N08  Cn1  v108
 BYTE   W18
 BYTE   N17
 BYTE   W18
 BYTE   Fs0
 BYTE   W24
 BYTE   N17
 BYTE   W36
 BYTE   PEND 
// 024   ----------------------------------------
Label_4_015C5100:
 BYTE   N17  Bn0  v108
 BYTE   W18
 BYTE   Fs0
 BYTE   W18
 BYTE   Bn0
 BYTE   W24
 BYTE   N11
 BYTE   W12
 BYTE   An0
 BYTE   W12
 BYTE   Bn0
 BYTE   W12
 BYTE   PEND 
// 025   ----------------------------------------
Label_4_015C510F:
 BYTE   N11  En0  v108
 BYTE   W12
 BYTE   N11
 BYTE   W12
 BYTE   N05  Dn1
 BYTE   W06
 BYTE   N40  En1
 BYTE   W42
 BYTE   N05  An0
 BYTE   W06
 BYTE   Bn0
 BYTE   W06
 BYTE   Dn1
 BYTE   W06
 BYTE   En1
 BYTE   W06
 BYTE   PEND 
// 026   ----------------------------------------
Label_4_015C5125:
 BYTE   N11  En0  v108
 BYTE   W12
 BYTE   N11
 BYTE   W12
 BYTE   N05  Dn1
 BYTE   W06
 BYTE   N11  En1
 BYTE   W12
 BYTE   N05  An0
 BYTE   W06
 BYTE   N05
 BYTE   W12
 BYTE   N11
 BYTE   W12
 BYTE   N05
 BYTE   W12
 BYTE   N11
 BYTE   W12
 BYTE   PEND 
// 027   ----------------------------------------
Label_4_015C513D:
 BYTE   N17  An0  v108
 BYTE   W18
 BYTE   N11
 BYTE   W18
 BYTE   N23  Bn0
 BYTE   W24
 BYTE   N11
 BYTE   W12
 BYTE   An0
 BYTE   W12
 BYTE   Bn0
 BYTE   W12
 BYTE   PEND 
// 028   ----------------------------------------
Label_4_015C514D:
 BYTE   N17  Cn1  v108
 BYTE   W18
 BYTE   N05
 BYTE   W18
 BYTE   N17  Dn1
 BYTE   W24
 BYTE   N11
 BYTE   W12
 BYTE   N11
 BYTE   W12
 BYTE   Ds1
 BYTE   W12
 BYTE   PEND 
 BYTE   PATT
  POIN2 Label_4_015C510F
// 029   ----------------------------------------
 BYTE   N11  An0  v112
 BYTE   W12
 BYTE   N11
 BYTE   W12
 BYTE   N05  Dn1
 BYTE   W06
 BYTE   En1
 BYTE   W12
 BYTE   An0
 BYTE   W06
 BYTE   N11
 BYTE   W12
 BYTE   N11
 BYTE   W12
 BYTE   An0  v108
 BYTE   W12
 BYTE   Bn0
 BYTE   W12
 BYTE   PATT
  POIN2 Label_4_015C50F5
 BYTE   PATT
  POIN2 Label_4_015C5100
 BYTE   PATT
  POIN2 Label_4_015C510F
 BYTE   PATT
  POIN2 Label_4_015C5125
 BYTE   PATT
  POIN2 Label_4_015C513D
 BYTE   PATT
  POIN2 Label_4_015C514D
// 030   ----------------------------------------
 BYTE   N23  An0  v108
 BYTE   W24
 BYTE   N08
 BYTE   W18
 BYTE   N11
 BYTE   W18
 BYTE   N11
 BYTE   W12
 BYTE   Gs0
 BYTE   W12
 BYTE   An0
 BYTE   W12
// 031   ----------------------------------------
 BYTE   N23
 BYTE   W24
 BYTE   N08
 BYTE   W18
 BYTE   N05
 BYTE   W18
 BYTE   N11
 BYTE   W12
 BYTE   N11
 BYTE   W12
 BYTE   N11
 BYTE   W12
// 032   ----------------------------------------
Label_4_015C51B0:
 BYTE   N11  En0  v108
 BYTE   W12
 BYTE   N05  An0
 BYTE   W12
 BYTE   Dn1
 BYTE   W06
 BYTE   N11  En1
 BYTE   W12
 BYTE   N05  Gn1
 BYTE   W12
 BYTE   N05
 BYTE   W06
 BYTE   N11  En1
 BYTE   W12
 BYTE   N05  Bn0
 BYTE   W06
 BYTE   An0
 BYTE   W06
 BYTE   Bn0
 BYTE   W06
 BYTE   En1
 BYTE   W06
 BYTE   PEND 
// 033   ----------------------------------------
 BYTE   N11  En0
 BYTE   W12
 BYTE   N05  An0
 BYTE   W12
 BYTE   Dn1
 BYTE   W06
 BYTE   N11  En1
 BYTE   W12
 BYTE   N05  Gn1
 BYTE   W12
 BYTE   N05
 BYTE   W06
 BYTE   N11  En1
 BYTE   W12
 BYTE   N05  Bn0
 BYTE   W06
 BYTE   An0
 BYTE   W06
 BYTE   Dn1
 BYTE   W06
 BYTE   En1
 BYTE   W06
// 034   ----------------------------------------
 BYTE   N23  En0
 BYTE   W24
 BYTE   N05  Dn1
 BYTE   W06
 BYTE   N11  En1
 BYTE   W12
 BYTE   N05  An0
 BYTE   W12
 BYTE   N05
 BYTE   W06
 BYTE   N11
 BYTE   W12
 BYTE   Gn0
 BYTE   W12
 BYTE   An0
 BYTE   W12
// 035   ----------------------------------------
 BYTE   N23  En0
 BYTE   W24
 BYTE   N05  Dn1
 BYTE   W06
 BYTE   N11  En1
 BYTE   W12
 BYTE   N05  An0
 BYTE   W12
 BYTE   N05
 BYTE   W06
 BYTE   N11
 BYTE   W12
 BYTE   N05  Dn1
 BYTE   W06
 BYTE   N17  En1
 BYTE   W18
// 036   ----------------------------------------
 BYTE   N11  En0
 BYTE   W12
 BYTE   N05  An0
 BYTE   W12
 BYTE   Dn1
 BYTE   W06
 BYTE   N11  En1
 BYTE   W12
 BYTE   N05  Gn1
 BYTE   W12
 BYTE   N05
 BYTE   W06
 BYTE   N11  En1
 BYTE   W12
 BYTE   N05  Bn0
 BYTE   W06
 BYTE   An0
 BYTE   W06
 BYTE   Bn0
 BYTE   N05  Dn1
 BYTE   W06
 BYTE   En1
 BYTE   W06
 BYTE   PATT
  POIN2 Label_4_015C51B0
// 037   ----------------------------------------
 BYTE   W12
 BYTE   N11  Cn1  v108
 BYTE   W24
 BYTE   N11
 BYTE   W24
 BYTE   N11
 BYTE   W24
 BYTE   N11
 BYTE   W12
// 038   ----------------------------------------
 BYTE   W12
 BYTE   Bn0
 BYTE   W24
 BYTE   N11
 BYTE   W24
 BYTE   N11
 BYTE   W24
 BYTE   N05  Ds0
 BYTE   W06
 BYTE   En0
 BYTE   W06
// 039   ----------------------------------------
 BYTE   N11  Fn0
 BYTE   W12
 BYTE   N11
 BYTE   W24
 BYTE   N11
 BYTE   W24
 BYTE   N11
 BYTE   W24
 BYTE   N11
 BYTE   W12
// 040   ----------------------------------------
 BYTE   En0
 BYTE   W12
 BYTE   N11
 BYTE   W24
 BYTE   N11
 BYTE   W24
 BYTE   N11
 BYTE   W24
 BYTE   N05  Ds0
 BYTE   W06
 BYTE   En0
 BYTE   W06
// 041   ----------------------------------------
 BYTE   W12
 BYTE   N11  Cs1
 BYTE   W24
 BYTE   N11
 BYTE   W24
 BYTE   N11
 BYTE   W36
// 042   ----------------------------------------
 BYTE   N11
 BYTE   W12
 BYTE   N11
 BYTE   W24
 BYTE   N11
 BYTE   W24
 BYTE   N11
 BYTE   W24
 BYTE   N11
 BYTE   W12
// 043   ----------------------------------------
 BYTE   Bn0
 BYTE   W12
 BYTE   N11
 BYTE   W24
 BYTE   N11
 BYTE   W24
 BYTE   N11
 BYTE   W24
 BYTE   N11
 BYTE   W12
// 044   ----------------------------------------
 BYTE   N11
 BYTE   W12
 BYTE   N11
 BYTE   W24
 BYTE   N11
 BYTE   W24
 BYTE   N11
 BYTE   W36
// 045   ----------------------------------------
 BYTE   N17  Fn0
 BYTE   W18
 BYTE   N17
 BYTE   W18
 BYTE   N11
 BYTE   W12
 BYTE   N23
 BYTE   W24
 BYTE   N11  Cn1
 BYTE   W12
 BYTE   Gn1
 BYTE   W12
// 046   ----------------------------------------
 BYTE   N17  Fn1
 BYTE   W18
 BYTE   N17
 BYTE   W18
 BYTE   N11
 BYTE   W12
 BYTE   N11
 BYTE   W12
 BYTE   Bn0
 BYTE   W12
 BYTE   Fn1
 BYTE   W12
 BYTE   Bn0
 BYTE   W12
// 047   ----------------------------------------
 BYTE   N17  En1
 BYTE   W18
 BYTE   N05
 BYTE   W06
 BYTE   N01  Ds1  v104
 BYTE   W02
 BYTE   Dn1  v100
 BYTE   W02
 BYTE   Cs1
 BYTE   W02
 BYTE   Cn1  v092
 BYTE   W02
 BYTE   Bn0  v088
 BYTE   W02
 BYTE   As0
 BYTE   W02
 BYTE   N11  Bn0  v108
 BYTE   W12
 BYTE   En1
 BYTE   W12
 BYTE   Bn0
 BYTE   W12
 BYTE   Dn1
 BYTE   W12
 BYTE   En1
 BYTE   W12
// 048   ----------------------------------------
 BYTE   An0
 BYTE   W12
 BYTE   Cn1
 BYTE   W12
 BYTE   En1
 BYTE   W12
 BYTE   Cn2
 BYTE   W12
 BYTE   N23  An1
 BYTE   W24
 BYTE   N11
 BYTE   W12
 BYTE   N01  Gs1  v104
 BYTE   W01
 BYTE   Gn1  v100
 BYTE   W01
 BYTE   Fs1
 BYTE   W01
 BYTE   Fn1
 BYTE   W01
 BYTE   En1
 BYTE   W01
 BYTE   Ds1  v096
 BYTE   W01
 BYTE   Dn1  v092
 BYTE   W01
 BYTE   Cs1  v088
 BYTE   W01
 BYTE   Cn1  v076
 BYTE   W01
 BYTE   Bn0
 BYTE   W03
// 049   ----------------------------------------
 BYTE   N17  Fs0  v108
 BYTE   W18
 BYTE   N17
 BYTE   W18
 BYTE   N11  Cn1
 BYTE   W12
 BYTE   Fs0
 BYTE   W12
 BYTE   Cn1
 BYTE   W12
 BYTE   Dn1
 BYTE   W12
 BYTE   Bn0
 BYTE   W12
// 050   ----------------------------------------
 BYTE   W12
 BYTE   N11
 BYTE   W12
 BYTE   N44
 BYTE   W48
 BYTE   N11  BnM1
 BYTE   W12
 BYTE   N11
 BYTE   W12
// 051   ----------------------------------------
 BYTE   N56  En0  v096
 BYTE   W60
 BYTE   N11  Dn0
 BYTE   W12
 BYTE   N01  Fn1  v108
 BYTE   W02
 BYTE   Fs1  v112
 BYTE   W02
 BYTE   Fn1
 BYTE   W02
 BYTE   En1
 BYTE   W02
 BYTE   Ds1  v108
 BYTE   W02
 BYTE   Dn1  v104
 BYTE   W02
 BYTE   Cs1  v096
 BYTE   W02
 BYTE   Cn1  v092
 BYTE   W02
 BYTE   Bn0  v088
 BYTE   W02
 BYTE   As0  v076
 BYTE   W02
 BYTE   An0  v068
 BYTE   W02
 BYTE   Gs0  v060
 BYTE   W02
// 052   ----------------------------------------
 BYTE   N17  Gn0  v104
 BYTE   W18
 BYTE   Fn0  v108
 BYTE   W18
 BYTE   N11  Bn0  v104
 BYTE   W24
 BYTE   N32
 BYTE   W36
// 053   ----------------------------------------
 BYTE   N17  Gs0
 BYTE   W18
 BYTE   Fs0  v108
 BYTE   W18
 BYTE   N11  Bn0  v104
 BYTE   W24
 BYTE   N32  Cn1
 BYTE   W36
// 054   ----------------------------------------
 BYTE   N92  Fn0
 BYTE   W96
// 055   ----------------------------------------
 BYTE   As0
 BYTE   W96
// 056   ----------------------------------------
 BYTE   N44  Cs1
 BYTE   W48
 BYTE   Gn0
 BYTE   W48
// 057   ----------------------------------------
 BYTE   Cn1
 BYTE   W48
 BYTE   En1
 BYTE   W48
// 058   ----------------------------------------
 BYTE   N05
 BYTE   W06
 BYTE   N40  Fn1
 BYTE   W54
 BYTE   N02  En1
 BYTE   W03
 BYTE   N14  Fn1
 BYTE   W21
 BYTE   N11  Gs1
 BYTE   W12
// 059   ----------------------------------------
 BYTE   N23  As1
 BYTE   W22
 BYTE   N02  Gs1  v072
 BYTE   W02
 BYTE   N03  Fs1  v096
 BYTE   W01
 BYTE   N02  Gs1  v076
 BYTE   W03
 BYTE   N07  Fs1  v100
 BYTE   W08
 BYTE   N11  As1  v104
 BYTE   W12
 BYTE   Dn2
 BYTE   W24
 BYTE   N03  Fn1
 BYTE   W04
 BYTE   N01  En1  v100
 BYTE   W02
 BYTE   Ds1
 BYTE   W02
 BYTE   Dn1
 BYTE   W02
 BYTE   Cs1
 BYTE   W02
 BYTE   Cn1  v092
 BYTE   W02
 BYTE   Bn0  v076
 BYTE   W02
 BYTE   As0  v064
 BYTE   W02
 BYTE   An0  v048
 BYTE   W02
 BYTE   Gs0  v044
 BYTE   W02
 BYTE   Gn0  v032
 BYTE   W02
// 060   ----------------------------------------
 BYTE   N08  As0  v127
 BYTE   W18
 BYTE   N11
 BYTE   W18
 BYTE   N23  Cn1
 BYTE   W24
 BYTE   N17
 BYTE   W36
// 061   ----------------------------------------
 BYTE   N08  Cs1
 BYTE   W18
 BYTE   N11
 BYTE   W18
 BYTE   N56  Ds1
 BYTE   W60
// 062   ----------------------------------------
Label_4_015C53B7:
 BYTE   N11  Fn0  v116
 BYTE   W12
 BYTE   N11
 BYTE   W12
 BYTE   Fn1
 BYTE   W12
 BYTE   Ds0
 BYTE   W12
 BYTE   Fn0
 BYTE   W12
 BYTE   N11
 BYTE   W12
 BYTE   N05  As0
 BYTE   W06
 BYTE   Cn1
 BYTE   W06
 BYTE   Ds1
 BYTE   W06
 BYTE   Fn1
 BYTE   W06
 BYTE   PEND 
// 063   ----------------------------------------
 BYTE   N11  As0
 BYTE   W12
 BYTE   N11
 BYTE   W12
 BYTE   Fn1
 BYTE   W12
 BYTE   As0
 BYTE   W12
 BYTE   N11
 BYTE   W12
 BYTE   N11
 BYTE   W12
 BYTE   N05  Gs0
 BYTE   W06
 BYTE   As0
 BYTE   W06
 BYTE   Cn1
 BYTE   W06
 BYTE   Cs1
 BYTE   W06
// 064   ----------------------------------------
 BYTE   N17
 BYTE   W18
 BYTE   N17
 BYTE   W18
 BYTE   N11  Gn0
 BYTE   W24
 BYTE   N11
 BYTE   W12
 BYTE   N05  Fn0
 BYTE   W06
 BYTE   Gn0
 BYTE   W06
 BYTE   As0
 BYTE   W06
 BYTE   Cn1
 BYTE   W06
// 065   ----------------------------------------
 BYTE   N23  Cn0
 BYTE   W36
 BYTE   N05  Dn0
 BYTE   W06
 BYTE   N17  Ds0
 BYTE   W42
 BYTE   N05  Fn0
 BYTE   W06
 BYTE   N01  En0  v100
 BYTE   W01
 BYTE   Ds0  v104
 BYTE   W01
 BYTE   Dn0
 BYTE   W01
 BYTE   Cs0  v100
 BYTE   W01
 BYTE   Cn0  v092
 BYTE   W02
 BYTE   PATT
  POIN2 Label_4_015C53B7
// 066   ----------------------------------------
 BYTE   N11  As0  v116
 BYTE   W12
 BYTE   N11
 BYTE   W12
 BYTE   N05  Fn0
 BYTE   W06
 BYTE   N17  Gn0
 BYTE   W66
// 067   ----------------------------------------
 BYTE   As0
 BYTE   W18
 BYTE   N05
 BYTE   W18
 BYTE   N17  Cn1
 BYTE   W24
 BYTE   N17
 BYTE   W36
// 068   ----------------------------------------
 BYTE   Cs1
 BYTE   W18
 BYTE   N05
 BYTE   W18
 BYTE   N11  Ds1
 BYTE   W24
 BYTE   N11
 BYTE   W36
// 069   ----------------------------------------
 BYTE   N08  Cs1
 BYTE   W18
 BYTE   N05
 BYTE   W18
 BYTE   N11
 BYTE   W24
 BYTE   N11
 BYTE   W24
 BYTE   N32  As0
 BYTE   W12
// 070   ----------------------------------------
 BYTE   W24
 BYTE   N17
 BYTE   W18
 BYTE   N11
 BYTE   W18
 BYTE   N11
 BYTE   W12
 BYTE   N11
 BYTE   W12
 BYTE   An0
 BYTE   W12
// 071   ----------------------------------------
 BYTE   N23  Fs0
 BYTE   W36
 BYTE   N11
 BYTE   W12
 BYTE   Cn1
 BYTE   W12
 BYTE   Cs1
 BYTE   W12
 BYTE   N05  Fs1
 BYTE   W12
 BYTE   N23  Ds1
 BYTE   W12
// 072   ----------------------------------------
 BYTE   W12
 BYTE   N23
 BYTE   W24
 BYTE   N11
 BYTE   W12
 BYTE   En0
 BYTE   W12
 BYTE   N05
 BYTE   W06
 BYTE   N05
 BYTE   W06
 BYTE   N11  Gs1
 BYTE   W12
 BYTE   N01  Gn1  v100
 BYTE   W01
 BYTE   Fs1  v104
 BYTE   W01
 BYTE   Fn1  v108
 BYTE   W01
 BYTE   En1  v112
 BYTE   W01
 BYTE   Ds1
 BYTE   W01
 BYTE   Dn1
 BYTE   W01
 BYTE   Cs1
 BYTE   W01
 BYTE   Cn1  v108
 BYTE   W01
 BYTE   Bn0  v104
 BYTE   W01
 BYTE   As0  v096
 BYTE   W01
 BYTE   An0  v088
 BYTE   W01
 BYTE   Gs0  v068
 BYTE   W01
// 073   ----------------------------------------
 BYTE   GoTo
  POIN2 Label_4_015C4F46
 BYTE   FINE

//**************** Track 6 (Midi-Chn.5) ****************//

SuperSmashBrosUltimateMenuMrGreen3339_006:
// 000   ----------------------------------------
 BYTE   KEYSH   SuperSmashBrosUltimateMenuMrGreen3339_key+0
 BYTE   VOICE   11
 BYTE   VOL   51*SuperSmashBrosUltimateMenuMrGreen3339_mvl/mxv
 BYTE   PAN   c_v+0
 BYTE   VOL   51*SuperSmashBrosUltimateMenuMrGreen3339_mvl/mxv
 BYTE   PAN   c_v+0
 BYTE   W96
// 001   ----------------------------------------
 BYTE   W36
 BYTE   N11  En3  v104
 BYTE   N11  Bn3
 BYTE   N11  En4
 BYTE   N11  Bn4  v072
 BYTE   W12
 BYTE   N17  Dn3  v104
 BYTE   N17  An3
 BYTE   N17  Dn4
 BYTE   N17  An4  v072
 BYTE   W18
 BYTE   En3  v104
 BYTE   N17  Bn3
 BYTE   N17  En4
 BYTE   N17  Bn4  v072
 BYTE   W18
 BYTE   N11  Fs3  v104
 BYTE   N11  Cs4
 BYTE   N11  Fs4
 BYTE   N11  Cs5  v076
 BYTE   W12
// 002   ----------------------------------------
 BYTE   N92  En3  v104
 BYTE   N92  Bn3
 BYTE   N92  En4
 BYTE   N92  Bn4  v080
 BYTE   W96
// 003   ----------------------------------------
Label_5_015C54D8:
 BYTE   W96
// 004   ----------------------------------------
 BYTE   W96
// 005   ----------------------------------------
 BYTE   W96
// 006   ----------------------------------------
 BYTE   W96
// 007   ----------------------------------------
 BYTE   W96
// 008   ----------------------------------------
 BYTE   W96
// 009   ----------------------------------------
 BYTE   W96
// 010   ----------------------------------------
 BYTE   W96
// 011   ----------------------------------------
 BYTE   W96
// 012   ----------------------------------------
 BYTE   W96
// 013   ----------------------------------------
 BYTE   W96
// 014   ----------------------------------------
 BYTE   W96
// 015   ----------------------------------------
 BYTE   W96
// 016   ----------------------------------------
 BYTE   W96
// 017   ----------------------------------------
 BYTE   W96
// 018   ----------------------------------------
 BYTE   W96
// 019   ----------------------------------------
 BYTE   W96
// 020   ----------------------------------------
 BYTE   W96
// 021   ----------------------------------------
 BYTE   W96
// 022   ----------------------------------------
 BYTE   W96
// 023   ----------------------------------------
 BYTE   W96
// 024   ----------------------------------------
 BYTE   W96
// 025   ----------------------------------------
 BYTE   W96
// 026   ----------------------------------------
 BYTE   W96
// 027   ----------------------------------------
 BYTE   W96
// 028   ----------------------------------------
 BYTE   W96
// 029   ----------------------------------------
 BYTE   W96
// 030   ----------------------------------------
 BYTE   W96
// 031   ----------------------------------------
 BYTE   W96
// 032   ----------------------------------------
 BYTE   W96
// 033   ----------------------------------------
 BYTE   W96
// 034   ----------------------------------------
 BYTE   W96
// 035   ----------------------------------------
 BYTE   W96
// 036   ----------------------------------------
 BYTE   W96
// 037   ----------------------------------------
 BYTE   W96
// 038   ----------------------------------------
 BYTE   W96
// 039   ----------------------------------------
 BYTE   W96
// 040   ----------------------------------------
 BYTE   W96
// 041   ----------------------------------------
 BYTE   W96
// 042   ----------------------------------------
 BYTE   W96
// 043   ----------------------------------------
 BYTE   W96
// 044   ----------------------------------------
 BYTE   W96
// 045   ----------------------------------------
 BYTE   W96
// 046   ----------------------------------------
 BYTE   W96
// 047   ----------------------------------------
 BYTE   W96
// 048   ----------------------------------------
 BYTE   W96
// 049   ----------------------------------------
 BYTE   W96
// 050   ----------------------------------------
 BYTE   W96
// 051   ----------------------------------------
 BYTE   W96
// 052   ----------------------------------------
 BYTE   W96
// 053   ----------------------------------------
 BYTE   W96
// 054   ----------------------------------------
 BYTE   W96
// 055   ----------------------------------------
 BYTE   W96
// 056   ----------------------------------------
 BYTE   W96
// 057   ----------------------------------------
 BYTE   W96
// 058   ----------------------------------------
 BYTE   W96
// 059   ----------------------------------------
 BYTE   W96
// 060   ----------------------------------------
 BYTE   W96
// 061   ----------------------------------------
 BYTE   W96
// 062   ----------------------------------------
 BYTE   W96
// 063   ----------------------------------------
 BYTE   W96
// 064   ----------------------------------------
 BYTE   W96
// 065   ----------------------------------------
 BYTE   W96
// 066   ----------------------------------------
 BYTE   W96
// 067   ----------------------------------------
 BYTE   W96
// 068   ----------------------------------------
 BYTE   TIE  Cn3  v092
 BYTE   TIE  Fn3
 BYTE   TIE  Cn4
 BYTE   W96
// 069   ----------------------------------------
 BYTE   W92
 BYTE   W03
 BYTE   EOT
 BYTE   Cn3  v065
 BYTE   Cn4
 BYTE   W01
// 070   ----------------------------------------
 BYTE   N92  Fn3  v108
 BYTE   N92  As3
 BYTE   N92  Fn4
 BYTE   W96
// 071   ----------------------------------------
 BYTE   Ds3  v112
 BYTE   N92  Gs3
 BYTE   N92  Ds4
 BYTE   W96
// 072   ----------------------------------------
 BYTE   TIE  Fn3  v127
 BYTE   TIE  As3
 BYTE   TIE  Fn4
 BYTE   W96
// 073   ----------------------------------------
 BYTE   W92
 BYTE   W03
 BYTE   EOT
 BYTE   Fn3  v070
 BYTE   Fn4
 BYTE   W01
// 074   ----------------------------------------
 BYTE   N08  Cs3
 BYTE   N08  Gs3
 BYTE   N08  Cs4
 BYTE   W18
 BYTE   N11  Cs3
 BYTE   N11  Gs3
 BYTE   N11  Cs4
 BYTE   W18
 BYTE   N44  Ds3
 BYTE   N44  As3
 BYTE   N44  Ds4
 BYTE   W60
// 075   ----------------------------------------
 BYTE   N08  Fn3
 BYTE   N08  Cn4
 BYTE   N08  Fn4
 BYTE   W18
 BYTE   N11  Fn3
 BYTE   N11  Cn4
 BYTE   N11  Fn4
 BYTE   W18
 BYTE   N56  Fn3
 BYTE   N56  Cn4
 BYTE   N56  Fn4
 BYTE   W60
// 076   ----------------------------------------
 BYTE   W96
// 077   ----------------------------------------
 BYTE   W96
// 078   ----------------------------------------
 BYTE   W96
// 079   ----------------------------------------
 BYTE   W96
// 080   ----------------------------------------
 BYTE   W96
// 081   ----------------------------------------
 BYTE   W96
// 082   ----------------------------------------
 BYTE   W96
// 083   ----------------------------------------
 BYTE   W96
// 084   ----------------------------------------
 BYTE   W96
// 085   ----------------------------------------
 BYTE   W96
// 086   ----------------------------------------
 BYTE   W96
// 087   ----------------------------------------
 BYTE   W96
// 088   ----------------------------------------
 BYTE   GoTo
  POIN2 Label_5_015C54D8
 BYTE   FINE

//**************** Track 7 (Midi-Chn.6) ****************//

SuperSmashBrosUltimateMenuMrGreen3339_007:
// 000   ----------------------------------------
 BYTE   KEYSH   SuperSmashBrosUltimateMenuMrGreen3339_key+0
 BYTE   VOICE   60
 BYTE   VOL   51*SuperSmashBrosUltimateMenuMrGreen3339_mvl/mxv
 BYTE   PAN   c_v+0
 BYTE   VOL   51*SuperSmashBrosUltimateMenuMrGreen3339_mvl/mxv
 BYTE   PAN   c_v+0
 BYTE   W96
// 001   ----------------------------------------
 BYTE   N05  Gn3  v104
 BYTE   W12
 BYTE   Fs3
 BYTE   W06
 BYTE   N17  En3
 BYTE   W18
 BYTE   N11  Bn2
 BYTE   N11  Gn3  v127
 BYTE   W12
 BYTE   N05  An2  v104
 BYTE   N17  Fs3  v127
 BYTE   W06
 BYTE   N05  Dn2  v104
 BYTE   W06
 BYTE   Fs2
 BYTE   W06
 BYTE   An2
 BYTE   N17  Gn3  v127
 BYTE   W06
 BYTE   N05  Gn2  v104
 BYTE   W06
 BYTE   An2  v108
 BYTE   W06
 BYTE   Bn2
 BYTE   N11  An3  v127
 BYTE   W06
 BYTE   N05  Dn3  v108
 BYTE   W06
// 002   ----------------------------------------
 BYTE   N92  En3
 BYTE   N92  Bn3  v127
 BYTE   W96
// 003   ----------------------------------------
Label_6_015C55C8:
 BYTE   N23  Gn3  v108
 BYTE   W24
 BYTE   An3
 BYTE   W24
 BYTE   Fs3
 BYTE   W36
 BYTE   N05  En3  v112
 BYTE   W06
 BYTE   Fs3  v108
 BYTE   W06
// 004   ----------------------------------------
 BYTE   N08  Gn3  v112
 BYTE   W18
 BYTE   N11  An3  v127
 BYTE   W18
 BYTE   Bn3
 BYTE   W12
 BYTE   N23  An3
 BYTE   W48
// 005   ----------------------------------------
 BYTE   Gn3  v108
 BYTE   W24
 BYTE   An3
 BYTE   W24
 BYTE   N08  Fs3
 BYTE   W18
 BYTE   N11  En3  v112
 BYTE   W18
 BYTE   Dn3
 BYTE   W12
// 006   ----------------------------------------
 BYTE   N92  En3  v108
 BYTE   W96
// 007   ----------------------------------------
 BYTE   N23  Gn3
 BYTE   W24
 BYTE   An3
 BYTE   W24
 BYTE   Fs3
 BYTE   W36
 BYTE   N05  En3
 BYTE   W06
 BYTE   Fs3
 BYTE   W06
// 008   ----------------------------------------
 BYTE   N17  Gn3  v112
 BYTE   W18
 BYTE   N11  An3  v127
 BYTE   W18
 BYTE   Bn3
 BYTE   W12
 BYTE   N17  An3
 BYTE   W18
 BYTE   N11  Fs3  v108
 BYTE   W18
 BYTE   Dn3  v112
 BYTE   W12
// 009   ----------------------------------------
 BYTE   N44  En3
 BYTE   W48
 BYTE   N08
 BYTE   W18
 BYTE   N11  Fs3
 BYTE   W18
 BYTE   Gn3
 BYTE   W12
// 010   ----------------------------------------
 BYTE   N44  An3  v127
 BYTE   W48
 BYTE   Bn3  v120
 BYTE   W48
// 011   ----------------------------------------
 BYTE   N23  Cn3  v088
 BYTE   N23  Gn3  v108
 BYTE   W24
 BYTE   Dn3  v088
 BYTE   N23  An3  v108
 BYTE   W24
 BYTE   Bn2  v088
 BYTE   N23  Fs3  v108
 BYTE   W36
 BYTE   N05  An2  v088
 BYTE   N05  En3  v112
 BYTE   W06
 BYTE   Bn2  v088
 BYTE   N05  Fs3  v108
 BYTE   W06
// 012   ----------------------------------------
 BYTE   N08  Cn3  v088
 BYTE   N08  Gn3  v112
 BYTE   W18
 BYTE   N11  Dn3  v088
 BYTE   N11  An3  v127
 BYTE   W18
 BYTE   En3  v088
 BYTE   N11  Bn3  v127
 BYTE   W12
 BYTE   N23  Dn3  v088
 BYTE   N23  An3  v127
 BYTE   W48
// 013   ----------------------------------------
 BYTE   Cn3  v088
 BYTE   N23  Gn3  v108
 BYTE   W24
 BYTE   Dn3  v088
 BYTE   N23  An3  v108
 BYTE   W24
 BYTE   N08  Bn2  v088
 BYTE   N08  Fs3  v108
 BYTE   W18
 BYTE   N11  An2  v088
 BYTE   N11  En3  v112
 BYTE   W18
 BYTE   Gn2  v088
 BYTE   N11  Dn3  v112
 BYTE   W12
// 014   ----------------------------------------
 BYTE   N92  An2  v088
 BYTE   N92  En3  v108
 BYTE   W96
// 015   ----------------------------------------
 BYTE   N23  Cn3  v088
 BYTE   N23  Gn3  v108
 BYTE   W24
 BYTE   Dn3  v088
 BYTE   N23  An3  v108
 BYTE   W24
 BYTE   Bn2  v088
 BYTE   N23  Fs3  v108
 BYTE   W36
 BYTE   N05  An2  v088
 BYTE   N05  En3  v108
 BYTE   W06
 BYTE   Bn2  v088
 BYTE   N05  Fs3  v108
 BYTE   W06
// 016   ----------------------------------------
 BYTE   N17  Cn3  v088
 BYTE   N17  Gn3  v112
 BYTE   W18
 BYTE   N11  Dn3  v088
 BYTE   N11  An3  v127
 BYTE   W18
 BYTE   En3  v088
 BYTE   N11  Bn3  v127
 BYTE   W12
 BYTE   N17  Dn3  v088
 BYTE   N17  An3  v127
 BYTE   W18
 BYTE   N11  Fs3  v108
 BYTE   N11  Gn3  v088
 BYTE   W18
 BYTE   Dn3  v112
 BYTE   N11  Gn3  v088
 BYTE   W12
// 017   ----------------------------------------
 BYTE   N23  Cn3
 BYTE   N23  En3  v112
 BYTE   W48
 BYTE   N08  En3  v116
 BYTE   W18
 BYTE   N11  Fs3
 BYTE   W18
 BYTE   Gn3
 BYTE   W12
// 018   ----------------------------------------
 BYTE   N23  Dn3  v088
 BYTE   N23  An3  v127
 BYTE   W24
 BYTE   Gn3  v088
 BYTE   N23  Dn4  v127
 BYTE   W24
 BYTE   Dn3  v088
 BYTE   N23  Bn3  v127
 BYTE   W48
// 019   ----------------------------------------
 BYTE   W96
// 020   ----------------------------------------
 BYTE   W96
// 021   ----------------------------------------
 BYTE   W96
// 022   ----------------------------------------
 BYTE   W96
// 023   ----------------------------------------
 BYTE   W48
 BYTE   N11  Cn3  v092
 BYTE   W12
 BYTE   N05  En3  v104
 BYTE   W12
 BYTE   An3
 BYTE   W12
 BYTE   N44  Fs3
 BYTE   W12
// 024   ----------------------------------------
 BYTE   W36
 BYTE   N11
 BYTE   W24
 BYTE   Cn4
 BYTE   W12
 BYTE   Bn3
 BYTE   W12
 BYTE   An3
 BYTE   W12
// 025   ----------------------------------------
 BYTE   N44
 BYTE   W48
 BYTE   N32
 BYTE   W36
 BYTE   N12  Bn3
 BYTE   W12
// 026   ----------------------------------------
 BYTE   N08  Bn3  v100
 BYTE   W18
 BYTE   N05  An3
 BYTE   W18
 BYTE   N11  Dn4
 BYTE   W24
 BYTE   N32
 BYTE   W36
// 027   ----------------------------------------
 BYTE   W24
 BYTE   N23  Gn3  v084
 BYTE   W24
 BYTE   Fs3
 BYTE   W24
 BYTE   Dn3
 BYTE   W24
// 028   ----------------------------------------
 BYTE   N17  En3
 BYTE   W18
 BYTE   Bn3
 BYTE   W18
 BYTE   N11
 BYTE   W12
 BYTE   N44  An3
 BYTE   W48
// 029   ----------------------------------------
 BYTE   N17  Cn4  v076
 BYTE   W18
 BYTE   Bn3
 BYTE   W18
 BYTE   N23  An3
 BYTE   W24
 BYTE   N11  Gn3  v080
 BYTE   W12
 BYTE   An3
 BYTE   W12
 BYTE   Bn3
 BYTE   W12
// 030   ----------------------------------------
 BYTE   N17  Fs3  v088
 BYTE   W18
 BYTE   N17
 BYTE   W18
 BYTE   N11  En3
 BYTE   W12
 BYTE   N23  Dn3
 BYTE   W48
// 031   ----------------------------------------
 BYTE   W24
 BYTE   En3  v060
 BYTE   W24
 BYTE   Gn3
 BYTE   W24
 BYTE   Bn3
 BYTE   W24
// 032   ----------------------------------------
 BYTE   N44  An3
 BYTE   W48
 BYTE   En3
 BYTE   W48
// 033   ----------------------------------------
 BYTE   W96
// 034   ----------------------------------------
 BYTE   W96
// 035   ----------------------------------------
 BYTE   W96
// 036   ----------------------------------------
 BYTE   W48
 BYTE   N23  An3  v120
 BYTE   W24
 BYTE   N11  Gn3
 BYTE   W12
 BYTE   Fs3
 BYTE   W12
// 037   ----------------------------------------
 BYTE   N92  En3
 BYTE   W96
// 038   ----------------------------------------
 BYTE   W24
 BYTE   N23  An2
 BYTE   W24
 BYTE   N17  Dn3
 BYTE   W18
 BYTE   En3
 BYTE   W18
 BYTE   N11  Fs3
 BYTE   W12
// 039   ----------------------------------------
 BYTE   N23  Gn3
 BYTE   W24
 BYTE   Fs3  v116
 BYTE   W24
 BYTE   Dn3  v120
 BYTE   W24
 BYTE   An2
 BYTE   W24
// 040   ----------------------------------------
 BYTE   Bn2
 BYTE   W24
 BYTE   Dn3
 BYTE   W24
 BYTE   N44  Cs3
 BYTE   W48
// 041   ----------------------------------------
 BYTE   N17  Cn4  v096
 BYTE   W18
 BYTE   Bn3
 BYTE   W18
 BYTE   N23  An3
 BYTE   W24
 BYTE   N11  Gn3
 BYTE   W12
 BYTE   An3
 BYTE   W12
 BYTE   Bn3
 BYTE   W12
// 042   ----------------------------------------
 BYTE   N17  An3
 BYTE   W18
 BYTE   Gn3
 BYTE   W18
 BYTE   N11  An3
 BYTE   W12
 BYTE   N17  Fs3
 BYTE   W18
 BYTE   An3
 BYTE   W18
 BYTE   N11  Dn4
 BYTE   W12
// 043   ----------------------------------------
Label_6_015C57AC:
 BYTE   N44  Dn3  v112
 BYTE   W48
 BYTE   Cs3
 BYTE   W48
 BYTE   PEND 
// 044   ----------------------------------------
Label_6_015C57B3:
 BYTE   N44  Bn2  v112
 BYTE   W48
 BYTE   An2  v108
 BYTE   W48
 BYTE   PEND 
// 045   ----------------------------------------
 BYTE   W96
// 046   ----------------------------------------
 BYTE   W96
 BYTE   PATT
  POIN2 Label_6_015C57AC
 BYTE   PATT
  POIN2 Label_6_015C57B3
// 047   ----------------------------------------
 BYTE   W96
// 048   ----------------------------------------
 BYTE   W96
// 049   ----------------------------------------
 BYTE   W96
// 050   ----------------------------------------
 BYTE   W96
// 051   ----------------------------------------
 BYTE   N17  Fn3  v127
 BYTE   W18
 BYTE   Gn3
 BYTE   W18
 BYTE   N23  An3
 BYTE   W24
 BYTE   N11  Fn3
 BYTE   W12
 BYTE   An3
 BYTE   W12
 BYTE   Cn4
 BYTE   W12
// 052   ----------------------------------------
 BYTE   N08  Bn3
 BYTE   W18
 BYTE   N11  Gn3
 BYTE   W18
 BYTE   Dn3
 BYTE   W12
 BYTE   Cn3
 BYTE   W48
// 053   ----------------------------------------
 BYTE   Bn3
 BYTE   W24
 BYTE   Cs4
 BYTE   W72
// 054   ----------------------------------------
 BYTE   W96
// 055   ----------------------------------------
 BYTE   An3
 BYTE   W24
 BYTE   Bn3
 BYTE   W72
// 056   ----------------------------------------
 BYTE   W96
// 057   ----------------------------------------
 BYTE   W96
// 058   ----------------------------------------
 BYTE   W96
// 059   ----------------------------------------
 BYTE   W96
// 060   ----------------------------------------
 BYTE   W96
// 061   ----------------------------------------
 BYTE   W96
// 062   ----------------------------------------
 BYTE   W96
// 063   ----------------------------------------
 BYTE   W96
// 064   ----------------------------------------
 BYTE   N17  Bn2  v068
 BYTE   N08  Bn3  v100
 BYTE   W18
 BYTE   N17  An2  v068
 BYTE   N05  An3  v100
 BYTE   W18
 BYTE   N11  Dn3  v068
 BYTE   N11  Dn4  v100
 BYTE   W24
 BYTE   N32  Dn3  v068
 BYTE   N32  Dn4  v100
 BYTE   W36
// 065   ----------------------------------------
 BYTE   N17  Cn3  v068
 BYTE   N08  Cn4  v100
 BYTE   W18
 BYTE   N17  As2  v068
 BYTE   N05  As3  v100
 BYTE   W18
 BYTE   N11  Ds3  v068
 BYTE   N11  Ds4  v100
 BYTE   W24
 BYTE   N32  Ds3  v068
 BYTE   N32  Ds4  v100
 BYTE   W36
// 066   ----------------------------------------
 BYTE   W48
 BYTE   N23  Cn3  v116
 BYTE   W24
 BYTE   N11  As2  v120
 BYTE   W12
 BYTE   Cn3
 BYTE   W12
// 067   ----------------------------------------
 BYTE   N92  Fn2
 BYTE   W48
 BYTE   N23  As3  v112
 BYTE   W24
 BYTE   N11  Gs3
 BYTE   W12
 BYTE   Gn3
 BYTE   W12
// 068   ----------------------------------------
 BYTE   N92  Fn3
 BYTE   W96
// 069   ----------------------------------------
 BYTE   W48
 BYTE   N17  Ds3
 BYTE   W18
 BYTE   Fn3
 BYTE   W18
 BYTE   N11  Gn3
 BYTE   W12
// 070   ----------------------------------------
 BYTE   N68  Fn3  v116
 BYTE   W72
 BYTE   N23  Ds3
 BYTE   W24
// 071   ----------------------------------------
 BYTE   Dn3
 BYTE   W24
 BYTE   Cn4
 BYTE   W24
 BYTE   As3
 BYTE   W48
// 072   ----------------------------------------
 BYTE   W96
// 073   ----------------------------------------
 BYTE   N08  Gs3  v120
 BYTE   W18
 BYTE   N11
 BYTE   W18
 BYTE   N56  As3
 BYTE   W60
// 074   ----------------------------------------
 BYTE   W96
// 075   ----------------------------------------
 BYTE   W48
 BYTE   N23
 BYTE   W24
 BYTE   N11  Gs3
 BYTE   W12
 BYTE   Gn3
 BYTE   W12
// 076   ----------------------------------------
 BYTE   N92  Fn3
 BYTE   W96
// 077   ----------------------------------------
 BYTE   W36
 BYTE   N11  As2
 BYTE   W12
 BYTE   N17  Ds3
 BYTE   W18
 BYTE   Fn3
 BYTE   W18
 BYTE   N11  Gn3
 BYTE   W12
// 078   ----------------------------------------
 BYTE   N23  Gs3
 BYTE   W24
 BYTE   Gn3
 BYTE   W24
 BYTE   Ds3
 BYTE   W24
 BYTE   As2
 BYTE   W24
// 079   ----------------------------------------
 BYTE   Cn3
 BYTE   N17  Dn4  v112
 BYTE   W18
 BYTE   Cn4
 BYTE   W06
 BYTE   N23  Ds3  v120
 BYTE   W12
 BYTE   N11  Dn4  v112
 BYTE   W12
 BYTE   N23  Dn3  v120
 BYTE   N44  Fn4  v112
 BYTE   W48
// 080   ----------------------------------------
 BYTE   N17  Cs3
 BYTE   W18
 BYTE   Cn3
 BYTE   W18
 BYTE   N23  As2
 BYTE   W24
 BYTE   N11  Gs2
 BYTE   W12
 BYTE   As2
 BYTE   W12
 BYTE   Cn3
 BYTE   W12
// 081   ----------------------------------------
 BYTE   N17  As2
 BYTE   W18
 BYTE   Gs2
 BYTE   W18
 BYTE   N11  As2
 BYTE   W12
 BYTE   N17  Gn2
 BYTE   W18
 BYTE   As2
 BYTE   W18
 BYTE   N11  Ds3
 BYTE   W12
// 082   ----------------------------------------
 BYTE   W24
 BYTE   N23  Gs2  v127
 BYTE   W24
 BYTE   Gs3
 BYTE   W24
 BYTE   N11  Ds3
 BYTE   W12
 BYTE   N32  Dn3
 BYTE   W12
// 083   ----------------------------------------
 BYTE   W36
 BYTE   N28  As3
 BYTE   W36
 BYTE   N11  Gs3
 BYTE   W12
 BYTE   Gn3
 BYTE   W12
// 084   ----------------------------------------
 BYTE   N44  Fn3
 BYTE   W48
 BYTE   N32  Cs3
 BYTE   W36
 BYTE   Gn3
 BYTE   W12
// 085   ----------------------------------------
 BYTE   W48
 BYTE   N05  Dn3
 BYTE   W06
 BYTE   N08
 BYTE   W18
 BYTE   N11
 BYTE   W24
// 086   ----------------------------------------
 BYTE   GoTo
  POIN2 Label_6_015C55C8
 BYTE   FINE

//**************** Track 8 (Midi-Chn.7) ****************//

SuperSmashBrosUltimateMenuMrGreen3339_008:
// 000   ----------------------------------------
 BYTE   KEYSH   SuperSmashBrosUltimateMenuMrGreen3339_key+0
 BYTE   VOICE   45
 BYTE   VOL   51*SuperSmashBrosUltimateMenuMrGreen3339_mvl/mxv
 BYTE   PAN   c_v+0
 BYTE   W24
 BYTE   N23  Cn3  v088
 BYTE   W24
 BYTE   N44  Dn3  v096
 BYTE   W48
// 001   ----------------------------------------
 BYTE   En3
 BYTE   W48
 BYTE   Fs3  v100
 BYTE   W48
// 002   ----------------------------------------
 BYTE   N92  En3
 BYTE   N92  Bn3
 BYTE   W96
// 003   ----------------------------------------
Label_7_015C5907:
 BYTE   W12
 BYTE   N11  En2  v096
 BYTE   N11  An2
 BYTE   N11  Cn3
 BYTE   W24
 BYTE   N05  En2
 BYTE   N05  An2
 BYTE   N05  Cn3
 BYTE   W24
 BYTE   N11  Fs2
 BYTE   N11  Bn2
 BYTE   N11  Dn3
 BYTE   W24
 BYTE   N05  Fs2
 BYTE   N05  Bn2
 BYTE   N05  Dn3
 BYTE   W12
 BYTE   PEND 
// 004   ----------------------------------------
Label_7_015C5926:
 BYTE   W12
 BYTE   N11  Gn2  v096
 BYTE   N11  Cn3
 BYTE   N11  En3
 BYTE   W24
 BYTE   N05  Gn2
 BYTE   N05  Cn3
 BYTE   N05  En3
 BYTE   W24
 BYTE   N11  An2
 BYTE   N11  Dn3
 BYTE   N11  Fs3
 BYTE   W24
 BYTE   N05  An2
 BYTE   N05  Dn3
 BYTE   N05  Fs3
 BYTE   W12
 BYTE   PEND 
 BYTE   PATT
  POIN2 Label_7_015C5907
// 005   ----------------------------------------
Label_7_015C594A:
 BYTE   W12
 BYTE   N11  Fn2  v096
 BYTE   N11  Cn3
 BYTE   W24
 BYTE   N05  Fn2
 BYTE   N05  Cn3
 BYTE   W12
 BYTE   N23  En2
 BYTE   N23  Bn2
 BYTE   N23  Dn3
 BYTE   W36
 BYTE   N05  En2
 BYTE   N05  Bn2
 BYTE   N05  Dn3
 BYTE   W12
 BYTE   PEND 
 BYTE   PATT
  POIN2 Label_7_015C5907
// 006   ----------------------------------------
 BYTE   W12
 BYTE   N11  Fn2  v096
 BYTE   N11  Cn3
 BYTE   N11  En3
 BYTE   W24
 BYTE   N05  Fn2
 BYTE   N05  Cn3
 BYTE   N05  En3
 BYTE   W12
 BYTE   N08  Fs2
 BYTE   N08  Bn2
 BYTE   N08  Dn3
 BYTE   W18
 BYTE   N05  Fs2
 BYTE   N05  Bn2
 BYTE   N05  Dn3
 BYTE   W18
 BYTE   Fs2
 BYTE   N05  Bn2
 BYTE   N05  Dn3
 BYTE   W12
// 007   ----------------------------------------
 BYTE   N23  En2
 BYTE   N23  An2
 BYTE   N23  Cn3
 BYTE   W36
 BYTE   N05  En2
 BYTE   N05  An2
 BYTE   N05  Cn3
 BYTE   W24
 BYTE   En2
 BYTE   N05  An2
 BYTE   N05  Cn3
 BYTE   W24
 BYTE   En2
 BYTE   N05  An2
 BYTE   N05  Cn3
 BYTE   W12
// 008   ----------------------------------------
 BYTE   Fs2
 BYTE   N05  Bn2
 BYTE   N05  Dn3
 BYTE   W06
 BYTE   N08  Fs2
 BYTE   N08  Bn2
 BYTE   N08  Dn3
 BYTE   W18
 BYTE   Fs2
 BYTE   N08  Bn2
 BYTE   N08  Dn3
 BYTE   W18
 BYTE   N05  An2
 BYTE   N05  Cn3
 BYTE   N05  En3
 BYTE   W18
 BYTE   N17  Bn2
 BYTE   N17  Dn3
 BYTE   N17  Gn3
 BYTE   W36
 BYTE   PATT
  POIN2 Label_7_015C5907
 BYTE   PATT
  POIN2 Label_7_015C5926
 BYTE   PATT
  POIN2 Label_7_015C5907
 BYTE   PATT
  POIN2 Label_7_015C594A
// 009   ----------------------------------------
 BYTE   W12
 BYTE   N05  En2  v096
 BYTE   N05  An2
 BYTE   N05  Cn3
 BYTE   W24
 BYTE   En2
 BYTE   N05  An2
 BYTE   N05  Cn3
 BYTE   W24
 BYTE   Fs2
 BYTE   N05  Bn2
 BYTE   N05  Dn3
 BYTE   W24
 BYTE   Fs2
 BYTE   N05  Bn2
 BYTE   N05  Dn3
 BYTE   W12
// 010   ----------------------------------------
 BYTE   W12
 BYTE   Fn2
 BYTE   N05  Cn3
 BYTE   N05  En3
 BYTE   W24
 BYTE   Fn2
 BYTE   N05  Cn3
 BYTE   N05  En3
 BYTE   W24
 BYTE   Fs2
 BYTE   N05  Bn2
 BYTE   N05  Dn3
 BYTE   W24
 BYTE   Fs2
 BYTE   N05  Bn2
 BYTE   N05  Dn3
 BYTE   W12
// 011   ----------------------------------------
 BYTE   W12
 BYTE   En2
 BYTE   N05  An2
 BYTE   N05  Cn3
 BYTE   W24
 BYTE   En2
 BYTE   N05  An2
 BYTE   N05  Cn3
 BYTE   W24
 BYTE   En2
 BYTE   N05  An2
 BYTE   N05  Cn3
 BYTE   W24
 BYTE   En2
 BYTE   N05  An2
 BYTE   N05  Cn3
 BYTE   W12
// 012   ----------------------------------------
 BYTE   W12
 BYTE   Gn2
 BYTE   N05  Bn2
 BYTE   N05  Dn3
 BYTE   W24
 BYTE   Gn2
 BYTE   N05  Bn2
 BYTE   N05  Dn3
 BYTE   W24
 BYTE   En2
 BYTE   N05  An2
 BYTE   N05  Cn3
 BYTE   W24
 BYTE   En2
 BYTE   N05  An2
 BYTE   N05  Cn3
 BYTE   W12
// 013   ----------------------------------------
Label_7_015C5A43:
 BYTE   W24
 BYTE   N23  An2  v088
 BYTE   W24
 BYTE   Cn3
 BYTE   W24
 BYTE   An2
 BYTE   W24
 BYTE   PEND 
// 014   ----------------------------------------
Label_7_015C5A4D:
 BYTE   N52  Bn2  v088
 BYTE   W60
 BYTE   N11  Dn3  v092
 BYTE   W12
 BYTE   Dn3  v088
 BYTE   W12
 BYTE   En3
 BYTE   W12
 BYTE   PEND 
// 015   ----------------------------------------
Label_7_015C5A5B:
 BYTE   N44  Gn3  v088
 BYTE   W48
 BYTE   N11  Dn3
 BYTE   W12
 BYTE   Bn2
 BYTE   W12
 BYTE   Gn2
 BYTE   W12
 BYTE   An2
 BYTE   W12
 BYTE   PEND 
// 016   ----------------------------------------
Label_7_015C5A69:
 BYTE   N23  Bn2  v088
 BYTE   W24
 BYTE   N32  An2  v092
 BYTE   W36
 BYTE   N11  Cn3  v127
 BYTE   W12
 BYTE   Bn2
 BYTE   W12
 BYTE   Cn3
 BYTE   W12
 BYTE   PEND 
// 017   ----------------------------------------
Label_7_015C5A7A:
 BYTE   N32  An2  v127
 BYTE   W36
 BYTE   An3
 BYTE   W36
 BYTE   N11  En3
 BYTE   W12
 BYTE   N44  Ds3
 BYTE   W12
 BYTE   PEND 
// 018   ----------------------------------------
Label_7_015C5A87:
 BYTE   W36
 BYTE   N11  Fs3  v127
 BYTE   W24
 BYTE   Cn4
 BYTE   W12
 BYTE   Bn3
 BYTE   W12
 BYTE   An3
 BYTE   W12
 BYTE   PEND 
// 019   ----------------------------------------
Label_7_015C5A93:
 BYTE   N44  An3  v127
 BYTE   W48
 BYTE   N11
 BYTE   W12
 BYTE   Gs3
 BYTE   W12
 BYTE   An3
 BYTE   W12
 BYTE   TIE  Bn3
 BYTE   W12
 BYTE   PEND 
// 020   ----------------------------------------
 BYTE   W92
 BYTE   W03
 BYTE   EOT
 BYTE   W01
// 021   ----------------------------------------
 BYTE   W96
// 022   ----------------------------------------
 BYTE   W96
// 023   ----------------------------------------
 BYTE   W96
// 024   ----------------------------------------
 BYTE   W96
// 025   ----------------------------------------
 BYTE   W96
// 026   ----------------------------------------
 BYTE   W96
// 027   ----------------------------------------
 BYTE   W96
// 028   ----------------------------------------
 BYTE   W96
// 029   ----------------------------------------
 BYTE   N92  En2  v064
 BYTE   N92  En3
 BYTE   W96
// 030   ----------------------------------------
 BYTE   An2
 BYTE   N92  An3
 BYTE   W96
// 031   ----------------------------------------
 BYTE   N44  Cn3
 BYTE   N44  Cn4
 BYTE   W48
 BYTE   Fs2
 BYTE   N44  Fs3
 BYTE   W48
// 032   ----------------------------------------
 BYTE   N92  Bn2
 BYTE   N92  Bn3
 BYTE   W96
// 033   ----------------------------------------
 BYTE   En2
 BYTE   N92  En3
 BYTE   W96
// 034   ----------------------------------------
 BYTE   An2
 BYTE   N92  An3
 BYTE   W96
// 035   ----------------------------------------
 BYTE   N08  An2
 BYTE   W18
 BYTE   N11
 BYTE   W18
 BYTE   N44  Bn2
 BYTE   W60
// 036   ----------------------------------------
 BYTE   N08  Cn3
 BYTE   W18
 BYTE   N11
 BYTE   W18
 BYTE   N56  Dn3
 BYTE   W60
// 037   ----------------------------------------
 BYTE   W96
// 038   ----------------------------------------
 BYTE   W96
// 039   ----------------------------------------
 BYTE   W24
 BYTE   N11  Bn2  v120
 BYTE   W24
 BYTE   Cs3
 BYTE   W48
// 040   ----------------------------------------
 BYTE   N08  Dn3
 BYTE   W18
 BYTE   N11
 BYTE   W18
 BYTE   N32  Cs3
 BYTE   W60
// 041   ----------------------------------------
 BYTE   W96
// 042   ----------------------------------------
 BYTE   W96
// 043   ----------------------------------------
 BYTE   N08  Dn3  v124
 BYTE   W18
 BYTE   N11
 BYTE   W18
 BYTE   Cs3
 BYTE   W36
 BYTE   N11
 BYTE   W24
// 044   ----------------------------------------
 BYTE   N08  Bn2  v112
 BYTE   N08  Dn3  v127
 BYTE   W18
 BYTE   N11  Bn2  v112
 BYTE   N11  Dn3  v127
 BYTE   W18
 BYTE   N52  An2  v112
 BYTE   N52  Dn3  v127
 BYTE   W60
// 045   ----------------------------------------
 BYTE   W96
// 046   ----------------------------------------
 BYTE   W96
// 047   ----------------------------------------
 BYTE   W96
// 048   ----------------------------------------
 BYTE   W96
// 049   ----------------------------------------
 BYTE   W96
// 050   ----------------------------------------
 BYTE   W96
// 051   ----------------------------------------
 BYTE   W96
// 052   ----------------------------------------
 BYTE   W96
 BYTE   PATT
  POIN2 Label_7_015C5A43
 BYTE   PATT
  POIN2 Label_7_015C5A4D
 BYTE   PATT
  POIN2 Label_7_015C5A5B
 BYTE   PATT
  POIN2 Label_7_015C5A69
 BYTE   PATT
  POIN2 Label_7_015C5A7A
 BYTE   PATT
  POIN2 Label_7_015C5A87
 BYTE   PATT
  POIN2 Label_7_015C5A93
// 053   ----------------------------------------
 BYTE   W92
 BYTE   W03
 BYTE   EOT
 BYTE   Bn3
 BYTE   W01
// 054   ----------------------------------------
 BYTE   W96
// 055   ----------------------------------------
 BYTE   W96
// 056   ----------------------------------------
 BYTE   W96
// 057   ----------------------------------------
 BYTE   W96
// 058   ----------------------------------------
 BYTE   W96
// 059   ----------------------------------------
 BYTE   W96
// 060   ----------------------------------------
 BYTE   W96
// 061   ----------------------------------------
 BYTE   W96
// 062   ----------------------------------------
 BYTE   W96
// 063   ----------------------------------------
 BYTE   N92  Fn2  v064
 BYTE   N92  Fn3
 BYTE   W96
// 064   ----------------------------------------
 BYTE   As2
 BYTE   N92  As3
 BYTE   W96
// 065   ----------------------------------------
 BYTE   N44  Cs3
 BYTE   N44  Cs4
 BYTE   W48
 BYTE   Gn2
 BYTE   N44  Gn3
 BYTE   W48
// 066   ----------------------------------------
 BYTE   N92  Cn3
 BYTE   N92  Cn4
 BYTE   W96
// 067   ----------------------------------------
 BYTE   Fn2
 BYTE   N92  Fn3
 BYTE   W96
// 068   ----------------------------------------
 BYTE   As2
 BYTE   N92  As3
 BYTE   W96
// 069   ----------------------------------------
 BYTE   N08  As2
 BYTE   N08  As3
 BYTE   W18
 BYTE   N11  As2
 BYTE   N11  As3
 BYTE   W18
 BYTE   N44  Cn3
 BYTE   N44  Cn4
 BYTE   W60
// 070   ----------------------------------------
 BYTE   N08  Cs3
 BYTE   N08  Cs4
 BYTE   W18
 BYTE   N11  Cs3
 BYTE   N11  Cs4
 BYTE   W18
 BYTE   N56  Ds3
 BYTE   N56  Ds4
 BYTE   W60
// 071   ----------------------------------------
 BYTE   W96
// 072   ----------------------------------------
 BYTE   W96
// 073   ----------------------------------------
 BYTE   W96
// 074   ----------------------------------------
 BYTE   W96
// 075   ----------------------------------------
 BYTE   GoTo
  POIN2 Label_7_015C5907
 BYTE   FINE

//**************** Track 9 (Midi-Chn.8) ****************//

SuperSmashBrosUltimateMenuMrGreen3339_009:
// 000   ----------------------------------------
 BYTE   KEYSH   SuperSmashBrosUltimateMenuMrGreen3339_key+0
 BYTE   VOICE   56
 BYTE   VOL   51*SuperSmashBrosUltimateMenuMrGreen3339_mvl/mxv
 BYTE   PAN   c_v+0
 BYTE   W96
// 001   ----------------------------------------
 BYTE   W96
// 002   ----------------------------------------
 BYTE   W96
// 003   ----------------------------------------
Label_8_015C5B9B:
 BYTE   W12
 BYTE   N11  En2  v088
 BYTE   N11  An2
 BYTE   N11  Cn3
 BYTE   W24
 BYTE   N05  En2
 BYTE   N05  An2
 BYTE   N05  Cn3
 BYTE   W24
 BYTE   N11  Fs2
 BYTE   N11  Bn2
 BYTE   N11  Dn3
 BYTE   W24
 BYTE   N05  Fs2
 BYTE   N05  Bn2
 BYTE   N05  Dn3
 BYTE   W12
 BYTE   PEND 
// 004   ----------------------------------------
Label_8_015C5BBA:
 BYTE   W12
 BYTE   N11  Gn2  v088
 BYTE   N11  Cn3
 BYTE   N11  En3
 BYTE   W24
 BYTE   N05  Gn2
 BYTE   N05  Cn3
 BYTE   N05  En3
 BYTE   W24
 BYTE   N11  An2
 BYTE   N11  Dn3
 BYTE   N11  Fs3
 BYTE   W24
 BYTE   N05  An2
 BYTE   N05  Dn3
 BYTE   N05  Fs3
 BYTE   W12
 BYTE   PEND 
 BYTE   PATT
  POIN2 Label_8_015C5B9B
// 005   ----------------------------------------
 BYTE   W12
 BYTE   N11  Fn2  v088
 BYTE   N11  Cn3
 BYTE   W24
 BYTE   N05  Fn2
 BYTE   N05  Cn3
 BYTE   W12
 BYTE   N23  En2
 BYTE   N23  Bn2
 BYTE   N23  Dn3
 BYTE   W48
 BYTE   PATT
  POIN2 Label_8_015C5B9B
// 006   ----------------------------------------
 BYTE   W12
 BYTE   N11  Fn2  v088
 BYTE   N11  Cn3
 BYTE   N11  En3
 BYTE   W24
 BYTE   N05  Fn2
 BYTE   N05  Cn3
 BYTE   N05  En3
 BYTE   W12
 BYTE   N08  Fs2
 BYTE   N08  Bn2
 BYTE   N08  Dn3
 BYTE   W18
 BYTE   N05  Fs2
 BYTE   N05  Bn2
 BYTE   N05  Dn3
 BYTE   W18
 BYTE   Fs2
 BYTE   N05  Bn2
 BYTE   N05  Dn3
 BYTE   W12
// 007   ----------------------------------------
 BYTE   N23  En2
 BYTE   N23  An2
 BYTE   N23  Cn3
 BYTE   W36
 BYTE   N05  En2
 BYTE   N05  An2
 BYTE   N05  Cn3
 BYTE   W24
 BYTE   En2
 BYTE   N05  An2
 BYTE   N05  Cn3
 BYTE   W24
 BYTE   En2
 BYTE   N05  An2
 BYTE   N05  Cn3
 BYTE   W12
// 008   ----------------------------------------
 BYTE   Fs2  v092
 BYTE   N05  Bn2
 BYTE   N05  Dn3
 BYTE   W06
 BYTE   N08  Fs2
 BYTE   N08  Bn2
 BYTE   N08  Dn3
 BYTE   W18
 BYTE   Fs2
 BYTE   N08  Bn2
 BYTE   N08  Dn3
 BYTE   W18
 BYTE   N05  An2
 BYTE   N05  Cn3
 BYTE   N05  En3
 BYTE   W18
 BYTE   N17  Bn2
 BYTE   N17  Dn3
 BYTE   W36
 BYTE   PATT
  POIN2 Label_8_015C5B9B
 BYTE   PATT
  POIN2 Label_8_015C5BBA
 BYTE   PATT
  POIN2 Label_8_015C5B9B
// 009   ----------------------------------------
 BYTE   W12
 BYTE   N11  Fn2  v088
 BYTE   N11  Cn3
 BYTE   W24
 BYTE   N05  Fn2
 BYTE   N05  Cn3
 BYTE   W12
 BYTE   N23  En2
 BYTE   N23  Bn2
 BYTE   N23  Dn3
 BYTE   W36
 BYTE   N05  En2
 BYTE   N05  Bn2
 BYTE   N05  Dn3
 BYTE   W12
// 010   ----------------------------------------
 BYTE   W12
 BYTE   En2
 BYTE   N05  An2
 BYTE   N05  Cn3
 BYTE   W24
 BYTE   En2
 BYTE   N05  An2
 BYTE   N05  Cn3
 BYTE   W24
 BYTE   Fs2
 BYTE   N05  Bn2
 BYTE   N05  Dn3
 BYTE   W24
 BYTE   Fs2
 BYTE   N05  Bn2
 BYTE   N05  Dn3
 BYTE   W12
// 011   ----------------------------------------
 BYTE   W12
 BYTE   Fn2
 BYTE   N05  Cn3
 BYTE   N05  En3
 BYTE   W24
 BYTE   Fn2
 BYTE   N05  Cn3
 BYTE   N05  En3
 BYTE   W24
 BYTE   Fs2
 BYTE   N05  Bn2
 BYTE   N05  Dn3
 BYTE   W24
 BYTE   Fs2
 BYTE   N05  Bn2
 BYTE   N05  Dn3
 BYTE   W12
// 012   ----------------------------------------
 BYTE   W12
 BYTE   En2
 BYTE   N05  An2
 BYTE   N05  Cn3
 BYTE   W24
 BYTE   En2
 BYTE   N05  An2
 BYTE   N05  Cn3
 BYTE   W24
 BYTE   En2
 BYTE   N05  An2
 BYTE   N05  Cn3
 BYTE   W24
 BYTE   En2
 BYTE   N05  An2
 BYTE   N05  Cn3
 BYTE   W12
// 013   ----------------------------------------
 BYTE   W12
 BYTE   Gn2
 BYTE   N05  Bn2
 BYTE   N05  Dn3
 BYTE   W24
 BYTE   Gn2
 BYTE   N05  Bn2
 BYTE   N05  Dn3
 BYTE   W24
 BYTE   En2
 BYTE   N05  An2
 BYTE   N05  Cn3
 BYTE   W24
 BYTE   En2
 BYTE   N05  An2
 BYTE   N05  Cn3
 BYTE   W12
// 014   ----------------------------------------
 BYTE   W96
// 015   ----------------------------------------
 BYTE   W96
// 016   ----------------------------------------
 BYTE   W96
// 017   ----------------------------------------
 BYTE   W96
// 018   ----------------------------------------
 BYTE   W96
// 019   ----------------------------------------
 BYTE   W96
// 020   ----------------------------------------
 BYTE   W96
// 021   ----------------------------------------
 BYTE   W96
// 022   ----------------------------------------
 BYTE   W96
// 023   ----------------------------------------
 BYTE   W96
// 024   ----------------------------------------
 BYTE   W96
// 025   ----------------------------------------
 BYTE   W96
// 026   ----------------------------------------
 BYTE   W96
// 027   ----------------------------------------
 BYTE   W96
// 028   ----------------------------------------
 BYTE   W96
// 029   ----------------------------------------
 BYTE   W96
// 030   ----------------------------------------
 BYTE   W96
// 031   ----------------------------------------
 BYTE   W96
// 032   ----------------------------------------
 BYTE   W96
// 033   ----------------------------------------
 BYTE   W96
// 034   ----------------------------------------
 BYTE   W96
// 035   ----------------------------------------
 BYTE   W96
// 036   ----------------------------------------
 BYTE   W96
// 037   ----------------------------------------
 BYTE   W96
// 038   ----------------------------------------
 BYTE   W96
// 039   ----------------------------------------
 BYTE   W96
// 040   ----------------------------------------
 BYTE   W96
// 041   ----------------------------------------
 BYTE   W96
// 042   ----------------------------------------
 BYTE   W96
// 043   ----------------------------------------
 BYTE   W96
// 044   ----------------------------------------
 BYTE   W96
// 045   ----------------------------------------
 BYTE   W96
// 046   ----------------------------------------
 BYTE   W96
// 047   ----------------------------------------
 BYTE   W96
// 048   ----------------------------------------
 BYTE   W96
// 049   ----------------------------------------
 BYTE   W96
// 050   ----------------------------------------
 BYTE   W96
// 051   ----------------------------------------
 BYTE   W96
// 052   ----------------------------------------
 BYTE   W96
// 053   ----------------------------------------
 BYTE   W96
// 054   ----------------------------------------
 BYTE   W96
// 055   ----------------------------------------
 BYTE   W96
// 056   ----------------------------------------
 BYTE   W96
// 057   ----------------------------------------
 BYTE   W96
// 058   ----------------------------------------
 BYTE   W96
// 059   ----------------------------------------
 BYTE   W96
// 060   ----------------------------------------
 BYTE   W96
// 061   ----------------------------------------
 BYTE   W96
// 062   ----------------------------------------
 BYTE   W96
// 063   ----------------------------------------
 BYTE   W96
// 064   ----------------------------------------
 BYTE   W96
// 065   ----------------------------------------
 BYTE   W96
// 066   ----------------------------------------
 BYTE   W96
// 067   ----------------------------------------
 BYTE   W96
// 068   ----------------------------------------
 BYTE   W96
// 069   ----------------------------------------
 BYTE   W96
// 070   ----------------------------------------
 BYTE   W96
// 071   ----------------------------------------
 BYTE   W96
// 072   ----------------------------------------
 BYTE   W96
// 073   ----------------------------------------
 BYTE   W96
// 074   ----------------------------------------
 BYTE   W96
// 075   ----------------------------------------
 BYTE   W96
// 076   ----------------------------------------
 BYTE   W96
// 077   ----------------------------------------
 BYTE   W96
// 078   ----------------------------------------
 BYTE   W96
// 079   ----------------------------------------
 BYTE   W96
// 080   ----------------------------------------
 BYTE   W96
// 081   ----------------------------------------
 BYTE   W96
// 082   ----------------------------------------
 BYTE   W96
// 083   ----------------------------------------
 BYTE   GoTo
  POIN2 Label_8_015C5B9B
 BYTE   FINE

//**************** Track 10 (Midi-Chn.9) ****************//

SuperSmashBrosUltimateMenuMrGreen3339_010:
// 000   ----------------------------------------
 BYTE   KEYSH   SuperSmashBrosUltimateMenuMrGreen3339_key+0
 BYTE   VOICE   42
 BYTE   VOL   51*SuperSmashBrosUltimateMenuMrGreen3339_mvl/mxv
 BYTE   PAN   c_v+0
 BYTE   W96
// 001   ----------------------------------------
 BYTE   W96
// 002   ----------------------------------------
 BYTE   W96
// 003   ----------------------------------------
Label_9_015C5D37:
 BYTE   W96
// 004   ----------------------------------------
 BYTE   W96
// 005   ----------------------------------------
 BYTE   W96
// 006   ----------------------------------------
 BYTE   W96
// 007   ----------------------------------------
 BYTE   W96
// 008   ----------------------------------------
 BYTE   W96
// 009   ----------------------------------------
 BYTE   W96
// 010   ----------------------------------------
 BYTE   W96
// 011   ----------------------------------------
 BYTE   W96
// 012   ----------------------------------------
 BYTE   W96
// 013   ----------------------------------------
 BYTE   W96
// 014   ----------------------------------------
 BYTE   W96
// 015   ----------------------------------------
 BYTE   W96
// 016   ----------------------------------------
 BYTE   W96
// 017   ----------------------------------------
 BYTE   W96
// 018   ----------------------------------------
 BYTE   W96
// 019   ----------------------------------------
 BYTE   W24
 BYTE   N23  En2  v108
 BYTE   W24
 BYTE   An2  v116
 BYTE   W24
 BYTE   En2  v120
 BYTE   W24
// 020   ----------------------------------------
 BYTE   N56  Dn2  v124
 BYTE   N56  Bn2  v092
 BYTE   W60
 BYTE   W03
 BYTE   N08  Bn1  v100
 BYTE   N08  Dn2  v124
 BYTE   W17
 BYTE   N15  Cn2  v108
 BYTE   N15  En2  v124
 BYTE   W16
// 021   ----------------------------------------
 BYTE   N68
 BYTE   N68  Gn2
 BYTE   W48
 BYTE   N23  Bn2  v120
 BYTE   W12
 BYTE   N11  Dn2  v124
 BYTE   W12
 BYTE   N23  En2  v116
 BYTE   N23  Cn3
 BYTE   W24
// 022   ----------------------------------------
 BYTE   Gn2  v112
 BYTE   N23  Bn2
 BYTE   W24
 BYTE   N44  Cn2  v108
 BYTE   N44  En2
 BYTE   W48
 BYTE   N23  Dn2  v104
 BYTE   W24
// 023   ----------------------------------------
 BYTE   N68  En2  v108
 BYTE   W72
 BYTE   N11  An2  v104
 BYTE   W12
 BYTE   N80  Bn2  v112
 BYTE   W12
// 024   ----------------------------------------
 BYTE   W72
 BYTE   N23  Ds2  v104
 BYTE   W24
// 025   ----------------------------------------
 BYTE   N80  Fs2
 BYTE   W84
 BYTE   TIE  Bn2
 BYTE   W12
// 026   ----------------------------------------
 BYTE   W92
 BYTE   W03
 BYTE   EOT
 BYTE   W01
// 027   ----------------------------------------
 BYTE   W48
 BYTE   N23  Dn2  v112
 BYTE   W24
 BYTE   Fs2
 BYTE   W24
// 028   ----------------------------------------
 BYTE   N92  En2
 BYTE   W96
// 029   ----------------------------------------
 BYTE   N68
 BYTE   W96
// 030   ----------------------------------------
 BYTE   N23  Fs2
 BYTE   W24
 BYTE   En2
 BYTE   W24
 BYTE   Dn2  v108
 BYTE   W24
 BYTE   Fs2
 BYTE   W24
// 031   ----------------------------------------
 BYTE   En2
 BYTE   W24
 BYTE   N23
 BYTE   W24
 BYTE   Gn2
 BYTE   W24
 BYTE   Bn2
 BYTE   W24
// 032   ----------------------------------------
 BYTE   N44  An2  v104
 BYTE   W48
 BYTE   En2
 BYTE   W48
// 033   ----------------------------------------
 BYTE   N23  En2  v108
 BYTE   W36
 BYTE   N44  Fs2
 BYTE   W60
// 034   ----------------------------------------
 BYTE   N32  Gn2
 BYTE   W36
 BYTE   N44  An2
 BYTE   W60
// 035   ----------------------------------------
Label_9_015C5DD5:
 BYTE   N92  En1  v127
 BYTE   N92  En2  v108
 BYTE   W96
 BYTE   PEND 
// 036   ----------------------------------------
Label_9_015C5DDD:
 BYTE   N92  An1  v127
 BYTE   N92  An2  v108
 BYTE   W96
 BYTE   PEND 
// 037   ----------------------------------------
 BYTE   N44  Cn2  v127
 BYTE   N44  Cn3  v108
 BYTE   W48
 BYTE   Fs1  v127
 BYTE   N44  Fs2  v108
 BYTE   W48
// 038   ----------------------------------------
 BYTE   N92  Bn1  v127
 BYTE   N92  Bn2  v108
 BYTE   W96
 BYTE   PATT
  POIN2 Label_9_015C5DD5
 BYTE   PATT
  POIN2 Label_9_015C5DDD
// 039   ----------------------------------------
 BYTE   N08  An1  v127
 BYTE   W18
 BYTE   N11
 BYTE   W18
 BYTE   N44  Bn1
 BYTE   W60
// 040   ----------------------------------------
 BYTE   N08  Cn2
 BYTE   W18
 BYTE   N11
 BYTE   W18
 BYTE   N56  Dn2
 BYTE   W60
// 041   ----------------------------------------
 BYTE   N44  En2
 BYTE   W48
 BYTE   An2
 BYTE   W48
// 042   ----------------------------------------
 BYTE   En3
 BYTE   W48
 BYTE   Dn3
 BYTE   W48
// 043   ----------------------------------------
 BYTE   W24
 BYTE   N11  Bn2  v108
 BYTE   W24
 BYTE   Cs3
 BYTE   W48
// 044   ----------------------------------------
 BYTE   N08  Dn3
 BYTE   W18
 BYTE   N11
 BYTE   W18
 BYTE   N32  Cs3
 BYTE   W60
// 045   ----------------------------------------
Label_9_015C5E2C:
 BYTE   W24
 BYTE   N23  En2  v127
 BYTE   W24
 BYTE   An2
 BYTE   W24
 BYTE   En2
 BYTE   W24
 BYTE   PEND 
// 046   ----------------------------------------
 BYTE   N32  En3
 BYTE   W36
 BYTE   Dn3
 BYTE   W36
 BYTE   N23  Cs3
 BYTE   W24
// 047   ----------------------------------------
 BYTE   N08  Bn2  v112
 BYTE   W18
 BYTE   N11
 BYTE   W18
 BYTE   An2
 BYTE   W36
 BYTE   N11
 BYTE   W24
// 048   ----------------------------------------
 BYTE   N08  Bn2
 BYTE   W18
 BYTE   N11
 BYTE   W18
 BYTE   N52  An2
 BYTE   W60
// 049   ----------------------------------------
 BYTE   N92  Gn2  v100
 BYTE   N92  Bn2
 BYTE   W96
// 050   ----------------------------------------
 BYTE   Fs2
 BYTE   N92  An2
 BYTE   W96
// 051   ----------------------------------------
 BYTE   N17  Fn2  v127
 BYTE   W18
 BYTE   Gn2
 BYTE   W18
 BYTE   N23  An2
 BYTE   W24
 BYTE   N11  Fn2
 BYTE   W12
 BYTE   An2
 BYTE   W12
 BYTE   Cn3
 BYTE   W12
// 052   ----------------------------------------
 BYTE   N08  Bn2
 BYTE   W18
 BYTE   N11  Gn2
 BYTE   W18
 BYTE   Dn2
 BYTE   W12
 BYTE   Cn2
 BYTE   W48
// 053   ----------------------------------------
 BYTE   N23  En2
 BYTE   W24
 BYTE   An2
 BYTE   W24
 BYTE   En3
 BYTE   W24
 BYTE   Dn3
 BYTE   W24
// 054   ----------------------------------------
 BYTE   Cs3
 BYTE   W24
 BYTE   An2
 BYTE   W24
 BYTE   En2
 BYTE   W24
 BYTE   Dn2
 BYTE   W24
// 055   ----------------------------------------
 BYTE   W24
 BYTE   Fs2
 BYTE   W24
 BYTE   Bn2
 BYTE   W24
 BYTE   En3
 BYTE   W24
// 056   ----------------------------------------
 BYTE   Ds3
 BYTE   W24
 BYTE   Fs3
 BYTE   W72
 BYTE   PATT
  POIN2 Label_9_015C5E2C
// 057   ----------------------------------------
 BYTE   N56  Dn2  v127
 BYTE   N56  Bn2  v096
 BYTE   W60
 BYTE   W03
 BYTE   N08  Bn1  v104
 BYTE   N08  Dn2  v127
 BYTE   W17
 BYTE   N15  Cn2  v112
 BYTE   N15  En2  v127
 BYTE   W16
// 058   ----------------------------------------
 BYTE   N68
 BYTE   N68  Gn2
 BYTE   W48
 BYTE   N23  Bn2
 BYTE   W12
 BYTE   N11  Dn2
 BYTE   W12
 BYTE   N23  En2
 BYTE   N23  Cn3
 BYTE   W24
// 059   ----------------------------------------
 BYTE   Gn2
 BYTE   N23  Bn2
 BYTE   W24
 BYTE   N44  Cn2  v108
 BYTE   N44  En2
 BYTE   W48
 BYTE   N23  Dn2  v104
 BYTE   N23  Dn3
 BYTE   W24
// 060   ----------------------------------------
 BYTE   N68  En2  v108
 BYTE   N68  En3
 BYTE   W72
 BYTE   N11  An3  v104
 BYTE   W12
 BYTE   N56  Bn3  v112
 BYTE   W12
// 061   ----------------------------------------
 BYTE   N44  Fs2  v104
 BYTE   W48
 BYTE   N23  Ds2  v127
 BYTE   W24
 BYTE   Fs2
 BYTE   W24
// 062   ----------------------------------------
 BYTE   N68
 BYTE   N68  An2
 BYTE   W84
 BYTE   TIE  Fs2
 BYTE   TIE  Bn2
 BYTE   W12
// 063   ----------------------------------------
 BYTE   W92
 BYTE   W03
 BYTE   EOT
 BYTE   Fs2  v059
 BYTE   W01
// 064   ----------------------------------------
 BYTE   N17  Fn2
 BYTE   W18
 BYTE   Ds2
 BYTE   W18
 BYTE   N11  Gs2
 BYTE   W24
 BYTE   N17
 BYTE   W36
// 065   ----------------------------------------
 BYTE   N92  Fn2
 BYTE   W96
// 066   ----------------------------------------
 BYTE   As1
 BYTE   W96
// 067   ----------------------------------------
Label_9_015C5F00:
 BYTE   N44  Cs2  v127
 BYTE   W48
 BYTE   Gn1
 BYTE   W48
 BYTE   PEND 
// 068   ----------------------------------------
 BYTE   Cn2
 BYTE   W48
 BYTE   En2
 BYTE   W48
// 069   ----------------------------------------
 BYTE   N92  Fn1
 BYTE   W96
// 070   ----------------------------------------
 BYTE   As1
 BYTE   W96
// 071   ----------------------------------------
Label_9_015C5F10:
 BYTE   N08  As1  v127
 BYTE   W18
 BYTE   N11
 BYTE   W18
 BYTE   N44  Cn2
 BYTE   W60
 BYTE   PEND 
// 072   ----------------------------------------
Label_9_015C5F1A:
 BYTE   N08  Cs2  v127
 BYTE   W18
 BYTE   N11
 BYTE   W18
 BYTE   N56  Ds2
 BYTE   W60
 BYTE   PEND 
// 073   ----------------------------------------
 BYTE   N92  Fn1
 BYTE   W96
// 074   ----------------------------------------
 BYTE   As1
 BYTE   W96
 BYTE   PATT
  POIN2 Label_9_015C5F00
// 075   ----------------------------------------
 BYTE   N92  Cn2  v127
 BYTE   W96
// 076   ----------------------------------------
 BYTE   Fn1
 BYTE   W96
// 077   ----------------------------------------
 BYTE   As1
 BYTE   W96
 BYTE   PATT
  POIN2 Label_9_015C5F10
 BYTE   PATT
  POIN2 Label_9_015C5F1A
// 078   ----------------------------------------
 BYTE   N92  Cs2  v127
 BYTE   W96
// 079   ----------------------------------------
 BYTE   W24
 BYTE   N44  As1
 BYTE   W72
// 080   ----------------------------------------
 BYTE   Cs2
 BYTE   W84
 BYTE   N56  Cn2
 BYTE   W12
// 081   ----------------------------------------
 BYTE   W96
// 082   ----------------------------------------
 BYTE   GoTo
  POIN2 Label_9_015C5D37
 BYTE   FINE

//******************************************************//
	ALIGN 4

SuperSmashBrosUltimateMenuMrGreen3339:
	BYTE	10	// NumTrks
	BYTE	0	// NumBlks
	BYTE	SuperSmashBrosUltimateMenuMrGreen3339_pri	// Priority
	BYTE	SuperSmashBrosUltimateMenuMrGreen3339_rev	// Reverb.
    
	POIN2	SuperSmashBrosUltimateMenuMrGreen3339_grp
    
	POIN2	SuperSmashBrosUltimateMenuMrGreen3339_001
	POIN2	SuperSmashBrosUltimateMenuMrGreen3339_002
	POIN2	SuperSmashBrosUltimateMenuMrGreen3339_003
	POIN2	SuperSmashBrosUltimateMenuMrGreen3339_004
	POIN2	SuperSmashBrosUltimateMenuMrGreen3339_005
	POIN2	SuperSmashBrosUltimateMenuMrGreen3339_006
	POIN2	SuperSmashBrosUltimateMenuMrGreen3339_007
	POIN2	SuperSmashBrosUltimateMenuMrGreen3339_008
	POIN2	SuperSmashBrosUltimateMenuMrGreen3339_009
	POIN2	SuperSmashBrosUltimateMenuMrGreen3339_010

	
