//Event file generated from Sappy .s format.
	#include "MPlayDef.event"

	#define	SuperMario3DLandAirshipMeteorSR23_grp  voicegroup000
	#define	SuperMario3DLandAirshipMeteorSR23_pri  0
	#define	SuperMario3DLandAirshipMeteorSR23_rev  0
	#define	SuperMario3DLandAirshipMeteorSR23_mvl  127
	#define	SuperMario3DLandAirshipMeteorSR23_key  0
	#define	SuperMario3DLandAirshipMeteorSR23_tbs  1
	#define	SuperMario3DLandAirshipMeteorSR23_exg  0
	#define	SuperMario3DLandAirshipMeteorSR23_cmp  1

	// .rodata
	//	SuperMario3DLandAirshipMeteorSR23
	ALIGN 4


//**************** Track 1 (Midi-Chn.0) ****************//

SuperMario3DLandAirshipMeteorSR23_001:
//  #01 //000   ----------------------------------------
 BYTE   VOL   75*SuperMario3DLandAirshipMeteorSR23_mvl/mxv
 BYTE   KEYSH   SuperMario3DLandAirshipMeteorSR23_key+0
Label_545668:
 BYTE   TEMPO   120*SuperMario3DLandAirshipMeteorSR23_tbs/2
 BYTE   VOICE   47
 BYTE   MODT 0
 BYTE   LFOS 44
 BYTE   PAN   c_v+31
 BYTE   N24  Gn1  v044
 BYTE   N24  Gn2
 BYTE   W24
 BYTE   Gn1
 BYTE   N24  Gn2
 BYTE   W24
 BYTE   N08  Gn1
 BYTE   N08  Gn2
 BYTE   W08
 BYTE   Gn1
 BYTE   N08  Gn2
 BYTE   W08
 BYTE   Gn1
 BYTE   N08  Gn2
 BYTE   W08
 BYTE   N24  Gn1
 BYTE   N24  Gn2
 BYTE   W24
//  #01 //001   ----------------------------------------
Label_54568E:
 BYTE   N24  Gn1  v044
 BYTE   N24  Gn2
 BYTE   W24
 BYTE   N08  Gn1
 BYTE   N08  Gn2
 BYTE   W08
 BYTE   Gn1
 BYTE   N08  Gn2
 BYTE   W08
 BYTE   Gn1
 BYTE   N08  Gn2
 BYTE   W08
 BYTE   N12  Gn1
 BYTE   N12  Gn2
 BYTE   W12
 BYTE   Gn1
 BYTE   N12  Gn2
 BYTE   W12
 BYTE   N24  Gn1
 BYTE   N24  Gn2
 BYTE   W24
 BYTE   PEND 
//  #01 //002   ----------------------------------------
Label_5456B0:
 BYTE   N24  Gn1  v044
 BYTE   N24  Gn2
 BYTE   W24
 BYTE   Gn1
 BYTE   N24  Gn2
 BYTE   W24
 BYTE   N08  Gn1
 BYTE   N08  Gn2
 BYTE   W08
 BYTE   Gn1
 BYTE   N08  Gn2
 BYTE   W08
 BYTE   Gn1
 BYTE   N08  Gn2
 BYTE   W08
 BYTE   N24  Gn1
 BYTE   N24  Gn2
 BYTE   W24
 BYTE   PEND 
//  #01 //003   ----------------------------------------
 BYTE   PATT
  POIN2 Label_54568E
//  #01 //004   ----------------------------------------
 BYTE   PATT
  POIN2 Label_5456B0
//  #01 //005   ----------------------------------------
 BYTE   PATT
  POIN2 Label_54568E
//  #01 //006   ----------------------------------------
 BYTE   PATT
  POIN2 Label_5456B0
//  #01 //007   ----------------------------------------
 BYTE   PATT
  POIN2 Label_54568E
//  #01 //008   ----------------------------------------
 BYTE   PATT
  POIN2 Label_5456B0
//  #01 //009   ----------------------------------------
 BYTE   PATT
  POIN2 Label_54568E
//  #01 //010   ----------------------------------------
 BYTE   PATT
  POIN2 Label_5456B0
//  #01 //011   ----------------------------------------
 BYTE   PATT
  POIN2 Label_54568E
//  #01 //012   ----------------------------------------
 BYTE   PATT
  POIN2 Label_5456B0
//  #01 //013   ----------------------------------------
 BYTE   PATT
  POIN2 Label_54568E
//  #01 //014   ----------------------------------------
 BYTE   PATT
  POIN2 Label_5456B0
//  #01 //015   ----------------------------------------
 BYTE   PATT
  POIN2 Label_54568E
//  #01 //016   ----------------------------------------
 BYTE   PATT
  POIN2 Label_5456B0
//  #01 //017   ----------------------------------------
 BYTE   PATT
  POIN2 Label_54568E
//  #01 //018   ----------------------------------------
 BYTE   PATT
  POIN2 Label_5456B0
//  #01 //019   ----------------------------------------
 BYTE   PATT
  POIN2 Label_54568E
//  #01 //020   ----------------------------------------
 BYTE   PATT
  POIN2 Label_5456B0
//  #01 //021   ----------------------------------------
 BYTE   PATT
  POIN2 Label_54568E
//  #01 //022   ----------------------------------------
 BYTE   PATT
  POIN2 Label_5456B0
//  #01 //023   ----------------------------------------
 BYTE   PATT
  POIN2 Label_54568E
//  #01 //024   ----------------------------------------
 BYTE   PATT
  POIN2 Label_5456B0
//  #01 //025   ----------------------------------------
 BYTE   PATT
  POIN2 Label_54568E
//  #01 //026   ----------------------------------------
 BYTE   PATT
  POIN2 Label_5456B0
//  #01 //027   ----------------------------------------
 BYTE   PATT
  POIN2 Label_54568E
//  #01 //028   ----------------------------------------
 BYTE   PATT
  POIN2 Label_5456B0
//  #01 //029   ----------------------------------------
 BYTE   PATT
  POIN2 Label_54568E
//  #01 //030   ----------------------------------------
 BYTE   PATT
  POIN2 Label_5456B0
//  #01 //031   ----------------------------------------
 BYTE   PATT
  POIN2 Label_54568E
//  #01 //032   ----------------------------------------
 BYTE   GoTo
  POIN2 Label_545668
 BYTE   FINE

//**************** Track 2 (Midi-Chn.1) ****************//

SuperMario3DLandAirshipMeteorSR23_002:
//  #02 //000   ----------------------------------------
 BYTE   VOL   70*SuperMario3DLandAirshipMeteorSR23_mvl/mxv
 BYTE   KEYSH   SuperMario3DLandAirshipMeteorSR23_key+0
Label_545770:
 BYTE   VOICE   127
 BYTE   MODT 0
 BYTE   LFOS 44
 BYTE   PAN   c_v-10
 BYTE   W96
//  #02 //001   ----------------------------------------
 BYTE   W96
//  #02 //002   ----------------------------------------
 BYTE   W96
//  #02 //003   ----------------------------------------
 BYTE   W96
//  #02 //004   ----------------------------------------
 BYTE   W96
//  #02 //005   ----------------------------------------
 BYTE   W96
//  #02 //006   ----------------------------------------
 BYTE   W96
//  #02 //007   ----------------------------------------
 BYTE   W96
//  #02 //008   ----------------------------------------
 BYTE   W96
//  #02 //009   ----------------------------------------
 BYTE   W96
//  #02 //010   ----------------------------------------
 BYTE   W96
//  #02 //011   ----------------------------------------
 BYTE   W96
//  #02 //012   ----------------------------------------
 BYTE   W96
//  #02 //013   ----------------------------------------
 BYTE   W96
//  #02 //014   ----------------------------------------
Label_545786:
 BYTE   N24  Dn1  v044
 BYTE   W24
 BYTE   N24
 BYTE   W24
 BYTE   N24
 BYTE   W24
 BYTE   N24
 BYTE   W24
 BYTE   PEND 
//  #02 //015   ----------------------------------------
Label_545791:
 BYTE   N24  Dn1  v044
 BYTE   W24
 BYTE   N24
 BYTE   W24
 BYTE   N24
 BYTE   W24
 BYTE   N24
 BYTE   N24  Ds1
 BYTE   W24
 BYTE   PEND 
//  #02 //016   ----------------------------------------
 BYTE   PATT
  POIN2 Label_545786
//  #02 //017   ----------------------------------------
 BYTE   PATT
  POIN2 Label_545791
//  #02 //018   ----------------------------------------
 BYTE   PATT
  POIN2 Label_545786
//  #02 //019   ----------------------------------------
 BYTE   PATT
  POIN2 Label_545791
//  #02 //020   ----------------------------------------
 BYTE   PATT
  POIN2 Label_545786
//  #02 //021   ----------------------------------------
 BYTE   PATT
  POIN2 Label_545791
//  #02 //022   ----------------------------------------
 BYTE   PATT
  POIN2 Label_545786
//  #02 //023   ----------------------------------------
 BYTE   PATT
  POIN2 Label_545791
//  #02 //024   ----------------------------------------
 BYTE   PATT
  POIN2 Label_545786
//  #02 //025   ----------------------------------------
 BYTE   PATT
  POIN2 Label_545786
//  #02 //026   ----------------------------------------
 BYTE   PATT
  POIN2 Label_545786
//  #02 //027   ----------------------------------------
 BYTE   PATT
  POIN2 Label_545786
//  #02 //028   ----------------------------------------
 BYTE   PATT
  POIN2 Label_545786
//  #02 //029   ----------------------------------------
 BYTE   PATT
  POIN2 Label_545786
//  #02 //030   ----------------------------------------
 BYTE   PATT
  POIN2 Label_545786
//  #02 //031   ----------------------------------------
 BYTE   PATT
  POIN2 Label_545786
//  #02 //032   ----------------------------------------
 BYTE   GoTo
  POIN2 Label_545770
 BYTE   FINE

//**************** Track 3 (Midi-Chn.2) ****************//

SuperMario3DLandAirshipMeteorSR23_003:
//  #03 //000   ----------------------------------------
 BYTE   VOL   70*SuperMario3DLandAirshipMeteorSR23_mvl/mxv
 BYTE   KEYSH   SuperMario3DLandAirshipMeteorSR23_key+0
Label_545B78:
 BYTE   VOICE   55
 BYTE   MODT 0
 BYTE   LFOS 44
 BYTE   PAN   c_v-19
 BYTE   N12  Cn4  v044
 BYTE   W96
//  #03 //001   ----------------------------------------
 BYTE   W96
//  #03 //002   ----------------------------------------
 BYTE   W96
//  #03 //003   ----------------------------------------
 BYTE   W96
//  #03 //004   ----------------------------------------
 BYTE   W96
//  #03 //005   ----------------------------------------
 BYTE   W96
//  #03 //006   ----------------------------------------
 BYTE   W96
//  #03 //007   ----------------------------------------
 BYTE   W96
//  #03 //008   ----------------------------------------
 BYTE   W96
//  #03 //009   ----------------------------------------
 BYTE   W96
//  #03 //010   ----------------------------------------
 BYTE   W96
//  #03 //011   ----------------------------------------
 BYTE   W96
//  #03 //012   ----------------------------------------
 BYTE   W96
//  #03 //013   ----------------------------------------
 BYTE   W96
//  #03 //014   ----------------------------------------
 BYTE   W96
//  #03 //015   ----------------------------------------
 BYTE   W96
//  #03 //016   ----------------------------------------
 BYTE   W96
//  #03 //017   ----------------------------------------
 BYTE   W96
//  #03 //018   ----------------------------------------
 BYTE   W96
//  #03 //019   ----------------------------------------
 BYTE   W96
//  #03 //020   ----------------------------------------
 BYTE   W96
//  #03 //021   ----------------------------------------
 BYTE   W96
//  #03 //022   ----------------------------------------
 BYTE   W96
//  #03 //023   ----------------------------------------
 BYTE   W96
//  #03 //024   ----------------------------------------
 BYTE   W96
//  #03 //025   ----------------------------------------
 BYTE   W96
//  #03 //026   ----------------------------------------
 BYTE   W96
//  #03 //027   ----------------------------------------
 BYTE   W96
//  #03 //028   ----------------------------------------
 BYTE   W96
//  #03 //029   ----------------------------------------
 BYTE   W96
//  #03 //030   ----------------------------------------
 BYTE   W96
//  #03 //031   ----------------------------------------
 BYTE   W96
//  #03 //032   ----------------------------------------
 BYTE   GoTo
  POIN2 Label_545B78
 BYTE   FINE

//**************** Track 4 (Midi-Chn.3) ****************//

SuperMario3DLandAirshipMeteorSR23_004:
//  #04 //000   ----------------------------------------
 BYTE   VOL   70*SuperMario3DLandAirshipMeteorSR23_mvl/mxv
 BYTE   KEYSH   SuperMario3DLandAirshipMeteorSR23_key+0
Label_545DA0:
 BYTE   VOICE   49
 BYTE   MODT 0
 BYTE   LFOS 44
 BYTE   PAN   c_v-32
 BYTE   N12  Gn2  v044
 BYTE   W24
 BYTE   N12
 BYTE   W24
 BYTE   N04
 BYTE   W08
 BYTE   N04
 BYTE   W08
 BYTE   N04
 BYTE   W08
 BYTE   N12
 BYTE   W24
//  #04 //001   ----------------------------------------
Label_545DB6:
 BYTE   N12  Gn2  v044
 BYTE   W24
 BYTE   N04
 BYTE   W08
 BYTE   N04
 BYTE   W08
 BYTE   N04
 BYTE   W08
 BYTE   N06
 BYTE   W12
 BYTE   N06
 BYTE   W12
 BYTE   N12
 BYTE   W24
 BYTE   PEND 
//  #04 //002   ----------------------------------------
Label_545DC7:
 BYTE   PAN   c_v-32
 BYTE   N12  Gn2  v044
 BYTE   W24
 BYTE   N12
 BYTE   W24
 BYTE   N04
 BYTE   W08
 BYTE   N04
 BYTE   W08
 BYTE   N04
 BYTE   W08
 BYTE   N12
 BYTE   W24
 BYTE   PEND 
//  #04 //003   ----------------------------------------
 BYTE   PATT
  POIN2 Label_545DB6
//  #04 //004   ----------------------------------------
 BYTE   PATT
  POIN2 Label_545DC7
//  #04 //005   ----------------------------------------
 BYTE   PATT
  POIN2 Label_545DB6
//  #04 //006   ----------------------------------------
 BYTE   PATT
  POIN2 Label_545DC7
//  #04 //007   ----------------------------------------
 BYTE   PATT
  POIN2 Label_545DB6
//  #04 //008   ----------------------------------------
 BYTE   PATT
  POIN2 Label_545DC7
//  #04 //009   ----------------------------------------
 BYTE   PATT
  POIN2 Label_545DB6
//  #04 //010   ----------------------------------------
 BYTE   PATT
  POIN2 Label_545DC7
//  #04 //011   ----------------------------------------
 BYTE   PATT
  POIN2 Label_545DB6
//  #04 //012   ----------------------------------------
 BYTE   PATT
  POIN2 Label_545DC7
//  #04 //013   ----------------------------------------
 BYTE   PATT
  POIN2 Label_545DB6
//  #04 //014   ----------------------------------------
 BYTE   PATT
  POIN2 Label_545DC7
//  #04 //015   ----------------------------------------
 BYTE   PATT
  POIN2 Label_545DB6
//  #04 //016   ----------------------------------------
 BYTE   PATT
  POIN2 Label_545DC7
//  #04 //017   ----------------------------------------
 BYTE   PATT
  POIN2 Label_545DB6
//  #04 //018   ----------------------------------------
 BYTE   PATT
  POIN2 Label_545DC7
//  #04 //019   ----------------------------------------
 BYTE   PATT
  POIN2 Label_545DB6
//  #04 //020   ----------------------------------------
 BYTE   PATT
  POIN2 Label_545DC7
//  #04 //021   ----------------------------------------
 BYTE   PATT
  POIN2 Label_545DB6
//  #04 //022   ----------------------------------------
 BYTE   PATT
  POIN2 Label_545DC7
//  #04 //023   ----------------------------------------
 BYTE   PATT
  POIN2 Label_545DB6
//  #04 //024   ----------------------------------------
 BYTE   PATT
  POIN2 Label_545DC7
//  #04 //025   ----------------------------------------
 BYTE   N12  Gn2  v044
 BYTE   W24
 BYTE   N04
 BYTE   W08
 BYTE   N04
 BYTE   W08
 BYTE   N04
 BYTE   W08
 BYTE   N06
 BYTE   W12
 BYTE   N06
 BYTE   W12
 BYTE   N12
 BYTE   W12
 BYTE   PAN   c_v-32
 BYTE   N12
 BYTE   W12
//  #04 //026   ----------------------------------------
 BYTE   PATT
  POIN2 Label_545DC7
//  #04 //027   ----------------------------------------
 BYTE   N12  Gn2  v044
 BYTE   W24
 BYTE   N04
 BYTE   W08
 BYTE   N04
 BYTE   W08
 BYTE   N04
 BYTE   W08
 BYTE   N06
 BYTE   W12
 BYTE   N06
 BYTE   W12
 BYTE   N12
 BYTE   W12
 BYTE   PAN   c_v-32
 BYTE   W12
//  #04 //028   ----------------------------------------
 BYTE   PATT
  POIN2 Label_545DC7
//  #04 //029   ----------------------------------------
 BYTE   PATT
  POIN2 Label_545DB6
//  #04 //030   ----------------------------------------
 BYTE   PATT
  POIN2 Label_545DC7
//  #04 //031   ----------------------------------------
 BYTE   PATT
  POIN2 Label_545DB6
//  #04 //032   ----------------------------------------
 BYTE   GoTo
  POIN2 Label_545DA0
 BYTE   FINE

//**************** Track 5 (Midi-Chn.4) ****************//

SuperMario3DLandAirshipMeteorSR23_005:
//  #05 //000   ----------------------------------------
 BYTE   VOL   70*SuperMario3DLandAirshipMeteorSR23_mvl/mxv
 BYTE   KEYSH   SuperMario3DLandAirshipMeteorSR23_key+0
Label_5451D4:
 BYTE   VOICE   61
 BYTE   MODT 0
 BYTE   LFOS 44
 BYTE   PAN   c_v+0
 BYTE   W96
//  #05 //001   ----------------------------------------
 BYTE   W96
//  #05 //002   ----------------------------------------
Label_5451DE:
 BYTE   N96  As2  v044
 BYTE   N96  Cn3
 BYTE   N96  Fn3
 BYTE   W96
 BYTE   PEND 
//  #05 //003   ----------------------------------------
Label_5451E7:
 BYTE   N96  As3  v044
 BYTE   N96  Cn4
 BYTE   N96  Fn4
 BYTE   W96
 BYTE   PEND 
//  #05 //004   ----------------------------------------
 BYTE   En3
 BYTE   N96  Bn3
 BYTE   N96  En4
 BYTE   W96
//  #05 //005   ----------------------------------------
 BYTE   W96
//  #05 //006   ----------------------------------------
 BYTE   PATT
  POIN2 Label_5451DE
//  #05 //007   ----------------------------------------
 BYTE   PATT
  POIN2 Label_5451E7
//  #05 //008   ----------------------------------------
 BYTE   N96  En3  v044
 BYTE   N96  Bn3
 BYTE   N96  En4
 BYTE   W96
//  #05 //009   ----------------------------------------
 BYTE   W96
//  #05 //010   ----------------------------------------
 BYTE   W96
//  #05 //011   ----------------------------------------
 BYTE   W96
//  #05 //012   ----------------------------------------
 BYTE   W96
//  #05 //013   ----------------------------------------
 BYTE   W96
//  #05 //014   ----------------------------------------
 BYTE   W96
//  #05 //015   ----------------------------------------
 BYTE   W96
//  #05 //016   ----------------------------------------
 BYTE   PATT
  POIN2 Label_5451DE
//  #05 //017   ----------------------------------------
 BYTE   PATT
  POIN2 Label_5451E7
//  #05 //018   ----------------------------------------
 BYTE   N96  En3  v044
 BYTE   N96  Bn3
 BYTE   N96  En4
 BYTE   W96
//  #05 //019   ----------------------------------------
 BYTE   W96
//  #05 //020   ----------------------------------------
 BYTE   PATT
  POIN2 Label_5451DE
//  #05 //021   ----------------------------------------
 BYTE   PATT
  POIN2 Label_5451E7
//  #05 //022   ----------------------------------------
 BYTE   N96  En3  v044
 BYTE   N96  Bn3
 BYTE   N96  En4
 BYTE   W96
//  #05 //023   ----------------------------------------
 BYTE   W96
//  #05 //024   ----------------------------------------
 BYTE   W96
//  #05 //025   ----------------------------------------
 BYTE   W96
//  #05 //026   ----------------------------------------
 BYTE   W96
//  #05 //027   ----------------------------------------
 BYTE   W96
//  #05 //028   ----------------------------------------
 BYTE   N60  As2
 BYTE   N60  Cn3
 BYTE   N60  Gn3
 BYTE   W60
 BYTE   N06  Fn2
 BYTE   N06  As2
 BYTE   N06  Fn3
 BYTE   W12
 BYTE   N18  Cn3
 BYTE   N18  Fn3
 BYTE   N18  Cn4
 BYTE   W18
 BYTE   N06  As3
 BYTE   W06
//  #05 //029   ----------------------------------------
 BYTE   N96  Ds3
 BYTE   N96  As3
 BYTE   N96  Ds4
 BYTE   W96
//  #05 //030   ----------------------------------------
 BYTE   N60  Dn3
 BYTE   N60  Fn3
 BYTE   N60  Cn4
 BYTE   W60
 BYTE   N06  Gn2
 BYTE   N06  Dn3
 BYTE   N06  An3
 BYTE   W12
 BYTE   N18  Fn3
 BYTE   N18  As3
 BYTE   N18  Fn4
 BYTE   W18
 BYTE   N06  Dn4
 BYTE   W06
//  #05 //031   ----------------------------------------
 BYTE   N96  Gn3
 BYTE   N96  Dn4
 BYTE   N96  Gn4
 BYTE   W96
//  #05 //032   ----------------------------------------
 BYTE   GoTo
  POIN2 Label_5451D4
 BYTE   FINE

//**************** Track 6 (Midi-Chn.5) ****************//

SuperMario3DLandAirshipMeteorSR23_006:
//  #06 //000   ----------------------------------------
 BYTE   VOL   70*SuperMario3DLandAirshipMeteorSR23_mvl/mxv
 BYTE   KEYSH   SuperMario3DLandAirshipMeteorSR23_key+0
Label_01002208:
 BYTE   VOICE   57
 BYTE   MODT 0
 BYTE   LFOS 44
 BYTE   PAN   c_v-10
 BYTE   W96
//  #06 //001   ----------------------------------------
 BYTE   W96
//  #06 //002   ----------------------------------------
 BYTE   W96
//  #06 //003   ----------------------------------------
 BYTE   W96
//  #06 //004   ----------------------------------------
 BYTE   W96
//  #06 //005   ----------------------------------------
 BYTE   W96
//  #06 //006   ----------------------------------------
 BYTE   W96
//  #06 //007   ----------------------------------------
 BYTE   W96
//  #06 //008   ----------------------------------------
 BYTE   W96
//  #06 //009   ----------------------------------------
 BYTE   W96
//  #06 //010   ----------------------------------------
Label_0100221A:
 BYTE   N12  Cn3  v044
 BYTE   N12  Dn3
 BYTE   N12  Gn3
 BYTE   W24
 BYTE   Cn3
 BYTE   N12  Dn3
 BYTE   N12  Gn3
 BYTE   W24
 BYTE   N06  Cn3
 BYTE   N06  Dn3
 BYTE   N06  Gn3
 BYTE   W12
 BYTE   Cn3
 BYTE   N06  Dn3
 BYTE   N06  Gn3
 BYTE   W12
 BYTE   N04  Cn3
 BYTE   N04  Dn3
 BYTE   N04  Gn3
 BYTE   W08
 BYTE   Ds3
 BYTE   N04  Fn3
 BYTE   N04  As3
 BYTE   W08
 BYTE   Ds3
 BYTE   N04  Fn3
 BYTE   N04  As3
 BYTE   W08
 BYTE   PEND 
//  #06 //011   ----------------------------------------
 BYTE   PATT
  POIN2 Label_0100221A
//  #06 //012   ----------------------------------------
Label_0100224E:
 BYTE   N12  Gn3  v044
 BYTE   N12  An3
 BYTE   N12  Dn4
 BYTE   W24
 BYTE   Gn3
 BYTE   N12  An3
 BYTE   N12  Dn4
 BYTE   W24
 BYTE   N06  Gn3
 BYTE   N06  An3
 BYTE   N06  Dn4
 BYTE   W12
 BYTE   Gn3
 BYTE   N06  An3
 BYTE   N06  Dn4
 BYTE   W12
 BYTE   N04  Gn3
 BYTE   N04  An3
 BYTE   N04  Dn4
 BYTE   W08
 BYTE   As3
 BYTE   N04  Cn4
 BYTE   N04  Fn4
 BYTE   W08
 BYTE   As3
 BYTE   N04  Cn4
 BYTE   N04  Fn4
 BYTE   W08
 BYTE   PEND 
//  #06 //013   ----------------------------------------
 BYTE   PATT
  POIN2 Label_0100224E
//  #06 //014   ----------------------------------------
 BYTE   W96
//  #06 //015   ----------------------------------------
 BYTE   W96
//  #06 //016   ----------------------------------------
 BYTE   W96
//  #06 //017   ----------------------------------------
 BYTE   W96
//  #06 //018   ----------------------------------------
 BYTE   W96
//  #06 //019   ----------------------------------------
 BYTE   W96
//  #06 //020   ----------------------------------------
 BYTE   W96
//  #06 //021   ----------------------------------------
 BYTE   W96
//  #06 //022   ----------------------------------------
 BYTE   W96
//  #06 //023   ----------------------------------------
 BYTE   W96
//  #06 //024   ----------------------------------------
 BYTE   PATT
  POIN2 Label_0100221A
//  #06 //025   ----------------------------------------
 BYTE   PATT
  POIN2 Label_0100221A
//  #06 //026   ----------------------------------------
 BYTE   PATT
  POIN2 Label_0100224E
//  #06 //027   ----------------------------------------
 BYTE   PATT
  POIN2 Label_0100224E
//  #06 //028   ----------------------------------------
Label_010022A0:
 BYTE   N12  Cn4  v024
 BYTE   N12  Dn4
 BYTE   N12  Gn4
 BYTE   W24
 BYTE   Cn4
 BYTE   N12  Dn4
 BYTE   N12  Gn4
 BYTE   W24
 BYTE   N06  Cn4
 BYTE   N06  Dn4
 BYTE   N06  Gn4
 BYTE   W12
 BYTE   Cn4
 BYTE   N06  Dn4
 BYTE   N06  Gn4
 BYTE   W12
 BYTE   N04  Cn4
 BYTE   N04  Dn4
 BYTE   N04  Gn4
 BYTE   W08
 BYTE   Ds4
 BYTE   N04  Fn4
 BYTE   N04  As4
 BYTE   W08
 BYTE   Ds4
 BYTE   N04  Fn4
 BYTE   N04  As4
 BYTE   W08
 BYTE   PEND 
//  #06 //029   ----------------------------------------
 BYTE   PATT
  POIN2 Label_010022A0
//  #06 //030   ----------------------------------------
Label_010022D4:
 BYTE   N12  Gn4  v024
 BYTE   N12  An4
 BYTE   N12  Dn5
 BYTE   W24
 BYTE   Gn4
 BYTE   N12  An4
 BYTE   N12  Dn5
 BYTE   W24
 BYTE   N06  Gn4
 BYTE   N06  An4
 BYTE   N06  Dn5
 BYTE   W12
 BYTE   Gn4
 BYTE   N06  An4
 BYTE   N06  Dn5
 BYTE   W12
 BYTE   N04  Gn4
 BYTE   N04  An4
 BYTE   N04  Dn5
 BYTE   W08
 BYTE   As4
 BYTE   N04  Cn5
 BYTE   N04  Fn5
 BYTE   W08
 BYTE   As4
 BYTE   N04  Cn5
 BYTE   N04  Fn5
 BYTE   W08
 BYTE   PEND 
//  #06 //031   ----------------------------------------
 BYTE   PATT
  POIN2 Label_010022D4
//  #06 //032   ----------------------------------------
 BYTE   GoTo
  POIN2 Label_01002208
 BYTE   FINE

//**************** Track 7 (Midi-Chn.6) ****************//

SuperMario3DLandAirshipMeteorSR23_007:
//  #07 //000   ----------------------------------------
 BYTE   VOL   70*SuperMario3DLandAirshipMeteorSR23_mvl/mxv
 BYTE   KEYSH   SuperMario3DLandAirshipMeteorSR23_key+0
Label_5452C0:
 BYTE   VOICE   48
 BYTE   MODT 0
 BYTE   LFOS 44
 BYTE   PAN   c_v-20
 BYTE   W96
//  #07 //001   ----------------------------------------
 BYTE   W96
//  #07 //002   ----------------------------------------
 BYTE   W96
//  #07 //003   ----------------------------------------
 BYTE   W96
//  #07 //004   ----------------------------------------
 BYTE   W96
//  #07 //005   ----------------------------------------
 BYTE   W96
//  #07 //006   ----------------------------------------
 BYTE   W96
//  #07 //007   ----------------------------------------
 BYTE   W96
//  #07 //008   ----------------------------------------
 BYTE   W96
//  #07 //009   ----------------------------------------
 BYTE   W96
//  #07 //010   ----------------------------------------
Label_5452D2:
 BYTE   N12  Gn3  v044
 BYTE   W24
 BYTE   N12
 BYTE   W24
 BYTE   N06
 BYTE   W12
 BYTE   N06
 BYTE   W12
 BYTE   N04
 BYTE   W08
 BYTE   As3
 BYTE   W08
 BYTE   N04
 BYTE   W08
 BYTE   PEND 
//  #07 //011   ----------------------------------------
 BYTE   PATT
  POIN2 Label_5452D2
//  #07 //012   ----------------------------------------
Label_5452E8:
 BYTE   N12  Dn4  v044
 BYTE   W24
 BYTE   N12
 BYTE   W24
 BYTE   N06
 BYTE   W12
 BYTE   N06
 BYTE   W12
 BYTE   N04
 BYTE   W08
 BYTE   Fn4
 BYTE   W08
 BYTE   N04
 BYTE   W08
 BYTE   PEND 
//  #07 //013   ----------------------------------------
 BYTE   PATT
  POIN2 Label_5452E8
//  #07 //014   ----------------------------------------
 BYTE   PAN   c_v-20
 BYTE   W96
//  #07 //015   ----------------------------------------
 BYTE   W96
//  #07 //016   ----------------------------------------
 BYTE   W96
//  #07 //017   ----------------------------------------
 BYTE   W96
//  #07 //018   ----------------------------------------
 BYTE   W96
//  #07 //019   ----------------------------------------
 BYTE   W96
//  #07 //020   ----------------------------------------
 BYTE   W96
//  #07 //021   ----------------------------------------
 BYTE   W96
//  #07 //022   ----------------------------------------
 BYTE   W96
//  #07 //023   ----------------------------------------
 BYTE   W96
//  #07 //024   ----------------------------------------
 BYTE   PATT
  POIN2 Label_5452D2
//  #07 //025   ----------------------------------------
 BYTE   PATT
  POIN2 Label_5452D2
//  #07 //026   ----------------------------------------
 BYTE   PATT
  POIN2 Label_5452E8
//  #07 //027   ----------------------------------------
 BYTE   PATT
  POIN2 Label_5452E8
//  #07 //028   ----------------------------------------
Label_54531E:
 BYTE   N12  Gn4  v024
 BYTE   W24
 BYTE   N12
 BYTE   W24
 BYTE   N06
 BYTE   W12
 BYTE   N06
 BYTE   W12
 BYTE   N04
 BYTE   W08
 BYTE   As4
 BYTE   W08
 BYTE   N04
 BYTE   W08
 BYTE   PEND 
//  #07 //029   ----------------------------------------
 BYTE   PATT
  POIN2 Label_54531E
//  #07 //030   ----------------------------------------
Label_545334:
 BYTE   N12  Dn5  v024
 BYTE   W24
 BYTE   N12
 BYTE   W24
 BYTE   N06
 BYTE   W12
 BYTE   N06
 BYTE   W12
 BYTE   N04
 BYTE   W08
 BYTE   Fn5
 BYTE   W08
 BYTE   N04
 BYTE   W08
 BYTE   PEND 
//  #07 //031   ----------------------------------------
 BYTE   PATT
  POIN2 Label_545334
//  #07 //032   ----------------------------------------
 BYTE   GoTo
  POIN2 Label_5452C0
 BYTE   FINE

//******************************************************//
	ALIGN 4

SuperMario3DLandAirshipMeteorSR23:
	BYTE	7	// NumTrks
	BYTE	0	// NumBlks
	BYTE	SuperMario3DLandAirshipMeteorSR23_pri	// Priority
	BYTE	SuperMario3DLandAirshipMeteorSR23_rev	// Reverb.
    
	POIN2	SuperMario3DLandAirshipMeteorSR23_grp
    
	POIN2	SuperMario3DLandAirshipMeteorSR23_001
	POIN2	SuperMario3DLandAirshipMeteorSR23_002
	POIN2	SuperMario3DLandAirshipMeteorSR23_003
	POIN2	SuperMario3DLandAirshipMeteorSR23_004
	POIN2	SuperMario3DLandAirshipMeteorSR23_005
	POIN2	SuperMario3DLandAirshipMeteorSR23_006
	POIN2	SuperMario3DLandAirshipMeteorSR23_007

	
