//Event file generated from Sappy .s format.
	#include "MPlayDef.event"

	#define	SuperSmashBrosBrawlMenuMrGreen3339_grp  voicegroup000
	#define	SuperSmashBrosBrawlMenuMrGreen3339_pri  0
	#define	SuperSmashBrosBrawlMenuMrGreen3339_rev  0
	#define	SuperSmashBrosBrawlMenuMrGreen3339_mvl  127
	#define	SuperSmashBrosBrawlMenuMrGreen3339_key  0
	#define	SuperSmashBrosBrawlMenuMrGreen3339_tbs  1
	#define	SuperSmashBrosBrawlMenuMrGreen3339_exg  0
	#define	SuperSmashBrosBrawlMenuMrGreen3339_cmp  1

	// .rodata
	//	SuperSmashBrosBrawlMenuMrGreen3339
	ALIGN 4


//**************** Track 1 (Midi-Chn.0) ****************//

SuperSmashBrosBrawlMenuMrGreen3339_001:
// 000   ----------------------------------------
 BYTE   KEYSH   SuperSmashBrosBrawlMenuMrGreen3339_key+0
Label_0_013DCC3A:
 BYTE   TEMPO   146*SuperSmashBrosBrawlMenuMrGreen3339_tbs/2
 BYTE   VOICE   57
 BYTE   VOL   51*SuperSmashBrosBrawlMenuMrGreen3339_mvl/mxv
 BYTE   PAN   c_v-13
 BYTE   N24  Cs3  v080
 BYTE   W24
 BYTE   N12  Bn2
 BYTE   W12
 BYTE   An2
 BYTE   W12
 BYTE   TIE  Gs2
 BYTE   W96
// 001   ----------------------------------------
 BYTE   W36
 BYTE   EOT
 BYTE   W12
 BYTE   N12  Fs2
 BYTE   W12
 BYTE   Gs2
 BYTE   W12
 BYTE   An2
 BYTE   W12
 BYTE   Bn2
 BYTE   W12
// 002   ----------------------------------------
 BYTE   TIE  Gs2
 BYTE   W96
// 003   ----------------------------------------
 BYTE   W36
 BYTE   EOT
 BYTE   W12
 BYTE   N12  Fs2
 BYTE   W12
 BYTE   Gs2
 BYTE   W12
 BYTE   An2
 BYTE   W12
 BYTE   Bn2
 BYTE   W12
// 004   ----------------------------------------
 BYTE   TIE  Gs2
 BYTE   W96
// 005   ----------------------------------------
 BYTE   W12
 BYTE   EOT
 BYTE   W12
 BYTE   N12  Ds2
 BYTE   W12
 BYTE   En2
 BYTE   W12
 BYTE   N24  Fs2
 BYTE   W24
 BYTE   N12  En2
 BYTE   W12
 BYTE   Ds2
 BYTE   W12
// 006   ----------------------------------------
 BYTE   N24  Cs2
 BYTE   W24
 BYTE   TIE  Gs2
 BYTE   W72
// 007   ----------------------------------------
 BYTE   W36
 BYTE   EOT
 BYTE   W60
// 008   ----------------------------------------
 BYTE   N48  Cs1
 BYTE   W48
 BYTE   Gs1
 BYTE   W48
// 009   ----------------------------------------
 BYTE   Gs2
 BYTE   W48
 BYTE   Fs2
 BYTE   W48
// 010   ----------------------------------------
 BYTE   TIE  En2
 BYTE   W96
// 011   ----------------------------------------
 BYTE   W42
 BYTE   EOT
 BYTE   W06
 BYTE   N24  Ds2
 BYTE   W24
 BYTE   Dn2
 BYTE   W24
// 012   ----------------------------------------
 BYTE   TIE  Cs2
 BYTE   W96
// 013   ----------------------------------------
 BYTE   W24
 BYTE   EOT
 BYTE   W24
 BYTE   N48  Cn2
 BYTE   W48
// 014   ----------------------------------------
 BYTE   N96  Cs2
 BYTE   W96
// 015   ----------------------------------------
 BYTE   W96
// 016   ----------------------------------------
 BYTE   W96
// 017   ----------------------------------------
 BYTE   W96
// 018   ----------------------------------------
 BYTE   W96
// 019   ----------------------------------------
 BYTE   W96
// 020   ----------------------------------------
 BYTE   N48  Ds2
 BYTE   W48
 BYTE   N24  En2
 BYTE   W24
 BYTE   Fs2
 BYTE   W24
// 021   ----------------------------------------
 BYTE   N24
 BYTE   W24
 BYTE   En2
 BYTE   W24
 BYTE   N42  Ds2
 BYTE   W48
// 022   ----------------------------------------
 BYTE   N24  En2
 BYTE   W24
 BYTE   Fs2
 BYTE   W24
 BYTE   TIE  Gs2
 BYTE   W48
// 023   ----------------------------------------
 BYTE   W96
// 024   ----------------------------------------
 BYTE   EOT
 BYTE   W96
// 025   ----------------------------------------
 BYTE   N24  An2
 BYTE   W24
 BYTE   Gs2
 BYTE   W24
 BYTE   N48  Fs2
 BYTE   W48
// 026   ----------------------------------------
 BYTE   N06  En2  v120
 BYTE   W96
// 027   ----------------------------------------
 BYTE   W96
// 028   ----------------------------------------
 BYTE   N48  As2  v080
 BYTE   W48
 BYTE   N24  Bn2
 BYTE   W24
 BYTE   Cs3
 BYTE   W24
// 029   ----------------------------------------
 BYTE   N24
 BYTE   W24
 BYTE   Bn2
 BYTE   W24
 BYTE   N24
 BYTE   W24
 BYTE   As2
 BYTE   W24
// 030   ----------------------------------------
 BYTE   N44  Gs2
 BYTE   W48
 BYTE   Fs2
 BYTE   W48
// 031   ----------------------------------------
 BYTE   En2
 BYTE   W48
 BYTE   Ds2
 BYTE   W48
// 032   ----------------------------------------
Label_0_013DCCEB:
 BYTE   N12  Fs1  v080
 BYTE   W12
 BYTE   Gs1
 BYTE   W12
 BYTE   As1
 BYTE   W12
 BYTE   Bn1
 BYTE   W12
 BYTE   Cs2
 BYTE   W12
 BYTE   Bn1
 BYTE   W12
 BYTE   Cs2
 BYTE   W12
 BYTE   Ds2
 BYTE   W12
 BYTE   PEND 
// 033   ----------------------------------------
Label_0_013DCCFE:
 BYTE   N12  En2  v080
 BYTE   W12
 BYTE   Ds2
 BYTE   W12
 BYTE   En2
 BYTE   W12
 BYTE   Fs2
 BYTE   W12
 BYTE   Gs2
 BYTE   W12
 BYTE   As2
 BYTE   W12
 BYTE   Bn2
 BYTE   W12
 BYTE   Cn3
 BYTE   W12
 BYTE   PEND 
// 034   ----------------------------------------
 BYTE   W96
// 035   ----------------------------------------
 BYTE   W96
 BYTE   PATT
  POIN2 Label_0_013DCCEB
 BYTE   PATT
  POIN2 Label_0_013DCCFE
// 036   ----------------------------------------
 BYTE   W96
// 037   ----------------------------------------
 BYTE   W96
// 038   ----------------------------------------
 BYTE   W96
// 039   ----------------------------------------
 BYTE   W96
// 040   ----------------------------------------
 BYTE   W96
// 041   ----------------------------------------
 BYTE   W96
// 042   ----------------------------------------
 BYTE   W96
// 043   ----------------------------------------
 BYTE   W96
// 044   ----------------------------------------
 BYTE   N96  En1  v080
 BYTE   W96
// 045   ----------------------------------------
 BYTE   Bn1
 BYTE   W96
// 046   ----------------------------------------
 BYTE   W48
 BYTE   N48  Gs2
 BYTE   W48
// 047   ----------------------------------------
 BYTE   An2
 BYTE   W48
 BYTE   Bn2
 BYTE   W48
// 048   ----------------------------------------
 BYTE   W96
// 049   ----------------------------------------
 BYTE   N96
 BYTE   W96
// 050   ----------------------------------------
 BYTE   An2
 BYTE   W96
// 051   ----------------------------------------
 BYTE   Fs2
 BYTE   W96
// 052   ----------------------------------------
 BYTE   Cs2
 BYTE   W96
// 053   ----------------------------------------
 BYTE   N24  Ds2
 BYTE   W48
 BYTE   GoTo
  POIN2 Label_0_013DCC3A
 BYTE   FINE

//**************** Track 2 (Midi-Chn.1) ****************//

SuperSmashBrosBrawlMenuMrGreen3339_002:
// 000   ----------------------------------------
 BYTE   KEYSH   SuperSmashBrosBrawlMenuMrGreen3339_key+0
Label_1_013DCD4A:
 BYTE   VOICE   60
 BYTE   VOL   51*SuperSmashBrosBrawlMenuMrGreen3339_mvl/mxv
 BYTE   PAN   c_v+31
 BYTE   N24  Cs3  v100
 BYTE   W24
 BYTE   N12  Bn2
 BYTE   W12
 BYTE   An2
 BYTE   W12
 BYTE   TIE  Gs2
 BYTE   W96
// 001   ----------------------------------------
 BYTE   W36
 BYTE   EOT
 BYTE   W12
 BYTE   N12  Fs2
 BYTE   W12
 BYTE   Gs2
 BYTE   W12
 BYTE   An2
 BYTE   W12
 BYTE   Bn2
 BYTE   W12
// 002   ----------------------------------------
 BYTE   TIE  Gs2
 BYTE   W96
// 003   ----------------------------------------
 BYTE   W36
 BYTE   EOT
 BYTE   W12
 BYTE   N12  Fs2
 BYTE   W12
 BYTE   Gs2
 BYTE   W12
 BYTE   An2
 BYTE   W12
 BYTE   Bn2
 BYTE   W12
// 004   ----------------------------------------
 BYTE   TIE  Gs2
 BYTE   W96
// 005   ----------------------------------------
 BYTE   W12
 BYTE   EOT
 BYTE   W12
 BYTE   N12  Ds2
 BYTE   W12
 BYTE   En2
 BYTE   W12
 BYTE   N24  Fs2
 BYTE   W24
 BYTE   N12  En2
 BYTE   W12
 BYTE   Ds2
 BYTE   W12
// 006   ----------------------------------------
 BYTE   N24  Cs2
 BYTE   W24
 BYTE   TIE  Gs2
 BYTE   W72
// 007   ----------------------------------------
 BYTE   W36
 BYTE   EOT
 BYTE   W12
 BYTE   N24  An3  v052
 BYTE   W24
 BYTE   N12  Gs3
 BYTE   W12
 BYTE   Fs3
 BYTE   W12
// 008   ----------------------------------------
Label_1_013DCD9C:
 BYTE   N02  Cs3  v072
 BYTE   W36
 BYTE   N02
 BYTE   W36
 BYTE   N02
 BYTE   W24
 BYTE   PEND 
// 009   ----------------------------------------
Label_1_013DCDA5:
 BYTE   W12
 BYTE   N02  Cs3  v072
 BYTE   W36
 BYTE   N02
 BYTE   W24
 BYTE   N02
 BYTE   W24
 BYTE   PEND 
 BYTE   PATT
  POIN2 Label_1_013DCD9C
 BYTE   PATT
  POIN2 Label_1_013DCDA5
 BYTE   PATT
  POIN2 Label_1_013DCD9C
// 010   ----------------------------------------
 BYTE   N02  Cs3  v072
 BYTE   W36
 BYTE   N01
 BYTE   W12
 BYTE   N03
 BYTE   W48
// 011   ----------------------------------------
 BYTE   N03
 BYTE   W36
 BYTE   N01
 BYTE   W36
 BYTE   N01
 BYTE   W24
// 012   ----------------------------------------
 BYTE   W96
// 013   ----------------------------------------
 BYTE   W96
// 014   ----------------------------------------
 BYTE   W96
// 015   ----------------------------------------
 BYTE   W96
// 016   ----------------------------------------
 BYTE   W96
// 017   ----------------------------------------
 BYTE   N48  Ds2  v080
 BYTE   W48
 BYTE   N24  En2
 BYTE   W24
 BYTE   Fs2
 BYTE   W24
// 018   ----------------------------------------
 BYTE   N24
 BYTE   W24
 BYTE   En2
 BYTE   W24
 BYTE   N42  Ds2
 BYTE   W48
// 019   ----------------------------------------
 BYTE   N24  En2
 BYTE   W24
 BYTE   Fs2
 BYTE   W24
 BYTE   TIE  Gs2
 BYTE   W48
// 020   ----------------------------------------
 BYTE   N96  Gs3  v060
 BYTE   W96
// 021   ----------------------------------------
 BYTE   EOT
 BYTE   Gs2
 BYTE   W96
// 022   ----------------------------------------
 BYTE   N24  An2
 BYTE   W24
 BYTE   Gs2
 BYTE   W24
 BYTE   N48  Fs2
 BYTE   W48
// 023   ----------------------------------------
 BYTE   N06  En2  v100
 BYTE   W96
// 024   ----------------------------------------
 BYTE   W96
// 025   ----------------------------------------
 BYTE   N48  As2  v080
 BYTE   W48
 BYTE   N24  Bn2
 BYTE   W24
 BYTE   Cs3
 BYTE   W24
// 026   ----------------------------------------
 BYTE   N24
 BYTE   W24
 BYTE   Bn2
 BYTE   W24
 BYTE   N24
 BYTE   W24
 BYTE   As2
 BYTE   W24
// 027   ----------------------------------------
 BYTE   TIE  Ds3
 BYTE   W96
// 028   ----------------------------------------
 BYTE   W36
 BYTE   EOT
 BYTE   W12
 BYTE   N36  Gs2  v060
 BYTE   W36
 BYTE   N06  An2
 BYTE   W06
 BYTE   Bn2
 BYTE   W06
// 029   ----------------------------------------
 BYTE   TIE  Cs3
 BYTE   W96
// 030   ----------------------------------------
 BYTE   W72
 BYTE   EOT
 BYTE   W24
// 031   ----------------------------------------
 BYTE   W96
// 032   ----------------------------------------
 BYTE   W48
 BYTE   N36  Gs2
 BYTE   W36
 BYTE   N06  An2
 BYTE   W06
 BYTE   Bn2
 BYTE   W06
// 033   ----------------------------------------
 BYTE   TIE  Cs3
 BYTE   W96
// 034   ----------------------------------------
 BYTE   W72
 BYTE   EOT
 BYTE   W24
// 035   ----------------------------------------
 BYTE   W96
// 036   ----------------------------------------
 BYTE   W96
// 037   ----------------------------------------
 BYTE   W96
// 038   ----------------------------------------
 BYTE   W96
// 039   ----------------------------------------
 BYTE   W96
// 040   ----------------------------------------
 BYTE   W96
// 041   ----------------------------------------
 BYTE   W72
 BYTE   N24  Ds3
 BYTE   W24
// 042   ----------------------------------------
 BYTE   N48  Fs3
 BYTE   W48
 BYTE   N24  Bn3
 BYTE   W24
 BYTE   An3
 BYTE   W24
// 043   ----------------------------------------
 BYTE   N24
 BYTE   W24
 BYTE   Gs3
 BYTE   W24
 BYTE   TIE  En3
 BYTE   W48
// 044   ----------------------------------------
 BYTE   W96
// 045   ----------------------------------------
 BYTE   EOT
 BYTE   W48
 BYTE   N48  Gs3
 BYTE   W48
// 046   ----------------------------------------
 BYTE   An3
 BYTE   W48
 BYTE   Bn3
 BYTE   W48
// 047   ----------------------------------------
 BYTE   Gs3
 BYTE   W48
 BYTE   N48
 BYTE   W48
// 048   ----------------------------------------
 BYTE   Bn3
 BYTE   W48
 BYTE   N48
 BYTE   W48
// 049   ----------------------------------------
 BYTE   An3
 BYTE   W48
 BYTE   N48
 BYTE   W48
// 050   ----------------------------------------
 BYTE   N48
 BYTE   W48
 BYTE   N24  Gs3
 BYTE   W24
 BYTE   Fs3
 BYTE   W24
// 051   ----------------------------------------
 BYTE   N96  En3
 BYTE   W96
// 052   ----------------------------------------
 BYTE   W48
 BYTE   GoTo
  POIN2 Label_1_013DCD4A
 BYTE   FINE

//**************** Track 3 (Midi-Chn.2) ****************//

SuperSmashBrosBrawlMenuMrGreen3339_003:
// 000   ----------------------------------------
 BYTE   KEYSH   SuperSmashBrosBrawlMenuMrGreen3339_key+0
Label_2_013DCE76:
 BYTE   VOICE   48
 BYTE   VOL   51*SuperSmashBrosBrawlMenuMrGreen3339_mvl/mxv
 BYTE   PAN   c_v-39
 BYTE   W48
 BYTE   VOICE   48
 BYTE   N03  Cs3  v100
 BYTE   N03  En3
 BYTE   W36
 BYTE   Cs3
 BYTE   N03  En3
 BYTE   W36
// 001   ----------------------------------------
 BYTE   Cs3
 BYTE   N03  En3
 BYTE   W24
Label_2_013DCE8D:
 BYTE   W12
 BYTE   N03  Cs3  v100
 BYTE   N03  En3
 BYTE   W36
 BYTE   Cs3
 BYTE   N03  Fs3
 BYTE   W24
// 002   ----------------------------------------
 BYTE   Cs3
 BYTE   N03  Ds3
 BYTE   W24
 BYTE   PEND 
Label_2_013DCE9D:
 BYTE   N03  Cs3  v100
 BYTE   N03  En3
 BYTE   W36
 BYTE   Cs3
 BYTE   N03  En3
 BYTE   W36
// 003   ----------------------------------------
 BYTE   Cs3
 BYTE   N03  En3
 BYTE   W24
 BYTE   PEND 
 BYTE   PATT
  POIN2 Label_2_013DCE8D
 BYTE   PATT
  POIN2 Label_2_013DCE9D
// 004   ----------------------------------------
 BYTE   N03  Cs3  v100
 BYTE   N03  En3
 BYTE   W36
 BYTE   N06  Cs3
 BYTE   N06  En3
 BYTE   W12
 BYTE   N03  Cs3
 BYTE   N03  En3
 BYTE   W48
// 005   ----------------------------------------
 BYTE   Cs3
 BYTE   N03  En3
 BYTE   W36
 BYTE   Cs3
 BYTE   N03  Fs3
 BYTE   W36
 BYTE   Cs3
 BYTE   N03  Ds3
 BYTE   W24
// 006   ----------------------------------------
 BYTE   W12
 BYTE   Cs3
 BYTE   N03  En3
 BYTE   W36
 BYTE   N24  Cs4  v080
 BYTE   N24  Cs5
 BYTE   W24
 BYTE   N12  Bn3
 BYTE   N12  Bn4
 BYTE   W12
 BYTE   An3
 BYTE   N12  An4
 BYTE   W12
// 007   ----------------------------------------
Label_2_013DCEE6:
 BYTE   N02  Cs3  v100
 BYTE   N02  En3
 BYTE   TIE  Gs3  v080
 BYTE   TIE  Gs4
 BYTE   W36
 BYTE   N02  Cs3  v100
 BYTE   N02  En3
 BYTE   W36
 BYTE   Cs3
 BYTE   N02  En3
 BYTE   W24
 BYTE   PEND 
// 008   ----------------------------------------
Label_2_013DCEFC:
 BYTE   W12
 BYTE   N02  Cs3  v100
 BYTE   N02  En3
 BYTE   W36
 BYTE   PEND 
 BYTE   EOT
 BYTE   Gs3  v080
 BYTE   N02  Cs3
 BYTE   N03  Fs3
 BYTE   N12  Fs4  v080
 BYTE   W12
 BYTE   Gs3
 BYTE   N12  Gs4
 BYTE   W12
 BYTE   N02  Cs3  v100
 BYTE   N02  Ds3
 BYTE   N12  An3  v080
 BYTE   N12  An4
 BYTE   W12
 BYTE   Bn3
 BYTE   N12  Bn4
 BYTE   W12
 BYTE   PATT
  POIN2 Label_2_013DCEE6
 BYTE   PATT
  POIN2 Label_2_013DCEFC
// 009   ----------------------------------------
 BYTE   EOT
 BYTE   Gs3  v080
 BYTE   N02  Cs3  v100
 BYTE   N03  Fs3
 BYTE   N12  Fs4  v080
 BYTE   W12
 BYTE   Gs3
 BYTE   N12  Gs4
 BYTE   W12
 BYTE   N02  Cs3  v100
 BYTE   N02  Ds3
 BYTE   N12  An3  v080
 BYTE   N12  An4
 BYTE   W12
 BYTE   Bn3
 BYTE   N12  Bn4
 BYTE   W12
 BYTE   PATT
  POIN2 Label_2_013DCEE6
// 010   ----------------------------------------
 BYTE   N02  Cs3  v100
 BYTE   N02  En3
 BYTE   W18
 BYTE   EOT
 BYTE   Gs3  v080
 BYTE   W06
 BYTE   N12  Ds3  v080
 BYTE   N12  Ds4
 BYTE   W12
 BYTE   N06  Cs3  v100
 BYTE   N06  En3
 BYTE   N12  En4  v080
 BYTE   W12
 BYTE   N03  Cs3  v100
 BYTE   N03  En3
 BYTE   N24  Fs3  v080
 BYTE   N24  Fs4
 BYTE   W24
 BYTE   N12  En3
 BYTE   N12  En4
 BYTE   W12
 BYTE   Ds3
 BYTE   N12  Ds4
 BYTE   W12
// 011   ----------------------------------------
 BYTE   N03  Cs3  v100
 BYTE   N03  En3  v080
 BYTE   N24  En4
 BYTE   W24
 BYTE   N12  Cs3
 BYTE   TIE  Cs4
 BYTE   W12
 BYTE   N03  Cs3  v100
 BYTE   N03  Fs3
 BYTE   W36
 BYTE   Cs3
 BYTE   N03  Ds3
 BYTE   W24
// 012   ----------------------------------------
 BYTE   W96
// 013   ----------------------------------------
 BYTE   EOT
 BYTE   Cs4
 BYTE   N06  Gs3  v060
 BYTE   N06  Cs4
 BYTE   W24
 BYTE   Gs3
 BYTE   N06  Cs4
 BYTE   W24
 BYTE   Gs3
 BYTE   N06  Cs4
 BYTE   W24
 BYTE   Gs3
 BYTE   N06  Cs4
 BYTE   W24
// 014   ----------------------------------------
 BYTE   Gs3
 BYTE   N06  Cn4
 BYTE   W24
 BYTE   Gs3
 BYTE   N06  Cn4
 BYTE   W24
 BYTE   Gs3
 BYTE   N06  Cn4
 BYTE   W24
 BYTE   Gs3
 BYTE   N06  Cn4
 BYTE   W24
// 015   ----------------------------------------
Label_2_013DCFBA:
 BYTE   N06  Cs3  v060
 BYTE   N06  Gs3
 BYTE   W24
 BYTE   Cs3
 BYTE   N06  Gs3
 BYTE   W24
 BYTE   Cs3
 BYTE   N06  Gs3
 BYTE   W24
 BYTE   Cs3
 BYTE   N06  Gs3
 BYTE   W24
 BYTE   PEND 
 BYTE   PATT
  POIN2 Label_2_013DCFBA
// 016   ----------------------------------------
Label_2_013DCFD2:
 BYTE   N06  Gs3  v060
 BYTE   N06  Gs4
 BYTE   W24
 BYTE   Gs3
 BYTE   N06  Gs4
 BYTE   W24
 BYTE   Gs3
 BYTE   N06  Gs4
 BYTE   W24
 BYTE   Gs3
 BYTE   N06  Gs4
 BYTE   W24
 BYTE   PEND 
 BYTE   PATT
  POIN2 Label_2_013DCFD2
// 017   ----------------------------------------
 BYTE   N24  En4  v080
 BYTE   W24
 BYTE   Fs4
 BYTE   W24
 BYTE   TIE  Gs4
 BYTE   W48
// 018   ----------------------------------------
 BYTE   W96
// 019   ----------------------------------------
 BYTE   EOT
 BYTE   N48  Fs3
 BYTE   N48  Fs4
 BYTE   W48
 BYTE   N24  Gs3
 BYTE   N24  Gs4
 BYTE   W24
 BYTE   An3
 BYTE   N24  An4
 BYTE   W24
// 020   ----------------------------------------
 BYTE   An3
 BYTE   N24  An4
 BYTE   W24
 BYTE   Gs3
 BYTE   N24  Gs4
 BYTE   W24
 BYTE   N48  Fs3
 BYTE   N48  Fs4
 BYTE   W48
// 021   ----------------------------------------
 BYTE   Gs3
 BYTE   N48  Gs4
 BYTE   W48
 BYTE   N24  An3
 BYTE   N24  An4
 BYTE   W24
 BYTE   Bn3
 BYTE   N24  Bn4
 BYTE   W24
// 022   ----------------------------------------
 BYTE   Bn3
 BYTE   N24  Bn4
 BYTE   W24
 BYTE   An3
 BYTE   N24  An4
 BYTE   W24
 BYTE   N48  Gs3
 BYTE   N48  Gs4
 BYTE   W48
// 023   ----------------------------------------
 BYTE   As3
 BYTE   N48  As4
 BYTE   W48
 BYTE   N24  Bn3
 BYTE   N24  Bn4
 BYTE   W24
 BYTE   Cs4
 BYTE   N24  Cs5
 BYTE   W24
// 024   ----------------------------------------
 BYTE   Cs4
 BYTE   N24  Cs5
 BYTE   W24
 BYTE   Bn3
 BYTE   N24  Bn4
 BYTE   W24
 BYTE   Bn3
 BYTE   N24  Bn4
 BYTE   W24
 BYTE   As3
 BYTE   N24  As4
 BYTE   W24
// 025   ----------------------------------------
Label_2_013DD047:
 BYTE   N06  Gs3  v080
 BYTE   W06
 BYTE   Ds4
 BYTE   W06
 BYTE   Gs4
 BYTE   W06
 BYTE   Ds5
 BYTE   W06
 BYTE   Gs5
 BYTE   W06
 BYTE   Ds5
 BYTE   W06
 BYTE   Gs4
 BYTE   W06
 BYTE   Ds4
 BYTE   W06
 BYTE   Gs3
 BYTE   W06
 BYTE   Ds4
 BYTE   W06
 BYTE   Gs4
 BYTE   W06
 BYTE   Ds5
 BYTE   W06
 BYTE   Gs5
 BYTE   W06
 BYTE   Ds5
 BYTE   W06
 BYTE   Gs4
 BYTE   W06
 BYTE   Ds4
 BYTE   W06
 BYTE   PEND 
 BYTE   PATT
  POIN2 Label_2_013DD047
// 026   ----------------------------------------
Label_2_013DD06F:
 BYTE   N12  Fs3  v080
 BYTE   N12  Fs4
 BYTE   W12
 BYTE   Gs3
 BYTE   N12  Gs4
 BYTE   W12
 BYTE   As3
 BYTE   N12  As4
 BYTE   W12
 BYTE   Bn3
 BYTE   N12  Bn4
 BYTE   W12
 BYTE   Cs4
 BYTE   N12  Cs5
 BYTE   W12
 BYTE   Bn3
 BYTE   N12  Bn4
 BYTE   W12
 BYTE   Cs4
 BYTE   N12  Cs5
 BYTE   W12
 BYTE   Ds4
 BYTE   N12  Ds5
 BYTE   W12
 BYTE   PEND 
// 027   ----------------------------------------
Label_2_013DD092:
 BYTE   N12  En4  v080
 BYTE   N12  En5
 BYTE   W12
 BYTE   Ds4
 BYTE   N12  Ds5
 BYTE   W12
 BYTE   En4
 BYTE   N12  En5
 BYTE   W12
 BYTE   Fs4
 BYTE   N12  Fs5
 BYTE   W12
 BYTE   Gs4
 BYTE   N12  Gs5
 BYTE   W12
 BYTE   As4
 BYTE   N12  As5
 BYTE   W12
 BYTE   Bn4
 BYTE   N12  Bn5
 BYTE   W12
 BYTE   Cn5
 BYTE   N12  Cn6
 BYTE   W12
 BYTE   PEND 
// 028   ----------------------------------------
 BYTE   VOICE   45
 BYTE   N48  Cs5  v060
 BYTE   N48  Cs6
 BYTE   W48
 BYTE   N24  Cs5
 BYTE   N24  Cs6
 BYTE   W24
 BYTE   Cn5
 BYTE   N24  Cn6
 BYTE   W24
// 029   ----------------------------------------
 BYTE   Cs5
 BYTE   N24  Cs6
 BYTE   W24
 BYTE   Cn5
 BYTE   N24  Cn6
 BYTE   W24
 BYTE   N48  Cs5
 BYTE   N48  Cs6
 BYTE   W44
 BYTE   W03
 BYTE   VOICE   48
 BYTE   W01
 BYTE   PATT
  POIN2 Label_2_013DD06F
 BYTE   PATT
  POIN2 Label_2_013DD092
// 030   ----------------------------------------
 BYTE   N48  Cs4  v080
 BYTE   N48  Cs5
 BYTE   W48
 BYTE   N24  Ds4
 BYTE   N24  Ds5
 BYTE   W24
 BYTE   En4
 BYTE   N24  En5
 BYTE   W24
// 031   ----------------------------------------
 BYTE   N96  Fs4
 BYTE   N96  Fs5
 BYTE   W96
// 032   ----------------------------------------
 BYTE   N48  Gs3
 BYTE   N48  Gs4
 BYTE   W48
 BYTE   N24  Gs3
 BYTE   N24  Gs4
 BYTE   W24
 BYTE   An3
 BYTE   N24  An4
 BYTE   W24
// 033   ----------------------------------------
 BYTE   Gs3
 BYTE   N24  Gs4
 BYTE   W24
 BYTE   Fs3
 BYTE   N24  Fs4
 BYTE   W24
 BYTE   N48  En3
 BYTE   N48  En4
 BYTE   W48
// 034   ----------------------------------------
 BYTE   Bn3
 BYTE   N48  Bn4
 BYTE   W48
 BYTE   N24  Bn3
 BYTE   N24  Bn4
 BYTE   W24
 BYTE   Cs4
 BYTE   N24  Cs5
 BYTE   W24
// 035   ----------------------------------------
 BYTE   N48  Bn3
 BYTE   N48  Bn4
 BYTE   W48
 BYTE   N24  An3
 BYTE   N24  An4
 BYTE   W24
 BYTE   Gs3
 BYTE   N24  Gs4
 BYTE   W24
// 036   ----------------------------------------
 BYTE   N48  An3
 BYTE   N48  An4
 BYTE   W48
 BYTE   N24  Fs3
 BYTE   N24  Fs4
 BYTE   W24
 BYTE   Gs3
 BYTE   N24  Gs4
 BYTE   W24
// 037   ----------------------------------------
 BYTE   N48  An3
 BYTE   N48  An4
 BYTE   W48
 BYTE   N24  Gs3
 BYTE   N24  Gs4
 BYTE   W24
 BYTE   Fs3
 BYTE   N24  Fs4
 BYTE   W24
// 038   ----------------------------------------
 BYTE   Fs3
 BYTE   N24  Fs4
 BYTE   W24
 BYTE   En3
 BYTE   N24  En4
 BYTE   W24
 BYTE   N96  Gs3
 BYTE   N96  Gs4
 BYTE   W48
// 039   ----------------------------------------
 BYTE   W48
 BYTE   N06  Gn3
 BYTE   N06  Gn4
 BYTE   W06
 BYTE   An3
 BYTE   N06  An4
 BYTE   W06
 BYTE   Bn3
 BYTE   N06  Bn4
 BYTE   W06
 BYTE   Cn4
 BYTE   N06  Cn5
 BYTE   W06
 BYTE   Dn4
 BYTE   N06  Dn5
 BYTE   W06
 BYTE   En4
 BYTE   N06  En5
 BYTE   W06
 BYTE   Fn4
 BYTE   N06  Fn5
 BYTE   W06
 BYTE   Gn4
 BYTE   N06  Gn5
 BYTE   W06
// 040   ----------------------------------------
 BYTE   N48  Gs4
 BYTE   N48  Gs5
 BYTE   W48
 BYTE   N24  Gs4
 BYTE   N24  Gs5
 BYTE   W24
 BYTE   An4
 BYTE   N24  An5
 BYTE   W24
// 041   ----------------------------------------
 BYTE   Gs4
 BYTE   N24  Gs5
 BYTE   W24
 BYTE   Fs4
 BYTE   N24  Fs5
 BYTE   W24
 BYTE   N48  En4
 BYTE   N48  En5
 BYTE   W48
// 042   ----------------------------------------
 BYTE   Bn4
 BYTE   N48  Bn5
 BYTE   W48
 BYTE   N24  Bn4
 BYTE   N24  Bn5
 BYTE   W24
 BYTE   Cs5
 BYTE   N24  Cs6
 BYTE   W24
// 043   ----------------------------------------
 BYTE   N48  Bn4
 BYTE   N48  Bn5
 BYTE   W48
 BYTE   N24  An4
 BYTE   N24  An5
 BYTE   W24
 BYTE   Gs4
 BYTE   N24  Gs5
 BYTE   W24
// 044   ----------------------------------------
 BYTE   N48  An4
 BYTE   N48  An5
 BYTE   W48
 BYTE   N24  Fs4
 BYTE   N24  Fs5
 BYTE   W24
 BYTE   Gs4
 BYTE   N24  Gs5
 BYTE   W24
// 045   ----------------------------------------
 BYTE   N48  An4
 BYTE   N48  An5
 BYTE   W48
 BYTE   N24  Gs4
 BYTE   N24  Gs5
 BYTE   W24
 BYTE   Fs4
 BYTE   N24  Fs5
 BYTE   W24
// 046   ----------------------------------------
 BYTE   N96  En4
 BYTE   N96  En5
 BYTE   W96
// 047   ----------------------------------------
 BYTE   W48
 BYTE   GoTo
  POIN2 Label_2_013DCE76
 BYTE   FINE

//**************** Track 4 (Midi-Chn.3) ****************//

SuperSmashBrosBrawlMenuMrGreen3339_004:
// 000   ----------------------------------------
 BYTE   KEYSH   SuperSmashBrosBrawlMenuMrGreen3339_key+0
Label_3_013DD1D6:
 BYTE   VOICE   48
 BYTE   VOL   51*SuperSmashBrosBrawlMenuMrGreen3339_mvl/mxv
 BYTE   PAN   c_v+38
 BYTE   W48
 BYTE   VOICE   48
 BYTE   N04  Cs1  v080
 BYTE   N04  Cs2  v112
 BYTE   W12
 BYTE   Cs1  v080
 BYTE   N04  Cs2  v112
 BYTE   W12
 BYTE   Cs1  v080
 BYTE   N04  Cs2  v112
 BYTE   W12
 BYTE   Cs1  v080
 BYTE   N04  Cs2  v112
 BYTE   W12
// 001   ----------------------------------------
 BYTE   Cs1  v080
 BYTE   N04  Cs2  v112
 BYTE   W12
 BYTE   Cs1  v080
 BYTE   N04  Cs2  v112
 BYTE   W12
 BYTE   Cs1  v080
 BYTE   N04  Cs2  v112
 BYTE   W12
 BYTE   Cs1  v080
 BYTE   N04  Cs2  v112
 BYTE   W12
Label_3_013DD210:
 BYTE   N04  Cs1  v080
 BYTE   N04  Cs2  v112
 BYTE   W12
 BYTE   Cs1  v080
 BYTE   N04  Cs2  v112
 BYTE   W12
 BYTE   Cs1  v080
 BYTE   N04  Cs2  v112
 BYTE   W12
 BYTE   Cs1  v080
 BYTE   N04  Cs2  v112
 BYTE   W12
// 002   ----------------------------------------
 BYTE   N18  Fs0  v080
 BYTE   N18  Fs1  v112
 BYTE   W24
 BYTE   N24  Bn0  v080
 BYTE   N24  Bn1  v112
 BYTE   W24
 BYTE   PEND 
Label_3_013DD238:
 BYTE   N04  Cs1  v080
 BYTE   N04  Cs2  v112
 BYTE   W12
 BYTE   Cs1  v080
 BYTE   N04  Cs2  v112
 BYTE   W12
 BYTE   Cs1  v080
 BYTE   N04  Cs2  v112
 BYTE   W12
 BYTE   Cs1  v080
 BYTE   N04  Cs2  v112
 BYTE   W12
// 003   ----------------------------------------
 BYTE   Cs1  v080
 BYTE   N04  Cs2  v112
 BYTE   W12
 BYTE   Cs1  v080
 BYTE   N04  Cs2  v112
 BYTE   W12
 BYTE   Cs1  v080
 BYTE   N04  Cs2  v112
 BYTE   W12
 BYTE   Cs1  v080
 BYTE   N04  Cs2  v112
 BYTE   W12
 BYTE   PEND 
 BYTE   PATT
  POIN2 Label_3_013DD210
 BYTE   PATT
  POIN2 Label_3_013DD238
// 004   ----------------------------------------
 BYTE   N30  An0  v080
 BYTE   N30  An1  v112
 BYTE   W36
 BYTE   N09  An0  v080
 BYTE   N09  An1  v112
 BYTE   W12
 BYTE   N42  Bn0  v080
 BYTE   N42  Bn1  v112
 BYTE   W48
 BYTE   PATT
  POIN2 Label_3_013DD238
 BYTE   PATT
  POIN2 Label_3_013DD210
 BYTE   PATT
  POIN2 Label_3_013DD238
 BYTE   PATT
  POIN2 Label_3_013DD210
 BYTE   PATT
  POIN2 Label_3_013DD238
 BYTE   PATT
  POIN2 Label_3_013DD210
 BYTE   PATT
  POIN2 Label_3_013DD238
// 005   ----------------------------------------
 BYTE   N30  Fs0  v080
 BYTE   N30  Fs1  v112
 BYTE   W36
 BYTE   N09  Fs0  v080
 BYTE   N09  Fs1  v112
 BYTE   W12
 BYTE   N42  Gs0  v080
 BYTE   N42  Gs1  v112
 BYTE   W48
 BYTE   PATT
  POIN2 Label_3_013DD238
// 006   ----------------------------------------
 BYTE   N24  Cs1  v080
 BYTE   N24  Cs2  v112
 BYTE   W24
 BYTE   Ds1  v080
 BYTE   N24  Ds2  v112
 BYTE   W24
 BYTE   N48  En1  v080
 BYTE   N48  En2  v112
 BYTE   W48
// 007   ----------------------------------------
 BYTE   N96  Ds1  v080
 BYTE   N48  Ds2  v112
 BYTE   W48
 BYTE   N24  En2
 BYTE   W24
 BYTE   Fs2
 BYTE   W24
// 008   ----------------------------------------
 BYTE   N96  Gs1  v080
 BYTE   N24  Fs2  v112
 BYTE   W24
 BYTE   En2
 BYTE   W24
 BYTE   N48  Ds2
 BYTE   W48
// 009   ----------------------------------------
 BYTE   TIE  Cs1  v080
 BYTE   N24  Ds2  v112
 BYTE   W24
 BYTE   Cs2
 BYTE   W24
 BYTE   TIE
 BYTE   W48
// 010   ----------------------------------------
 BYTE   W96
// 011   ----------------------------------------
 BYTE   EOT
 BYTE   Cs1  v049
 BYTE   N96  As0  v080
 BYTE   N48  As1  v112
 BYTE   W48
 BYTE   An1
 BYTE   W48
// 012   ----------------------------------------
 BYTE   N96  Gs0  v080
 BYTE   N48  Gs1  v112
 BYTE   W48
 BYTE   Cn2
 BYTE   W48
// 013   ----------------------------------------
 BYTE   Cs1  v080
 BYTE   N24  Cs2  v112
 BYTE   W24
 BYTE   Ds2
 BYTE   W24
 BYTE   N48  En1  v080
 BYTE   N24  En2  v112
 BYTE   W24
 BYTE   Ds2
 BYTE   W24
// 014   ----------------------------------------
 BYTE   N48  En1  v080
 BYTE   N24  En2  v112
 BYTE   W24
 BYTE   Fs2
 BYTE   W24
 BYTE   N48  Gs1  v080
 BYTE   N24  Gs2  v112
 BYTE   W24
 BYTE   As2
 BYTE   W24
// 015   ----------------------------------------
Label_3_013DD336:
 BYTE   N04  Bn0  v092
 BYTE   N04  Bn1  v112
 BYTE   W12
 BYTE   Bn0  v092
 BYTE   N04  Bn1  v112
 BYTE   W12
 BYTE   Bn0  v092
 BYTE   N04  Bn1  v112
 BYTE   W12
 BYTE   Bn0  v092
 BYTE   N04  Bn1  v112
 BYTE   W12
 BYTE   Bn0  v092
 BYTE   N04  Bn1  v112
 BYTE   W12
 BYTE   Bn0  v092
 BYTE   N04  Bn1  v112
 BYTE   W12
 BYTE   Bn0  v092
 BYTE   N04  Bn1  v112
 BYTE   W12
 BYTE   Bn0  v092
 BYTE   N04  Bn1  v112
 BYTE   W12
 BYTE   PEND 
 BYTE   PATT
  POIN2 Label_3_013DD336
// 016   ----------------------------------------
Label_3_013DD36D:
 BYTE   N04  En1  v092
 BYTE   N04  En2  v112
 BYTE   W12
 BYTE   En1  v092
 BYTE   N04  En2  v112
 BYTE   W12
 BYTE   En1  v092
 BYTE   N04  En2  v112
 BYTE   W12
 BYTE   En1  v092
 BYTE   N04  En2  v112
 BYTE   W12
 BYTE   En1  v092
 BYTE   N04  En2  v112
 BYTE   W12
 BYTE   En1  v092
 BYTE   N04  En2  v112
 BYTE   W12
 BYTE   En1  v092
 BYTE   N04  En2  v112
 BYTE   W12
 BYTE   En1  v092
 BYTE   N04  En2  v112
 BYTE   W12
 BYTE   PEND 
 BYTE   PATT
  POIN2 Label_3_013DD36D
// 017   ----------------------------------------
Label_3_013DD3A4:
 BYTE   N04  Ds1  v092
 BYTE   N04  Ds2  v112
 BYTE   W12
 BYTE   Ds1  v092
 BYTE   N04  Ds2  v112
 BYTE   W12
 BYTE   Ds1  v092
 BYTE   N04  Ds2  v112
 BYTE   W12
 BYTE   Ds1  v092
 BYTE   N04  Ds2  v112
 BYTE   W12
 BYTE   Ds1  v092
 BYTE   N04  Ds2  v112
 BYTE   W12
 BYTE   Ds1  v092
 BYTE   N04  Ds2  v112
 BYTE   W12
 BYTE   Ds1  v092
 BYTE   N04  Ds2  v112
 BYTE   W12
 BYTE   Ds1  v092
 BYTE   N04  Ds2  v112
 BYTE   W12
 BYTE   PEND 
 BYTE   PATT
  POIN2 Label_3_013DD3A4
// 018   ----------------------------------------
 BYTE   N44  Gs0  v072
 BYTE   N44  Gs1  v092
 BYTE   W48
 BYTE   Fs0  v072
 BYTE   N44  Fs1  v092
 BYTE   W48
// 019   ----------------------------------------
 BYTE   En0  v072
 BYTE   N44  En1  v092
 BYTE   W48
 BYTE   Ds0  v072
 BYTE   N44  Ds1  v092
 BYTE   W48
// 020   ----------------------------------------
Label_3_013DD3F4:
 BYTE   N12  Fs0  v072
 BYTE   N12  Fs1  v092
 BYTE   W12
 BYTE   Gs0  v072
 BYTE   N12  Gs1  v092
 BYTE   W12
 BYTE   As0  v072
 BYTE   N12  As1  v092
 BYTE   W12
 BYTE   Bn0  v072
 BYTE   N12  Bn1  v092
 BYTE   W12
 BYTE   Cs1  v072
 BYTE   N12  Cs2  v092
 BYTE   W12
 BYTE   Bn0  v072
 BYTE   N12  Bn1  v092
 BYTE   W12
 BYTE   Cs1  v072
 BYTE   N12  Cs2  v092
 BYTE   W12
 BYTE   Ds1  v072
 BYTE   N12  Ds2  v092
 BYTE   W12
 BYTE   PEND 
// 021   ----------------------------------------
Label_3_013DD426:
 BYTE   N12  En1  v072
 BYTE   N12  En2  v092
 BYTE   W12
 BYTE   Ds1  v072
 BYTE   N12  Ds2  v092
 BYTE   W12
 BYTE   En1  v072
 BYTE   N12  En2  v092
 BYTE   W12
 BYTE   Fs1  v072
 BYTE   N12  Fs2  v092
 BYTE   W12
 BYTE   Gs1  v072
 BYTE   N12  Gs2  v092
 BYTE   W12
 BYTE   As1  v072
 BYTE   N12  As2  v092
 BYTE   W12
 BYTE   Bn1  v072
 BYTE   N12  Bn2  v092
 BYTE   W12
 BYTE   Cn2  v072
 BYTE   N12  Cn3  v092
 BYTE   W12
 BYTE   PEND 
// 022   ----------------------------------------
 BYTE   VOICE   45
 BYTE   N48  Cs2  v072
 BYTE   N48  Cs3  v092
 BYTE   W48
 BYTE   N24  Cs2  v072
 BYTE   N24  Cs3  v092
 BYTE   W24
 BYTE   Cn2  v072
 BYTE   N24  Cn3  v092
 BYTE   W24
// 023   ----------------------------------------
 BYTE   Bn1  v072
 BYTE   N24  Bn2  v092
 BYTE   W24
 BYTE   An1  v072
 BYTE   N24  An2  v092
 BYTE   W24
 BYTE   N48  Gs1  v072
 BYTE   N48  Gs2  v092
 BYTE   W44
 BYTE   W03
 BYTE   VOICE   48
 BYTE   W01
 BYTE   PATT
  POIN2 Label_3_013DD3F4
 BYTE   PATT
  POIN2 Label_3_013DD426
// 024   ----------------------------------------
 BYTE   N24  Cs2  v080
 BYTE   W24
 BYTE   Bn1
 BYTE   W24
 BYTE   An1
 BYTE   W24
 BYTE   Gs1
 BYTE   W24
// 025   ----------------------------------------
 BYTE   Fs1
 BYTE   W24
 BYTE   En1
 BYTE   W24
 BYTE   Ds1
 BYTE   W24
 BYTE   Bn0
 BYTE   W24
// 026   ----------------------------------------
 BYTE   TIE  En1  v100
 BYTE   W96
// 027   ----------------------------------------
 BYTE   W96
// 028   ----------------------------------------
 BYTE   EOT
 BYTE   N96  Ds1
 BYTE   W96
// 029   ----------------------------------------
 BYTE   Dn1
 BYTE   W96
// 030   ----------------------------------------
 BYTE   Cs1
 BYTE   W96
// 031   ----------------------------------------
 BYTE   Cn1
 BYTE   W96
// 032   ----------------------------------------
 BYTE   En1
 BYTE   W96
// 033   ----------------------------------------
 BYTE   Bn0
 BYTE   W96
// 034   ----------------------------------------
 BYTE   TIE  En1  v080
 BYTE   TIE  En2
 BYTE   W96
// 035   ----------------------------------------
 BYTE   W96
// 036   ----------------------------------------
 BYTE   EOT
 BYTE   En1  v052
 BYTE   N96  Ds1
 BYTE   N96  Ds2
 BYTE   W96
// 037   ----------------------------------------
 BYTE   Dn1
 BYTE   N96  Dn2
 BYTE   W96
// 038   ----------------------------------------
 BYTE   Cs1
 BYTE   N96  Cs2
 BYTE   W96
// 039   ----------------------------------------
 BYTE   Cn1
 BYTE   N96  Cn2
 BYTE   W96
// 040   ----------------------------------------
 BYTE   Cs1
 BYTE   N96  Cs2
 BYTE   W96
// 041   ----------------------------------------
 BYTE   N48  Ds1
 BYTE   N48  Ds2
 BYTE   W48
 BYTE   GoTo
  POIN2 Label_3_013DD1D6
 BYTE   FINE

//**************** Track 5 (Midi-Chn.4) ****************//

SuperSmashBrosBrawlMenuMrGreen3339_005:
// 000   ----------------------------------------
 BYTE   KEYSH   SuperSmashBrosBrawlMenuMrGreen3339_key+0
Label_4_013DD4E2:
 BYTE   VOICE   13
 BYTE   VOL   51*SuperSmashBrosBrawlMenuMrGreen3339_mvl/mxv
 BYTE   PAN   c_v+37
 BYTE   W44
 BYTE   W03
 BYTE   VOICE   13
 BYTE   W01
Label_4_013DD4ED:
 BYTE   N03  Cs2  v032
 BYTE   W12
 BYTE   N03
 BYTE   W12
 BYTE   N03
 BYTE   W12
 BYTE   N03
 BYTE   W12
// 001   ----------------------------------------
 BYTE   N03
 BYTE   W12
 BYTE   N03
 BYTE   W12
 BYTE   N03
 BYTE   W12
 BYTE   N03
 BYTE   W12
 BYTE   PEND 
Label_4_013DD500:
 BYTE   N03  Cs2  v032
 BYTE   W12
 BYTE   N03
 BYTE   W12
 BYTE   N03
 BYTE   W12
 BYTE   N03
 BYTE   W60
 BYTE   PEND 
 BYTE   PATT
  POIN2 Label_4_013DD4ED
 BYTE   PATT
  POIN2 Label_4_013DD500
 BYTE   PATT
  POIN2 Label_4_013DD4ED
// 002   ----------------------------------------
 BYTE   W96
 BYTE   PATT
  POIN2 Label_4_013DD4ED
 BYTE   PATT
  POIN2 Label_4_013DD500
 BYTE   PATT
  POIN2 Label_4_013DD4ED
 BYTE   PATT
  POIN2 Label_4_013DD500
 BYTE   PATT
  POIN2 Label_4_013DD4ED
 BYTE   PATT
  POIN2 Label_4_013DD500
 BYTE   PATT
  POIN2 Label_4_013DD4ED
// 003   ----------------------------------------
 BYTE   W96
 BYTE   PATT
  POIN2 Label_4_013DD4ED
// 004   ----------------------------------------
 BYTE   W96
// 005   ----------------------------------------
 BYTE   W96
// 006   ----------------------------------------
 BYTE   W96
// 007   ----------------------------------------
 BYTE   W96
// 008   ----------------------------------------
 BYTE   W96
// 009   ----------------------------------------
 BYTE   W96
// 010   ----------------------------------------
 BYTE   W96
// 011   ----------------------------------------
 BYTE   W96
// 012   ----------------------------------------
 BYTE   W96
// 013   ----------------------------------------
 BYTE   W96
// 014   ----------------------------------------
 BYTE   W96
// 015   ----------------------------------------
 BYTE   W96
// 016   ----------------------------------------
 BYTE   W96
// 017   ----------------------------------------
 BYTE   W96
// 018   ----------------------------------------
 BYTE   W96
// 019   ----------------------------------------
 BYTE   W96
// 020   ----------------------------------------
 BYTE   W96
// 021   ----------------------------------------
 BYTE   W96
// 022   ----------------------------------------
 BYTE   W96
// 023   ----------------------------------------
 BYTE   W96
// 024   ----------------------------------------
 BYTE   W96
// 025   ----------------------------------------
 BYTE   W96
// 026   ----------------------------------------
 BYTE   W68
 BYTE   W03
 BYTE   VOICE   124
 BYTE   W24
 BYTE   W01
// 027   ----------------------------------------
 BYTE   W96
// 028   ----------------------------------------
 BYTE   W48
 BYTE   BEND   c_v+63
 BYTE   TIE  Cn4  v040
 BYTE   W01
 BYTE   BEND   c_v+62
 BYTE   W02
 BYTE   En8
 BYTE   W01
 BYTE   Dn8
 BYTE   W02
 BYTE   Cn8
 BYTE   W01
 BYTE   As7
 BYTE   W02
 BYTE   Gs7
 BYTE   W01
 BYTE   Fs7
 BYTE   W02
 BYTE   En7
 BYTE   W01
 BYTE   Dn7
 BYTE   W02
 BYTE   Cn7
 BYTE   W01
 BYTE   As6
 BYTE   W02
 BYTE   Gs6
 BYTE   W01
 BYTE   Fs6
 BYTE   W02
 BYTE   En6
 BYTE   W01
 BYTE   Dn6
 BYTE   W02
 BYTE   Cn6
 BYTE   W01
 BYTE   As5
 BYTE   W02
 BYTE   Gs5
 BYTE   W01
 BYTE   Fs5
 BYTE   W02
 BYTE   En5
 BYTE   W01
 BYTE   Dn5
 BYTE   W02
 BYTE   Cn5
 BYTE   W01
 BYTE   As4
 BYTE   W02
 BYTE   Gs4
 BYTE   W01
 BYTE   Fs4
 BYTE   W02
 BYTE   En4
 BYTE   W01
 BYTE   Dn4
 BYTE   W02
 BYTE   Cn4
 BYTE   W01
 BYTE   As3
 BYTE   W02
 BYTE   Gs3
 BYTE   W01
 BYTE   Fs3
 BYTE   W02
// 029   ----------------------------------------
 BYTE   En3
 BYTE   W01
 BYTE   Dn3
 BYTE   W02
 BYTE   Cn3
 BYTE   W01
 BYTE   As2
 BYTE   W02
 BYTE   Gs2
 BYTE   W01
 BYTE   Fs2
 BYTE   W02
 BYTE   En2
 BYTE   W01
 BYTE   Dn2
 BYTE   W02
 BYTE   Cn2
 BYTE   W01
 BYTE   As1
 BYTE   W02
 BYTE   Gs1
 BYTE   W01
 BYTE   Fs1
 BYTE   W02
 BYTE   En1
 BYTE   W01
 BYTE   Dn1
 BYTE   W02
 BYTE   Cn1
 BYTE   W01
 BYTE   As0
 BYTE   W02
 BYTE   Gs0
 BYTE   W01
 BYTE   Fs0
 BYTE   W02
 BYTE   En0
 BYTE   W01
 BYTE   Dn0
 BYTE   W02
 BYTE   Cn0
 BYTE   W01
 BYTE   AsM1
 BYTE   W02
 BYTE   GsM1
 BYTE   W01
 BYTE   FsM1
 BYTE   W02
 BYTE   EnM1
 BYTE   W01
 BYTE   DnM1
 BYTE   W02
 BYTE   CnM1
 BYTE   W01
 BYTE   AsM2
 BYTE   W02
 BYTE   GsM2
 BYTE   W01
 BYTE   FsM2
 BYTE   W02
 BYTE   EnM2
 BYTE   W01
 BYTE   DnM2
 BYTE   W02
 BYTE   W03
 BYTE   W03
 BYTE   W03
 BYTE   W03
 BYTE   W03
 BYTE   W03
 BYTE   W03
 BYTE   W03
 BYTE   W03
 BYTE   W03
 BYTE   W03
 BYTE   W03
 BYTE   W03
 BYTE   W03
 BYTE   W03
 BYTE   W03
// 030   ----------------------------------------
 BYTE   W03
 BYTE   W03
 BYTE   W03
 BYTE   W03
 BYTE   W03
 BYTE   W03
 BYTE   W03
 BYTE   W03
 BYTE   W03
 BYTE   W03
 BYTE   W03
 BYTE   W03
 BYTE   W03
 BYTE   W03
 BYTE   W03
 BYTE   W03
 BYTE   W03
 BYTE   W03
 BYTE   W03
 BYTE   W03
 BYTE   W03
 BYTE   W03
 BYTE   W03
 BYTE   W03
 BYTE   W03
 BYTE   W03
 BYTE   W03
 BYTE   W03
 BYTE   W03
 BYTE   W03
 BYTE   W03
 BYTE   W03
// 031   ----------------------------------------
 BYTE   EOT
 BYTE   BEND   c_v-62
 BYTE   W96
// 032   ----------------------------------------
 BYTE   W96
// 033   ----------------------------------------
 BYTE   W96
// 034   ----------------------------------------
 BYTE   W96
// 035   ----------------------------------------
 BYTE   W96
// 036   ----------------------------------------
 BYTE   W96
// 037   ----------------------------------------
 BYTE   W96
// 038   ----------------------------------------
 BYTE   W96
// 039   ----------------------------------------
 BYTE   W96
// 040   ----------------------------------------
 BYTE   W96
// 041   ----------------------------------------
 BYTE   W96
// 042   ----------------------------------------
 BYTE   W96
// 043   ----------------------------------------
 BYTE   W96
// 044   ----------------------------------------
 BYTE   W48
 BYTE   GoTo
  POIN2 Label_4_013DD4E2
 BYTE   FINE

//**************** Track 6 (Midi-Chn.5) ****************//

SuperSmashBrosBrawlMenuMrGreen3339_006:
// 000   ----------------------------------------
 BYTE   KEYSH   SuperSmashBrosBrawlMenuMrGreen3339_key+0
Label_5_013DD632:
 BYTE   VOICE   14
 BYTE   VOL   51*SuperSmashBrosBrawlMenuMrGreen3339_mvl/mxv
 BYTE   PAN   c_v+0
 BYTE   W48
 BYTE   N06  Cs4  v072
 BYTE   W96
// 001   ----------------------------------------
 BYTE   W96
// 002   ----------------------------------------
 BYTE   W96
// 003   ----------------------------------------
 BYTE   W96
// 004   ----------------------------------------
 BYTE   W96
// 005   ----------------------------------------
 BYTE   W96
// 006   ----------------------------------------
 BYTE   W96
// 007   ----------------------------------------
 BYTE   W96
// 008   ----------------------------------------
 BYTE   W96
// 009   ----------------------------------------
 BYTE   W96
// 010   ----------------------------------------
 BYTE   W96
// 011   ----------------------------------------
 BYTE   W96
// 012   ----------------------------------------
 BYTE   W96
// 013   ----------------------------------------
 BYTE   W96
// 014   ----------------------------------------
 BYTE   W96
// 015   ----------------------------------------
 BYTE   W96
// 016   ----------------------------------------
 BYTE   N24  Ds4
 BYTE   W96
// 017   ----------------------------------------
 BYTE   Fs4
 BYTE   W96
// 018   ----------------------------------------
 BYTE   W96
// 019   ----------------------------------------
 BYTE   W96
// 020   ----------------------------------------
 BYTE   Ds4
 BYTE   W48
 BYTE   Fn4
 BYTE   W48
// 021   ----------------------------------------
 BYTE   Fs4
 BYTE   W24
 BYTE   En4
 BYTE   W24
 BYTE   Ds4
 BYTE   W48
// 022   ----------------------------------------
 BYTE   En4
 BYTE   W24
 BYTE   Fs4
 BYTE   W24
 BYTE   Gs4
 BYTE   W48
// 023   ----------------------------------------
 BYTE   W96
// 024   ----------------------------------------
 BYTE   W96
// 025   ----------------------------------------
 BYTE   W96
// 026   ----------------------------------------
 BYTE   W96
// 027   ----------------------------------------
 BYTE   W96
// 028   ----------------------------------------
 BYTE   W96
// 029   ----------------------------------------
 BYTE   W96
// 030   ----------------------------------------
 BYTE   W96
// 031   ----------------------------------------
 BYTE   W96
// 032   ----------------------------------------
 BYTE   W96
// 033   ----------------------------------------
 BYTE   W96
// 034   ----------------------------------------
 BYTE   W96
// 035   ----------------------------------------
 BYTE   W96
// 036   ----------------------------------------
 BYTE   W96
// 037   ----------------------------------------
 BYTE   W96
// 038   ----------------------------------------
 BYTE   W96
// 039   ----------------------------------------
 BYTE   W96
// 040   ----------------------------------------
 BYTE   Gs3
 BYTE   W96
// 041   ----------------------------------------
 BYTE   W96
// 042   ----------------------------------------
 BYTE   Cn4
 BYTE   W96
// 043   ----------------------------------------
 BYTE   Bn3
 BYTE   W96
// 044   ----------------------------------------
 BYTE   An3
 BYTE   W96
// 045   ----------------------------------------
 BYTE   N24
 BYTE   W96
// 046   ----------------------------------------
 BYTE   Gs3
 BYTE   W96
// 047   ----------------------------------------
 BYTE   Bn3
 BYTE   W96
// 048   ----------------------------------------
 BYTE   N24
 BYTE   W96
// 049   ----------------------------------------
 BYTE   An3
 BYTE   W96
// 050   ----------------------------------------
 BYTE   N24
 BYTE   W96
// 051   ----------------------------------------
 BYTE   Gs3
 BYTE   W96
// 052   ----------------------------------------
 BYTE   Bn3
 BYTE   W96
// 053   ----------------------------------------
 BYTE   W96
// 054   ----------------------------------------
 BYTE   W96
// 055   ----------------------------------------
 BYTE   W48
 BYTE   GoTo
  POIN2 Label_5_013DD632
 BYTE   FINE

//**************** Track 7 (Midi-Chn.6) ****************//

SuperSmashBrosBrawlMenuMrGreen3339_007:
// 000   ----------------------------------------
 BYTE   KEYSH   SuperSmashBrosBrawlMenuMrGreen3339_key+0
Label_6_013DD69A:
 BYTE   VOICE   73
 BYTE   VOL   51*SuperSmashBrosBrawlMenuMrGreen3339_mvl/mxv
 BYTE   W48
 BYTE   W96
// 001   ----------------------------------------
 BYTE   W96
// 002   ----------------------------------------
 BYTE   W96
// 003   ----------------------------------------
 BYTE   W96
// 004   ----------------------------------------
 BYTE   W96
// 005   ----------------------------------------
 BYTE   W96
// 006   ----------------------------------------
 BYTE   W96
// 007   ----------------------------------------
 BYTE   W96
// 008   ----------------------------------------
 BYTE   W96
// 009   ----------------------------------------
 BYTE   W96
// 010   ----------------------------------------
 BYTE   W96
// 011   ----------------------------------------
 BYTE   W96
// 012   ----------------------------------------
 BYTE   W96
// 013   ----------------------------------------
 BYTE   W96
// 014   ----------------------------------------
 BYTE   W96
// 015   ----------------------------------------
 BYTE   W96
// 016   ----------------------------------------
 BYTE   N48  Ds4  v060
 BYTE   W48
 BYTE   N24  En4
 BYTE   W24
 BYTE   Fs4
 BYTE   W24
// 017   ----------------------------------------
 BYTE   N24
 BYTE   W24
 BYTE   En4
 BYTE   W24
 BYTE   N48  Ds4
 BYTE   W48
// 018   ----------------------------------------
 BYTE   N24
 BYTE   W24
 BYTE   Cs4
 BYTE   W24
 BYTE   TIE
 BYTE   W48
// 019   ----------------------------------------
 BYTE   W96
// 020   ----------------------------------------
 BYTE   EOT
 BYTE   N48  Ds4  v052
 BYTE   W48
 BYTE   N24  En4
 BYTE   W24
 BYTE   Fs4
 BYTE   W24
// 021   ----------------------------------------
 BYTE   N24
 BYTE   W24
 BYTE   En4
 BYTE   W24
 BYTE   N48  Ds4
 BYTE   W48
// 022   ----------------------------------------
 BYTE   N24  En4  v040
 BYTE   W24
 BYTE   Fs4
 BYTE   W24
 BYTE   TIE  Gs4
 BYTE   W48
// 023   ----------------------------------------
 BYTE   W96
// 024   ----------------------------------------
 BYTE   EOT
 BYTE   N48  Fs3  v052
 BYTE   W48
 BYTE   N24  Gs3
 BYTE   W24
 BYTE   An3
 BYTE   W24
// 025   ----------------------------------------
 BYTE   N24
 BYTE   W24
 BYTE   Gs3
 BYTE   W24
 BYTE   N48  Fs3
 BYTE   W48
// 026   ----------------------------------------
 BYTE   Gs3
 BYTE   W48
 BYTE   N24  An3
 BYTE   W24
 BYTE   Bn3
 BYTE   W24
// 027   ----------------------------------------
 BYTE   N24
 BYTE   W24
 BYTE   An3
 BYTE   W24
 BYTE   N48  Gs3
 BYTE   W48
// 028   ----------------------------------------
 BYTE   As3
 BYTE   W48
 BYTE   N24  Bn3
 BYTE   W24
 BYTE   Cs4
 BYTE   W24
// 029   ----------------------------------------
 BYTE   N24
 BYTE   W24
 BYTE   Bn3
 BYTE   W24
 BYTE   N24
 BYTE   W24
 BYTE   As3
 BYTE   W24
// 030   ----------------------------------------
 BYTE   W96
// 031   ----------------------------------------
 BYTE   W96
// 032   ----------------------------------------
 BYTE   W96
// 033   ----------------------------------------
 BYTE   W96
// 034   ----------------------------------------
 BYTE   W96
// 035   ----------------------------------------
 BYTE   W96
// 036   ----------------------------------------
 BYTE   W96
// 037   ----------------------------------------
 BYTE   W96
// 038   ----------------------------------------
 BYTE   W96
// 039   ----------------------------------------
 BYTE   W96
// 040   ----------------------------------------
 BYTE   N72  Bn3  v040
 BYTE   W72
 BYTE   W03
 BYTE   N21  Cs4
 BYTE   W21
// 041   ----------------------------------------
 BYTE   N24  Bn3
 BYTE   W24
 BYTE   An3
 BYTE   W24
 BYTE   N48  Gs3
 BYTE   W48
// 042   ----------------------------------------
 BYTE   N96  Ds4
 BYTE   W96
// 043   ----------------------------------------
 BYTE   Dn4
 BYTE   W96
// 044   ----------------------------------------
 BYTE   Cs4
 BYTE   W96
// 045   ----------------------------------------
 BYTE   N48  Cn4
 BYTE   W48
 BYTE   N24  Bn3
 BYTE   W24
 BYTE   An3
 BYTE   W24
// 046   ----------------------------------------
 BYTE   N24
 BYTE   W24
 BYTE   Gs3
 BYTE   W24
 BYTE   N48  Bn3
 BYTE   W48
// 047   ----------------------------------------
 BYTE   W96
// 048   ----------------------------------------
 BYTE   W96
// 049   ----------------------------------------
 BYTE   W96
// 050   ----------------------------------------
 BYTE   W96
// 051   ----------------------------------------
 BYTE   W96
// 052   ----------------------------------------
 BYTE   W96
// 053   ----------------------------------------
 BYTE   W96
// 054   ----------------------------------------
 BYTE   W96
// 055   ----------------------------------------
 BYTE   W48
 BYTE   GoTo
  POIN2 Label_6_013DD69A
 BYTE   FINE

//**************** Track 8 (Midi-Chn.7) ****************//

SuperSmashBrosBrawlMenuMrGreen3339_008:
// 000   ----------------------------------------
 BYTE   KEYSH   SuperSmashBrosBrawlMenuMrGreen3339_key+0
Label_7_013DD752:
 BYTE   VOICE   73
 BYTE   VOL   51*SuperSmashBrosBrawlMenuMrGreen3339_mvl/mxv
 BYTE   W48
 BYTE   W96
// 001   ----------------------------------------
 BYTE   W96
// 002   ----------------------------------------
 BYTE   W96
// 003   ----------------------------------------
 BYTE   W96
// 004   ----------------------------------------
 BYTE   W96
// 005   ----------------------------------------
 BYTE   W96
// 006   ----------------------------------------
 BYTE   W96
// 007   ----------------------------------------
 BYTE   W96
// 008   ----------------------------------------
 BYTE   W96
// 009   ----------------------------------------
 BYTE   W96
// 010   ----------------------------------------
 BYTE   W96
// 011   ----------------------------------------
 BYTE   W96
// 012   ----------------------------------------
 BYTE   W96
// 013   ----------------------------------------
 BYTE   W96
// 014   ----------------------------------------
 BYTE   W96
// 015   ----------------------------------------
 BYTE   W96
// 016   ----------------------------------------
 BYTE   N48  Ds4  v052
 BYTE   W48
 BYTE   N24  En4
 BYTE   W24
 BYTE   Fs4
 BYTE   W24
// 017   ----------------------------------------
 BYTE   N24
 BYTE   W24
 BYTE   En4
 BYTE   W24
 BYTE   N48  Ds4
 BYTE   W48
// 018   ----------------------------------------
 BYTE   N24
 BYTE   W24
 BYTE   Cs4
 BYTE   W24
 BYTE   TIE
 BYTE   W48
// 019   ----------------------------------------
 BYTE   W96
// 020   ----------------------------------------
 BYTE   EOT
 BYTE   N48  Ds4  v040
 BYTE   W48
 BYTE   N24  En4
 BYTE   W24
 BYTE   Fs4
 BYTE   W24
// 021   ----------------------------------------
 BYTE   N24
 BYTE   W24
 BYTE   En4
 BYTE   W24
 BYTE   N48  Ds4
 BYTE   W48
// 022   ----------------------------------------
 BYTE   N24  En4  v032
 BYTE   W24
 BYTE   Fs4
 BYTE   W24
 BYTE   TIE  Gs4
 BYTE   W48
// 023   ----------------------------------------
 BYTE   W96
// 024   ----------------------------------------
 BYTE   EOT
 BYTE   N48  Fs3  v040
 BYTE   W48
 BYTE   N24  Gs3
 BYTE   W24
 BYTE   An3
 BYTE   W24
// 025   ----------------------------------------
 BYTE   N24
 BYTE   W24
 BYTE   Gs3
 BYTE   W24
 BYTE   N48  Fs3
 BYTE   W48
// 026   ----------------------------------------
 BYTE   Gs3
 BYTE   W48
 BYTE   N24  An3
 BYTE   W24
 BYTE   Bn3
 BYTE   W24
// 027   ----------------------------------------
Label_7_013DD7B1:
 BYTE   N24  Bn3  v040
 BYTE   W24
 BYTE   An3
 BYTE   W24
 BYTE   N48  Gs3
 BYTE   W48
 BYTE   PEND 
// 028   ----------------------------------------
 BYTE   As3
 BYTE   W48
 BYTE   N24  Bn3
 BYTE   W24
 BYTE   Cs4
 BYTE   W24
// 029   ----------------------------------------
 BYTE   N24
 BYTE   W24
 BYTE   Bn3
 BYTE   W24
 BYTE   N24
 BYTE   W24
 BYTE   As3
 BYTE   W24
// 030   ----------------------------------------
 BYTE   W96
// 031   ----------------------------------------
 BYTE   W96
// 032   ----------------------------------------
 BYTE   W96
// 033   ----------------------------------------
 BYTE   W96
// 034   ----------------------------------------
 BYTE   W96
// 035   ----------------------------------------
 BYTE   W96
// 036   ----------------------------------------
 BYTE   W96
// 037   ----------------------------------------
 BYTE   W96
// 038   ----------------------------------------
 BYTE   W96
// 039   ----------------------------------------
 BYTE   W96
// 040   ----------------------------------------
Label_7_013DD7D4:
 BYTE   N72  Bn3  v040
 BYTE   W72
 BYTE   W03
 BYTE   N21  Cs4
 BYTE   W21
 BYTE   PEND 
 BYTE   PATT
  POIN2 Label_7_013DD7B1
// 041   ----------------------------------------
 BYTE   N96  Ds4  v040
 BYTE   W96
// 042   ----------------------------------------
 BYTE   Dn4
 BYTE   W96
// 043   ----------------------------------------
 BYTE   Cs4
 BYTE   W96
// 044   ----------------------------------------
Label_7_013DD7EA:
 BYTE   N48  Cn4  v040
 BYTE   W48
 BYTE   N24  Bn3
 BYTE   W24
 BYTE   An3
 BYTE   W24
 BYTE   PEND 
// 045   ----------------------------------------
Label_7_013DD7F4:
 BYTE   N24  An3  v040
 BYTE   W24
 BYTE   Gs3
 BYTE   W24
 BYTE   N48  Bn3
 BYTE   W48
 BYTE   PEND 
// 046   ----------------------------------------
 BYTE   W96
 BYTE   PATT
  POIN2 Label_7_013DD7D4
 BYTE   PATT
  POIN2 Label_7_013DD7B1
// 047   ----------------------------------------
 BYTE   N96  Ds4  v040
 BYTE   W96
// 048   ----------------------------------------
 BYTE   Dn4
 BYTE   W96
// 049   ----------------------------------------
 BYTE   Cs4
 BYTE   W96
 BYTE   PATT
  POIN2 Label_7_013DD7EA
 BYTE   PATT
  POIN2 Label_7_013DD7F4
// 050   ----------------------------------------
 BYTE   W48
 BYTE   GoTo
  POIN2 Label_7_013DD752
 BYTE   FINE

//**************** Track 9 (Midi-Chn.8) ****************//

SuperSmashBrosBrawlMenuMrGreen3339_009:
// 000   ----------------------------------------
 BYTE   KEYSH   SuperSmashBrosBrawlMenuMrGreen3339_key+0
Label_8_013DD826:
 BYTE   VOICE   47
 BYTE   VOL   51*SuperSmashBrosBrawlMenuMrGreen3339_mvl/mxv
 BYTE   W36
 BYTE   N06  Cs2  v060
 BYTE   W06
 BYTE   N06
 BYTE   W06
Label_8_013DD831:
 BYTE   N06  Cs2  v060
 BYTE   W36
 BYTE   N06
 BYTE   W36
// 001   ----------------------------------------
 BYTE   N06
 BYTE   W24
 BYTE   PEND 
Label_8_013DD83A:
 BYTE   W12
 BYTE   N06  Cs2  v060
 BYTE   W36
 BYTE   Ds2
 BYTE   W24
// 002   ----------------------------------------
 BYTE   Cn2
 BYTE   W24
 BYTE   PEND 
 BYTE   PATT
  POIN2 Label_8_013DD831
 BYTE   PATT
  POIN2 Label_8_013DD83A
 BYTE   PATT
  POIN2 Label_8_013DD831
// 003   ----------------------------------------
Label_8_013DD853:
 BYTE   N06  Cs2  v060
 BYTE   W48
 BYTE   N06
 BYTE   W48
 BYTE   PEND 
 BYTE   PATT
  POIN2 Label_8_013DD831
// 004   ----------------------------------------
 BYTE   W12
 BYTE   N06  Cs2  v060
 BYTE   W12
 BYTE   N06
 BYTE   W06
 BYTE   N06
 BYTE   W06
 BYTE   N06
 BYTE   W06
 BYTE   N06
 BYTE   W06
 BYTE   N06
 BYTE   W48
 BYTE   PATT
  POIN2 Label_8_013DD831
 BYTE   PATT
  POIN2 Label_8_013DD83A
 BYTE   PATT
  POIN2 Label_8_013DD831
 BYTE   PATT
  POIN2 Label_8_013DD83A
 BYTE   PATT
  POIN2 Label_8_013DD831
 BYTE   PATT
  POIN2 Label_8_013DD853
 BYTE   PATT
  POIN2 Label_8_013DD831
// 005   ----------------------------------------
 BYTE   W96
// 006   ----------------------------------------
 BYTE   W96
// 007   ----------------------------------------
 BYTE   W96
// 008   ----------------------------------------
 BYTE   W96
// 009   ----------------------------------------
 BYTE   W96
// 010   ----------------------------------------
 BYTE   W96
// 011   ----------------------------------------
 BYTE   W96
// 012   ----------------------------------------
 BYTE   W96
// 013   ----------------------------------------
 BYTE   W96
// 014   ----------------------------------------
 BYTE   N06  Bn1  v060
 BYTE   W36
 BYTE   N06
 BYTE   W36
 BYTE   N06
 BYTE   W24
// 015   ----------------------------------------
 BYTE   W12
 BYTE   N06
 BYTE   W24
 BYTE   N06
 BYTE   W24
 BYTE   N06
 BYTE   W36
// 016   ----------------------------------------
 BYTE   En2
 BYTE   W36
 BYTE   N06
 BYTE   W36
 BYTE   N06
 BYTE   W24
// 017   ----------------------------------------
 BYTE   W12
 BYTE   N06
 BYTE   W24
 BYTE   N06
 BYTE   W24
 BYTE   N06
 BYTE   W36
// 018   ----------------------------------------
 BYTE   Ds2
 BYTE   W36
 BYTE   N06
 BYTE   W36
 BYTE   N06
 BYTE   W24
// 019   ----------------------------------------
 BYTE   W12
 BYTE   N06
 BYTE   W24
 BYTE   N06
 BYTE   W24
 BYTE   N06
 BYTE   W36
// 020   ----------------------------------------
 BYTE   W96
// 021   ----------------------------------------
 BYTE   W96
// 022   ----------------------------------------
 BYTE   W96
// 023   ----------------------------------------
 BYTE   W96
// 024   ----------------------------------------
 BYTE   N24  Cs2
 BYTE   W48
 BYTE   N24
 BYTE   W24
 BYTE   Gs1
 BYTE   W24
// 025   ----------------------------------------
 BYTE   Cs2
 BYTE   W24
 BYTE   Gn1
 BYTE   W24
 BYTE   Cs2
 BYTE   W24
 BYTE   Fs1
 BYTE   W24
// 026   ----------------------------------------
 BYTE   N06
 BYTE   W96
// 027   ----------------------------------------
 BYTE   W96
// 028   ----------------------------------------
 BYTE   W96
// 029   ----------------------------------------
 BYTE   W96
// 030   ----------------------------------------
 BYTE   W96
// 031   ----------------------------------------
 BYTE   W96
// 032   ----------------------------------------
 BYTE   W96
// 033   ----------------------------------------
 BYTE   W96
// 034   ----------------------------------------
 BYTE   W96
// 035   ----------------------------------------
 BYTE   W96
// 036   ----------------------------------------
 BYTE   W96
// 037   ----------------------------------------
 BYTE   W48
 BYTE   N03  Bn1
 BYTE   W03
 BYTE   N03
 BYTE   W03
 BYTE   N03
 BYTE   W03
 BYTE   N03
 BYTE   W03
 BYTE   N03
 BYTE   W03
 BYTE   N03
 BYTE   W03
 BYTE   N03
 BYTE   W03
 BYTE   N03
 BYTE   W03
 BYTE   N03
 BYTE   W03
 BYTE   N03
 BYTE   W03
 BYTE   N03
 BYTE   W03
 BYTE   N03
 BYTE   W03
 BYTE   N03
 BYTE   W03
 BYTE   N03
 BYTE   W03
 BYTE   N03
 BYTE   W03
 BYTE   N03
 BYTE   W03
// 038   ----------------------------------------
 BYTE   N03
 BYTE   N72  Bn3
 BYTE   W72
 BYTE   W03
 BYTE   N21  Cs4
 BYTE   W21
// 039   ----------------------------------------
 BYTE   N24  Bn3
 BYTE   W24
 BYTE   An3
 BYTE   W24
 BYTE   N48  Gs3
 BYTE   W48
// 040   ----------------------------------------
 BYTE   N96  Ds4
 BYTE   W96
// 041   ----------------------------------------
 BYTE   Dn4
 BYTE   W96
// 042   ----------------------------------------
 BYTE   Cs4
 BYTE   W96
// 043   ----------------------------------------
 BYTE   N48  Cn4
 BYTE   W48
 BYTE   N24  Bn3
 BYTE   W24
 BYTE   An3
 BYTE   W24
// 044   ----------------------------------------
 BYTE   N24
 BYTE   W24
 BYTE   Gs3
 BYTE   W24
 BYTE   N48  Bn3
 BYTE   W48
// 045   ----------------------------------------
 BYTE   W48
 BYTE   GoTo
  POIN2 Label_8_013DD826
 BYTE   FINE

//**************** Track 10 (Midi-Chn.9) ****************//

SuperSmashBrosBrawlMenuMrGreen3339_010:
// 000   ----------------------------------------
 BYTE   KEYSH   SuperSmashBrosBrawlMenuMrGreen3339_key+0
Label_9_013DD936:
 BYTE   VOICE   56
 BYTE   VOL   50*SuperSmashBrosBrawlMenuMrGreen3339_mvl/mxv
 BYTE   W48
 BYTE   W96
// 001   ----------------------------------------
 BYTE   W96
// 002   ----------------------------------------
 BYTE   W96
// 003   ----------------------------------------
 BYTE   W96
// 004   ----------------------------------------
 BYTE   W96
// 005   ----------------------------------------
 BYTE   W96
// 006   ----------------------------------------
 BYTE   W96
// 007   ----------------------------------------
 BYTE   W96
// 008   ----------------------------------------
 BYTE   W96
// 009   ----------------------------------------
 BYTE   W96
// 010   ----------------------------------------
 BYTE   W96
// 011   ----------------------------------------
 BYTE   W96
// 012   ----------------------------------------
 BYTE   W96
// 013   ----------------------------------------
 BYTE   W96
// 014   ----------------------------------------
 BYTE   W96
// 015   ----------------------------------------
 BYTE   N24  En3  v060
 BYTE   W24
 BYTE   Ds3
 BYTE   W24
 BYTE   N48  Cs3
 BYTE   W48
// 016   ----------------------------------------
 BYTE   W96
// 017   ----------------------------------------
 BYTE   W96
// 018   ----------------------------------------
 BYTE   W96
// 019   ----------------------------------------
 BYTE   W96
// 020   ----------------------------------------
 BYTE   Ds4  v040
 BYTE   W48
 BYTE   N24  En4
 BYTE   W24
 BYTE   Fs4
 BYTE   W24
// 021   ----------------------------------------
 BYTE   N24
 BYTE   W24
 BYTE   En4
 BYTE   W24
 BYTE   N48  Ds4
 BYTE   W48
// 022   ----------------------------------------
 BYTE   N24  En4
 BYTE   W24
 BYTE   Fs4
 BYTE   W24
 BYTE   TIE  Gs4
 BYTE   W48
// 023   ----------------------------------------
 BYTE   W96
// 024   ----------------------------------------
 BYTE   EOT
 BYTE   W96
// 025   ----------------------------------------
 BYTE   W96
// 026   ----------------------------------------
 BYTE   N06  En3  v060
 BYTE   W96
// 027   ----------------------------------------
 BYTE   N24  Bn3  v072
 BYTE   W24
 BYTE   An3
 BYTE   W24
 BYTE   N48  Gs3
 BYTE   W48
// 028   ----------------------------------------
 BYTE   As3
 BYTE   W48
 BYTE   N24  Bn3
 BYTE   W24
 BYTE   Cs4
 BYTE   W24
// 029   ----------------------------------------
 BYTE   N24
 BYTE   W24
 BYTE   Bn3
 BYTE   W24
 BYTE   N24
 BYTE   W24
 BYTE   As3
 BYTE   W24
// 030   ----------------------------------------
 BYTE   TIE  Ds4
 BYTE   W96
// 031   ----------------------------------------
 BYTE   W36
 BYTE   EOT
 BYTE   W60
// 032   ----------------------------------------
 BYTE   W96
// 033   ----------------------------------------
Label_9_013DD995:
 BYTE   N96  Fs4  v072
 BYTE   W06
 BYTE   W06
 BYTE   W06
 BYTE   W06
 BYTE   W06
 BYTE   W06
 BYTE   W06
 BYTE   W06
 BYTE   W06
 BYTE   W06
 BYTE   W06
 BYTE   W06
 BYTE   W06
 BYTE   W06
 BYTE   W06
 BYTE   W06
 BYTE   PEND 
// 034   ----------------------------------------
 BYTE   W96
// 035   ----------------------------------------
 BYTE   W96
// 036   ----------------------------------------
 BYTE   W96
 BYTE   PATT
  POIN2 Label_9_013DD995
// 037   ----------------------------------------
 BYTE   W96
// 038   ----------------------------------------
 BYTE   W96
// 039   ----------------------------------------
 BYTE   W96
// 040   ----------------------------------------
 BYTE   W96
// 041   ----------------------------------------
 BYTE   W96
// 042   ----------------------------------------
 BYTE   W96
// 043   ----------------------------------------
 BYTE   W96
// 044   ----------------------------------------
 BYTE   W96
// 045   ----------------------------------------
 BYTE   W96
// 046   ----------------------------------------
 BYTE   W96
// 047   ----------------------------------------
 BYTE   W96
// 048   ----------------------------------------
 BYTE   W96
// 049   ----------------------------------------
 BYTE   W96
// 050   ----------------------------------------
 BYTE   W96
// 051   ----------------------------------------
 BYTE   W96
// 052   ----------------------------------------
 BYTE   W96
// 053   ----------------------------------------
 BYTE   W84
 BYTE   N06  Gs3  v060
 BYTE   W12
// 054   ----------------------------------------
 BYTE   Bn3
 BYTE   W48
 BYTE   GoTo
  POIN2 Label_9_013DD936
 BYTE   FINE

//**************** Track 11 (Midi-Chn.10) ****************//

SuperSmashBrosBrawlMenuMrGreen3339_011:
// 000   ----------------------------------------
 BYTE   KEYSH   SuperSmashBrosBrawlMenuMrGreen3339_key+0
Label_10_013DD9D2:
 BYTE   VOICE   52
 BYTE   VOL   51*SuperSmashBrosBrawlMenuMrGreen3339_mvl/mxv
 BYTE   PAN   c_v-20
 BYTE   W48
 BYTE   W96
// 001   ----------------------------------------
 BYTE   W96
// 002   ----------------------------------------
 BYTE   W96
// 003   ----------------------------------------
 BYTE   W96
// 004   ----------------------------------------
 BYTE   W96
// 005   ----------------------------------------
 BYTE   W96
// 006   ----------------------------------------
 BYTE   W96
// 007   ----------------------------------------
 BYTE   W96
// 008   ----------------------------------------
 BYTE   W96
// 009   ----------------------------------------
 BYTE   W96
// 010   ----------------------------------------
 BYTE   W96
// 011   ----------------------------------------
 BYTE   W96
// 012   ----------------------------------------
 BYTE   W96
// 013   ----------------------------------------
 BYTE   W96
// 014   ----------------------------------------
 BYTE   W96
// 015   ----------------------------------------
 BYTE   N24  En3  v052
 BYTE   N24  En4
 BYTE   W24
 BYTE   Ds3
 BYTE   N24  Ds4
 BYTE   W24
 BYTE   N48  Cs3
 BYTE   N48  Cs4
 BYTE   W48
// 016   ----------------------------------------
 BYTE   N96  An3
 BYTE   W96
// 017   ----------------------------------------
 BYTE   Cn4
 BYTE   W96
// 018   ----------------------------------------
 BYTE   TIE  Gs3
 BYTE   W96
// 019   ----------------------------------------
 BYTE   W96
// 020   ----------------------------------------
 BYTE   EOT
 BYTE   N48  Fn3
 BYTE   N96  Ds4
 BYTE   W48
 BYTE   N48  En3
 BYTE   W48
// 021   ----------------------------------------
 BYTE   N96  Ds3
 BYTE   N96  Ds4
 BYTE   W96
// 022   ----------------------------------------
 BYTE   W96
// 023   ----------------------------------------
 BYTE   Gs3
 BYTE   N96  Gs4
 BYTE   W96
// 024   ----------------------------------------
 BYTE   W96
// 025   ----------------------------------------
 BYTE   W96
// 026   ----------------------------------------
 BYTE   W96
// 027   ----------------------------------------
 BYTE   W96
// 028   ----------------------------------------
 BYTE   W96
// 029   ----------------------------------------
 BYTE   W96
// 030   ----------------------------------------
 BYTE   W96
// 031   ----------------------------------------
 BYTE   W96
// 032   ----------------------------------------
 BYTE   W96
// 033   ----------------------------------------
 BYTE   W96
// 034   ----------------------------------------
 BYTE   N48  En4
 BYTE   W48
 BYTE   N24
 BYTE   W24
 BYTE   Ds4
 BYTE   W24
// 035   ----------------------------------------
 BYTE   En4
 BYTE   W24
 BYTE   Ds4
 BYTE   W24
 BYTE   N48  En4
 BYTE   W48
// 036   ----------------------------------------
 BYTE   W96
// 037   ----------------------------------------
 BYTE   W96
// 038   ----------------------------------------
 BYTE   Cs4
 BYTE   W48
 BYTE   N24  Ds4
 BYTE   W24
 BYTE   En4
 BYTE   W24
// 039   ----------------------------------------
 BYTE   Ds4
 BYTE   W24
 BYTE   Cs4
 BYTE   W24
 BYTE   Bn3
 BYTE   W24
 BYTE   An3
 BYTE   W24
// 040   ----------------------------------------
Label_10_013DDA3C:
 BYTE   TIE  En3  v052
 BYTE   TIE  Bn3
 BYTE   W96
 BYTE   PEND 
// 041   ----------------------------------------
 BYTE   W96
// 042   ----------------------------------------
 BYTE   EOT
 BYTE   En3  v071
 BYTE   N96
 BYTE   N96  Ds4
 BYTE   W96
// 043   ----------------------------------------
 BYTE   Bn3
 BYTE   N96  Dn4
 BYTE   W96
// 044   ----------------------------------------
 BYTE   An3
 BYTE   N96  Cs4
 BYTE   W96
// 045   ----------------------------------------
 BYTE   Fs3
 BYTE   N96  Cn4
 BYTE   W96
 BYTE   PATT
  POIN2 Label_10_013DDA3C
// 046   ----------------------------------------
 BYTE   W96
// 047   ----------------------------------------
 BYTE   EOT
 BYTE   En3  v071
 BYTE   TIE  Bn3  v052
 BYTE   TIE  En4
 BYTE   W96
// 048   ----------------------------------------
 BYTE   W96
// 049   ----------------------------------------
 BYTE   EOT
 BYTE   Bn3  v076
 BYTE   N96  Bn3
 BYTE   N96  Ds4
 BYTE   W96
// 050   ----------------------------------------
 BYTE   Bn3
 BYTE   N96  Dn4
 BYTE   W96
// 051   ----------------------------------------
 BYTE   An3
 BYTE   N96  Cs4
 BYTE   W96
// 052   ----------------------------------------
 BYTE   Fs3
 BYTE   N96  Cn4
 BYTE   W96
// 053   ----------------------------------------
 BYTE   W96
// 054   ----------------------------------------
 BYTE   W48
 BYTE   GoTo
  POIN2 Label_10_013DD9D2
 BYTE   FINE

//**************** Track 12 (Midi-Chn.11) ****************//

SuperSmashBrosBrawlMenuMrGreen3339_012:
// 000   ----------------------------------------
 BYTE   KEYSH   SuperSmashBrosBrawlMenuMrGreen3339_key+0
Label_11_013DDA86:
 BYTE   VOICE   46
 BYTE   VOL   51*SuperSmashBrosBrawlMenuMrGreen3339_mvl/mxv
 BYTE   W48
 BYTE   W96
// 001   ----------------------------------------
 BYTE   W96
// 002   ----------------------------------------
 BYTE   W96
// 003   ----------------------------------------
 BYTE   W96
// 004   ----------------------------------------
 BYTE   W96
// 005   ----------------------------------------
 BYTE   W96
// 006   ----------------------------------------
 BYTE   W96
// 007   ----------------------------------------
 BYTE   W96
// 008   ----------------------------------------
 BYTE   W96
// 009   ----------------------------------------
 BYTE   W96
// 010   ----------------------------------------
 BYTE   W96
// 011   ----------------------------------------
 BYTE   W96
// 012   ----------------------------------------
 BYTE   W96
// 013   ----------------------------------------
 BYTE   W96
// 014   ----------------------------------------
 BYTE   W96
// 015   ----------------------------------------
 BYTE   W96
// 016   ----------------------------------------
 BYTE   W96
// 017   ----------------------------------------
 BYTE   W96
// 018   ----------------------------------------
 BYTE   W36
 BYTE   W03
 BYTE   N03  En3  v060
 BYTE   W09
 BYTE   Gs3
 BYTE   W12
 BYTE   Cs4
 BYTE   W12
 BYTE   En4
 BYTE   W12
 BYTE   Gs4
 BYTE   W12
// 019   ----------------------------------------
 BYTE   W24
 BYTE   Cs3
 BYTE   W12
 BYTE   Fn3
 BYTE   W12
 BYTE   Cs4
 BYTE   W12
 BYTE   Fn4
 BYTE   W12
 BYTE   Cs4
 BYTE   W12
 BYTE   Fn4
 BYTE   W12
// 020   ----------------------------------------
 BYTE   W96
// 021   ----------------------------------------
 BYTE   W96
// 022   ----------------------------------------
 BYTE   W96
// 023   ----------------------------------------
 BYTE   W96
// 024   ----------------------------------------
 BYTE   W96
// 025   ----------------------------------------
 BYTE   W96
// 026   ----------------------------------------
 BYTE   W96
// 027   ----------------------------------------
 BYTE   W96
// 028   ----------------------------------------
 BYTE   W96
// 029   ----------------------------------------
 BYTE   W96
// 030   ----------------------------------------
 BYTE   W96
// 031   ----------------------------------------
 BYTE   W96
// 032   ----------------------------------------
 BYTE   W96
// 033   ----------------------------------------
 BYTE   W96
// 034   ----------------------------------------
 BYTE   W96
// 035   ----------------------------------------
 BYTE   W96
// 036   ----------------------------------------
 BYTE   W96
// 037   ----------------------------------------
 BYTE   W96
// 038   ----------------------------------------
 BYTE   N12  En3  v052
 BYTE   W06
 BYTE   Fn3
 BYTE   W06
 BYTE   Gn3
 BYTE   W06
 BYTE   An3
 BYTE   W06
 BYTE   Bn3
 BYTE   W06
 BYTE   Cn4
 BYTE   W06
 BYTE   Dn4
 BYTE   W06
 BYTE   En4
 BYTE   W06
 BYTE   Fn4
 BYTE   W06
 BYTE   Gn4
 BYTE   W06
 BYTE   An4
 BYTE   W06
 BYTE   Bn4
 BYTE   W06
 BYTE   Cn5
 BYTE   W06
 BYTE   Dn5
 BYTE   W06
 BYTE   En5
 BYTE   W06
 BYTE   Fn5
 BYTE   W06
// 039   ----------------------------------------
 BYTE   Gn5
 BYTE   W06
 BYTE   Fn5
 BYTE   W06
 BYTE   En5
 BYTE   W06
 BYTE   Dn5
 BYTE   W06
 BYTE   Cn5
 BYTE   W06
 BYTE   Bn4
 BYTE   W06
 BYTE   An4
 BYTE   W06
 BYTE   Gn4
 BYTE   W06
 BYTE   Fn4
 BYTE   W06
 BYTE   En4
 BYTE   W06
 BYTE   Dn4
 BYTE   W06
 BYTE   Cn4
 BYTE   W06
 BYTE   Bn3
 BYTE   W06
 BYTE   An3
 BYTE   W06
 BYTE   Gn3
 BYTE   W12
// 040   ----------------------------------------
 BYTE   W96
// 041   ----------------------------------------
 BYTE   W96
// 042   ----------------------------------------
 BYTE   W96
// 043   ----------------------------------------
 BYTE   W96
// 044   ----------------------------------------
 BYTE   W96
// 045   ----------------------------------------
 BYTE   W96
// 046   ----------------------------------------
 BYTE   W96
// 047   ----------------------------------------
 BYTE   W96
// 048   ----------------------------------------
 BYTE   W96
// 049   ----------------------------------------
 BYTE   W96
// 050   ----------------------------------------
 BYTE   W96
// 051   ----------------------------------------
 BYTE   W96
// 052   ----------------------------------------
 BYTE   W96
// 053   ----------------------------------------
 BYTE   W96
// 054   ----------------------------------------
 BYTE   W96
// 055   ----------------------------------------
 BYTE   W48
 BYTE   GoTo
  POIN2 Label_11_013DDA86
 BYTE   FINE

//**************** Track 13 (Midi-Chn.12) ****************//

SuperSmashBrosBrawlMenuMrGreen3339_013:
// 000   ----------------------------------------
 BYTE   KEYSH   SuperSmashBrosBrawlMenuMrGreen3339_key+0
Label_12_013DDB22:
 BYTE   VOICE   119
 BYTE   VOL   51*SuperSmashBrosBrawlMenuMrGreen3339_mvl/mxv
 BYTE   W48
 BYTE   W96
// 001   ----------------------------------------
 BYTE   W96
// 002   ----------------------------------------
 BYTE   W96
// 003   ----------------------------------------
 BYTE   W96
// 004   ----------------------------------------
 BYTE   W96
// 005   ----------------------------------------
 BYTE   W96
// 006   ----------------------------------------
 BYTE   W96
// 007   ----------------------------------------
 BYTE   W96
// 008   ----------------------------------------
 BYTE   W96
// 009   ----------------------------------------
 BYTE   W96
// 010   ----------------------------------------
 BYTE   W96
// 011   ----------------------------------------
 BYTE   W96
// 012   ----------------------------------------
 BYTE   W96
// 013   ----------------------------------------
 BYTE   W96
// 014   ----------------------------------------
 BYTE   W96
// 015   ----------------------------------------
 BYTE   W96
// 016   ----------------------------------------
 BYTE   W96
// 017   ----------------------------------------
 BYTE   W96
// 018   ----------------------------------------
 BYTE   W96
// 019   ----------------------------------------
 BYTE   W96
// 020   ----------------------------------------
 BYTE   W96
// 021   ----------------------------------------
 BYTE   W96
// 022   ----------------------------------------
 BYTE   W96
// 023   ----------------------------------------
 BYTE   W24
 BYTE   N72  Cn4  v052
 BYTE   W72
// 024   ----------------------------------------
 BYTE   W96
// 025   ----------------------------------------
 BYTE   W24
 BYTE   N72
 BYTE   W72
// 026   ----------------------------------------
 BYTE   W96
// 027   ----------------------------------------
 BYTE   W96
// 028   ----------------------------------------
 BYTE   W96
// 029   ----------------------------------------
 BYTE   W36
 BYTE   N60
 BYTE   W60
// 030   ----------------------------------------
 BYTE   W96
// 031   ----------------------------------------
 BYTE   W96
// 032   ----------------------------------------
 BYTE   W96
// 033   ----------------------------------------
 BYTE   W96
// 034   ----------------------------------------
 BYTE   W96
// 035   ----------------------------------------
 BYTE   W96
// 036   ----------------------------------------
 BYTE   W96
// 037   ----------------------------------------
 BYTE   W96
// 038   ----------------------------------------
 BYTE   W96
// 039   ----------------------------------------
 BYTE   W30
 BYTE   TIE
 BYTE   W66
// 040   ----------------------------------------
 BYTE   W96
// 041   ----------------------------------------
 BYTE   EOT
 BYTE   W96
// 042   ----------------------------------------
 BYTE   W96
// 043   ----------------------------------------
 BYTE   W96
// 044   ----------------------------------------
 BYTE   W96
// 045   ----------------------------------------
 BYTE   W96
// 046   ----------------------------------------
 BYTE   W96
// 047   ----------------------------------------
 BYTE   W96
// 048   ----------------------------------------
 BYTE   W96
// 049   ----------------------------------------
 BYTE   W96
// 050   ----------------------------------------
 BYTE   W96
// 051   ----------------------------------------
 BYTE   W96
// 052   ----------------------------------------
 BYTE   W96
// 053   ----------------------------------------
 BYTE   W96
// 054   ----------------------------------------
 BYTE   W96
// 055   ----------------------------------------
 BYTE   W48
 BYTE   GoTo
  POIN2 Label_12_013DDB22
 BYTE   FINE

//**************** Track 14 (Midi-Chn.13) ****************//

SuperSmashBrosBrawlMenuMrGreen3339_014:
// 000   ----------------------------------------
 BYTE   KEYSH   SuperSmashBrosBrawlMenuMrGreen3339_key+0
Label_13_013DDB72:
 BYTE   VOICE   71
 BYTE   VOL   51*SuperSmashBrosBrawlMenuMrGreen3339_mvl/mxv
 BYTE   W48
 BYTE   W96
// 001   ----------------------------------------
 BYTE   W96
// 002   ----------------------------------------
 BYTE   W96
// 003   ----------------------------------------
 BYTE   W96
// 004   ----------------------------------------
 BYTE   W96
// 005   ----------------------------------------
 BYTE   W96
// 006   ----------------------------------------
 BYTE   W96
// 007   ----------------------------------------
 BYTE   W96
// 008   ----------------------------------------
 BYTE   W96
// 009   ----------------------------------------
 BYTE   W96
// 010   ----------------------------------------
 BYTE   W96
// 011   ----------------------------------------
 BYTE   W96
// 012   ----------------------------------------
 BYTE   W96
// 013   ----------------------------------------
 BYTE   W96
// 014   ----------------------------------------
 BYTE   W96
// 015   ----------------------------------------
 BYTE   W96
// 016   ----------------------------------------
 BYTE   W96
// 017   ----------------------------------------
 BYTE   W96
// 018   ----------------------------------------
 BYTE   W96
// 019   ----------------------------------------
 BYTE   W96
// 020   ----------------------------------------
 BYTE   W96
// 021   ----------------------------------------
 BYTE   W96
// 022   ----------------------------------------
 BYTE   W96
// 023   ----------------------------------------
 BYTE   W96
// 024   ----------------------------------------
 BYTE   W96
// 025   ----------------------------------------
 BYTE   W96
// 026   ----------------------------------------
 BYTE   N48  En3  v072
 BYTE   W48
 BYTE   N24  Fs3
 BYTE   W24
 BYTE   Gs3
 BYTE   W24
// 027   ----------------------------------------
 BYTE   N24
 BYTE   W24
 BYTE   Fs3
 BYTE   W24
 BYTE   N48  En3
 BYTE   W48
// 028   ----------------------------------------
 BYTE   W96
// 029   ----------------------------------------
 BYTE   W96
// 030   ----------------------------------------
 BYTE   W96
// 031   ----------------------------------------
 BYTE   W96
// 032   ----------------------------------------
 BYTE   W96
// 033   ----------------------------------------
 BYTE   W96
// 034   ----------------------------------------
 BYTE   W96
// 035   ----------------------------------------
 BYTE   W96
// 036   ----------------------------------------
 BYTE   W96
// 037   ----------------------------------------
 BYTE   W96
// 038   ----------------------------------------
 BYTE   W96
// 039   ----------------------------------------
 BYTE   W96
// 040   ----------------------------------------
 BYTE   W96
// 041   ----------------------------------------
 BYTE   W96
// 042   ----------------------------------------
 BYTE   W96
// 043   ----------------------------------------
 BYTE   W96
// 044   ----------------------------------------
 BYTE   W96
// 045   ----------------------------------------
 BYTE   W96
// 046   ----------------------------------------
 BYTE   W96
// 047   ----------------------------------------
 BYTE   W96
// 048   ----------------------------------------
 BYTE   W96
// 049   ----------------------------------------
 BYTE   W96
// 050   ----------------------------------------
 BYTE   W96
// 051   ----------------------------------------
 BYTE   W96
// 052   ----------------------------------------
 BYTE   W96
// 053   ----------------------------------------
 BYTE   W96
// 054   ----------------------------------------
 BYTE   W96
// 055   ----------------------------------------
 BYTE   W48
 BYTE   GoTo
  POIN2 Label_13_013DDB72
 BYTE   FINE

//**************** Track 15 (Midi-Chn.14) ****************//

SuperSmashBrosBrawlMenuMrGreen3339_015:
// 000   ----------------------------------------
 BYTE   KEYSH   SuperSmashBrosBrawlMenuMrGreen3339_key+0
Label_14_013DDBC6:
 BYTE   VOICE   127
 BYTE   VOL   51*SuperSmashBrosBrawlMenuMrGreen3339_mvl/mxv
 BYTE   PAN   c_v+0
 BYTE   W48
Label_14_013DDBCD:
 BYTE   N03  Cn1  v040
 BYTE   N03  En1  v052
 BYTE   N06  Bn2  v040
 BYTE   W12
 BYTE   N03  En1  v032
 BYTE   W06
 BYTE   N03
 BYTE   W06
 BYTE   N03
 BYTE   W12
 BYTE   En1  v052
 BYTE   W12
// 001   ----------------------------------------
 BYTE   En1  v032
 BYTE   W06
 BYTE   N03
 BYTE   W06
 BYTE   N03
 BYTE   W12
 BYTE   En1  v052
 BYTE   W12
 BYTE   En1  v032
 BYTE   W06
 BYTE   N03
 BYTE   W06
 BYTE   PEND 
Label_14_013DDBF2:
 BYTE   N03  En1  v032
 BYTE   W12
 BYTE   En1  v052
 BYTE   W12
 BYTE   En1  v032
 BYTE   W06
 BYTE   N03
 BYTE   W06
 BYTE   N03
 BYTE   W12
// 002   ----------------------------------------
 BYTE   En1  v052
 BYTE   W06
 BYTE   En1  v032
 BYTE   W06
 BYTE   N03
 BYTE   W12
 BYTE   En1  v052
 BYTE   W06
 BYTE   En1  v032
 BYTE   W06
 BYTE   N03
 BYTE   W12
 BYTE   PEND 
Label_14_013DDC11:
 BYTE   N03  En1  v052
 BYTE   W12
 BYTE   En1  v032
 BYTE   W06
 BYTE   N03
 BYTE   W06
 BYTE   N03
 BYTE   W12
 BYTE   En1  v052
 BYTE   W12
// 003   ----------------------------------------
 BYTE   En1  v032
 BYTE   W06
 BYTE   N03
 BYTE   W06
 BYTE   N03
 BYTE   W12
 BYTE   En1  v052
 BYTE   W12
 BYTE   En1  v032
 BYTE   W06
 BYTE   N03
 BYTE   W06
 BYTE   PEND 
 BYTE   N03
 BYTE   W12
 BYTE   En1  v052
 BYTE   W12
 BYTE   N03
 BYTE   W06
 BYTE   En1  v032
 BYTE   W06
 BYTE   N03
 BYTE   W12
// 004   ----------------------------------------
 BYTE   En1  v052
 BYTE   W12
 BYTE   En1  v032
 BYTE   W12
 BYTE   En1  v052
 BYTE   W03
 BYTE   En1  v032
 BYTE   W03
 BYTE   N03
 BYTE   W03
 BYTE   N03
 BYTE   W03
 BYTE   N03
 BYTE   W03
 BYTE   N03
 BYTE   W03
 BYTE   N03
 BYTE   W03
 BYTE   N03
 BYTE   W03
Label_14_013DDC53:
 BYTE   N03  En1  v052
 BYTE   N06  Bn2  v040
 BYTE   W12
 BYTE   N03  En1  v032
 BYTE   W06
 BYTE   N03
 BYTE   W06
 BYTE   N03
 BYTE   W12
 BYTE   En1  v052
 BYTE   W12
// 005   ----------------------------------------
 BYTE   En1  v032
 BYTE   W06
 BYTE   N03
 BYTE   W06
 BYTE   N03
 BYTE   W12
 BYTE   En1  v052
 BYTE   W12
 BYTE   En1  v032
 BYTE   W06
 BYTE   N03
 BYTE   W06
 BYTE   PEND 
 BYTE   En1  v052
 BYTE   W12
 BYTE   N03
 BYTE   W12
 BYTE   En1  v032
 BYTE   W06
 BYTE   N03
 BYTE   W06
 BYTE   N03
 BYTE   W12
// 006   ----------------------------------------
 BYTE   En1  v052
 BYTE   W12
 BYTE   En1  v032
 BYTE   W12
 BYTE   En1  v052
 BYTE   W03
 BYTE   En1  v032
 BYTE   W03
 BYTE   N03
 BYTE   W03
 BYTE   N03
 BYTE   W03
 BYTE   N03
 BYTE   W03
 BYTE   N03
 BYTE   W03
 BYTE   N03
 BYTE   W03
 BYTE   N03
 BYTE   W03
 BYTE   PATT
  POIN2 Label_14_013DDBCD
// 007   ----------------------------------------
 BYTE   N03  En1  v032
 BYTE   W12
 BYTE   En1  v052
 BYTE   W12
 BYTE   En1  v032
 BYTE   W06
 BYTE   N03
 BYTE   W06
 BYTE   N03
 BYTE   W12
 BYTE   En1  v052
 BYTE   W12
 BYTE   En1  v032
 BYTE   W12
 BYTE   En1  v052
 BYTE   W03
 BYTE   En1  v032
 BYTE   W03
 BYTE   N03
 BYTE   W03
 BYTE   N03
 BYTE   W03
 BYTE   N03
 BYTE   W03
 BYTE   N03
 BYTE   W03
 BYTE   N03
 BYTE   W03
 BYTE   N03
 BYTE   W03
 BYTE   PATT
  POIN2 Label_14_013DDBCD
 BYTE   PATT
  POIN2 Label_14_013DDBF2
 BYTE   PATT
  POIN2 Label_14_013DDC11
// 008   ----------------------------------------
 BYTE   N03  En1  v032
 BYTE   W12
 BYTE   En1  v052
 BYTE   W12
 BYTE   N03
 BYTE   W06
 BYTE   En1  v032
 BYTE   W06
 BYTE   N03
 BYTE   W12
 BYTE   En1  v052
 BYTE   W03
 BYTE   En1  v032
 BYTE   W03
 BYTE   N03
 BYTE   W03
 BYTE   N03
 BYTE   W03
 BYTE   N03
 BYTE   W03
 BYTE   N03
 BYTE   W03
 BYTE   N03
 BYTE   W03
 BYTE   N03
 BYTE   W03
 BYTE   En1  v052
 BYTE   W12
 BYTE   En1  v032
 BYTE   W06
 BYTE   N03
 BYTE   W06
 BYTE   PATT
  POIN2 Label_14_013DDC53
// 009   ----------------------------------------
 BYTE   N03  En1  v052
 BYTE   W12
 BYTE   N03
 BYTE   W12
 BYTE   En1  v032
 BYTE   W06
 BYTE   N03
 BYTE   W06
 BYTE   N03
 BYTE   W12
 BYTE   En1  v052
 BYTE   W12
 BYTE   En1  v032
 BYTE   W12
 BYTE   En1  v052
 BYTE   W09
 BYTE   En1  v032
 BYTE   W03
 BYTE   N03
 BYTE   W03
 BYTE   N03
 BYTE   W03
 BYTE   N03
 BYTE   W03
 BYTE   N03
 BYTE   W03
 BYTE   PATT
  POIN2 Label_14_013DDBCD
// 010   ----------------------------------------
 BYTE   N03  En1  v052
 BYTE   W03
 BYTE   En1  v032
 BYTE   W03
 BYTE   N03
 BYTE   W03
 BYTE   N03
 BYTE   W03
 BYTE   N03
 BYTE   W03
 BYTE   N03
 BYTE   W03
 BYTE   N03
 BYTE   W03
 BYTE   N03
 BYTE   W03
 BYTE   N03
 BYTE   W03
 BYTE   N03
 BYTE   W03
 BYTE   N03
 BYTE   W03
 BYTE   N03
 BYTE   W03
 BYTE   N03
 BYTE   W03
 BYTE   N03
 BYTE   W03
 BYTE   N03
 BYTE   W03
 BYTE   N03
 BYTE   W03
 BYTE   N03
 BYTE   W03
 BYTE   N03
 BYTE   W03
 BYTE   N03
 BYTE   W03
 BYTE   N03
 BYTE   W03
 BYTE   N03
 BYTE   W03
 BYTE   N03
 BYTE   W03
 BYTE   N03
 BYTE   W03
 BYTE   N03
 BYTE   W03
 BYTE   N03
 BYTE   W03
 BYTE   N03
 BYTE   W03
 BYTE   N03
 BYTE   W03
 BYTE   N03
 BYTE   W03
 BYTE   N03
 BYTE   W03
 BYTE   N03
 BYTE   W03
 BYTE   N03
 BYTE   W03
 BYTE   N03
 BYTE   W03
// 011   ----------------------------------------
 BYTE   Cn1  v040
 BYTE   N03  En1  v052
 BYTE   N06  Bn2  v040
 BYTE   W12
 BYTE   N03  En1  v032
 BYTE   W12
 BYTE   N03
 BYTE   W12
 BYTE   N03
 BYTE   W12
 BYTE   En1  v052
 BYTE   W12
 BYTE   En1  v032
 BYTE   W12
 BYTE   N03
 BYTE   W12
 BYTE   N03
 BYTE   W12
// 012   ----------------------------------------
 BYTE   Cn1  v040
 BYTE   N03  En1  v052
 BYTE   W12
 BYTE   En1  v032
 BYTE   W12
 BYTE   N03
 BYTE   W06
 BYTE   N03
 BYTE   W06
 BYTE   N03
 BYTE   W06
 BYTE   N03
 BYTE   W06
 BYTE   En1  v052
 BYTE   W12
 BYTE   En1  v032
 BYTE   W12
 BYTE   N03
 BYTE   W12
 BYTE   N03
 BYTE   W12
// 013   ----------------------------------------
 BYTE   Cn1  v040
 BYTE   N03  En1  v052
 BYTE   W12
 BYTE   En1  v032
 BYTE   W12
 BYTE   N03
 BYTE   W12
 BYTE   N03
 BYTE   W12
 BYTE   En1  v052
 BYTE   W12
 BYTE   En1  v032
 BYTE   W12
 BYTE   N03
 BYTE   W03
 BYTE   N03
 BYTE   W04
 BYTE   N03
 BYTE   W04
 BYTE   N03
 BYTE   W04
 BYTE   N03
 BYTE   W04
 BYTE   N03
 BYTE   W05
// 014   ----------------------------------------
 BYTE   Cn1  v040
 BYTE   N03  En1  v052
 BYTE   W12
 BYTE   En1  v032
 BYTE   W12
 BYTE   N03
 BYTE   W12
 BYTE   N03
 BYTE   W12
 BYTE   En1  v052
 BYTE   W12
 BYTE   En1  v032
 BYTE   W12
 BYTE   N03
 BYTE   W06
 BYTE   N03
 BYTE   W06
 BYTE   N03
 BYTE   W06
 BYTE   N03
 BYTE   W06
// 015   ----------------------------------------
 BYTE   Cn1  v040
 BYTE   N03  En1  v052
 BYTE   W04
 BYTE   N02  En1  v032
 BYTE   W04
 BYTE   N02
 BYTE   W04
 BYTE   N02
 BYTE   W04
 BYTE   N02
 BYTE   W04
 BYTE   N02
 BYTE   W04
 BYTE   N05  En1  v052
 BYTE   W12
 BYTE   N03
 BYTE   W06
 BYTE   En1  v032
 BYTE   W06
 BYTE   En1  v052
 BYTE   W12
 BYTE   N03
 BYTE   W12
 BYTE   N03
 BYTE   W03
 BYTE   En1  v032
 BYTE   W03
 BYTE   N03
 BYTE   W03
 BYTE   N03
 BYTE   W03
 BYTE   N03
 BYTE   W03
 BYTE   N03
 BYTE   W03
 BYTE   N03
 BYTE   W03
 BYTE   N03
 BYTE   W03
// 016   ----------------------------------------
 BYTE   Cn1  v040
 BYTE   N03  En1  v052
 BYTE   W12
 BYTE   N03
 BYTE   W12
 BYTE   N03
 BYTE   W06
 BYTE   En1  v032
 BYTE   W06
 BYTE   N03
 BYTE   W06
 BYTE   N03
 BYTE   W06
 BYTE   En1  v052
 BYTE   W12
 BYTE   N03
 BYTE   W12
 BYTE   En1  v032
 BYTE   W12
 BYTE   N03
 BYTE   W12
// 017   ----------------------------------------
 BYTE   Cn1  v040
 BYTE   N03  En1  v052
 BYTE   W12
 BYTE   En1  v032
 BYTE   W12
 BYTE   En1  v052
 BYTE   W12
 BYTE   En1  v032
 BYTE   W12
 BYTE   En1  v052
 BYTE   W12
 BYTE   En1  v032
 BYTE   W12
 BYTE   En1  v052
 BYTE   W12
 BYTE   En1  v032
 BYTE   W03
 BYTE   N03
 BYTE   W03
 BYTE   N03
 BYTE   W03
 BYTE   N03
 BYTE   W03
// 018   ----------------------------------------
 BYTE   Cn1  v040
 BYTE   N03  En1  v052
 BYTE   W12
 BYTE   En1  v032
 BYTE   W03
 BYTE   N03
 BYTE   W03
 BYTE   N03
 BYTE   W03
 BYTE   N03
 BYTE   W03
 BYTE   En1  v052
 BYTE   W12
 BYTE   N03
 BYTE   W06
 BYTE   N03
 BYTE   W06
 BYTE   N03
 BYTE   W06
 BYTE   N03
 BYTE   W06
 BYTE   N03
 BYTE   W06
 BYTE   N03
 BYTE   W06
 BYTE   N03
 BYTE   W03
 BYTE   En1  v032
 BYTE   W03
 BYTE   N03
 BYTE   W03
 BYTE   N03
 BYTE   W03
 BYTE   N03
 BYTE   W03
 BYTE   N03
 BYTE   W03
 BYTE   N03
 BYTE   W03
 BYTE   N03
 BYTE   W03
// 019   ----------------------------------------
Label_14_013DDE75:
 BYTE   N03  Cn1  v040
 BYTE   N03  En1  v052
 BYTE   N06  Bn2  v040
 BYTE   W12
 BYTE   N03  En1  v032
 BYTE   W06
 BYTE   N03
 BYTE   W06
 BYTE   En1  v052
 BYTE   W12
 BYTE   N03
 BYTE   W12
 BYTE   En1  v032
 BYTE   W12
 BYTE   N03
 BYTE   W06
 BYTE   N03
 BYTE   W06
 BYTE   En1  v052
 BYTE   W12
 BYTE   En1  v032
 BYTE   W06
 BYTE   N03
 BYTE   W06
 BYTE   PEND 
// 020   ----------------------------------------
Label_14_013DDE9A:
 BYTE   N03  En1  v052
 BYTE   W12
 BYTE   N03
 BYTE   W12
 BYTE   En1  v032
 BYTE   W06
 BYTE   N03
 BYTE   W06
 BYTE   N03
 BYTE   W12
 BYTE   En1  v052
 BYTE   W12
 BYTE   En1  v032
 BYTE   W03
 BYTE   N03
 BYTE   W03
 BYTE   N03
 BYTE   W03
 BYTE   N03
 BYTE   W03
 BYTE   N03
 BYTE   W03
 BYTE   N03
 BYTE   W03
 BYTE   N03
 BYTE   W03
 BYTE   N01
 BYTE   W03
 BYTE   N03
 BYTE   W03
 BYTE   N03
 BYTE   W03
 BYTE   N03
 BYTE   W03
 BYTE   N03
 BYTE   W03
 BYTE   PEND 
 BYTE   PATT
  POIN2 Label_14_013DDE75
 BYTE   PATT
  POIN2 Label_14_013DDE9A
// 021   ----------------------------------------
 BYTE   N03  Cn1  v040
 BYTE   N03  En1  v052
 BYTE   W12
 BYTE   En1  v032
 BYTE   W06
 BYTE   N03
 BYTE   W06
 BYTE   N03
 BYTE   W12
 BYTE   En1  v052
 BYTE   W12
 BYTE   En1  v032
 BYTE   W12
 BYTE   N03
 BYTE   W06
 BYTE   N03
 BYTE   W06
 BYTE   En1  v052
 BYTE   W12
 BYTE   En1  v032
 BYTE   W06
 BYTE   N03
 BYTE   W06
// 022   ----------------------------------------
 BYTE   En1  v052
 BYTE   W12
 BYTE   En1  v032
 BYTE   W12
 BYTE   En1  v052
 BYTE   W12
 BYTE   En1  v032
 BYTE   W12
 BYTE   En1  v052
 BYTE   W12
 BYTE   En1  v032
 BYTE   W12
 BYTE   En1  v052
 BYTE   W03
 BYTE   En1  v032
 BYTE   W03
 BYTE   N03
 BYTE   W03
 BYTE   N03
 BYTE   W03
 BYTE   N01
 BYTE   W03
 BYTE   N03
 BYTE   W03
 BYTE   N03
 BYTE   W03
 BYTE   N03
 BYTE   W03
// 023   ----------------------------------------
 BYTE   Cn1  v040
 BYTE   N03  En1  v052
 BYTE   N06  Bn2  v040
 BYTE   W03
 BYTE   N03  En1  v032
 BYTE   W03
 BYTE   N03
 BYTE   W03
 BYTE   N03
 BYTE   W03
 BYTE   N03
 BYTE   W03
 BYTE   N03
 BYTE   W03
 BYTE   N03
 BYTE   W03
 BYTE   N03
 BYTE   W03
 BYTE   En1  v052
 BYTE   W12
 BYTE   N03
 BYTE   W12
 BYTE   N03
 BYTE   W03
 BYTE   En1  v032
 BYTE   W03
 BYTE   N03
 BYTE   W03
 BYTE   N03
 BYTE   W03
 BYTE   N03
 BYTE   W03
 BYTE   N03
 BYTE   W03
 BYTE   N03
 BYTE   W03
 BYTE   N03
 BYTE   W03
 BYTE   En1  v052
 BYTE   W12
 BYTE   N03
 BYTE   W12
// 024   ----------------------------------------
 BYTE   N03
 BYTE   W03
 BYTE   En1  v032
 BYTE   W03
 BYTE   N03
 BYTE   W03
 BYTE   N03
 BYTE   W03
 BYTE   N03
 BYTE   W03
 BYTE   N03
 BYTE   W03
 BYTE   N03
 BYTE   W03
 BYTE   N03
 BYTE   W03
 BYTE   En1  v052
 BYTE   W12
 BYTE   N03
 BYTE   W12
 BYTE   N03
 BYTE   W03
 BYTE   En1  v032
 BYTE   W03
 BYTE   N03
 BYTE   W03
 BYTE   N03
 BYTE   W03
 BYTE   N03
 BYTE   W03
 BYTE   N03
 BYTE   W03
 BYTE   N03
 BYTE   W03
 BYTE   N03
 BYTE   W03
 BYTE   En1  v052
 BYTE   W12
 BYTE   N03
 BYTE   W12
// 025   ----------------------------------------
Label_14_013DDF72:
 BYTE   N03  Cn1  v040
 BYTE   N03  En1
 BYTE   N06  Bn2
 BYTE   W12
 BYTE   N03  En1
 BYTE   W06
 BYTE   En1  v020
 BYTE   W06
 BYTE   N02  En1  v040
 BYTE   W12
 BYTE   N03
 BYTE   W06
 BYTE   En1  v020
 BYTE   W06
 BYTE   N02  En1  v040
 BYTE   W12
 BYTE   N02
 BYTE   W06
 BYTE   N03  En1  v020
 BYTE   W06
 BYTE   En1  v040
 BYTE   W12
 BYTE   N03
 BYTE   W06
 BYTE   En1  v020
 BYTE   W06
 BYTE   PEND 
// 026   ----------------------------------------
Label_14_013DDF9C:
 BYTE   N03  En1  v040
 BYTE   W12
 BYTE   N03
 BYTE   W06
 BYTE   En1  v020
 BYTE   W06
 BYTE   En1  v040
 BYTE   W12
 BYTE   N03
 BYTE   W06
 BYTE   En1  v020
 BYTE   W06
 BYTE   En1  v040
 BYTE   W12
 BYTE   N03
 BYTE   W06
 BYTE   En1  v020
 BYTE   W06
 BYTE   En1  v040
 BYTE   W12
 BYTE   N03
 BYTE   W06
 BYTE   En1  v020
 BYTE   W06
 BYTE   PEND 
// 027   ----------------------------------------
 BYTE   En1  v040
 BYTE   N06  Bn2
 BYTE   W03
 BYTE   N03  En1  v020
 BYTE   W03
 BYTE   N03
 BYTE   W03
 BYTE   N03
 BYTE   W03
 BYTE   N03
 BYTE   W03
 BYTE   N03
 BYTE   W03
 BYTE   N03
 BYTE   W03
 BYTE   N03
 BYTE   W03
 BYTE   N03
 BYTE   W03
 BYTE   N03
 BYTE   W03
 BYTE   N03
 BYTE   W03
 BYTE   N03
 BYTE   W03
 BYTE   N03
 BYTE   W03
 BYTE   N03
 BYTE   W03
 BYTE   N03
 BYTE   W03
 BYTE   N03
 BYTE   W03
 BYTE   N03
 BYTE   W03
 BYTE   N03
 BYTE   W03
 BYTE   N03
 BYTE   W03
 BYTE   N03
 BYTE   W03
 BYTE   N03
 BYTE   W03
 BYTE   N03
 BYTE   W03
 BYTE   N03
 BYTE   W03
 BYTE   N03
 BYTE   W03
 BYTE   N03
 BYTE   W03
 BYTE   N03
 BYTE   W03
 BYTE   N03
 BYTE   W03
 BYTE   N03
 BYTE   W03
 BYTE   N03
 BYTE   W03
 BYTE   N03
 BYTE   W03
 BYTE   N03
 BYTE   W03
 BYTE   N03
 BYTE   W03
// 028   ----------------------------------------
Label_14_013DE003:
 BYTE   N03  En1  v020
 BYTE   W03
 BYTE   N03
 BYTE   W03
 BYTE   N03
 BYTE   W03
 BYTE   N03
 BYTE   W03
 BYTE   N03
 BYTE   W03
 BYTE   N03
 BYTE   W03
 BYTE   N03
 BYTE   W03
 BYTE   N03
 BYTE   W03
 BYTE   N03
 BYTE   W03
 BYTE   N03
 BYTE   W03
 BYTE   N03
 BYTE   W03
 BYTE   N03
 BYTE   W03
 BYTE   N03
 BYTE   W03
 BYTE   N03
 BYTE   W03
 BYTE   N03
 BYTE   W03
 BYTE   N03
 BYTE   W03
 BYTE   N03
 BYTE   W03
 BYTE   N03
 BYTE   W03
 BYTE   N03
 BYTE   W03
 BYTE   N03
 BYTE   W03
 BYTE   N03
 BYTE   W03
 BYTE   N03
 BYTE   W03
 BYTE   N03
 BYTE   W03
 BYTE   N03
 BYTE   W03
 BYTE   N03
 BYTE   W03
 BYTE   N03
 BYTE   W03
 BYTE   N03
 BYTE   W03
 BYTE   N03
 BYTE   W03
 BYTE   N03
 BYTE   W03
 BYTE   N03
 BYTE   W03
 BYTE   N03
 BYTE   W03
 BYTE   N03
 BYTE   W03
 BYTE   PEND 
 BYTE   PATT
  POIN2 Label_14_013DDF72
 BYTE   PATT
  POIN2 Label_14_013DDF9C
// 029   ----------------------------------------
Label_14_013DE050:
 BYTE   N03  Cn1  v040
 BYTE   N03  En1
 BYTE   N06  Bn2
 BYTE   W03
 BYTE   N03  En1  v020
 BYTE   W03
 BYTE   N03
 BYTE   W03
 BYTE   N03
 BYTE   W03
 BYTE   N03
 BYTE   W03
 BYTE   N03
 BYTE   W03
 BYTE   N03
 BYTE   W03
 BYTE   N03
 BYTE   W03
 BYTE   N03
 BYTE   W03
 BYTE   N03
 BYTE   W03
 BYTE   N03
 BYTE   W03
 BYTE   N03
 BYTE   W03
 BYTE   N03
 BYTE   W03
 BYTE   N03
 BYTE   W03
 BYTE   N03
 BYTE   W03
 BYTE   N03
 BYTE   W03
 BYTE   N03
 BYTE   W03
 BYTE   N03
 BYTE   W03
 BYTE   N03
 BYTE   W03
 BYTE   N03
 BYTE   W03
 BYTE   N03
 BYTE   W03
 BYTE   N03
 BYTE   W03
 BYTE   N03
 BYTE   W03
 BYTE   N03
 BYTE   W03
 BYTE   N03
 BYTE   W03
 BYTE   N03
 BYTE   W03
 BYTE   N03
 BYTE   W03
 BYTE   N03
 BYTE   W03
 BYTE   N03
 BYTE   W03
 BYTE   N03
 BYTE   W03
 BYTE   N03
 BYTE   W03
 BYTE   N03
 BYTE   W03
 BYTE   PEND 
 BYTE   PATT
  POIN2 Label_14_013DE003
// 030   ----------------------------------------
 BYTE   N03  En1  v040
 BYTE   W11
 BYTE   N03
 BYTE   W60
 BYTE   W01
 BYTE   N03
 BYTE   W12
 BYTE   N03
 BYTE   W12
// 031   ----------------------------------------
 BYTE   W96
// 032   ----------------------------------------
Label_14_013DE0AA:
 BYTE   N03  En1  v040
 BYTE   W12
 BYTE   N03
 BYTE   W60
 BYTE   N03
 BYTE   W12
 BYTE   N03
 BYTE   W12
 BYTE   PEND 
// 033   ----------------------------------------
 BYTE   W48
 BYTE   N03
 BYTE   W03
 BYTE   En1  v020
 BYTE   W03
 BYTE   N03
 BYTE   W03
 BYTE   N03
 BYTE   W03
 BYTE   N03
 BYTE   W03
 BYTE   N03
 BYTE   W03
 BYTE   N03
 BYTE   W03
 BYTE   N03
 BYTE   W03
 BYTE   N03
 BYTE   W03
 BYTE   N03
 BYTE   W03
 BYTE   N03
 BYTE   W03
 BYTE   N03
 BYTE   W03
 BYTE   N03
 BYTE   W03
 BYTE   N03
 BYTE   W03
 BYTE   N03
 BYTE   W03
 BYTE   N03
 BYTE   W03
 BYTE   PATT
  POIN2 Label_14_013DE0AA
// 034   ----------------------------------------
 BYTE   W96
 BYTE   PATT
  POIN2 Label_14_013DE0AA
// 035   ----------------------------------------
 BYTE   N03  En1  v040
 BYTE   W03
 BYTE   N03
 BYTE   W03
 BYTE   En1  v020
 BYTE   W03
 BYTE   N03
 BYTE   W03
 BYTE   N03
 BYTE   W03
 BYTE   N03
 BYTE   W03
 BYTE   N03
 BYTE   W03
 BYTE   N03
 BYTE   W03
 BYTE   N03
 BYTE   W03
 BYTE   N03
 BYTE   W03
 BYTE   N03
 BYTE   W03
 BYTE   N03
 BYTE   W03
 BYTE   N03
 BYTE   W03
 BYTE   N03
 BYTE   W03
 BYTE   N03
 BYTE   W03
 BYTE   N03
 BYTE   W03
 BYTE   N03
 BYTE   W03
 BYTE   N03
 BYTE   W03
 BYTE   N03
 BYTE   W03
 BYTE   N03
 BYTE   W03
 BYTE   N03
 BYTE   W03
 BYTE   N03
 BYTE   W03
 BYTE   N03
 BYTE   W03
 BYTE   N03
 BYTE   W03
 BYTE   N03
 BYTE   W03
 BYTE   N03
 BYTE   W03
 BYTE   N03
 BYTE   W03
 BYTE   N03
 BYTE   W03
 BYTE   N03
 BYTE   W03
 BYTE   N03
 BYTE   W03
 BYTE   N03
 BYTE   W03
 BYTE   N03
 BYTE   W03
// 036   ----------------------------------------
Label_14_013DE125:
 BYTE   N03  Cn1  v040
 BYTE   N03  En1
 BYTE   N06  Bn2
 BYTE   W24
 BYTE   N03  En1
 BYTE   W09
 BYTE   N03
 BYTE   W07
 BYTE   N03
 BYTE   W08
 BYTE   N03
 BYTE   N06  An2  v060
 BYTE   N06  Bn2  v020
 BYTE   W48
 BYTE   PEND 
// 037   ----------------------------------------
 BYTE   N03  En1
 BYTE   W09
 BYTE   N03
 BYTE   W09
 BYTE   N03
 BYTE   W09
 BYTE   N03
 BYTE   W09
 BYTE   N03
 BYTE   W12
 BYTE   En1  v040
 BYTE   W03
 BYTE   En1  v020
 BYTE   W03
 BYTE   N03
 BYTE   W03
 BYTE   N03
 BYTE   W03
 BYTE   N03
 BYTE   W03
 BYTE   N03
 BYTE   W03
 BYTE   N03
 BYTE   W03
 BYTE   N03
 BYTE   W03
 BYTE   N03
 BYTE   W03
 BYTE   N03
 BYTE   W03
 BYTE   N03
 BYTE   W03
 BYTE   N03
 BYTE   W03
 BYTE   N03
 BYTE   W03
 BYTE   N03
 BYTE   W03
 BYTE   N03
 BYTE   W03
 BYTE   N03
 BYTE   W03
 BYTE   PATT
  POIN2 Label_14_013DE125
// 038   ----------------------------------------
 BYTE   N03  En1  v020
 BYTE   W09
 BYTE   N03
 BYTE   W09
 BYTE   N03
 BYTE   W09
 BYTE   N03
 BYTE   W09
 BYTE   N03
 BYTE   W12
 BYTE   En1  v040
 BYTE   W03
 BYTE   En1  v032
 BYTE   W03
 BYTE   N03
 BYTE   W03
 BYTE   N03
 BYTE   W03
 BYTE   N03
 BYTE   W03
 BYTE   N03
 BYTE   W03
 BYTE   N03
 BYTE   W03
 BYTE   N03
 BYTE   W03
 BYTE   N03
 BYTE   W03
 BYTE   N03
 BYTE   W03
 BYTE   N03
 BYTE   W03
 BYTE   N03
 BYTE   W03
 BYTE   N03
 BYTE   W03
 BYTE   N03
 BYTE   W03
 BYTE   N03
 BYTE   W03
 BYTE   N03
 BYTE   W03
 BYTE   PATT
  POIN2 Label_14_013DE125
// 039   ----------------------------------------
 BYTE   N03  En1  v020
 BYTE   W09
 BYTE   N03
 BYTE   W09
 BYTE   N03
 BYTE   W09
 BYTE   N03
 BYTE   W09
 BYTE   N03
 BYTE   W12
 BYTE   En1  v040
 BYTE   W03
 BYTE   En1  v020
 BYTE   W03
 BYTE   En1  v032
 BYTE   W03
 BYTE   N03
 BYTE   W03
 BYTE   N03
 BYTE   W03
 BYTE   N03
 BYTE   W03
 BYTE   N03
 BYTE   W03
 BYTE   N03
 BYTE   W03
 BYTE   N03
 BYTE   W03
 BYTE   N03
 BYTE   W03
 BYTE   N03
 BYTE   W03
 BYTE   N03
 BYTE   W03
 BYTE   N03
 BYTE   W03
 BYTE   N03
 BYTE   W03
 BYTE   N03
 BYTE   W03
 BYTE   N03
 BYTE   W03
 BYTE   PATT
  POIN2 Label_14_013DE050
// 040   ----------------------------------------
 BYTE   N03  En1  v020
 BYTE   W03
 BYTE   N03
 BYTE   W03
 BYTE   N03
 BYTE   W03
 BYTE   N03
 BYTE   W03
 BYTE   N03
 BYTE   W03
 BYTE   N03
 BYTE   W03
 BYTE   N03
 BYTE   W03
 BYTE   N03
 BYTE   W03
 BYTE   N03
 BYTE   W03
 BYTE   N03
 BYTE   W03
 BYTE   N03
 BYTE   W03
 BYTE   N03
 BYTE   W03
 BYTE   N03
 BYTE   W03
 BYTE   N03
 BYTE   W03
 BYTE   N03
 BYTE   W03
 BYTE   N03
 BYTE   W03
 BYTE   GoTo
  POIN2 Label_14_013DDBC6
 BYTE   FINE

//******************************************************//
	ALIGN 4

SuperSmashBrosBrawlMenuMrGreen3339:
	BYTE	15	// NumTrks
	BYTE	0	// NumBlks
	BYTE	SuperSmashBrosBrawlMenuMrGreen3339_pri	// Priority
	BYTE	SuperSmashBrosBrawlMenuMrGreen3339_rev	// Reverb.
    
	POIN2	SuperSmashBrosBrawlMenuMrGreen3339_grp
    
	POIN2	SuperSmashBrosBrawlMenuMrGreen3339_001
	POIN2	SuperSmashBrosBrawlMenuMrGreen3339_002
	POIN2	SuperSmashBrosBrawlMenuMrGreen3339_003
	POIN2	SuperSmashBrosBrawlMenuMrGreen3339_004
	POIN2	SuperSmashBrosBrawlMenuMrGreen3339_005
	POIN2	SuperSmashBrosBrawlMenuMrGreen3339_006
	POIN2	SuperSmashBrosBrawlMenuMrGreen3339_007
	POIN2	SuperSmashBrosBrawlMenuMrGreen3339_008
	POIN2	SuperSmashBrosBrawlMenuMrGreen3339_009
	POIN2	SuperSmashBrosBrawlMenuMrGreen3339_010
	POIN2	SuperSmashBrosBrawlMenuMrGreen3339_011
	POIN2	SuperSmashBrosBrawlMenuMrGreen3339_012
	POIN2	SuperSmashBrosBrawlMenuMrGreen3339_013
	POIN2	SuperSmashBrosBrawlMenuMrGreen3339_014
	POIN2	SuperSmashBrosBrawlMenuMrGreen3339_015

	
