//Event file generated from Sappy .s format.
	#include "MPlayDef.event"

	#define	SuperPaperMarioItsShowtimeMrGreen3339_grp  voicegroup000
	#define	SuperPaperMarioItsShowtimeMrGreen3339_pri  0
	#define	SuperPaperMarioItsShowtimeMrGreen3339_rev  0
	#define	SuperPaperMarioItsShowtimeMrGreen3339_mvl  127
	#define	SuperPaperMarioItsShowtimeMrGreen3339_key  0
	#define	SuperPaperMarioItsShowtimeMrGreen3339_tbs  1
	#define	SuperPaperMarioItsShowtimeMrGreen3339_exg  0
	#define	SuperPaperMarioItsShowtimeMrGreen3339_cmp  1

	// .rodata
	//	SuperPaperMarioItsShowtimeMrGreen3339
	ALIGN 4


//**************** Track 1 (Midi-Chn.0) ****************//

SuperPaperMarioItsShowtimeMrGreen3339_001:
// 000   ----------------------------------------
 BYTE   KEYSH   SuperPaperMarioItsShowtimeMrGreen3339_key+0
 BYTE   TEMPO   120*SuperPaperMarioItsShowtimeMrGreen3339_tbs/2
 BYTE   VOICE   10
 BYTE   VOL   57*SuperPaperMarioItsShowtimeMrGreen3339_mvl/mxv
 BYTE   W36
 BYTE   W36
 BYTE   W36
// 001   ----------------------------------------
 BYTE   W36
 BYTE   W36
 BYTE   W36
// 002   ----------------------------------------
 BYTE   W36
 BYTE   W36
 BYTE   W36
// 003   ----------------------------------------
 BYTE   W36
 BYTE   W36
 BYTE   W36
// 004   ----------------------------------------
 BYTE   W36
 BYTE   W36
 BYTE   W36
// 005   ----------------------------------------
 BYTE   W36
 BYTE   W36
 BYTE   W36
// 006   ----------------------------------------
 BYTE   W36
 BYTE   W36
Label_0_015A1B60:
 BYTE   W12
 BYTE   N03  En4  v064
 BYTE   W06
 BYTE   Fn4
 BYTE   W06
// 007   ----------------------------------------
 BYTE   Fs4
 BYTE   W06
 BYTE   Gn4
 BYTE   W06
 BYTE   PEND 
Label_0_015A1B6C:
 BYTE   N03  Gs4  v064
 BYTE   W06
 BYTE   An4
 BYTE   W06
 BYTE   As4
 BYTE   W06
 BYTE   Bn4
 BYTE   W06
 BYTE   As4
 BYTE   W06
 BYTE   An4
 BYTE   W06
 BYTE   PEND 
 BYTE   N12  As4
 BYTE   W36
 BYTE   W36
// 008   ----------------------------------------
Label_0_015A1B7F:
 BYTE   N12  Gn4  v064
 BYTE   W36
 BYTE   W36
 BYTE   En4
 BYTE   W36
// 009   ----------------------------------------
 BYTE   W36
 BYTE   N03  Fn3
 BYTE   W18
 BYTE   N03
 BYTE   W12
 BYTE   N03
 BYTE   W06
 BYTE   W06
 BYTE   N03
 BYTE   W06
 BYTE   Fs3
 BYTE   W24
// 010   ----------------------------------------
 BYTE   W36
 BYTE   W36
 BYTE   W36
// 011   ----------------------------------------
 BYTE   W36
 BYTE   W36
 BYTE   W36
// 012   ----------------------------------------
 BYTE   W12
 BYTE   Gs4
 BYTE   W06
 BYTE   Fs4
 BYTE   W06
 BYTE   En4
 BYTE   W06
 BYTE   Dn4
 BYTE   W06
 BYTE   Cn4
 BYTE   W06
 BYTE   As3
 BYTE   W06
 BYTE   Gs3
 BYTE   W06
 BYTE   As3
 BYTE   W06
 BYTE   Cn4
 BYTE   W06
 BYTE   Dn4
 BYTE   W06
 BYTE   En4
 BYTE   W06
 BYTE   Fs4
 BYTE   W06
 BYTE   Gs4
 BYTE   W06
 BYTE   As4
 BYTE   W06
// 013   ----------------------------------------
 BYTE   Cn5
 BYTE   W06
 BYTE   Dn5
 BYTE   W06
 BYTE   En5
 BYTE   W06
 BYTE   Dn5
 BYTE   W06
 BYTE   Cn5
 BYTE   W06
 BYTE   As4
 BYTE   W06
 BYTE   Gs4
 BYTE   W06
 BYTE   Fs4
 BYTE   W06
 BYTE   En4
 BYTE   W06
 BYTE   As3
 BYTE   W06
 BYTE   Cn4
 BYTE   W06
 BYTE   Dn4
 BYTE   W06
 BYTE   En4
 BYTE   W06
 BYTE   Fs4
 BYTE   W06
 BYTE   Gs4
 BYTE   W06
 BYTE   As4
 BYTE   W06
// 014   ----------------------------------------
 BYTE   Gs4
 BYTE   W06
 BYTE   Dn4
 BYTE   W06
 BYTE   En4
 BYTE   W06
 BYTE   Fs4
 BYTE   W06
 BYTE   Gs4
 BYTE   W12
 BYTE   As4
 BYTE   W12
 BYTE   Gs4
 BYTE   W12
 BYTE   As4
 BYTE   W12
 BYTE   Gn4
 BYTE   W12
 BYTE   Cn5
 BYTE   W12
// 015   ----------------------------------------
 BYTE   As4
 BYTE   W12
 BYTE   Fs4
 BYTE   W12
 BYTE   Gs4
 BYTE   W12
Label_0_015A1BF0:
 BYTE   N03  En4  v064
 BYTE   W12
 BYTE   Fs4
 BYTE   W12
 BYTE   Gs4
 BYTE   W12
 BYTE   PEND 
 BYTE   PATT
  POIN2 Label_0_015A1BF0
// 016   ----------------------------------------
 BYTE   N03  As4  v064
 BYTE   W12
 BYTE   Cn5
 BYTE   W12
 BYTE   Dn5
 BYTE   W12
 BYTE   En5
 BYTE   W12
 BYTE   Cn4
 BYTE   W12
 BYTE   Dn4
 BYTE   W12
 BYTE   PATT
  POIN2 Label_0_015A1BF0
// 017   ----------------------------------------
 BYTE   N03  As4  v064
 BYTE   W36
 BYTE   W36
 BYTE   Bn4
 BYTE   W36
// 018   ----------------------------------------
 BYTE   W36
 BYTE   W36
 BYTE   W36
// 019   ----------------------------------------
 BYTE   W12
 BYTE   N03
 BYTE   W12
 BYTE   As4
 BYTE   W12
 BYTE   An4
 BYTE   W12
 BYTE   Gs4
 BYTE   W12
 BYTE   Gn4
 BYTE   W12
 BYTE   Fs4
 BYTE   W12
 BYTE   Fn4
 BYTE   W12
// 020   ----------------------------------------
 BYTE   En4
 BYTE   W12
 BYTE   Ds4
 BYTE   W12
 BYTE   Dn4
 BYTE   W12
 BYTE   Cs4
 BYTE   W12
 BYTE   W36
 BYTE   W36
// 021   ----------------------------------------
 BYTE   W36
 BYTE   W36
 BYTE   W36
// 022   ----------------------------------------
 BYTE   W36
 BYTE   W36
 BYTE   W36
// 023   ----------------------------------------
 BYTE   W36
 BYTE   W36
 BYTE   W36
// 024   ----------------------------------------
 BYTE   W36
 BYTE   W36
 BYTE   W36
// 025   ----------------------------------------
 BYTE   W36
 BYTE   W36
 BYTE   W36
// 026   ----------------------------------------
 BYTE   W36
 BYTE   W36
 BYTE   W36
// 027   ----------------------------------------
 BYTE   W36
 BYTE   W36
 BYTE   W36
// 028   ----------------------------------------
 BYTE   W36
 BYTE   W36
 BYTE   W36
// 029   ----------------------------------------
 BYTE   W36
 BYTE   W24
 BYTE   Fn3
 BYTE   W12
 BYTE   As3
 BYTE   W36
// 030   ----------------------------------------
 BYTE   W36
 BYTE   W36
 BYTE   W36
// 031   ----------------------------------------
 BYTE   W36
 BYTE   W36
 BYTE   W36
// 032   ----------------------------------------
 BYTE   W36
 BYTE   W36
 BYTE   W36
// 033   ----------------------------------------
 BYTE   W36
 BYTE   W36
 BYTE   W36
// 034   ----------------------------------------
 BYTE   W36
 BYTE   W36
 BYTE   W36
// 035   ----------------------------------------
 BYTE   W36
 BYTE   W36
 BYTE   W36
// 036   ----------------------------------------
 BYTE   W36
 BYTE   W36
 BYTE   PATT
  POIN2 Label_0_015A1B60
 BYTE   PATT
  POIN2 Label_0_015A1B6C
// 037   ----------------------------------------
 BYTE   N12  As4  v064
 BYTE   W36
 BYTE   W36
 BYTE   GoTo
  POIN2 Label_0_015A1B7F
 BYTE   FINE

//**************** Track 2 (Midi-Chn.1) ****************//

SuperPaperMarioItsShowtimeMrGreen3339_002:
// 000   ----------------------------------------
 BYTE   KEYSH   SuperPaperMarioItsShowtimeMrGreen3339_key+0
 BYTE   VOICE   19
 BYTE   VOL   61*SuperPaperMarioItsShowtimeMrGreen3339_mvl/mxv
 BYTE   N06  En3  v064
 BYTE   N06  En4
 BYTE   W06
 BYTE   As3
 BYTE   N06  As4
 BYTE   W06
 BYTE   Gs3
 BYTE   N06  Gs4
 BYTE   W06
 BYTE   As3
 BYTE   N06  As4
 BYTE   W06
 BYTE   Bn3
 BYTE   N06  Bn4
 BYTE   W06
 BYTE   Gs3
 BYTE   N06  Gs4
 BYTE   W06
Label_1_015A1C9C:
 BYTE   N06  As3  v064
 BYTE   N06  As4
 BYTE   W06
 BYTE   Fs3
 BYTE   N06  Fs4
 BYTE   W06
 BYTE   Gs3
 BYTE   N06  Gs4
 BYTE   W06
 BYTE   Fn3
 BYTE   N06  Fn4
 BYTE   W06
 BYTE   Fs3
 BYTE   N06  Fs4
 BYTE   W06
 BYTE   Ds3
 BYTE   N06  Ds4
 BYTE   W06
 BYTE   PEND 
Label_1_015A1CB7:
 BYTE   N06  Dn3  v064
 BYTE   N06  Dn4
 BYTE   W06
 BYTE   Fn3
 BYTE   N06  Fn4
 BYTE   W06
 BYTE   As3
 BYTE   N06  As4
 BYTE   W06
 BYTE   Gs3
 BYTE   N06  Gs4
 BYTE   W06
// 001   ----------------------------------------
 BYTE   Gn3
 BYTE   N06  Gn4
 BYTE   W06
 BYTE   Ds4
 BYTE   N06  Ds5
 BYTE   W06
 BYTE   PEND 
Label_1_015A1CD2:
 BYTE   N06  Cs4  v064
 BYTE   N06  Cs5
 BYTE   W06
 BYTE   Ds4
 BYTE   N06  Ds5
 BYTE   W06
 BYTE   Bn3
 BYTE   N06  Bn4
 BYTE   W06
 BYTE   Ds4
 BYTE   N06  Ds5
 BYTE   W06
 BYTE   As3
 BYTE   N06  As4
 BYTE   W06
 BYTE   Cs4
 BYTE   N06  Cs5
 BYTE   W06
 BYTE   PEND 
Label_1_015A1CED:
 BYTE   N06  Bn3  v064
 BYTE   N06  Bn4
 BYTE   W06
 BYTE   Gs3
 BYTE   N06  Gs4
 BYTE   W06
 BYTE   Fs4
 BYTE   N06  Fs5
 BYTE   W06
 BYTE   Ds4
 BYTE   N06  Ds5
 BYTE   W06
 BYTE   Dn4
 BYTE   N06  Dn5
 BYTE   W06
 BYTE   Bn3
 BYTE   N06  Bn4
 BYTE   W06
 BYTE   PEND 
Label_1_015A1D08:
 BYTE   N06  As3  v064
 BYTE   N06  As4
 BYTE   W06
 BYTE   Gs3
 BYTE   N06  Gs4
 BYTE   W06
// 002   ----------------------------------------
 BYTE   As3
 BYTE   N06  As4
 BYTE   W06
 BYTE   Ds3
 BYTE   N06  Ds4
 BYTE   W06
 BYTE   Fn3
 BYTE   N06  Fn4
 BYTE   W06
 BYTE   Gn3
 BYTE   N06  Gn4
 BYTE   W06
 BYTE   PEND 
Label_1_015A1D23:
 BYTE   N06  Gs3  v064
 BYTE   N06  Gs4
 BYTE   W06
 BYTE   Ds4
 BYTE   N06  Ds5
 BYTE   W06
 BYTE   Cs4
 BYTE   N06  Cs5
 BYTE   W06
 BYTE   Ds4
 BYTE   N06  Ds5
 BYTE   W06
 BYTE   Fn3
 BYTE   N06  Fn4
 BYTE   W06
 BYTE   Bn3
 BYTE   N06  Bn4
 BYTE   W06
 BYTE   PEND 
Label_1_015A1D3E:
 BYTE   N06  Fs3  v064
 BYTE   N06  Fs4
 BYTE   W06
 BYTE   Fn3
 BYTE   N06  Fn4
 BYTE   W06
 BYTE   Ds3
 BYTE   N06  Ds4
 BYTE   W06
 BYTE   Fn3
 BYTE   N06  Fn4
 BYTE   W06
 BYTE   Fs3
 BYTE   N06  Fs4
 BYTE   W06
 BYTE   An3
 BYTE   N06  An4
 BYTE   W06
 BYTE   PEND 
// 003   ----------------------------------------
Label_1_015A1D59:
 BYTE   N06  As3  v064
 BYTE   N06  As4
 BYTE   W06
 BYTE   Gs3
 BYTE   N06  Gs4
 BYTE   W06
 BYTE   As3
 BYTE   N06  As4
 BYTE   W06
 BYTE   Fs3
 BYTE   N06  Fs4
 BYTE   W06
 BYTE   Fn3
 BYTE   N06  Fn4
 BYTE   W06
 BYTE   An3
 BYTE   N06  An4
 BYTE   W06
 BYTE   PEND 
Label_1_015A1D74:
 BYTE   N06  Fs3  v064
 BYTE   N06  Fs4
 BYTE   W06
 BYTE   Gs3
 BYTE   N06  Gs4
 BYTE   W06
 BYTE   Cn3
 BYTE   N06  Cn4
 BYTE   W06
 BYTE   En3
 BYTE   N06  En4
 BYTE   W06
 BYTE   Cn3
 BYTE   N06  Cn4
 BYTE   W06
 BYTE   Gs3
 BYTE   N06  Gs4
 BYTE   W06
 BYTE   PEND 
Label_1_015A1D8F:
 BYTE   TIE  As3  v064
 BYTE   TIE  As4
 BYTE   W36
 BYTE   PEND 
// 004   ----------------------------------------
 BYTE   W36
 BYTE   W36
 BYTE   W36
// 005   ----------------------------------------
 BYTE   EOT
 BYTE   As3  v082
Label_1_015A1D9C:
 BYTE   N06  En3  v064
 BYTE   N06  En4
 BYTE   W06
 BYTE   As3
 BYTE   N06  As4
 BYTE   W06
 BYTE   Gs3
 BYTE   N06  Gs4
 BYTE   W06
 BYTE   As3
 BYTE   N06  As4
 BYTE   W06
 BYTE   Bn3
 BYTE   N06  Bn4
 BYTE   W06
 BYTE   Gs3
 BYTE   N06  Gs4
 BYTE   W06
 BYTE   PEND 
 BYTE   PATT
  POIN2 Label_1_015A1C9C
// 006   ----------------------------------------
Label_1_015A1DBC:
 BYTE   N06  En3  v064
 BYTE   N06  En4
 BYTE   W06
 BYTE   Fn3
 BYTE   N06  Fn4
 BYTE   W06
 BYTE   Fs3
 BYTE   N06  Fs4
 BYTE   W06
 BYTE   Gs3
 BYTE   N06  Gs4
 BYTE   W06
 BYTE   Gn3
 BYTE   N06  Gn4
 BYTE   W06
 BYTE   Ds4
 BYTE   N06  Ds5
 BYTE   W06
 BYTE   PEND 
Label_1_015A1DD7:
 BYTE   N06  Cs4  v064
 BYTE   N06  Cs5
 BYTE   W06
 BYTE   As3
 BYTE   N06  As4
 BYTE   W06
 BYTE   Cn4
 BYTE   N06  Cn5
 BYTE   W06
 BYTE   Gs3
 BYTE   N06  Gs4
 BYTE   W06
 BYTE   As3
 BYTE   N06  As4
 BYTE   W06
 BYTE   Gn3
 BYTE   N06  Gn4
 BYTE   W06
 BYTE   PEND 
Label_1_015A1DF2:
 BYTE   N06  Gs3  v064
 BYTE   N06  Gs4
 BYTE   W06
 BYTE   Gn3
 BYTE   N06  Gn4
 BYTE   W06
 BYTE   Fs4
 BYTE   N06  Fs5
 BYTE   W06
 BYTE   Ds4
 BYTE   N06  Ds5
 BYTE   W06
// 007   ----------------------------------------
 BYTE   Dn4
 BYTE   N06  Dn5
 BYTE   W06
 BYTE   Bn3
 BYTE   N06  Bn4
 BYTE   W06
 BYTE   PEND 
 BYTE   PATT
  POIN2 Label_1_015A1D08
// 008   ----------------------------------------
 BYTE   N36  Gs3  v064
 BYTE   N36  Gs4
 BYTE   W36
Label_1_015A1E18:
 BYTE   N06  Fs3  v064
 BYTE   N06  Fs4
 BYTE   W06
 BYTE   Fn3
 BYTE   N06  Fn4
 BYTE   W06
 BYTE   En3
 BYTE   N06  En4
 BYTE   W06
 BYTE   Fn3
 BYTE   N06  Fn4
 BYTE   W06
 BYTE   Fs3
 BYTE   N06  Fs4
 BYTE   W06
 BYTE   Gs3
 BYTE   N06  Gs4
 BYTE   W06
 BYTE   PEND 
 BYTE   N72  As3
 BYTE   N72  As4
 BYTE   W36
// 009   ----------------------------------------
 BYTE   W36
Label_1_015A1E39:
 BYTE   N72  Gn3  v064
 BYTE   N72  Gn4
 BYTE   W36
 BYTE   W36
// 010   ----------------------------------------
 BYTE   En3
 BYTE   N72  En4
 BYTE   W36
 BYTE   W36
 BYTE   N18  Fn2
 BYTE   N18  Fn3
 BYTE   W18
 BYTE   N06  Fn2
 BYTE   N06  Fn3
 BYTE   W12
// 011   ----------------------------------------
 BYTE   Fn2
 BYTE   N06  Fn3
 BYTE   W06
 BYTE   W06
 BYTE   Fn2
 BYTE   N06  Fn3
 BYTE   W06
 BYTE   N24  Fs2
 BYTE   N24  Fs3
 BYTE   W24
 BYTE   N06  Ds3
 BYTE   N06  Ds4
 BYTE   W06
 BYTE   As3
 BYTE   N06  As4
 BYTE   W06
 BYTE   Gs3
 BYTE   N06  Gs4
 BYTE   W06
 BYTE   As3
 BYTE   N06  As4
 BYTE   W06
 BYTE   Bn3
 BYTE   N06  Bn4
 BYTE   W06
 BYTE   Cs4
 BYTE   N06  Cs5
 BYTE   W06
 BYTE   Gs3
 BYTE   N06  Gs4
 BYTE   W06
 BYTE   Bn3
 BYTE   N06  Bn4
 BYTE   W06
 BYTE   Gs3
 BYTE   N06  Gs4
 BYTE   W06
// 012   ----------------------------------------
 BYTE   As3
 BYTE   N06  As4
 BYTE   W06
 BYTE   Fs3
 BYTE   N06  Fs4
 BYTE   W06
 BYTE   Gs3
 BYTE   N06  Gs4
 BYTE   W06
 BYTE   Fn3
 BYTE   N06  Fn4
 BYTE   W06
 BYTE   As3
 BYTE   N06  As4
 BYTE   W06
 BYTE   Gn4
 BYTE   N06  Gn5
 BYTE   W06
 BYTE   Fn4
 BYTE   N06  Fn5
 BYTE   W06
 BYTE   En4
 BYTE   N06  En5
 BYTE   W06
 BYTE   As3
 BYTE   N06  As4
 BYTE   W06
 BYTE   Ds4
 BYTE   N06  Ds5
 BYTE   W06
 BYTE   Cs4
 BYTE   N06  Cs5
 BYTE   W06
 BYTE   Fn4
 BYTE   N06  Fn5
 BYTE   W06
 BYTE   As3
 BYTE   N06  As4
 BYTE   W06
 BYTE   Cs4
 BYTE   N06  Cs5
 BYTE   W06
 BYTE   Bn3
 BYTE   N06  Bn4
 BYTE   W06
 BYTE   Ds4
 BYTE   N06  Ds5
 BYTE   W06
// 013   ----------------------------------------
 BYTE   Bn3
 BYTE   N06  Bn4
 BYTE   W06
 BYTE   Cs4
 BYTE   N06  Cs5
 BYTE   W06
 BYTE   Bn3
 BYTE   N06  Bn4
 BYTE   W06
 BYTE   An3
 BYTE   N06  An4
 BYTE   W06
 BYTE   Gn3
 BYTE   N06  Gn4
 BYTE   W06
 BYTE   Cs4
 BYTE   N06  Cs5
 BYTE   W06
 BYTE   Fs3
 BYTE   N06  Fs4
 BYTE   W06
 BYTE   Bn3
 BYTE   N06  Bn4
 BYTE   W06
 BYTE   Gn3
 BYTE   N06  Gn4
 BYTE   W06
 BYTE   As3
 BYTE   N06  As4
 BYTE   W06
 BYTE   Gn3
 BYTE   N06  Gn4
 BYTE   W06
 BYTE   N36  Gs3
 BYTE   N36  Gs4
 BYTE   W36
// 014   ----------------------------------------
 BYTE   N06  Gs3
 BYTE   N06  Gs4
 BYTE   W06
 BYTE   Gn3
 BYTE   N06  Gn4
 BYTE   W06
 BYTE   Gs3
 BYTE   N06  Gs4
 BYTE   W06
 BYTE   Cs4
 BYTE   N06  Cs5
 BYTE   W06
 BYTE   Bn3
 BYTE   N06  Bn4
 BYTE   W06
 BYTE   As3
 BYTE   N06  As4
 BYTE   W06
 BYTE   N72  Bn3
 BYTE   N72  Bn4
 BYTE   W36
 BYTE   W36
// 015   ----------------------------------------
 BYTE   Gs3
 BYTE   N72  Gs4
 BYTE   W36
 BYTE   W36
 BYTE   N36  Gs3
 BYTE   N36  Gs4
 BYTE   W36
 BYTE   PATT
  POIN2 Label_1_015A1D8F
// 016   ----------------------------------------
 BYTE   W36
 BYTE   W36
 BYTE   EOT
 BYTE   As3  v082
 BYTE   N72  Gn3  v064
 BYTE   N72  Gn4
 BYTE   W36
// 017   ----------------------------------------
 BYTE   W36
 BYTE   Gs3
 BYTE   N72  Gs4
 BYTE   W36
 BYTE   W36
// 018   ----------------------------------------
 BYTE   As3
 BYTE   N72  As4
 BYTE   W36
 BYTE   W36
 BYTE   TIE  Bn3
 BYTE   TIE  Bn4
 BYTE   W36
// 019   ----------------------------------------
 BYTE   W36
 BYTE   W36
 BYTE   W36
// 020   ----------------------------------------
 BYTE   EOT
 BYTE   Bn3  v083
 BYTE   W12
 BYTE   N12  Bn3
 BYTE   N12  Bn4
 BYTE   W12
 BYTE   As3
 BYTE   N12  As4
 BYTE   W12
 BYTE   An3
 BYTE   N12  An4
 BYTE   W12
 BYTE   Gs3
 BYTE   N12  Gs4
 BYTE   W12
 BYTE   Gn3
 BYTE   N12  Gn4
 BYTE   W12
 BYTE   Fs3
 BYTE   N12  Fs4
 BYTE   W12
 BYTE   Fn3
 BYTE   N12  Fn4
 BYTE   W12
// 021   ----------------------------------------
 BYTE   En3
 BYTE   N12  En4
 BYTE   W12
 BYTE   Ds3
 BYTE   N12  Ds4
 BYTE   W12
 BYTE   Dn3
 BYTE   N12  Dn4
 BYTE   W12
 BYTE   Cs3
 BYTE   N12  Cs4
 BYTE   W12
 BYTE   Cn3
 BYTE   N12  Cn4
 BYTE   W36
 BYTE   W36
// 022   ----------------------------------------
 BYTE   W36
 BYTE   W36
 BYTE   N24  As2
 BYTE   N24  As3
 BYTE   W24
// 023   ----------------------------------------
 BYTE   N12  An2
 BYTE   N12  An3
 BYTE   W12
 BYTE   N24  As2
 BYTE   N24  As3
 BYTE   W24
 BYTE   N12  Cn3
 BYTE   N12  Cn4
 BYTE   W12
 BYTE   Dn3
 BYTE   N12  Dn4
 BYTE   W12
 BYTE   Cn3
 BYTE   N12  Cn4
 BYTE   W12
 BYTE   As2
 BYTE   N12  As3
 BYTE   W12
 BYTE   N24  An2
 BYTE   N24  An3
 BYTE   W24
// 024   ----------------------------------------
 BYTE   N12  Cn3
 BYTE   N12  Cn4
 BYTE   W12
 BYTE   N24  As2
 BYTE   N24  As3
 BYTE   W24
 BYTE   N12  Gn2
 BYTE   N12  Gn3
 BYTE   W12
 BYTE   N24  Gs2
 BYTE   N24  Gs3
 BYTE   W24
 BYTE   N12  Gn2
 BYTE   N12  Gn3
 BYTE   W12
 BYTE   N36  Fs2
 BYTE   N36  Fs3
 BYTE   W36
// 025   ----------------------------------------
 BYTE   Fn2
 BYTE   N36  Fn3
 BYTE   W36
 BYTE   N24  Ds3
 BYTE   N24  Ds4
 BYTE   W24
 BYTE   N12  Dn3
 BYTE   N12  Dn4
 BYTE   W12
 BYTE   N24  Ds3
 BYTE   N24  Ds4
 BYTE   W24
// 026   ----------------------------------------
 BYTE   N12  Fn3
 BYTE   N12  Fn4
 BYTE   W12
 BYTE   Gn3
 BYTE   N12  Gn4
 BYTE   W12
 BYTE   Fn3
 BYTE   N12  Fn4
 BYTE   W12
 BYTE   Ds3
 BYTE   N12  Ds4
 BYTE   W12
 BYTE   N24  Dn3
 BYTE   N24  Dn4
 BYTE   W24
 BYTE   N12  En3
 BYTE   N12  En4
 BYTE   W12
 BYTE   N24  Ds3
 BYTE   N24  Ds4
 BYTE   W24
// 027   ----------------------------------------
 BYTE   N12  Bn2
 BYTE   N12  Bn3
 BYTE   W12
 BYTE   N24
 BYTE   N24  Bn4
 BYTE   W24
 BYTE   N12  As3
 BYTE   N12  As4
 BYTE   W12
 BYTE   N36  Gs3
 BYTE   N36  Gs4
 BYTE   W36
 BYTE   Fs3
 BYTE   N36  Fs4
 BYTE   W36
// 028   ----------------------------------------
 BYTE   N12  As2
 BYTE   N12  As3
 BYTE   W12
 BYTE   Cs3
 BYTE   N12  Cs4
 BYTE   W12
 BYTE   En3
 BYTE   N12  En4
 BYTE   W12
 BYTE   N36  Ds3
 BYTE   N36  Ds4
 BYTE   W36
 BYTE   N12  Cn3
 BYTE   N12  Cn4
 BYTE   W12
 BYTE   Ds3
 BYTE   N12  Ds4
 BYTE   W12
// 029   ----------------------------------------
 BYTE   Fs3
 BYTE   N12  Fs4
 BYTE   W12
 BYTE   Fn3
 BYTE   N12  Fn4
 BYTE   W12
 BYTE   Gs3
 BYTE   N12  Gs4
 BYTE   W12
 BYTE   Bn3
 BYTE   N12  Bn4
 BYTE   W12
 BYTE   PATT
  POIN2 Label_1_015A1D8F
// 030   ----------------------------------------
 BYTE   W36
 BYTE   W36
 BYTE   W24
// 031   ----------------------------------------
 BYTE   EOT
 BYTE   As3  v082
 BYTE   N12  Fn2  v064
 BYTE   N12  Fn3
 BYTE   W12
 BYTE   N36  As2
 BYTE   N36  As3
 BYTE   W36
 BYTE   PATT
  POIN2 Label_1_015A1D9C
 BYTE   PATT
  POIN2 Label_1_015A1C9C
 BYTE   PATT
  POIN2 Label_1_015A1CB7
 BYTE   PATT
  POIN2 Label_1_015A1CD2
 BYTE   PATT
  POIN2 Label_1_015A1CED
 BYTE   PATT
  POIN2 Label_1_015A1D08
 BYTE   PATT
  POIN2 Label_1_015A1D23
 BYTE   PATT
  POIN2 Label_1_015A1D3E
 BYTE   PATT
  POIN2 Label_1_015A1D59
 BYTE   PATT
  POIN2 Label_1_015A1D74
 BYTE   PATT
  POIN2 Label_1_015A1D8F
// 032   ----------------------------------------
 BYTE   W36
 BYTE   W36
 BYTE   W36
// 033   ----------------------------------------
 BYTE   EOT
 BYTE   As3  v082
 BYTE   PATT
  POIN2 Label_1_015A1D9C
 BYTE   PATT
  POIN2 Label_1_015A1C9C
 BYTE   PATT
  POIN2 Label_1_015A1DBC
 BYTE   PATT
  POIN2 Label_1_015A1DD7
 BYTE   PATT
  POIN2 Label_1_015A1DF2
 BYTE   PATT
  POIN2 Label_1_015A1D08
// 034   ----------------------------------------
 BYTE   N36  Gs3  v064
 BYTE   N36  Gs4
 BYTE   W36
 BYTE   PATT
  POIN2 Label_1_015A1E18
// 035   ----------------------------------------
 BYTE   N72  As3  v064
 BYTE   N72  As4
 BYTE   W36
 BYTE   W36
 BYTE   GoTo
  POIN2 Label_1_015A1E39
 BYTE   FINE

//**************** Track 3 (Midi-Chn.2) ****************//

SuperPaperMarioItsShowtimeMrGreen3339_003:
// 000   ----------------------------------------
 BYTE   KEYSH   SuperPaperMarioItsShowtimeMrGreen3339_key+0
 BYTE   VOICE   21
 BYTE   VOL   65*SuperPaperMarioItsShowtimeMrGreen3339_mvl/mxv
 BYTE   W36
 BYTE   W36
 BYTE   W36
// 001   ----------------------------------------
 BYTE   W36
 BYTE   W36
 BYTE   W36
// 002   ----------------------------------------
 BYTE   W36
 BYTE   W36
 BYTE   W36
// 003   ----------------------------------------
 BYTE   W36
 BYTE   W36
 BYTE   W36
// 004   ----------------------------------------
 BYTE   W36
 BYTE   W36
Label_2_015A20CC:
 BYTE   N06  En3  v064
 BYTE   W06
 BYTE   As3
 BYTE   W06
 BYTE   Gs3
 BYTE   W06
 BYTE   As3
 BYTE   W06
// 005   ----------------------------------------
 BYTE   Bn3
 BYTE   W06
 BYTE   Gs3
 BYTE   W06
 BYTE   PEND 
Label_2_015A20DB:
 BYTE   N06  As3  v064
 BYTE   W06
 BYTE   Fs3
 BYTE   W06
 BYTE   Gs3
 BYTE   W06
 BYTE   Fn3
 BYTE   W06
 BYTE   Fs3
 BYTE   W06
 BYTE   Ds3
 BYTE   W06
 BYTE   PEND 
Label_2_015A20EA:
 BYTE   N06  En3  v064
 BYTE   W06
 BYTE   Fn3
 BYTE   W06
 BYTE   Fs3
 BYTE   W06
 BYTE   Gs3
 BYTE   W06
 BYTE   Gn3
 BYTE   W06
 BYTE   Ds4
 BYTE   W06
 BYTE   PEND 
Label_2_015A20F9:
 BYTE   N06  Cs4  v064
 BYTE   W06
 BYTE   As3
 BYTE   W06
// 006   ----------------------------------------
 BYTE   Cn4
 BYTE   W06
 BYTE   Gs3
 BYTE   W06
 BYTE   As3
 BYTE   W06
 BYTE   Gn3
 BYTE   W06
 BYTE   PEND 
Label_2_015A2108:
 BYTE   N06  Gs3  v064
 BYTE   W06
 BYTE   Gn3
 BYTE   W06
 BYTE   Fs4
 BYTE   W06
 BYTE   Ds4
 BYTE   W06
 BYTE   Dn4
 BYTE   W06
 BYTE   Bn3
 BYTE   W06
 BYTE   PEND 
Label_2_015A2117:
 BYTE   N06  As3  v064
 BYTE   W06
 BYTE   Gs3
 BYTE   W06
 BYTE   As3
 BYTE   W06
 BYTE   Ds3
 BYTE   W06
 BYTE   Fn3
 BYTE   W06
 BYTE   Gn3
 BYTE   W06
 BYTE   PEND 
// 007   ----------------------------------------
 BYTE   N36  Gs3
 BYTE   W36
Label_2_015A2129:
 BYTE   N06  Fs3  v064
 BYTE   W06
 BYTE   Fn3
 BYTE   W06
 BYTE   En3
 BYTE   W06
 BYTE   Fn3
 BYTE   W06
 BYTE   Fs3
 BYTE   W06
 BYTE   Gs3
 BYTE   W06
 BYTE   PEND 
 BYTE   N72  As3
 BYTE   W36
// 008   ----------------------------------------
 BYTE   W36
Label_2_015A213C:
 BYTE   N72  Gn3  v064
 BYTE   W36
 BYTE   W36
// 009   ----------------------------------------
 BYTE   En3
 BYTE   W36
 BYTE   W36
 BYTE   N18  Fn1
 BYTE   W18
 BYTE   N06
 BYTE   W12
// 010   ----------------------------------------
 BYTE   N06
 BYTE   W06
 BYTE   W06
 BYTE   N06
 BYTE   W06
 BYTE   N24  Fs1
 BYTE   W24
 BYTE   N06  Ds3
 BYTE   W06
 BYTE   As3
 BYTE   W06
 BYTE   Gs3
 BYTE   W06
 BYTE   As3
 BYTE   W06
 BYTE   Bn3
 BYTE   W06
 BYTE   Cs4
 BYTE   W06
 BYTE   Gs3
 BYTE   W06
 BYTE   Bn3
 BYTE   W06
 BYTE   Gs3
 BYTE   W06
// 011   ----------------------------------------
 BYTE   As3
 BYTE   W06
 BYTE   Fs3
 BYTE   W06
 BYTE   Gs3
 BYTE   W06
 BYTE   Fn3
 BYTE   W06
 BYTE   As3
 BYTE   W06
 BYTE   Gn4
 BYTE   W06
 BYTE   Fn4
 BYTE   W06
 BYTE   En4
 BYTE   W06
 BYTE   As3
 BYTE   W06
 BYTE   Ds4
 BYTE   W06
 BYTE   Cs4
 BYTE   W06
 BYTE   Fn4
 BYTE   W06
 BYTE   As3
 BYTE   W06
 BYTE   Cs4
 BYTE   W06
 BYTE   Bn3
 BYTE   W06
 BYTE   Ds4
 BYTE   W06
// 012   ----------------------------------------
 BYTE   Bn3
 BYTE   W06
 BYTE   Cs4
 BYTE   W06
 BYTE   Bn3
 BYTE   W06
 BYTE   An3
 BYTE   W06
 BYTE   Gn3
 BYTE   W06
 BYTE   Cs4
 BYTE   W06
 BYTE   Fs3
 BYTE   W06
 BYTE   Bn3
 BYTE   W06
 BYTE   Gn3
 BYTE   W06
 BYTE   As3
 BYTE   W06
 BYTE   Gn3
 BYTE   W06
 BYTE   N36  Gs3
 BYTE   W36
// 013   ----------------------------------------
 BYTE   N06
 BYTE   W06
 BYTE   Gn3
 BYTE   W06
 BYTE   Gs3
 BYTE   W06
 BYTE   Cs4
 BYTE   W06
 BYTE   Bn3
 BYTE   W06
 BYTE   As3
 BYTE   W06
 BYTE   N72  Bn3
 BYTE   W36
 BYTE   W36
// 014   ----------------------------------------
 BYTE   Gs3
 BYTE   W36
 BYTE   W36
 BYTE   N36
 BYTE   W36
// 015   ----------------------------------------
 BYTE   TIE  As3
 BYTE   W36
 BYTE   W36
 BYTE   W36
// 016   ----------------------------------------
 BYTE   EOT
 BYTE   N72  Gn3
 BYTE   W36
 BYTE   W36
 BYTE   Gs3
 BYTE   W36
// 017   ----------------------------------------
 BYTE   W36
 BYTE   As3
 BYTE   W36
 BYTE   W36
// 018   ----------------------------------------
 BYTE   Bn3
 BYTE   W36
 BYTE   W36
 BYTE   W36
// 019   ----------------------------------------
 BYTE   W36
 BYTE   W12
 BYTE   N12
 BYTE   W12
 BYTE   As3
 BYTE   W12
 BYTE   An3
 BYTE   W12
 BYTE   Gs3
 BYTE   W12
// 020   ----------------------------------------
 BYTE   Gn3
 BYTE   W12
 BYTE   Fs3
 BYTE   W12
 BYTE   Fn3
 BYTE   W12
 BYTE   En3
 BYTE   W12
 BYTE   Ds3
 BYTE   W12
 BYTE   Dn3
 BYTE   W12
 BYTE   Cs3
 BYTE   W12
Label_2_015A21DE:
 BYTE   N12  As2  v064
 BYTE   W12
// 021   ----------------------------------------
 BYTE   Cs3
 BYTE   W12
 BYTE   N12
 BYTE   W12
 BYTE   PEND 
Label_2_015A21E7:
 BYTE   N12  Gs2  v064
 BYTE   W12
 BYTE   Bn2
 BYTE   W12
 BYTE   N12
 BYTE   W12
 BYTE   PEND 
 BYTE   PATT
  POIN2 Label_2_015A21DE
 BYTE   PATT
  POIN2 Label_2_015A21E7
 BYTE   PATT
  POIN2 Label_2_015A21DE
 BYTE   PATT
  POIN2 Label_2_015A21E7
 BYTE   PATT
  POIN2 Label_2_015A21DE
 BYTE   PATT
  POIN2 Label_2_015A21E7
 BYTE   PATT
  POIN2 Label_2_015A21DE
 BYTE   PATT
  POIN2 Label_2_015A21E7
 BYTE   PATT
  POIN2 Label_2_015A21DE
 BYTE   PATT
  POIN2 Label_2_015A21E7
 BYTE   PATT
  POIN2 Label_2_015A21DE
 BYTE   PATT
  POIN2 Label_2_015A21E7
 BYTE   PATT
  POIN2 Label_2_015A21DE
 BYTE   PATT
  POIN2 Label_2_015A21E7
 BYTE   PATT
  POIN2 Label_2_015A21DE
 BYTE   PATT
  POIN2 Label_2_015A21E7
 BYTE   PATT
  POIN2 Label_2_015A21DE
 BYTE   PATT
  POIN2 Label_2_015A21E7
 BYTE   PATT
  POIN2 Label_2_015A21DE
 BYTE   PATT
  POIN2 Label_2_015A21E7
 BYTE   PATT
  POIN2 Label_2_015A21DE
 BYTE   PATT
  POIN2 Label_2_015A21E7
 BYTE   PATT
  POIN2 Label_2_015A21DE
 BYTE   PATT
  POIN2 Label_2_015A21E7
// 022   ----------------------------------------
 BYTE   N60  As2  v064
 BYTE   W36
 BYTE   W24
 BYTE   N12  Fn2
 BYTE   W12
 BYTE   N36  As2
 BYTE   W36
// 023   ----------------------------------------
 BYTE   VOL   65*SuperPaperMarioItsShowtimeMrGreen3339_mvl/mxv
 BYTE   W36
 BYTE   W36
 BYTE   W36
// 024   ----------------------------------------
 BYTE   W36
 BYTE   W36
 BYTE   W36
// 025   ----------------------------------------
 BYTE   W36
 BYTE   W36
 BYTE   W36
// 026   ----------------------------------------
 BYTE   W36
 BYTE   W36
 BYTE   W36
// 027   ----------------------------------------
 BYTE   W36
 BYTE   W36
 BYTE   PATT
  POIN2 Label_2_015A20CC
 BYTE   PATT
  POIN2 Label_2_015A20DB
 BYTE   PATT
  POIN2 Label_2_015A20EA
 BYTE   PATT
  POIN2 Label_2_015A20F9
 BYTE   PATT
  POIN2 Label_2_015A2108
 BYTE   PATT
  POIN2 Label_2_015A2117
// 028   ----------------------------------------
 BYTE   N36  Gs3  v064
 BYTE   W36
 BYTE   PATT
  POIN2 Label_2_015A2129
// 029   ----------------------------------------
 BYTE   N72  As3  v064
 BYTE   W36
 BYTE   W36
 BYTE   GoTo
  POIN2 Label_2_015A213C
 BYTE   FINE

//**************** Track 4 (Midi-Chn.3) ****************//

SuperPaperMarioItsShowtimeMrGreen3339_004:
// 000   ----------------------------------------
 BYTE   KEYSH   SuperPaperMarioItsShowtimeMrGreen3339_key+0
 BYTE   VOICE   104
 BYTE   VOL   65*SuperPaperMarioItsShowtimeMrGreen3339_mvl/mxv
 BYTE   W36
 BYTE   W36
 BYTE   W36
// 001   ----------------------------------------
 BYTE   W36
 BYTE   W36
 BYTE   W36
// 002   ----------------------------------------
 BYTE   W36
 BYTE   W36
 BYTE   W36
// 003   ----------------------------------------
 BYTE   W36
 BYTE   W36
 BYTE   W36
// 004   ----------------------------------------
 BYTE   W36
 BYTE   W36
 BYTE   W36
// 005   ----------------------------------------
 BYTE   W36
 BYTE   W36
 BYTE   W36
// 006   ----------------------------------------
 BYTE   W36
 BYTE   W36
Label_3_015A22D2:
 BYTE   W12
 BYTE   N03  En3  v064
 BYTE   W06
 BYTE   Fn3
 BYTE   W06
// 007   ----------------------------------------
 BYTE   Fs3
 BYTE   W06
 BYTE   Gn3
 BYTE   W06
 BYTE   PEND 
Label_3_015A22DE:
 BYTE   N03  Gs3  v064
 BYTE   W06
 BYTE   An3
 BYTE   W06
 BYTE   As3
 BYTE   W06
 BYTE   Bn3
 BYTE   W06
 BYTE   As3
 BYTE   W06
 BYTE   An3
 BYTE   W06
 BYTE   PEND 
 BYTE   N12  As3
 BYTE   W36
 BYTE   W36
// 008   ----------------------------------------
Label_3_015A22F1:
 BYTE   N12  Gn3  v064
 BYTE   W36
 BYTE   W36
 BYTE   En3
 BYTE   W36
// 009   ----------------------------------------
 BYTE   W36
 BYTE   N03  Fn2
 BYTE   W18
 BYTE   N03
 BYTE   W12
 BYTE   N03
 BYTE   W06
 BYTE   W06
 BYTE   N03
 BYTE   W06
 BYTE   Fs2
 BYTE   W24
// 010   ----------------------------------------
 BYTE   W36
 BYTE   W36
 BYTE   W36
// 011   ----------------------------------------
 BYTE   W36
 BYTE   W36
 BYTE   W36
// 012   ----------------------------------------
 BYTE   W12
 BYTE   Gs3
 BYTE   W06
 BYTE   Fs3
 BYTE   W06
 BYTE   En3
 BYTE   W06
 BYTE   Dn3
 BYTE   W06
 BYTE   Cn3
 BYTE   W06
 BYTE   As2
 BYTE   W06
 BYTE   Gs2
 BYTE   W06
 BYTE   As2
 BYTE   W06
 BYTE   Cn3
 BYTE   W06
 BYTE   Dn3
 BYTE   W06
 BYTE   En3
 BYTE   W06
 BYTE   Fs3
 BYTE   W06
 BYTE   Gs3
 BYTE   W06
 BYTE   As3
 BYTE   W06
// 013   ----------------------------------------
 BYTE   Cn4
 BYTE   W06
 BYTE   Dn4
 BYTE   W06
 BYTE   En4
 BYTE   W06
 BYTE   Dn4
 BYTE   W06
 BYTE   Cn4
 BYTE   W06
 BYTE   As3
 BYTE   W06
 BYTE   Gs3
 BYTE   W06
 BYTE   Fs3
 BYTE   W06
 BYTE   En3
 BYTE   W06
 BYTE   As2
 BYTE   W06
 BYTE   Cn3
 BYTE   W06
 BYTE   Dn3
 BYTE   W06
 BYTE   En3
 BYTE   W06
 BYTE   Fs3
 BYTE   W06
 BYTE   Gs3
 BYTE   W06
 BYTE   As3
 BYTE   W06
// 014   ----------------------------------------
 BYTE   Gs3
 BYTE   W06
 BYTE   Dn3
 BYTE   W06
 BYTE   En3
 BYTE   W06
 BYTE   Fs3
 BYTE   W06
 BYTE   Gs3
 BYTE   W12
 BYTE   As3
 BYTE   W12
 BYTE   Gs3
 BYTE   W12
 BYTE   As3
 BYTE   W12
 BYTE   Gn3
 BYTE   W12
 BYTE   Cn4
 BYTE   W12
// 015   ----------------------------------------
 BYTE   As3
 BYTE   W12
 BYTE   Fs3
 BYTE   W12
 BYTE   Gs3
 BYTE   W12
Label_3_015A2362:
 BYTE   N03  En3  v064
 BYTE   W12
 BYTE   Fs3
 BYTE   W12
 BYTE   Gs3
 BYTE   W12
 BYTE   PEND 
 BYTE   PATT
  POIN2 Label_3_015A2362
// 016   ----------------------------------------
 BYTE   N03  As3  v064
 BYTE   W12
 BYTE   Cn4
 BYTE   W12
 BYTE   Dn4
 BYTE   W12
 BYTE   En4
 BYTE   W12
 BYTE   Cn3
 BYTE   W12
 BYTE   Dn3
 BYTE   W12
 BYTE   PATT
  POIN2 Label_3_015A2362
// 017   ----------------------------------------
 BYTE   N03  As3  v064
 BYTE   W36
 BYTE   W36
 BYTE   Bn3
 BYTE   W36
// 018   ----------------------------------------
 BYTE   W36
 BYTE   W36
 BYTE   W36
// 019   ----------------------------------------
 BYTE   W12
 BYTE   N03
 BYTE   W12
 BYTE   As3
 BYTE   W12
 BYTE   An3
 BYTE   W12
 BYTE   Gs3
 BYTE   W12
 BYTE   Gn3
 BYTE   W12
 BYTE   Fs3
 BYTE   W12
 BYTE   Fn3
 BYTE   W12
// 020   ----------------------------------------
 BYTE   En3
 BYTE   W12
 BYTE   Ds3
 BYTE   W12
 BYTE   Dn3
 BYTE   W12
 BYTE   Cs3
 BYTE   W12
 BYTE   W36
 BYTE   W36
// 021   ----------------------------------------
 BYTE   W36
 BYTE   W36
 BYTE   W36
// 022   ----------------------------------------
 BYTE   W36
 BYTE   W36
 BYTE   W36
// 023   ----------------------------------------
 BYTE   W36
 BYTE   W36
 BYTE   W36
// 024   ----------------------------------------
 BYTE   W36
 BYTE   W36
 BYTE   W36
// 025   ----------------------------------------
 BYTE   W36
 BYTE   W36
 BYTE   W36
// 026   ----------------------------------------
 BYTE   W36
 BYTE   W36
 BYTE   W36
// 027   ----------------------------------------
 BYTE   W36
 BYTE   W36
 BYTE   W36
// 028   ----------------------------------------
 BYTE   W36
 BYTE   W36
 BYTE   W36
// 029   ----------------------------------------
 BYTE   W36
 BYTE   W24
 BYTE   Fn2
 BYTE   W12
 BYTE   As2
 BYTE   W03
 BYTE   VOL   65*SuperPaperMarioItsShowtimeMrGreen3339_mvl/mxv
 BYTE   W32
// 030   ----------------------------------------
 BYTE   W01
 BYTE   W36
 BYTE   W36
 BYTE   W36
// 031   ----------------------------------------
 BYTE   W36
 BYTE   W36
 BYTE   W36
// 032   ----------------------------------------
 BYTE   W36
 BYTE   W36
 BYTE   W36
// 033   ----------------------------------------
 BYTE   W36
 BYTE   W36
 BYTE   W36
// 034   ----------------------------------------
 BYTE   W36
 BYTE   W36
 BYTE   W36
// 035   ----------------------------------------
 BYTE   W36
 BYTE   W36
 BYTE   W36
// 036   ----------------------------------------
 BYTE   W36
 BYTE   W36
 BYTE   PATT
  POIN2 Label_3_015A22D2
 BYTE   PATT
  POIN2 Label_3_015A22DE
// 037   ----------------------------------------
 BYTE   N12  As3  v064
 BYTE   W36
 BYTE   W36
 BYTE   GoTo
  POIN2 Label_3_015A22F1
 BYTE   FINE

//**************** Track 5 (Midi-Chn.4) ****************//

SuperPaperMarioItsShowtimeMrGreen3339_005:
// 000   ----------------------------------------
 BYTE   KEYSH   SuperPaperMarioItsShowtimeMrGreen3339_key+0
 BYTE   VOICE   42
 BYTE   VOL   65*SuperPaperMarioItsShowtimeMrGreen3339_mvl/mxv
 BYTE   W36
 BYTE   W36
 BYTE   W36
// 001   ----------------------------------------
 BYTE   W36
 BYTE   W36
 BYTE   W36
// 002   ----------------------------------------
 BYTE   W36
 BYTE   W36
 BYTE   W36
// 003   ----------------------------------------
 BYTE   W36
 BYTE   W36
 BYTE   W36
// 004   ----------------------------------------
 BYTE   W36
 BYTE   W36
Label_4_015A2408:
 BYTE   N06  En2  v064
 BYTE   W06
 BYTE   As2
 BYTE   W06
 BYTE   Gs2
 BYTE   W06
 BYTE   As2
 BYTE   W06
// 005   ----------------------------------------
 BYTE   Bn2
 BYTE   W06
 BYTE   Gs2
 BYTE   W06
 BYTE   PEND 
Label_4_015A2417:
 BYTE   N06  As2  v064
 BYTE   W06
 BYTE   Fs2
 BYTE   W06
 BYTE   Gs2
 BYTE   W06
 BYTE   Fn2
 BYTE   W06
 BYTE   Fs2
 BYTE   W06
 BYTE   Ds2
 BYTE   W06
 BYTE   PEND 
Label_4_015A2426:
 BYTE   N06  En2  v064
 BYTE   W06
 BYTE   Fn2
 BYTE   W06
 BYTE   Fs2
 BYTE   W06
 BYTE   Gs2
 BYTE   W06
 BYTE   Gn2
 BYTE   W06
 BYTE   Ds3
 BYTE   W06
 BYTE   PEND 
Label_4_015A2435:
 BYTE   N06  Cs3  v064
 BYTE   W06
 BYTE   As2
 BYTE   W06
// 006   ----------------------------------------
 BYTE   Cn3
 BYTE   W06
 BYTE   Gs2
 BYTE   W06
 BYTE   As2
 BYTE   W06
 BYTE   Gn2
 BYTE   W06
 BYTE   PEND 
Label_4_015A2444:
 BYTE   N06  Gs2  v064
 BYTE   W06
 BYTE   Gn2
 BYTE   W06
 BYTE   Fs3
 BYTE   W06
 BYTE   Ds3
 BYTE   W06
 BYTE   Dn3
 BYTE   W06
 BYTE   Bn2
 BYTE   W06
 BYTE   PEND 
Label_4_015A2453:
 BYTE   N06  As2  v064
 BYTE   W06
 BYTE   Gs2
 BYTE   W06
 BYTE   As2
 BYTE   W06
 BYTE   Ds2
 BYTE   W06
 BYTE   Fn2
 BYTE   W06
 BYTE   Gn2
 BYTE   W06
 BYTE   PEND 
// 007   ----------------------------------------
 BYTE   N36  Gs2
 BYTE   W36
Label_4_015A2465:
 BYTE   N06  Fs2  v064
 BYTE   W06
 BYTE   Fn2
 BYTE   W06
 BYTE   En2
 BYTE   W06
 BYTE   Fn2
 BYTE   W06
 BYTE   Fs2
 BYTE   W06
 BYTE   Gs2
 BYTE   W06
 BYTE   PEND 
 BYTE   N72  As2
 BYTE   W36
// 008   ----------------------------------------
 BYTE   W36
Label_4_015A2478:
 BYTE   N72  Gn2  v064
 BYTE   W36
 BYTE   W36
// 009   ----------------------------------------
 BYTE   En2
 BYTE   W36
 BYTE   W36
 BYTE   W36
// 010   ----------------------------------------
 BYTE   W36
 BYTE   N06  Ds2
 BYTE   W06
 BYTE   As2
 BYTE   W06
 BYTE   Gs2
 BYTE   W06
 BYTE   As2
 BYTE   W06
 BYTE   Bn2
 BYTE   W06
 BYTE   Cs3
 BYTE   W06
 BYTE   Gs2
 BYTE   W06
 BYTE   Bn2
 BYTE   W06
 BYTE   Gs2
 BYTE   W06
 BYTE   As2
 BYTE   W06
// 011   ----------------------------------------
 BYTE   Fs2
 BYTE   W06
 BYTE   Gs2
 BYTE   W06
 BYTE   Fn2
 BYTE   W06
 BYTE   As2
 BYTE   W06
 BYTE   Gn3
 BYTE   W06
 BYTE   Fn3
 BYTE   W06
 BYTE   En3
 BYTE   W06
 BYTE   As2
 BYTE   W06
 BYTE   Ds3
 BYTE   W06
 BYTE   Cs3
 BYTE   W06
 BYTE   Fn3
 BYTE   W06
 BYTE   As2
 BYTE   W06
 BYTE   Cs3
 BYTE   W06
 BYTE   Bn2
 BYTE   W06
 BYTE   Ds3
 BYTE   W06
 BYTE   Bn2
 BYTE   W06
// 012   ----------------------------------------
 BYTE   Cs3
 BYTE   W06
 BYTE   Bn2
 BYTE   W06
 BYTE   An2
 BYTE   W06
 BYTE   Gn2
 BYTE   W06
 BYTE   Cs3
 BYTE   W06
 BYTE   Fs2
 BYTE   W06
 BYTE   Bn2
 BYTE   W06
 BYTE   Gn2
 BYTE   W06
 BYTE   As2
 BYTE   W06
 BYTE   Gn2
 BYTE   W06
 BYTE   N36  Gs2
 BYTE   W36
// 013   ----------------------------------------
 BYTE   N06
 BYTE   W06
 BYTE   Gn2
 BYTE   W06
 BYTE   Gs2
 BYTE   W06
 BYTE   Cs3
 BYTE   W06
 BYTE   Bn2
 BYTE   W06
 BYTE   As2
 BYTE   W06
 BYTE   N72  Bn2
 BYTE   W36
 BYTE   W36
// 014   ----------------------------------------
 BYTE   Gs2
 BYTE   W36
 BYTE   W36
 BYTE   N36
 BYTE   W36
// 015   ----------------------------------------
 BYTE   TIE  As2
 BYTE   W36
 BYTE   W36
 BYTE   W36
// 016   ----------------------------------------
 BYTE   EOT
 BYTE   N72  Gn2
 BYTE   W36
 BYTE   W36
 BYTE   Gs2
 BYTE   W36
// 017   ----------------------------------------
 BYTE   W36
 BYTE   As2
 BYTE   W36
 BYTE   W36
// 018   ----------------------------------------
 BYTE   Bn2
 BYTE   W36
 BYTE   W36
 BYTE   N06  Fn1
 BYTE   N06  Fn2
 BYTE   W06
 BYTE   Gn1
 BYTE   N06  Gn2
 BYTE   W06
 BYTE   An1
 BYTE   N06  An2
 BYTE   W06
 BYTE   Bn1
 BYTE   N06  Bn2
 BYTE   W06
// 019   ----------------------------------------
 BYTE   Fn2
 BYTE   N06  Fn3
 BYTE   W06
 BYTE   Gn2
 BYTE   N06  Gn3
 BYTE   W06
 BYTE   An2
 BYTE   N06  An3
 BYTE   W06
 BYTE   Bn2
 BYTE   N06  Bn3
 BYTE   W06
 BYTE   As2
 BYTE   N06  As3
 BYTE   W06
 BYTE   An2
 BYTE   N06  An3
 BYTE   W06
 BYTE   N24  As2
 BYTE   N24  As3
 BYTE   W12
 BYTE   W36
 BYTE   W36
// 020   ----------------------------------------
 BYTE   W36
 BYTE   W36
 BYTE   W36
// 021   ----------------------------------------
 BYTE   W36
 BYTE   W36
 BYTE   W36
// 022   ----------------------------------------
 BYTE   As1
 BYTE   N24  As2
 BYTE   W24
 BYTE   N12  An1
 BYTE   N12  An2
 BYTE   W12
 BYTE   N24  As1
 BYTE   N24  As2
 BYTE   W24
 BYTE   N12  Cn2
 BYTE   N12  Cn3
 BYTE   W12
 BYTE   Dn2
 BYTE   N12  Dn3
 BYTE   W12
 BYTE   Cn2
 BYTE   N12  Cn3
 BYTE   W12
// 023   ----------------------------------------
 BYTE   As1
 BYTE   N12  As2
 BYTE   W12
 BYTE   N24  An1
 BYTE   N24  An2
 BYTE   W24
 BYTE   N12  Cn2
 BYTE   N12  Cn3
 BYTE   W12
 BYTE   N24  As1
 BYTE   N24  As2
 BYTE   W24
 BYTE   N12  Gn1
 BYTE   N12  Gn2
 BYTE   W12
 BYTE   N24  Gs1
 BYTE   N24  Gs2
 BYTE   W24
// 024   ----------------------------------------
 BYTE   N12  Gn1
 BYTE   N12  Gn2
 BYTE   W12
 BYTE   N36  Fs1
 BYTE   N36  Fs2
 BYTE   W36
 BYTE   Fn1
 BYTE   N36  Fn2
 BYTE   W36
 BYTE   N24  Ds2
 BYTE   N24  Ds3
 BYTE   W24
// 025   ----------------------------------------
 BYTE   N12  Dn2
 BYTE   N12  Dn3
 BYTE   W12
 BYTE   N24  Ds2
 BYTE   N24  Ds3
 BYTE   W24
 BYTE   N12  Fn2
 BYTE   N12  Fn3
 BYTE   W12
 BYTE   Gn2
 BYTE   N12  Gn3
 BYTE   W12
 BYTE   Fn2
 BYTE   N12  Fn3
 BYTE   W12
 BYTE   Ds2
 BYTE   N12  Ds3
 BYTE   W12
 BYTE   N24  Dn2
 BYTE   N24  Dn3
 BYTE   W24
// 026   ----------------------------------------
 BYTE   N12  En2
 BYTE   N12  En3
 BYTE   W12
 BYTE   N24  Ds2
 BYTE   N24  Ds3
 BYTE   W24
 BYTE   N12  Bn1
 BYTE   N12  Bn2
 BYTE   W12
 BYTE   N24
 BYTE   N24  Bn3
 BYTE   W24
 BYTE   N12  As2
 BYTE   N12  As3
 BYTE   W12
 BYTE   N36  Gs2
 BYTE   N36  Gs3
 BYTE   W36
// 027   ----------------------------------------
 BYTE   Fs2
 BYTE   N36  Fs3
 BYTE   W36
 BYTE   N12  As1
 BYTE   N12  As2
 BYTE   W12
 BYTE   Cs2
 BYTE   N12  Cs3
 BYTE   W12
 BYTE   En2
 BYTE   N12  En3
 BYTE   W12
 BYTE   N36  Ds2
 BYTE   N36  Ds3
 BYTE   W36
// 028   ----------------------------------------
 BYTE   N12  Cn2
 BYTE   N12  Cn3
 BYTE   W12
 BYTE   Ds2
 BYTE   N12  Ds3
 BYTE   W12
 BYTE   Fs2
 BYTE   N12  Fs3
 BYTE   W12
 BYTE   Fn2
 BYTE   N12  Fn3
 BYTE   W12
 BYTE   Gs2
 BYTE   N12  Gs3
 BYTE   W12
 BYTE   Bn2
 BYTE   N12  Bn3
 BYTE   W12
 BYTE   TIE  As2
 BYTE   TIE  As3
 BYTE   W36
// 029   ----------------------------------------
 BYTE   W36
 BYTE   W36
 BYTE   W24
// 030   ----------------------------------------
 BYTE   EOT
 BYTE   As2  v070
 BYTE   N12  Fn1
 BYTE   W12
 BYTE   N36  As1
 BYTE   W36
 BYTE   W36
 BYTE   W36
// 031   ----------------------------------------
 BYTE   W36
 BYTE   W36
 BYTE   W36
// 032   ----------------------------------------
 BYTE   W36
 BYTE   W36
 BYTE   W36
// 033   ----------------------------------------
 BYTE   W36
 BYTE   W36
 BYTE   W36
// 034   ----------------------------------------
 BYTE   W36
 BYTE   W36
 BYTE   W36
 BYTE   PATT
  POIN2 Label_4_015A2408
 BYTE   PATT
  POIN2 Label_4_015A2417
 BYTE   PATT
  POIN2 Label_4_015A2426
 BYTE   PATT
  POIN2 Label_4_015A2435
 BYTE   PATT
  POIN2 Label_4_015A2444
 BYTE   PATT
  POIN2 Label_4_015A2453
// 035   ----------------------------------------
 BYTE   N36  Gs2  v064
 BYTE   W36
 BYTE   PATT
  POIN2 Label_4_015A2465
// 036   ----------------------------------------
 BYTE   N72  As2  v064
 BYTE   W36
 BYTE   W36
 BYTE   GoTo
  POIN2 Label_4_015A2478
 BYTE   FINE

//**************** Track 6 (Midi-Chn.5) ****************//

SuperPaperMarioItsShowtimeMrGreen3339_006:
// 000   ----------------------------------------
 BYTE   KEYSH   SuperPaperMarioItsShowtimeMrGreen3339_key+0
 BYTE   VOICE   86
 BYTE   VOL   61*SuperPaperMarioItsShowtimeMrGreen3339_mvl/mxv
 BYTE   N36  Gs2  v064
 BYTE   W36
 BYTE   Gn2
 BYTE   W36
 BYTE   As2
 BYTE   W36
// 001   ----------------------------------------
 BYTE   Cs3
 BYTE   W36
 BYTE   Gn2
 BYTE   W36
 BYTE   As2
 BYTE   W36
// 002   ----------------------------------------
 BYTE   Gn2
 BYTE   W36
 BYTE   As2
 BYTE   W36
 BYTE   Fs2
 BYTE   W36
// 003   ----------------------------------------
 BYTE   Gs2
 BYTE   W36
 BYTE   TIE  As2
 BYTE   W36
 BYTE   W36
// 004   ----------------------------------------
 BYTE   W36
 BYTE   W36
 BYTE   EOT
 BYTE   N36  Gs2
 BYTE   W36
// 005   ----------------------------------------
 BYTE   Fs2
 BYTE   W36
 BYTE   As2
 BYTE   W36
 BYTE   N36
 BYTE   W36
// 006   ----------------------------------------
 BYTE   Cs3
 BYTE   W36
 BYTE   Gs2
 BYTE   W36
 BYTE   N36
 BYTE   W36
// 007   ----------------------------------------
 BYTE   Fs2
 BYTE   W36
 BYTE   N72  As2
 BYTE   W36
 BYTE   W36
// 008   ----------------------------------------
Label_5_015A266C:
 BYTE   N72  Gn2  v064
 BYTE   W36
 BYTE   W36
 BYTE   En2
 BYTE   W36
// 009   ----------------------------------------
 BYTE   W36
 BYTE   W36
 BYTE   W36
// 010   ----------------------------------------
 BYTE   N36  Gs2
 BYTE   W36
 BYTE   N36
 BYTE   W36
 BYTE   Cs3
 BYTE   W36
// 011   ----------------------------------------
 BYTE   N36
 BYTE   W36
 BYTE   As2
 BYTE   W36
 BYTE   An2
 BYTE   W36
// 012   ----------------------------------------
 BYTE   Gs2
 BYTE   W36
 BYTE   As2
 BYTE   W36
 BYTE   N72  Bn2
 BYTE   W36
// 013   ----------------------------------------
 BYTE   W36
 BYTE   Gs2
 BYTE   W36
 BYTE   W36
// 014   ----------------------------------------
 BYTE   N36
 BYTE   W36
 BYTE   TIE  As2
 BYTE   W36
 BYTE   W36
// 015   ----------------------------------------
 BYTE   W36
 BYTE   EOT
 BYTE   N72  Gn2
 BYTE   W36
 BYTE   W36
// 016   ----------------------------------------
 BYTE   Gs2
 BYTE   W36
 BYTE   W36
 BYTE   As2
 BYTE   W36
// 017   ----------------------------------------
 BYTE   W36
 BYTE   Bn2
 BYTE   W36
 BYTE   W36
// 018   ----------------------------------------
 BYTE   N06  Fn2
 BYTE   W06
 BYTE   Gn2
 BYTE   W06
 BYTE   An2
 BYTE   W06
 BYTE   Bn2
 BYTE   W06
 BYTE   Fn3
 BYTE   W06
 BYTE   Gn3
 BYTE   W06
 BYTE   An3
 BYTE   W06
 BYTE   Bn3
 BYTE   W06
 BYTE   As3
 BYTE   W06
 BYTE   An3
 BYTE   W06
 BYTE   N18  As3
 BYTE   W12
 BYTE   W36
// 019   ----------------------------------------
 BYTE   W36
 BYTE   W36
 BYTE   W36
// 020   ----------------------------------------
 BYTE   N36  As1
 BYTE   W36
 BYTE   Gs1
 BYTE   W36
 BYTE   As1
 BYTE   W36
// 021   ----------------------------------------
 BYTE   Gs1
 BYTE   W36
 BYTE   As1
 BYTE   N36  As2
 BYTE   W36
 BYTE   As1
 BYTE   N36  As2
 BYTE   W36
// 022   ----------------------------------------
 BYTE   Cs2
 BYTE   N36  Cs3
 BYTE   W36
 BYTE   An1
 BYTE   N36  An2
 BYTE   W36
 BYTE   As1
 BYTE   N36  As2
 BYTE   W36
// 023   ----------------------------------------
 BYTE   Gs1
 BYTE   N36  Gs2
 BYTE   W36
 BYTE   Fs1
 BYTE   N36  Fs2
 BYTE   W36
 BYTE   Fn1
 BYTE   N36  Fn2
 BYTE   W36
// 024   ----------------------------------------
 BYTE   Ds2
 BYTE   N36  Ds3
 BYTE   W36
 BYTE   Ds2
 BYTE   N36  Ds3
 BYTE   W36
 BYTE   Fn2
 BYTE   N36  Fn3
 BYTE   W36
// 025   ----------------------------------------
 BYTE   Dn2
 BYTE   N36  Dn3
 BYTE   W36
 BYTE   Ds2
 BYTE   N36  Ds3
 BYTE   W36
 BYTE   Bn2
 BYTE   N36  Bn3
 BYTE   W36
// 026   ----------------------------------------
 BYTE   Gs2
 BYTE   N36  Gs3
 BYTE   W36
 BYTE   Fs2
 BYTE   N36  Fs3
 BYTE   W36
 BYTE   Bn1
 BYTE   N36  Bn2
 BYTE   W36
// 027   ----------------------------------------
 BYTE   Ds2
 BYTE   N36  Ds3
 BYTE   W36
 BYTE   Ds2
 BYTE   N36  Ds3
 BYTE   W36
 BYTE   Gs2
 BYTE   N36  Gs3
 BYTE   W36
// 028   ----------------------------------------
 BYTE   TIE  As1
 BYTE   TIE  As2
 BYTE   TIE  As3
 BYTE   W36
 BYTE   W36
 BYTE   W36
// 029   ----------------------------------------
 BYTE   W24
 BYTE   EOT
 BYTE   As1  v058
 BYTE   As3
 BYTE   N12  Fn1
 BYTE   N12  Fn2
 BYTE   N12  Fn3
 BYTE   W12
 BYTE   N36  As1
 BYTE   N36  As2
 BYTE   N36  As3
 BYTE   W36
 BYTE   Gs2
 BYTE   W36
// 030   ----------------------------------------
 BYTE   Gn2
 BYTE   W36
 BYTE   As2
 BYTE   W36
 BYTE   Cs3
 BYTE   W36
// 031   ----------------------------------------
 BYTE   Gn2
 BYTE   W36
 BYTE   As2
 BYTE   W36
 BYTE   Gn2
 BYTE   W36
// 032   ----------------------------------------
 BYTE   As2
 BYTE   W36
 BYTE   Fs2
 BYTE   W36
 BYTE   Gs2
 BYTE   W36
// 033   ----------------------------------------
 BYTE   TIE  As2
 BYTE   W36
 BYTE   W36
 BYTE   W36
// 034   ----------------------------------------
 BYTE   W36
 BYTE   EOT
 BYTE   N36  Gs2
 BYTE   W36
 BYTE   Fs2
 BYTE   W36
// 035   ----------------------------------------
 BYTE   As2
 BYTE   W36
 BYTE   N36
 BYTE   W36
 BYTE   Cs3
 BYTE   W36
// 036   ----------------------------------------
 BYTE   Gs2
 BYTE   W36
 BYTE   N36
 BYTE   W36
 BYTE   Fs2
 BYTE   W36
// 037   ----------------------------------------
 BYTE   N72  As2
 BYTE   W36
 BYTE   W36
 BYTE   GoTo
  POIN2 Label_5_015A266C
 BYTE   FINE

//**************** Track 7 (Midi-Chn.6) ****************//

SuperPaperMarioItsShowtimeMrGreen3339_007:
// 000   ----------------------------------------
 BYTE   KEYSH   SuperPaperMarioItsShowtimeMrGreen3339_key+0
 BYTE   VOICE   40
 BYTE   VOL   65*SuperPaperMarioItsShowtimeMrGreen3339_mvl/mxv
 BYTE   W36
 BYTE   W36
 BYTE   W36
// 001   ----------------------------------------
 BYTE   W36
 BYTE   W36
 BYTE   W36
// 002   ----------------------------------------
 BYTE   W36
 BYTE   W36
 BYTE   W36
// 003   ----------------------------------------
 BYTE   W36
 BYTE   W36
 BYTE   W36
// 004   ----------------------------------------
 BYTE   W36
 BYTE   W36
Label_6_015A2780:
 BYTE   N06  En4  v064
 BYTE   W06
 BYTE   As4
 BYTE   W06
 BYTE   Gs4
 BYTE   W06
 BYTE   As4
 BYTE   W06
// 005   ----------------------------------------
 BYTE   Bn4
 BYTE   W06
 BYTE   Gs4
 BYTE   W06
 BYTE   PEND 
Label_6_015A278F:
 BYTE   N06  As4  v064
 BYTE   W06
 BYTE   Fs4
 BYTE   W06
 BYTE   Gs4
 BYTE   W06
 BYTE   Fn4
 BYTE   W06
 BYTE   Fs4
 BYTE   W06
 BYTE   Ds4
 BYTE   W06
 BYTE   PEND 
Label_6_015A279E:
 BYTE   N06  En4  v064
 BYTE   W06
 BYTE   Fn4
 BYTE   W06
 BYTE   Fs4
 BYTE   W06
 BYTE   Gs4
 BYTE   W06
 BYTE   Gn4
 BYTE   W06
 BYTE   Ds5
 BYTE   W06
 BYTE   PEND 
Label_6_015A27AD:
 BYTE   N06  Cs5  v064
 BYTE   W06
 BYTE   As4
 BYTE   W06
// 006   ----------------------------------------
 BYTE   Cn5
 BYTE   W06
 BYTE   Gs4
 BYTE   W06
 BYTE   As4
 BYTE   W06
 BYTE   Gn4
 BYTE   W06
 BYTE   PEND 
Label_6_015A27BC:
 BYTE   N06  Gs4  v064
 BYTE   W06
 BYTE   Gn4
 BYTE   W06
 BYTE   Fs5
 BYTE   W06
 BYTE   Ds5
 BYTE   W06
 BYTE   Dn5
 BYTE   W06
 BYTE   Bn4
 BYTE   W06
 BYTE   PEND 
Label_6_015A27CB:
 BYTE   N06  As4  v064
 BYTE   W06
 BYTE   Gs4
 BYTE   W06
 BYTE   As4
 BYTE   W06
 BYTE   Ds4
 BYTE   W06
 BYTE   Fn4
 BYTE   W06
 BYTE   Gn4
 BYTE   W06
 BYTE   PEND 
// 007   ----------------------------------------
 BYTE   N36  Gs4
 BYTE   W36
Label_6_015A27DD:
 BYTE   N06  Fs4  v064
 BYTE   W06
 BYTE   Fn4
 BYTE   W06
 BYTE   En4
 BYTE   W06
 BYTE   Fn4
 BYTE   W06
 BYTE   Fs4
 BYTE   W06
 BYTE   Gs4
 BYTE   W06
 BYTE   PEND 
 BYTE   N72  As4
 BYTE   W36
// 008   ----------------------------------------
 BYTE   W36
Label_6_015A27F0:
 BYTE   N72  Gn4  v064
 BYTE   W36
 BYTE   W36
// 009   ----------------------------------------
 BYTE   En4
 BYTE   W36
 BYTE   W36
 BYTE   W36
// 010   ----------------------------------------
 BYTE   W36
 BYTE   N06  Ds4
 BYTE   W06
 BYTE   As4
 BYTE   W06
 BYTE   Gs4
 BYTE   W06
 BYTE   As4
 BYTE   W06
 BYTE   Bn4
 BYTE   W06
 BYTE   Cs5
 BYTE   W06
 BYTE   Gs4
 BYTE   W06
 BYTE   Bn4
 BYTE   W06
 BYTE   Gs4
 BYTE   W06
 BYTE   As4
 BYTE   W06
// 011   ----------------------------------------
 BYTE   Fs4
 BYTE   W06
 BYTE   Gs4
 BYTE   W06
 BYTE   Fn4
 BYTE   W06
 BYTE   As4
 BYTE   W06
 BYTE   Gn5
 BYTE   W06
 BYTE   Fn5
 BYTE   W06
 BYTE   En5
 BYTE   W06
 BYTE   As4
 BYTE   W06
 BYTE   Ds5
 BYTE   W06
 BYTE   Cs5
 BYTE   W06
 BYTE   Fn5
 BYTE   W06
 BYTE   As4
 BYTE   W06
 BYTE   Cs5
 BYTE   W06
 BYTE   Bn4
 BYTE   W06
 BYTE   Ds5
 BYTE   W06
 BYTE   Bn4
 BYTE   W06
// 012   ----------------------------------------
 BYTE   Cs5
 BYTE   W06
 BYTE   Bn4
 BYTE   W06
 BYTE   An4
 BYTE   W06
 BYTE   Gn4
 BYTE   W06
 BYTE   Cs5
 BYTE   W06
 BYTE   Fs4
 BYTE   W06
 BYTE   Bn4
 BYTE   W06
 BYTE   Gn4
 BYTE   W06
 BYTE   As4
 BYTE   W06
 BYTE   Gn4
 BYTE   W06
 BYTE   N36  Gs4
 BYTE   W36
// 013   ----------------------------------------
 BYTE   N06
 BYTE   W06
 BYTE   Gn4
 BYTE   W06
 BYTE   Gs4
 BYTE   W06
 BYTE   Cs5
 BYTE   W06
 BYTE   Bn4
 BYTE   W06
 BYTE   As4
 BYTE   W06
 BYTE   N72  Bn4
 BYTE   W36
 BYTE   W36
// 014   ----------------------------------------
 BYTE   Gs4
 BYTE   W36
 BYTE   W36
 BYTE   N36
 BYTE   W36
// 015   ----------------------------------------
 BYTE   TIE  As4
 BYTE   W36
 BYTE   W36
 BYTE   W36
// 016   ----------------------------------------
 BYTE   EOT
 BYTE   N72  Gn4
 BYTE   W36
 BYTE   W36
 BYTE   Gs4
 BYTE   W36
// 017   ----------------------------------------
 BYTE   W36
 BYTE   As4
 BYTE   W36
 BYTE   W36
// 018   ----------------------------------------
 BYTE   Bn4
 BYTE   W36
 BYTE   W36
 BYTE   N06  Fn3
 BYTE   N06  Fn4
 BYTE   W06
 BYTE   Gn3
 BYTE   N06  Gn4
 BYTE   W06
 BYTE   An3
 BYTE   N06  An4
 BYTE   W06
 BYTE   Bn3
 BYTE   N06  Bn4
 BYTE   W06
// 019   ----------------------------------------
 BYTE   Fn4
 BYTE   N06  Fn5
 BYTE   W06
 BYTE   Gn4
 BYTE   N06  Gn5
 BYTE   W06
 BYTE   An4
 BYTE   N06  An5
 BYTE   W06
 BYTE   Bn4
 BYTE   N06  Bn5
 BYTE   W06
 BYTE   As4
 BYTE   N06  As5
 BYTE   W06
 BYTE   An4
 BYTE   N06  An5
 BYTE   W06
 BYTE   N24  As4
 BYTE   N24  As5
 BYTE   W12
 BYTE   W36
 BYTE   W36
// 020   ----------------------------------------
 BYTE   W36
 BYTE   W36
 BYTE   W36
// 021   ----------------------------------------
 BYTE   W36
 BYTE   W36
 BYTE   W36
// 022   ----------------------------------------
 BYTE   As3
 BYTE   N24  As4
 BYTE   W24
 BYTE   N12  An3
 BYTE   N12  An4
 BYTE   W12
 BYTE   N24  As3
 BYTE   N24  As4
 BYTE   W24
 BYTE   N12  Cn4
 BYTE   N12  Cn5
 BYTE   W12
 BYTE   Dn4
 BYTE   N12  Dn5
 BYTE   W12
 BYTE   Cn4
 BYTE   N12  Cn5
 BYTE   W12
// 023   ----------------------------------------
 BYTE   As3
 BYTE   N12  As4
 BYTE   W12
 BYTE   N24  An3
 BYTE   N24  An4
 BYTE   W24
 BYTE   N12  Cn4
 BYTE   N12  Cn5
 BYTE   W12
 BYTE   N24  As3
 BYTE   N24  As4
 BYTE   W24
 BYTE   N12  Gn3
 BYTE   N12  Gn4
 BYTE   W12
 BYTE   N24  Gs3
 BYTE   N24  Gs4
 BYTE   W24
// 024   ----------------------------------------
 BYTE   N12  Gn3
 BYTE   N12  Gn4
 BYTE   W12
 BYTE   N36  Fs3
 BYTE   N36  Fs4
 BYTE   W36
 BYTE   Fn3
 BYTE   N36  Fn4
 BYTE   W36
 BYTE   N24  Ds4
 BYTE   N24  Ds5
 BYTE   W24
// 025   ----------------------------------------
 BYTE   N12  Dn4
 BYTE   N12  Dn5
 BYTE   W12
 BYTE   N24  Ds4
 BYTE   N24  Ds5
 BYTE   W24
 BYTE   N12  Fn4
 BYTE   N12  Fn5
 BYTE   W12
 BYTE   Gn4
 BYTE   N12  Gn5
 BYTE   W12
 BYTE   Fn4
 BYTE   N12  Fn5
 BYTE   W12
 BYTE   Ds4
 BYTE   N12  Ds5
 BYTE   W12
 BYTE   N24  Dn4
 BYTE   N24  Dn5
 BYTE   W24
// 026   ----------------------------------------
 BYTE   N12  En4
 BYTE   N12  En5
 BYTE   W12
 BYTE   N24  Ds4
 BYTE   N24  Ds5
 BYTE   W24
 BYTE   N12  Bn3
 BYTE   N12  Bn4
 BYTE   W12
 BYTE   N24
 BYTE   N24  Bn5
 BYTE   W24
 BYTE   N12  As4
 BYTE   N12  As5
 BYTE   W12
 BYTE   N36  Gs4
 BYTE   N36  Gs5
 BYTE   W36
// 027   ----------------------------------------
 BYTE   Fs4
 BYTE   N36  Fs5
 BYTE   W36
 BYTE   N12  As3
 BYTE   N12  As4
 BYTE   W12
 BYTE   Cs4
 BYTE   N12  Cs5
 BYTE   W12
 BYTE   En4
 BYTE   N12  En5
 BYTE   W12
 BYTE   N36  Ds4
 BYTE   N36  Ds5
 BYTE   W36
// 028   ----------------------------------------
 BYTE   N12  Cn4
 BYTE   N12  Cn5
 BYTE   W12
 BYTE   Ds4
 BYTE   N12  Ds5
 BYTE   W12
 BYTE   Fs4
 BYTE   N12  Fs5
 BYTE   W12
 BYTE   Fn4
 BYTE   N12  Fn5
 BYTE   W12
 BYTE   Gs4
 BYTE   N12  Gs5
 BYTE   W12
 BYTE   Bn4
 BYTE   N12  Bn5
 BYTE   W12
 BYTE   TIE  As4
 BYTE   TIE  As5
 BYTE   W36
// 029   ----------------------------------------
 BYTE   W36
 BYTE   W36
 BYTE   W24
// 030   ----------------------------------------
 BYTE   EOT
 BYTE   As4  v094
 BYTE   N12  Fn3
 BYTE   W12
 BYTE   N36  As3
 BYTE   W36
 BYTE   W36
 BYTE   W36
// 031   ----------------------------------------
 BYTE   W36
 BYTE   W36
 BYTE   W36
// 032   ----------------------------------------
 BYTE   W36
 BYTE   W36
 BYTE   W36
// 033   ----------------------------------------
 BYTE   W36
 BYTE   W36
 BYTE   W36
// 034   ----------------------------------------
 BYTE   W36
 BYTE   W36
 BYTE   W36
 BYTE   PATT
  POIN2 Label_6_015A2780
 BYTE   PATT
  POIN2 Label_6_015A278F
 BYTE   PATT
  POIN2 Label_6_015A279E
 BYTE   PATT
  POIN2 Label_6_015A27AD
 BYTE   PATT
  POIN2 Label_6_015A27BC
 BYTE   PATT
  POIN2 Label_6_015A27CB
// 035   ----------------------------------------
 BYTE   N36  Gs4  v064
 BYTE   W36
 BYTE   PATT
  POIN2 Label_6_015A27DD
// 036   ----------------------------------------
 BYTE   N72  As4  v064
 BYTE   W36
 BYTE   W36
 BYTE   GoTo
  POIN2 Label_6_015A27F0
 BYTE   FINE

//**************** Track 8 (Midi-Chn.7) ****************//

SuperPaperMarioItsShowtimeMrGreen3339_008:
// 000   ----------------------------------------
 BYTE   KEYSH   SuperPaperMarioItsShowtimeMrGreen3339_key+0
 BYTE   VOICE   98
 BYTE   VOL   48*SuperPaperMarioItsShowtimeMrGreen3339_mvl/mxv
 BYTE   N06  En3  v064
 BYTE   N06  En4
 BYTE   W06
 BYTE   As3
 BYTE   N06  As4
 BYTE   W06
 BYTE   Gs3
 BYTE   N06  Gs4
 BYTE   W06
 BYTE   As3
 BYTE   N06  As4
 BYTE   W06
 BYTE   Bn3
 BYTE   N06  Bn4
 BYTE   W06
 BYTE   Gs3
 BYTE   N06  Gs4
 BYTE   W06
Label_7_015A29CC:
 BYTE   N06  As3  v064
 BYTE   N06  As4
 BYTE   W06
 BYTE   Fs3
 BYTE   N06  Fs4
 BYTE   W06
 BYTE   Gs3
 BYTE   N06  Gs4
 BYTE   W06
 BYTE   Fn3
 BYTE   N06  Fn4
 BYTE   W06
 BYTE   Fs3
 BYTE   N06  Fs4
 BYTE   W06
 BYTE   Ds3
 BYTE   N06  Ds4
 BYTE   W06
 BYTE   PEND 
Label_7_015A29E7:
 BYTE   N06  Dn3  v064
 BYTE   N06  Dn4
 BYTE   W06
 BYTE   Fn3
 BYTE   N06  Fn4
 BYTE   W06
 BYTE   As3
 BYTE   N06  As4
 BYTE   W06
 BYTE   Gs3
 BYTE   N06  Gs4
 BYTE   W06
// 001   ----------------------------------------
 BYTE   Gn3
 BYTE   N06  Gn4
 BYTE   W06
 BYTE   Ds4
 BYTE   N06  Ds5
 BYTE   W06
 BYTE   PEND 
Label_7_015A2A02:
 BYTE   N06  Cs4  v064
 BYTE   N06  Cs5
 BYTE   W06
 BYTE   Ds4
 BYTE   N06  Ds5
 BYTE   W06
 BYTE   Bn3
 BYTE   N06  Bn4
 BYTE   W06
 BYTE   Ds4
 BYTE   N06  Ds5
 BYTE   W06
 BYTE   As3
 BYTE   N06  As4
 BYTE   W06
 BYTE   Cs4
 BYTE   N06  Cs5
 BYTE   W06
 BYTE   PEND 
Label_7_015A2A1D:
 BYTE   N06  Bn3  v064
 BYTE   N06  Bn4
 BYTE   W06
 BYTE   Gs3
 BYTE   N06  Gs4
 BYTE   W06
 BYTE   Fs4
 BYTE   N06  Fs5
 BYTE   W06
 BYTE   Ds4
 BYTE   N06  Ds5
 BYTE   W06
 BYTE   Dn4
 BYTE   N06  Dn5
 BYTE   W06
 BYTE   Bn3
 BYTE   N06  Bn4
 BYTE   W06
 BYTE   PEND 
Label_7_015A2A38:
 BYTE   N06  As3  v064
 BYTE   N06  As4
 BYTE   W06
 BYTE   Gs3
 BYTE   N06  Gs4
 BYTE   W06
// 002   ----------------------------------------
 BYTE   As3
 BYTE   N06  As4
 BYTE   W06
 BYTE   Ds3
 BYTE   N06  Ds4
 BYTE   W06
 BYTE   Fn3
 BYTE   N06  Fn4
 BYTE   W06
 BYTE   Gn3
 BYTE   N06  Gn4
 BYTE   W06
 BYTE   PEND 
Label_7_015A2A53:
 BYTE   N06  Gs3  v064
 BYTE   N06  Gs4
 BYTE   W06
 BYTE   Ds4
 BYTE   N06  Ds5
 BYTE   W06
 BYTE   Cs4
 BYTE   N06  Cs5
 BYTE   W06
 BYTE   Ds4
 BYTE   N06  Ds5
 BYTE   W06
 BYTE   Fn3
 BYTE   N06  Fn4
 BYTE   W06
 BYTE   Bn3
 BYTE   N06  Bn4
 BYTE   W06
 BYTE   PEND 
Label_7_015A2A6E:
 BYTE   N06  Fs3  v064
 BYTE   N06  Fs4
 BYTE   W06
 BYTE   Fn3
 BYTE   N06  Fn4
 BYTE   W06
 BYTE   Ds3
 BYTE   N06  Ds4
 BYTE   W06
 BYTE   Fn3
 BYTE   N06  Fn4
 BYTE   W06
 BYTE   Fs3
 BYTE   N06  Fs4
 BYTE   W06
 BYTE   An3
 BYTE   N06  An4
 BYTE   W06
 BYTE   PEND 
// 003   ----------------------------------------
Label_7_015A2A89:
 BYTE   N06  As3  v064
 BYTE   N06  As4
 BYTE   W06
 BYTE   Gs3
 BYTE   N06  Gs4
 BYTE   W06
 BYTE   As3
 BYTE   N06  As4
 BYTE   W06
 BYTE   Fs3
 BYTE   N06  Fs4
 BYTE   W06
 BYTE   Fn3
 BYTE   N06  Fn4
 BYTE   W06
 BYTE   An3
 BYTE   N06  An4
 BYTE   W06
 BYTE   PEND 
Label_7_015A2AA4:
 BYTE   N06  Fs3  v064
 BYTE   N06  Fs4
 BYTE   W06
 BYTE   Gs3
 BYTE   N06  Gs4
 BYTE   W06
 BYTE   Cn3
 BYTE   N06  Cn4
 BYTE   W06
 BYTE   En3
 BYTE   N06  En4
 BYTE   W06
 BYTE   Cn3
 BYTE   N06  Cn4
 BYTE   W06
 BYTE   Gs3
 BYTE   N06  Gs4
 BYTE   W06
 BYTE   PEND 
Label_7_015A2ABF:
 BYTE   TIE  As3  v064
 BYTE   TIE  As4
 BYTE   W36
 BYTE   PEND 
// 004   ----------------------------------------
 BYTE   W36
 BYTE   W36
 BYTE   W36
// 005   ----------------------------------------
 BYTE   EOT
 BYTE   As3  v082
Label_7_015A2ACC:
 BYTE   N06  En3  v064
 BYTE   N06  En4
 BYTE   W06
 BYTE   As3
 BYTE   N06  As4
 BYTE   W06
 BYTE   Gs3
 BYTE   N06  Gs4
 BYTE   W06
 BYTE   As3
 BYTE   N06  As4
 BYTE   W06
 BYTE   Bn3
 BYTE   N06  Bn4
 BYTE   W06
 BYTE   Gs3
 BYTE   N06  Gs4
 BYTE   W06
 BYTE   PEND 
 BYTE   PATT
  POIN2 Label_7_015A29CC
// 006   ----------------------------------------
Label_7_015A2AEC:
 BYTE   N06  En3  v064
 BYTE   N06  En4
 BYTE   W06
 BYTE   Fn3
 BYTE   N06  Fn4
 BYTE   W06
 BYTE   Fs3
 BYTE   N06  Fs4
 BYTE   W06
 BYTE   Gs3
 BYTE   N06  Gs4
 BYTE   W06
 BYTE   Gn3
 BYTE   N06  Gn4
 BYTE   W06
 BYTE   Ds4
 BYTE   N06  Ds5
 BYTE   W06
 BYTE   PEND 
Label_7_015A2B07:
 BYTE   N06  Cs4  v064
 BYTE   N06  Cs5
 BYTE   W06
 BYTE   As3
 BYTE   N06  As4
 BYTE   W06
 BYTE   Cn4
 BYTE   N06  Cn5
 BYTE   W06
 BYTE   Gs3
 BYTE   N06  Gs4
 BYTE   W06
 BYTE   As3
 BYTE   N06  As4
 BYTE   W06
 BYTE   Gn3
 BYTE   N06  Gn4
 BYTE   W06
 BYTE   PEND 
Label_7_015A2B22:
 BYTE   N06  Gs3  v064
 BYTE   N06  Gs4
 BYTE   W06
 BYTE   Gn3
 BYTE   N06  Gn4
 BYTE   W06
 BYTE   Fs4
 BYTE   N06  Fs5
 BYTE   W06
 BYTE   Ds4
 BYTE   N06  Ds5
 BYTE   W06
// 007   ----------------------------------------
 BYTE   Dn4
 BYTE   N06  Dn5
 BYTE   W06
 BYTE   Bn3
 BYTE   N06  Bn4
 BYTE   W06
 BYTE   PEND 
 BYTE   PATT
  POIN2 Label_7_015A2A38
// 008   ----------------------------------------
 BYTE   N36  Gs3  v064
 BYTE   N36  Gs4
 BYTE   W36
Label_7_015A2B48:
 BYTE   N06  Fs3  v064
 BYTE   N06  Fs4
 BYTE   W06
 BYTE   Fn3
 BYTE   N06  Fn4
 BYTE   W06
 BYTE   En3
 BYTE   N06  En4
 BYTE   W06
 BYTE   Fn3
 BYTE   N06  Fn4
 BYTE   W06
 BYTE   Fs3
 BYTE   N06  Fs4
 BYTE   W06
 BYTE   Gs3
 BYTE   N06  Gs4
 BYTE   W06
 BYTE   PEND 
 BYTE   N72  As3
 BYTE   N72  As4
 BYTE   W36
// 009   ----------------------------------------
 BYTE   W36
Label_7_015A2B69:
 BYTE   N72  Gn3  v064
 BYTE   N72  Gn4
 BYTE   W36
 BYTE   W36
// 010   ----------------------------------------
 BYTE   En3
 BYTE   N72  En4
 BYTE   W36
 BYTE   W36
 BYTE   N18  Fn2
 BYTE   N18  Fn3
 BYTE   W18
 BYTE   N06  Fn2
 BYTE   N06  Fn3
 BYTE   W12
// 011   ----------------------------------------
 BYTE   Fn2
 BYTE   N06  Fn3
 BYTE   W06
 BYTE   W06
 BYTE   Fn2
 BYTE   N06  Fn3
 BYTE   W06
 BYTE   N24  Fs2
 BYTE   N24  Fs3
 BYTE   W24
 BYTE   N06  Ds3
 BYTE   N06  Ds4
 BYTE   W06
 BYTE   As3
 BYTE   N06  As4
 BYTE   W06
 BYTE   Gs3
 BYTE   N06  Gs4
 BYTE   W06
 BYTE   As3
 BYTE   N06  As4
 BYTE   W06
 BYTE   Bn3
 BYTE   N06  Bn4
 BYTE   W06
 BYTE   Cs4
 BYTE   N06  Cs5
 BYTE   W06
 BYTE   Gs3
 BYTE   N06  Gs4
 BYTE   W06
 BYTE   Bn3
 BYTE   N06  Bn4
 BYTE   W06
 BYTE   Gs3
 BYTE   N06  Gs4
 BYTE   W06
// 012   ----------------------------------------
 BYTE   As3
 BYTE   N06  As4
 BYTE   W06
 BYTE   Fs3
 BYTE   N06  Fs4
 BYTE   W06
 BYTE   Gs3
 BYTE   N06  Gs4
 BYTE   W06
 BYTE   Fn3
 BYTE   N06  Fn4
 BYTE   W06
 BYTE   As3
 BYTE   N06  As4
 BYTE   W06
 BYTE   Gn4
 BYTE   N06  Gn5
 BYTE   W06
 BYTE   Fn4
 BYTE   N06  Fn5
 BYTE   W06
 BYTE   En4
 BYTE   N06  En5
 BYTE   W06
 BYTE   As3
 BYTE   N06  As4
 BYTE   W06
 BYTE   Ds4
 BYTE   N06  Ds5
 BYTE   W06
 BYTE   Cs4
 BYTE   N06  Cs5
 BYTE   W06
 BYTE   Fn4
 BYTE   N06  Fn5
 BYTE   W06
 BYTE   As3
 BYTE   N06  As4
 BYTE   W06
 BYTE   Cs4
 BYTE   N06  Cs5
 BYTE   W06
 BYTE   Bn3
 BYTE   N06  Bn4
 BYTE   W06
 BYTE   Ds4
 BYTE   N06  Ds5
 BYTE   W06
// 013   ----------------------------------------
 BYTE   Bn3
 BYTE   N06  Bn4
 BYTE   W06
 BYTE   Cs4
 BYTE   N06  Cs5
 BYTE   W06
 BYTE   Bn3
 BYTE   N06  Bn4
 BYTE   W06
 BYTE   An3
 BYTE   N06  An4
 BYTE   W06
 BYTE   Gn3
 BYTE   N06  Gn4
 BYTE   W06
 BYTE   Cs4
 BYTE   N06  Cs5
 BYTE   W06
 BYTE   Fs3
 BYTE   N06  Fs4
 BYTE   W06
 BYTE   Bn3
 BYTE   N06  Bn4
 BYTE   W06
 BYTE   Gn3
 BYTE   N06  Gn4
 BYTE   W06
 BYTE   As3
 BYTE   N06  As4
 BYTE   W06
 BYTE   Gn3
 BYTE   N06  Gn4
 BYTE   W06
 BYTE   N36  Gs3
 BYTE   N36  Gs4
 BYTE   W36
// 014   ----------------------------------------
 BYTE   N06  Gs3
 BYTE   N06  Gs4
 BYTE   W06
 BYTE   Gn3
 BYTE   N06  Gn4
 BYTE   W06
 BYTE   Gs3
 BYTE   N06  Gs4
 BYTE   W06
 BYTE   Cs4
 BYTE   N06  Cs5
 BYTE   W06
 BYTE   Bn3
 BYTE   N06  Bn4
 BYTE   W06
 BYTE   As3
 BYTE   N06  As4
 BYTE   W06
 BYTE   N72  Bn3
 BYTE   N72  Bn4
 BYTE   W36
 BYTE   W36
// 015   ----------------------------------------
 BYTE   Gs3
 BYTE   N72  Gs4
 BYTE   W36
 BYTE   W36
 BYTE   N36  Gs3
 BYTE   N36  Gs4
 BYTE   W36
 BYTE   PATT
  POIN2 Label_7_015A2ABF
// 016   ----------------------------------------
 BYTE   W36
 BYTE   W36
 BYTE   EOT
 BYTE   As3  v082
 BYTE   N72  Gn3  v064
 BYTE   N72  Gn4
 BYTE   W36
// 017   ----------------------------------------
 BYTE   W36
 BYTE   Gs3
 BYTE   N72  Gs4
 BYTE   W36
 BYTE   W36
// 018   ----------------------------------------
 BYTE   As3
 BYTE   N72  As4
 BYTE   W36
 BYTE   W36
 BYTE   TIE  Bn3
 BYTE   TIE  Bn4
 BYTE   W36
// 019   ----------------------------------------
 BYTE   W36
 BYTE   W36
 BYTE   W36
// 020   ----------------------------------------
 BYTE   EOT
 BYTE   Bn3  v083
 BYTE   W12
 BYTE   N12  Bn3
 BYTE   N12  Bn4
 BYTE   W12
 BYTE   As3
 BYTE   N12  As4
 BYTE   W12
 BYTE   An3
 BYTE   N12  An4
 BYTE   W12
 BYTE   Gs3
 BYTE   N12  Gs4
 BYTE   W12
 BYTE   Gn3
 BYTE   N12  Gn4
 BYTE   W12
 BYTE   Fs3
 BYTE   N12  Fs4
 BYTE   W12
 BYTE   Fn3
 BYTE   N12  Fn4
 BYTE   W12
// 021   ----------------------------------------
 BYTE   En3
 BYTE   N12  En4
 BYTE   W12
 BYTE   Ds3
 BYTE   N12  Ds4
 BYTE   W12
 BYTE   Dn3
 BYTE   N12  Dn4
 BYTE   W12
 BYTE   Cs3
 BYTE   N12  Cs4
 BYTE   W12
 BYTE   Cn3
 BYTE   N12  Cn4
 BYTE   W36
 BYTE   W36
// 022   ----------------------------------------
 BYTE   W36
 BYTE   W36
 BYTE   N24  As2
 BYTE   N24  As3
 BYTE   W24
// 023   ----------------------------------------
 BYTE   N12  An2
 BYTE   N12  An3
 BYTE   W12
 BYTE   N24  As2
 BYTE   N24  As3
 BYTE   W24
 BYTE   N12  Cn3
 BYTE   N12  Cn4
 BYTE   W12
 BYTE   Dn3
 BYTE   N12  Dn4
 BYTE   W12
 BYTE   Cn3
 BYTE   N12  Cn4
 BYTE   W12
 BYTE   As2
 BYTE   N12  As3
 BYTE   W12
 BYTE   N24  An2
 BYTE   N24  An3
 BYTE   W24
// 024   ----------------------------------------
 BYTE   N12  Cn3
 BYTE   N12  Cn4
 BYTE   W12
 BYTE   N24  As2
 BYTE   N24  As3
 BYTE   W24
 BYTE   N12  Gn2
 BYTE   N12  Gn3
 BYTE   W12
 BYTE   N24  Gs2
 BYTE   N24  Gs3
 BYTE   W24
 BYTE   N12  Gn2
 BYTE   N12  Gn3
 BYTE   W12
 BYTE   N36  Fs2
 BYTE   N36  Fs3
 BYTE   W36
// 025   ----------------------------------------
 BYTE   Fn2
 BYTE   N36  Fn3
 BYTE   W36
 BYTE   N24  Ds3
 BYTE   N24  Ds4
 BYTE   W24
 BYTE   N12  Dn3
 BYTE   N12  Dn4
 BYTE   W12
 BYTE   N24  Ds3
 BYTE   N24  Ds4
 BYTE   W24
// 026   ----------------------------------------
 BYTE   N12  Fn3
 BYTE   N12  Fn4
 BYTE   W12
 BYTE   Gn3
 BYTE   N12  Gn4
 BYTE   W12
 BYTE   Fn3
 BYTE   N12  Fn4
 BYTE   W12
 BYTE   Ds3
 BYTE   N12  Ds4
 BYTE   W12
 BYTE   N24  Dn3
 BYTE   N24  Dn4
 BYTE   W24
 BYTE   N12  En3
 BYTE   N12  En4
 BYTE   W12
 BYTE   N24  Ds3
 BYTE   N24  Ds4
 BYTE   W24
// 027   ----------------------------------------
 BYTE   N12  Bn2
 BYTE   N12  Bn3
 BYTE   W12
 BYTE   N24
 BYTE   N24  Bn4
 BYTE   W24
 BYTE   N12  As3
 BYTE   N12  As4
 BYTE   W12
 BYTE   N36  Gs3
 BYTE   N36  Gs4
 BYTE   W36
 BYTE   Fs3
 BYTE   N36  Fs4
 BYTE   W36
// 028   ----------------------------------------
 BYTE   N12  As2
 BYTE   N12  As3
 BYTE   W12
 BYTE   Cs3
 BYTE   N12  Cs4
 BYTE   W12
 BYTE   En3
 BYTE   N12  En4
 BYTE   W12
 BYTE   N36  Ds3
 BYTE   N36  Ds4
 BYTE   W36
 BYTE   N12  Cn3
 BYTE   N12  Cn4
 BYTE   W12
 BYTE   Ds3
 BYTE   N12  Ds4
 BYTE   W12
// 029   ----------------------------------------
 BYTE   Fs3
 BYTE   N12  Fs4
 BYTE   W12
 BYTE   Fn3
 BYTE   N12  Fn4
 BYTE   W12
 BYTE   Gs3
 BYTE   N12  Gs4
 BYTE   W12
 BYTE   Bn3
 BYTE   N12  Bn4
 BYTE   W12
 BYTE   PATT
  POIN2 Label_7_015A2ABF
// 030   ----------------------------------------
 BYTE   W36
 BYTE   W36
 BYTE   W24
// 031   ----------------------------------------
 BYTE   EOT
 BYTE   As3  v082
 BYTE   N12  Fn2  v064
 BYTE   N12  Fn3
 BYTE   W12
 BYTE   N36  As2
 BYTE   N36  As3
 BYTE   W36
 BYTE   PATT
  POIN2 Label_7_015A2ACC
 BYTE   PATT
  POIN2 Label_7_015A29CC
 BYTE   PATT
  POIN2 Label_7_015A29E7
 BYTE   PATT
  POIN2 Label_7_015A2A02
 BYTE   PATT
  POIN2 Label_7_015A2A1D
 BYTE   PATT
  POIN2 Label_7_015A2A38
 BYTE   PATT
  POIN2 Label_7_015A2A53
 BYTE   PATT
  POIN2 Label_7_015A2A6E
 BYTE   PATT
  POIN2 Label_7_015A2A89
 BYTE   PATT
  POIN2 Label_7_015A2AA4
 BYTE   PATT
  POIN2 Label_7_015A2ABF
// 032   ----------------------------------------
 BYTE   W36
 BYTE   W36
 BYTE   W36
// 033   ----------------------------------------
 BYTE   EOT
 BYTE   As3  v082
 BYTE   PATT
  POIN2 Label_7_015A2ACC
 BYTE   PATT
  POIN2 Label_7_015A29CC
 BYTE   PATT
  POIN2 Label_7_015A2AEC
 BYTE   PATT
  POIN2 Label_7_015A2B07
 BYTE   PATT
  POIN2 Label_7_015A2B22
 BYTE   PATT
  POIN2 Label_7_015A2A38
// 034   ----------------------------------------
 BYTE   N36  Gs3  v064
 BYTE   N36  Gs4
 BYTE   W36
 BYTE   PATT
  POIN2 Label_7_015A2B48
// 035   ----------------------------------------
 BYTE   N72  As3  v064
 BYTE   N72  As4
 BYTE   W36
 BYTE   W36
 BYTE   GoTo
  POIN2 Label_7_015A2B69
 BYTE   FINE

//**************** Track 9 (Midi-Chn.8) ****************//

SuperPaperMarioItsShowtimeMrGreen3339_009:
// 000   ----------------------------------------
 BYTE   KEYSH   SuperPaperMarioItsShowtimeMrGreen3339_key+0
 BYTE   VOICE   127
 BYTE   VOL   58*SuperPaperMarioItsShowtimeMrGreen3339_mvl/mxv
 BYTE   N03  Cn1  v064
 BYTE   N03  Ds1
 BYTE   N03  As1
 BYTE   W06
 BYTE   An1
 BYTE   W06
 BYTE   Ds1
 BYTE   W06
 BYTE   Cn1
 BYTE   N03  An1
 BYTE   W06
 BYTE   Ds1
 BYTE   W06
 BYTE   An1
 BYTE   W06
Label_8_015A2E02:
 BYTE   N03  Cn1  v064
 BYTE   N03  Ds1
 BYTE   N03  As1
 BYTE   W06
 BYTE   An1
 BYTE   W06
 BYTE   Ds1
 BYTE   W06
 BYTE   Cn1
 BYTE   N03  An1
 BYTE   W06
 BYTE   Ds1
 BYTE   W06
 BYTE   An1
 BYTE   W06
 BYTE   PEND 
 BYTE   PATT
  POIN2 Label_8_015A2E02
 BYTE   PATT
  POIN2 Label_8_015A2E02
 BYTE   PATT
  POIN2 Label_8_015A2E02
 BYTE   PATT
  POIN2 Label_8_015A2E02
 BYTE   PATT
  POIN2 Label_8_015A2E02
 BYTE   PATT
  POIN2 Label_8_015A2E02
 BYTE   PATT
  POIN2 Label_8_015A2E02
 BYTE   PATT
  POIN2 Label_8_015A2E02
// 001   ----------------------------------------
Label_8_015A2E3F:
 BYTE   N03  Cn1  v064
 BYTE   N03  Ds1
 BYTE   W12
 BYTE   Cs1
 BYTE   W06
 BYTE   Cn1
 BYTE   N03  Ds1
 BYTE   W12
 BYTE   Cs1
 BYTE   W06
 BYTE   PEND 
Label_8_015A2E4E:
 BYTE   N03  Cn1  v064
 BYTE   N03  Ds1
 BYTE   W06
 BYTE   Cs1
 BYTE   W06
 BYTE   Cn1
 BYTE   N03  Ds1
 BYTE   W06
 BYTE   Cs1
 BYTE   W06
 BYTE   Cn1
 BYTE   N03  Ds1
 BYTE   W12
 BYTE   PEND 
Label_8_015A2E61:
 BYTE   N03  Cs1  v064
 BYTE   W06
 BYTE   Cn1
 BYTE   N03  Ds1
 BYTE   W12
 BYTE   Cs1
 BYTE   W06
// 002   ----------------------------------------
 BYTE   Cn1
 BYTE   N03  Ds1
 BYTE   W06
 BYTE   Cs1
 BYTE   W06
 BYTE   PEND 
Label_8_015A2E72:
 BYTE   N03  Cn1  v064
 BYTE   N03  Ds1
 BYTE   W06
 BYTE   Cs1
 BYTE   W06
 BYTE   Cn1
 BYTE   N03  Ds1
 BYTE   W12
 BYTE   Cs1
 BYTE   W06
 BYTE   Cn1
 BYTE   N03  Ds1
 BYTE   N03  As1
 BYTE   W06
 BYTE   PEND 
Label_8_015A2E87:
 BYTE   N03  Cn1  v064
 BYTE   N03  An1
 BYTE   N03  Cs2
 BYTE   W06
 BYTE   Ds1
 BYTE   W06
 BYTE   Cn1
 BYTE   N03  En1
 BYTE   W06
 BYTE   Ds1
 BYTE   W06
 BYTE   Cn1
 BYTE   N03  An1
 BYTE   W06
 BYTE   Ds1
 BYTE   W06
 BYTE   PEND 
Label_8_015A2E9E:
 BYTE   N03  Cn1  v064
 BYTE   N03  En1
 BYTE   W06
 BYTE   Ds1
 BYTE   W06
// 003   ----------------------------------------
 BYTE   Cn1
 BYTE   N03  An1
 BYTE   W06
 BYTE   Ds1
 BYTE   W06
 BYTE   Cn1
 BYTE   N03  En1
 BYTE   W06
 BYTE   Ds1
 BYTE   W06
 BYTE   PEND 
Label_8_015A2EB3:
 BYTE   N03  Cn1  v064
 BYTE   N03  An1
 BYTE   W06
 BYTE   Ds1
 BYTE   W06
 BYTE   Cn1
 BYTE   N03  En1
 BYTE   W06
 BYTE   Ds1
 BYTE   W06
 BYTE   Cn1
 BYTE   N03  An1
 BYTE   W06
 BYTE   Ds1
 BYTE   W06
 BYTE   PEND 
 BYTE   PATT
  POIN2 Label_8_015A2E9E
 BYTE   PATT
  POIN2 Label_8_015A2EB3
 BYTE   PATT
  POIN2 Label_8_015A2E9E
 BYTE   PATT
  POIN2 Label_8_015A2EB3
 BYTE   PATT
  POIN2 Label_8_015A2E9E
 BYTE   PATT
  POIN2 Label_8_015A2EB3
 BYTE   PATT
  POIN2 Label_8_015A2E9E
// 004   ----------------------------------------
Label_8_015A2EEB:
 BYTE   PATT
  POIN2 Label_8_015A2EB3
 BYTE   PATT
  POIN2 Label_8_015A2E9E
 BYTE   PATT
  POIN2 Label_8_015A2EB3
 BYTE   PATT
  POIN2 Label_8_015A2E9E
// 005   ----------------------------------------
 BYTE   N03  Cn1  v064
 BYTE   N03  Ds1
 BYTE   W18
 BYTE   Cn1
 BYTE   N03  Ds1
 BYTE   W12
 BYTE   N03
 BYTE   W06
 BYTE   Cn1
 BYTE   W06
 BYTE   Ds1
 BYTE   W06
 BYTE   N03
 BYTE   W06
 BYTE   Cn1
 BYTE   W06
 BYTE   As1
 BYTE   W12
 BYTE   PATT
  POIN2 Label_8_015A2E87
 BYTE   PATT
  POIN2 Label_8_015A2E9E
 BYTE   PATT
  POIN2 Label_8_015A2EB3
 BYTE   PATT
  POIN2 Label_8_015A2E9E
 BYTE   PATT
  POIN2 Label_8_015A2EB3
 BYTE   PATT
  POIN2 Label_8_015A2E9E
 BYTE   PATT
  POIN2 Label_8_015A2EB3
 BYTE   PATT
  POIN2 Label_8_015A2E9E
 BYTE   PATT
  POIN2 Label_8_015A2EB3
 BYTE   PATT
  POIN2 Label_8_015A2E9E
 BYTE   PATT
  POIN2 Label_8_015A2EB3
 BYTE   PATT
  POIN2 Label_8_015A2E9E
// 006   ----------------------------------------
Label_8_015A2F51:
 BYTE   N03  Cn1  v064
 BYTE   N03  An1
 BYTE   W06
 BYTE   Ds1
 BYTE   W06
 BYTE   Cn1
 BYTE   W06
 BYTE   Ds1
 BYTE   W06
 BYTE   Cn1
 BYTE   W06
 BYTE   Ds1
 BYTE   W06
 BYTE   PEND 
 BYTE   PATT
  POIN2 Label_8_015A2F51
// 007   ----------------------------------------
Label_8_015A2F67:
 BYTE   N03  Cn1  v064
 BYTE   W06
 BYTE   Ds1
 BYTE   W06
 BYTE   Cn1
 BYTE   W06
 BYTE   Ds1
 BYTE   W06
 BYTE   Cn1
 BYTE   W06
 BYTE   Ds1
 BYTE   W06
 BYTE   PEND 
 BYTE   PATT
  POIN2 Label_8_015A2F67
 BYTE   PATT
  POIN2 Label_8_015A2F51
 BYTE   PATT
  POIN2 Label_8_015A2F67
 BYTE   PATT
  POIN2 Label_8_015A2F51
 BYTE   PATT
  POIN2 Label_8_015A2F67
 BYTE   PATT
  POIN2 Label_8_015A2F51
 BYTE   PATT
  POIN2 Label_8_015A2F67
 BYTE   PATT
  POIN2 Label_8_015A2F51
 BYTE   PATT
  POIN2 Label_8_015A2F67
// 008   ----------------------------------------
 BYTE   N03  Cn1  v064
 BYTE   W12
 BYTE   Ds1
 BYTE   W12
 BYTE   Cn1
 BYTE   W12
 BYTE   Ds1
 BYTE   W12
 BYTE   Cn1
 BYTE   W12
 BYTE   Ds1
 BYTE   N03  Cs2
 BYTE   W12
 BYTE   W12
 BYTE   Cn1
 BYTE   N03  As1
 BYTE   W12
// 009   ----------------------------------------
 BYTE   Cn1
 BYTE   N03  As1
 BYTE   W12
Label_8_015A2FBC:
 BYTE   N03  Cn1  v064
 BYTE   N03  As1
 BYTE   W12
 BYTE   Cn1
 BYTE   N03  As1
 BYTE   W12
 BYTE   Cn1
 BYTE   N03  As1
 BYTE   W12
 BYTE   PEND 
 BYTE   PATT
  POIN2 Label_8_015A2FBC
 BYTE   PATT
  POIN2 Label_8_015A2FBC
// 010   ----------------------------------------
 BYTE   N03  Cn1  v064
 BYTE   N03  Gn1
 BYTE   N03  As1
 BYTE   W12
 BYTE   Ds1
 BYTE   W12
 BYTE   N03
 BYTE   W12
Label_8_015A2FE1:
 BYTE   N03  Fn1  v064
 BYTE   W12
 BYTE   Ds1
 BYTE   W12
 BYTE   N03
 BYTE   W12
 BYTE   PEND 
 BYTE   Gn1
 BYTE   W12
 BYTE   Ds1
 BYTE   W12
// 011   ----------------------------------------
 BYTE   N03
 BYTE   W12
 BYTE   PATT
  POIN2 Label_8_015A2FE1
// 012   ----------------------------------------
Label_8_015A2FF5:
 BYTE   N03  Gn1  v064
 BYTE   N03  Cs2
 BYTE   W12
 BYTE   Ds1
 BYTE   W12
 BYTE   N03
 BYTE   N03  An1
 BYTE   W12
 BYTE   PEND 
Label_8_015A3002:
 BYTE   N03  Fn1  v064
 BYTE   W12
 BYTE   Ds1
 BYTE   W12
 BYTE   N03
 BYTE   N03  An1
 BYTE   W12
 BYTE   PEND 
 BYTE   PATT
  POIN2 Label_8_015A2FF5
 BYTE   PATT
  POIN2 Label_8_015A3002
 BYTE   PATT
  POIN2 Label_8_015A2FF5
// 013   ----------------------------------------
Label_8_015A301C:
 BYTE   N03  Fn1  v064
 BYTE   N03  Cs2
 BYTE   W12
 BYTE   Ds1
 BYTE   W12
 BYTE   N03
 BYTE   N03  An1
 BYTE   W12
 BYTE   PEND 
 BYTE   PATT
  POIN2 Label_8_015A2FF5
 BYTE   PATT
  POIN2 Label_8_015A301C
 BYTE   PATT
  POIN2 Label_8_015A2FF5
 BYTE   PATT
  POIN2 Label_8_015A3002
 BYTE   PATT
  POIN2 Label_8_015A2FF5
 BYTE   PATT
  POIN2 Label_8_015A3002
 BYTE   PATT
  POIN2 Label_8_015A2FF5
 BYTE   PATT
  POIN2 Label_8_015A301C
 BYTE   PATT
  POIN2 Label_8_015A2FF5
 BYTE   PATT
  POIN2 Label_8_015A301C
// 014   ----------------------------------------
Label_8_015A305B:
 BYTE   N03  Gn1  v064
 BYTE   N03  An1
 BYTE   N03  Cs2
 BYTE   W12
 BYTE   Ds1
 BYTE   N03  An1
 BYTE   W12
 BYTE   Ds1
 BYTE   N03  An1
 BYTE   W12
 BYTE   PEND 
 BYTE   Fn1
 BYTE   N03  An1
 BYTE   N03  Cs2
 BYTE   W12
 BYTE   Ds1
 BYTE   W12
 BYTE   N03
 BYTE   W12
 BYTE   PATT
  POIN2 Label_8_015A305B
// 015   ----------------------------------------
 BYTE   N03  Fn1  v064
 BYTE   N03  An1
 BYTE   N03  Cs2
 BYTE   W12
 BYTE   Ds1
 BYTE   N03  An1
 BYTE   W12
 BYTE   Ds1
 BYTE   N03  An1
 BYTE   W12
 BYTE   Gn1
 BYTE   N03  Cs2
 BYTE   W12
 BYTE   Ds1
 BYTE   W12
 BYTE   N03
 BYTE   W12
 BYTE   PATT
  POIN2 Label_8_015A2FE1
// 016   ----------------------------------------
 BYTE   N03  Gn1  v064
 BYTE   N03  Cs2
 BYTE   W36
 BYTE   Fn1
 BYTE   N03  Cs2
 BYTE   W36
 BYTE   W36
 BYTE   PATT
  POIN2 Label_8_015A2E02
 BYTE   PATT
  POIN2 Label_8_015A2E02
 BYTE   PATT
  POIN2 Label_8_015A2E02
 BYTE   PATT
  POIN2 Label_8_015A2E02
 BYTE   PATT
  POIN2 Label_8_015A2E02
 BYTE   PATT
  POIN2 Label_8_015A2E02
 BYTE   PATT
  POIN2 Label_8_015A2E02
 BYTE   PATT
  POIN2 Label_8_015A2E02
 BYTE   PATT
  POIN2 Label_8_015A2E02
 BYTE   PATT
  POIN2 Label_8_015A2E02
 BYTE   PATT
  POIN2 Label_8_015A2E3F
 BYTE   PATT
  POIN2 Label_8_015A2E4E
 BYTE   PATT
  POIN2 Label_8_015A2E61
 BYTE   PATT
  POIN2 Label_8_015A2E72
 BYTE   PATT
  POIN2 Label_8_015A2E87
 BYTE   PATT
  POIN2 Label_8_015A2E9E
 BYTE   PATT
  POIN2 Label_8_015A2EB3
 BYTE   PATT
  POIN2 Label_8_015A2E9E
 BYTE   PATT
  POIN2 Label_8_015A2EB3
 BYTE   PATT
  POIN2 Label_8_015A2E9E
 BYTE   PATT
  POIN2 Label_8_015A2EB3
 BYTE   PATT
  POIN2 Label_8_015A2E9E
 BYTE   PATT
  POIN2 Label_8_015A2EB3
 BYTE   PATT
  POIN2 Label_8_015A2E9E
// 017   ----------------------------------------
 BYTE   GoTo
  POIN2 Label_8_015A2EEB
 BYTE   FINE

//******************************************************//
	ALIGN 4

SuperPaperMarioItsShowtimeMrGreen3339:
	BYTE	9	// NumTrks
	BYTE	0	// NumBlks
	BYTE	SuperPaperMarioItsShowtimeMrGreen3339_pri	// Priority
	BYTE	SuperPaperMarioItsShowtimeMrGreen3339_rev	// Reverb.
    
	POIN2	SuperPaperMarioItsShowtimeMrGreen3339_grp
    
	POIN2	SuperPaperMarioItsShowtimeMrGreen3339_001
	POIN2	SuperPaperMarioItsShowtimeMrGreen3339_002
	POIN2	SuperPaperMarioItsShowtimeMrGreen3339_003
	POIN2	SuperPaperMarioItsShowtimeMrGreen3339_004
	POIN2	SuperPaperMarioItsShowtimeMrGreen3339_005
	POIN2	SuperPaperMarioItsShowtimeMrGreen3339_006
	POIN2	SuperPaperMarioItsShowtimeMrGreen3339_007
	POIN2	SuperPaperMarioItsShowtimeMrGreen3339_008
	POIN2	SuperPaperMarioItsShowtimeMrGreen3339_009

	
