//Event file generated from Sappy .s format.
	#include "MPlayDef.event"

	#define	SuperSmashBrosBrawlPorkysThemeMrGreen3339_grp  voicegroup000
	#define	SuperSmashBrosBrawlPorkysThemeMrGreen3339_pri  0
	#define	SuperSmashBrosBrawlPorkysThemeMrGreen3339_rev  0
	#define	SuperSmashBrosBrawlPorkysThemeMrGreen3339_mvl  127
	#define	SuperSmashBrosBrawlPorkysThemeMrGreen3339_key  0
	#define	SuperSmashBrosBrawlPorkysThemeMrGreen3339_tbs  1
	#define	SuperSmashBrosBrawlPorkysThemeMrGreen3339_exg  0
	#define	SuperSmashBrosBrawlPorkysThemeMrGreen3339_cmp  1

	// .rodata
	//	SuperSmashBrosBrawlPorkysThemeMrGreen3339
	ALIGN 4


//**************** Track 1 (Midi-Chn.0) ****************//

SuperSmashBrosBrawlPorkysThemeMrGreen3339_001:
// 000   ----------------------------------------
 BYTE   KEYSH   SuperSmashBrosBrawlPorkysThemeMrGreen3339_key+0
Label_0_0102645E:
 BYTE   TEMPO   128*SuperSmashBrosBrawlPorkysThemeMrGreen3339_tbs/2
 BYTE   VOICE   47
 BYTE   VOL   65*SuperSmashBrosBrawlPorkysThemeMrGreen3339_mvl/mxv
 BYTE   PAN   c_v+0
 BYTE   N05  An0  v076
 BYTE   W06
 BYTE   N20
 BYTE   W90
// 001   ----------------------------------------
 BYTE   W96
// 002   ----------------------------------------
 BYTE   N05  An0  v060
 BYTE   W06
 BYTE   TEMPO   128*SuperSmashBrosBrawlPorkysThemeMrGreen3339_tbs/2
 BYTE   N20
 BYTE   W42
 BYTE   N05
 BYTE   W06
 BYTE   N20
 BYTE   W42
// 003   ----------------------------------------
Label_0_01026479:
 BYTE   N05  An0  v060
 BYTE   W06
 BYTE   N20
 BYTE   W24
 BYTE   N20
 BYTE   W24
 BYTE   N20
 BYTE   W42
 BYTE   PEND 
// 004   ----------------------------------------
Label_0_01026484:
 BYTE   N05  An0  v060
 BYTE   W06
 BYTE   N20
 BYTE   W42
 BYTE   N05
 BYTE   W06
 BYTE   N20
 BYTE   W42
 BYTE   PEND 
// 005   ----------------------------------------
 BYTE   N05
 BYTE   W06
 BYTE   N20
 BYTE   W24
 BYTE   N20
 BYTE   W66
// 006   ----------------------------------------
 BYTE   N05
 BYTE   W06
 BYTE   TEMPO   138*SuperSmashBrosBrawlPorkysThemeMrGreen3339_tbs/2
 BYTE   N20  An1
 BYTE   W48
 BYTE   N20
 BYTE   W42
// 007   ----------------------------------------
Label_0_0102649E:
 BYTE   W06
 BYTE   N20  An1  v060
 BYTE   W24
 BYTE   Bn1
 BYTE   W24
 BYTE   Cn2
 BYTE   W42
 BYTE   PEND 
// 008   ----------------------------------------
Label_0_010264A8:
 BYTE   W06
 BYTE   N20  An1  v060
 BYTE   W48
 BYTE   N20
 BYTE   W42
 BYTE   PEND 
// 009   ----------------------------------------
 BYTE   W06
 BYTE   N20
 BYTE   W24
 BYTE   Bn1
 BYTE   W24
 BYTE   En1
 BYTE   W42
 BYTE   PATT
  POIN2 Label_0_010264A8
 BYTE   PATT
  POIN2 Label_0_0102649E
// 010   ----------------------------------------
 BYTE   W96
// 011   ----------------------------------------
 BYTE   W30
 BYTE   N20  En2  v060
 BYTE   W24
 BYTE   An1
 BYTE   W42
 BYTE   PATT
  POIN2 Label_0_01026484
 BYTE   PATT
  POIN2 Label_0_01026479
// 012   ----------------------------------------
Label_0_010264D3:
 BYTE   W06
 BYTE   N20  Cn2  v060
 BYTE   W48
 BYTE   N20
 BYTE   W42
 BYTE   PEND 
// 013   ----------------------------------------
Label_0_010264DB:
 BYTE   W06
 BYTE   N20  Cn2  v060
 BYTE   W24
 BYTE   Dn2
 BYTE   W24
 BYTE   Ds2
 BYTE   W42
 BYTE   PEND 
 BYTE   PATT
  POIN2 Label_0_010264D3
// 014   ----------------------------------------
 BYTE   W06
 BYTE   N20  Cn2  v060
 BYTE   W24
 BYTE   Dn2
 BYTE   W24
 BYTE   Gn1
 BYTE   W42
 BYTE   PATT
  POIN2 Label_0_010264D3
 BYTE   PATT
  POIN2 Label_0_010264DB
// 015   ----------------------------------------
 BYTE   W96
// 016   ----------------------------------------
 BYTE   W30
 BYTE   N20  Gn1  v108
 BYTE   N20  Gn2
 BYTE   W24
 BYTE   Cn2
 BYTE   W24
 BYTE   Dn2
 BYTE   W18
// 017   ----------------------------------------
 BYTE   W06
 BYTE   Ds2
 BYTE   W36
 BYTE   N11  Cn2
 BYTE   W12
 BYTE   N20  Ds2
 BYTE   W24
 BYTE   Fn2
 BYTE   W18
// 018   ----------------------------------------
 BYTE   W06
 BYTE   Gn2
 BYTE   W48
 BYTE   Dn2  v060
 BYTE   W42
// 019   ----------------------------------------
 BYTE   W30
 BYTE   Fn1
 BYTE   W42
 BYTE   W30
// 020   ----------------------------------------
 BYTE   Gn1
 BYTE   W42
 BYTE   W30
 BYTE   Bn1
 BYTE   W42
// 021   ----------------------------------------
 BYTE   W30
 BYTE   Dn2
 BYTE   W42
 BYTE   W30
// 022   ----------------------------------------
 BYTE   Fn1
 BYTE   W42
 BYTE   W30
 BYTE   Gn1
 BYTE   W42
// 023   ----------------------------------------
 BYTE   W30
 BYTE   Bn1
 BYTE   W42
 BYTE   W30
// 024   ----------------------------------------
 BYTE   Cn2
 BYTE   W42
 BYTE   W30
 BYTE   En1
 BYTE   W42
// 025   ----------------------------------------
 BYTE   W30
 BYTE   Fn1
 BYTE   W42
 BYTE   W30
// 026   ----------------------------------------
 BYTE   Gs1
 BYTE   W42
 BYTE   W30
 BYTE   N11  Gn2  v108
 BYTE   W12
 BYTE   N11
 BYTE   W24
// 027   ----------------------------------------
 BYTE   N11
 BYTE   W06
 BYTE   W18
 BYTE   N11
 BYTE   W12
 BYTE   N20
 BYTE   W24
 BYTE   Gn1
 BYTE   W18
 BYTE   W72
// 028   ----------------------------------------
 BYTE   N05  An0  v076
 BYTE   W06
 BYTE   N20
 BYTE   W66
 BYTE   W96
// 029   ----------------------------------------
 BYTE   W24
 BYTE   N05  An0  v060
 BYTE   W06
 BYTE   TEMPO   90*SuperSmashBrosBrawlPorkysThemeMrGreen3339_tbs/2
 BYTE   N02  An0  v048
 BYTE   W03
 BYTE   N02
 BYTE   W03
 BYTE   N02
 BYTE   W03
 BYTE   N02
 BYTE   W03
 BYTE   N02
 BYTE   W03
 BYTE   N02
 BYTE   W03
 BYTE   N02
 BYTE   W03
 BYTE   N02
 BYTE   W03
 BYTE   N02
 BYTE   W03
 BYTE   N02
 BYTE   W03
 BYTE   N02
 BYTE   W03
 BYTE   N02
 BYTE   W03
 BYTE   N02
 BYTE   W03
 BYTE   N02
 BYTE   W03
 BYTE   N02
 BYTE   W03
 BYTE   N02
 BYTE   W03
 BYTE   N02
 BYTE   W03
 BYTE   N02
 BYTE   W03
 BYTE   N02
 BYTE   W03
 BYTE   N02
 BYTE   W03
 BYTE   N02
 BYTE   W03
 BYTE   N02
 BYTE   W03
// 030   ----------------------------------------
 BYTE   N02
 BYTE   W03
 BYTE   N02
 BYTE   W03
 BYTE   N02
 BYTE   W03
 BYTE   N02
 BYTE   W03
 BYTE   N02
 BYTE   W03
 BYTE   N02
 BYTE   W03
 BYTE   N02
 BYTE   W03
 BYTE   N02
 BYTE   W03
 BYTE   N02
 BYTE   W03
 BYTE   N02
 BYTE   W03
 BYTE   N02
 BYTE   W03
 BYTE   N02
 BYTE   W03
 BYTE   N02
 BYTE   W03
 BYTE   N02
 BYTE   W03
 BYTE   N02
 BYTE   W03
 BYTE   N02
 BYTE   W03
 BYTE   N02
 BYTE   W03
 BYTE   N02
 BYTE   W03
 BYTE   An0  v060
 BYTE   W03
 BYTE   N02
 BYTE   W03
 BYTE   N02
 BYTE   W03
 BYTE   N02
 BYTE   W03
 BYTE   N02
 BYTE   W03
 BYTE   N02
 BYTE   W03
 BYTE   N02
 BYTE   W03
 BYTE   N02
 BYTE   W03
 BYTE   An0  v076
 BYTE   W03
 BYTE   N02
 BYTE   W03
 BYTE   N02
 BYTE   W03
 BYTE   N02
 BYTE   W03
 BYTE   N02
 BYTE   W03
 BYTE   N02
 BYTE   W03
// 031   ----------------------------------------
 BYTE   N02
 BYTE   W03
 BYTE   N02
 BYTE   W92
 BYTE   W01
// 032   ----------------------------------------
 BYTE   W90
 BYTE   N11  En1
 BYTE   W06
// 033   ----------------------------------------
Label_0_010265D3:
 BYTE   W06
 BYTE   N66  An1  v076
 BYTE   W84
 BYTE   N05  En1
 BYTE   W06
 BYTE   PEND 
// 034   ----------------------------------------
 BYTE   N05
 BYTE   W06
 BYTE   N11  An1
 BYTE   W12
 BYTE   En1
 BYTE   W12
 BYTE   An1
 BYTE   W12
 BYTE   En1
 BYTE   W12
 BYTE   An1
 BYTE   W12
 BYTE   En1
 BYTE   W12
 BYTE   An1
 BYTE   W12
 BYTE   En1
 BYTE   W06
 BYTE   PATT
  POIN2 Label_0_010265D3
// 035   ----------------------------------------
 BYTE   N05  En1  v076
 BYTE   W06
 BYTE   N11  An1
 BYTE   W12
 BYTE   En1
 BYTE   W12
 BYTE   An1
 BYTE   W12
 BYTE   En1
 BYTE   W12
 BYTE   An1
 BYTE   W12
 BYTE   En1
 BYTE   W12
 BYTE   An1
 BYTE   W12
 BYTE   N05  En1
 BYTE   W06
// 036   ----------------------------------------
 BYTE   N05
 BYTE   W06
 BYTE   N20  An1
 BYTE   W90
// 037   ----------------------------------------
 BYTE   W96
// 038   ----------------------------------------
 BYTE   W96
// 039   ----------------------------------------
 BYTE   W42
 BYTE   N05  En1
 BYTE   W06
 BYTE   N05
 BYTE   W06
 BYTE   N11  An1
 BYTE   W12
 BYTE   En1
 BYTE   W12
 BYTE   An1
 BYTE   W12
 BYTE   En1
 BYTE   W06
// 040   ----------------------------------------
 BYTE   W06
 BYTE   An1
 BYTE   W12
 BYTE   En1
 BYTE   W12
 BYTE   An1
 BYTE   W12
 BYTE   En1
 BYTE   W12
 BYTE   N20  An1
 BYTE   W36
 BYTE   N03  En1
 BYTE   W04
 BYTE   N03
 BYTE   W02
// 041   ----------------------------------------
 BYTE   W02
 BYTE   N03
 BYTE   W04
 BYTE   N20  An0
 BYTE   W36
 BYTE   GoTo
  POIN2 Label_0_0102645E
 BYTE   FINE

//**************** Track 2 (Midi-Chn.1) ****************//

SuperSmashBrosBrawlPorkysThemeMrGreen3339_002:
// 000   ----------------------------------------
 BYTE   KEYSH   SuperSmashBrosBrawlPorkysThemeMrGreen3339_key+0
Label_1_01026642:
 BYTE   VOICE   61
 BYTE   VOL   65*SuperSmashBrosBrawlPorkysThemeMrGreen3339_mvl/mxv
 BYTE   PAN   c_v+0
 BYTE   W06
 BYTE   N42  Fn3  v076
 BYTE   W48
 BYTE   N17  An3
 BYTE   W24
 BYTE   Ds3
 BYTE   W18
// 001   ----------------------------------------
 BYTE   W06
 BYTE   En3
 BYTE   W24
 BYTE   Bn2
 BYTE   W24
 BYTE   N42  Cn3
 BYTE   W42
// 002   ----------------------------------------
 BYTE   W06
 BYTE   VOICE   73
 BYTE   N03  As4  v060
 BYTE   W03
 BYTE   Gs4
 BYTE   W03
 BYTE   As4
 BYTE   W03
 BYTE   Gs4
 BYTE   W03
 BYTE   As4
 BYTE   W03
 BYTE   Gs4
 BYTE   W03
 BYTE   As4
 BYTE   W03
 BYTE   Gs4
 BYTE   W21
 BYTE   N03
 BYTE   W03
 BYTE   As4
 BYTE   W03
 BYTE   Gs4
 BYTE   W03
 BYTE   As4
 BYTE   W03
 BYTE   Gs4
 BYTE   W03
 BYTE   As4
 BYTE   W03
 BYTE   Gs4
 BYTE   W03
 BYTE   As4
 BYTE   W03
 BYTE   Gs4
 BYTE   W03
 BYTE   N02  As4
 BYTE   W21
// 003   ----------------------------------------
 BYTE   N03
 BYTE   W03
 BYTE   Gs4
 BYTE   W03
 BYTE   As4
 BYTE   W03
 BYTE   Gs4
 BYTE   W03
 BYTE   As4
 BYTE   W03
 BYTE   Gs4
 BYTE   W03
 BYTE   As4
 BYTE   W03
 BYTE   Gs4
 BYTE   W09
 BYTE   As4
 BYTE   W03
 BYTE   Gs4
 BYTE   W03
 BYTE   As4
 BYTE   W03
 BYTE   Gs4
 BYTE   W03
 BYTE   As4
 BYTE   W03
 BYTE   Gs4
 BYTE   W09
 BYTE   N03
 BYTE   W03
 BYTE   As4
 BYTE   W03
 BYTE   Gs4
 BYTE   W03
 BYTE   As4
 BYTE   W03
 BYTE   Gs4
 BYTE   W03
 BYTE   As4
 BYTE   W03
 BYTE   Gs4
 BYTE   W03
 BYTE   N02  As4
 BYTE   W21
// 004   ----------------------------------------
 BYTE   N03
 BYTE   W03
 BYTE   Gs4
 BYTE   W03
 BYTE   As4
 BYTE   W03
 BYTE   Gs4
 BYTE   W03
 BYTE   As4
 BYTE   W03
 BYTE   Gs4
 BYTE   W03
 BYTE   As4
 BYTE   W03
 BYTE   Gs4
 BYTE   W03
 BYTE   As4
 BYTE   W03
 BYTE   Gs4
 BYTE   W21
 BYTE   N03
 BYTE   W03
 BYTE   As4
 BYTE   W03
 BYTE   Gs4
 BYTE   W03
 BYTE   As4
 BYTE   W03
 BYTE   Gs4
 BYTE   W03
 BYTE   As4
 BYTE   W03
 BYTE   Gs4
 BYTE   W03
 BYTE   As4
 BYTE   W03
 BYTE   Gs4
 BYTE   W03
 BYTE   N02  As4
 BYTE   W21
// 005   ----------------------------------------
 BYTE   N03
 BYTE   W03
 BYTE   Gs4
 BYTE   W03
 BYTE   As4
 BYTE   W03
 BYTE   Gs4
 BYTE   W03
 BYTE   As4
 BYTE   W03
 BYTE   Gs4
 BYTE   W03
 BYTE   As4
 BYTE   W03
 BYTE   Gs4
 BYTE   W09
 BYTE   N03
 BYTE   W03
 BYTE   As4
 BYTE   W03
 BYTE   Gs4
 BYTE   W03
 BYTE   As4
 BYTE   W03
 BYTE   Gs4
 BYTE   W03
 BYTE   N02  As4
 BYTE   W48
 BYTE   W03
// 006   ----------------------------------------
 BYTE   VOICE   61
 BYTE   N05  En3  v076
 BYTE   W06
 BYTE   N17  An3
 BYTE   W24
 BYTE   Bn3
 BYTE   W24
 BYTE   N40  Cn4
 BYTE   W42
// 007   ----------------------------------------
Label_1_01026706:
 BYTE   N05  An3  v076
 BYTE   W06
 BYTE   N17  Cn4
 BYTE   W24
 BYTE   Dn4
 BYTE   W24
 BYTE   N40  En4
 BYTE   W42
 BYTE   PEND 
 BYTE   PATT
  POIN2 Label_1_01026706
// 008   ----------------------------------------
 BYTE   N05  Cn4  v076
 BYTE   W06
 BYTE   N17  En4
 BYTE   W24
 BYTE   Fn4
 BYTE   W24
 BYTE   N42  Gn4
 BYTE   W42
// 009   ----------------------------------------
 BYTE   W06
 BYTE   N11
 BYTE   W18
 BYTE   N05  An4
 BYTE   W06
 BYTE   Gn4
 BYTE   W12
 BYTE   Fs4
 BYTE   W12
 BYTE   En4
 BYTE   W12
 BYTE   Cn4
 BYTE   W12
 BYTE   N20  En4
 BYTE   W18
// 010   ----------------------------------------
 BYTE   W06
 BYTE   N11
 BYTE   W18
 BYTE   N05  Fs4
 BYTE   W06
 BYTE   Gn4
 BYTE   W12
 BYTE   Fs4
 BYTE   W12
 BYTE   N42  En4
 BYTE   W42
// 011   ----------------------------------------
 BYTE   W06
 BYTE   N32  Fn4
 BYTE   W36
 BYTE   N05  En4
 BYTE   W12
 BYTE   Dn4
 BYTE   W12
 BYTE   Cn4
 BYTE   W12
 BYTE   N17  Bn3
 BYTE   W18
// 012   ----------------------------------------
 BYTE   N05  Cn4
 BYTE   W06
 BYTE   N17  Bn3
 BYTE   W24
 BYTE   N11  En4
 BYTE   W24
 BYTE   N32  An3
 BYTE   W42
// 013   ----------------------------------------
 BYTE   VOICE   58
 BYTE   N05  Gs1
 BYTE   W06
 BYTE   N11  An1
 BYTE   W24
 BYTE   N08
 BYTE   W18
 BYTE   N05  Gs1
 BYTE   W06
 BYTE   N11  An1
 BYTE   W24
 BYTE   N08
 BYTE   W18
// 014   ----------------------------------------
 BYTE   N05  Gs1
 BYTE   W06
 BYTE   N11  An1
 BYTE   W24
 BYTE   Bn1
 BYTE   W24
 BYTE   N32  Cn2
 BYTE   W42
// 015   ----------------------------------------
 BYTE   VOICE   61
 BYTE   N05  Gn3
 BYTE   W06
 BYTE   N17  Cn4
 BYTE   W24
 BYTE   Dn4
 BYTE   W24
 BYTE   N40  Ds4
 BYTE   W42
// 016   ----------------------------------------
Label_1_01026786:
 BYTE   N05  Cn4  v076
 BYTE   W06
 BYTE   N17  Ds4
 BYTE   W24
 BYTE   Fn4
 BYTE   W24
 BYTE   N40  Gn4
 BYTE   W42
 BYTE   PEND 
 BYTE   PATT
  POIN2 Label_1_01026786
// 017   ----------------------------------------
 BYTE   N05  Ds4  v076
 BYTE   W06
 BYTE   N17  Gn4
 BYTE   W24
 BYTE   Gs4
 BYTE   W24
 BYTE   N42  As4
 BYTE   W42
// 018   ----------------------------------------
 BYTE   W06
 BYTE   N11
 BYTE   W18
 BYTE   N05  Cn5
 BYTE   W06
 BYTE   As4
 BYTE   W12
 BYTE   An4
 BYTE   W12
 BYTE   Gn4
 BYTE   W12
 BYTE   Ds4
 BYTE   W12
 BYTE   N20  Gn4
 BYTE   W18
// 019   ----------------------------------------
 BYTE   W06
 BYTE   N11
 BYTE   W18
 BYTE   N05  An4
 BYTE   W06
 BYTE   As4
 BYTE   W12
 BYTE   An4
 BYTE   W12
 BYTE   N42  Gn4
 BYTE   W42
// 020   ----------------------------------------
 BYTE   W06
 BYTE   N32  Gs4
 BYTE   W36
 BYTE   N05  Gn4
 BYTE   W12
 BYTE   Fn4
 BYTE   W12
 BYTE   Ds4
 BYTE   W12
 BYTE   N17  Dn4
 BYTE   W18
// 021   ----------------------------------------
 BYTE   N05  Ds4
 BYTE   W06
 BYTE   N17  Dn4
 BYTE   W24
 BYTE   N11  Gn4
 BYTE   W24
 BYTE   N32  Cn4
 BYTE   W42
// 022   ----------------------------------------
 BYTE   W96
// 023   ----------------------------------------
 BYTE   W54
 BYTE   VOICE   48
 BYTE   N17  Dn4
 BYTE   W18
 BYTE   N05  Cn4
 BYTE   W06
 BYTE   N06  Bn3
 BYTE   W18
// 024   ----------------------------------------
 BYTE   N05  Cn4
 BYTE   W06
 BYTE   N06  Dn4
 BYTE   W18
 BYTE   N05  Ds4
 BYTE   W06
 BYTE   N06  Fn4
 BYTE   W18
 BYTE   N05  Ds4
 BYTE   W06
 BYTE   N06  Dn4
 BYTE   W18
 BYTE   N05  Ds4
 BYTE   W06
 BYTE   N06  Dn4
 BYTE   W18
// 025   ----------------------------------------
 BYTE   N05  Cn4
 BYTE   W06
 BYTE   TIE  Bn3
 BYTE   W42
 BYTE   W72
// 026   ----------------------------------------
 BYTE   W24
 BYTE   EOT
 BYTE   W06
 BYTE   N11  Dn4
 BYTE   W18
 BYTE   N05  Cn4
 BYTE   W06
 BYTE   N06  Bn3
 BYTE   W18
 BYTE   N05  Cn4
 BYTE   W06
 BYTE   N06  Dn4
 BYTE   W18
// 027   ----------------------------------------
 BYTE   N05  Ds4
 BYTE   W06
 BYTE   N06  Fn4
 BYTE   W18
 BYTE   N05  Ds4
 BYTE   W06
 BYTE   N06  Gn4
 BYTE   W18
 BYTE   N05  Fn4
 BYTE   W06
 BYTE   N06  As4
 BYTE   W18
 BYTE   N05  Gs4
 BYTE   W06
 BYTE   TIE  Gn4
 BYTE   W42
// 028   ----------------------------------------
 BYTE   W72
 BYTE   W24
// 029   ----------------------------------------
 BYTE   EOT
 BYTE   W06
 BYTE   N11
 BYTE   W18
 BYTE   N05  Fn4
 BYTE   W06
 BYTE   N06  En4
 BYTE   W18
 BYTE   N05  Fn4
 BYTE   W06
 BYTE   N06  Gn4
 BYTE   W18
 BYTE   N05  Gs4
 BYTE   W06
 BYTE   N06  As4
 BYTE   W18
// 030   ----------------------------------------
 BYTE   N05  Gs4
 BYTE   W06
 BYTE   N06  Cn5
 BYTE   W18
 BYTE   N05  As4
 BYTE   W06
 BYTE   N06  Gs4
 BYTE   W18
 BYTE   N05  Gn4
 BYTE   W06
 BYTE   TIE  Gs4
 BYTE   W42
// 031   ----------------------------------------
 BYTE   W72
 BYTE   W24
// 032   ----------------------------------------
 BYTE   EOT
 BYTE   W06
 BYTE   VOICE   54
 BYTE   N11  Gn3
 BYTE   N11  Gn4
 BYTE   W12
 BYTE   Gn3
 BYTE   N11  Gn4
 BYTE   W24
 BYTE   Gn3
 BYTE   N11  Gn4
 BYTE   W06
 BYTE   W18
 BYTE   Gn3
 BYTE   N11  Gn4
 BYTE   W12
 BYTE   N20  Gn3
 BYTE   N20  Gn4
 BYTE   W42
// 033   ----------------------------------------
 BYTE   W72
 BYTE   W06
 BYTE   VOICE   58
 BYTE   N42  En1
 BYTE   W48
// 034   ----------------------------------------
 BYTE   N17  Gs1
 BYTE   W18
 BYTE   W06
 BYTE   Dn1
 BYTE   W24
 BYTE   Ds1
 BYTE   W24
 BYTE   As0
 BYTE   W24
// 035   ----------------------------------------
 BYTE   N42  Bn0
 BYTE   W18
 BYTE   W30
 BYTE   VOICE   48
 BYTE   TIE  Gn1  v048
 BYTE   W66
// 036   ----------------------------------------
 BYTE   W96
// 037   ----------------------------------------
 BYTE   EOT
 BYTE   W06
 BYTE   N17  Gn2  v076
 BYTE   W18
 BYTE   N05  An2
 BYTE   W06
 BYTE   N04  Gn2
 BYTE   W12
 BYTE   Fs2
 BYTE   W12
 BYTE   En2
 BYTE   W12
 BYTE   Cn2
 BYTE   W12
 BYTE   N20  En2
 BYTE   W18
// 038   ----------------------------------------
 BYTE   W06
 BYTE   N17
 BYTE   W18
 BYTE   N05  Fs2
 BYTE   W06
 BYTE   N04  Gn2
 BYTE   W12
 BYTE   Fs2
 BYTE   W12
 BYTE   N32  En2
 BYTE   W42
// 039   ----------------------------------------
 BYTE   W96
// 040   ----------------------------------------
 BYTE   W96
// 041   ----------------------------------------
 BYTE   W96
// 042   ----------------------------------------
 BYTE   W96
// 043   ----------------------------------------
 BYTE   W96
// 044   ----------------------------------------
 BYTE   W96
// 045   ----------------------------------------
 BYTE   W96
// 046   ----------------------------------------
 BYTE   W96
// 047   ----------------------------------------
 BYTE   W96
// 048   ----------------------------------------
 BYTE   W42
 BYTE   GoTo
  POIN2 Label_1_01026642
 BYTE   FINE

//**************** Track 3 (Midi-Chn.2) ****************//

SuperSmashBrosBrawlPorkysThemeMrGreen3339_003:
// 000   ----------------------------------------
 BYTE   KEYSH   SuperSmashBrosBrawlPorkysThemeMrGreen3339_key+0
Label_2_010268CA:
 BYTE   VOICE   58
 BYTE   VOL   65*SuperSmashBrosBrawlPorkysThemeMrGreen3339_mvl/mxv
 BYTE   PAN   c_v+0
 BYTE   W06
 BYTE   N42  An1  v076
 BYTE   W48
 BYTE   N17  Cs2
 BYTE   W24
 BYTE   Gn1
 BYTE   W18
// 001   ----------------------------------------
 BYTE   W06
 BYTE   Gs1
 BYTE   W24
 BYTE   Ds1
 BYTE   W24
 BYTE   N42  En1
 BYTE   W42
// 002   ----------------------------------------
 BYTE   W06
 BYTE   VOICE   73
 BYTE   N03  Dn4
 BYTE   W03
 BYTE   Cn4
 BYTE   W03
 BYTE   Dn4
 BYTE   W03
 BYTE   Cn4
 BYTE   W03
 BYTE   Dn4
 BYTE   W03
 BYTE   Cn4
 BYTE   W03
 BYTE   Dn4
 BYTE   W03
 BYTE   Cn4
 BYTE   W21
 BYTE   N03
 BYTE   W03
 BYTE   Dn4
 BYTE   W03
 BYTE   Cn4
 BYTE   W03
 BYTE   Dn4
 BYTE   W03
 BYTE   Cn4
 BYTE   W03
 BYTE   Dn4
 BYTE   W03
 BYTE   Cn4
 BYTE   W03
 BYTE   Dn4
 BYTE   W03
 BYTE   Cn4
 BYTE   W03
 BYTE   N02  Dn4
 BYTE   W21
// 003   ----------------------------------------
 BYTE   N03
 BYTE   W03
 BYTE   Cn4
 BYTE   W03
 BYTE   Dn4
 BYTE   W03
 BYTE   Cn4
 BYTE   W03
 BYTE   Dn4
 BYTE   W03
 BYTE   Cn4
 BYTE   W03
 BYTE   Dn4
 BYTE   W03
 BYTE   Cn4
 BYTE   W09
 BYTE   Dn4
 BYTE   W03
 BYTE   Cn4
 BYTE   W03
 BYTE   Dn4
 BYTE   W03
 BYTE   Cn4
 BYTE   W03
 BYTE   Dn4
 BYTE   W03
 BYTE   Cn4
 BYTE   W09
 BYTE   N03
 BYTE   W03
 BYTE   Dn4
 BYTE   W03
 BYTE   Cn4
 BYTE   W03
 BYTE   Dn4
 BYTE   W03
 BYTE   Cn4
 BYTE   W03
 BYTE   Dn4
 BYTE   W03
 BYTE   Cn4
 BYTE   W03
 BYTE   N02  Dn4
 BYTE   W21
// 004   ----------------------------------------
 BYTE   N03
 BYTE   W03
 BYTE   Cn4
 BYTE   W03
 BYTE   Dn4
 BYTE   W03
 BYTE   Cn4
 BYTE   W03
 BYTE   Dn4
 BYTE   W03
 BYTE   Cn4
 BYTE   W03
 BYTE   Dn4
 BYTE   W03
 BYTE   Cn4
 BYTE   W03
 BYTE   Dn4
 BYTE   W03
 BYTE   Cn4
 BYTE   W21
 BYTE   N03
 BYTE   W03
 BYTE   Dn4
 BYTE   W03
 BYTE   Cn4
 BYTE   W03
 BYTE   Dn4
 BYTE   W03
 BYTE   Cn4
 BYTE   W03
 BYTE   Dn4
 BYTE   W03
 BYTE   Cn4
 BYTE   W03
 BYTE   Dn4
 BYTE   W03
 BYTE   Cn4
 BYTE   W03
 BYTE   N02  Dn4
 BYTE   W21
// 005   ----------------------------------------
 BYTE   N03
 BYTE   W03
 BYTE   Cn4
 BYTE   W03
 BYTE   Dn4
 BYTE   W03
 BYTE   Cn4
 BYTE   W03
 BYTE   Dn4
 BYTE   W03
 BYTE   Cn4
 BYTE   W03
 BYTE   Dn4
 BYTE   W03
 BYTE   Cn4
 BYTE   W09
 BYTE   N03
 BYTE   W03
 BYTE   Dn4
 BYTE   W03
 BYTE   Cn4
 BYTE   W03
 BYTE   Dn4
 BYTE   W03
 BYTE   Cn4
 BYTE   W03
 BYTE   N02  Dn4
 BYTE   W48
 BYTE   W03
// 006   ----------------------------------------
 BYTE   VOICE   60
 BYTE   N05  En2  v060
 BYTE   W06
 BYTE   N17  An2
 BYTE   W24
 BYTE   Bn2
 BYTE   W24
 BYTE   N40  Cn3
 BYTE   W42
// 007   ----------------------------------------
Label_2_0102698D:
 BYTE   N05  An2  v060
 BYTE   W06
 BYTE   N17  Cn3
 BYTE   W24
 BYTE   Dn3
 BYTE   W24
 BYTE   N40  En3
 BYTE   W42
 BYTE   PEND 
 BYTE   PATT
  POIN2 Label_2_0102698D
// 008   ----------------------------------------
 BYTE   N05  Cn3  v060
 BYTE   W06
 BYTE   N17  En3
 BYTE   W24
 BYTE   Fn3
 BYTE   W24
 BYTE   N42  Gn3
 BYTE   W42
// 009   ----------------------------------------
 BYTE   W06
 BYTE   N11
 BYTE   W18
 BYTE   N05  An3
 BYTE   W06
 BYTE   Gn3
 BYTE   W12
 BYTE   Fs3
 BYTE   W12
 BYTE   En3
 BYTE   W12
 BYTE   Cn3
 BYTE   W12
 BYTE   N20  En3
 BYTE   W18
// 010   ----------------------------------------
 BYTE   W06
 BYTE   N11
 BYTE   W18
 BYTE   N05  Fs3
 BYTE   W06
 BYTE   Gn3
 BYTE   W12
 BYTE   Fs3
 BYTE   W12
 BYTE   N42  En3
 BYTE   W42
// 011   ----------------------------------------
 BYTE   W06
 BYTE   N32  Fn3
 BYTE   W36
 BYTE   N05  En3
 BYTE   W12
 BYTE   Dn3
 BYTE   W12
 BYTE   Cn3
 BYTE   W12
 BYTE   N17  Bn2
 BYTE   W18
// 012   ----------------------------------------
 BYTE   N05  Cn3
 BYTE   W06
 BYTE   N17  Bn2
 BYTE   W24
 BYTE   N11  En3
 BYTE   W24
 BYTE   N32  An2
 BYTE   W42
// 013   ----------------------------------------
 BYTE   VOICE   58
 BYTE   N05  Gs0
 BYTE   W06
 BYTE   N11  An0
 BYTE   W24
 BYTE   N08
 BYTE   W18
 BYTE   N05  Gs0
 BYTE   W06
 BYTE   N11  An0
 BYTE   W24
 BYTE   N08
 BYTE   W18
// 014   ----------------------------------------
 BYTE   N05  Gs0
 BYTE   W06
 BYTE   N11  An0
 BYTE   W24
 BYTE   Bn0
 BYTE   W24
 BYTE   N32  Cn1
 BYTE   W42
// 015   ----------------------------------------
 BYTE   VOICE   60
 BYTE   N05  Gn2
 BYTE   W06
 BYTE   N17  Cn3
 BYTE   W24
 BYTE   Dn3
 BYTE   W24
 BYTE   N40  Ds3
 BYTE   W42
// 016   ----------------------------------------
Label_2_01026A0D:
 BYTE   N05  Cn3  v060
 BYTE   W06
 BYTE   N17  Ds3
 BYTE   W24
 BYTE   Fn3
 BYTE   W24
 BYTE   N40  Gn3
 BYTE   W42
 BYTE   PEND 
 BYTE   PATT
  POIN2 Label_2_01026A0D
// 017   ----------------------------------------
 BYTE   N05  Ds3  v060
 BYTE   W06
 BYTE   N17  Gn3
 BYTE   W24
 BYTE   Gs3
 BYTE   W24
 BYTE   N42  As3
 BYTE   W42
// 018   ----------------------------------------
 BYTE   W06
 BYTE   N11
 BYTE   W18
 BYTE   N05  Cn4
 BYTE   W06
 BYTE   As3
 BYTE   W12
 BYTE   An3
 BYTE   W12
 BYTE   Gn3
 BYTE   W12
 BYTE   Ds3
 BYTE   W12
 BYTE   N20  Gn3
 BYTE   W18
// 019   ----------------------------------------
 BYTE   W06
 BYTE   N11
 BYTE   W18
 BYTE   N05  An3
 BYTE   W06
 BYTE   As3
 BYTE   W12
 BYTE   An3
 BYTE   W12
 BYTE   N42  Gn3
 BYTE   W42
// 020   ----------------------------------------
 BYTE   W06
 BYTE   N32  Gs3
 BYTE   W36
 BYTE   N05  Gn3
 BYTE   W12
 BYTE   Fn3
 BYTE   W12
 BYTE   Ds3
 BYTE   W12
 BYTE   N17  Dn3
 BYTE   W18
// 021   ----------------------------------------
 BYTE   N05  Ds3
 BYTE   W06
 BYTE   N17  Dn3
 BYTE   W24
 BYTE   N11  Gn3
 BYTE   W24
 BYTE   N32  Cn3
 BYTE   W42
// 022   ----------------------------------------
 BYTE   W96
// 023   ----------------------------------------
 BYTE   W54
 BYTE   VOICE   48
 BYTE   N09  Dn2
 BYTE   W36
 BYTE   Gs1
 BYTE   W06
// 024   ----------------------------------------
Label_2_01026A6C:
 BYTE   W30
 BYTE   N09  Fn1  v060
 BYTE   W36
 BYTE   Dn1
 BYTE   W06
 BYTE   PEND 
Label_2_01026A74:
 BYTE   W30
// 025   ----------------------------------------
 BYTE   N09  Gn1  v060
 BYTE   W36
 BYTE   Dn2
 BYTE   W06
 BYTE   PEND 
Label_2_01026A7C:
 BYTE   W30
 BYTE   N09  Bn1  v060
 BYTE   W36
// 026   ----------------------------------------
 BYTE   Gn1
 BYTE   W06
 BYTE   PEND 
 BYTE   W30
 BYTE   Dn2
 BYTE   W36
 BYTE   Gs1
 BYTE   W06
 BYTE   PATT
  POIN2 Label_2_01026A6C
 BYTE   PATT
  POIN2 Label_2_01026A74
 BYTE   PATT
  POIN2 Label_2_01026A7C
// 027   ----------------------------------------
 BYTE   W30
 BYTE   N09  Cn2  v060
 BYTE   W36
 BYTE   Gn1
 BYTE   W06
 BYTE   W30
// 028   ----------------------------------------
 BYTE   En1
 BYTE   W36
 BYTE   Cn1
 BYTE   W06
 BYTE   W30
 BYTE   Fn1
 BYTE   W36
// 029   ----------------------------------------
 BYTE   Cn2
 BYTE   W06
 BYTE   W30
 BYTE   Gs1
 BYTE   W36
 BYTE   Fn1
 BYTE   W06
 BYTE   W72
// 030   ----------------------------------------
 BYTE   W72
 BYTE   W06
 BYTE   VOICE   60
 BYTE   N11  Gs2  v048
 BYTE   W12
 BYTE   N05  Gn2
 BYTE   W12
// 031   ----------------------------------------
 BYTE   N20
 BYTE   W24
 BYTE   N11  Ds2
 BYTE   W12
 BYTE   Dn2
 BYTE   W06
 BYTE   W06
 BYTE   N42  Cn2
 BYTE   W48
// 032   ----------------------------------------
 BYTE   N17  En2
 BYTE   W18
 BYTE   W06
 BYTE   As1
 BYTE   W24
 BYTE   Bn1
 BYTE   W24
 BYTE   Fs1
 BYTE   W24
// 033   ----------------------------------------
 BYTE   N42  Gn1
 BYTE   W18
 BYTE   W96
// 034   ----------------------------------------
 BYTE   W96
// 035   ----------------------------------------
 BYTE   W06
 BYTE   VOICE   48
 BYTE   N17  Gn1  v060
 BYTE   W18
 BYTE   N05  An1
 BYTE   W06
 BYTE   N04  Gn1
 BYTE   W12
 BYTE   Fs1
 BYTE   W12
 BYTE   En1
 BYTE   W12
 BYTE   Cn1
 BYTE   W12
 BYTE   N20  En1
 BYTE   W18
// 036   ----------------------------------------
 BYTE   W06
 BYTE   N17
 BYTE   W18
 BYTE   N05  Fs1
 BYTE   W06
 BYTE   N04  Gn1
 BYTE   W12
 BYTE   Fs1
 BYTE   W12
 BYTE   N32  En1
 BYTE   W42
// 037   ----------------------------------------
 BYTE   W96
// 038   ----------------------------------------
 BYTE   W96
// 039   ----------------------------------------
 BYTE   W96
// 040   ----------------------------------------
 BYTE   W96
// 041   ----------------------------------------
 BYTE   W06
 BYTE   TIE  An1
 BYTE   W90
// 042   ----------------------------------------
 BYTE   W96
// 043   ----------------------------------------
 BYTE   EOT
 BYTE   W06
 BYTE   N90  Dn1  v076
 BYTE   W90
// 044   ----------------------------------------
 BYTE   W06
 BYTE   N20  En1
 BYTE   W24
 BYTE   N20
 BYTE   W24
 BYTE   TIE  An1
 BYTE   W42
// 045   ----------------------------------------
 BYTE   W96
// 046   ----------------------------------------
 BYTE   EOT
 BYTE   W42
 BYTE   GoTo
  POIN2 Label_2_010268CA
 BYTE   FINE

//**************** Track 4 (Midi-Chn.3) ****************//

SuperSmashBrosBrawlPorkysThemeMrGreen3339_004:
// 000   ----------------------------------------
 BYTE   KEYSH   SuperSmashBrosBrawlPorkysThemeMrGreen3339_key+0
Label_3_01026B1E:
 BYTE   VOICE   57
 BYTE   VOL   65*SuperSmashBrosBrawlPorkysThemeMrGreen3339_mvl/mxv
 BYTE   PAN   c_v+0
 BYTE   W06
 BYTE   N42  Cs3  v076
 BYTE   W48
 BYTE   N17  Fn3
 BYTE   W24
 BYTE   Bn2
 BYTE   W18
// 001   ----------------------------------------
 BYTE   W06
 BYTE   Cn3
 BYTE   W24
 BYTE   Gn2
 BYTE   W24
 BYTE   N42  Gs2
 BYTE   W42
// 002   ----------------------------------------
 BYTE   W96
// 003   ----------------------------------------
 BYTE   W96
// 004   ----------------------------------------
 BYTE   W96
// 005   ----------------------------------------
 BYTE   W96
// 006   ----------------------------------------
 BYTE   VOICE   48
 BYTE   N05  En1  v060
 BYTE   W06
 BYTE   N20  An1
 BYTE   W24
 BYTE   N17
 BYTE   W18
 BYTE   N05  Gs1
 BYTE   W06
 BYTE   N20  An1
 BYTE   W24
 BYTE   N17
 BYTE   W18
// 007   ----------------------------------------
Label_3_01026B4D:
 BYTE   N05  Gs1  v060
 BYTE   W06
 BYTE   N20  An1
 BYTE   W24
 BYTE   Bn1
 BYTE   W24
 BYTE   N40  Cn2
 BYTE   W42
 BYTE   PEND 
// 008   ----------------------------------------
Label_3_01026B5A:
 BYTE   N05  Gs1  v060
 BYTE   W06
 BYTE   N20  An1
 BYTE   W24
 BYTE   N17
 BYTE   W18
 BYTE   N05  Gs1
 BYTE   W06
 BYTE   N20  An1
 BYTE   W24
 BYTE   N17
 BYTE   W18
 BYTE   PEND 
// 009   ----------------------------------------
 BYTE   N05  Gs1
 BYTE   W06
 BYTE   N20  An1
 BYTE   W24
 BYTE   Bn1
 BYTE   W24
 BYTE   N40  En1
 BYTE   W42
 BYTE   PATT
  POIN2 Label_3_01026B5A
 BYTE   PATT
  POIN2 Label_3_01026B4D
// 010   ----------------------------------------
 BYTE   N05  Cs2  v076
 BYTE   W06
 BYTE   N32  Dn2
 BYTE   W36
 BYTE   N11  Cn2
 BYTE   W12
 BYTE   Bn1
 BYTE   W12
 BYTE   An1
 BYTE   W12
 BYTE   N17  Gs1
 BYTE   W18
// 011   ----------------------------------------
 BYTE   N05  An1
 BYTE   W06
 BYTE   N20  Gs1
 BYTE   W24
 BYTE   En2
 BYTE   W24
 BYTE   N32  An1
 BYTE   W42
// 012   ----------------------------------------
 BYTE   VOICE   60
 BYTE   N05  Gs1  v060
 BYTE   W06
 BYTE   N11  An1
 BYTE   W24
 BYTE   N08
 BYTE   W18
 BYTE   N05  Gs1
 BYTE   W06
 BYTE   N11  An1
 BYTE   W24
 BYTE   N08
 BYTE   W18
// 013   ----------------------------------------
 BYTE   N05  Gs1
 BYTE   W06
 BYTE   N11  An1
 BYTE   W24
 BYTE   Bn1
 BYTE   W24
 BYTE   N32  Cn2
 BYTE   W42
// 014   ----------------------------------------
 BYTE   VOICE   48
 BYTE   N05  Gn1
 BYTE   W06
 BYTE   N20  Cn2
 BYTE   W24
 BYTE   N17
 BYTE   W18
 BYTE   N05  Bn1
 BYTE   W06
 BYTE   N20  Cn2
 BYTE   W24
 BYTE   N17
 BYTE   W18
// 015   ----------------------------------------
Label_3_01026BCD:
 BYTE   N05  Bn1  v060
 BYTE   W06
 BYTE   N20  Cn2
 BYTE   W24
 BYTE   Dn2
 BYTE   W24
 BYTE   N40  Ds2
 BYTE   W42
 BYTE   PEND 
// 016   ----------------------------------------
 BYTE   N05  Gn1
 BYTE   W06
 BYTE   N20  Cn2
 BYTE   W24
 BYTE   N17
 BYTE   W18
 BYTE   N05  Bn1
 BYTE   W06
 BYTE   N20  Cn2
 BYTE   W24
 BYTE   N17
 BYTE   W18
// 017   ----------------------------------------
 BYTE   N05  Bn1
 BYTE   W06
 BYTE   N20  Cn2
 BYTE   W24
 BYTE   Dn2
 BYTE   W24
 BYTE   N40  Gn1
 BYTE   W42
// 018   ----------------------------------------
 BYTE   N05  Bn1
 BYTE   W06
 BYTE   N20  Cn2
 BYTE   W24
 BYTE   N17
 BYTE   W18
 BYTE   N05  Bn1
 BYTE   W06
 BYTE   N20  Cn2
 BYTE   W24
 BYTE   N17
 BYTE   W18
 BYTE   PATT
  POIN2 Label_3_01026BCD
// 019   ----------------------------------------
 BYTE   N05  En2  v076
 BYTE   W06
 BYTE   N32  Fn2
 BYTE   W36
 BYTE   N11  Ds2
 BYTE   W12
 BYTE   Dn2
 BYTE   W12
 BYTE   Cn2
 BYTE   W12
 BYTE   N17  Bn1
 BYTE   W18
// 020   ----------------------------------------
 BYTE   N05  Cn2
 BYTE   W06
 BYTE   N20  Bn1
 BYTE   W24
 BYTE   Gn2
 BYTE   W24
 BYTE   N32  Cn2
 BYTE   W42
// 021   ----------------------------------------
 BYTE   W96
// 022   ----------------------------------------
 BYTE   W54
 BYTE   VOICE   48
 BYTE   W12
 BYTE   N11  Fn2  v048
 BYTE   N11  Gs2
 BYTE   W12
 BYTE   Fn2
 BYTE   N11  Gs2
 BYTE   W18
// 023   ----------------------------------------
Label_3_01026C35:
 BYTE   W06
 BYTE   N11  Fn2  v048
 BYTE   N11  Gs2
 BYTE   W12
 BYTE   Fn2
 BYTE   N11  Gs2
 BYTE   W24
 BYTE   Fn2
 BYTE   N11  Gs2
 BYTE   W12
 BYTE   Fn2
 BYTE   N11  Gs2
 BYTE   W18
 BYTE   PEND 
Label_3_01026C49:
 BYTE   W06
 BYTE   N11  Fn2  v048
 BYTE   N11  Gs2
 BYTE   W12
 BYTE   Fn2
 BYTE   N11  Gs2
 BYTE   W24
// 024   ----------------------------------------
 BYTE   Dn2
 BYTE   N11  Gn2
 BYTE   W12
 BYTE   Dn2
 BYTE   N11  Gn2
 BYTE   W18
 BYTE   PEND 
Label_3_01026C5D:
 BYTE   W06
 BYTE   N11  Dn2  v048
 BYTE   N11  Gn2
 BYTE   W12
 BYTE   Dn2
 BYTE   N11  Gn2
 BYTE   W24
 BYTE   Dn2
 BYTE   N11  Gn2
 BYTE   W12
 BYTE   Dn2
 BYTE   N11  Gn2
 BYTE   W18
 BYTE   PEND 
// 025   ----------------------------------------
 BYTE   W06
 BYTE   Dn2
 BYTE   N11  Gn2
 BYTE   W12
 BYTE   Dn2
 BYTE   N11  Gn2
 BYTE   W24
 BYTE   Fn2
 BYTE   N11  Gs2
 BYTE   W12
 BYTE   Fn2
 BYTE   N11  Gs2
 BYTE   W18
 BYTE   PATT
  POIN2 Label_3_01026C35
 BYTE   PATT
  POIN2 Label_3_01026C49
 BYTE   PATT
  POIN2 Label_3_01026C5D
// 026   ----------------------------------------
 BYTE   W06
 BYTE   N11  Dn2  v048
 BYTE   N11  Gn2
 BYTE   W12
 BYTE   Dn2
 BYTE   N11  Gn2
 BYTE   W24
 BYTE   Cn2
 BYTE   N11  En2
 BYTE   W12
 BYTE   Cn2
 BYTE   N11  En2
 BYTE   W18
 BYTE   W06
 BYTE   Cn2
 BYTE   N11  En2
 BYTE   W12
 BYTE   Cn2
 BYTE   N11  En2
 BYTE   W24
// 027   ----------------------------------------
 BYTE   Cn2
 BYTE   N11  En2
 BYTE   W12
 BYTE   Cn2
 BYTE   N11  En2
 BYTE   W18
 BYTE   W06
 BYTE   Cn2
 BYTE   N11  En2
 BYTE   W12
 BYTE   Cn2
 BYTE   N11  En2
 BYTE   W24
 BYTE   Cn2
 BYTE   N11  Fn2
 BYTE   W12
 BYTE   Cn2
 BYTE   N11  Fn2
 BYTE   W18
// 028   ----------------------------------------
 BYTE   W06
 BYTE   Cn2
 BYTE   N11  Fn2
 BYTE   W12
 BYTE   Cn2
 BYTE   N11  Fn2
 BYTE   W24
 BYTE   Cn2
 BYTE   N11  Fn2
 BYTE   W12
 BYTE   Cn2
 BYTE   N11  Fn2
 BYTE   W18
 BYTE   W06
 BYTE   Cn2
 BYTE   N11  Fn2
 BYTE   W12
 BYTE   Cn2
 BYTE   N11  Fn2
 BYTE   W54
// 029   ----------------------------------------
 BYTE   W72
 BYTE   W06
 BYTE   VOICE   61
 BYTE   N11  En4  v076
 BYTE   W12
 BYTE   N05  Ds4
 BYTE   W12
// 030   ----------------------------------------
 BYTE   N20
 BYTE   W24
 BYTE   N11  Bn3
 BYTE   W12
 BYTE   As3
 BYTE   W06
 BYTE   W06
 BYTE   N42  Gs3
 BYTE   W48
// 031   ----------------------------------------
 BYTE   N17  Cn4
 BYTE   W18
 BYTE   W06
 BYTE   Fs3
 BYTE   W24
 BYTE   Gn3
 BYTE   W24
 BYTE   Dn3
 BYTE   W24
// 032   ----------------------------------------
 BYTE   N42  Ds3
 BYTE   W18
 BYTE   W96
// 033   ----------------------------------------
 BYTE   W96
// 034   ----------------------------------------
 BYTE   W96
// 035   ----------------------------------------
 BYTE   W90
 BYTE   VOICE   61
 BYTE   N11  En3
 BYTE   W06
// 036   ----------------------------------------
 BYTE   W06
 BYTE   N20  An3
 BYTE   W24
 BYTE   Bn3
 BYTE   W24
 BYTE   TIE  Cs4
 BYTE   W42
// 037   ----------------------------------------
 BYTE   W88
 BYTE   W01
 BYTE   EOT
 BYTE   W01
 BYTE   N11  An3
 BYTE   W06
// 038   ----------------------------------------
 BYTE   W06
 BYTE   N20  Cs4
 BYTE   W24
 BYTE   Dn4
 BYTE   W24
 BYTE   TIE  En4
 BYTE   W42
// 039   ----------------------------------------
 BYTE   W96
// 040   ----------------------------------------
 BYTE   EOT
 BYTE   W06
 BYTE   N17
 BYTE   W18
 BYTE   N05  Fs4
 BYTE   W06
 BYTE   En4
 BYTE   W12
 BYTE   Dn4
 BYTE   W12
 BYTE   Cs4
 BYTE   W12
 BYTE   An3
 BYTE   W12
 BYTE   N20  Cs4
 BYTE   W18
// 041   ----------------------------------------
 BYTE   W06
 BYTE   N17
 BYTE   W18
 BYTE   N05  Dn4
 BYTE   W06
 BYTE   En4
 BYTE   W12
 BYTE   Dn4
 BYTE   W12
 BYTE   N42  Cs4
 BYTE   W42
// 042   ----------------------------------------
 BYTE   W06
 BYTE   N32  Dn4
 BYTE   W36
 BYTE   N05  Cs4
 BYTE   W12
 BYTE   Bn3
 BYTE   W12
 BYTE   An3
 BYTE   W12
 BYTE   Gs3
 BYTE   W12
 BYTE   An3
 BYTE   W06
// 043   ----------------------------------------
 BYTE   W06
 BYTE   N20  Gs3
 BYTE   W24
 BYTE   En3
 BYTE   W24
 BYTE   TIE  An3
 BYTE   W42
// 044   ----------------------------------------
 BYTE   W96
// 045   ----------------------------------------
 BYTE   EOT
 BYTE   W42
 BYTE   GoTo
  POIN2 Label_3_01026B1E
 BYTE   FINE

//**************** Track 5 (Midi-Chn.4) ****************//

SuperSmashBrosBrawlPorkysThemeMrGreen3339_005:
// 000   ----------------------------------------
 BYTE   KEYSH   SuperSmashBrosBrawlPorkysThemeMrGreen3339_key+0
Label_4_01026D6A:
 BYTE   VOICE   60
 BYTE   VOL   65*SuperSmashBrosBrawlPorkysThemeMrGreen3339_mvl/mxv
 BYTE   PAN   c_v+0
 BYTE   W06
 BYTE   N42  Fn3  v060
 BYTE   W48
 BYTE   N17  An3
 BYTE   W24
 BYTE   Ds3
 BYTE   W18
// 001   ----------------------------------------
 BYTE   W06
 BYTE   En3
 BYTE   W24
 BYTE   Bn2
 BYTE   W24
 BYTE   N42  Cn3
 BYTE   W42
// 002   ----------------------------------------
 BYTE   W06
 BYTE   VOICE   48
 BYTE   N03  Dn4  v048
 BYTE   W03
 BYTE   Cn4
 BYTE   W03
 BYTE   Dn4
 BYTE   W03
 BYTE   Cn4
 BYTE   W03
 BYTE   Dn4
 BYTE   W03
 BYTE   Cn4
 BYTE   W03
 BYTE   Dn4
 BYTE   W03
 BYTE   Cn4
 BYTE   W21
 BYTE   N03
 BYTE   W03
 BYTE   Dn4
 BYTE   W03
 BYTE   Cn4
 BYTE   W03
 BYTE   Dn4
 BYTE   W03
 BYTE   Cn4
 BYTE   W03
 BYTE   Dn4
 BYTE   W03
 BYTE   Cn4
 BYTE   W03
 BYTE   Dn4
 BYTE   W03
 BYTE   Cn4
 BYTE   W03
 BYTE   N02  Dn4
 BYTE   W21
// 003   ----------------------------------------
 BYTE   N03
 BYTE   W03
 BYTE   Cn4
 BYTE   W03
 BYTE   Dn4
 BYTE   W03
 BYTE   Cn4
 BYTE   W03
 BYTE   Dn4
 BYTE   W03
 BYTE   Cn4
 BYTE   W03
 BYTE   Dn4
 BYTE   W03
 BYTE   Cn4
 BYTE   W09
 BYTE   Dn4
 BYTE   W03
 BYTE   Cn4
 BYTE   W03
 BYTE   Dn4
 BYTE   W03
 BYTE   Cn4
 BYTE   W03
 BYTE   Dn4
 BYTE   W03
 BYTE   Cn4
 BYTE   W09
 BYTE   N03
 BYTE   W03
 BYTE   Dn4
 BYTE   W03
 BYTE   Cn4
 BYTE   W03
 BYTE   Dn4
 BYTE   W03
 BYTE   Cn4
 BYTE   W03
 BYTE   Dn4
 BYTE   W03
 BYTE   Cn4
 BYTE   W03
 BYTE   N02  Dn4
 BYTE   W21
// 004   ----------------------------------------
 BYTE   N03
 BYTE   W03
 BYTE   Cn4
 BYTE   W03
 BYTE   Dn4
 BYTE   W03
 BYTE   Cn4
 BYTE   W03
 BYTE   Dn4
 BYTE   W03
 BYTE   Cn4
 BYTE   W03
 BYTE   Dn4
 BYTE   W03
 BYTE   Cn4
 BYTE   W03
 BYTE   Dn4
 BYTE   W03
 BYTE   Cn4
 BYTE   W21
 BYTE   N03
 BYTE   W03
 BYTE   Dn4
 BYTE   W03
 BYTE   Cn4
 BYTE   W03
 BYTE   Dn4
 BYTE   W03
 BYTE   Cn4
 BYTE   W03
 BYTE   Dn4
 BYTE   W03
 BYTE   Cn4
 BYTE   W03
 BYTE   Dn4
 BYTE   W03
 BYTE   Cn4
 BYTE   W03
 BYTE   N02  Dn4
 BYTE   W21
// 005   ----------------------------------------
 BYTE   N03
 BYTE   W03
 BYTE   Cn4
 BYTE   W03
 BYTE   Dn4
 BYTE   W03
 BYTE   Cn4
 BYTE   W03
 BYTE   Dn4
 BYTE   W03
 BYTE   Cn4
 BYTE   W03
 BYTE   Dn4
 BYTE   W03
 BYTE   Cn4
 BYTE   W09
 BYTE   N03
 BYTE   W03
 BYTE   Dn4
 BYTE   W03
 BYTE   Cn4
 BYTE   W03
 BYTE   Dn4
 BYTE   W03
 BYTE   Cn4
 BYTE   W03
 BYTE   N02  Dn4
 BYTE   W48
 BYTE   W03
// 006   ----------------------------------------
 BYTE   W96
// 007   ----------------------------------------
 BYTE   W96
// 008   ----------------------------------------
 BYTE   W96
// 009   ----------------------------------------
 BYTE   W96
// 010   ----------------------------------------
 BYTE   W96
// 011   ----------------------------------------
 BYTE   W96
// 012   ----------------------------------------
 BYTE   W96
// 013   ----------------------------------------
 BYTE   W96
// 014   ----------------------------------------
 BYTE   W96
// 015   ----------------------------------------
 BYTE   W96
// 016   ----------------------------------------
 BYTE   W06
 BYTE   VOICE   58
 BYTE   TIE  Cn2  v076
 BYTE   W90
// 017   ----------------------------------------
 BYTE   W96
// 018   ----------------------------------------
 BYTE   EOT
 BYTE   W96
// 019   ----------------------------------------
 BYTE   W96
// 020   ----------------------------------------
 BYTE   W96
// 021   ----------------------------------------
 BYTE   W96
// 022   ----------------------------------------
 BYTE   W96
// 023   ----------------------------------------
 BYTE   W54
 BYTE   VOICE   54
 BYTE   N20  Cn3
 BYTE   N20  Cn4
 BYTE   W24
 BYTE   Dn3
 BYTE   N20  Dn4
 BYTE   W18
// 024   ----------------------------------------
 BYTE   W06
 BYTE   Ds3
 BYTE   N20  Ds4
 BYTE   W36
 BYTE   N11  Cn3
 BYTE   N11  Cn4
 BYTE   W12
 BYTE   N20  Ds3
 BYTE   N20  Ds4
 BYTE   W24
 BYTE   Fn3
 BYTE   N20  Fn4
 BYTE   W18
// 025   ----------------------------------------
 BYTE   W06
 BYTE   Gn3
 BYTE   N20  Gn4
 BYTE   W90
// 026   ----------------------------------------
 BYTE   W72
 BYTE   W72
// 027   ----------------------------------------
 BYTE   W06
 BYTE   VOICE   61
 BYTE   N06  Gn3
 BYTE   W18
 BYTE   N05  Dn4
 BYTE   W06
 BYTE   N66
 BYTE   W42
 BYTE   W72
// 028   ----------------------------------------
 BYTE   W72
 BYTE   W72
// 029   ----------------------------------------
 BYTE   W06
 BYTE   N06
 BYTE   W18
 BYTE   N05  Gn4
 BYTE   W06
 BYTE   N66
 BYTE   W42
 BYTE   W72
// 030   ----------------------------------------
 BYTE   W72
 BYTE   W72
// 031   ----------------------------------------
 BYTE   W06
 BYTE   N06  Fn4
 BYTE   W18
 BYTE   N05  Cn5
 BYTE   W06
 BYTE   N02
 BYTE   W03
 BYTE   Dn5
 BYTE   W03
 BYTE   Cn5
 BYTE   W03
 BYTE   Dn5
 BYTE   W03
 BYTE   Cn5
 BYTE   W03
 BYTE   Dn5
 BYTE   W03
 BYTE   Cn5
 BYTE   W03
 BYTE   Dn5
 BYTE   W03
 BYTE   Cn5
 BYTE   W03
 BYTE   Dn5
 BYTE   W03
 BYTE   Cn5
 BYTE   W03
 BYTE   Dn5
 BYTE   W03
 BYTE   Cn5
 BYTE   W03
 BYTE   Dn5
 BYTE   W03
 BYTE   Cn5
 BYTE   W03
 BYTE   Dn5
 BYTE   W03
 BYTE   Cn5
 BYTE   W03
 BYTE   Dn5
 BYTE   W03
 BYTE   Cn5
 BYTE   W03
 BYTE   Dn5
 BYTE   W03
 BYTE   Cn5
 BYTE   W03
 BYTE   Dn5
 BYTE   W03
// 032   ----------------------------------------
 BYTE   Cn5
 BYTE   W03
 BYTE   Dn5
 BYTE   W44
 BYTE   W01
 BYTE   W72
// 033   ----------------------------------------
 BYTE   W06
 BYTE   VOICE   61
 BYTE   N11  Gs4
 BYTE   W12
 BYTE   N05  Gn4
 BYTE   W12
 BYTE   N20
 BYTE   W24
 BYTE   N11  Ds4
 BYTE   W12
 BYTE   Dn4
 BYTE   W06
 BYTE   W06
 BYTE   N42  Cn4
 BYTE   W48
// 034   ----------------------------------------
 BYTE   N17  En4
 BYTE   W18
 BYTE   W06
 BYTE   As3
 BYTE   W24
 BYTE   Bn3
 BYTE   W24
 BYTE   Fs3
 BYTE   W24
// 035   ----------------------------------------
 BYTE   N42  Gn3
 BYTE   W18
 BYTE   W96
// 036   ----------------------------------------
 BYTE   W96
// 037   ----------------------------------------
 BYTE   W96
// 038   ----------------------------------------
 BYTE   W90
 BYTE   VOICE   60
 BYTE   N11  En2  v060
 BYTE   W06
// 039   ----------------------------------------
 BYTE   W06
 BYTE   N20  An2
 BYTE   W24
 BYTE   Bn2
 BYTE   W24
 BYTE   TIE  Cs3
 BYTE   W42
// 040   ----------------------------------------
 BYTE   W88
 BYTE   W01
 BYTE   EOT
 BYTE   W01
 BYTE   N11  An2
 BYTE   W06
// 041   ----------------------------------------
 BYTE   W06
 BYTE   N20  Cs3
 BYTE   W24
 BYTE   Dn3
 BYTE   W24
 BYTE   TIE  En3
 BYTE   W42
// 042   ----------------------------------------
 BYTE   W96
// 043   ----------------------------------------
 BYTE   EOT
 BYTE   W06
 BYTE   N17
 BYTE   W18
 BYTE   N05  Fs3
 BYTE   W06
 BYTE   En3
 BYTE   W12
 BYTE   Dn3
 BYTE   W12
 BYTE   Cs3
 BYTE   W12
 BYTE   An2
 BYTE   W12
 BYTE   N20  Cs3
 BYTE   W18
// 044   ----------------------------------------
 BYTE   W06
 BYTE   N17
 BYTE   W18
 BYTE   N05  Dn3
 BYTE   W06
 BYTE   En3
 BYTE   W12
 BYTE   Dn3
 BYTE   W12
 BYTE   N42  Cs3
 BYTE   W42
// 045   ----------------------------------------
 BYTE   W06
 BYTE   N32  Dn3
 BYTE   W36
 BYTE   N05  Cs3
 BYTE   W12
 BYTE   Bn2
 BYTE   W12
 BYTE   An2
 BYTE   W12
 BYTE   Gs2
 BYTE   W12
 BYTE   An2
 BYTE   W06
// 046   ----------------------------------------
 BYTE   W06
 BYTE   N20  Gs2
 BYTE   W24
 BYTE   En2
 BYTE   W24
 BYTE   TIE  An2
 BYTE   W42
// 047   ----------------------------------------
 BYTE   W96
// 048   ----------------------------------------
 BYTE   EOT
 BYTE   W42
 BYTE   GoTo
  POIN2 Label_4_01026D6A
 BYTE   FINE

//**************** Track 6 (Midi-Chn.5) ****************//

SuperSmashBrosBrawlPorkysThemeMrGreen3339_006:
// 000   ----------------------------------------
 BYTE   KEYSH   SuperSmashBrosBrawlPorkysThemeMrGreen3339_key+0
Label_5_01026F3A:
 BYTE   VOICE   48
 BYTE   VOL   65*SuperSmashBrosBrawlPorkysThemeMrGreen3339_mvl/mxv
 BYTE   PAN   c_v+0
 BYTE   W96
// 001   ----------------------------------------
 BYTE   W96
// 002   ----------------------------------------
 BYTE   W06
 BYTE   N03  As4  v048
 BYTE   W03
 BYTE   Gs4
 BYTE   W03
 BYTE   As4
 BYTE   W03
 BYTE   Gs4
 BYTE   W03
 BYTE   As4
 BYTE   W03
 BYTE   Gs4
 BYTE   W03
 BYTE   As4
 BYTE   W03
 BYTE   Gs4
 BYTE   W21
 BYTE   N03
 BYTE   W03
 BYTE   As4
 BYTE   W03
 BYTE   Gs4
 BYTE   W03
 BYTE   As4
 BYTE   W03
 BYTE   Gs4
 BYTE   W03
 BYTE   As4
 BYTE   W03
 BYTE   Gs4
 BYTE   W03
 BYTE   As4
 BYTE   W03
 BYTE   Gs4
 BYTE   W03
 BYTE   N02  As4
 BYTE   W21
// 003   ----------------------------------------
 BYTE   N03
 BYTE   W03
 BYTE   Gs4
 BYTE   W03
 BYTE   As4
 BYTE   W03
 BYTE   Gs4
 BYTE   W03
 BYTE   As4
 BYTE   W03
 BYTE   Gs4
 BYTE   W03
 BYTE   As4
 BYTE   W03
 BYTE   Gs4
 BYTE   W09
 BYTE   As4
 BYTE   W03
 BYTE   Gs4
 BYTE   W03
 BYTE   As4
 BYTE   W03
 BYTE   Gs4
 BYTE   W03
 BYTE   As4
 BYTE   W03
 BYTE   Gs4
 BYTE   W09
 BYTE   N03
 BYTE   W03
 BYTE   As4
 BYTE   W03
 BYTE   Gs4
 BYTE   W03
 BYTE   As4
 BYTE   W03
 BYTE   Gs4
 BYTE   W03
 BYTE   As4
 BYTE   W03
 BYTE   Gs4
 BYTE   W03
 BYTE   N02  As4
 BYTE   W21
// 004   ----------------------------------------
 BYTE   N03
 BYTE   W03
 BYTE   Gs4
 BYTE   W03
 BYTE   As4
 BYTE   W03
 BYTE   Gs4
 BYTE   W03
 BYTE   As4
 BYTE   W03
 BYTE   Gs4
 BYTE   W03
 BYTE   As4
 BYTE   W03
 BYTE   Gs4
 BYTE   W03
 BYTE   As4
 BYTE   W03
 BYTE   Gs4
 BYTE   W21
 BYTE   N03
 BYTE   W03
 BYTE   As4
 BYTE   W03
 BYTE   Gs4
 BYTE   W03
 BYTE   As4
 BYTE   W03
 BYTE   Gs4
 BYTE   W03
 BYTE   As4
 BYTE   W03
 BYTE   Gs4
 BYTE   W03
 BYTE   As4
 BYTE   W03
 BYTE   Gs4
 BYTE   W03
 BYTE   N02  As4
 BYTE   W21
// 005   ----------------------------------------
 BYTE   N03
 BYTE   W03
 BYTE   Gs4
 BYTE   W03
 BYTE   As4
 BYTE   W03
 BYTE   Gs4
 BYTE   W03
 BYTE   As4
 BYTE   W03
 BYTE   Gs4
 BYTE   W03
 BYTE   As4
 BYTE   W03
 BYTE   Gs4
 BYTE   W09
 BYTE   N03
 BYTE   W03
 BYTE   As4
 BYTE   W03
 BYTE   Gs4
 BYTE   W03
 BYTE   As4
 BYTE   W03
 BYTE   Gs4
 BYTE   W03
 BYTE   N02  As4
 BYTE   W48
 BYTE   W03
// 006   ----------------------------------------
 BYTE   W96
// 007   ----------------------------------------
 BYTE   W96
// 008   ----------------------------------------
 BYTE   W96
// 009   ----------------------------------------
 BYTE   W96
// 010   ----------------------------------------
 BYTE   W96
// 011   ----------------------------------------
 BYTE   W96
// 012   ----------------------------------------
 BYTE   W96
// 013   ----------------------------------------
 BYTE   W96
// 014   ----------------------------------------
 BYTE   W96
// 015   ----------------------------------------
 BYTE   W96
// 016   ----------------------------------------
 BYTE   W96
// 017   ----------------------------------------
 BYTE   W96
// 018   ----------------------------------------
 BYTE   VOICE   60
 BYTE   N05  Gn2  v060
 BYTE   W06
 BYTE   N17  Cn3
 BYTE   W24
 BYTE   Dn3
 BYTE   W24
 BYTE   N40  Ds3
 BYTE   W42
// 019   ----------------------------------------
 BYTE   N05  Cn3
 BYTE   W06
 BYTE   N17  Ds3
 BYTE   W24
 BYTE   Fn3
 BYTE   W24
 BYTE   N42  Gn3
 BYTE   W42
// 020   ----------------------------------------
 BYTE   W06
 BYTE   N11
 BYTE   W18
 BYTE   N05  An3
 BYTE   W06
 BYTE   Gn3
 BYTE   W12
 BYTE   Fn3
 BYTE   W12
 BYTE   Ds3
 BYTE   W12
 BYTE   Cn3
 BYTE   W12
 BYTE   N20  Ds3
 BYTE   W18
// 021   ----------------------------------------
 BYTE   W06
 BYTE   N11
 BYTE   W18
 BYTE   N05  Fn3
 BYTE   W06
 BYTE   Gn3
 BYTE   W12
 BYTE   Fn3
 BYTE   W12
 BYTE   N42  Ds3
 BYTE   W42
// 022   ----------------------------------------
 BYTE   W06
 BYTE   N32  Fn3
 BYTE   W36
 BYTE   N05  Ds3
 BYTE   W12
 BYTE   Dn3
 BYTE   W12
 BYTE   Cn3
 BYTE   W12
 BYTE   N17  Bn2
 BYTE   W18
// 023   ----------------------------------------
 BYTE   N05  Cn3
 BYTE   W06
 BYTE   N17  Bn2
 BYTE   W24
 BYTE   N11  Dn3
 BYTE   W24
 BYTE   N32  Cn3
 BYTE   W42
// 024   ----------------------------------------
 BYTE   W96
// 025   ----------------------------------------
 BYTE   W96
// 026   ----------------------------------------
 BYTE   W72
 BYTE   W72
// 027   ----------------------------------------
 BYTE   W06
 BYTE   VOICE   60
 BYTE   N06  Gn2  v076
 BYTE   W18
 BYTE   N05  Dn3
 BYTE   W06
 BYTE   N66
 BYTE   W42
 BYTE   W72
// 028   ----------------------------------------
 BYTE   W72
 BYTE   W72
// 029   ----------------------------------------
 BYTE   W06
 BYTE   N06
 BYTE   W18
 BYTE   N05  Gn3
 BYTE   W06
 BYTE   N66
 BYTE   W42
 BYTE   W72
// 030   ----------------------------------------
 BYTE   W72
 BYTE   W72
// 031   ----------------------------------------
 BYTE   W06
 BYTE   N06  Fn3
 BYTE   W18
 BYTE   N05  Cn4
 BYTE   W48
 BYTE   W72
// 032   ----------------------------------------
 BYTE   W72
 BYTE   W72
// 033   ----------------------------------------
 BYTE   W72
 BYTE   W96
// 034   ----------------------------------------
 BYTE   W96
// 035   ----------------------------------------
 BYTE   W96
// 036   ----------------------------------------
 BYTE   W96
// 037   ----------------------------------------
 BYTE   W96
// 038   ----------------------------------------
 BYTE   W06
 BYTE   VOICE   60
 BYTE   TIE  An2  v060
 BYTE   TIE  En3
 BYTE   W90
// 039   ----------------------------------------
 BYTE   W96
// 040   ----------------------------------------
 BYTE   EOT
 BYTE   An2  v064
 BYTE   W06
 BYTE   TIE  An2
 BYTE   TIE  En3
 BYTE   W90
// 041   ----------------------------------------
 BYTE   W88
 BYTE   W01
 BYTE   EOT
 BYTE   An2  v064
 BYTE   W01
 BYTE   N04
 BYTE   N04  An3
 BYTE   W06
// 042   ----------------------------------------
Label_5_01027086:
 BYTE   N04  En3  v060
 BYTE   N04  An3
 BYTE   W06
 BYTE   N80  En3
 BYTE   N80  An3
 BYTE   W84
 BYTE   N04  En3
 BYTE   N04  An3
 BYTE   W06
 BYTE   PEND 
 BYTE   PATT
  POIN2 Label_5_01027086
// 043   ----------------------------------------
 BYTE   W06
 BYTE   N88  An2  v076
 BYTE   N88  Dn3
 BYTE   W90
// 044   ----------------------------------------
 BYTE   N05  An2
 BYTE   N05  Dn3
 BYTE   W06
 BYTE   N42  Bn2
 BYTE   N42  En3
 BYTE   W48
 BYTE   TIE  An2
 BYTE   TIE  En3
 BYTE   W42
// 045   ----------------------------------------
 BYTE   W96
// 046   ----------------------------------------
 BYTE   EOT
 BYTE   An2  v064
 BYTE   W42
 BYTE   GoTo
  POIN2 Label_5_01026F3A
 BYTE   FINE

//**************** Track 7 (Midi-Chn.6) ****************//

SuperSmashBrosBrawlPorkysThemeMrGreen3339_007:
// 000   ----------------------------------------
 BYTE   KEYSH   SuperSmashBrosBrawlPorkysThemeMrGreen3339_key+0
Label_6_010270C2:
 BYTE   VOICE   127
 BYTE   VOL   65*SuperSmashBrosBrawlPorkysThemeMrGreen3339_mvl/mxv
 BYTE   PAN   c_v+0
 BYTE   W06
 BYTE   N90  Cs2  v092
 BYTE   N90  En2
 BYTE   W90
// 001   ----------------------------------------
 BYTE   W96
// 002   ----------------------------------------
Label_6_010270D0:
 BYTE   W06
 BYTE   N20  Cs2  v048
 BYTE   W42
 BYTE   N05
 BYTE   W06
 BYTE   N20
 BYTE   W42
 BYTE   PEND 
// 003   ----------------------------------------
Label_6_010270DA:
 BYTE   N05  Cs2  v048
 BYTE   W06
 BYTE   N20
 BYTE   W24
 BYTE   N20
 BYTE   W24
 BYTE   N20
 BYTE   W42
 BYTE   PEND 
// 004   ----------------------------------------
 BYTE   N05
 BYTE   W06
 BYTE   N20
 BYTE   W42
 BYTE   N05
 BYTE   W06
 BYTE   N20
 BYTE   W42
// 005   ----------------------------------------
 BYTE   N05
 BYTE   W06
 BYTE   N20
 BYTE   W24
 BYTE   N20
 BYTE   W66
// 006   ----------------------------------------
Label_6_010270F3:
 BYTE   W06
 BYTE   N90  Cs2  v092
 BYTE   N90  En2
 BYTE   W90
 BYTE   PEND 
// 007   ----------------------------------------
 BYTE   W96
// 008   ----------------------------------------
 BYTE   W96
// 009   ----------------------------------------
 BYTE   W96
 BYTE   PATT
  POIN2 Label_6_010270F3
// 010   ----------------------------------------
 BYTE   W96
// 011   ----------------------------------------
 BYTE   W96
// 012   ----------------------------------------
 BYTE   W30
 BYTE   N20  Cs2  v092
 BYTE   W24
 BYTE   N20
 BYTE   N20  En2
 BYTE   W42
 BYTE   PATT
  POIN2 Label_6_010270D0
 BYTE   PATT
  POIN2 Label_6_010270DA
 BYTE   PATT
  POIN2 Label_6_010270F3
// 013   ----------------------------------------
 BYTE   W96
// 014   ----------------------------------------
 BYTE   W96
// 015   ----------------------------------------
 BYTE   W96
// 016   ----------------------------------------
 BYTE   W96
// 017   ----------------------------------------
 BYTE   W96
// 018   ----------------------------------------
 BYTE   W96
// 019   ----------------------------------------
 BYTE   W30
 BYTE   N20  Cs2  v060
 BYTE   W24
 BYTE   N20
 BYTE   W24
 BYTE   N20
 BYTE   W18
// 020   ----------------------------------------
 BYTE   W06
 BYTE   N20
 BYTE   W36
 BYTE   N11
 BYTE   W36
 BYTE   N20
 BYTE   W18
// 021   ----------------------------------------
 BYTE   W06
 BYTE   N20
 BYTE   W90
// 022   ----------------------------------------
 BYTE   W72
 BYTE   W72
// 023   ----------------------------------------
 BYTE   W72
 BYTE   W30
// 024   ----------------------------------------
 BYTE   N66
 BYTE   W42
 BYTE   W72
// 025   ----------------------------------------
 BYTE   W72
 BYTE   W72
// 026   ----------------------------------------
Label_6_0102713F:
 BYTE   W30
 BYTE   N66  Cs2  v092
 BYTE   N66  En2
 BYTE   W42
 BYTE   PEND 
 BYTE   W72
// 027   ----------------------------------------
 BYTE   W72
 BYTE   W72
 BYTE   PATT
  POIN2 Label_6_0102713F
// 028   ----------------------------------------
 BYTE   W72
 BYTE   W72
// 029   ----------------------------------------
 BYTE   W06
 BYTE   N90  Cs2  v092
 BYTE   N90  En2
 BYTE   W66
 BYTE   W96
// 030   ----------------------------------------
 BYTE   W30
 BYTE   Cs2
 BYTE   N90  En2
 BYTE   W66
// 031   ----------------------------------------
 BYTE   W96
 BYTE   PATT
  POIN2 Label_6_010270F3
// 032   ----------------------------------------
 BYTE   W96
// 033   ----------------------------------------
Label_6_01027165:
 BYTE   W06
 BYTE   N90  Cs2  v076
 BYTE   N90  En2
 BYTE   W90
 BYTE   PEND 
// 034   ----------------------------------------
 BYTE   W96
 BYTE   PATT
  POIN2 Label_6_01027165
// 035   ----------------------------------------
 BYTE   W96
// 036   ----------------------------------------
 BYTE   W96
// 037   ----------------------------------------
 BYTE   W96
// 038   ----------------------------------------
 BYTE   W06
 BYTE   N42  Cs2  v076
 BYTE   N42  En2
 BYTE   W48
 BYTE   N40  Cs2
 BYTE   N40  En2
 BYTE   W42
// 039   ----------------------------------------
 BYTE   N05  Cs2
 BYTE   N05  En2
 BYTE   W06
 BYTE   N20  Cs2
 BYTE   N20  En2
 BYTE   W24
 BYTE   Cs2
 BYTE   N20  En2
 BYTE   W24
 BYTE   N90  Cs2
 BYTE   N90  En2
 BYTE   W42
// 040   ----------------------------------------
 BYTE   W90
 BYTE   N03  Cs2
 BYTE   N03  En2
 BYTE   W04
 BYTE   Cs2
 BYTE   N03  En2
 BYTE   W02
// 041   ----------------------------------------
 BYTE   W02
 BYTE   Cs2
 BYTE   N03  En2
 BYTE   W40
 BYTE   GoTo
  POIN2 Label_6_010270C2
 BYTE   FINE

//**************** Track 8 (Midi-Chn.7) ****************//

SuperSmashBrosBrawlPorkysThemeMrGreen3339_008:
// 000   ----------------------------------------
 BYTE   KEYSH   SuperSmashBrosBrawlPorkysThemeMrGreen3339_key+0
Label_7_010271AE:
 BYTE   VOICE   127
 BYTE   VOL   65*SuperSmashBrosBrawlPorkysThemeMrGreen3339_mvl/mxv
 BYTE   PAN   c_v+0
 BYTE   W06
 BYTE   N20  En1  v048
 BYTE   W48
 BYTE   N20
 BYTE   W42
// 001   ----------------------------------------
 BYTE   N05
 BYTE   W06
 BYTE   N20
 BYTE   W24
 BYTE   N20
 BYTE   W24
 BYTE   N20
 BYTE   W42
// 002   ----------------------------------------
 BYTE   W96
// 003   ----------------------------------------
 BYTE   W96
// 004   ----------------------------------------
 BYTE   W96
// 005   ----------------------------------------
 BYTE   W54
 BYTE   N05
 BYTE   W06
 BYTE   N05
 BYTE   W06
 BYTE   N05
 BYTE   W06
 BYTE   N05
 BYTE   W06
 BYTE   N05
 BYTE   W06
 BYTE   N05
 BYTE   W06
 BYTE   N05
 BYTE   W06
// 006   ----------------------------------------
 BYTE   N05
 BYTE   W06
 BYTE   N11
 BYTE   W12
 BYTE   N05
 BYTE   W06
 BYTE   N05
 BYTE   W06
 BYTE   N05
 BYTE   W06
 BYTE   N05
 BYTE   W06
 BYTE   N05
 BYTE   W06
 BYTE   N05
 BYTE   W06
 BYTE   N11
 BYTE   W12
 BYTE   N05
 BYTE   W06
 BYTE   N05
 BYTE   W06
 BYTE   N05
 BYTE   W06
 BYTE   N05
 BYTE   W06
 BYTE   N05
 BYTE   W06
// 007   ----------------------------------------
Label_7_010271F1:
 BYTE   N05  En1  v048
 BYTE   W06
 BYTE   N11
 BYTE   W12
 BYTE   N05
 BYTE   W06
 BYTE   N05
 BYTE   W06
 BYTE   N11
 BYTE   W12
 BYTE   N05
 BYTE   W06
 BYTE   N05
 BYTE   W06
 BYTE   N11
 BYTE   W12
 BYTE   N11
 BYTE   W12
 BYTE   N03
 BYTE   W04
 BYTE   N03
 BYTE   W04
 BYTE   N03
 BYTE   W04
 BYTE   N03
 BYTE   W04
 BYTE   N03
 BYTE   W02
 BYTE   PEND 
// 008   ----------------------------------------
Label_7_01027210:
 BYTE   W02
 BYTE   N03  En1  v048
 BYTE   W04
 BYTE   N11
 BYTE   W12
 BYTE   N05
 BYTE   W06
 BYTE   N05
 BYTE   W06
 BYTE   N11
 BYTE   W12
 BYTE   N05
 BYTE   W06
 BYTE   N05
 BYTE   W06
 BYTE   N11
 BYTE   W12
 BYTE   N05
 BYTE   W06
 BYTE   N05
 BYTE   W06
 BYTE   N05
 BYTE   W06
 BYTE   N05
 BYTE   W06
 BYTE   N05
 BYTE   W06
 BYTE   PEND 
// 009   ----------------------------------------
Label_7_0102722E:
 BYTE   N05  En1  v048
 BYTE   W06
 BYTE   N11
 BYTE   W12
 BYTE   N05
 BYTE   W06
 BYTE   N05
 BYTE   W06
 BYTE   N11
 BYTE   W12
 BYTE   N05
 BYTE   W06
 BYTE   N05
 BYTE   W06
 BYTE   N03
 BYTE   W04
 BYTE   N03
 BYTE   W04
 BYTE   N03
 BYTE   W04
 BYTE   N03
 BYTE   W04
 BYTE   N03
 BYTE   W04
 BYTE   N03
 BYTE   W04
 BYTE   N03
 BYTE   W04
 BYTE   N03
 BYTE   W04
 BYTE   N03
 BYTE   W04
 BYTE   N03
 BYTE   W04
 BYTE   N03
 BYTE   W02
 BYTE   PEND 
// 010   ----------------------------------------
 BYTE   W02
 BYTE   N03
 BYTE   W04
 BYTE   N17
 BYTE   W18
 BYTE   N05
 BYTE   W06
 BYTE   N11
 BYTE   W12
 BYTE   N11
 BYTE   W12
 BYTE   N11
 BYTE   W12
 BYTE   N11
 BYTE   W12
 BYTE   N03
 BYTE   W04
 BYTE   N03
 BYTE   W04
 BYTE   N03
 BYTE   W04
 BYTE   N03
 BYTE   W04
 BYTE   N03
 BYTE   W02
// 011   ----------------------------------------
 BYTE   W02
 BYTE   N03
 BYTE   W04
 BYTE   N05
 BYTE   W06
 BYTE   N11
 BYTE   W12
 BYTE   N05
 BYTE   W06
 BYTE   N11
 BYTE   W12
 BYTE   N11
 BYTE   W12
 BYTE   N05
 BYTE   W06
 BYTE   N05
 BYTE   W06
 BYTE   N03
 BYTE   W04
 BYTE   N03
 BYTE   W04
 BYTE   N03
 BYTE   W04
 BYTE   N11
 BYTE   W12
 BYTE   N11
 BYTE   W06
// 012   ----------------------------------------
Label_7_01027289:
 BYTE   W06
 BYTE   N11  En1  v048
 BYTE   W12
 BYTE   N05
 BYTE   W06
 BYTE   N05
 BYTE   W06
 BYTE   N11
 BYTE   W12
 BYTE   N11
 BYTE   W12
 BYTE   N11
 BYTE   W12
 BYTE   N11
 BYTE   W12
 BYTE   N11
 BYTE   W12
 BYTE   N05
 BYTE   W06
 BYTE   PEND 
// 013   ----------------------------------------
 BYTE   N05
 BYTE   W06
 BYTE   N11
 BYTE   W12
 BYTE   N05
 BYTE   W06
 BYTE   N05
 BYTE   W06
 BYTE   N05
 BYTE   W06
 BYTE   N05
 BYTE   W06
 BYTE   N05
 BYTE   W06
 BYTE   N05
 BYTE   W06
 BYTE   N11
 BYTE   W12
 BYTE   N05
 BYTE   W06
 BYTE   N05
 BYTE   W06
 BYTE   N11
 BYTE   W12
 BYTE   N11
 BYTE   W06
// 014   ----------------------------------------
 BYTE   W06
 BYTE   N11
 BYTE   W12
 BYTE   N11
 BYTE   W12
 BYTE   N05
 BYTE   W06
 BYTE   N05
 BYTE   W06
 BYTE   N05
 BYTE   W06
 BYTE   N05
 BYTE   W06
 BYTE   N11
 BYTE   W12
 BYTE   N05
 BYTE   W06
 BYTE   N05
 BYTE   W06
 BYTE   N05
 BYTE   W06
 BYTE   N05
 BYTE   W06
 BYTE   N05
 BYTE   W06
 BYTE   PATT
  POIN2 Label_7_010271F1
// 015   ----------------------------------------
 BYTE   W02
 BYTE   N03  En1  v048
 BYTE   W04
 BYTE   N11
 BYTE   W12
 BYTE   N05
 BYTE   W06
 BYTE   N05
 BYTE   W06
 BYTE   N11
 BYTE   W12
 BYTE   N05
 BYTE   W06
 BYTE   N05
 BYTE   W06
 BYTE   N11
 BYTE   W12
 BYTE   N11
 BYTE   W12
 BYTE   N05
 BYTE   W06
 BYTE   N05
 BYTE   W06
 BYTE   N05
 BYTE   W06
 BYTE   PATT
  POIN2 Label_7_0102722E
 BYTE   PATT
  POIN2 Label_7_01027210
 BYTE   PATT
  POIN2 Label_7_0102722E
// 016   ----------------------------------------
 BYTE   W02
 BYTE   N03  En1  v048
 BYTE   W04
 BYTE   N11
 BYTE   W12
 BYTE   N05
 BYTE   W06
 BYTE   N05
 BYTE   W06
 BYTE   N11
 BYTE   W12
 BYTE   N11
 BYTE   W12
 BYTE   N11
 BYTE   W12
 BYTE   N11
 BYTE   W12
 BYTE   N03
 BYTE   W04
 BYTE   N03
 BYTE   W04
 BYTE   N03
 BYTE   W04
 BYTE   N03
 BYTE   W04
 BYTE   N03
 BYTE   W02
// 017   ----------------------------------------
 BYTE   W02
 BYTE   N03
 BYTE   W04
 BYTE   N05
 BYTE   W06
 BYTE   N11
 BYTE   W12
 BYTE   N05
 BYTE   W06
 BYTE   N11
 BYTE   W12
 BYTE   N11
 BYTE   W12
 BYTE   N11
 BYTE   W12
 BYTE   N03
 BYTE   W04
 BYTE   N03
 BYTE   W04
 BYTE   N03
 BYTE   W04
 BYTE   N11
 BYTE   W12
 BYTE   N11
 BYTE   W06
 BYTE   PATT
  POIN2 Label_7_01027289
// 018   ----------------------------------------
 BYTE   N05  En1  v048
 BYTE   W06
 BYTE   N11
 BYTE   W12
 BYTE   N05
 BYTE   W06
 BYTE   N05
 BYTE   W06
 BYTE   N05
 BYTE   W06
 BYTE   N05
 BYTE   W06
 BYTE   N05
 BYTE   W06
 BYTE   N05
 BYTE   W06
 BYTE   N20
 BYTE   W42
// 019   ----------------------------------------
 BYTE   W54
 BYTE   N42  Cs2  v092
 BYTE   N42  En2
 BYTE   W42
// 020   ----------------------------------------
 BYTE   W54
 BYTE   N11  En1  v048
 BYTE   W12
 BYTE   N05
 BYTE   W06
 BYTE   N05
 BYTE   W06
 BYTE   N11
 BYTE   W12
 BYTE   N05
 BYTE   W06
// 021   ----------------------------------------
Label_7_01027364:
 BYTE   N05  En1  v048
 BYTE   W06
 BYTE   N11
 BYTE   W12
 BYTE   N05
 BYTE   W06
 BYTE   N05
 BYTE   W06
 BYTE   N11
 BYTE   W12
 BYTE   N05
 BYTE   W06
 BYTE   N05
 BYTE   W06
 BYTE   N11
 BYTE   W12
 BYTE   N05
 BYTE   W06
 BYTE   PEND 
 BYTE   PATT
  POIN2 Label_7_01027364
 BYTE   PATT
  POIN2 Label_7_01027364
 BYTE   PATT
  POIN2 Label_7_01027364
 BYTE   PATT
  POIN2 Label_7_01027364
 BYTE   PATT
  POIN2 Label_7_01027364
 BYTE   PATT
  POIN2 Label_7_01027364
 BYTE   PATT
  POIN2 Label_7_01027364
 BYTE   PATT
  POIN2 Label_7_01027364
 BYTE   PATT
  POIN2 Label_7_01027364
 BYTE   PATT
  POIN2 Label_7_01027364
// 022   ----------------------------------------
 BYTE   N05  En1  v048
 BYTE   W06
 BYTE   N11
 BYTE   W12
 BYTE   N05
 BYTE   W06
 BYTE   N05
 BYTE   W18
 BYTE   N11  Cs2  v060
 BYTE   W24
 BYTE   N11
 BYTE   W06
 BYTE   W18
 BYTE   N11
 BYTE   W12
// 023   ----------------------------------------
 BYTE   N20
 BYTE   W42
 BYTE   W72
// 024   ----------------------------------------
 BYTE   W06
 BYTE   En1  v048
 BYTE   W48
 BYTE   N20
 BYTE   W18
 BYTE   W24
// 025   ----------------------------------------
 BYTE   N05
 BYTE   W06
 BYTE   N20
 BYTE   W24
 BYTE   N20
 BYTE   W24
 BYTE   N20
 BYTE   W18
 BYTE   W96
// 026   ----------------------------------------
 BYTE   W96
// 027   ----------------------------------------
Label_7_010273D2:
 BYTE   W06
 BYTE   N01  En1  v032
 BYTE   W02
 BYTE   N01
 BYTE   W02
 BYTE   N01
 BYTE   W02
 BYTE   N01
 BYTE   W02
 BYTE   N01
 BYTE   W02
 BYTE   N01
 BYTE   W02
 BYTE   N01
 BYTE   W02
 BYTE   N01
 BYTE   W02
 BYTE   N01
 BYTE   W02
 BYTE   N01
 BYTE   W02
 BYTE   N01
 BYTE   W02
 BYTE   N01
 BYTE   W02
 BYTE   N01
 BYTE   W02
 BYTE   N01
 BYTE   W02
 BYTE   N01
 BYTE   W02
 BYTE   N01
 BYTE   W02
 BYTE   N01
 BYTE   W02
 BYTE   N01
 BYTE   W02
 BYTE   N01
 BYTE   W02
 BYTE   N01
 BYTE   W02
 BYTE   N01
 BYTE   W02
 BYTE   N01
 BYTE   W02
 BYTE   N01
 BYTE   W02
 BYTE   N01
 BYTE   W02
 BYTE   N01
 BYTE   W02
 BYTE   N01
 BYTE   W02
 BYTE   N01
 BYTE   W02
 BYTE   N01
 BYTE   W02
 BYTE   N01
 BYTE   W02
 BYTE   N01
 BYTE   W02
 BYTE   N01
 BYTE   W02
 BYTE   N01
 BYTE   W02
 BYTE   N01
 BYTE   W02
 BYTE   N01
 BYTE   W02
 BYTE   N01
 BYTE   W02
 BYTE   N01
 BYTE   W02
 BYTE   N01
 BYTE   W02
 BYTE   N01
 BYTE   W02
 BYTE   N01
 BYTE   W02
 BYTE   N01
 BYTE   W02
 BYTE   N01
 BYTE   W02
 BYTE   N01
 BYTE   W02
 BYTE   N01
 BYTE   W02
 BYTE   N01
 BYTE   W02
 BYTE   N01
 BYTE   W02
 BYTE   PEND 
// 028   ----------------------------------------
Label_7_01027430:
 BYTE   N01  En1  v032
 BYTE   W02
 BYTE   N01
 BYTE   W02
 BYTE   N01
 BYTE   W02
 BYTE   N01
 BYTE   W02
 BYTE   N01
 BYTE   W02
 BYTE   N01
 BYTE   W02
 BYTE   N01
 BYTE   W02
 BYTE   N01
 BYTE   W02
 BYTE   N01
 BYTE   W02
 BYTE   N01
 BYTE   W02
 BYTE   N01
 BYTE   W02
 BYTE   N01
 BYTE   W02
 BYTE   N01
 BYTE   W02
 BYTE   N01
 BYTE   W02
 BYTE   N01
 BYTE   W02
 BYTE   N01
 BYTE   W02
 BYTE   N01
 BYTE   W02
 BYTE   N01
 BYTE   W02
 BYTE   N01
 BYTE   W02
 BYTE   N01
 BYTE   W02
 BYTE   N01
 BYTE   W02
 BYTE   N01
 BYTE   W02
 BYTE   N01
 BYTE   W02
 BYTE   N01
 BYTE   W02
 BYTE   N01
 BYTE   W02
 BYTE   N01
 BYTE   W02
 BYTE   N01
 BYTE   W02
 BYTE   N01
 BYTE   W02
 BYTE   N01
 BYTE   W02
 BYTE   N01
 BYTE   W02
 BYTE   N01
 BYTE   W02
 BYTE   N01
 BYTE   W02
 BYTE   N01
 BYTE   W02
 BYTE   N01
 BYTE   W02
 BYTE   N01
 BYTE   W02
 BYTE   N01
 BYTE   W02
 BYTE   N01
 BYTE   W02
 BYTE   N01
 BYTE   W02
 BYTE   N01
 BYTE   W02
 BYTE   N01
 BYTE   W02
 BYTE   N01
 BYTE   W02
 BYTE   N01
 BYTE   W02
 BYTE   N01
 BYTE   W02
 BYTE   N01
 BYTE   W02
 BYTE   N01
 BYTE   W02
 BYTE   N01
 BYTE   W02
 BYTE   N01
 BYTE   W02
 BYTE   N01
 BYTE   W02
 BYTE   PEND 
// 029   ----------------------------------------
 BYTE   N01
 BYTE   W02
 BYTE   N01
 BYTE   W02
 BYTE   N01
 BYTE   W92
// 030   ----------------------------------------
 BYTE   W96
// 031   ----------------------------------------
 BYTE   W96
// 032   ----------------------------------------
 BYTE   W96
 BYTE   PATT
  POIN2 Label_7_010273D2
 BYTE   PATT
  POIN2 Label_7_01027430
 BYTE   PATT
  POIN2 Label_7_01027430
// 033   ----------------------------------------
 BYTE   N01  En1  v032
 BYTE   W02
 BYTE   N01
 BYTE   W02
 BYTE   N01
 BYTE   W02
 BYTE   N01
 BYTE   W02
 BYTE   N01
 BYTE   W02
 BYTE   N01
 BYTE   W02
 BYTE   N01
 BYTE   W02
 BYTE   N01
 BYTE   W02
 BYTE   N01
 BYTE   W02
 BYTE   N01
 BYTE   W02
 BYTE   N01
 BYTE   W02
 BYTE   N01
 BYTE   W02
 BYTE   N01
 BYTE   W02
 BYTE   N01
 BYTE   W02
 BYTE   N01
 BYTE   W02
 BYTE   N01
 BYTE   W02
 BYTE   N01
 BYTE   W02
 BYTE   N01
 BYTE   W02
 BYTE   N01
 BYTE   W02
 BYTE   N01
 BYTE   W02
 BYTE   N01
 BYTE   W02
 BYTE   N01
 BYTE   W02
 BYTE   N01
 BYTE   W02
 BYTE   N01
 BYTE   W02
 BYTE   N01
 BYTE   W02
 BYTE   N01
 BYTE   W02
 BYTE   N01
 BYTE   W02
 BYTE   En1  v048
 BYTE   W02
 BYTE   N01
 BYTE   W02
 BYTE   N01
 BYTE   W02
 BYTE   N01
 BYTE   W02
 BYTE   N01
 BYTE   W02
 BYTE   N01
 BYTE   W02
 BYTE   N01
 BYTE   W02
 BYTE   N01
 BYTE   W02
 BYTE   N01
 BYTE   W02
 BYTE   N01
 BYTE   W02
 BYTE   N01
 BYTE   W02
 BYTE   N01
 BYTE   W02
 BYTE   N01
 BYTE   W02
 BYTE   N01
 BYTE   W02
 BYTE   N01
 BYTE   W02
 BYTE   N01
 BYTE   W02
 BYTE   N01
 BYTE   W02
 BYTE   N01
 BYTE   W02
 BYTE   N01
 BYTE   W02
 BYTE   N01
 BYTE   W02
 BYTE   N01
 BYTE   W02
// 034   ----------------------------------------
 BYTE   N01
 BYTE   W02
 BYTE   N01
 BYTE   W02
 BYTE   N01
 BYTE   W02
 BYTE   N01
 BYTE   W02
 BYTE   N01
 BYTE   W02
 BYTE   N01
 BYTE   W02
 BYTE   N01
 BYTE   W02
 BYTE   N01
 BYTE   W02
 BYTE   N01
 BYTE   W02
 BYTE   N01
 BYTE   W02
 BYTE   N01
 BYTE   W02
 BYTE   N01
 BYTE   W02
 BYTE   N01
 BYTE   W02
 BYTE   N01
 BYTE   W02
 BYTE   N01
 BYTE   W02
 BYTE   N01
 BYTE   W02
 BYTE   N01
 BYTE   W02
 BYTE   N01
 BYTE   W02
 BYTE   N01
 BYTE   W02
 BYTE   N01
 BYTE   W02
 BYTE   N01
 BYTE   W02
 BYTE   N01
 BYTE   W02
 BYTE   N01
 BYTE   W02
 BYTE   N01
 BYTE   W02
 BYTE   N01
 BYTE   W02
 BYTE   N01
 BYTE   W02
 BYTE   N01
 BYTE   W02
 BYTE   N01
 BYTE   W02
 BYTE   N01
 BYTE   W02
 BYTE   N01
 BYTE   W02
 BYTE   N01
 BYTE   W02
 BYTE   N01
 BYTE   W02
 BYTE   N01
 BYTE   W02
 BYTE   N01
 BYTE   W02
 BYTE   N01
 BYTE   W02
 BYTE   N01
 BYTE   W02
 BYTE   N01
 BYTE   W02
 BYTE   N01
 BYTE   W02
 BYTE   N01
 BYTE   W02
 BYTE   N01
 BYTE   W02
 BYTE   N01
 BYTE   W02
 BYTE   N01
 BYTE   W02
 BYTE   N01
 BYTE   W02
 BYTE   N01
 BYTE   W02
 BYTE   N01
 BYTE   W02
 BYTE   N01
 BYTE   W02
 BYTE   N01
 BYTE   W02
 BYTE   N01
 BYTE   W02
// 035   ----------------------------------------
 BYTE   N01
 BYTE   W02
 BYTE   N01
 BYTE   W02
 BYTE   N01
 BYTE   W36
 BYTE   W02
 BYTE   GoTo
  POIN2 Label_7_010271AE
 BYTE   FINE

//**************** Track 9 (Midi-Chn.8) ****************//

SuperSmashBrosBrawlPorkysThemeMrGreen3339_009:
// 000   ----------------------------------------
 BYTE   KEYSH   SuperSmashBrosBrawlPorkysThemeMrGreen3339_key+0
Label_8_0102757E:
 BYTE   VOICE   73
 BYTE   VOL   65*SuperSmashBrosBrawlPorkysThemeMrGreen3339_mvl/mxv
 BYTE   PAN   c_v+0
 BYTE   W96
// 001   ----------------------------------------
 BYTE   W96
// 002   ----------------------------------------
 BYTE   W96
// 003   ----------------------------------------
 BYTE   W96
// 004   ----------------------------------------
 BYTE   W96
// 005   ----------------------------------------
 BYTE   W96
// 006   ----------------------------------------
 BYTE   W96
// 007   ----------------------------------------
 BYTE   W96
// 008   ----------------------------------------
 BYTE   W96
// 009   ----------------------------------------
 BYTE   W96
// 010   ----------------------------------------
 BYTE   W96
// 011   ----------------------------------------
 BYTE   W96
// 012   ----------------------------------------
 BYTE   W96
// 013   ----------------------------------------
 BYTE   W96
// 014   ----------------------------------------
 BYTE   W96
// 015   ----------------------------------------
 BYTE   W96
// 016   ----------------------------------------
 BYTE   W96
// 017   ----------------------------------------
 BYTE   W96
// 018   ----------------------------------------
 BYTE   W96
// 019   ----------------------------------------
 BYTE   W96
// 020   ----------------------------------------
 BYTE   W96
// 021   ----------------------------------------
 BYTE   W96
// 022   ----------------------------------------
 BYTE   W96
// 023   ----------------------------------------
 BYTE   W42
 BYTE   N03  Fn4  v060
 BYTE   W03
 BYTE   Gn4
 BYTE   W03
 BYTE   An4
 BYTE   W03
 BYTE   Bn4
 BYTE   W03
 BYTE   N17  Cn5
 BYTE   W18
 BYTE   N03  Bn4
 BYTE   W03
 BYTE   Cn5
 BYTE   W03
 BYTE   N17  Dn5
 BYTE   W18
// 024   ----------------------------------------
 BYTE   N03  Cn5
 BYTE   W03
 BYTE   Dn5
 BYTE   W03
 BYTE   N20  Ds5
 BYTE   W84
 BYTE   N03  Cn5
 BYTE   W03
 BYTE   Dn5
 BYTE   W03
// 025   ----------------------------------------
 BYTE   Ds5
 BYTE   W03
 BYTE   Fn5
 BYTE   W03
 BYTE   N20  Gn5
 BYTE   W90
// 026   ----------------------------------------
 BYTE   W72
 BYTE   W72
// 027   ----------------------------------------
 BYTE   W72
 BYTE   W72
// 028   ----------------------------------------
 BYTE   W72
 BYTE   W72
// 029   ----------------------------------------
 BYTE   W72
 BYTE   W72
// 030   ----------------------------------------
 BYTE   W72
 BYTE   W72
// 031   ----------------------------------------
 BYTE   W72
 BYTE   W72
// 032   ----------------------------------------
 BYTE   W72
 BYTE   W72
// 033   ----------------------------------------
 BYTE   W72
 BYTE   W96
// 034   ----------------------------------------
 BYTE   W96
// 035   ----------------------------------------
 BYTE   W96
// 036   ----------------------------------------
 BYTE   W96
// 037   ----------------------------------------
 BYTE   W96
// 038   ----------------------------------------
 BYTE   W96
// 039   ----------------------------------------
 BYTE   W96
// 040   ----------------------------------------
 BYTE   W96
// 041   ----------------------------------------
 BYTE   W96
// 042   ----------------------------------------
 BYTE   W96
// 043   ----------------------------------------
 BYTE   W96
// 044   ----------------------------------------
 BYTE   W96
// 045   ----------------------------------------
 BYTE   W96
// 046   ----------------------------------------
 BYTE   W96
// 047   ----------------------------------------
 BYTE   W42
 BYTE   GoTo
  POIN2 Label_8_0102757E
 BYTE   FINE

//******************************************************//
	ALIGN 4

SuperSmashBrosBrawlPorkysThemeMrGreen3339:
	BYTE	9	// NumTrks
	BYTE	0	// NumBlks
	BYTE	SuperSmashBrosBrawlPorkysThemeMrGreen3339_pri	// Priority
	BYTE	SuperSmashBrosBrawlPorkysThemeMrGreen3339_rev	// Reverb.
    
	POIN2	SuperSmashBrosBrawlPorkysThemeMrGreen3339_grp
    
	POIN2	SuperSmashBrosBrawlPorkysThemeMrGreen3339_001
	POIN2	SuperSmashBrosBrawlPorkysThemeMrGreen3339_002
	POIN2	SuperSmashBrosBrawlPorkysThemeMrGreen3339_003
	POIN2	SuperSmashBrosBrawlPorkysThemeMrGreen3339_004
	POIN2	SuperSmashBrosBrawlPorkysThemeMrGreen3339_005
	POIN2	SuperSmashBrosBrawlPorkysThemeMrGreen3339_006
	POIN2	SuperSmashBrosBrawlPorkysThemeMrGreen3339_007
	POIN2	SuperSmashBrosBrawlPorkysThemeMrGreen3339_008
	POIN2	SuperSmashBrosBrawlPorkysThemeMrGreen3339_009

	
