//Event file generated from Sappy .s format.
	#include "MPlayDef.event"

	#define	SuperSmashBrosBrawlBossBattleSong1MrGreen3339_grp  voicegroup000
	#define	SuperSmashBrosBrawlBossBattleSong1MrGreen3339_pri  10
	#define	SuperSmashBrosBrawlBossBattleSong1MrGreen3339_rev  128
	#define	SuperSmashBrosBrawlBossBattleSong1MrGreen3339_mvl  127
	#define	SuperSmashBrosBrawlBossBattleSong1MrGreen3339_key  0
	#define	SuperSmashBrosBrawlBossBattleSong1MrGreen3339_tbs  1
	#define	SuperSmashBrosBrawlBossBattleSong1MrGreen3339_exg  0
	#define	SuperSmashBrosBrawlBossBattleSong1MrGreen3339_cmp  1

	// .rodata
	//	SuperSmashBrosBrawlBossBattleSong1MrGreen3339
	ALIGN 4


//**************** Track 1 (Midi-Chn.0) ****************//

SuperSmashBrosBrawlBossBattleSong1MrGreen3339_001:
// 000   ----------------------------------------
 BYTE   KEYSH   SuperSmashBrosBrawlBossBattleSong1MrGreen3339_key+0
 BYTE   TEMPO   156*SuperSmashBrosBrawlBossBattleSong1MrGreen3339_tbs/2
 BYTE   VOICE   1
 BYTE   VOL   56*SuperSmashBrosBrawlBossBattleSong1MrGreen3339_mvl/mxv
 BYTE   W96
// 001   ----------------------------------------
Label_0_01052551:
 BYTE   W96
// 002   ----------------------------------------
 BYTE   W96
// 003   ----------------------------------------
 BYTE   W96
// 004   ----------------------------------------
 BYTE   W96
// 005   ----------------------------------------
 BYTE   W96
// 006   ----------------------------------------
 BYTE   W96
// 007   ----------------------------------------
 BYTE   W96
// 008   ----------------------------------------
 BYTE   W72
 BYTE   N12  Bn3  v116
 BYTE   N12  Bn4
 BYTE   W12
 BYTE   N06  An3
 BYTE   N06  An4
 BYTE   W06
 BYTE   Gn3
 BYTE   N06  Gn4
 BYTE   W06
// 009   ----------------------------------------
Label_0_01052568:
 BYTE   TIE  Fs3  v116
 BYTE   TIE  Fs4
 BYTE   W96
 BYTE   PEND 
// 010   ----------------------------------------
 BYTE   W48
 BYTE   EOT
 BYTE   Fs3  v078
 BYTE   N12  En3
 BYTE   N12  En4
 BYTE   W12
 BYTE   Fs3
 BYTE   N12  Fs4
 BYTE   W12
 BYTE   Gn3
 BYTE   N12  Gn4
 BYTE   W12
 BYTE   N24  An3
 BYTE   N24  An4
 BYTE   W12
// 011   ----------------------------------------
Label_0_01052585:
 BYTE   W12
 BYTE   TIE  Fs3  v116
 BYTE   TIE  Fs4
 BYTE   W84
 BYTE   PEND 
// 012   ----------------------------------------
 BYTE   W48
 BYTE   EOT
 BYTE   Fs3  v078
 BYTE   N12  En3
 BYTE   N12  En4
 BYTE   W12
 BYTE   Fs3
 BYTE   N12  Fs4
 BYTE   W12
 BYTE   Gn3
 BYTE   N12  Gn4
 BYTE   W12
 BYTE   N24  An3
 BYTE   N24  An4
 BYTE   W12
 BYTE   PATT
  POIN2 Label_0_01052585
// 013   ----------------------------------------
 BYTE   W24
 BYTE   EOT
 BYTE   Fs3  v078
 BYTE   W12
 BYTE   N06  Cs3  v116
 BYTE   N06  Cs4
 BYTE   W06
 BYTE   Dn3
 BYTE   N06  Dn4
 BYTE   W06
 BYTE   N24  En3
 BYTE   N24  En4
 BYTE   W24
 BYTE   N12  Dn3
 BYTE   N12  Dn4
 BYTE   W12
 BYTE   N24  Cs3
 BYTE   N24  Cs4
 BYTE   W12
// 014   ----------------------------------------
 BYTE   W12
 BYTE   Bn2
 BYTE   N24  Bn3
 BYTE   W24
 BYTE   TIE  Fs3
 BYTE   TIE  Fs4
 BYTE   W60
// 015   ----------------------------------------
 BYTE   W48
 BYTE   EOT
 BYTE   Fs3  v078
 BYTE   W24
 BYTE   N12  Bn3
 BYTE   N12  Bn4
 BYTE   W12
 BYTE   N06  An3
 BYTE   N06  An4
 BYTE   W06
 BYTE   Gn3
 BYTE   N06  Gn4
 BYTE   W06
 BYTE   PATT
  POIN2 Label_0_01052568
// 016   ----------------------------------------
 BYTE   W48
 BYTE   EOT
 BYTE   Fs3  v078
 BYTE   N12  En3  v116
 BYTE   N12  En4
 BYTE   W12
 BYTE   Fs3
 BYTE   N12  Fs4
 BYTE   W12
 BYTE   Gn3
 BYTE   N12  Gn4
 BYTE   W12
 BYTE   N24  An3
 BYTE   N24  An4
 BYTE   W12
 BYTE   PATT
  POIN2 Label_0_01052585
// 017   ----------------------------------------
 BYTE   W48
 BYTE   EOT
 BYTE   Fs3  v078
 BYTE   N12  En3  v116
 BYTE   N12  En4
 BYTE   W12
 BYTE   Fs3
 BYTE   N12  Fs4
 BYTE   W12
 BYTE   Gn3
 BYTE   N12  Gn4
 BYTE   W12
 BYTE   N24  An3
 BYTE   N24  An4
 BYTE   W12
 BYTE   PATT
  POIN2 Label_0_01052585
// 018   ----------------------------------------
 BYTE   W24
 BYTE   EOT
 BYTE   Fs3  v078
 BYTE   N12  En3  v092
 BYTE   N12  En4
 BYTE   W12
 BYTE   Dn3
 BYTE   N12  Dn4
 BYTE   W12
 BYTE   N48  Cs3
 BYTE   N48  Cs4
 BYTE   W48
// 019   ----------------------------------------
 BYTE   TIE  Bn2
 BYTE   TIE  Bn3
 BYTE   W96
// 020   ----------------------------------------
 BYTE   W48
 BYTE   EOT
 BYTE   Bn2  v071
 BYTE   W48
// 021   ----------------------------------------
 BYTE   N12  Fs4  v088
 BYTE   W24
 BYTE   Gn4  v084
 BYTE   W24
 BYTE   Fs4  v088
 BYTE   W12
 BYTE   Gn4
 BYTE   W24
 BYTE   Fs4  v084
 BYTE   W12
// 022   ----------------------------------------
 BYTE   Gn4
 BYTE   W24
 BYTE   Fs4
 BYTE   W12
 BYTE   Gn4
 BYTE   W12
 BYTE   En4
 BYTE   W48
// 023   ----------------------------------------
 BYTE   Fs4  v096
 BYTE   W24
 BYTE   Gn4  v092
 BYTE   W24
 BYTE   Fs4  v088
 BYTE   W12
 BYTE   Gn4
 BYTE   W24
 BYTE   Fs4
 BYTE   W12
// 024   ----------------------------------------
 BYTE   Gn4
 BYTE   W24
 BYTE   Fs4  v084
 BYTE   W12
 BYTE   Gn4
 BYTE   W12
 BYTE   En4
 BYTE   W48
// 025   ----------------------------------------
 BYTE   Fs4  v092
 BYTE   W12
 BYTE   Fs4  v084
 BYTE   W12
 BYTE   Gn4  v088
 BYTE   W24
 BYTE   Fs4  v084
 BYTE   W12
 BYTE   Gn4  v080
 BYTE   W24
 BYTE   Fs4
 BYTE   W12
// 026   ----------------------------------------
 BYTE   Gn4
 BYTE   W24
 BYTE   Fs4
 BYTE   W12
 BYTE   Gn4
 BYTE   W12
 BYTE   En4  v076
 BYTE   W48
// 027   ----------------------------------------
 BYTE   Fs4  v104
 BYTE   W24
 BYTE   Gn4  v092
 BYTE   W24
 BYTE   Fs4
 BYTE   W12
 BYTE   Gn4  v088
 BYTE   W24
 BYTE   Fs4
 BYTE   W12
// 028   ----------------------------------------
 BYTE   Gn4  v084
 BYTE   W24
 BYTE   Fs4
 BYTE   W12
 BYTE   Gn4  v072
 BYTE   W12
 BYTE   N06  En3  v127
 BYTE   N06  En4
 BYTE   W06
 BYTE   Fs3
 BYTE   N06  Fs4
 BYTE   W06
 BYTE   Gn3
 BYTE   N06  Gn4
 BYTE   W06
 BYTE   An3
 BYTE   N06  An4
 BYTE   W06
 BYTE   Bn3
 BYTE   N06  Bn4
 BYTE   W06
 BYTE   Cs4
 BYTE   N06  Cs5
 BYTE   W06
 BYTE   Dn4  v124
 BYTE   N06  Dn5
 BYTE   W06
 BYTE   En4
 BYTE   N06  En5
 BYTE   W06
// 029   ----------------------------------------
 BYTE   Fs3
 BYTE   N06  Bn3
 BYTE   N06  Fs4
 BYTE   W36
 BYTE   Fs3
 BYTE   N06  Bn3
 BYTE   N06  Fs4
 BYTE   W36
 BYTE   Fs3
 BYTE   N06  Bn3
 BYTE   N06  Fs4
 BYTE   W24
// 030   ----------------------------------------
 BYTE   Fs3
 BYTE   N06  Bn3
 BYTE   N06  Fs4
 BYTE   W96
// 031   ----------------------------------------
 BYTE   N12  Cs4  v108
 BYTE   W36
 BYTE   Dn2
 BYTE   W36
 BYTE   En4
 BYTE   W24
// 032   ----------------------------------------
 BYTE   W24
 BYTE   N24  En3
 BYTE   N24  En4
 BYTE   W24
 BYTE   Cs3
 BYTE   N24  Dn4
 BYTE   W24
 BYTE   Cs3
 BYTE   N24  Cs4
 BYTE   W24
// 033   ----------------------------------------
 BYTE   Dn3
 BYTE   N24  Dn4
 BYTE   W24
 BYTE   N72  Dn3
 BYTE   N72  Bn3
 BYTE   W72
// 034   ----------------------------------------
 BYTE   W96
// 035   ----------------------------------------
 BYTE   N12  Cs4
 BYTE   W72
 BYTE   En4
 BYTE   W24
// 036   ----------------------------------------
 BYTE   W24
 BYTE   N24
 BYTE   W24
 BYTE   Dn4  v120
 BYTE   W24
 BYTE   Cs4
 BYTE   W24
// 037   ----------------------------------------
 BYTE   Dn4  v124
 BYTE   W24
 BYTE   En4
 BYTE   W24
 BYTE   TIE  Fs4
 BYTE   W48
// 038   ----------------------------------------
 BYTE   W90
 BYTE   EOT
 BYTE   W06
// 039   ----------------------------------------
 BYTE   W96
// 040   ----------------------------------------
 BYTE   W96
// 041   ----------------------------------------
 BYTE   W96
// 042   ----------------------------------------
 BYTE   W96
// 043   ----------------------------------------
 BYTE   W96
// 044   ----------------------------------------
 BYTE   W96
// 045   ----------------------------------------
 BYTE   W96
// 046   ----------------------------------------
 BYTE   W96
// 047   ----------------------------------------
 BYTE   W96
// 048   ----------------------------------------
 BYTE   W96
// 049   ----------------------------------------
 BYTE   N42  Cs3  v076
 BYTE   N42  Fs3
 BYTE   W48
 BYTE   Cs3
 BYTE   N42  An3  v080
 BYTE   W48
// 050   ----------------------------------------
 BYTE   An2
 BYTE   N42  Dn3
 BYTE   W48
 BYTE   Fn3
 BYTE   N42  Gs3  v076
 BYTE   W48
// 051   ----------------------------------------
 BYTE   Fs3
 BYTE   N42  Cs4
 BYTE   W48
 BYTE   Cs3
 BYTE   N42  An3
 BYTE   W48
// 052   ----------------------------------------
 BYTE   Dn3  v080
 BYTE   N42  An3
 BYTE   W48
 BYTE   Fn3
 BYTE   N42  Bn3
 BYTE   W48
// 053   ----------------------------------------
Label_0_0105273B:
 BYTE   N42  Fs3  v100
 BYTE   N42  Cs4
 BYTE   N42  Fs4
 BYTE   N42  An4
 BYTE   W48
 BYTE   Cs3  v096
 BYTE   N12  Cs4
 BYTE   N12  Fs4
 BYTE   N12  An4
 BYTE   W12
 BYTE   Bn3  v084
 BYTE   N12  En4
 BYTE   N12  Gs4
 BYTE   W12
 BYTE   An3  v088
 BYTE   N12  Dn4
 BYTE   N12  Fs4
 BYTE   W12
 BYTE   Gs3
 BYTE   N12  Cs4
 BYTE   N12  En4
 BYTE   W12
 BYTE   PEND 
// 054   ----------------------------------------
Label_0_01052763:
 BYTE   N42  Dn3  v096
 BYTE   N42  An3
 BYTE   N42  Dn4
 BYTE   N42  Fs4
 BYTE   W48
 BYTE   Fn3
 BYTE   N42  Bn3
 BYTE   N42  Fn4
 BYTE   N42  Gs4
 BYTE   W48
 BYTE   PEND 
 BYTE   PATT
  POIN2 Label_0_0105273B
 BYTE   PATT
  POIN2 Label_0_01052763
// 055   ----------------------------------------
 BYTE   N90  Cs3  v116
 BYTE   N90  Cs4
 BYTE   N24  Gs4  v056
 BYTE   N24  Fn5
 BYTE   W24
 BYTE   N72  Gs4  v076
 BYTE   N72  Fn5
 BYTE   W72
// 056   ----------------------------------------
 BYTE   TIE  Fs1  v104
 BYTE   TIE  Fs2
 BYTE   N08  En5
 BYTE   W08
 BYTE   Ds5
 BYTE   W08
 BYTE   Dn5  v108
 BYTE   W08
 BYTE   Cs5
 BYTE   W08
 BYTE   Dn5
 BYTE   W08
 BYTE   Ds5
 BYTE   W08
 BYTE   En5
 BYTE   W08
 BYTE   Ds5  v112
 BYTE   W08
 BYTE   Dn5
 BYTE   W08
 BYTE   Cs5
 BYTE   W08
 BYTE   Dn5
 BYTE   W08
 BYTE   Ds5
 BYTE   W08
// 057   ----------------------------------------
 BYTE   En5
 BYTE   W08
 BYTE   Ds5
 BYTE   W08
 BYTE   Dn5
 BYTE   W08
 BYTE   Cs5
 BYTE   W08
 BYTE   Dn5
 BYTE   W08
 BYTE   Ds5
 BYTE   W08
 BYTE   En5
 BYTE   W08
 BYTE   Ds5
 BYTE   W08
 BYTE   Dn5
 BYTE   W08
 BYTE   Cs5
 BYTE   W08
 BYTE   Dn5  v108
 BYTE   W08
 BYTE   Ds5
 BYTE   W08
// 058   ----------------------------------------
 BYTE   EOT
 BYTE   Fs1  v054
 BYTE   TIE  Cs1  v104
 BYTE   N12  An1  v096
 BYTE   N12  An2
 BYTE   N08  Fs5  v100
 BYTE   W08
 BYTE   Fn5
 BYTE   W04
 BYTE   N12  Bn1  v096
 BYTE   N12  Bn2
 BYTE   W04
 BYTE   N08  Fs5  v100
 BYTE   W08
 BYTE   N12  Cs2  v096
 BYTE   N12  Cs3
 BYTE   N08  An5  v100
 BYTE   W08
 BYTE   Gs5
 BYTE   W04
 BYTE   N12  Ds2  v096
 BYTE   N12  Ds3
 BYTE   W04
 BYTE   N08  Gn5  v100
 BYTE   W08
 BYTE   N12  En2  v096
 BYTE   N12  En3
 BYTE   N08  Fs5  v100
 BYTE   W08
 BYTE   Fn5
 BYTE   W04
 BYTE   N12  Ds2  v096
 BYTE   N12  Ds3
 BYTE   W04
 BYTE   N08  Fs5  v100
 BYTE   W08
 BYTE   N12  En2  v096
 BYTE   N12  En3
 BYTE   N08  An5  v100
 BYTE   W08
 BYTE   Gs5
 BYTE   W04
 BYTE   N12  Fs2  v096
 BYTE   N12  Fs3
 BYTE   W04
 BYTE   N08  Gn5  v100
 BYTE   W08
// 059   ----------------------------------------
 BYTE   N12  Gn2  v096
 BYTE   N12  Gn3
 BYTE   N08  Fs5  v100
 BYTE   W08
 BYTE   Fn5
 BYTE   W04
 BYTE   N12  Fs2  v096
 BYTE   N12  Fs3
 BYTE   W04
 BYTE   N08  Fs5  v100
 BYTE   W08
 BYTE   N12  Gn2  v096
 BYTE   N12  Gn3
 BYTE   N08  An5  v100
 BYTE   W08
 BYTE   Gs5  v096
 BYTE   W04
 BYTE   N12  An2
 BYTE   N12  An3
 BYTE   W04
 BYTE   N08  Gn5  v092
 BYTE   W08
 BYTE   N12  Bn2  v096
 BYTE   N12  Gn3
 BYTE   N12  Bn3
 BYTE   N08  Fs5  v088
 BYTE   W08
 BYTE   Fn5
 BYTE   W04
 BYTE   N12  An2  v096
 BYTE   N12  Fs3
 BYTE   N12  An3
 BYTE   W04
 BYTE   N08  Fs5  v084
 BYTE   W08
 BYTE   N12  Bn2  v096
 BYTE   N12  Gn3
 BYTE   N12  Bn3
 BYTE   N08  An5  v080
 BYTE   W08
 BYTE   Gs5
 BYTE   W04
 BYTE   N12  Cs3  v096
 BYTE   N12  As3
 BYTE   N12  Cs4
 BYTE   W04
 BYTE   N08  Gn5  v076
 BYTE   W08
// 060   ----------------------------------------
 BYTE   EOT
 BYTE   Cs1
 BYTE   N96  Bn0  v116
 BYTE   N96  Bn1
 BYTE   N12  Bn2  v088
 BYTE   N12  Dn3
 BYTE   N12  Fs3
 BYTE   W12
 BYTE   Bn2
 BYTE   N12  Dn3
 BYTE   N12  Fs3
 BYTE   W24
 BYTE   Bn2
 BYTE   N12  Dn3
 BYTE   N12  Fs3
 BYTE   W12
 BYTE   Bn2
 BYTE   N12  Dn3
 BYTE   N12  Fs3
 BYTE   W48
// 061   ----------------------------------------
 BYTE   N96  Fs0  v116
 BYTE   N96  Fs1
 BYTE   N12  Bn2  v088
 BYTE   N12  Cs3
 BYTE   N12  Fs3
 BYTE   W12
 BYTE   Bn2
 BYTE   N12  Cs3
 BYTE   N12  Fs3
 BYTE   W24
 BYTE   Bn2
 BYTE   N12  Cs3
 BYTE   N12  Fs3
 BYTE   W12
 BYTE   Bn2
 BYTE   N12  Cs3
 BYTE   N12  Fs3
 BYTE   W48
// 062   ----------------------------------------
 BYTE   N96  Gs0  v116
 BYTE   N96  Gs1
 BYTE   N12  Bn2  v088
 BYTE   N12  En3
 BYTE   N12  Fs3
 BYTE   W12
 BYTE   Bn2
 BYTE   N12  En3
 BYTE   N12  Fs3
 BYTE   W24
 BYTE   Bn2
 BYTE   N12  En3
 BYTE   N12  Fs3
 BYTE   W12
 BYTE   Bn2
 BYTE   N12  En3
 BYTE   N12  Fs3
 BYTE   W48
// 063   ----------------------------------------
 BYTE   N96  En0  v116
 BYTE   N96  En1
 BYTE   N12  Bn2  v088
 BYTE   N12  En3
 BYTE   N12  An3
 BYTE   W12
 BYTE   Bn2
 BYTE   N12  En3
 BYTE   N12  An3
 BYTE   W24
 BYTE   Bn2
 BYTE   N12  En3
 BYTE   N12  An3
 BYTE   W12
 BYTE   Bn2
 BYTE   N12  En3
 BYTE   N12  An3
 BYTE   W48
// 064   ----------------------------------------
 BYTE   N96  Bn0  v116
 BYTE   N96  Bn1
 BYTE   N12  Dn3  v100
 BYTE   N12  Fs3
 BYTE   N12  Bn3
 BYTE   W24
 BYTE   Dn3
 BYTE   N12  Fs3
 BYTE   N12  Bn3
 BYTE   W24
 BYTE   Dn3
 BYTE   N12  Fs3
 BYTE   N12  Bn3
 BYTE   W24
 BYTE   Dn3
 BYTE   N12  Fs3
 BYTE   N12  Bn3
 BYTE   W24
// 065   ----------------------------------------
 BYTE   N96  Fs0  v116
 BYTE   N96  Fs1
 BYTE   N12  Dn3  v100
 BYTE   N12  Fs3
 BYTE   N12  Bn3
 BYTE   W24
 BYTE   Dn3
 BYTE   N12  Fs3
 BYTE   N12  Bn3
 BYTE   W24
 BYTE   Dn3
 BYTE   N12  Fs3
 BYTE   N12  Bn3
 BYTE   W24
 BYTE   Dn3
 BYTE   N12  Fs3
 BYTE   N12  Bn3
 BYTE   W24
// 066   ----------------------------------------
 BYTE   N96  Gs0  v116
 BYTE   N96  Gs1
 BYTE   N12  En3  v100
 BYTE   N12  Fs3
 BYTE   N12  Bn3
 BYTE   W24
 BYTE   En3
 BYTE   N12  Fs3
 BYTE   N12  Bn3
 BYTE   W24
 BYTE   En3
 BYTE   N12  Fs3
 BYTE   N12  Bn3
 BYTE   W24
 BYTE   En3
 BYTE   N12  Fs3
 BYTE   N12  Bn3
 BYTE   W24
// 067   ----------------------------------------
 BYTE   N96  En0  v116
 BYTE   N96  En1
 BYTE   N12  En3  v100
 BYTE   N12  An3
 BYTE   N12  Bn3
 BYTE   W24
 BYTE   En3
 BYTE   N12  An3
 BYTE   N12  Bn3
 BYTE   W24
 BYTE   En3
 BYTE   N12  An3
 BYTE   N12  Bn3
 BYTE   W24
 BYTE   En3
 BYTE   N12  An3
 BYTE   N12  Bn3
 BYTE   W23
 BYTE   VOL   34*SuperSmashBrosBrawlBossBattleSong1MrGreen3339_mvl/mxv
 BYTE   W01
// 068   ----------------------------------------
 BYTE   N96  Cs1  v116
 BYTE   N96  Cs3  v104
 BYTE   N96  As3
 BYTE   N96  En4  v100
 BYTE   W10
 BYTE   VOL   35*SuperSmashBrosBrawlBossBattleSong1MrGreen3339_mvl/mxv
 BYTE   W18
 BYTE   Bn0
 BYTE   W02
 BYTE   Cn1
 BYTE   W04
 BYTE   Cn1
 BYTE   W02
 BYTE   Cs1
 BYTE   W02
 BYTE   Cs1
 BYTE   W01
 BYTE   Dn1
 BYTE   W01
 BYTE   Dn1
 BYTE   W02
 BYTE   Ds1
 BYTE   W03
 BYTE   Ds1
 BYTE   W02
 BYTE   En1
 BYTE   W02
 BYTE   En1
 BYTE   W01
 BYTE   Fn1
 BYTE   W03
 BYTE   Fs1
 BYTE   W02
 BYTE   Fs1
 BYTE   W02
 BYTE   Gn1
 BYTE   W01
 BYTE   Fs1
 BYTE   W01
 BYTE   Fs1
 BYTE   W01
 BYTE   Gn1
 BYTE   W01
 BYTE   Gs1
 BYTE   W01
 BYTE   An1
 BYTE   W01
 BYTE   As1
 BYTE   W02
 BYTE   Bn1
 BYTE   W01
 BYTE   Cn2
 BYTE   W03
 BYTE   Cn2
 BYTE   W02
 BYTE   Cs2
 BYTE   W01
 BYTE   Cs2
 BYTE   W02
 BYTE   Dn2
 BYTE   W02
 BYTE   Dn2
 BYTE   W01
 BYTE   Ds2
 BYTE   W01
 BYTE   En2
 BYTE   W01
 BYTE   En2
 BYTE   W01
 BYTE   Fn2
 BYTE   W01
 BYTE   Fs2
 BYTE   W01
 BYTE   Fs2
 BYTE   W01
 BYTE   Gn2
 BYTE   W01
 BYTE   Gs2
 BYTE   W01
 BYTE   An2
 BYTE   W01
 BYTE   As2
 BYTE   W01
 BYTE   As2
 BYTE   W01
 BYTE   Bn2
 BYTE   W01
 BYTE   Cn3
 BYTE   W01
 BYTE   Cs3
 BYTE   W02
 BYTE   Cn3
 BYTE   W01
 BYTE   As2
 BYTE   W01
 BYTE   Gs2
 BYTE   W02
// 069   ----------------------------------------
 BYTE   VOICE   1
 BYTE   W96
// 070   ----------------------------------------
 BYTE   GoTo
  POIN2 Label_0_01052551
 BYTE   FINE

//**************** Track 2 (Midi-Chn.1) ****************//

SuperSmashBrosBrawlBossBattleSong1MrGreen3339_002:
// 000   ----------------------------------------
 BYTE   KEYSH   SuperSmashBrosBrawlBossBattleSong1MrGreen3339_key+0
 BYTE   VOICE   2
 BYTE   VOL   49*SuperSmashBrosBrawlBossBattleSong1MrGreen3339_mvl/mxv
 BYTE   W96
// 001   ----------------------------------------
Label_1_010529F6:
 BYTE   W96
// 002   ----------------------------------------
 BYTE   W96
// 003   ----------------------------------------
 BYTE   W96
// 004   ----------------------------------------
 BYTE   W96
// 005   ----------------------------------------
 BYTE   W96
// 006   ----------------------------------------
 BYTE   W96
// 007   ----------------------------------------
 BYTE   W96
// 008   ----------------------------------------
 BYTE   W72
 BYTE   N12  Bn3  v116
 BYTE   N12  Bn4
 BYTE   W12
 BYTE   N06  An3
 BYTE   N06  An4
 BYTE   W06
 BYTE   Gn3
 BYTE   N06  Gn4
 BYTE   W06
// 009   ----------------------------------------
Label_1_01052A0D:
 BYTE   TIE  Fs3  v116
 BYTE   TIE  Fs4
 BYTE   W96
 BYTE   PEND 
// 010   ----------------------------------------
 BYTE   W48
 BYTE   EOT
 BYTE   Fs3  v078
 BYTE   N12  En3
 BYTE   N12  En4
 BYTE   W12
 BYTE   Fs3
 BYTE   N12  Fs4
 BYTE   W12
 BYTE   Gn3
 BYTE   N12  Gn4
 BYTE   W12
 BYTE   N24  An3
 BYTE   N24  An4
 BYTE   W12
// 011   ----------------------------------------
Label_1_01052A2A:
 BYTE   W12
 BYTE   TIE  Fs3  v116
 BYTE   TIE  Fs4
 BYTE   W84
 BYTE   PEND 
// 012   ----------------------------------------
 BYTE   W48
 BYTE   EOT
 BYTE   Fs3  v078
 BYTE   N12  En3
 BYTE   N12  En4
 BYTE   W12
 BYTE   Fs3
 BYTE   N12  Fs4
 BYTE   W12
 BYTE   Gn3
 BYTE   N12  Gn4
 BYTE   W12
 BYTE   N24  An3
 BYTE   N24  An4
 BYTE   W12
 BYTE   PATT
  POIN2 Label_1_01052A2A
// 013   ----------------------------------------
 BYTE   W24
 BYTE   EOT
 BYTE   Fs3  v078
 BYTE   W12
 BYTE   N06  Cs3  v116
 BYTE   N06  Cs4
 BYTE   W06
 BYTE   Dn3
 BYTE   N06  Dn4
 BYTE   W06
 BYTE   N24  En3
 BYTE   N24  En4
 BYTE   W24
 BYTE   N12  Dn3
 BYTE   N12  Dn4
 BYTE   W12
 BYTE   N24  Cs3
 BYTE   N24  Cs4
 BYTE   W12
// 014   ----------------------------------------
 BYTE   W12
 BYTE   Bn2
 BYTE   N24  Bn3
 BYTE   W24
 BYTE   TIE  Fs3
 BYTE   TIE  Fs4
 BYTE   W60
// 015   ----------------------------------------
 BYTE   W48
 BYTE   EOT
 BYTE   Fs3  v078
 BYTE   W24
 BYTE   N12  Bn3
 BYTE   N12  Bn4
 BYTE   W12
 BYTE   N06  An3
 BYTE   N06  An4
 BYTE   W06
 BYTE   Gn3
 BYTE   N06  Gn4
 BYTE   W06
 BYTE   PATT
  POIN2 Label_1_01052A0D
// 016   ----------------------------------------
 BYTE   W48
 BYTE   EOT
 BYTE   Fs3  v078
 BYTE   N12  En3  v116
 BYTE   N12  En4
 BYTE   W12
 BYTE   Fs3
 BYTE   N12  Fs4
 BYTE   W12
 BYTE   Gn3
 BYTE   N12  Gn4
 BYTE   W12
 BYTE   N24  An3
 BYTE   N24  An4
 BYTE   W12
 BYTE   PATT
  POIN2 Label_1_01052A2A
// 017   ----------------------------------------
 BYTE   W48
 BYTE   EOT
 BYTE   Fs3  v078
 BYTE   N12  En3  v116
 BYTE   N12  En4
 BYTE   W12
 BYTE   Fs3
 BYTE   N12  Fs4
 BYTE   W12
 BYTE   Gn3
 BYTE   N12  Gn4
 BYTE   W12
 BYTE   N24  An3
 BYTE   N24  An4
 BYTE   W12
 BYTE   PATT
  POIN2 Label_1_01052A2A
// 018   ----------------------------------------
 BYTE   W24
 BYTE   EOT
 BYTE   Fs3  v078
 BYTE   N12  En3  v104
 BYTE   N12  En4
 BYTE   W12
 BYTE   Dn3
 BYTE   N12  Dn4
 BYTE   W12
 BYTE   N48  Cs3
 BYTE   N48  Cs4
 BYTE   W48
// 019   ----------------------------------------
 BYTE   TIE  Bn2
 BYTE   TIE  Bn3
 BYTE   W96
// 020   ----------------------------------------
 BYTE   W48
 BYTE   EOT
 BYTE   Bn2  v071
 BYTE   W48
// 021   ----------------------------------------
 BYTE   W96
// 022   ----------------------------------------
 BYTE   W96
// 023   ----------------------------------------
 BYTE   W96
// 024   ----------------------------------------
 BYTE   W96
// 025   ----------------------------------------
 BYTE   W96
// 026   ----------------------------------------
 BYTE   W96
// 027   ----------------------------------------
 BYTE   W96
// 028   ----------------------------------------
 BYTE   W96
// 029   ----------------------------------------
 BYTE   W96
// 030   ----------------------------------------
 BYTE   W96
// 031   ----------------------------------------
 BYTE   W96
// 032   ----------------------------------------
 BYTE   W96
// 033   ----------------------------------------
 BYTE   N96  Gn3  v080
 BYTE   N96  Bn3
 BYTE   N96  Dn4
 BYTE   W96
// 034   ----------------------------------------
 BYTE   Bn3  v076
 BYTE   N96  Dn4
 BYTE   N96  Fs4
 BYTE   W96
// 035   ----------------------------------------
 BYTE   W96
// 036   ----------------------------------------
 BYTE   W96
// 037   ----------------------------------------
 BYTE   TIE  Bn3  v084
 BYTE   TIE  Dn4
 BYTE   TIE  Fs4
 BYTE   W96
// 038   ----------------------------------------
 BYTE   W90
 BYTE   EOT
 BYTE   Bn3  v074
 BYTE   Fs4
 BYTE   W06
// 039   ----------------------------------------
 BYTE   W96
// 040   ----------------------------------------
 BYTE   W96
// 041   ----------------------------------------
 BYTE   W96
// 042   ----------------------------------------
 BYTE   W96
// 043   ----------------------------------------
 BYTE   VOL   62*SuperSmashBrosBrawlBossBattleSong1MrGreen3339_mvl/mxv
 BYTE   W96
// 044   ----------------------------------------
 BYTE   W96
// 045   ----------------------------------------
 BYTE   W92
 BYTE   W03
 BYTE   VOICE   3
 BYTE   W01
// 046   ----------------------------------------
 BYTE   W96
// 047   ----------------------------------------
 BYTE   N08  Bn3  v127
 BYTE   N08  Bn4
 BYTE   W08
 BYTE   As3
 BYTE   N08  As4
 BYTE   W08
 BYTE   An3
 BYTE   N08  An4
 BYTE   W08
 BYTE   Gs3
 BYTE   N08  Gs4
 BYTE   W08
 BYTE   An3
 BYTE   N08  An4
 BYTE   W08
 BYTE   As3
 BYTE   N08  As4
 BYTE   W08
 BYTE   Bn3
 BYTE   N08  Bn4
 BYTE   W08
 BYTE   As3
 BYTE   N08  As4
 BYTE   W08
 BYTE   An3  v124
 BYTE   N08  An4
 BYTE   W08
 BYTE   Gs3
 BYTE   N08  Gs4
 BYTE   W08
 BYTE   An3
 BYTE   N08  An4
 BYTE   W08
 BYTE   As3
 BYTE   N08  As4
 BYTE   W08
// 048   ----------------------------------------
 BYTE   Cs4
 BYTE   N08  Cs5
 BYTE   W08
 BYTE   Cn4
 BYTE   N08  Cn5
 BYTE   W08
 BYTE   Bn3
 BYTE   N08  Bn4
 BYTE   W08
 BYTE   As3
 BYTE   N08  As4
 BYTE   W08
 BYTE   Bn3
 BYTE   N08  Bn4
 BYTE   W08
 BYTE   Cn4
 BYTE   N08  Cn5
 BYTE   W08
 BYTE   Cs4
 BYTE   N08  Cs5
 BYTE   W08
 BYTE   Cn4
 BYTE   N08  Cn5
 BYTE   W08
 BYTE   Bn3
 BYTE   N08  Bn4
 BYTE   W08
 BYTE   As3
 BYTE   N08  As4
 BYTE   W08
 BYTE   Bn3
 BYTE   N08  Bn4
 BYTE   W08
 BYTE   Cn4
 BYTE   N08  Cn5
 BYTE   W08
// 049   ----------------------------------------
 BYTE   W96
// 050   ----------------------------------------
 BYTE   W96
// 051   ----------------------------------------
 BYTE   W96
// 052   ----------------------------------------
 BYTE   W96
// 053   ----------------------------------------
 BYTE   W96
// 054   ----------------------------------------
 BYTE   W96
// 055   ----------------------------------------
 BYTE   W96
// 056   ----------------------------------------
 BYTE   W96
// 057   ----------------------------------------
 BYTE   W96
// 058   ----------------------------------------
 BYTE   W96
// 059   ----------------------------------------
 BYTE   W96
// 060   ----------------------------------------
 BYTE   W96
// 061   ----------------------------------------
 BYTE   W96
// 062   ----------------------------------------
 BYTE   N72  Bn4
 BYTE   W72
 BYTE   N24  Cs5
 BYTE   W24
// 063   ----------------------------------------
 BYTE   En5
 BYTE   W24
 BYTE   Dn5
 BYTE   W24
 BYTE   Cs5
 BYTE   W24
 BYTE   Bn4
 BYTE   W24
// 064   ----------------------------------------
 BYTE   N48  Dn5
 BYTE   W48
 BYTE   TIE  Bn4
 BYTE   W48
// 065   ----------------------------------------
 BYTE   W90
 BYTE   EOT
 BYTE   W06
// 066   ----------------------------------------
 BYTE   W68
 BYTE   W03
 BYTE   VOL   49*SuperSmashBrosBrawlBossBattleSong1MrGreen3339_mvl/mxv
 BYTE   W24
 BYTE   W01
// 067   ----------------------------------------
 BYTE   W96
// 068   ----------------------------------------
 BYTE   W96
// 069   ----------------------------------------
 BYTE   W96
// 070   ----------------------------------------
 BYTE   W96
// 071   ----------------------------------------
 BYTE   VOICE   2
 BYTE   W96
// 072   ----------------------------------------
 BYTE   GoTo
  POIN2 Label_1_010529F6
 BYTE   FINE

//**************** Track 3 (Midi-Chn.2) ****************//

SuperSmashBrosBrawlBossBattleSong1MrGreen3339_003:
// 000   ----------------------------------------
 BYTE   KEYSH   SuperSmashBrosBrawlBossBattleSong1MrGreen3339_key+0
 BYTE   VOICE   4
 BYTE   W96
// 001   ----------------------------------------
Label_2_01052BBA:
 BYTE   W96
// 002   ----------------------------------------
 BYTE   W96
// 003   ----------------------------------------
 BYTE   W96
// 004   ----------------------------------------
 BYTE   W44
 BYTE   W01
 BYTE   VOL   48*SuperSmashBrosBrawlBossBattleSong1MrGreen3339_mvl/mxv
 BYTE   W03
 BYTE   Cn2
 BYTE   N48  Cs2  v127
 BYTE   N48  En2
 BYTE   W01
 BYTE   VOL   49*SuperSmashBrosBrawlBossBattleSong1MrGreen3339_mvl/mxv
 BYTE   W01
 BYTE   Dn2
 BYTE   W02
 BYTE   Ds2
 BYTE   W01
 BYTE   En2
 BYTE   W01
 BYTE   En2
 BYTE   W01
 BYTE   Fn2
 BYTE   W01
 BYTE   Fs2
 BYTE   W01
 BYTE   Gn2
 BYTE   W02
 BYTE   Gs2
 BYTE   W01
 BYTE   An2
 BYTE   W01
 BYTE   An2
 BYTE   W01
 BYTE   Bn2
 BYTE   W01
 BYTE   Bn2
 BYTE   W02
 BYTE   Cs3
 BYTE   W01
 BYTE   Dn3
 BYTE   W01
 BYTE   Ds3
 BYTE   W01
 BYTE   En3
 BYTE   W02
 BYTE   Fn3
 BYTE   W19
 BYTE   En3
 BYTE   W03
 BYTE   Fn3
 BYTE   W04
// 005   ----------------------------------------
 BYTE   N12  Fs2
 BYTE   N12  Bn2
 BYTE   W96
// 006   ----------------------------------------
 BYTE   N18  Fs2
 BYTE   N18  Bn2
 BYTE   W48
 BYTE   N24  En2
 BYTE   N24  An2
 BYTE   W48
// 007   ----------------------------------------
 BYTE   W96
// 008   ----------------------------------------
 BYTE   W96
// 009   ----------------------------------------
 BYTE   W96
// 010   ----------------------------------------
 BYTE   W96
// 011   ----------------------------------------
 BYTE   W96
// 012   ----------------------------------------
 BYTE   W96
// 013   ----------------------------------------
 BYTE   W96
// 014   ----------------------------------------
 BYTE   W96
// 015   ----------------------------------------
 BYTE   W96
// 016   ----------------------------------------
 BYTE   W36
 BYTE   W02
 BYTE   VOL   48*SuperSmashBrosBrawlBossBattleSong1MrGreen3339_mvl/mxv
 BYTE   W01
 BYTE   Cn2
 BYTE   W01
 BYTE   Cs2
 BYTE   W01
 BYTE   Cs2
 BYTE   W01
 BYTE   Dn2
 BYTE   W01
 BYTE   Dn2
 BYTE   W01
 BYTE   Dn2
 BYTE   W02
 BYTE   Dn2
 BYTE   W02
 BYTE   Ds2
 BYTE   N48  Cs2
 BYTE   N48  En2
 BYTE   W02
 BYTE   VOL   52*SuperSmashBrosBrawlBossBattleSong1MrGreen3339_mvl/mxv
 BYTE   W01
 BYTE   En2
 BYTE   W01
 BYTE   Fn2
 BYTE   W02
 BYTE   Fn2
 BYTE   W01
 BYTE   Fs2
 BYTE   W02
 BYTE   Gn2
 BYTE   W01
 BYTE   Gs2
 BYTE   W01
 BYTE   Gs2
 BYTE   W01
 BYTE   An2
 BYTE   W01
 BYTE   An2
 BYTE   W01
 BYTE   As2
 BYTE   W01
 BYTE   As2
 BYTE   W01
 BYTE   Bn2
 BYTE   W02
 BYTE   Cn3
 BYTE   W01
 BYTE   Cn3
 BYTE   W01
 BYTE   Cs3
 BYTE   W01
 BYTE   Cs3
 BYTE   W01
 BYTE   Dn3
 BYTE   W01
 BYTE   Ds3
 BYTE   W01
 BYTE   En3
 BYTE   W01
 BYTE   Fn3
 BYTE   W14
 BYTE   Cs3
 BYTE   W01
 BYTE   Fn3
 BYTE   W08
// 017   ----------------------------------------
 BYTE   N12  Fs2  v112
 BYTE   N12  Bn2  v116
 BYTE   W96
// 018   ----------------------------------------
 BYTE   W96
// 019   ----------------------------------------
 BYTE   W96
// 020   ----------------------------------------
 BYTE   W96
// 021   ----------------------------------------
 BYTE   W96
// 022   ----------------------------------------
 BYTE   W96
// 023   ----------------------------------------
 BYTE   W96
// 024   ----------------------------------------
 BYTE   W96
// 025   ----------------------------------------
 BYTE   W96
// 026   ----------------------------------------
 BYTE   W44
 BYTE   W01
 BYTE   VOL   48*SuperSmashBrosBrawlBossBattleSong1MrGreen3339_mvl/mxv
 BYTE   W03
 BYTE   Cn2
 BYTE   N48  Cs2
 BYTE   N48  En2
 BYTE   W01
 BYTE   VOL   49*SuperSmashBrosBrawlBossBattleSong1MrGreen3339_mvl/mxv
 BYTE   W01
 BYTE   Dn2
 BYTE   W02
 BYTE   Ds2
 BYTE   W01
 BYTE   En2
 BYTE   W01
 BYTE   En2
 BYTE   W01
 BYTE   Fn2
 BYTE   W01
 BYTE   Fs2
 BYTE   W01
 BYTE   Gn2
 BYTE   W02
 BYTE   Gs2
 BYTE   W01
 BYTE   An2
 BYTE   W01
 BYTE   An2
 BYTE   W01
 BYTE   Bn2
 BYTE   W01
 BYTE   Bn2
 BYTE   W02
 BYTE   Cs3
 BYTE   W01
 BYTE   Dn3
 BYTE   W01
 BYTE   Ds3
 BYTE   W01
 BYTE   En3
 BYTE   W02
 BYTE   Fn3
 BYTE   W19
 BYTE   En3
 BYTE   W03
 BYTE   Fn3
 BYTE   W04
// 027   ----------------------------------------
 BYTE   N12  Fs2  v124
 BYTE   N12  Bn2
 BYTE   W96
// 028   ----------------------------------------
 BYTE   W44
 BYTE   W01
 BYTE   VOL   48*SuperSmashBrosBrawlBossBattleSong1MrGreen3339_mvl/mxv
 BYTE   W03
 BYTE   Cn2
 BYTE   N48  An2  v108
 BYTE   N48  Cs3
 BYTE   W01
 BYTE   VOL   49*SuperSmashBrosBrawlBossBattleSong1MrGreen3339_mvl/mxv
 BYTE   W01
 BYTE   Dn2
 BYTE   W02
 BYTE   Ds2
 BYTE   W01
 BYTE   En2
 BYTE   W01
 BYTE   En2
 BYTE   W01
 BYTE   Fn2
 BYTE   W01
 BYTE   Fs2
 BYTE   W01
 BYTE   Gn2
 BYTE   W02
 BYTE   Gs2
 BYTE   W01
 BYTE   An2
 BYTE   W01
 BYTE   An2
 BYTE   W01
 BYTE   Bn2
 BYTE   W01
 BYTE   Bn2
 BYTE   W02
 BYTE   Cs3
 BYTE   W01
 BYTE   Dn3
 BYTE   W01
 BYTE   Ds3
 BYTE   W01
 BYTE   En3
 BYTE   W02
 BYTE   Fn3
 BYTE   W19
 BYTE   En3
 BYTE   W03
 BYTE   Fn3
 BYTE   W04
// 029   ----------------------------------------
 BYTE   N12  Fs2  v112
 BYTE   N12  Bn2
 BYTE   W96
// 030   ----------------------------------------
 BYTE   W44
 BYTE   W01
 BYTE   VOL   48*SuperSmashBrosBrawlBossBattleSong1MrGreen3339_mvl/mxv
 BYTE   W03
 BYTE   Cn2
 BYTE   N48  Cs2  v104
 BYTE   N48  En2
 BYTE   W01
 BYTE   VOL   49*SuperSmashBrosBrawlBossBattleSong1MrGreen3339_mvl/mxv
 BYTE   W01
 BYTE   Dn2
 BYTE   W02
 BYTE   Ds2
 BYTE   W01
 BYTE   En2
 BYTE   W01
 BYTE   En2
 BYTE   W01
 BYTE   Fn2
 BYTE   W01
 BYTE   Fs2
 BYTE   W01
 BYTE   Gn2
 BYTE   W02
 BYTE   Gs2
 BYTE   W01
 BYTE   An2
 BYTE   W01
 BYTE   An2
 BYTE   W01
 BYTE   Bn2
 BYTE   W01
 BYTE   Bn2
 BYTE   W02
 BYTE   Cs3
 BYTE   W01
 BYTE   Dn3
 BYTE   W01
 BYTE   Ds3
 BYTE   W01
 BYTE   En3
 BYTE   W02
 BYTE   Fn3
 BYTE   W19
 BYTE   En3
 BYTE   W03
 BYTE   Fn3
 BYTE   W04
// 031   ----------------------------------------
 BYTE   N12  Fs2  v116
 BYTE   N12  Bn2
 BYTE   W96
// 032   ----------------------------------------
 BYTE   W96
// 033   ----------------------------------------
 BYTE   W96
// 034   ----------------------------------------
 BYTE   W96
// 035   ----------------------------------------
 BYTE   W96
// 036   ----------------------------------------
 BYTE   W96
// 037   ----------------------------------------
 BYTE   W96
// 038   ----------------------------------------
 BYTE   W96
// 039   ----------------------------------------
 BYTE   N48  Cs2  v100
 BYTE   W48
 BYTE   Bn1
 BYTE   W48
// 040   ----------------------------------------
 BYTE   N24  En2
 BYTE   W24
 BYTE   Dn2
 BYTE   W24
 BYTE   N48  Cs2
 BYTE   W48
// 041   ----------------------------------------
 BYTE   TIE  Bn1
 BYTE   W96
// 042   ----------------------------------------
 BYTE   W42
 BYTE   EOT
 BYTE   W54
// 043   ----------------------------------------
 BYTE   N42  Cs2  v127
 BYTE   W48
 BYTE   N96  An2
 BYTE   W48
// 044   ----------------------------------------
 BYTE   W48
 BYTE   N48  Gn2
 BYTE   W48
// 045   ----------------------------------------
 BYTE   TIE  Fs2
 BYTE   W96
// 046   ----------------------------------------
 BYTE   W24
 BYTE   EOT
 BYTE   N24  Bn2
 BYTE   W24
 BYTE   N48  An2
 BYTE   W48
// 047   ----------------------------------------
 BYTE   N96  Gs2
 BYTE   W96
// 048   ----------------------------------------
 BYTE   N48  Cs3
 BYTE   W48
 BYTE   Bn2
 BYTE   W48
// 049   ----------------------------------------
 BYTE   Cs3
 BYTE   W48
 BYTE   TIE  Fs3  v120
 BYTE   W48
// 050   ----------------------------------------
 BYTE   W80
 BYTE   EOT
 BYTE   W16
// 051   ----------------------------------------
 BYTE   N16  Fs2  v072
 BYTE   N16  As2
 BYTE   W24
 BYTE   Fs2
 BYTE   N16  As2  v068
 BYTE   W24
 BYTE   Fs2  v072
 BYTE   N16  As2
 BYTE   W24
 BYTE   Fs2
 BYTE   N16  As2
 BYTE   W24
// 052   ----------------------------------------
 BYTE   Gs2
 BYTE   N16  Cs3  v068
 BYTE   W24
 BYTE   Gs2  v072
 BYTE   N16  Cs3
 BYTE   W24
 BYTE   Gs2
 BYTE   N16  Cs3
 BYTE   W24
 BYTE   Gs2
 BYTE   N16  Cs3  v068
 BYTE   W24
// 053   ----------------------------------------
 BYTE   W96
// 054   ----------------------------------------
 BYTE   W96
// 055   ----------------------------------------
 BYTE   W96
// 056   ----------------------------------------
 BYTE   W96
// 057   ----------------------------------------
 BYTE   W96
// 058   ----------------------------------------
 BYTE   W96
// 059   ----------------------------------------
 BYTE   W96
// 060   ----------------------------------------
 BYTE   W96
// 061   ----------------------------------------
 BYTE   N90  Cs2  v096
 BYTE   N90  Cs3
 BYTE   W96
// 062   ----------------------------------------
 BYTE   TIE  Fs1  v088
 BYTE   TIE  Fs2
 BYTE   W96
// 063   ----------------------------------------
 BYTE   W90
 BYTE   EOT
 BYTE   Fs1  v054
 BYTE   W06
// 064   ----------------------------------------
 BYTE   W96
// 065   ----------------------------------------
 BYTE   W96
// 066   ----------------------------------------
 BYTE   W96
// 067   ----------------------------------------
 BYTE   W96
// 068   ----------------------------------------
 BYTE   W96
// 069   ----------------------------------------
 BYTE   W96
// 070   ----------------------------------------
 BYTE   N48  Fs3  v127
 BYTE   W48
 BYTE   N24
 BYTE   W24
 BYTE   Gn3
 BYTE   W24
// 071   ----------------------------------------
 BYTE   N20  Fs3
 BYTE   W24
 BYTE   N24  En3
 BYTE   W24
 BYTE   N48  Dn3
 BYTE   W48
// 072   ----------------------------------------
 BYTE   N92  Cs3
 BYTE   W96
// 073   ----------------------------------------
 BYTE   An3
 BYTE   W96
// 074   ----------------------------------------
 BYTE   W96
// 075   ----------------------------------------
 BYTE   W96
// 076   ----------------------------------------
 BYTE   GoTo
  POIN2 Label_2_01052BBA
 BYTE   FINE

//**************** Track 4 (Midi-Chn.3) ****************//

SuperSmashBrosBrawlBossBattleSong1MrGreen3339_004:
// 000   ----------------------------------------
 BYTE   KEYSH   SuperSmashBrosBrawlBossBattleSong1MrGreen3339_key+0
 BYTE   VOICE   5
 BYTE   W96
// 001   ----------------------------------------
Label_3_01052DBC:
 BYTE   W96
// 002   ----------------------------------------
 BYTE   W96
// 003   ----------------------------------------
 BYTE   W96
// 004   ----------------------------------------
Label_3_01052DBF:
 BYTE   W44
 BYTE   W01
 BYTE   VOL   48*SuperSmashBrosBrawlBossBattleSong1MrGreen3339_mvl/mxv
 BYTE   W03
 BYTE   Cn2
 BYTE   N48  Cs2  v108
 BYTE   N48  En2
 BYTE   W01
 BYTE   VOL   49*SuperSmashBrosBrawlBossBattleSong1MrGreen3339_mvl/mxv
 BYTE   W01
 BYTE   Dn2
 BYTE   W02
 BYTE   Ds2
 BYTE   W01
 BYTE   En2
 BYTE   W01
 BYTE   En2
 BYTE   W01
 BYTE   Fn2
 BYTE   W01
 BYTE   Fs2
 BYTE   W01
 BYTE   Gn2
 BYTE   W02
 BYTE   Gs2
 BYTE   W01
 BYTE   An2
 BYTE   W01
 BYTE   An2
 BYTE   W01
 BYTE   Bn2
 BYTE   W01
 BYTE   Bn2
 BYTE   W02
 BYTE   Cs3
 BYTE   W01
 BYTE   Dn3
 BYTE   W01
 BYTE   Ds3
 BYTE   W01
 BYTE   En3
 BYTE   W02
 BYTE   Fn3
 BYTE   W19
 BYTE   En3
 BYTE   W03
 BYTE   Fn3
 BYTE   W04
 BYTE   PEND 
// 005   ----------------------------------------
 BYTE   N12  Fs2  v104
 BYTE   N12  Bn2
 BYTE   W96
// 006   ----------------------------------------
 BYTE   N18  Fs2  v080
 BYTE   N18  Bn2
 BYTE   W48
 BYTE   N24  En2  v072
 BYTE   N24  An2
 BYTE   W48
// 007   ----------------------------------------
 BYTE   W96
// 008   ----------------------------------------
 BYTE   W96
// 009   ----------------------------------------
 BYTE   W96
// 010   ----------------------------------------
 BYTE   W96
// 011   ----------------------------------------
 BYTE   W96
// 012   ----------------------------------------
 BYTE   W96
// 013   ----------------------------------------
 BYTE   W96
// 014   ----------------------------------------
 BYTE   W96
// 015   ----------------------------------------
 BYTE   W96
// 016   ----------------------------------------
 BYTE   W36
 BYTE   W02
 BYTE   VOL   48*SuperSmashBrosBrawlBossBattleSong1MrGreen3339_mvl/mxv
 BYTE   W01
 BYTE   Cn2
 BYTE   W01
 BYTE   Cs2
 BYTE   W01
 BYTE   Cs2
 BYTE   W01
 BYTE   Dn2
 BYTE   W01
 BYTE   Dn2
 BYTE   W01
 BYTE   Dn2
 BYTE   W02
 BYTE   Dn2
 BYTE   W02
 BYTE   Ds2
 BYTE   N48  Cs2  v112
 BYTE   N48  En2
 BYTE   W02
 BYTE   VOL   52*SuperSmashBrosBrawlBossBattleSong1MrGreen3339_mvl/mxv
 BYTE   W01
 BYTE   En2
 BYTE   W01
 BYTE   Fn2
 BYTE   W02
 BYTE   Fn2
 BYTE   W01
 BYTE   Fs2
 BYTE   W02
 BYTE   Gn2
 BYTE   W01
 BYTE   Gs2
 BYTE   W01
 BYTE   Gs2
 BYTE   W01
 BYTE   An2
 BYTE   W01
 BYTE   An2
 BYTE   W01
 BYTE   As2
 BYTE   W01
 BYTE   As2
 BYTE   W01
 BYTE   Bn2
 BYTE   W02
 BYTE   Cn3
 BYTE   W01
 BYTE   Cn3
 BYTE   W01
 BYTE   Cs3
 BYTE   W01
 BYTE   Cs3
 BYTE   W01
 BYTE   Dn3
 BYTE   W01
 BYTE   Ds3
 BYTE   W01
 BYTE   En3
 BYTE   W01
 BYTE   Fn3
 BYTE   W14
 BYTE   Cs3
 BYTE   W01
 BYTE   Fn3
 BYTE   W08
// 017   ----------------------------------------
 BYTE   N12  Fs2  v104
 BYTE   N12  Bn2
 BYTE   W96
// 018   ----------------------------------------
 BYTE   W96
// 019   ----------------------------------------
 BYTE   W96
// 020   ----------------------------------------
 BYTE   W96
// 021   ----------------------------------------
 BYTE   W96
// 022   ----------------------------------------
 BYTE   W96
// 023   ----------------------------------------
 BYTE   W96
// 024   ----------------------------------------
 BYTE   W96
// 025   ----------------------------------------
 BYTE   W96
 BYTE   PATT
  POIN2 Label_3_01052DBF
// 026   ----------------------------------------
 BYTE   N12  Fs2  v104
 BYTE   N12  Bn2
 BYTE   W96
// 027   ----------------------------------------
 BYTE   W44
 BYTE   W01
 BYTE   VOL   48*SuperSmashBrosBrawlBossBattleSong1MrGreen3339_mvl/mxv
 BYTE   W03
 BYTE   Cn2
 BYTE   N48  An2  v108
 BYTE   N48  Cs3
 BYTE   W01
 BYTE   VOL   49*SuperSmashBrosBrawlBossBattleSong1MrGreen3339_mvl/mxv
 BYTE   W01
 BYTE   Dn2
 BYTE   W02
 BYTE   Ds2
 BYTE   W01
 BYTE   En2
 BYTE   W01
 BYTE   En2
 BYTE   W01
 BYTE   Fn2
 BYTE   W01
 BYTE   Fs2
 BYTE   W01
 BYTE   Gn2
 BYTE   W02
 BYTE   Gs2
 BYTE   W01
 BYTE   An2
 BYTE   W01
 BYTE   An2
 BYTE   W01
 BYTE   Bn2
 BYTE   W01
 BYTE   Bn2
 BYTE   W02
 BYTE   Cs3
 BYTE   W01
 BYTE   Dn3
 BYTE   W01
 BYTE   Ds3
 BYTE   W01
 BYTE   En3
 BYTE   W02
 BYTE   Fn3
 BYTE   W19
 BYTE   En3
 BYTE   W03
 BYTE   Fn3
 BYTE   W04
// 028   ----------------------------------------
 BYTE   N12  Fs2  v104
 BYTE   N12  Bn2
 BYTE   W96
 BYTE   PATT
  POIN2 Label_3_01052DBF
// 029   ----------------------------------------
 BYTE   N12  Fs2  v104
 BYTE   N12  Bn2
 BYTE   W96
// 030   ----------------------------------------
 BYTE   W96
// 031   ----------------------------------------
 BYTE   W96
// 032   ----------------------------------------
 BYTE   W96
// 033   ----------------------------------------
 BYTE   W96
// 034   ----------------------------------------
 BYTE   W96
// 035   ----------------------------------------
 BYTE   W96
// 036   ----------------------------------------
 BYTE   W96
// 037   ----------------------------------------
 BYTE   N48  Cs2  v100
 BYTE   W48
 BYTE   Bn1
 BYTE   W48
// 038   ----------------------------------------
 BYTE   N24  En2
 BYTE   W24
 BYTE   Dn2
 BYTE   W24
 BYTE   N48  Cs2
 BYTE   W48
// 039   ----------------------------------------
 BYTE   TIE  Bn1
 BYTE   W96
// 040   ----------------------------------------
 BYTE   W42
 BYTE   EOT
 BYTE   W54
// 041   ----------------------------------------
 BYTE   N42  Cs2  v127
 BYTE   W48
 BYTE   N96  An2
 BYTE   W48
// 042   ----------------------------------------
 BYTE   W48
 BYTE   N48  Gn2
 BYTE   W48
// 043   ----------------------------------------
 BYTE   TIE  Fs2
 BYTE   W96
// 044   ----------------------------------------
 BYTE   W24
 BYTE   EOT
 BYTE   N24  Bn2
 BYTE   W24
 BYTE   N48  An2
 BYTE   W48
// 045   ----------------------------------------
 BYTE   N96  Gs2
 BYTE   W96
// 046   ----------------------------------------
 BYTE   N48  Cs3
 BYTE   W48
 BYTE   Bn2
 BYTE   W48
// 047   ----------------------------------------
 BYTE   Cs3
 BYTE   W48
 BYTE   TIE  Fs3  v120
 BYTE   W48
// 048   ----------------------------------------
 BYTE   W80
 BYTE   EOT
 BYTE   W16
// 049   ----------------------------------------
 BYTE   W96
// 050   ----------------------------------------
 BYTE   W96
// 051   ----------------------------------------
 BYTE   W96
// 052   ----------------------------------------
 BYTE   W96
// 053   ----------------------------------------
 BYTE   W96
// 054   ----------------------------------------
 BYTE   W96
// 055   ----------------------------------------
 BYTE   W96
// 056   ----------------------------------------
 BYTE   W96
// 057   ----------------------------------------
 BYTE   W96
// 058   ----------------------------------------
 BYTE   W96
// 059   ----------------------------------------
 BYTE   N90  Cs2  v124
 BYTE   N90  Cs3
 BYTE   W96
// 060   ----------------------------------------
 BYTE   W96
// 061   ----------------------------------------
 BYTE   W96
// 062   ----------------------------------------
 BYTE   W96
// 063   ----------------------------------------
 BYTE   W96
// 064   ----------------------------------------
 BYTE   N12  Bn2  v088
 BYTE   N12  Dn3
 BYTE   N12  Fs3
 BYTE   W12
 BYTE   Bn2
 BYTE   N12  Dn3
 BYTE   N12  Fs3
 BYTE   W24
 BYTE   Bn2
 BYTE   N12  Dn3
 BYTE   N12  Fs3
 BYTE   W12
 BYTE   Bn2
 BYTE   N12  Dn3
 BYTE   N12  Fs3
 BYTE   W48
// 065   ----------------------------------------
 BYTE   Bn2
 BYTE   N12  Cs3
 BYTE   N12  Fs3
 BYTE   W12
 BYTE   Bn2
 BYTE   N12  Cs3
 BYTE   N12  Fs3
 BYTE   W24
 BYTE   Bn2
 BYTE   N12  Cs3
 BYTE   N12  Fs3
 BYTE   W12
 BYTE   Bn2
 BYTE   N12  Cs3
 BYTE   N12  Fs3
 BYTE   W48
// 066   ----------------------------------------
 BYTE   Bn2
 BYTE   N12  En3
 BYTE   N12  Fs3
 BYTE   W12
 BYTE   Bn2
 BYTE   N12  En3
 BYTE   N12  Fs3
 BYTE   W24
 BYTE   Bn2
 BYTE   N12  En3
 BYTE   N12  Fs3
 BYTE   W12
 BYTE   Bn2
 BYTE   N12  En3
 BYTE   N12  Fs3
 BYTE   W48
// 067   ----------------------------------------
 BYTE   Bn2
 BYTE   N12  En3
 BYTE   N12  An3
 BYTE   W12
 BYTE   Bn2
 BYTE   N12  En3
 BYTE   N12  An3
 BYTE   W24
 BYTE   Bn2
 BYTE   N12  En3
 BYTE   N12  An3
 BYTE   W12
 BYTE   Bn2
 BYTE   N12  En3
 BYTE   N12  An3
 BYTE   W48
// 068   ----------------------------------------
Label_3_01052F70:
 BYTE   N12  Bn2  v088
 BYTE   N12  Dn3
 BYTE   N12  Fs3
 BYTE   W12
 BYTE   Bn2
 BYTE   N12  Dn3
 BYTE   N12  Fs3
 BYTE   W24
 BYTE   N06  Bn2
 BYTE   N06  Dn3
 BYTE   N06  Fs3
 BYTE   W06
 BYTE   Bn2
 BYTE   N06  Dn3
 BYTE   N06  Fs3
 BYTE   W06
 BYTE   N12  Bn2
 BYTE   N12  Dn3
 BYTE   N12  Fs3
 BYTE   W48
 BYTE   PEND 
 BYTE   PATT
  POIN2 Label_3_01052F70
// 069   ----------------------------------------
 BYTE   N12  Bn2  v088
 BYTE   N12  En3
 BYTE   N12  Fs3
 BYTE   W12
 BYTE   Bn2
 BYTE   N12  En3
 BYTE   N12  Fs3
 BYTE   W24
 BYTE   N06  Bn2
 BYTE   N06  En3
 BYTE   N06  Fs3
 BYTE   W06
 BYTE   Bn2
 BYTE   N06  En3
 BYTE   N06  Fs3
 BYTE   W06
 BYTE   N12  Bn2
 BYTE   N12  En3
 BYTE   N12  Fs3
 BYTE   W48
// 070   ----------------------------------------
 BYTE   Bn2
 BYTE   N12  En3
 BYTE   N12  An3
 BYTE   W12
 BYTE   Bn2
 BYTE   N12  En3
 BYTE   N12  An3
 BYTE   W24
 BYTE   N06  Bn2
 BYTE   N06  En3
 BYTE   N06  An3
 BYTE   W06
 BYTE   Bn2
 BYTE   N06  En3
 BYTE   N06  An3
 BYTE   W06
 BYTE   N12  Bn2
 BYTE   N12  En3
 BYTE   N12  An3
 BYTE   W48
// 071   ----------------------------------------
 BYTE   W96
// 072   ----------------------------------------
 BYTE   W96
// 073   ----------------------------------------
 BYTE   GoTo
  POIN2 Label_3_01052DBC
 BYTE   FINE

//**************** Track 5 (Midi-Chn.4) ****************//

SuperSmashBrosBrawlBossBattleSong1MrGreen3339_005:
// 000   ----------------------------------------
 BYTE   KEYSH   SuperSmashBrosBrawlBossBattleSong1MrGreen3339_key+0
 BYTE   VOICE   6
 BYTE   VOL   65*SuperSmashBrosBrawlBossBattleSong1MrGreen3339_mvl/mxv
 BYTE   W96
// 001   ----------------------------------------
Label_4_01052FE9:
 BYTE   N24  Bn0  v108
 BYTE   W24
 BYTE   N12  Fs0  v112
 BYTE   W12
 BYTE   N24  Bn0
 BYTE   W24
 BYTE   N12  Fs0
 BYTE   W12
 BYTE   N24  Bn0
 BYTE   W24
 BYTE   PEND 
// 002   ----------------------------------------
Label_4_01052FFB:
 BYTE   N12  Fs0  v112
 BYTE   W12
 BYTE   N24  Bn0
 BYTE   W24
 BYTE   N12  Fs0
 BYTE   W12
 BYTE   N24  Cs1
 BYTE   W24
 BYTE   N24
 BYTE   W24
 BYTE   PEND 
 BYTE   PATT
  POIN2 Label_4_01052FE9
// 003   ----------------------------------------
Label_4_01053010:
 BYTE   N12  Fs0  v112
 BYTE   W12
 BYTE   N24  Bn0
 BYTE   W24
 BYTE   N12  Fs0
 BYTE   W12
 BYTE   N24  An0
 BYTE   W24
 BYTE   N24
 BYTE   W24
 BYTE   PEND 
 BYTE   PATT
  POIN2 Label_4_01052FE9
 BYTE   PATT
  POIN2 Label_4_01052FFB
 BYTE   PATT
  POIN2 Label_4_01052FE9
 BYTE   PATT
  POIN2 Label_4_01053010
 BYTE   PATT
  POIN2 Label_4_01052FE9
 BYTE   PATT
  POIN2 Label_4_01052FFB
 BYTE   PATT
  POIN2 Label_4_01052FE9
 BYTE   PATT
  POIN2 Label_4_01053010
 BYTE   PATT
  POIN2 Label_4_01052FE9
 BYTE   PATT
  POIN2 Label_4_01052FFB
 BYTE   PATT
  POIN2 Label_4_01052FE9
 BYTE   PATT
  POIN2 Label_4_01053010
 BYTE   PATT
  POIN2 Label_4_01052FE9
 BYTE   PATT
  POIN2 Label_4_01052FFB
 BYTE   PATT
  POIN2 Label_4_01052FE9
 BYTE   PATT
  POIN2 Label_4_01053010
 BYTE   PATT
  POIN2 Label_4_01052FE9
// 004   ----------------------------------------
 BYTE   N24  En1  v120
 BYTE   W24
 BYTE   N24
 BYTE   W24
 BYTE   Fs1  v112
 BYTE   W24
 BYTE   N24
 BYTE   W24
 BYTE   PATT
  POIN2 Label_4_01052FE9
// 005   ----------------------------------------
 BYTE   N12  Fs0  v112
 BYTE   W12
 BYTE   N24  Bn0  v127
 BYTE   W24
 BYTE   N12  Fs0
 BYTE   W12
 BYTE   Bn0
 BYTE   W12
 BYTE   Fs0
 BYTE   W12
 BYTE   Bn1
 BYTE   W12
 BYTE   Bn0
 BYTE   W12
 BYTE   PATT
  POIN2 Label_4_01052FE9
 BYTE   PATT
  POIN2 Label_4_01052FFB
 BYTE   PATT
  POIN2 Label_4_01052FE9
 BYTE   PATT
  POIN2 Label_4_01053010
 BYTE   PATT
  POIN2 Label_4_01052FE9
 BYTE   PATT
  POIN2 Label_4_01052FFB
 BYTE   PATT
  POIN2 Label_4_01052FE9
 BYTE   PATT
  POIN2 Label_4_01053010
// 006   ----------------------------------------
 BYTE   N18  Bn0  v124
 BYTE   W36
 BYTE   N18
 BYTE   W36
 BYTE   N12
 BYTE   W24
// 007   ----------------------------------------
 BYTE   N78  Bn0  v108
 BYTE   N78  Bn1
 BYTE   W96
// 008   ----------------------------------------
 BYTE   W96
// 009   ----------------------------------------
 BYTE   W96
// 010   ----------------------------------------
 BYTE   N18  Dn1  v116
 BYTE   W24
 BYTE   N12
 BYTE   W12
 BYTE   Bn0
 BYTE   W12
 BYTE   Dn1  v112
 BYTE   W12
 BYTE   Bn0
 BYTE   W12
 BYTE   Dn1
 BYTE   W12
 BYTE   Bn0
 BYTE   W12
// 011   ----------------------------------------
 BYTE   N24  Bn1
 BYTE   W24
 BYTE   N12
 BYTE   W12
 BYTE   Fs1
 BYTE   W12
 BYTE   Bn1
 BYTE   W12
 BYTE   Fs1  v116
 BYTE   W12
 BYTE   Bn1
 BYTE   W12
 BYTE   Fs1
 BYTE   W12
// 012   ----------------------------------------
 BYTE   W96
// 013   ----------------------------------------
 BYTE   W96
// 014   ----------------------------------------
 BYTE   N18  Bn1  v124
 BYTE   W24
 BYTE   N12
 BYTE   W12
 BYTE   Fs1
 BYTE   W12
 BYTE   Bn1
 BYTE   W12
 BYTE   Fs1  v120
 BYTE   W12
 BYTE   Bn1
 BYTE   W12
 BYTE   Fs1
 BYTE   W12
// 015   ----------------------------------------
 BYTE   W12
 BYTE   Bn1  v124
 BYTE   W12
 BYTE   N12
 BYTE   W12
 BYTE   Fs1
 BYTE   W12
 BYTE   Bn1
 BYTE   W12
 BYTE   Fs1  v127
 BYTE   W12
 BYTE   Bn1  v120
 BYTE   W12
 BYTE   Fs1  v116
 BYTE   W12
// 016   ----------------------------------------
 BYTE   N36  An1  v124
 BYTE   W36
 BYTE   N84
 BYTE   W60
// 017   ----------------------------------------
 BYTE   W24
 BYTE   N24  En1  v127
 BYTE   W24
 BYTE   An1  v124
 BYTE   W24
 BYTE   En1
 BYTE   W24
// 018   ----------------------------------------
 BYTE   N36  Dn1
 BYTE   W36
 BYTE   N84  Dn1  v127
 BYTE   W60
// 019   ----------------------------------------
 BYTE   W24
 BYTE   N24
 BYTE   W24
 BYTE   An0
 BYTE   W24
 BYTE   Dn1
 BYTE   W24
// 020   ----------------------------------------
 BYTE   N30  Cs1
 BYTE   W36
 BYTE   N78
 BYTE   W60
// 021   ----------------------------------------
 BYTE   W24
 BYTE   N12  Bn0
 BYTE   W12
 BYTE   Cn1
 BYTE   W12
 BYTE   N24  Cs1
 BYTE   W24
 BYTE   Gs0
 BYTE   W24
// 022   ----------------------------------------
 BYTE   N36  Fs0
 BYTE   W36
 BYTE   N84
 BYTE   W60
// 023   ----------------------------------------
 BYTE   W24
 BYTE   N24  Cs1
 BYTE   W24
 BYTE   Fs1
 BYTE   W24
 BYTE   Cs1
 BYTE   W24
// 024   ----------------------------------------
 BYTE   N12  As0  v116
 BYTE   W12
 BYTE   Fs0
 BYTE   W12
 BYTE   N12
 BYTE   W12
 BYTE   N30  As0
 BYTE   W36
 BYTE   N12  Fs0
 BYTE   W12
 BYTE   As0
 BYTE   W12
// 025   ----------------------------------------
 BYTE   Cs1
 BYTE   W12
 BYTE   An0
 BYTE   W12
 BYTE   N12
 BYTE   W12
 BYTE   N24  Cs1
 BYTE   W24
 BYTE   N12  An0
 BYTE   W12
 BYTE   Cs1
 BYTE   W12
 BYTE   An0
 BYTE   W12
// 026   ----------------------------------------
Label_4_01053172:
 BYTE   N16  Fs1  v127
 BYTE   W24
 BYTE   Cs1
 BYTE   W24
 BYTE   Fs1
 BYTE   W24
 BYTE   Cs1
 BYTE   W24
 BYTE   PEND 
// 027   ----------------------------------------
Label_4_0105317D:
 BYTE   N16  Dn1  v127
 BYTE   W24
 BYTE   Fn1
 BYTE   W24
 BYTE   Cs1
 BYTE   W24
 BYTE   Fn1
 BYTE   W24
 BYTE   PEND 
 BYTE   PATT
  POIN2 Label_4_01053172
 BYTE   PATT
  POIN2 Label_4_0105317D
 BYTE   PATT
  POIN2 Label_4_01053172
 BYTE   PATT
  POIN2 Label_4_0105317D
 BYTE   PATT
  POIN2 Label_4_01053172
 BYTE   PATT
  POIN2 Label_4_0105317D
// 028   ----------------------------------------
 BYTE   N96  Cs1  v124
 BYTE   W96
// 029   ----------------------------------------
 BYTE   TIE  Fs0  v120
 BYTE   W96
// 030   ----------------------------------------
 BYTE   W96
// 031   ----------------------------------------
 BYTE   EOT
 BYTE   W96
// 032   ----------------------------------------
 BYTE   W96
// 033   ----------------------------------------
 BYTE   N84  Bn0  v127
 BYTE   W96
// 034   ----------------------------------------
 BYTE   Fs0
 BYTE   W96
// 035   ----------------------------------------
 BYTE   Gs0
 BYTE   W96
// 036   ----------------------------------------
 BYTE   En0
 BYTE   W96
// 037   ----------------------------------------
 BYTE   W96
// 038   ----------------------------------------
 BYTE   W96
// 039   ----------------------------------------
 BYTE   W96
// 040   ----------------------------------------
 BYTE   W96
// 041   ----------------------------------------
 BYTE   N96  Cs1
 BYTE   W96
// 042   ----------------------------------------
 BYTE   W96
// 043   ----------------------------------------
 BYTE   GoTo
  POIN2 Label_4_01052FE9
 BYTE   FINE

//**************** Track 6 (Midi-Chn.5) ****************//

SuperSmashBrosBrawlBossBattleSong1MrGreen3339_006:
// 000   ----------------------------------------
 BYTE   KEYSH   SuperSmashBrosBrawlBossBattleSong1MrGreen3339_key+0
 BYTE   VOICE   7
 BYTE   VOL   44*SuperSmashBrosBrawlBossBattleSong1MrGreen3339_mvl/mxv
 BYTE   W96
// 001   ----------------------------------------
Label_5_010531D1:
 BYTE   N06  Bn0  v104
 BYTE   W12
 BYTE   N18
 BYTE   N18  Fs1
 BYTE   N18  Bn1
 BYTE   W24
 BYTE   N06  Bn0  v100
 BYTE   W12
 BYTE   N18
 BYTE   N18  Fs1
 BYTE   N18  Bn1
 BYTE   W24
 BYTE   N06  Bn0
 BYTE   W12
 BYTE   N18
 BYTE   N18  Fs1
 BYTE   N18  Bn1
 BYTE   W12
 BYTE   PEND 
// 002   ----------------------------------------
Label_5_010531EF:
 BYTE   W24
 BYTE   N18  Bn0  v104
 BYTE   N18  Fs1
 BYTE   N18  Bn1
 BYTE   W24
 BYTE   N06  An0  v108
 BYTE   W12
 BYTE   N30  Cs1  v104
 BYTE   N30  En1
 BYTE   N30  Cs2
 BYTE   W36
 BYTE   PEND 
 BYTE   PATT
  POIN2 Label_5_010531D1
 BYTE   PATT
  POIN2 Label_5_010531EF
 BYTE   PATT
  POIN2 Label_5_010531D1
 BYTE   PATT
  POIN2 Label_5_010531EF
 BYTE   PATT
  POIN2 Label_5_010531D1
 BYTE   PATT
  POIN2 Label_5_010531EF
 BYTE   PATT
  POIN2 Label_5_010531D1
 BYTE   PATT
  POIN2 Label_5_010531EF
 BYTE   PATT
  POIN2 Label_5_010531D1
 BYTE   PATT
  POIN2 Label_5_010531EF
 BYTE   PATT
  POIN2 Label_5_010531D1
 BYTE   PATT
  POIN2 Label_5_010531EF
 BYTE   PATT
  POIN2 Label_5_010531D1
 BYTE   PATT
  POIN2 Label_5_010531EF
 BYTE   PATT
  POIN2 Label_5_010531D1
 BYTE   PATT
  POIN2 Label_5_010531EF
 BYTE   PATT
  POIN2 Label_5_010531D1
 BYTE   PATT
  POIN2 Label_5_010531EF
 BYTE   PATT
  POIN2 Label_5_010531D1
// 003   ----------------------------------------
 BYTE   W24
 BYTE   N18  En1  v104
 BYTE   N18  Bn1
 BYTE   N18  En2
 BYTE   W24
 BYTE   N06  Fs1  v108
 BYTE   W12
 BYTE   N30  Fs1  v104
 BYTE   N30  Cs2
 BYTE   N30  Fs2
 BYTE   W36
 BYTE   PATT
  POIN2 Label_5_010531D1
 BYTE   PATT
  POIN2 Label_5_010531EF
 BYTE   PATT
  POIN2 Label_5_010531D1
 BYTE   PATT
  POIN2 Label_5_010531EF
 BYTE   PATT
  POIN2 Label_5_010531D1
 BYTE   PATT
  POIN2 Label_5_010531EF
 BYTE   PATT
  POIN2 Label_5_010531D1
 BYTE   PATT
  POIN2 Label_5_010531EF
 BYTE   PATT
  POIN2 Label_5_010531D1
 BYTE   PATT
  POIN2 Label_5_010531EF
// 004   ----------------------------------------
 BYTE   N12  Bn0  v108
 BYTE   N12  Fs1
 BYTE   N12  Bn1
 BYTE   W36
 BYTE   Bn0
 BYTE   N12  Fs1
 BYTE   N12  Bn1
 BYTE   W36
 BYTE   Bn0
 BYTE   N12  Fs1
 BYTE   N12  Bn1
 BYTE   W24
// 005   ----------------------------------------
 BYTE   N78  Bn0
 BYTE   N78  Fs1
 BYTE   N78  Bn1
 BYTE   W96
// 006   ----------------------------------------
 BYTE   W96
// 007   ----------------------------------------
 BYTE   W96
// 008   ----------------------------------------
 BYTE   N24  Bn0  v100
 BYTE   N24  Gn1
 BYTE   N24  Bn1
 BYTE   W24
 BYTE   Bn0
 BYTE   N24  Gn1
 BYTE   N24  Bn1
 BYTE   W24
 BYTE   Bn0
 BYTE   N24  Gn1
 BYTE   N24  Bn1
 BYTE   W24
 BYTE   Bn0
 BYTE   N24  Gn1
 BYTE   N24  Bn1
 BYTE   W24
// 009   ----------------------------------------
 BYTE   Bn0
 BYTE   N24  Fs1
 BYTE   N24  Bn1
 BYTE   W24
 BYTE   Bn0
 BYTE   N24  Fs1
 BYTE   N24  Bn1
 BYTE   W24
 BYTE   Bn0
 BYTE   N24  Fs1
 BYTE   N24  Bn1
 BYTE   W24
 BYTE   Bn0
 BYTE   N24  Fs1
 BYTE   N24  Bn1
 BYTE   W24
// 010   ----------------------------------------
 BYTE   W96
// 011   ----------------------------------------
 BYTE   W96
 BYTE   PATT
  POIN2 Label_5_010531D1
// 012   ----------------------------------------
 BYTE   W24
 BYTE   N18  Bn0  v104
 BYTE   N18  Fs1
 BYTE   N18  Bn1
 BYTE   W24
 BYTE   N06  An0  v108
 BYTE   W12
 BYTE   N30  Bn0  v104
 BYTE   N30  Fs1
 BYTE   N30  Bn1
 BYTE   W36
// 013   ----------------------------------------
 BYTE   N24  An0  v096
 BYTE   N24  En1
 BYTE   N24  An1
 BYTE   N24  En2
 BYTE   N06  An4
 BYTE   W06
 BYTE   En4
 BYTE   W06
 BYTE   Cs4
 BYTE   W06
 BYTE   An3  v092
 BYTE   W06
 BYTE   En4
 BYTE   W06
 BYTE   TIE  An0
 BYTE   TIE  En1
 BYTE   TIE  An1
 BYTE   TIE  En2
 BYTE   N06  Cs4
 BYTE   W06
 BYTE   An3
 BYTE   W06
 BYTE   En3
 BYTE   W06
 BYTE   An2  v088
 BYTE   W06
 BYTE   Cs3
 BYTE   W06
 BYTE   En3  v084
 BYTE   W06
 BYTE   An3
 BYTE   W06
 BYTE   En3
 BYTE   W06
 BYTE   An3
 BYTE   W06
 BYTE   Cs4
 BYTE   W06
 BYTE   En4
 BYTE   W06
// 014   ----------------------------------------
 BYTE   Cs3
 BYTE   W06
 BYTE   En3
 BYTE   W06
 BYTE   An3  v088
 BYTE   W06
 BYTE   Cs4
 BYTE   W06
 BYTE   En3
 BYTE   W06
 BYTE   An3
 BYTE   W06
 BYTE   Cs4
 BYTE   W06
 BYTE   EOT
 BYTE   An0  v040
 BYTE   An1  v052
 BYTE   N06  En4
 BYTE   W06
 BYTE   N42  An0
 BYTE   N42  En1
 BYTE   N42  An1
 BYTE   N42  En2
 BYTE   N06  An4
 BYTE   W06
 BYTE   En4
 BYTE   W06
 BYTE   Cs4
 BYTE   W06
 BYTE   An3
 BYTE   W06
 BYTE   En4
 BYTE   W06
 BYTE   Cs4
 BYTE   W06
 BYTE   An3
 BYTE   W06
 BYTE   En3
 BYTE   W06
// 015   ----------------------------------------
 BYTE   N24  Dn1
 BYTE   N24  An1
 BYTE   N24  Dn2
 BYTE   N06  An4
 BYTE   W06
 BYTE   Fs4
 BYTE   W06
 BYTE   Dn4
 BYTE   W06
 BYTE   An3
 BYTE   W06
 BYTE   Fs4
 BYTE   W06
 BYTE   Dn4
 BYTE   W06
 BYTE   TIE  Dn1
 BYTE   TIE  An1
 BYTE   TIE  Dn2
 BYTE   N06  An3
 BYTE   W06
 BYTE   Fs3
 BYTE   W06
 BYTE   Dn3
 BYTE   W06
 BYTE   Fs3
 BYTE   W06
 BYTE   An3
 BYTE   W06
 BYTE   Dn4
 BYTE   W06
 BYTE   Dn3  v092
 BYTE   W06
 BYTE   Fs3
 BYTE   W06
 BYTE   An3
 BYTE   W06
 BYTE   Dn4
 BYTE   W06
// 016   ----------------------------------------
 BYTE   Dn3
 BYTE   W06
 BYTE   Fs3
 BYTE   W06
 BYTE   An3  v088
 BYTE   W06
 BYTE   Dn4
 BYTE   W06
 BYTE   Fs3
 BYTE   W06
 BYTE   An3
 BYTE   W06
 BYTE   Dn4
 BYTE   W06
 BYTE   EOT
 BYTE   Dn1  v045
 BYTE   Dn2
 BYTE   N06  Fs4
 BYTE   W06
 BYTE   N42  Dn1
 BYTE   N42  An1
 BYTE   N42  Dn2
 BYTE   N06  An4
 BYTE   W06
 BYTE   En4
 BYTE   W06
 BYTE   Cs4
 BYTE   W06
 BYTE   An3
 BYTE   W06
 BYTE   Gn4
 BYTE   W06
 BYTE   En4
 BYTE   W06
 BYTE   Cs4
 BYTE   W06
 BYTE   An3
 BYTE   W06
// 017   ----------------------------------------
 BYTE   N30  Cs1
 BYTE   N30  Fn1
 BYTE   N30  Gs1
 BYTE   N30  Cs2
 BYTE   N06  Gs4
 BYTE   W06
 BYTE   Fn4
 BYTE   W06
 BYTE   Cs4
 BYTE   W06
 BYTE   Gs3
 BYTE   W06
 BYTE   Fn4
 BYTE   W06
 BYTE   Cs4
 BYTE   W06
 BYTE   TIE  Cs1
 BYTE   TIE  Fn1
 BYTE   TIE  Gs1
 BYTE   TIE  Cs2
 BYTE   N06  Gs3
 BYTE   W06
 BYTE   Fn3
 BYTE   W06
 BYTE   Cs3
 BYTE   W06
 BYTE   Fn3
 BYTE   W06
 BYTE   Gs3
 BYTE   W06
 BYTE   Bn3
 BYTE   W06
 BYTE   Fn3
 BYTE   W06
 BYTE   Gs3
 BYTE   W06
 BYTE   Bn3
 BYTE   W06
 BYTE   En4
 BYTE   W06
// 018   ----------------------------------------
 BYTE   Cs3
 BYTE   W06
 BYTE   Fn3
 BYTE   W06
 BYTE   Gs3
 BYTE   W06
 BYTE   Bn3
 BYTE   W06
 BYTE   Fn3
 BYTE   W06
 BYTE   Bn3
 BYTE   W06
 BYTE   Cs4
 BYTE   W06
 BYTE   EOT
 BYTE   Cs1  v041
 BYTE   Gs1  v049
 BYTE   N06  En4
 BYTE   W06
 BYTE   N42  Cs1
 BYTE   N42  Fn1
 BYTE   N42  Gs1
 BYTE   N42  Cs2
 BYTE   N06  Gs4
 BYTE   W06
 BYTE   En4
 BYTE   W06
 BYTE   Cs4
 BYTE   W06
 BYTE   Gs3
 BYTE   W06
 BYTE   En4
 BYTE   W06
 BYTE   Cs4
 BYTE   W06
 BYTE   Bn3  v084
 BYTE   W06
 BYTE   Gs3
 BYTE   W06
// 019   ----------------------------------------
 BYTE   N30  Fs1
 BYTE   N30  Cs2
 BYTE   N30  Fs2
 BYTE   N06  An4
 BYTE   W06
 BYTE   Fs4  v088
 BYTE   W06
 BYTE   Cs4
 BYTE   W06
 BYTE   An3
 BYTE   W06
 BYTE   Fs4
 BYTE   W06
 BYTE   Cs4
 BYTE   W06
 BYTE   TIE  Fs1
 BYTE   TIE  Cs2
 BYTE   TIE  Fs2
 BYTE   N06  An3
 BYTE   W06
 BYTE   Fs3
 BYTE   W06
 BYTE   An2
 BYTE   W06
 BYTE   Cs3
 BYTE   W06
 BYTE   Fs3
 BYTE   W06
 BYTE   An3
 BYTE   W06
 BYTE   Fs3
 BYTE   W06
 BYTE   An3
 BYTE   W06
 BYTE   Cs4
 BYTE   W06
 BYTE   Fs4
 BYTE   W06
// 020   ----------------------------------------
 BYTE   Cs3
 BYTE   W06
 BYTE   Fs3
 BYTE   W06
 BYTE   An3
 BYTE   W06
 BYTE   Cs4
 BYTE   W06
 BYTE   Fs3
 BYTE   W06
 BYTE   An3
 BYTE   W06
 BYTE   Cs4
 BYTE   W06
 BYTE   EOT
 BYTE   Fs1  v049
 BYTE   Fs2
 BYTE   N06  Fs4
 BYTE   W06
 BYTE   N42  Cs2
 BYTE   N42  Fs2
 BYTE   N06  An3
 BYTE   W06
 BYTE   N42  Fs1
 BYTE   N06  Cs4
 BYTE   W06
 BYTE   Fs4
 BYTE   W06
 BYTE   An4
 BYTE   W06
 BYTE   An3
 BYTE   W06
 BYTE   Cs4
 BYTE   W06
 BYTE   Fs4
 BYTE   W06
 BYTE   An4
 BYTE   W06
// 021   ----------------------------------------
 BYTE   W96
// 022   ----------------------------------------
 BYTE   W96
// 023   ----------------------------------------
Label_5_01053498:
 BYTE   N48  Cs3  v120
 BYTE   N48  Cs4
 BYTE   W48
 BYTE   An2
 BYTE   N48  An3
 BYTE   W48
 BYTE   PEND 
// 024   ----------------------------------------
Label_5_010534A3:
 BYTE   N48  An2  v120
 BYTE   N48  An3
 BYTE   W48
 BYTE   Bn2
 BYTE   N48  Bn3
 BYTE   W48
 BYTE   PEND 
 BYTE   PATT
  POIN2 Label_5_01053498
 BYTE   PATT
  POIN2 Label_5_010534A3
 BYTE   PATT
  POIN2 Label_5_01053498
 BYTE   PATT
  POIN2 Label_5_010534A3
 BYTE   PATT
  POIN2 Label_5_01053498
 BYTE   PATT
  POIN2 Label_5_010534A3
// 025   ----------------------------------------
 BYTE   W96
// 026   ----------------------------------------
 BYTE   W96
// 027   ----------------------------------------
 BYTE   W96
// 028   ----------------------------------------
 BYTE   W96
// 029   ----------------------------------------
 BYTE   W96
// 030   ----------------------------------------
 BYTE   W96
// 031   ----------------------------------------
 BYTE   W96
// 032   ----------------------------------------
 BYTE   W96
// 033   ----------------------------------------
 BYTE   W96
// 034   ----------------------------------------
 BYTE   W96
// 035   ----------------------------------------
 BYTE   W96
// 036   ----------------------------------------
 BYTE   W96
// 037   ----------------------------------------
 BYTE   W96
// 038   ----------------------------------------
 BYTE   W96
// 039   ----------------------------------------
 BYTE   W96
// 040   ----------------------------------------
 BYTE   GoTo
  POIN2 Label_5_010531D1
 BYTE   FINE

//**************** Track 7 (Midi-Chn.6) ****************//

SuperSmashBrosBrawlBossBattleSong1MrGreen3339_007:
// 000   ----------------------------------------
 BYTE   VOL   65*SuperSmashBrosBrawlBossBattleSong1MrGreen3339_mvl/mxv
 BYTE   KEYSH   SuperSmashBrosBrawlBossBattleSong1MrGreen3339_key+0
 BYTE   VOICE   8
 BYTE   W96
// 001   ----------------------------------------
Label_6_010534E8:
 BYTE   N24  Bn1  v108
 BYTE   N24  Bn2
 BYTE   W24
 BYTE   N12  Fs1  v112
 BYTE   N12  Fs2
 BYTE   W12
 BYTE   N24  Bn1
 BYTE   N24  Bn2
 BYTE   W24
 BYTE   N12  Fs1
 BYTE   N12  Fs2
 BYTE   W12
 BYTE   N24  Bn1
 BYTE   N24  Bn2
 BYTE   W24
 BYTE   PEND 
// 002   ----------------------------------------
Label_6_01053504:
 BYTE   N12  Fs1  v112
 BYTE   N12  Fs2
 BYTE   W12
 BYTE   N24  Bn1
 BYTE   N24  Bn2
 BYTE   W24
 BYTE   N12  Fs1
 BYTE   N12  Fs2
 BYTE   W12
 BYTE   N24  Cs2
 BYTE   N24  Cs3
 BYTE   W24
 BYTE   Cs2
 BYTE   N24  Cs3
 BYTE   W24
 BYTE   PEND 
 BYTE   PATT
  POIN2 Label_6_010534E8
// 003   ----------------------------------------
Label_6_01053523:
 BYTE   N12  Fs1  v112
 BYTE   N12  Fs2
 BYTE   W12
 BYTE   N24  Bn1
 BYTE   N24  Bn2
 BYTE   W24
 BYTE   N12  Fs1
 BYTE   N12  Fs2
 BYTE   W12
 BYTE   N24  An1
 BYTE   N24  An2
 BYTE   W24
 BYTE   An1
 BYTE   N24  An2
 BYTE   W24
 BYTE   PEND 
 BYTE   PATT
  POIN2 Label_6_010534E8
 BYTE   PATT
  POIN2 Label_6_01053504
 BYTE   PATT
  POIN2 Label_6_010534E8
 BYTE   PATT
  POIN2 Label_6_01053523
 BYTE   PATT
  POIN2 Label_6_010534E8
 BYTE   PATT
  POIN2 Label_6_01053504
 BYTE   PATT
  POIN2 Label_6_010534E8
 BYTE   PATT
  POIN2 Label_6_01053523
 BYTE   PATT
  POIN2 Label_6_010534E8
 BYTE   PATT
  POIN2 Label_6_01053504
 BYTE   PATT
  POIN2 Label_6_010534E8
 BYTE   PATT
  POIN2 Label_6_01053523
 BYTE   PATT
  POIN2 Label_6_010534E8
 BYTE   PATT
  POIN2 Label_6_01053504
 BYTE   PATT
  POIN2 Label_6_010534E8
 BYTE   PATT
  POIN2 Label_6_01053523
 BYTE   PATT
  POIN2 Label_6_010534E8
// 004   ----------------------------------------
 BYTE   N24  En2  v127
 BYTE   N24  En3
 BYTE   W24
 BYTE   En2
 BYTE   N24  En3
 BYTE   W24
 BYTE   N48  Fs2  v112
 BYTE   N48  Fs3
 BYTE   W48
 BYTE   PATT
  POIN2 Label_6_010534E8
 BYTE   PATT
  POIN2 Label_6_01053523
 BYTE   PATT
  POIN2 Label_6_010534E8
 BYTE   PATT
  POIN2 Label_6_01053504
 BYTE   PATT
  POIN2 Label_6_010534E8
 BYTE   PATT
  POIN2 Label_6_01053523
 BYTE   PATT
  POIN2 Label_6_010534E8
 BYTE   PATT
  POIN2 Label_6_01053504
 BYTE   PATT
  POIN2 Label_6_010534E8
 BYTE   PATT
  POIN2 Label_6_01053523
// 005   ----------------------------------------
 BYTE   N12  Bn1  v100
 BYTE   N12  Bn2
 BYTE   W36
 BYTE   Bn1
 BYTE   N12  Bn2
 BYTE   W36
 BYTE   Bn1
 BYTE   N12  Bn2
 BYTE   W24
// 006   ----------------------------------------
 BYTE   Bn1
 BYTE   N12  Bn2
 BYTE   W96
// 007   ----------------------------------------
 BYTE   W96
// 008   ----------------------------------------
 BYTE   W96
// 009   ----------------------------------------
 BYTE   W96
// 010   ----------------------------------------
 BYTE   W96
// 011   ----------------------------------------
 BYTE   W96
// 012   ----------------------------------------
 BYTE   W96
// 013   ----------------------------------------
 BYTE   W96
// 014   ----------------------------------------
 BYTE   W96
// 015   ----------------------------------------
 BYTE   W96
// 016   ----------------------------------------
 BYTE   W96
// 017   ----------------------------------------
 BYTE   W96
// 018   ----------------------------------------
 BYTE   W96
// 019   ----------------------------------------
 BYTE   W96
// 020   ----------------------------------------
 BYTE   W96
// 021   ----------------------------------------
 BYTE   W96
// 022   ----------------------------------------
 BYTE   W96
// 023   ----------------------------------------
 BYTE   N24  Fs1  v116
 BYTE   W24
 BYTE   Fs1  v120
 BYTE   W24
 BYTE   N24
 BYTE   W24
 BYTE   N24
 BYTE   W24
// 024   ----------------------------------------
 BYTE   Cs2
 BYTE   W24
 BYTE   N24
 BYTE   W24
 BYTE   N24
 BYTE   W24
 BYTE   N24
 BYTE   W24
// 025   ----------------------------------------
 BYTE   W96
// 026   ----------------------------------------
 BYTE   W96
// 027   ----------------------------------------
 BYTE   W96
// 028   ----------------------------------------
 BYTE   W96
// 029   ----------------------------------------
 BYTE   W96
// 030   ----------------------------------------
 BYTE   W96
// 031   ----------------------------------------
 BYTE   W96
// 032   ----------------------------------------
 BYTE   W96
// 033   ----------------------------------------
 BYTE   W96
// 034   ----------------------------------------
 BYTE   W96
// 035   ----------------------------------------
 BYTE   W96
// 036   ----------------------------------------
 BYTE   W96
// 037   ----------------------------------------
 BYTE   W72
 BYTE   N06  Fs1  v092
 BYTE   W06
 BYTE   Fs1  v100
 BYTE   W06
 BYTE   Fs1  v104
 BYTE   W06
 BYTE   Fs1  v116
 BYTE   W06
// 038   ----------------------------------------
 BYTE   N72  Bn1  v124
 BYTE   W84
 BYTE   N06  Fs1
 BYTE   W06
 BYTE   N06
 BYTE   W06
// 039   ----------------------------------------
 BYTE   N66  Bn1
 BYTE   W84
 BYTE   N12
 BYTE   W12
// 040   ----------------------------------------
 BYTE   N72  Gs1
 BYTE   W96
// 041   ----------------------------------------
 BYTE   W48
 BYTE   N16  Fs1
 BYTE   W16
 BYTE   N16
 BYTE   W16
 BYTE   N16
 BYTE   W16
// 042   ----------------------------------------
 BYTE   N12  Bn1  v120
 BYTE   W12
 BYTE   N40
 BYTE   W72
 BYTE   N12  Fs1
 BYTE   W12
// 043   ----------------------------------------
 BYTE   N48  Bn1
 BYTE   W96
// 044   ----------------------------------------
 BYTE   N40  Gs1
 BYTE   W96
// 045   ----------------------------------------
 BYTE   W60
 BYTE   N12  Fs1  v108
 BYTE   W12
 BYTE   N12
 BYTE   W12
 BYTE   N06
 BYTE   W06
 BYTE   N06
 BYTE   W06
// 046   ----------------------------------------
 BYTE   N66  As1
 BYTE   W96
// 047   ----------------------------------------
 BYTE   W96
// 048   ----------------------------------------
 BYTE   GoTo
  POIN2 Label_6_010534E8
 BYTE   FINE

//**************** Track 8 (Midi-Chn.7) ****************//

SuperSmashBrosBrawlBossBattleSong1MrGreen3339_008:
// 000   ----------------------------------------
 BYTE   KEYSH   SuperSmashBrosBrawlBossBattleSong1MrGreen3339_key+0
 BYTE   VOICE   9
 BYTE   VOL   53*SuperSmashBrosBrawlBossBattleSong1MrGreen3339_mvl/mxv
 BYTE   W96
// 001   ----------------------------------------
Label_7_01053667:
 BYTE   TIE  Bn0  v112
 BYTE   W96
// 002   ----------------------------------------
 BYTE   W48
 BYTE   EOT
 BYTE   N48  Bn0  v116
 BYTE   W48
// 003   ----------------------------------------
 BYTE   TIE  Bn0  v112
 BYTE   W96
// 004   ----------------------------------------
 BYTE   W48
 BYTE   EOT
 BYTE   N48  Bn0  v116
 BYTE   W48
// 005   ----------------------------------------
 BYTE   TIE  Bn0  v112
 BYTE   W96
// 006   ----------------------------------------
 BYTE   W48
 BYTE   EOT
 BYTE   N48  Bn0  v116
 BYTE   W48
// 007   ----------------------------------------
 BYTE   TIE  Bn0  v112
 BYTE   W96
// 008   ----------------------------------------
 BYTE   W48
 BYTE   EOT
 BYTE   N48  Bn0  v116
 BYTE   W48
// 009   ----------------------------------------
 BYTE   TIE  Bn0  v112
 BYTE   W96
// 010   ----------------------------------------
 BYTE   W48
 BYTE   EOT
 BYTE   N48  Bn0  v116
 BYTE   W48
// 011   ----------------------------------------
 BYTE   TIE  Bn0  v112
 BYTE   W96
// 012   ----------------------------------------
 BYTE   W48
 BYTE   EOT
 BYTE   N48  Bn0  v116
 BYTE   W48
// 013   ----------------------------------------
 BYTE   TIE  Bn0  v112
 BYTE   W96
// 014   ----------------------------------------
 BYTE   W48
 BYTE   EOT
 BYTE   N48  Bn0  v116
 BYTE   W48
// 015   ----------------------------------------
 BYTE   TIE  Bn0  v112
 BYTE   W96
// 016   ----------------------------------------
 BYTE   W48
 BYTE   EOT
 BYTE   N48  Bn0  v116
 BYTE   W48
// 017   ----------------------------------------
 BYTE   TIE  Bn0  v112
 BYTE   W96
// 018   ----------------------------------------
 BYTE   W48
 BYTE   EOT
 BYTE   N48  Bn0  v116
 BYTE   W48
// 019   ----------------------------------------
 BYTE   TIE  Bn0  v112
 BYTE   W96
// 020   ----------------------------------------
 BYTE   W48
 BYTE   EOT
 BYTE   N48  Bn0  v116
 BYTE   W48
// 021   ----------------------------------------
 BYTE   N96  Bn0  v112
 BYTE   W96
// 022   ----------------------------------------
 BYTE   N48  En1  v127
 BYTE   W48
 BYTE   Fs1  v124
 BYTE   W48
// 023   ----------------------------------------
 BYTE   TIE  Bn0  v112
 BYTE   W96
// 024   ----------------------------------------
 BYTE   W48
 BYTE   EOT
 BYTE   N48  Bn0  v116
 BYTE   W48
// 025   ----------------------------------------
 BYTE   TIE  Bn0  v084
 BYTE   N12  Fs4
 BYTE   W24
 BYTE   Gn4  v080
 BYTE   W24
 BYTE   Fs4  v076
 BYTE   W12
 BYTE   Gn4  v080
 BYTE   W24
 BYTE   Fs4  v072
 BYTE   W12
// 026   ----------------------------------------
 BYTE   Gn4
 BYTE   W24
 BYTE   Fs4
 BYTE   W12
 BYTE   Gn4
 BYTE   W12
 BYTE   EOT
 BYTE   Bn0
 BYTE   N48  Bn0  v068
 BYTE   N12  En4
 BYTE   W48
// 027   ----------------------------------------
 BYTE   TIE  Bn0  v084
 BYTE   N12  Fs4
 BYTE   W12
 BYTE   Fs4  v060
 BYTE   W12
 BYTE   Gn4  v068
 BYTE   W24
 BYTE   Fs4  v060
 BYTE   W12
 BYTE   Gn4
 BYTE   W24
 BYTE   Fs4
 BYTE   W12
// 028   ----------------------------------------
 BYTE   Gn4
 BYTE   W24
 BYTE   Fs4
 BYTE   W12
 BYTE   Gn4
 BYTE   W12
 BYTE   EOT
 BYTE   Bn0
 BYTE   N48
 BYTE   N12  En4
 BYTE   W48
// 029   ----------------------------------------
 BYTE   TIE  Bn0  v112
 BYTE   N12  Fs4  v100
 BYTE   W12
 BYTE   Fs4  v076
 BYTE   W12
 BYTE   Gn4  v056
 BYTE   W24
 BYTE   Fs4  v052
 BYTE   W12
 BYTE   Gn4
 BYTE   W24
 BYTE   Fs4
 BYTE   W12
// 030   ----------------------------------------
 BYTE   Gn4
 BYTE   W24
 BYTE   Fs4
 BYTE   W12
 BYTE   Gn4
 BYTE   W12
 BYTE   EOT
 BYTE   Bn0
 BYTE   N48
 BYTE   N12  En4
 BYTE   W48
// 031   ----------------------------------------
 BYTE   TIE  Bn0  v112
 BYTE   W96
// 032   ----------------------------------------
 BYTE   W48
 BYTE   EOT
 BYTE   N48  Bn0  v116
 BYTE   W48
// 033   ----------------------------------------
 BYTE   W96
// 034   ----------------------------------------
 BYTE   W96
// 035   ----------------------------------------
 BYTE   W96
// 036   ----------------------------------------
 BYTE   W96
// 037   ----------------------------------------
 BYTE   W96
// 038   ----------------------------------------
 BYTE   W96
// 039   ----------------------------------------
 BYTE   W96
// 040   ----------------------------------------
 BYTE   W96
// 041   ----------------------------------------
 BYTE   W96
// 042   ----------------------------------------
 BYTE   W96
// 043   ----------------------------------------
 BYTE   W96
// 044   ----------------------------------------
 BYTE   W96
// 045   ----------------------------------------
 BYTE   W96
// 046   ----------------------------------------
 BYTE   W96
// 047   ----------------------------------------
 BYTE   W96
// 048   ----------------------------------------
 BYTE   W96
// 049   ----------------------------------------
 BYTE   W96
// 050   ----------------------------------------
 BYTE   W96
// 051   ----------------------------------------
 BYTE   W96
// 052   ----------------------------------------
 BYTE   W96
// 053   ----------------------------------------
 BYTE   W96
// 054   ----------------------------------------
 BYTE   W96
// 055   ----------------------------------------
 BYTE   W96
// 056   ----------------------------------------
 BYTE   W96
// 057   ----------------------------------------
 BYTE   W96
// 058   ----------------------------------------
 BYTE   W96
// 059   ----------------------------------------
 BYTE   W96
// 060   ----------------------------------------
 BYTE   W96
// 061   ----------------------------------------
 BYTE   W96
// 062   ----------------------------------------
 BYTE   W96
// 063   ----------------------------------------
 BYTE   W96
// 064   ----------------------------------------
 BYTE   W96
// 065   ----------------------------------------
 BYTE   W96
// 066   ----------------------------------------
 BYTE   W96
// 067   ----------------------------------------
 BYTE   W96
// 068   ----------------------------------------
 BYTE   W96
// 069   ----------------------------------------
 BYTE   W96
// 070   ----------------------------------------
 BYTE   W96
// 071   ----------------------------------------
 BYTE   W96
// 072   ----------------------------------------
 BYTE   W96
// 073   ----------------------------------------
 BYTE   W96
// 074   ----------------------------------------
 BYTE   W96
// 075   ----------------------------------------
 BYTE   W96
// 076   ----------------------------------------
 BYTE   GoTo
  POIN2 Label_7_01053667
 BYTE   FINE

//**************** Track 9 (Midi-Chn.8) ****************//

SuperSmashBrosBrawlBossBattleSong1MrGreen3339_009:
// 000   ----------------------------------------
 BYTE   KEYSH   SuperSmashBrosBrawlBossBattleSong1MrGreen3339_key+0
 BYTE   VOICE   10
 BYTE   VOL   50*SuperSmashBrosBrawlBossBattleSong1MrGreen3339_mvl/mxv
 BYTE   W96
// 001   ----------------------------------------
Label_8_01053781:
 BYTE   N06  Bn0  v104
 BYTE   W12
 BYTE   N18
 BYTE   N18  Fs1
 BYTE   N18  Bn1
 BYTE   W24
 BYTE   N06  Bn0  v100
 BYTE   W12
 BYTE   N18
 BYTE   N18  Fs1
 BYTE   N18  Bn1
 BYTE   W24
 BYTE   N06  Bn0
 BYTE   W12
 BYTE   N18
 BYTE   N18  Fs1
 BYTE   N18  Bn1
 BYTE   W12
 BYTE   PEND 
// 002   ----------------------------------------
Label_8_0105379F:
 BYTE   W24
 BYTE   N18  Bn0  v104
 BYTE   N18  Fs1
 BYTE   N18  Bn1
 BYTE   W24
 BYTE   N06  An0  v108
 BYTE   W12
 BYTE   N30  Cs1  v104
 BYTE   N30  En1
 BYTE   N30  Cs2
 BYTE   W36
 BYTE   PEND 
 BYTE   PATT
  POIN2 Label_8_01053781
 BYTE   PATT
  POIN2 Label_8_0105379F
 BYTE   PATT
  POIN2 Label_8_01053781
 BYTE   PATT
  POIN2 Label_8_0105379F
 BYTE   PATT
  POIN2 Label_8_01053781
 BYTE   PATT
  POIN2 Label_8_0105379F
 BYTE   PATT
  POIN2 Label_8_01053781
 BYTE   PATT
  POIN2 Label_8_0105379F
 BYTE   PATT
  POIN2 Label_8_01053781
 BYTE   PATT
  POIN2 Label_8_0105379F
 BYTE   PATT
  POIN2 Label_8_01053781
 BYTE   PATT
  POIN2 Label_8_0105379F
 BYTE   PATT
  POIN2 Label_8_01053781
 BYTE   PATT
  POIN2 Label_8_0105379F
 BYTE   PATT
  POIN2 Label_8_01053781
 BYTE   PATT
  POIN2 Label_8_0105379F
 BYTE   PATT
  POIN2 Label_8_01053781
 BYTE   PATT
  POIN2 Label_8_0105379F
 BYTE   PATT
  POIN2 Label_8_01053781
 BYTE   PATT
  POIN2 Label_8_0105379F
 BYTE   PATT
  POIN2 Label_8_01053781
 BYTE   PATT
  POIN2 Label_8_0105379F
 BYTE   PATT
  POIN2 Label_8_01053781
 BYTE   PATT
  POIN2 Label_8_0105379F
 BYTE   PATT
  POIN2 Label_8_01053781
 BYTE   PATT
  POIN2 Label_8_0105379F
 BYTE   PATT
  POIN2 Label_8_01053781
 BYTE   PATT
  POIN2 Label_8_0105379F
 BYTE   PATT
  POIN2 Label_8_01053781
 BYTE   PATT
  POIN2 Label_8_0105379F
// 003   ----------------------------------------
 BYTE   W96
// 004   ----------------------------------------
 BYTE   W96
// 005   ----------------------------------------
 BYTE   W96
// 006   ----------------------------------------
 BYTE   W96
// 007   ----------------------------------------
 BYTE   N24  Dn1  v100
 BYTE   N24  An1
 BYTE   N24  Dn2
 BYTE   W24
 BYTE   Dn1
 BYTE   N24  An1
 BYTE   N24  Dn2
 BYTE   W24
 BYTE   Dn1
 BYTE   N24  An1
 BYTE   N24  Dn2
 BYTE   W24
 BYTE   Dn1
 BYTE   N24  An1
 BYTE   N24  Dn2
 BYTE   W24
// 008   ----------------------------------------
 BYTE   Bn0
 BYTE   N24  Fs1
 BYTE   N24  Bn1
 BYTE   W24
 BYTE   Bn0
 BYTE   N24  Fs1
 BYTE   N24  Bn1
 BYTE   W24
 BYTE   Bn0
 BYTE   N24  Fs1
 BYTE   N24  Bn1
 BYTE   W24
 BYTE   Bn0
 BYTE   N24  Fs1
 BYTE   N24  Bn1
 BYTE   W24
// 009   ----------------------------------------
 BYTE   W96
// 010   ----------------------------------------
 BYTE   W96
 BYTE   PATT
  POIN2 Label_8_01053781
// 011   ----------------------------------------
 BYTE   W24
 BYTE   N18  Bn0  v104
 BYTE   N18  Fs1
 BYTE   N18  Bn1
 BYTE   W24
 BYTE   N06  An0  v108
 BYTE   W12
 BYTE   N30  Bn0  v104
 BYTE   N30  Fs1
 BYTE   N30  Bn1
 BYTE   W36
// 012   ----------------------------------------
 BYTE   N06  An0
 BYTE   W12
 BYTE   N18
 BYTE   N18  En1
 BYTE   N18  An1
 BYTE   W24
 BYTE   N06  An0  v100
 BYTE   W12
 BYTE   N18
 BYTE   N18  En1
 BYTE   N18  An1
 BYTE   W24
 BYTE   N06  An0
 BYTE   W12
 BYTE   N18
 BYTE   N18  En1
 BYTE   N18  An1
 BYTE   W12
// 013   ----------------------------------------
 BYTE   W24
 BYTE   An0  v104
 BYTE   N18  En1
 BYTE   N18  An1
 BYTE   W24
 BYTE   N06  Gn0  v108
 BYTE   W12
 BYTE   N30  An0  v104
 BYTE   N30  En1
 BYTE   N30  An1
 BYTE   W36
// 014   ----------------------------------------
 BYTE   N06  Dn1
 BYTE   W12
 BYTE   N18
 BYTE   N18  An1
 BYTE   N18  Dn2
 BYTE   W24
 BYTE   N06  Dn1  v100
 BYTE   W12
 BYTE   N18
 BYTE   N18  An1
 BYTE   N18  Dn2
 BYTE   W24
 BYTE   N06  Dn1
 BYTE   W12
 BYTE   N18
 BYTE   N18  An1
 BYTE   N18  Dn2
 BYTE   W12
// 015   ----------------------------------------
 BYTE   W24
 BYTE   Dn1  v104
 BYTE   N18  An1
 BYTE   N18  Dn2
 BYTE   W24
 BYTE   N06  Cn1  v108
 BYTE   W12
 BYTE   N30  Dn1  v104
 BYTE   N30  An1
 BYTE   N30  Dn2
 BYTE   W36
// 016   ----------------------------------------
 BYTE   N06  Cs1
 BYTE   W12
 BYTE   N18
 BYTE   N18  Gs1
 BYTE   N18  Cs2
 BYTE   W24
 BYTE   N06  Cs1  v100
 BYTE   W12
 BYTE   N18
 BYTE   N18  Gs1
 BYTE   N18  Cs2
 BYTE   W24
 BYTE   N06  Cs1
 BYTE   W12
 BYTE   N18
 BYTE   N18  Gs1
 BYTE   N18  Cs2
 BYTE   W12
// 017   ----------------------------------------
 BYTE   W24
 BYTE   Cs1  v104
 BYTE   N18  Gs1
 BYTE   N18  Cs2
 BYTE   W24
 BYTE   N06  Bn0  v108
 BYTE   W12
 BYTE   N30  Cs1  v104
 BYTE   N30  Gs1
 BYTE   N30  Cs2
 BYTE   W36
// 018   ----------------------------------------
 BYTE   N06  Fs1
 BYTE   W12
 BYTE   N18
 BYTE   N18  Cs2
 BYTE   N18  Fs2
 BYTE   W24
 BYTE   N06  Fs1  v100
 BYTE   W12
 BYTE   N18
 BYTE   N18  Cs2
 BYTE   N18  Fs2
 BYTE   W24
 BYTE   N06  Fs1
 BYTE   W12
 BYTE   N18
 BYTE   N18  Cs2
 BYTE   N18  Fs2
 BYTE   W12
// 019   ----------------------------------------
 BYTE   W24
 BYTE   Fs1  v104
 BYTE   N18  Cs2
 BYTE   N18  Fs2
 BYTE   W24
 BYTE   N06  En1  v108
 BYTE   W12
 BYTE   N30  Fs1  v104
 BYTE   N30  Cs2
 BYTE   N30  Fs2
 BYTE   W36
// 020   ----------------------------------------
 BYTE   W96
// 021   ----------------------------------------
 BYTE   W96
// 022   ----------------------------------------
 BYTE   N48  Cs3  v096
 BYTE   N48  Cs4
 BYTE   W48
 BYTE   An2  v092
 BYTE   N48  An3
 BYTE   W48
// 023   ----------------------------------------
 BYTE   An2
 BYTE   N48  An3
 BYTE   W48
 BYTE   Bn2  v096
 BYTE   N48  Bn3
 BYTE   W48
// 024   ----------------------------------------
 BYTE   Cs3  v100
 BYTE   N48  Cs4
 BYTE   W48
 BYTE   An2  v092
 BYTE   N48  An3
 BYTE   W48
// 025   ----------------------------------------
 BYTE   An2
 BYTE   N48  An3
 BYTE   W48
 BYTE   Bn2
 BYTE   N48  Bn3
 BYTE   W48
// 026   ----------------------------------------
 BYTE   Cs3  v096
 BYTE   N48  Cs4
 BYTE   W48
 BYTE   An2  v088
 BYTE   N48  An3
 BYTE   W48
// 027   ----------------------------------------
 BYTE   An2  v084
 BYTE   N48  An3
 BYTE   W48
 BYTE   Bn2  v092
 BYTE   N48  Bn3
 BYTE   W48
// 028   ----------------------------------------
 BYTE   Cs3  v100
 BYTE   N48  Cs4
 BYTE   W48
 BYTE   An2  v096
 BYTE   N48  An3
 BYTE   W48
// 029   ----------------------------------------
 BYTE   An2
 BYTE   N48  An3
 BYTE   W48
 BYTE   Bn2  v092
 BYTE   N48  Bn3
 BYTE   W48
// 030   ----------------------------------------
 BYTE   W96
// 031   ----------------------------------------
 BYTE   W96
// 032   ----------------------------------------
 BYTE   W96
// 033   ----------------------------------------
 BYTE   W96
// 034   ----------------------------------------
 BYTE   W96
// 035   ----------------------------------------
 BYTE   W96
// 036   ----------------------------------------
 BYTE   W96
// 037   ----------------------------------------
 BYTE   W96
// 038   ----------------------------------------
 BYTE   W96
// 039   ----------------------------------------
 BYTE   W96
// 040   ----------------------------------------
 BYTE   W96
// 041   ----------------------------------------
 BYTE   W96
// 042   ----------------------------------------
 BYTE   W96
// 043   ----------------------------------------
 BYTE   W96
// 044   ----------------------------------------
 BYTE   W96
// 045   ----------------------------------------
 BYTE   GoTo
  POIN2 Label_8_01053781
 BYTE   FINE

//**************** Track 10 (Midi-Chn.9) ****************//

SuperSmashBrosBrawlBossBattleSong1MrGreen3339_010:
// 000   ----------------------------------------
 BYTE   KEYSH   SuperSmashBrosBrawlBossBattleSong1MrGreen3339_key+0
 BYTE   VOICE   2
 BYTE   VOL   43*SuperSmashBrosBrawlBossBattleSong1MrGreen3339_mvl/mxv
 BYTE   W96
// 001   ----------------------------------------
Label_9_010539C8:
 BYTE   VOICE   2
 BYTE   W96
// 002   ----------------------------------------
 BYTE   W96
// 003   ----------------------------------------
 BYTE   W96
// 004   ----------------------------------------
 BYTE   W96
// 005   ----------------------------------------
 BYTE   W96
// 006   ----------------------------------------
 BYTE   W96
// 007   ----------------------------------------
 BYTE   W96
// 008   ----------------------------------------
 BYTE   W96
// 009   ----------------------------------------
 BYTE   W96
// 010   ----------------------------------------
 BYTE   W96
// 011   ----------------------------------------
 BYTE   W96
// 012   ----------------------------------------
 BYTE   W96
// 013   ----------------------------------------
 BYTE   W96
// 014   ----------------------------------------
 BYTE   W96
// 015   ----------------------------------------
 BYTE   W96
// 016   ----------------------------------------
 BYTE   W96
// 017   ----------------------------------------
Label_9_010539DA:
 BYTE   W48
 BYTE   N16  Fs4  v100
 BYTE   N16  Bn4
 BYTE   W16
 BYTE   N16
 BYTE   N16  Dn5
 BYTE   W16
 BYTE   N16
 BYTE   N16  Fs5
 BYTE   W04
 BYTE   N12  Bn5
 BYTE   W12
 BYTE   PEND 
// 018   ----------------------------------------
Label_9_010539ED:
 BYTE   N12  Fs5  v100
 BYTE   N12  Bn5
 BYTE   N12  Fs6
 BYTE   W12
 BYTE   Dn5
 BYTE   N12  Fs5
 BYTE   W12
 BYTE   Bn4
 BYTE   N12  Dn5
 BYTE   W12
 BYTE   Fs4
 BYTE   N12  Bn4
 BYTE   W60
 BYTE   PEND 
 BYTE   PATT
  POIN2 Label_9_010539DA
 BYTE   PATT
  POIN2 Label_9_010539ED
// 019   ----------------------------------------
 BYTE   W48
 BYTE   N16  Fs4  v100
 BYTE   N16  Bn4
 BYTE   W16
 BYTE   N16
 BYTE   N16  Dn5
 BYTE   W16
 BYTE   N16
 BYTE   N16  Fs5
 BYTE   W16
// 020   ----------------------------------------
 BYTE   N12
 BYTE   N12  Bn5
 BYTE   N12  En6
 BYTE   W12
 BYTE   Dn5
 BYTE   N12  Fs5
 BYTE   W12
 BYTE   Bn4
 BYTE   N12  Dn5
 BYTE   W12
 BYTE   Fs4
 BYTE   N12  Bn4
 BYTE   W60
 BYTE   PATT
  POIN2 Label_9_010539DA
// 021   ----------------------------------------
 BYTE   N12  Fs5  v100
 BYTE   N12  Bn5
 BYTE   N12  Fs6
 BYTE   W12
 BYTE   Dn5
 BYTE   N12  Fs5
 BYTE   N12  Bn5
 BYTE   W12
 BYTE   Bn4
 BYTE   N12  Dn5
 BYTE   N12  Fs5
 BYTE   W12
 BYTE   Fs4
 BYTE   N12  Bn4
 BYTE   N12  Dn5
 BYTE   W12
 BYTE   Dn4  v044
 BYTE   N12  Fs4
 BYTE   N12  Bn4
 BYTE   W48
// 022   ----------------------------------------
 BYTE   W96
// 023   ----------------------------------------
 BYTE   W96
// 024   ----------------------------------------
 BYTE   W96
// 025   ----------------------------------------
 BYTE   W96
// 026   ----------------------------------------
 BYTE   W96
// 027   ----------------------------------------
 BYTE   W96
// 028   ----------------------------------------
 BYTE   W96
// 029   ----------------------------------------
 BYTE   W96
// 030   ----------------------------------------
 BYTE   W96
// 031   ----------------------------------------
 BYTE   W96
// 032   ----------------------------------------
 BYTE   W96
// 033   ----------------------------------------
 BYTE   VOICE   11
 BYTE   W96
// 034   ----------------------------------------
 BYTE   N18  Dn1  v116
 BYTE   W24
 BYTE   N12
 BYTE   W12
 BYTE   Bn0
 BYTE   W12
 BYTE   Dn1  v112
 BYTE   W12
 BYTE   Bn0
 BYTE   W12
 BYTE   Dn1
 BYTE   W12
 BYTE   Bn0
 BYTE   W12
// 035   ----------------------------------------
 BYTE   N24  Bn1
 BYTE   W24
 BYTE   N12
 BYTE   W12
 BYTE   Fs1
 BYTE   W12
 BYTE   Bn1
 BYTE   W12
 BYTE   Fs1  v116
 BYTE   W12
 BYTE   Bn1
 BYTE   W12
 BYTE   Fs1
 BYTE   W12
// 036   ----------------------------------------
 BYTE   W96
// 037   ----------------------------------------
 BYTE   W96
// 038   ----------------------------------------
 BYTE   N18  Bn1  v124
 BYTE   W24
 BYTE   N12
 BYTE   W12
 BYTE   Fs1
 BYTE   W12
 BYTE   Bn1
 BYTE   W12
 BYTE   Fs1  v120
 BYTE   W12
 BYTE   Bn1
 BYTE   W12
 BYTE   Fs1
 BYTE   W12
// 039   ----------------------------------------
 BYTE   W12
 BYTE   Bn1  v124
 BYTE   W12
 BYTE   N12
 BYTE   W12
 BYTE   Fs1
 BYTE   W12
 BYTE   Bn1
 BYTE   W12
 BYTE   Fs1  v127
 BYTE   W12
 BYTE   Bn1  v120
 BYTE   W12
 BYTE   Fs1  v116
 BYTE   W12
// 040   ----------------------------------------
 BYTE   N36  An1  v124
 BYTE   W36
 BYTE   N84
 BYTE   W60
// 041   ----------------------------------------
 BYTE   W24
 BYTE   N24  En1  v127
 BYTE   W24
 BYTE   An1  v124
 BYTE   W24
 BYTE   En1
 BYTE   W24
// 042   ----------------------------------------
 BYTE   N36  Dn1
 BYTE   W36
 BYTE   N84  Dn1  v127
 BYTE   W60
// 043   ----------------------------------------
 BYTE   W24
 BYTE   N24
 BYTE   W24
 BYTE   An0
 BYTE   W24
 BYTE   Dn1
 BYTE   W24
// 044   ----------------------------------------
 BYTE   N30  Cs1
 BYTE   W36
 BYTE   N78
 BYTE   W60
// 045   ----------------------------------------
 BYTE   W24
 BYTE   N12  Bn0
 BYTE   W12
 BYTE   Cn1
 BYTE   W12
 BYTE   N24  Cs1
 BYTE   W24
 BYTE   Gs0
 BYTE   W24
// 046   ----------------------------------------
 BYTE   N36  Fs0
 BYTE   W36
 BYTE   N84
 BYTE   W60
// 047   ----------------------------------------
 BYTE   W24
 BYTE   N24  Cs1
 BYTE   W24
 BYTE   Fs1
 BYTE   W24
 BYTE   Cs1
 BYTE   W24
// 048   ----------------------------------------
 BYTE   W96
// 049   ----------------------------------------
 BYTE   W96
// 050   ----------------------------------------
 BYTE   W96
// 051   ----------------------------------------
 BYTE   W96
// 052   ----------------------------------------
 BYTE   W96
// 053   ----------------------------------------
 BYTE   W96
// 054   ----------------------------------------
 BYTE   W96
// 055   ----------------------------------------
 BYTE   W96
// 056   ----------------------------------------
 BYTE   W96
// 057   ----------------------------------------
 BYTE   W96
// 058   ----------------------------------------
 BYTE   W96
// 059   ----------------------------------------
 BYTE   W96
// 060   ----------------------------------------
 BYTE   W96
// 061   ----------------------------------------
 BYTE   W96
// 062   ----------------------------------------
 BYTE   W96
// 063   ----------------------------------------
 BYTE   W96
// 064   ----------------------------------------
 BYTE   W96
// 065   ----------------------------------------
 BYTE   W96
// 066   ----------------------------------------
 BYTE   W96
// 067   ----------------------------------------
 BYTE   W96
// 068   ----------------------------------------
 BYTE   W96
// 069   ----------------------------------------
 BYTE   W96
// 070   ----------------------------------------
 BYTE   W96
// 071   ----------------------------------------
 BYTE   W96
// 072   ----------------------------------------
 BYTE   VOICE   2
 BYTE   VOL   43*SuperSmashBrosBrawlBossBattleSong1MrGreen3339_mvl/mxv
 BYTE   W96
// 073   ----------------------------------------
 BYTE   GoTo
  POIN2 Label_9_010539C8
 BYTE   FINE

//**************** Track 11 (Midi-Chn.10) ****************//

SuperSmashBrosBrawlBossBattleSong1MrGreen3339_011:
// 000   ----------------------------------------
 BYTE   KEYSH   SuperSmashBrosBrawlBossBattleSong1MrGreen3339_key+0
 BYTE   VOICE   0
 BYTE   VOL   53*SuperSmashBrosBrawlBossBattleSong1MrGreen3339_mvl/mxv
 BYTE   BEND   c_v+23
 BYTE   N21  CnM1  v100
 BYTE   N24  CsM1  v120
 BYTE   W21
 BYTE   N03  CnM1
 BYTE   W03
 BYTE   N06
 BYTE   W06
 BYTE   N24  DnM1
 BYTE   N06  DsM1  v127
 BYTE   W06
 BYTE   CnM1  v120
 BYTE   W06
 BYTE   N06
 BYTE   W06
 BYTE   N06
 BYTE   W06
 BYTE   N06
 BYTE   W06
 BYTE   N06
 BYTE   W12
 BYTE   BEND   c_v+33
 BYTE   N12  EnM1
 BYTE   N24  FnM1
 BYTE   W01
 BYTE   BEND   c_v+32
 BYTE   W11
 BYTE   N12  EnM1
 BYTE   N24  CsM1
 BYTE   W12
// 001   ----------------------------------------
Label_10_01053B3A:
 BYTE   N24  FsM1  v100
 BYTE   N24  FnM1
 BYTE   N12  GnM1
 BYTE   W06
 BYTE   GsM1
 BYTE   W06
 BYTE   GnM1
 BYTE   N12  AnM1
 BYTE   W06
 BYTE   GsM1
 BYTE   W06
 BYTE   N18  CnM1
 BYTE   N12  GnM1
 BYTE   N12  AnM1
 BYTE   W06
 BYTE   GsM1
 BYTE   W06
 BYTE   FsM1
 BYTE   N12  GnM1
 BYTE   N12  AnM1
 BYTE   W06
 BYTE   GsM1
 BYTE   N06  CnM1  v092
 BYTE   W06
 BYTE   N12  FsM1  v100
 BYTE   N12  GnM1
 BYTE   N12  AnM1
 BYTE   W06
 BYTE   GsM1
 BYTE   W06
 BYTE   GnM1
 BYTE   N12  AnM1
 BYTE   W06
 BYTE   GsM1
 BYTE   W06
 BYTE   N24  CnM1
 BYTE   N12  GnM1
 BYTE   N12  AnM1
 BYTE   W06
 BYTE   GsM1
 BYTE   W06
 BYTE   FsM1
 BYTE   N12  GnM1
 BYTE   N12  AnM1
 BYTE   W06
 BYTE   N06  GsM1
 BYTE   W06
 BYTE   PEND 
// 002   ----------------------------------------
Label_10_01053B81:
 BYTE   N24  FsM1  v100
 BYTE   N12  GnM1
 BYTE   W06
 BYTE   GsM1
 BYTE   W06
 BYTE   GnM1
 BYTE   N12  AnM1
 BYTE   W06
 BYTE   GsM1
 BYTE   W06
 BYTE   N18  CnM1
 BYTE   N12  GnM1
 BYTE   N12  AnM1
 BYTE   W06
 BYTE   GsM1
 BYTE   W06
 BYTE   FsM1
 BYTE   N12  GnM1
 BYTE   N12  AnM1
 BYTE   W06
 BYTE   GsM1
 BYTE   N06  CnM1  v092
 BYTE   W06
 BYTE   N12  FsM1  v100
 BYTE   N12  GnM1
 BYTE   N12  AnM1
 BYTE   W06
 BYTE   GsM1
 BYTE   W06
 BYTE   GnM1
 BYTE   N12  AnM1
 BYTE   W06
 BYTE   GsM1
 BYTE   W06
 BYTE   N24  CnM1
 BYTE   N12  GnM1
 BYTE   N12  AnM1
 BYTE   W06
 BYTE   GsM1
 BYTE   W06
 BYTE   FsM1
 BYTE   N12  GnM1
 BYTE   N12  AnM1
 BYTE   W06
 BYTE   GsM1
 BYTE   W06
 BYTE   PEND 
// 003   ----------------------------------------
Label_10_01053BC5:
 BYTE   N12  FsM1  v100
 BYTE   N24  FnM1
 BYTE   N12  GnM1
 BYTE   W06
 BYTE   GsM1
 BYTE   W06
 BYTE   GnM1
 BYTE   N12  AnM1
 BYTE   W06
 BYTE   GsM1
 BYTE   W06
 BYTE   N18  CnM1
 BYTE   N12  GnM1
 BYTE   N12  AnM1
 BYTE   W06
 BYTE   GsM1
 BYTE   W06
 BYTE   FsM1
 BYTE   N12  GnM1
 BYTE   N12  AnM1
 BYTE   W06
 BYTE   GsM1
 BYTE   N06  CnM1  v092
 BYTE   W06
 BYTE   N12  FsM1  v100
 BYTE   N12  GnM1
 BYTE   N12  AnM1
 BYTE   W06
 BYTE   GsM1
 BYTE   W06
 BYTE   GnM1
 BYTE   N12  AnM1
 BYTE   W06
 BYTE   GsM1
 BYTE   W06
 BYTE   N24  CnM1
 BYTE   N12  GnM1
 BYTE   N12  AnM1
 BYTE   W06
 BYTE   GsM1
 BYTE   W06
 BYTE   FsM1
 BYTE   N12  GnM1
 BYTE   N12  AnM1
 BYTE   W06
 BYTE   N06  GsM1
 BYTE   W06
 BYTE   PEND 
// 004   ----------------------------------------
Label_10_01053C0C:
 BYTE   N24  FsM1  v100
 BYTE   N12  GnM1
 BYTE   W06
 BYTE   GsM1
 BYTE   W06
 BYTE   GnM1
 BYTE   N12  AnM1
 BYTE   W06
 BYTE   GsM1
 BYTE   W06
 BYTE   N18  CnM1
 BYTE   N12  GnM1
 BYTE   N12  AnM1
 BYTE   W06
 BYTE   GsM1
 BYTE   W06
 BYTE   FsM1
 BYTE   N12  GnM1
 BYTE   N12  AnM1
 BYTE   W06
 BYTE   GsM1
 BYTE   N06  CnM1  v092
 BYTE   W06
 BYTE   N12  FsM1  v100
 BYTE   N12  GnM1
 BYTE   N12  AnM1
 BYTE   W06
 BYTE   GsM1
 BYTE   W06
 BYTE   GnM1
 BYTE   N12  AnM1
 BYTE   W06
 BYTE   GsM1
 BYTE   W06
 BYTE   N24  CnM1
 BYTE   N12  GnM1
 BYTE   N12  AnM1
 BYTE   W06
 BYTE   N06  GsM1
 BYTE   W06
 BYTE   FsM1
 BYTE   N03  GnM1
 BYTE   N03  AnM1
 BYTE   W06
 BYTE   GsM1
 BYTE   W06
 BYTE   PEND 
 BYTE   PATT
  POIN2 Label_10_01053B3A
 BYTE   PATT
  POIN2 Label_10_01053B81
 BYTE   PATT
  POIN2 Label_10_01053BC5
// 005   ----------------------------------------
Label_10_01053C60:
 BYTE   N24  FsM1  v100
 BYTE   N12  GnM1
 BYTE   W06
 BYTE   GsM1
 BYTE   W06
 BYTE   GnM1
 BYTE   N12  AnM1
 BYTE   W06
 BYTE   GsM1
 BYTE   W06
 BYTE   N18  CnM1
 BYTE   N12  GnM1
 BYTE   N12  AnM1
 BYTE   W06
 BYTE   GsM1
 BYTE   W06
 BYTE   FsM1
 BYTE   N12  GnM1
 BYTE   N12  AnM1
 BYTE   W06
 BYTE   GsM1
 BYTE   N06  CnM1  v092
 BYTE   W06
 BYTE   N12  FsM1  v100
 BYTE   N24  AsM1  v124
 BYTE   N12  AnM1  v100
 BYTE   W06
 BYTE   GsM1
 BYTE   W06
 BYTE   N06  CnM1  v124
 BYTE   W06
 BYTE   N06
 BYTE   W06
 BYTE   N24  FnM1  v100
 BYTE   N24  GnM1
 BYTE   W12
 BYTE   N06  FsM1
 BYTE   N06  CnM1
 BYTE   W06
 BYTE   N18
 BYTE   W06
 BYTE   PEND 
 BYTE   PATT
  POIN2 Label_10_01053B3A
 BYTE   PATT
  POIN2 Label_10_01053B81
 BYTE   PATT
  POIN2 Label_10_01053BC5
 BYTE   PATT
  POIN2 Label_10_01053C0C
 BYTE   PATT
  POIN2 Label_10_01053B3A
 BYTE   PATT
  POIN2 Label_10_01053B81
 BYTE   PATT
  POIN2 Label_10_01053BC5
 BYTE   PATT
  POIN2 Label_10_01053C60
 BYTE   PATT
  POIN2 Label_10_01053B3A
 BYTE   PATT
  POIN2 Label_10_01053B81
 BYTE   PATT
  POIN2 Label_10_01053BC5
 BYTE   PATT
  POIN2 Label_10_01053C0C
 BYTE   PATT
  POIN2 Label_10_01053B3A
// 006   ----------------------------------------
 BYTE   N24  FsM1  v100
 BYTE   N12  GnM1  v116
 BYTE   N24  CsM1
 BYTE   N12  AnM1
 BYTE   W06
 BYTE   GsM1  v100
 BYTE   W06
 BYTE   GnM1  v116
 BYTE   N12  AnM1  v100
 BYTE   W06
 BYTE   GsM1
 BYTE   W06
 BYTE   N18  CnM1
 BYTE   N12  GnM1
 BYTE   N12  AnM1
 BYTE   W06
 BYTE   GsM1
 BYTE   W06
 BYTE   FsM1
 BYTE   N12  GnM1
 BYTE   N12  AnM1
 BYTE   W06
 BYTE   GsM1
 BYTE   N06  CnM1  v092
 BYTE   W06
 BYTE   N12  FsM1  v100
 BYTE   N12  GnM1
 BYTE   N12  AnM1
 BYTE   W06
 BYTE   GsM1
 BYTE   W06
 BYTE   GnM1
 BYTE   N12  AnM1
 BYTE   W06
 BYTE   GsM1
 BYTE   W06
 BYTE   N24  CnM1
 BYTE   N12  GnM1
 BYTE   N12  AnM1
 BYTE   W06
 BYTE   GsM1
 BYTE   W06
 BYTE   FsM1
 BYTE   N12  GnM1
 BYTE   N12  AnM1
 BYTE   W06
 BYTE   GsM1
 BYTE   W06
 BYTE   PATT
  POIN2 Label_10_01053BC5
// 007   ----------------------------------------
 BYTE   N24  FsM1  v100
 BYTE   N12  GnM1
 BYTE   W06
 BYTE   GsM1
 BYTE   W06
 BYTE   GnM1
 BYTE   N12  AnM1
 BYTE   W06
 BYTE   GsM1
 BYTE   W06
 BYTE   N18  CnM1
 BYTE   N12  GnM1
 BYTE   N12  AnM1
 BYTE   W06
 BYTE   GsM1
 BYTE   W06
 BYTE   FsM1
 BYTE   N12  GnM1
 BYTE   N12  AnM1
 BYTE   W06
 BYTE   GsM1
 BYTE   N06  CnM1  v092
 BYTE   W06
 BYTE   N12  FsM1  v100
 BYTE   N24  CsM1  v124
 BYTE   N12  AnM1  v100
 BYTE   W06
 BYTE   GsM1
 BYTE   W06
 BYTE   N06  CnM1  v124
 BYTE   W06
 BYTE   N06
 BYTE   W06
 BYTE   N24  FnM1  v100
 BYTE   N24  GnM1
 BYTE   W06
 BYTE   N06  CsM1
 BYTE   W06
 BYTE   FsM1
 BYTE   N06  CnM1
 BYTE   N06  CsM1
 BYTE   W06
 BYTE   N18  CnM1
 BYTE   N06  CsM1
 BYTE   W06
// 008   ----------------------------------------
 BYTE   N24  FsM1  v124
 BYTE   N24  FnM1
 BYTE   N12  GnM1
 BYTE   W06
 BYTE   GsM1  v108
 BYTE   W06
 BYTE   GnM1  v100
 BYTE   N12  AnM1
 BYTE   W06
 BYTE   GsM1
 BYTE   W06
 BYTE   N18  CnM1
 BYTE   N12  GnM1
 BYTE   N12  AnM1
 BYTE   W06
 BYTE   GsM1
 BYTE   W06
 BYTE   FsM1
 BYTE   N12  GnM1
 BYTE   N12  AnM1
 BYTE   W06
 BYTE   GsM1
 BYTE   N06  CnM1  v092
 BYTE   W06
 BYTE   N12  FsM1  v100
 BYTE   N12  GnM1
 BYTE   N12  AnM1
 BYTE   W06
 BYTE   GsM1
 BYTE   W06
 BYTE   GnM1
 BYTE   N12  AnM1
 BYTE   W06
 BYTE   GsM1
 BYTE   W06
 BYTE   N24  CnM1
 BYTE   N12  GnM1
 BYTE   N12  AnM1
 BYTE   W06
 BYTE   GsM1
 BYTE   W06
 BYTE   FsM1
 BYTE   N12  GnM1
 BYTE   N12  AnM1
 BYTE   W06
 BYTE   N06  GsM1
 BYTE   W06
 BYTE   PATT
  POIN2 Label_10_01053B81
 BYTE   PATT
  POIN2 Label_10_01053BC5
 BYTE   PATT
  POIN2 Label_10_01053C0C
 BYTE   PATT
  POIN2 Label_10_01053B3A
 BYTE   PATT
  POIN2 Label_10_01053B81
 BYTE   PATT
  POIN2 Label_10_01053BC5
 BYTE   PATT
  POIN2 Label_10_01053C60
// 009   ----------------------------------------
 BYTE   N24  FsM1  v100
 BYTE   N03  FnM1
 BYTE   W12
 BYTE   CnM1
 BYTE   W06
 BYTE   N03
 BYTE   W06
 BYTE   N03
 BYTE   W12
 BYTE   FsM1
 BYTE   N03  FnM1
 BYTE   W12
 BYTE   CnM1
 BYTE   W06
 BYTE   N03
 BYTE   W06
 BYTE   N03
 BYTE   W12
 BYTE   FsM1
 BYTE   N03  FnM1
 BYTE   W12
 BYTE   CnM1
 BYTE   W06
 BYTE   N03
 BYTE   W06
// 010   ----------------------------------------
 BYTE   FsM1
 BYTE   N03  FnM1
 BYTE   N72  BnM1  v127
 BYTE   W48
 BYTE   N03  FsM1  v100
 BYTE   W24
 BYTE   N03
 BYTE   W24
// 011   ----------------------------------------
 BYTE   N24  FsM1  v112
 BYTE   N06  Cn0
 BYTE   N24  FnM1
 BYTE   N06  AnM1  v100
 BYTE   W06
 BYTE   Cn0  v112
 BYTE   N06  AnM1  v100
 BYTE   W06
 BYTE   Cn0
 BYTE   N06  Cs0  v112
 BYTE   N12  AnM1
 BYTE   W12
 BYTE   N06  Cn0
 BYTE   N06  AnM1  v100
 BYTE   W06
 BYTE   Cn0  v112
 BYTE   N06  AnM1  v100
 BYTE   W06
 BYTE   N12  Cn0  v112
 BYTE   N06  Cs0
 BYTE   N12  AnM1
 BYTE   W12
 BYTE   FsM1  v100
 BYTE   N06  Cn0  v112
 BYTE   N06  AnM1  v100
 BYTE   W06
 BYTE   Cn0  v112
 BYTE   N06  AnM1  v100
 BYTE   W06
 BYTE   FsM1  v112
 BYTE   N12  Cn0
 BYTE   N06  Cs0
 BYTE   N12  AnM1
 BYTE   W12
 BYTE   N24  CnM1
 BYTE   N06  Cn0
 BYTE   N06  AnM1  v100
 BYTE   W06
 BYTE   Cn0  v112
 BYTE   N06  AnM1  v100
 BYTE   W06
 BYTE   Cn0  v112
 BYTE   N06  Cs0
 BYTE   N12  AnM1
 BYTE   W12
// 012   ----------------------------------------
Label_10_01053E6A:
 BYTE   N24  FsM1  v112
 BYTE   N06  Cn0
 BYTE   N06  AnM1  v100
 BYTE   W06
 BYTE   Cn0  v112
 BYTE   N06  AnM1  v100
 BYTE   W06
 BYTE   Cn0
 BYTE   N06  Cs0  v112
 BYTE   N12  AnM1
 BYTE   W12
 BYTE   N06  Cn0
 BYTE   N06  AnM1  v100
 BYTE   W06
 BYTE   Cn0  v112
 BYTE   N06  AnM1  v100
 BYTE   W06
 BYTE   FsM1  v112
 BYTE   N12  Cn0
 BYTE   N06  Cs0
 BYTE   N12  AnM1
 BYTE   W12
 BYTE   N06  Cn0
 BYTE   N06  AnM1  v100
 BYTE   W06
 BYTE   Cn0  v112
 BYTE   N06  AnM1  v100
 BYTE   W06
 BYTE   FsM1  v112
 BYTE   N12  Cn0
 BYTE   N06  Cs0
 BYTE   N12  AnM1
 BYTE   W12
 BYTE   N06  CnM1
 BYTE   N06  Cn0
 BYTE   N06  AnM1  v100
 BYTE   W06
 BYTE   CnM1  v112
 BYTE   N06  Cn0
 BYTE   N06  AnM1  v100
 BYTE   W06
 BYTE   FsM1  v112
 BYTE   N06  Cn0
 BYTE   N06  Cs0
 BYTE   N12  AnM1
 BYTE   W12
 BYTE   PEND 
// 013   ----------------------------------------
Label_10_01053EC4:
 BYTE   N24  FsM1  v112
 BYTE   N06  Cn0
 BYTE   N24  FnM1
 BYTE   N06  AnM1  v100
 BYTE   W06
 BYTE   Cn0  v112
 BYTE   N06  AnM1  v100
 BYTE   W06
 BYTE   Cn0
 BYTE   N06  Cs0  v112
 BYTE   N12  AnM1
 BYTE   W12
 BYTE   N24  CnM1  v100
 BYTE   N06  Cn0  v112
 BYTE   N06  AnM1  v100
 BYTE   W06
 BYTE   Cn0  v112
 BYTE   N06  AnM1  v100
 BYTE   W06
 BYTE   N12  Cn0  v112
 BYTE   N06  Cs0
 BYTE   N12  AnM1
 BYTE   W12
 BYTE   N06  Cn0
 BYTE   N06  AnM1  v100
 BYTE   W06
 BYTE   Cn0  v112
 BYTE   N06  AnM1  v100
 BYTE   W06
 BYTE   FsM1  v112
 BYTE   N12  Cn0
 BYTE   N06  Cs0
 BYTE   N12  AnM1
 BYTE   W12
 BYTE   N24  CnM1
 BYTE   N06  Cn0
 BYTE   N06  AnM1  v100
 BYTE   W06
 BYTE   Cn0  v112
 BYTE   N06  AnM1  v100
 BYTE   W06
 BYTE   Cn0  v112
 BYTE   N06  Cs0
 BYTE   N12  AnM1
 BYTE   W12
 BYTE   PEND 
// 014   ----------------------------------------
 BYTE   N24  FsM1
 BYTE   N06  Cn0
 BYTE   N06  AnM1  v100
 BYTE   W06
 BYTE   Cn0  v112
 BYTE   N06  AnM1  v100
 BYTE   W06
 BYTE   Cn0
 BYTE   N06  Cs0  v112
 BYTE   N12  AnM1
 BYTE   W12
 BYTE   N24  CnM1  v100
 BYTE   N06  Cn0  v112
 BYTE   N06  AnM1  v100
 BYTE   W06
 BYTE   Cn0  v112
 BYTE   N06  AnM1  v100
 BYTE   W06
 BYTE   FsM1  v112
 BYTE   N12  Cn0
 BYTE   N06  Cs0
 BYTE   N12  AnM1
 BYTE   W12
 BYTE   N06  Cn0
 BYTE   N06  AnM1  v100
 BYTE   W06
 BYTE   Cn0  v112
 BYTE   N06  AnM1  v100
 BYTE   W06
 BYTE   FsM1  v112
 BYTE   N12  Cn0
 BYTE   N06  Cs0
 BYTE   N12  AnM1
 BYTE   W12
 BYTE   N06  CnM1
 BYTE   N06  Cn0
 BYTE   N06  AnM1  v100
 BYTE   W06
 BYTE   CnM1  v112
 BYTE   N06  Cn0
 BYTE   N06  AnM1  v100
 BYTE   W06
 BYTE   FsM1  v112
 BYTE   N06  Cn0
 BYTE   N06  Cs0
 BYTE   N12  AnM1
 BYTE   W12
// 015   ----------------------------------------
 BYTE   N24  FsM1
 BYTE   N06  Cn0
 BYTE   N24  FnM1
 BYTE   N06  AnM1  v100
 BYTE   W06
 BYTE   Cn0  v112
 BYTE   N06  AnM1  v100
 BYTE   W06
 BYTE   Cn0
 BYTE   N06  Cs0  v112
 BYTE   N12  AnM1
 BYTE   W12
 BYTE   N06  Cn0
 BYTE   N06  AnM1  v100
 BYTE   W06
 BYTE   Cn0  v112
 BYTE   N06  AnM1  v100
 BYTE   W06
 BYTE   N24  FsM1
 BYTE   N12  Cn0  v112
 BYTE   N06  Cs0
 BYTE   N12  AnM1
 BYTE   W12
 BYTE   N06  Cn0
 BYTE   N06  AnM1  v100
 BYTE   W06
 BYTE   Cn0  v112
 BYTE   N06  AnM1  v100
 BYTE   W06
 BYTE   FsM1  v112
 BYTE   N12  Cn0
 BYTE   N06  Cs0
 BYTE   N12  AnM1
 BYTE   W12
 BYTE   N24  CnM1
 BYTE   N06  Cn0
 BYTE   N06  AnM1  v100
 BYTE   W06
 BYTE   Cn0  v112
 BYTE   N06  AnM1  v100
 BYTE   W06
 BYTE   Cn0  v112
 BYTE   N06  Cs0
 BYTE   N12  AnM1
 BYTE   W12
 BYTE   PATT
  POIN2 Label_10_01053E6A
// 016   ----------------------------------------
 BYTE   N24  FsM1  v112
 BYTE   N06  Cn0
 BYTE   N24  FnM1
 BYTE   N06  AnM1  v100
 BYTE   W06
 BYTE   Cn0  v112
 BYTE   N06  AnM1  v100
 BYTE   W06
 BYTE   Cn0
 BYTE   N06  Cs0  v112
 BYTE   N12  AnM1
 BYTE   W12
 BYTE   N24  CnM1  v100
 BYTE   N06  Cn0  v112
 BYTE   N06  AnM1  v100
 BYTE   W06
 BYTE   Cn0  v112
 BYTE   N06  AnM1  v100
 BYTE   W06
 BYTE   N12  Cn0  v112
 BYTE   N06  Cs0
 BYTE   N12  AnM1
 BYTE   W12
 BYTE   FsM1  v100
 BYTE   N06  Cn0  v112
 BYTE   N06  AnM1  v100
 BYTE   W06
 BYTE   Cn0  v112
 BYTE   N06  AnM1  v100
 BYTE   W06
 BYTE   FsM1  v112
 BYTE   N12  CnM1  v100
 BYTE   N12  Cn0  v112
 BYTE   N06  Cs0
 BYTE   N12  AnM1
 BYTE   W12
 BYTE   CnM1
 BYTE   N06  Cn0
 BYTE   N06  AnM1  v100
 BYTE   W06
 BYTE   Cn0  v112
 BYTE   N06  AnM1  v100
 BYTE   W06
 BYTE   Cn0  v112
 BYTE   N06  Cs0
 BYTE   N12  AnM1
 BYTE   W12
// 017   ----------------------------------------
 BYTE   N24  FsM1
 BYTE   N24  CnM1  v100
 BYTE   N06  Cn0  v112
 BYTE   N06  AnM1  v100
 BYTE   W06
 BYTE   Cn0  v112
 BYTE   N06  AnM1  v100
 BYTE   W06
 BYTE   Cn0
 BYTE   N06  Cs0  v112
 BYTE   N12  AnM1
 BYTE   W12
 BYTE   N06  Cn0
 BYTE   N06  AnM1  v100
 BYTE   W06
 BYTE   Cn0  v112
 BYTE   N06  AnM1  v100
 BYTE   W06
 BYTE   FsM1  v112
 BYTE   N24  CnM1  v100
 BYTE   N12  Cn0  v112
 BYTE   N06  Cs0
 BYTE   N12  AnM1
 BYTE   W12
 BYTE   N06  Cn0
 BYTE   N06  AnM1  v100
 BYTE   W06
 BYTE   Cn0  v112
 BYTE   N06  AnM1  v100
 BYTE   W06
 BYTE   FsM1  v112
 BYTE   N06  CnM1  v100
 BYTE   N12  Cn0  v112
 BYTE   N06  Cs0
 BYTE   N12  AnM1
 BYTE   W06
 BYTE   CnM1
 BYTE   W06
 BYTE   N06  Cn0
 BYTE   N12  FnM1
 BYTE   N06  AnM1  v100
 BYTE   W06
 BYTE   Cn0  v112
 BYTE   N06  AnM1  v100
 BYTE   W06
 BYTE   FsM1  v112
 BYTE   N06  CnM1
 BYTE   N06  Cn0
 BYTE   N06  Cs0
 BYTE   N12  AnM1
 BYTE   W06
 BYTE   N06  CnM1
 BYTE   W06
 BYTE   PATT
  POIN2 Label_10_01053EC4
// 018   ----------------------------------------
Label_10_010540A5:
 BYTE   N24  FsM1  v112
 BYTE   N06  Cn0
 BYTE   N06  AnM1  v100
 BYTE   W06
 BYTE   Cn0  v112
 BYTE   N06  AnM1  v100
 BYTE   W06
 BYTE   N24  CnM1
 BYTE   N06  Cn0
 BYTE   N06  Cs0  v112
 BYTE   N12  AnM1
 BYTE   W12
 BYTE   N06  Cn0
 BYTE   N06  AnM1  v100
 BYTE   W06
 BYTE   Cn0  v112
 BYTE   N06  AnM1  v100
 BYTE   W06
 BYTE   FsM1  v112
 BYTE   N12  Cn0
 BYTE   N06  Cs0
 BYTE   N12  AnM1
 BYTE   W12
 BYTE   N06  Cn0
 BYTE   N06  AnM1  v100
 BYTE   W06
 BYTE   Cn0  v112
 BYTE   N06  AnM1  v100
 BYTE   W06
 BYTE   FsM1  v112
 BYTE   N12  Cn0
 BYTE   N06  Cs0
 BYTE   N12  AnM1
 BYTE   W12
 BYTE   N06  CnM1
 BYTE   N06  Cn0
 BYTE   N06  AnM1  v100
 BYTE   W06
 BYTE   CnM1  v112
 BYTE   N06  Cn0
 BYTE   N06  AnM1  v100
 BYTE   W06
 BYTE   FsM1  v112
 BYTE   N06  Cn0
 BYTE   N06  Cs0
 BYTE   N12  AnM1
 BYTE   W12
 BYTE   PEND 
 BYTE   PATT
  POIN2 Label_10_01053EC4
 BYTE   PATT
  POIN2 Label_10_010540A5
 BYTE   PATT
  POIN2 Label_10_01053EC4
 BYTE   PATT
  POIN2 Label_10_010540A5
 BYTE   PATT
  POIN2 Label_10_01053EC4
// 019   ----------------------------------------
 BYTE   N24  FsM1  v112
 BYTE   N06  Cn0
 BYTE   N06  AnM1  v100
 BYTE   W06
 BYTE   Cn0  v112
 BYTE   N06  AnM1  v100
 BYTE   W06
 BYTE   Cn0
 BYTE   N06  Cs0  v112
 BYTE   N12  AnM1
 BYTE   W12
 BYTE   N24  CnM1  v100
 BYTE   N06  Cn0  v112
 BYTE   N06  AnM1  v100
 BYTE   W06
 BYTE   Cn0  v112
 BYTE   N06  AnM1  v100
 BYTE   W06
 BYTE   FsM1  v112
 BYTE   N12  Cn0
 BYTE   N06  Cs0
 BYTE   N12  AnM1
 BYTE   W12
 BYTE   N06  CnM1  v127
 BYTE   N06  FnM1
 BYTE   N06  AnM1  v100
 BYTE   W06
 BYTE   CnM1  v127
 BYTE   N06  AnM1  v100
 BYTE   W06
 BYTE   CnM1  v127
 BYTE   N12  AnM1  v112
 BYTE   W06
 BYTE   N06  CnM1  v127
 BYTE   W06
 BYTE   N06
 BYTE   N06  AnM1  v100
 BYTE   W06
 BYTE   N06
 BYTE   W02
 BYTE   DsM1  v127
 BYTE   W04
 BYTE   N24  AnM1  v112
 BYTE   W04
 BYTE   N06  Dn0  v127
 BYTE   W08
// 020   ----------------------------------------
 BYTE   N12  CnM1  v100
 BYTE   N12  FnM1
 BYTE   W12
 BYTE   FsM1
 BYTE   N12  Dn0
 BYTE   W12
 BYTE   FsM1
 BYTE   N12  Dn0
 BYTE   W12
 BYTE   FsM1
 BYTE   N12  DnM1
 BYTE   N12  FnM1
 BYTE   W36
 BYTE   N08  CnM1
 BYTE   W08
 BYTE   N08
 BYTE   W08
 BYTE   N08
 BYTE   W08
// 021   ----------------------------------------
 BYTE   N24  CnM1  v116
 BYTE   N12  FnM1  v100
 BYTE   W12
 BYTE   FsM1  v116
 BYTE   W12
 BYTE   N12
 BYTE   W12
 BYTE   N12
 BYTE   N12  FnM1  v100
 BYTE   W36
 BYTE   N08  FsM1
 BYTE   N08  CnM1  v104
 BYTE   W08
 BYTE   CnM1  v108
 BYTE   W08
 BYTE   N08
 BYTE   W08
// 022   ----------------------------------------
Label_10_010541AC:
 BYTE   N18  FsM1  v112
 BYTE   N06  Ds0
 BYTE   N06  FnM1  v104
 BYTE   W12
 BYTE   Ds0
 BYTE   W06
 BYTE   FsM1  v108
 BYTE   N06  Ds0  v104
 BYTE   W06
 BYTE   CnM1  v108
 BYTE   N06  Ds0  v112
 BYTE   W12
 BYTE   Ds0  v104
 BYTE   W06
 BYTE   N06
 BYTE   W06
 BYTE   FsM1  v100
 BYTE   N06  Ds0  v112
 BYTE   W12
 BYTE   Ds0  v104
 BYTE   W06
 BYTE   N06
 BYTE   W06
 BYTE   CnM1  v100
 BYTE   N06  Ds0  v112
 BYTE   W12
 BYTE   Ds0  v104
 BYTE   W06
 BYTE   N06
 BYTE   W06
 BYTE   PEND 
// 023   ----------------------------------------
 BYTE   FsM1  v100
 BYTE   N06  Ds0  v112
 BYTE   W12
 BYTE   Ds0  v104
 BYTE   W06
 BYTE   FsM1  v100
 BYTE   N06  Ds0  v104
 BYTE   W06
 BYTE   CnM1  v100
 BYTE   N06  Ds0  v112
 BYTE   W12
 BYTE   Ds0  v104
 BYTE   W06
 BYTE   N06
 BYTE   W06
 BYTE   FsM1  v100
 BYTE   N06  Ds0  v112
 BYTE   W12
 BYTE   Ds0  v104
 BYTE   W06
 BYTE   N06
 BYTE   W06
 BYTE   CnM1  v100
 BYTE   N06  Ds0  v112
 BYTE   W18
 BYTE   CnM1  v108
 BYTE   W06
 BYTE   PATT
  POIN2 Label_10_010541AC
// 024   ----------------------------------------
 BYTE   N06  FsM1  v100
 BYTE   N06  Ds0  v112
 BYTE   W12
 BYTE   Ds0  v104
 BYTE   W06
 BYTE   FsM1  v100
 BYTE   N06  Ds0  v104
 BYTE   W06
 BYTE   CnM1  v100
 BYTE   N06  Ds0  v112
 BYTE   W12
 BYTE   Ds0  v104
 BYTE   W06
 BYTE   N06
 BYTE   W06
 BYTE   FsM1  v100
 BYTE   N06  Ds0  v112
 BYTE   W12
 BYTE   Ds0  v104
 BYTE   W06
 BYTE   N06
 BYTE   W06
 BYTE   CnM1  v100
 BYTE   N06  Ds0  v112
 BYTE   W06
 BYTE   CnM1  v108
 BYTE   W06
 BYTE   N06
 BYTE   W12
 BYTE   PATT
  POIN2 Label_10_010541AC
// 025   ----------------------------------------
 BYTE   N06  FsM1  v100
 BYTE   N06  Ds0  v112
 BYTE   W12
 BYTE   Ds0  v104
 BYTE   W06
 BYTE   FsM1  v100
 BYTE   N06  Ds0  v104
 BYTE   W06
 BYTE   CnM1  v100
 BYTE   N06  Ds0  v112
 BYTE   W12
 BYTE   Ds0  v104
 BYTE   W06
 BYTE   N06
 BYTE   W06
 BYTE   FsM1  v100
 BYTE   N06  Ds0  v112
 BYTE   W12
 BYTE   CnM1  v104
 BYTE   N06  Ds0
 BYTE   W06
 BYTE   CnM1
 BYTE   N06  Ds0
 BYTE   W06
 BYTE   Ds0  v112
 BYTE   N06  FnM1  v100
 BYTE   W12
 BYTE   CnM1  v104
 BYTE   W06
 BYTE   CnM1  v108
 BYTE   W06
// 026   ----------------------------------------
 BYTE   N18  FsM1  v112
 BYTE   N06  Ds0
 BYTE   N06  CsM1  v104
 BYTE   W12
 BYTE   Ds0
 BYTE   W06
 BYTE   FsM1  v108
 BYTE   N06  Ds0  v104
 BYTE   W06
 BYTE   CnM1  v108
 BYTE   N06  Ds0  v112
 BYTE   W12
 BYTE   Ds0  v104
 BYTE   W06
 BYTE   N06
 BYTE   W06
 BYTE   FsM1  v100
 BYTE   N06  Ds0  v112
 BYTE   W12
 BYTE   Ds0  v104
 BYTE   W06
 BYTE   N06
 BYTE   W06
 BYTE   CnM1  v100
 BYTE   N06  Ds0  v112
 BYTE   W12
 BYTE   Ds0  v104
 BYTE   W06
 BYTE   N06
 BYTE   W06
// 027   ----------------------------------------
 BYTE   FsM1  v100
 BYTE   N06  Ds0  v112
 BYTE   W12
 BYTE   Ds0  v104
 BYTE   W06
 BYTE   FsM1  v100
 BYTE   N06  Ds0  v104
 BYTE   W06
 BYTE   CnM1  v100
 BYTE   N06  Ds0  v112
 BYTE   W12
 BYTE   Ds0  v104
 BYTE   W06
 BYTE   N06
 BYTE   W06
 BYTE   FsM1  v100
 BYTE   N06  Ds0  v112
 BYTE   W12
 BYTE   CnM1  v104
 BYTE   N06  Ds0
 BYTE   W06
 BYTE   CnM1
 BYTE   N06  Ds0
 BYTE   W06
 BYTE   CnM1  v100
 BYTE   N06  Ds0  v112
 BYTE   W06
 BYTE   CnM1  v108
 BYTE   W06
 BYTE   N06
 BYTE   W10
 BYTE   N24  FnM1  v100
 BYTE   W02
// 028   ----------------------------------------
 BYTE   W01
 BYTE   FsM1
 BYTE   W92
 BYTE   W03
// 029   ----------------------------------------
 BYTE   N24
 BYTE   N24  FnM1
 BYTE   W24
 BYTE   FsM1
 BYTE   N24  FnM1
 BYTE   W24
 BYTE   FsM1
 BYTE   N24  FnM1
 BYTE   W24
 BYTE   FsM1
 BYTE   N24  FnM1
 BYTE   W24
// 030   ----------------------------------------
 BYTE   FsM1
 BYTE   N06  EnM1  v116
 BYTE   N24  FnM1  v100
 BYTE   W48
 BYTE   FsM1
 BYTE   N06  EnM1  v116
 BYTE   W48
// 031   ----------------------------------------
 BYTE   N24  FsM1
 BYTE   N06  EnM1
 BYTE   W48
 BYTE   N24  FsM1  v112
 BYTE   N06  EnM1  v116
 BYTE   W48
// 032   ----------------------------------------
 BYTE   N24  FsM1  v112
 BYTE   N06  EnM1  v116
 BYTE   W48
 BYTE   N24  FsM1
 BYTE   N06  EnM1
 BYTE   W24
 BYTE   FnM1  v072
 BYTE   W06
 BYTE   FnM1  v088
 BYTE   W06
 BYTE   FnM1  v100
 BYTE   W06
 BYTE   FnM1  v112
 BYTE   W06
// 033   ----------------------------------------
 BYTE   FsM1  v124
 BYTE   N06  FnM1
 BYTE   W96
// 034   ----------------------------------------
 BYTE   W60
 BYTE   FsM1  v127
 BYTE   W24
 BYTE   N06
 BYTE   W12
// 035   ----------------------------------------
 BYTE   FsM1  v116
 BYTE   N06  FnM1
 BYTE   W96
// 036   ----------------------------------------
 BYTE   W72
 BYTE   CsM1  v112
 BYTE   W12
 BYTE   FnM1  v108
 BYTE   W12
// 037   ----------------------------------------
 BYTE   FsM1  v120
 BYTE   N06  CsM1
 BYTE   W96
// 038   ----------------------------------------
 BYTE   W80
 BYTE   N12  FsM1
 BYTE   W04
 BYTE   N06  GnM1
 BYTE   W06
 BYTE   N06
 BYTE   W06
// 039   ----------------------------------------
 BYTE   N12  FsM1
 BYTE   N12  FnM1
 BYTE   W96
// 040   ----------------------------------------
 BYTE   N24  FsM1
 BYTE   W60
 BYTE   N12
 BYTE   W12
 BYTE   N12
 BYTE   W24
// 041   ----------------------------------------
 BYTE   N12
 BYTE   N12  CsM1
 BYTE   W96
// 042   ----------------------------------------
 BYTE   BEND   c_v+23
 BYTE   N21  CnM1  v100
 BYTE   N24  CsM1  v120
 BYTE   W21
 BYTE   N03  CnM1
 BYTE   W03
 BYTE   N06
 BYTE   W06
 BYTE   N24  DnM1
 BYTE   N06  DsM1  v127
 BYTE   W06
 BYTE   CnM1  v120
 BYTE   W06
 BYTE   N06
 BYTE   W06
 BYTE   N06
 BYTE   W06
 BYTE   N06
 BYTE   W06
 BYTE   N06
 BYTE   W12
 BYTE   BEND   c_v+33
 BYTE   N12  EnM1
 BYTE   N24  FnM1
 BYTE   W01
 BYTE   BEND   c_v+32
 BYTE   W11
 BYTE   N12  EnM1
 BYTE   N12  CsM1
 BYTE   W12
// 043   ----------------------------------------
 BYTE   GoTo
  POIN2 Label_10_01053B3A
 BYTE   FINE

//******************************************************//
	ALIGN 4

SuperSmashBrosBrawlBossBattleSong1MrGreen3339:
	BYTE	11	// NumTrks
	BYTE	0	// NumBlks
	BYTE	SuperSmashBrosBrawlBossBattleSong1MrGreen3339_pri	// Priority
	BYTE	SuperSmashBrosBrawlBossBattleSong1MrGreen3339_rev	// Reverb.
    
	POIN2	SuperSmashBrosBrawlBossBattleSong1MrGreen3339_grp
    
	POIN2	SuperSmashBrosBrawlBossBattleSong1MrGreen3339_001
	POIN2	SuperSmashBrosBrawlBossBattleSong1MrGreen3339_002
	POIN2	SuperSmashBrosBrawlBossBattleSong1MrGreen3339_003
	POIN2	SuperSmashBrosBrawlBossBattleSong1MrGreen3339_004
	POIN2	SuperSmashBrosBrawlBossBattleSong1MrGreen3339_005
	POIN2	SuperSmashBrosBrawlBossBattleSong1MrGreen3339_006
	POIN2	SuperSmashBrosBrawlBossBattleSong1MrGreen3339_007
	POIN2	SuperSmashBrosBrawlBossBattleSong1MrGreen3339_008
	POIN2	SuperSmashBrosBrawlBossBattleSong1MrGreen3339_009
	POIN2	SuperSmashBrosBrawlBossBattleSong1MrGreen3339_010
	POIN2	SuperSmashBrosBrawlBossBattleSong1MrGreen3339_011

	
