//Event file generated from Sappy .s format.
	#include "MPlayDef.event"

	#define	SuperSmashBrosMeleeFinalDestinationMrGreen3339_grp  voicegroup000
	#define	SuperSmashBrosMeleeFinalDestinationMrGreen3339_pri  0
	#define	SuperSmashBrosMeleeFinalDestinationMrGreen3339_rev  0
	#define	SuperSmashBrosMeleeFinalDestinationMrGreen3339_mvl  127
	#define	SuperSmashBrosMeleeFinalDestinationMrGreen3339_key  0
	#define	SuperSmashBrosMeleeFinalDestinationMrGreen3339_tbs  1
	#define	SuperSmashBrosMeleeFinalDestinationMrGreen3339_exg  0
	#define	SuperSmashBrosMeleeFinalDestinationMrGreen3339_cmp  1

	// .rodata
	//	SuperSmashBrosMeleeFinalDestinationMrGreen3339
	ALIGN 4


//**************** Track 1 (Midi-Chn.0) ****************//

SuperSmashBrosMeleeFinalDestinationMrGreen3339_001:
// 000   ----------------------------------------
 BYTE   KEYSH   SuperSmashBrosMeleeFinalDestinationMrGreen3339_key+0
Label_0_012A0A1A:
 BYTE   TEMPO   160*SuperSmashBrosMeleeFinalDestinationMrGreen3339_tbs/2
 BYTE   VOICE   56
 BYTE   VOL   65*SuperSmashBrosMeleeFinalDestinationMrGreen3339_mvl/mxv
 BYTE   PAN   c_v+0
 BYTE   W24
 BYTE   VOL   65*SuperSmashBrosMeleeFinalDestinationMrGreen3339_mvl/mxv
 BYTE   N32  Gn2  v092
 BYTE   N32  An2
 BYTE   N32  Dn3
 BYTE   W36
 BYTE   N05  As2
 BYTE   W06
 BYTE   Dn3
 BYTE   W06
 BYTE   N32  As2
 BYTE   N32  Dn3
 BYTE   N32  Gn3
 BYTE   W48
// 001   ----------------------------------------
 BYTE   An2
 BYTE   N32  Dn3
 BYTE   N32  Fn3
 BYTE   W36
 BYTE   N05  Dn3
 BYTE   W06
 BYTE   Fn3
 BYTE   W06
 BYTE   N32  Dn3
 BYTE   N32  Fn3
 BYTE   N32  An3
 BYTE   W36
 BYTE   N05  Fn3
 BYTE   W06
 BYTE   An3
 BYTE   W06
// 002   ----------------------------------------
 BYTE   N32  Fs3
 BYTE   N32  An3
 BYTE   N32  Cn4
 BYTE   W36
 BYTE   N05  An3
 BYTE   W06
 BYTE   Cn4
 BYTE   W06
 BYTE   As4
 BYTE   W08
 BYTE   Fs4
 BYTE   W08
 BYTE   Ds4
 BYTE   W08
 BYTE   Fn5
 BYTE   W08
 BYTE   Bn4
 BYTE   W08
 BYTE   Fn5
 BYTE   W08
// 003   ----------------------------------------
 BYTE   N08  Fn3
 BYTE   N08  Gs3
 BYTE   N08  Dn4
 BYTE   W12
 BYTE   Fn3
 BYTE   N08  Gs3
 BYTE   N08  Dn4
 BYTE   W12
 BYTE   N05  Fn3
 BYTE   N05  Gs3
 BYTE   N05  Dn4
 BYTE   W08
 BYTE   Fn3
 BYTE   N05  Gs3
 BYTE   N05  Dn4
 BYTE   W08
 BYTE   Fn3
 BYTE   N05  Gs3
 BYTE   N05  Dn4
 BYTE   W08
 BYTE   N06  Fn3
 BYTE   N06  Gs3
 BYTE   N06  Dn4
 BYTE   W48
// 004   ----------------------------------------
 BYTE   W96
// 005   ----------------------------------------
 BYTE   W96
// 006   ----------------------------------------
 BYTE   W96
// 007   ----------------------------------------
 BYTE   W96
// 008   ----------------------------------------
 BYTE   W96
// 009   ----------------------------------------
 BYTE   W96
// 010   ----------------------------------------
 BYTE   W96
// 011   ----------------------------------------
 BYTE   W96
// 012   ----------------------------------------
 BYTE   W24
 BYTE   N05  Gn3  v060
 BYTE   N05  As3
 BYTE   N05  Gn4
 BYTE   W08
 BYTE   Gn3
 BYTE   N05  As3
 BYTE   N05  Gn4
 BYTE   W08
 BYTE   Gn3
 BYTE   N05  As3
 BYTE   N05  Gn4
 BYTE   W08
 BYTE   N06  Gn3
 BYTE   N06  As3
 BYTE   N06  Gn4
 BYTE   W48
// 013   ----------------------------------------
 BYTE   W24
 BYTE   N05  Fn3
 BYTE   N05  An3
 BYTE   N05  Fn4
 BYTE   W08
 BYTE   Fn3
 BYTE   N05  An3
 BYTE   N05  Fn4
 BYTE   W08
 BYTE   Fn3
 BYTE   N05  An3
 BYTE   N05  Fn4
 BYTE   W08
 BYTE   N06  Fn3
 BYTE   N06  An3
 BYTE   N06  Fn4
 BYTE   W48
// 014   ----------------------------------------
 BYTE   N20  Dn3
 BYTE   N20  Gn3
 BYTE   N20  Bn3
 BYTE   W48
 BYTE   En3
 BYTE   N20  An3
 BYTE   N20  Cs4
 BYTE   W48
// 015   ----------------------------------------
 BYTE   N30  Cn3
 BYTE   N30  Dn3
 BYTE   N30  Gn3
 BYTE   W32
 BYTE   N05  Cn3
 BYTE   N05  Dn3
 BYTE   N05  Gn3
 BYTE   W08
 BYTE   Cn3
 BYTE   N05  Dn3
 BYTE   N05  Gn3
 BYTE   W08
 BYTE   N20  An2
 BYTE   N20  Dn3
 BYTE   N20  Fs3
 BYTE   W48
// 016   ----------------------------------------
 BYTE   N11  As3  v076
 BYTE   W12
 BYTE   N05  Fn3
 BYTE   W06
 BYTE   As3
 BYTE   W06
 BYTE   N42  Fn4
 BYTE   W48
 BYTE   N05  Ds4
 BYTE   W06
 BYTE   Cs4
 BYTE   W06
 BYTE   Cn4
 BYTE   W06
 BYTE   As3
 BYTE   W06
// 017   ----------------------------------------
 BYTE   N17  Cs4
 BYTE   W18
 BYTE   N05  Cn4
 BYTE   W06
 BYTE   N42
 BYTE   W72
// 018   ----------------------------------------
 BYTE   W12
 BYTE   N05  As3
 BYTE   W06
 BYTE   N05
 BYTE   W06
 BYTE   N42  Ds4
 BYTE   W48
 BYTE   N05  Cs4
 BYTE   W06
 BYTE   Cn4
 BYTE   W06
 BYTE   As3
 BYTE   W06
 BYTE   Gs3
 BYTE   W06
// 019   ----------------------------------------
 BYTE   N17  Gs4
 BYTE   W18
 BYTE   N05  Gs3
 BYTE   W06
 BYTE   N42
 BYTE   W72
// 020   ----------------------------------------
 BYTE   W96
// 021   ----------------------------------------
 BYTE   W96
// 022   ----------------------------------------
 BYTE   W96
// 023   ----------------------------------------
 BYTE   W72
 BYTE   N05  Cs3  v108
 BYTE   W08
 BYTE   Ds3
 BYTE   W08
 BYTE   Fn3
 BYTE   W08
// 024   ----------------------------------------
 BYTE   N20  Cs3
 BYTE   N20  Gs3
 BYTE   W32
 BYTE   N05  Cs3
 BYTE   N05  Fn3
 BYTE   W08
 BYTE   Cs3
 BYTE   N05  Gs3
 BYTE   W08
 BYTE   N20  Ds3
 BYTE   N20  As3
 BYTE   W32
 BYTE   N05  Ds3
 BYTE   N05  Fs3
 BYTE   W08
 BYTE   Ds3
 BYTE   N05  As3
 BYTE   W08
// 025   ----------------------------------------
 BYTE   N20  Fs3
 BYTE   N20  Cs4
 BYTE   W32
 BYTE   N05  Fs3
 BYTE   N05  As3
 BYTE   W08
 BYTE   Fs3
 BYTE   N05  Cs4
 BYTE   W08
 BYTE   Gs3
 BYTE   N05  Ds4
 BYTE   W08
 BYTE   Gs3
 BYTE   N05  Ds4
 BYTE   W08
 BYTE   Gs3
 BYTE   N05  Ds4
 BYTE   W08
 BYTE   Fn3
 BYTE   N05  Cn4
 BYTE   W08
 BYTE   Fn3
 BYTE   N05  Cn4
 BYTE   W08
 BYTE   Fn3
 BYTE   N05  Cn4
 BYTE   W08
// 026   ----------------------------------------
 BYTE   N20  Fn3
 BYTE   N20  As3
 BYTE   W32
 BYTE   N05  As2
 BYTE   W08
 BYTE   N05
 BYTE   N05  Cs3
 BYTE   W08
 BYTE   N05
 BYTE   N05  Fs3
 BYTE   W08
 BYTE   Fs2
 BYTE   N05  Cs3
 BYTE   W08
 BYTE   N05
 BYTE   N05  Fs3
 BYTE   W08
 BYTE   Ds3
 BYTE   N05  Gs3
 BYTE   W08
 BYTE   Gs2
 BYTE   N05  Ds3
 BYTE   W08
 BYTE   N05
 BYTE   N05  Gs3
 BYTE   W08
// 027   ----------------------------------------
 BYTE   N15  Fn3
 BYTE   N15  As3
 BYTE   W96
// 028   ----------------------------------------
 BYTE   W96
// 029   ----------------------------------------
 BYTE   W96
// 030   ----------------------------------------
 BYTE   W96
// 031   ----------------------------------------
 BYTE   W96
// 032   ----------------------------------------
 BYTE   W96
// 033   ----------------------------------------
 BYTE   W96
// 034   ----------------------------------------
 BYTE   W96
// 035   ----------------------------------------
 BYTE   W96
// 036   ----------------------------------------
 BYTE   W96
// 037   ----------------------------------------
 BYTE   W96
// 038   ----------------------------------------
 BYTE   W48
 BYTE   VOL   33*SuperSmashBrosMeleeFinalDestinationMrGreen3339_mvl/mxv
 BYTE   N42  En4
 BYTE   N42  An4
 BYTE   W01
 BYTE   VOL   33*SuperSmashBrosMeleeFinalDestinationMrGreen3339_mvl/mxv
 BYTE   W01
 BYTE   As0
 BYTE   W01
 BYTE   Bn0
 BYTE   W01
 BYTE   Bn0
 BYTE   W01
 BYTE   Cn1
 BYTE   W01
 BYTE   Cs1
 BYTE   W01
 BYTE   Cs1
 BYTE   W01
 BYTE   Dn1
 BYTE   W01
 BYTE   Ds1
 BYTE   W01
 BYTE   Ds1
 BYTE   W01
 BYTE   En1
 BYTE   W01
 BYTE   Fn1
 BYTE   W01
 BYTE   Fn1
 BYTE   W01
 BYTE   Fs1
 BYTE   W01
 BYTE   Fs1
 BYTE   W01
 BYTE   Gs1
 BYTE   W01
 BYTE   Gs1
 BYTE   W01
 BYTE   An1
 BYTE   W01
 BYTE   As1
 BYTE   W01
 BYTE   As1
 BYTE   W01
 BYTE   Bn1
 BYTE   W01
 BYTE   Cn2
 BYTE   W01
 BYTE   Cn2
 BYTE   W01
 BYTE   Cs2
 BYTE   W01
 BYTE   Dn2
 BYTE   W01
 BYTE   Dn2
 BYTE   W01
 BYTE   Ds2
 BYTE   W01
 BYTE   En2
 BYTE   W01
 BYTE   En2
 BYTE   W01
 BYTE   Fn2
 BYTE   W01
 BYTE   Fn2
 BYTE   W01
 BYTE   Fs2
 BYTE   W01
 BYTE   Gn2
 BYTE   W01
 BYTE   Gn2
 BYTE   W01
 BYTE   Gs2
 BYTE   W01
 BYTE   An2
 BYTE   W01
 BYTE   An2
 BYTE   W01
 BYTE   As2
 BYTE   W01
 BYTE   Bn2
 BYTE   W01
 BYTE   Bn2
 BYTE   W01
 BYTE   Cn3
 BYTE   W01
 BYTE   Cs3
 BYTE   W01
 BYTE   Cs3
 BYTE   W01
 BYTE   Dn3
 BYTE   W01
 BYTE   Ds3
 BYTE   W01
 BYTE   Ds3
 BYTE   W01
 BYTE   En3
 BYTE   W01
// 039   ----------------------------------------
 BYTE   Fn3
 BYTE   N15  Gs2  v092
 BYTE   N15  Bn2
 BYTE   N15  Ds3
 BYTE   W24
 BYTE   Gs2
 BYTE   N15  Bn2
 BYTE   N15  Ds3
 BYTE   W24
 BYTE   Gs2
 BYTE   N15  Bn2
 BYTE   N15  Ds3
 BYTE   W24
 BYTE   Gs2
 BYTE   N15  Bn2
 BYTE   N15  Ds3
 BYTE   W24
// 040   ----------------------------------------
 BYTE   N42  Fs2
 BYTE   N42  An2
 BYTE   N42  Cs3
 BYTE   W96
// 041   ----------------------------------------
 BYTE   N15  Gs2
 BYTE   N15  Bn2
 BYTE   N15  Ds3
 BYTE   W24
 BYTE   N20  Gs2
 BYTE   N16  Bn2
 BYTE   N07  Ds3
 BYTE   W08
 BYTE   Cs3
 BYTE   W08
 BYTE   N04  Bn2
 BYTE   W08
 BYTE   N15  Gs2
 BYTE   N15  Bn2
 BYTE   N15  Ds3
 BYTE   W24
 BYTE   Bn2
 BYTE   N15  Ds3
 BYTE   N15  Fs3
 BYTE   W24
// 042   ----------------------------------------
 BYTE   Gs2
 BYTE   N15  Cs3
 BYTE   N15  Fn3
 BYTE   W24
 BYTE   N56  Fn2
 BYTE   N56  Gs2
 BYTE   N56  Cs3
 BYTE   W72
// 043   ----------------------------------------
 BYTE   N15  An2
 BYTE   N15  Cn3
 BYTE   N15  En3
 BYTE   W24
 BYTE   An2
 BYTE   N15  Cn3
 BYTE   N15  En3
 BYTE   W24
 BYTE   An2
 BYTE   N15  Cn3
 BYTE   N15  En3
 BYTE   W24
 BYTE   N07  An2  v060
 BYTE   N07  Cn3
 BYTE   N07  En3
 BYTE   W08
 BYTE   An2
 BYTE   N07  Cn3
 BYTE   W08
 BYTE   An2
 BYTE   N07  Cn3
 BYTE   N07  En3
 BYTE   W08
// 044   ----------------------------------------
 BYTE   N66  Fn3
 BYTE   N66  An3
 BYTE   N66  Dn4
 BYTE   W72
 BYTE   N07  Fn3
 BYTE   N07  An3
 BYTE   N07  Dn4
 BYTE   W08
 BYTE   Fn3
 BYTE   N07  An3
 BYTE   W08
 BYTE   Fn3
 BYTE   N07  An3
 BYTE   N07  Dn4
 BYTE   W08
// 045   ----------------------------------------
 BYTE   N72  Gs3
 BYTE   N72  Bn3
 BYTE   N72  En4
 BYTE   W96
// 046   ----------------------------------------
 BYTE   N80  En3
 BYTE   N80  Gs3
 BYTE   N80  Bn3
 BYTE   W96
// 047   ----------------------------------------
 BYTE   N15  Cn3  v076
 BYTE   N15  Ds3
 BYTE   N15  Gn3
 BYTE   W24
 BYTE   Cn3
 BYTE   N15  Ds3
 BYTE   N15  Gn3
 BYTE   W24
 BYTE   Cn3
 BYTE   N15  Ds3
 BYTE   N15  Gn3
 BYTE   W24
 BYTE   N07  Cn3
 BYTE   N07  Ds3
 BYTE   N07  Gn3
 BYTE   W08
 BYTE   Gn2
 BYTE   N07  Cn3
 BYTE   N07  Ds3
 BYTE   W08
 BYTE   Cn3
 BYTE   N07  Ds3
 BYTE   N07  Gn3
 BYTE   W08
// 048   ----------------------------------------
 BYTE   N66  As3
 BYTE   N66  Cs4
 BYTE   N66  Fn4
 BYTE   W72
 BYTE   N07  As3
 BYTE   N07  Cs4
 BYTE   N07  Fn4
 BYTE   W08
 BYTE   Fn3
 BYTE   N07  As3
 BYTE   N07  Cs4
 BYTE   W08
 BYTE   As3
 BYTE   N07  Cs4
 BYTE   N07  Fn4
 BYTE   W08
// 049   ----------------------------------------
 BYTE   N15  Cn3
 BYTE   N15  Ds3
 BYTE   N15  Gn3
 BYTE   W24
 BYTE   N11  Cn3
 BYTE   N11  Ds3
 BYTE   N07  Gn3
 BYTE   W08
 BYTE   Fn3
 BYTE   W08
 BYTE   Ds3
 BYTE   W08
 BYTE   N15  Cn3
 BYTE   N15  Ds3
 BYTE   N15  Gn3
 BYTE   W24
 BYTE   N20  Ds3
 BYTE   N20  Gn3
 BYTE   N20  As3
 BYTE   W24
// 050   ----------------------------------------
 BYTE   N90  Dn3
 BYTE   N90  Fn3
 BYTE   N90  An3
 BYTE   W96
// 051   ----------------------------------------
 BYTE   W96
// 052   ----------------------------------------
 BYTE   N05  En3
 BYTE   N05  An3
 BYTE   W08
 BYTE   En3
 BYTE   N05  An3
 BYTE   W08
 BYTE   En3
 BYTE   N05  An3
 BYTE   W08
 BYTE   Cs3
 BYTE   N05  Fs3
 BYTE   W08
 BYTE   Cs3
 BYTE   N05  Fs3
 BYTE   W08
 BYTE   Cs3
 BYTE   N05  Fs3
 BYTE   W08
 BYTE   An2
 BYTE   N05  Dn3
 BYTE   W08
 BYTE   An2
 BYTE   N05  Dn3
 BYTE   W08
 BYTE   An2
 BYTE   N05  Dn3
 BYTE   W08
 BYTE   Bn2
 BYTE   N05  En3
 BYTE   W08
 BYTE   Bn2
 BYTE   N05  En3
 BYTE   W08
 BYTE   Bn2
 BYTE   N05  En3
 BYTE   W08
// 053   ----------------------------------------
 BYTE   N11  Cn3
 BYTE   N11  Fn3
 BYTE   W16
 BYTE   Cn3
 BYTE   N11  Fn3
 BYTE   W80
// 054   ----------------------------------------
 BYTE   N15  An2
 BYTE   W24
 BYTE   N05
 BYTE   N05  En3
 BYTE   N05  An3
 BYTE   W08
 BYTE   An2
 BYTE   N05  En3
 BYTE   N05  An3
 BYTE   W08
 BYTE   An2
 BYTE   N05  En3
 BYTE   N05  An3
 BYTE   W08
 BYTE   N15  An2
 BYTE   N15  En3
 BYTE   N15  An3
 BYTE   W48
// 055   ----------------------------------------
 BYTE   W24
 BYTE   N05  Dn3
 BYTE   N05  An3
 BYTE   N05  Dn4
 BYTE   W08
 BYTE   Dn3
 BYTE   N05  An3
 BYTE   N05  Dn4
 BYTE   W08
 BYTE   Dn3
 BYTE   N05  An3
 BYTE   N05  Dn4
 BYTE   W08
 BYTE   N15  Dn3
 BYTE   N15  An3
 BYTE   N15  Dn4
 BYTE   W24
 BYTE   GoTo
  POIN2 Label_0_012A0A1A
 BYTE   FINE

//**************** Track 2 (Midi-Chn.1) ****************//

SuperSmashBrosMeleeFinalDestinationMrGreen3339_002:
// 000   ----------------------------------------
 BYTE   KEYSH   SuperSmashBrosMeleeFinalDestinationMrGreen3339_key+0
Label_1_012A0D92:
 BYTE   VOICE   61
 BYTE   VOL   65*SuperSmashBrosMeleeFinalDestinationMrGreen3339_mvl/mxv
 BYTE   PAN   c_v+0
 BYTE   W24
 BYTE   VOL   65*SuperSmashBrosMeleeFinalDestinationMrGreen3339_mvl/mxv
 BYTE   N32  Gn2  v060
 BYTE   N32  An2
 BYTE   N32  Dn3
 BYTE   W36
 BYTE   N05  As2
 BYTE   W06
 BYTE   Dn3
 BYTE   W06
 BYTE   N32  As2
 BYTE   N32  Dn3
 BYTE   N32  Gn3
 BYTE   W48
// 001   ----------------------------------------
 BYTE   An2
 BYTE   N32  Dn3
 BYTE   N32  Fn3
 BYTE   W36
 BYTE   N05  Dn3
 BYTE   W06
 BYTE   Fn3
 BYTE   W06
 BYTE   N32  Dn3
 BYTE   N32  Fn3
 BYTE   N32  An3
 BYTE   W36
 BYTE   N05  Fn3
 BYTE   W06
 BYTE   An3
 BYTE   W06
// 002   ----------------------------------------
 BYTE   N32  Fs3
 BYTE   N32  An3
 BYTE   N32  Cn4
 BYTE   W36
 BYTE   N05  An3
 BYTE   W06
 BYTE   Cn4
 BYTE   W06
 BYTE   As4  v076
 BYTE   W08
 BYTE   Fs4
 BYTE   W08
 BYTE   Ds4
 BYTE   W08
 BYTE   Fn5
 BYTE   W08
 BYTE   Bn4
 BYTE   W08
 BYTE   Fn5
 BYTE   W08
// 003   ----------------------------------------
 BYTE   N08  Fn3
 BYTE   N08  Gs3
 BYTE   N08  Dn4
 BYTE   W12
 BYTE   Fn3
 BYTE   N08  Gs3
 BYTE   N08  Dn4
 BYTE   W12
 BYTE   N05  Fn3
 BYTE   N05  Gs3
 BYTE   N05  Dn4
 BYTE   W08
 BYTE   Fn3
 BYTE   N05  Gs3
 BYTE   N05  Dn4
 BYTE   W08
 BYTE   Fn3
 BYTE   N05  Gs3
 BYTE   N05  Dn4
 BYTE   W08
 BYTE   N06  Fn3
 BYTE   N06  Gs3
 BYTE   N06  Dn4
 BYTE   W48
// 004   ----------------------------------------
 BYTE   W96
// 005   ----------------------------------------
 BYTE   W96
// 006   ----------------------------------------
 BYTE   W96
// 007   ----------------------------------------
 BYTE   W96
// 008   ----------------------------------------
 BYTE   W96
// 009   ----------------------------------------
 BYTE   W96
// 010   ----------------------------------------
 BYTE   W96
// 011   ----------------------------------------
 BYTE   W96
// 012   ----------------------------------------
 BYTE   W24
 BYTE   N05  Gn3
 BYTE   N05  As3
 BYTE   N05  Gn4
 BYTE   W08
 BYTE   Gn3
 BYTE   N05  As3
 BYTE   N05  Gn4
 BYTE   W08
 BYTE   Gn3
 BYTE   N05  As3
 BYTE   N05  Gn4
 BYTE   W08
 BYTE   N06  Gn3
 BYTE   N06  As3
 BYTE   N06  Gn4
 BYTE   W48
// 013   ----------------------------------------
 BYTE   W24
 BYTE   N05  Fn3
 BYTE   N05  An3
 BYTE   N05  Fn4
 BYTE   W08
 BYTE   Fn3
 BYTE   N05  An3
 BYTE   N05  Fn4
 BYTE   W08
 BYTE   Fn3
 BYTE   N05  An3
 BYTE   N05  Fn4
 BYTE   W08
 BYTE   N06  Fn3
 BYTE   N06  An3
 BYTE   N06  Fn4
 BYTE   W48
// 014   ----------------------------------------
 BYTE   N20  Dn3
 BYTE   N20  Gn3
 BYTE   N20  Bn3
 BYTE   W48
 BYTE   En3
 BYTE   N20  An3
 BYTE   N20  Cs4
 BYTE   W48
// 015   ----------------------------------------
 BYTE   N30  Cn3
 BYTE   N30  Dn3
 BYTE   N30  Gn3
 BYTE   W32
 BYTE   N05  Cn3
 BYTE   N05  Dn3
 BYTE   N05  Gn3
 BYTE   W08
 BYTE   Cn3
 BYTE   N05  Dn3
 BYTE   N05  Gn3
 BYTE   W08
 BYTE   N20  An2
 BYTE   N20  Dn3
 BYTE   N20  Fs3
 BYTE   W48
// 016   ----------------------------------------
 BYTE   N11  As2  v060
 BYTE   N11  Cs3
 BYTE   N11  Fn3
 BYTE   W36
 BYTE   As2
 BYTE   N11  Cs3
 BYTE   N11  Fn3
 BYTE   W24
 BYTE   As2
 BYTE   N11  Cs3
 BYTE   N11  Fn3
 BYTE   W36
// 017   ----------------------------------------
Label_1_012A0E80:
 BYTE   N11  Gs2  v060
 BYTE   N11  Cn3
 BYTE   N11  Ds3
 BYTE   W36
 BYTE   Gs2
 BYTE   N11  Cn3
 BYTE   N11  Ds3
 BYTE   W24
 BYTE   Gs2
 BYTE   N11  Cn3
 BYTE   N11  Ds3
 BYTE   W36
 BYTE   PEND 
// 018   ----------------------------------------
 BYTE   As2
 BYTE   N11  Cs3
 BYTE   N11  Fs3
 BYTE   W36
 BYTE   As2
 BYTE   N11  Cs3
 BYTE   N11  Fs3
 BYTE   W24
 BYTE   As2
 BYTE   N11  Cs3
 BYTE   N11  Fs3
 BYTE   W36
 BYTE   PATT
  POIN2 Label_1_012A0E80
// 019   ----------------------------------------
 BYTE   W96
// 020   ----------------------------------------
 BYTE   W96
// 021   ----------------------------------------
 BYTE   W96
// 022   ----------------------------------------
 BYTE   W72
 BYTE   N05  Cs3  v076
 BYTE   W08
 BYTE   Ds3
 BYTE   W08
 BYTE   Fn3
 BYTE   W08
// 023   ----------------------------------------
 BYTE   N20  Cs3
 BYTE   N20  Gs3
 BYTE   W32
 BYTE   N05  Cs3
 BYTE   N05  Fn3
 BYTE   W08
 BYTE   Cs3
 BYTE   N05  Gs3
 BYTE   W08
 BYTE   N20  Ds3
 BYTE   N20  As3
 BYTE   W32
 BYTE   N05  Ds3
 BYTE   N05  Fs3
 BYTE   W08
 BYTE   Ds3
 BYTE   N05  As3
 BYTE   W08
// 024   ----------------------------------------
 BYTE   N20  Fs3
 BYTE   N20  Cs4
 BYTE   W32
 BYTE   N05  Fs3
 BYTE   N05  As3
 BYTE   W08
 BYTE   Fs3
 BYTE   N05  Cs4
 BYTE   W08
 BYTE   Gs3
 BYTE   N05  Ds4
 BYTE   W08
 BYTE   Gs3
 BYTE   N05  Ds4
 BYTE   W08
 BYTE   Gs3
 BYTE   N05  Ds4
 BYTE   W08
 BYTE   N20  Fn3
 BYTE   N20  Cn4
 BYTE   W24
// 025   ----------------------------------------
 BYTE   Fn3
 BYTE   N20  As3
 BYTE   W32
 BYTE   N05  As2
 BYTE   W08
 BYTE   N05
 BYTE   N05  Cs3
 BYTE   W08
 BYTE   N05
 BYTE   N05  Fs3
 BYTE   W08
 BYTE   Fs2
 BYTE   N05  Cs3
 BYTE   W08
 BYTE   N05
 BYTE   N05  Fs3
 BYTE   W08
 BYTE   Ds3
 BYTE   N05  Gs3
 BYTE   W08
 BYTE   Gs2
 BYTE   N05  Ds3
 BYTE   W08
 BYTE   N05
 BYTE   N05  Gs3
 BYTE   W08
// 026   ----------------------------------------
 BYTE   N15  Fn3
 BYTE   N15  As3
 BYTE   W96
// 027   ----------------------------------------
 BYTE   W96
// 028   ----------------------------------------
 BYTE   W96
// 029   ----------------------------------------
 BYTE   W96
// 030   ----------------------------------------
 BYTE   W96
// 031   ----------------------------------------
 BYTE   W96
// 032   ----------------------------------------
 BYTE   W96
// 033   ----------------------------------------
 BYTE   W96
// 034   ----------------------------------------
 BYTE   W96
// 035   ----------------------------------------
 BYTE   W96
// 036   ----------------------------------------
 BYTE   W96
// 037   ----------------------------------------
 BYTE   W96
// 038   ----------------------------------------
 BYTE   W96
// 039   ----------------------------------------
 BYTE   W72
 BYTE   N07  Cs4  v048
 BYTE   W08
 BYTE   Bn3
 BYTE   W08
 BYTE   En4
 BYTE   W08
// 040   ----------------------------------------
 BYTE   N15  Gs3
 BYTE   N15  Bn3
 BYTE   N15  Ds4
 BYTE   W24
 BYTE   N20  Gs3
 BYTE   N16  Bn3
 BYTE   N07  Ds4
 BYTE   W08
 BYTE   Cs4
 BYTE   W08
 BYTE   N04  Bn3
 BYTE   W08
 BYTE   N15  Gs3
 BYTE   N15  Bn3
 BYTE   N15  Ds4
 BYTE   W24
 BYTE   Bn3
 BYTE   N15  Ds4
 BYTE   N15  Fs4
 BYTE   W24
// 041   ----------------------------------------
 BYTE   Gs3
 BYTE   N15  Cs4
 BYTE   N15  Fn4
 BYTE   W24
 BYTE   N48  Fn3
 BYTE   N48  Gs3
 BYTE   N48  Cs4
 BYTE   W72
// 042   ----------------------------------------
 BYTE   N15  An2
 BYTE   N15  Cn3
 BYTE   N15  En3
 BYTE   W24
 BYTE   An2
 BYTE   N15  Cn3
 BYTE   N15  En3
 BYTE   W24
 BYTE   An2
 BYTE   N15  Cn3
 BYTE   N15  En3
 BYTE   W48
// 043   ----------------------------------------
 BYTE   W96
// 044   ----------------------------------------
 BYTE   W96
// 045   ----------------------------------------
 BYTE   W96
// 046   ----------------------------------------
 BYTE   Cn3
 BYTE   N15  Ds3
 BYTE   N15  Gn3
 BYTE   W24
 BYTE   Cn3
 BYTE   N15  Ds3
 BYTE   N15  Gn3
 BYTE   W24
 BYTE   Cn3
 BYTE   N15  Ds3
 BYTE   N15  Gn3
 BYTE   W24
 BYTE   N07  Cn3
 BYTE   N07  Ds3
 BYTE   N07  Gn3
 BYTE   W08
 BYTE   Gn2
 BYTE   N07  Cn3
 BYTE   N07  Ds3
 BYTE   W08
 BYTE   Cn3
 BYTE   N07  Ds3
 BYTE   N07  Gn3
 BYTE   W08
// 047   ----------------------------------------
 BYTE   N66  As3
 BYTE   N66  Cs4
 BYTE   N66  Fn4
 BYTE   W72
 BYTE   N07  As3  v032
 BYTE   N07  Cs4
 BYTE   N07  Fn4
 BYTE   W08
 BYTE   Fn3
 BYTE   N07  As3
 BYTE   N07  Cs4
 BYTE   W08
 BYTE   As3
 BYTE   N07  Cs4
 BYTE   N07  Fn4
 BYTE   W08
// 048   ----------------------------------------
 BYTE   N15  Cn3  v060
 BYTE   N15  Ds3
 BYTE   N15  Gn3
 BYTE   W24
 BYTE   N11  Cn3
 BYTE   N11  Ds3
 BYTE   N07  Gn3
 BYTE   W08
 BYTE   Fn3
 BYTE   W08
 BYTE   Ds3
 BYTE   W08
 BYTE   N15  Cn3
 BYTE   N15  Ds3
 BYTE   N15  Gn3
 BYTE   W24
 BYTE   N20  Ds3
 BYTE   N20  Gn3
 BYTE   N20  As3
 BYTE   W24
// 049   ----------------------------------------
 BYTE   N90  Dn3
 BYTE   N90  Fn3
 BYTE   N90  An3
 BYTE   W96
// 050   ----------------------------------------
 BYTE   W96
// 051   ----------------------------------------
 BYTE   N15  En4
 BYTE   N15  An4
 BYTE   W24
 BYTE   Cs4
 BYTE   N15  Fs4
 BYTE   W24
 BYTE   An3
 BYTE   N15  Dn4
 BYTE   W24
 BYTE   Bn3
 BYTE   N15  En4
 BYTE   W24
// 052   ----------------------------------------
 BYTE   N30  Cn4
 BYTE   N30  Fn4
 BYTE   W96
// 053   ----------------------------------------
 BYTE   N15  An3
 BYTE   W24
 BYTE   N05
 BYTE   N05  En4
 BYTE   N05  An4
 BYTE   W08
 BYTE   An3
 BYTE   N05  En4
 BYTE   N05  An4
 BYTE   W08
 BYTE   An3
 BYTE   N05  En4
 BYTE   N05  An4
 BYTE   W08
 BYTE   N15  An3
 BYTE   N15  En4
 BYTE   N15  An4
 BYTE   W48
// 054   ----------------------------------------
 BYTE   W24
 BYTE   N05  Dn4
 BYTE   N05  An4
 BYTE   N05  Dn5
 BYTE   W08
 BYTE   Dn4
 BYTE   N05  An4
 BYTE   N05  Dn5
 BYTE   W08
 BYTE   Dn4
 BYTE   N05  An4
 BYTE   N05  Dn5
 BYTE   W08
 BYTE   N15  Dn4
 BYTE   N15  An4
 BYTE   N15  Dn5
 BYTE   W24
 BYTE   GoTo
  POIN2 Label_1_012A0D92
 BYTE   FINE

//**************** Track 3 (Midi-Chn.2) ****************//

SuperSmashBrosMeleeFinalDestinationMrGreen3339_003:
// 000   ----------------------------------------
 BYTE   KEYSH   SuperSmashBrosMeleeFinalDestinationMrGreen3339_key+0
Label_2_012A1032:
 BYTE   VOICE   64
 BYTE   VOL   65*SuperSmashBrosMeleeFinalDestinationMrGreen3339_mvl/mxv
 BYTE   PAN   c_v+0
 BYTE   W24
 BYTE   VOL   65*SuperSmashBrosMeleeFinalDestinationMrGreen3339_mvl/mxv
 BYTE   N32  Gn2  v060
 BYTE   N32  An2
 BYTE   N32  Dn3
 BYTE   W36
 BYTE   N05  As2
 BYTE   W06
 BYTE   Dn3
 BYTE   W06
 BYTE   N32  As2
 BYTE   N32  Dn3
 BYTE   N32  Gn3
 BYTE   W48
// 001   ----------------------------------------
 BYTE   An2
 BYTE   N32  Dn3
 BYTE   N32  Fn3
 BYTE   W36
 BYTE   N05  Dn3
 BYTE   W06
 BYTE   Fn3
 BYTE   W06
 BYTE   N32  Dn3
 BYTE   N32  Fn3
 BYTE   N32  An3
 BYTE   W36
 BYTE   N05  Fn3
 BYTE   W06
 BYTE   An3
 BYTE   W06
// 002   ----------------------------------------
 BYTE   N32  Fs3
 BYTE   N32  An3
 BYTE   N32  Cn4
 BYTE   W36
 BYTE   N05  An3
 BYTE   W06
 BYTE   Cn4
 BYTE   W06
 BYTE   As4  v076
 BYTE   W08
 BYTE   Fs4
 BYTE   W08
 BYTE   Ds4
 BYTE   W08
 BYTE   Fn5
 BYTE   W08
 BYTE   Bn4
 BYTE   W08
 BYTE   Fn5
 BYTE   W08
// 003   ----------------------------------------
 BYTE   N08  Dn5
 BYTE   W12
 BYTE   N08
 BYTE   W12
 BYTE   N05
 BYTE   W08
 BYTE   N05
 BYTE   W08
 BYTE   N05
 BYTE   W08
 BYTE   N20
 BYTE   W48
// 004   ----------------------------------------
 BYTE   W12
 BYTE   N05  Gn3
 BYTE   W06
 BYTE   Dn3
 BYTE   W06
 BYTE   N42  Dn4
 BYTE   W48
 BYTE   N05  Cn4
 BYTE   W06
 BYTE   As3
 BYTE   W06
 BYTE   An3
 BYTE   W06
 BYTE   Gn3
 BYTE   W06
// 005   ----------------------------------------
 BYTE   N17  As3
 BYTE   W18
 BYTE   N04  An3
 BYTE   W06
 BYTE   N42
 BYTE   W72
// 006   ----------------------------------------
 BYTE   W12
 BYTE   N05  Gn3
 BYTE   W06
 BYTE   Dn3
 BYTE   W06
 BYTE   N42  Cn4
 BYTE   W48
 BYTE   N05  As3
 BYTE   W06
 BYTE   An3
 BYTE   W06
 BYTE   Gn3
 BYTE   W06
 BYTE   Fn3
 BYTE   W06
// 007   ----------------------------------------
 BYTE   N17  Fn4
 BYTE   W18
 BYTE   N04  Fn3
 BYTE   W06
 BYTE   N42
 BYTE   W72
// 008   ----------------------------------------
 BYTE   W12
 BYTE   N05  Gn4
 BYTE   W06
 BYTE   Dn4
 BYTE   W06
 BYTE   N42  Dn5
 BYTE   W48
 BYTE   N05  Cn5
 BYTE   W06
 BYTE   As4
 BYTE   W06
 BYTE   An4
 BYTE   W06
 BYTE   Gn4
 BYTE   W06
// 009   ----------------------------------------
 BYTE   N17  As4
 BYTE   W18
 BYTE   N04  An4
 BYTE   W06
 BYTE   N42
 BYTE   W72
// 010   ----------------------------------------
 BYTE   W12
 BYTE   N05  Gn4
 BYTE   W06
 BYTE   Dn4
 BYTE   W06
 BYTE   N42  Cn5
 BYTE   W48
 BYTE   N05  As4
 BYTE   W06
 BYTE   An4
 BYTE   W06
 BYTE   Gn4
 BYTE   W06
 BYTE   Fn4
 BYTE   W06
// 011   ----------------------------------------
 BYTE   N17  Fn5
 BYTE   W18
 BYTE   N04  Fn4
 BYTE   W06
 BYTE   N42
 BYTE   W72
// 012   ----------------------------------------
 BYTE   N90  Ds2  v060
 BYTE   W96
// 013   ----------------------------------------
 BYTE   Fn2
 BYTE   W96
// 014   ----------------------------------------
 BYTE   N20  Bn2
 BYTE   W48
 BYTE   Cs3
 BYTE   W48
// 015   ----------------------------------------
 BYTE   N42  Dn3
 BYTE   W48
 BYTE   N12  Dn2
 BYTE   W48
// 016   ----------------------------------------
 BYTE   N11  As3  v108
 BYTE   W12
 BYTE   N05  Fn3
 BYTE   W06
 BYTE   As3
 BYTE   W06
 BYTE   N42  Fn4
 BYTE   W48
 BYTE   N05  Ds4
 BYTE   W06
 BYTE   Cs4
 BYTE   W06
 BYTE   Cn4
 BYTE   W06
 BYTE   As3
 BYTE   W06
// 017   ----------------------------------------
 BYTE   N17  Cs4
 BYTE   W18
 BYTE   N05  Cn4
 BYTE   W06
 BYTE   N42
 BYTE   W72
// 018   ----------------------------------------
 BYTE   W12
 BYTE   N05  As3
 BYTE   W06
 BYTE   N05
 BYTE   W06
 BYTE   N42  Ds4
 BYTE   W48
 BYTE   N05  Cs4
 BYTE   W06
 BYTE   Cn4
 BYTE   W06
 BYTE   As3
 BYTE   W06
 BYTE   Gs3
 BYTE   W06
// 019   ----------------------------------------
 BYTE   N17  Gs4
 BYTE   W18
 BYTE   N05  Gs3
 BYTE   W06
 BYTE   N42
 BYTE   W72
// 020   ----------------------------------------
 BYTE   W96
// 021   ----------------------------------------
 BYTE   W96
// 022   ----------------------------------------
 BYTE   W96
// 023   ----------------------------------------
 BYTE   W96
// 024   ----------------------------------------
 BYTE   N20  Gs4  v032
 BYTE   N20  Gs5
 BYTE   W32
 BYTE   N07  Fn4
 BYTE   N07  Fn5
 BYTE   W08
 BYTE   Gs4
 BYTE   N07  Gs5
 BYTE   W08
 BYTE   N20  As4
 BYTE   N20  As5
 BYTE   W32
 BYTE   N07  Fs4
 BYTE   N07  Fs5
 BYTE   W08
 BYTE   As4
 BYTE   N07  As5
 BYTE   W08
// 025   ----------------------------------------
 BYTE   N20  Cs5
 BYTE   N20  Cs6
 BYTE   W32
 BYTE   N07  As4
 BYTE   N07  As5
 BYTE   W08
 BYTE   Cs5
 BYTE   N07  Cs6
 BYTE   W08
 BYTE   Ds5
 BYTE   N07  Ds6
 BYTE   W08
 BYTE   Ds5
 BYTE   N07  Ds6
 BYTE   W08
 BYTE   Ds5
 BYTE   N07  Ds6
 BYTE   W08
 BYTE   Cn5
 BYTE   N07  Cn6
 BYTE   W08
 BYTE   Cn5
 BYTE   N07  Cn6
 BYTE   W08
 BYTE   Cn5
 BYTE   N07  Cn6
 BYTE   W08
// 026   ----------------------------------------
 BYTE   N20  As4
 BYTE   N20  As5
 BYTE   W32
 BYTE   N07  As3  v060
 BYTE   N07  As4
 BYTE   W08
 BYTE   Cs4
 BYTE   N07  Cs5
 BYTE   W08
 BYTE   Fs4
 BYTE   N07  Fs5
 BYTE   W08
 BYTE   Cs4
 BYTE   N07  Cs5
 BYTE   W08
 BYTE   Fs4
 BYTE   N07  Fs5
 BYTE   W08
 BYTE   Gs4
 BYTE   N07  Gs5
 BYTE   W08
 BYTE   Ds4
 BYTE   N07  Ds5
 BYTE   W08
 BYTE   Gs4
 BYTE   N07  Gs5
 BYTE   W08
// 027   ----------------------------------------
 BYTE   N20  As4
 BYTE   N20  As5
 BYTE   W96
// 028   ----------------------------------------
 BYTE   W96
// 029   ----------------------------------------
 BYTE   W96
// 030   ----------------------------------------
 BYTE   W96
// 031   ----------------------------------------
 BYTE   W96
// 032   ----------------------------------------
 BYTE   W96
// 033   ----------------------------------------
 BYTE   W96
// 034   ----------------------------------------
 BYTE   W96
// 035   ----------------------------------------
 BYTE   W96
// 036   ----------------------------------------
 BYTE   W96
// 037   ----------------------------------------
 BYTE   W96
// 038   ----------------------------------------
 BYTE   W96
// 039   ----------------------------------------
 BYTE   W72
 BYTE   N07  Gs3
 BYTE   N07  Bn3
 BYTE   N07  Ds4
 BYTE   W08
 BYTE   Ds3
 BYTE   N07  Gs3
 BYTE   N07  Bn3
 BYTE   W08
 BYTE   Gs3
 BYTE   N07  Bn3
 BYTE   N07  Ds4
 BYTE   W08
// 040   ----------------------------------------
 BYTE   N42  Fs3
 BYTE   N42  An3
 BYTE   N42  Cs4
 BYTE   W48
 BYTE   An3
 BYTE   W48
// 041   ----------------------------------------
 BYTE   W96
// 042   ----------------------------------------
 BYTE   W96
// 043   ----------------------------------------
 BYTE   W72
 BYTE   N07  An2
 BYTE   N07  Cn3
 BYTE   N07  En3
 BYTE   W08
 BYTE   An2
 BYTE   N07  Cn3
 BYTE   W08
 BYTE   An2
 BYTE   N07  Cn3
 BYTE   N07  En3
 BYTE   W08
// 044   ----------------------------------------
 BYTE   N66  Fn3
 BYTE   N66  An3
 BYTE   N66  Dn4
 BYTE   W72
 BYTE   N07  Fn3
 BYTE   N07  An3
 BYTE   N07  Dn4
 BYTE   W08
 BYTE   Fn3
 BYTE   N07  An3
 BYTE   W08
 BYTE   Fn3
 BYTE   N07  An3
 BYTE   N07  Dn4
 BYTE   W08
// 045   ----------------------------------------
 BYTE   N72  Gs3
 BYTE   N72  Bn3
 BYTE   N72  En4
 BYTE   W80
 BYTE   N05  En3
 BYTE   N05  Gs3
 BYTE   N05  Bn3
 BYTE   W08
 BYTE   En3
 BYTE   N05  Gs3
 BYTE   N05  Bn3
 BYTE   W08
// 046   ----------------------------------------
 BYTE   N80  En3
 BYTE   N80  Gs3
 BYTE   N80  Bn3
 BYTE   W96
// 047   ----------------------------------------
 BYTE   W96
// 048   ----------------------------------------
 BYTE   W96
// 049   ----------------------------------------
 BYTE   W96
// 050   ----------------------------------------
 BYTE   W96
// 051   ----------------------------------------
 BYTE   W72
 BYTE   N05  Fs4
 BYTE   W08
 BYTE   Gn4
 BYTE   W08
 BYTE   Gs4
 BYTE   W08
// 052   ----------------------------------------
 BYTE   An4
 BYTE   W08
 BYTE   N05
 BYTE   W08
 BYTE   N05
 BYTE   W08
 BYTE   Fs4
 BYTE   W08
 BYTE   N05
 BYTE   W08
 BYTE   N05
 BYTE   W08
 BYTE   Dn4
 BYTE   W08
 BYTE   N05
 BYTE   W08
 BYTE   N05
 BYTE   W08
 BYTE   En4
 BYTE   W08
 BYTE   N05
 BYTE   W08
 BYTE   N05
 BYTE   W08
// 053   ----------------------------------------
 BYTE   N11  Fn4
 BYTE   W16
 BYTE   N19
 BYTE   W24
 BYTE   N05
 BYTE   W08
 BYTE   Gn4
 BYTE   W08
 BYTE   En4
 BYTE   W08
 BYTE   Cn4
 BYTE   W08
 BYTE   Bn3
 BYTE   W08
 BYTE   Gn3
 BYTE   W08
 BYTE   En3
 BYTE   W08
// 054   ----------------------------------------
 BYTE   N15  An3
 BYTE   W24
 BYTE   N05  An3  v092
 BYTE   W08
 BYTE   N05
 BYTE   W08
 BYTE   N05
 BYTE   W08
 BYTE   N20  An4
 BYTE   W24
 BYTE   N05  An3
 BYTE   W08
 BYTE   N05
 BYTE   W08
 BYTE   N05
 BYTE   W08
// 055   ----------------------------------------
 BYTE   N20  Dn4
 BYTE   W24
 BYTE   N07
 BYTE   W08
 BYTE   N07
 BYTE   W08
 BYTE   N07
 BYTE   W08
 BYTE   N20
 BYTE   W24
 BYTE   GoTo
  POIN2 Label_2_012A1032
 BYTE   FINE

//**************** Track 4 (Midi-Chn.3) ****************//

SuperSmashBrosMeleeFinalDestinationMrGreen3339_004:
// 000   ----------------------------------------
 BYTE   KEYSH   SuperSmashBrosMeleeFinalDestinationMrGreen3339_key+0
Label_3_012A127E:
 BYTE   VOICE   48
 BYTE   VOL   65*SuperSmashBrosMeleeFinalDestinationMrGreen3339_mvl/mxv
 BYTE   PAN   c_v+0
 BYTE   W24
 BYTE   VOL   65*SuperSmashBrosMeleeFinalDestinationMrGreen3339_mvl/mxv
 BYTE   N32  Gn2  v076
 BYTE   N32  An2
 BYTE   N32  Dn3
 BYTE   W36
 BYTE   N05  As2
 BYTE   W06
 BYTE   Dn3
 BYTE   W06
 BYTE   N32  As2
 BYTE   N32  Dn3
 BYTE   N32  Gn3
 BYTE   W48
// 001   ----------------------------------------
 BYTE   An2
 BYTE   N32  Dn3
 BYTE   N32  Fn3
 BYTE   W36
 BYTE   N05  Dn3
 BYTE   W06
 BYTE   Fn3
 BYTE   W06
 BYTE   N32  Dn3
 BYTE   N32  Fn3
 BYTE   N32  An3
 BYTE   W36
 BYTE   N05  Fn3
 BYTE   W06
 BYTE   An3
 BYTE   W06
// 002   ----------------------------------------
 BYTE   N32  Fs3
 BYTE   N32  An3
 BYTE   N32  Cn4
 BYTE   W36
 BYTE   N05  An3
 BYTE   W06
 BYTE   Cn4
 BYTE   W06
 BYTE   As4
 BYTE   W08
 BYTE   Fs4
 BYTE   W08
 BYTE   Ds4
 BYTE   W08
 BYTE   Fn5
 BYTE   W08
 BYTE   Bn4
 BYTE   W08
 BYTE   Fn5
 BYTE   W08
// 003   ----------------------------------------
 BYTE   N08  Dn5
 BYTE   W12
 BYTE   N08
 BYTE   W12
 BYTE   N05
 BYTE   W08
 BYTE   N05
 BYTE   W08
 BYTE   N05
 BYTE   W08
 BYTE   N06
 BYTE   W48
// 004   ----------------------------------------
 BYTE   N90  As2  v048
 BYTE   N90  Dn3
 BYTE   W96
// 005   ----------------------------------------
 BYTE   As2
 BYTE   N90  En3
 BYTE   W96
// 006   ----------------------------------------
 BYTE   Cn3
 BYTE   N90  Ds3
 BYTE   W96
// 007   ----------------------------------------
 BYTE   An2
 BYTE   N90  Dn3
 BYTE   W96
// 008   ----------------------------------------
 BYTE   As2
 BYTE   N90  Dn3
 BYTE   W96
// 009   ----------------------------------------
 BYTE   As2
 BYTE   N90  En3
 BYTE   W96
// 010   ----------------------------------------
 BYTE   As2
 BYTE   N90  Dn3
 BYTE   W96
// 011   ----------------------------------------
 BYTE   An2
 BYTE   N90  Dn3
 BYTE   W96
// 012   ----------------------------------------
 BYTE   N42  Dn4  v092
 BYTE   W72
 BYTE   N07
 BYTE   W08
 BYTE   Cn4
 BYTE   W08
 BYTE   As3
 BYTE   W08
// 013   ----------------------------------------
 BYTE   N42  An3
 BYTE   W64
 BYTE   N07  Fn3
 BYTE   W08
 BYTE   Cn3
 BYTE   W08
 BYTE   Fn3
 BYTE   W08
 BYTE   Cn4
 BYTE   W08
// 014   ----------------------------------------
 BYTE   N20  Dn3
 BYTE   N20  Gn3
 BYTE   N20  Bn3
 BYTE   W48
 BYTE   En3
 BYTE   N20  An3
 BYTE   N20  Cs4
 BYTE   W48
// 015   ----------------------------------------
 BYTE   N42  Cn3
 BYTE   N42  Dn3
 BYTE   N42  Gn3
 BYTE   W48
 BYTE   N20  An2
 BYTE   N20  Dn3
 BYTE   N20  Fs3
 BYTE   W48
// 016   ----------------------------------------
 BYTE   N11  As2  v060
 BYTE   N11  Cs3
 BYTE   N11  Fn3
 BYTE   W36
 BYTE   As2
 BYTE   N11  Cs3
 BYTE   N11  Fn3
 BYTE   W24
 BYTE   As2
 BYTE   N11  Cs3
 BYTE   N11  Fn3
 BYTE   W36
// 017   ----------------------------------------
Label_3_012A133E:
 BYTE   N11  Gs2  v060
 BYTE   N11  Cn3
 BYTE   N11  Ds3
 BYTE   W36
 BYTE   Gs2
 BYTE   N11  Cn3
 BYTE   N11  Ds3
 BYTE   W24
 BYTE   Gs2
 BYTE   N11  Cn3
 BYTE   N11  Ds3
 BYTE   W36
 BYTE   PEND 
// 018   ----------------------------------------
 BYTE   As2
 BYTE   N11  Cs3
 BYTE   N11  Fs3
 BYTE   W36
 BYTE   As2
 BYTE   N11  Cs3
 BYTE   N11  Fs3
 BYTE   W24
 BYTE   As2
 BYTE   N11  Cs3
 BYTE   N11  Fs3
 BYTE   W36
 BYTE   PATT
  POIN2 Label_3_012A133E
// 019   ----------------------------------------
 BYTE   W96
// 020   ----------------------------------------
 BYTE   W96
// 021   ----------------------------------------
 BYTE   W96
// 022   ----------------------------------------
 BYTE   W96
// 023   ----------------------------------------
 BYTE   N20  Cs3  v060
 BYTE   N20  Gs3
 BYTE   W32
 BYTE   N05  Cs3
 BYTE   N05  Fn3
 BYTE   W08
 BYTE   Cs3
 BYTE   N05  Gs3
 BYTE   W08
 BYTE   N20  Ds3
 BYTE   N20  As3
 BYTE   W32
 BYTE   N05  Ds3
 BYTE   N05  Fs3
 BYTE   W08
 BYTE   Ds3
 BYTE   N05  As3
 BYTE   W08
// 024   ----------------------------------------
 BYTE   N20  Fs3
 BYTE   N20  Cs4
 BYTE   W32
 BYTE   N05  Fs3
 BYTE   N05  As3
 BYTE   W08
 BYTE   Fs3
 BYTE   N05  Cs4
 BYTE   W08
 BYTE   Gs3
 BYTE   N05  Ds4
 BYTE   W08
 BYTE   Gs3
 BYTE   N05  Ds4
 BYTE   W08
 BYTE   Gs3
 BYTE   N05  Ds4
 BYTE   W08
 BYTE   N20  Fn3
 BYTE   N20  Cn4
 BYTE   W24
// 025   ----------------------------------------
 BYTE   Fn3
 BYTE   N20  As3
 BYTE   W32
 BYTE   N05  As2
 BYTE   W08
 BYTE   N05
 BYTE   N05  Cs3
 BYTE   W08
 BYTE   N05
 BYTE   N05  Fs3
 BYTE   W08
 BYTE   Fs2
 BYTE   N05  Cs3
 BYTE   W08
 BYTE   N05
 BYTE   N05  Fs3
 BYTE   W08
 BYTE   Ds3
 BYTE   N05  Gs3
 BYTE   W08
 BYTE   Gs2
 BYTE   N05  Ds3
 BYTE   W08
 BYTE   N05
 BYTE   N05  Gs3
 BYTE   W08
// 026   ----------------------------------------
 BYTE   As2
 BYTE   N05  Fn3
 BYTE   N05  As3
 BYTE   W08
 BYTE   As2
 BYTE   W08
 BYTE   N05
 BYTE   W08
 BYTE   N05
 BYTE   W08
 BYTE   N05
 BYTE   W08
 BYTE   N05
 BYTE   W08
 BYTE   N05
 BYTE   W08
 BYTE   N05
 BYTE   W08
 BYTE   N05
 BYTE   W08
 BYTE   N05
 BYTE   W08
 BYTE   N05
 BYTE   W08
 BYTE   N05
 BYTE   W08
// 027   ----------------------------------------
 BYTE   N96  As2  v048
 BYTE   N96  Cs3
 BYTE   N96  Fn3
 BYTE   W96
// 028   ----------------------------------------
 BYTE   Gs2
 BYTE   N96  Cn3
 BYTE   N96  Ds3
 BYTE   W96
// 029   ----------------------------------------
 BYTE   Fs2
 BYTE   N96  Bn2
 BYTE   N96  Cs3
 BYTE   W96
// 030   ----------------------------------------
 BYTE   As2
 BYTE   N96  Cs3
 BYTE   N96  Fs3
 BYTE   W96
// 031   ----------------------------------------
 BYTE   Bn2
 BYTE   N96  Ds3
 BYTE   N96  Gs3
 BYTE   W96
// 032   ----------------------------------------
 BYTE   Bn2
 BYTE   N96  Ds3
 BYTE   N96  Fs3
 BYTE   W96
// 033   ----------------------------------------
 BYTE   An2
 BYTE   N96  Cs3
 BYTE   N96  En3
 BYTE   W96
// 034   ----------------------------------------
 BYTE   TIE  Cs3
 BYTE   TIE  En3
 BYTE   TIE  An3
 BYTE   W96
// 035   ----------------------------------------
 BYTE   W96
// 036   ----------------------------------------
 BYTE   W96
// 037   ----------------------------------------
 BYTE   W96
// 038   ----------------------------------------
 BYTE   EOT
 BYTE   Cs3  v064
 BYTE   An3
 BYTE   W72
 BYTE   N07  Gs3  v060
 BYTE   N07  Bn3
 BYTE   N07  Ds4
 BYTE   W08
 BYTE   Ds3
 BYTE   N07  Gs3
 BYTE   N07  Bn3
 BYTE   W08
 BYTE   Gs3
 BYTE   N07  Bn3
 BYTE   N07  Ds4
 BYTE   W08
// 039   ----------------------------------------
 BYTE   N42  Fs3
 BYTE   N42  An3
 BYTE   N42  Cs4
 BYTE   W48
 BYTE   N20  An3
 BYTE   W24
 BYTE   N07  Cs4
 BYTE   W08
 BYTE   Bn3
 BYTE   W08
 BYTE   En4
 BYTE   W08
// 040   ----------------------------------------
 BYTE   N15  Gs3
 BYTE   N15  Bn3
 BYTE   N15  Ds4
 BYTE   W24
 BYTE   N20  Gs3
 BYTE   N16  Bn3
 BYTE   N07  Ds4
 BYTE   W08
 BYTE   Cs4
 BYTE   W08
 BYTE   N04  Bn3
 BYTE   W08
 BYTE   N15  Gs3
 BYTE   N15  Bn3
 BYTE   N15  Ds4
 BYTE   W24
 BYTE   Bn3
 BYTE   N15  Ds4
 BYTE   N15  Fs4
 BYTE   W24
// 041   ----------------------------------------
 BYTE   Gs3
 BYTE   N15  Cs4
 BYTE   N15  Fn4
 BYTE   W24
 BYTE   N48  Fn3
 BYTE   N48  Gs3
 BYTE   N48  Cs4
 BYTE   W72
// 042   ----------------------------------------
 BYTE   W72
 BYTE   N07  An2
 BYTE   N07  Cn3
 BYTE   N07  En3
 BYTE   W08
 BYTE   An2
 BYTE   N07  Cn3
 BYTE   W08
 BYTE   An2
 BYTE   N07  Cn3
 BYTE   N07  En3
 BYTE   W08
// 043   ----------------------------------------
 BYTE   N66  Fn3
 BYTE   N66  An3
 BYTE   N66  Dn4
 BYTE   W72
 BYTE   N07  Fn3
 BYTE   N07  An3
 BYTE   N07  Dn4
 BYTE   W08
 BYTE   Fn3
 BYTE   N07  An3
 BYTE   W08
 BYTE   Fn3
 BYTE   N07  An3
 BYTE   N07  Dn4
 BYTE   W08
// 044   ----------------------------------------
 BYTE   N96  Gs3
 BYTE   N96  Bn3
 BYTE   N96  En4
 BYTE   W96
// 045   ----------------------------------------
 BYTE   N80  En3
 BYTE   N80  Gs3
 BYTE   N80  Bn3
 BYTE   W96
// 046   ----------------------------------------
 BYTE   N15  Cn3
 BYTE   N15  Ds3
 BYTE   N15  Gn3
 BYTE   W24
 BYTE   Cn3
 BYTE   N15  Ds3
 BYTE   N15  Gn3
 BYTE   W24
 BYTE   Cn3
 BYTE   N15  Ds3
 BYTE   N15  Gn3
 BYTE   W24
 BYTE   N07  Cn3
 BYTE   N07  Ds3
 BYTE   N07  Gn3
 BYTE   W08
 BYTE   Gn2
 BYTE   N07  Cn3
 BYTE   N07  Ds3
 BYTE   W08
 BYTE   Cn3
 BYTE   N07  Ds3
 BYTE   N07  Gn3
 BYTE   W08
// 047   ----------------------------------------
 BYTE   N66  As3
 BYTE   N66  Cs4
 BYTE   N66  Fn4
 BYTE   W72
 BYTE   N07  As3  v048
 BYTE   N07  Cs4
 BYTE   N07  Fn4
 BYTE   W08
 BYTE   Fn3
 BYTE   N07  As3
 BYTE   N07  Cs4
 BYTE   W08
 BYTE   As3
 BYTE   N07  Cs4
 BYTE   N07  Fn4
 BYTE   W08
// 048   ----------------------------------------
 BYTE   N15  Cn3  v060
 BYTE   N15  Ds3
 BYTE   N15  Gn3
 BYTE   W24
 BYTE   N11  Cn3
 BYTE   N11  Ds3
 BYTE   N07  Gn3
 BYTE   W08
 BYTE   Fn3
 BYTE   W08
 BYTE   Ds3
 BYTE   W08
 BYTE   N15  Cn3
 BYTE   N15  Ds3
 BYTE   N15  Gn3
 BYTE   W24
 BYTE   N20  Ds3
 BYTE   N20  Gn3
 BYTE   N20  As3
 BYTE   W24
// 049   ----------------------------------------
 BYTE   N90  Dn3
 BYTE   N90  Fn3
 BYTE   N90  An3
 BYTE   W96
// 050   ----------------------------------------
 BYTE   W72
 BYTE   N05  Fs4  v076
 BYTE   W08
 BYTE   Gn4
 BYTE   W08
 BYTE   Gs4
 BYTE   W08
// 051   ----------------------------------------
 BYTE   An4
 BYTE   W08
 BYTE   N05
 BYTE   W08
 BYTE   N05
 BYTE   W08
 BYTE   Fs4
 BYTE   W08
 BYTE   N05
 BYTE   W08
 BYTE   N05
 BYTE   W08
 BYTE   Dn4
 BYTE   W08
 BYTE   N05
 BYTE   W08
 BYTE   N05
 BYTE   W08
 BYTE   En4
 BYTE   W08
 BYTE   N05
 BYTE   W08
 BYTE   N05
 BYTE   W08
// 052   ----------------------------------------
 BYTE   N11  Fn4
 BYTE   W16
 BYTE   N19
 BYTE   W24
 BYTE   N05
 BYTE   W08
 BYTE   Gn4
 BYTE   W08
 BYTE   En4
 BYTE   W08
 BYTE   Cn4
 BYTE   W08
 BYTE   Bn3
 BYTE   W08
 BYTE   Gn3
 BYTE   W08
 BYTE   En3
 BYTE   W08
// 053   ----------------------------------------
 BYTE   N15  An3
 BYTE   W24
 BYTE   N05  An4  v092
 BYTE   W08
 BYTE   N05
 BYTE   W08
 BYTE   N05
 BYTE   W08
 BYTE   N20
 BYTE   W24
 BYTE   N05  An3
 BYTE   W08
 BYTE   N05
 BYTE   W08
 BYTE   N05
 BYTE   W08
// 054   ----------------------------------------
 BYTE   N20  Dn4
 BYTE   W24
 BYTE   N07  Dn5
 BYTE   W08
 BYTE   N07
 BYTE   W08
 BYTE   N07
 BYTE   W08
 BYTE   N06
 BYTE   W24
 BYTE   GoTo
  POIN2 Label_3_012A127E
 BYTE   FINE

//**************** Track 5 (Midi-Chn.4) ****************//

SuperSmashBrosMeleeFinalDestinationMrGreen3339_005:
// 000   ----------------------------------------
 BYTE   KEYSH   SuperSmashBrosMeleeFinalDestinationMrGreen3339_key+0
Label_4_012A1576:
 BYTE   VOICE   4
 BYTE   VOL   65*SuperSmashBrosMeleeFinalDestinationMrGreen3339_mvl/mxv
 BYTE   PAN   c_v+0
 BYTE   N02  An1  v012
 BYTE   N02  Gn2
 BYTE   W03
 BYTE   An1  v020
 BYTE   N02  Gn2
 BYTE   W03
 BYTE   An1  v032
 BYTE   N02  Gn2
 BYTE   W03
 BYTE   An1  v040
 BYTE   N02  Gn2
 BYTE   W03
 BYTE   An1  v052
 BYTE   N02  Gn2
 BYTE   W03
 BYTE   An1  v060
 BYTE   N02  Gn2
 BYTE   W03
 BYTE   An1  v072
 BYTE   N02  Gn2
 BYTE   W03
 BYTE   An1  v084
 BYTE   N02  Gn2
 BYTE   W03
 BYTE   VOL   65*SuperSmashBrosMeleeFinalDestinationMrGreen3339_mvl/mxv
 BYTE   N42  Cs2  v060
 BYTE   N42  En2
 BYTE   N42  An2
 BYTE   W48
 BYTE   Cs2
 BYTE   N42  En2
 BYTE   N42  An2
 BYTE   W48
// 001   ----------------------------------------
Label_4_012A15B5:
 BYTE   N42  Cs2  v060
 BYTE   N42  En2
 BYTE   N42  An2
 BYTE   W48
 BYTE   Cs2
 BYTE   N42  En2
 BYTE   N42  An2
 BYTE   W48
 BYTE   PEND 
// 002   ----------------------------------------
 BYTE   N90  Cs2
 BYTE   N90  En2
 BYTE   N90  An2
 BYTE   W96
 BYTE   PATT
  POIN2 Label_4_012A15B5
// 003   ----------------------------------------
Label_4_012A15D0:
 BYTE   N90  Cs2  v076
 BYTE   N90  En2
 BYTE   N90  An2
 BYTE   W96
 BYTE   PEND 
// 004   ----------------------------------------
 BYTE   W96
// 005   ----------------------------------------
 BYTE   W96
// 006   ----------------------------------------
 BYTE   W96
 BYTE   PATT
  POIN2 Label_4_012A15D0
// 007   ----------------------------------------
 BYTE   W96
// 008   ----------------------------------------
 BYTE   W96
// 009   ----------------------------------------
 BYTE   W96
// 010   ----------------------------------------
Label_4_012A15E4:
 BYTE   W48
 BYTE   N42  En2  v092
 BYTE   N42  Gn2
 BYTE   W48
 BYTE   PEND 
 BYTE   PATT
  POIN2 Label_4_012A15E4
// 011   ----------------------------------------
Label_4_012A15F1:
 BYTE   N42  En2  v092
 BYTE   N42  Gn2
 BYTE   W48
 BYTE   En2
 BYTE   N42  Gn2
 BYTE   W48
 BYTE   PEND 
// 012   ----------------------------------------
 BYTE   N20
 BYTE   W24
 BYTE   N20
 BYTE   W24
 BYTE   N42  Cs2
 BYTE   N42  En2
 BYTE   N42  An2
 BYTE   W48
// 013   ----------------------------------------
Label_4_012A1607:
 BYTE   N90  Cs2  v092
 BYTE   N90  En2
 BYTE   N90  Gn2
 BYTE   N90  An2
 BYTE   W96
 BYTE   PEND 
// 014   ----------------------------------------
 BYTE   W96
// 015   ----------------------------------------
 BYTE   W96
// 016   ----------------------------------------
 BYTE   W96
// 017   ----------------------------------------
 BYTE   W96
// 018   ----------------------------------------
 BYTE   W96
// 019   ----------------------------------------
 BYTE   W96
// 020   ----------------------------------------
 BYTE   W96
 BYTE   PATT
  POIN2 Label_4_012A15F1
// 021   ----------------------------------------
Label_4_012A161E:
 BYTE   N42  En2  v092
 BYTE   N42  Gn2
 BYTE   W48
 BYTE   N20  En2
 BYTE   N20  Gn2
 BYTE   W24
 BYTE   En2
 BYTE   N20  Gn2
 BYTE   W24
 BYTE   PEND 
 BYTE   PATT
  POIN2 Label_4_012A161E
 BYTE   PATT
  POIN2 Label_4_012A1607
// 022   ----------------------------------------
 BYTE   W96
// 023   ----------------------------------------
 BYTE   W96
// 024   ----------------------------------------
 BYTE   W96
// 025   ----------------------------------------
 BYTE   W96
// 026   ----------------------------------------
 BYTE   W96
// 027   ----------------------------------------
 BYTE   W96
// 028   ----------------------------------------
 BYTE   W96
// 029   ----------------------------------------
 BYTE   W96
// 030   ----------------------------------------
 BYTE   W96
// 031   ----------------------------------------
 BYTE   VOL   16*SuperSmashBrosMeleeFinalDestinationMrGreen3339_mvl/mxv
 BYTE   N02  Gn2  v076
 BYTE   W01
 BYTE   VOL   16*SuperSmashBrosMeleeFinalDestinationMrGreen3339_mvl/mxv
 BYTE   W01
 BYTE   FnM1
 BYTE   W01
 BYTE   FsM1
 BYTE   N02
 BYTE   W01
 BYTE   VOL   19*SuperSmashBrosMeleeFinalDestinationMrGreen3339_mvl/mxv
 BYTE   W01
 BYTE   GnM1
 BYTE   W01
 BYTE   GsM1
 BYTE   N02
 BYTE   W01
 BYTE   VOL   21*SuperSmashBrosMeleeFinalDestinationMrGreen3339_mvl/mxv
 BYTE   W01
 BYTE   AsM1
 BYTE   W01
 BYTE   BnM1
 BYTE   N02
 BYTE   W01
 BYTE   VOL   24*SuperSmashBrosMeleeFinalDestinationMrGreen3339_mvl/mxv
 BYTE   W01
 BYTE   Cn0
 BYTE   W01
 BYTE   Cs0
 BYTE   N02
 BYTE   W01
 BYTE   VOL   26*SuperSmashBrosMeleeFinalDestinationMrGreen3339_mvl/mxv
 BYTE   W01
 BYTE   Dn0
 BYTE   W01
 BYTE   Ds0
 BYTE   N02
 BYTE   W01
 BYTE   VOL   28*SuperSmashBrosMeleeFinalDestinationMrGreen3339_mvl/mxv
 BYTE   W01
 BYTE   Fn0
 BYTE   W01
 BYTE   Fn0
 BYTE   N02
 BYTE   W01
 BYTE   VOL   30*SuperSmashBrosMeleeFinalDestinationMrGreen3339_mvl/mxv
 BYTE   W01
 BYTE   Gn0
 BYTE   W01
 BYTE   Gs0
 BYTE   N02
 BYTE   W01
 BYTE   VOL   32*SuperSmashBrosMeleeFinalDestinationMrGreen3339_mvl/mxv
 BYTE   W01
 BYTE   An0
 BYTE   W01
 BYTE   As0
 BYTE   N02
 BYTE   W01
 BYTE   VOL   34*SuperSmashBrosMeleeFinalDestinationMrGreen3339_mvl/mxv
 BYTE   W01
 BYTE   Bn0
 BYTE   W01
 BYTE   Cn1
 BYTE   N02
 BYTE   W01
 BYTE   VOL   37*SuperSmashBrosMeleeFinalDestinationMrGreen3339_mvl/mxv
 BYTE   W01
 BYTE   Cs1
 BYTE   W01
 BYTE   Dn1
 BYTE   N02
 BYTE   W01
 BYTE   VOL   39*SuperSmashBrosMeleeFinalDestinationMrGreen3339_mvl/mxv
 BYTE   W01
 BYTE   En1
 BYTE   W01
 BYTE   En1
 BYTE   N02
 BYTE   W01
 BYTE   VOL   41*SuperSmashBrosMeleeFinalDestinationMrGreen3339_mvl/mxv
 BYTE   W01
 BYTE   Fs1
 BYTE   W01
 BYTE   Fs1
 BYTE   N02
 BYTE   W01
 BYTE   VOL   44*SuperSmashBrosMeleeFinalDestinationMrGreen3339_mvl/mxv
 BYTE   W01
 BYTE   Gs1
 BYTE   W01
 BYTE   An1
 BYTE   N02
 BYTE   W01
 BYTE   VOL   46*SuperSmashBrosMeleeFinalDestinationMrGreen3339_mvl/mxv
 BYTE   W01
 BYTE   Bn1
 BYTE   W01
 BYTE   Bn1
 BYTE   N02
 BYTE   W01
 BYTE   VOL   48*SuperSmashBrosMeleeFinalDestinationMrGreen3339_mvl/mxv
 BYTE   W01
 BYTE   Cs2
 BYTE   W01
 BYTE   Dn2
 BYTE   N02
 BYTE   W01
 BYTE   VOL   50*SuperSmashBrosMeleeFinalDestinationMrGreen3339_mvl/mxv
 BYTE   W01
 BYTE   Ds2
 BYTE   W01
 BYTE   Ds2
 BYTE   N02
 BYTE   W01
 BYTE   VOL   50*SuperSmashBrosMeleeFinalDestinationMrGreen3339_mvl/mxv
 BYTE   W01
 BYTE   Dn2
 BYTE   W01
 BYTE   Cs2
 BYTE   N02
 BYTE   W01
 BYTE   VOL   49*SuperSmashBrosMeleeFinalDestinationMrGreen3339_mvl/mxv
 BYTE   W01
 BYTE   Cn2
 BYTE   W01
 BYTE   Bn1
 BYTE   N02
 BYTE   W01
 BYTE   VOL   47*SuperSmashBrosMeleeFinalDestinationMrGreen3339_mvl/mxv
 BYTE   W01
 BYTE   As1
 BYTE   W01
 BYTE   As1
 BYTE   N02
 BYTE   W01
 BYTE   VOL   45*SuperSmashBrosMeleeFinalDestinationMrGreen3339_mvl/mxv
 BYTE   W01
 BYTE   Gs1
 BYTE   W01
 BYTE   Gs1
 BYTE   N02
 BYTE   W01
 BYTE   VOL   43*SuperSmashBrosMeleeFinalDestinationMrGreen3339_mvl/mxv
 BYTE   W01
 BYTE   Fs1
 BYTE   W01
 BYTE   Fs1
 BYTE   N02
 BYTE   W01
 BYTE   VOL   41*SuperSmashBrosMeleeFinalDestinationMrGreen3339_mvl/mxv
 BYTE   W01
 BYTE   En1
 BYTE   W01
 BYTE   En1
 BYTE   N02
 BYTE   W01
 BYTE   VOL   39*SuperSmashBrosMeleeFinalDestinationMrGreen3339_mvl/mxv
 BYTE   W01
 BYTE   Ds1
 BYTE   W01
 BYTE   Dn1
 BYTE   N02
 BYTE   W01
 BYTE   VOL   37*SuperSmashBrosMeleeFinalDestinationMrGreen3339_mvl/mxv
 BYTE   W01
 BYTE   Cs1
 BYTE   W01
 BYTE   Cn1
 BYTE   N02
 BYTE   W01
 BYTE   VOL   36*SuperSmashBrosMeleeFinalDestinationMrGreen3339_mvl/mxv
 BYTE   W01
 BYTE   Bn0
 BYTE   W01
 BYTE   As0
 BYTE   N02
 BYTE   W01
 BYTE   VOL   34*SuperSmashBrosMeleeFinalDestinationMrGreen3339_mvl/mxv
 BYTE   W01
 BYTE   An0
 BYTE   W01
 BYTE   An0
 BYTE   N02
 BYTE   W01
 BYTE   VOL   32*SuperSmashBrosMeleeFinalDestinationMrGreen3339_mvl/mxv
 BYTE   W01
 BYTE   Gn0
 BYTE   W01
 BYTE   Gn0
 BYTE   N02
 BYTE   W01
 BYTE   VOL   30*SuperSmashBrosMeleeFinalDestinationMrGreen3339_mvl/mxv
 BYTE   W01
 BYTE   Fs0
 BYTE   W01
 BYTE   Fn0
 BYTE   N02
 BYTE   W01
 BYTE   VOL   28*SuperSmashBrosMeleeFinalDestinationMrGreen3339_mvl/mxv
 BYTE   W01
 BYTE   En0
 BYTE   W01
 BYTE   Ds0
 BYTE   N02
 BYTE   W01
 BYTE   VOL   27*SuperSmashBrosMeleeFinalDestinationMrGreen3339_mvl/mxv
 BYTE   W01
 BYTE   Dn0
 BYTE   W01
 BYTE   Cs0
 BYTE   N02
 BYTE   W01
 BYTE   VOL   25*SuperSmashBrosMeleeFinalDestinationMrGreen3339_mvl/mxv
 BYTE   W01
 BYTE   Cn0
 BYTE   W01
 BYTE   Cn0
 BYTE   N02
 BYTE   W01
 BYTE   VOL   23*SuperSmashBrosMeleeFinalDestinationMrGreen3339_mvl/mxv
 BYTE   W01
 BYTE   BnM1
 BYTE   W01
// 032   ----------------------------------------
 BYTE   EnM1
 BYTE   N02  As1
 BYTE   N02  Gn2
 BYTE   W01
 BYTE   VOL   16*SuperSmashBrosMeleeFinalDestinationMrGreen3339_mvl/mxv
 BYTE   W01
 BYTE   FnM1
 BYTE   W01
 BYTE   FsM1
 BYTE   N02  As1
 BYTE   N02  Gn2
 BYTE   W01
 BYTE   VOL   19*SuperSmashBrosMeleeFinalDestinationMrGreen3339_mvl/mxv
 BYTE   W01
 BYTE   GnM1
 BYTE   W01
 BYTE   GsM1
 BYTE   N02  As1
 BYTE   N02  Gn2
 BYTE   W01
 BYTE   VOL   21*SuperSmashBrosMeleeFinalDestinationMrGreen3339_mvl/mxv
 BYTE   W01
 BYTE   AsM1
 BYTE   W01
 BYTE   BnM1
 BYTE   N02  As1
 BYTE   N02  Gn2
 BYTE   W01
 BYTE   VOL   24*SuperSmashBrosMeleeFinalDestinationMrGreen3339_mvl/mxv
 BYTE   W01
 BYTE   Cn0
 BYTE   W01
 BYTE   Cs0
 BYTE   N02  As1
 BYTE   N02  Gn2
 BYTE   W01
 BYTE   VOL   26*SuperSmashBrosMeleeFinalDestinationMrGreen3339_mvl/mxv
 BYTE   W01
 BYTE   Dn0
 BYTE   W01
 BYTE   Ds0
 BYTE   N02  As1
 BYTE   N02  Gn2
 BYTE   W01
 BYTE   VOL   28*SuperSmashBrosMeleeFinalDestinationMrGreen3339_mvl/mxv
 BYTE   W01
 BYTE   Fn0
 BYTE   W01
 BYTE   Fn0
 BYTE   N02  As1
 BYTE   N02  Gn2
 BYTE   W01
 BYTE   VOL   30*SuperSmashBrosMeleeFinalDestinationMrGreen3339_mvl/mxv
 BYTE   W01
 BYTE   Gn0
 BYTE   W01
 BYTE   Gs0
 BYTE   N02  As1
 BYTE   N02  Gn2
 BYTE   W01
 BYTE   VOL   32*SuperSmashBrosMeleeFinalDestinationMrGreen3339_mvl/mxv
 BYTE   W01
 BYTE   An0
 BYTE   W01
 BYTE   As0
 BYTE   N02  As1
 BYTE   N02  Gn2
 BYTE   W01
 BYTE   VOL   34*SuperSmashBrosMeleeFinalDestinationMrGreen3339_mvl/mxv
 BYTE   W01
 BYTE   Bn0
 BYTE   W01
 BYTE   Cn1
 BYTE   N02  As1
 BYTE   N02  Gn2
 BYTE   W01
 BYTE   VOL   37*SuperSmashBrosMeleeFinalDestinationMrGreen3339_mvl/mxv
 BYTE   W01
 BYTE   Cs1
 BYTE   W01
 BYTE   Dn1
 BYTE   N02  As1
 BYTE   N02  Gn2
 BYTE   W01
 BYTE   VOL   39*SuperSmashBrosMeleeFinalDestinationMrGreen3339_mvl/mxv
 BYTE   W01
 BYTE   En1
 BYTE   W01
 BYTE   En1
 BYTE   N02  As1
 BYTE   N02  Gn2
 BYTE   W01
 BYTE   VOL   41*SuperSmashBrosMeleeFinalDestinationMrGreen3339_mvl/mxv
 BYTE   W01
 BYTE   Fs1
 BYTE   W01
 BYTE   Fs1
 BYTE   N02  As1
 BYTE   N02  Gn2
 BYTE   W01
 BYTE   VOL   44*SuperSmashBrosMeleeFinalDestinationMrGreen3339_mvl/mxv
 BYTE   W01
 BYTE   Gs1
 BYTE   W01
 BYTE   An1
 BYTE   N02  As1
 BYTE   N02  Gn2
 BYTE   W01
 BYTE   VOL   46*SuperSmashBrosMeleeFinalDestinationMrGreen3339_mvl/mxv
 BYTE   W01
 BYTE   Bn1
 BYTE   W01
 BYTE   Bn1
 BYTE   N02  As1
 BYTE   N02  Gn2
 BYTE   W01
 BYTE   VOL   48*SuperSmashBrosMeleeFinalDestinationMrGreen3339_mvl/mxv
 BYTE   W01
 BYTE   Cs2
 BYTE   W01
 BYTE   Dn2
 BYTE   N02  As1
 BYTE   N02  Gn2
 BYTE   W01
 BYTE   VOL   50*SuperSmashBrosMeleeFinalDestinationMrGreen3339_mvl/mxv
 BYTE   W01
 BYTE   Ds2
 BYTE   W01
 BYTE   Ds2
 BYTE   N02  As1
 BYTE   N02  Gn2
 BYTE   W01
 BYTE   VOL   52*SuperSmashBrosMeleeFinalDestinationMrGreen3339_mvl/mxv
 BYTE   W02
 BYTE   En2
 BYTE   N02  As1
 BYTE   N02  Gn2
 BYTE   W02
 BYTE   VOL   53*SuperSmashBrosMeleeFinalDestinationMrGreen3339_mvl/mxv
 BYTE   W01
 BYTE   N02  As1
 BYTE   N02  Gn2
 BYTE   W01
 BYTE   VOL   53*SuperSmashBrosMeleeFinalDestinationMrGreen3339_mvl/mxv
 BYTE   W02
 BYTE   Fs2
 BYTE   N02  As1
 BYTE   N02  Gn2
 BYTE   W02
 BYTE   VOL   54*SuperSmashBrosMeleeFinalDestinationMrGreen3339_mvl/mxv
 BYTE   W01
 BYTE   Gn2
 BYTE   N02  As1
 BYTE   N02  Gn2
 BYTE   W02
 BYTE   VOL   55*SuperSmashBrosMeleeFinalDestinationMrGreen3339_mvl/mxv
 BYTE   W01
 BYTE   N02  As1
 BYTE   N02  Gn2
 BYTE   W01
 BYTE   VOL   56*SuperSmashBrosMeleeFinalDestinationMrGreen3339_mvl/mxv
 BYTE   W02
 BYTE   Gs2
 BYTE   N02  As1
 BYTE   N02  Gn2
 BYTE   W02
 BYTE   VOL   57*SuperSmashBrosMeleeFinalDestinationMrGreen3339_mvl/mxv
 BYTE   W01
 BYTE   N02  As1
 BYTE   N02  Gn2
 BYTE   W01
 BYTE   VOL   57*SuperSmashBrosMeleeFinalDestinationMrGreen3339_mvl/mxv
 BYTE   W02
 BYTE   As2
 BYTE   N02  As1
 BYTE   N02  Gn2
 BYTE   W01
 BYTE   VOL   58*SuperSmashBrosMeleeFinalDestinationMrGreen3339_mvl/mxv
 BYTE   W02
 BYTE   Bn2
 BYTE   N02  As1
 BYTE   N02  Gn2
 BYTE   W02
 BYTE   VOL   59*SuperSmashBrosMeleeFinalDestinationMrGreen3339_mvl/mxv
 BYTE   W01
 BYTE   N02  As1
 BYTE   N02  Gn2
 BYTE   W01
 BYTE   VOL   60*SuperSmashBrosMeleeFinalDestinationMrGreen3339_mvl/mxv
 BYTE   W02
 BYTE   Cn3
 BYTE   N02  As1
 BYTE   N02  Gn2
 BYTE   W02
 BYTE   VOL   61*SuperSmashBrosMeleeFinalDestinationMrGreen3339_mvl/mxv
 BYTE   W01
 BYTE   Cs3
 BYTE   N02  As1
 BYTE   N02  Gn2
 BYTE   W02
 BYTE   VOL   62*SuperSmashBrosMeleeFinalDestinationMrGreen3339_mvl/mxv
 BYTE   W01
 BYTE   N02  As1
 BYTE   N02  Gn2
 BYTE   W01
 BYTE   VOL   62*SuperSmashBrosMeleeFinalDestinationMrGreen3339_mvl/mxv
 BYTE   W02
 BYTE   Ds3
 BYTE   N02  As1
 BYTE   N02  Gn2
 BYTE   W02
 BYTE   VOL   63*SuperSmashBrosMeleeFinalDestinationMrGreen3339_mvl/mxv
 BYTE   W01
 BYTE   N02  As1
 BYTE   N02  Gn2
 BYTE   W01
 BYTE   VOL   64*SuperSmashBrosMeleeFinalDestinationMrGreen3339_mvl/mxv
 BYTE   W02
// 033   ----------------------------------------
 BYTE   Fn3
 BYTE   N90  Gn2  v092
 BYTE   N90  An2
 BYTE   W96
// 034   ----------------------------------------
 BYTE   W96
// 035   ----------------------------------------
 BYTE   W96
// 036   ----------------------------------------
 BYTE   W96
// 037   ----------------------------------------
 BYTE   W96
// 038   ----------------------------------------
 BYTE   W96
// 039   ----------------------------------------
 BYTE   En2  v076
 BYTE   N90  Gn2
 BYTE   W96
// 040   ----------------------------------------
 BYTE   W96
 BYTE   PATT
  POIN2 Label_4_012A15D0
// 041   ----------------------------------------
 BYTE   W96
// 042   ----------------------------------------
 BYTE   W96
// 043   ----------------------------------------
Label_4_012A1897:
 BYTE   N20  As1  v076
 BYTE   W24
 BYTE   N20
 BYTE   W24
 BYTE   N20
 BYTE   W24
 BYTE   N20
 BYTE   W24
 BYTE   PEND 
// 044   ----------------------------------------
 BYTE   N20
 BYTE   N90  Cs2
 BYTE   N90  An2
 BYTE   W96
 BYTE   PATT
  POIN2 Label_4_012A1897
// 045   ----------------------------------------
 BYTE   N90  As1  v076
 BYTE   N90  Gn2
 BYTE   W96
// 046   ----------------------------------------
 BYTE   W24
 BYTE   N20  As1
 BYTE   N20  En2
 BYTE   N20  Gn2
 BYTE   W24
 BYTE   As1
 BYTE   N20  En2
 BYTE   N20  Gn2
 BYTE   W48
// 047   ----------------------------------------
 BYTE   W24
 BYTE   As1
 BYTE   N20  En2
 BYTE   N20  Gn2
 BYTE   W24
 BYTE   As1
 BYTE   N20  En2
 BYTE   N20  Gn2
 BYTE   W24
 BYTE   GoTo
  POIN2 Label_4_012A1576
 BYTE   FINE

//**************** Track 6 (Midi-Chn.5) ****************//

SuperSmashBrosMeleeFinalDestinationMrGreen3339_006:
// 000   ----------------------------------------
 BYTE   KEYSH   SuperSmashBrosMeleeFinalDestinationMrGreen3339_key+0
Label_5_012A18D6:
 BYTE   VOICE   48
 BYTE   VOL   65*SuperSmashBrosMeleeFinalDestinationMrGreen3339_mvl/mxv
 BYTE   PAN   c_v+0
 BYTE   W24
 BYTE   VOL   65*SuperSmashBrosMeleeFinalDestinationMrGreen3339_mvl/mxv
 BYTE   N15  Gn1  v076
 BYTE   W24
 BYTE   N15
 BYTE   W24
 BYTE   N15
 BYTE   W24
// 001   ----------------------------------------
 BYTE   N08
 BYTE   W12
 BYTE   N08
 BYTE   W12
 BYTE   N15
 BYTE   W24
 BYTE   N15
 BYTE   W24
 BYTE   N15
 BYTE   W24
// 002   ----------------------------------------
 BYTE   N08
 BYTE   W12
 BYTE   N08
 BYTE   W12
 BYTE   N15  Dn1
 BYTE   W24
 BYTE   N15
 BYTE   W24
 BYTE   N15
 BYTE   W24
// 003   ----------------------------------------
 BYTE   N15
 BYTE   W24
 BYTE   N11
 BYTE   W12
 BYTE   N11
 BYTE   W12
 BYTE   N07
 BYTE   W08
 BYTE   N07
 BYTE   W08
 BYTE   N07
 BYTE   W08
 BYTE   N20
 BYTE   W48
// 004   ----------------------------------------
 BYTE   N90  Gn1  v048
 BYTE   W96
// 005   ----------------------------------------
 BYTE   N90
 BYTE   W96
// 006   ----------------------------------------
 BYTE   N90
 BYTE   W96
// 007   ----------------------------------------
 BYTE   N90
 BYTE   W96
// 008   ----------------------------------------
 BYTE   N90
 BYTE   W96
// 009   ----------------------------------------
 BYTE   N90
 BYTE   W96
// 010   ----------------------------------------
 BYTE   Ds1
 BYTE   W96
// 011   ----------------------------------------
 BYTE   Dn2
 BYTE   W72
 BYTE   N05  Gn3  v092
 BYTE   W06
 BYTE   An3
 BYTE   W06
 BYTE   As3
 BYTE   W06
 BYTE   Cn4
 BYTE   W06
// 012   ----------------------------------------
 BYTE   W24
 BYTE   N07  Ds1
 BYTE   W08
 BYTE   N07
 BYTE   W08
 BYTE   N07
 BYTE   W08
 BYTE   N20
 BYTE   W48
// 013   ----------------------------------------
 BYTE   W24
 BYTE   N07  Fn1
 BYTE   W08
 BYTE   N07
 BYTE   W08
 BYTE   N07
 BYTE   W08
 BYTE   N20
 BYTE   W48
// 014   ----------------------------------------
 BYTE   N32  Bn1
 BYTE   W36
 BYTE   N05
 BYTE   W06
 BYTE   N05
 BYTE   W06
 BYTE   N32  Cs2
 BYTE   W36
 BYTE   N05
 BYTE   W06
 BYTE   N05
 BYTE   W06
// 015   ----------------------------------------
 BYTE   N42  Dn1
 BYTE   W48
 BYTE   N30  Dn2
 BYTE   W48
// 016   ----------------------------------------
Label_5_012A194E:
 BYTE   N08  As1  v108
 BYTE   W12
 BYTE   As1  v076
 BYTE   W12
 BYTE   N08
 BYTE   W12
 BYTE   As1  v108
 BYTE   W12
 BYTE   As1  v076
 BYTE   W12
 BYTE   As1  v108
 BYTE   W12
 BYTE   As1  v076
 BYTE   W12
 BYTE   N08
 BYTE   W12
 BYTE   PEND 
 BYTE   PATT
  POIN2 Label_5_012A194E
 BYTE   PATT
  POIN2 Label_5_012A194E
 BYTE   PATT
  POIN2 Label_5_012A194E
 BYTE   PATT
  POIN2 Label_5_012A194E
// 017   ----------------------------------------
 BYTE   N08  Gs1  v108
 BYTE   W12
 BYTE   Gs1  v076
 BYTE   W12
 BYTE   N08
 BYTE   W12
 BYTE   Gs1  v108
 BYTE   W12
 BYTE   Gs1  v076
 BYTE   W12
 BYTE   Gs1  v108
 BYTE   W12
 BYTE   Gs1  v076
 BYTE   W12
 BYTE   N08
 BYTE   W12
// 018   ----------------------------------------
 BYTE   N11  Fs1  v108
 BYTE   W12
 BYTE   Fs1  v076
 BYTE   W12
 BYTE   N11
 BYTE   W12
 BYTE   Fs1  v108
 BYTE   W12
 BYTE   Fs1  v076
 BYTE   W12
 BYTE   Fs1  v108
 BYTE   W12
 BYTE   Fs1  v076
 BYTE   W12
 BYTE   N11
 BYTE   W12
// 019   ----------------------------------------
 BYTE   Fn1  v108
 BYTE   W12
 BYTE   Fn1  v076
 BYTE   W12
 BYTE   N11
 BYTE   W12
 BYTE   Fn1  v108
 BYTE   W12
 BYTE   Fn1  v076
 BYTE   W12
 BYTE   Fn1  v108
 BYTE   W12
 BYTE   Fn1  v076
 BYTE   W12
 BYTE   N11
 BYTE   W12
// 020   ----------------------------------------
 BYTE   Gs1  v127
 BYTE   W12
 BYTE   Gs1  v092
 BYTE   W12
 BYTE   N07
 BYTE   W08
 BYTE   N07
 BYTE   W08
 BYTE   N07
 BYTE   W08
 BYTE   N11  As1  v127
 BYTE   W12
 BYTE   As1  v092
 BYTE   W12
 BYTE   N07
 BYTE   W08
 BYTE   N07
 BYTE   W08
 BYTE   N07
 BYTE   W08
// 021   ----------------------------------------
 BYTE   N11  Cs2  v127
 BYTE   W12
 BYTE   Cs2  v092
 BYTE   W12
 BYTE   N07  Cs1
 BYTE   W08
 BYTE   Fs1
 BYTE   W08
 BYTE   Cs2
 BYTE   W08
 BYTE   Ds2
 BYTE   W08
 BYTE   Ds1
 BYTE   W08
 BYTE   Ds2
 BYTE   W08
 BYTE   Cn2
 BYTE   W08
 BYTE   Fn1
 BYTE   W08
 BYTE   Cn2
 BYTE   W08
// 022   ----------------------------------------
 BYTE   N20  As1
 BYTE   W24
 BYTE   N07
 BYTE   W08
 BYTE   N07
 BYTE   W08
 BYTE   N07
 BYTE   W08
 BYTE   Fs1
 BYTE   W08
 BYTE   N07
 BYTE   W08
 BYTE   N07
 BYTE   W08
 BYTE   Gs1
 BYTE   W08
 BYTE   N07
 BYTE   W08
 BYTE   N07
 BYTE   W08
// 023   ----------------------------------------
 BYTE   N20  As1
 BYTE   W96
// 024   ----------------------------------------
 BYTE   W96
// 025   ----------------------------------------
 BYTE   W96
// 026   ----------------------------------------
 BYTE   W96
// 027   ----------------------------------------
 BYTE   W96
// 028   ----------------------------------------
 BYTE   W96
// 029   ----------------------------------------
 BYTE   W96
// 030   ----------------------------------------
 BYTE   W96
// 031   ----------------------------------------
 BYTE   W96
// 032   ----------------------------------------
 BYTE   W96
// 033   ----------------------------------------
 BYTE   W96
// 034   ----------------------------------------
 BYTE   W96
// 035   ----------------------------------------
 BYTE   TIE  Cs1  v060
 BYTE   W96
// 036   ----------------------------------------
 BYTE   W90
 BYTE   EOT
 BYTE   W06
// 037   ----------------------------------------
Label_5_012A1A1B:
 BYTE   N20  Gs1  v060
 BYTE   W24
 BYTE   N20
 BYTE   W24
 BYTE   N20
 BYTE   W24
 BYTE   N20
 BYTE   W24
 BYTE   PEND 
 BYTE   PATT
  POIN2 Label_5_012A1A1B
// 038   ----------------------------------------
 BYTE   N20  Dn1  v060
 BYTE   W24
 BYTE   N20
 BYTE   W24
 BYTE   N20
 BYTE   W24
 BYTE   N20
 BYTE   W24
// 039   ----------------------------------------
Label_5_012A1A35:
 BYTE   N20  Fn1  v060
 BYTE   W24
 BYTE   N20
 BYTE   W24
 BYTE   N20
 BYTE   W24
 BYTE   N20
 BYTE   W24
 BYTE   PEND 
// 040   ----------------------------------------
Label_5_012A1A40:
 BYTE   N20  En1  v060
 BYTE   W24
 BYTE   N20
 BYTE   W24
 BYTE   N20
 BYTE   W24
 BYTE   N20
 BYTE   W24
 BYTE   PEND 
 BYTE   PATT
  POIN2 Label_5_012A1A40
 BYTE   PATT
  POIN2 Label_5_012A1A35
 BYTE   PATT
  POIN2 Label_5_012A1A1B
// 041   ----------------------------------------
 BYTE   N20  Cn2  v060
 BYTE   W24
 BYTE   N20
 BYTE   W24
 BYTE   N20
 BYTE   W24
 BYTE   N20
 BYTE   W24
// 042   ----------------------------------------
 BYTE   Dn2
 BYTE   W24
 BYTE   N20
 BYTE   W24
 BYTE   N20
 BYTE   W24
 BYTE   N20
 BYTE   W24
// 043   ----------------------------------------
 BYTE   N20
 BYTE   W96
// 044   ----------------------------------------
 BYTE   N15  En1  v076
 BYTE   W24
 BYTE   Cs1
 BYTE   W24
 BYTE   An0
 BYTE   W24
 BYTE   Bn0
 BYTE   W24
// 045   ----------------------------------------
 BYTE   N11  Cn1
 BYTE   W16
 BYTE   N07
 BYTE   W80
// 046   ----------------------------------------
 BYTE   N20  An0
 BYTE   W24
 BYTE   N03
 BYTE   W04
 BYTE   N03
 BYTE   W04
 BYTE   N03
 BYTE   W04
 BYTE   N03
 BYTE   W04
 BYTE   N03
 BYTE   W04
 BYTE   N03
 BYTE   W04
 BYTE   N20
 BYTE   W24
 BYTE   N07
 BYTE   W08
 BYTE   N07
 BYTE   W08
 BYTE   N07
 BYTE   W08
// 047   ----------------------------------------
 BYTE   N20  Dn1
 BYTE   W24
 BYTE   N03
 BYTE   W04
 BYTE   N03
 BYTE   W04
 BYTE   N03
 BYTE   W04
 BYTE   N03
 BYTE   W04
 BYTE   N03
 BYTE   W04
 BYTE   N03
 BYTE   W04
 BYTE   N20
 BYTE   W24
 BYTE   GoTo
  POIN2 Label_5_012A18D6
 BYTE   FINE

//**************** Track 7 (Midi-Chn.6) ****************//

SuperSmashBrosMeleeFinalDestinationMrGreen3339_007:
// 000   ----------------------------------------
 BYTE   KEYSH   SuperSmashBrosMeleeFinalDestinationMrGreen3339_key+0
Label_6_012A1AAE:
 BYTE   VOICE   42
 BYTE   VOL   65*SuperSmashBrosMeleeFinalDestinationMrGreen3339_mvl/mxv
 BYTE   PAN   c_v+0
 BYTE   W24
 BYTE   VOL   65*SuperSmashBrosMeleeFinalDestinationMrGreen3339_mvl/mxv
 BYTE   N15  Gn1  v076
 BYTE   W24
 BYTE   N15
 BYTE   W24
 BYTE   N15
 BYTE   W24
// 001   ----------------------------------------
 BYTE   N08
 BYTE   W12
 BYTE   N08
 BYTE   W12
 BYTE   N15
 BYTE   W24
 BYTE   N15
 BYTE   W24
 BYTE   N15
 BYTE   W24
// 002   ----------------------------------------
 BYTE   N08
 BYTE   W12
 BYTE   N08
 BYTE   W12
Label_6_012A1ACD:
 BYTE   N15  Dn1  v076
 BYTE   W24
 BYTE   N15
 BYTE   W24
 BYTE   N15
 BYTE   W24
// 003   ----------------------------------------
 BYTE   N15
 BYTE   W24
 BYTE   PEND 
 BYTE   N11
 BYTE   W12
 BYTE   N11
 BYTE   W12
 BYTE   N07
 BYTE   W08
 BYTE   N07
 BYTE   W08
 BYTE   N07
 BYTE   W08
 BYTE   N20
 BYTE   W48
// 004   ----------------------------------------
Label_6_012A1AE4:
 BYTE   N04  Gn1  v060
 BYTE   W12
 BYTE   N06
 BYTE   W24
 BYTE   N06
 BYTE   W24
 BYTE   N04
 BYTE   W12
 BYTE   N04
 BYTE   W12
 BYTE   N04
 BYTE   W12
 BYTE   PEND 
 BYTE   PATT
  POIN2 Label_6_012A1AE4
 BYTE   PATT
  POIN2 Label_6_012A1AE4
 BYTE   PATT
  POIN2 Label_6_012A1AE4
 BYTE   PATT
  POIN2 Label_6_012A1AE4
 BYTE   PATT
  POIN2 Label_6_012A1AE4
// 005   ----------------------------------------
 BYTE   N04  Ds1  v060
 BYTE   W12
 BYTE   N06
 BYTE   W24
 BYTE   N06
 BYTE   W24
 BYTE   N04
 BYTE   W12
 BYTE   N04
 BYTE   W12
 BYTE   N04
 BYTE   W12
// 006   ----------------------------------------
 BYTE   Dn1
 BYTE   W12
 BYTE   N06
 BYTE   W24
 BYTE   N06
 BYTE   W24
 BYTE   N04
 BYTE   W12
 BYTE   N04
 BYTE   W12
 BYTE   N04
 BYTE   W12
// 007   ----------------------------------------
 BYTE   W24
 BYTE   N07  Ds1  v092
 BYTE   W08
 BYTE   N07
 BYTE   W08
 BYTE   N07
 BYTE   W08
 BYTE   N20
 BYTE   W48
// 008   ----------------------------------------
 BYTE   W24
 BYTE   N07  Fn1
 BYTE   W08
 BYTE   N07
 BYTE   W08
 BYTE   N07
 BYTE   W08
 BYTE   N20
 BYTE   W48
// 009   ----------------------------------------
 BYTE   N32  Bn1
 BYTE   W36
 BYTE   N05
 BYTE   W06
 BYTE   N05
 BYTE   W06
 BYTE   N32  Cs2
 BYTE   W36
 BYTE   N05
 BYTE   W06
 BYTE   N05
 BYTE   W06
// 010   ----------------------------------------
 BYTE   N42  Dn1
 BYTE   W48
 BYTE   N30  Dn2
 BYTE   W48
// 011   ----------------------------------------
Label_6_012A1B4F:
 BYTE   N08  As1  v108
 BYTE   W12
 BYTE   As1  v076
 BYTE   W12
 BYTE   N08
 BYTE   W12
 BYTE   As1  v108
 BYTE   W12
 BYTE   As1  v076
 BYTE   W12
 BYTE   As1  v108
 BYTE   W12
 BYTE   As1  v076
 BYTE   W12
 BYTE   N08
 BYTE   W12
 BYTE   PEND 
 BYTE   PATT
  POIN2 Label_6_012A1B4F
 BYTE   PATT
  POIN2 Label_6_012A1B4F
 BYTE   PATT
  POIN2 Label_6_012A1B4F
 BYTE   PATT
  POIN2 Label_6_012A1B4F
// 012   ----------------------------------------
 BYTE   N08  Gs1  v108
 BYTE   W12
 BYTE   Gs1  v076
 BYTE   W12
 BYTE   N08
 BYTE   W12
 BYTE   Gs1  v108
 BYTE   W12
 BYTE   Gs1  v076
 BYTE   W12
 BYTE   Gs1  v108
 BYTE   W12
 BYTE   Gs1  v076
 BYTE   W12
 BYTE   N08
 BYTE   W12
// 013   ----------------------------------------
 BYTE   N11  Fs1  v108
 BYTE   W12
 BYTE   Fs1  v076
 BYTE   W12
 BYTE   N11
 BYTE   W12
 BYTE   Fs1  v108
 BYTE   W12
 BYTE   Fs1  v076
 BYTE   W12
 BYTE   Fs1  v108
 BYTE   W12
 BYTE   Fs1  v076
 BYTE   W12
 BYTE   N11
 BYTE   W12
// 014   ----------------------------------------
 BYTE   Fn1  v108
 BYTE   W12
 BYTE   Fn1  v076
 BYTE   W12
 BYTE   N11
 BYTE   W12
 BYTE   Fn1  v108
 BYTE   W12
 BYTE   Fn1  v076
 BYTE   W12
 BYTE   Fn1  v108
 BYTE   W12
 BYTE   Fn1  v076
 BYTE   W12
 BYTE   N11
 BYTE   W12
// 015   ----------------------------------------
 BYTE   Gs1  v108
 BYTE   W12
 BYTE   Gs1  v076
 BYTE   W12
 BYTE   N07
 BYTE   W08
 BYTE   N07
 BYTE   W08
 BYTE   N07
 BYTE   W08
 BYTE   N11  As1  v108
 BYTE   W12
 BYTE   As1  v076
 BYTE   W12
 BYTE   N07
 BYTE   W08
 BYTE   N07
 BYTE   W08
 BYTE   N07
 BYTE   W08
// 016   ----------------------------------------
 BYTE   N11  Cs2  v108
 BYTE   W12
 BYTE   Cs2  v076
 BYTE   W12
 BYTE   N07  Cs1
 BYTE   W08
 BYTE   Fs1
 BYTE   W08
 BYTE   Cs2
 BYTE   W08
 BYTE   Ds2
 BYTE   W08
 BYTE   Ds1
 BYTE   W08
 BYTE   Ds2
 BYTE   W08
 BYTE   Cn2
 BYTE   W08
 BYTE   Fn1
 BYTE   W08
 BYTE   Cn2
 BYTE   W08
// 017   ----------------------------------------
 BYTE   N20  As1
 BYTE   W24
 BYTE   N07
 BYTE   W08
 BYTE   N07
 BYTE   W08
 BYTE   N07
 BYTE   W08
 BYTE   Fs1
 BYTE   W08
 BYTE   N07
 BYTE   W08
 BYTE   N07
 BYTE   W08
 BYTE   Gs1
 BYTE   W08
 BYTE   N07
 BYTE   W08
 BYTE   N07
 BYTE   W08
// 018   ----------------------------------------
 BYTE   N20  As1
 BYTE   W96
// 019   ----------------------------------------
 BYTE   W96
// 020   ----------------------------------------
 BYTE   W96
// 021   ----------------------------------------
 BYTE   W96
// 022   ----------------------------------------
 BYTE   W96
// 023   ----------------------------------------
 BYTE   W96
// 024   ----------------------------------------
 BYTE   W96
// 025   ----------------------------------------
 BYTE   W96
// 026   ----------------------------------------
 BYTE   W96
// 027   ----------------------------------------
 BYTE   W96
// 028   ----------------------------------------
 BYTE   W96
// 029   ----------------------------------------
 BYTE   W96
// 030   ----------------------------------------
Label_6_012A1C15:
 BYTE   N20  Cs1  v076
 BYTE   W24
 BYTE   N20
 BYTE   W24
 BYTE   N20
 BYTE   W24
 BYTE   N20
 BYTE   W24
 BYTE   PEND 
 BYTE   PATT
  POIN2 Label_6_012A1C15
// 031   ----------------------------------------
Label_6_012A1C25:
 BYTE   N15  Gs1  v076
 BYTE   W24
 BYTE   N15
 BYTE   W24
 BYTE   N15
 BYTE   W24
 BYTE   N15
 BYTE   W24
 BYTE   PEND 
 BYTE   PATT
  POIN2 Label_6_012A1C25
 BYTE   PATT
  POIN2 Label_6_012A1ACD
// 032   ----------------------------------------
Label_6_012A1C3A:
 BYTE   N15  Fn1  v076
 BYTE   W24
 BYTE   N15
 BYTE   W24
 BYTE   N15
 BYTE   W24
 BYTE   N15
 BYTE   W24
 BYTE   PEND 
// 033   ----------------------------------------
Label_6_012A1C45:
 BYTE   N15  En1  v076
 BYTE   W24
 BYTE   N15
 BYTE   W24
 BYTE   N15
 BYTE   W24
 BYTE   N15
 BYTE   W24
 BYTE   PEND 
 BYTE   PATT
  POIN2 Label_6_012A1C45
 BYTE   PATT
  POIN2 Label_6_012A1C3A
 BYTE   PATT
  POIN2 Label_6_012A1C25
// 034   ----------------------------------------
 BYTE   N15  Cn2  v076
 BYTE   W24
 BYTE   N15
 BYTE   W24
 BYTE   N15
 BYTE   W24
 BYTE   N15
 BYTE   W24
// 035   ----------------------------------------
 BYTE   Dn2
 BYTE   W24
 BYTE   N15
 BYTE   W24
 BYTE   N15
 BYTE   W24
 BYTE   N15
 BYTE   W24
// 036   ----------------------------------------
 BYTE   N15
 BYTE   W96
// 037   ----------------------------------------
 BYTE   En2  v092
 BYTE   W24
 BYTE   Cs2
 BYTE   W24
 BYTE   An1
 BYTE   W24
 BYTE   Bn1
 BYTE   W24
// 038   ----------------------------------------
 BYTE   N11  Cn2
 BYTE   W16
 BYTE   N07
 BYTE   W80
// 039   ----------------------------------------
 BYTE   N20  An1
 BYTE   W24
 BYTE   N03
 BYTE   W04
 BYTE   N03
 BYTE   W04
 BYTE   N03
 BYTE   W04
 BYTE   N03
 BYTE   W04
 BYTE   N03
 BYTE   W04
 BYTE   N03
 BYTE   W04
 BYTE   N20
 BYTE   W24
 BYTE   N07
 BYTE   W08
 BYTE   N07
 BYTE   W08
 BYTE   N07
 BYTE   W08
// 040   ----------------------------------------
 BYTE   N20  Dn2
 BYTE   W24
 BYTE   N03
 BYTE   W04
 BYTE   N03
 BYTE   W04
 BYTE   N03
 BYTE   W04
 BYTE   N03
 BYTE   W04
 BYTE   N03
 BYTE   W04
 BYTE   N03
 BYTE   W04
 BYTE   N20
 BYTE   W24
 BYTE   GoTo
  POIN2 Label_6_012A1AAE
 BYTE   FINE

//**************** Track 8 (Midi-Chn.7) ****************//

SuperSmashBrosMeleeFinalDestinationMrGreen3339_008:
// 000   ----------------------------------------
 BYTE   KEYSH   SuperSmashBrosMeleeFinalDestinationMrGreen3339_key+0
Label_7_012A1CB2:
 BYTE   VOICE   46
 BYTE   VOL   65*SuperSmashBrosMeleeFinalDestinationMrGreen3339_mvl/mxv
 BYTE   PAN   c_v+0
 BYTE   W24
 BYTE   VOL   65*SuperSmashBrosMeleeFinalDestinationMrGreen3339_mvl/mxv
 BYTE   W96
// 001   ----------------------------------------
 BYTE   W96
// 002   ----------------------------------------
 BYTE   W96
// 003   ----------------------------------------
 BYTE   W96
// 004   ----------------------------------------
 BYTE   W96
// 005   ----------------------------------------
 BYTE   W96
// 006   ----------------------------------------
 BYTE   W96
// 007   ----------------------------------------
 BYTE   W72
 BYTE   N02  Dn3  v032
 BYTE   W03
 BYTE   Fn3
 BYTE   W03
 BYTE   An3
 BYTE   W03
 BYTE   Dn4
 BYTE   W03
 BYTE   Fn4
 BYTE   W03
 BYTE   An4
 BYTE   W03
 BYTE   Dn5
 BYTE   W03
 BYTE   Fn5
 BYTE   W03
// 008   ----------------------------------------
 BYTE   W96
// 009   ----------------------------------------
 BYTE   W96
// 010   ----------------------------------------
 BYTE   W96
// 011   ----------------------------------------
 BYTE   W96
// 012   ----------------------------------------
 BYTE   W24
 BYTE   Gn3
 BYTE   W03
 BYTE   As3
 BYTE   W03
 BYTE   Dn4
 BYTE   W03
 BYTE   Gn4
 BYTE   W03
 BYTE   As4
 BYTE   W03
 BYTE   Dn5
 BYTE   W03
 BYTE   Gn5
 BYTE   W03
 BYTE   As5
 BYTE   W03
 BYTE   N12  Dn6
 BYTE   W48
// 013   ----------------------------------------
 BYTE   W24
 BYTE   N02  Fn3
 BYTE   W03
 BYTE   An3
 BYTE   W03
 BYTE   Cn4
 BYTE   W03
 BYTE   Fn4
 BYTE   W03
 BYTE   An4
 BYTE   W03
 BYTE   Cn5
 BYTE   W03
 BYTE   Fn5
 BYTE   W03
 BYTE   An5
 BYTE   W03
 BYTE   N12  Cn6
 BYTE   W48
// 014   ----------------------------------------
 BYTE   W96
// 015   ----------------------------------------
 BYTE   N02  Dn3
 BYTE   W03
 BYTE   Fs3
 BYTE   W03
 BYTE   Gn3
 BYTE   W03
 BYTE   An3
 BYTE   W03
 BYTE   Cs4
 BYTE   W03
 BYTE   Dn4
 BYTE   W03
 BYTE   Fs4
 BYTE   W03
 BYTE   Gn4
 BYTE   W03
 BYTE   An4
 BYTE   W03
 BYTE   Cs5
 BYTE   W03
 BYTE   Dn5
 BYTE   W03
 BYTE   En5
 BYTE   W03
 BYTE   Gn5
 BYTE   W03
 BYTE   An5
 BYTE   W03
 BYTE   Bn5
 BYTE   W03
 BYTE   Cs6
 BYTE   W03
 BYTE   N12  Dn6
 BYTE   W48
// 016   ----------------------------------------
 BYTE   W96
// 017   ----------------------------------------
 BYTE   W96
// 018   ----------------------------------------
 BYTE   W96
// 019   ----------------------------------------
 BYTE   W96
// 020   ----------------------------------------
 BYTE   W96
// 021   ----------------------------------------
 BYTE   W96
// 022   ----------------------------------------
 BYTE   W96
// 023   ----------------------------------------
 BYTE   W96
// 024   ----------------------------------------
 BYTE   N20  Cs3
 BYTE   N20  Gs3
 BYTE   W32
 BYTE   N05  Cs3
 BYTE   N05  Fn3
 BYTE   W08
 BYTE   Cs3
 BYTE   N05  Gs3
 BYTE   W08
 BYTE   N20  Ds3
 BYTE   N20  As3
 BYTE   W32
 BYTE   N05  Ds3
 BYTE   N05  Fs3
 BYTE   W08
 BYTE   Ds3
 BYTE   N05  As3
 BYTE   W08
// 025   ----------------------------------------
 BYTE   N20  Fs3
 BYTE   N20  Cs4
 BYTE   W32
 BYTE   N05  Fs3
 BYTE   N05  As3
 BYTE   W08
 BYTE   Fs3
 BYTE   N05  Cs4
 BYTE   W08
 BYTE   Gs3
 BYTE   N05  Ds4
 BYTE   W08
 BYTE   Gs3
 BYTE   N05  Ds4
 BYTE   W08
 BYTE   Gs3
 BYTE   N05  Ds4
 BYTE   W08
 BYTE   Fn3
 BYTE   N05  Cn4
 BYTE   W08
 BYTE   Fn3
 BYTE   N05  Cn4
 BYTE   W08
 BYTE   Fn3
 BYTE   N05  Cn4
 BYTE   W08
// 026   ----------------------------------------
 BYTE   N20  Fn3
 BYTE   N20  As3
 BYTE   W32
 BYTE   N05  As2
 BYTE   W08
 BYTE   N05
 BYTE   N05  Cs3
 BYTE   W08
 BYTE   N05
 BYTE   N05  Fs3
 BYTE   W08
 BYTE   Fs2
 BYTE   N05  Cs3
 BYTE   W08
 BYTE   N05
 BYTE   N05  Fs3
 BYTE   W08
 BYTE   Ds3
 BYTE   N05  Gs3
 BYTE   W08
 BYTE   Gs2
 BYTE   N05  Ds3
 BYTE   W08
 BYTE   N05
 BYTE   N05  Gs3
 BYTE   W08
// 027   ----------------------------------------
 BYTE   N15  Fn3
 BYTE   N15  As3
 BYTE   W96
// 028   ----------------------------------------
 BYTE   W96
// 029   ----------------------------------------
 BYTE   W96
// 030   ----------------------------------------
 BYTE   W96
// 031   ----------------------------------------
 BYTE   W96
// 032   ----------------------------------------
 BYTE   W96
// 033   ----------------------------------------
 BYTE   W96
// 034   ----------------------------------------
 BYTE   W96
// 035   ----------------------------------------
 BYTE   W96
// 036   ----------------------------------------
 BYTE   W96
// 037   ----------------------------------------
 BYTE   W96
// 038   ----------------------------------------
 BYTE   N05  En2
 BYTE   W06
 BYTE   An2
 BYTE   W06
 BYTE   Cn3
 BYTE   W06
 BYTE   En3
 BYTE   W06
 BYTE   An3
 BYTE   W06
 BYTE   Cn4
 BYTE   W06
 BYTE   En4
 BYTE   W06
 BYTE   An4
 BYTE   W06
 BYTE   Cn5
 BYTE   W06
 BYTE   An4
 BYTE   W06
 BYTE   En4
 BYTE   W06
 BYTE   Cn4
 BYTE   W06
 BYTE   An3
 BYTE   W06
 BYTE   En3
 BYTE   W06
 BYTE   Cn3
 BYTE   W06
 BYTE   An2
 BYTE   W06
// 039   ----------------------------------------
 BYTE   W96
// 040   ----------------------------------------
 BYTE   W96
// 041   ----------------------------------------
 BYTE   W96
// 042   ----------------------------------------
 BYTE   W96
// 043   ----------------------------------------
 BYTE   W96
// 044   ----------------------------------------
 BYTE   W96
// 045   ----------------------------------------
 BYTE   W96
// 046   ----------------------------------------
 BYTE   W96
// 047   ----------------------------------------
 BYTE   W96
// 048   ----------------------------------------
 BYTE   W96
// 049   ----------------------------------------
 BYTE   W96
// 050   ----------------------------------------
 BYTE   W96
// 051   ----------------------------------------
 BYTE   W96
// 052   ----------------------------------------
 BYTE   W96
// 053   ----------------------------------------
 BYTE   W96
// 054   ----------------------------------------
 BYTE   W96
// 055   ----------------------------------------
 BYTE   W72
 BYTE   GoTo
  POIN2 Label_7_012A1CB2
 BYTE   FINE

//**************** Track 9 (Midi-Chn.8) ****************//

SuperSmashBrosMeleeFinalDestinationMrGreen3339_009:
// 000   ----------------------------------------
 BYTE   KEYSH   SuperSmashBrosMeleeFinalDestinationMrGreen3339_key+0
Label_8_012A1DDE:
 BYTE   VOICE   74
 BYTE   VOL   65*SuperSmashBrosMeleeFinalDestinationMrGreen3339_mvl/mxv
 BYTE   PAN   c_v+0
 BYTE   W24
 BYTE   VOL   65*SuperSmashBrosMeleeFinalDestinationMrGreen3339_mvl/mxv
 BYTE   W96
// 001   ----------------------------------------
 BYTE   W96
// 002   ----------------------------------------
 BYTE   W48
 BYTE   N05  As4  v060
 BYTE   W08
 BYTE   Fs4
 BYTE   W08
 BYTE   Ds4
 BYTE   W08
 BYTE   Fn5
 BYTE   W08
 BYTE   Bn4
 BYTE   W08
 BYTE   Fn5
 BYTE   W08
// 003   ----------------------------------------
 BYTE   W96
// 004   ----------------------------------------
 BYTE   W96
// 005   ----------------------------------------
 BYTE   W96
// 006   ----------------------------------------
 BYTE   W96
// 007   ----------------------------------------
 BYTE   W72
 BYTE   N02  Dn3  v032
 BYTE   W03
 BYTE   Fn3
 BYTE   W03
 BYTE   An3
 BYTE   W03
 BYTE   Dn4
 BYTE   W03
 BYTE   Fn4
 BYTE   W03
 BYTE   An4
 BYTE   W03
 BYTE   Dn5
 BYTE   W03
 BYTE   Fn5
 BYTE   W03
// 008   ----------------------------------------
 BYTE   W12
 BYTE   N05  Gn3  v048
 BYTE   W06
 BYTE   Dn3
 BYTE   W06
 BYTE   N42  Dn4
 BYTE   W48
 BYTE   N05  Cn4
 BYTE   W06
 BYTE   As3
 BYTE   W06
 BYTE   An3
 BYTE   W06
 BYTE   Gn3
 BYTE   W06
// 009   ----------------------------------------
 BYTE   N17  As3
 BYTE   W18
 BYTE   N04  An3
 BYTE   W06
 BYTE   N42
 BYTE   W72
// 010   ----------------------------------------
 BYTE   W12
 BYTE   N05  Gn3
 BYTE   W06
 BYTE   Dn3
 BYTE   W06
 BYTE   N42  Cn4
 BYTE   W48
 BYTE   N05  As3
 BYTE   W06
 BYTE   An3
 BYTE   W06
 BYTE   Gn3
 BYTE   W06
 BYTE   Fn3
 BYTE   W06
// 011   ----------------------------------------
 BYTE   N17  Fn4
 BYTE   W18
 BYTE   N04  Fn3
 BYTE   W06
 BYTE   N42
 BYTE   W72
// 012   ----------------------------------------
 BYTE   W24
 BYTE   N02  Gn3
 BYTE   W03
 BYTE   As3
 BYTE   W03
 BYTE   Dn4
 BYTE   W03
 BYTE   Gn4
 BYTE   W03
 BYTE   As4
 BYTE   W03
 BYTE   Dn5
 BYTE   W03
 BYTE   Gn5
 BYTE   W03
 BYTE   As5
 BYTE   W03
 BYTE   N12  Dn6
 BYTE   W48
// 013   ----------------------------------------
 BYTE   W24
 BYTE   N02  Fn3
 BYTE   W03
 BYTE   An3
 BYTE   W03
 BYTE   Cn4
 BYTE   W03
 BYTE   Fn4
 BYTE   W03
 BYTE   An4
 BYTE   W03
 BYTE   Cn5
 BYTE   W03
 BYTE   Fn5
 BYTE   W03
 BYTE   An5
 BYTE   W03
 BYTE   N12  Cn6
 BYTE   W48
// 014   ----------------------------------------
 BYTE   W96
// 015   ----------------------------------------
 BYTE   N02  Dn3
 BYTE   W03
 BYTE   Fs3
 BYTE   W03
 BYTE   Gn3
 BYTE   W03
 BYTE   An3
 BYTE   W03
 BYTE   Cs4
 BYTE   W03
 BYTE   Dn4
 BYTE   W03
 BYTE   Fs4
 BYTE   W03
 BYTE   Gn4
 BYTE   W03
 BYTE   An4
 BYTE   W03
 BYTE   Cs5
 BYTE   W03
 BYTE   Dn5
 BYTE   W03
 BYTE   En5
 BYTE   W03
 BYTE   Gn5
 BYTE   W03
 BYTE   An5
 BYTE   W03
 BYTE   Bn5
 BYTE   W03
 BYTE   Cs6
 BYTE   W03
 BYTE   N12  Dn6
 BYTE   W48
// 016   ----------------------------------------
 BYTE   W96
// 017   ----------------------------------------
 BYTE   W96
// 018   ----------------------------------------
 BYTE   W96
// 019   ----------------------------------------
 BYTE   W96
// 020   ----------------------------------------
 BYTE   N11  As4  v092
 BYTE   W12
 BYTE   N05  Fn4
 BYTE   W06
 BYTE   As4
 BYTE   W06
 BYTE   N42  Fn5
 BYTE   W48
 BYTE   N05  Ds5
 BYTE   W06
 BYTE   Cs5
 BYTE   W06
 BYTE   Cn5
 BYTE   W06
 BYTE   As4
 BYTE   W06
// 021   ----------------------------------------
 BYTE   N17  Cs5
 BYTE   W18
 BYTE   N05  Cn5
 BYTE   W06
 BYTE   N42
 BYTE   W72
// 022   ----------------------------------------
 BYTE   W12
 BYTE   N05  As4
 BYTE   W06
 BYTE   N05
 BYTE   W06
 BYTE   N42  Ds5
 BYTE   W48
 BYTE   N05  Cs5
 BYTE   W06
 BYTE   Cn5
 BYTE   W06
 BYTE   As4
 BYTE   W06
 BYTE   Gs4
 BYTE   W06
// 023   ----------------------------------------
 BYTE   N17  Gs5
 BYTE   W18
 BYTE   N05  Gs4
 BYTE   W06
 BYTE   N42
 BYTE   W72
// 024   ----------------------------------------
 BYTE   N11  Gs4  v108
 BYTE   W12
 BYTE   Gs4  v076
 BYTE   W12
 BYTE   N07
 BYTE   W08
 BYTE   N07
 BYTE   W08
 BYTE   N07
 BYTE   W08
 BYTE   N11  As4  v108
 BYTE   W12
 BYTE   As4  v076
 BYTE   W12
 BYTE   N07
 BYTE   W08
 BYTE   N07
 BYTE   W08
 BYTE   N07
 BYTE   W08
// 025   ----------------------------------------
 BYTE   N11  Cs5  v108
 BYTE   W12
 BYTE   Cs5  v076
 BYTE   W12
 BYTE   N07  Cs4
 BYTE   W08
 BYTE   Fs4
 BYTE   W08
 BYTE   Cs5
 BYTE   W08
 BYTE   Ds5
 BYTE   W08
 BYTE   Ds4
 BYTE   W08
 BYTE   Ds5
 BYTE   W08
 BYTE   Cn5
 BYTE   W08
 BYTE   Fn4
 BYTE   W08
 BYTE   Cn5
 BYTE   W08
// 026   ----------------------------------------
 BYTE   N20  As4
 BYTE   W24
 BYTE   N07
 BYTE   W08
 BYTE   N07
 BYTE   W08
 BYTE   N07
 BYTE   W08
 BYTE   Fs4
 BYTE   W08
 BYTE   N07
 BYTE   W08
 BYTE   N07
 BYTE   W08
 BYTE   Gs4
 BYTE   W08
 BYTE   N07
 BYTE   W08
 BYTE   N07
 BYTE   W08
// 027   ----------------------------------------
 BYTE   N20  As4
 BYTE   W96
// 028   ----------------------------------------
 BYTE   W96
// 029   ----------------------------------------
 BYTE   W96
// 030   ----------------------------------------
 BYTE   W96
// 031   ----------------------------------------
 BYTE   W96
// 032   ----------------------------------------
 BYTE   W96
// 033   ----------------------------------------
 BYTE   W96
// 034   ----------------------------------------
 BYTE   W96
// 035   ----------------------------------------
 BYTE   N11  Fs4
 BYTE   W12
 BYTE   Gs4
 BYTE   W84
// 036   ----------------------------------------
 BYTE   W96
// 037   ----------------------------------------
 BYTE   W24
 BYTE   Fs4
 BYTE   W12
 BYTE   Gs4
 BYTE   W36
 BYTE   N20  En5
 BYTE   W24
// 038   ----------------------------------------
 BYTE   W48
 BYTE   N02  Cs3  v060
 BYTE   W03
 BYTE   En3
 BYTE   W03
 BYTE   An3
 BYTE   W03
 BYTE   Cs4
 BYTE   W03
 BYTE   En4
 BYTE   W03
 BYTE   Cs4
 BYTE   W03
 BYTE   An4
 BYTE   W03
 BYTE   Cs4
 BYTE   W03
 BYTE   Cs5
 BYTE   W03
 BYTE   An4
 BYTE   W03
 BYTE   En5
 BYTE   W03
 BYTE   An4
 BYTE   W03
 BYTE   An5
 BYTE   W03
 BYTE   Cs6
 BYTE   W03
 BYTE   En6
 BYTE   W03
 BYTE   Gn6
 BYTE   W03
// 039   ----------------------------------------
 BYTE   W96
// 040   ----------------------------------------
 BYTE   W96
// 041   ----------------------------------------
 BYTE   W96
// 042   ----------------------------------------
 BYTE   W96
// 043   ----------------------------------------
 BYTE   W72
 BYTE   N07  En5
 BYTE   W08
 BYTE   Cn5
 BYTE   W08
 BYTE   En5
 BYTE   W08
// 044   ----------------------------------------
 BYTE   N66  Dn6
 BYTE   W72
 BYTE   N07
 BYTE   W08
 BYTE   N07
 BYTE   W08
 BYTE   N07
 BYTE   W08
// 045   ----------------------------------------
 BYTE   N90  En6
 BYTE   W96
// 046   ----------------------------------------
 BYTE   Cn6
 BYTE   W96
// 047   ----------------------------------------
 BYTE   W96
// 048   ----------------------------------------
 BYTE   N02  Gs3
 BYTE   W03
 BYTE   Cs4
 BYTE   W03
 BYTE   Gs3
 BYTE   W03
 BYTE   Cs4
 BYTE   W03
 BYTE   Fn4
 BYTE   W03
 BYTE   Cs4
 BYTE   W03
 BYTE   Fn4
 BYTE   W03
 BYTE   Gs4
 BYTE   W03
 BYTE   Fn4
 BYTE   W03
 BYTE   Gs4
 BYTE   W03
 BYTE   Cs5
 BYTE   W03
 BYTE   Gs4
 BYTE   W03
 BYTE   Cs5
 BYTE   W03
 BYTE   Fn5
 BYTE   W03
 BYTE   Cs5
 BYTE   W03
 BYTE   Fn5
 BYTE   W03
 BYTE   Gs5
 BYTE   W03
 BYTE   Fn5
 BYTE   W03
 BYTE   Cs5
 BYTE   W03
 BYTE   Fn5
 BYTE   W03
 BYTE   Cs5
 BYTE   W03
 BYTE   Gs4
 BYTE   W03
 BYTE   Cs5
 BYTE   W03
 BYTE   Gs4
 BYTE   W03
 BYTE   Fn4
 BYTE   W03
 BYTE   Gs4
 BYTE   W03
 BYTE   Fn4
 BYTE   W03
 BYTE   Cs4
 BYTE   W03
 BYTE   Fn4
 BYTE   W03
 BYTE   Cs4
 BYTE   W03
 BYTE   Gs3
 BYTE   W03
 BYTE   Cs4
 BYTE   W03
// 049   ----------------------------------------
 BYTE   W96
// 050   ----------------------------------------
 BYTE   Dn3
 BYTE   W03
 BYTE   Fn3
 BYTE   W03
 BYTE   Dn3
 BYTE   W03
 BYTE   Fn3
 BYTE   W03
 BYTE   An3
 BYTE   W03
 BYTE   Fn3
 BYTE   W03
 BYTE   An3
 BYTE   W03
 BYTE   Dn4
 BYTE   W03
 BYTE   An3
 BYTE   W03
 BYTE   Dn4
 BYTE   W03
 BYTE   Fn4
 BYTE   W03
 BYTE   Dn4
 BYTE   W03
 BYTE   Fn4
 BYTE   W03
 BYTE   An4
 BYTE   W03
 BYTE   Fn4
 BYTE   W03
 BYTE   An4
 BYTE   W03
 BYTE   Dn5
 BYTE   W03
 BYTE   An4
 BYTE   W03
 BYTE   Dn5
 BYTE   W03
 BYTE   Fn5
 BYTE   W03
 BYTE   Dn5
 BYTE   W03
 BYTE   Fn5
 BYTE   W03
 BYTE   An5
 BYTE   W03
 BYTE   Fn5
 BYTE   W03
 BYTE   An5
 BYTE   W03
 BYTE   Dn6
 BYTE   W03
 BYTE   An5
 BYTE   W03
 BYTE   Dn6
 BYTE   W03
 BYTE   Fn6
 BYTE   W03
 BYTE   Dn6
 BYTE   W03
 BYTE   Fn6
 BYTE   W03
 BYTE   An6
 BYTE   W03
// 051   ----------------------------------------
 BYTE   N20
 BYTE   W72
 BYTE   N05  Fs5
 BYTE   W08
 BYTE   Gn5
 BYTE   W08
 BYTE   Gs5
 BYTE   W08
// 052   ----------------------------------------
 BYTE   An5
 BYTE   W08
 BYTE   N05
 BYTE   W08
 BYTE   N05
 BYTE   W08
 BYTE   Fs5
 BYTE   W08
 BYTE   N05
 BYTE   W08
 BYTE   N05
 BYTE   W08
 BYTE   Dn5
 BYTE   W08
 BYTE   N05
 BYTE   W08
 BYTE   N05
 BYTE   W08
 BYTE   En5
 BYTE   W08
 BYTE   N05
 BYTE   W08
 BYTE   N05
 BYTE   W08
// 053   ----------------------------------------
 BYTE   N11  Fn5
 BYTE   W16
 BYTE   N19
 BYTE   W24
 BYTE   N05
 BYTE   W08
 BYTE   Gn5
 BYTE   W08
 BYTE   En5
 BYTE   W08
 BYTE   Cn5
 BYTE   W08
 BYTE   Bn4
 BYTE   W08
 BYTE   Gn4
 BYTE   W08
 BYTE   En4
 BYTE   W08
// 054   ----------------------------------------
 BYTE   N15  An4
 BYTE   W24
 BYTE   N03
 BYTE   W04
 BYTE   Bn4
 BYTE   W04
 BYTE   Cs5
 BYTE   W04
 BYTE   Dn5
 BYTE   W04
 BYTE   En5
 BYTE   W04
 BYTE   Gn5
 BYTE   W04
 BYTE   N20  An5
 BYTE   W24
 BYTE   N05  An4
 BYTE   W08
 BYTE   N05
 BYTE   W08
 BYTE   N05
 BYTE   W08
// 055   ----------------------------------------
 BYTE   N20  Dn5
 BYTE   W24
 BYTE   N07  Dn6
 BYTE   W08
 BYTE   N07
 BYTE   W08
 BYTE   N07
 BYTE   W08
 BYTE   N06
 BYTE   W24
 BYTE   GoTo
  POIN2 Label_8_012A1DDE
 BYTE   FINE

//**************** Track 10 (Midi-Chn.9) ****************//

SuperSmashBrosMeleeFinalDestinationMrGreen3339_010:
// 000   ----------------------------------------
 BYTE   KEYSH   SuperSmashBrosMeleeFinalDestinationMrGreen3339_key+0
Label_9_012A2052:
 BYTE   VOICE   52
 BYTE   VOL   65*SuperSmashBrosMeleeFinalDestinationMrGreen3339_mvl/mxv
 BYTE   PAN   c_v+0
 BYTE   W24
 BYTE   VOL   65*SuperSmashBrosMeleeFinalDestinationMrGreen3339_mvl/mxv
 BYTE   W96
// 001   ----------------------------------------
 BYTE   W96
// 002   ----------------------------------------
 BYTE   W48
 BYTE   N07  As4  v048
 BYTE   W08
 BYTE   Fs4
 BYTE   W08
 BYTE   Ds4
 BYTE   W08
 BYTE   Fn5
 BYTE   W08
 BYTE   Bn4
 BYTE   W08
 BYTE   Fn5
 BYTE   W08
// 003   ----------------------------------------
 BYTE   W96
// 004   ----------------------------------------
 BYTE   W96
// 005   ----------------------------------------
 BYTE   W96
// 006   ----------------------------------------
 BYTE   W96
// 007   ----------------------------------------
 BYTE   W96
// 008   ----------------------------------------
 BYTE   W96
// 009   ----------------------------------------
 BYTE   W96
// 010   ----------------------------------------
 BYTE   W96
// 011   ----------------------------------------
 BYTE   W72
 BYTE   N05  Gn3  v076
 BYTE   W06
 BYTE   An3
 BYTE   W06
 BYTE   As3
 BYTE   W06
 BYTE   Cn4
 BYTE   W06
// 012   ----------------------------------------
 BYTE   N42  Dn4
 BYTE   W72
 BYTE   N07
 BYTE   W08
 BYTE   Cn4
 BYTE   W08
 BYTE   As3
 BYTE   W08
// 013   ----------------------------------------
 BYTE   N42  An3
 BYTE   W64
 BYTE   N07  Fn3
 BYTE   W08
 BYTE   Cn3
 BYTE   W08
 BYTE   Fn3
 BYTE   W08
 BYTE   Cn4
 BYTE   W08
// 014   ----------------------------------------
 BYTE   N20  Dn3
 BYTE   N20  Gn3
 BYTE   N20  Bn3
 BYTE   W48
 BYTE   En3
 BYTE   N20  An3
 BYTE   N20  Cs4
 BYTE   W48
// 015   ----------------------------------------
 BYTE   N42  Cn3
 BYTE   N42  Dn3
 BYTE   N42  Gn3
 BYTE   W48
 BYTE   N20  An2
 BYTE   N20  Dn3
 BYTE   N20  Fs3
 BYTE   W48
// 016   ----------------------------------------
 BYTE   W96
// 017   ----------------------------------------
 BYTE   W96
// 018   ----------------------------------------
 BYTE   W96
// 019   ----------------------------------------
 BYTE   W96
// 020   ----------------------------------------
 BYTE   N96  As2  v060
 BYTE   N96  Cs3
 BYTE   N96  Fn3
 BYTE   W96
// 021   ----------------------------------------
Label_9_012A20BB:
 BYTE   N96  Gs2  v060
 BYTE   N96  Cn3
 BYTE   N96  Ds3
 BYTE   W96
 BYTE   PEND 
// 022   ----------------------------------------
 BYTE   As2
 BYTE   N96  Cs3
 BYTE   N96  Fs3
 BYTE   W96
 BYTE   PATT
  POIN2 Label_9_012A20BB
// 023   ----------------------------------------
 BYTE   N20  Cs3  v060
 BYTE   N20  Gs3
 BYTE   W32
 BYTE   N05  Cs3
 BYTE   N05  Fn3
 BYTE   W08
 BYTE   Cs3
 BYTE   N05  Gs3
 BYTE   W08
 BYTE   N20  Ds3
 BYTE   N20  As3
 BYTE   W32
 BYTE   N05  Ds3
 BYTE   N05  Fs3
 BYTE   W08
 BYTE   Ds3
 BYTE   N05  As3
 BYTE   W08
// 024   ----------------------------------------
 BYTE   N20  Fs3
 BYTE   N20  Cs4
 BYTE   W32
 BYTE   N05  Fs3
 BYTE   N05  As3
 BYTE   W08
 BYTE   Fs3
 BYTE   N05  Cs4
 BYTE   W08
 BYTE   Gs3
 BYTE   N05  Ds4
 BYTE   W08
 BYTE   Gs3
 BYTE   N05  Ds4
 BYTE   W08
 BYTE   Gs3
 BYTE   N05  Ds4
 BYTE   W08
 BYTE   Fn3
 BYTE   N05  Cn4
 BYTE   W08
 BYTE   Fn3
 BYTE   N05  Cn4
 BYTE   W08
 BYTE   Fn3
 BYTE   N05  Cn4
 BYTE   W08
// 025   ----------------------------------------
 BYTE   N20  Fn3
 BYTE   N20  As3
 BYTE   W32
 BYTE   N05  As2
 BYTE   W08
 BYTE   N05
 BYTE   N05  Cs3
 BYTE   W08
 BYTE   N05
 BYTE   N05  Fs3
 BYTE   W08
 BYTE   Fs2
 BYTE   N05  Cs3
 BYTE   W08
 BYTE   N05
 BYTE   N05  Fs3
 BYTE   W08
 BYTE   Ds3
 BYTE   N05  Gs3
 BYTE   W08
 BYTE   Gs2
 BYTE   N05  Ds3
 BYTE   W08
 BYTE   N05
 BYTE   N05  Gs3
 BYTE   W08
// 026   ----------------------------------------
 BYTE   As2  v012
 BYTE   N05  Fn3
 BYTE   N05  As3
 BYTE   W08
 BYTE   As2
 BYTE   W08
 BYTE   N05
 BYTE   W08
 BYTE   N05
 BYTE   W08
 BYTE   N05
 BYTE   W08
 BYTE   N05
 BYTE   W08
 BYTE   N05
 BYTE   W08
 BYTE   N05
 BYTE   W08
 BYTE   N05
 BYTE   W08
 BYTE   N05
 BYTE   W08
 BYTE   N05
 BYTE   W08
 BYTE   N05
 BYTE   W08
// 027   ----------------------------------------
 BYTE   N96  As2  v048
 BYTE   N96  Cs3
 BYTE   N96  Fn3
 BYTE   W96
// 028   ----------------------------------------
 BYTE   Gs2
 BYTE   N96  Cn3
 BYTE   N96  Ds3
 BYTE   W96
// 029   ----------------------------------------
 BYTE   Fs2
 BYTE   N96  Bn2
 BYTE   N96  Cs3
 BYTE   W96
// 030   ----------------------------------------
 BYTE   As2
 BYTE   N96  Cs3
 BYTE   N96  Fs3
 BYTE   W96
// 031   ----------------------------------------
 BYTE   Bn2
 BYTE   N96  Ds3
 BYTE   N96  Gs3
 BYTE   W96
// 032   ----------------------------------------
 BYTE   Bn2
 BYTE   N96  Ds3
 BYTE   N96  Fs3
 BYTE   W96
// 033   ----------------------------------------
 BYTE   An2
 BYTE   N96  Cs3
 BYTE   N96  En3
 BYTE   W96
// 034   ----------------------------------------
 BYTE   TIE  Cs3
 BYTE   TIE  En3
 BYTE   TIE  An3
 BYTE   W96
// 035   ----------------------------------------
 BYTE   W96
// 036   ----------------------------------------
 BYTE   W96
// 037   ----------------------------------------
 BYTE   W96
// 038   ----------------------------------------
 BYTE   EOT
 BYTE   Cs3  v064
 BYTE   An3
 BYTE   W96
// 039   ----------------------------------------
 BYTE   W96
// 040   ----------------------------------------
 BYTE   W96
// 041   ----------------------------------------
 BYTE   W96
// 042   ----------------------------------------
 BYTE   W96
// 043   ----------------------------------------
 BYTE   W96
// 044   ----------------------------------------
 BYTE   W96
// 045   ----------------------------------------
 BYTE   W96
// 046   ----------------------------------------
 BYTE   W96
// 047   ----------------------------------------
 BYTE   W96
// 048   ----------------------------------------
 BYTE   W96
// 049   ----------------------------------------
 BYTE   W96
// 050   ----------------------------------------
 BYTE   W96
// 051   ----------------------------------------
 BYTE   N05  En3  v060
 BYTE   N05  An3
 BYTE   W08
 BYTE   En3
 BYTE   N05  An3
 BYTE   W08
 BYTE   En3
 BYTE   N05  An3
 BYTE   W08
 BYTE   Cs3
 BYTE   N05  Fs3
 BYTE   W08
 BYTE   Cs3
 BYTE   N05  Fs3
 BYTE   W08
 BYTE   Cs3
 BYTE   N05  Fs3
 BYTE   W08
 BYTE   An2
 BYTE   N05  Dn3
 BYTE   W08
 BYTE   An2
 BYTE   N05  Dn3
 BYTE   W08
 BYTE   An2
 BYTE   N05  Dn3
 BYTE   W08
 BYTE   Bn2
 BYTE   N05  En3
 BYTE   W08
 BYTE   Bn2
 BYTE   N05  En3
 BYTE   W08
 BYTE   Bn2
 BYTE   N05  En3
 BYTE   W08
// 052   ----------------------------------------
 BYTE   N11  Cn3
 BYTE   N11  Fn3
 BYTE   W16
 BYTE   Cn3
 BYTE   N11  Fn3
 BYTE   W80
// 053   ----------------------------------------
 BYTE   W96
// 054   ----------------------------------------
 BYTE   W24
 BYTE   N05  Dn3  v092
 BYTE   W08
 BYTE   N05
 BYTE   W08
 BYTE   N05
 BYTE   W08
 BYTE   N05
 BYTE   W08
 BYTE   N05
 BYTE   W08
 BYTE   N05
 BYTE   W08
 BYTE   GoTo
  POIN2 Label_9_012A2052
 BYTE   FINE

//**************** Track 11 (Midi-Chn.10) ****************//

SuperSmashBrosMeleeFinalDestinationMrGreen3339_011:
// 000   ----------------------------------------
 BYTE   KEYSH   SuperSmashBrosMeleeFinalDestinationMrGreen3339_key+0
Label_10_012A21EE:
 BYTE   VOICE   54
 BYTE   VOL   65*SuperSmashBrosMeleeFinalDestinationMrGreen3339_mvl/mxv
 BYTE   PAN   c_v+0
 BYTE   W24
 BYTE   VOL   65*SuperSmashBrosMeleeFinalDestinationMrGreen3339_mvl/mxv
 BYTE   W96
// 001   ----------------------------------------
 BYTE   W96
// 002   ----------------------------------------
 BYTE   W48
 BYTE   N07  As4  v048
 BYTE   W08
 BYTE   Fs4
 BYTE   W08
 BYTE   Ds4
 BYTE   W08
 BYTE   Fn5
 BYTE   W08
 BYTE   Bn4
 BYTE   W08
 BYTE   Fn5
 BYTE   W08
// 003   ----------------------------------------
 BYTE   W96
// 004   ----------------------------------------
 BYTE   W96
// 005   ----------------------------------------
 BYTE   W96
// 006   ----------------------------------------
 BYTE   W96
// 007   ----------------------------------------
 BYTE   W96
// 008   ----------------------------------------
 BYTE   W96
// 009   ----------------------------------------
 BYTE   W96
// 010   ----------------------------------------
 BYTE   W96
// 011   ----------------------------------------
 BYTE   W96
// 012   ----------------------------------------
 BYTE   W24
 BYTE   N05  Gn3
 BYTE   N05  As3
 BYTE   N05  Gn4
 BYTE   W08
 BYTE   Gn3
 BYTE   N05  As3
 BYTE   N05  Gn4
 BYTE   W08
 BYTE   Gn3
 BYTE   N05  As3
 BYTE   N05  Gn4
 BYTE   W08
 BYTE   N06  Gn3
 BYTE   N06  As3
 BYTE   N06  Gn4
 BYTE   W48
// 013   ----------------------------------------
 BYTE   W24
 BYTE   N05  Fn3
 BYTE   N05  An3
 BYTE   N05  Fn4
 BYTE   W08
 BYTE   Fn3
 BYTE   N05  An3
 BYTE   N05  Fn4
 BYTE   W08
 BYTE   Fn3
 BYTE   N05  An3
 BYTE   N05  Fn4
 BYTE   W08
 BYTE   N06  Fn3
 BYTE   N06  An3
 BYTE   N06  Fn4
 BYTE   W48
// 014   ----------------------------------------
 BYTE   N20  Dn3
 BYTE   N20  Gn3
 BYTE   N20  Bn3
 BYTE   W48
 BYTE   En3
 BYTE   N20  An3
 BYTE   N20  Cs4
 BYTE   W48
// 015   ----------------------------------------
 BYTE   N42  Cn3
 BYTE   N42  Dn3
 BYTE   N42  Gn3
 BYTE   W48
 BYTE   N20  An2
 BYTE   N20  Dn3
 BYTE   N20  Fs3
 BYTE   W48
// 016   ----------------------------------------
 BYTE   W96
// 017   ----------------------------------------
 BYTE   W96
// 018   ----------------------------------------
 BYTE   W96
// 019   ----------------------------------------
 BYTE   W96
// 020   ----------------------------------------
 BYTE   W96
// 021   ----------------------------------------
 BYTE   W96
// 022   ----------------------------------------
 BYTE   W96
// 023   ----------------------------------------
 BYTE   W96
// 024   ----------------------------------------
 BYTE   Gs4
 BYTE   N20  Gs5
 BYTE   W32
 BYTE   N07  Fn4
 BYTE   N07  Fn5
 BYTE   W08
 BYTE   Gs4
 BYTE   N07  Gs5
 BYTE   W08
 BYTE   N20  As4
 BYTE   N20  As5
 BYTE   W32
 BYTE   N07  Fs4
 BYTE   N07  Fs5
 BYTE   W08
 BYTE   As4
 BYTE   N07  As5
 BYTE   W08
// 025   ----------------------------------------
 BYTE   N20  Cs5
 BYTE   N20  Cs6
 BYTE   W32
 BYTE   N07  As4
 BYTE   N07  As5
 BYTE   W08
 BYTE   Cs5
 BYTE   N07  Cs6
 BYTE   W08
 BYTE   Ds5
 BYTE   N07  Ds6
 BYTE   W08
 BYTE   Ds5
 BYTE   N07  Ds6
 BYTE   W08
 BYTE   Ds5
 BYTE   N07  Ds6
 BYTE   W08
 BYTE   Cn5
 BYTE   N07  Cn6
 BYTE   W08
 BYTE   Cn5
 BYTE   N07  Cn6
 BYTE   W08
 BYTE   Cn5
 BYTE   N07  Cn6
 BYTE   W08
// 026   ----------------------------------------
 BYTE   N20  As4
 BYTE   N20  As5
 BYTE   W32
 BYTE   N07  As3
 BYTE   N07  As4
 BYTE   W08
 BYTE   Cs4
 BYTE   N07  Cs5
 BYTE   W08
 BYTE   Fs4
 BYTE   N07  Fs5
 BYTE   W08
 BYTE   Cs4
 BYTE   N07  Cs5
 BYTE   W08
 BYTE   Fs4
 BYTE   N07  Fs5
 BYTE   W08
 BYTE   Gs4
 BYTE   N07  Gs5
 BYTE   W08
 BYTE   Ds4
 BYTE   N07  Ds5
 BYTE   W08
 BYTE   Gs4
 BYTE   N07  Gs5
 BYTE   W08
// 027   ----------------------------------------
 BYTE   W96
// 028   ----------------------------------------
 BYTE   W96
// 029   ----------------------------------------
 BYTE   W96
// 030   ----------------------------------------
 BYTE   W96
// 031   ----------------------------------------
 BYTE   W96
// 032   ----------------------------------------
 BYTE   W96
// 033   ----------------------------------------
 BYTE   W96
// 034   ----------------------------------------
 BYTE   W96
// 035   ----------------------------------------
 BYTE   W96
// 036   ----------------------------------------
 BYTE   W96
// 037   ----------------------------------------
 BYTE   W96
// 038   ----------------------------------------
 BYTE   W48
 BYTE   N02  Cs3  v060
 BYTE   W03
 BYTE   En3
 BYTE   W03
 BYTE   An3
 BYTE   W03
 BYTE   Cs4
 BYTE   W03
 BYTE   En4
 BYTE   W03
 BYTE   Cs4
 BYTE   W03
 BYTE   An4
 BYTE   W03
 BYTE   Cs4
 BYTE   W03
 BYTE   Cs5
 BYTE   W03
 BYTE   An4
 BYTE   W03
 BYTE   En5
 BYTE   W03
 BYTE   An4
 BYTE   W03
 BYTE   An5
 BYTE   W03
 BYTE   Cs6
 BYTE   W03
 BYTE   En6
 BYTE   W03
 BYTE   Gn6
 BYTE   W03
// 039   ----------------------------------------
 BYTE   W96
// 040   ----------------------------------------
 BYTE   W96
// 041   ----------------------------------------
 BYTE   W96
// 042   ----------------------------------------
 BYTE   W96
// 043   ----------------------------------------
 BYTE   W96
// 044   ----------------------------------------
 BYTE   W96
// 045   ----------------------------------------
 BYTE   W96
// 046   ----------------------------------------
 BYTE   W96
// 047   ----------------------------------------
 BYTE   W96
// 048   ----------------------------------------
 BYTE   W96
// 049   ----------------------------------------
 BYTE   W96
// 050   ----------------------------------------
 BYTE   W96
// 051   ----------------------------------------
 BYTE   W96
// 052   ----------------------------------------
 BYTE   N05  An5  v092
 BYTE   W08
 BYTE   N05
 BYTE   W08
 BYTE   N05
 BYTE   W08
 BYTE   Fs5
 BYTE   W08
 BYTE   N05
 BYTE   W08
 BYTE   N05
 BYTE   W08
 BYTE   Dn5
 BYTE   W08
 BYTE   N05
 BYTE   W08
 BYTE   N05
 BYTE   W08
 BYTE   En5
 BYTE   W08
 BYTE   N05
 BYTE   W08
 BYTE   N05
 BYTE   W08
// 053   ----------------------------------------
 BYTE   N11  Fn5
 BYTE   W16
 BYTE   N19
 BYTE   W24
 BYTE   N05
 BYTE   W08
 BYTE   Gn5
 BYTE   W08
 BYTE   En5
 BYTE   W08
 BYTE   Cn5
 BYTE   W08
 BYTE   Bn4
 BYTE   W08
 BYTE   Gn4
 BYTE   W08
 BYTE   En4
 BYTE   W08
// 054   ----------------------------------------
 BYTE   N15  An4
 BYTE   W24
 BYTE   N03
 BYTE   W04
 BYTE   Bn4
 BYTE   W04
 BYTE   Cs5
 BYTE   W04
 BYTE   Dn5
 BYTE   W04
 BYTE   En5
 BYTE   W04
 BYTE   Gn5
 BYTE   W04
 BYTE   N20  An5
 BYTE   W24
 BYTE   N05  An4
 BYTE   W08
 BYTE   N05
 BYTE   W08
 BYTE   N05
 BYTE   W08
// 055   ----------------------------------------
 BYTE   N20  Dn5
 BYTE   W24
 BYTE   N07  Dn6
 BYTE   W08
 BYTE   N07
 BYTE   W08
 BYTE   N07
 BYTE   W08
 BYTE   N06
 BYTE   W24
 BYTE   GoTo
  POIN2 Label_10_012A21EE
 BYTE   FINE

//**************** Track 12 (Midi-Chn.11) ****************//

SuperSmashBrosMeleeFinalDestinationMrGreen3339_012:
// 000   ----------------------------------------
 BYTE   KEYSH   SuperSmashBrosMeleeFinalDestinationMrGreen3339_key+0
Label_11_012A2366:
 BYTE   VOICE   50
 BYTE   VOL   46*SuperSmashBrosMeleeFinalDestinationMrGreen3339_mvl/mxv
 BYTE   PAN   c_v+0
 BYTE   W24
 BYTE   VOL   65*SuperSmashBrosMeleeFinalDestinationMrGreen3339_mvl/mxv
 BYTE   W96
// 001   ----------------------------------------
 BYTE   W96
// 002   ----------------------------------------
 BYTE   W96
// 003   ----------------------------------------
 BYTE   W96
// 004   ----------------------------------------
 BYTE   W96
// 005   ----------------------------------------
 BYTE   W96
// 006   ----------------------------------------
 BYTE   W96
// 007   ----------------------------------------
 BYTE   W96
// 008   ----------------------------------------
 BYTE   W96
// 009   ----------------------------------------
 BYTE   W96
// 010   ----------------------------------------
 BYTE   W96
// 011   ----------------------------------------
 BYTE   W96
// 012   ----------------------------------------
 BYTE   W24
 BYTE   N05  Gn3  v048
 BYTE   N05  As3
 BYTE   N05  Gn4
 BYTE   W08
 BYTE   Gn3
 BYTE   N05  As3
 BYTE   N05  Gn4
 BYTE   W08
 BYTE   Gn3
 BYTE   N05  As3
 BYTE   N05  Gn4
 BYTE   W08
 BYTE   N06  Gn3
 BYTE   N06  As3
 BYTE   N06  Gn4
 BYTE   W48
// 013   ----------------------------------------
 BYTE   W24
 BYTE   N05  Fn3
 BYTE   N05  An3
 BYTE   N05  Fn4
 BYTE   W08
 BYTE   Fn3
 BYTE   N05  An3
 BYTE   N05  Fn4
 BYTE   W08
 BYTE   Fn3
 BYTE   N05  An3
 BYTE   N05  Fn4
 BYTE   W08
 BYTE   N06  Fn3
 BYTE   N06  An3
 BYTE   N06  Fn4
 BYTE   W48
// 014   ----------------------------------------
 BYTE   N20  Dn3
 BYTE   N20  Gn3
 BYTE   N20  Bn3
 BYTE   W48
 BYTE   En3
 BYTE   N20  An3
 BYTE   N20  Cs4
 BYTE   W48
// 015   ----------------------------------------
 BYTE   N42  Cn3
 BYTE   N42  Dn3
 BYTE   N42  Gn3
 BYTE   W48
 BYTE   N20  An2
 BYTE   N20  Dn3
 BYTE   N20  Fs3
 BYTE   W48
// 016   ----------------------------------------
 BYTE   N11  As2  v060
 BYTE   N11  Cs3
 BYTE   N11  Fn3
 BYTE   W36
 BYTE   As2
 BYTE   N11  Cs3
 BYTE   N11  Fn3
 BYTE   W24
 BYTE   As2
 BYTE   N11  Cs3
 BYTE   N11  Fn3
 BYTE   W36
// 017   ----------------------------------------
Label_11_012A23E1:
 BYTE   N11  Gs2  v060
 BYTE   N11  Cn3
 BYTE   N11  Ds3
 BYTE   W36
 BYTE   Gs2
 BYTE   N11  Cn3
 BYTE   N11  Ds3
 BYTE   W24
 BYTE   Gs2
 BYTE   N11  Cn3
 BYTE   N11  Ds3
 BYTE   W36
 BYTE   PEND 
// 018   ----------------------------------------
 BYTE   As2
 BYTE   N11  Cs3
 BYTE   N11  Fs3
 BYTE   W36
 BYTE   As2
 BYTE   N11  Cs3
 BYTE   N11  Fs3
 BYTE   W24
 BYTE   As2
 BYTE   N11  Cs3
 BYTE   N11  Fs3
 BYTE   W36
 BYTE   PATT
  POIN2 Label_11_012A23E1
// 019   ----------------------------------------
 BYTE   W96
// 020   ----------------------------------------
 BYTE   W96
// 021   ----------------------------------------
 BYTE   W96
// 022   ----------------------------------------
 BYTE   W96
// 023   ----------------------------------------
 BYTE   N20  Cs3  v076
 BYTE   N20  Gs3
 BYTE   W32
 BYTE   N05  Cs3
 BYTE   N05  Fn3
 BYTE   W08
 BYTE   Cs3
 BYTE   N05  Gs3
 BYTE   W08
 BYTE   N20  Ds3
 BYTE   N20  As3
 BYTE   W32
 BYTE   N05  Ds3
 BYTE   N05  Fs3
 BYTE   W08
 BYTE   Ds3
 BYTE   N05  As3
 BYTE   W08
// 024   ----------------------------------------
 BYTE   N20  Fs3
 BYTE   N20  Cs4
 BYTE   W32
 BYTE   N05  Fs3
 BYTE   N05  As3
 BYTE   W08
 BYTE   Fs3
 BYTE   N05  Cs4
 BYTE   W08
 BYTE   Gs3
 BYTE   N05  Ds4
 BYTE   W08
 BYTE   Gs3
 BYTE   N05  Ds4
 BYTE   W08
 BYTE   Gs3
 BYTE   N05  Ds4
 BYTE   W08
 BYTE   Fn3
 BYTE   N05  Cn4
 BYTE   W08
 BYTE   Fn3
 BYTE   N05  Cn4
 BYTE   W08
 BYTE   Fn3
 BYTE   N05  Cn4
 BYTE   W08
// 025   ----------------------------------------
 BYTE   N20  Fn3
 BYTE   N20  As3
 BYTE   W32
 BYTE   N05  As2
 BYTE   W08
 BYTE   N05
 BYTE   N05  Cs3
 BYTE   W08
 BYTE   N05
 BYTE   N05  Fs3
 BYTE   W08
 BYTE   Fs2
 BYTE   N05  Cs3
 BYTE   W08
 BYTE   N05
 BYTE   N05  Fs3
 BYTE   W08
 BYTE   Ds3
 BYTE   N05  Gs3
 BYTE   W08
 BYTE   Gs2
 BYTE   N05  Ds3
 BYTE   W08
 BYTE   N05
 BYTE   N05  Gs3
 BYTE   W08
// 026   ----------------------------------------
 BYTE   As2  v032
 BYTE   N05  Fn3
 BYTE   N05  As3
 BYTE   W08
 BYTE   As2
 BYTE   W08
 BYTE   N05
 BYTE   W08
 BYTE   N05
 BYTE   W08
 BYTE   N05
 BYTE   W08
 BYTE   N05
 BYTE   W08
 BYTE   N05
 BYTE   W08
 BYTE   N05
 BYTE   W08
 BYTE   N05
 BYTE   W08
 BYTE   N05
 BYTE   W08
 BYTE   N05
 BYTE   W08
 BYTE   N05
 BYTE   W08
// 027   ----------------------------------------
 BYTE   N96  As1  v048
 BYTE   N96  Cs2
 BYTE   N96  Fn2
 BYTE   W96
// 028   ----------------------------------------
 BYTE   Gs1
 BYTE   N96  Cn2
 BYTE   N96  Ds2
 BYTE   W96
// 029   ----------------------------------------
 BYTE   Fs1
 BYTE   N96  Bn1
 BYTE   N96  Cs2
 BYTE   W96
// 030   ----------------------------------------
 BYTE   As1
 BYTE   N96  Cs2
 BYTE   N96  Fs2
 BYTE   W96
// 031   ----------------------------------------
 BYTE   Bn1
 BYTE   N96  Ds2
 BYTE   N96  Gs2
 BYTE   W96
// 032   ----------------------------------------
 BYTE   Bn1
 BYTE   N96  Ds2
 BYTE   N96  Fs2
 BYTE   W96
// 033   ----------------------------------------
 BYTE   An1
 BYTE   N96  Cs2
 BYTE   N96  En2
 BYTE   W96
// 034   ----------------------------------------
 BYTE   TIE  Cs2
 BYTE   TIE  En2
 BYTE   TIE  An2
 BYTE   W96
// 035   ----------------------------------------
 BYTE   W96
// 036   ----------------------------------------
 BYTE   W96
// 037   ----------------------------------------
 BYTE   W96
// 038   ----------------------------------------
 BYTE   EOT
 BYTE   Cs2  v052
 BYTE   An2
 BYTE   W96
// 039   ----------------------------------------
 BYTE   W96
// 040   ----------------------------------------
 BYTE   W96
// 041   ----------------------------------------
 BYTE   W96
// 042   ----------------------------------------
 BYTE   W96
// 043   ----------------------------------------
 BYTE   W96
// 044   ----------------------------------------
 BYTE   W96
// 045   ----------------------------------------
 BYTE   W96
// 046   ----------------------------------------
 BYTE   W96
// 047   ----------------------------------------
 BYTE   W96
// 048   ----------------------------------------
 BYTE   W96
// 049   ----------------------------------------
 BYTE   W96
// 050   ----------------------------------------
 BYTE   W96
// 051   ----------------------------------------
 BYTE   W96
// 052   ----------------------------------------
 BYTE   W96
// 053   ----------------------------------------
 BYTE   W96
// 054   ----------------------------------------
 BYTE   W72
 BYTE   GoTo
  POIN2 Label_11_012A2366
 BYTE   FINE

//**************** Track 13 (Midi-Chn.12) ****************//

SuperSmashBrosMeleeFinalDestinationMrGreen3339_013:
// 000   ----------------------------------------
 BYTE   KEYSH   SuperSmashBrosMeleeFinalDestinationMrGreen3339_key+0
Label_12_012A24EA:
 BYTE   VOICE   48
 BYTE   VOL   65*SuperSmashBrosMeleeFinalDestinationMrGreen3339_mvl/mxv
 BYTE   PAN   c_v+0
 BYTE   W24
 BYTE   VOICE   48
 BYTE   VOL   65*SuperSmashBrosMeleeFinalDestinationMrGreen3339_mvl/mxv
 BYTE   W96
// 001   ----------------------------------------
 BYTE   W96
// 002   ----------------------------------------
 BYTE   W96
// 003   ----------------------------------------
 BYTE   W96
// 004   ----------------------------------------
Label_12_012A24F9:
 BYTE   N04  Gn3  v076
 BYTE   W12
 BYTE   N06
 BYTE   W24
 BYTE   N06
 BYTE   W24
 BYTE   N04
 BYTE   W12
 BYTE   N04
 BYTE   W12
 BYTE   N04
 BYTE   W12
 BYTE   PEND 
 BYTE   PATT
  POIN2 Label_12_012A24F9
 BYTE   PATT
  POIN2 Label_12_012A24F9
 BYTE   PATT
  POIN2 Label_12_012A24F9
 BYTE   PATT
  POIN2 Label_12_012A24F9
 BYTE   PATT
  POIN2 Label_12_012A24F9
 BYTE   PATT
  POIN2 Label_12_012A24F9
// 005   ----------------------------------------
 BYTE   N04  Fn3  v076
 BYTE   W12
 BYTE   N06
 BYTE   W24
 BYTE   N06
 BYTE   W60
// 006   ----------------------------------------
 BYTE   W96
// 007   ----------------------------------------
 BYTE   W96
// 008   ----------------------------------------
 BYTE   W96
// 009   ----------------------------------------
 BYTE   W96
// 010   ----------------------------------------
 BYTE   W96
// 011   ----------------------------------------
 BYTE   W96
// 012   ----------------------------------------
 BYTE   W96
// 013   ----------------------------------------
 BYTE   W96
// 014   ----------------------------------------
 BYTE   W96
// 015   ----------------------------------------
 BYTE   W96
// 016   ----------------------------------------
 BYTE   W96
// 017   ----------------------------------------
 BYTE   W96
// 018   ----------------------------------------
 BYTE   W96
// 019   ----------------------------------------
 BYTE   W96
// 020   ----------------------------------------
 BYTE   W96
// 021   ----------------------------------------
 BYTE   W96
// 022   ----------------------------------------
 BYTE   W96
// 023   ----------------------------------------
 BYTE   W96
// 024   ----------------------------------------
 BYTE   W96
// 025   ----------------------------------------
 BYTE   W96
// 026   ----------------------------------------
 BYTE   N05  Bn2  v048
 BYTE   N05  Ds3
 BYTE   W08
 BYTE   Bn2
 BYTE   N05  Ds3
 BYTE   W08
 BYTE   Bn2
 BYTE   N05  Ds3
 BYTE   W08
 BYTE   Bn2
 BYTE   N05  Ds3
 BYTE   W08
 BYTE   Bn2
 BYTE   N05  Ds3
 BYTE   W08
 BYTE   Bn2
 BYTE   N05  Ds3
 BYTE   W08
 BYTE   Bn2
 BYTE   N05  Ds3
 BYTE   W08
 BYTE   Bn2
 BYTE   N05  Ds3
 BYTE   W08
 BYTE   Bn2
 BYTE   N05  Ds3
 BYTE   W08
 BYTE   Bn2
 BYTE   N05  Ds3
 BYTE   W08
 BYTE   Bn2
 BYTE   N05  Ds3
 BYTE   W08
 BYTE   Bn2
 BYTE   N05  Ds3
 BYTE   W08
// 027   ----------------------------------------
 BYTE   Bn2
 BYTE   N05  Fs3
 BYTE   W08
 BYTE   Bn2
 BYTE   N05  Fs3
 BYTE   W08
 BYTE   Bn2
 BYTE   N05  Fs3
 BYTE   W08
 BYTE   Bn2
 BYTE   N05  Fs3
 BYTE   W08
 BYTE   Bn2
 BYTE   N05  Fs3
 BYTE   W08
 BYTE   Bn2
 BYTE   N05  Fs3
 BYTE   W08
 BYTE   Bn2
 BYTE   N05  Fs3
 BYTE   W08
 BYTE   Bn2
 BYTE   N05  Fs3
 BYTE   W08
 BYTE   Bn2
 BYTE   N05  Fs3
 BYTE   W08
 BYTE   Bn2
 BYTE   N05  Fs3
 BYTE   W08
 BYTE   Bn2
 BYTE   N05  Fs3
 BYTE   W08
 BYTE   Bn2
 BYTE   N05  Fs3
 BYTE   W08
// 028   ----------------------------------------
Label_12_012A25A4:
 BYTE   N05  En3  v048
 BYTE   N05  Bn3
 BYTE   W08
 BYTE   En3
 BYTE   N05  Bn3
 BYTE   W08
 BYTE   En3
 BYTE   N05  Bn3
 BYTE   W08
 BYTE   En3
 BYTE   N05  Bn3
 BYTE   W08
 BYTE   En3
 BYTE   N05  Bn3
 BYTE   W08
 BYTE   En3
 BYTE   N05  Bn3
 BYTE   W08
 BYTE   En3
 BYTE   N05  Bn3
 BYTE   W08
 BYTE   En3
 BYTE   N05  Bn3
 BYTE   W08
 BYTE   En3
 BYTE   N05  Bn3
 BYTE   W08
 BYTE   En3
 BYTE   N05  Bn3
 BYTE   W08
 BYTE   En3
 BYTE   N05  Bn3
 BYTE   W08
 BYTE   En3
 BYTE   N05  Bn3
 BYTE   W08
 BYTE   PEND 
 BYTE   PATT
  POIN2 Label_12_012A25A4
// 029   ----------------------------------------
 BYTE   N05  En3  v060
 BYTE   N05  Bn3
 BYTE   W08
 BYTE   En3
 BYTE   N05  Bn3
 BYTE   W08
 BYTE   En3
 BYTE   N05  Bn3
 BYTE   W08
 BYTE   En3
 BYTE   N05  Bn3
 BYTE   W08
 BYTE   En3
 BYTE   N05  Bn3
 BYTE   W08
 BYTE   En3
 BYTE   N05  Bn3
 BYTE   W08
 BYTE   En3
 BYTE   N05  Bn3
 BYTE   W08
 BYTE   En3
 BYTE   N05  Bn3
 BYTE   W08
 BYTE   En3
 BYTE   N05  Bn3
 BYTE   W08
 BYTE   En3
 BYTE   N05  Bn3
 BYTE   W08
 BYTE   En3
 BYTE   N05  Bn3
 BYTE   W08
 BYTE   En3
 BYTE   N05  Bn3
 BYTE   W08
// 030   ----------------------------------------
 BYTE   En3  v076
 BYTE   N05  Bn3
 BYTE   W08
 BYTE   En3
 BYTE   N05  Bn3
 BYTE   W08
 BYTE   En3
 BYTE   N05  Bn3
 BYTE   W08
 BYTE   En3
 BYTE   N05  Bn3
 BYTE   W08
 BYTE   En3
 BYTE   N05  Bn3
 BYTE   W08
 BYTE   En3
 BYTE   N05  Bn3
 BYTE   W08
 BYTE   En3
 BYTE   N05  Bn3
 BYTE   W08
 BYTE   En3
 BYTE   N05  Bn3
 BYTE   W08
 BYTE   En3
 BYTE   N05  Bn3
 BYTE   W08
 BYTE   En3
 BYTE   N05  Bn3
 BYTE   W08
 BYTE   En3
 BYTE   N05  Bn3
 BYTE   W08
 BYTE   En3
 BYTE   N05  Bn3
 BYTE   W08
// 031   ----------------------------------------
 BYTE   En3
 BYTE   N05  Bn3
 BYTE   W08
 BYTE   En3
 BYTE   N05  Bn3
 BYTE   W08
 BYTE   En3
 BYTE   N05  Bn3
 BYTE   W08
 BYTE   En3
 BYTE   N05  Bn3
 BYTE   W08
 BYTE   En3
 BYTE   N05  Bn3
 BYTE   W08
 BYTE   En3
 BYTE   N05  Bn3
 BYTE   W08
 BYTE   En3  v060
 BYTE   N05  Bn3
 BYTE   W08
 BYTE   En3
 BYTE   N05  Bn3
 BYTE   W08
 BYTE   En3
 BYTE   N05  Bn3
 BYTE   W08
 BYTE   En3
 BYTE   N05  Bn3
 BYTE   W08
 BYTE   En3
 BYTE   N05  Bn3
 BYTE   W08
 BYTE   En3
 BYTE   N05  Bn3
 BYTE   W08
// 032   ----------------------------------------
 BYTE   W96
// 033   ----------------------------------------
 BYTE   W96
// 034   ----------------------------------------
 BYTE   W96
// 035   ----------------------------------------
 BYTE   W96
// 036   ----------------------------------------
 BYTE   VOICE   60
 BYTE   N06  Cn3
 BYTE   N06  En3
 BYTE   N06  Gn3
 BYTE   W24
 BYTE   Cn3
 BYTE   N06  En3
 BYTE   N06  Gn3
 BYTE   W24
 BYTE   Cn3
 BYTE   N06  En3
 BYTE   N06  Gn3
 BYTE   W24
 BYTE   Cn3
 BYTE   N06  En3
 BYTE   N06  Gn3
 BYTE   W24
// 037   ----------------------------------------
 BYTE   Dn3
 BYTE   N06  Fn3
 BYTE   N06  An3
 BYTE   W24
 BYTE   Dn3
 BYTE   N06  Fn3
 BYTE   N06  An3
 BYTE   W24
 BYTE   Dn3
 BYTE   N06  Fn3
 BYTE   N06  An3
 BYTE   W24
 BYTE   Dn3
 BYTE   N06  Fn3
 BYTE   N06  An3
 BYTE   W24
// 038   ----------------------------------------
Label_12_012A26A7:
 BYTE   N06  En3  v060
 BYTE   N06  Gs3
 BYTE   N06  Bn3
 BYTE   W24
 BYTE   En3
 BYTE   N06  Gs3
 BYTE   N06  Bn3
 BYTE   W24
 BYTE   En3
 BYTE   N06  Gs3
 BYTE   N06  Bn3
 BYTE   W24
 BYTE   En3
 BYTE   N06  Gs3
 BYTE   N06  Bn3
 BYTE   W24
 BYTE   PEND 
 BYTE   PATT
  POIN2 Label_12_012A26A7
// 039   ----------------------------------------
 BYTE   W96
// 040   ----------------------------------------
 BYTE   W96
// 041   ----------------------------------------
 BYTE   W96
// 042   ----------------------------------------
 BYTE   W96
// 043   ----------------------------------------
 BYTE   W96
// 044   ----------------------------------------
 BYTE   N15  En2  v076
 BYTE   W24
 BYTE   Cs2
 BYTE   W24
 BYTE   An1
 BYTE   W24
 BYTE   Bn1
 BYTE   W24
// 045   ----------------------------------------
 BYTE   N11  Cn2
 BYTE   W16
 BYTE   N07
 BYTE   W80
// 046   ----------------------------------------
 BYTE   W96
// 047   ----------------------------------------
 BYTE   VOICE   127
 BYTE   VOL   18*SuperSmashBrosMeleeFinalDestinationMrGreen3339_mvl/mxv
 BYTE   N02  Dn0
 BYTE   W01
 BYTE   VOL   18*SuperSmashBrosMeleeFinalDestinationMrGreen3339_mvl/mxv
 BYTE   W02
 BYTE   GnM1
 BYTE   N02
 BYTE   W01
 BYTE   VOL   19*SuperSmashBrosMeleeFinalDestinationMrGreen3339_mvl/mxv
 BYTE   W02
 BYTE   GsM1
 BYTE   N02
 BYTE   W01
 BYTE   VOL   20*SuperSmashBrosMeleeFinalDestinationMrGreen3339_mvl/mxv
 BYTE   W02
 BYTE   AnM1
 BYTE   N02
 BYTE   W01
 BYTE   VOL   22*SuperSmashBrosMeleeFinalDestinationMrGreen3339_mvl/mxv
 BYTE   W02
 BYTE   AsM1
 BYTE   N02
 BYTE   W01
 BYTE   VOL   23*SuperSmashBrosMeleeFinalDestinationMrGreen3339_mvl/mxv
 BYTE   W02
 BYTE   BnM1
 BYTE   N02
 BYTE   W02
 BYTE   VOL   24*SuperSmashBrosMeleeFinalDestinationMrGreen3339_mvl/mxv
 BYTE   W01
 BYTE   Cn0
 BYTE   N02
 BYTE   W02
 BYTE   VOL   25*SuperSmashBrosMeleeFinalDestinationMrGreen3339_mvl/mxv
 BYTE   W01
 BYTE   Cs0
 BYTE   N02
 BYTE   W02
 BYTE   VOL   26*SuperSmashBrosMeleeFinalDestinationMrGreen3339_mvl/mxv
 BYTE   W01
 BYTE   Dn0
 BYTE   N02
 BYTE   W02
 BYTE   VOL   27*SuperSmashBrosMeleeFinalDestinationMrGreen3339_mvl/mxv
 BYTE   W01
 BYTE   Ds0
 BYTE   N02
 BYTE   W02
 BYTE   VOL   28*SuperSmashBrosMeleeFinalDestinationMrGreen3339_mvl/mxv
 BYTE   W01
 BYTE   En0
 BYTE   N02
 BYTE   W02
 BYTE   VOL   29*SuperSmashBrosMeleeFinalDestinationMrGreen3339_mvl/mxv
 BYTE   W01
 BYTE   N02
 BYTE   W01
 BYTE   VOL   29*SuperSmashBrosMeleeFinalDestinationMrGreen3339_mvl/mxv
 BYTE   W01
 BYTE   Fs0
 BYTE   W01
 BYTE   N02
 BYTE   W01
 BYTE   VOL   30*SuperSmashBrosMeleeFinalDestinationMrGreen3339_mvl/mxv
 BYTE   W01
 BYTE   Gn0
 BYTE   W01
 BYTE   N02
 BYTE   W01
 BYTE   VOL   31*SuperSmashBrosMeleeFinalDestinationMrGreen3339_mvl/mxv
 BYTE   W01
 BYTE   Gs0
 BYTE   W01
 BYTE   N02
 BYTE   W01
 BYTE   VOL   32*SuperSmashBrosMeleeFinalDestinationMrGreen3339_mvl/mxv
 BYTE   W01
 BYTE   An0
 BYTE   W01
 BYTE   N02
 BYTE   W01
 BYTE   VOL   33*SuperSmashBrosMeleeFinalDestinationMrGreen3339_mvl/mxv
 BYTE   W01
 BYTE   As0
 BYTE   W01
 BYTE   N02
 BYTE   W01
 BYTE   VOL   34*SuperSmashBrosMeleeFinalDestinationMrGreen3339_mvl/mxv
 BYTE   W02
 BYTE   Bn0
 BYTE   N02
 BYTE   W01
 BYTE   VOL   35*SuperSmashBrosMeleeFinalDestinationMrGreen3339_mvl/mxv
 BYTE   W02
 BYTE   Cn1
 BYTE   N02
 BYTE   W01
 BYTE   VOL   36*SuperSmashBrosMeleeFinalDestinationMrGreen3339_mvl/mxv
 BYTE   W02
 BYTE   Cs1
 BYTE   N02
 BYTE   W01
 BYTE   VOL   37*SuperSmashBrosMeleeFinalDestinationMrGreen3339_mvl/mxv
 BYTE   W02
 BYTE   Dn1
 BYTE   N02
 BYTE   W01
 BYTE   VOL   38*SuperSmashBrosMeleeFinalDestinationMrGreen3339_mvl/mxv
 BYTE   W02
 BYTE   Ds1
 BYTE   N02
 BYTE   W02
 BYTE   VOL   39*SuperSmashBrosMeleeFinalDestinationMrGreen3339_mvl/mxv
 BYTE   W01
 BYTE   En1
 BYTE   N02
 BYTE   W02
 BYTE   VOL   40*SuperSmashBrosMeleeFinalDestinationMrGreen3339_mvl/mxv
 BYTE   W01
 BYTE   Fn1
 BYTE   N02
 BYTE   W02
 BYTE   VOL   41*SuperSmashBrosMeleeFinalDestinationMrGreen3339_mvl/mxv
 BYTE   W01
 BYTE   GoTo
  POIN2 Label_12_012A24EA
 BYTE   FINE

//**************** Track 14 (Midi-Chn.13) ****************//

SuperSmashBrosMeleeFinalDestinationMrGreen3339_014:
// 000   ----------------------------------------
 BYTE   KEYSH   SuperSmashBrosMeleeFinalDestinationMrGreen3339_key+0
Label_13_012A277E:
 BYTE   VOICE   127
 BYTE   VOL   65*SuperSmashBrosMeleeFinalDestinationMrGreen3339_mvl/mxv
 BYTE   PAN   c_v+0
 BYTE   W24
 BYTE   VOL   65*SuperSmashBrosMeleeFinalDestinationMrGreen3339_mvl/mxv
 BYTE   N11  En1  v064
 BYTE   W12
 BYTE   En1  v048
 BYTE   W12
 BYTE   N07
 BYTE   W08
 BYTE   N07
 BYTE   W08
 BYTE   N07
 BYTE   W08
 BYTE   N11  En1  v064
 BYTE   W12
 BYTE   En1  v048
 BYTE   W12
// 001   ----------------------------------------
 BYTE   N07
 BYTE   W08
 BYTE   N07
 BYTE   W08
 BYTE   N07
 BYTE   W08
 BYTE   N11  En1  v064
 BYTE   W12
 BYTE   En1  v048
 BYTE   W12
 BYTE   N07
 BYTE   W08
 BYTE   N07
 BYTE   W08
 BYTE   N07
 BYTE   W08
 BYTE   N11  En1  v064
 BYTE   W12
 BYTE   En1  v048
 BYTE   W12
// 002   ----------------------------------------
 BYTE   N07
 BYTE   W08
 BYTE   N07
 BYTE   W08
 BYTE   N07
 BYTE   W08
 BYTE   N11  En1  v064
 BYTE   W12
 BYTE   En1  v048
 BYTE   W12
 BYTE   N07
 BYTE   W08
 BYTE   N07
 BYTE   W08
 BYTE   N07
 BYTE   W56
// 003   ----------------------------------------
 BYTE   N11  En1  v064
 BYTE   W12
 BYTE   En1  v048
 BYTE   W12
 BYTE   N07  En1  v064
 BYTE   W08
 BYTE   En1  v048
 BYTE   W08
 BYTE   N07
 BYTE   W08
 BYTE   N42  En1  v064
 BYTE   W48
// 004   ----------------------------------------
 BYTE   VOL   32*SuperSmashBrosMeleeFinalDestinationMrGreen3339_mvl/mxv
 BYTE   N11
 BYTE   W12
 BYTE   En1  v048
 BYTE   W12
 BYTE   N11
 BYTE   W12
 BYTE   En1  v064
 BYTE   W12
 BYTE   En1  v048
 BYTE   W12
 BYTE   N11
 BYTE   W12
 BYTE   N05  En1  v064
 BYTE   W06
 BYTE   En1  v048
 BYTE   W06
 BYTE   N05
 BYTE   W06
 BYTE   N05
 BYTE   W06
// 005   ----------------------------------------
Label_13_012A27F8:
 BYTE   N11  En1  v064
 BYTE   W12
 BYTE   En1  v048
 BYTE   W12
 BYTE   N11
 BYTE   W12
 BYTE   En1  v064
 BYTE   W12
 BYTE   En1  v048
 BYTE   W12
 BYTE   N11
 BYTE   W12
 BYTE   N05  En1  v064
 BYTE   W06
 BYTE   En1  v048
 BYTE   W06
 BYTE   N05
 BYTE   W06
 BYTE   N05
 BYTE   W06
 BYTE   PEND 
 BYTE   PATT
  POIN2 Label_13_012A27F8
 BYTE   PATT
  POIN2 Label_13_012A27F8
 BYTE   PATT
  POIN2 Label_13_012A27F8
 BYTE   PATT
  POIN2 Label_13_012A27F8
 BYTE   PATT
  POIN2 Label_13_012A27F8
 BYTE   PATT
  POIN2 Label_13_012A27F8
// 006   ----------------------------------------
Label_13_012A2833:
 BYTE   N20  En1  v048
 BYTE   W24
 BYTE   N07
 BYTE   W08
 BYTE   N07
 BYTE   W08
 BYTE   N07
 BYTE   W08
 BYTE   N20
 BYTE   W48
 BYTE   PEND 
 BYTE   PATT
  POIN2 Label_13_012A2833
// 007   ----------------------------------------
 BYTE   N42  En1  v048
 BYTE   W48
 BYTE   N42
 BYTE   W48
// 008   ----------------------------------------
 BYTE   N11
 BYTE   W12
 BYTE   N05
 BYTE   W06
 BYTE   N05
 BYTE   W06
 BYTE   N11
 BYTE   W12
 BYTE   N05
 BYTE   W06
 BYTE   N05
 BYTE   W06
 BYTE   N42
 BYTE   W48
// 009   ----------------------------------------
Label_13_012A2859:
 BYTE   N11  En1  v064
 BYTE   W12
 BYTE   N05  En1  v048
 BYTE   W06
 BYTE   N05
 BYTE   W06
 BYTE   N11
 BYTE   W12
 BYTE   En1  v064
 BYTE   W12
 BYTE   N05  En1  v048
 BYTE   W06
 BYTE   N05
 BYTE   W06
 BYTE   N11
 BYTE   W12
 BYTE   N05  En1  v064
 BYTE   W06
 BYTE   En1  v048
 BYTE   W06
 BYTE   N05
 BYTE   W06
 BYTE   N05
 BYTE   W06
 BYTE   PEND 
 BYTE   PATT
  POIN2 Label_13_012A2859
 BYTE   PATT
  POIN2 Label_13_012A2859
 BYTE   PATT
  POIN2 Label_13_012A2859
 BYTE   PATT
  POIN2 Label_13_012A2859
 BYTE   PATT
  POIN2 Label_13_012A2859
 BYTE   PATT
  POIN2 Label_13_012A2859
 BYTE   PATT
  POIN2 Label_13_012A2859
// 010   ----------------------------------------
Label_13_012A289F:
 BYTE   N15  En1  v064
 BYTE   W16
 BYTE   N07  En1  v048
 BYTE   W08
 BYTE   En1  v064
 BYTE   W08
 BYTE   En1  v048
 BYTE   W08
 BYTE   N07
 BYTE   W08
 BYTE   N15  En1  v064
 BYTE   W16
 BYTE   N07  En1  v048
 BYTE   W08
 BYTE   En1  v064
 BYTE   W08
 BYTE   En1  v048
 BYTE   W08
 BYTE   N07
 BYTE   W08
 BYTE   PEND 
 BYTE   PATT
  POIN2 Label_13_012A289F
// 011   ----------------------------------------
 BYTE   N15  En1  v064
 BYTE   W16
 BYTE   N07  En1  v048
 BYTE   W08
 BYTE   En1  v064
 BYTE   W08
 BYTE   En1  v048
 BYTE   W08
 BYTE   N07
 BYTE   W08
 BYTE   En1  v064
 BYTE   W08
 BYTE   En1  v048
 BYTE   W08
 BYTE   N07
 BYTE   W08
 BYTE   En1  v064
 BYTE   W08
 BYTE   En1  v048
 BYTE   W08
 BYTE   N07
 BYTE   W08
// 012   ----------------------------------------
 BYTE   N90
 BYTE   W96
// 013   ----------------------------------------
Label_13_012A28E7:
 BYTE   N11  Fs1  v048
 BYTE   W12
 BYTE   N05
 BYTE   W06
 BYTE   N05
 BYTE   W06
 BYTE   N05
 BYTE   N05  As1
 BYTE   W06
 BYTE   Fs1
 BYTE   W06
 BYTE   N05
 BYTE   W06
 BYTE   N05
 BYTE   W06
 BYTE   N05
 BYTE   W06
 BYTE   N05
 BYTE   W06
 BYTE   N05
 BYTE   W06
 BYTE   N05
 BYTE   W06
 BYTE   N05
 BYTE   N05  As1
 BYTE   W06
 BYTE   Fs1
 BYTE   W06
 BYTE   N05
 BYTE   W06
 BYTE   N05
 BYTE   W06
 BYTE   PEND 
 BYTE   PATT
  POIN2 Label_13_012A28E7
 BYTE   PATT
  POIN2 Label_13_012A28E7
 BYTE   PATT
  POIN2 Label_13_012A28E7
 BYTE   PATT
  POIN2 Label_13_012A28E7
 BYTE   PATT
  POIN2 Label_13_012A28E7
 BYTE   PATT
  POIN2 Label_13_012A28E7
 BYTE   PATT
  POIN2 Label_13_012A28E7
 BYTE   PATT
  POIN2 Label_13_012A28E7
 BYTE   PATT
  POIN2 Label_13_012A28E7
 BYTE   PATT
  POIN2 Label_13_012A28E7
// 014   ----------------------------------------
 BYTE   VOL   48*SuperSmashBrosMeleeFinalDestinationMrGreen3339_mvl/mxv
 BYTE   N20  En1  v044
 BYTE   W24
 BYTE   N20
 BYTE   W24
 BYTE   N20
 BYTE   W24
 BYTE   N07
 BYTE   W08
 BYTE   En1  v032
 BYTE   W08
 BYTE   N07
 BYTE   W08
// 015   ----------------------------------------
 BYTE   N20  En1  v044
 BYTE   W24
 BYTE   N15
 BYTE   W16
 BYTE   N07  En1  v032
 BYTE   W08
 BYTE   En1  v044
 BYTE   W08
 BYTE   En1  v032
 BYTE   W08
 BYTE   N07
 BYTE   W08
 BYTE   En1  v044
 BYTE   W08
 BYTE   En1  v032
 BYTE   W08
 BYTE   N07
 BYTE   W08
// 016   ----------------------------------------
 BYTE   N15  En1  v044
 BYTE   W16
 BYTE   N07  En1  v032
 BYTE   W08
 BYTE   N15  En1  v044
 BYTE   W16
 BYTE   N07  En1  v032
 BYTE   W08
 BYTE   N15  En1  v044
 BYTE   W16
 BYTE   N07  En1  v032
 BYTE   W08
 BYTE   En1  v044
 BYTE   W08
 BYTE   En1  v032
 BYTE   W08
 BYTE   N07
 BYTE   W08
// 017   ----------------------------------------
 BYTE   N20  En1  v044
 BYTE   W24
 BYTE   N07
 BYTE   W08
 BYTE   En1  v032
 BYTE   W08
 BYTE   N07
 BYTE   W08
 BYTE   En1  v044
 BYTE   W08
 BYTE   N03  En1  v032
 BYTE   W04
 BYTE   N03
 BYTE   W04
 BYTE   N03
 BYTE   W04
 BYTE   N03
 BYTE   W04
 BYTE   N07  En1  v044
 BYTE   W08
 BYTE   En1  v032
 BYTE   W08
 BYTE   N07
 BYTE   W08
// 018   ----------------------------------------
Label_13_012A29AA:
 BYTE   N20  En1  v044
 BYTE   W24
 BYTE   N07
 BYTE   W08
 BYTE   En1  v032
 BYTE   W08
 BYTE   N07
 BYTE   W08
 BYTE   N20  En1  v044
 BYTE   W24
 BYTE   N07
 BYTE   W08
 BYTE   En1  v032
 BYTE   W08
 BYTE   N07
 BYTE   W08
 BYTE   PEND 
// 019   ----------------------------------------
 BYTE   N20  En1  v044
 BYTE   W24
 BYTE   N07
 BYTE   W08
 BYTE   En1  v032
 BYTE   W08
 BYTE   N07
 BYTE   W08
 BYTE   En1  v044
 BYTE   W08
 BYTE   En1  v032
 BYTE   W08
 BYTE   N07
 BYTE   W08
 BYTE   En1  v044
 BYTE   W08
 BYTE   N03  En1  v032
 BYTE   W04
 BYTE   N03
 BYTE   W04
 BYTE   N03
 BYTE   W04
 BYTE   N03
 BYTE   W04
 BYTE   PATT
  POIN2 Label_13_012A29AA
// 020   ----------------------------------------
Label_13_012A29E6:
 BYTE   N20  En1  v044
 BYTE   W24
 BYTE   N07
 BYTE   W08
 BYTE   En1  v032
 BYTE   W08
 BYTE   N07
 BYTE   W08
 BYTE   En1  v044
 BYTE   W08
 BYTE   En1  v032
 BYTE   W08
 BYTE   N07
 BYTE   W08
 BYTE   En1  v044
 BYTE   W08
 BYTE   En1  v032
 BYTE   W08
 BYTE   N07
 BYTE   W08
 BYTE   PEND 
 BYTE   PATT
  POIN2 Label_13_012A29AA
 BYTE   PATT
  POIN2 Label_13_012A29E6
 BYTE   PATT
  POIN2 Label_13_012A29AA
 BYTE   PATT
  POIN2 Label_13_012A29E6
// 021   ----------------------------------------
 BYTE   W96
// 022   ----------------------------------------
Label_13_012A2A17:
 BYTE   N07  En1  v044
 BYTE   W08
 BYTE   En1  v032
 BYTE   W08
 BYTE   N07
 BYTE   W08
 BYTE   En1  v044
 BYTE   W08
 BYTE   En1  v032
 BYTE   W08
 BYTE   N07
 BYTE   W08
 BYTE   En1  v044
 BYTE   W08
 BYTE   En1  v032
 BYTE   W08
 BYTE   N07
 BYTE   W08
 BYTE   En1  v044
 BYTE   W08
 BYTE   En1  v032
 BYTE   W08
 BYTE   N07
 BYTE   W08
 BYTE   PEND 
 BYTE   PATT
  POIN2 Label_13_012A29AA
 BYTE   PATT
  POIN2 Label_13_012A2A17
// 023   ----------------------------------------
 BYTE   N07  En1  v044
 BYTE   W08
 BYTE   En1  v032
 BYTE   W08
 BYTE   N07
 BYTE   W08
 BYTE   En1  v044
 BYTE   W08
 BYTE   En1  v032
 BYTE   W08
 BYTE   N07
 BYTE   W08
 BYTE   En1  v044
 BYTE   W08
 BYTE   En1  v032
 BYTE   W08
 BYTE   N07
 BYTE   W08
 BYTE   GoTo
  POIN2 Label_13_012A277E
 BYTE   FINE

//**************** Track 15 (Midi-Chn.14) ****************//

SuperSmashBrosMeleeFinalDestinationMrGreen3339_015:
// 000   ----------------------------------------
 BYTE   KEYSH   SuperSmashBrosMeleeFinalDestinationMrGreen3339_key+0
Label_14_012A2A66:
 BYTE   VOICE   47
 BYTE   VOL   65*SuperSmashBrosMeleeFinalDestinationMrGreen3339_mvl/mxv
 BYTE   PAN   c_v+0
 BYTE   W24
 BYTE   VOL   65*SuperSmashBrosMeleeFinalDestinationMrGreen3339_mvl/mxv
 BYTE   N11  Gn1  v084
 BYTE   W12
 BYTE   Gn1  v060
 BYTE   W12
 BYTE   N05  Dn1
 BYTE   W06
 BYTE   N05
 BYTE   W06
 BYTE   N05
 BYTE   W06
 BYTE   N05
 BYTE   W06
 BYTE   N11  Gn1  v084
 BYTE   W12
 BYTE   Gn1  v060
 BYTE   W12
// 001   ----------------------------------------
 BYTE   N05
 BYTE   W06
 BYTE   N05
 BYTE   W06
 BYTE   N05
 BYTE   W06
 BYTE   N05
 BYTE   W06
 BYTE   N11  Gn1  v084
 BYTE   W12
 BYTE   Gn1  v060
 BYTE   W12
 BYTE   N05
 BYTE   W06
 BYTE   N05
 BYTE   W06
 BYTE   N05
 BYTE   W06
 BYTE   N05
 BYTE   W06
 BYTE   N11  Gn1  v084
 BYTE   W12
 BYTE   Gn1  v060
 BYTE   W12
// 002   ----------------------------------------
 BYTE   N05
 BYTE   W06
 BYTE   N05
 BYTE   W06
 BYTE   N05
 BYTE   W06
 BYTE   N05
 BYTE   W06
 BYTE   N20  Cn2  v084
 BYTE   W24
 BYTE   N05  Cn2  v060
 BYTE   W06
 BYTE   N05
 BYTE   W06
 BYTE   N05
 BYTE   W06
 BYTE   N05
 BYTE   W06
 BYTE   N42  As1
 BYTE   W48
// 003   ----------------------------------------
 BYTE   N20  Gn1  v084
 BYTE   W24
 BYTE   N20
 BYTE   W24
 BYTE   N42
 BYTE   W48
// 004   ----------------------------------------
Label_14_012A2AC5:
 BYTE   N32  Gn1  v032
 BYTE   W36
 BYTE   N32
 BYTE   W36
 BYTE   N11
 BYTE   W12
 BYTE   N11
 BYTE   W12
 BYTE   PEND 
 BYTE   PATT
  POIN2 Label_14_012A2AC5
 BYTE   PATT
  POIN2 Label_14_012A2AC5
 BYTE   PATT
  POIN2 Label_14_012A2AC5
 BYTE   PATT
  POIN2 Label_14_012A2AC5
 BYTE   PATT
  POIN2 Label_14_012A2AC5
// 005   ----------------------------------------
 BYTE   N32  Ds1  v032
 BYTE   W36
 BYTE   N32
 BYTE   W36
 BYTE   N11
 BYTE   W12
 BYTE   N11
 BYTE   W12
// 006   ----------------------------------------
 BYTE   N32  Dn1
 BYTE   W36
 BYTE   N32
 BYTE   W36
 BYTE   N11
 BYTE   W12
 BYTE   N11
 BYTE   W12
// 007   ----------------------------------------
 BYTE   W24
 BYTE   N07  Ds1  v060
 BYTE   W08
 BYTE   N07
 BYTE   W08
 BYTE   N07
 BYTE   W08
 BYTE   N20
 BYTE   W48
// 008   ----------------------------------------
 BYTE   W24
 BYTE   N07  Fn1
 BYTE   W08
 BYTE   N07
 BYTE   W08
 BYTE   N07
 BYTE   W08
 BYTE   N20
 BYTE   W48
// 009   ----------------------------------------
 BYTE   N32  Bn1
 BYTE   W36
 BYTE   N05
 BYTE   W06
 BYTE   N05
 BYTE   W06
 BYTE   N32  Cs2
 BYTE   W36
 BYTE   N05
 BYTE   W06
 BYTE   N05
 BYTE   W06
// 010   ----------------------------------------
 BYTE   Dn2
 BYTE   W06
 BYTE   N05
 BYTE   W06
 BYTE   N05
 BYTE   W06
 BYTE   N05
 BYTE   W06
 BYTE   N05
 BYTE   W06
 BYTE   N05
 BYTE   W06
 BYTE   N05
 BYTE   W06
 BYTE   N05
 BYTE   W06
 BYTE   N42  Fs1
 BYTE   W48
// 011   ----------------------------------------
Label_14_012A2B32:
 BYTE   N32  As1  v060
 BYTE   W36
 BYTE   N20
 BYTE   W24
 BYTE   N32
 BYTE   W36
 BYTE   PEND 
 BYTE   PATT
  POIN2 Label_14_012A2B32
 BYTE   PATT
  POIN2 Label_14_012A2B32
 BYTE   PATT
  POIN2 Label_14_012A2B32
 BYTE   PATT
  POIN2 Label_14_012A2B32
// 012   ----------------------------------------
 BYTE   N32  Gs1  v060
 BYTE   W36
 BYTE   N20
 BYTE   W24
 BYTE   N32
 BYTE   W36
// 013   ----------------------------------------
 BYTE   Fs1
 BYTE   W36
 BYTE   N20
 BYTE   W24
 BYTE   N32
 BYTE   W36
// 014   ----------------------------------------
 BYTE   Fn1
 BYTE   W36
 BYTE   N20
 BYTE   W24
 BYTE   N32
 BYTE   W36
// 015   ----------------------------------------
 BYTE   N11  Gs1  v084
 BYTE   W12
 BYTE   Gs1  v060
 BYTE   W12
 BYTE   N07
 BYTE   W08
 BYTE   N07
 BYTE   W08
 BYTE   N07
 BYTE   W08
 BYTE   N11  As1  v084
 BYTE   W12
 BYTE   As1  v060
 BYTE   W12
 BYTE   N07
 BYTE   W08
 BYTE   N07
 BYTE   W08
 BYTE   N07
 BYTE   W08
// 016   ----------------------------------------
 BYTE   N20  Dn2
 BYTE   W24
 BYTE   N05
 BYTE   W06
 BYTE   N05
 BYTE   W06
 BYTE   N05
 BYTE   W06
 BYTE   N05
 BYTE   W06
 BYTE   En2
 BYTE   W06
 BYTE   N05
 BYTE   W06
 BYTE   N05
 BYTE   W06
 BYTE   N05
 BYTE   W06
 BYTE   N05
 BYTE   W06
 BYTE   N05
 BYTE   W06
 BYTE   N05
 BYTE   W06
 BYTE   N05
 BYTE   W06
// 017   ----------------------------------------
 BYTE   N20  As1
 BYTE   W24
 BYTE   N05
 BYTE   W06
 BYTE   N05
 BYTE   W06
 BYTE   N05
 BYTE   W06
 BYTE   N05
 BYTE   W06
 BYTE   N07  Fs1
 BYTE   W08
 BYTE   N07
 BYTE   W08
 BYTE   N07
 BYTE   W08
 BYTE   Gs1
 BYTE   W08
 BYTE   N07
 BYTE   W08
 BYTE   N07
 BYTE   W08
// 018   ----------------------------------------
 BYTE   N90  As1
 BYTE   W96
// 019   ----------------------------------------
 BYTE   W96
// 020   ----------------------------------------
 BYTE   W96
// 021   ----------------------------------------
 BYTE   W96
// 022   ----------------------------------------
 BYTE   W96
// 023   ----------------------------------------
 BYTE   W96
// 024   ----------------------------------------
 BYTE   W96
// 025   ----------------------------------------
 BYTE   W96
// 026   ----------------------------------------
 BYTE   W96
// 027   ----------------------------------------
 BYTE   W96
// 028   ----------------------------------------
 BYTE   W96
// 029   ----------------------------------------
 BYTE   N05  En1  v032
 BYTE   W06
 BYTE   N05
 BYTE   W06
 BYTE   En1  v036
 BYTE   W06
 BYTE   N05
 BYTE   W06
 BYTE   En1  v040
 BYTE   W06
 BYTE   En1  v044
 BYTE   W06
 BYTE   En1  v048
 BYTE   W06
 BYTE   N05
 BYTE   W06
 BYTE   En1  v052
 BYTE   W06
 BYTE   En1  v056
 BYTE   W06
 BYTE   En1  v060
 BYTE   W06
 BYTE   N05
 BYTE   W06
 BYTE   En1  v064
 BYTE   W06
 BYTE   En1  v068
 BYTE   W06
 BYTE   En1  v072
 BYTE   W06
 BYTE   N05
 BYTE   W06
// 030   ----------------------------------------
Label_14_012A2BE9:
 BYTE   N15  Cs1  v048
 BYTE   W24
 BYTE   N15
 BYTE   W24
 BYTE   N15
 BYTE   W24
 BYTE   N15
 BYTE   W24
 BYTE   PEND 
 BYTE   PATT
  POIN2 Label_14_012A2BE9
// 031   ----------------------------------------
Label_14_012A2BF9:
 BYTE   N15  Gs1  v048
 BYTE   W24
 BYTE   N15
 BYTE   W24
 BYTE   N15
 BYTE   W24
 BYTE   N15
 BYTE   W24
 BYTE   PEND 
 BYTE   PATT
  POIN2 Label_14_012A2BF9
// 032   ----------------------------------------
 BYTE   N15  Dn1  v048
 BYTE   W24
 BYTE   N15
 BYTE   W24
 BYTE   N15
 BYTE   W24
 BYTE   N15
 BYTE   W24
// 033   ----------------------------------------
Label_14_012A2C13:
 BYTE   N15  Fn1  v048
 BYTE   W24
 BYTE   N15
 BYTE   W24
 BYTE   N15
 BYTE   W24
 BYTE   N15
 BYTE   W24
 BYTE   PEND 
// 034   ----------------------------------------
Label_14_012A2C1E:
 BYTE   N15  En1  v048
 BYTE   W24
 BYTE   N15
 BYTE   W24
 BYTE   N15
 BYTE   W24
 BYTE   N15
 BYTE   W24
 BYTE   PEND 
 BYTE   PATT
  POIN2 Label_14_012A2C1E
 BYTE   PATT
  POIN2 Label_14_012A2C13
// 035   ----------------------------------------
 BYTE   N03  Gs1  v048
 BYTE   W04
 BYTE   N03
 BYTE   W04
 BYTE   N03
 BYTE   W04
 BYTE   N03
 BYTE   W04
 BYTE   N03
 BYTE   W04
 BYTE   N03
 BYTE   W04
 BYTE   N03
 BYTE   W04
 BYTE   N03
 BYTE   W04
 BYTE   N03
 BYTE   W04
 BYTE   N03
 BYTE   W04
 BYTE   N03
 BYTE   W04
 BYTE   N03
 BYTE   W04
 BYTE   N03
 BYTE   W04
 BYTE   N03
 BYTE   W04
 BYTE   N03
 BYTE   W04
 BYTE   N03
 BYTE   W04
 BYTE   N03
 BYTE   W04
 BYTE   N03
 BYTE   W04
 BYTE   N03
 BYTE   W04
 BYTE   N03
 BYTE   W04
 BYTE   N03
 BYTE   W04
 BYTE   N03
 BYTE   W04
 BYTE   N03
 BYTE   W04
 BYTE   N03
 BYTE   W04
// 036   ----------------------------------------
 BYTE   N15  Cn2
 BYTE   W24
 BYTE   N15
 BYTE   W24
 BYTE   N15
 BYTE   W24
 BYTE   N15
 BYTE   W24
// 037   ----------------------------------------
 BYTE   N07  Dn2
 BYTE   W08
 BYTE   N07
 BYTE   W08
 BYTE   N07
 BYTE   W08
 BYTE   N07
 BYTE   W08
 BYTE   N07
 BYTE   W08
 BYTE   N07
 BYTE   W08
 BYTE   N07
 BYTE   W08
 BYTE   N07
 BYTE   W08
 BYTE   N07
 BYTE   W08
 BYTE   N07
 BYTE   W08
 BYTE   N07
 BYTE   W08
 BYTE   N07
 BYTE   W08
// 038   ----------------------------------------
 BYTE   N90
 BYTE   W96
// 039   ----------------------------------------
 BYTE   W96
// 040   ----------------------------------------
 BYTE   W96
// 041   ----------------------------------------
 BYTE   N20  An1
 BYTE   W24
 BYTE   N03
 BYTE   W04
 BYTE   N03
 BYTE   W04
 BYTE   N03
 BYTE   W04
 BYTE   N03
 BYTE   W04
 BYTE   N03
 BYTE   W04
 BYTE   N03
 BYTE   W04
 BYTE   N20
 BYTE   W24
 BYTE   N07
 BYTE   W08
 BYTE   N07
 BYTE   W08
 BYTE   N07
 BYTE   W08
// 042   ----------------------------------------
 BYTE   N20  Dn2
 BYTE   W24
 BYTE   N03
 BYTE   W04
 BYTE   N03
 BYTE   W04
 BYTE   N03
 BYTE   W04
 BYTE   N03
 BYTE   W04
 BYTE   N03
 BYTE   W04
 BYTE   N03
 BYTE   W04
 BYTE   N20
 BYTE   W24
 BYTE   GoTo
  POIN2 Label_14_012A2A66
 BYTE   FINE

//******************************************************//
	ALIGN 4

SuperSmashBrosMeleeFinalDestinationMrGreen3339:
	BYTE	15	// NumTrks
	BYTE	0	// NumBlks
	BYTE	SuperSmashBrosMeleeFinalDestinationMrGreen3339_pri	// Priority
	BYTE	SuperSmashBrosMeleeFinalDestinationMrGreen3339_rev	// Reverb.
    
	POIN2	SuperSmashBrosMeleeFinalDestinationMrGreen3339_grp
    
	POIN2	SuperSmashBrosMeleeFinalDestinationMrGreen3339_001
	POIN2	SuperSmashBrosMeleeFinalDestinationMrGreen3339_002
	POIN2	SuperSmashBrosMeleeFinalDestinationMrGreen3339_003
	POIN2	SuperSmashBrosMeleeFinalDestinationMrGreen3339_004
	POIN2	SuperSmashBrosMeleeFinalDestinationMrGreen3339_005
	POIN2	SuperSmashBrosMeleeFinalDestinationMrGreen3339_006
	POIN2	SuperSmashBrosMeleeFinalDestinationMrGreen3339_007
	POIN2	SuperSmashBrosMeleeFinalDestinationMrGreen3339_008
	POIN2	SuperSmashBrosMeleeFinalDestinationMrGreen3339_009
	POIN2	SuperSmashBrosMeleeFinalDestinationMrGreen3339_010
	POIN2	SuperSmashBrosMeleeFinalDestinationMrGreen3339_011
	POIN2	SuperSmashBrosMeleeFinalDestinationMrGreen3339_012
	POIN2	SuperSmashBrosMeleeFinalDestinationMrGreen3339_013
	POIN2	SuperSmashBrosMeleeFinalDestinationMrGreen3339_014
	POIN2	SuperSmashBrosMeleeFinalDestinationMrGreen3339_015

	
