//Event file generated from Sappy .s format.
	#include "MPlayDef.event"

	#define	SuperSmashBrosMeleeMenuMrGreen3339_grp  voicegroup000
	#define	SuperSmashBrosMeleeMenuMrGreen3339_pri  0
	#define	SuperSmashBrosMeleeMenuMrGreen3339_rev  0
	#define	SuperSmashBrosMeleeMenuMrGreen3339_mvl  127
	#define	SuperSmashBrosMeleeMenuMrGreen3339_key  0
	#define	SuperSmashBrosMeleeMenuMrGreen3339_tbs  1
	#define	SuperSmashBrosMeleeMenuMrGreen3339_exg  0
	#define	SuperSmashBrosMeleeMenuMrGreen3339_cmp  1

	// .rodata
	//	SuperSmashBrosMeleeMenuMrGreen3339
	ALIGN 4


//**************** Track 1 (Midi-Chn.0) ****************//

SuperSmashBrosMeleeMenuMrGreen3339_001:
// 000   ----------------------------------------
 BYTE   KEYSH   SuperSmashBrosMeleeMenuMrGreen3339_key+0
Label_0_01035192:
 BYTE   TEMPO   154*SuperSmashBrosMeleeMenuMrGreen3339_tbs/2
 BYTE   VOICE   48
 BYTE   PAN   c_v-20
 BYTE   VOL   65*SuperSmashBrosMeleeMenuMrGreen3339_mvl/mxv
 BYTE   N06  Bn3  v127
 BYTE   W12
 BYTE   Fs3
 BYTE   W06
 BYTE   Bn3
 BYTE   W06
 BYTE   N24  Fs4
 BYTE   W36
 BYTE   N06  Bn3
 BYTE   W12
 BYTE   Fs4
 BYTE   W12
 BYTE   An4
 BYTE   W12
// 001   ----------------------------------------
Label_0_010351AC:
 BYTE   N06  Gs4  v127
 BYTE   W12
 BYTE   En4
 BYTE   W12
 BYTE   N48  Bn3
 BYTE   W60
 BYTE   N06
 BYTE   W06
 BYTE   Cs4
 BYTE   W06
 BYTE   PEND 
// 002   ----------------------------------------
 BYTE   N48  Dn4
 BYTE   W60
 BYTE   N06  Bn3
 BYTE   W12
 BYTE   Dn4
 BYTE   W12
 BYTE   Fs4
 BYTE   W12
// 003   ----------------------------------------
 BYTE   N80  En4
 BYTE   W72
 BYTE   N03  Bn3  v064
 BYTE   W03
 BYTE   Cs4  v072
 BYTE   W03
 BYTE   Ds4  v080
 BYTE   W03
 BYTE   En4  v088
 BYTE   W03
 BYTE   Fs4  v096
 BYTE   W03
 BYTE   Gs4  v104
 BYTE   W03
 BYTE   An4  v112
 BYTE   W03
 BYTE   As4  v120
 BYTE   W03
// 004   ----------------------------------------
 BYTE   N06  Bn3  v127
 BYTE   N06  Bn4
 BYTE   W12
 BYTE   Fs3
 BYTE   W06
 BYTE   Bn3
 BYTE   W06
 BYTE   N24  Fs4
 BYTE   W36
 BYTE   N06  Bn3
 BYTE   W12
 BYTE   Fs4
 BYTE   W12
 BYTE   An4
 BYTE   W12
 BYTE   PATT
  POIN2 Label_0_010351AC
// 005   ----------------------------------------
 BYTE   TIE  Dn4  v127
 BYTE   W48
 BYTE   VOL   61*SuperSmashBrosMeleeMenuMrGreen3339_mvl/mxv
 BYTE   W06
 BYTE   As2
 BYTE   W06
 BYTE   Gn2
 BYTE   W06
 BYTE   En2
 BYTE   W06
 BYTE   Cs2
 BYTE   W06
 BYTE   As1
 BYTE   W06
 BYTE   Gn1
 BYTE   W06
 BYTE   En1
 BYTE   W06
// 006   ----------------------------------------
 BYTE   Cs1
 BYTE   W06
 BYTE   As0
 BYTE   W06
 BYTE   Gn0
 BYTE   W06
 BYTE   En0
 BYTE   W06
 BYTE   Cs0
 BYTE   W06
 BYTE   AsM1
 BYTE   W06
 BYTE   FsM1
 BYTE   W06
 BYTE   DsM1
 BYTE   W06
 BYTE   CnM1
 BYTE   W06
 BYTE   AnM2
 BYTE   W06
 BYTE   FsM2
 BYTE   W06
 BYTE   DsM2
 BYTE   W06
 BYTE   CnM2
 BYTE   W06
 BYTE   CnM2
 BYTE   W06
 BYTE   EOT
 BYTE   W12
// 007   ----------------------------------------
 BYTE   VOL   65*SuperSmashBrosMeleeMenuMrGreen3339_mvl/mxv
 BYTE   W96
// 008   ----------------------------------------
 BYTE   W96
// 009   ----------------------------------------
 BYTE   W96
// 010   ----------------------------------------
 BYTE   W96
// 011   ----------------------------------------
 BYTE   N06  Bn3
 BYTE   N06  Fs4
 BYTE   N06  Bn4
 BYTE   W96
// 012   ----------------------------------------
 BYTE   W96
// 013   ----------------------------------------
 BYTE   W96
// 014   ----------------------------------------
 BYTE   W36
 BYTE   Dn5  v116
 BYTE   W06
 BYTE   En5
 BYTE   W06
 BYTE   N48  An4
 BYTE   N48  Fs5
 BYTE   W48
// 015   ----------------------------------------
 BYTE   N84  Gn4  v100
 BYTE   N84  Gn5
 BYTE   W84
 BYTE   N06  Fs4
 BYTE   N06  Fs5
 BYTE   W06
 BYTE   Gn4
 BYTE   N06  Gn5
 BYTE   W06
// 016   ----------------------------------------
 BYTE   N84  An4
 BYTE   N84  An5
 BYTE   W84
 BYTE   N06  Gn4
 BYTE   N06  Gn5
 BYTE   W06
 BYTE   An4
 BYTE   N06  An5
 BYTE   W06
// 017   ----------------------------------------
 BYTE   N36  Bn4
 BYTE   N36  Bn5
 BYTE   W36
 BYTE   Dn4
 BYTE   N36  Dn5
 BYTE   W36
 BYTE   N24  Gn4
 BYTE   N24  Gn5
 BYTE   W24
// 018   ----------------------------------------
 BYTE   N16  An2
 BYTE   N72  An4
 BYTE   N72  An5
 BYTE   W16
 BYTE   N16  Cs3
 BYTE   W16
 BYTE   En3
 BYTE   W16
 BYTE   Dn3
 BYTE   W16
 BYTE   Fs3
 BYTE   W16
 BYTE   An3
 BYTE   W16
// 019   ----------------------------------------
 BYTE   N96  As3
 BYTE   N96  Fn4
 BYTE   W96
// 020   ----------------------------------------
 BYTE   Cn4
 BYTE   N96  Gn4
 BYTE   W96
// 021   ----------------------------------------
 BYTE   Dn4
 BYTE   N96  An4
 BYTE   W96
// 022   ----------------------------------------
 BYTE   En4
 BYTE   N96  Cn5
 BYTE   W96
// 023   ----------------------------------------
 BYTE   N06  Bn2  v072
 BYTE   N06  Dn3
 BYTE   N06  Gn3
 BYTE   W36
 BYTE   Bn2
 BYTE   N06  Dn3
 BYTE   N06  Gn3
 BYTE   W36
 BYTE   Bn2
 BYTE   N06  Dn3
 BYTE   N06  Gn3
 BYTE   W24
// 024   ----------------------------------------
Label_0_010352A8:
 BYTE   W12
 BYTE   N06  Cs3  v072
 BYTE   N06  En3
 BYTE   N06  An3
 BYTE   W24
 BYTE   Cs3
 BYTE   N06  En3
 BYTE   N06  An3
 BYTE   W24
 BYTE   Cs3
 BYTE   N06  En3
 BYTE   N06  An3
 BYTE   W36
 BYTE   PEND 
// 025   ----------------------------------------
 BYTE   Bn2
 BYTE   N06  En3
 BYTE   N06  Gn3
 BYTE   W36
 BYTE   Bn2
 BYTE   N06  En3
 BYTE   N06  Gn3
 BYTE   W36
 BYTE   Bn2
 BYTE   N06  En3
 BYTE   N06  Gn3
 BYTE   W24
 BYTE   PATT
  POIN2 Label_0_010352A8
// 026   ----------------------------------------
 BYTE   N06  Ds3  v072
 BYTE   N06  Gn3
 BYTE   N06  As3
 BYTE   W36
 BYTE   Ds3
 BYTE   N06  Gn3
 BYTE   N06  As3
 BYTE   W36
 BYTE   Ds3
 BYTE   N06  Gn3
 BYTE   N06  As3
 BYTE   W24
// 027   ----------------------------------------
 BYTE   W12
 BYTE   Fn3
 BYTE   N06  An3
 BYTE   N06  Cn4
 BYTE   W24
 BYTE   Fn3
 BYTE   N06  An3
 BYTE   N06  Cn4
 BYTE   W24
 BYTE   Fn3
 BYTE   N06  An3
 BYTE   N06  Cn4
 BYTE   W36
// 028   ----------------------------------------
 BYTE   N48  Bn3  v112
 BYTE   N48  Dn4
 BYTE   W48
 BYTE   N16  Bn3
 BYTE   N16  Dn4
 BYTE   W16
 BYTE   Bn3
 BYTE   N16  Cs4
 BYTE   W16
 BYTE   Bn3
 BYTE   N16  Dn4
 BYTE   W16
// 029   ----------------------------------------
 BYTE   N84  Cn4
 BYTE   N84  En4
 BYTE   W96
// 030   ----------------------------------------
 BYTE   GoTo
  POIN2 Label_0_01035192
 BYTE   FINE

//**************** Track 2 (Midi-Chn.1) ****************//

SuperSmashBrosMeleeMenuMrGreen3339_002:
// 000   ----------------------------------------
 BYTE   KEYSH   SuperSmashBrosMeleeMenuMrGreen3339_key+0
Label_1_0103531E:
 BYTE   VOICE   35
 BYTE   VOL   65*SuperSmashBrosMeleeMenuMrGreen3339_mvl/mxv
 BYTE   N12  Bn0  v100
 BYTE   W36
 BYTE   Bn1
 BYTE   W36
 BYTE   Bn0
 BYTE   W24
// 001   ----------------------------------------
Label_1_0103532A:
 BYTE   W12
 BYTE   N12  Bn0  v100
 BYTE   W24
 BYTE   Bn1
 BYTE   W24
 BYTE   Bn0
 BYTE   W36
 BYTE   PEND 
// 002   ----------------------------------------
Label_1_01035334:
 BYTE   N12  Bn0  v100
 BYTE   W36
 BYTE   Bn1
 BYTE   W36
 BYTE   Bn0
 BYTE   W24
 BYTE   PEND 
// 003   ----------------------------------------
Label_1_0103533D:
 BYTE   W12
 BYTE   N12  An0  v100
 BYTE   W24
 BYTE   An1
 BYTE   W24
 BYTE   An0
 BYTE   W36
 BYTE   PEND 
 BYTE   PATT
  POIN2 Label_1_01035334
// 004   ----------------------------------------
Label_1_0103534C:
 BYTE   W12
 BYTE   N12  En1  v100
 BYTE   W24
 BYTE   Bn0
 BYTE   W24
 BYTE   En1
 BYTE   W24
 BYTE   N09  Dn1
 BYTE   W12
 BYTE   PEND 
// 005   ----------------------------------------
Label_1_01035359:
 BYTE   N12  Cn1  v100
 BYTE   W36
 BYTE   Cn0
 BYTE   W36
 BYTE   Cn1
 BYTE   W24
 BYTE   PEND 
// 006   ----------------------------------------
Label_1_01035362:
 BYTE   W12
 BYTE   N12  Cn0  v100
 BYTE   W24
 BYTE   Cn1
 BYTE   W24
 BYTE   Cn0
 BYTE   W36
 BYTE   PEND 
 BYTE   PATT
  POIN2 Label_1_01035334
 BYTE   PATT
  POIN2 Label_1_0103532A
 BYTE   PATT
  POIN2 Label_1_01035334
 BYTE   PATT
  POIN2 Label_1_0103533D
 BYTE   PATT
  POIN2 Label_1_01035334
 BYTE   PATT
  POIN2 Label_1_0103534C
 BYTE   PATT
  POIN2 Label_1_01035359
 BYTE   PATT
  POIN2 Label_1_01035362
// 007   ----------------------------------------
Label_1_01035394:
 BYTE   N12  Gn0  v060
 BYTE   W36
 BYTE   N12
 BYTE   W36
 BYTE   N12
 BYTE   W24
 BYTE   PEND 
// 008   ----------------------------------------
 BYTE   W12
 BYTE   An0
 BYTE   W24
 BYTE   N12
 BYTE   W24
 BYTE   N12
 BYTE   W36
 BYTE   PATT
  POIN2 Label_1_01035394
// 009   ----------------------------------------
 BYTE   N12  An0  v060
 BYTE   W36
 BYTE   N12
 BYTE   W36
 BYTE   N12
 BYTE   W24
// 010   ----------------------------------------
Label_1_010353B1:
 BYTE   N12  As0  v060
 BYTE   W36
 BYTE   N12
 BYTE   W36
 BYTE   N12
 BYTE   W24
 BYTE   PEND 
// 011   ----------------------------------------
Label_1_010353BA:
 BYTE   W12
 BYTE   N12  Cn1  v060
 BYTE   W24
 BYTE   N12
 BYTE   W24
 BYTE   N12
 BYTE   W36
 BYTE   PEND 
 BYTE   PATT
  POIN2 Label_1_010353B1
 BYTE   PATT
  POIN2 Label_1_010353BA
// 012   ----------------------------------------
 BYTE   W96
// 013   ----------------------------------------
 BYTE   W96
// 014   ----------------------------------------
 BYTE   W96
// 015   ----------------------------------------
 BYTE   W96
// 016   ----------------------------------------
 BYTE   N12  Ds0  v100
 BYTE   W36
 BYTE   N12
 BYTE   W36
 BYTE   N12
 BYTE   W24
// 017   ----------------------------------------
 BYTE   W12
 BYTE   Fn0
 BYTE   W24
 BYTE   N12
 BYTE   W24
 BYTE   N12
 BYTE   W36
// 018   ----------------------------------------
 BYTE   W24
 BYTE   N72  Dn0
 BYTE   W72
// 019   ----------------------------------------
 BYTE   N84  Fs0
 BYTE   W96
// 020   ----------------------------------------
 BYTE   GoTo
  POIN2 Label_1_0103531E
 BYTE   FINE

//**************** Track 3 (Midi-Chn.2) ****************//

SuperSmashBrosMeleeMenuMrGreen3339_003:
// 000   ----------------------------------------
 BYTE   KEYSH   SuperSmashBrosMeleeMenuMrGreen3339_key+0
Label_2_010353F2:
 BYTE   VOICE   42
 BYTE   VOL   65*SuperSmashBrosMeleeMenuMrGreen3339_mvl/mxv
 BYTE   N06  Bn2  v080
 BYTE   W36
 BYTE   N06
 BYTE   W24
 BYTE   Dn3
 BYTE   W12
 BYTE   Bn2
 BYTE   W24
// 001   ----------------------------------------
Label_2_01035400:
 BYTE   W12
 BYTE   N06  Bn2  v080
 BYTE   W24
 BYTE   N06
 BYTE   W24
 BYTE   N06
 BYTE   W36
 BYTE   PEND 
// 002   ----------------------------------------
Label_2_0103540A:
 BYTE   N06  Bn2  v080
 BYTE   W36
 BYTE   N06
 BYTE   W24
 BYTE   Dn3
 BYTE   W12
 BYTE   Bn2
 BYTE   W24
 BYTE   PEND 
// 003   ----------------------------------------
Label_2_01035415:
 BYTE   W12
 BYTE   N06  Cs3  v080
 BYTE   W24
 BYTE   N06
 BYTE   W24
 BYTE   N06
 BYTE   W36
 BYTE   PEND 
 BYTE   PATT
  POIN2 Label_2_0103540A
 BYTE   PATT
  POIN2 Label_2_01035400
// 004   ----------------------------------------
Label_2_01035429:
 BYTE   N06  Cn3  v080
 BYTE   W36
 BYTE   N06
 BYTE   W24
 BYTE   Dn3
 BYTE   W12
 BYTE   Cn3
 BYTE   W24
 BYTE   PEND 
// 005   ----------------------------------------
Label_2_01035434:
 BYTE   W12
 BYTE   N06  Cn3  v080
 BYTE   W24
 BYTE   N06
 BYTE   W24
 BYTE   N06
 BYTE   W36
 BYTE   PEND 
 BYTE   PATT
  POIN2 Label_2_0103540A
 BYTE   PATT
  POIN2 Label_2_01035400
 BYTE   PATT
  POIN2 Label_2_0103540A
 BYTE   PATT
  POIN2 Label_2_01035415
 BYTE   PATT
  POIN2 Label_2_0103540A
 BYTE   PATT
  POIN2 Label_2_01035400
 BYTE   PATT
  POIN2 Label_2_01035429
 BYTE   PATT
  POIN2 Label_2_01035434
// 006   ----------------------------------------
 BYTE   W96
// 007   ----------------------------------------
 BYTE   W96
// 008   ----------------------------------------
 BYTE   W96
// 009   ----------------------------------------
 BYTE   W96
// 010   ----------------------------------------
 BYTE   W96
// 011   ----------------------------------------
 BYTE   W96
// 012   ----------------------------------------
 BYTE   W96
// 013   ----------------------------------------
 BYTE   W96
// 014   ----------------------------------------
 BYTE   W96
// 015   ----------------------------------------
 BYTE   W96
// 016   ----------------------------------------
 BYTE   W96
// 017   ----------------------------------------
 BYTE   W96
// 018   ----------------------------------------
 BYTE   W96
// 019   ----------------------------------------
 BYTE   W96
// 020   ----------------------------------------
 BYTE   W96
// 021   ----------------------------------------
 BYTE   W96
// 022   ----------------------------------------
 BYTE   GoTo
  POIN2 Label_2_010353F2
 BYTE   FINE

//**************** Track 4 (Midi-Chn.3) ****************//

SuperSmashBrosMeleeMenuMrGreen3339_004:
// 000   ----------------------------------------
 BYTE   KEYSH   SuperSmashBrosMeleeMenuMrGreen3339_key+0
Label_3_0103547E:
 BYTE   VOICE   56
 BYTE   VOL   65*SuperSmashBrosMeleeMenuMrGreen3339_mvl/mxv
 BYTE   W96
// 001   ----------------------------------------
 BYTE   W96
// 002   ----------------------------------------
 BYTE   W96
// 003   ----------------------------------------
 BYTE   W96
// 004   ----------------------------------------
 BYTE   W96
// 005   ----------------------------------------
 BYTE   W96
// 006   ----------------------------------------
 BYTE   W48
 BYTE   N16  Gn2  v100
 BYTE   W16
 BYTE   Dn3
 BYTE   W16
 BYTE   Bn2
 BYTE   W16
// 007   ----------------------------------------
 BYTE   VOL   51*SuperSmashBrosMeleeMenuMrGreen3339_mvl/mxv
 BYTE   N96  Fs2  v127
 BYTE   N96  An2
 BYTE   N96  Dn3
 BYTE   N96  Fs3
 BYTE   W03
 BYTE   VOL   46*SuperSmashBrosMeleeMenuMrGreen3339_mvl/mxv
 BYTE   W03
 BYTE   En1
 BYTE   W03
 BYTE   Bn0
 BYTE   W03
 BYTE   Fs0
 BYTE   W03
 BYTE   Cs0
 BYTE   W03
 BYTE   GsM1
 BYTE   W03
 BYTE   BnM1
 BYTE   W03
 BYTE   Cs0
 BYTE   W03
 BYTE   Dn0
 BYTE   W03
 BYTE   Ds0
 BYTE   W03
 BYTE   En0
 BYTE   W03
 BYTE   Fn0
 BYTE   W03
 BYTE   Fs0
 BYTE   W03
 BYTE   Gn0
 BYTE   W03
 BYTE   An0
 BYTE   W03
 BYTE   As0
 BYTE   W03
 BYTE   Cn1
 BYTE   W03
 BYTE   Cs1
 BYTE   W03
 BYTE   Ds1
 BYTE   W03
 BYTE   Fn1
 BYTE   W03
 BYTE   Gn1
 BYTE   W03
 BYTE   An1
 BYTE   W03
 BYTE   Bn1
 BYTE   W03
 BYTE   Cs2
 BYTE   W03
 BYTE   En2
 BYTE   W03
 BYTE   Fs2
 BYTE   W03
 BYTE   An2
 BYTE   W03
 BYTE   Bn2
 BYTE   W03
 BYTE   Dn3
 BYTE   W03
 BYTE   Fn3
 BYTE   W03
 BYTE   Fn3
 BYTE   W03
// 008   ----------------------------------------
 BYTE   W96
// 009   ----------------------------------------
 BYTE   W96
// 010   ----------------------------------------
 BYTE   W96
// 011   ----------------------------------------
 BYTE   W96
// 012   ----------------------------------------
 BYTE   N06  Bn4  v100
 BYTE   W96
// 013   ----------------------------------------
 BYTE   W96
// 014   ----------------------------------------
 BYTE   W84
 BYTE   Gn4  v112
 BYTE   W06
 BYTE   An4
 BYTE   W06
// 015   ----------------------------------------
 BYTE   N96  En4
 BYTE   N96  Bn4
 BYTE   W96
// 016   ----------------------------------------
 BYTE   N06  Dn4  v127
 BYTE   W12
 BYTE   Bn3
 BYTE   W06
 BYTE   Dn4
 BYTE   W06
 BYTE   N36  Gn4
 BYTE   W36
 BYTE   N09  Fs4
 BYTE   W12
 BYTE   En4
 BYTE   W12
 BYTE   Dn4
 BYTE   W12
// 017   ----------------------------------------
 BYTE   N12
 BYTE   W24
 BYTE   N44  Cs4
 BYTE   W48
 BYTE   N24  An3
 BYTE   W24
// 018   ----------------------------------------
 BYTE   N36  Bn3
 BYTE   W36
 BYTE   N06  Dn4
 BYTE   W12
 BYTE   N16  Gn4
 BYTE   W16
 BYTE   Fs4
 BYTE   W16
 BYTE   En4
 BYTE   W16
// 019   ----------------------------------------
 BYTE   N96  An4
 BYTE   W24
 BYTE   VOL   62*SuperSmashBrosMeleeMenuMrGreen3339_mvl/mxv
 BYTE   W03
 BYTE   Bn2
 BYTE   W03
 BYTE   An2
 BYTE   W03
 BYTE   Fs2
 BYTE   W03
 BYTE   En2
 BYTE   W03
 BYTE   Cs2
 BYTE   W03
 BYTE   Bn1
 BYTE   W03
 BYTE   Gs1
 BYTE   W03
 BYTE   Fn1
 BYTE   W03
 BYTE   Ds1
 BYTE   W03
 BYTE   Cn1
 BYTE   W03
 BYTE   As0
 BYTE   W03
 BYTE   Gn0
 BYTE   W03
 BYTE   Fn0
 BYTE   W03
 BYTE   Dn0
 BYTE   W03
 BYTE   Cn0
 BYTE   W03
 BYTE   AnM1
 BYTE   W03
 BYTE   FsM1
 BYTE   W03
 BYTE   EnM1
 BYTE   W03
 BYTE   CsM1
 BYTE   W03
 BYTE   BnM2
 BYTE   W03
 BYTE   GsM2
 BYTE   W03
 BYTE   FsM2
 BYTE   W03
 BYTE   DsM2
 BYTE   W03
// 020   ----------------------------------------
 BYTE   CsM2
 BYTE   W96
// 021   ----------------------------------------
 BYTE   Fn3
 BYTE   W96
// 022   ----------------------------------------
 BYTE   N48  Dn3  v100
 BYTE   N48  An3
 BYTE   W48
 BYTE   N16  Dn3
 BYTE   N16  An3
 BYTE   W16
 BYTE   En3
 BYTE   N16  Cn4
 BYTE   W16
 BYTE   Fn3  v108
 BYTE   N16  Dn4
 BYTE   W16
// 023   ----------------------------------------
 BYTE   N96  En3  v112
 BYTE   N96  Cn4
 BYTE   W96
// 024   ----------------------------------------
 BYTE   W96
// 025   ----------------------------------------
 BYTE   W96
// 026   ----------------------------------------
 BYTE   W96
// 027   ----------------------------------------
 BYTE   W96
// 028   ----------------------------------------
 BYTE   N06  Gn4
 BYTE   W12
 BYTE   Dn4
 BYTE   W06
 BYTE   Gn4
 BYTE   W06
 BYTE   N30  Dn5
 BYTE   W36
 BYTE   N06  Cn5
 BYTE   W12
 BYTE   As4
 BYTE   W12
 BYTE   An4
 BYTE   W12
// 029   ----------------------------------------
 BYTE   Gn4
 BYTE   W24
 BYTE   N48  Fn4
 BYTE   W48
 BYTE   N24  Cn4
 BYTE   W24
// 030   ----------------------------------------
 BYTE   N48  Dn4
 BYTE   W48
 BYTE   N16
 BYTE   W16
 BYTE   Cs4
 BYTE   W16
 BYTE   Dn4
 BYTE   W16
// 031   ----------------------------------------
 BYTE   N84  En4
 BYTE   W96
// 032   ----------------------------------------
 BYTE   GoTo
  POIN2 Label_3_0103547E
 BYTE   FINE

//**************** Track 5 (Midi-Chn.4) ****************//

SuperSmashBrosMeleeMenuMrGreen3339_005:
// 000   ----------------------------------------
 BYTE   KEYSH   SuperSmashBrosMeleeMenuMrGreen3339_key+0
Label_4_0103559A:
 BYTE   VOICE   57
 BYTE   PAN   c_v-32
 BYTE   VOL   65*SuperSmashBrosMeleeMenuMrGreen3339_mvl/mxv
 BYTE   N09  Bn2  v040
 BYTE   W36
 BYTE   N09
 BYTE   W36
 BYTE   N09
 BYTE   W24
// 001   ----------------------------------------
Label_4_010355A8:
 BYTE   W12
 BYTE   N09  Bn2  v040
 BYTE   W24
 BYTE   N09
 BYTE   W24
 BYTE   N09
 BYTE   W36
 BYTE   PEND 
// 002   ----------------------------------------
Label_4_010355B2:
 BYTE   N09  Gn2  v040
 BYTE   W36
 BYTE   N09
 BYTE   W36
 BYTE   N09
 BYTE   W24
 BYTE   PEND 
// 003   ----------------------------------------
Label_4_010355BB:
 BYTE   W12
 BYTE   N09  An2  v040
 BYTE   W24
 BYTE   N09
 BYTE   W24
 BYTE   N09
 BYTE   W36
 BYTE   PEND 
// 004   ----------------------------------------
Label_4_010355C5:
 BYTE   N09  Bn2  v040
 BYTE   W36
 BYTE   N09
 BYTE   W36
 BYTE   N09
 BYTE   W24
 BYTE   PEND 
 BYTE   PATT
  POIN2 Label_4_010355A8
// 005   ----------------------------------------
 BYTE   N09  Gn2  v040
 BYTE   W24
 BYTE   N24  En2  v127
 BYTE   W12
 BYTE   N09  Gn2  v040
 BYTE   W36
 BYTE   N09
 BYTE   W24
// 006   ----------------------------------------
Label_4_010355E1:
 BYTE   W12
 BYTE   N09  Gn2  v040
 BYTE   W24
 BYTE   N09
 BYTE   W24
 BYTE   N09
 BYTE   W36
 BYTE   PEND 
 BYTE   PATT
  POIN2 Label_4_010355C5
 BYTE   PATT
  POIN2 Label_4_010355A8
 BYTE   PATT
  POIN2 Label_4_010355B2
 BYTE   PATT
  POIN2 Label_4_010355BB
 BYTE   PATT
  POIN2 Label_4_010355C5
 BYTE   PATT
  POIN2 Label_4_010355A8
// 007   ----------------------------------------
 BYTE   N09  Gn2  v040
 BYTE   W36
 BYTE   N09
 BYTE   N06  An2  v100
 BYTE   W06
 BYTE   Bn2
 BYTE   W06
 BYTE   TIE  Cn3
 BYTE   TIE  Gn3
 BYTE   W24
 BYTE   N09  Gn2  v040
 BYTE   W24
 BYTE   PATT
  POIN2 Label_4_010355E1
// 008   ----------------------------------------
 BYTE   EOT
 BYTE   Cn3  v067
 BYTE   W96
// 009   ----------------------------------------
 BYTE   W96
// 010   ----------------------------------------
 BYTE   W96
// 011   ----------------------------------------
 BYTE   W96
// 012   ----------------------------------------
 BYTE   W96
// 013   ----------------------------------------
 BYTE   W96
// 014   ----------------------------------------
 BYTE   W96
// 015   ----------------------------------------
 BYTE   W96
// 016   ----------------------------------------
Label_4_0103562D:
 BYTE   N12  Gn0  v060
 BYTE   N12  Gn1
 BYTE   W36
 BYTE   Gn0
 BYTE   N12  Gn1
 BYTE   W36
 BYTE   Gn0
 BYTE   N12  Gn1
 BYTE   W24
 BYTE   PEND 
// 017   ----------------------------------------
Label_4_0103563C:
 BYTE   W12
 BYTE   N12  An0  v060
 BYTE   N12  An1
 BYTE   W24
 BYTE   An0
 BYTE   N12  An1
 BYTE   W24
 BYTE   An0
 BYTE   N12  An1
 BYTE   W36
 BYTE   PEND 
 BYTE   PATT
  POIN2 Label_4_0103562D
 BYTE   PATT
  POIN2 Label_4_0103563C
// 018   ----------------------------------------
 BYTE   N12  Ds0  v072
 BYTE   N12  Ds1
 BYTE   W36
 BYTE   Ds0
 BYTE   N12  Ds1
 BYTE   W36
 BYTE   Ds0
 BYTE   N12  Ds1
 BYTE   W24
// 019   ----------------------------------------
 BYTE   W12
 BYTE   Fn0  v080
 BYTE   N12  Fn1
 BYTE   W24
 BYTE   Fn0
 BYTE   N12  Fn1
 BYTE   W24
 BYTE   Fn0
 BYTE   N12  Fn1
 BYTE   W36
// 020   ----------------------------------------
 BYTE   N96  Dn1  v092
 BYTE   N48  Dn3
 BYTE   W48
 BYTE   N16
 BYTE   W16
 BYTE   Cs3
 BYTE   W16
 BYTE   Dn3
 BYTE   W16
// 021   ----------------------------------------
 BYTE   N84  Fs1  v100
 BYTE   N84  En3
 BYTE   W96
// 022   ----------------------------------------
 BYTE   GoTo
  POIN2 Label_4_0103559A
 BYTE   FINE

//**************** Track 6 (Midi-Chn.5) ****************//

SuperSmashBrosMeleeMenuMrGreen3339_006:
// 000   ----------------------------------------
 BYTE   KEYSH   SuperSmashBrosMeleeMenuMrGreen3339_key+0
Label_5_0103568E:
 BYTE   VOICE   60
 BYTE   PAN   c_v+31
 BYTE   VOL   65*SuperSmashBrosMeleeMenuMrGreen3339_mvl/mxv
 BYTE   W96
// 001   ----------------------------------------
 BYTE   W96
// 002   ----------------------------------------
 BYTE   W96
// 003   ----------------------------------------
 BYTE   W96
// 004   ----------------------------------------
 BYTE   W96
// 005   ----------------------------------------
 BYTE   W96
// 006   ----------------------------------------
 BYTE   W96
// 007   ----------------------------------------
 BYTE   W96
// 008   ----------------------------------------
Label_5_0103569C:
 BYTE   N06  Bn2  v127
 BYTE   W12
 BYTE   Fs2
 BYTE   W06
 BYTE   Bn2
 BYTE   W06
 BYTE   N24  Fs3
 BYTE   W36
 BYTE   N06  Bn2
 BYTE   W12
 BYTE   Fs3
 BYTE   W12
 BYTE   An3
 BYTE   W12
 BYTE   PEND 
// 009   ----------------------------------------
Label_5_010356AF:
 BYTE   N06  Gs3  v127
 BYTE   W12
 BYTE   En3
 BYTE   W12
 BYTE   N48  Bn2
 BYTE   W60
 BYTE   N06
 BYTE   W06
 BYTE   Cs3
 BYTE   W06
 BYTE   PEND 
// 010   ----------------------------------------
 BYTE   N48  Dn3
 BYTE   W60
 BYTE   N06  Bn2
 BYTE   W12
 BYTE   Dn3
 BYTE   W12
 BYTE   Fs3
 BYTE   W12
// 011   ----------------------------------------
 BYTE   N96  En3
 BYTE   W96
 BYTE   PATT
  POIN2 Label_5_0103569C
 BYTE   PATT
  POIN2 Label_5_010356AF
// 012   ----------------------------------------
 BYTE   TIE  Dn3  v127
 BYTE   W96
// 013   ----------------------------------------
 BYTE   W84
 BYTE   EOT
 BYTE   W12
// 014   ----------------------------------------
 BYTE   N96  Bn2  v072
 BYTE   N96  Dn3
 BYTE   W96
// 015   ----------------------------------------
 BYTE   Cs3
 BYTE   N96  En3
 BYTE   W96
// 016   ----------------------------------------
 BYTE   Bn2
 BYTE   N96  Dn3
 BYTE   W96
// 017   ----------------------------------------
 BYTE   Cs3
 BYTE   N96  En3
 BYTE   W96
// 018   ----------------------------------------
 BYTE   N06  As2  v100
 BYTE   W12
 BYTE   N04
 BYTE   W04
 BYTE   Dn3
 BYTE   W04
 BYTE   Fn3
 BYTE   W04
 BYTE   N30  As3
 BYTE   W36
 BYTE   N09  An3
 BYTE   W12
 BYTE   Gn3
 BYTE   W12
 BYTE   Fn3
 BYTE   W12
// 019   ----------------------------------------
 BYTE   N06
 BYTE   W12
 BYTE   En3
 BYTE   W12
 BYTE   N36
 BYTE   W48
 BYTE   N18  Cn3
 BYTE   W24
// 020   ----------------------------------------
 BYTE   N44  Fn3  v108
 BYTE   W48
 BYTE   N15  Fn3  v112
 BYTE   W16
 BYTE   Gn3  v116
 BYTE   W16
 BYTE   An3  v120
 BYTE   W16
// 021   ----------------------------------------
 BYTE   N96  Gn3  v127
 BYTE   W96
// 022   ----------------------------------------
 BYTE   Bn2  v080
 BYTE   N96  Dn3
 BYTE   W96
// 023   ----------------------------------------
 BYTE   Cs3
 BYTE   N96  En3
 BYTE   W96
// 024   ----------------------------------------
 BYTE   Bn2
 BYTE   N96  Dn3
 BYTE   W96
// 025   ----------------------------------------
 BYTE   Cs3
 BYTE   N96  En3
 BYTE   W96
// 026   ----------------------------------------
 BYTE   W24
 BYTE   N12  Gn3  v100
 BYTE   W24
 BYTE   N48  Dn4  v120
 BYTE   W48
// 027   ----------------------------------------
 BYTE   W96
// 028   ----------------------------------------
 BYTE   W96
// 029   ----------------------------------------
 BYTE   N09  Fs2  v072
 BYTE   W24
 BYTE   N06
 BYTE   W08
 BYTE   N06
 BYTE   W08
 BYTE   N06
 BYTE   W08
 BYTE   N09
 BYTE   W24
 BYTE   N09
 BYTE   W24
// 030   ----------------------------------------
 BYTE   GoTo
  POIN2 Label_5_0103568E
 BYTE   FINE

//**************** Track 7 (Midi-Chn.6) ****************//

SuperSmashBrosMeleeMenuMrGreen3339_007:
// 000   ----------------------------------------
 BYTE   KEYSH   SuperSmashBrosMeleeMenuMrGreen3339_key+0
Label_6_0103574E:
 BYTE   VOICE   47
 BYTE   VOL   65*SuperSmashBrosMeleeMenuMrGreen3339_mvl/mxv
 BYTE   N12  Bn1  v100
 BYTE   W36
 BYTE   N12
 BYTE   W36
 BYTE   N12
 BYTE   W24
// 001   ----------------------------------------
Label_6_0103575A:
 BYTE   W12
 BYTE   N12  Bn1  v100
 BYTE   W24
 BYTE   N12
 BYTE   W24
 BYTE   N12
 BYTE   W36
 BYTE   PEND 
// 002   ----------------------------------------
Label_6_01035764:
 BYTE   N12  Bn1  v100
 BYTE   W36
 BYTE   N12
 BYTE   W36
 BYTE   N12
 BYTE   W24
 BYTE   PEND 
// 003   ----------------------------------------
 BYTE   W12
 BYTE   Bn1  v092
 BYTE   W24
 BYTE   Bn1  v104
 BYTE   W24
 BYTE   Bn1  v112
 BYTE   W24
 BYTE   Fs1  v124
 BYTE   W12
// 004   ----------------------------------------
Label_6_0103577A:
 BYTE   N12  Bn1  v127
 BYTE   W36
 BYTE   Bn1  v100
 BYTE   W36
 BYTE   N12
 BYTE   W24
 BYTE   PEND 
 BYTE   PATT
  POIN2 Label_6_0103575A
// 005   ----------------------------------------
 BYTE   N12  Cn2  v100
 BYTE   W36
 BYTE   N12
 BYTE   W36
 BYTE   N12
 BYTE   W24
// 006   ----------------------------------------
 BYTE   W12
 BYTE   N12
 BYTE   W24
 BYTE   N12
 BYTE   W24
 BYTE   N12
 BYTE   W36
 BYTE   PATT
  POIN2 Label_6_01035764
 BYTE   PATT
  POIN2 Label_6_0103575A
 BYTE   PATT
  POIN2 Label_6_01035764
// 007   ----------------------------------------
 BYTE   W12
 BYTE   N12  Fs1  v100
 BYTE   W24
 BYTE   Fs1  v108
 BYTE   W24
 BYTE   Fs1  v120
 BYTE   W36
 BYTE   PATT
  POIN2 Label_6_0103577A
 BYTE   PATT
  POIN2 Label_6_0103575A
// 008   ----------------------------------------
 BYTE   N12  Cn2  v100
 BYTE   W36
 BYTE   N12
 BYTE   W36
 BYTE   N12
 BYTE   W12
 BYTE   Gn1
 BYTE   W12
// 009   ----------------------------------------
 BYTE   N12
 BYTE   W12
 BYTE   N24  Cn2
 BYTE   W24
 BYTE   N24
 BYTE   W24
 BYTE   N36
 BYTE   W36
// 010   ----------------------------------------
Label_6_010357CF:
 BYTE   N12  Gn1  v100
 BYTE   W36
 BYTE   N12
 BYTE   W36
 BYTE   N12
 BYTE   W24
 BYTE   PEND 
// 011   ----------------------------------------
Label_6_010357D8:
 BYTE   W12
 BYTE   N12  An1  v100
 BYTE   W24
 BYTE   N12
 BYTE   W24
 BYTE   N12
 BYTE   W36
 BYTE   PEND 
 BYTE   PATT
  POIN2 Label_6_010357CF
 BYTE   PATT
  POIN2 Label_6_010357D8
// 012   ----------------------------------------
Label_6_010357EC:
 BYTE   N96  Gn1  v100
 BYTE   N12  As1
 BYTE   W36
 BYTE   N12
 BYTE   W36
 BYTE   N12
 BYTE   W24
 BYTE   PEND 
// 013   ----------------------------------------
 BYTE   N96  An1
 BYTE   W12
 BYTE   N12  Cn2
 BYTE   W24
 BYTE   N12
 BYTE   W24
 BYTE   N12
 BYTE   W36
 BYTE   PATT
  POIN2 Label_6_010357EC
// 014   ----------------------------------------
 BYTE   N04  Cn2  v092
 BYTE   W04
 BYTE   N04
 BYTE   W05
 BYTE   Cn2  v096
 BYTE   W05
 BYTE   N04
 BYTE   W05
 BYTE   Cn2  v100
 BYTE   W05
 BYTE   N04
 BYTE   W04
 BYTE   Cn2  v104
 BYTE   W05
 BYTE   N04
 BYTE   W05
 BYTE   Cn2  v108
 BYTE   W05
 BYTE   N04
 BYTE   W05
 BYTE   Cn2  v112
 BYTE   W04
 BYTE   N04
 BYTE   W05
 BYTE   Cn2  v116
 BYTE   W05
 BYTE   N04
 BYTE   W05
 BYTE   Cn2  v120
 BYTE   W05
 BYTE   N04
 BYTE   W04
 BYTE   Cn2  v124
 BYTE   W05
 BYTE   N04
 BYTE   W05
 BYTE   Cn2  v127
 BYTE   W05
 BYTE   N04
 BYTE   W05
// 015   ----------------------------------------
 BYTE   W96
// 016   ----------------------------------------
 BYTE   W96
// 017   ----------------------------------------
 BYTE   W96
// 018   ----------------------------------------
 BYTE   W96
// 019   ----------------------------------------
 BYTE   N12  Ds1  v100
 BYTE   W36
 BYTE   N12
 BYTE   W36
 BYTE   N12
 BYTE   W24
// 020   ----------------------------------------
 BYTE   W12
 BYTE   Fn1
 BYTE   W24
 BYTE   N12
 BYTE   W24
 BYTE   N12
 BYTE   W36
// 021   ----------------------------------------
 BYTE   Dn2
 BYTE   W24
 BYTE   Dn1
 BYTE   W24
 BYTE   N16  Dn2
 BYTE   W16
 BYTE   N16
 BYTE   W16
 BYTE   N16
 BYTE   W16
// 022   ----------------------------------------
 BYTE   N96  Fs1
 BYTE   W96
// 023   ----------------------------------------
 BYTE   GoTo
  POIN2 Label_6_0103574E
 BYTE   FINE

//**************** Track 8 (Midi-Chn.7) ****************//

SuperSmashBrosMeleeMenuMrGreen3339_008:
// 000   ----------------------------------------
 BYTE   KEYSH   SuperSmashBrosMeleeMenuMrGreen3339_key+0
Label_7_01035862:
 BYTE   VOICE   61
 BYTE   VOL   65*SuperSmashBrosMeleeMenuMrGreen3339_mvl/mxv
 BYTE   W96
// 001   ----------------------------------------
 BYTE   W96
// 002   ----------------------------------------
 BYTE   W96
// 003   ----------------------------------------
 BYTE   W96
// 004   ----------------------------------------
 BYTE   W96
// 005   ----------------------------------------
 BYTE   W96
// 006   ----------------------------------------
 BYTE   W96
// 007   ----------------------------------------
 BYTE   W96
// 008   ----------------------------------------
 BYTE   W96
// 009   ----------------------------------------
 BYTE   W96
// 010   ----------------------------------------
 BYTE   W96
// 011   ----------------------------------------
 BYTE   W96
// 012   ----------------------------------------
 BYTE   W96
// 013   ----------------------------------------
 BYTE   W96
// 014   ----------------------------------------
 BYTE   W96
// 015   ----------------------------------------
 BYTE   W96
// 016   ----------------------------------------
 BYTE   W96
// 017   ----------------------------------------
 BYTE   W96
// 018   ----------------------------------------
 BYTE   W96
// 019   ----------------------------------------
 BYTE   W96
// 020   ----------------------------------------
 BYTE   W96
// 021   ----------------------------------------
 BYTE   W96
// 022   ----------------------------------------
 BYTE   W96
// 023   ----------------------------------------
 BYTE   W96
// 024   ----------------------------------------
 BYTE   W96
// 025   ----------------------------------------
 BYTE   W96
// 026   ----------------------------------------
 BYTE   W96
// 027   ----------------------------------------
 BYTE   W96
// 028   ----------------------------------------
 BYTE   W96
// 029   ----------------------------------------
 BYTE   W96
// 030   ----------------------------------------
 BYTE   N48  Bn3  v100
 BYTE   W48
 BYTE   N16
 BYTE   W16
 BYTE   N16
 BYTE   W16
 BYTE   N16
 BYTE   W16
// 031   ----------------------------------------
 BYTE   N84  Cn4
 BYTE   W96
// 032   ----------------------------------------
 BYTE   GoTo
  POIN2 Label_7_01035862
 BYTE   FINE

//**************** Track 9 (Midi-Chn.8) ****************//

SuperSmashBrosMeleeMenuMrGreen3339_009:
// 000   ----------------------------------------
 BYTE   KEYSH   SuperSmashBrosMeleeMenuMrGreen3339_key+0
Label_8_0103589A:
 BYTE   VOICE   14
 BYTE   VOL   65*SuperSmashBrosMeleeMenuMrGreen3339_mvl/mxv
 BYTE   W96
// 001   ----------------------------------------
 BYTE   W96
// 002   ----------------------------------------
 BYTE   W96
// 003   ----------------------------------------
 BYTE   W96
// 004   ----------------------------------------
 BYTE   W96
// 005   ----------------------------------------
 BYTE   W96
// 006   ----------------------------------------
 BYTE   W96
// 007   ----------------------------------------
 BYTE   W96
// 008   ----------------------------------------
 BYTE   W96
// 009   ----------------------------------------
 BYTE   W96
// 010   ----------------------------------------
 BYTE   W96
// 011   ----------------------------------------
 BYTE   W96
// 012   ----------------------------------------
 BYTE   W96
// 013   ----------------------------------------
 BYTE   W96
// 014   ----------------------------------------
 BYTE   W96
// 015   ----------------------------------------
 BYTE   W96
// 016   ----------------------------------------
 BYTE   W96
// 017   ----------------------------------------
 BYTE   W96
// 018   ----------------------------------------
 BYTE   W96
// 019   ----------------------------------------
 BYTE   W96
// 020   ----------------------------------------
 BYTE   W96
// 021   ----------------------------------------
 BYTE   W96
// 022   ----------------------------------------
 BYTE   W24
 BYTE   N24  As2  v100
 BYTE   W24
 BYTE   Dn3
 BYTE   W24
 BYTE   Gn3
 BYTE   W24
// 023   ----------------------------------------
 BYTE   N96  Cn4
 BYTE   W96
// 024   ----------------------------------------
 BYTE   W96
// 025   ----------------------------------------
 BYTE   W96
// 026   ----------------------------------------
 BYTE   W96
// 027   ----------------------------------------
 BYTE   W96
// 028   ----------------------------------------
 BYTE   W96
// 029   ----------------------------------------
 BYTE   W96
// 030   ----------------------------------------
 BYTE   W96
// 031   ----------------------------------------
 BYTE   W96
// 032   ----------------------------------------
 BYTE   GoTo
  POIN2 Label_8_0103589A
 BYTE   FINE

//**************** Track 10 (Midi-Chn.9) ****************//

SuperSmashBrosMeleeMenuMrGreen3339_010:
// 000   ----------------------------------------
 BYTE   KEYSH   SuperSmashBrosMeleeMenuMrGreen3339_key+0
Label_9_010358D2:
 BYTE   VOICE   73
 BYTE   VOL   65*SuperSmashBrosMeleeMenuMrGreen3339_mvl/mxv
 BYTE   N06  Bn3  v040
 BYTE   N06  Dn4
 BYTE   N06  Fs4
 BYTE   W36
 BYTE   Bn3
 BYTE   N06  Dn4
 BYTE   N06  Fs4
 BYTE   W36
 BYTE   Bn3
 BYTE   N06  Dn4
 BYTE   N06  Fs4
 BYTE   W24
// 001   ----------------------------------------
Label_9_010358EA:
 BYTE   W12
 BYTE   N06  Bn3  v040
 BYTE   N06  En4
 BYTE   N06  Gs4
 BYTE   W24
 BYTE   Bn3
 BYTE   N06  En4
 BYTE   N06  Gs4
 BYTE   W24
 BYTE   Bn3
 BYTE   N06  En4
 BYTE   N06  Gs4
 BYTE   W36
 BYTE   PEND 
// 002   ----------------------------------------
 BYTE   Bn3
 BYTE   N06  Dn4
 BYTE   N06  Gn4
 BYTE   W36
 BYTE   Bn3
 BYTE   N06  Dn4
 BYTE   N06  Gn4
 BYTE   W36
 BYTE   Bn3
 BYTE   N06  Dn4
 BYTE   N06  Gn4
 BYTE   W24
// 003   ----------------------------------------
 BYTE   W12
 BYTE   An3
 BYTE   N06  Cs4
 BYTE   N06  An4
 BYTE   W24
 BYTE   An3
 BYTE   N06  Cs4
 BYTE   N06  An4
 BYTE   W24
 BYTE   An3
 BYTE   N06  Cs4
 BYTE   N06  An4
 BYTE   W36
// 004   ----------------------------------------
 BYTE   Bn3
 BYTE   N06  Dn4
 BYTE   N06  Fs4
 BYTE   W36
 BYTE   Bn3
 BYTE   N06  Dn4
 BYTE   N06  Fs4
 BYTE   W36
 BYTE   Bn3
 BYTE   N06  Dn4
 BYTE   N06  Fs4
 BYTE   W24
 BYTE   PATT
  POIN2 Label_9_010358EA
// 005   ----------------------------------------
 BYTE   N06  Bn3  v040
 BYTE   N06  En4
 BYTE   N06  Gn4
 BYTE   W36
 BYTE   Bn3
 BYTE   N06  En4
 BYTE   N06  Gn4
 BYTE   W36
 BYTE   Bn3
 BYTE   N06  En4
 BYTE   N06  Gn4
 BYTE   W24
// 006   ----------------------------------------
 BYTE   W12
 BYTE   An3
 BYTE   N06  Dn4
 BYTE   N06  Fs4
 BYTE   W24
 BYTE   An3
 BYTE   N06  En4
 BYTE   N06  Gn4
 BYTE   W24
 BYTE   An3
 BYTE   N06  Dn4
 BYTE   N06  Fs4
 BYTE   W36
// 007   ----------------------------------------
Label_9_01035963:
 BYTE   N06  Bn3  v080
 BYTE   N06  Dn4
 BYTE   N06  Fs4
 BYTE   W36
 BYTE   Bn3
 BYTE   N06  Dn4
 BYTE   N06  Fs4
 BYTE   W36
 BYTE   Bn3
 BYTE   N06  Dn4
 BYTE   N06  Fs4
 BYTE   W24
 BYTE   PEND 
// 008   ----------------------------------------
Label_9_01035978:
 BYTE   W12
 BYTE   N06  Bn3  v080
 BYTE   N06  En4
 BYTE   N06  Gs4
 BYTE   W24
 BYTE   Bn3
 BYTE   N06  En4
 BYTE   N06  Gs4
 BYTE   W24
 BYTE   Bn3
 BYTE   N06  En4
 BYTE   N06  Gs4
 BYTE   W36
 BYTE   PEND 
// 009   ----------------------------------------
 BYTE   Bn3
 BYTE   N06  Dn4
 BYTE   N06  Gn4
 BYTE   W36
 BYTE   Bn3
 BYTE   N06  Dn4
 BYTE   N06  Gn4
 BYTE   W36
 BYTE   Bn3
 BYTE   N06  Dn4
 BYTE   N06  Gn4
 BYTE   W24
// 010   ----------------------------------------
 BYTE   W12
 BYTE   An3
 BYTE   N06  Cs4
 BYTE   N06  An4
 BYTE   W24
 BYTE   An3
 BYTE   N06  Cs4
 BYTE   N06  An4
 BYTE   W24
 BYTE   An3
 BYTE   N06  Cs4
 BYTE   N06  An4
 BYTE   W36
 BYTE   PATT
  POIN2 Label_9_01035963
 BYTE   PATT
  POIN2 Label_9_01035978
// 011   ----------------------------------------
 BYTE   N06  Bn3  v080
 BYTE   N06  En4
 BYTE   N06  Gn4
 BYTE   W36
 BYTE   Bn3
 BYTE   N06  En4
 BYTE   N06  Gn4
 BYTE   W36
 BYTE   Bn3
 BYTE   N06  En4
 BYTE   N06  Gn4
 BYTE   W24
// 012   ----------------------------------------
 BYTE   W12
 BYTE   An3
 BYTE   N06  Dn4
 BYTE   N06  Fs4
 BYTE   W24
 BYTE   An3
 BYTE   N06  En4
 BYTE   N06  Gn4
 BYTE   W24
 BYTE   An3
 BYTE   N06  Dn4
 BYTE   N06  Fs4
 BYTE   W36
// 013   ----------------------------------------
 BYTE   W96
// 014   ----------------------------------------
 BYTE   W96
// 015   ----------------------------------------
 BYTE   W96
// 016   ----------------------------------------
 BYTE   W96
// 017   ----------------------------------------
 BYTE   W96
// 018   ----------------------------------------
 BYTE   W96
// 019   ----------------------------------------
 BYTE   W96
// 020   ----------------------------------------
 BYTE   W96
// 021   ----------------------------------------
Label_9_010359EC:
 BYTE   N06  Bn3  v100
 BYTE   W12
 BYTE   Gn3
 BYTE   W06
 BYTE   Bn3
 BYTE   W06
 BYTE   N30  Gn4
 BYTE   W36
 BYTE   N06  Fs4
 BYTE   W12
 BYTE   En4
 BYTE   W12
 BYTE   Dn4
 BYTE   W12
 BYTE   PEND 
// 022   ----------------------------------------
 BYTE   N12
 BYTE   W12
 BYTE   N06  Cs4
 BYTE   W12
 BYTE   N42
 BYTE   W48
 BYTE   N24  An3
 BYTE   W24
 BYTE   PATT
  POIN2 Label_9_010359EC
// 023   ----------------------------------------
 BYTE   N06  En4  v100
 BYTE   W24
 BYTE   N04  An4
 BYTE   W04
 BYTE   Bn4
 BYTE   W04
 BYTE   An4
 BYTE   W04
 BYTE   Bn4
 BYTE   W04
 BYTE   An4
 BYTE   W04
 BYTE   Bn4  v096
 BYTE   W04
 BYTE   An4  v088
 BYTE   W04
 BYTE   Bn4  v080
 BYTE   W04
 BYTE   An4  v072
 BYTE   W04
 BYTE   Bn4  v064
 BYTE   W04
 BYTE   An4  v056
 BYTE   W04
 BYTE   Bn4  v048
 BYTE   W04
 BYTE   An4  v040
 BYTE   W04
 BYTE   Bn4  v032
 BYTE   W04
 BYTE   An4  v024
 BYTE   W04
 BYTE   Bn4  v016
 BYTE   W04
 BYTE   An4  v008
 BYTE   W08
// 024   ----------------------------------------
 BYTE   W96
// 025   ----------------------------------------
 BYTE   W96
// 026   ----------------------------------------
 BYTE   W96
// 027   ----------------------------------------
 BYTE   W96
// 028   ----------------------------------------
 BYTE   GoTo
  POIN2 Label_9_010358D2
 BYTE   FINE

//**************** Track 11 (Midi-Chn.10) ****************//

SuperSmashBrosMeleeMenuMrGreen3339_011:
// 000   ----------------------------------------
 BYTE   KEYSH   SuperSmashBrosMeleeMenuMrGreen3339_key+0
Label_10_01035A4E:
 BYTE   VOICE   71
 BYTE   VOL   65*SuperSmashBrosMeleeMenuMrGreen3339_mvl/mxv
 BYTE   W96
// 001   ----------------------------------------
 BYTE   W96
// 002   ----------------------------------------
 BYTE   W96
// 003   ----------------------------------------
 BYTE   W96
// 004   ----------------------------------------
 BYTE   W96
// 005   ----------------------------------------
 BYTE   W96
// 006   ----------------------------------------
 BYTE   W96
// 007   ----------------------------------------
 BYTE   W96
// 008   ----------------------------------------
 BYTE   W96
// 009   ----------------------------------------
 BYTE   W96
// 010   ----------------------------------------
 BYTE   W96
// 011   ----------------------------------------
 BYTE   W96
// 012   ----------------------------------------
 BYTE   N06  Fs4  v100
 BYTE   N06  Bn4
 BYTE   W96
// 013   ----------------------------------------
 BYTE   W96
// 014   ----------------------------------------
 BYTE   W96
// 015   ----------------------------------------
 BYTE   W96
// 016   ----------------------------------------
 BYTE   W96
// 017   ----------------------------------------
 BYTE   W96
// 018   ----------------------------------------
 BYTE   W96
// 019   ----------------------------------------
 BYTE   W96
// 020   ----------------------------------------
 BYTE   As2
 BYTE   W12
 BYTE   N04
 BYTE   W04
 BYTE   Dn3
 BYTE   W04
 BYTE   Fn3
 BYTE   W04
 BYTE   N30  As3
 BYTE   W36
 BYTE   N09  An3
 BYTE   W12
 BYTE   Gn3
 BYTE   W12
 BYTE   Fn3
 BYTE   W12
// 021   ----------------------------------------
 BYTE   N06
 BYTE   W12
 BYTE   En3
 BYTE   W12
 BYTE   N36
 BYTE   W48
 BYTE   N18  Cn3
 BYTE   W24
// 022   ----------------------------------------
 BYTE   N44  Fn3  v108
 BYTE   W48
 BYTE   N15  Fn3  v112
 BYTE   W16
 BYTE   Gn3  v116
 BYTE   W16
 BYTE   An3  v120
 BYTE   W16
// 023   ----------------------------------------
 BYTE   N96  Gn3  v127
 BYTE   W96
// 024   ----------------------------------------
 BYTE   W96
// 025   ----------------------------------------
 BYTE   W96
// 026   ----------------------------------------
 BYTE   W96
// 027   ----------------------------------------
 BYTE   W96
// 028   ----------------------------------------
 BYTE   W96
// 029   ----------------------------------------
 BYTE   W96
// 030   ----------------------------------------
 BYTE   W96
// 031   ----------------------------------------
 BYTE   W96
// 032   ----------------------------------------
 BYTE   GoTo
  POIN2 Label_10_01035A4E
 BYTE   FINE

//**************** Track 12 (Midi-Chn.11) ****************//

SuperSmashBrosMeleeMenuMrGreen3339_012:
// 000   ----------------------------------------
 BYTE   KEYSH   SuperSmashBrosMeleeMenuMrGreen3339_key+0
Label_11_01035AAA:
 BYTE   VOICE   58
 BYTE   VOL   65*SuperSmashBrosMeleeMenuMrGreen3339_mvl/mxv
 BYTE   N12  BnM1  v072
 BYTE   W36
 BYTE   Bn0
 BYTE   W36
 BYTE   BnM1
 BYTE   W24
// 001   ----------------------------------------
Label_11_01035AB6:
 BYTE   W12
 BYTE   N12  BnM1  v072
 BYTE   W24
 BYTE   Bn0
 BYTE   W24
 BYTE   BnM1
 BYTE   W36
 BYTE   PEND 
// 002   ----------------------------------------
Label_11_01035AC0:
 BYTE   N12  BnM1  v072
 BYTE   W36
 BYTE   Bn0
 BYTE   W36
 BYTE   BnM1
 BYTE   W24
 BYTE   PEND 
// 003   ----------------------------------------
Label_11_01035AC9:
 BYTE   W12
 BYTE   N12  AnM1  v072
 BYTE   W24
 BYTE   An0
 BYTE   W24
 BYTE   AnM1
 BYTE   W36
 BYTE   PEND 
 BYTE   PATT
  POIN2 Label_11_01035AC0
// 004   ----------------------------------------
Label_11_01035AD8:
 BYTE   W12
 BYTE   N12  En0  v072
 BYTE   W24
 BYTE   BnM1
 BYTE   W24
 BYTE   En0
 BYTE   W24
 BYTE   N09  Dn0
 BYTE   W12
 BYTE   PEND 
// 005   ----------------------------------------
Label_11_01035AE5:
 BYTE   N12  Cn0  v072
 BYTE   W36
 BYTE   CnM1
 BYTE   W36
 BYTE   Cn0
 BYTE   W24
 BYTE   PEND 
// 006   ----------------------------------------
Label_11_01035AEE:
 BYTE   W12
 BYTE   N12  CnM1  v072
 BYTE   W24
 BYTE   Cn0
 BYTE   W24
 BYTE   CnM1
 BYTE   W36
 BYTE   PEND 
 BYTE   PATT
  POIN2 Label_11_01035AC0
 BYTE   PATT
  POIN2 Label_11_01035AB6
 BYTE   PATT
  POIN2 Label_11_01035AC0
 BYTE   PATT
  POIN2 Label_11_01035AC9
 BYTE   PATT
  POIN2 Label_11_01035AC0
 BYTE   PATT
  POIN2 Label_11_01035AD8
 BYTE   PATT
  POIN2 Label_11_01035AE5
 BYTE   PATT
  POIN2 Label_11_01035AEE
// 007   ----------------------------------------
 BYTE   W96
// 008   ----------------------------------------
 BYTE   W96
// 009   ----------------------------------------
 BYTE   W96
// 010   ----------------------------------------
 BYTE   W96
// 011   ----------------------------------------
 BYTE   W96
// 012   ----------------------------------------
 BYTE   W96
// 013   ----------------------------------------
 BYTE   W96
// 014   ----------------------------------------
 BYTE   W96
// 015   ----------------------------------------
 BYTE   W96
// 016   ----------------------------------------
 BYTE   W96
// 017   ----------------------------------------
 BYTE   W96
// 018   ----------------------------------------
 BYTE   W96
// 019   ----------------------------------------
 BYTE   W96
// 020   ----------------------------------------
 BYTE   W96
// 021   ----------------------------------------
 BYTE   W96
// 022   ----------------------------------------
 BYTE   W96
// 023   ----------------------------------------
 BYTE   GoTo
  POIN2 Label_11_01035AAA
 BYTE   FINE

//**************** Track 13 (Midi-Chn.12) ****************//

SuperSmashBrosMeleeMenuMrGreen3339_013:
// 000   ----------------------------------------
 BYTE   KEYSH   SuperSmashBrosMeleeMenuMrGreen3339_key+0
Label_12_01035B3A:
 BYTE   VOICE   8
 BYTE   VOL   65*SuperSmashBrosMeleeMenuMrGreen3339_mvl/mxv
 BYTE   W96
// 001   ----------------------------------------
 BYTE   W96
// 002   ----------------------------------------
 BYTE   W96
// 003   ----------------------------------------
 BYTE   W96
// 004   ----------------------------------------
 BYTE   W96
// 005   ----------------------------------------
 BYTE   W96
// 006   ----------------------------------------
 BYTE   W96
// 007   ----------------------------------------
 BYTE   W96
// 008   ----------------------------------------
 BYTE   W96
// 009   ----------------------------------------
 BYTE   W96
// 010   ----------------------------------------
 BYTE   W96
// 011   ----------------------------------------
 BYTE   W96
// 012   ----------------------------------------
 BYTE   W96
// 013   ----------------------------------------
 BYTE   W96
// 014   ----------------------------------------
 BYTE   W96
// 015   ----------------------------------------
 BYTE   W96
// 016   ----------------------------------------
 BYTE   W96
// 017   ----------------------------------------
 BYTE   W96
// 018   ----------------------------------------
 BYTE   N24  Bn5  v100
 BYTE   W24
 BYTE   Dn5
 BYTE   W24
 BYTE   N16  Gn5
 BYTE   W16
 BYTE   Fs5
 BYTE   W16
 BYTE   En5
 BYTE   W16
// 019   ----------------------------------------
 BYTE   N48  An5
 BYTE   W96
// 020   ----------------------------------------
 BYTE   W96
// 021   ----------------------------------------
 BYTE   W96
// 022   ----------------------------------------
 BYTE   W96
// 023   ----------------------------------------
 BYTE   W96
// 024   ----------------------------------------
 BYTE   W96
// 025   ----------------------------------------
 BYTE   W96
// 026   ----------------------------------------
 BYTE   W96
// 027   ----------------------------------------
 BYTE   W96
// 028   ----------------------------------------
 BYTE   W96
// 029   ----------------------------------------
 BYTE   W96
// 030   ----------------------------------------
 BYTE   W96
// 031   ----------------------------------------
 BYTE   W96
// 032   ----------------------------------------
 BYTE   GoTo
  POIN2 Label_12_01035B3A
 BYTE   FINE

//**************** Track 14 (Midi-Chn.13) ****************//

SuperSmashBrosMeleeMenuMrGreen3339_014:
// 000   ----------------------------------------
 BYTE   KEYSH   SuperSmashBrosMeleeMenuMrGreen3339_key+0
Label_13_01035B76:
 BYTE   VOICE   59
 BYTE   VOL   65*SuperSmashBrosMeleeMenuMrGreen3339_mvl/mxv
 BYTE   W96
// 001   ----------------------------------------
 BYTE   W96
// 002   ----------------------------------------
 BYTE   W96
// 003   ----------------------------------------
 BYTE   W96
// 004   ----------------------------------------
 BYTE   W96
// 005   ----------------------------------------
 BYTE   W96
// 006   ----------------------------------------
 BYTE   W96
// 007   ----------------------------------------
 BYTE   W96
// 008   ----------------------------------------
 BYTE   W96
// 009   ----------------------------------------
 BYTE   W96
// 010   ----------------------------------------
 BYTE   W96
// 011   ----------------------------------------
 BYTE   W96
// 012   ----------------------------------------
 BYTE   W96
// 013   ----------------------------------------
 BYTE   W96
// 014   ----------------------------------------
 BYTE   W96
// 015   ----------------------------------------
 BYTE   W96
// 016   ----------------------------------------
Label_13_01035B8A:
 BYTE   N06  En3  v072
 BYTE   N06  Gn3
 BYTE   W36
 BYTE   En3
 BYTE   N06  Gn3
 BYTE   W36
 BYTE   En3
 BYTE   N06  Gn3
 BYTE   W24
 BYTE   PEND 
// 017   ----------------------------------------
Label_13_01035B99:
 BYTE   W12
 BYTE   N06  Fs3  v072
 BYTE   N06  An3
 BYTE   W24
 BYTE   Fs3
 BYTE   N06  An3
 BYTE   W24
 BYTE   Fs3
 BYTE   N06  An3
 BYTE   W36
 BYTE   PEND 
 BYTE   PATT
  POIN2 Label_13_01035B8A
 BYTE   PATT
  POIN2 Label_13_01035B99
// 018   ----------------------------------------
Label_13_01035BB3:
 BYTE   N06  Fn3  v072
 BYTE   N06  As3
 BYTE   W36
 BYTE   Fn3
 BYTE   N06  As3
 BYTE   W36
 BYTE   Fn3
 BYTE   N06  As3
 BYTE   W24
 BYTE   PEND 
// 019   ----------------------------------------
Label_13_01035BC2:
 BYTE   W12
 BYTE   N06  Gn3  v072
 BYTE   N06  Cn4
 BYTE   W24
 BYTE   Gn3
 BYTE   N06  Cn4
 BYTE   W24
 BYTE   Gn3
 BYTE   N06  Cn4
 BYTE   W36
 BYTE   PEND 
 BYTE   PATT
  POIN2 Label_13_01035BB3
 BYTE   PATT
  POIN2 Label_13_01035BC2
// 020   ----------------------------------------
 BYTE   W96
// 021   ----------------------------------------
 BYTE   W96
// 022   ----------------------------------------
 BYTE   W96
// 023   ----------------------------------------
 BYTE   W96
// 024   ----------------------------------------
 BYTE   W96
// 025   ----------------------------------------
 BYTE   W96
// 026   ----------------------------------------
 BYTE   W96
// 027   ----------------------------------------
 BYTE   W96
// 028   ----------------------------------------
 BYTE   GoTo
  POIN2 Label_13_01035B76
 BYTE   FINE

//**************** Track 15 (Midi-Chn.14) ****************//

SuperSmashBrosMeleeMenuMrGreen3339_015:
// 000   ----------------------------------------
 BYTE   KEYSH   SuperSmashBrosMeleeMenuMrGreen3339_key+0
Label_14_01035BEE:
 BYTE   VOICE   127
 BYTE   VOL   65*SuperSmashBrosMeleeMenuMrGreen3339_mvl/mxv
 BYTE   N06  Dn1  v060
 BYTE   N96  As1  v100
 BYTE   N96  Cs2
 BYTE   N96  Gn2
 BYTE   N96  An2
 BYTE   W12
 BYTE   N06  Dn1  v060
 BYTE   W06
 BYTE   N06
 BYTE   W06
 BYTE   N06
 BYTE   W06
 BYTE   N06
 BYTE   W06
 BYTE   N06
 BYTE   W12
 BYTE   N06
 BYTE   W12
 BYTE   N06
 BYTE   W06
 BYTE   N06
 BYTE   W06
 BYTE   N06
 BYTE   W12
 BYTE   N06
 BYTE   W12
// 001   ----------------------------------------
Label_14_01035C15:
 BYTE   N06  Dn1  v060
 BYTE   W06
 BYTE   N06
 BYTE   W06
 BYTE   N06
 BYTE   W12
 BYTE   N06
 BYTE   W12
 BYTE   N06
 BYTE   W12
 BYTE   N06
 BYTE   W12
 BYTE   N06
 BYTE   W06
 BYTE   N06
 BYTE   W06
 BYTE   N03
 BYTE   W03
 BYTE   N03
 BYTE   W03
 BYTE   N03
 BYTE   W03
 BYTE   N03
 BYTE   W03
 BYTE   N03
 BYTE   W03
 BYTE   N03
 BYTE   W03
 BYTE   N03
 BYTE   W03
 BYTE   N03
 BYTE   W03
 BYTE   PEND 
// 002   ----------------------------------------
Label_14_01035C38:
 BYTE   N06  Dn1  v060
 BYTE   W12
 BYTE   N06
 BYTE   W06
 BYTE   N06
 BYTE   W06
 BYTE   N06
 BYTE   W06
 BYTE   N06
 BYTE   W06
 BYTE   N06
 BYTE   W12
 BYTE   N06
 BYTE   W12
 BYTE   N06
 BYTE   W12
 BYTE   N06
 BYTE   W06
 BYTE   N06
 BYTE   W06
 BYTE   N06
 BYTE   W12
 BYTE   PEND 
// 003   ----------------------------------------
Label_14_01035C51:
 BYTE   N06  Dn1  v060
 BYTE   W06
 BYTE   N06
 BYTE   W06
 BYTE   N06
 BYTE   W06
 BYTE   N06
 BYTE   W06
 BYTE   N06
 BYTE   W12
 BYTE   N06
 BYTE   W06
 BYTE   N06
 BYTE   W06
 BYTE   N06
 BYTE   W12
 BYTE   N06
 BYTE   W12
 BYTE   N06
 BYTE   W06
 BYTE   N06
 BYTE   W06
 BYTE   N06
 BYTE   W06
 BYTE   N06
 BYTE   W06
 BYTE   PEND 
// 004   ----------------------------------------
 BYTE   N06
 BYTE   N96  As1  v100
 BYTE   N96  Cs2
 BYTE   N96  Gn2
 BYTE   N96  An2
 BYTE   W12
 BYTE   N06  Dn1  v060
 BYTE   W06
 BYTE   N06
 BYTE   W06
 BYTE   N06
 BYTE   W12
 BYTE   N06
 BYTE   W12
 BYTE   N06
 BYTE   W06
 BYTE   N06
 BYTE   W06
 BYTE   N06
 BYTE   W12
 BYTE   N06
 BYTE   W06
 BYTE   N06
 BYTE   W06
 BYTE   N06
 BYTE   W12
// 005   ----------------------------------------
Label_14_01035C8F:
 BYTE   N06  Dn1  v060
 BYTE   W12
 BYTE   N06
 BYTE   W12
 BYTE   N06
 BYTE   W06
 BYTE   N06
 BYTE   W06
 BYTE   N06
 BYTE   W06
 BYTE   N06
 BYTE   W06
 BYTE   N06
 BYTE   W06
 BYTE   N06
 BYTE   W06
 BYTE   N06
 BYTE   W12
 BYTE   N03
 BYTE   W03
 BYTE   N03
 BYTE   W03
 BYTE   N03
 BYTE   W03
 BYTE   N03
 BYTE   W03
 BYTE   N03
 BYTE   W03
 BYTE   N03
 BYTE   W03
 BYTE   N03
 BYTE   W03
 BYTE   N03
 BYTE   W03
 BYTE   PEND 
// 006   ----------------------------------------
Label_14_01035CB4:
 BYTE   N06  Dn1  v060
 BYTE   W06
 BYTE   N06
 BYTE   W06
 BYTE   N06
 BYTE   W06
 BYTE   N06
 BYTE   W06
 BYTE   N06
 BYTE   W12
 BYTE   N06
 BYTE   W06
 BYTE   N06
 BYTE   W06
 BYTE   N06
 BYTE   W12
 BYTE   N06
 BYTE   W12
 BYTE   N06
 BYTE   W06
 BYTE   N06
 BYTE   W06
 BYTE   N06
 BYTE   W12
 BYTE   PEND 
// 007   ----------------------------------------
 BYTE   N06
 BYTE   W12
 BYTE   N06
 BYTE   W06
 BYTE   N06
 BYTE   W06
 BYTE   N06
 BYTE   W06
 BYTE   N06
 BYTE   W06
 BYTE   N06
 BYTE   W12
 BYTE   N03
 BYTE   W03
 BYTE   N03
 BYTE   W03
 BYTE   N03
 BYTE   W03
 BYTE   N03
 BYTE   W03
 BYTE   N03
 BYTE   W03
 BYTE   N03
 BYTE   W03
 BYTE   N03
 BYTE   W03
 BYTE   N03
 BYTE   W03
 BYTE   N03
 BYTE   W03
 BYTE   N03
 BYTE   W03
 BYTE   N03
 BYTE   W03
 BYTE   N03
 BYTE   W03
 BYTE   N03
 BYTE   W03
 BYTE   N03
 BYTE   W03
 BYTE   N03
 BYTE   W03
 BYTE   N03
 BYTE   W03
// 008   ----------------------------------------
 BYTE   N06
 BYTE   N96  As1  v100
 BYTE   N96  Cs2
 BYTE   N96  Gn2
 BYTE   N96  An2
 BYTE   W12
 BYTE   N06  Dn1  v060
 BYTE   W06
 BYTE   N06
 BYTE   W06
 BYTE   N06
 BYTE   W06
 BYTE   N06
 BYTE   W06
 BYTE   N06
 BYTE   W12
 BYTE   N06
 BYTE   W12
 BYTE   N06
 BYTE   W06
 BYTE   N06
 BYTE   W06
 BYTE   N06
 BYTE   W12
 BYTE   N06
 BYTE   W12
 BYTE   PATT
  POIN2 Label_14_01035C15
 BYTE   PATT
  POIN2 Label_14_01035C38
 BYTE   PATT
  POIN2 Label_14_01035C51
// 009   ----------------------------------------
 BYTE   N06  Dn1  v060
 BYTE   W12
 BYTE   N06
 BYTE   W06
 BYTE   N06
 BYTE   W06
 BYTE   N06
 BYTE   W12
 BYTE   N06
 BYTE   W12
 BYTE   N06
 BYTE   W06
 BYTE   N06
 BYTE   W06
 BYTE   N06
 BYTE   W12
 BYTE   N06
 BYTE   W06
 BYTE   N06
 BYTE   W06
 BYTE   N06
 BYTE   W12
 BYTE   PATT
  POIN2 Label_14_01035C8F
 BYTE   PATT
  POIN2 Label_14_01035CB4
// 010   ----------------------------------------
 BYTE   N06  Dn1  v060
 BYTE   N04  An4  v040
 BYTE   W04
 BYTE   N04
 BYTE   W04
 BYTE   N04
 BYTE   W04
 BYTE   N06  Dn1  v060
 BYTE   N04  An4  v040
 BYTE   W04
 BYTE   N04
 BYTE   W02
 BYTE   N06  Dn1  v060
 BYTE   W02
 BYTE   N04  An4  v040
 BYTE   W04
 BYTE   N06  Dn1  v060
 BYTE   N04  An4  v040
 BYTE   W04
 BYTE   N04
 BYTE   W02
 BYTE   N06  Dn1  v060
 BYTE   W02
 BYTE   N04  An4  v040
 BYTE   W04
 BYTE   N06  Dn1  v060
 BYTE   N04  An4  v040
 BYTE   W04
 BYTE   N04
 BYTE   W04
 BYTE   N04
 BYTE   W04
 BYTE   N03  Dn1  v060
 BYTE   W03
 BYTE   N03
 BYTE   W03
 BYTE   N03
 BYTE   W03
 BYTE   N03
 BYTE   W03
 BYTE   N03
 BYTE   N36  An4  v100
 BYTE   W03
 BYTE   N03  Dn1  v060
 BYTE   W03
 BYTE   N03
 BYTE   W03
 BYTE   N03
 BYTE   W03
 BYTE   N03
 BYTE   W03
 BYTE   N03
 BYTE   W03
 BYTE   N03
 BYTE   W03
 BYTE   N03
 BYTE   W03
 BYTE   N03
 BYTE   W03
 BYTE   N03
 BYTE   W03
 BYTE   N03
 BYTE   W03
 BYTE   N03
 BYTE   W03
// 011   ----------------------------------------
 BYTE   N06
 BYTE   N96  As1  v100
 BYTE   N96  Cs2
 BYTE   N96  Gn2
 BYTE   N96  An2
 BYTE   W36
 BYTE   N06  Dn1  v060
 BYTE   W36
 BYTE   N06
 BYTE   W24
// 012   ----------------------------------------
Label_14_01035DBD:
 BYTE   W12
 BYTE   N06  Dn1  v060
 BYTE   W24
 BYTE   N06
 BYTE   W24
 BYTE   N06
 BYTE   W06
 BYTE   N06
 BYTE   W06
 BYTE   N06
 BYTE   W24
 BYTE   PEND 
// 013   ----------------------------------------
Label_14_01035DCB:
 BYTE   N06  Dn1  v060
 BYTE   W36
 BYTE   N06
 BYTE   W32
 BYTE   W01
 BYTE   N02
 BYTE   W03
 BYTE   N06
 BYTE   W24
 BYTE   PEND 
// 014   ----------------------------------------
 BYTE   W12
 BYTE   N06
 BYTE   W24
 BYTE   N06
 BYTE   W24
 BYTE   N06
 BYTE   W06
 BYTE   N06
 BYTE   W06
 BYTE   N03
 BYTE   W03
 BYTE   N03
 BYTE   W03
 BYTE   N03
 BYTE   W03
 BYTE   N03
 BYTE   W03
 BYTE   N03
 BYTE   W03
 BYTE   N03
 BYTE   W03
 BYTE   N03
 BYTE   W03
 BYTE   N03
 BYTE   W03
// 015   ----------------------------------------
 BYTE   N06
 BYTE   W36
 BYTE   N06
 BYTE   W36
 BYTE   N06
 BYTE   W24
 BYTE   PATT
  POIN2 Label_14_01035DBD
 BYTE   PATT
  POIN2 Label_14_01035DCB
// 016   ----------------------------------------
 BYTE   N04  An4  v040
 BYTE   W04
 BYTE   N04
 BYTE   W04
 BYTE   N04
 BYTE   W04
 BYTE   N06  Dn1  v060
 BYTE   N04  An4  v040
 BYTE   W04
 BYTE   N04
 BYTE   W04
 BYTE   N04
 BYTE   W04
 BYTE   N04
 BYTE   W04
 BYTE   N04
 BYTE   W04
 BYTE   N04
 BYTE   W04
 BYTE   N06  Dn1  v060
 BYTE   N04  An4  v040
 BYTE   W04
 BYTE   N04
 BYTE   W04
 BYTE   N04
 BYTE   W16
 BYTE   N06  Dn1  v060
 BYTE   N36  An4  v100
 BYTE   W06
 BYTE   N06  Dn1  v060
 BYTE   W06
 BYTE   N03
 BYTE   N03  Gn2  v020
 BYTE   W03
 BYTE   Dn1  v060
 BYTE   N03  Gn2  v032
 BYTE   W03
 BYTE   Dn1  v060
 BYTE   N03  Gn2  v040
 BYTE   W03
 BYTE   Dn1  v060
 BYTE   N03  Gn2  v052
 BYTE   W03
 BYTE   Dn1  v060
 BYTE   N03  Gn2
 BYTE   W03
 BYTE   Dn1
 BYTE   N03  Gn2  v072
 BYTE   W03
 BYTE   Dn1  v060
 BYTE   N03  Gn2  v080
 BYTE   W03
 BYTE   Dn1  v060
 BYTE   N03  Gn2  v092
 BYTE   W03
// 017   ----------------------------------------
 BYTE   N06  Dn1  v060
 BYTE   N96  Gn2  v100
 BYTE   W36
 BYTE   N06  Dn1  v060
 BYTE   W36
 BYTE   En0  v100
 BYTE   N06  Dn1  v060
 BYTE   W24
// 018   ----------------------------------------
 BYTE   W12
 BYTE   N06
 BYTE   W24
 BYTE   N06
 BYTE   W24
 BYTE   N06
 BYTE   N06  Fs2  v100
 BYTE   W06
 BYTE   Dn1  v060
 BYTE   W06
 BYTE   N06
 BYTE   W12
 BYTE   N02  Fs2  v040
 BYTE   W02
 BYTE   Fs2  v052
 BYTE   W02
 BYTE   Fs2  v060
 BYTE   W02
 BYTE   Fs2  v072
 BYTE   W02
 BYTE   Fs2  v080
 BYTE   W02
 BYTE   Fs2  v092
 BYTE   W02
// 019   ----------------------------------------
 BYTE   N06  Dn1  v060
 BYTE   N06  Fs2  v100
 BYTE   W28
 BYTE   N02  Fs2  v072
 BYTE   W03
 BYTE   Fs2  v080
 BYTE   W02
 BYTE   Fs2  v092
 BYTE   W03
 BYTE   N06  Dn1  v060
 BYTE   N06  Fs2  v100
 BYTE   W32
 BYTE   W01
 BYTE   N02  Dn1  v060
 BYTE   W03
 BYTE   N06  En0  v100
 BYTE   N06  Dn1  v060
 BYTE   W24
// 020   ----------------------------------------
 BYTE   W12
 BYTE   N06
 BYTE   W24
 BYTE   N06
 BYTE   W24
 BYTE   N06
 BYTE   N02  Fs2  v092
 BYTE   W02
 BYTE   Fs2  v088
 BYTE   W03
 BYTE   Fs2  v084
 BYTE   W01
 BYTE   N06  Dn1  v060
 BYTE   W01
 BYTE   N02  Fs2  v084
 BYTE   W03
 BYTE   Fs2  v080
 BYTE   W02
 BYTE   N03  Dn1  v060
 BYTE   N02  Fs2  v076
 BYTE   W03
 BYTE   N03  Dn1  v060
 BYTE   N02  Fs2  v072
 BYTE   W02
 BYTE   N02
 BYTE   W01
 BYTE   N03  Dn1  v060
 BYTE   W02
 BYTE   N02  Fs2  v068
 BYTE   W01
 BYTE   N03  Dn1  v060
 BYTE   W01
 BYTE   N02  Fs2  v064
 BYTE   W02
 BYTE   N03  Dn1  v060
 BYTE   W01
 BYTE   N02  Fs2
 BYTE   W02
 BYTE   N03  Dn1
 BYTE   N02  Fs2
 BYTE   W03
 BYTE   N03  Dn1
 BYTE   N02  Fs2  v056
 BYTE   W02
 BYTE   N01  Fs2  v052
 BYTE   W01
 BYTE   N03  Dn1  v060
 BYTE   W01
 BYTE   N01  Fs2  v048
 BYTE   W02
// 021   ----------------------------------------
 BYTE   N06  Dn1  v060
 BYTE   W36
 BYTE   En0  v100
 BYTE   N06  Dn1  v060
 BYTE   W36
 BYTE   N06
 BYTE   N06  Gn2  v100
 BYTE   W24
// 022   ----------------------------------------
 BYTE   W12
 BYTE   Cn1
 BYTE   N06  Dn1  v060
 BYTE   W06
 BYTE   N03  Cs2  v004
 BYTE   W03
 BYTE   Cs2  v008
 BYTE   W03
 BYTE   Cs2  v016
 BYTE   W03
 BYTE   Cs2  v024
 BYTE   W03
 BYTE   Cs2  v032
 BYTE   W03
 BYTE   Cs2  v036
 BYTE   W03
 BYTE   N06  Cn1  v100
 BYTE   N06  Dn1  v060
 BYTE   N03  Cs2  v044
 BYTE   W03
 BYTE   Cs2  v052
 BYTE   W03
 BYTE   Cs2  v060
 BYTE   W03
 BYTE   Cs2  v064
 BYTE   W03
 BYTE   Cs2  v072
 BYTE   W03
 BYTE   Cs2  v080
 BYTE   W03
 BYTE   Cs2  v088
 BYTE   W03
 BYTE   Cs2  v092
 BYTE   W03
 BYTE   N06  Cn1  v100
 BYTE   N06  Dn1  v060
 BYTE   N03  Cs2  v100
 BYTE   W03
 BYTE   Cs2  v108
 BYTE   W03
 BYTE   N06  Dn1  v060
 BYTE   N03  Cs2  v116
 BYTE   W03
 BYTE   Cs2  v120
 BYTE   W03
 BYTE   N06  Dn1  v060
 BYTE   N96  Cs2  v127
 BYTE   W24
// 023   ----------------------------------------
 BYTE   N06  Dn1  v080
 BYTE   W24
 BYTE   N24  Bn0  v112
 BYTE   W24
 BYTE   N16
 BYTE   N16  Dn1  v080
 BYTE   W16
 BYTE   Bn0  v112
 BYTE   N16  Dn1  v080
 BYTE   W16
 BYTE   Bn0  v112
 BYTE   N16  Dn1  v080
 BYTE   W16
// 024   ----------------------------------------
 BYTE   N96  Bn0  v112
 BYTE   N03  Dn1  v060
 BYTE   W03
 BYTE   N03
 BYTE   W03
 BYTE   N03
 BYTE   W03
 BYTE   N03
 BYTE   W03
 BYTE   N03
 BYTE   W03
 BYTE   N03
 BYTE   W03
 BYTE   N03
 BYTE   W03
 BYTE   N03
 BYTE   W03
 BYTE   Dn1  v072
 BYTE   W03
 BYTE   N03
 BYTE   W03
 BYTE   N03
 BYTE   W03
 BYTE   N03
 BYTE   W03
 BYTE   N03
 BYTE   W03
 BYTE   N03
 BYTE   W03
 BYTE   N03
 BYTE   W03
 BYTE   N03
 BYTE   W03
 BYTE   N06  Dn1  v112
 BYTE   W18
 BYTE   N03  Dn1  v072
 BYTE   W03
 BYTE   N03
 BYTE   W03
 BYTE   N06  Dn1  v100
 BYTE   W24
// 025   ----------------------------------------
 BYTE   GoTo
  POIN2 Label_14_01035BEE
 BYTE   FINE

//******************************************************//
	ALIGN 4

SuperSmashBrosMeleeMenuMrGreen3339:
	BYTE	15	// NumTrks
	BYTE	0	// NumBlks
	BYTE	SuperSmashBrosMeleeMenuMrGreen3339_pri	// Priority
	BYTE	SuperSmashBrosMeleeMenuMrGreen3339_rev	// Reverb.
    
	POIN2	SuperSmashBrosMeleeMenuMrGreen3339_grp
    
	POIN2	SuperSmashBrosMeleeMenuMrGreen3339_001
	POIN2	SuperSmashBrosMeleeMenuMrGreen3339_002
	POIN2	SuperSmashBrosMeleeMenuMrGreen3339_003
	POIN2	SuperSmashBrosMeleeMenuMrGreen3339_004
	POIN2	SuperSmashBrosMeleeMenuMrGreen3339_005
	POIN2	SuperSmashBrosMeleeMenuMrGreen3339_006
	POIN2	SuperSmashBrosMeleeMenuMrGreen3339_007
	POIN2	SuperSmashBrosMeleeMenuMrGreen3339_008
	POIN2	SuperSmashBrosMeleeMenuMrGreen3339_009
	POIN2	SuperSmashBrosMeleeMenuMrGreen3339_010
	POIN2	SuperSmashBrosMeleeMenuMrGreen3339_011
	POIN2	SuperSmashBrosMeleeMenuMrGreen3339_012
	POIN2	SuperSmashBrosMeleeMenuMrGreen3339_013
	POIN2	SuperSmashBrosMeleeMenuMrGreen3339_014
	POIN2	SuperSmashBrosMeleeMenuMrGreen3339_015

	
