//Event file generated from Sappy .s format.
	#include "MPlayDef.event"

	#define	SuperMarioBros2UnderworldPandan_grp  voicegroup000
	#define	SuperMarioBros2UnderworldPandan_pri  0
	#define	SuperMarioBros2UnderworldPandan_rev  0
	#define	SuperMarioBros2UnderworldPandan_mvl  127
	#define	SuperMarioBros2UnderworldPandan_key  0
	#define	SuperMarioBros2UnderworldPandan_tbs  1
	#define	SuperMarioBros2UnderworldPandan_exg  0
	#define	SuperMarioBros2UnderworldPandan_cmp  1

	// .rodata
	//	SuperMarioBros2UnderworldPandan
	ALIGN 4


//**************** Track 1 (Midi-Chn.0) ****************//

SuperMarioBros2UnderworldPandan_001:
// 000   ----------------------------------------
 BYTE   VOL   60*SuperMarioBros2UnderworldPandan_mvl/mxv
 BYTE   KEYSH   SuperMarioBros2UnderworldPandan_key+0
Label_0_017D290C:
 BYTE   TEMPO   128*SuperMarioBros2UnderworldPandan_tbs/2
 BYTE   VOICE   73
 BYTE   W36
 BYTE   N12  Gs3  v100
 BYTE   W24
 BYTE   N36  An3
 BYTE   W36
// 001   ----------------------------------------
Label_0_017D2918:
 BYTE   W36
 BYTE   N12  Gs3  v100
 BYTE   W24
 BYTE   N36  Gn3
 BYTE   W36
 BYTE   PEND 
// 002   ----------------------------------------
 BYTE   W96
// 003   ----------------------------------------
 BYTE   W96
// 004   ----------------------------------------
 BYTE   W96
// 005   ----------------------------------------
 BYTE   W96
// 006   ----------------------------------------
Label_0_017D2925:
 BYTE   W36
 BYTE   N12  Gs3  v100
 BYTE   W24
 BYTE   N36  An3
 BYTE   W36
 BYTE   PEND 
 BYTE   PATT
  POIN2 Label_0_017D2918
// 007   ----------------------------------------
 BYTE   W96
// 008   ----------------------------------------
 BYTE   W96
// 009   ----------------------------------------
 BYTE   W96
// 010   ----------------------------------------
 BYTE   W96
 BYTE   PATT
  POIN2 Label_0_017D2925
 BYTE   PATT
  POIN2 Label_0_017D2918
// 011   ----------------------------------------
 BYTE   W96
// 012   ----------------------------------------
 BYTE   W96
// 013   ----------------------------------------
 BYTE   W96
// 014   ----------------------------------------
 BYTE   W96
 BYTE   PATT
  POIN2 Label_0_017D2925
 BYTE   PATT
  POIN2 Label_0_017D2918
// 015   ----------------------------------------
 BYTE   W96
// 016   ----------------------------------------
 BYTE   W96
// 017   ----------------------------------------
 BYTE   W96
// 018   ----------------------------------------
 BYTE   W96
// 019   ----------------------------------------
 BYTE   GoTo
  POIN2 Label_0_017D290C
 BYTE   FINE

//**************** Track 2 (Midi-Chn.1) ****************//

SuperMarioBros2UnderworldPandan_002:
// 000   ----------------------------------------
 BYTE   VOL   60*SuperMarioBros2UnderworldPandan_mvl/mxv
 BYTE   KEYSH   SuperMarioBros2UnderworldPandan_key+0
Label_1_017D2960:
 BYTE   VOICE   73
 BYTE   W36
 BYTE   N12  Ds3  v100
 BYTE   W24
 BYTE   N36  En3
 BYTE   W36
// 001   ----------------------------------------
Label_1_017D296A:
 BYTE   W36
 BYTE   N12  Ds3  v100
 BYTE   W24
 BYTE   N36  Dn3
 BYTE   W36
 BYTE   PEND 
// 002   ----------------------------------------
 BYTE   W96
// 003   ----------------------------------------
 BYTE   W96
// 004   ----------------------------------------
 BYTE   W96
// 005   ----------------------------------------
 BYTE   W96
// 006   ----------------------------------------
Label_1_017D2977:
 BYTE   W36
 BYTE   N12  Ds3  v100
 BYTE   W24
 BYTE   N36  En3
 BYTE   W36
 BYTE   PEND 
 BYTE   PATT
  POIN2 Label_1_017D296A
// 007   ----------------------------------------
 BYTE   W96
// 008   ----------------------------------------
 BYTE   W96
// 009   ----------------------------------------
 BYTE   W96
// 010   ----------------------------------------
 BYTE   W96
 BYTE   PATT
  POIN2 Label_1_017D2977
 BYTE   PATT
  POIN2 Label_1_017D296A
// 011   ----------------------------------------
 BYTE   W96
// 012   ----------------------------------------
 BYTE   W96
// 013   ----------------------------------------
 BYTE   W96
// 014   ----------------------------------------
 BYTE   W96
 BYTE   PATT
  POIN2 Label_1_017D2977
 BYTE   PATT
  POIN2 Label_1_017D296A
// 015   ----------------------------------------
 BYTE   W96
// 016   ----------------------------------------
 BYTE   W96
// 017   ----------------------------------------
 BYTE   W96
// 018   ----------------------------------------
 BYTE   W96
// 019   ----------------------------------------
 BYTE   GoTo
  POIN2 Label_1_017D2960
 BYTE   FINE

//**************** Track 3 (Midi-Chn.2) ****************//

SuperMarioBros2UnderworldPandan_003:
// 000   ----------------------------------------
 BYTE   VOL   60*SuperMarioBros2UnderworldPandan_mvl/mxv
 BYTE   KEYSH   SuperMarioBros2UnderworldPandan_key+0
Label_2_017D29B0:
 BYTE   VOICE   4
 BYTE   W96
// 001   ----------------------------------------
 BYTE   W96
// 002   ----------------------------------------
Label_2_017D29B4:
 BYTE   W24
 BYTE   N36  Cn4  v100
 BYTE   W36
 BYTE   As3
 BYTE   W36
 BYTE   PEND 
// 003   ----------------------------------------
Label_2_017D29BC:
 BYTE   N24  Fn3  v100
 BYTE   W24
 BYTE   N36  Gs3
 BYTE   W36
 BYTE   N24  As3
 BYTE   W24
 BYTE   N12  Ds3
 BYTE   W12
 BYTE   PEND 
// 004   ----------------------------------------
Label_2_017D29CA:
 BYTE   N24  Fn3  v100
 BYTE   W24
 BYTE   N36  Cn3
 BYTE   W36
 BYTE   Dn3
 BYTE   W36
 BYTE   PEND 
// 005   ----------------------------------------
 BYTE   N96  Ds3
 BYTE   W96
// 006   ----------------------------------------
 BYTE   W96
// 007   ----------------------------------------
 BYTE   W96
 BYTE   PATT
  POIN2 Label_2_017D29B4
 BYTE   PATT
  POIN2 Label_2_017D29BC
 BYTE   PATT
  POIN2 Label_2_017D29CA
// 008   ----------------------------------------
 BYTE   N96  Ds3  v100
 BYTE   W96
// 009   ----------------------------------------
 BYTE   W96
// 010   ----------------------------------------
 BYTE   W96
 BYTE   PATT
  POIN2 Label_2_017D29B4
 BYTE   PATT
  POIN2 Label_2_017D29BC
 BYTE   PATT
  POIN2 Label_2_017D29CA
// 011   ----------------------------------------
 BYTE   N96  Ds3  v100
 BYTE   W96
// 012   ----------------------------------------
 BYTE   W96
// 013   ----------------------------------------
 BYTE   W96
 BYTE   PATT
  POIN2 Label_2_017D29B4
 BYTE   PATT
  POIN2 Label_2_017D29BC
 BYTE   PATT
  POIN2 Label_2_017D29CA
// 014   ----------------------------------------
 BYTE   N96  Ds3  v100
 BYTE   W96
// 015   ----------------------------------------
 BYTE   GoTo
  POIN2 Label_2_017D29B0
 BYTE   FINE

//**************** Track 4 (Midi-Chn.3) ****************//

SuperMarioBros2UnderworldPandan_004:
// 000   ----------------------------------------
 BYTE   VOL   60*SuperMarioBros2UnderworldPandan_mvl/mxv
 BYTE   KEYSH   SuperMarioBros2UnderworldPandan_key+0
Label_3_017D2A20:
 BYTE   VOICE   4
 BYTE   W96
// 001   ----------------------------------------
 BYTE   W96
// 002   ----------------------------------------
Label_3_017D2A24:
 BYTE   W24
 BYTE   N36  Fn3  v100
 BYTE   W36
 BYTE   Ds3
 BYTE   W36
 BYTE   PEND 
// 003   ----------------------------------------
Label_3_017D2A2C:
 BYTE   N24  Cn3  v100
 BYTE   W24
 BYTE   N36  Ds3
 BYTE   W36
 BYTE   N24  Fn3
 BYTE   W24
 BYTE   N12  As2
 BYTE   W12
 BYTE   PEND 
// 004   ----------------------------------------
Label_3_017D2A3A:
 BYTE   N24  Cn3  v100
 BYTE   W24
 BYTE   N36  Fn2
 BYTE   W36
 BYTE   Gn2
 BYTE   W36
 BYTE   PEND 
// 005   ----------------------------------------
 BYTE   N96  Gs2
 BYTE   W96
// 006   ----------------------------------------
 BYTE   W96
// 007   ----------------------------------------
 BYTE   W96
 BYTE   PATT
  POIN2 Label_3_017D2A24
 BYTE   PATT
  POIN2 Label_3_017D2A2C
 BYTE   PATT
  POIN2 Label_3_017D2A3A
// 008   ----------------------------------------
 BYTE   N96  Gs2  v100
 BYTE   W96
// 009   ----------------------------------------
 BYTE   W96
// 010   ----------------------------------------
 BYTE   W96
 BYTE   PATT
  POIN2 Label_3_017D2A24
 BYTE   PATT
  POIN2 Label_3_017D2A2C
 BYTE   PATT
  POIN2 Label_3_017D2A3A
// 011   ----------------------------------------
 BYTE   N96  Gs2  v100
 BYTE   W96
// 012   ----------------------------------------
 BYTE   W96
// 013   ----------------------------------------
 BYTE   W96
 BYTE   PATT
  POIN2 Label_3_017D2A24
 BYTE   PATT
  POIN2 Label_3_017D2A2C
 BYTE   PATT
  POIN2 Label_3_017D2A3A
// 014   ----------------------------------------
 BYTE   N96  Gs2  v100
 BYTE   W96
// 015   ----------------------------------------
 BYTE   GoTo
  POIN2 Label_3_017D2A20
 BYTE   FINE

//**************** Track 5 (Midi-Chn.4) ****************//

SuperMarioBros2UnderworldPandan_005:
// 000   ----------------------------------------
 BYTE   VOL   60*SuperMarioBros2UnderworldPandan_mvl/mxv
 BYTE   KEYSH   SuperMarioBros2UnderworldPandan_key+0
Label_4_017D2A90:
 BYTE   VOICE   4
 BYTE   N12  Fn1  v100
 BYTE   W12
 BYTE   Cn2
 BYTE   W12
 BYTE   Fn2
 BYTE   W72
// 001   ----------------------------------------
Label_4_017D2A9A:
 BYTE   N12  Fn1  v100
 BYTE   W12
 BYTE   Cn2
 BYTE   W12
 BYTE   Fn2
 BYTE   W72
 BYTE   PEND 
// 002   ----------------------------------------
 BYTE   W96
// 003   ----------------------------------------
 BYTE   W96
// 004   ----------------------------------------
 BYTE   W96
// 005   ----------------------------------------
 BYTE   W96
 BYTE   PATT
  POIN2 Label_4_017D2A9A
 BYTE   PATT
  POIN2 Label_4_017D2A9A
// 006   ----------------------------------------
 BYTE   W96
// 007   ----------------------------------------
 BYTE   W96
// 008   ----------------------------------------
 BYTE   W96
// 009   ----------------------------------------
 BYTE   W96
 BYTE   PATT
  POIN2 Label_4_017D2A9A
 BYTE   PATT
  POIN2 Label_4_017D2A9A
// 010   ----------------------------------------
 BYTE   W96
// 011   ----------------------------------------
 BYTE   W96
// 012   ----------------------------------------
 BYTE   W96
// 013   ----------------------------------------
 BYTE   W96
 BYTE   PATT
  POIN2 Label_4_017D2A9A
 BYTE   PATT
  POIN2 Label_4_017D2A9A
// 014   ----------------------------------------
 BYTE   W96
// 015   ----------------------------------------
 BYTE   W96
// 016   ----------------------------------------
 BYTE   W96
// 017   ----------------------------------------
 BYTE   W96
// 018   ----------------------------------------
 BYTE   GoTo
  POIN2 Label_4_017D2A90
 BYTE   FINE

//**************** Track 6 (Midi-Chn.5) ****************//

SuperMarioBros2UnderworldPandan_006:
// 000   ----------------------------------------
 BYTE   VOL   60*SuperMarioBros2UnderworldPandan_mvl/mxv
 BYTE   KEYSH   SuperMarioBros2UnderworldPandan_key+0
Label_5_017D2ADC:
 BYTE   VOICE   73
 BYTE   N12  Fn1  v100
 BYTE   W12
 BYTE   Cn2
 BYTE   W12
 BYTE   Fn2
 BYTE   W72
// 001   ----------------------------------------
Label_5_017D2AE6:
 BYTE   N12  Fn1  v100
 BYTE   W12
 BYTE   Cn2
 BYTE   W12
 BYTE   Fn2
 BYTE   W72
 BYTE   PEND 
// 002   ----------------------------------------
 BYTE   W96
// 003   ----------------------------------------
 BYTE   W96
// 004   ----------------------------------------
 BYTE   W96
// 005   ----------------------------------------
 BYTE   W96
 BYTE   PATT
  POIN2 Label_5_017D2AE6
 BYTE   PATT
  POIN2 Label_5_017D2AE6
// 006   ----------------------------------------
 BYTE   W96
// 007   ----------------------------------------
 BYTE   W96
// 008   ----------------------------------------
 BYTE   W96
// 009   ----------------------------------------
 BYTE   W96
 BYTE   PATT
  POIN2 Label_5_017D2AE6
 BYTE   PATT
  POIN2 Label_5_017D2AE6
// 010   ----------------------------------------
 BYTE   W96
// 011   ----------------------------------------
 BYTE   W96
// 012   ----------------------------------------
 BYTE   W96
// 013   ----------------------------------------
 BYTE   W96
 BYTE   PATT
  POIN2 Label_5_017D2AE6
 BYTE   PATT
  POIN2 Label_5_017D2AE6
// 014   ----------------------------------------
 BYTE   W96
// 015   ----------------------------------------
 BYTE   W96
// 016   ----------------------------------------
 BYTE   W96
// 017   ----------------------------------------
 BYTE   W96
// 018   ----------------------------------------
 BYTE   GoTo
  POIN2 Label_5_017D2ADC
 BYTE   FINE

//**************** Track 7 (Midi-Chn.6) ****************//

SuperMarioBros2UnderworldPandan_007:
// 000   ----------------------------------------
 BYTE   VOL   60*SuperMarioBros2UnderworldPandan_mvl/mxv
 BYTE   KEYSH   SuperMarioBros2UnderworldPandan_key+0
Label_6_017D2B28:
 BYTE   VOICE   33
 BYTE   N09  Fn1  v100
 BYTE   W12
 BYTE   Cn2
 BYTE   W12
 BYTE   Fn2
 BYTE   W12
 BYTE   An2
 BYTE   W24
 BYTE   As2
 BYTE   W12
 BYTE   Fn2
 BYTE   W12
 BYTE   Cn2
 BYTE   W12
// 001   ----------------------------------------
Label_6_017D2B3A:
 BYTE   N09  Fn1  v100
 BYTE   W12
 BYTE   Cn2
 BYTE   W12
 BYTE   Fn2
 BYTE   W12
 BYTE   An2
 BYTE   W24
 BYTE   Gs2
 BYTE   W12
 BYTE   Fn2
 BYTE   W12
 BYTE   Cn2
 BYTE   W12
 BYTE   PEND 
// 002   ----------------------------------------
Label_6_017D2B4B:
 BYTE   N09  Fn1  v100
 BYTE   W12
 BYTE   Cn2
 BYTE   W12
 BYTE   Fn2
 BYTE   W12
 BYTE   Cn2
 BYTE   W24
 BYTE   Gs2
 BYTE   W12
 BYTE   Fn2
 BYTE   W12
 BYTE   Cn2
 BYTE   W12
 BYTE   PEND 
 BYTE   PATT
  POIN2 Label_6_017D2B4B
 BYTE   PATT
  POIN2 Label_6_017D2B4B
 BYTE   PATT
  POIN2 Label_6_017D2B4B
// 003   ----------------------------------------
Label_6_017D2B6B:
 BYTE   N09  Fn1  v100
 BYTE   W12
 BYTE   Cn2
 BYTE   W12
 BYTE   Fn2
 BYTE   W12
 BYTE   An2
 BYTE   W24
 BYTE   As2
 BYTE   W12
 BYTE   Fn2
 BYTE   W12
 BYTE   Cn2
 BYTE   W12
 BYTE   PEND 
 BYTE   PATT
  POIN2 Label_6_017D2B3A
 BYTE   PATT
  POIN2 Label_6_017D2B4B
 BYTE   PATT
  POIN2 Label_6_017D2B4B
 BYTE   PATT
  POIN2 Label_6_017D2B4B
 BYTE   PATT
  POIN2 Label_6_017D2B4B
 BYTE   PATT
  POIN2 Label_6_017D2B6B
 BYTE   PATT
  POIN2 Label_6_017D2B3A
 BYTE   PATT
  POIN2 Label_6_017D2B4B
 BYTE   PATT
  POIN2 Label_6_017D2B4B
 BYTE   PATT
  POIN2 Label_6_017D2B4B
 BYTE   PATT
  POIN2 Label_6_017D2B4B
 BYTE   PATT
  POIN2 Label_6_017D2B6B
 BYTE   PATT
  POIN2 Label_6_017D2B3A
 BYTE   PATT
  POIN2 Label_6_017D2B4B
 BYTE   PATT
  POIN2 Label_6_017D2B4B
 BYTE   PATT
  POIN2 Label_6_017D2B4B
 BYTE   PATT
  POIN2 Label_6_017D2B4B
// 004   ----------------------------------------
 BYTE   GoTo
  POIN2 Label_6_017D2B28
 BYTE   FINE

//**************** Track 8 (Midi-Chn.7) ****************//

SuperMarioBros2UnderworldPandan_008:
// 000   ----------------------------------------
 BYTE   VOL   60*SuperMarioBros2UnderworldPandan_mvl/mxv
 BYTE   KEYSH   SuperMarioBros2UnderworldPandan_key+0
Label_7_017D2BDC:
 BYTE   N12  Fn4  v100
 BYTE   W18
 BYTE   N03  En4
 BYTE   W03
 BYTE   N03
 BYTE   W03
 BYTE   N12
 BYTE   W12
 BYTE   N12
 BYTE   W24
 BYTE   Fn4
 BYTE   W12
 BYTE   N12
 BYTE   W12
 BYTE   N12
 BYTE   W12
 BYTE   PEND 
 BYTE   PATT
  POIN2 Label_7_017D2BDC
 BYTE   PATT
  POIN2 Label_7_017D2BDC
 BYTE   PATT
  POIN2 Label_7_017D2BDC
 BYTE   PATT
  POIN2 Label_7_017D2BDC
 BYTE   PATT
  POIN2 Label_7_017D2BDC
 BYTE   PATT
  POIN2 Label_7_017D2BDC
 BYTE   PATT
  POIN2 Label_7_017D2BDC
 BYTE   PATT
  POIN2 Label_7_017D2BDC
 BYTE   PATT
  POIN2 Label_7_017D2BDC
 BYTE   PATT
  POIN2 Label_7_017D2BDC
 BYTE   PATT
  POIN2 Label_7_017D2BDC
 BYTE   PATT
  POIN2 Label_7_017D2BDC
 BYTE   PATT
  POIN2 Label_7_017D2BDC
 BYTE   PATT
  POIN2 Label_7_017D2BDC
 BYTE   PATT
  POIN2 Label_7_017D2BDC
 BYTE   PATT
  POIN2 Label_7_017D2BDC
 BYTE   PATT
  POIN2 Label_7_017D2BDC
 BYTE   PATT
  POIN2 Label_7_017D2BDC
 BYTE   PATT
  POIN2 Label_7_017D2BDC
 BYTE   PATT
  POIN2 Label_7_017D2BDC
 BYTE   PATT
  POIN2 Label_7_017D2BDC
 BYTE   PATT
  POIN2 Label_7_017D2BDC
 BYTE   PATT
  POIN2 Label_7_017D2BDC
// 001   ----------------------------------------
 BYTE   GoTo
  POIN2 Label_7_017D2BDC
 BYTE   FINE

//******************************************************//
	ALIGN 4

SuperMarioBros2UnderworldPandan:
	BYTE	8	// NumTrks
	BYTE	0	// NumBlks
	BYTE	SuperMarioBros2UnderworldPandan_pri	// Priority
	BYTE	SuperMarioBros2UnderworldPandan_rev	// Reverb.
    
	POIN2	SuperMarioBros2UnderworldPandan_grp
    
	POIN2	SuperMarioBros2UnderworldPandan_001
	POIN2	SuperMarioBros2UnderworldPandan_002
	POIN2	SuperMarioBros2UnderworldPandan_003
	POIN2	SuperMarioBros2UnderworldPandan_004
	POIN2	SuperMarioBros2UnderworldPandan_005
	POIN2	SuperMarioBros2UnderworldPandan_006
	POIN2	SuperMarioBros2UnderworldPandan_007
	POIN2	SuperMarioBros2UnderworldPandan_008

	
