//Event file generated from Sappy .s format.
	#include "MPlayDef.event"

	#define	SuperMario64DireDireDocksRemixPandan_grp  voicegroup000
	#define	SuperMario64DireDireDocksRemixPandan_pri  0
	#define	SuperMario64DireDireDocksRemixPandan_rev  0
	#define	SuperMario64DireDireDocksRemixPandan_mvl  127
	#define	SuperMario64DireDireDocksRemixPandan_key  0
	#define	SuperMario64DireDireDocksRemixPandan_tbs  1
	#define	SuperMario64DireDireDocksRemixPandan_exg  0
	#define	SuperMario64DireDireDocksRemixPandan_cmp  1

	// .rodata
	//	SuperMario64DireDireDocksRemixPandan
	ALIGN 4


//**************** Track 1 (Midi-Chn.0) ****************//

SuperMario64DireDireDocksRemixPandan_001:
// 000   ----------------------------------------
 BYTE   KEYSH   SuperMario64DireDireDocksRemixPandan_key+0
Label_0_01288D66:
 BYTE   VOICE   48
 BYTE   PAN   c_v+53
 BYTE   VOL   32*SuperMario64DireDireDocksRemixPandan_mvl/mxv
 BYTE   PAN   c_v+53
 BYTE   VOL   32*SuperMario64DireDireDocksRemixPandan_mvl/mxv
 BYTE   PAN   c_v+53
 BYTE   VOL   32*SuperMario64DireDireDocksRemixPandan_mvl/mxv
 BYTE   PAN   c_v+53
 BYTE   VOL   0*SuperMario64DireDireDocksRemixPandan_mvl/mxv
 BYTE   PAN   c_v+53
 BYTE   VOL   0*SuperMario64DireDireDocksRemixPandan_mvl/mxv
 BYTE   BEND   c_v+0
 BYTE   W10
 BYTE   VOL   32*SuperMario64DireDireDocksRemixPandan_mvl/mxv
 BYTE   W01
 BYTE   TIE  Bn3  v080
 BYTE   W84
 BYTE   W01
// 001   ----------------------------------------
 BYTE   W54
 BYTE   EOT
 BYTE   W04
 BYTE   N44  Dn3
 BYTE   W36
 BYTE   W02
// 002   ----------------------------------------
Label_0_01288D8E:
 BYTE   W10
 BYTE   TIE  Cn3  v084
 BYTE   W84
 BYTE   W02
 BYTE   PEND 
// 003   ----------------------------------------
 BYTE   W56
 BYTE   W02
 BYTE   N48  Gn3  v088
 BYTE   W03
 BYTE   EOT
 BYTE   Cn3
 BYTE   W32
 BYTE   W03
// 004   ----------------------------------------
 BYTE   W10
 BYTE   TIE  Dn3  v092
 BYTE   W84
 BYTE   W02
// 005   ----------------------------------------
 BYTE   W68
 BYTE   W02
 BYTE   N17  Bn3  v072
 BYTE   W01
 BYTE   EOT
 BYTE   Dn3
 BYTE   W11
 BYTE   N14  An3  v084
 BYTE   W12
 BYTE   TIE  Gn3  v088
 BYTE   W02
// 006   ----------------------------------------
 BYTE   W96
// 007   ----------------------------------------
 BYTE   W10
 BYTE   EOT
 BYTE   TIE  Fn3  v080
 BYTE   W84
 BYTE   W02
// 008   ----------------------------------------
 BYTE   W10
 BYTE   N92  As2  v076
 BYTE   TIE  Dn3  v080
 BYTE   W02
 BYTE   EOT
 BYTE   Fn3
 BYTE   W84
// 009   ----------------------------------------
 BYTE   W10
 BYTE   N56  As2  v084
 BYTE   W04
 BYTE   EOT
 BYTE   Dn3
 BYTE   W44
 BYTE   TIE  Gn2  v080
 BYTE   W36
 BYTE   W02
// 010   ----------------------------------------
 BYTE   PATT
  POIN2 Label_0_01288D8E
// 011   ----------------------------------------
 BYTE   W10
 BYTE   N84  Dn3  v088
 BYTE   W03
 BYTE   EOT
 BYTE   Cn3
 BYTE   W80
 BYTE   W02
 BYTE   Gn2
 BYTE   W01
// 012   ----------------------------------------
 BYTE   W10
 BYTE   N92  Bn2  v080
 BYTE   TIE  Dn3  v076
 BYTE   W84
 BYTE   W02
// 013   ----------------------------------------
 BYTE   W10
 BYTE   N90  An2  v084
 BYTE   N92  Cn3  v092
 BYTE   W01
 BYTE   EOT
 BYTE   Dn3
 BYTE   W84
 BYTE   W01
// 014   ----------------------------------------
 BYTE   W10
 BYTE   N92  Gn2  v080
 BYTE   TIE  As2  v092
 BYTE   W84
 BYTE   W02
// 015   ----------------------------------------
 BYTE   W10
 BYTE   N92  Fn2  v076
 BYTE   TIE  An2  v080
 BYTE   W02
 BYTE   EOT
 BYTE   As2
 BYTE   W84
// 016   ----------------------------------------
 BYTE   W10
 BYTE   TIE  Gn2  v092
 BYTE   TIE  Bn2  v088
 BYTE   W02
 BYTE   EOT
 BYTE   An2
 BYTE   W84
// 017   ----------------------------------------
 BYTE   W96
// 018   ----------------------------------------
 BYTE   W05
 BYTE   Bn2
 BYTE   W03
 BYTE   Gn2
 BYTE   W02
 BYTE   N92  Bn2  v072
 BYTE   N92  Dn3  v096
 BYTE   W84
 BYTE   W02
// 019   ----------------------------------------
 BYTE   W10
 BYTE   An2  v088
 BYTE   N92  Cn3  v080
 BYTE   W84
 BYTE   W02
// 020   ----------------------------------------
 BYTE   W10
 BYTE   Gn2  v092
 BYTE   N88  As2
 BYTE   W84
 BYTE   W02
// 021   ----------------------------------------
 BYTE   W10
 BYTE   N92  Fn2  v088
 BYTE   N92  An2
 BYTE   W84
 BYTE   W02
// 022   ----------------------------------------
 BYTE   W10
 BYTE   TIE  Gn2  v092
 BYTE   TIE  Bn2
 BYTE   W84
 BYTE   W02
// 023   ----------------------------------------
 BYTE   W96
// 024   ----------------------------------------
 BYTE   W08
 BYTE   EOT
 BYTE   W02
 BYTE   N84  Cn3  v060
 BYTE   N92  En3  v084
 BYTE   W04
 BYTE   EOT
 BYTE   Gn2
 BYTE   W80
 BYTE   W02
// 025   ----------------------------------------
 BYTE   W10
 BYTE   N92  Bn2  v088
 BYTE   TIE  Dn3  v096
 BYTE   W84
 BYTE   W02
// 026   ----------------------------------------
 BYTE   W10
 BYTE   N88  An2  v072
 BYTE   N92  Cn3  v088
 BYTE   W02
 BYTE   EOT
 BYTE   Dn3
 BYTE   W84
// 027   ----------------------------------------
 BYTE   W10
 BYTE   TIE  Gn2  v084
 BYTE   N72  Bn2  v092
 BYTE   W72
 BYTE   N22  Dn3  v080
 BYTE   W14
// 028   ----------------------------------------
 BYTE   W10
 BYTE   N92  Cn3  v076
 BYTE   TIE  En3  v084
 BYTE   W04
 BYTE   EOT
 BYTE   Gn2
 BYTE   W80
 BYTE   W02
// 029   ----------------------------------------
 BYTE   W10
 BYTE   N92  Bn2
 BYTE   TIE  Dn3  v092
 BYTE   W01
 BYTE   EOT
 BYTE   En3
 BYTE   W84
 BYTE   W01
// 030   ----------------------------------------
 BYTE   W09
 BYTE   N80  As2  v088
 BYTE   TIE  Cs3
 BYTE   W03
 BYTE   EOT
 BYTE   Dn3
 BYTE   W84
// 031   ----------------------------------------
 BYTE   W10
 BYTE   Cs3
 BYTE   N48  An2  v084
 BYTE   N48  Cn3  v088
 BYTE   W48
 BYTE   N42  Fs2  v084
 BYTE   N02  An2  v088
 BYTE   W36
 BYTE   W02
// 032   ----------------------------------------
 BYTE   W10
 BYTE   N92  Bn2  v076
 BYTE   TIE  Dn3  v096
 BYTE   W84
 BYTE   W02
// 033   ----------------------------------------
 BYTE   W10
 BYTE   N92  An2  v084
 BYTE   TIE  Cn3  v092
 BYTE   W01
 BYTE   EOT
 BYTE   Dn3
 BYTE   W84
 BYTE   W01
// 034   ----------------------------------------
 BYTE   W10
 BYTE   TIE  Gn2
 BYTE   N90  As2
 BYTE   W02
 BYTE   EOT
 BYTE   Cn3
 BYTE   W84
// 035   ----------------------------------------
 BYTE   W10
 BYTE   TIE  Fn2
 BYTE   TIE  An2
 BYTE   W01
 BYTE   EOT
 BYTE   Gn2
 BYTE   W84
 BYTE   W01
// 036   ----------------------------------------
 BYTE   W10
 BYTE   TIE
 BYTE   TIE  Bn2  v096
 BYTE   W01
 BYTE   EOT
 BYTE   Fn2
 BYTE   W02
 BYTE   An2
 BYTE   W80
 BYTE   W03
// 037   ----------------------------------------
 BYTE   W96
// 038   ----------------------------------------
 BYTE   W04
 BYTE   Bn2
 BYTE   W03
 BYTE   Gn2
 BYTE   W03
 BYTE   TIE  Bn2  v088
 BYTE   N96  Dn3  v096
 BYTE   W84
 BYTE   W02
// 039   ----------------------------------------
 BYTE   W10
 BYTE   TIE  An2  v088
 BYTE   TIE  Cn3  v084
 BYTE   W02
 BYTE   EOT
 BYTE   Bn2
 BYTE   W84
// 040   ----------------------------------------
 BYTE   W10
 BYTE   N92  Gn2  v096
 BYTE   TIE  As2
 BYTE   W01
 BYTE   EOT
 BYTE   An2  v060
 BYTE   W84
 BYTE   W01
// 041   ----------------------------------------
 BYTE   W10
 BYTE   TIE  Fn2  v084
 BYTE   TIE  An2
 BYTE   W01
 BYTE   EOT
 BYTE   As2
 BYTE   W84
 BYTE   W01
// 042   ----------------------------------------
 BYTE   W10
 BYTE   TIE  Gn2  v092
 BYTE   TIE  Bn2  v088
 BYTE   W03
 BYTE   EOT
 BYTE   Fn2
 BYTE   W02
 BYTE   An2
 BYTE   W80
 BYTE   W01
// 043   ----------------------------------------
 BYTE   W96
// 044   ----------------------------------------
 BYTE   W05
 BYTE   Bn2
 BYTE   W06
 BYTE   Gn2
 BYTE   W44
 BYTE   W03
 BYTE   TIE  Fn2  v064
 BYTE   TIE  An2  v076
 BYTE   W36
 BYTE   W02
// 045   ----------------------------------------
 BYTE   W96
// 046   ----------------------------------------
 BYTE   W10
 BYTE   Ds2
 BYTE   TIE  Gn2  v088
 BYTE   W01
 BYTE   EOT
 BYTE   Fn2  v057
 BYTE   W84
 BYTE   W01
// 047   ----------------------------------------
 BYTE   W96
// 048   ----------------------------------------
 BYTE   W06
 BYTE   Gn2
 BYTE   W01
 BYTE   Ds2
 BYTE   W04
 BYTE   N90  Fs2  v084
 BYTE   W01
 BYTE   N88  Dn2  v080
 BYTE   W84
// 049   ----------------------------------------
 BYTE   W10
 BYTE   N36  Ds2  v068
 BYTE   N42  Gn2  v076
 BYTE   W48
 BYTE   N44  An2  v072
 BYTE   W01
 BYTE   N42  Fs2  v064
 BYTE   W36
 BYTE   W01
// 050   ----------------------------------------
 BYTE   W18
 BYTE   GoTo
  POIN2 Label_0_01288D66
// 051   ----------------------------------------
 BYTE   W78
 BYTE   VOICE   48
 BYTE   PAN   c_v+53
 BYTE   VOL   32*SuperMario64DireDireDocksRemixPandan_mvl/mxv
 BYTE   PAN   c_v+53
 BYTE   VOL   32*SuperMario64DireDireDocksRemixPandan_mvl/mxv
 BYTE   PAN   c_v+53
 BYTE   VOL   32*SuperMario64DireDireDocksRemixPandan_mvl/mxv
 BYTE   BEND   c_v+0
 BYTE   FINE

//**************** Track 2 (Midi-Chn.1) ****************//

SuperMario64DireDireDocksRemixPandan_002:
// 000   ----------------------------------------
 BYTE   KEYSH   SuperMario64DireDireDocksRemixPandan_key+0
Label_1_01288F6E:
 BYTE   VOICE   48
 BYTE   PAN   c_v-54
 BYTE   VOL   20*SuperMario64DireDireDocksRemixPandan_mvl/mxv
 BYTE   PAN   c_v-54
 BYTE   VOL   20*SuperMario64DireDireDocksRemixPandan_mvl/mxv
 BYTE   PAN   c_v-54
 BYTE   VOL   20*SuperMario64DireDireDocksRemixPandan_mvl/mxv
 BYTE   PAN   c_v-54
 BYTE   VOL   20*SuperMario64DireDireDocksRemixPandan_mvl/mxv
 BYTE   PAN   c_v-54
 BYTE   VOL   20*SuperMario64DireDireDocksRemixPandan_mvl/mxv
 BYTE   PAN   c_v-54
 BYTE   VOL   20*SuperMario64DireDireDocksRemixPandan_mvl/mxv
 BYTE   BEND   c_v+0
 BYTE   W19
 BYTE   TIE  Bn3  v060
 BYTE   W76
 BYTE   W01
// 001   ----------------------------------------
 BYTE   W60
 BYTE   W02
 BYTE   EOT
 BYTE   W04
 BYTE   N44  Dn3
 BYTE   W30
// 002   ----------------------------------------
Label_1_01288F97:
 BYTE   W18
 BYTE   TIE  Cn3  v064
 BYTE   W78
 BYTE   PEND 
// 003   ----------------------------------------
 BYTE   W66
 BYTE   N48  Gn3  v068
 BYTE   W03
 BYTE   EOT
 BYTE   Cn3
 BYTE   W24
 BYTE   W03
// 004   ----------------------------------------
 BYTE   W18
 BYTE   TIE  Dn3  v072
 BYTE   W78
// 005   ----------------------------------------
 BYTE   W78
 BYTE   N17  Bn3  v056
 BYTE   W01
 BYTE   EOT
 BYTE   Dn3
 BYTE   W11
 BYTE   N14  An3  v064
 BYTE   W06
// 006   ----------------------------------------
 BYTE   W06
 BYTE   TIE  Gn3  v068
 BYTE   W90
// 007   ----------------------------------------
 BYTE   W18
 BYTE   EOT
 BYTE   TIE  Fn3  v060
 BYTE   W78
// 008   ----------------------------------------
 BYTE   W18
 BYTE   N92  As2  v056
 BYTE   TIE  Dn3  v060
 BYTE   W02
 BYTE   EOT
 BYTE   Fn3
 BYTE   W76
// 009   ----------------------------------------
 BYTE   W18
 BYTE   N56  As2  v064
 BYTE   W04
 BYTE   EOT
 BYTE   Dn3
 BYTE   W44
 BYTE   TIE  Gn2  v060
 BYTE   W30
// 010   ----------------------------------------
 BYTE   PATT
  POIN2 Label_1_01288F97
// 011   ----------------------------------------
 BYTE   W18
 BYTE   N84  Dn3  v068
 BYTE   W03
 BYTE   EOT
 BYTE   Cn3
 BYTE   W72
 BYTE   W03
// 012   ----------------------------------------
 BYTE   W07
 BYTE   Gn2
 BYTE   W11
 BYTE   N92  Bn2  v060
 BYTE   TIE  Dn3  v056
 BYTE   W78
// 013   ----------------------------------------
 BYTE   W18
 BYTE   N90  An2  v064
 BYTE   N92  Cn3  v072
 BYTE   W01
 BYTE   EOT
 BYTE   Dn3
 BYTE   W76
 BYTE   W01
// 014   ----------------------------------------
 BYTE   W18
 BYTE   N92  Gn2  v060
 BYTE   TIE  As2  v068
 BYTE   W78
// 015   ----------------------------------------
 BYTE   W18
 BYTE   N92  Fn2  v056
 BYTE   TIE  An2  v060
 BYTE   W02
 BYTE   EOT
 BYTE   As2
 BYTE   W76
// 016   ----------------------------------------
 BYTE   W18
 BYTE   TIE  Gn2  v068
 BYTE   TIE  Bn2
 BYTE   W02
 BYTE   EOT
 BYTE   An2
 BYTE   W76
// 017   ----------------------------------------
 BYTE   W96
// 018   ----------------------------------------
 BYTE   W13
 BYTE   Bn2
 BYTE   W03
 BYTE   Gn2
 BYTE   W02
 BYTE   N92  Bn2  v056
 BYTE   N92  Dn3  v072
 BYTE   W78
// 019   ----------------------------------------
 BYTE   W18
 BYTE   An2  v068
 BYTE   N92  Cn3  v060
 BYTE   W78
// 020   ----------------------------------------
 BYTE   W18
 BYTE   Gn2  v072
 BYTE   N88  As2
 BYTE   W78
// 021   ----------------------------------------
 BYTE   W18
 BYTE   N92  Fn2  v068
 BYTE   N92  An2
 BYTE   W78
// 022   ----------------------------------------
 BYTE   W18
 BYTE   TIE  Gn2  v072
 BYTE   TIE  Bn2  v068
 BYTE   W78
// 023   ----------------------------------------
 BYTE   W96
// 024   ----------------------------------------
 BYTE   W16
 BYTE   EOT
 BYTE   W02
 BYTE   N84  Cn3  v048
 BYTE   N92  En3  v064
 BYTE   W04
 BYTE   EOT
 BYTE   Gn2
 BYTE   W72
 BYTE   W02
// 025   ----------------------------------------
 BYTE   W18
 BYTE   N92  Bn2  v068
 BYTE   TIE  Dn3  v072
 BYTE   W78
// 026   ----------------------------------------
 BYTE   W18
 BYTE   N88  An2  v056
 BYTE   N92  Cn3  v068
 BYTE   W02
 BYTE   EOT
 BYTE   Dn3
 BYTE   W76
// 027   ----------------------------------------
 BYTE   W18
 BYTE   TIE  Gn2  v064
 BYTE   N72  Bn2  v068
 BYTE   W72
 BYTE   N22  Dn3  v060
 BYTE   W06
// 028   ----------------------------------------
 BYTE   W18
 BYTE   N92  Cn3  v056
 BYTE   TIE  En3  v064
 BYTE   W04
 BYTE   EOT
 BYTE   Gn2
 BYTE   W72
 BYTE   W02
// 029   ----------------------------------------
 BYTE   W18
 BYTE   N92  Bn2
 BYTE   TIE  Dn3  v072
 BYTE   W01
 BYTE   EOT
 BYTE   En3
 BYTE   W76
 BYTE   W01
// 030   ----------------------------------------
 BYTE   W17
 BYTE   N80  As2  v068
 BYTE   TIE  Cs3
 BYTE   W03
 BYTE   EOT
 BYTE   Dn3
 BYTE   W76
// 031   ----------------------------------------
 BYTE   W18
 BYTE   Cs3
 BYTE   N48  An2  v064
 BYTE   N48  Cn3  v068
 BYTE   W48
 BYTE   N42  Fs2  v064
 BYTE   N02  An2  v068
 BYTE   W30
// 032   ----------------------------------------
 BYTE   W18
 BYTE   N92  Bn2  v060
 BYTE   TIE  Dn3  v072
 BYTE   W78
// 033   ----------------------------------------
 BYTE   W18
 BYTE   N92  An2  v064
 BYTE   TIE  Cn3  v068
 BYTE   W01
 BYTE   EOT
 BYTE   Dn3
 BYTE   W76
 BYTE   W01
// 034   ----------------------------------------
 BYTE   W18
 BYTE   TIE  Gn2
 BYTE   N90  As2  v072
 BYTE   W02
 BYTE   EOT
 BYTE   Cn3
 BYTE   W76
// 035   ----------------------------------------
 BYTE   W18
 BYTE   TIE  Fn2  v068
 BYTE   TIE  An2
 BYTE   W01
 BYTE   EOT
 BYTE   Gn2
 BYTE   W76
 BYTE   W01
// 036   ----------------------------------------
 BYTE   W18
 BYTE   TIE  Gn2  v072
 BYTE   TIE  Bn2
 BYTE   W01
 BYTE   EOT
 BYTE   Fn2
 BYTE   W02
 BYTE   An2
 BYTE   W72
 BYTE   W03
// 037   ----------------------------------------
 BYTE   W96
// 038   ----------------------------------------
 BYTE   W12
 BYTE   Bn2
 BYTE   W03
 BYTE   Gn2
 BYTE   W03
 BYTE   TIE  Bn2  v068
 BYTE   N96  Dn3  v072
 BYTE   W78
// 039   ----------------------------------------
 BYTE   W18
 BYTE   TIE  An2  v068
 BYTE   TIE  Cn3  v064
 BYTE   W02
 BYTE   EOT
 BYTE   Bn2
 BYTE   W76
// 040   ----------------------------------------
 BYTE   W18
 BYTE   N92  Gn2  v072
 BYTE   TIE  As2
 BYTE   W01
 BYTE   EOT
 BYTE   An2  v060
 BYTE   W76
 BYTE   W01
// 041   ----------------------------------------
 BYTE   W18
 BYTE   TIE  Fn2  v064
 BYTE   TIE  An2
 BYTE   W01
 BYTE   EOT
 BYTE   As2
 BYTE   W76
 BYTE   W01
// 042   ----------------------------------------
 BYTE   W18
 BYTE   TIE  Gn2  v072
 BYTE   TIE  Bn2  v068
 BYTE   W03
 BYTE   EOT
 BYTE   Fn2
 BYTE   W02
 BYTE   An2
 BYTE   W72
 BYTE   W01
// 043   ----------------------------------------
 BYTE   W96
// 044   ----------------------------------------
 BYTE   W13
 BYTE   Bn2
 BYTE   W06
 BYTE   Gn2
 BYTE   W44
 BYTE   W03
 BYTE   TIE  Fn2  v048
 BYTE   TIE  An2  v056
 BYTE   W30
// 045   ----------------------------------------
 BYTE   W96
// 046   ----------------------------------------
 BYTE   W18
 BYTE   Ds2  v060
 BYTE   TIE  Gn2  v068
 BYTE   W01
 BYTE   EOT
 BYTE   Fn2  v057
 BYTE   W76
 BYTE   W01
// 047   ----------------------------------------
 BYTE   W96
// 048   ----------------------------------------
 BYTE   W14
 BYTE   Gn2
 BYTE   W01
 BYTE   Ds2
 BYTE   W04
 BYTE   N90  Fs2  v064
 BYTE   W01
 BYTE   N88  Dn2  v060
 BYTE   W76
// 049   ----------------------------------------
 BYTE   W18
 BYTE   N36  Ds2  v052
 BYTE   N42  Gn2  v060
 BYTE   W48
 BYTE   N40  An2  v056
 BYTE   W01
 BYTE   N36  Fs2  v048
 BYTE   W28
 BYTE   W01
// 050   ----------------------------------------
 BYTE   W18
 BYTE   GoTo
  POIN2 Label_1_01288F6E
// 051   ----------------------------------------
 BYTE   W78
 BYTE   VOICE   48
 BYTE   PAN   c_v-54
 BYTE   VOL   20*SuperMario64DireDireDocksRemixPandan_mvl/mxv
 BYTE   PAN   c_v-54
 BYTE   VOL   20*SuperMario64DireDireDocksRemixPandan_mvl/mxv
 BYTE   PAN   c_v-54
 BYTE   VOL   20*SuperMario64DireDireDocksRemixPandan_mvl/mxv
 BYTE   BEND   c_v+0
 BYTE   FINE

//**************** Track 3 (Midi-Chn.2) ****************//

SuperMario64DireDireDocksRemixPandan_003:
// 000   ----------------------------------------
 BYTE   KEYSH   SuperMario64DireDireDocksRemixPandan_key+0
Label_2_0128916A:
 BYTE   VOICE   33
 BYTE   PAN   c_v-4
 BYTE   VOL   41*SuperMario64DireDireDocksRemixPandan_mvl/mxv
 BYTE   PAN   c_v-4
 BYTE   VOL   41*SuperMario64DireDireDocksRemixPandan_mvl/mxv
 BYTE   PAN   c_v-4
 BYTE   VOL   41*SuperMario64DireDireDocksRemixPandan_mvl/mxv
 BYTE   PAN   c_v-4
 BYTE   VOL   41*SuperMario64DireDireDocksRemixPandan_mvl/mxv
 BYTE   PAN   c_v-4
 BYTE   VOL   41*SuperMario64DireDireDocksRemixPandan_mvl/mxv
 BYTE   PAN   c_v-4
 BYTE   VOL   41*SuperMario64DireDireDocksRemixPandan_mvl/mxv
 BYTE   BEND   c_v+0
 BYTE   W10
 BYTE   N21  Gn1  v104
 BYTE   W12
 BYTE   N14  Dn2  v092
 BYTE   W12
 BYTE   N10  Gn2  v104
 BYTE   W12
 BYTE   N13  Gn2  v108
 BYTE   W24
 BYTE   N19  Gn1  v100
 BYTE   W12
 BYTE   N14  Dn2
 BYTE   W12
 BYTE   TIE  Gn2  v104
 BYTE   W02
// 001   ----------------------------------------
 BYTE   W96
// 002   ----------------------------------------
 BYTE   W08
 BYTE   EOT
 BYTE   W02
 BYTE   N17  Fn1
 BYTE   W12
 BYTE   N15  Cn2  v096
 BYTE   W12
 BYTE   N09  Fn2  v100
 BYTE   W12
 BYTE   N13  Fn2  v092
 BYTE   W24
 BYTE   N14  Fn1  v100
 BYTE   W12
 BYTE   N12  Cn2  v092
 BYTE   W12
 BYTE   TIE  Fn2  v096
 BYTE   W02
// 003   ----------------------------------------
 BYTE   W96
// 004   ----------------------------------------
 BYTE   W07
 BYTE   EOT
 BYTE   W03
 BYTE   N24  Gn1  v104
 BYTE   W12
 BYTE   N04  Dn2  v100
 BYTE   W12
 BYTE   N10  Gn2  v104
 BYTE   W12
 BYTE   N12
 BYTE   W24
 BYTE   N19  Gn1  v100
 BYTE   W12
 BYTE   N14  Dn2
 BYTE   W12
 BYTE   TIE  Gn2  v104
 BYTE   W02
// 005   ----------------------------------------
 BYTE   W96
// 006   ----------------------------------------
 BYTE   W08
 BYTE   EOT
 BYTE   W02
 BYTE   N23  Fn1  v100
 BYTE   W12
 BYTE   N11  Cn2  v076
 BYTE   W12
 BYTE   N09  Fn2  v100
 BYTE   W12
 BYTE   N12  Fn2  v088
 BYTE   W24
 BYTE   Fn1  v104
 BYTE   W12
 BYTE   N14  Cn2  v096
 BYTE   W12
 BYTE   TIE  Fn2
 BYTE   W02
// 007   ----------------------------------------
 BYTE   W96
// 008   ----------------------------------------
 BYTE   W05
 BYTE   EOT
 BYTE   W05
 BYTE   N28  Ds1  v100
 BYTE   W12
 BYTE   N09  As1  v096
 BYTE   W12
 BYTE   Ds2  v104
 BYTE   W12
 BYTE   N10  Ds2  v096
 BYTE   W24
 BYTE   N18  Ds1  v100
 BYTE   W12
 BYTE   N13  As1  v088
 BYTE   W12
 BYTE   TIE  Ds2  v100
 BYTE   W02
// 009   ----------------------------------------
 BYTE   W80
 BYTE   W02
 BYTE   N20  Ds1  v096
 BYTE   W14
// 010   ----------------------------------------
 BYTE   W02
 BYTE   EOT
 BYTE   Ds2
 BYTE   W08
 BYTE   N36  Fn1  v104
 BYTE   W12
 BYTE   N10  Cn2  v088
 BYTE   W12
 BYTE   N08  Fn2  v096
 BYTE   W12
 BYTE   N13  Fn2  v080
 BYTE   W24
 BYTE   Fn1  v104
 BYTE   W12
 BYTE   N15  Cn2  v092
 BYTE   W12
 BYTE   N60  Fn2  v100
 BYTE   W02
// 011   ----------------------------------------
 BYTE   W56
 BYTE   W02
 BYTE   N44  Cn2
 BYTE   W36
 BYTE   W02
// 012   ----------------------------------------
Label_2_01289246:
 BYTE   W10
 BYTE   N36  Gn1  v100
 BYTE   W12
 BYTE   N11  Dn2  v096
 BYTE   W12
 BYTE   N08  Gn2  v100
 BYTE   W12
 BYTE   N17  Gn2  v092
 BYTE   W24
 BYTE   N24  Gn1  v096
 BYTE   W12
 BYTE   N13  Gn2  v104
 BYTE   W12
 BYTE   Dn2  v092
 BYTE   W02
 BYTE   PEND 
// 013   ----------------------------------------
 BYTE   W10
 BYTE   N28  Gn1  v100
 BYTE   W12
 BYTE   N08  Dn2  v084
 BYTE   W18
 BYTE   N02  Gn2  v088
 BYTE   W06
 BYTE   N13  Fn2  v100
 BYTE   W30
 BYTE   N19  Fn1  v092
 BYTE   W06
 BYTE   N14  Fn2  v104
 BYTE   W12
 BYTE   N13  Cn2  v096
 BYTE   W02
// 014   ----------------------------------------
 BYTE   W10
 BYTE   N40  Ds1
 BYTE   W12
 BYTE   N11  As1  v100
 BYTE   W12
 BYTE   N09  Ds2
 BYTE   W12
 BYTE   N12  Ds2  v104
 BYTE   W24
 BYTE   N24  Ds1  v100
 BYTE   W12
 BYTE   N13  Ds2
 BYTE   W12
 BYTE   N10  As1
 BYTE   W02
// 015   ----------------------------------------
 BYTE   W10
 BYTE   N40  Fn1
 BYTE   W12
 BYTE   N10  Cn2  v104
 BYTE   W12
 BYTE   N09  Fn2  v096
 BYTE   W12
 BYTE   N12  Fn2  v100
 BYTE   W24
 BYTE   N21  Fn1
 BYTE   W12
 BYTE   N14  Fn2
 BYTE   W12
 BYTE   N13  Cn2  v096
 BYTE   W02
// 016   ----------------------------------------
 BYTE   W10
 BYTE   N44  Gn1  v104
 BYTE   W12
 BYTE   N10  Dn2  v084
 BYTE   W12
 BYTE   Gn2  v104
 BYTE   W12
 BYTE   N15  Gn2  v092
 BYTE   W24
 BYTE   N20  Gn1  v104
 BYTE   W12
 BYTE   N10  Dn2  v064
 BYTE   W12
 BYTE   N12  Gn2  v104
 BYTE   W02
// 017   ----------------------------------------
 BYTE   W10
 BYTE   N44  Gn1  v096
 BYTE   W12
 BYTE   N09  Dn2  v088
 BYTE   W12
 BYTE   Gn2  v100
 BYTE   W12
 BYTE   N11  Gn2  v056
 BYTE   W24
 BYTE   N13  Gn1  v104
 BYTE   W12
 BYTE   N16  Gn2  v100
 BYTE   W12
 BYTE   N14  Dn3  v092
 BYTE   W02
// 018   ----------------------------------------
 BYTE   W10
 BYTE   N48  Gn1  v104
 BYTE   W12
 BYTE   N03  Dn2  v088
 BYTE   W12
 BYTE   N09  Gn2  v100
 BYTE   W12
 BYTE   N10  Gn2  v092
 BYTE   W24
 BYTE   N24  Gn1  v104
 BYTE   W12
 BYTE   Gn2
 BYTE   W12
 BYTE   N13  Dn2  v092
 BYTE   W02
// 019   ----------------------------------------
 BYTE   W10
 BYTE   N44  Fn1  v104
 BYTE   W12
 BYTE   N11  Cn2  v100
 BYTE   W12
 BYTE   N10  Fn2  v092
 BYTE   W12
 BYTE   N16
 BYTE   W24
 BYTE   N22  Fn1  v100
 BYTE   W12
 BYTE   N15  Fn2
 BYTE   W12
 BYTE   N13  Cn2  v092
 BYTE   W02
// 020   ----------------------------------------
 BYTE   W10
 BYTE   N42  Ds1  v096
 BYTE   W12
 BYTE   N10  As1  v092
 BYTE   W12
 BYTE   N09  Ds2  v100
 BYTE   W12
 BYTE   N12  Ds2  v088
 BYTE   W24
 BYTE   N23  Ds1  v100
 BYTE   W12
 BYTE   N18  Ds2
 BYTE   W12
 BYTE   N12  As1  v092
 BYTE   W02
// 021   ----------------------------------------
 BYTE   W10
 BYTE   N44  Fn1  v100
 BYTE   W12
 BYTE   N12  Cn2
 BYTE   W12
 BYTE   N09  Fn2  v096
 BYTE   W12
 BYTE   N13  Fn2  v100
 BYTE   W24
 BYTE   N24  Fn1
 BYTE   W12
 BYTE   N21  Fn2  v096
 BYTE   W12
 BYTE   N14  Cn2
 BYTE   W02
// 022   ----------------------------------------
 BYTE   W10
 BYTE   N52  Gn1  v100
 BYTE   W12
 BYTE   N10  Dn2  v096
 BYTE   W12
 BYTE   N09  Gn2  v104
 BYTE   W12
 BYTE   N12  Gn2  v092
 BYTE   W24
 BYTE   N21  Gn1  v104
 BYTE   W12
 BYTE   N12  Gn2  v100
 BYTE   W12
 BYTE   N13  Dn2  v092
 BYTE   W02
// 023   ----------------------------------------
 BYTE   W10
 BYTE   N80  Gn1  v104
 BYTE   W12
 BYTE   N09  Dn2  v092
 BYTE   W12
 BYTE   N10  Gn2
 BYTE   W12
 BYTE   N24  Dn3  v104
 BYTE   W24
 BYTE   N32  Dn2  v076
 BYTE   W12
 BYTE   N24  Gn2  v096
 BYTE   W14
// 024   ----------------------------------------
 BYTE   W10
 BYTE   N78  Cn2  v044
 BYTE   W24
 BYTE   N09  Gn2  v084
 BYTE   W12
 BYTE   N13  Cn3  v104
 BYTE   W24
 BYTE   N36  Cn3  v100
 BYTE   W24
 BYTE   W02
// 025   ----------------------------------------
 BYTE   W10
 BYTE   N90  Bn1  v104
 BYTE   W12
 BYTE   N09  Dn2  v072
 BYTE   W12
 BYTE   N08  Bn2  v100
 BYTE   W12
 BYTE   N13  Bn2  v108
 BYTE   W24
 BYTE   N32  Bn2  v100
 BYTE   W24
 BYTE   W02
// 026   ----------------------------------------
 BYTE   W10
 BYTE   N88  An1
 BYTE   W12
 BYTE   N13  En2  v088
 BYTE   W12
 BYTE   N11  Cn3  v100
 BYTE   W12
 BYTE   N12  Cn3  v104
 BYTE   W24
 BYTE   N30  Cn3  v100
 BYTE   W24
 BYTE   W02
// 027   ----------------------------------------
 BYTE   W10
 BYTE   N96  Gn1  v104
 BYTE   W12
 BYTE   N11  Dn2  v084
 BYTE   W12
 BYTE   N10  Bn2  v100
 BYTE   W12
 BYTE   N12  Bn2  v084
 BYTE   W24
 BYTE   N28  Bn2  v104
 BYTE   W24
 BYTE   W02
// 028   ----------------------------------------
 BYTE   W10
 BYTE   N90  Cn2  v100
 BYTE   W12
 BYTE   N11  En2  v088
 BYTE   W12
 BYTE   N10  Cn3  v096
 BYTE   W12
 BYTE   N12
 BYTE   W24
 BYTE   N32
 BYTE   W24
 BYTE   W02
// 029   ----------------------------------------
 BYTE   W10
 BYTE   N92  Bn1
 BYTE   W12
 BYTE   N11  Dn2  v088
 BYTE   W12
 BYTE   N09  Bn2  v092
 BYTE   W12
 BYTE   N15  Bn2  v084
 BYTE   W24
 BYTE   N36  Bn2  v100
 BYTE   W24
 BYTE   W02
// 030   ----------------------------------------
 BYTE   W10
 BYTE   N84  As1  v096
 BYTE   W12
 BYTE   N08  Dn2  v080
 BYTE   W12
 BYTE   N09  As2  v088
 BYTE   W12
 BYTE   N15  As2  v100
 BYTE   W24
 BYTE   N32
 BYTE   W24
 BYTE   W02
// 031   ----------------------------------------
 BYTE   W10
 BYTE   N44  An1  v096
 BYTE   W12
 BYTE   N14  En2  v072
 BYTE   W12
 BYTE   N18  Gn2  v092
 BYTE   W36
 BYTE   N32  Dn2
 BYTE   W12
 BYTE   N23  Gn2  v088
 BYTE   W14
// 032   ----------------------------------------
 BYTE   PATT
  POIN2 Label_2_01289246
// 033   ----------------------------------------
 BYTE   W10
 BYTE   N44  Fn1  v100
 BYTE   W12
 BYTE   N11  Cn2  v088
 BYTE   W12
 BYTE   N08  Fn2
 BYTE   W12
 BYTE   N18  Fn2  v084
 BYTE   W24
 BYTE   N28  Fn1
 BYTE   W12
 BYTE   N22  Cn2  v088
 BYTE   W12
 BYTE   N11  Fn2  v084
 BYTE   W02
// 034   ----------------------------------------
 BYTE   W10
 BYTE   N44  Ds1  v096
 BYTE   W12
 BYTE   N10  As1  v092
 BYTE   W12
 BYTE   N08  Ds2  v096
 BYTE   W12
 BYTE   N15  Ds2  v104
 BYTE   W24
 BYTE   N23  Ds1  v096
 BYTE   W12
 BYTE   N19  Ds2
 BYTE   W12
 BYTE   N12  As1  v080
 BYTE   W02
// 035   ----------------------------------------
 BYTE   W10
 BYTE   N44  Fn1  v100
 BYTE   W12
 BYTE   N12  Cn2  v092
 BYTE   W12
 BYTE   N10  Fn2  v096
 BYTE   W12
 BYTE   N15  Fn2  v084
 BYTE   W24
 BYTE   N24  Fn1  v096
 BYTE   W12
 BYTE   N22  Fn2  v092
 BYTE   W12
 BYTE   N12  Cn2
 BYTE   W02
// 036   ----------------------------------------
 BYTE   W10
 BYTE   N44  Gn1  v100
 BYTE   W12
 BYTE   N12  Dn2  v096
 BYTE   W12
 BYTE   N10  Gn2  v100
 BYTE   W12
 BYTE   N17  Gn2  v104
 BYTE   W24
 BYTE   N22  Gn1  v100
 BYTE   W12
 BYTE   N24  Gn2
 BYTE   W12
 BYTE   N12  Dn2  v092
 BYTE   W02
// 037   ----------------------------------------
 BYTE   W10
 BYTE   N52  Gn1  v100
 BYTE   W12
 BYTE   N12  Dn2  v092
 BYTE   W12
 BYTE   N10  Gn2  v100
 BYTE   W12
 BYTE   N13  Gn2  v096
 BYTE   W24
 BYTE   N21  Gn1  v092
 BYTE   W12
 BYTE   Dn2
 BYTE   W12
 BYTE   N10  Gn2  v088
 BYTE   W02
// 038   ----------------------------------------
 BYTE   W10
 BYTE   N48  Gn1  v104
 BYTE   W12
 BYTE   N16  Dn2  v096
 BYTE   W12
 BYTE   N09  Gn2  v100
 BYTE   W12
 BYTE   N20
 BYTE   W24
 BYTE   N24  Gn1  v104
 BYTE   W12
 BYTE   N23  Dn2  v092
 BYTE   W12
 BYTE   N13  Gn2  v100
 BYTE   W02
// 039   ----------------------------------------
 BYTE   W10
 BYTE   N44  Fn1  v096
 BYTE   W12
 BYTE   N14  Cn2  v100
 BYTE   W12
 BYTE   N09  Fn2  v096
 BYTE   W12
 BYTE   N16  Fn2  v104
 BYTE   W24
 BYTE   N22  Fn1  v100
 BYTE   W12
 BYTE   N15  Fn2
 BYTE   W12
 BYTE   N13  Cn2  v096
 BYTE   W02
// 040   ----------------------------------------
 BYTE   W10
 BYTE   N44  Ds1
 BYTE   W18
 BYTE   N04  An1  v092
 BYTE   W06
 BYTE   N09  Ds2  v100
 BYTE   W12
 BYTE   N12  Ds2  v096
 BYTE   W24
 BYTE   N23  Ds1
 BYTE   W12
 BYTE   N19  Ds2  v100
 BYTE   W12
 BYTE   N12  As1  v092
 BYTE   W02
// 041   ----------------------------------------
 BYTE   W10
 BYTE   N48  Fn1  v100
 BYTE   W12
 BYTE   N14  Cn2
 BYTE   W12
 BYTE   N09  Fn2  v092
 BYTE   W12
 BYTE   N16  Fn2  v088
 BYTE   W24
 BYTE   N23  Fn1  v100
 BYTE   W12
 BYTE   N20  Fn2  v096
 BYTE   W12
 BYTE   N14  Cn2  v092
 BYTE   W02
// 042   ----------------------------------------
 BYTE   W10
 BYTE   N44  Gn1  v100
 BYTE   W12
 BYTE   N11  Dn2  v076
 BYTE   W12
 BYTE   N09  Gn2  v104
 BYTE   W12
 BYTE   N18
 BYTE   W24
 BYTE   N22  Gn1  v100
 BYTE   W12
 BYTE   N16  Dn2  v092
 BYTE   W12
 BYTE   N13  Gn2
 BYTE   W02
// 043   ----------------------------------------
 BYTE   W10
 BYTE   N84  Gn1
 BYTE   W12
 BYTE   N12  Dn2  v084
 BYTE   W12
 BYTE   N11  Gn2  v096
 BYTE   W12
 BYTE   N36  Dn3  v100
 BYTE   W24
 BYTE   N32  Dn2  v060
 BYTE   W12
 BYTE   N24  Gn2  v092
 BYTE   W12
 BYTE   N11  Dn3  v088
 BYTE   W02
// 044   ----------------------------------------
 BYTE   W10
 BYTE   N48  Fn1  v100
 BYTE   W12
 BYTE   N12  Cn2  v092
 BYTE   W12
 BYTE   N10  Fn2  v100
 BYTE   W12
 BYTE   N11  Cn2
 BYTE   W24
 BYTE   N19  Fn1  v096
 BYTE   W12
 BYTE   N16  Fn2  v088
 BYTE   W12
 BYTE   N10  Cn2  v084
 BYTE   W02
// 045   ----------------------------------------
 BYTE   W10
 BYTE   N80  Fn1  v104
 BYTE   W12
 BYTE   N12  Cn2  v092
 BYTE   W12
 BYTE   N32  Fn2  v088
 BYTE   W12
 BYTE   N56  Cn3  v096
 BYTE   W48
 BYTE   W02
// 046   ----------------------------------------
 BYTE   W10
 BYTE   N48  Ds1  v100
 BYTE   W12
 BYTE   N12  As1  v092
 BYTE   W12
 BYTE   N10  Ds2  v100
 BYTE   W12
 BYTE   N11  As1
 BYTE   W24
 BYTE   N19  Ds1  v096
 BYTE   W12
 BYTE   N16  Ds2  v088
 BYTE   W12
 BYTE   N10  As1  v084
 BYTE   W02
// 047   ----------------------------------------
 BYTE   W10
 BYTE   N80  Ds1  v100
 BYTE   W12
 BYTE   N12  As1  v096
 BYTE   W12
 BYTE   N22  Ds2
 BYTE   W12
 BYTE   N60  As2  v092
 BYTE   W48
 BYTE   W02
// 048   ----------------------------------------
 BYTE   W10
 BYTE   N54  Dn1  v100
 BYTE   W12
 BYTE   N12  An1  v092
 BYTE   W12
 BYTE   N17  Dn2
 BYTE   W12
 BYTE   N09  An1
 BYTE   W24
 BYTE   N17  Dn1  v104
 BYTE   W12
 BYTE   N12  Dn2  v084
 BYTE   W12
 BYTE   N10  An1  v088
 BYTE   W02
// 049   ----------------------------------------
 BYTE   W10
 BYTE   N18  Dn1  v092
 BYTE   W12
 BYTE   N07  An1  v096
 BYTE   W12
 BYTE   N01  Dn2  v080
 BYTE   W12
 BYTE   N36  Dn2  v096
 BYTE   W24
 BYTE   N14  An2  v092
 BYTE   W12
 BYTE   N24  Dn3  v104
 BYTE   W14
// 050   ----------------------------------------
 BYTE   W18
 BYTE   GoTo
  POIN2 Label_2_0128916A
// 051   ----------------------------------------
 BYTE   W78
 BYTE   VOICE   33
 BYTE   PAN   c_v-4
 BYTE   VOL   41*SuperMario64DireDireDocksRemixPandan_mvl/mxv
 BYTE   PAN   c_v-4
 BYTE   VOL   41*SuperMario64DireDireDocksRemixPandan_mvl/mxv
 BYTE   PAN   c_v-4
 BYTE   VOL   41*SuperMario64DireDireDocksRemixPandan_mvl/mxv
 BYTE   BEND   c_v+0
 BYTE   FINE

//**************** Track 4 (Midi-Chn.3) ****************//

SuperMario64DireDireDocksRemixPandan_004:
// 000   ----------------------------------------
 BYTE   KEYSH   SuperMario64DireDireDocksRemixPandan_key+0
Label_3_0128960A:
 BYTE   VOICE   121
 BYTE   PAN   c_v+0
 BYTE   VOL   31*SuperMario64DireDireDocksRemixPandan_mvl/mxv
 BYTE   PAN   c_v+0
 BYTE   VOL   31*SuperMario64DireDireDocksRemixPandan_mvl/mxv
 BYTE   PAN   c_v+0
 BYTE   VOL   31*SuperMario64DireDireDocksRemixPandan_mvl/mxv
 BYTE   PAN   c_v+0
 BYTE   VOL   31*SuperMario64DireDireDocksRemixPandan_mvl/mxv
 BYTE   PAN   c_v+0
 BYTE   VOL   31*SuperMario64DireDireDocksRemixPandan_mvl/mxv
 BYTE   PAN   c_v+0
 BYTE   VOL   31*SuperMario64DireDireDocksRemixPandan_mvl/mxv
 BYTE   BEND   c_v+0
 BYTE   W10
 BYTE   N28  Cn1  v104
 BYTE   N01  Fs1  v108
 BYTE   W06
 BYTE   Fs1  v040
 BYTE   W06
 BYTE   Fs1  v068
 BYTE   W06
 BYTE   Fs1  v052
 BYTE   W06
 BYTE   En1  v120
 BYTE   N01  Fs1  v088
 BYTE   W06
 BYTE   N06  Cn1  v127
 BYTE   N01  Fs1  v048
 BYTE   W06
 BYTE   N02  Cn1  v092
 BYTE   N01  Fs1  v072
 BYTE   W06
 BYTE   N12  Cn1  v104
 BYTE   N01  Fs1  v048
 BYTE   W06
 BYTE   Fs1  v076
 BYTE   W06
 BYTE   Fs1  v048
 BYTE   W06
 BYTE   Fs1  v064
 BYTE   W06
 BYTE   Fs1  v048
 BYTE   W06
 BYTE   En1  v112
 BYTE   N01  Fs1  v104
 BYTE   W12
 BYTE   Fs1  v064
 BYTE   W02
// 001   ----------------------------------------
Label_3_01289667:
 BYTE   W04
 BYTE   N02  Cn1  v108
 BYTE   N01  Fs1  v056
 BYTE   W06
 BYTE   N32  Cn1  v112
 BYTE   N01  Fs1  v104
 BYTE   W06
 BYTE   Fs1  v052
 BYTE   W06
 BYTE   Fs1  v076
 BYTE   W06
 BYTE   Fs1  v048
 BYTE   W06
 BYTE   En1  v127
 BYTE   N01  Fs1  v092
 BYTE   W06
 BYTE   Fs1  v036
 BYTE   W06
 BYTE   Fs1  v060
 BYTE   W05
 BYTE   N02  Cn1  v100
 BYTE   W01
 BYTE   N01  Fs1  v052
 BYTE   W06
 BYTE   N05  Cn1  v096
 BYTE   N01  Fs1
 BYTE   W06
 BYTE   Fs1  v048
 BYTE   W05
 BYTE   N14  Cn1  v120
 BYTE   W01
 BYTE   N01  Fs1  v076
 BYTE   W06
 BYTE   Fs1  v036
 BYTE   W06
 BYTE   En1  v120
 BYTE   N01  Fs1  v116
 BYTE   W06
 BYTE   N05  Cn1  v112
 BYTE   W08
 BYTE   PEND 
// 002   ----------------------------------------
Label_3_012896B2:
 BYTE   W04
 BYTE   N02  Cn1  v108
 BYTE   N01  Fs1  v044
 BYTE   W06
 BYTE   N32  Cn1  v112
 BYTE   N01  Fs1  v096
 BYTE   W06
 BYTE   Fs1  v036
 BYTE   W06
 BYTE   Fs1  v068
 BYTE   W06
 BYTE   Fs1  v048
 BYTE   W06
 BYTE   En1  v120
 BYTE   N01  Fs1  v084
 BYTE   W06
 BYTE   Fs1  v036
 BYTE   W06
 BYTE   Fs1  v060
 BYTE   W06
 BYTE   N02  Cn1  v100
 BYTE   N01  Fs1  v040
 BYTE   W05
 BYTE   N36  Cn1  v108
 BYTE   W01
 BYTE   N01  Fs1  v088
 BYTE   W06
 BYTE   Fs1  v044
 BYTE   W06
 BYTE   Fs1  v076
 BYTE   W06
 BYTE   Fs1  v048
 BYTE   W06
 BYTE   En1  v116
 BYTE   N01  Fs1
 BYTE   W12
 BYTE   Fs1  v064
 BYTE   W02
 BYTE   PEND 
// 003   ----------------------------------------
Label_3_012896F7:
 BYTE   W04
 BYTE   N01  Cn1  v088
 BYTE   N01  Fs1  v052
 BYTE   W06
 BYTE   N36  Cn1  v120
 BYTE   N01  Fs1  v104
 BYTE   W06
 BYTE   Fs1  v040
 BYTE   W06
 BYTE   Fs1  v060
 BYTE   W06
 BYTE   Fs1  v040
 BYTE   W06
 BYTE   En1  v116
 BYTE   N01  Fs1  v080
 BYTE   W06
 BYTE   Fs1  v040
 BYTE   W06
 BYTE   Fs1  v060
 BYTE   W06
 BYTE   N02  Cn1  v108
 BYTE   N01  Fs1  v044
 BYTE   W05
 BYTE   N05  Cn1  v108
 BYTE   W01
 BYTE   N01  Fs1  v080
 BYTE   W06
 BYTE   Fs1  v052
 BYTE   W05
 BYTE   N14  Cn1  v120
 BYTE   W01
 BYTE   N01  Fs1  v072
 BYTE   W06
 BYTE   Fs1  v040
 BYTE   W06
 BYTE   En1  v127
 BYTE   N01  Fs1  v116
 BYTE   W06
 BYTE   N05  Cn1  v120
 BYTE   W08
 BYTE   PEND 
// 004   ----------------------------------------
Label_3_01289743:
 BYTE   W04
 BYTE   N06  Cn1  v124
 BYTE   N01  Fs1  v040
 BYTE   W06
 BYTE   Cn1  v104
 BYTE   N01  Fs1  v108
 BYTE   W06
 BYTE   Fs1  v040
 BYTE   W06
 BYTE   Fs1  v068
 BYTE   W06
 BYTE   Fs1  v052
 BYTE   W06
 BYTE   En1  v120
 BYTE   N01  Fs1  v088
 BYTE   W06
 BYTE   N06  Cn1  v127
 BYTE   N01  Fs1  v048
 BYTE   W06
 BYTE   N02  Cn1  v092
 BYTE   N01  Fs1  v072
 BYTE   W06
 BYTE   N12  Cn1  v104
 BYTE   N01  Fs1  v048
 BYTE   W06
 BYTE   Fs1  v076
 BYTE   W06
 BYTE   Fs1  v048
 BYTE   W06
 BYTE   Fs1  v064
 BYTE   W06
 BYTE   Fs1  v048
 BYTE   W06
 BYTE   En1  v112
 BYTE   N01  Fs1  v104
 BYTE   W12
 BYTE   Fs1  v064
 BYTE   W02
 BYTE   PEND 
// 005   ----------------------------------------
 BYTE   PATT
  POIN2 Label_3_01289667
// 006   ----------------------------------------
 BYTE   PATT
  POIN2 Label_3_012896B2
// 007   ----------------------------------------
 BYTE   PATT
  POIN2 Label_3_012896F7
// 008   ----------------------------------------
 BYTE   PATT
  POIN2 Label_3_01289743
// 009   ----------------------------------------
 BYTE   PATT
  POIN2 Label_3_01289667
// 010   ----------------------------------------
 BYTE   PATT
  POIN2 Label_3_012896B2
// 011   ----------------------------------------
 BYTE   PATT
  POIN2 Label_3_012896F7
// 012   ----------------------------------------
 BYTE   PATT
  POIN2 Label_3_01289743
// 013   ----------------------------------------
 BYTE   PATT
  POIN2 Label_3_01289667
// 014   ----------------------------------------
 BYTE   PATT
  POIN2 Label_3_012896B2
// 015   ----------------------------------------
 BYTE   PATT
  POIN2 Label_3_012896F7
// 016   ----------------------------------------
 BYTE   PATT
  POIN2 Label_3_01289743
// 017   ----------------------------------------
 BYTE   PATT
  POIN2 Label_3_01289667
// 018   ----------------------------------------
 BYTE   PATT
  POIN2 Label_3_012896B2
// 019   ----------------------------------------
 BYTE   PATT
  POIN2 Label_3_012896F7
// 020   ----------------------------------------
 BYTE   PATT
  POIN2 Label_3_01289743
// 021   ----------------------------------------
 BYTE   PATT
  POIN2 Label_3_01289667
// 022   ----------------------------------------
 BYTE   PATT
  POIN2 Label_3_012896B2
// 023   ----------------------------------------
 BYTE   PATT
  POIN2 Label_3_012896F7
// 024   ----------------------------------------
Label_3_012897EA:
 BYTE   W04
 BYTE   N06  Cn1  v124
 BYTE   N01  Fs1  v040
 BYTE   W06
 BYTE   Cn1  v104
 BYTE   N01  Fs1  v108
 BYTE   W06
 BYTE   Fs1  v040
 BYTE   W06
 BYTE   Fs1  v068
 BYTE   N03  Ds2  v104
 BYTE   W06
 BYTE   N01  Fs1  v052
 BYTE   W06
 BYTE   En1  v120
 BYTE   N01  Fs1  v088
 BYTE   W06
 BYTE   N06  Cn1  v127
 BYTE   N01  Fs1  v048
 BYTE   W06
 BYTE   N02  Cn1  v092
 BYTE   N01  Fs1  v072
 BYTE   N04  Ds2  v104
 BYTE   W06
 BYTE   N12  Cn1
 BYTE   N01  Fs1  v048
 BYTE   W06
 BYTE   Fs1  v076
 BYTE   W06
 BYTE   Fs1  v048
 BYTE   W06
 BYTE   Fs1  v064
 BYTE   N03  Ds2  v104
 BYTE   W06
 BYTE   N01  Fs1  v048
 BYTE   W06
 BYTE   En1  v112
 BYTE   N01  Fs1  v104
 BYTE   W06
 BYTE   N02  Ds2  v108
 BYTE   W06
 BYTE   N01  Fs1  v064
 BYTE   W02
 BYTE   PEND 
// 025   ----------------------------------------
Label_3_01289841:
 BYTE   W04
 BYTE   N02  Cn1  v108
 BYTE   N01  Fs1  v056
 BYTE   W06
 BYTE   N32  Cn1  v112
 BYTE   N01  Fs1  v104
 BYTE   W06
 BYTE   Fs1  v052
 BYTE   W06
 BYTE   Fs1  v076
 BYTE   N03  Ds2  v104
 BYTE   W06
 BYTE   N01  Fs1  v048
 BYTE   W06
 BYTE   En1  v127
 BYTE   N01  Fs1  v092
 BYTE   W06
 BYTE   Fs1  v036
 BYTE   W06
 BYTE   Fs1  v060
 BYTE   N03  Ds2  v112
 BYTE   W05
 BYTE   N02  Cn1  v100
 BYTE   W01
 BYTE   N01  Fs1  v052
 BYTE   W06
 BYTE   N05  Cn1  v096
 BYTE   N01  Fs1
 BYTE   W06
 BYTE   Fs1  v048
 BYTE   W05
 BYTE   N14  Cn1  v120
 BYTE   W01
 BYTE   N01  Fs1  v076
 BYTE   N03  Ds2  v108
 BYTE   W06
 BYTE   N01  Fs1  v036
 BYTE   W06
 BYTE   En1  v120
 BYTE   N01  Fs1  v116
 BYTE   W06
 BYTE   N05  Cn1  v112
 BYTE   N03  Ds2  v104
 BYTE   W08
 BYTE   PEND 
// 026   ----------------------------------------
Label_3_0128989A:
 BYTE   W04
 BYTE   N02  Cn1  v108
 BYTE   N01  Fs1  v044
 BYTE   W06
 BYTE   N32  Cn1  v112
 BYTE   N01  Fs1  v096
 BYTE   W06
 BYTE   Fs1  v036
 BYTE   W06
 BYTE   Fs1  v068
 BYTE   N02  Ds2  v108
 BYTE   W06
 BYTE   N01  Fs1  v048
 BYTE   W06
 BYTE   En1  v120
 BYTE   N01  Fs1  v084
 BYTE   W06
 BYTE   Fs1  v036
 BYTE   W06
 BYTE   Fs1  v060
 BYTE   N03  Ds2  v088
 BYTE   W06
 BYTE   N02  Cn1  v100
 BYTE   N01  Fs1  v040
 BYTE   W05
 BYTE   N36  Cn1  v108
 BYTE   W01
 BYTE   N01  Fs1  v088
 BYTE   W06
 BYTE   Fs1  v044
 BYTE   W06
 BYTE   Fs1  v076
 BYTE   N02  Ds2  v100
 BYTE   W06
 BYTE   N01  Fs1  v048
 BYTE   W06
 BYTE   En1  v116
 BYTE   N01  Fs1
 BYTE   W06
 BYTE   N03  Ds2
 BYTE   W06
 BYTE   N01  Fs1  v064
 BYTE   W02
 BYTE   PEND 
// 027   ----------------------------------------
 BYTE   W04
 BYTE   Cn1  v088
 BYTE   N01  Fs1  v052
 BYTE   W06
 BYTE   N36  Cn1  v120
 BYTE   N01  Fs1  v104
 BYTE   W06
 BYTE   Fs1  v040
 BYTE   W06
 BYTE   Fs1  v060
 BYTE   N02  Ds2  v116
 BYTE   W06
 BYTE   N01  Fs1  v040
 BYTE   W06
 BYTE   En1  v116
 BYTE   N01  Fs1  v080
 BYTE   W06
 BYTE   Fs1  v040
 BYTE   W06
 BYTE   Fs1  v060
 BYTE   N03  Ds2  v096
 BYTE   W06
 BYTE   N02  Cn1  v108
 BYTE   N01  Fs1  v044
 BYTE   W05
 BYTE   N05  Cn1  v108
 BYTE   W01
 BYTE   N01  Fs1  v080
 BYTE   W06
 BYTE   Fs1  v052
 BYTE   W05
 BYTE   N14  Cn1  v120
 BYTE   W01
 BYTE   N01  Fs1  v072
 BYTE   N03  Ds2  v108
 BYTE   W06
 BYTE   N01  Fs1  v040
 BYTE   W06
 BYTE   En1  v127
 BYTE   N01  Fs1  v116
 BYTE   W06
 BYTE   N05  Cn1  v120
 BYTE   N03  Ds2
 BYTE   W08
// 028   ----------------------------------------
 BYTE   PATT
  POIN2 Label_3_012897EA
// 029   ----------------------------------------
 BYTE   PATT
  POIN2 Label_3_01289841
// 030   ----------------------------------------
 BYTE   PATT
  POIN2 Label_3_0128989A
// 031   ----------------------------------------
 BYTE   W04
 BYTE   N01  Cn1  v088
 BYTE   N01  Fs1  v052
 BYTE   W06
 BYTE   N36  Cn1  v120
 BYTE   N01  Fs1  v104
 BYTE   W06
 BYTE   Fs1  v040
 BYTE   W06
 BYTE   Fs1  v060
 BYTE   N02  Ds2  v116
 BYTE   W06
 BYTE   N01  Fs1  v040
 BYTE   W06
 BYTE   En1  v116
 BYTE   N01  Fs1  v080
 BYTE   W06
 BYTE   Fs1  v040
 BYTE   W06
 BYTE   Fs1  v060
 BYTE   N03  Ds2  v096
 BYTE   W06
 BYTE   N02  Cn1  v108
 BYTE   N01  Fs1  v044
 BYTE   W05
 BYTE   N05  Cn1  v108
 BYTE   W01
 BYTE   N01  Fs1  v080
 BYTE   W06
 BYTE   Fs1  v052
 BYTE   W05
 BYTE   N14  Cn1  v120
 BYTE   W01
 BYTE   N01  Fs1  v072
 BYTE   N03  Ds2  v108
 BYTE   W06
 BYTE   N01  Fs1  v040
 BYTE   W06
 BYTE   En1  v127
 BYTE   N01  Fs1  v116
 BYTE   W06
 BYTE   N05  Cn1  v120
 BYTE   N02  Ds2
 BYTE   W08
// 032   ----------------------------------------
 BYTE   PATT
  POIN2 Label_3_01289743
// 033   ----------------------------------------
 BYTE   PATT
  POIN2 Label_3_01289667
// 034   ----------------------------------------
 BYTE   PATT
  POIN2 Label_3_012896B2
// 035   ----------------------------------------
 BYTE   PATT
  POIN2 Label_3_012896F7
// 036   ----------------------------------------
 BYTE   PATT
  POIN2 Label_3_01289743
// 037   ----------------------------------------
 BYTE   PATT
  POIN2 Label_3_01289667
// 038   ----------------------------------------
 BYTE   PATT
  POIN2 Label_3_012896B2
// 039   ----------------------------------------
 BYTE   PATT
  POIN2 Label_3_012896F7
// 040   ----------------------------------------
 BYTE   PATT
  POIN2 Label_3_01289743
// 041   ----------------------------------------
 BYTE   PATT
  POIN2 Label_3_01289667
// 042   ----------------------------------------
 BYTE   PATT
  POIN2 Label_3_012896B2
// 043   ----------------------------------------
 BYTE   PATT
  POIN2 Label_3_012896F7
// 044   ----------------------------------------
 BYTE   PATT
  POIN2 Label_3_01289743
// 045   ----------------------------------------
 BYTE   PATT
  POIN2 Label_3_01289667
// 046   ----------------------------------------
 BYTE   PATT
  POIN2 Label_3_012896B2
// 047   ----------------------------------------
 BYTE   PATT
  POIN2 Label_3_012896F7
// 048   ----------------------------------------
 BYTE   PATT
  POIN2 Label_3_01289743
// 049   ----------------------------------------
 BYTE   PATT
  POIN2 Label_3_01289667
// 050   ----------------------------------------
 BYTE   W04
 BYTE   N02  Cn1  v108
 BYTE   N01  Fs1  v044
 BYTE   W14
 BYTE   GoTo
  POIN2 Label_3_0128960A
// 051   ----------------------------------------
 BYTE   W78
 BYTE   VOICE   121
 BYTE   PAN   c_v+0
 BYTE   VOL   31*SuperMario64DireDireDocksRemixPandan_mvl/mxv
 BYTE   PAN   c_v+0
 BYTE   VOL   31*SuperMario64DireDireDocksRemixPandan_mvl/mxv
 BYTE   PAN   c_v+0
 BYTE   VOL   31*SuperMario64DireDireDocksRemixPandan_mvl/mxv
 BYTE   BEND   c_v+0
 BYTE   FINE

//**************** Track 5 (Midi-Chn.4) ****************//

SuperMario64DireDireDocksRemixPandan_005:
// 000   ----------------------------------------
 BYTE   KEYSH   SuperMario64DireDireDocksRemixPandan_key+0
Label_4_01289A2A:
 BYTE   VOICE   4
 BYTE   PAN   c_v+16
 BYTE   VOL   30*SuperMario64DireDireDocksRemixPandan_mvl/mxv
 BYTE   PAN   c_v+16
 BYTE   VOL   30*SuperMario64DireDireDocksRemixPandan_mvl/mxv
 BYTE   PAN   c_v+16
 BYTE   VOL   30*SuperMario64DireDireDocksRemixPandan_mvl/mxv
 BYTE   PAN   c_v+16
 BYTE   VOL   30*SuperMario64DireDireDocksRemixPandan_mvl/mxv
 BYTE   PAN   c_v+16
 BYTE   VOL   30*SuperMario64DireDireDocksRemixPandan_mvl/mxv
 BYTE   PAN   c_v+16
 BYTE   VOL   30*SuperMario64DireDireDocksRemixPandan_mvl/mxv
 BYTE   BEND   c_v+0
 BYTE   W44
 BYTE   W02
 BYTE   N44  An2  v088
 BYTE   W24
 BYTE   N56  Bn2  v056
 BYTE   W24
 BYTE   N19  Dn3  v080
 BYTE   W02
// 001   ----------------------------------------
 BYTE   W10
 BYTE   N42  Gn3  v088
 BYTE   W36
 BYTE   N90  Dn4  v076
 BYTE   N90  Gn4  v108
 BYTE   W48
 BYTE   W02
// 002   ----------------------------------------
 BYTE   W44
 BYTE   W02
 BYTE   N18  An2  v084
 BYTE   W24
 BYTE   N32  Bn2  v076
 BYTE   W24
 BYTE   N19  Dn3  v080
 BYTE   W02
// 003   ----------------------------------------
 BYTE   W10
 BYTE   N44  Gn3  v096
 BYTE   W36
 BYTE   N90  Dn4
 BYTE   N92  Gn4  v072
 BYTE   W48
 BYTE   W02
// 004   ----------------------------------------
 BYTE   W44
 BYTE   W02
 BYTE   N30  An2
 BYTE   W24
 BYTE   N44  Bn2
 BYTE   W24
 BYTE   N22  Dn3  v068
 BYTE   W02
// 005   ----------------------------------------
 BYTE   W10
 BYTE   N40  Gn3  v080
 BYTE   W36
 BYTE   TIE  Dn4  v068
 BYTE   TIE  Gn4  v084
 BYTE   W48
 BYTE   W02
// 006   ----------------------------------------
 BYTE   W44
 BYTE   W02
 BYTE   N21  An2  v092
 BYTE   W01
 BYTE   EOT
 BYTE   Dn4  v079
 BYTE   W23
 BYTE   N21  Bn2  v072
 BYTE   W24
 BYTE   N19  Dn3  v088
 BYTE   W02
// 007   ----------------------------------------
 BYTE   W10
 BYTE   N44  Gn3  v104
 BYTE   W36
 BYTE   N90  Dn4  v084
 BYTE   N90  Gn4  v104
 BYTE   W48
 BYTE   W02
// 008   ----------------------------------------
 BYTE   W44
 BYTE   W02
 BYTE   N32  An2  v084
 BYTE   W24
 BYTE   N24  As2  v068
 BYTE   W24
 BYTE   N21  Dn3  v076
 BYTE   W02
// 009   ----------------------------------------
 BYTE   W10
 BYTE   N44  Gn3  v084
 BYTE   W36
 BYTE   N90  Dn4  v088
 BYTE   N90  Gn4  v080
 BYTE   W48
 BYTE   W02
// 010   ----------------------------------------
 BYTE   W44
 BYTE   W02
 BYTE   N66  An2
 BYTE   W24
 BYTE   N36  Cn3  v064
 BYTE   W24
 BYTE   N24  Dn3
 BYTE   W02
// 011   ----------------------------------------
 BYTE   W10
 BYTE   N40  Gn3  v084
 BYTE   W36
 BYTE   N66  Dn4
 BYTE   N66  Gn4  v080
 BYTE   W48
 BYTE   W02
// 012   ----------------------------------------
 BYTE   W22
 BYTE   N19  Dn3  v104
 BYTE   W12
 BYTE   N14  Gn3  v096
 BYTE   W12
 BYTE   N12  An3  v104
 BYTE   W12
 BYTE   N15  Bn3  v116
 BYTE   W12
 BYTE   N17  Cn4  v124
 BYTE   W12
 BYTE   Bn3  v108
 BYTE   W12
 BYTE   N20  An3  v088
 BYTE   W02
// 013   ----------------------------------------
 BYTE   W10
 BYTE   N30  Gn3  v116
 BYTE   W24
 BYTE   N28  Dn3  v096
 BYTE   W24
 BYTE   Cn3  v088
 BYTE   W24
 BYTE   N36  Gn3  v112
 BYTE   W14
// 014   ----------------------------------------
 BYTE   W10
 BYTE   TIE  Dn3  v108
 BYTE   W36
 BYTE   N24  Gn2  v072
 BYTE   W48
 BYTE   N28
 BYTE   W02
// 015   ----------------------------------------
 BYTE   W68
 BYTE   W02
 BYTE   N23  Cn3  v116
 BYTE   W04
 BYTE   EOT
 BYTE   Dn3
 BYTE   W20
 BYTE   N19  Cn3  v072
 BYTE   W02
// 016   ----------------------------------------
 BYTE   W10
 BYTE   N18  Bn2  v092
 BYTE   W12
 BYTE   N17  Dn3  v088
 BYTE   W12
 BYTE   TIE  Gn3  v104
 BYTE   W36
 BYTE   N36  An2  v064
 BYTE   W24
 BYTE   Bn2  v032
 BYTE   W02
// 017   ----------------------------------------
 BYTE   W44
 BYTE   W02
 BYTE   N32  Dn3  v064
 BYTE   W05
 BYTE   EOT
 BYTE   Gn3
 BYTE   W19
 BYTE   N44  Gn3  v060
 BYTE   W24
 BYTE   W02
// 018   ----------------------------------------
 BYTE   W22
 BYTE   N17  Dn3  v112
 BYTE   W12
 BYTE   Gn3  v124
 BYTE   W12
 BYTE   N18  An3  v104
 BYTE   W12
 BYTE   N17  Bn3  v116
 BYTE   W12
 BYTE   N16  Cn4
 BYTE   W12
 BYTE   N19  Bn3  v104
 BYTE   W12
 BYTE   N20  An3  v112
 BYTE   W02
// 019   ----------------------------------------
 BYTE   W10
 BYTE   N28  Gn3  v124
 BYTE   W24
 BYTE   N30  Dn3  v108
 BYTE   W24
 BYTE   Cn3  v096
 BYTE   W24
 BYTE   Gn3  v108
 BYTE   W14
// 020   ----------------------------------------
 BYTE   W10
 BYTE   TIE  Dn3
 BYTE   W36
 BYTE   N13  Gn2  v056
 BYTE   W24
 BYTE   N09  Gn2  v060
 BYTE   W24
 BYTE   N21  Gn2  v056
 BYTE   W02
// 021   ----------------------------------------
 BYTE   W44
 BYTE   W02
 BYTE   N09  Cn3  v036
 BYTE   W23
 BYTE   EOT
 BYTE   Dn3
 BYTE   W01
 BYTE   N16  Cn3  v120
 BYTE   W24
 BYTE   N18  Cn3  v080
 BYTE   W02
// 022   ----------------------------------------
 BYTE   W10
 BYTE   Bn2  v092
 BYTE   W12
 BYTE   Dn3  v084
 BYTE   W12
 BYTE   TIE  Gn3  v120
 BYTE   W36
 BYTE   N18  An2  v068
 BYTE   W24
 BYTE   N19  Bn2  v044
 BYTE   W02
// 023   ----------------------------------------
 BYTE   W44
 BYTE   W02
 BYTE   N10  Bn2  v060
 BYTE   W48
 BYTE   W02
// 024   ----------------------------------------
 BYTE   W18
 BYTE   EOT
 BYTE   Gn3
 BYTE   W28
 BYTE   N16  Gn3  v120
 BYTE   W12
 BYTE   N20  En4  v108
 BYTE   W12
 BYTE   Dn4  v096
 BYTE   W12
 BYTE   N13  Cn4  v092
 BYTE   W12
 BYTE   N18  En4  v096
 BYTE   W02
// 025   ----------------------------------------
 BYTE   W10
 BYTE   N42  Dn4
 BYTE   W36
 BYTE   N68  Gn3  v092
 BYTE   W48
 BYTE   W02
// 026   ----------------------------------------
 BYTE   W44
 BYTE   W02
 BYTE   En3  v084
 BYTE   W12
 BYTE   N19  Dn4  v108
 BYTE   W12
 BYTE   N17  Cn4
 BYTE   W12
 BYTE   N16  Bn3  v104
 BYTE   W12
 BYTE   N20  Cn4  v088
 BYTE   W02
// 027   ----------------------------------------
 BYTE   W10
 BYTE   N48  Bn3  v092
 BYTE   W36
 BYTE   N88  Gn3  v096
 BYTE   W48
 BYTE   W02
// 028   ----------------------------------------
 BYTE   W44
 BYTE   W02
 BYTE   N18  Gn3  v127
 BYTE   W12
 BYTE   N19  En4  v108
 BYTE   W12
 BYTE   N20  Dn4  v104
 BYTE   W12
 BYTE   N16  Cn4  v080
 BYTE   W12
 BYTE   N19  En4  v096
 BYTE   W02
// 029   ----------------------------------------
 BYTE   W10
 BYTE   N42  Dn4  v068
 BYTE   W36
 BYTE   N84  Gn3  v096
 BYTE   W48
 BYTE   W02
// 030   ----------------------------------------
 BYTE   W56
 BYTE   W02
 BYTE   N18  Cn4  v116
 BYTE   W12
 BYTE   Dn4  v088
 BYTE   W12
 BYTE   N13  Cn4  v096
 BYTE   W12
 BYTE   N42  Bn3  v088
 BYTE   W02
// 031   ----------------------------------------
 BYTE   W32
 BYTE   W02
 BYTE   N84  Gn3  v096
 BYTE   W24
 BYTE   N56  En3
 BYTE   W36
 BYTE   W02
// 032   ----------------------------------------
 BYTE   W22
 BYTE   N19  Dn3
 BYTE   W12
 BYTE   N18  Gn3  v084
 BYTE   W12
 BYTE   N17  An3  v092
 BYTE   W12
 BYTE   N16  Bn3  v088
 BYTE   W12
 BYTE   Cn4  v092
 BYTE   W12
 BYTE   N21  Bn3  v080
 BYTE   W12
 BYTE   N20  An3  v084
 BYTE   W02
// 033   ----------------------------------------
 BYTE   W10
 BYTE   N32  Gn3
 BYTE   W24
 BYTE   N28  Dn3  v088
 BYTE   W24
 BYTE   N30  Cn3  v092
 BYTE   W24
 BYTE   N36  Gn3
 BYTE   W14
// 034   ----------------------------------------
 BYTE   W10
 BYTE   TIE  Dn3  v096
 BYTE   W36
 BYTE   N23  Gn2  v080
 BYTE   W48
 BYTE   N11  Gn2  v060
 BYTE   W02
// 035   ----------------------------------------
 BYTE   W68
 BYTE   W01
 BYTE   EOT
 BYTE   Dn3
 BYTE   W24
 BYTE   W01
 BYTE   N19  Cn3  v092
 BYTE   W02
// 036   ----------------------------------------
 BYTE   W10
 BYTE   N18  Bn2  v088
 BYTE   W12
 BYTE   N17  Dn3
 BYTE   W12
 BYTE   TIE  Gn3  v096
 BYTE   W36
 BYTE   N20  An2  v060
 BYTE   W24
 BYTE   N44  Bn2
 BYTE   W02
// 037   ----------------------------------------
 BYTE   W44
 BYTE   W02
 BYTE   N68  Dn3  v076
 BYTE   W48
 BYTE   W02
// 038   ----------------------------------------
 BYTE   W22
 BYTE   N17  Dn3  v104
 BYTE   W03
 BYTE   EOT
 BYTE   Gn3
 BYTE   W09
 BYTE   N19  Gn3  v112
 BYTE   W12
 BYTE   N20  An3
 BYTE   W12
 BYTE   N16  Bn3  v100
 BYTE   W12
 BYTE   N17  Cn4  v116
 BYTE   W12
 BYTE   N16  Bn3  v104
 BYTE   W12
 BYTE   N19  An3  v096
 BYTE   W02
// 039   ----------------------------------------
 BYTE   W10
 BYTE   N32  Gn3  v108
 BYTE   W24
 BYTE   N28  Dn3  v092
 BYTE   W24
 BYTE   N30  Cn3  v084
 BYTE   W24
 BYTE   N32  Gn3  v116
 BYTE   W14
// 040   ----------------------------------------
 BYTE   W10
 BYTE   TIE  Dn3  v104
 BYTE   W36
 BYTE   N20  Gn2  v052
 BYTE   W24
 BYTE   N12  Cn3  v060
 BYTE   W24
 BYTE   N30  Gn2  v044
 BYTE   W02
// 041   ----------------------------------------
 BYTE   W68
 BYTE   W02
 BYTE   N19  Cn3  v068
 BYTE   W24
 BYTE   Cn3  v092
 BYTE   W02
// 042   ----------------------------------------
 BYTE   W10
 BYTE   N18  Bn2
 BYTE   W03
 BYTE   EOT
 BYTE   Dn3
 BYTE   W09
 BYTE   N17  Dn3  v080
 BYTE   W12
 BYTE   TIE  Gn3  v112
 BYTE   W36
 BYTE   N30  An2  v072
 BYTE   W24
 BYTE   N48  Bn2  v064
 BYTE   W02
// 043   ----------------------------------------
 BYTE   W44
 BYTE   W03
 BYTE   EOT
 BYTE   Gn3
 BYTE   W23
 BYTE   N12  Bn2  v072
 BYTE   N14  Gn3  v084
 BYTE   W24
 BYTE   W02
// 044   ----------------------------------------
 BYTE   W44
 BYTE   W02
 BYTE   N08  An2  v056
 BYTE   N09  Fn3  v036
 BYTE   W24
 BYTE   An2  v060
 BYTE   N09  Fn3  v068
 BYTE   W12
 BYTE   N08  An2  v044
 BYTE   N09  Fn3
 BYTE   W12
 BYTE   N12  An2  v080
 BYTE   N13  Fn3
 BYTE   W02
// 045   ----------------------------------------
 BYTE   W22
 BYTE   N08  An2  v072
 BYTE   N08  Fn3  v060
 BYTE   W12
 BYTE   N09  An2  v068
 BYTE   N09  Fn3  v072
 BYTE   W12
 BYTE   N18  An2  v080
 BYTE   N18  Fn3  v096
 BYTE   W24
 BYTE   N12  An2  v084
 BYTE   N12  Fn3  v092
 BYTE   W12
 BYTE   N01  An2  v080
 BYTE   N01  Fn3
 BYTE   W12
 BYTE   N17  An2
 BYTE   N19  Fn3  v092
 BYTE   W02
// 046   ----------------------------------------
 BYTE   W44
 BYTE   W02
 BYTE   N13  As2  v068
 BYTE   N13  Gn3  v096
 BYTE   W24
 BYTE   As2  v056
 BYTE   N15  Gn3  v076
 BYTE   W24
 BYTE   N24  As2  v056
 BYTE   N24  Gn3  v088
 BYTE   W02
// 047   ----------------------------------------
 BYTE   W22
 BYTE   N01  As2  v060
 BYTE   N01  Gn3  v096
 BYTE   W12
 BYTE   N11  As2  v056
 BYTE   N07  Gn3  v032
 BYTE   W12
 BYTE   N12  As2  v088
 BYTE   N12  Gn3  v120
 BYTE   W12
 BYTE   N02  As2  v080
 BYTE   N01  Gn3  v112
 BYTE   W12
 BYTE   As2  v080
 BYTE   N01  Gn3  v108
 BYTE   W12
 BYTE   As2  v080
 BYTE   N01  Gn3  v100
 BYTE   W12
 BYTE   N17  As2  v068
 BYTE   N18  Gn3  v108
 BYTE   W02
// 048   ----------------------------------------
 BYTE   W44
 BYTE   W02
 BYTE   N22  Cn3  v080
 BYTE   N22  Gn3  v088
 BYTE   W24
 BYTE   N13  Cn3  v076
 BYTE   N15  Gn3  v080
 BYTE   W24
 BYTE   N18  Cn3  v068
 BYTE   N22  Gn3  v084
 BYTE   W02
// 049   ----------------------------------------
 BYTE   W22
 BYTE   N09  Cn3  v068
 BYTE   N08  An3  v096
 BYTE   W24
 BYTE   N22  Cn3  v088
 BYTE   N23  An3  v092
 BYTE   W24
 BYTE   N42  Cn3  v096
 BYTE   N42  An3
 BYTE   W24
 BYTE   W02
// 050   ----------------------------------------
 BYTE   W18
 BYTE   GoTo
  POIN2 Label_4_01289A2A
// 051   ----------------------------------------
 BYTE   W78
 BYTE   VOICE   4
 BYTE   PAN   c_v+16
 BYTE   VOL   30*SuperMario64DireDireDocksRemixPandan_mvl/mxv
 BYTE   PAN   c_v+16
 BYTE   VOL   30*SuperMario64DireDireDocksRemixPandan_mvl/mxv
 BYTE   PAN   c_v+16
 BYTE   VOL   30*SuperMario64DireDireDocksRemixPandan_mvl/mxv
 BYTE   BEND   c_v+0
 BYTE   FINE

//**************** Track 6 (Midi-Chn.5) ****************//

SuperMario64DireDireDocksRemixPandan_006:
// 000   ----------------------------------------
 BYTE   KEYSH   SuperMario64DireDireDocksRemixPandan_key+0
Label_5_01289DC6:
 BYTE   VOICE   4
 BYTE   PAN   c_v-16
 BYTE   VOL   30*SuperMario64DireDireDocksRemixPandan_mvl/mxv
 BYTE   PAN   c_v-16
 BYTE   VOL   30*SuperMario64DireDireDocksRemixPandan_mvl/mxv
 BYTE   PAN   c_v-16
 BYTE   VOL   30*SuperMario64DireDireDocksRemixPandan_mvl/mxv
 BYTE   PAN   c_v-16
 BYTE   VOL   30*SuperMario64DireDireDocksRemixPandan_mvl/mxv
 BYTE   PAN   c_v-16
 BYTE   VOL   30*SuperMario64DireDireDocksRemixPandan_mvl/mxv
 BYTE   PAN   c_v-16
 BYTE   VOL   30*SuperMario64DireDireDocksRemixPandan_mvl/mxv
 BYTE   BEND   c_v+0
 BYTE   W10
 BYTE   N84  Gn1  v084
 BYTE   W12
 BYTE   N72  Dn2  v076
 BYTE   W12
 BYTE   N60  Gn2  v084
 BYTE   W60
 BYTE   W02
// 001   ----------------------------------------
 BYTE   W10
 BYTE   N96  Gn1  v092
 BYTE   W12
 BYTE   N54  Dn2  v084
 BYTE   W12
 BYTE   N48  Gn2  v100
 BYTE   W60
 BYTE   W02
// 002   ----------------------------------------
 BYTE   W10
 BYTE   N80  Fn1  v120
 BYTE   W12
 BYTE   N72  Cn2  v088
 BYTE   W12
 BYTE   N60  Fn2  v084
 BYTE   W60
 BYTE   W02
// 003   ----------------------------------------
 BYTE   W10
 BYTE   N84  Fn1  v104
 BYTE   W12
 BYTE   N56  Cn2  v084
 BYTE   W12
 BYTE   N80  Fn2  v104
 BYTE   W48
 BYTE   N32  Cn2  v068
 BYTE   W14
// 004   ----------------------------------------
 BYTE   W10
 BYTE   N92  Gn1  v096
 BYTE   W12
 BYTE   N80  Dn2  v080
 BYTE   W12
 BYTE   N68  Gn2
 BYTE   W60
 BYTE   W02
// 005   ----------------------------------------
 BYTE   W10
 BYTE   N92  Gn1  v092
 BYTE   W12
 BYTE   N80  Dn2  v064
 BYTE   W12
 BYTE   N52  Gn2  v092
 BYTE   W60
 BYTE   W02
// 006   ----------------------------------------
 BYTE   W10
 BYTE   N88  Fn1  v120
 BYTE   W12
 BYTE   N68  Cn2  v096
 BYTE   W12
 BYTE   N56  Fn2  v088
 BYTE   W60
 BYTE   W02
// 007   ----------------------------------------
 BYTE   W10
 BYTE   N92  Fn1  v096
 BYTE   W12
 BYTE   N76  Cn2  v092
 BYTE   W12
 BYTE   N56  Fn2  v084
 BYTE   W60
 BYTE   W02
// 008   ----------------------------------------
 BYTE   W10
 BYTE   N76  Ds1  v108
 BYTE   W12
 BYTE   N60  As1  v072
 BYTE   W12
 BYTE   N56  Ds2
 BYTE   W60
 BYTE   W02
// 009   ----------------------------------------
 BYTE   W10
 BYTE   N84  Ds1  v104
 BYTE   W12
 BYTE   N60  As1  v084
 BYTE   W12
 BYTE   N84  Ds2
 BYTE   W60
 BYTE   W02
// 010   ----------------------------------------
 BYTE   W10
 BYTE   N80  Fn1  v104
 BYTE   W12
 BYTE   N60  Cn2  v088
 BYTE   W12
 BYTE   N48  Fn2  v084
 BYTE   W60
 BYTE   W02
// 011   ----------------------------------------
 BYTE   W10
 BYTE   N90  Fn1  v108
 BYTE   W12
 BYTE   N54  Cn2  v076
 BYTE   W12
 BYTE   N84  Fn2
 BYTE   W48
 BYTE   N30  Cn2  v088
 BYTE   W14
// 012   ----------------------------------------
 BYTE   W10
 BYTE   N92  Gn1  v092
 BYTE   W12
 BYTE   N68  Dn2  v084
 BYTE   W60
 BYTE   N24  Gn2  v088
 BYTE   W12
 BYTE   N18  Dn2  v104
 BYTE   W02
// 013   ----------------------------------------
 BYTE   W10
 BYTE   N84  Fn1  v120
 BYTE   W12
 BYTE   N36  Cn2  v088
 BYTE   W12
 BYTE   N44  Fn2  v112
 BYTE   W60
 BYTE   W02
// 014   ----------------------------------------
 BYTE   W10
 BYTE   N84  Ds1  v116
 BYTE   W12
 BYTE   N72  As1  v076
 BYTE   W12
 BYTE   N42  Ds2  v068
 BYTE   W48
 BYTE   N17  Ds2  v072
 BYTE   W14
// 015   ----------------------------------------
 BYTE   W10
 BYTE   N92  Fn1  v104
 BYTE   W12
 BYTE   N24  Cn2  v084
 BYTE   W12
 BYTE   N32  Fn2  v060
 BYTE   W48
 BYTE   N24  Cn2  v080
 BYTE   W12
 BYTE   Fn2  v100
 BYTE   W02
// 016   ----------------------------------------
 BYTE   W10
 BYTE   N68  Gn1
 BYTE   W12
 BYTE   N60  Dn2  v064
 BYTE   W12
 BYTE   N36  Gn2  v088
 BYTE   W60
 BYTE   N15  Gn2  v052
 BYTE   W02
// 017   ----------------------------------------
 BYTE   W10
 BYTE   N88  Gn1  v092
 BYTE   W12
 BYTE   N60  Dn2  v072
 BYTE   W12
 BYTE   N52  Gn2
 BYTE   W60
 BYTE   W02
// 018   ----------------------------------------
 BYTE   W10
 BYTE   N90  Gn1  v116
 BYTE   W12
 BYTE   N60  Dn2  v092
 BYTE   W60
 BYTE   N23  Gn2  v076
 BYTE   W12
 BYTE   N19  Dn2  v072
 BYTE   W02
// 019   ----------------------------------------
 BYTE   W10
 BYTE   N88  Fn1  v116
 BYTE   W12
 BYTE   N56  Cn2  v084
 BYTE   W12
 BYTE   N30  Fn2
 BYTE   W60
 BYTE   W02
// 020   ----------------------------------------
 BYTE   W10
 BYTE   N92  Ds1  v108
 BYTE   W12
 BYTE   N76  As1  v068
 BYTE   W12
 BYTE   N44  Ds2  v072
 BYTE   W48
 BYTE   N22  Ds2  v068
 BYTE   W14
// 021   ----------------------------------------
 BYTE   W10
 BYTE   N92  Fn1  v096
 BYTE   W12
 BYTE   N60  Cn2  v076
 BYTE   W36
 BYTE   N48  Fn2  v048
 BYTE   W30
 BYTE   N22  Cn2  v084
 BYTE   W08
// 022   ----------------------------------------
 BYTE   W10
 BYTE   N76  Gn1  v100
 BYTE   W12
 BYTE   N60  Dn2  v084
 BYTE   W24
 BYTE   N32  Gn2  v096
 BYTE   W36
 BYTE   N02  Dn2  v052
 BYTE   W14
// 023   ----------------------------------------
 BYTE   W10
 BYTE   N76  Gn1  v076
 BYTE   W12
 BYTE   N44  Dn2
 BYTE   W12
 BYTE   N56  Gn2  v072
 BYTE   W60
 BYTE   W02
// 024   ----------------------------------------
 BYTE   W10
 BYTE   N92  Cn2  v092
 BYTE   W12
 BYTE   N60  Gn2  v080
 BYTE   W12
 BYTE   Cn3  v088
 BYTE   W60
 BYTE   W02
// 025   ----------------------------------------
 BYTE   W10
 BYTE   N92  Bn1  v096
 BYTE   W12
 BYTE   N44  Gn2  v056
 BYTE   W12
 BYTE   N42  Bn2  v088
 BYTE   W36
 BYTE   N20  Gn2  v044
 BYTE   W12
 BYTE   N16  Bn2  v064
 BYTE   W14
// 026   ----------------------------------------
 BYTE   W10
 BYTE   TIE  An1  v096
 BYTE   W12
 BYTE   N42  En2  v072
 BYTE   W12
 BYTE   N68  An2
 BYTE   W48
 BYTE   N18  En2
 BYTE   W14
// 027   ----------------------------------------
 BYTE   W10
 BYTE   N80  Gn1  v084
 BYTE   W05
 BYTE   EOT
 BYTE   An1
 BYTE   W07
 BYTE   N48  Dn2  v076
 BYTE   W12
 BYTE   Gn2  v084
 BYTE   W48
 BYTE   N16  Dn2  v060
 BYTE   W14
// 028   ----------------------------------------
 BYTE   W10
 BYTE   N92  Cn2  v112
 BYTE   W12
 BYTE   N54  Gn2  v084
 BYTE   W12
 BYTE   N52  Cn3  v076
 BYTE   W60
 BYTE   W02
// 029   ----------------------------------------
 BYTE   W10
 BYTE   N84  Bn1  v096
 BYTE   W12
 BYTE   N66  Gn2  v068
 BYTE   W12
 BYTE   N42  Bn2  v076
 BYTE   W48
 BYTE   N15
 BYTE   W14
// 030   ----------------------------------------
 BYTE   W10
 BYTE   TIE  As1  v108
 BYTE   W12
 BYTE   N76  Gn2  v092
 BYTE   W12
 BYTE   N44  As2
 BYTE   W48
 BYTE   N23  As2  v068
 BYTE   W14
// 031   ----------------------------------------
 BYTE   W10
 BYTE   N56  An1  v120
 BYTE   W05
 BYTE   EOT
 BYTE   As1
 BYTE   W07
 BYTE   N44  An2  v088
 BYTE   W36
 BYTE   Dn2  v100
 BYTE   W12
 BYTE   N24  An2  v084
 BYTE   W24
 BYTE   W02
// 032   ----------------------------------------
 BYTE   W10
 BYTE   N88  Gn1  v116
 BYTE   W12
 BYTE   N60  Dn2  v096
 BYTE   W60
 BYTE   N24  Gn2  v072
 BYTE   W12
 BYTE   N14  Dn2  v048
 BYTE   W02
// 033   ----------------------------------------
 BYTE   W10
 BYTE   N96  Fn1  v104
 BYTE   W12
 BYTE   N44  Cn2  v072
 BYTE   W12
 BYTE   N40  Fn2  v068
 BYTE   W36
 BYTE   N22  Cn2  v076
 BYTE   W12
 BYTE   N17  Fn2  v084
 BYTE   W14
// 034   ----------------------------------------
 BYTE   W10
 BYTE   N84  Ds1  v108
 BYTE   W12
 BYTE   N48  As1  v072
 BYTE   W12
 BYTE   Ds2
 BYTE   W48
 BYTE   N16  As1  v048
 BYTE   W14
// 035   ----------------------------------------
 BYTE   W10
 BYTE   N90  Fn1  v104
 BYTE   W12
 BYTE   N36  Cn2  v084
 BYTE   W12
 BYTE   N76  Fn2  v080
 BYTE   W48
 BYTE   N24  Cn2  v084
 BYTE   W14
// 036   ----------------------------------------
 BYTE   W10
 BYTE   N72  Gn1  v100
 BYTE   W12
 BYTE   N60  Dn2  v080
 BYTE   W12
 BYTE   N36  Gn2
 BYTE   W48
 BYTE   N21  Gn2  v072
 BYTE   W14
// 037   ----------------------------------------
 BYTE   W10
 BYTE   N84  Gn1  v084
 BYTE   W24
 BYTE   N48  Dn2
 BYTE   W60
 BYTE   W02
// 038   ----------------------------------------
 BYTE   W10
 BYTE   N92  Gn1  v112
 BYTE   W12
 BYTE   N56  Dn2  v076
 BYTE   W60
 BYTE   N23  Gn2  v060
 BYTE   W12
 BYTE   N21  Dn2  v072
 BYTE   W02
// 039   ----------------------------------------
 BYTE   W10
 BYTE   N88  Fn1  v116
 BYTE   W12
 BYTE   N48  Cn2  v076
 BYTE   W12
 BYTE   N44  Fn2  v072
 BYTE   W36
 BYTE   N01  Cn2
 BYTE   W24
 BYTE   W02
// 040   ----------------------------------------
 BYTE   W10
 BYTE   N92  Ds1  v112
 BYTE   W12
 BYTE   N80  As1  v080
 BYTE   W12
 BYTE   N36  Ds2  v072
 BYTE   W48
 BYTE   N24
 BYTE   W14
// 041   ----------------------------------------
 BYTE   W10
 BYTE   N90  Fn1  v100
 BYTE   W12
 BYTE   N42  Cn2  v076
 BYTE   W12
 BYTE   N78  Fn2  v080
 BYTE   W48
 BYTE   N23  Cn2  v084
 BYTE   W14
// 042   ----------------------------------------
 BYTE   W10
 BYTE   N80  Gn1  v104
 BYTE   W12
 BYTE   N84  Dn2  v076
 BYTE   W12
 BYTE   N44  Gn2
 BYTE   W48
 BYTE   N22  Gn2  v072
 BYTE   W14
// 043   ----------------------------------------
 BYTE   W10
 BYTE   N96  Gn1  v076
 BYTE   W12
 BYTE   N78  Dn2  v072
 BYTE   W12
 BYTE   N36  Gn2  v064
 BYTE   W48
 BYTE   N16  Gn2  v036
 BYTE   W14
// 044   ----------------------------------------
 BYTE   W10
 BYTE   N80  Fn1  v104
 BYTE   W12
 BYTE   N84  Cn2  v084
 BYTE   W12
 BYTE   TIE  Fn2  v072
 BYTE   W60
 BYTE   W02
// 045   ----------------------------------------
 BYTE   W10
 BYTE   N92  Fn1  v108
 BYTE   W48
 BYTE   N48  Cn2  v060
 BYTE   W04
 BYTE   EOT
 BYTE   Fn2
 BYTE   W20
 BYTE   N21  Fn2  v088
 BYTE   W14
// 046   ----------------------------------------
 BYTE   W10
 BYTE   N88  Ds1  v084
 BYTE   W12
 BYTE   N80  As1  v072
 BYTE   W12
 BYTE   N48  Ds2  v068
 BYTE   W48
 BYTE   N01  Ds2  v080
 BYTE   W14
// 047   ----------------------------------------
 BYTE   W10
 BYTE   N92  Ds1  v096
 BYTE   W12
 BYTE   N42  As1  v048
 BYTE   W30
 BYTE   Ds2  v076
 BYTE   W30
 BYTE   N21  As1  v024
 BYTE   W14
// 048   ----------------------------------------
 BYTE   W10
 BYTE   N92  Dn1  v088
 BYTE   W12
 BYTE   N24  An1  v072
 BYTE   W12
 BYTE   N44  Dn2  v060
 BYTE   W48
 BYTE   N32  Dn2  v056
 BYTE   W14
// 049   ----------------------------------------
 BYTE   W10
 BYTE   N72  Dn1  v092
 BYTE   W24
 BYTE   N32  Dn2  v072
 BYTE   W36
 BYTE   N23  Dn2  v048
 BYTE   W24
 BYTE   N21  Dn2  v092
 BYTE   W02
// 050   ----------------------------------------
 BYTE   W18
 BYTE   GoTo
  POIN2 Label_5_01289DC6
// 051   ----------------------------------------
 BYTE   W78
 BYTE   VOICE   4
 BYTE   PAN   c_v-16
 BYTE   VOL   30*SuperMario64DireDireDocksRemixPandan_mvl/mxv
 BYTE   PAN   c_v-16
 BYTE   VOL   30*SuperMario64DireDireDocksRemixPandan_mvl/mxv
 BYTE   PAN   c_v-16
 BYTE   VOL   30*SuperMario64DireDireDocksRemixPandan_mvl/mxv
 BYTE   BEND   c_v+0
 BYTE   FINE

//******************************************************//
	ALIGN 4

SuperMario64DireDireDocksRemixPandan:
	BYTE	6	// NumTrks
	BYTE	0	// NumBlks
	BYTE	SuperMario64DireDireDocksRemixPandan_pri	// Priority
	BYTE	SuperMario64DireDireDocksRemixPandan_rev	// Reverb.
    
	POIN2	SuperMario64DireDireDocksRemixPandan_grp
    
	POIN2	SuperMario64DireDireDocksRemixPandan_001
	POIN2	SuperMario64DireDireDocksRemixPandan_002
	POIN2	SuperMario64DireDireDocksRemixPandan_003
	POIN2	SuperMario64DireDireDocksRemixPandan_004
	POIN2	SuperMario64DireDireDocksRemixPandan_005
	POIN2	SuperMario64DireDireDocksRemixPandan_006

	
