//Event file generated from Sappy .s format.
	#include "MPlayDef.event"

	#define	SuperMario64SliderSme_grp  voicegroup000
	#define	SuperMario64SliderSme_pri  0
	#define	SuperMario64SliderSme_rev  0
	#define	SuperMario64SliderSme_mvl  85
	#define	SuperMario64SliderSme_key  0
	#define	SuperMario64SliderSme_tbs  1
	#define	SuperMario64SliderSme_exg  0
	#define	SuperMario64SliderSme_cmp  1

	// .rodata
	//	SuperMario64SliderSme
	ALIGN 4

//**************** Track 1 (Midi-Chn.1) ****************//

SuperMario64SliderSme_1:
	BYTE	KEYSH   SuperMario64SliderSme_key+0
// 000   ----------------------------------------
	BYTE	TEMPO   168*SuperMario64SliderSme_tbs/2
	BYTE		VOICE   0
	BYTE		VOL     103*SuperMario64SliderSme_mvl/mxv
	BYTE	W52
	BYTE		PAN     c_v-6
	BYTE	W44
// 001   ----------------------------------------
	BYTE	W96
SuperMario64SliderSme_1_B1:
// 002   ----------------------------------------
SuperMario64SliderSme_1_002:
	BYTE		N06     Gs3   v092
	BYTE	W06
	BYTE		        An3   v096
	BYTE	W06
	BYTE		        Gs3   v092
	BYTE	W06
	BYTE		        An3 
	BYTE	W12
	BYTE		        An3   v076
	BYTE	W06
	BYTE		        Gs3   v084
	BYTE	W06
	BYTE		        An3 
	BYTE	W06
	BYTE		        Gs3 
	BYTE	W06
	BYTE		        An3   v080
	BYTE	W06
	BYTE		        Gs3   v084
	BYTE	W06
	BYTE		        An3   v076
	BYTE	W12
	BYTE		N06   
	BYTE	W06
	BYTE		        Gs3   v092
	BYTE	W06
	BYTE		        An3   v076
	BYTE	W06
	BYTE	PEND
// 003   ----------------------------------------
SuperMario64SliderSme_1_003:
	BYTE		N06     Gs3   v092
	BYTE	W06
	BYTE		        An3   v096
	BYTE	W06
	BYTE		        Gs3   v092
	BYTE	W06
	BYTE		        An3 
	BYTE	W12
	BYTE		        An3   v076
	BYTE	W06
	BYTE		        Gs3   v084
	BYTE	W06
	BYTE		        An3 
	BYTE	W12
	BYTE		        An3   v080
	BYTE	W06
	BYTE		        Gs3   v084
	BYTE	W06
	BYTE		        An3   v076
	BYTE	W12
	BYTE		N06   
	BYTE	W06
	BYTE		        Gs3   v092
	BYTE	W06
	BYTE		        An3   v076
	BYTE	W06
	BYTE	PEND
// 004   ----------------------------------------
SuperMario64SliderSme_1_004:
	BYTE		N06     As3   v092
	BYTE	W06
	BYTE		        Bn3   v096
	BYTE	W06
	BYTE		        As3   v092
	BYTE	W06
	BYTE		        Bn3 
	BYTE	W12
	BYTE		        Bn3   v076
	BYTE	W06
	BYTE		        As3   v084
	BYTE	W06
	BYTE		        Bn3 
	BYTE	W06
	BYTE		        As3 
	BYTE	W06
	BYTE		        Bn3   v080
	BYTE	W06
	BYTE		        As3   v084
	BYTE	W06
	BYTE		        Bn3   v076
	BYTE	W12
	BYTE		N06   
	BYTE	W06
	BYTE		        As3   v092
	BYTE	W06
	BYTE		        Bn3   v076
	BYTE	W06
	BYTE	PEND
// 005   ----------------------------------------
SuperMario64SliderSme_1_005:
	BYTE		N06     As3   v092
	BYTE	W06
	BYTE		        Bn3   v096
	BYTE	W06
	BYTE		        As3   v092
	BYTE	W06
	BYTE		        Bn3 
	BYTE	W12
	BYTE		        Bn3   v076
	BYTE	W06
	BYTE		        As3   v084
	BYTE	W06
	BYTE		        Bn3 
	BYTE	W06
	BYTE		        Fn4 
	BYTE	W06
	BYTE		        Bn3   v080
	BYTE	W06
	BYTE		        As3   v084
	BYTE	W06
	BYTE		        Bn3   v076
	BYTE	W12
	BYTE		N06   
	BYTE	W06
	BYTE		        As3   v092
	BYTE	W06
	BYTE		        Bn3   v076
	BYTE	W06
	BYTE	PEND
// 006   ----------------------------------------
	BYTE	PATT
	 POIN2	SuperMario64SliderSme_1_002
// 007   ----------------------------------------
	BYTE	PATT
	 POIN2	SuperMario64SliderSme_1_003
// 008   ----------------------------------------
	BYTE	PATT
	 POIN2	SuperMario64SliderSme_1_002
// 009   ----------------------------------------
SuperMario64SliderSme_1_009:
	BYTE		N06     Cn4   v092
	BYTE	W06
	BYTE		        Cs4   v096
	BYTE	W06
	BYTE		        Cn4   v092
	BYTE	W06
	BYTE		        Cs4 
	BYTE	W12
	BYTE		        Cs4   v076
	BYTE	W06
	BYTE		        Cn4   v084
	BYTE	W06
	BYTE		        Cs4 
	BYTE	W12
	BYTE		        Cs4   v080
	BYTE	W06
	BYTE		        Cn4   v084
	BYTE	W06
	BYTE		        Cs4   v076
	BYTE	W12
	BYTE		N06   
	BYTE	W06
	BYTE		        Cn4   v092
	BYTE	W06
	BYTE		        Cs4   v076
	BYTE	W06
	BYTE	PEND
// 010   ----------------------------------------
	BYTE	PATT
	 POIN2	SuperMario64SliderSme_1_002
// 011   ----------------------------------------
	BYTE	PATT
	 POIN2	SuperMario64SliderSme_1_003
// 012   ----------------------------------------
	BYTE	PATT
	 POIN2	SuperMario64SliderSme_1_004
// 013   ----------------------------------------
	BYTE	PATT
	 POIN2	SuperMario64SliderSme_1_005
// 014   ----------------------------------------
	BYTE	PATT
	 POIN2	SuperMario64SliderSme_1_002
// 015   ----------------------------------------
	BYTE	PATT
	 POIN2	SuperMario64SliderSme_1_009
// 016   ----------------------------------------
	BYTE	PATT
	 POIN2	SuperMario64SliderSme_1_002
// 017   ----------------------------------------
	BYTE	PATT
	 POIN2	SuperMario64SliderSme_1_003
// 018   ----------------------------------------
	BYTE	PATT
	 POIN2	SuperMario64SliderSme_1_002
// 019   ----------------------------------------
	BYTE	PATT
	 POIN2	SuperMario64SliderSme_1_003
// 020   ----------------------------------------
	BYTE	PATT
	 POIN2	SuperMario64SliderSme_1_004
// 021   ----------------------------------------
	BYTE	PATT
	 POIN2	SuperMario64SliderSme_1_005
// 022   ----------------------------------------
	BYTE	PATT
	 POIN2	SuperMario64SliderSme_1_002
// 023   ----------------------------------------
	BYTE	PATT
	 POIN2	SuperMario64SliderSme_1_003
// 024   ----------------------------------------
	BYTE	PATT
	 POIN2	SuperMario64SliderSme_1_002
// 025   ----------------------------------------
	BYTE	PATT
	 POIN2	SuperMario64SliderSme_1_009
// 026   ----------------------------------------
	BYTE	PATT
	 POIN2	SuperMario64SliderSme_1_002
// 027   ----------------------------------------
	BYTE	PATT
	 POIN2	SuperMario64SliderSme_1_003
// 028   ----------------------------------------
	BYTE	PATT
	 POIN2	SuperMario64SliderSme_1_004
// 029   ----------------------------------------
	BYTE	PATT
	 POIN2	SuperMario64SliderSme_1_005
// 030   ----------------------------------------
	BYTE	PATT
	 POIN2	SuperMario64SliderSme_1_002
// 031   ----------------------------------------
	BYTE	PATT
	 POIN2	SuperMario64SliderSme_1_009
// 032   ----------------------------------------
	BYTE	PATT
	 POIN2	SuperMario64SliderSme_1_002
// 033   ----------------------------------------
	BYTE	PATT
	 POIN2	SuperMario64SliderSme_1_003
// 034   ----------------------------------------
	BYTE		N05     Bn4   v100
	BYTE	W06
	BYTE		N07     As4   v092
	BYTE	W06
	BYTE		        Bn4   v080
	BYTE	W12
	BYTE		N03   
	BYTE	W12
	BYTE		N06     Bn4   v092
	BYTE	W12
	BYTE		N12     As4   v100
	BYTE	W12
	BYTE		N06     Bn4   v096
	BYTE	W12
	BYTE		N04     Bn4   v100
	BYTE	W12
	BYTE		N05     Bn4   v096
	BYTE	W12
// 035   ----------------------------------------
	BYTE		        An4   v100
	BYTE	W06
	BYTE		N07     Gs4   v096
	BYTE	W06
	BYTE		N06     An4 
	BYTE	W12
	BYTE		N07   
	BYTE	W12
	BYTE		        An4   v104
	BYTE	W12
	BYTE		        Gs4   v100
	BYTE	W06
	BYTE		        An4   v096
	BYTE	W12
	BYTE		N10   
	BYTE	W18
	BYTE		N06   
	BYTE	W12
// 036   ----------------------------------------
	BYTE		N07     Gn4   v112
	BYTE	W06
	BYTE		N06     Fs4   v100
	BYTE	W06
	BYTE		N05     Gn4   v096
	BYTE	W12
	BYTE		N15     Gn4   v100
	BYTE	W24
	BYTE		N09     Fs4 
	BYTE	W12
	BYTE		N05     Gn4 
	BYTE	W12
	BYTE		N16     Gn4   v112
	BYTE	W12
	BYTE		N03     Fs4   v096
	BYTE	W12
// 037   ----------------------------------------
	BYTE		N05     Fs4   v100
	BYTE	W06
	BYTE		N07     Fn4   v092
	BYTE	W06
	BYTE		N04     Fs4   v100
	BYTE	W24
	BYTE		N05   
	BYTE	W12
	BYTE		N13     Fn4   v104
	BYTE	W12
	BYTE		N05     Fs4   v096
	BYTE	W12
	BYTE		N09     Gn4   v100
	BYTE	W12
	BYTE		N03     An4   v088
	BYTE	W12
// 038   ----------------------------------------
	BYTE		N05     Bn4   v100
	BYTE	W06
	BYTE		N06     As4   v092
	BYTE	W06
	BYTE		N07     Bn4   v080
	BYTE	W12
	BYTE		        Bn4   v100
	BYTE	W12
	BYTE		N06   
	BYTE	W12
	BYTE		N08     As4   v104
	BYTE	W12
	BYTE		N05     Bn4   v092
	BYTE	W18
	BYTE		N02     Bn4   v076
	BYTE	W06
	BYTE		N05     Bn4   v088
	BYTE	W12
// 039   ----------------------------------------
	BYTE		        An4   v100
	BYTE	W06
	BYTE		N07     Gs4   v096
	BYTE	W06
	BYTE		N05     An4 
	BYTE	W12
	BYTE		N07     An4   v092
	BYTE	W12
	BYTE		N05     An4   v096
	BYTE	W12
	BYTE		N10     Gs4   v100
	BYTE	W12
	BYTE		N05     An4   v096
	BYTE	W12
	BYTE		N06   
	BYTE	W12
	BYTE		N05   
	BYTE	W12
// 040   ----------------------------------------
	BYTE		        Gn4   v104
	BYTE	W06
	BYTE		N07     Fs4   v096
	BYTE	W06
	BYTE		N06     Gn4 
	BYTE	W18
	BYTE		N02   
	BYTE	W06
	BYTE		N05     Gn4   v104
	BYTE	W12
	BYTE		N10     Fs4   v100
	BYTE	W12
	BYTE		N05     Gn4 
	BYTE	W12
	BYTE		N13   
	BYTE	W12
	BYTE		N04     Fs4 
	BYTE	W12
// 041   ----------------------------------------
	BYTE		N05     Fs4   v104
	BYTE	W06
	BYTE		N07     Fn4   v096
	BYTE	W06
	BYTE		N04     Fs4   v100
	BYTE	W24
	BYTE		N05   
	BYTE	W12
	BYTE		N11     Fn4 
	BYTE	W12
	BYTE		N04     Fs4   v096
	BYTE	W12
	BYTE		N10     Gn4   v100
	BYTE	W12
	BYTE		N04     An4   v092
	BYTE	W12
// 042   ----------------------------------------
	BYTE	W96
// 043   ----------------------------------------
	BYTE	W96
// 044   ----------------------------------------
	BYTE	W96
// 045   ----------------------------------------
	BYTE	W96
// 046   ----------------------------------------
	BYTE	W96
// 047   ----------------------------------------
	BYTE	W96
// 048   ----------------------------------------
	BYTE	W96
// 049   ----------------------------------------
	BYTE	W96
// 050   ----------------------------------------
	BYTE	W96
// 051   ----------------------------------------
	BYTE	W96
// 052   ----------------------------------------
	BYTE	W96
// 053   ----------------------------------------
	BYTE	W96
	BYTE	GoTo
	 POIN2	SuperMario64SliderSme_1_B1
SuperMario64SliderSme_1_B2:
// 054   ----------------------------------------
	BYTE	W24
	BYTE	FINE

//**************** Track 2 (Midi-Chn.2) ****************//

SuperMario64SliderSme_2:
	BYTE	KEYSH   SuperMario64SliderSme_key+0
// 000   ----------------------------------------
	BYTE		VOICE   0
	BYTE		VOL     95*SuperMario64SliderSme_mvl/mxv
	BYTE	W52
	BYTE		PAN     c_v-8
	BYTE	W44
// 001   ----------------------------------------
	BYTE	W96
SuperMario64SliderSme_2_B1:
// 002   ----------------------------------------
SuperMario64SliderSme_2_002:
	BYTE	W24
	BYTE		N36     Dn3   v104
	BYTE	W48
	BYTE		        Dn3   v088
	BYTE	W24
	BYTE	PEND
// 003   ----------------------------------------
SuperMario64SliderSme_2_003:
	BYTE	W24
	BYTE		N24     Dn3   v104
	BYTE	W24
	BYTE		N12     Dn3   v084
	BYTE	W24
	BYTE		        Dn3   v088
	BYTE	W24
	BYTE	PEND
// 004   ----------------------------------------
	BYTE	PATT
	 POIN2	SuperMario64SliderSme_2_002
// 005   ----------------------------------------
	BYTE	PATT
	 POIN2	SuperMario64SliderSme_2_002
// 006   ----------------------------------------
	BYTE	PATT
	 POIN2	SuperMario64SliderSme_2_002
// 007   ----------------------------------------
	BYTE	PATT
	 POIN2	SuperMario64SliderSme_2_003
// 008   ----------------------------------------
	BYTE	PATT
	 POIN2	SuperMario64SliderSme_2_002
// 009   ----------------------------------------
SuperMario64SliderSme_2_009:
	BYTE	W24
	BYTE		N24     Gn3   v104
	BYTE	W24
	BYTE		N12     Gn3   v084
	BYTE	W24
	BYTE		N36     An3   v088
	BYTE	W24
	BYTE	PEND
// 010   ----------------------------------------
	BYTE	PATT
	 POIN2	SuperMario64SliderSme_2_002
// 011   ----------------------------------------
	BYTE	PATT
	 POIN2	SuperMario64SliderSme_2_003
// 012   ----------------------------------------
	BYTE	PATT
	 POIN2	SuperMario64SliderSme_2_002
// 013   ----------------------------------------
	BYTE	PATT
	 POIN2	SuperMario64SliderSme_2_002
// 014   ----------------------------------------
	BYTE	PATT
	 POIN2	SuperMario64SliderSme_2_002
// 015   ----------------------------------------
	BYTE	PATT
	 POIN2	SuperMario64SliderSme_2_009
// 016   ----------------------------------------
	BYTE	PATT
	 POIN2	SuperMario64SliderSme_2_002
// 017   ----------------------------------------
	BYTE	PATT
	 POIN2	SuperMario64SliderSme_2_003
// 018   ----------------------------------------
	BYTE	PATT
	 POIN2	SuperMario64SliderSme_2_002
// 019   ----------------------------------------
	BYTE	PATT
	 POIN2	SuperMario64SliderSme_2_003
// 020   ----------------------------------------
	BYTE	PATT
	 POIN2	SuperMario64SliderSme_2_002
// 021   ----------------------------------------
	BYTE	PATT
	 POIN2	SuperMario64SliderSme_2_002
// 022   ----------------------------------------
	BYTE	PATT
	 POIN2	SuperMario64SliderSme_2_002
// 023   ----------------------------------------
	BYTE	PATT
	 POIN2	SuperMario64SliderSme_2_003
// 024   ----------------------------------------
	BYTE	PATT
	 POIN2	SuperMario64SliderSme_2_002
// 025   ----------------------------------------
	BYTE	PATT
	 POIN2	SuperMario64SliderSme_2_009
// 026   ----------------------------------------
	BYTE	PATT
	 POIN2	SuperMario64SliderSme_2_002
// 027   ----------------------------------------
	BYTE	PATT
	 POIN2	SuperMario64SliderSme_2_003
// 028   ----------------------------------------
	BYTE	PATT
	 POIN2	SuperMario64SliderSme_2_002
// 029   ----------------------------------------
	BYTE	PATT
	 POIN2	SuperMario64SliderSme_2_002
// 030   ----------------------------------------
	BYTE	PATT
	 POIN2	SuperMario64SliderSme_2_002
// 031   ----------------------------------------
	BYTE	PATT
	 POIN2	SuperMario64SliderSme_2_009
// 032   ----------------------------------------
	BYTE	PATT
	 POIN2	SuperMario64SliderSme_2_002
// 033   ----------------------------------------
	BYTE	PATT
	 POIN2	SuperMario64SliderSme_2_003
// 034   ----------------------------------------
	BYTE	W24
	BYTE		N09     Dn4   v112
	BYTE	W48
	BYTE		N11   
	BYTE	W24
// 035   ----------------------------------------
	BYTE	W24
	BYTE		N07     Dn4   v116
	BYTE	W48
	BYTE		N13     Dn4   v112
	BYTE	W24
// 036   ----------------------------------------
	BYTE	W24
	BYTE		N07     Dn4   v108
	BYTE	W48
	BYTE		        Dn4   v116
	BYTE	W24
// 037   ----------------------------------------
	BYTE	W24
	BYTE		N10     Dn4   v112
	BYTE	W72
// 038   ----------------------------------------
	BYTE	W24
	BYTE		N13     Dn4   v104
	BYTE	W48
	BYTE		N11     Dn4   v112
	BYTE	W24
// 039   ----------------------------------------
	BYTE	W24
	BYTE		N10   
	BYTE	W48
	BYTE		N11   
	BYTE	W24
// 040   ----------------------------------------
	BYTE	W24
	BYTE		N07   
	BYTE	W48
	BYTE		        Dn4   v108
	BYTE	W24
// 041   ----------------------------------------
	BYTE	W24
	BYTE		N09     Dn4   v112
	BYTE	W72
// 042   ----------------------------------------
SuperMario64SliderSme_2_042:
	BYTE		N06     Dn4   v100
	BYTE	W06
	BYTE		        Dn3   v104
	BYTE	W06
	BYTE		N12     Fs3   v092
	BYTE	W12
	BYTE		        An3 
	BYTE	W12
	BYTE		        Dn4   v104
	BYTE	W12
	BYTE		        Dn3 
	BYTE	W12
	BYTE		        Dn4   v100
	BYTE	W12
	BYTE		        Fs3   v092
	BYTE	W12
	BYTE		        An3   v088
	BYTE	W12
	BYTE	PEND
// 043   ----------------------------------------
SuperMario64SliderSme_2_043:
	BYTE		N06     Dn4   v100
	BYTE	W06
	BYTE		        Dn3   v088
	BYTE	W06
	BYTE		N12     Fs3   v092
	BYTE	W12
	BYTE		        An3 
	BYTE	W12
	BYTE		        Dn4   v104
	BYTE	W12
	BYTE		        Dn3   v096
	BYTE	W12
	BYTE		        Dn4   v100
	BYTE	W12
	BYTE		        Fs3   v092
	BYTE	W12
	BYTE		        An3   v100
	BYTE	W12
	BYTE	PEND
// 044   ----------------------------------------
SuperMario64SliderSme_2_044:
	BYTE		N06     Dn4   v100
	BYTE	W06
	BYTE		        Dn3   v096
	BYTE	W06
	BYTE		N12     Gn3   v092
	BYTE	W12
	BYTE		        Bn3   v084
	BYTE	W12
	BYTE		        Dn4   v100
	BYTE	W12
	BYTE		        Dn3   v084
	BYTE	W12
	BYTE		        Dn4   v092
	BYTE	W12
	BYTE		        Gn3 
	BYTE	W12
	BYTE		        Bn3   v084
	BYTE	W12
	BYTE	PEND
// 045   ----------------------------------------
	BYTE	PATT
	 POIN2	SuperMario64SliderSme_2_044
// 046   ----------------------------------------
	BYTE	PATT
	 POIN2	SuperMario64SliderSme_2_042
// 047   ----------------------------------------
	BYTE	PATT
	 POIN2	SuperMario64SliderSme_2_043
// 048   ----------------------------------------
	BYTE	PATT
	 POIN2	SuperMario64SliderSme_2_044
// 049   ----------------------------------------
	BYTE	PATT
	 POIN2	SuperMario64SliderSme_2_044
// 050   ----------------------------------------
	BYTE	PATT
	 POIN2	SuperMario64SliderSme_2_042
// 051   ----------------------------------------
	BYTE	PATT
	 POIN2	SuperMario64SliderSme_2_043
// 052   ----------------------------------------
	BYTE	PATT
	 POIN2	SuperMario64SliderSme_2_044
// 053   ----------------------------------------
	BYTE		N06     Dn4   v100
	BYTE	W06
	BYTE		        Dn3   v096
	BYTE	W06
	BYTE		N12     Gn3   v092
	BYTE	W12
	BYTE		        Bn3   v084
	BYTE	W12
	BYTE		        Dn4   v100
	BYTE	W12
	BYTE		N06     Cs4   v084
	BYTE	W06
	BYTE		        Cn4 
	BYTE	W06
	BYTE		        Bn3   v088
	BYTE	W06
	BYTE		        As3   v096
	BYTE	W06
	BYTE		        An3 
	BYTE	W06
	BYTE		        Gs3 
	BYTE	W06
	BYTE		        Gn3   v104
	BYTE	W06
	BYTE		        En3   v096
	BYTE	W06
	BYTE	GoTo
	 POIN2	SuperMario64SliderSme_2_B1
SuperMario64SliderSme_2_B2:
// 054   ----------------------------------------
	BYTE	W24
	BYTE	FINE

//**************** Track 3 (Midi-Chn.3) ****************//

SuperMario64SliderSme_3:
	BYTE	KEYSH   SuperMario64SliderSme_key+0
// 000   ----------------------------------------
	BYTE		VOICE   23
	BYTE		VOL     110*SuperMario64SliderSme_mvl/mxv
	BYTE		N40     An3   v084
	BYTE		N06     Ds4   v088
	BYTE		N40     En4   v084
	BYTE	W48
	BYTE		        An3   v092
	BYTE		N07     Ds4   v096
	BYTE		N36     En4   v088
	BYTE	W06
	BYTE		PAN     c_v+8
	BYTE		BEND    c_v+0
	BYTE	W42
// 001   ----------------------------------------
	BYTE		N18     An3   v084
	BYTE		N08     Ds4   v100
	BYTE		N20     En4   v096
	BYTE	W24
	BYTE		N18     Cs4   v112
	BYTE	W24
	BYTE		N19     Bn3   v096
	BYTE	W24
	BYTE		N21     As3 
	BYTE	W24
SuperMario64SliderSme_3_B1:
// 002   ----------------------------------------
	BYTE		BEND    c_v-10
	BYTE		N23     An3   v104
	BYTE	W06
	BYTE		BEND    c_v-5
	BYTE	W06
	BYTE		        c_v-1
	BYTE	W06
	BYTE		        c_v+0
	BYTE	W05
	BYTE		N21     An3   v084
	BYTE	W24
	BYTE		BEND    c_v-10
	BYTE		N20     Bn3   v104
	BYTE	W06
	BYTE		BEND    c_v-5
	BYTE	W06
	BYTE		        c_v-1
	BYTE	W06
	BYTE		        c_v+0
	BYTE	W05
	BYTE		N20     An3   v112
	BYTE	W23
	BYTE		N92     Dn3   v116
	BYTE	W03
// 003   ----------------------------------------
	BYTE	W96
// 004   ----------------------------------------
	BYTE		BEND    c_v-10
	BYTE		N20     Bn2   v104
	BYTE	W06
	BYTE		BEND    c_v-5
	BYTE	W06
	BYTE		        c_v-1
	BYTE	W06
	BYTE		        c_v+0
	BYTE	W06
	BYTE		N20     Bn2   v096
	BYTE	W22
	BYTE		BEND    c_v-10
	BYTE		N22     En3   v108
	BYTE	W06
	BYTE		BEND    c_v-5
	BYTE	W06
	BYTE		        c_v-1
	BYTE	W06
	BYTE		        c_v+0
	BYTE	W07
	BYTE		N20     Dn3   v112
	BYTE	W22
	BYTE		N92     Bn2   v108
	BYTE	W03
// 005   ----------------------------------------
SuperMario64SliderSme_3_005:
	BYTE	W92
	BYTE	W02
	BYTE		N32     An2   v104
	BYTE	W02
	BYTE	PEND
// 006   ----------------------------------------
SuperMario64SliderSme_3_006:
	BYTE	W32
	BYTE	W03
	BYTE		N30     An2   v096
	BYTE	W32
	BYTE	W03
	BYTE		BEND    c_v-10
	BYTE		N36     An3   v112
	BYTE	W06
	BYTE		BEND    c_v-5
	BYTE	W06
	BYTE		        c_v-1
	BYTE	W06
	BYTE		        c_v+0
	BYTE	W08
	BYTE	PEND
// 007   ----------------------------------------
SuperMario64SliderSme_3_007:
	BYTE	W10
	BYTE		N36     An2   v100
	BYTE	W36
	BYTE	W01
	BYTE		N01     An2   v096
	BYTE	W24
	BYTE	W02
	BYTE		BEND    c_v-10
	BYTE		N23     An3   v108
	BYTE	W06
	BYTE		BEND    c_v-5
	BYTE	W06
	BYTE		        c_v-1
	BYTE	W06
	BYTE		        c_v+0
	BYTE	W05
	BYTE	PEND
// 008   ----------------------------------------
SuperMario64SliderSme_3_008:
	BYTE	W01
	BYTE		N36     An2   v104
	BYTE	W40
	BYTE		N24     An2   v060
	BYTE	W30
	BYTE		BEND    c_v-10
	BYTE		N21     An3   v104
	BYTE	W06
	BYTE		BEND    c_v-5
	BYTE	W06
	BYTE		        c_v-1
	BYTE	W06
	BYTE		        c_v+0
	BYTE	W07
	BYTE	PEND
// 009   ----------------------------------------
SuperMario64SliderSme_3_009:
	BYTE	W01
	BYTE		N84     En3   v096
	BYTE	W92
	BYTE	W01
	BYTE		BEND    c_v-10
	BYTE		N22     Fs3   v100
	BYTE	W02
	BYTE	PEND
// 010   ----------------------------------------
SuperMario64SliderSme_3_010:
	BYTE	W04
	BYTE		BEND    c_v-5
	BYTE	W06
	BYTE		        c_v-1
	BYTE	W06
	BYTE		        c_v+0
	BYTE	W09
	BYTE		N22     Fs3   v084
	BYTE	W24
	BYTE		        Bn3   v096
	BYTE	W24
	BYTE	W01
	BYTE		N21     An3   v104
	BYTE	W22
	BYTE	PEND
// 011   ----------------------------------------
SuperMario64SliderSme_3_011:
	BYTE	W01
	BYTE		BEND    c_v-10
	BYTE		N90     Cn4   v104
	BYTE	W06
	BYTE		BEND    c_v-5
	BYTE	W06
	BYTE		        c_v-1
	BYTE	W06
	BYTE		        c_v+0
	BYTE	W72
	BYTE	W02
	BYTE		N24     Bn3   v100
	BYTE	W03
	BYTE	PEND
// 012   ----------------------------------------
SuperMario64SliderSme_3_012:
	BYTE	W24
	BYTE		N21     Bn3   v096
	BYTE	W24
	BYTE	W01
	BYTE		BEND    c_v-10
	BYTE		N20     En4   v104
	BYTE	W06
	BYTE		BEND    c_v-5
	BYTE	W06
	BYTE		        c_v-1
	BYTE	W06
	BYTE		        c_v+0
	BYTE	W04
	BYTE		N21     Dn4 
	BYTE	W24
	BYTE		N88     Bn3   v108
	BYTE	W01
	BYTE	PEND
// 013   ----------------------------------------
SuperMario64SliderSme_3_013:
	BYTE	W92
	BYTE	W03
	BYTE		N28     An3   v108
	BYTE	W01
	BYTE	PEND
// 014   ----------------------------------------
SuperMario64SliderSme_3_014:
	BYTE	W32
	BYTE	W02
	BYTE		N32     An3   v104
	BYTE	W36
	BYTE	W01
	BYTE		N36     An2   v096
	BYTE	W24
	BYTE	W01
	BYTE	PEND
// 015   ----------------------------------------
SuperMario64SliderSme_3_015:
	BYTE	W13
	BYTE		BEND    c_v-10
	BYTE		N32     An3   v104
	BYTE	W06
	BYTE		BEND    c_v-5
	BYTE	W06
	BYTE		        c_v-1
	BYTE	W06
	BYTE		        c_v+0
	BYTE	W16
	BYTE		N23     An2   v096
	BYTE	W24
	BYTE	W02
	BYTE		        En3   v104
	BYTE	W23
	BYTE	PEND
// 016   ----------------------------------------
	BYTE		TIE     Dn3 
	BYTE	W96
// 017   ----------------------------------------
	BYTE	W52
	BYTE		EOT   
	BYTE	W44
// 018   ----------------------------------------
	BYTE		BEND    c_v-10
	BYTE		N22     An3 
	BYTE	W06
	BYTE		BEND    c_v-5
	BYTE	W06
	BYTE		        c_v-1
	BYTE	W06
	BYTE		        c_v+0
	BYTE	W05
	BYTE		N21     An3   v084
	BYTE	W24
	BYTE		BEND    c_v-10
	BYTE		N20     Bn3   v104
	BYTE	W06
	BYTE		BEND    c_v-5
	BYTE	W06
	BYTE		        c_v-1
	BYTE	W06
	BYTE		        c_v+0
	BYTE	W05
	BYTE		N20     An3   v112
	BYTE	W23
	BYTE		N92     Dn3   v116
	BYTE	W03
// 019   ----------------------------------------
	BYTE	W96
// 020   ----------------------------------------
	BYTE		N20     Bn2   v104
	BYTE	W24
	BYTE		        Bn2   v096
	BYTE	W22
	BYTE		BEND    c_v-10
	BYTE		N22     En3   v108
	BYTE	W06
	BYTE		BEND    c_v-5
	BYTE	W06
	BYTE		        c_v-1
	BYTE	W06
	BYTE		        c_v+0
	BYTE	W07
	BYTE		N20     Dn3   v112
	BYTE	W22
	BYTE		N92     Bn2   v108
	BYTE	W03
// 021   ----------------------------------------
	BYTE	PATT
	 POIN2	SuperMario64SliderSme_3_005
// 022   ----------------------------------------
	BYTE	PATT
	 POIN2	SuperMario64SliderSme_3_006
// 023   ----------------------------------------
	BYTE	PATT
	 POIN2	SuperMario64SliderSme_3_007
// 024   ----------------------------------------
	BYTE	PATT
	 POIN2	SuperMario64SliderSme_3_008
// 025   ----------------------------------------
	BYTE	PATT
	 POIN2	SuperMario64SliderSme_3_009
// 026   ----------------------------------------
	BYTE	PATT
	 POIN2	SuperMario64SliderSme_3_010
// 027   ----------------------------------------
	BYTE	PATT
	 POIN2	SuperMario64SliderSme_3_011
// 028   ----------------------------------------
	BYTE	PATT
	 POIN2	SuperMario64SliderSme_3_012
// 029   ----------------------------------------
	BYTE	PATT
	 POIN2	SuperMario64SliderSme_3_013
// 030   ----------------------------------------
	BYTE	PATT
	 POIN2	SuperMario64SliderSme_3_014
// 031   ----------------------------------------
	BYTE	PATT
	 POIN2	SuperMario64SliderSme_3_015
// 032   ----------------------------------------
	BYTE		TIE     Dn3   v104
	BYTE	W96
// 033   ----------------------------------------
	BYTE	W52
	BYTE		EOT   
	BYTE	W44
// 034   ----------------------------------------
	BYTE	W96
// 035   ----------------------------------------
	BYTE	W96
// 036   ----------------------------------------
	BYTE	W96
// 037   ----------------------------------------
	BYTE	W96
// 038   ----------------------------------------
	BYTE	W96
// 039   ----------------------------------------
	BYTE	W96
// 040   ----------------------------------------
	BYTE	W96
// 041   ----------------------------------------
	BYTE	W96
// 042   ----------------------------------------
	BYTE		BEND    c_v+0
	BYTE		N06     Cs3   v100
	BYTE	W06
	BYTE		        Dn3 
	BYTE	W06
	BYTE		        Cs3   v104
	BYTE	W06
	BYTE		        Dn3 
	BYTE	W06
	BYTE		        En3 
	BYTE	W06
	BYTE		        Dn3 
	BYTE	W06
	BYTE		        Cs3 
	BYTE	W06
	BYTE		        Dn3 
	BYTE	W06
	BYTE		        Cs3   v100
	BYTE	W06
	BYTE		        Dn3 
	BYTE	W06
	BYTE		        Cs3 
	BYTE	W06
	BYTE		        Dn3 
	BYTE	W06
	BYTE		        En3   v096
	BYTE	W06
	BYTE		        Dn3 
	BYTE	W06
	BYTE		        Cs3   v104
	BYTE	W06
	BYTE		        Dn3   v096
	BYTE	W06
// 043   ----------------------------------------
SuperMario64SliderSme_3_043:
	BYTE		N06     Cs3   v100
	BYTE	W06
	BYTE		        Dn3   v096
	BYTE	W06
	BYTE		        Cs3   v100
	BYTE	W06
	BYTE		        Dn3 
	BYTE	W06
	BYTE		        Gn3 
	BYTE	W06
	BYTE		        Dn3 
	BYTE	W06
	BYTE		        Cs3   v096
	BYTE	W06
	BYTE		        Dn3 
	BYTE	W06
	BYTE		        An3   v100
	BYTE	W06
	BYTE		        Dn3 
	BYTE	W06
	BYTE		        Cs3 
	BYTE	W06
	BYTE		        Dn3 
	BYTE	W06
	BYTE		        Gn3 
	BYTE	W06
	BYTE		        Dn3 
	BYTE	W06
	BYTE		        Cs3 
	BYTE	W06
	BYTE		        Dn3   v104
	BYTE	W06
	BYTE	PEND
// 044   ----------------------------------------
	BYTE		        Cs3   v100
	BYTE	W06
	BYTE		        Dn3 
	BYTE	W06
	BYTE		        Cs3   v104
	BYTE	W06
	BYTE		        Dn3 
	BYTE	W06
	BYTE		        En3 
	BYTE	W06
	BYTE		        Dn3 
	BYTE	W06
	BYTE		        Cs3 
	BYTE	W06
	BYTE		        Dn3 
	BYTE	W06
	BYTE		        Cs3   v100
	BYTE	W06
	BYTE		        Dn3 
	BYTE	W06
	BYTE		        Cs3 
	BYTE	W06
	BYTE		        Dn3 
	BYTE	W06
	BYTE		        En3   v096
	BYTE	W06
	BYTE		        Dn3 
	BYTE	W06
	BYTE		        Cs3   v104
	BYTE	W06
	BYTE		        Dn3   v096
	BYTE	W06
// 045   ----------------------------------------
	BYTE	PATT
	 POIN2	SuperMario64SliderSme_3_043
// 046   ----------------------------------------
	BYTE	W01
	BYTE		N42     Dn4   v104
	BYTE		N42     An4   v100
	BYTE	W44
	BYTE	W02
	BYTE		N05     Cs4 
	BYTE	W01
	BYTE		N40     Dn4   v088
	BYTE	W01
	BYTE		        An4   v104
	BYTE	W42
	BYTE	W01
	BYTE		N05     Cs4   v100
	BYTE	W04
// 047   ----------------------------------------
	BYTE		N24     An4 
	BYTE	W01
	BYTE		        Dn4   v092
	BYTE	W21
	BYTE		        Fs4   v100
	BYTE	W24
	BYTE		N23     En4   v096
	BYTE	W24
	BYTE	W03
	BYTE		N18     Ds4   v100
	BYTE	W23
// 048   ----------------------------------------
	BYTE		N40     Gn3 
	BYTE		N36     Dn4   v104
	BYTE	W44
	BYTE		        Dn4   v100
	BYTE	W01
	BYTE		N40     Gn3 
	BYTE	W48
	BYTE	W03
// 049   ----------------------------------------
	BYTE		N30   
	BYTE		N32     Dn4 
	BYTE	W32
	BYTE	W01
	BYTE		N05     Gn3   v096
	BYTE		N06     Bn3 
	BYTE	W06
	BYTE		N01     Gn3 
	BYTE		N07     Cs4 
	BYTE	W04
	BYTE		N04     Gn3   v104
	BYTE		N21     Dn4 
	BYTE	W24
	BYTE	W01
	BYTE		N24     Gn3   v100
	BYTE		N24     En4 
	BYTE	W28
// 050   ----------------------------------------
	BYTE		N30     An3 
	BYTE		N32     Dn4 
	BYTE	W36
	BYTE		N44     An3   v096
	BYTE	W06
	BYTE		N07     Dn4   v100
	BYTE	W06
	BYTE		N17     Fs4 
	BYTE	W24
	BYTE		N20     An4   v092
	BYTE	W24
// 051   ----------------------------------------
	BYTE		N24     Gs4   v100
	BYTE	W24
	BYTE		N21     An4 
	BYTE	W24
	BYTE		N07     Gs4   v096
	BYTE	W06
	BYTE		N08     An4   v088
	BYTE	W06
	BYTE		N07     Fs4   v092
	BYTE	W07
	BYTE		N08     Dn4   v096
	BYTE	W05
	BYTE		N12     Cs4   v104
	BYTE	W12
	BYTE		N07     An3   v100
	BYTE	W12
// 052   ----------------------------------------
	BYTE		N11     Bn3   v088
	BYTE	W12
	BYTE		N06     Bn3   v080
	BYTE	W07
	BYTE		        Cs4   v092
	BYTE	W05
	BYTE		N12     Dn4   v096
	BYTE	W12
	BYTE		N02     Dn4   v080
	BYTE	W06
	BYTE		N06     En4   v088
	BYTE	W06
	BYTE		        Fs4   v092
	BYTE	W06
	BYTE		        Fn4   v088
	BYTE	W06
	BYTE		        Fs4   v092
	BYTE	W06
	BYTE		        Gn4 
	BYTE	W06
	BYTE		        An4   v088
	BYTE	W06
	BYTE		        Gs4   v092
	BYTE	W06
	BYTE		        Gn4 
	BYTE	W06
	BYTE		        En4   v084
	BYTE	W06
// 053   ----------------------------------------
	BYTE		        Dn4 
	BYTE	W06
	BYTE		        Cs4   v092
	BYTE	W06
	BYTE		        Dn4 
	BYTE	W06
	BYTE		        An4 
	BYTE	W06
	BYTE		        Cs4   v088
	BYTE	W06
	BYTE		        Cn4   v084
	BYTE	W06
	BYTE		        Cs4   v092
	BYTE	W06
	BYTE		        An4   v100
	BYTE	W06
	BYTE		        Cs4   v084
	BYTE	W06
	BYTE		        Cn4   v088
	BYTE	W06
	BYTE		        Bn3   v080
	BYTE	W06
	BYTE		        As3   v072
	BYTE	W06
	BYTE		        An3   v084
	BYTE	W06
	BYTE		        Gs3   v076
	BYTE	W06
	BYTE		        Gn3   v084
	BYTE	W06
	BYTE		        En3   v088
	BYTE	W06
	BYTE	GoTo
	 POIN2	SuperMario64SliderSme_3_B1
SuperMario64SliderSme_3_B2:
// 054   ----------------------------------------
	BYTE	W24
	BYTE	FINE

//**************** Track 4 (Midi-Chn.4) ****************//

SuperMario64SliderSme_4:
	BYTE	KEYSH   SuperMario64SliderSme_key+0
// 000   ----------------------------------------
	BYTE		VOICE   23
	BYTE		VOL     94*SuperMario64SliderSme_mvl/mxv
	BYTE	W52
	BYTE	W01
	BYTE		PAN     c_v+11
	BYTE	W42
	BYTE	W01
// 001   ----------------------------------------
	BYTE	W96
SuperMario64SliderSme_4_B1:
// 002   ----------------------------------------
	BYTE	W96
// 003   ----------------------------------------
	BYTE	W96
// 004   ----------------------------------------
	BYTE	W96
// 005   ----------------------------------------
	BYTE	W96
// 006   ----------------------------------------
	BYTE	W96
// 007   ----------------------------------------
	BYTE	W96
// 008   ----------------------------------------
	BYTE	W96
// 009   ----------------------------------------
	BYTE	W96
// 010   ----------------------------------------
	BYTE	W96
// 011   ----------------------------------------
	BYTE	W96
// 012   ----------------------------------------
	BYTE	W96
// 013   ----------------------------------------
	BYTE	W96
// 014   ----------------------------------------
	BYTE	W96
// 015   ----------------------------------------
	BYTE	W96
// 016   ----------------------------------------
	BYTE	W96
// 017   ----------------------------------------
	BYTE	W96
// 018   ----------------------------------------
	BYTE		N23     Dn4   v076
	BYTE	W23
	BYTE		N01     Dn4   v060
	BYTE	W24
	BYTE		N02     Dn4   v076
	BYTE	W23
	BYTE		N20     Dn4   v080
	BYTE	W23
	BYTE		N92     Dn4   v084
	BYTE	W03
// 019   ----------------------------------------
	BYTE	W96
// 020   ----------------------------------------
	BYTE		N20     Gn3   v076
	BYTE	W24
	BYTE		        Gn3   v072
	BYTE	W22
	BYTE		N22     Gn3   v080
	BYTE	W24
	BYTE	W01
	BYTE		N20   
	BYTE	W22
	BYTE		N92   
	BYTE	W03
// 021   ----------------------------------------
	BYTE	W92
	BYTE	W02
	BYTE		N32     Dn4   v076
	BYTE	W02
// 022   ----------------------------------------
	BYTE	W32
	BYTE	W03
	BYTE		N30     Dn4   v072
	BYTE	W60
	BYTE	W01
// 023   ----------------------------------------
	BYTE	W10
	BYTE		N32   
	BYTE	W36
	BYTE	W01
	BYTE		N24   
	BYTE	W48
	BYTE	W01
// 024   ----------------------------------------
	BYTE	W01
	BYTE		N36     Dn4   v076
	BYTE	W40
	BYTE		N24     Dn4   v044
	BYTE	W54
	BYTE	W01
// 025   ----------------------------------------
	BYTE	W01
	BYTE		N84     An3   v072
	BYTE	W92
	BYTE	W01
	BYTE		N22     Dn4 
	BYTE	W02
// 026   ----------------------------------------
	BYTE	W24
	BYTE	W01
	BYTE		        Dn4   v060
	BYTE	W24
	BYTE		        Dn4   v068
	BYTE	W24
	BYTE	W01
	BYTE		N21     Dn4   v076
	BYTE	W22
// 027   ----------------------------------------
	BYTE	W01
	BYTE		N90     En4 
	BYTE	W92
	BYTE		N24     Gn4   v072
	BYTE	W03
// 028   ----------------------------------------
	BYTE	W24
	BYTE		N21     Gn4   v068
	BYTE	W24
	BYTE	W01
	BYTE		N20     Gn4   v076
	BYTE	W22
	BYTE		N21   
	BYTE	W24
	BYTE		N88     Gs4   v080
	BYTE	W01
// 029   ----------------------------------------
	BYTE	W92
	BYTE	W03
	BYTE		N28     Cs4 
	BYTE	W01
// 030   ----------------------------------------
	BYTE	W32
	BYTE	W02
	BYTE		N32     Cs4   v076
	BYTE	W36
	BYTE	W01
	BYTE		N36     An2   v072
	BYTE	W24
	BYTE	W01
// 031   ----------------------------------------
	BYTE	W13
	BYTE		N32     Cs4   v076
	BYTE	W32
	BYTE	W02
	BYTE		N23     An2   v068
	BYTE	W24
	BYTE	W02
	BYTE		        Cs4   v076
	BYTE	W23
// 032   ----------------------------------------
	BYTE	W02
	BYTE		N07     Cs4   v060
	BYTE	W05
	BYTE		TIE     Dn4   v076
	BYTE	W88
	BYTE	W01
// 033   ----------------------------------------
	BYTE	W11
	BYTE		EOT   
	BYTE	W84
	BYTE	W01
// 034   ----------------------------------------
	BYTE	W96
// 035   ----------------------------------------
	BYTE	W96
// 036   ----------------------------------------
	BYTE	W96
// 037   ----------------------------------------
	BYTE	W96
// 038   ----------------------------------------
	BYTE	W96
// 039   ----------------------------------------
	BYTE	W96
// 040   ----------------------------------------
	BYTE	W96
// 041   ----------------------------------------
	BYTE	W96
// 042   ----------------------------------------
	BYTE	W96
// 043   ----------------------------------------
	BYTE	W96
// 044   ----------------------------------------
	BYTE	W96
// 045   ----------------------------------------
	BYTE	W96
// 046   ----------------------------------------
	BYTE	W96
// 047   ----------------------------------------
	BYTE	W96
// 048   ----------------------------------------
	BYTE	W96
// 049   ----------------------------------------
	BYTE	W96
// 050   ----------------------------------------
	BYTE	W96
// 051   ----------------------------------------
	BYTE	W96
// 052   ----------------------------------------
	BYTE	W96
// 053   ----------------------------------------
	BYTE	W96
	BYTE	GoTo
	 POIN2	SuperMario64SliderSme_4_B1
SuperMario64SliderSme_4_B2:
// 054   ----------------------------------------
	BYTE	W24
	BYTE	FINE

//**************** Track 5 (Midi-Chn.5) ****************//

SuperMario64SliderSme_5:
	BYTE	KEYSH   SuperMario64SliderSme_key+0
// 000   ----------------------------------------
	BYTE		VOICE   76
	BYTE		VOL     110*SuperMario64SliderSme_mvl/mxv
	BYTE	W52
	BYTE	W01
	BYTE		PAN     c_v-24
	BYTE	W42
	BYTE	W01
// 001   ----------------------------------------
	BYTE	W96
SuperMario64SliderSme_5_B1:
// 002   ----------------------------------------
	BYTE	W96
// 003   ----------------------------------------
	BYTE	W12
	BYTE		N06     Dn5   v100
	BYTE	W11
	BYTE		N05     Cs5 
	BYTE	W12
	BYTE		N06     Dn5   v092
	BYTE	W13
	BYTE		N22     Fs5 
	BYTE	W23
	BYTE		N07     En5   v088
	BYTE	W12
	BYTE		N04     Dn5   v092
	BYTE	W11
	BYTE		N84     Bn4 
	BYTE	W02
// 004   ----------------------------------------
	BYTE	W96
// 005   ----------------------------------------
	BYTE	W11
	BYTE		N06     Bn4   v100
	BYTE	W10
	BYTE		        As4 
	BYTE	W12
	BYTE		N08     Bn4   v096
	BYTE	W13
	BYTE		N24     Dn5   v104
	BYTE	W24
	BYTE	W02
	BYTE		N07     Cs5   v096
	BYTE	W11
	BYTE		        Bn4   v092
	BYTE	W11
	BYTE		N92     An4   v096
	BYTE	W02
// 006   ----------------------------------------
	BYTE	W96
// 007   ----------------------------------------
SuperMario64SliderSme_5_007:
	BYTE	W24
	BYTE	W02
	BYTE		N07     An4   v096
	BYTE	W12
	BYTE		N06     Gs4 
	BYTE	W11
	BYTE		N07     An4   v092
	BYTE	W14
	BYTE		N28     An5   v100
	BYTE	W32
	BYTE	W01
	BYTE	PEND
// 008   ----------------------------------------
	BYTE	PATT
	 POIN2	SuperMario64SliderSme_5_007
// 009   ----------------------------------------
	BYTE		N44     En5   v088
	BYTE	W92
	BYTE	W03
	BYTE		TIE     Dn5   v096
	BYTE	W01
// 010   ----------------------------------------
	BYTE	W96
// 011   ----------------------------------------
	BYTE	W04
	BYTE		EOT   
	BYTE	W09
	BYTE		N07     Dn5   v104
	BYTE	W13
	BYTE		N06     En5   v100
	BYTE	W12
	BYTE		N30     Fs5 
	BYTE	W32
	BYTE	W03
	BYTE		N08     En5   v096
	BYTE	W12
	BYTE		N07     Dn5 
	BYTE	W11
// 012   ----------------------------------------
	BYTE	W01
	BYTE		TIE     Bn4 
	BYTE	W92
	BYTE	W03
// 013   ----------------------------------------
	BYTE	W12
	BYTE		EOT   
	BYTE	W15
	BYTE		N07   
	BYTE	W12
	BYTE		        Cs5   v100
	BYTE	W12
	BYTE		N17     Dn5   v104
	BYTE	W21
	BYTE		N07     Cs5   v100
	BYTE	W11
	BYTE		        Bn4   v096
	BYTE	W12
	BYTE		N92     An4   v092
	BYTE	W01
// 014   ----------------------------------------
	BYTE	W96
// 015   ----------------------------------------
	BYTE		N44     An5   v088
	BYTE	W48
	BYTE		        Cs5 
	BYTE	W48
// 016   ----------------------------------------
	BYTE	W01
	BYTE		TIE     Dn5 
	BYTE	W92
	BYTE	W03
// 017   ----------------------------------------
	BYTE	W48
	BYTE	W03
	BYTE		EOT   
	BYTE	W44
	BYTE	W01
// 018   ----------------------------------------
	BYTE	W96
// 019   ----------------------------------------
	BYTE	W13
	BYTE		N07     Dn5   v096
	BYTE	W11
	BYTE		        Cs5   v100
	BYTE	W12
	BYTE		N05     Dn5 
	BYTE	W13
	BYTE		N19     Fs5   v092
	BYTE	W22
	BYTE		N07     En5 
	BYTE	W11
	BYTE		N06     Dn5   v088
	BYTE	W13
	BYTE		N84     Bn4   v096
	BYTE	W01
// 020   ----------------------------------------
	BYTE	W96
// 021   ----------------------------------------
	BYTE	W13
	BYTE		N07     Bn4   v104
	BYTE	W13
	BYTE		        As4   v096
	BYTE	W12
	BYTE		        Bn4   v092
	BYTE	W12
	BYTE		N20     Dn5   v096
	BYTE	W23
	BYTE		N06     Cs5   v100
	BYTE	W09
	BYTE		N07     Bn4   v096
	BYTE	W12
	BYTE		TIE     An4 
	BYTE	W02
// 022   ----------------------------------------
	BYTE	W96
// 023   ----------------------------------------
	BYTE	W04
	BYTE		EOT   
	BYTE	W23
	BYTE		N07   
	BYTE	W11
	BYTE		N06     Gs4 
	BYTE	W11
	BYTE		N07     An4 
	BYTE	W14
	BYTE		N32     An5   v100
	BYTE	W32
	BYTE	W01
// 024   ----------------------------------------
	BYTE	W28
	BYTE		N06     An4   v096
	BYTE	W09
	BYTE		        Gs4 
	BYTE	W11
	BYTE		        An4   v092
	BYTE	W13
	BYTE		N24     An5   v104
	BYTE	W32
	BYTE	W03
// 025   ----------------------------------------
	BYTE		N66     En5   v096
	BYTE	W72
	BYTE		N08     Fs5   v100
	BYTE	W12
	BYTE		        Gn5 
	BYTE	W12
// 026   ----------------------------------------
	BYTE		N66     Fs5   v096
	BYTE	W96
// 027   ----------------------------------------
	BYTE	W24
	BYTE		N08     Dn5   v104
	BYTE	W13
	BYTE		        En5 
	BYTE	W12
	BYTE		N23     Fs5 
	BYTE	W24
	BYTE		N08     En5   v100
	BYTE	W10
	BYTE		        Dn5   v096
	BYTE	W13
// 028   ----------------------------------------
	BYTE		TIE     Bn4 
	BYTE	W96
// 029   ----------------------------------------
	BYTE	W14
	BYTE		EOT   
	BYTE	W10
	BYTE		N08     Bn4   v104
	BYTE	W13
	BYTE		        Cs5 
	BYTE	W12
	BYTE		N23     Dn5 
	BYTE	W24
	BYTE		N08     Cs5   v100
	BYTE	W10
	BYTE		        Bn4   v096
	BYTE	W13
// 030   ----------------------------------------
	BYTE		TIE     An4 
	BYTE	W96
// 031   ----------------------------------------
	BYTE	W14
	BYTE		EOT   
	BYTE	W80
	BYTE	W02
// 032   ----------------------------------------
	BYTE	W96
// 033   ----------------------------------------
	BYTE	W15
	BYTE		N12     Dn5   v108
	BYTE	W09
	BYTE		N07     Cs5   v104
	BYTE	W13
	BYTE		N06     Dn5   v108
	BYTE	W11
	BYTE		        En5   v104
	BYTE	W12
	BYTE		        Fs5   v100
	BYTE	W11
	BYTE		N12     Gn5   v108
	BYTE	W11
	BYTE		N06     An5   v104
	BYTE	W14
// 034   ----------------------------------------
	BYTE		N48     Bn5   v100
	BYTE	W48
	BYTE	W01
	BYTE		N42     As5 
	BYTE	W44
	BYTE	W02
	BYTE		        An5 
	BYTE	W01
// 035   ----------------------------------------
	BYTE	W44
	BYTE	W02
	BYTE		N17     Bn5   v104
	BYTE	W24
	BYTE	W01
	BYTE		N19     Fs5   v092
	BYTE	W24
	BYTE		N44     Gn5   v104
	BYTE	W01
// 036   ----------------------------------------
	BYTE	W48
	BYTE		N48     An5 
	BYTE	W48
// 037   ----------------------------------------
	BYTE	W01
	BYTE		N54     Fs5   v100
	BYTE	W56
	BYTE	W03
	BYTE		N05     An5   v104
	BYTE	W12
	BYTE		        Bn5   v100
	BYTE	W11
	BYTE		        Cs6   v096
	BYTE	W13
// 038   ----------------------------------------
	BYTE		N52     Dn6   v092
	BYTE	W56
	BYTE	W03
	BYTE		N07     Cs6 
	BYTE	W11
	BYTE		N08     Dn6   v096
	BYTE	W13
	BYTE		N05     En6   v092
	BYTE	W13
// 039   ----------------------------------------
	BYTE		N36     Fs6   v100
	BYTE	W44
	BYTE	W02
	BYTE		N21     An5   v096
	BYTE	W24
	BYTE	W02
	BYTE		N19     Fs6   v100
	BYTE	W24
// 040   ----------------------------------------
	BYTE	W01
	BYTE		N48     En6   v096
	BYTE	W44
	BYTE	W03
	BYTE		N24     Dn6 
	BYTE	W24
	BYTE		        Cs6 
	BYTE	W24
// 041   ----------------------------------------
	BYTE		N84     Dn6   v100
	BYTE	W96
// 042   ----------------------------------------
	BYTE	W96
// 043   ----------------------------------------
	BYTE	W96
// 044   ----------------------------------------
	BYTE	W96
// 045   ----------------------------------------
	BYTE	W96
// 046   ----------------------------------------
	BYTE	W96
// 047   ----------------------------------------
	BYTE	W96
// 048   ----------------------------------------
	BYTE	W96
// 049   ----------------------------------------
	BYTE	W96
// 050   ----------------------------------------
	BYTE	W96
// 051   ----------------------------------------
	BYTE	W96
// 052   ----------------------------------------
	BYTE	W96
// 053   ----------------------------------------
	BYTE	W96
	BYTE	GoTo
	 POIN2	SuperMario64SliderSme_5_B1
SuperMario64SliderSme_5_B2:
// 054   ----------------------------------------
	BYTE	W24
	BYTE	FINE

//**************** Track 6 (Midi-Chn.6) ****************//

SuperMario64SliderSme_6:
	BYTE	KEYSH   SuperMario64SliderSme_key+0
// 000   ----------------------------------------
	BYTE		VOICE   0
	BYTE		VOL     94*SuperMario64SliderSme_mvl/mxv
	BYTE	W48
	BYTE	W03
	BYTE		PAN     c_v-44
	BYTE	W44
	BYTE	W01
// 001   ----------------------------------------
	BYTE	W96
SuperMario64SliderSme_6_B1:
// 002   ----------------------------------------
SuperMario64SliderSme_6_002:
	BYTE		N10     An2   v072
	BYTE		N10     Dn3 
	BYTE		N10     Fs3 
	BYTE	W30
	BYTE		N14     An2 
	BYTE		N14     Dn3 
	BYTE		N14     Fs3 
	BYTE	W18
	BYTE		N40     An2 
	BYTE		N40     Dn3 
	BYTE		N40     Fs3 
	BYTE	W48
	BYTE	PEND
// 003   ----------------------------------------
SuperMario64SliderSme_6_003:
	BYTE	W12
	BYTE		N07     An2   v072
	BYTE		N07     Cn3 
	BYTE		N07     Fs3 
	BYTE	W24
	BYTE		        An2 
	BYTE		N07     Cn3 
	BYTE		N07     Fs3 
	BYTE	W12
	BYTE		N18     An2 
	BYTE		N18     Cn3 
	BYTE		N18     Fs3 
	BYTE	W24
	BYTE		        An2 
	BYTE		N18     Cn3 
	BYTE		N18     Fs3 
	BYTE	W24
	BYTE	PEND
// 004   ----------------------------------------
SuperMario64SliderSme_6_004:
	BYTE	W12
	BYTE		N10     Bn2   v072
	BYTE		N10     Dn3 
	BYTE		N10     Gn3 
	BYTE	W18
	BYTE		N14     Bn2 
	BYTE		N14     Dn3 
	BYTE		N14     Gn3 
	BYTE	W18
	BYTE		        Bn2 
	BYTE		N14     Dn3 
	BYTE		N14     Gn3 
	BYTE	W18
	BYTE		N08     Bn2   v076
	BYTE		N08     Dn3 
	BYTE		N08     Gn3 
	BYTE	W18
	BYTE		N10     Bn2   v072
	BYTE		N10     Dn3 
	BYTE		N10     Gn3 
	BYTE	W12
	BYTE	PEND
// 005   ----------------------------------------
SuperMario64SliderSme_6_005:
	BYTE		N14     Bn2   v072
	BYTE		N14     Fn3 
	BYTE		N14     Gs3 
	BYTE	W18
	BYTE		N08     Bn2   v076
	BYTE		N08     Fn3 
	BYTE		N08     Gs3 
	BYTE	W18
	BYTE		N10     Bn2   v072
	BYTE		N10     Fn3 
	BYTE		N10     Gs3 
	BYTE	W24
	BYTE		N07     Bn2 
	BYTE		N07     Fn3 
	BYTE		N07     Gs3 
	BYTE	W24
	BYTE		        Bn2 
	BYTE		N07     Fn3 
	BYTE		N07     Gs3 
	BYTE	W12
	BYTE	PEND
// 006   ----------------------------------------
SuperMario64SliderSme_6_006:
	BYTE	W12
	BYTE		N07     Cs3   v072
	BYTE		N07     En3 
	BYTE		N07     An3 
	BYTE	W24
	BYTE		        Cs3 
	BYTE		N07     En3 
	BYTE		N07     An3 
	BYTE	W24
	BYTE		        Cs3 
	BYTE		N07     En3 
	BYTE		N07     An3 
	BYTE	W24
	BYTE		        Cs3 
	BYTE		N07     En3 
	BYTE		N07     An3 
	BYTE	W12
	BYTE	PEND
// 007   ----------------------------------------
SuperMario64SliderSme_6_007:
	BYTE	W12
	BYTE		N07     Cn3   v072
	BYTE		N07     Ds3 
	BYTE		N07     An3 
	BYTE	W24
	BYTE		        Cn3 
	BYTE		N07     Ds3 
	BYTE		N07     An3 
	BYTE	W24
	BYTE		        Cn3 
	BYTE		N07     Ds3 
	BYTE		N07     An3 
	BYTE	W24
	BYTE		        Cn3 
	BYTE		N07     Ds3 
	BYTE		N07     An3 
	BYTE	W12
	BYTE	PEND
// 008   ----------------------------------------
SuperMario64SliderSme_6_008:
	BYTE	W12
	BYTE		N07     Bn2   v072
	BYTE		N07     Dn3 
	BYTE		N07     Gn3 
	BYTE	W24
	BYTE		        Bn2 
	BYTE		N07     Dn3 
	BYTE		N07     Gn3 
	BYTE	W24
	BYTE		        Bn2 
	BYTE		N07     Dn3 
	BYTE		N07     Gn3 
	BYTE	W24
	BYTE		        Bn2 
	BYTE		N07     Dn3 
	BYTE		N07     Gn3 
	BYTE	W12
	BYTE	PEND
// 009   ----------------------------------------
SuperMario64SliderSme_6_009:
	BYTE		N40     Cs3   v072
	BYTE		N40     En3 
	BYTE		N40     Gn3 
	BYTE	W60
	BYTE		N10     Cs3 
	BYTE		N10     En3 
	BYTE		N10     Gn3 
	BYTE	W18
	BYTE		N14     Cs3 
	BYTE		N14     En3 
	BYTE		N14     Gn3 
	BYTE	W18
	BYTE	PEND
// 010   ----------------------------------------
	BYTE		        An2 
	BYTE		N14     Dn3 
	BYTE		N14     Fs3 
	BYTE	W18
	BYTE		N08     An2   v076
	BYTE		N08     Dn3 
	BYTE		N08     Fs3 
	BYTE	W18
	BYTE		N10     An2   v072
	BYTE		N10     Dn3 
	BYTE		N10     Fs3 
	BYTE	W24
	BYTE		N07     An2 
	BYTE		N07     Dn3 
	BYTE		N07     Fs3 
	BYTE	W24
	BYTE		        An2 
	BYTE		N07     Dn3 
	BYTE		N07     Fs3 
	BYTE	W12
// 011   ----------------------------------------
SuperMario64SliderSme_6_011:
	BYTE		N14     An2   v072
	BYTE		N14     Cn3 
	BYTE		N14     Fs3 
	BYTE	W18
	BYTE		N08     An2   v076
	BYTE		N08     Cn3 
	BYTE		N08     Fs3 
	BYTE	W18
	BYTE		N10     An2   v072
	BYTE		N10     Cn3 
	BYTE		N10     Fs3 
	BYTE	W24
	BYTE		N07     An2 
	BYTE		N07     Cn3 
	BYTE		N07     Fs3 
	BYTE	W24
	BYTE		        An2 
	BYTE		N07     Cn3 
	BYTE		N07     Fs3 
	BYTE	W12
	BYTE	PEND
// 012   ----------------------------------------
	BYTE		N28     Bn2   v080
	BYTE		N28     Dn3 
	BYTE		N28     Gn3 
	BYTE	W36
	BYTE		N10     Bn2 
	BYTE		N10     Dn3 
	BYTE		N10     Gn3 
	BYTE	W24
	BYTE		        Bn2 
	BYTE		N10     Dn3 
	BYTE		N10     Gn3 
	BYTE	W24
	BYTE		        Bn2 
	BYTE		N10     Dn3 
	BYTE		N10     Gn3 
	BYTE	W12
// 013   ----------------------------------------
	BYTE		N14     Bn2   v072
	BYTE		N14     Dn3 
	BYTE		N14     Gs3 
	BYTE	W18
	BYTE		N08     Bn2   v076
	BYTE		N08     Dn3 
	BYTE		N08     Gs3 
	BYTE	W18
	BYTE		N10     Bn2   v072
	BYTE		N10     Dn3 
	BYTE		N10     Gs3 
	BYTE	W24
	BYTE		N07     Bn2 
	BYTE		N07     Dn3 
	BYTE		N07     Gs3 
	BYTE	W24
	BYTE		        Bn2 
	BYTE		N07     Dn3 
	BYTE		N07     Gs3 
	BYTE	W12
// 014   ----------------------------------------
	BYTE	W12
	BYTE		        Cs3 
	BYTE		N07     En3 
	BYTE		N07     An3 
	BYTE	W24
	BYTE		        Cs3 
	BYTE		N07     En3 
	BYTE		N07     An3 
	BYTE	W12
	BYTE		N18     Cn3 
	BYTE		N18     Ds3 
	BYTE		N18     An3 
	BYTE	W24
	BYTE		        Cn3 
	BYTE		N18     Ds3 
	BYTE		N18     An3 
	BYTE	W24
// 015   ----------------------------------------
SuperMario64SliderSme_6_015:
	BYTE	W12
	BYTE		N07     Bn2   v072
	BYTE		N07     Dn3 
	BYTE		N07     Gn3 
	BYTE	W24
	BYTE		        Bn2 
	BYTE		N07     Dn3 
	BYTE		N07     Gn3 
	BYTE	W24
	BYTE		        As2 
	BYTE		N07     Cs3 
	BYTE		N07     Gn3 
	BYTE	W24
	BYTE		        As2 
	BYTE		N07     Cs3 
	BYTE		N07     Gn3 
	BYTE	W12
	BYTE	PEND
// 016   ----------------------------------------
	BYTE		N18     Cs3 
	BYTE		N18     En3 
	BYTE		N18     Fs3 
	BYTE	W24
	BYTE		        Cs3 
	BYTE		N18     En3 
	BYTE		N18     Fs3 
	BYTE	W36
	BYTE		N07     Cs3 
	BYTE		N07     Dn3 
	BYTE		N07     Fs3 
	BYTE	W24
	BYTE		        Cs3 
	BYTE		N07     Dn3 
	BYTE		N07     Fs3 
	BYTE	W12
// 017   ----------------------------------------
	BYTE	W12
	BYTE		        An2 
	BYTE		N07     Cn3 
	BYTE		N07     Fn3 
	BYTE	W24
	BYTE		        An2 
	BYTE		N07     Cn3 
	BYTE		N07     Fn3 
	BYTE	W24
	BYTE		        As2 
	BYTE		N07     Dn3 
	BYTE		N07     Fn3 
	BYTE	W24
	BYTE		        As2 
	BYTE		N07     Dn3 
	BYTE		N07     Fn3 
	BYTE	W12
// 018   ----------------------------------------
	BYTE	PATT
	 POIN2	SuperMario64SliderSme_6_002
// 019   ----------------------------------------
	BYTE	PATT
	 POIN2	SuperMario64SliderSme_6_003
// 020   ----------------------------------------
	BYTE	PATT
	 POIN2	SuperMario64SliderSme_6_004
// 021   ----------------------------------------
	BYTE	PATT
	 POIN2	SuperMario64SliderSme_6_005
// 022   ----------------------------------------
	BYTE	PATT
	 POIN2	SuperMario64SliderSme_6_006
// 023   ----------------------------------------
	BYTE	PATT
	 POIN2	SuperMario64SliderSme_6_007
// 024   ----------------------------------------
	BYTE	PATT
	 POIN2	SuperMario64SliderSme_6_008
// 025   ----------------------------------------
	BYTE	PATT
	 POIN2	SuperMario64SliderSme_6_009
// 026   ----------------------------------------
	BYTE	W12
	BYTE		N07     An2   v072
	BYTE		N07     Dn3 
	BYTE		N07     Fs3 
	BYTE	W24
	BYTE		        An2 
	BYTE		N07     Dn3 
	BYTE		N07     Fs3 
	BYTE	W24
	BYTE		        An2 
	BYTE		N07     Dn3 
	BYTE		N07     Fs3 
	BYTE	W24
	BYTE		        An2 
	BYTE		N07     Dn3 
	BYTE		N07     Fs3 
	BYTE	W12
// 027   ----------------------------------------
	BYTE	W12
	BYTE		N10     An2 
	BYTE		N10     Cn3 
	BYTE		N10     Fs3 
	BYTE	W18
	BYTE		N14     An2 
	BYTE		N14     Cn3 
	BYTE		N14     Fs3 
	BYTE	W18
	BYTE		        An2 
	BYTE		N14     Cn3 
	BYTE		N14     Fs3 
	BYTE	W18
	BYTE		N08     An2   v076
	BYTE		N08     Cn3 
	BYTE		N08     Fs3 
	BYTE	W18
	BYTE		N10     An2   v072
	BYTE		N10     Cn3 
	BYTE		N10     Fs3 
	BYTE	W12
// 028   ----------------------------------------
	BYTE	PATT
	 POIN2	SuperMario64SliderSme_6_008
// 029   ----------------------------------------
	BYTE	W12
	BYTE		N10     Bn2   v072
	BYTE		N10     Dn3 
	BYTE		N10     Gs3 
	BYTE	W18
	BYTE		N14     Bn2 
	BYTE		N14     Dn3 
	BYTE		N14     Gs3 
	BYTE	W18
	BYTE		N40     Bn2 
	BYTE		N40     Dn3 
	BYTE		N40     Gs3 
	BYTE	W48
// 030   ----------------------------------------
	BYTE	W12
	BYTE		N07     Cs3 
	BYTE		N07     En3 
	BYTE		N07     An3 
	BYTE	W24
	BYTE		        Cs3 
	BYTE		N07     En3 
	BYTE		N07     An3 
	BYTE	W24
	BYTE		        Cn3 
	BYTE		N07     Ds3 
	BYTE		N07     An3 
	BYTE	W24
	BYTE		        Cn3 
	BYTE		N07     Ds3 
	BYTE		N07     An3 
	BYTE	W12
// 031   ----------------------------------------
	BYTE	W12
	BYTE		        Bn2 
	BYTE		N07     Dn3 
	BYTE		N07     Gn3 
	BYTE	W24
	BYTE		        Bn2 
	BYTE		N07     Dn3 
	BYTE		N07     Gn3 
	BYTE	W12
	BYTE		N18     As2 
	BYTE		N18     Cs3 
	BYTE		N18     Gn3 
	BYTE	W24
	BYTE		        As2 
	BYTE		N18     Cs3 
	BYTE		N18     Gn3 
	BYTE	W24
// 032   ----------------------------------------
	BYTE	W12
	BYTE		N07     Cs3 
	BYTE		N07     En3 
	BYTE		N07     Fs3 
	BYTE	W24
	BYTE		        Cs3 
	BYTE		N07     En3 
	BYTE		N07     Fs3 
	BYTE	W24
	BYTE		        Cs3 
	BYTE		N07     Dn3 
	BYTE		N07     Fs3 
	BYTE	W24
	BYTE		        Cs3 
	BYTE		N07     Dn3 
	BYTE		N07     Fs3 
	BYTE	W12
// 033   ----------------------------------------
SuperMario64SliderSme_6_033:
	BYTE	W12
	BYTE		N07     Cs3   v072
	BYTE		N07     En3 
	BYTE		N07     Fs3 
	BYTE	W24
	BYTE		        Cs3 
	BYTE		N07     En3 
	BYTE		N07     Fs3 
	BYTE	W24
	BYTE		        Cs3 
	BYTE		N07     En3 
	BYTE		N07     Fs3 
	BYTE	W24
	BYTE		        Cs3 
	BYTE		N07     En3 
	BYTE		N07     Fs3 
	BYTE	W12
	BYTE	PEND
// 034   ----------------------------------------
	BYTE		N14     Bn2 
	BYTE		N14     Dn3 
	BYTE		N14     Gn3 
	BYTE	W18
	BYTE		N08     Bn2   v076
	BYTE		N08     Dn3 
	BYTE		N08     Gn3 
	BYTE	W18
	BYTE		N10     Bn2   v072
	BYTE		N10     Dn3 
	BYTE		N10     Gn3 
	BYTE	W12
	BYTE		N40     As2 
	BYTE		N40     Cs3 
	BYTE		N40     Gn3 
	BYTE	W48
// 035   ----------------------------------------
	BYTE		N14     Cs3 
	BYTE		N14     En3 
	BYTE		N14     An3 
	BYTE	W18
	BYTE		N08     Cs3   v076
	BYTE		N08     En3 
	BYTE		N08     An3 
	BYTE	W18
	BYTE		N10     Cs3   v072
	BYTE		N10     En3 
	BYTE		N10     An3 
	BYTE	W24
	BYTE		N07     Bn2 
	BYTE		N07     Dn3 
	BYTE		N07     Gs3 
	BYTE	W24
	BYTE		        Bn2 
	BYTE		N07     Dn3 
	BYTE		N07     Gs3 
	BYTE	W12
// 036   ----------------------------------------
	BYTE	W12
	BYTE		        Bn2 
	BYTE		N07     Dn3 
	BYTE		N07     Gn3 
	BYTE	W24
	BYTE		        Bn2 
	BYTE		N07     Dn3 
	BYTE		N07     Gn3 
	BYTE	W12
	BYTE		N40     As2 
	BYTE		N40     Cs3 
	BYTE		N40     Gn3 
	BYTE	W48
// 037   ----------------------------------------
	BYTE	PATT
	 POIN2	SuperMario64SliderSme_6_033
// 038   ----------------------------------------
	BYTE		N40     Bn2   v072
	BYTE		N40     Dn3 
	BYTE		N40     Gn3 
	BYTE	W48
	BYTE		N18     As2 
	BYTE		N18     Cs3 
	BYTE		N18     Gn3 
	BYTE	W24
	BYTE		        As2 
	BYTE		N18     Cs3 
	BYTE		N18     Gn3 
	BYTE	W24
// 039   ----------------------------------------
	BYTE	W12
	BYTE		N07     An2 
	BYTE		N07     Cs3 
	BYTE		N07     Fs3 
	BYTE	W24
	BYTE		        An2 
	BYTE		N07     Cs3 
	BYTE		N07     Fs3 
	BYTE	W24
	BYTE		        Bn2 
	BYTE		N07     Dn3 
	BYTE		N07     Gs3 
	BYTE	W24
	BYTE		        Bn2 
	BYTE		N07     Dn3 
	BYTE		N07     Gs3 
	BYTE	W12
// 040   ----------------------------------------
	BYTE	PATT
	 POIN2	SuperMario64SliderSme_6_015
// 041   ----------------------------------------
	BYTE		N40     Cs3   v072
	BYTE		N40     En3 
	BYTE		N40     Fs3 
	BYTE	W60
	BYTE		N10     Cs3 
	BYTE		N10     En3 
	BYTE		N10     Fs3 
	BYTE	W18
	BYTE		N14     Cs3 
	BYTE		N14     En3 
	BYTE		N14     Fs3 
	BYTE	W18
// 042   ----------------------------------------
SuperMario64SliderSme_6_042:
	BYTE	W12
	BYTE		N07     An2   v072
	BYTE		N07     Cn3 
	BYTE		N07     Fs3 
	BYTE	W24
	BYTE		        An2 
	BYTE		N07     Cn3 
	BYTE		N07     Fs3 
	BYTE	W24
	BYTE		        An2 
	BYTE		N07     Cn3 
	BYTE		N07     Fs3 
	BYTE	W24
	BYTE		        An2 
	BYTE		N07     Cn3 
	BYTE		N07     Fs3 
	BYTE	W12
	BYTE	PEND
// 043   ----------------------------------------
	BYTE	PATT
	 POIN2	SuperMario64SliderSme_6_042
// 044   ----------------------------------------
	BYTE		N28     Bn2   v080
	BYTE		N28     Dn3 
	BYTE		N28     Fn3 
	BYTE	W36
	BYTE		N07     Bn2 
	BYTE		N07     Dn3 
	BYTE		N07     Fn3 
	BYTE	W24
	BYTE		        Bn2 
	BYTE		N07     Dn3 
	BYTE		N07     Fn3 
	BYTE	W24
	BYTE		        Bn2 
	BYTE		N07     Dn3 
	BYTE		N07     Fn3 
	BYTE	W12
// 045   ----------------------------------------
	BYTE	W12
	BYTE		N10     Bn2   v072
	BYTE		N10     Dn3 
	BYTE		N10     Fn3 
	BYTE	W18
	BYTE		N14     Bn2 
	BYTE		N14     Dn3 
	BYTE		N14     Fn3 
	BYTE	W18
	BYTE		        Bn2 
	BYTE		N14     Dn3 
	BYTE		N14     Fn3 
	BYTE	W18
	BYTE		N08     Bn2   v076
	BYTE		N08     Dn3 
	BYTE		N08     Fn3 
	BYTE	W18
	BYTE		N10     Bn2   v072
	BYTE		N10     Dn3 
	BYTE		N10     Fn3 
	BYTE	W12
// 046   ----------------------------------------
	BYTE	PATT
	 POIN2	SuperMario64SliderSme_6_011
// 047   ----------------------------------------
SuperMario64SliderSme_6_047:
	BYTE		N28     An2   v080
	BYTE		N28     Cn3 
	BYTE		N28     Fs3 
	BYTE	W36
	BYTE		N07     An2 
	BYTE		N07     Cn3 
	BYTE		N07     Fs3 
	BYTE	W24
	BYTE		        An2 
	BYTE		N07     Cn3 
	BYTE		N07     Fs3 
	BYTE	W24
	BYTE		        An2 
	BYTE		N07     Cn3 
	BYTE		N07     Fs3 
	BYTE	W12
	BYTE	PEND
// 048   ----------------------------------------
	BYTE		N14     Bn2   v072
	BYTE		N14     Dn3 
	BYTE		N14     Fn3 
	BYTE	W18
	BYTE		N08     Bn2   v076
	BYTE		N08     Dn3 
	BYTE		N08     Fn3 
	BYTE	W18
	BYTE		N10     Bn2   v072
	BYTE		N10     Dn3 
	BYTE		N10     Fn3 
	BYTE	W24
	BYTE		N07     Bn2 
	BYTE		N07     Dn3 
	BYTE		N07     Fn3 
	BYTE	W24
	BYTE		        Bn2 
	BYTE		N07     Dn3 
	BYTE		N07     Fn3 
	BYTE	W12
// 049   ----------------------------------------
	BYTE	W12
	BYTE		        Bn2 
	BYTE		N07     Dn3 
	BYTE		N07     Fn3 
	BYTE	W24
	BYTE		        Bn2 
	BYTE		N07     Dn3 
	BYTE		N07     Fn3 
	BYTE	W24
	BYTE		        Bn2 
	BYTE		N07     Dn3 
	BYTE		N07     Fn3 
	BYTE	W24
	BYTE		        Bn2 
	BYTE		N07     Dn3 
	BYTE		N07     Fn3 
	BYTE	W12
// 050   ----------------------------------------
	BYTE		N40     An2 
	BYTE		N40     Cn3 
	BYTE		N40     Fs3 
	BYTE	W60
	BYTE		N10     An2 
	BYTE		N10     Cn3 
	BYTE		N10     Fs3 
	BYTE	W18
	BYTE		N14     An2 
	BYTE		N14     Cn3 
	BYTE		N14     Fs3 
	BYTE	W18
// 051   ----------------------------------------
	BYTE	PATT
	 POIN2	SuperMario64SliderSme_6_047
// 052   ----------------------------------------
	BYTE	W12
	BYTE		N07     Bn2   v072
	BYTE		N07     Dn3 
	BYTE		N07     Gn3 
	BYTE	W24
	BYTE		        Bn2 
	BYTE		N07     Dn3 
	BYTE		N07     Gn3 
	BYTE	W12
	BYTE		N18     Bn2 
	BYTE		N18     Dn3 
	BYTE		N18     Gn3 
	BYTE	W24
	BYTE		        Bn2 
	BYTE		N18     Dn3 
	BYTE		N18     Gn3 
	BYTE	W24
// 053   ----------------------------------------
	BYTE	W12
	BYTE		N07     Bn2 
	BYTE		N07     Cs3 
	BYTE		N07     Gn3 
	BYTE	W24
	BYTE		        Bn2 
	BYTE		N07     Cs3 
	BYTE		N07     Gn3 
	BYTE	W24
	BYTE		        Bn2 
	BYTE		N07     Cs3 
	BYTE		N07     Gn3 
	BYTE	W24
	BYTE		        Bn2 
	BYTE		N07     Cs3 
	BYTE		N07     Gn3 
	BYTE	W12
	BYTE	GoTo
	 POIN2	SuperMario64SliderSme_6_B1
SuperMario64SliderSme_6_B2:
// 054   ----------------------------------------
	BYTE	W24
	BYTE	FINE

//**************** Track 7 (Midi-Chn.7) ****************//

SuperMario64SliderSme_7:
	BYTE	KEYSH   SuperMario64SliderSme_key+0
// 000   ----------------------------------------
	BYTE		VOICE   36
	BYTE		VOL     107*SuperMario64SliderSme_mvl/mxv
	BYTE		PAN     c_v-4
	BYTE	W24
	BYTE		N22     An1   v104
	BYTE	W24
	BYTE	W03
	BYTE	W21
	BYTE		N20   
	BYTE	W24
// 001   ----------------------------------------
	BYTE		N17     An1   v116
	BYTE	W24
	BYTE		N09     An1   v104
	BYTE	W12
	BYTE		N04     An2 
	BYTE	W06
	BYTE		        An1 
	BYTE	W06
	BYTE		N08     Bn1   v112
	BYTE	W12
	BYTE		N08   
	BYTE	W12
	BYTE		        Cn2 
	BYTE	W12
	BYTE		        Cs2 
	BYTE	W12
SuperMario64SliderSme_7_B1:
// 002   ----------------------------------------
	BYTE		N18     Dn2   v108
	BYTE	W24
	BYTE		        An1   v088
	BYTE	W24
	BYTE		N13     Dn2   v096
	BYTE	W18
	BYTE		N04     Dn2   v064
	BYTE	W06
	BYTE		N09     Bn1   v084
	BYTE	W12
	BYTE		        Cs2 
	BYTE	W12
// 003   ----------------------------------------
	BYTE		N18     Dn2   v104
	BYTE	W24
	BYTE		        An1   v080
	BYTE	W24
	BYTE		N13     Dn2   v096
	BYTE	W18
	BYTE		N04     Dn2   v064
	BYTE	W06
	BYTE		N09     Cn2   v084
	BYTE	W12
	BYTE		        An1 
	BYTE	W12
// 004   ----------------------------------------
	BYTE		N18     Gn1   v096
	BYTE	W24
	BYTE		        Dn1   v088
	BYTE	W24
	BYTE		        Gn1   v100
	BYTE	W24
	BYTE		        Dn1   v088
	BYTE	W24
// 005   ----------------------------------------
	BYTE		        Gs1   v100
	BYTE	W24
	BYTE		        Dn1   v092
	BYTE	W24
	BYTE		        Gs1   v104
	BYTE	W24
	BYTE		        Dn1   v088
	BYTE	W24
// 006   ----------------------------------------
	BYTE		        Fs1   v108
	BYTE	W24
	BYTE		        Cs1   v096
	BYTE	W24
	BYTE		N13     Fs1   v104
	BYTE	W18
	BYTE		N04     Fs1   v072
	BYTE	W06
	BYTE		N09     An1   v092
	BYTE	W12
	BYTE		        Cs2   v084
	BYTE	W12
// 007   ----------------------------------------
	BYTE		N18     Fn1   v108
	BYTE	W24
	BYTE		        Cn1   v084
	BYTE	W24
	BYTE		        Fn1   v096
	BYTE	W24
	BYTE		N09     An1   v084
	BYTE	W12
	BYTE		        Cn2   v068
	BYTE	W12
// 008   ----------------------------------------
	BYTE		N18     En1   v100
	BYTE	W24
	BYTE		        Bn0   v088
	BYTE	W24
	BYTE		N13     En1   v100
	BYTE	W18
	BYTE		N04     En1   v068
	BYTE	W06
	BYTE		N09     Fs1   v084
	BYTE	W12
	BYTE		        Gs1   v072
	BYTE	W12
// 009   ----------------------------------------
	BYTE		N18     An1   v100
	BYTE	W24
	BYTE		        En1   v096
	BYTE	W24
	BYTE		        An1   v092
	BYTE	W24
	BYTE		N09     Bn1   v096
	BYTE	W12
	BYTE		        Cn2   v068
	BYTE	W12
// 010   ----------------------------------------
	BYTE		N18     Dn2   v100
	BYTE	W24
	BYTE		        An1   v092
	BYTE	W24
	BYTE		N13     Dn2   v100
	BYTE	W18
	BYTE		N04     Dn2   v076
	BYTE	W06
	BYTE		N09     Fs1   v092
	BYTE	W12
	BYTE		        An1   v084
	BYTE	W12
// 011   ----------------------------------------
	BYTE		N18     Ds2   v100
	BYTE	W24
	BYTE		        An1   v088
	BYTE	W24
	BYTE		        Ds2   v092
	BYTE	W24
	BYTE		        An1   v084
	BYTE	W24
// 012   ----------------------------------------
	BYTE		        En2   v108
	BYTE	W24
	BYTE		        Bn1   v080
	BYTE	W24
	BYTE		        En2   v092
	BYTE	W24
	BYTE		        Bn1   v088
	BYTE	W24
// 013   ----------------------------------------
	BYTE		        Fn2   v104
	BYTE	W24
	BYTE		        Bn1   v076
	BYTE	W24
	BYTE		        Fn2   v100
	BYTE	W24
	BYTE		        Bn1   v092
	BYTE	W24
// 014   ----------------------------------------
	BYTE		        Fs2   v104
	BYTE	W24
	BYTE		        Fs2   v096
	BYTE	W24
	BYTE		        Fn2 
	BYTE	W24
	BYTE		        Fn2   v076
	BYTE	W24
// 015   ----------------------------------------
	BYTE		        En2   v108
	BYTE	W24
	BYTE		        En2   v080
	BYTE	W24
	BYTE		        Ds2   v108
	BYTE	W24
	BYTE		        Ds2   v084
	BYTE	W24
// 016   ----------------------------------------
	BYTE		        Dn2   v112
	BYTE	W24
	BYTE		        Dn2   v096
	BYTE	W24
	BYTE		        Bn1   v092
	BYTE	W24
	BYTE		        Bn1   v080
	BYTE	W24
// 017   ----------------------------------------
	BYTE		        As1   v096
	BYTE	W24
	BYTE		        As1   v084
	BYTE	W24
	BYTE		        Ds2   v104
	BYTE	W24
	BYTE		        Ds2   v076
	BYTE	W24
// 018   ----------------------------------------
	BYTE		        Dn2   v108
	BYTE	W24
	BYTE		        An1   v084
	BYTE	W24
	BYTE		        Dn2   v096
	BYTE	W24
	BYTE		        An1 
	BYTE	W24
// 019   ----------------------------------------
	BYTE		        Dn2   v100
	BYTE	W24
	BYTE		        An1   v076
	BYTE	W24
	BYTE		        Dn2   v092
	BYTE	W24
	BYTE		N09     Cn2 
	BYTE	W12
	BYTE		        An1   v072
	BYTE	W12
// 020   ----------------------------------------
	BYTE		N18     Gn1   v096
	BYTE	W24
	BYTE		        Dn1   v080
	BYTE	W24
	BYTE		        Gn1   v100
	BYTE	W24
	BYTE		N09     En1   v076
	BYTE	W12
	BYTE		        Fs1 
	BYTE	W12
// 021   ----------------------------------------
	BYTE		N18     Gs1   v100
	BYTE	W24
	BYTE		        Dn1   v096
	BYTE	W24
	BYTE		        Gs1   v104
	BYTE	W24
	BYTE		        Dn1   v092
	BYTE	W24
// 022   ----------------------------------------
	BYTE		        Fs1   v100
	BYTE	W24
	BYTE		        Cs1   v096
	BYTE	W24
	BYTE		N13     Fs1   v100
	BYTE	W18
	BYTE		N04     Fs1   v064
	BYTE	W06
	BYTE		N09     An1   v096
	BYTE	W12
	BYTE		        Cs2   v072
	BYTE	W12
// 023   ----------------------------------------
	BYTE		N18     Fn1   v108
	BYTE	W24
	BYTE		        Cn1   v076
	BYTE	W24
	BYTE		        Fn1   v092
	BYTE	W24
	BYTE		N09     An1   v096
	BYTE	W12
	BYTE		        Cn2   v080
	BYTE	W12
// 024   ----------------------------------------
	BYTE		N18     En1   v100
	BYTE	W24
	BYTE		        Bn0   v092
	BYTE	W24
	BYTE		        En1 
	BYTE	W24
	BYTE		        Gs1 
	BYTE	W24
// 025   ----------------------------------------
	BYTE		        An1 
	BYTE	W24
	BYTE		        En1   v088
	BYTE	W24
	BYTE		        An1   v108
	BYTE	W24
	BYTE		        En1   v084
	BYTE	W24
// 026   ----------------------------------------
	BYTE		        Dn2   v104
	BYTE	W24
	BYTE		        An1   v084
	BYTE	W24
	BYTE		        Dn2   v096
	BYTE	W24
	BYTE		        An1   v084
	BYTE	W24
// 027   ----------------------------------------
	BYTE		        Ds2   v108
	BYTE	W24
	BYTE		        An1   v084
	BYTE	W24
	BYTE		        Ds2   v092
	BYTE	W24
	BYTE		        An1 
	BYTE	W24
// 028   ----------------------------------------
	BYTE		        En2   v096
	BYTE	W24
	BYTE		        Bn1   v080
	BYTE	W24
	BYTE		        En2   v104
	BYTE	W24
	BYTE		        Bn1   v092
	BYTE	W24
// 029   ----------------------------------------
	BYTE		        Fn2   v100
	BYTE	W24
	BYTE		        Bn1   v084
	BYTE	W24
	BYTE		        Fn2   v108
	BYTE	W24
	BYTE		N09     Cs2   v084
	BYTE	W12
	BYTE		        Ds2   v080
	BYTE	W12
// 030   ----------------------------------------
	BYTE		N18     Fs2   v096
	BYTE	W24
	BYTE		        Fs2   v084
	BYTE	W24
	BYTE		        Fn2   v092
	BYTE	W24
	BYTE		N09   
	BYTE	W12
	BYTE		        En2   v072
	BYTE	W12
// 031   ----------------------------------------
	BYTE		N18     En2   v104
	BYTE	W24
	BYTE		        En2   v080
	BYTE	W24
	BYTE		        Ds2   v104
	BYTE	W24
	BYTE		        Ds2   v092
	BYTE	W24
// 032   ----------------------------------------
	BYTE		        Dn2   v100
	BYTE	W24
	BYTE		N09     Bn1   v080
	BYTE	W12
	BYTE		        Cs2   v072
	BYTE	W12
	BYTE		N18     Dn2   v092
	BYTE	W24
	BYTE		        An1   v088
	BYTE	W24
// 033   ----------------------------------------
	BYTE		        Dn2   v104
	BYTE	W24
	BYTE		        An1   v084
	BYTE	W24
	BYTE		        Dn2   v092
	BYTE	W24
	BYTE		N09     En2   v080
	BYTE	W12
	BYTE		        Fs2   v076
	BYTE	W12
// 034   ----------------------------------------
	BYTE		N18     Gn2   v108
	BYTE	W24
	BYTE		        Gn2   v080
	BYTE	W24
	BYTE		        Gn2   v108
	BYTE	W24
	BYTE		        Gn2   v096
	BYTE	W24
// 035   ----------------------------------------
	BYTE		        Fs2   v100
	BYTE	W24
	BYTE		        Fs2   v096
	BYTE	W24
	BYTE		        Fn2   v104
	BYTE	W24
	BYTE		        Fn2   v080
	BYTE	W24
// 036   ----------------------------------------
	BYTE		        En2   v104
	BYTE	W24
	BYTE		        En2   v080
	BYTE	W24
	BYTE		        Ds2   v100
	BYTE	W24
	BYTE		        Ds2   v088
	BYTE	W24
// 037   ----------------------------------------
	BYTE		        Dn2   v104
	BYTE	W24
	BYTE		        An1   v092
	BYTE	W24
	BYTE		        Dn2 
	BYTE	W24
	BYTE		N09     En2   v080
	BYTE	W12
	BYTE		        Fs2   v068
	BYTE	W12
// 038   ----------------------------------------
	BYTE		N18     Gn2   v092
	BYTE	W24
	BYTE		N18   
	BYTE	W24
	BYTE		        Gn2   v100
	BYTE	W24
	BYTE		        Gn2   v084
	BYTE	W24
// 039   ----------------------------------------
	BYTE		N13     Fs2   v104
	BYTE	W18
	BYTE		N04     Fs2   v076
	BYTE	W06
	BYTE		N09     Dn2   v084
	BYTE	W12
	BYTE		        En2   v072
	BYTE	W12
	BYTE		N18     Fn2   v104
	BYTE	W24
	BYTE		        Fn2   v092
	BYTE	W24
// 040   ----------------------------------------
	BYTE		        En2   v100
	BYTE	W24
	BYTE		        En2   v080
	BYTE	W24
	BYTE		        Ds2   v104
	BYTE	W24
	BYTE		        Ds2   v092
	BYTE	W24
// 041   ----------------------------------------
	BYTE		        Dn2   v100
	BYTE	W24
	BYTE		        An1   v088
	BYTE	W24
	BYTE		        Dn2   v100
	BYTE	W24
	BYTE		        An1   v088
	BYTE	W24
// 042   ----------------------------------------
	BYTE		        Dn2   v100
	BYTE	W24
	BYTE		        Cn2   v096
	BYTE	W24
	BYTE		        Bn1   v092
	BYTE	W24
	BYTE		        An1   v080
	BYTE	W24
// 043   ----------------------------------------
	BYTE		        Dn2   v092
	BYTE	W24
	BYTE		        An1   v084
	BYTE	W24
	BYTE		        Dn2   v092
	BYTE	W24
	BYTE		N09     En2   v084
	BYTE	W12
	BYTE		        Fs2   v072
	BYTE	W12
// 044   ----------------------------------------
	BYTE		N18     Gn2   v104
	BYTE	W24
	BYTE		        Fn2   v088
	BYTE	W24
	BYTE		        En2   v108
	BYTE	W24
	BYTE		        Dn2   v080
	BYTE	W24
// 045   ----------------------------------------
	BYTE		        Gn2   v100
	BYTE	W24
	BYTE		        Dn2   v080
	BYTE	W24
	BYTE		N13     Gn2   v100
	BYTE	W18
	BYTE		N04     Gn2   v072
	BYTE	W06
	BYTE		N09     Fn2   v092
	BYTE	W12
	BYTE		        En2   v072
	BYTE	W12
// 046   ----------------------------------------
	BYTE		N18     Dn2   v104
	BYTE	W24
	BYTE		        Cn2   v088
	BYTE	W24
	BYTE		        Bn1   v108
	BYTE	W24
	BYTE		        An1   v096
	BYTE	W24
// 047   ----------------------------------------
	BYTE		        Dn2   v108
	BYTE	W24
	BYTE		        An1   v080
	BYTE	W24
	BYTE		        Dn2   v100
	BYTE	W24
	BYTE		N09     En2   v080
	BYTE	W12
	BYTE		        Fs2   v084
	BYTE	W12
// 048   ----------------------------------------
	BYTE		N18     Gn2   v096
	BYTE	W24
	BYTE		        Dn2   v080
	BYTE	W24
	BYTE		        Gn2   v100
	BYTE	W24
	BYTE		        Dn2   v080
	BYTE	W24
// 049   ----------------------------------------
	BYTE		        Gn2   v100
	BYTE	W24
	BYTE		        Dn2   v076
	BYTE	W24
	BYTE		        Gn2   v100
	BYTE	W24
	BYTE		N09     Fn2   v092
	BYTE	W12
	BYTE		        En2   v072
	BYTE	W12
// 050   ----------------------------------------
	BYTE		N18     Dn2   v108
	BYTE	W24
	BYTE		        An1   v084
	BYTE	W24
	BYTE		        Dn2   v100
	BYTE	W24
	BYTE		        An1   v080
	BYTE	W24
// 051   ----------------------------------------
	BYTE		        Dn2   v108
	BYTE	W24
	BYTE		        An1   v084
	BYTE	W24
	BYTE		        Dn2   v104
	BYTE	W24
	BYTE		N09     En2   v096
	BYTE	W12
	BYTE		        Fs2   v084
	BYTE	W12
// 052   ----------------------------------------
	BYTE		N18     Gn2   v104
	BYTE	W24
	BYTE		        Dn2   v080
	BYTE	W24
	BYTE		        Gn2   v112
	BYTE	W24
	BYTE		N09     Dn2   v080
	BYTE	W12
	BYTE		        Gn2   v076
	BYTE	W12
// 053   ----------------------------------------
	BYTE		N18     An2   v096
	BYTE	W24
	BYTE		        En2   v084
	BYTE	W24
	BYTE		        An2   v104
	BYTE	W24
	BYTE		        En2   v096
	BYTE	W24
	BYTE	GoTo
	 POIN2	SuperMario64SliderSme_7_B1
SuperMario64SliderSme_7_B2:
// 054   ----------------------------------------
	BYTE	W24
	BYTE	FINE

//**************** Track 8 (Midi-Chn.8) ****************//

SuperMario64SliderSme_8:
	BYTE	KEYSH   SuperMario64SliderSme_key+0
// 000   ----------------------------------------
	BYTE		VOL     91*SuperMario64SliderSme_mvl/mxv
	BYTE		N24     Cs1   v127
	BYTE	W48
	BYTE		N24   
	BYTE	W02
	BYTE		VOICE   127
	BYTE		PAN     c_v-5
	BYTE	W44
	BYTE	W02
// 001   ----------------------------------------
	BYTE		N24     Cs1   v116
	BYTE	W24
	BYTE		        Cs1   v127
	BYTE	W24
	BYTE		        Cs1   v116
	BYTE	W24
	BYTE		        Cs1   v127
	BYTE	W24
SuperMario64SliderSme_8_B1:
// 002   ----------------------------------------
SuperMario64SliderSme_8_002:
	BYTE		N12     Cn1   v084
	BYTE	W24
	BYTE		N12   
	BYTE	W24
	BYTE		N12   
	BYTE	W24
	BYTE		N12   
	BYTE	W24
	BYTE	PEND
// 003   ----------------------------------------
	BYTE	PATT
	 POIN2	SuperMario64SliderSme_8_002
// 004   ----------------------------------------
	BYTE	PATT
	 POIN2	SuperMario64SliderSme_8_002
// 005   ----------------------------------------
	BYTE	PATT
	 POIN2	SuperMario64SliderSme_8_002
// 006   ----------------------------------------
	BYTE	PATT
	 POIN2	SuperMario64SliderSme_8_002
// 007   ----------------------------------------
	BYTE	PATT
	 POIN2	SuperMario64SliderSme_8_002
// 008   ----------------------------------------
	BYTE	PATT
	 POIN2	SuperMario64SliderSme_8_002
// 009   ----------------------------------------
	BYTE	PATT
	 POIN2	SuperMario64SliderSme_8_002
// 010   ----------------------------------------
	BYTE	PATT
	 POIN2	SuperMario64SliderSme_8_002
// 011   ----------------------------------------
	BYTE	PATT
	 POIN2	SuperMario64SliderSme_8_002
// 012   ----------------------------------------
	BYTE	PATT
	 POIN2	SuperMario64SliderSme_8_002
// 013   ----------------------------------------
	BYTE	PATT
	 POIN2	SuperMario64SliderSme_8_002
// 014   ----------------------------------------
	BYTE	PATT
	 POIN2	SuperMario64SliderSme_8_002
// 015   ----------------------------------------
	BYTE	PATT
	 POIN2	SuperMario64SliderSme_8_002
// 016   ----------------------------------------
	BYTE	PATT
	 POIN2	SuperMario64SliderSme_8_002
// 017   ----------------------------------------
SuperMario64SliderSme_8_017:
	BYTE		N06     Cn1   v084
	BYTE	W24
	BYTE		N06   
	BYTE	W24
	BYTE		N24   
	BYTE	W24
	BYTE		N24   
	BYTE	W24
	BYTE	PEND
// 018   ----------------------------------------
	BYTE	PATT
	 POIN2	SuperMario64SliderSme_8_002
// 019   ----------------------------------------
	BYTE	PATT
	 POIN2	SuperMario64SliderSme_8_002
// 020   ----------------------------------------
	BYTE	PATT
	 POIN2	SuperMario64SliderSme_8_002
// 021   ----------------------------------------
	BYTE	PATT
	 POIN2	SuperMario64SliderSme_8_002
// 022   ----------------------------------------
	BYTE	PATT
	 POIN2	SuperMario64SliderSme_8_002
// 023   ----------------------------------------
	BYTE	PATT
	 POIN2	SuperMario64SliderSme_8_002
// 024   ----------------------------------------
	BYTE	PATT
	 POIN2	SuperMario64SliderSme_8_002
// 025   ----------------------------------------
	BYTE	PATT
	 POIN2	SuperMario64SliderSme_8_002
// 026   ----------------------------------------
	BYTE	PATT
	 POIN2	SuperMario64SliderSme_8_002
// 027   ----------------------------------------
	BYTE	PATT
	 POIN2	SuperMario64SliderSme_8_002
// 028   ----------------------------------------
	BYTE	PATT
	 POIN2	SuperMario64SliderSme_8_002
// 029   ----------------------------------------
	BYTE	PATT
	 POIN2	SuperMario64SliderSme_8_002
// 030   ----------------------------------------
	BYTE	PATT
	 POIN2	SuperMario64SliderSme_8_002
// 031   ----------------------------------------
	BYTE	PATT
	 POIN2	SuperMario64SliderSme_8_002
// 032   ----------------------------------------
	BYTE	PATT
	 POIN2	SuperMario64SliderSme_8_002
// 033   ----------------------------------------
	BYTE	PATT
	 POIN2	SuperMario64SliderSme_8_017
// 034   ----------------------------------------
SuperMario64SliderSme_8_034:
	BYTE		N12     Cn1   v096
	BYTE	W18
	BYTE		N06     Cn1   v084
	BYTE	W06
	BYTE		N12     Cn1   v112
	BYTE	W12
	BYTE		        Dn1   v127
	BYTE	W12
	BYTE		        Cn1   v096
	BYTE	W18
	BYTE		N06     Cn1   v084
	BYTE	W06
	BYTE		N12     Cn1   v112
	BYTE	W12
	BYTE		        Dn1   v127
	BYTE	W12
	BYTE	PEND
// 035   ----------------------------------------
	BYTE	PATT
	 POIN2	SuperMario64SliderSme_8_034
// 036   ----------------------------------------
	BYTE	PATT
	 POIN2	SuperMario64SliderSme_8_034
// 037   ----------------------------------------
	BYTE	PATT
	 POIN2	SuperMario64SliderSme_8_034
// 038   ----------------------------------------
	BYTE	PATT
	 POIN2	SuperMario64SliderSme_8_034
// 039   ----------------------------------------
	BYTE	PATT
	 POIN2	SuperMario64SliderSme_8_034
// 040   ----------------------------------------
	BYTE	PATT
	 POIN2	SuperMario64SliderSme_8_034
// 041   ----------------------------------------
	BYTE	PATT
	 POIN2	SuperMario64SliderSme_8_017
// 042   ----------------------------------------
	BYTE	PATT
	 POIN2	SuperMario64SliderSme_8_002
// 043   ----------------------------------------
	BYTE	PATT
	 POIN2	SuperMario64SliderSme_8_002
// 044   ----------------------------------------
	BYTE	PATT
	 POIN2	SuperMario64SliderSme_8_002
// 045   ----------------------------------------
	BYTE	PATT
	 POIN2	SuperMario64SliderSme_8_002
// 046   ----------------------------------------
	BYTE	PATT
	 POIN2	SuperMario64SliderSme_8_002
// 047   ----------------------------------------
	BYTE	PATT
	 POIN2	SuperMario64SliderSme_8_002
// 048   ----------------------------------------
	BYTE	PATT
	 POIN2	SuperMario64SliderSme_8_002
// 049   ----------------------------------------
	BYTE	PATT
	 POIN2	SuperMario64SliderSme_8_002
// 050   ----------------------------------------
	BYTE	PATT
	 POIN2	SuperMario64SliderSme_8_002
// 051   ----------------------------------------
	BYTE	PATT
	 POIN2	SuperMario64SliderSme_8_002
// 052   ----------------------------------------
	BYTE	PATT
	 POIN2	SuperMario64SliderSme_8_002
// 053   ----------------------------------------
	BYTE	PATT
	 POIN2	SuperMario64SliderSme_8_017
	BYTE	GoTo
	 POIN2	SuperMario64SliderSme_8_B1
SuperMario64SliderSme_8_B2:
// 054   ----------------------------------------
	BYTE	W24
	BYTE	FINE

//**************** Track 9 (Midi-Chn.11) ****************//

SuperMario64SliderSme_9:
	BYTE	KEYSH   SuperMario64SliderSme_key+0
// 000   ----------------------------------------
	BYTE		VOICE   127
	BYTE		VOL     100*SuperMario64SliderSme_mvl/mxv
	BYTE	W48
	BYTE	W01
	BYTE		PAN     c_v+63
	BYTE	W44
	BYTE	W03
// 001   ----------------------------------------
	BYTE	W96
SuperMario64SliderSme_9_B1:
// 002   ----------------------------------------
SuperMario64SliderSme_9_002:
	BYTE	W12
	BYTE		N06     Fs1   v084
	BYTE	W06
	BYTE		N06   
	BYTE	W06
	BYTE		N12     Fs1   v096
	BYTE	W12
	BYTE		N06     Fs1   v084
	BYTE	W06
	BYTE		N06   
	BYTE	W06
	BYTE		N12     Fs1   v096
	BYTE	W12
	BYTE		N06     Fs1   v084
	BYTE	W06
	BYTE		N06   
	BYTE	W06
	BYTE		N12     Fs1   v096
	BYTE	W12
	BYTE		N06     Fs1   v084
	BYTE	W06
	BYTE		N06   
	BYTE	W06
	BYTE	PEND
// 003   ----------------------------------------
SuperMario64SliderSme_9_003:
	BYTE		N12     Fs1   v096
	BYTE	W12
	BYTE		N06     Fs1   v084
	BYTE	W06
	BYTE		N06   
	BYTE	W06
	BYTE		N12     Fs1   v096
	BYTE	W12
	BYTE		N06     Fs1   v084
	BYTE	W06
	BYTE		N06   
	BYTE	W06
	BYTE		N12     Fs1   v096
	BYTE	W12
	BYTE		N06     Fs1   v084
	BYTE	W06
	BYTE		N06   
	BYTE	W06
	BYTE		N12     Fs1   v096
	BYTE	W12
	BYTE		N06     Fs1   v084
	BYTE	W06
	BYTE		N06   
	BYTE	W06
	BYTE	PEND
// 004   ----------------------------------------
	BYTE	PATT
	 POIN2	SuperMario64SliderSme_9_003
// 005   ----------------------------------------
	BYTE	PATT
	 POIN2	SuperMario64SliderSme_9_003
// 006   ----------------------------------------
	BYTE	PATT
	 POIN2	SuperMario64SliderSme_9_003
// 007   ----------------------------------------
	BYTE	PATT
	 POIN2	SuperMario64SliderSme_9_003
// 008   ----------------------------------------
	BYTE	PATT
	 POIN2	SuperMario64SliderSme_9_003
// 009   ----------------------------------------
	BYTE	PATT
	 POIN2	SuperMario64SliderSme_9_003
// 010   ----------------------------------------
	BYTE	PATT
	 POIN2	SuperMario64SliderSme_9_003
// 011   ----------------------------------------
	BYTE	PATT
	 POIN2	SuperMario64SliderSme_9_003
// 012   ----------------------------------------
	BYTE	PATT
	 POIN2	SuperMario64SliderSme_9_003
// 013   ----------------------------------------
	BYTE	PATT
	 POIN2	SuperMario64SliderSme_9_003
// 014   ----------------------------------------
	BYTE	PATT
	 POIN2	SuperMario64SliderSme_9_002
// 015   ----------------------------------------
	BYTE	PATT
	 POIN2	SuperMario64SliderSme_9_003
// 016   ----------------------------------------
	BYTE	PATT
	 POIN2	SuperMario64SliderSme_9_003
// 017   ----------------------------------------
SuperMario64SliderSme_9_017:
	BYTE		N06     Fs1   v084
	BYTE	W12
	BYTE		N06   
	BYTE	W12
	BYTE		N06   
	BYTE	W12
	BYTE		        As1   v096
	BYTE	W12
	BYTE		N24     Fs1   v084
	BYTE	W24
	BYTE		N12     Fs1   v096
	BYTE	W12
	BYTE		N06     Fs1   v084
	BYTE	W06
	BYTE		N06   
	BYTE	W06
	BYTE	PEND
// 018   ----------------------------------------
	BYTE	PATT
	 POIN2	SuperMario64SliderSme_9_002
// 019   ----------------------------------------
	BYTE	PATT
	 POIN2	SuperMario64SliderSme_9_003
// 020   ----------------------------------------
	BYTE	PATT
	 POIN2	SuperMario64SliderSme_9_003
// 021   ----------------------------------------
	BYTE	PATT
	 POIN2	SuperMario64SliderSme_9_003
// 022   ----------------------------------------
	BYTE	PATT
	 POIN2	SuperMario64SliderSme_9_002
// 023   ----------------------------------------
	BYTE	PATT
	 POIN2	SuperMario64SliderSme_9_003
// 024   ----------------------------------------
	BYTE	PATT
	 POIN2	SuperMario64SliderSme_9_003
// 025   ----------------------------------------
	BYTE	PATT
	 POIN2	SuperMario64SliderSme_9_003
// 026   ----------------------------------------
	BYTE	PATT
	 POIN2	SuperMario64SliderSme_9_003
// 027   ----------------------------------------
	BYTE	PATT
	 POIN2	SuperMario64SliderSme_9_003
// 028   ----------------------------------------
	BYTE	PATT
	 POIN2	SuperMario64SliderSme_9_003
// 029   ----------------------------------------
	BYTE	PATT
	 POIN2	SuperMario64SliderSme_9_003
// 030   ----------------------------------------
	BYTE	PATT
	 POIN2	SuperMario64SliderSme_9_002
// 031   ----------------------------------------
	BYTE	PATT
	 POIN2	SuperMario64SliderSme_9_003
// 032   ----------------------------------------
	BYTE	PATT
	 POIN2	SuperMario64SliderSme_9_003
// 033   ----------------------------------------
	BYTE	PATT
	 POIN2	SuperMario64SliderSme_9_017
// 034   ----------------------------------------
SuperMario64SliderSme_9_034:
	BYTE		N12     Fs1   v084
	BYTE	W12
	BYTE		N06     Fs1   v096
	BYTE	W12
	BYTE		N12     Fs1   v084
	BYTE	W12
	BYTE		        Fs1   v112
	BYTE	W12
	BYTE		        Fs1   v084
	BYTE	W12
	BYTE		N06     Fs1   v096
	BYTE	W12
	BYTE		N12     Fs1   v084
	BYTE	W12
	BYTE		        As1   v112
	BYTE	W12
	BYTE	PEND
// 035   ----------------------------------------
	BYTE	PATT
	 POIN2	SuperMario64SliderSme_9_034
// 036   ----------------------------------------
SuperMario64SliderSme_9_036:
	BYTE		N12     Fs1   v084
	BYTE	W12
	BYTE		N06     Fs1   v096
	BYTE	W12
	BYTE		N12     Fs1   v084
	BYTE	W12
	BYTE		        Fs1   v112
	BYTE	W12
	BYTE		        Fs1   v084
	BYTE	W12
	BYTE		N06     Fs1   v096
	BYTE	W12
	BYTE		N12     Fs1   v084
	BYTE	W12
	BYTE		        Fs1   v112
	BYTE	W12
	BYTE	PEND
// 037   ----------------------------------------
	BYTE	PATT
	 POIN2	SuperMario64SliderSme_9_036
// 038   ----------------------------------------
	BYTE	PATT
	 POIN2	SuperMario64SliderSme_9_034
// 039   ----------------------------------------
	BYTE	PATT
	 POIN2	SuperMario64SliderSme_9_036
// 040   ----------------------------------------
	BYTE	PATT
	 POIN2	SuperMario64SliderSme_9_036
// 041   ----------------------------------------
	BYTE	PATT
	 POIN2	SuperMario64SliderSme_9_017
// 042   ----------------------------------------
	BYTE	PATT
	 POIN2	SuperMario64SliderSme_9_002
// 043   ----------------------------------------
	BYTE	PATT
	 POIN2	SuperMario64SliderSme_9_003
// 044   ----------------------------------------
	BYTE	PATT
	 POIN2	SuperMario64SliderSme_9_003
// 045   ----------------------------------------
	BYTE	PATT
	 POIN2	SuperMario64SliderSme_9_003
// 046   ----------------------------------------
	BYTE	PATT
	 POIN2	SuperMario64SliderSme_9_003
// 047   ----------------------------------------
	BYTE	PATT
	 POIN2	SuperMario64SliderSme_9_003
// 048   ----------------------------------------
	BYTE	PATT
	 POIN2	SuperMario64SliderSme_9_003
// 049   ----------------------------------------
	BYTE	PATT
	 POIN2	SuperMario64SliderSme_9_003
// 050   ----------------------------------------
	BYTE	PATT
	 POIN2	SuperMario64SliderSme_9_003
// 051   ----------------------------------------
	BYTE	PATT
	 POIN2	SuperMario64SliderSme_9_003
// 052   ----------------------------------------
	BYTE	PATT
	 POIN2	SuperMario64SliderSme_9_003
// 053   ----------------------------------------
	BYTE		N06     Fs1   v084
	BYTE	W12
	BYTE		N06   
	BYTE	W12
	BYTE		N06   
	BYTE	W12
	BYTE		        As1   v096
	BYTE	W12
	BYTE		N24     Fs1   v084
	BYTE	W24
	BYTE		N24   
	BYTE	W24
	BYTE	GoTo
	 POIN2	SuperMario64SliderSme_9_B1
SuperMario64SliderSme_9_B2:
// 054   ----------------------------------------
	BYTE	W24
	BYTE	FINE

//**************** Track 10 (Midi-Chn.12) ****************//

SuperMario64SliderSme_10:
	BYTE	KEYSH   SuperMario64SliderSme_key+0
// 000   ----------------------------------------
	BYTE		VOICE   127
	BYTE		VOL     92*SuperMario64SliderSme_mvl/mxv
	BYTE	W48
	BYTE	W01
	BYTE		PAN     c_v-40
	BYTE	W44
	BYTE	W03
// 001   ----------------------------------------
	BYTE	W96
SuperMario64SliderSme_10_B1:
// 002   ----------------------------------------
	BYTE		N24     Cs2   v096
	BYTE	W96
// 003   ----------------------------------------
	BYTE	W96
// 004   ----------------------------------------
	BYTE	W96
// 005   ----------------------------------------
	BYTE	W96
// 006   ----------------------------------------
	BYTE	W96
// 007   ----------------------------------------
	BYTE	W96
// 008   ----------------------------------------
	BYTE	W96
// 009   ----------------------------------------
	BYTE	W96
// 010   ----------------------------------------
	BYTE		N24   
	BYTE	W96
// 011   ----------------------------------------
	BYTE	W96
// 012   ----------------------------------------
	BYTE	W96
// 013   ----------------------------------------
	BYTE	W96
// 014   ----------------------------------------
	BYTE	W96
// 015   ----------------------------------------
	BYTE	W96
// 016   ----------------------------------------
	BYTE	W96
// 017   ----------------------------------------
	BYTE	W96
// 018   ----------------------------------------
	BYTE		N24   
	BYTE	W96
// 019   ----------------------------------------
	BYTE	W96
// 020   ----------------------------------------
	BYTE	W96
// 021   ----------------------------------------
	BYTE	W96
// 022   ----------------------------------------
	BYTE	W96
// 023   ----------------------------------------
	BYTE	W96
// 024   ----------------------------------------
	BYTE	W96
// 025   ----------------------------------------
	BYTE	W96
// 026   ----------------------------------------
	BYTE		N24   
	BYTE	W96
// 027   ----------------------------------------
	BYTE	W96
// 028   ----------------------------------------
	BYTE	W96
// 029   ----------------------------------------
	BYTE	W96
// 030   ----------------------------------------
	BYTE		N24   
	BYTE	W96
// 031   ----------------------------------------
	BYTE	W96
// 032   ----------------------------------------
	BYTE		N24   
	BYTE	W96
// 033   ----------------------------------------
	BYTE	W96
// 034   ----------------------------------------
	BYTE	W96
// 035   ----------------------------------------
	BYTE	W96
// 036   ----------------------------------------
	BYTE	W96
// 037   ----------------------------------------
	BYTE	W96
// 038   ----------------------------------------
	BYTE	W96
// 039   ----------------------------------------
	BYTE	W96
// 040   ----------------------------------------
	BYTE	W96
// 041   ----------------------------------------
	BYTE	W96
// 042   ----------------------------------------
	BYTE		N24   
	BYTE	W96
// 043   ----------------------------------------
	BYTE	W96
// 044   ----------------------------------------
	BYTE	W96
// 045   ----------------------------------------
	BYTE	W96
// 046   ----------------------------------------
	BYTE		N24   
	BYTE	W96
// 047   ----------------------------------------
	BYTE	W96
// 048   ----------------------------------------
	BYTE	W96
// 049   ----------------------------------------
	BYTE	W96
// 050   ----------------------------------------
	BYTE	W96
// 051   ----------------------------------------
	BYTE	W96
// 052   ----------------------------------------
	BYTE	W96
// 053   ----------------------------------------
	BYTE	W96
	BYTE	GoTo
	 POIN2	SuperMario64SliderSme_10_B1
SuperMario64SliderSme_10_B2:
// 054   ----------------------------------------
	BYTE	W24
	BYTE	FINE

//**************** Track 11 (Midi-Chn.13) ****************//

SuperMario64SliderSme_11:
	BYTE	KEYSH   SuperMario64SliderSme_key+0
// 000   ----------------------------------------
	BYTE		VOICE   127
	BYTE		VOL     92*SuperMario64SliderSme_mvl/mxv
	BYTE	W48
	BYTE	W02
	BYTE		PAN     c_v+4
	BYTE	W44
	BYTE	W02
// 001   ----------------------------------------
	BYTE	W96
SuperMario64SliderSme_11_B1:
// 002   ----------------------------------------
SuperMario64SliderSme_11_002:
	BYTE	W12
	BYTE		N06     Ds1   v096
	BYTE	W24
	BYTE		        Ds1   v112
	BYTE	W24
	BYTE		        Ds1   v096
	BYTE	W24
	BYTE		        Ds1   v112
	BYTE	W12
	BYTE	PEND
// 003   ----------------------------------------
	BYTE	PATT
	 POIN2	SuperMario64SliderSme_11_002
// 004   ----------------------------------------
	BYTE	PATT
	 POIN2	SuperMario64SliderSme_11_002
// 005   ----------------------------------------
	BYTE	PATT
	 POIN2	SuperMario64SliderSme_11_002
// 006   ----------------------------------------
	BYTE	PATT
	 POIN2	SuperMario64SliderSme_11_002
// 007   ----------------------------------------
	BYTE	PATT
	 POIN2	SuperMario64SliderSme_11_002
// 008   ----------------------------------------
	BYTE	PATT
	 POIN2	SuperMario64SliderSme_11_002
// 009   ----------------------------------------
	BYTE	PATT
	 POIN2	SuperMario64SliderSme_11_002
// 010   ----------------------------------------
	BYTE	PATT
	 POIN2	SuperMario64SliderSme_11_002
// 011   ----------------------------------------
	BYTE	PATT
	 POIN2	SuperMario64SliderSme_11_002
// 012   ----------------------------------------
	BYTE	PATT
	 POIN2	SuperMario64SliderSme_11_002
// 013   ----------------------------------------
	BYTE	PATT
	 POIN2	SuperMario64SliderSme_11_002
// 014   ----------------------------------------
	BYTE	PATT
	 POIN2	SuperMario64SliderSme_11_002
// 015   ----------------------------------------
	BYTE	PATT
	 POIN2	SuperMario64SliderSme_11_002
// 016   ----------------------------------------
	BYTE	PATT
	 POIN2	SuperMario64SliderSme_11_002
// 017   ----------------------------------------
	BYTE	W06
	BYTE		N03     Ds1   v084
	BYTE	W18
	BYTE		N06     Ds1   v096
	BYTE	W06
	BYTE		        Ds1   v084
	BYTE	W12
	BYTE		N06   
	BYTE	W18
	BYTE		        Ds1   v096
	BYTE	W24
	BYTE		        Ds1   v112
	BYTE	W12
// 018   ----------------------------------------
	BYTE	PATT
	 POIN2	SuperMario64SliderSme_11_002
// 019   ----------------------------------------
	BYTE	PATT
	 POIN2	SuperMario64SliderSme_11_002
// 020   ----------------------------------------
	BYTE	PATT
	 POIN2	SuperMario64SliderSme_11_002
// 021   ----------------------------------------
	BYTE	PATT
	 POIN2	SuperMario64SliderSme_11_002
// 022   ----------------------------------------
	BYTE	PATT
	 POIN2	SuperMario64SliderSme_11_002
// 023   ----------------------------------------
	BYTE	PATT
	 POIN2	SuperMario64SliderSme_11_002
// 024   ----------------------------------------
	BYTE	PATT
	 POIN2	SuperMario64SliderSme_11_002
// 025   ----------------------------------------
	BYTE	PATT
	 POIN2	SuperMario64SliderSme_11_002
// 026   ----------------------------------------
	BYTE	PATT
	 POIN2	SuperMario64SliderSme_11_002
// 027   ----------------------------------------
	BYTE	PATT
	 POIN2	SuperMario64SliderSme_11_002
// 028   ----------------------------------------
	BYTE	PATT
	 POIN2	SuperMario64SliderSme_11_002
// 029   ----------------------------------------
	BYTE	PATT
	 POIN2	SuperMario64SliderSme_11_002
// 030   ----------------------------------------
	BYTE	PATT
	 POIN2	SuperMario64SliderSme_11_002
// 031   ----------------------------------------
	BYTE	PATT
	 POIN2	SuperMario64SliderSme_11_002
// 032   ----------------------------------------
	BYTE	PATT
	 POIN2	SuperMario64SliderSme_11_002
// 033   ----------------------------------------
	BYTE	W18
	BYTE		N06     Ds1   v092
	BYTE	W06
	BYTE		        Ds1   v096
	BYTE	W06
	BYTE		        Ds1   v084
	BYTE	W12
	BYTE		N06   
	BYTE	W18
	BYTE		        Ds1   v096
	BYTE	W24
	BYTE		        Ds1   v112
	BYTE	W12
// 034   ----------------------------------------
	BYTE	W96
// 035   ----------------------------------------
	BYTE	W96
// 036   ----------------------------------------
	BYTE	W96
// 037   ----------------------------------------
	BYTE	W96
// 038   ----------------------------------------
	BYTE	W96
// 039   ----------------------------------------
	BYTE	W96
// 040   ----------------------------------------
	BYTE	W96
// 041   ----------------------------------------
	BYTE		        Ds1   v084
	BYTE	W09
	BYTE		N03   
	BYTE	W15
	BYTE		N06     Ds1   v096
	BYTE	W06
	BYTE		        Ds1   v084
	BYTE	W06
	BYTE		        Ds1   v096
	BYTE	W06
	BYTE		        Ds1   v084
	BYTE	W18
	BYTE		        Ds1   v096
	BYTE	W24
	BYTE		        Ds1   v112
	BYTE	W12
// 042   ----------------------------------------
	BYTE	PATT
	 POIN2	SuperMario64SliderSme_11_002
// 043   ----------------------------------------
	BYTE	PATT
	 POIN2	SuperMario64SliderSme_11_002
// 044   ----------------------------------------
	BYTE	PATT
	 POIN2	SuperMario64SliderSme_11_002
// 045   ----------------------------------------
	BYTE	PATT
	 POIN2	SuperMario64SliderSme_11_002
// 046   ----------------------------------------
	BYTE	PATT
	 POIN2	SuperMario64SliderSme_11_002
// 047   ----------------------------------------
	BYTE	PATT
	 POIN2	SuperMario64SliderSme_11_002
// 048   ----------------------------------------
	BYTE	PATT
	 POIN2	SuperMario64SliderSme_11_002
// 049   ----------------------------------------
	BYTE	PATT
	 POIN2	SuperMario64SliderSme_11_002
// 050   ----------------------------------------
	BYTE	PATT
	 POIN2	SuperMario64SliderSme_11_002
// 051   ----------------------------------------
	BYTE	PATT
	 POIN2	SuperMario64SliderSme_11_002
// 052   ----------------------------------------
	BYTE	PATT
	 POIN2	SuperMario64SliderSme_11_002
// 053   ----------------------------------------
	BYTE		N06     Ds1   v084
	BYTE	W12
	BYTE		N06   
	BYTE	W06
	BYTE		        Ds1   v092
	BYTE	W06
	BYTE		        Ds1   v096
	BYTE	W18
	BYTE		        Ds1   v084
	BYTE	W18
	BYTE		        Ds1   v096
	BYTE	W24
	BYTE		        Ds1   v112
	BYTE	W12
	BYTE	GoTo
	 POIN2	SuperMario64SliderSme_11_B1
SuperMario64SliderSme_11_B2:
// 054   ----------------------------------------
	BYTE	W24
	BYTE	FINE

//******************************************************//
	ALIGN 4

SuperMario64SliderSme:
	BYTE	11	// NumTrks
	BYTE	0	// NumBlks
	BYTE	SuperMario64SliderSme_pri	// Priority
	BYTE	SuperMario64SliderSme_rev	// Reverb.

	POIN2	SuperMario64SliderSme_grp

	POIN2	SuperMario64SliderSme_1
	POIN2	SuperMario64SliderSme_2
	POIN2	SuperMario64SliderSme_3
	POIN2	SuperMario64SliderSme_4
	POIN2	SuperMario64SliderSme_5
	POIN2	SuperMario64SliderSme_6
	POIN2	SuperMario64SliderSme_7
	POIN2	SuperMario64SliderSme_8
	POIN2	SuperMario64SliderSme_9
	POIN2	SuperMario64SliderSme_10
	POIN2	SuperMario64SliderSme_11

	
