//Event file generated from Sappy .s format.
	#include "MPlayDef.event"

	#define	ApolloJusticeAceAttorneyTroupeGramarye_grp  voicegroup000
	#define	ApolloJusticeAceAttorneyTroupeGramarye_pri  0
	#define	ApolloJusticeAceAttorneyTroupeGramarye_rev  0
	#define	ApolloJusticeAceAttorneyTroupeGramarye_mvl  127
	#define	ApolloJusticeAceAttorneyTroupeGramarye_key  0
	#define	ApolloJusticeAceAttorneyTroupeGramarye_tbs  1
	#define	ApolloJusticeAceAttorneyTroupeGramarye_exg  0
	#define	ApolloJusticeAceAttorneyTroupeGramarye_cmp  1

	// .rodata
	//	ApolloJusticeAceAttorneyTroupeGramarye
	ALIGN 4


//**************** Track 1 (Midi-Chn.0) ****************//

ApolloJusticeAceAttorneyTroupeGramarye_001:
//  #01 //000   ----------------------------------------
 BYTE   KEYSH   ApolloJusticeAceAttorneyTroupeGramarye_key+0
 BYTE   TEMPO   130*ApolloJusticeAceAttorneyTroupeGramarye_tbs/2
 BYTE   VOICE   121
 BYTE   MODT 0
 BYTE   LFOS 44
 BYTE   VOL   68*ApolloJusticeAceAttorneyTroupeGramarye_mvl/mxv
 BYTE   PAN   c_v+0
 BYTE   N05  Cn1  v127
 BYTE   N05  Cs2  v072
 BYTE   N04  Dn3  v100
 BYTE   W04
 BYTE   Dn3  v060
 BYTE   W04
 BYTE   Dn3  v028
 BYTE   W04
 BYTE   N05  Gs1  v072
 BYTE   N05  Dn3
 BYTE   W06
 BYTE   Cn1  v088
 BYTE   N05  Dn3  v036
 BYTE   W06
 BYTE   Cn1  v127
 BYTE   N04  Bn2  v100
 BYTE   W04
 BYTE   Bn2  v060
 BYTE   W04
 BYTE   Bn2  v028
 BYTE   W04
 BYTE   N05  Gs1  v072
 BYTE   N04  Bn2
 BYTE   W06
 BYTE   N05  Cn1  v088
 BYTE   N04  Bn2  v036
 BYTE   W06
 BYTE   N05  Cn1  v127
 BYTE   N04  An2  v100
 BYTE   W04
 BYTE   An2  v060
 BYTE   W04
 BYTE   An2  v028
 BYTE   W04
 BYTE   N05  Gs1  v072
 BYTE   N04  An2
 BYTE   W06
 BYTE   N05  Cn1  v088
 BYTE   N04  An2  v036
 BYTE   W06
 BYTE   N05  Cn1  v127
 BYTE   N04  Gn2  v100
 BYTE   W04
 BYTE   Gn2  v060
 BYTE   W04
 BYTE   Gn2  v028
 BYTE   W04
 BYTE   N05  Cn1  v127
 BYTE   N05  Gs1  v072
 BYTE   N04  Gn2
 BYTE   W06
 BYTE   Gn2  v036
 BYTE   W06
//  #01 //001   ----------------------------------------
 BYTE   N05  Cn1  v127
 BYTE   N05  Cs2  v072
 BYTE   N04  Gn2  v068
 BYTE   W04
 BYTE   Gn2  v032
 BYTE   W04
 BYTE   Gn2  v008
 BYTE   W04
 BYTE   N05  Gs1  v072
 BYTE   N05  Gn2  v044
 BYTE   W06
 BYTE   Cn1  v088
 BYTE   N05  Gn2  v016
 BYTE   W06
 BYTE   Cn1  v127
 BYTE   N04  Gn2  v088
 BYTE   W04
 BYTE   Gn2  v048
 BYTE   W04
 BYTE   Gn2  v020
 BYTE   W04
 BYTE   N05  Gs1  v072
 BYTE   N05  Cs2
 BYTE   N04  Gn2  v060
 BYTE   W06
 BYTE   N05  Cn1  v088
 BYTE   N04  Gn2  v028
 BYTE   W06
 BYTE   N05  Cn1  v127
 BYTE   N04  Gn2  v108
 BYTE   W04
 BYTE   Gn2  v068
 BYTE   W04
 BYTE   Gn2  v032
 BYTE   W04
 BYTE   N05  Gs1  v072
 BYTE   N04  Gn2  v080
 BYTE   W06
 BYTE   N05  Cn1  v088
 BYTE   N04  Gn2  v044
 BYTE   W06
 BYTE   N05  Cn1  v127
 BYTE   N04  Gn2  v100
 BYTE   W04
 BYTE   Gn2  v060
 BYTE   W04
 BYTE   Gn2  v028
 BYTE   W04
 BYTE   N05  Cn1  v127
 BYTE   N05  Gs1  v072
 BYTE   N04  Gn2
 BYTE   W06
 BYTE   Gn2  v036
 BYTE   W06
//  #01 //002   ----------------------------------------
 BYTE   N05  Cn1  v127
 BYTE   N05  Gn2  v100
 BYTE   W12
 BYTE   Dn1  v048
 BYTE   W12
 BYTE   Cn1  v127
 BYTE   N05  Dn1  v056
 BYTE   W12
 BYTE   Dn1  v068
 BYTE   W12
 BYTE   Cn1  v127
 BYTE   N05  Dn1  v080
 BYTE   N05  Cs2  v072
 BYTE   W06
 BYTE   Cn1  v088
 BYTE   N05  Dn1
 BYTE   W06
 BYTE   Dn1  v092
 BYTE   W06
 BYTE   Cn1  v088
 BYTE   N05  Dn1  v100
 BYTE   W06
 BYTE   Cn1  v127
 BYTE   N05  Dn1  v108
 BYTE   W06
 BYTE   Dn1  v112
 BYTE   W06
 BYTE   Cn1  v100
 BYTE   N05  Dn1  v120
 BYTE   W06
 BYTE   Cn1  v088
 BYTE   N05  Dn1  v127
 BYTE   W06
//  #01 //003   ----------------------------------------
Label_016607FE:
 BYTE   N05  Cn1  v127
 BYTE   N05  Fs1  v048
 BYTE   N05  Cs2  v072
 BYTE   W12
 BYTE   Fs1  v028
 BYTE   W06
 BYTE   Fs1  v012
 BYTE   N05  Cs4  v044
 BYTE   W06
 BYTE   Dn1  v108
 BYTE   N05  Fs1  v048
 BYTE   W12
 BYTE   Fs1  v028
 BYTE   N05  Cs4  v056
 BYTE   W06
 BYTE   Dn1  v028
 BYTE   N05  Fs1  v012
 BYTE   W06
 BYTE   Cn1  v127
 BYTE   N05  Fs1  v048
 BYTE   W12
 BYTE   Fs1  v028
 BYTE   W06
 BYTE   Fs1  v012
 BYTE   W06
 BYTE   Dn1  v108
 BYTE   N05  Fs1  v048
 BYTE   W12
 BYTE   Fs1  v028
 BYTE   W06
 BYTE   Fs1  v012
 BYTE   W06
//  #01 //004   ----------------------------------------
Label_0166083B:
 BYTE   N05  Cn1  v127
 BYTE   N05  Fs1  v048
 BYTE   W12
 BYTE   Fs1  v028
 BYTE   W06
 BYTE   Fs1  v012
 BYTE   N05  Cs4  v044
 BYTE   W06
 BYTE   Dn1  v108
 BYTE   N05  Fs1  v048
 BYTE   W12
 BYTE   Fs1  v028
 BYTE   N05  Cs4  v056
 BYTE   W06
 BYTE   Dn1  v028
 BYTE   N05  Fs1  v012
 BYTE   W06
 BYTE   Cn1  v127
 BYTE   N05  Fs1  v048
 BYTE   W12
 BYTE   Fs1  v028
 BYTE   W06
 BYTE   Fs1  v012
 BYTE   W06
 BYTE   Dn1  v108
 BYTE   N05  Fs1  v048
 BYTE   W12
 BYTE   Fs1  v028
 BYTE   W06
 BYTE   Fs1  v012
 BYTE   W06
 BYTE   PEND 
//  #01 //005   ----------------------------------------
 BYTE   PATT
  POIN2 Label_0166083B
//  #01 //006   ----------------------------------------
 BYTE   N05  Cn1  v127
 BYTE   N05  Fs1  v048
 BYTE   W12
 BYTE   Fs1  v028
 BYTE   W06
 BYTE   Fs1  v012
 BYTE   N05  Cs4  v044
 BYTE   W06
 BYTE   Dn1  v108
 BYTE   N05  Fs1  v048
 BYTE   W12
 BYTE   Fs1  v028
 BYTE   N05  Cs4  v056
 BYTE   W06
 BYTE   Dn1  v028
 BYTE   N05  Fs1  v012
 BYTE   W06
 BYTE   Cn1  v127
 BYTE   N05  Fs1  v048
 BYTE   W12
 BYTE   Fs1  v028
 BYTE   W06
 BYTE   Fs1  v012
 BYTE   W06
 BYTE   Dn1  v108
 BYTE   N05  Fs1  v048
 BYTE   W12
 BYTE   Dn1  v072
 BYTE   N05  Fs1  v028
 BYTE   W06
 BYTE   Fs1  v012
 BYTE   W06
//  #01 //007   ----------------------------------------
 BYTE   PATT
  POIN2 Label_0166083B
//  #01 //008   ----------------------------------------
 BYTE   PATT
  POIN2 Label_0166083B
//  #01 //009   ----------------------------------------
 BYTE   PATT
  POIN2 Label_0166083B
//  #01 //010   ----------------------------------------
 BYTE   N05  Cn1  v127
 BYTE   W72
 BYTE   Dn1  v108
 BYTE   W12
 BYTE   Dn1  v060
 BYTE   W06
 BYTE   Dn1  v036
 BYTE   W06
//  #01 //011   ----------------------------------------
 BYTE   Cn1  v127
 BYTE   N05  Fs1  v048
 BYTE   N05  Cs2  v072
 BYTE   W06
 BYTE   Fs1  v012
 BYTE   W06
 BYTE   Fs1  v028
 BYTE   W06
 BYTE   Fs1  v012
 BYTE   N05  Cs4  v044
 BYTE   W06
 BYTE   Dn1  v108
 BYTE   N05  Fs1  v048
 BYTE   W06
 BYTE   Fs1  v012
 BYTE   W06
 BYTE   Fs1  v028
 BYTE   N05  Cs4  v056
 BYTE   W06
 BYTE   Dn1  v028
 BYTE   N05  Fs1  v012
 BYTE   W06
 BYTE   Cn1  v127
 BYTE   N05  Fs1  v048
 BYTE   W06
 BYTE   Fs1  v012
 BYTE   W06
 BYTE   Fs1  v028
 BYTE   W06
 BYTE   Fs1  v012
 BYTE   W06
 BYTE   Dn1  v108
 BYTE   N05  Fs1  v048
 BYTE   W06
 BYTE   Fs1  v012
 BYTE   W06
 BYTE   Fs1  v028
 BYTE   W06
 BYTE   Fs1  v012
 BYTE   W06
//  #01 //012   ----------------------------------------
Label_0166091C:
 BYTE   N05  Cn1  v127
 BYTE   N05  Fs1  v048
 BYTE   W06
 BYTE   Fs1  v012
 BYTE   W06
 BYTE   Fs1  v028
 BYTE   W06
 BYTE   Fs1  v012
 BYTE   N05  Cs4  v044
 BYTE   W06
 BYTE   Dn1  v108
 BYTE   N05  Fs1  v048
 BYTE   W06
 BYTE   Fs1  v012
 BYTE   W06
 BYTE   Fs1  v028
 BYTE   N05  Cs4  v056
 BYTE   W06
 BYTE   Dn1  v028
 BYTE   N05  Fs1  v012
 BYTE   W06
 BYTE   Cn1  v127
 BYTE   N05  Fs1  v048
 BYTE   W06
 BYTE   Fs1  v012
 BYTE   W06
 BYTE   Fs1  v028
 BYTE   W06
 BYTE   Fs1  v012
 BYTE   W06
 BYTE   Dn1  v108
 BYTE   N05  Fs1  v048
 BYTE   W06
 BYTE   Fs1  v012
 BYTE   W06
 BYTE   Fs1  v028
 BYTE   W06
 BYTE   Fs1  v012
 BYTE   W06
 BYTE   PEND 
//  #01 //013   ----------------------------------------
 BYTE   PATT
  POIN2 Label_0166091C
//  #01 //014   ----------------------------------------
 BYTE   N05  Cn1  v127
 BYTE   N05  Fs1  v048
 BYTE   W06
 BYTE   Fs1  v012
 BYTE   W06
 BYTE   Fs1  v028
 BYTE   W06
 BYTE   Fs1  v012
 BYTE   N05  Cs4  v044
 BYTE   W06
 BYTE   Dn1  v108
 BYTE   N05  Fs1  v048
 BYTE   W06
 BYTE   Fs1  v012
 BYTE   W06
 BYTE   Fs1  v028
 BYTE   N05  Cs4  v056
 BYTE   W06
 BYTE   Dn1  v028
 BYTE   N05  Fs1  v012
 BYTE   W06
 BYTE   Cn1  v127
 BYTE   N05  Fs1  v048
 BYTE   W06
 BYTE   Fs1  v012
 BYTE   W06
 BYTE   Fs1  v028
 BYTE   W06
 BYTE   Fs1  v012
 BYTE   W06
 BYTE   Dn1  v108
 BYTE   N05  Fs1  v048
 BYTE   W06
 BYTE   Fs1  v012
 BYTE   W06
 BYTE   Dn1  v072
 BYTE   N05  Fs1  v028
 BYTE   W06
 BYTE   Fs1  v012
 BYTE   W06
//  #01 //015   ----------------------------------------
 BYTE   PATT
  POIN2 Label_0166091C
//  #01 //016   ----------------------------------------
 BYTE   PATT
  POIN2 Label_0166091C
//  #01 //017   ----------------------------------------
 BYTE   PATT
  POIN2 Label_0166091C
//  #01 //018   ----------------------------------------
 BYTE   N05  Cn1  v127
 BYTE   N05  Fs1  v048
 BYTE   W06
 BYTE   Fs1  v012
 BYTE   W06
 BYTE   Fs1  v028
 BYTE   W06
 BYTE   Fs1  v012
 BYTE   N05  Cs4  v044
 BYTE   W06
 BYTE   Dn1  v108
 BYTE   N05  Fs1  v048
 BYTE   W06
 BYTE   Fs1  v012
 BYTE   W06
 BYTE   Fs1  v028
 BYTE   N05  Cs4  v056
 BYTE   W06
 BYTE   Fs1  v012
 BYTE   W06
 BYTE   Dn1  v108
 BYTE   W06
 BYTE   N06  Dn3  v072
 BYTE   W12
 BYTE   Bn2  v060
 BYTE   W12
 BYTE   An2  v056
 BYTE   W12
 BYTE   Gn2  v048
 BYTE   W06
//  #01 //019   ----------------------------------------
Label_016609F5:
 BYTE   N05  Dn1  v108
 BYTE   N05  Fs1  v048
 BYTE   N05  Cs2  v072
 BYTE   W12
 BYTE   Cn1  v100
 BYTE   N05  Fs1  v020
 BYTE   W12
 BYTE   Dn1  v108
 BYTE   N05  Fs1  v048
 BYTE   W12
 BYTE   Cn1  v100
 BYTE   N05  Fs1  v020
 BYTE   W12
 BYTE   Dn1  v108
 BYTE   N05  Fs1  v048
 BYTE   W12
 BYTE   Cn1  v100
 BYTE   N05  Fs1  v020
 BYTE   W12
 BYTE   Dn1  v108
 BYTE   N05  Fs1  v048
 BYTE   W12
 BYTE   Cn1  v100
 BYTE   N05  Fs1  v020
 BYTE   N05  An2  v072
 BYTE   W12
 BYTE   PEND 
//  #01 //020   ----------------------------------------
 BYTE   Dn1  v108
 BYTE   N05  Fs1  v048
 BYTE   N05  Cs2  v072
 BYTE   W12
 BYTE   Cn1  v100
 BYTE   N05  Fs1  v020
 BYTE   W12
 BYTE   Dn1  v108
 BYTE   N05  Fs1  v048
 BYTE   W12
 BYTE   Cn1  v100
 BYTE   N05  Fs1  v020
 BYTE   W12
 BYTE   Dn1  v108
 BYTE   N05  Fs1  v048
 BYTE   W12
 BYTE   Cn1  v100
 BYTE   N05  Fs1  v020
 BYTE   W12
 BYTE   Dn1  v108
 BYTE   N05  Fs1  v048
 BYTE   W12
 BYTE   Cn1  v100
 BYTE   N05  Fs1  v020
 BYTE   W12
//  #01 //021   ----------------------------------------
 BYTE   PATT
  POIN2 Label_016609F5
//  #01 //022   ----------------------------------------
 BYTE   N05  Dn1  v108
 BYTE   N05  Fs1  v048
 BYTE   N05  Cs2  v072
 BYTE   W12
 BYTE   Cn1  v100
 BYTE   N05  Fs1  v020
 BYTE   W12
 BYTE   Dn1  v108
 BYTE   N05  Fs1  v048
 BYTE   W12
 BYTE   Cn1  v100
 BYTE   N05  Fs1  v020
 BYTE   W12
 BYTE   Dn1  v108
 BYTE   N05  Fs1  v048
 BYTE   W12
 BYTE   Cn1  v100
 BYTE   N05  Fs1  v020
 BYTE   W12
 BYTE   Dn1  v108
 BYTE   N05  Fs1  v048
 BYTE   W06
 BYTE   Dn1  v088
 BYTE   W06
 BYTE   Fs1  v020
 BYTE   N05  An2  v072
 BYTE   W12
//  #01 //023   ----------------------------------------
 BYTE   Dn1  v108
 BYTE   N05  Fs1  v048
 BYTE   N05  Cs2  v072
 BYTE   W12
 BYTE   Cn1  v100
 BYTE   N05  Fs1  v020
 BYTE   W12
 BYTE   Dn1  v108
 BYTE   N05  Fs1  v048
 BYTE   W12
 BYTE   Cn1  v100
 BYTE   N05  Fs1  v020
 BYTE   W12
 BYTE   Dn1  v108
 BYTE   N05  Fs1  v048
 BYTE   W12
 BYTE   Cn1  v100
 BYTE   N05  Fs1  v020
 BYTE   W12
 BYTE   Dn1  v108
 BYTE   N05  Fs1  v048
 BYTE   W12
 BYTE   Dn1  v088
 BYTE   N05  Fs1  v020
 BYTE   W12
//  #01 //024   ----------------------------------------
 BYTE   Dn1  v108
 BYTE   N05  Fs1  v048
 BYTE   W12
 BYTE   Cn1  v100
 BYTE   N05  Fs1  v020
 BYTE   W12
 BYTE   Dn1  v108
 BYTE   N05  Fs1  v048
 BYTE   W12
 BYTE   Cn1  v100
 BYTE   N05  Fs1  v020
 BYTE   W12
 BYTE   Dn1  v108
 BYTE   N05  Fs1  v048
 BYTE   W12
 BYTE   Cn1  v100
 BYTE   N05  Fs1  v020
 BYTE   W12
 BYTE   Dn1  v108
 BYTE   N05  Fs1  v048
 BYTE   W06
 BYTE   Dn1  v088
 BYTE   W06
 BYTE   Cn1  v100
 BYTE   N05  Fs1  v020
 BYTE   W12
//  #01 //025   ----------------------------------------
 BYTE   Dn1  v108
 BYTE   N05  Fs1  v048
 BYTE   W12
 BYTE   Cn1  v100
 BYTE   N05  Fs1  v020
 BYTE   W12
 BYTE   Dn1  v108
 BYTE   N05  Fs1  v048
 BYTE   W12
 BYTE   Cn1  v100
 BYTE   N05  Fs1  v020
 BYTE   W12
 BYTE   Dn1  v108
 BYTE   N05  Fs1  v048
 BYTE   W12
 BYTE   Cn1  v100
 BYTE   N05  Fs1  v020
 BYTE   W12
 BYTE   Dn1  v108
 BYTE   N05  Fs1  v048
 BYTE   W12
 BYTE   Cn1  v100
 BYTE   N05  Fs1  v020
 BYTE   W12
//  #01 //026   ----------------------------------------
 BYTE   Dn1  v108
 BYTE   N05  Fs1  v048
 BYTE   W12
 BYTE   Cn1  v100
 BYTE   N05  Fs1  v020
 BYTE   W12
 BYTE   Dn1  v108
 BYTE   N05  Fs1  v048
 BYTE   W12
 BYTE   Dn1  v088
 BYTE   N05  Fs1  v020
 BYTE   W06
 BYTE   Dn1  v060
 BYTE   W06
 BYTE   Dn1  v108
 BYTE   W06
 BYTE   N06  Dn3  v072
 BYTE   W12
 BYTE   Bn2  v060
 BYTE   W12
 BYTE   An2  v056
 BYTE   W12
 BYTE   Gn2  v048
 BYTE   W06
//  #01 //027   ----------------------------------------
 BYTE   N05  Cn1  v080
 BYTE   N04  Dn1  v072
 BYTE   N05  Gs1  v044
 BYTE   N05  Cs2
 BYTE   W04
 BYTE   N04  Dn1
 BYTE   W04
 BYTE   Dn1  v032
 BYTE   W04
 BYTE   Dn1  v064
 BYTE   W06
 BYTE   Dn1  v044
 BYTE   W06
 BYTE   N05  Cn1  v080
 BYTE   N04  Dn1  v072
 BYTE   N05  Gs1  v044
 BYTE   W04
 BYTE   N04  Dn1
 BYTE   W04
 BYTE   Dn1  v032
 BYTE   W04
 BYTE   Dn1  v064
 BYTE   W06
 BYTE   Dn1  v044
 BYTE   W06
 BYTE   N05  Cn1  v080
 BYTE   N04  Dn1  v072
 BYTE   N05  Gs1  v044
 BYTE   W04
 BYTE   N04  Dn1
 BYTE   W04
 BYTE   Dn1  v032
 BYTE   W04
 BYTE   Dn1  v064
 BYTE   W06
 BYTE   Dn1  v044
 BYTE   W06
 BYTE   N05  Cn1  v080
 BYTE   N05  Dn1  v056
 BYTE   N05  Gs1  v044
 BYTE   W06
 BYTE   Dn1  v064
 BYTE   W06
 BYTE   Dn1  v072
 BYTE   W06
 BYTE   Dn1  v068
 BYTE   W06
//  #01 //028   ----------------------------------------
 BYTE   Cn1  v080
 BYTE   N05  Gs1  v044
 BYTE   N04  Dn3  v064
 BYTE   W04
 BYTE   Dn3  v036
 BYTE   W04
 BYTE   Dn3  v016
 BYTE   W04
 BYTE   N05  Dn3  v044
 BYTE   W06
 BYTE   Dn3  v024
 BYTE   W06
 BYTE   Cn1  v080
 BYTE   N05  Gs1  v044
 BYTE   N04  Bn2  v064
 BYTE   W04
 BYTE   Bn2  v036
 BYTE   W04
 BYTE   Bn2  v016
 BYTE   W04
 BYTE   Bn2  v044
 BYTE   W06
 BYTE   Bn2  v024
 BYTE   W06
 BYTE   N05  Cn1  v080
 BYTE   N05  Gs1  v044
 BYTE   N04  An2  v064
 BYTE   W04
 BYTE   An2  v036
 BYTE   W04
 BYTE   An2  v016
 BYTE   W04
 BYTE   An2  v044
 BYTE   W06
 BYTE   An2  v024
 BYTE   W06
 BYTE   N05  Cn1  v080
 BYTE   N05  Dn1  v068
 BYTE   N05  Gs1  v044
 BYTE   W12
 BYTE   Dn1  v056
 BYTE   W06
 BYTE   Dn1  v036
 BYTE   W06
//  #01 //029   ----------------------------------------
 BYTE   GoTo
  POIN2 Label_016607FE
 BYTE   FINE

//**************** Track 2 (Midi-Chn.1) ****************//

ApolloJusticeAceAttorneyTroupeGramarye_002:
//  #02 //000   ----------------------------------------
 BYTE   KEYSH   ApolloJusticeAceAttorneyTroupeGramarye_key+0
 BYTE   VOICE   1
 BYTE   MODT 0
 BYTE   LFOS 44
 BYTE   VOL   73*ApolloJusticeAceAttorneyTroupeGramarye_mvl/mxv
 BYTE   PAN   c_v+0
 BYTE   N06  As1  v088
 BYTE   W06
 BYTE   N06
 BYTE   W12
 BYTE   N06
 BYTE   W06
 BYTE   N06
 BYTE   W12
 BYTE   N06
 BYTE   W06
 BYTE   N06
 BYTE   W12
 BYTE   N06
 BYTE   W06
 BYTE   N06
 BYTE   W12
 BYTE   N06
 BYTE   W12
 BYTE   N06
 BYTE   W12
//  #02 //001   ----------------------------------------
 BYTE   Fs1
 BYTE   W06
 BYTE   N06
 BYTE   W12
 BYTE   N06
 BYTE   W06
 BYTE   N06
 BYTE   W12
 BYTE   N60  Gs1
 BYTE   W60
//  #02 //002   ----------------------------------------
 BYTE   W12
 BYTE   N06
 BYTE   W12
 BYTE   N06
 BYTE   W12
 BYTE   N06
 BYTE   W12
 BYTE   N06
 BYTE   W12
 BYTE   N06
 BYTE   W12
 BYTE   N06
 BYTE   W12
 BYTE   N06
 BYTE   W12
//  #02 //003   ----------------------------------------
Label_01660CD8:
 BYTE   N24  Cs2  v088
 BYTE   W24
 BYTE   Gs1
 BYTE   W24
 BYTE   N12  Cs2
 BYTE   W18
 BYTE   N17
 BYTE   W18
 BYTE   N12  Gs1
 BYTE   W12
 BYTE   PEND 
//  #02 //004   ----------------------------------------
 BYTE   PATT
  POIN2 Label_01660CD8
//  #02 //005   ----------------------------------------
Label_01660CEC:
 BYTE   N24  Bn1  v088
 BYTE   W24
 BYTE   Fs1
 BYTE   W24
 BYTE   N12  Bn1
 BYTE   W18
 BYTE   N17
 BYTE   W18
 BYTE   N12  Ds2
 BYTE   W12
 BYTE   PEND 
//  #02 //006   ----------------------------------------
Label_01660CFB:
 BYTE   N24  En2  v088
 BYTE   W24
 BYTE   Bn1
 BYTE   W24
 BYTE   N12  En2
 BYTE   W18
 BYTE   N17
 BYTE   W18
 BYTE   N12  Ds2
 BYTE   W12
 BYTE   PEND 
//  #02 //007   ----------------------------------------
 BYTE   PATT
  POIN2 Label_01660CD8
//  #02 //008   ----------------------------------------
Label_01660D0F:
 BYTE   N24  An1  v088
 BYTE   W24
 BYTE   En1
 BYTE   W24
 BYTE   N12  An1
 BYTE   W18
 BYTE   N17
 BYTE   W18
 BYTE   N12  En1
 BYTE   W12
 BYTE   PEND 
//  #02 //009   ----------------------------------------
 BYTE   PATT
  POIN2 Label_01660CEC
//  #02 //010   ----------------------------------------
 BYTE   PATT
  POIN2 Label_01660CFB
//  #02 //011   ----------------------------------------
 BYTE   PATT
  POIN2 Label_01660CD8
//  #02 //012   ----------------------------------------
 BYTE   PATT
  POIN2 Label_01660CD8
//  #02 //013   ----------------------------------------
 BYTE   PATT
  POIN2 Label_01660CEC
//  #02 //014   ----------------------------------------
 BYTE   PATT
  POIN2 Label_01660CFB
//  #02 //015   ----------------------------------------
 BYTE   PATT
  POIN2 Label_01660CD8
//  #02 //016   ----------------------------------------
 BYTE   PATT
  POIN2 Label_01660D0F
//  #02 //017   ----------------------------------------
 BYTE   N24  Bn1  v088
 BYTE   W24
 BYTE   Gs1
 BYTE   W24
 BYTE   N12  Bn1
 BYTE   W18
 BYTE   N17
 BYTE   W18
 BYTE   N12
 BYTE   W12
//  #02 //018   ----------------------------------------
 BYTE   N06  Cs2
 BYTE   W12
 BYTE   N06
 BYTE   W12
 BYTE   N06
 BYTE   W12
 BYTE   N06
 BYTE   W12
 BYTE   N42
 BYTE   W48
//  #02 //019   ----------------------------------------
Label_01660D5E:
 BYTE   N18  An1  v088
 BYTE   W18
 BYTE   En2
 BYTE   W18
 BYTE   N11  An2
 BYTE   W12
 BYTE   N18  An1
 BYTE   W18
 BYTE   En2
 BYTE   W18
 BYTE   N11  An2
 BYTE   W12
 BYTE   PEND 
//  #02 //020   ----------------------------------------
Label_01660D70:
 BYTE   N18  Bn1  v088
 BYTE   W18
 BYTE   Fs2
 BYTE   W18
 BYTE   N11  Bn2
 BYTE   W12
 BYTE   N18  Bn1
 BYTE   W18
 BYTE   Fs2
 BYTE   W18
 BYTE   N11  Bn2
 BYTE   W12
 BYTE   PEND 
//  #02 //021   ----------------------------------------
 BYTE   PATT
  POIN2 Label_01660D5E
//  #02 //022   ----------------------------------------
 BYTE   PATT
  POIN2 Label_01660D70
//  #02 //023   ----------------------------------------
 BYTE   N18  Cn2  v088
 BYTE   W18
 BYTE   Gn2
 BYTE   W18
 BYTE   N11  Cn3
 BYTE   W12
 BYTE   N18  Cn2
 BYTE   W18
 BYTE   Gn2
 BYTE   W18
 BYTE   N11  Cn3
 BYTE   W12
//  #02 //024   ----------------------------------------
 BYTE   N18  As1
 BYTE   W18
 BYTE   Fn2
 BYTE   W18
 BYTE   N11  As2
 BYTE   W12
 BYTE   N18  As1
 BYTE   W18
 BYTE   Fn2
 BYTE   W18
 BYTE   N11  As2
 BYTE   W12
//  #02 //025   ----------------------------------------
 BYTE   PATT
  POIN2 Label_01660D5E
//  #02 //026   ----------------------------------------
 BYTE   N18  Dn1  v088
 BYTE   W18
 BYTE   An1
 BYTE   W18
 BYTE   N11  Dn2
 BYTE   W12
 BYTE   N06  Dn1
 BYTE   W12
 BYTE   N06
 BYTE   W12
 BYTE   N06
 BYTE   W12
 BYTE   N06
 BYTE   W12
//  #02 //027   ----------------------------------------
 BYTE   N12
 BYTE   W96
//  #02 //028   ----------------------------------------
 BYTE   W96
//  #02 //029   ----------------------------------------
 BYTE   GoTo
  POIN2 Label_01660CD8
 BYTE   FINE

//**************** Track 3 (Midi-Chn.2) ****************//

ApolloJusticeAceAttorneyTroupeGramarye_003:
//  #03 //000   ----------------------------------------
 BYTE   KEYSH   ApolloJusticeAceAttorneyTroupeGramarye_key+0
 BYTE   VOICE   58
 BYTE   MODT 0
 BYTE   LFOS 44
 BYTE   VOL   31*ApolloJusticeAceAttorneyTroupeGramarye_mvl/mxv
 BYTE   PAN   c_v+0
 BYTE   W96
//  #03 //001   ----------------------------------------
 BYTE   W96
//  #03 //002   ----------------------------------------
 BYTE   W96
//  #03 //003   ----------------------------------------
Label_01660DDF:
 BYTE   N90  Ds3  v072
 BYTE   N90  En3
 BYTE   N90  Gs3
 BYTE   N90  Bn3
 BYTE   W96
 BYTE   PEND 
//  #03 //004   ----------------------------------------
Label_01660DEA:
 BYTE   N90  Cs3  v072
 BYTE   N90  En3
 BYTE   N90  Gs3
 BYTE   N90  An3
 BYTE   W96
 BYTE   PEND 
//  #03 //005   ----------------------------------------
Label_01660DF5:
 BYTE   N90  Bn2  v072
 BYTE   N90  Ds3
 BYTE   N90  Fs3
 BYTE   N90  An3
 BYTE   W96
 BYTE   PEND 
//  #03 //006   ----------------------------------------
Label_01660E00:
 BYTE   N90  Bn2  v072
 BYTE   N90  Ds3
 BYTE   N90  Fs3
 BYTE   N90  Gs3
 BYTE   W96
 BYTE   PEND 
//  #03 //007   ----------------------------------------
 BYTE   PATT
  POIN2 Label_01660DDF
//  #03 //008   ----------------------------------------
 BYTE   PATT
  POIN2 Label_01660DEA
//  #03 //009   ----------------------------------------
 BYTE   PATT
  POIN2 Label_01660DF5
//  #03 //010   ----------------------------------------
 BYTE   PATT
  POIN2 Label_01660E00
//  #03 //011   ----------------------------------------
 BYTE   PATT
  POIN2 Label_01660DDF
//  #03 //012   ----------------------------------------
 BYTE   PATT
  POIN2 Label_01660DEA
//  #03 //013   ----------------------------------------
 BYTE   PATT
  POIN2 Label_01660DF5
//  #03 //014   ----------------------------------------
 BYTE   PATT
  POIN2 Label_01660E00
//  #03 //015   ----------------------------------------
 BYTE   PATT
  POIN2 Label_01660DDF
//  #03 //016   ----------------------------------------
 BYTE   PATT
  POIN2 Label_01660DEA
//  #03 //017   ----------------------------------------
 BYTE   PATT
  POIN2 Label_01660E00
//  #03 //018   ----------------------------------------
 BYTE   PATT
  POIN2 Label_01660DDF
//  #03 //019   ----------------------------------------
Label_01660E47:
 BYTE   N90  Cn3  v072
 BYTE   N90  En3
 BYTE   N90  Gn3
 BYTE   N90  An3
 BYTE   W96
 BYTE   PEND 
//  #03 //020   ----------------------------------------
Label_01660E52:
 BYTE   N90  Bn2  v072
 BYTE   N90  Dn3
 BYTE   N90  Fs3
 BYTE   N90  An3
 BYTE   W96
 BYTE   PEND 
//  #03 //021   ----------------------------------------
 BYTE   PATT
  POIN2 Label_01660E47
//  #03 //022   ----------------------------------------
 BYTE   PATT
  POIN2 Label_01660E52
//  #03 //023   ----------------------------------------
 BYTE   N90  Cn3  v072
 BYTE   N90  Ds3
 BYTE   N90  Gn3
 BYTE   N90  As3
 BYTE   W96
//  #03 //024   ----------------------------------------
 BYTE   As2
 BYTE   N90  Dn3
 BYTE   N90  Fn3
 BYTE   N90  An3
 BYTE   W96
//  #03 //025   ----------------------------------------
 BYTE   An2
 BYTE   N90  Cn3
 BYTE   N90  En3
 BYTE   N90  Gn3
 BYTE   W96
//  #03 //026   ----------------------------------------
 BYTE   N30  An2
 BYTE   N30  Cn3
 BYTE   N30  Dn3
 BYTE   N30  Gn3
 BYTE   W96
//  #03 //027   ----------------------------------------
 BYTE   W96
//  #03 //028   ----------------------------------------
 BYTE   W96
//  #03 //029   ----------------------------------------
 BYTE   GoTo
  POIN2 Label_01660DDF
 BYTE   FINE

//**************** Track 4 (Midi-Chn.3) ****************//

ApolloJusticeAceAttorneyTroupeGramarye_004:
//  #04 //000   ----------------------------------------
 BYTE   KEYSH   ApolloJusticeAceAttorneyTroupeGramarye_key+0
 BYTE   VOICE   0
 BYTE   MODT 0
 BYTE   LFOS 44
 BYTE   PAN   c_v-1
 BYTE   VOL   34*ApolloJusticeAceAttorneyTroupeGramarye_mvl/mxv
 BYTE   W96
//  #04 //001   ----------------------------------------
 BYTE   W96
//  #04 //002   ----------------------------------------
 BYTE   W96
//  #04 //003   ----------------------------------------
Label_01660EA3:
 BYTE   N05  En4  v088
 BYTE   W06
 BYTE   Ds4
 BYTE   W06
 BYTE   En4
 BYTE   W06
 BYTE   Cs4
 BYTE   W06
 BYTE   En4
 BYTE   W06
 BYTE   Ds4
 BYTE   W06
 BYTE   En4
 BYTE   W06
 BYTE   Cs4
 BYTE   W06
 BYTE   En4
 BYTE   W06
 BYTE   Ds4
 BYTE   W06
 BYTE   En4
 BYTE   W06
 BYTE   Cs4
 BYTE   W06
 BYTE   En4
 BYTE   W06
 BYTE   Ds4
 BYTE   W06
 BYTE   En4
 BYTE   W06
 BYTE   Cs4
 BYTE   W06
 BYTE   PEND 
//  #04 //004   ----------------------------------------
 BYTE   PATT
  POIN2 Label_01660EA3
//  #04 //005   ----------------------------------------
Label_01660ECB:
 BYTE   N15  Fs4  v088
 BYTE   W18
 BYTE   N15
 BYTE   W18
 BYTE   N10
 BYTE   W12
 BYTE   N15  Ds4
 BYTE   N15  Fs4
 BYTE   W18
 BYTE   Ds4
 BYTE   N15  Fs4
 BYTE   W18
 BYTE   N10  Ds4
 BYTE   N10  Fs4
 BYTE   W12
 BYTE   PEND 
//  #04 //006   ----------------------------------------
Label_01660EE2:
 BYTE   N32  Fs4  v088
 BYTE   N32  An4
 BYTE   W36
 BYTE   N05  En4
 BYTE   N05  Gs4
 BYTE   W06
 BYTE   Ds4
 BYTE   N05  Fs4
 BYTE   W06
 BYTE   N36  En4
 BYTE   N36  Gs4
 BYTE   W48
 BYTE   PEND 
//  #04 //007   ----------------------------------------
 BYTE   PATT
  POIN2 Label_01660EA3
//  #04 //008   ----------------------------------------
 BYTE   PATT
  POIN2 Label_01660EA3
//  #04 //009   ----------------------------------------
 BYTE   N15  Bn4  v088
 BYTE   N15  Ds5
 BYTE   W18
 BYTE   An4
 BYTE   N15  Cs5
 BYTE   W18
 BYTE   N21  Gs4
 BYTE   N21  Bn4
 BYTE   W24
 BYTE   N10  Fs4
 BYTE   N10  An4
 BYTE   W12
 BYTE   Gs4
 BYTE   N10  Bn4
 BYTE   W12
 BYTE   Fs4
 BYTE   N10  An4
 BYTE   W12
//  #04 //010   ----------------------------------------
 BYTE   N44  Gs4
 BYTE   W48
 BYTE   N05  Ds5  v108
 BYTE   W06
 BYTE   Cs5
 BYTE   W06
 BYTE   Bn4
 BYTE   W06
 BYTE   An4
 BYTE   W06
 BYTE   Gs4
 BYTE   W06
 BYTE   Fs4
 BYTE   W06
 BYTE   En4
 BYTE   W06
 BYTE   Ds4
 BYTE   W06
//  #04 //011   ----------------------------------------
 BYTE   PATT
  POIN2 Label_01660EA3
//  #04 //012   ----------------------------------------
 BYTE   PATT
  POIN2 Label_01660EA3
//  #04 //013   ----------------------------------------
 BYTE   PATT
  POIN2 Label_01660ECB
//  #04 //014   ----------------------------------------
 BYTE   PATT
  POIN2 Label_01660EE2
//  #04 //015   ----------------------------------------
 BYTE   PATT
  POIN2 Label_01660EA3
//  #04 //016   ----------------------------------------
 BYTE   PATT
  POIN2 Label_01660EA3
//  #04 //017   ----------------------------------------
 BYTE   N15  Bn4  v088
 BYTE   N15  Ds5
 BYTE   W18
 BYTE   An4
 BYTE   N15  Cs5
 BYTE   W18
 BYTE   N28  Gs4
 BYTE   N28  Bn4
 BYTE   W36
 BYTE   N20  Gs4
 BYTE   N20  Bn4
 BYTE   W24
//  #04 //018   ----------------------------------------
 BYTE   N84  Gs4
 BYTE   N84  Cs5
 BYTE   W96
//  #04 //019   ----------------------------------------
 BYTE   W96
//  #04 //020   ----------------------------------------
 BYTE   W96
//  #04 //021   ----------------------------------------
 BYTE   W96
//  #04 //022   ----------------------------------------
 BYTE   W96
//  #04 //023   ----------------------------------------
 BYTE   W96
//  #04 //024   ----------------------------------------
 BYTE   W96
//  #04 //025   ----------------------------------------
 BYTE   W96
//  #04 //026   ----------------------------------------
 BYTE   W96
//  #04 //027   ----------------------------------------
 BYTE   W96
//  #04 //028   ----------------------------------------
 BYTE   W96
//  #04 //029   ----------------------------------------
 BYTE   GoTo
  POIN2 Label_01660EA3
 BYTE   FINE

//**************** Track 5 (Midi-Chn.4) ****************//

ApolloJusticeAceAttorneyTroupeGramarye_005:
//  #05 //000   ----------------------------------------
 BYTE   KEYSH   ApolloJusticeAceAttorneyTroupeGramarye_key+0
 BYTE   VOICE   47
 BYTE   MODT 0
 BYTE   LFOS 44
 BYTE   PAN   c_v-1
 BYTE   VOL   38*ApolloJusticeAceAttorneyTroupeGramarye_mvl/mxv
 BYTE   W96
//  #05 //001   ----------------------------------------
 BYTE   W96
//  #05 //002   ----------------------------------------
 BYTE   W96
//  #05 //003   ----------------------------------------
Label_01660F8B:
 BYTE   W96
//  #05 //004   ----------------------------------------
 BYTE   W96
//  #05 //005   ----------------------------------------
 BYTE   W96
//  #05 //006   ----------------------------------------
 BYTE   W96
//  #05 //007   ----------------------------------------
 BYTE   W96
//  #05 //008   ----------------------------------------
 BYTE   W96
//  #05 //009   ----------------------------------------
 BYTE   W96
//  #05 //010   ----------------------------------------
 BYTE   W96
//  #05 //011   ----------------------------------------
 BYTE   W96
//  #05 //012   ----------------------------------------
 BYTE   W96
//  #05 //013   ----------------------------------------
 BYTE   W96
//  #05 //014   ----------------------------------------
 BYTE   W96
//  #05 //015   ----------------------------------------
 BYTE   W96
//  #05 //016   ----------------------------------------
 BYTE   W96
//  #05 //017   ----------------------------------------
 BYTE   W96
//  #05 //018   ----------------------------------------
 BYTE   W96
//  #05 //019   ----------------------------------------
Label_01660F9B:
 BYTE   N18  An3  v072
 BYTE   N18  An4
 BYTE   W24
 BYTE   An3
 BYTE   N18  An4
 BYTE   W24
 BYTE   An3
 BYTE   N18  An4
 BYTE   W24
 BYTE   An3
 BYTE   N18  An4
 BYTE   W24
 BYTE   PEND 
//  #05 //020   ----------------------------------------
 BYTE   PATT
  POIN2 Label_01660F9B
//  #05 //021   ----------------------------------------
 BYTE   PATT
  POIN2 Label_01660F9B
//  #05 //022   ----------------------------------------
 BYTE   PATT
  POIN2 Label_01660F9B
//  #05 //023   ----------------------------------------
 BYTE   N20  Gn3  v088
 BYTE   N20  Gn4
 BYTE   W24
 BYTE   Fn3
 BYTE   N20  Fn4
 BYTE   W24
 BYTE   Gn3
 BYTE   N20  Gn4
 BYTE   W24
 BYTE   An3
 BYTE   N20  An4
 BYTE   W24
//  #05 //024   ----------------------------------------
 BYTE   As3
 BYTE   N20  As4
 BYTE   W24
 BYTE   An3
 BYTE   N20  An4
 BYTE   W24
 BYTE   As3
 BYTE   N20  As4
 BYTE   W24
 BYTE   Cn4
 BYTE   N20  Cn5
 BYTE   W24
//  #05 //025   ----------------------------------------
 BYTE   N24  Cn4
 BYTE   N24  Gn4
 BYTE   N24  Cn5
 BYTE   W36
 BYTE   N06  Cn4
 BYTE   N06  Gn4
 BYTE   N06  Cn5
 BYTE   W12
 BYTE   N24  Cn4
 BYTE   N24  Gn4
 BYTE   N24  Cn5
 BYTE   W36
 BYTE   N06  Cn4
 BYTE   N06  Gn4
 BYTE   N06  Cn5
 BYTE   W12
//  #05 //026   ----------------------------------------
 BYTE   N30  Dn4
 BYTE   N30  Gn4
 BYTE   N30  Dn5
 BYTE   W96
//  #05 //027   ----------------------------------------
 BYTE   W96
//  #05 //028   ----------------------------------------
 BYTE   W96
//  #05 //029   ----------------------------------------
 BYTE   GoTo
  POIN2 Label_01660F8B
 BYTE   FINE

//**************** Track 6 (Midi-Chn.5) ****************//

ApolloJusticeAceAttorneyTroupeGramarye_006:
//  #06 //000   ----------------------------------------
 BYTE   KEYSH   ApolloJusticeAceAttorneyTroupeGramarye_key+0
 BYTE   VOICE   61
 BYTE   MODT 0
 BYTE   LFOS 44
 BYTE   PAN   c_v+0
 BYTE   VOL   49*ApolloJusticeAceAttorneyTroupeGramarye_mvl/mxv
 BYTE   N05  As3  v096
 BYTE   N05  Fn4
 BYTE   N05  As4
 BYTE   W06
 BYTE   As3
 BYTE   N05  Fn4
 BYTE   N05  As4
 BYTE   W12
 BYTE   As3
 BYTE   N05  Fn4
 BYTE   N05  As4
 BYTE   W06
 BYTE   As3
 BYTE   N05  Fn4
 BYTE   N05  As4
 BYTE   W12
 BYTE   As3
 BYTE   N05  Fn4
 BYTE   N05  As4
 BYTE   W06
 BYTE   As3
 BYTE   N05  Fn4
 BYTE   N05  As4
 BYTE   W12
 BYTE   As3
 BYTE   N05  Fn4
 BYTE   N05  As4
 BYTE   W06
 BYTE   As3
 BYTE   N05  Fn4
 BYTE   N05  As4
 BYTE   W12
 BYTE   As3
 BYTE   N05  Fn4
 BYTE   N05  As4
 BYTE   W12
 BYTE   As3
 BYTE   N05  Fn4
 BYTE   N05  As4
 BYTE   W12
//  #06 //001   ----------------------------------------
 BYTE   As3
 BYTE   N05  Cs4
 BYTE   N05  Ds4
 BYTE   N05  Fs4
 BYTE   W06
 BYTE   As3
 BYTE   N05  Cs4
 BYTE   N05  Ds4
 BYTE   N05  Fs4
 BYTE   W12
 BYTE   As3
 BYTE   N05  Cs4
 BYTE   N05  Ds4
 BYTE   N05  Fs4
 BYTE   W06
 BYTE   As3
 BYTE   N05  Cs4
 BYTE   N05  Ds4
 BYTE   N05  Fs4
 BYTE   W12
 BYTE   N60  As3  v127
 BYTE   N60  Cs4
 BYTE   N60  Ds4
 BYTE   N60  Gs4
 BYTE   W06
 BYTE   VOL   41*ApolloJusticeAceAttorneyTroupeGramarye_mvl/mxv
 BYTE   W01
 BYTE   VOL   35*ApolloJusticeAceAttorneyTroupeGramarye_mvl/mxv
 BYTE   W01
 BYTE   VOL   30*ApolloJusticeAceAttorneyTroupeGramarye_mvl/mxv
 BYTE   W01
 BYTE   VOL   24*ApolloJusticeAceAttorneyTroupeGramarye_mvl/mxv
 BYTE   W01
 BYTE   VOL   20*ApolloJusticeAceAttorneyTroupeGramarye_mvl/mxv
 BYTE   W01
 BYTE   VOL   15*ApolloJusticeAceAttorneyTroupeGramarye_mvl/mxv
 BYTE   W01
 BYTE   VOL   14*ApolloJusticeAceAttorneyTroupeGramarye_mvl/mxv
 BYTE   W01
 BYTE   VOL   15*ApolloJusticeAceAttorneyTroupeGramarye_mvl/mxv
 BYTE   W01
 BYTE   VOL   15*ApolloJusticeAceAttorneyTroupeGramarye_mvl/mxv
 BYTE   W01
 BYTE   VOL   17*ApolloJusticeAceAttorneyTroupeGramarye_mvl/mxv
 BYTE   W01
 BYTE   VOL   17*ApolloJusticeAceAttorneyTroupeGramarye_mvl/mxv
 BYTE   W01
 BYTE   VOL   18*ApolloJusticeAceAttorneyTroupeGramarye_mvl/mxv
 BYTE   W01
 BYTE   VOL   18*ApolloJusticeAceAttorneyTroupeGramarye_mvl/mxv
 BYTE   W01
 BYTE   VOL   19*ApolloJusticeAceAttorneyTroupeGramarye_mvl/mxv
 BYTE   W01
 BYTE   VOL   20*ApolloJusticeAceAttorneyTroupeGramarye_mvl/mxv
 BYTE   W01
 BYTE   VOL   21*ApolloJusticeAceAttorneyTroupeGramarye_mvl/mxv
 BYTE   W01
 BYTE   VOL   22*ApolloJusticeAceAttorneyTroupeGramarye_mvl/mxv
 BYTE   W01
 BYTE   VOL   23*ApolloJusticeAceAttorneyTroupeGramarye_mvl/mxv
 BYTE   W01
 BYTE   VOL   23*ApolloJusticeAceAttorneyTroupeGramarye_mvl/mxv
 BYTE   W01
 BYTE   VOL   24*ApolloJusticeAceAttorneyTroupeGramarye_mvl/mxv
 BYTE   W01
 BYTE   VOL   26*ApolloJusticeAceAttorneyTroupeGramarye_mvl/mxv
 BYTE   W01
 BYTE   VOL   27*ApolloJusticeAceAttorneyTroupeGramarye_mvl/mxv
 BYTE   W01
 BYTE   VOL   28*ApolloJusticeAceAttorneyTroupeGramarye_mvl/mxv
 BYTE   W01
 BYTE   VOL   28*ApolloJusticeAceAttorneyTroupeGramarye_mvl/mxv
 BYTE   W01
 BYTE   VOL   30*ApolloJusticeAceAttorneyTroupeGramarye_mvl/mxv
 BYTE   W01
 BYTE   VOL   30*ApolloJusticeAceAttorneyTroupeGramarye_mvl/mxv
 BYTE   W01
 BYTE   VOL   31*ApolloJusticeAceAttorneyTroupeGramarye_mvl/mxv
 BYTE   W01
 BYTE   VOL   32*ApolloJusticeAceAttorneyTroupeGramarye_mvl/mxv
 BYTE   W01
 BYTE   VOL   34*ApolloJusticeAceAttorneyTroupeGramarye_mvl/mxv
 BYTE   W01
 BYTE   VOL   34*ApolloJusticeAceAttorneyTroupeGramarye_mvl/mxv
 BYTE   W01
 BYTE   VOL   36*ApolloJusticeAceAttorneyTroupeGramarye_mvl/mxv
 BYTE   W01
 BYTE   VOL   37*ApolloJusticeAceAttorneyTroupeGramarye_mvl/mxv
 BYTE   W01
 BYTE   VOL   37*ApolloJusticeAceAttorneyTroupeGramarye_mvl/mxv
 BYTE   W01
 BYTE   VOL   39*ApolloJusticeAceAttorneyTroupeGramarye_mvl/mxv
 BYTE   W01
 BYTE   VOL   40*ApolloJusticeAceAttorneyTroupeGramarye_mvl/mxv
 BYTE   W01
 BYTE   VOL   41*ApolloJusticeAceAttorneyTroupeGramarye_mvl/mxv
 BYTE   W01
 BYTE   VOL   42*ApolloJusticeAceAttorneyTroupeGramarye_mvl/mxv
 BYTE   W01
 BYTE   VOL   44*ApolloJusticeAceAttorneyTroupeGramarye_mvl/mxv
 BYTE   W01
 BYTE   VOL   44*ApolloJusticeAceAttorneyTroupeGramarye_mvl/mxv
 BYTE   W01
 BYTE   VOL   45*ApolloJusticeAceAttorneyTroupeGramarye_mvl/mxv
 BYTE   W01
 BYTE   VOL   46*ApolloJusticeAceAttorneyTroupeGramarye_mvl/mxv
 BYTE   W01
 BYTE   VOL   48*ApolloJusticeAceAttorneyTroupeGramarye_mvl/mxv
 BYTE   W01
 BYTE   VOL   49*ApolloJusticeAceAttorneyTroupeGramarye_mvl/mxv
 BYTE   W12
//  #06 //002   ----------------------------------------
 BYTE   W12
 BYTE   N05  As3  v048
 BYTE   N05  Cs4
 BYTE   N05  Ds4
 BYTE   N05  Gs4
 BYTE   W12
 BYTE   As3  v060
 BYTE   N05  Cs4
 BYTE   N05  Ds4
 BYTE   N05  Gs4
 BYTE   W12
 BYTE   As3  v072
 BYTE   N05  Cs4
 BYTE   N05  Ds4
 BYTE   N05  Gs4
 BYTE   W12
 BYTE   As3  v084
 BYTE   N05  Cs4
 BYTE   N05  Ds4
 BYTE   N05  Gs4
 BYTE   W12
 BYTE   As3  v096
 BYTE   N05  Cs4
 BYTE   N05  Ds4
 BYTE   N05  Gs4
 BYTE   W12
 BYTE   As3  v112
 BYTE   N05  Cs4
 BYTE   N05  Ds4
 BYTE   N05  Gs4
 BYTE   W12
 BYTE   As3  v127
 BYTE   N05  Cs4
 BYTE   N05  Ds4
 BYTE   N05  Gs4
 BYTE   W12
//  #06 //003   ----------------------------------------
Label_01661118:
 BYTE   VOL   49*ApolloJusticeAceAttorneyTroupeGramarye_mvl/mxv
 BYTE   W96
//  #06 //004   ----------------------------------------
 BYTE   W96
//  #06 //005   ----------------------------------------
 BYTE   W96
//  #06 //006   ----------------------------------------
 BYTE   W96
//  #06 //007   ----------------------------------------
 BYTE   W96
//  #06 //008   ----------------------------------------
 BYTE   W96
//  #06 //009   ----------------------------------------
 BYTE   W96
//  #06 //010   ----------------------------------------
 BYTE   W96
//  #06 //011   ----------------------------------------
 BYTE   W96
//  #06 //012   ----------------------------------------
 BYTE   W96
//  #06 //013   ----------------------------------------
 BYTE   W96
//  #06 //014   ----------------------------------------
 BYTE   W96
//  #06 //015   ----------------------------------------
 BYTE   W96
//  #06 //016   ----------------------------------------
 BYTE   W96
//  #06 //017   ----------------------------------------
 BYTE   W96
//  #06 //018   ----------------------------------------
 BYTE   W96
//  #06 //019   ----------------------------------------
 BYTE   W96
//  #06 //020   ----------------------------------------
 BYTE   W96
//  #06 //021   ----------------------------------------
 BYTE   W96
//  #06 //022   ----------------------------------------
 BYTE   W96
//  #06 //023   ----------------------------------------
 BYTE   W96
//  #06 //024   ----------------------------------------
 BYTE   W96
//  #06 //025   ----------------------------------------
 BYTE   W96
//  #06 //026   ----------------------------------------
 BYTE   VOL   53*ApolloJusticeAceAttorneyTroupeGramarye_mvl/mxv
 BYTE   W36
 BYTE   N05  An3  v100
 BYTE   N05  Cn4
 BYTE   N05  Dn4
 BYTE   N05  Gn4
 BYTE   W06
 BYTE   An3  v104
 BYTE   N05  Cn4
 BYTE   N05  Dn4
 BYTE   N05  Gn4
 BYTE   W06
 BYTE   An3  v108
 BYTE   N05  Cn4
 BYTE   N05  Dn4
 BYTE   N05  Gn4
 BYTE   W12
 BYTE   An3  v112
 BYTE   N05  Cn4
 BYTE   N05  Dn4
 BYTE   N05  Gn4
 BYTE   W12
 BYTE   An3  v116
 BYTE   N05  Cn4
 BYTE   N05  Dn4
 BYTE   N05  Gn4
 BYTE   W12
 BYTE   An3  v120
 BYTE   N05  Cn4
 BYTE   N05  Dn4
 BYTE   N05  Gn4
 BYTE   W12
//  #06 //027   ----------------------------------------
 BYTE   N12  An3  v127
 BYTE   N12  Cn4
 BYTE   N12  Dn4
 BYTE   N12  Gn4
 BYTE   W96
//  #06 //028   ----------------------------------------
 BYTE   W96
//  #06 //029   ----------------------------------------
 BYTE   GoTo
  POIN2 Label_01661118
 BYTE   FINE

//**************** Track 7 (Midi-Chn.6) ****************//

ApolloJusticeAceAttorneyTroupeGramarye_007:
//  #07 //000   ----------------------------------------
 BYTE   KEYSH   ApolloJusticeAceAttorneyTroupeGramarye_key+0
 BYTE   VOICE   24
 BYTE   MODT 0
 BYTE   LFOS 44
 BYTE   PAN   c_v-5
 BYTE   VOL   25*ApolloJusticeAceAttorneyTroupeGramarye_mvl/mxv
 BYTE   W96
//  #07 //001   ----------------------------------------
 BYTE   W96
//  #07 //002   ----------------------------------------
 BYTE   W96
//  #07 //003   ----------------------------------------
Label_0166118B:
 BYTE   W84
 BYTE   N06  Cs4  v104
 BYTE   N06  Cs5
 BYTE   W12
 BYTE   PEND 
//  #07 //004   ----------------------------------------
 BYTE   PATT
  POIN2 Label_0166118B
//  #07 //005   ----------------------------------------
 BYTE   W96
//  #07 //006   ----------------------------------------
Label_01661199:
 BYTE   W72
 BYTE   N06  En4  v104
 BYTE   N06  En5
 BYTE   W12
 BYTE   En4
 BYTE   N06  En5
 BYTE   W12
 BYTE   PEND 
//  #07 //007   ----------------------------------------
 BYTE   PATT
  POIN2 Label_0166118B
//  #07 //008   ----------------------------------------
 BYTE   PATT
  POIN2 Label_0166118B
//  #07 //009   ----------------------------------------
 BYTE   W96
//  #07 //010   ----------------------------------------
 BYTE   W12
 BYTE   N05  En4  v104
 BYTE   N05  En5
 BYTE   W12
 BYTE   En4
 BYTE   N05  En5
 BYTE   W12
 BYTE   En4
 BYTE   N05  En5
 BYTE   W12
 BYTE   N15  En4
 BYTE   N15  En5
 BYTE   W18
 BYTE   En4
 BYTE   N15  En5
 BYTE   W30
//  #07 //011   ----------------------------------------
 BYTE   PATT
  POIN2 Label_0166118B
//  #07 //012   ----------------------------------------
 BYTE   PATT
  POIN2 Label_0166118B
//  #07 //013   ----------------------------------------
 BYTE   W96
//  #07 //014   ----------------------------------------
 BYTE   PATT
  POIN2 Label_01661199
//  #07 //015   ----------------------------------------
 BYTE   PATT
  POIN2 Label_0166118B
//  #07 //016   ----------------------------------------
 BYTE   PATT
  POIN2 Label_0166118B
//  #07 //017   ----------------------------------------
 BYTE   W96
//  #07 //018   ----------------------------------------
 BYTE   N05  Cs4  v104
 BYTE   N05  Cs5
 BYTE   W12
 BYTE   Cs4
 BYTE   N05  Cs5
 BYTE   W12
 BYTE   Cs4
 BYTE   N05  Cs5
 BYTE   W12
 BYTE   Cs4
 BYTE   N05  Cs5
 BYTE   W12
 BYTE   N15  Cs4
 BYTE   N15  Cs5
 BYTE   W18
 BYTE   Cs4
 BYTE   N15  Cs5
 BYTE   W18
 BYTE   N06  Cs4
 BYTE   N06  Cs5
 BYTE   W12
//  #07 //019   ----------------------------------------
 BYTE   W96
//  #07 //020   ----------------------------------------
 BYTE   W96
//  #07 //021   ----------------------------------------
 BYTE   W96
//  #07 //022   ----------------------------------------
 BYTE   W96
//  #07 //023   ----------------------------------------
 BYTE   W96
//  #07 //024   ----------------------------------------
 BYTE   W96
//  #07 //025   ----------------------------------------
 BYTE   W96
//  #07 //026   ----------------------------------------
 BYTE   W96
//  #07 //027   ----------------------------------------
 BYTE   W96
//  #07 //028   ----------------------------------------
 BYTE   W96
//  #07 //029   ----------------------------------------
 BYTE   GoTo
  POIN2 Label_0166118B
 BYTE   FINE

//**************** Track 8 (Midi-Chn.7) ****************//

ApolloJusticeAceAttorneyTroupeGramarye_008:
//  #08 //000   ----------------------------------------
 BYTE   KEYSH   ApolloJusticeAceAttorneyTroupeGramarye_key+0
 BYTE   VOICE   100
 BYTE   MODT 0
 BYTE   LFOS 44
 BYTE   VOL   59*ApolloJusticeAceAttorneyTroupeGramarye_mvl/mxv
 BYTE   PAN   c_v+2
 BYTE   W96
//  #08 //001   ----------------------------------------
 BYTE   W96
//  #08 //002   ----------------------------------------
 BYTE   W96
//  #08 //003   ----------------------------------------
Label_01661503:
 BYTE   W12
 BYTE   N12  Gs3  v100
 BYTE   W12
 BYTE   En3
 BYTE   W12
 BYTE   Cs3
 BYTE   W12
 BYTE   N18  Gs3
 BYTE   W18
 BYTE   N10  En3
 BYTE   W30
 BYTE   PEND 
//  #08 //004   ----------------------------------------
 BYTE   PATT
  POIN2 Label_01661503
//  #08 //005   ----------------------------------------
Label_01661518:
 BYTE   N18  Ds3  v100
 BYTE   W18
 BYTE   En3
 BYTE   W18
 BYTE   N24  Fs3
 BYTE   W24
 BYTE   N12  En3
 BYTE   W12
 BYTE   Fs3
 BYTE   W12
 BYTE   Gs3
 BYTE   W12
 BYTE   PEND 
//  #08 //006   ----------------------------------------
Label_01661529:
 BYTE   N36  An3  v100
 BYTE   W36
 BYTE   N06  Gs3
 BYTE   W06
 BYTE   Fs3
 BYTE   W06
 BYTE   N36  Gs3
 BYTE   W48
 BYTE   PEND 
//  #08 //007   ----------------------------------------
 BYTE   PATT
  POIN2 Label_01661503
//  #08 //008   ----------------------------------------
Label_0166153B:
 BYTE   W12
 BYTE   N12  An3  v100
 BYTE   W12
 BYTE   En3
 BYTE   W12
 BYTE   Cs3
 BYTE   W12
 BYTE   N18  An3
 BYTE   W18
 BYTE   N10  En3
 BYTE   W30
 BYTE   PEND 
//  #08 //009   ----------------------------------------
 BYTE   N18  Ds4
 BYTE   W18
 BYTE   Cs4
 BYTE   W18
 BYTE   N24  Bn3
 BYTE   W24
 BYTE   N12  An3
 BYTE   W12
 BYTE   Bn3
 BYTE   W12
 BYTE   An3
 BYTE   W12
//  #08 //010   ----------------------------------------
 BYTE   N78  Gs3
 BYTE   W96
//  #08 //011   ----------------------------------------
 BYTE   PATT
  POIN2 Label_01661503
//  #08 //012   ----------------------------------------
 BYTE   PATT
  POIN2 Label_01661503
//  #08 //013   ----------------------------------------
 BYTE   PATT
  POIN2 Label_01661518
//  #08 //014   ----------------------------------------
 BYTE   PATT
  POIN2 Label_01661529
//  #08 //015   ----------------------------------------
 BYTE   PATT
  POIN2 Label_01661503
//  #08 //016   ----------------------------------------
 BYTE   PATT
  POIN2 Label_0166153B
//  #08 //017   ----------------------------------------
 BYTE   N18  Ds4  v100
 BYTE   W18
 BYTE   Cs4
 BYTE   W18
 BYTE   N24  Bn3
 BYTE   W24
 BYTE   N12  An3
 BYTE   W12
 BYTE   Bn3
 BYTE   W12
 BYTE   Cn4
 BYTE   W12
//  #08 //018   ----------------------------------------
 BYTE   N84  Cs4
 BYTE   W96
//  #08 //019   ----------------------------------------
 BYTE   W96
//  #08 //020   ----------------------------------------
 BYTE   W96
//  #08 //021   ----------------------------------------
 BYTE   W96
//  #08 //022   ----------------------------------------
 BYTE   W96
//  #08 //023   ----------------------------------------
 BYTE   W96
//  #08 //024   ----------------------------------------
 BYTE   W96
//  #08 //025   ----------------------------------------
 BYTE   W96
//  #08 //026   ----------------------------------------
 BYTE   W96
//  #08 //027   ----------------------------------------
 BYTE   W96
//  #08 //028   ----------------------------------------
 BYTE   W96
//  #08 //029   ----------------------------------------
 BYTE   GoTo
  POIN2 Label_01661503
 BYTE   FINE

//**************** Track 9 (Midi-Chn.8) ****************//

ApolloJusticeAceAttorneyTroupeGramarye_009:
//  #09 //000   ----------------------------------------
 BYTE   KEYSH   ApolloJusticeAceAttorneyTroupeGramarye_key+0
 BYTE   VOICE   10
 BYTE   MODT 0
 BYTE   LFOS 44
 BYTE   VOL   45*ApolloJusticeAceAttorneyTroupeGramarye_mvl/mxv
 BYTE   PAN   c_v-4
 BYTE   W96
//  #09 //001   ----------------------------------------
 BYTE   W96
//  #09 //002   ----------------------------------------
 BYTE   W96
//  #09 //003   ----------------------------------------
Label_016612CF:
 BYTE   W96
//  #09 //004   ----------------------------------------
 BYTE   W96
//  #09 //005   ----------------------------------------
 BYTE   W96
//  #09 //006   ----------------------------------------
 BYTE   W96
//  #09 //007   ----------------------------------------
 BYTE   W96
//  #09 //008   ----------------------------------------
 BYTE   W96
//  #09 //009   ----------------------------------------
 BYTE   W96
//  #09 //010   ----------------------------------------
 BYTE   W96
//  #09 //011   ----------------------------------------
 BYTE   W96
//  #09 //012   ----------------------------------------
 BYTE   W96
//  #09 //013   ----------------------------------------
 BYTE   W96
//  #09 //014   ----------------------------------------
 BYTE   W96
//  #09 //015   ----------------------------------------
 BYTE   W96
//  #09 //016   ----------------------------------------
 BYTE   W96
//  #09 //017   ----------------------------------------
 BYTE   W96
//  #09 //018   ----------------------------------------
 BYTE   W96
//  #09 //019   ----------------------------------------
 BYTE   N12  An3  v092
 BYTE   W12
 BYTE   N07  Bn3
 BYTE   W12
 BYTE   N12  An3
 BYTE   W12
 BYTE   N07  Bn3
 BYTE   W12
 BYTE   N12  An3
 BYTE   W12
 BYTE   N06  Bn3
 BYTE   W06
 BYTE   N18  An3
 BYTE   W18
 BYTE   N12  Gn3
 BYTE   W12
//  #09 //020   ----------------------------------------
 BYTE   Fs3
 BYTE   W12
 BYTE   N07  Gn3
 BYTE   W12
 BYTE   N12  Fs3
 BYTE   W12
 BYTE   N07  Gn3
 BYTE   W12
 BYTE   N12  Fs3
 BYTE   W12
 BYTE   N06  Gn3
 BYTE   W06
 BYTE   N18  An3
 BYTE   W18
 BYTE   N12  Bn3
 BYTE   W12
//  #09 //021   ----------------------------------------
 BYTE   N12
 BYTE   W12
 BYTE   N07  Cn4
 BYTE   W12
 BYTE   N12  Bn3
 BYTE   W12
 BYTE   N07  Cn4
 BYTE   W12
 BYTE   N12  Bn3
 BYTE   W12
 BYTE   N06  Cn4
 BYTE   W06
 BYTE   N18  Dn4
 BYTE   W18
 BYTE   N12  Cn4
 BYTE   W12
//  #09 //022   ----------------------------------------
 BYTE   N30  Bn3
 BYTE   W30
 BYTE   N06  An3
 BYTE   W06
 BYTE   Gn3
 BYTE   W06
 BYTE   An3
 BYTE   W06
 BYTE   N42  Bn3
 BYTE   W48
//  #09 //023   ----------------------------------------
 BYTE   N36  Ds4
 BYTE   W36
 BYTE   N06  Fn4
 BYTE   W06
 BYTE   Ds4
 BYTE   W06
 BYTE   N12  Dn4
 BYTE   W12
 BYTE   N07  Cn4
 BYTE   W12
 BYTE   N12  As3
 BYTE   W12
 BYTE   An3
 BYTE   W12
//  #09 //024   ----------------------------------------
 BYTE   N36  Dn4
 BYTE   W36
 BYTE   N06  Ds4
 BYTE   W06
 BYTE   Dn4
 BYTE   W06
 BYTE   N12  Cn4
 BYTE   W12
 BYTE   N07  As3
 BYTE   W12
 BYTE   N12  An3
 BYTE   W12
 BYTE   Gn3
 BYTE   W12
//  #09 //025   ----------------------------------------
 BYTE   N30  Cn4
 BYTE   W36
 BYTE   N06
 BYTE   W12
 BYTE   N30
 BYTE   W36
 BYTE   N06
 BYTE   W12
//  #09 //026   ----------------------------------------
 BYTE   N30  Dn4
 BYTE   W36
 BYTE   N05
 BYTE   W06
 BYTE   N05
 BYTE   W06
 BYTE   N06
 BYTE   W12
 BYTE   N06
 BYTE   W12
 BYTE   N06
 BYTE   W12
 BYTE   N06
 BYTE   W12
//  #09 //027   ----------------------------------------
 BYTE   N12
 BYTE   W96
//  #09 //028   ----------------------------------------
 BYTE   W96
//  #09 //029   ----------------------------------------
 BYTE   GoTo
  POIN2 Label_016612CF
 BYTE   FINE

//**************** Track 10 (Midi-Chn.9) ****************//

ApolloJusticeAceAttorneyTroupeGramarye_010:
//  #10 //000   ----------------------------------------
 BYTE   KEYSH   ApolloJusticeAceAttorneyTroupeGramarye_key+0
 BYTE   VOICE   61
 BYTE   MODT 0
 BYTE   LFOS 44
 BYTE   PAN   c_v+0
 BYTE   VOL   19*ApolloJusticeAceAttorneyTroupeGramarye_mvl/mxv
 BYTE   BEND   c_v+3
 BYTE   W05
 BYTE   N05  As3  v096
 BYTE   N05  Fn4
 BYTE   N05  As4
 BYTE   W06
 BYTE   As3
 BYTE   N05  Fn4
 BYTE   N05  As4
 BYTE   W12
 BYTE   As3
 BYTE   N05  Fn4
 BYTE   N05  As4
 BYTE   W06
 BYTE   As3
 BYTE   N05  Fn4
 BYTE   N05  As4
 BYTE   W12
 BYTE   As3
 BYTE   N05  Fn4
 BYTE   N05  As4
 BYTE   W06
 BYTE   As3
 BYTE   N05  Fn4
 BYTE   N05  As4
 BYTE   W12
 BYTE   As3
 BYTE   N05  Fn4
 BYTE   N05  As4
 BYTE   W06
 BYTE   As3
 BYTE   N05  Fn4
 BYTE   N05  As4
 BYTE   W12
 BYTE   As3
 BYTE   N05  Fn4
 BYTE   N05  As4
 BYTE   W12
 BYTE   As3
 BYTE   N05  Fn4
 BYTE   N05  As4
 BYTE   W07
//  #10 //001   ----------------------------------------
 BYTE   W05
 BYTE   As3
 BYTE   N05  Cs4
 BYTE   N05  Ds4
 BYTE   N05  Fs4
 BYTE   W06
 BYTE   As3
 BYTE   N05  Cs4
 BYTE   N05  Ds4
 BYTE   N05  Fs4
 BYTE   W12
 BYTE   As3
 BYTE   N05  Cs4
 BYTE   N05  Ds4
 BYTE   N05  Fs4
 BYTE   W06
 BYTE   As3
 BYTE   N05  Cs4
 BYTE   N05  Ds4
 BYTE   N05  Fs4
 BYTE   W12
 BYTE   N60  As3  v127
 BYTE   N60  Cs4
 BYTE   N60  Ds4
 BYTE   N60  Gs4
 BYTE   W06
 BYTE   VOL   16*ApolloJusticeAceAttorneyTroupeGramarye_mvl/mxv
 BYTE   W01
 BYTE   VOL   14*ApolloJusticeAceAttorneyTroupeGramarye_mvl/mxv
 BYTE   W01
 BYTE   VOL   11*ApolloJusticeAceAttorneyTroupeGramarye_mvl/mxv
 BYTE   W01
 BYTE   VOL   10*ApolloJusticeAceAttorneyTroupeGramarye_mvl/mxv
 BYTE   W01
 BYTE   VOL   8*ApolloJusticeAceAttorneyTroupeGramarye_mvl/mxv
 BYTE   W01
 BYTE   VOL   6*ApolloJusticeAceAttorneyTroupeGramarye_mvl/mxv
 BYTE   W01
 BYTE   VOL   5*ApolloJusticeAceAttorneyTroupeGramarye_mvl/mxv
 BYTE   W01
 BYTE   VOL   6*ApolloJusticeAceAttorneyTroupeGramarye_mvl/mxv
 BYTE   W01
 BYTE   VOL   6*ApolloJusticeAceAttorneyTroupeGramarye_mvl/mxv
 BYTE   W01
 BYTE   VOL   6*ApolloJusticeAceAttorneyTroupeGramarye_mvl/mxv
 BYTE   W01
 BYTE   VOL   6*ApolloJusticeAceAttorneyTroupeGramarye_mvl/mxv
 BYTE   W01
 BYTE   VOL   6*ApolloJusticeAceAttorneyTroupeGramarye_mvl/mxv
 BYTE   W01
 BYTE   VOL   7*ApolloJusticeAceAttorneyTroupeGramarye_mvl/mxv
 BYTE   W01
 BYTE   VOL   8*ApolloJusticeAceAttorneyTroupeGramarye_mvl/mxv
 BYTE   W01
 BYTE   VOL   8*ApolloJusticeAceAttorneyTroupeGramarye_mvl/mxv
 BYTE   W01
 BYTE   VOL   8*ApolloJusticeAceAttorneyTroupeGramarye_mvl/mxv
 BYTE   W01
 BYTE   VOL   8*ApolloJusticeAceAttorneyTroupeGramarye_mvl/mxv
 BYTE   W01
 BYTE   VOL   9*ApolloJusticeAceAttorneyTroupeGramarye_mvl/mxv
 BYTE   W01
 BYTE   VOL   9*ApolloJusticeAceAttorneyTroupeGramarye_mvl/mxv
 BYTE   W01
 BYTE   VOL   10*ApolloJusticeAceAttorneyTroupeGramarye_mvl/mxv
 BYTE   W01
 BYTE   VOL   10*ApolloJusticeAceAttorneyTroupeGramarye_mvl/mxv
 BYTE   W01
 BYTE   VOL   10*ApolloJusticeAceAttorneyTroupeGramarye_mvl/mxv
 BYTE   W01
 BYTE   VOL   11*ApolloJusticeAceAttorneyTroupeGramarye_mvl/mxv
 BYTE   W01
 BYTE   VOL   11*ApolloJusticeAceAttorneyTroupeGramarye_mvl/mxv
 BYTE   W01
 BYTE   VOL   11*ApolloJusticeAceAttorneyTroupeGramarye_mvl/mxv
 BYTE   W01
 BYTE   VOL   11*ApolloJusticeAceAttorneyTroupeGramarye_mvl/mxv
 BYTE   W01
 BYTE   VOL   12*ApolloJusticeAceAttorneyTroupeGramarye_mvl/mxv
 BYTE   W01
 BYTE   VOL   13*ApolloJusticeAceAttorneyTroupeGramarye_mvl/mxv
 BYTE   W01
 BYTE   VOL   13*ApolloJusticeAceAttorneyTroupeGramarye_mvl/mxv
 BYTE   W01
 BYTE   VOL   14*ApolloJusticeAceAttorneyTroupeGramarye_mvl/mxv
 BYTE   W01
 BYTE   VOL   14*ApolloJusticeAceAttorneyTroupeGramarye_mvl/mxv
 BYTE   W01
 BYTE   VOL   14*ApolloJusticeAceAttorneyTroupeGramarye_mvl/mxv
 BYTE   W01
 BYTE   VOL   15*ApolloJusticeAceAttorneyTroupeGramarye_mvl/mxv
 BYTE   W01
 BYTE   VOL   15*ApolloJusticeAceAttorneyTroupeGramarye_mvl/mxv
 BYTE   W01
 BYTE   VOL   15*ApolloJusticeAceAttorneyTroupeGramarye_mvl/mxv
 BYTE   W01
 BYTE   VOL   16*ApolloJusticeAceAttorneyTroupeGramarye_mvl/mxv
 BYTE   W01
 BYTE   VOL   17*ApolloJusticeAceAttorneyTroupeGramarye_mvl/mxv
 BYTE   W01
 BYTE   VOL   17*ApolloJusticeAceAttorneyTroupeGramarye_mvl/mxv
 BYTE   W01
 BYTE   VOL   17*ApolloJusticeAceAttorneyTroupeGramarye_mvl/mxv
 BYTE   W01
 BYTE   VOL   18*ApolloJusticeAceAttorneyTroupeGramarye_mvl/mxv
 BYTE   W01
 BYTE   VOL   18*ApolloJusticeAceAttorneyTroupeGramarye_mvl/mxv
 BYTE   W01
 BYTE   VOL   19*ApolloJusticeAceAttorneyTroupeGramarye_mvl/mxv
 BYTE   W01
 BYTE   VOL   19*ApolloJusticeAceAttorneyTroupeGramarye_mvl/mxv
 BYTE   W07
//  #10 //002   ----------------------------------------
 BYTE   W17
 BYTE   N05  As3  v048
 BYTE   N05  Cs4
 BYTE   N05  Ds4
 BYTE   N05  Gs4
 BYTE   W12
 BYTE   As3  v060
 BYTE   N05  Cs4
 BYTE   N05  Ds4
 BYTE   N05  Gs4
 BYTE   W12
 BYTE   As3  v072
 BYTE   N05  Cs4
 BYTE   N05  Ds4
 BYTE   N05  Gs4
 BYTE   W12
 BYTE   As3  v084
 BYTE   N05  Cs4
 BYTE   N05  Ds4
 BYTE   N05  Gs4
 BYTE   W12
 BYTE   As3  v096
 BYTE   N05  Cs4
 BYTE   N05  Ds4
 BYTE   N05  Gs4
 BYTE   W12
 BYTE   As3  v112
 BYTE   N05  Cs4
 BYTE   N05  Ds4
 BYTE   N05  Gs4
 BYTE   W12
 BYTE   As3  v127
 BYTE   N05  Cs4
 BYTE   N05  Ds4
 BYTE   N05  Gs4
 BYTE   W07
//  #10 //003   ----------------------------------------
Label_0166148C:
 BYTE   VOL   19*ApolloJusticeAceAttorneyTroupeGramarye_mvl/mxv
 BYTE   W96
//  #10 //004   ----------------------------------------
 BYTE   W96
//  #10 //005   ----------------------------------------
 BYTE   W96
//  #10 //006   ----------------------------------------
 BYTE   W96
//  #10 //007   ----------------------------------------
 BYTE   W96
//  #10 //008   ----------------------------------------
 BYTE   W96
//  #10 //009   ----------------------------------------
 BYTE   W96
//  #10 //010   ----------------------------------------
 BYTE   W96
//  #10 //011   ----------------------------------------
 BYTE   W96
//  #10 //012   ----------------------------------------
 BYTE   W96
//  #10 //013   ----------------------------------------
 BYTE   W96
//  #10 //014   ----------------------------------------
 BYTE   W96
//  #10 //015   ----------------------------------------
 BYTE   W96
//  #10 //016   ----------------------------------------
 BYTE   W96
//  #10 //017   ----------------------------------------
 BYTE   W96
//  #10 //018   ----------------------------------------
 BYTE   W96
//  #10 //019   ----------------------------------------
 BYTE   W96
//  #10 //020   ----------------------------------------
 BYTE   W96
//  #10 //021   ----------------------------------------
 BYTE   W96
//  #10 //022   ----------------------------------------
 BYTE   W96
//  #10 //023   ----------------------------------------
 BYTE   W96
//  #10 //024   ----------------------------------------
 BYTE   W96
//  #10 //025   ----------------------------------------
 BYTE   W96
//  #10 //026   ----------------------------------------
 BYTE   VOL   29*ApolloJusticeAceAttorneyTroupeGramarye_mvl/mxv
 BYTE   W36
 BYTE   W03
 BYTE   N05  An3  v100
 BYTE   N05  Cn4
 BYTE   N05  Dn4
 BYTE   N05  Gn4
 BYTE   W06
 BYTE   An3  v104
 BYTE   N05  Cn4
 BYTE   N05  Dn4
 BYTE   N05  Gn4
 BYTE   W06
 BYTE   An3  v108
 BYTE   N05  Cn4
 BYTE   N05  Dn4
 BYTE   N05  Gn4
 BYTE   W12
 BYTE   An3  v112
 BYTE   N05  Cn4
 BYTE   N05  Dn4
 BYTE   N05  Gn4
 BYTE   W12
 BYTE   An3  v116
 BYTE   N05  Cn4
 BYTE   N05  Dn4
 BYTE   N05  Gn4
 BYTE   W12
 BYTE   An3  v120
 BYTE   N05  Cn4
 BYTE   N05  Dn4
 BYTE   N05  Gn4
 BYTE   W09
//  #10 //027   ----------------------------------------
 BYTE   W03
 BYTE   N12  An3  v127
 BYTE   N12  Cn4
 BYTE   N12  Dn4
 BYTE   N12  Gn4
 BYTE   W92
 BYTE   W01
//  #10 //028   ----------------------------------------
 BYTE   W96
//  #10 //029   ----------------------------------------
 BYTE   GoTo
  POIN2 Label_0166148C
 BYTE   FINE

//**************** Track 11 (Midi-Chn.10) ****************//

ApolloJusticeAceAttorneyTroupeGramarye_011:
//  #11 //000   ----------------------------------------
 BYTE   KEYSH   ApolloJusticeAceAttorneyTroupeGramarye_key+0
 BYTE   VOICE   100
 BYTE   MODT 0
 BYTE   LFOS 44
 BYTE   VOL   19*ApolloJusticeAceAttorneyTroupeGramarye_mvl/mxv
 BYTE   PAN   c_v+0
 BYTE   BEND   c_v+3
 BYTE   W96
//  #11 //001   ----------------------------------------
 BYTE   W96
//  #11 //002   ----------------------------------------
 BYTE   W96
//  #11 //003   ----------------------------------------
Label_01661225:
 BYTE   W24
 BYTE   N12  Gs3  v100
 BYTE   W12
 BYTE   En3
 BYTE   W12
 BYTE   Cs3
 BYTE   W12
 BYTE   N18  Gs3
 BYTE   W18
 BYTE   N10  En3
 BYTE   W18
 BYTE   PEND 
//  #11 //004   ----------------------------------------
 BYTE   PATT
  POIN2 Label_01661225
//  #11 //005   ----------------------------------------
Label_0166123A:
 BYTE   W12
 BYTE   N18  Ds3  v100
 BYTE   W18
 BYTE   En3
 BYTE   W18
 BYTE   N24  Fs3
 BYTE   W24
 BYTE   N12  En3
 BYTE   W12
 BYTE   Fs3
 BYTE   W12
 BYTE   PEND 
//  #11 //006   ----------------------------------------
Label_0166124A:
 BYTE   N12  Gs3  v100
 BYTE   W12
 BYTE   N36  An3
 BYTE   W36
 BYTE   N06  Gs3
 BYTE   W06
 BYTE   Fs3
 BYTE   W06
 BYTE   N36  Gs3
 BYTE   W36
 BYTE   PEND 
//  #11 //007   ----------------------------------------
 BYTE   PATT
  POIN2 Label_01661225
//  #11 //008   ----------------------------------------
Label_0166125F:
 BYTE   W24
 BYTE   N12  An3  v100
 BYTE   W12
 BYTE   En3
 BYTE   W12
 BYTE   Cs3
 BYTE   W12
 BYTE   N18  An3
 BYTE   W18
 BYTE   N10  En3
 BYTE   W18
 BYTE   PEND 
//  #11 //009   ----------------------------------------
Label_0166126F:
 BYTE   W12
 BYTE   N18  Ds4  v100
 BYTE   W18
 BYTE   Cs4
 BYTE   W18
 BYTE   N24  Bn3
 BYTE   W24
 BYTE   N12  An3
 BYTE   W12
 BYTE   Bn3
 BYTE   W12
 BYTE   PEND 
//  #11 //010   ----------------------------------------
 BYTE   An3
 BYTE   W12
 BYTE   N78  Gs3
 BYTE   W84
//  #11 //011   ----------------------------------------
 BYTE   PATT
  POIN2 Label_01661225
//  #11 //012   ----------------------------------------
 BYTE   PATT
  POIN2 Label_01661225
//  #11 //013   ----------------------------------------
 BYTE   PATT
  POIN2 Label_0166123A
//  #11 //014   ----------------------------------------
 BYTE   PATT
  POIN2 Label_0166124A
//  #11 //015   ----------------------------------------
 BYTE   PATT
  POIN2 Label_01661225
//  #11 //016   ----------------------------------------
 BYTE   PATT
  POIN2 Label_0166125F
//  #11 //017   ----------------------------------------
 BYTE   PATT
  POIN2 Label_0166126F
//  #11 //018   ----------------------------------------
 BYTE   N12  Cn4  v100
 BYTE   W12
 BYTE   N84  Cs4
 BYTE   W84
//  #11 //019   ----------------------------------------
 BYTE   W96
//  #11 //020   ----------------------------------------
 BYTE   W96
//  #11 //021   ----------------------------------------
 BYTE   W96
//  #11 //022   ----------------------------------------
 BYTE   W96
//  #11 //023   ----------------------------------------
 BYTE   W96
//  #11 //024   ----------------------------------------
 BYTE   W96
//  #11 //025   ----------------------------------------
 BYTE   W96
//  #11 //026   ----------------------------------------
 BYTE   W96
//  #11 //027   ----------------------------------------
 BYTE   W96
//  #11 //028   ----------------------------------------
 BYTE   W96
//  #11 //029   ----------------------------------------
 BYTE   GoTo
  POIN2 Label_01661225
 BYTE   FINE

//**************** Track 12 (Midi-Chn.11) ****************//

ApolloJusticeAceAttorneyTroupeGramarye_012:
//  #12 //000   ----------------------------------------
 BYTE   KEYSH   ApolloJusticeAceAttorneyTroupeGramarye_key+0
 BYTE   VOICE   10
 BYTE   MODT 0
 BYTE   LFOS 44
 BYTE   VOL   13*ApolloJusticeAceAttorneyTroupeGramarye_mvl/mxv
 BYTE   PAN   c_v-1
 BYTE   BEND   c_v+3
 BYTE   W96
//  #12 //001   ----------------------------------------
 BYTE   W96
//  #12 //002   ----------------------------------------
 BYTE   W96
//  #12 //003   ----------------------------------------
Label_016615B1:
 BYTE   W96
//  #12 //004   ----------------------------------------
 BYTE   W96
//  #12 //005   ----------------------------------------
 BYTE   W96
//  #12 //006   ----------------------------------------
 BYTE   W96
//  #12 //007   ----------------------------------------
 BYTE   W96
//  #12 //008   ----------------------------------------
 BYTE   W96
//  #12 //009   ----------------------------------------
 BYTE   W96
//  #12 //010   ----------------------------------------
 BYTE   W96
//  #12 //011   ----------------------------------------
 BYTE   W96
//  #12 //012   ----------------------------------------
 BYTE   W96
//  #12 //013   ----------------------------------------
 BYTE   W96
//  #12 //014   ----------------------------------------
 BYTE   W96
//  #12 //015   ----------------------------------------
 BYTE   W96
//  #12 //016   ----------------------------------------
 BYTE   W96
//  #12 //017   ----------------------------------------
 BYTE   W96
//  #12 //018   ----------------------------------------
 BYTE   W96
//  #12 //019   ----------------------------------------
 BYTE   W18
 BYTE   N12  An3  v092
 BYTE   W12
 BYTE   N07  Bn3
 BYTE   W12
 BYTE   N12  An3
 BYTE   W12
 BYTE   N07  Bn3
 BYTE   W12
 BYTE   N12  An3
 BYTE   W12
 BYTE   N06  Bn3
 BYTE   W06
 BYTE   N18  An3
 BYTE   W12
//  #12 //020   ----------------------------------------
 BYTE   W06
 BYTE   N12  Gn3
 BYTE   W12
 BYTE   Fs3
 BYTE   W12
 BYTE   N07  Gn3
 BYTE   W12
 BYTE   N12  Fs3
 BYTE   W12
 BYTE   N07  Gn3
 BYTE   W12
 BYTE   N12  Fs3
 BYTE   W12
 BYTE   N06  Gn3
 BYTE   W06
 BYTE   N18  An3
 BYTE   W12
//  #12 //021   ----------------------------------------
 BYTE   W06
 BYTE   N12  Bn3
 BYTE   W12
 BYTE   N12
 BYTE   W12
 BYTE   N07  Cn4
 BYTE   W12
 BYTE   N12  Bn3
 BYTE   W12
 BYTE   N07  Cn4
 BYTE   W12
 BYTE   N12  Bn3
 BYTE   W12
 BYTE   N06  Cn4
 BYTE   W06
 BYTE   N18  Dn4
 BYTE   W12
//  #12 //022   ----------------------------------------
 BYTE   W06
 BYTE   N12  Cn4
 BYTE   W12
 BYTE   N30  Bn3
 BYTE   W30
 BYTE   N06  An3
 BYTE   W06
 BYTE   Gn3
 BYTE   W06
 BYTE   An3
 BYTE   W06
 BYTE   N42  Bn3
 BYTE   W30
//  #12 //023   ----------------------------------------
 BYTE   W18
 BYTE   N36  Ds4
 BYTE   W36
 BYTE   N06  Fn4
 BYTE   W06
 BYTE   Ds4
 BYTE   W06
 BYTE   N12  Dn4
 BYTE   W12
 BYTE   N07  Cn4
 BYTE   W12
 BYTE   N12  As3
 BYTE   W06
//  #12 //024   ----------------------------------------
 BYTE   W06
 BYTE   An3
 BYTE   W12
 BYTE   N36  Dn4
 BYTE   W36
 BYTE   N06  Ds4
 BYTE   W06
 BYTE   Dn4
 BYTE   W06
 BYTE   N12  Cn4
 BYTE   W12
 BYTE   N07  As3
 BYTE   W12
 BYTE   N12  An3
 BYTE   W06
//  #12 //025   ----------------------------------------
 BYTE   W06
 BYTE   Gn3
 BYTE   W12
 BYTE   N30  Cn4
 BYTE   W36
 BYTE   N06
 BYTE   W12
 BYTE   N30
 BYTE   W30
//  #12 //026   ----------------------------------------
 BYTE   W06
 BYTE   N06
 BYTE   W12
 BYTE   N30  Dn4
 BYTE   W78
//  #12 //027   ----------------------------------------
 BYTE   W96
//  #12 //028   ----------------------------------------
 BYTE   W96
//  #12 //029   ----------------------------------------
 BYTE   GoTo
  POIN2 Label_016615B1
 BYTE   FINE

//**************** Track 13 (Midi-Chn.12) ****************//

ApolloJusticeAceAttorneyTroupeGramarye_013:
//  #13 //000   ----------------------------------------
 BYTE   KEYSH   ApolloJusticeAceAttorneyTroupeGramarye_key+0
 BYTE   VOICE   24
 BYTE   MODT 0
 BYTE   LFOS 44
 BYTE   PAN   c_v+3
 BYTE   VOL   17*ApolloJusticeAceAttorneyTroupeGramarye_mvl/mxv
 BYTE   BEND   c_v+3
 BYTE   W96
//  #13 //001   ----------------------------------------
 BYTE   W96
//  #13 //002   ----------------------------------------
 BYTE   W96
//  #13 //003   ----------------------------------------
Label_01661669:
 BYTE   W90
 BYTE   N06  Cs5  v104
 BYTE   W06
//  #13 //004   ----------------------------------------
 BYTE   W90
 BYTE   N06
 BYTE   W06
//  #13 //005   ----------------------------------------
 BYTE   W96
//  #13 //006   ----------------------------------------
Label_01661672:
 BYTE   W78
 BYTE   N06  En5  v104
 BYTE   W12
 BYTE   N06
 BYTE   W06
 BYTE   PEND 
//  #13 //007   ----------------------------------------
 BYTE   W90
 BYTE   Cs5
 BYTE   W06
//  #13 //008   ----------------------------------------
 BYTE   W90
 BYTE   N06
 BYTE   W06
//  #13 //009   ----------------------------------------
 BYTE   W96
//  #13 //010   ----------------------------------------
 BYTE   W18
 BYTE   N05  En5
 BYTE   W12
 BYTE   N05
 BYTE   W12
 BYTE   N05
 BYTE   W12
 BYTE   N15
 BYTE   W18
 BYTE   N15
 BYTE   W24
//  #13 //011   ----------------------------------------
 BYTE   W90
 BYTE   N06  Cs5
 BYTE   W06
//  #13 //012   ----------------------------------------
 BYTE   W90
 BYTE   N06
 BYTE   W06
//  #13 //013   ----------------------------------------
 BYTE   W96
//  #13 //014   ----------------------------------------
 BYTE   PATT
  POIN2 Label_01661672
//  #13 //015   ----------------------------------------
 BYTE   W90
 BYTE   N06  Cs5  v104
 BYTE   W06
//  #13 //016   ----------------------------------------
 BYTE   W90
 BYTE   N06
 BYTE   W06
//  #13 //017   ----------------------------------------
 BYTE   W96
//  #13 //018   ----------------------------------------
 BYTE   W06
 BYTE   N05
 BYTE   W12
 BYTE   N05
 BYTE   W12
 BYTE   N05
 BYTE   W12
 BYTE   N05
 BYTE   W12
 BYTE   N15
 BYTE   W18
 BYTE   N15
 BYTE   W18
 BYTE   N06
 BYTE   W06
//  #13 //019   ----------------------------------------
 BYTE   W96
//  #13 //020   ----------------------------------------
 BYTE   W96
//  #13 //021   ----------------------------------------
 BYTE   W96
//  #13 //022   ----------------------------------------
 BYTE   W96
//  #13 //023   ----------------------------------------
 BYTE   W96
//  #13 //024   ----------------------------------------
 BYTE   W96
//  #13 //025   ----------------------------------------
 BYTE   W96
//  #13 //026   ----------------------------------------
 BYTE   W96
//  #13 //027   ----------------------------------------
 BYTE   W96
//  #13 //028   ----------------------------------------
 BYTE   W96
//  #13 //029   ----------------------------------------
 BYTE   GoTo
  POIN2 Label_01661669
 BYTE   FINE

//******************************************************//
	ALIGN 4

ApolloJusticeAceAttorneyTroupeGramarye:
	BYTE	13	// NumTrks
	BYTE	0	// NumBlks
	BYTE	ApolloJusticeAceAttorneyTroupeGramarye_pri	// Priority
	BYTE	ApolloJusticeAceAttorneyTroupeGramarye_rev	// Reverb.
    
	POIN2	ApolloJusticeAceAttorneyTroupeGramarye_grp
    
	POIN2	ApolloJusticeAceAttorneyTroupeGramarye_001
	POIN2	ApolloJusticeAceAttorneyTroupeGramarye_002
	POIN2	ApolloJusticeAceAttorneyTroupeGramarye_003
	POIN2	ApolloJusticeAceAttorneyTroupeGramarye_004
	POIN2	ApolloJusticeAceAttorneyTroupeGramarye_005
	POIN2	ApolloJusticeAceAttorneyTroupeGramarye_006
	POIN2	ApolloJusticeAceAttorneyTroupeGramarye_007
	POIN2	ApolloJusticeAceAttorneyTroupeGramarye_008
	POIN2	ApolloJusticeAceAttorneyTroupeGramarye_009
	POIN2	ApolloJusticeAceAttorneyTroupeGramarye_010
	POIN2	ApolloJusticeAceAttorneyTroupeGramarye_011
	POIN2	ApolloJusticeAceAttorneyTroupeGramarye_012
	POIN2	ApolloJusticeAceAttorneyTroupeGramarye_013

	
