//Event file generated from Sappy .s format.
	#include "MPlayDef.event"

	#define	PhoenixWrightTrialsandTribulationsSceneryatDuskyBridge_grp  voicegroup000
	#define	PhoenixWrightTrialsandTribulationsSceneryatDuskyBridge_pri  0
	#define	PhoenixWrightTrialsandTribulationsSceneryatDuskyBridge_rev  0
	#define	PhoenixWrightTrialsandTribulationsSceneryatDuskyBridge_mvl  127
	#define	PhoenixWrightTrialsandTribulationsSceneryatDuskyBridge_key  0
	#define	PhoenixWrightTrialsandTribulationsSceneryatDuskyBridge_tbs  1
	#define	PhoenixWrightTrialsandTribulationsSceneryatDuskyBridge_exg  0
	#define	PhoenixWrightTrialsandTribulationsSceneryatDuskyBridge_cmp  1

	// .rodata
	//	PhoenixWrightTrialsandTribulationsSceneryatDuskyBridge
	ALIGN 4


//**************** Track 1 (Midi-Chn.0) ****************//

PhoenixWrightTrialsandTribulationsSceneryatDuskyBridge_001:
//  #01 //000   ----------------------------------------
 BYTE   KEYSH   PhoenixWrightTrialsandTribulationsSceneryatDuskyBridge_key+0
Label_0168C93E:
 BYTE   TEMPO   48*PhoenixWrightTrialsandTribulationsSceneryatDuskyBridge_tbs/2
 BYTE   VOICE   48
 BYTE   MODT 0
 BYTE   LFOS 44
 BYTE   VOL   27*PhoenixWrightTrialsandTribulationsSceneryatDuskyBridge_mvl/mxv
 BYTE   PAN   c_v+0
 BYTE   MOD 0
 BYTE   N15  Gn3  v088
 BYTE   W16
 BYTE   N07  Gs3
 BYTE   W08
 BYTE   N56  Gn3
 BYTE   W72
//  #01 //001   ----------------------------------------
 BYTE   N15
 BYTE   W16
 BYTE   N07  Gs3
 BYTE   W08
 BYTE   N56  Gn3
 BYTE   W72
//  #01 //002   ----------------------------------------
 BYTE   N15
 BYTE   W16
 BYTE   N07  Cn4
 BYTE   W08
 BYTE   N23  Gn3
 BYTE   W32
 BYTE   N07
 BYTE   W08
 BYTE   N07
 BYTE   W08
 BYTE   N07
 BYTE   W08
 BYTE   Fn3
 BYTE   W08
 BYTE   Ds3
 BYTE   W08
//  #01 //003   ----------------------------------------
 BYTE   N56  Fn3
 BYTE   W72
 BYTE   N07  As2
 BYTE   W08
 BYTE   Cn3
 BYTE   W08
 BYTE   Dn3
 BYTE   W08
//  #01 //004   ----------------------------------------
 BYTE   N23  Ds3
 BYTE   W24
 BYTE   N07
 BYTE   W08
 BYTE   Fn3
 BYTE   W08
 BYTE   Gn3
 BYTE   W08
 BYTE   N23  Dn3
 BYTE   W24
 BYTE   As2
 BYTE   W24
//  #01 //005   ----------------------------------------
 BYTE   W08
 BYTE   N07  As3
 BYTE   W08
 BYTE   Gs3
 BYTE   W08
 BYTE   Gn3
 BYTE   W08
 BYTE   Fn3
 BYTE   W08
 BYTE   Ds3
 BYTE   W08
 BYTE   N23
 BYTE   W24
 BYTE   Dn3
 BYTE   W24
//  #01 //006   ----------------------------------------
 BYTE   N07  Gn4  v072
 BYTE   W08
 BYTE   Gn4  v020
 BYTE   W08
 BYTE   Gs4  v072
 BYTE   W08
 BYTE   Gn4
 BYTE   W08
 BYTE   N15  Gn4  v020
 BYTE   W24
 BYTE   N07  Gn3  v088
 BYTE   W08
 BYTE   Cn4  v072
 BYTE   W08
 BYTE   Dn4
 BYTE   W08
 BYTE   Ds4
 BYTE   W08
 BYTE   Fn4
 BYTE   W08
//  #01 //007   ----------------------------------------
 BYTE   Gn4
 BYTE   W08
 BYTE   Gn4  v020
 BYTE   W08
 BYTE   Gs4  v072
 BYTE   W08
 BYTE   Gn4
 BYTE   W08
 BYTE   N36  Gn4  v020
 BYTE   W64
//  #01 //008   ----------------------------------------
 BYTE   N07  Gn4  v072
 BYTE   W08
 BYTE   Gn4  v020
 BYTE   W08
 BYTE   Cn5  v072
 BYTE   W08
 BYTE   Gn4
 BYTE   W08
 BYTE   N15  Gn4  v020
 BYTE   W24
 BYTE   N07  As4  v072
 BYTE   W08
 BYTE   Gs4
 BYTE   W08
 BYTE   Gn4
 BYTE   W08
 BYTE   Fn4
 BYTE   W08
 BYTE   Ds4
 BYTE   W08
//  #01 //009   ----------------------------------------
 BYTE   Fn4
 BYTE   W08
 BYTE   N15  Fn4  v020
 BYTE   W16
 BYTE   N07  As2  v088
 BYTE   W08
 BYTE   Dn3
 BYTE   W08
 BYTE   Fn3
 BYTE   W08
 BYTE   Gn3
 BYTE   W08
 BYTE   As3
 BYTE   W08
 BYTE   Cn4  v072
 BYTE   W08
 BYTE   Dn4
 BYTE   W08
 BYTE   Ds4
 BYTE   W08
 BYTE   Fn4
 BYTE   W08
//  #01 //010   ----------------------------------------
 BYTE   N07
 BYTE   W08
 BYTE   Fn4  v020
 BYTE   W08
 BYTE   Fn4  v072
 BYTE   W08
 BYTE   Fn4  v020
 BYTE   W08
 BYTE   Ds4  v072
 BYTE   W08
 BYTE   Fn4
 BYTE   W08
 BYTE   Gs4
 BYTE   W08
 BYTE   Gs4  v020
 BYTE   W08
 BYTE   Ds4  v072
 BYTE   W08
 BYTE   N15  Ds4  v020
 BYTE   W16
 BYTE   N07  Cn4  v072
 BYTE   W08
//  #01 //011   ----------------------------------------
 BYTE   Cs4
 BYTE   W08
 BYTE   Cn4
 BYTE   W08
 BYTE   Cs4
 BYTE   W08
 BYTE   Cs4  v020
 BYTE   W08
 BYTE   Ds4  v072
 BYTE   W08
 BYTE   Fn4
 BYTE   W08
 BYTE   Fs4
 BYTE   W08
 BYTE   N36  Fs4  v020
 BYTE   W40
//  #01 //012   ----------------------------------------
Label_0168CA2E:
 BYTE   W16
 BYTE   N07  Cn4  v072
 BYTE   W08
 BYTE   Cs4
 BYTE   W08
 BYTE   Ds4
 BYTE   W08
 BYTE   Fn4
 BYTE   W08
 BYTE   Ds4
 BYTE   W08
 BYTE   N36  Ds4  v020
 BYTE   W40
 BYTE   PEND 
//  #01 //013   ----------------------------------------
Label_0168CA40:
 BYTE   W16
 BYTE   N07  As3  v088
 BYTE   W08
 BYTE   Cn4  v072
 BYTE   W08
 BYTE   Cs4
 BYTE   W08
 BYTE   Fn4
 BYTE   W08
 BYTE   Ds4
 BYTE   W08
 BYTE   N15  Ds4  v020
 BYTE   W16
 BYTE   N07  Cn4  v072
 BYTE   W08
 BYTE   N15  Cn4  v020
 BYTE   W16
 BYTE   PEND 
//  #01 //014   ----------------------------------------
 BYTE   PATT
  POIN2 Label_0168CA2E
//  #01 //015   ----------------------------------------
 BYTE   PATT
  POIN2 Label_0168CA40
//  #01 //016   ----------------------------------------
 BYTE   N07  Dn4  v072
 BYTE   W08
 BYTE   N84  Dn4  v020
 BYTE   W88
//  #01 //017   ----------------------------------------
 BYTE   W96
//  #01 //018   ----------------------------------------
 BYTE   W96
//  #01 //019   ----------------------------------------
Label_0168CA6F:
 BYTE   W40
 BYTE   N03  As4  v052
 BYTE   W08
 BYTE   As3
 BYTE   W48
 BYTE   PEND 
//  #01 //020   ----------------------------------------
 BYTE   PATT
  POIN2 Label_0168CA6F
//  #01 //021   ----------------------------------------
 BYTE   W24
 BYTE   N01  Dn4  v072
 BYTE   W02
 BYTE   N02  Ds4
 BYTE   W03
 BYTE   N06  Dn4
 BYTE   W07
 BYTE   N56  Dn4  v052
 BYTE   W60
//  #01 //022   ----------------------------------------
 BYTE   GoTo
  POIN2 Label_0168C93E
 BYTE   FINE

//**************** Track 2 (Midi-Chn.1) ****************//

PhoenixWrightTrialsandTribulationsSceneryatDuskyBridge_002:
//  #02 //000   ----------------------------------------
 BYTE   KEYSH   PhoenixWrightTrialsandTribulationsSceneryatDuskyBridge_key+0
Label_0168CA96:
 BYTE   VOICE   41
 BYTE   MODT 0
 BYTE   LFOS 44
 BYTE   VOL   11*PhoenixWrightTrialsandTribulationsSceneryatDuskyBridge_mvl/mxv
 BYTE   PAN   c_v-32
 BYTE   MOD 0
 BYTE   W08
 BYTE   N15  Gn3  v088
 BYTE   W16
 BYTE   N07  Gs3
 BYTE   W08
 BYTE   N56  Gn3
 BYTE   W64
//  #02 //001   ----------------------------------------
 BYTE   W08
 BYTE   N15
 BYTE   W16
 BYTE   N07  Gs3
 BYTE   W08
 BYTE   N56  Gn3
 BYTE   W64
//  #02 //002   ----------------------------------------
 BYTE   W08
 BYTE   N15
 BYTE   W16
 BYTE   N07  Cn4  v072
 BYTE   W08
 BYTE   N23  Gn3  v088
 BYTE   W32
 BYTE   N07
 BYTE   W08
 BYTE   N07
 BYTE   W08
 BYTE   N07
 BYTE   W08
 BYTE   Fn3
 BYTE   W08
//  #02 //003   ----------------------------------------
 BYTE   Ds3
 BYTE   W08
 BYTE   N56  Fn3
 BYTE   W72
 BYTE   N07  As2
 BYTE   W08
 BYTE   Cn3
 BYTE   W08
//  #02 //004   ----------------------------------------
 BYTE   Dn3
 BYTE   W08
 BYTE   N23  Ds3
 BYTE   W24
 BYTE   N07
 BYTE   W08
 BYTE   Fn3
 BYTE   W08
 BYTE   Gn3
 BYTE   W08
 BYTE   N23  Dn3
 BYTE   W24
 BYTE   As2
 BYTE   W16
//  #02 //005   ----------------------------------------
 BYTE   W16
 BYTE   N07  As3
 BYTE   W08
 BYTE   Gs3
 BYTE   W08
 BYTE   Gn3
 BYTE   W08
 BYTE   Fn3
 BYTE   W08
 BYTE   Ds3
 BYTE   W08
 BYTE   N23
 BYTE   W24
 BYTE   Dn3
 BYTE   W16
//  #02 //006   ----------------------------------------
 BYTE   W08
 BYTE   N07  Gn4  v072
 BYTE   W08
 BYTE   Gn4  v052
 BYTE   W08
 BYTE   Gs4  v072
 BYTE   W08
 BYTE   Gn4
 BYTE   W08
 BYTE   N15  Gn4  v052
 BYTE   W24
 BYTE   N07  Gn3  v088
 BYTE   W08
 BYTE   Cn4  v072
 BYTE   W08
 BYTE   Dn4
 BYTE   W08
 BYTE   Ds4
 BYTE   W08
//  #02 //007   ----------------------------------------
 BYTE   Fn4
 BYTE   W08
 BYTE   Gn4
 BYTE   W08
 BYTE   Gn4  v052
 BYTE   W08
 BYTE   Gs4  v072
 BYTE   W08
 BYTE   Gn4
 BYTE   W08
 BYTE   N36  Gn4  v052
 BYTE   W56
//  #02 //008   ----------------------------------------
 BYTE   W08
 BYTE   N07  Gn4  v072
 BYTE   W08
 BYTE   Gn4  v052
 BYTE   W08
 BYTE   Cn5  v072
 BYTE   W08
 BYTE   Gn4
 BYTE   W08
 BYTE   N15  Gn4  v052
 BYTE   W24
 BYTE   N07  As4  v072
 BYTE   W08
 BYTE   Gs4
 BYTE   W08
 BYTE   Gn4
 BYTE   W08
 BYTE   Fn4
 BYTE   W08
//  #02 //009   ----------------------------------------
 BYTE   Ds4
 BYTE   W08
 BYTE   Fn4
 BYTE   W08
 BYTE   N15  Fn4  v052
 BYTE   W16
 BYTE   N07  As2  v088
 BYTE   W08
 BYTE   Dn3
 BYTE   W08
 BYTE   Fn3
 BYTE   W08
 BYTE   Gn3
 BYTE   W08
 BYTE   As3
 BYTE   W08
 BYTE   Cn4  v072
 BYTE   W08
 BYTE   Dn4
 BYTE   W08
 BYTE   Ds4
 BYTE   W08
//  #02 //010   ----------------------------------------
 BYTE   Fn4
 BYTE   W08
 BYTE   N07
 BYTE   W08
 BYTE   Fn4  v052
 BYTE   W08
 BYTE   Fn4  v072
 BYTE   W08
 BYTE   Fn4  v052
 BYTE   W08
 BYTE   Ds4  v072
 BYTE   W08
 BYTE   Fn4
 BYTE   W08
 BYTE   Gs4
 BYTE   W08
 BYTE   Gs4  v052
 BYTE   W08
 BYTE   Ds4  v072
 BYTE   W08
 BYTE   N15  Ds4  v052
 BYTE   W16
//  #02 //011   ----------------------------------------
 BYTE   N07  Cn4  v072
 BYTE   W08
 BYTE   Cs4
 BYTE   W08
 BYTE   Cn4
 BYTE   W08
 BYTE   Cs4
 BYTE   W08
 BYTE   Cs4  v052
 BYTE   W08
 BYTE   Ds4  v072
 BYTE   W08
 BYTE   Fn4
 BYTE   W08
 BYTE   Fs4
 BYTE   W08
 BYTE   N36  Fs4  v052
 BYTE   W32
//  #02 //012   ----------------------------------------
Label_0168CB8B:
 BYTE   W24
 BYTE   N07  Cn4  v072
 BYTE   W08
 BYTE   Cs4
 BYTE   W08
 BYTE   Ds4
 BYTE   W08
 BYTE   Fn4
 BYTE   W08
 BYTE   Ds4
 BYTE   W08
 BYTE   N36  Ds4  v052
 BYTE   W32
 BYTE   PEND 
//  #02 //013   ----------------------------------------
Label_0168CB9D:
 BYTE   W24
 BYTE   N07  As3  v088
 BYTE   W08
 BYTE   Cn4  v072
 BYTE   W08
 BYTE   Cs4
 BYTE   W08
 BYTE   Fn4
 BYTE   W08
 BYTE   Ds4
 BYTE   W08
 BYTE   N15  Ds4  v052
 BYTE   W16
 BYTE   N07  Cn4  v072
 BYTE   W08
 BYTE   N15  Cn4  v052
 BYTE   W08
 BYTE   PEND 
//  #02 //014   ----------------------------------------
 BYTE   PATT
  POIN2 Label_0168CB8B
//  #02 //015   ----------------------------------------
 BYTE   PATT
  POIN2 Label_0168CB9D
//  #02 //016   ----------------------------------------
 BYTE   W08
 BYTE   N07  Dn4  v072
 BYTE   W08
 BYTE   N84  Dn4  v052
 BYTE   W80
//  #02 //017   ----------------------------------------
 BYTE   W96
//  #02 //018   ----------------------------------------
 BYTE   W96
//  #02 //019   ----------------------------------------
Label_0168CBCD:
 BYTE   W48
 BYTE   N03  As4  v052
 BYTE   W08
 BYTE   As3
 BYTE   W40
 BYTE   PEND 
//  #02 //020   ----------------------------------------
 BYTE   PATT
  POIN2 Label_0168CBCD
//  #02 //021   ----------------------------------------
 BYTE   W32
 BYTE   N01  Dn4  v072
 BYTE   W02
 BYTE   N02  Ds4
 BYTE   W03
 BYTE   N06  Dn4
 BYTE   W07
 BYTE   N48  Dn4  v052
 BYTE   W52
//  #02 //022   ----------------------------------------
 BYTE   GoTo
  POIN2 Label_0168CA96
 BYTE   FINE

//**************** Track 3 (Midi-Chn.2) ****************//

PhoenixWrightTrialsandTribulationsSceneryatDuskyBridge_003:
//  #03 //000   ----------------------------------------
 BYTE   KEYSH   PhoenixWrightTrialsandTribulationsSceneryatDuskyBridge_key+0
Label_0168CBF2:
 BYTE   VOICE   88
 BYTE   MODT 0
 BYTE   LFOS 44
 BYTE   VOL   45*PhoenixWrightTrialsandTribulationsSceneryatDuskyBridge_mvl/mxv
 BYTE   PAN   c_v+0
 BYTE   MOD 0
 BYTE   W56
 BYTE   N03  Gn3  v052
 BYTE   W08
 BYTE   Fn3
 BYTE   W08
 BYTE   Ds3  v080
 BYTE   W08
 BYTE   Dn3
 BYTE   W08
 BYTE   Cn3
 BYTE   W08
//  #03 //001   ----------------------------------------
Label_0168CC0C:
 BYTE   N03  Gn2  v096
 BYTE   W08
 BYTE   Gn2  v036
 BYTE   W08
 BYTE   Gn2  v028
 BYTE   W08
 BYTE   Gn2  v020
 BYTE   W08
 BYTE   Gn2  v012
 BYTE   W08
 BYTE   Gn2  v008
 BYTE   W16
 BYTE   Gn3  v052
 BYTE   W08
 BYTE   Fn3
 BYTE   W08
 BYTE   Ds3  v080
 BYTE   W08
 BYTE   Dn3
 BYTE   W08
 BYTE   As2
 BYTE   W08
 BYTE   PEND 
//  #03 //002   ----------------------------------------
 BYTE   Gn2  v096
 BYTE   W08
 BYTE   Gn2  v036
 BYTE   W08
 BYTE   Gn2  v028
 BYTE   W08
 BYTE   Gn2  v020
 BYTE   W08
 BYTE   Gn2  v012
 BYTE   W08
 BYTE   Gn2  v008
 BYTE   W16
 BYTE   Ds3  v080
 BYTE   W08
 BYTE   Dn3
 BYTE   W08
 BYTE   Cn3
 BYTE   W08
 BYTE   As2
 BYTE   W08
 BYTE   Gn2  v096
 BYTE   W08
//  #03 //003   ----------------------------------------
Label_0168CC4A:
 BYTE   N03  Dn2  v096
 BYTE   W08
 BYTE   Dn2  v036
 BYTE   W08
 BYTE   Dn2  v028
 BYTE   W08
 BYTE   Dn2  v020
 BYTE   W08
 BYTE   Dn2  v012
 BYTE   W08
 BYTE   Dn2  v008
 BYTE   W08
 BYTE   N03
 BYTE   W08
 BYTE   Dn3  v080
 BYTE   W08
 BYTE   As2
 BYTE   W08
 BYTE   Gn2  v096
 BYTE   W08
 BYTE   Dn2
 BYTE   W08
 BYTE   As1
 BYTE   W08
 BYTE   PEND 
//  #03 //004   ----------------------------------------
 BYTE   Cn2
 BYTE   W08
 BYTE   Cn2  v028
 BYTE   W08
 BYTE   Cn2  v024
 BYTE   W08
 BYTE   Cn2  v016
 BYTE   W08
 BYTE   Cn2  v012
 BYTE   W08
 BYTE   Cn2  v008
 BYTE   W08
 BYTE   Dn2  v096
 BYTE   W08
 BYTE   Dn2  v028
 BYTE   W08
 BYTE   Dn2  v024
 BYTE   W08
 BYTE   Dn2  v016
 BYTE   W08
 BYTE   Dn2  v012
 BYTE   W08
 BYTE   Dn2  v008
 BYTE   W08
//  #03 //005   ----------------------------------------
 BYTE   Ds2  v096
 BYTE   W08
 BYTE   Ds2  v028
 BYTE   W08
 BYTE   Ds2  v024
 BYTE   W08
 BYTE   Ds2  v016
 BYTE   W08
 BYTE   Ds2  v012
 BYTE   W08
 BYTE   Ds2  v008
 BYTE   W56
//  #03 //006   ----------------------------------------
 BYTE   W56
 BYTE   Gn3  v052
 BYTE   W08
 BYTE   Fn3
 BYTE   W08
 BYTE   Ds3  v080
 BYTE   W08
 BYTE   Dn3
 BYTE   W08
 BYTE   Cn3
 BYTE   W08
//  #03 //007   ----------------------------------------
 BYTE   PATT
  POIN2 Label_0168CC0C
//  #03 //008   ----------------------------------------
 BYTE   N03  Gn2  v096
 BYTE   W08
 BYTE   Gn2  v036
 BYTE   W08
 BYTE   Gn2  v028
 BYTE   W08
 BYTE   Gn2  v020
 BYTE   W08
 BYTE   Gn2  v012
 BYTE   W08
 BYTE   Gn2  v008
 BYTE   W16
 BYTE   Cn2  v096
 BYTE   W08
 BYTE   Dn2
 BYTE   W08
 BYTE   Ds2
 BYTE   W08
 BYTE   Fn2
 BYTE   W08
 BYTE   Gn2
 BYTE   W08
//  #03 //009   ----------------------------------------
 BYTE   PATT
  POIN2 Label_0168CC4A
//  #03 //010   ----------------------------------------
 BYTE   N07  Cs3  v068
 BYTE   W16
 BYTE   N11
 BYTE   W32
 BYTE   N07  Cn3
 BYTE   W16
 BYTE   N11
 BYTE   W32
//  #03 //011   ----------------------------------------
 BYTE   N07  As2
 BYTE   W16
 BYTE   N11
 BYTE   W32
 BYTE   N03  Cs3  v056
 BYTE   W08
 BYTE   Cs3  v028
 BYTE   W08
 BYTE   Cs3  v024
 BYTE   W08
 BYTE   Cs3  v016
 BYTE   W08
 BYTE   Cs3  v012
 BYTE   W08
 BYTE   Cs3  v008
 BYTE   W08
//  #03 //012   ----------------------------------------
 BYTE   W96
//  #03 //013   ----------------------------------------
 BYTE   W96
//  #03 //014   ----------------------------------------
 BYTE   W96
//  #03 //015   ----------------------------------------
 BYTE   W96
//  #03 //016   ----------------------------------------
 BYTE   W08
 BYTE   En2  v036
 BYTE   W08
 BYTE   Gn2  v040
 BYTE   W08
 BYTE   Dn3  v036
 BYTE   W08
 BYTE   En2  v048
 BYTE   W08
 BYTE   Gn2
 BYTE   W08
 BYTE   Dn3
 BYTE   W08
 BYTE   En2  v056
 BYTE   W08
 BYTE   Gn2  v060
 BYTE   W08
 BYTE   Dn3  v056
 BYTE   W08
 BYTE   En2  v068
 BYTE   W08
 BYTE   Gn2  v072
 BYTE   W08
//  #03 //017   ----------------------------------------
 BYTE   Dn3  v068
 BYTE   W08
 BYTE   En2  v072
 BYTE   W08
 BYTE   Gn2  v068
 BYTE   W08
 BYTE   Dn3  v056
 BYTE   W08
 BYTE   En2  v060
 BYTE   W08
 BYTE   Gn2  v056
 BYTE   W08
 BYTE   Dn3  v048
 BYTE   W08
 BYTE   En2
 BYTE   W08
 BYTE   Gn2
 BYTE   W08
 BYTE   Dn3  v036
 BYTE   W08
 BYTE   En2  v040
 BYTE   W08
 BYTE   Gn2  v036
 BYTE   W08
//  #03 //018   ----------------------------------------
 BYTE   Dn3  v028
 BYTE   W08
 BYTE   En2  v036
 BYTE   W08
 BYTE   Gn2
 BYTE   W08
 BYTE   Dn3
 BYTE   W08
 BYTE   En2  v044
 BYTE   W08
 BYTE   Gn2  v048
 BYTE   W08
 BYTE   Dn3  v044
 BYTE   W08
 BYTE   En2  v056
 BYTE   W08
 BYTE   Gn2  v060
 BYTE   W08
 BYTE   Dn3  v056
 BYTE   W08
 BYTE   En2  v068
 BYTE   W08
 BYTE   Gn2  v072
 BYTE   W08
//  #03 //019   ----------------------------------------
 BYTE   Dn3  v068
 BYTE   W08
 BYTE   En2  v072
 BYTE   W08
 BYTE   Gn2  v068
 BYTE   W08
 BYTE   Dn3  v056
 BYTE   W08
 BYTE   En2  v060
 BYTE   W08
 BYTE   Gn2  v056
 BYTE   W08
 BYTE   Dn3  v044
 BYTE   W08
 BYTE   En2  v048
 BYTE   W08
 BYTE   Gn2  v044
 BYTE   W08
 BYTE   Dn3  v036
 BYTE   W08
 BYTE   En2
 BYTE   W08
 BYTE   Gn2  v032
 BYTE   W08
//  #03 //020   ----------------------------------------
 BYTE   Dn3  v028
 BYTE   W08
 BYTE   En2  v032
 BYTE   W08
 BYTE   Gn2  v036
 BYTE   W08
 BYTE   Dn3
 BYTE   W08
 BYTE   En2  v044
 BYTE   W08
 BYTE   Gn2  v048
 BYTE   W08
 BYTE   Dn3  v044
 BYTE   W08
 BYTE   En2  v056
 BYTE   W08
 BYTE   Gn2  v060
 BYTE   W08
 BYTE   Dn3  v056
 BYTE   W08
 BYTE   En2  v068
 BYTE   W08
 BYTE   Gn2  v072
 BYTE   W08
//  #03 //021   ----------------------------------------
 BYTE   W96
//  #03 //022   ----------------------------------------
 BYTE   GoTo
  POIN2 Label_0168CBF2
 BYTE   FINE

//**************** Track 4 (Midi-Chn.3) ****************//

PhoenixWrightTrialsandTribulationsSceneryatDuskyBridge_004:
//  #04 //000   ----------------------------------------
 BYTE   KEYSH   PhoenixWrightTrialsandTribulationsSceneryatDuskyBridge_key+0
Label_0168CDB2:
 BYTE   VOICE   1
 BYTE   MODT 0
 BYTE   LFOS 44
 BYTE   VOL   20*PhoenixWrightTrialsandTribulationsSceneryatDuskyBridge_mvl/mxv
 BYTE   PAN   c_v-10
 BYTE   MOD 0
 BYTE   W16
 BYTE   N15  Ds3  v100
 BYTE   W16
 BYTE   N15
 BYTE   W32
 BYTE   N15
 BYTE   W16
 BYTE   N15
 BYTE   W16
//  #04 //001   ----------------------------------------
Label_0168CDC9:
 BYTE   N09  Dn3  v100
 BYTE   W16
 BYTE   N15
 BYTE   W16
 BYTE   N15
 BYTE   W32
 BYTE   N15
 BYTE   W16
 BYTE   N15
 BYTE   W16
 BYTE   PEND 
//  #04 //002   ----------------------------------------
Label_0168CDD6:
 BYTE   W16
 BYTE   N15  Gs2  v124
 BYTE   W16
 BYTE   Cn3
 BYTE   W32
 BYTE   Gs2
 BYTE   W16
 BYTE   Cn3
 BYTE   W16
 BYTE   PEND 
//  #04 //003   ----------------------------------------
Label_0168CDE2:
 BYTE   W16
 BYTE   N15  Gn2  v124
 BYTE   W16
 BYTE   Gn3  v100
 BYTE   W32
 BYTE   Dn3
 BYTE   W16
 BYTE   N15
 BYTE   W16
 BYTE   PEND 
//  #04 //004   ----------------------------------------
 BYTE   W16
 BYTE   Fn2  v124
 BYTE   W16
 BYTE   Ds3  v100
 BYTE   W32
 BYTE   Gn2  v124
 BYTE   W16
 BYTE   Fn3  v100
 BYTE   W16
//  #04 //005   ----------------------------------------
 BYTE   W16
 BYTE   Fn2  v124
 BYTE   W16
 BYTE   Fn3  v100
 BYTE   W16
 BYTE   N23  Bn2  v124
 BYTE   W24
 BYTE   N23
 BYTE   W24
//  #04 //006   ----------------------------------------
 BYTE   W16
 BYTE   N15  Ds3  v100
 BYTE   W16
 BYTE   N15
 BYTE   W32
 BYTE   N15
 BYTE   W16
 BYTE   N15
 BYTE   W16
//  #04 //007   ----------------------------------------
 BYTE   PATT
  POIN2 Label_0168CDC9
//  #04 //008   ----------------------------------------
 BYTE   PATT
  POIN2 Label_0168CDD6
//  #04 //009   ----------------------------------------
 BYTE   PATT
  POIN2 Label_0168CDE2
//  #04 //010   ----------------------------------------
 BYTE   W16
 BYTE   N30  Fs3  v100
 BYTE   W48
 BYTE   Fn3
 BYTE   W32
//  #04 //011   ----------------------------------------
 BYTE   W16
 BYTE   Ds3
 BYTE   W32
 BYTE   N42  An3
 BYTE   W48
//  #04 //012   ----------------------------------------
Label_0168CE30:
 BYTE   W08
 BYTE   N36  Fn3  v100
 BYTE   W40
 BYTE   N42  Cn4
 BYTE   W48
 BYTE   PEND 
//  #04 //013   ----------------------------------------
Label_0168CE39:
 BYTE   W08
 BYTE   N36  Fn3  v100
 BYTE   W40
 BYTE   N23  Gs3
 BYTE   W24
 BYTE   Ds3
 BYTE   W24
 BYTE   PEND 
//  #04 //014   ----------------------------------------
 BYTE   PATT
  POIN2 Label_0168CE30
//  #04 //015   ----------------------------------------
 BYTE   PATT
  POIN2 Label_0168CE39
//  #04 //016   ----------------------------------------
 BYTE   W96
//  #04 //017   ----------------------------------------
 BYTE   W96
//  #04 //018   ----------------------------------------
 BYTE   W96
//  #04 //019   ----------------------------------------
 BYTE   W96
//  #04 //020   ----------------------------------------
 BYTE   W96
//  #04 //021   ----------------------------------------
 BYTE   N44  Gs3  v100
 BYTE   W48
 BYTE   Gn3
 BYTE   W48
//  #04 //022   ----------------------------------------
 BYTE   GoTo
  POIN2 Label_0168CDB2
 BYTE   FINE

//**************** Track 5 (Midi-Chn.4) ****************//

PhoenixWrightTrialsandTribulationsSceneryatDuskyBridge_005:
//  #05 //000   ----------------------------------------
 BYTE   KEYSH   PhoenixWrightTrialsandTribulationsSceneryatDuskyBridge_key+0
Label_0168CE62:
 BYTE   VOICE   1
 BYTE   MODT 0
 BYTE   LFOS 44
 BYTE   VOL   22*PhoenixWrightTrialsandTribulationsSceneryatDuskyBridge_mvl/mxv
 BYTE   PAN   c_v+10
 BYTE   MOD 0
 BYTE   W08
 BYTE   N15  Cn3  v124
 BYTE   W16
 BYTE   Gn3  v100
 BYTE   W16
 BYTE   N07  Cn3  v124
 BYTE   W16
 BYTE   N15
 BYTE   W16
 BYTE   Gn3  v100
 BYTE   W16
 BYTE   N07  Cn3  v124
 BYTE   W08
//  #05 //001   ----------------------------------------
Label_0168CE83:
 BYTE   W08
 BYTE   N15  As2  v124
 BYTE   W16
 BYTE   Gn3  v100
 BYTE   W16
 BYTE   N07  As2  v124
 BYTE   W16
 BYTE   N15
 BYTE   W16
 BYTE   Gn3  v100
 BYTE   W16
 BYTE   N07  As2  v124
 BYTE   W08
 BYTE   PEND 
//  #05 //002   ----------------------------------------
Label_0168CE99:
 BYTE   W08
 BYTE   N15  Ds2  v124
 BYTE   W16
 BYTE   Ds3  v100
 BYTE   W16
 BYTE   N07  Gs2  v124
 BYTE   W16
 BYTE   N15  Ds2
 BYTE   W16
 BYTE   Ds3  v100
 BYTE   W16
 BYTE   N07  Gs2  v124
 BYTE   W08
 BYTE   PEND 
//  #05 //003   ----------------------------------------
Label_0168CEB0:
 BYTE   W08
 BYTE   N15  Dn2  v124
 BYTE   W16
 BYTE   As3  v100
 BYTE   W16
 BYTE   N07  Dn3
 BYTE   W16
 BYTE   N15  As2  v124
 BYTE   W16
 BYTE   Fn3  v100
 BYTE   W16
 BYTE   N07  As2  v124
 BYTE   W08
 BYTE   PEND 
//  #05 //004   ----------------------------------------
 BYTE   W08
 BYTE   N15  Cn2  v127
 BYTE   W16
 BYTE   Gs3  v100
 BYTE   W16
 BYTE   N07  Cn3  v124
 BYTE   W16
 BYTE   N15  Dn2
 BYTE   W16
 BYTE   As3  v100
 BYTE   W16
 BYTE   N07  Dn3
 BYTE   W08
//  #05 //005   ----------------------------------------
 BYTE   W08
 BYTE   N15  Cn2  v127
 BYTE   W16
 BYTE   Gs3  v100
 BYTE   W16
 BYTE   N07  Cn3  v124
 BYTE   W08
 BYTE   N23  Fn2
 BYTE   W24
 BYTE   N23
 BYTE   W24
//  #05 //006   ----------------------------------------
 BYTE   W08
 BYTE   N15  Cn3
 BYTE   W16
 BYTE   Gn3  v100
 BYTE   W16
 BYTE   N07  Cn3  v124
 BYTE   W16
 BYTE   N15
 BYTE   W16
 BYTE   Gn3  v100
 BYTE   W16
 BYTE   N07  Cn3  v124
 BYTE   W08
//  #05 //007   ----------------------------------------
 BYTE   PATT
  POIN2 Label_0168CE83
//  #05 //008   ----------------------------------------
 BYTE   PATT
  POIN2 Label_0168CE99
//  #05 //009   ----------------------------------------
 BYTE   PATT
  POIN2 Label_0168CEB0
//  #05 //010   ----------------------------------------
 BYTE   W08
 BYTE   N15  Cs3  v100
 BYTE   W16
 BYTE   N23  As3
 BYTE   W32
 BYTE   N15  Cn3  v124
 BYTE   W16
 BYTE   N23  Gs3  v100
 BYTE   W24
//  #05 //011   ----------------------------------------
 BYTE   W08
 BYTE   N15  As2  v124
 BYTE   W16
 BYTE   N23  Fs3  v100
 BYTE   W24
 BYTE   N42  Cs3
 BYTE   W48
//  #05 //012   ----------------------------------------
Label_0168CF2C:
 BYTE   W08
 BYTE   N36  Cs3  v100
 BYTE   W40
 BYTE   N42  Ds3
 BYTE   W48
 BYTE   PEND 
//  #05 //013   ----------------------------------------
Label_0168CF35:
 BYTE   W08
 BYTE   N36  Cs3  v100
 BYTE   W40
 BYTE   N23  Ds3
 BYTE   W24
 BYTE   Cn3  v124
 BYTE   W24
 BYTE   PEND 
//  #05 //014   ----------------------------------------
 BYTE   PATT
  POIN2 Label_0168CF2C
//  #05 //015   ----------------------------------------
 BYTE   PATT
  POIN2 Label_0168CF35
//  #05 //016   ----------------------------------------
 BYTE   TIE  Bn2  v124
 BYTE   W96
//  #05 //017   ----------------------------------------
 BYTE   W92
 BYTE   W01
 BYTE   EOT
 BYTE   W03
//  #05 //018   ----------------------------------------
 BYTE   W96
//  #05 //019   ----------------------------------------
 BYTE   W96
//  #05 //020   ----------------------------------------
 BYTE   W96
//  #05 //021   ----------------------------------------
 BYTE   N92
 BYTE   W96
//  #05 //022   ----------------------------------------
 BYTE   GoTo
  POIN2 Label_0168CE62
 BYTE   FINE

//**************** Track 6 (Midi-Chn.5) ****************//

PhoenixWrightTrialsandTribulationsSceneryatDuskyBridge_006:
//  #06 //000   ----------------------------------------
 BYTE   KEYSH   PhoenixWrightTrialsandTribulationsSceneryatDuskyBridge_key+0
Label_0168CF62:
 BYTE   VOICE   1
 BYTE   MODT 0
 BYTE   LFOS 44
 BYTE   VOL   16*PhoenixWrightTrialsandTribulationsSceneryatDuskyBridge_mvl/mxv
 BYTE   PAN   c_v+10
 BYTE   MOD 0
 BYTE   N44  Cn2  v127
 BYTE   W48
 BYTE   N44
 BYTE   W48
//  #06 //001   ----------------------------------------
Label_0168CF74:
 BYTE   N44  As1  v127
 BYTE   W48
 BYTE   N44
 BYTE   W48
 BYTE   PEND 
//  #06 //002   ----------------------------------------
Label_0168CF7B:
 BYTE   N44  Gs1  v127
 BYTE   W48
 BYTE   N44
 BYTE   W48
 BYTE   PEND 
//  #06 //003   ----------------------------------------
Label_0168CF82:
 BYTE   N44  Gn1  v127
 BYTE   W48
 BYTE   Gn2  v124
 BYTE   W48
 BYTE   PEND 
//  #06 //004   ----------------------------------------
 BYTE   N36  Fn1  v127
 BYTE   W48
 BYTE   N30  Gn1
 BYTE   W48
//  #06 //005   ----------------------------------------
 BYTE   N44  Fn1
 BYTE   W48
 BYTE   N23  Gn1
 BYTE   W24
 BYTE   N23
 BYTE   W24
//  #06 //006   ----------------------------------------
 BYTE   N44  Cn2
 BYTE   W48
 BYTE   N44
 BYTE   W48
//  #06 //007   ----------------------------------------
 BYTE   PATT
  POIN2 Label_0168CF74
//  #06 //008   ----------------------------------------
 BYTE   PATT
  POIN2 Label_0168CF7B
//  #06 //009   ----------------------------------------
 BYTE   PATT
  POIN2 Label_0168CF82
//  #06 //010   ----------------------------------------
Label_0168CFAD:
 BYTE   N44  Fs2  v124
 BYTE   W48
 BYTE   Fn2
 BYTE   W48
 BYTE   PEND 
//  #06 //011   ----------------------------------------
 BYTE   Ds2
 BYTE   W48
 BYTE   N44
 BYTE   W48
//  #06 //012   ----------------------------------------
Label_0168CFB8:
 BYTE   N44  As2  v124
 BYTE   W48
 BYTE   Gs2
 BYTE   W48
 BYTE   PEND 
//  #06 //013   ----------------------------------------
 BYTE   PATT
  POIN2 Label_0168CFAD
//  #06 //014   ----------------------------------------
 BYTE   PATT
  POIN2 Label_0168CFB8
//  #06 //015   ----------------------------------------
 BYTE   PATT
  POIN2 Label_0168CFAD
//  #06 //016   ----------------------------------------
 BYTE   TIE  En2  v124
 BYTE   W96
//  #06 //017   ----------------------------------------
 BYTE   W92
 BYTE   W01
 BYTE   EOT
 BYTE   W03
//  #06 //018   ----------------------------------------
 BYTE   W96
//  #06 //019   ----------------------------------------
 BYTE   W96
//  #06 //020   ----------------------------------------
 BYTE   W96
//  #06 //021   ----------------------------------------
 BYTE   N68  Gn1  v127
 BYTE   W72
 BYTE   N23  Gn2  v124
 BYTE   W24
//  #06 //022   ----------------------------------------
 BYTE   GoTo
  POIN2 Label_0168CF62
 BYTE   FINE

//**************** Track 7 (Midi-Chn.6) ****************//

PhoenixWrightTrialsandTribulationsSceneryatDuskyBridge_007:
//  #07 //000   ----------------------------------------
 BYTE   KEYSH   PhoenixWrightTrialsandTribulationsSceneryatDuskyBridge_key+0
Label_0168CFEA:
 BYTE   VOICE   101
 BYTE   MODT 0
 BYTE   LFOS 44
 BYTE   VOL   28*PhoenixWrightTrialsandTribulationsSceneryatDuskyBridge_mvl/mxv
 BYTE   PAN   c_v+0
 BYTE   MOD 0
 BYTE   W96
//  #07 //001   ----------------------------------------
 BYTE   W96
//  #07 //002   ----------------------------------------
 BYTE   W96
//  #07 //003   ----------------------------------------
 BYTE   W96
//  #07 //004   ----------------------------------------
 BYTE   W96
//  #07 //005   ----------------------------------------
 BYTE   W96
//  #07 //006   ----------------------------------------
 BYTE   W96
//  #07 //007   ----------------------------------------
 BYTE   W96
//  #07 //008   ----------------------------------------
 BYTE   W96
//  #07 //009   ----------------------------------------
 BYTE   W96
//  #07 //010   ----------------------------------------
 BYTE   W96
//  #07 //011   ----------------------------------------
 BYTE   W96
//  #07 //012   ----------------------------------------
 BYTE   W96
//  #07 //013   ----------------------------------------
 BYTE   W96
//  #07 //014   ----------------------------------------
 BYTE   W96
//  #07 //015   ----------------------------------------
 BYTE   W96
//  #07 //016   ----------------------------------------
 BYTE   W96
//  #07 //017   ----------------------------------------
 BYTE   W96
//  #07 //018   ----------------------------------------
 BYTE   N23  En2  v060
 BYTE   W24
 BYTE   Gn2
 BYTE   W24
 BYTE   Fs2
 BYTE   W24
 BYTE   An2
 BYTE   W24
//  #07 //019   ----------------------------------------
 BYTE   TIE  As2
 BYTE   W96
//  #07 //020   ----------------------------------------
 BYTE   W92
 BYTE   W03
 BYTE   EOT
 BYTE   W01
//  #07 //021   ----------------------------------------
 BYTE   W96
//  #07 //022   ----------------------------------------
 BYTE   GoTo
  POIN2 Label_0168CFEA
 BYTE   FINE

//**************** Track 8 (Midi-Chn.7) ****************//

PhoenixWrightTrialsandTribulationsSceneryatDuskyBridge_008:
//  #08 //000   ----------------------------------------
 BYTE   KEYSH   PhoenixWrightTrialsandTribulationsSceneryatDuskyBridge_key+0
Label_0168D022:
 BYTE   VOICE   101
 BYTE   MODT 0
 BYTE   LFOS 44
 BYTE   VOL   42*PhoenixWrightTrialsandTribulationsSceneryatDuskyBridge_mvl/mxv
 BYTE   PAN   c_v+0
 BYTE   MOD 0
 BYTE   W96
//  #08 //001   ----------------------------------------
 BYTE   W96
//  #08 //002   ----------------------------------------
 BYTE   W96
//  #08 //003   ----------------------------------------
 BYTE   W96
//  #08 //004   ----------------------------------------
 BYTE   W96
//  #08 //005   ----------------------------------------
 BYTE   W96
//  #08 //006   ----------------------------------------
 BYTE   W96
//  #08 //007   ----------------------------------------
 BYTE   W96
//  #08 //008   ----------------------------------------
 BYTE   W96
//  #08 //009   ----------------------------------------
 BYTE   W96
//  #08 //010   ----------------------------------------
 BYTE   W96
//  #08 //011   ----------------------------------------
 BYTE   W96
//  #08 //012   ----------------------------------------
 BYTE   W96
//  #08 //013   ----------------------------------------
 BYTE   W96
//  #08 //014   ----------------------------------------
 BYTE   W96
//  #08 //015   ----------------------------------------
 BYTE   W96
//  #08 //016   ----------------------------------------
 BYTE   W96
//  #08 //017   ----------------------------------------
 BYTE   W96
//  #08 //018   ----------------------------------------
 BYTE   W06
 BYTE   N23  En2  v020
 BYTE   W24
 BYTE   Gn2
 BYTE   W24
 BYTE   Fs2
 BYTE   W24
 BYTE   An2
 BYTE   W18
//  #08 //019   ----------------------------------------
 BYTE   W06
 BYTE   TIE  As2
 BYTE   W90
//  #08 //020   ----------------------------------------
 BYTE   W96
//  #08 //021   ----------------------------------------
 BYTE   W05
 BYTE   EOT
 BYTE   W90
 BYTE   W01
//  #08 //022   ----------------------------------------
 BYTE   GoTo
  POIN2 Label_0168D022
 BYTE   FINE

//**************** Track 9 (Midi-Chn.8) ****************//

PhoenixWrightTrialsandTribulationsSceneryatDuskyBridge_009:
//  #09 //000   ----------------------------------------
 BYTE   KEYSH   PhoenixWrightTrialsandTribulationsSceneryatDuskyBridge_key+0
Label_0168D05E:
 BYTE   VOICE   88
 BYTE   MODT 0
 BYTE   LFOS 44
 BYTE   VOL   22*PhoenixWrightTrialsandTribulationsSceneryatDuskyBridge_mvl/mxv
 BYTE   PAN   c_v+0
 BYTE   MOD 0
 BYTE   W60
 BYTE   N03  Gn3  v104
 BYTE   W08
 BYTE   Fn3
 BYTE   W08
 BYTE   Ds3  v127
 BYTE   W08
 BYTE   Dn3
 BYTE   W08
 BYTE   Cn3
 BYTE   W04
//  #09 //001   ----------------------------------------
 BYTE   W04
 BYTE   Gn2  v052
 BYTE   W08
 BYTE   Gn2  v044
 BYTE   W08
 BYTE   Gn2  v036
 BYTE   W08
 BYTE   Gn2  v032
 BYTE   W08
 BYTE   Gn2  v028
 BYTE   W08
 BYTE   Gn2  v020
 BYTE   W16
 BYTE   Gn3  v104
 BYTE   W08
 BYTE   Fn3
 BYTE   W08
 BYTE   Ds3  v127
 BYTE   W08
 BYTE   Dn3
 BYTE   W08
 BYTE   As2
 BYTE   W04
//  #09 //002   ----------------------------------------
 BYTE   W04
 BYTE   Gn2  v048
 BYTE   W08
 BYTE   Gn2  v040
 BYTE   W08
 BYTE   Gn2  v036
 BYTE   W08
 BYTE   Gn2  v032
 BYTE   W08
 BYTE   Gn2  v024
 BYTE   W08
 BYTE   Gn2  v020
 BYTE   W16
 BYTE   Ds3  v127
 BYTE   W08
 BYTE   Dn3
 BYTE   W08
 BYTE   Cn3
 BYTE   W08
 BYTE   As2
 BYTE   W08
 BYTE   Gn2
 BYTE   W04
//  #09 //003   ----------------------------------------
 BYTE   W04
 BYTE   Dn2  v056
 BYTE   W08
 BYTE   Dn2  v052
 BYTE   W08
 BYTE   Dn2  v044
 BYTE   W08
 BYTE   Dn2  v040
 BYTE   W08
 BYTE   Dn2  v032
 BYTE   W08
 BYTE   Dn2  v028
 BYTE   W08
 BYTE   Dn2  v024
 BYTE   W08
 BYTE   Dn3  v127
 BYTE   W08
 BYTE   As2
 BYTE   W08
 BYTE   Gn2
 BYTE   W08
 BYTE   Dn2
 BYTE   W08
 BYTE   As1
 BYTE   W04
//  #09 //004   ----------------------------------------
 BYTE   W04
 BYTE   Cn2
 BYTE   W08
 BYTE   Cn2  v036
 BYTE   W08
 BYTE   Cn2  v032
 BYTE   W08
 BYTE   Cn2  v028
 BYTE   W08
 BYTE   Cn2  v020
 BYTE   W08
 BYTE   Cn2  v016
 BYTE   W08
 BYTE   Dn2
 BYTE   W08
 BYTE   Dn2  v127
 BYTE   W08
 BYTE   Dn2  v032
 BYTE   W08
 BYTE   Dn2  v028
 BYTE   W08
 BYTE   Dn2  v020
 BYTE   W08
 BYTE   Dn2  v016
 BYTE   W04
//  #09 //005   ----------------------------------------
 BYTE   W04
 BYTE   Ds2  v127
 BYTE   W08
 BYTE   Ds2  v036
 BYTE   W08
 BYTE   Ds2  v032
 BYTE   W08
 BYTE   Ds2  v028
 BYTE   W08
 BYTE   Ds2  v024
 BYTE   W08
 BYTE   Ds2  v020
 BYTE   W52
//  #09 //006   ----------------------------------------
 BYTE   W60
 BYTE   Gn3  v104
 BYTE   W08
 BYTE   Fn3
 BYTE   W08
 BYTE   Ds3  v127
 BYTE   W08
 BYTE   Dn3
 BYTE   W08
 BYTE   Cn3
 BYTE   W04
//  #09 //007   ----------------------------------------
 BYTE   W04
 BYTE   Gn2  v056
 BYTE   W08
 BYTE   Gn2  v024
 BYTE   W08
 BYTE   Gn2  v020
 BYTE   W08
 BYTE   Gn2  v012
 BYTE   W08
 BYTE   Gn2  v008
 BYTE   W08
 BYTE   Gn2  v004
 BYTE   W16
 BYTE   Gn3  v104
 BYTE   W08
 BYTE   Fn3
 BYTE   W08
 BYTE   Ds3  v127
 BYTE   W08
 BYTE   Dn3
 BYTE   W08
 BYTE   As2
 BYTE   W04
//  #09 //008   ----------------------------------------
 BYTE   W04
 BYTE   Gn2  v068
 BYTE   W08
 BYTE   Gn2  v032
 BYTE   W08
 BYTE   Gn2  v024
 BYTE   W08
 BYTE   Gn2  v016
 BYTE   W08
 BYTE   Gn2  v012
 BYTE   W08
 BYTE   Gn2  v004
 BYTE   W16
 BYTE   Cn2  v127
 BYTE   W08
 BYTE   Dn2
 BYTE   W08
 BYTE   Ds2
 BYTE   W08
 BYTE   Fn2
 BYTE   W08
 BYTE   Gn2
 BYTE   W04
//  #09 //009   ----------------------------------------
 BYTE   W04
 BYTE   Dn2  v056
 BYTE   W08
 BYTE   Dn2  v028
 BYTE   W08
 BYTE   Dn2  v024
 BYTE   W08
 BYTE   Dn2  v016
 BYTE   W08
 BYTE   Dn2  v012
 BYTE   W08
 BYTE   Dn2  v008
 BYTE   W08
 BYTE   Dn2  v004
 BYTE   W08
 BYTE   Dn3  v127
 BYTE   W08
 BYTE   As2
 BYTE   W08
 BYTE   Gn2
 BYTE   W08
 BYTE   Dn2
 BYTE   W08
 BYTE   As1
 BYTE   W04
//  #09 //010   ----------------------------------------
 BYTE   W04
 BYTE   N07  Cs3
 BYTE   W16
 BYTE   N11
 BYTE   W32
 BYTE   N07  Cn3
 BYTE   W16
 BYTE   N11
 BYTE   W28
//  #09 //011   ----------------------------------------
 BYTE   W04
 BYTE   N07  As2
 BYTE   W16
 BYTE   N11
 BYTE   W32
 BYTE   N03  Cs3  v056
 BYTE   W08
 BYTE   Cs3  v028
 BYTE   W08
 BYTE   Cs3  v024
 BYTE   W08
 BYTE   Cs3  v016
 BYTE   W08
 BYTE   Cs3  v012
 BYTE   W08
 BYTE   Cs3  v008
 BYTE   W04
//  #09 //012   ----------------------------------------
 BYTE   W96
//  #09 //013   ----------------------------------------
 BYTE   W96
//  #09 //014   ----------------------------------------
 BYTE   W96
//  #09 //015   ----------------------------------------
 BYTE   W96
//  #09 //016   ----------------------------------------
 BYTE   W12
 BYTE   En2  v116
 BYTE   W08
 BYTE   Gn2  v120
 BYTE   W08
 BYTE   Dn3  v116
 BYTE   W08
 BYTE   En2  v127
 BYTE   W08
 BYTE   Gn2
 BYTE   W08
 BYTE   Dn3
 BYTE   W08
 BYTE   En2
 BYTE   W08
 BYTE   Gn2
 BYTE   W08
 BYTE   Dn3
 BYTE   W08
 BYTE   En2
 BYTE   W08
 BYTE   Gn2
 BYTE   W04
//  #09 //017   ----------------------------------------
 BYTE   W04
 BYTE   Dn3
 BYTE   W08
 BYTE   En2
 BYTE   W08
 BYTE   Gn2
 BYTE   W08
 BYTE   Dn3
 BYTE   W08
 BYTE   En2
 BYTE   W08
 BYTE   Gn2
 BYTE   W08
 BYTE   Dn3
 BYTE   W08
 BYTE   En2
 BYTE   W08
 BYTE   Gn2
 BYTE   W08
 BYTE   Dn3  v116
 BYTE   W08
 BYTE   En2  v120
 BYTE   W08
 BYTE   Gn2  v116
 BYTE   W04
//  #09 //018   ----------------------------------------
 BYTE   W04
 BYTE   Dn3  v104
 BYTE   W08
 BYTE   En2  v112
 BYTE   W08
 BYTE   Gn2  v116
 BYTE   W08
 BYTE   Dn3
 BYTE   W08
 BYTE   En2  v127
 BYTE   W08
 BYTE   Gn2
 BYTE   W08
 BYTE   Dn3
 BYTE   W08
 BYTE   En2
 BYTE   W08
 BYTE   Gn2
 BYTE   W08
 BYTE   Dn3
 BYTE   W08
 BYTE   En2
 BYTE   W08
 BYTE   Gn2
 BYTE   W04
//  #09 //019   ----------------------------------------
 BYTE   W04
 BYTE   Dn3
 BYTE   W08
 BYTE   En2
 BYTE   W08
 BYTE   Gn2
 BYTE   W08
 BYTE   Dn3
 BYTE   W08
 BYTE   En2
 BYTE   W08
 BYTE   Gn2
 BYTE   W08
 BYTE   Dn3
 BYTE   W08
 BYTE   En2
 BYTE   W08
 BYTE   Gn2
 BYTE   W08
 BYTE   Dn3  v112
 BYTE   W08
 BYTE   En2  v116
 BYTE   W08
 BYTE   Gn2  v108
 BYTE   W04
//  #09 //020   ----------------------------------------
 BYTE   W04
 BYTE   Dn3  v100
 BYTE   W08
 BYTE   En2  v108
 BYTE   W08
 BYTE   Gn2  v112
 BYTE   W08
 BYTE   Dn3
 BYTE   W08
 BYTE   En2  v124
 BYTE   W08
 BYTE   Gn2  v127
 BYTE   W08
 BYTE   Dn3
 BYTE   W08
 BYTE   En2
 BYTE   W08
 BYTE   Gn2
 BYTE   W08
 BYTE   Dn3
 BYTE   W08
 BYTE   En2
 BYTE   W08
 BYTE   Gn2
 BYTE   W04
//  #09 //021   ----------------------------------------
 BYTE   W96
//  #09 //022   ----------------------------------------
 BYTE   GoTo
  POIN2 Label_0168D05E
 BYTE   FINE

//**************** Track 10 (Midi-Chn.9) ****************//

PhoenixWrightTrialsandTribulationsSceneryatDuskyBridge_010:
//  #10 //000   ----------------------------------------
 BYTE   KEYSH   PhoenixWrightTrialsandTribulationsSceneryatDuskyBridge_key+0
Label_0168D236:
 BYTE   VOICE   48
 BYTE   MODT 0
 BYTE   LFOS 44
 BYTE   VOL   16*PhoenixWrightTrialsandTribulationsSceneryatDuskyBridge_mvl/mxv
 BYTE   PAN   c_v+0
 BYTE   MOD 0
 BYTE   BEND   c_v+5
 BYTE   N15  Gn3  v088
 BYTE   W16
 BYTE   N07  Gs3
 BYTE   W08
 BYTE   N56  Gn3
 BYTE   W72
//  #10 //001   ----------------------------------------
 BYTE   N15
 BYTE   W16
 BYTE   N07  Gs3
 BYTE   W08
 BYTE   N56  Gn3
 BYTE   W72
//  #10 //002   ----------------------------------------
 BYTE   N15
 BYTE   W16
 BYTE   N07  Cn4  v072
 BYTE   W08
 BYTE   N23  Gn3  v088
 BYTE   W32
 BYTE   N07
 BYTE   W08
 BYTE   N07
 BYTE   W08
 BYTE   N07
 BYTE   W08
 BYTE   Fn3
 BYTE   W08
 BYTE   Ds3
 BYTE   W08
//  #10 //003   ----------------------------------------
 BYTE   N56  Fn3
 BYTE   W72
 BYTE   N07  As2
 BYTE   W08
 BYTE   Cn3
 BYTE   W08
 BYTE   Dn3
 BYTE   W08
//  #10 //004   ----------------------------------------
 BYTE   N23  Ds3
 BYTE   W24
 BYTE   N07
 BYTE   W08
 BYTE   Fn3
 BYTE   W08
 BYTE   Gn3
 BYTE   W08
 BYTE   N23  Dn3
 BYTE   W24
 BYTE   As2
 BYTE   W24
//  #10 //005   ----------------------------------------
 BYTE   W08
 BYTE   N07  As3
 BYTE   W08
 BYTE   Gs3
 BYTE   W08
 BYTE   Gn3
 BYTE   W08
 BYTE   Fn3
 BYTE   W08
 BYTE   Ds3
 BYTE   W08
 BYTE   N23
 BYTE   W24
 BYTE   Dn3
 BYTE   W24
//  #10 //006   ----------------------------------------
 BYTE   N07  Gn4  v072
 BYTE   W08
 BYTE   Gn4  v052
 BYTE   W08
 BYTE   Gs4  v072
 BYTE   W08
 BYTE   Gn4
 BYTE   W08
 BYTE   N15  Gn4  v052
 BYTE   W24
 BYTE   N07  Gn3  v088
 BYTE   W08
 BYTE   Cn4  v072
 BYTE   W08
 BYTE   Dn4
 BYTE   W08
 BYTE   Ds4
 BYTE   W08
 BYTE   Fn4
 BYTE   W08
//  #10 //007   ----------------------------------------
 BYTE   Gn4
 BYTE   W08
 BYTE   Gn4  v052
 BYTE   W08
 BYTE   Gs4  v072
 BYTE   W08
 BYTE   Gn4
 BYTE   W08
 BYTE   N36  Gn4  v052
 BYTE   W64
//  #10 //008   ----------------------------------------
 BYTE   N07  Gn4  v072
 BYTE   W08
 BYTE   Gn4  v052
 BYTE   W08
 BYTE   Cn5  v072
 BYTE   W08
 BYTE   Gn4
 BYTE   W08
 BYTE   N15  Gn4  v052
 BYTE   W24
 BYTE   N07  As4  v072
 BYTE   W08
 BYTE   Gs4
 BYTE   W08
 BYTE   Gn4
 BYTE   W08
 BYTE   Fn4
 BYTE   W08
 BYTE   Ds4
 BYTE   W08
//  #10 //009   ----------------------------------------
 BYTE   Fn4
 BYTE   W08
 BYTE   N15  Fn4  v052
 BYTE   W16
 BYTE   N07  As2  v088
 BYTE   W08
 BYTE   Dn3
 BYTE   W08
 BYTE   Fn3
 BYTE   W08
 BYTE   Gn3
 BYTE   W08
 BYTE   As3
 BYTE   W08
 BYTE   Cn4  v072
 BYTE   W08
 BYTE   Dn4
 BYTE   W08
 BYTE   Ds4
 BYTE   W08
 BYTE   Fn4
 BYTE   W08
//  #10 //010   ----------------------------------------
 BYTE   N07
 BYTE   W08
 BYTE   Fn4  v052
 BYTE   W08
 BYTE   Fn4  v072
 BYTE   W08
 BYTE   Fn4  v052
 BYTE   W08
 BYTE   Ds4  v072
 BYTE   W08
 BYTE   Fn4
 BYTE   W08
 BYTE   Gs4
 BYTE   W08
 BYTE   Gs4  v052
 BYTE   W08
 BYTE   Ds4  v072
 BYTE   W08
 BYTE   N15  Ds4  v052
 BYTE   W16
 BYTE   N07  Cn4  v072
 BYTE   W08
//  #10 //011   ----------------------------------------
 BYTE   Cs4
 BYTE   W08
 BYTE   Cn4
 BYTE   W08
 BYTE   Cs4
 BYTE   W08
 BYTE   Cs4  v052
 BYTE   W08
 BYTE   Ds4  v072
 BYTE   W08
 BYTE   Fn4
 BYTE   W08
 BYTE   N44  Fs4
 BYTE   W48
//  #10 //012   ----------------------------------------
Label_0168D325:
 BYTE   W16
 BYTE   N07  Cn4  v072
 BYTE   W08
 BYTE   Cs4
 BYTE   W08
 BYTE   Ds4
 BYTE   W08
 BYTE   Fn4
 BYTE   W08
 BYTE   N44  Ds4
 BYTE   W48
 BYTE   PEND 
//  #10 //013   ----------------------------------------
 BYTE   W16
 BYTE   N07  As3  v088
 BYTE   W08
 BYTE   Cn4  v072
 BYTE   W08
 BYTE   Cs4
 BYTE   W08
 BYTE   Fn4
 BYTE   W08
 BYTE   N23  Ds4
 BYTE   W24
 BYTE   Cn4
 BYTE   W24
//  #10 //014   ----------------------------------------
 BYTE   PATT
  POIN2 Label_0168D325
//  #10 //015   ----------------------------------------
 BYTE   W16
 BYTE   N07  As3  v088
 BYTE   W08
 BYTE   Cn4  v072
 BYTE   W08
 BYTE   Cs4
 BYTE   W08
 BYTE   Fn4
 BYTE   W08
 BYTE   Ds4
 BYTE   W08
 BYTE   N15  Ds4  v052
 BYTE   W16
 BYTE   N07  Cn4  v072
 BYTE   W08
 BYTE   N15  Cn4  v052
 BYTE   W16
//  #10 //016   ----------------------------------------
 BYTE   N07  Dn4  v072
 BYTE   W08
 BYTE   N84  Dn4  v052
 BYTE   W88
//  #10 //017   ----------------------------------------
 BYTE   W96
//  #10 //018   ----------------------------------------
 BYTE   W96
//  #10 //019   ----------------------------------------
Label_0168D36E:
 BYTE   W40
 BYTE   N03  As4  v052
 BYTE   W08
 BYTE   As3
 BYTE   W48
 BYTE   PEND 
//  #10 //020   ----------------------------------------
 BYTE   PATT
  POIN2 Label_0168D36E
//  #10 //021   ----------------------------------------
 BYTE   W24
 BYTE   N01  Dn4  v072
 BYTE   W02
 BYTE   N02  Ds4
 BYTE   W03
 BYTE   N06  Dn4
 BYTE   W07
 BYTE   N52  Dn4  v052
 BYTE   W60
//  #10 //022   ----------------------------------------
 BYTE   GoTo
  POIN2 Label_0168D236
 BYTE   FINE

//******************************************************//
	ALIGN 4

PhoenixWrightTrialsandTribulationsSceneryatDuskyBridge:
	BYTE	10	// NumTrks
	BYTE	0	// NumBlks
	BYTE	PhoenixWrightTrialsandTribulationsSceneryatDuskyBridge_pri	// Priority
	BYTE	PhoenixWrightTrialsandTribulationsSceneryatDuskyBridge_rev	// Reverb.
    
	POIN2	PhoenixWrightTrialsandTribulationsSceneryatDuskyBridge_grp
    
	POIN2	PhoenixWrightTrialsandTribulationsSceneryatDuskyBridge_001
	POIN2	PhoenixWrightTrialsandTribulationsSceneryatDuskyBridge_002
	POIN2	PhoenixWrightTrialsandTribulationsSceneryatDuskyBridge_003
	POIN2	PhoenixWrightTrialsandTribulationsSceneryatDuskyBridge_004
	POIN2	PhoenixWrightTrialsandTribulationsSceneryatDuskyBridge_005
	POIN2	PhoenixWrightTrialsandTribulationsSceneryatDuskyBridge_006
	POIN2	PhoenixWrightTrialsandTribulationsSceneryatDuskyBridge_007
	POIN2	PhoenixWrightTrialsandTribulationsSceneryatDuskyBridge_008
	POIN2	PhoenixWrightTrialsandTribulationsSceneryatDuskyBridge_009
	POIN2	PhoenixWrightTrialsandTribulationsSceneryatDuskyBridge_010

	
