//Event file generated from Sappy .s format.
	#include "MPlayDef.event"

	#define	PhoenixWrightAceAttorneyJusticeForAllSearchIntheMidst_grp  voicegroup000
	#define	PhoenixWrightAceAttorneyJusticeForAllSearchIntheMidst_pri  0
	#define	PhoenixWrightAceAttorneyJusticeForAllSearchIntheMidst_rev  0
	#define	PhoenixWrightAceAttorneyJusticeForAllSearchIntheMidst_mvl  127
	#define	PhoenixWrightAceAttorneyJusticeForAllSearchIntheMidst_key  0
	#define	PhoenixWrightAceAttorneyJusticeForAllSearchIntheMidst_tbs  1
	#define	PhoenixWrightAceAttorneyJusticeForAllSearchIntheMidst_exg  0
	#define	PhoenixWrightAceAttorneyJusticeForAllSearchIntheMidst_cmp  1

	// .rodata
	//	PhoenixWrightAceAttorneyJusticeForAllSearchIntheMidst
	ALIGN 4


//**************** Track 1 (Midi-Chn.0) ****************//

PhoenixWrightAceAttorneyJusticeForAllSearchIntheMidst_001:
//  #01 //000   ----------------------------------------
 BYTE   KEYSH   PhoenixWrightAceAttorneyJusticeForAllSearchIntheMidst_key+0
Label_011CA842:
 BYTE   TEMPO   114*PhoenixWrightAceAttorneyJusticeForAllSearchIntheMidst_tbs/2
 BYTE   VOICE   34
 BYTE   LFOS 44
 BYTE   PAN   c_v-1
 BYTE   VOL   47*PhoenixWrightAceAttorneyJusticeForAllSearchIntheMidst_mvl/mxv
 BYTE   N06  En2  v127
 BYTE   W06
 BYTE   N06
 BYTE   W06
 BYTE   N12  Bn2
 BYTE   W12
 BYTE   N06  Dn2
 BYTE   W06
 BYTE   N06
 BYTE   W06
 BYTE   N12  An2
 BYTE   W12
 BYTE   N06  En2
 BYTE   W36
 BYTE   N12  Dn2
 BYTE   W12
//  #01 //001   ----------------------------------------
Label_011CA863:
 BYTE   N06  En2  v127
 BYTE   W06
 BYTE   N06
 BYTE   W06
 BYTE   Dn2
 BYTE   W06
 BYTE   En2
 BYTE   W06
 BYTE   Bn2
 BYTE   W06
 BYTE   An2
 BYTE   W06
 BYTE   Dn2
 BYTE   W60
 BYTE   PEND 
//  #01 //002   ----------------------------------------
Label_011CA874:
 BYTE   N06  En2  v127
 BYTE   W06
 BYTE   N06
 BYTE   W06
 BYTE   N12  Bn2
 BYTE   W12
 BYTE   N06  Dn2
 BYTE   W06
 BYTE   N06
 BYTE   W06
 BYTE   N12  An2
 BYTE   W12
 BYTE   N06  En2
 BYTE   W36
 BYTE   N12  Dn2
 BYTE   W12
 BYTE   PEND 
//  #01 //003   ----------------------------------------
Label_011CA88C:
 BYTE   N06  En2  v127
 BYTE   W06
 BYTE   N06
 BYTE   W06
 BYTE   Dn2
 BYTE   W06
 BYTE   En2
 BYTE   W06
 BYTE   An2
 BYTE   W06
 BYTE   Bn2
 BYTE   W06
 BYTE   Dn3
 BYTE   W60
 BYTE   PEND 
//  #01 //004   ----------------------------------------
 BYTE   PATT
  POIN2 Label_011CA874
//  #01 //005   ----------------------------------------
 BYTE   PATT
  POIN2 Label_011CA863
//  #01 //006   ----------------------------------------
 BYTE   PATT
  POIN2 Label_011CA874
//  #01 //007   ----------------------------------------
 BYTE   PATT
  POIN2 Label_011CA88C
//  #01 //008   ----------------------------------------
 BYTE   PATT
  POIN2 Label_011CA874
//  #01 //009   ----------------------------------------
 BYTE   PATT
  POIN2 Label_011CA863
//  #01 //010   ----------------------------------------
 BYTE   PATT
  POIN2 Label_011CA874
//  #01 //011   ----------------------------------------
 BYTE   PATT
  POIN2 Label_011CA88C
//  #01 //012   ----------------------------------------
 BYTE   W96
//  #01 //013   ----------------------------------------
 BYTE   W96
//  #01 //014   ----------------------------------------
Label_011CA8C7:
 BYTE   N18  Cn2  v127
 BYTE   W18
 BYTE   N06
 BYTE   W18
 BYTE   En2
 BYTE   W06
 BYTE   Cn2
 BYTE   W12
 BYTE   N06
 BYTE   W06
 BYTE   N12  Dn2
 BYTE   W12
 BYTE   N06  En2
 BYTE   W12
 BYTE   N12  Cn2
 BYTE   W12
 BYTE   PEND 
//  #01 //015   ----------------------------------------
 BYTE   N18  Dn2
 BYTE   W18
 BYTE   N06
 BYTE   W18
 BYTE   Fs2
 BYTE   W06
 BYTE   N18  Dn2
 BYTE   W18
 BYTE   N06  En2
 BYTE   W12
 BYTE   N24  Fs2
 BYTE   W24
//  #01 //016   ----------------------------------------
 BYTE   PATT
  POIN2 Label_011CA8C7
//  #01 //017   ----------------------------------------
 BYTE   N18  Dn2  v127
 BYTE   W18
 BYTE   N06
 BYTE   W18
 BYTE   An2
 BYTE   W06
 BYTE   N18  Fs2
 BYTE   W18
 BYTE   N06  Gn2
 BYTE   W12
 BYTE   N24  An2
 BYTE   W24
//  #01 //018   ----------------------------------------
Label_011CA903:
 BYTE   N18  En2  v127
 BYTE   W18
 BYTE   N06
 BYTE   W18
 BYTE   Dn2
 BYTE   W06
 BYTE   En2
 BYTE   W12
 BYTE   N06
 BYTE   W06
 BYTE   N12  Dn2
 BYTE   W12
 BYTE   N06  Gn2
 BYTE   W12
 BYTE   N12  Fs2
 BYTE   W12
 BYTE   PEND 
//  #01 //019   ----------------------------------------
 BYTE   N18  Gn2
 BYTE   W18
 BYTE   N06
 BYTE   W18
 BYTE   An2
 BYTE   W06
 BYTE   N18  Bn2
 BYTE   W18
 BYTE   N06
 BYTE   W12
 BYTE   N24  An2
 BYTE   W24
//  #01 //020   ----------------------------------------
 BYTE   PATT
  POIN2 Label_011CA903
//  #01 //021   ----------------------------------------
 BYTE   W12
 BYTE   N06  Dn2  v127
 BYTE   W06
 BYTE   En2
 BYTE   W06
 BYTE   N06
 BYTE   W06
 BYTE   Fs2
 BYTE   W06
 BYTE   Fs2  v040
 BYTE   W12
 BYTE   Fs2  v127
 BYTE   W06
 BYTE   Gn2
 BYTE   W06
 BYTE   N06
 BYTE   W06
 BYTE   An2
 BYTE   W06
 BYTE   An2  v040
 BYTE   W06
 BYTE   GoTo
  POIN2 Label_011CA842
 BYTE   FINE

//**************** Track 2 (Midi-Chn.1) ****************//

PhoenixWrightAceAttorneyJusticeForAllSearchIntheMidst_002:
//  #02 //000   ----------------------------------------
 BYTE   KEYSH   PhoenixWrightAceAttorneyJusticeForAllSearchIntheMidst_key+0
Label_01190B3E:
 BYTE   VOICE   33
 BYTE   LFOS 44
 BYTE   PAN   c_v-1
 BYTE   VOL   13*PhoenixWrightAceAttorneyJusticeForAllSearchIntheMidst_mvl/mxv
 BYTE   N06  Dn3  v084
 BYTE   W06
 BYTE   Dn3  v044
 BYTE   W18
 BYTE   En3  v084
 BYTE   W06
 BYTE   En3  v044
 BYTE   W18
 BYTE   Bn2  v084
 BYTE   W48
//  #02 //001   ----------------------------------------
Label_01190B56:
 BYTE   N06  Dn3  v084
 BYTE   W06
 BYTE   Dn3  v044
 BYTE   W18
 BYTE   En3  v084
 BYTE   W06
 BYTE   En3  v044
 BYTE   W06
 BYTE   Bn2  v084
 BYTE   W60
 BYTE   PEND 
//  #02 //002   ----------------------------------------
Label_01190B67:
 BYTE   N06  Dn3  v084
 BYTE   W06
 BYTE   Dn3  v044
 BYTE   W18
 BYTE   En3  v084
 BYTE   W06
 BYTE   En3  v044
 BYTE   W18
 BYTE   Bn2  v084
 BYTE   W48
 BYTE   PEND 
//  #02 //003   ----------------------------------------
 BYTE   PATT
  POIN2 Label_01190B56
//  #02 //004   ----------------------------------------
 BYTE   PATT
  POIN2 Label_01190B67
//  #02 //005   ----------------------------------------
 BYTE   PATT
  POIN2 Label_01190B56
//  #02 //006   ----------------------------------------
 BYTE   PATT
  POIN2 Label_01190B67
//  #02 //007   ----------------------------------------
 BYTE   PATT
  POIN2 Label_01190B56
//  #02 //008   ----------------------------------------
 BYTE   PATT
  POIN2 Label_01190B67
//  #02 //009   ----------------------------------------
 BYTE   PATT
  POIN2 Label_01190B56
//  #02 //010   ----------------------------------------
 BYTE   PATT
  POIN2 Label_01190B67
//  #02 //011   ----------------------------------------
 BYTE   PATT
  POIN2 Label_01190B56
//  #02 //012   ----------------------------------------
 BYTE   W96
//  #02 //013   ----------------------------------------
 BYTE   W96
//  #02 //014   ----------------------------------------
 BYTE   W96
//  #02 //015   ----------------------------------------
 BYTE   W96
//  #02 //016   ----------------------------------------
 BYTE   W96
//  #02 //017   ----------------------------------------
 BYTE   W96
//  #02 //018   ----------------------------------------
 BYTE   W96
//  #02 //019   ----------------------------------------
 BYTE   W96
//  #02 //020   ----------------------------------------
 BYTE   W96
//  #02 //021   ----------------------------------------
 BYTE   W78
 BYTE   GoTo
  POIN2 Label_01190B3E
 BYTE   FINE

//**************** Track 3 (Midi-Chn.2) ****************//

PhoenixWrightAceAttorneyJusticeForAllSearchIntheMidst_003:
//  #03 //000   ----------------------------------------
 BYTE   KEYSH   PhoenixWrightAceAttorneyJusticeForAllSearchIntheMidst_key+0
Label_01172D2A:
 BYTE   VOICE   28
 BYTE   LFOS 44
 BYTE   PAN   c_v-1
 BYTE   VOL   24*PhoenixWrightAceAttorneyJusticeForAllSearchIntheMidst_mvl/mxv
 BYTE   N06  An2  v036
 BYTE   W06
 BYTE   An2  v012
 BYTE   W18
 BYTE   Bn2  v036
 BYTE   W06
 BYTE   Bn2  v012
 BYTE   W18
 BYTE   Gn2  v036
 BYTE   W48
//  #03 //001   ----------------------------------------
Label_01172D42:
 BYTE   N06  An2  v036
 BYTE   W06
 BYTE   An2  v012
 BYTE   W18
 BYTE   Bn2  v036
 BYTE   W06
 BYTE   Bn2  v012
 BYTE   W06
 BYTE   Gn2  v036
 BYTE   W60
 BYTE   PEND 
//  #03 //002   ----------------------------------------
Label_01172D53:
 BYTE   N06  An2  v036
 BYTE   W06
 BYTE   An2  v012
 BYTE   W18
 BYTE   Bn2  v036
 BYTE   W06
 BYTE   Bn2  v012
 BYTE   W18
 BYTE   Gn2  v036
 BYTE   W48
 BYTE   PEND 
//  #03 //003   ----------------------------------------
 BYTE   PATT
  POIN2 Label_01172D42
//  #03 //004   ----------------------------------------
 BYTE   PATT
  POIN2 Label_01172D53
//  #03 //005   ----------------------------------------
 BYTE   PATT
  POIN2 Label_01172D42
//  #03 //006   ----------------------------------------
 BYTE   PATT
  POIN2 Label_01172D53
//  #03 //007   ----------------------------------------
 BYTE   PATT
  POIN2 Label_01172D42
//  #03 //008   ----------------------------------------
 BYTE   PATT
  POIN2 Label_01172D53
//  #03 //009   ----------------------------------------
 BYTE   PATT
  POIN2 Label_01172D42
//  #03 //010   ----------------------------------------
 BYTE   PATT
  POIN2 Label_01172D53
//  #03 //011   ----------------------------------------
 BYTE   PATT
  POIN2 Label_01172D42
//  #03 //012   ----------------------------------------
 BYTE   W96
//  #03 //013   ----------------------------------------
 BYTE   W96
//  #03 //014   ----------------------------------------
 BYTE   W96
//  #03 //015   ----------------------------------------
 BYTE   W96
//  #03 //016   ----------------------------------------
 BYTE   W96
//  #03 //017   ----------------------------------------
 BYTE   W96
//  #03 //018   ----------------------------------------
 BYTE   W96
//  #03 //019   ----------------------------------------
 BYTE   W96
//  #03 //020   ----------------------------------------
 BYTE   W96
//  #03 //021   ----------------------------------------
 BYTE   W78
 BYTE   GoTo
  POIN2 Label_01172D2A
 BYTE   FINE

//**************** Track 4 (Midi-Chn.3) ****************//

PhoenixWrightAceAttorneyJusticeForAllSearchIntheMidst_004:
//  #04 //000   ----------------------------------------
 BYTE   KEYSH   PhoenixWrightAceAttorneyJusticeForAllSearchIntheMidst_key+0
Label_0116EA7E:
 BYTE   VOICE   48
 BYTE   LFOS 44
 BYTE   VOL   31*PhoenixWrightAceAttorneyJusticeForAllSearchIntheMidst_mvl/mxv
 BYTE   PAN   c_v-1
 BYTE   W96
//  #04 //001   ----------------------------------------
 BYTE   W96
//  #04 //002   ----------------------------------------
 BYTE   W96
//  #04 //003   ----------------------------------------
 BYTE   W84
 BYTE   N06  En3  v048
 BYTE   W06
 BYTE   Fs3
 BYTE   W06
//  #04 //004   ----------------------------------------
 BYTE   Gn3  v064
 BYTE   W06
 BYTE   N78  Gn3  v048
 BYTE   W78
 BYTE   N06  Fs3  v064
 BYTE   W06
 BYTE   N96  Fs3  v048
 BYTE   W06
//  #04 //005   ----------------------------------------
 BYTE   W90
 BYTE   N06  Fs3  v032
 BYTE   W06
//  #04 //006   ----------------------------------------
 BYTE   En3  v064
 BYTE   W06
 BYTE   N78  En3  v048
 BYTE   W78
 BYTE   N06  Dn3  v064
 BYTE   W06
 BYTE   N84  Dn3  v048
 BYTE   W06
//  #04 //007   ----------------------------------------
 BYTE   W78
 BYTE   N06  Dn3  v032
 BYTE   W06
 BYTE   En3  v048
 BYTE   W06
 BYTE   Fs3
 BYTE   W06
//  #04 //008   ----------------------------------------
 BYTE   Gn3  v064
 BYTE   W06
 BYTE   N78  Gn3  v048
 BYTE   W05
 BYTE   BEND   c_v+0
 BYTE   W72
 BYTE   W01
 BYTE   N06  Fs3  v064
 BYTE   W06
 BYTE   N96  Fs3  v048
 BYTE   W06
//  #04 //009   ----------------------------------------
 BYTE   W90
 BYTE   N06  Fs3  v032
 BYTE   W06
//  #04 //010   ----------------------------------------
 BYTE   An3  v064
 BYTE   W06
 BYTE   N78  An3  v048
 BYTE   W78
 BYTE   N06  Gn3  v064
 BYTE   W06
 BYTE   N96  Gn3  v048
 BYTE   W06
//  #04 //011   ----------------------------------------
 BYTE   W96
//  #04 //012   ----------------------------------------
 BYTE   W96
//  #04 //013   ----------------------------------------
 BYTE   W72
 BYTE   N06  Dn4  v056
 BYTE   W06
 BYTE   N18  Dn4  v040
 BYTE   W18
//  #04 //014   ----------------------------------------
Label_0116EAEF:
 BYTE   N06  En4  v056
 BYTE   W06
 BYTE   N90  En4  v040
 BYTE   W90
 BYTE   PEND 
//  #04 //015   ----------------------------------------
 BYTE   N06  En4  v056
 BYTE   W06
 BYTE   N30  En4  v040
 BYTE   W30
 BYTE   N06  Dn4  v056
 BYTE   W06
 BYTE   N54  Dn4  v040
 BYTE   W54
//  #04 //016   ----------------------------------------
 BYTE   PATT
  POIN2 Label_0116EAEF
//  #04 //017   ----------------------------------------
 BYTE   N06  Gn4  v056
 BYTE   W06
 BYTE   N30  Gn4  v040
 BYTE   W30
 BYTE   N06  Fs4  v056
 BYTE   W06
 BYTE   N54  Fs4  v040
 BYTE   W54
//  #04 //018   ----------------------------------------
 BYTE   PATT
  POIN2 Label_0116EAEF
//  #04 //019   ----------------------------------------
 BYTE   N06  Gn3  v056
 BYTE   W06
 BYTE   N30  Gn3  v040
 BYTE   W30
 BYTE   N06  An3  v056
 BYTE   W06
 BYTE   N54  An3  v040
 BYTE   W54
//  #04 //020   ----------------------------------------
 BYTE   N06  Gn3  v056
 BYTE   W06
 BYTE   N90  Gn3  v040
 BYTE   W90
//  #04 //021   ----------------------------------------
 BYTE   W12
 BYTE   N06  Dn2  v052
 BYTE   W06
 BYTE   En2
 BYTE   W06
 BYTE   N06
 BYTE   W06
 BYTE   Fs2
 BYTE   W18
 BYTE   N06
 BYTE   W06
 BYTE   Gn2
 BYTE   W06
 BYTE   N06
 BYTE   W06
 BYTE   An2
 BYTE   W12
 BYTE   GoTo
  POIN2 Label_0116EA7E
 BYTE   FINE

//**************** Track 5 (Midi-Chn.4) ****************//

PhoenixWrightAceAttorneyJusticeForAllSearchIntheMidst_005:
//  #05 //000   ----------------------------------------
 BYTE   KEYSH   PhoenixWrightAceAttorneyJusticeForAllSearchIntheMidst_key+0
Label_01173606:
 BYTE   VOICE   61
 BYTE   LFOS 44
 BYTE   PAN   c_v-1
 BYTE   VOL   21*PhoenixWrightAceAttorneyJusticeForAllSearchIntheMidst_mvl/mxv
 BYTE   W96
//  #05 //001   ----------------------------------------
 BYTE   W96
//  #05 //002   ----------------------------------------
 BYTE   W96
//  #05 //003   ----------------------------------------
 BYTE   W96
//  #05 //004   ----------------------------------------
Label_01173612:
 BYTE   N84  Dn4  v048
 BYTE   W84
 BYTE   TIE
 BYTE   W12
 BYTE   PEND 
//  #05 //005   ----------------------------------------
 BYTE   W90
 BYTE   EOT
 BYTE   N06  Dn4  v032
 BYTE   W06
//  #05 //006   ----------------------------------------
 BYTE   N84  Bn3  v052
 BYTE   W84
 BYTE   TIE  An3
 BYTE   W12
//  #05 //007   ----------------------------------------
 BYTE   W90
 BYTE   EOT
 BYTE   N06  An3  v032
 BYTE   W06
//  #05 //008   ----------------------------------------
 BYTE   PATT
  POIN2 Label_01173612
//  #05 //009   ----------------------------------------
 BYTE   W90
 BYTE   EOT
 BYTE   Dn4
 BYTE   N06  Dn4  v032
 BYTE   W06
//  #05 //010   ----------------------------------------
 BYTE   N84  En4  v048
 BYTE   W84
 BYTE   TIE  Dn4
 BYTE   W12
//  #05 //011   ----------------------------------------
 BYTE   W90
 BYTE   EOT
 BYTE   N06  Dn4  v032
 BYTE   W06
//  #05 //012   ----------------------------------------
 BYTE   W96
//  #05 //013   ----------------------------------------
 BYTE   W72
 BYTE   VOL   0*PhoenixWrightAceAttorneyJusticeForAllSearchIntheMidst_mvl/mxv
 BYTE   N24  An3  v072
 BYTE   W03
 BYTE   VOL   0*PhoenixWrightAceAttorneyJusticeForAllSearchIntheMidst_mvl/mxv
 BYTE   W03
 BYTE   VOL   0*PhoenixWrightAceAttorneyJusticeForAllSearchIntheMidst_mvl/mxv
 BYTE   W03
 BYTE   VOL   7*PhoenixWrightAceAttorneyJusticeForAllSearchIntheMidst_mvl/mxv
 BYTE   W03
 BYTE   VOL   17*PhoenixWrightAceAttorneyJusticeForAllSearchIntheMidst_mvl/mxv
 BYTE   W03
 BYTE   VOL   27*PhoenixWrightAceAttorneyJusticeForAllSearchIntheMidst_mvl/mxv
 BYTE   W03
 BYTE   VOL   38*PhoenixWrightAceAttorneyJusticeForAllSearchIntheMidst_mvl/mxv
 BYTE   W03
 BYTE   VOL   50*PhoenixWrightAceAttorneyJusticeForAllSearchIntheMidst_mvl/mxv
 BYTE   W02
 BYTE   VOL   64*PhoenixWrightAceAttorneyJusticeForAllSearchIntheMidst_mvl/mxv
 BYTE   W01
//  #05 //014   ----------------------------------------
Label_0117365E:
 BYTE   N90  Gn3  v036
 BYTE   W90
 BYTE   N06  Gn3  v024
 BYTE   W06
 BYTE   PEND 
//  #05 //015   ----------------------------------------
 BYTE   N36  Gn3  v036
 BYTE   W36
 BYTE   N54  Fs3
 BYTE   W54
 BYTE   N06  Fs3  v024
 BYTE   W06
//  #05 //016   ----------------------------------------
 BYTE   PATT
  POIN2 Label_0117365E
//  #05 //017   ----------------------------------------
 BYTE   N36  Bn3  v036
 BYTE   W36
 BYTE   N54  An3
 BYTE   W54
 BYTE   N06  An3  v024
 BYTE   W06
//  #05 //018   ----------------------------------------
 BYTE   N96  Gn3  v036
 BYTE   W03
 BYTE   VOL   60*PhoenixWrightAceAttorneyJusticeForAllSearchIntheMidst_mvl/mxv
 BYTE   W03
 BYTE   VOL   58*PhoenixWrightAceAttorneyJusticeForAllSearchIntheMidst_mvl/mxv
 BYTE   W03
 BYTE   VOL   57*PhoenixWrightAceAttorneyJusticeForAllSearchIntheMidst_mvl/mxv
 BYTE   W03
 BYTE   VOL   54*PhoenixWrightAceAttorneyJusticeForAllSearchIntheMidst_mvl/mxv
 BYTE   W03
 BYTE   VOL   52*PhoenixWrightAceAttorneyJusticeForAllSearchIntheMidst_mvl/mxv
 BYTE   W03
 BYTE   VOL   50*PhoenixWrightAceAttorneyJusticeForAllSearchIntheMidst_mvl/mxv
 BYTE   W03
 BYTE   VOL   48*PhoenixWrightAceAttorneyJusticeForAllSearchIntheMidst_mvl/mxv
 BYTE   W03
 BYTE   VOL   46*PhoenixWrightAceAttorneyJusticeForAllSearchIntheMidst_mvl/mxv
 BYTE   W03
 BYTE   VOL   45*PhoenixWrightAceAttorneyJusticeForAllSearchIntheMidst_mvl/mxv
 BYTE   W03
 BYTE   VOL   43*PhoenixWrightAceAttorneyJusticeForAllSearchIntheMidst_mvl/mxv
 BYTE   W03
 BYTE   VOL   41*PhoenixWrightAceAttorneyJusticeForAllSearchIntheMidst_mvl/mxv
 BYTE   W03
 BYTE   VOL   39*PhoenixWrightAceAttorneyJusticeForAllSearchIntheMidst_mvl/mxv
 BYTE   W03
 BYTE   VOL   37*PhoenixWrightAceAttorneyJusticeForAllSearchIntheMidst_mvl/mxv
 BYTE   W03
 BYTE   VOL   35*PhoenixWrightAceAttorneyJusticeForAllSearchIntheMidst_mvl/mxv
 BYTE   W03
 BYTE   VOL   34*PhoenixWrightAceAttorneyJusticeForAllSearchIntheMidst_mvl/mxv
 BYTE   W03
 BYTE   VOL   32*PhoenixWrightAceAttorneyJusticeForAllSearchIntheMidst_mvl/mxv
 BYTE   W03
 BYTE   VOL   30*PhoenixWrightAceAttorneyJusticeForAllSearchIntheMidst_mvl/mxv
 BYTE   W03
 BYTE   VOL   29*PhoenixWrightAceAttorneyJusticeForAllSearchIntheMidst_mvl/mxv
 BYTE   W03
 BYTE   VOL   27*PhoenixWrightAceAttorneyJusticeForAllSearchIntheMidst_mvl/mxv
 BYTE   W03
 BYTE   VOL   25*PhoenixWrightAceAttorneyJusticeForAllSearchIntheMidst_mvl/mxv
 BYTE   W03
 BYTE   VOL   24*PhoenixWrightAceAttorneyJusticeForAllSearchIntheMidst_mvl/mxv
 BYTE   W03
 BYTE   VOL   22*PhoenixWrightAceAttorneyJusticeForAllSearchIntheMidst_mvl/mxv
 BYTE   W03
 BYTE   VOL   21*PhoenixWrightAceAttorneyJusticeForAllSearchIntheMidst_mvl/mxv
 BYTE   W03
 BYTE   VOL   19*PhoenixWrightAceAttorneyJusticeForAllSearchIntheMidst_mvl/mxv
 BYTE   W03
 BYTE   VOL   18*PhoenixWrightAceAttorneyJusticeForAllSearchIntheMidst_mvl/mxv
 BYTE   W03
 BYTE   VOL   16*PhoenixWrightAceAttorneyJusticeForAllSearchIntheMidst_mvl/mxv
 BYTE   W03
 BYTE   VOL   14*PhoenixWrightAceAttorneyJusticeForAllSearchIntheMidst_mvl/mxv
 BYTE   W03
 BYTE   VOL   13*PhoenixWrightAceAttorneyJusticeForAllSearchIntheMidst_mvl/mxv
 BYTE   W03
 BYTE   VOL   12*PhoenixWrightAceAttorneyJusticeForAllSearchIntheMidst_mvl/mxv
 BYTE   W03
 BYTE   VOL   11*PhoenixWrightAceAttorneyJusticeForAllSearchIntheMidst_mvl/mxv
 BYTE   W03
 BYTE   VOL   9*PhoenixWrightAceAttorneyJusticeForAllSearchIntheMidst_mvl/mxv
 BYTE   W02
 BYTE   VOL   7*PhoenixWrightAceAttorneyJusticeForAllSearchIntheMidst_mvl/mxv
 BYTE   W01
//  #05 //019   ----------------------------------------
 BYTE   N36  En3
 BYTE   W36
 BYTE   N54  Fs3
 BYTE   W54
 BYTE   N06  Fs3  v024
 BYTE   W06
//  #05 //020   ----------------------------------------
 BYTE   N96  En3  v036
 BYTE   W96
//  #05 //021   ----------------------------------------
 BYTE   W78
 BYTE   GoTo
  POIN2 Label_01173606
 BYTE   FINE

//**************** Track 6 (Midi-Chn.5) ****************//

PhoenixWrightAceAttorneyJusticeForAllSearchIntheMidst_006:
//  #06 //000   ----------------------------------------
 BYTE   KEYSH   PhoenixWrightAceAttorneyJusticeForAllSearchIntheMidst_key+0
Label_0117373A:
 BYTE   VOICE   63
 BYTE   LFOS 44
 BYTE   VOL   64*PhoenixWrightAceAttorneyJusticeForAllSearchIntheMidst_mvl/mxv
 BYTE   PAN   c_v-1
 BYTE   W96
//  #06 //001   ----------------------------------------
 BYTE   W96
//  #06 //002   ----------------------------------------
 BYTE   W96
//  #06 //003   ----------------------------------------
 BYTE   W96
//  #06 //004   ----------------------------------------
 BYTE   W96
//  #06 //005   ----------------------------------------
 BYTE   W96
//  #06 //006   ----------------------------------------
 BYTE   W96
//  #06 //007   ----------------------------------------
 BYTE   W96
//  #06 //008   ----------------------------------------
 BYTE   W96
//  #06 //009   ----------------------------------------
 BYTE   W96
//  #06 //010   ----------------------------------------
 BYTE   W96
//  #06 //011   ----------------------------------------
 BYTE   W96
//  #06 //012   ----------------------------------------
 BYTE   W96
//  #06 //013   ----------------------------------------
 BYTE   W96
//  #06 //014   ----------------------------------------
Label_01173750:
 BYTE   N12  En3  v036
 BYTE   W12
 BYTE   Bn2
 BYTE   W12
 BYTE   Gn2
 BYTE   W12
 BYTE   En3
 BYTE   W12
 BYTE   Bn2
 BYTE   W12
 BYTE   Gn2
 BYTE   W12
 BYTE   Gn3
 BYTE   W12
 BYTE   Dn3
 BYTE   W12
 BYTE   PEND 
//  #06 //015   ----------------------------------------
Label_01173763:
 BYTE   N12  En3  v036
 BYTE   W12
 BYTE   Dn3
 BYTE   W12
 BYTE   An2
 BYTE   W12
 BYTE   En3
 BYTE   W12
 BYTE   Dn3
 BYTE   W12
 BYTE   An2
 BYTE   W12
 BYTE   N24  Dn3
 BYTE   W24
 BYTE   PEND 
//  #06 //016   ----------------------------------------
 BYTE   PATT
  POIN2 Label_01173750
//  #06 //017   ----------------------------------------
 BYTE   PATT
  POIN2 Label_01173763
//  #06 //018   ----------------------------------------
Label_0117377F:
 BYTE   N12  Bn2  v036
 BYTE   W12
 BYTE   Dn3
 BYTE   W12
 BYTE   An2
 BYTE   W12
 BYTE   En3
 BYTE   W12
 BYTE   Dn3
 BYTE   W12
 BYTE   An2
 BYTE   W12
 BYTE   Bn2
 BYTE   W12
 BYTE   Dn3
 BYTE   W12
 BYTE   PEND 
//  #06 //019   ----------------------------------------
 BYTE   An2
 BYTE   W12
 BYTE   En3
 BYTE   W12
 BYTE   Dn3
 BYTE   W12
 BYTE   An2
 BYTE   W12
 BYTE   Bn2
 BYTE   W12
 BYTE   Dn3
 BYTE   W12
 BYTE   N24  An2
 BYTE   W24
//  #06 //020   ----------------------------------------
 BYTE   PATT
  POIN2 Label_0117377F
//  #06 //021   ----------------------------------------
 BYTE   W12
 BYTE   N06  Fs2  v036
 BYTE   W06
 BYTE   Gn2
 BYTE   W06
 BYTE   N06
 BYTE   W06
 BYTE   An2
 BYTE   W06
 BYTE   An2  v020
 BYTE   W12
 BYTE   An2  v036
 BYTE   W06
 BYTE   Bn2
 BYTE   W06
 BYTE   N06
 BYTE   W06
 BYTE   Cn3
 BYTE   W06
 BYTE   Cn3  v020
 BYTE   W06
 BYTE   GoTo
  POIN2 Label_0117373A
 BYTE   FINE

//**************** Track 7 (Midi-Chn.6) ****************//

PhoenixWrightAceAttorneyJusticeForAllSearchIntheMidst_007:
//  #07 //000   ----------------------------------------
 BYTE   KEYSH   PhoenixWrightAceAttorneyJusticeForAllSearchIntheMidst_key+0
Label_0119083A:
 BYTE   VOICE   91
 BYTE   LFOS 44
 BYTE   VOL   11*PhoenixWrightAceAttorneyJusticeForAllSearchIntheMidst_mvl/mxv
 BYTE   PAN   c_v-1
 BYTE   W96
//  #07 //001   ----------------------------------------
 BYTE   W96
//  #07 //002   ----------------------------------------
 BYTE   W96
//  #07 //003   ----------------------------------------
 BYTE   W84
 BYTE   N05  En3  v088
 BYTE   W06
 BYTE   N08  Fs3  v080
 BYTE   W06
//  #07 //004   ----------------------------------------
 BYTE   N80  Gn3
 BYTE   W84
 BYTE   TIE  Fs3  v088
 BYTE   W12
//  #07 //005   ----------------------------------------
 BYTE   W92
 BYTE   W03
 BYTE   EOT
 BYTE   W01
//  #07 //006   ----------------------------------------
 BYTE   N80  En3
 BYTE   W84
 BYTE   N88  Dn3  v076
 BYTE   W12
//  #07 //007   ----------------------------------------
 BYTE   W84
 BYTE   N05  En3  v100
 BYTE   W06
 BYTE   N07  Fs3  v076
 BYTE   W06
//  #07 //008   ----------------------------------------
 BYTE   N80  Gn3  v088
 BYTE   W84
 BYTE   TIE  Fs3  v076
 BYTE   W12
//  #07 //009   ----------------------------------------
 BYTE   W92
 BYTE   W03
 BYTE   EOT
 BYTE   W01
//  #07 //010   ----------------------------------------
 BYTE   N80  An3
 BYTE   W84
 BYTE   TIE  Gn3
 BYTE   W12
//  #07 //011   ----------------------------------------
 BYTE   W90
 BYTE   EOT
 BYTE   W06
//  #07 //012   ----------------------------------------
 BYTE   W96
//  #07 //013   ----------------------------------------
 BYTE   W72
 BYTE   N23  Dn4  v084
 BYTE   W24
//  #07 //014   ----------------------------------------
 BYTE   N92  En4  v068
 BYTE   W96
//  #07 //015   ----------------------------------------
 BYTE   N32  En4  v072
 BYTE   W36
 BYTE   N56  Dn4  v084
 BYTE   W60
//  #07 //016   ----------------------------------------
 BYTE   N92  En4  v076
 BYTE   W96
//  #07 //017   ----------------------------------------
 BYTE   N32  Gn4  v080
 BYTE   W36
 BYTE   N56  Fs4  v084
 BYTE   W60
//  #07 //018   ----------------------------------------
 BYTE   N92  En4  v080
 BYTE   W96
//  #07 //019   ----------------------------------------
 BYTE   N32  Gn3  v084
 BYTE   W36
 BYTE   N56  An3  v088
 BYTE   W60
//  #07 //020   ----------------------------------------
 BYTE   TIE  Gn3  v084
 BYTE   W96
//  #07 //021   ----------------------------------------
 BYTE   W01
 BYTE   EOT
 BYTE   W76
 BYTE   W01
 BYTE   GoTo
  POIN2 Label_0119083A
 BYTE   FINE

//**************** Track 8 (Midi-Chn.7) ****************//

PhoenixWrightAceAttorneyJusticeForAllSearchIntheMidst_008:
//  #08 //000   ----------------------------------------
 BYTE   KEYSH   PhoenixWrightAceAttorneyJusticeForAllSearchIntheMidst_key+0
Label_0116EC1E:
 BYTE   VOICE   70
 BYTE   LFOS 44
 BYTE   PAN   c_v-1
 BYTE   VOL   21*PhoenixWrightAceAttorneyJusticeForAllSearchIntheMidst_mvl/mxv
 BYTE   W96
//  #08 //001   ----------------------------------------
 BYTE   W96
//  #08 //002   ----------------------------------------
 BYTE   W96
//  #08 //003   ----------------------------------------
 BYTE   W96
//  #08 //004   ----------------------------------------
Label_0116EC2A:
 BYTE   N84  Dn4  v048
 BYTE   W84
 BYTE   TIE
 BYTE   W12
 BYTE   PEND 
//  #08 //005   ----------------------------------------
 BYTE   W90
 BYTE   EOT
 BYTE   N06  Dn4  v032
 BYTE   W06
//  #08 //006   ----------------------------------------
 BYTE   N84  Bn3  v052
 BYTE   W84
 BYTE   TIE  An3
 BYTE   W12
//  #08 //007   ----------------------------------------
 BYTE   W90
 BYTE   EOT
 BYTE   N06  An3  v032
 BYTE   W06
//  #08 //008   ----------------------------------------
 BYTE   PATT
  POIN2 Label_0116EC2A
//  #08 //009   ----------------------------------------
 BYTE   W90
 BYTE   EOT
 BYTE   Dn4
 BYTE   N06  Dn4  v032
 BYTE   W06
//  #08 //010   ----------------------------------------
 BYTE   N84  En4  v048
 BYTE   W84
 BYTE   TIE  Dn4
 BYTE   W12
//  #08 //011   ----------------------------------------
 BYTE   W90
 BYTE   EOT
 BYTE   N06  Dn4  v032
 BYTE   W06
//  #08 //012   ----------------------------------------
 BYTE   W96
//  #08 //013   ----------------------------------------
 BYTE   W72
 BYTE   VOL   0*PhoenixWrightAceAttorneyJusticeForAllSearchIntheMidst_mvl/mxv
 BYTE   N24  An3  v060
 BYTE   W03
 BYTE   VOL   0*PhoenixWrightAceAttorneyJusticeForAllSearchIntheMidst_mvl/mxv
 BYTE   W03
 BYTE   VOL   0*PhoenixWrightAceAttorneyJusticeForAllSearchIntheMidst_mvl/mxv
 BYTE   W03
 BYTE   VOL   7*PhoenixWrightAceAttorneyJusticeForAllSearchIntheMidst_mvl/mxv
 BYTE   W03
 BYTE   VOL   17*PhoenixWrightAceAttorneyJusticeForAllSearchIntheMidst_mvl/mxv
 BYTE   W03
 BYTE   VOL   27*PhoenixWrightAceAttorneyJusticeForAllSearchIntheMidst_mvl/mxv
 BYTE   W03
 BYTE   VOL   38*PhoenixWrightAceAttorneyJusticeForAllSearchIntheMidst_mvl/mxv
 BYTE   W03
 BYTE   VOL   50*PhoenixWrightAceAttorneyJusticeForAllSearchIntheMidst_mvl/mxv
 BYTE   W02
 BYTE   VOL   64*PhoenixWrightAceAttorneyJusticeForAllSearchIntheMidst_mvl/mxv
 BYTE   W01
//  #08 //014   ----------------------------------------
Label_0116EC76:
 BYTE   N90  Gn3  v032
 BYTE   W90
 BYTE   N06  Gn3  v020
 BYTE   W06
 BYTE   PEND 
//  #08 //015   ----------------------------------------
 BYTE   N36  Gn3  v032
 BYTE   W36
 BYTE   N54  Fs3
 BYTE   W54
 BYTE   N06  Fs3  v020
 BYTE   W06
//  #08 //016   ----------------------------------------
 BYTE   PATT
  POIN2 Label_0116EC76
//  #08 //017   ----------------------------------------
 BYTE   N36  Bn3  v032
 BYTE   W36
 BYTE   N54  An3
 BYTE   W54
 BYTE   N06  An3  v020
 BYTE   W06
//  #08 //018   ----------------------------------------
 BYTE   N96  Gn3  v032
 BYTE   W03
 BYTE   VOL   60*PhoenixWrightAceAttorneyJusticeForAllSearchIntheMidst_mvl/mxv
 BYTE   W03
 BYTE   VOL   58*PhoenixWrightAceAttorneyJusticeForAllSearchIntheMidst_mvl/mxv
 BYTE   W03
 BYTE   VOL   57*PhoenixWrightAceAttorneyJusticeForAllSearchIntheMidst_mvl/mxv
 BYTE   W03
 BYTE   VOL   54*PhoenixWrightAceAttorneyJusticeForAllSearchIntheMidst_mvl/mxv
 BYTE   W03
 BYTE   VOL   52*PhoenixWrightAceAttorneyJusticeForAllSearchIntheMidst_mvl/mxv
 BYTE   W03
 BYTE   VOL   50*PhoenixWrightAceAttorneyJusticeForAllSearchIntheMidst_mvl/mxv
 BYTE   W03
 BYTE   VOL   48*PhoenixWrightAceAttorneyJusticeForAllSearchIntheMidst_mvl/mxv
 BYTE   W03
 BYTE   VOL   46*PhoenixWrightAceAttorneyJusticeForAllSearchIntheMidst_mvl/mxv
 BYTE   W03
 BYTE   VOL   45*PhoenixWrightAceAttorneyJusticeForAllSearchIntheMidst_mvl/mxv
 BYTE   W03
 BYTE   VOL   43*PhoenixWrightAceAttorneyJusticeForAllSearchIntheMidst_mvl/mxv
 BYTE   W03
 BYTE   VOL   41*PhoenixWrightAceAttorneyJusticeForAllSearchIntheMidst_mvl/mxv
 BYTE   W03
 BYTE   VOL   39*PhoenixWrightAceAttorneyJusticeForAllSearchIntheMidst_mvl/mxv
 BYTE   W03
 BYTE   VOL   37*PhoenixWrightAceAttorneyJusticeForAllSearchIntheMidst_mvl/mxv
 BYTE   W03
 BYTE   VOL   35*PhoenixWrightAceAttorneyJusticeForAllSearchIntheMidst_mvl/mxv
 BYTE   W03
 BYTE   VOL   34*PhoenixWrightAceAttorneyJusticeForAllSearchIntheMidst_mvl/mxv
 BYTE   W03
 BYTE   VOL   32*PhoenixWrightAceAttorneyJusticeForAllSearchIntheMidst_mvl/mxv
 BYTE   W03
 BYTE   VOL   30*PhoenixWrightAceAttorneyJusticeForAllSearchIntheMidst_mvl/mxv
 BYTE   W03
 BYTE   VOL   29*PhoenixWrightAceAttorneyJusticeForAllSearchIntheMidst_mvl/mxv
 BYTE   W03
 BYTE   VOL   27*PhoenixWrightAceAttorneyJusticeForAllSearchIntheMidst_mvl/mxv
 BYTE   W03
 BYTE   VOL   25*PhoenixWrightAceAttorneyJusticeForAllSearchIntheMidst_mvl/mxv
 BYTE   W03
 BYTE   VOL   24*PhoenixWrightAceAttorneyJusticeForAllSearchIntheMidst_mvl/mxv
 BYTE   W03
 BYTE   VOL   22*PhoenixWrightAceAttorneyJusticeForAllSearchIntheMidst_mvl/mxv
 BYTE   W03
 BYTE   VOL   21*PhoenixWrightAceAttorneyJusticeForAllSearchIntheMidst_mvl/mxv
 BYTE   W03
 BYTE   VOL   19*PhoenixWrightAceAttorneyJusticeForAllSearchIntheMidst_mvl/mxv
 BYTE   W03
 BYTE   VOL   18*PhoenixWrightAceAttorneyJusticeForAllSearchIntheMidst_mvl/mxv
 BYTE   W03
 BYTE   VOL   16*PhoenixWrightAceAttorneyJusticeForAllSearchIntheMidst_mvl/mxv
 BYTE   W03
 BYTE   VOL   14*PhoenixWrightAceAttorneyJusticeForAllSearchIntheMidst_mvl/mxv
 BYTE   W03
 BYTE   VOL   13*PhoenixWrightAceAttorneyJusticeForAllSearchIntheMidst_mvl/mxv
 BYTE   W03
 BYTE   VOL   12*PhoenixWrightAceAttorneyJusticeForAllSearchIntheMidst_mvl/mxv
 BYTE   W03
 BYTE   VOL   11*PhoenixWrightAceAttorneyJusticeForAllSearchIntheMidst_mvl/mxv
 BYTE   W03
 BYTE   VOL   9*PhoenixWrightAceAttorneyJusticeForAllSearchIntheMidst_mvl/mxv
 BYTE   W02
 BYTE   VOL   7*PhoenixWrightAceAttorneyJusticeForAllSearchIntheMidst_mvl/mxv
 BYTE   W01
//  #08 //019   ----------------------------------------
 BYTE   N36  En3
 BYTE   W36
 BYTE   N54  Fs3
 BYTE   W54
 BYTE   N06  Fs3  v020
 BYTE   W06
//  #08 //020   ----------------------------------------
 BYTE   N96  En3  v032
 BYTE   W96
//  #08 //021   ----------------------------------------
 BYTE   W78
 BYTE   GoTo
  POIN2 Label_0116EC1E
 BYTE   FINE

//**************** Track 9 (Midi-Chn.8) ****************//

PhoenixWrightAceAttorneyJusticeForAllSearchIntheMidst_009:
//  #09 //000   ----------------------------------------
 BYTE   KEYSH   PhoenixWrightAceAttorneyJusticeForAllSearchIntheMidst_key+0
Label_0116ECFA:
 BYTE   VOICE   121
 BYTE   LFOS 44
 BYTE   PAN   c_v+11
 BYTE   VOL   64*PhoenixWrightAceAttorneyJusticeForAllSearchIntheMidst_mvl/mxv
 BYTE   N06  Cn1  v092
 BYTE   W24
 BYTE   N06
 BYTE   W24
 BYTE   N06
 BYTE   W12
 BYTE   Cn1  v052
 BYTE   W36
//  #09 //001   ----------------------------------------
Label_0116ED0D:
 BYTE   N06  Cn1  v092
 BYTE   W24
 BYTE   N06
 BYTE   W48
 BYTE   Cn1  v052
 BYTE   W24
 BYTE   PEND 
//  #09 //002   ----------------------------------------
Label_0116ED17:
 BYTE   N06  Cn1  v092
 BYTE   W24
 BYTE   N06
 BYTE   W24
 BYTE   N06
 BYTE   W12
 BYTE   Cn1  v052
 BYTE   W36
 BYTE   PEND 
//  #09 //003   ----------------------------------------
Label_0116ED23:
 BYTE   N06  Cn1  v092
 BYTE   W24
 BYTE   N06
 BYTE   W72
 BYTE   PEND 
//  #09 //004   ----------------------------------------
 BYTE   PATT
  POIN2 Label_0116ED17
//  #09 //005   ----------------------------------------
 BYTE   PATT
  POIN2 Label_0116ED0D
//  #09 //006   ----------------------------------------
 BYTE   PATT
  POIN2 Label_0116ED17
//  #09 //007   ----------------------------------------
 BYTE   PATT
  POIN2 Label_0116ED23
//  #09 //008   ----------------------------------------
 BYTE   PATT
  POIN2 Label_0116ED17
//  #09 //009   ----------------------------------------
 BYTE   PATT
  POIN2 Label_0116ED0D
//  #09 //010   ----------------------------------------
 BYTE   PATT
  POIN2 Label_0116ED17
//  #09 //011   ----------------------------------------
 BYTE   PATT
  POIN2 Label_0116ED23
//  #09 //012   ----------------------------------------
Label_0116ED52:
 BYTE   N06  Cn1  v092
 BYTE   W12
 BYTE   Cn1  v052
 BYTE   W36
 BYTE   Cn1  v092
 BYTE   W48
 BYTE   PEND 
//  #09 //013   ----------------------------------------
 BYTE   PATT
  POIN2 Label_0116ED52
//  #09 //014   ----------------------------------------
Label_0116ED62:
 BYTE   N06  Cn1  v092
 BYTE   W18
 BYTE   Cn1  v052
 BYTE   W54
 BYTE   Cn1  v092
 BYTE   W24
 BYTE   PEND 
//  #09 //015   ----------------------------------------
Label_0116ED6D:
 BYTE   N06  Cn1  v092
 BYTE   W18
 BYTE   Cn1  v052
 BYTE   W42
 BYTE   Cn1  v092
 BYTE   W36
 BYTE   PEND 
//  #09 //016   ----------------------------------------
 BYTE   PATT
  POIN2 Label_0116ED62
//  #09 //017   ----------------------------------------
 BYTE   PATT
  POIN2 Label_0116ED6D
//  #09 //018   ----------------------------------------
 BYTE   PATT
  POIN2 Label_0116ED62
//  #09 //019   ----------------------------------------
 BYTE   PATT
  POIN2 Label_0116ED6D
//  #09 //020   ----------------------------------------
 BYTE   PATT
  POIN2 Label_0116ED62
//  #09 //021   ----------------------------------------
 BYTE   W78
 BYTE   GoTo
  POIN2 Label_0116ECFA
 BYTE   FINE

//**************** Track 10 (Midi-Chn.9) ****************//

PhoenixWrightAceAttorneyJusticeForAllSearchIntheMidst_010:
//  #10 //000   ----------------------------------------
 BYTE   KEYSH   PhoenixWrightAceAttorneyJusticeForAllSearchIntheMidst_key+0
Label_0116EDBE:
 BYTE   VOICE   121
 BYTE   LFOS 44
 BYTE   VOL   52*PhoenixWrightAceAttorneyJusticeForAllSearchIntheMidst_mvl/mxv
 BYTE   PAN   c_v+11
 BYTE   W54
 BYTE   N06  En1  v076
 BYTE   W18
 BYTE   N12  En1  v060
 BYTE   W24
//  #10 //001   ----------------------------------------
Label_0116EDCF:
 BYTE   W48
 BYTE   N12  En1  v076
 BYTE   W12
 BYTE   En1  v060
 BYTE   W36
 BYTE   PEND 
//  #10 //002   ----------------------------------------
Label_0116EDD8:
 BYTE   W54
 BYTE   N06  En1  v076
 BYTE   W18
 BYTE   N12  En1  v060
 BYTE   W24
 BYTE   PEND 
//  #10 //003   ----------------------------------------
Label_0116EDE2:
 BYTE   W48
 BYTE   N06  En1  v040
 BYTE   W06
 BYTE   En1  v044
 BYTE   W06
 BYTE   En1  v048
 BYTE   W06
 BYTE   En1  v052
 BYTE   W06
 BYTE   N12  En1  v076
 BYTE   W24
 BYTE   PEND 
//  #10 //004   ----------------------------------------
 BYTE   PATT
  POIN2 Label_0116EDD8
//  #10 //005   ----------------------------------------
 BYTE   PATT
  POIN2 Label_0116EDCF
//  #10 //006   ----------------------------------------
 BYTE   PATT
  POIN2 Label_0116EDD8
//  #10 //007   ----------------------------------------
 BYTE   PATT
  POIN2 Label_0116EDE2
//  #10 //008   ----------------------------------------
 BYTE   PATT
  POIN2 Label_0116EDD8
//  #10 //009   ----------------------------------------
 BYTE   PATT
  POIN2 Label_0116EDCF
//  #10 //010   ----------------------------------------
 BYTE   PATT
  POIN2 Label_0116EDD8
//  #10 //011   ----------------------------------------
 BYTE   PATT
  POIN2 Label_0116EDE2
//  #10 //012   ----------------------------------------
 BYTE   W96
//  #10 //013   ----------------------------------------
 BYTE   W96
//  #10 //014   ----------------------------------------
Label_0116EE1F:
 BYTE   W24
 BYTE   N12  En1  v076
 BYTE   W30
 BYTE   En1  v060
 BYTE   W42
 BYTE   PEND 
//  #10 //015   ----------------------------------------
Label_0116EE28:
 BYTE   W24
 BYTE   N12  En1  v076
 BYTE   W48
 BYTE   N12
 BYTE   W24
 BYTE   PEND 
//  #10 //016   ----------------------------------------
 BYTE   PATT
  POIN2 Label_0116EE1F
//  #10 //017   ----------------------------------------
 BYTE   W24
 BYTE   N12  En1  v076
 BYTE   W48
 BYTE   N12
 BYTE   W12
 BYTE   N06
 BYTE   W06
 BYTE   En1  v060
 BYTE   W06
//  #10 //018   ----------------------------------------
 BYTE   PATT
  POIN2 Label_0116EE1F
//  #10 //019   ----------------------------------------
 BYTE   PATT
  POIN2 Label_0116EE28
//  #10 //020   ----------------------------------------
 BYTE   PATT
  POIN2 Label_0116EE1F
//  #10 //021   ----------------------------------------
 BYTE   W12
 BYTE   N06  En1  v076
 BYTE   W06
 BYTE   En1  v060
 BYTE   W06
 BYTE   En1  v076
 BYTE   W06
 BYTE   N12  En1  v060
 BYTE   W18
 BYTE   N06  En1  v076
 BYTE   W06
 BYTE   En1  v060
 BYTE   W06
 BYTE   En1  v076
 BYTE   W06
 BYTE   N12  En1  v060
 BYTE   W12
 BYTE   GoTo
  POIN2 Label_0116EDBE
 BYTE   FINE

//**************** Track 11 (Midi-Chn.10) ****************//

PhoenixWrightAceAttorneyJusticeForAllSearchIntheMidst_011:
//  #11 //000   ----------------------------------------
 BYTE   KEYSH   PhoenixWrightAceAttorneyJusticeForAllSearchIntheMidst_key+0
Label_0116EB5A:
 BYTE   VOICE   121
 BYTE   LFOS 44
 BYTE   VOL   41*PhoenixWrightAceAttorneyJusticeForAllSearchIntheMidst_mvl/mxv
 BYTE   PAN   c_v+11
 BYTE   W12
 BYTE   N12  Dn1  v068
 BYTE   W24
 BYTE   N12
 BYTE   W48
 BYTE   N06  Fn1  v092
 BYTE   W12
//  #11 //001   ----------------------------------------
Label_0116EB6D:
 BYTE   W12
 BYTE   N12  Dn1  v068
 BYTE   W24
 BYTE   N12
 BYTE   W60
 BYTE   PEND 
//  #11 //002   ----------------------------------------
Label_0116EB75:
 BYTE   W12
 BYTE   N12  Dn1  v068
 BYTE   W24
 BYTE   N12
 BYTE   W48
 BYTE   N06  Fn1  v092
 BYTE   W12
 BYTE   PEND 
//  #11 //003   ----------------------------------------
 BYTE   PATT
  POIN2 Label_0116EB6D
//  #11 //004   ----------------------------------------
 BYTE   PATT
  POIN2 Label_0116EB75
//  #11 //005   ----------------------------------------
 BYTE   PATT
  POIN2 Label_0116EB6D
//  #11 //006   ----------------------------------------
 BYTE   PATT
  POIN2 Label_0116EB75
//  #11 //007   ----------------------------------------
 BYTE   PATT
  POIN2 Label_0116EB6D
//  #11 //008   ----------------------------------------
 BYTE   PATT
  POIN2 Label_0116EB75
//  #11 //009   ----------------------------------------
 BYTE   PATT
  POIN2 Label_0116EB6D
//  #11 //010   ----------------------------------------
 BYTE   PATT
  POIN2 Label_0116EB75
//  #11 //011   ----------------------------------------
 BYTE   PATT
  POIN2 Label_0116EB6D
//  #11 //012   ----------------------------------------
Label_0116EBAE:
 BYTE   W36
 BYTE   N12  Dn1  v068
 BYTE   W24
 BYTE   N12
 BYTE   W36
 BYTE   PEND 
//  #11 //013   ----------------------------------------
 BYTE   PATT
  POIN2 Label_0116EBAE
//  #11 //014   ----------------------------------------
Label_0116EBBB:
 BYTE   W12
 BYTE   N06  Fn1  v092
 BYTE   W24
 BYTE   N06
 BYTE   W48
 BYTE   N06
 BYTE   W12
 BYTE   PEND 
//  #11 //015   ----------------------------------------
Label_0116EBC5:
 BYTE   W12
 BYTE   N06  Fn1  v092
 BYTE   W24
 BYTE   N06
 BYTE   W12
 BYTE   N12  Dn1  v068
 BYTE   W48
 BYTE   PEND 
//  #11 //016   ----------------------------------------
 BYTE   PATT
  POIN2 Label_0116EBBB
//  #11 //017   ----------------------------------------
 BYTE   PATT
  POIN2 Label_0116EBC5
//  #11 //018   ----------------------------------------
 BYTE   PATT
  POIN2 Label_0116EBBB
//  #11 //019   ----------------------------------------
 BYTE   PATT
  POIN2 Label_0116EBC5
//  #11 //020   ----------------------------------------
 BYTE   PATT
  POIN2 Label_0116EBBB
//  #11 //021   ----------------------------------------
 BYTE   W78
 BYTE   GoTo
  POIN2 Label_0116EB5A
 BYTE   FINE

//**************** Track 12 (Midi-Chn.11) ****************//

PhoenixWrightAceAttorneyJusticeForAllSearchIntheMidst_012:
//  #12 //000   ----------------------------------------
 BYTE   KEYSH   PhoenixWrightAceAttorneyJusticeForAllSearchIntheMidst_key+0
Label_01172C06:
 BYTE   VOICE   121
 BYTE   LFOS 44
 BYTE   VOL   40*PhoenixWrightAceAttorneyJusticeForAllSearchIntheMidst_mvl/mxv
 BYTE   PAN   c_v+11
 BYTE   W96
//  #12 //001   ----------------------------------------
 BYTE   W96
//  #12 //002   ----------------------------------------
 BYTE   W96
//  #12 //003   ----------------------------------------
 BYTE   W96
//  #12 //004   ----------------------------------------
 BYTE   W96
//  #12 //005   ----------------------------------------
 BYTE   W96
//  #12 //006   ----------------------------------------
 BYTE   W96
//  #12 //007   ----------------------------------------
 BYTE   W96
//  #12 //008   ----------------------------------------
 BYTE   W96
//  #12 //009   ----------------------------------------
 BYTE   W96
//  #12 //010   ----------------------------------------
 BYTE   W96
//  #12 //011   ----------------------------------------
 BYTE   W96
//  #12 //012   ----------------------------------------
 BYTE   W24
 BYTE   N30  Dn1  v088
 BYTE   W30
 BYTE   N18  Dn1  v068
 BYTE   W18
 BYTE   N24  Dn1  v088
 BYTE   W24
//  #12 //013   ----------------------------------------
 BYTE   W24
 BYTE   N18
 BYTE   W18
 BYTE   N12  Dn1  v068
 BYTE   W12
 BYTE   N18
 BYTE   W18
 BYTE   N24  Dn1  v088
 BYTE   W24
//  #12 //014   ----------------------------------------
 BYTE   W96
//  #12 //015   ----------------------------------------
 BYTE   W96
//  #12 //016   ----------------------------------------
 BYTE   W96
//  #12 //017   ----------------------------------------
 BYTE   W96
//  #12 //018   ----------------------------------------
 BYTE   W96
//  #12 //019   ----------------------------------------
 BYTE   W96
//  #12 //020   ----------------------------------------
 BYTE   W96
//  #12 //021   ----------------------------------------
 BYTE   W78
 BYTE   GoTo
  POIN2 Label_01172C06
 BYTE   FINE

//**************** Track 13 (Midi-Chn.12) ****************//

PhoenixWrightAceAttorneyJusticeForAllSearchIntheMidst_013:
//  #13 //000   ----------------------------------------
 BYTE   KEYSH   PhoenixWrightAceAttorneyJusticeForAllSearchIntheMidst_key+0
Label_011908BE:
 BYTE   VOICE   121
 BYTE   LFOS 44
 BYTE   VOL   31*PhoenixWrightAceAttorneyJusticeForAllSearchIntheMidst_mvl/mxv
 BYTE   PAN   c_v+12
 BYTE   W96
//  #13 //001   ----------------------------------------
 BYTE   W96
//  #13 //002   ----------------------------------------
 BYTE   W96
//  #13 //003   ----------------------------------------
 BYTE   W96
//  #13 //004   ----------------------------------------
 BYTE   W96
//  #13 //005   ----------------------------------------
 BYTE   W96
//  #13 //006   ----------------------------------------
 BYTE   W96
//  #13 //007   ----------------------------------------
 BYTE   W96
//  #13 //008   ----------------------------------------
 BYTE   W96
//  #13 //009   ----------------------------------------
 BYTE   W96
//  #13 //010   ----------------------------------------
 BYTE   W96
//  #13 //011   ----------------------------------------
 BYTE   W96
//  #13 //012   ----------------------------------------
 BYTE   W30
 BYTE   N30  Dn1  v092
 BYTE   W30
 BYTE   N18  Dn1  v068
 BYTE   W18
 BYTE   N24  Dn1  v092
 BYTE   W18
//  #13 //013   ----------------------------------------
 BYTE   W30
 BYTE   N18
 BYTE   W18
 BYTE   N12  Dn1  v068
 BYTE   W12
 BYTE   N18
 BYTE   W18
 BYTE   N24  Dn1  v092
 BYTE   W18
//  #13 //014   ----------------------------------------
 BYTE   W96
//  #13 //015   ----------------------------------------
 BYTE   W96
//  #13 //016   ----------------------------------------
 BYTE   W96
//  #13 //017   ----------------------------------------
 BYTE   W96
//  #13 //018   ----------------------------------------
 BYTE   W96
//  #13 //019   ----------------------------------------
 BYTE   W96
//  #13 //020   ----------------------------------------
 BYTE   W96
//  #13 //021   ----------------------------------------
 BYTE   W78
 BYTE   GoTo
  POIN2 Label_011908BE
 BYTE   FINE

//******************************************************//
	ALIGN 4

PhoenixWrightAceAttorneyJusticeForAllSearchIntheMidst:
	BYTE	13	// NumTrks
	BYTE	0	// NumBlks
	BYTE	PhoenixWrightAceAttorneyJusticeForAllSearchIntheMidst_pri	// Priority
	BYTE	PhoenixWrightAceAttorneyJusticeForAllSearchIntheMidst_rev	// Reverb.
    
	POIN2	PhoenixWrightAceAttorneyJusticeForAllSearchIntheMidst_grp
    
	POIN2	PhoenixWrightAceAttorneyJusticeForAllSearchIntheMidst_001
	POIN2	PhoenixWrightAceAttorneyJusticeForAllSearchIntheMidst_002
	POIN2	PhoenixWrightAceAttorneyJusticeForAllSearchIntheMidst_003
	POIN2	PhoenixWrightAceAttorneyJusticeForAllSearchIntheMidst_004
	POIN2	PhoenixWrightAceAttorneyJusticeForAllSearchIntheMidst_005
	POIN2	PhoenixWrightAceAttorneyJusticeForAllSearchIntheMidst_006
	POIN2	PhoenixWrightAceAttorneyJusticeForAllSearchIntheMidst_007
	POIN2	PhoenixWrightAceAttorneyJusticeForAllSearchIntheMidst_008
	POIN2	PhoenixWrightAceAttorneyJusticeForAllSearchIntheMidst_009
	POIN2	PhoenixWrightAceAttorneyJusticeForAllSearchIntheMidst_010
	POIN2	PhoenixWrightAceAttorneyJusticeForAllSearchIntheMidst_011
	POIN2	PhoenixWrightAceAttorneyJusticeForAllSearchIntheMidst_012
	POIN2	PhoenixWrightAceAttorneyJusticeForAllSearchIntheMidst_013

	
