//Event file generated from Sappy .s format.
	#include "MPlayDef.event"

	#define	LegendofZeldaOcarinaofTimeOwlThemes_grp  voicegroup000
	#define	LegendofZeldaOcarinaofTimeOwlThemes_pri  0
	#define	LegendofZeldaOcarinaofTimeOwlThemes_rev  0
	#define	LegendofZeldaOcarinaofTimeOwlThemes_mvl  127
	#define	LegendofZeldaOcarinaofTimeOwlThemes_key  0
	#define	LegendofZeldaOcarinaofTimeOwlThemes_tbs  1
	#define	LegendofZeldaOcarinaofTimeOwlThemes_exg  0
	#define	LegendofZeldaOcarinaofTimeOwlThemes_cmp  1

	// .rodata
	//	LegendofZeldaOcarinaofTimeOwlThemes
	ALIGN 4


//**************** Track 1 (Midi-Chn.0) ****************//

LegendofZeldaOcarinaofTimeOwlThemes_001:
//  #01 //000   ----------------------------------------
 BYTE   VOL   45*LegendofZeldaOcarinaofTimeOwlThemes_mvl/mxv
 BYTE   KEYSH   LegendofZeldaOcarinaofTimeOwlThemes_key+0
Label_012BD5D8:
 BYTE   TEMPO   150*LegendofZeldaOcarinaofTimeOwlThemes_tbs/2
 BYTE   VOICE   69
 BYTE   MODT 0
 BYTE   LFOS 44
 BYTE   W72
 BYTE   W72
//  #01 //001   ----------------------------------------
 BYTE   W72
 BYTE   W72
//  #01 //002   ----------------------------------------
 BYTE   W72
 BYTE   W72
//  #01 //003   ----------------------------------------
 BYTE   W72
 BYTE   W72
//  #01 //004   ----------------------------------------
 BYTE   W72
 BYTE   W72
//  #01 //005   ----------------------------------------
 BYTE   W72
 BYTE   W72
//  #01 //006   ----------------------------------------
 BYTE   W72
 BYTE   W72
//  #01 //007   ----------------------------------------
 BYTE   W72
 BYTE   W72
//  #01 //008   ----------------------------------------
 BYTE   TEMPO   150*LegendofZeldaOcarinaofTimeOwlThemes_tbs/2
 BYTE   W72
 BYTE   W72
//  #01 //009   ----------------------------------------
 BYTE   W72
 BYTE   W72
//  #01 //010   ----------------------------------------
 BYTE   W72
 BYTE   TEMPO   124*LegendofZeldaOcarinaofTimeOwlThemes_tbs/2
 BYTE   W06
 BYTE   TEMPO   106*LegendofZeldaOcarinaofTimeOwlThemes_tbs/2
 BYTE   W06
 BYTE   TEMPO   92*LegendofZeldaOcarinaofTimeOwlThemes_tbs/2
 BYTE   W06
 BYTE   TEMPO   82*LegendofZeldaOcarinaofTimeOwlThemes_tbs/2
 BYTE   W06
//  #01 //011   ----------------------------------------
 BYTE   TEMPO   150*LegendofZeldaOcarinaofTimeOwlThemes_tbs/2
 BYTE   W24
 BYTE   N24  Ds3  v112
 BYTE   N24  Gn3
 BYTE   W24
 BYTE   N24
 BYTE   N24  As3
 BYTE   W24
 BYTE   N24
 BYTE   N24  Ds4
 BYTE   W24
//  #01 //012   ----------------------------------------
 BYTE   N24
 BYTE   N22  Gn4
 BYTE   W24
 BYTE   N24  As3
 BYTE   N24  Ds4
 BYTE   W24
 BYTE   Gn3
 BYTE   N24  As3
 BYTE   W24
 BYTE   N48  Ds3
 BYTE   N44  Gn3
 BYTE   W24
//  #01 //013   ----------------------------------------
 BYTE   W24
 BYTE   N24  Fn3
 BYTE   N24  Gs3
 BYTE   W24
 BYTE   N24
 BYTE   N24  Cn4
 BYTE   W24
 BYTE   N24
 BYTE   N24  Fn4
 BYTE   W24
//  #01 //014   ----------------------------------------
 BYTE   N21  Gs4
 BYTE   W48
 BYTE   W72
//  #01 //015   ----------------------------------------
 BYTE   N24  As2
 BYTE   N24  Dn3
 BYTE   W24
 BYTE   N24
 BYTE   N24  Fn3
 BYTE   W24
 BYTE   N24
 BYTE   N24  As3
 BYTE   W24
 BYTE   N24
 BYTE   N24  Dn4
 BYTE   W24
//  #01 //016   ----------------------------------------
 BYTE   Fn3
 BYTE   N24  As3
 BYTE   W24
 BYTE   Dn3
 BYTE   N24  Fn3
 BYTE   W24
 BYTE   N48  As2
 BYTE   N48  Dn3
 BYTE   W48
//  #01 //017   ----------------------------------------
 BYTE   N24  Ds3
 BYTE   N24  Gn3
 BYTE   W24
 BYTE   N24
 BYTE   N24  As3
 BYTE   W24
 BYTE   N24
 BYTE   N24  Ds4
 BYTE   W24
 BYTE   N22  Gn4
 BYTE   W24
//  #01 //018   ----------------------------------------
 BYTE   W72
 BYTE   N24  Ds3
 BYTE   W12
 BYTE   Gn3
 BYTE   W12
//  #01 //019   ----------------------------------------
 BYTE   As3
 BYTE   W12
 BYTE   Ds4
 BYTE   W12
 BYTE   N22  Gn4
 BYTE   W12
 BYTE   N24  Ds4
 BYTE   W12
 BYTE   As3
 BYTE   W12
 BYTE   Gn3
 BYTE   W12
 BYTE   N22  Gn4
 BYTE   W12
 BYTE   N24  Ds4
 BYTE   W12
//  #01 //020   ----------------------------------------
 BYTE   As3
 BYTE   W12
 BYTE   Gn3
 BYTE   W12
 BYTE   N22  Gn4
 BYTE   W12
 BYTE   N24  Ds4
 BYTE   W12
 BYTE   As3
 BYTE   W12
 BYTE   Gn3
 BYTE   W12
 BYTE   Fn3
 BYTE   W12
 BYTE   Gs3
 BYTE   W12
//  #01 //021   ----------------------------------------
 BYTE   Cn4
 BYTE   W12
 BYTE   Fn4
 BYTE   W12
 BYTE   N21  Gs4
 BYTE   W12
 BYTE   N24  Fn4
 BYTE   W12
 BYTE   Cn4
 BYTE   W12
 BYTE   Gs3
 BYTE   W12
 BYTE   N21  Gs4
 BYTE   W12
 BYTE   N24  Fn4
 BYTE   W12
//  #01 //022   ----------------------------------------
 BYTE   Cn4
 BYTE   W12
 BYTE   Gs3
 BYTE   W12
 BYTE   N21  Gs4
 BYTE   W12
 BYTE   N24  Fn4
 BYTE   W12
 BYTE   Cn4
 BYTE   W12
 BYTE   Gs3
 BYTE   W12
 BYTE   TEMPO   150*LegendofZeldaOcarinaofTimeOwlThemes_tbs/2
 BYTE   As2
 BYTE   W12
 BYTE   Fn3
 BYTE   W12
//  #01 //023   ----------------------------------------
 BYTE   As3
 BYTE   W12
 BYTE   Dn4
 BYTE   W12
 BYTE   Fn4
 BYTE   W12
 BYTE   Dn4
 BYTE   W12
 BYTE   As3
 BYTE   W12
 BYTE   Fn3
 BYTE   W12
 BYTE   Fn4
 BYTE   W12
 BYTE   Dn4
 BYTE   W12
//  #01 //024   ----------------------------------------
 BYTE   As3
 BYTE   W12
 BYTE   Fn3
 BYTE   W12
 BYTE   Fn4
 BYTE   W12
 BYTE   Dn4
 BYTE   W12
 BYTE   As3
 BYTE   W12
 BYTE   Fn3
 BYTE   W12
 BYTE   Ds3
 BYTE   W12
 BYTE   As3
 BYTE   W12
//  #01 //025   ----------------------------------------
 BYTE   Ds4
 BYTE   W12
 BYTE   N22  Gn4
 BYTE   W12
 BYTE   N24  Dn3
 BYTE   W12
 BYTE   As3
 BYTE   W12
 BYTE   Cs4
 BYTE   W12
 BYTE   N12  Fn4
 BYTE   W12
 BYTE   TEMPO   124*LegendofZeldaOcarinaofTimeOwlThemes_tbs/2
 BYTE   N24  As3
 BYTE   N23  Ds4
 BYTE   W24
//  #01 //026   ----------------------------------------
 BYTE   TEMPO   106*LegendofZeldaOcarinaofTimeOwlThemes_tbs/2
 BYTE   N20
 BYTE   N16  Gn4
 BYTE   W24
 BYTE   TEMPO   92*LegendofZeldaOcarinaofTimeOwlThemes_tbs/2
 BYTE   N23  As3
 BYTE   N17  Ds4
 BYTE   W24
 BYTE   GoTo
  POIN2 Label_012BD5D8
//  #01 //027   ----------------------------------------
 BYTE   N23  As3  v072
 BYTE   W23
 BYTE   FINE

//**************** Track 2 (Midi-Chn.1) ****************//

LegendofZeldaOcarinaofTimeOwlThemes_002:
//  #02 //000   ----------------------------------------
 BYTE   VOL   115*LegendofZeldaOcarinaofTimeOwlThemes_mvl/mxv
 BYTE   KEYSH   LegendofZeldaOcarinaofTimeOwlThemes_key+0
Label_012BD35C:
 BYTE   VOICE   71
 BYTE   MODT 0
 BYTE   LFOS 44
 BYTE   N36  Cn3  v040
 BYTE   W36
 BYTE   N12  Bn2
 BYTE   W12
 BYTE   N36  Cn3
 BYTE   W24
Label_012BD36C:
 BYTE   W12
 BYTE   N12  Bn2  v040
 BYTE   W12
//  #02 //001   ----------------------------------------
 BYTE   Cn3
 BYTE   W12
 BYTE   Dn3
 BYTE   W12
 BYTE   Ds3
 BYTE   W12
 BYTE   Fn3
 BYTE   W12
 BYTE   PEND 
 BYTE   N24  Gn3
 BYTE   W24
 BYTE   Cn3
 BYTE   W24
//  #02 //002   ----------------------------------------
 BYTE   Gn3
 BYTE   W24
 BYTE   Cn4
 BYTE   W24
 BYTE   N12  As3
 BYTE   W12
 BYTE   Gs3
 BYTE   W12
 BYTE   Gn3
 BYTE   W12
 BYTE   Fn3
 BYTE   W12
//  #02 //003   ----------------------------------------
 BYTE   N24  Ds3
 BYTE   W24
 BYTE   N12  Dn3
 BYTE   W12
 BYTE   Cn3
 BYTE   W12
 BYTE   N24  Bn2
 BYTE   W24
 BYTE   Gn2
 BYTE   W24
//  #02 //004   ----------------------------------------
 BYTE   N36  Cn3
 BYTE   W36
 BYTE   N12  Bn2
 BYTE   W12
 BYTE   N36  Cn3
 BYTE   W36
 BYTE   N12  Bn2
 BYTE   W12
//  #02 //005   ----------------------------------------
 BYTE   Cn3
 BYTE   W12
 BYTE   Dn3
 BYTE   W12
 BYTE   Ds3
 BYTE   W12
 BYTE   Fn3
 BYTE   W12
 BYTE   N24  Gn3
 BYTE   W24
 BYTE   Cn3
 BYTE   W24
//  #02 //006   ----------------------------------------
 BYTE   Fn3
 BYTE   W24
 BYTE   Gs3
 BYTE   W24
 BYTE   N12  Gn3
 BYTE   W12
 BYTE   Fn3
 BYTE   W12
 BYTE   Ds3
 BYTE   W12
 BYTE   Dn3
 BYTE   W12
//  #02 //007   ----------------------------------------
 BYTE   N36
 BYTE   W36
 BYTE   N12  Cn3
 BYTE   W12
 BYTE   N48
 BYTE   W48
//  #02 //008   ----------------------------------------
 BYTE   N36
 BYTE   W24
 BYTE   W12
 BYTE   N12  Bn2
 BYTE   W12
 BYTE   N36  Cn3
 BYTE   W36
 BYTE   N12  Bn2
 BYTE   W12
//  #02 //009   ----------------------------------------
 BYTE   Cn3
 BYTE   W12
 BYTE   Dn3
 BYTE   W12
 BYTE   Ds3
 BYTE   W12
 BYTE   Fn3
 BYTE   W12
 BYTE   N24  Gn3
 BYTE   W24
 BYTE   Cn3
 BYTE   W24
//  #02 //010   ----------------------------------------
 BYTE   Gn3
 BYTE   W24
 BYTE   Cn4
 BYTE   W24
 BYTE   N12  As3
 BYTE   W12
 BYTE   Gs3
 BYTE   W12
 BYTE   Gn3
 BYTE   W12
 BYTE   Fn3
 BYTE   W12
//  #02 //011   ----------------------------------------
 BYTE   N24  Ds3
 BYTE   W24
 BYTE   N12  Dn3
 BYTE   W12
 BYTE   Cn3
 BYTE   W12
 BYTE   N24  Bn2
 BYTE   W24
 BYTE   Gn2
 BYTE   W24
//  #02 //012   ----------------------------------------
 BYTE   N36  Cn3
 BYTE   W36
 BYTE   N12  Bn2
 BYTE   W12
 BYTE   N36  Cn3
 BYTE   W24
//  #02 //013   ----------------------------------------
 BYTE   PATT
  POIN2 Label_012BD36C
//  #02 //014   ----------------------------------------
 BYTE   N24  Gn3  v040
 BYTE   W24
 BYTE   Cn3
 BYTE   W24
 BYTE   Fn3
 BYTE   W24
 BYTE   Gs3
 BYTE   W24
//  #02 //015   ----------------------------------------
 BYTE   N12  Gn3
 BYTE   W12
 BYTE   Fn3
 BYTE   W12
 BYTE   Ds3
 BYTE   W12
 BYTE   Dn3
 BYTE   W12
 BYTE   N36
 BYTE   W36
 BYTE   N12  Cn3
 BYTE   W12
//  #02 //016   ----------------------------------------
 BYTE   N48
 BYTE   W24
 BYTE   W24
 BYTE   N24  As3
 BYTE   W24
 BYTE   N12  Gn3
 BYTE   W12
 BYTE   Gs3
 BYTE   W12
//  #02 //017   ----------------------------------------
 BYTE   N24  As3
 BYTE   W24
 BYTE   N12  Gn3
 BYTE   W12
 BYTE   Gs3
 BYTE   W12
 BYTE   N24  As3
 BYTE   W24
 BYTE   N12  Ds4
 BYTE   W12
 BYTE   Dn4
 BYTE   W12
//  #02 //018   ----------------------------------------
 BYTE   N24  Cn4
 BYTE   W24
 BYTE   As3
 BYTE   W24
 BYTE   Cn4
 BYTE   W24
 BYTE   N12  Gs3
 BYTE   W12
 BYTE   As3
 BYTE   W12
//  #02 //019   ----------------------------------------
 BYTE   N24  Gs3
 BYTE   W24
 BYTE   Gn3
 BYTE   W24
 BYTE   N96  Fn3
 BYTE   N96  Gs3
 BYTE   W48
//  #02 //020   ----------------------------------------
 BYTE   W48
 BYTE   N24  Fn3
 BYTE   W24
 BYTE   N12  Dn3
 BYTE   W12
 BYTE   Ds3
 BYTE   W12
//  #02 //021   ----------------------------------------
 BYTE   N24  Fn3
 BYTE   W24
 BYTE   N12  Dn3
 BYTE   W12
 BYTE   Ds3
 BYTE   W12
 BYTE   N24  Fn3
 BYTE   W24
 BYTE   N12  Dn4
 BYTE   W12
 BYTE   Cn4
 BYTE   W12
//  #02 //022   ----------------------------------------
 BYTE   N24  As3
 BYTE   W24
 BYTE   Gs3
 BYTE   W24
 BYTE   N24
 BYTE   W24
 BYTE   N12  As3
 BYTE   W12
 BYTE   Gs3
 BYTE   W12
//  #02 //023   ----------------------------------------
 BYTE   N24  Gn3
 BYTE   W24
 BYTE   Fn3
 BYTE   W24
 BYTE   TIE  Ds3
 BYTE   N96  Gn3
 BYTE   W24
 BYTE   W72
//  #02 //024   ----------------------------------------
 BYTE   N24  As3
 BYTE   W12
 BYTE   EOT
 BYTE   Ds3
 BYTE   W12
 BYTE   N12  Gn3
 BYTE   W12
 BYTE   Gs3
 BYTE   W12
 BYTE   N24  As3
 BYTE   W24
 BYTE   N12  Gn3
 BYTE   W12
 BYTE   Gs3
 BYTE   W12
//  #02 //025   ----------------------------------------
 BYTE   N24  As3
 BYTE   W24
 BYTE   N12  Ds4
 BYTE   W12
 BYTE   Dn4
 BYTE   W12
 BYTE   N24  Cn4
 BYTE   W24
 BYTE   As3
 BYTE   W24
//  #02 //026   ----------------------------------------
 BYTE   Cn4
 BYTE   W24
 BYTE   N12  Gs3
 BYTE   W12
 BYTE   As3
 BYTE   W12
 BYTE   N24  Gs3
 BYTE   W24
 BYTE   Gn3
 BYTE   W24
//  #02 //027   ----------------------------------------
 BYTE   N96  Gs3
 BYTE   W72
 BYTE   W24
//  #02 //028   ----------------------------------------
 BYTE   N24  Fn3
 BYTE   W24
 BYTE   N12  Dn3
 BYTE   W12
 BYTE   Ds3
 BYTE   W12
 BYTE   N24  Fn3
 BYTE   W24
 BYTE   N12  Dn3
 BYTE   W12
 BYTE   Ds3
 BYTE   W12
//  #02 //029   ----------------------------------------
 BYTE   N24  Fn3
 BYTE   W24
 BYTE   N12  Dn4
 BYTE   W12
 BYTE   Cn4
 BYTE   W12
 BYTE   N24  As3
 BYTE   W24
 BYTE   Gs3
 BYTE   W24
//  #02 //030   ----------------------------------------
 BYTE   Gn3
 BYTE   W24
 BYTE   N12  Fn3
 BYTE   W12
 BYTE   Ds3
 BYTE   W12
 BYTE   N36  Dn3
 BYTE   W24
 BYTE   W12
 BYTE   N12  Ds3
 BYTE   W12
//  #02 //031   ----------------------------------------
 BYTE   N96
 BYTE   W48
 BYTE   W24
 BYTE   GoTo
  POIN2 Label_012BD35C
//  #02 //032   ----------------------------------------
 BYTE   W24
 BYTE   FINE

//**************** Track 3 (Midi-Chn.2) ****************//

LegendofZeldaOcarinaofTimeOwlThemes_003:
//  #03 //000   ----------------------------------------
 BYTE   VOL   115*LegendofZeldaOcarinaofTimeOwlThemes_mvl/mxv
 BYTE   KEYSH   LegendofZeldaOcarinaofTimeOwlThemes_key+0
Label_012BD70C:
 BYTE   VOICE   45
 BYTE   MODT 0
 BYTE   LFOS 44
 BYTE   N24  Cn2  v072
 BYTE   W24
 BYTE   Gn2
 BYTE   W24
 BYTE   N36  Cn3
 BYTE   W24
Label_012BD71B:
 BYTE   W24
//  #03 //001   ----------------------------------------
 BYTE   N24  Cn2  v072
 BYTE   W24
 BYTE   Gn2
 BYTE   W24
 BYTE   PEND 
 BYTE   N36  Cn3
 BYTE   W48
//  #03 //002   ----------------------------------------
 BYTE   N24  Ds2
 BYTE   W24
 BYTE   As2
 BYTE   W24
 BYTE   N30  Ds3
 BYTE   W48
//  #03 //003   ----------------------------------------
 BYTE   N24  Ds2
 BYTE   W24
 BYTE   Gn2
 BYTE   W24
 BYTE   N32  Dn3
 BYTE   W24
//  #03 //004   ----------------------------------------
 BYTE   PATT
  POIN2 Label_012BD71B
//  #03 //005   ----------------------------------------
Label_012BD73B:
 BYTE   N36  Cn3  v072
 BYTE   W48
 BYTE   N24  Cn2
 BYTE   W24
 BYTE   PEND 
Label_012BD743:
 BYTE   N24  Gn2  v072
 BYTE   W24
//  #03 //006   ----------------------------------------
 BYTE   N36  Cn3
 BYTE   W48
 BYTE   PEND 
 BYTE   N24  Fn2
 BYTE   W24
 BYTE   Cn3
 BYTE   W24
//  #03 //007   ----------------------------------------
 BYTE   Fn3
 BYTE   W24
 BYTE   W48
 BYTE   Gn2
 BYTE   W24
//  #03 //008   ----------------------------------------
 BYTE   PATT
  POIN2 Label_012BD73B
//  #03 //009   ----------------------------------------
 BYTE   PATT
  POIN2 Label_012BD743
//  #03 //010   ----------------------------------------
Label_012BD75F:
 BYTE   N24  Cn2  v072
 BYTE   W24
 BYTE   Gn2
 BYTE   W24
 BYTE   N36  Cn3
 BYTE   W24
 BYTE   PEND 
 BYTE   W24
//  #03 //011   ----------------------------------------
 BYTE   N24  Ds2
 BYTE   W24
 BYTE   As2
 BYTE   W24
 BYTE   N30  Ds3
 BYTE   W48
//  #03 //012   ----------------------------------------
 BYTE   N24  Ds2
 BYTE   W24
 BYTE   Gn2
 BYTE   W24
 BYTE   N32  Dn3
 BYTE   W48
//  #03 //013   ----------------------------------------
 BYTE   PATT
  POIN2 Label_012BD75F
//  #03 //014   ----------------------------------------
 BYTE   PATT
  POIN2 Label_012BD71B
//  #03 //015   ----------------------------------------
 BYTE   N36  Cn3  v072
 BYTE   W48
 BYTE   N24  Fn2
 BYTE   W24
 BYTE   Cn3
 BYTE   W24
//  #03 //016   ----------------------------------------
 BYTE   Fn3
 BYTE   W48
 BYTE   W24
 BYTE   Gn2
 BYTE   W24
//  #03 //017   ----------------------------------------
 BYTE   N36  Cn3
 BYTE   W24
 BYTE   W72
//  #03 //018   ----------------------------------------
 BYTE   W72
 BYTE   W72
//  #03 //019   ----------------------------------------
 BYTE   W72
 BYTE   W72
//  #03 //020   ----------------------------------------
 BYTE   W72
 BYTE   W72
//  #03 //021   ----------------------------------------
 BYTE   W72
 BYTE   W72
//  #03 //022   ----------------------------------------
 BYTE   W72
 BYTE   W72
//  #03 //023   ----------------------------------------
 BYTE   W72
 BYTE   W72
//  #03 //024   ----------------------------------------
 BYTE   W72
 BYTE   W72
//  #03 //025   ----------------------------------------
 BYTE   W72
 BYTE   W72
//  #03 //026   ----------------------------------------
 BYTE   W72
 BYTE   W72
//  #03 //027   ----------------------------------------
 BYTE   W72
 BYTE   W72
//  #03 //028   ----------------------------------------
 BYTE   W24
 BYTE   GoTo
  POIN2 Label_012BD70C
 BYTE   FINE

//**************** Track 4 (Midi-Chn.3) ****************//

LegendofZeldaOcarinaofTimeOwlThemes_004:
//  #04 //000   ----------------------------------------
 BYTE   VOL   55*LegendofZeldaOcarinaofTimeOwlThemes_mvl/mxv
 BYTE   KEYSH   LegendofZeldaOcarinaofTimeOwlThemes_key+0
Label_012B8EE4:
 BYTE   VOICE   67
 BYTE   MODT 0
 BYTE   LFOS 44
 BYTE   W72
 BYTE   W72
//  #04 //001   ----------------------------------------
 BYTE   W72
 BYTE   W72
//  #04 //002   ----------------------------------------
 BYTE   W72
 BYTE   W72
//  #04 //003   ----------------------------------------
 BYTE   W72
 BYTE   W72
//  #04 //004   ----------------------------------------
 BYTE   W72
 BYTE   W72
//  #04 //005   ----------------------------------------
 BYTE   W48
 BYTE   N72  Ds3  v127
 BYTE   W24
 BYTE   W48
//  #04 //006   ----------------------------------------
 BYTE   N24  Fn3
 BYTE   W24
 BYTE   N48  Gn3
 BYTE   W48
 BYTE   Cn4
 BYTE   W24
//  #04 //007   ----------------------------------------
 BYTE   W24
 BYTE   Ds4
 BYTE   W48
 BYTE   N24  Dn4
 BYTE   W24
//  #04 //008   ----------------------------------------
 BYTE   Cn4
 BYTE   W24
 BYTE   N48  Bn3
 BYTE   W24
 BYTE   W24
 BYTE   Gn3
 BYTE   W48
//  #04 //009   ----------------------------------------
 BYTE   N72  Ds3
 BYTE   W72
 BYTE   N24  Fn3
 BYTE   W24
//  #04 //010   ----------------------------------------
 BYTE   N48  Gn3
 BYTE   W48
 BYTE   Cn4
 BYTE   W48
//  #04 //011   ----------------------------------------
 BYTE   Dn4
 BYTE   W24
 BYTE   W24
 BYTE   Bn3
 BYTE   W48
//  #04 //012   ----------------------------------------
 BYTE   N48
 BYTE   W48
 BYTE   N72  Cn4
 BYTE   W24
 BYTE   W72
//  #04 //013   ----------------------------------------
 BYTE   W72
 BYTE   W72
//  #04 //014   ----------------------------------------
 BYTE   W72
 BYTE   W72
//  #04 //015   ----------------------------------------
 BYTE   W72
 BYTE   W72
//  #04 //016   ----------------------------------------
 BYTE   W72
 BYTE   W72
//  #04 //017   ----------------------------------------
 BYTE   W72
 BYTE   W72
//  #04 //018   ----------------------------------------
 BYTE   W72
 BYTE   W72
//  #04 //019   ----------------------------------------
 BYTE   W72
 BYTE   W72
//  #04 //020   ----------------------------------------
 BYTE   W72
 BYTE   W72
//  #04 //021   ----------------------------------------
 BYTE   W72
 BYTE   W72
//  #04 //022   ----------------------------------------
 BYTE   W72
 BYTE   W72
//  #04 //023   ----------------------------------------
 BYTE   W24
 BYTE   GoTo
  POIN2 Label_012B8EE4
 BYTE   FINE

//**************** Track 5 (Midi-Chn.4) ****************//

LegendofZeldaOcarinaofTimeOwlThemes_005:
//  #05 //000   ----------------------------------------
 BYTE   VOL   115*LegendofZeldaOcarinaofTimeOwlThemes_mvl/mxv
 BYTE   KEYSH   LegendofZeldaOcarinaofTimeOwlThemes_key+0
Label_012BD4EC:
 BYTE   VOICE   42
 BYTE   MODT 0
 BYTE   LFOS 44
 BYTE   W72
 BYTE   W72
//  #05 //001   ----------------------------------------
 BYTE   W72
 BYTE   W72
//  #05 //002   ----------------------------------------
 BYTE   W72
 BYTE   W72
//  #05 //003   ----------------------------------------
 BYTE   W72
 BYTE   W72
//  #05 //004   ----------------------------------------
 BYTE   W72
 BYTE   W72
//  #05 //005   ----------------------------------------
 BYTE   W72
 BYTE   W72
//  #05 //006   ----------------------------------------
 BYTE   W72
 BYTE   W72
//  #05 //007   ----------------------------------------
 BYTE   W72
 BYTE   W72
//  #05 //008   ----------------------------------------
 BYTE   W72
 BYTE   W72
//  #05 //009   ----------------------------------------
 BYTE   W72
 BYTE   W72
//  #05 //010   ----------------------------------------
 BYTE   W72
 BYTE   W24
//  #05 //011   ----------------------------------------
 BYTE   N72  Ds1  v060
 BYTE   W48
Label_012BD50C:
 BYTE   W24
 BYTE   N24  As1  v060
 BYTE   W24
//  #05 //012   ----------------------------------------
 BYTE   N48  Ds2
 BYTE   W24
 BYTE   PEND 
 BYTE   W24
 BYTE   As1
 BYTE   W48
//  #05 //013   ----------------------------------------
 BYTE   N72  Fn1
 BYTE   W72
 BYTE   N24  Cn2
 BYTE   W24
//  #05 //014   ----------------------------------------
 BYTE   N48  Fn2
 BYTE   W48
 BYTE   Cn2
 BYTE   W48
//  #05 //015   ----------------------------------------
 BYTE   N72  As1
 BYTE   W24
 BYTE   W48
 BYTE   N24  Fn2
 BYTE   W24
//  #05 //016   ----------------------------------------
 BYTE   N48  As2
 BYTE   W48
 BYTE   Fn2
 BYTE   W24
 BYTE   W24
//  #05 //017   ----------------------------------------
 BYTE   N72  Ds1
 BYTE   W48
//  #05 //018   ----------------------------------------
 BYTE   PATT
  POIN2 Label_012BD50C
//  #05 //019   ----------------------------------------
 BYTE   W24
 BYTE   N48  As1  v060
 BYTE   W48
 BYTE   N72  Ds1
 BYTE   W72
//  #05 //020   ----------------------------------------
 BYTE   N24  As1
 BYTE   W24
 BYTE   N48  Ds2
 BYTE   W48
 BYTE   As1
 BYTE   W48
//  #05 //021   ----------------------------------------
 BYTE   N72  Fn1
 BYTE   W24
 BYTE   W48
 BYTE   N24  Cn2
 BYTE   W24
//  #05 //022   ----------------------------------------
 BYTE   N96  Fn2
 BYTE   W72
 BYTE   W24
//  #05 //023   ----------------------------------------
 BYTE   N72  As0
 BYTE   W48
 BYTE   W24
 BYTE   N24  Fn1
 BYTE   W24
//  #05 //024   ----------------------------------------
 BYTE   N48  As1
 BYTE   W24
 BYTE   W24
 BYTE   Fn1
 BYTE   W48
//  #05 //025   ----------------------------------------
 BYTE   Ds1
 BYTE   W48
 BYTE   As1
 BYTE   W24
 BYTE   W24
//  #05 //026   ----------------------------------------
 BYTE   N96  Ds1
 BYTE   W48
 BYTE   W24
 BYTE   GoTo
  POIN2 Label_012BD4EC
//  #05 //027   ----------------------------------------
 BYTE   W24
 BYTE   FINE

//******************************************************//
	ALIGN 4

LegendofZeldaOcarinaofTimeOwlThemes:
	BYTE	5	// NumTrks
	BYTE	0	// NumBlks
	BYTE	LegendofZeldaOcarinaofTimeOwlThemes_pri	// Priority
	BYTE	LegendofZeldaOcarinaofTimeOwlThemes_rev	// Reverb.
    
	POIN2	LegendofZeldaOcarinaofTimeOwlThemes_grp
    
	POIN2	LegendofZeldaOcarinaofTimeOwlThemes_001
	POIN2	LegendofZeldaOcarinaofTimeOwlThemes_002
	POIN2	LegendofZeldaOcarinaofTimeOwlThemes_003
	POIN2	LegendofZeldaOcarinaofTimeOwlThemes_004
	POIN2	LegendofZeldaOcarinaofTimeOwlThemes_005

	
