//Event file generated from Sappy .s format.
	#include "MPlayDef.event"

	#define	LoZFourSwordsBossThemeRandomWizard_grp  voicegroup000
	#define	LoZFourSwordsBossThemeRandomWizard_pri  0
	#define	LoZFourSwordsBossThemeRandomWizard_rev  0
	#define	LoZFourSwordsBossThemeRandomWizard_mvl  127
	#define	LoZFourSwordsBossThemeRandomWizard_key  0
	#define	LoZFourSwordsBossThemeRandomWizard_tbs  1
	#define	LoZFourSwordsBossThemeRandomWizard_exg  0
	#define	LoZFourSwordsBossThemeRandomWizard_cmp  1

	// .rodata
	//	LoZFourSwordsBossThemeRandomWizard
	ALIGN 4


//**************** Track 1 (Midi-Chn.0) ****************//

LoZFourSwordsBossThemeRandomWizard_001:
// 000   ----------------------------------------
 BYTE   VOL   50*LoZFourSwordsBossThemeRandomWizard_mvl/mxv
 BYTE   KEYSH   LoZFourSwordsBossThemeRandomWizard_key+0
Label_0_01346FDC:
 BYTE   TEMPO   156*LoZFourSwordsBossThemeRandomWizard_tbs/2
 BYTE   VOICE   61
 BYTE   N12  Gn3  v127
 BYTE   W18
 BYTE   Dn3
 BYTE   W18
 BYTE   N09  Gn3
 BYTE   W12
 BYTE   N12  Fs3
 BYTE   W18
 BYTE   Dn3
 BYTE   W18
 BYTE   N09  Fs3
 BYTE   W12
// 001   ----------------------------------------
Label_0_01346FF1:
 BYTE   N12  Fn3  v127
 BYTE   W18
 BYTE   Dn3
 BYTE   W18
 BYTE   N09  Fn3
 BYTE   W12
 BYTE   N16  En3
 BYTE   W18
 BYTE   N06  As3
 BYTE   W30
 BYTE   PEND 
// 002   ----------------------------------------
 BYTE   N12  Gn3
 BYTE   W18
 BYTE   Dn3
 BYTE   W18
 BYTE   N09  Gn3
 BYTE   W12
 BYTE   N12  Fs3
 BYTE   W18
 BYTE   Dn3
 BYTE   W18
 BYTE   N09  Fs3
 BYTE   W12
 BYTE   PATT
  POIN2 Label_0_01346FF1
// 003   ----------------------------------------
Label_0_01347016:
 BYTE   N12  Gs3  v127
 BYTE   W18
 BYTE   Ds3
 BYTE   W18
 BYTE   N09  Gs3
 BYTE   W12
 BYTE   N12  Gn3
 BYTE   W18
 BYTE   Ds3
 BYTE   W18
 BYTE   N09  Gn3
 BYTE   W12
 BYTE   PEND 
// 004   ----------------------------------------
Label_0_01347028:
 BYTE   N12  Fs3  v127
 BYTE   W18
 BYTE   Ds3
 BYTE   W18
 BYTE   N09  Fs3
 BYTE   W12
 BYTE   N16  Fn3
 BYTE   W18
 BYTE   N06  Bn3
 BYTE   W30
 BYTE   PEND 
 BYTE   PATT
  POIN2 Label_0_01347016
 BYTE   PATT
  POIN2 Label_0_01347028
// 005   ----------------------------------------
 BYTE   N16  Bn3  v127
 BYTE   W18
 BYTE   As3
 BYTE   W18
 BYTE   N19  An3
 BYTE   W24
 BYTE   N06  Gs3
 BYTE   W12
 BYTE   Gn3
 BYTE   W12
 BYTE   Fs3
 BYTE   W12
// 006   ----------------------------------------
 BYTE   N16  Cn4
 BYTE   W18
 BYTE   Bn3
 BYTE   W18
 BYTE   N19  As3
 BYTE   W24
 BYTE   N06  An3
 BYTE   W12
 BYTE   Gs3
 BYTE   W12
 BYTE   Gn3
 BYTE   W12
// 007   ----------------------------------------
 BYTE   N16  Cs4
 BYTE   W18
 BYTE   Cn4
 BYTE   W18
 BYTE   N06  Bn3
 BYTE   W12
 BYTE   N16  Dn4
 BYTE   W18
 BYTE   Cs4
 BYTE   W18
 BYTE   N06  Cn4
 BYTE   W12
// 008   ----------------------------------------
 BYTE   N16  Ds4
 BYTE   W18
 BYTE   Dn4
 BYTE   W18
 BYTE   N06  Cs4
 BYTE   W12
 BYTE   N16  En4
 BYTE   W18
 BYTE   Fn4
 BYTE   W18
 BYTE   N06  Fs4
 BYTE   W12
// 009   ----------------------------------------
 BYTE   W96
// 010   ----------------------------------------
 BYTE   Dn5
 BYTE   W06
 BYTE   Cs5
 BYTE   W06
 BYTE   Cn5
 BYTE   W06
 BYTE   Bn4
 BYTE   W06
 BYTE   As4
 BYTE   W06
 BYTE   An4
 BYTE   W06
 BYTE   Gs4
 BYTE   W06
 BYTE   Gn4
 BYTE   W06
 BYTE   Fs4
 BYTE   W06
 BYTE   Fn4
 BYTE   W06
 BYTE   En4
 BYTE   W06
 BYTE   Ds4
 BYTE   W06
 BYTE   Dn4
 BYTE   W06
 BYTE   Cs4
 BYTE   W06
 BYTE   Cn4
 BYTE   W06
 BYTE   Bn3
 BYTE   W06
// 011   ----------------------------------------
 BYTE   GoTo
  POIN2 Label_0_01346FDC
// 012   ----------------------------------------
 BYTE   W13
 BYTE   FINE

//**************** Track 2 (Midi-Chn.1) ****************//

LoZFourSwordsBossThemeRandomWizard_002:
// 000   ----------------------------------------
 BYTE   VOL   50*LoZFourSwordsBossThemeRandomWizard_mvl/mxv
 BYTE   KEYSH   LoZFourSwordsBossThemeRandomWizard_key+0
Label_1_013470B0:
 BYTE   VOICE   68
 BYTE   N12  Dn3  v100
 BYTE   W18
 BYTE   As2
 BYTE   W18
 BYTE   N09  Dn3
 BYTE   W12
 BYTE   N12
 BYTE   W18
 BYTE   As2
 BYTE   W18
 BYTE   N09  Dn3
 BYTE   W12
// 001   ----------------------------------------
Label_1_013470C2:
 BYTE   N12  Dn3  v100
 BYTE   W18
 BYTE   As2
 BYTE   W18
 BYTE   N09  Dn3
 BYTE   W12
 BYTE   N16  As2
 BYTE   W18
 BYTE   N06  Gn3
 BYTE   W30
 BYTE   PEND 
// 002   ----------------------------------------
 BYTE   N12  Dn3
 BYTE   W18
 BYTE   As2
 BYTE   W18
 BYTE   N09  Dn3
 BYTE   W12
 BYTE   N12
 BYTE   W18
 BYTE   As2
 BYTE   W18
 BYTE   N09  Dn3
 BYTE   W12
 BYTE   PATT
  POIN2 Label_1_013470C2
// 003   ----------------------------------------
Label_1_013470E6:
 BYTE   N12  Ds3  v100
 BYTE   W18
 BYTE   Bn2
 BYTE   W18
 BYTE   N09  Ds3
 BYTE   W12
 BYTE   N12
 BYTE   W18
 BYTE   Bn2
 BYTE   W18
 BYTE   N09  Ds3
 BYTE   W12
 BYTE   PEND 
// 004   ----------------------------------------
Label_1_013470F7:
 BYTE   N12  Ds3  v100
 BYTE   W18
 BYTE   Bn2
 BYTE   W18
 BYTE   N09  Ds3
 BYTE   W12
 BYTE   N16  Bn2
 BYTE   W18
 BYTE   N06  Gs3
 BYTE   W30
 BYTE   PEND 
 BYTE   PATT
  POIN2 Label_1_013470E6
 BYTE   PATT
  POIN2 Label_1_013470F7
// 005   ----------------------------------------
 BYTE   N16  Fs3  v100
 BYTE   W18
 BYTE   Fn3
 BYTE   W18
 BYTE   N19  En3
 BYTE   W24
 BYTE   N06  Ds3
 BYTE   W12
 BYTE   Dn3
 BYTE   W12
 BYTE   Cs3
 BYTE   W12
// 006   ----------------------------------------
 BYTE   N16  Gn3
 BYTE   W18
 BYTE   Fs3
 BYTE   W18
 BYTE   N19  Fn3
 BYTE   W24
 BYTE   N06  En3
 BYTE   W12
 BYTE   Ds3
 BYTE   W12
 BYTE   Dn3
 BYTE   W12
// 007   ----------------------------------------
 BYTE   N16  Gs3
 BYTE   W18
 BYTE   Gn3
 BYTE   W18
 BYTE   N06  Fs3
 BYTE   W12
 BYTE   N16  An3
 BYTE   W18
 BYTE   Gs3
 BYTE   W18
 BYTE   N06  Gn3
 BYTE   W12
// 008   ----------------------------------------
 BYTE   N16  As3
 BYTE   W18
 BYTE   An3
 BYTE   W18
 BYTE   N06  Gs3
 BYTE   W12
 BYTE   N16  Bn3
 BYTE   W18
 BYTE   Cn4
 BYTE   W18
 BYTE   N06  Cs4
 BYTE   W12
// 009   ----------------------------------------
 BYTE   W96
// 010   ----------------------------------------
 BYTE   Dn4
 BYTE   W06
 BYTE   Cs4
 BYTE   W06
 BYTE   Cn4
 BYTE   W06
 BYTE   Bn3
 BYTE   W06
 BYTE   As3
 BYTE   W06
 BYTE   An3
 BYTE   W06
 BYTE   Gs3
 BYTE   W06
 BYTE   Gn3
 BYTE   W06
 BYTE   Fs3
 BYTE   W06
 BYTE   Fn3
 BYTE   W06
 BYTE   En3
 BYTE   W06
 BYTE   Ds3
 BYTE   W06
 BYTE   Dn3
 BYTE   W06
 BYTE   Cs3
 BYTE   W06
 BYTE   Cn3
 BYTE   W06
 BYTE   Bn2
 BYTE   W06
// 011   ----------------------------------------
 BYTE   GoTo
  POIN2 Label_1_013470B0
// 012   ----------------------------------------
 BYTE   W13
 BYTE   FINE

//**************** Track 3 (Midi-Chn.2) ****************//

LoZFourSwordsBossThemeRandomWizard_003:
// 000   ----------------------------------------
 BYTE   VOL   50*LoZFourSwordsBossThemeRandomWizard_mvl/mxv
 BYTE   KEYSH   LoZFourSwordsBossThemeRandomWizard_key+0
Label_2_0134717C:
 BYTE   VOICE   33
 BYTE   W01
 BYTE   N04  Gn2  v100
 BYTE   W06
 BYTE   N03
 BYTE   W06
 BYTE   N03
 BYTE   W06
 BYTE   N03
 BYTE   W06
 BYTE   N04
 BYTE   W06
 BYTE   N03
 BYTE   W06
 BYTE   N03
 BYTE   W06
 BYTE   N03
 BYTE   W06
 BYTE   N03
 BYTE   W06
 BYTE   N03
 BYTE   W06
 BYTE   N03
 BYTE   W06
 BYTE   N03
 BYTE   W06
 BYTE   N03
 BYTE   W06
 BYTE   N03
 BYTE   W06
 BYTE   N03
 BYTE   W06
 BYTE   N03
 BYTE   W05
// 001   ----------------------------------------
 BYTE   W01
 BYTE   N04
 BYTE   W06
 BYTE   N03
 BYTE   W06
 BYTE   N03
 BYTE   W06
 BYTE   N03
 BYTE   W06
 BYTE   N04
 BYTE   W06
 BYTE   N03
 BYTE   W06
 BYTE   N03
 BYTE   W06
 BYTE   N03
 BYTE   W06
 BYTE   N04
 BYTE   W06
 BYTE   N03
 BYTE   W06
 BYTE   N03
 BYTE   W06
 BYTE   N03
 BYTE   W06
 BYTE   N04
 BYTE   W06
 BYTE   N03
 BYTE   W06
 BYTE   N03
 BYTE   W06
 BYTE   N03
 BYTE   W05
// 002   ----------------------------------------
Label_2_013471C2:
 BYTE   W01
 BYTE   N03  Gn2  v100
 BYTE   W06
 BYTE   N03
 BYTE   W06
 BYTE   N03
 BYTE   W06
 BYTE   N03
 BYTE   W06
 BYTE   N03
 BYTE   W06
 BYTE   N03
 BYTE   W06
 BYTE   N03
 BYTE   W06
 BYTE   N03
 BYTE   W06
 BYTE   N03
 BYTE   W06
 BYTE   N03
 BYTE   W06
 BYTE   N03
 BYTE   W06
 BYTE   N03
 BYTE   W06
 BYTE   N03
 BYTE   W06
 BYTE   N03
 BYTE   W06
 BYTE   N03
 BYTE   W06
 BYTE   N03
 BYTE   W05
 BYTE   PEND 
 BYTE   PATT
  POIN2 Label_2_013471C2
// 003   ----------------------------------------
Label_2_013471EB:
 BYTE   W01
 BYTE   N04  Gs2  v100
 BYTE   W06
 BYTE   N03
 BYTE   W06
 BYTE   N03
 BYTE   W06
 BYTE   N03
 BYTE   W06
 BYTE   N04
 BYTE   W06
 BYTE   N03
 BYTE   W06
 BYTE   N03
 BYTE   W06
 BYTE   N03
 BYTE   W06
 BYTE   N04
 BYTE   W06
 BYTE   N03
 BYTE   W06
 BYTE   N03
 BYTE   W06
 BYTE   N03
 BYTE   W06
 BYTE   N04
 BYTE   W06
 BYTE   N03
 BYTE   W06
 BYTE   N03
 BYTE   W06
 BYTE   N03
 BYTE   W05
 BYTE   PEND 
 BYTE   PATT
  POIN2 Label_2_013471EB
 BYTE   PATT
  POIN2 Label_2_013471EB
 BYTE   PATT
  POIN2 Label_2_013471EB
// 004   ----------------------------------------
 BYTE   W01
 BYTE   N15  Bn2  v100
 BYTE   W18
 BYTE   N04
 BYTE   W42
 BYTE   N06
 BYTE   W24
 BYTE   N03
 BYTE   W06
 BYTE   N03
 BYTE   W05
// 005   ----------------------------------------
 BYTE   W01
 BYTE   N15  Cn3
 BYTE   W18
 BYTE   N04
 BYTE   W42
 BYTE   N06
 BYTE   W24
 BYTE   N03
 BYTE   W06
 BYTE   N03
 BYTE   W05
// 006   ----------------------------------------
 BYTE   W01
 BYTE   N15  Cs3
 BYTE   W18
 BYTE   N04
 BYTE   W18
 BYTE   N03  Gn2
 BYTE   W06
 BYTE   N03
 BYTE   W06
 BYTE   N15  Dn3
 BYTE   W18
 BYTE   N04
 BYTE   W18
 BYTE   N03  Gs2
 BYTE   W06
 BYTE   N03
 BYTE   W05
// 007   ----------------------------------------
 BYTE   W01
 BYTE   N15  Ds3
 BYTE   W18
 BYTE   N04
 BYTE   W18
 BYTE   N03  An2
 BYTE   W06
 BYTE   N03
 BYTE   W06
 BYTE   N15  En3
 BYTE   W18
 BYTE   N04
 BYTE   W18
 BYTE   N03  As2
 BYTE   W06
 BYTE   N03
 BYTE   W05
// 008   ----------------------------------------
 BYTE   W96
// 009   ----------------------------------------
 BYTE   W01
 BYTE   N06  Dn2
 BYTE   W06
 BYTE   Ds2
 BYTE   W06
 BYTE   Dn2
 BYTE   W06
 BYTE   Ds2
 BYTE   W06
 BYTE   Dn2
 BYTE   W06
 BYTE   Ds2
 BYTE   W06
 BYTE   Dn2
 BYTE   W06
 BYTE   Ds2
 BYTE   W06
 BYTE   Dn2
 BYTE   W06
 BYTE   Ds2
 BYTE   W06
 BYTE   Dn2
 BYTE   W06
 BYTE   Ds2
 BYTE   W06
 BYTE   Dn2
 BYTE   W06
 BYTE   Ds2
 BYTE   W06
 BYTE   Dn2
 BYTE   W06
 BYTE   Ds2
 BYTE   W05
// 010   ----------------------------------------
 BYTE   GoTo
  POIN2 Label_2_0134717C
// 011   ----------------------------------------
 BYTE   W13
 BYTE   FINE

//**************** Track 4 (Midi-Chn.3) ****************//

LoZFourSwordsBossThemeRandomWizard_004:
// 000   ----------------------------------------
 BYTE   VOL   50*LoZFourSwordsBossThemeRandomWizard_mvl/mxv
 BYTE   KEYSH   LoZFourSwordsBossThemeRandomWizard_key+0
Label_3_01347290:
 BYTE   VOICE   47
 BYTE   W01
 BYTE   N03  Cn1  v127
 BYTE   W24
 BYTE   N03
 BYTE   W06
 BYTE   N03
 BYTE   W18
 BYTE   N03
 BYTE   W24
 BYTE   N03
 BYTE   W23
// 001   ----------------------------------------
Label_3_0134729F:
 BYTE   W01
 BYTE   N03  Cn1  v127
 BYTE   W24
 BYTE   N03
 BYTE   W24
 BYTE   N03
 BYTE   W24
 BYTE   N03
 BYTE   W06
 BYTE   N03
 BYTE   W17
 BYTE   PEND 
// 002   ----------------------------------------
Label_3_013472AD:
 BYTE   W01
 BYTE   N03  Cn1  v127
 BYTE   W24
 BYTE   N03
 BYTE   W06
 BYTE   N03
 BYTE   W18
 BYTE   N03
 BYTE   W24
 BYTE   N03
 BYTE   W23
 BYTE   PEND 
 BYTE   PATT
  POIN2 Label_3_0134729F
 BYTE   PATT
  POIN2 Label_3_013472AD
 BYTE   PATT
  POIN2 Label_3_0134729F
 BYTE   PATT
  POIN2 Label_3_013472AD
// 003   ----------------------------------------
 BYTE   W01
 BYTE   N03  Cn1  v127
 BYTE   W24
 BYTE   N03
 BYTE   W24
 BYTE   N03
 BYTE   W24
 BYTE   N03
 BYTE   W23
// 004   ----------------------------------------
Label_3_013472DA:
 BYTE   W01
 BYTE   N03  Cn1  v127
 BYTE   W18
 BYTE   N03
 BYTE   W06
 BYTE   N03
 BYTE   W24
 BYTE   N03
 BYTE   W24
 BYTE   N03
 BYTE   W23
 BYTE   PEND 
 BYTE   PATT
  POIN2 Label_3_013472DA
// 005   ----------------------------------------
Label_3_013472ED:
 BYTE   W01
 BYTE   N03  Cn1  v127
 BYTE   W18
 BYTE   N03
 BYTE   W06
 BYTE   N03
 BYTE   W24
 BYTE   N03
 BYTE   W18
 BYTE   N03
 BYTE   W06
 BYTE   N03
 BYTE   W23
 BYTE   PEND 
 BYTE   PATT
  POIN2 Label_3_013472ED
// 006   ----------------------------------------
 BYTE   W01
 BYTE   N03  Cn1  v127
 BYTE   W18
 BYTE   N03
 BYTE   W18
 BYTE   N03
 BYTE   W12
 BYTE   N03
 BYTE   W18
 BYTE   N03
 BYTE   W18
 BYTE   N03
 BYTE   W06
 BYTE   N03
 BYTE   W05
// 007   ----------------------------------------
 BYTE   W01
 BYTE   N03
 BYTE   W06
 BYTE   N03
 BYTE   W18
 BYTE   N03
 BYTE   W06
 BYTE   N03
 BYTE   W12
 BYTE   N03
 BYTE   W06
 BYTE   N03
 BYTE   W06
 BYTE   N03
 BYTE   W18
 BYTE   N03
 BYTE   W23
// 008   ----------------------------------------
 BYTE   GoTo
  POIN2 Label_3_01347290
// 009   ----------------------------------------
 BYTE   W13
 BYTE   FINE

//**************** Track 5 (Midi-Chn.4) ****************//

LoZFourSwordsBossThemeRandomWizard_005:
// 000   ----------------------------------------
 BYTE   VOL   50*LoZFourSwordsBossThemeRandomWizard_mvl/mxv
 BYTE   KEYSH   LoZFourSwordsBossThemeRandomWizard_key+0
Label_4_01347330:
 BYTE   VOICE   47
 BYTE   W12
 BYTE   N19  En1  v120
 BYTE   W24
 BYTE   N19
 BYTE   W24
 BYTE   N19
 BYTE   W24
 BYTE   N19
 BYTE   W12
// 001   ----------------------------------------
Label_4_0134733D:
 BYTE   W12
 BYTE   N19  En1  v120
 BYTE   W24
 BYTE   N19
 BYTE   W24
 BYTE   N19
 BYTE   W24
 BYTE   N19
 BYTE   W12
 BYTE   PEND 
 BYTE   PATT
  POIN2 Label_4_0134733D
 BYTE   PATT
  POIN2 Label_4_0134733D
 BYTE   PATT
  POIN2 Label_4_0134733D
 BYTE   PATT
  POIN2 Label_4_0134733D
 BYTE   PATT
  POIN2 Label_4_0134733D
// 002   ----------------------------------------
 BYTE   W12
 BYTE   N19  En1  v120
 BYTE   W24
 BYTE   N19
 BYTE   W24
 BYTE   N18
 BYTE   W18
 BYTE   N06
 BYTE   W06
 BYTE   N06
 BYTE   W06
 BYTE   N06
 BYTE   W06
// 003   ----------------------------------------
 BYTE   N18
 BYTE   W18
 BYTE   N15
 BYTE   W18
 BYTE   N19
 BYTE   W24
 BYTE   N19
 BYTE   W24
 BYTE   N09
 BYTE   W12
// 004   ----------------------------------------
 BYTE   N15
 BYTE   W18
 BYTE   N15
 BYTE   W18
 BYTE   N19
 BYTE   W24
 BYTE   N19
 BYTE   W24
 BYTE   N09
 BYTE   W12
// 005   ----------------------------------------
 BYTE   N18
 BYTE   W18
 BYTE   N18
 BYTE   W18
 BYTE   N12
 BYTE   W12
 BYTE   N18
 BYTE   W18
 BYTE   N18
 BYTE   W18
 BYTE   N12
 BYTE   W12
// 006   ----------------------------------------
 BYTE   N18
 BYTE   W18
 BYTE   N18
 BYTE   W18
 BYTE   N12
 BYTE   W12
 BYTE   N18
 BYTE   W18
 BYTE   N18
 BYTE   W18
 BYTE   N19
 BYTE   W12
// 007   ----------------------------------------
 BYTE   W12
 BYTE   N12
 BYTE   W12
 BYTE   N18
 BYTE   W18
 BYTE   N12
 BYTE   W12
 BYTE   N06
 BYTE   W06
 BYTE   N12
 BYTE   W12
 BYTE   N06
 BYTE   W06
 BYTE   N12
 BYTE   W12
 BYTE   N18
 BYTE   W06
// 008   ----------------------------------------
 BYTE   W12
 BYTE   N19
 BYTE   W24
 BYTE   N19
 BYTE   W24
 BYTE   N18
 BYTE   W18
 BYTE   N06
 BYTE   W06
 BYTE   N06
 BYTE   W06
 BYTE   N19
 BYTE   W06
// 009   ----------------------------------------
 BYTE   GoTo
  POIN2 Label_4_01347330
// 010   ----------------------------------------
 BYTE   W13
 BYTE   FINE

//**************** Track 6 (Midi-Chn.5) ****************//

LoZFourSwordsBossThemeRandomWizard_006:
// 000   ----------------------------------------
 BYTE   VOL   50*LoZFourSwordsBossThemeRandomWizard_mvl/mxv
 BYTE   KEYSH   LoZFourSwordsBossThemeRandomWizard_key+0
Label_5_013473C8:
 BYTE   VOICE   127
 BYTE   N90  Cs2  v100
 BYTE   W96
// 001   ----------------------------------------
 BYTE   W96
// 002   ----------------------------------------
 BYTE   W96
// 003   ----------------------------------------
 BYTE   W96
// 004   ----------------------------------------
 BYTE   N90
 BYTE   W96
// 005   ----------------------------------------
 BYTE   W96
// 006   ----------------------------------------
 BYTE   W96
// 007   ----------------------------------------
 BYTE   W96
// 008   ----------------------------------------
 BYTE   N90
 BYTE   W96
// 009   ----------------------------------------
 BYTE   W96
// 010   ----------------------------------------
Label_5_013473D9:
 BYTE   N48  Cs2  v100
 BYTE   W48
 BYTE   N48
 BYTE   W48
 BYTE   PEND 
 BYTE   PATT
  POIN2 Label_5_013473D9
// 011   ----------------------------------------
 BYTE   W96
// 012   ----------------------------------------
 BYTE   N90  Cs2  v100
 BYTE   W96
// 013   ----------------------------------------
 BYTE   GoTo
  POIN2 Label_5_013473C8
// 014   ----------------------------------------
 BYTE   W13
 BYTE   FINE

//**************** Track 7 (Midi-Chn.6) ****************//

LoZFourSwordsBossThemeRandomWizard_007:
// 000   ----------------------------------------
 BYTE   VOL   50*LoZFourSwordsBossThemeRandomWizard_mvl/mxv
 BYTE   KEYSH   LoZFourSwordsBossThemeRandomWizard_key+0
Label_6_013473F8:
 BYTE   VOICE   127
 BYTE   W13
 BYTE   N10  As1  v040
 BYTE   W24
 BYTE   N10
 BYTE   W24
 BYTE   N09
 BYTE   W24
 BYTE   N09
 BYTE   W11
// 001   ----------------------------------------
Label_6_01347405:
 BYTE   W13
 BYTE   N10  As1  v040
 BYTE   W24
 BYTE   N10
 BYTE   W24
 BYTE   N10
 BYTE   W24
 BYTE   N10
 BYTE   W11
 BYTE   PEND 
// 002   ----------------------------------------
Label_6_01347411:
 BYTE   W13
 BYTE   N09  As1  v040
 BYTE   W24
 BYTE   N09
 BYTE   W24
 BYTE   N09
 BYTE   W24
 BYTE   N09
 BYTE   W11
 BYTE   PEND 
 BYTE   PATT
  POIN2 Label_6_01347411
 BYTE   PATT
  POIN2 Label_6_01347405
 BYTE   PATT
  POIN2 Label_6_01347405
 BYTE   PATT
  POIN2 Label_6_01347405
// 003   ----------------------------------------
 BYTE   W13
 BYTE   N10  As1  v040
 BYTE   W24
 BYTE   N10
 BYTE   W24
 BYTE   N10
 BYTE   W32
 BYTE   W03
// 004   ----------------------------------------
Label_6_0134743B:
 BYTE   W13
 BYTE   N06  As1  v040
 BYTE   W24
 BYTE   N09
 BYTE   W24
 BYTE   N09
 BYTE   W24
 BYTE   N09
 BYTE   W11
 BYTE   PEND 
 BYTE   PATT
  POIN2 Label_6_0134743B
// 005   ----------------------------------------
Label_6_0134744C:
 BYTE   W13
 BYTE   N06  As1  v040
 BYTE   W24
 BYTE   N09
 BYTE   W24
 BYTE   N06
 BYTE   W24
 BYTE   N09
 BYTE   W11
 BYTE   PEND 
 BYTE   PATT
  POIN2 Label_6_0134744C
// 006   ----------------------------------------
 BYTE   W13
 BYTE   N06  As1  v040
 BYTE   W18
 BYTE   N06
 BYTE   W30
 BYTE   N06
 BYTE   W32
 BYTE   W03
// 007   ----------------------------------------
 BYTE   W13
 BYTE   N09
 BYTE   W24
 BYTE   N06
 BYTE   W24
 BYTE   N09
 BYTE   W24
 BYTE   N09
 BYTE   W11
// 008   ----------------------------------------
 BYTE   GoTo
  POIN2 Label_6_013473F8
// 009   ----------------------------------------
 BYTE   W13
 BYTE   FINE

//**************** Track 8 (Midi-Chn.7) ****************//

LoZFourSwordsBossThemeRandomWizard_008:
// 000   ----------------------------------------
 BYTE   VOL   50*LoZFourSwordsBossThemeRandomWizard_mvl/mxv
 BYTE   KEYSH   LoZFourSwordsBossThemeRandomWizard_key+0
Label_7_0134747C:
 BYTE   VOICE   40
 BYTE   N42  Gn4  v080
 BYTE   W48
 BYTE   Fs4
 BYTE   W48
// 001   ----------------------------------------
Label_7_01347484:
 BYTE   N42  Fn4  v080
 BYTE   W48
 BYTE   En4
 BYTE   W48
 BYTE   PEND 
// 002   ----------------------------------------
 BYTE   Gn4
 BYTE   W48
 BYTE   Fs4
 BYTE   W48
 BYTE   PATT
  POIN2 Label_7_01347484
// 003   ----------------------------------------
Label_7_01347494:
 BYTE   N42  Gs4  v080
 BYTE   W48
 BYTE   Gn4
 BYTE   W48
 BYTE   PEND 
// 004   ----------------------------------------
Label_7_0134749B:
 BYTE   N42  Fs4  v080
 BYTE   W48
 BYTE   Fn4
 BYTE   W48
 BYTE   PEND 
 BYTE   PATT
  POIN2 Label_7_01347494
 BYTE   PATT
  POIN2 Label_7_0134749B
// 005   ----------------------------------------
 BYTE   N16  Bn4  v080
 BYTE   W18
 BYTE   As4
 BYTE   W18
 BYTE   N19  An4
 BYTE   W24
 BYTE   N06  Gs4
 BYTE   W12
 BYTE   Gn4
 BYTE   W12
 BYTE   Fs4
 BYTE   W12
// 006   ----------------------------------------
 BYTE   N16  Cn5
 BYTE   W18
 BYTE   Bn4
 BYTE   W18
 BYTE   N19  As4
 BYTE   W24
 BYTE   N06  An4
 BYTE   W12
 BYTE   Gs4
 BYTE   W12
 BYTE   Gn4
 BYTE   W12
// 007   ----------------------------------------
 BYTE   N16  Cs5
 BYTE   W18
 BYTE   Cn5
 BYTE   W18
 BYTE   N06  Bn4
 BYTE   W12
 BYTE   N16  Dn5
 BYTE   W18
 BYTE   Cs5
 BYTE   W18
 BYTE   N06  Cn5
 BYTE   W12
// 008   ----------------------------------------
 BYTE   N16  Ds5
 BYTE   W18
 BYTE   Dn5
 BYTE   W18
 BYTE   N06  Cs5
 BYTE   W12
 BYTE   N16  En5
 BYTE   W18
 BYTE   Fn5
 BYTE   W18
 BYTE   N06  Fs5
 BYTE   W12
// 009   ----------------------------------------
 BYTE   W96
// 010   ----------------------------------------
 BYTE   Dn4  v072
 BYTE   W06
 BYTE   Ds4
 BYTE   W06
 BYTE   Dn4
 BYTE   W06
 BYTE   Ds4
 BYTE   W06
 BYTE   Dn4
 BYTE   W06
 BYTE   Ds4
 BYTE   W06
 BYTE   Dn4
 BYTE   W06
 BYTE   Ds4
 BYTE   W06
 BYTE   Dn4
 BYTE   W06
 BYTE   Ds4
 BYTE   W06
 BYTE   Dn4
 BYTE   W06
 BYTE   Ds4
 BYTE   W06
 BYTE   Dn4
 BYTE   W06
 BYTE   Ds4
 BYTE   W06
 BYTE   Dn4
 BYTE   W06
 BYTE   Ds4
 BYTE   W06
// 011   ----------------------------------------
 BYTE   GoTo
  POIN2 Label_7_0134747C
// 012   ----------------------------------------
 BYTE   W13
 BYTE   FINE

//******************************************************//
	ALIGN 4

LoZFourSwordsBossThemeRandomWizard:
	BYTE	8	// NumTrks
	BYTE	0	// NumBlks
	BYTE	LoZFourSwordsBossThemeRandomWizard_pri	// Priority
	BYTE	LoZFourSwordsBossThemeRandomWizard_rev	// Reverb.
    
	POIN2	LoZFourSwordsBossThemeRandomWizard_grp
    
	POIN2	LoZFourSwordsBossThemeRandomWizard_001
	POIN2	LoZFourSwordsBossThemeRandomWizard_002
	POIN2	LoZFourSwordsBossThemeRandomWizard_003
	POIN2	LoZFourSwordsBossThemeRandomWizard_004
	POIN2	LoZFourSwordsBossThemeRandomWizard_005
	POIN2	LoZFourSwordsBossThemeRandomWizard_006
	POIN2	LoZFourSwordsBossThemeRandomWizard_007
	POIN2	LoZFourSwordsBossThemeRandomWizard_008

	
