//Event file generated from Sappy .s format.
	#include "MPlayDef.event"

	#define	LoZMajorasMaskAstralObservatoryPandan_grp  voicegroup000
	#define	LoZMajorasMaskAstralObservatoryPandan_pri  0
	#define	LoZMajorasMaskAstralObservatoryPandan_rev  0
	#define	LoZMajorasMaskAstralObservatoryPandan_mvl  127
	#define	LoZMajorasMaskAstralObservatoryPandan_key  0
	#define	LoZMajorasMaskAstralObservatoryPandan_tbs  1
	#define	LoZMajorasMaskAstralObservatoryPandan_exg  0
	#define	LoZMajorasMaskAstralObservatoryPandan_cmp  1

	// .rodata
	//	LoZMajorasMaskAstralObservatoryPandan
	ALIGN 4


//**************** Track 1 (Midi-Chn.0) ****************//

LoZMajorasMaskAstralObservatoryPandan_001:
// 000   ----------------------------------------
 BYTE   KEYSH   LoZMajorasMaskAstralObservatoryPandan_key+0
Label_0_017D98D6:
 BYTE   TEMPO   180*LoZMajorasMaskAstralObservatoryPandan_tbs/2
 BYTE   VOICE   10
 BYTE   VOL   49*LoZMajorasMaskAstralObservatoryPandan_mvl/mxv
 BYTE   N12  As2  v100
 BYTE   W12
 BYTE   Cn3
 BYTE   W12
 BYTE   Dn3
 BYTE   W12
 BYTE   En3
 BYTE   W12
 BYTE   Fn3
 BYTE   W12
 BYTE   Gn3
 BYTE   W12
 BYTE   Gs3
 BYTE   W12
 BYTE   N24  An3
 BYTE   N72  An5  v052
 BYTE   W24
// 001   ----------------------------------------
 BYTE   N24  Cn3
 BYTE   W24
 BYTE   Fn3
 BYTE   W24
Label_0_017D98F7:
 BYTE   TIE  An3  v100
 BYTE   N72  An5  v052
 BYTE   W96
// 002   ----------------------------------------
 BYTE   W24
 BYTE   PEND 
 BYTE   EOT
 BYTE   An3
Label_0_017D9902:
 BYTE   N24  An3  v100
 BYTE   N72  An5  v052
 BYTE   W24
 BYTE   N24  Cn3  v100
 BYTE   W24
 BYTE   Fn3
 BYTE   W24
 BYTE   PEND 
 BYTE   PATT
  POIN2 Label_0_017D98F7
// 003   ----------------------------------------
 BYTE   EOT
 BYTE   An3
 BYTE   PATT
  POIN2 Label_0_017D9902
 BYTE   PATT
  POIN2 Label_0_017D98F7
// 004   ----------------------------------------
 BYTE   EOT
 BYTE   An3
 BYTE   PATT
  POIN2 Label_0_017D9902
// 005   ----------------------------------------
Label_0_017D9928:
 BYTE   TIE  Gn3  v100
 BYTE   N72  Gn5  v052
 BYTE   W96
// 006   ----------------------------------------
 BYTE   W24
 BYTE   PEND 
 BYTE   EOT
 BYTE   Gn3
 BYTE   PATT
  POIN2 Label_0_017D9902
 BYTE   PATT
  POIN2 Label_0_017D98F7
// 007   ----------------------------------------
 BYTE   EOT
 BYTE   An3
 BYTE   PATT
  POIN2 Label_0_017D9902
 BYTE   PATT
  POIN2 Label_0_017D98F7
// 008   ----------------------------------------
 BYTE   EOT
 BYTE   An3
 BYTE   PATT
  POIN2 Label_0_017D9902
 BYTE   PATT
  POIN2 Label_0_017D9928
// 009   ----------------------------------------
 BYTE   EOT
 BYTE   Gn3
 BYTE   N24  Fn3  v100
 BYTE   N72  Fn5  v060
 BYTE   W24
 BYTE   N24  Dn3  v100
 BYTE   W24
 BYTE   En3
 BYTE   W24
Label_0_017D9964:
 BYTE   TIE  Fn3  v100
 BYTE   TIE  Fn5  v060
 BYTE   W96
// 010   ----------------------------------------
 BYTE   W24
 BYTE   PEND 
 BYTE   EOT
 BYTE   Fn3  v089
Label_0_017D9970:
 BYTE   N24  Gn3  v100
 BYTE   N72  Gn5  v060
 BYTE   W24
 BYTE   N24  Bn2  v100
 BYTE   W24
 BYTE   Dn3
 BYTE   W24
 BYTE   PEND 
// 011   ----------------------------------------
 BYTE   TIE  Gn3
 BYTE   TIE  Gn5  v060
 BYTE   W96
// 012   ----------------------------------------
 BYTE   W24
 BYTE   EOT
 BYTE   Gn3  v091
 BYTE   PATT
  POIN2 Label_0_017D9970
 BYTE   PATT
  POIN2 Label_0_017D9964
// 013   ----------------------------------------
 BYTE   EOT
 BYTE   Fn3  v089
 BYTE   N24  Fn3  v060
 BYTE   N72  Fn5
 BYTE   W24
 BYTE   N24  As2
 BYTE   W24
 BYTE   Cn3
 BYTE   W24
 BYTE   TIE  Fn3
 BYTE   TIE  Fn5
 BYTE   W96
// 014   ----------------------------------------
 BYTE   W24
 BYTE   EOT
 BYTE   Fn3  v089
 BYTE   N24  En3
 BYTE   N72  En5
 BYTE   W24
 BYTE   N24  An2
 BYTE   W24
 BYTE   As2
 BYTE   W24
// 015   ----------------------------------------
 BYTE   En3
 BYTE   TIE  En5
 BYTE   W36
 BYTE   N12  As2  v100
 BYTE   W09
 BYTE   GoTo
  POIN2 Label_0_017D98D6
// 016   ----------------------------------------
 BYTE   W03
 BYTE   N12  Cn3  v100
 BYTE   W12
 BYTE   Dn3
 BYTE   W12
 BYTE   En3
 BYTE   W12
 BYTE   Fn3
 BYTE   W12
 BYTE   Gn3
 BYTE   W12
 BYTE   Gs3
 BYTE   W12
 BYTE   EOT
 BYTE   En5
 BYTE   TEMPO   180*LoZMajorasMaskAstralObservatoryPandan_tbs/2
 BYTE   N24  An3
 BYTE   N72  An5  v052
 BYTE   W24
// 017   ----------------------------------------
 BYTE   N24  Cn3
 BYTE   W24
 BYTE   Fn3
 BYTE   W24
 BYTE   PATT
  POIN2 Label_0_017D98F7
// 018   ----------------------------------------
 BYTE   EOT
 BYTE   An3
 BYTE   PATT
  POIN2 Label_0_017D9902
 BYTE   PATT
  POIN2 Label_0_017D98F7
// 019   ----------------------------------------
 BYTE   EOT
 BYTE   An3
 BYTE   PATT
  POIN2 Label_0_017D9902
 BYTE   PATT
  POIN2 Label_0_017D98F7
// 020   ----------------------------------------
 BYTE   EOT
 BYTE   An3
 BYTE   PATT
  POIN2 Label_0_017D9902
 BYTE   PATT
  POIN2 Label_0_017D9928
// 021   ----------------------------------------
 BYTE   EOT
 BYTE   Gn3
 BYTE   PATT
  POIN2 Label_0_017D9902
 BYTE   PATT
  POIN2 Label_0_017D98F7
// 022   ----------------------------------------
 BYTE   EOT
 BYTE   An3
 BYTE   N24  An3  v100
 BYTE   N72  An5  v052
 BYTE   W24
 BYTE   N24  Cn3  v100
 BYTE   W24
 BYTE   Fn3
 BYTE   W24
 BYTE   TIE  An3
 BYTE   N72  An5  v052
 BYTE   W48
// 023   ----------------------------------------
 BYTE   W72
 BYTE   EOT
 BYTE   An3
 BYTE   N24  An3  v100
 BYTE   N72  An5  v052
 BYTE   W24
// 024   ----------------------------------------
 BYTE   N24  Cn3  v100
 BYTE   W24
 BYTE   Fn3
 BYTE   W24
 BYTE   TIE  Gn3
 BYTE   N72  Gn5  v052
 BYTE   W96
// 025   ----------------------------------------
 BYTE   W24
 BYTE   EOT
 BYTE   Gn3
 BYTE   N24  Fn3  v100
 BYTE   N72  Fn5  v060
 BYTE   W24
 BYTE   N24  Dn3  v100
 BYTE   W24
 BYTE   En3
 BYTE   W24
// 026   ----------------------------------------
 BYTE   TIE  Fn3
 BYTE   TIE  Fn5  v060
 BYTE   W24
 BYTE   W96
// 027   ----------------------------------------
 BYTE   EOT
 BYTE   Fn3  v089
 BYTE   N24  Gn3  v100
 BYTE   N72  Gn5  v060
 BYTE   W24
 BYTE   N24  Bn2  v100
 BYTE   W24
 BYTE   Dn3
 BYTE   W24
 BYTE   TIE  Gn3
 BYTE   TIE  Gn5  v060
 BYTE   W72
// 028   ----------------------------------------
 BYTE   VOL   49*LoZMajorasMaskAstralObservatoryPandan_mvl/mxv
 BYTE   W06
 BYTE   Gs3
 BYTE   W07
 BYTE   Gs3
 BYTE   W06
 BYTE   Gn3
 BYTE   W07
 BYTE   Fs3
 BYTE   W06
 BYTE   Fs3
 BYTE   W07
 BYTE   Fn3
 BYTE   W06
 BYTE   En3
 BYTE   W03
 BYTE   EOT
 BYTE   Gn3  v091
 BYTE   N24  Gn3  v100
 BYTE   N72  Gn5  v060
 BYTE   W04
 BYTE   VOL   44*LoZMajorasMaskAstralObservatoryPandan_mvl/mxv
 BYTE   W06
 BYTE   Ds3
 BYTE   W07
 BYTE   Dn3
 BYTE   W06
 BYTE   Dn3
 BYTE   W01
 BYTE   N24  Bn2  v100
 BYTE   W06
 BYTE   VOL   41*LoZMajorasMaskAstralObservatoryPandan_mvl/mxv
 BYTE   W07
 BYTE   Cs3
 BYTE   W06
 BYTE   Cn3
 BYTE   W05
// 029   ----------------------------------------
 BYTE   N24  Dn3
 BYTE   W02
 BYTE   VOL   39*LoZMajorasMaskAstralObservatoryPandan_mvl/mxv
 BYTE   W06
 BYTE   Bn2
 BYTE   W07
 BYTE   As2
 BYTE   W06
 BYTE   An2
 BYTE   W03
 BYTE   TIE  Fn3
 BYTE   TIE  Fn5  v060
 BYTE   W04
 BYTE   VOL   37*LoZMajorasMaskAstralObservatoryPandan_mvl/mxv
 BYTE   W06
 BYTE   Gs2
 BYTE   W07
 BYTE   Gs2
 BYTE   W06
 BYTE   Gn2
 BYTE   W07
 BYTE   Fs2
 BYTE   W07
 BYTE   Fs2
 BYTE   W06
 BYTE   Fn2
 BYTE   W07
 BYTE   En2
 BYTE   W06
 BYTE   En2
 BYTE   W07
 BYTE   Ds2
 BYTE   W06
 BYTE   Ds2
 BYTE   W07
// 030   ----------------------------------------
 BYTE   Dn2
 BYTE   W06
 BYTE   Cs2
 BYTE   W07
 BYTE   Cs2
 BYTE   W06
 BYTE   Cn2
 BYTE   W07
 BYTE   Bn1
 BYTE   W07
 BYTE   Bn1
 BYTE   W06
 BYTE   As1
 BYTE   W05
 BYTE   EOT
 BYTE   Fn3  v089
 BYTE   N24  Fn3
 BYTE   N72  Fn5
 BYTE   W02
 BYTE   VOL   25*LoZMajorasMaskAstralObservatoryPandan_mvl/mxv
 BYTE   W06
 BYTE   An1
 BYTE   W07
 BYTE   Gs1
 BYTE   W06
 BYTE   Gs1
 BYTE   W03
 BYTE   N24  As2
 BYTE   W04
 BYTE   VOL   23*LoZMajorasMaskAstralObservatoryPandan_mvl/mxv
 BYTE   W06
 BYTE   Fs1
 BYTE   W07
 BYTE   Fs1
 BYTE   W06
 BYTE   Fn1
 BYTE   W01
 BYTE   N24  Cn3
 BYTE   W06
// 031   ----------------------------------------
 BYTE   VOL   20*LoZMajorasMaskAstralObservatoryPandan_mvl/mxv
 BYTE   W07
 BYTE   En1
 BYTE   W06
 BYTE   Ds1
 BYTE   W05
 BYTE   TIE  Fn3
 BYTE   TIE  Fn5
 BYTE   W02
 BYTE   VOL   19*LoZMajorasMaskAstralObservatoryPandan_mvl/mxv
 BYTE   W06
 BYTE   Dn1
 BYTE   W07
 BYTE   Cs1
 BYTE   W06
 BYTE   Cs1
 BYTE   W07
 BYTE   Cn1
 BYTE   W06
 BYTE   Bn0
 BYTE   W07
 BYTE   Bn0
 BYTE   W06
 BYTE   As0
 BYTE   W01
 BYTE   W06
 BYTE   As0
 BYTE   W06
 BYTE   An0
 BYTE   W07
 BYTE   Gs0
 BYTE   W07
 BYTE   Gs0
 BYTE   W06
// 032   ----------------------------------------
 BYTE   Gn0
 BYTE   W07
 BYTE   Fs0
 BYTE   W06
 BYTE   Fs0
 BYTE   W07
 BYTE   Fn0
 BYTE   W06
 BYTE   En0
 BYTE   W07
 BYTE   En0
 BYTE   W06
 BYTE   Ds0
 BYTE   W01
 BYTE   EOT
 BYTE   Fn3  v089
 BYTE   N24  En3
 BYTE   N72  En5
 BYTE   W06
 BYTE   VOL   7*LoZMajorasMaskAstralObservatoryPandan_mvl/mxv
 BYTE   W06
 BYTE   Dn0
 BYTE   W07
 BYTE   Cs0
 BYTE   W05
 BYTE   N24  An2
 BYTE   W02
 BYTE   VOL   5*LoZMajorasMaskAstralObservatoryPandan_mvl/mxv
 BYTE   W06
 BYTE   Cn0
 BYTE   W07
 BYTE   BnM1
 BYTE   W06
 BYTE   BnM1
 BYTE   W03
 BYTE   N24  As2
 BYTE   W04
 BYTE   VOL   2*LoZMajorasMaskAstralObservatoryPandan_mvl/mxv
 BYTE   W06
// 033   ----------------------------------------
 BYTE   AsM1
 BYTE   W07
 BYTE   AnM1
 BYTE   W06
 BYTE   GsM1
 BYTE   W01
 BYTE   N24  En3
 BYTE   TIE  En5
 BYTE   W06
 BYTE   VOL   0*LoZMajorasMaskAstralObservatoryPandan_mvl/mxv
 BYTE   W06
 BYTE   GnM1
 BYTE   W07
 BYTE   FsM1
 BYTE   W07
 BYTE   FsM1
 BYTE   W06
 BYTE   FnM1
 BYTE   W04
 BYTE   N12  As2  v100
 BYTE   W03
 BYTE   VOL   0*LoZMajorasMaskAstralObservatoryPandan_mvl/mxv
 BYTE   W06
 BYTE   EnM1
 BYTE   W03
 BYTE   N12  Cn3
 BYTE   W04
 BYTE   VOL   0*LoZMajorasMaskAstralObservatoryPandan_mvl/mxv
 BYTE   W06
 BYTE   DsM1
 BYTE   W02
 BYTE   N12  Dn3
 BYTE   W05
 BYTE   VOL   0*LoZMajorasMaskAstralObservatoryPandan_mvl/mxv
 BYTE   W06
 BYTE   CsM1
 BYTE   W01
 BYTE   N12  En3
 BYTE   W06
 BYTE   VOL   0*LoZMajorasMaskAstralObservatoryPandan_mvl/mxv
 BYTE   W06
// 034   ----------------------------------------
 BYTE   CnM1
 BYTE   N12  Fn3
 BYTE   W07
 BYTE   VOL   0*LoZMajorasMaskAstralObservatoryPandan_mvl/mxv
 BYTE   W05
 BYTE   N12  Gn3
 BYTE   W02
 BYTE   VOL   0*LoZMajorasMaskAstralObservatoryPandan_mvl/mxv
 BYTE   W06
 BYTE   AsM2
 BYTE   W04
 BYTE   N12  Gs3
 BYTE   W03
 BYTE   VOL   0*LoZMajorasMaskAstralObservatoryPandan_mvl/mxv
 BYTE   W06
 BYTE   AnM2
 BYTE   W03
 BYTE   EOT
 BYTE   En5
 BYTE   W04
 BYTE   VOL   0*LoZMajorasMaskAstralObservatoryPandan_mvl/mxv
 BYTE   W06
 BYTE   GsM2
 BYTE   W07
 BYTE   GnM2
 BYTE   W06
 BYTE   FsM2
 BYTE   W07
 BYTE   FsM2
 BYTE   W06
 BYTE   FnM2
 BYTE   W07
 BYTE   FnM2
 BYTE   W06
 BYTE   EnM2
 BYTE   W07
 BYTE   DsM2
 BYTE   W07
// 035   ----------------------------------------
 BYTE   DsM2
 BYTE   W06
 BYTE   DnM2
 BYTE   W07
 BYTE   CsM2
 BYTE   W06
 BYTE   CsM2
 BYTE   W07
 BYTE   CnM2
 BYTE   W06
 BYTE   CnM2
 BYTE   FINE

//**************** Track 2 (Midi-Chn.1) ****************//

LoZMajorasMaskAstralObservatoryPandan_002:
// 000   ----------------------------------------
 BYTE   KEYSH   LoZMajorasMaskAstralObservatoryPandan_key+0
Label_1_017D9BB6:
 BYTE   VOICE   24
 BYTE   VOL   30*LoZMajorasMaskAstralObservatoryPandan_mvl/mxv
 BYTE   W84
Label_1_017D9BBB:
 BYTE   W12
// 001   ----------------------------------------
 BYTE   N12  Cn3  v072
 BYTE   W12
 BYTE   Fn3
 BYTE   W12
 BYTE   Cn3
 BYTE   W12
 BYTE   An3
 BYTE   W12
 BYTE   Cn3
 BYTE   W12
 BYTE   PEND 
Label_1_017D9BC9:
 BYTE   N12  Fn3  v072
 BYTE   W12
 BYTE   Cn3
 BYTE   W12
 BYTE   Cn4  v100
 BYTE   W12
// 002   ----------------------------------------
 BYTE   Cn3  v072
 BYTE   W12
 BYTE   Fn3  v100
 BYTE   W12
 BYTE   Cn3  v072
 BYTE   W12
 BYTE   An3  v100
 BYTE   W12
 BYTE   Cn3  v072
 BYTE   W12
 BYTE   Fn3  v100
 BYTE   W12
 BYTE   Cn3  v072
 BYTE   W12
 BYTE   PEND 
Label_1_017D9BE8:
 BYTE   W12
// 003   ----------------------------------------
 BYTE   N12  Dn3  v072
 BYTE   W12
 BYTE   Fn3
 BYTE   W12
 BYTE   Dn3
 BYTE   W12
 BYTE   An3
 BYTE   W12
 BYTE   Dn3
 BYTE   W12
 BYTE   PEND 
Label_1_017D9BF6:
 BYTE   N12  Fn3  v072
 BYTE   W12
 BYTE   Dn3
 BYTE   W12
 BYTE   Dn4  v100
 BYTE   W12
// 004   ----------------------------------------
 BYTE   Dn3  v072
 BYTE   W12
 BYTE   Fn3  v100
 BYTE   W12
 BYTE   Dn3  v072
 BYTE   W12
 BYTE   An3  v100
 BYTE   W12
 BYTE   Dn3  v072
 BYTE   W12
 BYTE   Fn3  v100
 BYTE   W12
 BYTE   Dn3  v072
 BYTE   W12
 BYTE   PEND 
 BYTE   PATT
  POIN2 Label_1_017D9BBB
 BYTE   PATT
  POIN2 Label_1_017D9BC9
 BYTE   PATT
  POIN2 Label_1_017D9BE8
 BYTE   PATT
  POIN2 Label_1_017D9BF6
// 005   ----------------------------------------
Label_1_017D9C29:
 BYTE   W12
 BYTE   N12  Ds3  v072
 BYTE   W12
 BYTE   Gn3
 BYTE   W12
 BYTE   Ds3
 BYTE   W12
 BYTE   As3
 BYTE   W12
 BYTE   Ds3
 BYTE   W12
 BYTE   PEND 
Label_1_017D9C37:
 BYTE   N12  Gn3  v072
 BYTE   W12
 BYTE   Ds3
 BYTE   W12
// 006   ----------------------------------------
 BYTE   Dn4  v100
 BYTE   W12
 BYTE   Ds3  v072
 BYTE   W12
 BYTE   Gn3  v100
 BYTE   W12
 BYTE   Ds3  v072
 BYTE   W12
 BYTE   As3  v100
 BYTE   W12
 BYTE   Ds3  v072
 BYTE   W12
 BYTE   Gn3  v100
 BYTE   W12
 BYTE   Ds3  v072
 BYTE   W12
 BYTE   PEND 
// 007   ----------------------------------------
 BYTE   W12
 BYTE   En3
 BYTE   W12
 BYTE   Gn3
 BYTE   W12
 BYTE   En3
 BYTE   W12
 BYTE   As3
 BYTE   W12
 BYTE   En3
 BYTE   W12
 BYTE   Gn3
 BYTE   W12
 BYTE   En3
 BYTE   W12
// 008   ----------------------------------------
 BYTE   Dn4  v100
 BYTE   W12
 BYTE   En3  v072
 BYTE   W12
 BYTE   Gn3  v100
 BYTE   W12
 BYTE   En3  v072
 BYTE   W12
 BYTE   As3  v100
 BYTE   W12
 BYTE   En3  v072
 BYTE   W12
 BYTE   Gn3  v100
 BYTE   W12
 BYTE   En3  v072
 BYTE   W12
// 009   ----------------------------------------
 BYTE   W12
 BYTE   N12
 BYTE   W12
 BYTE   Gn3
 BYTE   W12
 BYTE   En3
 BYTE   W12
 BYTE   An3
 BYTE   W12
 BYTE   En3
 BYTE   W12
 BYTE   Gn3  v100
 BYTE   W12
 BYTE   En3  v072
 BYTE   W12
// 010   ----------------------------------------
 BYTE   Cs4  v100
 BYTE   W12
 BYTE   En3  v072
 BYTE   W12
 BYTE   Gn3  v100
 BYTE   W12
 BYTE   En3  v072
 BYTE   W12
 BYTE   An3  v100
 BYTE   W12
 BYTE   En3  v072
 BYTE   W12
 BYTE   Gn3  v100
 BYTE   W12
 BYTE   En3  v072
 BYTE   W12
 BYTE   PATT
  POIN2 Label_1_017D9BE8
 BYTE   PATT
  POIN2 Label_1_017D9BF6
// 011   ----------------------------------------
 BYTE   W12
 BYTE   N12  Dn3  v072
 BYTE   W12
 BYTE   Fn3
 BYTE   W12
 BYTE   Dn3
 BYTE   W12
 BYTE   Bn3
 BYTE   W12
 BYTE   Dn3
 BYTE   W12
 BYTE   Fn3
 BYTE   W12
 BYTE   Dn3
 BYTE   W12
// 012   ----------------------------------------
 BYTE   Dn4  v100
 BYTE   W12
 BYTE   Dn3  v072
 BYTE   W12
 BYTE   Fn3  v100
 BYTE   W12
 BYTE   Dn3  v072
 BYTE   W12
 BYTE   Bn3  v100
 BYTE   W12
 BYTE   Dn3  v072
 BYTE   W12
 BYTE   Fn3  v100
 BYTE   W12
 BYTE   Dn3  v072
 BYTE   W12
// 013   ----------------------------------------
 BYTE   W12
 BYTE   N12
 BYTE   W12
 BYTE   Gn3
 BYTE   W12
 BYTE   Dn3
 BYTE   W12
 BYTE   Bn3
 BYTE   W12
 BYTE   Dn3
 BYTE   W12
 BYTE   Gn3
 BYTE   W12
 BYTE   Dn3
 BYTE   W12
// 014   ----------------------------------------
 BYTE   Dn4  v100
 BYTE   W12
 BYTE   Dn3  v072
 BYTE   W12
 BYTE   Gn3  v100
 BYTE   W12
 BYTE   Dn3  v072
 BYTE   W12
 BYTE   Bn3  v100
 BYTE   W12
 BYTE   Dn3  v072
 BYTE   W12
 BYTE   Gn3  v100
 BYTE   W12
 BYTE   Dn3  v072
 BYTE   W12
// 015   ----------------------------------------
 BYTE   W12
 BYTE   Cn3
 BYTE   W12
 BYTE   Fn3
 BYTE   W12
 BYTE   Cn3
 BYTE   W12
 BYTE   As3
 BYTE   W12
 BYTE   Cn3
 BYTE   W12
 BYTE   Fn3
 BYTE   W12
 BYTE   Cn3
 BYTE   W12
// 016   ----------------------------------------
 BYTE   Cn4  v100
 BYTE   W12
 BYTE   Cn3  v072
 BYTE   W12
 BYTE   Fn3  v100
 BYTE   W12
 BYTE   Cn3  v072
 BYTE   W12
 BYTE   As3  v100
 BYTE   W12
 BYTE   Cn3  v072
 BYTE   W12
 BYTE   Fn3  v100
 BYTE   W12
 BYTE   Cn3  v072
 BYTE   W12
// 017   ----------------------------------------
 BYTE   W12
 BYTE   N12
 BYTE   W12
 BYTE   En3
 BYTE   W12
 BYTE   Cn3
 BYTE   W12
 BYTE   As3
 BYTE   W12
 BYTE   Cn3
 BYTE   W12
 BYTE   N36  En3
 BYTE   W44
// 018   ----------------------------------------
 BYTE   W01
 BYTE   GoTo
  POIN2 Label_1_017D9BB6
// 019   ----------------------------------------
 BYTE   W72
 BYTE   W03
 BYTE   PATT
  POIN2 Label_1_017D9BBB
 BYTE   PATT
  POIN2 Label_1_017D9BC9
 BYTE   PATT
  POIN2 Label_1_017D9BE8
 BYTE   PATT
  POIN2 Label_1_017D9BF6
 BYTE   PATT
  POIN2 Label_1_017D9BBB
 BYTE   PATT
  POIN2 Label_1_017D9BC9
 BYTE   PATT
  POIN2 Label_1_017D9BE8
 BYTE   PATT
  POIN2 Label_1_017D9BF6
 BYTE   PATT
  POIN2 Label_1_017D9C29
 BYTE   PATT
  POIN2 Label_1_017D9C37
// 020   ----------------------------------------
 BYTE   W12
 BYTE   N12  En3  v072
 BYTE   W12
 BYTE   Gn3
 BYTE   W12
 BYTE   En3
 BYTE   W12
 BYTE   As3
 BYTE   W12
 BYTE   En3
 BYTE   W12
 BYTE   Gn3
 BYTE   W12
 BYTE   En3
 BYTE   W12
// 021   ----------------------------------------
 BYTE   Dn4  v100
 BYTE   W12
 BYTE   En3  v072
 BYTE   W12
 BYTE   Gn3  v100
 BYTE   W12
 BYTE   En3  v072
 BYTE   W12
 BYTE   As3  v100
 BYTE   W12
 BYTE   En3  v072
 BYTE   W12
 BYTE   Gn3  v100
 BYTE   W12
 BYTE   En3  v072
 BYTE   W24
// 022   ----------------------------------------
 BYTE   N12
 BYTE   W12
 BYTE   Gn3
 BYTE   W12
 BYTE   En3
 BYTE   W12
 BYTE   An3
 BYTE   W12
 BYTE   En3
 BYTE   W12
 BYTE   Gn3  v100
 BYTE   W12
 BYTE   En3  v072
 BYTE   W12
 BYTE   Cs4  v100
 BYTE   W12
// 023   ----------------------------------------
 BYTE   En3  v072
 BYTE   W12
 BYTE   Gn3  v100
 BYTE   W12
 BYTE   En3  v072
 BYTE   W12
 BYTE   An3  v100
 BYTE   W12
 BYTE   En3  v072
 BYTE   W12
 BYTE   Gn3  v100
 BYTE   W12
 BYTE   En3  v072
 BYTE   W24
// 024   ----------------------------------------
 BYTE   Dn3
 BYTE   W12
 BYTE   Fn3
 BYTE   W12
 BYTE   Dn3
 BYTE   W12
 BYTE   An3
 BYTE   W12
 BYTE   Dn3
 BYTE   W12
 BYTE   Fn3
 BYTE   W12
 BYTE   Dn3
 BYTE   W12
 BYTE   Dn4  v100
 BYTE   W12
// 025   ----------------------------------------
 BYTE   Dn3  v072
 BYTE   W12
 BYTE   Fn3  v100
 BYTE   W12
 BYTE   Dn3  v072
 BYTE   W12
 BYTE   An3  v100
 BYTE   W12
 BYTE   Dn3  v072
 BYTE   W12
 BYTE   Fn3  v100
 BYTE   W12
 BYTE   Dn3  v072
 BYTE   W24
// 026   ----------------------------------------
 BYTE   N12
 BYTE   W12
 BYTE   Fn3
 BYTE   W12
 BYTE   Dn3
 BYTE   W12
 BYTE   Bn3
 BYTE   W12
 BYTE   Dn3
 BYTE   W12
 BYTE   Fn3
 BYTE   W12
 BYTE   Dn3
 BYTE   W12
 BYTE   Dn4  v100
 BYTE   W12
// 027   ----------------------------------------
 BYTE   Dn3  v072
 BYTE   W12
 BYTE   Fn3  v100
 BYTE   W12
 BYTE   Dn3  v072
 BYTE   W12
 BYTE   VOL   17*LoZMajorasMaskAstralObservatoryPandan_mvl/mxv
 BYTE   N12  Bn3  v100
 BYTE   W11
 BYTE   VOL   17*LoZMajorasMaskAstralObservatoryPandan_mvl/mxv
 BYTE   W01
 BYTE   N12  Dn3  v072
 BYTE   W11
 BYTE   VOL   16*LoZMajorasMaskAstralObservatoryPandan_mvl/mxv
 BYTE   W01
 BYTE   N12  Fn3  v100
 BYTE   W11
 BYTE   VOL   15*LoZMajorasMaskAstralObservatoryPandan_mvl/mxv
 BYTE   W01
 BYTE   N12  Dn3  v072
 BYTE   W11
 BYTE   VOL   15*LoZMajorasMaskAstralObservatoryPandan_mvl/mxv
 BYTE   W12
 BYTE   As0
 BYTE   W01
// 028   ----------------------------------------
 BYTE   N12
 BYTE   W11
 BYTE   VOL   14*LoZMajorasMaskAstralObservatoryPandan_mvl/mxv
 BYTE   W01
 BYTE   N12  Gn3
 BYTE   W11
 BYTE   VOL   13*LoZMajorasMaskAstralObservatoryPandan_mvl/mxv
 BYTE   W01
 BYTE   N12  Dn3
 BYTE   W11
 BYTE   VOL   12*LoZMajorasMaskAstralObservatoryPandan_mvl/mxv
 BYTE   W01
 BYTE   N12  Bn3
 BYTE   W11
 BYTE   VOL   12*LoZMajorasMaskAstralObservatoryPandan_mvl/mxv
 BYTE   W01
 BYTE   N12  Dn3
 BYTE   W11
 BYTE   VOL   11*LoZMajorasMaskAstralObservatoryPandan_mvl/mxv
 BYTE   W01
 BYTE   N12  Gn3
 BYTE   W11
 BYTE   VOL   10*LoZMajorasMaskAstralObservatoryPandan_mvl/mxv
 BYTE   W01
 BYTE   N12  Dn3
 BYTE   W11
 BYTE   VOL   10*LoZMajorasMaskAstralObservatoryPandan_mvl/mxv
 BYTE   W01
 BYTE   N12  Dn4  v100
 BYTE   W11
 BYTE   VOL   9*LoZMajorasMaskAstralObservatoryPandan_mvl/mxv
 BYTE   W01
// 029   ----------------------------------------
 BYTE   N12  Dn3  v072
 BYTE   W11
 BYTE   VOL   8*LoZMajorasMaskAstralObservatoryPandan_mvl/mxv
 BYTE   W01
 BYTE   N12  Gn3  v100
 BYTE   W11
 BYTE   VOL   8*LoZMajorasMaskAstralObservatoryPandan_mvl/mxv
 BYTE   W01
 BYTE   N12  Dn3  v072
 BYTE   W11
 BYTE   VOL   7*LoZMajorasMaskAstralObservatoryPandan_mvl/mxv
 BYTE   W01
 BYTE   N12  Bn3  v100
 BYTE   W11
 BYTE   VOL   7*LoZMajorasMaskAstralObservatoryPandan_mvl/mxv
 BYTE   W01
 BYTE   N12  Dn3  v072
 BYTE   W11
 BYTE   VOL   6*LoZMajorasMaskAstralObservatoryPandan_mvl/mxv
 BYTE   W01
 BYTE   N12  Gn3  v100
 BYTE   W11
 BYTE   VOL   5*LoZMajorasMaskAstralObservatoryPandan_mvl/mxv
 BYTE   W01
 BYTE   N12  Dn3  v072
 BYTE   W11
 BYTE   VOL   5*LoZMajorasMaskAstralObservatoryPandan_mvl/mxv
 BYTE   W01
 BYTE   W11
 BYTE   Cn0
 BYTE   W01
// 030   ----------------------------------------
 BYTE   N12  Cn3
 BYTE   W11
 BYTE   VOL   3*LoZMajorasMaskAstralObservatoryPandan_mvl/mxv
 BYTE   W01
 BYTE   N12  Fn3
 BYTE   W11
 BYTE   VOL   3*LoZMajorasMaskAstralObservatoryPandan_mvl/mxv
 BYTE   W01
 BYTE   N12  Cn3
 BYTE   W11
 BYTE   VOL   2*LoZMajorasMaskAstralObservatoryPandan_mvl/mxv
 BYTE   W01
 BYTE   N12  As3
 BYTE   W11
 BYTE   VOL   2*LoZMajorasMaskAstralObservatoryPandan_mvl/mxv
 BYTE   W01
 BYTE   N12  Cn3
 BYTE   W11
 BYTE   VOL   1*LoZMajorasMaskAstralObservatoryPandan_mvl/mxv
 BYTE   W01
 BYTE   N12  Fn3
 BYTE   W11
 BYTE   VOL   0*LoZMajorasMaskAstralObservatoryPandan_mvl/mxv
 BYTE   W01
 BYTE   N12  Cn3
 BYTE   W11
 BYTE   VOL   0*LoZMajorasMaskAstralObservatoryPandan_mvl/mxv
 BYTE   W01
 BYTE   N12  Cn4  v100
 BYTE   W11
 BYTE   VOL   0*LoZMajorasMaskAstralObservatoryPandan_mvl/mxv
 BYTE   W01
// 031   ----------------------------------------
 BYTE   N12  Cn3  v072
 BYTE   W11
 BYTE   VOL   0*LoZMajorasMaskAstralObservatoryPandan_mvl/mxv
 BYTE   W01
 BYTE   N12  Fn3  v100
 BYTE   W11
 BYTE   VOL   0*LoZMajorasMaskAstralObservatoryPandan_mvl/mxv
 BYTE   W01
 BYTE   N12  Cn3  v072
 BYTE   W11
 BYTE   VOL   0*LoZMajorasMaskAstralObservatoryPandan_mvl/mxv
 BYTE   W01
 BYTE   N12  As3  v100
 BYTE   W11
 BYTE   VOL   0*LoZMajorasMaskAstralObservatoryPandan_mvl/mxv
 BYTE   W01
 BYTE   N12  Cn3  v072
 BYTE   W11
 BYTE   VOL   0*LoZMajorasMaskAstralObservatoryPandan_mvl/mxv
 BYTE   W01
 BYTE   N12  Fn3  v100
 BYTE   W11
 BYTE   VOL   0*LoZMajorasMaskAstralObservatoryPandan_mvl/mxv
 BYTE   W01
 BYTE   N12  Cn3  v072
 BYTE   W11
 BYTE   VOL   0*LoZMajorasMaskAstralObservatoryPandan_mvl/mxv
 BYTE   W12
 BYTE   DnM1
 BYTE   W01
// 032   ----------------------------------------
 BYTE   N12
 BYTE   W11
 BYTE   VOL   0*LoZMajorasMaskAstralObservatoryPandan_mvl/mxv
 BYTE   W01
 BYTE   N12  En3
 BYTE   W11
 BYTE   VOL   0*LoZMajorasMaskAstralObservatoryPandan_mvl/mxv
 BYTE   W01
 BYTE   N12  Cn3
 BYTE   W11
 BYTE   VOL   0*LoZMajorasMaskAstralObservatoryPandan_mvl/mxv
 BYTE   W01
 BYTE   N12  As3
 BYTE   W11
 BYTE   VOL   0*LoZMajorasMaskAstralObservatoryPandan_mvl/mxv
 BYTE   W01
 BYTE   N12  Cn3
 BYTE   W11
 BYTE   VOL   0*LoZMajorasMaskAstralObservatoryPandan_mvl/mxv
 BYTE   W01
 BYTE   N36  En3
 BYTE   W11
 BYTE   VOL   0*LoZMajorasMaskAstralObservatoryPandan_mvl/mxv
 BYTE   W12
 BYTE   AsM2
 BYTE   W12
 BYTE   AnM2
 BYTE   W12
// 033   ----------------------------------------
 BYTE   GsM2
 BYTE   W12
 BYTE   GsM2
 BYTE   W12
 BYTE   GnM2
 BYTE   W12
 BYTE   FsM2
 BYTE   W12
 BYTE   FsM2
 BYTE   W01
 BYTE   W11
 BYTE   FnM2
 BYTE   W12
 BYTE   FnM2
 BYTE   W12
 BYTE   EnM2
 BYTE   W12
// 034   ----------------------------------------
 BYTE   DsM2
 BYTE   W12
 BYTE   DsM2
 BYTE   W12
 BYTE   DnM2
 BYTE   W12
 BYTE   CsM2
 BYTE   W12
 BYTE   CsM2
 BYTE   W12
 BYTE   CnM2
 BYTE   W12
 BYTE   CnM2
 BYTE   FINE

//**************** Track 3 (Midi-Chn.2) ****************//

LoZMajorasMaskAstralObservatoryPandan_003:
// 000   ----------------------------------------
 BYTE   KEYSH   LoZMajorasMaskAstralObservatoryPandan_key+0
Label_2_017D9F32:
 BYTE   VOICE   52
 BYTE   VOL   24*LoZMajorasMaskAstralObservatoryPandan_mvl/mxv
 BYTE   W84
 BYTE   N72  An2  v100
 BYTE   W72
// 001   ----------------------------------------
Label_2_017D9F3B:
 BYTE   TIE  An2  v100
 BYTE   W96
// 002   ----------------------------------------
 BYTE   W24
 BYTE   PEND 
 BYTE   EOT
 BYTE   N72
 BYTE   W72
 BYTE   PATT
  POIN2 Label_2_017D9F3B
// 003   ----------------------------------------
 BYTE   EOT
 BYTE   An2
 BYTE   N72  An2  v100
 BYTE   W72
 BYTE   PATT
  POIN2 Label_2_017D9F3B
// 004   ----------------------------------------
 BYTE   EOT
 BYTE   An2
 BYTE   N72  An2  v100
 BYTE   W72
Label_2_017D9F5A:
 BYTE   TIE  Gn2  v100
 BYTE   W96
// 005   ----------------------------------------
 BYTE   W24
 BYTE   PEND 
 BYTE   EOT
 BYTE   N72  An2
 BYTE   W72
 BYTE   PATT
  POIN2 Label_2_017D9F3B
// 006   ----------------------------------------
 BYTE   EOT
 BYTE   An2
 BYTE   N72  An2  v100
 BYTE   W72
 BYTE   PATT
  POIN2 Label_2_017D9F3B
// 007   ----------------------------------------
 BYTE   EOT
 BYTE   An2
 BYTE   N72  An2  v100
 BYTE   W72
 BYTE   PATT
  POIN2 Label_2_017D9F5A
// 008   ----------------------------------------
 BYTE   EOT
 BYTE   Gn2
 BYTE   N72  Fn2  v100
 BYTE   W72
Label_2_017D9F85:
 BYTE   TIE  Fn2  v100
 BYTE   W96
// 009   ----------------------------------------
 BYTE   W24
 BYTE   PEND 
 BYTE   EOT
 BYTE   N72  Gn2
 BYTE   W72
 BYTE   PATT
  POIN2 Label_2_017D9F5A
// 010   ----------------------------------------
 BYTE   EOT
 BYTE   Gn2
 BYTE   N72  Fn2  v100
 BYTE   W72
 BYTE   PATT
  POIN2 Label_2_017D9F85
// 011   ----------------------------------------
 BYTE   EOT
 BYTE   Fn2
 BYTE   N72  Fn2  v100
 BYTE   W72
 BYTE   PATT
  POIN2 Label_2_017D9F85
// 012   ----------------------------------------
 BYTE   EOT
 BYTE   Fn2
 BYTE   N72  En2  v100
 BYTE   W72
 BYTE   TIE
 BYTE   W44
// 013   ----------------------------------------
 BYTE   W01
 BYTE   GoTo
  POIN2 Label_2_017D9F32
// 014   ----------------------------------------
 BYTE   W72
 BYTE   W03
 BYTE   EOT
 BYTE   En2
 BYTE   N72  An2  v100
 BYTE   W72
 BYTE   PATT
  POIN2 Label_2_017D9F3B
// 015   ----------------------------------------
 BYTE   EOT
 BYTE   An2
 BYTE   N72  An2  v100
 BYTE   W72
 BYTE   PATT
  POIN2 Label_2_017D9F3B
// 016   ----------------------------------------
 BYTE   EOT
 BYTE   An2
 BYTE   N72  An2  v100
 BYTE   W72
 BYTE   PATT
  POIN2 Label_2_017D9F3B
// 017   ----------------------------------------
 BYTE   EOT
 BYTE   An2
 BYTE   N72  An2  v100
 BYTE   W72
 BYTE   PATT
  POIN2 Label_2_017D9F5A
// 018   ----------------------------------------
 BYTE   EOT
 BYTE   Gn2
 BYTE   N72  An2  v100
 BYTE   W72
 BYTE   PATT
  POIN2 Label_2_017D9F3B
// 019   ----------------------------------------
 BYTE   EOT
 BYTE   An2
 BYTE   N72  An2  v100
 BYTE   W72
 BYTE   TIE
 BYTE   W48
// 020   ----------------------------------------
 BYTE   W72
 BYTE   EOT
 BYTE   N72
 BYTE   W48
// 021   ----------------------------------------
 BYTE   W24
 BYTE   TIE  Gn2
 BYTE   W96
// 022   ----------------------------------------
 BYTE   W24
 BYTE   EOT
 BYTE   N72  Fn2
 BYTE   W72
// 023   ----------------------------------------
 BYTE   TIE
 BYTE   W24
 BYTE   W96
// 024   ----------------------------------------
 BYTE   EOT
 BYTE   N72  Gn2
 BYTE   W24
 BYTE   W48
 BYTE   TIE
 BYTE   W72
// 025   ----------------------------------------
 BYTE   VOL   39*LoZMajorasMaskAstralObservatoryPandan_mvl/mxv
 BYTE   W07
 BYTE   Bn2
 BYTE   W08
 BYTE   As2
 BYTE   W07
 BYTE   An2
 BYTE   W08
 BYTE   An2
 BYTE   W07
 BYTE   Gs2
 BYTE   W08
 BYTE   Gs2
 BYTE   W03
 BYTE   EOT
 BYTE   N72  Fn2
 BYTE   W05
 BYTE   VOL   35*LoZMajorasMaskAstralObservatoryPandan_mvl/mxv
 BYTE   W07
 BYTE   Fs2
 BYTE   W08
 BYTE   Fs2
 BYTE   W07
 BYTE   Fn2
 BYTE   W08
 BYTE   En2
 BYTE   W07
 BYTE   En2
 BYTE   W08
// 026   ----------------------------------------
 BYTE   Ds2
 BYTE   W08
 BYTE   Ds2
 BYTE   W07
 BYTE   Dn2
 BYTE   W07
 BYTE   TIE
 BYTE   W01
 BYTE   VOL   29*LoZMajorasMaskAstralObservatoryPandan_mvl/mxv
 BYTE   W07
 BYTE   Cs2
 BYTE   W08
 BYTE   Cn2
 BYTE   W07
 BYTE   Bn1
 BYTE   W08
 BYTE   Bn1
 BYTE   W08
 BYTE   As1
 BYTE   W07
 BYTE   An1
 BYTE   W08
 BYTE   An1
 BYTE   W07
 BYTE   Gs1
 BYTE   W08
 BYTE   Gs1
 BYTE   W07
// 027   ----------------------------------------
 BYTE   Gn1
 BYTE   W08
 BYTE   Fs1
 BYTE   W08
 BYTE   Fs1
 BYTE   W07
 BYTE   Fn1
 BYTE   W08
 BYTE   En1
 BYTE   W07
 BYTE   En1
 BYTE   W06
 BYTE   EOT
 BYTE   N72
 BYTE   W02
 BYTE   VOL   19*LoZMajorasMaskAstralObservatoryPandan_mvl/mxv
 BYTE   W08
 BYTE   Ds1
 BYTE   W07
 BYTE   Dn1
 BYTE   W08
 BYTE   Cs1
 BYTE   W07
 BYTE   Cs1
 BYTE   W08
 BYTE   Cn1
 BYTE   W07
 BYTE   Bn0
 BYTE   W08
// 028   ----------------------------------------
 BYTE   Bn0
 BYTE   W08
 BYTE   As0
 BYTE   W07
 BYTE   As0
 BYTE   W02
 BYTE   TIE
 BYTE   W06
 BYTE   VOL   13*LoZMajorasMaskAstralObservatoryPandan_mvl/mxv
 BYTE   W07
 BYTE   Gs0
 BYTE   W08
 BYTE   Gs0
 BYTE   W07
 BYTE   Gn0
 BYTE   W08
 BYTE   Fs0
 BYTE   W08
 BYTE   Fs0
 BYTE   W04
 BYTE   W03
 BYTE   Fn0
 BYTE   W08
 BYTE   En0
 BYTE   W07
 BYTE   En0
 BYTE   W08
 BYTE   Ds0
 BYTE   W07
// 029   ----------------------------------------
 BYTE   Ds0
 BYTE   W08
 BYTE   Dn0
 BYTE   W08
 BYTE   Cs0
 BYTE   W07
 BYTE   Cs0
 BYTE   W08
 BYTE   Cn0
 BYTE   W07
 BYTE   BnM1
 BYTE   W01
 BYTE   EOT
 BYTE   N72  En2
 BYTE   W07
 BYTE   VOL   3*LoZMajorasMaskAstralObservatoryPandan_mvl/mxv
 BYTE   W08
 BYTE   AsM1
 BYTE   W07
 BYTE   AsM1
 BYTE   W08
 BYTE   AnM1
 BYTE   W07
 BYTE   GsM1
 BYTE   W08
 BYTE   GsM1
 BYTE   W03
 BYTE   W04
 BYTE   GnM1
 BYTE   W08
// 030   ----------------------------------------
 BYTE   FsM1
 BYTE   W08
 BYTE   FsM1
 BYTE   W04
 BYTE   TIE
 BYTE   W03
 BYTE   VOL   0*LoZMajorasMaskAstralObservatoryPandan_mvl/mxv
 BYTE   W08
 BYTE   FnM1
 BYTE   W07
 BYTE   EnM1
 BYTE   W08
 BYTE   DsM1
 BYTE   W07
 BYTE   DsM1
 BYTE   W08
 BYTE   DnM1
 BYTE   W08
 BYTE   CsM1
 BYTE   W07
 BYTE   CsM1
 BYTE   W08
 BYTE   CnM1
 BYTE   W07
 BYTE   BnM2
 BYTE   W08
 BYTE   BnM2
 BYTE   W07
// 031   ----------------------------------------
 BYTE   AsM2
 BYTE   W08
 BYTE   AsM2
 BYTE   W02
 BYTE   W06
 BYTE   AnM2
 BYTE   W07
 BYTE   GsM2
 BYTE   W08
 BYTE   GsM2
 BYTE   W03
 BYTE   EOT
 BYTE   W04
 BYTE   VOL   0*LoZMajorasMaskAstralObservatoryPandan_mvl/mxv
 BYTE   W08
 BYTE   FsM2
 BYTE   W08
 BYTE   FsM2
 BYTE   W07
 BYTE   FnM2
 BYTE   W08
 BYTE   FnM2
 BYTE   W07
 BYTE   EnM2
 BYTE   W08
 BYTE   DsM2
 BYTE   W07
 BYTE   DsM2
 BYTE   W08
// 032   ----------------------------------------
 BYTE   DnM2
 BYTE   W08
 BYTE   CsM2
 BYTE   W07
 BYTE   CsM2
 BYTE   W08
 BYTE   CnM2
 BYTE   W07
 BYTE   CnM2
 BYTE   FINE

//**************** Track 4 (Midi-Chn.3) ****************//

LoZMajorasMaskAstralObservatoryPandan_004:
// 000   ----------------------------------------
 BYTE   KEYSH   LoZMajorasMaskAstralObservatoryPandan_key+0
Label_3_017DA0F2:
 BYTE   VOICE   51
 BYTE   VOL   30*LoZMajorasMaskAstralObservatoryPandan_mvl/mxv
 BYTE   W84
 BYTE   N72  An2  v100
 BYTE   W72
// 001   ----------------------------------------
Label_3_017DA0FB:
 BYTE   TIE  An2  v100
 BYTE   W96
// 002   ----------------------------------------
 BYTE   W24
 BYTE   PEND 
 BYTE   EOT
 BYTE   N72
 BYTE   W72
 BYTE   PATT
  POIN2 Label_3_017DA0FB
// 003   ----------------------------------------
 BYTE   EOT
 BYTE   An2
 BYTE   N72  An2  v100
 BYTE   W72
 BYTE   PATT
  POIN2 Label_3_017DA0FB
// 004   ----------------------------------------
 BYTE   EOT
 BYTE   An2
 BYTE   N72  An2  v100
 BYTE   W72
Label_3_017DA11A:
 BYTE   TIE  Gn2  v100
 BYTE   W96
// 005   ----------------------------------------
 BYTE   W24
 BYTE   PEND 
 BYTE   EOT
 BYTE   N72  An2
 BYTE   W72
 BYTE   PATT
  POIN2 Label_3_017DA0FB
// 006   ----------------------------------------
 BYTE   EOT
 BYTE   An2
 BYTE   N72  An2  v100
 BYTE   W72
 BYTE   PATT
  POIN2 Label_3_017DA0FB
// 007   ----------------------------------------
 BYTE   EOT
 BYTE   An2
 BYTE   N72  An2  v100
 BYTE   W72
 BYTE   PATT
  POIN2 Label_3_017DA11A
// 008   ----------------------------------------
 BYTE   EOT
 BYTE   Gn2
 BYTE   N72  Fn2  v100
 BYTE   W72
Label_3_017DA145:
 BYTE   TIE  Fn2  v100
 BYTE   W96
// 009   ----------------------------------------
 BYTE   W24
 BYTE   PEND 
 BYTE   EOT
 BYTE   N72  Gn2
 BYTE   W72
 BYTE   PATT
  POIN2 Label_3_017DA11A
// 010   ----------------------------------------
 BYTE   EOT
 BYTE   Gn2
 BYTE   N72  Fn2  v100
 BYTE   W72
 BYTE   PATT
  POIN2 Label_3_017DA145
// 011   ----------------------------------------
 BYTE   EOT
 BYTE   Fn2
 BYTE   N72  Fn2  v100
 BYTE   W72
 BYTE   PATT
  POIN2 Label_3_017DA145
// 012   ----------------------------------------
 BYTE   EOT
 BYTE   Fn2
 BYTE   N72  En2  v100
 BYTE   W72
 BYTE   TIE
 BYTE   W44
// 013   ----------------------------------------
 BYTE   W01
 BYTE   GoTo
  POIN2 Label_3_017DA0F2
// 014   ----------------------------------------
 BYTE   W72
 BYTE   W03
 BYTE   EOT
 BYTE   En2
 BYTE   N72  An2  v100
 BYTE   W72
 BYTE   PATT
  POIN2 Label_3_017DA0FB
// 015   ----------------------------------------
 BYTE   EOT
 BYTE   An2
 BYTE   N72  An2  v100
 BYTE   W72
 BYTE   PATT
  POIN2 Label_3_017DA0FB
// 016   ----------------------------------------
 BYTE   EOT
 BYTE   An2
 BYTE   N72  An2  v100
 BYTE   W72
 BYTE   PATT
  POIN2 Label_3_017DA0FB
// 017   ----------------------------------------
 BYTE   EOT
 BYTE   An2
 BYTE   N72  An2  v100
 BYTE   W72
 BYTE   PATT
  POIN2 Label_3_017DA11A
// 018   ----------------------------------------
 BYTE   EOT
 BYTE   Gn2
 BYTE   N72  An2  v100
 BYTE   W72
 BYTE   PATT
  POIN2 Label_3_017DA0FB
// 019   ----------------------------------------
 BYTE   EOT
 BYTE   An2
 BYTE   N72  An2  v100
 BYTE   W72
 BYTE   TIE
 BYTE   W48
// 020   ----------------------------------------
 BYTE   W72
 BYTE   EOT
 BYTE   N72
 BYTE   W48
// 021   ----------------------------------------
 BYTE   W24
 BYTE   TIE  Gn2
 BYTE   W96
// 022   ----------------------------------------
 BYTE   W24
 BYTE   EOT
 BYTE   N72  Fn2
 BYTE   W72
// 023   ----------------------------------------
 BYTE   TIE
 BYTE   W24
 BYTE   W96
// 024   ----------------------------------------
 BYTE   EOT
 BYTE   N72  Gn2
 BYTE   W24
 BYTE   W48
 BYTE   TIE
 BYTE   W72
// 025   ----------------------------------------
 BYTE   VOL   42*LoZMajorasMaskAstralObservatoryPandan_mvl/mxv
 BYTE   W07
 BYTE   Dn3
 BYTE   W07
 BYTE   Cs3
 BYTE   W07
 BYTE   Cs3
 BYTE   W07
 BYTE   Cn3
 BYTE   W07
 BYTE   Bn2
 BYTE   W08
 BYTE   Bn2
 BYTE   W05
 BYTE   EOT
 BYTE   N72  Fn2
 BYTE   W02
 BYTE   VOL   38*LoZMajorasMaskAstralObservatoryPandan_mvl/mxv
 BYTE   W07
 BYTE   An2
 BYTE   W07
 BYTE   An2
 BYTE   W07
 BYTE   Gs2
 BYTE   W08
 BYTE   Gs2
 BYTE   W07
 BYTE   Gn2
 BYTE   W07
 BYTE   Fs2
 BYTE   W07
// 026   ----------------------------------------
 BYTE   Fs2
 BYTE   W07
 BYTE   Fn2
 BYTE   W08
 BYTE   En2
 BYTE   W05
 BYTE   TIE
 BYTE   W02
 BYTE   VOL   32*LoZMajorasMaskAstralObservatoryPandan_mvl/mxv
 BYTE   W07
 BYTE   Ds2
 BYTE   W07
 BYTE   Ds2
 BYTE   W07
 BYTE   Dn2
 BYTE   W08
 BYTE   Cs2
 BYTE   W07
 BYTE   Cs2
 BYTE   W07
 BYTE   Cn2
 BYTE   W07
 BYTE   Bn1
 BYTE   W07
 BYTE   Bn1
 BYTE   W08
 BYTE   As1
 BYTE   W07
 BYTE   An1
 BYTE   W07
// 027   ----------------------------------------
 BYTE   An1
 BYTE   W07
 BYTE   Gs1
 BYTE   W07
 BYTE   Gs1
 BYTE   W08
 BYTE   Gn1
 BYTE   W07
 BYTE   Fs1
 BYTE   W07
 BYTE   Fs1
 BYTE   W03
 BYTE   EOT
 BYTE   N72
 BYTE   W04
 BYTE   VOL   21*LoZMajorasMaskAstralObservatoryPandan_mvl/mxv
 BYTE   W07
 BYTE   En1
 BYTE   W08
 BYTE   En1
 BYTE   W07
 BYTE   Ds1
 BYTE   W07
 BYTE   Ds1
 BYTE   W07
 BYTE   Dn1
 BYTE   W07
 BYTE   Cs1
 BYTE   W08
 BYTE   Cs1
 BYTE   W07
// 028   ----------------------------------------
 BYTE   Cn1
 BYTE   W07
 BYTE   Bn0
 BYTE   W03
 BYTE   TIE
 BYTE   W04
 BYTE   VOL   15*LoZMajorasMaskAstralObservatoryPandan_mvl/mxv
 BYTE   W07
 BYTE   As0
 BYTE   W08
 BYTE   As0
 BYTE   W07
 BYTE   An0
 BYTE   W07
 BYTE   Gs0
 BYTE   W07
 BYTE   Gs0
 BYTE   W07
 BYTE   Gn0
 BYTE   W01
 BYTE   W07
 BYTE   Fs0
 BYTE   W07
 BYTE   Fs0
 BYTE   W07
 BYTE   Fn0
 BYTE   W07
 BYTE   En0
 BYTE   W07
 BYTE   En0
 BYTE   W08
// 029   ----------------------------------------
 BYTE   Ds0
 BYTE   W07
 BYTE   Ds0
 BYTE   W07
 BYTE   Dn0
 BYTE   W07
 BYTE   Cs0
 BYTE   W07
 BYTE   Cs0
 BYTE   W01
 BYTE   EOT
 BYTE   N72  En2
 BYTE   W07
 BYTE   VOL   4*LoZMajorasMaskAstralObservatoryPandan_mvl/mxv
 BYTE   W07
 BYTE   BnM1
 BYTE   W07
 BYTE   BnM1
 BYTE   W07
 BYTE   AsM1
 BYTE   W07
 BYTE   AsM1
 BYTE   W08
 BYTE   AnM1
 BYTE   W05
 BYTE   W02
 BYTE   GsM1
 BYTE   W07
 BYTE   GsM1
 BYTE   W07
 BYTE   GnM1
 BYTE   W07
// 030   ----------------------------------------
 BYTE   FsM1
 BYTE   W01
 BYTE   TIE
 BYTE   W07
 BYTE   VOL   0*LoZMajorasMaskAstralObservatoryPandan_mvl/mxv
 BYTE   W07
 BYTE   FnM1
 BYTE   W07
 BYTE   FnM1
 BYTE   W07
 BYTE   EnM1
 BYTE   W07
 BYTE   DsM1
 BYTE   W08
 BYTE   DsM1
 BYTE   W07
 BYTE   DnM1
 BYTE   W07
 BYTE   CsM1
 BYTE   W07
 BYTE   CsM1
 BYTE   W07
 BYTE   CnM1
 BYTE   W08
 BYTE   BnM2
 BYTE   W07
 BYTE   BnM2
 BYTE   W07
 BYTE   AsM2
 BYTE   W03
// 031   ----------------------------------------
 BYTE   W04
 BYTE   AsM2
 BYTE   W07
 BYTE   AnM2
 BYTE   W08
 BYTE   GsM2
 BYTE   W05
 BYTE   EOT
 BYTE   W02
 BYTE   VOL   0*LoZMajorasMaskAstralObservatoryPandan_mvl/mxv
 BYTE   W07
 BYTE   GnM2
 BYTE   W07
 BYTE   FsM2
 BYTE   W07
 BYTE   FsM2
 BYTE   W08
 BYTE   FnM2
 BYTE   W07
 BYTE   FnM2
 BYTE   W07
 BYTE   EnM2
 BYTE   W07
 BYTE   DsM2
 BYTE   W07
 BYTE   DsM2
 BYTE   W08
 BYTE   DnM2
 BYTE   W07
// 032   ----------------------------------------
 BYTE   CsM2
 BYTE   W07
 BYTE   CsM2
 BYTE   W07
 BYTE   CnM2
 BYTE   W07
 BYTE   CnM2
 BYTE   FINE

//**************** Track 5 (Midi-Chn.4) ****************//

LoZMajorasMaskAstralObservatoryPandan_005:
// 000   ----------------------------------------
 BYTE   KEYSH   LoZMajorasMaskAstralObservatoryPandan_key+0
Label_4_017DA2BA:
 BYTE   VOICE   0
 BYTE   VOL   49*LoZMajorasMaskAstralObservatoryPandan_mvl/mxv
 BYTE   W84
Label_4_017DA2BF:
 BYTE   N72  Fn1  v080
 BYTE   N72  An2  v072
 BYTE   N72  Cn3
 BYTE   N72  Fn3
 BYTE   W72
 BYTE   PEND 
// 001   ----------------------------------------
Label_4_017DA2CB:
 BYTE   TIE  Cn2  v080
 BYTE   TIE  An2  v072
 BYTE   TIE  Cn3
 BYTE   TIE  Fn3
 BYTE   W24
 BYTE   N96  Fn2  v080
 BYTE   W96
 BYTE   PEND 
// 002   ----------------------------------------
 BYTE   EOT
 BYTE   Cn2  v057
 BYTE   Cn3  v065
Label_4_017DA2E0:
 BYTE   N72  As1  v080
 BYTE   N72  As2
 BYTE   N72  Dn3
 BYTE   W72
 BYTE   PEND 
Label_4_017DA2E9:
 BYTE   TIE  Dn2  v080
 BYTE   TIE  As2
 BYTE   TIE  Dn3
 BYTE   W72
// 003   ----------------------------------------
 BYTE   N24  Fn2
 BYTE   W48
 BYTE   PEND 
 BYTE   EOT
 BYTE   Dn2  v058
 BYTE   Dn3
 BYTE   PATT
  POIN2 Label_4_017DA2BF
// 004   ----------------------------------------
Label_4_017DA2FE:
 BYTE   TIE  Cn2  v080
 BYTE   TIE  An2  v072
 BYTE   TIE  Cn3
 BYTE   TIE  Fn3
 BYTE   W72
 BYTE   N48  Fn1  v080
 BYTE   W48
 BYTE   PEND 
// 005   ----------------------------------------
 BYTE   EOT
 BYTE   Cn2  v057
 BYTE   Cn3  v065
Label_4_017DA313:
 BYTE   N72  As1  v080
 BYTE   N72  An2
 BYTE   N72  Dn3
 BYTE   W72
 BYTE   PEND 
Label_4_017DA31C:
 BYTE   TIE  Dn2  v080
 BYTE   TIE  An2
 BYTE   TIE  Dn3
 BYTE   W72
// 006   ----------------------------------------
 BYTE   N48  Fn2
 BYTE   W48
 BYTE   PEND 
 BYTE   EOT
 BYTE   Dn2  v057
 BYTE   Dn3
Label_4_017DA32C:
 BYTE   N72  Ds2  v080
 BYTE   N72  As2
 BYTE   N72  Dn3
 BYTE   W48
// 007   ----------------------------------------
 BYTE   N24  Ds1
 BYTE   W24
 BYTE   PEND 
Label_4_017DA338:
 BYTE   N72  Ds2  v080
 BYTE   TIE  As2
 BYTE   TIE  Dn3
 BYTE   W72
// 008   ----------------------------------------
 BYTE   N24  Ds2
 BYTE   W48
 BYTE   PEND 
 BYTE   EOT
 BYTE   As2  v062
 BYTE   N72  En2
 BYTE   N72  As2
 BYTE   N72  Dn3
 BYTE   W48
// 009   ----------------------------------------
 BYTE   N24  En1
 BYTE   W24
 BYTE   N72  En2
 BYTE   N72  As2
 BYTE   N72  Dn3
 BYTE   W96
// 010   ----------------------------------------
 BYTE   W24
 BYTE   N48  En2
 BYTE   N48  Cs3
 BYTE   N48  An3
 BYTE   W72
// 011   ----------------------------------------
 BYTE   N72  En2
 BYTE   TIE  Cs3
 BYTE   TIE  Gn3
 BYTE   W72
 BYTE   N48  En2
 BYTE   W48
// 012   ----------------------------------------
 BYTE   EOT
 BYTE   Cs3  v067
 BYTE   N72  Dn2
 BYTE   N72  An2
 BYTE   N72  Dn3
 BYTE   W48
 BYTE   N24  Dn1
 BYTE   W24
 BYTE   N72  Dn2
 BYTE   TIE  An2
 BYTE   TIE  Dn3
 BYTE   W72
// 013   ----------------------------------------
 BYTE   N48  Cn2
 BYTE   W48
 BYTE   EOT
 BYTE   An2  v062
 BYTE   N72  Bn1
 BYTE   N72  Bn2
 BYTE   N72  Dn3
 BYTE   W48
// 014   ----------------------------------------
 BYTE   N24  En1
 BYTE   W24
 BYTE   TIE  Gn2
 BYTE   TIE  Dn3
 BYTE   TIE  Gn3
 BYTE   W72
// 015   ----------------------------------------
 BYTE   N48  Bn1
 BYTE   W48
 BYTE   EOT
 BYTE   Gn2  v062
 BYTE   Gn3
 BYTE   N72  Gn1  v060
 BYTE   N72  Dn2
 BYTE   N72  Bn2
 BYTE   N72  Fn3
 BYTE   W72
// 016   ----------------------------------------
 BYTE   TIE  Gn1
 BYTE   TIE  Dn2
 BYTE   TIE  Bn2
 BYTE   TIE  Fn3
 BYTE   W72
 BYTE   N48  Bn1
 BYTE   W48
// 017   ----------------------------------------
 BYTE   EOT
 BYTE   Gn1  v050
 BYTE   Bn2  v065
 BYTE   N72  Bn1  v080
 BYTE   N72  Dn2
 BYTE   N72  Gn2
 BYTE   N72  Dn3
 BYTE   N60  Fn3
 BYTE   W72
 BYTE   N72  Gn1
 BYTE   N72  Dn2
 BYTE   TIE  Gn2
 BYTE   TIE  Dn3
 BYTE   TIE  Fn3
 BYTE   W72
// 018   ----------------------------------------
 BYTE   N48  Gn1
 BYTE   N48  Dn2
 BYTE   W48
 BYTE   EOT
 BYTE   Gn2  v062
 BYTE   Fn3
 BYTE   N72  Cn1
 BYTE   N72  Cn2
 BYTE   N72  Gn2
 BYTE   N72  As2
 BYTE   N72  Cn3
 BYTE   N72  En3
 BYTE   W72
// 019   ----------------------------------------
 BYTE   TIE  Cn2
 BYTE   TIE  Gn2
 BYTE   TIE  As2
 BYTE   TIE  Cn3
 BYTE   TIE  En3
 BYTE   W44
 BYTE   W01
 BYTE   GoTo
  POIN2 Label_4_017DA2BA
// 020   ----------------------------------------
 BYTE   W72
 BYTE   W03
 BYTE   EOT
 BYTE   Cn2  v055
 BYTE   As2  v060
 BYTE   En3
 BYTE   PATT
  POIN2 Label_4_017DA2BF
 BYTE   PATT
  POIN2 Label_4_017DA2CB
// 021   ----------------------------------------
 BYTE   EOT
 BYTE   Cn2  v057
 BYTE   Cn3  v065
 BYTE   PATT
  POIN2 Label_4_017DA2E0
 BYTE   PATT
  POIN2 Label_4_017DA2E9
// 022   ----------------------------------------
 BYTE   EOT
 BYTE   Dn2  v058
 BYTE   Dn3
 BYTE   PATT
  POIN2 Label_4_017DA2BF
 BYTE   PATT
  POIN2 Label_4_017DA2FE
// 023   ----------------------------------------
 BYTE   EOT
 BYTE   Cn2  v057
 BYTE   Cn3  v065
 BYTE   PATT
  POIN2 Label_4_017DA313
 BYTE   PATT
  POIN2 Label_4_017DA31C
// 024   ----------------------------------------
 BYTE   EOT
 BYTE   Dn2  v057
 BYTE   Dn3
 BYTE   PATT
  POIN2 Label_4_017DA32C
 BYTE   PATT
  POIN2 Label_4_017DA338
// 025   ----------------------------------------
 BYTE   EOT
 BYTE   As2  v062
 BYTE   N72  En2  v080
 BYTE   N72  As2
 BYTE   N72  Dn3
 BYTE   W48
 BYTE   N24  En1
 BYTE   W24
 BYTE   N72  En2
 BYTE   N72  As2
 BYTE   N72  Dn3
 BYTE   W48
// 026   ----------------------------------------
 BYTE   W72
 BYTE   N48  En2
 BYTE   N48  Cs3
 BYTE   N48  An3
 BYTE   W48
// 027   ----------------------------------------
 BYTE   W24
 BYTE   N72  En2
 BYTE   TIE  Cs3
 BYTE   TIE  Gn3
 BYTE   W72
// 028   ----------------------------------------
 BYTE   N48  En2
 BYTE   W24
 BYTE   W24
 BYTE   EOT
 BYTE   Cs3  v067
 BYTE   N72  Dn2
 BYTE   N72  An2
 BYTE   N72  Dn3
 BYTE   W48
// 029   ----------------------------------------
 BYTE   N24  Dn1
 BYTE   W24
 BYTE   N72  Dn2
 BYTE   TIE  An2
 BYTE   TIE  Dn3
 BYTE   W24
 BYTE   W48
// 030   ----------------------------------------
 BYTE   N48  Cn2
 BYTE   W48
 BYTE   EOT
 BYTE   An2  v062
 BYTE   N72  Bn1
 BYTE   N72  Bn2
 BYTE   N72  Dn3
 BYTE   W24
 BYTE   W24
// 031   ----------------------------------------
 BYTE   N24  En1
 BYTE   W24
 BYTE   TIE  Gn2
 BYTE   TIE  Dn3
 BYTE   TIE  Gn3
 BYTE   W72
// 032   ----------------------------------------
 BYTE   VOL   49*LoZMajorasMaskAstralObservatoryPandan_mvl/mxv
 BYTE   N48  Bn1
 BYTE   W06
 BYTE   VOL   48*LoZMajorasMaskAstralObservatoryPandan_mvl/mxv
 BYTE   W07
 BYTE   Gs3
 BYTE   W06
 BYTE   Gn3
 BYTE   W07
 BYTE   Fs3
 BYTE   W06
 BYTE   Fs3
 BYTE   W07
 BYTE   Fn3
 BYTE   W06
 BYTE   En3
 BYTE   W03
 BYTE   EOT
 BYTE   Gn2  v062
 BYTE   Gn3
 BYTE   N72  Gn1  v060
 BYTE   N72  Dn2
 BYTE   N72  Bn2
 BYTE   N72  Fn3
 BYTE   W04
 BYTE   VOL   44*LoZMajorasMaskAstralObservatoryPandan_mvl/mxv
 BYTE   W06
 BYTE   Ds3
 BYTE   W07
 BYTE   Dn3
 BYTE   W06
 BYTE   Dn3
 BYTE   W07
 BYTE   Cs3
 BYTE   W07
 BYTE   Cs3
 BYTE   W06
 BYTE   Cn3
 BYTE   W07
// 033   ----------------------------------------
 BYTE   Bn2
 BYTE   W06
 BYTE   Bn2
 BYTE   W07
 BYTE   As2
 BYTE   W06
 BYTE   An2
 BYTE   W03
 BYTE   TIE  Gn1
 BYTE   TIE  Dn2
 BYTE   TIE  Bn2
 BYTE   TIE  Fn3
 BYTE   W04
 BYTE   VOL   37*LoZMajorasMaskAstralObservatoryPandan_mvl/mxv
 BYTE   W06
 BYTE   Gs2
 BYTE   W07
 BYTE   Gs2
 BYTE   W06
 BYTE   Gn2
 BYTE   W07
 BYTE   Fs2
 BYTE   W07
 BYTE   Fs2
 BYTE   W06
 BYTE   Fn2
 BYTE   W07
 BYTE   En2
 BYTE   W06
 BYTE   En2
 BYTE   W07
 BYTE   Ds2
 BYTE   W06
 BYTE   Ds2
 BYTE   W03
 BYTE   N48  Bn1
 BYTE   W04
// 034   ----------------------------------------
 BYTE   VOL   30*LoZMajorasMaskAstralObservatoryPandan_mvl/mxv
 BYTE   W06
 BYTE   Cs2
 BYTE   W07
 BYTE   Cs2
 BYTE   W06
 BYTE   Cn2
 BYTE   W07
 BYTE   Bn1
 BYTE   W07
 BYTE   Bn1
 BYTE   W06
 BYTE   As1
 BYTE   W05
 BYTE   EOT
 BYTE   Gn1  v050
 BYTE   Bn2  v065
 BYTE   N72  Bn1  v080
 BYTE   N72  Dn2
 BYTE   N72  Gn2
 BYTE   N72  Dn3
 BYTE   N60  Fn3
 BYTE   W02
 BYTE   VOL   25*LoZMajorasMaskAstralObservatoryPandan_mvl/mxv
 BYTE   W06
 BYTE   An1
 BYTE   W07
 BYTE   Gs1
 BYTE   W06
 BYTE   Gs1
 BYTE   W07
 BYTE   Gn1
 BYTE   W06
 BYTE   Fs1
 BYTE   W07
 BYTE   Fs1
 BYTE   W06
 BYTE   Fn1
 BYTE   W07
// 035   ----------------------------------------
 BYTE   En1
 BYTE   W07
 BYTE   En1
 BYTE   W06
 BYTE   Ds1
 BYTE   W05
 BYTE   N72  Gn1
 BYTE   N72  Dn2
 BYTE   TIE  Gn2
 BYTE   TIE  Dn3
 BYTE   TIE  Fn3
 BYTE   W02
 BYTE   VOL   19*LoZMajorasMaskAstralObservatoryPandan_mvl/mxv
 BYTE   W06
 BYTE   Dn1
 BYTE   W07
 BYTE   Cs1
 BYTE   W06
 BYTE   Cs1
 BYTE   W07
 BYTE   Cn1
 BYTE   W06
 BYTE   Bn0
 BYTE   W07
 BYTE   Bn0
 BYTE   W06
 BYTE   As0
 BYTE   W01
 BYTE   W06
 BYTE   As0
 BYTE   W06
 BYTE   An0
 BYTE   W07
 BYTE   Gs0
 BYTE   W05
 BYTE   N48  Gn1
 BYTE   N48  Dn2
 BYTE   W02
 BYTE   VOL   12*LoZMajorasMaskAstralObservatoryPandan_mvl/mxv
 BYTE   W06
// 036   ----------------------------------------
 BYTE   Gn0
 BYTE   W07
 BYTE   Fs0
 BYTE   W06
 BYTE   Fs0
 BYTE   W07
 BYTE   Fn0
 BYTE   W06
 BYTE   En0
 BYTE   W07
 BYTE   En0
 BYTE   W06
 BYTE   Ds0
 BYTE   W01
 BYTE   EOT
 BYTE   Gn2  v062
 BYTE   Fn3
 BYTE   N72  Cn1
 BYTE   N72  Cn2
 BYTE   N72  Gn2
 BYTE   N72  As2
 BYTE   N72  Cn3
 BYTE   N72  En3
 BYTE   W06
 BYTE   VOL   7*LoZMajorasMaskAstralObservatoryPandan_mvl/mxv
 BYTE   W06
 BYTE   Dn0
 BYTE   W07
 BYTE   Cs0
 BYTE   W07
 BYTE   Cs0
 BYTE   W06
 BYTE   Cn0
 BYTE   W07
 BYTE   BnM1
 BYTE   W06
 BYTE   BnM1
 BYTE   W03
 BYTE   W04
 BYTE   AsM1
 BYTE   W06
// 037   ----------------------------------------
 BYTE   AsM1
 BYTE   W07
 BYTE   AnM1
 BYTE   W06
 BYTE   GsM1
 BYTE   W01
 BYTE   TIE  Cn2
 BYTE   TIE  Gn2
 BYTE   TIE  As2
 BYTE   TIE  Cn3
 BYTE   TIE  En3
 BYTE   W06
 BYTE   VOL   0*LoZMajorasMaskAstralObservatoryPandan_mvl/mxv
 BYTE   W06
 BYTE   GnM1
 BYTE   W07
 BYTE   FsM1
 BYTE   W07
 BYTE   FsM1
 BYTE   W06
 BYTE   FnM1
 BYTE   W07
 BYTE   FnM1
 BYTE   W06
 BYTE   EnM1
 BYTE   W07
 BYTE   DsM1
 BYTE   W06
 BYTE   DsM1
 BYTE   W07
 BYTE   DnM1
 BYTE   W06
 BYTE   CsM1
 BYTE   W07
 BYTE   CsM1
 BYTE   W06
// 038   ----------------------------------------
 BYTE   CnM1
 BYTE   W07
 BYTE   BnM2
 BYTE   W05
 BYTE   W02
 BYTE   BnM2
 BYTE   W06
 BYTE   AsM2
 BYTE   W07
 BYTE   AsM2
 BYTE   W06
 BYTE   AnM2
 BYTE   W03
 BYTE   EOT
 BYTE   Cn2  v055
 BYTE   As2  v060
 BYTE   En3
 BYTE   W04
 BYTE   VOL   0*LoZMajorasMaskAstralObservatoryPandan_mvl/mxv
 BYTE   W06
 BYTE   GsM2
 BYTE   W07
 BYTE   GnM2
 BYTE   W06
 BYTE   FsM2
 BYTE   W07
 BYTE   FsM2
 BYTE   W06
 BYTE   FnM2
 BYTE   W07
 BYTE   FnM2
 BYTE   W06
 BYTE   EnM2
 BYTE   W07
 BYTE   DsM2
 BYTE   W07
// 039   ----------------------------------------
 BYTE   DsM2
 BYTE   W06
 BYTE   DnM2
 BYTE   W07
 BYTE   CsM2
 BYTE   W06
 BYTE   CsM2
 BYTE   W07
 BYTE   CnM2
 BYTE   W06
 BYTE   CnM2
 BYTE   FINE

//******************************************************//
	ALIGN 4

LoZMajorasMaskAstralObservatoryPandan:
	BYTE	5	// NumTrks
	BYTE	0	// NumBlks
	BYTE	LoZMajorasMaskAstralObservatoryPandan_pri	// Priority
	BYTE	LoZMajorasMaskAstralObservatoryPandan_rev	// Reverb.
    
	POIN2	LoZMajorasMaskAstralObservatoryPandan_grp
    
	POIN2	LoZMajorasMaskAstralObservatoryPandan_001
	POIN2	LoZMajorasMaskAstralObservatoryPandan_002
	POIN2	LoZMajorasMaskAstralObservatoryPandan_003
	POIN2	LoZMajorasMaskAstralObservatoryPandan_004
	POIN2	LoZMajorasMaskAstralObservatoryPandan_005

	
