//Event file generated from Sappy .s format.
	#include "MPlayDef.event"

	#define	LoZMajorasMaskClockTownFirstDayMysteriousDancer_grp  voicegroup000
	#define	LoZMajorasMaskClockTownFirstDayMysteriousDancer_pri  0
	#define	LoZMajorasMaskClockTownFirstDayMysteriousDancer_rev  0
	#define	LoZMajorasMaskClockTownFirstDayMysteriousDancer_mvl  127
	#define	LoZMajorasMaskClockTownFirstDayMysteriousDancer_key  0
	#define	LoZMajorasMaskClockTownFirstDayMysteriousDancer_tbs  1
	#define	LoZMajorasMaskClockTownFirstDayMysteriousDancer_exg  0
	#define	LoZMajorasMaskClockTownFirstDayMysteriousDancer_cmp  1

	// .rodata
	//	LoZMajorasMaskClockTownFirstDayMysteriousDancer
	ALIGN 4

//**************** Track 1 (Midi-Chn.1) ****************//

LoZMajorasMaskClockTownFirstDayMysteriousDancer_1:
	BYTE	KEYSH   LoZMajorasMaskClockTownFirstDayMysteriousDancer_key+0
LoZMajorasMaskClockTownFirstDayMysteriousDancer_1_B1:
// 000   ----------------------------------------
	BYTE	TEMPO   150*LoZMajorasMaskClockTownFirstDayMysteriousDancer_tbs/2
	BYTE		VOICE   1
	BYTE		VOL     101*LoZMajorasMaskClockTownFirstDayMysteriousDancer_mvl/mxv
	BYTE		PAN     c_v+0
	BYTE		VOL     110*LoZMajorasMaskClockTownFirstDayMysteriousDancer_mvl/mxv
	BYTE		        110*LoZMajorasMaskClockTownFirstDayMysteriousDancer_mvl/mxv
	BYTE		N09     Dn3   v072
	BYTE	W24
	BYTE		N11     Dn4   v064
	BYTE	W12
	BYTE		        Cs4 
	BYTE	W12
	BYTE		N10     Bn3 
	BYTE	W12
	BYTE		N11     An3 
	BYTE	W12
// 001   ----------------------------------------
LoZMajorasMaskClockTownFirstDayMysteriousDancer_1_001:
	BYTE		N36     Bn3   v072
	BYTE	W36
	BYTE		N32     Gn3   v064
	BYTE	W36
	BYTE	PEND
// 002   ----------------------------------------
LoZMajorasMaskClockTownFirstDayMysteriousDancer_1_002:
	BYTE		N10     An3   v072
	BYTE	W24
	BYTE		N11     En3   v064
	BYTE	W12
	BYTE		        An3 
	BYTE	W12
	BYTE		N10     Gn3 
	BYTE	W12
	BYTE		N11     En3 
	BYTE	W12
	BYTE	PEND
// 003   ----------------------------------------
LoZMajorasMaskClockTownFirstDayMysteriousDancer_1_003:
	BYTE		N24     Gn3   v072
	BYTE	W24
	BYTE		N11     An3   v064
	BYTE	W12
	BYTE		N32     Fs3 
	BYTE	W36
	BYTE	PEND
// 004   ----------------------------------------
LoZMajorasMaskClockTownFirstDayMysteriousDancer_1_004:
	BYTE		N10     Dn3   v072
	BYTE	W24
	BYTE		N11     Dn4   v064
	BYTE	W12
	BYTE		        Cs4 
	BYTE	W12
	BYTE		N10     Bn3 
	BYTE	W12
	BYTE		N11     An3 
	BYTE	W12
	BYTE	PEND
// 005   ----------------------------------------
	BYTE	PATT
	 POIN2	LoZMajorasMaskClockTownFirstDayMysteriousDancer_1_001
// 006   ----------------------------------------
LoZMajorasMaskClockTownFirstDayMysteriousDancer_1_006:
	BYTE		N12     An3   v072
	BYTE	W12
	BYTE		N11     Gn3   v064
	BYTE	W12
	BYTE		        En3 
	BYTE	W12
	BYTE		N09     Gn3 
	BYTE	W24
	BYTE		N11     Fs3 
	BYTE	W12
	BYTE	PEND
// 007   ----------------------------------------
LoZMajorasMaskClockTownFirstDayMysteriousDancer_1_007:
	BYTE		N68     Dn3   v064
	BYTE	W68
	BYTE	W01
	BYTE		N03     Gn4 
	BYTE	W03
	BYTE	PEND
// 008   ----------------------------------------
LoZMajorasMaskClockTownFirstDayMysteriousDancer_1_008:
	BYTE		N10     Dn3   v072
	BYTE		N68     An4   v064
	BYTE	W24
	BYTE		N11     Dn4 
	BYTE	W12
	BYTE		        Cs4 
	BYTE	W12
	BYTE		N10     Bn3 
	BYTE	W12
	BYTE		N11     An3 
	BYTE	W12
	BYTE	PEND
// 009   ----------------------------------------
LoZMajorasMaskClockTownFirstDayMysteriousDancer_1_009:
	BYTE		N36     Bn3   v072
	BYTE		N68     Gn4   v064
	BYTE	W36
	BYTE		N32     Gn3 
	BYTE	W32
	BYTE	W01
	BYTE		N03     En4 
	BYTE	W03
	BYTE	PEND
// 010   ----------------------------------------
LoZMajorasMaskClockTownFirstDayMysteriousDancer_1_010:
	BYTE		N10     An3   v072
	BYTE		N68     Fs4   v064
	BYTE	W24
	BYTE		N11     En3 
	BYTE	W12
	BYTE		        An3 
	BYTE	W12
	BYTE		N10     Gn3 
	BYTE	W12
	BYTE		N11     En3 
	BYTE	W12
	BYTE	PEND
// 011   ----------------------------------------
LoZMajorasMaskClockTownFirstDayMysteriousDancer_1_011:
	BYTE		N24     Gn3   v072
	BYTE		N68     En4   v064
	BYTE	W24
	BYTE		N11     An3 
	BYTE	W12
	BYTE		N32     Fs3 
	BYTE	W32
	BYTE	W01
	BYTE		N03     Gn4 
	BYTE	W03
	BYTE	PEND
// 012   ----------------------------------------
LoZMajorasMaskClockTownFirstDayMysteriousDancer_1_012:
	BYTE		N10     Dn3   v072
	BYTE		N68     An4   v064
	BYTE	W24
	BYTE		N11     Dn4 
	BYTE	W12
	BYTE		        Cs4 
	BYTE	W12
	BYTE		N10     Bn3 
	BYTE	W12
	BYTE		N11     An3 
	BYTE	W09
	BYTE		N03     Fs4 
	BYTE	W03
	BYTE	PEND
// 013   ----------------------------------------
	BYTE	PATT
	 POIN2	LoZMajorasMaskClockTownFirstDayMysteriousDancer_1_009
// 014   ----------------------------------------
LoZMajorasMaskClockTownFirstDayMysteriousDancer_1_014:
	BYTE		N12     An3   v072
	BYTE		N36     Fs4 
	BYTE	W12
	BYTE		N11     Gn3   v064
	BYTE	W12
	BYTE		        En3 
	BYTE	W12
	BYTE		        Fs3 
	BYTE		N32     En4 
	BYTE	W12
	BYTE		N10     Gn3 
	BYTE	W12
	BYTE		N11     En3 
	BYTE	W12
	BYTE	PEND
// 015   ----------------------------------------
LoZMajorasMaskClockTownFirstDayMysteriousDancer_1_015:
	BYTE		N68     Dn3   v056
	BYTE		N68     Dn4   v072
	BYTE	W72
	BYTE	PEND
// 016   ----------------------------------------
LoZMajorasMaskClockTownFirstDayMysteriousDancer_1_016:
	BYTE		N10     Dn4   v072
	BYTE	W24
	BYTE		N12     Dn4   v064
	BYTE	W12
	BYTE		N11   
	BYTE	W12
	BYTE		N10     Cs4 
	BYTE	W12
	BYTE		N02     Dn4 
	BYTE	W09
	BYTE		N03   
	BYTE	W03
	BYTE	PEND
// 017   ----------------------------------------
LoZMajorasMaskClockTownFirstDayMysteriousDancer_1_017:
	BYTE		N36     En4   v072
	BYTE	W36
	BYTE		N32     An3   v064
	BYTE	W36
	BYTE	PEND
// 018   ----------------------------------------
LoZMajorasMaskClockTownFirstDayMysteriousDancer_1_018:
	BYTE		N12     Gn4   v072
	BYTE	W12
	BYTE		N11     Fs4   v064
	BYTE	W12
	BYTE		        Gn4 
	BYTE	W12
	BYTE		N09     Fs4 
	BYTE	W24
	BYTE		N11     Dn4 
	BYTE	W12
	BYTE	PEND
// 019   ----------------------------------------
LoZMajorasMaskClockTownFirstDayMysteriousDancer_1_019:
	BYTE		N36     En4   v072
	BYTE	W36
	BYTE		N32     An3   v064
	BYTE	W32
	BYTE	W01
	BYTE		N03     Cs4 
	BYTE	W03
	BYTE	PEND
// 020   ----------------------------------------
LoZMajorasMaskClockTownFirstDayMysteriousDancer_1_020:
	BYTE		N10     Dn4   v072
	BYTE	W24
	BYTE		N12     Dn4   v064
	BYTE	W12
	BYTE		N11   
	BYTE	W12
	BYTE		N10     Cs4 
	BYTE	W12
	BYTE		N11     Dn4 
	BYTE	W12
	BYTE	PEND
// 021   ----------------------------------------
LoZMajorasMaskClockTownFirstDayMysteriousDancer_1_021:
	BYTE		N24     En4   v072
	BYTE	W24
	BYTE		N11     Cs4   v064
	BYTE	W12
	BYTE		N32     An3 
	BYTE	W36
	BYTE	PEND
// 022   ----------------------------------------
LoZMajorasMaskClockTownFirstDayMysteriousDancer_1_022:
	BYTE		N12     Gn4   v072
	BYTE	W12
	BYTE		N11     Fs4   v064
	BYTE	W12
	BYTE		        Gn4 
	BYTE	W12
	BYTE		N23     Fs4 
	BYTE	W24
	BYTE		N11     Cs4 
	BYTE	W12
	BYTE	PEND
// 023   ----------------------------------------
LoZMajorasMaskClockTownFirstDayMysteriousDancer_1_023:
	BYTE		N68     Dn4   v064
	BYTE	W68
	BYTE	W01
	BYTE		N03     Cs4 
	BYTE	W03
	BYTE	PEND
// 024   ----------------------------------------
	BYTE	PATT
	 POIN2	LoZMajorasMaskClockTownFirstDayMysteriousDancer_1_020
// 025   ----------------------------------------
	BYTE	PATT
	 POIN2	LoZMajorasMaskClockTownFirstDayMysteriousDancer_1_017
// 026   ----------------------------------------
LoZMajorasMaskClockTownFirstDayMysteriousDancer_1_026:
	BYTE		N12     Gn4   v072
	BYTE	W12
	BYTE		N11     Fs4   v064
	BYTE	W12
	BYTE		        Gn4 
	BYTE	W12
	BYTE		N09     Fs4 
	BYTE	W24
	BYTE		N02     Dn4 
	BYTE	W09
	BYTE		N03   
	BYTE	W03
	BYTE	PEND
// 027   ----------------------------------------
LoZMajorasMaskClockTownFirstDayMysteriousDancer_1_027:
	BYTE		N24     En4   v072
	BYTE	W24
	BYTE		N11     Cs4   v064
	BYTE	W12
	BYTE		N32     An3 
	BYTE	W32
	BYTE	W01
	BYTE		N03     Cs4 
	BYTE	W03
	BYTE	PEND
// 028   ----------------------------------------
	BYTE	PATT
	 POIN2	LoZMajorasMaskClockTownFirstDayMysteriousDancer_1_020
// 029   ----------------------------------------
	BYTE	PATT
	 POIN2	LoZMajorasMaskClockTownFirstDayMysteriousDancer_1_017
// 030   ----------------------------------------
LoZMajorasMaskClockTownFirstDayMysteriousDancer_1_030:
	BYTE		N12     Gn4   v072
	BYTE	W12
	BYTE		N11     Fs4   v064
	BYTE	W12
	BYTE		        Gn4 
	BYTE	W12
	BYTE		N09     Fs4 
	BYTE	W24
	BYTE		N11     Cs4 
	BYTE	W12
	BYTE	PEND
// 031   ----------------------------------------
	BYTE		N68     Dn4 
	BYTE	W72
// 032   ----------------------------------------
LoZMajorasMaskClockTownFirstDayMysteriousDancer_1_032:
	BYTE		N68     Dn3   v072
	BYTE		N68     Bn3   v064
	BYTE	W72
	BYTE	PEND
// 033   ----------------------------------------
LoZMajorasMaskClockTownFirstDayMysteriousDancer_1_033:
	BYTE		N14     Cs3   v076
	BYTE		N14     An3   v072
	BYTE	W72
	BYTE	PEND
// 034   ----------------------------------------
	BYTE		N68     Gn3   v064
	BYTE	W72
// 035   ----------------------------------------
LoZMajorasMaskClockTownFirstDayMysteriousDancer_1_035:
	BYTE		N14     Fs3   v072
	BYTE	W36
	BYTE	TEMPO   150*LoZMajorasMaskClockTownFirstDayMysteriousDancer_tbs/2
	BYTE	W04
	BYTE	TEMPO   148*LoZMajorasMaskClockTownFirstDayMysteriousDancer_tbs/2
	BYTE	W04
	BYTE	TEMPO   147*LoZMajorasMaskClockTownFirstDayMysteriousDancer_tbs/2
	BYTE	W04
	BYTE	TEMPO   147*LoZMajorasMaskClockTownFirstDayMysteriousDancer_tbs/2
	BYTE	W05
	BYTE	TEMPO   146*LoZMajorasMaskClockTownFirstDayMysteriousDancer_tbs/2
	BYTE	W04
	BYTE	TEMPO   145*LoZMajorasMaskClockTownFirstDayMysteriousDancer_tbs/2
	BYTE	W04
	BYTE	TEMPO   144*LoZMajorasMaskClockTownFirstDayMysteriousDancer_tbs/2
	BYTE	W04
	BYTE	TEMPO   144*LoZMajorasMaskClockTownFirstDayMysteriousDancer_tbs/2
	BYTE	W07
	BYTE	PEND
// 036   ----------------------------------------
LoZMajorasMaskClockTownFirstDayMysteriousDancer_1_036:
	BYTE		N68     Dn3   v072
	BYTE		N68     Bn3   v064
	BYTE	W06
	BYTE	TEMPO   150*LoZMajorasMaskClockTownFirstDayMysteriousDancer_tbs/2
	BYTE	W66
	BYTE	PEND
// 037   ----------------------------------------
LoZMajorasMaskClockTownFirstDayMysteriousDancer_1_037:
	BYTE		N14     Cs3   v076
	BYTE		N14     An3   v072
	BYTE	W36
	BYTE		N13     Gn3   v064
	BYTE	W36
	BYTE	PEND
// 038   ----------------------------------------
	BYTE		N68     Fs3 
	BYTE	W72
// 039   ----------------------------------------
LoZMajorasMaskClockTownFirstDayMysteriousDancer_1_039:
	BYTE		N14     En3   v072
	BYTE	W36
	BYTE	TEMPO   150*LoZMajorasMaskClockTownFirstDayMysteriousDancer_tbs/2
	BYTE	W04
	BYTE	TEMPO   149*LoZMajorasMaskClockTownFirstDayMysteriousDancer_tbs/2
	BYTE	W04
	BYTE	TEMPO   148*LoZMajorasMaskClockTownFirstDayMysteriousDancer_tbs/2
	BYTE	W04
	BYTE	TEMPO   148*LoZMajorasMaskClockTownFirstDayMysteriousDancer_tbs/2
	BYTE	W05
	BYTE	TEMPO   148*LoZMajorasMaskClockTownFirstDayMysteriousDancer_tbs/2
	BYTE	W04
	BYTE	TEMPO   147*LoZMajorasMaskClockTownFirstDayMysteriousDancer_tbs/2
	BYTE	W04
	BYTE	TEMPO   147*LoZMajorasMaskClockTownFirstDayMysteriousDancer_tbs/2
	BYTE	W04
	BYTE	TEMPO   146*LoZMajorasMaskClockTownFirstDayMysteriousDancer_tbs/2
	BYTE	W07
	BYTE	PEND
// 040   ----------------------------------------
LoZMajorasMaskClockTownFirstDayMysteriousDancer_1_040:
	BYTE	TEMPO   150*LoZMajorasMaskClockTownFirstDayMysteriousDancer_tbs/2
	BYTE		N68     Dn3   v072
	BYTE		N68     Bn3   v064
	BYTE	W72
	BYTE	PEND
// 041   ----------------------------------------
	BYTE	PATT
	 POIN2	LoZMajorasMaskClockTownFirstDayMysteriousDancer_1_033
// 042   ----------------------------------------
LoZMajorasMaskClockTownFirstDayMysteriousDancer_1_042:
	BYTE		N68     Fs3   v072
	BYTE		N68     Dn4   v064
	BYTE	W72
	BYTE	PEND
// 043   ----------------------------------------
	BYTE		N14     En3   v076
	BYTE		N14     Cs4   v072
	BYTE	W72
// 044   ----------------------------------------
	BYTE		N68     En3 
	BYTE		N68     Cs4   v064
	BYTE	W72
// 045   ----------------------------------------
LoZMajorasMaskClockTownFirstDayMysteriousDancer_1_045:
	BYTE		N68     Ds3   v072
	BYTE		N68     Cn4   v064
	BYTE	W72
	BYTE	PEND
// 046   ----------------------------------------
LoZMajorasMaskClockTownFirstDayMysteriousDancer_1_046:
	BYTE		TIE     Dn3   v072
	BYTE		TIE     Bn3   v064
	BYTE	W24
	BYTE		N11     An3 
	BYTE	W12
	BYTE		N23     An4 
	BYTE	W24
	BYTE		N11     An3 
	BYTE	W12
	BYTE	PEND
// 047   ----------------------------------------
LoZMajorasMaskClockTownFirstDayMysteriousDancer_1_047:
	BYTE		N68     An4   v064
	BYTE	W68
	BYTE	W03
	BYTE	PEND
	BYTE		EOT     Dn3 
	BYTE		        Bn3 
	BYTE	W01
// 048   ----------------------------------------
	BYTE	TEMPO   150*LoZMajorasMaskClockTownFirstDayMysteriousDancer_tbs/2
	BYTE		N09     Dn3   v072
	BYTE	W24
	BYTE		N11     Dn4   v064
	BYTE	W12
	BYTE		        Cs4 
	BYTE	W12
	BYTE		N10     Bn3 
	BYTE	W12
	BYTE		N11     An3 
	BYTE	W12
// 049   ----------------------------------------
	BYTE	PATT
	 POIN2	LoZMajorasMaskClockTownFirstDayMysteriousDancer_1_001
// 050   ----------------------------------------
	BYTE	PATT
	 POIN2	LoZMajorasMaskClockTownFirstDayMysteriousDancer_1_002
// 051   ----------------------------------------
	BYTE	PATT
	 POIN2	LoZMajorasMaskClockTownFirstDayMysteriousDancer_1_003
// 052   ----------------------------------------
	BYTE	PATT
	 POIN2	LoZMajorasMaskClockTownFirstDayMysteriousDancer_1_004
// 053   ----------------------------------------
	BYTE	PATT
	 POIN2	LoZMajorasMaskClockTownFirstDayMysteriousDancer_1_001
// 054   ----------------------------------------
	BYTE	PATT
	 POIN2	LoZMajorasMaskClockTownFirstDayMysteriousDancer_1_006
// 055   ----------------------------------------
	BYTE	PATT
	 POIN2	LoZMajorasMaskClockTownFirstDayMysteriousDancer_1_007
// 056   ----------------------------------------
	BYTE	PATT
	 POIN2	LoZMajorasMaskClockTownFirstDayMysteriousDancer_1_008
// 057   ----------------------------------------
	BYTE	PATT
	 POIN2	LoZMajorasMaskClockTownFirstDayMysteriousDancer_1_009
// 058   ----------------------------------------
	BYTE	PATT
	 POIN2	LoZMajorasMaskClockTownFirstDayMysteriousDancer_1_010
// 059   ----------------------------------------
	BYTE	PATT
	 POIN2	LoZMajorasMaskClockTownFirstDayMysteriousDancer_1_011
// 060   ----------------------------------------
	BYTE	PATT
	 POIN2	LoZMajorasMaskClockTownFirstDayMysteriousDancer_1_012
// 061   ----------------------------------------
	BYTE	PATT
	 POIN2	LoZMajorasMaskClockTownFirstDayMysteriousDancer_1_009
// 062   ----------------------------------------
	BYTE	PATT
	 POIN2	LoZMajorasMaskClockTownFirstDayMysteriousDancer_1_014
// 063   ----------------------------------------
	BYTE	PATT
	 POIN2	LoZMajorasMaskClockTownFirstDayMysteriousDancer_1_015
// 064   ----------------------------------------
	BYTE	PATT
	 POIN2	LoZMajorasMaskClockTownFirstDayMysteriousDancer_1_016
// 065   ----------------------------------------
	BYTE	PATT
	 POIN2	LoZMajorasMaskClockTownFirstDayMysteriousDancer_1_017
// 066   ----------------------------------------
	BYTE	PATT
	 POIN2	LoZMajorasMaskClockTownFirstDayMysteriousDancer_1_018
// 067   ----------------------------------------
	BYTE	PATT
	 POIN2	LoZMajorasMaskClockTownFirstDayMysteriousDancer_1_019
// 068   ----------------------------------------
	BYTE	PATT
	 POIN2	LoZMajorasMaskClockTownFirstDayMysteriousDancer_1_020
// 069   ----------------------------------------
	BYTE	PATT
	 POIN2	LoZMajorasMaskClockTownFirstDayMysteriousDancer_1_021
// 070   ----------------------------------------
	BYTE	PATT
	 POIN2	LoZMajorasMaskClockTownFirstDayMysteriousDancer_1_022
// 071   ----------------------------------------
	BYTE	PATT
	 POIN2	LoZMajorasMaskClockTownFirstDayMysteriousDancer_1_023
// 072   ----------------------------------------
	BYTE	PATT
	 POIN2	LoZMajorasMaskClockTownFirstDayMysteriousDancer_1_020
// 073   ----------------------------------------
	BYTE	PATT
	 POIN2	LoZMajorasMaskClockTownFirstDayMysteriousDancer_1_017
// 074   ----------------------------------------
	BYTE	PATT
	 POIN2	LoZMajorasMaskClockTownFirstDayMysteriousDancer_1_026
// 075   ----------------------------------------
	BYTE	PATT
	 POIN2	LoZMajorasMaskClockTownFirstDayMysteriousDancer_1_027
// 076   ----------------------------------------
	BYTE	PATT
	 POIN2	LoZMajorasMaskClockTownFirstDayMysteriousDancer_1_020
// 077   ----------------------------------------
	BYTE	PATT
	 POIN2	LoZMajorasMaskClockTownFirstDayMysteriousDancer_1_017
// 078   ----------------------------------------
	BYTE	PATT
	 POIN2	LoZMajorasMaskClockTownFirstDayMysteriousDancer_1_030
// 079   ----------------------------------------
	BYTE		N68     Dn4   v064
	BYTE	W72
// 080   ----------------------------------------
	BYTE	PATT
	 POIN2	LoZMajorasMaskClockTownFirstDayMysteriousDancer_1_032
// 081   ----------------------------------------
	BYTE	PATT
	 POIN2	LoZMajorasMaskClockTownFirstDayMysteriousDancer_1_033
// 082   ----------------------------------------
	BYTE		N68     Gn3   v064
	BYTE	W72
// 083   ----------------------------------------
	BYTE	PATT
	 POIN2	LoZMajorasMaskClockTownFirstDayMysteriousDancer_1_035
// 084   ----------------------------------------
	BYTE	PATT
	 POIN2	LoZMajorasMaskClockTownFirstDayMysteriousDancer_1_036
// 085   ----------------------------------------
	BYTE	PATT
	 POIN2	LoZMajorasMaskClockTownFirstDayMysteriousDancer_1_037
// 086   ----------------------------------------
	BYTE		N68     Fs3   v064
	BYTE	W72
// 087   ----------------------------------------
	BYTE	PATT
	 POIN2	LoZMajorasMaskClockTownFirstDayMysteriousDancer_1_039
// 088   ----------------------------------------
	BYTE	PATT
	 POIN2	LoZMajorasMaskClockTownFirstDayMysteriousDancer_1_040
// 089   ----------------------------------------
	BYTE	PATT
	 POIN2	LoZMajorasMaskClockTownFirstDayMysteriousDancer_1_033
// 090   ----------------------------------------
	BYTE	PATT
	 POIN2	LoZMajorasMaskClockTownFirstDayMysteriousDancer_1_042
// 091   ----------------------------------------
	BYTE		N14     En3   v076
	BYTE		N14     Cs4   v072
	BYTE	W72
// 092   ----------------------------------------
	BYTE		N68     En3 
	BYTE		N68     Cs4   v064
	BYTE	W72
// 093   ----------------------------------------
	BYTE	PATT
	 POIN2	LoZMajorasMaskClockTownFirstDayMysteriousDancer_1_045
// 094   ----------------------------------------
	BYTE	PATT
	 POIN2	LoZMajorasMaskClockTownFirstDayMysteriousDancer_1_046
// 095   ----------------------------------------
	BYTE	PATT
	 POIN2	LoZMajorasMaskClockTownFirstDayMysteriousDancer_1_047
	BYTE		EOT     Dn3 
	BYTE		        Bn3 
	BYTE	W01
// 096   ----------------------------------------
	BYTE	W23
	BYTE	GoTo
	 POIN2	LoZMajorasMaskClockTownFirstDayMysteriousDancer_1_B1
LoZMajorasMaskClockTownFirstDayMysteriousDancer_1_B2:
	BYTE		VOL     110*LoZMajorasMaskClockTownFirstDayMysteriousDancer_mvl/mxv
	BYTE	FINE

//******************************************************//
	ALIGN 4

LoZMajorasMaskClockTownFirstDayMysteriousDancer:
	BYTE	1	// NumTrks
	BYTE	0	// NumBlks
	BYTE	LoZMajorasMaskClockTownFirstDayMysteriousDancer_pri	// Priority
	BYTE	LoZMajorasMaskClockTownFirstDayMysteriousDancer_rev	// Reverb.

	POIN2	LoZMajorasMaskClockTownFirstDayMysteriousDancer_grp

	POIN2	LoZMajorasMaskClockTownFirstDayMysteriousDancer_1

	
