//Event file generated from Sappy .s format.
	#include "MPlayDef.event"

	#define	LoZOcarinaofTimeBoleroofFireRSflame_grp  voicegroup000
	#define	LoZOcarinaofTimeBoleroofFireRSflame_pri  10
	#define	LoZOcarinaofTimeBoleroofFireRSflame_rev  0
	#define	LoZOcarinaofTimeBoleroofFireRSflame_mvl  127
	#define	LoZOcarinaofTimeBoleroofFireRSflame_key  0
	#define	LoZOcarinaofTimeBoleroofFireRSflame_tbs  1
	#define	LoZOcarinaofTimeBoleroofFireRSflame_exg  0
	#define	LoZOcarinaofTimeBoleroofFireRSflame_cmp  1

	// .rodata
	//	LoZOcarinaofTimeBoleroofFireRSflame
	ALIGN 4


//**************** Track 1 (Midi-Chn.0) ****************//

LoZOcarinaofTimeBoleroofFireRSflame_001:
// 000   ----------------------------------------
Label_0_5580E4:
 BYTE   TEMPO   60*LoZOcarinaofTimeBoleroofFireRSflame_tbs/2
 BYTE   KEYSH   LoZOcarinaofTimeBoleroofFireRSflame_key+0
 BYTE   VOICE   46
 BYTE   VOL   69*LoZOcarinaofTimeBoleroofFireRSflame_mvl/mxv
 BYTE   PAN   c_v-16
 BYTE   N06  Fn3  v084
 BYTE   W06
 BYTE   Dn3  v096
 BYTE   W06
 BYTE   Fn3
 BYTE   W06
 BYTE   Dn3  v100
 BYTE   W06
 BYTE   An3  v096
 BYTE   W06
 BYTE   Fn3  v094
 BYTE   W06
 BYTE   An3  v098
 BYTE   W06
 BYTE   N15  Fn3  v094
 BYTE   W96
// 001   ----------------------------------------
 BYTE   W06
 BYTE   N06  Gn3  v084
 BYTE   W06
 BYTE   En3  v096
 BYTE   W06
 BYTE   Gn3
 BYTE   W06
 BYTE   En3  v100
 BYTE   W06
 BYTE   As3  v096
 BYTE   W06
 BYTE   Gn3  v094
 BYTE   W06
 BYTE   As3  v098
 BYTE   W06
 BYTE   N12  Gn3  v094
 BYTE   W05
 BYTE   W24
 BYTE   W01
 BYTE   N07  An3  v092
 BYTE   W06
 BYTE   Fn3  v074
 BYTE   W06
 BYTE   N06  An3  v092
 BYTE   W06
// 002   ----------------------------------------
 BYTE   Fn3  v078
 BYTE   W06
 BYTE   N07  Dn4  v100
 BYTE   W06
 BYTE   N06  An3  v086
 BYTE   W06
 BYTE   N05  Dn4  v090
 BYTE   W06
 BYTE   N07  An3  v084
 BYTE   W06
 BYTE   N06  Fn4  v102
 BYTE   W06
 BYTE   Dn4  v100
 BYTE   W06
 BYTE   Fn4  v096
 BYTE   W06
 BYTE   Dn4
 BYTE   W06
 BYTE   An4  v100
 BYTE   W06
 BYTE   En4  v086
 BYTE   W06
 BYTE   N05  An4  v096
 BYTE   W06
 BYTE   N06  En4  v090
 BYTE   W06
 BYTE   TEMPO   58*LoZOcarinaofTimeBoleroofFireRSflame_tbs/2
 BYTE   N06  Gn4  v094
 BYTE   W06
 BYTE   N05  Cs4  v087
 BYTE   W06
 BYTE   N10  Gn4  v084
 BYTE   W06
// 003   ----------------------------------------
 BYTE   N05  Cs4  v081
 BYTE   W06
 BYTE   TEMPO   52*LoZOcarinaofTimeBoleroofFireRSflame_tbs/2
 BYTE   N06  Fn4  v090
 BYTE   W06
 BYTE   An3  v073
 BYTE   W01
 BYTE   W05
 BYTE   N05  Fn3  v086
 BYTE   W12
 BYTE   TEMPO   50*LoZOcarinaofTimeBoleroofFireRSflame_tbs/2
 BYTE   N08  Dn2  v100
 BYTE   W03
 BYTE   An2  v088
 BYTE   W03
 BYTE   N07  Dn3  v094
 BYTE   W03
 BYTE   N08  Fs3  v085
 BYTE   W01
 BYTE   W01
 BYTE   N08  An3  v086
 BYTE   W03
 BYTE   Dn4  v098
 BYTE   W03
 BYTE   An4  v088
 BYTE   W03
 BYTE   N07  Dn5  v094
 BYTE   W03
 BYTE   N08  Fs5  v085
 BYTE   TEMPO   46*LoZOcarinaofTimeBoleroofFireRSflame_tbs/2
 BYTE   W03
 BYTE   N08  An5  v086
 BYTE   W03
 BYTE   Dn6  v098
 BYTE   GoTo
  POIN2 Label_0_5580E4
 BYTE   FINE

//**************** Track 2 (Midi-Chn.1) ****************//

LoZOcarinaofTimeBoleroofFireRSflame_002:
// 000   ----------------------------------------
Label_1_5581B0:
 BYTE   TEMPO   60*LoZOcarinaofTimeBoleroofFireRSflame_tbs/2
 BYTE   VOL   40*LoZOcarinaofTimeBoleroofFireRSflame_mvl/mxv
 BYTE   KEYSH   LoZOcarinaofTimeBoleroofFireRSflame_key+0
 BYTE   VOICE   75
 BYTE   W72
 BYTE   PAN   c_v+6
 BYTE   N06  Fn3  v084
 BYTE   W06
 BYTE   Dn3  v096
 BYTE   W06
 BYTE   N03  Fn3  v111
 BYTE   W06
 BYTE   N04  Dn3  v100
 BYTE   W06
// 001   ----------------------------------------
 BYTE   N06  An3  v096
 BYTE   W06
 BYTE   N03  Fn3  v094
 BYTE   W06
 BYTE   N06  An3  v098
 BYTE   W06
 BYTE   N04  Fn3  v094
 BYTE   W30
 BYTE   N05  Gn3  v084
 BYTE   W06
 BYTE   En3  v096
 BYTE   W06
 BYTE   Gn3
 BYTE   W06
 BYTE   En3  v100
 BYTE   W06
 BYTE   As3  v096
 BYTE   W06
 BYTE   Gn3  v094
 BYTE   W06
 BYTE   As3  v098
 BYTE   W06
 BYTE   Gn3  v094
 BYTE   W05
 BYTE   W96
// 002   ----------------------------------------
 BYTE   W24
 BYTE   W01
 BYTE   TEMPO   58*LoZOcarinaofTimeBoleroofFireRSflame_tbs/2
 BYTE   W24
 BYTE   TEMPO   52*LoZOcarinaofTimeBoleroofFireRSflame_tbs/2
 BYTE   W07
 BYTE   W17
 BYTE   TEMPO   50*LoZOcarinaofTimeBoleroofFireRSflame_tbs/2
 BYTE   W10
 BYTE   W13
// 003   ----------------------------------------
 BYTE   TEMPO   46*LoZOcarinaofTimeBoleroofFireRSflame_tbs/2
 BYTE   W06
 BYTE   GoTo
  POIN2 Label_1_5581B0
 BYTE   FINE

//**************** Track 3 (Midi-Chn.2) ****************//

LoZOcarinaofTimeBoleroofFireRSflame_003:
// 000   ----------------------------------------
Label_2_557CE4:
 BYTE   TEMPO   60*LoZOcarinaofTimeBoleroofFireRSflame_tbs/2
 BYTE   VOL   40*LoZOcarinaofTimeBoleroofFireRSflame_mvl/mxv
 BYTE   KEYSH   LoZOcarinaofTimeBoleroofFireRSflame_key+0
 BYTE   VOICE   127
 BYTE   N10  En1  v076
 BYTE   W12
 BYTE   N03  En1  v078
 BYTE   W04
 BYTE   En1
 BYTE   W04
 BYTE   En1  v076
 BYTE   W04
 BYTE   N10  En1  v078
 BYTE   W12
 BYTE   N03  En1  v076
 BYTE   W04
 BYTE   En1  v078
 BYTE   W04
 BYTE   En1
 BYTE   W04
 BYTE   N10
 BYTE   W12
 BYTE   En1  v080
 BYTE   W12
 BYTE   En1
 BYTE   W12
 BYTE   N03  En1  v074
 BYTE   W04
 BYTE   En1  v078
 BYTE   W04
 BYTE   En1  v076
 BYTE   W04
// 001   ----------------------------------------
 BYTE   N10  En1  v080
 BYTE   W12
 BYTE   N03
 BYTE   W04
 BYTE   En1  v074
 BYTE   W04
 BYTE   En1  v076
 BYTE   W04
 BYTE   En1  v078
 BYTE   W04
 BYTE   En1  v074
 BYTE   W04
 BYTE   En1  v072
 BYTE   W04
 BYTE   En1  v078
 BYTE   W04
 BYTE   En1  v074
 BYTE   W04
 BYTE   En1  v076
 BYTE   W04
 BYTE   N10
 BYTE   W12
 BYTE   N03  En1  v078
 BYTE   W04
 BYTE   En1
 BYTE   W04
 BYTE   En1  v076
 BYTE   W04
 BYTE   N10  En1  v078
 BYTE   W12
 BYTE   N03  En1  v076
 BYTE   W04
 BYTE   En1  v078
 BYTE   W04
 BYTE   En1
 BYTE   W03
 BYTE   W01
// 002   ----------------------------------------
 BYTE   N10  En1  v078
 BYTE   W12
 BYTE   En1  v080
 BYTE   W12
 BYTE   En1
 BYTE   W12
 BYTE   N03  En1  v074
 BYTE   W04
 BYTE   En1  v078
 BYTE   W04
 BYTE   En1  v076
 BYTE   W04
 BYTE   N10  En1  v080
 BYTE   W12
 BYTE   N03
 BYTE   W04
 BYTE   En1  v074
 BYTE   W04
 BYTE   En1  v076
 BYTE   W04
 BYTE   En1  v078
 BYTE   W04
 BYTE   En1  v074
 BYTE   W04
 BYTE   En1  v072
 BYTE   W04
 BYTE   En1  v078
 BYTE   W04
 BYTE   En1  v074
 BYTE   W04
 BYTE   En1  v076
 BYTE   W04
// 003   ----------------------------------------
 BYTE   N10
 BYTE   W12
 BYTE   N03  En1  v078
 BYTE   W04
 BYTE   En1
 BYTE   W04
 BYTE   En1  v076
 BYTE   W04
 BYTE   TEMPO   58*LoZOcarinaofTimeBoleroofFireRSflame_tbs/2
 BYTE   N10  En1  v078
 BYTE   W12
 BYTE   N03  En1  v076
 BYTE   W04
 BYTE   En1  v078
 BYTE   W04
 BYTE   En1
 BYTE   W04
 BYTE   TEMPO   52*LoZOcarinaofTimeBoleroofFireRSflame_tbs/2
 BYTE   N10  En1  v078
 BYTE   W07
 BYTE   W05
 BYTE   N10  En1  v080
 BYTE   W12
 BYTE   TEMPO   50*LoZOcarinaofTimeBoleroofFireRSflame_tbs/2
 BYTE   N10  En1  v080
 BYTE   W10
 BYTE   W13
 BYTE   TEMPO   46*LoZOcarinaofTimeBoleroofFireRSflame_tbs/2
 BYTE   W06
// 004   ----------------------------------------
 BYTE   GoTo
  POIN2 Label_2_557CE4
 BYTE   FINE

//**************** Track 4 (Midi-Chn.3) ****************//

LoZOcarinaofTimeBoleroofFireRSflame_004:
// 000   ----------------------------------------
Label_3_557DB4:
 BYTE   TEMPO   60*LoZOcarinaofTimeBoleroofFireRSflame_tbs/2
 BYTE   VOL   9*LoZOcarinaofTimeBoleroofFireRSflame_mvl/mxv
 BYTE   KEYSH   LoZOcarinaofTimeBoleroofFireRSflame_key+0
 BYTE   VOICE   48
 BYTE   W96
// 001   ----------------------------------------
 BYTE   W92
 BYTE   W03
 BYTE   W72
// 002   ----------------------------------------
 BYTE   W01
 BYTE   PAN   c_v-48
 BYTE   N06  Fn4  v046
 BYTE   N06  An3
 BYTE   W06
 BYTE   Fn3  v052
 BYTE   N06  Dn4
 BYTE   W06
 BYTE   Fn4  v059
 BYTE   N06  An3
 BYTE   W06
 BYTE   Dn4  v070
 BYTE   N06  Fn3
 BYTE   W06
 BYTE   Cs4  v088
 BYTE   N06  An4
 BYTE   W06
 BYTE   An3  v096
 BYTE   N06  En4
 BYTE   W06
 BYTE   Cs4  v100
 BYTE   N06  An4
 BYTE   W06
 BYTE   An3  v104
 BYTE   N06  En4
 BYTE   W06
 BYTE   TEMPO   58*LoZOcarinaofTimeBoleroofFireRSflame_tbs/2
 BYTE   N06  As3  v110
 BYTE   N06  Gn4
 BYTE   W06
 BYTE   En3  v114
 BYTE   N06  Cs4
 BYTE   W06
 BYTE   As3  v118
 BYTE   N06  Gn4
 BYTE   W06
 BYTE   En3  v122
 BYTE   N06  Cs4
 BYTE   W06
 BYTE   TEMPO   52*LoZOcarinaofTimeBoleroofFireRSflame_tbs/2
 BYTE   N06  Fn4  v123
 BYTE   N06  An3
 BYTE   W06
 BYTE   Dn3
 BYTE   N06  An3
 BYTE   W01
 BYTE   W05
 BYTE   N06  Fn3  v122
 BYTE   N06  An2
 BYTE   W06
 BYTE   Gn2  v118
 BYTE   N06  En3
 BYTE   W06
// 003   ----------------------------------------
 BYTE   TEMPO   50*LoZOcarinaofTimeBoleroofFireRSflame_tbs/2
 BYTE   VOL   9*LoZOcarinaofTimeBoleroofFireRSflame_mvl/mxv
 BYTE   N60  Dn3  v118
 BYTE   N60  Fs2
 BYTE   N60  An2
 BYTE   W01
 BYTE   VOL   9*LoZOcarinaofTimeBoleroofFireRSflame_mvl/mxv
 BYTE   W01
 BYTE   VOL   9*LoZOcarinaofTimeBoleroofFireRSflame_mvl/mxv
 BYTE   W01
 BYTE   VOL   17*LoZOcarinaofTimeBoleroofFireRSflame_mvl/mxv
 BYTE   W01
 BYTE   VOL   23*LoZOcarinaofTimeBoleroofFireRSflame_mvl/mxv
 BYTE   W01
 BYTE   VOL   30*LoZOcarinaofTimeBoleroofFireRSflame_mvl/mxv
 BYTE   W01
 BYTE   VOL   34*LoZOcarinaofTimeBoleroofFireRSflame_mvl/mxv
 BYTE   W01
 BYTE   VOL   36*LoZOcarinaofTimeBoleroofFireRSflame_mvl/mxv
 BYTE   W01
 BYTE   VOL   41*LoZOcarinaofTimeBoleroofFireRSflame_mvl/mxv
 BYTE   W12
 BYTE   VOL   39*LoZOcarinaofTimeBoleroofFireRSflame_mvl/mxv
 BYTE   TEMPO   46*LoZOcarinaofTimeBoleroofFireRSflame_tbs/2
 BYTE   W01
 BYTE   VOL   36*LoZOcarinaofTimeBoleroofFireRSflame_mvl/mxv
 BYTE   W01
 BYTE   VOL   34*LoZOcarinaofTimeBoleroofFireRSflame_mvl/mxv
 BYTE   W01
 BYTE   VOL   30*LoZOcarinaofTimeBoleroofFireRSflame_mvl/mxv
 BYTE   W01
 BYTE   VOL   23*LoZOcarinaofTimeBoleroofFireRSflame_mvl/mxv
 BYTE   N02  An2  v118
 BYTE   N02  Fs2
 BYTE   N02  Dn3
 BYTE   VOL   19*LoZOcarinaofTimeBoleroofFireRSflame_mvl/mxv
 BYTE   VOL   14*LoZOcarinaofTimeBoleroofFireRSflame_mvl/mxv
 BYTE   VOL   9*LoZOcarinaofTimeBoleroofFireRSflame_mvl/mxv
 BYTE   VOL   9*LoZOcarinaofTimeBoleroofFireRSflame_mvl/mxv
 BYTE   VOL   9*LoZOcarinaofTimeBoleroofFireRSflame_mvl/mxv
 BYTE   VOL   9*LoZOcarinaofTimeBoleroofFireRSflame_mvl/mxv
 BYTE   VOL   9*LoZOcarinaofTimeBoleroofFireRSflame_mvl/mxv
 BYTE   VOL   9*LoZOcarinaofTimeBoleroofFireRSflame_mvl/mxv
 BYTE   VOL   9*LoZOcarinaofTimeBoleroofFireRSflame_mvl/mxv
 BYTE   VOL   9*LoZOcarinaofTimeBoleroofFireRSflame_mvl/mxv
 BYTE   VOL   9*LoZOcarinaofTimeBoleroofFireRSflame_mvl/mxv
 BYTE   VOL   9*LoZOcarinaofTimeBoleroofFireRSflame_mvl/mxv
 BYTE   VOL   9*LoZOcarinaofTimeBoleroofFireRSflame_mvl/mxv
 BYTE   VOL   9*LoZOcarinaofTimeBoleroofFireRSflame_mvl/mxv
 BYTE   VOL   9*LoZOcarinaofTimeBoleroofFireRSflame_mvl/mxv
 BYTE   VOL   9*LoZOcarinaofTimeBoleroofFireRSflame_mvl/mxv
 BYTE   VOL   9*LoZOcarinaofTimeBoleroofFireRSflame_mvl/mxv
 BYTE   VOL   9*LoZOcarinaofTimeBoleroofFireRSflame_mvl/mxv
 BYTE   VOL   9*LoZOcarinaofTimeBoleroofFireRSflame_mvl/mxv
 BYTE   VOL   9*LoZOcarinaofTimeBoleroofFireRSflame_mvl/mxv
 BYTE   VOL   9*LoZOcarinaofTimeBoleroofFireRSflame_mvl/mxv
 BYTE   GoTo
  POIN2 Label_3_557DB4
 BYTE   FINE

//**************** Track 5 (Midi-Chn.4) ****************//

LoZOcarinaofTimeBoleroofFireRSflame_005:
// 000   ----------------------------------------
Label_4_5577AC:
 BYTE   TEMPO   60*LoZOcarinaofTimeBoleroofFireRSflame_tbs/2
 BYTE   VOL   13*LoZOcarinaofTimeBoleroofFireRSflame_mvl/mxv
 BYTE   KEYSH   LoZOcarinaofTimeBoleroofFireRSflame_key+0
 BYTE   VOICE   40
 BYTE   W96
// 001   ----------------------------------------
 BYTE   W48
 BYTE   PAN   c_v+24
 BYTE   N06  Gn2  v084
 BYTE   W06
 BYTE   En2  v096
 BYTE   W06
 BYTE   Gn2
 BYTE   W06
 BYTE   En2  v100
 BYTE   W06
 BYTE   As2  v096
 BYTE   W06
 BYTE   Gn2  v094
 BYTE   W06
 BYTE   As2  v098
 BYTE   W06
 BYTE   Gn2  v094
 BYTE   W05
 BYTE   W24
// 002   ----------------------------------------
 BYTE   W01
 BYTE   N07  An2  v092
 BYTE   W06
 BYTE   Fn2  v074
 BYTE   W06
 BYTE   N06  An2  v092
 BYTE   W06
 BYTE   Fn2  v078
 BYTE   W06
 BYTE   N07  Dn3  v100
 BYTE   W06
 BYTE   N06  An2  v086
 BYTE   W06
 BYTE   N05  Dn3  v090
 BYTE   W06
 BYTE   N07  An2  v084
 BYTE   W06
 BYTE   N06  Fn3  v102
 BYTE   W06
 BYTE   Dn3  v100
 BYTE   W06
 BYTE   Fn3  v096
 BYTE   W06
 BYTE   Dn3
 BYTE   W06
 BYTE   An3  v100
 BYTE   W06
 BYTE   En3  v086
 BYTE   W06
 BYTE   N05  An3  v096
 BYTE   W06
 BYTE   N06  En3  v090
 BYTE   W06
// 003   ----------------------------------------
 BYTE   TEMPO   58*LoZOcarinaofTimeBoleroofFireRSflame_tbs/2
 BYTE   N06  Gn3  v094
 BYTE   W06
 BYTE   N05  Cs3  v087
 BYTE   W06
 BYTE   N10  Gn3  v084
 BYTE   W06
 BYTE   N05  Cs3  v081
 BYTE   W06
 BYTE   TEMPO   52*LoZOcarinaofTimeBoleroofFireRSflame_tbs/2
 BYTE   N06  Fn3  v090
 BYTE   W06
 BYTE   An2  v073
 BYTE   W01
 BYTE   W05
 BYTE   N05  Fn2  v086
 BYTE   W06
 BYTE   N06  En2  v084
 BYTE   W06
 BYTE   TEMPO   50*LoZOcarinaofTimeBoleroofFireRSflame_tbs/2
 BYTE   VOL   5*LoZOcarinaofTimeBoleroofFireRSflame_mvl/mxv
 BYTE   N60  Dn1  v100
 BYTE   N60  An1  v088
 BYTE   N60  Dn2  v094
 BYTE   W03
 BYTE   VOL   25*LoZOcarinaofTimeBoleroofFireRSflame_mvl/mxv
 BYTE   W03
 BYTE   VOL   42*LoZOcarinaofTimeBoleroofFireRSflame_mvl/mxv
 BYTE   W03
 BYTE   VOL   52*LoZOcarinaofTimeBoleroofFireRSflame_mvl/mxv
 BYTE   W01
 BYTE   W01
 BYTE   VOL   58*LoZOcarinaofTimeBoleroofFireRSflame_mvl/mxv
 BYTE   W03
 BYTE   VOL   60*LoZOcarinaofTimeBoleroofFireRSflame_mvl/mxv
 BYTE   W09
 BYTE   TEMPO   46*LoZOcarinaofTimeBoleroofFireRSflame_tbs/2
 BYTE   W03
 BYTE   VOL   52*LoZOcarinaofTimeBoleroofFireRSflame_mvl/mxv
 BYTE   W03
 BYTE   VOL   42*LoZOcarinaofTimeBoleroofFireRSflame_mvl/mxv
 BYTE   N01  Dn2  v094
 BYTE   N02  An1  v088
 BYTE   N02  Dn1  v100
 BYTE   VOL   30*LoZOcarinaofTimeBoleroofFireRSflame_mvl/mxv
 BYTE   VOL   18*LoZOcarinaofTimeBoleroofFireRSflame_mvl/mxv
 BYTE   VOL   5*LoZOcarinaofTimeBoleroofFireRSflame_mvl/mxv
 BYTE   VOL   0*LoZOcarinaofTimeBoleroofFireRSflame_mvl/mxv
 BYTE   VOL   0*LoZOcarinaofTimeBoleroofFireRSflame_mvl/mxv
 BYTE   VOL   0*LoZOcarinaofTimeBoleroofFireRSflame_mvl/mxv
 BYTE   VOL   0*LoZOcarinaofTimeBoleroofFireRSflame_mvl/mxv
 BYTE   VOL   0*LoZOcarinaofTimeBoleroofFireRSflame_mvl/mxv
 BYTE   VOL   0*LoZOcarinaofTimeBoleroofFireRSflame_mvl/mxv
 BYTE   VOL   0*LoZOcarinaofTimeBoleroofFireRSflame_mvl/mxv
 BYTE   GoTo
  POIN2 Label_4_5577AC
 BYTE   FINE

//**************** Track 6 (Midi-Chn.5) ****************//

LoZOcarinaofTimeBoleroofFireRSflame_006:
// 000   ----------------------------------------
Label_5_557878:
 BYTE   TEMPO   60*LoZOcarinaofTimeBoleroofFireRSflame_tbs/2
 BYTE   VOL   40*LoZOcarinaofTimeBoleroofFireRSflame_mvl/mxv
 BYTE   KEYSH   LoZOcarinaofTimeBoleroofFireRSflame_key+0
 BYTE   VOICE   45
 BYTE   PAN   c_v+36
 BYTE   N09  Fn1  v092
 BYTE   N09  Dn1
 BYTE   W24
 BYTE   N06  An2  v104
 BYTE   N06  Dn2
 BYTE   W24
 BYTE   N07  Fn2  v100
 BYTE   N07  An1
 BYTE   W24
 BYTE   N09  Fn1  v092
 BYTE   N09  Dn1
 BYTE   W24
// 001   ----------------------------------------
 BYTE   N06  An2  v104
 BYTE   N06  Dn2  v098
 BYTE   W24
 BYTE   N05  An1
 BYTE   N07  Fn2  v100
 BYTE   W24
 BYTE   N09  Gn1  v092
 BYTE   N09  En1
 BYTE   W24
 BYTE   N06  As2  v104
 BYTE   N06  En2
 BYTE   W23
 BYTE   W01
// 002   ----------------------------------------
 BYTE   N07  As1  v100
 BYTE   N07  Gn2
 BYTE   W24
 BYTE   N09  Fn1  v092
 BYTE   N09  Dn1
 BYTE   W24
 BYTE   N06  An2  v104
 BYTE   N06  Dn2  v098
 BYTE   W24
 BYTE   N05  An1
 BYTE   N07  Fn2  v100
 BYTE   W24
// 003   ----------------------------------------
 BYTE   N09  Gn1  v092
 BYTE   N09  En1
 BYTE   W24
 BYTE   TEMPO   58*LoZOcarinaofTimeBoleroofFireRSflame_tbs/2
 BYTE   N06  As2  v104
 BYTE   N06  En2  v098
 BYTE   W24
 BYTE   TEMPO   52*LoZOcarinaofTimeBoleroofFireRSflame_tbs/2
 BYTE   N05  As1  v098
 BYTE   N07  Gn2  v100
 BYTE   W07
 BYTE   W17
 BYTE   TEMPO   50*LoZOcarinaofTimeBoleroofFireRSflame_tbs/2
 BYTE   W10
 BYTE   W13
 BYTE   TEMPO   46*LoZOcarinaofTimeBoleroofFireRSflame_tbs/2
 BYTE   W06
// 004   ----------------------------------------
 BYTE   GoTo
  POIN2 Label_5_557878
 BYTE   FINE

//******************************************************//
	ALIGN 4

LoZOcarinaofTimeBoleroofFireRSflame:
	BYTE	6	// NumTrks
	BYTE	0	// NumBlks
	BYTE	LoZOcarinaofTimeBoleroofFireRSflame_pri	// Priority
	BYTE	LoZOcarinaofTimeBoleroofFireRSflame_rev	// Reverb.
    
	POIN2	LoZOcarinaofTimeBoleroofFireRSflame_grp
    
	POIN2	LoZOcarinaofTimeBoleroofFireRSflame_001
	POIN2	LoZOcarinaofTimeBoleroofFireRSflame_002
	POIN2	LoZOcarinaofTimeBoleroofFireRSflame_003
	POIN2	LoZOcarinaofTimeBoleroofFireRSflame_004
	POIN2	LoZOcarinaofTimeBoleroofFireRSflame_005
	POIN2	LoZOcarinaofTimeBoleroofFireRSflame_006

	
