//Event file generated from Sappy .s format.
	#include "MPlayDef.event"

	#define	LoZOcarinaofTimeRequiemofSpiritRSflame_grp  voicegroup000
	#define	LoZOcarinaofTimeRequiemofSpiritRSflame_pri  0
	#define	LoZOcarinaofTimeRequiemofSpiritRSflame_rev  0
	#define	LoZOcarinaofTimeRequiemofSpiritRSflame_mvl  127
	#define	LoZOcarinaofTimeRequiemofSpiritRSflame_key  0
	#define	LoZOcarinaofTimeRequiemofSpiritRSflame_tbs  1
	#define	LoZOcarinaofTimeRequiemofSpiritRSflame_exg  0
	#define	LoZOcarinaofTimeRequiemofSpiritRSflame_cmp  1

	// .rodata
	//	LoZOcarinaofTimeRequiemofSpiritRSflame
	ALIGN 4


//**************** Track 1 (Midi-Chn.0) ****************//

LoZOcarinaofTimeRequiemofSpiritRSflame_001:
// 000   ----------------------------------------
 BYTE   KEYSH   LoZOcarinaofTimeRequiemofSpiritRSflame_key+0
Label_0_55A59E:
 BYTE   TEMPO   80*LoZOcarinaofTimeRequiemofSpiritRSflame_tbs/2
 BYTE   VOICE   46
 BYTE   VOL   52*LoZOcarinaofTimeRequiemofSpiritRSflame_mvl/mxv
 BYTE   PAN   c_v+16
 BYTE   N36  Dn4  v100
 BYTE   W24
 BYTE   Fn4  v096
 BYTE   W12
 BYTE   Dn4
 BYTE   W12
 BYTE   An4
 BYTE   W24
 BYTE   Fn4  v104
 BYTE   W24
// 001   ----------------------------------------
 BYTE   N48  Dn4
 BYTE   W96
// 002   ----------------------------------------
 BYTE   W96
// 003   ----------------------------------------
 BYTE   W96
// 004   ----------------------------------------
 BYTE   TEMPO   74*LoZOcarinaofTimeRequiemofSpiritRSflame_tbs/2
 BYTE   W24
 BYTE   TEMPO   70*LoZOcarinaofTimeRequiemofSpiritRSflame_tbs/2
 BYTE   W24
 BYTE   TEMPO   64*LoZOcarinaofTimeRequiemofSpiritRSflame_tbs/2
 BYTE   W24
 BYTE   TEMPO   60*LoZOcarinaofTimeRequiemofSpiritRSflame_tbs/2
 BYTE   W24
// 005   ----------------------------------------
 BYTE   TEMPO   54*LoZOcarinaofTimeRequiemofSpiritRSflame_tbs/2
 BYTE   W48
 BYTE   TEMPO   50*LoZOcarinaofTimeRequiemofSpiritRSflame_tbs/2
 BYTE   W48
// 006   ----------------------------------------
 BYTE   W24
 BYTE   GoTo
  POIN2 Label_0_55A59E
 BYTE   FINE

//**************** Track 2 (Midi-Chn.1) ****************//

LoZOcarinaofTimeRequiemofSpiritRSflame_002:
// 000   ----------------------------------------
 BYTE   KEYSH   LoZOcarinaofTimeRequiemofSpiritRSflame_key+0
Label_1_55A0E2:
 BYTE   VOICE   49
 BYTE   VOL   27*LoZOcarinaofTimeRequiemofSpiritRSflame_mvl/mxv
 BYTE   W96
// 001   ----------------------------------------
 BYTE   W96
// 002   ----------------------------------------
 BYTE   PAN   c_v-54
 BYTE   N48  Dn4  v060
 BYTE   W48
 BYTE   N24  Fn4  v080
 BYTE   W24
 BYTE   Dn4
 BYTE   W24
// 003   ----------------------------------------
 BYTE   N48  An4  v068
 BYTE   W48
 BYTE   Fn4
 BYTE   W48
// 004   ----------------------------------------
 BYTE   TIE  Dn4
 BYTE   W96
// 005   ----------------------------------------
 BYTE   W96
// 006   ----------------------------------------
 BYTE   W24
 BYTE   EOT
 BYTE   GoTo
  POIN2 Label_1_55A0E2
 BYTE   FINE

//**************** Track 3 (Midi-Chn.2) ****************//

LoZOcarinaofTimeRequiemofSpiritRSflame_003:
// 000   ----------------------------------------
 BYTE   KEYSH   LoZOcarinaofTimeRequiemofSpiritRSflame_key+0
Label_2_559FAA:
 BYTE   VOICE   77
 BYTE   VOL   52*LoZOcarinaofTimeRequiemofSpiritRSflame_mvl/mxv
 BYTE   W96
// 001   ----------------------------------------
 BYTE   W96
// 002   ----------------------------------------
 BYTE   PAN   c_v-16
 BYTE   N24  Dn3  v116
 BYTE   W24
 BYTE   N09  Fn3  v112
 BYTE   W12
 BYTE   Dn3
 BYTE   W12
 BYTE   N24  An3
 BYTE   W24
 BYTE   N18  Fn3  v120
 BYTE   W24
// 003   ----------------------------------------
 BYTE   N72  Dn3
 BYTE   W03
 BYTE   MOD 0
 BYTE   CsM2
 BYTE   W07
 BYTE   DnM2
 BYTE   W14
 BYTE   DsM2
 BYTE   W02
 BYTE   EnM2
 BYTE   W07
 BYTE   FnM2
 BYTE   W22
 BYTE   EnM2
 BYTE   W05
 BYTE   DsM2
 BYTE   W08
 BYTE   DnM2
 BYTE   W02
 BYTE   CsM2
 BYTE   W24
 BYTE   W02
// 004   ----------------------------------------
 BYTE   W96
// 005   ----------------------------------------
 BYTE   W96
// 006   ----------------------------------------
 BYTE   W24
 BYTE   GoTo
  POIN2 Label_2_559FAA
 BYTE   FINE

//**************** Track 4 (Midi-Chn.3) ****************//

LoZOcarinaofTimeRequiemofSpiritRSflame_004:
// 000   ----------------------------------------
 BYTE   KEYSH   LoZOcarinaofTimeRequiemofSpiritRSflame_key+0
Label_3_55A23E:
 BYTE   VOICE   11
 BYTE   VOL   47*LoZOcarinaofTimeRequiemofSpiritRSflame_mvl/mxv
 BYTE   W96
// 001   ----------------------------------------
 BYTE   W96
// 002   ----------------------------------------
 BYTE   W96
// 003   ----------------------------------------
 BYTE   W96
// 004   ----------------------------------------
 BYTE   PAN   c_v+6
 BYTE   N36  Dn4  v068
 BYTE   W24
 BYTE   Fn4  v064
 BYTE   W12
 BYTE   Dn4
 BYTE   W12
 BYTE   An4
 BYTE   W24
 BYTE   Fn4  v072
 BYTE   W24
// 005   ----------------------------------------
 BYTE   N48  Dn4
 BYTE   W96
// 006   ----------------------------------------
 BYTE   W24
 BYTE   GoTo
  POIN2 Label_3_55A23E
 BYTE   FINE

//**************** Track 5 (Midi-Chn.4) ****************//

LoZOcarinaofTimeRequiemofSpiritRSflame_005:
// 000   ----------------------------------------
 BYTE   KEYSH   LoZOcarinaofTimeRequiemofSpiritRSflame_key+0
Label_4_55A172:
 BYTE   VOICE   48
 BYTE   VOL   32*LoZOcarinaofTimeRequiemofSpiritRSflame_mvl/mxv
 BYTE   PAN   c_v-14
 BYTE   N48  Fn2  v096
 BYTE   N24  Dn3  v104
 BYTE   W24
 BYTE   N11  Fn3  v100
 BYTE   W12
 BYTE   N12  Dn3  v104
 BYTE   W12
 BYTE   N48  Gn2  v116
 BYTE   N24  An3  v100
 BYTE   W24
 BYTE   N23  Fn3  v096
 BYTE   W24
// 001   ----------------------------------------
 BYTE   N48  An2  v104
 BYTE   N96  Dn3
 BYTE   W48
 BYTE   N14  As2  v100
 BYTE   W12
 BYTE   An2  v096
 BYTE   W12
 BYTE   N13  Gn2  v100
 BYTE   W12
 BYTE   As2
 BYTE   W12
// 002   ----------------------------------------
 BYTE   N48  Fn2  v096
 BYTE   N24  Dn3  v108
 BYTE   W24
 BYTE   N10  Fn3  v100
 BYTE   W12
 BYTE   N12  Dn3  v108
 BYTE   W12
 BYTE   N48  Gn2  v116
 BYTE   N22  An3  v104
 BYTE   W24
 BYTE   N24  Fn3
 BYTE   W24
// 003   ----------------------------------------
 BYTE   N48  An2
 BYTE   N96  Dn3  v116
 BYTE   W48
 BYTE   N14  As2  v100
 BYTE   W12
 BYTE   Cn3  v096
 BYTE   W12
 BYTE   N13  As2  v100
 BYTE   W12
 BYTE   An2
 BYTE   W12
// 004   ----------------------------------------
 BYTE   N92  Dn2
 BYTE   N92  As2  v096
 BYTE   N24  Dn3  v127
 BYTE   W24
 BYTE   N14  Fn3
 BYTE   W18
 BYTE   N12  Dn3
 BYTE   W12
 BYTE   N22  An3
 BYTE   W18
 BYTE   Fn3  v124
 BYTE   W24
// 005   ----------------------------------------
 BYTE   N44  En2  v108
 BYTE   TIE  An2  v080
 BYTE   TIE  Dn3  v124
 BYTE   W48
 BYTE   N72  Fs2  v120
 BYTE   W48
// 006   ----------------------------------------
 BYTE   W24
 BYTE   EOT
 BYTE   An2  v062
 BYTE   GoTo
  POIN2 Label_4_55A172
 BYTE   FINE

//**************** Track 6 (Midi-Chn.5) ****************//

LoZOcarinaofTimeRequiemofSpiritRSflame_006:
// 000   ----------------------------------------
 BYTE   KEYSH   LoZOcarinaofTimeRequiemofSpiritRSflame_key+0
Label_5_55A032:
 BYTE   VOICE   40
 BYTE   VOL   44*LoZOcarinaofTimeRequiemofSpiritRSflame_mvl/mxv
 BYTE   PAN   c_v+36
 BYTE   N48  Dn1  v100
 BYTE   N48  Dn2
 BYTE   W48
 BYTE   En1  v104
 BYTE   N48  En2
 BYTE   W48
// 001   ----------------------------------------
 BYTE   Fn1  v116
 BYTE   N48  Fn2
 BYTE   W48
 BYTE   En1  v096
 BYTE   N48  En2
 BYTE   W48
// 002   ----------------------------------------
 BYTE   Dn1  v100
 BYTE   N48  Dn2
 BYTE   W48
 BYTE   En1  v104
 BYTE   N48  En2
 BYTE   W48
// 003   ----------------------------------------
 BYTE   Fn1  v116
 BYTE   N48  Fn2
 BYTE   W48
 BYTE   En1  v104
 BYTE   N48  En2
 BYTE   W48
// 004   ----------------------------------------
 BYTE   N96  Gn1  v108
 BYTE   N96  Gn2
 BYTE   W96
// 005   ----------------------------------------
 BYTE   TIE  Dn1  v100
 BYTE   TIE  Dn2
 BYTE   W96
// 006   ----------------------------------------
 BYTE   W24
 BYTE   EOT
 BYTE   Dn1  v050
 BYTE   GoTo
  POIN2 Label_5_55A032
 BYTE   FINE

//******************************************************//
	ALIGN 4

LoZOcarinaofTimeRequiemofSpiritRSflame:
	BYTE	6	// NumTrks
	BYTE	0	// NumBlks
	BYTE	LoZOcarinaofTimeRequiemofSpiritRSflame_pri	// Priority
	BYTE	LoZOcarinaofTimeRequiemofSpiritRSflame_rev	// Reverb.
    
	POIN2	LoZOcarinaofTimeRequiemofSpiritRSflame_grp
    
	POIN2	LoZOcarinaofTimeRequiemofSpiritRSflame_001
	POIN2	LoZOcarinaofTimeRequiemofSpiritRSflame_002
	POIN2	LoZOcarinaofTimeRequiemofSpiritRSflame_003
	POIN2	LoZOcarinaofTimeRequiemofSpiritRSflame_004
	POIN2	LoZOcarinaofTimeRequiemofSpiritRSflame_005
	POIN2	LoZOcarinaofTimeRequiemofSpiritRSflame_006

	
