//Event file generated from Sappy .s format.
	#include "MPlayDef.event"

	#define	LoZOcarinaofTimeNocturneofShadowRSflame_grp  voicegroup000
	#define	LoZOcarinaofTimeNocturneofShadowRSflame_pri  0
	#define	LoZOcarinaofTimeNocturneofShadowRSflame_rev  0
	#define	LoZOcarinaofTimeNocturneofShadowRSflame_mvl  127
	#define	LoZOcarinaofTimeNocturneofShadowRSflame_key  0
	#define	LoZOcarinaofTimeNocturneofShadowRSflame_tbs  1
	#define	LoZOcarinaofTimeNocturneofShadowRSflame_exg  0
	#define	LoZOcarinaofTimeNocturneofShadowRSflame_cmp  1

	// .rodata
	//	LoZOcarinaofTimeNocturneofShadowRSflame
	ALIGN 4


//**************** Track 1 (Midi-Chn.0) ****************//

LoZOcarinaofTimeNocturneofShadowRSflame_001:
// 000   ----------------------------------------
 BYTE   KEYSH   LoZOcarinaofTimeNocturneofShadowRSflame_key+0
Label_0_559942:
 BYTE   TEMPO   90*LoZOcarinaofTimeNocturneofShadowRSflame_tbs/2
 BYTE   VOICE   46
 BYTE   VOL   60*LoZOcarinaofTimeNocturneofShadowRSflame_mvl/mxv
 BYTE   PAN   c_v-16
 BYTE   N36  Bn4  v100
 BYTE   W24
 BYTE   N23  An4  v096
 BYTE   W24
 BYTE   N36  An4  v092
 BYTE   W12
 BYTE   Dn4  v084
 BYTE   W12
 BYTE   Bn4  v100
 BYTE   W12
 BYTE   An4
 BYTE   W12
// 001   ----------------------------------------
 BYTE   N48  Fn4  v108
 BYTE   W96
// 002   ----------------------------------------
 BYTE   W96
// 003   ----------------------------------------
 BYTE   W96
// 004   ----------------------------------------
 BYTE   W96
// 005   ----------------------------------------
 BYTE   W24
 BYTE   TEMPO   84*LoZOcarinaofTimeNocturneofShadowRSflame_tbs/2
 BYTE   W24
 BYTE   TEMPO   80*LoZOcarinaofTimeNocturneofShadowRSflame_tbs/2
 BYTE   W24
 BYTE   TEMPO   74*LoZOcarinaofTimeNocturneofShadowRSflame_tbs/2
 BYTE   W24
// 006   ----------------------------------------
 BYTE   TEMPO   70*LoZOcarinaofTimeNocturneofShadowRSflame_tbs/2
 BYTE   W96
// 007   ----------------------------------------
 BYTE   W03
 BYTE   GoTo
  POIN2 Label_0_559942
 BYTE   FINE

//**************** Track 2 (Midi-Chn.1) ****************//

LoZOcarinaofTimeNocturneofShadowRSflame_002:
// 000   ----------------------------------------
 BYTE   KEYSH   LoZOcarinaofTimeNocturneofShadowRSflame_key+0
Label_1_55883A:
 BYTE   VOICE   75
 BYTE   VOL   47*LoZOcarinaofTimeNocturneofShadowRSflame_mvl/mxv
 BYTE   W96
// 001   ----------------------------------------
 BYTE   W96
// 002   ----------------------------------------
 BYTE   PAN   c_v+6
 BYTE   N22  Bn3  v100
 BYTE   W24
 BYTE   N18  An3  v096
 BYTE   W24
 BYTE   N09  An3  v092
 BYTE   W12
 BYTE   Dn3  v072
 BYTE   W12
 BYTE   N10  Bn3  v100
 BYTE   W12
 BYTE   N09  An3
 BYTE   W12
// 003   ----------------------------------------
 BYTE   N72  Fn3  v108
 BYTE   W03
 BYTE   MOD 0
 BYTE   CsM2
 BYTE   W07
 BYTE   DnM2
 BYTE   W14
 BYTE   DsM2
 BYTE   W02
 BYTE   EnM2
 BYTE   W23
 BYTE   FnM2
 BYTE   W02
 BYTE   EnM2
 BYTE   W06
 BYTE   DsM2
 BYTE   W05
 BYTE   DnM2
 BYTE   W05
 BYTE   CnM2
 BYTE   W28
 BYTE   W01
// 004   ----------------------------------------
 BYTE   W96
// 005   ----------------------------------------
 BYTE   N24  Gs3  v120
 BYTE   W24
 BYTE   N20  Fs3  v112
 BYTE   W24
 BYTE   N13  Fs3  v108
 BYTE   W12
 BYTE   N10  Cs3  v112
 BYTE   W12
 BYTE   Gs3  v120
 BYTE   W12
 BYTE   Fs3  v116
 BYTE   W12
// 006   ----------------------------------------
 BYTE   TIE  Fn3  v120
 BYTE   W03
 BYTE   MOD 0
 BYTE   CsM2
 BYTE   W07
 BYTE   DnM2
 BYTE   W14
 BYTE   DsM2
 BYTE   W02
 BYTE   EnM2
 BYTE   W44
 BYTE   W03
 BYTE   FnM2
 BYTE   W05
 BYTE   EnM2
 BYTE   W03
 BYTE   DsM2
 BYTE   W07
 BYTE   DnM2
 BYTE   W03
 BYTE   CnM2
 BYTE   W05
// 007   ----------------------------------------
 BYTE   W03
 BYTE   EOT
 BYTE   GoTo
  POIN2 Label_1_55883A
 BYTE   FINE

//**************** Track 3 (Midi-Chn.2) ****************//

LoZOcarinaofTimeNocturneofShadowRSflame_003:
// 000   ----------------------------------------
 BYTE   KEYSH   LoZOcarinaofTimeNocturneofShadowRSflame_key+0
Label_2_5588AA:
 BYTE   VOICE   48
 BYTE   VOL   32*LoZOcarinaofTimeNocturneofShadowRSflame_mvl/mxv
 BYTE   PAN   c_v-32
 BYTE   N24  Bn3  v072
 BYTE   W24
 BYTE   N18  An3  v084
 BYTE   W24
 BYTE   N11  An3  v076
 BYTE   W12
 BYTE   N13  Dn3  v084
 BYTE   W12
 BYTE   N10  Bn3  v092
 BYTE   W12
 BYTE   N13  An3  v080
 BYTE   W12
// 001   ----------------------------------------
 BYTE   N90  Fn3  v088
 BYTE   W96
// 002   ----------------------------------------
 BYTE   N23  Bn3  v076
 BYTE   W24
 BYTE   N18  An3  v084
 BYTE   W24
 BYTE   N11  An3  v068
 BYTE   W12
 BYTE   N13  Dn3  v084
 BYTE   W12
 BYTE   N11  Bn3  v076
 BYTE   W12
 BYTE   N12  An3  v080
 BYTE   W12
// 003   ----------------------------------------
 BYTE   N84  Fn3
 BYTE   W96
// 004   ----------------------------------------
 BYTE   N24  Gn3  v116
 BYTE   W24
 BYTE   N18  Fn3  v108
 BYTE   W24
 BYTE   N11  Fn3  v112
 BYTE   W12
 BYTE   N12  Cn3
 BYTE   W12
 BYTE   N11  Gn3  v120
 BYTE   W12
 BYTE   N10  Fn3  v100
 BYTE   W12
// 005   ----------------------------------------
 BYTE   N22  Cs3  v124
 BYTE   N22  Gs3
 BYTE   W24
 BYTE   N18  Bn2  v116
 BYTE   N18  Fs3
 BYTE   W24
 BYTE   N12  Bn2  v112
 BYTE   N12  Fs3
 BYTE   W12
 BYTE   N13  Fs2
 BYTE   N12  Cs3
 BYTE   W12
 BYTE   N01  Cs3  v124
 BYTE   N13  Gs3
 BYTE   W12
 BYTE   N16  Bn2  v116
 BYTE   N16  Fs3
 BYTE   W12
// 006   ----------------------------------------
 BYTE   TIE  Gs2  v124
 BYTE   TIE  Fn3
 BYTE   W96
// 007   ----------------------------------------
 BYTE   W03
 BYTE   EOT
 BYTE   Gs2  v065
 BYTE   GoTo
  POIN2 Label_2_5588AA
 BYTE   FINE

//**************** Track 4 (Midi-Chn.3) ****************//

LoZOcarinaofTimeNocturneofShadowRSflame_004:
// 000   ----------------------------------------
 BYTE   KEYSH   LoZOcarinaofTimeNocturneofShadowRSflame_key+0
Label_3_55908A:
 BYTE   VOICE   40
 BYTE   VOL   27*LoZOcarinaofTimeNocturneofShadowRSflame_mvl/mxv
 BYTE   PAN   c_v+16
 BYTE   N44  Fs1  v080
 BYTE   N44  Cs2
 BYTE   N44  Fs2
 BYTE   N44  Bn2
 BYTE   W48
 BYTE   Gn1  v088
 BYTE   N44  Dn2  v080
 BYTE   N44  Gn2  v088
 BYTE   N44  Cn3
 BYTE   W48
// 001   ----------------------------------------
 BYTE   Gs1  v100
 BYTE   N44  Ds2  v092
 BYTE   N44  Gs2  v100
 BYTE   N44  Cs3
 BYTE   W48
 BYTE   Gn1  v072
 BYTE   N44  Dn2  v080
 BYTE   N44  Gn2  v072
 BYTE   N44  Cn3  v080
 BYTE   W48
// 002   ----------------------------------------
 BYTE   Fs1  v072
 BYTE   N44  Cs2
 BYTE   N44  Fs2
 BYTE   N44  Bn2
 BYTE   W48
 BYTE   Gn1  v080
 BYTE   N44  Dn2  v084
 BYTE   N44  Gn2  v080
 BYTE   N44  Cn3
 BYTE   W48
// 003   ----------------------------------------
 BYTE   Gs1  v088
 BYTE   N44  Ds2
 BYTE   N44  Gs2
 BYTE   N44  Cs3  v096
 BYTE   W48
 BYTE   Gn1  v072
 BYTE   N44  Dn2  v076
 BYTE   N44  Gn2  v072
 BYTE   N44  Cn3  v076
 BYTE   W48
// 004   ----------------------------------------
 BYTE   Gs0  v112
 BYTE   N44  Gs1
 BYTE   N44  Ds2  v096
 BYTE   W48
 BYTE   N40  As0  v112
 BYTE   N40  As1
 BYTE   N40  Fn2
 BYTE   W48
// 005   ----------------------------------------
 BYTE   N44  An0  v108
 BYTE   N44  An1
 BYTE   N44  En2
 BYTE   W48
 BYTE   N40  Bn0  v116
 BYTE   N40  Bn1
 BYTE   N40  Fs2  v120
 BYTE   W48
// 006   ----------------------------------------
 BYTE   N96  Cs1  v116
 BYTE   N96  Cs2
 BYTE   N96  Gs2
 BYTE   W96
// 007   ----------------------------------------
 BYTE   W03
 BYTE   GoTo
  POIN2 Label_3_55908A
 BYTE   FINE

//******************************************************//
	ALIGN 4

LoZOcarinaofTimeNocturneofShadowRSflame:
	BYTE	4	// NumTrks
	BYTE	0	// NumBlks
	BYTE	LoZOcarinaofTimeNocturneofShadowRSflame_pri	// Priority
	BYTE	LoZOcarinaofTimeNocturneofShadowRSflame_rev	// Reverb.
    
	POIN2	LoZOcarinaofTimeNocturneofShadowRSflame_grp
    
	POIN2	LoZOcarinaofTimeNocturneofShadowRSflame_001
	POIN2	LoZOcarinaofTimeNocturneofShadowRSflame_002
	POIN2	LoZOcarinaofTimeNocturneofShadowRSflame_003
	POIN2	LoZOcarinaofTimeNocturneofShadowRSflame_004

	
