//Event file generated from Sappy .s format.
	#include "MPlayDef.event"

	#define	LoZPhantomHourglassBattleRSflame_grp  voicegroup000
	#define	LoZPhantomHourglassBattleRSflame_pri  10
	#define	LoZPhantomHourglassBattleRSflame_rev  0
	#define	LoZPhantomHourglassBattleRSflame_mvl  127
	#define	LoZPhantomHourglassBattleRSflame_key  0
	#define	LoZPhantomHourglassBattleRSflame_tbs  1
	#define	LoZPhantomHourglassBattleRSflame_exg  0
	#define	LoZPhantomHourglassBattleRSflame_cmp  1

	// .rodata
	//	LoZPhantomHourglassBattleRSflame
	ALIGN 4


//**************** Track 1 (Midi-Chn.0) ****************//

LoZPhantomHourglassBattleRSflame_001:
// 000   ----------------------------------------
Label_0_5573C4:
 BYTE   KEYSH   LoZPhantomHourglassBattleRSflame_key+0
 BYTE   VOICE   47
 BYTE   VOL   25*LoZPhantomHourglassBattleRSflame_mvl/mxv
 BYTE   PAN   c_v+0
 BYTE   BEND   c_v+0
 BYTE   MOD 0
 BYTE   CnM2
 BYTE   N48  Cn1  v113
 BYTE   TEMPO   150*LoZPhantomHourglassBattleRSflame_tbs/2
 BYTE   W96
// 001   ----------------------------------------
 BYTE   W96
// 002   ----------------------------------------
 BYTE   W96
// 003   ----------------------------------------
 BYTE   N48  Cn1  v113
 BYTE   W96
// 004   ----------------------------------------
 BYTE   W96
// 005   ----------------------------------------
 BYTE   W96
// 006   ----------------------------------------
 BYTE   Cn1
 BYTE   W96
// 007   ----------------------------------------
 BYTE   W96
// 008   ----------------------------------------
 BYTE   W96
// 009   ----------------------------------------
 BYTE   Cn1
 BYTE   W96
// 010   ----------------------------------------
 BYTE   W96
// 011   ----------------------------------------
 BYTE   W96
// 012   ----------------------------------------
 BYTE   Cn1
 BYTE   W96
// 013   ----------------------------------------
 BYTE   W96
// 014   ----------------------------------------
 BYTE   W96
// 015   ----------------------------------------
 BYTE   Cn1
 BYTE   W96
// 016   ----------------------------------------
 BYTE   W96
// 017   ----------------------------------------
 BYTE   W96
// 018   ----------------------------------------
 BYTE   Cn1
 BYTE   W96
// 019   ----------------------------------------
 BYTE   W96
// 020   ----------------------------------------
 BYTE   W96
// 021   ----------------------------------------
 BYTE   Cn1
 BYTE   W96
// 022   ----------------------------------------
 BYTE   W96
// 023   ----------------------------------------
 BYTE   W96
// 024   ----------------------------------------
Label_0_5573F6:
 BYTE   N12  Cn1  v090
 BYTE   W72
 BYTE   Cn1
 BYTE   W72
 BYTE   PEND 
// 025   ----------------------------------------
Label_0_5573FD:
 BYTE   N12  Cn1  v090
 BYTE   W72
 BYTE   N24
 BYTE   W72
 BYTE   PEND 
// 026   ----------------------------------------
 BYTE   PATT
  POIN2 Label_0_5573F6
// 027   ----------------------------------------
 BYTE   PATT
  POIN2 Label_0_5573FD
// 028   ----------------------------------------
 BYTE   PATT
  POIN2 Label_0_5573F6
// 029   ----------------------------------------
 BYTE   PATT
  POIN2 Label_0_5573FD
// 030   ----------------------------------------
 BYTE   PATT
  POIN2 Label_0_5573F6
// 031   ----------------------------------------
 BYTE   PATT
  POIN2 Label_0_5573FD
// 032   ----------------------------------------
 BYTE   PATT
  POIN2 Label_0_5573F6
// 033   ----------------------------------------
 BYTE   PATT
  POIN2 Label_0_5573FD
// 034   ----------------------------------------
 BYTE   PATT
  POIN2 Label_0_5573F6
// 035   ----------------------------------------
 BYTE   N12  Cn1  v090
 BYTE   W72
 BYTE   N24
 BYTE   W24
// 036   ----------------------------------------
 BYTE   W42
 BYTE   GoTo
  POIN2 Label_0_5573C4
 BYTE   FINE

//**************** Track 2 (Midi-Chn.1) ****************//

LoZPhantomHourglassBattleRSflame_002:
// 000   ----------------------------------------
Label_1_5571D8:
 BYTE   KEYSH   LoZPhantomHourglassBattleRSflame_key+0
 BYTE   VOICE   127
 BYTE   VOL   25*LoZPhantomHourglassBattleRSflame_mvl/mxv
 BYTE   PAN   c_v+0
 BYTE   BEND   c_v+0
 BYTE   MOD 0
 BYTE   CnM2
 BYTE   N11  En1  v099
 BYTE   TEMPO   150*LoZPhantomHourglassBattleRSflame_tbs/2
 BYTE   W12
 BYTE   N05  En1  v076
 BYTE   W06
 BYTE   En1
 BYTE   W06
 BYTE   N11  En1  v099
 BYTE   W12
 BYTE   N05  En1  v076
 BYTE   W06
 BYTE   En1
 BYTE   W06
 BYTE   N11  En1  v099
 BYTE   W12
 BYTE   N05  En1  v076
 BYTE   W06
 BYTE   En1
 BYTE   W06
 BYTE   N11  En1  v099
 BYTE   W12
 BYTE   N05  En1  v076
 BYTE   W06
 BYTE   En1
 BYTE   W06
// 001   ----------------------------------------
Label_1_55720E:
 BYTE   N11  En1  v099
 BYTE   W12
 BYTE   N05  En1  v076
 BYTE   W06
 BYTE   En1
 BYTE   W06
 BYTE   N11  En1  v099
 BYTE   W12
 BYTE   N05  En1  v076
 BYTE   W06
 BYTE   En1
 BYTE   W06
 BYTE   N11  En1  v099
 BYTE   W12
 BYTE   N05  En1  v076
 BYTE   W06
 BYTE   En1
 BYTE   W06
 BYTE   En1  v099
 BYTE   W06
 BYTE   En1  v076
 BYTE   W06
 BYTE   N11  En1  v099
 BYTE   W12
 BYTE   PEND 
// 002   ----------------------------------------
Label_1_557237:
 BYTE   N11  En1  v099
 BYTE   W12
 BYTE   N05  En1  v076
 BYTE   W06
 BYTE   En1
 BYTE   W06
 BYTE   N11  En1  v099
 BYTE   W12
 BYTE   N05  En1  v076
 BYTE   W06
 BYTE   En1
 BYTE   W06
 BYTE   N11  En1  v099
 BYTE   W12
 BYTE   N05  En1  v076
 BYTE   W06
 BYTE   En1
 BYTE   W06
 BYTE   En1  v119
 BYTE   W06
 BYTE   En1  v086
 BYTE   W06
 BYTE   En1  v099
 BYTE   W06
 BYTE   En1  v076
 BYTE   W06
 BYTE   PEND 
// 003   ----------------------------------------
Label_1_557262:
 BYTE   N11  En1  v099
 BYTE   W12
 BYTE   N05  En1  v076
 BYTE   W06
 BYTE   En1
 BYTE   W06
 BYTE   N11  En1  v099
 BYTE   W12
 BYTE   N05  En1  v076
 BYTE   W06
 BYTE   En1
 BYTE   W06
 BYTE   N11  En1  v099
 BYTE   W12
 BYTE   N05  En1  v076
 BYTE   W06
 BYTE   En1
 BYTE   W06
 BYTE   N11  En1  v099
 BYTE   W12
 BYTE   N05  En1  v076
 BYTE   W06
 BYTE   En1
 BYTE   W06
 BYTE   PEND 
// 004   ----------------------------------------
 BYTE   PATT
  POIN2 Label_1_55720E
// 005   ----------------------------------------
 BYTE   PATT
  POIN2 Label_1_557237
// 006   ----------------------------------------
 BYTE   PATT
  POIN2 Label_1_557262
// 007   ----------------------------------------
 BYTE   PATT
  POIN2 Label_1_55720E
// 008   ----------------------------------------
 BYTE   PATT
  POIN2 Label_1_557237
// 009   ----------------------------------------
 BYTE   PATT
  POIN2 Label_1_557262
// 010   ----------------------------------------
 BYTE   PATT
  POIN2 Label_1_55720E
// 011   ----------------------------------------
 BYTE   PATT
  POIN2 Label_1_557237
// 012   ----------------------------------------
 BYTE   PATT
  POIN2 Label_1_557262
// 013   ----------------------------------------
 BYTE   PATT
  POIN2 Label_1_55720E
// 014   ----------------------------------------
 BYTE   PATT
  POIN2 Label_1_557237
// 015   ----------------------------------------
 BYTE   PATT
  POIN2 Label_1_557262
// 016   ----------------------------------------
 BYTE   PATT
  POIN2 Label_1_55720E
// 017   ----------------------------------------
 BYTE   PATT
  POIN2 Label_1_557237
// 018   ----------------------------------------
 BYTE   PATT
  POIN2 Label_1_557262
// 019   ----------------------------------------
 BYTE   PATT
  POIN2 Label_1_55720E
// 020   ----------------------------------------
 BYTE   PATT
  POIN2 Label_1_557237
// 021   ----------------------------------------
 BYTE   PATT
  POIN2 Label_1_557262
// 022   ----------------------------------------
 BYTE   PATT
  POIN2 Label_1_55720E
// 023   ----------------------------------------
 BYTE   PATT
  POIN2 Label_1_557237
// 024   ----------------------------------------
 BYTE   PATT
  POIN2 Label_1_557262
// 025   ----------------------------------------
Label_1_5572F4:
 BYTE   N11  En1  v099
 BYTE   W12
 BYTE   N05  En1  v076
 BYTE   W06
 BYTE   En1
 BYTE   W06
 BYTE   En1  v099
 BYTE   W06
 BYTE   En1  v076
 BYTE   W06
 BYTE   N11  En1  v099
 BYTE   W12
 BYTE   En1
 BYTE   W12
 BYTE   N05  En1  v076
 BYTE   W06
 BYTE   En1
 BYTE   W06
 BYTE   N11  En1  v099
 BYTE   W12
 BYTE   N05  En1  v076
 BYTE   W06
 BYTE   En1
 BYTE   W06
 BYTE   PEND 
// 026   ----------------------------------------
Label_1_55731B:
 BYTE   N05  En1  v119
 BYTE   W06
 BYTE   En1  v086
 BYTE   W06
 BYTE   En1  v099
 BYTE   W06
 BYTE   En1  v076
 BYTE   W06
 BYTE   N23  En1  v119
 BYTE   W24
 BYTE   N05
 BYTE   W06
 BYTE   En1  v086
 BYTE   W06
 BYTE   En1  v099
 BYTE   W06
 BYTE   En1  v076
 BYTE   W06
 BYTE   N11  En1  v099
 BYTE   W12
 BYTE   N05  En1  v076
 BYTE   W06
 BYTE   En1
 BYTE   W06
 BYTE   PEND 
// 027   ----------------------------------------
 BYTE   PATT
  POIN2 Label_1_557262
// 028   ----------------------------------------
 BYTE   PATT
  POIN2 Label_1_5572F4
// 029   ----------------------------------------
 BYTE   PATT
  POIN2 Label_1_55731B
// 030   ----------------------------------------
 BYTE   PATT
  POIN2 Label_1_557262
// 031   ----------------------------------------
 BYTE   PATT
  POIN2 Label_1_5572F4
// 032   ----------------------------------------
 BYTE   PATT
  POIN2 Label_1_55731B
// 033   ----------------------------------------
 BYTE   PATT
  POIN2 Label_1_557262
// 034   ----------------------------------------
 BYTE   PATT
  POIN2 Label_1_5572F4
// 035   ----------------------------------------
 BYTE   PATT
  POIN2 Label_1_55731B
// 036   ----------------------------------------
 BYTE   PATT
  POIN2 Label_1_557262
// 037   ----------------------------------------
 BYTE   PATT
  POIN2 Label_1_5572F4
// 038   ----------------------------------------
 BYTE   PATT
  POIN2 Label_1_55731B
// 039   ----------------------------------------
 BYTE   PATT
  POIN2 Label_1_557262
// 040   ----------------------------------------
 BYTE   PATT
  POIN2 Label_1_5572F4
// 041   ----------------------------------------
 BYTE   N05  En1  v119
 BYTE   W06
 BYTE   En1  v086
 BYTE   W06
 BYTE   En1  v099
 BYTE   W06
 BYTE   En1  v076
 BYTE   W06
 BYTE   N23  En1  v119
 BYTE   W24
 BYTE   N05
 BYTE   W06
 BYTE   N05  En1  v086
 BYTE   W06
 BYTE   En1  v099
 BYTE   W06
 BYTE   En1  v076
 BYTE   W06
 BYTE   N11  En1  v099
 BYTE   W12
 BYTE   N05  En1  v076
 BYTE   W06
 BYTE   En1
 BYTE   GoTo
  POIN2 Label_1_5571D8
 BYTE   FINE

//**************** Track 3 (Midi-Chn.2) ****************//

LoZPhantomHourglassBattleRSflame_003:
// 000   ----------------------------------------
Label_2_0101CA40:
 BYTE   KEYSH   LoZPhantomHourglassBattleRSflame_key+0
 BYTE   VOICE   50
 BYTE   VOL   25*LoZPhantomHourglassBattleRSflame_mvl/mxv
 BYTE   PAN   c_v+0
 BYTE   BEND   c_v+0
 BYTE   MOD 0
 BYTE   CnM2
 BYTE   N07  Fn4  v085
 BYTE   TEMPO   150*LoZPhantomHourglassBattleRSflame_tbs/2
 BYTE   W06
 BYTE   N07  Fn3  v085
 BYTE   W06
 BYTE   Fn4  v066
 BYTE   W06
 BYTE   Fn3
 BYTE   W06
 BYTE   Fn4
 BYTE   W06
 BYTE   Fn3  v067
 BYTE   W06
 BYTE   Fn4
 BYTE   W06
 BYTE   Fn3  v068
 BYTE   W06
 BYTE   Fn4
 BYTE   W06
 BYTE   Fn3
 BYTE   W06
 BYTE   Fn4  v069
 BYTE   W06
 BYTE   Fn3
 BYTE   W06
 BYTE   Fn4  v070
 BYTE   W06
 BYTE   Fn3
 BYTE   W06
 BYTE   Fn4  v071
 BYTE   W06
 BYTE   Fn3
 BYTE   W06
// 001   ----------------------------------------
Label_2_0101CA78:
 BYTE   N07  Fn4  v071
 BYTE   W06
 BYTE   Gn3  v072
 BYTE   W06
 BYTE   Fn4
 BYTE   W06
 BYTE   Gn3  v073
 BYTE   W06
 BYTE   Fn4
 BYTE   W06
 BYTE   Gn3  v074
 BYTE   W06
 BYTE   Fn4
 BYTE   W06
 BYTE   Gn3
 BYTE   W06
 BYTE   Fn4  v075
 BYTE   W06
 BYTE   Gn3
 BYTE   W06
 BYTE   Fn4  v076
 BYTE   W06
 BYTE   Gn3
 BYTE   W06
 BYTE   Fn4  v077
 BYTE   W06
 BYTE   Gn3
 BYTE   W06
 BYTE   Fn4
 BYTE   W06
 BYTE   Gn3  v078
 BYTE   W06
 BYTE   PEND 
// 002   ----------------------------------------
Label_2_0101CAA2:
 BYTE   N07  Fn4  v078
 BYTE   W06
 BYTE   Gs3  v079
 BYTE   W06
 BYTE   Fn4
 BYTE   W06
 BYTE   Gs3  v080
 BYTE   W06
 BYTE   Fn4
 BYTE   W06
 BYTE   Gs3
 BYTE   W06
 BYTE   Fn4  v081
 BYTE   W06
 BYTE   Gs3
 BYTE   W06
 BYTE   Fn4  v082
 BYTE   W06
 BYTE   Gs3
 BYTE   W06
 BYTE   Fn4  v083
 BYTE   W06
 BYTE   Gs3
 BYTE   W06
 BYTE   Fn4
 BYTE   W06
 BYTE   Gs3  v084
 BYTE   W06
 BYTE   Fn4
 BYTE   W06
 BYTE   Gs3  v085
 BYTE   W06
 BYTE   PEND 
// 003   ----------------------------------------
Label_2_0101CACC:
 BYTE   N07  Fn4  v061
 BYTE   W06
 BYTE   An3
 BYTE   W06
 BYTE   Fn4  v063
 BYTE   W06
 BYTE   An3  v062
 BYTE   W06
 BYTE   Fn4  v064
 BYTE   W06
 BYTE   An3  v063
 BYTE   W06
 BYTE   Fn4  v065
 BYTE   W06
 BYTE   An3
 BYTE   W06
 BYTE   Fn4  v067
 BYTE   W06
 BYTE   An3  v066
 BYTE   W06
 BYTE   Fn4  v068
 BYTE   W06
 BYTE   An3
 BYTE   W06
 BYTE   Fn4  v070
 BYTE   W06
 BYTE   An3  v069
 BYTE   W06
 BYTE   Fn4  v071
 BYTE   W06
 BYTE   An3  v070
 BYTE   W06
 BYTE   PEND 
// 004   ----------------------------------------
Label_2_0101CAFB:
 BYTE   N07  Gn4  v072
 BYTE   W06
 BYTE   As3
 BYTE   W06
 BYTE   Gn4  v074
 BYTE   W06
 BYTE   As3  v073
 BYTE   W06
 BYTE   Gn4  v075
 BYTE   W06
 BYTE   As3
 BYTE   W06
 BYTE   Gn4  v077
 BYTE   W06
 BYTE   As3  v076
 BYTE   W06
 BYTE   Gn4  v078
 BYTE   W06
 BYTE   As3  v077
 BYTE   W06
 BYTE   Gn4  v079
 BYTE   W06
 BYTE   As3
 BYTE   W06
 BYTE   Gn4  v081
 BYTE   W06
 BYTE   As3  v080
 BYTE   W06
 BYTE   Gn4  v082
 BYTE   W06
 BYTE   As3
 BYTE   W06
 BYTE   PEND 
// 005   ----------------------------------------
Label_2_0101CB29:
 BYTE   N07  Gn4  v084
 BYTE   W06
 BYTE   Cn4  v083
 BYTE   W06
 BYTE   Gn4  v085
 BYTE   W06
 BYTE   Cn4  v084
 BYTE   W06
 BYTE   Gn4  v086
 BYTE   W06
 BYTE   Cn4
 BYTE   W06
 BYTE   Gn4  v088
 BYTE   W06
 BYTE   Cn4  v087
 BYTE   W06
 BYTE   Gn4  v089
 BYTE   W06
 BYTE   Cn4
 BYTE   W06
 BYTE   Gn4  v091
 BYTE   W06
 BYTE   Cn4  v090
 BYTE   W06
 BYTE   Gn4  v092
 BYTE   W06
 BYTE   Cn4  v091
 BYTE   W06
 BYTE   Gn4  v093
 BYTE   W06
 BYTE   Cn4
 BYTE   W06
 BYTE   PEND 
// 006   ----------------------------------------
Label_2_0101CB58:
 BYTE   N07  Dn4  v088
 BYTE   W06
 BYTE   An3
 BYTE   W06
 BYTE   Dn4
 BYTE   W06
 BYTE   An3
 BYTE   W06
 BYTE   Dn4  v089
 BYTE   W06
 BYTE   An3
 BYTE   W06
 BYTE   Dn4
 BYTE   W06
 BYTE   An3  v090
 BYTE   W06
 BYTE   Dn4
 BYTE   W06
 BYTE   An3
 BYTE   W06
 BYTE   Dn4  v091
 BYTE   W06
 BYTE   An3
 BYTE   W06
 BYTE   Dn4
 BYTE   W06
 BYTE   An3  v092
 BYTE   W06
 BYTE   Dn4
 BYTE   W06
 BYTE   An3
 BYTE   W06
 BYTE   PEND 
// 007   ----------------------------------------
Label_2_0101CB7F:
 BYTE   N07  Dn4  v093
 BYTE   W06
 BYTE   As3
 BYTE   W06
 BYTE   Dn4
 BYTE   W06
 BYTE   As3
 BYTE   W06
 BYTE   Dn4  v094
 BYTE   W06
 BYTE   As3
 BYTE   W06
 BYTE   Dn4
 BYTE   W06
 BYTE   As3  v095
 BYTE   W06
 BYTE   Dn4
 BYTE   W06
 BYTE   As3
 BYTE   W06
 BYTE   Dn4  v096
 BYTE   W06
 BYTE   As3
 BYTE   W06
 BYTE   Dn4
 BYTE   W06
 BYTE   As3  v097
 BYTE   W06
 BYTE   Dn4
 BYTE   W06
 BYTE   As3
 BYTE   W06
 BYTE   PEND 
// 008   ----------------------------------------
Label_2_0101CBA6:
 BYTE   N07  Dn4  v098
 BYTE   W06
 BYTE   Gn3
 BYTE   W06
 BYTE   Dn4
 BYTE   W06
 BYTE   Gn3
 BYTE   W06
 BYTE   Dn4  v099
 BYTE   W06
 BYTE   Gn3
 BYTE   W06
 BYTE   Dn4
 BYTE   W06
 BYTE   Gn3  v100
 BYTE   W06
 BYTE   Dn4
 BYTE   W06
 BYTE   Gn3
 BYTE   W06
 BYTE   Dn4  v101
 BYTE   W06
 BYTE   Gn3
 BYTE   W06
 BYTE   Dn4
 BYTE   W06
 BYTE   Gn3  v102
 BYTE   W06
 BYTE   Dn4
 BYTE   W06
 BYTE   Gn3
 BYTE   W06
 BYTE   PEND 
// 009   ----------------------------------------
 BYTE   N07  Cs4  v107
 BYTE   W06
 BYTE   Fn3
 BYTE   W06
 BYTE   Cs4  v072
 BYTE   W06
 BYTE   Fn3
 BYTE   W06
 BYTE   Cs4
 BYTE   W06
 BYTE   Fn3
 BYTE   W06
 BYTE   Cs4
 BYTE   W06
 BYTE   Fn3
 BYTE   W06
 BYTE   Cs4
 BYTE   W06
 BYTE   Fn3
 BYTE   W06
 BYTE   Cs4
 BYTE   W06
 BYTE   Fn3
 BYTE   W06
 BYTE   Cs4
 BYTE   W06
 BYTE   Fn3
 BYTE   W06
 BYTE   Cs4
 BYTE   W06
 BYTE   Fn3
 BYTE   W06
// 010   ----------------------------------------
Label_2_0101CBF0:
 BYTE   N07  Cs4  v078
 BYTE   W06
 BYTE   Gn3
 BYTE   W06
 BYTE   Cs4
 BYTE   W06
 BYTE   Gn3
 BYTE   W06
 BYTE   Cs4
 BYTE   W06
 BYTE   Gn3
 BYTE   W06
 BYTE   Cs4
 BYTE   W06
 BYTE   Gn3
 BYTE   W06
 BYTE   Cs4
 BYTE   W06
 BYTE   Gn3
 BYTE   W06
 BYTE   Cs4
 BYTE   W06
 BYTE   Gn3
 BYTE   W06
 BYTE   Cs4
 BYTE   W06
 BYTE   Gn3
 BYTE   W06
 BYTE   Cs4
 BYTE   W06
 BYTE   Gn3
 BYTE   W06
 BYTE   PEND 
// 011   ----------------------------------------
 BYTE   N07  Dn4  v107
 BYTE   W06
 BYTE   Gn3
 BYTE   W06
 BYTE   Dn4  v078
 BYTE   W06
 BYTE   Gn3
 BYTE   W06
 BYTE   Dn4
 BYTE   W06
 BYTE   Gn3
 BYTE   W06
 BYTE   Cs4  v107
 BYTE   W06
 BYTE   Gn3
 BYTE   W06
 BYTE   Cs4  v078
 BYTE   W06
 BYTE   Gn3
 BYTE   W06
 BYTE   Cs4
 BYTE   W06
 BYTE   Gn3
 BYTE   W06
 BYTE   Cn4  v107
 BYTE   W06
 BYTE   Gn3
 BYTE   W06
 BYTE   Cn4  v078
 BYTE   W06
 BYTE   Gn3
 BYTE   W06
// 012   ----------------------------------------
 BYTE   Fn4  v090
 BYTE   W06
 BYTE   Fn3
 BYTE   W06
 BYTE   Fn4  v066
 BYTE   W06
 BYTE   Fn3
 BYTE   W06
 BYTE   Fn4
 BYTE   W06
 BYTE   Fn3  v067
 BYTE   W06
 BYTE   Fn4
 BYTE   W06
 BYTE   Fn3  v068
 BYTE   W06
 BYTE   Fn4
 BYTE   W06
 BYTE   Fn3
 BYTE   W06
 BYTE   Fn4  v069
 BYTE   W06
 BYTE   Fn3
 BYTE   W06
 BYTE   Fn4  v070
 BYTE   W06
 BYTE   Fn3
 BYTE   W06
 BYTE   Fn4  v071
 BYTE   W06
 BYTE   Fn3
 BYTE   W06
// 013   ----------------------------------------
 BYTE   PATT
  POIN2 Label_2_0101CA78
// 014   ----------------------------------------
 BYTE   PATT
  POIN2 Label_2_0101CAA2
// 015   ----------------------------------------
 BYTE   PATT
  POIN2 Label_2_0101CACC
// 016   ----------------------------------------
 BYTE   PATT
  POIN2 Label_2_0101CAFB
// 017   ----------------------------------------
 BYTE   PATT
  POIN2 Label_2_0101CB29
// 018   ----------------------------------------
 BYTE   PATT
  POIN2 Label_2_0101CB58
// 019   ----------------------------------------
 BYTE   PATT
  POIN2 Label_2_0101CB7F
// 020   ----------------------------------------
 BYTE   PATT
  POIN2 Label_2_0101CBA6
// 021   ----------------------------------------
 BYTE   N07  Cs4  v107
 BYTE   W06
 BYTE   Fn3
 BYTE   W06
 BYTE   Cs4  v069
 BYTE   W06
 BYTE   Fn3
 BYTE   W06
 BYTE   Cs4
 BYTE   W06
 BYTE   Fn3
 BYTE   W06
 BYTE   Cs4
 BYTE   W06
 BYTE   Fn3
 BYTE   W06
 BYTE   Cs4
 BYTE   W06
 BYTE   Fn3
 BYTE   W06
 BYTE   Cs4
 BYTE   W06
 BYTE   Fn3
 BYTE   W06
 BYTE   Cs4
 BYTE   W06
 BYTE   Fn3
 BYTE   W06
 BYTE   Cs4
 BYTE   W06
 BYTE   Fn3
 BYTE   W06
// 022   ----------------------------------------
 BYTE   PATT
  POIN2 Label_2_0101CBF0
// 023   ----------------------------------------
 BYTE   N07  Dn4  v078
 BYTE   W06
 BYTE   Gn3
 BYTE   W06
 BYTE   Dn4
 BYTE   W06
 BYTE   Gn3
 BYTE   W06
 BYTE   Dn4
 BYTE   W06
 BYTE   Gn3
 BYTE   W06
 BYTE   Cs4
 BYTE   W06
 BYTE   Gn3
 BYTE   W06
 BYTE   Cs4
 BYTE   W06
 BYTE   Gn3
 BYTE   W06
 BYTE   Cs4
 BYTE   W06
 BYTE   Gn3
 BYTE   W06
 BYTE   Cn4
 BYTE   W06
 BYTE   Gn3
 BYTE   W06
 BYTE   Cn4
 BYTE   W06
 BYTE   Gn3
 BYTE   W06
// 024   ----------------------------------------
 BYTE   N06  Fn2  v127
 BYTE   N06  Fn1
 BYTE   W36
 BYTE   Ds2  v102
 BYTE   N06  Ds1
 BYTE   W12
 BYTE   Fn2
 BYTE   N06  Fn1
 BYTE   W24
 BYTE   Fn2  v127
 BYTE   N06  Fn1
 BYTE   W36
// 025   ----------------------------------------
Label_2_0101CCE7:
 BYTE   N06  Ds2  v102
 BYTE   N06  Ds1
 BYTE   W12
 BYTE   Fn2
 BYTE   N06  Fn1
 BYTE   W24
 BYTE   Fn2  v127
 BYTE   N06  Fn1
 BYTE   W36
 BYTE   Ds2  v102
 BYTE   N06  Ds1
 BYTE   W12
 BYTE   Fn2
 BYTE   N06  Fn1
 BYTE   W24
 BYTE   PEND 
// 026   ----------------------------------------
 BYTE   N06  Fn2  v127
 BYTE   N06  Fn1
 BYTE   W72
 BYTE   Fn2
 BYTE   N06  Fn1
 BYTE   W36
// 027   ----------------------------------------
 BYTE   Ds2  v106
 BYTE   N06  Ds1
 BYTE   W12
 BYTE   Fn2
 BYTE   N06  Fn1
 BYTE   W24
 BYTE   Fn2  v127
 BYTE   N06  Fn1
 BYTE   W36
 BYTE   Ds2  v106
 BYTE   N06  Ds1
 BYTE   W12
 BYTE   Fn2
 BYTE   N06  Fn1
 BYTE   W24
// 028   ----------------------------------------
 BYTE   Fn2  v127
 BYTE   N06  Fn1
 BYTE   W36
 BYTE   Ds2  v105
 BYTE   N06  Ds1
 BYTE   W12
 BYTE   Fn2
 BYTE   N06  Fn1
 BYTE   W24
 BYTE   Fn2  v127
 BYTE   N06  Fn1
 BYTE   W72
// 029   ----------------------------------------
 BYTE   An2
 BYTE   N06  An1
 BYTE   W36
 BYTE   Gn2  v104
 BYTE   N06  Gn1
 BYTE   W12
 BYTE   An2
 BYTE   N06  An1
 BYTE   W24
 BYTE   An2  v127
 BYTE   N06  An1
 BYTE   W36
// 030   ----------------------------------------
 BYTE   Gn2  v104
 BYTE   N06  Gn1
 BYTE   W12
 BYTE   An2
 BYTE   N06  An1
 BYTE   W24
 BYTE   An2  v127
 BYTE   N06  An1
 BYTE   W36
 BYTE   Gn2  v104
 BYTE   N06  Gn1
 BYTE   W12
 BYTE   An2
 BYTE   N06  An1
 BYTE   W24
// 031   ----------------------------------------
 BYTE   An2  v127
 BYTE   N06  An1
 BYTE   W72
 BYTE   Fn2
 BYTE   N06  Fn1
 BYTE   W36
// 032   ----------------------------------------
 BYTE   PATT
  POIN2 Label_2_0101CCE7
// 033   ----------------------------------------
 BYTE   N06  Fn2  v127
 BYTE   N06  Fn1
 BYTE   W36
 BYTE   Ds2  v102
 BYTE   N06  Ds1
 BYTE   W12
 BYTE   Fn2
 BYTE   N06  Fn1
 BYTE   W24
 BYTE   Fn2  v127
 BYTE   N06  Fn1
 BYTE   W72
// 034   ----------------------------------------
 BYTE   Fn2
 BYTE   N06  Fn1
 BYTE   W24
 BYTE   N48  Cn3  v097
 BYTE   W12
 BYTE   N06  Ds1  v102
 BYTE   N06  Ds2
 BYTE   W12
 BYTE   Fn2
 BYTE   N06  Fn1
 BYTE   W24
 BYTE   Fn2  v127
 BYTE   N06  Fn1
 BYTE   N48  Dn3  v097
 BYTE   W36
// 035   ----------------------------------------
 BYTE   N06  Ds2  v102
 BYTE   N06  Ds1
 BYTE   W12
 BYTE   Fn2
 BYTE   N06  Fn1
 BYTE   N48  As2  v097
 BYTE   W24
 BYTE   N06  Fn2  v127
 BYTE   N06  Fn1
 BYTE   W24
 BYTE   N48  Cn3  v097
 BYTE   W12
 BYTE   N06  Ds2  v102
 BYTE   N06  Ds1
 BYTE   W12
 BYTE   Fn2
 BYTE   N06  Fn1
 BYTE   W24
// 036   ----------------------------------------
 BYTE   Fn2  v127
 BYTE   N06  Fn1
 BYTE   N72  Dn3  v097
 BYTE   W72
 BYTE   N06  An2  v127
 BYTE   N06  An1
 BYTE   W24
// 037   ----------------------------------------
 BYTE   N48  Fs3  v097
 BYTE   W12
 BYTE   N06  Gn1  v104
 BYTE   N06  Gn2
 BYTE   W12
 BYTE   An2
 BYTE   N06  An1
 BYTE   W24
 BYTE   An2  v127
 BYTE   N06  An1
 BYTE   N48  Gs3  v097
 BYTE   W36
 BYTE   N06  Gn2  v104
 BYTE   N06  Gn1
 BYTE   W12
// 038   ----------------------------------------
 BYTE   An2
 BYTE   N06  An1
 BYTE   N48  En3  v097
 BYTE   W24
 BYTE   N06  An2  v127
 BYTE   N06  An1
 BYTE   W24
 BYTE   N48  Fs3  v097
 BYTE   W12
 BYTE   N06  Gn2  v104
 BYTE   N06  Gn1
 BYTE   W12
 BYTE   An2
 BYTE   N06  An1
 BYTE   W24
// 039   ----------------------------------------
 BYTE   An2  v127
 BYTE   N06  An1
 BYTE   N68  Gs3  v097
 BYTE   W24
 BYTE   W10
 BYTE   N03  Gs3  v097
 BYTE   W32
 BYTE   GoTo
  POIN2 Label_2_0101CA40
 BYTE   FINE

//**************** Track 4 (Midi-Chn.3) ****************//

LoZPhantomHourglassBattleRSflame_004:
// 000   ----------------------------------------
Label_3_556E24:
 BYTE   KEYSH   LoZPhantomHourglassBattleRSflame_key+0
 BYTE   VOICE   60
 BYTE   VOL   56*LoZPhantomHourglassBattleRSflame_mvl/mxv
 BYTE   PAN   c_v+0
 BYTE   BEND   c_v+0
 BYTE   MOD 0
 BYTE   CnM2
 BYTE   N96  Fn2  v098
 BYTE   N96  Cn2
 BYTE   TEMPO   150*LoZPhantomHourglassBattleRSflame_tbs/2
 BYTE   W96
// 001   ----------------------------------------
Label_3_556E38:
 BYTE   N96  Gn2  v098
 BYTE   N96  Dn2
 BYTE   W96
 BYTE   PEND 
// 002   ----------------------------------------
 BYTE   N72  Gs2  v107
 BYTE   N72  Ds2
 BYTE   W68
 BYTE   W01
 BYTE   N24  Dn1  v127
 BYTE   W12
 BYTE   N02
 BYTE   W14
Label_3_556E4C:
 BYTE   N92  An2  v098
 BYTE   N92  Dn2
 BYTE   N92  An1
 BYTE   W44
// 003   ----------------------------------------
 BYTE   W02
 BYTE   N01  Dn2
 BYTE   N01  An1
 BYTE   N01  An2
 BYTE   W48
 BYTE   W02
 BYTE   PEND 
Label_3_556E5E:
 BYTE   N92  Fn2  v098
 BYTE   N92  Ds2
 BYTE   N92  As1
 BYTE   W44
// 004   ----------------------------------------
 BYTE   W02
 BYTE   N01  Ds2
 BYTE   N01  As1
 BYTE   N01  Fn2
 BYTE   W48
 BYTE   W02
 BYTE   PEND 
 BYTE   N68  Gn2  v110
 BYTE   N68  Fn2
 BYTE   N68  Cn2
 BYTE   W32
 BYTE   W02
 BYTE   N01  Fn2
 BYTE   N01  Cn2
 BYTE   N01  Gn2
 BYTE   W32
// 005   ----------------------------------------
 BYTE   W03
 BYTE   N24  Dn1  v127
 BYTE   W12
 BYTE   N02
 BYTE   W14
Label_3_556E87:
 BYTE   N92  Dn3  v098
 BYTE   N92  Gn2
 BYTE   N92  Dn2
 BYTE   W44
 BYTE   W02
 BYTE   N01  Gn2
 BYTE   N01  Dn2
 BYTE   N01  Dn3
 BYTE   W48
// 006   ----------------------------------------
 BYTE   W02
 BYTE   PEND 
Label_3_556E99:
 BYTE   N92  As2  v098
 BYTE   N92  Gs2
 BYTE   N92  Ds2
 BYTE   W44
 BYTE   W02
 BYTE   N01  Gs2
 BYTE   N01  Ds2
 BYTE   N01  As2
 BYTE   W48
// 007   ----------------------------------------
 BYTE   W02
 BYTE   PEND 
 BYTE   N68  Cn3  v098
 BYTE   N68  As2
 BYTE   N68  Fn2
 BYTE   W32
 BYTE   W02
 BYTE   N01  As2
 BYTE   N01  Fn2
 BYTE   N01  Cn3
 BYTE   W32
 BYTE   W03
 BYTE   N24  Gn1  v127
 BYTE   W12
 BYTE   N02
 BYTE   W14
// 008   ----------------------------------------
Label_3_556EC2:
 BYTE   N96  Bn2  v098
 BYTE   N96  Cs3
 BYTE   N96  Fn2
 BYTE   W96
 BYTE   PEND 
// 009   ----------------------------------------
Label_3_556ECB:
 BYTE   N96  Gn2  v098
 BYTE   N96  An2
 BYTE   N96  Cs2
 BYTE   W96
 BYTE   PEND 
// 010   ----------------------------------------
Label_3_556ED4:
 BYTE   N36  Dn2  v098
 BYTE   W36
 BYTE   Cs2
 BYTE   W32
 BYTE   W01
 BYTE   N28  Gn1
 BYTE   W14
 BYTE   N01
 BYTE   W12
 BYTE   PEND 
 BYTE   N96  Fn2  v098
 BYTE   N96  Cn2
 BYTE   W96
// 011   ----------------------------------------
 BYTE   PATT
  POIN2 Label_3_556E38
// 012   ----------------------------------------
 BYTE   N72  Gs2  v098
 BYTE   N72  Ds2
 BYTE   W68
 BYTE   W01
 BYTE   N24  Dn1
 BYTE   W12
 BYTE   N02
 BYTE   W14
// 013   ----------------------------------------
 BYTE   PATT
  POIN2 Label_3_556E4C
// 014   ----------------------------------------
 BYTE   PATT
  POIN2 Label_3_556E5E
// 015   ----------------------------------------
 BYTE   N68  Gn2  v098
 BYTE   N68  Fn2
 BYTE   N68  Cn2
 BYTE   W32
 BYTE   W02
 BYTE   N01  Fn2
 BYTE   N01  Cn2
 BYTE   N01  Gn2
 BYTE   W32
 BYTE   W03
 BYTE   N24  Dn1
 BYTE   W12
 BYTE   N02
 BYTE   W14
// 016   ----------------------------------------
 BYTE   PATT
  POIN2 Label_3_556E87
// 017   ----------------------------------------
 BYTE   PATT
  POIN2 Label_3_556E99
// 018   ----------------------------------------
 BYTE   N68  Cn3  v098
 BYTE   N68  As2
 BYTE   N68  Fn2
 BYTE   W32
 BYTE   W02
 BYTE   N01  As2
 BYTE   N01  Fn2
 BYTE   N01  Cn3
 BYTE   W32
 BYTE   W03
 BYTE   N24  Gn1
 BYTE   W12
 BYTE   N02
 BYTE   W14
// 019   ----------------------------------------
 BYTE   PATT
  POIN2 Label_3_556EC2
// 020   ----------------------------------------
 BYTE   PATT
  POIN2 Label_3_556ECB
// 021   ----------------------------------------
 BYTE   PATT
  POIN2 Label_3_556ED4
// 022   ----------------------------------------
Label_3_556F47:
 BYTE   N68  Fn2  v091
 BYTE   N68  Cn2
 BYTE   W72
 BYTE   Gn2  v098
 BYTE   N68  Dn2
 BYTE   W72
 BYTE   PEND 
// 023   ----------------------------------------
Label_3_556F53:
 BYTE   N68  Gs2  v104
 BYTE   N68  Ds2
 BYTE   W72
 BYTE   As2  v082
 BYTE   N68  Fn2
 BYTE   W72
 BYTE   PEND 
// 024   ----------------------------------------
 BYTE   PATT
  POIN2 Label_3_556F47
// 025   ----------------------------------------
 BYTE   PATT
  POIN2 Label_3_556F53
// 026   ----------------------------------------
Label_3_556F69:
 BYTE   N68  Bn2  v088
 BYTE   N68  Fs2
 BYTE   W72
 BYTE   Cs3
 BYTE   N68  Gs2
 BYTE   W72
 BYTE   PEND 
// 027   ----------------------------------------
 BYTE   N68  Dn3  v088
 BYTE   N68  An2
 BYTE   W72
 BYTE   En3  v076
 BYTE   N68  Bn2
 BYTE   W72
// 028   ----------------------------------------
 BYTE   PATT
  POIN2 Label_3_556F47
// 029   ----------------------------------------
 BYTE   PATT
  POIN2 Label_3_556F53
// 030   ----------------------------------------
 BYTE   PATT
  POIN2 Label_3_556F47
// 031   ----------------------------------------
 BYTE   PATT
  POIN2 Label_3_556F53
// 032   ----------------------------------------
 BYTE   PATT
  POIN2 Label_3_556F69
// 033   ----------------------------------------
 BYTE   N68  Dn3  v088
 BYTE   N68  An2
 BYTE   W72
 BYTE   En3  v076
 BYTE   N68  Bn2
 BYTE   W24
// 034   ----------------------------------------
 BYTE   W42
 BYTE   GoTo
  POIN2 Label_3_556E24
 BYTE   FINE

//******************************************************//
	ALIGN 4

LoZPhantomHourglassBattleRSflame:
	BYTE	4	// NumTrks
	BYTE	0	// NumBlks
	BYTE	LoZPhantomHourglassBattleRSflame_pri	// Priority
	BYTE	LoZPhantomHourglassBattleRSflame_rev	// Reverb.
    
	POIN2	LoZPhantomHourglassBattleRSflame_grp
    
	POIN2	LoZPhantomHourglassBattleRSflame_001
	POIN2	LoZPhantomHourglassBattleRSflame_002
	POIN2	LoZPhantomHourglassBattleRSflame_003
	POIN2	LoZPhantomHourglassBattleRSflame_004

	
