//Event file generated from Sappy .s format.
	#include "MPlayDef.event"

	#define	LoZSpiritTracksFullSteamAheadRSflame_grp  voicegroup000
	#define	LoZSpiritTracksFullSteamAheadRSflame_pri  0
	#define	LoZSpiritTracksFullSteamAheadRSflame_rev  0
	#define	LoZSpiritTracksFullSteamAheadRSflame_mvl  127
	#define	LoZSpiritTracksFullSteamAheadRSflame_key  0
	#define	LoZSpiritTracksFullSteamAheadRSflame_tbs  1
	#define	LoZSpiritTracksFullSteamAheadRSflame_exg  0
	#define	LoZSpiritTracksFullSteamAheadRSflame_cmp  1

	// .rodata
	//	LoZSpiritTracksFullSteamAheadRSflame
	ALIGN 4


//**************** Track 1 (Midi-Chn.0) ****************//

LoZSpiritTracksFullSteamAheadRSflame_001:
// 000   ----------------------------------------
 BYTE   KEYSH   LoZSpiritTracksFullSteamAheadRSflame_key+0
 BYTE   TEMPO   136*LoZSpiritTracksFullSteamAheadRSflame_tbs/2
 BYTE   VOICE   41
 BYTE   VOL   50*LoZSpiritTracksFullSteamAheadRSflame_mvl/mxv
 BYTE   PAN   c_v+40
 BYTE   N05  Bn0  v108
 BYTE   W18
 BYTE   An1  v116
 BYTE   W18
 BYTE   Gn1  v084
 BYTE   W18
 BYTE   Gn1  v104
 BYTE   W12
 BYTE   Bn1  v100
 BYTE   W18
 BYTE   Gn1  v092
 BYTE   W12
// 001   ----------------------------------------
Label_0_55664D:
 BYTE   N05  Fn1  v108
 BYTE   W18
 BYTE   An1  v116
 BYTE   W18
 BYTE   Gn1  v084
 BYTE   W18
 BYTE   Gn1  v104
 BYTE   W12
 BYTE   Bn1  v100
 BYTE   W18
 BYTE   Gn1  v092
 BYTE   W12
 BYTE   PEND 
// 002   ----------------------------------------
 BYTE   PATT
  POIN2 Label_0_55664D
// 003   ----------------------------------------
 BYTE   PATT
  POIN2 Label_0_55664D
// 004   ----------------------------------------
 BYTE   PATT
  POIN2 Label_0_55664D
// 005   ----------------------------------------
 BYTE   PATT
  POIN2 Label_0_55664D
// 006   ----------------------------------------
Label_0_556675:
// 007   ----------------------------------------
 BYTE   PATT
  POIN2 Label_0_55664D
// 008   ----------------------------------------
 BYTE   PATT
  POIN2 Label_0_55664D
// 009   ----------------------------------------
 BYTE   PATT
  POIN2 Label_0_55664D
// 010   ----------------------------------------
 BYTE   PATT
  POIN2 Label_0_55664D
// 011   ----------------------------------------
 BYTE   PATT
  POIN2 Label_0_55664D
// 012   ----------------------------------------
 BYTE   PATT
  POIN2 Label_0_55664D
// 013   ----------------------------------------
 BYTE   PATT
  POIN2 Label_0_55664D
// 014   ----------------------------------------
 BYTE   PATT
  POIN2 Label_0_55664D
// 015   ----------------------------------------
 BYTE   PATT
  POIN2 Label_0_55664D
// 016   ----------------------------------------
Label_0_5566A2:
 BYTE   N05  Fn1  v108
 BYTE   W18
 BYTE   An1  v112
 BYTE   W18
 BYTE   Gn1  v080
 BYTE   W12
 BYTE   N02  Gn1  v120
 BYTE   W03
 BYTE   N02
 BYTE   W03
 BYTE   N05  Gn1  v127
 BYTE   W06
 BYTE   Fn1  v112
 BYTE   W06
 BYTE   Bn1
 BYTE   W12
 BYTE   Gn1  v100
 BYTE   W06
 BYTE   Gn1  v127
 BYTE   W12
 BYTE   PEND 
// 017   ----------------------------------------
 BYTE   PATT
  POIN2 Label_0_55664D
// 018   ----------------------------------------
 BYTE   PATT
  POIN2 Label_0_55664D
// 019   ----------------------------------------
 BYTE   PATT
  POIN2 Label_0_55664D
// 020   ----------------------------------------
 BYTE   PATT
  POIN2 Label_0_55664D
// 021   ----------------------------------------
 BYTE   PATT
  POIN2 Label_0_55664D
// 022   ----------------------------------------
 BYTE   PATT
  POIN2 Label_0_55664D
// 023   ----------------------------------------
 BYTE   PATT
  POIN2 Label_0_55664D
// 024   ----------------------------------------
 BYTE   N05  Fn1  v108
 BYTE   W18
 BYTE   An1  v112
 BYTE   W18
 BYTE   Gn1  v080
 BYTE   W12
 BYTE   N02  Gn1  v120
 BYTE   W03
 BYTE   N02
 BYTE   W03
 BYTE   N05  Gn1  v127
 BYTE   W06
 BYTE   Fn1  v112
 BYTE   W06
 BYTE   Bn1
 BYTE   W06
 BYTE   VOL   50*LoZSpiritTracksFullSteamAheadRSflame_mvl/mxv
 BYTE   PAN   c_v+40
 BYTE   W06
 BYTE   N05  Gn1  v100
 BYTE   W06
 BYTE   Gn1  v127
 BYTE   W12
// 025   ----------------------------------------
Label_0_55670A:
 BYTE   N05  Fn1  v108
 BYTE   N92  Gn3  v088
 BYTE   W18
 BYTE   N05  An1  v116
 BYTE   W18
 BYTE   Gn1  v084
 BYTE   W18
 BYTE   Gn1  v104
 BYTE   W12
 BYTE   Bn1  v100
 BYTE   W18
 BYTE   Gn1  v092
 BYTE   W12
 BYTE   PEND 
// 026   ----------------------------------------
 BYTE   PATT
  POIN2 Label_0_55664D
// 027   ----------------------------------------
 BYTE   PATT
  POIN2 Label_0_55664D
// 028   ----------------------------------------
 BYTE   PATT
  POIN2 Label_0_55664D
// 029   ----------------------------------------
 BYTE   PATT
  POIN2 Label_0_55664D
// 030   ----------------------------------------
 BYTE   PATT
  POIN2 Label_0_55664D
// 031   ----------------------------------------
 BYTE   PATT
  POIN2 Label_0_55664D
// 032   ----------------------------------------
 BYTE   PATT
  POIN2 Label_0_5566A2
// 033   ----------------------------------------
 BYTE   PATT
  POIN2 Label_0_55670A
// 034   ----------------------------------------
 BYTE   PATT
  POIN2 Label_0_55664D
// 035   ----------------------------------------
 BYTE   PATT
  POIN2 Label_0_55664D
// 036   ----------------------------------------
 BYTE   PATT
  POIN2 Label_0_55664D
// 037   ----------------------------------------
 BYTE   PATT
  POIN2 Label_0_55664D
// 038   ----------------------------------------
 BYTE   PATT
  POIN2 Label_0_55664D
// 039   ----------------------------------------
 BYTE   PATT
  POIN2 Label_0_55664D
// 040   ----------------------------------------
 BYTE   N05  Fn1  v108
 BYTE   W18
 BYTE   An1  v112
 BYTE   W18
 BYTE   Gn1  v080
 BYTE   W12
 BYTE   Gn1  v100
 BYTE   W12
 BYTE   Gn1  v080
 BYTE   W06
 BYTE   Gn1  v100
 BYTE   W06
 BYTE   Fn1
 BYTE   W12
 BYTE   Fn1  v088
 BYTE   W12
// 041   ----------------------------------------
 BYTE   N92  Gn3  v076
 BYTE   W96
// 042   ----------------------------------------
 BYTE   W96
// 043   ----------------------------------------
 BYTE   W96
// 044   ----------------------------------------
 BYTE   W96
// 045   ----------------------------------------
 BYTE   W96
// 046   ----------------------------------------
 BYTE   W96
// 047   ----------------------------------------
 BYTE   W96
// 048   ----------------------------------------
 BYTE   W96
// 049   ----------------------------------------
 BYTE   W96
// 050   ----------------------------------------
 BYTE   W96
// 051   ----------------------------------------
 BYTE   W96
// 052   ----------------------------------------
 BYTE   W96
// 053   ----------------------------------------
 BYTE   W96
// 054   ----------------------------------------
 BYTE   W96
// 055   ----------------------------------------
 BYTE   W96
// 056   ----------------------------------------
 BYTE   W96
// 057   ----------------------------------------
 BYTE   W96
// 058   ----------------------------------------
 BYTE   W96
// 059   ----------------------------------------
 BYTE   W90
 BYTE   N02  Gn1  v080
 BYTE   W03
 BYTE   N02
 BYTE   W03
// 060   ----------------------------------------
 BYTE   N05  Gn1  v100
 BYTE   W18
 BYTE   Bn1
 BYTE   W18
 BYTE   Gn1  v088
 BYTE   W12
 BYTE   Gn1  v108
 BYTE   W06
 BYTE   Fn1
 BYTE   W12
 BYTE   Gn1  v092
 BYTE   W06
 BYTE   Bn1  v127
 BYTE   W12
 BYTE   Gn1  v088
 BYTE   W06
 BYTE   Bn1  v127
 BYTE   W06
// 061   ----------------------------------------
 BYTE   PATT
  POIN2 Label_0_55670A
// 062   ----------------------------------------
 BYTE   PATT
  POIN2 Label_0_55664D
// 063   ----------------------------------------
 BYTE   PATT
  POIN2 Label_0_55664D
// 064   ----------------------------------------
 BYTE   PATT
  POIN2 Label_0_55664D
// 065   ----------------------------------------
 BYTE   PATT
  POIN2 Label_0_55664D
// 066   ----------------------------------------
 BYTE   PATT
  POIN2 Label_0_55664D
// 067   ----------------------------------------
 BYTE   PATT
  POIN2 Label_0_55664D
// 068   ----------------------------------------
 BYTE   PATT
  POIN2 Label_0_5566A2
// 069   ----------------------------------------
 BYTE   PATT
  POIN2 Label_0_55670A
// 070   ----------------------------------------
 BYTE   PATT
  POIN2 Label_0_55664D
// 071   ----------------------------------------
 BYTE   PATT
  POIN2 Label_0_55664D
// 072   ----------------------------------------
 BYTE   N05  Fn1  v108
 BYTE   W18
 BYTE   An1  v116
 BYTE   W18
 BYTE   Gn1  v084
 BYTE   W18
 BYTE   Gn1  v104
 BYTE   W12
 BYTE   Bn1  v100
 BYTE   W18
 BYTE   Gn1  v092
 BYTE   W11
 BYTE   GoTo
  POIN2 Label_0_556675
 BYTE   FINE

//**************** Track 2 (Midi-Chn.1) ****************//

LoZSpiritTracksFullSteamAheadRSflame_002:
// 000   ----------------------------------------
 BYTE   KEYSH   LoZSpiritTracksFullSteamAheadRSflame_key+0
 BYTE   VOICE   45
 BYTE   VOL   23*LoZSpiritTracksFullSteamAheadRSflame_mvl/mxv
 BYTE   PAN   c_v+0
 BYTE   N11  As0  v127
 BYTE   W24
 BYTE   N10  As4  v100
 BYTE   W01
 BYTE   Fn5
 BYTE   W11
 BYTE   N11  As1
 BYTE   W24
 BYTE   As4
 BYTE   W01
 BYTE   Fn5
 BYTE   W32
 BYTE   W03
// 001   ----------------------------------------
Label_1_0101AB1E:
 BYTE   N11  As0  v127
 BYTE   W24
 BYTE   N10  As4  v100
 BYTE   W01
 BYTE   Fn5
 BYTE   W11
 BYTE   N11  As1
 BYTE   W24
 BYTE   As4
 BYTE   W01
 BYTE   Fn5
 BYTE   W32
 BYTE   W03
 BYTE   PEND 
// 002   ----------------------------------------
 BYTE   PATT
  POIN2 Label_1_0101AB1E
// 003   ----------------------------------------
 BYTE   PATT
  POIN2 Label_1_0101AB1E
// 004   ----------------------------------------
Label_1_0101AB3B:
 BYTE   N11  Cs1  v127
 BYTE   W24
 BYTE   N10  Cs5  v100
 BYTE   W01
 BYTE   Gs5
 BYTE   W11
 BYTE   N11  Gs1
 BYTE   W24
 BYTE   Cs5
 BYTE   W01
 BYTE   Gs5
 BYTE   W32
 BYTE   W03
 BYTE   PEND 
// 005   ----------------------------------------
 BYTE   PATT
  POIN2 Label_1_0101AB3B
// 006   ----------------------------------------
Label_1_0101AB53:
 BYTE   N11  As0  v127
 BYTE   W24
 BYTE   N10  As4  v100
 BYTE   W01
 BYTE   Fn5
 BYTE   W11
 BYTE   N11  As1  v127
 BYTE   W24
 BYTE   As4  v100
 BYTE   W01
 BYTE   Fn5
 BYTE   W32
 BYTE   W03
 BYTE   PEND 
// 007   ----------------------------------------
 BYTE   PATT
  POIN2 Label_1_0101AB53
// 008   ----------------------------------------
Label_1_0101AB6D:
 BYTE   N11  Fn1  v127
 BYTE   W24
 BYTE   N10  Cn5  v100
 BYTE   W01
 BYTE   Fn5
 BYTE   W11
 BYTE   N11  Cn1
 BYTE   W24
 BYTE   Cn5
 BYTE   W01
 BYTE   Fn5
 BYTE   W32
 BYTE   W03
 BYTE   PEND 
// 009   ----------------------------------------
 BYTE   PATT
  POIN2 Label_1_0101AB6D
// 010   ----------------------------------------
 BYTE   PATT
  POIN2 Label_1_0101AB53
// 011   ----------------------------------------
 BYTE   PATT
  POIN2 Label_1_0101AB53
// 012   ----------------------------------------
Label_1_0101AB8F:
 BYTE   N11  Cs1  v127
 BYTE   W24
 BYTE   N10  Cs5  v100
 BYTE   W01
 BYTE   Gs5
 BYTE   W11
 BYTE   N11  Gs1  v127
 BYTE   W24
 BYTE   Cs5  v100
 BYTE   W01
 BYTE   Gs5
 BYTE   W32
 BYTE   W03
 BYTE   PEND 
// 013   ----------------------------------------
 BYTE   PATT
  POIN2 Label_1_0101AB8F
// 014   ----------------------------------------
 BYTE   PATT
  POIN2 Label_1_0101AB53
// 015   ----------------------------------------
 BYTE   PATT
  POIN2 Label_1_0101AB53
// 016   ----------------------------------------
 BYTE   N11  Fs0  v127
 BYTE   W24
 BYTE   N10  Cs5  v100
 BYTE   W01
 BYTE   Fs5
 BYTE   W11
 BYTE   N11  Fs1
 BYTE   W24
 BYTE   Cs5
 BYTE   W01
 BYTE   Fs5
 BYTE   W32
 BYTE   W03
// 017   ----------------------------------------
 BYTE   PATT
  POIN2 Label_1_0101AB3B
// 018   ----------------------------------------
 BYTE   N11  Fn1  v127
 BYTE   W24
 BYTE   N10  Cn5  v100
 BYTE   W01
 BYTE   Fn5
 BYTE   W11
 BYTE   N11  Cn2
 BYTE   W24
 BYTE   Cn5
 BYTE   W01
 BYTE   Fn5
 BYTE   W32
 BYTE   W03
// 019   ----------------------------------------
 BYTE   PATT
  POIN2 Label_1_0101AB1E
// 020   ----------------------------------------
 BYTE   N11  Gs0  v127
 BYTE   W24
 BYTE   N10  Gs4  v100
 BYTE   W01
 BYTE   Ds5
 BYTE   W11
 BYTE   N11  Gs1
 BYTE   W24
 BYTE   Gs4
 BYTE   W01
 BYTE   Ds5
 BYTE   W32
 BYTE   W03
// 021   ----------------------------------------
 BYTE   Ds1  v127
 BYTE   W24
 BYTE   N10  As4  v100
 BYTE   W01
 BYTE   Ds5
 BYTE   W11
 BYTE   N11  As1
 BYTE   W24
 BYTE   As4
 BYTE   W01
 BYTE   Ds5
 BYTE   W32
 BYTE   W03
// 022   ----------------------------------------
 BYTE   Gn1  v127
 BYTE   W24
 BYTE   N10  Dn5  v100
 BYTE   W01
 BYTE   Gn5
 BYTE   W11
 BYTE   N11  Gn1
 BYTE   W24
 BYTE   Dn5
 BYTE   W01
 BYTE   Gn5
 BYTE   W32
 BYTE   W03
// 023   ----------------------------------------
 BYTE   W24
 BYTE   Gn1  v108
 BYTE   N10  Dn5  v100
 BYTE   W01
 BYTE   Gn5
 BYTE   W23
 BYTE   N11  Dn1  v108
 BYTE   W12
 BYTE   Dn5  v100
 BYTE   W01
 BYTE   Gn5
 BYTE   W11
 BYTE   Gn0  v127
 BYTE   W24
// 024   ----------------------------------------
Label_1_0101AC2A:
 BYTE   N11  Gs0  v127
 BYTE   W24
 BYTE   N05  Gs4  v100
 BYTE   W01
 BYTE   N10  Ds5
 BYTE   W11
 BYTE   N11  Gs1
 BYTE   W24
 BYTE   N05  Gs4
 BYTE   W01
 BYTE   N11  Ds5
 BYTE   W32
 BYTE   W03
 BYTE   PEND 
// 025   ----------------------------------------
Label_1_0101AC40:
 BYTE   N11  Ds1  v127
 BYTE   W18
 BYTE   N05  Fn1
 BYTE   W06
 BYTE   As4  v100
 BYTE   W01
 BYTE   N10  Ds5
 BYTE   W11
 BYTE   N11  Gn1  v127
 BYTE   W24
 BYTE   N05  As4  v100
 BYTE   W01
 BYTE   N11  Ds5
 BYTE   W32
 BYTE   W03
 BYTE   PEND 
// 026   ----------------------------------------
 BYTE   As0  v127
 BYTE   W24
 BYTE   N05  As4  v100
 BYTE   W01
 BYTE   N10  Fn5
 BYTE   W11
 BYTE   N11  Fn1
 BYTE   W24
 BYTE   N05  As4
 BYTE   W01
 BYTE   N11  Fn5
 BYTE   W32
 BYTE   W03
// 027   ----------------------------------------
 BYTE   Cn1  v127
 BYTE   W18
 BYTE   N05  Dn1
 BYTE   W06
 BYTE   Cn5  v100
 BYTE   W01
 BYTE   N10  Gn5
 BYTE   W11
 BYTE   N11  Ds1  v127
 BYTE   W24
 BYTE   N05  Cn5  v100
 BYTE   W01
 BYTE   N11  Gn5
 BYTE   W32
 BYTE   W03
// 028   ----------------------------------------
 BYTE   PATT
  POIN2 Label_1_0101AC2A
// 029   ----------------------------------------
 BYTE   PATT
  POIN2 Label_1_0101AC40
// 030   ----------------------------------------
 BYTE   N11  Cs1  v127
 BYTE   W24
 BYTE   N05  Cs5  v100
 BYTE   W01
 BYTE   N10  Gs5
 BYTE   W11
 BYTE   N11  Gs1
 BYTE   W24
 BYTE   N05  Cs5
 BYTE   W01
 BYTE   N11  Gs5
 BYTE   W32
 BYTE   W03
// 031   ----------------------------------------
 BYTE   Ds1  v127
 BYTE   W18
 BYTE   N05  Fn1
 BYTE   W06
 BYTE   Ds5  v100
 BYTE   W01
 BYTE   N10  As5
 BYTE   W11
 BYTE   N11  Gn1  v127
 BYTE   W24
 BYTE   N05  Ds5  v100
 BYTE   W01
 BYTE   N11  As5
 BYTE   W32
 BYTE   W03
// 032   ----------------------------------------
Label_1_0101ACBD:
 BYTE   N11  Fn1  v127
 BYTE   W24
 BYTE   N05  Cn5  v100
 BYTE   W01
 BYTE   N10  Fn5
 BYTE   W11
 BYTE   N11  Cn2
 BYTE   W24
 BYTE   N05  Cn5
 BYTE   W01
 BYTE   N11  Fn5
 BYTE   W32
 BYTE   W03
 BYTE   PEND 
// 033   ----------------------------------------
 BYTE   PATT
  POIN2 Label_1_0101ACBD
// 034   ----------------------------------------
 BYTE   PATT
  POIN2 Label_1_0101ACBD
// 035   ----------------------------------------
 BYTE   PATT
  POIN2 Label_1_0101ACBD
// 036   ----------------------------------------
 BYTE   PATT
  POIN2 Label_1_0101ACBD
// 037   ----------------------------------------
 BYTE   PATT
  POIN2 Label_1_0101ACBD
// 038   ----------------------------------------
 BYTE   PATT
  POIN2 Label_1_0101ACBD
// 039   ----------------------------------------
 BYTE   N11  Fn1  v127
 BYTE   W24
 BYTE   N05  Cn5  v100
 BYTE   N10  Fn5
 BYTE   W12
 BYTE   N11  Fn1
 BYTE   W12
 BYTE   N23  Fn4
 BYTE   W24
 BYTE   Cn5
 BYTE   N23  Ds5
 BYTE   W24
// 040   ----------------------------------------
 BYTE   N32  Bn3  v104
 BYTE   W36
 BYTE   Fs4
 BYTE   W36
 BYTE   N23  Bn4
 BYTE   W24
// 041   ----------------------------------------
Label_1_0101AD0E:
 BYTE   W36
 BYTE   N32  Fs4  v104
 BYTE   W36
 BYTE   N23  Bn3
 BYTE   W24
 BYTE   PEND 
// 042   ----------------------------------------
 BYTE   N32  Fs4
 BYTE   W36
 BYTE   Cs4
 BYTE   W36
 BYTE   N23  Cs5
 BYTE   W24
// 043   ----------------------------------------
 BYTE   W36
 BYTE   N32  Cs4
 BYTE   W36
 BYTE   N23  Fs4
 BYTE   W24
// 044   ----------------------------------------
 BYTE   N32  Gn4
 BYTE   W36
 BYTE   Dn4
 BYTE   W36
 BYTE   N23  Dn5
 BYTE   W24
// 045   ----------------------------------------
 BYTE   W36
 BYTE   N32  Dn4
 BYTE   W36
 BYTE   N23  Gn4
 BYTE   W24
// 046   ----------------------------------------
Label_1_0101AD35:
 BYTE   N32  An4  v104
 BYTE   W36
 BYTE   En4
 BYTE   W36
 BYTE   N23  En5
 BYTE   W24
 BYTE   PEND 
// 047   ----------------------------------------
 BYTE   Bn4
 BYTE   W48
 BYTE   N32  Bn3
 BYTE   W48
// 048   ----------------------------------------
 BYTE   Gs4
 BYTE   W36
 BYTE   Ds4
 BYTE   W36
 BYTE   N23  Ds5
 BYTE   W24
// 049   ----------------------------------------
 BYTE   W36
 BYTE   N32  Ds4
 BYTE   W36
 BYTE   N23  Gs4
 BYTE   W24
// 050   ----------------------------------------
 BYTE   N32  As4
 BYTE   W36
 BYTE   Fn4
 BYTE   W36
 BYTE   N23  As3
 BYTE   W24
// 051   ----------------------------------------
 BYTE   W36
 BYTE   N32  Fn4
 BYTE   W36
 BYTE   N23  As4
 BYTE   W24
// 052   ----------------------------------------
 BYTE   PATT
  POIN2 Label_1_0101AD35
// 053   ----------------------------------------
 BYTE   W36
 BYTE   N23  En4  v104
 BYTE   W36
 BYTE   An4
 BYTE   W24
// 054   ----------------------------------------
 BYTE   N32  Bn4
 BYTE   W36
 BYTE   Fs4
 BYTE   W36
 BYTE   N23  Bn3
 BYTE   W24
// 055   ----------------------------------------
 BYTE   PATT
  POIN2 Label_1_0101AD0E
// 056   ----------------------------------------
Label_1_0101AD7A:
 BYTE   N32  Cs4  v104
 BYTE   W36
 BYTE   Gs4
 BYTE   W36
 BYTE   N23  Cs5
 BYTE   W24
 BYTE   PEND 
// 057   ----------------------------------------
 BYTE   N32  Ds5
 BYTE   W36
 BYTE   Cs5
 BYTE   W36
 BYTE   N23  Gs4
 BYTE   W24
// 058   ----------------------------------------
 BYTE   PATT
  POIN2 Label_1_0101AD7A
// 059   ----------------------------------------
 BYTE   N32  Cs4  v104
 BYTE   W96
// 060   ----------------------------------------
 BYTE   PATT
  POIN2 Label_1_0101AB1E
// 061   ----------------------------------------
 BYTE   PATT
  POIN2 Label_1_0101AB1E
// 062   ----------------------------------------
Label_1_0101AD9F:
 BYTE   N11  As0  v127
 BYTE   W24
 BYTE   N10  As4  v100
 BYTE   N10  Ds5
 BYTE   W12
 BYTE   N11  As1
 BYTE   W24
 BYTE   As4
 BYTE   N11  Ds5
 BYTE   W36
 BYTE   PEND 
// 063   ----------------------------------------
 BYTE   PATT
  POIN2 Label_1_0101AD9F
// 064   ----------------------------------------
 BYTE   PATT
  POIN2 Label_1_0101AB1E
// 065   ----------------------------------------
 BYTE   PATT
  POIN2 Label_1_0101AB1E
// 066   ----------------------------------------
 BYTE   PATT
  POIN2 Label_1_0101AD9F
// 067   ----------------------------------------
 BYTE   N11  As0  v127
 BYTE   W24
 BYTE   N10  As4  v100
 BYTE   N10  Ds5
 BYTE   W12
 BYTE   N11  As1
 BYTE   W24
 BYTE   As4
 BYTE   N11  Ds5
 BYTE   W12
 BYTE   Fn1
 BYTE   W24
// 068   ----------------------------------------
 BYTE   PATT
  POIN2 Label_1_0101AB1E
// 069   ----------------------------------------
 BYTE   PATT
  POIN2 Label_1_0101AB1E
// 070   ----------------------------------------
 BYTE   PATT
  POIN2 Label_1_0101AB3B
// 071   ----------------------------------------
 BYTE   N11  Cs1  v127
 BYTE   W24
 BYTE   N10  Cs5  v100
 BYTE   W01
 BYTE   Gs5
 BYTE   W11
 BYTE   N11  Gs1
 BYTE   W24
 BYTE   Cs5
 BYTE   W01
 BYTE   Gs5
 BYTE   W32
 BYTE   W02
 BYTE   GoTo
  POIN2 Label_1_0101AB53
 BYTE   FINE

//**************** Track 3 (Midi-Chn.2) ****************//

LoZSpiritTracksFullSteamAheadRSflame_003:
// 000   ----------------------------------------
 BYTE   KEYSH   LoZSpiritTracksFullSteamAheadRSflame_key+0
 BYTE   VOICE   28
 BYTE   VOL   32*LoZSpiritTracksFullSteamAheadRSflame_mvl/mxv
 BYTE   PAN   c_v+60
 BYTE   N10  Ds1  v127
 BYTE   W12
 BYTE   N23  Ds2  v100
 BYTE   W24
 BYTE   N56  As2
 BYTE   W60
// 001   ----------------------------------------
Label_2_0101AEA3:
 BYTE   N10  Ds1  v127
 BYTE   W12
 BYTE   N23  Ds2  v100
 BYTE   W24
 BYTE   N56  As2
 BYTE   W60
 BYTE   PEND 
// 002   ----------------------------------------
 BYTE   PATT
  POIN2 Label_2_0101AEA3
// 003   ----------------------------------------
Label_2_0101AEB4:
 BYTE   W36
 BYTE   N23  Ds2  v127
 BYTE   W24
 BYTE   N10  As2
 BYTE   W12
 BYTE   N22  As1
 BYTE   W24
 BYTE   PEND 
// 004   ----------------------------------------
Label_2_0101AEC0:
 BYTE   N10  Fs1  v127
 BYTE   W12
 BYTE   N23  Fs2  v100
 BYTE   W24
 BYTE   N56  Cs3
 BYTE   W60
 BYTE   PEND 
// 005   ----------------------------------------
Label_2_0101AECC:
 BYTE   W36
 BYTE   N23  Fs2  v127
 BYTE   W24
 BYTE   N10  Cs3
 BYTE   W12
 BYTE   N22  Cs2
 BYTE   W24
 BYTE   PEND 
// 006   ----------------------------------------
Label_2_0101AED8:
// 007   ----------------------------------------
 BYTE   PATT
  POIN2 Label_2_0101AEA3
// 008   ----------------------------------------
 BYTE   PATT
  POIN2 Label_2_0101AEB4
// 009   ----------------------------------------
 BYTE   N10  As1  v127
 BYTE   W12
 BYTE   N23  Fn2  v100
 BYTE   W24
 BYTE   N56  Cs3
 BYTE   W60
// 010   ----------------------------------------
 BYTE   W36
 BYTE   N23  Fn2  v127
 BYTE   W24
 BYTE   N10  Cs3
 BYTE   W12
 BYTE   N22  As1
 BYTE   W24
// 011   ----------------------------------------
 BYTE   PATT
  POIN2 Label_2_0101AEA3
// 012   ----------------------------------------
 BYTE   PATT
  POIN2 Label_2_0101AEB4
// 013   ----------------------------------------
 BYTE   PATT
  POIN2 Label_2_0101AEC0
// 014   ----------------------------------------
 BYTE   PATT
  POIN2 Label_2_0101AECC
// 015   ----------------------------------------
 BYTE   PATT
  POIN2 Label_2_0101AEA3
// 016   ----------------------------------------
 BYTE   PATT
  POIN2 Label_2_0101AEB4
// 017   ----------------------------------------
Label_2_0101AF16:
 BYTE   N10  Bn1  v127
 BYTE   W12
 BYTE   N23  Fs2  v100
 BYTE   W24
 BYTE   N56  Bn2
 BYTE   W60
 BYTE   PEND 
// 018   ----------------------------------------
 BYTE   W36
 BYTE   N23  Fs2  v127
 BYTE   W24
 BYTE   N10  Cs3
 BYTE   W12
 BYTE   N22  Fs1
 BYTE   W24
// 019   ----------------------------------------
 BYTE   N10  As1
 BYTE   W12
 BYTE   N23  Fn2  v100
 BYTE   W24
 BYTE   N56  Dn3
 BYTE   W60
// 020   ----------------------------------------
 BYTE   PATT
  POIN2 Label_2_0101AEB4
// 021   ----------------------------------------
Label_2_0101AF3C:
 BYTE   N10  Cs2  v127
 BYTE   W12
 BYTE   N23  Gs2  v100
 BYTE   W24
 BYTE   N56  Cs3
 BYTE   W60
 BYTE   PEND 
// 022   ----------------------------------------
Label_2_0101AF48:
 BYTE   W36
 BYTE   N23  Gs2  v127
 BYTE   W24
 BYTE   N10  Ds3
 BYTE   W12
 BYTE   N22  Gs1
 BYTE   W24
 BYTE   PEND 
// 023   ----------------------------------------
Label_2_0101AF54:
 BYTE   N10  Cn2  v127
 BYTE   W12
 BYTE   N23  Gn2  v100
 BYTE   W24
 BYTE   N56  Cn3
 BYTE   W60
 BYTE   PEND 
// 024   ----------------------------------------
 BYTE   W36
 BYTE   N23  Gn2  v127
 BYTE   W24
 BYTE   N10  Cn3
 BYTE   W12
 BYTE   N22  Cn2
 BYTE   W24
// 025   ----------------------------------------
 BYTE   PATT
  POIN2 Label_2_0101AF3C
// 026   ----------------------------------------
 BYTE   PATT
  POIN2 Label_2_0101AF48
// 027   ----------------------------------------
 BYTE   PATT
  POIN2 Label_2_0101AEA3
// 028   ----------------------------------------
 BYTE   W36
 BYTE   N23  Fn2  v127
 BYTE   W24
 BYTE   N10  Cn3
 BYTE   W12
 BYTE   N22  Fn1
 BYTE   W24
// 029   ----------------------------------------
 BYTE   PATT
  POIN2 Label_2_0101AF3C
// 030   ----------------------------------------
 BYTE   PATT
  POIN2 Label_2_0101AF48
// 031   ----------------------------------------
 BYTE   PATT
  POIN2 Label_2_0101AEC0
// 032   ----------------------------------------
 BYTE   PATT
  POIN2 Label_2_0101AF48
// 033   ----------------------------------------
Label_2_0101AF99:
 BYTE   N10  As1  v127
 BYTE   W12
 BYTE   N23  Fn2  v100
 BYTE   W24
 BYTE   N56  As2
 BYTE   W60
 BYTE   PEND 
// 034   ----------------------------------------
Label_2_0101AFA5:
 BYTE   W36
 BYTE   N23  Fn2  v127
 BYTE   W24
 BYTE   N10  As2
 BYTE   W12
 BYTE   N22  Fn1
 BYTE   W24
 BYTE   PEND 
// 035   ----------------------------------------
 BYTE   PATT
  POIN2 Label_2_0101AF99
// 036   ----------------------------------------
 BYTE   PATT
  POIN2 Label_2_0101AFA5
// 037   ----------------------------------------
 BYTE   PATT
  POIN2 Label_2_0101AF99
// 038   ----------------------------------------
 BYTE   PATT
  POIN2 Label_2_0101AFA5
// 039   ----------------------------------------
 BYTE   PATT
  POIN2 Label_2_0101AF99
// 040   ----------------------------------------
 BYTE   PATT
  POIN2 Label_2_0101AFA5
// 041   ----------------------------------------
Label_2_0101AFCF:
 BYTE   N10  En1  v127
 BYTE   W12
 BYTE   N23  Bn1  v100
 BYTE   W24
 BYTE   N56  En2
 BYTE   W60
 BYTE   PEND 
// 042   ----------------------------------------
Label_2_0101AFDB:
 BYTE   W36
 BYTE   N23  Bn1  v127
 BYTE   W24
 BYTE   N10  En2
 BYTE   W12
 BYTE   N22  En1
 BYTE   W24
 BYTE   PEND 
// 043   ----------------------------------------
 BYTE   PATT
  POIN2 Label_2_0101AF16
// 044   ----------------------------------------
 BYTE   W36
 BYTE   N23  Fs2  v127
 BYTE   W24
 BYTE   N10  Bn2
 BYTE   W12
 BYTE   N22  Fs1
 BYTE   W24
// 045   ----------------------------------------
 BYTE   PATT
  POIN2 Label_2_0101AF54
// 046   ----------------------------------------
 BYTE   W36
 BYTE   N23  Gn2  v127
 BYTE   W24
 BYTE   N10  Cn3
 BYTE   W12
 BYTE   N22  Gn1
 BYTE   W24
// 047   ----------------------------------------
Label_2_0101B007:
 BYTE   N10  Dn2  v127
 BYTE   W12
 BYTE   N23  An2  v100
 BYTE   W24
 BYTE   N56  Dn3
 BYTE   W60
 BYTE   PEND 
// 048   ----------------------------------------
 BYTE   PATT
  POIN2 Label_2_0101AFDB
// 049   ----------------------------------------
 BYTE   PATT
  POIN2 Label_2_0101AF3C
// 050   ----------------------------------------
 BYTE   W36
 BYTE   N23  Gs2  v127
 BYTE   W24
 BYTE   N10  Cs3
 BYTE   W12
 BYTE   N22  Cs2
 BYTE   W24
// 051   ----------------------------------------
 BYTE   N10  Ds1
 BYTE   W12
 BYTE   N23  As1  v100
 BYTE   W24
 BYTE   N56  Ds2
 BYTE   W60
// 052   ----------------------------------------
 BYTE   W36
 BYTE   N23  As1  v127
 BYTE   W24
 BYTE   N10  Ds2
 BYTE   W12
 BYTE   N22  Ds1
 BYTE   W24
// 053   ----------------------------------------
 BYTE   PATT
  POIN2 Label_2_0101B007
// 054   ----------------------------------------
 BYTE   W36
 BYTE   N23  An2  v127
 BYTE   W24
 BYTE   N10  Dn3
 BYTE   W12
 BYTE   N22  An1
 BYTE   W24
// 055   ----------------------------------------
 BYTE   PATT
  POIN2 Label_2_0101AFCF
// 056   ----------------------------------------
 BYTE   PATT
  POIN2 Label_2_0101AFDB
// 057   ----------------------------------------
Label_2_0101B057:
 BYTE   N10  Fs1  v127
 BYTE   W12
 BYTE   N23  Cs2  v100
 BYTE   W24
 BYTE   N56  Fs2
 BYTE   W60
 BYTE   PEND 
// 058   ----------------------------------------
Label_2_0101B063:
 BYTE   W36
 BYTE   N23  Cs2  v127
 BYTE   W24
 BYTE   N10  Fs2
 BYTE   W12
 BYTE   N22  Fs1
 BYTE   W24
 BYTE   PEND 
// 059   ----------------------------------------
 BYTE   PATT
  POIN2 Label_2_0101B057
// 060   ----------------------------------------
 BYTE   PATT
  POIN2 Label_2_0101B063
// 061   ----------------------------------------
 BYTE   PATT
  POIN2 Label_2_0101AEA3
// 062   ----------------------------------------
 BYTE   PATT
  POIN2 Label_2_0101AEB4
// 063   ----------------------------------------
Label_2_0101B083:
 BYTE   N10  Ds1  v127
 BYTE   W12
 BYTE   N23  Ds2  v100
 BYTE   W24
 BYTE   N56  Gs2
 BYTE   W60
 BYTE   PEND 
// 064   ----------------------------------------
Label_2_0101B08F:
 BYTE   W36
 BYTE   N23  Ds2  v127
 BYTE   W24
 BYTE   N10  Gs2
 BYTE   W12
 BYTE   N22  As1
 BYTE   W24
 BYTE   PEND 
// 065   ----------------------------------------
 BYTE   PATT
  POIN2 Label_2_0101AEA3
// 066   ----------------------------------------
 BYTE   PATT
  POIN2 Label_2_0101AEB4
// 067   ----------------------------------------
 BYTE   PATT
  POIN2 Label_2_0101B083
// 068   ----------------------------------------
 BYTE   PATT
  POIN2 Label_2_0101B08F
// 069   ----------------------------------------
 BYTE   PATT
  POIN2 Label_2_0101AEA3
// 070   ----------------------------------------
 BYTE   PATT
  POIN2 Label_2_0101AEB4
// 071   ----------------------------------------
 BYTE   PATT
  POIN2 Label_2_0101AEC0
// 072   ----------------------------------------
 BYTE   W36
 BYTE   N23  Fs2  v127
 BYTE   W24
 BYTE   N10  Cs3
 BYTE   W12
 BYTE   N22  Cs2
 BYTE   W23
 BYTE   GoTo
  POIN2 Label_2_0101AED8
 BYTE   FINE

//**************** Track 4 (Midi-Chn.3) ****************//

LoZSpiritTracksFullSteamAheadRSflame_004:
// 000   ----------------------------------------
 BYTE   KEYSH   LoZSpiritTracksFullSteamAheadRSflame_key+0
 BYTE   VOICE   24
 BYTE   VOL   45*LoZSpiritTracksFullSteamAheadRSflame_mvl/mxv
 BYTE   PAN   c_v-25
 BYTE   VOL   45*LoZSpiritTracksFullSteamAheadRSflame_mvl/mxv
 BYTE   PAN   c_v-25
 BYTE   N10  Ds3  v104
 BYTE   N10  Fs3  v096
 BYTE   W12
 BYTE   N04  Ds3  v084
 BYTE   N05  Fs3  v076
 BYTE   W06
 BYTE   N10  Fs3  v096
 BYTE   N10  As3  v104
 BYTE   W12
 BYTE   N05  Fs3  v076
 BYTE   W06
 BYTE   N10  Fs3  v096
 BYTE   W06
 BYTE   As3
 BYTE   W06
 BYTE   Ds3  v084
 BYTE   N10  Fs3  v076
 BYTE   W12
 BYTE   Fs3  v096
 BYTE   W06
 BYTE   As3
 BYTE   W06
 BYTE   N04  Ds3  v084
 BYTE   W06
 BYTE   N10  Ds3  v096
 BYTE   N10  Fs3
 BYTE   W12
 BYTE   N05  As3  v104
 BYTE   W06
// 001   ----------------------------------------
Label_3_0101C450:
 BYTE   N10  Ds3  v104
 BYTE   N10  Fs3  v096
 BYTE   W12
 BYTE   N04  Ds3  v084
 BYTE   N05  Fs3  v076
 BYTE   W06
 BYTE   N10  Fs3  v096
 BYTE   N10  As3  v104
 BYTE   W12
 BYTE   N05  Fs3  v076
 BYTE   W06
 BYTE   N10  Fs3  v096
 BYTE   W06
 BYTE   As3
 BYTE   W06
 BYTE   Ds3  v084
 BYTE   N10  Fs3  v076
 BYTE   W12
 BYTE   Fs3  v096
 BYTE   W06
 BYTE   As3
 BYTE   W06
 BYTE   N04  Ds3  v084
 BYTE   W06
 BYTE   N10  Ds3  v096
 BYTE   N10  Fs3
 BYTE   W12
 BYTE   N05  As3  v104
 BYTE   W06
 BYTE   PEND 
// 002   ----------------------------------------
 BYTE   PATT
  POIN2 Label_3_0101C450
// 003   ----------------------------------------
 BYTE   PATT
  POIN2 Label_3_0101C450
// 004   ----------------------------------------
Label_3_0101C493:
 BYTE   N10  Cs3  v104
 BYTE   N10  Fs3  v096
 BYTE   W12
 BYTE   N04  Cs3  v084
 BYTE   N05  Fs3  v076
 BYTE   W06
 BYTE   N10  Fs3  v096
 BYTE   N10  As3  v104
 BYTE   W12
 BYTE   N05  Fs3  v076
 BYTE   W06
 BYTE   N10  Fs3  v096
 BYTE   W06
 BYTE   As3
 BYTE   W06
 BYTE   Cs3  v084
 BYTE   N10  Fs3  v076
 BYTE   W12
 BYTE   Fs3  v096
 BYTE   W06
 BYTE   As3
 BYTE   W06
 BYTE   N04  Cs3  v084
 BYTE   W06
 BYTE   N10  Cs3  v096
 BYTE   N10  Fs3  v104
 BYTE   W12
 BYTE   N05  As3
 BYTE   W06
 BYTE   PEND 
// 005   ----------------------------------------
 BYTE   PATT
  POIN2 Label_3_0101C493
// 006   ----------------------------------------
Label_3_0101C4D1:
// 007   ----------------------------------------
 BYTE   PATT
  POIN2 Label_3_0101C450
// 008   ----------------------------------------
 BYTE   PATT
  POIN2 Label_3_0101C450
// 009   ----------------------------------------
Label_3_0101C4DB:
 BYTE   N10  Cs3  v104
 BYTE   N10  Fn3  v096
 BYTE   W12
 BYTE   N04  Cs3  v084
 BYTE   N05  Fn3  v076
 BYTE   W06
 BYTE   N10  Fn3  v096
 BYTE   N10  As3  v104
 BYTE   W12
 BYTE   N05  Fn3  v076
 BYTE   W06
 BYTE   N10  Fn3  v096
 BYTE   W06
 BYTE   As3
 BYTE   W06
 BYTE   Cs3  v084
 BYTE   N10  Fn3  v076
 BYTE   W12
 BYTE   Fn3  v096
 BYTE   W06
 BYTE   As3
 BYTE   W06
 BYTE   N04  Cs3  v084
 BYTE   W06
 BYTE   N10  Cs3  v096
 BYTE   N10  Fn3  v104
 BYTE   W12
 BYTE   N05  As3  v076
 BYTE   W06
 BYTE   PEND 
// 010   ----------------------------------------
 BYTE   PATT
  POIN2 Label_3_0101C4DB
// 011   ----------------------------------------
 BYTE   PATT
  POIN2 Label_3_0101C450
// 012   ----------------------------------------
 BYTE   PATT
  POIN2 Label_3_0101C450
// 013   ----------------------------------------
 BYTE   PATT
  POIN2 Label_3_0101C493
// 014   ----------------------------------------
 BYTE   PATT
  POIN2 Label_3_0101C493
// 015   ----------------------------------------
 BYTE   PATT
  POIN2 Label_3_0101C450
// 016   ----------------------------------------
 BYTE   PATT
  POIN2 Label_3_0101C450
// 017   ----------------------------------------
 BYTE   N10  Bn2  v104
 BYTE   N10  Ds3  v096
 BYTE   W12
 BYTE   N04  Bn2  v084
 BYTE   N05  Ds3  v076
 BYTE   W06
 BYTE   N10  Ds3  v096
 BYTE   N10  Fs3  v104
 BYTE   W12
 BYTE   N05  Ds3  v076
 BYTE   W06
 BYTE   N10  Ds3  v096
 BYTE   W06
 BYTE   Fs3
 BYTE   W06
 BYTE   Bn2  v084
 BYTE   N10  Ds3  v076
 BYTE   W12
 BYTE   Ds3  v096
 BYTE   W06
 BYTE   Fs3
 BYTE   W06
 BYTE   N04  Bn2  v084
 BYTE   W06
 BYTE   N10  Bn2  v096
 BYTE   N10  Ds3  v104
 BYTE   W12
 BYTE   N05  Fs3  v076
 BYTE   W06
// 018   ----------------------------------------
 BYTE   PATT
  POIN2 Label_3_0101C493
// 019   ----------------------------------------
 BYTE   N10  Dn3  v104
 BYTE   N10  Fn3  v096
 BYTE   W12
 BYTE   N04  Dn3  v084
 BYTE   N05  Fn3  v076
 BYTE   W06
 BYTE   N10  Fn3  v096
 BYTE   N10  As3  v104
 BYTE   W12
 BYTE   N05  Fn3  v076
 BYTE   W06
 BYTE   N10  Fn3  v096
 BYTE   W06
 BYTE   As3
 BYTE   W06
 BYTE   Dn3  v084
 BYTE   N10  Fn3  v076
 BYTE   W12
 BYTE   Fn3  v096
 BYTE   W06
 BYTE   As3
 BYTE   W06
 BYTE   N04  Dn3  v084
 BYTE   W06
 BYTE   N10  Dn3  v096
 BYTE   N10  Fn3  v104
 BYTE   W12
 BYTE   N05  As3  v076
 BYTE   W06
// 020   ----------------------------------------
 BYTE   PATT
  POIN2 Label_3_0101C450
// 021   ----------------------------------------
Label_3_0101C5B4:
 BYTE   N10  Cn3  v104
 BYTE   N10  Fn3  v096
 BYTE   W12
 BYTE   N04  Cn3  v084
 BYTE   N05  Fn3  v076
 BYTE   W06
 BYTE   N10  Fn3  v096
 BYTE   N10  Gs3  v104
 BYTE   W12
 BYTE   N05  Fn3  v076
 BYTE   W06
 BYTE   N10  Fn3  v096
 BYTE   W06
 BYTE   Gs3
 BYTE   W06
 BYTE   Cn3  v084
 BYTE   N10  Fn3  v076
 BYTE   W12
 BYTE   Fn3  v096
 BYTE   W06
 BYTE   Gs3
 BYTE   W06
 BYTE   N04  Cn3  v084
 BYTE   W06
 BYTE   N10  Cn3  v096
 BYTE   N10  Fn3  v104
 BYTE   W12
 BYTE   N05  Gs3  v076
 BYTE   W06
 BYTE   PEND 
// 022   ----------------------------------------
 BYTE   N10  Cn3  v104
 BYTE   N10  Ds3  v096
 BYTE   W12
 BYTE   N04  Cn3  v084
 BYTE   N05  Ds3  v076
 BYTE   W06
 BYTE   N10  Ds3  v096
 BYTE   N10  Gs3  v104
 BYTE   W12
 BYTE   N05  Ds3  v076
 BYTE   W06
 BYTE   N10  Ds3  v096
 BYTE   W06
 BYTE   Gs3
 BYTE   W06
 BYTE   Cn3  v084
 BYTE   N10  Ds3  v076
 BYTE   W12
 BYTE   Ds3  v096
 BYTE   W06
 BYTE   Gs3
 BYTE   W06
 BYTE   N04  Cn3  v084
 BYTE   W06
 BYTE   N10  Cn3  v096
 BYTE   N10  Ds3  v104
 BYTE   W12
 BYTE   N05  Gs3  v076
 BYTE   W06
// 023   ----------------------------------------
 BYTE   PATT
  POIN2 Label_3_0101C5B4
// 024   ----------------------------------------
 BYTE   N10  Cn3  v104
 BYTE   N10  En3  v096
 BYTE   W12
 BYTE   N04  Cn3  v084
 BYTE   N05  En3  v076
 BYTE   W06
 BYTE   N10  En3  v096
 BYTE   N10  As3  v104
 BYTE   W12
 BYTE   N05  En3  v076
 BYTE   W06
 BYTE   N10  En3  v096
 BYTE   W06
 BYTE   As3
 BYTE   W06
 BYTE   Cn3  v084
 BYTE   N10  En3  v076
 BYTE   W12
 BYTE   En3  v096
 BYTE   W06
 BYTE   As3
 BYTE   W06
 BYTE   N04  Cn3  v084
 BYTE   W06
 BYTE   N10  Cn3  v096
 BYTE   N10  En3  v104
 BYTE   W12
 BYTE   N05  As3  v076
 BYTE   W06
// 025   ----------------------------------------
Label_3_0101C665:
 BYTE   N10  Cs3  v104
 BYTE   N10  Fn3  v096
 BYTE   W12
 BYTE   N04  Cs3  v084
 BYTE   N05  Fn3  v076
 BYTE   W06
 BYTE   Fn3  v096
 BYTE   N10  Cn4  v104
 BYTE   W12
 BYTE   N05  Fn3  v076
 BYTE   W06
 BYTE   N10  Fn3  v096
 BYTE   N10  Cn4
 BYTE   W12
 BYTE   Cs3  v104
 BYTE   N10  Fn3  v096
 BYTE   W12
 BYTE   N04  Cs3  v084
 BYTE   N05  Fn3  v076
 BYTE   W06
 BYTE   Fn3  v096
 BYTE   N10  Cn4  v104
 BYTE   W12
 BYTE   N05  Fn3  v076
 BYTE   W06
 BYTE   N10  Fn3  v096
 BYTE   N10  Cn4
 BYTE   W12
 BYTE   PEND 
// 026   ----------------------------------------
Label_3_0101C6A1:
 BYTE   N10  Cn3  v104
 BYTE   N10  Ds3  v096
 BYTE   W12
 BYTE   N04  Cn3  v084
 BYTE   N05  Ds3  v076
 BYTE   W06
 BYTE   Ds3  v096
 BYTE   N10  Gs3  v104
 BYTE   W12
 BYTE   N05  Ds3  v076
 BYTE   W06
 BYTE   N10  Ds3  v096
 BYTE   N10  Gs3
 BYTE   W12
 BYTE   Cn3  v104
 BYTE   N10  Ds3  v096
 BYTE   W12
 BYTE   N04  Cn3  v084
 BYTE   N05  Ds3  v076
 BYTE   W06
 BYTE   Ds3  v096
 BYTE   N10  Gs3  v104
 BYTE   W12
 BYTE   N05  Ds3  v076
 BYTE   W06
 BYTE   N10  Ds3  v096
 BYTE   N10  Gs3
 BYTE   W12
 BYTE   PEND 
// 027   ----------------------------------------
 BYTE   Cs3  v104
 BYTE   N10  Gn3  v096
 BYTE   W12
 BYTE   N04  Cs3  v084
 BYTE   N05  Gn3  v076
 BYTE   W06
 BYTE   Gn3  v096
 BYTE   N10  As3  v104
 BYTE   W12
 BYTE   N05  Gn3  v076
 BYTE   W06
 BYTE   N10  Gn3  v096
 BYTE   N10  As3
 BYTE   W12
 BYTE   Cs3  v104
 BYTE   N10  Gn3  v096
 BYTE   W12
 BYTE   N04  Cs3  v084
 BYTE   N05  Gn3  v076
 BYTE   W06
 BYTE   Gn3  v096
 BYTE   N10  As3  v104
 BYTE   W12
 BYTE   N05  Gn3  v076
 BYTE   W06
 BYTE   N10  Gn3  v096
 BYTE   N10  As3
 BYTE   W12
// 028   ----------------------------------------
 BYTE   Ds3  v104
 BYTE   N10  Gs3  v096
 BYTE   W12
 BYTE   N04  Ds3  v084
 BYTE   N05  Gs3  v076
 BYTE   W06
 BYTE   Gs3  v104
 BYTE   N10  Cn4  v116
 BYTE   W12
 BYTE   N05  Gs3  v076
 BYTE   W06
 BYTE   N10  Gs3  v096
 BYTE   N10  Cn4
 BYTE   W12
 BYTE   Ds3  v104
 BYTE   N10  Gs3  v096
 BYTE   W12
 BYTE   N04  Ds3  v084
 BYTE   N05  Gs3  v076
 BYTE   W06
 BYTE   Gs3  v104
 BYTE   N10  Cn4  v116
 BYTE   W12
 BYTE   N05  Gs3  v076
 BYTE   W06
 BYTE   N10  Gs3  v096
 BYTE   N10  Cn4
 BYTE   W12
// 029   ----------------------------------------
 BYTE   PATT
  POIN2 Label_3_0101C665
// 030   ----------------------------------------
 BYTE   PATT
  POIN2 Label_3_0101C6A1
// 031   ----------------------------------------
 BYTE   PATT
  POIN2 Label_3_0101C493
// 032   ----------------------------------------
 BYTE   N10  Ds3  v104
 BYTE   N10  Gs3  v096
 BYTE   W12
 BYTE   N04  Ds3  v084
 BYTE   N05  Gs3  v076
 BYTE   W06
 BYTE   N10  Gs3  v096
 BYTE   N10  Cn4  v104
 BYTE   W12
 BYTE   N05  Gs3  v076
 BYTE   W06
 BYTE   N10  Gs3  v096
 BYTE   W06
 BYTE   Cn4
 BYTE   W06
 BYTE   Ds3  v084
 BYTE   N10  Gs3  v076
 BYTE   W12
 BYTE   Gs3  v096
 BYTE   W06
 BYTE   Cn4
 BYTE   W06
 BYTE   N04  Ds3  v084
 BYTE   W06
 BYTE   N10  Ds3  v096
 BYTE   N10  Gs3  v104
 BYTE   W12
 BYTE   N05  Cn4
 BYTE   W06
// 033   ----------------------------------------
Label_3_0101C798:
 BYTE   N10  Ds3  v104
 BYTE   N10  Fn3  v096
 BYTE   W12
 BYTE   N04  Ds3  v084
 BYTE   N05  Fn3  v076
 BYTE   W06
 BYTE   N04  Fn3  v096
 BYTE   N10  As3  v104
 BYTE   W12
 BYTE   N05  Fn3  v076
 BYTE   W06
 BYTE   N10  Fn3  v096
 BYTE   N10  As3
 BYTE   W12
 BYTE   Ds3  v104
 BYTE   N10  Fn3  v096
 BYTE   W12
 BYTE   N04  Ds3  v084
 BYTE   N05  Fn3  v076
 BYTE   W06
 BYTE   N04  Fn3  v096
 BYTE   N10  As3  v104
 BYTE   W12
 BYTE   N05  Fn3  v076
 BYTE   W06
 BYTE   N10  Fn3  v096
 BYTE   N10  As3
 BYTE   W12
 BYTE   PEND 
// 034   ----------------------------------------
Label_3_0101C7D6:
 BYTE   N10  Dn3  v104
 BYTE   N10  Fn3  v096
 BYTE   W12
 BYTE   N04  Dn3  v084
 BYTE   N05  Fn3  v076
 BYTE   W06
 BYTE   N04  Fn3  v096
 BYTE   N10  As3  v104
 BYTE   W12
 BYTE   N05  Fn3  v076
 BYTE   W06
 BYTE   N10  Fn3  v096
 BYTE   N10  As3
 BYTE   W12
 BYTE   Dn3  v104
 BYTE   N10  Fn3  v096
 BYTE   W12
 BYTE   N04  Dn3  v084
 BYTE   N05  Fn3  v076
 BYTE   W06
 BYTE   N04  Fn3  v096
 BYTE   N10  As3  v104
 BYTE   W12
 BYTE   N05  Fn3  v076
 BYTE   W06
 BYTE   N10  Fn3  v096
 BYTE   N10  As3
 BYTE   W12
 BYTE   PEND 
// 035   ----------------------------------------
Label_3_0101C814:
 BYTE   N10  Cn3  v104
 BYTE   N10  Fn3  v096
 BYTE   W12
 BYTE   N04  Cn3  v084
 BYTE   N05  Fn3  v076
 BYTE   W06
 BYTE   N04  Fn3  v096
 BYTE   N10  As3  v104
 BYTE   W12
 BYTE   N05  Fn3  v076
 BYTE   W06
 BYTE   N10  Fn3  v096
 BYTE   N10  As3
 BYTE   W12
 BYTE   Cn3  v104
 BYTE   N10  Fn3  v096
 BYTE   W12
 BYTE   N04  Cn3  v084
 BYTE   N05  Fn3  v076
 BYTE   W06
 BYTE   N04  Fn3  v096
 BYTE   N10  As3  v104
 BYTE   W12
 BYTE   N05  Fn3  v076
 BYTE   W06
 BYTE   N10  Fn3  v096
 BYTE   N10  As3
 BYTE   W12
 BYTE   PEND 
// 036   ----------------------------------------
 BYTE   PATT
  POIN2 Label_3_0101C7D6
// 037   ----------------------------------------
 BYTE   PATT
  POIN2 Label_3_0101C798
// 038   ----------------------------------------
 BYTE   PATT
  POIN2 Label_3_0101C7D6
// 039   ----------------------------------------
 BYTE   PATT
  POIN2 Label_3_0101C814
// 040   ----------------------------------------
 BYTE   N10  Dn3  v104
 BYTE   N10  Fn3  v096
 BYTE   W12
 BYTE   N04  Dn3  v084
 BYTE   N05  Fn3  v076
 BYTE   W06
 BYTE   N04  Fn3  v096
 BYTE   N10  As3  v104
 BYTE   W12
 BYTE   N05  Fn3  v076
 BYTE   W06
 BYTE   N10  Fn3  v096
 BYTE   N10  As3
 BYTE   W12
 BYTE   Dn3  v104
 BYTE   N10  Fn3  v096
 BYTE   W12
 BYTE   N04  Dn3  v084
 BYTE   N05  Fn3  v076
 BYTE   W06
 BYTE   N04  Fn3  v096
 BYTE   N10  As3  v104
 BYTE   W30
// 041   ----------------------------------------
 BYTE   W24
 BYTE   N11  Gn2
 BYTE   W12
 BYTE   Bn2
 BYTE   W36
 BYTE   Dn3
 BYTE   W12
 BYTE   Bn2
 BYTE   W12
// 042   ----------------------------------------
 BYTE   W24
 BYTE   Gn2
 BYTE   W12
 BYTE   Bn2
 BYTE   W12
 BYTE   Gn3
 BYTE   W16
 BYTE   Dn3
 BYTE   W16
 BYTE   Bn2
 BYTE   W16
// 043   ----------------------------------------
 BYTE   W24
 BYTE   Fs2
 BYTE   W12
 BYTE   Bn2
 BYTE   W36
 BYTE   Fs2
 BYTE   W12
 BYTE   Bn2
 BYTE   W12
// 044   ----------------------------------------
 BYTE   W24
 BYTE   Fs2
 BYTE   W24
 BYTE   An3
 BYTE   W16
 BYTE   Fs3
 BYTE   W16
 BYTE   Dn3
 BYTE   W16
// 045   ----------------------------------------
 BYTE   W24
 BYTE   Gn2
 BYTE   W12
 BYTE   En3
 BYTE   W36
 BYTE   Gn2
 BYTE   W12
 BYTE   En3
 BYTE   W12
// 046   ----------------------------------------
 BYTE   W24
 BYTE   Gn2
 BYTE   W12
 BYTE   En3
 BYTE   W12
 BYTE   Gn3
 BYTE   W16
 BYTE   En3
 BYTE   W16
 BYTE   Cn3
 BYTE   W16
// 047   ----------------------------------------
 BYTE   W24
 BYTE   An2
 BYTE   W12
 BYTE   Fs3
 BYTE   W36
 BYTE   Dn3
 BYTE   W12
 BYTE   Fs3
 BYTE   W12
// 048   ----------------------------------------
 BYTE   Bn3
 BYTE   W12
 BYTE   An3
 BYTE   W24
 BYTE   Bn2
 BYTE   W24
 BYTE   Bn3
 BYTE   W12
 BYTE   Gs3
 BYTE   W12
 BYTE   En3
 BYTE   W12
// 049   ----------------------------------------
 BYTE   W24
 BYTE   Bn2
 BYTE   W12
 BYTE   En3
 BYTE   W36
 BYTE   Bn2
 BYTE   W12
 BYTE   En3
 BYTE   W12
// 050   ----------------------------------------
 BYTE   W24
 BYTE   N11
 BYTE   W12
 BYTE   Bn2
 BYTE   W12
 BYTE   Gs3
 BYTE   W16
 BYTE   Bn2
 BYTE   W16
 BYTE   En3
 BYTE   W16
// 051   ----------------------------------------
 BYTE   W24
 BYTE   Fs2
 BYTE   W12
 BYTE   Cs3
 BYTE   W36
 BYTE   N11
 BYTE   W12
 BYTE   Fs2
 BYTE   W12
// 052   ----------------------------------------
 BYTE   W24
 BYTE   Cs3
 BYTE   W12
 BYTE   Fs2
 BYTE   W12
 BYTE   As3
 BYTE   W16
 BYTE   Cs3
 BYTE   W16
 BYTE   Fs3
 BYTE   W16
// 053   ----------------------------------------
 BYTE   W24
 BYTE   Cs3
 BYTE   W12
 BYTE   Fs3
 BYTE   W36
 BYTE   Cs3
 BYTE   W12
 BYTE   Fs3
 BYTE   W12
// 054   ----------------------------------------
 BYTE   W24
 BYTE   Cs3
 BYTE   W12
 BYTE   Fs3
 BYTE   W12
 BYTE   Cs4
 BYTE   W16
 BYTE   An3
 BYTE   W16
 BYTE   Fs3
 BYTE   W16
// 055   ----------------------------------------
 BYTE   W24
 BYTE   Bn2
 BYTE   W12
 BYTE   Gs3
 BYTE   W36
 BYTE   Bn2
 BYTE   W12
 BYTE   Gs3
 BYTE   W12
// 056   ----------------------------------------
 BYTE   W24
 BYTE   Bn2
 BYTE   W12
 BYTE   Gs3
 BYTE   W12
 BYTE   Bn3
 BYTE   W12
 BYTE   Gs3
 BYTE   W12
 BYTE   En3
 BYTE   W12
 BYTE   Bn2
 BYTE   W12
// 057   ----------------------------------------
 BYTE   Bn3
 BYTE   W12
 BYTE   Fs3
 BYTE   W12
 BYTE   Cs3
 BYTE   W40
 BYTE   Fs3
 BYTE   W16
 BYTE   Cs3
 BYTE   W16
// 058   ----------------------------------------
 BYTE   As3
 BYTE   W12
 BYTE   Fs3
 BYTE   W12
 BYTE   Cs3
 BYTE   W36
 BYTE   Fs3
 BYTE   W12
 BYTE   Cs3
 BYTE   W12
 BYTE   Fs3
 BYTE   W12
// 059   ----------------------------------------
 BYTE   Gs3
 BYTE   W12
 BYTE   Fs3
 BYTE   W12
 BYTE   Cs3
 BYTE   W12
 BYTE   Fs2
 BYTE   W28
 BYTE   Gs3
 BYTE   W16
 BYTE   Fs3
 BYTE   W16
// 060   ----------------------------------------
 BYTE   As3
 BYTE   W12
 BYTE   Fs3
 BYTE   W12
 BYTE   Cs3
 BYTE   W72
// 061   ----------------------------------------
 BYTE   PATT
  POIN2 Label_3_0101C450
// 062   ----------------------------------------
 BYTE   PATT
  POIN2 Label_3_0101C450
// 063   ----------------------------------------
Label_3_0101C96D:
 BYTE   N10  Ds3  v104
 BYTE   N10  Gs3  v096
 BYTE   W12
 BYTE   N04  Ds3  v084
 BYTE   N05  Gs3  v076
 BYTE   W06
 BYTE   N10  Gs3  v096
 BYTE   N10  Cn4  v104
 BYTE   W12
 BYTE   N05  Gs3  v076
 BYTE   W06
 BYTE   N10  Gs3  v096
 BYTE   W06
 BYTE   Cn4
 BYTE   W06
 BYTE   Ds3  v084
 BYTE   N10  Gs3  v076
 BYTE   W12
 BYTE   Gs3  v096
 BYTE   W06
 BYTE   Cn4
 BYTE   W06
 BYTE   N04  Ds3  v084
 BYTE   W06
 BYTE   N10  Ds3  v096
 BYTE   N10  Gs3
 BYTE   W12
 BYTE   N05  Cn4  v104
 BYTE   W06
 BYTE   PEND 
// 064   ----------------------------------------
Label_3_0101C9A6:
 BYTE   N10  Ds3  v104
 BYTE   N10  Gs3  v096
 BYTE   W12
 BYTE   N04  Ds3  v084
 BYTE   N05  Gs3  v076
 BYTE   W06
 BYTE   N10  Gs3  v096
 BYTE   N10  Cs4  v104
 BYTE   W12
 BYTE   N05  Gs3  v076
 BYTE   W06
 BYTE   N10  Gs3  v096
 BYTE   W06
 BYTE   Cn4
 BYTE   W06
 BYTE   Ds3  v084
 BYTE   N10  Gs3  v076
 BYTE   W12
 BYTE   Gs3  v096
 BYTE   W06
 BYTE   Cn4
 BYTE   W06
 BYTE   N04  Ds3  v084
 BYTE   W06
 BYTE   N10  Ds3  v096
 BYTE   N10  Gs3
 BYTE   W12
 BYTE   N05  Cn4  v104
 BYTE   W06
 BYTE   PEND 
// 065   ----------------------------------------
 BYTE   PATT
  POIN2 Label_3_0101C450
// 066   ----------------------------------------
 BYTE   PATT
  POIN2 Label_3_0101C450
// 067   ----------------------------------------
 BYTE   PATT
  POIN2 Label_3_0101C96D
// 068   ----------------------------------------
 BYTE   PATT
  POIN2 Label_3_0101C9A6
// 069   ----------------------------------------
 BYTE   PATT
  POIN2 Label_3_0101C450
// 070   ----------------------------------------
 BYTE   PATT
  POIN2 Label_3_0101C450
// 071   ----------------------------------------
 BYTE   PATT
  POIN2 Label_3_0101C493
// 072   ----------------------------------------
 BYTE   N10  Cs3  v104
 BYTE   N10  Fs3  v096
 BYTE   W12
 BYTE   N04  Cs3  v084
 BYTE   N05  Fs3  v076
 BYTE   W06
 BYTE   N10  Fs3  v096
 BYTE   N10  As3  v104
 BYTE   W12
 BYTE   N05  Fs3  v076
 BYTE   W06
 BYTE   N10  Fs3  v096
 BYTE   W06
 BYTE   As3
 BYTE   W06
 BYTE   Cs3  v084
 BYTE   N10  Fs3  v076
 BYTE   W12
 BYTE   Fs3  v096
 BYTE   W06
 BYTE   As3
 BYTE   W06
 BYTE   N04  Cs3  v084
 BYTE   W06
 BYTE   N10  Cs3  v096
 BYTE   N10  Fs3  v104
 BYTE   W12
 BYTE   N05  As3
 BYTE   W05
 BYTE   GoTo
  POIN2 Label_3_0101C4D1
 BYTE   FINE

//**************** Track 5 (Midi-Chn.4) ****************//

LoZSpiritTracksFullSteamAheadRSflame_005:
// 000   ----------------------------------------
 BYTE   KEYSH   LoZSpiritTracksFullSteamAheadRSflame_key+0
 BYTE   VOICE   8
 BYTE   VOL   50*LoZSpiritTracksFullSteamAheadRSflame_mvl/mxv
 BYTE   PAN   c_v+40
 BYTE   N92  Cn3  v100
 BYTE   W96
// 001   ----------------------------------------
 BYTE   W96
// 002   ----------------------------------------
 BYTE   W96
// 003   ----------------------------------------
 BYTE   W96
// 004   ----------------------------------------
 BYTE   W96
// 005   ----------------------------------------
 BYTE   W96
// 006   ----------------------------------------
Label_4_0101BD5D:
 BYTE   W96
// 007   ----------------------------------------
 BYTE   W96
// 008   ----------------------------------------
 BYTE   W96
// 009   ----------------------------------------
 BYTE   W96
// 010   ----------------------------------------
 BYTE   W96
// 011   ----------------------------------------
 BYTE   W96
// 012   ----------------------------------------
 BYTE   W96
// 013   ----------------------------------------
 BYTE   W96
// 014   ----------------------------------------
 BYTE   W96
// 015   ----------------------------------------
 BYTE   W96
// 016   ----------------------------------------
 BYTE   W96
// 017   ----------------------------------------
 BYTE   W96
// 018   ----------------------------------------
 BYTE   W96
// 019   ----------------------------------------
 BYTE   W96
// 020   ----------------------------------------
 BYTE   W96
// 021   ----------------------------------------
 BYTE   W96
// 022   ----------------------------------------
 BYTE   W96
// 023   ----------------------------------------
 BYTE   W96
// 024   ----------------------------------------
 BYTE   W96
// 025   ----------------------------------------
 BYTE   W96
// 026   ----------------------------------------
 BYTE   W96
// 027   ----------------------------------------
 BYTE   W96
// 028   ----------------------------------------
 BYTE   W96
// 029   ----------------------------------------
 BYTE   W96
// 030   ----------------------------------------
 BYTE   W96
// 031   ----------------------------------------
 BYTE   W96
// 032   ----------------------------------------
 BYTE   W96
// 033   ----------------------------------------
 BYTE   W96
// 034   ----------------------------------------
 BYTE   W96
// 035   ----------------------------------------
 BYTE   W96
// 036   ----------------------------------------
 BYTE   W96
// 037   ----------------------------------------
 BYTE   W96
// 038   ----------------------------------------
 BYTE   W96
// 039   ----------------------------------------
 BYTE   W96
// 040   ----------------------------------------
 BYTE   W96
// 041   ----------------------------------------
 BYTE   W96
// 042   ----------------------------------------
 BYTE   W96
// 043   ----------------------------------------
 BYTE   W96
// 044   ----------------------------------------
 BYTE   W96
// 045   ----------------------------------------
 BYTE   W96
// 046   ----------------------------------------
 BYTE   W96
// 047   ----------------------------------------
 BYTE   W96
// 048   ----------------------------------------
 BYTE   W96
// 049   ----------------------------------------
 BYTE   W96
// 050   ----------------------------------------
 BYTE   W96
// 051   ----------------------------------------
 BYTE   W96
// 052   ----------------------------------------
 BYTE   W96
// 053   ----------------------------------------
 BYTE   W96
// 054   ----------------------------------------
 BYTE   W96
// 055   ----------------------------------------
 BYTE   W96
// 056   ----------------------------------------
 BYTE   W96
// 057   ----------------------------------------
 BYTE   W96
// 058   ----------------------------------------
 BYTE   W96
// 059   ----------------------------------------
 BYTE   W96
// 060   ----------------------------------------
 BYTE   W96
// 061   ----------------------------------------
 BYTE   W96
// 062   ----------------------------------------
 BYTE   W96
// 063   ----------------------------------------
 BYTE   W96
// 064   ----------------------------------------
 BYTE   W96
// 065   ----------------------------------------
 BYTE   W96
// 066   ----------------------------------------
 BYTE   W96
// 067   ----------------------------------------
 BYTE   W96
// 068   ----------------------------------------
 BYTE   W96
// 069   ----------------------------------------
 BYTE   W96
// 070   ----------------------------------------
 BYTE   W96
// 071   ----------------------------------------
 BYTE   W92
 BYTE   W03
 BYTE   GoTo
  POIN2 Label_4_0101BD5D
 BYTE   FINE

//**************** Track 6 (Midi-Chn.5) ****************//

LoZSpiritTracksFullSteamAheadRSflame_006:
// 000   ----------------------------------------
 BYTE   KEYSH   LoZSpiritTracksFullSteamAheadRSflame_key+0
 BYTE   VOICE   48
 BYTE   VOL   26*LoZSpiritTracksFullSteamAheadRSflame_mvl/mxv
 BYTE   PAN   c_v-20
 BYTE   VOL   26*LoZSpiritTracksFullSteamAheadRSflame_mvl/mxv
 BYTE   PAN   c_v-20
 BYTE   N10  Ds4  v116
 BYTE   N10  Ds5
 BYTE   W96
// 001   ----------------------------------------
 BYTE   W96
// 002   ----------------------------------------
 BYTE   W96
// 003   ----------------------------------------
 BYTE   W96
// 004   ----------------------------------------
 BYTE   W96
// 005   ----------------------------------------
 BYTE   W96
// 006   ----------------------------------------
Label_5_0101C18F:
 BYTE   W96
// 007   ----------------------------------------
 BYTE   W72
 BYTE   W24
// 008   ----------------------------------------
 BYTE   W96
// 009   ----------------------------------------
 BYTE   W96
// 010   ----------------------------------------
 BYTE   W96
// 011   ----------------------------------------
 BYTE   W96
// 012   ----------------------------------------
 BYTE   W96
// 013   ----------------------------------------
 BYTE   W96
// 014   ----------------------------------------
 BYTE   W96
// 015   ----------------------------------------
 BYTE   W96
// 016   ----------------------------------------
 BYTE   W96
// 017   ----------------------------------------
 BYTE   W96
// 018   ----------------------------------------
 BYTE   W96
// 019   ----------------------------------------
 BYTE   W96
// 020   ----------------------------------------
 BYTE   W96
// 021   ----------------------------------------
 BYTE   W96
// 022   ----------------------------------------
 BYTE   W96
// 023   ----------------------------------------
 BYTE   W24
 BYTE   N23  Gn3  v108
 BYTE   W24
 BYTE   Cn4
 BYTE   W24
 BYTE   Gn4
 BYTE   W24
// 024   ----------------------------------------
Label_5_0101C1AA:
 BYTE   N60  Cn4  v108
 BYTE   W64
 BYTE   N15  As3
 BYTE   W16
 BYTE   Gs3
 BYTE   W16
 BYTE   PEND 
// 025   ----------------------------------------
 BYTE   N44  Cn4
 BYTE   W48
 BYTE   N23  Ds3
 BYTE   W24
 BYTE   Gn3
 BYTE   W24
// 026   ----------------------------------------
 BYTE   N60  As3
 BYTE   W64
 BYTE   N15  Ds3
 BYTE   W16
 BYTE   Gn3
 BYTE   W16
// 027   ----------------------------------------
 BYTE   N92  Gs3
 BYTE   W96
// 028   ----------------------------------------
 BYTE   PATT
  POIN2 Label_5_0101C1AA
// 029   ----------------------------------------
 BYTE   N44  Cn4  v108
 BYTE   W48
 BYTE   N22  Ds3
 BYTE   W24
 BYTE   Gn3
 BYTE   W24
// 030   ----------------------------------------
 BYTE   N92  Cs4
 BYTE   W96
// 031   ----------------------------------------
 BYTE   N44  Cn4
 BYTE   W48
 BYTE   N15  As4
 BYTE   W16
 BYTE   Gs4
 BYTE   W16
 BYTE   Fs4
 BYTE   W16
// 032   ----------------------------------------
 BYTE   TIE  Fn4
 BYTE   W07
 BYTE   W11
 BYTE   W12
 BYTE   W08
 BYTE   W07
 BYTE   W08
 BYTE   W08
 BYTE   W07
 BYTE   W08
 BYTE   W04
 BYTE   W08
 BYTE   W03
 BYTE   W05
// 033   ----------------------------------------
 BYTE   W03
 BYTE   W04
 BYTE   W04
 BYTE   W08
 BYTE   W03
 BYTE   W04
 BYTE   W04
 BYTE   W04
 BYTE   W04
 BYTE   W04
 BYTE   W04
 BYTE   W03
 BYTE   W04
 BYTE   W04
 BYTE   W04
 BYTE   W04
 BYTE   W04
 BYTE   W04
 BYTE   W03
 BYTE   W04
 BYTE   W04
 BYTE   W04
 BYTE   W04
 BYTE   W03
 BYTE   EOT
 BYTE   W01
// 034   ----------------------------------------
 BYTE   W04
 BYTE   W92
// 035   ----------------------------------------
 BYTE   W96
// 036   ----------------------------------------
 BYTE   TIE  As3  v100
 BYTE   W03
 BYTE   W03
 BYTE   W03
 BYTE   W03
 BYTE   W03
 BYTE   W03
 BYTE   W03
 BYTE   W03
 BYTE   W03
 BYTE   W03
 BYTE   W03
 BYTE   W03
 BYTE   W03
 BYTE   W03
 BYTE   W03
 BYTE   W03
 BYTE   W03
 BYTE   W03
 BYTE   W03
 BYTE   W03
 BYTE   W03
 BYTE   W03
 BYTE   W03
 BYTE   W03
 BYTE   W03
 BYTE   W03
 BYTE   W03
 BYTE   W03
 BYTE   W03
 BYTE   W03
 BYTE   W03
 BYTE   W03
// 037   ----------------------------------------
 BYTE   W03
 BYTE   W03
 BYTE   W03
 BYTE   W03
 BYTE   W03
 BYTE   W03
 BYTE   W03
 BYTE   W03
 BYTE   W03
 BYTE   W03
 BYTE   W03
 BYTE   W03
 BYTE   W03
 BYTE   W03
 BYTE   W03
 BYTE   W02
 BYTE   W48
 BYTE   EOT
 BYTE   W01
// 038   ----------------------------------------
 BYTE   TIE  Fn4
 BYTE   W48
 BYTE   W03
 BYTE   W03
 BYTE   W03
 BYTE   W03
 BYTE   W03
 BYTE   W03
 BYTE   W03
 BYTE   W03
 BYTE   W03
 BYTE   W03
 BYTE   W03
 BYTE   W03
 BYTE   W03
 BYTE   W03
 BYTE   W03
 BYTE   W03
// 039   ----------------------------------------
 BYTE   W03
 BYTE   W03
 BYTE   W03
 BYTE   W03
 BYTE   W03
 BYTE   W03
 BYTE   W03
 BYTE   W03
 BYTE   W03
 BYTE   W03
 BYTE   W03
 BYTE   W03
 BYTE   W03
 BYTE   W03
 BYTE   W03
 BYTE   W03
 BYTE   W03
 BYTE   W03
 BYTE   W03
 BYTE   W03
 BYTE   W03
 BYTE   W03
 BYTE   W03
 BYTE   W03
 BYTE   W03
 BYTE   W03
 BYTE   W03
 BYTE   W03
 BYTE   W03
 BYTE   W03
 BYTE   W05
 BYTE   EOT
 BYTE   W01
// 040   ----------------------------------------
 BYTE   N60  Dn4  v120
 BYTE   W06
 BYTE   W03
 BYTE   W03
 BYTE   W03
 BYTE   W03
 BYTE   W03
 BYTE   W03
 BYTE   W03
 BYTE   W03
 BYTE   W03
 BYTE   W03
 BYTE   W03
 BYTE   W03
 BYTE   W03
 BYTE   W03
 BYTE   W16
 BYTE   N15  Gn3
 BYTE   W16
 BYTE   An3
 BYTE   W16
// 041   ----------------------------------------
 BYTE   N68  Dn4
 BYTE   W07
 BYTE   W03
 BYTE   W03
 BYTE   W03
 BYTE   W03
 BYTE   W03
 BYTE   W03
 BYTE   W03
 BYTE   W03
 BYTE   W03
 BYTE   W03
 BYTE   W03
 BYTE   W03
 BYTE   W03
 BYTE   W03
 BYTE   W03
 BYTE   W03
 BYTE   W03
 BYTE   W03
 BYTE   W02
 BYTE   W09
 BYTE   N23  Bn3
 BYTE   W01
 BYTE   W02
 BYTE   W01
 BYTE   W02
 BYTE   W01
 BYTE   W02
 BYTE   W01
 BYTE   W02
 BYTE   W01
 BYTE   W02
 BYTE   W01
 BYTE   W02
 BYTE   W01
 BYTE   W02
 BYTE   W01
 BYTE   W02
// 042   ----------------------------------------
 BYTE   N60  Dn4
 BYTE   W03
 BYTE   W03
 BYTE   W03
 BYTE   W03
 BYTE   W52
 BYTE   N15  En4
 BYTE   W16
 BYTE   Fs4
 BYTE   W16
// 043   ----------------------------------------
 BYTE   N88  Dn4
 BYTE   W24
 BYTE   W01
 BYTE   W03
 BYTE   W03
 BYTE   W03
 BYTE   W03
 BYTE   W03
 BYTE   W03
 BYTE   W03
 BYTE   W03
 BYTE   W03
 BYTE   W03
 BYTE   W03
 BYTE   W03
 BYTE   W03
 BYTE   W03
 BYTE   W03
 BYTE   W03
 BYTE   W03
 BYTE   W03
 BYTE   W03
 BYTE   W03
 BYTE   W03
 BYTE   W01
 BYTE   W06
 BYTE   W01
// 044   ----------------------------------------
 BYTE   N60
 BYTE   W02
 BYTE   W03
 BYTE   W03
 BYTE   W03
 BYTE   W03
 BYTE   W03
 BYTE   W03
 BYTE   W03
 BYTE   W03
 BYTE   W03
 BYTE   W03
 BYTE   W03
 BYTE   W03
 BYTE   W03
 BYTE   W03
 BYTE   W03
 BYTE   W01
 BYTE   W16
 BYTE   N15  Gn3
 BYTE   W16
 BYTE   An3
 BYTE   W16
// 045   ----------------------------------------
 BYTE   N44  Dn4
 BYTE   W11
 BYTE   W05
 BYTE   W03
 BYTE   W03
 BYTE   W03
 BYTE   W03
 BYTE   W01
 BYTE   W02
 BYTE   W01
 BYTE   W02
 BYTE   W01
 BYTE   W02
 BYTE   W01
 BYTE   W02
 BYTE   W01
 BYTE   W02
 BYTE   W01
 BYTE   W02
 BYTE   W01
 BYTE   W01
 BYTE   N23  Bn3
 BYTE   W02
 BYTE   W03
 BYTE   W03
 BYTE   W03
 BYTE   W03
 BYTE   W03
 BYTE   W03
 BYTE   W04
 BYTE   An3
 BYTE   W02
 BYTE   W06
 BYTE   W07
 BYTE   W09
// 046   ----------------------------------------
 BYTE   N68  En3
 BYTE   W56
 BYTE   W03
 BYTE   W13
 BYTE   N44  Dn3
 BYTE   W24
// 047   ----------------------------------------
 BYTE   W24
 BYTE   N23  En3
 BYTE   W24
 BYTE   N44  Bn2
 BYTE   W48
// 048   ----------------------------------------
 BYTE   W96
// 049   ----------------------------------------
 BYTE   W96
// 050   ----------------------------------------
 BYTE   W96
// 051   ----------------------------------------
 BYTE   W96
// 052   ----------------------------------------
 BYTE   N60  Cs4  v096
 BYTE   W06
 BYTE   W03
 BYTE   W03
 BYTE   W03
 BYTE   W03
 BYTE   W03
 BYTE   W03
 BYTE   W03
 BYTE   W03
 BYTE   W03
 BYTE   W03
 BYTE   W03
 BYTE   W03
 BYTE   W03
 BYTE   W03
 BYTE   W16
 BYTE   N14  Bn3
 BYTE   W16
 BYTE   An3
 BYTE   W16
// 053   ----------------------------------------
 BYTE   N44  Gs3
 BYTE   W23
 BYTE   W24
 BYTE   W01
 BYTE   Fs3
 BYTE   W10
 BYTE   W10
 BYTE   W03
 BYTE   W07
 BYTE   W04
 BYTE   W03
 BYTE   W04
 BYTE   W03
 BYTE   W04
// 054   ----------------------------------------
 BYTE   N60  Gs3
 BYTE   W09
 BYTE   W03
 BYTE   W06
 BYTE   W03
 BYTE   W03
 BYTE   W03
 BYTE   W03
 BYTE   W03
 BYTE   W03
 BYTE   W03
 BYTE   W03
 BYTE   W22
 BYTE   N15  Fs3
 BYTE   W16
 BYTE   En3
 BYTE   W16
// 055   ----------------------------------------
 BYTE   N44  Dn3
 BYTE   W48
 BYTE   N23  Cs3
 BYTE   W48
// 056   ----------------------------------------
 BYTE   W96
// 057   ----------------------------------------
 BYTE   W96
// 058   ----------------------------------------
 BYTE   W96
// 059   ----------------------------------------
 BYTE   W48
 BYTE   N05  Fn3  v127
 BYTE   W06
 BYTE   Fs3
 BYTE   W06
 BYTE   Gs3
 BYTE   W06
 BYTE   As3
 BYTE   W06
 BYTE   Bn3
 BYTE   W06
 BYTE   Cs4
 BYTE   W06
 BYTE   Ds4
 BYTE   W06
 BYTE   Fn4
 BYTE   W06
// 060   ----------------------------------------
 BYTE   TIE  As3  v100
 BYTE   TIE  Fs4
 BYTE   W92
 BYTE   W03
 BYTE   W01
// 061   ----------------------------------------
 BYTE   W02
 BYTE   W03
 BYTE   W03
 BYTE   W03
 BYTE   W03
 BYTE   W03
 BYTE   W03
 BYTE   W03
 BYTE   W03
 BYTE   W03
 BYTE   W03
 BYTE   W03
 BYTE   W03
 BYTE   W03
 BYTE   W03
 BYTE   W03
 BYTE   W03
 BYTE   W03
 BYTE   W03
 BYTE   W03
 BYTE   W03
 BYTE   W03
 BYTE   W03
 BYTE   W03
 BYTE   W03
 BYTE   W03
 BYTE   W03
 BYTE   W03
 BYTE   W03
 BYTE   W03
 BYTE   W04
 BYTE   EOT
 BYTE   As3  v078
 BYTE   W03
// 062   ----------------------------------------
 BYTE   W80
 BYTE   W02
 BYTE   W14
// 063   ----------------------------------------
 BYTE   W96
// 064   ----------------------------------------
 BYTE   W96
// 065   ----------------------------------------
 BYTE   W96
// 066   ----------------------------------------
 BYTE   W96
// 067   ----------------------------------------
 BYTE   W96
// 068   ----------------------------------------
 BYTE   W96
// 069   ----------------------------------------
 BYTE   W96
// 070   ----------------------------------------
 BYTE   W96
// 071   ----------------------------------------
 BYTE   W92
 BYTE   W03
 BYTE   GoTo
  POIN2 Label_5_0101C18F
 BYTE   FINE

//**************** Track 7 (Midi-Chn.6) ****************//

LoZSpiritTracksFullSteamAheadRSflame_007:
// 000   ----------------------------------------
 BYTE   KEYSH   LoZSpiritTracksFullSteamAheadRSflame_key+0
 BYTE   VOICE   48
 BYTE   VOL   32*LoZSpiritTracksFullSteamAheadRSflame_mvl/mxv
 BYTE   PAN   c_v+20
 BYTE   VOL   32*LoZSpiritTracksFullSteamAheadRSflame_mvl/mxv
 BYTE   PAN   c_v+20
 BYTE   W96
// 001   ----------------------------------------
 BYTE   W96
// 002   ----------------------------------------
 BYTE   W96
// 003   ----------------------------------------
 BYTE   W96
// 004   ----------------------------------------
 BYTE   W96
// 005   ----------------------------------------
 BYTE   W96
// 006   ----------------------------------------
Label_6_0101B1A2:
 BYTE   W96
// 007   ----------------------------------------
 BYTE   W96
// 008   ----------------------------------------
 BYTE   W96
// 009   ----------------------------------------
 BYTE   W96
// 010   ----------------------------------------
 BYTE   W96
// 011   ----------------------------------------
 BYTE   W96
// 012   ----------------------------------------
 BYTE   W96
// 013   ----------------------------------------
 BYTE   W96
// 014   ----------------------------------------
 BYTE   W96
// 015   ----------------------------------------
 BYTE   W96
// 016   ----------------------------------------
 BYTE   W96
// 017   ----------------------------------------
 BYTE   W96
// 018   ----------------------------------------
 BYTE   W96
// 019   ----------------------------------------
 BYTE   W96
// 020   ----------------------------------------
 BYTE   W96
// 021   ----------------------------------------
 BYTE   W96
// 022   ----------------------------------------
 BYTE   W24
 BYTE   N22  Cs4  v127
 BYTE   W24
 BYTE   Cn4
 BYTE   W24
 BYTE   Gs3
 BYTE   W24
// 023   ----------------------------------------
 BYTE   As3
 BYTE   W24
 BYTE   Gn3
 BYTE   W24
 BYTE   Fn3
 BYTE   W24
 BYTE   En3
 BYTE   W24
// 024   ----------------------------------------
Label_6_0101B1C3:
 BYTE   N92  Fn3  v127
 BYTE   W12
 BYTE   W09
 BYTE   W09
 BYTE   W06
 BYTE   W06
 BYTE   W06
 BYTE   W03
 BYTE   W06
 BYTE   W03
 BYTE   W03
 BYTE   W03
 BYTE   W03
 BYTE   W03
 BYTE   W03
 BYTE   W03
 BYTE   W03
 BYTE   W03
 BYTE   W03
 BYTE   W03
 BYTE   W03
 BYTE   W01
 BYTE   W02
 BYTE   PEND 
// 025   ----------------------------------------
Label_6_0101B1DD:
 BYTE   N44  Ds3  v127
 BYTE   W01
 BYTE   W03
 BYTE   W03
 BYTE   W03
 BYTE   W03
 BYTE   W03
 BYTE   W03
 BYTE   W03
 BYTE   W03
 BYTE   W03
 BYTE   W03
 BYTE   W03
 BYTE   W03
 BYTE   W03
 BYTE   W03
 BYTE   W03
 BYTE   W02
 BYTE   Cn3
 BYTE   W01
 BYTE   W03
 BYTE   W03
 BYTE   W03
 BYTE   W03
 BYTE   W03
 BYTE   W03
 BYTE   W03
 BYTE   W03
 BYTE   W03
 BYTE   W03
 BYTE   W03
 BYTE   W03
 BYTE   W03
 BYTE   W03
 BYTE   W05
 BYTE   PEND 
// 026   ----------------------------------------
 BYTE   N68  Cs3
 BYTE   W12
 BYTE   W09
 BYTE   W09
 BYTE   W06
 BYTE   W06
 BYTE   W06
 BYTE   W03
 BYTE   W06
 BYTE   W03
 BYTE   W03
 BYTE   W03
 BYTE   W03
 BYTE   W03
 BYTE   N23  As2
 BYTE   W03
 BYTE   W03
 BYTE   W03
 BYTE   W03
 BYTE   W03
 BYTE   W03
 BYTE   W03
 BYTE   W01
 BYTE   W02
// 027   ----------------------------------------
 BYTE   N92  Cn3
 BYTE   W01
 BYTE   W03
 BYTE   W03
 BYTE   W03
 BYTE   W03
 BYTE   W03
 BYTE   W03
 BYTE   W03
 BYTE   W03
 BYTE   W03
 BYTE   W03
 BYTE   W03
 BYTE   W03
 BYTE   W03
 BYTE   W03
 BYTE   W03
 BYTE   W03
 BYTE   W03
 BYTE   W03
 BYTE   W03
 BYTE   W03
 BYTE   W03
 BYTE   W03
 BYTE   W03
 BYTE   W03
 BYTE   W03
 BYTE   W03
 BYTE   W03
 BYTE   W03
 BYTE   W03
 BYTE   W03
 BYTE   W05
// 028   ----------------------------------------
 BYTE   PATT
  POIN2 Label_6_0101B1C3
// 029   ----------------------------------------
 BYTE   PATT
  POIN2 Label_6_0101B1DD
// 030   ----------------------------------------
 BYTE   N68  Fs3  v127
 BYTE   W09
 BYTE   W09
 BYTE   W06
 BYTE   W03
 BYTE   W06
 BYTE   W03
 BYTE   W03
 BYTE   W03
 BYTE   W03
 BYTE   W03
 BYTE   W03
 BYTE   W03
 BYTE   W03
 BYTE   W03
 BYTE   W03
 BYTE   W03
 BYTE   W03
 BYTE   W03
 BYTE   N09  Fn3
 BYTE   W10
 BYTE   N06  Fs3
 BYTE   W07
 BYTE   Fn3
 BYTE   W07
// 031   ----------------------------------------
 BYTE   N92  Ds3
 BYTE   W14
 BYTE   W03
 BYTE   W03
 BYTE   W03
 BYTE   W03
 BYTE   W03
 BYTE   W03
 BYTE   W03
 BYTE   W03
 BYTE   W03
 BYTE   W03
 BYTE   W03
 BYTE   W03
 BYTE   W03
 BYTE   W03
 BYTE   W03
 BYTE   W03
 BYTE   W03
 BYTE   W03
 BYTE   W03
 BYTE   W03
 BYTE   W03
 BYTE   W03
 BYTE   W03
 BYTE   W03
 BYTE   W03
 BYTE   W02
 BYTE   W05
// 032   ----------------------------------------
Label_6_0101B284:
 BYTE   N80  Ds3  v127
 BYTE   W07
 BYTE   W07
 BYTE   W08
 BYTE   W03
 BYTE   W08
 BYTE   W04
 BYTE   W03
 BYTE   W04
 BYTE   W04
 BYTE   W03
 BYTE   W04
 BYTE   W04
 BYTE   W03
 BYTE   W04
 BYTE   W04
 BYTE   W04
 BYTE   W03
 BYTE   W07
 BYTE   N05
 BYTE   W06
 BYTE   Fn3
 BYTE   W06
 BYTE   PEND 
// 033   ----------------------------------------
Label_6_0101B29E:
 BYTE   N80  Dn3  v127
 BYTE   W13
 BYTE   W08
 BYTE   W04
 BYTE   W03
 BYTE   W04
 BYTE   W04
 BYTE   W04
 BYTE   W04
 BYTE   W04
 BYTE   W03
 BYTE   W04
 BYTE   W04
 BYTE   W04
 BYTE   W04
 BYTE   W03
 BYTE   W04
 BYTE   W04
 BYTE   W02
 BYTE   W01
 BYTE   W02
 BYTE   W01
 BYTE   N05
 BYTE   W06
 BYTE   Ds3
 BYTE   W06
 BYTE   PEND 
// 034   ----------------------------------------
Label_6_0101B2BB:
 BYTE   N76  Cn3  v127
 BYTE   W07
 BYTE   W07
 BYTE   W08
 BYTE   W03
 BYTE   W08
 BYTE   W04
 BYTE   W03
 BYTE   W04
 BYTE   W04
 BYTE   W03
 BYTE   W04
 BYTE   W04
 BYTE   W03
 BYTE   W04
 BYTE   W04
 BYTE   W04
 BYTE   W03
 BYTE   W01
 BYTE   N05  Fn2
 BYTE   W06
 BYTE   As2
 BYTE   W06
 BYTE   Cn3
 BYTE   W06
 BYTE   PEND 
// 035   ----------------------------------------
 BYTE   N92  Dn3
 BYTE   W13
 BYTE   W08
 BYTE   W04
 BYTE   W03
 BYTE   W04
 BYTE   W04
 BYTE   W04
 BYTE   W04
 BYTE   W04
 BYTE   W03
 BYTE   W04
 BYTE   W04
 BYTE   W04
 BYTE   W04
 BYTE   W03
 BYTE   W04
 BYTE   W04
 BYTE   W02
 BYTE   W01
 BYTE   W02
 BYTE   W01
 BYTE   W12
// 036   ----------------------------------------
 BYTE   PATT
  POIN2 Label_6_0101B284
// 037   ----------------------------------------
 BYTE   PATT
  POIN2 Label_6_0101B29E
// 038   ----------------------------------------
 BYTE   PATT
  POIN2 Label_6_0101B2BB
// 039   ----------------------------------------
 BYTE   N48  Dn3  v127
 BYTE   W13
 BYTE   W08
 BYTE   W04
 BYTE   W03
 BYTE   W04
 BYTE   W04
 BYTE   W04
 BYTE   W04
 BYTE   W04
 BYTE   N44  Fn2
 BYTE   N23  As2
 BYTE   W03
 BYTE   W04
 BYTE   W04
 BYTE   W04
 BYTE   W04
 BYTE   W03
 BYTE   W02
 BYTE   Gs2
 BYTE   W02
 BYTE   W04
 BYTE   W02
 BYTE   W01
 BYTE   W02
 BYTE   W01
 BYTE   W12
// 040   ----------------------------------------
 BYTE   TIE  En2  v100
 BYTE   TIE  Gn2
 BYTE   W16
 BYTE   W06
 BYTE   W11
 BYTE   W06
 BYTE   W11
 BYTE   W06
 BYTE   W06
 BYTE   W05
 BYTE   W06
 BYTE   W06
 BYTE   W05
 BYTE   W06
 BYTE   W06
// 041   ----------------------------------------
Label_6_0101B330:
 BYTE   W10
 BYTE   W09
 BYTE   W07
 BYTE   W06
 BYTE   W07
 BYTE   W03
 BYTE   W07
 BYTE   W03
 BYTE   W03
 BYTE   W04
 BYTE   W03
 BYTE   W03
 BYTE   W04
 BYTE   W03
 BYTE   W03
 BYTE   W03
 BYTE   W04
 BYTE   W03
 BYTE   W03
 BYTE   W07
 BYTE   PEND 
 BYTE   EOT
 BYTE   En2  v055
 BYTE   W01
// 042   ----------------------------------------
 BYTE   TIE  Fs2  v100
 BYTE   TIE  An2
 BYTE   W16
 BYTE   W06
 BYTE   W11
 BYTE   W06
 BYTE   W11
 BYTE   W06
 BYTE   W06
 BYTE   W05
 BYTE   W06
 BYTE   W06
 BYTE   W05
 BYTE   W06
 BYTE   W06
// 043   ----------------------------------------
Label_6_0101B35B:
 BYTE   W10
 BYTE   W09
 BYTE   W07
 BYTE   W06
 BYTE   W07
 BYTE   W03
 BYTE   W05
 BYTE   PEND 
 BYTE   EOT
 BYTE   An2
 BYTE   W01
 BYTE   N44  Bn2  v100
 BYTE   W01
 BYTE   W03
 BYTE   W03
 BYTE   W04
 BYTE   W03
 BYTE   W03
 BYTE   W04
 BYTE   W03
 BYTE   W03
 BYTE   W03
 BYTE   W04
 BYTE   W03
 BYTE   W03
 BYTE   W07
 BYTE   EOT
 BYTE   Fs2
 BYTE   W01
// 044   ----------------------------------------
 BYTE   TIE  En2
 BYTE   N92  Cn3
 BYTE   W16
 BYTE   W06
 BYTE   W11
 BYTE   W06
 BYTE   W11
 BYTE   W06
 BYTE   W06
 BYTE   W05
 BYTE   W06
 BYTE   W06
 BYTE   W05
 BYTE   W06
 BYTE   W06
// 045   ----------------------------------------
 BYTE   N44  Bn2
 BYTE   W10
 BYTE   W09
 BYTE   W07
 BYTE   W06
 BYTE   W07
 BYTE   W03
 BYTE   W06
 BYTE   N40  Gn2
 BYTE   W01
 BYTE   W03
 BYTE   W03
 BYTE   W04
 BYTE   W03
 BYTE   W03
 BYTE   W04
 BYTE   W03
 BYTE   W03
 BYTE   W03
 BYTE   W04
 BYTE   W03
 BYTE   W03
 BYTE   W07
 BYTE   EOT
 BYTE   En2
 BYTE   W01
// 046   ----------------------------------------
 BYTE   N92  Fs2
 BYTE   N44  Bn2
 BYTE   W16
 BYTE   W06
 BYTE   W11
 BYTE   W06
 BYTE   W09
 BYTE   N92  An2
 BYTE   W02
 BYTE   W06
 BYTE   W06
 BYTE   W05
 BYTE   W06
 BYTE   W06
 BYTE   W05
 BYTE   W06
 BYTE   W06
// 047   ----------------------------------------
 BYTE   TIE  En2
 BYTE   W10
 BYTE   W09
 BYTE   W07
 BYTE   W06
 BYTE   W07
 BYTE   W03
 BYTE   W06
 BYTE   Gs2
 BYTE   W01
 BYTE   W03
 BYTE   W03
 BYTE   W04
 BYTE   W03
 BYTE   W03
 BYTE   W04
 BYTE   W03
 BYTE   W03
 BYTE   W03
 BYTE   W04
 BYTE   W03
 BYTE   W03
 BYTE   W08
// 048   ----------------------------------------
 BYTE   W16
 BYTE   W06
 BYTE   W11
 BYTE   W06
 BYTE   W11
 BYTE   W06
 BYTE   W06
 BYTE   W05
 BYTE   W06
 BYTE   W06
 BYTE   W05
 BYTE   W06
 BYTE   W06
// 049   ----------------------------------------
 BYTE   PATT
  POIN2 Label_6_0101B330
// 050   ----------------------------------------
 BYTE   EOT
 BYTE   En2  v056
 BYTE   W01
 BYTE   TIE  Fs2  v100
 BYTE   TIE  As2
 BYTE   W16
 BYTE   W06
 BYTE   W11
 BYTE   W06
 BYTE   W11
 BYTE   W06
 BYTE   W06
 BYTE   W05
 BYTE   W06
 BYTE   W06
 BYTE   W05
 BYTE   W06
 BYTE   W06
// 051   ----------------------------------------
 BYTE   PATT
  POIN2 Label_6_0101B35B
// 052   ----------------------------------------
 BYTE   EOT
 BYTE   Fs2
 BYTE   W01
 BYTE   N40  Cs2  v100
 BYTE   W01
 BYTE   W03
 BYTE   W03
 BYTE   W04
 BYTE   W03
 BYTE   W03
 BYTE   W04
 BYTE   W03
 BYTE   W03
 BYTE   W03
 BYTE   W04
 BYTE   W03
 BYTE   W03
 BYTE   W07
 BYTE   EOT
 BYTE   As2
 BYTE   W01
 BYTE   TIE  Dn2
 BYTE   N92  Fs2
 BYTE   W16
 BYTE   W06
 BYTE   W11
 BYTE   W06
 BYTE   W11
// 053   ----------------------------------------
 BYTE   W06
 BYTE   W06
 BYTE   W05
 BYTE   W06
 BYTE   W06
 BYTE   W05
 BYTE   W06
 BYTE   W06
 BYTE   N44  Bn2
 BYTE   W10
 BYTE   W09
 BYTE   W07
 BYTE   W06
 BYTE   W07
 BYTE   W03
 BYTE   W06
 BYTE   An2
 BYTE   W01
 BYTE   W03
// 054   ----------------------------------------
 BYTE   W03
 BYTE   W04
 BYTE   W03
 BYTE   W03
 BYTE   W04
 BYTE   W03
 BYTE   W03
 BYTE   W03
 BYTE   W04
 BYTE   W03
 BYTE   W03
 BYTE   W07
 BYTE   EOT
 BYTE   Dn2
 BYTE   W01
 BYTE   TIE  En2
 BYTE   N92  Gs2
 BYTE   W16
 BYTE   W06
 BYTE   W11
 BYTE   W06
 BYTE   W11
 BYTE   W06
// 055   ----------------------------------------
 BYTE   W06
 BYTE   W05
 BYTE   W06
 BYTE   W06
 BYTE   W05
 BYTE   W06
 BYTE   W06
 BYTE   N44  Bn2
 BYTE   W10
 BYTE   W09
 BYTE   W07
 BYTE   W06
 BYTE   W07
 BYTE   W03
 BYTE   W06
 BYTE   N23  An2
 BYTE   W01
 BYTE   W03
 BYTE   W03
 BYTE   W04
// 056   ----------------------------------------
 BYTE   W03
 BYTE   W03
 BYTE   W04
 BYTE   W03
 BYTE   Gs2
 BYTE   N84  Bn2
 BYTE   W03
 BYTE   W03
 BYTE   W04
 BYTE   W03
 BYTE   W03
 BYTE   W07
 BYTE   EOT
 BYTE   En2
 BYTE   W01
 BYTE   TIE  Fs2
 BYTE   W16
 BYTE   W06
 BYTE   W11
 BYTE   W06
 BYTE   W11
 BYTE   W06
 BYTE   W06
// 057   ----------------------------------------
 BYTE   W02
 BYTE   N15  Bn2  v120
 BYTE   W03
 BYTE   W06
 BYTE   W06
 BYTE   W01
 BYTE   Cs3
 BYTE   W04
 BYTE   W06
 BYTE   W06
 BYTE   N92  As2  v100
 BYTE   W10
 BYTE   W09
 BYTE   W07
 BYTE   W06
 BYTE   W07
 BYTE   W03
 BYTE   W07
 BYTE   W03
 BYTE   W03
 BYTE   W04
 BYTE   W03
// 058   ----------------------------------------
 BYTE   W03
 BYTE   W04
 BYTE   W03
 BYTE   W03
 BYTE   W03
 BYTE   W04
 BYTE   W03
 BYTE   W03
 BYTE   W08
 BYTE   N60  Gs2
 BYTE   W16
 BYTE   W06
 BYTE   W11
 BYTE   W06
 BYTE   W11
 BYTE   W06
 BYTE   W06
// 059   ----------------------------------------
 BYTE   W02
 BYTE   N15  Cs2  v127
 BYTE   W03
 BYTE   W06
 BYTE   W06
 BYTE   W01
 BYTE   Gs2  v120
 BYTE   W04
 BYTE   W06
 BYTE   W06
 BYTE   N92  As2  v100
 BYTE   W10
 BYTE   W09
 BYTE   W07
 BYTE   W06
 BYTE   W07
 BYTE   W03
 BYTE   W07
 BYTE   W03
 BYTE   W03
 BYTE   W04
 BYTE   W03
// 060   ----------------------------------------
 BYTE   W03
 BYTE   W04
 BYTE   W03
 BYTE   W03
 BYTE   W03
 BYTE   W04
 BYTE   W03
 BYTE   W03
 BYTE   W07
 BYTE   EOT
 BYTE   Fs2
 BYTE   W01
 BYTE   W96
// 061   ----------------------------------------
 BYTE   W96
// 062   ----------------------------------------
 BYTE   W96
// 063   ----------------------------------------
 BYTE   W96
// 064   ----------------------------------------
 BYTE   W96
// 065   ----------------------------------------
 BYTE   W96
// 066   ----------------------------------------
 BYTE   W96
// 067   ----------------------------------------
 BYTE   W96
// 068   ----------------------------------------
 BYTE   W96
// 069   ----------------------------------------
 BYTE   W96
// 070   ----------------------------------------
 BYTE   W96
// 071   ----------------------------------------
 BYTE   W92
 BYTE   W03
 BYTE   GoTo
  POIN2 Label_6_0101B1A2
 BYTE   FINE

//**************** Track 8 (Midi-Chn.7) ****************//

LoZSpiritTracksFullSteamAheadRSflame_008:
// 000   ----------------------------------------
 BYTE   KEYSH   LoZSpiritTracksFullSteamAheadRSflame_key+0
 BYTE   VOICE   77
 BYTE   VOL   43*LoZSpiritTracksFullSteamAheadRSflame_mvl/mxv
 BYTE   PAN   c_v+10
 BYTE   N12  Ds4  v127
 BYTE   W96
// 001   ----------------------------------------
 BYTE   W84
 BYTE   N04  As3
 BYTE   W12
// 002   ----------------------------------------
Label_7_0101BB7C:
 BYTE   N32  Fs4  v127
 BYTE   W36
 BYTE   N04  Ds4
 BYTE   W12
 BYTE   N32  Gs4
 BYTE   W36
 BYTE   N04  Fs4
 BYTE   W06
 BYTE   Gs4
 BYTE   W06
 BYTE   PEND 
// 003   ----------------------------------------
Label_7_0101BB8C:
 BYTE   N22  As4  v127
 BYTE   W24
 BYTE   Cs5
 BYTE   W24
 BYTE   N15  As4
 BYTE   W16
 BYTE   Gs4
 BYTE   W16
 BYTE   As4
 BYTE   W16
 BYTE   PEND 
// 004   ----------------------------------------
 BYTE   TIE  Cs4
 BYTE   W96
// 005   ----------------------------------------
 BYTE   W68
 BYTE   W03
 BYTE   EOT
 BYTE   W13
 BYTE   N04  As3
 BYTE   W12
// 006   ----------------------------------------
Label_7_0101BBA4:
 BYTE   N32  Fs4  v127
 BYTE   W36
 BYTE   N04  Ds4
 BYTE   W12
 BYTE   N32  Gs4
 BYTE   W36
 BYTE   N03  Fs4
 BYTE   W06
 BYTE   Gs4
 BYTE   W06
 BYTE   PEND 
// 007   ----------------------------------------
 BYTE   N32  As4
 BYTE   W36
 BYTE   N06  Cs5
 BYTE   W12
 BYTE   N15  As4
 BYTE   W16
 BYTE   Gs4
 BYTE   W16
 BYTE   N13  Fs4
 BYTE   W16
// 008   ----------------------------------------
 BYTE   TIE  Cs5
 BYTE   W96
// 009   ----------------------------------------
 BYTE   W72
 BYTE   EOT
 BYTE   W12
 BYTE   N04  As3
 BYTE   W12
// 010   ----------------------------------------
 BYTE   N32  Fs4
 BYTE   W36
 BYTE   N04  Ds4
 BYTE   W12
 BYTE   N24  Gs4
 BYTE   W36
 BYTE   N04  Fs4
 BYTE   W06
 BYTE   Gs4
 BYTE   W06
// 011   ----------------------------------------
 BYTE   PATT
  POIN2 Label_7_0101BB8C
// 012   ----------------------------------------
 BYTE   N92  Cs4  v127
 BYTE   W96
// 013   ----------------------------------------
 BYTE   W84
 BYTE   N04  As3
 BYTE   W12
// 014   ----------------------------------------
 BYTE   PATT
  POIN2 Label_7_0101BBA4
// 015   ----------------------------------------
 BYTE   N32  As4  v127
 BYTE   W36
 BYTE   N05  Cs5
 BYTE   W12
 BYTE   N15  As4
 BYTE   W16
 BYTE   Gs4
 BYTE   W16
 BYTE   N13  Fs4
 BYTE   W16
// 016   ----------------------------------------
 BYTE   N84  Ds5  v108
 BYTE   W96
// 017   ----------------------------------------
 BYTE   W96
// 018   ----------------------------------------
 BYTE   W96
// 019   ----------------------------------------
 BYTE   W96
// 020   ----------------------------------------
 BYTE   W96
// 021   ----------------------------------------
 BYTE   W96
// 022   ----------------------------------------
 BYTE   W96
// 023   ----------------------------------------
 BYTE   W24
 BYTE   N23  Gn4  v127
 BYTE   W24
 BYTE   Cn5
 BYTE   W24
 BYTE   Gn5
 BYTE   W24
// 024   ----------------------------------------
 BYTE   N44  Gs5  v100
 BYTE   W01
 BYTE   W02
 BYTE   W01
 BYTE   W02
 BYTE   W01
 BYTE   W02
 BYTE   W36
 BYTE   W03
 BYTE   N15
 BYTE   W16
 BYTE   Gn5
 BYTE   W16
 BYTE   N14  Fn5
 BYTE   W16
// 025   ----------------------------------------
 BYTE   N40  Gn5
 BYTE   W48
 BYTE   N22  Cn5
 BYTE   W24
 BYTE   Ds5
 BYTE   W24
// 026   ----------------------------------------
 BYTE   N60  Fn5
 BYTE   W01
 BYTE   W02
 BYTE   W01
 BYTE   W02
 BYTE   W01
 BYTE   W02
 BYTE   W54
 BYTE   W01
 BYTE   N15  Gn4
 BYTE   W16
 BYTE   N14  Cs5
 BYTE   W16
// 027   ----------------------------------------
 BYTE   N36  Cn5
 BYTE   W48
 BYTE   N21  Bn4
 BYTE   W24
 BYTE   N23  Cn5
 BYTE   W24
// 028   ----------------------------------------
 BYTE   N44  Gs5
 BYTE   W01
 BYTE   W02
 BYTE   W01
 BYTE   W02
 BYTE   W01
 BYTE   W02
 BYTE   W36
 BYTE   W03
 BYTE   N14
 BYTE   W16
 BYTE   N15  Gn5
 BYTE   W16
 BYTE   N14  Fn5
 BYTE   W16
// 029   ----------------------------------------
 BYTE   N36  Gn5
 BYTE   W48
 BYTE   N22  Cn5
 BYTE   W24
 BYTE   N20  Ds5
 BYTE   W24
// 030   ----------------------------------------
 BYTE   TIE  As5
 BYTE   W01
 BYTE   W02
 BYTE   W01
 BYTE   W02
 BYTE   W01
 BYTE   W02
 BYTE   W84
 BYTE   W03
// 031   ----------------------------------------
 BYTE   W20
 BYTE   EOT
 BYTE   W28
 BYTE   N14  As4
 BYTE   W01
 BYTE   W02
 BYTE   W01
 BYTE   W02
 BYTE   W01
 BYTE   W02
 BYTE   W07
 BYTE   N14  Gs4
 BYTE   W16
 BYTE   Fs4
 BYTE   W16
// 032   ----------------------------------------
 BYTE   TIE  Fn4
 BYTE   W96
// 033   ----------------------------------------
 BYTE   W44
 BYTE   W02
 BYTE   EOT
 BYTE   W48
 BYTE   W02
// 034   ----------------------------------------
 BYTE   W96
// 035   ----------------------------------------
 BYTE   W96
// 036   ----------------------------------------
 BYTE   W96
// 037   ----------------------------------------
 BYTE   W96
// 038   ----------------------------------------
 BYTE   W96
// 039   ----------------------------------------
 BYTE   W96
// 040   ----------------------------------------
 BYTE   W96
// 041   ----------------------------------------
 BYTE   W96
// 042   ----------------------------------------
 BYTE   W96
// 043   ----------------------------------------
 BYTE   W96
// 044   ----------------------------------------
 BYTE   W96
// 045   ----------------------------------------
 BYTE   W96
// 046   ----------------------------------------
 BYTE   W96
// 047   ----------------------------------------
 BYTE   W96
// 048   ----------------------------------------
 BYTE   N60  Bn3  v124
 BYTE   W01
 BYTE   W02
 BYTE   W01
 BYTE   W02
 BYTE   W01
 BYTE   W02
 BYTE   W54
 BYTE   W01
 BYTE   N15  En3
 BYTE   W16
 BYTE   Fs3
 BYTE   W16
// 049   ----------------------------------------
 BYTE   N44  Bn3
 BYTE   W48
 BYTE   N23  Cs4
 BYTE   W24
 BYTE   Bn3
 BYTE   W24
// 050   ----------------------------------------
 BYTE   N68  As3
 BYTE   W72
 BYTE   N23  Fs3
 BYTE   W24
// 051   ----------------------------------------
 BYTE   N44  Fs4
 BYTE   W01
 BYTE   W02
 BYTE   W01
 BYTE   W02
 BYTE   W01
 BYTE   W02
 BYTE   W36
 BYTE   W02
 BYTE   W01
 BYTE   N44
 BYTE   W23
 BYTE   W01
 BYTE   W01
 BYTE   W01
 BYTE   W01
 BYTE   W21
// 052   ----------------------------------------
 BYTE   N60  Cs4
 BYTE   W64
 BYTE   N15  Bn3
 BYTE   W16
 BYTE   An3
 BYTE   W16
// 053   ----------------------------------------
 BYTE   N44  Gs3
 BYTE   W48
 BYTE   Fs3
 BYTE   W48
// 054   ----------------------------------------
 BYTE   N60  En4
 BYTE   W01
 BYTE   W02
 BYTE   W01
 BYTE   W02
 BYTE   W01
 BYTE   W02
 BYTE   W54
 BYTE   W01
 BYTE   N15  Dn4
 BYTE   W16
 BYTE   Cs4
 BYTE   W16
// 055   ----------------------------------------
 BYTE   N44  Bn3
 BYTE   W48
 BYTE   N23  An3
 BYTE   W24
 BYTE   Gs3
 BYTE   W24
// 056   ----------------------------------------
 BYTE   TIE  Fs3
 BYTE   W96
// 057   ----------------------------------------
 BYTE   W19
 BYTE   EOT
 BYTE   W76
 BYTE   W01
// 058   ----------------------------------------
 BYTE   W96
// 059   ----------------------------------------
 BYTE   W36
 BYTE   N03  As3  v092
 BYTE   W04
 BYTE   Bn3  v104
 BYTE   W04
 BYTE   Cn4  v112
 BYTE   W04
 BYTE   N44  Cs4  v124
 BYTE   W48
// 060   ----------------------------------------
 BYTE   TIE  Fs4
 BYTE   W01
 BYTE   W02
 BYTE   W01
 BYTE   W02
 BYTE   W01
 BYTE   W02
 BYTE   W84
 BYTE   W03
// 061   ----------------------------------------
 BYTE   W44
 BYTE   W01
 BYTE   EOT
 BYTE   W48
 BYTE   W03
// 062   ----------------------------------------
 BYTE   W96
// 063   ----------------------------------------
 BYTE   W96
// 064   ----------------------------------------
 BYTE   W96
// 065   ----------------------------------------
 BYTE   W96
// 066   ----------------------------------------
 BYTE   W96
// 067   ----------------------------------------
 BYTE   W84
 BYTE   N04  As3  v127
 BYTE   W12
// 068   ----------------------------------------
 BYTE   PATT
  POIN2 Label_7_0101BB7C
// 069   ----------------------------------------
 BYTE   PATT
  POIN2 Label_7_0101BB8C
// 070   ----------------------------------------
 BYTE   TIE  Cs4  v127
 BYTE   W96
// 071   ----------------------------------------
 BYTE   W68
 BYTE   W03
 BYTE   EOT
 BYTE   W13
 BYTE   N04  As3
 BYTE   W11
 BYTE   GoTo
  POIN2 Label_7_0101BBA4
 BYTE   FINE

//**************** Track 9 (Midi-Chn.8) ****************//

LoZSpiritTracksFullSteamAheadRSflame_009:
// 000   ----------------------------------------
 BYTE   KEYSH   LoZSpiritTracksFullSteamAheadRSflame_key+0
 BYTE   VOICE   127
 BYTE   VOL   26*LoZSpiritTracksFullSteamAheadRSflame_mvl/mxv
 BYTE   PAN   c_v-33
 BYTE   N02  Fn2  v127
 BYTE   W06
 BYTE   Dn3  v076
 BYTE   W06
 BYTE   Dn3  v096
 BYTE   W06
 BYTE   N02
 BYTE   W06
 BYTE   Cn3  v127
 BYTE   W06
 BYTE   Dn3  v076
 BYTE   W06
 BYTE   Dn3  v096
 BYTE   W06
 BYTE   N02
 BYTE   W06
 BYTE   Cn3  v127
 BYTE   W06
 BYTE   Dn3  v076
 BYTE   W06
 BYTE   Dn3  v096
 BYTE   W06
 BYTE   N02
 BYTE   W06
 BYTE   Cn3  v127
 BYTE   W06
 BYTE   Dn3  v076
 BYTE   W06
 BYTE   Dn3  v096
 BYTE   W04
 BYTE   N02
 BYTE   W04
 BYTE   Cn3  v116
 BYTE   W04
// 001   ----------------------------------------
Label_8_556368:
 BYTE   N02  Cn3  v127
 BYTE   W06
 BYTE   Dn3  v076
 BYTE   W06
 BYTE   Dn3  v096
 BYTE   W06
 BYTE   N02
 BYTE   W06
 BYTE   Cn3  v127
 BYTE   W06
 BYTE   Dn3  v076
 BYTE   W06
 BYTE   Dn3  v096
 BYTE   W06
 BYTE   N02
 BYTE   W06
 BYTE   Cn3  v127
 BYTE   W06
 BYTE   Dn3  v076
 BYTE   W06
 BYTE   Dn3  v096
 BYTE   W06
 BYTE   N02
 BYTE   W06
 BYTE   Cn3  v127
 BYTE   W06
 BYTE   Dn3  v076
 BYTE   W06
 BYTE   Dn3  v096
 BYTE   W04
 BYTE   N02
 BYTE   W04
 BYTE   Cn3  v116
 BYTE   W04
 BYTE   PEND 
// 002   ----------------------------------------
 BYTE   PATT
  POIN2 Label_8_556368
// 003   ----------------------------------------
 BYTE   PATT
  POIN2 Label_8_556368
// 004   ----------------------------------------
 BYTE   PATT
  POIN2 Label_8_556368
// 005   ----------------------------------------
 BYTE   PATT
  POIN2 Label_8_556368
// 006   ----------------------------------------
Label_8_5563AD:
// 007   ----------------------------------------
 BYTE   PATT
  POIN2 Label_8_556368
// 008   ----------------------------------------
 BYTE   PATT
  POIN2 Label_8_556368
// 009   ----------------------------------------
 BYTE   PATT
  POIN2 Label_8_556368
// 010   ----------------------------------------
 BYTE   PATT
  POIN2 Label_8_556368
// 011   ----------------------------------------
 BYTE   PATT
  POIN2 Label_8_556368
// 012   ----------------------------------------
 BYTE   PATT
  POIN2 Label_8_556368
// 013   ----------------------------------------
 BYTE   PATT
  POIN2 Label_8_556368
// 014   ----------------------------------------
 BYTE   PATT
  POIN2 Label_8_556368
// 015   ----------------------------------------
 BYTE   PATT
  POIN2 Label_8_556368
// 016   ----------------------------------------
 BYTE   PATT
  POIN2 Label_8_556368
// 017   ----------------------------------------
 BYTE   PATT
  POIN2 Label_8_556368
// 018   ----------------------------------------
 BYTE   PATT
  POIN2 Label_8_556368
// 019   ----------------------------------------
 BYTE   PATT
  POIN2 Label_8_556368
// 020   ----------------------------------------
 BYTE   PATT
  POIN2 Label_8_556368
// 021   ----------------------------------------
 BYTE   PATT
  POIN2 Label_8_556368
// 022   ----------------------------------------
 BYTE   PATT
  POIN2 Label_8_556368
// 023   ----------------------------------------
 BYTE   PATT
  POIN2 Label_8_556368
// 024   ----------------------------------------
 BYTE   PATT
  POIN2 Label_8_556368
// 025   ----------------------------------------
 BYTE   PATT
  POIN2 Label_8_556368
// 026   ----------------------------------------
 BYTE   PATT
  POIN2 Label_8_556368
// 027   ----------------------------------------
 BYTE   PATT
  POIN2 Label_8_556368
// 028   ----------------------------------------
 BYTE   PATT
  POIN2 Label_8_556368
// 029   ----------------------------------------
 BYTE   PATT
  POIN2 Label_8_556368
// 030   ----------------------------------------
 BYTE   PATT
  POIN2 Label_8_556368
// 031   ----------------------------------------
 BYTE   PATT
  POIN2 Label_8_556368
// 032   ----------------------------------------
 BYTE   PATT
  POIN2 Label_8_556368
// 033   ----------------------------------------
 BYTE   PATT
  POIN2 Label_8_556368
// 034   ----------------------------------------
 BYTE   PATT
  POIN2 Label_8_556368
// 035   ----------------------------------------
 BYTE   PATT
  POIN2 Label_8_556368
// 036   ----------------------------------------
 BYTE   PATT
  POIN2 Label_8_556368
// 037   ----------------------------------------
 BYTE   PATT
  POIN2 Label_8_556368
// 038   ----------------------------------------
 BYTE   PATT
  POIN2 Label_8_556368
// 039   ----------------------------------------
 BYTE   PATT
  POIN2 Label_8_556368
// 040   ----------------------------------------
 BYTE   N02  Cn3  v127
 BYTE   W06
 BYTE   Dn3  v076
 BYTE   W06
 BYTE   Dn3  v096
 BYTE   W06
 BYTE   N02
 BYTE   W06
 BYTE   Cn3  v127
 BYTE   W06
 BYTE   Dn3  v076
 BYTE   W06
 BYTE   Dn3  v096
 BYTE   W06
 BYTE   N02
 BYTE   W06
 BYTE   Cn3  v127
 BYTE   W03
 BYTE   Dn3  v112
 BYTE   W03
 BYTE   Dn3  v104
 BYTE   W04
 BYTE   Dn3  v084
 BYTE   W03
 BYTE   Dn3  v092
 BYTE   W04
 BYTE   Dn3  v076
 BYTE   W03
 BYTE   Dn3  v088
 BYTE   W04
 BYTE   Dn3  v072
 BYTE   W03
 BYTE   Dn3  v084
 BYTE   W03
 BYTE   Dn3  v068
 BYTE   W04
 BYTE   Dn3  v076
 BYTE   W03
 BYTE   Dn3  v060
 BYTE   W04
 BYTE   Dn3  v068
 BYTE   W03
 BYTE   Dn3  v056
 BYTE   W04
// 041   ----------------------------------------
Label_8_556493:
 BYTE   W24
 BYTE   N05  Dn3  v064
 BYTE   W24
 BYTE   N22  Cn3  v084
 BYTE   W24
 BYTE   N05  Dn3  v064
 BYTE   W24
 BYTE   PEND 
// 042   ----------------------------------------
Label_8_5564A1:
 BYTE   W24
 BYTE   N05  Dn3  v064
 BYTE   W12
 BYTE   N05
 BYTE   W12
 BYTE   N22  Cn3  v084
 BYTE   W24
 BYTE   N05  Dn3  v064
 BYTE   W24
 BYTE   PEND 
// 043   ----------------------------------------
 BYTE   PATT
  POIN2 Label_8_556493
// 044   ----------------------------------------
 BYTE   PATT
  POIN2 Label_8_5564A1
// 045   ----------------------------------------
 BYTE   PATT
  POIN2 Label_8_556493
// 046   ----------------------------------------
 BYTE   PATT
  POIN2 Label_8_5564A1
// 047   ----------------------------------------
 BYTE   PATT
  POIN2 Label_8_556493
// 048   ----------------------------------------
 BYTE   PATT
  POIN2 Label_8_5564A1
// 049   ----------------------------------------
 BYTE   PATT
  POIN2 Label_8_556493
// 050   ----------------------------------------
 BYTE   PATT
  POIN2 Label_8_5564A1
// 051   ----------------------------------------
 BYTE   PATT
  POIN2 Label_8_556493
// 052   ----------------------------------------
 BYTE   PATT
  POIN2 Label_8_5564A1
// 053   ----------------------------------------
 BYTE   PATT
  POIN2 Label_8_556493
// 054   ----------------------------------------
 BYTE   PATT
  POIN2 Label_8_5564A1
// 055   ----------------------------------------
 BYTE   PATT
  POIN2 Label_8_556493
// 056   ----------------------------------------
 BYTE   PATT
  POIN2 Label_8_5564A1
// 057   ----------------------------------------
 BYTE   PATT
  POIN2 Label_8_556493
// 058   ----------------------------------------
 BYTE   PATT
  POIN2 Label_8_5564A1
// 059   ----------------------------------------
 BYTE   PATT
  POIN2 Label_8_556493
// 060   ----------------------------------------
 BYTE   PATT
  POIN2 Label_8_5564A1
// 061   ----------------------------------------
 BYTE   PATT
  POIN2 Label_8_556368
// 062   ----------------------------------------
 BYTE   PATT
  POIN2 Label_8_556368
// 063   ----------------------------------------
 BYTE   PATT
  POIN2 Label_8_556368
// 064   ----------------------------------------
 BYTE   PATT
  POIN2 Label_8_556368
// 065   ----------------------------------------
 BYTE   PATT
  POIN2 Label_8_556368
// 066   ----------------------------------------
 BYTE   PATT
  POIN2 Label_8_556368
// 067   ----------------------------------------
 BYTE   PATT
  POIN2 Label_8_556368
// 068   ----------------------------------------
 BYTE   PATT
  POIN2 Label_8_556368
// 069   ----------------------------------------
 BYTE   PATT
  POIN2 Label_8_556368
// 070   ----------------------------------------
 BYTE   PATT
  POIN2 Label_8_556368
// 071   ----------------------------------------
 BYTE   PATT
  POIN2 Label_8_556368
// 072   ----------------------------------------
 BYTE   N02  Cn3  v127
 BYTE   W06
 BYTE   Dn3  v076
 BYTE   W06
 BYTE   Dn3  v096
 BYTE   W06
 BYTE   N02
 BYTE   W06
 BYTE   Cn3  v127
 BYTE   W06
 BYTE   Dn3  v076
 BYTE   W06
 BYTE   Dn3  v096
 BYTE   W06
 BYTE   N02
 BYTE   W06
 BYTE   Cn3  v127
 BYTE   W06
 BYTE   Dn3  v076
 BYTE   W06
 BYTE   Dn3  v096
 BYTE   W06
 BYTE   N02
 BYTE   W06
 BYTE   Cn3  v127
 BYTE   W06
 BYTE   Dn3  v076
 BYTE   W06
 BYTE   Dn3  v096
 BYTE   W04
 BYTE   N02
 BYTE   W04
 BYTE   Cn3  v116
 BYTE   W03
 BYTE   GoTo
  POIN2 Label_8_5563AD
 BYTE   FINE

//**************** Track 10 (Midi-Chn.9) ****************//

LoZSpiritTracksFullSteamAheadRSflame_010:
// 000   ----------------------------------------
 BYTE   KEYSH   LoZSpiritTracksFullSteamAheadRSflame_key+0
 BYTE   VOICE   77
 BYTE   VOL   17*LoZSpiritTracksFullSteamAheadRSflame_mvl/mxv
 BYTE   PAN   c_v-20
 BYTE   W96
// 001   ----------------------------------------
 BYTE   W96
// 002   ----------------------------------------
Label_9_55694E:
 BYTE   W12
 BYTE   N04  As3  v127
 BYTE   W12
 BYTE   N32  Fs4
 BYTE   W36
 BYTE   N04  Ds4
 BYTE   W12
 BYTE   N32  Gs4
 BYTE   W24
 BYTE   PEND 
// 003   ----------------------------------------
Label_9_55695D:
 BYTE   W12
 BYTE   N04  Fs4  v127
 BYTE   W06
 BYTE   Gs4
 BYTE   W06
 BYTE   N22  As4
 BYTE   W24
 BYTE   Cs5
 BYTE   W24
 BYTE   N15  As4
 BYTE   W16
 BYTE   Gs4
 BYTE   W08
 BYTE   PEND 
// 004   ----------------------------------------
Label_9_55696F:
 BYTE   W08
 BYTE   N15  As4  v127
 BYTE   W16
 BYTE   TIE  Cs4
 BYTE   W72
 BYTE   PEND 
// 005   ----------------------------------------
 BYTE   W92
 BYTE   W03
 BYTE   EOT
 BYTE   W01
// 006   ----------------------------------------
Label_9_55697C:
// 007   ----------------------------------------
 BYTE   PATT
  POIN2 Label_9_55694E
// 008   ----------------------------------------
 BYTE   W12
 BYTE   N03  Fs4  v127
 BYTE   W06
 BYTE   Gs4
 BYTE   W06
 BYTE   N32  As4
 BYTE   W36
 BYTE   N06  Cs5
 BYTE   W12
 BYTE   N15  As4
 BYTE   W16
 BYTE   Gs4
 BYTE   W08
// 009   ----------------------------------------
 BYTE   W08
 BYTE   N13  Fs4
 BYTE   W16
 BYTE   TIE  Cs5
 BYTE   W72
// 010   ----------------------------------------
 BYTE   W96
// 011   ----------------------------------------
 BYTE   EOT
 BYTE   W12
 BYTE   N04  As3
 BYTE   W12
 BYTE   N32  Fs4
 BYTE   W36
 BYTE   N04  Ds4
 BYTE   W12
 BYTE   N24  Gs4
 BYTE   W24
// 012   ----------------------------------------
 BYTE   PATT
  POIN2 Label_9_55695D
// 013   ----------------------------------------
 BYTE   W08
 BYTE   N15  As4  v127
 BYTE   W16
 BYTE   N92  Cs4
 BYTE   W72
// 014   ----------------------------------------
 BYTE   W96
// 015   ----------------------------------------
 BYTE   PATT
  POIN2 Label_9_55694E
// 016   ----------------------------------------
 BYTE   W12
 BYTE   N03  Fs4  v127
 BYTE   W06
 BYTE   Gs4
 BYTE   W06
 BYTE   N32  As4
 BYTE   W36
 BYTE   N05  Cs5
 BYTE   W12
 BYTE   N15  As4
 BYTE   W16
 BYTE   Gs4
 BYTE   W08
// 017   ----------------------------------------
 BYTE   W08
 BYTE   N13  Fs4
 BYTE   W88
// 018   ----------------------------------------
 BYTE   W96
// 019   ----------------------------------------
 BYTE   W96
// 020   ----------------------------------------
 BYTE   W96
// 021   ----------------------------------------
 BYTE   W96
// 022   ----------------------------------------
 BYTE   W96
// 023   ----------------------------------------
 BYTE   W96
// 024   ----------------------------------------
 BYTE   W48
 BYTE   N23  Gn4
 BYTE   W24
 BYTE   Cn5
 BYTE   W24
// 025   ----------------------------------------
 BYTE   Gn5
 BYTE   W24
 BYTE   N44  Gs5  v100
 BYTE   W48
 BYTE   N15
 BYTE   W16
 BYTE   Gn5
 BYTE   W08
// 026   ----------------------------------------
 BYTE   W08
 BYTE   N14  Fn5
 BYTE   W16
 BYTE   N40  Gn5
 BYTE   W48
 BYTE   N22  Cn5
 BYTE   W24
// 027   ----------------------------------------
 BYTE   Ds5
 BYTE   W24
 BYTE   N60  Fn5
 BYTE   W64
 BYTE   N15  Gn4
 BYTE   W08
// 028   ----------------------------------------
 BYTE   W08
 BYTE   N14  Cs5
 BYTE   W16
 BYTE   N36  Cn5
 BYTE   W48
 BYTE   N21  Bn4
 BYTE   W24
// 029   ----------------------------------------
 BYTE   N23  Cn5
 BYTE   W24
 BYTE   N44  Gs5
 BYTE   W48
 BYTE   N14
 BYTE   W16
 BYTE   N15  Gn5
 BYTE   W08
// 030   ----------------------------------------
 BYTE   W08
 BYTE   N14  Fn5
 BYTE   W16
 BYTE   N36  Gn5
 BYTE   W48
 BYTE   N22  Cn5
 BYTE   W24
// 031   ----------------------------------------
 BYTE   N20  Ds5
 BYTE   W24
 BYTE   TIE  As5
 BYTE   W72
// 032   ----------------------------------------
 BYTE   W44
 BYTE   EOT
 BYTE   W52
// 033   ----------------------------------------
 BYTE   W96
// 034   ----------------------------------------
 BYTE   W96
// 035   ----------------------------------------
 BYTE   W96
// 036   ----------------------------------------
 BYTE   W96
// 037   ----------------------------------------
 BYTE   W96
// 038   ----------------------------------------
 BYTE   W96
// 039   ----------------------------------------
 BYTE   W96
// 040   ----------------------------------------
 BYTE   W96
// 041   ----------------------------------------
 BYTE   W96
// 042   ----------------------------------------
 BYTE   W96
// 043   ----------------------------------------
 BYTE   W96
// 044   ----------------------------------------
 BYTE   W96
// 045   ----------------------------------------
 BYTE   W96
// 046   ----------------------------------------
 BYTE   W96
// 047   ----------------------------------------
 BYTE   W96
// 048   ----------------------------------------
 BYTE   W96
// 049   ----------------------------------------
 BYTE   W24
 BYTE   N60  Bn3  v124
 BYTE   W64
 BYTE   N15  En3
 BYTE   W08
// 050   ----------------------------------------
 BYTE   W08
 BYTE   Fs3
 BYTE   W16
 BYTE   N44  Bn3
 BYTE   W48
 BYTE   N23  Cs4
 BYTE   W24
// 051   ----------------------------------------
 BYTE   Bn3
 BYTE   W24
 BYTE   N68  As3
 BYTE   W72
// 052   ----------------------------------------
 BYTE   N23  Fs3
 BYTE   W24
 BYTE   N44  Fs4
 BYTE   W44
 BYTE   W03
 BYTE   W01
 BYTE   N44
 BYTE   W23
 BYTE   W01
// 053   ----------------------------------------
 BYTE   Gn1
 BYTE   W01
 BYTE   Cs2
 BYTE   W01
 BYTE   Fs2
 BYTE   W01
 BYTE   En3
 BYTE   W21
 BYTE   N60  Cs4
 BYTE   W64
 BYTE   N15  Bn3
 BYTE   W08
// 054   ----------------------------------------
 BYTE   W08
 BYTE   An3
 BYTE   W16
 BYTE   N44  Gs3
 BYTE   W48
 BYTE   Fs3
 BYTE   W24
// 055   ----------------------------------------
 BYTE   W24
 BYTE   N60  En4
 BYTE   W64
 BYTE   N15  Dn4
 BYTE   W08
// 056   ----------------------------------------
 BYTE   W08
 BYTE   Cs4
 BYTE   W16
 BYTE   N44  Bn3
 BYTE   W48
 BYTE   N23  An3
 BYTE   W24
// 057   ----------------------------------------
 BYTE   Gs3
 BYTE   W24
 BYTE   TIE  Fs3
 BYTE   W72
// 058   ----------------------------------------
 BYTE   W42
 BYTE   W01
 BYTE   EOT
 BYTE   W52
 BYTE   W01
// 059   ----------------------------------------
 BYTE   W96
// 060   ----------------------------------------
 BYTE   W60
 BYTE   N03  As3  v092
 BYTE   W04
 BYTE   Bn3  v104
 BYTE   W04
 BYTE   Cn4  v112
 BYTE   W04
 BYTE   N44  Cs4  v124
 BYTE   W24
// 061   ----------------------------------------
 BYTE   W96
// 062   ----------------------------------------
 BYTE   W96
// 063   ----------------------------------------
 BYTE   W96
// 064   ----------------------------------------
 BYTE   W96
// 065   ----------------------------------------
 BYTE   W96
// 066   ----------------------------------------
 BYTE   W96
// 067   ----------------------------------------
 BYTE   W96
// 068   ----------------------------------------
 BYTE   W96
// 069   ----------------------------------------
 BYTE   PATT
  POIN2 Label_9_55694E
// 070   ----------------------------------------
 BYTE   PATT
  POIN2 Label_9_55695D
// 071   ----------------------------------------
 BYTE   PATT
  POIN2 Label_9_55696F
// 072   ----------------------------------------
 BYTE   W92
 BYTE   W03
 BYTE   EOT
 BYTE   Cs4
 BYTE   GoTo
  POIN2 Label_9_55697C
 BYTE   FINE

//**************** Track 11 (Midi-Chn.10) ****************//

LoZSpiritTracksFullSteamAheadRSflame_011:
// 000   ----------------------------------------
 BYTE   KEYSH   LoZSpiritTracksFullSteamAheadRSflame_key+0
 BYTE   VOICE   36
 BYTE   VOL   50*LoZSpiritTracksFullSteamAheadRSflame_mvl/mxv
 BYTE   PAN   c_v+20
 BYTE   VOL   50*LoZSpiritTracksFullSteamAheadRSflame_mvl/mxv
 BYTE   PAN   c_v+20
 BYTE   N12  Ds3  v100
 BYTE   W96
// 001   ----------------------------------------
 BYTE   W96
// 002   ----------------------------------------
 BYTE   W96
// 003   ----------------------------------------
 BYTE   W96
// 004   ----------------------------------------
 BYTE   W96
// 005   ----------------------------------------
 BYTE   W96
// 006   ----------------------------------------
Label_10_0101BEA1:
 BYTE   W96
// 007   ----------------------------------------
 BYTE   W96
// 008   ----------------------------------------
 BYTE   W96
// 009   ----------------------------------------
 BYTE   W84
 BYTE   N04  As1  v108
 BYTE   W12
// 010   ----------------------------------------
 BYTE   N23  Fs2
 BYTE   W36
 BYTE   N04  Ds2
 BYTE   W12
 BYTE   N23  Gs2
 BYTE   W36
 BYTE   N04  Fs2
 BYTE   W06
 BYTE   N05  Gs2
 BYTE   W06
// 011   ----------------------------------------
 BYTE   N23  As2
 BYTE   W24
 BYTE   Cs3
 BYTE   W24
 BYTE   As2
 BYTE   W48
// 012   ----------------------------------------
 BYTE   W12
 BYTE   N04  As1  v120
 BYTE   W12
 BYTE   N23  Fs2  v127
 BYTE   W04
 BYTE   W04
 BYTE   W28
 BYTE   N06  Fn2  v120
 BYTE   W12
 BYTE   N23  Gs2  v127
 BYTE   W04
 BYTE   W04
 BYTE   W16
// 013   ----------------------------------------
 BYTE   W12
 BYTE   N04  Fs2  v120
 BYTE   W06
 BYTE   N05  Gs2
 BYTE   W06
 BYTE   N23  As2  v127
 BYTE   W04
 BYTE   W04
 BYTE   W28
 BYTE   N05  Fs2  v120
 BYTE   W06
 BYTE   Gs2
 BYTE   W06
 BYTE   Fn2
 BYTE   W06
 BYTE   N06  Fs2
 BYTE   W06
 BYTE   Ds2
 BYTE   W12
// 014   ----------------------------------------
 BYTE   W96
// 015   ----------------------------------------
 BYTE   W96
// 016   ----------------------------------------
 BYTE   N23  Ds3
 BYTE   W84
 BYTE   N05  Cs3
 BYTE   W06
 BYTE   Bn2
 BYTE   W06
// 017   ----------------------------------------
 BYTE   N23  As2  v127
 BYTE   W04
 BYTE   W04
 BYTE   W40
 BYTE   N23  Gs2  v120
 BYTE   W24
 BYTE   An2
 BYTE   W24
// 018   ----------------------------------------
 BYTE   As2
 BYTE   W84
 BYTE   N05  Gs2
 BYTE   W06
 BYTE   Fs2
 BYTE   W06
// 019   ----------------------------------------
 BYTE   N23  Ds2  v127
 BYTE   W04
 BYTE   W04
 BYTE   W40
 BYTE   N23  Fs2  v120
 BYTE   W24
 BYTE   As2
 BYTE   W24
// 020   ----------------------------------------
 BYTE   Cn3  v127
 BYTE   W48
 BYTE   Fn3  v120
 BYTE   W36
 BYTE   N05  As2  v127
 BYTE   W06
 BYTE   Gs2  v104
 BYTE   W06
// 021   ----------------------------------------
 BYTE   N23  As2  v120
 BYTE   W04
 BYTE   W04
 BYTE   W16
 BYTE   N23  Cn3  v127
 BYTE   W24
 BYTE   Ds3
 BYTE   W24
 BYTE   Gn3
 BYTE   W24
// 022   ----------------------------------------
 BYTE   Gs3
 BYTE   W96
// 023   ----------------------------------------
 BYTE   W96
// 024   ----------------------------------------
 BYTE   W96
// 025   ----------------------------------------
 BYTE   W96
// 026   ----------------------------------------
 BYTE   W96
// 027   ----------------------------------------
 BYTE   W96
// 028   ----------------------------------------
 BYTE   W96
// 029   ----------------------------------------
 BYTE   W96
// 030   ----------------------------------------
 BYTE   W96
// 031   ----------------------------------------
 BYTE   W48
 BYTE   N14  As3  v108
 BYTE   W02
 BYTE   W04
 BYTE   W10
 BYTE   N14  Gs3
 BYTE   W16
 BYTE   Fs3
 BYTE   W16
// 032   ----------------------------------------
 BYTE   N22  Fn3
 BYTE   W96
// 033   ----------------------------------------
 BYTE   W96
// 034   ----------------------------------------
 BYTE   W96
// 035   ----------------------------------------
 BYTE   W96
// 036   ----------------------------------------
 BYTE   W96
// 037   ----------------------------------------
 BYTE   W96
// 038   ----------------------------------------
 BYTE   W96
// 039   ----------------------------------------
 BYTE   W96
// 040   ----------------------------------------
 BYTE   W96
// 041   ----------------------------------------
 BYTE   W96
// 042   ----------------------------------------
 BYTE   W96
// 043   ----------------------------------------
 BYTE   W96
// 044   ----------------------------------------
 BYTE   W96
// 045   ----------------------------------------
 BYTE   W96
// 046   ----------------------------------------
 BYTE   W72
 BYTE   N23  Dn3  v104
 BYTE   W24
// 047   ----------------------------------------
 BYTE   N23
 BYTE   W24
 BYTE   En3
 BYTE   W24
 BYTE   N44  Bn2
 BYTE   W04
 BYTE   W04
 BYTE   W40
// 048   ----------------------------------------
 BYTE   W96
// 049   ----------------------------------------
 BYTE   W96
// 050   ----------------------------------------
 BYTE   W96
// 051   ----------------------------------------
 BYTE   W96
// 052   ----------------------------------------
 BYTE   W96
// 053   ----------------------------------------
 BYTE   W96
// 054   ----------------------------------------
 BYTE   W96
// 055   ----------------------------------------
 BYTE   W96
// 056   ----------------------------------------
 BYTE   W96
// 057   ----------------------------------------
 BYTE   W96
// 058   ----------------------------------------
 BYTE   W96
// 059   ----------------------------------------
 BYTE   W96
// 060   ----------------------------------------
 BYTE   W96
// 061   ----------------------------------------
 BYTE   W96
// 062   ----------------------------------------
 BYTE   W96
// 063   ----------------------------------------
 BYTE   W96
// 064   ----------------------------------------
 BYTE   W96
// 065   ----------------------------------------
 BYTE   W96
// 066   ----------------------------------------
 BYTE   W96
// 067   ----------------------------------------
 BYTE   W96
// 068   ----------------------------------------
 BYTE   W96
// 069   ----------------------------------------
 BYTE   W96
// 070   ----------------------------------------
 BYTE   W96
// 071   ----------------------------------------
 BYTE   W92
 BYTE   W03
 BYTE   GoTo
  POIN2 Label_10_0101BEA1
 BYTE   FINE

//**************** Track 12 (Midi-Chn.11) ****************//

LoZSpiritTracksFullSteamAheadRSflame_012:
// 000   ----------------------------------------
 BYTE   KEYSH   LoZSpiritTracksFullSteamAheadRSflame_key+0
 BYTE   VOICE   40
 BYTE   VOL   41*LoZSpiritTracksFullSteamAheadRSflame_mvl/mxv
 BYTE   PAN   c_v-11
 BYTE   W96
// 001   ----------------------------------------
 BYTE   W96
// 002   ----------------------------------------
 BYTE   W96
// 003   ----------------------------------------
 BYTE   W96
// 004   ----------------------------------------
 BYTE   W96
// 005   ----------------------------------------
 BYTE   W96
// 006   ----------------------------------------
Label_11_0101B4F2:
 BYTE   W96
// 007   ----------------------------------------
 BYTE   W96
// 008   ----------------------------------------
 BYTE   W96
// 009   ----------------------------------------
 BYTE   W96
// 010   ----------------------------------------
 BYTE   W96
// 011   ----------------------------------------
 BYTE   W96
// 012   ----------------------------------------
 BYTE   W96
// 013   ----------------------------------------
 BYTE   W96
// 014   ----------------------------------------
 BYTE   W96
// 015   ----------------------------------------
 BYTE   W68
 BYTE   W03
 BYTE   W01
 BYTE   N09  Fs3  v120
 BYTE   W01
 BYTE   W01
 BYTE   W02
 BYTE   W01
 BYTE   W02
 BYTE   W01
 BYTE   W01
 BYTE   N14  Bn3  v108
 BYTE   W01
 BYTE   W01
 BYTE   W02
 BYTE   W01
 BYTE   W02
 BYTE   W03
 BYTE   W05
// 016   ----------------------------------------
 BYTE   N80  Fs3  v127
 BYTE   N80  Ds4
 BYTE   W01
 BYTE   W02
 BYTE   W01
 BYTE   W02
 BYTE   W01
 BYTE   W02
 BYTE   W01
 BYTE   W02
 BYTE   W01
 BYTE   W02
 BYTE   FnM2
 BYTE   W01
 BYTE   W02
 BYTE   GnM2
 BYTE   W03
 BYTE   GsM2
 BYTE   W03
 BYTE   AnM2
 BYTE   W03
 BYTE   AsM2
 BYTE   W03
 BYTE   BnM2
 BYTE   W03
 BYTE   CnM1
 BYTE   W03
 BYTE   DnM1
 BYTE   W03
 BYTE   DsM1
 BYTE   W03
 BYTE   EnM1
 BYTE   W03
 BYTE   FnM1
 BYTE   W03
 BYTE   FsM1
 BYTE   W03
 BYTE   GnM1
 BYTE   W03
 BYTE   AnM1
 BYTE   W03
 BYTE   AsM1
 BYTE   W03
 BYTE   BnM1
 BYTE   W03
 BYTE   Cn0
 BYTE   W03
 BYTE   Cs0
 BYTE   W03
 BYTE   Ds0
 BYTE   W02
 BYTE   W01
 BYTE   En0
 BYTE   W03
 BYTE   Fn0
 BYTE   W03
 BYTE   Fs0
 BYTE   W03
 BYTE   Gn0
 BYTE   W03
 BYTE   GnM1
 BYTE   N11  Cs4
 BYTE   W01
 BYTE   W03
 BYTE   CsM2
 BYTE   W02
 BYTE   W01
 BYTE   W03
 BYTE   DsM2
 BYTE   W02
// 017   ----------------------------------------
 BYTE   N42  As3
 BYTE   W01
 BYTE   W01
 BYTE   W02
 BYTE   FsM2
 BYTE   W01
 BYTE   W02
 BYTE   GnM2
 BYTE   W01
 BYTE   W02
 BYTE   GsM2
 BYTE   W01
 BYTE   W02
 BYTE   AsM2
 BYTE   W01
 BYTE   W02
 BYTE   BnM2
 BYTE   W01
 BYTE   W02
 BYTE   CnM1
 BYTE   W01
 BYTE   W02
 BYTE   DnM1
 BYTE   W01
 BYTE   W02
 BYTE   DsM1
 BYTE   W01
 BYTE   W02
 BYTE   EnM1
 BYTE   W01
 BYTE   W02
 BYTE   FnM1
 BYTE   W01
 BYTE   W02
 BYTE   GnM1
 BYTE   W01
 BYTE   W01
 BYTE   GsM1
 BYTE   W01
 BYTE   W01
 BYTE   FsM1
 BYTE   W01
 BYTE   DsM1
 BYTE   W01
 BYTE   W01
 BYTE   CsM1
 BYTE   W01
 BYTE   AsM2
 BYTE   W01
 BYTE   W01
 BYTE   GsM2
 BYTE   W01
 BYTE   FnM2
 BYTE   W01
 BYTE   W01
 BYTE   DsM2
 BYTE   W01
 BYTE   CnM2
 BYTE   N44  Gs3
 BYTE   W01
 BYTE   W01
 BYTE   W02
 BYTE   W01
 BYTE   W02
 BYTE   W01
 BYTE   W01
 BYTE   W03
 BYTE   W03
 BYTE   W03
 BYTE   W03
 BYTE   W03
 BYTE   W03
 BYTE   W03
 BYTE   W03
 BYTE   W03
 BYTE   W03
 BYTE   W03
 BYTE   W03
 BYTE   W02
 BYTE   W01
// 018   ----------------------------------------
 BYTE   N80  Dn3
 BYTE   N80  As3
 BYTE   W01
 BYTE   W02
 BYTE   W01
 BYTE   W02
 BYTE   W01
 BYTE   W02
 BYTE   W01
 BYTE   W02
 BYTE   W01
 BYTE   W02
 BYTE   FnM2
 BYTE   W01
 BYTE   W02
 BYTE   GnM2
 BYTE   W03
 BYTE   GsM2
 BYTE   W03
 BYTE   AnM2
 BYTE   W03
 BYTE   AsM2
 BYTE   W03
 BYTE   BnM2
 BYTE   W03
 BYTE   CnM1
 BYTE   W03
 BYTE   DnM1
 BYTE   W03
 BYTE   DsM1
 BYTE   W03
 BYTE   EnM1
 BYTE   W03
 BYTE   FnM1
 BYTE   W03
 BYTE   FsM1
 BYTE   W03
 BYTE   GnM1
 BYTE   W03
 BYTE   AnM1
 BYTE   W03
 BYTE   AsM1
 BYTE   W03
 BYTE   BnM1
 BYTE   W03
 BYTE   Cn0
 BYTE   W03
 BYTE   Cs0
 BYTE   W03
 BYTE   Ds0
 BYTE   W02
 BYTE   W01
 BYTE   En0
 BYTE   W03
 BYTE   W03
 BYTE   Fs0
 BYTE   W03
 BYTE   Gn0
 BYTE   W03
 BYTE   GnM1
 BYTE   N11  Gs3
 BYTE   W01
 BYTE   W03
 BYTE   CsM2
 BYTE   W02
 BYTE   W01
 BYTE   W03
 BYTE   DsM2
 BYTE   W02
// 019   ----------------------------------------
 BYTE   N42  Ds3
 BYTE   W01
 BYTE   W03
 BYTE   FsM2
 BYTE   W03
 BYTE   GnM2
 BYTE   W03
 BYTE   GsM2
 BYTE   W03
 BYTE   AsM2
 BYTE   W03
 BYTE   BnM2
 BYTE   W03
 BYTE   CnM1
 BYTE   W03
 BYTE   DnM1
 BYTE   W03
 BYTE   DsM1
 BYTE   W03
 BYTE   EnM1
 BYTE   W03
 BYTE   FnM1
 BYTE   W03
 BYTE   GnM1
 BYTE   W02
 BYTE   GsM1
 BYTE   W01
 BYTE   W01
 BYTE   FsM1
 BYTE   W01
 BYTE   DsM1
 BYTE   W01
 BYTE   W01
 BYTE   CsM1
 BYTE   W01
 BYTE   AsM2
 BYTE   W01
 BYTE   W01
 BYTE   GsM2
 BYTE   W01
 BYTE   FnM2
 BYTE   W01
 BYTE   W01
 BYTE   DsM2
 BYTE   W01
 BYTE   CnM2
 BYTE   N23  Fs3
 BYTE   W01
 BYTE   W03
 BYTE   W03
 BYTE   W03
 BYTE   W03
 BYTE   W03
 BYTE   W03
 BYTE   W03
 BYTE   W02
 BYTE   N23  As3
 BYTE   W01
 BYTE   W02
 BYTE   W01
 BYTE   W02
 BYTE   W01
 BYTE   W02
 BYTE   W01
 BYTE   W03
 BYTE   W03
 BYTE   W03
 BYTE   W03
 BYTE   W01
 BYTE   W01
// 020   ----------------------------------------
 BYTE   Cs1
 BYTE   N44  Cn4
 BYTE   W01
 BYTE   W02
 BYTE   W01
 BYTE   W02
 BYTE   W01
 BYTE   W02
 BYTE   W01
 BYTE   W02
 BYTE   W03
 BYTE   W03
 BYTE   W03
 BYTE   W03
 BYTE   W03
 BYTE   W03
 BYTE   W03
 BYTE   W03
 BYTE   W03
 BYTE   W03
 BYTE   W03
 BYTE   W01
 BYTE   W01
 BYTE   W01
 BYTE   N32  Gs3  v104
 BYTE   W01
 BYTE   N32  Fn4  v120
 BYTE   W01
 BYTE   W01
 BYTE   W01
 BYTE   W01
 BYTE   W01
 BYTE   W01
 BYTE   W02
 BYTE   W01
 BYTE   W02
 BYTE   W01
 BYTE   W02
 BYTE   W01
 BYTE   W02
 BYTE   W01
 BYTE   W02
 BYTE   W01
 BYTE   W02
 BYTE   W01
 BYTE   W02
 BYTE   W01
 BYTE   W02
 BYTE   W01
 BYTE   W02
 BYTE   W01
 BYTE   W01
 BYTE   W01
 BYTE   N05  As3  v127
 BYTE   W01
 BYTE   W01
 BYTE   W02
 BYTE   W01
 BYTE   W01
 BYTE   Gs3  v104
 BYTE   W01
 BYTE   W01
 BYTE   W02
 BYTE   W01
 BYTE   W01
// 021   ----------------------------------------
 BYTE   N23  As3  v120
 BYTE   W03
 BYTE   W03
 BYTE   W03
 BYTE   W03
 BYTE   W03
 BYTE   W03
 BYTE   W03
 BYTE   W02
 BYTE   W01
 BYTE   Cn4  v127
 BYTE   W02
 BYTE   W03
 BYTE   W03
 BYTE   W03
 BYTE   W03
 BYTE   W03
 BYTE   W03
 BYTE   W03
 BYTE   W01
 BYTE   N23  Ds4
 BYTE   W01
 BYTE   W01
 BYTE   W01
 BYTE   W01
 BYTE   W01
 BYTE   W01
 BYTE   W01
 BYTE   W01
 BYTE   W01
 BYTE   W02
 BYTE   W03
 BYTE   W03
 BYTE   W03
 BYTE   W03
 BYTE   W01
 BYTE   N23  Gn4
 BYTE   W24
// 022   ----------------------------------------
 BYTE   N76  Cn4
 BYTE   W01
 BYTE   W01
 BYTE   Gs4
 BYTE   W01
 BYTE   W01
 BYTE   W02
 BYTE   W01
 BYTE   W02
 BYTE   W01
 BYTE   W02
 BYTE   W01
 BYTE   W02
 BYTE   W01
 BYTE   W02
 BYTE   W06
 BYTE   W06
 BYTE   W06
 BYTE   W03
 BYTE   W03
 BYTE   W03
 BYTE   W03
 BYTE   W03
 BYTE   W03
 BYTE   W03
 BYTE   W03
 BYTE   W03
 BYTE   W03
 BYTE   W03
 BYTE   W03
 BYTE   W03
 BYTE   W03
 BYTE   W03
 BYTE   W03
 BYTE   N05  Gs4  v112
 BYTE   W03
 BYTE   W03
 BYTE   As4
 BYTE   W03
 BYTE   W03
// 023   ----------------------------------------
 BYTE   N44  Gn4  v127
 BYTE   W03
 BYTE   W03
 BYTE   W03
 BYTE   W03
 BYTE   DnM2
 BYTE   W03
 BYTE   DsM2
 BYTE   W03
 BYTE   EnM2
 BYTE   W03
 BYTE   FsM2
 BYTE   W03
 BYTE   GsM2
 BYTE   W03
 BYTE   AsM2
 BYTE   W03
 BYTE   DnM1
 BYTE   W03
 BYTE   GsM1
 BYTE   W02
 BYTE   Fn0
 BYTE   W01
 BYTE   W03
 BYTE   W03
 BYTE   W03
 BYTE   W03
 BYTE   W03
 BYTE   W03
 BYTE   W42
// 024   ----------------------------------------
 BYTE   CnM2
 BYTE   W96
// 025   ----------------------------------------
 BYTE   W14
 BYTE   W80
 BYTE   W02
// 026   ----------------------------------------
 BYTE   W96
// 027   ----------------------------------------
 BYTE   W96
// 028   ----------------------------------------
 BYTE   W96
// 029   ----------------------------------------
 BYTE   W96
// 030   ----------------------------------------
 BYTE   W96
// 031   ----------------------------------------
 BYTE   W96
// 032   ----------------------------------------
 BYTE   W96
// 033   ----------------------------------------
 BYTE   W96
// 034   ----------------------------------------
 BYTE   W96
// 035   ----------------------------------------
 BYTE   W96
// 036   ----------------------------------------
 BYTE   W96
// 037   ----------------------------------------
 BYTE   W96
// 038   ----------------------------------------
 BYTE   W96
// 039   ----------------------------------------
 BYTE   W96
// 040   ----------------------------------------
 BYTE   W96
// 041   ----------------------------------------
 BYTE   W96
// 042   ----------------------------------------
 BYTE   W96
// 043   ----------------------------------------
 BYTE   W96
// 044   ----------------------------------------
 BYTE   W96
// 045   ----------------------------------------
 BYTE   W96
// 046   ----------------------------------------
 BYTE   W96
// 047   ----------------------------------------
 BYTE   W96
// 048   ----------------------------------------
 BYTE   W96
// 049   ----------------------------------------
 BYTE   W96
// 050   ----------------------------------------
 BYTE   W96
// 051   ----------------------------------------
 BYTE   W96
// 052   ----------------------------------------
 BYTE   W96
// 053   ----------------------------------------
 BYTE   W96
// 054   ----------------------------------------
 BYTE   W96
// 055   ----------------------------------------
 BYTE   W96
// 056   ----------------------------------------
 BYTE   W96
// 057   ----------------------------------------
 BYTE   W96
// 058   ----------------------------------------
 BYTE   W96
// 059   ----------------------------------------
 BYTE   W96
// 060   ----------------------------------------
 BYTE   W96
// 061   ----------------------------------------
 BYTE   W96
// 062   ----------------------------------------
 BYTE   W96
// 063   ----------------------------------------
 BYTE   W96
// 064   ----------------------------------------
 BYTE   W96
// 065   ----------------------------------------
 BYTE   W96
// 066   ----------------------------------------
 BYTE   W96
// 067   ----------------------------------------
 BYTE   W96
// 068   ----------------------------------------
 BYTE   W96
// 069   ----------------------------------------
 BYTE   W96
// 070   ----------------------------------------
 BYTE   W96
// 071   ----------------------------------------
 BYTE   W92
 BYTE   W03
 BYTE   GoTo
  POIN2 Label_11_0101B4F2
 BYTE   FINE

//******************************************************//
	ALIGN 4

LoZSpiritTracksFullSteamAheadRSflame:
	BYTE	12	// NumTrks
	BYTE	0	// NumBlks
	BYTE	LoZSpiritTracksFullSteamAheadRSflame_pri	// Priority
	BYTE	LoZSpiritTracksFullSteamAheadRSflame_rev	// Reverb.
    
	POIN2	LoZSpiritTracksFullSteamAheadRSflame_grp
    
	POIN2	LoZSpiritTracksFullSteamAheadRSflame_001
	POIN2	LoZSpiritTracksFullSteamAheadRSflame_002
	POIN2	LoZSpiritTracksFullSteamAheadRSflame_003
	POIN2	LoZSpiritTracksFullSteamAheadRSflame_004
	POIN2	LoZSpiritTracksFullSteamAheadRSflame_005
	POIN2	LoZSpiritTracksFullSteamAheadRSflame_006
	POIN2	LoZSpiritTracksFullSteamAheadRSflame_007
	POIN2	LoZSpiritTracksFullSteamAheadRSflame_008
	POIN2	LoZSpiritTracksFullSteamAheadRSflame_009
	POIN2	LoZSpiritTracksFullSteamAheadRSflame_010
	POIN2	LoZSpiritTracksFullSteamAheadRSflame_011
	POIN2	LoZSpiritTracksFullSteamAheadRSflame_012

	
