//Event file generated from Sappy .s format.
	#include "MPlayDef.event"

	#define	XenobladeChroniclesTragicDecisionRandomWizard_grp  voicegroup000
	#define	XenobladeChroniclesTragicDecisionRandomWizard_pri  0
	#define	XenobladeChroniclesTragicDecisionRandomWizard_rev  0
	#define	XenobladeChroniclesTragicDecisionRandomWizard_mvl  127
	#define	XenobladeChroniclesTragicDecisionRandomWizard_key  0
	#define	XenobladeChroniclesTragicDecisionRandomWizard_tbs  1
	#define	XenobladeChroniclesTragicDecisionRandomWizard_exg  0
	#define	XenobladeChroniclesTragicDecisionRandomWizard_cmp  1

	// .rodata
	//	XenobladeChroniclesTragicDecisionRandomWizard
	ALIGN 4


//**************** Track 1 (Midi-Chn.0) ****************//

XenobladeChroniclesTragicDecisionRandomWizard_001:
// 000   ----------------------------------------
 BYTE   KEYSH   XenobladeChroniclesTragicDecisionRandomWizard_key+0
 BYTE   TEMPO   150*XenobladeChroniclesTragicDecisionRandomWizard_tbs/2
 BYTE   VOICE   1
 BYTE   VOL   30*XenobladeChroniclesTragicDecisionRandomWizard_mvl/mxv
 BYTE   PAN   c_v+40
 BYTE   BEND   c_v+0
 BYTE   TIE  Ds5  v096
 BYTE   W72
 BYTE   W72
// 001   ----------------------------------------
 BYTE   EOT
 BYTE   TIE
 BYTE   W72
 BYTE   W72
// 002   ----------------------------------------
 BYTE   EOT
 BYTE   TIE  Cs5
 BYTE   W72
 BYTE   W72
// 003   ----------------------------------------
 BYTE   EOT
 BYTE   TIE  An4
 BYTE   W72
 BYTE   W72
// 004   ----------------------------------------
 BYTE   EOT
 BYTE   TIE  Gn5
 BYTE   W72
 BYTE   W72
// 005   ----------------------------------------
 BYTE   EOT
 BYTE   TIE  Cn5
 BYTE   W72
 BYTE   W72
// 006   ----------------------------------------
 BYTE   EOT
 BYTE   TIE  Dn5
 BYTE   W72
 BYTE   W72
// 007   ----------------------------------------
 BYTE   EOT
 BYTE   TIE
 BYTE   W72
 BYTE   W72
// 008   ----------------------------------------
 BYTE   EOT
Label_0_015DA2BB:
 BYTE   N72  Dn4  v096
 BYTE   W24
 BYTE   N24  Ds5
 BYTE   W24
 BYTE   N96  Dn5
 BYTE   W24
 BYTE   PEND 
 BYTE   W72
 BYTE   PATT
  POIN2 Label_0_015DA2BB
// 009   ----------------------------------------
 BYTE   W72
 BYTE   N72  Cs5  v096
 BYTE   W24
// 010   ----------------------------------------
 BYTE   N24  As4
 BYTE   W24
 BYTE   An4
 BYTE   W24
 BYTE   N72  Fs4  v052
 BYTE   W72
// 011   ----------------------------------------
 BYTE   N24  Fs4  v096
 BYTE   W24
 BYTE   Gn4
 BYTE   W24
 BYTE   An4
 BYTE   W24
 BYTE   N72  As4
 BYTE   W24
// 012   ----------------------------------------
 BYTE   N24  Cn5
 BYTE   W24
 BYTE   N48  Dn5
 BYTE   W24
 BYTE   N72  Ds4
 BYTE   W24
 BYTE   N24  Ds5
 BYTE   W24
// 013   ----------------------------------------
 BYTE   N96  Dn5
 BYTE   W24
 BYTE   W72
// 014   ----------------------------------------
 BYTE   N72  Cn4
 BYTE   W24
 BYTE   N24  Ds5
 BYTE   W24
 BYTE   N96  Cn5
 BYTE   W24
 BYTE   W72
// 015   ----------------------------------------
Label_0_015DA2FF:
 BYTE   N48  Dn5  v096
 BYTE   W24
 BYTE   N72  An4
 BYTE   W24
 BYTE   N24  Dn5
 BYTE   W24
 BYTE   PEND 
 BYTE   Ds5
 BYTE   W24
// 016   ----------------------------------------
 BYTE   N48  An5
 BYTE   W48
 BYTE   PATT
  POIN2 Label_0_015DA2FF
// 017   ----------------------------------------
 BYTE   N24  Ds5  v096
 BYTE   W24
 BYTE   TIE  An5
 BYTE   W48
 BYTE   As4
 BYTE   W72
// 018   ----------------------------------------
 BYTE   EOT
 BYTE   An5
 BYTE   W72
 BYTE   As4
 BYTE   N96
 BYTE   W72
// 019   ----------------------------------------
Label_0_015DA323:
 BYTE   W24
 BYTE   N24  Gn4  v096
 BYTE   W24
 BYTE   An4
 BYTE   W24
 BYTE   PEND 
 BYTE   N96  As4
 BYTE   W72
// 020   ----------------------------------------
 BYTE   W24
 BYTE   N72  Dn5
 BYTE   W24
 BYTE   N24  An4
 BYTE   W24
 BYTE   As4
 BYTE   W24
// 021   ----------------------------------------
 BYTE   An4
 BYTE   W24
 BYTE   N48  Gn4
 BYTE   W24
 BYTE   PATT
  POIN2 Label_0_015DA323
// 022   ----------------------------------------
 BYTE   TIE  As4  v096
 BYTE   W72
 BYTE   W48
// 023   ----------------------------------------
 BYTE   EOT
 BYTE   N24
 BYTE   W24
 BYTE   TIE  Gs4
 BYTE   W72
// 024   ----------------------------------------
 BYTE   W48
 BYTE   EOT
 BYTE   N24
 BYTE   W24
 BYTE   N96  An4
 BYTE   W72
// 025   ----------------------------------------
 BYTE   W24
 BYTE   N24
 BYTE   W24
 BYTE   N96  As4
 BYTE   W24
 BYTE   TIE  Cn5
 BYTE   W72
// 026   ----------------------------------------
 BYTE   W72
 BYTE   EOT
Label_0_015DA35E:
 BYTE   W24
// 027   ----------------------------------------
 BYTE   N24  Ds4  v096
 BYTE   W24
 BYTE   Dn4
 BYTE   W24
 BYTE   PEND 
 BYTE   PATT
  POIN2 Label_0_015DA35E
// 028   ----------------------------------------
 BYTE   W24
 BYTE   N24  Fs4  v096
 BYTE   W24
 BYTE   Dn4
 BYTE   W24
 BYTE   W24
// 029   ----------------------------------------
 BYTE   An4
 BYTE   W24
 BYTE   Dn4
 BYTE   W24
 BYTE   W72
// 030   ----------------------------------------
Label_0_015DA378:
 BYTE   N36  Dn4  v096
 BYTE   N36  Dn5
 BYTE   W36
 BYTE   N24  Ds4
 BYTE   N24  Ds5
 BYTE   W24
 BYTE   N12  Dn4
 BYTE   N12  Dn5
 BYTE   W12
 BYTE   PEND 
Label_0_015DA389:
 BYTE   N36  Cn4  v096
 BYTE   N36  Cn5
 BYTE   W36
// 031   ----------------------------------------
 BYTE   N24  As3
 BYTE   N24  As4
 BYTE   W24
 BYTE   N12  As3
 BYTE   N12  As4
 BYTE   W12
 BYTE   PEND 
 BYTE   N72  An3
 BYTE   N72  An4
 BYTE   W72
// 032   ----------------------------------------
 BYTE   W72
 BYTE   PATT
  POIN2 Label_0_015DA378
// 033   ----------------------------------------
Label_0_015DA3A5:
 BYTE   N36  Cn4  v096
 BYTE   N36  Cn5
 BYTE   W36
 BYTE   N24  As3
 BYTE   N24  As4
 BYTE   W24
 BYTE   N12  Cn4
 BYTE   N12  Cn5
 BYTE   W12
 BYTE   PEND 
Label_0_015DA3B6:
 BYTE   N48  Dn4  v096
 BYTE   N48  Dn5
 BYTE   W48
// 034   ----------------------------------------
 BYTE   N24  An3
 BYTE   N24  An4
 BYTE   W24
 BYTE   PEND 
Label_0_015DA3C2:
 BYTE   N24  As3  v096
 BYTE   N24  As4
 BYTE   W24
 BYTE   An3
 BYTE   N24  An4
 BYTE   W24
 BYTE   Gn3
 BYTE   N24  Gn4
 BYTE   W24
 BYTE   PEND 
// 035   ----------------------------------------
 BYTE   N72  As3
 BYTE   N72  As4
 BYTE   W72
Label_0_015DA3D6:
 BYTE   N24  An3  v096
 BYTE   N24  An4
 BYTE   W24
// 036   ----------------------------------------
 BYTE   Gn3
 BYTE   N24  Gn4
 BYTE   W24
 BYTE   Fs3
 BYTE   N24  Fs4
 BYTE   W24
 BYTE   PEND 
 BYTE   N48  An3
 BYTE   N48  An4
 BYTE   W48
// 037   ----------------------------------------
 BYTE   N24  Dn3
 BYTE   N24  Dn4
 BYTE   W24
 BYTE   W72
 BYTE   PATT
  POIN2 Label_0_015DA378
 BYTE   PATT
  POIN2 Label_0_015DA389
// 038   ----------------------------------------
 BYTE   N72  An3  v096
 BYTE   N72  An4
 BYTE   W72
 BYTE   W72
 BYTE   PATT
  POIN2 Label_0_015DA378
 BYTE   PATT
  POIN2 Label_0_015DA3A5
 BYTE   PATT
  POIN2 Label_0_015DA3B6
 BYTE   PATT
  POIN2 Label_0_015DA3C2
// 039   ----------------------------------------
 BYTE   N72  As3  v096
 BYTE   N72  As4
 BYTE   W72
 BYTE   PATT
  POIN2 Label_0_015DA3D6
// 040   ----------------------------------------
 BYTE   N24  An3  v096
 BYTE   N24  An4
 BYTE   W24
 BYTE   As3
 BYTE   N24  As4
 BYTE   W24
 BYTE   Cn4
 BYTE   N24  Cn5
 BYTE   W24
Label_0_015DA42E:
 BYTE   N36  An3  v096
 BYTE   W36
// 041   ----------------------------------------
 BYTE   As3
 BYTE   W36
 BYTE   PEND 
Label_0_015DA435:
 BYTE   N48  Gn3  v096
 BYTE   W48
 BYTE   N24  As3
 BYTE   W24
 BYTE   PEND 
 BYTE   PATT
  POIN2 Label_0_015DA42E
 BYTE   PATT
  POIN2 Label_0_015DA435
// 042   ----------------------------------------
Label_0_015DA447:
 BYTE   N36  Gn3  v096
 BYTE   W36
 BYTE   An3
 BYTE   W36
 BYTE   PEND 
 BYTE   N48  Fs3
 BYTE   W48
// 043   ----------------------------------------
 BYTE   N24  An3
 BYTE   W24
 BYTE   N12  Dn3
 BYTE   W12
 BYTE   En3
 BYTE   W12
 BYTE   N48  Fs3
 BYTE   W48
// 044   ----------------------------------------
 BYTE   W72
 BYTE   PATT
  POIN2 Label_0_015DA42E
 BYTE   PATT
  POIN2 Label_0_015DA435
 BYTE   PATT
  POIN2 Label_0_015DA42E
 BYTE   PATT
  POIN2 Label_0_015DA435
 BYTE   PATT
  POIN2 Label_0_015DA447
// 045   ----------------------------------------
 BYTE   N60  Fs3  v096
 BYTE   W60
 BYTE   N12  Gn3
 BYTE   W12
 BYTE   N72  An3
 BYTE   W72
// 046   ----------------------------------------
 BYTE   Dn4
 BYTE   W72
 BYTE   W72
// 047   ----------------------------------------
 BYTE   W72
 BYTE   W72
// 048   ----------------------------------------
 BYTE   W72
 BYTE   W72
// 049   ----------------------------------------
 BYTE   W72
 BYTE   W72
// 050   ----------------------------------------
 BYTE   W72
 BYTE   W72
// 051   ----------------------------------------
 BYTE   W72
 BYTE   W72
// 052   ----------------------------------------
 BYTE   W72
 BYTE   W72
// 053   ----------------------------------------
 BYTE   GoTo
  POIN2 Label_0_015DA2BB
// 054   ----------------------------------------
 BYTE   W72
 BYTE   W72
// 055   ----------------------------------------
 BYTE   W72
 BYTE   W72
// 056   ----------------------------------------
 BYTE   W72
 BYTE   W72
// 057   ----------------------------------------
 BYTE   W72
 BYTE   W72
// 058   ----------------------------------------
 BYTE   VOL   29*XenobladeChroniclesTragicDecisionRandomWizard_mvl/mxv
 BYTE   W06
 BYTE   Fn0
 BYTE   W06
 BYTE   En0
 BYTE   W06
 BYTE   En0
 BYTE   W06
 BYTE   En0
 BYTE   W06
 BYTE   Ds0
 BYTE   W06
 BYTE   Ds0
 BYTE   W06
 BYTE   Dn0
 BYTE   W06
 BYTE   Dn0
 BYTE   W06
 BYTE   Cs0
 BYTE   W06
 BYTE   Cs0
 BYTE   W06
 BYTE   Cn0
 BYTE   W06
 BYTE   Cn0
 BYTE   W06
 BYTE   BnM1
 BYTE   W06
 BYTE   BnM1
 BYTE   W06
 BYTE   AsM1
 BYTE   W06
// 059   ----------------------------------------
 BYTE   AsM1
 BYTE   W06
 BYTE   AnM1
 BYTE   W06
 BYTE   AnM1
 BYTE   W06
 BYTE   GsM1
 BYTE   W06
 BYTE   GsM1
 BYTE   W06
 BYTE   GsM1
 BYTE   W06
 BYTE   GnM1
 BYTE   W06
 BYTE   GnM1
 BYTE   W06
 BYTE   FsM1
 BYTE   W06
 BYTE   FsM1
 BYTE   W06
 BYTE   FnM1
 BYTE   W06
 BYTE   FnM1
 BYTE   W06
 BYTE   EnM1
 BYTE   W06
 BYTE   EnM1
 BYTE   W06
 BYTE   DsM1
 BYTE   W06
 BYTE   DsM1
 BYTE   W06
// 060   ----------------------------------------
 BYTE   DnM1
 BYTE   W06
 BYTE   DnM1
 BYTE   W06
 BYTE   CsM1
 BYTE   W06
 BYTE   CsM1
 BYTE   W06
 BYTE   CnM1
 BYTE   W06
 BYTE   CnM1
 BYTE   W06
 BYTE   BnM2
 BYTE   W06
 BYTE   BnM2
 BYTE   W06
 BYTE   BnM2
 BYTE   W06
 BYTE   AsM2
 BYTE   W06
 BYTE   AsM2
 BYTE   W06
 BYTE   AnM2
 BYTE   W06
 BYTE   AnM2
 BYTE   W06
 BYTE   GsM2
 BYTE   W06
 BYTE   GsM2
 BYTE   W06
 BYTE   GnM2
 BYTE   W06
// 061   ----------------------------------------
 BYTE   GnM2
 BYTE   W06
 BYTE   FsM2
 BYTE   W06
 BYTE   FsM2
 BYTE   W06
 BYTE   FnM2
 BYTE   W06
 BYTE   FnM2
 BYTE   W06
 BYTE   FnM2
 BYTE   W06
 BYTE   EnM2
 BYTE   W06
 BYTE   EnM2
 BYTE   W06
 BYTE   DsM2
 BYTE   W06
 BYTE   DsM2
 BYTE   W06
 BYTE   DnM2
 BYTE   W06
 BYTE   DnM2
 BYTE   W06
 BYTE   CsM2
 BYTE   W06
 BYTE   CsM2
 BYTE   W06
 BYTE   CnM2
 BYTE   W06
 BYTE   CnM2
 BYTE   W06
// 062   ----------------------------------------
 BYTE   CnM2
 BYTE   W48
 BYTE   W72
// 063   ----------------------------------------
 BYTE   W72
 BYTE   FINE

//**************** Track 2 (Midi-Chn.1) ****************//

XenobladeChroniclesTragicDecisionRandomWizard_002:
// 000   ----------------------------------------
 BYTE   KEYSH   XenobladeChroniclesTragicDecisionRandomWizard_key+0
 BYTE   VOICE   1
 BYTE   VOL   22*XenobladeChroniclesTragicDecisionRandomWizard_mvl/mxv
 BYTE   PAN   c_v-32
 BYTE   BEND   c_v+0
 BYTE   N72  Gn0  v096
 BYTE   N72  Gn1
 BYTE   W12
 BYTE   N12  Dn2
 BYTE   W12
 BYTE   N60  Gn2
 BYTE   W12
 BYTE   N12  An2
 BYTE   W12
 BYTE   Dn3
 BYTE   W12
 BYTE   N36  As2
 BYTE   W12
 BYTE   N72  Gn0
 BYTE   N72  Gn1
 BYTE   W12
 BYTE   Dn2
 BYTE   W12
// 001   ----------------------------------------
 BYTE   N12  As2
 BYTE   W12
 BYTE   An2
 BYTE   W12
 BYTE   Dn3
 BYTE   W12
 BYTE   N48  As2
 BYTE   W12
 BYTE   N72  Gn0
 BYTE   N72  Gn1
 BYTE   W12
 BYTE   N12  Dn2
 BYTE   W12
 BYTE   N60  Gn2
 BYTE   W12
 BYTE   N12  An2
 BYTE   W12
// 002   ----------------------------------------
 BYTE   Dn3
 BYTE   W12
 BYTE   N36  As2
 BYTE   W12
 BYTE   N72  Gn0
 BYTE   N72  Gn1
 BYTE   W12
 BYTE   Dn2
 BYTE   W12
 BYTE   N12  As2
 BYTE   W12
 BYTE   An2
 BYTE   W12
 BYTE   Dn3
 BYTE   W12
 BYTE   N36  As2
 BYTE   W12
// 003   ----------------------------------------
Label_1_015DA577:
 BYTE   N72  An0  v096
 BYTE   N72  An1
 BYTE   W12
 BYTE   En2
 BYTE   W12
 BYTE   N12  An2
 BYTE   W12
 BYTE   Cs3
 BYTE   W12
 BYTE   An2
 BYTE   W12
 BYTE   N36  En3
 BYTE   W12
 BYTE   PEND 
Label_1_015DA58A:
 BYTE   N72  An0  v096
 BYTE   N72  An1
 BYTE   W12
 BYTE   En2
 BYTE   W12
// 004   ----------------------------------------
 BYTE   N12  An2
 BYTE   W12
 BYTE   Cs3
 BYTE   W12
 BYTE   En3
 BYTE   W12
 BYTE   N36  An3
 BYTE   W12
 BYTE   PEND 
Label_1_015DA59D:
 BYTE   N72  An0  v096
 BYTE   N72  An1
 BYTE   W12
 BYTE   En2
 BYTE   W12
 BYTE   N12  An2
 BYTE   W12
 BYTE   Cs3
 BYTE   W12
// 005   ----------------------------------------
 BYTE   An3
 BYTE   W12
 BYTE   N36  En3
 BYTE   W12
 BYTE   PEND 
 BYTE   PATT
  POIN2 Label_1_015DA59D
// 006   ----------------------------------------
Label_1_015DA5B5:
 BYTE   N72  Ds1  v096
 BYTE   N72  Ds2
 BYTE   W12
 BYTE   As2
 BYTE   W12
 BYTE   N12  Ds3
 BYTE   W12
 BYTE   Gn3
 BYTE   W12
 BYTE   As3
 BYTE   W12
 BYTE   N36  Ds4
 BYTE   W12
 BYTE   PEND 
 BYTE   PATT
  POIN2 Label_1_015DA5B5
// 007   ----------------------------------------
Label_1_015DA5CD:
 BYTE   N72  Gs0  v096
 BYTE   N72  Ds2
 BYTE   W12
 BYTE   As2
 BYTE   W12
 BYTE   N12  Ds3
 BYTE   W12
 BYTE   Gs3
 BYTE   W12
 BYTE   Cn4
 BYTE   W12
 BYTE   N36  Ds4
 BYTE   W12
 BYTE   PEND 
Label_1_015DA5E0:
 BYTE   N72  Gs0  v096
 BYTE   N72  Ds2
 BYTE   W12
 BYTE   As2
 BYTE   W12
// 008   ----------------------------------------
 BYTE   N12  Ds3
 BYTE   W12
 BYTE   Gs3
 BYTE   W12
 BYTE   Cn4
 BYTE   W12
 BYTE   N48  Ds4
 BYTE   W12
 BYTE   PEND 
Label_1_015DA5F3:
 BYTE   N72  Dn1  v096
 BYTE   N72  Dn2
 BYTE   W12
 BYTE   N12  An2
 BYTE   W12
 BYTE   N60  Dn3
 BYTE   W12
 BYTE   N12  Fs3
 BYTE   W12
// 009   ----------------------------------------
 BYTE   An3
 BYTE   W12
 BYTE   N48  Fs3
 BYTE   W12
 BYTE   PEND 
Label_1_015DA608:
 BYTE   N72  Dn1  v052
 BYTE   N72  Dn2  v096
 BYTE   W12
 BYTE   N12  Fs2
 BYTE   W12
 BYTE   N60  Dn3
 BYTE   W12
 BYTE   N12  Fs3
 BYTE   W12
 BYTE   An3
 BYTE   W12
 BYTE   N48  Fs3
 BYTE   W12
 BYTE   PEND 
 BYTE   PATT
  POIN2 Label_1_015DA5F3
// 010   ----------------------------------------
 BYTE   N72  Dn1  v052
 BYTE   N72  Dn2  v096
 BYTE   W12
 BYTE   N12  Fs2
 BYTE   W12
 BYTE   N72  Dn3
 BYTE   W12
 BYTE   N12  Fs3
 BYTE   W12
 BYTE   An3
 BYTE   W12
 BYTE   N60  Fs3
 BYTE   W12
Label_1_015DA638:
 BYTE   N72  Gn0  v096
 BYTE   N72  Gn1
 BYTE   W12
 BYTE   Dn2
 BYTE   W12
// 011   ----------------------------------------
 BYTE   N12  Gn2
 BYTE   W12
 BYTE   N72  An2
 BYTE   W12
 BYTE   N12  Dn3
 BYTE   W12
 BYTE   N36  As2
 BYTE   W12
 BYTE   PEND 
 BYTE   N72  Gn0
 BYTE   N72  Gn1
 BYTE   W12
 BYTE   Dn2
 BYTE   W12
 BYTE   N24  As2
 BYTE   W12
 BYTE   N60  Gn2
 BYTE   W12
// 012   ----------------------------------------
 BYTE   N12  Dn3
 BYTE   W12
 BYTE   N60  As2
 BYTE   W12
 BYTE   PATT
  POIN2 Label_1_015DA638
// 013   ----------------------------------------
 BYTE   N72  Gn0  v096
 BYTE   N72  Gn1
 BYTE   W12
 BYTE   N60  Dn2
 BYTE   W12
 BYTE   N24  As2
 BYTE   W12
 BYTE   N48  Gn2
 BYTE   W12
 BYTE   N12  Dn3
 BYTE   W12
 BYTE   N36  As2
 BYTE   W12
 BYTE   PATT
  POIN2 Label_1_015DA577
 BYTE   PATT
  POIN2 Label_1_015DA58A
 BYTE   PATT
  POIN2 Label_1_015DA59D
// 014   ----------------------------------------
 BYTE   N24  An0  v096
 BYTE   N24  An1
 BYTE   W12
 BYTE   N72  En2
 BYTE   W12
 BYTE   N48  An0  v127
 BYTE   N48  An1
 BYTE   N12  An2  v096
 BYTE   W12
 BYTE   Cs3
 BYTE   W12
 BYTE   An3
 BYTE   W12
 BYTE   N36  En3
 BYTE   W12
 BYTE   PATT
  POIN2 Label_1_015DA5B5
 BYTE   PATT
  POIN2 Label_1_015DA5B5
 BYTE   PATT
  POIN2 Label_1_015DA5CD
 BYTE   PATT
  POIN2 Label_1_015DA5E0
 BYTE   PATT
  POIN2 Label_1_015DA5F3
 BYTE   PATT
  POIN2 Label_1_015DA608
 BYTE   PATT
  POIN2 Label_1_015DA5F3
// 015   ----------------------------------------
 BYTE   N72  Dn1  v052
 BYTE   N72  Dn2  v096
 BYTE   W12
 BYTE   N12  Fs2
 BYTE   W12
 BYTE   N72  Dn3
 BYTE   W12
 BYTE   N12  Fs3
 BYTE   W12
 BYTE   An3
 BYTE   W12
 BYTE   N72  Fs3
 BYTE   W12
Label_1_015DA6DA:
 BYTE   N12  Gn1  v096
 BYTE   W12
 BYTE   N60  As1
 BYTE   W12
// 016   ----------------------------------------
 BYTE   N12  Dn2
 BYTE   W12
 BYTE   Gn2
 BYTE   W12
 BYTE   As2
 BYTE   W12
 BYTE   N36  Gn2
 BYTE   W12
 BYTE   PEND 
 BYTE   PATT
  POIN2 Label_1_015DA6DA
 BYTE   PATT
  POIN2 Label_1_015DA6DA
 BYTE   PATT
  POIN2 Label_1_015DA6DA
 BYTE   PATT
  POIN2 Label_1_015DA6DA
 BYTE   PATT
  POIN2 Label_1_015DA6DA
 BYTE   PATT
  POIN2 Label_1_015DA6DA
 BYTE   PATT
  POIN2 Label_1_015DA6DA
 BYTE   PATT
  POIN2 Label_1_015DA6DA
 BYTE   PATT
  POIN2 Label_1_015DA6DA
// 017   ----------------------------------------
 BYTE   N12  Gs1  v096
 BYTE   W12
 BYTE   N60  Cn2
 BYTE   W12
 BYTE   N12  Ds2
 BYTE   W12
 BYTE   Gs2
 BYTE   W12
 BYTE   Cn3
 BYTE   W12
 BYTE   N36  Gs2
 BYTE   W12
 BYTE   N12  Gs1
 BYTE   W12
 BYTE   N72  Cn2
 BYTE   W12
// 018   ----------------------------------------
 BYTE   N12  Ds2
 BYTE   W12
 BYTE   Gs2
 BYTE   W12
 BYTE   Cn3
 BYTE   W12
 BYTE   N36  Gs2
 BYTE   W12
Label_1_015DA73A:
 BYTE   N72  Dn1  v096
 BYTE   W12
 BYTE   Gn1
 BYTE   W12
 BYTE   Dn2
 BYTE   W12
 BYTE   N12  Fs2
 BYTE   W12
// 019   ----------------------------------------
 BYTE   Gn2
 BYTE   W12
 BYTE   N48  An2
 BYTE   W12
 BYTE   PEND 
 BYTE   PATT
  POIN2 Label_1_015DA73A
 BYTE   PATT
  POIN2 Label_1_015DA73A
// 020   ----------------------------------------
 BYTE   N72  Dn1  v096
 BYTE   W12
 BYTE   TIE  Gn1
 BYTE   W12
 BYTE   N48  Dn2
 BYTE   W12
 BYTE   N12  Fs2
 BYTE   W12
 BYTE   Gn2
 BYTE   W12
 BYTE   N84  An2
 BYTE   W12
 BYTE   N72  Dn1
 BYTE   N72  Dn2
 BYTE   W72
// 021   ----------------------------------------
 BYTE   EOT
 BYTE   Gn1
 BYTE   N72  Ds1
 BYTE   N72  Ds2
 BYTE   W72
 BYTE   Fs1
 BYTE   N72  Fs2
 BYTE   W72
// 022   ----------------------------------------
 BYTE   An1
 BYTE   N72  An2
 BYTE   W72
Label_1_015DA77B:
 BYTE   N72  Dn1  v096
 BYTE   N72  Gn1
 BYTE   N72  Dn2
 BYTE   W72
 BYTE   PEND 
 BYTE   PATT
  POIN2 Label_1_015DA77B
// 023   ----------------------------------------
Label_1_015DA789:
 BYTE   N72  En1  v096
 BYTE   N72  An1
 BYTE   N72  En2
 BYTE   W72
 BYTE   PEND 
Label_1_015DA792:
 BYTE   N72  Dn1  v096
 BYTE   N72  An1
 BYTE   N72  Dn2
 BYTE   W72
 BYTE   PEND 
// 024   ----------------------------------------
Label_1_015DA79B:
 BYTE   N72  Fn1  v096
 BYTE   N72  As1
 BYTE   N72  Fn2
 BYTE   W72
 BYTE   PEND 
 BYTE   PATT
  POIN2 Label_1_015DA79B
// 025   ----------------------------------------
Label_1_015DA7A9:
 BYTE   N72  Gn1  v096
 BYTE   N72  Cn2
 BYTE   N72  Gn2
 BYTE   W72
 BYTE   PEND 
 BYTE   PATT
  POIN2 Label_1_015DA792
// 026   ----------------------------------------
Label_1_015DA7B7:
 BYTE   N72  Cs1  v096
 BYTE   N72  Gs1
 BYTE   N72  Cs2
 BYTE   W72
 BYTE   PEND 
 BYTE   PATT
  POIN2 Label_1_015DA7B7
 BYTE   PATT
  POIN2 Label_1_015DA792
 BYTE   PATT
  POIN2 Label_1_015DA792
 BYTE   PATT
  POIN2 Label_1_015DA77B
 BYTE   PATT
  POIN2 Label_1_015DA77B
 BYTE   PATT
  POIN2 Label_1_015DA789
 BYTE   PATT
  POIN2 Label_1_015DA792
 BYTE   PATT
  POIN2 Label_1_015DA79B
 BYTE   PATT
  POIN2 Label_1_015DA79B
 BYTE   PATT
  POIN2 Label_1_015DA7A9
 BYTE   PATT
  POIN2 Label_1_015DA792
 BYTE   PATT
  POIN2 Label_1_015DA7B7
 BYTE   PATT
  POIN2 Label_1_015DA7B7
 BYTE   PATT
  POIN2 Label_1_015DA792
 BYTE   PATT
  POIN2 Label_1_015DA792
// 027   ----------------------------------------
Label_1_015DA80B:
 BYTE   N72  As1  v096
 BYTE   N72  Ds2
 BYTE   N72  Gn2
 BYTE   W72
 BYTE   PEND 
 BYTE   PATT
  POIN2 Label_1_015DA80B
 BYTE   PATT
  POIN2 Label_1_015DA80B
 BYTE   PATT
  POIN2 Label_1_015DA80B
// 028   ----------------------------------------
Label_1_015DA823:
 BYTE   N72  An1  v096
 BYTE   N72  Dn2
 BYTE   N72  Gn2
 BYTE   W72
 BYTE   PEND 
Label_1_015DA82C:
 BYTE   N72  An1  v096
 BYTE   N72  Dn2
 BYTE   N72  Fs2
 BYTE   W72
 BYTE   PEND 
// 029   ----------------------------------------
 BYTE   N24  An1
 BYTE   N24  Dn2
 BYTE   N24  Gn2
 BYTE   W24
 BYTE   TIE  An1
 BYTE   TIE  Dn2
 BYTE   TIE  Fs2
 BYTE   W48
 BYTE   W72
// 030   ----------------------------------------
 BYTE   EOT
 BYTE   An1  v050
 BYTE   Fs2
 BYTE   PATT
  POIN2 Label_1_015DA80B
 BYTE   PATT
  POIN2 Label_1_015DA80B
 BYTE   PATT
  POIN2 Label_1_015DA80B
 BYTE   PATT
  POIN2 Label_1_015DA80B
 BYTE   PATT
  POIN2 Label_1_015DA823
 BYTE   PATT
  POIN2 Label_1_015DA82C
// 031   ----------------------------------------
 BYTE   TIE  As1  v096
 BYTE   TIE  Ds2
 BYTE   TIE  Gn2
 BYTE   W72
 BYTE   W72
// 032   ----------------------------------------
 BYTE   EOT
 BYTE   As1  v051
 BYTE   Gn2
 BYTE   W72
 BYTE   W72
// 033   ----------------------------------------
 BYTE   W72
 BYTE   W72
// 034   ----------------------------------------
 BYTE   W72
 BYTE   W72
// 035   ----------------------------------------
 BYTE   W72
 BYTE   W72
// 036   ----------------------------------------
 BYTE   W72
 BYTE   W72
// 037   ----------------------------------------
 BYTE   W72
 BYTE   W72
// 038   ----------------------------------------
 BYTE   W72
 BYTE   GoTo
  POIN2 Label_1_015DA638
// 039   ----------------------------------------
 BYTE   W72
 BYTE   W72
// 040   ----------------------------------------
 BYTE   W72
 BYTE   W72
// 041   ----------------------------------------
 BYTE   W72
 BYTE   W72
// 042   ----------------------------------------
 BYTE   W72
 BYTE   W72
// 043   ----------------------------------------
 BYTE   VOL   22*XenobladeChroniclesTragicDecisionRandomWizard_mvl/mxv
 BYTE   W06
 BYTE   AsM1
 BYTE   W06
 BYTE   AnM1
 BYTE   W06
 BYTE   AnM1
 BYTE   W06
 BYTE   GsM1
 BYTE   W06
 BYTE   GsM1
 BYTE   W06
 BYTE   GsM1
 BYTE   W06
 BYTE   GnM1
 BYTE   W06
 BYTE   GnM1
 BYTE   W06
 BYTE   GnM1
 BYTE   W06
 BYTE   FsM1
 BYTE   W06
 BYTE   FsM1
 BYTE   W06
 BYTE   FsM1
 BYTE   W06
 BYTE   FnM1
 BYTE   W06
 BYTE   FnM1
 BYTE   W06
 BYTE   FnM1
 BYTE   W06
// 044   ----------------------------------------
 BYTE   EnM1
 BYTE   W06
 BYTE   EnM1
 BYTE   W06
 BYTE   EnM1
 BYTE   W06
 BYTE   DsM1
 BYTE   W06
 BYTE   DsM1
 BYTE   W06
 BYTE   DsM1
 BYTE   W06
 BYTE   DnM1
 BYTE   W06
 BYTE   DnM1
 BYTE   W06
 BYTE   CsM1
 BYTE   W06
 BYTE   CsM1
 BYTE   W06
 BYTE   CsM1
 BYTE   W06
 BYTE   CnM1
 BYTE   W06
 BYTE   CnM1
 BYTE   W06
 BYTE   CnM1
 BYTE   W06
 BYTE   BnM2
 BYTE   W06
 BYTE   BnM2
 BYTE   W06
// 045   ----------------------------------------
 BYTE   BnM2
 BYTE   W06
 BYTE   AsM2
 BYTE   W06
 BYTE   AsM2
 BYTE   W06
 BYTE   AsM2
 BYTE   W06
 BYTE   AnM2
 BYTE   W06
 BYTE   AnM2
 BYTE   W06
 BYTE   AnM2
 BYTE   W06
 BYTE   GsM2
 BYTE   W06
 BYTE   GsM2
 BYTE   W06
 BYTE   GnM2
 BYTE   W06
 BYTE   GnM2
 BYTE   W06
 BYTE   GnM2
 BYTE   W06
 BYTE   FsM2
 BYTE   W06
 BYTE   FsM2
 BYTE   W06
 BYTE   FsM2
 BYTE   W06
 BYTE   FnM2
 BYTE   W06
// 046   ----------------------------------------
 BYTE   FnM2
 BYTE   W06
 BYTE   FnM2
 BYTE   W06
 BYTE   FnM2
 BYTE   W06
 BYTE   EnM2
 BYTE   W06
 BYTE   EnM2
 BYTE   W06
 BYTE   DsM2
 BYTE   W06
 BYTE   DsM2
 BYTE   W06
 BYTE   DsM2
 BYTE   W06
 BYTE   DnM2
 BYTE   W06
 BYTE   DnM2
 BYTE   W06
 BYTE   DnM2
 BYTE   W06
 BYTE   CsM2
 BYTE   W06
 BYTE   CsM2
 BYTE   W06
 BYTE   CnM2
 BYTE   W06
 BYTE   CnM2
 BYTE   W06
 BYTE   CnM2
 BYTE   W06
// 047   ----------------------------------------
 BYTE   CnM2
 BYTE   W48
 BYTE   W72
// 048   ----------------------------------------
 BYTE   W72
 BYTE   FINE

//**************** Track 3 (Midi-Chn.2) ****************//

XenobladeChroniclesTragicDecisionRandomWizard_003:
// 000   ----------------------------------------
 BYTE   KEYSH   XenobladeChroniclesTragicDecisionRandomWizard_key+0
 BYTE   VOICE   29
 BYTE   VOL   22*XenobladeChroniclesTragicDecisionRandomWizard_mvl/mxv
 BYTE   PAN   c_v-16
 BYTE   BEND   c_v+0
 BYTE   W72
 BYTE   W72
// 001   ----------------------------------------
 BYTE   W72
 BYTE   W72
// 002   ----------------------------------------
 BYTE   W72
 BYTE   W72
// 003   ----------------------------------------
 BYTE   W72
 BYTE   W72
// 004   ----------------------------------------
 BYTE   W72
 BYTE   W72
// 005   ----------------------------------------
 BYTE   W72
 BYTE   W72
// 006   ----------------------------------------
 BYTE   W72
 BYTE   W72
// 007   ----------------------------------------
 BYTE   W72
 BYTE   W72
// 008   ----------------------------------------
Label_2_015DA92E:
 BYTE   W72
 BYTE   W72
// 009   ----------------------------------------
 BYTE   W72
 BYTE   W72
// 010   ----------------------------------------
 BYTE   W72
 BYTE   W72
// 011   ----------------------------------------
 BYTE   W72
 BYTE   W72
// 012   ----------------------------------------
 BYTE   W72
 BYTE   W72
// 013   ----------------------------------------
 BYTE   W72
 BYTE   W72
// 014   ----------------------------------------
 BYTE   W72
 BYTE   W72
// 015   ----------------------------------------
 BYTE   W72
 BYTE   W72
// 016   ----------------------------------------
 BYTE   W72
 BYTE   W72
// 017   ----------------------------------------
 BYTE   W72
 BYTE   W72
// 018   ----------------------------------------
 BYTE   W72
 BYTE   W72
// 019   ----------------------------------------
 BYTE   W72
 BYTE   W72
// 020   ----------------------------------------
 BYTE   W72
 BYTE   W72
// 021   ----------------------------------------
 BYTE   W72
 BYTE   W72
// 022   ----------------------------------------
 BYTE   W72
 BYTE   W72
// 023   ----------------------------------------
 BYTE   W72
 BYTE   W72
// 024   ----------------------------------------
 BYTE   N24  Dn2  v096
 BYTE   W24
 BYTE   Ds3
 BYTE   W24
 BYTE   Dn3
 BYTE   W24
 BYTE   Ds2
 BYTE   W24
// 025   ----------------------------------------
 BYTE   Ds3
 BYTE   W24
 BYTE   Dn3
 BYTE   W24
 BYTE   Fs2
 BYTE   W24
 BYTE   Fs3
 BYTE   W24
// 026   ----------------------------------------
 BYTE   Dn3
 BYTE   W24
 BYTE   An2
 BYTE   W24
 BYTE   An3
 BYTE   W24
 BYTE   Dn3
 BYTE   W24
// 027   ----------------------------------------
Label_2_015DA968:
 BYTE   N36  Gn1  v096
 BYTE   N36  Dn2
 BYTE   N36  Gn2
 BYTE   W36
 BYTE   N24  Gn1
 BYTE   N24  Dn2
 BYTE   N24  Gn2
 BYTE   W24
 BYTE   N12  Gn1
 BYTE   N12  Dn2
 BYTE   N12  Gn2
 BYTE   W12
 BYTE   PEND 
 BYTE   PATT
  POIN2 Label_2_015DA968
// 028   ----------------------------------------
Label_2_015DA984:
 BYTE   N36  An1  v096
 BYTE   N36  En2
 BYTE   N36  An2
 BYTE   W36
 BYTE   N24  An1
 BYTE   N24  En2
 BYTE   N24  An2
 BYTE   W24
 BYTE   N12  An1
 BYTE   N12  En2
 BYTE   N12  An2
 BYTE   W12
 BYTE   PEND 
Label_2_015DA99B:
 BYTE   N24  Dn2  v096
 BYTE   N24  An2
 BYTE   N24  Dn3
 BYTE   W24
// 029   ----------------------------------------
 BYTE   N12  Dn2
 BYTE   N12  An2
 BYTE   N12  Dn3
 BYTE   W12
 BYTE   Dn2
 BYTE   N12  An2
 BYTE   N12  Dn3
 BYTE   W12
 BYTE   Dn2
 BYTE   N12  An2
 BYTE   N12  Dn3
 BYTE   W12
 BYTE   Dn2
 BYTE   N12  An2
 BYTE   N12  Dn3
 BYTE   W12
 BYTE   PEND 
Label_2_015DA9BD:
 BYTE   N36  As1  v096
 BYTE   N36  Fn2
 BYTE   N36  As2
 BYTE   W36
 BYTE   N24  As1
 BYTE   N24  Fn2
 BYTE   N24  As2
 BYTE   W24
// 030   ----------------------------------------
 BYTE   N12  As1
 BYTE   N12  Fn2
 BYTE   N12  As2
 BYTE   W12
 BYTE   PEND 
 BYTE   PATT
  POIN2 Label_2_015DA9BD
// 031   ----------------------------------------
Label_2_015DA9D9:
 BYTE   N36  Cn2  v096
 BYTE   N36  Gn2
 BYTE   N36  Cn3
 BYTE   W36
 BYTE   N24  Cn2
 BYTE   N24  Gn2
 BYTE   N24  Cn3
 BYTE   W24
 BYTE   N12  Cn2
 BYTE   N12  Gn2
 BYTE   N12  Cn3
 BYTE   W12
 BYTE   PEND 
 BYTE   PATT
  POIN2 Label_2_015DA99B
// 032   ----------------------------------------
Label_2_015DA9F5:
 BYTE   TIE  Cs2  v096
 BYTE   TIE  Gs2
 BYTE   TIE  Cs3
 BYTE   W72
 BYTE   PEND 
 BYTE   W72
// 033   ----------------------------------------
 BYTE   EOT
 BYTE   Cs2  v056
 BYTE   Cs3
Label_2_015DAA03:
 BYTE   TIE  Dn2  v096
 BYTE   TIE  An2
 BYTE   TIE  Dn3
 BYTE   W72
 BYTE   PEND 
 BYTE   W72
// 034   ----------------------------------------
 BYTE   EOT
 BYTE   Dn2  v057
 BYTE   Dn3
 BYTE   PATT
  POIN2 Label_2_015DA968
 BYTE   PATT
  POIN2 Label_2_015DA968
 BYTE   PATT
  POIN2 Label_2_015DA984
 BYTE   PATT
  POIN2 Label_2_015DA99B
 BYTE   PATT
  POIN2 Label_2_015DA9BD
// 035   ----------------------------------------
 BYTE   N36  Bn1  v096
 BYTE   N36  Fs2
 BYTE   N36  Bn2
 BYTE   W36
 BYTE   N24  Bn1
 BYTE   N24  Fs2
 BYTE   N24  Bn2
 BYTE   W24
 BYTE   N12  Bn1
 BYTE   N12  Fs2
 BYTE   N12  Bn2
 BYTE   W12
 BYTE   PATT
  POIN2 Label_2_015DA9D9
 BYTE   PATT
  POIN2 Label_2_015DA99B
 BYTE   PATT
  POIN2 Label_2_015DA9F5
// 036   ----------------------------------------
 BYTE   W72
 BYTE   EOT
 BYTE   Cs2  v056
 BYTE   Cs3
 BYTE   PATT
  POIN2 Label_2_015DAA03
// 037   ----------------------------------------
 BYTE   W72
 BYTE   EOT
 BYTE   Dn2  v057
 BYTE   Dn3
 BYTE   W72
// 038   ----------------------------------------
 BYTE   W72
 BYTE   W72
// 039   ----------------------------------------
 BYTE   W72
 BYTE   W72
// 040   ----------------------------------------
 BYTE   W72
 BYTE   W72
// 041   ----------------------------------------
 BYTE   W72
 BYTE   VOICE   30
 BYTE   VOL   15*XenobladeChroniclesTragicDecisionRandomWizard_mvl/mxv
 BYTE   N36  An3  v096
 BYTE   W36
// 042   ----------------------------------------
 BYTE   As3
 BYTE   W36
Label_2_015DAA70:
 BYTE   N48  Gn3  v096
 BYTE   W48
 BYTE   N24  As3
 BYTE   W24
 BYTE   PEND 
// 043   ----------------------------------------
 BYTE   N36  An3
 BYTE   W36
 BYTE   As3
 BYTE   W36
 BYTE   PATT
  POIN2 Label_2_015DAA70
// 044   ----------------------------------------
 BYTE   N36  Gn3  v096
 BYTE   W36
 BYTE   An3
 BYTE   W36
 BYTE   N48  Fs3
 BYTE   W48
// 045   ----------------------------------------
 BYTE   N24  Gn3
 BYTE   W24
 BYTE   N72  An3
 BYTE   W72
// 046   ----------------------------------------
 BYTE   N09  Gn1  v076
 BYTE   W12
 BYTE   N12  Gn1  v096
 BYTE   W12
 BYTE   N12
 BYTE   N12  Dn2
 BYTE   W12
 BYTE   Gn1
 BYTE   N12  Dn2
 BYTE   W12
 BYTE   Gn1  v127
 BYTE   N12  Dn2
 BYTE   N12  Gn2
 BYTE   W12
 BYTE   Gn1
 BYTE   N12  Dn2
 BYTE   N12  Gn2
 BYTE   W12
 BYTE   VOL   27*XenobladeChroniclesTragicDecisionRandomWizard_mvl/mxv
 BYTE   N12  Gn1  v096
 BYTE   N12  Dn2
 BYTE   N12  Gn2
 BYTE   W12
 BYTE   Gn1
 BYTE   N12  Dn2
 BYTE   N12  Gn2
 BYTE   W24
// 047   ----------------------------------------
 BYTE   Gn1
 BYTE   N12  Dn2
 BYTE   N12  Gn2
 BYTE   W24
 BYTE   Gn1
 BYTE   N12  Dn2
 BYTE   N12  Gn2
 BYTE   W12
Label_2_015DAACA:
 BYTE   N72  Gs1  v096
 BYTE   N72  Ds2
 BYTE   N72  Gs2
 BYTE   W72
 BYTE   PEND 
// 048   ----------------------------------------
Label_2_015DAAD3:
 BYTE   N12  Gs1  v096
 BYTE   N12  Ds2
 BYTE   N12  Gs2
 BYTE   W12
 BYTE   Gs1
 BYTE   N12  Ds2
 BYTE   N12  Gs2
 BYTE   W24
 BYTE   Gs1
 BYTE   N12  Ds2
 BYTE   N12  Gs2
 BYTE   W24
 BYTE   Gs1
 BYTE   N12  Ds2
 BYTE   N12  Gs2
 BYTE   W12
 BYTE   PEND 
Label_2_015DAAEE:
 BYTE   N72  Gn1  v096
 BYTE   N72  Dn2
 BYTE   N72  Gn2
 BYTE   W72
 BYTE   PEND 
// 049   ----------------------------------------
 BYTE   N12  Gn1
 BYTE   N12  Dn2
 BYTE   N12  Gn2
 BYTE   W12
 BYTE   Gn1
 BYTE   N12  Dn2
 BYTE   N12  Gn2
 BYTE   W24
 BYTE   Gn1
 BYTE   N12  Dn2
 BYTE   N12  Gn2
 BYTE   W24
 BYTE   Gn1
 BYTE   N12  Dn2
 BYTE   N12  Gn2
 BYTE   W12
 BYTE   PATT
  POIN2 Label_2_015DAACA
 BYTE   PATT
  POIN2 Label_2_015DAAD3
// 050   ----------------------------------------
 BYTE   N72  As1  v096
 BYTE   N72  Fn2
 BYTE   N72  As2
 BYTE   W72
 BYTE   N12  As1
 BYTE   N12  Fn2
 BYTE   N12  As2
 BYTE   W12
 BYTE   As1
 BYTE   N12  Fn2
 BYTE   N12  As2
 BYTE   W24
// 051   ----------------------------------------
 BYTE   As1
 BYTE   N12  Fn2
 BYTE   N12  As2
 BYTE   W24
 BYTE   As1
 BYTE   N12  Fn2
 BYTE   N12  As2
 BYTE   W12
 BYTE   N72  Bn1
 BYTE   N72  Fs2
 BYTE   N72  Bn2
 BYTE   W72
// 052   ----------------------------------------
 BYTE   N12  Bn1
 BYTE   N12  Fs2
 BYTE   N12  Bn2
 BYTE   W12
 BYTE   Bn1
 BYTE   N12  Fs2
 BYTE   N12  Bn2
 BYTE   W24
 BYTE   Bn1
 BYTE   N12  Fs2
 BYTE   N12  Bn2
 BYTE   W24
 BYTE   Bn1
 BYTE   N12  Fs2
 BYTE   N12  Bn2
 BYTE   W12
 BYTE   PATT
  POIN2 Label_2_015DAAEE
 BYTE   PATT
  POIN2 Label_2_015DAAEE
// 053   ----------------------------------------
 BYTE   GoTo
  POIN2 Label_2_015DA92E
// 054   ----------------------------------------
Label_2_015DAB6A:
 BYTE   TIE  Ds2  v096
 BYTE   TIE  As2
 BYTE   TIE  Ds3
 BYTE   W72
 BYTE   PEND 
 BYTE   W72
// 055   ----------------------------------------
 BYTE   EOT
 BYTE   Ds2  v058
 BYTE   Ds3
Label_2_015DAB78:
 BYTE   TIE  Gn1  v096
 BYTE   TIE  Dn2
 BYTE   TIE  Gn2
 BYTE   W72
 BYTE   PEND 
 BYTE   W72
// 056   ----------------------------------------
 BYTE   EOT
 BYTE   Gn1  v050
 BYTE   Gn2
 BYTE   PATT
  POIN2 Label_2_015DAB6A
// 057   ----------------------------------------
 BYTE   W72
 BYTE   EOT
 BYTE   Ds2  v058
 BYTE   Ds3
 BYTE   PATT
  POIN2 Label_2_015DAB78
// 058   ----------------------------------------
 BYTE   W72
 BYTE   EOT
 BYTE   Gn1  v050
 BYTE   Gn2
 BYTE   VOL   27*XenobladeChroniclesTragicDecisionRandomWizard_mvl/mxv
 BYTE   TIE  Ds2  v096
 BYTE   TIE  As2
 BYTE   TIE  Ds3
 BYTE   W06
 BYTE   VOL   26*XenobladeChroniclesTragicDecisionRandomWizard_mvl/mxv
 BYTE   W06
 BYTE   Dn0
 BYTE   W06
 BYTE   Dn0
 BYTE   W06
// 059   ----------------------------------------
 BYTE   Cs0
 BYTE   W06
 BYTE   Cs0
 BYTE   W06
 BYTE   Cn0
 BYTE   W06
 BYTE   Cn0
 BYTE   W06
 BYTE   BnM1
 BYTE   W06
 BYTE   BnM1
 BYTE   W06
 BYTE   AsM1
 BYTE   W06
 BYTE   AsM1
 BYTE   W06
 BYTE   AsM1
 BYTE   W06
 BYTE   AnM1
 BYTE   W06
 BYTE   AnM1
 BYTE   W06
 BYTE   GsM1
 BYTE   W06
 BYTE   GsM1
 BYTE   W06
 BYTE   GsM1
 BYTE   W06
 BYTE   GnM1
 BYTE   W06
 BYTE   GnM1
 BYTE   W06
// 060   ----------------------------------------
 BYTE   FsM1
 BYTE   W06
 BYTE   FsM1
 BYTE   W06
 BYTE   FnM1
 BYTE   W06
 BYTE   FnM1
 BYTE   W06
 BYTE   EOT
 BYTE   Ds2  v058
 BYTE   Ds3
 BYTE   VOL   17*XenobladeChroniclesTragicDecisionRandomWizard_mvl/mxv
 BYTE   TIE  An1
 BYTE   TIE  En2
 BYTE   TIE  An2
 BYTE   W06
 BYTE   VOL   16*XenobladeChroniclesTragicDecisionRandomWizard_mvl/mxv
 BYTE   W06
 BYTE   EnM1
 BYTE   W06
 BYTE   DsM1
 BYTE   W06
 BYTE   DsM1
 BYTE   W06
 BYTE   DnM1
 BYTE   W06
 BYTE   DnM1
 BYTE   W06
 BYTE   DnM1
 BYTE   W06
 BYTE   CsM1
 BYTE   W06
 BYTE   CsM1
 BYTE   W06
 BYTE   CnM1
 BYTE   W06
 BYTE   CnM1
 BYTE   W06
// 061   ----------------------------------------
 BYTE   BnM2
 BYTE   W06
 BYTE   BnM2
 BYTE   W06
 BYTE   BnM2
 BYTE   W06
 BYTE   AsM2
 BYTE   W06
 BYTE   AsM2
 BYTE   W06
 BYTE   AnM2
 BYTE   W06
 BYTE   AnM2
 BYTE   W06
 BYTE   GsM2
 BYTE   W06
 BYTE   GsM2
 BYTE   W06
 BYTE   GsM2
 BYTE   W06
 BYTE   GnM2
 BYTE   W06
 BYTE   GnM2
 BYTE   W06
 BYTE   EOT
 BYTE   An1  v052
 BYTE   An2
 BYTE   VOL   6*XenobladeChroniclesTragicDecisionRandomWizard_mvl/mxv
 BYTE   TIE  Dn2
 BYTE   TIE  An2
 BYTE   TIE  Dn3
 BYTE   W06
 BYTE   VOL   6*XenobladeChroniclesTragicDecisionRandomWizard_mvl/mxv
 BYTE   W06
 BYTE   FnM2
 BYTE   W06
 BYTE   FnM2
 BYTE   W06
// 062   ----------------------------------------
 BYTE   FnM2
 BYTE   W06
 BYTE   EnM2
 BYTE   W06
 BYTE   EnM2
 BYTE   W06
 BYTE   DsM2
 BYTE   W06
 BYTE   DsM2
 BYTE   W06
 BYTE   DnM2
 BYTE   W06
 BYTE   DnM2
 BYTE   W06
 BYTE   DnM2
 BYTE   W06
 BYTE   CsM2
 BYTE   W06
 BYTE   CsM2
 BYTE   W06
 BYTE   CnM2
 BYTE   W06
 BYTE   CnM2
 BYTE   W06
 BYTE   CnM2
 BYTE   W48
// 063   ----------------------------------------
 BYTE   EOT
 BYTE   Dn2  v057
 BYTE   Dn3
 BYTE   PATT
  POIN2 Label_2_015DAA03
// 064   ----------------------------------------
 BYTE   W72
 BYTE   EOT
 BYTE   Dn2  v057
 BYTE   Dn3
 BYTE   FINE

//**************** Track 4 (Midi-Chn.3) ****************//

XenobladeChroniclesTragicDecisionRandomWizard_004:
// 000   ----------------------------------------
 BYTE   KEYSH   XenobladeChroniclesTragicDecisionRandomWizard_key+0
 BYTE   VOICE   33
 BYTE   VOL   37*XenobladeChroniclesTragicDecisionRandomWizard_mvl/mxv
 BYTE   PAN   c_v+32
 BYTE   BEND   c_v+0
 BYTE   W72
 BYTE   W72
// 001   ----------------------------------------
 BYTE   W72
 BYTE   W72
// 002   ----------------------------------------
 BYTE   W72
 BYTE   W72
// 003   ----------------------------------------
 BYTE   W72
 BYTE   W72
// 004   ----------------------------------------
 BYTE   W72
 BYTE   W72
// 005   ----------------------------------------
 BYTE   W72
 BYTE   W72
// 006   ----------------------------------------
 BYTE   W72
 BYTE   W72
// 007   ----------------------------------------
 BYTE   W72
 BYTE   W72
// 008   ----------------------------------------
Label_3_015DAC66:
 BYTE   W72
 BYTE   W72
// 009   ----------------------------------------
 BYTE   W72
 BYTE   W72
// 010   ----------------------------------------
 BYTE   W72
 BYTE   W72
// 011   ----------------------------------------
 BYTE   W72
 BYTE   W72
// 012   ----------------------------------------
 BYTE   W72
 BYTE   W72
// 013   ----------------------------------------
 BYTE   W72
 BYTE   W72
// 014   ----------------------------------------
 BYTE   W72
 BYTE   W72
// 015   ----------------------------------------
 BYTE   W72
 BYTE   W72
// 016   ----------------------------------------
 BYTE   N72  Ds1  v096
 BYTE   W72
Label_3_015DAC7A:
 BYTE   N24  Ds1  v096
 BYTE   W24
// 017   ----------------------------------------
 BYTE   TIE
 BYTE   W28
 BYTE   BEND   c_v-5
 BYTE   W03
 BYTE   Fn2
 BYTE   W03
 BYTE   Cn2
 BYTE   W03
 BYTE   Gn1
 BYTE   W02
 BYTE   Cs1
 BYTE   W03
 BYTE   Gs0
 BYTE   W03
 BYTE   Ds0
 BYTE   W03
 BYTE   PEND 
 BYTE   AnM1
 BYTE   W72
// 018   ----------------------------------------
 BYTE   EOT
Label_3_015DAC93:
 BYTE   BEND   c_v+0
 BYTE   N24  Gn0  v096
 BYTE   W24
 BYTE   TIE
 BYTE   W28
 BYTE   BEND   c_v+5
 BYTE   W03
 BYTE   Ds4
 BYTE   W03
 BYTE   Gs4
 BYTE   W03
 BYTE   Cs5
 BYTE   W02
 BYTE   Gn5
 BYTE   W03
 BYTE   Cn6
 BYTE   W03
 BYTE   Fn6
 BYTE   W03
 BYTE   PEND 
 BYTE   Bn6
 BYTE   W72
// 019   ----------------------------------------
 BYTE   EOT
Label_3_015DACAE:
 BYTE   BEND   c_v+0
 BYTE   N24  Ds1  v096
 BYTE   W24
 BYTE   TIE
 BYTE   W28
 BYTE   BEND   c_v-5
 BYTE   W03
 BYTE   Fn2
 BYTE   W03
 BYTE   Cn2
 BYTE   W03
 BYTE   Gn1
 BYTE   W02
 BYTE   Cs1
 BYTE   W03
 BYTE   Gs0
 BYTE   W03
 BYTE   Ds0
 BYTE   W03
 BYTE   PEND 
 BYTE   AnM1
 BYTE   W72
// 020   ----------------------------------------
 BYTE   EOT
 BYTE   PATT
  POIN2 Label_3_015DAC93
// 021   ----------------------------------------
 BYTE   BEND   c_v+43
 BYTE   W72
 BYTE   EOT
 BYTE   Gn0
 BYTE   BEND   c_v+0
 BYTE   N24  Ds1  v096
 BYTE   W24
// 022   ----------------------------------------
 BYTE   TIE
 BYTE   W30
 BYTE   W01
 BYTE   BEND   c_v-5
 BYTE   W03
 BYTE   Fn2
 BYTE   W02
 BYTE   Cn2
 BYTE   W03
 BYTE   Gn1
 BYTE   W03
 BYTE   Cs1
 BYTE   W03
 BYTE   Gs0
 BYTE   W03
 BYTE   Ds0
 BYTE   W72
// 023   ----------------------------------------
 BYTE   EOT
 BYTE   BEND   c_v+0
 BYTE   N24  Gs0
 BYTE   W24
 BYTE   TIE
 BYTE   W32
 BYTE   W01
 BYTE   BEND   c_v+5
 BYTE   W03
 BYTE   Ds4
 BYTE   W03
 BYTE   Gs4
 BYTE   W03
 BYTE   Cs5
 BYTE   W03
 BYTE   Gn5
 BYTE   W03
 BYTE   Cn6
 BYTE   W72
// 024   ----------------------------------------
 BYTE   EOT
 BYTE   BEND   c_v+0
 BYTE   N24  Dn1
 BYTE   W24
 BYTE   N48
 BYTE   W48
Label_3_015DAD09:
 BYTE   N24  Dn1  v096
 BYTE   W24
// 025   ----------------------------------------
 BYTE   N48
 BYTE   W48
 BYTE   PEND 
 BYTE   PATT
  POIN2 Label_3_015DAD09
// 026   ----------------------------------------
 BYTE   N48  Dn1  v096
 BYTE   W48
 BYTE   N24
 BYTE   W24
 BYTE   N48  Ds1
 BYTE   W48
// 027   ----------------------------------------
 BYTE   N24
 BYTE   W24
 BYTE   N48  Fs1
 BYTE   W48
 BYTE   N24
 BYTE   W24
// 028   ----------------------------------------
 BYTE   N48  An1
 BYTE   W48
 BYTE   N24
 BYTE   W24
Label_3_015DAD2A:
 BYTE   N36  Gn0  v096
 BYTE   W36
// 029   ----------------------------------------
 BYTE   N24
 BYTE   W24
 BYTE   N12
 BYTE   W12
 BYTE   PEND 
 BYTE   PATT
  POIN2 Label_3_015DAD2A
// 030   ----------------------------------------
Label_3_015DAD38:
 BYTE   N36  An0  v096
 BYTE   W36
 BYTE   N24
 BYTE   W24
 BYTE   N12
 BYTE   W12
 BYTE   PEND 
Label_3_015DAD41:
 BYTE   N36  Dn1  v096
 BYTE   W36
// 031   ----------------------------------------
 BYTE   N24
 BYTE   W24
 BYTE   N12
 BYTE   W12
 BYTE   PEND 
Label_3_015DAD4A:
 BYTE   N36  As0  v096
 BYTE   W36
 BYTE   N24
 BYTE   W24
// 032   ----------------------------------------
 BYTE   N12
 BYTE   W12
 BYTE   PEND 
 BYTE   PATT
  POIN2 Label_3_015DAD4A
// 033   ----------------------------------------
Label_3_015DAD58:
 BYTE   N36  Cn1  v096
 BYTE   W36
 BYTE   N24
 BYTE   W24
 BYTE   N12
 BYTE   W12
 BYTE   PEND 
 BYTE   PATT
  POIN2 Label_3_015DAD41
// 034   ----------------------------------------
 BYTE   TIE  Cs1  v096
 BYTE   W72
 BYTE   W72
// 035   ----------------------------------------
 BYTE   EOT
 BYTE   TIE  Dn1
 BYTE   W72
 BYTE   W72
// 036   ----------------------------------------
 BYTE   EOT
 BYTE   PATT
  POIN2 Label_3_015DAD2A
 BYTE   PATT
  POIN2 Label_3_015DAD2A
 BYTE   PATT
  POIN2 Label_3_015DAD38
 BYTE   PATT
  POIN2 Label_3_015DAD41
 BYTE   PATT
  POIN2 Label_3_015DAD4A
// 037   ----------------------------------------
 BYTE   N36  Bn0  v096
 BYTE   W36
 BYTE   N24
 BYTE   W24
 BYTE   N12
 BYTE   W12
 BYTE   PATT
  POIN2 Label_3_015DAD58
 BYTE   PATT
  POIN2 Label_3_015DAD41
// 038   ----------------------------------------
 BYTE   TIE  Cs1  v096
 BYTE   W72
 BYTE   W72
// 039   ----------------------------------------
 BYTE   EOT
 BYTE   TIE  Dn1
 BYTE   W72
 BYTE   W72
// 040   ----------------------------------------
 BYTE   EOT
 BYTE   TIE  Ds1
 BYTE   W72
 BYTE   W60
// 041   ----------------------------------------
 BYTE   EOT
 BYTE   N12  As0
 BYTE   W12
 BYTE   TIE  Ds1
 BYTE   W72
 BYTE   W48
// 042   ----------------------------------------
 BYTE   EOT
 BYTE   N24
 BYTE   W24
 BYTE   TIE  Dn1
 BYTE   W72
// 043   ----------------------------------------
 BYTE   W60
 BYTE   EOT
 BYTE   N12  An0
 BYTE   W12
 BYTE   N96  Dn1
 BYTE   W72
// 044   ----------------------------------------
 BYTE   W24
 BYTE   N24
 BYTE   W24
 BYTE   N24
 BYTE   W24
 BYTE   TIE  Cn1
 BYTE   W72
// 045   ----------------------------------------
 BYTE   W60
 BYTE   EOT
 BYTE   N12  Gn0
 BYTE   W12
 BYTE   N96  Cn1
 BYTE   W72
// 046   ----------------------------------------
 BYTE   W24
 BYTE   N24
 BYTE   W24
 BYTE   N24
 BYTE   W24
 BYTE   N96  Dn1
 BYTE   W72
// 047   ----------------------------------------
 BYTE   W24
 BYTE   N24
 BYTE   W24
 BYTE   N96
 BYTE   W18
 BYTE   BEND   c_v+5
 BYTE   W01
 BYTE   Ds4
 BYTE   W02
 BYTE   Gs4
 BYTE   W01
 BYTE   Cs5
 BYTE   W02
 BYTE   Gn5
 BYTE   W72
// 048   ----------------------------------------
 BYTE   En3
 BYTE   N12  Gn1  v052
 BYTE   W12
 BYTE   N12
 BYTE   W12
 BYTE   Gn1  v096
 BYTE   W12
 BYTE   N12
 BYTE   W12
 BYTE   Gn1  v127
 BYTE   W12
 BYTE   N12
 BYTE   W12
 BYTE   W72
// 049   ----------------------------------------
Label_3_015DADFB:
 BYTE   N24  Gs0  v096
 BYTE   W24
 BYTE   Ds1
 BYTE   W24
 BYTE   Gs1
 BYTE   W24
 BYTE   PEND 
Label_3_015DAE04:
 BYTE   N12  Gs0  v096
 BYTE   W12
 BYTE   N24
 BYTE   W24
// 050   ----------------------------------------
 BYTE   N24
 BYTE   W24
 BYTE   N12
 BYTE   W12
 BYTE   PEND 
Label_3_015DAE0F:
 BYTE   N24  Gn0  v096
 BYTE   W24
 BYTE   Dn1
 BYTE   W24
 BYTE   Gn1
 BYTE   W24
 BYTE   PEND 
// 051   ----------------------------------------
Label_3_015DAE18:
 BYTE   N12  Gn0  v096
 BYTE   W12
 BYTE   N24
 BYTE   W24
 BYTE   N24
 BYTE   W24
 BYTE   N12
 BYTE   W12
 BYTE   PEND 
 BYTE   PATT
  POIN2 Label_3_015DADFB
 BYTE   PATT
  POIN2 Label_3_015DAE04
// 052   ----------------------------------------
 BYTE   N24  As0  v096
 BYTE   W24
 BYTE   Fn1
 BYTE   W24
 BYTE   As1
 BYTE   W24
 BYTE   N12  As0
 BYTE   W12
 BYTE   N24
 BYTE   W24
// 053   ----------------------------------------
 BYTE   N24
 BYTE   W24
 BYTE   N12
 BYTE   W12
 BYTE   N24  Bn0
 BYTE   W24
 BYTE   Fs1
 BYTE   W24
 BYTE   Bn1
 BYTE   W24
// 054   ----------------------------------------
 BYTE   N12  Bn0
 BYTE   W12
 BYTE   N24
 BYTE   W24
 BYTE   N24
 BYTE   W24
 BYTE   N12
 BYTE   W12
 BYTE   PATT
  POIN2 Label_3_015DAE0F
 BYTE   PATT
  POIN2 Label_3_015DAE18
// 055   ----------------------------------------
 BYTE   GoTo
  POIN2 Label_3_015DAC66
// 056   ----------------------------------------
 BYTE   N72  Ds1  v096
 BYTE   W72
 BYTE   PATT
  POIN2 Label_3_015DAC7A
// 057   ----------------------------------------
 BYTE   BEND   c_v-43
 BYTE   W72
 BYTE   EOT
 BYTE   Ds1
 BYTE   PATT
  POIN2 Label_3_015DAC93
// 058   ----------------------------------------
 BYTE   BEND   c_v+43
 BYTE   W72
 BYTE   EOT
 BYTE   Gn0
 BYTE   PATT
  POIN2 Label_3_015DACAE
// 059   ----------------------------------------
 BYTE   BEND   c_v-43
 BYTE   W72
 BYTE   EOT
 BYTE   Ds1
 BYTE   PATT
  POIN2 Label_3_015DAC93
// 060   ----------------------------------------
 BYTE   VOL   37*XenobladeChroniclesTragicDecisionRandomWizard_mvl/mxv
 BYTE   BEND   c_v+43
 BYTE   W06
 BYTE   VOL   36*XenobladeChroniclesTragicDecisionRandomWizard_mvl/mxv
 BYTE   W06
 BYTE   Bn0
 BYTE   W06
 BYTE   Bn0
 BYTE   W06
 BYTE   As0
 BYTE   W06
 BYTE   As0
 BYTE   W06
 BYTE   An0
 BYTE   W06
 BYTE   An0
 BYTE   W06
 BYTE   Gs0
 BYTE   W06
 BYTE   Gs0
 BYTE   W06
 BYTE   Gn0
 BYTE   W06
 BYTE   Fs0
 BYTE   W06
 BYTE   EOT
 BYTE   Gn0
 BYTE   VOL   30*XenobladeChroniclesTragicDecisionRandomWizard_mvl/mxv
 BYTE   BEND   c_v+0
 BYTE   N24  Ds1  v096
 BYTE   W06
 BYTE   VOL   29*XenobladeChroniclesTragicDecisionRandomWizard_mvl/mxv
 BYTE   W06
 BYTE   En0
 BYTE   W06
 BYTE   En0
 BYTE   W06
// 061   ----------------------------------------
 BYTE   En0
 BYTE   TIE
 BYTE   W06
 BYTE   VOL   27*XenobladeChroniclesTragicDecisionRandomWizard_mvl/mxv
 BYTE   W06
 BYTE   Dn0
 BYTE   W06
 BYTE   Dn0
 BYTE   W06
 BYTE   Cs0
 BYTE   W06
 BYTE   Cn0
 BYTE   W01
 BYTE   BEND   c_v-5
 BYTE   W03
 BYTE   Fn2
 BYTE   W02
 BYTE   VOL   24*XenobladeChroniclesTragicDecisionRandomWizard_mvl/mxv
 BYTE   BEND   c_v-16
 BYTE   W03
 BYTE   Gn1
 BYTE   W03
 BYTE   VOL   23*XenobladeChroniclesTragicDecisionRandomWizard_mvl/mxv
 BYTE   BEND   c_v-27
 BYTE   W03
 BYTE   Gs0
 BYTE   W03
 BYTE   VOL   23*XenobladeChroniclesTragicDecisionRandomWizard_mvl/mxv
 BYTE   BEND   c_v-37
 BYTE   W06
 BYTE   VOL   22*XenobladeChroniclesTragicDecisionRandomWizard_mvl/mxv
 BYTE   W06
 BYTE   AsM1
 BYTE   W06
 BYTE   AnM1
 BYTE   W06
 BYTE   GsM1
 BYTE   W06
 BYTE   GsM1
 BYTE   W06
 BYTE   GnM1
 BYTE   W06
 BYTE   GnM1
 BYTE   W06
// 062   ----------------------------------------
 BYTE   FsM1
 BYTE   W06
 BYTE   FnM1
 BYTE   W06
 BYTE   FnM1
 BYTE   W06
 BYTE   FnM1
 BYTE   W06
 BYTE   EOT
 BYTE   VOL   16*XenobladeChroniclesTragicDecisionRandomWizard_mvl/mxv
 BYTE   BEND   c_v+0
 BYTE   N24  Gs0
 BYTE   W06
 BYTE   VOL   15*XenobladeChroniclesTragicDecisionRandomWizard_mvl/mxv
 BYTE   W06
 BYTE   DsM1
 BYTE   W06
 BYTE   DnM1
 BYTE   W06
 BYTE   CsM1
 BYTE   TIE
 BYTE   W06
 BYTE   VOL   13*XenobladeChroniclesTragicDecisionRandomWizard_mvl/mxv
 BYTE   W06
 BYTE   CnM1
 BYTE   W06
 BYTE   CnM1
 BYTE   W06
 BYTE   BnM2
 BYTE   W06
 BYTE   BnM2
 BYTE   W03
 BYTE   BEND   c_v+5
 BYTE   W03
 BYTE   VOL   10*XenobladeChroniclesTragicDecisionRandomWizard_mvl/mxv
 BYTE   BEND   c_v+11
 BYTE   W03
 BYTE   Gs4
 BYTE   W03
 BYTE   VOL   9*XenobladeChroniclesTragicDecisionRandomWizard_mvl/mxv
 BYTE   BEND   c_v+21
 BYTE   W03
 BYTE   Gn5
 BYTE   W03
// 063   ----------------------------------------
 BYTE   VOL   9*XenobladeChroniclesTragicDecisionRandomWizard_mvl/mxv
 BYTE   BEND   c_v+32
 BYTE   W06
 BYTE   VOL   8*XenobladeChroniclesTragicDecisionRandomWizard_mvl/mxv
 BYTE   W06
 BYTE   GsM2
 BYTE   W06
 BYTE   GnM2
 BYTE   W06
 BYTE   FsM2
 BYTE   W06
 BYTE   FsM2
 BYTE   W06
 BYTE   FnM2
 BYTE   W06
 BYTE   FnM2
 BYTE   W06
 BYTE   EnM2
 BYTE   W06
 BYTE   EnM2
 BYTE   W06
 BYTE   DsM2
 BYTE   W06
 BYTE   DnM2
 BYTE   W06
 BYTE   EOT
 BYTE   VOL   2*XenobladeChroniclesTragicDecisionRandomWizard_mvl/mxv
 BYTE   BEND   c_v+0
 BYTE   N24  Dn1
 BYTE   W06
 BYTE   VOL   1*XenobladeChroniclesTragicDecisionRandomWizard_mvl/mxv
 BYTE   W06
 BYTE   CsM2
 BYTE   W06
 BYTE   CnM2
 BYTE   W06
// 064   ----------------------------------------
 BYTE   CnM2
 BYTE   N48
 BYTE   W48
 BYTE   PATT
  POIN2 Label_3_015DAD09
 BYTE   PATT
  POIN2 Label_3_015DAD09
 BYTE   FINE

//**************** Track 5 (Midi-Chn.4) ****************//

XenobladeChroniclesTragicDecisionRandomWizard_005:
// 000   ----------------------------------------
 BYTE   KEYSH   XenobladeChroniclesTragicDecisionRandomWizard_key+0
 BYTE   VOICE   40
 BYTE   VOL   30*XenobladeChroniclesTragicDecisionRandomWizard_mvl/mxv
 BYTE   PAN   c_v+0
 BYTE   BEND   c_v+0
 BYTE   W72
 BYTE   W72
// 001   ----------------------------------------
 BYTE   W72
 BYTE   W72
// 002   ----------------------------------------
 BYTE   W72
 BYTE   W72
// 003   ----------------------------------------
 BYTE   W72
 BYTE   W72
// 004   ----------------------------------------
 BYTE   W72
 BYTE   W72
// 005   ----------------------------------------
 BYTE   W72
 BYTE   W72
// 006   ----------------------------------------
 BYTE   W72
 BYTE   W72
// 007   ----------------------------------------
 BYTE   W72
 BYTE   W72
// 008   ----------------------------------------
Label_4_015DAF72:
 BYTE   TIE  Dn4  v096
 BYTE   W72
 BYTE   W60
// 009   ----------------------------------------
 BYTE   EOT
 BYTE   N12  Ds4
 BYTE   W12
 BYTE   N96  Dn4
 BYTE   W72
 BYTE   W24
// 010   ----------------------------------------
 BYTE   N24  Ds4
 BYTE   W24
 BYTE   Dn4
 BYTE   W24
 BYTE   TIE  Cs4
 BYTE   W72
// 011   ----------------------------------------
 BYTE   W48
 BYTE   EOT
 BYTE   N24  As3
 BYTE   W24
 BYTE   TIE  An3
 BYTE   W72
// 012   ----------------------------------------
 BYTE   W72
 BYTE   EOT
 BYTE   TIE  Gn4
 BYTE   W72
// 013   ----------------------------------------
 BYTE   W72
 BYTE   EOT
 BYTE   TIE  Gs4
 BYTE   W72
// 014   ----------------------------------------
 BYTE   W48
 BYTE   EOT
 BYTE   N24  An4
 BYTE   W24
 BYTE   TIE
 BYTE   W72
// 015   ----------------------------------------
 BYTE   W72
 BYTE   W72
// 016   ----------------------------------------
 BYTE   W24
 BYTE   EOT
 BYTE   N24  Gn4
 BYTE   W24
 BYTE   An4
 BYTE   W24
 BYTE   TIE  As4
 BYTE   W72
// 017   ----------------------------------------
 BYTE   W72
 BYTE   EOT
 BYTE   N96
 BYTE   W72
// 018   ----------------------------------------
Label_4_015DAFB0:
 BYTE   W24
 BYTE   N24  Gn4  v096
 BYTE   W24
 BYTE   An4
 BYTE   W24
 BYTE   PEND 
 BYTE   N96  As4
 BYTE   W72
// 019   ----------------------------------------
 BYTE   W24
 BYTE   N24  Dn5
 BYTE   W24
 BYTE   An4
 BYTE   W24
 BYTE   As4
 BYTE   W24
// 020   ----------------------------------------
 BYTE   An4
 BYTE   W24
 BYTE   N48  Gn4
 BYTE   W24
 BYTE   PATT
  POIN2 Label_4_015DAFB0
// 021   ----------------------------------------
 BYTE   TIE  As4  v096
 BYTE   W72
 BYTE   W48
// 022   ----------------------------------------
 BYTE   EOT
 BYTE   N24
 BYTE   W24
 BYTE   TIE  Gs4
 BYTE   W72
// 023   ----------------------------------------
 BYTE   W48
 BYTE   EOT
 BYTE   N24
 BYTE   W24
 BYTE   N96  An4
 BYTE   W72
// 024   ----------------------------------------
 BYTE   W24
 BYTE   N24
 BYTE   W24
 BYTE   As4
 BYTE   W24
 BYTE   TIE  Cn5
 BYTE   W72
// 025   ----------------------------------------
 BYTE   W72
 BYTE   EOT
 BYTE   N24  Dn3
 BYTE   W24
// 026   ----------------------------------------
 BYTE   Ds4
 BYTE   W24
 BYTE   Dn4
 BYTE   W24
 BYTE   Ds3
 BYTE   W24
 BYTE   Ds4
 BYTE   W24
// 027   ----------------------------------------
 BYTE   Dn4
 BYTE   W24
 BYTE   Fs3
 BYTE   W24
 BYTE   Fs4
 BYTE   W24
 BYTE   Dn4
 BYTE   W24
// 028   ----------------------------------------
 BYTE   An3
 BYTE   W24
 BYTE   An4
 BYTE   W24
 BYTE   Dn4
 BYTE   W24
 BYTE   W72
// 029   ----------------------------------------
Label_4_015DB003:
 BYTE   N36  Dn4  v096
 BYTE   N36  Dn5
 BYTE   W36
 BYTE   N24  Ds4
 BYTE   N24  Ds5
 BYTE   W24
 BYTE   N12  Dn4
 BYTE   N12  Dn5
 BYTE   W12
 BYTE   PEND 
Label_4_015DB014:
 BYTE   N36  Cn4  v096
 BYTE   N36  Cn5
 BYTE   W36
// 030   ----------------------------------------
 BYTE   N24  As3
 BYTE   N24  As4
 BYTE   W24
 BYTE   N12  As3
 BYTE   N12  As4
 BYTE   W12
 BYTE   PEND 
 BYTE   N72  An3
 BYTE   N72  An4
 BYTE   W72
// 031   ----------------------------------------
 BYTE   W72
 BYTE   PATT
  POIN2 Label_4_015DB003
// 032   ----------------------------------------
Label_4_015DB030:
 BYTE   N36  Cn4  v096
 BYTE   N36  Cn5
 BYTE   W36
 BYTE   N24  As3
 BYTE   N24  As4
 BYTE   W24
 BYTE   N12  Cn4
 BYTE   N12  Cn5
 BYTE   W12
 BYTE   PEND 
Label_4_015DB041:
 BYTE   N48  Dn4  v096
 BYTE   N48  Dn5
 BYTE   W48
// 033   ----------------------------------------
 BYTE   N24  An3
 BYTE   N24  An4
 BYTE   W24
 BYTE   PEND 
Label_4_015DB04D:
 BYTE   N24  As3  v096
 BYTE   N24  As4
 BYTE   W24
 BYTE   An3
 BYTE   N24  An4
 BYTE   W24
 BYTE   Gn3
 BYTE   N24  Gn4
 BYTE   W24
 BYTE   PEND 
// 034   ----------------------------------------
 BYTE   N72  As3
 BYTE   N72  As4
 BYTE   W72
Label_4_015DB061:
 BYTE   N24  An3  v096
 BYTE   N24  An4
 BYTE   W24
// 035   ----------------------------------------
 BYTE   Gn3
 BYTE   N24  Gn4
 BYTE   W24
 BYTE   Fs3
 BYTE   N24  Fs4
 BYTE   W24
 BYTE   PEND 
 BYTE   N48  An3
 BYTE   N48  An4
 BYTE   W48
// 036   ----------------------------------------
 BYTE   N24  Dn3
 BYTE   N24  Dn4
 BYTE   W24
 BYTE   W72
 BYTE   PATT
  POIN2 Label_4_015DB003
 BYTE   PATT
  POIN2 Label_4_015DB014
// 037   ----------------------------------------
 BYTE   N72  An3  v096
 BYTE   N72  An4
 BYTE   W72
 BYTE   W72
 BYTE   PATT
  POIN2 Label_4_015DB003
 BYTE   PATT
  POIN2 Label_4_015DB030
 BYTE   PATT
  POIN2 Label_4_015DB041
 BYTE   PATT
  POIN2 Label_4_015DB04D
// 038   ----------------------------------------
 BYTE   N72  As3  v096
 BYTE   N72  As4
 BYTE   W72
 BYTE   PATT
  POIN2 Label_4_015DB061
// 039   ----------------------------------------
 BYTE   N24  An3  v096
 BYTE   N24  An4
 BYTE   W24
 BYTE   As3
 BYTE   N24  As4
 BYTE   W24
 BYTE   Cn4
 BYTE   N24  Cn5
 BYTE   W24
 BYTE   W72
// 040   ----------------------------------------
 BYTE   W72
 BYTE   W72
// 041   ----------------------------------------
 BYTE   W72
 BYTE   W72
// 042   ----------------------------------------
 BYTE   W72
 BYTE   W72
// 043   ----------------------------------------
 BYTE   W72
 BYTE   W72
// 044   ----------------------------------------
 BYTE   W72
 BYTE   W72
// 045   ----------------------------------------
 BYTE   W72
 BYTE   W72
// 046   ----------------------------------------
 BYTE   W72
 BYTE   W72
// 047   ----------------------------------------
 BYTE   W72
 BYTE   W72
// 048   ----------------------------------------
 BYTE   W72
 BYTE   W72
// 049   ----------------------------------------
 BYTE   W72
 BYTE   W72
// 050   ----------------------------------------
 BYTE   W72
 BYTE   W72
// 051   ----------------------------------------
 BYTE   W72
 BYTE   W72
// 052   ----------------------------------------
 BYTE   W72
 BYTE   W72
// 053   ----------------------------------------
 BYTE   W72
 BYTE   N06  Dn2
 BYTE   W06
 BYTE   En2
 BYTE   W06
 BYTE   Fn2
 BYTE   W06
 BYTE   Gn2
 BYTE   W06
// 054   ----------------------------------------
 BYTE   Dn3
 BYTE   W06
 BYTE   En3
 BYTE   W06
 BYTE   Fn3
 BYTE   W06
 BYTE   Gn3
 BYTE   W06
 BYTE   Dn4
 BYTE   W06
 BYTE   En4
 BYTE   W06
 BYTE   Fn4
 BYTE   W06
 BYTE   Gn4
 BYTE   W06
 BYTE   GoTo
  POIN2 Label_4_015DAF72
// 055   ----------------------------------------
 BYTE   N96  As3  v096
 BYTE   N96  As4
 BYTE   W72
Label_4_015DB0F9:
 BYTE   W24
// 056   ----------------------------------------
 BYTE   N24  Gn3  v096
 BYTE   N24  Gn4
 BYTE   W24
 BYTE   An3
 BYTE   N24  An4
 BYTE   W24
 BYTE   PEND 
Label_4_015DB105:
 BYTE   N72  As3  v096
 BYTE   N96  As4
 BYTE   W72
 BYTE   PEND 
 BYTE   PATT
  POIN2 Label_4_015DB0F9
 BYTE   PATT
  POIN2 Label_4_015DB105
// 057   ----------------------------------------
 BYTE   W24
 BYTE   N24  Dn4  v096
 BYTE   N24  Dn5
 BYTE   W24
 BYTE   An3
 BYTE   N24  An4
 BYTE   W24
 BYTE   As3
 BYTE   N24  As4
 BYTE   W24
// 058   ----------------------------------------
 BYTE   An3
 BYTE   N24  An4
 BYTE   W24
 BYTE   Gn3
 BYTE   N48  Gn4
 BYTE   W24
 BYTE   PATT
  POIN2 Label_4_015DB0F9
// 059   ----------------------------------------
 BYTE   VOL   29*XenobladeChroniclesTragicDecisionRandomWizard_mvl/mxv
 BYTE   TIE  As3  v096
 BYTE   TIE  As4
 BYTE   W06
 BYTE   VOL   29*XenobladeChroniclesTragicDecisionRandomWizard_mvl/mxv
 BYTE   W06
 BYTE   En0
 BYTE   W06
 BYTE   En0
 BYTE   W06
 BYTE   En0
 BYTE   W06
 BYTE   Ds0
 BYTE   W06
 BYTE   Ds0
 BYTE   W06
 BYTE   Dn0
 BYTE   W06
 BYTE   Dn0
 BYTE   W06
 BYTE   Cs0
 BYTE   W06
 BYTE   Cs0
 BYTE   W06
 BYTE   Cn0
 BYTE   W06
 BYTE   Cn0
 BYTE   W06
 BYTE   BnM1
 BYTE   W06
 BYTE   BnM1
 BYTE   W06
 BYTE   AsM1
 BYTE   W06
// 060   ----------------------------------------
 BYTE   AsM1
 BYTE   W06
 BYTE   AnM1
 BYTE   W06
 BYTE   AnM1
 BYTE   W06
 BYTE   GsM1
 BYTE   W06
 BYTE   EOT
 BYTE   As3  v082
 BYTE   VOL   20*XenobladeChroniclesTragicDecisionRandomWizard_mvl/mxv
 BYTE   N24  As3
 BYTE   N24  As4
 BYTE   W06
 BYTE   VOL   20*XenobladeChroniclesTragicDecisionRandomWizard_mvl/mxv
 BYTE   W06
 BYTE   GnM1
 BYTE   W06
 BYTE   GnM1
 BYTE   W06
 BYTE   FsM1
 BYTE   TIE  Gs3
 BYTE   TIE  Gs4
 BYTE   W06
 BYTE   VOL   18*XenobladeChroniclesTragicDecisionRandomWizard_mvl/mxv
 BYTE   W06
 BYTE   FnM1
 BYTE   W06
 BYTE   FnM1
 BYTE   W06
 BYTE   EnM1
 BYTE   W06
 BYTE   EnM1
 BYTE   W06
 BYTE   DsM1
 BYTE   W06
 BYTE   DsM1
 BYTE   W06
// 061   ----------------------------------------
 BYTE   DnM1
 BYTE   W06
 BYTE   DnM1
 BYTE   W06
 BYTE   CsM1
 BYTE   W06
 BYTE   CsM1
 BYTE   W06
 BYTE   CnM1
 BYTE   W06
 BYTE   CnM1
 BYTE   W06
 BYTE   BnM2
 BYTE   W06
 BYTE   BnM2
 BYTE   W06
 BYTE   BnM2
 BYTE   W06
 BYTE   AsM2
 BYTE   W06
 BYTE   AsM2
 BYTE   W06
 BYTE   AnM2
 BYTE   W06
 BYTE   EOT
 BYTE   Gs3  v080
 BYTE   VOL   9*XenobladeChroniclesTragicDecisionRandomWizard_mvl/mxv
 BYTE   N24  Gs3
 BYTE   N24  Gs4
 BYTE   W06
 BYTE   VOL   8*XenobladeChroniclesTragicDecisionRandomWizard_mvl/mxv
 BYTE   W06
 BYTE   GsM2
 BYTE   W06
 BYTE   GnM2
 BYTE   W06
// 062   ----------------------------------------
 BYTE   GnM2
 BYTE   N96  An3
 BYTE   N96  An4
 BYTE   W06
 BYTE   VOL   6*XenobladeChroniclesTragicDecisionRandomWizard_mvl/mxv
 BYTE   W06
 BYTE   FsM2
 BYTE   W06
 BYTE   FnM2
 BYTE   W06
 BYTE   FnM2
 BYTE   W06
 BYTE   FnM2
 BYTE   W06
 BYTE   EnM2
 BYTE   W06
 BYTE   EnM2
 BYTE   W06
 BYTE   DsM2
 BYTE   W06
 BYTE   DsM2
 BYTE   W06
 BYTE   DnM2
 BYTE   W06
 BYTE   DnM2
 BYTE   W06
 BYTE   CsM2
 BYTE   W06
 BYTE   CsM2
 BYTE   W06
 BYTE   CnM2
 BYTE   W06
 BYTE   CnM2
 BYTE   W06
// 063   ----------------------------------------
 BYTE   CnM2
 BYTE   N24  An3
 BYTE   N24  An4
 BYTE   W24
 BYTE   As3
 BYTE   N24  As4
 BYTE   W24
 BYTE   TIE  Cn4
 BYTE   TIE  Cn5
 BYTE   W72
// 064   ----------------------------------------
 BYTE   W72
 BYTE   EOT
 BYTE   Cn4  v084
 BYTE   FINE

//**************** Track 6 (Midi-Chn.5) ****************//

XenobladeChroniclesTragicDecisionRandomWizard_006:
// 000   ----------------------------------------
 BYTE   KEYSH   XenobladeChroniclesTragicDecisionRandomWizard_key+0
 BYTE   VOICE   48
 BYTE   VOL   20*XenobladeChroniclesTragicDecisionRandomWizard_mvl/mxv
 BYTE   PAN   c_v+32
 BYTE   BEND   c_v+0
 BYTE   W72
 BYTE   W72
// 001   ----------------------------------------
 BYTE   W72
 BYTE   W72
// 002   ----------------------------------------
 BYTE   W72
 BYTE   W72
// 003   ----------------------------------------
 BYTE   W72
 BYTE   W72
// 004   ----------------------------------------
 BYTE   W72
 BYTE   W72
// 005   ----------------------------------------
 BYTE   W72
 BYTE   W72
// 006   ----------------------------------------
 BYTE   W72
 BYTE   W72
// 007   ----------------------------------------
 BYTE   W72
 BYTE   W72
// 008   ----------------------------------------
Label_5_015DB206:
 BYTE   TIE  Gn2  v096
 BYTE   TIE  As2
 BYTE   W72
 BYTE   W72
// 009   ----------------------------------------
 BYTE   W72
 BYTE   W72
// 010   ----------------------------------------
 BYTE   EOT
 BYTE   Gn2  v058
 BYTE   TIE  En2
 BYTE   TIE  An2
 BYTE   W72
 BYTE   W72
// 011   ----------------------------------------
 BYTE   W72
 BYTE   W72
// 012   ----------------------------------------
 BYTE   EOT
 BYTE   En2  v057
 BYTE   TIE  Ds2
 BYTE   TIE  Gn2
 BYTE   W72
 BYTE   W72
// 013   ----------------------------------------
 BYTE   W72
 BYTE   W72
// 014   ----------------------------------------
 BYTE   EOT
 BYTE   Ds2  v055
 BYTE   TIE  Dn2
 BYTE   TIE  An2
 BYTE   W72
 BYTE   W72
// 015   ----------------------------------------
 BYTE   W72
 BYTE   W72
// 016   ----------------------------------------
 BYTE   EOT
 BYTE   Dn2  v057
Label_5_015DB233:
 BYTE   TIE  Gn2  v096
 BYTE   TIE  Gn3
 BYTE   TIE  As3
 BYTE   W72
 BYTE   PEND 
 BYTE   W72
// 017   ----------------------------------------
 BYTE   EOT
 BYTE   Gn2  v067
 BYTE   As3
 BYTE   PATT
  POIN2 Label_5_015DB233
// 018   ----------------------------------------
 BYTE   W72
 BYTE   EOT
 BYTE   Gn2  v067
 BYTE   As3
 BYTE   PATT
  POIN2 Label_5_015DB233
// 019   ----------------------------------------
 BYTE   W72
 BYTE   EOT
 BYTE   Gn2  v067
 BYTE   As3
 BYTE   PATT
  POIN2 Label_5_015DB233
// 020   ----------------------------------------
 BYTE   W72
 BYTE   EOT
 BYTE   Gn2  v067
 BYTE   As3
 BYTE   PATT
  POIN2 Label_5_015DB233
// 021   ----------------------------------------
 BYTE   W72
 BYTE   EOT
 BYTE   Gn2  v067
 BYTE   As3
 BYTE   TIE  Cn3  v096
 BYTE   TIE  Gs3
 BYTE   TIE  Cn4
 BYTE   W72
// 022   ----------------------------------------
 BYTE   W72
 BYTE   EOT
 BYTE   Cn3  v068
 BYTE   Cn4
 BYTE   TIE  Dn3
 BYTE   N72  An3
 BYTE   W72
// 023   ----------------------------------------
 BYTE   N48
 BYTE   W48
 BYTE   N24  Gn3
 BYTE   W24
 BYTE   TIE  Fs3
 BYTE   W72
// 024   ----------------------------------------
 BYTE   W72
 BYTE   EOT
 BYTE   Dn3  v066
 BYTE   N24  Dn3
 BYTE   W72
// 025   ----------------------------------------
 BYTE   Ds3
 BYTE   W72
 BYTE   Fs3
 BYTE   W72
// 026   ----------------------------------------
 BYTE   An3
 BYTE   W72
 BYTE   W72
// 027   ----------------------------------------
 BYTE   W72
 BYTE   W72
// 028   ----------------------------------------
 BYTE   W72
 BYTE   W72
// 029   ----------------------------------------
 BYTE   W72
 BYTE   W72
// 030   ----------------------------------------
 BYTE   W72
 BYTE   VOL   25*XenobladeChroniclesTragicDecisionRandomWizard_mvl/mxv
 BYTE   TIE  Cs3
 BYTE   TIE  En3
 BYTE   W72
// 031   ----------------------------------------
 BYTE   W72
 BYTE   EOT
 BYTE   Cs3  v064
 BYTE   TIE  Dn3
 BYTE   TIE  Fs3
 BYTE   W72
// 032   ----------------------------------------
 BYTE   W72
 BYTE   EOT
 BYTE   Dn3  v066
 BYTE   W72
// 033   ----------------------------------------
 BYTE   W72
 BYTE   W72
// 034   ----------------------------------------
 BYTE   W72
 BYTE   W72
// 035   ----------------------------------------
 BYTE   W72
 BYTE   W72
// 036   ----------------------------------------
 BYTE   W72
 BYTE   W72
// 037   ----------------------------------------
 BYTE   W72
 BYTE   W72
// 038   ----------------------------------------
 BYTE   W72
 BYTE   TIE  As2
 BYTE   TIE  Ds3
 BYTE   W72
// 039   ----------------------------------------
 BYTE   W72
 BYTE   W72
// 040   ----------------------------------------
 BYTE   W72
 BYTE   EOT
 BYTE   As2  v063
 BYTE   TIE  An2
 BYTE   TIE  Dn3
 BYTE   W72
// 041   ----------------------------------------
 BYTE   W72
 BYTE   W72
// 042   ----------------------------------------
 BYTE   W72
 BYTE   EOT
 BYTE   An2  v062
 BYTE   TIE  Cn2
 BYTE   TIE  Ds2
 BYTE   W72
// 043   ----------------------------------------
 BYTE   W72
 BYTE   W72
// 044   ----------------------------------------
 BYTE   W72
 BYTE   EOT
 BYTE   Cn2  v051
 BYTE   TIE  Dn2
 BYTE   TIE  Fs2
 BYTE   W72
// 045   ----------------------------------------
 BYTE   W72
 BYTE   W72
// 046   ----------------------------------------
 BYTE   W72
 BYTE   EOT
 BYTE   Dn2  v054
 BYTE   W72
// 047   ----------------------------------------
 BYTE   TIE  Ds3
 BYTE   W72
 BYTE   W72
// 048   ----------------------------------------
 BYTE   EOT
 BYTE   TIE  Dn3
 BYTE   W72
 BYTE   W72
// 049   ----------------------------------------
 BYTE   EOT
 BYTE   TIE  Ds3
 BYTE   W72
 BYTE   W72
// 050   ----------------------------------------
 BYTE   EOT
 BYTE   TIE  Fn3
 BYTE   W72
 BYTE   W72
// 051   ----------------------------------------
 BYTE   EOT
 BYTE   TIE  Fs3
 BYTE   W72
 BYTE   W72
// 052   ----------------------------------------
 BYTE   EOT
 BYTE   TIE  Dn3
 BYTE   W72
 BYTE   W72
// 053   ----------------------------------------
 BYTE   EOT
 BYTE   GoTo
  POIN2 Label_5_015DB206
// 054   ----------------------------------------
 BYTE   N96  As3  v096
 BYTE   N96  As4
 BYTE   W72
Label_5_015DB30E:
 BYTE   W24
// 055   ----------------------------------------
 BYTE   N24  Gn3  v096
 BYTE   N24  Gn4
 BYTE   W24
 BYTE   An3
 BYTE   N24  An4
 BYTE   W24
 BYTE   PEND 
Label_5_015DB31A:
 BYTE   N72  As3  v096
 BYTE   N96  As4
 BYTE   W72
 BYTE   PEND 
 BYTE   PATT
  POIN2 Label_5_015DB30E
 BYTE   PATT
  POIN2 Label_5_015DB31A
// 056   ----------------------------------------
 BYTE   W24
 BYTE   N24  Dn4  v096
 BYTE   N24  Dn5
 BYTE   W24
 BYTE   An3
 BYTE   N24  An4
 BYTE   W24
 BYTE   As3
 BYTE   N24  As4
 BYTE   W24
// 057   ----------------------------------------
 BYTE   An3
 BYTE   N24  An4
 BYTE   W24
 BYTE   Gn3
 BYTE   N48  Gn4
 BYTE   W24
 BYTE   PATT
  POIN2 Label_5_015DB30E
// 058   ----------------------------------------
 BYTE   VOL   24*XenobladeChroniclesTragicDecisionRandomWizard_mvl/mxv
 BYTE   TIE  As3  v096
 BYTE   TIE  As4
 BYTE   W06
 BYTE   VOL   24*XenobladeChroniclesTragicDecisionRandomWizard_mvl/mxv
 BYTE   W06
 BYTE   BnM1
 BYTE   W06
 BYTE   BnM1
 BYTE   W06
 BYTE   BnM1
 BYTE   W06
 BYTE   AsM1
 BYTE   W06
 BYTE   AsM1
 BYTE   W06
 BYTE   AsM1
 BYTE   W06
 BYTE   AnM1
 BYTE   W06
 BYTE   AnM1
 BYTE   W06
 BYTE   GsM1
 BYTE   W06
 BYTE   GsM1
 BYTE   W06
 BYTE   GsM1
 BYTE   W06
 BYTE   GnM1
 BYTE   W06
 BYTE   GnM1
 BYTE   W06
 BYTE   FsM1
 BYTE   W06
// 059   ----------------------------------------
 BYTE   FsM1
 BYTE   W06
 BYTE   FsM1
 BYTE   W06
 BYTE   FnM1
 BYTE   W06
 BYTE   FnM1
 BYTE   W06
 BYTE   EOT
 BYTE   As3  v082
 BYTE   VOL   17*XenobladeChroniclesTragicDecisionRandomWizard_mvl/mxv
 BYTE   N24  As3
 BYTE   N24  As4
 BYTE   W06
 BYTE   VOL   16*XenobladeChroniclesTragicDecisionRandomWizard_mvl/mxv
 BYTE   W06
 BYTE   EnM1
 BYTE   W06
 BYTE   DsM1
 BYTE   W06
 BYTE   DsM1
 BYTE   TIE  Gs3
 BYTE   TIE  Gs4
 BYTE   W06
 BYTE   VOL   15*XenobladeChroniclesTragicDecisionRandomWizard_mvl/mxv
 BYTE   W06
 BYTE   DnM1
 BYTE   W06
 BYTE   DnM1
 BYTE   W06
 BYTE   CsM1
 BYTE   W06
 BYTE   CsM1
 BYTE   W06
 BYTE   CsM1
 BYTE   W06
 BYTE   CnM1
 BYTE   W06
// 060   ----------------------------------------
 BYTE   CnM1
 BYTE   W06
 BYTE   BnM2
 BYTE   W06
 BYTE   BnM2
 BYTE   W06
 BYTE   BnM2
 BYTE   W06
 BYTE   AsM2
 BYTE   W06
 BYTE   AsM2
 BYTE   W06
 BYTE   AsM2
 BYTE   W06
 BYTE   AnM2
 BYTE   W06
 BYTE   AnM2
 BYTE   W06
 BYTE   GsM2
 BYTE   W06
 BYTE   GsM2
 BYTE   W06
 BYTE   GsM2
 BYTE   W06
 BYTE   EOT
 BYTE   Gs3  v080
 BYTE   VOL   7*XenobladeChroniclesTragicDecisionRandomWizard_mvl/mxv
 BYTE   N24  Gs3
 BYTE   N24  Gs4
 BYTE   W06
 BYTE   VOL   7*XenobladeChroniclesTragicDecisionRandomWizard_mvl/mxv
 BYTE   W06
 BYTE   FsM2
 BYTE   W06
 BYTE   FsM2
 BYTE   W06
// 061   ----------------------------------------
 BYTE   FsM2
 BYTE   N96  An3
 BYTE   N96  An4
 BYTE   W06
 BYTE   VOL   5*XenobladeChroniclesTragicDecisionRandomWizard_mvl/mxv
 BYTE   W06
 BYTE   FnM2
 BYTE   W06
 BYTE   FnM2
 BYTE   W06
 BYTE   EnM2
 BYTE   W06
 BYTE   EnM2
 BYTE   W06
 BYTE   DsM2
 BYTE   W06
 BYTE   DsM2
 BYTE   W06
 BYTE   DsM2
 BYTE   W06
 BYTE   DnM2
 BYTE   W06
 BYTE   DnM2
 BYTE   W06
 BYTE   CsM2
 BYTE   W06
 BYTE   CsM2
 BYTE   W06
 BYTE   CsM2
 BYTE   W06
 BYTE   CnM2
 BYTE   W06
 BYTE   CnM2
 BYTE   W06
// 062   ----------------------------------------
 BYTE   CnM2
 BYTE   N24  An3
 BYTE   N24  An4
 BYTE   W24
 BYTE   As3
 BYTE   N24  As4
 BYTE   W24
 BYTE   TIE  Cn4
 BYTE   TIE  Cn5
 BYTE   W72
// 063   ----------------------------------------
 BYTE   W72
 BYTE   EOT
 BYTE   Cn4  v084
 BYTE   FINE

//**************** Track 7 (Midi-Chn.6) ****************//

XenobladeChroniclesTragicDecisionRandomWizard_007:
// 000   ----------------------------------------
 BYTE   KEYSH   XenobladeChroniclesTragicDecisionRandomWizard_key+0
 BYTE   VOICE   52
 BYTE   VOL   25*XenobladeChroniclesTragicDecisionRandomWizard_mvl/mxv
 BYTE   PAN   c_v-24
 BYTE   BEND   c_v+0
 BYTE   W72
 BYTE   W72
// 001   ----------------------------------------
 BYTE   W72
 BYTE   W72
// 002   ----------------------------------------
 BYTE   W72
 BYTE   W72
// 003   ----------------------------------------
 BYTE   W72
 BYTE   W72
// 004   ----------------------------------------
 BYTE   W72
 BYTE   W72
// 005   ----------------------------------------
 BYTE   W72
 BYTE   W72
// 006   ----------------------------------------
 BYTE   W72
 BYTE   W72
// 007   ----------------------------------------
 BYTE   W72
 BYTE   W72
// 008   ----------------------------------------
Label_6_015DB41A:
 BYTE   W72
 BYTE   W72
// 009   ----------------------------------------
 BYTE   W72
 BYTE   W72
// 010   ----------------------------------------
 BYTE   W72
 BYTE   W72
// 011   ----------------------------------------
 BYTE   W72
 BYTE   W72
// 012   ----------------------------------------
 BYTE   W72
 BYTE   W72
// 013   ----------------------------------------
 BYTE   W72
 BYTE   W72
// 014   ----------------------------------------
 BYTE   W72
 BYTE   W72
// 015   ----------------------------------------
 BYTE   W72
 BYTE   W72
// 016   ----------------------------------------
 BYTE   W72
 BYTE   W72
// 017   ----------------------------------------
 BYTE   W72
 BYTE   W72
// 018   ----------------------------------------
 BYTE   W72
 BYTE   W72
// 019   ----------------------------------------
 BYTE   W72
 BYTE   W72
// 020   ----------------------------------------
 BYTE   W72
 BYTE   W72
// 021   ----------------------------------------
 BYTE   W72
 BYTE   W72
// 022   ----------------------------------------
 BYTE   W72
 BYTE   W72
// 023   ----------------------------------------
 BYTE   W72
 BYTE   W72
// 024   ----------------------------------------
 BYTE   N72  Dn2  v096
 BYTE   W24
 BYTE   N24  Ds3
 BYTE   N24  Ds4
 BYTE   W24
 BYTE   Dn3
 BYTE   N24  Dn4
 BYTE   W24
 BYTE   N72  Ds2
 BYTE   W24
// 025   ----------------------------------------
 BYTE   N24  Ds3
 BYTE   N24  Ds4
 BYTE   W24
 BYTE   Dn3
 BYTE   N24  Dn4
 BYTE   W24
 BYTE   N72  Fs2
 BYTE   W24
 BYTE   N24  Fs3
 BYTE   N24  Fs4
 BYTE   W24
// 026   ----------------------------------------
 BYTE   Dn3
 BYTE   N24  Dn4
 BYTE   W24
 BYTE   N72  An2
 BYTE   W24
 BYTE   N24  An3
 BYTE   N24  An4
 BYTE   W24
 BYTE   Dn3
 BYTE   N24  Dn4
 BYTE   W24
// 027   ----------------------------------------
 BYTE   W72
Label_6_015DB46C:
 BYTE   N36  As3  v096
 BYTE   N36  Dn4
 BYTE   W36
// 028   ----------------------------------------
 BYTE   N24  Cn4
 BYTE   N24  Ds4
 BYTE   W24
 BYTE   N12  As3
 BYTE   N12  Dn4
 BYTE   W12
 BYTE   PEND 
Label_6_015DB47D:
 BYTE   N36  An3  v096
 BYTE   N36  Cn4
 BYTE   W36
 BYTE   N24  Gn3
 BYTE   N24  As3
 BYTE   W24
// 029   ----------------------------------------
 BYTE   N12  Gn3
 BYTE   N12  As3
 BYTE   W12
 BYTE   PEND 
 BYTE   N72  Fs3
 BYTE   N72  An3
 BYTE   W72
 BYTE   W72
// 030   ----------------------------------------
Label_6_015DB494:
 BYTE   N36  Bn3  v096
 BYTE   N36  Dn4
 BYTE   W36
 BYTE   N24  Cn4
 BYTE   N24  Ds4
 BYTE   W24
 BYTE   N12  Bn3
 BYTE   N12  Dn4
 BYTE   W12
 BYTE   PEND 
Label_6_015DB4A5:
 BYTE   N36  Cn4  v096
 BYTE   N36  Ds4
 BYTE   W36
// 031   ----------------------------------------
 BYTE   N24  Cn4
 BYTE   N24  Ds4
 BYTE   W24
 BYTE   N12  Cn4
 BYTE   N12  Ds4
 BYTE   W12
 BYTE   PEND 
 BYTE   N72  Fs3
 BYTE   N72  An3
 BYTE   W72
// 032   ----------------------------------------
 BYTE   N24  As3
 BYTE   W24
 BYTE   An3
 BYTE   W24
 BYTE   Gn3
 BYTE   W24
 BYTE   N72  As3
 BYTE   W72
// 033   ----------------------------------------
 BYTE   N24  An3
 BYTE   W24
 BYTE   Gn3
 BYTE   W24
 BYTE   Fs3
 BYTE   W24
 BYTE   N48  An3
 BYTE   W48
// 034   ----------------------------------------
 BYTE   N24  Dn3
 BYTE   W24
 BYTE   W72
 BYTE   PATT
  POIN2 Label_6_015DB46C
 BYTE   PATT
  POIN2 Label_6_015DB47D
// 035   ----------------------------------------
 BYTE   N72  Fs3  v096
 BYTE   N72  An3
 BYTE   W72
 BYTE   W72
 BYTE   PATT
  POIN2 Label_6_015DB494
 BYTE   PATT
  POIN2 Label_6_015DB4A5
// 036   ----------------------------------------
 BYTE   N72  Fs3  v096
 BYTE   N72  An3
 BYTE   W72
 BYTE   TIE  En3
 BYTE   TIE  Gn3
 BYTE   W72
// 037   ----------------------------------------
 BYTE   W72
 BYTE   EOT
 BYTE   En3  v067
 BYTE   TIE  Fs3
 BYTE   TIE  An3
 BYTE   W72
// 038   ----------------------------------------
 BYTE   W72
 BYTE   EOT
 BYTE   Fs3  v069
 BYTE   W72
// 039   ----------------------------------------
 BYTE   W72
 BYTE   W72
// 040   ----------------------------------------
 BYTE   W72
 BYTE   W72
// 041   ----------------------------------------
 BYTE   W72
 BYTE   W72
// 042   ----------------------------------------
 BYTE   W72
 BYTE   W72
// 043   ----------------------------------------
 BYTE   W72
 BYTE   W72
// 044   ----------------------------------------
 BYTE   W72
 BYTE   W72
// 045   ----------------------------------------
 BYTE   W72
 BYTE   W72
// 046   ----------------------------------------
 BYTE   W72
 BYTE   W72
// 047   ----------------------------------------
 BYTE   W72
 BYTE   W72
// 048   ----------------------------------------
 BYTE   W72
 BYTE   W72
// 049   ----------------------------------------
 BYTE   W72
 BYTE   W72
// 050   ----------------------------------------
 BYTE   W72
 BYTE   W72
// 051   ----------------------------------------
 BYTE   W72
 BYTE   W72
// 052   ----------------------------------------
 BYTE   W72
 BYTE   W48
// 053   ----------------------------------------
 BYTE   N06  Dn3
 BYTE   W06
 BYTE   Ds3
 BYTE   W06
 BYTE   Fn3
 BYTE   W06
 BYTE   Fs3
 BYTE   W06
 BYTE   GoTo
  POIN2 Label_6_015DB41A
// 054   ----------------------------------------
Label_6_015DB531:
 BYTE   TIE  Dn3  v052
 BYTE   TIE  Gn3  v096
 BYTE   W72
 BYTE   PEND 
 BYTE   W72
// 055   ----------------------------------------
 BYTE   EOT
 BYTE   Dn3  v067
 BYTE   PATT
  POIN2 Label_6_015DB531
// 056   ----------------------------------------
 BYTE   W48
 BYTE   EOT
 BYTE   Dn3  v067
 BYTE   N24  Dn3  v052
 BYTE   N24  As3  v096
 BYTE   W24
 BYTE   PATT
  POIN2 Label_6_015DB531
// 057   ----------------------------------------
 BYTE   W72
 BYTE   EOT
 BYTE   Dn3  v067
 BYTE   N96  Dn3  v052
 BYTE   N96  Gn3  v096
 BYTE   W72
// 058   ----------------------------------------
 BYTE   W24
 BYTE   N24  Fn3  v052
 BYTE   N24  An3  v096
 BYTE   W24
 BYTE   Gn3  v052
 BYTE   N24  As3  v096
 BYTE   W24
 BYTE   VOL   24*XenobladeChroniclesTragicDecisionRandomWizard_mvl/mxv
 BYTE   TIE  Dn3  v052
 BYTE   TIE  Gn3  v096
 BYTE   W06
 BYTE   VOL   24*XenobladeChroniclesTragicDecisionRandomWizard_mvl/mxv
 BYTE   W06
 BYTE   BnM1
 BYTE   W06
 BYTE   BnM1
 BYTE   W06
// 059   ----------------------------------------
 BYTE   BnM1
 BYTE   W06
 BYTE   AsM1
 BYTE   W06
 BYTE   AsM1
 BYTE   W06
 BYTE   AsM1
 BYTE   W06
 BYTE   AnM1
 BYTE   W06
 BYTE   AnM1
 BYTE   W06
 BYTE   GsM1
 BYTE   W06
 BYTE   GsM1
 BYTE   W06
 BYTE   GsM1
 BYTE   W06
 BYTE   GnM1
 BYTE   W06
 BYTE   GnM1
 BYTE   W06
 BYTE   FsM1
 BYTE   W06
 BYTE   FsM1
 BYTE   W06
 BYTE   FsM1
 BYTE   W06
 BYTE   FnM1
 BYTE   W06
 BYTE   FnM1
 BYTE   W06
// 060   ----------------------------------------
 BYTE   EOT
 BYTE   Dn3  v067
 BYTE   VOL   17*XenobladeChroniclesTragicDecisionRandomWizard_mvl/mxv
 BYTE   N24  Dn3  v052
 BYTE   N24  Gn3  v096
 BYTE   W06
 BYTE   VOL   16*XenobladeChroniclesTragicDecisionRandomWizard_mvl/mxv
 BYTE   W06
 BYTE   EnM1
 BYTE   W06
 BYTE   DsM1
 BYTE   W06
 BYTE   DsM1
 BYTE   TIE  Cs3  v052
 BYTE   TIE  Gs3  v096
 BYTE   W06
 BYTE   VOL   15*XenobladeChroniclesTragicDecisionRandomWizard_mvl/mxv
 BYTE   W06
 BYTE   DnM1
 BYTE   W06
 BYTE   DnM1
 BYTE   W06
 BYTE   CsM1
 BYTE   W06
 BYTE   CsM1
 BYTE   W06
 BYTE   CsM1
 BYTE   W06
 BYTE   CnM1
 BYTE   W06
 BYTE   CnM1
 BYTE   W06
 BYTE   BnM2
 BYTE   W06
 BYTE   BnM2
 BYTE   W06
 BYTE   BnM2
 BYTE   W06
// 061   ----------------------------------------
 BYTE   AsM2
 BYTE   W06
 BYTE   AsM2
 BYTE   W06
 BYTE   AsM2
 BYTE   W06
 BYTE   AnM2
 BYTE   W06
 BYTE   AnM2
 BYTE   W06
 BYTE   GsM2
 BYTE   W06
 BYTE   GsM2
 BYTE   W06
 BYTE   GsM2
 BYTE   W06
 BYTE   EOT
 BYTE   Cs3  v068
 BYTE   VOL   7*XenobladeChroniclesTragicDecisionRandomWizard_mvl/mxv
 BYTE   N24  Cs3  v052
 BYTE   N24  Gs3  v096
 BYTE   W06
 BYTE   VOL   7*XenobladeChroniclesTragicDecisionRandomWizard_mvl/mxv
 BYTE   W06
 BYTE   FsM2
 BYTE   W06
 BYTE   FsM2
 BYTE   W06
 BYTE   FsM2
 BYTE   TIE  Cn3  v052
 BYTE   TIE  An3  v096
 BYTE   W06
 BYTE   VOL   5*XenobladeChroniclesTragicDecisionRandomWizard_mvl/mxv
 BYTE   W06
 BYTE   FnM2
 BYTE   W06
 BYTE   FnM2
 BYTE   W06
// 062   ----------------------------------------
 BYTE   EnM2
 BYTE   W06
 BYTE   EnM2
 BYTE   W06
 BYTE   DsM2
 BYTE   W06
 BYTE   DsM2
 BYTE   W06
 BYTE   DsM2
 BYTE   W06
 BYTE   DnM2
 BYTE   W06
 BYTE   DnM2
 BYTE   W06
 BYTE   CsM2
 BYTE   W06
 BYTE   CsM2
 BYTE   W06
 BYTE   CsM2
 BYTE   W06
 BYTE   CnM2
 BYTE   W06
 BYTE   CnM2
 BYTE   W06
 BYTE   CnM2
 BYTE   W24
// 063   ----------------------------------------
 BYTE   EOT
 BYTE   Cn3  v069
 BYTE   N24  As2  v052
 BYTE   N24  Gn3  v096
 BYTE   W24
 BYTE   TIE  An2  v052
 BYTE   TIE  Fs3  v096
 BYTE   W72
// 064   ----------------------------------------
 BYTE   W72
 BYTE   EOT
 BYTE   An2  v066
 BYTE   FINE

//**************** Track 8 (Midi-Chn.7) ****************//

XenobladeChroniclesTragicDecisionRandomWizard_008:
// 000   ----------------------------------------
 BYTE   KEYSH   XenobladeChroniclesTragicDecisionRandomWizard_key+0
 BYTE   VOICE   14
 BYTE   VOL   40*XenobladeChroniclesTragicDecisionRandomWizard_mvl/mxv
 BYTE   PAN   c_v+0
 BYTE   BEND   c_v+0
 BYTE   W72
 BYTE   W72
// 001   ----------------------------------------
 BYTE   W72
 BYTE   W72
// 002   ----------------------------------------
 BYTE   W72
 BYTE   W72
// 003   ----------------------------------------
 BYTE   W72
 BYTE   W72
// 004   ----------------------------------------
 BYTE   W72
 BYTE   W72
// 005   ----------------------------------------
 BYTE   W72
 BYTE   W72
// 006   ----------------------------------------
 BYTE   W72
 BYTE   W72
// 007   ----------------------------------------
 BYTE   W72
 BYTE   W72
// 008   ----------------------------------------
Label_7_015DB64A:
 BYTE   W72
 BYTE   W72
// 009   ----------------------------------------
 BYTE   W72
 BYTE   W72
// 010   ----------------------------------------
 BYTE   W72
 BYTE   W72
// 011   ----------------------------------------
 BYTE   W72
 BYTE   W72
// 012   ----------------------------------------
 BYTE   W72
 BYTE   W72
// 013   ----------------------------------------
 BYTE   W72
 BYTE   W72
// 014   ----------------------------------------
 BYTE   W72
 BYTE   W72
// 015   ----------------------------------------
 BYTE   W72
 BYTE   W72
// 016   ----------------------------------------
 BYTE   W72
 BYTE   W72
// 017   ----------------------------------------
 BYTE   W72
 BYTE   W72
// 018   ----------------------------------------
 BYTE   W72
 BYTE   W72
// 019   ----------------------------------------
 BYTE   W72
 BYTE   W72
// 020   ----------------------------------------
 BYTE   W72
 BYTE   W72
// 021   ----------------------------------------
 BYTE   W72
 BYTE   W72
// 022   ----------------------------------------
 BYTE   W72
 BYTE   W72
// 023   ----------------------------------------
 BYTE   W72
 BYTE   W72
// 024   ----------------------------------------
 BYTE   W72
 BYTE   W72
// 025   ----------------------------------------
 BYTE   W72
 BYTE   W72
// 026   ----------------------------------------
 BYTE   N72  An3  v096
 BYTE   N72  An4
 BYTE   W72
 BYTE   W72
// 027   ----------------------------------------
 BYTE   Gn3
 BYTE   N72  Gn4
 BYTE   W72
 BYTE   En3
 BYTE   N72  En4
 BYTE   W72
// 028   ----------------------------------------
 BYTE   An3
 BYTE   N72  An4
 BYTE   W72
 BYTE   W72
// 029   ----------------------------------------
 BYTE   Gn3
 BYTE   N72  Gn4
 BYTE   W72
 BYTE   An3
 BYTE   N72  An4
 BYTE   W72
// 030   ----------------------------------------
 BYTE   W72
 BYTE   W72
// 031   ----------------------------------------
 BYTE   W72
 BYTE   W72
// 032   ----------------------------------------
 BYTE   An3
 BYTE   N72  An4
 BYTE   W72
 BYTE   W72
// 033   ----------------------------------------
 BYTE   Gn3
 BYTE   N72  Gn4
 BYTE   W72
 BYTE   En3
 BYTE   N72  En4
 BYTE   W72
// 034   ----------------------------------------
 BYTE   An3
 BYTE   N72  An4
 BYTE   W72
 BYTE   W72
// 035   ----------------------------------------
 BYTE   Gn3
 BYTE   N72  Gn4
 BYTE   W72
 BYTE   An3
 BYTE   N72  An4
 BYTE   W72
// 036   ----------------------------------------
 BYTE   W72
 BYTE   W72
// 037   ----------------------------------------
 BYTE   W72
 BYTE   W72
// 038   ----------------------------------------
 BYTE   W72
 BYTE   W72
// 039   ----------------------------------------
 BYTE   W72
 BYTE   W72
// 040   ----------------------------------------
 BYTE   W72
 BYTE   W72
// 041   ----------------------------------------
 BYTE   W72
 BYTE   W72
// 042   ----------------------------------------
 BYTE   W72
 BYTE   W72
// 043   ----------------------------------------
 BYTE   W72
 BYTE   W72
// 044   ----------------------------------------
 BYTE   W72
 BYTE   W72
// 045   ----------------------------------------
 BYTE   W72
 BYTE   W72
// 046   ----------------------------------------
 BYTE   W72
 BYTE   As3
 BYTE   N72  As4
 BYTE   W72
// 047   ----------------------------------------
 BYTE   W72
 BYTE   An3
 BYTE   N72  An4
 BYTE   W72
// 048   ----------------------------------------
 BYTE   W72
 BYTE   As3
 BYTE   N72  As4
 BYTE   W72
// 049   ----------------------------------------
 BYTE   W72
 BYTE   Cn4
 BYTE   N72  Cn5
 BYTE   W72
// 050   ----------------------------------------
 BYTE   W72
 BYTE   Cs4
 BYTE   N72  Cs5
 BYTE   W72
// 051   ----------------------------------------
 BYTE   W72
 BYTE   An3
 BYTE   N72  An4
 BYTE   W72
// 052   ----------------------------------------
 BYTE   W72
 BYTE   GoTo
  POIN2 Label_7_015DB64A
// 053   ----------------------------------------
 BYTE   W72
 BYTE   W72
// 054   ----------------------------------------
 BYTE   W72
 BYTE   W72
// 055   ----------------------------------------
 BYTE   W72
 BYTE   W72
// 056   ----------------------------------------
 BYTE   W72
 BYTE   W72
// 057   ----------------------------------------
 BYTE   VOL   39*XenobladeChroniclesTragicDecisionRandomWizard_mvl/mxv
 BYTE   W06
 BYTE   Ds1
 BYTE   W06
 BYTE   Dn1
 BYTE   W06
 BYTE   Cs1
 BYTE   W06
 BYTE   Cs1
 BYTE   W06
 BYTE   Cn1
 BYTE   W06
 BYTE   Bn0
 BYTE   W06
 BYTE   Bn0
 BYTE   W06
 BYTE   As0
 BYTE   W06
 BYTE   As0
 BYTE   W06
 BYTE   An0
 BYTE   W06
 BYTE   Gs0
 BYTE   W06
 BYTE   Gs0
 BYTE   W06
 BYTE   Gn0
 BYTE   W06
 BYTE   Fs0
 BYTE   W06
 BYTE   Fs0
 BYTE   W06
// 058   ----------------------------------------
 BYTE   Fn0
 BYTE   W06
 BYTE   Fn0
 BYTE   W06
 BYTE   En0
 BYTE   W06
 BYTE   En0
 BYTE   W06
 BYTE   Ds0
 BYTE   W06
 BYTE   Dn0
 BYTE   W06
 BYTE   Dn0
 BYTE   W06
 BYTE   Cs0
 BYTE   W06
 BYTE   Cn0
 BYTE   W06
 BYTE   Cn0
 BYTE   W06
 BYTE   BnM1
 BYTE   W06
 BYTE   AsM1
 BYTE   W06
 BYTE   AsM1
 BYTE   W06
 BYTE   AnM1
 BYTE   W06
 BYTE   AnM1
 BYTE   W06
 BYTE   GsM1
 BYTE   W06
// 059   ----------------------------------------
 BYTE   GnM1
 BYTE   W06
 BYTE   GnM1
 BYTE   W06
 BYTE   FsM1
 BYTE   W06
 BYTE   FnM1
 BYTE   W06
 BYTE   FnM1
 BYTE   W06
 BYTE   EnM1
 BYTE   W06
 BYTE   EnM1
 BYTE   W06
 BYTE   DsM1
 BYTE   W06
 BYTE   DnM1
 BYTE   W06
 BYTE   DnM1
 BYTE   W06
 BYTE   CsM1
 BYTE   W06
 BYTE   CnM1
 BYTE   W06
 BYTE   CnM1
 BYTE   W06
 BYTE   BnM2
 BYTE   W06
 BYTE   BnM2
 BYTE   W06
 BYTE   AsM2
 BYTE   W06
// 060   ----------------------------------------
 BYTE   AsM2
 BYTE   W06
 BYTE   AnM2
 BYTE   W06
 BYTE   GsM2
 BYTE   W06
 BYTE   GsM2
 BYTE   W06
 BYTE   GnM2
 BYTE   W06
 BYTE   FsM2
 BYTE   W06
 BYTE   FsM2
 BYTE   W06
 BYTE   FnM2
 BYTE   W06
 BYTE   FnM2
 BYTE   W06
 BYTE   EnM2
 BYTE   W06
 BYTE   DsM2
 BYTE   W06
 BYTE   DsM2
 BYTE   W06
 BYTE   DnM2
 BYTE   W06
 BYTE   CsM2
 BYTE   W06
 BYTE   CsM2
 BYTE   W06
 BYTE   CnM2
 BYTE   W06
// 061   ----------------------------------------
 BYTE   CnM2
 BYTE   W48
 BYTE   W72
// 062   ----------------------------------------
 BYTE   W72
 BYTE   FINE

//**************** Track 9 (Midi-Chn.8) ****************//

XenobladeChroniclesTragicDecisionRandomWizard_009:
// 000   ----------------------------------------
 BYTE   KEYSH   XenobladeChroniclesTragicDecisionRandomWizard_key+0
 BYTE   VOICE   56
 BYTE   VOL   17*XenobladeChroniclesTragicDecisionRandomWizard_mvl/mxv
 BYTE   PAN   c_v-32
 BYTE   BEND   c_v+0
 BYTE   W72
 BYTE   W72
// 001   ----------------------------------------
 BYTE   W72
 BYTE   W72
// 002   ----------------------------------------
 BYTE   W72
 BYTE   W72
// 003   ----------------------------------------
 BYTE   W72
 BYTE   W72
// 004   ----------------------------------------
 BYTE   W72
 BYTE   W72
// 005   ----------------------------------------
 BYTE   W72
 BYTE   W72
// 006   ----------------------------------------
 BYTE   W72
 BYTE   W72
// 007   ----------------------------------------
 BYTE   W72
 BYTE   W72
// 008   ----------------------------------------
Label_8_015DB78A:
 BYTE   W72
 BYTE   W72
// 009   ----------------------------------------
 BYTE   W72
 BYTE   W72
// 010   ----------------------------------------
 BYTE   W72
 BYTE   W72
// 011   ----------------------------------------
 BYTE   W72
 BYTE   W72
// 012   ----------------------------------------
 BYTE   W72
 BYTE   W72
// 013   ----------------------------------------
 BYTE   W72
 BYTE   W72
// 014   ----------------------------------------
 BYTE   W72
 BYTE   W72
// 015   ----------------------------------------
 BYTE   W72
 BYTE   W72
// 016   ----------------------------------------
 BYTE   W72
 BYTE   W72
// 017   ----------------------------------------
 BYTE   W72
 BYTE   W72
// 018   ----------------------------------------
 BYTE   W72
 BYTE   W72
// 019   ----------------------------------------
 BYTE   W72
 BYTE   W72
// 020   ----------------------------------------
 BYTE   W72
 BYTE   W72
// 021   ----------------------------------------
 BYTE   W72
 BYTE   W72
// 022   ----------------------------------------
 BYTE   W72
 BYTE   W72
// 023   ----------------------------------------
 BYTE   W72
 BYTE   W72
// 024   ----------------------------------------
 BYTE   W72
 BYTE   W72
// 025   ----------------------------------------
 BYTE   W72
 BYTE   W72
// 026   ----------------------------------------
 BYTE   W72
 BYTE   W72
// 027   ----------------------------------------
 BYTE   W72
 BYTE   W72
// 028   ----------------------------------------
 BYTE   W72
 BYTE   W72
// 029   ----------------------------------------
 BYTE   W72
 BYTE   W72
// 030   ----------------------------------------
 BYTE   W72
 BYTE   W72
// 031   ----------------------------------------
 BYTE   W72
 BYTE   W72
// 032   ----------------------------------------
 BYTE   W72
 BYTE   W72
// 033   ----------------------------------------
 BYTE   W72
 BYTE   W72
// 034   ----------------------------------------
 BYTE   W72
 BYTE   W72
// 035   ----------------------------------------
 BYTE   W72
 BYTE   W72
// 036   ----------------------------------------
 BYTE   W72
 BYTE   W72
// 037   ----------------------------------------
 BYTE   W72
 BYTE   W72
// 038   ----------------------------------------
 BYTE   W72
 BYTE   W12
 BYTE   N12  Gn4  v096
 BYTE   W12
// 039   ----------------------------------------
 BYTE   N24  Ds5
 BYTE   W24
 BYTE   N12  Dn5
 BYTE   W12
 BYTE   N24  Gn4
 BYTE   W12
 BYTE   W72
// 040   ----------------------------------------
 BYTE   W12
 BYTE   N12
 BYTE   W12
 BYTE   N24  Ds5
 BYTE   W24
 BYTE   Gn4
 BYTE   W24
 BYTE   W72
// 041   ----------------------------------------
 BYTE   W12
 BYTE   N12  Fs4
 BYTE   W12
 BYTE   N24  Dn5
 BYTE   W24
 BYTE   An4
 BYTE   W24
 BYTE   W60
// 042   ----------------------------------------
 BYTE   N36  Dn4  v127
 BYTE   W12
 BYTE   N12  An4
 BYTE   W12
 BYTE   N84  Fs4
 BYTE   W12
 BYTE   N72  Dn4
 BYTE   W48
 BYTE   W72
// 043   ----------------------------------------
Label_8_015DB7F7:
 BYTE   W12
 BYTE   N12  Gn4  v096
 BYTE   W12
 BYTE   N24  Ds5
 BYTE   W24
 BYTE   N48  Gn4
 BYTE   W24
 BYTE   PEND 
 BYTE   W72
 BYTE   PATT
  POIN2 Label_8_015DB7F7
// 044   ----------------------------------------
 BYTE   W72
 BYTE   W12
 BYTE   N12  Fs4  v096
 BYTE   W12
// 045   ----------------------------------------
 BYTE   N24  Dn5
 BYTE   W24
 BYTE   N72  An4
 BYTE   W24
 BYTE   W72
// 046   ----------------------------------------
 BYTE   W72
 BYTE   W72
// 047   ----------------------------------------
 BYTE   VOL   25*XenobladeChroniclesTragicDecisionRandomWizard_mvl/mxv
 BYTE   PAN   c_v+40
 BYTE   N06  Dn4  v076
 BYTE   W06
 BYTE   N06
 BYTE   W06
 BYTE   N06
 BYTE   W06
 BYTE   N06
 BYTE   W06
 BYTE   N06
 BYTE   W06
 BYTE   N06
 BYTE   W06
 BYTE   N06
 BYTE   W06
 BYTE   N06
 BYTE   W06
 BYTE   N06
 BYTE   W06
 BYTE   N06
 BYTE   W06
 BYTE   N06
 BYTE   W06
 BYTE   N06
 BYTE   W06
Label_8_015DB836:
 BYTE   N06  Dn4  v076
 BYTE   W06
 BYTE   N06
 BYTE   W06
 BYTE   N06
 BYTE   W06
 BYTE   N06
 BYTE   W06
// 048   ----------------------------------------
 BYTE   N06
 BYTE   W06
 BYTE   N06
 BYTE   W06
 BYTE   N06
 BYTE   W06
 BYTE   N06
 BYTE   W06
 BYTE   N06
 BYTE   W06
 BYTE   N06
 BYTE   W06
 BYTE   N06
 BYTE   W06
 BYTE   N06
 BYTE   W06
 BYTE   PEND 
 BYTE   PATT
  POIN2 Label_8_015DB836
 BYTE   PATT
  POIN2 Label_8_015DB836
 BYTE   PATT
  POIN2 Label_8_015DB836
 BYTE   PATT
  POIN2 Label_8_015DB836
 BYTE   PATT
  POIN2 Label_8_015DB836
 BYTE   PATT
  POIN2 Label_8_015DB836
 BYTE   PATT
  POIN2 Label_8_015DB836
 BYTE   PATT
  POIN2 Label_8_015DB836
 BYTE   PATT
  POIN2 Label_8_015DB836
 BYTE   PATT
  POIN2 Label_8_015DB836
// 049   ----------------------------------------
 BYTE   GoTo
  POIN2 Label_8_015DB78A
// 050   ----------------------------------------
 BYTE   VOL   12*XenobladeChroniclesTragicDecisionRandomWizard_mvl/mxv
 BYTE   TIE  Ds2  v096
 BYTE   TIE  As2
 BYTE   TIE  Ds3
 BYTE   W72
 BYTE   W72
// 051   ----------------------------------------
 BYTE   EOT
 BYTE   Ds2  v058
 BYTE   Ds3
Label_8_015DB897:
 BYTE   TIE  Gn1  v096
 BYTE   TIE  Dn2
 BYTE   TIE  Gn2
 BYTE   W72
 BYTE   PEND 
 BYTE   W72
// 052   ----------------------------------------
 BYTE   EOT
 BYTE   Gn1  v050
 BYTE   Gn2
 BYTE   TIE  Ds2
 BYTE   TIE  As2
 BYTE   TIE  Ds3
 BYTE   W72
 BYTE   W72
// 053   ----------------------------------------
 BYTE   EOT
 BYTE   Ds2  v058
 BYTE   Ds3
 BYTE   PATT
  POIN2 Label_8_015DB897
// 054   ----------------------------------------
 BYTE   W72
 BYTE   EOT
 BYTE   Gn1  v050
 BYTE   Gn2
 BYTE   VOL   12*XenobladeChroniclesTragicDecisionRandomWizard_mvl/mxv
 BYTE   TIE  Ds2  v096
 BYTE   TIE  As2
 BYTE   TIE  Ds3
 BYTE   W06
 BYTE   VOL   12*XenobladeChroniclesTragicDecisionRandomWizard_mvl/mxv
 BYTE   W06
 BYTE   BnM2
 BYTE   W06
 BYTE   BnM2
 BYTE   W06
// 055   ----------------------------------------
 BYTE   BnM2
 BYTE   W06
 BYTE   BnM2
 BYTE   W06
 BYTE   BnM2
 BYTE   W06
 BYTE   BnM2
 BYTE   W06
 BYTE   AsM2
 BYTE   W06
 BYTE   AsM2
 BYTE   W06
 BYTE   AsM2
 BYTE   W06
 BYTE   AsM2
 BYTE   W06
 BYTE   AsM2
 BYTE   W06
 BYTE   AnM2
 BYTE   W06
 BYTE   AnM2
 BYTE   W06
 BYTE   AnM2
 BYTE   W06
 BYTE   AnM2
 BYTE   W06
 BYTE   AnM2
 BYTE   W06
 BYTE   GsM2
 BYTE   W06
 BYTE   GsM2
 BYTE   W06
// 056   ----------------------------------------
 BYTE   GsM2
 BYTE   W06
 BYTE   GsM2
 BYTE   W06
 BYTE   GsM2
 BYTE   W06
 BYTE   GnM2
 BYTE   W06
 BYTE   EOT
 BYTE   Ds2  v058
 BYTE   Ds3
 BYTE   VOL   7*XenobladeChroniclesTragicDecisionRandomWizard_mvl/mxv
 BYTE   TIE  An1
 BYTE   TIE  En2
 BYTE   TIE  An2
 BYTE   W06
 BYTE   VOL   7*XenobladeChroniclesTragicDecisionRandomWizard_mvl/mxv
 BYTE   W06
 BYTE   GnM2
 BYTE   W06
 BYTE   GnM2
 BYTE   W06
 BYTE   FsM2
 BYTE   W06
 BYTE   FsM2
 BYTE   W06
 BYTE   FsM2
 BYTE   W06
 BYTE   FsM2
 BYTE   W06
 BYTE   FsM2
 BYTE   W06
 BYTE   FnM2
 BYTE   W06
 BYTE   FnM2
 BYTE   W06
 BYTE   FnM2
 BYTE   W06
// 057   ----------------------------------------
 BYTE   FnM2
 BYTE   W06
 BYTE   FnM2
 BYTE   W06
 BYTE   FnM2
 BYTE   W06
 BYTE   EnM2
 BYTE   W06
 BYTE   EnM2
 BYTE   W06
 BYTE   EnM2
 BYTE   W06
 BYTE   EnM2
 BYTE   W06
 BYTE   EnM2
 BYTE   W06
 BYTE   DsM2
 BYTE   W06
 BYTE   DsM2
 BYTE   W06
 BYTE   DsM2
 BYTE   W06
 BYTE   DsM2
 BYTE   W06
 BYTE   EOT
 BYTE   An1  v052
 BYTE   An2
 BYTE   VOL   3*XenobladeChroniclesTragicDecisionRandomWizard_mvl/mxv
 BYTE   TIE  Dn2
 BYTE   TIE  An2
 BYTE   TIE  Dn3
 BYTE   W06
 BYTE   VOL   2*XenobladeChroniclesTragicDecisionRandomWizard_mvl/mxv
 BYTE   W06
 BYTE   DnM2
 BYTE   W06
 BYTE   DnM2
 BYTE   W06
// 058   ----------------------------------------
 BYTE   DnM2
 BYTE   W06
 BYTE   DnM2
 BYTE   W06
 BYTE   CsM2
 BYTE   W06
 BYTE   CsM2
 BYTE   W06
 BYTE   CsM2
 BYTE   W06
 BYTE   CsM2
 BYTE   W06
 BYTE   CsM2
 BYTE   W06
 BYTE   CnM2
 BYTE   W06
 BYTE   CnM2
 BYTE   W06
 BYTE   CnM2
 BYTE   W06
 BYTE   CnM2
 BYTE   W06
 BYTE   CnM2
 BYTE   W06
 BYTE   CnM2
 BYTE   W48
// 059   ----------------------------------------
 BYTE   EOT
 BYTE   Dn2  v057
 BYTE   Dn3
 BYTE   TIE  Dn2
 BYTE   TIE  An2
 BYTE   TIE  Dn3
 BYTE   W72
 BYTE   W72
// 060   ----------------------------------------
 BYTE   EOT
 BYTE   Dn2  v057
 BYTE   Dn3
 BYTE   FINE

//**************** Track 10 (Midi-Chn.9) ****************//

XenobladeChroniclesTragicDecisionRandomWizard_010:
// 000   ----------------------------------------
 BYTE   KEYSH   XenobladeChroniclesTragicDecisionRandomWizard_key+0
 BYTE   VOICE   127
 BYTE   VOL   27*XenobladeChroniclesTragicDecisionRandomWizard_mvl/mxv
 BYTE   PAN   c_v+0
 BYTE   BEND   c_v+0
 BYTE   W72
 BYTE   W72
// 001   ----------------------------------------
 BYTE   W72
 BYTE   W72
// 002   ----------------------------------------
 BYTE   W72
 BYTE   W72
// 003   ----------------------------------------
 BYTE   W72
 BYTE   W72
// 004   ----------------------------------------
 BYTE   W72
 BYTE   W72
// 005   ----------------------------------------
 BYTE   W72
 BYTE   W72
// 006   ----------------------------------------
 BYTE   W72
 BYTE   W72
// 007   ----------------------------------------
 BYTE   W72
 BYTE   W72
// 008   ----------------------------------------
Label_9_015DB98A:
 BYTE   N12  Cn1  v096
 BYTE   N12  An2
 BYTE   W12
 BYTE   Gs1  v052
 BYTE   W12
 BYTE   Gs1  v096
 BYTE   W12
 BYTE   Cn1
 BYTE   N12  Gs1  v052
 BYTE   W12
 BYTE   Gs1  v096
 BYTE   W12
 BYTE   Cn1
 BYTE   N12  Gs1  v052
 BYTE   W12
 BYTE   PEND 
Label_9_015DB9A4:
 BYTE   N12  En1  v096
 BYTE   N12  Gs1
 BYTE   W12
 BYTE   Gs1  v052
 BYTE   W12
// 009   ----------------------------------------
 BYTE   Gs1  v096
 BYTE   W12
 BYTE   Gs1  v052
 BYTE   W12
 BYTE   Gs1  v096
 BYTE   W12
 BYTE   Gs1  v052
 BYTE   W12
 BYTE   PEND 
Label_9_015DB9BA:
 BYTE   N12  Cn1  v096
 BYTE   N12  Gs1
 BYTE   W12
 BYTE   Gs1  v052
 BYTE   W12
 BYTE   Gs1  v096
 BYTE   W12
 BYTE   Cn1
 BYTE   N12  Gs1  v052
 BYTE   W12
// 010   ----------------------------------------
 BYTE   Gs1  v096
 BYTE   W12
 BYTE   Cn1
 BYTE   N12  Gs1  v052
 BYTE   W12
 BYTE   PEND 
Label_9_015DB9D4:
 BYTE   N12  En1  v096
 BYTE   N12  Gs1
 BYTE   W12
 BYTE   Gs1  v052
 BYTE   W12
 BYTE   Gs1  v096
 BYTE   W12
 BYTE   Gs1  v052
 BYTE   W12
 BYTE   Gs1  v096
 BYTE   W12
 BYTE   Cn1
 BYTE   N12  Gs1  v052
 BYTE   W12
 BYTE   PEND 
 BYTE   PATT
  POIN2 Label_9_015DB98A
 BYTE   PATT
  POIN2 Label_9_015DB9A4
 BYTE   PATT
  POIN2 Label_9_015DB9BA
// 011   ----------------------------------------
 BYTE   N12  En1  v096
 BYTE   N12  Gs1
 BYTE   W12
 BYTE   Cn1
 BYTE   N12  Gs1  v052
 BYTE   W12
 BYTE   N24  Cn1  v096
 BYTE   N24  As1
 BYTE   W24
 BYTE   N12  Gs1
 BYTE   W12
 BYTE   Cn1
 BYTE   N12  Gs1  v052
 BYTE   W12
 BYTE   PATT
  POIN2 Label_9_015DB98A
 BYTE   PATT
  POIN2 Label_9_015DB9A4
// 012   ----------------------------------------
 BYTE   N12  Cn1  v096
 BYTE   N12  Gs1
 BYTE   W12
 BYTE   Gs1  v052
 BYTE   W12
 BYTE   Gs1  v096
 BYTE   W12
 BYTE   Cn1
 BYTE   N12  Gs1  v052
 BYTE   W12
 BYTE   Gs1  v096
 BYTE   W12
 BYTE   Gs1  v052
 BYTE   W12
 BYTE   PATT
  POIN2 Label_9_015DB9D4
 BYTE   PATT
  POIN2 Label_9_015DB98A
// 013   ----------------------------------------
 BYTE   N12  En1  v096
 BYTE   N12  Gs1
 BYTE   W12
 BYTE   Gs1  v052
 BYTE   W12
 BYTE   Gs1  v096
 BYTE   W12
 BYTE   Gs1  v052
 BYTE   W12
 BYTE   Cn1  v096
 BYTE   N12  Gs1
 BYTE   W12
 BYTE   Gs1  v052
 BYTE   W12
 BYTE   Cn1  v096
 BYTE   N12  Gs1
 BYTE   W12
 BYTE   Gs1  v052
 BYTE   W12
// 014   ----------------------------------------
 BYTE   Gs1  v096
 BYTE   W12
 BYTE   Cn1
 BYTE   N12  Gs1  v052
 BYTE   W12
 BYTE   Cn1  v096
 BYTE   N12  Gs1
 BYTE   W12
 BYTE   Gs1  v052
 BYTE   W12
 BYTE   En1  v096
 BYTE   N12  Gs1
 BYTE   W12
 BYTE   Gs1  v052
 BYTE   W12
 BYTE   Cn2  v096
 BYTE   W12
 BYTE   N12
 BYTE   W12
// 015   ----------------------------------------
 BYTE   An1
 BYTE   W12
 BYTE   N12
 BYTE   W12
 BYTE   Cn1
 BYTE   N12  An2
 BYTE   W12
 BYTE   Gs1  v052
 BYTE   W12
 BYTE   Gs1  v096
 BYTE   W12
 BYTE   Gs1  v052
 BYTE   W12
 BYTE   Gs1  v096
 BYTE   W12
 BYTE   Cn1
 BYTE   N12  Gs1  v052
 BYTE   W12
 BYTE   PATT
  POIN2 Label_9_015DB9A4
 BYTE   PATT
  POIN2 Label_9_015DB9BA
 BYTE   PATT
  POIN2 Label_9_015DB9D4
 BYTE   PATT
  POIN2 Label_9_015DB9BA
// 016   ----------------------------------------
 BYTE   N12  En1  v096
 BYTE   N12  Gs1
 BYTE   W12
 BYTE   Gs1  v052
 BYTE   W12
 BYTE   Gs1  v096
 BYTE   W12
 BYTE   Gs1  v052
 BYTE   W12
 BYTE   Gs1  v096
 BYTE   W12
 BYTE   En1
 BYTE   N12  Gs1  v052
 BYTE   W12
 BYTE   PATT
  POIN2 Label_9_015DB9BA
// 017   ----------------------------------------
 BYTE   N12  En1  v096
 BYTE   N12  Gs1
 BYTE   W12
 BYTE   Gs1  v052
 BYTE   W12
 BYTE   Cn1  v096
 BYTE   N12  Gs1
 BYTE   W12
 BYTE   Gs1  v052
 BYTE   W12
 BYTE   Cn1  v096
 BYTE   N12  Gs1
 BYTE   W12
 BYTE   Gs1  v052
 BYTE   W12
 BYTE   PATT
  POIN2 Label_9_015DB98A
// 018   ----------------------------------------
 BYTE   N12  En1  v096
 BYTE   N12  Gs1
 BYTE   W12
 BYTE   Gs1  v052
 BYTE   W12
 BYTE   Gs1  v096
 BYTE   W12
 BYTE   Gs1  v052
 BYTE   W12
 BYTE   Cn1  v096
 BYTE   N12  Gs1
 BYTE   W12
 BYTE   En1
 BYTE   N12  Gs1  v052
 BYTE   W12
 BYTE   Cn1  v096
 BYTE   N12  Gs1
 BYTE   W12
 BYTE   Gs1  v052
 BYTE   W12
// 019   ----------------------------------------
 BYTE   Gs1  v096
 BYTE   W12
 BYTE   Gs1  v052
 BYTE   W12
 BYTE   Gs1  v096
 BYTE   W12
 BYTE   Cn1
 BYTE   N12  Gs1  v052
 BYTE   W12
 BYTE   PATT
  POIN2 Label_9_015DB9D4
// 020   ----------------------------------------
 BYTE   N12  Cn1  v096
 BYTE   N12  An2
 BYTE   W12
 BYTE   Gs1  v052
 BYTE   W12
 BYTE   Gs1  v096
 BYTE   W12
 BYTE   Cn1
 BYTE   N12  Gs1  v052
 BYTE   W12
 BYTE   Gs1  v096
 BYTE   W12
 BYTE   Gs1  v052
 BYTE   W12
 BYTE   En1  v096
 BYTE   N12  Gs1
 BYTE   W12
 BYTE   Gs1  v052
 BYTE   W12
// 021   ----------------------------------------
 BYTE   Gs1  v096
 BYTE   W12
 BYTE   Cn1
 BYTE   N12  Gs1  v052
 BYTE   W12
 BYTE   Gs1  v096
 BYTE   W12
 BYTE   Cn1
 BYTE   N12  Gs1  v052
 BYTE   W12
 BYTE   PATT
  POIN2 Label_9_015DB9BA
// 022   ----------------------------------------
 BYTE   N24  En1  v096
 BYTE   N24  Cs2
 BYTE   W24
 BYTE   N06  Cn2
 BYTE   W06
 BYTE   N06
 BYTE   W06
 BYTE   N06
 BYTE   W06
 BYTE   N06
 BYTE   W06
 BYTE   An1
 BYTE   W06
 BYTE   N06
 BYTE   W06
 BYTE   N06
 BYTE   W06
 BYTE   N06
 BYTE   W06
Label_9_015DBB61:
 BYTE   N24  Cn1  v096
 BYTE   N24  An2
 BYTE   W24
// 023   ----------------------------------------
 BYTE   N12  Bn2
 BYTE   W12
 BYTE   Cn1
 BYTE   W12
 BYTE   N24  En1
 BYTE   N24  Bn2
 BYTE   W24
 BYTE   PEND 
 BYTE   N12  Cn1
 BYTE   N12  Bn2
 BYTE   W12
 BYTE   En1
 BYTE   W12
 BYTE   Bn2
 BYTE   W12
 BYTE   Cn1
 BYTE   W12
// 024   ----------------------------------------
 BYTE   N24  En1
 BYTE   N24  Bn2
 BYTE   W24
 BYTE   PATT
  POIN2 Label_9_015DBB61
// 025   ----------------------------------------
 BYTE   N12  Cn1  v096
 BYTE   N12  Bn2
 BYTE   W12
 BYTE   En1
 BYTE   W12
 BYTE   Bn1
 BYTE   W12
 BYTE   An1
 BYTE   W12
 BYTE   N06
 BYTE   W06
 BYTE   N06
 BYTE   W06
 BYTE   Gn1
 BYTE   W06
 BYTE   N06
 BYTE   W06
Label_9_015DBB9B:
 BYTE   N24  Cn1  v096
 BYTE   N24  An2
 BYTE   W24
// 026   ----------------------------------------
 BYTE   N12  As1
 BYTE   W12
 BYTE   Cn1
 BYTE   W12
 BYTE   N24  As1
 BYTE   W24
 BYTE   PEND 
Label_9_015DBBAA:
 BYTE   N12  En1  v096
 BYTE   N12  As1
 BYTE   W12
 BYTE   Cn1
 BYTE   W12
 BYTE   As1
 BYTE   W12
 BYTE   Cn1
 BYTE   W12
// 027   ----------------------------------------
 BYTE   As1
 BYTE   W12
 BYTE   Cn1
 BYTE   W12
 BYTE   PEND 
Label_9_015DBBBB:
 BYTE   N24  Cn1  v096
 BYTE   N24  As1
 BYTE   W24
 BYTE   Cn1
 BYTE   N24  As1
 BYTE   W24
 BYTE   N24
 BYTE   W24
 BYTE   PEND 
// 028   ----------------------------------------
Label_9_015DBBC8:
 BYTE   N12  En1  v096
 BYTE   N12  As1
 BYTE   W12
 BYTE   Cn1
 BYTE   W12
 BYTE   As1
 BYTE   W12
 BYTE   Cn1
 BYTE   W12
 BYTE   N24  As1
 BYTE   W24
 BYTE   PEND 
 BYTE   PATT
  POIN2 Label_9_015DBB9B
// 029   ----------------------------------------
Label_9_015DBBDD:
 BYTE   N12  En1  v096
 BYTE   N12  As1
 BYTE   W12
 BYTE   Cn1
 BYTE   W12
 BYTE   As1
 BYTE   W12
 BYTE   Cn1
 BYTE   W12
 BYTE   N24  En1
 BYTE   N24  As1
 BYTE   W24
 BYTE   PEND 
Label_9_015DBBEF:
 BYTE   N24  Cn1  v096
 BYTE   N24  As1
 BYTE   W24
// 030   ----------------------------------------
 BYTE   N12
 BYTE   W12
 BYTE   Cn1
 BYTE   W12
 BYTE   N24  As1
 BYTE   W24
 BYTE   PEND 
Label_9_015DBBFD:
 BYTE   N24  En1  v096
 BYTE   N24  As1
 BYTE   W24
 BYTE   N12
 BYTE   W12
 BYTE   Cn1
 BYTE   W12
// 031   ----------------------------------------
 BYTE   En1
 BYTE   N12  As1
 BYTE   W12
 BYTE   Cn1
 BYTE   W12
 BYTE   PEND 
Label_9_015DBC0E:
 BYTE   N24  Cn1  v096
 BYTE   N24  An2
 BYTE   W24
 BYTE   N12  Bn2
 BYTE   W12
 BYTE   Cn1
 BYTE   W12
 BYTE   N24
 BYTE   N24  Bn2
 BYTE   W24
 BYTE   PEND 
// 032   ----------------------------------------
Label_9_015DBC1E:
 BYTE   N24  En1  v096
 BYTE   N24  Bn2
 BYTE   W24
 BYTE   N12
 BYTE   W12
 BYTE   Cn1
 BYTE   W12
 BYTE   N24
 BYTE   N24  Bn2
 BYTE   W24
 BYTE   PEND 
Label_9_015DBC2D:
 BYTE   N24  Cn1  v096
 BYTE   N24  Bn2
 BYTE   W24
// 033   ----------------------------------------
 BYTE   N12
 BYTE   W12
 BYTE   Cn1
 BYTE   W12
 BYTE   N24
 BYTE   N24  Bn2
 BYTE   W24
 BYTE   PEND 
Label_9_015DBC3C:
 BYTE   N24  En1  v096
 BYTE   N24  Bn2
 BYTE   W24
 BYTE   N12
 BYTE   W12
 BYTE   En1  v052
 BYTE   W12
// 034   ----------------------------------------
 BYTE   En1  v096
 BYTE   W12
 BYTE   En1  v127
 BYTE   W12
 BYTE   PEND 
 BYTE   PATT
  POIN2 Label_9_015DBB9B
 BYTE   PATT
  POIN2 Label_9_015DBBAA
 BYTE   PATT
  POIN2 Label_9_015DBBBB
 BYTE   PATT
  POIN2 Label_9_015DBBC8
 BYTE   PATT
  POIN2 Label_9_015DBB9B
 BYTE   PATT
  POIN2 Label_9_015DBBDD
 BYTE   PATT
  POIN2 Label_9_015DBBEF
 BYTE   PATT
  POIN2 Label_9_015DBBFD
 BYTE   PATT
  POIN2 Label_9_015DBC0E
 BYTE   PATT
  POIN2 Label_9_015DBC1E
 BYTE   PATT
  POIN2 Label_9_015DBC2D
 BYTE   PATT
  POIN2 Label_9_015DBC3C
// 035   ----------------------------------------
Label_9_015DBC8A:
 BYTE   N12  Cn1  v096
 BYTE   N12  An2
 BYTE   W12
 BYTE   Gs1
 BYTE   W12
 BYTE   N12
 BYTE   W12
 BYTE   Cn1
 BYTE   N12  Gs1
 BYTE   W12
 BYTE   N12
 BYTE   W12
 BYTE   Cn1
 BYTE   N12  Gs1
 BYTE   W12
 BYTE   PEND 
Label_9_015DBC9F:
 BYTE   N12  En1  v096
 BYTE   N12  Gs1
 BYTE   W12
 BYTE   N12
 BYTE   W12
// 036   ----------------------------------------
 BYTE   N12
 BYTE   W12
 BYTE   Cn1
 BYTE   N12  Gs1
 BYTE   W12
 BYTE   N12
 BYTE   W12
 BYTE   Cn1
 BYTE   N12  Gs1
 BYTE   W12
 BYTE   PEND 
Label_9_015DBCB4:
 BYTE   N12  Cn1  v096
 BYTE   N12  Gs1
 BYTE   W12
 BYTE   N12
 BYTE   W12
 BYTE   N12
 BYTE   W12
 BYTE   Cn1
 BYTE   N12  Gs1
 BYTE   W12
// 037   ----------------------------------------
 BYTE   N12
 BYTE   W12
 BYTE   Cn1
 BYTE   N12  Gs1
 BYTE   W12
 BYTE   PEND 
Label_9_015DBCC9:
 BYTE   N12  En1  v096
 BYTE   N12  Gs1
 BYTE   W12
 BYTE   N12
 BYTE   W12
 BYTE   N12
 BYTE   W12
 BYTE   Cn1
 BYTE   N12  Gs1
 BYTE   W12
 BYTE   As1
 BYTE   W12
 BYTE   Cn1
 BYTE   N12  Gs1
 BYTE   W12
 BYTE   PEND 
 BYTE   PATT
  POIN2 Label_9_015DBCB4
 BYTE   PATT
  POIN2 Label_9_015DBC9F
 BYTE   PATT
  POIN2 Label_9_015DBCB4
 BYTE   PATT
  POIN2 Label_9_015DBC9F
 BYTE   PATT
  POIN2 Label_9_015DBC8A
 BYTE   PATT
  POIN2 Label_9_015DBC9F
 BYTE   PATT
  POIN2 Label_9_015DBCB4
 BYTE   PATT
  POIN2 Label_9_015DBCC9
 BYTE   PATT
  POIN2 Label_9_015DBCB4
 BYTE   PATT
  POIN2 Label_9_015DBC9F
 BYTE   PATT
  POIN2 Label_9_015DBCB4
 BYTE   PATT
  POIN2 Label_9_015DBC9F
// 038   ----------------------------------------
 BYTE   W72
 BYTE   N24  Cn1  v096
 BYTE   N24  An2
 BYTE   W24
// 039   ----------------------------------------
 BYTE   N12  As1
 BYTE   W12
 BYTE   Cn1
 BYTE   W12
 BYTE   En1
 BYTE   N12  As1
 BYTE   W12
 BYTE   N06  En1
 BYTE   W06
 BYTE   N06
 BYTE   W06
Label_9_015DBD2F:
 BYTE   N24  Cn1  v096
 BYTE   N24  As1
 BYTE   W24
 BYTE   N12
 BYTE   W12
 BYTE   Cn1
 BYTE   W12
// 040   ----------------------------------------
 BYTE   En1
 BYTE   N12  As1
 BYTE   W12
 BYTE   Cn1
 BYTE   W12
 BYTE   PEND 
Label_9_015DBD40:
 BYTE   N24  Cn1  v096
 BYTE   N24  An2
 BYTE   W24
 BYTE   N12  As1
 BYTE   W12
 BYTE   Cn1
 BYTE   W12
 BYTE   En1
 BYTE   N12  As1
 BYTE   W12
 BYTE   Cn1
 BYTE   W12
 BYTE   PEND 
 BYTE   PATT
  POIN2 Label_9_015DBD2F
 BYTE   PATT
  POIN2 Label_9_015DBD40
 BYTE   PATT
  POIN2 Label_9_015DBD2F
// 041   ----------------------------------------
 BYTE   N12  Cn1  v096
 BYTE   N12  An2
 BYTE   W12
 BYTE   N06  En1  v076
 BYTE   W06
 BYTE   N06
 BYTE   W06
 BYTE   N12  En1  v096
 BYTE   N12  As1
 BYTE   W12
 BYTE   Cn1
 BYTE   W12
 BYTE   En1
 BYTE   N12  As1
 BYTE   W12
 BYTE   Cn1
 BYTE   W12
 BYTE   N12
 BYTE   N12  As1
 BYTE   W12
 BYTE   En1
 BYTE   W12
// 042   ----------------------------------------
 BYTE   As1
 BYTE   W12
 BYTE   Cn1
 BYTE   W12
 BYTE   En1
 BYTE   N12  As1
 BYTE   W12
 BYTE   En1
 BYTE   W12
Label_9_015DBD8B:
 BYTE   N12  Cn1  v096
 BYTE   N12  An2
 BYTE   W12
 BYTE   Cn1
 BYTE   W12
 BYTE   En1
 BYTE   N12  As1
 BYTE   W12
 BYTE   Cn1
 BYTE   W12
// 043   ----------------------------------------
 BYTE   N24  En1
 BYTE   N24  As1
 BYTE   W24
 BYTE   PEND 
 BYTE   N12  Cn1
 BYTE   N12  As1
 BYTE   W12
 BYTE   Cn1
 BYTE   W12
 BYTE   As1
 BYTE   W12
 BYTE   En1
 BYTE   W12
 BYTE   Cn1
 BYTE   N12  As1
 BYTE   W12
 BYTE   En1
 BYTE   W12
 BYTE   PATT
  POIN2 Label_9_015DBD8B
// 044   ----------------------------------------
 BYTE   N12  Cn1  v096
 BYTE   N12  As1
 BYTE   W12
 BYTE   Cn1
 BYTE   W12
 BYTE   En1
 BYTE   N12  As1
 BYTE   W12
 BYTE   Cn1
 BYTE   W12
 BYTE   N24  En1
 BYTE   N24  As1
 BYTE   W24
 BYTE   GoTo
  POIN2 Label_9_015DB98A
// 045   ----------------------------------------
 BYTE   N12  Cn1  v096
 BYTE   N12  An2
 BYTE   W12
 BYTE   Gs1
 BYTE   W12
 BYTE   N12
 BYTE   W12
 BYTE   Cn1
 BYTE   N12  Gs1
 BYTE   W12
 BYTE   N12
 BYTE   W12
 BYTE   N12
 BYTE   W12
Label_9_015DBDDF:
 BYTE   N12  En1  v096
 BYTE   W12
 BYTE   Gs1
 BYTE   W12
// 046   ----------------------------------------
 BYTE   N12
 BYTE   W12
 BYTE   Cn1
 BYTE   N12  Gs1
 BYTE   W12
 BYTE   N12
 BYTE   W12
 BYTE   N12
 BYTE   W12
 BYTE   PEND 
 BYTE   Cn1
 BYTE   N12  Gs1
 BYTE   W12
 BYTE   N12
 BYTE   W12
 BYTE   N12
 BYTE   W12
 BYTE   Cn1
 BYTE   N12  Gs1
 BYTE   W12
// 047   ----------------------------------------
 BYTE   N12
 BYTE   W12
 BYTE   N12
 BYTE   W12
 BYTE   PATT
  POIN2 Label_9_015DBDDF
 BYTE   PATT
  POIN2 Label_9_015DBCB4
 BYTE   PATT
  POIN2 Label_9_015DBDDF
// 048   ----------------------------------------
Label_9_015DBE0F:
 BYTE   N12  Cn1  v096
 BYTE   N12  Gs1
 BYTE   W12
 BYTE   En1
 BYTE   N12  Gs1
 BYTE   W12
 BYTE   N12
 BYTE   W12
 BYTE   Cn1
 BYTE   N12  Gs1
 BYTE   W12
 BYTE   N12
 BYTE   W12
 BYTE   N12
 BYTE   W12
 BYTE   PEND 
Label_9_015DBE24:
 BYTE   N12  En1  v096
 BYTE   W12
 BYTE   Gs1
 BYTE   W12
// 049   ----------------------------------------
 BYTE   Cn1
 BYTE   N12  Gs1
 BYTE   W12
 BYTE   Cn1
 BYTE   N12  Gs1
 BYTE   W12
 BYTE   N12
 BYTE   W12
 BYTE   N12
 BYTE   W12
 BYTE   PEND 
 BYTE   VOL   27*XenobladeChroniclesTragicDecisionRandomWizard_mvl/mxv
 BYTE   N12  Cn1
 BYTE   N12  An2
 BYTE   W06
 BYTE   VOL   26*XenobladeChroniclesTragicDecisionRandomWizard_mvl/mxv
 BYTE   W06
 BYTE   Dn0
 BYTE   N12  Gs1
 BYTE   W06
 BYTE   VOL   26*XenobladeChroniclesTragicDecisionRandomWizard_mvl/mxv
 BYTE   W06
 BYTE   Cs0
 BYTE   N12
 BYTE   W06
 BYTE   VOL   25*XenobladeChroniclesTragicDecisionRandomWizard_mvl/mxv
 BYTE   W06
 BYTE   Cn0
 BYTE   N12  Cn1
 BYTE   N12  Gs1
 BYTE   W06
 BYTE   VOL   24*XenobladeChroniclesTragicDecisionRandomWizard_mvl/mxv
 BYTE   W06
// 050   ----------------------------------------
 BYTE   BnM1
 BYTE   N12
 BYTE   W06
 BYTE   VOL   23*XenobladeChroniclesTragicDecisionRandomWizard_mvl/mxv
 BYTE   W06
 BYTE   AsM1
 BYTE   N12
 BYTE   W06
 BYTE   VOL   22*XenobladeChroniclesTragicDecisionRandomWizard_mvl/mxv
 BYTE   W06
 BYTE   AsM1
 BYTE   N12  En1
 BYTE   W06
 BYTE   VOL   21*XenobladeChroniclesTragicDecisionRandomWizard_mvl/mxv
 BYTE   W06
 BYTE   AnM1
 BYTE   N12  Gs1
 BYTE   W06
 BYTE   VOL   20*XenobladeChroniclesTragicDecisionRandomWizard_mvl/mxv
 BYTE   W06
 BYTE   GsM1
 BYTE   N12
 BYTE   W06
 BYTE   VOL   20*XenobladeChroniclesTragicDecisionRandomWizard_mvl/mxv
 BYTE   W06
 BYTE   GnM1
 BYTE   N12  Cn1
 BYTE   N12  Gs1
 BYTE   W06
 BYTE   VOL   19*XenobladeChroniclesTragicDecisionRandomWizard_mvl/mxv
 BYTE   W06
 BYTE   FsM1
 BYTE   N12
 BYTE   W06
 BYTE   VOL   18*XenobladeChroniclesTragicDecisionRandomWizard_mvl/mxv
 BYTE   W06
 BYTE   FnM1
 BYTE   N12
 BYTE   W06
 BYTE   VOL   17*XenobladeChroniclesTragicDecisionRandomWizard_mvl/mxv
 BYTE   W06
// 051   ----------------------------------------
 BYTE   FnM1
 BYTE   N12  Cn1
 BYTE   N12  Gs1
 BYTE   W06
 BYTE   VOL   16*XenobladeChroniclesTragicDecisionRandomWizard_mvl/mxv
 BYTE   W06
 BYTE   EnM1
 BYTE   N12
 BYTE   W06
 BYTE   VOL   15*XenobladeChroniclesTragicDecisionRandomWizard_mvl/mxv
 BYTE   W06
 BYTE   DsM1
 BYTE   N12
 BYTE   W06
 BYTE   VOL   14*XenobladeChroniclesTragicDecisionRandomWizard_mvl/mxv
 BYTE   W06
 BYTE   DnM1
 BYTE   N12  Cn1
 BYTE   N12  Gs1
 BYTE   W06
 BYTE   VOL   14*XenobladeChroniclesTragicDecisionRandomWizard_mvl/mxv
 BYTE   W06
 BYTE   CsM1
 BYTE   N12
 BYTE   W06
 BYTE   VOL   13*XenobladeChroniclesTragicDecisionRandomWizard_mvl/mxv
 BYTE   W06
 BYTE   CnM1
 BYTE   N12
 BYTE   W06
 BYTE   VOL   12*XenobladeChroniclesTragicDecisionRandomWizard_mvl/mxv
 BYTE   W06
 BYTE   BnM2
 BYTE   N12  En1
 BYTE   W06
 BYTE   VOL   11*XenobladeChroniclesTragicDecisionRandomWizard_mvl/mxv
 BYTE   W06
 BYTE   BnM2
 BYTE   N12  Gs1
 BYTE   W06
 BYTE   VOL   10*XenobladeChroniclesTragicDecisionRandomWizard_mvl/mxv
 BYTE   W06
// 052   ----------------------------------------
 BYTE   AsM2
 BYTE   N12
 BYTE   W06
 BYTE   VOL   9*XenobladeChroniclesTragicDecisionRandomWizard_mvl/mxv
 BYTE   W06
 BYTE   AnM2
 BYTE   N12  Cn1
 BYTE   N12  Gs1
 BYTE   W06
 BYTE   VOL   8*XenobladeChroniclesTragicDecisionRandomWizard_mvl/mxv
 BYTE   W06
 BYTE   GsM2
 BYTE   N12
 BYTE   W06
 BYTE   VOL   8*XenobladeChroniclesTragicDecisionRandomWizard_mvl/mxv
 BYTE   W06
 BYTE   GnM2
 BYTE   N12
 BYTE   W06
 BYTE   VOL   7*XenobladeChroniclesTragicDecisionRandomWizard_mvl/mxv
 BYTE   W06
 BYTE   FsM2
 BYTE   N12  Cn1
 BYTE   N12  Gs1
 BYTE   W06
 BYTE   VOL   6*XenobladeChroniclesTragicDecisionRandomWizard_mvl/mxv
 BYTE   W06
 BYTE   FnM2
 BYTE   N12
 BYTE   W06
 BYTE   VOL   5*XenobladeChroniclesTragicDecisionRandomWizard_mvl/mxv
 BYTE   W06
 BYTE   FnM2
 BYTE   N12
 BYTE   W06
 BYTE   VOL   4*XenobladeChroniclesTragicDecisionRandomWizard_mvl/mxv
 BYTE   W06
 BYTE   EnM2
 BYTE   N12  Cn1
 BYTE   N12  Gs1
 BYTE   W06
 BYTE   VOL   3*XenobladeChroniclesTragicDecisionRandomWizard_mvl/mxv
 BYTE   W06
// 053   ----------------------------------------
 BYTE   DsM2
 BYTE   N12
 BYTE   W06
 BYTE   VOL   2*XenobladeChroniclesTragicDecisionRandomWizard_mvl/mxv
 BYTE   W06
 BYTE   DnM2
 BYTE   N12  Cn1
 BYTE   N12  Gs1
 BYTE   W06
 BYTE   VOL   2*XenobladeChroniclesTragicDecisionRandomWizard_mvl/mxv
 BYTE   W06
 BYTE   CsM2
 BYTE   N12  En1
 BYTE   W06
 BYTE   VOL   1*XenobladeChroniclesTragicDecisionRandomWizard_mvl/mxv
 BYTE   W06
 BYTE   CnM2
 BYTE   N12  Gs1
 BYTE   W06
 BYTE   VOL   0*XenobladeChroniclesTragicDecisionRandomWizard_mvl/mxv
 BYTE   W06
 BYTE   CnM2
 BYTE   N12
 BYTE   W12
 BYTE   Cn1
 BYTE   N12  Gs1
 BYTE   W12
 BYTE   N12
 BYTE   W12
 BYTE   N12
 BYTE   W12
 BYTE   PATT
  POIN2 Label_9_015DBE0F
 BYTE   PATT
  POIN2 Label_9_015DBE24
 BYTE   FINE

//******************************************************//
	ALIGN 4

XenobladeChroniclesTragicDecisionRandomWizard:
	BYTE	10	// NumTrks
	BYTE	0	// NumBlks
	BYTE	XenobladeChroniclesTragicDecisionRandomWizard_pri	// Priority
	BYTE	XenobladeChroniclesTragicDecisionRandomWizard_rev	// Reverb.
    
	POIN2	XenobladeChroniclesTragicDecisionRandomWizard_grp
    
	POIN2	XenobladeChroniclesTragicDecisionRandomWizard_001
	POIN2	XenobladeChroniclesTragicDecisionRandomWizard_002
	POIN2	XenobladeChroniclesTragicDecisionRandomWizard_003
	POIN2	XenobladeChroniclesTragicDecisionRandomWizard_004
	POIN2	XenobladeChroniclesTragicDecisionRandomWizard_005
	POIN2	XenobladeChroniclesTragicDecisionRandomWizard_006
	POIN2	XenobladeChroniclesTragicDecisionRandomWizard_007
	POIN2	XenobladeChroniclesTragicDecisionRandomWizard_008
	POIN2	XenobladeChroniclesTragicDecisionRandomWizard_009
	POIN2	XenobladeChroniclesTragicDecisionRandomWizard_010

	
