//Event file generated from Sappy .s format.
	#include "MPlayDef.event"

	#define	XenobladeChroniclesYouWillKnowOurNamesRandomWizard_grp  voicegroup000
	#define	XenobladeChroniclesYouWillKnowOurNamesRandomWizard_pri  0
	#define	XenobladeChroniclesYouWillKnowOurNamesRandomWizard_rev  0
	#define	XenobladeChroniclesYouWillKnowOurNamesRandomWizard_mvl  127
	#define	XenobladeChroniclesYouWillKnowOurNamesRandomWizard_key  0
	#define	XenobladeChroniclesYouWillKnowOurNamesRandomWizard_tbs  1
	#define	XenobladeChroniclesYouWillKnowOurNamesRandomWizard_exg  0
	#define	XenobladeChroniclesYouWillKnowOurNamesRandomWizard_cmp  1

	// .rodata
	//	XenobladeChroniclesYouWillKnowOurNamesRandomWizard
	ALIGN 4


//**************** Track 1 (Midi-Chn.0) ****************//

XenobladeChroniclesYouWillKnowOurNamesRandomWizard_001:
// 000   ----------------------------------------
 BYTE   KEYSH   XenobladeChroniclesYouWillKnowOurNamesRandomWizard_key+0
 BYTE   TEMPO   176*XenobladeChroniclesYouWillKnowOurNamesRandomWizard_tbs/2
 BYTE   VOICE   40
 BYTE   VOL   28*XenobladeChroniclesYouWillKnowOurNamesRandomWizard_mvl/mxv
 BYTE   PAN   c_v+0
 BYTE   N12  Fn4  v100
 BYTE   W12
 BYTE   Cs4
 BYTE   W12
 BYTE   As3
 BYTE   W12
 BYTE   N24  Fs4
 BYTE   W24
 BYTE   N12  Dn4
 BYTE   W12
 BYTE   N24  Bn3
 BYTE   W24
// 001   ----------------------------------------
Label_0_015DB753:
 BYTE   N12  Fn4  v100
 BYTE   W12
 BYTE   Cs4
 BYTE   W12
 BYTE   As3
 BYTE   W12
 BYTE   N24  En4
 BYTE   W24
 BYTE   N12  Cn4
 BYTE   W12
 BYTE   N24  An3
 BYTE   W24
 BYTE   PEND 
// 002   ----------------------------------------
Label_0_015DB765:
 BYTE   N12  Fn4  v100
 BYTE   W12
 BYTE   Cs4
 BYTE   W12
 BYTE   As3
 BYTE   W12
 BYTE   N24  Fs4
 BYTE   W24
 BYTE   N12  Dn4
 BYTE   W12
 BYTE   N24  Bn3
 BYTE   W24
 BYTE   PEND 
// 003   ----------------------------------------
Label_0_015DB777:
 BYTE   N12  Gn4  v100
 BYTE   W12
 BYTE   En4
 BYTE   W12
 BYTE   Cn4
 BYTE   W12
 BYTE   N24  An4
 BYTE   W24
 BYTE   N12  Fn4
 BYTE   W12
 BYTE   N24  Cn4
 BYTE   W24
 BYTE   PEND 
 BYTE   PATT
  POIN2 Label_0_015DB765
 BYTE   PATT
  POIN2 Label_0_015DB753
 BYTE   PATT
  POIN2 Label_0_015DB765
 BYTE   PATT
  POIN2 Label_0_015DB777
// 004   ----------------------------------------
Label_0_015DB79D:
 BYTE   N36  As3  v100
 BYTE   N36  Fn4
 BYTE   W36
 BYTE   N60  Bn3
 BYTE   N60  Fs4
 BYTE   W60
 BYTE   PEND 
// 005   ----------------------------------------
Label_0_015DB7A9:
 BYTE   N36  Fn4  v100
 BYTE   N36  Gs4
 BYTE   W36
 BYTE   N60  En4
 BYTE   N60  Gn4
 BYTE   W60
 BYTE   PEND 
 BYTE   PATT
  POIN2 Label_0_015DB79D
// 006   ----------------------------------------
 BYTE   N36  Gn3  v100
 BYTE   N36  En4
 BYTE   W36
 BYTE   N60  An3
 BYTE   N60  Fn4
 BYTE   W60
 BYTE   PATT
  POIN2 Label_0_015DB79D
 BYTE   PATT
  POIN2 Label_0_015DB7A9
 BYTE   PATT
  POIN2 Label_0_015DB79D
// 007   ----------------------------------------
 BYTE   N36  Cn4  v100
 BYTE   N36  Gn4
 BYTE   W36
 BYTE   N60  Fn4
 BYTE   N60  An4
 BYTE   W60
// 008   ----------------------------------------
 BYTE   W24
 BYTE   N48  As3  v060
 BYTE   N48  Fn4
 BYTE   W60
 BYTE   TIE  An3
 BYTE   TIE  En4
 BYTE   W12
// 009   ----------------------------------------
 BYTE   W96
// 010   ----------------------------------------
 BYTE   EOT
 BYTE   An3  v076
 BYTE   W24
 BYTE   N48  Bn3
 BYTE   N48  Fs4
 BYTE   W60
 BYTE   N36  As3
 BYTE   N36  Fn4
 BYTE   W12
// 011   ----------------------------------------
 BYTE   W36
 BYTE   N60  Cs4
 BYTE   N60  Gs4
 BYTE   W60
// 012   ----------------------------------------
 BYTE   W36
 BYTE   N36  Fn4
 BYTE   N36  As4
 BYTE   W36
 BYTE   N12  Fn4
 BYTE   N12  Gs4
 BYTE   W24
// 013   ----------------------------------------
 BYTE   N24  En4
 BYTE   N24  Gn4
 BYTE   W36
 BYTE   N36  Cn4
 BYTE   N36  En4
 BYTE   W48
 BYTE   Bn3
 BYTE   N36  Ds4
 BYTE   W12
// 014   ----------------------------------------
 BYTE   W24
 BYTE   N12  Cs4
 BYTE   N12  Fn4
 BYTE   W24
 BYTE   Ds4
 BYTE   N12  Fs4
 BYTE   W24
 BYTE   Fn4
 BYTE   N12  Gs4
 BYTE   W12
 BYTE   N36  Cs4
 BYTE   N36  Fn4
 BYTE   W12
// 015   ----------------------------------------
 BYTE   W24
 BYTE   N12  Ds4
 BYTE   N12  Gs4
 BYTE   W24
 BYTE   Fn4
 BYTE   N12  Gs4
 BYTE   W24
 BYTE   Cs4
 BYTE   N12  Fn4
 BYTE   W12
 BYTE   N12
 BYTE   N12  Gs4
 BYTE   W12
// 016   ----------------------------------------
 BYTE   W24
 BYTE   N48  As3  v100
 BYTE   N48  Cs4
 BYTE   N48  Fn4
 BYTE   W60
 BYTE   TIE  An3
 BYTE   TIE  Cn4
 BYTE   TIE  En4
 BYTE   W12
// 017   ----------------------------------------
 BYTE   W96
// 018   ----------------------------------------
 BYTE   EOT
 BYTE   An3  v072
 BYTE   En4
 BYTE   W24
 BYTE   N48  Bn3
 BYTE   N48  Ds4
 BYTE   N48  Fs4
 BYTE   W60
 BYTE   N36  As3
 BYTE   N36  Cs4
 BYTE   N36  Fn4
 BYTE   W12
// 019   ----------------------------------------
 BYTE   W36
 BYTE   N60  Cs4
 BYTE   N60  Fn4
 BYTE   N60  Gs4
 BYTE   W60
// 020   ----------------------------------------
 BYTE   W36
 BYTE   N36  Cs4
 BYTE   N36  Fn4
 BYTE   N36  As4
 BYTE   W36
 BYTE   N12  Cs4
 BYTE   N12  Fn4
 BYTE   N12  Gs4
 BYTE   W24
// 021   ----------------------------------------
 BYTE   N36  Cn4
 BYTE   N36  En4
 BYTE   N36  Gn4
 BYTE   W36
 BYTE   Gn3
 BYTE   N36  Cn4
 BYTE   N36  En4
 BYTE   W48
 BYTE   N84  Fs3  v080
 BYTE   N84  Bn3
 BYTE   N84  Ds4
 BYTE   W12
// 022   ----------------------------------------
 BYTE   W84
 BYTE   TIE  Cs4
 BYTE   TIE  Fn4
 BYTE   TIE  Gs4
 BYTE   W12
// 023   ----------------------------------------
 BYTE   W96
// 024   ----------------------------------------
 BYTE   EOT
 BYTE   Cs4  v077
 BYTE   Gs4
 BYTE   W96
// 025   ----------------------------------------
 BYTE   W96
// 026   ----------------------------------------
 BYTE   W96
// 027   ----------------------------------------
 BYTE   W96
// 028   ----------------------------------------
 BYTE   W96
// 029   ----------------------------------------
 BYTE   W96
// 030   ----------------------------------------
 BYTE   W96
// 031   ----------------------------------------
 BYTE   W60
 BYTE   N12  As3  v100
 BYTE   W12
 BYTE   Cn4
 BYTE   W12
 BYTE   Cs4
 BYTE   W12
// 032   ----------------------------------------
 BYTE   N60  Fn4
 BYTE   W60
 BYTE   N12
 BYTE   W12
 BYTE   Ds4
 BYTE   W12
 BYTE   Cs4
 BYTE   W12
// 033   ----------------------------------------
 BYTE   N36  Cn4
 BYTE   W36
 BYTE   N60  Gs3
 BYTE   W60
// 034   ----------------------------------------
 BYTE   N72  As3
 BYTE   W72
 BYTE   N12  Cn4
 BYTE   W12
 BYTE   Cs4
 BYTE   W12
// 035   ----------------------------------------
 BYTE   N24  Fn4
 BYTE   W24
 BYTE   Ds4
 BYTE   W24
 BYTE   As3
 BYTE   W24
 BYTE   Cn4
 BYTE   W24
// 036   ----------------------------------------
 BYTE   TIE  Cs4
 BYTE   W96
// 037   ----------------------------------------
 BYTE   W72
 BYTE   EOT
 BYTE   N06  As3
 BYTE   N06  As4
 BYTE   W06
 BYTE   Cn4
 BYTE   N06  Cn5
 BYTE   W06
 BYTE   Cs4
 BYTE   N06  Cs5
 BYTE   W06
 BYTE   Ds4
 BYTE   N06  Ds5
 BYTE   W06
// 038   ----------------------------------------
 BYTE   As3
 BYTE   N06  Fn4
 BYTE   N06  As4
 BYTE   N06  Fn5
 BYTE   W12
 BYTE   As3
 BYTE   N06  Fn4
 BYTE   N06  As4
 BYTE   N06  Fn5
 BYTE   W24
 BYTE   As3
 BYTE   N06  Fn4
 BYTE   N06  As4
 BYTE   N06  Fn5
 BYTE   W12
 BYTE   As3
 BYTE   N06  Fn4
 BYTE   N06  As4
 BYTE   N06  Fn5
 BYTE   W24
 BYTE   As3
 BYTE   N06  Fn4
 BYTE   N06  As4
 BYTE   N06  Fn5
 BYTE   W12
 BYTE   An3
 BYTE   N06  Fn4
 BYTE   N06  An4
 BYTE   N06  Fn5
 BYTE   W12
// 039   ----------------------------------------
 BYTE   W96
// 040   ----------------------------------------
 BYTE   W96
// 041   ----------------------------------------
 BYTE   W96
// 042   ----------------------------------------
 BYTE   W96
// 043   ----------------------------------------
 BYTE   W96
// 044   ----------------------------------------
 BYTE   W96
// 045   ----------------------------------------
 BYTE   W96
// 046   ----------------------------------------
 BYTE   W96
// 047   ----------------------------------------
 BYTE   W96
// 048   ----------------------------------------
 BYTE   W96
// 049   ----------------------------------------
 BYTE   W96
// 050   ----------------------------------------
 BYTE   W96
// 051   ----------------------------------------
 BYTE   W96
// 052   ----------------------------------------
 BYTE   W96
// 053   ----------------------------------------
 BYTE   W96
// 054   ----------------------------------------
Label_0_015DB920:
 BYTE   N12  Ds4  v100
 BYTE   N12  Ds5
 BYTE   W12
 BYTE   Ds4
 BYTE   N12  Ds5
 BYTE   W24
 BYTE   Ds4
 BYTE   N12  Ds5
 BYTE   W12
 BYTE   Ds4
 BYTE   N12  Ds5
 BYTE   W24
 BYTE   Ds4
 BYTE   N12  Ds5
 BYTE   W12
 BYTE   Ds4
 BYTE   N12  Ds5
 BYTE   W12
 BYTE   PEND 
// 055   ----------------------------------------
Label_0_015DB93B:
 BYTE   W12
 BYTE   N12  Ds4  v100
 BYTE   N12  Ds5
 BYTE   W12
 BYTE   Ds4
 BYTE   N12  Ds5
 BYTE   W24
 BYTE   Dn4
 BYTE   N12  Dn5
 BYTE   W48
 BYTE   PEND 
 BYTE   PATT
  POIN2 Label_0_015DB920
 BYTE   PATT
  POIN2 Label_0_015DB93B
// 056   ----------------------------------------
 BYTE   W96
// 057   ----------------------------------------
 BYTE   W96
// 058   ----------------------------------------
 BYTE   W96
// 059   ----------------------------------------
 BYTE   W96
// 060   ----------------------------------------
 BYTE   W96
// 061   ----------------------------------------
 BYTE   W96
// 062   ----------------------------------------
 BYTE   W96
// 063   ----------------------------------------
 BYTE   W96
// 064   ----------------------------------------
 BYTE   W96
// 065   ----------------------------------------
 BYTE   W96
// 066   ----------------------------------------
 BYTE   W96
// 067   ----------------------------------------
 BYTE   W96
// 068   ----------------------------------------
 BYTE   W96
// 069   ----------------------------------------
 BYTE   W96
// 070   ----------------------------------------
 BYTE   W96
// 071   ----------------------------------------
 BYTE   W96
// 072   ----------------------------------------
 BYTE   N12  Ds4  v100
 BYTE   N12  Ds5
 BYTE   W12
 BYTE   Ds4
 BYTE   N12  Ds5
 BYTE   W24
 BYTE   Ds4
 BYTE   N12  Ds5
 BYTE   W12
 BYTE   Ds4
 BYTE   N12  Ds5
 BYTE   TIE  Fn5
 BYTE   W24
 BYTE   N12  Ds4
 BYTE   N12  Ds5
 BYTE   W12
 BYTE   Ds4
 BYTE   N12  Ds5
 BYTE   W12
 BYTE   PATT
  POIN2 Label_0_015DB93B
// 073   ----------------------------------------
 BYTE   EOT
 BYTE   Fn5
 BYTE   N12  Ds4  v100
 BYTE   N12  Ds5
 BYTE   N06  An5
 BYTE   W06
 BYTE   TIE  As5
 BYTE   W06
 BYTE   N12  Ds4
 BYTE   N12  Ds5
 BYTE   W24
 BYTE   Ds4
 BYTE   N12  Ds5
 BYTE   W12
 BYTE   Ds4
 BYTE   N12  Ds5
 BYTE   W24
 BYTE   Ds4
 BYTE   N12  Ds5
 BYTE   W12
 BYTE   Ds4
 BYTE   N12  Ds5
 BYTE   W12
// 074   ----------------------------------------
 BYTE   W12
 BYTE   Ds4
 BYTE   N12  As4
 BYTE   N12  Ds5
 BYTE   W12
 BYTE   Ds4
 BYTE   N12  As4
 BYTE   N12  Ds5
 BYTE   W24
 BYTE   Dn4
 BYTE   N12  As4
 BYTE   N12  Dn5
 BYTE   W24
 BYTE   EOT
 BYTE   As5
 BYTE   W24
// 075   ----------------------------------------
Label_0_015DB9BF:
 BYTE   N36  As2  v100
 BYTE   N36  Cs3
 BYTE   N36  Fn3
 BYTE   W36
 BYTE   N60  Bn2
 BYTE   N60  Dn3
 BYTE   N60  Fs3
 BYTE   W60
 BYTE   PEND 
// 076   ----------------------------------------
Label_0_015DB9CF:
 BYTE   N36  Cs3  v100
 BYTE   N36  Fn3
 BYTE   N36  Gs3
 BYTE   W36
 BYTE   N60  Cn3
 BYTE   N60  En3
 BYTE   N60  Gn3
 BYTE   W60
 BYTE   PEND 
 BYTE   PATT
  POIN2 Label_0_015DB9BF
// 077   ----------------------------------------
 BYTE   N36  Gn2  v100
 BYTE   N36  Cs3
 BYTE   N36  En3
 BYTE   W36
 BYTE   N60  An2
 BYTE   N60  Cn3
 BYTE   N60  Fn3
 BYTE   W60
 BYTE   PATT
  POIN2 Label_0_015DB9BF
 BYTE   PATT
  POIN2 Label_0_015DB9CF
 BYTE   PATT
  POIN2 Label_0_015DB9BF
// 078   ----------------------------------------
 BYTE   N36  Cn3  v100
 BYTE   N36  En3
 BYTE   N36  Gn3
 BYTE   W36
 BYTE   N60  Cn3
 BYTE   N60  Fn3
 BYTE   N60  An3
 BYTE   W60
// 079   ----------------------------------------
 BYTE   GoTo
  POIN2 Label_0_015DB79D
 BYTE   FINE

//**************** Track 2 (Midi-Chn.1) ****************//

XenobladeChroniclesYouWillKnowOurNamesRandomWizard_002:
// 000   ----------------------------------------
 BYTE   KEYSH   XenobladeChroniclesYouWillKnowOurNamesRandomWizard_key+0
 BYTE   VOICE   81
 BYTE   VOL   28*XenobladeChroniclesYouWillKnowOurNamesRandomWizard_mvl/mxv
 BYTE   PAN   c_v+0
 BYTE   N12  Fn4  v100
 BYTE   W12
 BYTE   Cs4
 BYTE   W12
 BYTE   As3
 BYTE   W12
 BYTE   N24  Fs4
 BYTE   W24
 BYTE   N12  Dn4
 BYTE   W12
 BYTE   N24  Bn3
 BYTE   W24
// 001   ----------------------------------------
 BYTE   N12  Fn4
 BYTE   W12
 BYTE   Cs4
 BYTE   W12
 BYTE   As3
 BYTE   W12
 BYTE   N24  En4
 BYTE   W24
 BYTE   N12  Cn4
 BYTE   W12
 BYTE   N24  An3
 BYTE   W24
// 002   ----------------------------------------
 BYTE   N12  Fn4
 BYTE   W12
 BYTE   Cs4
 BYTE   W12
 BYTE   As3
 BYTE   W12
 BYTE   N24  Fs4
 BYTE   W24
 BYTE   N12  Dn4
 BYTE   W12
 BYTE   N24  Bn3
 BYTE   W24
// 003   ----------------------------------------
 BYTE   N12  Gn4
 BYTE   W12
 BYTE   En4
 BYTE   W12
 BYTE   Cn4
 BYTE   W12
 BYTE   N24  An4
 BYTE   W24
 BYTE   N12  Fn4
 BYTE   W12
 BYTE   N24  Cn4
 BYTE   W24
// 004   ----------------------------------------
Label_1_015DC5A1:
 BYTE   N12  Fn3  v100
 BYTE   N12  Fn4
 BYTE   N12  As4
 BYTE   W12
 BYTE   Cs4
 BYTE   W12
 BYTE   As3
 BYTE   W12
 BYTE   N24  Fs3
 BYTE   N24  Fs4
 BYTE   N24  Bn4
 BYTE   W24
 BYTE   N12  Dn4
 BYTE   W12
 BYTE   N24  Bn3
 BYTE   W24
 BYTE   PEND 
// 005   ----------------------------------------
 BYTE   N12  Fn3
 BYTE   N12  Fn4
 BYTE   N12  As4
 BYTE   W12
 BYTE   Cs4
 BYTE   W12
 BYTE   As3
 BYTE   W12
 BYTE   N24  En3
 BYTE   N24  En4
 BYTE   N24  Gn4
 BYTE   W24
 BYTE   N12  Cn4
 BYTE   W12
 BYTE   N24  An3
 BYTE   W24
 BYTE   PATT
  POIN2 Label_1_015DC5A1
// 006   ----------------------------------------
 BYTE   N12  Gn3  v100
 BYTE   N12  Gn4
 BYTE   N12  As4
 BYTE   W12
 BYTE   En4
 BYTE   W12
 BYTE   Cn4
 BYTE   W12
 BYTE   N24  An3
 BYTE   N24  An4
 BYTE   N24  Cn5
 BYTE   W24
 BYTE   N12  Fn4
 BYTE   W12
 BYTE   N24  Cn4
 BYTE   W24
// 007   ----------------------------------------
Label_1_015DC5F1:
 BYTE   N12  Fn3  v080
 BYTE   N12  Fn4
 BYTE   N12  As4
 BYTE   W12
 BYTE   Cs4
 BYTE   W12
 BYTE   As3
 BYTE   W12
 BYTE   N24  Fs3
 BYTE   N24  Fs4
 BYTE   N24  Bn4
 BYTE   W24
 BYTE   N12  Dn4
 BYTE   W12
 BYTE   N24  Bn3
 BYTE   W24
 BYTE   PEND 
// 008   ----------------------------------------
Label_1_015DC60B:
 BYTE   N12  Fn3  v080
 BYTE   N12  Fn4
 BYTE   N12  As4
 BYTE   W12
 BYTE   Cs4
 BYTE   W12
 BYTE   As3
 BYTE   W12
 BYTE   N24  En3
 BYTE   N24  En4
 BYTE   N24  Gn4
 BYTE   W24
 BYTE   N12  Cn4
 BYTE   W12
 BYTE   N24  An3
 BYTE   W24
 BYTE   PEND 
 BYTE   PATT
  POIN2 Label_1_015DC5F1
// 009   ----------------------------------------
Label_1_015DC62A:
 BYTE   N12  Gn3  v080
 BYTE   N12  Gn4
 BYTE   N12  As4
 BYTE   W12
 BYTE   En4
 BYTE   W12
 BYTE   Cn4
 BYTE   W12
 BYTE   N24  An3
 BYTE   N24  An4
 BYTE   N24  Cn5
 BYTE   W24
 BYTE   N12  Fn4
 BYTE   W12
 BYTE   N24  Cn4
 BYTE   W24
 BYTE   PEND 
 BYTE   PATT
  POIN2 Label_1_015DC5F1
 BYTE   PATT
  POIN2 Label_1_015DC60B
 BYTE   PATT
  POIN2 Label_1_015DC5F1
 BYTE   PATT
  POIN2 Label_1_015DC62A
// 010   ----------------------------------------
 BYTE   W96
// 011   ----------------------------------------
 BYTE   W96
// 012   ----------------------------------------
 BYTE   W96
// 013   ----------------------------------------
 BYTE   W96
// 014   ----------------------------------------
 BYTE   W96
// 015   ----------------------------------------
 BYTE   W96
// 016   ----------------------------------------
 BYTE   W96
// 017   ----------------------------------------
 BYTE   W96
// 018   ----------------------------------------
 BYTE   W96
// 019   ----------------------------------------
 BYTE   W96
// 020   ----------------------------------------
 BYTE   W96
// 021   ----------------------------------------
 BYTE   W96
// 022   ----------------------------------------
 BYTE   W96
// 023   ----------------------------------------
 BYTE   W96
// 024   ----------------------------------------
 BYTE   W96
// 025   ----------------------------------------
 BYTE   W96
// 026   ----------------------------------------
 BYTE   N72  Fs2  v100
 BYTE   W72
 BYTE   N12  Fn2
 BYTE   W12
 BYTE   Fs2
 BYTE   W12
// 027   ----------------------------------------
 BYTE   N72  Cs3
 BYTE   W72
 BYTE   N12  Cn3
 BYTE   W12
 BYTE   Cs3
 BYTE   W12
// 028   ----------------------------------------
 BYTE   TIE  Gs3
 BYTE   W96
// 029   ----------------------------------------
 BYTE   W72
 BYTE   EOT
 BYTE   W24
// 030   ----------------------------------------
 BYTE   W96
// 031   ----------------------------------------
 BYTE   W96
// 032   ----------------------------------------
 BYTE   W96
// 033   ----------------------------------------
 BYTE   W96
// 034   ----------------------------------------
 BYTE   W96
// 035   ----------------------------------------
 BYTE   W96
// 036   ----------------------------------------
 BYTE   W96
// 037   ----------------------------------------
 BYTE   W96
// 038   ----------------------------------------
 BYTE   W96
// 039   ----------------------------------------
 BYTE   W96
// 040   ----------------------------------------
 BYTE   W96
// 041   ----------------------------------------
 BYTE   W96
// 042   ----------------------------------------
 BYTE   W96
// 043   ----------------------------------------
 BYTE   W96
// 044   ----------------------------------------
 BYTE   W96
// 045   ----------------------------------------
 BYTE   W96
// 046   ----------------------------------------
 BYTE   W96
// 047   ----------------------------------------
 BYTE   W96
// 048   ----------------------------------------
 BYTE   W96
// 049   ----------------------------------------
 BYTE   W96
// 050   ----------------------------------------
 BYTE   W96
// 051   ----------------------------------------
 BYTE   W96
// 052   ----------------------------------------
 BYTE   W96
// 053   ----------------------------------------
 BYTE   W96
// 054   ----------------------------------------
 BYTE   W96
// 055   ----------------------------------------
 BYTE   W96
// 056   ----------------------------------------
 BYTE   W96
// 057   ----------------------------------------
 BYTE   W96
// 058   ----------------------------------------
 BYTE   W96
// 059   ----------------------------------------
 BYTE   W96
// 060   ----------------------------------------
 BYTE   W96
// 061   ----------------------------------------
 BYTE   W96
// 062   ----------------------------------------
 BYTE   W96
// 063   ----------------------------------------
 BYTE   W96
// 064   ----------------------------------------
 BYTE   W96
// 065   ----------------------------------------
 BYTE   W96
// 066   ----------------------------------------
 BYTE   W96
// 067   ----------------------------------------
 BYTE   W96
// 068   ----------------------------------------
 BYTE   W96
// 069   ----------------------------------------
 BYTE   W96
// 070   ----------------------------------------
 BYTE   W96
// 071   ----------------------------------------
 BYTE   W96
// 072   ----------------------------------------
 BYTE   W96
// 073   ----------------------------------------
 BYTE   W96
// 074   ----------------------------------------
 BYTE   W96
// 075   ----------------------------------------
 BYTE   W96
// 076   ----------------------------------------
 BYTE   W96
// 077   ----------------------------------------
 BYTE   W96
// 078   ----------------------------------------
 BYTE   W96
// 079   ----------------------------------------
 BYTE   W96
// 080   ----------------------------------------
 BYTE   W96
// 081   ----------------------------------------
 BYTE   W96
// 082   ----------------------------------------
 BYTE   W96
// 083   ----------------------------------------
 BYTE   W96
// 084   ----------------------------------------
 BYTE   W96
// 085   ----------------------------------------
 BYTE   W96
// 086   ----------------------------------------
 BYTE   W96
// 087   ----------------------------------------
 BYTE   W96
// 088   ----------------------------------------
 BYTE   GoTo
  POIN2 Label_1_015DC5F1
 BYTE   FINE

//**************** Track 3 (Midi-Chn.2) ****************//

XenobladeChroniclesYouWillKnowOurNamesRandomWizard_003:
// 000   ----------------------------------------
 BYTE   KEYSH   XenobladeChroniclesYouWillKnowOurNamesRandomWizard_key+0
 BYTE   VOICE   29
 BYTE   VOL   31*XenobladeChroniclesYouWillKnowOurNamesRandomWizard_mvl/mxv
 BYTE   PAN   c_v+0
 BYTE   TIE  Fn1  v100
 BYTE   TIE  As1
 BYTE   TIE  Fn2
 BYTE   TIE  As2
 BYTE   W03
 BYTE   W01
 BYTE   W03
 BYTE   W01
 BYTE   W01
 BYTE   W03
 BYTE   W01
 BYTE   W02
 BYTE   W01
 BYTE   W03
 BYTE   W03
 BYTE   W01
 BYTE   W03
 BYTE   W01
 BYTE   W02
 BYTE   W02
 BYTE   W01
 BYTE   W03
 BYTE   W03
 BYTE   W04
 BYTE   W01
 BYTE   W02
 BYTE   W02
 BYTE   W01
 BYTE   W02
 BYTE   W01
 BYTE   W03
 BYTE   W01
 BYTE   W02
 BYTE   W01
 BYTE   W03
 BYTE   W01
 BYTE   W02
 BYTE   W02
 BYTE   W01
 BYTE   W03
 BYTE   W03
 BYTE   W01
 BYTE   W03
 BYTE   W03
 BYTE   W02
 BYTE   W01
 BYTE   W02
 BYTE   W01
 BYTE   W03
 BYTE   W01
 BYTE   W03
 BYTE   W03
// 001   ----------------------------------------
Label_2_015DF041:
 BYTE   W01
 BYTE   W04
 BYTE   W04
 BYTE   W03
 BYTE   W04
 BYTE   W04
 BYTE   W04
 BYTE   W72
 BYTE   PEND 
// 002   ----------------------------------------
 BYTE   W96
// 003   ----------------------------------------
 BYTE   W96
// 004   ----------------------------------------
 BYTE   EOT
 BYTE   Fn1  v046
 BYTE   Fn2  v058
 BYTE   N12  Fn1  v100
 BYTE   N12  As1
 BYTE   N12  Fn2
 BYTE   N12  As2
 BYTE   W24
 BYTE   N36  As1
 BYTE   N36  Fn2
 BYTE   N36  As2
 BYTE   W48
 BYTE   N24  As1
 BYTE   N24  Fn2
 BYTE   N24  As2
 BYTE   W24
// 005   ----------------------------------------
 BYTE   N12  As1
 BYTE   N12  Fn2
 BYTE   N12  As2
 BYTE   W24
 BYTE   As1
 BYTE   N12  Fn2
 BYTE   N12  As2
 BYTE   W12
 BYTE   N24  An1
 BYTE   N24  En2
 BYTE   N24  An2
 BYTE   W36
 BYTE   An1
 BYTE   N24  En2
 BYTE   W24
// 006   ----------------------------------------
Label_2_015DF081:
 BYTE   N12  As1  v100
 BYTE   N12  Fn2
 BYTE   N12  As2
 BYTE   W12
 BYTE   N06  As1
 BYTE   N06  Fn2
 BYTE   N06  As2
 BYTE   W12
 BYTE   As1
 BYTE   N06  Fn2
 BYTE   N06  As2
 BYTE   W12
 BYTE   N12  As1
 BYTE   N12  Fn2
 BYTE   N12  As2
 BYTE   W12
 BYTE   N06  As1
 BYTE   N06  Fn2
 BYTE   N06  As2
 BYTE   W12
 BYTE   As1
 BYTE   N06  Fn2
 BYTE   N06  As2
 BYTE   W12
 BYTE   N24  As1
 BYTE   N24  Fn2
 BYTE   N24  As2
 BYTE   W24
 BYTE   PEND 
 BYTE   PATT
  POIN2 Label_2_015DF081
// 007   ----------------------------------------
Label_2_015DF0B7:
 BYTE   N12  Fn2  v100
 BYTE   W12
 BYTE   Cs2
 BYTE   W12
 BYTE   As1
 BYTE   W12
 BYTE   N24  Fs2
 BYTE   W24
 BYTE   N12  Dn2
 BYTE   W12
 BYTE   N24  Bn1
 BYTE   W24
 BYTE   PEND 
// 008   ----------------------------------------
Label_2_015DF0C9:
 BYTE   N12  Fn2  v100
 BYTE   W12
 BYTE   Cs2
 BYTE   W12
 BYTE   As1
 BYTE   W12
 BYTE   N24  En2
 BYTE   W24
 BYTE   N12  Cn2
 BYTE   W12
 BYTE   N24  An1
 BYTE   W24
 BYTE   PEND 
 BYTE   PATT
  POIN2 Label_2_015DF0B7
// 009   ----------------------------------------
Label_2_015DF0E0:
 BYTE   N12  Gn2  v100
 BYTE   W12
 BYTE   En2
 BYTE   W12
 BYTE   Cn2
 BYTE   W12
 BYTE   N24  An2
 BYTE   W24
 BYTE   N12  Fn2
 BYTE   W12
 BYTE   N24  Cn2
 BYTE   W24
 BYTE   PEND 
 BYTE   PATT
  POIN2 Label_2_015DF0B7
 BYTE   PATT
  POIN2 Label_2_015DF0C9
 BYTE   PATT
  POIN2 Label_2_015DF0B7
 BYTE   PATT
  POIN2 Label_2_015DF0E0
// 010   ----------------------------------------
Label_2_015DF106:
 BYTE   N06  As1  v100
 BYTE   W06
 BYTE   N06
 BYTE   W06
 BYTE   N06
 BYTE   W06
 BYTE   N06
 BYTE   W06
 BYTE   N12  Cs2
 BYTE   N12  Gs2
 BYTE   N12  Cs3
 BYTE   W12
 BYTE   N06  As1
 BYTE   W06
 BYTE   N06
 BYTE   W06
 BYTE   N06
 BYTE   W06
 BYTE   N06
 BYTE   W06
 BYTE   N12  Ds2
 BYTE   N12  As2
 BYTE   N12  Ds3
 BYTE   W12
 BYTE   N06  As1
 BYTE   W06
 BYTE   N06
 BYTE   W06
 BYTE   N06
 BYTE   W06
 BYTE   N06
 BYTE   W06
 BYTE   PEND 
// 011   ----------------------------------------
Label_2_015DF131:
 BYTE   N12  Cn2  v100
 BYTE   N12  Gn2
 BYTE   N12  Cn3
 BYTE   W12
 BYTE   N06  As1
 BYTE   W06
 BYTE   N06
 BYTE   W06
 BYTE   N06
 BYTE   W06
 BYTE   N06
 BYTE   W06
 BYTE   N24  En2
 BYTE   W24
 BYTE   N12  Ds2
 BYTE   W12
 BYTE   Cs2
 BYTE   W12
 BYTE   Gs1
 BYTE   W12
 BYTE   PEND 
// 012   ----------------------------------------
Label_2_015DF14D:
 BYTE   N06  As1  v100
 BYTE   W06
 BYTE   N06
 BYTE   W06
 BYTE   N06
 BYTE   W06
 BYTE   N06
 BYTE   W06
 BYTE   N12  Ds2
 BYTE   N12  As2
 BYTE   N12  Ds3
 BYTE   W12
 BYTE   N06  As1
 BYTE   W06
 BYTE   N06
 BYTE   W06
 BYTE   N06
 BYTE   W06
 BYTE   N06
 BYTE   W06
 BYTE   N12  Fs2
 BYTE   N12  Cs3
 BYTE   N12  Fs3
 BYTE   W12
 BYTE   N06  As1
 BYTE   W06
 BYTE   N06
 BYTE   W06
 BYTE   N36  Cs2
 BYTE   N36  Gs2
 BYTE   N36  Cs3
 BYTE   W12
 BYTE   PEND 
// 013   ----------------------------------------
Label_2_015DF17B:
 BYTE   W12
 BYTE   N12  Fn2  v100
 BYTE   W12
 BYTE   Gs2
 BYTE   W12
 BYTE   N24  Fn3
 BYTE   W24
 BYTE   N12  Cs3
 BYTE   W12
 BYTE   Gs2
 BYTE   W12
 BYTE   Fn2
 BYTE   W12
 BYTE   PEND 
// 014   ----------------------------------------
 BYTE   N06  As1
 BYTE   W06
 BYTE   N06
 BYTE   W06
 BYTE   N06
 BYTE   W06
 BYTE   N06
 BYTE   W06
 BYTE   N12  Fn2
 BYTE   N12  Fn3  v080
 BYTE   W12
 BYTE   N06  As1  v100
 BYTE   W06
 BYTE   N06
 BYTE   W06
 BYTE   N06
 BYTE   W06
 BYTE   N06
 BYTE   W06
 BYTE   N12  Gs2
 BYTE   N12  Gs3  v060
 BYTE   W12
 BYTE   N06  As1  v100
 BYTE   W06
 BYTE   N06
 BYTE   W06
 BYTE   N06
 BYTE   W06
 BYTE   N06
 BYTE   W06
// 015   ----------------------------------------
 BYTE   N12  Gn2
 BYTE   W12
 BYTE   En2
 BYTE   W12
 BYTE   Cn2
 BYTE   W12
 BYTE   N24  En2
 BYTE   W24
 BYTE   N12  Cn2
 BYTE   W12
 BYTE   As1
 BYTE   W12
 BYTE   N24  Bn1
 BYTE   W12
// 016   ----------------------------------------
 BYTE   W12
 BYTE   N12  Fs1
 BYTE   W12
 BYTE   Cs2
 BYTE   W12
 BYTE   Fs1
 BYTE   W12
 BYTE   Ds2
 BYTE   W12
 BYTE   Fs2
 BYTE   W12
 BYTE   Fn2
 BYTE   W12
 BYTE   N24  Cs2
 BYTE   W12
// 017   ----------------------------------------
 BYTE   W12
 BYTE   N12  Gs1
 BYTE   W12
 BYTE   Ds2
 BYTE   W12
 BYTE   Gs1
 BYTE   W12
 BYTE   Fn2
 BYTE   W12
 BYTE   Gs1
 BYTE   W12
 BYTE   N24  Gs2
 BYTE   W24
 BYTE   PATT
  POIN2 Label_2_015DF106
 BYTE   PATT
  POIN2 Label_2_015DF131
 BYTE   PATT
  POIN2 Label_2_015DF14D
 BYTE   PATT
  POIN2 Label_2_015DF17B
// 018   ----------------------------------------
 BYTE   N06  As1  v100
 BYTE   W06
 BYTE   N06
 BYTE   W06
 BYTE   N06
 BYTE   W06
 BYTE   N06
 BYTE   W06
 BYTE   N12  Fn2
 BYTE   N12  Fn3
 BYTE   W12
 BYTE   N06  As1
 BYTE   W06
 BYTE   N06
 BYTE   W06
 BYTE   N06
 BYTE   W06
 BYTE   N06
 BYTE   W06
 BYTE   N12  Gs2
 BYTE   N12  Gs3
 BYTE   W12
 BYTE   N06  As1
 BYTE   W06
 BYTE   N06
 BYTE   W06
 BYTE   N06
 BYTE   W06
 BYTE   N06
 BYTE   W06
// 019   ----------------------------------------
 BYTE   N12  Gn2
 BYTE   W12
 BYTE   En2
 BYTE   W12
 BYTE   Cn2
 BYTE   W12
 BYTE   N24  En2
 BYTE   W24
 BYTE   N12  Cn2
 BYTE   W12
 BYTE   As1
 BYTE   W12
 BYTE   N24  Bn1
 BYTE   N24  Ds3
 BYTE   W12
// 020   ----------------------------------------
 BYTE   W12
 BYTE   N12  Ds2
 BYTE   N12  Fs3
 BYTE   W12
 BYTE   Ds3
 BYTE   N12  Fs4
 BYTE   W12
 BYTE   Cs3
 BYTE   N12  Fn4
 BYTE   W12
 BYTE   Bn2
 BYTE   N12  Ds4
 BYTE   W12
 BYTE   Fs2
 BYTE   N12  Bn3
 BYTE   W12
 BYTE   Ds2
 BYTE   N12  Fs3
 BYTE   W12
 BYTE   N24  Gs1
 BYTE   N24  Cs3
 BYTE   W12
// 021   ----------------------------------------
 BYTE   W12
 BYTE   N12  Cs2
 BYTE   N12  Fn3
 BYTE   W12
 BYTE   Fn2
 BYTE   N12  Gs3
 BYTE   W12
 BYTE   Gs2
 BYTE   N12  Cs4
 BYTE   W12
 BYTE   Cs3
 BYTE   N12  Fn4
 BYTE   W12
 BYTE   Ds3
 BYTE   N12  Fs4
 BYTE   W12
 BYTE   N24  Fn3
 BYTE   N24  Gs4
 BYTE   W24
// 022   ----------------------------------------
 BYTE   N96  Bn1
 BYTE   N72  Fs2
 BYTE   W72
 BYTE   N12  Fn2
 BYTE   W12
 BYTE   Fs2
 BYTE   W12
// 023   ----------------------------------------
 BYTE   N48  Bn1
 BYTE   N72  Cs3
 BYTE   W48
 BYTE   N48  As1
 BYTE   W24
 BYTE   N12  Cn3
 BYTE   W12
 BYTE   Cs3
 BYTE   W12
// 024   ----------------------------------------
 BYTE   TIE  Fn1
 BYTE   TIE  Gs3
 BYTE   W96
// 025   ----------------------------------------
 BYTE   W72
 BYTE   EOT
 BYTE   N12  Fn3
 BYTE   W12
 BYTE   Fs3
 BYTE   W12
// 026   ----------------------------------------
 BYTE   EOT
 BYTE   Fn1
 BYTE   N96  Bn1
 BYTE   N72  Cs4
 BYTE   W72
 BYTE   N12  Cn4
 BYTE   W12
 BYTE   Cs4
 BYTE   W12
// 027   ----------------------------------------
 BYTE   N48  Fn2
 BYTE   N72  Gs4
 BYTE   W48
 BYTE   N48  Fs2
 BYTE   W24
 BYTE   N12  Fn4
 BYTE   W12
 BYTE   Fs4
 BYTE   W12
// 028   ----------------------------------------
 BYTE   TIE  Fn2
 BYTE   TIE  Cs5
 BYTE   W96
// 029   ----------------------------------------
 BYTE   W60
 BYTE   EOT
 BYTE   Fn2  v085
 BYTE   W36
// 030   ----------------------------------------
 BYTE   N06  Ds1
 BYTE   N06  As1
 BYTE   N06  Ds2
 BYTE   W12
 BYTE   Ds1
 BYTE   N06  As1
 BYTE   N06  Ds2
 BYTE   W12
 BYTE   Ds1
 BYTE   N06  As1
 BYTE   N06  Ds2
 BYTE   W12
 BYTE   N36  As1
 BYTE   N36  Ds2
 BYTE   N36  As2
 BYTE   W36
 BYTE   N06  Ds1
 BYTE   N06  As1
 BYTE   N06  Ds2
 BYTE   W12
 BYTE   Ds1
 BYTE   N06  As1
 BYTE   N06  Ds2
 BYTE   W12
// 031   ----------------------------------------
 BYTE   Fn1
 BYTE   N06  Cn2
 BYTE   N06  Fn2
 BYTE   W12
 BYTE   Fn1
 BYTE   N06  Cn2
 BYTE   N06  Fn2
 BYTE   W12
 BYTE   Fn1
 BYTE   N06  Cn2
 BYTE   N06  Fn2
 BYTE   W12
 BYTE   N36  Cn2
 BYTE   N36  Fn2
 BYTE   N36  As2
 BYTE   W36
 BYTE   N06  Fn1
 BYTE   N06  Cn2
 BYTE   N06  Fn2
 BYTE   W12
 BYTE   Fn1
 BYTE   N06  Cn2
 BYTE   N06  Fn2
 BYTE   W12
// 032   ----------------------------------------
 BYTE   Fs1
 BYTE   N06  Cs2
 BYTE   N06  Fs2
 BYTE   W12
 BYTE   Fs1
 BYTE   N06  Cs2
 BYTE   N06  Fs2
 BYTE   W12
 BYTE   Fs1
 BYTE   N06  Cs2
 BYTE   N06  Fs2
 BYTE   W12
 BYTE   N36  Cs2
 BYTE   N36  Fs2
 BYTE   N36  Cs3
 BYTE   W36
 BYTE   N06  Fs1
 BYTE   N06  Cs2
 BYTE   N06  Fs2
 BYTE   W12
 BYTE   Fs1
 BYTE   N06  Cs2
 BYTE   N06  Fs2
 BYTE   W12
// 033   ----------------------------------------
 BYTE   Gn1
 BYTE   N06  Dn2
 BYTE   N06  Gn2
 BYTE   W12
 BYTE   Gn1
 BYTE   N06  Dn2
 BYTE   N06  Gn2
 BYTE   W12
 BYTE   Gn1
 BYTE   N06  Dn2
 BYTE   N06  Gn2
 BYTE   W12
 BYTE   N36  Dn2
 BYTE   N36  Gn2
 BYTE   N36  Dn3
 BYTE   W36
 BYTE   N06  Gn1
 BYTE   N06  Dn2
 BYTE   N06  Gn2
 BYTE   W12
 BYTE   Gn1
 BYTE   N06  Dn2
 BYTE   N06  Gn2
 BYTE   W12
// 034   ----------------------------------------
 BYTE   Gs1
 BYTE   W12
 BYTE   N12
 BYTE   W12
 BYTE   Cs2
 BYTE   W12
 BYTE   N06  Gs1
 BYTE   W12
 BYTE   N12  Dn2
 BYTE   W12
 BYTE   N06  Gs1
 BYTE   W12
 BYTE   N12  Ds2
 BYTE   W12
 BYTE   N06  Gs1
 BYTE   W12
// 035   ----------------------------------------
 BYTE   N12  Gs2
 BYTE   W12
 BYTE   Fs2
 BYTE   W12
 BYTE   Ds2
 BYTE   W12
 BYTE   N24  Gs2
 BYTE   W24
 BYTE   N12  Fs2
 BYTE   W12
 BYTE   Ds2
 BYTE   W24
// 036   ----------------------------------------
 BYTE   Fn1
 BYTE   N12  Cn2
 BYTE   N12  Fn2
 BYTE   W12
 BYTE   Fn1
 BYTE   N12  Cn2
 BYTE   N12  Fn2
 BYTE   W24
 BYTE   Fn1
 BYTE   N12  Cn2
 BYTE   N12  Fn2
 BYTE   W12
 BYTE   Fn1
 BYTE   N12  Cn2
 BYTE   N12  Fn2
 BYTE   W24
 BYTE   Fn1
 BYTE   N12  Cn2
 BYTE   N12  Fn2
 BYTE   W12
 BYTE   Fn1
 BYTE   N12  Cn2
 BYTE   N12  Fn2
 BYTE   W12
// 037   ----------------------------------------
 BYTE   W24
 BYTE   Fn3
 BYTE   N12  As3
 BYTE   W24
 BYTE   N12
 BYTE   N12  Cs4
 BYTE   W12
 BYTE   As3
 BYTE   N12  Ds4
 BYTE   W24
 BYTE   N72  Fs1
 BYTE   N72  Cs2
 BYTE   N72  Fs2
 BYTE   N72  Cs4
 BYTE   N72  Fn4
 BYTE   W12
// 038   ----------------------------------------
 BYTE   W60
 BYTE   N24  Fs1
 BYTE   N24  Cs2
 BYTE   N24  Fs2
 BYTE   N24  Cs4
 BYTE   N24  Fn4
 BYTE   W24
 BYTE   TIE  Gs1
 BYTE   TIE  Ds2
 BYTE   TIE  Gs2
 BYTE   N36  Cn4
 BYTE   N36  Ds4
 BYTE   W12
// 039   ----------------------------------------
 BYTE   W24
 BYTE   N24  Cn4
 BYTE   N24  Ds4
 BYTE   W24
 BYTE   N24
 BYTE   N24  Gs4
 BYTE   W24
 BYTE   Cn4
 BYTE   N24  Ds4
 BYTE   W24
// 040   ----------------------------------------
 BYTE   EOT
 BYTE   Gs1  v051
 BYTE   Gs2
 BYTE   N60  Fn1
 BYTE   N60  Cn2
 BYTE   N60  Fn2
 BYTE   N60  Cn4
 BYTE   N60  Ds4
 BYTE   W60
 BYTE   N24  Fn1
 BYTE   N24  Cn2
 BYTE   N24  Fn2
 BYTE   N12  As3
 BYTE   N12  Cs4
 BYTE   W12
 BYTE   Gs3
 BYTE   N12  Cn4
 BYTE   W12
 BYTE   TIE  As1
 BYTE   TIE  Fn2
 BYTE   TIE  As2
 BYTE   N84  As3
 BYTE   N84  Cs4
 BYTE   W12
// 041   ----------------------------------------
 BYTE   W72
 BYTE   N12  As3
 BYTE   W12
 BYTE   Cn4
 BYTE   W12
// 042   ----------------------------------------
 BYTE   EOT
 BYTE   As1  v053
 BYTE   As2
 BYTE   N06  Ds1
 BYTE   N06  As1
 BYTE   N06  Ds2
 BYTE   N12  Cs4
 BYTE   N12  Fn4  v080
 BYTE   W12
 BYTE   N06  Ds1  v100
 BYTE   N06  As1
 BYTE   N06  Ds2
 BYTE   N12  As3
 BYTE   N12  Cs4  v080
 BYTE   W12
 BYTE   N06  Ds1  v100
 BYTE   N06  As1
 BYTE   N06  Ds2
 BYTE   N12  Fs3
 BYTE   N12  As3  v080
 BYTE   W12
 BYTE   N24  As1  v100
 BYTE   N24  Ds2
 BYTE   N24  As2
 BYTE   N24  Cs3
 BYTE   N24  Fs3  v080
 BYTE   W24
 BYTE   N12  Ds2  v100
 BYTE   N12  Fs3
 BYTE   N12  As3  v080
 BYTE   W12
 BYTE   As2  v100
 BYTE   N12  As3
 BYTE   N12  Cs4  v080
 BYTE   W12
 BYTE   Cs3  v100
 BYTE   N12  Cs4
 BYTE   N12  Fn4  v080
 BYTE   W12
// 043   ----------------------------------------
 BYTE   N06  Fn1  v100
 BYTE   N06  Cn2
 BYTE   N06  Fn2
 BYTE   N12  Cn4
 BYTE   N12  Ds4  v080
 BYTE   W12
 BYTE   N06  Fn1  v100
 BYTE   N06  Cn2
 BYTE   N06  Fn2
 BYTE   N12  An3
 BYTE   N12  Cn4  v080
 BYTE   W12
 BYTE   N06  Fn1  v100
 BYTE   N06  Cn2
 BYTE   N06  Fn2
 BYTE   N12  Fn3
 BYTE   N12  An3  v080
 BYTE   W12
 BYTE   N24  Cn2  v100
 BYTE   N24  Fn2
 BYTE   N24  Cn3
 BYTE   N24  Fn3  v080
 BYTE   W24
 BYTE   N12  Fn2  v100
 BYTE   N12  Fn3
 BYTE   N12  An3  v080
 BYTE   W12
 BYTE   Ds3  v100
 BYTE   N12  An3
 BYTE   N12  Cn4  v080
 BYTE   W12
 BYTE   N48  As1  v100
 BYTE   N48  Fn2
 BYTE   N48  As2
 BYTE   N24  As3
 BYTE   W12
// 044   ----------------------------------------
 BYTE   W12
 BYTE   N12  An3
 BYTE   W12
 BYTE   As3
 BYTE   W12
 BYTE   N48  An1
 BYTE   N48  En2
 BYTE   N48  An2
 BYTE   N24  Cn4
 BYTE   W24
 BYTE   N12  As3
 BYTE   W12
 BYTE   Cn4
 BYTE   W12
 BYTE   N36  Gs1
 BYTE   N36  Ds2
 BYTE   N36  Gs2
 BYTE   N36  Cs4
 BYTE   W12
// 045   ----------------------------------------
 BYTE   W24
 BYTE   N24  Gs1
 BYTE   N24  Gs2
 BYTE   N12  As3
 BYTE   W24
 BYTE   Gn1
 BYTE   N12  Gn2
 BYTE   N12  Cs4
 BYTE   W12
 BYTE   Fs1
 BYTE   N12  Fs2
 BYTE   N12  Ds4
 BYTE   W24
 BYTE   N72  Fs1
 BYTE   N72  Cs2
 BYTE   N72  Fs2
 BYTE   N96  As3
 BYTE   N72  Fn4
 BYTE   W12
// 046   ----------------------------------------
 BYTE   W60
 BYTE   N24  Fs1
 BYTE   N24  Cs2
 BYTE   N24  Fs2
 BYTE   N24  Fn4
 BYTE   W24
 BYTE   N84  Gs1
 BYTE   N84  Ds2
 BYTE   N84  Gs2
 BYTE   TIE  Gs3
 BYTE   N36  Ds4
 BYTE   W12
// 047   ----------------------------------------
 BYTE   W24
 BYTE   N24
 BYTE   W24
 BYTE   Gs4
 BYTE   W24
 BYTE   Gs1
 BYTE   N24  Ds2
 BYTE   N24  Gs2
 BYTE   N24  As4
 BYTE   W24
// 048   ----------------------------------------
 BYTE   EOT
 BYTE   Gs3
 BYTE   N60  Gs1
 BYTE   N60  Ds2
 BYTE   N60  Gs2
 BYTE   N84  Gs3
 BYTE   N60  Ds4  v060
 BYTE   N60  Cn5  v100
 BYTE   W60
 BYTE   N24  Gs1
 BYTE   N24  Ds2
 BYTE   N24  Gs2
 BYTE   N12  Fn4  v060
 BYTE   N12  Cs5  v100
 BYTE   W12
 BYTE   Ds4  v060
 BYTE   N12  Cn5  v100
 BYTE   W12
 BYTE   TIE  As1
 BYTE   TIE  Fn2
 BYTE   TIE  As2
 BYTE   N84  As3
 BYTE   N84  Cs4  v060
 BYTE   N84  As4  v100
 BYTE   W12
// 049   ----------------------------------------
 BYTE   W72
 BYTE   N12  Cs4
 BYTE   W12
 BYTE   Cn4
 BYTE   W12
// 050   ----------------------------------------
 BYTE   EOT
 BYTE   As1  v053
 BYTE   As2
 BYTE   N12  Ds1
 BYTE   N12  As1
 BYTE   N12  Ds2
 BYTE   N48  Fs3  v060
 BYTE   N48  As3  v100
 BYTE   W12
 BYTE   N12  Ds1
 BYTE   N12  As1
 BYTE   N12  Ds2
 BYTE   W36
 BYTE   Ds1
 BYTE   N12  As1
 BYTE   N12  Ds2
 BYTE   N48  Cs4  v060
 BYTE   N48  Fn4  v100
 BYTE   W12
 BYTE   N12  Ds1
 BYTE   N12  As1
 BYTE   N12  Ds2
 BYTE   W36
// 051   ----------------------------------------
 BYTE   Fn1
 BYTE   N12  Cn2
 BYTE   N12  Fn2
 BYTE   N48  Cn4  v060
 BYTE   N48  Ds4  v100
 BYTE   W12
 BYTE   N12  Fn1
 BYTE   N12  Cn2
 BYTE   N12  Fn2
 BYTE   W36
 BYTE   Fn1
 BYTE   N12  Cn2
 BYTE   N12  Fn2
 BYTE   N48  Ds4  v060
 BYTE   N48  Gs4  v100
 BYTE   W12
 BYTE   N12  Fn1
 BYTE   N12  Cn2
 BYTE   N12  Fn2
 BYTE   W36
// 052   ----------------------------------------
 BYTE   As1
 BYTE   N12  Fn2
 BYTE   N12  As2
 BYTE   TIE  As4
 BYTE   W12
 BYTE   N12  As1
 BYTE   N12  Fn2
 BYTE   N12  As2
 BYTE   W11
 BYTE   MOD 0
 BYTE   Cn0
 BYTE   W13
 BYTE   N12  As1
 BYTE   N12  Fn2
 BYTE   N12  As2
 BYTE   W12
 BYTE   As1
 BYTE   N12  Fn2
 BYTE   N12  As2
 BYTE   W12
 BYTE   MOD 0
 BYTE   Ds1
 BYTE   W12
 BYTE   N12  As1
 BYTE   N12  Fn2
 BYTE   N12  As2
 BYTE   W12
 BYTE   As1
 BYTE   N12  Fn2
 BYTE   N12  As2
 BYTE   W12
// 053   ----------------------------------------
Label_2_015DF5B7:
 BYTE   W12
 BYTE   N12  As1  v100
 BYTE   N12  Fn2
 BYTE   N12  As2
 BYTE   W12
 BYTE   As1
 BYTE   N12  Fn2
 BYTE   N12  As2
 BYTE   W24
 BYTE   As1
 BYTE   N12  Fn2
 BYTE   N12  As2
 BYTE   W48
 BYTE   PEND 
// 054   ----------------------------------------
Label_2_015DF5CD:
 BYTE   N12  As1  v100
 BYTE   N12  Fn2
 BYTE   N12  As2
 BYTE   W12
 BYTE   As1
 BYTE   N12  Fn2
 BYTE   N12  As2
 BYTE   W24
 BYTE   As1
 BYTE   N12  Fn2
 BYTE   N12  As2
 BYTE   W12
 BYTE   As1
 BYTE   N12  Fn2
 BYTE   N12  As2
 BYTE   W24
 BYTE   As1
 BYTE   N12  Fn2
 BYTE   N12  As2
 BYTE   W12
 BYTE   As1
 BYTE   N12  Fn2
 BYTE   N12  As2
 BYTE   W12
 BYTE   PEND 
// 055   ----------------------------------------
 BYTE   W12
 BYTE   As1
 BYTE   N12  Fn2
 BYTE   N12  As2
 BYTE   W12
 BYTE   As1
 BYTE   N12  Fn2
 BYTE   N12  As2
 BYTE   W24
 BYTE   As1
 BYTE   N12  Fn2
 BYTE   N12  As2
 BYTE   W12
 BYTE   EOT
 BYTE   As4
 BYTE   MOD 0
 BYTE   CnM2
 BYTE   W36
// 056   ----------------------------------------
 BYTE   N23  As1
 BYTE   N11  Fn2
 BYTE   N23  As2
 BYTE   W12
 BYTE   N11  Fn2
 BYTE   W12
 BYTE   N12  Cs2
 BYTE   N12  Gs2
 BYTE   N12  Cs3
 BYTE   W12
 BYTE   As1
 BYTE   N12  Fn2
 BYTE   N12  As2
 BYTE   W12
 BYTE   En2
 BYTE   N12  Bn2
 BYTE   N12  En3
 BYTE   W12
 BYTE   Ds2
 BYTE   N12  As2
 BYTE   N12  Ds3
 BYTE   W12
 BYTE   Cs2
 BYTE   N12  Gs2
 BYTE   N12  Cs3
 BYTE   W12
 BYTE   N36  As1
 BYTE   N23  Fn2
 BYTE   N32  As2
 BYTE   W12
// 057   ----------------------------------------
Label_2_015DF63C:
 BYTE   W12
 BYTE   N12  Fn2  v100
 BYTE   W12
 BYTE   Cs2
 BYTE   N12  Gs2
 BYTE   N12  Cs3
 BYTE   W12
 BYTE   As1
 BYTE   N12  Fn2
 BYTE   N12  As2
 BYTE   W12
 BYTE   Fn1
 BYTE   N12  Cn2
 BYTE   N12  Fn2
 BYTE   W12
 BYTE   En1
 BYTE   N12  Bn1
 BYTE   N12  En2
 BYTE   W12
 BYTE   Ds1
 BYTE   N12  As1
 BYTE   N12  Ds2
 BYTE   W12
 BYTE   Cs1
 BYTE   N12  Gs1
 BYTE   N12  Cs2
 BYTE   W12
 BYTE   PEND 
// 058   ----------------------------------------
 BYTE   N24  As1
 BYTE   N11  Fn2
 BYTE   N23  As2
 BYTE   W12
 BYTE   N11  Fn2
 BYTE   W12
 BYTE   Cs2
 BYTE   N12  Gs2
 BYTE   N12  Cs3
 BYTE   W12
 BYTE   N11  As1
 BYTE   N12  Fn2
 BYTE   N12  As2
 BYTE   W12
 BYTE   N11  En2
 BYTE   N12  Bn2
 BYTE   N12  En3
 BYTE   W12
 BYTE   N11  Ds2
 BYTE   N12  As2
 BYTE   N12  Ds3
 BYTE   W12
 BYTE   N11  Cs2
 BYTE   N12  Gs2
 BYTE   N12  Cs3
 BYTE   W12
 BYTE   N24  Fs2
 BYTE   W12
// 059   ----------------------------------------
Label_2_015DF695:
 BYTE   W12
 BYTE   N12  As2  v100
 BYTE   W12
 BYTE   Cs3
 BYTE   W12
 BYTE   N24  Gs2
 BYTE   W24
 BYTE   N36  Ds3
 BYTE   N36  Gs3
 BYTE   W36
 BYTE   PEND 
// 060   ----------------------------------------
Label_2_015DF6A5:
 BYTE   N24  As1  v100
 BYTE   N11  Fn2
 BYTE   N23  As2
 BYTE   W12
 BYTE   N11  Fn2
 BYTE   W12
 BYTE   N12  Cs2
 BYTE   N12  Gs2
 BYTE   N12  Cs3
 BYTE   W12
 BYTE   As1
 BYTE   N12  Fn2
 BYTE   N12  As2
 BYTE   W12
 BYTE   En2
 BYTE   N12  Bn2
 BYTE   N12  En3
 BYTE   W12
 BYTE   Ds2
 BYTE   N12  As2
 BYTE   N12  Ds3
 BYTE   W12
 BYTE   Cs2
 BYTE   N12  Gs2
 BYTE   N12  Cs3
 BYTE   W12
 BYTE   N36  As1
 BYTE   N23  Fn2
 BYTE   N32  As2
 BYTE   W12
 BYTE   PEND 
 BYTE   PATT
  POIN2 Label_2_015DF63C
// 061   ----------------------------------------
 BYTE   N24  As1  v100
 BYTE   N11  Fn2
 BYTE   N23  As2
 BYTE   W12
 BYTE   N11  Fn2
 BYTE   W12
 BYTE   Cs2
 BYTE   N12  Gs2
 BYTE   N12  Cs3
 BYTE   W12
 BYTE   N11  As1
 BYTE   N12  Fn2
 BYTE   N12  As2
 BYTE   W12
 BYTE   N11  En2
 BYTE   N12  Bn2
 BYTE   N12  En3
 BYTE   W12
 BYTE   N11  Ds2
 BYTE   N12  As2
 BYTE   N12  Ds3
 BYTE   W12
 BYTE   N11  Cs2
 BYTE   N12  Gs2
 BYTE   N12  Cs3
 BYTE   W12
 BYTE   N24  Fs1
 BYTE   W12
// 062   ----------------------------------------
 BYTE   W12
 BYTE   N12  As1
 BYTE   W12
 BYTE   Fs2
 BYTE   W12
 BYTE   N24  Gs2
 BYTE   W24
 BYTE   N06  Ds2
 BYTE   W12
 BYTE   N24  Gs1
 BYTE   W24
 BYTE   PATT
  POIN2 Label_2_015DF6A5
 BYTE   PATT
  POIN2 Label_2_015DF63C
// 063   ----------------------------------------
 BYTE   N12  As1  v100
 BYTE   N11  Fn2
 BYTE   N23  As2
 BYTE   W12
 BYTE   N12  As1
 BYTE   N11  Fn2
 BYTE   W12
 BYTE   N12  Cs2
 BYTE   N12  Gs2
 BYTE   N12  Cs3
 BYTE   W12
 BYTE   As1
 BYTE   N12  Fn2
 BYTE   N12  As2
 BYTE   W12
 BYTE   En2
 BYTE   N12  Bn2
 BYTE   N12  En3
 BYTE   W12
 BYTE   Ds2
 BYTE   N12  As2
 BYTE   N12  Ds3
 BYTE   W12
 BYTE   Cs2
 BYTE   N12  Gs2
 BYTE   N11  Cs3
 BYTE   W12
 BYTE   N24  Fs2
 BYTE   W12
 BYTE   PATT
  POIN2 Label_2_015DF695
 BYTE   PATT
  POIN2 Label_2_015DF6A5
 BYTE   PATT
  POIN2 Label_2_015DF63C
// 064   ----------------------------------------
 BYTE   N12  As1  v100
 BYTE   N11  Fn2
 BYTE   N23  As2
 BYTE   W12
 BYTE   N12  As1
 BYTE   N11  Fn2
 BYTE   W12
 BYTE   N12  Cs2
 BYTE   N12  Gs2
 BYTE   N12  Cs3
 BYTE   W12
 BYTE   As1
 BYTE   N12  Fn2
 BYTE   N12  As2
 BYTE   W12
 BYTE   En2
 BYTE   N12  Bn2
 BYTE   N12  En3
 BYTE   W12
 BYTE   Ds2
 BYTE   N12  As2
 BYTE   N12  Ds3
 BYTE   W12
 BYTE   Cs2
 BYTE   N12  Gs2
 BYTE   N11  Cs3
 BYTE   W12
 BYTE   N24  Fs1
 BYTE   N24  Cs2
 BYTE   N24  Fs2
 BYTE   W12
// 065   ----------------------------------------
 BYTE   W12
 BYTE   N12  As1
 BYTE   W12
 BYTE   Fs2
 BYTE   W12
 BYTE   N24  Gs2
 BYTE   W24
 BYTE   N12  Ds2
 BYTE   W12
 BYTE   N24  Gs1
 BYTE   N12  Gs2
 BYTE   W12
 BYTE   Cn3
 BYTE   W12
 BYTE   PATT
  POIN2 Label_2_015DF5CD
 BYTE   PATT
  POIN2 Label_2_015DF5B7
 BYTE   PATT
  POIN2 Label_2_015DF5CD
 BYTE   PATT
  POIN2 Label_2_015DF5B7
// 066   ----------------------------------------
 BYTE   TIE  Fn1  v060
 BYTE   TIE  As1
 BYTE   TIE  Fn2
 BYTE   TIE  As2
 BYTE   W03
 BYTE   W01
 BYTE   W03
 BYTE   W01
 BYTE   W01
 BYTE   W03
 BYTE   W01
 BYTE   W02
 BYTE   W01
 BYTE   W03
 BYTE   W03
 BYTE   W01
 BYTE   W03
 BYTE   W01
 BYTE   W02
 BYTE   W02
 BYTE   W01
 BYTE   W03
 BYTE   W03
 BYTE   W04
 BYTE   W01
 BYTE   W02
 BYTE   W02
 BYTE   W01
 BYTE   W02
 BYTE   W01
 BYTE   W03
 BYTE   W01
 BYTE   W02
 BYTE   W01
 BYTE   W03
 BYTE   W01
 BYTE   W02
 BYTE   W02
 BYTE   W01
 BYTE   W03
 BYTE   W03
 BYTE   W01
 BYTE   W03
 BYTE   W03
 BYTE   W02
 BYTE   W01
 BYTE   W02
 BYTE   W01
 BYTE   W03
 BYTE   W01
 BYTE   W03
 BYTE   W03
 BYTE   PATT
  POIN2 Label_2_015DF041
// 067   ----------------------------------------
 BYTE   W96
// 068   ----------------------------------------
 BYTE   W96
// 069   ----------------------------------------
 BYTE   EOT
 BYTE   Fn1  v046
 BYTE   Fn2  v058
 BYTE   N12  As1  v060
 BYTE   N12  Fn2
 BYTE   N12  As2
 BYTE   W24
 BYTE   N36  As1
 BYTE   N36  Fn2
 BYTE   N36  As2
 BYTE   W48
 BYTE   N24  As1
 BYTE   N24  Fn2
 BYTE   N24  As2
 BYTE   W24
// 070   ----------------------------------------
 BYTE   N12  As1
 BYTE   N12  Fn2
 BYTE   N12  As2
 BYTE   W24
 BYTE   As1
 BYTE   N12  Fn2
 BYTE   N12  As2
 BYTE   W12
 BYTE   N24  An1
 BYTE   N24  En2
 BYTE   N24  An2
 BYTE   W60
// 071   ----------------------------------------
Label_2_015DF82C:
 BYTE   N12  As1  v060
 BYTE   N12  Fn2
 BYTE   N12  As2
 BYTE   W12
 BYTE   N06  As1
 BYTE   N06  Fn2
 BYTE   N06  As2
 BYTE   W12
 BYTE   As1
 BYTE   N06  Fn2
 BYTE   N06  As2
 BYTE   W12
 BYTE   N12  As1
 BYTE   N12  Fn2
 BYTE   N12  As2
 BYTE   W12
 BYTE   N06  As1
 BYTE   N06  Fn2
 BYTE   N06  As2
 BYTE   W12
 BYTE   As1
 BYTE   N06  Fn2
 BYTE   N06  As2
 BYTE   W12
 BYTE   N24  As1
 BYTE   N24  Fn2
 BYTE   N24  As2
 BYTE   W24
 BYTE   PEND 
 BYTE   PATT
  POIN2 Label_2_015DF82C
// 072   ----------------------------------------
 BYTE   GoTo
  POIN2 Label_2_015DF0B7
 BYTE   FINE

//**************** Track 4 (Midi-Chn.3) ****************//

XenobladeChroniclesYouWillKnowOurNamesRandomWizard_004:
// 000   ----------------------------------------
 BYTE   KEYSH   XenobladeChroniclesYouWillKnowOurNamesRandomWizard_key+0
 BYTE   VOICE   33
 BYTE   VOL   40*XenobladeChroniclesYouWillKnowOurNamesRandomWizard_mvl/mxv
 BYTE   PAN   c_v+0
 BYTE   N36  As0  v100
 BYTE   W36
 BYTE   N36
 BYTE   W36
 BYTE   N24
 BYTE   W24
// 001   ----------------------------------------
 BYTE   N36
 BYTE   W36
 BYTE   N36
 BYTE   W36
 BYTE   N12
 BYTE   W12
 BYTE   Fn1
 BYTE   W12
// 002   ----------------------------------------
 BYTE   N36  As1
 BYTE   W36
 BYTE   N36
 BYTE   W36
 BYTE   N12
 BYTE   W12
 BYTE   N12
 BYTE   W12
// 003   ----------------------------------------
 BYTE   N36
 BYTE   W36
 BYTE   N24  Fn1
 BYTE   W24
 BYTE   N12
 BYTE   W12
 BYTE   Cs1
 BYTE   W12
 BYTE   N12
 BYTE   W12
// 004   ----------------------------------------
Label_3_015DB1F0:
 BYTE   N12  As0  v100
 BYTE   W12
 BYTE   N12
 BYTE   W12
 BYTE   N12
 BYTE   W12
 BYTE   N12
 BYTE   W12
 BYTE   N12
 BYTE   W12
 BYTE   N12
 BYTE   W12
 BYTE   N12
 BYTE   W12
 BYTE   N12
 BYTE   W12
 BYTE   PEND 
// 005   ----------------------------------------
Label_3_015DB203:
 BYTE   N12  As0  v100
 BYTE   W12
 BYTE   N12
 BYTE   W12
 BYTE   N12
 BYTE   W12
 BYTE   N12
 BYTE   W12
 BYTE   N12
 BYTE   W12
 BYTE   N12
 BYTE   W12
 BYTE   N12
 BYTE   W12
 BYTE   Fn1
 BYTE   W12
 BYTE   PEND 
// 006   ----------------------------------------
Label_3_015DB216:
 BYTE   N12  As1  v100
 BYTE   W12
 BYTE   N12
 BYTE   W12
 BYTE   N12
 BYTE   W12
 BYTE   N12
 BYTE   W12
 BYTE   N12
 BYTE   W12
 BYTE   N12
 BYTE   W12
 BYTE   N12
 BYTE   W12
 BYTE   N12
 BYTE   W12
 BYTE   PEND 
// 007   ----------------------------------------
 BYTE   N12
 BYTE   W12
 BYTE   N12
 BYTE   W12
 BYTE   N12
 BYTE   W12
 BYTE   N12
 BYTE   W12
 BYTE   Fn1
 BYTE   W12
 BYTE   N12
 BYTE   W12
 BYTE   Cs1
 BYTE   W12
 BYTE   N12
 BYTE   W12
// 008   ----------------------------------------
Label_3_015DB239:
 BYTE   PATT
  POIN2 Label_3_015DB1F0
 BYTE   PATT
  POIN2 Label_3_015DB1F0
 BYTE   PATT
  POIN2 Label_3_015DB1F0
 BYTE   PATT
  POIN2 Label_3_015DB1F0
 BYTE   PATT
  POIN2 Label_3_015DB1F0
 BYTE   PATT
  POIN2 Label_3_015DB203
 BYTE   PATT
  POIN2 Label_3_015DB216
// 009   ----------------------------------------
 BYTE   N12  Dn1  v100
 BYTE   W12
 BYTE   Ds1
 BYTE   W12
 BYTE   En1
 BYTE   W12
 BYTE   N24  Fn1
 BYTE   W24
 BYTE   N12
 BYTE   W12
 BYTE   Cs1
 BYTE   W12
 BYTE   N12
 BYTE   W12
 BYTE   PATT
  POIN2 Label_3_015DB1F0
 BYTE   PATT
  POIN2 Label_3_015DB1F0
 BYTE   PATT
  POIN2 Label_3_015DB1F0
// 010   ----------------------------------------
Label_3_015DB27C:
 BYTE   N12  As0  v100
 BYTE   W12
 BYTE   N12
 BYTE   W12
 BYTE   N12
 BYTE   W12
 BYTE   N24  Cs1
 BYTE   W24
 BYTE   N12  Fn0
 BYTE   W12
 BYTE   Cs1
 BYTE   W12
 BYTE   Fn0
 BYTE   W12
 BYTE   PEND 
 BYTE   PATT
  POIN2 Label_3_015DB1F0
 BYTE   PATT
  POIN2 Label_3_015DB1F0
// 011   ----------------------------------------
 BYTE   N12  As0  v100
 BYTE   W12
 BYTE   N12
 BYTE   W12
 BYTE   N12
 BYTE   W12
 BYTE   N12
 BYTE   W12
 BYTE   Cs1
 BYTE   W12
 BYTE   Fn1
 BYTE   W12
 BYTE   Gs1
 BYTE   W12
 BYTE   N24  Cs2
 BYTE   W12
// 012   ----------------------------------------
 BYTE   W12
 BYTE   N12  Gs1
 BYTE   W12
 BYTE   Fn1
 BYTE   W12
 BYTE   Gs1
 BYTE   W12
 BYTE   Cs2
 BYTE   W12
 BYTE   Gs1
 BYTE   W12
 BYTE   Fn1
 BYTE   W12
 BYTE   Gs1
 BYTE   W12
 BYTE   PATT
  POIN2 Label_3_015DB1F0
// 013   ----------------------------------------
 BYTE   N12  As0  v100
 BYTE   W12
 BYTE   N12
 BYTE   W12
 BYTE   N12
 BYTE   W12
 BYTE   N24  En1
 BYTE   W24
 BYTE   N12  Ds1
 BYTE   W12
 BYTE   Cs1
 BYTE   W12
 BYTE   Gn0
 BYTE   W12
 BYTE   PATT
  POIN2 Label_3_015DB1F0
 BYTE   PATT
  POIN2 Label_3_015DB27C
 BYTE   PATT
  POIN2 Label_3_015DB1F0
// 014   ----------------------------------------
 BYTE   N12  As0  v100
 BYTE   W12
 BYTE   N12
 BYTE   W12
 BYTE   N12
 BYTE   W12
 BYTE   N12
 BYTE   W12
 BYTE   N12
 BYTE   W12
 BYTE   Fn1
 BYTE   W12
 BYTE   Gs1
 BYTE   W12
 BYTE   N24  Bn0
 BYTE   W12
// 015   ----------------------------------------
 BYTE   W12
 BYTE   N12
 BYTE   W12
 BYTE   Bn1
 BYTE   W12
 BYTE   N12
 BYTE   W12
 BYTE   N12
 BYTE   W12
 BYTE   Fs1
 BYTE   W12
 BYTE   Bn0
 BYTE   W12
 BYTE   N24  Cs1
 BYTE   W12
// 016   ----------------------------------------
 BYTE   W12
 BYTE   N12
 BYTE   W12
 BYTE   Cs2
 BYTE   W12
 BYTE   N12
 BYTE   W12
 BYTE   N12
 BYTE   W12
 BYTE   N12
 BYTE   W12
 BYTE   N12
 BYTE   W12
 BYTE   Cs1
 BYTE   W12
// 017   ----------------------------------------
 BYTE   As1
 BYTE   W12
 BYTE   N24  Bn1
 BYTE   W24
 BYTE   N24
 BYTE   W24
 BYTE   N12
 BYTE   W12
 BYTE   As1
 BYTE   W12
 BYTE   Bn1
 BYTE   W12
// 018   ----------------------------------------
 BYTE   N24
 BYTE   W24
 BYTE   N12
 BYTE   W12
 BYTE   N24
 BYTE   W24
 BYTE   N12  Fs1
 BYTE   W12
 BYTE   N12
 BYTE   W12
 BYTE   Bn0
 BYTE   W12
// 019   ----------------------------------------
 BYTE   N36  Fn1
 BYTE   W36
 BYTE   N24
 BYTE   W24
 BYTE   N12
 BYTE   W12
 BYTE   Gs1
 BYTE   W12
 BYTE   Cs2
 BYTE   W12
// 020   ----------------------------------------
 BYTE   N36  Fn2
 BYTE   W36
 BYTE   Cs2
 BYTE   W36
 BYTE   N24  Fn1
 BYTE   W24
// 021   ----------------------------------------
 BYTE   N36  Bn1
 BYTE   W36
 BYTE   N24
 BYTE   W24
 BYTE   Fs1
 BYTE   W24
 BYTE   N12  Ds1
 BYTE   W12
// 022   ----------------------------------------
 BYTE   N36  Bn1
 BYTE   W36
 BYTE   Fs1
 BYTE   W36
 BYTE   N24  Bn0
 BYTE   W24
// 023   ----------------------------------------
 BYTE   N36  As0
 BYTE   W36
 BYTE   N36
 BYTE   W36
 BYTE   N24  Fn0
 BYTE   W24
// 024   ----------------------------------------
 BYTE   N36  As0
 BYTE   W36
 BYTE   N36
 BYTE   W36
 BYTE   N24
 BYTE   W24
// 025   ----------------------------------------
 BYTE   N12  Ds1
 BYTE   W12
 BYTE   N12
 BYTE   W12
 BYTE   N12
 BYTE   W12
 BYTE   N24
 BYTE   W24
 BYTE   N12
 BYTE   W12
 BYTE   N12
 BYTE   W12
 BYTE   N12
 BYTE   W12
// 026   ----------------------------------------
 BYTE   Fn1
 BYTE   W12
 BYTE   N12
 BYTE   W12
 BYTE   N12
 BYTE   W12
 BYTE   N24
 BYTE   W24
 BYTE   N12
 BYTE   W12
 BYTE   N12
 BYTE   W12
 BYTE   N12
 BYTE   W12
// 027   ----------------------------------------
 BYTE   Fs1
 BYTE   W12
 BYTE   N12
 BYTE   W12
 BYTE   N12
 BYTE   W12
 BYTE   N24
 BYTE   W24
 BYTE   N12
 BYTE   W12
 BYTE   N12
 BYTE   W12
 BYTE   N12
 BYTE   W12
// 028   ----------------------------------------
 BYTE   Gn1
 BYTE   W12
 BYTE   N12
 BYTE   W12
 BYTE   N12
 BYTE   W12
 BYTE   N24
 BYTE   W24
 BYTE   N12
 BYTE   W12
 BYTE   N12
 BYTE   W12
 BYTE   N12
 BYTE   W12
// 029   ----------------------------------------
 BYTE   Gs0
 BYTE   W12
 BYTE   N12
 BYTE   W12
 BYTE   Cs1
 BYTE   W12
 BYTE   Gs0
 BYTE   W12
 BYTE   Dn1
 BYTE   W12
 BYTE   Gs0
 BYTE   W12
 BYTE   Ds1
 BYTE   W12
 BYTE   Gs0
 BYTE   W12
// 030   ----------------------------------------
 BYTE   Gs1
 BYTE   W12
 BYTE   Fs1
 BYTE   W12
 BYTE   Ds1
 BYTE   W12
 BYTE   N24  Gs1
 BYTE   W24
 BYTE   Fs1
 BYTE   W24
 BYTE   N12  Ds1
 BYTE   W12
// 031   ----------------------------------------
 BYTE   Fn1
 BYTE   W12
 BYTE   N06
 BYTE   W24
 BYTE   N12
 BYTE   W12
 BYTE   N06
 BYTE   W24
 BYTE   N12
 BYTE   W12
 BYTE   N06
 BYTE   W12
// 032   ----------------------------------------
 BYTE   W84
 BYTE   N24  Fs1
 BYTE   W12
// 033   ----------------------------------------
Label_3_015DB3C9:
 BYTE   W12
 BYTE   N12  Fs1  v100
 BYTE   W12
 BYTE   N12
 BYTE   W12
 BYTE   N12
 BYTE   W12
 BYTE   N12
 BYTE   W12
 BYTE   N12
 BYTE   W12
 BYTE   N12
 BYTE   W12
 BYTE   N24  Gs1
 BYTE   W12
 BYTE   PEND 
// 034   ----------------------------------------
Label_3_015DB3DC:
 BYTE   W12
 BYTE   N12  Gs1  v100
 BYTE   W12
 BYTE   N12
 BYTE   W12
 BYTE   N12
 BYTE   W12
 BYTE   N12
 BYTE   W12
 BYTE   N12
 BYTE   W12
 BYTE   N12
 BYTE   W12
 BYTE   N12
 BYTE   W12
 BYTE   PEND 
// 035   ----------------------------------------
Label_3_015DB3EE:
 BYTE   N12  Fn1  v100
 BYTE   W12
 BYTE   N12
 BYTE   W12
 BYTE   N12
 BYTE   W12
 BYTE   N12
 BYTE   W12
 BYTE   N12
 BYTE   W12
 BYTE   N12
 BYTE   W12
 BYTE   N12
 BYTE   W12
 BYTE   N24  As1
 BYTE   W12
 BYTE   PEND 
// 036   ----------------------------------------
 BYTE   W12
 BYTE   N12
 BYTE   W12
 BYTE   N12
 BYTE   W12
 BYTE   N24  Cs2
 BYTE   W24
 BYTE   As1
 BYTE   W24
 BYTE   N12  Fn1
 BYTE   W12
// 037   ----------------------------------------
 BYTE   Ds1
 BYTE   W12
 BYTE   N12
 BYTE   W12
 BYTE   N12
 BYTE   W12
 BYTE   N12
 BYTE   W12
 BYTE   N12
 BYTE   W12
 BYTE   N12
 BYTE   W12
 BYTE   N12
 BYTE   W12
 BYTE   N12
 BYTE   W12
// 038   ----------------------------------------
 BYTE   Fn1
 BYTE   W12
 BYTE   N12
 BYTE   W12
 BYTE   N12
 BYTE   W12
 BYTE   N24  An1
 BYTE   W24
 BYTE   N12  Fn1
 BYTE   W12
 BYTE   Cn2
 BYTE   W12
 BYTE   N24  As1
 BYTE   W12
// 039   ----------------------------------------
 BYTE   W12
 BYTE   N12
 BYTE   W12
 BYTE   N12
 BYTE   W12
 BYTE   N24  An1
 BYTE   W24
 BYTE   N12
 BYTE   W12
 BYTE   N12
 BYTE   W12
 BYTE   N36  Gs1
 BYTE   W12
// 040   ----------------------------------------
 BYTE   W24
 BYTE   N12
 BYTE   W12
 BYTE   N12
 BYTE   W12
 BYTE   Gn1
 BYTE   W12
 BYTE   Fs1
 BYTE   W24
 BYTE   N24
 BYTE   W12
 BYTE   PATT
  POIN2 Label_3_015DB3C9
 BYTE   PATT
  POIN2 Label_3_015DB3DC
 BYTE   PATT
  POIN2 Label_3_015DB3EE
// 041   ----------------------------------------
 BYTE   W12
 BYTE   N12  As1  v100
 BYTE   W12
 BYTE   N12
 BYTE   W12
 BYTE   N12
 BYTE   W12
 BYTE   N12
 BYTE   W12
 BYTE   N12
 BYTE   W12
 BYTE   N12
 BYTE   W12
 BYTE   N12
 BYTE   W12
// 042   ----------------------------------------
 BYTE   Ds1
 BYTE   W12
 BYTE   N12
 BYTE   W24
 BYTE   N24
 BYTE   W24
 BYTE   N12
 BYTE   W12
 BYTE   N12
 BYTE   W12
 BYTE   N12
 BYTE   W12
// 043   ----------------------------------------
 BYTE   Fn1
 BYTE   W12
 BYTE   N12
 BYTE   W24
 BYTE   N24
 BYTE   W24
 BYTE   N12
 BYTE   W12
 BYTE   N12
 BYTE   W12
 BYTE   Gs1
 BYTE   W12
// 044   ----------------------------------------
Label_3_015DB482:
 BYTE   N12  As1  v100
 BYTE   W12
 BYTE   N12
 BYTE   W24
 BYTE   N12
 BYTE   W12
 BYTE   N12
 BYTE   W24
 BYTE   N12
 BYTE   W12
 BYTE   N12
 BYTE   W12
 BYTE   PEND 
// 045   ----------------------------------------
Label_3_015DB491:
 BYTE   W12
 BYTE   N12  As1  v100
 BYTE   W12
 BYTE   N12
 BYTE   W24
 BYTE   N12
 BYTE   W48
 BYTE   PEND 
 BYTE   PATT
  POIN2 Label_3_015DB482
 BYTE   PATT
  POIN2 Label_3_015DB491
// 046   ----------------------------------------
 BYTE   W96
// 047   ----------------------------------------
 BYTE   W96
// 048   ----------------------------------------
 BYTE   W96
// 049   ----------------------------------------
 BYTE   W96
// 050   ----------------------------------------
 BYTE   W96
// 051   ----------------------------------------
 BYTE   W96
// 052   ----------------------------------------
 BYTE   W96
// 053   ----------------------------------------
 BYTE   W96
// 054   ----------------------------------------
Label_3_015DB4AD:
 BYTE   N12  As0  v100
 BYTE   W12
 BYTE   N12
 BYTE   W12
 BYTE   Cs1
 BYTE   W12
 BYTE   As0
 BYTE   W12
 BYTE   En1
 BYTE   W12
 BYTE   Ds1
 BYTE   W12
 BYTE   Cs1
 BYTE   W12
 BYTE   N24  As0
 BYTE   W12
 BYTE   PEND 
// 055   ----------------------------------------
Label_3_015DB4C1:
 BYTE   W12
 BYTE   N12  As0  v100
 BYTE   W12
 BYTE   Cs1
 BYTE   W12
 BYTE   As0
 BYTE   W12
 BYTE   Fn0
 BYTE   W12
 BYTE   En0
 BYTE   W12
 BYTE   Ds0
 BYTE   W12
 BYTE   Cs0
 BYTE   W12
 BYTE   PEND 
// 056   ----------------------------------------
Label_3_015DB4D3:
 BYTE   N12  As0  v100
 BYTE   W12
 BYTE   N12
 BYTE   W12
 BYTE   Cs1
 BYTE   W12
 BYTE   As0
 BYTE   W12
 BYTE   En1
 BYTE   W12
 BYTE   Ds1
 BYTE   W12
 BYTE   Cs1
 BYTE   W12
 BYTE   N24  Fs0
 BYTE   W12
 BYTE   PEND 
// 057   ----------------------------------------
 BYTE   W12
 BYTE   N12  As0
 BYTE   W12
 BYTE   Cs1
 BYTE   W12
 BYTE   N24  Gs0
 BYTE   W60
 BYTE   PATT
  POIN2 Label_3_015DB4AD
 BYTE   PATT
  POIN2 Label_3_015DB4C1
 BYTE   PATT
  POIN2 Label_3_015DB4D3
// 058   ----------------------------------------
 BYTE   W12
 BYTE   N12  As0  v100
 BYTE   W12
 BYTE   Cs1
 BYTE   W12
 BYTE   N24  Gs1
 BYTE   W24
 BYTE   N12  Ds1
 BYTE   W12
 BYTE   Gs1
 BYTE   W12
 BYTE   Cn2
 BYTE   W12
// 059   ----------------------------------------
Label_3_015DB510:
 BYTE   N12  As0  v100
 BYTE   W12
 BYTE   N12
 BYTE   W24
 BYTE   N12
 BYTE   W12
 BYTE   N12
 BYTE   W24
 BYTE   N12
 BYTE   W12
 BYTE   N12
 BYTE   W12
 BYTE   PEND 
// 060   ----------------------------------------
 BYTE   W12
 BYTE   N12
 BYTE   W12
 BYTE   N12
 BYTE   W24
 BYTE   N12
 BYTE   W48
 BYTE   PATT
  POIN2 Label_3_015DB510
 BYTE   PATT
  POIN2 Label_3_015DB491
// 061   ----------------------------------------
 BYTE   TIE  As0  v100
 BYTE   W96
// 062   ----------------------------------------
 BYTE   W72
 BYTE   EOT
 BYTE   N12
 BYTE   W12
 BYTE   Fn1
 BYTE   W12
// 063   ----------------------------------------
 BYTE   N96  As1
 BYTE   W96
// 064   ----------------------------------------
 BYTE   N36
 BYTE   W36
 BYTE   Fn1
 BYTE   W36
 BYTE   N24  Cs1
 BYTE   W24
 BYTE   PATT
  POIN2 Label_3_015DB1F0
 BYTE   PATT
  POIN2 Label_3_015DB203
 BYTE   PATT
  POIN2 Label_3_015DB216
// 065   ----------------------------------------
 BYTE   N12  As1  v100
 BYTE   W12
 BYTE   N12
 BYTE   W12
 BYTE   N12
 BYTE   W12
 BYTE   N12
 BYTE   W12
 BYTE   N12
 BYTE   W12
 BYTE   N12
 BYTE   W12
 BYTE   N12
 BYTE   W12
 BYTE   Fn1
 BYTE   W12
// 066   ----------------------------------------
 BYTE   GoTo
  POIN2 Label_3_015DB239
 BYTE   FINE

//**************** Track 5 (Midi-Chn.4) ****************//

XenobladeChroniclesYouWillKnowOurNamesRandomWizard_005:
// 000   ----------------------------------------
 BYTE   KEYSH   XenobladeChroniclesYouWillKnowOurNamesRandomWizard_key+0
 BYTE   VOICE   30
 BYTE   VOL   31*XenobladeChroniclesYouWillKnowOurNamesRandomWizard_mvl/mxv
 BYTE   PAN   c_v+0
 BYTE   W96
// 001   ----------------------------------------
 BYTE   W96
// 002   ----------------------------------------
 BYTE   W96
// 003   ----------------------------------------
 BYTE   W96
// 004   ----------------------------------------
 BYTE   W96
// 005   ----------------------------------------
 BYTE   W96
// 006   ----------------------------------------
 BYTE   W96
// 007   ----------------------------------------
 BYTE   W96
// 008   ----------------------------------------
Label_4_015DF878:
 BYTE   N12  Fn2  v100
 BYTE   W12
 BYTE   Cs2
 BYTE   W12
 BYTE   As1
 BYTE   W12
 BYTE   N24  Fs2
 BYTE   W24
 BYTE   N12  Dn2
 BYTE   W12
 BYTE   N24  Bn1
 BYTE   W24
 BYTE   PEND 
// 009   ----------------------------------------
Label_4_015DF88A:
 BYTE   N12  Fn2  v100
 BYTE   W12
 BYTE   Cs2
 BYTE   W12
 BYTE   As1
 BYTE   W12
 BYTE   N24  En2
 BYTE   W24
 BYTE   N12  Cn2
 BYTE   W12
 BYTE   N24  An1
 BYTE   W24
 BYTE   PEND 
 BYTE   PATT
  POIN2 Label_4_015DF878
// 010   ----------------------------------------
Label_4_015DF8A1:
 BYTE   N12  Gn2  v100
 BYTE   W12
 BYTE   En2
 BYTE   W12
 BYTE   Cn2
 BYTE   W12
 BYTE   N24  An2
 BYTE   W24
 BYTE   N12  Fn2
 BYTE   W12
 BYTE   N24  Cn2
 BYTE   W24
 BYTE   PEND 
 BYTE   PATT
  POIN2 Label_4_015DF878
 BYTE   PATT
  POIN2 Label_4_015DF88A
 BYTE   PATT
  POIN2 Label_4_015DF878
 BYTE   PATT
  POIN2 Label_4_015DF8A1
// 011   ----------------------------------------
 BYTE   W96
// 012   ----------------------------------------
Label_4_015DF8C8:
 BYTE   W36
 BYTE   N24  En2  v100
 BYTE   W24
 BYTE   N12  Ds2
 BYTE   W12
 BYTE   Cs2
 BYTE   W12
 BYTE   Gs1
 BYTE   W12
 BYTE   PEND 
// 013   ----------------------------------------
 BYTE   W96
// 014   ----------------------------------------
Label_4_015DF8D6:
 BYTE   W12
 BYTE   N06  Fn2  v100
 BYTE   W12
 BYTE   Gs2
 BYTE   W12
 BYTE   N24  Fn3
 BYTE   W24
 BYTE   N12  Cs3
 BYTE   W12
 BYTE   Gs2
 BYTE   W12
 BYTE   Fn2
 BYTE   W12
 BYTE   PEND 
// 015   ----------------------------------------
 BYTE   W24
 BYTE   N12
 BYTE   N12  Fn3  v060
 BYTE   W36
 BYTE   Gs2  v100
 BYTE   N12  Gs3  v060
 BYTE   W36
// 016   ----------------------------------------
Label_4_015DF8F4:
 BYTE   N12  Gn2  v100
 BYTE   W12
 BYTE   En2
 BYTE   W12
 BYTE   Cn2
 BYTE   W12
 BYTE   N24  En2
 BYTE   W24
 BYTE   N12  Cn2
 BYTE   W12
 BYTE   As1
 BYTE   W12
 BYTE   N24  Bn1
 BYTE   W12
 BYTE   PEND 
// 017   ----------------------------------------
 BYTE   W12
 BYTE   N12  Fs1
 BYTE   W12
 BYTE   Cs2
 BYTE   W12
 BYTE   Fs1
 BYTE   W12
 BYTE   Ds2
 BYTE   W12
 BYTE   Fs2
 BYTE   W12
 BYTE   Fn2
 BYTE   W12
 BYTE   N24  Cs2
 BYTE   W12
// 018   ----------------------------------------
 BYTE   W12
 BYTE   N12  Gs1
 BYTE   W12
 BYTE   Ds2
 BYTE   W12
 BYTE   Gs1
 BYTE   W12
 BYTE   Fn2
 BYTE   W12
 BYTE   Gs1
 BYTE   W12
 BYTE   N24  Gs2
 BYTE   W24
// 019   ----------------------------------------
 BYTE   W96
 BYTE   PATT
  POIN2 Label_4_015DF8C8
// 020   ----------------------------------------
 BYTE   W96
 BYTE   PATT
  POIN2 Label_4_015DF8D6
// 021   ----------------------------------------
 BYTE   W24
 BYTE   N12  Fn2  v100
 BYTE   W36
 BYTE   Gs2
 BYTE   W36
 BYTE   PATT
  POIN2 Label_4_015DF8F4
// 022   ----------------------------------------
 BYTE   W12
 BYTE   N12  Ds2  v100
 BYTE   W12
 BYTE   Ds3
 BYTE   W12
 BYTE   Cs3
 BYTE   W12
 BYTE   Bn2
 BYTE   W12
 BYTE   Fs2
 BYTE   W12
 BYTE   Ds2
 BYTE   W12
 BYTE   N24  Gs1
 BYTE   W12
// 023   ----------------------------------------
 BYTE   W12
 BYTE   N12  Cs2
 BYTE   W12
 BYTE   Fn2
 BYTE   W12
 BYTE   Gs2
 BYTE   W12
 BYTE   Cs3
 BYTE   W12
 BYTE   Ds3
 BYTE   W12
 BYTE   N24  Fn3
 BYTE   W24
// 024   ----------------------------------------
 BYTE   N72  Fs2
 BYTE   W72
 BYTE   N12  Fn2
 BYTE   W12
 BYTE   Fs2
 BYTE   W12
// 025   ----------------------------------------
 BYTE   N72  Cs3
 BYTE   W72
 BYTE   N12  Cn3
 BYTE   W12
 BYTE   Cs3
 BYTE   W12
// 026   ----------------------------------------
 BYTE   TIE  Gs3
 BYTE   W96
// 027   ----------------------------------------
 BYTE   W72
 BYTE   EOT
 BYTE   N12  Fn3
 BYTE   W12
 BYTE   Fs3
 BYTE   W12
// 028   ----------------------------------------
 BYTE   N72  Cs4
 BYTE   W72
 BYTE   N12  Cn4
 BYTE   W12
 BYTE   Cs4
 BYTE   W12
// 029   ----------------------------------------
 BYTE   N72  Gs4
 BYTE   W72
 BYTE   N12  Fn4
 BYTE   W12
 BYTE   Fs4
 BYTE   W12
// 030   ----------------------------------------
 BYTE   TIE  Cs5  v080
 BYTE   W96
// 031   ----------------------------------------
 BYTE   W60
 BYTE   EOT
 BYTE   W36
// 032   ----------------------------------------
 BYTE   W96
// 033   ----------------------------------------
 BYTE   W96
// 034   ----------------------------------------
 BYTE   W96
// 035   ----------------------------------------
 BYTE   W96
// 036   ----------------------------------------
 BYTE   N06  Gs1  v100
 BYTE   W12
 BYTE   N12
 BYTE   W12
 BYTE   Cs2
 BYTE   W12
 BYTE   N06  Gs1
 BYTE   W12
 BYTE   N12  Dn2
 BYTE   W12
 BYTE   N06  Gs1
 BYTE   W12
 BYTE   N12  Ds2
 BYTE   W12
 BYTE   N06  Gs1
 BYTE   W12
// 037   ----------------------------------------
 BYTE   N12  Gs2
 BYTE   W12
 BYTE   Fs2
 BYTE   W12
 BYTE   Ds2
 BYTE   W12
 BYTE   N24  Gs2
 BYTE   W24
 BYTE   N12  Fs2
 BYTE   W12
 BYTE   Ds2
 BYTE   W24
// 038   ----------------------------------------
 BYTE   W96
// 039   ----------------------------------------
 BYTE   W24
 BYTE   Fn3
 BYTE   N12  As3
 BYTE   W24
 BYTE   N12
 BYTE   N12  Cs4
 BYTE   W12
 BYTE   As3
 BYTE   N12  Ds4
 BYTE   W24
 BYTE   N72  Fn3
 BYTE   N72  Fn4
 BYTE   W12
// 040   ----------------------------------------
 BYTE   W60
 BYTE   N24  Fn3
 BYTE   N24  Fn4
 BYTE   W24
 BYTE   N60  Gs3
 BYTE   N36  Ds4
 BYTE   W12
// 041   ----------------------------------------
 BYTE   W24
 BYTE   N24
 BYTE   W24
 BYTE   Ds3
 BYTE   N24  Gs4
 BYTE   W24
 BYTE   Gs3
 BYTE   N24  Ds4
 BYTE   W24
// 042   ----------------------------------------
 BYTE   N60  Ds3
 BYTE   N60  Ds4
 BYTE   W60
 BYTE   N12  Ds3
 BYTE   N12  Cs4
 BYTE   W12
 BYTE   Cn4
 BYTE   W12
 BYTE   N84  Fn3
 BYTE   N84  Cs4
 BYTE   W12
// 043   ----------------------------------------
 BYTE   W72
 BYTE   N12  As3
 BYTE   W12
 BYTE   Cn4
 BYTE   W12
// 044   ----------------------------------------
 BYTE   N06  Ds2
 BYTE   N12  Cs4
 BYTE   W12
 BYTE   N06  Ds2
 BYTE   N12  As3
 BYTE   W12
 BYTE   N06  Ds2
 BYTE   N12  Fs3
 BYTE   W12
 BYTE   N24  As2
 BYTE   N24  Cs3
 BYTE   W24
 BYTE   N12  Ds2
 BYTE   N12  Fs3
 BYTE   W12
 BYTE   N24  Cs3
 BYTE   N12  As3
 BYTE   W12
 BYTE   Cs4
 BYTE   W12
// 045   ----------------------------------------
 BYTE   N06  Fn2
 BYTE   N12  Cn4
 BYTE   W12
 BYTE   N06  Fn2
 BYTE   N12  An3
 BYTE   W12
 BYTE   N06  Fn2
 BYTE   N12  Fn3
 BYTE   W12
 BYTE   N24  Cn3
 BYTE   W24
 BYTE   N12  Fn2
 BYTE   N12  Fn3
 BYTE   W12
 BYTE   Ds3
 BYTE   N12  An3
 BYTE   W12
 BYTE   N24  Cs3
 BYTE   N24  As3
 BYTE   W12
// 046   ----------------------------------------
 BYTE   W12
 BYTE   N12  Cn3
 BYTE   N12  An3
 BYTE   W12
 BYTE   Cs3
 BYTE   N12  As3
 BYTE   W12
 BYTE   N24  Ds3
 BYTE   N24  Cn4
 BYTE   W24
 BYTE   N12  Cs3
 BYTE   N12  As3
 BYTE   W12
 BYTE   Ds3
 BYTE   N12  Cn4
 BYTE   W12
 BYTE   N24  Fn3
 BYTE   N36  Cs4
 BYTE   W12
// 047   ----------------------------------------
 BYTE   W24
 BYTE   N12  Fn3
 BYTE   N12  As3
 BYTE   W24
 BYTE   Ds3
 BYTE   N12  Cs4
 BYTE   W12
 BYTE   Ds3
 BYTE   N12  Ds4
 BYTE   W24
 BYTE   N72  Cs3
 BYTE   W12
// 048   ----------------------------------------
 BYTE   W60
 BYTE   N24
 BYTE   W24
 BYTE   TIE  Ds3
 BYTE   W12
// 049   ----------------------------------------
 BYTE   W96
// 050   ----------------------------------------
 BYTE   EOT
 BYTE   N60  Gs3
 BYTE   W60
 BYTE   N24
 BYTE   W24
 BYTE   TIE  Cs3
 BYTE   W12
// 051   ----------------------------------------
 BYTE   W96
// 052   ----------------------------------------
 BYTE   EOT
 BYTE   N06  Ds1
 BYTE   N48  As3
 BYTE   W12
 BYTE   N06  Ds1
 BYTE   W12
 BYTE   N06
 BYTE   W12
 BYTE   N24  As2
 BYTE   W12
 BYTE   N48  Fn4
 BYTE   W12
 BYTE   N36  Ds2
 BYTE   N36  Cs3
 BYTE   W36
// 053   ----------------------------------------
 BYTE   N06  Fn1
 BYTE   N48  Ds4
 BYTE   W12
 BYTE   N06  Fn1
 BYTE   W12
 BYTE   N06
 BYTE   W12
 BYTE   N24  Cn3
 BYTE   W12
 BYTE   N48  Gs4
 BYTE   W12
 BYTE   N36  Fn2
 BYTE   N36  Ds3
 BYTE   W36
// 054   ----------------------------------------
 BYTE   N12  As2
 BYTE   TIE  As4
 BYTE   W12
 BYTE   N12  As2
 BYTE   W24
 BYTE   N12
 BYTE   W12
 BYTE   N12
 BYTE   W24
 BYTE   N12
 BYTE   W12
 BYTE   N12
 BYTE   W12
// 055   ----------------------------------------
 BYTE   W12
 BYTE   N12
 BYTE   W12
 BYTE   N12
 BYTE   W24
 BYTE   N12
 BYTE   W24
 BYTE   N24  As3
 BYTE   N24  Fn4
 BYTE   W24
// 056   ----------------------------------------
Label_4_015DFAC2:
 BYTE   N12  As2  v100
 BYTE   W12
 BYTE   N12
 BYTE   W24
 BYTE   N12
 BYTE   W12
 BYTE   N12
 BYTE   W24
 BYTE   N12
 BYTE   W12
 BYTE   N12
 BYTE   W12
 BYTE   PEND 
// 057   ----------------------------------------
 BYTE   W12
 BYTE   N12
 BYTE   W12
 BYTE   N12
 BYTE   W24
 BYTE   N12
 BYTE   W12
 BYTE   EOT
 BYTE   As4
 BYTE   W12
 BYTE   N24  Fn4
 BYTE   N24  As4
 BYTE   W24
// 058   ----------------------------------------
 BYTE   W96
// 059   ----------------------------------------
 BYTE   W96
// 060   ----------------------------------------
 BYTE   W84
 BYTE   Fs1
 BYTE   W12
// 061   ----------------------------------------
Label_4_015DFAE5:
 BYTE   W12
 BYTE   N12  As1  v100
 BYTE   W12
 BYTE   Cs2
 BYTE   W12
 BYTE   N24  Gs1
 BYTE   W24
 BYTE   N36  Ds3
 BYTE   W36
 BYTE   PEND 
// 062   ----------------------------------------
 BYTE   W96
// 063   ----------------------------------------
 BYTE   W96
// 064   ----------------------------------------
 BYTE   W84
 BYTE   N24  Fs1
 BYTE   W12
// 065   ----------------------------------------
 BYTE   W12
 BYTE   N12  As1
 BYTE   W12
 BYTE   Fs2
 BYTE   W12
 BYTE   N24  Gs2
 BYTE   W24
 BYTE   N06  Ds2
 BYTE   W12
 BYTE   N24  Gs1
 BYTE   W24
// 066   ----------------------------------------
 BYTE   W96
// 067   ----------------------------------------
 BYTE   W96
// 068   ----------------------------------------
 BYTE   W84
 BYTE   Fs1
 BYTE   W12
 BYTE   PATT
  POIN2 Label_4_015DFAE5
// 069   ----------------------------------------
 BYTE   W96
// 070   ----------------------------------------
 BYTE   W96
// 071   ----------------------------------------
 BYTE   W84
 BYTE   N24  Fs1  v100
 BYTE   W12
// 072   ----------------------------------------
 BYTE   W12
 BYTE   N12  As0
 BYTE   N12  As1
 BYTE   W12
 BYTE   Fs1
 BYTE   N12  Fs2
 BYTE   N12  Fs4  v060
 BYTE   W12
 BYTE   N24  Gs2  v100
 BYTE   N24  Gs4  v060
 BYTE   W24
 BYTE   N12  Ds2  v100
 BYTE   W12
 BYTE   N24  Gs1
 BYTE   N12  Gs2
 BYTE   W12
 BYTE   Cn3
 BYTE   W12
 BYTE   PATT
  POIN2 Label_4_015DFAC2
// 073   ----------------------------------------
 BYTE   W12
 BYTE   N12  As2  v100
 BYTE   W12
 BYTE   N12
 BYTE   W24
 BYTE   N12
 BYTE   W24
 BYTE   N24  As1
 BYTE   N24  Fn2
 BYTE   W24
 BYTE   PATT
  POIN2 Label_4_015DFAC2
// 074   ----------------------------------------
 BYTE   W12
 BYTE   N12  As2  v100
 BYTE   W12
 BYTE   N12
 BYTE   W24
 BYTE   N12
 BYTE   N12  As3
 BYTE   W48
// 075   ----------------------------------------
 BYTE   W96
// 076   ----------------------------------------
 BYTE   W96
// 077   ----------------------------------------
 BYTE   W96
// 078   ----------------------------------------
 BYTE   W96
// 079   ----------------------------------------
Label_4_015DFB5F:
 BYTE   N06  As2  v100
 BYTE   W12
 BYTE   N12  Fn2
 BYTE   W12
 BYTE   Cs2
 BYTE   W12
 BYTE   N24  Bn2
 BYTE   W24
 BYTE   N12  Fs2
 BYTE   W12
 BYTE   N24  Dn2
 BYTE   W24
 BYTE   PEND 
// 080   ----------------------------------------
 BYTE   N12  As2
 BYTE   W12
 BYTE   Fn2
 BYTE   W12
 BYTE   Cs2
 BYTE   W12
 BYTE   N24  Gn2
 BYTE   W24
 BYTE   N12  En2
 BYTE   W12
 BYTE   N24  Cn2
 BYTE   W24
 BYTE   PATT
  POIN2 Label_4_015DFB5F
// 081   ----------------------------------------
 BYTE   N06  As2  v100
 BYTE   W12
 BYTE   N12  Fn2
 BYTE   W12
 BYTE   Dn2
 BYTE   W12
 BYTE   N24  Cn3
 BYTE   W24
 BYTE   N12  An2
 BYTE   W12
 BYTE   N24  Fn2
 BYTE   W24
// 082   ----------------------------------------
 BYTE   GoTo
  POIN2 Label_4_015DF878
 BYTE   FINE

//**************** Track 6 (Midi-Chn.5) ****************//

XenobladeChroniclesYouWillKnowOurNamesRandomWizard_006:
// 000   ----------------------------------------
 BYTE   KEYSH   XenobladeChroniclesYouWillKnowOurNamesRandomWizard_key+0
 BYTE   VOICE   56
 BYTE   VOL   31*XenobladeChroniclesYouWillKnowOurNamesRandomWizard_mvl/mxv
 BYTE   PAN   c_v+0
 BYTE   W96
// 001   ----------------------------------------
 BYTE   W96
// 002   ----------------------------------------
 BYTE   W96
// 003   ----------------------------------------
 BYTE   W96
// 004   ----------------------------------------
 BYTE   W96
// 005   ----------------------------------------
 BYTE   W96
// 006   ----------------------------------------
 BYTE   W96
// 007   ----------------------------------------
 BYTE   W96
// 008   ----------------------------------------
Label_5_015DBEE4:
 BYTE   W96
// 009   ----------------------------------------
 BYTE   W96
// 010   ----------------------------------------
 BYTE   W96
// 011   ----------------------------------------
 BYTE   W96
// 012   ----------------------------------------
 BYTE   W96
// 013   ----------------------------------------
 BYTE   W96
// 014   ----------------------------------------
 BYTE   W96
// 015   ----------------------------------------
 BYTE   W96
// 016   ----------------------------------------
 BYTE   W96
// 017   ----------------------------------------
 BYTE   W96
// 018   ----------------------------------------
 BYTE   W96
// 019   ----------------------------------------
 BYTE   W96
// 020   ----------------------------------------
 BYTE   W96
// 021   ----------------------------------------
 BYTE   W96
// 022   ----------------------------------------
 BYTE   W96
// 023   ----------------------------------------
 BYTE   W96
// 024   ----------------------------------------
 BYTE   W96
// 025   ----------------------------------------
 BYTE   W96
// 026   ----------------------------------------
 BYTE   W96
// 027   ----------------------------------------
 BYTE   W96
// 028   ----------------------------------------
 BYTE   W96
// 029   ----------------------------------------
 BYTE   W96
// 030   ----------------------------------------
 BYTE   W96
// 031   ----------------------------------------
 BYTE   W96
// 032   ----------------------------------------
 BYTE   W96
// 033   ----------------------------------------
 BYTE   W96
// 034   ----------------------------------------
 BYTE   W96
// 035   ----------------------------------------
 BYTE   W96
// 036   ----------------------------------------
 BYTE   W96
// 037   ----------------------------------------
 BYTE   W96
// 038   ----------------------------------------
 BYTE   W96
// 039   ----------------------------------------
 BYTE   W60
 BYTE   N12  As2  v100
 BYTE   N12  Fs3
 BYTE   N12  As3
 BYTE   W12
 BYTE   Cn3
 BYTE   N12  Gs3
 BYTE   N12  Cn4
 BYTE   W12
 BYTE   Cs3
 BYTE   N12  As3
 BYTE   N12  Cs4
 BYTE   W12
// 040   ----------------------------------------
 BYTE   N72  Fn3
 BYTE   N72  Cs4
 BYTE   N72  Fn4
 BYTE   W72
 BYTE   N12  Ds3
 BYTE   N12  Cn4
 BYTE   N12  Ds4
 BYTE   W12
 BYTE   Cs3
 BYTE   N12  As3
 BYTE   N12  Cs4
 BYTE   W12
// 041   ----------------------------------------
 BYTE   N36  Cn3
 BYTE   N36  Gs3
 BYTE   N36  Cn4
 BYTE   W36
 BYTE   N48  Gs2
 BYTE   N48  Fn3
 BYTE   N48  Gs3
 BYTE   W60
// 042   ----------------------------------------
 BYTE   N72  As2
 BYTE   N72  Fs3
 BYTE   N72  As3
 BYTE   W72
 BYTE   N12  Cn3
 BYTE   N12  Gs3
 BYTE   N12  Cn4
 BYTE   W12
 BYTE   Cs3
 BYTE   N12  As3
 BYTE   N12  Cs4
 BYTE   W12
// 043   ----------------------------------------
 BYTE   N24  Fn3
 BYTE   N24  Cs4
 BYTE   N24  Fn4
 BYTE   W24
 BYTE   Ds3
 BYTE   N24  Cn4
 BYTE   N24  Ds4
 BYTE   W24
 BYTE   As2
 BYTE   N24  Gn3
 BYTE   N24  As3
 BYTE   W24
 BYTE   Cn3
 BYTE   N24  Gs3
 BYTE   N24  Cn4
 BYTE   W24
// 044   ----------------------------------------
 BYTE   TIE  Cs3
 BYTE   TIE  Gs3
 BYTE   TIE  Cs4
 BYTE   W96
// 045   ----------------------------------------
 BYTE   W72
 BYTE   EOT
 BYTE   Cs3  v068
 BYTE   Cs4
 BYTE   W24
// 046   ----------------------------------------
 BYTE   N12  As3
 BYTE   N12  As4
 BYTE   W12
 BYTE   N06  As3
 BYTE   N06  As4
 BYTE   W24
 BYTE   N12  As3
 BYTE   N12  As4
 BYTE   W12
 BYTE   N06  As3
 BYTE   N06  As4
 BYTE   W24
 BYTE   N12  As3
 BYTE   N12  As4
 BYTE   W12
 BYTE   N06  An3
 BYTE   N06  An4
 BYTE   W12
// 047   ----------------------------------------
 BYTE   W96
// 048   ----------------------------------------
 BYTE   W96
// 049   ----------------------------------------
 BYTE   W96
// 050   ----------------------------------------
 BYTE   W96
// 051   ----------------------------------------
 BYTE   W96
// 052   ----------------------------------------
 BYTE   W96
// 053   ----------------------------------------
 BYTE   W96
// 054   ----------------------------------------
 BYTE   W96
// 055   ----------------------------------------
 BYTE   W96
// 056   ----------------------------------------
 BYTE   W96
// 057   ----------------------------------------
 BYTE   W96
// 058   ----------------------------------------
 BYTE   W96
// 059   ----------------------------------------
 BYTE   W96
// 060   ----------------------------------------
 BYTE   W96
// 061   ----------------------------------------
 BYTE   W96
// 062   ----------------------------------------
 BYTE   W96
// 063   ----------------------------------------
 BYTE   W96
// 064   ----------------------------------------
 BYTE   W96
// 065   ----------------------------------------
 BYTE   W96
// 066   ----------------------------------------
 BYTE   W96
// 067   ----------------------------------------
 BYTE   W96
// 068   ----------------------------------------
 BYTE   W96
// 069   ----------------------------------------
 BYTE   W96
// 070   ----------------------------------------
 BYTE   W96
// 071   ----------------------------------------
 BYTE   W96
// 072   ----------------------------------------
 BYTE   W96
// 073   ----------------------------------------
 BYTE   W96
// 074   ----------------------------------------
 BYTE   W96
// 075   ----------------------------------------
 BYTE   W96
// 076   ----------------------------------------
 BYTE   W96
// 077   ----------------------------------------
 BYTE   W96
// 078   ----------------------------------------
 BYTE   W96
// 079   ----------------------------------------
 BYTE   W96
// 080   ----------------------------------------
 BYTE   W96
// 081   ----------------------------------------
 BYTE   W96
// 082   ----------------------------------------
 BYTE   W96
// 083   ----------------------------------------
 BYTE   W96
// 084   ----------------------------------------
 BYTE   W96
// 085   ----------------------------------------
 BYTE   W96
// 086   ----------------------------------------
 BYTE   W96
// 087   ----------------------------------------
 BYTE   W96
// 088   ----------------------------------------
 BYTE   W96
// 089   ----------------------------------------
 BYTE   W96
// 090   ----------------------------------------
 BYTE   W96
// 091   ----------------------------------------
 BYTE   W96
// 092   ----------------------------------------
 BYTE   W96
// 093   ----------------------------------------
 BYTE   W96
// 094   ----------------------------------------
 BYTE   GoTo
  POIN2 Label_5_015DBEE4
 BYTE   FINE

//**************** Track 7 (Midi-Chn.6) ****************//

XenobladeChroniclesYouWillKnowOurNamesRandomWizard_007:
// 000   ----------------------------------------
 BYTE   KEYSH   XenobladeChroniclesYouWillKnowOurNamesRandomWizard_key+0
 BYTE   VOICE   63
 BYTE   VOL   31*XenobladeChroniclesYouWillKnowOurNamesRandomWizard_mvl/mxv
 BYTE   PAN   c_v+0
 BYTE   W96
// 001   ----------------------------------------
 BYTE   W96
// 002   ----------------------------------------
 BYTE   W96
// 003   ----------------------------------------
 BYTE   W96
// 004   ----------------------------------------
 BYTE   W96
// 005   ----------------------------------------
 BYTE   W96
// 006   ----------------------------------------
 BYTE   W96
// 007   ----------------------------------------
 BYTE   W96
// 008   ----------------------------------------
Label_6_015DBDD0:
 BYTE   W96
// 009   ----------------------------------------
 BYTE   W96
// 010   ----------------------------------------
 BYTE   W96
// 011   ----------------------------------------
 BYTE   W96
// 012   ----------------------------------------
 BYTE   W96
// 013   ----------------------------------------
 BYTE   W96
// 014   ----------------------------------------
 BYTE   W96
// 015   ----------------------------------------
 BYTE   W96
// 016   ----------------------------------------
 BYTE   W96
// 017   ----------------------------------------
 BYTE   W96
// 018   ----------------------------------------
 BYTE   W96
// 019   ----------------------------------------
 BYTE   W96
// 020   ----------------------------------------
 BYTE   W96
// 021   ----------------------------------------
 BYTE   W96
// 022   ----------------------------------------
 BYTE   W96
// 023   ----------------------------------------
 BYTE   W96
// 024   ----------------------------------------
 BYTE   W96
// 025   ----------------------------------------
 BYTE   W96
// 026   ----------------------------------------
 BYTE   W96
// 027   ----------------------------------------
 BYTE   W96
// 028   ----------------------------------------
 BYTE   W96
// 029   ----------------------------------------
 BYTE   W96
// 030   ----------------------------------------
 BYTE   W96
// 031   ----------------------------------------
 BYTE   W96
// 032   ----------------------------------------
 BYTE   W96
// 033   ----------------------------------------
 BYTE   W96
// 034   ----------------------------------------
 BYTE   W96
// 035   ----------------------------------------
 BYTE   W96
// 036   ----------------------------------------
 BYTE   W96
// 037   ----------------------------------------
 BYTE   W96
// 038   ----------------------------------------
 BYTE   W96
// 039   ----------------------------------------
 BYTE   W60
 BYTE   N12  As2  v100
 BYTE   N12  Fs3
 BYTE   N12  As3
 BYTE   W12
 BYTE   Cn3
 BYTE   N12  Gs3
 BYTE   N12  Cn4
 BYTE   W12
 BYTE   Cs3
 BYTE   N12  As3
 BYTE   N12  Cs4
 BYTE   W12
// 040   ----------------------------------------
 BYTE   N72  Fn3
 BYTE   N72  Cs4
 BYTE   N72  Fn4
 BYTE   W72
 BYTE   N12  Ds3
 BYTE   N12  Cn4
 BYTE   N12  Ds4
 BYTE   W12
 BYTE   Cs3
 BYTE   N12  As3
 BYTE   N12  Cs4
 BYTE   W12
// 041   ----------------------------------------
 BYTE   N36  Cn3
 BYTE   N36  Gs3
 BYTE   N36  Cn4
 BYTE   W36
 BYTE   N48  Gs2
 BYTE   N48  Fn3
 BYTE   N48  Gs3
 BYTE   W60
// 042   ----------------------------------------
 BYTE   N72  As2
 BYTE   N72  Fs3
 BYTE   N72  As3
 BYTE   W72
 BYTE   N12  Cn3
 BYTE   N12  Gs3
 BYTE   N12  Cn4
 BYTE   W12
 BYTE   Cs3
 BYTE   N12  As3
 BYTE   N12  Cs4
 BYTE   W12
// 043   ----------------------------------------
 BYTE   N24  Fn3
 BYTE   N24  Cs4
 BYTE   N24  Fn4
 BYTE   W24
 BYTE   Ds3
 BYTE   N24  Cn4
 BYTE   N24  Ds4
 BYTE   W24
 BYTE   As2
 BYTE   N24  Gn3
 BYTE   N24  As3
 BYTE   W24
 BYTE   Cn3
 BYTE   N24  Gs3
 BYTE   N24  Cn4
 BYTE   W24
// 044   ----------------------------------------
 BYTE   TIE  Cs3
 BYTE   TIE  Gs3
 BYTE   TIE  Cs4
 BYTE   W96
// 045   ----------------------------------------
 BYTE   W72
 BYTE   EOT
 BYTE   Cs3  v068
 BYTE   Cs4
 BYTE   W24
// 046   ----------------------------------------
 BYTE   N12  As3
 BYTE   N12  As4
 BYTE   W12
 BYTE   N06  As3
 BYTE   N06  As4
 BYTE   W24
 BYTE   N12  As3
 BYTE   N12  As4
 BYTE   W12
 BYTE   N06  As3
 BYTE   N06  As4
 BYTE   W24
 BYTE   N12  As3
 BYTE   N12  As4
 BYTE   W12
 BYTE   N06  An3
 BYTE   N06  An4
 BYTE   W12
// 047   ----------------------------------------
 BYTE   W96
// 048   ----------------------------------------
 BYTE   W96
// 049   ----------------------------------------
 BYTE   W96
// 050   ----------------------------------------
 BYTE   W96
// 051   ----------------------------------------
 BYTE   W96
// 052   ----------------------------------------
 BYTE   W96
// 053   ----------------------------------------
 BYTE   W96
// 054   ----------------------------------------
 BYTE   W96
// 055   ----------------------------------------
 BYTE   W96
// 056   ----------------------------------------
 BYTE   W96
// 057   ----------------------------------------
 BYTE   W96
// 058   ----------------------------------------
 BYTE   W96
// 059   ----------------------------------------
 BYTE   W96
// 060   ----------------------------------------
 BYTE   W96
// 061   ----------------------------------------
 BYTE   W96
// 062   ----------------------------------------
 BYTE   W96
// 063   ----------------------------------------
 BYTE   W96
// 064   ----------------------------------------
 BYTE   W96
// 065   ----------------------------------------
 BYTE   W96
// 066   ----------------------------------------
 BYTE   W96
// 067   ----------------------------------------
 BYTE   W96
// 068   ----------------------------------------
 BYTE   W96
// 069   ----------------------------------------
 BYTE   W96
// 070   ----------------------------------------
 BYTE   W96
// 071   ----------------------------------------
 BYTE   W96
// 072   ----------------------------------------
 BYTE   W96
// 073   ----------------------------------------
 BYTE   W96
// 074   ----------------------------------------
 BYTE   W96
// 075   ----------------------------------------
 BYTE   W96
// 076   ----------------------------------------
 BYTE   W96
// 077   ----------------------------------------
 BYTE   W96
// 078   ----------------------------------------
 BYTE   W96
// 079   ----------------------------------------
 BYTE   W96
// 080   ----------------------------------------
 BYTE   W96
// 081   ----------------------------------------
 BYTE   W96
// 082   ----------------------------------------
 BYTE   W96
// 083   ----------------------------------------
 BYTE   W96
// 084   ----------------------------------------
 BYTE   W96
// 085   ----------------------------------------
 BYTE   W96
// 086   ----------------------------------------
 BYTE   W96
// 087   ----------------------------------------
 BYTE   W96
// 088   ----------------------------------------
 BYTE   W96
// 089   ----------------------------------------
 BYTE   W96
// 090   ----------------------------------------
 BYTE   W96
// 091   ----------------------------------------
 BYTE   W96
// 092   ----------------------------------------
 BYTE   W96
// 093   ----------------------------------------
 BYTE   W96
// 094   ----------------------------------------
 BYTE   GoTo
  POIN2 Label_6_015DBDD0
 BYTE   FINE

//**************** Track 8 (Midi-Chn.7) ****************//

XenobladeChroniclesYouWillKnowOurNamesRandomWizard_008:
// 000   ----------------------------------------
 BYTE   KEYSH   XenobladeChroniclesYouWillKnowOurNamesRandomWizard_key+0
 BYTE   VOICE   124
 BYTE   VOL   31*XenobladeChroniclesYouWillKnowOurNamesRandomWizard_mvl/mxv
 BYTE   PAN   c_v+0
 BYTE   N03  Fs1  v100
 BYTE   N03  An2
 BYTE   W24
 BYTE   Fs1
 BYTE   W24
 BYTE   N03
 BYTE   W24
 BYTE   N03
 BYTE   W24
// 001   ----------------------------------------
 BYTE   N03
 BYTE   W24
 BYTE   N03
 BYTE   W24
 BYTE   N03
 BYTE   W24
 BYTE   Bn0
 BYTE   N03  Cs2
 BYTE   W24
// 002   ----------------------------------------
 BYTE   Cn1
 BYTE   N03  Fs1
 BYTE   N03  An2
 BYTE   W24
 BYTE   Fs1
 BYTE   W24
 BYTE   N03
 BYTE   W24
 BYTE   N03
 BYTE   W24
// 003   ----------------------------------------
 BYTE   N03
 BYTE   N03  Bn1
 BYTE   N03  Cn2
 BYTE   W24
 BYTE   Fs1
 BYTE   W12
 BYTE   An1
 BYTE   N03  Bn1
 BYTE   W12
 BYTE   Fs1
 BYTE   W24
 BYTE   Fn1
 BYTE   N03  Fs1
 BYTE   N03  Gn1
 BYTE   W24
// 004   ----------------------------------------
 BYTE   Cn1
 BYTE   N03  Fs1
 BYTE   N03  Cs2
 BYTE   W24
 BYTE   Dn1
 BYTE   N03  Fn1
 BYTE   W12
 BYTE   Cn1
 BYTE   W12
 BYTE   Fs1
 BYTE   W24
 BYTE   Dn1
 BYTE   N03  Fn1
 BYTE   W24
// 005   ----------------------------------------
 BYTE   Cn1
 BYTE   N03  Fs1
 BYTE   W24
 BYTE   Dn1
 BYTE   N03  Fn1
 BYTE   W12
 BYTE   Cn1
 BYTE   W12
 BYTE   Fs1
 BYTE   W24
 BYTE   Dn1
 BYTE   N03  Fn1
 BYTE   N03  An2
 BYTE   W24
// 006   ----------------------------------------
 BYTE   En1
 BYTE   N03  As1
 BYTE   N03  Dn2
 BYTE   N03  An2
 BYTE   W06
 BYTE   En1
 BYTE   N03  Dn2
 BYTE   W06
 BYTE   Cn1
 BYTE   N03  Fs1
 BYTE   N03  Bn1
 BYTE   W12
 BYTE   Cn1
 BYTE   N03  Fs1
 BYTE   N03  Bn1
 BYTE   W12
 BYTE   En1
 BYTE   N03  As1
 BYTE   N03  Dn2
 BYTE   W12
 BYTE   Fs1
 BYTE   N03  Bn1
 BYTE   W12
 BYTE   Fs1
 BYTE   N03  Bn1
 BYTE   W12
 BYTE   En1
 BYTE   N03  As1
 BYTE   N03  Dn2
 BYTE   W12
 BYTE   Fs1
 BYTE   W12
// 007   ----------------------------------------
 BYTE   Dn2
 BYTE   W06
 BYTE   N03
 BYTE   W06
 BYTE   Cn2
 BYTE   W06
 BYTE   N03
 BYTE   W06
 BYTE   N03
 BYTE   W06
 BYTE   N03
 BYTE   W06
 BYTE   Bn1
 BYTE   W06
 BYTE   N03
 BYTE   W06
 BYTE   N03
 BYTE   W06
 BYTE   N03
 BYTE   W06
 BYTE   An1
 BYTE   W06
 BYTE   N03
 BYTE   W06
 BYTE   N03
 BYTE   W06
 BYTE   Gn1
 BYTE   W06
 BYTE   N03
 BYTE   W06
 BYTE   Fn1
 BYTE   W06
// 008   ----------------------------------------
Label_7_015DFC50:
 BYTE   N03  Cn1  v100
 BYTE   N03  Cs2
 BYTE   W24
 BYTE   Dn1
 BYTE   N03  Gn2
 BYTE   W24
 BYTE   Cn1
 BYTE   N03  Gn2
 BYTE   W12
 BYTE   Cn1
 BYTE   W12
 BYTE   Dn1
 BYTE   N03  Gn2
 BYTE   W24
 BYTE   PEND 
// 009   ----------------------------------------
Label_7_015DFC65:
 BYTE   N03  Cn1  v100
 BYTE   N03  Gn2
 BYTE   W24
 BYTE   Dn1
 BYTE   N03  Gn2
 BYTE   W12
 BYTE   Cn1
 BYTE   W12
 BYTE   Gn2
 BYTE   W24
 BYTE   Dn1
 BYTE   N03  Gn2
 BYTE   W24
 BYTE   PEND 
// 010   ----------------------------------------
Label_7_015DFC78:
 BYTE   N03  Cn1  v100
 BYTE   N03  Gn2
 BYTE   W24
 BYTE   Dn1
 BYTE   N03  Gn2
 BYTE   W24
 BYTE   Cn1
 BYTE   N03  Gn2
 BYTE   W12
 BYTE   Cn1
 BYTE   W12
 BYTE   Dn1
 BYTE   N03  Gn2
 BYTE   W12
 BYTE   N03
 BYTE   W12
 BYTE   PEND 
// 011   ----------------------------------------
 BYTE   Cn1
 BYTE   N03  Gn2
 BYTE   W12
 BYTE   N03
 BYTE   W12
 BYTE   Dn1
 BYTE   N03  Gn2
 BYTE   W12
 BYTE   Cn1
 BYTE   N03  Gn2
 BYTE   W24
 BYTE   N03
 BYTE   W12
 BYTE   Dn1
 BYTE   N03  Gn2
 BYTE   W12
 BYTE   N03
 BYTE   W12
// 012   ----------------------------------------
Label_7_015DFCA5:
 BYTE   N03  Cn1  v100
 BYTE   N03  Gn2
 BYTE   W24
 BYTE   Dn1
 BYTE   N03  Gn2
 BYTE   W24
 BYTE   Cn1
 BYTE   N03  Gn2
 BYTE   W12
 BYTE   Cn1
 BYTE   W12
 BYTE   Dn1
 BYTE   N03  Gn2
 BYTE   W24
 BYTE   PEND 
 BYTE   PATT
  POIN2 Label_7_015DFC65
 BYTE   PATT
  POIN2 Label_7_015DFC78
// 013   ----------------------------------------
 BYTE   N03  Cn1  v100
 BYTE   N03  Gn2
 BYTE   W12
 BYTE   Cn1
 BYTE   N03  Gn2
 BYTE   W12
 BYTE   Dn1
 BYTE   W12
 BYTE   Cn1
 BYTE   N03  An2
 BYTE   W24
 BYTE   En1
 BYTE   W06
 BYTE   N03
 BYTE   W06
 BYTE   Dn1
 BYTE   N03  En1
 BYTE   W06
 BYTE   N03
 BYTE   W06
 BYTE   N03
 BYTE   W06
 BYTE   N03
 BYTE   W06
// 014   ----------------------------------------
 BYTE   Cn1
 BYTE   N03  Fs1
 BYTE   N03  Cs2
 BYTE   W24
 BYTE   Dn1
 BYTE   N03  As1
 BYTE   W12
 BYTE   Fs1
 BYTE   W12
 BYTE   Cn1
 BYTE   N03  Fs1
 BYTE   W12
 BYTE   Cn1
 BYTE   N03  Fs1
 BYTE   W12
 BYTE   Dn1
 BYTE   N03  As1
 BYTE   W12
 BYTE   Fs1
 BYTE   W12
// 015   ----------------------------------------
 BYTE   Cn1
 BYTE   N03  Fs1
 BYTE   W12
 BYTE   Cn1
 BYTE   N03  Fs1
 BYTE   W12
 BYTE   Dn1
 BYTE   N03  As1
 BYTE   W12
 BYTE   Cn1
 BYTE   N03  Fs1
 BYTE   W12
 BYTE   N03
 BYTE   W12
 BYTE   As1
 BYTE   W12
 BYTE   Dn1
 BYTE   W12
 BYTE   Fs1
 BYTE   W12
// 016   ----------------------------------------
 BYTE   Cn1
 BYTE   N03  Fs1
 BYTE   W12
 BYTE   N03
 BYTE   W12
 BYTE   Dn1
 BYTE   N03  As1
 BYTE   W12
 BYTE   Fs1
 BYTE   W12
 BYTE   Cn1
 BYTE   N03  Fs1
 BYTE   W12
 BYTE   Cn1
 BYTE   N03  Fs1
 BYTE   W12
 BYTE   Dn1
 BYTE   N03  As1
 BYTE   W12
 BYTE   N03
 BYTE   W12
// 017   ----------------------------------------
 BYTE   Cn1
 BYTE   N03  Fs1
 BYTE   W12
 BYTE   Cn1
 BYTE   N03  As1
 BYTE   W12
 BYTE   Dn1
 BYTE   N03  Fs1
 BYTE   W12
 BYTE   Cn1
 BYTE   N03  As1
 BYTE   W12
 BYTE   Fs1
 BYTE   N03  Cs2
 BYTE   W12
 BYTE   As1
 BYTE   W12
 BYTE   Dn1
 BYTE   W12
 BYTE   Fs1
 BYTE   W12
// 018   ----------------------------------------
 BYTE   Cn1
 BYTE   N03  As1
 BYTE   W24
 BYTE   Dn1
 BYTE   N03  As1
 BYTE   W12
 BYTE   Fs1
 BYTE   W12
 BYTE   Cn1
 BYTE   N03  Fs1
 BYTE   W12
 BYTE   Cn1
 BYTE   N03  As1
 BYTE   W12
 BYTE   Dn1
 BYTE   N03  As1
 BYTE   W12
 BYTE   Fs1
 BYTE   W12
// 019   ----------------------------------------
 BYTE   Cn1
 BYTE   N03  Fs1
 BYTE   W12
 BYTE   Cn1
 BYTE   N03  Fs1
 BYTE   W12
 BYTE   Dn1
 BYTE   N03  Fs1
 BYTE   W12
 BYTE   Cn1
 BYTE   N03  As1
 BYTE   W12
 BYTE   Fs1
 BYTE   W12
 BYTE   N03
 BYTE   W12
 BYTE   Dn1
 BYTE   N03  As1
 BYTE   W12
 BYTE   N03
 BYTE   W12
// 020   ----------------------------------------
 BYTE   Cn1
 BYTE   N03  Fs1
 BYTE   W12
 BYTE   Cn1
 BYTE   N03  Fs1
 BYTE   W12
 BYTE   Dn1
 BYTE   N03  As1
 BYTE   W12
 BYTE   Fs1
 BYTE   W12
 BYTE   Cn1
 BYTE   N03  Fs1
 BYTE   W12
 BYTE   Cn1
 BYTE   N03  As1
 BYTE   W12
 BYTE   Dn1
 BYTE   N03  As1
 BYTE   W12
 BYTE   Cn1
 BYTE   N03  As1
 BYTE   W12
// 021   ----------------------------------------
 BYTE   W12
 BYTE   Cn1
 BYTE   N03  Fs1
 BYTE   W12
 BYTE   Dn1
 BYTE   N03  As1
 BYTE   W12
 BYTE   Cn1
 BYTE   N03  Fs1
 BYTE   W12
 BYTE   Dn1
 BYTE   N03  As1
 BYTE   W12
 BYTE   Cn1
 BYTE   N03  Dn1
 BYTE   N03  Fs1
 BYTE   W06
 BYTE   Dn1
 BYTE   W06
 BYTE   N03
 BYTE   N03  An2
 BYTE   W06
 BYTE   Dn1
 BYTE   W06
 BYTE   N03
 BYTE   W06
 BYTE   N03
 BYTE   W06
// 022   ----------------------------------------
 BYTE   Cn1
 BYTE   N03  Fs1
 BYTE   N03  Cs2
 BYTE   W24
 BYTE   Dn1
 BYTE   N03  As1
 BYTE   W12
 BYTE   Fs1
 BYTE   W12
 BYTE   Cn1
 BYTE   N03  Gs1
 BYTE   W12
 BYTE   Cn1
 BYTE   N03  Fs1
 BYTE   W12
 BYTE   Dn1
 BYTE   N03  As1
 BYTE   W12
 BYTE   Fs1
 BYTE   W12
// 023   ----------------------------------------
 BYTE   Cn1
 BYTE   N03  Gs1
 BYTE   W12
 BYTE   Cn1
 BYTE   N03  Fs1
 BYTE   W12
 BYTE   Dn1
 BYTE   N03  As1
 BYTE   W12
 BYTE   Cn1
 BYTE   N03  Fs1
 BYTE   W12
 BYTE   Gs1
 BYTE   W12
 BYTE   Fs1
 BYTE   W12
 BYTE   Dn1
 BYTE   N03  As1
 BYTE   W12
 BYTE   Gs1
 BYTE   W12
// 024   ----------------------------------------
 BYTE   Cn1
 BYTE   N03  As1
 BYTE   W12
 BYTE   Fs1
 BYTE   W12
 BYTE   Dn1
 BYTE   N03  As1
 BYTE   W12
 BYTE   Gs1
 BYTE   W12
 BYTE   Cn1
 BYTE   N03  Fs1
 BYTE   W12
 BYTE   Cn1
 BYTE   N03  Fs1
 BYTE   W12
 BYTE   Dn1
 BYTE   N03  Fs1
 BYTE   W12
 BYTE   As1
 BYTE   W12
// 025   ----------------------------------------
 BYTE   Cn1
 BYTE   W12
 BYTE   N03
 BYTE   N03  Gs1
 BYTE   W12
 BYTE   Dn1
 BYTE   N03  Fs1
 BYTE   W12
 BYTE   Cn1
 BYTE   N03  As1
 BYTE   W24
 BYTE   N03
 BYTE   W12
 BYTE   Dn1
 BYTE   N03  Gs1
 BYTE   N03  An2
 BYTE   W12
 BYTE   Fs1
 BYTE   W12
// 026   ----------------------------------------
 BYTE   Cn1
 BYTE   N03  Gs1
 BYTE   N03  Cs2
 BYTE   W12
 BYTE   As1
 BYTE   W12
 BYTE   Dn1
 BYTE   N03  As1
 BYTE   W12
 BYTE   Fs1
 BYTE   W12
 BYTE   Cn1
 BYTE   N03  Fs1
 BYTE   W12
 BYTE   Cn1
 BYTE   N03  As1
 BYTE   W12
 BYTE   Dn1
 BYTE   N03  As1
 BYTE   W12
 BYTE   Gs1
 BYTE   W12
// 027   ----------------------------------------
 BYTE   Cn1
 BYTE   N03  Fs1
 BYTE   W12
 BYTE   Cn1
 BYTE   N03  Fs1
 BYTE   W12
 BYTE   Dn1
 BYTE   N03  As1
 BYTE   W12
 BYTE   Cn1
 BYTE   N03  Fs1
 BYTE   W12
 BYTE   N03
 BYTE   W12
 BYTE   N03
 BYTE   W12
 BYTE   Dn1
 BYTE   N03  As1
 BYTE   W12
 BYTE   Cn1
 BYTE   N03  Fs1
 BYTE   N03  Cs2
 BYTE   W12
// 028   ----------------------------------------
 BYTE   W12
 BYTE   Cn1
 BYTE   N03  Fs1
 BYTE   W12
 BYTE   Dn1
 BYTE   N03  As1
 BYTE   W12
 BYTE   Gs1
 BYTE   W12
 BYTE   Cn1
 BYTE   N03  Fs1
 BYTE   W12
 BYTE   Cn1
 BYTE   N03  As1
 BYTE   W12
 BYTE   Dn1
 BYTE   N03  As1
 BYTE   W12
 BYTE   Cn1
 BYTE   N03  Gs1
 BYTE   N03  An2
 BYTE   W12
// 029   ----------------------------------------
 BYTE   As1
 BYTE   W12
 BYTE   En1
 BYTE   W06
 BYTE   N03
 BYTE   W06
 BYTE   N03
 BYTE   W06
 BYTE   N03
 BYTE   W06
 BYTE   N03
 BYTE   W12
 BYTE   Cn1
 BYTE   W12
 BYTE   N03
 BYTE   W12
 BYTE   Dn1
 BYTE   W12
 BYTE   Cn1
 BYTE   W12
// 030   ----------------------------------------
Label_7_015DFE8C:
 BYTE   N03  Cn1  v100
 BYTE   N03  Gn2
 BYTE   W24
 BYTE   N03
 BYTE   W24
 BYTE   Dn1
 BYTE   N03  Gn2
 BYTE   W12
 BYTE   Cn1
 BYTE   W12
 BYTE   Gn2
 BYTE   W24
 BYTE   PEND 
// 031   ----------------------------------------
Label_7_015DFE9D:
 BYTE   N03  Cn1  v100
 BYTE   N03  Gn2
 BYTE   W24
 BYTE   N03
 BYTE   W12
 BYTE   Cn1
 BYTE   W12
 BYTE   Dn1
 BYTE   N03  Gn2
 BYTE   W12
 BYTE   Cn1
 BYTE   W12
 BYTE   Gn2
 BYTE   W24
 BYTE   PEND 
 BYTE   PATT
  POIN2 Label_7_015DFE8C
// 032   ----------------------------------------
 BYTE   N03  Cn1  v100
 BYTE   N03  Gn2
 BYTE   W24
 BYTE   N03
 BYTE   W12
 BYTE   Cn1
 BYTE   W12
 BYTE   Dn1
 BYTE   N03  Gn2
 BYTE   W12
 BYTE   Cn1
 BYTE   W12
 BYTE   N03
 BYTE   N03  Gn2
 BYTE   W24
 BYTE   PATT
  POIN2 Label_7_015DFE8C
 BYTE   PATT
  POIN2 Label_7_015DFE9D
 BYTE   PATT
  POIN2 Label_7_015DFE8C
// 033   ----------------------------------------
 BYTE   N03  Cn1  v100
 BYTE   N03  Gn2
 BYTE   W24
 BYTE   Dn1
 BYTE   N03  Gn2
 BYTE   W12
 BYTE   Cn1
 BYTE   W12
 BYTE   Dn1
 BYTE   W12
 BYTE   N03
 BYTE   W06
 BYTE   N03
 BYTE   W06
 BYTE   N03
 BYTE   N03  Dn2
 BYTE   W06
 BYTE   En1
 BYTE   N03  Cn2
 BYTE   W06
 BYTE   En1
 BYTE   N03  Bn1
 BYTE   W06
 BYTE   En1
 BYTE   N03  An1
 BYTE   W06
 BYTE   PATT
  POIN2 Label_7_015DFC50
 BYTE   PATT
  POIN2 Label_7_015DFC65
 BYTE   PATT
  POIN2 Label_7_015DFC50
 BYTE   PATT
  POIN2 Label_7_015DFC65
 BYTE   PATT
  POIN2 Label_7_015DFC50
// 034   ----------------------------------------
 BYTE   N03  En1  v100
 BYTE   N03  Cs2
 BYTE   W12
 BYTE   Cn1
 BYTE   W12
 BYTE   En1
 BYTE   N03  An2
 BYTE   W12
 BYTE   Cn1
 BYTE   W12
 BYTE   En1
 BYTE   N03  An2
 BYTE   W12
 BYTE   Cn1
 BYTE   W12
 BYTE   En1
 BYTE   N03  An2
 BYTE   W12
 BYTE   Cn1
 BYTE   W12
// 035   ----------------------------------------
 BYTE   Dn1
 BYTE   N03  En1
 BYTE   N03  An2
 BYTE   W12
 BYTE   Cn1
 BYTE   W06
 BYTE   N03
 BYTE   W06
 BYTE   N03
 BYTE   W12
 BYTE   Dn1
 BYTE   N03  En1
 BYTE   W12
 BYTE   Cn1
 BYTE   W06
 BYTE   N03
 BYTE   W06
 BYTE   N03
 BYTE   W12
 BYTE   Dn1
 BYTE   N03  En1
 BYTE   W12
 BYTE   Cn1
 BYTE   W06
 BYTE   N03
 BYTE   W06
// 036   ----------------------------------------
 BYTE   N03
 BYTE   W84
 BYTE   N03
 BYTE   N03  Cs2
 BYTE   W12
// 037   ----------------------------------------
Label_7_015DFF51:
 BYTE   W24
 BYTE   N03  Dn1  v100
 BYTE   N03  Gn2
 BYTE   W24
 BYTE   Cn1
 BYTE   N03  Gn2
 BYTE   W12
 BYTE   Cn1
 BYTE   W12
 BYTE   Dn1
 BYTE   N03  Gn2
 BYTE   W12
 BYTE   Cn1
 BYTE   W12
 BYTE   PEND 
// 038   ----------------------------------------
Label_7_015DFF65:
 BYTE   N03  Gn2  v100
 BYTE   W12
 BYTE   Cn1
 BYTE   W12
 BYTE   Dn1
 BYTE   N03  Gn2
 BYTE   W24
 BYTE   Cn1
 BYTE   N03  Gn2
 BYTE   W12
 BYTE   Cn1
 BYTE   W12
 BYTE   Dn1
 BYTE   N03  Gn2
 BYTE   W24
 BYTE   PEND 
// 039   ----------------------------------------
Label_7_015DFF7A:
 BYTE   N03  Cn1  v100
 BYTE   N03  Gn2
 BYTE   W24
 BYTE   Dn1
 BYTE   N03  Gn2
 BYTE   W24
 BYTE   Cn1
 BYTE   N03  Gn2
 BYTE   W12
 BYTE   Cn1
 BYTE   W12
 BYTE   Dn1
 BYTE   N03  Gn2
 BYTE   W12
 BYTE   Cn1
 BYTE   W12
 BYTE   PEND 
 BYTE   PATT
  POIN2 Label_7_015DFF65
 BYTE   PATT
  POIN2 Label_7_015DFCA5
// 040   ----------------------------------------
 BYTE   N03  Cn1  v100
 BYTE   N03  Gn2
 BYTE   W24
 BYTE   Dn1
 BYTE   N03  Gn2
 BYTE   W12
 BYTE   Cn1
 BYTE   W12
 BYTE   Gn2
 BYTE   W12
 BYTE   Cn1
 BYTE   W12
 BYTE   Dn1
 BYTE   N03  Gn2
 BYTE   W12
 BYTE   Cn1
 BYTE   N03  Cs2
 BYTE   W12
// 041   ----------------------------------------
 BYTE   W12
 BYTE   Gn1
 BYTE   W12
 BYTE   N03
 BYTE   W12
 BYTE   Cn1
 BYTE   N03  Gn1
 BYTE   N03  An2
 BYTE   W48
 BYTE   N03
 BYTE   W12
// 042   ----------------------------------------
 BYTE   W12
 BYTE   En1
 BYTE   W06
 BYTE   N03
 BYTE   W06
 BYTE   N03
 BYTE   W06
 BYTE   N03
 BYTE   W06
 BYTE   N03
 BYTE   W12
 BYTE   Cn1
 BYTE   N03  As1
 BYTE   W12
 BYTE   Fs1
 BYTE   W12
 BYTE   Cn1
 BYTE   N03  Fs1
 BYTE   W12
 BYTE   Cn1
 BYTE   N03  Cs2
 BYTE   W12
 BYTE   PATT
  POIN2 Label_7_015DFF51
// 043   ----------------------------------------
 BYTE   N03  Gn2  v100
 BYTE   W12
 BYTE   Cn1
 BYTE   W12
 BYTE   Dn1
 BYTE   N03  Gn2
 BYTE   W24
 BYTE   Cn1
 BYTE   W12
 BYTE   N03
 BYTE   W12
 BYTE   Dn1
 BYTE   N03  Gn2
 BYTE   W24
 BYTE   PATT
  POIN2 Label_7_015DFF7A
 BYTE   PATT
  POIN2 Label_7_015DFF65
// 044   ----------------------------------------
 BYTE   N03  Cn1  v100
 BYTE   N03  Cs2
 BYTE   W24
 BYTE   Dn1
 BYTE   N03  Gn2
 BYTE   W12
 BYTE   Cn1
 BYTE   W12
 BYTE   An2
 BYTE   W12
 BYTE   Cn1
 BYTE   W12
 BYTE   Dn1
 BYTE   N03  Gn2
 BYTE   W12
 BYTE   Cn1
 BYTE   W12
// 045   ----------------------------------------
 BYTE   N03
 BYTE   N03  Cs2
 BYTE   W24
 BYTE   Dn1
 BYTE   N03  Gn2
 BYTE   W12
 BYTE   Cn1
 BYTE   W12
 BYTE   N03
 BYTE   N03  An2
 BYTE   W12
 BYTE   Cn1
 BYTE   W12
 BYTE   Dn1
 BYTE   W12
 BYTE   Cn1
 BYTE   W12
// 046   ----------------------------------------
 BYTE   Dn1
 BYTE   N03  Gn1
 BYTE   N03  An2
 BYTE   W12
 BYTE   Dn1
 BYTE   N03  Gn1
 BYTE   W24
 BYTE   Dn1
 BYTE   N03  Gn1
 BYTE   W12
 BYTE   Dn1
 BYTE   N03  Gn1
 BYTE   W24
 BYTE   Dn1
 BYTE   N03  Gn1
 BYTE   W12
 BYTE   Dn1
 BYTE   N03  Gn1
 BYTE   W12
// 047   ----------------------------------------
Label_7_015E003E:
 BYTE   W12
 BYTE   N03  Dn1  v100
 BYTE   N03  Gn1
 BYTE   W12
 BYTE   Dn1
 BYTE   N03  Gn1
 BYTE   W24
 BYTE   Dn1
 BYTE   N03  Gn1
 BYTE   W48
 BYTE   PEND 
// 048   ----------------------------------------
Label_7_015E004E:
 BYTE   N03  Dn1  v100
 BYTE   N03  Gn1
 BYTE   W12
 BYTE   Dn1
 BYTE   N03  Gn1
 BYTE   W24
 BYTE   Dn1
 BYTE   N03  Gn1
 BYTE   W12
 BYTE   Dn1
 BYTE   N03  Gn1
 BYTE   W24
 BYTE   Dn1
 BYTE   N03  Gn1
 BYTE   W12
 BYTE   Dn1
 BYTE   N03  Gn1
 BYTE   W12
 BYTE   PEND 
 BYTE   PATT
  POIN2 Label_7_015E003E
// 049   ----------------------------------------
 BYTE   N03  Ds2  v100
 BYTE   W24
 BYTE   Fs1
 BYTE   W24
 BYTE   N03
 BYTE   W24
 BYTE   N03
 BYTE   W24
// 050   ----------------------------------------
 BYTE   N03
 BYTE   W24
 BYTE   N03
 BYTE   W24
 BYTE   N03
 BYTE   W24
 BYTE   N03
 BYTE   W06
 BYTE   N03
 BYTE   W06
 BYTE   As1
 BYTE   W12
// 051   ----------------------------------------
 BYTE   Fs1
 BYTE   W24
 BYTE   N03
 BYTE   W24
 BYTE   N03
 BYTE   W24
 BYTE   N03
 BYTE   W24
// 052   ----------------------------------------
 BYTE   N03
 BYTE   W12
 BYTE   Cn2
 BYTE   W06
 BYTE   N03
 BYTE   W06
 BYTE   Fs1
 BYTE   N03  Bn1
 BYTE   W24
 BYTE   Fs1
 BYTE   W12
 BYTE   Bn1
 BYTE   W06
 BYTE   N03
 BYTE   W06
 BYTE   Fs1
 BYTE   N03  An1
 BYTE   W12
 BYTE   Gn1
 BYTE   W12
// 053   ----------------------------------------
Label_7_015E00A2:
 BYTE   N03  Dn1  v100
 BYTE   N03  En1
 BYTE   N03  Fn1
 BYTE   N03  An2
 BYTE   W48
 BYTE   Dn1
 BYTE   N03  En1
 BYTE   N03  Fn1
 BYTE   N03  Cs2
 BYTE   W48
 BYTE   PEND 
 BYTE   PATT
  POIN2 Label_7_015E00A2
// 054   ----------------------------------------
 BYTE   N03  Dn1  v100
 BYTE   N03  Gn1
 BYTE   N03  Cs2
 BYTE   W12
 BYTE   Dn1
 BYTE   N03  Gn1
 BYTE   W12
 BYTE   Dn1
 BYTE   N03  Gn1
 BYTE   W12
 BYTE   Dn1
 BYTE   N03  Gn1
 BYTE   W12
 BYTE   Dn1
 BYTE   N03  Gn1
 BYTE   W12
 BYTE   Dn1
 BYTE   N03  Gn1
 BYTE   W12
 BYTE   Dn1
 BYTE   N03  Gn1
 BYTE   W12
 BYTE   Dn1
 BYTE   N03  Gn1
 BYTE   W12
// 055   ----------------------------------------
 BYTE   W60
 BYTE   Cn1
 BYTE   W12
 BYTE   Dn1
 BYTE   W12
 BYTE   Cn1
 BYTE   W12
// 056   ----------------------------------------
 BYTE   N03
 BYTE   N03  An2
 BYTE   W24
 BYTE   Dn1
 BYTE   N03  Cs2
 BYTE   W24
 BYTE   Cn1
 BYTE   W12
 BYTE   N03
 BYTE   W12
 BYTE   Dn1
 BYTE   N03  Cs2
 BYTE   W12
 BYTE   Cn1
 BYTE   W12
// 057   ----------------------------------------
 BYTE   W12
 BYTE   N03
 BYTE   W12
 BYTE   Dn1
 BYTE   N03  Cs2
 BYTE   W12
 BYTE   Cn1
 BYTE   W12
 BYTE   N03
 BYTE   W12
 BYTE   N03
 BYTE   W12
 BYTE   Dn1
 BYTE   N03  Cs2
 BYTE   W12
 BYTE   An2
 BYTE   W12
// 058   ----------------------------------------
 BYTE   Cn1
 BYTE   W24
 BYTE   Dn1
 BYTE   N03  Cs2
 BYTE   W12
 BYTE   Cn1
 BYTE   W12
 BYTE   N03
 BYTE   W06
 BYTE   N03
 BYTE   W06
 BYTE   N03
 BYTE   W12
 BYTE   Dn1
 BYTE   N03  Cs2
 BYTE   W12
 BYTE   Cn1
 BYTE   N03  An2
 BYTE   W12
// 059   ----------------------------------------
 BYTE   W12
 BYTE   Cn1
 BYTE   W12
 BYTE   Dn1
 BYTE   N03  Cs2
 BYTE   W12
 BYTE   Cn1
 BYTE   N03  An2
 BYTE   W24
 BYTE   En1
 BYTE   N03  Cs2
 BYTE   W06
 BYTE   En1
 BYTE   W06
 BYTE   N03
 BYTE   W12
 BYTE   Cn1
 BYTE   W12
// 060   ----------------------------------------
 BYTE   N03
 BYTE   N03  Dn1
 BYTE   N03  En1
 BYTE   N03  An2
 BYTE   W06
 BYTE   Cn1
 BYTE   W06
 BYTE   N03
 BYTE   N03  As1
 BYTE   W06
 BYTE   Cn1
 BYTE   W06
 BYTE   N03
 BYTE   N03  Dn1
 BYTE   N03  En1
 BYTE   N03  Gn2
 BYTE   W06
 BYTE   Cn1
 BYTE   W06
 BYTE   N03
 BYTE   N03  As1
 BYTE   W06
 BYTE   Cn1
 BYTE   W06
 BYTE   N03
 BYTE   N03  Dn1
 BYTE   N03  En1
 BYTE   N03  Gn2
 BYTE   W06
 BYTE   Cn1
 BYTE   W06
 BYTE   N03
 BYTE   N03  As1
 BYTE   W06
 BYTE   Cn1
 BYTE   W06
 BYTE   N03
 BYTE   N03  Dn1
 BYTE   N03  En1
 BYTE   N03  Gn2
 BYTE   W06
 BYTE   Cn1
 BYTE   W06
 BYTE   N03
 BYTE   N03  As1
 BYTE   W06
 BYTE   Cn1
 BYTE   W06
// 061   ----------------------------------------
Label_7_015E0175:
 BYTE   N03  Cn1  v100
 BYTE   N03  Dn1
 BYTE   N03  En1
 BYTE   N03  Gn2
 BYTE   W06
 BYTE   Cn1
 BYTE   W06
 BYTE   N03
 BYTE   N03  As1
 BYTE   W06
 BYTE   Cn1
 BYTE   W06
 BYTE   N03
 BYTE   N03  Dn1
 BYTE   N03  En1
 BYTE   N03  Gn2
 BYTE   W06
 BYTE   Cn1
 BYTE   W06
 BYTE   N03
 BYTE   N03  As1
 BYTE   W06
 BYTE   Cn1
 BYTE   W06
 BYTE   N03
 BYTE   N03  Dn1
 BYTE   N03  En1
 BYTE   N03  Gn2
 BYTE   W06
 BYTE   Cn1
 BYTE   W06
 BYTE   N03
 BYTE   N03  As1
 BYTE   W06
 BYTE   Cn1
 BYTE   W06
 BYTE   N03
 BYTE   N03  Dn1
 BYTE   N03  En1
 BYTE   N03  Gn2
 BYTE   W06
 BYTE   Cn1
 BYTE   W06
 BYTE   N03
 BYTE   N03  As1
 BYTE   W06
 BYTE   Cn1
 BYTE   W06
 BYTE   PEND 
 BYTE   PATT
  POIN2 Label_7_015E0175
// 062   ----------------------------------------
 BYTE   N03  Cn1  v100
 BYTE   N03  En1
 BYTE   N03  An2
 BYTE   W12
 BYTE   Cn1
 BYTE   N03  En1
 BYTE   W12
 BYTE   Cn1
 BYTE   N03  En1
 BYTE   W06
 BYTE   N03
 BYTE   W06
 BYTE   Cn1
 BYTE   N03  Dn1
 BYTE   N03  En1
 BYTE   N03  An1
 BYTE   W12
 BYTE   Cn1
 BYTE   N03  An1
 BYTE   W12
 BYTE   Cn1
 BYTE   N03  An1
 BYTE   W12
 BYTE   Cn1
 BYTE   N03  Gn1
 BYTE   N03  As1
 BYTE   W12
 BYTE   Cn1
 BYTE   N03  Fn1
 BYTE   N03  Gn1
 BYTE   N03  Gn2
 BYTE   W12
 BYTE   PATT
  POIN2 Label_7_015E004E
// 063   ----------------------------------------
 BYTE   W12
 BYTE   N03  Dn1  v100
 BYTE   N03  Gn1
 BYTE   N03  An2
 BYTE   W12
 BYTE   Dn1
 BYTE   N03  Gn1
 BYTE   N03  An2
 BYTE   W24
 BYTE   Dn1
 BYTE   N03  Gn1
 BYTE   W48
 BYTE   PATT
  POIN2 Label_7_015E004E
// 064   ----------------------------------------
 BYTE   W12
 BYTE   N03  Dn1  v100
 BYTE   N03  Gn1
 BYTE   N03  As1
 BYTE   W12
 BYTE   Dn1
 BYTE   N03  Gn1
 BYTE   N03  As1
 BYTE   W24
 BYTE   Dn1
 BYTE   N03  Gn1
 BYTE   N03  Gn2
 BYTE   W48
// 065   ----------------------------------------
Label_7_015E021F:
 BYTE   N03  An2  v100
 BYTE   W24
 BYTE   Fs1
 BYTE   W24
 BYTE   N03
 BYTE   W24
 BYTE   N03
 BYTE   W24
 BYTE   PEND 
// 066   ----------------------------------------
 BYTE   N03
 BYTE   W24
 BYTE   N03
 BYTE   W24
 BYTE   N03
 BYTE   W24
 BYTE   Cs2
 BYTE   W24
 BYTE   PATT
  POIN2 Label_7_015E021F
// 067   ----------------------------------------
 BYTE   N03  Cn1  v100
 BYTE   N03  Fs1
 BYTE   N03  An1
 BYTE   N03  Bn1
 BYTE   W24
 BYTE   Fs1
 BYTE   W12
 BYTE   Gn1
 BYTE   N03  An1
 BYTE   W12
 BYTE   Fs1
 BYTE   W24
 BYTE   Fn1
 BYTE   N03  Fs1
 BYTE   N03  Gn1
 BYTE   W24
// 068   ----------------------------------------
 BYTE   Cn1
 BYTE   N03  Cs2
 BYTE   W24
 BYTE   Dn1
 BYTE   N03  Gn1
 BYTE   W12
 BYTE   Cn1
 BYTE   W12
 BYTE   Fs1
 BYTE   W24
 BYTE   Dn1
 BYTE   N03  Gn1
 BYTE   W24
// 069   ----------------------------------------
 BYTE   Cn1
 BYTE   N03  Fs1
 BYTE   W24
 BYTE   Dn1
 BYTE   N03  Gn1
 BYTE   W12
 BYTE   Cn1
 BYTE   W12
 BYTE   Fs1
 BYTE   W24
 BYTE   Cn1
 BYTE   N03  Fs1
 BYTE   N03  Gn1
 BYTE   N03  Cs2
 BYTE   W24
// 070   ----------------------------------------
 BYTE   En1
 BYTE   N03  Fs1
 BYTE   N03  An2
 BYTE   W06
 BYTE   En1
 BYTE   W18
 BYTE   Cn1
 BYTE   N03  Fs1
 BYTE   W12
 BYTE   En1
 BYTE   N03  As1
 BYTE   W24
 BYTE   Cn1
 BYTE   N03  Fs1
 BYTE   W12
 BYTE   En1
 BYTE   N03  As1
 BYTE   W24
// 071   ----------------------------------------
 BYTE   En1
 BYTE   N03  Dn2
 BYTE   W06
 BYTE   En1
 BYTE   N03  Dn2
 BYTE   W06
 BYTE   En1
 BYTE   N03  Dn2
 BYTE   W06
 BYTE   En1
 BYTE   N03  Dn2
 BYTE   W06
 BYTE   N03
 BYTE   W06
 BYTE   Cn2
 BYTE   W06
 BYTE   N03
 BYTE   W06
 BYTE   N03
 BYTE   W06
 BYTE   N03
 BYTE   W06
 BYTE   Bn1
 BYTE   W06
 BYTE   N03
 BYTE   W06
 BYTE   An1
 BYTE   W06
 BYTE   Fs1
 BYTE   N03  An1
 BYTE   W06
 BYTE   Gn1
 BYTE   W06
 BYTE   N03
 BYTE   N03  As1
 BYTE   W06
 BYTE   Fn1
 BYTE   W06
// 072   ----------------------------------------
 BYTE   GoTo
  POIN2 Label_7_015DFC50
 BYTE   FINE

//******************************************************//
	ALIGN 4

XenobladeChroniclesYouWillKnowOurNamesRandomWizard:
	BYTE	8	// NumTrks
	BYTE	0	// NumBlks
	BYTE	XenobladeChroniclesYouWillKnowOurNamesRandomWizard_pri	// Priority
	BYTE	XenobladeChroniclesYouWillKnowOurNamesRandomWizard_rev	// Reverb.
    
	POIN2	XenobladeChroniclesYouWillKnowOurNamesRandomWizard_grp
    
	POIN2	XenobladeChroniclesYouWillKnowOurNamesRandomWizard_001
	POIN2	XenobladeChroniclesYouWillKnowOurNamesRandomWizard_002
	POIN2	XenobladeChroniclesYouWillKnowOurNamesRandomWizard_003
	POIN2	XenobladeChroniclesYouWillKnowOurNamesRandomWizard_004
	POIN2	XenobladeChroniclesYouWillKnowOurNamesRandomWizard_005
	POIN2	XenobladeChroniclesYouWillKnowOurNamesRandomWizard_006
	POIN2	XenobladeChroniclesYouWillKnowOurNamesRandomWizard_007
	POIN2	XenobladeChroniclesYouWillKnowOurNamesRandomWizard_008

	
