//Event file generated from Sappy .s format.
	#include "MPlayDef.event"

	#define	XenobladeAnObstacleInOurPathMonopolyRubixmidibyMiffe_grp  voicegroup000
	#define	XenobladeAnObstacleInOurPathMonopolyRubixmidibyMiffe_pri  0
	#define	XenobladeAnObstacleInOurPathMonopolyRubixmidibyMiffe_rev  0
	#define	XenobladeAnObstacleInOurPathMonopolyRubixmidibyMiffe_mvl  127
	#define	XenobladeAnObstacleInOurPathMonopolyRubixmidibyMiffe_key  0
	#define	XenobladeAnObstacleInOurPathMonopolyRubixmidibyMiffe_tbs  1
	#define	XenobladeAnObstacleInOurPathMonopolyRubixmidibyMiffe_exg  0
	#define	XenobladeAnObstacleInOurPathMonopolyRubixmidibyMiffe_cmp  1

	// .rodata
	//	XenobladeAnObstacleInOurPathMonopolyRubixmidibyMiffe
	ALIGN 4


//**************** Track 1 (Midi-Chn.0) ****************//

XenobladeAnObstacleInOurPathMonopolyRubixmidibyMiffe_001:
// 000   ----------------------------------------
 BYTE   KEYSH   XenobladeAnObstacleInOurPathMonopolyRubixmidibyMiffe_key+0
 BYTE   TEMPO   114*XenobladeAnObstacleInOurPathMonopolyRubixmidibyMiffe_tbs/2
 BYTE   VOICE   127
 BYTE   VOL   70*XenobladeAnObstacleInOurPathMonopolyRubixmidibyMiffe_mvl/mxv
 BYTE   PAN   c_v+0
 BYTE   VOL   70*XenobladeAnObstacleInOurPathMonopolyRubixmidibyMiffe_mvl/mxv
 BYTE   PAN   c_v+0
 BYTE   VOL   70*XenobladeAnObstacleInOurPathMonopolyRubixmidibyMiffe_mvl/mxv
 BYTE   PAN   c_v+0
 BYTE   VOL   70*XenobladeAnObstacleInOurPathMonopolyRubixmidibyMiffe_mvl/mxv
 BYTE   PAN   c_v+0
 BYTE   N11  Dn1  v080
 BYTE   N11  An2  v120
 BYTE   W12
 BYTE   N05  Fs1  v080
 BYTE   W06
 BYTE   Dn1
 BYTE   N05  Fs1
 BYTE   W06
 BYTE   N11  Cn1
 BYTE   N11  Fs1
 BYTE   W12
 BYTE   N05
 BYTE   W06
 BYTE   Dn1
 BYTE   N05  Fs1
 BYTE   W06
 BYTE   N11  Dn1
 BYTE   N05  Fs1
 BYTE   W06
 BYTE   N05
 BYTE   W06
 BYTE   N11  Dn1
 BYTE   N11  Fs1
 BYTE   W12
 BYTE   Cn1
 BYTE   N11  Fs1
 BYTE   W06
 BYTE   N05  Dn1
 BYTE   W06
 BYTE   N11  Fs1
 BYTE   W06
 BYTE   N05  Cn1
 BYTE   W06
// 001   ----------------------------------------
Label_0_0140849D:
 BYTE   N11  Dn1  v080
 BYTE   N11  Fs1
 BYTE   W12
 BYTE   N05
 BYTE   W06
 BYTE   Dn1
 BYTE   N05  Fs1
 BYTE   W06
 BYTE   N11  Cn1
 BYTE   N11  Fs1
 BYTE   W12
 BYTE   N05
 BYTE   W06
 BYTE   Dn1
 BYTE   N05  Fs1
 BYTE   W06
 BYTE   N11  Dn1
 BYTE   N05  Fs1
 BYTE   W06
 BYTE   N05
 BYTE   W06
 BYTE   N11  Dn1
 BYTE   N05  Fs1
 BYTE   W06
 BYTE   N05
 BYTE   W06
 BYTE   N11  Cn1
 BYTE   N11  Fs1
 BYTE   W06
 BYTE   N05  Dn1
 BYTE   W06
 BYTE   N11  Fs1
 BYTE   W06
 BYTE   N05  Cn1
 BYTE   W06
// 002   ----------------------------------------
Label_0_014084D0:
 BYTE   N11  Dn1  v080
 BYTE   N11  An2  v120
 BYTE   W12
 BYTE   N05  Fs1  v080
 BYTE   W06
 BYTE   Dn1
 BYTE   N05  Fs1
 BYTE   W06
 BYTE   N11  Cn1
 BYTE   N11  Fs1
 BYTE   W12
 BYTE   N05
 BYTE   W06
 BYTE   Dn1
 BYTE   N05  Fs1
 BYTE   W06
 BYTE   N11  Dn1
 BYTE   N05  Fs1
 BYTE   W06
 BYTE   N05
 BYTE   W06
 BYTE   N11  Dn1
 BYTE   N11  Fs1
 BYTE   W12
 BYTE   Cn1
 BYTE   N11  Fs1
 BYTE   W06
 BYTE   N05  Dn1
 BYTE   W06
 BYTE   N11  Fs1
 BYTE   W06
 BYTE   N05  Cn1
 BYTE   W06
 BYTE   PEND 
// 003   ----------------------------------------
 BYTE   N11  Dn1
 BYTE   N11  Fs1
 BYTE   W12
 BYTE   N05  Dn1
 BYTE   N05  Fs1
 BYTE   W06
 BYTE   Dn1
 BYTE   N05  Fs1
 BYTE   W06
 BYTE   N11  Cn1
 BYTE   N11  Fs1
 BYTE   W06
 BYTE   N05  Dn1
 BYTE   W06
 BYTE   N11
 BYTE   N11  As1
 BYTE   W12
 BYTE   Cn1
 BYTE   N11  Dn1
 BYTE   N11  As1
 BYTE   W12
 BYTE   N05  Cn1
 BYTE   N11  Dn1
 BYTE   W06
 BYTE   N05  Cn1
 BYTE   W06
 BYTE   N02
 BYTE   W03
 BYTE   N02
 BYTE   W03
 BYTE   N05
 BYTE   W06
 BYTE   Dn2  v096
 BYTE   W06
 BYTE   Cn2
 BYTE   W06
// 004   ----------------------------------------
Label_0_01408537:
 BYTE   N11  Dn1  v080
 BYTE   N23  An2  v120
 BYTE   W18
 BYTE   N05  Dn1  v080
 BYTE   W06
 BYTE   N23  Cn1
 BYTE   N23  As1
 BYTE   W12
 BYTE   N11  Dn1
 BYTE   W12
 BYTE   N11
 BYTE   N23  As1
 BYTE   W12
 BYTE   N11  Dn1
 BYTE   W12
 BYTE   N23  Cn1
 BYTE   N23  As1
 BYTE   W06
 BYTE   N05  Dn1
 BYTE   W06
 BYTE   N05
 BYTE   W12
 BYTE   PEND 
// 005   ----------------------------------------
 BYTE   N11
 BYTE   N23  As1
 BYTE   W18
 BYTE   N05  Dn1
 BYTE   W06
 BYTE   N23  Cn1
 BYTE   N23  As1
 BYTE   W12
 BYTE   N11  Dn1
 BYTE   W12
 BYTE   N11
 BYTE   N23  As1
 BYTE   W12
 BYTE   N11  Dn1
 BYTE   W12
 BYTE   N23  Cn1
 BYTE   N23  As1
 BYTE   W06
 BYTE   N05  Dn1
 BYTE   W06
 BYTE   N05
 BYTE   W12
// 006   ----------------------------------------
Label_0_0140857C:
 BYTE   N11  Dn1  v080
 BYTE   N23  An2
 BYTE   W18
 BYTE   N05  Dn1
 BYTE   W06
 BYTE   N23  Cn1
 BYTE   N23  As1
 BYTE   W12
 BYTE   N11  Dn1
 BYTE   W12
 BYTE   N11
 BYTE   N23  As1
 BYTE   W12
 BYTE   N11  Dn1
 BYTE   W12
 BYTE   N23  Cn1
 BYTE   N23  As1
 BYTE   W06
 BYTE   N05  Dn1
 BYTE   W06
 BYTE   N05
 BYTE   W12
 BYTE   PEND 
// 007   ----------------------------------------
 BYTE   N11
 BYTE   N23  As1
 BYTE   W18
 BYTE   N05  Dn1
 BYTE   W06
 BYTE   N23  Cn1
 BYTE   N23  As1
 BYTE   W12
 BYTE   N11  Dn1
 BYTE   W12
 BYTE   Cn1
 BYTE   N11  Dn1
 BYTE   N11  As1
 BYTE   W12
 BYTE   Cn1
 BYTE   N11  Dn1
 BYTE   N11  As1
 BYTE   W12
 BYTE   N05  Cn1
 BYTE   N23  Dn1
 BYTE   W06
 BYTE   N05  Cn1
 BYTE   W06
 BYTE   N05
 BYTE   W06
 BYTE   N05
 BYTE   W06
// 008   ----------------------------------------
 BYTE   PATT
  POIN2 Label_0_01408537
// 009   ----------------------------------------
 BYTE   N11  Dn1  v080
 BYTE   N23  En2
 BYTE   W18
 BYTE   N05  Dn1
 BYTE   W06
 BYTE   N23  Cn1
 BYTE   N23  As1
 BYTE   W12
 BYTE   N11  Dn1
 BYTE   W12
 BYTE   N11
 BYTE   N23  As1
 BYTE   W12
 BYTE   N11  Dn1
 BYTE   W12
 BYTE   N23  Cn1
 BYTE   N23  As1
 BYTE   W06
 BYTE   N05  Dn1
 BYTE   W06
 BYTE   N05
 BYTE   W12
// 010   ----------------------------------------
 BYTE   PATT
  POIN2 Label_0_0140857C
// 011   ----------------------------------------
 BYTE   N11  Dn1  v080
 BYTE   N23  As1
 BYTE   W18
 BYTE   N05  Dn1
 BYTE   W06
 BYTE   N23  Cn1
 BYTE   N23  As1
 BYTE   W12
 BYTE   N11  Dn1
 BYTE   W12
 BYTE   N05  Cn1
 BYTE   N23  Dn1
 BYTE   W06
 BYTE   N02  Cn1
 BYTE   W03
 BYTE   N02
 BYTE   W03
 BYTE   N05
 BYTE   W06
 BYTE   N05
 BYTE   W06
 BYTE   N23  Dn1
 BYTE   N05  Cn2  v096
 BYTE   W06
 BYTE   N05
 BYTE   W06
 BYTE   Bn1
 BYTE   W06
 BYTE   An1
 BYTE   W06
// 012   ----------------------------------------
Label_0_0140861D:
 BYTE   N11  Dn1  v080
 BYTE   N23  An2  v120
 BYTE   W18
 BYTE   N05  Dn1  v080
 BYTE   W06
 BYTE   N23  Cn1
 BYTE   N23  As1
 BYTE   W12
 BYTE   N05  Dn1
 BYTE   W06
 BYTE   N11
 BYTE   W06
 BYTE   N23  As1
 BYTE   W12
 BYTE   N05  Dn1
 BYTE   W06
 BYTE   N05
 BYTE   W06
 BYTE   N11  Cn1
 BYTE   N23  As1
 BYTE   W06
 BYTE   N05  Dn1
 BYTE   W12
 BYTE   Cn1
 BYTE   W06
 BYTE   PEND 
// 013   ----------------------------------------
 BYTE   PATT
  POIN2 Label_0_0140861D
// 014   ----------------------------------------
 BYTE   N11  Dn1  v080
 BYTE   N23  An2  v120
 BYTE   W12
 BYTE   N05  Dn1  v080
 BYTE   W06
 BYTE   N05
 BYTE   W06
 BYTE   N23  Cn1
 BYTE   N23  As1
 BYTE   W12
 BYTE   N05  Dn1
 BYTE   W06
 BYTE   N05
 BYTE   W06
 BYTE   N23  As1
 BYTE   W06
 BYTE   N05  Cn1
 BYTE   W06
 BYTE   Dn1
 BYTE   W12
 BYTE   N11  Cn1
 BYTE   N23  As1
 BYTE   W12
 BYTE   N05  Cn1
 BYTE   W06
 BYTE   N05
 BYTE   W06
// 015   ----------------------------------------
 BYTE   N11  Dn1
 BYTE   N23  En2
 BYTE   W18
 BYTE   N05  Dn1
 BYTE   W06
 BYTE   N23  Cn1
 BYTE   N23  As1
 BYTE   W12
 BYTE   N05  Dn1
 BYTE   W06
 BYTE   N11
 BYTE   W06
 BYTE   N05  Cn1
 BYTE   N11  As1
 BYTE   W09
 BYTE   N02  Cn1
 BYTE   W03
 BYTE   N02
 BYTE   W03
 BYTE   N02
 BYTE   W03
 BYTE   N05
 BYTE   W06
 BYTE   Cn2  v096
 BYTE   W06
 BYTE   N05
 BYTE   W06
 BYTE   Bn1
 BYTE   W06
 BYTE   An1
 BYTE   W06
// 016   ----------------------------------------
 BYTE   N11  Dn1  v080
 BYTE   N11  An2  v120
 BYTE   W12
 BYTE   N05  Dn1  v080
 BYTE   N11  Gn2
 BYTE   W06
 BYTE   N05  Dn1
 BYTE   W06
 BYTE   N23  Cn1
 BYTE   N11  Gn2
 BYTE   W12
 BYTE   N05  Dn1
 BYTE   N11  Gn2
 BYTE   W06
 BYTE   N05  Dn1
 BYTE   W06
 BYTE   N11  Gn2
 BYTE   W06
 BYTE   N05  Cn1
 BYTE   W06
 BYTE   Dn1
 BYTE   N11  Gn2
 BYTE   W12
 BYTE   Cn1
 BYTE   N11  Gn2
 BYTE   W12
 BYTE   Dn1
 BYTE   N11  Gn2
 BYTE   W12
// 017   ----------------------------------------
 BYTE   Dn1
 BYTE   N11  En2
 BYTE   W12
 BYTE   N05  Dn1
 BYTE   N11  Gn2
 BYTE   W06
 BYTE   N05  Dn1
 BYTE   W06
 BYTE   N11  Cn1
 BYTE   N11  Gn2
 BYTE   W12
 BYTE   N05  Dn1
 BYTE   N11  Gn2
 BYTE   W06
 BYTE   N05  Cn1
 BYTE   W06
 BYTE   N11  Gn2
 BYTE   W06
 BYTE   N05  Cn1
 BYTE   W06
 BYTE   Dn1
 BYTE   N11  Gn2
 BYTE   W12
 BYTE   Cn1
 BYTE   N11  Gn2
 BYTE   W12
 BYTE   Dn1
 BYTE   N11  Gn2
 BYTE   W12
// 018   ----------------------------------------
 BYTE   Dn1
 BYTE   N11  An2  v120
 BYTE   W12
 BYTE   N05  Dn1  v080
 BYTE   N11  Gn2
 BYTE   W06
 BYTE   N05  Dn1
 BYTE   W06
 BYTE   N23  Cn1
 BYTE   N11  An2  v120
 BYTE   W12
 BYTE   N05  Dn1  v080
 BYTE   N11  Gn2
 BYTE   W06
 BYTE   N05  Dn1
 BYTE   W06
 BYTE   N11  As1
 BYTE   W06
 BYTE   N05  Cn1
 BYTE   W06
 BYTE   Dn1
 BYTE   N11  Gn2
 BYTE   W12
 BYTE   Cn1
 BYTE   N11  Gn2
 BYTE   W12
 BYTE   Dn1
 BYTE   N11  Gn2
 BYTE   W12
// 019   ----------------------------------------
 BYTE   N23  Cn1
 BYTE   N11  Dn1
 BYTE   N11  As1
 BYTE   W12
 BYTE   N05  Dn1
 BYTE   N05  Cn2  v096
 BYTE   W06
 BYTE   Dn1  v080
 BYTE   N05  Bn1  v096
 BYTE   W06
 BYTE   N11  Dn1  v080
 BYTE   N11  An2  v120
 BYTE   W12
 BYTE   N02  Cn1  v080
 BYTE   W03
 BYTE   N02
 BYTE   W03
 BYTE   N02
 BYTE   W03
 BYTE   N02
 BYTE   W03
 BYTE   N05
 BYTE   N11  Dn1
 BYTE   W06
 BYTE   N05  Cn1
 BYTE   W06
 BYTE   N11  Cn2  v096
 BYTE   W06
 BYTE   N05  Cn1  v080
 BYTE   N11  Dn1
 BYTE   W06
 BYTE   N05  Cn1
 BYTE   W06
 BYTE   Cn2  v096
 BYTE   W06
 BYTE   N11  Dn1  v080
 BYTE   N05  Bn1  v096
 BYTE   W06
 BYTE   Cn1  v080
 BYTE   W06
// 020   ----------------------------------------
 BYTE   N11  Dn1
 BYTE   N23  An2  v096
 BYTE   W12
 BYTE   N05  Dn1  v080
 BYTE   W06
 BYTE   N05
 BYTE   W06
 BYTE   N11  Cn1
 BYTE   N11  An2  v096
 BYTE   W12
 BYTE   N05  Dn1  v080
 BYTE   W06
 BYTE   Cn1
 BYTE   N05  An2  v096
 BYTE   W12
 BYTE   Cn1  v080
 BYTE   N05  An2  v096
 BYTE   W06
 BYTE   Dn1  v080
 BYTE   W12
 BYTE   N11  Cn1
 BYTE   N11  An2  v096
 BYTE   W12
 BYTE   Cn1  v080
 BYTE   N11  An2  v096
 BYTE   W12
// 021   ----------------------------------------
 BYTE   Dn1  v080
 BYTE   N23  An2  v096
 BYTE   W12
 BYTE   N05  Dn1  v080
 BYTE   W06
 BYTE   N05
 BYTE   W06
 BYTE   N11  Cn1
 BYTE   N23  An2  v096
 BYTE   W12
 BYTE   N05  Dn1  v080
 BYTE   W06
 BYTE   Cn1
 BYTE   W30
 BYTE   N11  En2
 BYTE   W12
 BYTE   N11
 BYTE   W12
// 022   ----------------------------------------
 BYTE   Dn1
 BYTE   N11  An2  v120
 BYTE   W12
 BYTE   N05  Dn1  v080
 BYTE   N11  As1
 BYTE   W06
 BYTE   N05  Dn1
 BYTE   W06
 BYTE   N23  Cn1
 BYTE   N11  As1
 BYTE   W12
 BYTE   N05  Dn1
 BYTE   N11  As1
 BYTE   W06
 BYTE   N05  Dn1
 BYTE   W06
 BYTE   N11  As1
 BYTE   W06
 BYTE   N05  Cn1
 BYTE   W06
 BYTE   Dn1
 BYTE   N11  As1
 BYTE   W12
 BYTE   Cn1
 BYTE   N11  As1
 BYTE   W12
 BYTE   Dn1
 BYTE   N11  As1
 BYTE   W12
// 023   ----------------------------------------
Label_0_014087E4:
 BYTE   N11  Dn1  v080
 BYTE   N11  An2
 BYTE   W12
 BYTE   N05  Dn1
 BYTE   N11  As1
 BYTE   W06
 BYTE   N05  Dn1
 BYTE   W06
 BYTE   N11  Cn1
 BYTE   N11  As1
 BYTE   W12
 BYTE   N05  Dn1
 BYTE   N11  As1
 BYTE   W06
 BYTE   N05  Cn1
 BYTE   W06
 BYTE   N11  As1
 BYTE   W06
 BYTE   N05  Cn1
 BYTE   W06
 BYTE   Dn1
 BYTE   N11  As1
 BYTE   W12
 BYTE   Cn1
 BYTE   N11  As1
 BYTE   W12
 BYTE   N05  Cn1
 BYTE   N11  Dn1
 BYTE   N11  As1
 BYTE   W06
 BYTE   N05  Cn1
 BYTE   W06
 BYTE   PEND 
// 024   ----------------------------------------
 BYTE   PATT
  POIN2 Label_0_014087E4
// 025   ----------------------------------------
 BYTE   N11  Dn1  v080
 BYTE   N11  An2
 BYTE   W12
 BYTE   N05  Dn1
 BYTE   N11  As1
 BYTE   W06
 BYTE   N05  Dn1
 BYTE   W06
 BYTE   N11  Cn1
 BYTE   N11  En2
 BYTE   W12
 BYTE   N05  Dn1
 BYTE   N11  As1
 BYTE   W06
 BYTE   N05  Cn1
 BYTE   W06
 BYTE   N11  As1
 BYTE   W06
 BYTE   N05  Cn1
 BYTE   W06
 BYTE   Dn1
 BYTE   N11  As1
 BYTE   W12
 BYTE   Cn1
 BYTE   N11  As1
 BYTE   W12
 BYTE   N05  Cn1
 BYTE   N11  Dn1
 BYTE   N11  As1
 BYTE   W06
 BYTE   N05  Cn1
 BYTE   W06
// 026   ----------------------------------------
Label_0_01408850:
 BYTE   N05  Dn1  v080
 BYTE   N11  An2
 BYTE   W06
 BYTE   N05  Dn1
 BYTE   W06
 BYTE   N11  Gn2
 BYTE   W06
 BYTE   N05  Dn1
 BYTE   W06
 BYTE   N11  Cn1
 BYTE   N11  En2
 BYTE   W12
 BYTE   N05  Dn1
 BYTE   N11  Gn2
 BYTE   W06
 BYTE   N05  Dn1
 BYTE   W06
 BYTE   N11  En2
 BYTE   W06
 BYTE   N05  Dn1
 BYTE   W06
 BYTE   N05
 BYTE   N11  Gn2
 BYTE   W12
 BYTE   Cn1
 BYTE   N11  En2
 BYTE   W06
 BYTE   N05  Dn1
 BYTE   W06
 BYTE   N11  Gn2
 BYTE   W06
 BYTE   N05  Cn1
 BYTE   W06
 BYTE   PEND 
// 027   ----------------------------------------
 BYTE   PATT
  POIN2 Label_0_01408850
// 028   ----------------------------------------
 BYTE   N11  Dn1  v080
 BYTE   N11  An2
 BYTE   W12
 BYTE   N05  Dn1
 BYTE   N11  As1
 BYTE   W06
 BYTE   N05  Dn1
 BYTE   W06
 BYTE   N11  Cn1
 BYTE   N11  As1
 BYTE   W12
 BYTE   N05  Dn1
 BYTE   N11  As1
 BYTE   W06
 BYTE   N05  Cn1
 BYTE   W06
 BYTE   N11  As1
 BYTE   W06
 BYTE   N05  Cn1
 BYTE   W06
 BYTE   Dn1
 BYTE   N11  As1
 BYTE   W12
 BYTE   Cn1
 BYTE   N11  As1
 BYTE   W12
 BYTE   Dn1
 BYTE   N11  As1
 BYTE   W12
// 029   ----------------------------------------
 BYTE   N03  Cn1
 BYTE   W04
 BYTE   N03
 BYTE   W04
 BYTE   N03
 BYTE   W04
 BYTE   N03
 BYTE   W04
 BYTE   Dn2  v096
 BYTE   W04
 BYTE   Cn2
 BYTE   W04
 BYTE   Cn1  v080
 BYTE   W04
 BYTE   N03
 BYTE   W04
 BYTE   N03
 BYTE   W04
 BYTE   N03
 BYTE   W04
 BYTE   Dn2  v096
 BYTE   W04
 BYTE   Cn2
 BYTE   W04
 BYTE   Cn1  v080
 BYTE   W04
 BYTE   N03
 BYTE   W04
 BYTE   Cn2  v096
 BYTE   W04
 BYTE   Cn1  v080
 BYTE   W04
 BYTE   N03
 BYTE   W04
 BYTE   Cn2  v096
 BYTE   W04
 BYTE   Cn1  v080
 BYTE   W04
 BYTE   N03
 BYTE   W04
 BYTE   Cn2  v096
 BYTE   W04
 BYTE   N02  Cn1  v080
 BYTE   W03
 BYTE   N02
 BYTE   W03
 BYTE   Cn2  v096
 BYTE   W03
 BYTE   Bn1
 BYTE   W03
// 030   ----------------------------------------
 BYTE   N05  Dn1  v080
 BYTE   N11  An2  v120
 BYTE   W06
 BYTE   N05  Dn1  v080
 BYTE   W06
 BYTE   N11  Gn2
 BYTE   W06
 BYTE   N05  Dn1
 BYTE   W06
 BYTE   N11  Cn1
 BYTE   N11  En2
 BYTE   W12
 BYTE   N05  Dn1
 BYTE   N11  Gn2
 BYTE   W06
 BYTE   N05  Dn1
 BYTE   W06
 BYTE   N11  En2
 BYTE   W06
 BYTE   N05  Dn1
 BYTE   W06
 BYTE   N05
 BYTE   N11  Gn2
 BYTE   W12
 BYTE   Cn1
 BYTE   N11  En2
 BYTE   W06
 BYTE   N05  Dn1
 BYTE   W06
 BYTE   N11  Gn2
 BYTE   W06
 BYTE   N05  Cn1
 BYTE   W06
// 031   ----------------------------------------
 BYTE   Dn1
 BYTE   N11  An2
 BYTE   W06
 BYTE   N05  Dn1
 BYTE   W06
 BYTE   N11  Gn2
 BYTE   W06
 BYTE   N05  Dn1
 BYTE   W06
 BYTE   N11  Cn1
 BYTE   N11  En2
 BYTE   W12
 BYTE   N05  Dn1
 BYTE   N11  Gn2
 BYTE   W06
 BYTE   N05  Cn1
 BYTE   N05  Dn1
 BYTE   W06
 BYTE   N11  En2
 BYTE   W06
 BYTE   N05  Cn1
 BYTE   N05  Dn1
 BYTE   W06
 BYTE   N05
 BYTE   N11  Gn2
 BYTE   W12
 BYTE   Cn1
 BYTE   N11  En2
 BYTE   W06
 BYTE   N05  Dn1
 BYTE   W06
 BYTE   Cn1
 BYTE   N11  Gn2
 BYTE   W06
 BYTE   N05  Cn1
 BYTE   W06
// 032   ----------------------------------------
 BYTE   Dn1
 BYTE   N11  An2
 BYTE   W06
 BYTE   N05  Dn1
 BYTE   W06
 BYTE   N11  As1
 BYTE   W06
 BYTE   N05  Dn1
 BYTE   W06
 BYTE   N11  Cn1
 BYTE   N11  En2
 BYTE   W12
 BYTE   N05  Dn1
 BYTE   N11  As1
 BYTE   W06
 BYTE   N05  Dn1
 BYTE   W06
 BYTE   N11  En2
 BYTE   W06
 BYTE   N05  Dn1
 BYTE   W06
 BYTE   N05
 BYTE   N11  As1
 BYTE   W12
 BYTE   Cn1
 BYTE   N11  En2
 BYTE   W06
 BYTE   N05  Dn1
 BYTE   W06
 BYTE   N11  As1
 BYTE   W06
 BYTE   N05  Cn1
 BYTE   W06
// 033   ----------------------------------------
 BYTE   Dn1
 BYTE   N11  An2
 BYTE   W06
 BYTE   N05  Dn1
 BYTE   W06
 BYTE   N11  Cn1
 BYTE   N11  As1
 BYTE   W06
 BYTE   N05  Dn1
 BYTE   W06
 BYTE   N11  Cn1
 BYTE   N11  As1
 BYTE   W06
 BYTE   N05  Dn1
 BYTE   W06
 BYTE   N11  As1
 BYTE   W06
 BYTE   N05  Cn1
 BYTE   W06
 BYTE   N11  Dn1
 BYTE   N11  As1
 BYTE   W12
 BYTE   Dn1
 BYTE   N11  As1
 BYTE   W12
 BYTE   N03  Cn1
 BYTE   N11  Dn1
 BYTE   W04
 BYTE   N03  Cn1
 BYTE   W04
 BYTE   N03
 BYTE   W04
 BYTE   N03
 BYTE   W04
 BYTE   N03
 BYTE   W04
 BYTE   N03
 BYTE   W04
// 034   ----------------------------------------
 BYTE   N11  Dn1
 BYTE   N23  An2  v096
 BYTE   W18
 BYTE   N05  Dn1  v080
 BYTE   W06
 BYTE   N23  Cn1
 BYTE   N11  Dn1
 BYTE   N23  An2  v096
 BYTE   W18
 BYTE   N05  Dn1  v080
 BYTE   W06
 BYTE   N11
 BYTE   N23  An2  v096
 BYTE   W12
 BYTE   N11  Dn1  v080
 BYTE   W12
 BYTE   N23  Cn1
 BYTE   N23  An2  v096
 BYTE   W12
 BYTE   N11  Dn1  v080
 BYTE   W12
// 035   ----------------------------------------
 BYTE   N11
 BYTE   N23  An2  v096
 BYTE   W18
 BYTE   N05  Dn1  v080
 BYTE   W06
 BYTE   N23  Cn1
 BYTE   N11  Dn1
 BYTE   N23  An2  v096
 BYTE   W18
 BYTE   N05  Dn1  v080
 BYTE   W06
 BYTE   N11
 BYTE   N23  An2  v096
 BYTE   W06
 BYTE   N05  Cn1  v080
 BYTE   W06
 BYTE   N11  Dn1
 BYTE   W12
 BYTE   Cn1
 BYTE   N23  An2  v096
 BYTE   W12
 BYTE   N05  Cn1  v080
 BYTE   N11  Dn1
 BYTE   W06
 BYTE   N05  Cn1
 BYTE   W06
// 036   ----------------------------------------
 BYTE   Dn1
 BYTE   N11  An2  v096
 BYTE   W06
 BYTE   N05  Cn1  v080
 BYTE   W06
 BYTE   N11  As1
 BYTE   W12
 BYTE   N05  Cn1
 BYTE   N05  Dn1
 BYTE   N11  As1
 BYTE   W12
 BYTE   Cn1
 BYTE   N05  Dn1
 BYTE   N11  As1
 BYTE   W12
 BYTE   N05  Dn1
 BYTE   N11  As1
 BYTE   W06
 BYTE   N05  Cn1
 BYTE   W06
 BYTE   N11  As1
 BYTE   W12
 BYTE   N05  Cn1
 BYTE   N05  Dn1
 BYTE   N11  As1
 BYTE   W12
 BYTE   Cn1
 BYTE   N05  Dn1
 BYTE   N11  As1
 BYTE   W12
// 037   ----------------------------------------
 BYTE   N03  Cn1
 BYTE   N11  Dn1
 BYTE   W04
 BYTE   N03  Cn1
 BYTE   W04
 BYTE   N03
 BYTE   W04
 BYTE   N11  Dn1
 BYTE   N03  Dn2  v096
 BYTE   W04
 BYTE   N03
 BYTE   W04
 BYTE   N03
 BYTE   W04
 BYTE   N11  Dn1  v080
 BYTE   N03  Cn2  v096
 BYTE   W04
 BYTE   N03
 BYTE   W04
 BYTE   N03
 BYTE   W04
 BYTE   N11  Dn1  v080
 BYTE   N03  Bn1  v096
 BYTE   W04
 BYTE   N03
 BYTE   W04
 BYTE   N03
 BYTE   W04
 BYTE   N11  Dn1  v080
 BYTE   N03  An1  v096
 BYTE   W04
 BYTE   N03
 BYTE   W04
 BYTE   N03
 BYTE   W04
 BYTE   N11  Dn1  v080
 BYTE   N03  An1  v096
 BYTE   W04
 BYTE   N03
 BYTE   W04
 BYTE   N03
 BYTE   W04
 BYTE   N05  Cn1  v080
 BYTE   N11  Dn1
 BYTE   N23  An2
 BYTE   W06
 BYTE   N05  Fn1  v096
 BYTE   W06
 BYTE   N11  Dn1  v080
 BYTE   N05  Fn1  v096
 BYTE   W06
 BYTE   Cn1  v080
 BYTE   W06
// 038   ----------------------------------------
 BYTE   Dn1
 BYTE   N11  An2  v120
 BYTE   W06
 BYTE   N05  Dn1  v080
 BYTE   W06
 BYTE   N11  Gn2
 BYTE   W06
 BYTE   N05  Dn1
 BYTE   W06
 BYTE   N11  Cn1
 BYTE   N11  Gn2
 BYTE   W12
 BYTE   N05  Dn1
 BYTE   N11  Gn2
 BYTE   W06
 BYTE   N05  Cn1
 BYTE   N05  Dn1
 BYTE   W06
 BYTE   N11  Gn2
 BYTE   W06
 BYTE   N05  Cn1
 BYTE   N05  Dn1
 BYTE   W06
 BYTE   N05
 BYTE   N11  Gn2
 BYTE   W12
 BYTE   Cn1
 BYTE   N11  Gn2
 BYTE   W06
 BYTE   N05  Dn1
 BYTE   W06
 BYTE   N11  Gn2
 BYTE   W12
// 039   ----------------------------------------
 BYTE   N05  Dn1
 BYTE   N11  Fs1
 BYTE   W06
 BYTE   N05  Dn1
 BYTE   W06
 BYTE   N11  Gn2
 BYTE   W06
 BYTE   N05  Dn1
 BYTE   W06
 BYTE   N11  Cn1
 BYTE   N11  Gn2
 BYTE   W12
 BYTE   N05  Dn1
 BYTE   N11  Gn2
 BYTE   W06
 BYTE   N05  Cn1
 BYTE   N05  Dn1
 BYTE   W06
 BYTE   Dn2  v096
 BYTE   W06
 BYTE   Dn1  v080
 BYTE   N05  Cn2  v096
 BYTE   W06
 BYTE   Dn1  v080
 BYTE   N05  Bn1  v096
 BYTE   W12
 BYTE   N11  Cn1  v080
 BYTE   W06
 BYTE   N05  Dn1
 BYTE   W12
 BYTE   Cn1
 BYTE   W06
// 040   ----------------------------------------
 BYTE   Dn1
 BYTE   N11  An2  v120
 BYTE   W06
 BYTE   N05  Dn1  v080
 BYTE   W06
 BYTE   N11  Fs1
 BYTE   W06
 BYTE   N05  Dn1
 BYTE   W06
 BYTE   N11  Cn1
 BYTE   N11  Fs1
 BYTE   W12
 BYTE   N05  Dn1
 BYTE   N11  En2
 BYTE   W06
 BYTE   N05  Dn1
 BYTE   W06
 BYTE   N11  Fs1
 BYTE   W06
 BYTE   N05  Dn1
 BYTE   W06
 BYTE   N11  Cn1
 BYTE   N11  En2
 BYTE   W12
 BYTE   Cn1
 BYTE   N11  En2
 BYTE   W12
 BYTE   Dn1
 BYTE   N11  As1
 BYTE   W06
 BYTE   N05  Cn1
 BYTE   W06
// 041   ----------------------------------------
 BYTE   Dn1
 BYTE   N11  As1
 BYTE   W06
 BYTE   N05  Dn1
 BYTE   W06
 BYTE   N11  An2  v120
 BYTE   W06
 BYTE   N05  Dn1  v080
 BYTE   W06
 BYTE   N11  Cn1
 BYTE   N11  As1
 BYTE   W12
 BYTE   N05  Dn1
 BYTE   N11  En2
 BYTE   W06
 BYTE   N05  Dn1
 BYTE   W06
 BYTE   N11  Cn1
 BYTE   N11  Dn1
 BYTE   N11  As1
 BYTE   W12
 BYTE   Dn1
 BYTE   N11  Cn2  v096
 BYTE   N11  Dn2
 BYTE   W12
 BYTE   Dn1  v080
 BYTE   N11  An1  v096
 BYTE   N11  Bn1
 BYTE   W12
 BYTE   N05  Cn1  v080
 BYTE   N05  Dn1
 BYTE   N11  Fn1  v096
 BYTE   W06
 BYTE   N05  Cn1  v080
 BYTE   N05  Dn1
 BYTE   W06
// 042   ----------------------------------------
 BYTE   N05
 BYTE   N11  An2  v120
 BYTE   W06
 BYTE   N05  Dn1  v080
 BYTE   W06
 BYTE   N11  Gn2
 BYTE   W06
 BYTE   N05  Dn1
 BYTE   W06
 BYTE   N11  Cn1
 BYTE   N11  Gn2
 BYTE   W12
 BYTE   N05  Dn1
 BYTE   N11  En2
 BYTE   W06
 BYTE   N05  Dn1
 BYTE   W06
 BYTE   N11  Gn2
 BYTE   W06
 BYTE   N05  Cn1
 BYTE   W06
 BYTE   Dn1
 BYTE   N11  Gn2
 BYTE   W12
 BYTE   Cn1
 BYTE   N11  En2
 BYTE   W12
 BYTE   Dn1
 BYTE   N11  Gn2
 BYTE   W06
 BYTE   N05  Cn1
 BYTE   W06
// 043   ----------------------------------------
 BYTE   Dn1
 BYTE   N11  As1
 BYTE   W06
 BYTE   N05  Dn1
 BYTE   W06
 BYTE   N11  Gn2
 BYTE   W06
 BYTE   N05  Dn1
 BYTE   W06
 BYTE   N11  Cn1
 BYTE   N11  Gn2
 BYTE   W12
 BYTE   N05  Dn1
 BYTE   N11  Gn2
 BYTE   W06
 BYTE   N05  Dn1
 BYTE   W06
 BYTE   N11  Cn1
 BYTE   N11  As1
 BYTE   W06
 BYTE   N05  Dn1
 BYTE   W06
 BYTE   N11  Cn2  v096
 BYTE   N11  Dn2
 BYTE   W12
 BYTE   N03  Cn1  v080
 BYTE   W04
 BYTE   N03
 BYTE   W04
 BYTE   Dn2  v096
 BYTE   W04
 BYTE   Cn2
 BYTE   W04
 BYTE   Bn1
 BYTE   W04
 BYTE   An1
 BYTE   W04
// 044   ----------------------------------------
 BYTE   N05  Dn1  v080
 BYTE   N11  An2  v120
 BYTE   W06
 BYTE   N05  Dn1  v080
 BYTE   W06
 BYTE   N11  Gn2
 BYTE   W06
 BYTE   N05  Dn1
 BYTE   W06
 BYTE   N11  Cn1
 BYTE   N11  Gn2
 BYTE   W12
 BYTE   N05  Dn1
 BYTE   N11  En2
 BYTE   W06
 BYTE   N05  Dn1
 BYTE   W06
 BYTE   N11  Gn2
 BYTE   W06
 BYTE   N05  Cn1
 BYTE   W06
 BYTE   N11  Dn1
 BYTE   N11  Gn2
 BYTE   W12
 BYTE   Cn1
 BYTE   N11  Dn1
 BYTE   N11  En2
 BYTE   W12
 BYTE   N05  Cn1
 BYTE   N05  Dn1
 BYTE   N05  As1
 BYTE   W06
 BYTE   Cn1
 BYTE   N05  Dn1
 BYTE   N05  As1
 BYTE   W06
// 045   ----------------------------------------
 BYTE   W06
 BYTE   Cn1
 BYTE   N05  Dn1
 BYTE   N05  As1
 BYTE   W12
 BYTE   Cn1
 BYTE   N05  Dn1
 BYTE   N05  As1
 BYTE   W12
 BYTE   Dn1
 BYTE   N05  Cn2  v096
 BYTE   N05  Dn2
 BYTE   W12
 BYTE   Cn1  v080
 BYTE   N05  Dn1
 BYTE   N05  As1
 BYTE   W12
 BYTE   Dn1
 BYTE   N05  Cn2  v096
 BYTE   N05  Dn2
 BYTE   W12
 BYTE   Dn1  v080
 BYTE   N05  Bn1  v096
 BYTE   N05  Dn2
 BYTE   W12
 BYTE   Dn1  v080
 BYTE   N05  Fn1  v096
 BYTE   N05  Bn1
 BYTE   W18
// 046   ----------------------------------------
 BYTE   N11  Dn1  v080
 BYTE   N11  An2  v120
 BYTE   W12
 BYTE   Ds2  v080
 BYTE   W06
 BYTE   N05  Dn1
 BYTE   W06
 BYTE   N11  Ds2
 BYTE   W12
 BYTE   N11
 BYTE   W12
 BYTE   N11
 BYTE   W12
 BYTE   N11
 BYTE   W12
 BYTE   N11
 BYTE   W12
 BYTE   N05
 BYTE   W06
 BYTE   Fs1
 BYTE   W06
// 047   ----------------------------------------
 BYTE   N11  Dn1
 BYTE   N17  Ds2
 BYTE   W18
 BYTE   N05  Dn1
 BYTE   N05  Ds2
 BYTE   W06
 BYTE   N11
 BYTE   W12
 BYTE   N11
 BYTE   W12
 BYTE   N11
 BYTE   W12
 BYTE   N11
 BYTE   W12
 BYTE   N11
 BYTE   W12
 BYTE   N05
 BYTE   W06
 BYTE   Fs1
 BYTE   W06
// 048   ----------------------------------------
 BYTE   N23  Dn1
 BYTE   N11  En2
 BYTE   W12
 BYTE   Ds2
 BYTE   W12
 BYTE   N11
 BYTE   W12
 BYTE   N11
 BYTE   W12
 BYTE   N11
 BYTE   W12
 BYTE   N11
 BYTE   W12
 BYTE   N11
 BYTE   W12
 BYTE   N11
 BYTE   W12
// 049   ----------------------------------------
 BYTE   N23  Dn1
 BYTE   N11  Ds2
 BYTE   W12
 BYTE   N11
 BYTE   W12
 BYTE   N11
 BYTE   W12
 BYTE   N11
 BYTE   W12
 BYTE   N11
 BYTE   W12
 BYTE   N11
 BYTE   W06
 BYTE   N02  Dn1
 BYTE   W03
 BYTE   N02
 BYTE   W03
 BYTE   N11  Cn1
 BYTE   N11  As1
 BYTE   W06
 BYTE   N05  Dn1
 BYTE   W18
// 050   ----------------------------------------
 BYTE   N11  An2  v120
 BYTE   W12
 BYTE   Fs1  v080
 BYTE   W12
 BYTE   N11
 BYTE   W12
 BYTE   N11
 BYTE   W12
 BYTE   N11
 BYTE   W12
 BYTE   N11
 BYTE   W06
 BYTE   N02  Dn1
 BYTE   W03
 BYTE   N02
 BYTE   W03
 BYTE   N11  Cn1
 BYTE   N11  As1
 BYTE   W06
 BYTE   N05  Cn2  v096
 BYTE   W06
 BYTE   Bn1
 BYTE   W06
 BYTE   An1
 BYTE   W06
// 051   ----------------------------------------
 BYTE   N11  En2  v080
 BYTE   W48
 BYTE   N07  Cn1
 BYTE   N07  Dn1
 BYTE   N07  As1
 BYTE   W08
 BYTE   Dn1
 BYTE   W08
 BYTE   N07
 BYTE   W08
 BYTE   N07
 BYTE   N07  An1  v096
 BYTE   N07  Cn2
 BYTE   W08
 BYTE   Dn1  v080
 BYTE   W08
 BYTE   N07
 BYTE   W08
// 052   ----------------------------------------
 BYTE   N23  An2  v096
 BYTE   W24
 BYTE   Ds2
 BYTE   W24
 BYTE   N23
 BYTE   W24
 BYTE   N23
 BYTE   W24
// 053   ----------------------------------------
 BYTE   N05  Dn1  v080
 BYTE   N11  An1  v096
 BYTE   N11  Dn2
 BYTE   W06
 BYTE   N05  Dn1  v080
 BYTE   W06
 BYTE   N05
 BYTE   W06
 BYTE   N05
 BYTE   N05  Fn1  v096
 BYTE   N05  Bn1
 BYTE   W06
 BYTE   Dn1  v080
 BYTE   W06
 BYTE   N05
 BYTE   W06
 BYTE   N05
 BYTE   N11  An1  v096
 BYTE   N11  Dn2
 BYTE   W06
 BYTE   N05  Dn1  v080
 BYTE   W06
 BYTE   N05
 BYTE   N11  Fn1  v096
 BYTE   N11  Bn1
 BYTE   W06
 BYTE   N05  Dn1  v080
 BYTE   W06
 BYTE   N05
 BYTE   N11  Fn1  v096
 BYTE   N11  Bn1
 BYTE   W06
 BYTE   N05  Dn1  v080
 BYTE   W06
 BYTE   N11  Cn1
 BYTE   N05  Dn1
 BYTE   W06
 BYTE   N05
 BYTE   W06
 BYTE   Cn1
 BYTE   N05  Dn1
 BYTE   W06
 BYTE   Cn1
 BYTE   N05  Dn1
 BYTE   W06
// 054   ----------------------------------------
 BYTE   N11
 BYTE   N11  An2  v120
 BYTE   W12
 BYTE   N05  Dn1  v080
 BYTE   N11  As1
 BYTE   W06
 BYTE   N05  Dn1
 BYTE   W06
 BYTE   N23  Cn1
 BYTE   N11  As1
 BYTE   W12
 BYTE   N05  Dn1
 BYTE   N11  As1
 BYTE   W06
 BYTE   N05  Dn1
 BYTE   W06
 BYTE   N11  As1
 BYTE   W12
 BYTE   N05  Dn1
 BYTE   N11  As1
 BYTE   W12
 BYTE   Cn1
 BYTE   N11  As1
 BYTE   W06
 BYTE   N05  Dn1
 BYTE   W06
 BYTE   N11  As1
 BYTE   W06
 BYTE   N05  Cn1
 BYTE   W06
// 055   ----------------------------------------
 BYTE   PATT
  POIN2 Label_0_014087E4
// 056   ----------------------------------------
 BYTE   N11  Dn1  v080
 BYTE   N11  An2
 BYTE   W12
 BYTE   N05  Dn1
 BYTE   N11  As1
 BYTE   W06
 BYTE   N05  Dn1
 BYTE   W06
 BYTE   N11  Cn1
 BYTE   N11  As1
 BYTE   W12
 BYTE   N05  Dn1
 BYTE   N11  As1
 BYTE   W12
 BYTE   N11
 BYTE   W06
 BYTE   N05  Cn1
 BYTE   W06
 BYTE   Dn1
 BYTE   N11  As1
 BYTE   W12
 BYTE   Cn1
 BYTE   N11  As1
 BYTE   W12
 BYTE   N05  Cn1
 BYTE   N11  Dn1
 BYTE   N11  As1
 BYTE   W06
 BYTE   N05  Cn1
 BYTE   W06
// 057   ----------------------------------------
 BYTE   N11  Dn1
 BYTE   N11  An2
 BYTE   W12
 BYTE   N05  Dn1
 BYTE   N11  As1
 BYTE   W06
 BYTE   N05  Dn1
 BYTE   W06
 BYTE   N11  Cn1
 BYTE   N11  En2
 BYTE   W12
 BYTE   Cn1
 BYTE   N05  Dn1
 BYTE   N11  En2
 BYTE   W12
 BYTE   As1
 BYTE   W06
 BYTE   Cn1
 BYTE   W06
 BYTE   N05  Dn1
 BYTE   N11  As1
 BYTE   W12
 BYTE   N03  Cn1
 BYTE   N11  Dn1
 BYTE   N11  As1
 BYTE   W04
 BYTE   N03  Cn1
 BYTE   W04
 BYTE   N03
 BYTE   W04
 BYTE   N03
 BYTE   N11  Dn1
 BYTE   N11  As1
 BYTE   W04
 BYTE   N03  Cn1
 BYTE   W04
 BYTE   N03
 BYTE   W04
// 058   ----------------------------------------
 BYTE   N05  Dn1
 BYTE   N11  An2  v120
 BYTE   W06
 BYTE   N05  Dn1  v080
 BYTE   W12
 BYTE   N05
 BYTE   W06
 BYTE   N11  Cn1
 BYTE   N11  En2
 BYTE   W12
 BYTE   N05  Dn1
 BYTE   W06
 BYTE   N05
 BYTE   W06
 BYTE   N11  En2
 BYTE   W06
 BYTE   N05  Dn1
 BYTE   W06
 BYTE   N05
 BYTE   W12
 BYTE   N11  Cn1
 BYTE   N11  En2
 BYTE   W06
 BYTE   N05  Dn1
 BYTE   W06
 BYTE   Cn1
 BYTE   W06
 BYTE   N05
 BYTE   W06
// 059   ----------------------------------------
 BYTE   Dn1
 BYTE   N11  An2  v120
 BYTE   W06
 BYTE   N05  Dn1  v080
 BYTE   W12
 BYTE   N05
 BYTE   W06
 BYTE   N11  Cn1
 BYTE   N11  En2
 BYTE   W12
 BYTE   N05  Dn1
 BYTE   W06
 BYTE   N05
 BYTE   W06
 BYTE   N11  En2
 BYTE   W06
 BYTE   N05  Cn1
 BYTE   N05  Dn1
 BYTE   W06
 BYTE   N05
 BYTE   W12
 BYTE   N11  Cn1
 BYTE   N11  En2
 BYTE   W06
 BYTE   N05  Dn1
 BYTE   W06
 BYTE   Cn1
 BYTE   W06
 BYTE   N05
 BYTE   W06
// 060   ----------------------------------------
 BYTE   N11  Dn1
 BYTE   N11  An2  v120
 BYTE   W12
 BYTE   N05  Dn1  v080
 BYTE   N11  As1
 BYTE   W06
 BYTE   N05  Dn1
 BYTE   W06
 BYTE   N23  Cn1
 BYTE   N11  As1
 BYTE   W12
 BYTE   N05  Dn1
 BYTE   N11  As1
 BYTE   W06
 BYTE   N05  Dn1
 BYTE   W06
 BYTE   N23  Cn1
 BYTE   N11  As1
 BYTE   W12
 BYTE   N05  Dn1
 BYTE   N11  As1
 BYTE   W06
 BYTE   N05  Dn1
 BYTE   W06
 BYTE   N23  Cn1
 BYTE   N11  As1
 BYTE   W12
 BYTE   N05  Dn1
 BYTE   N11  As1
 BYTE   W06
 BYTE   N05  Dn1
 BYTE   W06
// 061   ----------------------------------------
 BYTE   N17  Cn1
 BYTE   N17  Dn1
 BYTE   N11  An2  v120
 BYTE   W18
 BYTE   N17  Cn1  v080
 BYTE   N17  Dn1
 BYTE   N11  En2
 BYTE   W18
 BYTE   Cn1
 BYTE   N11  Dn1
 BYTE   N11  En2
 BYTE   W12
 BYTE   N05  Cn1
 BYTE   N23  As1
 BYTE   W06
 BYTE   N02  Cn1
 BYTE   W03
 BYTE   N02
 BYTE   W03
 BYTE   N05
 BYTE   W06
 BYTE   N05
 BYTE   W06
 BYTE   N05
 BYTE   W06
 BYTE   N05
 BYTE   W06
 BYTE   N05
 BYTE   W06
 BYTE   N05
 BYTE   W06
// 062   ----------------------------------------
Label_0_01408E9F:
 BYTE   N05  Dn1  v080
 BYTE   N11  An2  v120
 BYTE   W06
 BYTE   N05  Dn1  v080
 BYTE   W06
 BYTE   N11  As1
 BYTE   W06
 BYTE   N05  Dn1
 BYTE   W06
 BYTE   N11  Cn1
 BYTE   N11  As1
 BYTE   W12
 BYTE   N05  Dn1
 BYTE   N11  As1
 BYTE   W06
 BYTE   N05  Dn1
 BYTE   W06
 BYTE   N11  As1
 BYTE   W06
 BYTE   N05  Cn1
 BYTE   N05  Dn1
 BYTE   W06
 BYTE   N05
 BYTE   N11  As1
 BYTE   W12
 BYTE   Cn1
 BYTE   N11  As1
 BYTE   W06
 BYTE   N05  Dn1
 BYTE   W06
 BYTE   Cn1
 BYTE   N11  As1
 BYTE   W06
 BYTE   N05  Cn1
 BYTE   W06
 BYTE   PEND 
// 063   ----------------------------------------
 BYTE   Dn1
 BYTE   N11  An2  v120
 BYTE   W06
 BYTE   N05  Dn1  v080
 BYTE   W06
 BYTE   N11  Gn2
 BYTE   W06
 BYTE   N05  Dn1
 BYTE   W06
 BYTE   N11  Cn1
 BYTE   N11  En2
 BYTE   W12
 BYTE   N05  Dn1
 BYTE   N11  Gn2
 BYTE   W06
 BYTE   N05  Cn1
 BYTE   N05  Dn1
 BYTE   W06
 BYTE   N11  En2
 BYTE   W06
 BYTE   N05  Cn1
 BYTE   N05  Dn1
 BYTE   W06
 BYTE   N05
 BYTE   N17  En2
 BYTE   W12
 BYTE   N11  Cn1
 BYTE   W06
 BYTE   N05  Dn1
 BYTE   N17  En2
 BYTE   W06
 BYTE   N05  Cn1
 BYTE   W06
 BYTE   N05
 BYTE   W06
// 064   ----------------------------------------
 BYTE   Dn1
 BYTE   N11  An2  v120
 BYTE   W06
 BYTE   N05  Dn1  v080
 BYTE   W06
 BYTE   N11  As1
 BYTE   W06
 BYTE   N05  Dn1
 BYTE   W06
 BYTE   N11  Cn1
 BYTE   N11  As1
 BYTE   W12
 BYTE   N05  Dn1
 BYTE   N11  As1
 BYTE   W06
 BYTE   N05  Cn1
 BYTE   W06
 BYTE   N11  As1
 BYTE   W06
 BYTE   N05  Cn1
 BYTE   W06
 BYTE   Dn1
 BYTE   N11  As1
 BYTE   W12
 BYTE   Cn1
 BYTE   N11  As1
 BYTE   W12
 BYTE   N05  Dn1
 BYTE   N11  As1
 BYTE   W06
 BYTE   N02  Dn1
 BYTE   W03
 BYTE   N02
 BYTE   W03
// 065   ----------------------------------------
 BYTE   N11  Cn1
 BYTE   N05  Dn1
 BYTE   N11  As1
 BYTE   W06
 BYTE   N05  Dn1
 BYTE   W06
 BYTE   N05
 BYTE   N11  Bn1  v096
 BYTE   N11  Dn2
 BYTE   W06
 BYTE   N05  Dn1  v080
 BYTE   W06
 BYTE   N11  Cn1
 BYTE   N05  Dn1
 BYTE   N11  An2  v120
 BYTE   W06
 BYTE   N05  Dn1  v080
 BYTE   W06
 BYTE   N02  Cn1
 BYTE   W03
 BYTE   N02
 BYTE   W03
 BYTE   N02
 BYTE   W03
 BYTE   N02
 BYTE   W03
 BYTE   N05
 BYTE   W06
 BYTE   N05
 BYTE   W06
 BYTE   N11  Dn1
 BYTE   W06
 BYTE   N05  As1
 BYTE   W06
 BYTE   Cn1
 BYTE   N11  Dn1
 BYTE   W06
 BYTE   N05  Cn1
 BYTE   W06
 BYTE   N11  Dn1
 BYTE   N11  As1
 BYTE   W06
 BYTE   N05  Cn1
 BYTE   W06
// 066   ----------------------------------------
 BYTE   PATT
  POIN2 Label_0_01408E9F
// 067   ----------------------------------------
 BYTE   N11  Dn1  v080
 BYTE   N11  An2  v120
 BYTE   W12
 BYTE   N05  Dn1  v080
 BYTE   N11  Gn2
 BYTE   W06
 BYTE   N05  Dn1
 BYTE   W06
 BYTE   Cn1
 BYTE   N05  En2
 BYTE   W06
 BYTE   N11  Cn1
 BYTE   N11  En2
 BYTE   W12
 BYTE   N05  Cn1
 BYTE   N05  En2
 BYTE   W06
 BYTE   Dn1
 BYTE   W06
 BYTE   Cn1
 BYTE   N05  As1
 BYTE   W06
 BYTE   Cn1
 BYTE   N05  As1
 BYTE   W06
 BYTE   Dn1
 BYTE   W06
 BYTE   Cn1
 BYTE   N05  As1
 BYTE   W06
 BYTE   N02  Cn1
 BYTE   W03
 BYTE   N02
 BYTE   W03
 BYTE   N05
 BYTE   W06
 BYTE   N05
 BYTE   W06
// 068   ----------------------------------------
 BYTE   N17  Dn1
 BYTE   N17  An2  v096
 BYTE   W06
 BYTE   N05  Cn1  v080
 BYTE   W06
 BYTE   N05
 BYTE   W06
 BYTE   N17  Dn1
 BYTE   N17  An2  v096
 BYTE   W06
 BYTE   N05  Cn1  v080
 BYTE   W06
 BYTE   N05
 BYTE   W06
 BYTE   N17  Dn1
 BYTE   N17  An2  v096
 BYTE   W06
 BYTE   N05  Cn1  v080
 BYTE   W06
 BYTE   N05
 BYTE   W06
 BYTE   N17  Dn1
 BYTE   N17  An2  v096
 BYTE   W06
 BYTE   N05  Cn1  v080
 BYTE   W06
 BYTE   N05
 BYTE   W06
 BYTE   N11  Dn1
 BYTE   N11  An2  v096
 BYTE   W06
 BYTE   N05  Cn1  v080
 BYTE   W06
 BYTE   N11  Dn1
 BYTE   N11  As1  v096
 BYTE   W06
 BYTE   N05  Cn1  v080
 BYTE   W06
// 069   ----------------------------------------
 BYTE   N11  Dn1
 BYTE   N11  An2  v096
 BYTE   W06
 BYTE   N05  Cn1  v080
 BYTE   W06
 BYTE   N11  Dn1
 BYTE   N11  An2  v096
 BYTE   W06
 BYTE   N05  Cn1  v080
 BYTE   W06
 BYTE   N11  Dn1
 BYTE   N11  An2  v096
 BYTE   W06
 BYTE   N05  Cn1  v080
 BYTE   W06
 BYTE   N11  Dn1
 BYTE   N11  An2  v096
 BYTE   W06
 BYTE   N05  Cn1  v080
 BYTE   W06
 BYTE   N11  Dn1
 BYTE   N11  As1  v096
 BYTE   W06
 BYTE   N05  Cn1  v080
 BYTE   W06
 BYTE   N11  Dn1
 BYTE   N11  An2  v096
 BYTE   W06
 BYTE   N05  Cn1  v080
 BYTE   W06
 BYTE   N11  Dn1
 BYTE   N11  An2  v096
 BYTE   W06
 BYTE   N05  Cn1  v080
 BYTE   W06
 BYTE   N11  Dn1
 BYTE   N11  An2  v096
 BYTE   W06
 BYTE   N05  Cn1  v080
 BYTE   W06
// 070   ----------------------------------------
 BYTE   N11  Dn1
 BYTE   N11  An2  v127
 BYTE   W12
 BYTE   Gn2  v080
 BYTE   W06
 BYTE   N05  Dn1
 BYTE   W06
 BYTE   N23  Cn1
 BYTE   N11  Gn2
 BYTE   W12
 BYTE   N05  Dn1
 BYTE   N11  Gn2
 BYTE   W06
 BYTE   N05  Dn1
 BYTE   W06
 BYTE   N05
 BYTE   N11  Gn2
 BYTE   W06
 BYTE   N05  Dn1
 BYTE   W06
 BYTE   N05
 BYTE   N11  Gn2
 BYTE   W06
 BYTE   N05  Dn1
 BYTE   W06
 BYTE   N11  Cn1
 BYTE   N11  Gn2
 BYTE   W12
 BYTE   N05  Dn1
 BYTE   N11  Gn2
 BYTE   W06
 BYTE   N05  Cn1
 BYTE   W06
// 071   ----------------------------------------
 BYTE   Dn1
 BYTE   N11  Gn2
 BYTE   W06
 BYTE   N05  Dn1
 BYTE   N05  Dn2  v096
 BYTE   W06
 BYTE   Dn1  v080
 BYTE   N11  Gn2
 BYTE   W06
 BYTE   N05  Dn1
 BYTE   W06
 BYTE   N11  Cn1
 BYTE   N11  Gn2
 BYTE   W12
 BYTE   N05  Dn1
 BYTE   N11  Gn2
 BYTE   W06
 BYTE   N05  Cn1
 BYTE   W06
 BYTE   Dn1
 BYTE   N05  Dn2  v096
 BYTE   W06
 BYTE   Dn1  v080
 BYTE   N05  Cn2  v096
 BYTE   W06
 BYTE   Dn1  v080
 BYTE   N05  Bn1  v096
 BYTE   W06
 BYTE   Dn1  v080
 BYTE   N05  An1  v096
 BYTE   W06
 BYTE   N23  Cn1  v080
 BYTE   W12
 BYTE   N05  Dn1
 BYTE   W06
 BYTE   N05
 BYTE   W06
// 072   ----------------------------------------
 BYTE   N05
 BYTE   N11  An2  v120
 BYTE   W06
 BYTE   N05  Dn1  v080
 BYTE   W06
 BYTE   N11  Gn2
 BYTE   W06
 BYTE   N05  Dn1
 BYTE   W06
 BYTE   N23  Cn1
 BYTE   N11  Gn2
 BYTE   W12
 BYTE   N05  Dn1
 BYTE   N11  Gn2
 BYTE   W06
 BYTE   N05  Dn1
 BYTE   W06
 BYTE   N05
 BYTE   N11  Dn2  v096
 BYTE   N11  En2  v080
 BYTE   W06
 BYTE   N05  Dn1
 BYTE   W06
 BYTE   N05
 BYTE   N11  Bn1  v096
 BYTE   N11  Gn2  v080
 BYTE   W06
 BYTE   N05  Dn1
 BYTE   W06
 BYTE   N11  Cn1
 BYTE   N11  Gn2
 BYTE   W12
 BYTE   N05  Dn1
 BYTE   N11  Gn2
 BYTE   W06
 BYTE   N05  Cn1
 BYTE   W06
// 073   ----------------------------------------
 BYTE   Dn1
 BYTE   N05  Dn2  v096
 BYTE   W06
 BYTE   Dn1  v080
 BYTE   N05  Cn2  v096
 BYTE   W06
 BYTE   Dn1  v080
 BYTE   N05  Bn1  v096
 BYTE   W06
 BYTE   Dn1  v080
 BYTE   N05  An1  v096
 BYTE   W06
 BYTE   N11  Cn1  v080
 BYTE   N11  Dn1
 BYTE   N11  En2
 BYTE   W12
 BYTE   N05  Cn1
 BYTE   N05  Dn1
 BYTE   N05  En2
 BYTE   W06
 BYTE   Cn1
 BYTE   N05  Dn1
 BYTE   N05  En2
 BYTE   W12
 BYTE   Cn1
 BYTE   N05  Dn1
 BYTE   N05  As1
 BYTE   W06
 BYTE   Cn1
 BYTE   N05  Dn1
 BYTE   N05  As1
 BYTE   W12
 BYTE   Dn1
 BYTE   N11  Bn1  v096
 BYTE   N11  Dn2
 BYTE   W06
 BYTE   N05  Dn1  v080
 BYTE   W06
 BYTE   N05
 BYTE   N11  An1  v096
 BYTE   N11  Bn1
 BYTE   W06
 BYTE   N05  Dn1  v080
 BYTE   W06
// 074   ----------------------------------------
 BYTE   N11
 BYTE   N11  An2  v120
 BYTE   W12
 BYTE   Gn2  v080
 BYTE   W06
 BYTE   N05  Dn1
 BYTE   W06
 BYTE   N23  Cn1
 BYTE   N11  Gn2
 BYTE   W12
 BYTE   N05  Dn1
 BYTE   N11  Gn2
 BYTE   W06
 BYTE   N05  Dn1
 BYTE   W06
 BYTE   N05
 BYTE   N11  Dn2  v096
 BYTE   N11  Gn2  v080
 BYTE   W06
 BYTE   N05  Dn1
 BYTE   W06
 BYTE   N05
 BYTE   N11  Bn1  v096
 BYTE   N11  Gn2  v080
 BYTE   W06
 BYTE   N05  Dn1
 BYTE   W06
 BYTE   N11  Cn1
 BYTE   N11  Gn2
 BYTE   W12
 BYTE   N05  Dn1
 BYTE   N11  Gn2
 BYTE   W06
 BYTE   N05  Cn1
 BYTE   W06
// 075   ----------------------------------------
 BYTE   Dn1
 BYTE   N11  Gn2
 BYTE   W06
 BYTE   N05  Dn1
 BYTE   N05  Dn2  v096
 BYTE   W06
 BYTE   Dn1  v080
 BYTE   N11  Gn2
 BYTE   W06
 BYTE   N05  Dn1
 BYTE   W06
 BYTE   N11  Cn1
 BYTE   N11  Gn2
 BYTE   W12
 BYTE   N05  Dn1
 BYTE   N11  Gn2
 BYTE   W06
 BYTE   N05  Cn1
 BYTE   W06
 BYTE   Dn1
 BYTE   N05  Dn2  v096
 BYTE   W06
 BYTE   Dn1  v080
 BYTE   N05  Cn2  v096
 BYTE   W06
 BYTE   Dn1  v080
 BYTE   N05  Bn1  v096
 BYTE   W06
 BYTE   Dn1  v080
 BYTE   N05  An1  v096
 BYTE   W06
 BYTE   N11  Cn1  v080
 BYTE   W12
 BYTE   N05  Dn1
 BYTE   N05  Bn1  v096
 BYTE   W06
 BYTE   Cn1  v080
 BYTE   W06
// 076   ----------------------------------------
 BYTE   N11  Dn1
 BYTE   N11  An2  v120
 BYTE   W12
 BYTE   Gn2  v080
 BYTE   W06
 BYTE   N05  Dn1
 BYTE   W06
 BYTE   N23  Cn1
 BYTE   N11  Gn2
 BYTE   W12
 BYTE   Dn1
 BYTE   N11  En2
 BYTE   W12
 BYTE   Gn2
 BYTE   W12
 BYTE   Dn1
 BYTE   N11  En2
 BYTE   W12
 BYTE   N23  Cn1
 BYTE   N11  Gn2
 BYTE   W12
 BYTE   Dn1
 BYTE   N11  Gn2
 BYTE   W12
// 077   ----------------------------------------
 BYTE   Cn1
 BYTE   N11  Dn1
 BYTE   N11  As1
 BYTE   W12
 BYTE   Cn1
 BYTE   N11  Dn1
 BYTE   N11  As1
 BYTE   W12
 BYTE   Bn1  v096
 BYTE   N11  Dn2
 BYTE   W12
 BYTE   Bn1
 BYTE   N11  Dn2
 BYTE   W12
 BYTE   An1
 BYTE   N11  Bn1
 BYTE   W12
 BYTE   An1
 BYTE   N11  Bn1
 BYTE   W12
 BYTE   N07  Fn1
 BYTE   N07  An1
 BYTE   W08
 BYTE   Fn1
 BYTE   N07  An1
 BYTE   W08
 BYTE   Fn1
 BYTE   N07  An1
 BYTE   W08
// 078   ----------------------------------------
 BYTE   N23  An2  v120
 BYTE   W24
 BYTE   Gn2
 BYTE   W24
 BYTE   N11  Cn1  v080
 BYTE   N11  As1
 BYTE   W12
 BYTE   Cn1
 BYTE   N11  As1
 BYTE   W12
 BYTE   N05  Bn1  v096
 BYTE   W06
 BYTE   Dn2
 BYTE   W06
 BYTE   Bn1
 BYTE   W06
 BYTE   An1
 BYTE   W05
 BYTE   TEMPO   114*XenobladeAnObstacleInOurPathMonopolyRubixmidibyMiffe_tbs/2
 BYTE   W01
// 079   ----------------------------------------
 BYTE   PATT
  POIN2 Label_0_014084D0
// 080   ----------------------------------------
 BYTE   GoTo
  POIN2 Label_0_0140849D
 BYTE   FINE

//**************** Track 2 (Midi-Chn.1) ****************//

XenobladeAnObstacleInOurPathMonopolyRubixmidibyMiffe_002:
// 000   ----------------------------------------
 BYTE   KEYSH   XenobladeAnObstacleInOurPathMonopolyRubixmidibyMiffe_key+0
 BYTE   VOICE   29
 BYTE   VOL   70*XenobladeAnObstacleInOurPathMonopolyRubixmidibyMiffe_mvl/mxv
 BYTE   PAN   c_v+0
 BYTE   VOL   70*XenobladeAnObstacleInOurPathMonopolyRubixmidibyMiffe_mvl/mxv
 BYTE   PAN   c_v+0
 BYTE   VOL   70*XenobladeAnObstacleInOurPathMonopolyRubixmidibyMiffe_mvl/mxv
 BYTE   PAN   c_v+0
 BYTE   VOL   70*XenobladeAnObstacleInOurPathMonopolyRubixmidibyMiffe_mvl/mxv
 BYTE   PAN   c_v+0
 BYTE   N11  En1  v080
 BYTE   W12
 BYTE   Gn1
 BYTE   W12
 BYTE   Fs1
 BYTE   W12
 BYTE   Fn1
 BYTE   W12
 BYTE   En1
 BYTE   W12
 BYTE   Gn1
 BYTE   W12
 BYTE   N05  Fs1
 BYTE   W06
 BYTE   Gn1
 BYTE   W06
 BYTE   N11  An1
 BYTE   W12
// 001   ----------------------------------------
Label_1_01409276:
 BYTE   N11  En1  v080
 BYTE   W12
 BYTE   Gn1
 BYTE   W12
 BYTE   Fs1
 BYTE   W12
 BYTE   Fn1
 BYTE   W12
 BYTE   N05  En1
 BYTE   W06
 BYTE   Gn1
 BYTE   W06
 BYTE   N11  An1
 BYTE   W12
 BYTE   N05  En1
 BYTE   W06
 BYTE   Gn1
 BYTE   W06
 BYTE   N11  As1
 BYTE   W12
// 002   ----------------------------------------
Label_1_01409290:
 BYTE   N11  En1  v080
 BYTE   W12
 BYTE   Gn1
 BYTE   W12
 BYTE   Fs1
 BYTE   W12
 BYTE   Fn1
 BYTE   W12
 BYTE   En1
 BYTE   W12
 BYTE   Gn1
 BYTE   W12
 BYTE   N05  Fs1
 BYTE   W06
 BYTE   Gn1
 BYTE   W06
 BYTE   N11  An1
 BYTE   W12
 BYTE   PEND 
// 003   ----------------------------------------
 BYTE   En1
 BYTE   N11  En3  v096
 BYTE   N11  En4
 BYTE   W12
 BYTE   Cn2  v080
 BYTE   N11  Cn4  v096
 BYTE   N11  Cn5
 BYTE   W12
 BYTE   Bn1  v080
 BYTE   N11  Bn3  v096
 BYTE   N11  Bn4
 BYTE   W12
 BYTE   Gn1  v080
 BYTE   N11  Gn3  v096
 BYTE   N11  Gn4
 BYTE   W12
 BYTE   As1  v080
 BYTE   N11  As3  v096
 BYTE   N11  As4
 BYTE   W12
 BYTE   Fs1  v080
 BYTE   N11  Fs3  v096
 BYTE   N11  Fs4
 BYTE   W12
 BYTE   An1  v080
 BYTE   N11  An3  v096
 BYTE   N11  An4
 BYTE   W12
 BYTE   Fn1  v080
 BYTE   N11  Fn3  v096
 BYTE   N11  Fn4
 BYTE   W12
// 004   ----------------------------------------
 BYTE   En1  v080
 BYTE   N11  En3  v096
 BYTE   N11  En4
 BYTE   W12
 BYTE   Gn1  v080
 BYTE   W12
 BYTE   Fs1
 BYTE   W12
 BYTE   Fn1
 BYTE   W12
 BYTE   En1
 BYTE   W12
 BYTE   Gn1
 BYTE   W12
 BYTE   N05  Fs1
 BYTE   W06
 BYTE   Gn1
 BYTE   W06
 BYTE   N11  An1
 BYTE   W12
// 005   ----------------------------------------
 BYTE   PATT
  POIN2 Label_1_01409290
// 006   ----------------------------------------
Label_1_01409306:
 BYTE   N11  Fn1  v080
 BYTE   W12
 BYTE   An1
 BYTE   W12
 BYTE   Gn1
 BYTE   W12
 BYTE   Fn1
 BYTE   W12
 BYTE   N11
 BYTE   W12
 BYTE   Bn1
 BYTE   W12
 BYTE   N05  Fn1
 BYTE   W06
 BYTE   An1
 BYTE   W06
 BYTE   N11  Cn2
 BYTE   W12
 BYTE   PEND 
// 007   ----------------------------------------
 BYTE   Fn1
 BYTE   N17  Fn3  v096
 BYTE   N17  Fn4
 BYTE   W12
 BYTE   N11  An1  v080
 BYTE   W06
 BYTE   N17  Fn3  v096
 BYTE   N17  Fn4
 BYTE   W06
 BYTE   N11  Gn1  v080
 BYTE   W12
 BYTE   Fn1
 BYTE   N11  Fn3  v096
 BYTE   N11  Fn4
 BYTE   W12
 BYTE   Fn1  v080
 BYTE   N17  Fn3  v096
 BYTE   N17  Fn4
 BYTE   W12
 BYTE   N11  Bn1  v080
 BYTE   W06
 BYTE   N17  Fn3  v096
 BYTE   N17  Fn4
 BYTE   W06
 BYTE   N05  Fn1  v080
 BYTE   W06
 BYTE   An1
 BYTE   W06
 BYTE   N11  Cn2
 BYTE   N11  Fn3  v096
 BYTE   N11  Fn4
 BYTE   W12
// 008   ----------------------------------------
 BYTE   En1  v080
 BYTE   N11  En3  v096
 BYTE   N11  En4
 BYTE   W12
 BYTE   Gn1  v080
 BYTE   W12
 BYTE   Fs1
 BYTE   W12
 BYTE   Fn1
 BYTE   W12
 BYTE   En1
 BYTE   W12
 BYTE   Gn1
 BYTE   W12
 BYTE   N05  Fs1
 BYTE   W06
 BYTE   Gn1
 BYTE   W06
 BYTE   N11  An1
 BYTE   W12
// 009   ----------------------------------------
 BYTE   PATT
  POIN2 Label_1_01409290
// 010   ----------------------------------------
 BYTE   PATT
  POIN2 Label_1_01409306
// 011   ----------------------------------------
 BYTE   N11  Fn1  v080
 BYTE   N17  Fn3  v096
 BYTE   N17  Fn4
 BYTE   W12
 BYTE   N11  An1  v080
 BYTE   W06
 BYTE   N17  Fn3  v096
 BYTE   N17  Fn4
 BYTE   W06
 BYTE   N11  Gn1  v080
 BYTE   W12
 BYTE   Fn1
 BYTE   N11  Fn3  v096
 BYTE   N11  Fn4
 BYTE   W12
 BYTE   Fn1  v080
 BYTE   N17  Fn3  v096
 BYTE   N17  Fn4
 BYTE   W12
 BYTE   N11  Bn1  v080
 BYTE   W06
 BYTE   N17  Fn3  v096
 BYTE   N17  Fn4
 BYTE   W06
 BYTE   N05  Fn1  v080
 BYTE   W06
 BYTE   An1
 BYTE   W06
 BYTE   N11  Cn2
 BYTE   N11  Fn3  v096
 BYTE   N11  Fn4
 BYTE   W12
// 012   ----------------------------------------
 BYTE   N92  Bn1  v080
 BYTE   W96
// 013   ----------------------------------------
 BYTE   N92
 BYTE   W96
// 014   ----------------------------------------
 BYTE   N92
 BYTE   W96
// 015   ----------------------------------------
 BYTE   N92
 BYTE   W96
// 016   ----------------------------------------
 BYTE   N92
 BYTE   W96
// 017   ----------------------------------------
 BYTE   N92
 BYTE   W96
// 018   ----------------------------------------
 BYTE   N92
 BYTE   W96
// 019   ----------------------------------------
 BYTE   N08
 BYTE   N08  Bn2  v096
 BYTE   N08  Bn3
 BYTE   W18
 BYTE   Cn2  v080
 BYTE   N08  Cn3  v096
 BYTE   N08  Cn4
 BYTE   W18
 BYTE   Dn2  v080
 BYTE   N08  Dn3  v096
 BYTE   N08  Dn4
 BYTE   W18
 BYTE   Bn1  v080
 BYTE   N08  Bn2  v096
 BYTE   N08  Bn3
 BYTE   W18
 BYTE   N05  Cn2  v080
 BYTE   N05  Cn3  v096
 BYTE   N05  Cn4
 BYTE   W12
 BYTE   Dn2  v080
 BYTE   N05  Dn3  v096
 BYTE   N05  Dn4
 BYTE   W12
// 020   ----------------------------------------
 BYTE   W96
// 021   ----------------------------------------
 BYTE   W96
// 022   ----------------------------------------
 BYTE   W96
// 023   ----------------------------------------
 BYTE   W96
// 024   ----------------------------------------
 BYTE   W96
// 025   ----------------------------------------
 BYTE   W96
// 026   ----------------------------------------
 BYTE   W96
// 027   ----------------------------------------
 BYTE   W96
// 028   ----------------------------------------
 BYTE   W96
// 029   ----------------------------------------
 BYTE   W96
// 030   ----------------------------------------
 BYTE   W96
// 031   ----------------------------------------
 BYTE   W96
// 032   ----------------------------------------
 BYTE   W96
// 033   ----------------------------------------
 BYTE   W96
// 034   ----------------------------------------
 BYTE   W96
// 035   ----------------------------------------
 BYTE   W96
// 036   ----------------------------------------
 BYTE   W96
// 037   ----------------------------------------
 BYTE   W96
// 038   ----------------------------------------
Label_1_0140940E:
 BYTE   N11  En2  v096
 BYTE   N11  En3
 BYTE   N11  En4
 BYTE   W36
 BYTE   Fn2
 BYTE   N11  Fn3
 BYTE   N11  Fn4
 BYTE   W24
 BYTE   Dn2
 BYTE   N11  Dn3
 BYTE   N11  Dn4
 BYTE   W12
 BYTE   En2
 BYTE   N11  En3
 BYTE   N11  En4
 BYTE   W24
 BYTE   PEND 
// 039   ----------------------------------------
Label_1_01409429:
 BYTE   W12
 BYTE   N11  Gn2  v096
 BYTE   N11  Gn3
 BYTE   N11  Gn4
 BYTE   W12
 BYTE   Fs2
 BYTE   N11  Fs3
 BYTE   N11  Fs4
 BYTE   W12
 BYTE   Fn2
 BYTE   N11  Fn3
 BYTE   N11  Fn4
 BYTE   W24
 BYTE   Ds2
 BYTE   N11  Ds3
 BYTE   N11  Ds4
 BYTE   W24
 BYTE   Fn2
 BYTE   N11  Fn3
 BYTE   N11  Fn4
 BYTE   W12
 BYTE   PEND 
// 040   ----------------------------------------
 BYTE   PATT
  POIN2 Label_1_0140940E
// 041   ----------------------------------------
Label_1_01409450:
 BYTE   W12
 BYTE   N11  Gn2  v096
 BYTE   N11  Gn3
 BYTE   N11  Gn4
 BYTE   W12
 BYTE   Fs2
 BYTE   N11  Fs3
 BYTE   N11  Fs4
 BYTE   W12
 BYTE   Fn2
 BYTE   N11  Fn3
 BYTE   N11  Fn4
 BYTE   W12
 BYTE   N05  An2
 BYTE   N05  An3
 BYTE   N05  An4
 BYTE   W06
 BYTE   Bn2
 BYTE   N05  Bn3
 BYTE   N05  Bn4
 BYTE   W06
 BYTE   N11  Cn3
 BYTE   N11  Cn4
 BYTE   N11  Cn5
 BYTE   W12
 BYTE   N05  An2
 BYTE   N05  An3
 BYTE   N05  An4
 BYTE   W06
 BYTE   Bn2
 BYTE   N05  Bn3
 BYTE   N05  Bn4
 BYTE   W06
 BYTE   N11  Cn3
 BYTE   N11  Cn4
 BYTE   N11  Cn5
 BYTE   W12
 BYTE   PEND 
// 042   ----------------------------------------
 BYTE   PATT
  POIN2 Label_1_0140940E
// 043   ----------------------------------------
 BYTE   PATT
  POIN2 Label_1_01409429
// 044   ----------------------------------------
 BYTE   N11  En2  v096
 BYTE   N11  En3
 BYTE   N11  En4
 BYTE   W18
 BYTE   En2
 BYTE   N11  En3
 BYTE   N11  En4
 BYTE   W18
 BYTE   Fn2
 BYTE   N11  Fn3
 BYTE   N11  Fn4
 BYTE   W24
 BYTE   Dn2
 BYTE   N11  Dn3
 BYTE   N11  Dn4
 BYTE   W12
 BYTE   En2
 BYTE   N11  En3
 BYTE   N11  En4
 BYTE   W24
// 045   ----------------------------------------
 BYTE   PATT
  POIN2 Label_1_01409450
// 046   ----------------------------------------
Label_1_014094BD:
 BYTE   N23  En1  v080
 BYTE   N23  Bn1
 BYTE   N23  En2
 BYTE   W96
 BYTE   PEND 
// 047   ----------------------------------------
 BYTE   PATT
  POIN2 Label_1_014094BD
// 048   ----------------------------------------
 BYTE   PATT
  POIN2 Label_1_014094BD
// 049   ----------------------------------------
 BYTE   N23  Ds1  v080
 BYTE   N23  As1
 BYTE   N23  Ds2
 BYTE   W96
// 050   ----------------------------------------
 BYTE   PATT
  POIN2 Label_1_014094BD
// 051   ----------------------------------------
 BYTE   PATT
  POIN2 Label_1_014094BD
// 052   ----------------------------------------
 BYTE   PATT
  POIN2 Label_1_014094BD
// 053   ----------------------------------------
 BYTE   N23  Ds1  v080
 BYTE   N23  As1
 BYTE   N23  Ds2
 BYTE   N23  Ds3  v096
 BYTE   N23  Ds4
 BYTE   W24
 BYTE   Fs1  v080
 BYTE   N23  Cs2
 BYTE   N23  Fs2
 BYTE   N23  Fs3  v096
 BYTE   N23  Fs4
 BYTE   W24
 BYTE   Dn1  v080
 BYTE   N23  An1
 BYTE   N23  Dn2
 BYTE   N23  Dn3  v096
 BYTE   N23  Dn4
 BYTE   W24
 BYTE   Ds1  v080
 BYTE   N23  As1
 BYTE   N23  Ds2
 BYTE   N23  Ds3  v096
 BYTE   N23  Ds4
 BYTE   W24
// 054   ----------------------------------------
 BYTE   En2
 BYTE   N23  En3
 BYTE   N23  En4
 BYTE   W96
// 055   ----------------------------------------
 BYTE   W96
// 056   ----------------------------------------
 BYTE   W96
// 057   ----------------------------------------
 BYTE   W96
// 058   ----------------------------------------
 BYTE   W96
// 059   ----------------------------------------
 BYTE   W96
// 060   ----------------------------------------
 BYTE   W96
// 061   ----------------------------------------
 BYTE   W96
// 062   ----------------------------------------
 BYTE   W96
// 063   ----------------------------------------
 BYTE   W96
// 064   ----------------------------------------
 BYTE   W96
// 065   ----------------------------------------
 BYTE   W96
// 066   ----------------------------------------
 BYTE   W96
// 067   ----------------------------------------
 BYTE   W96
// 068   ----------------------------------------
 BYTE   W96
// 069   ----------------------------------------
 BYTE   W96
// 070   ----------------------------------------
Label_1_0140952D:
 BYTE   N23  En1  v080
 BYTE   N23  Bn1
 BYTE   N11  En2
 BYTE   N11  En3  v096
 BYTE   N11  En4
 BYTE   W48
 BYTE   N23  Fs1  v080
 BYTE   N23  Cs2
 BYTE   N11  Fs2
 BYTE   N11  Fs3  v096
 BYTE   N11  Fs4
 BYTE   W36
 BYTE   N23  Gn1  v080
 BYTE   N23  Dn2
 BYTE   N23  Gn2
 BYTE   N23  Gn3  v096
 BYTE   N23  Gn4
 BYTE   W12
 BYTE   PEND 
// 071   ----------------------------------------
Label_1_01409555:
 BYTE   W12
 BYTE   N11  Fs1  v080
 BYTE   N11  Cs2
 BYTE   N11  Fs2
 BYTE   N11  Fs3  v096
 BYTE   N11  Fs4
 BYTE   W12
 BYTE   N23  En1  v080
 BYTE   N23  Bn1
 BYTE   N11  En2
 BYTE   N11  En3  v096
 BYTE   N11  En4
 BYTE   W72
 BYTE   PEND 
// 072   ----------------------------------------
 BYTE   PATT
  POIN2 Label_1_0140952D
// 073   ----------------------------------------
 BYTE   W12
 BYTE   N11  Bn1  v080
 BYTE   N11  Fs2
 BYTE   N11  Bn2
 BYTE   N11  Bn3  v096
 BYTE   N11  Bn4
 BYTE   W12
 BYTE   N23  En1  v080
 BYTE   N23  Bn1
 BYTE   N11  En2
 BYTE   N11  En3  v096
 BYTE   N11  En4
 BYTE   W72
// 074   ----------------------------------------
 BYTE   PATT
  POIN2 Label_1_0140952D
// 075   ----------------------------------------
 BYTE   PATT
  POIN2 Label_1_01409555
// 076   ----------------------------------------
 BYTE   N23  En1  v080
 BYTE   N23  Bn1
 BYTE   N11  En2
 BYTE   N11  En3  v096
 BYTE   N11  En4
 BYTE   W48
 BYTE   N23  Fs1  v080
 BYTE   N23  Cs2
 BYTE   N11  Fs2
 BYTE   N11  Fs3  v096
 BYTE   N11  Fs4
 BYTE   W36
 BYTE   N23  Gn1  v080
 BYTE   N23  Dn2
 BYTE   N11  Gn2
 BYTE   N23  Gn3  v096
 BYTE   N23  Gn4
 BYTE   W12
// 077   ----------------------------------------
 BYTE   N11  Gn2
 BYTE   W12
 BYTE   Bn1  v080
 BYTE   N11  Fs2
 BYTE   N11  Bn2
 BYTE   N11  Bn3  v096
 BYTE   N11  Bn4
 BYTE   W12
 BYTE   TIE  Cn2  v080
 BYTE   TIE  Gn2
 BYTE   N11  Cn3
 BYTE   N11  Cn4  v096
 BYTE   N11  Cn5
 BYTE   W72
// 078   ----------------------------------------
 BYTE   W92
 BYTE   W03
 BYTE   EOT
 BYTE   Cn2  v055
 BYTE   W01
// 079   ----------------------------------------
 BYTE   PATT
  POIN2 Label_1_01409290
// 080   ----------------------------------------
 BYTE   GoTo
  POIN2 Label_1_01409276
 BYTE   FINE

//**************** Track 3 (Midi-Chn.2) ****************//

XenobladeAnObstacleInOurPathMonopolyRubixmidibyMiffe_003:
// 000   ----------------------------------------
 BYTE   KEYSH   XenobladeAnObstacleInOurPathMonopolyRubixmidibyMiffe_key+0
 BYTE   VOICE   86
 BYTE   VOL   30*XenobladeAnObstacleInOurPathMonopolyRubixmidibyMiffe_mvl/mxv
 BYTE   PAN   c_v+0
 BYTE   VOL   30*XenobladeAnObstacleInOurPathMonopolyRubixmidibyMiffe_mvl/mxv
 BYTE   PAN   c_v+0
 BYTE   VOL   30*XenobladeAnObstacleInOurPathMonopolyRubixmidibyMiffe_mvl/mxv
 BYTE   PAN   c_v+0
 BYTE   BEND   c_v+0
 BYTE   W96
// 001   ----------------------------------------
Label_2_01409603:
 BYTE   W96
// 002   ----------------------------------------
 BYTE   W96
// 003   ----------------------------------------
 BYTE   W96
// 004   ----------------------------------------
 BYTE   W24
 BYTE   N23  En3  v112
 BYTE   W24
 BYTE   N23
 BYTE   W24
 BYTE   Ds3
 BYTE   W24
// 005   ----------------------------------------
 BYTE   Gn3
 BYTE   W24
 BYTE   Fs3
 BYTE   W24
 BYTE   Gn3
 BYTE   W24
 BYTE   As3
 BYTE   W24
// 006   ----------------------------------------
 BYTE   N32  Bn3
 BYTE   W36
 BYTE   BEND   c_v+0
 BYTE   TIE
 BYTE   W01
 BYTE   BEND   c_v+0
 BYTE   W01
 BYTE   BEND   c_v+0
 BYTE   W01
 BYTE   BEND   c_v+0
 BYTE   W01
 BYTE   BEND   c_v+0
 BYTE   W01
 BYTE   BEND   c_v+1
 BYTE   W01
 BYTE   BEND   c_v+1
 BYTE   W01
 BYTE   BEND   c_v+1
 BYTE   W01
 BYTE   BEND   c_v+1
 BYTE   W01
 BYTE   BEND   c_v+1
 BYTE   W01
 BYTE   BEND   c_v+2
 BYTE   W01
 BYTE   BEND   c_v+2
 BYTE   W01
 BYTE   BEND   c_v+2
 BYTE   W01
 BYTE   BEND   c_v+2
 BYTE   W01
 BYTE   BEND   c_v+2
 BYTE   W01
 BYTE   BEND   c_v+3
 BYTE   W01
 BYTE   BEND   c_v+3
 BYTE   W01
 BYTE   BEND   c_v+3
 BYTE   W01
 BYTE   BEND   c_v+3
 BYTE   W01
 BYTE   BEND   c_v+3
 BYTE   W01
 BYTE   BEND   c_v+4
 BYTE   W01
 BYTE   BEND   c_v+4
 BYTE   W01
 BYTE   BEND   c_v+4
 BYTE   W01
 BYTE   BEND   c_v+4
 BYTE   W01
 BYTE   BEND   c_v+5
 BYTE   W01
 BYTE   BEND   c_v+5
 BYTE   W32
 BYTE   W03
// 007   ----------------------------------------
 BYTE   W92
 BYTE   W03
 BYTE   EOT
 BYTE   W01
// 008   ----------------------------------------
 BYTE   BEND   c_v+0
 BYTE   W24
 BYTE   N23  En3
 BYTE   W24
 BYTE   N23
 BYTE   W24
 BYTE   Ds3
 BYTE   W24
// 009   ----------------------------------------
 BYTE   Gn3
 BYTE   W24
 BYTE   Fs3
 BYTE   W24
 BYTE   An3
 BYTE   W24
 BYTE   Bn3
 BYTE   W24
// 010   ----------------------------------------
 BYTE   N32  Cn4
 BYTE   W36
 BYTE   BEND   c_v+0
 BYTE   TIE  Fn4
 BYTE   W01
 BYTE   BEND   c_v+0
 BYTE   W01
 BYTE   BEND   c_v+0
 BYTE   W01
 BYTE   BEND   c_v+1
 BYTE   W01
 BYTE   BEND   c_v+1
 BYTE   W01
 BYTE   BEND   c_v+2
 BYTE   W01
 BYTE   BEND   c_v+2
 BYTE   W01
 BYTE   BEND   c_v+2
 BYTE   W01
 BYTE   BEND   c_v+3
 BYTE   W01
 BYTE   BEND   c_v+3
 BYTE   W01
 BYTE   BEND   c_v+4
 BYTE   W01
 BYTE   BEND   c_v+4
 BYTE   W01
 BYTE   BEND   c_v+5
 BYTE   W01
 BYTE   BEND   c_v+5
 BYTE   W01
 BYTE   BEND   c_v+5
 BYTE   W01
 BYTE   BEND   c_v+6
 BYTE   W01
 BYTE   BEND   c_v+6
 BYTE   W01
 BYTE   BEND   c_v+7
 BYTE   W01
 BYTE   BEND   c_v+7
 BYTE   W01
 BYTE   BEND   c_v+7
 BYTE   W01
 BYTE   BEND   c_v+8
 BYTE   W01
 BYTE   BEND   c_v+8
 BYTE   W01
 BYTE   BEND   c_v+9
 BYTE   W01
 BYTE   BEND   c_v+9
 BYTE   W01
 BYTE   BEND   c_v+10
 BYTE   W01
 BYTE   BEND   c_v+10
 BYTE   W32
 BYTE   W03
// 011   ----------------------------------------
 BYTE   W92
 BYTE   W03
 BYTE   EOT
 BYTE   W01
// 012   ----------------------------------------
 BYTE   BEND   c_v+0
 BYTE   N56  En4
 BYTE   W60
 BYTE   N11  Bn3
 BYTE   W12
 BYTE   N11
 BYTE   W12
 BYTE   En4
 BYTE   W12
// 013   ----------------------------------------
 BYTE   N56  Ds4
 BYTE   W60
 BYTE   N11
 BYTE   W12
 BYTE   N11
 BYTE   W12
 BYTE   En4
 BYTE   W12
// 014   ----------------------------------------
 BYTE   N56  Fs4
 BYTE   W60
 BYTE   N11
 BYTE   W12
 BYTE   Gn4
 BYTE   W12
 BYTE   Fs4
 BYTE   W12
// 015   ----------------------------------------
 BYTE   N32
 BYTE   W36
 BYTE   N05  Gn4
 BYTE   W06
 BYTE   Fs4
 BYTE   W06
 BYTE   N23  En4
 BYTE   W24
 BYTE   N05
 BYTE   W06
 BYTE   Fs4
 BYTE   W06
 BYTE   Gn4
 BYTE   W06
 BYTE   An4
 BYTE   W06
// 016   ----------------------------------------
 BYTE   N56  Bn4
 BYTE   W60
 BYTE   N11  Gn4
 BYTE   W12
 BYTE   N11
 BYTE   W12
 BYTE   Bn4
 BYTE   W12
// 017   ----------------------------------------
 BYTE   N44  An4
 BYTE   W48
 BYTE   N32  Bn4
 BYTE   W36
 BYTE   N11  Cn5
 BYTE   W12
// 018   ----------------------------------------
 BYTE   N56  Bn4
 BYTE   W60
 BYTE   N11
 BYTE   W12
 BYTE   N11
 BYTE   W12
 BYTE   Cn5
 BYTE   W12
// 019   ----------------------------------------
 BYTE   N92  Bn4
 BYTE   W96
// 020   ----------------------------------------
 BYTE   W96
// 021   ----------------------------------------
 BYTE   W96
// 022   ----------------------------------------
Label_2_01409729:
 BYTE   N56  En3  v112
 BYTE   W60
 BYTE   N11
 BYTE   W12
 BYTE   Fs3
 BYTE   W12
 BYTE   Gn3
 BYTE   W12
 BYTE   PEND 
// 023   ----------------------------------------
 BYTE   N23  Bn3
 BYTE   W24
 BYTE   An3
 BYTE   W24
 BYTE   Gn3
 BYTE   W24
 BYTE   Fs3
 BYTE   W24
// 024   ----------------------------------------
 BYTE   N56  Fn3
 BYTE   W60
 BYTE   N11
 BYTE   W12
 BYTE   Gn3
 BYTE   W12
 BYTE   An3
 BYTE   W12
// 025   ----------------------------------------
 BYTE   N23  Bn3
 BYTE   W24
 BYTE   An3
 BYTE   W24
 BYTE   N32  Bn3
 BYTE   W36
 BYTE   N11  Cn4
 BYTE   W12
// 026   ----------------------------------------
Label_2_01409751:
 BYTE   N56  Bn3  v112
 BYTE   W60
 BYTE   N11  En3
 BYTE   W12
 BYTE   Fs3
 BYTE   W12
 BYTE   Gn3
 BYTE   W12
 BYTE   PEND 
// 027   ----------------------------------------
Label_2_0140975D:
 BYTE   N23  Bn3  v112
 BYTE   W24
 BYTE   An3
 BYTE   W24
 BYTE   Dn4
 BYTE   W24
 BYTE   Cn4
 BYTE   W24
 BYTE   PEND 
// 028   ----------------------------------------
 BYTE   N44  Bn3
 BYTE   W48
 BYTE   An3
 BYTE   W48
// 029   ----------------------------------------
 BYTE   Gn3
 BYTE   W48
 BYTE   Fs3
 BYTE   W48
// 030   ----------------------------------------
 BYTE   PATT
  POIN2 Label_2_01409729
// 031   ----------------------------------------
 BYTE   PATT
  POIN2 Label_2_0140975D
// 032   ----------------------------------------
 BYTE   N56  Bn3  v112
 BYTE   W60
 BYTE   N11  Fn3
 BYTE   W12
 BYTE   Gn3
 BYTE   W12
 BYTE   An3
 BYTE   W12
// 033   ----------------------------------------
 BYTE   N23  Bn3
 BYTE   W24
 BYTE   An3
 BYTE   W24
 BYTE   Dn4
 BYTE   W24
 BYTE   En4
 BYTE   W24
// 034   ----------------------------------------
 BYTE   PATT
  POIN2 Label_2_01409751
// 035   ----------------------------------------
 BYTE   N23  Bn3  v112
 BYTE   W24
 BYTE   An3
 BYTE   W24
 BYTE   Bn3
 BYTE   W24
 BYTE   Cn4
 BYTE   W24
// 036   ----------------------------------------
 BYTE   N44  Dn4
 BYTE   W48
 BYTE   Cs4
 BYTE   W48
// 037   ----------------------------------------
 BYTE   En4
 BYTE   W48
 BYTE   Ds4
 BYTE   W48
// 038   ----------------------------------------
 BYTE   TIE  En4
 BYTE   W96
// 039   ----------------------------------------
 BYTE   W92
 BYTE   W03
 BYTE   EOT
 BYTE   W01
// 040   ----------------------------------------
 BYTE   W96
// 041   ----------------------------------------
 BYTE   W96
// 042   ----------------------------------------
 BYTE   W96
// 043   ----------------------------------------
 BYTE   W96
// 044   ----------------------------------------
 BYTE   W96
// 045   ----------------------------------------
 BYTE   W96
// 046   ----------------------------------------
 BYTE   W24
 BYTE   BEND   c_v+0
 BYTE   N44  Dn4
 BYTE   W01
 BYTE   BEND   c_v+1
 BYTE   W01
 BYTE   BEND   c_v+2
 BYTE   W01
 BYTE   BEND   c_v+2
 BYTE   W01
 BYTE   BEND   c_v+4
 BYTE   W01
 BYTE   BEND   c_v+4
 BYTE   W01
 BYTE   BEND   c_v+5
 BYTE   W01
 BYTE   BEND   c_v+6
 BYTE   W01
 BYTE   BEND   c_v+7
 BYTE   W01
 BYTE   BEND   c_v+8
 BYTE   W01
 BYTE   BEND   c_v+9
 BYTE   W01
 BYTE   BEND   c_v+9
 BYTE   W01
 BYTE   BEND   c_v+10
 BYTE   W36
 BYTE   BEND   c_v+0
 BYTE   N11  Ds4
 BYTE   W24
// 047   ----------------------------------------
 BYTE   W24
 BYTE   BEND   c_v+0
 BYTE   N44  Cn4
 BYTE   W01
 BYTE   BEND   c_v+1
 BYTE   W01
 BYTE   BEND   c_v+2
 BYTE   W01
 BYTE   BEND   c_v+2
 BYTE   W01
 BYTE   BEND   c_v+4
 BYTE   W01
 BYTE   BEND   c_v+4
 BYTE   W01
 BYTE   BEND   c_v+5
 BYTE   W01
 BYTE   BEND   c_v+6
 BYTE   W01
 BYTE   BEND   c_v+7
 BYTE   W01
 BYTE   BEND   c_v+8
 BYTE   W01
 BYTE   BEND   c_v+9
 BYTE   W01
 BYTE   BEND   c_v+9
 BYTE   W01
 BYTE   BEND   c_v+10
 BYTE   W36
 BYTE   BEND   c_v+0
 BYTE   N11  Cs4
 BYTE   W24
// 048   ----------------------------------------
 BYTE   W24
 BYTE   BEND   c_v+0
 BYTE   N44  As3
 BYTE   W01
 BYTE   BEND   c_v+1
 BYTE   W01
 BYTE   BEND   c_v+2
 BYTE   W01
 BYTE   BEND   c_v+2
 BYTE   W01
 BYTE   BEND   c_v+4
 BYTE   W01
 BYTE   BEND   c_v+4
 BYTE   W01
 BYTE   BEND   c_v+5
 BYTE   W01
 BYTE   BEND   c_v+6
 BYTE   W01
 BYTE   BEND   c_v+7
 BYTE   W01
 BYTE   BEND   c_v+8
 BYTE   W01
 BYTE   BEND   c_v+9
 BYTE   W01
 BYTE   BEND   c_v+9
 BYTE   W01
 BYTE   BEND   c_v+10
 BYTE   W36
 BYTE   BEND   c_v+0
 BYTE   N11  Bn3
 BYTE   W24
// 049   ----------------------------------------
 BYTE   W24
 BYTE   BEND   c_v+0
 BYTE   N44  An3
 BYTE   W01
 BYTE   BEND   c_v+1
 BYTE   W01
 BYTE   BEND   c_v+2
 BYTE   W01
 BYTE   BEND   c_v+2
 BYTE   W01
 BYTE   BEND   c_v+4
 BYTE   W01
 BYTE   BEND   c_v+4
 BYTE   W01
 BYTE   BEND   c_v+5
 BYTE   W01
 BYTE   BEND   c_v+6
 BYTE   W01
 BYTE   BEND   c_v+7
 BYTE   W01
 BYTE   BEND   c_v+8
 BYTE   W01
 BYTE   BEND   c_v+9
 BYTE   W01
 BYTE   BEND   c_v+9
 BYTE   W01
 BYTE   BEND   c_v+10
 BYTE   W36
 BYTE   BEND   c_v+0
 BYTE   N11  Dn4
 BYTE   W12
 BYTE   Cn4
 BYTE   W12
// 050   ----------------------------------------
 BYTE   W24
 BYTE   BEND   c_v+0
 BYTE   N44  Fn4
 BYTE   W01
 BYTE   BEND   c_v+1
 BYTE   W01
 BYTE   BEND   c_v+2
 BYTE   W01
 BYTE   BEND   c_v+2
 BYTE   W01
 BYTE   BEND   c_v+4
 BYTE   W01
 BYTE   BEND   c_v+4
 BYTE   W01
 BYTE   BEND   c_v+5
 BYTE   W01
 BYTE   BEND   c_v+6
 BYTE   W01
 BYTE   BEND   c_v+7
 BYTE   W01
 BYTE   BEND   c_v+8
 BYTE   W01
 BYTE   BEND   c_v+9
 BYTE   W01
 BYTE   BEND   c_v+9
 BYTE   W01
 BYTE   BEND   c_v+10
 BYTE   W36
 BYTE   BEND   c_v+0
 BYTE   N11  En4
 BYTE   W24
// 051   ----------------------------------------
 BYTE   W24
 BYTE   BEND   c_v+0
 BYTE   N44  An4
 BYTE   W01
 BYTE   BEND   c_v+1
 BYTE   W01
 BYTE   BEND   c_v+2
 BYTE   W01
 BYTE   BEND   c_v+2
 BYTE   W01
 BYTE   BEND   c_v+4
 BYTE   W01
 BYTE   BEND   c_v+4
 BYTE   W01
 BYTE   BEND   c_v+5
 BYTE   W01
 BYTE   BEND   c_v+6
 BYTE   W01
 BYTE   BEND   c_v+7
 BYTE   W01
 BYTE   BEND   c_v+8
 BYTE   W01
 BYTE   BEND   c_v+9
 BYTE   W01
 BYTE   BEND   c_v+9
 BYTE   W01
 BYTE   BEND   c_v+10
 BYTE   W36
 BYTE   BEND   c_v+0
 BYTE   N11
 BYTE   W24
// 052   ----------------------------------------
 BYTE   W24
 BYTE   BEND   c_v+0
 BYTE   N44  Cs5
 BYTE   W01
 BYTE   BEND   c_v+1
 BYTE   W01
 BYTE   BEND   c_v+2
 BYTE   W01
 BYTE   BEND   c_v+2
 BYTE   W01
 BYTE   BEND   c_v+4
 BYTE   W01
 BYTE   BEND   c_v+4
 BYTE   W01
 BYTE   BEND   c_v+5
 BYTE   W01
 BYTE   BEND   c_v+6
 BYTE   W01
 BYTE   BEND   c_v+7
 BYTE   W01
 BYTE   BEND   c_v+8
 BYTE   W01
 BYTE   BEND   c_v+9
 BYTE   W01
 BYTE   BEND   c_v+9
 BYTE   W01
 BYTE   BEND   c_v+10
 BYTE   W36
 BYTE   BEND   c_v+0
 BYTE   N11  Cn5
 BYTE   W24
// 053   ----------------------------------------
 BYTE   N23  Ds4
 BYTE   W24
 BYTE   Fs4
 BYTE   W24
 BYTE   Dn4
 BYTE   W24
 BYTE   Ds4
 BYTE   W24
// 054   ----------------------------------------
 BYTE   N32  En4
 BYTE   W36
 BYTE   N05  Dn4
 BYTE   W06
 BYTE   Cn4
 BYTE   W06
 BYTE   N32  Bn3
 BYTE   W36
 BYTE   N05  An3
 BYTE   W06
 BYTE   Gn3
 BYTE   W06
// 055   ----------------------------------------
 BYTE   N32  Fs3
 BYTE   W36
 BYTE   N05  En3
 BYTE   W06
 BYTE   Dn3
 BYTE   W06
 BYTE   N44  Bn2
 BYTE   W48
// 056   ----------------------------------------
 BYTE   N23  Cn3
 BYTE   W24
 BYTE   BEND   c_v+10
 BYTE   TIE  As3
 BYTE   W20
 BYTE   BEND   c_v+10
 BYTE   W01
 BYTE   BEND   c_v+10
 BYTE   W01
 BYTE   BEND   c_v+10
 BYTE   W01
 BYTE   BEND   c_v+9
 BYTE   W01
 BYTE   BEND   c_v+9
 BYTE   W01
 BYTE   BEND   c_v+9
 BYTE   W01
 BYTE   BEND   c_v+8
 BYTE   W01
 BYTE   BEND   c_v+8
 BYTE   W01
 BYTE   BEND   c_v+8
 BYTE   W01
 BYTE   BEND   c_v+8
 BYTE   W01
 BYTE   BEND   c_v+8
 BYTE   W01
 BYTE   BEND   c_v+8
 BYTE   W01
 BYTE   BEND   c_v+8
 BYTE   W01
 BYTE   BEND   c_v+8
 BYTE   W01
 BYTE   BEND   c_v+9
 BYTE   W01
 BYTE   BEND   c_v+9
 BYTE   W01
 BYTE   BEND   c_v+9
 BYTE   W01
 BYTE   BEND   c_v+9
 BYTE   W01
 BYTE   BEND   c_v+10
 BYTE   W01
 BYTE   BEND   c_v+10
 BYTE   W01
 BYTE   BEND   c_v+10
 BYTE   W01
 BYTE   BEND   c_v+10
 BYTE   W01
 BYTE   BEND   c_v+10
 BYTE   W01
 BYTE   BEND   c_v+9
 BYTE   W01
 BYTE   BEND   c_v+9
 BYTE   W01
 BYTE   BEND   c_v+9
 BYTE   W01
 BYTE   BEND   c_v+8
 BYTE   W01
 BYTE   BEND   c_v+8
 BYTE   W01
 BYTE   BEND   c_v+8
 BYTE   W01
 BYTE   BEND   c_v+8
 BYTE   W01
 BYTE   BEND   c_v+8
 BYTE   W01
 BYTE   BEND   c_v+8
 BYTE   W01
 BYTE   BEND   c_v+8
 BYTE   W01
 BYTE   BEND   c_v+8
 BYTE   W01
 BYTE   BEND   c_v+9
 BYTE   W01
 BYTE   BEND   c_v+9
 BYTE   W01
 BYTE   BEND   c_v+9
 BYTE   W01
 BYTE   BEND   c_v+9
 BYTE   W01
 BYTE   BEND   c_v+10
 BYTE   W01
 BYTE   BEND   c_v+10
 BYTE   W01
 BYTE   BEND   c_v+10
 BYTE   W01
 BYTE   BEND   c_v+10
 BYTE   W01
 BYTE   BEND   c_v+10
 BYTE   W01
 BYTE   BEND   c_v+9
 BYTE   W01
 BYTE   BEND   c_v+9
 BYTE   W01
 BYTE   BEND   c_v+9
 BYTE   W01
 BYTE   BEND   c_v+8
 BYTE   W01
 BYTE   BEND   c_v+8
 BYTE   W01
 BYTE   BEND   c_v+8
 BYTE   W01
 BYTE   BEND   c_v+8
 BYTE   W01
 BYTE   BEND   c_v+8
 BYTE   W01
 BYTE   BEND   c_v+8
 BYTE   W01
// 057   ----------------------------------------
 BYTE   BEND   c_v+8
 BYTE   W01
 BYTE   BEND   c_v+8
 BYTE   W01
 BYTE   BEND   c_v+9
 BYTE   W01
 BYTE   BEND   c_v+9
 BYTE   W01
 BYTE   BEND   c_v+9
 BYTE   W01
 BYTE   BEND   c_v+9
 BYTE   W01
 BYTE   BEND   c_v+10
 BYTE   W01
 BYTE   BEND   c_v+10
 BYTE   W01
 BYTE   BEND   c_v+10
 BYTE   W01
 BYTE   BEND   c_v+10
 BYTE   W01
 BYTE   BEND   c_v+10
 BYTE   W01
 BYTE   BEND   c_v+9
 BYTE   W01
 BYTE   BEND   c_v+9
 BYTE   W01
 BYTE   BEND   c_v+9
 BYTE   W01
 BYTE   BEND   c_v+8
 BYTE   W01
 BYTE   BEND   c_v+8
 BYTE   W01
 BYTE   BEND   c_v+8
 BYTE   W01
 BYTE   BEND   c_v+8
 BYTE   W01
 BYTE   BEND   c_v+8
 BYTE   W01
 BYTE   BEND   c_v+8
 BYTE   W01
 BYTE   BEND   c_v+8
 BYTE   W01
 BYTE   BEND   c_v+8
 BYTE   W01
 BYTE   BEND   c_v+9
 BYTE   W01
 BYTE   BEND   c_v+9
 BYTE   W01
 BYTE   BEND   c_v+9
 BYTE   W01
 BYTE   BEND   c_v+9
 BYTE   W01
 BYTE   BEND   c_v+10
 BYTE   W01
 BYTE   BEND   c_v+10
 BYTE   W01
 BYTE   BEND   c_v+10
 BYTE   W01
 BYTE   BEND   c_v+10
 BYTE   W01
 BYTE   BEND   c_v+10
 BYTE   W01
 BYTE   BEND   c_v+9
 BYTE   W01
 BYTE   BEND   c_v+9
 BYTE   W01
 BYTE   BEND   c_v+9
 BYTE   W01
 BYTE   BEND   c_v+8
 BYTE   W01
 BYTE   BEND   c_v+8
 BYTE   W01
 BYTE   BEND   c_v+8
 BYTE   W01
 BYTE   BEND   c_v+8
 BYTE   W01
 BYTE   BEND   c_v+8
 BYTE   W01
 BYTE   BEND   c_v+8
 BYTE   W01
 BYTE   BEND   c_v+8
 BYTE   W01
 BYTE   BEND   c_v+8
 BYTE   W01
 BYTE   BEND   c_v+9
 BYTE   W01
 BYTE   BEND   c_v+9
 BYTE   W01
 BYTE   BEND   c_v+9
 BYTE   W01
 BYTE   BEND   c_v+9
 BYTE   W01
 BYTE   BEND   c_v+10
 BYTE   W01
 BYTE   EOT
 BYTE   BEND   c_v+10
 BYTE   W01
 BYTE   BEND   c_v+0
 BYTE   N01  Cn4
 BYTE   W01
 BYTE   Bn3
 BYTE   W02
 BYTE   As3
 BYTE   W03
 BYTE   An3
 BYTE   W01
 BYTE   Gs3
 BYTE   W02
 BYTE   Gn3
 BYTE   W03
 BYTE   Fs3
 BYTE   W01
 BYTE   Fn3
 BYTE   W02
 BYTE   En3
 BYTE   W03
 BYTE   Ds3
 BYTE   W01
 BYTE   Dn3
 BYTE   W02
 BYTE   Cs3
 BYTE   W03
 BYTE   Cn3
 BYTE   W01
 BYTE   Bn2
 BYTE   W02
 BYTE   As2
 BYTE   W03
 BYTE   An2
 BYTE   W01
 BYTE   Gs2
 BYTE   W02
 BYTE   Gn2
 BYTE   W03
 BYTE   Fs2
 BYTE   W01
 BYTE   Fn2
 BYTE   W02
 BYTE   En2
 BYTE   W03
 BYTE   Ds2
 BYTE   W01
 BYTE   Dn2
 BYTE   W02
 BYTE   Cs2
 BYTE   W03
// 058   ----------------------------------------
 BYTE   Cn2
 BYTE   W96
// 059   ----------------------------------------
 BYTE   W96
// 060   ----------------------------------------
 BYTE   W96
// 061   ----------------------------------------
 BYTE   W96
// 062   ----------------------------------------
 BYTE   W96
// 063   ----------------------------------------
 BYTE   W96
// 064   ----------------------------------------
 BYTE   W96
// 065   ----------------------------------------
 BYTE   W96
// 066   ----------------------------------------
 BYTE   W96
// 067   ----------------------------------------
 BYTE   W96
// 068   ----------------------------------------
 BYTE   W96
// 069   ----------------------------------------
 BYTE   W96
// 070   ----------------------------------------
 BYTE   W96
// 071   ----------------------------------------
Label_2_01409A98:
 BYTE   W48
 BYTE   N05  En2  v064
 BYTE   N05  Bn2
 BYTE   N05  En3
 BYTE   W06
 BYTE   En2
 BYTE   N05  Bn2
 BYTE   N05  En3
 BYTE   W06
 BYTE   En2
 BYTE   W06
 BYTE   N05
 BYTE   W06
 BYTE   N05
 BYTE   N05  Bn2
 BYTE   N05  En3
 BYTE   W06
 BYTE   En2
 BYTE   N05  Bn2
 BYTE   N05  En3
 BYTE   W06
 BYTE   En2
 BYTE   N05  Bn2
 BYTE   N05  En3
 BYTE   W06
 BYTE   En2
 BYTE   N05  Bn2
 BYTE   N05  En3
 BYTE   W06
 BYTE   PEND 
// 072   ----------------------------------------
 BYTE   N11  En2
 BYTE   N11  Bn2
 BYTE   N11  En3
 BYTE   W12
 BYTE   N01  Dn3
 BYTE   N01  Ds3
 BYTE   N01  En3
 BYTE   W01
 BYTE   Cn3
 BYTE   N01  Cs3
 BYTE   W01
 BYTE   Bn2
 BYTE   W01
 BYTE   Gs2
 BYTE   N01  An2
 BYTE   N01  As2
 BYTE   W01
 BYTE   Fs2
 BYTE   N01  Gn2
 BYTE   W01
 BYTE   Fn2
 BYTE   W01
 BYTE   Dn2
 BYTE   N01  Ds2
 BYTE   N01  En2
 BYTE   W01
 BYTE   Cn2
 BYTE   N01  Cs2
 BYTE   W01
 BYTE   Bn1
 BYTE   W01
 BYTE   Gs1
 BYTE   N01  An1
 BYTE   N01  As1
 BYTE   W01
 BYTE   Fs1
 BYTE   N01  Gn1
 BYTE   W01
 BYTE   Fn1
 BYTE   W01
 BYTE   N05  En1
 BYTE   W06
 BYTE   N05
 BYTE   W06
 BYTE   N05
 BYTE   W06
 BYTE   N05
 BYTE   W54
// 073   ----------------------------------------
 BYTE   W48
 BYTE   En2
 BYTE   N05  Bn2
 BYTE   N05  En3
 BYTE   W06
 BYTE   En2
 BYTE   N05  Bn2
 BYTE   N05  En3
 BYTE   W12
 BYTE   Fs2
 BYTE   N05  Bn2
 BYTE   N05  Fs3
 BYTE   W06
 BYTE   Fs2
 BYTE   N05  Bn2
 BYTE   N05  Fs3
 BYTE   W06
 BYTE   Fs2
 BYTE   N05  Bn2
 BYTE   N05  Fs3
 BYTE   W06
 BYTE   Fs2
 BYTE   N05  Bn2
 BYTE   N05  Fs3
 BYTE   W06
 BYTE   Fs2
 BYTE   N05  Bn2
 BYTE   N05  Fs3
 BYTE   W06
// 074   ----------------------------------------
 BYTE   N11  Fs2
 BYTE   N11  Cs3
 BYTE   N11  Fs3
 BYTE   W12
 BYTE   N01  En3
 BYTE   N01  Fn3
 BYTE   N01  Fs3
 BYTE   W01
 BYTE   Dn3
 BYTE   N01  Ds3
 BYTE   W01
 BYTE   Cn3
 BYTE   N01  Cs3
 BYTE   W01
 BYTE   As2
 BYTE   N01  Bn2
 BYTE   W01
 BYTE   Gn2
 BYTE   N01  Gs2
 BYTE   N01  An2
 BYTE   W01
 BYTE   Fn2
 BYTE   N01  Fs2
 BYTE   W01
 BYTE   Ds2
 BYTE   N01  En2
 BYTE   W01
 BYTE   Cs2
 BYTE   N01  Dn2
 BYTE   W01
 BYTE   As1
 BYTE   N01  Bn1
 BYTE   N01  Cn2
 BYTE   W01
 BYTE   Gs1
 BYTE   N01  An1
 BYTE   W01
 BYTE   Gn1
 BYTE   W01
 BYTE   Fs1
 BYTE   W01
 BYTE   N11  Fs2
 BYTE   N11  Cs3
 BYTE   N11  Fs3
 BYTE   W12
 BYTE   N01  En3
 BYTE   N01  Fn3
 BYTE   N01  Fs3
 BYTE   W01
 BYTE   Dn3
 BYTE   N01  Ds3
 BYTE   W01
 BYTE   Cn3
 BYTE   N01  Cs3
 BYTE   W01
 BYTE   As2
 BYTE   N01  Bn2
 BYTE   W01
 BYTE   Gn2
 BYTE   N01  Gs2
 BYTE   N01  An2
 BYTE   W01
 BYTE   Fn2
 BYTE   N01  Fs2
 BYTE   W01
 BYTE   Ds2
 BYTE   N01  En2
 BYTE   W01
 BYTE   Cs2
 BYTE   N01  Dn2
 BYTE   W01
 BYTE   As1
 BYTE   N01  Bn1
 BYTE   N01  Cn2
 BYTE   W01
 BYTE   Gs1
 BYTE   N01  An1
 BYTE   W01
 BYTE   Gn1
 BYTE   W01
 BYTE   Fs1
 BYTE   W48
 BYTE   W01
// 075   ----------------------------------------
 BYTE   PATT
  POIN2 Label_2_01409A98
// 076   ----------------------------------------
 BYTE   N11  En2  v064
 BYTE   N11  Bn2
 BYTE   N11  En3
 BYTE   W12
 BYTE   N01  Dn3
 BYTE   N01  Ds3
 BYTE   N01  En3
 BYTE   W01
 BYTE   Cn3
 BYTE   N01  Cs3
 BYTE   W01
 BYTE   Bn2
 BYTE   W01
 BYTE   Gs2
 BYTE   N01  An2
 BYTE   N01  As2
 BYTE   W01
 BYTE   Fs2
 BYTE   N01  Gn2
 BYTE   W01
 BYTE   Fn2
 BYTE   W01
 BYTE   Dn2
 BYTE   N01  Ds2
 BYTE   N01  En2
 BYTE   W01
 BYTE   Cn2
 BYTE   N01  Cs2
 BYTE   W01
 BYTE   Bn1
 BYTE   W01
 BYTE   Gs1
 BYTE   N01  An1
 BYTE   N01  As1
 BYTE   W01
 BYTE   Fs1
 BYTE   N01  Gn1
 BYTE   W01
 BYTE   Fn1
 BYTE   W01
 BYTE   N05  En1
 BYTE   W06
 BYTE   N05
 BYTE   W06
 BYTE   N05
 BYTE   W06
 BYTE   N05
 BYTE   W05
 BYTE   BEND   c_v+0
 BYTE   W48
 BYTE   W01
// 077   ----------------------------------------
 BYTE   W96
// 078   ----------------------------------------
 BYTE   W96
// 079   ----------------------------------------
 BYTE   W96
// 080   ----------------------------------------
 BYTE   GoTo
  POIN2 Label_2_01409603
 BYTE   FINE

//**************** Track 4 (Midi-Chn.3) ****************//

XenobladeAnObstacleInOurPathMonopolyRubixmidibyMiffe_004:
// 000   ----------------------------------------
 BYTE   KEYSH   XenobladeAnObstacleInOurPathMonopolyRubixmidibyMiffe_key+0
 BYTE   VOICE   93
 BYTE   VOL   30*XenobladeAnObstacleInOurPathMonopolyRubixmidibyMiffe_mvl/mxv
 BYTE   PAN   c_v+0
 BYTE   VOL   30*XenobladeAnObstacleInOurPathMonopolyRubixmidibyMiffe_mvl/mxv
 BYTE   PAN   c_v+0
 BYTE   VOL   30*XenobladeAnObstacleInOurPathMonopolyRubixmidibyMiffe_mvl/mxv
 BYTE   PAN   c_v+0
 BYTE   W96
// 001   ----------------------------------------
Label_3_56355D:
 BYTE   W96
// 002   ----------------------------------------
 BYTE   W96
// 003   ----------------------------------------
 BYTE   W96
// 004   ----------------------------------------
 BYTE   W96
// 005   ----------------------------------------
 BYTE   W96
// 006   ----------------------------------------
 BYTE   W96
// 007   ----------------------------------------
 BYTE   W96
// 008   ----------------------------------------
 BYTE   W96
// 009   ----------------------------------------
 BYTE   W96
// 010   ----------------------------------------
 BYTE   W96
// 011   ----------------------------------------
 BYTE   W96
// 012   ----------------------------------------
 BYTE   N92  En3  v064
 BYTE   N92  Gn3
 BYTE   N92  Bn3
 BYTE   N92  En4
 BYTE   W96
// 013   ----------------------------------------
 BYTE   Ds3
 BYTE   N92  Fs3
 BYTE   N92  Bn3
 BYTE   N92  Ds4
 BYTE   W96
// 014   ----------------------------------------
 BYTE   Dn3
 BYTE   N92  An3
 BYTE   N92  Bn3
 BYTE   N92  Dn4
 BYTE   W96
// 015   ----------------------------------------
 BYTE   Cs3
 BYTE   N92  En3
 BYTE   N92  An3
 BYTE   N92  Bn3
 BYTE   N92  Cs4
 BYTE   W96
// 016   ----------------------------------------
 BYTE   Bn3
 BYTE   N92  Dn4
 BYTE   N92  Gn4
 BYTE   N92  Bn4
 BYTE   W96
// 017   ----------------------------------------
 BYTE   Bn3
 BYTE   N92  Ds4
 BYTE   N92  Fs4
 BYTE   N92  Bn4
 BYTE   W96
// 018   ----------------------------------------
 BYTE   Bn3
 BYTE   N92  En4
 BYTE   N92  Gn4
 BYTE   N92  Bn4
 BYTE   W96
// 019   ----------------------------------------
 BYTE   N08  Bn3  v080
 BYTE   N08  Bn4
 BYTE   W18
 BYTE   Cn4
 BYTE   N08  Cn5
 BYTE   W18
 BYTE   Dn4
 BYTE   N08  Dn5
 BYTE   W18
 BYTE   Bn3
 BYTE   N08  Bn4
 BYTE   W18
 BYTE   N05  Cn4
 BYTE   N05  Cn5
 BYTE   W12
 BYTE   Dn4
 BYTE   N05  Dn5
 BYTE   W12
// 020   ----------------------------------------
 BYTE   W96
// 021   ----------------------------------------
 BYTE   W96
// 022   ----------------------------------------
 BYTE   W96
// 023   ----------------------------------------
 BYTE   W96
// 024   ----------------------------------------
 BYTE   W96
// 025   ----------------------------------------
 BYTE   W96
// 026   ----------------------------------------
 BYTE   W96
// 027   ----------------------------------------
 BYTE   W96
// 028   ----------------------------------------
 BYTE   W96
// 029   ----------------------------------------
 BYTE   W96
// 030   ----------------------------------------
 BYTE   W96
// 031   ----------------------------------------
 BYTE   W96
// 032   ----------------------------------------
 BYTE   W96
// 033   ----------------------------------------
 BYTE   W96
// 034   ----------------------------------------
 BYTE   W96
// 035   ----------------------------------------
 BYTE   W96
// 036   ----------------------------------------
 BYTE   W96
// 037   ----------------------------------------
 BYTE   W96
// 038   ----------------------------------------
 BYTE   W96
// 039   ----------------------------------------
 BYTE   W96
// 040   ----------------------------------------
 BYTE   W96
// 041   ----------------------------------------
 BYTE   W96
// 042   ----------------------------------------
 BYTE   W96
// 043   ----------------------------------------
 BYTE   W96
// 044   ----------------------------------------
 BYTE   W96
// 045   ----------------------------------------
 BYTE   W96
// 046   ----------------------------------------
 BYTE   W24
 BYTE   N44  En3  v112
 BYTE   N44  En4
 BYTE   W48
 BYTE   N11  Ds3
 BYTE   N11  Ds4
 BYTE   W24
// 047   ----------------------------------------
 BYTE   W24
 BYTE   N44  Dn3
 BYTE   N44  Dn4
 BYTE   W48
 BYTE   N11  Cs3
 BYTE   N11  Cs4
 BYTE   W24
// 048   ----------------------------------------
 BYTE   W24
 BYTE   N44  Cn3
 BYTE   N44  Cn4
 BYTE   W48
 BYTE   N11  Bn2
 BYTE   N11  Bn3
 BYTE   W24
// 049   ----------------------------------------
 BYTE   W24
 BYTE   N44  Bn2
 BYTE   N44  Bn3
 BYTE   W48
 BYTE   N11  Dn3
 BYTE   N11  Dn4
 BYTE   W12
 BYTE   Cn3
 BYTE   N11  Cn4
 BYTE   W12
// 050   ----------------------------------------
 BYTE   W24
 BYTE   N44  Gn3
 BYTE   N44  En4
 BYTE   N44  Gn4
 BYTE   W48
 BYTE   N11  En3
 BYTE   N11  En4
 BYTE   W24
// 051   ----------------------------------------
 BYTE   W24
 BYTE   N44  Bn3
 BYTE   N44  Dn4
 BYTE   N44  Bn4
 BYTE   W48
 BYTE   N11  An3
 BYTE   N11  An4
 BYTE   W24
// 052   ----------------------------------------
 BYTE   W24
 BYTE   N44  Ds4
 BYTE   N44  Gn4
 BYTE   N44  Ds5
 BYTE   W48
 BYTE   N11  Cn4
 BYTE   N11  Cn5
 BYTE   W24
// 053   ----------------------------------------
 BYTE   N23  Ds3
 BYTE   N23  Ds4
 BYTE   W24
 BYTE   Fs3
 BYTE   N23  Fs4
 BYTE   W24
 BYTE   Dn3
 BYTE   N23  Dn4
 BYTE   W24
 BYTE   Ds3
 BYTE   N23  Ds4
 BYTE   W24
// 054   ----------------------------------------
 BYTE   N92  En3
 BYTE   N92  En4
 BYTE   W96
// 055   ----------------------------------------
 BYTE   W96
// 056   ----------------------------------------
 BYTE   W96
// 057   ----------------------------------------
 BYTE   W96
// 058   ----------------------------------------
 BYTE   W96
// 059   ----------------------------------------
 BYTE   W96
// 060   ----------------------------------------
 BYTE   W96
// 061   ----------------------------------------
 BYTE   W96
// 062   ----------------------------------------
 BYTE   N56  En3
 BYTE   W48
 BYTE   W12
 BYTE   N11
 BYTE   W12
 BYTE   Fs3
 BYTE   W12
 BYTE   Gn3
 BYTE   W12
// 063   ----------------------------------------
 BYTE   N23  Bn3
 BYTE   W24
 BYTE   An3
 BYTE   W24
 BYTE   Dn4
 BYTE   W24
 BYTE   Cn4
 BYTE   W24
// 064   ----------------------------------------
 BYTE   N56  Bn3
 BYTE   W48
 BYTE   W12
 BYTE   N11  Fn3
 BYTE   W12
 BYTE   Gn3
 BYTE   W12
 BYTE   An3
 BYTE   W12
// 065   ----------------------------------------
 BYTE   N23  Bn3
 BYTE   W24
 BYTE   An3
 BYTE   W24
 BYTE   Dn4
 BYTE   W24
 BYTE   En4
 BYTE   W24
// 066   ----------------------------------------
 BYTE   N56  Bn3
 BYTE   W48
 BYTE   W12
 BYTE   N11  En3
 BYTE   W12
 BYTE   Fs3
 BYTE   W12
 BYTE   Gn3
 BYTE   W12
// 067   ----------------------------------------
 BYTE   N23  Bn3
 BYTE   W24
 BYTE   An3
 BYTE   W24
 BYTE   Bn3
 BYTE   W24
 BYTE   Cn4
 BYTE   W24
// 068   ----------------------------------------
 BYTE   N44  Dn4
 BYTE   W48
 BYTE   Cs4
 BYTE   W48
// 069   ----------------------------------------
 BYTE   En4
 BYTE   W48
 BYTE   Ds4
 BYTE   W48
// 070   ----------------------------------------
Label_3_563692:
 BYTE   N11  En3  v112
 BYTE   N11  En4
 BYTE   W48
 BYTE   Fs3
 BYTE   N11  Fs4
 BYTE   W36
 BYTE   N23  Gn3
 BYTE   N23  Gn4
 BYTE   W12
 BYTE   PEND 
// 071   ----------------------------------------
Label_3_5636A2:
 BYTE   W12
 BYTE   N11  Fs3  v112
 BYTE   N11  Fs4
 BYTE   W12
 BYTE   En3
 BYTE   N11  En4
 BYTE   W72
 BYTE   PEND 
// 072   ----------------------------------------
 BYTE   PATT
  POIN2 Label_3_563692
// 073   ----------------------------------------
 BYTE   W12
 BYTE   N11  Bn3  v112
 BYTE   N11  Bn4
 BYTE   W12
 BYTE   En3
 BYTE   N11  En4
 BYTE   W72
// 074   ----------------------------------------
 BYTE   PATT
  POIN2 Label_3_563692
// 075   ----------------------------------------
 BYTE   PATT
  POIN2 Label_3_5636A2
// 076   ----------------------------------------
 BYTE   PATT
  POIN2 Label_3_563692
// 077   ----------------------------------------
 BYTE   W12
 BYTE   N11  Bn2  v112
 BYTE   N11  Bn3
 BYTE   N11  Bn4
 BYTE   W12
 BYTE   TIE  Cn3
 BYTE   TIE  Cn4
 BYTE   TIE  Cn5
 BYTE   W72
// 078   ----------------------------------------
 BYTE   W92
 BYTE   W03
 BYTE   EOT
 BYTE   Cn3  v072
 BYTE   Cn5
 BYTE   W01
// 079   ----------------------------------------
 BYTE   W96
// 080   ----------------------------------------
 BYTE   GoTo
  POIN2 Label_3_56355D
 BYTE   FINE

//**************** Track 5 (Midi-Chn.4) ****************//

XenobladeAnObstacleInOurPathMonopolyRubixmidibyMiffe_005:
// 000   ----------------------------------------
 BYTE   KEYSH   XenobladeAnObstacleInOurPathMonopolyRubixmidibyMiffe_key+0
 BYTE   VOICE   85
 BYTE   VOL   50*XenobladeAnObstacleInOurPathMonopolyRubixmidibyMiffe_mvl/mxv
 BYTE   PAN   c_v+0
 BYTE   VOL   50*XenobladeAnObstacleInOurPathMonopolyRubixmidibyMiffe_mvl/mxv
 BYTE   PAN   c_v+0
 BYTE   VOL   50*XenobladeAnObstacleInOurPathMonopolyRubixmidibyMiffe_mvl/mxv
 BYTE   PAN   c_v+0
 BYTE   W96
// 001   ----------------------------------------
Label_4_563165:
 BYTE   W96
// 002   ----------------------------------------
 BYTE   W96
// 003   ----------------------------------------
 BYTE   W96
// 004   ----------------------------------------
 BYTE   W96
// 005   ----------------------------------------
 BYTE   W96
// 006   ----------------------------------------
 BYTE   W96
// 007   ----------------------------------------
 BYTE   W96
// 008   ----------------------------------------
 BYTE   W96
// 009   ----------------------------------------
 BYTE   W96
// 010   ----------------------------------------
 BYTE   W96
// 011   ----------------------------------------
 BYTE   W96
// 012   ----------------------------------------
 BYTE   W96
// 013   ----------------------------------------
 BYTE   W96
// 014   ----------------------------------------
 BYTE   W96
// 015   ----------------------------------------
 BYTE   W96
// 016   ----------------------------------------
 BYTE   W96
// 017   ----------------------------------------
 BYTE   W96
// 018   ----------------------------------------
 BYTE   W96
// 019   ----------------------------------------
 BYTE   N08  Bn1  v080
 BYTE   N08  Bn2
 BYTE   W18
 BYTE   Cn2
 BYTE   N08  Cn3
 BYTE   W18
 BYTE   Dn2
 BYTE   N08  Dn3
 BYTE   W18
 BYTE   Bn1
 BYTE   N08  Bn2
 BYTE   W18
 BYTE   N05  Cn2
 BYTE   N05  Cn3
 BYTE   W12
 BYTE   Dn2
 BYTE   N05  Dn3
 BYTE   W12
// 020   ----------------------------------------
 BYTE   W96
// 021   ----------------------------------------
 BYTE   W96
// 022   ----------------------------------------
 BYTE   W96
// 023   ----------------------------------------
 BYTE   W96
// 024   ----------------------------------------
 BYTE   W96
// 025   ----------------------------------------
 BYTE   W96
// 026   ----------------------------------------
 BYTE   W96
// 027   ----------------------------------------
 BYTE   W96
// 028   ----------------------------------------
 BYTE   W96
// 029   ----------------------------------------
 BYTE   W96
// 030   ----------------------------------------
 BYTE   W96
// 031   ----------------------------------------
 BYTE   W96
// 032   ----------------------------------------
 BYTE   W96
// 033   ----------------------------------------
 BYTE   W96
// 034   ----------------------------------------
 BYTE   W96
// 035   ----------------------------------------
 BYTE   W96
// 036   ----------------------------------------
 BYTE   W96
// 037   ----------------------------------------
 BYTE   W96
// 038   ----------------------------------------
Label_4_5631A4:
 BYTE   N11  En1  v112
 BYTE   N11  En2
 BYTE   N11  En3
 BYTE   W36
 BYTE   Fn1
 BYTE   N11  Fn2
 BYTE   N11  Fn3
 BYTE   W24
 BYTE   Dn1
 BYTE   N11  Dn2
 BYTE   N11  Dn3
 BYTE   W12
 BYTE   En1
 BYTE   N11  En2
 BYTE   N11  En3
 BYTE   W24
 BYTE   PEND 
// 039   ----------------------------------------
Label_4_5631BF:
 BYTE   W12
 BYTE   N11  Gn1  v112
 BYTE   N11  Gn2
 BYTE   N11  Gn3
 BYTE   W12
 BYTE   Fs1
 BYTE   N11  Fs2
 BYTE   N11  Fs3
 BYTE   W12
 BYTE   Fn1
 BYTE   N11  Fn2
 BYTE   N11  Fn3
 BYTE   W24
 BYTE   Ds1
 BYTE   N11  Ds2
 BYTE   N11  Ds3
 BYTE   W24
 BYTE   Fn1
 BYTE   N11  Fn2
 BYTE   N11  Fn3
 BYTE   W12
 BYTE   PEND 
// 040   ----------------------------------------
 BYTE   PATT
  POIN2 Label_4_5631A4
// 041   ----------------------------------------
Label_4_5631E6:
 BYTE   W12
 BYTE   N11  Gn1  v112
 BYTE   N11  Gn2
 BYTE   N11  Gn3
 BYTE   W12
 BYTE   Fs1
 BYTE   N11  Fs2
 BYTE   N11  Fs3
 BYTE   W12
 BYTE   Fn1
 BYTE   N11  Fn2
 BYTE   N11  Fn3
 BYTE   W12
 BYTE   N05  An1
 BYTE   N05  An2
 BYTE   N05  An3
 BYTE   W06
 BYTE   Bn1
 BYTE   N05  Bn2
 BYTE   N05  Bn3
 BYTE   W06
 BYTE   N11  Cn2
 BYTE   N11  Cn3
 BYTE   N11  Cn4
 BYTE   W12
 BYTE   N05  An1
 BYTE   N05  An2
 BYTE   N05  An3
 BYTE   W06
 BYTE   Bn1
 BYTE   N05  Bn2
 BYTE   N05  Bn3
 BYTE   W06
 BYTE   N11  Cn2
 BYTE   N11  Cn3
 BYTE   N11  Cn4
 BYTE   W12
 BYTE   PEND 
// 042   ----------------------------------------
 BYTE   PATT
  POIN2 Label_4_5631A4
// 043   ----------------------------------------
 BYTE   PATT
  POIN2 Label_4_5631BF
// 044   ----------------------------------------
 BYTE   N11  En1  v112
 BYTE   N11  En2
 BYTE   N11  En3
 BYTE   W18
 BYTE   En1
 BYTE   N11  En2
 BYTE   N11  En3
 BYTE   W18
 BYTE   Fn1
 BYTE   N11  Fn2
 BYTE   N11  Fn3
 BYTE   W24
 BYTE   Dn1
 BYTE   N11  Dn2
 BYTE   N11  Dn3
 BYTE   W12
 BYTE   En1
 BYTE   N11  En2
 BYTE   N11  En3
 BYTE   W24
// 045   ----------------------------------------
 BYTE   PATT
  POIN2 Label_4_5631E6
// 046   ----------------------------------------
 BYTE   W24
 BYTE   N44  En2  v112
 BYTE   W48
 BYTE   N11  Ds2
 BYTE   W24
// 047   ----------------------------------------
 BYTE   W24
 BYTE   N44  Dn2
 BYTE   W48
 BYTE   N11  Cs2
 BYTE   W24
// 048   ----------------------------------------
 BYTE   W24
 BYTE   N44  Cn2
 BYTE   W48
 BYTE   N11  Bn1
 BYTE   W24
// 049   ----------------------------------------
 BYTE   W24
 BYTE   N44
 BYTE   W48
 BYTE   N11  Dn2
 BYTE   W12
 BYTE   Cn2
 BYTE   W12
// 050   ----------------------------------------
 BYTE   W24
 BYTE   N44  Gn2
 BYTE   N44  Dn3
 BYTE   W48
 BYTE   N11  En2
 BYTE   W24
// 051   ----------------------------------------
 BYTE   W24
 BYTE   N44  Bn2
 BYTE   N44  Dn3
 BYTE   W48
 BYTE   N11  An2
 BYTE   W24
// 052   ----------------------------------------
 BYTE   W24
 BYTE   N44  Gn2
 BYTE   N44  Ds3
 BYTE   W48
 BYTE   N11  Cn3
 BYTE   W24
// 053   ----------------------------------------
 BYTE   N23  Ds1
 BYTE   N23  Ds2
 BYTE   W24
 BYTE   Fs1
 BYTE   N23  Fs2
 BYTE   W24
 BYTE   Dn1
 BYTE   N23  Dn2
 BYTE   W24
 BYTE   Ds1
 BYTE   N23  Ds2
 BYTE   W24
// 054   ----------------------------------------
 BYTE   N92  En2
 BYTE   W96
// 055   ----------------------------------------
 BYTE   W96
// 056   ----------------------------------------
 BYTE   W96
// 057   ----------------------------------------
 BYTE   W96
// 058   ----------------------------------------
 BYTE   W96
// 059   ----------------------------------------
 BYTE   W96
// 060   ----------------------------------------
 BYTE   W96
// 061   ----------------------------------------
 BYTE   W96
// 062   ----------------------------------------
 BYTE   N56
 BYTE   W48
 BYTE   W12
 BYTE   N11
 BYTE   W12
 BYTE   Fs2
 BYTE   W12
 BYTE   Gn2
 BYTE   W12
// 063   ----------------------------------------
 BYTE   N23  Bn2
 BYTE   W24
 BYTE   An2
 BYTE   W24
 BYTE   Dn3
 BYTE   W24
 BYTE   Cn3
 BYTE   W24
// 064   ----------------------------------------
 BYTE   N56  Bn2
 BYTE   W48
 BYTE   W12
 BYTE   N11  Fn2
 BYTE   W12
 BYTE   Gn2
 BYTE   W12
 BYTE   An2
 BYTE   W12
// 065   ----------------------------------------
 BYTE   N23  Bn2
 BYTE   W24
 BYTE   An2
 BYTE   W24
 BYTE   Dn3
 BYTE   W24
 BYTE   En3
 BYTE   W24
// 066   ----------------------------------------
 BYTE   N56  Bn2
 BYTE   W48
 BYTE   W12
 BYTE   N11  En2
 BYTE   W12
 BYTE   Fs2
 BYTE   W12
 BYTE   Gn2
 BYTE   W12
// 067   ----------------------------------------
 BYTE   N23  Bn2
 BYTE   W24
 BYTE   An2
 BYTE   W24
 BYTE   Bn2
 BYTE   W24
 BYTE   Cn3
 BYTE   W24
// 068   ----------------------------------------
 BYTE   N44  Dn3
 BYTE   W48
 BYTE   Cs3
 BYTE   W48
// 069   ----------------------------------------
 BYTE   En3
 BYTE   W48
 BYTE   Ds3
 BYTE   W48
// 070   ----------------------------------------
Label_4_5632EA:
 BYTE   N11  En2  v112
 BYTE   N11  En3
 BYTE   W48
 BYTE   Fs2
 BYTE   N11  Fs3
 BYTE   W36
 BYTE   N23  Gn2
 BYTE   N23  Gn3
 BYTE   W12
 BYTE   PEND 
// 071   ----------------------------------------
Label_4_5632FA:
 BYTE   W12
 BYTE   N11  Fs2  v112
 BYTE   N11  Fs3
 BYTE   W12
 BYTE   En2
 BYTE   N11  En3
 BYTE   W72
 BYTE   PEND 
// 072   ----------------------------------------
 BYTE   PATT
  POIN2 Label_4_5632EA
// 073   ----------------------------------------
 BYTE   W12
 BYTE   N11  Bn2  v112
 BYTE   N11  Bn3
 BYTE   W12
 BYTE   En2
 BYTE   N11  En3
 BYTE   W72
// 074   ----------------------------------------
 BYTE   PATT
  POIN2 Label_4_5632EA
// 075   ----------------------------------------
 BYTE   PATT
  POIN2 Label_4_5632FA
// 076   ----------------------------------------
 BYTE   PATT
  POIN2 Label_4_5632EA
// 077   ----------------------------------------
 BYTE   W12
 BYTE   N11  Bn2  v112
 BYTE   W12
 BYTE   TIE  Cn3
 BYTE   W72
// 078   ----------------------------------------
 BYTE   W92
 BYTE   W03
 BYTE   EOT
 BYTE   W01
// 079   ----------------------------------------
 BYTE   W96
// 080   ----------------------------------------
 BYTE   GoTo
  POIN2 Label_4_563165
 BYTE   FINE

//**************** Track 6 (Midi-Chn.5) ****************//

XenobladeAnObstacleInOurPathMonopolyRubixmidibyMiffe_006:
// 000   ----------------------------------------
 BYTE   KEYSH   XenobladeAnObstacleInOurPathMonopolyRubixmidibyMiffe_key+0
 BYTE   VOICE   60
 BYTE   VOL   50*XenobladeAnObstacleInOurPathMonopolyRubixmidibyMiffe_mvl/mxv
 BYTE   PAN   c_v+0
 BYTE   VOL   50*XenobladeAnObstacleInOurPathMonopolyRubixmidibyMiffe_mvl/mxv
 BYTE   PAN   c_v+0
 BYTE   VOL   50*XenobladeAnObstacleInOurPathMonopolyRubixmidibyMiffe_mvl/mxv
 BYTE   PAN   c_v+0
 BYTE   W96
// 001   ----------------------------------------
Label_5_01409C0D:
 BYTE   W96
// 002   ----------------------------------------
 BYTE   W96
// 003   ----------------------------------------
 BYTE   N05  En5  v080
 BYTE   W12
 BYTE   N02  Bn5
 BYTE   W02
 BYTE   N04  Cn6
 BYTE   W10
 BYTE   N05  Bn5
 BYTE   W12
 BYTE   Gn5
 BYTE   W12
 BYTE   As5
 BYTE   W12
 BYTE   Fs5
 BYTE   W12
 BYTE   An5
 BYTE   W12
 BYTE   Fn5
 BYTE   W12
// 004   ----------------------------------------
 BYTE   En5
 BYTE   W96
// 005   ----------------------------------------
 BYTE   W96
// 006   ----------------------------------------
 BYTE   W96
// 007   ----------------------------------------
 BYTE   W96
// 008   ----------------------------------------
 BYTE   W96
// 009   ----------------------------------------
 BYTE   W96
// 010   ----------------------------------------
 BYTE   W96
// 011   ----------------------------------------
 BYTE   W96
// 012   ----------------------------------------
 BYTE   W96
// 013   ----------------------------------------
 BYTE   W96
// 014   ----------------------------------------
 BYTE   W96
// 015   ----------------------------------------
 BYTE   W96
// 016   ----------------------------------------
 BYTE   W96
// 017   ----------------------------------------
 BYTE   W96
// 018   ----------------------------------------
 BYTE   W96
// 019   ----------------------------------------
 BYTE   W96
// 020   ----------------------------------------
 BYTE   W96
// 021   ----------------------------------------
 BYTE   W96
// 022   ----------------------------------------
Label_5_01409C39:
 BYTE   N56  En4  v080
 BYTE   W48
 BYTE   W12
 BYTE   N11
 BYTE   W12
 BYTE   Fs4
 BYTE   W12
 BYTE   Gn4
 BYTE   W12
 BYTE   PEND 
// 023   ----------------------------------------
Label_5_01409C45:
 BYTE   N23  Bn4  v080
 BYTE   W24
 BYTE   An4
 BYTE   W24
 BYTE   Gn4
 BYTE   W24
 BYTE   Fs4
 BYTE   W24
 BYTE   PEND 
// 024   ----------------------------------------
Label_5_01409C50:
 BYTE   N56  Fn4  v080
 BYTE   W48
 BYTE   W12
 BYTE   N11
 BYTE   W12
 BYTE   Gn4
 BYTE   W12
 BYTE   An4
 BYTE   W12
 BYTE   PEND 
// 025   ----------------------------------------
Label_5_01409C5C:
 BYTE   N23  Bn4  v080
 BYTE   W24
 BYTE   An4
 BYTE   W24
 BYTE   N32  Bn4
 BYTE   W36
 BYTE   N11  Cn5
 BYTE   W12
 BYTE   PEND 
// 026   ----------------------------------------
Label_5_01409C69:
 BYTE   N56  Bn4  v080
 BYTE   W48
 BYTE   W12
 BYTE   N11  En4
 BYTE   W12
 BYTE   Fs4
 BYTE   W12
 BYTE   Gn4
 BYTE   W12
 BYTE   PEND 
// 027   ----------------------------------------
Label_5_01409C76:
 BYTE   N23  Bn4  v080
 BYTE   W24
 BYTE   An4
 BYTE   W24
 BYTE   Dn5
 BYTE   W24
 BYTE   Cn5
 BYTE   W24
 BYTE   PEND 
// 028   ----------------------------------------
Label_5_01409C81:
 BYTE   N44  Bn4  v080
 BYTE   W48
 BYTE   An4
 BYTE   W48
 BYTE   PEND 
// 029   ----------------------------------------
Label_5_01409C88:
 BYTE   N44  Gn4  v080
 BYTE   W48
 BYTE   Fs4
 BYTE   W48
 BYTE   PEND 
// 030   ----------------------------------------
 BYTE   PATT
  POIN2 Label_5_01409C39
// 031   ----------------------------------------
 BYTE   PATT
  POIN2 Label_5_01409C76
// 032   ----------------------------------------
Label_5_01409C99:
 BYTE   N56  Bn4  v080
 BYTE   W48
 BYTE   W12
 BYTE   N11  Fn4
 BYTE   W12
 BYTE   Gn4
 BYTE   W12
 BYTE   An4
 BYTE   W12
 BYTE   PEND 
// 033   ----------------------------------------
Label_5_01409CA6:
 BYTE   N23  Bn4  v080
 BYTE   W24
 BYTE   An4
 BYTE   W24
 BYTE   Dn5
 BYTE   W24
 BYTE   En5
 BYTE   W24
 BYTE   PEND 
// 034   ----------------------------------------
 BYTE   PATT
  POIN2 Label_5_01409C69
// 035   ----------------------------------------
Label_5_01409CB6:
 BYTE   N23  Bn4  v080
 BYTE   W24
 BYTE   An4
 BYTE   W24
 BYTE   Bn4
 BYTE   W24
 BYTE   Cn5
 BYTE   W24
 BYTE   PEND 
// 036   ----------------------------------------
Label_5_01409CC1:
 BYTE   N44  Dn5  v080
 BYTE   W48
 BYTE   Cs5
 BYTE   W48
 BYTE   PEND 
// 037   ----------------------------------------
Label_5_01409CC8:
 BYTE   N44  En5  v080
 BYTE   W48
 BYTE   Ds5
 BYTE   W48
 BYTE   PEND 
// 038   ----------------------------------------
 BYTE   TIE  En5
 BYTE   W96
// 039   ----------------------------------------
Label_5_01409CD2:
 BYTE   W92
 BYTE   W03
 BYTE   PEND 
 BYTE   EOT
 BYTE   En5
 BYTE   W01
// 040   ----------------------------------------
 BYTE   W96
// 041   ----------------------------------------
 BYTE   W96
// 042   ----------------------------------------
 BYTE   W96
// 043   ----------------------------------------
 BYTE   W96
// 044   ----------------------------------------
 BYTE   W96
// 045   ----------------------------------------
 BYTE   W96
// 046   ----------------------------------------
 BYTE   W96
// 047   ----------------------------------------
 BYTE   W96
// 048   ----------------------------------------
 BYTE   W96
// 049   ----------------------------------------
 BYTE   W96
// 050   ----------------------------------------
 BYTE   W96
// 051   ----------------------------------------
 BYTE   W96
// 052   ----------------------------------------
 BYTE   W96
// 053   ----------------------------------------
 BYTE   N23  Ds5  v080
 BYTE   W24
 BYTE   Fs5
 BYTE   W24
 BYTE   Dn5
 BYTE   W24
 BYTE   Ds5
 BYTE   W24
// 054   ----------------------------------------
 BYTE   N56  En4
 BYTE   N92  En5
 BYTE   W48
 BYTE   W12
 BYTE   N11  En4
 BYTE   W12
 BYTE   Fs4
 BYTE   W12
 BYTE   Gn4
 BYTE   W12
// 055   ----------------------------------------
 BYTE   PATT
  POIN2 Label_5_01409C45
// 056   ----------------------------------------
 BYTE   PATT
  POIN2 Label_5_01409C50
// 057   ----------------------------------------
 BYTE   PATT
  POIN2 Label_5_01409C5C
// 058   ----------------------------------------
 BYTE   PATT
  POIN2 Label_5_01409C69
// 059   ----------------------------------------
 BYTE   PATT
  POIN2 Label_5_01409C76
// 060   ----------------------------------------
 BYTE   PATT
  POIN2 Label_5_01409C81
// 061   ----------------------------------------
 BYTE   PATT
  POIN2 Label_5_01409C88
// 062   ----------------------------------------
 BYTE   PATT
  POIN2 Label_5_01409C39
// 063   ----------------------------------------
 BYTE   PATT
  POIN2 Label_5_01409C76
// 064   ----------------------------------------
 BYTE   PATT
  POIN2 Label_5_01409C99
// 065   ----------------------------------------
 BYTE   PATT
  POIN2 Label_5_01409CA6
// 066   ----------------------------------------
 BYTE   PATT
  POIN2 Label_5_01409C69
// 067   ----------------------------------------
 BYTE   PATT
  POIN2 Label_5_01409CB6
// 068   ----------------------------------------
 BYTE   PATT
  POIN2 Label_5_01409CC1
// 069   ----------------------------------------
 BYTE   PATT
  POIN2 Label_5_01409CC8
// 070   ----------------------------------------
Label_5_01409D47:
 BYTE   N11  En4  v080
 BYTE   W48
 BYTE   Fs4
 BYTE   W36
 BYTE   N23  Gn4
 BYTE   W12
 BYTE   PEND 
// 071   ----------------------------------------
Label_5_01409D51:
 BYTE   W12
 BYTE   N11  Fs4  v080
 BYTE   W12
 BYTE   En4
 BYTE   W72
 BYTE   PEND 
// 072   ----------------------------------------
 BYTE   PATT
  POIN2 Label_5_01409D47
// 073   ----------------------------------------
 BYTE   W12
 BYTE   N11  Bn4  v080
 BYTE   W12
 BYTE   En4
 BYTE   W72
// 074   ----------------------------------------
 BYTE   PATT
  POIN2 Label_5_01409D47
// 075   ----------------------------------------
 BYTE   PATT
  POIN2 Label_5_01409D51
// 076   ----------------------------------------
 BYTE   PATT
  POIN2 Label_5_01409D47
// 077   ----------------------------------------
 BYTE   W12
 BYTE   N11  Bn4  v080
 BYTE   W12
 BYTE   TIE  Cn5
 BYTE   W72
// 078   ----------------------------------------
 BYTE   PATT
  POIN2 Label_5_01409CD2
// 079   ----------------------------------------
 BYTE   EOT
 BYTE   Cn5
 BYTE   W01
 BYTE   W96
// 080   ----------------------------------------
 BYTE   GoTo
  POIN2 Label_5_01409C0D
 BYTE   FINE

//**************** Track 7 (Midi-Chn.6) ****************//

XenobladeAnObstacleInOurPathMonopolyRubixmidibyMiffe_007:
// 000   ----------------------------------------
 BYTE   KEYSH   XenobladeAnObstacleInOurPathMonopolyRubixmidibyMiffe_key+0
 BYTE   VOICE   29
 BYTE   VOL   77*XenobladeAnObstacleInOurPathMonopolyRubixmidibyMiffe_mvl/mxv
 BYTE   PAN   c_v+0
 BYTE   VOL   77*XenobladeAnObstacleInOurPathMonopolyRubixmidibyMiffe_mvl/mxv
 BYTE   PAN   c_v+0
 BYTE   VOL   77*XenobladeAnObstacleInOurPathMonopolyRubixmidibyMiffe_mvl/mxv
 BYTE   PAN   c_v+0
 BYTE   W96
// 001   ----------------------------------------
Label_6_01409D9D:
 BYTE   W96
// 002   ----------------------------------------
 BYTE   W96
// 003   ----------------------------------------
 BYTE   W96
// 004   ----------------------------------------
 BYTE   W96
// 005   ----------------------------------------
 BYTE   W96
// 006   ----------------------------------------
 BYTE   W96
// 007   ----------------------------------------
 BYTE   W96
// 008   ----------------------------------------
 BYTE   W96
// 009   ----------------------------------------
 BYTE   W96
// 010   ----------------------------------------
 BYTE   W96
// 011   ----------------------------------------
 BYTE   W96
// 012   ----------------------------------------
 BYTE   W96
// 013   ----------------------------------------
 BYTE   W96
// 014   ----------------------------------------
 BYTE   W96
// 015   ----------------------------------------
 BYTE   W96
// 016   ----------------------------------------
 BYTE   W96
// 017   ----------------------------------------
 BYTE   W96
// 018   ----------------------------------------
 BYTE   W96
// 019   ----------------------------------------
 BYTE   W96
// 020   ----------------------------------------
 BYTE   W96
// 021   ----------------------------------------
 BYTE   W96
// 022   ----------------------------------------
Label_6_01409DB2:
 BYTE   N05  En2  v064
 BYTE   W06
 BYTE   Fs2
 BYTE   W06
 BYTE   Gn2
 BYTE   W06
 BYTE   An2
 BYTE   W06
 BYTE   N11  Bn2
 BYTE   W12
 BYTE   N05  En2
 BYTE   W06
 BYTE   Fs2
 BYTE   W06
 BYTE   Gn2
 BYTE   W06
 BYTE   An2
 BYTE   W06
 BYTE   N11  Bn2
 BYTE   W12
 BYTE   N05  En2
 BYTE   W06
 BYTE   Fs2
 BYTE   W06
 BYTE   Gn2
 BYTE   W06
 BYTE   An2
 BYTE   W06
 BYTE   PEND 
// 023   ----------------------------------------
Label_6_01409DD5:
 BYTE   N05  En2  v064
 BYTE   W06
 BYTE   Fs2
 BYTE   W06
 BYTE   Gn2
 BYTE   W06
 BYTE   An2
 BYTE   W06
 BYTE   N11  Bn2
 BYTE   W12
 BYTE   N05  En2
 BYTE   W06
 BYTE   Fs2
 BYTE   W06
 BYTE   Gn2
 BYTE   W06
 BYTE   An2
 BYTE   W06
 BYTE   N11  Bn2
 BYTE   W12
 BYTE   N05  En2
 BYTE   W06
 BYTE   Fs2
 BYTE   W06
 BYTE   Gn2
 BYTE   W06
 BYTE   An2
 BYTE   W06
 BYTE   PEND 
// 024   ----------------------------------------
Label_6_01409DF8:
 BYTE   N05  Fn2  v064
 BYTE   W06
 BYTE   Gn2
 BYTE   W06
 BYTE   An2
 BYTE   W06
 BYTE   Bn2
 BYTE   W06
 BYTE   N11  Cn3
 BYTE   W12
 BYTE   N05  Fn2
 BYTE   W06
 BYTE   Gn2
 BYTE   W06
 BYTE   An2
 BYTE   W06
 BYTE   Bn2
 BYTE   W06
 BYTE   N11  Cn3
 BYTE   W12
 BYTE   N05  Fn2
 BYTE   W06
 BYTE   Gn2
 BYTE   W06
 BYTE   An2
 BYTE   W06
 BYTE   Bn2
 BYTE   W06
 BYTE   PEND 
// 025   ----------------------------------------
Label_6_01409E1B:
 BYTE   N05  Fn2  v064
 BYTE   W06
 BYTE   Gn2
 BYTE   W06
 BYTE   An2
 BYTE   W06
 BYTE   Bn2
 BYTE   W06
 BYTE   N11  Cn3
 BYTE   W12
 BYTE   N05  Fn2
 BYTE   W06
 BYTE   Gn2
 BYTE   W06
 BYTE   An2
 BYTE   W06
 BYTE   Bn2
 BYTE   W06
 BYTE   N11  Cn3
 BYTE   W12
 BYTE   N05  Fn2
 BYTE   W06
 BYTE   Gn2
 BYTE   W06
 BYTE   An2
 BYTE   W06
 BYTE   Bn2
 BYTE   W06
 BYTE   PEND 
// 026   ----------------------------------------
Label_6_01409E3E:
 BYTE   N05  Gn2  v064
 BYTE   W06
 BYTE   An2
 BYTE   W06
 BYTE   Bn2
 BYTE   W06
 BYTE   Cn3
 BYTE   W06
 BYTE   N11  Dn3
 BYTE   W12
 BYTE   N05  Gn2
 BYTE   W06
 BYTE   An2
 BYTE   W06
 BYTE   Bn2
 BYTE   W06
 BYTE   Cn3
 BYTE   W06
 BYTE   N11  Dn3
 BYTE   W12
 BYTE   N05  Gn2
 BYTE   W06
 BYTE   An2
 BYTE   W06
 BYTE   Bn2
 BYTE   W06
 BYTE   Cn3
 BYTE   W06
 BYTE   PEND 
// 027   ----------------------------------------
Label_6_01409E61:
 BYTE   N05  Gn2  v064
 BYTE   W06
 BYTE   An2
 BYTE   W06
 BYTE   Bn2
 BYTE   W06
 BYTE   Cn3
 BYTE   W06
 BYTE   N11  Dn3
 BYTE   W12
 BYTE   N05  Gn2
 BYTE   W06
 BYTE   An2
 BYTE   W06
 BYTE   Bn2
 BYTE   W06
 BYTE   Cn3
 BYTE   W06
 BYTE   N11  Dn3
 BYTE   W12
 BYTE   N05  Gn2
 BYTE   W06
 BYTE   An2
 BYTE   W06
 BYTE   Bn2
 BYTE   W06
 BYTE   Cn3
 BYTE   W06
 BYTE   PEND 
// 028   ----------------------------------------
Label_6_01409E84:
 BYTE   N05  En2  v064
 BYTE   W06
 BYTE   Fs2
 BYTE   W06
 BYTE   Gn2
 BYTE   W06
 BYTE   An2
 BYTE   W06
 BYTE   N11  Bn2
 BYTE   W12
 BYTE   N05  En2
 BYTE   W06
 BYTE   Fs2
 BYTE   W06
 BYTE   Gn2
 BYTE   W06
 BYTE   An2
 BYTE   W06
 BYTE   N11  Bn2
 BYTE   W12
 BYTE   N05  En2
 BYTE   W06
 BYTE   Fs2
 BYTE   W06
 BYTE   Gn2
 BYTE   W06
 BYTE   An2
 BYTE   W06
 BYTE   PEND 
// 029   ----------------------------------------
Label_6_01409EA7:
 BYTE   N05  Ds2  v064
 BYTE   W06
 BYTE   Fn2
 BYTE   W06
 BYTE   Fs2
 BYTE   W06
 BYTE   Gn2
 BYTE   W06
 BYTE   N11  An2
 BYTE   W12
 BYTE   N05  Ds2
 BYTE   W06
 BYTE   Fn2
 BYTE   W06
 BYTE   Fs2
 BYTE   W06
 BYTE   Gn2
 BYTE   W06
 BYTE   N11  An2
 BYTE   W12
 BYTE   N05  Ds2
 BYTE   W06
 BYTE   Fn2
 BYTE   W06
 BYTE   Fs2
 BYTE   W06
 BYTE   Gn2
 BYTE   W06
 BYTE   PEND 
// 030   ----------------------------------------
 BYTE   PATT
  POIN2 Label_6_01409DB2
// 031   ----------------------------------------
 BYTE   PATT
  POIN2 Label_6_01409DD5
// 032   ----------------------------------------
 BYTE   PATT
  POIN2 Label_6_01409DF8
// 033   ----------------------------------------
Label_6_01409ED9:
 BYTE   N05  Fn2  v064
 BYTE   W06
 BYTE   Gn2
 BYTE   W06
 BYTE   An2
 BYTE   W06
 BYTE   Bn2
 BYTE   W06
 BYTE   N11  Cn3
 BYTE   W12
 BYTE   N05  Fn2
 BYTE   W06
 BYTE   Gn2
 BYTE   W06
 BYTE   An2
 BYTE   W06
 BYTE   Bn2
 BYTE   W06
 BYTE   N11  Cn3
 BYTE   W12
 BYTE   N05  Fn2
 BYTE   W06
 BYTE   Gn2
 BYTE   W06
 BYTE   An2
 BYTE   W06
 BYTE   Bn2
 BYTE   W06
 BYTE   PEND 
// 034   ----------------------------------------
 BYTE   PATT
  POIN2 Label_6_01409E3E
// 035   ----------------------------------------
 BYTE   PATT
  POIN2 Label_6_01409E61
// 036   ----------------------------------------
 BYTE   PATT
  POIN2 Label_6_01409E84
// 037   ----------------------------------------
Label_6_01409F0B:
 BYTE   N05  Bn1  v064
 BYTE   W06
 BYTE   Cs2
 BYTE   W06
 BYTE   Dn2
 BYTE   W06
 BYTE   En2
 BYTE   W06
 BYTE   N11  Fs2
 BYTE   W12
 BYTE   N05  Bn1
 BYTE   W06
 BYTE   Cs2
 BYTE   W06
 BYTE   Dn2
 BYTE   W06
 BYTE   En2
 BYTE   W06
 BYTE   N11  Fs2
 BYTE   W12
 BYTE   N05  Bn1
 BYTE   W06
 BYTE   Cs2
 BYTE   W06
 BYTE   Dn2
 BYTE   W06
 BYTE   En2
 BYTE   W06
 BYTE   PEND 
// 038   ----------------------------------------
 BYTE   W96
// 039   ----------------------------------------
 BYTE   W96
// 040   ----------------------------------------
 BYTE   W96
// 041   ----------------------------------------
 BYTE   W96
// 042   ----------------------------------------
 BYTE   W96
// 043   ----------------------------------------
 BYTE   W96
// 044   ----------------------------------------
 BYTE   W96
// 045   ----------------------------------------
 BYTE   W96
// 046   ----------------------------------------
 BYTE   N23  En1
 BYTE   W72
 BYTE   N11
 BYTE   W24
// 047   ----------------------------------------
Label_6_01409F3B:
 BYTE   N23  En1  v064
 BYTE   W72
 BYTE   N11
 BYTE   W24
 BYTE   PEND 
// 048   ----------------------------------------
 BYTE   PATT
  POIN2 Label_6_01409F3B
// 049   ----------------------------------------
 BYTE   N23  Ds1  v064
 BYTE   W72
 BYTE   N11  Bn0
 BYTE   W12
 BYTE   Cn1
 BYTE   W12
// 050   ----------------------------------------
 BYTE   PATT
  POIN2 Label_6_01409F3B
// 051   ----------------------------------------
 BYTE   PATT
  POIN2 Label_6_01409F3B
// 052   ----------------------------------------
 BYTE   PATT
  POIN2 Label_6_01409F3B
// 053   ----------------------------------------
 BYTE   N23  Ds2  v064
 BYTE   W24
 BYTE   Fs2
 BYTE   W24
 BYTE   Dn2
 BYTE   W24
 BYTE   Ds2
 BYTE   W24
// 054   ----------------------------------------
 BYTE   PATT
  POIN2 Label_6_01409DB2
// 055   ----------------------------------------
 BYTE   PATT
  POIN2 Label_6_01409DD5
// 056   ----------------------------------------
 BYTE   PATT
  POIN2 Label_6_01409DF8
// 057   ----------------------------------------
 BYTE   PATT
  POIN2 Label_6_01409E1B
// 058   ----------------------------------------
 BYTE   PATT
  POIN2 Label_6_01409E3E
// 059   ----------------------------------------
 BYTE   PATT
  POIN2 Label_6_01409E61
// 060   ----------------------------------------
 BYTE   PATT
  POIN2 Label_6_01409E84
// 061   ----------------------------------------
 BYTE   PATT
  POIN2 Label_6_01409EA7
// 062   ----------------------------------------
 BYTE   PATT
  POIN2 Label_6_01409DB2
// 063   ----------------------------------------
 BYTE   PATT
  POIN2 Label_6_01409DD5
// 064   ----------------------------------------
 BYTE   PATT
  POIN2 Label_6_01409DF8
// 065   ----------------------------------------
 BYTE   PATT
  POIN2 Label_6_01409ED9
// 066   ----------------------------------------
 BYTE   PATT
  POIN2 Label_6_01409E3E
// 067   ----------------------------------------
 BYTE   PATT
  POIN2 Label_6_01409E61
// 068   ----------------------------------------
 BYTE   PATT
  POIN2 Label_6_01409E84
// 069   ----------------------------------------
 BYTE   PATT
  POIN2 Label_6_01409F0B
// 070   ----------------------------------------
Label_6_01409FB9:
 BYTE   N11  En2  v064
 BYTE   W48
 BYTE   Fs2
 BYTE   W36
 BYTE   N23  Gn2
 BYTE   W12
 BYTE   PEND 
// 071   ----------------------------------------
Label_6_01409FC3:
 BYTE   W12
 BYTE   N11  Fs2  v064
 BYTE   W12
 BYTE   En2
 BYTE   W72
 BYTE   PEND 
// 072   ----------------------------------------
 BYTE   PATT
  POIN2 Label_6_01409FB9
// 073   ----------------------------------------
 BYTE   W12
 BYTE   N11  Bn2  v064
 BYTE   W12
 BYTE   En2
 BYTE   W72
// 074   ----------------------------------------
 BYTE   PATT
  POIN2 Label_6_01409FB9
// 075   ----------------------------------------
 BYTE   PATT
  POIN2 Label_6_01409FC3
// 076   ----------------------------------------
 BYTE   PATT
  POIN2 Label_6_01409FB9
// 077   ----------------------------------------
 BYTE   W12
 BYTE   N11  Bn2  v064
 BYTE   W12
 BYTE   TIE  Cn3
 BYTE   W72
// 078   ----------------------------------------
 BYTE   W92
 BYTE   W03
 BYTE   EOT
 BYTE   W01
// 079   ----------------------------------------
 BYTE   W96
// 080   ----------------------------------------
 BYTE   GoTo
  POIN2 Label_6_01409D9D
 BYTE   FINE

//**************** Track 8 (Midi-Chn.7) ****************//

XenobladeAnObstacleInOurPathMonopolyRubixmidibyMiffe_008:
// 000   ----------------------------------------
 BYTE   KEYSH   XenobladeAnObstacleInOurPathMonopolyRubixmidibyMiffe_key+0
 BYTE   VOICE   38
 BYTE   VOL   50*XenobladeAnObstacleInOurPathMonopolyRubixmidibyMiffe_mvl/mxv
 BYTE   PAN   c_v+0
 BYTE   VOL   50*XenobladeAnObstacleInOurPathMonopolyRubixmidibyMiffe_mvl/mxv
 BYTE   PAN   c_v+0
 BYTE   VOL   50*XenobladeAnObstacleInOurPathMonopolyRubixmidibyMiffe_mvl/mxv
 BYTE   PAN   c_v+0
 BYTE   N11  En0  v080
 BYTE   N05  En3  v064
 BYTE   W12
 BYTE   N11  Gn0  v080
 BYTE   N05  Gn3  v064
 BYTE   W12
 BYTE   N11  Fs0  v080
 BYTE   N05  Fs3  v064
 BYTE   W12
 BYTE   N11  Fn0  v080
 BYTE   N05  Fn3  v064
 BYTE   W12
 BYTE   N11  En0  v080
 BYTE   N05  En3  v064
 BYTE   W12
 BYTE   N11  Gn0  v080
 BYTE   N05  Gn3  v064
 BYTE   W12
 BYTE   Fs0  v080
 BYTE   N05  Fs3  v064
 BYTE   W06
 BYTE   Gn0  v080
 BYTE   N05  Gn3  v064
 BYTE   W06
 BYTE   N11  An0  v080
 BYTE   N11  An3  v064
 BYTE   W12
// 001   ----------------------------------------
Label_7_0140A049:
 BYTE   N11  En0  v080
 BYTE   N05  En3  v064
 BYTE   W12
 BYTE   N11  Gn0  v080
 BYTE   N05  Gn3  v064
 BYTE   W12
 BYTE   N11  Fs0  v080
 BYTE   N05  Fs3  v064
 BYTE   W12
 BYTE   N11  Fn0  v080
 BYTE   N05  Fn3  v064
 BYTE   W12
 BYTE   En0  v080
 BYTE   N05  En3  v064
 BYTE   W06
 BYTE   Gn0  v080
 BYTE   N05  Gn3  v064
 BYTE   W06
 BYTE   N11  An0  v080
 BYTE   N11  An3  v064
 BYTE   W12
 BYTE   N05  En0  v080
 BYTE   N05  En3  v064
 BYTE   W06
 BYTE   Gn0  v080
 BYTE   N05  Gn3  v064
 BYTE   W06
 BYTE   N11  As0  v080
 BYTE   N11  As3  v064
 BYTE   W12
// 002   ----------------------------------------
 BYTE   En0  v080
 BYTE   N05  En3  v064
 BYTE   W12
 BYTE   N11  Gn0  v080
 BYTE   N05  Gn3  v064
 BYTE   W12
 BYTE   N11  Fs0  v080
 BYTE   N05  Fs3  v064
 BYTE   W12
 BYTE   N11  Fn0  v080
 BYTE   N05  Fn3  v064
 BYTE   W12
 BYTE   N11  En0  v080
 BYTE   N05  En3  v064
 BYTE   W12
 BYTE   N11  Gn0  v080
 BYTE   N05  Gn3  v064
 BYTE   W12
 BYTE   Fs0  v080
 BYTE   N05  Fs3  v064
 BYTE   W06
 BYTE   Gn0  v080
 BYTE   N05  Gn3  v064
 BYTE   W06
 BYTE   N11  An0  v080
 BYTE   N11  An3  v064
 BYTE   W12
// 003   ----------------------------------------
 BYTE   En0  v080
 BYTE   N05  En3  v064
 BYTE   W12
 BYTE   N11  Cn1  v080
 BYTE   N05  Cn4  v064
 BYTE   W12
 BYTE   N11  Bn0  v080
 BYTE   N05  Bn3  v064
 BYTE   W12
 BYTE   N11  Gn0  v080
 BYTE   N05  Gn3  v064
 BYTE   W12
 BYTE   N11  As0  v080
 BYTE   N05  As3  v064
 BYTE   W12
 BYTE   N11  Fs0  v080
 BYTE   N05  Fs3  v064
 BYTE   W12
 BYTE   N11  An0  v080
 BYTE   N05  An3  v064
 BYTE   W12
 BYTE   N11  Fn0  v080
 BYTE   N05  Fn3  v064
 BYTE   W12
// 004   ----------------------------------------
 BYTE   En3
 BYTE   W96
// 005   ----------------------------------------
 BYTE   W96
// 006   ----------------------------------------
 BYTE   W96
// 007   ----------------------------------------
 BYTE   W96
// 008   ----------------------------------------
 BYTE   W96
// 009   ----------------------------------------
 BYTE   W96
// 010   ----------------------------------------
 BYTE   W96
// 011   ----------------------------------------
 BYTE   W96
// 012   ----------------------------------------
 BYTE   W96
// 013   ----------------------------------------
 BYTE   W96
// 014   ----------------------------------------
 BYTE   W96
// 015   ----------------------------------------
 BYTE   W96
// 016   ----------------------------------------
 BYTE   W96
// 017   ----------------------------------------
 BYTE   W96
// 018   ----------------------------------------
 BYTE   W96
// 019   ----------------------------------------
 BYTE   W96
// 020   ----------------------------------------
 BYTE   N11  En0  v112
 BYTE   W12
 BYTE   N11
 BYTE   W12
 BYTE   N05  Gn0
 BYTE   W06
 BYTE   Fs0
 BYTE   W06
 BYTE   En0
 BYTE   W06
 BYTE   N17  Gn0
 BYTE   W18
 BYTE   N11  En0
 BYTE   W12
 BYTE   As0
 BYTE   W12
 BYTE   Bn0
 BYTE   W12
// 021   ----------------------------------------
 BYTE   En0
 BYTE   W12
 BYTE   N11
 BYTE   W12
 BYTE   N05  Gn0
 BYTE   W06
 BYTE   Fs0
 BYTE   W06
 BYTE   En0
 BYTE   W06
 BYTE   N05
 BYTE   W54
// 022   ----------------------------------------
Label_7_0140A134:
 BYTE   N56  Bn3  v064
 BYTE   W48
 BYTE   W12
 BYTE   N11
 BYTE   W12
 BYTE   An3
 BYTE   W12
 BYTE   Bn3
 BYTE   W12
 BYTE   PEND 
// 023   ----------------------------------------
Label_7_0140A140:
 BYTE   N23  Fs4  v064
 BYTE   W24
 BYTE   Dn4
 BYTE   W24
 BYTE   Cn4
 BYTE   W24
 BYTE   Bn3
 BYTE   W24
 BYTE   PEND 
// 024   ----------------------------------------
Label_7_0140A14B:
 BYTE   N56  Cn4  v064
 BYTE   W48
 BYTE   W12
 BYTE   N11
 BYTE   W12
 BYTE   Dn4
 BYTE   W12
 BYTE   En4
 BYTE   W12
 BYTE   PEND 
// 025   ----------------------------------------
Label_7_0140A157:
 BYTE   N23  En4  v064
 BYTE   W24
 BYTE   Dn4
 BYTE   W24
 BYTE   N32  Fs4
 BYTE   W36
 BYTE   N11  Gn4
 BYTE   W12
 BYTE   PEND 
// 026   ----------------------------------------
Label_7_0140A164:
 BYTE   N56  Fs4  v064
 BYTE   W48
 BYTE   W12
 BYTE   N11  Bn3
 BYTE   W12
 BYTE   Cs4
 BYTE   W12
 BYTE   Dn4
 BYTE   W12
 BYTE   PEND 
// 027   ----------------------------------------
Label_7_0140A171:
 BYTE   N23  Fs4  v064
 BYTE   W24
 BYTE   En4
 BYTE   W24
 BYTE   An4
 BYTE   W24
 BYTE   Gn4
 BYTE   W24
 BYTE   PEND 
// 028   ----------------------------------------
Label_7_0140A17C:
 BYTE   N44  En4  v064
 BYTE   W48
 BYTE   Dn4
 BYTE   W48
 BYTE   PEND 
// 029   ----------------------------------------
Label_7_0140A183:
 BYTE   N44  Cn4  v064
 BYTE   W48
 BYTE   Bn3
 BYTE   W48
 BYTE   PEND 
// 030   ----------------------------------------
Label_7_0140A18A:
 BYTE   N56  En3  v064
 BYTE   W48
 BYTE   W12
 BYTE   N11
 BYTE   W12
 BYTE   Fs3
 BYTE   W12
 BYTE   Gn3
 BYTE   W12
 BYTE   PEND 
// 031   ----------------------------------------
Label_7_0140A196:
 BYTE   N23  Bn3  v064
 BYTE   W24
 BYTE   An3
 BYTE   W24
 BYTE   Dn4
 BYTE   W24
 BYTE   Cn4
 BYTE   W24
 BYTE   PEND 
// 032   ----------------------------------------
Label_7_0140A1A1:
 BYTE   N56  Bn3  v064
 BYTE   W48
 BYTE   W12
 BYTE   N11  Fn3
 BYTE   W12
 BYTE   Gn3
 BYTE   W12
 BYTE   An3
 BYTE   W12
 BYTE   PEND 
// 033   ----------------------------------------
Label_7_0140A1AE:
 BYTE   N23  Bn3  v064
 BYTE   W24
 BYTE   An3
 BYTE   W24
 BYTE   Dn4
 BYTE   W24
 BYTE   En4
 BYTE   W24
 BYTE   PEND 
// 034   ----------------------------------------
Label_7_0140A1B9:
 BYTE   N56  Bn3  v064
 BYTE   W48
 BYTE   W12
 BYTE   N11  En3
 BYTE   W12
 BYTE   Fs3
 BYTE   W12
 BYTE   Gn3
 BYTE   W12
 BYTE   PEND 
// 035   ----------------------------------------
Label_7_0140A1C6:
 BYTE   N23  Bn3  v064
 BYTE   W24
 BYTE   An3
 BYTE   W24
 BYTE   Bn3
 BYTE   W24
 BYTE   Cn4
 BYTE   W24
 BYTE   PEND 
// 036   ----------------------------------------
Label_7_0140A1D1:
 BYTE   N44  Dn4  v064
 BYTE   W48
 BYTE   Cs4
 BYTE   W48
 BYTE   PEND 
// 037   ----------------------------------------
Label_7_0140A1D8:
 BYTE   N44  En4  v064
 BYTE   W48
 BYTE   Ds4
 BYTE   W48
 BYTE   PEND 
// 038   ----------------------------------------
 BYTE   TIE  En4
 BYTE   W96
// 039   ----------------------------------------
Label_7_0140A1E2:
 BYTE   W92
 BYTE   W03
 BYTE   PEND 
 BYTE   EOT
 BYTE   En4
 BYTE   W01
// 040   ----------------------------------------
 BYTE   W96
// 041   ----------------------------------------
 BYTE   W96
// 042   ----------------------------------------
 BYTE   W96
// 043   ----------------------------------------
 BYTE   W96
// 044   ----------------------------------------
 BYTE   W96
// 045   ----------------------------------------
 BYTE   W96
// 046   ----------------------------------------
 BYTE   W96
// 047   ----------------------------------------
 BYTE   W96
// 048   ----------------------------------------
 BYTE   W96
// 049   ----------------------------------------
 BYTE   W96
// 050   ----------------------------------------
 BYTE   W96
// 051   ----------------------------------------
 BYTE   W96
// 052   ----------------------------------------
 BYTE   W96
// 053   ----------------------------------------
 BYTE   N23  Ds4  v064
 BYTE   W24
 BYTE   Fs4
 BYTE   W24
 BYTE   Dn4
 BYTE   W24
 BYTE   Ds4
 BYTE   W24
// 054   ----------------------------------------
 BYTE   PATT
  POIN2 Label_7_0140A134
// 055   ----------------------------------------
 BYTE   PATT
  POIN2 Label_7_0140A140
// 056   ----------------------------------------
 BYTE   PATT
  POIN2 Label_7_0140A14B
// 057   ----------------------------------------
 BYTE   PATT
  POIN2 Label_7_0140A157
// 058   ----------------------------------------
 BYTE   PATT
  POIN2 Label_7_0140A164
// 059   ----------------------------------------
 BYTE   PATT
  POIN2 Label_7_0140A171
// 060   ----------------------------------------
 BYTE   PATT
  POIN2 Label_7_0140A17C
// 061   ----------------------------------------
 BYTE   PATT
  POIN2 Label_7_0140A183
// 062   ----------------------------------------
 BYTE   PATT
  POIN2 Label_7_0140A18A
// 063   ----------------------------------------
 BYTE   PATT
  POIN2 Label_7_0140A196
// 064   ----------------------------------------
 BYTE   PATT
  POIN2 Label_7_0140A1A1
// 065   ----------------------------------------
 BYTE   PATT
  POIN2 Label_7_0140A1AE
// 066   ----------------------------------------
 BYTE   PATT
  POIN2 Label_7_0140A1B9
// 067   ----------------------------------------
 BYTE   PATT
  POIN2 Label_7_0140A1C6
// 068   ----------------------------------------
 BYTE   PATT
  POIN2 Label_7_0140A1D1
// 069   ----------------------------------------
 BYTE   PATT
  POIN2 Label_7_0140A1D8
// 070   ----------------------------------------
Label_7_0140A24F:
 BYTE   N23  En0  v112
 BYTE   N11  En3  v064
 BYTE   W48
 BYTE   N23  Fs0  v112
 BYTE   N11  Fs3  v064
 BYTE   W36
 BYTE   N23  Gn0  v112
 BYTE   N23  Gn3  v064
 BYTE   W12
 BYTE   PEND 
// 071   ----------------------------------------
Label_7_0140A265:
 BYTE   W12
 BYTE   N11  Fs0  v112
 BYTE   N11  Fs3  v064
 BYTE   W12
 BYTE   N23  En0  v112
 BYTE   N11  En3  v064
 BYTE   W72
 BYTE   PEND 
// 072   ----------------------------------------
 BYTE   PATT
  POIN2 Label_7_0140A24F
// 073   ----------------------------------------
 BYTE   W12
 BYTE   N11  Bn0  v112
 BYTE   N11  Bn3  v064
 BYTE   W12
 BYTE   N23  En0  v112
 BYTE   N11  En3  v064
 BYTE   W72
// 074   ----------------------------------------
 BYTE   PATT
  POIN2 Label_7_0140A24F
// 075   ----------------------------------------
 BYTE   PATT
  POIN2 Label_7_0140A265
// 076   ----------------------------------------
 BYTE   PATT
  POIN2 Label_7_0140A24F
// 077   ----------------------------------------
 BYTE   W12
 BYTE   N11  Bn0  v112
 BYTE   N11  Bn3  v064
 BYTE   W12
 BYTE   TIE  Cn1  v112
 BYTE   TIE  Cn4  v064
 BYTE   W72
// 078   ----------------------------------------
 BYTE   PATT
  POIN2 Label_7_0140A1E2
// 079   ----------------------------------------
 BYTE   EOT
 BYTE   Cn1  v072
 BYTE   W01
 BYTE   N11  En0  v080
 BYTE   N05  En3  v064
 BYTE   W12
 BYTE   N11  Gn0  v080
 BYTE   N05  Gn3  v064
 BYTE   W12
 BYTE   N11  Fs0  v080
 BYTE   N05  Fs3  v064
 BYTE   W12
 BYTE   N11  Fn0  v080
 BYTE   N05  Fn3  v064
 BYTE   W12
 BYTE   N11  En0  v080
 BYTE   N05  En3  v064
 BYTE   W12
 BYTE   N11  Gn0  v080
 BYTE   N05  Gn3  v064
 BYTE   W12
 BYTE   Fs0  v080
 BYTE   N05  Fs3  v064
 BYTE   W06
 BYTE   Gn0  v080
 BYTE   N05  Gn3  v064
 BYTE   W06
 BYTE   N11  An0  v080
 BYTE   N11  An3  v064
 BYTE   W12
// 080   ----------------------------------------
 BYTE   GoTo
  POIN2 Label_7_0140A049
 BYTE   FINE

//**************** Track 9 (Midi-Chn.8) ****************//

XenobladeAnObstacleInOurPathMonopolyRubixmidibyMiffe_009:
// 000   ----------------------------------------
 BYTE   KEYSH   XenobladeAnObstacleInOurPathMonopolyRubixmidibyMiffe_key+0
 BYTE   VOICE   48
 BYTE   VOL   50*XenobladeAnObstacleInOurPathMonopolyRubixmidibyMiffe_mvl/mxv
 BYTE   PAN   c_v+0
 BYTE   VOL   50*XenobladeAnObstacleInOurPathMonopolyRubixmidibyMiffe_mvl/mxv
 BYTE   PAN   c_v+0
 BYTE   VOL   50*XenobladeAnObstacleInOurPathMonopolyRubixmidibyMiffe_mvl/mxv
 BYTE   PAN   c_v+0
 BYTE   N11  En1  v080
 BYTE   W12
 BYTE   Gn1
 BYTE   W12
 BYTE   Fs1
 BYTE   W12
 BYTE   Fn1
 BYTE   W12
 BYTE   En1
 BYTE   W12
 BYTE   Gn1
 BYTE   W12
 BYTE   N05  Fs1
 BYTE   W06
 BYTE   Gn1
 BYTE   W06
 BYTE   N11  An1
 BYTE   W12
// 001   ----------------------------------------
Label_8_0140A31A:
 BYTE   N11  En1  v080
 BYTE   W12
 BYTE   Gn1
 BYTE   W12
 BYTE   Fs1
 BYTE   W12
 BYTE   Fn1
 BYTE   W12
 BYTE   N05  En1
 BYTE   W06
 BYTE   Gn1
 BYTE   W06
 BYTE   N11  An1
 BYTE   W12
 BYTE   N05  En1
 BYTE   W06
 BYTE   Gn1
 BYTE   W06
 BYTE   N11  As1
 BYTE   W12
// 002   ----------------------------------------
Label_8_0140A334:
 BYTE   N11  En1  v080
 BYTE   W12
 BYTE   Gn1
 BYTE   W12
 BYTE   Fs1
 BYTE   W12
 BYTE   Fn1
 BYTE   W12
 BYTE   En1
 BYTE   W12
 BYTE   Gn1
 BYTE   W12
 BYTE   N05  Fs1
 BYTE   W06
 BYTE   Gn1
 BYTE   W06
 BYTE   N11  An1
 BYTE   W12
 BYTE   PEND 
// 003   ----------------------------------------
 BYTE   En1
 BYTE   W12
 BYTE   Cn2
 BYTE   W12
 BYTE   Bn1
 BYTE   W12
 BYTE   Gn1
 BYTE   W12
 BYTE   As1
 BYTE   W12
 BYTE   Fs1
 BYTE   W12
 BYTE   An1
 BYTE   W12
 BYTE   Fn1
 BYTE   W12
// 004   ----------------------------------------
 BYTE   PATT
  POIN2 Label_8_0140A334
// 005   ----------------------------------------
 BYTE   PATT
  POIN2 Label_8_0140A334
// 006   ----------------------------------------
Label_8_0140A365:
 BYTE   N11  Fn1  v080
 BYTE   W12
 BYTE   An1
 BYTE   W12
 BYTE   Gn1
 BYTE   W12
 BYTE   Fn1
 BYTE   W12
 BYTE   N11
 BYTE   W12
 BYTE   Bn1
 BYTE   W12
 BYTE   N05  Fn1
 BYTE   W06
 BYTE   An1
 BYTE   W06
 BYTE   N11  Cn2
 BYTE   W12
 BYTE   PEND 
// 007   ----------------------------------------
 BYTE   PATT
  POIN2 Label_8_0140A365
// 008   ----------------------------------------
 BYTE   PATT
  POIN2 Label_8_0140A334
// 009   ----------------------------------------
 BYTE   PATT
  POIN2 Label_8_0140A334
// 010   ----------------------------------------
 BYTE   PATT
  POIN2 Label_8_0140A365
// 011   ----------------------------------------
 BYTE   PATT
  POIN2 Label_8_0140A365
// 012   ----------------------------------------
 BYTE   N92  En2  v080
 BYTE   W96
// 013   ----------------------------------------
 BYTE   Ds2
 BYTE   W96
// 014   ----------------------------------------
 BYTE   Dn2
 BYTE   W96
// 015   ----------------------------------------
 BYTE   Cs2
 BYTE   W96
// 016   ----------------------------------------
 BYTE   Dn2
 BYTE   W96
// 017   ----------------------------------------
 BYTE   Ds2
 BYTE   W96
// 018   ----------------------------------------
 BYTE   En1
 BYTE   N92  Bn1
 BYTE   N92  En2
 BYTE   W96
// 019   ----------------------------------------
 BYTE   N17  Bn1
 BYTE   W18
 BYTE   Cn2
 BYTE   W18
 BYTE   Dn2
 BYTE   W18
 BYTE   Bn1
 BYTE   W18
 BYTE   N11  Cn2
 BYTE   W12
 BYTE   Dn2
 BYTE   W12
// 020   ----------------------------------------
 BYTE   En1  v096
 BYTE   N11  Bn1
 BYTE   N11  En2
 BYTE   W12
 BYTE   En1
 BYTE   N11  Bn1
 BYTE   N11  En2
 BYTE   W12
 BYTE   N05  Gn1
 BYTE   N05  Dn2
 BYTE   N05  Gn2
 BYTE   W06
 BYTE   Fs1
 BYTE   N05  Cs2
 BYTE   N05  Fs2
 BYTE   W06
 BYTE   En1
 BYTE   N05  Bn1
 BYTE   N05  En2
 BYTE   W06
 BYTE   N17  Gn1
 BYTE   N17  Dn2
 BYTE   N17  Gn2
 BYTE   W18
 BYTE   N11  En1
 BYTE   N11  Bn1
 BYTE   N11  En2
 BYTE   W12
 BYTE   As1
 BYTE   N11  Fn2
 BYTE   N11  As2
 BYTE   W12
 BYTE   Bn1
 BYTE   N11  Fs2
 BYTE   N11  Bn2
 BYTE   W12
// 021   ----------------------------------------
 BYTE   En1
 BYTE   N11  Bn1
 BYTE   N11  En2
 BYTE   W12
 BYTE   En1
 BYTE   N11  Bn1
 BYTE   N11  En2
 BYTE   W12
 BYTE   N05  Gn1
 BYTE   N05  Dn2
 BYTE   N05  Gn2
 BYTE   W06
 BYTE   Fs1
 BYTE   N05  Cs2
 BYTE   N05  Fs2
 BYTE   W06
 BYTE   En1
 BYTE   N05  Bn1
 BYTE   N05  En2
 BYTE   W06
 BYTE   En1
 BYTE   N05  Bn1
 BYTE   N05  En2
 BYTE   W54
// 022   ----------------------------------------
Label_8_0140A416:
 BYTE   N05  En1  v080
 BYTE   N05  Bn1
 BYTE   N05  En2
 BYTE   W06
 BYTE   En1
 BYTE   N05  Bn1
 BYTE   N05  En2
 BYTE   W06
 BYTE   En1
 BYTE   W06
 BYTE   N05
 BYTE   W06
 BYTE   N05
 BYTE   W06
 BYTE   N05
 BYTE   W06
 BYTE   N05
 BYTE   N05  Bn1
 BYTE   N05  En2
 BYTE   W06
 BYTE   En1
 BYTE   N05  Bn1
 BYTE   N05  En2
 BYTE   W06
 BYTE   En1
 BYTE   W06
 BYTE   N05
 BYTE   W06
 BYTE   N05
 BYTE   W06
 BYTE   N05
 BYTE   W06
 BYTE   N05
 BYTE   N05  Bn1
 BYTE   N05  En2
 BYTE   W06
 BYTE   En1
 BYTE   N05  Bn1
 BYTE   N05  En2
 BYTE   W06
 BYTE   En1
 BYTE   W06
 BYTE   N05
 BYTE   W06
 BYTE   PEND 
// 023   ----------------------------------------
 BYTE   PATT
  POIN2 Label_8_0140A416
// 024   ----------------------------------------
Label_8_0140A456:
 BYTE   N05  Fn1  v080
 BYTE   N05  Cn2
 BYTE   N05  Fn2
 BYTE   W06
 BYTE   Fn1
 BYTE   N05  Cn2
 BYTE   N05  Fn2
 BYTE   W06
 BYTE   Fn1
 BYTE   W06
 BYTE   N05
 BYTE   W06
 BYTE   N05
 BYTE   W06
 BYTE   N05
 BYTE   W06
 BYTE   N05
 BYTE   N05  Cn2
 BYTE   N05  Fn2
 BYTE   W06
 BYTE   Fn1
 BYTE   N05  Cn2
 BYTE   N05  Fn2
 BYTE   W06
 BYTE   Fn1
 BYTE   W06
 BYTE   N05
 BYTE   W06
 BYTE   N05
 BYTE   W06
 BYTE   N05
 BYTE   W06
 BYTE   N05
 BYTE   N05  Cn2
 BYTE   N05  Fn2
 BYTE   W06
 BYTE   Fn1
 BYTE   N05  Cn2
 BYTE   N05  Fn2
 BYTE   W06
 BYTE   Fn1
 BYTE   W06
 BYTE   N05
 BYTE   W06
 BYTE   PEND 
// 025   ----------------------------------------
 BYTE   PATT
  POIN2 Label_8_0140A456
// 026   ----------------------------------------
Label_8_0140A496:
 BYTE   N05  Gn1  v080
 BYTE   N05  Dn2
 BYTE   N05  Gn2
 BYTE   W06
 BYTE   Gn1
 BYTE   N05  Dn2
 BYTE   N05  Gn2
 BYTE   W06
 BYTE   Gn1
 BYTE   W06
 BYTE   N05
 BYTE   W06
 BYTE   N05
 BYTE   W06
 BYTE   N05
 BYTE   W06
 BYTE   N05
 BYTE   N05  Dn2
 BYTE   N05  Gn2
 BYTE   W06
 BYTE   Gn1
 BYTE   N05  Dn2
 BYTE   N05  Gn2
 BYTE   W06
 BYTE   Gn1
 BYTE   W06
 BYTE   N05
 BYTE   W06
 BYTE   N05
 BYTE   W06
 BYTE   N05
 BYTE   W06
 BYTE   N05
 BYTE   N05  Dn2
 BYTE   N05  Gn2
 BYTE   W06
 BYTE   Gn1
 BYTE   N05  Dn2
 BYTE   N05  Gn2
 BYTE   W06
 BYTE   Gn1
 BYTE   W06
 BYTE   N05
 BYTE   W06
 BYTE   PEND 
// 027   ----------------------------------------
 BYTE   PATT
  POIN2 Label_8_0140A496
// 028   ----------------------------------------
Label_8_0140A4D6:
 BYTE   N05  An1  v080
 BYTE   N05  En2
 BYTE   N05  An2
 BYTE   W06
 BYTE   An1
 BYTE   N05  En2
 BYTE   N05  An2
 BYTE   W06
 BYTE   An1
 BYTE   W06
 BYTE   N05
 BYTE   W06
 BYTE   N05
 BYTE   W06
 BYTE   N05
 BYTE   W06
 BYTE   N05
 BYTE   N05  En2
 BYTE   N05  An2
 BYTE   W06
 BYTE   An1
 BYTE   N05  En2
 BYTE   N05  An2
 BYTE   W06
 BYTE   An1
 BYTE   W06
 BYTE   N05
 BYTE   W06
 BYTE   N05
 BYTE   W06
 BYTE   N05
 BYTE   W06
 BYTE   N05
 BYTE   N05  En2
 BYTE   N05  An2
 BYTE   W06
 BYTE   An1
 BYTE   N05  En2
 BYTE   N05  An2
 BYTE   W06
 BYTE   An1
 BYTE   W06
 BYTE   N05
 BYTE   W06
 BYTE   PEND 
// 029   ----------------------------------------
Label_8_0140A511:
 BYTE   N05  Bn1  v080
 BYTE   N05  Fs2
 BYTE   N05  Bn2
 BYTE   W06
 BYTE   Bn1
 BYTE   N05  Fs2
 BYTE   N05  Bn2
 BYTE   W06
 BYTE   Bn1
 BYTE   W06
 BYTE   N05
 BYTE   W06
 BYTE   N05
 BYTE   W06
 BYTE   N05
 BYTE   W06
 BYTE   N05
 BYTE   N05  Fs2
 BYTE   N05  Bn2
 BYTE   W06
 BYTE   Bn1
 BYTE   N05  Fs2
 BYTE   N05  Bn2
 BYTE   W06
 BYTE   Bn1
 BYTE   W06
 BYTE   N05
 BYTE   W06
 BYTE   N05
 BYTE   W06
 BYTE   N05
 BYTE   W06
 BYTE   N05
 BYTE   N05  Fs2
 BYTE   N05  Bn2
 BYTE   W06
 BYTE   Bn1
 BYTE   N05  Fs2
 BYTE   N05  Bn2
 BYTE   W06
 BYTE   Bn1
 BYTE   W06
 BYTE   N05
 BYTE   W06
 BYTE   PEND 
// 030   ----------------------------------------
Label_8_0140A54C:
 BYTE   N05  En2  v080
 BYTE   N05  Bn2
 BYTE   N05  En3
 BYTE   W06
 BYTE   En2
 BYTE   N05  Bn2
 BYTE   N05  En3
 BYTE   W06
 BYTE   En2
 BYTE   W06
 BYTE   N05
 BYTE   W06
 BYTE   N05
 BYTE   W06
 BYTE   N05
 BYTE   W06
 BYTE   N05
 BYTE   N05  Bn2
 BYTE   N05  En3
 BYTE   W06
 BYTE   En2
 BYTE   N05  Bn2
 BYTE   N05  En3
 BYTE   W06
 BYTE   En2
 BYTE   W06
 BYTE   N05
 BYTE   W06
 BYTE   N05
 BYTE   W06
 BYTE   N05
 BYTE   W06
 BYTE   N05
 BYTE   N05  Bn2
 BYTE   N05  En3
 BYTE   W06
 BYTE   En2
 BYTE   N05  Bn2
 BYTE   N05  En3
 BYTE   W06
 BYTE   En2
 BYTE   W06
 BYTE   N05
 BYTE   W06
 BYTE   PEND 
// 031   ----------------------------------------
 BYTE   PATT
  POIN2 Label_8_0140A54C
// 032   ----------------------------------------
 BYTE   PATT
  POIN2 Label_8_0140A456
// 033   ----------------------------------------
 BYTE   PATT
  POIN2 Label_8_0140A456
// 034   ----------------------------------------
 BYTE   PATT
  POIN2 Label_8_0140A496
// 035   ----------------------------------------
 BYTE   PATT
  POIN2 Label_8_0140A496
// 036   ----------------------------------------
 BYTE   PATT
  POIN2 Label_8_0140A4D6
// 037   ----------------------------------------
 BYTE   PATT
  POIN2 Label_8_0140A511
// 038   ----------------------------------------
Label_8_0140A5AA:
 BYTE   N11  Bn1  v080
 BYTE   N11  En2
 BYTE   W36
 BYTE   Cn2
 BYTE   N11  Fn2
 BYTE   W24
 BYTE   An1
 BYTE   N11  Dn2
 BYTE   W12
 BYTE   Bn1
 BYTE   N11  En2
 BYTE   W24
 BYTE   PEND 
// 039   ----------------------------------------
Label_8_0140A5BD:
 BYTE   W12
 BYTE   N11  Dn2  v080
 BYTE   N11  Gn2
 BYTE   W12
 BYTE   Cs2
 BYTE   N11  Fs2
 BYTE   W12
 BYTE   Cn2
 BYTE   N11  Fn2
 BYTE   W24
 BYTE   As1
 BYTE   N11  Ds2
 BYTE   W24
 BYTE   Cn2
 BYTE   N11  Fn2
 BYTE   W12
 BYTE   PEND 
// 040   ----------------------------------------
 BYTE   PATT
  POIN2 Label_8_0140A5AA
// 041   ----------------------------------------
Label_8_0140A5DA:
 BYTE   W12
 BYTE   N11  Dn2  v080
 BYTE   N11  Gn2
 BYTE   W12
 BYTE   Cs2
 BYTE   N11  Fs2
 BYTE   W12
 BYTE   Cn2
 BYTE   N11  Fn2
 BYTE   W12
 BYTE   N05  En2
 BYTE   N05  An2
 BYTE   W06
 BYTE   Fs2
 BYTE   N05  Bn2
 BYTE   W06
 BYTE   N11  Gn2
 BYTE   N11  Cn3
 BYTE   W12
 BYTE   N05  En2
 BYTE   N05  An2
 BYTE   W06
 BYTE   Fs2
 BYTE   N05  Bn2
 BYTE   W06
 BYTE   N11  Gn2
 BYTE   N11  Cn3
 BYTE   W12
 BYTE   PEND 
// 042   ----------------------------------------
 BYTE   PATT
  POIN2 Label_8_0140A5AA
// 043   ----------------------------------------
 BYTE   PATT
  POIN2 Label_8_0140A5BD
// 044   ----------------------------------------
 BYTE   N11  Bn1  v080
 BYTE   N11  En2
 BYTE   W18
 BYTE   Bn1
 BYTE   N11  En2
 BYTE   W18
 BYTE   Cn2
 BYTE   N11  Fn2
 BYTE   W24
 BYTE   An1
 BYTE   N11  Dn2
 BYTE   W12
 BYTE   Bn1
 BYTE   N11  En2
 BYTE   W24
// 045   ----------------------------------------
 BYTE   PATT
  POIN2 Label_8_0140A5DA
// 046   ----------------------------------------
Label_8_0140A62B:
 BYTE   N23  En1  v080
 BYTE   N23  Bn1
 BYTE   N23  En2
 BYTE   W96
 BYTE   PEND 
// 047   ----------------------------------------
 BYTE   PATT
  POIN2 Label_8_0140A62B
// 048   ----------------------------------------
 BYTE   PATT
  POIN2 Label_8_0140A62B
// 049   ----------------------------------------
 BYTE   N23  Ds1  v080
 BYTE   N23  As1
 BYTE   N23  Ds2
 BYTE   W96
// 050   ----------------------------------------
 BYTE   PATT
  POIN2 Label_8_0140A62B
// 051   ----------------------------------------
 BYTE   PATT
  POIN2 Label_8_0140A62B
// 052   ----------------------------------------
 BYTE   PATT
  POIN2 Label_8_0140A62B
// 053   ----------------------------------------
 BYTE   N23  Ds1  v080
 BYTE   N23  As1
 BYTE   N23  Ds2
 BYTE   W24
 BYTE   Fs1
 BYTE   N23  Cs2
 BYTE   N23  Fs2
 BYTE   W24
 BYTE   Dn1
 BYTE   N23  An1
 BYTE   N23  Dn2
 BYTE   W24
 BYTE   Ds1
 BYTE   N23  As1
 BYTE   N23  Ds2
 BYTE   W24
// 054   ----------------------------------------
 BYTE   PATT
  POIN2 Label_8_0140A416
// 055   ----------------------------------------
 BYTE   PATT
  POIN2 Label_8_0140A416
// 056   ----------------------------------------
 BYTE   PATT
  POIN2 Label_8_0140A456
// 057   ----------------------------------------
 BYTE   PATT
  POIN2 Label_8_0140A456
// 058   ----------------------------------------
 BYTE   PATT
  POIN2 Label_8_0140A496
// 059   ----------------------------------------
 BYTE   PATT
  POIN2 Label_8_0140A496
// 060   ----------------------------------------
 BYTE   PATT
  POIN2 Label_8_0140A4D6
// 061   ----------------------------------------
 BYTE   PATT
  POIN2 Label_8_0140A511
// 062   ----------------------------------------
 BYTE   PATT
  POIN2 Label_8_0140A54C
// 063   ----------------------------------------
 BYTE   PATT
  POIN2 Label_8_0140A54C
// 064   ----------------------------------------
 BYTE   PATT
  POIN2 Label_8_0140A456
// 065   ----------------------------------------
 BYTE   PATT
  POIN2 Label_8_0140A456
// 066   ----------------------------------------
 BYTE   PATT
  POIN2 Label_8_0140A496
// 067   ----------------------------------------
 BYTE   PATT
  POIN2 Label_8_0140A496
// 068   ----------------------------------------
 BYTE   PATT
  POIN2 Label_8_0140A4D6
// 069   ----------------------------------------
 BYTE   PATT
  POIN2 Label_8_0140A511
// 070   ----------------------------------------
Label_8_0140A6BF:
 BYTE   N23  En1  v080
 BYTE   N23  Bn1
 BYTE   N23  En2
 BYTE   W48
 BYTE   Fs1
 BYTE   N23  Cs2
 BYTE   N23  Fs2
 BYTE   W36
 BYTE   Gn1
 BYTE   N23  Dn2
 BYTE   N23  Gn2
 BYTE   W12
 BYTE   PEND 
// 071   ----------------------------------------
Label_8_0140A6D4:
 BYTE   W12
 BYTE   N11  Fs1  v080
 BYTE   N11  Cs2
 BYTE   N11  Fs2
 BYTE   W12
 BYTE   N23  En1
 BYTE   N23  Bn1
 BYTE   N23  En2
 BYTE   W72
 BYTE   PEND 
// 072   ----------------------------------------
 BYTE   PATT
  POIN2 Label_8_0140A6BF
// 073   ----------------------------------------
 BYTE   W12
 BYTE   N11  Bn1  v080
 BYTE   N11  Fs2
 BYTE   N11  Bn2
 BYTE   W12
 BYTE   N23  En1
 BYTE   N23  Bn1
 BYTE   N23  En2
 BYTE   W72
// 074   ----------------------------------------
 BYTE   PATT
  POIN2 Label_8_0140A6BF
// 075   ----------------------------------------
 BYTE   PATT
  POIN2 Label_8_0140A6D4
// 076   ----------------------------------------
 BYTE   PATT
  POIN2 Label_8_0140A6BF
// 077   ----------------------------------------
 BYTE   W12
 BYTE   N11  Bn1  v080
 BYTE   N11  Fs2
 BYTE   N11  Bn2
 BYTE   W12
 BYTE   TIE  Cn2
 BYTE   TIE  Gn2
 BYTE   TIE  Cn3
 BYTE   W72
// 078   ----------------------------------------
 BYTE   W92
 BYTE   W03
 BYTE   EOT
 BYTE   Cn2  v055
 BYTE   Cn3
 BYTE   W01
// 079   ----------------------------------------
 BYTE   PATT
  POIN2 Label_8_0140A334
// 080   ----------------------------------------
 BYTE   GoTo
  POIN2 Label_8_0140A31A
 BYTE   FINE

//**************** Track 10 (Midi-Chn.9) ****************//

XenobladeAnObstacleInOurPathMonopolyRubixmidibyMiffe_010:
// 000   ----------------------------------------
 BYTE   KEYSH   XenobladeAnObstacleInOurPathMonopolyRubixmidibyMiffe_key+0
 BYTE   VOICE   81
 BYTE   VOL   50*XenobladeAnObstacleInOurPathMonopolyRubixmidibyMiffe_mvl/mxv
 BYTE   PAN   c_v+0
 BYTE   VOL   50*XenobladeAnObstacleInOurPathMonopolyRubixmidibyMiffe_mvl/mxv
 BYTE   PAN   c_v+0
 BYTE   VOL   50*XenobladeAnObstacleInOurPathMonopolyRubixmidibyMiffe_mvl/mxv
 BYTE   PAN   c_v+0
 BYTE   N11  En0  v080
 BYTE   W12
 BYTE   Gn0
 BYTE   W12
 BYTE   Fs0
 BYTE   W12
 BYTE   Fn0
 BYTE   W12
 BYTE   En0
 BYTE   W12
 BYTE   Gn0
 BYTE   W12
 BYTE   N05  Fs0
 BYTE   W06
 BYTE   Gn0
 BYTE   W06
 BYTE   N11  An0
 BYTE   W12
// 001   ----------------------------------------
Label_9_0140A752:
 BYTE   N11  En0  v080
 BYTE   W12
 BYTE   Gn0
 BYTE   W12
 BYTE   Fs0
 BYTE   W12
 BYTE   Fn0
 BYTE   W12
 BYTE   N05  En0
 BYTE   W06
 BYTE   Gn0
 BYTE   W06
 BYTE   N11  An0
 BYTE   W12
 BYTE   N05  En0
 BYTE   W06
 BYTE   Gn0
 BYTE   W06
 BYTE   N11  As0
 BYTE   W12
// 002   ----------------------------------------
Label_9_0140A76C:
 BYTE   N11  En0  v080
 BYTE   W12
 BYTE   Gn0
 BYTE   W12
 BYTE   Fs0
 BYTE   W12
 BYTE   Fn0
 BYTE   W12
 BYTE   En0
 BYTE   W12
 BYTE   Gn0
 BYTE   W12
 BYTE   N05  Fs0
 BYTE   W06
 BYTE   Gn0
 BYTE   W06
 BYTE   N11  An0
 BYTE   W12
 BYTE   PEND 
// 003   ----------------------------------------
 BYTE   En0
 BYTE   W12
 BYTE   Cn1
 BYTE   W12
 BYTE   Bn0
 BYTE   W12
 BYTE   Gn0
 BYTE   W12
 BYTE   As0
 BYTE   W12
 BYTE   Fs0
 BYTE   W12
 BYTE   An0
 BYTE   W12
 BYTE   Fn0
 BYTE   W12
// 004   ----------------------------------------
 BYTE   PATT
  POIN2 Label_9_0140A76C
// 005   ----------------------------------------
 BYTE   PATT
  POIN2 Label_9_0140A76C
// 006   ----------------------------------------
Label_9_0140A79D:
 BYTE   N11  Fn0  v080
 BYTE   W12
 BYTE   An0
 BYTE   W12
 BYTE   Gn0
 BYTE   W12
 BYTE   Fn0
 BYTE   W12
 BYTE   N11
 BYTE   W12
 BYTE   Bn0
 BYTE   W12
 BYTE   N05  Fn0
 BYTE   W06
 BYTE   An0
 BYTE   W06
 BYTE   N11  Cn1
 BYTE   W12
 BYTE   PEND 
// 007   ----------------------------------------
 BYTE   PATT
  POIN2 Label_9_0140A79D
// 008   ----------------------------------------
 BYTE   PATT
  POIN2 Label_9_0140A76C
// 009   ----------------------------------------
 BYTE   PATT
  POIN2 Label_9_0140A76C
// 010   ----------------------------------------
 BYTE   PATT
  POIN2 Label_9_0140A79D
// 011   ----------------------------------------
 BYTE   PATT
  POIN2 Label_9_0140A79D
// 012   ----------------------------------------
Label_9_0140A7CD:
 BYTE   N05  En1  v080
 BYTE   W06
 BYTE   N05
 BYTE   W06
 BYTE   N05
 BYTE   W06
 BYTE   N05
 BYTE   W06
 BYTE   N11
 BYTE   W12
 BYTE   N05  Bn0
 BYTE   W06
 BYTE   N11  Dn1
 BYTE   W12
 BYTE   N05  En1
 BYTE   W06
 BYTE   N05
 BYTE   W06
 BYTE   N05
 BYTE   W06
 BYTE   N23
 BYTE   W24
 BYTE   PEND 
// 013   ----------------------------------------
 BYTE   N05  Ds1
 BYTE   W06
 BYTE   N05
 BYTE   W06
 BYTE   N05
 BYTE   W06
 BYTE   N05
 BYTE   W06
 BYTE   N11
 BYTE   W12
 BYTE   N05  Bn0
 BYTE   W06
 BYTE   N11  Dn1
 BYTE   W12
 BYTE   N05  Ds1
 BYTE   W06
 BYTE   N05
 BYTE   W06
 BYTE   N05
 BYTE   W06
 BYTE   N11  Fs1
 BYTE   W12
 BYTE   Ds1
 BYTE   W12
// 014   ----------------------------------------
 BYTE   PATT
  POIN2 Label_9_0140A7CD
// 015   ----------------------------------------
 BYTE   N05  En1  v080
 BYTE   W06
 BYTE   N05
 BYTE   W06
 BYTE   N05
 BYTE   W06
 BYTE   N05
 BYTE   W06
 BYTE   N11
 BYTE   W12
 BYTE   N05  Bn0
 BYTE   W06
 BYTE   N11  Dn1
 BYTE   W12
 BYTE   N05  En1
 BYTE   W06
 BYTE   Bn1
 BYTE   W06
 BYTE   Ds2
 BYTE   W06
 BYTE   En2
 BYTE   W06
 BYTE   N05
 BYTE   W06
 BYTE   N05
 BYTE   W06
 BYTE   N05
 BYTE   W06
// 016   ----------------------------------------
 BYTE   Gn1
 BYTE   W06
 BYTE   N05
 BYTE   W06
 BYTE   N05
 BYTE   W06
 BYTE   N05
 BYTE   W06
 BYTE   N11
 BYTE   W12
 BYTE   N05  Dn1
 BYTE   W06
 BYTE   N11  Fs1
 BYTE   W12
 BYTE   N05  Gn1
 BYTE   W06
 BYTE   N05
 BYTE   W06
 BYTE   N05
 BYTE   W06
 BYTE   N23
 BYTE   W24
// 017   ----------------------------------------
 BYTE   N05  Ds1
 BYTE   W06
 BYTE   N05
 BYTE   W06
 BYTE   N05
 BYTE   W06
 BYTE   N05
 BYTE   W06
 BYTE   N11
 BYTE   W12
 BYTE   N05  Bn0
 BYTE   W06
 BYTE   N11  Dn1
 BYTE   W12
 BYTE   N05  Ds1
 BYTE   W06
 BYTE   N05
 BYTE   W06
 BYTE   N05
 BYTE   W06
 BYTE   N23
 BYTE   W24
// 018   ----------------------------------------
 BYTE   N05  Bn0
 BYTE   W06
 BYTE   N05
 BYTE   W06
 BYTE   N05
 BYTE   W06
 BYTE   N05
 BYTE   W06
 BYTE   N11
 BYTE   W12
 BYTE   N05  Ds1
 BYTE   W06
 BYTE   N11  En1
 BYTE   W12
 BYTE   N05  Bn1
 BYTE   W06
 BYTE   N05
 BYTE   W06
 BYTE   N05
 BYTE   W06
 BYTE   N05
 BYTE   W06
 BYTE   Gn1
 BYTE   W06
 BYTE   En1
 BYTE   W06
 BYTE   Bn0
 BYTE   W06
// 019   ----------------------------------------
 BYTE   N17
 BYTE   W18
 BYTE   Cn1
 BYTE   W18
 BYTE   Dn1
 BYTE   W18
 BYTE   Bn0
 BYTE   W18
 BYTE   N11  Cn1
 BYTE   W12
 BYTE   Dn1
 BYTE   W12
// 020   ----------------------------------------
 BYTE   W96
// 021   ----------------------------------------
 BYTE   W96
// 022   ----------------------------------------
Label_9_0140A88E:
 BYTE   N05  Cs1  v080
 BYTE   W06
 BYTE   Dn1
 BYTE   W06
 BYTE   En1
 BYTE   W06
 BYTE   N05
 BYTE   W06
 BYTE   N11
 BYTE   W12
 BYTE   N05  Cs1
 BYTE   W06
 BYTE   N11  Dn1
 BYTE   W12
 BYTE   N05  En1
 BYTE   W06
 BYTE   N05
 BYTE   W06
 BYTE   N05
 BYTE   W06
 BYTE   N11
 BYTE   W12
 BYTE   N05
 BYTE   W06
 BYTE   N05
 BYTE   W06
 BYTE   PEND 
// 023   ----------------------------------------
 BYTE   PATT
  POIN2 Label_9_0140A88E
// 024   ----------------------------------------
Label_9_0140A8B3:
 BYTE   N05  Dn1  v080
 BYTE   W06
 BYTE   En1
 BYTE   W06
 BYTE   Fn1
 BYTE   W06
 BYTE   N05
 BYTE   W06
 BYTE   N11
 BYTE   W12
 BYTE   N05  Dn1
 BYTE   W06
 BYTE   N11  En1
 BYTE   W12
 BYTE   N05  Fn1
 BYTE   W06
 BYTE   N05
 BYTE   W06
 BYTE   N05
 BYTE   W06
 BYTE   N11
 BYTE   W12
 BYTE   N05
 BYTE   W06
 BYTE   N05
 BYTE   W06
 BYTE   PEND 
// 025   ----------------------------------------
 BYTE   Dn1
 BYTE   W06
 BYTE   En1
 BYTE   W06
 BYTE   Fn1
 BYTE   W06
 BYTE   N05
 BYTE   W06
 BYTE   N11
 BYTE   W12
 BYTE   N05  Dn1
 BYTE   W06
 BYTE   N11  En1
 BYTE   W12
 BYTE   N05  Fn2
 BYTE   W06
 BYTE   N05
 BYTE   W06
 BYTE   N05
 BYTE   W06
 BYTE   N05
 BYTE   W06
 BYTE   Cn2
 BYTE   W06
 BYTE   An1
 BYTE   W06
 BYTE   Fn1
 BYTE   W06
// 026   ----------------------------------------
 BYTE   En1
 BYTE   W06
 BYTE   Fn1
 BYTE   W06
 BYTE   Gn1
 BYTE   W06
 BYTE   N05
 BYTE   W06
 BYTE   N11
 BYTE   W12
 BYTE   N05  En1
 BYTE   W06
 BYTE   N11  Fn1
 BYTE   W12
 BYTE   N05  Gn1
 BYTE   W06
 BYTE   N05
 BYTE   W06
 BYTE   N05
 BYTE   W06
 BYTE   N11
 BYTE   W12
 BYTE   N05
 BYTE   W06
 BYTE   N05
 BYTE   W06
// 027   ----------------------------------------
 BYTE   En1
 BYTE   W06
 BYTE   Fn1
 BYTE   W06
 BYTE   Gn1
 BYTE   W06
 BYTE   N05
 BYTE   W06
 BYTE   N11
 BYTE   W12
 BYTE   N05  En1
 BYTE   W06
 BYTE   N11  Fn1
 BYTE   W12
 BYTE   N05  Gn1
 BYTE   W06
 BYTE   Bn1
 BYTE   W06
 BYTE   Gn1
 BYTE   W06
 BYTE   Cn2
 BYTE   W06
 BYTE   Gn1
 BYTE   W06
 BYTE   Bn1
 BYTE   W06
 BYTE   Gn1
 BYTE   W06
// 028   ----------------------------------------
 BYTE   Fn1
 BYTE   W06
 BYTE   Gn1
 BYTE   W06
 BYTE   An1
 BYTE   W06
 BYTE   N05
 BYTE   W06
 BYTE   N11
 BYTE   W12
 BYTE   N05  Fn1
 BYTE   W06
 BYTE   N11  Gn1
 BYTE   W12
 BYTE   N05  An1
 BYTE   W06
 BYTE   Cs2
 BYTE   W06
 BYTE   An1
 BYTE   W06
 BYTE   Dn2
 BYTE   W06
 BYTE   An1
 BYTE   W06
 BYTE   Cs2
 BYTE   W06
 BYTE   An1
 BYTE   W06
// 029   ----------------------------------------
 BYTE   N05
 BYTE   W06
 BYTE   Bn1
 BYTE   W06
 BYTE   N05
 BYTE   W06
 BYTE   An1
 BYTE   W06
 BYTE   Bn1
 BYTE   W06
 BYTE   N05
 BYTE   W06
 BYTE   An1
 BYTE   W06
 BYTE   Bn1
 BYTE   W06
 BYTE   N05
 BYTE   W06
 BYTE   An1
 BYTE   W06
 BYTE   Bn1
 BYTE   W06
 BYTE   N05
 BYTE   W06
 BYTE   N05
 BYTE   W06
 BYTE   An1
 BYTE   W06
 BYTE   Fs1
 BYTE   W06
 BYTE   Bn0
 BYTE   W06
// 030   ----------------------------------------
 BYTE   PATT
  POIN2 Label_9_0140A88E
// 031   ----------------------------------------
 BYTE   N05  Cs1  v080
 BYTE   W06
 BYTE   Dn1
 BYTE   W06
 BYTE   En1
 BYTE   W06
 BYTE   N05
 BYTE   W06
 BYTE   N11
 BYTE   W12
 BYTE   N05  An1
 BYTE   W06
 BYTE   N07  Cn2
 BYTE   W08
 BYTE   N07
 BYTE   W08
 BYTE   N07
 BYTE   W08
 BYTE   N05  An1
 BYTE   W06
 BYTE   Bn1
 BYTE   W06
 BYTE   Gn1
 BYTE   W06
 BYTE   As1
 BYTE   W06
 BYTE   Fn1
 BYTE   W06
// 032   ----------------------------------------
 BYTE   PATT
  POIN2 Label_9_0140A8B3
// 033   ----------------------------------------
 BYTE   N05  Dn1  v080
 BYTE   W06
 BYTE   En1
 BYTE   W06
 BYTE   Fn1
 BYTE   W06
 BYTE   N05
 BYTE   W06
 BYTE   N11
 BYTE   W12
 BYTE   N05  Dn1
 BYTE   W06
 BYTE   N11  Fn1
 BYTE   W12
 BYTE   N05  Fn2
 BYTE   W06
 BYTE   N05
 BYTE   W06
 BYTE   N05
 BYTE   W06
 BYTE   N05
 BYTE   W06
 BYTE   N05
 BYTE   W06
 BYTE   N05
 BYTE   W06
 BYTE   N05
 BYTE   W06
// 034   ----------------------------------------
Label_9_0140A9B9:
 BYTE   N05  En0  v080
 BYTE   W06
 BYTE   Fn0
 BYTE   W06
 BYTE   Gn0
 BYTE   W06
 BYTE   N05
 BYTE   W06
 BYTE   N11
 BYTE   W12
 BYTE   N05  En0
 BYTE   W06
 BYTE   N11  Fn0
 BYTE   W12
 BYTE   N05  Gn0
 BYTE   W06
 BYTE   N05
 BYTE   W06
 BYTE   N05
 BYTE   W06
 BYTE   N11
 BYTE   W12
 BYTE   N05
 BYTE   W06
 BYTE   N05
 BYTE   W06
 BYTE   PEND 
// 035   ----------------------------------------
Label_9_0140A9D9:
 BYTE   N05  Gn0  v080
 BYTE   W06
 BYTE   Bn0
 BYTE   W12
 BYTE   Cn1
 BYTE   W12
 BYTE   Cs1
 BYTE   W12
 BYTE   Dn1
 BYTE   W12
 BYTE   En1
 BYTE   W12
 BYTE   Fs1
 BYTE   W12
 BYTE   Gn1
 BYTE   W06
 BYTE   N05
 BYTE   W06
 BYTE   N05
 BYTE   W06
 BYTE   PEND 
// 036   ----------------------------------------
Label_9_0140A9F0:
 BYTE   N05  Gn1  v080
 BYTE   W06
 BYTE   N11  An1
 BYTE   W12
 BYTE   N05  Gn1
 BYTE   W06
 BYTE   N17  An1
 BYTE   W18
 BYTE   N11
 BYTE   W12
 BYTE   N11
 BYTE   W12
 BYTE   N11
 BYTE   W12
 BYTE   N05
 BYTE   W06
 BYTE   Gn1
 BYTE   W06
 BYTE   En1
 BYTE   W06
 BYTE   PEND 
// 037   ----------------------------------------
Label_9_0140AA0A:
 BYTE   N05  An1  v080
 BYTE   W06
 BYTE   N11  Bn1
 BYTE   W12
 BYTE   N05  An1
 BYTE   W06
 BYTE   N17  Bn1
 BYTE   W18
 BYTE   N11
 BYTE   W12
 BYTE   N11
 BYTE   W12
 BYTE   N05
 BYTE   W06
 BYTE   An1
 BYTE   W06
 BYTE   Gn1
 BYTE   W06
 BYTE   En1
 BYTE   W06
 BYTE   Bn0
 BYTE   W06
 BYTE   PEND 
// 038   ----------------------------------------
 BYTE   En0
 BYTE   W06
 BYTE   N05
 BYTE   W06
 BYTE   N05
 BYTE   W06
 BYTE   N05
 BYTE   W06
 BYTE   N11
 BYTE   W12
 BYTE   N05
 BYTE   W06
 BYTE   N11  Dn0
 BYTE   W12
 BYTE   N05  En0
 BYTE   W06
 BYTE   N05
 BYTE   W06
 BYTE   N05
 BYTE   W06
 BYTE   N11
 BYTE   W12
 BYTE   N05
 BYTE   W06
 BYTE   N05
 BYTE   W06
// 039   ----------------------------------------
Label_9_0140AA42:
 BYTE   N11  Dn0  v080
 BYTE   W12
 BYTE   N05  En0
 BYTE   W06
 BYTE   N05
 BYTE   W06
 BYTE   N05
 BYTE   W06
 BYTE   N11
 BYTE   W12
 BYTE   N05
 BYTE   W06
 BYTE   N11  Dn0
 BYTE   W12
 BYTE   N05  En0
 BYTE   W06
 BYTE   N05
 BYTE   W06
 BYTE   N05
 BYTE   W06
 BYTE   N11
 BYTE   W12
 BYTE   N05
 BYTE   W06
 BYTE   PEND 
// 040   ----------------------------------------
 BYTE   N11  Dn0
 BYTE   W12
 BYTE   N05  En0
 BYTE   W06
 BYTE   N05
 BYTE   W06
 BYTE   N05
 BYTE   W06
 BYTE   N11
 BYTE   W12
 BYTE   N05
 BYTE   W06
 BYTE   N11  Dn0
 BYTE   W12
 BYTE   N05  En0
 BYTE   W06
 BYTE   N05
 BYTE   W06
 BYTE   N05
 BYTE   W06
 BYTE   N05
 BYTE   W06
 BYTE   N11
 BYTE   W12
// 041   ----------------------------------------
 BYTE   Gn0
 BYTE   W12
 BYTE   N17  As0
 BYTE   W18
 BYTE   N05  Gs0
 BYTE   W06
 BYTE   Gn0
 BYTE   W06
 BYTE   Fs0
 BYTE   W06
 BYTE   N01  En2
 BYTE   W01
 BYTE   Ds2
 BYTE   W02
 BYTE   Dn2
 BYTE   W03
 BYTE   Cs2
 BYTE   W01
 BYTE   Cn2
 BYTE   W02
 BYTE   Bn1
 BYTE   W03
 BYTE   As1
 BYTE   W01
 BYTE   An1
 BYTE   W02
 BYTE   Gs1
 BYTE   W03
 BYTE   Gn1
 BYTE   W01
 BYTE   Fs1
 BYTE   W02
 BYTE   Fn1
 BYTE   W03
 BYTE   En1
 BYTE   W01
 BYTE   Ds1
 BYTE   W02
 BYTE   Dn1
 BYTE   W03
 BYTE   Cs1
 BYTE   W01
 BYTE   Cn1
 BYTE   W02
 BYTE   Bn0
 BYTE   W03
 BYTE   As0
 BYTE   W01
 BYTE   An0
 BYTE   W02
 BYTE   Gs0
 BYTE   W03
 BYTE   Gn0
 BYTE   W01
 BYTE   Fs0
 BYTE   W02
 BYTE   Fn0
 BYTE   W03
// 042   ----------------------------------------
 BYTE   N11  En0
 BYTE   W12
 BYTE   N05
 BYTE   W06
 BYTE   N05
 BYTE   W06
 BYTE   N05
 BYTE   W06
 BYTE   N11
 BYTE   W12
 BYTE   N05
 BYTE   W06
 BYTE   N11  Dn0
 BYTE   W12
 BYTE   N05  En0
 BYTE   W06
 BYTE   N05
 BYTE   W06
 BYTE   N05
 BYTE   W06
 BYTE   N05
 BYTE   W06
 BYTE   N05
 BYTE   W06
 BYTE   Bn0
 BYTE   W06
// 043   ----------------------------------------
 BYTE   En1
 BYTE   W06
 BYTE   N05
 BYTE   W06
 BYTE   Dn1
 BYTE   W06
 BYTE   Bn0
 BYTE   W06
 BYTE   Cs1
 BYTE   W06
 BYTE   As0
 BYTE   W06
 BYTE   Cn1
 BYTE   W06
 BYTE   An0
 BYTE   W06
 BYTE   Bn0
 BYTE   W06
 BYTE   Gs0
 BYTE   W06
 BYTE   As0
 BYTE   W06
 BYTE   Gn0
 BYTE   W06
 BYTE   An0
 BYTE   W06
 BYTE   Fs0
 BYTE   W06
 BYTE   Gs0
 BYTE   W06
 BYTE   Gn0
 BYTE   W06
// 044   ----------------------------------------
 BYTE   PATT
  POIN2 Label_9_0140AA42
// 045   ----------------------------------------
 BYTE   N11  Dn0  v080
 BYTE   W12
 BYTE   N05  En0
 BYTE   W06
 BYTE   N05
 BYTE   W06
 BYTE   N05
 BYTE   W06
 BYTE   N11
 BYTE   W12
 BYTE   N05  Bn0
 BYTE   W06
 BYTE   En1
 BYTE   W06
 BYTE   N05
 BYTE   W06
 BYTE   N05
 BYTE   W06
 BYTE   N05
 BYTE   W06
 BYTE   N05
 BYTE   W06
 BYTE   N05
 BYTE   W06
 BYTE   N05
 BYTE   W06
 BYTE   N05
 BYTE   W06
// 046   ----------------------------------------
 BYTE   N23  En0
 BYTE   W96
// 047   ----------------------------------------
 BYTE   N23
 BYTE   W96
// 048   ----------------------------------------
 BYTE   N23
 BYTE   W96
// 049   ----------------------------------------
 BYTE   Ds0
 BYTE   W96
// 050   ----------------------------------------
 BYTE   En0
 BYTE   W96
// 051   ----------------------------------------
 BYTE   N23
 BYTE   W96
// 052   ----------------------------------------
 BYTE   N23
 BYTE   W96
// 053   ----------------------------------------
 BYTE   Ds1
 BYTE   W24
 BYTE   Fs1
 BYTE   W24
 BYTE   Dn1
 BYTE   W24
 BYTE   Ds1
 BYTE   W24
// 054   ----------------------------------------
 BYTE   PATT
  POIN2 Label_9_0140A88E
// 055   ----------------------------------------
 BYTE   PATT
  POIN2 Label_9_0140A88E
// 056   ----------------------------------------
 BYTE   PATT
  POIN2 Label_9_0140A8B3
// 057   ----------------------------------------
 BYTE   PATT
  POIN2 Label_9_0140A8B3
// 058   ----------------------------------------
 BYTE   PATT
  POIN2 Label_9_0140A9B9
// 059   ----------------------------------------
 BYTE   PATT
  POIN2 Label_9_0140A9D9
// 060   ----------------------------------------
 BYTE   PATT
  POIN2 Label_9_0140A9F0
// 061   ----------------------------------------
 BYTE   PATT
  POIN2 Label_9_0140AA0A
// 062   ----------------------------------------
 BYTE   N05  Bn0  v080
 BYTE   W06
 BYTE   Cn1
 BYTE   W06
 BYTE   N05
 BYTE   W06
 BYTE   N05
 BYTE   W06
 BYTE   N11
 BYTE   W12
 BYTE   N05  Bn0
 BYTE   W06
 BYTE   N11
 BYTE   W12
 BYTE   N05  Cn1
 BYTE   W06
 BYTE   N05
 BYTE   W06
 BYTE   N05
 BYTE   W06
 BYTE   N11
 BYTE   W12
 BYTE   N05
 BYTE   W06
 BYTE   N05
 BYTE   W06
// 063   ----------------------------------------
 BYTE   Bn0
 BYTE   W06
 BYTE   Cn1
 BYTE   W06
 BYTE   N05
 BYTE   W06
 BYTE   N05
 BYTE   W06
 BYTE   N11
 BYTE   W12
 BYTE   N05  Bn0
 BYTE   W06
 BYTE   N11
 BYTE   W12
 BYTE   N05  Cn1
 BYTE   W06
 BYTE   Dn1
 BYTE   W06
 BYTE   Cn1
 BYTE   W06
 BYTE   En1
 BYTE   W06
 BYTE   Cn1
 BYTE   W06
 BYTE   Fn1
 BYTE   W06
 BYTE   Cn1
 BYTE   W06
// 064   ----------------------------------------
 BYTE   PATT
  POIN2 Label_9_0140A8B3
// 065   ----------------------------------------
 BYTE   N05  Dn1  v080
 BYTE   W06
 BYTE   En1
 BYTE   W06
 BYTE   Fn1
 BYTE   W06
 BYTE   N05
 BYTE   W06
 BYTE   N05
 BYTE   W06
 BYTE   N11  Fn2
 BYTE   W12
 BYTE   Cn2
 BYTE   W12
 BYTE   An1
 BYTE   W12
 BYTE   Fn1
 BYTE   W12
 BYTE   N05  Cn1
 BYTE   W06
 BYTE   An0
 BYTE   W06
 BYTE   Fn0
 BYTE   W06
// 066   ----------------------------------------
 BYTE   En0
 BYTE   W06
 BYTE   Fn0
 BYTE   W06
 BYTE   Gn0
 BYTE   W06
 BYTE   N05
 BYTE   W06
 BYTE   N11
 BYTE   W12
 BYTE   N05  En0
 BYTE   W06
 BYTE   N11  Fs0
 BYTE   W12
 BYTE   N05  Gn0
 BYTE   W06
 BYTE   N05
 BYTE   W06
 BYTE   N05
 BYTE   W06
 BYTE   N11
 BYTE   W12
 BYTE   N05
 BYTE   W06
 BYTE   N05
 BYTE   W06
// 067   ----------------------------------------
 BYTE   En0
 BYTE   W06
 BYTE   N11  Gn0
 BYTE   W12
 BYTE   N05  En0
 BYTE   W06
 BYTE   Gn0
 BYTE   W06
 BYTE   N05
 BYTE   W06
 BYTE   Bn0
 BYTE   W06
 BYTE   Dn1
 BYTE   W06
 BYTE   Gn1
 BYTE   W06
 BYTE   N05
 BYTE   W06
 BYTE   N05
 BYTE   W06
 BYTE   N05
 BYTE   W06
 BYTE   N23
 BYTE   W24
// 068   ----------------------------------------
 BYTE   N05  Gn0
 BYTE   W06
 BYTE   An0
 BYTE   W06
 BYTE   N05
 BYTE   W06
 BYTE   N05
 BYTE   W06
 BYTE   N11
 BYTE   W12
 BYTE   N05
 BYTE   W06
 BYTE   N05
 BYTE   W06
 BYTE   Gn0
 BYTE   W06
 BYTE   An0
 BYTE   W06
 BYTE   N05
 BYTE   W06
 BYTE   N05
 BYTE   W06
 BYTE   N11
 BYTE   W12
 BYTE   N05
 BYTE   W06
 BYTE   N05
 BYTE   W06
// 069   ----------------------------------------
 BYTE   N05
 BYTE   W06
 BYTE   Bn0
 BYTE   W06
 BYTE   N05
 BYTE   W06
 BYTE   N05
 BYTE   W06
 BYTE   N11
 BYTE   W12
 BYTE   N05  An1
 BYTE   W06
 BYTE   Bn1
 BYTE   W06
 BYTE   N05
 BYTE   W06
 BYTE   N05
 BYTE   W06
 BYTE   N11
 BYTE   W12
 BYTE   N05  Bn2
 BYTE   W06
 BYTE   N05
 BYTE   W06
 BYTE   N05
 BYTE   W06
 BYTE   N05
 BYTE   W06
// 070   ----------------------------------------
Label_9_0140AC29:
 BYTE   N11  En0  v080
 BYTE   W12
 BYTE   N05  An0
 BYTE   W06
 BYTE   Bn0
 BYTE   W06
 BYTE   N11  En0
 BYTE   W12
 BYTE   N05  An0
 BYTE   W06
 BYTE   Bn0
 BYTE   W06
 BYTE   N11  En0
 BYTE   W12
 BYTE   N11
 BYTE   W12
 BYTE   N11
 BYTE   W12
 BYTE   N05  An0
 BYTE   W06
 BYTE   Bn0
 BYTE   W06
 BYTE   PEND 
// 071   ----------------------------------------
 BYTE   N11  En0
 BYTE   W12
 BYTE   N05  An0
 BYTE   W06
 BYTE   Bn0
 BYTE   W06
 BYTE   N11  En0
 BYTE   W12
 BYTE   N05  An0
 BYTE   W06
 BYTE   Bn0
 BYTE   W06
 BYTE   N11  En0
 BYTE   W12
 BYTE   N05
 BYTE   W06
 BYTE   N05
 BYTE   W06
 BYTE   N11
 BYTE   W12
 BYTE   N05  An0
 BYTE   W06
 BYTE   Bn0
 BYTE   W06
// 072   ----------------------------------------
 BYTE   PATT
  POIN2 Label_9_0140AC29
// 073   ----------------------------------------
 BYTE   N11  En0  v080
 BYTE   W12
 BYTE   N05  An0
 BYTE   W06
 BYTE   Bn0
 BYTE   W06
 BYTE   N11  En0
 BYTE   W12
 BYTE   N05  An0
 BYTE   W06
 BYTE   Bn0
 BYTE   W06
 BYTE   N11  En0
 BYTE   W12
 BYTE   N05  An0
 BYTE   W06
 BYTE   Bn0
 BYTE   W06
 BYTE   Cn1
 BYTE   W06
 BYTE   Bn0
 BYTE   W06
 BYTE   An0
 BYTE   W06
 BYTE   Gn0
 BYTE   W06
// 074   ----------------------------------------
 BYTE   PATT
  POIN2 Label_9_0140AC29
// 075   ----------------------------------------
 BYTE   N11  En0  v080
 BYTE   W12
 BYTE   N05  An0
 BYTE   W06
 BYTE   Bn0
 BYTE   W06
 BYTE   N11  En0
 BYTE   W12
 BYTE   N05  Dn1
 BYTE   W06
 BYTE   En1
 BYTE   W06
 BYTE   Gn1
 BYTE   W06
 BYTE   An1
 BYTE   W06
 BYTE   N05
 BYTE   W06
 BYTE   N05
 BYTE   W06
 BYTE   BEND   c_v+0
 BYTE   N23
 BYTE   W01
 BYTE   BEND   c_v+0
 BYTE   W01
 BYTE   BEND   c_v+1
 BYTE   W01
 BYTE   BEND   c_v+1
 BYTE   W01
 BYTE   BEND   c_v+2
 BYTE   W01
 BYTE   BEND   c_v+2
 BYTE   W01
 BYTE   BEND   c_v+3
 BYTE   W01
 BYTE   BEND   c_v+3
 BYTE   W01
 BYTE   BEND   c_v+4
 BYTE   W01
 BYTE   BEND   c_v+5
 BYTE   W01
 BYTE   BEND   c_v+6
 BYTE   W01
 BYTE   BEND   c_v+7
 BYTE   W01
 BYTE   BEND   c_v+7
 BYTE   W01
 BYTE   BEND   c_v+8
 BYTE   W01
 BYTE   BEND   c_v+9
 BYTE   W01
 BYTE   BEND   c_v+10
 BYTE   W09
// 076   ----------------------------------------
 BYTE   BEND   c_v+0
 BYTE   N11  En0
 BYTE   W12
 BYTE   N05  An0
 BYTE   W06
 BYTE   Bn0
 BYTE   W06
 BYTE   N11  En0
 BYTE   W12
 BYTE   N05  An0
 BYTE   W06
 BYTE   Bn0
 BYTE   W06
 BYTE   N11  En0
 BYTE   W12
 BYTE   N11
 BYTE   W12
 BYTE   N11
 BYTE   W12
 BYTE   N05  An0
 BYTE   W06
 BYTE   Bn0
 BYTE   W06
// 077   ----------------------------------------
 BYTE   N11  En0
 BYTE   W12
 BYTE   N05  An0
 BYTE   W06
 BYTE   Bn0
 BYTE   W06
 BYTE   TIE  Cn1
 BYTE   W72
// 078   ----------------------------------------
 BYTE   W68
 BYTE   W03
 BYTE   EOT
 BYTE   W01
 BYTE   N01  En1
 BYTE   W01
 BYTE   Ds1
 BYTE   W02
 BYTE   Dn1
 BYTE   W02
 BYTE   Cs1
 BYTE   W02
 BYTE   Cn1
 BYTE   W02
 BYTE   Bn0
 BYTE   W02
 BYTE   As0
 BYTE   W02
 BYTE   An0
 BYTE   W02
 BYTE   Gs0
 BYTE   W02
 BYTE   Gn0
 BYTE   W01
 BYTE   Fs0
 BYTE   W02
 BYTE   N02  Fn0
 BYTE   W03
 BYTE   N01  En0
 BYTE   W01
// 079   ----------------------------------------
 BYTE   N11
 BYTE   W12
 BYTE   Gn0
 BYTE   W12
 BYTE   Fs0
 BYTE   W12
 BYTE   Fn0
 BYTE   W12
 BYTE   En0
 BYTE   W12
 BYTE   Gn0
 BYTE   W12
 BYTE   N05  Fs0
 BYTE   W06
 BYTE   Gn0
 BYTE   W06
 BYTE   N11  An0
 BYTE   W11
 BYTE   BEND   c_v+0
 BYTE   W01
// 080   ----------------------------------------
 BYTE   GoTo
  POIN2 Label_9_0140A752
 BYTE   FINE

//******************************************************//
	ALIGN 4

XenobladeAnObstacleInOurPathMonopolyRubixmidibyMiffe:
	BYTE	10	// NumTrks
	BYTE	0	// NumBlks
	BYTE	XenobladeAnObstacleInOurPathMonopolyRubixmidibyMiffe_pri	// Priority
	BYTE	XenobladeAnObstacleInOurPathMonopolyRubixmidibyMiffe_rev	// Reverb.
    
	POIN2	XenobladeAnObstacleInOurPathMonopolyRubixmidibyMiffe_grp
    
	POIN2	XenobladeAnObstacleInOurPathMonopolyRubixmidibyMiffe_001
	POIN2	XenobladeAnObstacleInOurPathMonopolyRubixmidibyMiffe_002
	POIN2	XenobladeAnObstacleInOurPathMonopolyRubixmidibyMiffe_003
	POIN2	XenobladeAnObstacleInOurPathMonopolyRubixmidibyMiffe_004
	POIN2	XenobladeAnObstacleInOurPathMonopolyRubixmidibyMiffe_005
	POIN2	XenobladeAnObstacleInOurPathMonopolyRubixmidibyMiffe_006
	POIN2	XenobladeAnObstacleInOurPathMonopolyRubixmidibyMiffe_007
	POIN2	XenobladeAnObstacleInOurPathMonopolyRubixmidibyMiffe_008
	POIN2	XenobladeAnObstacleInOurPathMonopolyRubixmidibyMiffe_009
	POIN2	XenobladeAnObstacleInOurPathMonopolyRubixmidibyMiffe_010

	
