//Event file generated from Sappy .s format.
	#include "MPlayDef.event"

	#define	KH3582DaysAnotherSideBattleVerMycahel_grp  voicegroup000
	#define	KH3582DaysAnotherSideBattleVerMycahel_pri  0
	#define	KH3582DaysAnotherSideBattleVerMycahel_rev  0
	#define	KH3582DaysAnotherSideBattleVerMycahel_mvl  127
	#define	KH3582DaysAnotherSideBattleVerMycahel_key  0
	#define	KH3582DaysAnotherSideBattleVerMycahel_tbs  1
	#define	KH3582DaysAnotherSideBattleVerMycahel_exg  0
	#define	KH3582DaysAnotherSideBattleVerMycahel_cmp  1

	// .rodata
	//	KH3582DaysAnotherSideBattleVerMycahel
	ALIGN 4


//**************** Track 1 (Midi-Chn.0) ****************//

KH3582DaysAnotherSideBattleVerMycahel_001:
// 000   ----------------------------------------
 BYTE   VOL   45*KH3582DaysAnotherSideBattleVerMycahel_mvl/mxv
 BYTE   KEYSH   KH3582DaysAnotherSideBattleVerMycahel_key+0
 BYTE   TEMPO   146*KH3582DaysAnotherSideBattleVerMycahel_tbs/2
 BYTE   VOICE   2
 BYTE   N44  Gs0  v096
 BYTE   N44  Gs1
 BYTE   N44  Gn2  v092
 BYTE   N44  Cn3
 BYTE   W96
// 001   ----------------------------------------
 BYTE   W96
// 002   ----------------------------------------
 BYTE   W96
// 003   ----------------------------------------
 BYTE   W96
// 004   ----------------------------------------
 BYTE   W96
// 005   ----------------------------------------
Label_0_011F2D9B:
 BYTE   W24
 BYTE   N44  Gs4  v112
 BYTE   N44  Ds5
 BYTE   W48
 BYTE   Gs4
 BYTE   N44  Cs5
 BYTE   W24
 BYTE   PEND 
// 006   ----------------------------------------
 BYTE   TEMPO   146*KH3582DaysAnotherSideBattleVerMycahel_tbs/2
 BYTE   W24
 BYTE   Ds4
 BYTE   N44  Bn4
 BYTE   W48
 BYTE   TIE  Gs3
 BYTE   TIE  Ds4
 BYTE   W24
// 007   ----------------------------------------
 BYTE   W96
// 008   ----------------------------------------
 BYTE   W23
 BYTE   EOT
 BYTE   Gs3  v075
 BYTE   W01
 BYTE   N23  Gs3
 BYTE   N23  Fn4
 BYTE   W24
 BYTE   Gs3
 BYTE   N23  Fs4
 BYTE   W24
 BYTE   N92  Cn4
 BYTE   N92  Gn4
 BYTE   W24
// 009   ----------------------------------------
 BYTE   W96
// 010   ----------------------------------------
 BYTE   W96
// 011   ----------------------------------------
Label_0_011F2DC9:
 BYTE   W24
 BYTE   N44  Gn4  v116
 BYTE   N44  Cn5
 BYTE   W48
 BYTE   N44
 BYTE   N44  Gn5
 BYTE   W24
 BYTE   PEND 
// 012   ----------------------------------------
Label_0_011F2DD5:
 BYTE   W24
 BYTE   N44  Cn4  v116
 BYTE   N44  Gn4
 BYTE   W48
 BYTE   TIE  Cn0  v127
 BYTE   TIE  Cn1
 BYTE   TIE  Gn3  v108
 BYTE   TIE  Cn4
 BYTE   W24
 BYTE   PEND 
// 013   ----------------------------------------
 BYTE   W96
// 014   ----------------------------------------
 BYTE   W68
 BYTE   W03
 BYTE   EOT
 BYTE   Cn0  v036
 BYTE   Gn3  v072
 BYTE   W01
 BYTE   N23  Gn2  v096
 BYTE   N23  Cn3
 BYTE   W24
// 015   ----------------------------------------
Label_0_011F2DF7:
 BYTE   N23  As2  v100
 BYTE   N23  Dn3
 BYTE   W24
 BYTE   Cn3  v108
 BYTE   N23  Ds3
 BYTE   W24
 BYTE   Dn3  v112
 BYTE   N23  Fn3
 BYTE   W24
 BYTE   Ds3  v116
 BYTE   N23  Gn3
 BYTE   W24
 BYTE   PEND 
// 016   ----------------------------------------
Label_0_011F2E0D:
 BYTE   N23  Ds3  v120
 BYTE   N23  As3
 BYTE   W24
 BYTE   Gn3  v127
 BYTE   N23  Cn4
 BYTE   W24
 BYTE   As3
 BYTE   N23  Dn4
 BYTE   W24
 BYTE   TIE  Cn0
 BYTE   TIE  Cn1
 BYTE   W24
 BYTE   PEND 
// 017   ----------------------------------------
 BYTE   W96
// 018   ----------------------------------------
 BYTE   W68
 BYTE   W03
 BYTE   EOT
 BYTE   Cn0  v036
 BYTE   W24
 BYTE   W01
// 019   ----------------------------------------
Label_0_011F2E2A:
 BYTE   N03  Cn4  v080
 BYTE   W04
 BYTE   Dn4
 BYTE   W03
 BYTE   Ds4
 BYTE   W05
 BYTE   Fn4
 BYTE   W04
 BYTE   Gn4
 BYTE   W03
 BYTE   Gs4
 BYTE   W05
 BYTE   N44  Cn4  v112
 BYTE   N44  Gn4  v127
 BYTE   N03  As4  v080
 BYTE   W04
 BYTE   Cn5
 BYTE   W03
 BYTE   Dn5
 BYTE   W05
 BYTE   Ds5
 BYTE   W04
 BYTE   Fn5
 BYTE   W03
 BYTE   Gn5
 BYTE   W05
 BYTE   Fn5
 BYTE   W04
 BYTE   Ds5
 BYTE   W03
 BYTE   Dn5
 BYTE   W05
 BYTE   Cn5
 BYTE   W04
 BYTE   As4
 BYTE   W03
 BYTE   Gs4
 BYTE   W05
 BYTE   N04  Fn4  v112
 BYTE   N03  Gn4  v080
 BYTE   N92  Cn5  v127
 BYTE   W04
 BYTE   N03  Fn4  v080
 BYTE   W03
 BYTE   Ds4
 BYTE   W05
 BYTE   Dn4
 BYTE   W12
 BYTE   PEND 
// 020   ----------------------------------------
 BYTE   W96
// 021   ----------------------------------------
 BYTE   W96
// 022   ----------------------------------------
 BYTE   W96
// 023   ----------------------------------------
Label_0_011F2E6E:
 BYTE   N03  Cn3  v080
 BYTE   W04
 BYTE   Dn3
 BYTE   W03
 BYTE   Ds3
 BYTE   W05
 BYTE   Fn3
 BYTE   W04
 BYTE   Gn3
 BYTE   W03
 BYTE   Gs3
 BYTE   W05
 BYTE   As3
 BYTE   N04  Cn4  v112
 BYTE   N19  Gn4  v127
 BYTE   W04
 BYTE   N03  Cn4  v080
 BYTE   W03
 BYTE   Dn4
 BYTE   W05
 BYTE   Ds4
 BYTE   W04
 BYTE   Fn4
 BYTE   W03
 BYTE   Gn4
 BYTE   W05
 BYTE   Fn4
 BYTE   W04
 BYTE   Ds4
 BYTE   W03
 BYTE   Dn4
 BYTE   W05
 BYTE   Cn4
 BYTE   W04
 BYTE   As3
 BYTE   W03
 BYTE   Gs3
 BYTE   W05
 BYTE   Gn3
 BYTE   N92  Cn4  v108
 BYTE   N92  Fn4  v120
 BYTE   W04
 BYTE   N03  Fn3  v080
 BYTE   W03
 BYTE   Ds3
 BYTE   W05
 BYTE   Dn3
 BYTE   W12
 BYTE   PEND 
// 024   ----------------------------------------
 BYTE   W96
// 025   ----------------------------------------
Label_0_011F2EAE:
 BYTE   W24
 BYTE   N44  Cn4  v096
 BYTE   N44  Gn4  v120
 BYTE   W48
 BYTE   N92  Cn4  v092
 BYTE   N60  Fn4  v116
 BYTE   W24
 BYTE   PEND 
// 026   ----------------------------------------
Label_0_011F2EBE:
 BYTE   W40
 BYTE   N15  Gs3  v096
 BYTE   N15  Ds4  v112
 BYTE   W15
 BYTE   Gs3  v096
 BYTE   N15  Cs4  v112
 BYTE   W17
 BYTE   N11  Gn3  v076
 BYTE   N11  Cn4  v100
 BYTE   W24
 BYTE   PEND 
// 027   ----------------------------------------
 BYTE   W96
// 028   ----------------------------------------
Label_0_011F2ED5:
 BYTE   W24
 BYTE   N23  Cn1  v108
 BYTE   N23  Cn2  v096
 BYTE   W12
 BYTE   Ds3  v076
 BYTE   N23  Gn3
 BYTE   N11  As3  v080
 BYTE   W12
 BYTE   Dn4
 BYTE   W12
 BYTE   N32  Ds3  v076
 BYTE   N32  Gn3
 BYTE   N11  Cn4  v080
 BYTE   W12
 BYTE   Gn4
 BYTE   W12
 BYTE   Dn4  v076
 BYTE   W12
 BYTE   PEND 
// 029   ----------------------------------------
Label_0_011F2EF6:
 BYTE   W12
 BYTE   N23  Ds3  v076
 BYTE   N23  Gn3
 BYTE   N11  As3  v080
 BYTE   W12
 BYTE   Dn4
 BYTE   W12
 BYTE   N32  Ds3  v076
 BYTE   N32  Gn3
 BYTE   N11  Cn4  v080
 BYTE   W12
 BYTE   Gn4
 BYTE   W12
 BYTE   Dn4  v076
 BYTE   W12
 BYTE   N05  Gs0  v116
 BYTE   N05  Gs1  v108
 BYTE   W12
 BYTE   Gs0
 BYTE   N05  Gs1  v096
 BYTE   N11  As3  v076
 BYTE   N11  Dn4
 BYTE   N11  As4
 BYTE   W12
 BYTE   PEND 
// 030   ----------------------------------------
Label_0_011F2F24:
 BYTE   N11  Dn4  v076
 BYTE   N11  Gn4
 BYTE   N11  Dn5
 BYTE   W12
 BYTE   N80  Cn4
 BYTE   N80  Gn4
 BYTE   N80  Cn5
 BYTE   W84
 BYTE   PEND 
// 031   ----------------------------------------
Label_0_011F2F34:
 BYTE   W24
 BYTE   N11  Cn1  v112
 BYTE   N11  Cn2
 BYTE   W12
 BYTE   Cn2  v100
 BYTE   N11  Gn2
 BYTE   N11  Cn3
 BYTE   N23  Dn3  v092
 BYTE   N23  Gn3
 BYTE   N11  As3  v096
 BYTE   W12
 BYTE   Dn4
 BYTE   W12
 BYTE   Gs0  v112
 BYTE   N11  Gs1
 BYTE   N11  Ds3  v092
 BYTE   N11  Gn3
 BYTE   N11  Cn4  v096
 BYTE   W12
 BYTE   Gs1  v100
 BYTE   N11  Ds2
 BYTE   N11  Gs2
 BYTE   N23  Gn3  v092
 BYTE   N23  Cn4
 BYTE   N11  Gn4  v096
 BYTE   W12
 BYTE   Dn4  v092
 BYTE   W12
 BYTE   PEND 
// 032   ----------------------------------------
Label_0_011F2F6C:
 BYTE   N11  Cn1  v112
 BYTE   N11  Cn2
 BYTE   W12
 BYTE   Cn2  v100
 BYTE   N11  Gn2
 BYTE   N11  Cn3
 BYTE   N23  Dn3  v092
 BYTE   N23  Gn3
 BYTE   N11  As3  v096
 BYTE   W12
 BYTE   Dn4
 BYTE   W12
 BYTE   Gs0  v112
 BYTE   N11  Gs1
 BYTE   N11  Ds3  v092
 BYTE   N11  Gn3
 BYTE   N11  Cn4  v096
 BYTE   W12
 BYTE   Gs1  v100
 BYTE   N11  Ds2
 BYTE   N11  Gs2
 BYTE   N23  Gn3  v092
 BYTE   N23  Cn4
 BYTE   N11  Gn4  v096
 BYTE   W12
 BYTE   Dn4  v092
 BYTE   W12
 BYTE   Gn0  v112
 BYTE   N11  Gn1
 BYTE   W12
 BYTE   Gn1  v100
 BYTE   N11  Dn2
 BYTE   N11  Gn2
 BYTE   N11  As3  v096
 BYTE   N11  Dn4
 BYTE   N11  As4  v100
 BYTE   W12
 BYTE   PEND 
// 033   ----------------------------------------
Label_0_011F2FB7:
 BYTE   N11  Dn4  v096
 BYTE   N11  Gn4
 BYTE   N11  Dn5  v100
 BYTE   W12
 BYTE   Gs0  v112
 BYTE   N11  Gs1
 BYTE   N80  Cn4  v096
 BYTE   N80  Gn4
 BYTE   N80  Cn5  v100
 BYTE   W12
 BYTE   N11  Gs1
 BYTE   N11  Ds2
 BYTE   N11  Gs2
 BYTE   W12
 BYTE   N11
 BYTE   N11  Cn3
 BYTE   N11  Ds3
 BYTE   W12
 BYTE   N23  Ds2
 BYTE   N23  Gs2
 BYTE   N23  Dn3
 BYTE   W24
 BYTE   N11  Ds2
 BYTE   N11  Gs2
 BYTE   N11  Cn3
 BYTE   W12
 BYTE   N23  Cn2
 BYTE   N23  Ds2
 BYTE   N23  As2
 BYTE   W12
 BYTE   PEND 
// 034   ----------------------------------------
Label_0_011F2FF0:
 BYTE   W12
 BYTE   N11  Cn2  v100
 BYTE   N11  Ds2
 BYTE   N11  Gs2
 BYTE   W12
 BYTE   Cn1  v120
 BYTE   N11  Cn2
 BYTE   W12
 BYTE   N23  Gn3  v108
 BYTE   N11  As3  v112
 BYTE   W12
 BYTE   Cn2
 BYTE   N11  Gn2
 BYTE   N11  Dn4
 BYTE   W12
 BYTE   N23  Cn2
 BYTE   N23  Gn2
 BYTE   N32  Gn3  v108
 BYTE   N11  Cn4  v112
 BYTE   W12
 BYTE   Gn4
 BYTE   W12
 BYTE   Dn4  v108
 BYTE   W12
 BYTE   PEND 
// 035   ----------------------------------------
Label_0_011F301C:
 BYTE   N11  As0  v120
 BYTE   N11  As1
 BYTE   W12
 BYTE   N23  Gn3  v108
 BYTE   N11  As3  v112
 BYTE   W12
 BYTE   As1
 BYTE   N11  Gn2
 BYTE   N11  Dn4
 BYTE   W12
 BYTE   N23  As1
 BYTE   N23  Gn2
 BYTE   N32  Gn3  v108
 BYTE   N11  Cn4  v112
 BYTE   W12
 BYTE   Gn4
 BYTE   W12
 BYTE   Dn4  v108
 BYTE   W12
 BYTE   Gs0  v120
 BYTE   N11  Gs1
 BYTE   W12
 BYTE   N23  Gn3  v108
 BYTE   N11  As3  v112
 BYTE   W12
 BYTE   PEND 
// 036   ----------------------------------------
Label_0_011F304C:
 BYTE   N11  Gs1  v112
 BYTE   N11  Ds2
 BYTE   N11  Dn4
 BYTE   W12
 BYTE   N92  Gs1
 BYTE   N92  Ds2
 BYTE   N32  Gn3  v108
 BYTE   N11  Cn4  v112
 BYTE   W12
 BYTE   Gn4
 BYTE   W12
 BYTE   Dn4  v108
 BYTE   W12
 BYTE   Cn5  v112
 BYTE   N11  Ds5
 BYTE   W12
 BYTE   Gn4  v108
 BYTE   N11  Cn5
 BYTE   W12
 BYTE   Ds4
 BYTE   N11  Gn4
 BYTE   W12
 BYTE   Cn4
 BYTE   N11  Ds4
 BYTE   W12
 BYTE   PEND 
// 037   ----------------------------------------
Label_0_011F3077:
 BYTE   N11  Gn3  v108
 BYTE   N11  Cn4
 BYTE   W12
 BYTE   Ds3
 BYTE   N11  Gn3
 BYTE   W12
 BYTE   N23  Gn0  v120
 BYTE   N23  Gn1
 BYTE   N23  Gn3  v116
 BYTE   N23  As3  v120
 BYTE   W72
 BYTE   PEND 
// 038   ----------------------------------------
Label_0_011F308E:
 BYTE   W72
 BYTE   TIE  Gs0  v108
 BYTE   TIE  Gs1
 BYTE   W24
 BYTE   PEND 
// 039   ----------------------------------------
Label_0_011F3096:
 BYTE   W12
 BYTE   N23  Cn4  v116
 BYTE   N23  Gn4  v120
 BYTE   W36
 BYTE   N44  Gn4  v116
 BYTE   N44  Cn5  v120
 BYTE   W48
 BYTE   PEND 
// 040   ----------------------------------------
 BYTE   W23
 BYTE   EOT
 BYTE   Gs0  v044
 BYTE   W72
 BYTE   W01
// 041   ----------------------------------------
 BYTE   W96
// 042   ----------------------------------------
Label_0_011F30AD:
 BYTE   W24
 BYTE   N23  Gn2  v108
 BYTE   N23  Cn3
 BYTE   W24
 BYTE   Fn2  v100
 BYTE   N23  Dn3
 BYTE   W24
 BYTE   Cn3  v108
 BYTE   N23  Ds3
 BYTE   W24
 BYTE   PEND 
// 043   ----------------------------------------
Label_0_011F30BF:
 BYTE   N23  Dn3  v112
 BYTE   N23  Fn3
 BYTE   W24
 BYTE   Ds3  v100
 BYTE   N23  Gn3
 BYTE   W24
 BYTE   Ds3  v108
 BYTE   N23  As3
 BYTE   W24
 BYTE   As3  v116
 BYTE   N23  Ds4
 BYTE   W24
 BYTE   PEND 
// 044   ----------------------------------------
 BYTE   As3  v112
 BYTE   N23  Dn4
 BYTE   W24
 BYTE   N72  Cn1  v116
 BYTE   N72  Cn2
 BYTE   N01  Ds3  v092
 BYTE   W01
 BYTE   N44  Gn3  v088
 BYTE   W03
 BYTE   Cn4  v100
 BYTE   W68
// 045   ----------------------------------------
 BYTE   W96
// 046   ----------------------------------------
 BYTE   W96
// 047   ----------------------------------------
 BYTE   W96
// 048   ----------------------------------------
 BYTE   W96
 BYTE   PATT
  POIN2 Label_0_011F2D9B
// 049   ----------------------------------------
 BYTE   W24
 BYTE   N44  Ds4  v112
 BYTE   N44  Bn4
 BYTE   W48
 BYTE   TIE  Gs3
 BYTE   TIE  Ds4
 BYTE   W24
// 050   ----------------------------------------
 BYTE   W96
// 051   ----------------------------------------
 BYTE   W23
 BYTE   EOT
 BYTE   Gs3  v075
 BYTE   W01
 BYTE   N23  Gs3
 BYTE   N23  Fn4
 BYTE   W24
 BYTE   Gs3
 BYTE   N23  Fs4
 BYTE   W24
 BYTE   N92  Cn4
 BYTE   N92  Gn4
 BYTE   W24
// 052   ----------------------------------------
 BYTE   W96
// 053   ----------------------------------------
 BYTE   W96
 BYTE   PATT
  POIN2 Label_0_011F2DC9
 BYTE   PATT
  POIN2 Label_0_011F2DD5
// 054   ----------------------------------------
 BYTE   W96
// 055   ----------------------------------------
 BYTE   W68
 BYTE   W03
 BYTE   EOT
 BYTE   Cn0  v036
 BYTE   Gn3  v072
 BYTE   W01
 BYTE   N23  Gn2  v096
 BYTE   N23  Cn3
 BYTE   W24
 BYTE   PATT
  POIN2 Label_0_011F2DF7
 BYTE   PATT
  POIN2 Label_0_011F2E0D
// 056   ----------------------------------------
 BYTE   W96
// 057   ----------------------------------------
 BYTE   W68
 BYTE   W03
 BYTE   EOT
 BYTE   Cn0  v036
 BYTE   W24
 BYTE   W01
 BYTE   PATT
  POIN2 Label_0_011F2E2A
// 058   ----------------------------------------
 BYTE   W96
// 059   ----------------------------------------
 BYTE   W96
// 060   ----------------------------------------
 BYTE   W96
 BYTE   PATT
  POIN2 Label_0_011F2E6E
// 061   ----------------------------------------
 BYTE   W96
 BYTE   PATT
  POIN2 Label_0_011F2EAE
 BYTE   PATT
  POIN2 Label_0_011F2EBE
// 062   ----------------------------------------
 BYTE   W96
 BYTE   PATT
  POIN2 Label_0_011F2ED5
 BYTE   PATT
  POIN2 Label_0_011F2EF6
 BYTE   PATT
  POIN2 Label_0_011F2F24
 BYTE   PATT
  POIN2 Label_0_011F2F34
 BYTE   PATT
  POIN2 Label_0_011F2F6C
 BYTE   PATT
  POIN2 Label_0_011F2FB7
 BYTE   PATT
  POIN2 Label_0_011F2FF0
 BYTE   PATT
  POIN2 Label_0_011F301C
 BYTE   PATT
  POIN2 Label_0_011F304C
 BYTE   PATT
  POIN2 Label_0_011F3077
 BYTE   PATT
  POIN2 Label_0_011F308E
 BYTE   PATT
  POIN2 Label_0_011F3096
// 063   ----------------------------------------
 BYTE   W23
 BYTE   EOT
 BYTE   Gs0  v044
 BYTE   W72
 BYTE   W01
// 064   ----------------------------------------
 BYTE   W96
 BYTE   PATT
  POIN2 Label_0_011F30AD
 BYTE   PATT
  POIN2 Label_0_011F30BF
// 065   ----------------------------------------
 BYTE   N23  As3  v112
 BYTE   N23  Dn4
 BYTE   W24
 BYTE   N68  Cn1  v116
 BYTE   N68  Cn2
 BYTE   N01  Ds3  v092
 BYTE   W01
 BYTE   N44  Gn3  v088
 BYTE   W03
 BYTE   Cn4  v100
 BYTE   W66
 BYTE   W01
 BYTE   FINE

//**************** Track 2 (Midi-Chn.1) ****************//

KH3582DaysAnotherSideBattleVerMycahel_002:
// 000   ----------------------------------------
 BYTE   VOL   60*KH3582DaysAnotherSideBattleVerMycahel_mvl/mxv
 BYTE   KEYSH   KH3582DaysAnotherSideBattleVerMycahel_key+0
 BYTE   VOICE   63
 BYTE   W96
// 001   ----------------------------------------
 BYTE   W96
// 002   ----------------------------------------
 BYTE   W96
// 003   ----------------------------------------
 BYTE   W96
// 004   ----------------------------------------
 BYTE   W96
// 005   ----------------------------------------
 BYTE   W96
// 006   ----------------------------------------
 BYTE   W96
// 007   ----------------------------------------
 BYTE   W96
// 008   ----------------------------------------
 BYTE   W96
// 009   ----------------------------------------
 BYTE   W96
// 010   ----------------------------------------
 BYTE   W96
// 011   ----------------------------------------
 BYTE   W96
// 012   ----------------------------------------
 BYTE   W96
// 013   ----------------------------------------
 BYTE   W96
// 014   ----------------------------------------
 BYTE   W96
// 015   ----------------------------------------
 BYTE   W96
// 016   ----------------------------------------
 BYTE   W96
// 017   ----------------------------------------
 BYTE   W96
// 018   ----------------------------------------
Label_1_011F31D8:
 BYTE   N23  Ds2  v096
 BYTE   W24
 BYTE   Gn2  v100
 BYTE   W24
 BYTE   Gn2  v088
 BYTE   N23  Cn3  v108
 BYTE   W24
 BYTE   N92  Gs2  v060
 BYTE   N92  Ds3  v080
 BYTE   W24
 BYTE   PEND 
// 019   ----------------------------------------
Label_1_011F31ED:
 BYTE   W72
 BYTE   N44  Gs2  v052
 BYTE   N44  Dn3  v068
 BYTE   W24
 BYTE   PEND 
// 020   ----------------------------------------
Label_1_011F31F6:
 BYTE   W24
 BYTE   N44  Gs2  v052
 BYTE   N44  Cn3  v068
 BYTE   W48
 BYTE   N92  Gn2  v052
 BYTE   N92  As2  v068
 BYTE   W24
 BYTE   PEND 
// 021   ----------------------------------------
Label_1_011F3206:
 BYTE   W72
 BYTE   N92  Gn2  v052
 BYTE   N92  As2  v068
 BYTE   W24
 BYTE   PEND 
// 022   ----------------------------------------
Label_1_011F320F:
 BYTE   W72
 BYTE   TIE  Gs2  v052
 BYTE   TIE  Cn3  v068
 BYTE   W24
 BYTE   PEND 
// 023   ----------------------------------------
 BYTE   W96
// 024   ----------------------------------------
 BYTE   W68
 BYTE   W03
 BYTE   EOT
 BYTE   Gs2  v060
 BYTE   W01
 BYTE   TIE  Fn2  v060
 BYTE   TIE  Gs2
 BYTE   W24
// 025   ----------------------------------------
 BYTE   W96
// 026   ----------------------------------------
 BYTE   W68
 BYTE   W03
 BYTE   EOT
 BYTE   Fn2  v056
 BYTE   W24
 BYTE   W01
// 027   ----------------------------------------
 BYTE   W96
// 028   ----------------------------------------
 BYTE   W96
// 029   ----------------------------------------
 BYTE   W96
// 030   ----------------------------------------
 BYTE   W96
// 031   ----------------------------------------
 BYTE   W96
// 032   ----------------------------------------
 BYTE   W96
// 033   ----------------------------------------
 BYTE   W96
// 034   ----------------------------------------
 BYTE   W96
// 035   ----------------------------------------
 BYTE   W96
// 036   ----------------------------------------
Label_1_011F3236:
 BYTE   W12
 BYTE   N32  Ds2  v088
 BYTE   W36
 BYTE   Gn2  v092
 BYTE   W36
 BYTE   Gn2  v080
 BYTE   N32  Cn3  v100
 BYTE   W12
 BYTE   PEND 
// 037   ----------------------------------------
Label_1_011F3245:
 BYTE   W24
 BYTE   TIE  Gn2  v072
 BYTE   TIE  Dn3  v080
 BYTE   W72
 BYTE   PEND 
// 038   ----------------------------------------
 BYTE   W68
 BYTE   W03
 BYTE   EOT
 BYTE   Gn2  v062
 BYTE   W01
 BYTE   N68  Gn2  v084
 BYTE   TIE  Ds3  v088
 BYTE   W24
// 039   ----------------------------------------
 BYTE   W48
 BYTE   N68  Fn2  v084
 BYTE   W48
// 040   ----------------------------------------
 BYTE   W23
 BYTE   EOT
 BYTE   Ds3
 BYTE   W72
 BYTE   W01
// 041   ----------------------------------------
 BYTE   W96
// 042   ----------------------------------------
 BYTE   W96
// 043   ----------------------------------------
 BYTE   W96
// 044   ----------------------------------------
 BYTE   W96
// 045   ----------------------------------------
 BYTE   W96
// 046   ----------------------------------------
 BYTE   W96
// 047   ----------------------------------------
 BYTE   W96
// 048   ----------------------------------------
 BYTE   W96
// 049   ----------------------------------------
 BYTE   W96
// 050   ----------------------------------------
 BYTE   W96
// 051   ----------------------------------------
 BYTE   W96
// 052   ----------------------------------------
 BYTE   W96
// 053   ----------------------------------------
 BYTE   W96
// 054   ----------------------------------------
 BYTE   W96
// 055   ----------------------------------------
 BYTE   W96
// 056   ----------------------------------------
 BYTE   W96
// 057   ----------------------------------------
 BYTE   W96
// 058   ----------------------------------------
 BYTE   W96
// 059   ----------------------------------------
 BYTE   W96
// 060   ----------------------------------------
 BYTE   W96
// 061   ----------------------------------------
 BYTE   W96
 BYTE   PATT
  POIN2 Label_1_011F31D8
 BYTE   PATT
  POIN2 Label_1_011F31ED
 BYTE   PATT
  POIN2 Label_1_011F31F6
 BYTE   PATT
  POIN2 Label_1_011F3206
 BYTE   PATT
  POIN2 Label_1_011F320F
// 062   ----------------------------------------
 BYTE   W96
// 063   ----------------------------------------
 BYTE   W68
 BYTE   W03
 BYTE   EOT
 BYTE   Gs2  v060
 BYTE   W01
 BYTE   TIE  Fn2  v060
 BYTE   TIE  Gs2
 BYTE   W24
// 064   ----------------------------------------
 BYTE   W96
// 065   ----------------------------------------
 BYTE   W68
 BYTE   W03
 BYTE   EOT
 BYTE   Fn2  v056
 BYTE   W24
 BYTE   W01
// 066   ----------------------------------------
 BYTE   W96
// 067   ----------------------------------------
 BYTE   W96
// 068   ----------------------------------------
 BYTE   W96
// 069   ----------------------------------------
 BYTE   W96
// 070   ----------------------------------------
 BYTE   W96
// 071   ----------------------------------------
 BYTE   W96
// 072   ----------------------------------------
 BYTE   W96
// 073   ----------------------------------------
 BYTE   W96
// 074   ----------------------------------------
 BYTE   W96
 BYTE   PATT
  POIN2 Label_1_011F3236
 BYTE   PATT
  POIN2 Label_1_011F3245
// 075   ----------------------------------------
 BYTE   W68
 BYTE   W03
 BYTE   EOT
 BYTE   Gn2  v062
 BYTE   W01
 BYTE   N68  Gn2  v084
 BYTE   TIE  Ds3  v088
 BYTE   W24
// 076   ----------------------------------------
 BYTE   W48
 BYTE   N68  Fn2  v084
 BYTE   W48
// 077   ----------------------------------------
 BYTE   W23
 BYTE   EOT
 BYTE   Ds3
 BYTE   W72
 BYTE   W01
// 078   ----------------------------------------
 BYTE   W96
// 079   ----------------------------------------
 BYTE   W96
// 080   ----------------------------------------
 BYTE   W96
// 081   ----------------------------------------
 BYTE   W92
 BYTE   W03
 BYTE   FINE

//**************** Track 3 (Midi-Chn.2) ****************//

KH3582DaysAnotherSideBattleVerMycahel_003:
// 000   ----------------------------------------
 BYTE   VOL   45*KH3582DaysAnotherSideBattleVerMycahel_mvl/mxv
 BYTE   KEYSH   KH3582DaysAnotherSideBattleVerMycahel_key+0
 BYTE   VOICE   40
 BYTE   N11  Gn2  v080
 BYTE   N11  Ds3
 BYTE   N11  Cn4
 BYTE   W48
 BYTE   N05  Fn2  v100
 BYTE   N05  Gs2  v112
 BYTE   W06
 BYTE   Gn2  v100
 BYTE   N05  As2  v112
 BYTE   W06
 BYTE   Gs2  v100
 BYTE   N05  Cn3  v112
 BYTE   W06
 BYTE   As2  v100
 BYTE   N05  Dn3  v112
 BYTE   W06
 BYTE   N96  Ds3  v108
 BYTE   W24
// 001   ----------------------------------------
 BYTE   W72
 BYTE   N92  Dn3
 BYTE   W24
// 002   ----------------------------------------
Label_2_011F3307:
 BYTE   W72
 BYTE   TIE  Fn3  v100
 BYTE   W24
 BYTE   PEND 
// 003   ----------------------------------------
 BYTE   W96
// 004   ----------------------------------------
 BYTE   W64
 BYTE   W01
 BYTE   EOT
 BYTE   W07
 BYTE   N92  Bn3  v096
 BYTE   W24
// 005   ----------------------------------------
 BYTE   W72
 BYTE   As3
 BYTE   W24
// 006   ----------------------------------------
Label_2_011F3319:
 BYTE   W72
 BYTE   TIE  Cs4  v096
 BYTE   W24
 BYTE   PEND 
// 007   ----------------------------------------
 BYTE   W96
// 008   ----------------------------------------
 BYTE   W64
 BYTE   W01
 BYTE   EOT
 BYTE   W07
 BYTE   N92  Ds4
 BYTE   W24
// 009   ----------------------------------------
Label_2_011F3327:
 BYTE   W72
 BYTE   TIE  Dn4  v096
 BYTE   W24
 BYTE   PEND 
// 010   ----------------------------------------
 BYTE   W96
// 011   ----------------------------------------
 BYTE   W68
 BYTE   W03
 BYTE   EOT
 BYTE   W01
 BYTE   N92  Fn4
 BYTE   W24
// 012   ----------------------------------------
 BYTE   W96
// 013   ----------------------------------------
 BYTE   W96
// 014   ----------------------------------------
 BYTE   W96
// 015   ----------------------------------------
 BYTE   W96
// 016   ----------------------------------------
Label_2_011F3339:
 BYTE   W24
 BYTE   N05  Dn3  v108
 BYTE   W06
 BYTE   Ds3
 BYTE   W06
 BYTE   Fn3
 BYTE   W06
 BYTE   Gn3
 BYTE   W06
 BYTE   Gs3
 BYTE   W06
 BYTE   As3
 BYTE   W06
 BYTE   Cn4
 BYTE   W06
 BYTE   Dn4
 BYTE   W06
 BYTE   N24  Gs3  v100
 BYTE   N92  Ds4
 BYTE   W24
 BYTE   PEND 
// 017   ----------------------------------------
Label_2_011F3353:
 BYTE   N44  Gs3  v100
 BYTE   W72
 BYTE   N92  Cn4
 BYTE   N92  Gn4
 BYTE   W24
 BYTE   PEND 
// 018   ----------------------------------------
Label_2_011F335D:
 BYTE   W72
 BYTE   N92  Gn4  v100
 BYTE   TIE  Cn5
 BYTE   W24
 BYTE   PEND 
// 019   ----------------------------------------
 BYTE   W72
 BYTE   N48  Fn4
 BYTE   W24
// 020   ----------------------------------------
 BYTE   W24
 BYTE   Ds4  v076
 BYTE   W24
 BYTE   EOT
 BYTE   Cn5
 BYTE   W24
 BYTE   N92  Gn3  v100
 BYTE   N92  Dn4
 BYTE   W24
// 021   ----------------------------------------
Label_2_011F3376:
 BYTE   W72
 BYTE   N92  Dn4  v100
 BYTE   N92  As4
 BYTE   W24
 BYTE   PEND 
// 022   ----------------------------------------
Label_2_011F337E:
 BYTE   W72
 BYTE   TIE  Gn4  v100
 BYTE   TIE  Cn5
 BYTE   W24
 BYTE   PEND 
// 023   ----------------------------------------
 BYTE   W96
// 024   ----------------------------------------
 BYTE   W68
 BYTE   W03
 BYTE   EOT
 BYTE   Gn4  v084
 BYTE   W01
 BYTE   N92  Gn4  v092
 BYTE   N92  Cn5
 BYTE   W24
// 025   ----------------------------------------
Label_2_011F3393:
 BYTE   W72
 BYTE   N92  Fn4  v092
 BYTE   N92  Cn5
 BYTE   W24
 BYTE   PEND 
// 026   ----------------------------------------
 BYTE   W96
// 027   ----------------------------------------
 BYTE   W96
// 028   ----------------------------------------
 BYTE   W96
// 029   ----------------------------------------
 BYTE   W96
// 030   ----------------------------------------
 BYTE   W96
// 031   ----------------------------------------
 BYTE   W96
// 032   ----------------------------------------
 BYTE   W96
// 033   ----------------------------------------
 BYTE   W96
// 034   ----------------------------------------
Label_2_011F33A3:
 BYTE   N02  Dn3  v124
 BYTE   W03
 BYTE   Ds3  v112
 BYTE   W03
 BYTE   Fn3
 BYTE   W03
 BYTE   Gn3
 BYTE   W03
 BYTE   Gs3
 BYTE   W03
 BYTE   As3
 BYTE   W03
 BYTE   Cn4
 BYTE   W03
 BYTE   Dn4
 BYTE   W03
 BYTE   N68  Gn3  v108
 BYTE   N68  Ds4
 BYTE   W72
 BYTE   PEND 
// 035   ----------------------------------------
Label_2_011F33BD:
 BYTE   N68  Cn4  v092
 BYTE   N68  Gn4
 BYTE   W72
 BYTE   TIE  Cn4
 BYTE   TIE  Cn5
 BYTE   W24
 BYTE   PEND 
// 036   ----------------------------------------
 BYTE   W96
// 037   ----------------------------------------
 BYTE   EOT
 BYTE   Cn4  v084
Label_2_011F33CD:
 BYTE   N23  Gn4  v088
 BYTE   N23  Dn5
 BYTE   W24
 BYTE   TIE  Gn4  v100
 BYTE   TIE  As4
 BYTE   W72
 BYTE   PEND 
// 038   ----------------------------------------
 BYTE   W68
 BYTE   W03
 BYTE   EOT
 BYTE   Gn4  v082
 BYTE   W01
 BYTE   N72  Gn4  v088
 BYTE   TIE  Cn5
 BYTE   W24
// 039   ----------------------------------------
 BYTE   W48
 BYTE   N68  Fn4  v076
 BYTE   W48
// 040   ----------------------------------------
 BYTE   W23
 BYTE   EOT
 BYTE   Cn5
 BYTE   W01
 BYTE   TIE  Gn4  v080
 BYTE   TIE  Cn5
 BYTE   W72
// 041   ----------------------------------------
Label_2_011F33F5:
 BYTE   W01
 BYTE   W03
 BYTE   W01
 BYTE   W02
 BYTE   W02
 BYTE   W03
 BYTE   W01
 BYTE   W03
 BYTE   W02
 BYTE   W02
 BYTE   W01
 BYTE   W01
 BYTE   W02
 BYTE   W01
 BYTE   W03
 BYTE   W01
 BYTE   W01
 BYTE   W03
 BYTE   W01
 BYTE   W03
 BYTE   W01
 BYTE   W02
 BYTE   W02
 BYTE   W03
 BYTE   W01
 BYTE   W03
 BYTE   W02
 BYTE   W02
 BYTE   W01
 BYTE   W01
 BYTE   W02
 BYTE   W01
 BYTE   W03
 BYTE   W01
 BYTE   W01
 BYTE   W03
 BYTE   W01
 BYTE   W03
 BYTE   W01
 BYTE   W02
 BYTE   W02
 BYTE   W03
 BYTE   W01
 BYTE   W03
 BYTE   W01
 BYTE   W01
 BYTE   W02
 BYTE   W01
 BYTE   W01
 BYTE   W03
 BYTE   W01
 BYTE   W02
 BYTE   W01
 BYTE   W01
 BYTE   PEND 
// 042   ----------------------------------------
Label_2_011F342C:
 BYTE   W03
 BYTE   W01
 BYTE   W03
 BYTE   W01
 BYTE   W03
 BYTE   W01
 BYTE   W01
 BYTE   W02
 BYTE   W01
 BYTE   W03
 BYTE   W01
 BYTE   W01
 BYTE   W02
 BYTE   PEND 
 BYTE   EOT
 BYTE   Gn4  v084
 BYTE   W01
 BYTE   W72
// 043   ----------------------------------------
 BYTE   W96
// 044   ----------------------------------------
 BYTE   N05  Fn2  v100
 BYTE   N05  Gs2  v112
 BYTE   W06
 BYTE   Gn2  v100
 BYTE   N05  As2  v112
 BYTE   W06
 BYTE   Gs2  v100
 BYTE   N05  Cn3  v112
 BYTE   W06
 BYTE   As2  v100
 BYTE   N05  Dn3  v112
 BYTE   W06
 BYTE   N72  Ds3  v108
 BYTE   W72
// 045   ----------------------------------------
 BYTE   N72
 BYTE   W72
 BYTE   N92  Dn3
 BYTE   W24
 BYTE   PATT
  POIN2 Label_2_011F3307
// 046   ----------------------------------------
 BYTE   W96
// 047   ----------------------------------------
 BYTE   W64
 BYTE   W01
 BYTE   EOT
 BYTE   Fn3
 BYTE   W07
 BYTE   N92  Bn3  v096
 BYTE   W24
// 048   ----------------------------------------
 BYTE   W72
 BYTE   As3
 BYTE   W24
 BYTE   PATT
  POIN2 Label_2_011F3319
// 049   ----------------------------------------
 BYTE   W96
// 050   ----------------------------------------
 BYTE   W64
 BYTE   W01
 BYTE   EOT
 BYTE   Cs4
 BYTE   W07
 BYTE   N92  Ds4  v096
 BYTE   W24
 BYTE   PATT
  POIN2 Label_2_011F3327
// 051   ----------------------------------------
 BYTE   W96
// 052   ----------------------------------------
 BYTE   W68
 BYTE   W03
 BYTE   EOT
 BYTE   Dn4
 BYTE   W01
 BYTE   N92  Fn4  v096
 BYTE   W24
// 053   ----------------------------------------
 BYTE   W96
// 054   ----------------------------------------
 BYTE   W96
// 055   ----------------------------------------
 BYTE   W96
// 056   ----------------------------------------
 BYTE   W96
 BYTE   PATT
  POIN2 Label_2_011F3339
 BYTE   PATT
  POIN2 Label_2_011F3353
 BYTE   PATT
  POIN2 Label_2_011F335D
// 057   ----------------------------------------
 BYTE   W72
 BYTE   N48  Fn4  v100
 BYTE   W24
// 058   ----------------------------------------
 BYTE   W24
 BYTE   Ds4  v084
 BYTE   W24
 BYTE   EOT
 BYTE   Cn5
 BYTE   W24
 BYTE   N92  Gn3  v100
 BYTE   N92  Dn4
 BYTE   W24
 BYTE   PATT
  POIN2 Label_2_011F3376
 BYTE   PATT
  POIN2 Label_2_011F337E
// 059   ----------------------------------------
 BYTE   W96
// 060   ----------------------------------------
 BYTE   W68
 BYTE   W03
 BYTE   EOT
 BYTE   Gn4  v084
 BYTE   W01
 BYTE   N92  Gn4  v092
 BYTE   N92  Cn5
 BYTE   W24
 BYTE   PATT
  POIN2 Label_2_011F3393
// 061   ----------------------------------------
 BYTE   W96
// 062   ----------------------------------------
 BYTE   W96
// 063   ----------------------------------------
 BYTE   W96
// 064   ----------------------------------------
 BYTE   W96
// 065   ----------------------------------------
 BYTE   W96
// 066   ----------------------------------------
 BYTE   W96
// 067   ----------------------------------------
 BYTE   W96
// 068   ----------------------------------------
 BYTE   W96
 BYTE   PATT
  POIN2 Label_2_011F33A3
 BYTE   PATT
  POIN2 Label_2_011F33BD
// 069   ----------------------------------------
 BYTE   W96
// 070   ----------------------------------------
 BYTE   EOT
 BYTE   Cn4  v084
 BYTE   PATT
  POIN2 Label_2_011F33CD
// 071   ----------------------------------------
 BYTE   W68
 BYTE   W03
 BYTE   EOT
 BYTE   Gn4  v082
 BYTE   W01
 BYTE   N72  Gn4  v088
 BYTE   TIE  Cn5
 BYTE   W24
// 072   ----------------------------------------
 BYTE   W48
 BYTE   N68  Fn4  v080
 BYTE   W48
// 073   ----------------------------------------
 BYTE   W23
 BYTE   EOT
 BYTE   Cn5
 BYTE   W01
 BYTE   TIE  Gn4
 BYTE   TIE  Cn5
 BYTE   W72
 BYTE   PATT
  POIN2 Label_2_011F33F5
 BYTE   PATT
  POIN2 Label_2_011F342C
// 074   ----------------------------------------
 BYTE   EOT
 BYTE   Gn4  v084
 BYTE   W01
 BYTE   W72
 BYTE   W96
// 075   ----------------------------------------
 BYTE   N05  Fn2  v100
 BYTE   N05  Gs2  v112
 BYTE   W06
 BYTE   Gn2  v100
 BYTE   N05  As2  v112
 BYTE   W06
 BYTE   Gs2  v100
 BYTE   N05  Cn3  v112
 BYTE   W06
 BYTE   As2  v100
 BYTE   N05  Dn3  v112
 BYTE   W06
 BYTE   N68  Ds3  v108
 BYTE   W68
 BYTE   W03
 BYTE   FINE

//**************** Track 4 (Midi-Chn.3) ****************//

KH3582DaysAnotherSideBattleVerMycahel_004:
// 000   ----------------------------------------
 BYTE   VOL   60*KH3582DaysAnotherSideBattleVerMycahel_mvl/mxv
 BYTE   KEYSH   KH3582DaysAnotherSideBattleVerMycahel_key+0
 BYTE   VOICE   51
 BYTE   W72
 BYTE   N05  Cn2  v108
 BYTE   W12
 BYTE   N05
 BYTE   W12
// 001   ----------------------------------------
Label_3_011F3545:
 BYTE   N05  Dn2  v108
 BYTE   W06
 BYTE   Ds2
 BYTE   W06
 BYTE   Fn2
 BYTE   W06
 BYTE   Cn2
 BYTE   W12
 BYTE   N05
 BYTE   W12
 BYTE   N05
 BYTE   W06
 BYTE   Dn2
 BYTE   W06
 BYTE   Ds2
 BYTE   W06
 BYTE   Fn2
 BYTE   W12
 BYTE   Cn2
 BYTE   W12
 BYTE   N05
 BYTE   W12
 BYTE   PEND 
 BYTE   PATT
  POIN2 Label_3_011F3545
 BYTE   PATT
  POIN2 Label_3_011F3545
// 002   ----------------------------------------
Label_3_011F3568:
 BYTE   N05  Dn2  v108
 BYTE   W06
 BYTE   Ds2
 BYTE   W06
 BYTE   Fn2
 BYTE   W06
 BYTE   Cn2
 BYTE   W12
 BYTE   N05
 BYTE   W12
 BYTE   N05
 BYTE   W06
 BYTE   Dn2
 BYTE   W06
 BYTE   Ds2
 BYTE   W06
 BYTE   Fn2
 BYTE   W12
 BYTE   Gs1
 BYTE   W12
 BYTE   N05
 BYTE   W12
 BYTE   PEND 
// 003   ----------------------------------------
Label_3_011F3581:
 BYTE   N05  As1  v108
 BYTE   W06
 BYTE   Bn1
 BYTE   W06
 BYTE   Cs2
 BYTE   W06
 BYTE   Gs1
 BYTE   W12
 BYTE   N05
 BYTE   W12
 BYTE   N05
 BYTE   W06
 BYTE   As1
 BYTE   W06
 BYTE   Bn1
 BYTE   W06
 BYTE   Cs2
 BYTE   W12
 BYTE   Gs1
 BYTE   W12
 BYTE   N05
 BYTE   W12
 BYTE   PEND 
 BYTE   PATT
  POIN2 Label_3_011F3581
 BYTE   PATT
  POIN2 Label_3_011F3581
// 004   ----------------------------------------
Label_3_011F35A4:
 BYTE   N05  As1  v108
 BYTE   W06
 BYTE   Bn1
 BYTE   W06
 BYTE   Cs2
 BYTE   W06
 BYTE   Gs1
 BYTE   W12
 BYTE   N05
 BYTE   W12
 BYTE   N05
 BYTE   W06
 BYTE   As1
 BYTE   W06
 BYTE   Bn1
 BYTE   W06
 BYTE   Cs2
 BYTE   W12
 BYTE   Cn2
 BYTE   W12
 BYTE   N05
 BYTE   W12
 BYTE   PEND 
 BYTE   PATT
  POIN2 Label_3_011F3545
 BYTE   PATT
  POIN2 Label_3_011F3545
 BYTE   PATT
  POIN2 Label_3_011F3545
// 005   ----------------------------------------
Label_3_011F35CC:
 BYTE   N05  Dn2  v108
 BYTE   W06
 BYTE   Ds2
 BYTE   W06
 BYTE   Fn2
 BYTE   W06
 BYTE   Cn2
 BYTE   W12
 BYTE   N05
 BYTE   W12
 BYTE   N05
 BYTE   W06
 BYTE   Dn2
 BYTE   W06
 BYTE   Ds2
 BYTE   W06
 BYTE   Fn2
 BYTE   W36
 BYTE   PEND 
// 006   ----------------------------------------
 BYTE   W96
// 007   ----------------------------------------
Label_3_011F35E2:
 BYTE   W72
 BYTE   N05  Cn2  v108
 BYTE   W12
 BYTE   N05
 BYTE   W12
 BYTE   PEND 
// 008   ----------------------------------------
Label_3_011F35EA:
 BYTE   N05  Dn2  v108
 BYTE   W06
 BYTE   Ds2
 BYTE   W06
 BYTE   Fn2
 BYTE   W06
 BYTE   Cn2
 BYTE   W54
 BYTE   N05
 BYTE   W12
 BYTE   N05
 BYTE   W12
 BYTE   PEND 
// 009   ----------------------------------------
Label_3_011F35F9:
 BYTE   N05  Dn2  v108
 BYTE   W06
 BYTE   Ds2
 BYTE   W06
 BYTE   Fn2
 BYTE   W06
 BYTE   Cn2
 BYTE   W12
 BYTE   N05
 BYTE   W12
 BYTE   N05
 BYTE   W06
 BYTE   Dn2
 BYTE   W06
 BYTE   Ds2
 BYTE   W06
 BYTE   Fn2
 BYTE   W12
 BYTE   N03  Cn2  v112
 BYTE   W12
 BYTE   N03
 BYTE   W12
 BYTE   PEND 
// 010   ----------------------------------------
Label_3_011F3614:
 BYTE   N01  Cn3  v108
 BYTE   W06
 BYTE   N05  Cn2  v088
 BYTE   W12
 BYTE   Cn2  v108
 BYTE   W06
 BYTE   N03  Cn2  v096
 BYTE   W06
 BYTE   N01  Cn3  v108
 BYTE   W06
 BYTE   Cn2
 BYTE   W06
 BYTE   N03  Cn2  v096
 BYTE   W06
 BYTE   N01  Cn3  v108
 BYTE   W06
 BYTE   Cn2
 BYTE   W06
 BYTE   N01
 BYTE   W06
 BYTE   N03  Cn3
 BYTE   W06
 BYTE   N01  As1
 BYTE   W12
 BYTE   N08  As1  v088
 BYTE   W12
 BYTE   PEND 
// 011   ----------------------------------------
 BYTE   W96
// 012   ----------------------------------------
 BYTE   W96
// 013   ----------------------------------------
 BYTE   W96
// 014   ----------------------------------------
Label_3_011F3643:
 BYTE   N68  Dn3  v112
 BYTE   W72
 BYTE   N92  Gn3  v116
 BYTE   N92  As3  v120
 BYTE   W24
 BYTE   PEND 
// 015   ----------------------------------------
Label_3_011F364F:
 BYTE   W72
 BYTE   TIE  Gs3  v116
 BYTE   TIE  Cn4  v120
 BYTE   W24
 BYTE   PEND 
// 016   ----------------------------------------
 BYTE   W96
// 017   ----------------------------------------
 BYTE   W68
 BYTE   W03
 BYTE   EOT
 BYTE   Gs3  v072
 BYTE   W24
 BYTE   W01
// 018   ----------------------------------------
 BYTE   W96
// 019   ----------------------------------------
 BYTE   W96
// 020   ----------------------------------------
 BYTE   W96
// 021   ----------------------------------------
 BYTE   W96
// 022   ----------------------------------------
 BYTE   W96
// 023   ----------------------------------------
 BYTE   W96
// 024   ----------------------------------------
 BYTE   W96
// 025   ----------------------------------------
 BYTE   W96
// 026   ----------------------------------------
 BYTE   W96
// 027   ----------------------------------------
Label_3_011F3669:
 BYTE   W24
 BYTE   N02  Cn2  v108
 BYTE   W12
 BYTE   N02
 BYTE   W06
 BYTE   Dn2
 BYTE   W06
 BYTE   Ds2
 BYTE   W06
 BYTE   Fn2
 BYTE   W06
 BYTE   Cn2
 BYTE   W12
 BYTE   N02
 BYTE   W06
 BYTE   Dn2
 BYTE   W06
 BYTE   Ds2
 BYTE   W06
 BYTE   Fn2
 BYTE   W06
 BYTE   PEND 
// 028   ----------------------------------------
Label_3_011F3681:
 BYTE   N02  As1  v116
 BYTE   W12
 BYTE   N02
 BYTE   W06
 BYTE   Cn2
 BYTE   W06
 BYTE   Dn2
 BYTE   W06
 BYTE   Ds2
 BYTE   W06
 BYTE   As1
 BYTE   W12
 BYTE   N02
 BYTE   W06
 BYTE   Cn2
 BYTE   W06
 BYTE   Dn2
 BYTE   W06
 BYTE   Ds2
 BYTE   W06
 BYTE   Gs1
 BYTE   W12
 BYTE   N02
 BYTE   W06
 BYTE   As1
 BYTE   W06
 BYTE   PEND 
// 029   ----------------------------------------
Label_3_011F369E:
 BYTE   N02  Cn2  v116
 BYTE   W06
 BYTE   Dn2
 BYTE   W06
 BYTE   Gs1
 BYTE   W12
 BYTE   N02
 BYTE   W06
 BYTE   As1
 BYTE   W06
 BYTE   Cn2
 BYTE   W06
 BYTE   Dn2
 BYTE   W06
 BYTE   Gs1
 BYTE   W12
 BYTE   N02
 BYTE   W06
 BYTE   As1
 BYTE   W06
 BYTE   Cn2
 BYTE   W06
 BYTE   Dn2
 BYTE   W06
 BYTE   Gs1
 BYTE   W12
 BYTE   PEND 
// 030   ----------------------------------------
Label_3_011F36BB:
 BYTE   N02  Gs1  v116
 BYTE   W06
 BYTE   As1
 BYTE   W06
 BYTE   Cn2
 BYTE   W06
 BYTE   Dn2
 BYTE   W06
 BYTE   Gn1
 BYTE   W12
 BYTE   N02
 BYTE   W06
 BYTE   Gs1
 BYTE   W06
 BYTE   As1
 BYTE   W06
 BYTE   Cn2
 BYTE   W06
 BYTE   Gn1
 BYTE   W12
 BYTE   N02
 BYTE   W06
 BYTE   Gs1
 BYTE   W06
 BYTE   As1
 BYTE   W06
 BYTE   Cn2
 BYTE   W06
 BYTE   PEND 
// 031   ----------------------------------------
Label_3_011F36DA:
 BYTE   N02  Gn1  v116
 BYTE   W12
 BYTE   N02
 BYTE   W06
 BYTE   Gs1
 BYTE   W06
 BYTE   As1
 BYTE   W06
 BYTE   Cn2
 BYTE   W06
 BYTE   Gn1
 BYTE   W12
 BYTE   N02
 BYTE   W06
 BYTE   Gs1
 BYTE   W06
 BYTE   As1
 BYTE   W06
 BYTE   Cn2
 BYTE   W06
 BYTE   Gs1
 BYTE   W12
 BYTE   N02
 BYTE   W06
 BYTE   As1
 BYTE   W06
 BYTE   PEND 
 BYTE   PATT
  POIN2 Label_3_011F369E
// 032   ----------------------------------------
Label_3_011F36FC:
 BYTE   N02  Gs1  v116
 BYTE   W06
 BYTE   As1
 BYTE   W06
 BYTE   Cn2
 BYTE   W06
 BYTE   Dn2
 BYTE   W06
 BYTE   N05  Cn2  v100
 BYTE   W12
 BYTE   N05
 BYTE   W12
 BYTE   Dn2
 BYTE   W06
 BYTE   Ds2
 BYTE   W06
 BYTE   Fn2
 BYTE   W06
 BYTE   Cn2
 BYTE   W12
 BYTE   N05
 BYTE   W12
 BYTE   N05
 BYTE   W06
 BYTE   PEND 
// 033   ----------------------------------------
Label_3_011F3719:
 BYTE   N05  Dn2  v100
 BYTE   W06
 BYTE   Ds2
 BYTE   W06
 BYTE   Fn2
 BYTE   W12
 BYTE   Cn2
 BYTE   W12
 BYTE   N05
 BYTE   W12
 BYTE   Dn2
 BYTE   W06
 BYTE   Ds2
 BYTE   W06
 BYTE   Fn2
 BYTE   W06
 BYTE   Cn2
 BYTE   W12
 BYTE   N05
 BYTE   W12
 BYTE   N05
 BYTE   W06
 BYTE   PEND 
 BYTE   PATT
  POIN2 Label_3_011F3719
 BYTE   PATT
  POIN2 Label_3_011F3719
 BYTE   PATT
  POIN2 Label_3_011F3719
 BYTE   PATT
  POIN2 Label_3_011F3545
 BYTE   PATT
  POIN2 Label_3_011F3545
 BYTE   PATT
  POIN2 Label_3_011F3545
 BYTE   PATT
  POIN2 Label_3_011F3568
 BYTE   PATT
  POIN2 Label_3_011F3581
 BYTE   PATT
  POIN2 Label_3_011F3581
 BYTE   PATT
  POIN2 Label_3_011F3581
 BYTE   PATT
  POIN2 Label_3_011F35A4
 BYTE   PATT
  POIN2 Label_3_011F3545
 BYTE   PATT
  POIN2 Label_3_011F3545
 BYTE   PATT
  POIN2 Label_3_011F3545
 BYTE   PATT
  POIN2 Label_3_011F35CC
// 034   ----------------------------------------
 BYTE   W96
 BYTE   PATT
  POIN2 Label_3_011F35E2
 BYTE   PATT
  POIN2 Label_3_011F35EA
 BYTE   PATT
  POIN2 Label_3_011F35F9
 BYTE   PATT
  POIN2 Label_3_011F3614
// 035   ----------------------------------------
 BYTE   W96
// 036   ----------------------------------------
 BYTE   W96
// 037   ----------------------------------------
 BYTE   W96
 BYTE   PATT
  POIN2 Label_3_011F3643
 BYTE   PATT
  POIN2 Label_3_011F364F
// 038   ----------------------------------------
 BYTE   W96
// 039   ----------------------------------------
 BYTE   W68
 BYTE   W03
 BYTE   EOT
 BYTE   Gs3  v072
 BYTE   W24
 BYTE   W01
// 040   ----------------------------------------
 BYTE   W96
// 041   ----------------------------------------
 BYTE   W96
// 042   ----------------------------------------
 BYTE   W96
// 043   ----------------------------------------
 BYTE   W96
// 044   ----------------------------------------
 BYTE   W96
// 045   ----------------------------------------
 BYTE   W96
// 046   ----------------------------------------
 BYTE   W96
// 047   ----------------------------------------
 BYTE   W96
// 048   ----------------------------------------
 BYTE   W96
 BYTE   PATT
  POIN2 Label_3_011F3669
 BYTE   PATT
  POIN2 Label_3_011F3681
 BYTE   PATT
  POIN2 Label_3_011F369E
 BYTE   PATT
  POIN2 Label_3_011F36BB
 BYTE   PATT
  POIN2 Label_3_011F36DA
 BYTE   PATT
  POIN2 Label_3_011F369E
 BYTE   PATT
  POIN2 Label_3_011F36FC
 BYTE   PATT
  POIN2 Label_3_011F3719
 BYTE   PATT
  POIN2 Label_3_011F3719
 BYTE   PATT
  POIN2 Label_3_011F3719
// 049   ----------------------------------------
 BYTE   N05  Dn2  v100
 BYTE   W06
 BYTE   Ds2
 BYTE   W06
 BYTE   Fn2
 BYTE   W12
 BYTE   Cn2
 BYTE   W12
 BYTE   N05
 BYTE   W12
 BYTE   Dn2
 BYTE   W06
 BYTE   Ds2
 BYTE   W06
 BYTE   Fn2
 BYTE   W06
 BYTE   Cn2
 BYTE   W12
 BYTE   N05
 BYTE   W12
 BYTE   N05
 BYTE   W05
 BYTE   FINE

//**************** Track 5 (Midi-Chn.4) ****************//

KH3582DaysAnotherSideBattleVerMycahel_005:
// 000   ----------------------------------------
 BYTE   VOL   127*KH3582DaysAnotherSideBattleVerMycahel_mvl/mxv
 BYTE   KEYSH   KH3582DaysAnotherSideBattleVerMycahel_key+0
 BYTE   VOICE   81
 BYTE   W72
 BYTE   N01  Cn2  v108
 BYTE   W12
 BYTE   N08  Cn2  v088
 BYTE   W12
// 001   ----------------------------------------
Label_4_011F380B:
 BYTE   N01  Cn3  v108
 BYTE   W06
 BYTE   N05  Cn2  v088
 BYTE   W12
 BYTE   Cn2  v108
 BYTE   W12
 BYTE   N01  Cn3
 BYTE   W06
 BYTE   Cn2
 BYTE   W06
 BYTE   N03  Cn2  v096
 BYTE   W06
 BYTE   N01  Cn3  v108
 BYTE   W06
 BYTE   Cn2
 BYTE   W06
 BYTE   N01
 BYTE   W06
 BYTE   N03  Cn3
 BYTE   W06
 BYTE   N01  Cn2
 BYTE   W12
 BYTE   N08  Cn2  v088
 BYTE   W12
 BYTE   PEND 
// 002   ----------------------------------------
Label_4_011F3832:
 BYTE   N01  Cn3  v108
 BYTE   W06
 BYTE   N05  Cn2  v088
 BYTE   W12
 BYTE   Cn2  v108
 BYTE   W12
 BYTE   As2  v096
 BYTE   W06
 BYTE   N01  Cn3
 BYTE   W06
 BYTE   N03  Cn2
 BYTE   W06
 BYTE   N01  Cn3  v108
 BYTE   W06
 BYTE   N04  As1  v096
 BYTE   W06
 BYTE   N01  Cn2  v108
 BYTE   W06
 BYTE   N03  Gn2
 BYTE   W06
 BYTE   N01  Cn2
 BYTE   W12
 BYTE   N08  Cn2  v088
 BYTE   W12
 BYTE   PEND 
 BYTE   PATT
  POIN2 Label_4_011F380B
// 003   ----------------------------------------
Label_4_011F3862:
 BYTE   N01  Cn3  v108
 BYTE   W06
 BYTE   N05  Cn2  v088
 BYTE   W12
 BYTE   Cn2  v108
 BYTE   W12
 BYTE   As2  v096
 BYTE   W06
 BYTE   N01  Cn3
 BYTE   W06
 BYTE   N03  Cn2
 BYTE   W06
 BYTE   N01  Cn3  v108
 BYTE   W06
 BYTE   N04  As1  v096
 BYTE   W06
 BYTE   N01  Cn2  v108
 BYTE   W06
 BYTE   N03  Gn2
 BYTE   W06
 BYTE   N01  Gs1
 BYTE   W12
 BYTE   N08  Gs1  v088
 BYTE   W12
 BYTE   PEND 
// 004   ----------------------------------------
Label_4_011F388D:
 BYTE   N01  Gs2  v108
 BYTE   W06
 BYTE   N05  Gs1  v088
 BYTE   W12
 BYTE   Gs1  v108
 BYTE   W12
 BYTE   N01  Gs2
 BYTE   W06
 BYTE   Gs1
 BYTE   W06
 BYTE   N03  Gs1  v096
 BYTE   W06
 BYTE   N01  Gs2  v108
 BYTE   W06
 BYTE   Gs1
 BYTE   W06
 BYTE   N01
 BYTE   W06
 BYTE   N03  Gs2
 BYTE   W06
 BYTE   N01  Gs1
 BYTE   W12
 BYTE   N08  Gs1  v088
 BYTE   W12
 BYTE   PEND 
// 005   ----------------------------------------
Label_4_011F38B4:
 BYTE   N01  Gs2  v108
 BYTE   W06
 BYTE   N05  Gs1  v088
 BYTE   W12
 BYTE   Gs1  v108
 BYTE   W12
 BYTE   Fs2  v096
 BYTE   W06
 BYTE   N01  Gs2
 BYTE   W06
 BYTE   N03  Gs1
 BYTE   W06
 BYTE   N01  Gs2  v108
 BYTE   W06
 BYTE   N04  Fs1  v096
 BYTE   W06
 BYTE   N01  Gs1  v108
 BYTE   W06
 BYTE   N03  Ds2
 BYTE   W06
 BYTE   N01  Gs1
 BYTE   W12
 BYTE   N08  Gs1  v088
 BYTE   W12
 BYTE   PEND 
 BYTE   PATT
  POIN2 Label_4_011F388D
// 006   ----------------------------------------
Label_4_011F38E4:
 BYTE   N01  Gs2  v108
 BYTE   W06
 BYTE   N05  Gs1  v088
 BYTE   W12
 BYTE   Gs1  v108
 BYTE   W12
 BYTE   Fs2  v096
 BYTE   W06
 BYTE   N01  Gs2
 BYTE   W06
 BYTE   N03  Gs1
 BYTE   W06
 BYTE   N01  Gs2  v108
 BYTE   W06
 BYTE   N04  Fs1  v096
 BYTE   W06
 BYTE   N01  Gs1  v108
 BYTE   W06
 BYTE   N03  Ds2
 BYTE   W06
 BYTE   N01  Cn2
 BYTE   W12
 BYTE   N08  Cn2  v088
 BYTE   W12
 BYTE   PEND 
 BYTE   PATT
  POIN2 Label_4_011F380B
 BYTE   PATT
  POIN2 Label_4_011F3832
 BYTE   PATT
  POIN2 Label_4_011F380B
// 007   ----------------------------------------
Label_4_011F391E:
 BYTE   N01  Cn3  v108
 BYTE   W06
 BYTE   N05  Cn2  v088
 BYTE   W12
 BYTE   Cn2  v108
 BYTE   W12
 BYTE   As2  v096
 BYTE   W06
 BYTE   N01  Cn3
 BYTE   W06
 BYTE   N03  Cn2
 BYTE   W06
 BYTE   N01  Cn3  v108
 BYTE   W06
 BYTE   N04  As1  v096
 BYTE   W06
 BYTE   N01  Cn2  v108
 BYTE   W06
 BYTE   N03  Gn2
 BYTE   W06
 BYTE   N01  Cn2  v112
 BYTE   W12
 BYTE   N08  Cn2  v092
 BYTE   W12
 BYTE   PEND 
// 008   ----------------------------------------
Label_4_011F394A:
 BYTE   N01  Cn3  v112
 BYTE   W06
 BYTE   N05  Cn2  v092
 BYTE   W12
 BYTE   Cn2  v112
 BYTE   W12
 BYTE   N01  Cn3
 BYTE   W06
 BYTE   Cn2
 BYTE   W06
 BYTE   N03  Cn2  v100
 BYTE   W06
 BYTE   N01  Cn3  v112
 BYTE   W06
 BYTE   Cn2
 BYTE   W06
 BYTE   N01
 BYTE   W06
 BYTE   N03  Cn3
 BYTE   W06
 BYTE   N01  Cn2
 BYTE   W12
 BYTE   N08  Cn2  v092
 BYTE   W12
 BYTE   PEND 
// 009   ----------------------------------------
Label_4_011F3971:
 BYTE   N01  Cn3  v112
 BYTE   W06
 BYTE   N05  Cn2  v092
 BYTE   W12
 BYTE   Cn2  v112
 BYTE   W12
 BYTE   As2  v100
 BYTE   W06
 BYTE   N01  Cn3
 BYTE   W06
 BYTE   N03  Cn2
 BYTE   W06
 BYTE   N01  Cn3  v112
 BYTE   W06
 BYTE   N04  As1  v100
 BYTE   W06
 BYTE   N01  Cn2  v112
 BYTE   W06
 BYTE   N03  Gn2
 BYTE   W06
 BYTE   N01  Cn2
 BYTE   W12
 BYTE   N08  Cn2  v092
 BYTE   W12
 BYTE   PEND 
 BYTE   PATT
  POIN2 Label_4_011F394A
// 010   ----------------------------------------
Label_4_011F39A1:
 BYTE   N01  Cn3  v112
 BYTE   W06
 BYTE   N05  Cn2  v092
 BYTE   W12
 BYTE   Cn2  v112
 BYTE   W12
 BYTE   As2  v100
 BYTE   W06
 BYTE   N01  Cn3
 BYTE   W06
 BYTE   N03  Cn2
 BYTE   W06
 BYTE   N01  Cn3  v112
 BYTE   W06
 BYTE   N04  As1  v100
 BYTE   W06
 BYTE   N01  Cn2  v112
 BYTE   W06
 BYTE   N03  Gn2
 BYTE   W06
 BYTE   N01  Cn2  v108
 BYTE   W12
 BYTE   N08  Cn2  v088
 BYTE   W12
 BYTE   PEND 
// 011   ----------------------------------------
Label_4_011F39CD:
 BYTE   N05  Dn1  v076
 BYTE   W12
 BYTE   Dn1  v040
 BYTE   W06
 BYTE   Cn1  v108
 BYTE   W06
 BYTE   N05
 BYTE   N05  Dn1  v052
 BYTE   W18
 BYTE   N05
 BYTE   W06
 BYTE   Cn1  v108
 BYTE   N05  Dn1  v076
 BYTE   W06
 BYTE   Dn1  v060
 BYTE   W06
 BYTE   Cn1  v108
 BYTE   W06
 BYTE   Dn1  v060
 BYTE   W06
 BYTE   Cn1  v108
 BYTE   W06
 BYTE   Dn1  v052
 BYTE   W06
 BYTE   Cn1  v108
 BYTE   W06
 BYTE   Dn1  v040
 BYTE   W06
 BYTE   PEND 
// 012   ----------------------------------------
Label_4_011F39FA:
 BYTE   N01  As2  v108
 BYTE   W06
 BYTE   N05  As1  v088
 BYTE   W18
 BYTE   N03  As1  v096
 BYTE   W06
 BYTE   N05  Gs2
 BYTE   W06
 BYTE   N01  As2
 BYTE   W06
 BYTE   N03  As1
 BYTE   W06
 BYTE   N01  As2  v108
 BYTE   W06
 BYTE   N04  Gs1  v096
 BYTE   W06
 BYTE   N01  As1  v108
 BYTE   W06
 BYTE   N03  Fn2
 BYTE   W06
 BYTE   N01  Gs1
 BYTE   W12
 BYTE   N08  Gs1  v088
 BYTE   W12
 BYTE   PEND 
// 013   ----------------------------------------
Label_4_011F3A26:
 BYTE   N01  Gs2  v108
 BYTE   W06
 BYTE   N05  Gs1  v088
 BYTE   W12
 BYTE   Gs1  v108
 BYTE   W06
 BYTE   N03  Gs1  v096
 BYTE   W06
 BYTE   N01  Gs2  v108
 BYTE   W06
 BYTE   Gs1
 BYTE   W06
 BYTE   N03  Gs1  v096
 BYTE   W06
 BYTE   N01  Gs2  v108
 BYTE   W06
 BYTE   Gs1
 BYTE   W06
 BYTE   N01
 BYTE   W06
 BYTE   N03  Gs2
 BYTE   W06
 BYTE   N01  Gs1
 BYTE   W12
 BYTE   N08  Gs1  v088
 BYTE   W12
 BYTE   PEND 
 BYTE   PATT
  POIN2 Label_4_011F3A26
// 014   ----------------------------------------
Label_4_011F3A57:
 BYTE   N01  Gn2  v108
 BYTE   W06
 BYTE   N05  Gn1  v088
 BYTE   W12
 BYTE   Gn1  v108
 BYTE   W06
 BYTE   N03  Gn1  v096
 BYTE   W06
 BYTE   N01  Gn2  v108
 BYTE   W06
 BYTE   Gn1
 BYTE   W06
 BYTE   N03  Gn1  v096
 BYTE   W06
 BYTE   N01  Gn2  v108
 BYTE   W06
 BYTE   Gn1
 BYTE   W06
 BYTE   N01
 BYTE   W06
 BYTE   N03  Gn2
 BYTE   W06
 BYTE   N01  Gn1
 BYTE   W12
 BYTE   N08  Gn1  v088
 BYTE   W12
 BYTE   PEND 
// 015   ----------------------------------------
Label_4_011F3A83:
 BYTE   N01  Gn2  v108
 BYTE   W06
 BYTE   N05  Gn1  v088
 BYTE   W18
 BYTE   N03  Gn1  v096
 BYTE   W06
 BYTE   N05  Fn2
 BYTE   W06
 BYTE   N01  Gn2
 BYTE   W06
 BYTE   N03  Gn1
 BYTE   W06
 BYTE   N01  Gn2  v108
 BYTE   W06
 BYTE   N04  Fn1  v096
 BYTE   W06
 BYTE   N01  Gn1  v108
 BYTE   W06
 BYTE   N03  Dn2
 BYTE   W06
 BYTE   N01  Gs1
 BYTE   W12
 BYTE   N08  Gs1  v088
 BYTE   W12
 BYTE   PEND 
 BYTE   PATT
  POIN2 Label_4_011F3A26
// 016   ----------------------------------------
Label_4_011F3AB4:
 BYTE   N01  Gs2  v108
 BYTE   W06
 BYTE   N05  Gs1  v088
 BYTE   W18
 BYTE   N03  Gs1  v096
 BYTE   W06
 BYTE   N05  Gn2
 BYTE   W06
 BYTE   N01  Gs2
 BYTE   W06
 BYTE   N03  Gs1
 BYTE   W06
 BYTE   N01  Gs2  v108
 BYTE   W06
 BYTE   N04  Gn1  v096
 BYTE   W06
 BYTE   N01  Gs1  v108
 BYTE   W06
 BYTE   N03  Ds2
 BYTE   W06
 BYTE   N01  Cs2
 BYTE   W12
 BYTE   N08  Cs2  v088
 BYTE   W12
 BYTE   PEND 
// 017   ----------------------------------------
Label_4_011F3AE0:
 BYTE   N01  Cs3  v108
 BYTE   W06
 BYTE   N05  Cs2  v088
 BYTE   W12
 BYTE   Cs2  v108
 BYTE   W06
 BYTE   N03  Cs2  v096
 BYTE   W06
 BYTE   N01  Cs3  v108
 BYTE   W06
 BYTE   Cs2
 BYTE   W06
 BYTE   N03  Cs2  v096
 BYTE   W06
 BYTE   N01  Cs3  v108
 BYTE   W06
 BYTE   Cs2
 BYTE   W06
 BYTE   N01
 BYTE   W06
 BYTE   N03  Cs3
 BYTE   W06
 BYTE   N01  Cs2
 BYTE   W12
 BYTE   N08  Cs2  v088
 BYTE   W12
 BYTE   PEND 
// 018   ----------------------------------------
Label_4_011F3B0C:
 BYTE   N01  Cs3  v108
 BYTE   W06
 BYTE   N05  Cs2  v088
 BYTE   W18
 BYTE   N03  Cs2  v096
 BYTE   W06
 BYTE   N05  Cn3
 BYTE   W06
 BYTE   N01  Cs3
 BYTE   W06
 BYTE   N03  Cs2
 BYTE   W06
 BYTE   N01  Cs3  v108
 BYTE   W06
 BYTE   N04  Cn2  v096
 BYTE   W06
 BYTE   N01  Cs2  v108
 BYTE   W06
 BYTE   N03  Gs2
 BYTE   W06
 BYTE   N05  Cn1  v100
 BYTE   N05  Cn2  v092
 BYTE   W12
 BYTE   Cn1
 BYTE   N05  Cn2  v080
 BYTE   W12
 BYTE   PEND 
// 019   ----------------------------------------
Label_4_011F3B3D:
 BYTE   N02  Ds2  v108
 BYTE   W06
 BYTE   Fn2
 BYTE   W06
 BYTE   Cn2
 BYTE   W12
 BYTE   N02
 BYTE   W06
 BYTE   Dn2
 BYTE   W06
 BYTE   Ds2
 BYTE   W06
 BYTE   Fn2
 BYTE   W06
 BYTE   Cn2
 BYTE   W12
 BYTE   N02
 BYTE   W06
 BYTE   Dn2
 BYTE   W06
 BYTE   Ds2
 BYTE   W06
 BYTE   Fn2
 BYTE   W06
 BYTE   Cn2
 BYTE   W12
 BYTE   PEND 
// 020   ----------------------------------------
Label_4_011F3B5A:
 BYTE   N02  Cn2  v108
 BYTE   W06
 BYTE   Dn2
 BYTE   W06
 BYTE   Ds2
 BYTE   W06
 BYTE   Fn2
 BYTE   W06
 BYTE   Cn2
 BYTE   W12
 BYTE   N02
 BYTE   W06
 BYTE   Dn2
 BYTE   W06
 BYTE   Ds2
 BYTE   W06
 BYTE   Fn2
 BYTE   W06
 BYTE   Cn2
 BYTE   W12
 BYTE   N02
 BYTE   W06
 BYTE   Dn2
 BYTE   W06
 BYTE   Ds2
 BYTE   W06
 BYTE   Fn2
 BYTE   W06
 BYTE   PEND 
// 021   ----------------------------------------
Label_4_011F3B79:
 BYTE   N02  Cn2  v108
 BYTE   W12
 BYTE   N02
 BYTE   W06
 BYTE   Dn2
 BYTE   W06
 BYTE   Ds2
 BYTE   W06
 BYTE   Fn2
 BYTE   W06
 BYTE   Cn2
 BYTE   W12
 BYTE   N02
 BYTE   W06
 BYTE   Dn2
 BYTE   W06
 BYTE   Ds2
 BYTE   W06
 BYTE   Fn2
 BYTE   W06
 BYTE   Gs1
 BYTE   W12
 BYTE   N02
 BYTE   W06
 BYTE   As1
 BYTE   W06
 BYTE   PEND 
// 022   ----------------------------------------
Label_4_011F3B96:
 BYTE   N02  Cn2  v108
 BYTE   W06
 BYTE   Dn2
 BYTE   W06
 BYTE   Gs1
 BYTE   W12
 BYTE   N02
 BYTE   W06
 BYTE   As1
 BYTE   W06
 BYTE   Cn2
 BYTE   W06
 BYTE   Dn2
 BYTE   W06
 BYTE   Gs1
 BYTE   W12
 BYTE   N02
 BYTE   W06
 BYTE   As1
 BYTE   W06
 BYTE   Cn2
 BYTE   W06
 BYTE   Dn2
 BYTE   W06
 BYTE   Gs1
 BYTE   W12
 BYTE   PEND 
// 023   ----------------------------------------
Label_4_011F3BB3:
 BYTE   N02  Gs1  v108
 BYTE   W06
 BYTE   As1
 BYTE   W06
 BYTE   Cn2
 BYTE   W06
 BYTE   Dn2
 BYTE   W06
 BYTE   Cn2
 BYTE   W12
 BYTE   N02
 BYTE   W06
 BYTE   Dn2
 BYTE   W06
 BYTE   Ds2
 BYTE   W06
 BYTE   Fn2
 BYTE   W06
 BYTE   Gs1
 BYTE   W12
 BYTE   N02
 BYTE   W06
 BYTE   As1
 BYTE   W06
 BYTE   Cn2
 BYTE   W06
 BYTE   Dn2
 BYTE   W06
 BYTE   PEND 
// 024   ----------------------------------------
Label_4_011F3BD2:
 BYTE   N02  Cn2  v108
 BYTE   W12
 BYTE   N02
 BYTE   W06
 BYTE   Dn2
 BYTE   W06
 BYTE   Ds2
 BYTE   W06
 BYTE   Fn2
 BYTE   W06
 BYTE   Gs1
 BYTE   W12
 BYTE   N02
 BYTE   W06
 BYTE   As1
 BYTE   W06
 BYTE   Cn2
 BYTE   W06
 BYTE   Dn2
 BYTE   W06
 BYTE   Gn1
 BYTE   W12
 BYTE   N02
 BYTE   W06
 BYTE   Gs1
 BYTE   W06
 BYTE   PEND 
// 025   ----------------------------------------
Label_4_011F3BEF:
 BYTE   N02  As1  v108
 BYTE   W06
 BYTE   Cn2
 BYTE   W06
 BYTE   Gs1
 BYTE   W12
 BYTE   N02
 BYTE   W06
 BYTE   As1
 BYTE   W06
 BYTE   Cn2
 BYTE   W06
 BYTE   Dn2
 BYTE   W06
 BYTE   Gs1
 BYTE   W12
 BYTE   N02
 BYTE   W06
 BYTE   As1
 BYTE   W06
 BYTE   Cn2
 BYTE   W06
 BYTE   Dn2
 BYTE   W06
 BYTE   Gs1
 BYTE   W12
 BYTE   PEND 
// 026   ----------------------------------------
Label_4_011F3C0C:
 BYTE   N02  Gs1  v108
 BYTE   W06
 BYTE   As1
 BYTE   W06
 BYTE   Cn2
 BYTE   W06
 BYTE   Dn2
 BYTE   W06
 BYTE   Cn2  v116
 BYTE   W12
 BYTE   N02
 BYTE   W06
 BYTE   Dn2
 BYTE   W06
 BYTE   Ds2
 BYTE   W06
 BYTE   Fn2
 BYTE   W06
 BYTE   Cn2
 BYTE   W12
 BYTE   N02
 BYTE   W06
 BYTE   Dn2
 BYTE   W06
 BYTE   Ds2
 BYTE   W06
 BYTE   Fn2
 BYTE   W06
 BYTE   PEND 
// 027   ----------------------------------------
Label_4_011F3C2C:
 BYTE   N02  As1  v108
 BYTE   W12
 BYTE   N02
 BYTE   W06
 BYTE   Cn2
 BYTE   W06
 BYTE   Dn2
 BYTE   W06
 BYTE   Ds2
 BYTE   W06
 BYTE   As1
 BYTE   W12
 BYTE   N02
 BYTE   W06
 BYTE   Cn2
 BYTE   W06
 BYTE   Dn2
 BYTE   W06
 BYTE   Ds2
 BYTE   W06
 BYTE   Gs1
 BYTE   W12
 BYTE   N02
 BYTE   W06
 BYTE   As1
 BYTE   W06
 BYTE   PEND 
 BYTE   PATT
  POIN2 Label_4_011F3B96
// 028   ----------------------------------------
Label_4_011F3C4E:
 BYTE   N02  Gs1  v108
 BYTE   W06
 BYTE   As1
 BYTE   W06
 BYTE   Cn2
 BYTE   W06
 BYTE   Dn2
 BYTE   W06
 BYTE   Gn1
 BYTE   W12
 BYTE   N02
 BYTE   W06
 BYTE   Gs1
 BYTE   W06
 BYTE   As1
 BYTE   W06
 BYTE   Cn2
 BYTE   W06
 BYTE   Gn1
 BYTE   W12
 BYTE   N02
 BYTE   W06
 BYTE   Gs1
 BYTE   W06
 BYTE   As1
 BYTE   W06
 BYTE   Cn2
 BYTE   W06
 BYTE   PEND 
// 029   ----------------------------------------
Label_4_011F3C6D:
 BYTE   N02  Gn1  v108
 BYTE   W12
 BYTE   N02
 BYTE   W06
 BYTE   Gs1
 BYTE   W06
 BYTE   As1
 BYTE   W06
 BYTE   Cn2
 BYTE   W06
 BYTE   Gn1
 BYTE   W12
 BYTE   N02
 BYTE   W06
 BYTE   Gs1
 BYTE   W06
 BYTE   As1
 BYTE   W06
 BYTE   Cn2
 BYTE   W06
 BYTE   Gs1
 BYTE   W12
 BYTE   N02
 BYTE   W06
 BYTE   As1
 BYTE   W06
 BYTE   PEND 
 BYTE   PATT
  POIN2 Label_4_011F3B96
// 030   ----------------------------------------
Label_4_011F3C8F:
 BYTE   N02  Gs1  v108
 BYTE   W06
 BYTE   As1
 BYTE   W06
 BYTE   Cn2
 BYTE   W06
 BYTE   Dn2
 BYTE   W06
 BYTE   N01  Cn2
 BYTE   W12
 BYTE   N08  Cn2  v088
 BYTE   W12
 BYTE   N01  Cn3  v108
 BYTE   W06
 BYTE   N05  Cn2  v088
 BYTE   W12
 BYTE   Cn2  v108
 BYTE   W12
 BYTE   N01  Cn3
 BYTE   W06
 BYTE   Cn2
 BYTE   W06
 BYTE   N03  Cn2  v096
 BYTE   W06
 BYTE   PEND 
// 031   ----------------------------------------
Label_4_011F3CB5:
 BYTE   N01  Cn3  v108
 BYTE   W06
 BYTE   Cn2
 BYTE   W06
 BYTE   N01
 BYTE   W06
 BYTE   N03  Cn3
 BYTE   W06
 BYTE   N01  Cn2
 BYTE   W12
 BYTE   N08  Cn2  v088
 BYTE   W12
 BYTE   N01  Cn3  v108
 BYTE   W06
 BYTE   N05  Cn2  v088
 BYTE   W12
 BYTE   Cn2  v108
 BYTE   W12
 BYTE   As2  v096
 BYTE   W06
 BYTE   N01  Cn3
 BYTE   W06
 BYTE   N03  Cn2
 BYTE   W06
 BYTE   PEND 
// 032   ----------------------------------------
Label_4_011F3CDC:
 BYTE   N01  Cn3  v108
 BYTE   W06
 BYTE   N04  As1  v096
 BYTE   W06
 BYTE   N01  Cn2  v108
 BYTE   W06
 BYTE   N03  Gn2
 BYTE   W06
 BYTE   N01  Cn2
 BYTE   W12
 BYTE   N08  Cn2  v088
 BYTE   W12
 BYTE   N01  Cn3  v108
 BYTE   W06
 BYTE   N05  Cn2  v088
 BYTE   W12
 BYTE   Cn2  v108
 BYTE   W12
 BYTE   N01  Cn3
 BYTE   W06
 BYTE   Cn2
 BYTE   W06
 BYTE   N03  Cn2  v096
 BYTE   W06
 BYTE   PEND 
 BYTE   PATT
  POIN2 Label_4_011F3CB5
 BYTE   PATT
  POIN2 Label_4_011F3CDC
 BYTE   PATT
  POIN2 Label_4_011F380B
 BYTE   PATT
  POIN2 Label_4_011F3832
 BYTE   PATT
  POIN2 Label_4_011F380B
 BYTE   PATT
  POIN2 Label_4_011F3862
 BYTE   PATT
  POIN2 Label_4_011F388D
 BYTE   PATT
  POIN2 Label_4_011F38B4
 BYTE   PATT
  POIN2 Label_4_011F388D
 BYTE   PATT
  POIN2 Label_4_011F38E4
 BYTE   PATT
  POIN2 Label_4_011F380B
 BYTE   PATT
  POIN2 Label_4_011F3832
 BYTE   PATT
  POIN2 Label_4_011F380B
 BYTE   PATT
  POIN2 Label_4_011F391E
 BYTE   PATT
  POIN2 Label_4_011F394A
 BYTE   PATT
  POIN2 Label_4_011F3971
 BYTE   PATT
  POIN2 Label_4_011F394A
 BYTE   PATT
  POIN2 Label_4_011F39A1
 BYTE   PATT
  POIN2 Label_4_011F39CD
 BYTE   PATT
  POIN2 Label_4_011F39FA
 BYTE   PATT
  POIN2 Label_4_011F3A26
 BYTE   PATT
  POIN2 Label_4_011F3A26
 BYTE   PATT
  POIN2 Label_4_011F3A57
 BYTE   PATT
  POIN2 Label_4_011F3A83
 BYTE   PATT
  POIN2 Label_4_011F3A26
 BYTE   PATT
  POIN2 Label_4_011F3AB4
 BYTE   PATT
  POIN2 Label_4_011F3AE0
 BYTE   PATT
  POIN2 Label_4_011F3B0C
 BYTE   PATT
  POIN2 Label_4_011F3B3D
 BYTE   PATT
  POIN2 Label_4_011F3B5A
 BYTE   PATT
  POIN2 Label_4_011F3B79
 BYTE   PATT
  POIN2 Label_4_011F3B96
 BYTE   PATT
  POIN2 Label_4_011F3BB3
 BYTE   PATT
  POIN2 Label_4_011F3BD2
 BYTE   PATT
  POIN2 Label_4_011F3BEF
 BYTE   PATT
  POIN2 Label_4_011F3C0C
 BYTE   PATT
  POIN2 Label_4_011F3C2C
 BYTE   PATT
  POIN2 Label_4_011F3B96
 BYTE   PATT
  POIN2 Label_4_011F3C4E
 BYTE   PATT
  POIN2 Label_4_011F3C6D
 BYTE   PATT
  POIN2 Label_4_011F3B96
 BYTE   PATT
  POIN2 Label_4_011F3C8F
 BYTE   PATT
  POIN2 Label_4_011F3CB5
 BYTE   PATT
  POIN2 Label_4_011F3CDC
 BYTE   PATT
  POIN2 Label_4_011F3CB5
// 033   ----------------------------------------
 BYTE   N01  Cn3  v108
 BYTE   W06
 BYTE   N04  As1  v096
 BYTE   W06
 BYTE   N01  Cn2  v108
 BYTE   W06
 BYTE   N03  Gn2
 BYTE   W06
 BYTE   N01  Cn2
 BYTE   W12
 BYTE   N08  Cn2  v088
 BYTE   W12
 BYTE   N01  Cn3  v108
 BYTE   W06
 BYTE   N05  Cn2  v088
 BYTE   W12
 BYTE   Cn2  v108
 BYTE   W12
 BYTE   N01  Cn3
 BYTE   W06
 BYTE   Cn2
 BYTE   W06
 BYTE   N03  Cn2  v096
 BYTE   W05
 BYTE   FINE

//**************** Track 6 (Midi-Chn.5) ****************//

KH3582DaysAnotherSideBattleVerMycahel_006:
// 000   ----------------------------------------
 BYTE   VOL   42*KH3582DaysAnotherSideBattleVerMycahel_mvl/mxv
 BYTE   KEYSH   KH3582DaysAnotherSideBattleVerMycahel_key+0
 BYTE   VOICE   41
 BYTE   W72
 BYTE   TIE  Gn2  v108
 BYTE   W24
// 001   ----------------------------------------
 BYTE   W96
// 002   ----------------------------------------
 BYTE   W68
 BYTE   W03
 BYTE   EOT
 BYTE   W01
 BYTE   TIE  Cn3  v100
 BYTE   W24
// 003   ----------------------------------------
 BYTE   W96
// 004   ----------------------------------------
 BYTE   W64
 BYTE   W01
 BYTE   EOT
 BYTE   W07
 BYTE   TIE  Ds3  v096
 BYTE   W24
// 005   ----------------------------------------
 BYTE   W96
// 006   ----------------------------------------
 BYTE   W68
 BYTE   W03
 BYTE   EOT
 BYTE   W01
 BYTE   TIE  Gs3
 BYTE   W24
// 007   ----------------------------------------
 BYTE   W96
// 008   ----------------------------------------
 BYTE   W64
 BYTE   W01
 BYTE   EOT
 BYTE   W07
 BYTE   N92  Gn3
 BYTE   W24
// 009   ----------------------------------------
Label_5_011F3E41:
 BYTE   W72
 BYTE   TIE  Gn3  v096
 BYTE   W24
 BYTE   PEND 
// 010   ----------------------------------------
 BYTE   W96
// 011   ----------------------------------------
 BYTE   W68
 BYTE   W03
 BYTE   EOT
 BYTE   W01
 BYTE   N92  Cn4
 BYTE   W24
// 012   ----------------------------------------
 BYTE   W96
// 013   ----------------------------------------
 BYTE   W96
// 014   ----------------------------------------
 BYTE   W96
// 015   ----------------------------------------
 BYTE   W72
 BYTE   Cn2  v100
 BYTE   W24
// 016   ----------------------------------------
Label_5_011F3E56:
 BYTE   W72
 BYTE   N03  Cn2  v112
 BYTE   W12
 BYTE   N03
 BYTE   W12
 BYTE   PEND 
// 017   ----------------------------------------
Label_5_011F3E5E:
 BYTE   W12
 BYTE   N03  Cn2  v112
 BYTE   W12
 BYTE   N03
 BYTE   W12
 BYTE   N03
 BYTE   W24
 BYTE   N03
 BYTE   W12
 BYTE   As1
 BYTE   W12
 BYTE   N03
 BYTE   W12
 BYTE   PEND 
// 018   ----------------------------------------
Label_5_011F3E6E:
 BYTE   W12
 BYTE   N03  As1  v112
 BYTE   W12
 BYTE   N03
 BYTE   W12
 BYTE   N03
 BYTE   W24
 BYTE   N03
 BYTE   W12
 BYTE   Gs1
 BYTE   W12
 BYTE   N03
 BYTE   W12
 BYTE   PEND 
// 019   ----------------------------------------
Label_5_011F3E7E:
 BYTE   W12
 BYTE   N03  Gs1  v112
 BYTE   W12
 BYTE   N03
 BYTE   W12
 BYTE   N03
 BYTE   W24
 BYTE   N03
 BYTE   W12
 BYTE   N03
 BYTE   W12
 BYTE   N03
 BYTE   W12
 BYTE   PEND 
// 020   ----------------------------------------
Label_5_011F3E8E:
 BYTE   W12
 BYTE   N03  Gs1  v112
 BYTE   W24
 BYTE   N03
 BYTE   W24
 BYTE   N03
 BYTE   W12
 BYTE   Gn1
 BYTE   W12
 BYTE   N03
 BYTE   W12
 BYTE   PEND 
// 021   ----------------------------------------
Label_5_011F3E9C:
 BYTE   W12
 BYTE   N03  Gn1  v112
 BYTE   W12
 BYTE   N03
 BYTE   W12
 BYTE   N03
 BYTE   W24
 BYTE   N03
 BYTE   W12
 BYTE   N03
 BYTE   W12
 BYTE   N03
 BYTE   W12
 BYTE   PEND 
// 022   ----------------------------------------
Label_5_011F3EAC:
 BYTE   W12
 BYTE   N03  Gn1  v112
 BYTE   W12
 BYTE   N03
 BYTE   W12
 BYTE   N03
 BYTE   W24
 BYTE   N03
 BYTE   W12
 BYTE   Gs1
 BYTE   W12
 BYTE   N03
 BYTE   W12
 BYTE   PEND 
 BYTE   PATT
  POIN2 Label_5_011F3E7E
// 023   ----------------------------------------
Label_5_011F3EC1:
 BYTE   W12
 BYTE   N03  Gs1  v112
 BYTE   W24
 BYTE   N03
 BYTE   W24
 BYTE   N03
 BYTE   W12
 BYTE   Cs2
 BYTE   W12
 BYTE   N03
 BYTE   W12
 BYTE   PEND 
// 024   ----------------------------------------
Label_5_011F3ECF:
 BYTE   W12
 BYTE   N03  Cs2  v112
 BYTE   W12
 BYTE   N03
 BYTE   W12
 BYTE   N03
 BYTE   W24
 BYTE   N03
 BYTE   W12
 BYTE   N03
 BYTE   W12
 BYTE   N03
 BYTE   W12
 BYTE   PEND 
// 025   ----------------------------------------
Label_5_011F3EDF:
 BYTE   W12
 BYTE   N03  Cs2  v112
 BYTE   W24
 BYTE   N03
 BYTE   W24
 BYTE   N03
 BYTE   W12
 BYTE   N02  Cn2  v092
 BYTE   W12
 BYTE   N02
 BYTE   W06
 BYTE   Dn2
 BYTE   W06
 BYTE   PEND 
// 026   ----------------------------------------
Label_5_011F3EF1:
 BYTE   N02  Ds2  v092
 BYTE   W06
 BYTE   Fn2
 BYTE   W06
 BYTE   Cn2
 BYTE   W12
 BYTE   N02
 BYTE   W06
 BYTE   Dn2
 BYTE   W06
 BYTE   Ds2
 BYTE   W06
 BYTE   Fn2
 BYTE   W06
 BYTE   Cn2
 BYTE   W12
 BYTE   N02
 BYTE   W06
 BYTE   Dn2
 BYTE   W06
 BYTE   Ds2
 BYTE   W06
 BYTE   Fn2
 BYTE   W06
 BYTE   Cn2
 BYTE   W12
 BYTE   PEND 
// 027   ----------------------------------------
Label_5_011F3F0E:
 BYTE   N02  Cn2  v092
 BYTE   W06
 BYTE   Dn2
 BYTE   W06
 BYTE   Ds2
 BYTE   W06
 BYTE   Fn2
 BYTE   W06
 BYTE   Cn2
 BYTE   W12
 BYTE   N02
 BYTE   W06
 BYTE   Dn2
 BYTE   W06
 BYTE   Ds2
 BYTE   W06
 BYTE   Fn2
 BYTE   W06
 BYTE   Cn2
 BYTE   W12
 BYTE   N02
 BYTE   W06
 BYTE   Dn2
 BYTE   W06
 BYTE   Ds2
 BYTE   W06
 BYTE   Fn2
 BYTE   W06
 BYTE   PEND 
// 028   ----------------------------------------
Label_5_011F3F2D:
 BYTE   N02  Cn2  v092
 BYTE   W12
 BYTE   N02
 BYTE   W06
 BYTE   Dn2
 BYTE   W06
 BYTE   Ds2
 BYTE   W06
 BYTE   Fn2
 BYTE   W06
 BYTE   Cn2
 BYTE   W12
 BYTE   N02
 BYTE   W06
 BYTE   Dn2
 BYTE   W06
 BYTE   Ds2
 BYTE   W06
 BYTE   Fn2
 BYTE   W06
 BYTE   Gs1
 BYTE   W12
 BYTE   N02
 BYTE   W06
 BYTE   As1
 BYTE   W06
 BYTE   PEND 
// 029   ----------------------------------------
Label_5_011F3F4A:
 BYTE   N02  Cn2  v092
 BYTE   W06
 BYTE   Dn2
 BYTE   W06
 BYTE   Gs1
 BYTE   W12
 BYTE   N02
 BYTE   W06
 BYTE   As1
 BYTE   W06
 BYTE   Cn2
 BYTE   W06
 BYTE   Dn2
 BYTE   W06
 BYTE   Gs1
 BYTE   W12
 BYTE   N02
 BYTE   W06
 BYTE   As1
 BYTE   W06
 BYTE   Cn2
 BYTE   W06
 BYTE   Dn2
 BYTE   W06
 BYTE   Gs1
 BYTE   W12
 BYTE   PEND 
// 030   ----------------------------------------
Label_5_011F3F67:
 BYTE   N02  Gs1  v092
 BYTE   W06
 BYTE   As1
 BYTE   W06
 BYTE   Cn2
 BYTE   W06
 BYTE   Dn2
 BYTE   W06
 BYTE   Cn2
 BYTE   W12
 BYTE   N02
 BYTE   W06
 BYTE   Dn2
 BYTE   W06
 BYTE   Ds2
 BYTE   W06
 BYTE   Fn2
 BYTE   W06
 BYTE   Gs1
 BYTE   W12
 BYTE   N02
 BYTE   W06
 BYTE   As1
 BYTE   W06
 BYTE   Cn2
 BYTE   W06
 BYTE   Dn2
 BYTE   W06
 BYTE   PEND 
// 031   ----------------------------------------
Label_5_011F3F86:
 BYTE   N02  Cn2  v092
 BYTE   W12
 BYTE   N02
 BYTE   W06
 BYTE   Dn2
 BYTE   W06
 BYTE   Ds2
 BYTE   W06
 BYTE   Fn2
 BYTE   W06
 BYTE   Gs1
 BYTE   W12
 BYTE   N02
 BYTE   W06
 BYTE   As1
 BYTE   W06
 BYTE   Cn2
 BYTE   W06
 BYTE   Dn2
 BYTE   W06
 BYTE   Gn1
 BYTE   W12
 BYTE   N02
 BYTE   W06
 BYTE   Gs1
 BYTE   W06
 BYTE   PEND 
// 032   ----------------------------------------
Label_5_011F3FA3:
 BYTE   N02  As1  v092
 BYTE   W06
 BYTE   Cn2
 BYTE   W06
 BYTE   Gs1
 BYTE   W12
 BYTE   N02
 BYTE   W06
 BYTE   As1
 BYTE   W06
 BYTE   Cn2
 BYTE   W06
 BYTE   Dn2
 BYTE   W06
 BYTE   Gs1
 BYTE   W12
 BYTE   N02
 BYTE   W06
 BYTE   As1
 BYTE   W06
 BYTE   Cn2
 BYTE   W06
 BYTE   Dn2
 BYTE   W06
 BYTE   Gs1
 BYTE   W12
 BYTE   PEND 
// 033   ----------------------------------------
Label_5_011F3FC0:
 BYTE   N02  Gs1  v092
 BYTE   W06
 BYTE   As1
 BYTE   W06
 BYTE   Cn2
 BYTE   W06
 BYTE   Dn2
 BYTE   W06
 BYTE   Cn2
 BYTE   W12
 BYTE   N02
 BYTE   W06
 BYTE   Dn2
 BYTE   W06
 BYTE   Ds2
 BYTE   W06
 BYTE   Fn2
 BYTE   W06
 BYTE   Cn2
 BYTE   W12
 BYTE   N02
 BYTE   W06
 BYTE   Dn2
 BYTE   W06
 BYTE   Ds2
 BYTE   W06
 BYTE   Fn2
 BYTE   W06
 BYTE   PEND 
// 034   ----------------------------------------
Label_5_011F3FDF:
 BYTE   N02  As1  v116
 BYTE   W12
 BYTE   N02
 BYTE   W06
 BYTE   Cn2
 BYTE   W06
 BYTE   Dn2
 BYTE   W06
 BYTE   Ds2
 BYTE   W06
 BYTE   As1
 BYTE   W12
 BYTE   N02
 BYTE   W06
 BYTE   Cn2
 BYTE   W06
 BYTE   Dn2
 BYTE   W06
 BYTE   Ds2
 BYTE   W06
 BYTE   Gs1
 BYTE   W12
 BYTE   N02
 BYTE   W06
 BYTE   As1
 BYTE   W06
 BYTE   PEND 
 BYTE   PATT
  POIN2 Label_5_011F3F4A
// 035   ----------------------------------------
Label_5_011F4001:
 BYTE   N02  Gs1  v092
 BYTE   W06
 BYTE   As1
 BYTE   W06
 BYTE   Cn2
 BYTE   W06
 BYTE   Dn2
 BYTE   W06
 BYTE   Gn1
 BYTE   W12
 BYTE   N02
 BYTE   W06
 BYTE   Gs1
 BYTE   W06
 BYTE   As1
 BYTE   W06
 BYTE   Cn2
 BYTE   W06
 BYTE   Gn1
 BYTE   W12
 BYTE   N02
 BYTE   W06
 BYTE   Gs1
 BYTE   W06
 BYTE   As1
 BYTE   W06
 BYTE   Cn2
 BYTE   W06
 BYTE   PEND 
// 036   ----------------------------------------
Label_5_011F4020:
 BYTE   N02  Gn1  v092
 BYTE   W12
 BYTE   N02
 BYTE   W06
 BYTE   Gs1
 BYTE   W06
 BYTE   As1
 BYTE   W06
 BYTE   Cn2
 BYTE   W06
 BYTE   Gn1
 BYTE   W12
 BYTE   N02
 BYTE   W06
 BYTE   Gs1
 BYTE   W06
 BYTE   As1
 BYTE   W06
 BYTE   Cn2
 BYTE   W06
 BYTE   Gs1
 BYTE   W12
 BYTE   N02
 BYTE   W06
 BYTE   As1
 BYTE   W06
 BYTE   PEND 
 BYTE   PATT
  POIN2 Label_5_011F3F4A
// 037   ----------------------------------------
Label_5_011F4042:
 BYTE   N02  Gs1  v092
 BYTE   W06
 BYTE   As1
 BYTE   W06
 BYTE   Cn2
 BYTE   W06
 BYTE   Dn2
 BYTE   W78
 BYTE   PEND 
// 038   ----------------------------------------
 BYTE   W96
// 039   ----------------------------------------
 BYTE   W96
// 040   ----------------------------------------
 BYTE   W96
// 041   ----------------------------------------
 BYTE   N96  Gn2  v108
 BYTE   W96
// 042   ----------------------------------------
 BYTE   TIE
 BYTE   W96
// 043   ----------------------------------------
 BYTE   W68
 BYTE   W03
 BYTE   EOT
 BYTE   W01
 BYTE   TIE  Cn3  v100
 BYTE   W24
// 044   ----------------------------------------
 BYTE   W96
// 045   ----------------------------------------
 BYTE   W64
 BYTE   W01
 BYTE   EOT
 BYTE   W07
 BYTE   TIE  Ds3  v096
 BYTE   W24
// 046   ----------------------------------------
 BYTE   W96
// 047   ----------------------------------------
 BYTE   W68
 BYTE   W03
 BYTE   EOT
 BYTE   W01
 BYTE   TIE  Gs3
 BYTE   W24
// 048   ----------------------------------------
 BYTE   W96
// 049   ----------------------------------------
 BYTE   W64
 BYTE   W01
 BYTE   EOT
 BYTE   W07
 BYTE   N92  Gn3
 BYTE   W24
 BYTE   PATT
  POIN2 Label_5_011F3E41
// 050   ----------------------------------------
 BYTE   W96
// 051   ----------------------------------------
 BYTE   W68
 BYTE   W03
 BYTE   EOT
 BYTE   Gn3
 BYTE   W01
 BYTE   N92  Cn4  v096
 BYTE   W24
// 052   ----------------------------------------
 BYTE   W96
// 053   ----------------------------------------
 BYTE   W96
// 054   ----------------------------------------
 BYTE   W96
// 055   ----------------------------------------
 BYTE   W72
 BYTE   Cn2  v100
 BYTE   W24
 BYTE   PATT
  POIN2 Label_5_011F3E56
 BYTE   PATT
  POIN2 Label_5_011F3E5E
 BYTE   PATT
  POIN2 Label_5_011F3E6E
 BYTE   PATT
  POIN2 Label_5_011F3E7E
 BYTE   PATT
  POIN2 Label_5_011F3E8E
 BYTE   PATT
  POIN2 Label_5_011F3E9C
 BYTE   PATT
  POIN2 Label_5_011F3EAC
 BYTE   PATT
  POIN2 Label_5_011F3E7E
 BYTE   PATT
  POIN2 Label_5_011F3EC1
 BYTE   PATT
  POIN2 Label_5_011F3ECF
 BYTE   PATT
  POIN2 Label_5_011F3EDF
 BYTE   PATT
  POIN2 Label_5_011F3EF1
 BYTE   PATT
  POIN2 Label_5_011F3F0E
 BYTE   PATT
  POIN2 Label_5_011F3F2D
 BYTE   PATT
  POIN2 Label_5_011F3F4A
 BYTE   PATT
  POIN2 Label_5_011F3F67
 BYTE   PATT
  POIN2 Label_5_011F3F86
 BYTE   PATT
  POIN2 Label_5_011F3FA3
 BYTE   PATT
  POIN2 Label_5_011F3FC0
 BYTE   PATT
  POIN2 Label_5_011F3FDF
 BYTE   PATT
  POIN2 Label_5_011F3F4A
 BYTE   PATT
  POIN2 Label_5_011F4001
 BYTE   PATT
  POIN2 Label_5_011F4020
 BYTE   PATT
  POIN2 Label_5_011F3F4A
 BYTE   PATT
  POIN2 Label_5_011F4042
// 056   ----------------------------------------
 BYTE   W96
// 057   ----------------------------------------
 BYTE   W96
// 058   ----------------------------------------
 BYTE   W96
// 059   ----------------------------------------
 BYTE   N92  Gn2  v108
 BYTE   W92
 BYTE   W03
 BYTE   FINE

//**************** Track 7 (Midi-Chn.6) ****************//

KH3582DaysAnotherSideBattleVerMycahel_007:
// 000   ----------------------------------------
 BYTE   VOL   57*KH3582DaysAnotherSideBattleVerMycahel_mvl/mxv
 BYTE   KEYSH   KH3582DaysAnotherSideBattleVerMycahel_key+0
 BYTE   VOICE   127
 BYTE   W72
 BYTE   N05  Cn1  v096
 BYTE   W06
 BYTE   N05
 BYTE   W12
 BYTE   N05
 BYTE   W06
// 001   ----------------------------------------
Label_6_011F4123:
 BYTE   N05  Cn1  v096
 BYTE   W12
 BYTE   N05
 BYTE   W06
 BYTE   N05
 BYTE   W12
 BYTE   N05
 BYTE   W06
 BYTE   N05
 BYTE   W12
 BYTE   N05
 BYTE   W06
 BYTE   N05
 BYTE   W06
 BYTE   N05
 BYTE   W06
 BYTE   N05
 BYTE   W06
 BYTE   N05
 BYTE   W06
 BYTE   N05
 BYTE   W12
 BYTE   N05
 BYTE   W06
 BYTE   PEND 
 BYTE   PATT
  POIN2 Label_6_011F4123
 BYTE   PATT
  POIN2 Label_6_011F4123
// 002   ----------------------------------------
Label_6_011F4148:
 BYTE   N05  Cn1  v096
 BYTE   W12
 BYTE   N05
 BYTE   W06
 BYTE   N05
 BYTE   W12
 BYTE   N05
 BYTE   W06
 BYTE   N05
 BYTE   W12
 BYTE   N05
 BYTE   W06
 BYTE   N05
 BYTE   W06
 BYTE   N05
 BYTE   W06
 BYTE   N05
 BYTE   W06
 BYTE   Gs0
 BYTE   W06
 BYTE   N05
 BYTE   W12
 BYTE   N05
 BYTE   W06
 BYTE   PEND 
// 003   ----------------------------------------
Label_6_011F4163:
 BYTE   N05  Gs0  v096
 BYTE   W12
 BYTE   N05
 BYTE   W06
 BYTE   N05
 BYTE   W12
 BYTE   N05
 BYTE   W06
 BYTE   N05
 BYTE   W12
 BYTE   N05
 BYTE   W06
 BYTE   N05
 BYTE   W06
 BYTE   N05
 BYTE   W06
 BYTE   N05
 BYTE   W06
 BYTE   N05
 BYTE   W06
 BYTE   N05
 BYTE   W12
 BYTE   N05
 BYTE   W06
 BYTE   PEND 
 BYTE   PATT
  POIN2 Label_6_011F4163
 BYTE   PATT
  POIN2 Label_6_011F4163
// 004   ----------------------------------------
Label_6_011F4188:
 BYTE   N05  Gs0  v096
 BYTE   W12
 BYTE   N05
 BYTE   W06
 BYTE   N05
 BYTE   W12
 BYTE   N05
 BYTE   W06
 BYTE   N05
 BYTE   W12
 BYTE   N05
 BYTE   W06
 BYTE   N05
 BYTE   W06
 BYTE   N05
 BYTE   W06
 BYTE   N05
 BYTE   W06
 BYTE   Cn1
 BYTE   W06
 BYTE   N05
 BYTE   W12
 BYTE   N05
 BYTE   W06
 BYTE   PEND 
 BYTE   PATT
  POIN2 Label_6_011F4123
 BYTE   PATT
  POIN2 Label_6_011F4123
 BYTE   PATT
  POIN2 Label_6_011F4123
 BYTE   PATT
  POIN2 Label_6_011F4123
 BYTE   PATT
  POIN2 Label_6_011F4123
 BYTE   PATT
  POIN2 Label_6_011F4123
 BYTE   PATT
  POIN2 Label_6_011F4123
// 005   ----------------------------------------
Label_6_011F41C6:
 BYTE   N05  Cn1  v096
 BYTE   W12
 BYTE   N05
 BYTE   W06
 BYTE   N05
 BYTE   W12
 BYTE   N05
 BYTE   W06
 BYTE   N05
 BYTE   W12
 BYTE   N05
 BYTE   W06
 BYTE   N05
 BYTE   W06
 BYTE   N05
 BYTE   W06
 BYTE   N05
 BYTE   W30
 BYTE   PEND 
// 006   ----------------------------------------
 BYTE   W96
// 007   ----------------------------------------
 BYTE   W96
// 008   ----------------------------------------
 BYTE   W96
// 009   ----------------------------------------
 BYTE   W96
// 010   ----------------------------------------
 BYTE   W96
// 011   ----------------------------------------
 BYTE   W96
// 012   ----------------------------------------
 BYTE   W96
// 013   ----------------------------------------
 BYTE   W96
// 014   ----------------------------------------
 BYTE   W96
// 015   ----------------------------------------
Label_6_011F41E4:
 BYTE   W72
 BYTE   VOL   57*KH3582DaysAnotherSideBattleVerMycahel_mvl/mxv
 BYTE   W12
 BYTE   PAN   c_v-54
 BYTE   N02  Cn1  v080
 BYTE   W12
 BYTE   PEND 
// 016   ----------------------------------------
Label_6_011F41EF:
 BYTE   N02  Cn1  v080
 BYTE   W06
 BYTE   Dn1
 BYTE   W06
 BYTE   Ds1
 BYTE   W06
 BYTE   Fn1
 BYTE   W06
 BYTE   Cn1
 BYTE   W12
 BYTE   N02
 BYTE   W06
 BYTE   Dn1
 BYTE   W06
 BYTE   Ds1
 BYTE   W06
 BYTE   Fn1
 BYTE   W06
 BYTE   Cn1
 BYTE   W12
 BYTE   N02
 BYTE   W06
 BYTE   Dn1
 BYTE   W06
 BYTE   Ds1
 BYTE   W06
 BYTE   Fn1
 BYTE   W06
 BYTE   PEND 
// 017   ----------------------------------------
Label_6_011F420E:
 BYTE   N02  Cn1  v080
 BYTE   W12
 BYTE   N02
 BYTE   W06
 BYTE   Dn1
 BYTE   W06
 BYTE   Ds1
 BYTE   W06
 BYTE   Fn1
 BYTE   W06
 BYTE   Cn1
 BYTE   W12
 BYTE   N02
 BYTE   W06
 BYTE   Dn1
 BYTE   W06
 BYTE   Ds1
 BYTE   W06
 BYTE   Fn1
 BYTE   W06
 BYTE   Cn1
 BYTE   W12
 BYTE   N02
 BYTE   W06
 BYTE   Dn1
 BYTE   W06
 BYTE   PEND 
// 018   ----------------------------------------
Label_6_011F422B:
 BYTE   N02  Ds1  v080
 BYTE   W06
 BYTE   Fn1
 BYTE   W06
 BYTE   Cn1
 BYTE   W12
 BYTE   N02
 BYTE   W06
 BYTE   Dn1
 BYTE   W06
 BYTE   Ds1
 BYTE   W06
 BYTE   Fn1
 BYTE   W06
 BYTE   Cn1
 BYTE   W12
 BYTE   N02
 BYTE   W06
 BYTE   Dn1
 BYTE   W06
 BYTE   Ds1
 BYTE   W06
 BYTE   Fn1
 BYTE   W06
 BYTE   Gs0
 BYTE   W12
 BYTE   PEND 
// 019   ----------------------------------------
Label_6_011F4248:
 BYTE   N02  Gs0  v080
 BYTE   W06
 BYTE   As0
 BYTE   W06
 BYTE   Cn1
 BYTE   W06
 BYTE   Dn1
 BYTE   W06
 BYTE   Gs0
 BYTE   W12
 BYTE   N02
 BYTE   W06
 BYTE   As0
 BYTE   W06
 BYTE   Cn1
 BYTE   W06
 BYTE   Dn1
 BYTE   W06
 BYTE   Gs0
 BYTE   W12
 BYTE   N02
 BYTE   W06
 BYTE   As0
 BYTE   W06
 BYTE   Cn1
 BYTE   W06
 BYTE   Dn1
 BYTE   W06
 BYTE   PEND 
// 020   ----------------------------------------
Label_6_011F4267:
 BYTE   N02  Gs0  v080
 BYTE   W12
 BYTE   N02
 BYTE   W06
 BYTE   As0
 BYTE   W06
 BYTE   Cn1
 BYTE   W06
 BYTE   Dn1
 BYTE   W06
 BYTE   Cn1
 BYTE   W12
 BYTE   N02
 BYTE   W06
 BYTE   Dn1
 BYTE   W06
 BYTE   Ds1
 BYTE   W06
 BYTE   Fn1
 BYTE   W06
 BYTE   Gs0
 BYTE   W12
 BYTE   N02
 BYTE   W06
 BYTE   As0
 BYTE   W06
 BYTE   PEND 
// 021   ----------------------------------------
Label_6_011F4284:
 BYTE   N02  Cn1  v080
 BYTE   W06
 BYTE   Dn1
 BYTE   W06
 BYTE   Cn1
 BYTE   W12
 BYTE   N02
 BYTE   W06
 BYTE   Dn1
 BYTE   W06
 BYTE   Ds1
 BYTE   W06
 BYTE   Fn1
 BYTE   W06
 BYTE   Gs0
 BYTE   W12
 BYTE   N02
 BYTE   W06
 BYTE   As0
 BYTE   W06
 BYTE   Cn1
 BYTE   W06
 BYTE   Dn1
 BYTE   W06
 BYTE   Gn0
 BYTE   W12
 BYTE   PEND 
// 022   ----------------------------------------
Label_6_011F42A1:
 BYTE   N02  Gn0  v080
 BYTE   W06
 BYTE   Gs0
 BYTE   W06
 BYTE   As0
 BYTE   W06
 BYTE   Cn1
 BYTE   W06
 BYTE   Gs0
 BYTE   W12
 BYTE   N02
 BYTE   W06
 BYTE   As0
 BYTE   W06
 BYTE   Cn1
 BYTE   W06
 BYTE   Dn1
 BYTE   W06
 BYTE   Gs0
 BYTE   W12
 BYTE   N02
 BYTE   W06
 BYTE   As0
 BYTE   W06
 BYTE   Cn1
 BYTE   W06
 BYTE   Dn1
 BYTE   W06
 BYTE   PEND 
// 023   ----------------------------------------
Label_6_011F42C0:
 BYTE   N02  Gs0  v080
 BYTE   W12
 BYTE   N02
 BYTE   W06
 BYTE   As0
 BYTE   W06
 BYTE   Cn1
 BYTE   W06
 BYTE   Dn1
 BYTE   W06
 BYTE   Cn1  v088
 BYTE   W12
 BYTE   N02
 BYTE   W06
 BYTE   Dn1
 BYTE   W06
 BYTE   Ds1
 BYTE   W06
 BYTE   Fn1
 BYTE   W06
 BYTE   Cn1
 BYTE   W12
 BYTE   N02
 BYTE   W06
 BYTE   Dn1
 BYTE   W06
 BYTE   PEND 
// 024   ----------------------------------------
Label_6_011F42DE:
 BYTE   N02  Ds1  v088
 BYTE   W06
 BYTE   Fn1
 BYTE   W06
 BYTE   As0
 BYTE   W12
 BYTE   N02
 BYTE   W06
 BYTE   Cn1
 BYTE   W06
 BYTE   Dn1
 BYTE   W06
 BYTE   Ds1
 BYTE   W06
 BYTE   As0
 BYTE   W12
 BYTE   N02
 BYTE   W06
 BYTE   Cn1
 BYTE   W06
 BYTE   Dn1
 BYTE   W06
 BYTE   Ds1
 BYTE   W06
 BYTE   Gs0
 BYTE   W12
 BYTE   PEND 
// 025   ----------------------------------------
Label_6_011F42FB:
 BYTE   N02  Gs0  v088
 BYTE   W06
 BYTE   As0
 BYTE   W06
 BYTE   Cn1
 BYTE   W06
 BYTE   Dn1
 BYTE   W06
 BYTE   Gs0
 BYTE   W12
 BYTE   N02
 BYTE   W06
 BYTE   As0
 BYTE   W06
 BYTE   Cn1
 BYTE   W06
 BYTE   Dn1
 BYTE   W06
 BYTE   Gs0
 BYTE   W12
 BYTE   N02
 BYTE   W06
 BYTE   As0
 BYTE   W06
 BYTE   Cn1
 BYTE   W06
 BYTE   Dn1
 BYTE   W06
 BYTE   PEND 
// 026   ----------------------------------------
Label_6_011F431A:
 BYTE   N02  Gs0  v088
 BYTE   W12
 BYTE   N02
 BYTE   W06
 BYTE   As0
 BYTE   W06
 BYTE   Cn1
 BYTE   W06
 BYTE   Dn1
 BYTE   W06
 BYTE   Gn0
 BYTE   W12
 BYTE   N02
 BYTE   W06
 BYTE   Gs0
 BYTE   W06
 BYTE   As0
 BYTE   W06
 BYTE   Cn1
 BYTE   W06
 BYTE   Gn0
 BYTE   W12
 BYTE   N02
 BYTE   W06
 BYTE   Gs0
 BYTE   W06
 BYTE   PEND 
// 027   ----------------------------------------
Label_6_011F4337:
 BYTE   N02  As0  v088
 BYTE   W06
 BYTE   Cn1
 BYTE   W06
 BYTE   Gn0
 BYTE   W12
 BYTE   N02
 BYTE   W06
 BYTE   Gs0
 BYTE   W06
 BYTE   As0
 BYTE   W06
 BYTE   Cn1
 BYTE   W06
 BYTE   Gn0
 BYTE   W12
 BYTE   N02
 BYTE   W06
 BYTE   Gs0
 BYTE   W06
 BYTE   As0
 BYTE   W06
 BYTE   Cn1
 BYTE   W06
 BYTE   Gs0
 BYTE   W12
 BYTE   PEND 
// 028   ----------------------------------------
Label_6_011F4354:
 BYTE   W48
 BYTE   N05  Cn0  v104
 BYTE   W06
 BYTE   N11  Dn0  v092
 BYTE   W12
 BYTE   N05  Dn0  v076
 BYTE   W06
 BYTE   N11  Dn0  v096
 BYTE   W12
 BYTE   Dn0  v100
 BYTE   W12
 BYTE   PEND 
// 029   ----------------------------------------
Label_6_011F4369:
 BYTE   N05  Dn0  v076
 BYTE   W06
 BYTE   Cn0  v108
 BYTE   W06
 BYTE   Dn0  v092
 BYTE   W06
 BYTE   Dn0  v096
 BYTE   W06
 BYTE   Cn0
 BYTE   W06
 BYTE   Dn0  v052
 BYTE   W06
 BYTE   Dn0  v060
 BYTE   W12
 BYTE   Dn0  v076
 BYTE   W12
 BYTE   Dn0  v040
 BYTE   W06
 BYTE   Cn0  v096
 BYTE   W06
 BYTE   Dn0  v052
 BYTE   W06
 BYTE   Cn0  v096
 BYTE   W06
 BYTE   N05
 BYTE   W06
 BYTE   Dn0  v052
 BYTE   W06
 BYTE   PEND 
// 030   ----------------------------------------
Label_6_011F4393:
 BYTE   N05  Cn1  v096
 BYTE   W06
 BYTE   N05
 BYTE   W06
 BYTE   N05
 BYTE   W06
 BYTE   N05
 BYTE   W06
 BYTE   N05
 BYTE   W06
 BYTE   N05
 BYTE   W12
 BYTE   N05
 BYTE   W06
 BYTE   N05
 BYTE   W12
 BYTE   N05
 BYTE   W06
 BYTE   N05
 BYTE   W12
 BYTE   N05
 BYTE   W06
 BYTE   N05
 BYTE   W12
 BYTE   PEND 
 BYTE   PATT
  POIN2 Label_6_011F4393
 BYTE   PATT
  POIN2 Label_6_011F4393
 BYTE   PATT
  POIN2 Label_6_011F4393
 BYTE   PATT
  POIN2 Label_6_011F4123
 BYTE   PATT
  POIN2 Label_6_011F4123
 BYTE   PATT
  POIN2 Label_6_011F4123
 BYTE   PATT
  POIN2 Label_6_011F4148
 BYTE   PATT
  POIN2 Label_6_011F4163
 BYTE   PATT
  POIN2 Label_6_011F4163
 BYTE   PATT
  POIN2 Label_6_011F4163
 BYTE   PATT
  POIN2 Label_6_011F4188
 BYTE   PATT
  POIN2 Label_6_011F4123
 BYTE   PATT
  POIN2 Label_6_011F4123
 BYTE   PATT
  POIN2 Label_6_011F4123
 BYTE   PATT
  POIN2 Label_6_011F4123
 BYTE   PATT
  POIN2 Label_6_011F4123
 BYTE   PATT
  POIN2 Label_6_011F4123
 BYTE   PATT
  POIN2 Label_6_011F4123
 BYTE   PATT
  POIN2 Label_6_011F41C6
// 031   ----------------------------------------
 BYTE   W96
// 032   ----------------------------------------
 BYTE   W96
// 033   ----------------------------------------
 BYTE   W96
// 034   ----------------------------------------
 BYTE   W96
// 035   ----------------------------------------
 BYTE   W96
// 036   ----------------------------------------
 BYTE   W96
// 037   ----------------------------------------
 BYTE   W96
// 038   ----------------------------------------
 BYTE   W96
// 039   ----------------------------------------
 BYTE   W96
 BYTE   PATT
  POIN2 Label_6_011F41E4
 BYTE   PATT
  POIN2 Label_6_011F41EF
 BYTE   PATT
  POIN2 Label_6_011F420E
 BYTE   PATT
  POIN2 Label_6_011F422B
 BYTE   PATT
  POIN2 Label_6_011F4248
 BYTE   PATT
  POIN2 Label_6_011F4267
 BYTE   PATT
  POIN2 Label_6_011F4284
 BYTE   PATT
  POIN2 Label_6_011F42A1
 BYTE   PATT
  POIN2 Label_6_011F42C0
 BYTE   PATT
  POIN2 Label_6_011F42DE
 BYTE   PATT
  POIN2 Label_6_011F42FB
 BYTE   PATT
  POIN2 Label_6_011F431A
 BYTE   PATT
  POIN2 Label_6_011F4337
 BYTE   PATT
  POIN2 Label_6_011F4354
 BYTE   PATT
  POIN2 Label_6_011F4369
 BYTE   PATT
  POIN2 Label_6_011F4393
 BYTE   PATT
  POIN2 Label_6_011F4393
 BYTE   PATT
  POIN2 Label_6_011F4393
// 040   ----------------------------------------
 BYTE   N05  Cn1  v096
 BYTE   W06
 BYTE   N05
 BYTE   W06
 BYTE   N05
 BYTE   W06
 BYTE   N05
 BYTE   W06
 BYTE   N05
 BYTE   W06
 BYTE   N05
 BYTE   W12
 BYTE   N05
 BYTE   W06
 BYTE   N05
 BYTE   W12
 BYTE   N05
 BYTE   W06
 BYTE   N05
 BYTE   W12
 BYTE   N05
 BYTE   W06
 BYTE   N05
 BYTE   W11
 BYTE   FINE

//**************** Track 8 (Midi-Chn.7) ****************//

KH3582DaysAnotherSideBattleVerMycahel_008:
// 000   ----------------------------------------
 BYTE   VOL   55*KH3582DaysAnotherSideBattleVerMycahel_mvl/mxv
 BYTE   KEYSH   KH3582DaysAnotherSideBattleVerMycahel_key+0
 BYTE   VOICE   68
 BYTE   W96
// 001   ----------------------------------------
 BYTE   W96
// 002   ----------------------------------------
 BYTE   W96
// 003   ----------------------------------------
 BYTE   W96
// 004   ----------------------------------------
 BYTE   W96
// 005   ----------------------------------------
 BYTE   W96
// 006   ----------------------------------------
 BYTE   W96
// 007   ----------------------------------------
 BYTE   W96
// 008   ----------------------------------------
Label_7_011F449A:
 BYTE   W24
 BYTE   N05  Dn3  v108
 BYTE   W06
 BYTE   Ds3
 BYTE   W06
 BYTE   Fn3
 BYTE   W06
 BYTE   Gn3
 BYTE   W06
 BYTE   Gs3
 BYTE   W06
 BYTE   As3
 BYTE   W06
 BYTE   Cn4
 BYTE   W06
 BYTE   N07  Dn4
 BYTE   W06
 BYTE   N92  Ds4  v092
 BYTE   W24
 BYTE   PEND 
// 009   ----------------------------------------
Label_7_011F44B3:
 BYTE   W72
 BYTE   TIE  Dn4  v092
 BYTE   W24
 BYTE   PEND 
// 010   ----------------------------------------
 BYTE   W96
// 011   ----------------------------------------
 BYTE   W68
 BYTE   W03
 BYTE   EOT
 BYTE   W01
 BYTE   N92  Fn4  v100
 BYTE   W24
// 012   ----------------------------------------
 BYTE   W96
// 013   ----------------------------------------
Label_7_011F44C3:
 BYTE   W24
 BYTE   N23  As3  v096
 BYTE   W24
 BYTE   Dn4
 BYTE   W24
 BYTE   Cn4
 BYTE   W24
 BYTE   PEND 
// 014   ----------------------------------------
Label_7_011F44CD:
 BYTE   N44  Gn4  v096
 BYTE   W48
 BYTE   N11  Dn4  v100
 BYTE   W12
 BYTE   N03  Fn4  v112
 BYTE   W04
 BYTE   Gn4
 BYTE   W03
 BYTE   Gs4
 BYTE   W05
 BYTE   N92  As4  v096
 BYTE   W24
 BYTE   PEND 
// 015   ----------------------------------------
 BYTE   W72
 BYTE   N44  Gs4
 BYTE   W24
// 016   ----------------------------------------
Label_7_011F44E6:
 BYTE   W24
 BYTE   N23  Gn4  v096
 BYTE   W24
 BYTE   Fn4
 BYTE   W48
 BYTE   PEND 
// 017   ----------------------------------------
 BYTE   W96
// 018   ----------------------------------------
 BYTE   W96
// 019   ----------------------------------------
Label_7_011F44F0:
 BYTE   N03  Gs3  v080
 BYTE   W04
 BYTE   As3
 BYTE   W03
 BYTE   Cn4
 BYTE   W05
 BYTE   Dn4
 BYTE   W04
 BYTE   Ds4
 BYTE   W03
 BYTE   Fn4
 BYTE   W05
 BYTE   Gn4
 BYTE   W04
 BYTE   Gs4
 BYTE   W03
 BYTE   As4
 BYTE   W05
 BYTE   Cn5
 BYTE   W04
 BYTE   Dn5
 BYTE   W03
 BYTE   Ds5
 BYTE   W05
 BYTE   Dn5
 BYTE   W04
 BYTE   Cn5
 BYTE   W03
 BYTE   As4
 BYTE   W05
 BYTE   Gs4
 BYTE   W04
 BYTE   Gn4
 BYTE   W03
 BYTE   Fn4
 BYTE   W05
 BYTE   Ds4
 BYTE   W04
 BYTE   Dn4
 BYTE   W03
 BYTE   Cn4
 BYTE   W05
 BYTE   Gn3
 BYTE   W12
 BYTE   PEND 
// 020   ----------------------------------------
 BYTE   W96
// 021   ----------------------------------------
 BYTE   W96
// 022   ----------------------------------------
 BYTE   W96
 BYTE   PATT
  POIN2 Label_7_011F44F0
// 023   ----------------------------------------
 BYTE   W96
// 024   ----------------------------------------
 BYTE   W96
// 025   ----------------------------------------
 BYTE   W96
// 026   ----------------------------------------
 BYTE   W96
// 027   ----------------------------------------
 BYTE   W96
// 028   ----------------------------------------
 BYTE   W96
// 029   ----------------------------------------
 BYTE   W96
// 030   ----------------------------------------
 BYTE   W96
// 031   ----------------------------------------
 BYTE   W96
// 032   ----------------------------------------
 BYTE   W96
// 033   ----------------------------------------
Label_7_011F4531:
 BYTE   N04  Dn3  v100
 BYTE   W03
 BYTE   Ds3
 BYTE   W03
 BYTE   Fn3
 BYTE   W03
 BYTE   Gn3
 BYTE   W03
 BYTE   Gs3
 BYTE   W03
 BYTE   As3
 BYTE   W03
 BYTE   Cn4
 BYTE   W03
 BYTE   Dn4
 BYTE   W03
 BYTE   N68  Ds4
 BYTE   W72
 BYTE   PEND 
// 034   ----------------------------------------
Label_7_011F4547:
 BYTE   N68  Gn4  v100
 BYTE   W72
 BYTE   TIE  Cn5
 BYTE   W24
 BYTE   PEND 
// 035   ----------------------------------------
 BYTE   W92
 BYTE   W03
 BYTE   EOT
 BYTE   W01
// 036   ----------------------------------------
Label_7_011F4553:
 BYTE   N23  Dn5  v100
 BYTE   W24
 BYTE   TIE  As4  v080
 BYTE   W72
 BYTE   PEND 
// 037   ----------------------------------------
 BYTE   W68
 BYTE   W03
 BYTE   EOT
 BYTE   W01
 BYTE   TIE  Cn5
 BYTE   W24
// 038   ----------------------------------------
 BYTE   W96
// 039   ----------------------------------------
 BYTE   W23
 BYTE   EOT
 BYTE   W01
 BYTE   TIE  Cn5  v072
 BYTE   W72
// 040   ----------------------------------------
Label_7_011F456B:
 BYTE   W01
 BYTE   W03
 BYTE   W01
 BYTE   W02
 BYTE   W02
 BYTE   W03
 BYTE   W01
 BYTE   W03
 BYTE   W02
 BYTE   W02
 BYTE   W01
 BYTE   W01
 BYTE   W02
 BYTE   W01
 BYTE   W03
 BYTE   W01
 BYTE   W01
 BYTE   W03
 BYTE   W01
 BYTE   W03
 BYTE   W01
 BYTE   W02
 BYTE   W02
 BYTE   W03
 BYTE   W01
 BYTE   W03
 BYTE   W02
 BYTE   W02
 BYTE   W01
 BYTE   W01
 BYTE   W02
 BYTE   W01
 BYTE   W03
 BYTE   W01
 BYTE   W01
 BYTE   W03
 BYTE   W01
 BYTE   W03
 BYTE   W01
 BYTE   W02
 BYTE   W02
 BYTE   W03
 BYTE   W01
 BYTE   W03
 BYTE   W01
 BYTE   W01
 BYTE   W02
 BYTE   W01
 BYTE   W01
 BYTE   W03
 BYTE   W01
 BYTE   W02
 BYTE   W01
 BYTE   W01
 BYTE   PEND 
// 041   ----------------------------------------
Label_7_011F45A2:
 BYTE   W03
 BYTE   W01
 BYTE   W03
 BYTE   W01
 BYTE   W03
 BYTE   W01
 BYTE   W01
 BYTE   W02
 BYTE   W01
 BYTE   W03
 BYTE   W01
 BYTE   W01
 BYTE   W02
 BYTE   PEND 
 BYTE   EOT
 BYTE   Cn5
 BYTE   W01
 BYTE   W72
// 042   ----------------------------------------
 BYTE   W96
// 043   ----------------------------------------
 BYTE   W96
// 044   ----------------------------------------
 BYTE   W96
// 045   ----------------------------------------
 BYTE   W96
// 046   ----------------------------------------
 BYTE   W96
// 047   ----------------------------------------
 BYTE   W96
// 048   ----------------------------------------
 BYTE   W96
// 049   ----------------------------------------
 BYTE   W96
// 050   ----------------------------------------
 BYTE   W96
 BYTE   PATT
  POIN2 Label_7_011F449A
 BYTE   PATT
  POIN2 Label_7_011F44B3
// 051   ----------------------------------------
 BYTE   W96
// 052   ----------------------------------------
 BYTE   W68
 BYTE   W03
 BYTE   EOT
 BYTE   Dn4
 BYTE   W01
 BYTE   N92  Fn4  v100
 BYTE   W24
// 053   ----------------------------------------
 BYTE   W96
 BYTE   PATT
  POIN2 Label_7_011F44C3
 BYTE   PATT
  POIN2 Label_7_011F44CD
// 054   ----------------------------------------
 BYTE   W72
 BYTE   N44  Gs4  v096
 BYTE   W24
 BYTE   PATT
  POIN2 Label_7_011F44E6
// 055   ----------------------------------------
 BYTE   W96
// 056   ----------------------------------------
 BYTE   W96
 BYTE   PATT
  POIN2 Label_7_011F44F0
// 057   ----------------------------------------
 BYTE   W96
// 058   ----------------------------------------
 BYTE   W96
// 059   ----------------------------------------
 BYTE   W96
 BYTE   PATT
  POIN2 Label_7_011F44F0
// 060   ----------------------------------------
 BYTE   W96
// 061   ----------------------------------------
 BYTE   W96
// 062   ----------------------------------------
 BYTE   W96
// 063   ----------------------------------------
 BYTE   W96
// 064   ----------------------------------------
 BYTE   W96
// 065   ----------------------------------------
 BYTE   W96
// 066   ----------------------------------------
 BYTE   W96
// 067   ----------------------------------------
 BYTE   W96
// 068   ----------------------------------------
 BYTE   W96
// 069   ----------------------------------------
 BYTE   W96
 BYTE   PATT
  POIN2 Label_7_011F4531
 BYTE   PATT
  POIN2 Label_7_011F4547
// 070   ----------------------------------------
 BYTE   W92
 BYTE   W03
 BYTE   EOT
 BYTE   Cn5
 BYTE   W01
 BYTE   PATT
  POIN2 Label_7_011F4553
// 071   ----------------------------------------
 BYTE   W68
 BYTE   W03
 BYTE   EOT
 BYTE   As4
 BYTE   W01
 BYTE   TIE  Cn5  v080
 BYTE   W24
// 072   ----------------------------------------
 BYTE   W96
// 073   ----------------------------------------
 BYTE   W23
 BYTE   EOT
 BYTE   W01
 BYTE   TIE  Cn5  v072
 BYTE   W72
 BYTE   PATT
  POIN2 Label_7_011F456B
 BYTE   PATT
  POIN2 Label_7_011F45A2
// 074   ----------------------------------------
 BYTE   EOT
 BYTE   Cn5
 BYTE   W01
 BYTE   W72
 BYTE   W92
// 075   ----------------------------------------
 BYTE   W03
 BYTE   W01
 BYTE   W92
// 076   ----------------------------------------
 BYTE   W03
 BYTE   FINE

//**************** Track 9 (Midi-Chn.8) ****************//

KH3582DaysAnotherSideBattleVerMycahel_009:
// 000   ----------------------------------------
 BYTE   VOL   30*KH3582DaysAnotherSideBattleVerMycahel_mvl/mxv
 BYTE   KEYSH   KH3582DaysAnotherSideBattleVerMycahel_key+0
 BYTE   W24
 BYTE   N24  Cn1  v100
 BYTE   W06
 BYTE   N05  Dn1  v068
 BYTE   W06
 BYTE   N11  Dn1  v088
 BYTE   W12
 BYTE   Dn1  v100
 BYTE   W12
 BYTE   N05  Dn1  v076
 BYTE   W06
 BYTE   Dn1  v100
 BYTE   W06
 BYTE   N28  Cn1
 BYTE   N06  Dn1  v068
 BYTE   N92  Bn2  v088
 BYTE   TIE  Bn5  v068
 BYTE   W06
 BYTE   N06  Dn1  v060
 BYTE   W06
 BYTE   N12
 BYTE   W12
// 001   ----------------------------------------
Label_8_011F4665:
 BYTE   N12  Dn1  v076
 BYTE   W12
 BYTE   Dn1  v040
 BYTE   W06
 BYTE   N05  Cn1  v100
 BYTE   W06
 BYTE   N18  Dn1  v052
 BYTE   W06
 BYTE   N05  Cn1  v100
 BYTE   W06
 BYTE   N05
 BYTE   W06
 BYTE   N06  Dn1  v052
 BYTE   W06
 BYTE   Dn1  v076
 BYTE   W06
 BYTE   N12  Dn1  v060
 BYTE   W06
 BYTE   N05  Cn1  v100
 BYTE   W06
 BYTE   N12  Dn1  v060
 BYTE   W06
 BYTE   N05  Cn1  v100
 BYTE   W06
 BYTE   N12  Dn1  v052
 BYTE   W06
 BYTE   N05  Cn1  v100
 BYTE   W06
 BYTE   N06  Dn1  v040
 BYTE   W06
 BYTE   PEND 
// 002   ----------------------------------------
Label_8_011F469E:
 BYTE   N12  Dn1  v076
 BYTE   W12
 BYTE   Dn1  v040
 BYTE   W06
 BYTE   N05  Cn1  v100
 BYTE   W06
 BYTE   N18  Dn1  v052
 BYTE   W06
 BYTE   N05  Cn1  v100
 BYTE   W06
 BYTE   N05
 BYTE   W06
 BYTE   N06  Dn1  v052
 BYTE   W06
 BYTE   N12  Dn1  v076
 BYTE   W12
 BYTE   N18  Dn1  v060
 BYTE   W06
 BYTE   N05  Cn1  v100
 BYTE   N05  Bn1  v120
 BYTE   W06
 BYTE   Cn1  v100
 BYTE   W06
 BYTE   N06  Dn1  v052
 BYTE   W06
 BYTE   N12  Dn1  v060
 BYTE   W12
 BYTE   PEND 
 BYTE   PATT
  POIN2 Label_8_011F4665
// 003   ----------------------------------------
Label_8_011F46D7:
 BYTE   N12  Dn1  v076
 BYTE   W12
 BYTE   Dn1  v040
 BYTE   W06
 BYTE   N05  Cn1  v100
 BYTE   W06
 BYTE   N18  Dn1  v052
 BYTE   W06
 BYTE   N05  Cn1  v100
 BYTE   W06
 BYTE   N05
 BYTE   W06
 BYTE   N06  Dn1  v052
 BYTE   W06
 BYTE   N12  Dn1  v076
 BYTE   W12
 BYTE   N11  Dn1  v060
 BYTE   W06
 BYTE   N05  Cn1  v100
 BYTE   N05  Bn1  v120
 BYTE   W05
 BYTE   PEND 
 BYTE   EOT
 BYTE   Bn5
 BYTE   W01
 BYTE   N05  Cn1  v100
 BYTE   TIE  Bn1  v060
 BYTE   TIE  Gn5
 BYTE   W06
 BYTE   N05  Dn1  v052
 BYTE   W06
 BYTE   Dn1  v060
 BYTE   W12
// 004   ----------------------------------------
Label_8_011F4713:
 BYTE   N05  Dn1  v076
 BYTE   W12
 BYTE   Dn1  v040
 BYTE   W06
 BYTE   Cn1  v100
 BYTE   W06
 BYTE   Dn1  v052
 BYTE   W06
 BYTE   Cn1  v100
 BYTE   W06
 BYTE   N05
 BYTE   W06
 BYTE   Dn1  v052
 BYTE   W06
 BYTE   Dn1  v076
 BYTE   W06
 BYTE   Dn1  v060
 BYTE   W06
 BYTE   Cn1  v100
 BYTE   W06
 BYTE   Dn1  v060
 BYTE   W06
 BYTE   Cn1  v100
 BYTE   W06
 BYTE   Dn1  v052
 BYTE   W06
 BYTE   Cn1  v100
 BYTE   W06
 BYTE   Dn1  v040
 BYTE   W06
 BYTE   PEND 
// 005   ----------------------------------------
Label_8_011F4741:
 BYTE   N05  Dn1  v076
 BYTE   W12
 BYTE   Dn1  v040
 BYTE   W06
 BYTE   Cn1  v100
 BYTE   W06
 BYTE   Dn1  v052
 BYTE   W06
 BYTE   Cn1  v100
 BYTE   W06
 BYTE   N05
 BYTE   W06
 BYTE   Dn1  v052
 BYTE   W06
 BYTE   Dn1  v076
 BYTE   W12
 BYTE   Dn1  v060
 BYTE   W06
 BYTE   PEND 
 BYTE   EOT
 BYTE   Bn1
 BYTE   N05  Cn1  v100
 BYTE   TIE  Bn1  v120
 BYTE   W06
 BYTE   N05  Cn1  v100
 BYTE   W06
 BYTE   Dn1  v052
 BYTE   W06
 BYTE   Dn1  v060
 BYTE   W12
 BYTE   PATT
  POIN2 Label_8_011F4713
// 006   ----------------------------------------
Label_8_011F4775:
 BYTE   N05  Dn1  v076
 BYTE   W12
 BYTE   Dn1  v040
 BYTE   W06
 BYTE   Cn1  v100
 BYTE   W06
 BYTE   Dn1  v072
 BYTE   W06
 BYTE   Dn1  v052
 BYTE   W06
 BYTE   Dn1  v060
 BYTE   W06
 BYTE   Dn1  v052
 BYTE   W06
 BYTE   Dn1  v056
 BYTE   W06
 BYTE   Dn1  v068
 BYTE   W06
 BYTE   Dn1  v076
 BYTE   W06
 BYTE   N05
 BYTE   N05  Cs2  v120
 BYTE   W05
 BYTE   PEND 
 BYTE   EOT
 BYTE   Bn1  v091
 BYTE   W01
 BYTE   N05  Cn1  v100
 BYTE   N06  Dn1  v076
 BYTE   TIE  Bn5
 BYTE   W06
 BYTE   N06  Dn1  v052
 BYTE   W06
 BYTE   N12  Dn1  v060
 BYTE   W12
 BYTE   PATT
  POIN2 Label_8_011F4665
 BYTE   PATT
  POIN2 Label_8_011F469E
 BYTE   PATT
  POIN2 Label_8_011F4665
 BYTE   PATT
  POIN2 Label_8_011F46D7
// 007   ----------------------------------------
 BYTE   EOT
 BYTE   Bn5
 BYTE   W01
 BYTE   N05  Cn1  v100
 BYTE   W06
 BYTE   Dn1  v052
 BYTE   W06
 BYTE   Dn1  v060
 BYTE   W12
Label_8_011F47D0:
 BYTE   N05  Dn2  v076
 BYTE   W12
 BYTE   Dn2  v040
 BYTE   W06
 BYTE   Cn2  v100
 BYTE   W06
 BYTE   Dn2  v052
 BYTE   W06
 BYTE   Cn2  v100
 BYTE   W06
 BYTE   N05
 BYTE   W06
 BYTE   Dn2  v052
 BYTE   W06
 BYTE   Dn2  v076
 BYTE   W06
 BYTE   Dn2  v060
 BYTE   W06
 BYTE   Cn2  v100
 BYTE   W06
 BYTE   Dn2  v060
 BYTE   W06
// 008   ----------------------------------------
 BYTE   Cn2  v100
 BYTE   W06
 BYTE   Dn2  v052
 BYTE   W06
 BYTE   Cn2  v100
 BYTE   W06
 BYTE   Dn2  v040
 BYTE   W06
 BYTE   PEND 
Label_8_011F47FE:
 BYTE   N05  Dn1  v076
 BYTE   W12
 BYTE   Dn1  v040
 BYTE   W06
 BYTE   Cn1  v100
 BYTE   W06
 BYTE   Dn1  v052
 BYTE   W06
 BYTE   Cn1  v100
 BYTE   W06
 BYTE   N05
 BYTE   W06
 BYTE   Dn1  v052
 BYTE   W06
 BYTE   Dn1  v076
 BYTE   W12
 BYTE   Dn1  v060
 BYTE   W06
 BYTE   Cn1  v100
 BYTE   N05  Bn1  v120
 BYTE   W06
// 009   ----------------------------------------
 BYTE   Cn1  v100
 BYTE   W06
 BYTE   Dn1  v052
 BYTE   W06
 BYTE   Dn1  v060
 BYTE   W12
 BYTE   PEND 
 BYTE   PATT
  POIN2 Label_8_011F4713
// 010   ----------------------------------------
Label_8_011F482E:
 BYTE   N05  Dn1  v076
 BYTE   W12
 BYTE   Dn1  v040
 BYTE   W06
 BYTE   Cn1  v100
 BYTE   W06
 BYTE   Dn1  v052
 BYTE   W06
 BYTE   Cn1  v100
 BYTE   W06
 BYTE   N05
 BYTE   W06
 BYTE   Dn1  v052
 BYTE   W06
 BYTE   Dn1  v076
 BYTE   W12
 BYTE   N04  Dn1  v060
 BYTE   W04
 BYTE   N03  Dn1  v096
 BYTE   W02
 BYTE   N05  Cn1  v100
 BYTE   N05  Bn1  v120
 BYTE   W01
 BYTE   N03  Dn1  v108
 BYTE   W05
 BYTE   N05  Cn1
 BYTE   N06  Dn1  v116
 BYTE   W06
 BYTE   N05  Dn1  v052
 BYTE   W06
 BYTE   Dn1  v060
 BYTE   W06
 BYTE   Dn1  v092
 BYTE   W06
 BYTE   PEND 
// 011   ----------------------------------------
Label_8_011F486A:
 BYTE   N11  Dn1  v076
 BYTE   W12
 BYTE   N05  Dn1  v040
 BYTE   W06
 BYTE   Cn1  v108
 BYTE   N05  Dn1  v092
 BYTE   W06
 BYTE   Cn1  v108
 BYTE   N11  Dn1  v052
 BYTE   W12
 BYTE   N05  Dn1  v080
 BYTE   W06
 BYTE   Dn1  v052
 BYTE   W06
 BYTE   Cn1  v108
 BYTE   N05  Dn1  v076
 BYTE   W06
 BYTE   Dn1  v060
 BYTE   W06
 BYTE   Cn1  v108
 BYTE   N06  Dn1  v092
 BYTE   W06
 BYTE   N05  Dn1  v060
 BYTE   W06
 BYTE   Cn1  v108
 BYTE   N06  Dn1  v100
 BYTE   W06
 BYTE   N05  Dn1  v052
 BYTE   W06
 BYTE   Cn1  v108
 BYTE   N05  Dn1  v080
 BYTE   W06
 BYTE   Dn1  v040
 BYTE   W06
 BYTE   PEND 
// 012   ----------------------------------------
Label_8_011F48AC:
 BYTE   N11  Dn1  v076
 BYTE   W12
 BYTE   N05  Dn1  v040
 BYTE   W06
 BYTE   Cn1  v108
 BYTE   N05  Dn1  v092
 BYTE   W06
 BYTE   Cn1  v108
 BYTE   N11  Dn1  v052
 BYTE   W12
 BYTE   N05  Cn1  v108
 BYTE   N05  Dn1  v080
 BYTE   W06
 BYTE   Dn1  v052
 BYTE   W06
 BYTE   Cn1  v108
 BYTE   N05  Dn1  v076
 BYTE   W06
 BYTE   N02  Dn1  v072
 BYTE   W03
 BYTE   N02
 BYTE   W03
 BYTE   N05  Dn1  v060
 BYTE   W06
 BYTE   Cn1  v108
 BYTE   N05  Dn1  v100
 BYTE   N05  Bn1  v120
 BYTE   W06
 BYTE   Cn1  v108
 BYTE   N06  Dn1  v100
 BYTE   W06
 BYTE   N05  Dn1  v052
 BYTE   W06
 BYTE   Dn1  v060
 BYTE   W06
 BYTE   Dn1  v092
 BYTE   W06
 BYTE   PEND 
 BYTE   PATT
  POIN2 Label_8_011F486A
 BYTE   PATT
  POIN2 Label_8_011F48AC
 BYTE   PATT
  POIN2 Label_8_011F486A
 BYTE   PATT
  POIN2 Label_8_011F48AC
 BYTE   PATT
  POIN2 Label_8_011F486A
 BYTE   PATT
  POIN2 Label_8_011F48AC
 BYTE   PATT
  POIN2 Label_8_011F486A
// 013   ----------------------------------------
Label_8_011F4917:
 BYTE   N11  Dn1  v076
 BYTE   W12
 BYTE   N05  Dn1  v040
 BYTE   W06
 BYTE   Cn1  v108
 BYTE   N05  Dn1  v092
 BYTE   W06
 BYTE   Cn1  v108
 BYTE   N11  Dn1  v052
 BYTE   W12
 BYTE   N05  Cn1  v108
 BYTE   N05  Dn1  v080
 BYTE   W06
 BYTE   Dn1  v052
 BYTE   W06
 BYTE   Cn1  v108
 BYTE   N05  Dn1  v076
 BYTE   W06
 BYTE   N02  Dn1  v072
 BYTE   W03
 BYTE   N02
 BYTE   W03
 BYTE   N05  Dn1  v060
 BYTE   W06
 BYTE   Cn1  v108
 BYTE   N05  Dn1  v100
 BYTE   N05  Bn1  v120
 BYTE   W06
 BYTE   N11  Cn1  v112
 BYTE   N01  Dn1  v080
 BYTE   W01
 BYTE   N04  Dn1  v116
 BYTE   W11
 BYTE   N05  Dn1  v096
 BYTE   W12
 BYTE   PEND 
// 014   ----------------------------------------
 BYTE   W96
// 015   ----------------------------------------
 BYTE   W96
// 016   ----------------------------------------
Label_8_011F4960:
 BYTE   W72
 BYTE   N11  Cn1  v112
 BYTE   TIE  Ds2  v080
 BYTE   W03
 BYTE   W04
 BYTE   W03
 BYTE   W02
 BYTE   N11  Cn1  v112
 BYTE   W01
 BYTE   W05
 BYTE   W03
 BYTE   W03
 BYTE   PEND 
// 017   ----------------------------------------
Label_8_011F4973:
 BYTE   W01
 BYTE   W03
 BYTE   W03
 BYTE   W05
 BYTE   W03
 BYTE   W04
 BYTE   W03
 BYTE   W03
 BYTE   W05
 BYTE   W03
 BYTE   W04
 BYTE   W03
 BYTE   W03
 BYTE   W05
 BYTE   W48
 BYTE   PEND 
// 018   ----------------------------------------
 BYTE   W22
 BYTE   EOT
 BYTE   Ds2
 BYTE   W02
 BYTE   N11  Cn1  v112
 BYTE   W12
 BYTE   N05  Dn1  v088
 BYTE   W06
 BYTE   Dn1  v076
 BYTE   W06
 BYTE   N11
 BYTE   W24
 BYTE   Dn1  v088
 BYTE   W12
 BYTE   Dn1  v076
 BYTE   W12
// 019   ----------------------------------------
Label_8_011F499A:
 BYTE   W12
 BYTE   N05  Dn1  v088
 BYTE   W06
 BYTE   N02  Dn1  v076
 BYTE   W03
 BYTE   N02
 BYTE   W03
 BYTE   N02
 BYTE   W03
 BYTE   N02
 BYTE   W03
 BYTE   N05
 BYTE   W18
 BYTE   N11
 BYTE   W12
 BYTE   Dn1  v088
 BYTE   W12
 BYTE   Cn1  v112
 BYTE   W12
 BYTE   N11
 BYTE   N05  Dn1  v088
 BYTE   TIE  Cn2  v068
 BYTE   W06
 BYTE   N05  Dn1  v076
 BYTE   W06
 BYTE   PEND 
// 020   ----------------------------------------
Label_8_011F49C0:
 BYTE   N11  Dn1  v076
 BYTE   W24
 BYTE   Dn1  v088
 BYTE   W12
 BYTE   Dn1  v076
 BYTE   W24
 BYTE   N05  Dn1  v088
 BYTE   W06
 BYTE   N02  Dn1  v076
 BYTE   W03
 BYTE   N02
 BYTE   W03
 BYTE   N02
 BYTE   W03
 BYTE   N02
 BYTE   W03
 BYTE   N05
 BYTE   W18
 BYTE   PEND 
// 021   ----------------------------------------
Label_8_011F49DB:
 BYTE   N11  Dn1  v076
 BYTE   W12
 BYTE   Dn1  v088
 BYTE   W10
 BYTE   PEND 
 BYTE   EOT
 BYTE   Cn2
 BYTE   W02
 BYTE   N11  Cn1  v112
 BYTE   N05  Dn1  v108
 BYTE   W12
 BYTE   N11  Cn1  v112
 BYTE   N05  Dn1  v108
 BYTE   W60
// 022   ----------------------------------------
Label_8_011F49F4:
 BYTE   W72
 BYTE   PAN   c_v-34
 BYTE   N11  Cn1  v112
 BYTE   W12
 BYTE   N11
 BYTE   W12
 BYTE   PEND 
// 023   ----------------------------------------
 BYTE   W96
// 024   ----------------------------------------
Label_8_011F49FF:
 BYTE   W24
 BYTE   N11  Cn1  v112
 BYTE   N05  Dn1  v108
 BYTE   W12
 BYTE   N11  Cn1  v112
 BYTE   N05  Dn1  v108
 BYTE   W60
 BYTE   PEND 
// 025   ----------------------------------------
Label_8_011F4A0F:
 BYTE   W72
 BYTE   N11  Cn1  v112
 BYTE   N05  Dn1  v108
 BYTE   W12
 BYTE   N11  Cn1  v112
 BYTE   N05  Dn1  v108
 BYTE   W12
 BYTE   PEND 
// 026   ----------------------------------------
Label_8_011F4A1F:
 BYTE   W48
 BYTE   N05  Cn1  v104
 BYTE   W06
 BYTE   N11  Dn1  v092
 BYTE   W12
 BYTE   N05  Dn1  v076
 BYTE   W06
 BYTE   N11  Dn1  v096
 BYTE   W04
 BYTE   N42  Cn3  v092
 BYTE   W08
 BYTE   N11  Dn1  v100
 BYTE   W12
 BYTE   PEND 
// 027   ----------------------------------------
Label_8_011F4A39:
 BYTE   N05  Dn1  v076
 BYTE   W06
 BYTE   N02  Dn1  v068
 BYTE   W03
 BYTE   Dn1  v076
 BYTE   W03
 BYTE   N05  Dn1  v040
 BYTE   W06
 BYTE   Cn1  v100
 BYTE   N05  Dn1
 BYTE   W06
 BYTE   Dn1  v052
 BYTE   TIE  Gn2  v080
 BYTE   N92  Bn2
 BYTE   TIE  Cn3
 BYTE   W06
 BYTE   N05  Cn1  v100
 BYTE   W06
 BYTE   N05
 BYTE   W06
 BYTE   Dn1  v052
 BYTE   W06
 BYTE   Dn1  v076
 BYTE   W12
 BYTE   Dn1  v060
 BYTE   W06
 BYTE   Cn1  v100
 BYTE   N05  Bn1  v120
 BYTE   W06
 BYTE   Cn1  v100
 BYTE   W06
 BYTE   Dn1  v052
 BYTE   W06
 BYTE   Dn1  v060
 BYTE   W12
 BYTE   PEND 
 BYTE   PATT
  POIN2 Label_8_011F47FE
 BYTE   PATT
  POIN2 Label_8_011F47FE
 BYTE   PATT
  POIN2 Label_8_011F47FE
// 028   ----------------------------------------
Label_8_011F4A85:
 BYTE   N05  Dn1  v076
 BYTE   W12
 BYTE   Dn1  v040
 BYTE   W06
 BYTE   Cn1  v100
 BYTE   W05
 BYTE   PEND 
 BYTE   EOT
 BYTE   Gn2  v060
 BYTE   W01
 BYTE   N05  Dn1  v052
 BYTE   TIE  Gn2  v080
 BYTE   TIE  Cn3
 BYTE   W06
 BYTE   N05  Cn1  v100
 BYTE   W06
 BYTE   N05
 BYTE   W06
 BYTE   Dn1  v052
 BYTE   W06
 BYTE   Dn1  v076
 BYTE   W12
 BYTE   Dn1  v060
 BYTE   W06
 BYTE   Cn1  v100
 BYTE   N05  Bn1  v120
 BYTE   W06
 BYTE   Cn1  v100
 BYTE   W06
 BYTE   Dn1  v052
 BYTE   W06
 BYTE   Dn1  v060
 BYTE   W12
// 029   ----------------------------------------
 BYTE   N04  Cn1  v100
 BYTE   N12  Dn1  v076
 BYTE   N68  Bn2  v088
 BYTE   TIE  Bn5  v068
 BYTE   W12
 BYTE   N12  Dn1  v040
 BYTE   W06
 BYTE   N05  Cn1  v100
 BYTE   W06
 BYTE   N18  Dn1  v052
 BYTE   W06
 BYTE   N05  Cn1  v100
 BYTE   W06
 BYTE   N05
 BYTE   W06
 BYTE   N06  Dn1  v052
 BYTE   W06
 BYTE   Dn1  v076
 BYTE   W06
 BYTE   N12  Dn1  v060
 BYTE   W06
 BYTE   N05  Cn1  v100
 BYTE   W06
 BYTE   N12  Dn1  v060
 BYTE   W06
 BYTE   N05  Cn1  v100
 BYTE   W06
 BYTE   N12  Dn1  v052
 BYTE   W06
 BYTE   N05  Cn1  v100
 BYTE   W06
 BYTE   N06  Dn1  v040
 BYTE   W06
 BYTE   PATT
  POIN2 Label_8_011F469E
 BYTE   PATT
  POIN2 Label_8_011F4665
 BYTE   PATT
  POIN2 Label_8_011F46D7
// 030   ----------------------------------------
 BYTE   EOT
 BYTE   Bn5
 BYTE   W01
 BYTE   N05  Cn1  v100
 BYTE   TIE  Bn1  v060
 BYTE   TIE  Gn5
 BYTE   W06
 BYTE   N05  Dn1  v052
 BYTE   W06
 BYTE   Dn1  v060
 BYTE   W12
 BYTE   PATT
  POIN2 Label_8_011F4713
 BYTE   PATT
  POIN2 Label_8_011F4741
// 031   ----------------------------------------
 BYTE   EOT
 BYTE   Bn1
 BYTE   N05  Cn1  v100
 BYTE   TIE  Bn1  v120
 BYTE   W06
 BYTE   N05  Cn1  v100
 BYTE   W06
 BYTE   Dn1  v052
 BYTE   W06
 BYTE   Dn1  v060
 BYTE   W12
 BYTE   PATT
  POIN2 Label_8_011F4713
 BYTE   PATT
  POIN2 Label_8_011F4775
// 032   ----------------------------------------
 BYTE   EOT
 BYTE   Bn1  v091
 BYTE   W01
 BYTE   N05  Cn1  v100
 BYTE   N06  Dn1  v076
 BYTE   TIE  Bn5
 BYTE   W06
 BYTE   N06  Dn1  v052
 BYTE   W06
 BYTE   N12  Dn1  v060
 BYTE   W12
 BYTE   PATT
  POIN2 Label_8_011F4665
 BYTE   PATT
  POIN2 Label_8_011F469E
 BYTE   PATT
  POIN2 Label_8_011F4665
 BYTE   PATT
  POIN2 Label_8_011F46D7
// 033   ----------------------------------------
 BYTE   EOT
 BYTE   Bn5
 BYTE   W01
 BYTE   N05  Cn1  v100
 BYTE   W06
 BYTE   Dn1  v052
 BYTE   W06
 BYTE   Dn1  v060
 BYTE   W12
 BYTE   EOT
 BYTE   Gn2  v060
 BYTE   PATT
  POIN2 Label_8_011F47D0
 BYTE   PATT
  POIN2 Label_8_011F47FE
 BYTE   PATT
  POIN2 Label_8_011F4713
 BYTE   PATT
  POIN2 Label_8_011F482E
 BYTE   PATT
  POIN2 Label_8_011F486A
 BYTE   PATT
  POIN2 Label_8_011F48AC
 BYTE   PATT
  POIN2 Label_8_011F486A
 BYTE   PATT
  POIN2 Label_8_011F48AC
 BYTE   PATT
  POIN2 Label_8_011F486A
 BYTE   PATT
  POIN2 Label_8_011F48AC
 BYTE   PATT
  POIN2 Label_8_011F486A
 BYTE   PATT
  POIN2 Label_8_011F48AC
 BYTE   PATT
  POIN2 Label_8_011F486A
 BYTE   PATT
  POIN2 Label_8_011F4917
// 034   ----------------------------------------
 BYTE   W96
// 035   ----------------------------------------
 BYTE   W96
 BYTE   PATT
  POIN2 Label_8_011F4960
 BYTE   PATT
  POIN2 Label_8_011F4973
// 036   ----------------------------------------
 BYTE   W22
 BYTE   EOT
 BYTE   Ds2
 BYTE   W02
 BYTE   N11  Cn1  v112
 BYTE   W12
 BYTE   N05  Dn1  v088
 BYTE   W06
 BYTE   Dn1  v076
 BYTE   W06
 BYTE   N11
 BYTE   W24
 BYTE   Dn1  v088
 BYTE   W12
 BYTE   Dn1  v076
 BYTE   W12
 BYTE   PATT
  POIN2 Label_8_011F499A
 BYTE   PATT
  POIN2 Label_8_011F49C0
 BYTE   PATT
  POIN2 Label_8_011F49DB
// 037   ----------------------------------------
 BYTE   EOT
 BYTE   Cn2
 BYTE   W02
 BYTE   N11  Cn1  v112
 BYTE   N05  Dn1  v108
 BYTE   W12
 BYTE   N11  Cn1  v112
 BYTE   N05  Dn1  v108
 BYTE   W60
 BYTE   PATT
  POIN2 Label_8_011F49F4
// 038   ----------------------------------------
 BYTE   W96
 BYTE   PATT
  POIN2 Label_8_011F49FF
 BYTE   PATT
  POIN2 Label_8_011F4A0F
 BYTE   PATT
  POIN2 Label_8_011F4A1F
 BYTE   PATT
  POIN2 Label_8_011F4A39
 BYTE   PATT
  POIN2 Label_8_011F47FE
 BYTE   PATT
  POIN2 Label_8_011F47FE
 BYTE   PATT
  POIN2 Label_8_011F47FE
 BYTE   PATT
  POIN2 Label_8_011F4A85
// 039   ----------------------------------------
 BYTE   EOT
 BYTE   Gn2  v060
 BYTE   W01
 BYTE   N05  Dn1  v052
 BYTE   N68  Gn2  v080
 BYTE   N68  Cn3
 BYTE   W06
 BYTE   N05  Cn1  v100
 BYTE   W06
 BYTE   N05
 BYTE   W06
 BYTE   Dn1  v052
 BYTE   W06
 BYTE   Dn1  v076
 BYTE   W12
 BYTE   Dn1  v060
 BYTE   W06
 BYTE   Cn1  v100
 BYTE   N05  Bn1  v120
 BYTE   W06
 BYTE   Cn1  v100
 BYTE   W06
 BYTE   Dn1  v052
 BYTE   W06
 BYTE   Dn1  v060
 BYTE   W11
 BYTE   FINE

//**************** Track 10 (Midi-Chn.9) ****************//

KH3582DaysAnotherSideBattleVerMycahel_010:
// 000   ----------------------------------------
 BYTE   VOL   55*KH3582DaysAnotherSideBattleVerMycahel_mvl/mxv
 BYTE   KEYSH   KH3582DaysAnotherSideBattleVerMycahel_key+0
 BYTE   VOICE   47
 BYTE   W96
// 001   ----------------------------------------
 BYTE   W96
// 002   ----------------------------------------
 BYTE   W96
// 003   ----------------------------------------
 BYTE   W96
// 004   ----------------------------------------
 BYTE   W96
// 005   ----------------------------------------
 BYTE   W96
// 006   ----------------------------------------
 BYTE   W96
// 007   ----------------------------------------
 BYTE   W96
// 008   ----------------------------------------
 BYTE   W96
// 009   ----------------------------------------
 BYTE   W96
// 010   ----------------------------------------
 BYTE   W96
// 011   ----------------------------------------
 BYTE   W96
// 012   ----------------------------------------
 BYTE   W96
// 013   ----------------------------------------
 BYTE   W96
// 014   ----------------------------------------
 BYTE   W96
// 015   ----------------------------------------
 BYTE   W96
// 016   ----------------------------------------
Label_9_011F4C7A:
 BYTE   W28
 BYTE   N56  Cn3  v096
 BYTE   W44
 BYTE   N92  Bn2  v088
 BYTE   W24
 BYTE   PEND 
// 017   ----------------------------------------
 BYTE   W96
// 018   ----------------------------------------
 BYTE   W96
// 019   ----------------------------------------
 BYTE   W96
// 020   ----------------------------------------
 BYTE   W96
// 021   ----------------------------------------
 BYTE   W96
// 022   ----------------------------------------
 BYTE   W96
// 023   ----------------------------------------
 BYTE   W96
// 024   ----------------------------------------
 BYTE   W96
// 025   ----------------------------------------
 BYTE   W96
// 026   ----------------------------------------
 BYTE   W72
 BYTE   Bn2  v080
 BYTE   W24
// 027   ----------------------------------------
 BYTE   W96
// 028   ----------------------------------------
 BYTE   W96
// 029   ----------------------------------------
 BYTE   W96
// 030   ----------------------------------------
 BYTE   W96
// 031   ----------------------------------------
 BYTE   W96
// 032   ----------------------------------------
 BYTE   W96
// 033   ----------------------------------------
 BYTE   W96
// 034   ----------------------------------------
 BYTE   W24
 BYTE   N92
 BYTE   W72
// 035   ----------------------------------------
Label_9_011F4C9B:
 BYTE   W72
 BYTE   N05  Dn1  v108
 BYTE   W12
 BYTE   N05
 BYTE   W12
 BYTE   PEND 
// 036   ----------------------------------------
 BYTE   W96
// 037   ----------------------------------------
Label_9_011F4CA4:
 BYTE   W24
 BYTE   N11  Cn1  v112
 BYTE   N05  Dn1  v108
 BYTE   W12
 BYTE   N11  Cn1  v112
 BYTE   N05  Dn1  v108
 BYTE   W60
 BYTE   PEND 
// 038   ----------------------------------------
Label_9_011F4CB4:
 BYTE   W72
 BYTE   N11  Cn1  v112
 BYTE   N05  Dn1  v108
 BYTE   W12
 BYTE   N11  Cn1  v112
 BYTE   N05  Dn1  v108
 BYTE   W12
 BYTE   PEND 
// 039   ----------------------------------------
 BYTE   W96
// 040   ----------------------------------------
 BYTE   W96
// 041   ----------------------------------------
 BYTE   W96
// 042   ----------------------------------------
 BYTE   W96
// 043   ----------------------------------------
 BYTE   W96
// 044   ----------------------------------------
 BYTE   W96
// 045   ----------------------------------------
 BYTE   W96
// 046   ----------------------------------------
 BYTE   W96
// 047   ----------------------------------------
 BYTE   W96
// 048   ----------------------------------------
 BYTE   W96
// 049   ----------------------------------------
 BYTE   W96
// 050   ----------------------------------------
 BYTE   W96
// 051   ----------------------------------------
 BYTE   W96
// 052   ----------------------------------------
 BYTE   W96
// 053   ----------------------------------------
 BYTE   W96
// 054   ----------------------------------------
 BYTE   W96
// 055   ----------------------------------------
 BYTE   W96
// 056   ----------------------------------------
 BYTE   W96
// 057   ----------------------------------------
 BYTE   W96
// 058   ----------------------------------------
 BYTE   W96
// 059   ----------------------------------------
 BYTE   W96
 BYTE   PATT
  POIN2 Label_9_011F4C7A
// 060   ----------------------------------------
 BYTE   W96
// 061   ----------------------------------------
 BYTE   W96
// 062   ----------------------------------------
 BYTE   W96
// 063   ----------------------------------------
 BYTE   W96
// 064   ----------------------------------------
 BYTE   W96
// 065   ----------------------------------------
 BYTE   W96
// 066   ----------------------------------------
 BYTE   W96
// 067   ----------------------------------------
 BYTE   W96
// 068   ----------------------------------------
 BYTE   W96
// 069   ----------------------------------------
 BYTE   W72
 BYTE   N92  Bn2  v080
 BYTE   W24
// 070   ----------------------------------------
 BYTE   W96
// 071   ----------------------------------------
 BYTE   W96
// 072   ----------------------------------------
 BYTE   W96
// 073   ----------------------------------------
 BYTE   W96
// 074   ----------------------------------------
 BYTE   W96
// 075   ----------------------------------------
 BYTE   W96
// 076   ----------------------------------------
 BYTE   W96
// 077   ----------------------------------------
 BYTE   W24
 BYTE   N92
 BYTE   W72
 BYTE   PATT
  POIN2 Label_9_011F4C9B
// 078   ----------------------------------------
 BYTE   W96
 BYTE   PATT
  POIN2 Label_9_011F4CA4
 BYTE   PATT
  POIN2 Label_9_011F4CB4
// 079   ----------------------------------------
 BYTE   W96
// 080   ----------------------------------------
 BYTE   W96
// 081   ----------------------------------------
 BYTE   W96
// 082   ----------------------------------------
 BYTE   W96
// 083   ----------------------------------------
 BYTE   W96
// 084   ----------------------------------------
 BYTE   W92
 BYTE   W03
 BYTE   FINE

//******************************************************//
	ALIGN 4

KH3582DaysAnotherSideBattleVerMycahel:
	BYTE	10	// NumTrks
	BYTE	0	// NumBlks
	BYTE	KH3582DaysAnotherSideBattleVerMycahel_pri	// Priority
	BYTE	KH3582DaysAnotherSideBattleVerMycahel_rev	// Reverb.
    
	POIN2	KH3582DaysAnotherSideBattleVerMycahel_grp
    
	POIN2	KH3582DaysAnotherSideBattleVerMycahel_001
	POIN2	KH3582DaysAnotherSideBattleVerMycahel_002
	POIN2	KH3582DaysAnotherSideBattleVerMycahel_003
	POIN2	KH3582DaysAnotherSideBattleVerMycahel_004
	POIN2	KH3582DaysAnotherSideBattleVerMycahel_005
	POIN2	KH3582DaysAnotherSideBattleVerMycahel_006
	POIN2	KH3582DaysAnotherSideBattleVerMycahel_007
	POIN2	KH3582DaysAnotherSideBattleVerMycahel_008
	POIN2	KH3582DaysAnotherSideBattleVerMycahel_009
	POIN2	KH3582DaysAnotherSideBattleVerMycahel_010

	
