//Event file generated from Sappy .s format.
	#include "MPlayDef.event"

	#define	KHCoMScherzoDiNotteAzula_grp  voicegroup000
	#define	KHCoMScherzoDiNotteAzula_pri  0
	#define	KHCoMScherzoDiNotteAzula_rev  0
	#define	KHCoMScherzoDiNotteAzula_mvl  127
	#define	KHCoMScherzoDiNotteAzula_key  0
	#define	KHCoMScherzoDiNotteAzula_tbs  1
	#define	KHCoMScherzoDiNotteAzula_exg  0
	#define	KHCoMScherzoDiNotteAzula_cmp  1

	// .rodata
	//	KHCoMScherzoDiNotteAzula
	ALIGN 4


//**************** Track 1 (Midi-Chn.0) ****************//

KHCoMScherzoDiNotteAzula_001:
//  #01 //000   ----------------------------------------
 BYTE   KEYSH   KHCoMScherzoDiNotteAzula_key+0
 BYTE   TEMPO   140*KHCoMScherzoDiNotteAzula_tbs/2
 BYTE   VOICE   34
 BYTE   MODT 0
 BYTE   LFOS 44
 BYTE   VOL   38*KHCoMScherzoDiNotteAzula_mvl/mxv
 BYTE   PAN   c_v+0
 BYTE   N07  Bn1  v088
 BYTE   N07  Bn2
 BYTE   W12
 BYTE   Cs2
 BYTE   N07  Fs2
 BYTE   N07  Fs3
 BYTE   W12
 BYTE   Dn2
 BYTE   N07  Fs2
 BYTE   N07  An2
 BYTE   N07  An3
 BYTE   W12
 BYTE   Bn1
 BYTE   N07  Bn2
 BYTE   W12
 BYTE   Cs2
 BYTE   N07  Fs2
 BYTE   N07  Fs3
 BYTE   W12
 BYTE   Dn2
 BYTE   N07  Fs2
 BYTE   N07  An2
 BYTE   N07  An3
 BYTE   W12
 BYTE   VOL   38*KHCoMScherzoDiNotteAzula_mvl/mxv
 BYTE   PAN   c_v+0
 BYTE   N07  Bn1
 BYTE   N07  Bn2
 BYTE   W12
 BYTE   Cs2
 BYTE   N07  Fs2
 BYTE   N07  Fs3
 BYTE   W12
//  #01 //001   ----------------------------------------
 BYTE   Dn2
 BYTE   N07  Fs2
 BYTE   N07  An2
 BYTE   N07  An3
 BYTE   W12
 BYTE   Bn1
 BYTE   N07  Bn2
 BYTE   W12
 BYTE   Cs2
 BYTE   N07  Fs2
 BYTE   N07  Fs3
 BYTE   W12
 BYTE   Dn2
 BYTE   N07  Fs2
 BYTE   N07  An2
 BYTE   N07  An3
 BYTE   W12
Label_0108B08D:
 BYTE   VOL   38*KHCoMScherzoDiNotteAzula_mvl/mxv
 BYTE   PAN   c_v+0
 BYTE   N07  Bn1  v088
 BYTE   N07  Bn2
 BYTE   W12
 BYTE   Cs2
 BYTE   N07  Fs2
 BYTE   N07  Fs3
 BYTE   W12
 BYTE   Dn2
 BYTE   N07  Fs2
 BYTE   N07  An2
 BYTE   N07  An3
 BYTE   W12
 BYTE   Bn1
 BYTE   N07  Bn2
 BYTE   W12
//  #01 //002   ----------------------------------------
Label_0108B0A9:
 BYTE   N07  Cs2  v088
 BYTE   N07  Fs2
 BYTE   N07  Fs3
 BYTE   W12
 BYTE   Dn2
 BYTE   N07  Fs2
 BYTE   N07  An2
 BYTE   N07  An3
 BYTE   W12
 BYTE   VOL   38*KHCoMScherzoDiNotteAzula_mvl/mxv
 BYTE   PAN   c_v+0
 BYTE   N07  Bn1
 BYTE   N07  Bn2
 BYTE   W12
 BYTE   Cs2
 BYTE   N07  Fs2
 BYTE   N07  Fs3
 BYTE   W12
 BYTE   Dn2
 BYTE   N07  Fs2
 BYTE   N07  An2
 BYTE   N07  An3
 BYTE   W12
 BYTE   Bn1
 BYTE   N07  Bn2
 BYTE   W12
 BYTE   Cs2
 BYTE   N07  Fs2
 BYTE   N07  Fs3
 BYTE   W12
 BYTE   Dn2
 BYTE   N07  Fs2
 BYTE   N07  An2
 BYTE   N07  An3
 BYTE   W12
 BYTE   PEND 
//  #01 //003   ----------------------------------------
Label_0108B0E3:
 BYTE   VOL   38*KHCoMScherzoDiNotteAzula_mvl/mxv
 BYTE   PAN   c_v+0
 BYTE   N07  Bn1  v088
 BYTE   N07  Bn2
 BYTE   W12
 BYTE   Cs2
 BYTE   N07  Fs2
 BYTE   N07  Fs3
 BYTE   W12
 BYTE   Dn2
 BYTE   N07  Fs2
 BYTE   N07  An2
 BYTE   N07  An3
 BYTE   W12
 BYTE   Bn1
 BYTE   N07  Bn2
 BYTE   W12
 BYTE   Cs2
 BYTE   N07  Fs2
 BYTE   N07  Fs3
 BYTE   W12
 BYTE   Dn2
 BYTE   N07  Fs2
 BYTE   N07  An2
 BYTE   N07  An3
 BYTE   W12
 BYTE   VOL   38*KHCoMScherzoDiNotteAzula_mvl/mxv
 BYTE   PAN   c_v+0
 BYTE   N07  Bn1
 BYTE   N07  Bn2
 BYTE   W12
 BYTE   Cs2
 BYTE   N07  Fs2
 BYTE   N07  Fs3
 BYTE   W12
 BYTE   PEND 
//  #01 //004   ----------------------------------------
Label_0108B11D:
 BYTE   N07  Dn2  v088
 BYTE   N07  Fs2
 BYTE   N07  An2
 BYTE   N07  An3
 BYTE   W12
 BYTE   Bn1
 BYTE   N07  Bn2
 BYTE   W12
 BYTE   Cs2
 BYTE   N07  Fs2
 BYTE   N07  Fs3
 BYTE   W12
 BYTE   Dn2
 BYTE   N07  Fs2
 BYTE   N07  An2
 BYTE   N07  An3
 BYTE   W12
 BYTE   An1
 BYTE   N07  An2
 BYTE   W12
 BYTE   An1
 BYTE   N07  An2
 BYTE   N07  Cs3
 BYTE   W12
 BYTE   An1
 BYTE   N07  An2
 BYTE   N07  Cs3
 BYTE   N07  Fs3
 BYTE   W12
 BYTE   An1
 BYTE   N07  An2
 BYTE   W12
 BYTE   PEND 
//  #01 //005   ----------------------------------------
Label_0108B150:
 BYTE   N07  An1  v088
 BYTE   N07  An2
 BYTE   N07  Cs3
 BYTE   W12
 BYTE   An1
 BYTE   N07  An2
 BYTE   N07  Cs3
 BYTE   N07  Fs3
 BYTE   W12
 BYTE   An1
 BYTE   N07  An2
 BYTE   W12
 BYTE   An1
 BYTE   N07  An2
 BYTE   N07  Cs3
 BYTE   W12
 BYTE   An1
 BYTE   N07  An2
 BYTE   N07  Cs3
 BYTE   N07  Fs3
 BYTE   W12
 BYTE   An1
 BYTE   N07  An2
 BYTE   W12
 BYTE   An1
 BYTE   N07  An2
 BYTE   N07  Cs3
 BYTE   W12
 BYTE   An1
 BYTE   N07  An2
 BYTE   N07  Cs3
 BYTE   N07  Fs3
 BYTE   W12
 BYTE   PEND 
//  #01 //006   ----------------------------------------
Label_0108B185:
 BYTE   N07  An1  v088
 BYTE   N07  An2
 BYTE   W12
 BYTE   An1
 BYTE   N07  An2
 BYTE   N07  Cs3
 BYTE   W12
 BYTE   An1
 BYTE   N07  An2
 BYTE   N07  Cs3
 BYTE   N07  Fs3
 BYTE   W12
 BYTE   An1
 BYTE   N07  An2
 BYTE   W12
 BYTE   An1
 BYTE   N07  An2
 BYTE   N07  Cs3
 BYTE   W12
 BYTE   An1
 BYTE   N07  An2
 BYTE   N07  Cs3
 BYTE   N07  Fs3
 BYTE   W12
 BYTE   An1
 BYTE   N07  An2
 BYTE   W12
 BYTE   An1
 BYTE   N07  An2
 BYTE   N07  Cs3
 BYTE   W12
 BYTE   PEND 
//  #01 //007   ----------------------------------------
 BYTE   An1
 BYTE   N07  An2
 BYTE   N07  Cs3
 BYTE   N07  Fs3
 BYTE   W12
 BYTE   An1
 BYTE   N07  An2
 BYTE   W12
 BYTE   An1
 BYTE   N07  An2
 BYTE   N07  Cs3
 BYTE   W12
 BYTE   An1
 BYTE   N07  An2
 BYTE   N07  Cs3
 BYTE   N07  Fs3
 BYTE   W12
 BYTE   Gn1
 BYTE   N07  Gn2
 BYTE   N10  Gn4
 BYTE   N10  Bn4
 BYTE   W24
 BYTE   Gn4
 BYTE   N10  Bn4
 BYTE   W24
//  #01 //008   ----------------------------------------
 BYTE   Gn4
 BYTE   N10  Bn4
 BYTE   W12
 BYTE   N07  Gn1
 BYTE   N07  Gn2
 BYTE   N10  Gn4
 BYTE   N10  Bn4
 BYTE   W12
 BYTE   N07  An1
 BYTE   N07  An2
 BYTE   N10  An4
 BYTE   N10  Cs5
 BYTE   W24
 BYTE   An4
 BYTE   N10  Cs5
 BYTE   W24
 BYTE   An4
 BYTE   N10  Cs5
 BYTE   W12
 BYTE   N07  An1
 BYTE   N07  An2
 BYTE   N10  An4
 BYTE   N10  Cs5
 BYTE   W12
//  #01 //009   ----------------------------------------
 BYTE   N07  Fn1
 BYTE   N07  Fn2
 BYTE   N10  An4
 BYTE   N10  Cn5
 BYTE   W24
 BYTE   An4
 BYTE   N10  Cn5
 BYTE   W24
 BYTE   An4
 BYTE   N10  Cn5
 BYTE   W12
 BYTE   N07  Fn1
 BYTE   N07  Fn2
 BYTE   N10  An4
 BYTE   N10  Cn5
 BYTE   W12
 BYTE   N07  An1
 BYTE   N07  An2
 BYTE   N10  An4
 BYTE   N10  Cs5
 BYTE   W24
//  #01 //010   ----------------------------------------
 BYTE   An4
 BYTE   N10  Cs5
 BYTE   W12
 BYTE   N07  Bn1
 BYTE   N07  Bn2
 BYTE   W36
 BYTE   VOL   38*KHCoMScherzoDiNotteAzula_mvl/mxv
 BYTE   PAN   c_v+0
 BYTE   N07  Bn1
 BYTE   N07  Bn2
 BYTE   W12
 BYTE   Cs2
 BYTE   N07  Fs2
 BYTE   N07  Fs3
 BYTE   W12
 BYTE   Dn2
 BYTE   N07  Fs2
 BYTE   N07  An2
 BYTE   N07  An3
 BYTE   W12
 BYTE   Bn1
 BYTE   N07  Bn2
 BYTE   W12
//  #01 //011   ----------------------------------------
 BYTE   PATT
  POIN2 Label_0108B0A9
//  #01 //012   ----------------------------------------
 BYTE   PATT
  POIN2 Label_0108B0E3
//  #01 //013   ----------------------------------------
 BYTE   PATT
  POIN2 Label_0108B11D
//  #01 //014   ----------------------------------------
 BYTE   PATT
  POIN2 Label_0108B150
//  #01 //015   ----------------------------------------
 BYTE   PATT
  POIN2 Label_0108B185
//  #01 //016   ----------------------------------------
 BYTE   N07  An1  v088
 BYTE   N07  An2
 BYTE   N07  Cs3
 BYTE   N07  Fs3
 BYTE   W12
 BYTE   An1
 BYTE   N07  An2
 BYTE   W12
 BYTE   An1
 BYTE   N07  An2
 BYTE   N07  Cs3
 BYTE   W12
 BYTE   An1
 BYTE   N07  An2
 BYTE   N07  Cs3
 BYTE   N07  Fs3
 BYTE   W12
 BYTE   Gn2
 BYTE   N10  Gn4
 BYTE   N10  Bn4
 BYTE   W24
 BYTE   Gn4
 BYTE   N10  Bn4
 BYTE   W24
//  #01 //017   ----------------------------------------
 BYTE   Gn4
 BYTE   N10  Bn4
 BYTE   W12
 BYTE   N07  Gn2
 BYTE   N10  Gn4
 BYTE   N10  Bn4
 BYTE   W12
 BYTE   N07  Fn2
 BYTE   N10  Fn4
 BYTE   N10  An4
 BYTE   W24
 BYTE   Fn4
 BYTE   N10  An4
 BYTE   W24
 BYTE   N07  Fn2
 BYTE   N10  Fn4
 BYTE   N10  An4
 BYTE   W12
 BYTE   N07  Fn2
 BYTE   N10  Fn4
 BYTE   N10  An4
 BYTE   W12
//  #01 //018   ----------------------------------------
 BYTE   N07  En2
 BYTE   N10  En4
 BYTE   N10  Gn4
 BYTE   W24
 BYTE   En4
 BYTE   N10  Gn4
 BYTE   W24
 BYTE   En4
 BYTE   N10  Gn4
 BYTE   W12
 BYTE   N07  En2
 BYTE   N10  En4
 BYTE   N10  Gn4
 BYTE   W12
 BYTE   N07  Ds2
 BYTE   N10  Fs4
 BYTE   N10  An4
 BYTE   W24
//  #01 //019   ----------------------------------------
 BYTE   Fs4
 BYTE   N10  An4
 BYTE   W24
 BYTE   N07  Ds2
 BYTE   N10  Fs4
 BYTE   N10  An4
 BYTE   W12
 BYTE   N07  Ds2
 BYTE   N10  Fs4
 BYTE   N10  An4
 BYTE   W12
 BYTE   N07  Ds2
 BYTE   N07  Ds3
 BYTE   W12
 BYTE   Ds2
 BYTE   N07  Ds3
 BYTE   N07  Gn3
 BYTE   W12
 BYTE   Ds2
 BYTE   N07  Ds3
 BYTE   N07  Gn3
 BYTE   N07  Cs4
 BYTE   W12
 BYTE   Ds2
 BYTE   N07  Ds3
 BYTE   W12
//  #01 //020   ----------------------------------------
 BYTE   Ds2
 BYTE   N07  Ds3
 BYTE   N07  Gn3
 BYTE   W12
 BYTE   Ds2
 BYTE   N07  Ds3
 BYTE   N07  Gn3
 BYTE   N07  Cs4
 BYTE   W12
 BYTE   Ds2
 BYTE   N07  Ds3
 BYTE   W12
 BYTE   Ds2
 BYTE   N07  Ds3
 BYTE   N07  Gn3
 BYTE   W12
 BYTE   Ds2
 BYTE   N07  Ds3
 BYTE   N07  Gn3
 BYTE   N07  Cs4
 BYTE   W12
 BYTE   Ds2
 BYTE   N07  Ds3
 BYTE   W12
 BYTE   Ds2
 BYTE   N07  Ds3
 BYTE   N07  Gn3
 BYTE   W12
 BYTE   Ds2
 BYTE   N07  Ds3
 BYTE   N07  Gn3
 BYTE   N07  Cs4
 BYTE   W12
//  #01 //021   ----------------------------------------
 BYTE   Dn2
 BYTE   N07  Dn3
 BYTE   W12
 BYTE   Dn2
 BYTE   N07  Fs2
 BYTE   N07  Fs3
 BYTE   W12
 BYTE   Dn2
 BYTE   N07  Fs2
 BYTE   N07  An2
 BYTE   N07  An3
 BYTE   W12
 BYTE   Dn2
 BYTE   N07  Dn3
 BYTE   W12
 BYTE   Dn2
 BYTE   N07  Fs2
 BYTE   N07  Fs3
 BYTE   W12
 BYTE   Dn2
 BYTE   N07  Fs2
 BYTE   N07  An2
 BYTE   N07  An3
 BYTE   W12
 BYTE   Dn2
 BYTE   N07  Dn3
 BYTE   W12
 BYTE   Dn2
 BYTE   N07  Fs2
 BYTE   N07  Fs3
 BYTE   W12
//  #01 //022   ----------------------------------------
 BYTE   Dn2
 BYTE   N07  Fs2
 BYTE   N07  An2
 BYTE   N07  An3
 BYTE   W12
 BYTE   Dn2
 BYTE   N07  Dn3
 BYTE   W12
 BYTE   Dn2
 BYTE   N07  Fs2
 BYTE   N07  Fs3
 BYTE   W12
 BYTE   Dn2
 BYTE   N07  Fs2
 BYTE   N07  An2
 BYTE   N07  An3
 BYTE   W12
 BYTE   Bn1
 BYTE   N07  Bn2
 BYTE   W12
 BYTE   Cs2
 BYTE   N07  Fs2
 BYTE   N07  Fs3
 BYTE   W12
 BYTE   Dn2
 BYTE   N07  Fs2
 BYTE   N07  An2
 BYTE   N07  An3
 BYTE   W12
 BYTE   Bn1
 BYTE   N07  Bn2
 BYTE   W12
//  #01 //023   ----------------------------------------
Label_0108B383:
 BYTE   N07  Cs2  v088
 BYTE   N07  Fs2
 BYTE   N07  Fs3
 BYTE   W12
 BYTE   Dn2
 BYTE   N07  Fs2
 BYTE   N07  An2
 BYTE   N07  An3
 BYTE   W12
 BYTE   Bn1
 BYTE   N07  Bn2
 BYTE   W12
 BYTE   Cs2
 BYTE   N07  Fs2
 BYTE   N07  Fs3
 BYTE   W12
 BYTE   Dn2
 BYTE   N07  Fs2
 BYTE   N07  An2
 BYTE   N07  An3
 BYTE   W12
 BYTE   Bn1
 BYTE   N07  Bn2
 BYTE   W12
 BYTE   Cs2
 BYTE   N07  Fs2
 BYTE   N07  Fs3
 BYTE   W12
 BYTE   Dn2
 BYTE   N07  Fs2
 BYTE   N07  An2
 BYTE   N07  An3
 BYTE   W12
 BYTE   PEND 
//  #01 //024   ----------------------------------------
Label_0108B3B8:
 BYTE   N07  Gn1  v088
 BYTE   N07  Gn2
 BYTE   W12
 BYTE   Gn1
 BYTE   N07  Cn2
 BYTE   N07  Cn3
 BYTE   W12
 BYTE   Gn1
 BYTE   N07  Cn2
 BYTE   N07  Ds2
 BYTE   N07  Ds3
 BYTE   W12
 BYTE   Gn1
 BYTE   N07  Gn2
 BYTE   W12
 BYTE   Gn1
 BYTE   N07  Cn2
 BYTE   N07  Cn3
 BYTE   W12
 BYTE   Gn1
 BYTE   N07  Cn2
 BYTE   N07  Ds2
 BYTE   N07  Ds3
 BYTE   W12
 BYTE   Gn1
 BYTE   N07  Gn2
 BYTE   W12
 BYTE   Gn1
 BYTE   N07  Cn2
 BYTE   N07  Cn3
 BYTE   W12
 BYTE   PEND 
//  #01 //025   ----------------------------------------
 BYTE   Gn1
 BYTE   N07  Cn2
 BYTE   N07  Ds2
 BYTE   N07  Ds3
 BYTE   W12
 BYTE   Gn1
 BYTE   N07  Gn2
 BYTE   W12
 BYTE   Gn1
 BYTE   N07  Cn2
 BYTE   N07  Cn3
 BYTE   W12
 BYTE   Gn1
 BYTE   N07  Cn2
 BYTE   N07  Ds2
 BYTE   N07  Ds3
 BYTE   W12
 BYTE   Bn1
 BYTE   N07  Bn2
 BYTE   W12
 BYTE   Cs2
 BYTE   N07  Fs2
 BYTE   N07  Fs3
 BYTE   W12
 BYTE   Dn2
 BYTE   N07  Fs2
 BYTE   N07  An2
 BYTE   N07  An3
 BYTE   W12
 BYTE   Bn1
 BYTE   N07  Bn2
 BYTE   W12
//  #01 //026   ----------------------------------------
 BYTE   PATT
  POIN2 Label_0108B383
//  #01 //027   ----------------------------------------
 BYTE   PATT
  POIN2 Label_0108B3B8
//  #01 //028   ----------------------------------------
 BYTE   N07  Gn1  v088
 BYTE   N07  Cn2
 BYTE   N07  Ds2
 BYTE   N07  Ds3
 BYTE   W12
 BYTE   Gn1
 BYTE   N07  Gn2
 BYTE   W12
 BYTE   Gn1
 BYTE   N07  Cn2
 BYTE   N07  Cn3
 BYTE   W12
 BYTE   Gn1
 BYTE   N07  Cn2
 BYTE   N07  Ds2
 BYTE   N07  Ds3
 BYTE   W13
 BYTE   GoTo
  POIN2 Label_0108B08D
 BYTE   FINE

//**************** Track 2 (Midi-Chn.1) ****************//

KHCoMScherzoDiNotteAzula_002:
//  #02 //000   ----------------------------------------
 BYTE   KEYSH   KHCoMScherzoDiNotteAzula_key+0
 BYTE   VOICE   67
 BYTE   MODT 0
 BYTE   LFOS 44
 BYTE   VOL   35*KHCoMScherzoDiNotteAzula_mvl/mxv
 BYTE   PAN   c_v+0
 BYTE   W96
//  #02 //001   ----------------------------------------
 BYTE   W48
Label_01059C4E:
 BYTE   W48
//  #02 //002   ----------------------------------------
 BYTE   W96
//  #02 //003   ----------------------------------------
 BYTE   W96
//  #02 //004   ----------------------------------------
 BYTE   W96
//  #02 //005   ----------------------------------------
 BYTE   W96
//  #02 //006   ----------------------------------------
 BYTE   W96
//  #02 //007   ----------------------------------------
 BYTE   W48
 BYTE   N12  Cs3  v088
 BYTE   N12  Gn3
 BYTE   N12  Cs4
 BYTE   W12
 BYTE   Dn3
 BYTE   N12  An3
 BYTE   N12  Dn4
 BYTE   W12
 BYTE   En3
 BYTE   N12  Bn3
 BYTE   N12  En4
 BYTE   W12
 BYTE   N24  Cs3
 BYTE   N24  Gn3
 BYTE   N24  Cs4
 BYTE   W12
//  #02 //008   ----------------------------------------
 BYTE   W12
 BYTE   N12  Bn2
 BYTE   N12  Gn3
 BYTE   N12  Bn3
 BYTE   W12
 BYTE   N24  Fs3
 BYTE   N24  An3
 BYTE   N24  Fs4
 BYTE   W24
 BYTE   N12  En3
 BYTE   N12  An3
 BYTE   N12  En4
 BYTE   W12
 BYTE   N24  Bn2
 BYTE   N24  An3
 BYTE   N24  Bn3
 BYTE   W24
 BYTE   N12  Cs3
 BYTE   N12  An3
 BYTE   N12  Cs4
 BYTE   W12
//  #02 //009   ----------------------------------------
 BYTE   N24  En3
 BYTE   N24  An3
 BYTE   N24  En4
 BYTE   W24
 BYTE   N12  Dn3
 BYTE   N12  An3
 BYTE   N12  Dn4
 BYTE   W12
 BYTE   Cn3
 BYTE   N12  An3
 BYTE   N12  Cn4
 BYTE   W12
 BYTE   Bn2
 BYTE   N12  Bn3
 BYTE   W12
 BYTE   An2
 BYTE   N12  An3
 BYTE   W12
 BYTE   Gs2
 BYTE   N12  Gs3
 BYTE   W12
 BYTE   An2
 BYTE   N12  An3
 BYTE   W12
//  #02 //010   ----------------------------------------
 BYTE   Bn2
 BYTE   N12  Bn3
 BYTE   W12
 BYTE   N02  Gs2
 BYTE   N02  Gs3
 BYTE   W03
 BYTE   An2
 BYTE   N02  An3
 BYTE   W03
 BYTE   N16  Gs2
 BYTE   N05  An2
 BYTE   N16  Gs3
 BYTE   N05  An3
 BYTE   W06
 BYTE   Bn2
 BYTE   N05  Bn3
 BYTE   W06
 BYTE   Cs3
 BYTE   N05  Cs4
 BYTE   W06
 BYTE   Dn3
 BYTE   N05  Dn4
 BYTE   W06
 BYTE   En3
 BYTE   N05  En4
 BYTE   W06
 BYTE   Dn4
 BYTE   N05  Fs4
 BYTE   W06
 BYTE   En4
 BYTE   N05  Gs4
 BYTE   W06
 BYTE   Fs4
 BYTE   N05  An4
 BYTE   W06
 BYTE   En4
 BYTE   N05  Gs4
 BYTE   W06
 BYTE   N21  Fs4
 BYTE   N21  Bn4
 BYTE   W24
//  #02 //011   ----------------------------------------
 BYTE   N10  Fs4
 BYTE   N10  An4
 BYTE   W12
 BYTE   En4
 BYTE   N10  Gs4
 BYTE   W12
 BYTE   Fs4
 BYTE   N10  An4
 BYTE   W12
 BYTE   En4
 BYTE   N10  Gs4
 BYTE   W12
 BYTE   Dn4
 BYTE   N10  Fs4
 BYTE   W12
 BYTE   N21  En4
 BYTE   N21  Gs4
 BYTE   W24
 BYTE   N10  Cs4
 BYTE   N10  En4
 BYTE   W12
//  #02 //012   ----------------------------------------
 BYTE   N21  Dn4
 BYTE   N21  Fs4
 BYTE   W24
 BYTE   Bn3
 BYTE   W24
 BYTE   N10  An3
 BYTE   N10  Cs4
 BYTE   W12
 BYTE   Bn3
 BYTE   N10  Dn4
 BYTE   W12
 BYTE   Cs4
 BYTE   N10  En4
 BYTE   W12
 BYTE   Bn3
 BYTE   N10  Dn4
 BYTE   W12
//  #02 //013   ----------------------------------------
 BYTE   An3
 BYTE   N10  Cs4
 BYTE   W12
 BYTE   N32  Bn3
 BYTE   N32  Dn4
 BYTE   W36
 BYTE   N05
 BYTE   N05  Fs4
 BYTE   W06
 BYTE   En4
 BYTE   N05  Gs4
 BYTE   W06
 BYTE   Fs4
 BYTE   N05  An4
 BYTE   W06
 BYTE   En4
 BYTE   N05  Gs4
 BYTE   W06
 BYTE   N21  Fs4
 BYTE   N21  Bn4
 BYTE   W24
//  #02 //014   ----------------------------------------
 BYTE   N10  Fs4
 BYTE   N10  Bn4
 BYTE   W12
 BYTE   En4
 BYTE   N10  An4
 BYTE   W12
 BYTE   Fs4
 BYTE   N10  An4
 BYTE   W12
 BYTE   En4
 BYTE   N10  Gs4
 BYTE   W12
 BYTE   Dn4
 BYTE   N10  Fs4
 BYTE   W12
 BYTE   N21  En4
 BYTE   N21  Gs4
 BYTE   W24
 BYTE   N10  Cs4
 BYTE   N10  En4
 BYTE   W12
//  #02 //015   ----------------------------------------
 BYTE   N21  Cs4
 BYTE   N21  Fs4
 BYTE   W24
 BYTE   Bn3
 BYTE   W24
 BYTE   N10  An3
 BYTE   N10  Cs4
 BYTE   W12
 BYTE   Bn3
 BYTE   N10  Dn4
 BYTE   W12
 BYTE   Cs4
 BYTE   N10  En4
 BYTE   W12
 BYTE   Bn3
 BYTE   N10  Dn4
 BYTE   W12
//  #02 //016   ----------------------------------------
 BYTE   An3
 BYTE   N10  Cs4
 BYTE   W12
 BYTE   N32  Fs3
 BYTE   N32  Bn3
 BYTE   W32
 BYTE   W03
 BYTE   N24  En3
 BYTE   N24  Bn3
 BYTE   N24  En4
 BYTE   W24
 BYTE   Dn3
 BYTE   N24  Bn3
 BYTE   N24  Dn4
 BYTE   W24
 BYTE   N12  Cs3
 BYTE   N12  An3
 BYTE   N12  Cs4
 BYTE   W01
//  #02 //017   ----------------------------------------
 BYTE   W11
 BYTE   Dn3
 BYTE   N12  Bn3
 BYTE   N12  Dn4
 BYTE   W12
 BYTE   En3
 BYTE   N12  Cn4
 BYTE   N12  En4
 BYTE   W12
 BYTE   Dn3
 BYTE   N12  Bn3
 BYTE   N12  Dn4
 BYTE   W12
 BYTE   Cn3
 BYTE   N12  An3
 BYTE   N12  Cn4
 BYTE   W12
 BYTE   N36  Bn2
 BYTE   N36  Gn3
 BYTE   N36  Bn3
 BYTE   W36
 BYTE   N24  Dn3
 BYTE   N24  Bn3
 BYTE   N24  Dn4
 BYTE   W01
//  #02 //018   ----------------------------------------
 BYTE   W23
 BYTE   Cn3
 BYTE   N24  An3
 BYTE   N24  Cn4
 BYTE   W24
 BYTE   N12  Bn2
 BYTE   N12  Gn3
 BYTE   N12  Bn3
 BYTE   W12
 BYTE   Cn3
 BYTE   N12  An3
 BYTE   N12  Cn4
 BYTE   W12
 BYTE   Dn3
 BYTE   N12  Bn3
 BYTE   N12  Dn4
 BYTE   W12
 BYTE   Cn3
 BYTE   N12  An3
 BYTE   N12  Cn4
 BYTE   W12
 BYTE   Bn2
 BYTE   N12  Gn3
 BYTE   N12  Bn3
 BYTE   W01
//  #02 //019   ----------------------------------------
 BYTE   W11
 BYTE   N36  An2
 BYTE   N36  Fs3
 BYTE   N36  An3
 BYTE   W36
 BYTE   N10  Cs4
 BYTE   W12
 BYTE   N10
 BYTE   N05  Gn4
 BYTE   W06
 BYTE   An4
 BYTE   W06
 BYTE   N10  Cs4
 BYTE   N05  Gn4
 BYTE   W06
 BYTE   An4
 BYTE   W06
 BYTE   N10  Cs4
 BYTE   W12
 BYTE   N10
 BYTE   N05  Gn4
 BYTE   W01
//  #02 //020   ----------------------------------------
 BYTE   W05
 BYTE   An4
 BYTE   W06
 BYTE   N10  Cs4
 BYTE   N05  Gn4
 BYTE   W06
 BYTE   An4
 BYTE   W06
 BYTE   N10  Gn4
 BYTE   N10  Cs5
 BYTE   W12
 BYTE   Cs4
 BYTE   N10  As4
 BYTE   W12
 BYTE   Cs4
 BYTE   N10  An4
 BYTE   W12
 BYTE   Gn4
 BYTE   N10  As4
 BYTE   W12
 BYTE   Cs4
 BYTE   N10  An4
 BYTE   W12
 BYTE   Cs4
 BYTE   N10  Gn4
 BYTE   W12
 BYTE   Dn4
 BYTE   N10  Dn5
 BYTE   W01
//  #02 //021   ----------------------------------------
 BYTE   W96
//  #02 //022   ----------------------------------------
 BYTE   W44
 BYTE   W03
 BYTE   N05  Dn4
 BYTE   N05  Fs4
 BYTE   W06
 BYTE   En4
 BYTE   N05  Gs4
 BYTE   W06
 BYTE   Fs4
 BYTE   N05  An4
 BYTE   W06
 BYTE   En4
 BYTE   N05  Gs4
 BYTE   W06
 BYTE   N21  Fs4
 BYTE   N21  Bn4
 BYTE   W24
 BYTE   N10  Fs4
 BYTE   N10  An4
 BYTE   W01
//  #02 //023   ----------------------------------------
 BYTE   W11
 BYTE   En4
 BYTE   N10  Gs4
 BYTE   W12
 BYTE   Fs4
 BYTE   N10  An4
 BYTE   W12
 BYTE   En4
 BYTE   N10  Gs4
 BYTE   W12
 BYTE   Dn4
 BYTE   N10  Fs4
 BYTE   W12
 BYTE   N21  En4
 BYTE   N21  Gs4
 BYTE   W24
 BYTE   N10  En4
 BYTE   N10  Gs4
 BYTE   W12
 BYTE   N21  Ds4
 BYTE   N21  Gn4
 BYTE   W01
//  #02 //024   ----------------------------------------
 BYTE   W23
 BYTE   Cn4
 BYTE   W24
 BYTE   N10  As3
 BYTE   N10  Dn4
 BYTE   W12
 BYTE   Cn4
 BYTE   N10  Ds4
 BYTE   W12
 BYTE   Dn4
 BYTE   N10  Fn4
 BYTE   W12
 BYTE   Cn4
 BYTE   N10  Ds4
 BYTE   W12
 BYTE   As3
 BYTE   N10  Dn4
 BYTE   W01
//  #02 //025   ----------------------------------------
 BYTE   W11
 BYTE   N32  Cn4
 BYTE   N32  Ds4
 BYTE   W36
 BYTE   N10  Fs3
 BYTE   W24
 BYTE   N10
 BYTE   W24
 BYTE   N10
 BYTE   W01
//  #02 //026   ----------------------------------------
 BYTE   W11
 BYTE   N10
 BYTE   W12
 BYTE   N10
 BYTE   W24
 BYTE   N10
 BYTE   W24
 BYTE   N10
 BYTE   W12
 BYTE   N10
 BYTE   W12
 BYTE   Gn3
 BYTE   W01
//  #02 //027   ----------------------------------------
 BYTE   W23
 BYTE   N10
 BYTE   W24
 BYTE   N10
 BYTE   W12
 BYTE   N10
 BYTE   W12
 BYTE   N10
 BYTE   W24
 BYTE   N10
 BYTE   W01
//  #02 //028   ----------------------------------------
 BYTE   W23
 BYTE   N10
 BYTE   W12
 BYTE   N10
 BYTE   W14
 BYTE   GoTo
  POIN2 Label_01059C4E
 BYTE   FINE

//**************** Track 3 (Midi-Chn.2) ****************//

KHCoMScherzoDiNotteAzula_003:
//  #03 //000   ----------------------------------------
 BYTE   KEYSH   KHCoMScherzoDiNotteAzula_key+0
 BYTE   VOICE   47
 BYTE   MODT 0
 BYTE   LFOS 44
 BYTE   VOL   51*KHCoMScherzoDiNotteAzula_mvl/mxv
 BYTE   PAN   c_v+0
 BYTE   N48  Bn1  v088
 BYTE   N48  Bn2
 BYTE   W48
 BYTE   N10  Fs2
 BYTE   N10  Fs3
 BYTE   W12
 BYTE   Fs2
 BYTE   N10  Fs3
 BYTE   W12
 BYTE   PAN   c_v+0
 BYTE   N48  Bn1
 BYTE   N48  Bn2
 BYTE   W24
//  #03 //001   ----------------------------------------
 BYTE   W24
 BYTE   N10  Fs2
 BYTE   N10  Fs3
 BYTE   W12
 BYTE   Fs2
 BYTE   N10  Fs3
 BYTE   W12
Label_0105A0EC:
 BYTE   PAN   c_v+0
 BYTE   N24  Bn1  v088
 BYTE   N24  Bn2
 BYTE   W24
 BYTE   Bn1
 BYTE   N24  Bn2
 BYTE   W24
//  #03 //002   ----------------------------------------
Label_0105A0F8:
 BYTE   N10  Fs2  v088
 BYTE   N10  Fs3
 BYTE   W12
 BYTE   Fs2
 BYTE   N10  Fs3
 BYTE   W12
 BYTE   PAN   c_v+0
 BYTE   N24  Bn1
 BYTE   N24  Bn2
 BYTE   W24
 BYTE   Bn1
 BYTE   N24  Bn2
 BYTE   W24
 BYTE   N10  Fs2
 BYTE   N10  Fs3
 BYTE   W12
 BYTE   Fs2
 BYTE   N10  Fs3
 BYTE   W12
 BYTE   PEND 
//  #03 //003   ----------------------------------------
Label_0105A117:
 BYTE   PAN   c_v+0
 BYTE   N24  Bn1  v088
 BYTE   N24  Bn2
 BYTE   W24
 BYTE   Bn1
 BYTE   N24  Bn2
 BYTE   W24
 BYTE   N10  Fs2
 BYTE   N10  Fs3
 BYTE   W12
 BYTE   Fs2
 BYTE   N10  Fs3
 BYTE   W12
 BYTE   PAN   c_v+0
 BYTE   N24  Bn1
 BYTE   N24  Bn2
 BYTE   W24
 BYTE   PEND 
//  #03 //004   ----------------------------------------
Label_0105A134:
 BYTE   N24  Bn1  v088
 BYTE   N24  Bn2
 BYTE   W24
 BYTE   N10  Fs2
 BYTE   N10  Fs3
 BYTE   W12
 BYTE   Fs2
 BYTE   N10  Fs3
 BYTE   W12
 BYTE   PAN   c_v+0
 BYTE   N24  En1
 BYTE   N24  En2
 BYTE   W24
 BYTE   En1
 BYTE   N24  En2
 BYTE   W24
 BYTE   PEND 
//  #03 //005   ----------------------------------------
Label_0105A14F:
 BYTE   N10  Bn1  v088
 BYTE   N10  Bn2
 BYTE   W12
 BYTE   Bn1
 BYTE   N10  Bn2
 BYTE   W12
 BYTE   PAN   c_v+0
 BYTE   N24  En1
 BYTE   N24  En2
 BYTE   W24
 BYTE   En1
 BYTE   N24  En2
 BYTE   W24
 BYTE   N10  Bn1
 BYTE   N10  Bn2
 BYTE   W12
 BYTE   Bn1
 BYTE   N10  Bn2
 BYTE   W12
 BYTE   PEND 
//  #03 //006   ----------------------------------------
Label_0105A16E:
 BYTE   PAN   c_v+0
 BYTE   N24  En1  v088
 BYTE   N24  En2
 BYTE   W24
 BYTE   En1
 BYTE   N24  En2
 BYTE   W24
 BYTE   N10  Bn1
 BYTE   N10  Bn2
 BYTE   W12
 BYTE   Bn1
 BYTE   N10  Bn2
 BYTE   W12
 BYTE   PAN   c_v+0
 BYTE   N24  En1
 BYTE   N24  En2
 BYTE   W24
 BYTE   PEND 
//  #03 //007   ----------------------------------------
Label_0105A18B:
 BYTE   N24  En1  v088
 BYTE   N24  En2
 BYTE   W24
 BYTE   N10  Bn1
 BYTE   N10  Bn2
 BYTE   W12
 BYTE   Bn1
 BYTE   N10  Bn2
 BYTE   W12
 BYTE   PAN   c_v+0
 BYTE   N10  Gs2
 BYTE   N10  Gs3
 BYTE   W48
 BYTE   PEND 
//  #03 //008   ----------------------------------------
 BYTE   Gs2
 BYTE   N10  Gs3
 BYTE   W12
 BYTE   Gs2
 BYTE   N10  Gs3
 BYTE   W12
 BYTE   An2
 BYTE   N10  An3
 BYTE   W48
 BYTE   An2
 BYTE   N10  An3
 BYTE   W12
 BYTE   An2
 BYTE   N10  An3
 BYTE   W12
//  #03 //009   ----------------------------------------
 BYTE   Fs2
 BYTE   N10  Fs3
 BYTE   W60
 BYTE   Fs2
 BYTE   N10  Fs3
 BYTE   W12
 BYTE   An2
 BYTE   N10  An3
 BYTE   W24
//  #03 //010   ----------------------------------------
 BYTE   W12
 BYTE   Gs2
 BYTE   N10  Gs3
 BYTE   W36
 BYTE   PAN   c_v+0
 BYTE   N24  Bn1
 BYTE   N24  Bn2
 BYTE   W24
 BYTE   Bn1
 BYTE   N24  Bn2
 BYTE   W24
//  #03 //011   ----------------------------------------
 BYTE   PATT
  POIN2 Label_0105A0F8
//  #03 //012   ----------------------------------------
 BYTE   PATT
  POIN2 Label_0105A117
//  #03 //013   ----------------------------------------
 BYTE   PATT
  POIN2 Label_0105A134
//  #03 //014   ----------------------------------------
 BYTE   PATT
  POIN2 Label_0105A14F
//  #03 //015   ----------------------------------------
 BYTE   PATT
  POIN2 Label_0105A16E
//  #03 //016   ----------------------------------------
 BYTE   PATT
  POIN2 Label_0105A18B
//  #03 //017   ----------------------------------------
 BYTE   W12
 BYTE   N10  Gs2  v088
 BYTE   N10  Gs3
 BYTE   W12
 BYTE   Fs2
 BYTE   N10  Fs3
 BYTE   W48
 BYTE   Fs2
 BYTE   N10  Fs3
 BYTE   W12
 BYTE   Fs2
 BYTE   N10  Fs3
 BYTE   W12
//  #03 //018   ----------------------------------------
 BYTE   En2
 BYTE   N10  En3
 BYTE   W60
 BYTE   En2
 BYTE   N10  En3
 BYTE   W12
 BYTE   Dn2
 BYTE   N10  Dn3
 BYTE   W24
//  #03 //019   ----------------------------------------
 BYTE   W96
//  #03 //020   ----------------------------------------
 BYTE   W96
//  #03 //021   ----------------------------------------
 BYTE   W96
//  #03 //022   ----------------------------------------
 BYTE   W96
//  #03 //023   ----------------------------------------
 BYTE   W96
//  #03 //024   ----------------------------------------
 BYTE   W96
//  #03 //025   ----------------------------------------
 BYTE   W24
 BYTE   N07  Fs2
 BYTE   N07  Fs3
 BYTE   W08
 BYTE   Fs2
 BYTE   N07  Fs3
 BYTE   W08
 BYTE   Fs2
 BYTE   N07  Fs3
 BYTE   W08
 BYTE   N10  Bn1
 BYTE   N10  Bn2
 BYTE   W48
//  #03 //026   ----------------------------------------
 BYTE   Fs2
 BYTE   N10  Fs3
 BYTE   W12
 BYTE   Fs2
 BYTE   N10  Fs3
 BYTE   W12
 BYTE   Bn1
 BYTE   N10  Bn2
 BYTE   W48
 BYTE   Fs2
 BYTE   N10  Fs3
 BYTE   W12
 BYTE   Fs2
 BYTE   N10  Fs3
 BYTE   W12
//  #03 //027   ----------------------------------------
 BYTE   Bn1
 BYTE   N10  Bn2
 BYTE   W48
 BYTE   Fs2
 BYTE   N10  Fs3
 BYTE   W12
 BYTE   Fs2
 BYTE   N10  Fs3
 BYTE   W12
 BYTE   Bn1
 BYTE   N10  Bn2
 BYTE   W24
//  #03 //028   ----------------------------------------
 BYTE   W24
 BYTE   Fs2
 BYTE   N10  Fs3
 BYTE   W12
 BYTE   Fs2
 BYTE   N10  Fs3
 BYTE   W12
 BYTE   PAN   c_v+0
 BYTE   W01
 BYTE   GoTo
  POIN2 Label_0105A0EC
 BYTE   FINE

//**************** Track 4 (Midi-Chn.3) ****************//

KHCoMScherzoDiNotteAzula_004:
//  #04 //000   ----------------------------------------
 BYTE   KEYSH   KHCoMScherzoDiNotteAzula_key+0
 BYTE   VOICE   40
 BYTE   MODT 0
 BYTE   LFOS 44
 BYTE   VOL   40*KHCoMScherzoDiNotteAzula_mvl/mxv
 BYTE   PAN   c_v+0
 BYTE   W96
//  #04 //001   ----------------------------------------
 BYTE   W48
Label_01059EEA:
 BYTE   N05  Dn3  v088
 BYTE   N05  Fs3
 BYTE   W06
 BYTE   En3
 BYTE   N05  Gs3
 BYTE   W06
 BYTE   Fs3
 BYTE   N05  An3
 BYTE   W06
 BYTE   En3
 BYTE   N05  Gs3
 BYTE   W06
 BYTE   N21  Fs3
 BYTE   N21  Bn3
 BYTE   W24
//  #04 //002   ----------------------------------------
Label_01059F01:
 BYTE   N10  Fs3  v088
 BYTE   N10  An3
 BYTE   W12
 BYTE   En3
 BYTE   N10  Gs3
 BYTE   W12
 BYTE   Fs3
 BYTE   N10  An3
 BYTE   W12
 BYTE   En3
 BYTE   N10  Gs3
 BYTE   W12
 BYTE   Dn3
 BYTE   N10  Fs3
 BYTE   W12
 BYTE   N21  En3
 BYTE   N21  Gs3
 BYTE   W24
 BYTE   N10  Cs3
 BYTE   N10  En3
 BYTE   W12
 BYTE   PEND 
//  #04 //003   ----------------------------------------
Label_01059F22:
 BYTE   N21  Dn3  v088
 BYTE   N21  Fs3
 BYTE   W24
 BYTE   Bn2
 BYTE   W24
 BYTE   N10  An2
 BYTE   N10  Cs3
 BYTE   W12
 BYTE   Bn2
 BYTE   N10  Dn3
 BYTE   W12
 BYTE   Cs3
 BYTE   N10  En3
 BYTE   W12
 BYTE   Bn2
 BYTE   N10  Dn3
 BYTE   W12
 BYTE   PEND 
//  #04 //004   ----------------------------------------
Label_01059F3C:
 BYTE   N10  An2  v088
 BYTE   N10  Cs3
 BYTE   W12
 BYTE   N32  Bn2
 BYTE   N32  Dn3
 BYTE   W36
 BYTE   N05
 BYTE   N05  Fs3
 BYTE   W06
 BYTE   En3
 BYTE   N05  Gs3
 BYTE   W06
 BYTE   Fs3
 BYTE   N05  An3
 BYTE   W06
 BYTE   En3
 BYTE   N05  Gs3
 BYTE   W06
 BYTE   N21  Fs3
 BYTE   N21  Bn3
 BYTE   W24
 BYTE   PEND 
//  #04 //005   ----------------------------------------
Label_01059F5D:
 BYTE   N10  Fs3  v088
 BYTE   N10  Bn3
 BYTE   W12
 BYTE   En3
 BYTE   N10  An3
 BYTE   W12
 BYTE   Fs3
 BYTE   N10  An3
 BYTE   W12
 BYTE   En3
 BYTE   N10  Gs3
 BYTE   W12
 BYTE   Dn3
 BYTE   N10  Fs3
 BYTE   W12
 BYTE   N21  En3
 BYTE   N21  Gs3
 BYTE   W24
 BYTE   N10  Cs3
 BYTE   N10  En3
 BYTE   W12
 BYTE   PEND 
//  #04 //006   ----------------------------------------
Label_01059F7E:
 BYTE   N21  Cs3  v088
 BYTE   N21  Fs3
 BYTE   W24
 BYTE   Bn2
 BYTE   W24
 BYTE   N10  An2
 BYTE   N10  Cs3
 BYTE   W12
 BYTE   Bn2
 BYTE   N10  Dn3
 BYTE   W12
 BYTE   Cs3
 BYTE   N10  En3
 BYTE   W12
 BYTE   Bn2
 BYTE   N10  Dn3
 BYTE   W12
 BYTE   PEND 
//  #04 //007   ----------------------------------------
Label_01059F98:
 BYTE   N10  An2  v088
 BYTE   N10  Cs3
 BYTE   W12
 BYTE   N32  Fs2
 BYTE   N32  Bn2
 BYTE   W84
 BYTE   PEND 
//  #04 //008   ----------------------------------------
 BYTE   W96
//  #04 //009   ----------------------------------------
 BYTE   W96
//  #04 //010   ----------------------------------------
 BYTE   W12
 BYTE   N05  Gs2
 BYTE   W06
 BYTE   An2
 BYTE   W06
 BYTE   Bn2
 BYTE   W06
 BYTE   Cs3
 BYTE   W06
 BYTE   Dn3
 BYTE   W06
 BYTE   En3
 BYTE   W06
 BYTE   Dn3
 BYTE   N05  Fs3
 BYTE   W06
 BYTE   En3
 BYTE   N05  Gs3
 BYTE   W06
 BYTE   Fs3
 BYTE   N05  An3
 BYTE   W06
 BYTE   En3
 BYTE   N05  Gs3
 BYTE   W06
 BYTE   N21  Fs3
 BYTE   N21  Bn3
 BYTE   W24
//  #04 //011   ----------------------------------------
 BYTE   PATT
  POIN2 Label_01059F01
//  #04 //012   ----------------------------------------
 BYTE   PATT
  POIN2 Label_01059F22
//  #04 //013   ----------------------------------------
 BYTE   PATT
  POIN2 Label_01059F3C
//  #04 //014   ----------------------------------------
 BYTE   PATT
  POIN2 Label_01059F5D
//  #04 //015   ----------------------------------------
 BYTE   PATT
  POIN2 Label_01059F7E
//  #04 //016   ----------------------------------------
 BYTE   PATT
  POIN2 Label_01059F98
//  #04 //017   ----------------------------------------
 BYTE   W96
//  #04 //018   ----------------------------------------
 BYTE   N64  Gn2  v088
 BYTE   W72
 BYTE   An2
 BYTE   W24
//  #04 //019   ----------------------------------------
 BYTE   W96
//  #04 //020   ----------------------------------------
 BYTE   W96
//  #04 //021   ----------------------------------------
 BYTE   N10
 BYTE   N10  Dn3
 BYTE   W24
 BYTE   N21  An2
 BYTE   N21  Dn3
 BYTE   W24
 BYTE   N10  An2
 BYTE   N10  Dn3
 BYTE   W12
 BYTE   An2
 BYTE   N10  Dn3
 BYTE   W12
 BYTE   An2
 BYTE   N10  Dn3
 BYTE   W24
//  #04 //022   ----------------------------------------
 BYTE   N21  An2
 BYTE   N21  Dn3
 BYTE   W24
 BYTE   N10  An2
 BYTE   N10  Dn3
 BYTE   W12
 BYTE   An2
 BYTE   N10  Dn3
 BYTE   W12
 BYTE   TIE  Dn2
 BYTE   W48
//  #04 //023   ----------------------------------------
 BYTE   W96
//  #04 //024   ----------------------------------------
 BYTE   EOT
 BYTE   TIE  Ds2
 BYTE   W96
//  #04 //025   ----------------------------------------
 BYTE   W48
 BYTE   EOT
 BYTE   TIE  Dn2
 BYTE   W48
//  #04 //026   ----------------------------------------
 BYTE   W96
//  #04 //027   ----------------------------------------
 BYTE   EOT
 BYTE   TIE  Ds2
 BYTE   W96
//  #04 //028   ----------------------------------------
 BYTE   W48
 BYTE   EOT
 BYTE   W01
 BYTE   GoTo
  POIN2 Label_01059EEA
 BYTE   FINE

//**************** Track 5 (Midi-Chn.4) ****************//

KHCoMScherzoDiNotteAzula_005:
//  #05 //000   ----------------------------------------
 BYTE   KEYSH   KHCoMScherzoDiNotteAzula_key+0
 BYTE   VOICE   52
 BYTE   MODT 0
 BYTE   LFOS 44
 BYTE   VOL   38*KHCoMScherzoDiNotteAzula_mvl/mxv
 BYTE   PAN   c_v+0
 BYTE   W96
//  #05 //001   ----------------------------------------
 BYTE   W48
Label_55DCCA:
 BYTE   W48
//  #05 //002   ----------------------------------------
 BYTE   W96
//  #05 //003   ----------------------------------------
 BYTE   W96
//  #05 //004   ----------------------------------------
 BYTE   W96
//  #05 //005   ----------------------------------------
 BYTE   W96
//  #05 //006   ----------------------------------------
 BYTE   W96
//  #05 //007   ----------------------------------------
 BYTE   W48
 BYTE   N64  Dn3  v088
 BYTE   W48
//  #05 //008   ----------------------------------------
 BYTE   W24
 BYTE   TIE  En3
 BYTE   W72
//  #05 //009   ----------------------------------------
 BYTE   W96
//  #05 //010   ----------------------------------------
 BYTE   W40
 BYTE   EOT
 BYTE   W56
//  #05 //011   ----------------------------------------
 BYTE   W96
//  #05 //012   ----------------------------------------
 BYTE   W96
//  #05 //013   ----------------------------------------
 BYTE   W96
//  #05 //014   ----------------------------------------
 BYTE   W96
//  #05 //015   ----------------------------------------
 BYTE   W96
//  #05 //016   ----------------------------------------
 BYTE   W48
 BYTE   N64  Bn2
 BYTE   W48
//  #05 //017   ----------------------------------------
 BYTE   W24
 BYTE   An2
 BYTE   W72
//  #05 //018   ----------------------------------------
 BYTE   En3
 BYTE   W72
 BYTE   Ds3
 BYTE   W24
//  #05 //019   ----------------------------------------
 BYTE   W48
 BYTE   TIE
 BYTE   W48
//  #05 //020   ----------------------------------------
 BYTE   W88
 BYTE   EOT
 BYTE   W08
//  #05 //021   ----------------------------------------
 BYTE   W96
//  #05 //022   ----------------------------------------
 BYTE   W48
 BYTE   TIE  Dn3
 BYTE   W48
//  #05 //023   ----------------------------------------
 BYTE   W96
//  #05 //024   ----------------------------------------
 BYTE   EOT
 BYTE   TIE  Ds3
 BYTE   W96
//  #05 //025   ----------------------------------------
 BYTE   W48
 BYTE   EOT
 BYTE   TIE  Dn3
 BYTE   W48
//  #05 //026   ----------------------------------------
 BYTE   W96
//  #05 //027   ----------------------------------------
 BYTE   EOT
 BYTE   TIE  Ds3
 BYTE   W96
//  #05 //028   ----------------------------------------
 BYTE   W48
 BYTE   EOT
 BYTE   W01
 BYTE   GoTo
  POIN2 Label_55DCCA
 BYTE   FINE

//**************** Track 6 (Midi-Chn.5) ****************//

KHCoMScherzoDiNotteAzula_006:
//  #06 //000   ----------------------------------------
 BYTE   KEYSH   KHCoMScherzoDiNotteAzula_key+0
 BYTE   VOICE   61
 BYTE   MODT 0
 BYTE   LFOS 44
 BYTE   VOL   40*KHCoMScherzoDiNotteAzula_mvl/mxv
 BYTE   N07  Fs3  v088
 BYTE   W24
 BYTE   N07
 BYTE   W24
 BYTE   N07
 BYTE   W12
 BYTE   N07
 BYTE   W12
 BYTE   N07
 BYTE   W24
//  #06 //001   ----------------------------------------
 BYTE   N07
 BYTE   W24
 BYTE   N07
 BYTE   W12
 BYTE   N07
 BYTE   W12
Label_55D8E4:
 BYTE   N07  Fs3  v088
 BYTE   W24
 BYTE   N07
 BYTE   W24
//  #06 //002   ----------------------------------------
Label_55D8EA:
 BYTE   N07  Fs3  v088
 BYTE   W12
 BYTE   N07
 BYTE   W12
 BYTE   N07
 BYTE   W24
 BYTE   N07
 BYTE   W24
 BYTE   N07
 BYTE   W12
 BYTE   N07
 BYTE   W12
 BYTE   PEND 
//  #06 //003   ----------------------------------------
Label_55D8F9:
 BYTE   N07  Fs3  v088
 BYTE   W24
 BYTE   N07
 BYTE   W24
 BYTE   N07
 BYTE   W12
 BYTE   N07
 BYTE   W12
 BYTE   N07
 BYTE   W24
 BYTE   PEND 
//  #06 //004   ----------------------------------------
Label_55D906:
 BYTE   N07  Fs3  v088
 BYTE   W24
 BYTE   N07
 BYTE   W12
 BYTE   N07
 BYTE   W12
 BYTE   N07
 BYTE   W24
 BYTE   N07
 BYTE   W24
 BYTE   PEND 
//  #06 //005   ----------------------------------------
 BYTE   PATT
  POIN2 Label_55D8EA
//  #06 //006   ----------------------------------------
 BYTE   PATT
  POIN2 Label_55D8F9
//  #06 //007   ----------------------------------------
Label_55D91D:
 BYTE   N07  Fs3  v088
 BYTE   W24
 BYTE   N07
 BYTE   W12
 BYTE   N07
 BYTE   W60
 BYTE   PEND 
//  #06 //008   ----------------------------------------
 BYTE   W96
//  #06 //009   ----------------------------------------
 BYTE   W96
//  #06 //010   ----------------------------------------
 BYTE   W48
 BYTE   N07
 BYTE   W24
 BYTE   N07
 BYTE   W24
//  #06 //011   ----------------------------------------
 BYTE   PATT
  POIN2 Label_55D8EA
//  #06 //012   ----------------------------------------
 BYTE   PATT
  POIN2 Label_55D8F9
//  #06 //013   ----------------------------------------
 BYTE   PATT
  POIN2 Label_55D906
//  #06 //014   ----------------------------------------
 BYTE   PATT
  POIN2 Label_55D8EA
//  #06 //015   ----------------------------------------
 BYTE   PATT
  POIN2 Label_55D8F9
//  #06 //016   ----------------------------------------
 BYTE   PATT
  POIN2 Label_55D91D
//  #06 //017   ----------------------------------------
 BYTE   W96
//  #06 //018   ----------------------------------------
 BYTE   W96
//  #06 //019   ----------------------------------------
 BYTE   W96
//  #06 //020   ----------------------------------------
 BYTE   W96
//  #06 //021   ----------------------------------------
 BYTE   W96
//  #06 //022   ----------------------------------------
 BYTE   W96
//  #06 //023   ----------------------------------------
 BYTE   W96
//  #06 //024   ----------------------------------------
 BYTE   W96
//  #06 //025   ----------------------------------------
 BYTE   W96
//  #06 //026   ----------------------------------------
 BYTE   W96
//  #06 //027   ----------------------------------------
 BYTE   W96
//  #06 //028   ----------------------------------------
 BYTE   W48
 BYTE   W01
 BYTE   GoTo
  POIN2 Label_55D8E4
 BYTE   FINE

//**************** Track 7 (Midi-Chn.6) ****************//

KHCoMScherzoDiNotteAzula_007:
//  #07 //000   ----------------------------------------
 BYTE   KEYSH   KHCoMScherzoDiNotteAzula_key+0
 BYTE   VOICE   127
 BYTE   MODT 0
 BYTE   LFOS 44
 BYTE   VOL   48*KHCoMScherzoDiNotteAzula_mvl/mxv
 BYTE   W12
 BYTE   N06  Dn1  v088
 BYTE   W06
 BYTE   N06
 BYTE   W06
 BYTE   N06
 BYTE   W24
 BYTE   N06
 BYTE   W12
 BYTE   N06
 BYTE   W24
 BYTE   N03
 BYTE   W03
 BYTE   N03
 BYTE   W03
 BYTE   N03
 BYTE   W03
 BYTE   N03
 BYTE   W03
//  #07 //001   ----------------------------------------
 BYTE   N06
 BYTE   W24
 BYTE   N06
 BYTE   W12
 BYTE   N06
 BYTE   W12
Label_0105A299:
 BYTE   N24  Cs2  v088
 BYTE   W12
 BYTE   N06  Dn1
 BYTE   W06
 BYTE   N06
 BYTE   W06
 BYTE   N06
 BYTE   W24
//  #07 //002   ----------------------------------------
Label_0105A2A4:
 BYTE   N06  Dn1  v088
 BYTE   W12
 BYTE   N06
 BYTE   W24
 BYTE   N03
 BYTE   W03
 BYTE   N03
 BYTE   W03
 BYTE   N03
 BYTE   W03
 BYTE   N03
 BYTE   W03
 BYTE   N06
 BYTE   W24
 BYTE   N06
 BYTE   W12
 BYTE   N06
 BYTE   W12
 BYTE   PEND 
//  #07 //003   ----------------------------------------
Label_0105A2B9:
 BYTE   W12
 BYTE   N06  Dn1  v088
 BYTE   W06
 BYTE   N06
 BYTE   W06
 BYTE   N06
 BYTE   W24
 BYTE   N06
 BYTE   W12
 BYTE   N06
 BYTE   W24
 BYTE   N03
 BYTE   W03
 BYTE   N03
 BYTE   W03
 BYTE   N03
 BYTE   W03
 BYTE   N03
 BYTE   W03
 BYTE   PEND 
//  #07 //004   ----------------------------------------
Label_0105A2CF:
 BYTE   N06  Dn1  v088
 BYTE   W24
 BYTE   N06
 BYTE   W12
 BYTE   N06
 BYTE   W12
 BYTE   N24  Cs2
 BYTE   W12
 BYTE   N06  Dn1
 BYTE   W06
 BYTE   N06
 BYTE   W06
 BYTE   N06
 BYTE   W24
 BYTE   PEND 
//  #07 //005   ----------------------------------------
 BYTE   PATT
  POIN2 Label_0105A2A4
//  #07 //006   ----------------------------------------
 BYTE   PATT
  POIN2 Label_0105A2B9
//  #07 //007   ----------------------------------------
Label_0105A2EC:
 BYTE   N06  Dn1  v088
 BYTE   W24
 BYTE   N06
 BYTE   W12
 BYTE   N06
 BYTE   W24
 BYTE   Dn1  v056
 BYTE   W06
 BYTE   N06
 BYTE   W06
 BYTE   N06
 BYTE   W24
 BYTE   PEND 
//  #07 //008   ----------------------------------------
Label_0105A2FC:
 BYTE   N06  Dn1  v056
 BYTE   W12
 BYTE   N06
 BYTE   W24
 BYTE   N03
 BYTE   W03
 BYTE   N03
 BYTE   W03
 BYTE   N03
 BYTE   W03
 BYTE   N03
 BYTE   W03
 BYTE   N06
 BYTE   W24
 BYTE   N06
 BYTE   W12
 BYTE   N06
 BYTE   W12
 BYTE   PEND 
//  #07 //009   ----------------------------------------
Label_0105A311:
 BYTE   W12
 BYTE   N06  Dn1  v056
 BYTE   W06
 BYTE   N06
 BYTE   W06
 BYTE   N06
 BYTE   W24
 BYTE   N06
 BYTE   W12
 BYTE   N06
 BYTE   W24
 BYTE   N03
 BYTE   W03
 BYTE   N03
 BYTE   W03
 BYTE   N03
 BYTE   W03
 BYTE   N03
 BYTE   W03
 BYTE   PEND 
//  #07 //010   ----------------------------------------
 BYTE   N06
 BYTE   W24
 BYTE   N06
 BYTE   W12
 BYTE   N06
 BYTE   W12
 BYTE   N24  Cs2  v088
 BYTE   W12
 BYTE   N06  Dn1
 BYTE   W06
 BYTE   N06
 BYTE   W06
 BYTE   N06
 BYTE   W24
//  #07 //011   ----------------------------------------
 BYTE   PATT
  POIN2 Label_0105A2A4
//  #07 //012   ----------------------------------------
 BYTE   PATT
  POIN2 Label_0105A2B9
//  #07 //013   ----------------------------------------
 BYTE   PATT
  POIN2 Label_0105A2CF
//  #07 //014   ----------------------------------------
 BYTE   PATT
  POIN2 Label_0105A2A4
//  #07 //015   ----------------------------------------
 BYTE   PATT
  POIN2 Label_0105A2B9
//  #07 //016   ----------------------------------------
 BYTE   PATT
  POIN2 Label_0105A2EC
//  #07 //017   ----------------------------------------
 BYTE   PATT
  POIN2 Label_0105A2FC
//  #07 //018   ----------------------------------------
 BYTE   PATT
  POIN2 Label_0105A311
//  #07 //019   ----------------------------------------
 BYTE   N06  Dn1  v056
 BYTE   W24
 BYTE   N06
 BYTE   W12
 BYTE   N06
 BYTE   W60
//  #07 //020   ----------------------------------------
 BYTE   W96
//  #07 //021   ----------------------------------------
 BYTE   W96
//  #07 //022   ----------------------------------------
 BYTE   W96
//  #07 //023   ----------------------------------------
 BYTE   W96
//  #07 //024   ----------------------------------------
 BYTE   W96
//  #07 //025   ----------------------------------------
 BYTE   W24
 BYTE   PAN   c_v+0
 BYTE   N03  Dn1  v088
 BYTE   W03
 BYTE   N03
 BYTE   W03
 BYTE   N03
 BYTE   W03
 BYTE   N03
 BYTE   W03
 BYTE   N03
 BYTE   W03
 BYTE   N03
 BYTE   W03
 BYTE   N03
 BYTE   W03
 BYTE   N03
 BYTE   W15
 BYTE   N06
 BYTE   W06
 BYTE   N06
 BYTE   W06
 BYTE   N06
 BYTE   W24
//  #07 //026   ----------------------------------------
 BYTE   PATT
  POIN2 Label_0105A2A4
//  #07 //027   ----------------------------------------
 BYTE   PATT
  POIN2 Label_0105A2B9
//  #07 //028   ----------------------------------------
 BYTE   N06  Dn1  v088
 BYTE   W24
 BYTE   N06
 BYTE   W12
 BYTE   N06
 BYTE   W13
 BYTE   GoTo
  POIN2 Label_0105A299
 BYTE   FINE

//******************************************************//
	ALIGN 4

KHCoMScherzoDiNotteAzula:
	BYTE	7	// NumTrks
	BYTE	0	// NumBlks
	BYTE	KHCoMScherzoDiNotteAzula_pri	// Priority
	BYTE	KHCoMScherzoDiNotteAzula_rev	// Reverb.
    
	POIN2	KHCoMScherzoDiNotteAzula_grp
    
	POIN2	KHCoMScherzoDiNotteAzula_001
	POIN2	KHCoMScherzoDiNotteAzula_002
	POIN2	KHCoMScherzoDiNotteAzula_003
	POIN2	KHCoMScherzoDiNotteAzula_004
	POIN2	KHCoMScherzoDiNotteAzula_005
	POIN2	KHCoMScherzoDiNotteAzula_006
	POIN2	KHCoMScherzoDiNotteAzula_007

	
